0, 0, Header, 1, 12, 480
1, 0, Start_track
1, 0, Text_t, "By Bach arr. Pollen\015\012"
1, 0, Title_t, "Jesu Joy of Man's Desing"
1, 0, Tempo, 923076
1, 0, Time_signature, 3, 2, 24, 8
1, 0, Key_signature, 1, "major"
1, 99360, Tempo, 1000000
1, 99840, Tempo, 1333333
1, 100320, Tempo, 1500000
1, 100320, End_track
2, 0, Start_track
2, 0, Title_t, "JESU JOY"
2, 0, MIDI_port, 0
2, 0, Channel_prefix, 0
2, 0, Control_c, 0, 7, 127
2, 0, Control_c, 0, 10, 64
2, 0, Control_c, 0, 91, 47
2, 0, Program_c, 0, 68
2, 160, Note_on_c, 0, 67, 60
2, 320, Note_off_c, 0, 67, 64
2, 320, Note_on_c, 0, 69, 60
2, 480, Note_off_c, 0, 69, 64
2, 480, Note_on_c, 0, 71, 60
2, 640, Note_off_c, 0, 71, 64
2, 640, Note_on_c, 0, 74, 60
2, 800, Note_off_c, 0, 74, 64
2, 800, Note_on_c, 0, 72, 60
2, 960, Note_off_c, 0, 72, 64
2, 960, Note_on_c, 0, 72, 60
2, 1120, Note_off_c, 0, 72, 64
2, 1120, Note_on_c, 0, 76, 60
2, 1280, Note_off_c, 0, 76, 64
2, 1280, Note_on_c, 0, 74, 60
2, 1440, Note_off_c, 0, 74, 64
2, 1440, Note_on_c, 0, 74, 60
2, 1600, Note_off_c, 0, 74, 64
2, 1600, Note_on_c, 0, 79, 60
2, 1760, Note_off_c, 0, 79, 64
2, 1760, Note_on_c, 0, 78, 60
2, 1920, Note_off_c, 0, 78, 64
2, 1920, Note_on_c, 0, 79, 60
2, 2080, Note_off_c, 0, 79, 64
2, 2080, Note_on_c, 0, 74, 60
2, 2240, Note_off_c, 0, 74, 64
2, 2240, Note_on_c, 0, 71, 60
2, 2400, Note_off_c, 0, 71, 64
2, 2400, Note_on_c, 0, 67, 60
2, 2560, Note_off_c, 0, 67, 64
2, 2560, Note_on_c, 0, 69, 60
2, 2720, Note_off_c, 0, 69, 64
2, 2720, Note_on_c, 0, 71, 60
2, 2880, Note_off_c, 0, 71, 64
2, 2880, Note_on_c, 0, 72, 60
2, 3040, Note_off_c, 0, 72, 64
2, 3040, Note_on_c, 0, 74, 60
2, 3200, Note_off_c, 0, 74, 64
2, 3200, Note_on_c, 0, 76, 60
2, 3360, Note_off_c, 0, 76, 64
2, 3360, Note_on_c, 0, 74, 60
2, 3520, Note_off_c, 0, 74, 64
2, 3520, Note_on_c, 0, 72, 60
2, 3680, Note_off_c, 0, 72, 64
2, 3680, Note_on_c, 0, 71, 60
2, 3840, Note_off_c, 0, 71, 64
2, 3840, Note_on_c, 0, 69, 60
2, 4000, Note_off_c, 0, 69, 64
2, 4000, Note_on_c, 0, 71, 60
2, 4160, Note_off_c, 0, 71, 64
2, 4160, Note_on_c, 0, 67, 60
2, 4320, Note_off_c, 0, 67, 64
2, 4320, Note_on_c, 0, 66, 60
2, 4480, Note_off_c, 0, 66, 64
2, 4480, Note_on_c, 0, 67, 60
2, 4640, Note_off_c, 0, 67, 64
2, 4640, Note_on_c, 0, 69, 60
2, 4800, Note_off_c, 0, 69, 64
2, 4800, Note_on_c, 0, 62, 60
2, 4960, Note_off_c, 0, 62, 64
2, 4960, Note_on_c, 0, 66, 60
2, 5120, Note_off_c, 0, 66, 64
2, 5120, Note_on_c, 0, 69, 60
2, 5280, Note_off_c, 0, 69, 64
2, 5280, Note_on_c, 0, 72, 60
2, 5440, Note_off_c, 0, 72, 64
2, 5440, Note_on_c, 0, 71, 60
2, 5600, Note_off_c, 0, 71, 64
2, 5600, Note_on_c, 0, 69, 60
2, 5760, Note_off_c, 0, 69, 64
2, 5760, Note_on_c, 0, 71, 60
2, 5920, Note_off_c, 0, 71, 64
2, 5920, Note_on_c, 0, 67, 60
2, 6080, Note_off_c, 0, 67, 64
2, 6080, Note_on_c, 0, 69, 60
2, 6240, Note_off_c, 0, 69, 64
2, 6240, Note_on_c, 0, 71, 60
2, 6400, Note_off_c, 0, 71, 64
2, 6400, Note_on_c, 0, 74, 60
2, 6560, Note_off_c, 0, 74, 64
2, 6560, Note_on_c, 0, 72, 60
2, 6720, Note_off_c, 0, 72, 64
2, 6720, Note_on_c, 0, 72, 60
2, 6880, Note_off_c, 0, 72, 64
2, 6880, Note_on_c, 0, 76, 60
2, 7040, Note_off_c, 0, 76, 64
2, 7040, Note_on_c, 0, 74, 60
2, 7200, Note_off_c, 0, 74, 64
2, 7200, Note_on_c, 0, 74, 60
2, 7360, Note_off_c, 0, 74, 64
2, 7360, Note_on_c, 0, 79, 60
2, 7520, Note_off_c, 0, 79, 64
2, 7520, Note_on_c, 0, 78, 60
2, 7680, Note_off_c, 0, 78, 64
2, 7680, Note_on_c, 0, 79, 60
2, 7840, Note_off_c, 0, 79, 64
2, 7840, Note_on_c, 0, 74, 60
2, 8000, Note_off_c, 0, 74, 64
2, 8000, Note_on_c, 0, 71, 60
2, 8160, Note_off_c, 0, 71, 64
2, 8160, Note_on_c, 0, 67, 60
2, 8320, Note_off_c, 0, 67, 64
2, 8320, Note_on_c, 0, 69, 60
2, 8480, Note_off_c, 0, 69, 64
2, 8480, Note_on_c, 0, 71, 60
2, 8640, Note_off_c, 0, 71, 64
2, 8640, Note_on_c, 0, 64, 60
2, 8800, Note_off_c, 0, 64, 64
2, 8800, Note_on_c, 0, 74, 60
2, 8960, Note_off_c, 0, 74, 64
2, 8960, Note_on_c, 0, 72, 60
2, 9120, Note_off_c, 0, 72, 64
2, 9120, Note_on_c, 0, 71, 60
2, 9280, Note_off_c, 0, 71, 64
2, 9280, Note_on_c, 0, 69, 60
2, 9440, Note_off_c, 0, 69, 64
2, 9440, Note_on_c, 0, 67, 60
2, 9600, Note_off_c, 0, 67, 64
2, 9600, Note_on_c, 0, 62, 60
2, 9760, Note_off_c, 0, 62, 64
2, 9760, Note_on_c, 0, 67, 60
2, 9920, Note_off_c, 0, 67, 64
2, 9920, Note_on_c, 0, 66, 60
2, 10080, Note_off_c, 0, 66, 64
2, 10080, Note_on_c, 0, 67, 60
2, 10240, Note_off_c, 0, 67, 64
2, 10240, Note_on_c, 0, 71, 60
2, 10400, Note_off_c, 0, 71, 64
2, 10400, Note_on_c, 0, 74, 60
2, 10560, Note_off_c, 0, 74, 64
2, 10560, Note_on_c, 0, 79, 60
2, 10720, Note_off_c, 0, 79, 64
2, 10720, Note_on_c, 0, 74, 60
2, 10880, Note_off_c, 0, 74, 64
2, 10880, Note_on_c, 0, 71, 60
2, 11040, Note_off_c, 0, 71, 64
2, 11040, Note_on_c, 0, 67, 60
2, 11200, Note_off_c, 0, 67, 64
2, 11200, Note_on_c, 0, 71, 60
2, 11360, Note_off_c, 0, 71, 64
2, 11360, Note_on_c, 0, 74, 60
2, 11520, Note_off_c, 0, 74, 64
2, 11520, Note_on_c, 0, 79, 60
2, 11920, Note_off_c, 0, 79, 64
2, 16000, Note_on_c, 0, 62, 60
2, 16160, Note_off_c, 0, 62, 64
2, 16160, Note_on_c, 0, 64, 60
2, 16320, Note_off_c, 0, 64, 64
2, 16320, Note_on_c, 0, 66, 60
2, 16480, Note_off_c, 0, 66, 64
2, 16480, Note_on_c, 0, 69, 60
2, 16640, Note_off_c, 0, 69, 64
2, 16640, Note_on_c, 0, 67, 60
2, 16800, Note_off_c, 0, 67, 64
2, 16800, Note_on_c, 0, 69, 60
2, 16960, Note_off_c, 0, 69, 64
2, 16960, Note_on_c, 0, 72, 60
2, 17120, Note_off_c, 0, 72, 64
2, 17120, Note_on_c, 0, 71, 60
2, 17280, Note_off_c, 0, 71, 64
2, 17280, Note_on_c, 0, 72, 60
2, 17440, Note_off_c, 0, 72, 64
2, 17440, Note_on_c, 0, 69, 60
2, 17600, Note_off_c, 0, 69, 64
2, 17600, Note_on_c, 0, 66, 60
2, 17760, Note_off_c, 0, 66, 64
2, 17760, Note_on_c, 0, 62, 60
2, 17920, Note_off_c, 0, 62, 64
2, 17920, Note_on_c, 0, 66, 60
2, 18080, Note_off_c, 0, 66, 64
2, 18080, Note_on_c, 0, 69, 60
2, 18240, Note_off_c, 0, 69, 64
2, 18240, Note_on_c, 0, 72, 60
2, 18400, Note_off_c, 0, 72, 64
2, 18400, Note_on_c, 0, 71, 60
2, 18560, Note_off_c, 0, 71, 64
2, 18560, Note_on_c, 0, 69, 60
2, 18720, Note_off_c, 0, 69, 64
2, 18720, Note_on_c, 0, 71, 60
2, 18880, Note_off_c, 0, 71, 64
2, 18880, Note_on_c, 0, 67, 60
2, 19040, Note_off_c, 0, 67, 64
2, 19040, Note_on_c, 0, 69, 60
2, 19200, Note_off_c, 0, 69, 64
2, 19200, Note_on_c, 0, 71, 60
2, 19360, Note_off_c, 0, 71, 64
2, 19360, Note_on_c, 0, 74, 60
2, 19520, Note_off_c, 0, 74, 64
2, 19520, Note_on_c, 0, 72, 60
2, 19680, Note_off_c, 0, 72, 64
2, 19680, Note_on_c, 0, 72, 60
2, 19840, Note_off_c, 0, 72, 64
2, 19840, Note_on_c, 0, 76, 60
2, 20000, Note_off_c, 0, 76, 64
2, 20000, Note_on_c, 0, 74, 60
2, 20160, Note_off_c, 0, 74, 64
2, 20160, Note_on_c, 0, 74, 60
2, 20320, Note_off_c, 0, 74, 64
2, 20320, Note_on_c, 0, 79, 60
2, 20480, Note_off_c, 0, 79, 64
2, 20480, Note_on_c, 0, 78, 60
2, 20640, Note_off_c, 0, 78, 64
2, 20640, Note_on_c, 0, 79, 60
2, 20800, Note_off_c, 0, 79, 64
2, 20800, Note_on_c, 0, 74, 60
2, 20960, Note_off_c, 0, 74, 64
2, 20960, Note_on_c, 0, 71, 60
2, 21120, Note_off_c, 0, 71, 64
2, 21120, Note_on_c, 0, 67, 60
2, 21280, Note_off_c, 0, 67, 64
2, 21280, Note_on_c, 0, 69, 60
2, 21440, Note_off_c, 0, 69, 64
2, 21440, Note_on_c, 0, 71, 60
2, 21600, Note_off_c, 0, 71, 64
2, 21600, Note_on_c, 0, 64, 60
2, 21760, Note_off_c, 0, 64, 64
2, 21760, Note_on_c, 0, 74, 60
2, 21920, Note_off_c, 0, 74, 64
2, 21920, Note_on_c, 0, 72, 60
2, 22080, Note_off_c, 0, 72, 64
2, 22080, Note_on_c, 0, 71, 60
2, 22240, Note_off_c, 0, 71, 64
2, 22240, Note_on_c, 0, 69, 60
2, 22400, Note_off_c, 0, 69, 64
2, 22400, Note_on_c, 0, 67, 60
2, 22560, Note_off_c, 0, 67, 64
2, 22560, Note_on_c, 0, 62, 60
2, 22720, Note_off_c, 0, 62, 64
2, 22720, Note_on_c, 0, 67, 60
2, 22880, Note_off_c, 0, 67, 64
2, 22880, Note_on_c, 0, 66, 60
2, 23040, Note_off_c, 0, 66, 64
2, 23040, Note_on_c, 0, 67, 60
2, 23200, Note_off_c, 0, 67, 64
2, 23200, Note_on_c, 0, 71, 60
2, 23360, Note_off_c, 0, 71, 64
2, 23360, Note_on_c, 0, 69, 60
2, 23520, Note_off_c, 0, 69, 64
2, 23520, Note_on_c, 0, 71, 60
2, 23680, Note_off_c, 0, 71, 64
2, 23680, Note_on_c, 0, 74, 60
2, 23840, Note_off_c, 0, 74, 64
2, 23840, Note_on_c, 0, 72, 60
2, 24000, Note_off_c, 0, 72, 64
2, 24000, Note_on_c, 0, 72, 60
2, 24160, Note_off_c, 0, 72, 64
2, 24160, Note_on_c, 0, 76, 60
2, 24320, Note_off_c, 0, 76, 64
2, 24320, Note_on_c, 0, 74, 60
2, 24480, Note_off_c, 0, 74, 64
2, 24480, Note_on_c, 0, 74, 60
2, 24640, Note_off_c, 0, 74, 64
2, 24640, Note_on_c, 0, 79, 60
2, 24800, Note_off_c, 0, 79, 64
2, 24800, Note_on_c, 0, 78, 60
2, 24960, Note_off_c, 0, 78, 64
2, 24960, Note_on_c, 0, 79, 60
2, 25120, Note_off_c, 0, 79, 64
2, 25120, Note_on_c, 0, 74, 60
2, 25280, Note_off_c, 0, 74, 64
2, 25280, Note_on_c, 0, 71, 60
2, 25440, Note_off_c, 0, 71, 64
2, 25440, Note_on_c, 0, 67, 60
2, 25600, Note_off_c, 0, 67, 64
2, 25600, Note_on_c, 0, 69, 60
2, 25760, Note_off_c, 0, 69, 64
2, 25760, Note_on_c, 0, 71, 60
2, 25920, Note_off_c, 0, 71, 64
2, 25920, Note_on_c, 0, 72, 60
2, 26080, Note_off_c, 0, 72, 64
2, 26080, Note_on_c, 0, 74, 60
2, 26240, Note_off_c, 0, 74, 64
2, 26240, Note_on_c, 0, 76, 60
2, 26400, Note_off_c, 0, 76, 64
2, 26400, Note_on_c, 0, 74, 60
2, 26560, Note_off_c, 0, 74, 64
2, 26560, Note_on_c, 0, 72, 60
2, 26720, Note_off_c, 0, 72, 64
2, 26720, Note_on_c, 0, 71, 60
2, 26880, Note_off_c, 0, 71, 64
2, 26880, Note_on_c, 0, 69, 60
2, 27040, Note_off_c, 0, 69, 64
2, 27040, Note_on_c, 0, 71, 60
2, 27200, Note_off_c, 0, 71, 64
2, 27200, Note_on_c, 0, 67, 60
2, 27360, Note_off_c, 0, 67, 64
2, 27360, Note_on_c, 0, 66, 60
2, 27520, Note_off_c, 0, 66, 64
2, 27520, Note_on_c, 0, 67, 60
2, 27680, Note_off_c, 0, 67, 64
2, 27680, Note_on_c, 0, 69, 60
2, 27840, Note_off_c, 0, 69, 64
2, 27840, Note_on_c, 0, 62, 60
2, 28000, Note_off_c, 0, 62, 64
2, 28000, Note_on_c, 0, 66, 60
2, 28160, Note_off_c, 0, 66, 64
2, 28160, Note_on_c, 0, 69, 60
2, 28320, Note_off_c, 0, 69, 64
2, 28320, Note_on_c, 0, 72, 60
2, 28480, Note_off_c, 0, 72, 64
2, 28480, Note_on_c, 0, 71, 60
2, 28640, Note_off_c, 0, 71, 64
2, 28640, Note_on_c, 0, 69, 60
2, 28800, Note_off_c, 0, 69, 64
2, 28800, Note_on_c, 0, 71, 60
2, 28960, Note_off_c, 0, 71, 64
2, 28960, Note_on_c, 0, 67, 60
2, 29120, Note_off_c, 0, 67, 64
2, 29120, Note_on_c, 0, 69, 60
2, 29280, Note_off_c, 0, 69, 64
2, 29280, Note_on_c, 0, 71, 60
2, 29440, Note_off_c, 0, 71, 64
2, 29440, Note_on_c, 0, 74, 60
2, 29600, Note_off_c, 0, 74, 64
2, 29600, Note_on_c, 0, 72, 60
2, 29760, Note_off_c, 0, 72, 64
2, 29760, Note_on_c, 0, 72, 60
2, 29920, Note_off_c, 0, 72, 64
2, 29920, Note_on_c, 0, 76, 60
2, 30080, Note_off_c, 0, 76, 64
2, 30080, Note_on_c, 0, 74, 60
2, 30240, Note_off_c, 0, 74, 64
2, 30240, Note_on_c, 0, 74, 60
2, 30400, Note_off_c, 0, 74, 64
2, 30400, Note_on_c, 0, 79, 60
2, 30560, Note_off_c, 0, 79, 64
2, 30560, Note_on_c, 0, 78, 60
2, 30720, Note_off_c, 0, 78, 64
2, 30720, Note_on_c, 0, 79, 60
2, 30880, Note_off_c, 0, 79, 64
2, 30880, Note_on_c, 0, 74, 60
2, 31040, Note_off_c, 0, 74, 64
2, 31040, Note_on_c, 0, 71, 60
2, 31200, Note_off_c, 0, 71, 64
2, 31200, Note_on_c, 0, 67, 60
2, 31360, Note_off_c, 0, 67, 64
2, 31360, Note_on_c, 0, 69, 60
2, 31520, Note_off_c, 0, 69, 64
2, 31520, Note_on_c, 0, 71, 60
2, 31680, Note_off_c, 0, 71, 64
2, 31680, Note_on_c, 0, 64, 60
2, 31840, Note_off_c, 0, 64, 64
2, 31840, Note_on_c, 0, 74, 60
2, 32000, Note_off_c, 0, 74, 64
2, 32000, Note_on_c, 0, 72, 60
2, 32160, Note_off_c, 0, 72, 64
2, 32160, Note_on_c, 0, 71, 60
2, 32320, Note_off_c, 0, 71, 64
2, 32320, Note_on_c, 0, 69, 60
2, 32480, Note_off_c, 0, 69, 64
2, 32480, Note_on_c, 0, 67, 60
2, 32640, Note_off_c, 0, 67, 64
2, 32640, Note_on_c, 0, 62, 60
2, 32800, Note_off_c, 0, 62, 64
2, 32800, Note_on_c, 0, 67, 60
2, 32960, Note_off_c, 0, 67, 64
2, 32960, Note_on_c, 0, 66, 60
2, 33120, Note_off_c, 0, 66, 64
2, 33120, Note_on_c, 0, 67, 60
2, 33520, Note_off_c, 0, 67, 64
2, 37600, Note_on_c, 0, 62, 60
2, 37760, Note_off_c, 0, 62, 64
2, 37760, Note_on_c, 0, 64, 60
2, 37920, Note_off_c, 0, 64, 64
2, 37920, Note_on_c, 0, 66, 60
2, 38080, Note_off_c, 0, 66, 64
2, 38080, Note_on_c, 0, 69, 60
2, 38240, Note_off_c, 0, 69, 64
2, 38240, Note_on_c, 0, 67, 60
2, 38400, Note_off_c, 0, 67, 64
2, 38400, Note_on_c, 0, 69, 60
2, 38560, Note_off_c, 0, 69, 64
2, 38560, Note_on_c, 0, 72, 60
2, 38720, Note_off_c, 0, 72, 64
2, 38720, Note_on_c, 0, 71, 60
2, 38880, Note_off_c, 0, 71, 64
2, 38880, Note_on_c, 0, 72, 60
2, 39040, Note_off_c, 0, 72, 64
2, 39040, Note_on_c, 0, 69, 60
2, 39200, Note_off_c, 0, 69, 64
2, 39200, Note_on_c, 0, 66, 60
2, 39360, Note_off_c, 0, 66, 64
2, 39360, Note_on_c, 0, 62, 60
2, 39520, Note_off_c, 0, 62, 64
2, 39520, Note_on_c, 0, 66, 60
2, 39680, Note_off_c, 0, 66, 64
2, 39680, Note_on_c, 0, 69, 60
2, 39840, Note_off_c, 0, 69, 64
2, 39840, Note_on_c, 0, 72, 60
2, 40000, Note_off_c, 0, 72, 64
2, 40000, Note_on_c, 0, 71, 60
2, 40160, Note_off_c, 0, 71, 64
2, 40160, Note_on_c, 0, 69, 60
2, 40320, Note_off_c, 0, 69, 64
2, 40320, Note_on_c, 0, 71, 60
2, 40480, Note_off_c, 0, 71, 64
2, 40480, Note_on_c, 0, 67, 60
2, 40640, Note_off_c, 0, 67, 64
2, 40640, Note_on_c, 0, 69, 60
2, 40800, Note_off_c, 0, 69, 64
2, 40800, Note_on_c, 0, 71, 60
2, 40960, Note_off_c, 0, 71, 64
2, 40960, Note_on_c, 0, 74, 60
2, 41120, Note_off_c, 0, 74, 64
2, 41120, Note_on_c, 0, 72, 60
2, 41280, Note_off_c, 0, 72, 64
2, 41280, Note_on_c, 0, 72, 60
2, 41440, Note_off_c, 0, 72, 64
2, 41440, Note_on_c, 0, 76, 60
2, 41600, Note_off_c, 0, 76, 64
2, 41600, Note_on_c, 0, 74, 60
2, 41760, Note_off_c, 0, 74, 64
2, 41760, Note_on_c, 0, 74, 60
2, 41920, Note_off_c, 0, 74, 64
2, 41920, Note_on_c, 0, 79, 60
2, 42080, Note_off_c, 0, 79, 64
2, 42080, Note_on_c, 0, 78, 60
2, 42240, Note_off_c, 0, 78, 64
2, 42240, Note_on_c, 0, 79, 60
2, 42400, Note_off_c, 0, 79, 64
2, 42400, Note_on_c, 0, 74, 60
2, 42560, Note_off_c, 0, 74, 64
2, 42560, Note_on_c, 0, 71, 60
2, 42720, Note_off_c, 0, 71, 64
2, 42720, Note_on_c, 0, 67, 60
2, 42880, Note_off_c, 0, 67, 64
2, 42880, Note_on_c, 0, 69, 60
2, 43040, Note_off_c, 0, 69, 64
2, 43040, Note_on_c, 0, 71, 60
2, 43200, Note_off_c, 0, 71, 64
2, 43200, Note_on_c, 0, 64, 60
2, 43360, Note_off_c, 0, 64, 64
2, 43360, Note_on_c, 0, 74, 60
2, 43520, Note_off_c, 0, 74, 64
2, 43520, Note_on_c, 0, 72, 60
2, 43680, Note_off_c, 0, 72, 64
2, 43680, Note_on_c, 0, 71, 60
2, 43840, Note_off_c, 0, 71, 64
2, 43840, Note_on_c, 0, 69, 60
2, 44000, Note_off_c, 0, 69, 64
2, 44000, Note_on_c, 0, 67, 60
2, 44160, Note_off_c, 0, 67, 64
2, 44160, Note_on_c, 0, 62, 60
2, 44320, Note_off_c, 0, 62, 64
2, 44320, Note_on_c, 0, 67, 60
2, 44480, Note_off_c, 0, 67, 64
2, 44480, Note_on_c, 0, 66, 60
2, 44640, Note_off_c, 0, 66, 64
2, 44640, Note_on_c, 0, 67, 60
2, 44800, Note_off_c, 0, 67, 64
2, 44800, Note_on_c, 0, 71, 60
2, 44960, Note_off_c, 0, 71, 64
2, 44960, Note_on_c, 0, 69, 60
2, 45120, Note_off_c, 0, 69, 64
2, 45120, Note_on_c, 0, 71, 60
2, 45280, Note_off_c, 0, 71, 64
2, 45280, Note_on_c, 0, 74, 60
2, 45440, Note_off_c, 0, 74, 64
2, 45440, Note_on_c, 0, 72, 60
2, 45600, Note_off_c, 0, 72, 64
2, 45600, Note_on_c, 0, 72, 60
2, 45760, Note_off_c, 0, 72, 64
2, 45760, Note_on_c, 0, 76, 60
2, 45920, Note_off_c, 0, 76, 64
2, 45920, Note_on_c, 0, 74, 60
2, 46080, Note_off_c, 0, 74, 64
2, 46080, Note_on_c, 0, 74, 60
2, 46240, Note_off_c, 0, 74, 64
2, 46240, Note_on_c, 0, 79, 60
2, 46400, Note_off_c, 0, 79, 64
2, 46400, Note_on_c, 0, 78, 60
2, 46560, Note_off_c, 0, 78, 64
2, 46560, Note_on_c, 0, 79, 60
2, 46720, Note_off_c, 0, 79, 64
2, 46720, Note_on_c, 0, 74, 60
2, 46880, Note_off_c, 0, 74, 64
2, 46880, Note_on_c, 0, 71, 60
2, 47040, Note_off_c, 0, 71, 64
2, 47040, Note_on_c, 0, 67, 60
2, 47200, Note_off_c, 0, 67, 64
2, 47200, Note_on_c, 0, 69, 60
2, 47360, Note_off_c, 0, 69, 64
2, 47360, Note_on_c, 0, 71, 60
2, 47520, Note_off_c, 0, 71, 64
2, 47520, Note_on_c, 0, 72, 60
2, 47680, Note_off_c, 0, 72, 64
2, 47680, Note_on_c, 0, 74, 60
2, 47840, Note_off_c, 0, 74, 64
2, 47840, Note_on_c, 0, 76, 60
2, 48000, Note_off_c, 0, 76, 64
2, 48000, Note_on_c, 0, 74, 60
2, 48160, Note_off_c, 0, 74, 64
2, 48160, Note_on_c, 0, 72, 60
2, 48320, Note_off_c, 0, 72, 64
2, 48320, Note_on_c, 0, 71, 60
2, 48480, Note_off_c, 0, 71, 64
2, 48480, Note_on_c, 0, 69, 60
2, 48640, Note_off_c, 0, 69, 64
2, 48640, Note_on_c, 0, 71, 60
2, 48800, Note_off_c, 0, 71, 64
2, 48800, Note_on_c, 0, 67, 60
2, 48960, Note_off_c, 0, 67, 64
2, 48960, Note_on_c, 0, 66, 60
2, 49120, Note_off_c, 0, 66, 64
2, 49120, Note_on_c, 0, 67, 60
2, 49280, Note_off_c, 0, 67, 64
2, 49280, Note_on_c, 0, 69, 60
2, 49440, Note_off_c, 0, 69, 64
2, 49440, Note_on_c, 0, 62, 60
2, 49600, Note_off_c, 0, 62, 64
2, 49600, Note_on_c, 0, 66, 60
2, 49760, Note_off_c, 0, 66, 64
2, 49760, Note_on_c, 0, 69, 60
2, 49920, Note_off_c, 0, 69, 64
2, 49920, Note_on_c, 0, 72, 60
2, 50080, Note_off_c, 0, 72, 64
2, 50080, Note_on_c, 0, 71, 60
2, 50240, Note_off_c, 0, 71, 64
2, 50240, Note_on_c, 0, 69, 60
2, 50400, Note_off_c, 0, 69, 64
2, 50400, Note_on_c, 0, 71, 60
2, 50560, Note_off_c, 0, 71, 64
2, 50560, Note_on_c, 0, 67, 60
2, 50720, Note_off_c, 0, 67, 64
2, 50720, Note_on_c, 0, 69, 60
2, 50880, Note_off_c, 0, 69, 64
2, 50880, Note_on_c, 0, 71, 60
2, 51040, Note_off_c, 0, 71, 64
2, 51040, Note_on_c, 0, 74, 60
2, 51200, Note_off_c, 0, 74, 64
2, 51200, Note_on_c, 0, 72, 60
2, 51360, Note_off_c, 0, 72, 64
2, 51360, Note_on_c, 0, 72, 60
2, 51520, Note_off_c, 0, 72, 64
2, 51520, Note_on_c, 0, 76, 60
2, 51680, Note_off_c, 0, 76, 64
2, 51680, Note_on_c, 0, 74, 60
2, 51840, Note_off_c, 0, 74, 64
2, 51840, Note_on_c, 0, 74, 60
2, 52000, Note_off_c, 0, 74, 64
2, 52000, Note_on_c, 0, 79, 60
2, 52160, Note_off_c, 0, 79, 64
2, 52160, Note_on_c, 0, 78, 60
2, 52320, Note_off_c, 0, 78, 64
2, 52320, Note_on_c, 0, 79, 60
2, 52480, Note_off_c, 0, 79, 64
2, 52480, Note_on_c, 0, 74, 60
2, 52640, Note_off_c, 0, 74, 64
2, 52640, Note_on_c, 0, 71, 60
2, 52800, Note_off_c, 0, 71, 64
2, 52800, Note_on_c, 0, 67, 60
2, 52960, Note_off_c, 0, 67, 64
2, 52960, Note_on_c, 0, 69, 60
2, 53120, Note_off_c, 0, 69, 64
2, 53120, Note_on_c, 0, 71, 60
2, 53280, Note_off_c, 0, 71, 64
2, 53280, Note_on_c, 0, 64, 60
2, 53440, Note_off_c, 0, 64, 64
2, 53440, Note_on_c, 0, 74, 60
2, 53600, Note_off_c, 0, 74, 64
2, 53600, Note_on_c, 0, 72, 60
2, 53760, Note_off_c, 0, 72, 64
2, 53760, Note_on_c, 0, 71, 60
2, 53920, Note_off_c, 0, 71, 64
2, 53920, Note_on_c, 0, 69, 61
2, 54080, Note_off_c, 0, 69, 64
2, 54080, Note_on_c, 0, 67, 62
2, 54240, Note_off_c, 0, 67, 64
2, 54240, Note_on_c, 0, 62, 63
2, 54400, Note_off_c, 0, 62, 64
2, 54400, Note_on_c, 0, 67, 64
2, 54560, Note_off_c, 0, 67, 64
2, 54560, Note_on_c, 0, 66, 65
2, 54720, Note_off_c, 0, 66, 64
2, 54720, Note_on_c, 0, 67, 66
2, 54880, Note_off_c, 0, 67, 64
2, 54880, Note_on_c, 0, 71, 67
2, 55040, Note_off_c, 0, 71, 64
2, 55040, Note_on_c, 0, 74, 68
2, 55200, Note_off_c, 0, 74, 64
2, 55200, Note_on_c, 0, 79, 69
2, 55360, Note_off_c, 0, 79, 64
2, 55360, Note_on_c, 0, 74, 70
2, 55520, Note_off_c, 0, 74, 64
2, 55520, Note_on_c, 0, 71, 71
2, 55680, Note_off_c, 0, 71, 64
2, 55680, Note_on_c, 0, 67, 72
2, 55840, Note_off_c, 0, 67, 64
2, 55840, Note_on_c, 0, 71, 73
2, 56000, Note_off_c, 0, 71, 64
2, 56000, Note_on_c, 0, 73, 74
2, 56160, Note_off_c, 0, 73, 64
2, 56160, Note_on_c, 0, 74, 75
2, 56320, Note_off_c, 0, 74, 64
2, 56320, Note_on_c, 0, 62, 75
2, 56480, Note_off_c, 0, 62, 64
2, 56480, Note_on_c, 0, 64, 75
2, 56640, Note_off_c, 0, 64, 64
2, 56640, Note_on_c, 0, 66, 75
2, 56800, Note_off_c, 0, 66, 64
2, 56800, Note_on_c, 0, 69, 75
2, 56960, Note_off_c, 0, 69, 64
2, 56960, Note_on_c, 0, 68, 75
2, 57120, Note_off_c, 0, 68, 64
2, 57120, Note_on_c, 0, 68, 75
2, 57280, Note_off_c, 0, 68, 64
2, 57280, Note_on_c, 0, 71, 75
2, 57440, Note_off_c, 0, 71, 64
2, 57440, Note_on_c, 0, 69, 75
2, 57600, Note_off_c, 0, 69, 64
2, 57600, Note_on_c, 0, 69, 75
2, 57760, Note_off_c, 0, 69, 64
2, 57760, Note_on_c, 0, 72, 75
2, 57920, Note_off_c, 0, 72, 64
2, 57920, Note_on_c, 0, 71, 75
2, 58080, Note_off_c, 0, 71, 64
2, 58080, Note_on_c, 0, 72, 75
2, 58240, Note_off_c, 0, 72, 64
2, 58240, Note_on_c, 0, 69, 75
2, 58400, Note_off_c, 0, 69, 64
2, 58400, Note_on_c, 0, 64, 75
2, 58560, Note_off_c, 0, 64, 64
2, 58560, Note_on_c, 0, 60, 75
2, 58720, Note_off_c, 0, 60, 64
2, 58720, Note_on_c, 0, 62, 75
2, 58880, Note_off_c, 0, 62, 64
2, 58880, Note_on_c, 0, 64, 75
2, 59040, Note_off_c, 0, 64, 64
2, 59040, Note_on_c, 0, 65, 75
2, 59200, Note_off_c, 0, 65, 64
2, 59200, Note_on_c, 0, 74, 75
2, 59360, Note_off_c, 0, 74, 64
2, 59360, Note_on_c, 0, 72, 75
2, 59520, Note_off_c, 0, 72, 64
2, 59520, Note_on_c, 0, 74, 75
2, 59680, Note_off_c, 0, 74, 64
2, 59680, Note_on_c, 0, 71, 75
2, 59840, Note_off_c, 0, 71, 64
2, 59840, Note_on_c, 0, 68, 75
2, 60000, Note_off_c, 0, 68, 64
2, 60000, Note_on_c, 0, 64, 75
2, 60160, Note_off_c, 0, 64, 64
2, 60160, Note_on_c, 0, 66, 75
2, 60320, Note_off_c, 0, 66, 64
2, 60320, Note_on_c, 0, 68, 75
2, 60480, Note_off_c, 0, 68, 64
2, 60480, Note_on_c, 0, 69, 75
2, 60640, Note_off_c, 0, 69, 64
2, 60640, Note_on_c, 0, 72, 75
2, 60800, Note_off_c, 0, 72, 64
2, 60800, Note_on_c, 0, 71, 75
2, 60960, Note_off_c, 0, 71, 64
2, 60960, Note_on_c, 0, 72, 75
2, 61120, Note_off_c, 0, 72, 64
2, 61120, Note_on_c, 0, 76, 75
2, 61280, Note_off_c, 0, 76, 64
2, 61280, Note_on_c, 0, 74, 75
2, 61440, Note_off_c, 0, 74, 64
2, 61440, Note_on_c, 0, 74, 75
2, 61600, Note_off_c, 0, 74, 64
2, 61600, Note_on_c, 0, 77, 75
2, 61760, Note_off_c, 0, 77, 64
2, 61760, Note_on_c, 0, 76, 75
2, 61920, Note_off_c, 0, 76, 64
2, 61920, Note_on_c, 0, 76, 75
2, 62080, Note_off_c, 0, 76, 64
2, 62080, Note_on_c, 0, 81, 75
2, 62240, Note_off_c, 0, 81, 64
2, 62240, Note_on_c, 0, 80, 76
2, 62400, Note_off_c, 0, 80, 64
2, 62400, Note_on_c, 0, 81, 77
2, 62560, Note_off_c, 0, 81, 64
2, 62560, Note_on_c, 0, 76, 78
2, 62720, Note_off_c, 0, 76, 64
2, 62720, Note_on_c, 0, 72, 79
2, 62880, Note_off_c, 0, 72, 64
2, 62880, Note_on_c, 0, 69, 80
2, 63040, Note_off_c, 0, 69, 64
2, 63040, Note_on_c, 0, 71, 81
2, 63200, Note_off_c, 0, 71, 64
2, 63200, Note_on_c, 0, 72, 82
2, 63360, Note_off_c, 0, 72, 64
2, 63360, Note_on_c, 0, 77, 83
2, 63520, Note_off_c, 0, 77, 64
2, 63520, Note_on_c, 0, 76, 84
2, 63680, Note_off_c, 0, 76, 64
2, 63680, Note_on_c, 0, 74, 85
2, 63840, Note_off_c, 0, 74, 64
2, 63840, Note_on_c, 0, 72, 86
2, 64000, Note_off_c, 0, 72, 64
2, 64000, Note_on_c, 0, 71, 87
2, 64160, Note_off_c, 0, 71, 64
2, 64160, Note_on_c, 0, 69, 88
2, 64320, Note_off_c, 0, 69, 64
2, 64320, Note_on_c, 0, 64, 89
2, 64480, Note_off_c, 0, 64, 64
2, 64480, Note_on_c, 0, 69, 90
2, 64640, Note_off_c, 0, 69, 64
2, 64640, Note_on_c, 0, 68, 91
2, 64800, Note_off_c, 0, 68, 64
2, 64800, Note_on_c, 0, 69, 92
2, 64960, Note_off_c, 0, 69, 64
2, 64960, Note_on_c, 0, 72, 92
2, 65120, Note_off_c, 0, 72, 64
2, 65120, Note_on_c, 0, 76, 92
2, 65280, Note_off_c, 0, 76, 64
2, 65280, Note_on_c, 0, 81, 92
2, 65520, Note_off_c, 0, 81, 64
2, 66400, Note_on_c, 0, 72, 92
2, 66560, Note_off_c, 0, 72, 64
2, 66560, Note_on_c, 0, 74, 92
2, 66720, Note_off_c, 0, 74, 64
2, 66720, Note_on_c, 0, 76, 92
2, 66880, Note_off_c, 0, 76, 64
2, 66880, Note_on_c, 0, 79, 92
2, 67040, Note_off_c, 0, 79, 64
2, 67040, Note_on_c, 0, 77, 92
2, 67200, Note_off_c, 0, 77, 64
2, 67200, Note_on_c, 0, 79, 92
2, 67360, Note_off_c, 0, 79, 64
2, 67360, Note_on_c, 0, 82, 92
2, 67520, Note_off_c, 0, 82, 64
2, 67520, Note_on_c, 0, 81, 92
2, 67680, Note_off_c, 0, 81, 64
2, 67680, Note_on_c, 0, 81, 92
2, 67840, Note_off_c, 0, 81, 64
2, 67840, Note_on_c, 0, 84, 92
2, 68000, Note_off_c, 0, 84, 64
2, 68000, Note_on_c, 0, 83, 92
2, 68160, Note_off_c, 0, 83, 64
2, 68160, Note_on_c, 0, 84, 92
2, 68320, Note_off_c, 0, 84, 64
2, 68320, Note_on_c, 0, 81, 92
2, 68480, Note_off_c, 0, 81, 64
2, 68480, Note_on_c, 0, 77, 92
2, 68640, Note_off_c, 0, 77, 64
2, 68640, Note_on_c, 0, 74, 92
2, 68800, Note_off_c, 0, 74, 64
2, 68800, Note_on_c, 0, 76, 92
2, 68960, Note_off_c, 0, 76, 64
2, 68960, Note_on_c, 0, 77, 92
2, 69120, Note_off_c, 0, 77, 64
2, 69120, Note_on_c, 0, 76, 92
2, 69280, Note_off_c, 0, 76, 64
2, 69280, Note_on_c, 0, 79, 92
2, 69440, Note_off_c, 0, 79, 64
2, 69440, Note_on_c, 0, 77, 92
2, 69600, Note_off_c, 0, 77, 64
2, 69600, Note_on_c, 0, 79, 92
2, 69760, Note_off_c, 0, 79, 64
2, 69760, Note_on_c, 0, 76, 92
2, 69920, Note_off_c, 0, 76, 64
2, 69920, Note_on_c, 0, 72, 92
2, 70080, Note_off_c, 0, 72, 64
2, 70080, Note_on_c, 0, 67, 92
2, 70240, Note_off_c, 0, 67, 64
2, 70240, Note_on_c, 0, 69, 89
2, 70400, Note_off_c, 0, 69, 64
2, 70400, Note_on_c, 0, 70, 86
2, 70560, Note_off_c, 0, 70, 64
2, 70560, Note_on_c, 0, 69, 83
2, 70720, Note_off_c, 0, 69, 64
2, 70720, Note_on_c, 0, 72, 80
2, 70880, Note_off_c, 0, 72, 64
2, 70880, Note_on_c, 0, 71, 76
2, 71040, Note_off_c, 0, 71, 64
2, 71040, Note_on_c, 0, 72, 72
2, 71200, Note_off_c, 0, 72, 64
2, 71200, Note_on_c, 0, 69, 68
2, 71360, Note_off_c, 0, 69, 64
2, 71360, Note_on_c, 0, 65, 64
2, 71520, Note_off_c, 0, 65, 64
2, 71520, Note_on_c, 0, 62, 60
2, 71680, Note_off_c, 0, 62, 64
2, 71680, Note_on_c, 0, 64, 60
2, 71840, Note_off_c, 0, 64, 64
2, 71840, Note_on_c, 0, 65, 60
2, 72000, Note_off_c, 0, 65, 64
2, 72000, Note_on_c, 0, 64, 60
2, 72160, Note_off_c, 0, 64, 64
2, 72160, Note_on_c, 0, 60, 60
2, 72320, Note_off_c, 0, 60, 64
2, 72320, Note_on_c, 0, 62, 60
2, 72480, Note_off_c, 0, 62, 64
2, 72480, Note_on_c, 0, 64, 60
2, 72640, Note_off_c, 0, 64, 64
2, 72640, Note_on_c, 0, 67, 60
2, 72800, Note_off_c, 0, 67, 64
2, 72800, Note_on_c, 0, 66, 60
2, 72960, Note_off_c, 0, 66, 64
2, 72960, Note_on_c, 0, 67, 45
2, 73120, Note_off_c, 0, 67, 64
2, 73120, Note_on_c, 0, 71, 45
2, 73280, Note_off_c, 0, 71, 64
2, 73280, Note_on_c, 0, 69, 45
2, 73440, Note_off_c, 0, 69, 64
2, 73440, Note_on_c, 0, 71, 45
2, 73600, Note_off_c, 0, 71, 64
2, 73600, Note_on_c, 0, 67, 45
2, 73760, Note_off_c, 0, 67, 64
2, 73760, Note_on_c, 0, 69, 45
2, 73920, Note_off_c, 0, 69, 64
2, 73920, Note_on_c, 0, 71, 45
2, 74080, Note_off_c, 0, 71, 64
2, 74080, Note_on_c, 0, 74, 45
2, 74240, Note_off_c, 0, 74, 64
2, 74240, Note_on_c, 0, 72, 45
2, 74400, Note_off_c, 0, 72, 64
2, 74400, Note_on_c, 0, 72, 45
2, 74560, Note_off_c, 0, 72, 64
2, 74560, Note_on_c, 0, 76, 45
2, 74720, Note_off_c, 0, 76, 64
2, 74720, Note_on_c, 0, 74, 45
2, 74880, Note_off_c, 0, 74, 64
2, 74880, Note_on_c, 0, 74, 45
2, 75040, Note_off_c, 0, 74, 64
2, 75040, Note_on_c, 0, 79, 45
2, 75200, Note_off_c, 0, 79, 64
2, 75200, Note_on_c, 0, 78, 45
2, 75360, Note_off_c, 0, 78, 64
2, 75360, Note_on_c, 0, 79, 45
2, 75520, Note_off_c, 0, 79, 64
2, 75520, Note_on_c, 0, 74, 45
2, 75680, Note_off_c, 0, 74, 64
2, 75680, Note_on_c, 0, 71, 45
2, 75840, Note_off_c, 0, 71, 64
2, 75840, Note_on_c, 0, 67, 45
2, 76000, Note_off_c, 0, 67, 64
2, 76000, Note_on_c, 0, 69, 45
2, 76160, Note_off_c, 0, 69, 64
2, 76160, Note_on_c, 0, 71, 45
2, 76320, Note_off_c, 0, 71, 64
2, 76320, Note_on_c, 0, 72, 45
2, 76480, Note_off_c, 0, 72, 64
2, 76480, Note_on_c, 0, 74, 45
2, 76640, Note_off_c, 0, 74, 64
2, 76640, Note_on_c, 0, 76, 45
2, 76800, Note_off_c, 0, 76, 64
2, 76800, Note_on_c, 0, 74, 45
2, 76960, Note_off_c, 0, 74, 64
2, 76960, Note_on_c, 0, 72, 45
2, 77120, Note_off_c, 0, 72, 64
2, 77120, Note_on_c, 0, 71, 45
2, 77280, Note_off_c, 0, 71, 64
2, 77280, Note_on_c, 0, 69, 45
2, 77440, Note_off_c, 0, 69, 64
2, 77440, Note_on_c, 0, 71, 45
2, 77600, Note_off_c, 0, 71, 64
2, 77600, Note_on_c, 0, 67, 45
2, 77760, Note_off_c, 0, 67, 64
2, 77760, Note_on_c, 0, 66, 45
2, 77920, Note_off_c, 0, 66, 64
2, 77920, Note_on_c, 0, 62, 45
2, 78080, Note_off_c, 0, 62, 64
2, 78080, Note_on_c, 0, 64, 45
2, 78240, Note_off_c, 0, 64, 64
2, 78240, Note_on_c, 0, 66, 45
2, 78400, Note_off_c, 0, 66, 64
2, 78400, Note_on_c, 0, 69, 45
2, 78560, Note_off_c, 0, 69, 64
2, 78560, Note_on_c, 0, 67, 45
2, 78720, Note_off_c, 0, 67, 64
2, 78720, Note_on_c, 0, 69, 45
2, 78880, Note_off_c, 0, 69, 64
2, 78880, Note_on_c, 0, 72, 45
2, 79040, Note_off_c, 0, 72, 64
2, 79040, Note_on_c, 0, 71, 45
2, 79200, Note_off_c, 0, 71, 64
2, 79200, Note_on_c, 0, 72, 45
2, 79360, Note_off_c, 0, 72, 64
2, 79360, Note_on_c, 0, 69, 45
2, 79520, Note_off_c, 0, 69, 64
2, 79520, Note_on_c, 0, 66, 45
2, 79680, Note_off_c, 0, 66, 64
2, 79680, Note_on_c, 0, 62, 45
2, 79840, Note_off_c, 0, 62, 64
2, 79840, Note_on_c, 0, 66, 45
2, 80000, Note_off_c, 0, 66, 64
2, 80000, Note_on_c, 0, 69, 45
2, 80160, Note_off_c, 0, 69, 64
2, 80160, Note_on_c, 0, 72, 45
2, 80320, Note_off_c, 0, 72, 64
2, 80320, Note_on_c, 0, 71, 45
2, 80480, Note_off_c, 0, 71, 64
2, 80480, Note_on_c, 0, 69, 45
2, 80640, Note_off_c, 0, 69, 64
2, 80640, Note_on_c, 0, 71, 45
2, 80800, Note_off_c, 0, 71, 64
2, 80800, Note_on_c, 0, 67, 45
2, 80960, Note_off_c, 0, 67, 64
2, 80960, Note_on_c, 0, 69, 45
2, 81120, Note_off_c, 0, 69, 64
2, 81120, Note_on_c, 0, 71, 45
2, 81280, Note_off_c, 0, 71, 64
2, 81280, Note_on_c, 0, 74, 45
2, 81440, Note_off_c, 0, 74, 64
2, 81440, Note_on_c, 0, 72, 45
2, 81600, Note_off_c, 0, 72, 64
2, 81600, Note_on_c, 0, 72, 45
2, 81760, Note_off_c, 0, 72, 64
2, 81760, Note_on_c, 0, 76, 45
2, 81920, Note_off_c, 0, 76, 64
2, 81920, Note_on_c, 0, 74, 45
2, 82080, Note_off_c, 0, 74, 64
2, 82080, Note_on_c, 0, 74, 45
2, 82240, Note_off_c, 0, 74, 64
2, 82240, Note_on_c, 0, 79, 45
2, 82400, Note_off_c, 0, 79, 64
2, 82400, Note_on_c, 0, 78, 45
2, 82560, Note_off_c, 0, 78, 64
2, 82560, Note_on_c, 0, 79, 45
2, 82720, Note_off_c, 0, 79, 64
2, 82720, Note_on_c, 0, 74, 45
2, 82880, Note_off_c, 0, 74, 64
2, 82880, Note_on_c, 0, 71, 45
2, 83040, Note_off_c, 0, 71, 64
2, 83040, Note_on_c, 0, 67, 45
2, 83200, Note_off_c, 0, 67, 64
2, 83200, Note_on_c, 0, 69, 45
2, 83360, Note_off_c, 0, 69, 64
2, 83360, Note_on_c, 0, 71, 45
2, 83520, Note_off_c, 0, 71, 64
2, 83520, Note_on_c, 0, 64, 45
2, 83680, Note_off_c, 0, 64, 64
2, 83680, Note_on_c, 0, 74, 45
2, 83840, Note_off_c, 0, 74, 64
2, 83840, Note_on_c, 0, 72, 45
2, 84000, Note_off_c, 0, 72, 64
2, 84000, Note_on_c, 0, 71, 45
2, 84160, Note_off_c, 0, 71, 64
2, 84160, Note_on_c, 0, 69, 45
2, 84320, Note_off_c, 0, 69, 64
2, 84320, Note_on_c, 0, 67, 45
2, 84480, Note_off_c, 0, 67, 64
2, 84480, Note_on_c, 0, 62, 45
2, 84640, Note_off_c, 0, 62, 64
2, 84640, Note_on_c, 0, 67, 45
2, 84800, Note_off_c, 0, 67, 64
2, 84800, Note_on_c, 0, 66, 45
2, 84960, Note_off_c, 0, 66, 64
2, 84960, Note_on_c, 0, 67, 45
2, 85120, Note_off_c, 0, 67, 64
2, 85120, Note_on_c, 0, 71, 45
2, 85280, Note_off_c, 0, 71, 64
2, 85280, Note_on_c, 0, 74, 45
2, 85440, Note_off_c, 0, 74, 64
2, 85440, Note_on_c, 0, 79, 45
2, 85600, Note_off_c, 0, 79, 64
2, 85600, Note_on_c, 0, 74, 45
2, 85760, Note_off_c, 0, 74, 64
2, 85760, Note_on_c, 0, 71, 45
2, 85920, Note_off_c, 0, 71, 64
2, 85920, Note_on_c, 0, 67, 45
2, 86080, Note_off_c, 0, 67, 64
2, 86080, Note_on_c, 0, 71, 45
2, 86240, Note_off_c, 0, 71, 64
2, 86240, Note_on_c, 0, 74, 45
2, 86400, Note_off_c, 0, 74, 64
2, 86400, Note_on_c, 0, 77, 45
2, 86560, Note_off_c, 0, 77, 64
2, 86560, Note_on_c, 0, 74, 45
2, 86720, Note_off_c, 0, 74, 64
2, 86720, Note_on_c, 0, 71, 45
2, 86880, Note_off_c, 0, 71, 64
2, 86880, Note_on_c, 0, 67, 45
2, 87040, Note_off_c, 0, 67, 64
2, 87040, Note_on_c, 0, 71, 45
2, 87200, Note_off_c, 0, 71, 64
2, 87200, Note_on_c, 0, 74, 45
2, 87360, Note_off_c, 0, 74, 64
2, 87360, Note_on_c, 0, 76, 45
2, 87520, Note_off_c, 0, 76, 64
2, 87520, Note_on_c, 0, 72, 45
2, 87680, Note_off_c, 0, 72, 64
2, 87680, Note_on_c, 0, 69, 45
2, 87840, Note_off_c, 0, 69, 64
2, 87840, Note_on_c, 0, 66, 45
2, 88000, Note_off_c, 0, 66, 64
2, 88000, Note_on_c, 0, 69, 45
2, 88160, Note_off_c, 0, 69, 64
2, 88160, Note_on_c, 0, 72, 45
2, 88320, Note_off_c, 0, 72, 64
2, 88320, Note_on_c, 0, 74, 45
2, 88480, Note_off_c, 0, 74, 64
2, 88480, Note_on_c, 0, 71, 45
2, 88640, Note_off_c, 0, 71, 64
2, 88640, Note_on_c, 0, 67, 45
2, 88800, Note_off_c, 0, 67, 64
2, 88800, Note_on_c, 0, 64, 45
2, 88960, Note_off_c, 0, 64, 64
2, 88960, Note_on_c, 0, 67, 45
2, 89120, Note_off_c, 0, 67, 64
2, 89120, Note_on_c, 0, 71, 45
2, 89280, Note_off_c, 0, 71, 64
2, 89280, Note_on_c, 0, 72, 45
2, 89440, Note_off_c, 0, 72, 64
2, 89440, Note_on_c, 0, 69, 45
2, 89600, Note_off_c, 0, 69, 64
2, 89600, Note_on_c, 0, 66, 45
2, 89760, Note_off_c, 0, 66, 64
2, 89760, Note_on_c, 0, 62, 45
2, 89920, Note_off_c, 0, 62, 64
2, 89920, Note_on_c, 0, 66, 45
2, 90080, Note_off_c, 0, 66, 64
2, 90080, Note_on_c, 0, 69, 45
2, 90240, Note_off_c, 0, 69, 64
2, 90240, Note_on_c, 0, 72, 45
2, 90400, Note_off_c, 0, 72, 64
2, 90400, Note_on_c, 0, 71, 45
2, 90560, Note_off_c, 0, 71, 64
2, 90560, Note_on_c, 0, 69, 45
2, 90720, Note_off_c, 0, 69, 64
2, 90720, Note_on_c, 0, 71, 45
2, 90880, Note_off_c, 0, 71, 64
2, 90880, Note_on_c, 0, 67, 45
2, 91040, Note_off_c, 0, 67, 64
2, 91040, Note_on_c, 0, 69, 45
2, 91200, Note_off_c, 0, 69, 64
2, 91200, Note_on_c, 0, 71, 45
2, 91360, Note_off_c, 0, 71, 64
2, 91360, Note_on_c, 0, 74, 45
2, 91520, Note_off_c, 0, 74, 64
2, 91520, Note_on_c, 0, 72, 45
2, 91680, Note_off_c, 0, 72, 64
2, 91680, Note_on_c, 0, 72, 45
2, 91840, Note_off_c, 0, 72, 64
2, 91840, Note_on_c, 0, 76, 45
2, 92000, Note_off_c, 0, 76, 64
2, 92000, Note_on_c, 0, 74, 45
2, 92160, Note_off_c, 0, 74, 64
2, 92160, Note_on_c, 0, 74, 45
2, 92320, Note_off_c, 0, 74, 64
2, 92320, Note_on_c, 0, 79, 45
2, 92480, Note_off_c, 0, 79, 64
2, 92480, Note_on_c, 0, 78, 45
2, 92640, Note_off_c, 0, 78, 64
2, 92640, Note_on_c, 0, 79, 45
2, 92800, Note_off_c, 0, 79, 64
2, 92800, Note_on_c, 0, 74, 45
2, 92960, Note_off_c, 0, 74, 64
2, 92960, Note_on_c, 0, 71, 45
2, 93120, Note_off_c, 0, 71, 64
2, 93120, Note_on_c, 0, 67, 45
2, 93280, Note_off_c, 0, 67, 64
2, 93280, Note_on_c, 0, 69, 45
2, 93440, Note_off_c, 0, 69, 64
2, 93440, Note_on_c, 0, 71, 45
2, 93600, Note_off_c, 0, 71, 64
2, 93600, Note_on_c, 0, 72, 45
2, 93760, Note_off_c, 0, 72, 64
2, 93760, Note_on_c, 0, 74, 45
2, 93920, Note_off_c, 0, 74, 64
2, 93920, Note_on_c, 0, 76, 45
2, 94080, Note_off_c, 0, 76, 64
2, 94080, Note_on_c, 0, 74, 45
2, 94240, Note_off_c, 0, 74, 64
2, 94240, Note_on_c, 0, 72, 45
2, 94400, Note_off_c, 0, 72, 64
2, 94400, Note_on_c, 0, 71, 45
2, 94560, Note_off_c, 0, 71, 64
2, 94560, Note_on_c, 0, 69, 45
2, 94720, Note_off_c, 0, 69, 64
2, 94720, Note_on_c, 0, 71, 45
2, 94880, Note_off_c, 0, 71, 64
2, 94880, Note_on_c, 0, 67, 45
2, 95040, Note_off_c, 0, 67, 64
2, 95040, Note_on_c, 0, 66, 45
2, 95200, Note_off_c, 0, 66, 64
2, 95200, Note_on_c, 0, 67, 45
2, 95360, Note_off_c, 0, 67, 64
2, 95360, Note_on_c, 0, 69, 45
2, 95520, Note_off_c, 0, 69, 64
2, 95520, Note_on_c, 0, 62, 45
2, 95680, Note_off_c, 0, 62, 64
2, 95680, Note_on_c, 0, 66, 45
2, 95840, Note_off_c, 0, 66, 64
2, 95840, Note_on_c, 0, 69, 45
2, 96000, Note_off_c, 0, 69, 64
2, 96000, Note_on_c, 0, 72, 45
2, 96160, Note_off_c, 0, 72, 64
2, 96160, Note_on_c, 0, 71, 45
2, 96320, Note_off_c, 0, 71, 64
2, 96320, Note_on_c, 0, 69, 45
2, 96480, Note_off_c, 0, 69, 64
2, 96480, Note_on_c, 0, 71, 45
2, 96640, Note_off_c, 0, 71, 64
2, 96640, Note_on_c, 0, 67, 45
2, 96800, Note_off_c, 0, 67, 64
2, 96800, Note_on_c, 0, 69, 45
2, 96960, Note_off_c, 0, 69, 64
2, 96960, Note_on_c, 0, 71, 45
2, 97120, Note_off_c, 0, 71, 64
2, 97120, Note_on_c, 0, 74, 45
2, 97280, Note_off_c, 0, 74, 64
2, 97280, Note_on_c, 0, 72, 45
2, 97440, Note_off_c, 0, 72, 64
2, 97440, Note_on_c, 0, 72, 45
2, 97600, Note_off_c, 0, 72, 64
2, 97600, Note_on_c, 0, 76, 45
2, 97760, Note_off_c, 0, 76, 64
2, 97760, Note_on_c, 0, 74, 45
2, 97920, Note_off_c, 0, 74, 64
2, 97920, Note_on_c, 0, 74, 45
2, 98080, Note_off_c, 0, 74, 64
2, 98080, Note_on_c, 0, 79, 45
2, 98240, Note_off_c, 0, 79, 64
2, 98240, Note_on_c, 0, 78, 45
2, 98400, Note_off_c, 0, 78, 64
2, 98400, Note_on_c, 0, 79, 45
2, 98560, Note_off_c, 0, 79, 64
2, 98560, Note_on_c, 0, 74, 45
2, 98720, Note_off_c, 0, 74, 64
2, 98720, Note_on_c, 0, 71, 45
2, 98880, Note_off_c, 0, 71, 64
2, 98880, Note_on_c, 0, 67, 45
2, 99040, Note_off_c, 0, 67, 64
2, 99040, Note_on_c, 0, 69, 45
2, 99200, Note_off_c, 0, 69, 64
2, 99200, Note_on_c, 0, 71, 45
2, 99360, Note_off_c, 0, 71, 64
2, 99360, Note_on_c, 0, 64, 45
2, 99520, Note_off_c, 0, 64, 64
2, 99520, Note_on_c, 0, 74, 45
2, 99680, Note_off_c, 0, 74, 64
2, 99680, Note_on_c, 0, 72, 45
2, 99840, Note_off_c, 0, 72, 64
2, 99840, Note_on_c, 0, 71, 45
2, 100000, Note_off_c, 0, 71, 64
2, 100000, Note_on_c, 0, 69, 45
2, 100160, Note_off_c, 0, 69, 64
2, 100160, Note_on_c, 0, 67, 45
2, 100320, Note_off_c, 0, 67, 64
2, 100320, Note_on_c, 0, 62, 45
2, 100480, Note_off_c, 0, 62, 64
2, 100480, Note_on_c, 0, 67, 45
2, 100640, Note_off_c, 0, 67, 64
2, 100640, Note_on_c, 0, 66, 45
2, 100800, Note_off_c, 0, 66, 64
2, 100800, Note_on_c, 0, 67, 45
2, 102120, Note_off_c, 0, 67, 64
2, 102120, End_track
3, 0, Start_track
3, 0, Title_t, "OF MAN'S DESIRNG"
3, 0, MIDI_port, 0
3, 0, Channel_prefix, 2
3, 0, Control_c, 2, 7, 127
3, 0, Control_c, 2, 10, 10
3, 0, Control_c, 2, 91, 127
3, 0, Program_c, 2, 48
3, 160, Note_on_c, 2, 67, 60
3, 320, Note_off_c, 2, 67, 64
3, 320, Note_on_c, 2, 69, 60
3, 480, Note_off_c, 2, 69, 64
3, 480, Note_on_c, 2, 71, 60
3, 640, Note_off_c, 2, 71, 64
3, 640, Note_on_c, 2, 74, 60
3, 800, Note_off_c, 2, 74, 64
3, 800, Note_on_c, 2, 72, 60
3, 960, Note_off_c, 2, 72, 64
3, 960, Note_on_c, 2, 72, 60
3, 1120, Note_off_c, 2, 72, 64
3, 1120, Note_on_c, 2, 76, 60
3, 1280, Note_off_c, 2, 76, 64
3, 1280, Note_on_c, 2, 74, 60
3, 1440, Note_off_c, 2, 74, 64
3, 1440, Note_on_c, 2, 74, 60
3, 1600, Note_off_c, 2, 74, 64
3, 1600, Note_on_c, 2, 79, 60
3, 1760, Note_off_c, 2, 79, 64
3, 1760, Note_on_c, 2, 78, 60
3, 1920, Note_off_c, 2, 78, 64
3, 1920, Note_on_c, 2, 79, 60
3, 2080, Note_off_c, 2, 79, 64
3, 2080, Note_on_c, 2, 74, 60
3, 2240, Note_off_c, 2, 74, 64
3, 2240, Note_on_c, 2, 71, 60
3, 2400, Note_off_c, 2, 71, 64
3, 2400, Note_on_c, 2, 67, 60
3, 2560, Note_off_c, 2, 67, 64
3, 2560, Note_on_c, 2, 69, 60
3, 2720, Note_off_c, 2, 69, 64
3, 2720, Note_on_c, 2, 71, 60
3, 2880, Note_off_c, 2, 71, 64
3, 2880, Note_on_c, 2, 72, 60
3, 3040, Note_off_c, 2, 72, 64
3, 3040, Note_on_c, 2, 74, 60
3, 3200, Note_off_c, 2, 74, 64
3, 3200, Note_on_c, 2, 76, 60
3, 3360, Note_off_c, 2, 76, 64
3, 3360, Note_on_c, 2, 74, 60
3, 3520, Note_off_c, 2, 74, 64
3, 3520, Note_on_c, 2, 72, 60
3, 3680, Note_off_c, 2, 72, 64
3, 3680, Note_on_c, 2, 71, 60
3, 3840, Note_off_c, 2, 71, 64
3, 3840, Note_on_c, 2, 69, 60
3, 4000, Note_off_c, 2, 69, 64
3, 4000, Note_on_c, 2, 71, 60
3, 4160, Note_off_c, 2, 71, 64
3, 4160, Note_on_c, 2, 67, 60
3, 4320, Note_off_c, 2, 67, 64
3, 4320, Note_on_c, 2, 66, 60
3, 4480, Note_off_c, 2, 66, 64
3, 4480, Note_on_c, 2, 67, 60
3, 4640, Note_off_c, 2, 67, 64
3, 4640, Note_on_c, 2, 69, 60
3, 4800, Note_off_c, 2, 69, 64
3, 4800, Note_on_c, 2, 62, 60
3, 4960, Note_off_c, 2, 62, 64
3, 4960, Note_on_c, 2, 66, 60
3, 5120, Note_off_c, 2, 66, 64
3, 5120, Note_on_c, 2, 69, 60
3, 5280, Note_off_c, 2, 69, 64
3, 5280, Note_on_c, 2, 72, 60
3, 5440, Note_off_c, 2, 72, 64
3, 5440, Note_on_c, 2, 71, 60
3, 5600, Note_off_c, 2, 71, 64
3, 5600, Note_on_c, 2, 69, 60
3, 5760, Note_off_c, 2, 69, 64
3, 5760, Note_on_c, 2, 71, 60
3, 5920, Note_off_c, 2, 71, 64
3, 5920, Note_on_c, 2, 67, 60
3, 6080, Note_off_c, 2, 67, 64
3, 6080, Note_on_c, 2, 69, 60
3, 6240, Note_off_c, 2, 69, 64
3, 6240, Note_on_c, 2, 71, 60
3, 6400, Note_off_c, 2, 71, 64
3, 6400, Note_on_c, 2, 74, 60
3, 6560, Note_off_c, 2, 74, 64
3, 6560, Note_on_c, 2, 72, 60
3, 6720, Note_off_c, 2, 72, 64
3, 6720, Note_on_c, 2, 72, 60
3, 6880, Note_off_c, 2, 72, 64
3, 6880, Note_on_c, 2, 76, 60
3, 7040, Note_off_c, 2, 76, 64
3, 7040, Note_on_c, 2, 74, 60
3, 7200, Note_off_c, 2, 74, 64
3, 7200, Note_on_c, 2, 74, 60
3, 7360, Note_off_c, 2, 74, 64
3, 7360, Note_on_c, 2, 79, 60
3, 7520, Note_off_c, 2, 79, 64
3, 7520, Note_on_c, 2, 78, 60
3, 7680, Note_off_c, 2, 78, 64
3, 7680, Note_on_c, 2, 79, 60
3, 7840, Note_off_c, 2, 79, 64
3, 7840, Note_on_c, 2, 74, 60
3, 8000, Note_off_c, 2, 74, 64
3, 8000, Note_on_c, 2, 71, 60
3, 8160, Note_off_c, 2, 71, 64
3, 8160, Note_on_c, 2, 67, 60
3, 8320, Note_off_c, 2, 67, 64
3, 8320, Note_on_c, 2, 69, 60
3, 8480, Note_off_c, 2, 69, 64
3, 8480, Note_on_c, 2, 71, 60
3, 8640, Note_off_c, 2, 71, 64
3, 8640, Note_on_c, 2, 64, 60
3, 8800, Note_off_c, 2, 64, 64
3, 8800, Note_on_c, 2, 74, 60
3, 8960, Note_off_c, 2, 74, 64
3, 8960, Note_on_c, 2, 72, 60
3, 9120, Note_off_c, 2, 72, 64
3, 9120, Note_on_c, 2, 71, 60
3, 9280, Note_off_c, 2, 71, 64
3, 9280, Note_on_c, 2, 69, 60
3, 9440, Note_off_c, 2, 69, 64
3, 9440, Note_on_c, 2, 67, 60
3, 9600, Note_off_c, 2, 67, 64
3, 9600, Note_on_c, 2, 62, 60
3, 9760, Note_off_c, 2, 62, 64
3, 9760, Note_on_c, 2, 67, 60
3, 9920, Note_off_c, 2, 67, 64
3, 9920, Note_on_c, 2, 66, 60
3, 10080, Note_off_c, 2, 66, 64
3, 10080, Note_on_c, 2, 67, 60
3, 10240, Note_off_c, 2, 67, 64
3, 10240, Note_on_c, 2, 71, 60
3, 10400, Note_off_c, 2, 71, 64
3, 10400, Note_on_c, 2, 74, 60
3, 10560, Note_off_c, 2, 74, 64
3, 10560, Note_on_c, 2, 79, 60
3, 10720, Note_off_c, 2, 79, 64
3, 10720, Note_on_c, 2, 74, 60
3, 10880, Note_off_c, 2, 74, 64
3, 10880, Note_on_c, 2, 71, 60
3, 11040, Note_off_c, 2, 71, 64
3, 11040, Note_on_c, 2, 67, 60
3, 11200, Note_off_c, 2, 67, 64
3, 11200, Note_on_c, 2, 71, 60
3, 11360, Note_off_c, 2, 71, 64
3, 11360, Note_on_c, 2, 74, 60
3, 11520, Note_off_c, 2, 74, 64
3, 11520, Note_on_c, 2, 79, 60
3, 11920, Note_off_c, 2, 79, 64
3, 16000, Note_on_c, 2, 62, 60
3, 16160, Note_off_c, 2, 62, 64
3, 16160, Note_on_c, 2, 64, 60
3, 16320, Note_off_c, 2, 64, 64
3, 16320, Note_on_c, 2, 66, 60
3, 16480, Note_off_c, 2, 66, 64
3, 16480, Note_on_c, 2, 69, 60
3, 16640, Note_off_c, 2, 69, 64
3, 16640, Note_on_c, 2, 67, 60
3, 16800, Note_off_c, 2, 67, 64
3, 16800, Note_on_c, 2, 69, 60
3, 16960, Note_off_c, 2, 69, 64
3, 16960, Note_on_c, 2, 72, 60
3, 17120, Note_off_c, 2, 72, 64
3, 17120, Note_on_c, 2, 71, 60
3, 17280, Note_off_c, 2, 71, 64
3, 17280, Note_on_c, 2, 72, 60
3, 17440, Note_off_c, 2, 72, 64
3, 17440, Note_on_c, 2, 69, 60
3, 17600, Note_off_c, 2, 69, 64
3, 17600, Note_on_c, 2, 66, 60
3, 17760, Note_off_c, 2, 66, 64
3, 17760, Note_on_c, 2, 62, 60
3, 17920, Note_off_c, 2, 62, 64
3, 17920, Note_on_c, 2, 66, 60
3, 18080, Note_off_c, 2, 66, 64
3, 18080, Note_on_c, 2, 69, 60
3, 18240, Note_off_c, 2, 69, 64
3, 18240, Note_on_c, 2, 72, 60
3, 18400, Note_off_c, 2, 72, 64
3, 18400, Note_on_c, 2, 71, 60
3, 18560, Note_off_c, 2, 71, 64
3, 18560, Note_on_c, 2, 69, 60
3, 18720, Note_off_c, 2, 69, 64
3, 18720, Note_on_c, 2, 71, 60
3, 18880, Note_off_c, 2, 71, 64
3, 18880, Note_on_c, 2, 67, 60
3, 19040, Note_off_c, 2, 67, 64
3, 19040, Note_on_c, 2, 69, 60
3, 19200, Note_off_c, 2, 69, 64
3, 19200, Note_on_c, 2, 71, 60
3, 19360, Note_off_c, 2, 71, 64
3, 19360, Note_on_c, 2, 74, 60
3, 19520, Note_off_c, 2, 74, 64
3, 19520, Note_on_c, 2, 72, 60
3, 19680, Note_off_c, 2, 72, 64
3, 19680, Note_on_c, 2, 72, 60
3, 19840, Note_off_c, 2, 72, 64
3, 19840, Note_on_c, 2, 76, 60
3, 20000, Note_off_c, 2, 76, 64
3, 20000, Note_on_c, 2, 74, 60
3, 20160, Note_off_c, 2, 74, 64
3, 20160, Note_on_c, 2, 74, 60
3, 20320, Note_off_c, 2, 74, 64
3, 20320, Note_on_c, 2, 79, 60
3, 20480, Note_off_c, 2, 79, 64
3, 20480, Note_on_c, 2, 78, 60
3, 20640, Note_off_c, 2, 78, 64
3, 20640, Note_on_c, 2, 79, 60
3, 20800, Note_off_c, 2, 79, 64
3, 20800, Note_on_c, 2, 74, 60
3, 20960, Note_off_c, 2, 74, 64
3, 20960, Note_on_c, 2, 71, 60
3, 21120, Note_off_c, 2, 71, 64
3, 21120, Note_on_c, 2, 67, 60
3, 21280, Note_off_c, 2, 67, 64
3, 21280, Note_on_c, 2, 69, 60
3, 21440, Note_off_c, 2, 69, 64
3, 21440, Note_on_c, 2, 71, 60
3, 21600, Note_off_c, 2, 71, 64
3, 21600, Note_on_c, 2, 64, 60
3, 21760, Note_off_c, 2, 64, 64
3, 21760, Note_on_c, 2, 74, 60
3, 21920, Note_off_c, 2, 74, 64
3, 21920, Note_on_c, 2, 72, 60
3, 22080, Note_off_c, 2, 72, 64
3, 22080, Note_on_c, 2, 71, 60
3, 22240, Note_off_c, 2, 71, 64
3, 22240, Note_on_c, 2, 69, 60
3, 22400, Note_off_c, 2, 69, 64
3, 22400, Note_on_c, 2, 67, 60
3, 22560, Note_off_c, 2, 67, 64
3, 22560, Note_on_c, 2, 62, 60
3, 22720, Note_off_c, 2, 62, 64
3, 22720, Note_on_c, 2, 67, 60
3, 22880, Note_off_c, 2, 67, 64
3, 22880, Note_on_c, 2, 66, 60
3, 23040, Note_off_c, 2, 66, 64
3, 23040, Note_on_c, 2, 67, 60
3, 23200, Note_off_c, 2, 67, 64
3, 23200, Note_on_c, 2, 71, 60
3, 23360, Note_off_c, 2, 71, 64
3, 23360, Note_on_c, 2, 69, 60
3, 23520, Note_off_c, 2, 69, 64
3, 23520, Note_on_c, 2, 71, 60
3, 23680, Note_off_c, 2, 71, 64
3, 23680, Note_on_c, 2, 74, 60
3, 23840, Note_off_c, 2, 74, 64
3, 23840, Note_on_c, 2, 72, 60
3, 24000, Note_off_c, 2, 72, 64
3, 24000, Note_on_c, 2, 72, 60
3, 24160, Note_off_c, 2, 72, 64
3, 24160, Note_on_c, 2, 76, 60
3, 24320, Note_off_c, 2, 76, 64
3, 24320, Note_on_c, 2, 74, 60
3, 24480, Note_off_c, 2, 74, 64
3, 24480, Note_on_c, 2, 74, 60
3, 24640, Note_off_c, 2, 74, 64
3, 24640, Note_on_c, 2, 79, 60
3, 24800, Note_off_c, 2, 79, 64
3, 24800, Note_on_c, 2, 78, 60
3, 24960, Note_off_c, 2, 78, 64
3, 24960, Note_on_c, 2, 79, 60
3, 25120, Note_off_c, 2, 79, 64
3, 25120, Note_on_c, 2, 74, 60
3, 25280, Note_off_c, 2, 74, 64
3, 25280, Note_on_c, 2, 71, 60
3, 25440, Note_off_c, 2, 71, 64
3, 25440, Note_on_c, 2, 67, 60
3, 25600, Note_off_c, 2, 67, 64
3, 25600, Note_on_c, 2, 69, 60
3, 25760, Note_off_c, 2, 69, 64
3, 25760, Note_on_c, 2, 71, 60
3, 25920, Note_off_c, 2, 71, 64
3, 25920, Note_on_c, 2, 72, 60
3, 26080, Note_off_c, 2, 72, 64
3, 26080, Note_on_c, 2, 74, 60
3, 26240, Note_off_c, 2, 74, 64
3, 26240, Note_on_c, 2, 76, 60
3, 26400, Note_off_c, 2, 76, 64
3, 26400, Note_on_c, 2, 74, 60
3, 26560, Note_off_c, 2, 74, 64
3, 26560, Note_on_c, 2, 72, 60
3, 26720, Note_off_c, 2, 72, 64
3, 26720, Note_on_c, 2, 71, 60
3, 26880, Note_off_c, 2, 71, 64
3, 26880, Note_on_c, 2, 69, 60
3, 27040, Note_off_c, 2, 69, 64
3, 27040, Note_on_c, 2, 71, 60
3, 27200, Note_off_c, 2, 71, 64
3, 27200, Note_on_c, 2, 67, 60
3, 27360, Note_off_c, 2, 67, 64
3, 27360, Note_on_c, 2, 66, 60
3, 27520, Note_off_c, 2, 66, 64
3, 27520, Note_on_c, 2, 67, 60
3, 27680, Note_off_c, 2, 67, 64
3, 27680, Note_on_c, 2, 69, 60
3, 27840, Note_off_c, 2, 69, 64
3, 27840, Note_on_c, 2, 62, 60
3, 28000, Note_off_c, 2, 62, 64
3, 28000, Note_on_c, 2, 66, 60
3, 28160, Note_off_c, 2, 66, 64
3, 28160, Note_on_c, 2, 69, 60
3, 28320, Note_off_c, 2, 69, 64
3, 28320, Note_on_c, 2, 72, 60
3, 28480, Note_off_c, 2, 72, 64
3, 28480, Note_on_c, 2, 71, 60
3, 28640, Note_off_c, 2, 71, 64
3, 28640, Note_on_c, 2, 69, 60
3, 28800, Note_off_c, 2, 69, 64
3, 28800, Note_on_c, 2, 71, 60
3, 28960, Note_off_c, 2, 71, 64
3, 28960, Note_on_c, 2, 67, 60
3, 29120, Note_off_c, 2, 67, 64
3, 29120, Note_on_c, 2, 69, 60
3, 29280, Note_off_c, 2, 69, 64
3, 29280, Note_on_c, 2, 71, 60
3, 29440, Note_off_c, 2, 71, 64
3, 29440, Note_on_c, 2, 74, 60
3, 29600, Note_off_c, 2, 74, 64
3, 29600, Note_on_c, 2, 72, 60
3, 29760, Note_off_c, 2, 72, 64
3, 29760, Note_on_c, 2, 72, 60
3, 29920, Note_off_c, 2, 72, 64
3, 29920, Note_on_c, 2, 76, 60
3, 30080, Note_off_c, 2, 76, 64
3, 30080, Note_on_c, 2, 74, 60
3, 30240, Note_off_c, 2, 74, 64
3, 30240, Note_on_c, 2, 74, 60
3, 30400, Note_off_c, 2, 74, 64
3, 30400, Note_on_c, 2, 79, 60
3, 30560, Note_off_c, 2, 79, 64
3, 30560, Note_on_c, 2, 78, 60
3, 30720, Note_off_c, 2, 78, 64
3, 30720, Note_on_c, 2, 79, 60
3, 30880, Note_off_c, 2, 79, 64
3, 30880, Note_on_c, 2, 74, 60
3, 31040, Note_off_c, 2, 74, 64
3, 31040, Note_on_c, 2, 71, 60
3, 31200, Note_off_c, 2, 71, 64
3, 31200, Note_on_c, 2, 67, 60
3, 31360, Note_off_c, 2, 67, 64
3, 31360, Note_on_c, 2, 69, 60
3, 31520, Note_off_c, 2, 69, 64
3, 31520, Note_on_c, 2, 71, 60
3, 31680, Note_off_c, 2, 71, 64
3, 31680, Note_on_c, 2, 64, 60
3, 31840, Note_off_c, 2, 64, 64
3, 31840, Note_on_c, 2, 74, 60
3, 32000, Note_off_c, 2, 74, 64
3, 32000, Note_on_c, 2, 72, 60
3, 32160, Note_off_c, 2, 72, 64
3, 32160, Note_on_c, 2, 71, 60
3, 32320, Note_off_c, 2, 71, 64
3, 32320, Note_on_c, 2, 69, 60
3, 32480, Note_off_c, 2, 69, 64
3, 32480, Note_on_c, 2, 67, 60
3, 32640, Note_off_c, 2, 67, 64
3, 32640, Note_on_c, 2, 62, 60
3, 32800, Note_off_c, 2, 62, 64
3, 32800, Note_on_c, 2, 67, 60
3, 32960, Note_off_c, 2, 67, 64
3, 32960, Note_on_c, 2, 66, 60
3, 33120, Note_off_c, 2, 66, 64
3, 33120, Note_on_c, 2, 67, 60
3, 33520, Note_off_c, 2, 67, 64
3, 37600, Note_on_c, 2, 62, 60
3, 37760, Note_off_c, 2, 62, 64
3, 37760, Note_on_c, 2, 64, 60
3, 37920, Note_off_c, 2, 64, 64
3, 37920, Note_on_c, 2, 66, 60
3, 38080, Note_off_c, 2, 66, 64
3, 38080, Note_on_c, 2, 69, 60
3, 38240, Note_off_c, 2, 69, 64
3, 38240, Note_on_c, 2, 67, 60
3, 38400, Note_off_c, 2, 67, 64
3, 38400, Note_on_c, 2, 69, 60
3, 38560, Note_off_c, 2, 69, 64
3, 38560, Note_on_c, 2, 72, 60
3, 38720, Note_off_c, 2, 72, 64
3, 38720, Note_on_c, 2, 71, 60
3, 38880, Note_off_c, 2, 71, 64
3, 38880, Note_on_c, 2, 72, 60
3, 39040, Note_off_c, 2, 72, 64
3, 39040, Note_on_c, 2, 69, 60
3, 39200, Note_off_c, 2, 69, 64
3, 39200, Note_on_c, 2, 66, 60
3, 39360, Note_off_c, 2, 66, 64
3, 39360, Note_on_c, 2, 62, 60
3, 39520, Note_off_c, 2, 62, 64
3, 39520, Note_on_c, 2, 66, 60
3, 39680, Note_off_c, 2, 66, 64
3, 39680, Note_on_c, 2, 69, 60
3, 39840, Note_off_c, 2, 69, 64
3, 39840, Note_on_c, 2, 72, 60
3, 40000, Note_off_c, 2, 72, 64
3, 40000, Note_on_c, 2, 71, 60
3, 40160, Note_off_c, 2, 71, 64
3, 40160, Note_on_c, 2, 69, 60
3, 40320, Note_off_c, 2, 69, 64
3, 40320, Note_on_c, 2, 71, 60
3, 40480, Note_off_c, 2, 71, 64
3, 40480, Note_on_c, 2, 67, 60
3, 40640, Note_off_c, 2, 67, 64
3, 40640, Note_on_c, 2, 69, 60
3, 40800, Note_off_c, 2, 69, 64
3, 40800, Note_on_c, 2, 71, 60
3, 40960, Note_off_c, 2, 71, 64
3, 40960, Note_on_c, 2, 74, 60
3, 41120, Note_off_c, 2, 74, 64
3, 41120, Note_on_c, 2, 72, 60
3, 41280, Note_off_c, 2, 72, 64
3, 41280, Note_on_c, 2, 72, 60
3, 41440, Note_off_c, 2, 72, 64
3, 41440, Note_on_c, 2, 76, 60
3, 41600, Note_off_c, 2, 76, 64
3, 41600, Note_on_c, 2, 74, 60
3, 41760, Note_off_c, 2, 74, 64
3, 41760, Note_on_c, 2, 74, 60
3, 41920, Note_off_c, 2, 74, 64
3, 41920, Note_on_c, 2, 79, 60
3, 42080, Note_off_c, 2, 79, 64
3, 42080, Note_on_c, 2, 78, 60
3, 42240, Note_off_c, 2, 78, 64
3, 42240, Note_on_c, 2, 79, 60
3, 42400, Note_off_c, 2, 79, 64
3, 42400, Note_on_c, 2, 74, 60
3, 42560, Note_off_c, 2, 74, 64
3, 42560, Note_on_c, 2, 71, 60
3, 42720, Note_off_c, 2, 71, 64
3, 42720, Note_on_c, 2, 67, 60
3, 42880, Note_off_c, 2, 67, 64
3, 42880, Note_on_c, 2, 69, 60
3, 43040, Note_off_c, 2, 69, 64
3, 43040, Note_on_c, 2, 71, 60
3, 43200, Note_off_c, 2, 71, 64
3, 43200, Note_on_c, 2, 64, 60
3, 43360, Note_off_c, 2, 64, 64
3, 43360, Note_on_c, 2, 74, 60
3, 43520, Note_off_c, 2, 74, 64
3, 43520, Note_on_c, 2, 72, 60
3, 43680, Note_off_c, 2, 72, 64
3, 43680, Note_on_c, 2, 71, 60
3, 43840, Note_off_c, 2, 71, 64
3, 43840, Note_on_c, 2, 69, 60
3, 44000, Note_off_c, 2, 69, 64
3, 44000, Note_on_c, 2, 67, 60
3, 44160, Note_off_c, 2, 67, 64
3, 44160, Note_on_c, 2, 62, 60
3, 44320, Note_off_c, 2, 62, 64
3, 44320, Note_on_c, 2, 67, 60
3, 44480, Note_off_c, 2, 67, 64
3, 44480, Note_on_c, 2, 66, 60
3, 44640, Note_off_c, 2, 66, 64
3, 44640, Note_on_c, 2, 67, 60
3, 44800, Note_off_c, 2, 67, 64
3, 44800, Note_on_c, 2, 71, 60
3, 44960, Note_off_c, 2, 71, 64
3, 44960, Note_on_c, 2, 69, 60
3, 45120, Note_off_c, 2, 69, 64
3, 45120, Note_on_c, 2, 71, 60
3, 45280, Note_off_c, 2, 71, 64
3, 45280, Note_on_c, 2, 74, 60
3, 45440, Note_off_c, 2, 74, 64
3, 45440, Note_on_c, 2, 72, 60
3, 45600, Note_off_c, 2, 72, 64
3, 45600, Note_on_c, 2, 72, 60
3, 45760, Note_off_c, 2, 72, 64
3, 45760, Note_on_c, 2, 76, 60
3, 45920, Note_off_c, 2, 76, 64
3, 45920, Note_on_c, 2, 74, 60
3, 46080, Note_off_c, 2, 74, 64
3, 46080, Note_on_c, 2, 74, 60
3, 46240, Note_off_c, 2, 74, 64
3, 46240, Note_on_c, 2, 79, 60
3, 46400, Note_off_c, 2, 79, 64
3, 46400, Note_on_c, 2, 78, 60
3, 46560, Note_off_c, 2, 78, 64
3, 46560, Note_on_c, 2, 79, 60
3, 46720, Note_off_c, 2, 79, 64
3, 46720, Note_on_c, 2, 74, 60
3, 46880, Note_off_c, 2, 74, 64
3, 46880, Note_on_c, 2, 71, 60
3, 47040, Note_off_c, 2, 71, 64
3, 47040, Note_on_c, 2, 67, 60
3, 47200, Note_off_c, 2, 67, 64
3, 47200, Note_on_c, 2, 69, 60
3, 47360, Note_off_c, 2, 69, 64
3, 47360, Note_on_c, 2, 71, 60
3, 47520, Note_off_c, 2, 71, 64
3, 47520, Note_on_c, 2, 72, 60
3, 47680, Note_off_c, 2, 72, 64
3, 47680, Note_on_c, 2, 74, 60
3, 47840, Note_off_c, 2, 74, 64
3, 47840, Note_on_c, 2, 76, 60
3, 48000, Note_off_c, 2, 76, 64
3, 48000, Note_on_c, 2, 74, 60
3, 48160, Note_off_c, 2, 74, 64
3, 48160, Note_on_c, 2, 72, 60
3, 48320, Note_off_c, 2, 72, 64
3, 48320, Note_on_c, 2, 71, 60
3, 48480, Note_off_c, 2, 71, 64
3, 48480, Note_on_c, 2, 69, 60
3, 48640, Note_off_c, 2, 69, 64
3, 48640, Note_on_c, 2, 71, 60
3, 48800, Note_off_c, 2, 71, 64
3, 48800, Note_on_c, 2, 67, 60
3, 48960, Note_off_c, 2, 67, 64
3, 48960, Note_on_c, 2, 66, 60
3, 49120, Note_off_c, 2, 66, 64
3, 49120, Note_on_c, 2, 67, 60
3, 49280, Note_off_c, 2, 67, 64
3, 49280, Note_on_c, 2, 69, 60
3, 49440, Note_off_c, 2, 69, 64
3, 49440, Note_on_c, 2, 62, 60
3, 49600, Note_off_c, 2, 62, 64
3, 49600, Note_on_c, 2, 66, 60
3, 49760, Note_off_c, 2, 66, 64
3, 49760, Note_on_c, 2, 69, 60
3, 49920, Note_off_c, 2, 69, 64
3, 49920, Note_on_c, 2, 72, 60
3, 50080, Note_off_c, 2, 72, 64
3, 50080, Note_on_c, 2, 71, 60
3, 50240, Note_off_c, 2, 71, 64
3, 50240, Note_on_c, 2, 69, 60
3, 50400, Note_off_c, 2, 69, 64
3, 50400, Note_on_c, 2, 71, 60
3, 50560, Note_off_c, 2, 71, 64
3, 50560, Note_on_c, 2, 67, 60
3, 50720, Note_off_c, 2, 67, 64
3, 50720, Note_on_c, 2, 69, 60
3, 50880, Note_off_c, 2, 69, 64
3, 50880, Note_on_c, 2, 71, 60
3, 51040, Note_off_c, 2, 71, 64
3, 51040, Note_on_c, 2, 74, 60
3, 51200, Note_off_c, 2, 74, 64
3, 51200, Note_on_c, 2, 72, 60
3, 51360, Note_off_c, 2, 72, 64
3, 51360, Note_on_c, 2, 72, 60
3, 51520, Note_off_c, 2, 72, 64
3, 51520, Note_on_c, 2, 76, 60
3, 51680, Note_off_c, 2, 76, 64
3, 51680, Note_on_c, 2, 74, 60
3, 51840, Note_off_c, 2, 74, 64
3, 51840, Note_on_c, 2, 74, 60
3, 52000, Note_off_c, 2, 74, 64
3, 52000, Note_on_c, 2, 79, 60
3, 52160, Note_off_c, 2, 79, 64
3, 52160, Note_on_c, 2, 78, 60
3, 52320, Note_off_c, 2, 78, 64
3, 52320, Note_on_c, 2, 79, 60
3, 52480, Note_off_c, 2, 79, 64
3, 52480, Note_on_c, 2, 74, 60
3, 52640, Note_off_c, 2, 74, 64
3, 52640, Note_on_c, 2, 71, 60
3, 52800, Note_off_c, 2, 71, 64
3, 52800, Note_on_c, 2, 67, 60
3, 52960, Note_off_c, 2, 67, 64
3, 52960, Note_on_c, 2, 69, 60
3, 53120, Note_off_c, 2, 69, 64
3, 53120, Note_on_c, 2, 71, 60
3, 53280, Note_off_c, 2, 71, 64
3, 53280, Note_on_c, 2, 64, 60
3, 53440, Note_off_c, 2, 64, 64
3, 53440, Note_on_c, 2, 74, 60
3, 53600, Note_off_c, 2, 74, 64
3, 53600, Note_on_c, 2, 72, 60
3, 53760, Note_off_c, 2, 72, 64
3, 53760, Note_on_c, 2, 71, 60
3, 53920, Note_off_c, 2, 71, 64
3, 53920, Note_on_c, 2, 69, 61
3, 54080, Note_off_c, 2, 69, 64
3, 54080, Note_on_c, 2, 67, 62
3, 54240, Note_off_c, 2, 67, 64
3, 54240, Note_on_c, 2, 62, 63
3, 54400, Note_off_c, 2, 62, 64
3, 54400, Note_on_c, 2, 67, 64
3, 54560, Note_off_c, 2, 67, 64
3, 54560, Note_on_c, 2, 66, 65
3, 54720, Note_off_c, 2, 66, 64
3, 54720, Note_on_c, 2, 67, 66
3, 54880, Note_off_c, 2, 67, 64
3, 54880, Note_on_c, 2, 71, 67
3, 55040, Note_off_c, 2, 71, 64
3, 55040, Note_on_c, 2, 74, 68
3, 55200, Note_off_c, 2, 74, 64
3, 55200, Note_on_c, 2, 79, 69
3, 55360, Note_off_c, 2, 79, 64
3, 55360, Note_on_c, 2, 74, 70
3, 55520, Note_off_c, 2, 74, 64
3, 55520, Note_on_c, 2, 71, 71
3, 55680, Note_off_c, 2, 71, 64
3, 55680, Note_on_c, 2, 67, 72
3, 55840, Note_off_c, 2, 67, 64
3, 55840, Note_on_c, 2, 71, 73
3, 56000, Note_off_c, 2, 71, 64
3, 56000, Note_on_c, 2, 73, 74
3, 56160, Note_off_c, 2, 73, 64
3, 56160, Note_on_c, 2, 74, 75
3, 56320, Note_off_c, 2, 74, 64
3, 56320, Note_on_c, 2, 62, 75
3, 56480, Note_off_c, 2, 62, 64
3, 56480, Note_on_c, 2, 64, 75
3, 56640, Note_off_c, 2, 64, 64
3, 56640, Note_on_c, 2, 66, 75
3, 56800, Note_off_c, 2, 66, 64
3, 56800, Note_on_c, 2, 69, 75
3, 56960, Note_off_c, 2, 69, 64
3, 56960, Note_on_c, 2, 68, 75
3, 57120, Note_off_c, 2, 68, 64
3, 57120, Note_on_c, 2, 68, 75
3, 57280, Note_off_c, 2, 68, 64
3, 57280, Note_on_c, 2, 71, 75
3, 57440, Note_off_c, 2, 71, 64
3, 57440, Note_on_c, 2, 69, 75
3, 57600, Note_off_c, 2, 69, 64
3, 57600, Note_on_c, 2, 69, 75
3, 57760, Note_off_c, 2, 69, 64
3, 57760, Note_on_c, 2, 72, 75
3, 57920, Note_off_c, 2, 72, 64
3, 57920, Note_on_c, 2, 71, 75
3, 58080, Note_off_c, 2, 71, 64
3, 58080, Note_on_c, 2, 72, 75
3, 58240, Note_off_c, 2, 72, 64
3, 58240, Note_on_c, 2, 69, 75
3, 58400, Note_off_c, 2, 69, 64
3, 58400, Note_on_c, 2, 64, 75
3, 58560, Note_off_c, 2, 64, 64
3, 58560, Note_on_c, 2, 60, 75
3, 58720, Note_off_c, 2, 60, 64
3, 58720, Note_on_c, 2, 62, 75
3, 58880, Note_off_c, 2, 62, 64
3, 58880, Note_on_c, 2, 64, 75
3, 59040, Note_off_c, 2, 64, 64
3, 59040, Note_on_c, 2, 65, 75
3, 59200, Note_off_c, 2, 65, 64
3, 59200, Note_on_c, 2, 74, 75
3, 59360, Note_off_c, 2, 74, 64
3, 59360, Note_on_c, 2, 72, 75
3, 59520, Note_off_c, 2, 72, 64
3, 59520, Note_on_c, 2, 74, 75
3, 59680, Note_off_c, 2, 74, 64
3, 59680, Note_on_c, 2, 71, 75
3, 59840, Note_off_c, 2, 71, 64
3, 59840, Note_on_c, 2, 68, 75
3, 60000, Note_off_c, 2, 68, 64
3, 60000, Note_on_c, 2, 64, 75
3, 60160, Note_off_c, 2, 64, 64
3, 60160, Note_on_c, 2, 66, 75
3, 60320, Note_off_c, 2, 66, 64
3, 60320, Note_on_c, 2, 68, 75
3, 60480, Note_off_c, 2, 68, 64
3, 60480, Note_on_c, 2, 69, 75
3, 60640, Note_off_c, 2, 69, 64
3, 60640, Note_on_c, 2, 72, 75
3, 60800, Note_off_c, 2, 72, 64
3, 60800, Note_on_c, 2, 71, 75
3, 60960, Note_off_c, 2, 71, 64
3, 60960, Note_on_c, 2, 72, 75
3, 61120, Note_off_c, 2, 72, 64
3, 61120, Note_on_c, 2, 76, 75
3, 61280, Note_off_c, 2, 76, 64
3, 61280, Note_on_c, 2, 74, 75
3, 61440, Note_off_c, 2, 74, 64
3, 61440, Note_on_c, 2, 74, 75
3, 61600, Note_off_c, 2, 74, 64
3, 61600, Note_on_c, 2, 77, 75
3, 61760, Note_off_c, 2, 77, 64
3, 61760, Note_on_c, 2, 76, 75
3, 61920, Note_off_c, 2, 76, 64
3, 61920, Note_on_c, 2, 76, 75
3, 62080, Note_off_c, 2, 76, 64
3, 62080, Note_on_c, 2, 81, 75
3, 62240, Note_off_c, 2, 81, 64
3, 62240, Note_on_c, 2, 80, 76
3, 62400, Note_off_c, 2, 80, 64
3, 62400, Note_on_c, 2, 81, 77
3, 62560, Note_off_c, 2, 81, 64
3, 62560, Note_on_c, 2, 76, 78
3, 62720, Note_off_c, 2, 76, 64
3, 62720, Note_on_c, 2, 72, 79
3, 62880, Note_off_c, 2, 72, 64
3, 62880, Note_on_c, 2, 69, 80
3, 63040, Note_off_c, 2, 69, 64
3, 63040, Note_on_c, 2, 71, 81
3, 63200, Note_off_c, 2, 71, 64
3, 63200, Note_on_c, 2, 72, 82
3, 63360, Note_off_c, 2, 72, 64
3, 63360, Note_on_c, 2, 77, 83
3, 63520, Note_off_c, 2, 77, 64
3, 63520, Note_on_c, 2, 76, 84
3, 63680, Note_off_c, 2, 76, 64
3, 63680, Note_on_c, 2, 74, 85
3, 63840, Note_off_c, 2, 74, 64
3, 63840, Note_on_c, 2, 72, 86
3, 64000, Note_off_c, 2, 72, 64
3, 64000, Note_on_c, 2, 71, 87
3, 64160, Note_off_c, 2, 71, 64
3, 64160, Note_on_c, 2, 69, 88
3, 64320, Note_off_c, 2, 69, 64
3, 64320, Note_on_c, 2, 64, 89
3, 64480, Note_off_c, 2, 64, 64
3, 64480, Note_on_c, 2, 69, 90
3, 64640, Note_off_c, 2, 69, 64
3, 64640, Note_on_c, 2, 68, 91
3, 64800, Note_off_c, 2, 68, 64
3, 64800, Note_on_c, 2, 69, 92
3, 64960, Note_off_c, 2, 69, 64
3, 64960, Note_on_c, 2, 72, 92
3, 65120, Note_off_c, 2, 72, 64
3, 65120, Note_on_c, 2, 76, 92
3, 65280, Note_off_c, 2, 76, 64
3, 65280, Note_on_c, 2, 81, 92
3, 65520, Note_off_c, 2, 81, 64
3, 66400, Note_on_c, 2, 72, 92
3, 66560, Note_off_c, 2, 72, 64
3, 66560, Note_on_c, 2, 74, 92
3, 66720, Note_off_c, 2, 74, 64
3, 66720, Note_on_c, 2, 76, 92
3, 66880, Note_off_c, 2, 76, 64
3, 66880, Note_on_c, 2, 79, 92
3, 67040, Note_off_c, 2, 79, 64
3, 67040, Note_on_c, 2, 77, 92
3, 67200, Note_off_c, 2, 77, 64
3, 67200, Note_on_c, 2, 79, 92
3, 67360, Note_off_c, 2, 79, 64
3, 67360, Note_on_c, 2, 82, 92
3, 67520, Note_off_c, 2, 82, 64
3, 67520, Note_on_c, 2, 81, 92
3, 67680, Note_off_c, 2, 81, 64
3, 67680, Note_on_c, 2, 81, 92
3, 67840, Note_off_c, 2, 81, 64
3, 67840, Note_on_c, 2, 84, 92
3, 68000, Note_off_c, 2, 84, 64
3, 68000, Note_on_c, 2, 83, 92
3, 68160, Note_off_c, 2, 83, 64
3, 68160, Note_on_c, 2, 84, 92
3, 68320, Note_off_c, 2, 84, 64
3, 68320, Note_on_c, 2, 81, 92
3, 68480, Note_off_c, 2, 81, 64
3, 68480, Note_on_c, 2, 77, 92
3, 68640, Note_off_c, 2, 77, 64
3, 68640, Note_on_c, 2, 74, 92
3, 68800, Note_off_c, 2, 74, 64
3, 68800, Note_on_c, 2, 76, 92
3, 68960, Note_off_c, 2, 76, 64
3, 68960, Note_on_c, 2, 77, 92
3, 69120, Note_off_c, 2, 77, 64
3, 69120, Note_on_c, 2, 76, 92
3, 69280, Note_off_c, 2, 76, 64
3, 69280, Note_on_c, 2, 79, 92
3, 69440, Note_off_c, 2, 79, 64
3, 69440, Note_on_c, 2, 77, 92
3, 69600, Note_off_c, 2, 77, 64
3, 69600, Note_on_c, 2, 79, 92
3, 69760, Note_off_c, 2, 79, 64
3, 69760, Note_on_c, 2, 76, 92
3, 69920, Note_off_c, 2, 76, 64
3, 69920, Note_on_c, 2, 72, 92
3, 70080, Note_off_c, 2, 72, 64
3, 70080, Note_on_c, 2, 67, 92
3, 70240, Note_off_c, 2, 67, 64
3, 70240, Note_on_c, 2, 69, 89
3, 70400, Note_off_c, 2, 69, 64
3, 70400, Note_on_c, 2, 70, 86
3, 70560, Note_off_c, 2, 70, 64
3, 70560, Note_on_c, 2, 69, 83
3, 70720, Note_off_c, 2, 69, 64
3, 70720, Note_on_c, 2, 72, 80
3, 70880, Note_off_c, 2, 72, 64
3, 70880, Note_on_c, 2, 71, 76
3, 71040, Note_off_c, 2, 71, 64
3, 71040, Note_on_c, 2, 72, 72
3, 71200, Note_off_c, 2, 72, 64
3, 71200, Note_on_c, 2, 69, 68
3, 71360, Note_off_c, 2, 69, 64
3, 71360, Note_on_c, 2, 65, 64
3, 71520, Note_off_c, 2, 65, 64
3, 71520, Note_on_c, 2, 62, 60
3, 71680, Note_off_c, 2, 62, 64
3, 71680, Note_on_c, 2, 64, 60
3, 71840, Note_off_c, 2, 64, 64
3, 71840, Note_on_c, 2, 65, 60
3, 72000, Note_off_c, 2, 65, 64
3, 72000, Note_on_c, 2, 64, 60
3, 72160, Note_off_c, 2, 64, 64
3, 72160, Note_on_c, 2, 60, 60
3, 72320, Note_off_c, 2, 60, 64
3, 72320, Note_on_c, 2, 62, 60
3, 72480, Note_off_c, 2, 62, 64
3, 72480, Note_on_c, 2, 64, 60
3, 72640, Note_off_c, 2, 64, 64
3, 72640, Note_on_c, 2, 67, 60
3, 72800, Note_off_c, 2, 67, 64
3, 72800, Note_on_c, 2, 66, 60
3, 72960, Note_off_c, 2, 66, 64
3, 72960, Note_on_c, 2, 67, 45
3, 73120, Note_off_c, 2, 67, 64
3, 73120, Note_on_c, 2, 71, 45
3, 73280, Note_off_c, 2, 71, 64
3, 73280, Note_on_c, 2, 69, 45
3, 73440, Note_off_c, 2, 69, 64
3, 73440, Note_on_c, 2, 71, 45
3, 73600, Note_off_c, 2, 71, 64
3, 73600, Note_on_c, 2, 67, 45
3, 73760, Note_off_c, 2, 67, 64
3, 73760, Note_on_c, 2, 69, 45
3, 73920, Note_off_c, 2, 69, 64
3, 73920, Note_on_c, 2, 71, 45
3, 74080, Note_off_c, 2, 71, 64
3, 74080, Note_on_c, 2, 74, 45
3, 74240, Note_off_c, 2, 74, 64
3, 74240, Note_on_c, 2, 72, 45
3, 74400, Note_off_c, 2, 72, 64
3, 74400, Note_on_c, 2, 72, 45
3, 74560, Note_off_c, 2, 72, 64
3, 74560, Note_on_c, 2, 76, 45
3, 74720, Note_off_c, 2, 76, 64
3, 74720, Note_on_c, 2, 74, 45
3, 74880, Note_off_c, 2, 74, 64
3, 74880, Note_on_c, 2, 74, 45
3, 75040, Note_off_c, 2, 74, 64
3, 75040, Note_on_c, 2, 79, 45
3, 75200, Note_off_c, 2, 79, 64
3, 75200, Note_on_c, 2, 78, 45
3, 75360, Note_off_c, 2, 78, 64
3, 75360, Note_on_c, 2, 79, 45
3, 75520, Note_off_c, 2, 79, 64
3, 75520, Note_on_c, 2, 74, 45
3, 75680, Note_off_c, 2, 74, 64
3, 75680, Note_on_c, 2, 71, 45
3, 75840, Note_off_c, 2, 71, 64
3, 75840, Note_on_c, 2, 67, 45
3, 76000, Note_off_c, 2, 67, 64
3, 76000, Note_on_c, 2, 69, 45
3, 76160, Note_off_c, 2, 69, 64
3, 76160, Note_on_c, 2, 71, 45
3, 76320, Note_off_c, 2, 71, 64
3, 76320, Note_on_c, 2, 72, 45
3, 76480, Note_off_c, 2, 72, 64
3, 76480, Note_on_c, 2, 74, 45
3, 76640, Note_off_c, 2, 74, 64
3, 76640, Note_on_c, 2, 76, 45
3, 76800, Note_off_c, 2, 76, 64
3, 76800, Note_on_c, 2, 74, 45
3, 76960, Note_off_c, 2, 74, 64
3, 76960, Note_on_c, 2, 72, 45
3, 77120, Note_off_c, 2, 72, 64
3, 77120, Note_on_c, 2, 71, 45
3, 77280, Note_off_c, 2, 71, 64
3, 77280, Note_on_c, 2, 69, 45
3, 77440, Note_off_c, 2, 69, 64
3, 77440, Note_on_c, 2, 71, 45
3, 77600, Note_off_c, 2, 71, 64
3, 77600, Note_on_c, 2, 67, 45
3, 77760, Note_off_c, 2, 67, 64
3, 77760, Note_on_c, 2, 66, 45
3, 77920, Note_off_c, 2, 66, 64
3, 77920, Note_on_c, 2, 62, 45
3, 78080, Note_off_c, 2, 62, 64
3, 78080, Note_on_c, 2, 64, 45
3, 78240, Note_off_c, 2, 64, 64
3, 78240, Note_on_c, 2, 66, 45
3, 78400, Note_off_c, 2, 66, 64
3, 78400, Note_on_c, 2, 69, 45
3, 78560, Note_off_c, 2, 69, 64
3, 78560, Note_on_c, 2, 67, 45
3, 78720, Note_off_c, 2, 67, 64
3, 78720, Note_on_c, 2, 69, 45
3, 78880, Note_off_c, 2, 69, 64
3, 78880, Note_on_c, 2, 72, 45
3, 79040, Note_off_c, 2, 72, 64
3, 79040, Note_on_c, 2, 71, 45
3, 79200, Note_off_c, 2, 71, 64
3, 79200, Note_on_c, 2, 72, 45
3, 79360, Note_off_c, 2, 72, 64
3, 79360, Note_on_c, 2, 69, 45
3, 79520, Note_off_c, 2, 69, 64
3, 79520, Note_on_c, 2, 66, 45
3, 79680, Note_off_c, 2, 66, 64
3, 79680, Note_on_c, 2, 62, 45
3, 79840, Note_off_c, 2, 62, 64
3, 79840, Note_on_c, 2, 66, 45
3, 80000, Note_off_c, 2, 66, 64
3, 80000, Note_on_c, 2, 69, 45
3, 80160, Note_off_c, 2, 69, 64
3, 80160, Note_on_c, 2, 72, 45
3, 80320, Note_off_c, 2, 72, 64
3, 80320, Note_on_c, 2, 71, 45
3, 80480, Note_off_c, 2, 71, 64
3, 80480, Note_on_c, 2, 69, 45
3, 80640, Note_off_c, 2, 69, 64
3, 80640, Note_on_c, 2, 71, 45
3, 80800, Note_off_c, 2, 71, 64
3, 80800, Note_on_c, 2, 67, 45
3, 80960, Note_off_c, 2, 67, 64
3, 80960, Note_on_c, 2, 69, 45
3, 81120, Note_off_c, 2, 69, 64
3, 81120, Note_on_c, 2, 71, 45
3, 81280, Note_off_c, 2, 71, 64
3, 81280, Note_on_c, 2, 74, 45
3, 81440, Note_off_c, 2, 74, 64
3, 81440, Note_on_c, 2, 72, 45
3, 81600, Note_off_c, 2, 72, 64
3, 81600, Note_on_c, 2, 72, 45
3, 81760, Note_off_c, 2, 72, 64
3, 81760, Note_on_c, 2, 76, 45
3, 81920, Note_off_c, 2, 76, 64
3, 81920, Note_on_c, 2, 74, 45
3, 82080, Note_off_c, 2, 74, 64
3, 82080, Note_on_c, 2, 74, 45
3, 82240, Note_off_c, 2, 74, 64
3, 82240, Note_on_c, 2, 79, 45
3, 82400, Note_off_c, 2, 79, 64
3, 82400, Note_on_c, 2, 78, 45
3, 82560, Note_off_c, 2, 78, 64
3, 82560, Note_on_c, 2, 79, 45
3, 82720, Note_off_c, 2, 79, 64
3, 82720, Note_on_c, 2, 74, 45
3, 82880, Note_off_c, 2, 74, 64
3, 82880, Note_on_c, 2, 71, 45
3, 83040, Note_off_c, 2, 71, 64
3, 83040, Note_on_c, 2, 67, 45
3, 83200, Note_off_c, 2, 67, 64
3, 83200, Note_on_c, 2, 69, 45
3, 83360, Note_off_c, 2, 69, 64
3, 83360, Note_on_c, 2, 71, 45
3, 83520, Note_off_c, 2, 71, 64
3, 83520, Note_on_c, 2, 64, 45
3, 83680, Note_off_c, 2, 64, 64
3, 83680, Note_on_c, 2, 74, 45
3, 83840, Note_off_c, 2, 74, 64
3, 83840, Note_on_c, 2, 72, 45
3, 84000, Note_off_c, 2, 72, 64
3, 84000, Note_on_c, 2, 71, 45
3, 84160, Note_off_c, 2, 71, 64
3, 84160, Note_on_c, 2, 69, 45
3, 84320, Note_off_c, 2, 69, 64
3, 84320, Note_on_c, 2, 67, 45
3, 84480, Note_off_c, 2, 67, 64
3, 84480, Note_on_c, 2, 62, 45
3, 84640, Note_off_c, 2, 62, 64
3, 84640, Note_on_c, 2, 67, 45
3, 84800, Note_off_c, 2, 67, 64
3, 84800, Note_on_c, 2, 66, 45
3, 84960, Note_off_c, 2, 66, 64
3, 84960, Note_on_c, 2, 67, 45
3, 85120, Note_off_c, 2, 67, 64
3, 85120, Note_on_c, 2, 71, 45
3, 85280, Note_off_c, 2, 71, 64
3, 85280, Note_on_c, 2, 74, 45
3, 85440, Note_off_c, 2, 74, 64
3, 85440, Note_on_c, 2, 79, 45
3, 85600, Note_off_c, 2, 79, 64
3, 85600, Note_on_c, 2, 74, 45
3, 85760, Note_off_c, 2, 74, 64
3, 85760, Note_on_c, 2, 71, 45
3, 85920, Note_off_c, 2, 71, 64
3, 85920, Note_on_c, 2, 67, 45
3, 86080, Note_off_c, 2, 67, 64
3, 86080, Note_on_c, 2, 71, 45
3, 86240, Note_off_c, 2, 71, 64
3, 86240, Note_on_c, 2, 74, 45
3, 86400, Note_off_c, 2, 74, 64
3, 86400, Note_on_c, 2, 77, 45
3, 86560, Note_off_c, 2, 77, 64
3, 86560, Note_on_c, 2, 74, 45
3, 86720, Note_off_c, 2, 74, 64
3, 86720, Note_on_c, 2, 71, 45
3, 86880, Note_off_c, 2, 71, 64
3, 86880, Note_on_c, 2, 67, 45
3, 87040, Note_off_c, 2, 67, 64
3, 87040, Note_on_c, 2, 71, 45
3, 87200, Note_off_c, 2, 71, 64
3, 87200, Note_on_c, 2, 74, 45
3, 87360, Note_off_c, 2, 74, 64
3, 87360, Note_on_c, 2, 76, 45
3, 87520, Note_off_c, 2, 76, 64
3, 87520, Note_on_c, 2, 72, 45
3, 87680, Note_off_c, 2, 72, 64
3, 87680, Note_on_c, 2, 69, 45
3, 87840, Note_off_c, 2, 69, 64
3, 87840, Note_on_c, 2, 66, 45
3, 88000, Note_off_c, 2, 66, 64
3, 88000, Note_on_c, 2, 69, 45
3, 88160, Note_off_c, 2, 69, 64
3, 88160, Note_on_c, 2, 72, 45
3, 88320, Note_off_c, 2, 72, 64
3, 88320, Note_on_c, 2, 74, 45
3, 88480, Note_off_c, 2, 74, 64
3, 88480, Note_on_c, 2, 71, 45
3, 88640, Note_off_c, 2, 71, 64
3, 88640, Note_on_c, 2, 67, 45
3, 88800, Note_off_c, 2, 67, 64
3, 88800, Note_on_c, 2, 64, 45
3, 88960, Note_off_c, 2, 64, 64
3, 88960, Note_on_c, 2, 67, 45
3, 89120, Note_off_c, 2, 67, 64
3, 89120, Note_on_c, 2, 71, 45
3, 89280, Note_off_c, 2, 71, 64
3, 89280, Note_on_c, 2, 72, 45
3, 89440, Note_off_c, 2, 72, 64
3, 89440, Note_on_c, 2, 69, 45
3, 89600, Note_off_c, 2, 69, 64
3, 89600, Note_on_c, 2, 66, 45
3, 89760, Note_off_c, 2, 66, 64
3, 89760, Note_on_c, 2, 62, 45
3, 89920, Note_off_c, 2, 62, 64
3, 89920, Note_on_c, 2, 66, 45
3, 90080, Note_off_c, 2, 66, 64
3, 90080, Note_on_c, 2, 69, 45
3, 90240, Note_off_c, 2, 69, 64
3, 90240, Note_on_c, 2, 72, 45
3, 90400, Note_off_c, 2, 72, 64
3, 90400, Note_on_c, 2, 71, 45
3, 90560, Note_off_c, 2, 71, 64
3, 90560, Note_on_c, 2, 69, 45
3, 90720, Note_off_c, 2, 69, 64
3, 90720, Note_on_c, 2, 71, 45
3, 90880, Note_off_c, 2, 71, 64
3, 90880, Note_on_c, 2, 67, 45
3, 91040, Note_off_c, 2, 67, 64
3, 91040, Note_on_c, 2, 69, 45
3, 91200, Note_off_c, 2, 69, 64
3, 91200, Note_on_c, 2, 71, 45
3, 91360, Note_off_c, 2, 71, 64
3, 91360, Note_on_c, 2, 74, 45
3, 91520, Note_off_c, 2, 74, 64
3, 91520, Note_on_c, 2, 72, 45
3, 91680, Note_off_c, 2, 72, 64
3, 91680, Note_on_c, 2, 72, 45
3, 91840, Note_off_c, 2, 72, 64
3, 91840, Note_on_c, 2, 76, 45
3, 92000, Note_off_c, 2, 76, 64
3, 92000, Note_on_c, 2, 74, 45
3, 92160, Note_off_c, 2, 74, 64
3, 92160, Note_on_c, 2, 74, 45
3, 92320, Note_off_c, 2, 74, 64
3, 92320, Note_on_c, 2, 79, 45
3, 92480, Note_off_c, 2, 79, 64
3, 92480, Note_on_c, 2, 78, 45
3, 92640, Note_off_c, 2, 78, 64
3, 92640, Note_on_c, 2, 79, 45
3, 92800, Note_off_c, 2, 79, 64
3, 92800, Note_on_c, 2, 74, 45
3, 92960, Note_off_c, 2, 74, 64
3, 92960, Note_on_c, 2, 71, 45
3, 93120, Note_off_c, 2, 71, 64
3, 93120, Note_on_c, 2, 67, 45
3, 93280, Note_off_c, 2, 67, 64
3, 93280, Note_on_c, 2, 69, 45
3, 93440, Note_off_c, 2, 69, 64
3, 93440, Note_on_c, 2, 71, 45
3, 93600, Note_off_c, 2, 71, 64
3, 93600, Note_on_c, 2, 72, 45
3, 93760, Note_off_c, 2, 72, 64
3, 93760, Note_on_c, 2, 74, 45
3, 93920, Note_off_c, 2, 74, 64
3, 93920, Note_on_c, 2, 76, 45
3, 94080, Note_off_c, 2, 76, 64
3, 94080, Note_on_c, 2, 74, 45
3, 94240, Note_off_c, 2, 74, 64
3, 94240, Note_on_c, 2, 72, 45
3, 94400, Note_off_c, 2, 72, 64
3, 94400, Note_on_c, 2, 71, 45
3, 94560, Note_off_c, 2, 71, 64
3, 94560, Note_on_c, 2, 69, 45
3, 94720, Note_off_c, 2, 69, 64
3, 94720, Note_on_c, 2, 71, 45
3, 94880, Note_off_c, 2, 71, 64
3, 94880, Note_on_c, 2, 67, 45
3, 95040, Note_off_c, 2, 67, 64
3, 95040, Note_on_c, 2, 66, 45
3, 95200, Note_off_c, 2, 66, 64
3, 95200, Note_on_c, 2, 67, 45
3, 95360, Note_off_c, 2, 67, 64
3, 95360, Note_on_c, 2, 69, 45
3, 95520, Note_off_c, 2, 69, 64
3, 95520, Note_on_c, 2, 62, 45
3, 95680, Note_off_c, 2, 62, 64
3, 95680, Note_on_c, 2, 66, 45
3, 95840, Note_off_c, 2, 66, 64
3, 95840, Note_on_c, 2, 69, 45
3, 96000, Note_off_c, 2, 69, 64
3, 96000, Note_on_c, 2, 72, 45
3, 96160, Note_off_c, 2, 72, 64
3, 96160, Note_on_c, 2, 71, 45
3, 96320, Note_off_c, 2, 71, 64
3, 96320, Note_on_c, 2, 69, 45
3, 96480, Note_off_c, 2, 69, 64
3, 96480, Note_on_c, 2, 71, 45
3, 96640, Note_off_c, 2, 71, 64
3, 96640, Note_on_c, 2, 67, 45
3, 96800, Note_off_c, 2, 67, 64
3, 96800, Note_on_c, 2, 69, 45
3, 96960, Note_off_c, 2, 69, 64
3, 96960, Note_on_c, 2, 71, 45
3, 97120, Note_off_c, 2, 71, 64
3, 97120, Note_on_c, 2, 74, 45
3, 97280, Note_off_c, 2, 74, 64
3, 97280, Note_on_c, 2, 72, 45
3, 97440, Note_off_c, 2, 72, 64
3, 97440, Note_on_c, 2, 72, 45
3, 97600, Note_off_c, 2, 72, 64
3, 97600, Note_on_c, 2, 76, 45
3, 97760, Note_off_c, 2, 76, 64
3, 97760, Note_on_c, 2, 74, 45
3, 97920, Note_off_c, 2, 74, 64
3, 97920, Note_on_c, 2, 74, 45
3, 98080, Note_off_c, 2, 74, 64
3, 98080, Note_on_c, 2, 79, 45
3, 98240, Note_off_c, 2, 79, 64
3, 98240, Note_on_c, 2, 78, 45
3, 98400, Note_off_c, 2, 78, 64
3, 98400, Note_on_c, 2, 79, 45
3, 98560, Note_off_c, 2, 79, 64
3, 98560, Note_on_c, 2, 74, 45
3, 98720, Note_off_c, 2, 74, 64
3, 98720, Note_on_c, 2, 71, 45
3, 98880, Note_off_c, 2, 71, 64
3, 98880, Note_on_c, 2, 67, 45
3, 99040, Note_off_c, 2, 67, 64
3, 99040, Note_on_c, 2, 69, 45
3, 99200, Note_off_c, 2, 69, 64
3, 99200, Note_on_c, 2, 71, 45
3, 99360, Note_off_c, 2, 71, 64
3, 99360, Note_on_c, 2, 64, 45
3, 99520, Note_off_c, 2, 64, 64
3, 99520, Note_on_c, 2, 74, 45
3, 99680, Note_off_c, 2, 74, 64
3, 99680, Note_on_c, 2, 72, 45
3, 99840, Note_off_c, 2, 72, 64
3, 99840, Note_on_c, 2, 71, 45
3, 100000, Note_off_c, 2, 71, 64
3, 100000, Note_on_c, 2, 69, 45
3, 100160, Note_off_c, 2, 69, 64
3, 100160, Note_on_c, 2, 67, 45
3, 100320, Note_off_c, 2, 67, 64
3, 100320, Note_on_c, 2, 62, 45
3, 100480, Note_off_c, 2, 62, 64
3, 100480, Note_on_c, 2, 67, 45
3, 100640, Note_off_c, 2, 67, 64
3, 100640, Note_on_c, 2, 66, 45
3, 100800, Note_off_c, 2, 66, 64
3, 100800, Note_on_c, 2, 67, 45
3, 102120, Note_off_c, 2, 67, 64
3, 102120, End_track
4, 0, Start_track
4, 0, Title_t, "by J. S. Bach"
4, 0, MIDI_port, 0
4, 0, Channel_prefix, 4
4, 0, Control_c, 4, 7, 127
4, 0, Control_c, 4, 10, 25
4, 0, Control_c, 4, 91, 127
4, 0, Program_c, 4, 48
4, 480, Program_c, 4, 48
4, 480, Note_on_c, 4, 67, 45
4, 840, Note_off_c, 4, 67, 64
4, 840, Note_on_c, 4, 66, 45
4, 960, Note_off_c, 4, 66, 64
4, 960, Note_on_c, 4, 67, 45
4, 1320, Note_off_c, 4, 67, 64
4, 1320, Note_on_c, 4, 69, 45
4, 1440, Note_off_c, 4, 69, 64
4, 1440, Note_on_c, 4, 71, 45
4, 1800, Note_off_c, 4, 71, 64
4, 1800, Note_on_c, 4, 69, 45
4, 1920, Note_off_c, 4, 69, 64
4, 1920, Note_on_c, 4, 71, 45
4, 2280, Note_off_c, 4, 71, 64
4, 2280, Note_on_c, 4, 67, 45
4, 2400, Note_off_c, 4, 67, 64
4, 2400, Note_on_c, 4, 64, 45
4, 2760, Note_off_c, 4, 64, 64
4, 2760, Note_on_c, 4, 62, 45
4, 2880, Note_off_c, 4, 62, 64
4, 2880, Note_on_c, 4, 64, 45
4, 3240, Note_off_c, 4, 64, 64
4, 3240, Note_on_c, 4, 66, 45
4, 3360, Note_off_c, 4, 66, 64
4, 3360, Note_on_c, 4, 67, 45
4, 3720, Note_off_c, 4, 67, 64
4, 3720, Note_on_c, 4, 62, 45
4, 3840, Note_off_c, 4, 62, 64
4, 3840, Note_on_c, 4, 64, 45
4, 4200, Note_off_c, 4, 64, 64
4, 4200, Note_on_c, 4, 59, 45
4, 4320, Note_off_c, 4, 59, 64
4, 4320, Note_on_c, 4, 57, 45
4, 4680, Note_off_c, 4, 57, 64
4, 4680, Note_on_c, 4, 62, 45
4, 4800, Note_off_c, 4, 62, 64
4, 4800, Note_on_c, 4, 69, 45
4, 5160, Note_off_c, 4, 69, 64
4, 5160, Note_on_c, 4, 67, 45
4, 5280, Note_off_c, 4, 67, 64
4, 5280, Note_on_c, 4, 69, 45
4, 5640, Note_off_c, 4, 69, 64
4, 5640, Note_on_c, 4, 66, 45
4, 5760, Note_off_c, 4, 66, 64
4, 5760, Note_on_c, 4, 62, 45
4, 6120, Note_off_c, 4, 62, 64
4, 6120, Note_on_c, 4, 66, 45
4, 6240, Note_off_c, 4, 66, 64
4, 6240, Note_on_c, 4, 67, 45
4, 6600, Note_off_c, 4, 67, 64
4, 6600, Note_on_c, 4, 66, 45
4, 6720, Note_off_c, 4, 66, 64
4, 6720, Note_on_c, 4, 67, 45
4, 7080, Note_off_c, 4, 67, 64
4, 7080, Note_on_c, 4, 69, 45
4, 7200, Note_off_c, 4, 69, 64
4, 7200, Note_on_c, 4, 71, 45
4, 7560, Note_off_c, 4, 71, 64
4, 7560, Note_on_c, 4, 69, 45
4, 7680, Note_off_c, 4, 69, 64
4, 7680, Note_on_c, 4, 71, 45
4, 8040, Note_off_c, 4, 71, 64
4, 8040, Note_on_c, 4, 67, 45
4, 8160, Note_off_c, 4, 67, 64
4, 8160, Note_on_c, 4, 64, 45
4, 8520, Note_off_c, 4, 64, 64
4, 8520, Note_on_c, 4, 67, 45
4, 8640, Note_off_c, 4, 67, 64
4, 8640, Note_on_c, 4, 69, 45
4, 9000, Note_off_c, 4, 69, 64
4, 9000, Note_on_c, 4, 66, 45
4, 9120, Note_off_c, 4, 66, 64
4, 9120, Note_on_c, 4, 67, 45
4, 9480, Note_off_c, 4, 67, 64
4, 9480, Note_on_c, 4, 64, 45
4, 9600, Note_off_c, 4, 64, 64
4, 9600, Note_on_c, 4, 57, 45
4, 9960, Note_off_c, 4, 57, 64
4, 9960, Note_on_c, 4, 60, 45
4, 10080, Note_off_c, 4, 60, 64
4, 10080, Note_on_c, 4, 59, 45
4, 10440, Note_off_c, 4, 59, 64
4, 10440, Note_on_c, 4, 67, 45
4, 10560, Note_off_c, 4, 67, 64
4, 10560, Note_on_c, 4, 71, 45
4, 10920, Note_off_c, 4, 71, 64
4, 10920, Note_on_c, 4, 74, 45
4, 11005, Note_off_c, 4, 74, 64
4, 11040, Note_on_c, 4, 79, 45
4, 11400, Note_off_c, 4, 79, 64
4, 11400, Note_on_c, 4, 74, 45
4, 11485, Note_off_c, 4, 74, 64
4, 11520, Note_on_c, 4, 71, 45
4, 12000, Note_off_c, 4, 71, 64
4, 16320, Note_on_c, 4, 62, 45
4, 16680, Note_off_c, 4, 62, 64
4, 16680, Note_on_c, 4, 64, 45
4, 16800, Note_off_c, 4, 64, 64
4, 16800, Note_on_c, 4, 66, 45
4, 17160, Note_off_c, 4, 66, 64
4, 17160, Note_on_c, 4, 67, 45
4, 17280, Note_off_c, 4, 67, 64
4, 17280, Note_on_c, 4, 69, 45
4, 17640, Note_off_c, 4, 69, 64
4, 17640, Note_on_c, 4, 72, 45
4, 17760, Note_off_c, 4, 72, 64
4, 17760, Note_on_c, 4, 69, 45
4, 18120, Note_off_c, 4, 69, 64
4, 18120, Note_on_c, 4, 66, 45
4, 18240, Note_off_c, 4, 66, 64
4, 18240, Note_on_c, 4, 62, 45
4, 18600, Note_off_c, 4, 62, 64
4, 18600, Note_on_c, 4, 66, 45
4, 18720, Note_off_c, 4, 66, 64
4, 18720, Note_on_c, 4, 67, 45
4, 19080, Note_off_c, 4, 67, 64
4, 19080, Note_on_c, 4, 62, 45
4, 19200, Note_off_c, 4, 62, 64
4, 19200, Note_on_c, 4, 67, 45
4, 19560, Note_off_c, 4, 67, 64
4, 19560, Note_on_c, 4, 66, 45
4, 19680, Note_off_c, 4, 66, 64
4, 19680, Note_on_c, 4, 67, 45
4, 20040, Note_off_c, 4, 67, 64
4, 20040, Note_on_c, 4, 69, 45
4, 20160, Note_off_c, 4, 69, 64
4, 20160, Note_on_c, 4, 71, 45
4, 20520, Note_off_c, 4, 71, 64
4, 20520, Note_on_c, 4, 69, 45
4, 20640, Note_off_c, 4, 69, 64
4, 20640, Note_on_c, 4, 67, 45
4, 21000, Note_off_c, 4, 67, 64
4, 21000, Note_on_c, 4, 66, 45
4, 21120, Note_off_c, 4, 66, 64
4, 21120, Note_on_c, 4, 64, 45
4, 21480, Note_off_c, 4, 64, 64
4, 21480, Note_on_c, 4, 67, 45
4, 21600, Note_off_c, 4, 67, 64
4, 21600, Note_on_c, 4, 69, 45
4, 21960, Note_off_c, 4, 69, 64
4, 21960, Note_on_c, 4, 67, 45
4, 22080, Note_off_c, 4, 67, 64
4, 22080, Note_on_c, 4, 66, 45
4, 22440, Note_off_c, 4, 66, 64
4, 22440, Note_on_c, 4, 67, 45
4, 22560, Note_off_c, 4, 67, 64
4, 22560, Note_on_c, 4, 69, 45
4, 22920, Note_off_c, 4, 69, 64
4, 22920, Note_on_c, 4, 60, 45
4, 23040, Note_off_c, 4, 60, 64
4, 23040, Note_on_c, 4, 59, 45
4, 23400, Note_off_c, 4, 59, 64
4, 23400, Note_on_c, 4, 62, 45
4, 23520, Note_off_c, 4, 62, 64
4, 23520, Note_on_c, 4, 67, 45
4, 23880, Note_off_c, 4, 67, 64
4, 23880, Note_on_c, 4, 66, 45
4, 24000, Note_off_c, 4, 66, 64
4, 24000, Note_on_c, 4, 67, 45
4, 24360, Note_off_c, 4, 67, 64
4, 24360, Note_on_c, 4, 69, 45
4, 24480, Note_off_c, 4, 69, 64
4, 24480, Note_on_c, 4, 71, 45
4, 24840, Note_off_c, 4, 71, 64
4, 24840, Note_on_c, 4, 69, 45
4, 24960, Note_off_c, 4, 69, 64
4, 24960, Note_on_c, 4, 71, 45
4, 25320, Note_off_c, 4, 71, 64
4, 25320, Note_on_c, 4, 67, 45
4, 25440, Note_off_c, 4, 67, 64
4, 25440, Note_on_c, 4, 64, 45
4, 25800, Note_off_c, 4, 64, 64
4, 25800, Note_on_c, 4, 62, 45
4, 25920, Note_off_c, 4, 62, 64
4, 25920, Note_on_c, 4, 64, 45
4, 26280, Note_off_c, 4, 64, 64
4, 26280, Note_on_c, 4, 66, 45
4, 26400, Note_off_c, 4, 66, 64
4, 26400, Note_on_c, 4, 67, 45
4, 26760, Note_off_c, 4, 67, 64
4, 26760, Note_on_c, 4, 62, 45
4, 26880, Note_off_c, 4, 62, 64
4, 26880, Note_on_c, 4, 64, 45
4, 27240, Note_off_c, 4, 64, 64
4, 27240, Note_on_c, 4, 59, 45
4, 27360, Note_off_c, 4, 59, 64
4, 27360, Note_on_c, 4, 57, 45
4, 27720, Note_off_c, 4, 57, 64
4, 27720, Note_on_c, 4, 62, 45
4, 27840, Note_off_c, 4, 62, 64
4, 27840, Note_on_c, 4, 69, 45
4, 28200, Note_off_c, 4, 69, 64
4, 28200, Note_on_c, 4, 67, 45
4, 28320, Note_off_c, 4, 67, 64
4, 28320, Note_on_c, 4, 69, 45
4, 28680, Note_off_c, 4, 69, 64
4, 28680, Note_on_c, 4, 66, 45
4, 28800, Note_off_c, 4, 66, 64
4, 28800, Note_on_c, 4, 62, 45
4, 29160, Note_off_c, 4, 62, 64
4, 29160, Note_on_c, 4, 66, 45
4, 29280, Note_off_c, 4, 66, 64
4, 29280, Note_on_c, 4, 67, 45
4, 29640, Note_off_c, 4, 67, 64
4, 29640, Note_on_c, 4, 66, 45
4, 29760, Note_off_c, 4, 66, 64
4, 29760, Note_on_c, 4, 67, 45
4, 30120, Note_off_c, 4, 67, 64
4, 30120, Note_on_c, 4, 69, 45
4, 30240, Note_off_c, 4, 69, 64
4, 30240, Note_on_c, 4, 71, 45
4, 30600, Note_off_c, 4, 71, 64
4, 30600, Note_on_c, 4, 69, 45
4, 30720, Note_off_c, 4, 69, 64
4, 30720, Note_on_c, 4, 71, 45
4, 31080, Note_off_c, 4, 71, 64
4, 31080, Note_on_c, 4, 67, 45
4, 31200, Note_off_c, 4, 67, 64
4, 31200, Note_on_c, 4, 64, 45
4, 31560, Note_off_c, 4, 64, 64
4, 31560, Note_on_c, 4, 67, 45
4, 31680, Note_off_c, 4, 67, 64
4, 31680, Note_on_c, 4, 69, 45
4, 32040, Note_off_c, 4, 69, 64
4, 32040, Note_on_c, 4, 66, 45
4, 32160, Note_off_c, 4, 66, 64
4, 32160, Note_on_c, 4, 67, 45
4, 32520, Note_off_c, 4, 67, 64
4, 32520, Note_on_c, 4, 64, 45
4, 32640, Note_off_c, 4, 64, 64
4, 32640, Note_on_c, 4, 57, 45
4, 33000, Note_off_c, 4, 57, 64
4, 33000, Note_on_c, 4, 60, 45
4, 33120, Note_off_c, 4, 60, 64
4, 33120, Note_on_c, 4, 67, 45
4, 33600, Note_off_c, 4, 67, 64
4, 37920, Note_on_c, 4, 62, 45
4, 38280, Note_off_c, 4, 62, 64
4, 38280, Note_on_c, 4, 64, 45
4, 38400, Note_off_c, 4, 64, 64
4, 38400, Note_on_c, 4, 66, 45
4, 38760, Note_off_c, 4, 66, 64
4, 38760, Note_on_c, 4, 67, 45
4, 38880, Note_off_c, 4, 67, 64
4, 38880, Note_on_c, 4, 69, 45
4, 39240, Note_off_c, 4, 69, 64
4, 39240, Note_on_c, 4, 72, 45
4, 39360, Note_off_c, 4, 72, 64
4, 39360, Note_on_c, 4, 69, 45
4, 39720, Note_off_c, 4, 69, 64
4, 39720, Note_on_c, 4, 66, 45
4, 39840, Note_off_c, 4, 66, 64
4, 39840, Note_on_c, 4, 62, 45
4, 40200, Note_off_c, 4, 62, 64
4, 40200, Note_on_c, 4, 66, 45
4, 40320, Note_off_c, 4, 66, 64
4, 40320, Note_on_c, 4, 67, 45
4, 40680, Note_off_c, 4, 67, 64
4, 40680, Note_on_c, 4, 62, 45
4, 40800, Note_off_c, 4, 62, 64
4, 40800, Note_on_c, 4, 67, 45
4, 41160, Note_off_c, 4, 67, 64
4, 41160, Note_on_c, 4, 66, 45
4, 41280, Note_off_c, 4, 66, 64
4, 41280, Note_on_c, 4, 67, 45
4, 41640, Note_off_c, 4, 67, 64
4, 41640, Note_on_c, 4, 69, 45
4, 41760, Note_off_c, 4, 69, 64
4, 41760, Note_on_c, 4, 71, 45
4, 42120, Note_off_c, 4, 71, 64
4, 42120, Note_on_c, 4, 69, 45
4, 42240, Note_off_c, 4, 69, 64
4, 42240, Note_on_c, 4, 67, 45
4, 42600, Note_off_c, 4, 67, 64
4, 42600, Note_on_c, 4, 66, 45
4, 42720, Note_off_c, 4, 66, 64
4, 42720, Note_on_c, 4, 64, 45
4, 43080, Note_off_c, 4, 64, 64
4, 43080, Note_on_c, 4, 67, 45
4, 43200, Note_off_c, 4, 67, 64
4, 43200, Note_on_c, 4, 69, 45
4, 43560, Note_off_c, 4, 69, 64
4, 43560, Note_on_c, 4, 67, 45
4, 43680, Note_off_c, 4, 67, 64
4, 43680, Note_on_c, 4, 66, 45
4, 44040, Note_off_c, 4, 66, 64
4, 44040, Note_on_c, 4, 67, 45
4, 44160, Note_off_c, 4, 67, 64
4, 44160, Note_on_c, 4, 69, 45
4, 44520, Note_off_c, 4, 69, 64
4, 44520, Note_on_c, 4, 60, 45
4, 44640, Note_off_c, 4, 60, 64
4, 44640, Note_on_c, 4, 59, 45
4, 45000, Note_off_c, 4, 59, 64
4, 45000, Note_on_c, 4, 62, 45
4, 45120, Note_off_c, 4, 62, 64
4, 45120, Note_on_c, 4, 67, 45
4, 45480, Note_off_c, 4, 67, 64
4, 45480, Note_on_c, 4, 66, 45
4, 45600, Note_off_c, 4, 66, 64
4, 45600, Note_on_c, 4, 67, 45
4, 45960, Note_off_c, 4, 67, 64
4, 45960, Note_on_c, 4, 69, 46
4, 46080, Note_off_c, 4, 69, 64
4, 46080, Note_on_c, 4, 71, 46
4, 46440, Note_off_c, 4, 71, 64
4, 46440, Note_on_c, 4, 69, 47
4, 46560, Note_off_c, 4, 69, 64
4, 46560, Note_on_c, 4, 71, 47
4, 46920, Note_off_c, 4, 71, 64
4, 46920, Note_on_c, 4, 67, 48
4, 47040, Note_off_c, 4, 67, 64
4, 47040, Note_on_c, 4, 64, 48
4, 47400, Note_off_c, 4, 64, 64
4, 47400, Note_on_c, 4, 62, 49
4, 47520, Note_off_c, 4, 62, 64
4, 47520, Note_on_c, 4, 64, 49
4, 47880, Note_off_c, 4, 64, 64
4, 47880, Note_on_c, 4, 66, 50
4, 48000, Note_off_c, 4, 66, 64
4, 48000, Note_on_c, 4, 67, 50
4, 48360, Note_off_c, 4, 67, 64
4, 48360, Note_on_c, 4, 62, 51
4, 48480, Note_off_c, 4, 62, 64
4, 48480, Note_on_c, 4, 64, 51
4, 48840, Note_off_c, 4, 64, 64
4, 48840, Note_on_c, 4, 59, 52
4, 48960, Note_off_c, 4, 59, 64
4, 48960, Note_on_c, 4, 57, 52
4, 49320, Note_off_c, 4, 57, 64
4, 49320, Note_on_c, 4, 62, 53
4, 49440, Note_off_c, 4, 62, 64
4, 49440, Note_on_c, 4, 69, 53
4, 49800, Note_off_c, 4, 69, 64
4, 49800, Note_on_c, 4, 67, 54
4, 49920, Note_off_c, 4, 67, 64
4, 49920, Note_on_c, 4, 69, 54
4, 50280, Note_off_c, 4, 69, 64
4, 50280, Note_on_c, 4, 66, 55
4, 50400, Note_off_c, 4, 66, 64
4, 50400, Note_on_c, 4, 62, 55
4, 50760, Note_off_c, 4, 62, 64
4, 50760, Note_on_c, 4, 66, 56
4, 50880, Note_off_c, 4, 66, 64
4, 50880, Note_on_c, 4, 67, 56
4, 51240, Note_off_c, 4, 67, 64
4, 51240, Note_on_c, 4, 66, 57
4, 51360, Note_off_c, 4, 66, 64
4, 51360, Note_on_c, 4, 67, 57
4, 51720, Note_off_c, 4, 67, 64
4, 51720, Note_on_c, 4, 69, 58
4, 51840, Note_off_c, 4, 69, 64
4, 51840, Note_on_c, 4, 71, 58
4, 52200, Note_off_c, 4, 71, 64
4, 52200, Note_on_c, 4, 69, 59
4, 52320, Note_off_c, 4, 69, 64
4, 52320, Note_on_c, 4, 71, 59
4, 52680, Note_off_c, 4, 71, 64
4, 52680, Note_on_c, 4, 67, 60
4, 52800, Note_off_c, 4, 67, 64
4, 52800, Note_on_c, 4, 64, 60
4, 53160, Note_off_c, 4, 64, 64
4, 53160, Note_on_c, 4, 67, 61
4, 53280, Note_off_c, 4, 67, 64
4, 53280, Note_on_c, 4, 69, 61
4, 53640, Note_off_c, 4, 69, 64
4, 53640, Note_on_c, 4, 66, 62
4, 53760, Note_off_c, 4, 66, 64
4, 53760, Note_on_c, 4, 67, 62
4, 54120, Note_off_c, 4, 67, 64
4, 54120, Note_on_c, 4, 64, 63
4, 54240, Note_off_c, 4, 64, 64
4, 54240, Note_on_c, 4, 57, 63
4, 54600, Note_off_c, 4, 57, 64
4, 54600, Note_on_c, 4, 60, 65
4, 54720, Note_off_c, 4, 60, 64
4, 54720, Note_on_c, 4, 59, 65
4, 55080, Note_off_c, 4, 59, 64
4, 55080, Note_on_c, 4, 67, 67
4, 55200, Note_off_c, 4, 67, 64
4, 55200, Note_on_c, 4, 71, 67
4, 55560, Note_off_c, 4, 71, 64
4, 55560, Note_on_c, 4, 74, 70
4, 55680, Note_off_c, 4, 74, 64
4, 55680, Note_on_c, 4, 79, 71
4, 56040, Note_off_c, 4, 79, 64
4, 56040, Note_on_c, 4, 67, 74
4, 56160, Note_off_c, 4, 67, 64
4, 56160, Note_on_c, 4, 69, 75
4, 56520, Note_off_c, 4, 69, 64
4, 56520, Note_on_c, 4, 67, 75
4, 56640, Note_off_c, 4, 67, 64
4, 56640, Note_on_c, 4, 69, 75
4, 57000, Note_off_c, 4, 69, 64
4, 57000, Note_on_c, 4, 74, 75
4, 57120, Note_off_c, 4, 74, 64
4, 57120, Note_on_c, 4, 62, 75
4, 57480, Note_off_c, 4, 62, 64
4, 57480, Note_on_c, 4, 60, 75
4, 57600, Note_off_c, 4, 60, 64
4, 57600, Note_on_c, 4, 60, 75
4, 57960, Note_off_c, 4, 60, 64
4, 57960, Note_on_c, 4, 62, 75
4, 58080, Note_off_c, 4, 62, 64
4, 58080, Note_on_c, 4, 64, 75
4, 58440, Note_off_c, 4, 64, 64
4, 58440, Note_on_c, 4, 60, 75
4, 58560, Note_off_c, 4, 60, 64
4, 58560, Note_on_c, 4, 57, 75
4, 58920, Note_off_c, 4, 57, 64
4, 58920, Note_on_c, 4, 60, 75
4, 59040, Note_off_c, 4, 60, 64
4, 59040, Note_on_c, 4, 62, 75
4, 59400, Note_off_c, 4, 62, 64
4, 59400, Note_on_c, 4, 65, 75
4, 59520, Note_off_c, 4, 65, 64
4, 59520, Note_on_c, 4, 64, 75
4, 59880, Note_off_c, 4, 64, 64
4, 59880, Note_on_c, 4, 62, 75
4, 60000, Note_off_c, 4, 62, 64
4, 60000, Note_on_c, 4, 59, 75
4, 60360, Note_off_c, 4, 59, 64
4, 60360, Note_on_c, 4, 62, 75
4, 60480, Note_off_c, 4, 62, 64
4, 60480, Note_on_c, 4, 60, 75
4, 60840, Note_off_c, 4, 60, 64
4, 60840, Note_on_c, 4, 64, 76
4, 60960, Note_off_c, 4, 64, 64
4, 60960, Note_on_c, 4, 69, 76
4, 61320, Note_off_c, 4, 69, 64
4, 61320, Note_on_c, 4, 68, 77
4, 61440, Note_off_c, 4, 68, 64
4, 61440, Note_on_c, 4, 69, 77
4, 61800, Note_off_c, 4, 69, 64
4, 61800, Note_on_c, 4, 71, 78
4, 61920, Note_off_c, 4, 71, 64
4, 61920, Note_on_c, 4, 72, 78
4, 62280, Note_off_c, 4, 72, 64
4, 62280, Note_on_c, 4, 71, 79
4, 62400, Note_off_c, 4, 71, 64
4, 62400, Note_on_c, 4, 72, 79
4, 62760, Note_off_c, 4, 72, 64
4, 62760, Note_on_c, 4, 69, 80
4, 62880, Note_off_c, 4, 69, 64
4, 62880, Note_on_c, 4, 65, 80
4, 63240, Note_off_c, 4, 65, 64
4, 63240, Note_on_c, 4, 69, 82
4, 63360, Note_off_c, 4, 69, 64
4, 63360, Note_on_c, 4, 69, 82
4, 63720, Note_off_c, 4, 69, 64
4, 63720, Note_on_c, 4, 68, 84
4, 63840, Note_off_c, 4, 68, 64
4, 63840, Note_on_c, 4, 69, 84
4, 64200, Note_off_c, 4, 69, 64
4, 64200, Note_on_c, 4, 66, 87
4, 64320, Note_off_c, 4, 66, 64
4, 64320, Note_on_c, 4, 59, 88
4, 64680, Note_off_c, 4, 59, 64
4, 64680, Note_on_c, 4, 62, 91
4, 64800, Note_off_c, 4, 62, 64
4, 64800, Note_on_c, 4, 60, 92
4, 65280, Note_off_c, 4, 60, 64
4, 66720, Note_on_c, 4, 72, 92
4, 67080, Note_off_c, 4, 72, 64
4, 67080, Note_on_c, 4, 74, 92
4, 67200, Note_off_c, 4, 74, 64
4, 67200, Note_on_c, 4, 76, 92
4, 67560, Note_off_c, 4, 76, 64
4, 67560, Note_on_c, 4, 72, 92
4, 67680, Note_off_c, 4, 72, 64
4, 67680, Note_on_c, 4, 65, 92
4, 68040, Note_off_c, 4, 65, 64
4, 68040, Note_on_c, 4, 67, 92
4, 68160, Note_off_c, 4, 67, 64
4, 68160, Note_on_c, 4, 69, 92
4, 68520, Note_off_c, 4, 69, 64
4, 68520, Note_on_c, 4, 74, 92
4, 68640, Note_off_c, 4, 74, 64
4, 68640, Note_on_c, 4, 71, 92
4, 69000, Note_off_c, 4, 71, 64
4, 69000, Note_on_c, 4, 74, 92
4, 69120, Note_off_c, 4, 74, 64
4, 69120, Note_on_c, 4, 72, 92
4, 69480, Note_off_c, 4, 72, 64
4, 69480, Note_on_c, 4, 67, 92
4, 69600, Note_off_c, 4, 67, 64
4, 69600, Note_on_c, 4, 72, 92
4, 69960, Note_off_c, 4, 72, 64
4, 69960, Note_on_c, 4, 67, 92
4, 70080, Note_off_c, 4, 67, 64
4, 70080, Note_on_c, 4, 64, 92
4, 70440, Note_off_c, 4, 64, 64
4, 70440, Note_on_c, 4, 62, 84
4, 70560, Note_off_c, 4, 62, 64
4, 70560, Note_on_c, 4, 60, 82
4, 70920, Note_off_c, 4, 60, 64
4, 70920, Note_on_c, 4, 64, 74
4, 71040, Note_off_c, 4, 64, 64
4, 71040, Note_on_c, 4, 65, 72
4, 71400, Note_off_c, 4, 65, 64
4, 71400, Note_on_c, 4, 69, 63
4, 71520, Note_off_c, 4, 69, 64
4, 71520, Note_on_c, 4, 71, 60
4, 71880, Note_off_c, 4, 71, 64
4, 71880, Note_on_c, 4, 74, 60
4, 72000, Note_off_c, 4, 74, 64
4, 72000, Note_on_c, 4, 72, 60
4, 72360, Note_off_c, 4, 72, 64
4, 72360, Note_on_c, 4, 67, 60
4, 72480, Note_off_c, 4, 67, 64
4, 72480, Note_on_c, 4, 72, 60
4, 72840, Note_off_c, 4, 72, 64
4, 72840, Note_on_c, 4, 69, 60
4, 72960, Note_off_c, 4, 69, 64
4, 72960, Note_on_c, 4, 74, 45
4, 73320, Note_off_c, 4, 74, 64
4, 73320, Note_on_c, 4, 66, 45
4, 73440, Note_off_c, 4, 66, 64
4, 73440, Note_on_c, 4, 67, 45
4, 73800, Note_off_c, 4, 67, 64
4, 73800, Note_on_c, 4, 62, 45
4, 73920, Note_off_c, 4, 62, 64
4, 73920, Note_on_c, 4, 67, 45
4, 74280, Note_off_c, 4, 67, 64
4, 74280, Note_on_c, 4, 66, 45
4, 74400, Note_off_c, 4, 66, 64
4, 74400, Note_on_c, 4, 67, 45
4, 74760, Note_off_c, 4, 67, 64
4, 74760, Note_on_c, 4, 69, 45
4, 74880, Note_off_c, 4, 69, 64
4, 74880, Note_on_c, 4, 71, 45
4, 75240, Note_off_c, 4, 71, 64
4, 75240, Note_on_c, 4, 69, 45
4, 75360, Note_off_c, 4, 69, 64
4, 75360, Note_on_c, 4, 71, 45
4, 75720, Note_off_c, 4, 71, 64
4, 75720, Note_on_c, 4, 67, 45
4, 75840, Note_off_c, 4, 67, 64
4, 75840, Note_on_c, 4, 64, 45
4, 76200, Note_off_c, 4, 64, 64
4, 76200, Note_on_c, 4, 62, 45
4, 76320, Note_off_c, 4, 62, 64
4, 76320, Note_on_c, 4, 64, 45
4, 76680, Note_off_c, 4, 64, 64
4, 76680, Note_on_c, 4, 66, 45
4, 76800, Note_off_c, 4, 66, 64
4, 76800, Note_on_c, 4, 67, 45
4, 77160, Note_off_c, 4, 67, 64
4, 77160, Note_on_c, 4, 62, 45
4, 77280, Note_off_c, 4, 62, 64
4, 77280, Note_on_c, 4, 64, 45
4, 77640, Note_off_c, 4, 64, 64
4, 77640, Note_on_c, 4, 59, 45
4, 77760, Note_off_c, 4, 59, 64
4, 77760, Note_on_c, 4, 57, 45
4, 78120, Note_off_c, 4, 57, 64
4, 78120, Note_on_c, 4, 61, 45
4, 78240, Note_off_c, 4, 61, 64
4, 78240, Note_on_c, 4, 62, 45
4, 78600, Note_off_c, 4, 62, 64
4, 78600, Note_on_c, 4, 64, 45
4, 78720, Note_off_c, 4, 64, 64
4, 78720, Note_on_c, 4, 66, 45
4, 79080, Note_off_c, 4, 66, 64
4, 79080, Note_on_c, 4, 67, 45
4, 79200, Note_off_c, 4, 67, 64
4, 79200, Note_on_c, 4, 69, 45
4, 79560, Note_off_c, 4, 69, 64
4, 79560, Note_on_c, 4, 72, 45
4, 79680, Note_off_c, 4, 72, 64
4, 79680, Note_on_c, 4, 69, 45
4, 80040, Note_off_c, 4, 69, 64
4, 80040, Note_on_c, 4, 66, 45
4, 80160, Note_off_c, 4, 66, 64
4, 80160, Note_on_c, 4, 62, 45
4, 80520, Note_off_c, 4, 62, 64
4, 80520, Note_on_c, 4, 66, 45
4, 80640, Note_off_c, 4, 66, 64
4, 80640, Note_on_c, 4, 67, 45
4, 81000, Note_off_c, 4, 67, 64
4, 81000, Note_on_c, 4, 62, 45
4, 81120, Note_off_c, 4, 62, 64
4, 81120, Note_on_c, 4, 67, 45
4, 81480, Note_off_c, 4, 67, 64
4, 81480, Note_on_c, 4, 66, 45
4, 81600, Note_off_c, 4, 66, 64
4, 81600, Note_on_c, 4, 67, 45
4, 81960, Note_off_c, 4, 67, 64
4, 81960, Note_on_c, 4, 69, 45
4, 82080, Note_off_c, 4, 69, 64
4, 82080, Note_on_c, 4, 71, 45
4, 82440, Note_off_c, 4, 71, 64
4, 82440, Note_on_c, 4, 69, 45
4, 82560, Note_off_c, 4, 69, 64
4, 82560, Note_on_c, 4, 67, 45
4, 82920, Note_off_c, 4, 67, 64
4, 82920, Note_on_c, 4, 66, 45
4, 83040, Note_off_c, 4, 66, 64
4, 83040, Note_on_c, 4, 64, 45
4, 83400, Note_off_c, 4, 64, 64
4, 83400, Note_on_c, 4, 67, 45
4, 83520, Note_off_c, 4, 67, 64
4, 83520, Note_on_c, 4, 69, 45
4, 83880, Note_off_c, 4, 69, 64
4, 83880, Note_on_c, 4, 67, 45
4, 84000, Note_off_c, 4, 67, 64
4, 84000, Note_on_c, 4, 66, 45
4, 84360, Note_off_c, 4, 66, 64
4, 84360, Note_on_c, 4, 67, 45
4, 84480, Note_off_c, 4, 67, 64
4, 84480, Note_on_c, 4, 69, 45
4, 84840, Note_off_c, 4, 69, 64
4, 84840, Note_on_c, 4, 60, 45
4, 84960, Note_off_c, 4, 60, 64
4, 84960, Note_on_c, 4, 59, 45
4, 85320, Note_off_c, 4, 59, 64
4, 85320, Note_on_c, 4, 67, 45
4, 85440, Note_off_c, 4, 67, 64
4, 85440, Note_on_c, 4, 71, 45
4, 85800, Note_off_c, 4, 71, 64
4, 85800, Note_on_c, 4, 74, 45
4, 85920, Note_off_c, 4, 74, 64
4, 85920, Note_on_c, 4, 79, 45
4, 86280, Note_off_c, 4, 79, 64
4, 86280, Note_on_c, 4, 74, 45
4, 86400, Note_off_c, 4, 74, 64
4, 86400, Note_on_c, 4, 71, 45
4, 86760, Note_off_c, 4, 71, 64
4, 86760, Note_on_c, 4, 67, 45
4, 86880, Note_off_c, 4, 67, 64
4, 86880, Note_on_c, 4, 74, 45
4, 87240, Note_off_c, 4, 74, 64
4, 87240, Note_on_c, 4, 71, 45
4, 87360, Note_off_c, 4, 71, 64
4, 87360, Note_on_c, 4, 72, 45
4, 88200, Note_off_c, 4, 72, 64
4, 88200, Note_on_c, 4, 69, 45
4, 88320, Note_off_c, 4, 69, 64
4, 88320, Note_on_c, 4, 71, 45
4, 89160, Note_off_c, 4, 71, 64
4, 89160, Note_on_c, 4, 67, 45
4, 89280, Note_off_c, 4, 67, 64
4, 89280, Note_on_c, 4, 69, 45
4, 90120, Note_off_c, 4, 69, 64
4, 90120, Note_on_c, 4, 66, 45
4, 90240, Note_off_c, 4, 66, 64
4, 90240, Note_on_c, 4, 62, 45
4, 90600, Note_off_c, 4, 62, 64
4, 90600, Note_on_c, 4, 66, 45
4, 90720, Note_off_c, 4, 66, 64
4, 90720, Note_on_c, 4, 67, 45
4, 91080, Note_off_c, 4, 67, 64
4, 91080, Note_on_c, 4, 62, 45
4, 91200, Note_off_c, 4, 62, 64
4, 91200, Note_on_c, 4, 67, 45
4, 91560, Note_off_c, 4, 67, 64
4, 91560, Note_on_c, 4, 66, 45
4, 91680, Note_off_c, 4, 66, 64
4, 91680, Note_on_c, 4, 67, 45
4, 92040, Note_off_c, 4, 67, 64
4, 92040, Note_on_c, 4, 69, 45
4, 92160, Note_off_c, 4, 69, 64
4, 92160, Note_on_c, 4, 71, 45
4, 92520, Note_off_c, 4, 71, 64
4, 92520, Note_on_c, 4, 69, 45
4, 92640, Note_off_c, 4, 69, 64
4, 92640, Note_on_c, 4, 71, 45
4, 93000, Note_off_c, 4, 71, 64
4, 93000, Note_on_c, 4, 67, 45
4, 93120, Note_off_c, 4, 67, 64
4, 93120, Note_on_c, 4, 64, 45
4, 93480, Note_off_c, 4, 64, 64
4, 93480, Note_on_c, 4, 62, 45
4, 93600, Note_off_c, 4, 62, 64
4, 93600, Note_on_c, 4, 64, 45
4, 93960, Note_off_c, 4, 64, 64
4, 93960, Note_on_c, 4, 66, 45
4, 94080, Note_off_c, 4, 66, 64
4, 94080, Note_on_c, 4, 67, 45
4, 94440, Note_off_c, 4, 67, 64
4, 94440, Note_on_c, 4, 62, 45
4, 94560, Note_off_c, 4, 62, 64
4, 94560, Note_on_c, 4, 64, 45
4, 94920, Note_off_c, 4, 64, 64
4, 94920, Note_on_c, 4, 59, 45
4, 95040, Note_off_c, 4, 59, 64
4, 95040, Note_on_c, 4, 57, 45
4, 95400, Note_off_c, 4, 57, 64
4, 95400, Note_on_c, 4, 62, 45
4, 95520, Note_off_c, 4, 62, 64
4, 95520, Note_on_c, 4, 69, 45
4, 95880, Note_off_c, 4, 69, 64
4, 95880, Note_on_c, 4, 67, 45
4, 96000, Note_off_c, 4, 67, 64
4, 96000, Note_on_c, 4, 69, 45
4, 96360, Note_off_c, 4, 69, 64
4, 96360, Note_on_c, 4, 66, 45
4, 96480, Note_off_c, 4, 66, 64
4, 96480, Note_on_c, 4, 62, 45
4, 96840, Note_off_c, 4, 62, 64
4, 96840, Note_on_c, 4, 66, 45
4, 96960, Note_off_c, 4, 66, 64
4, 96960, Note_on_c, 4, 67, 45
4, 97320, Note_off_c, 4, 67, 64
4, 97320, Note_on_c, 4, 66, 45
4, 97440, Note_off_c, 4, 66, 64
4, 97440, Note_on_c, 4, 67, 45
4, 97800, Note_off_c, 4, 67, 64
4, 97800, Note_on_c, 4, 69, 45
4, 97920, Note_off_c, 4, 69, 64
4, 97920, Note_on_c, 4, 71, 45
4, 98280, Note_off_c, 4, 71, 64
4, 98280, Note_on_c, 4, 69, 45
4, 98400, Note_off_c, 4, 69, 64
4, 98400, Note_on_c, 4, 71, 45
4, 98760, Note_off_c, 4, 71, 64
4, 98760, Note_on_c, 4, 67, 45
4, 98880, Note_off_c, 4, 67, 64
4, 98880, Note_on_c, 4, 64, 45
4, 99240, Note_off_c, 4, 64, 64
4, 99240, Note_on_c, 4, 67, 45
4, 99360, Note_off_c, 4, 67, 64
4, 99360, Note_on_c, 4, 69, 45
4, 99720, Note_off_c, 4, 69, 64
4, 99720, Note_on_c, 4, 66, 45
4, 99840, Note_off_c, 4, 66, 64
4, 99840, Note_on_c, 4, 67, 45
4, 100200, Note_off_c, 4, 67, 64
4, 100200, Note_on_c, 4, 64, 45
4, 100320, Note_off_c, 4, 64, 64
4, 100320, Note_on_c, 4, 57, 45
4, 100680, Note_off_c, 4, 57, 64
4, 100680, Note_on_c, 4, 60, 45
4, 100800, Note_off_c, 4, 60, 64
4, 100800, Note_on_c, 4, 59, 45
4, 102240, Note_off_c, 4, 59, 64
4, 102240, End_track
5, 0, Start_track
5, 0, MIDI_port, 0
5, 0, Channel_prefix, 6
5, 0, Control_c, 6, 7, 127
5, 0, Control_c, 6, 10, 55
5, 0, Control_c, 6, 91, 127
5, 0, Program_c, 6, 48
5, 480, Program_c, 6, 48
5, 480, Note_on_c, 6, 62, 45
5, 960, Note_off_c, 6, 62, 64
5, 960, Note_on_c, 6, 64, 45
5, 1440, Note_off_c, 6, 64, 64
5, 1440, Note_on_c, 6, 67, 45
5, 1920, Note_off_c, 6, 67, 64
5, 1920, Note_on_c, 6, 64, 45
5, 2400, Note_off_c, 6, 64, 64
5, 2400, Note_on_c, 6, 59, 45
5, 2880, Note_off_c, 6, 59, 64
5, 2880, Note_on_c, 6, 57, 45
5, 3360, Note_off_c, 6, 57, 64
5, 3360, Note_on_c, 6, 62, 45
5, 3840, Note_off_c, 6, 62, 64
5, 3840, Note_on_c, 6, 60, 45
5, 4800, Note_off_c, 6, 60, 64
5, 4800, Note_on_c, 6, 57, 45
5, 5280, Note_off_c, 6, 57, 64
5, 5280, Note_on_c, 6, 66, 45
5, 5760, Note_off_c, 6, 66, 64
5, 5760, Note_on_c, 6, 67, 45
5, 6240, Note_off_c, 6, 67, 64
5, 6240, Note_on_c, 6, 55, 45
5, 6720, Note_off_c, 6, 55, 64
5, 6720, Note_on_c, 6, 64, 45
5, 7200, Note_off_c, 6, 64, 64
5, 7200, Note_on_c, 6, 67, 45
5, 7680, Note_off_c, 6, 67, 64
5, 7680, Note_on_c, 6, 64, 45
5, 8160, Note_off_c, 6, 64, 64
5, 8160, Note_on_c, 6, 59, 45
5, 8640, Note_off_c, 6, 59, 64
5, 8640, Note_on_c, 6, 60, 45
5, 9120, Note_off_c, 6, 60, 64
5, 9120, Note_on_c, 6, 64, 45
5, 9600, Note_off_c, 6, 64, 64
5, 9600, Note_on_c, 6, 62, 45
5, 10080, Note_off_c, 6, 62, 64
5, 10080, Note_on_c, 6, 62, 45
5, 10560, Note_off_c, 6, 62, 64
5, 10920, Note_on_c, 6, 62, 45
5, 11005, Note_off_c, 6, 62, 64
5, 11040, Note_on_c, 6, 59, 45
5, 11400, Note_off_c, 6, 59, 64
5, 11400, Note_on_c, 6, 67, 45
5, 11485, Note_off_c, 6, 67, 64
5, 11520, Note_on_c, 6, 62, 45
5, 12000, Note_off_c, 6, 62, 64
5, 16320, Note_on_c, 6, 57, 45
5, 16680, Note_off_c, 6, 57, 64
5, 16680, Note_on_c, 6, 57, 45
5, 16800, Note_off_c, 6, 57, 64
5, 16800, Note_on_c, 6, 62, 45
5, 17160, Note_off_c, 6, 62, 64
5, 17160, Note_on_c, 6, 62, 45
5, 17280, Note_off_c, 6, 62, 64
5, 17280, Note_on_c, 6, 66, 45
5, 17640, Note_off_c, 6, 66, 64
5, 17640, Note_on_c, 6, 69, 45
5, 17760, Note_off_c, 6, 69, 64
5, 17760, Note_on_c, 6, 66, 45
5, 18120, Note_off_c, 6, 66, 64
5, 18120, Note_on_c, 6, 62, 45
5, 18240, Note_off_c, 6, 62, 64
5, 18240, Note_on_c, 6, 57, 45
5, 18600, Note_off_c, 6, 57, 64
5, 18600, Note_on_c, 6, 62, 45
5, 18720, Note_off_c, 6, 62, 64
5, 18720, Note_on_c, 6, 62, 45
5, 19200, Note_off_c, 6, 62, 64
5, 19200, Note_on_c, 6, 62, 45
5, 19680, Note_off_c, 6, 62, 64
5, 19680, Note_on_c, 6, 64, 45
5, 20160, Note_off_c, 6, 64, 64
5, 20160, Note_on_c, 6, 67, 45
5, 20640, Note_off_c, 6, 67, 64
5, 20640, Note_on_c, 6, 62, 45
5, 21120, Note_off_c, 6, 62, 64
5, 21120, Note_on_c, 6, 59, 45
5, 21600, Note_off_c, 6, 59, 64
5, 21600, Note_on_c, 6, 60, 45
5, 21840, Note_off_c, 6, 60, 64
5, 21840, Note_on_c, 6, 57, 45
5, 22080, Note_off_c, 6, 57, 64
5, 22080, Note_on_c, 6, 62, 45
5, 22320, Note_off_c, 6, 62, 64
5, 22320, Note_on_c, 6, 59, 45
5, 22560, Note_off_c, 6, 59, 64
5, 22560, Note_on_c, 6, 60, 45
5, 22800, Note_off_c, 6, 60, 64
5, 22800, Note_on_c, 6, 57, 45
5, 23040, Note_off_c, 6, 57, 64
5, 23040, Note_on_c, 6, 59, 45
5, 23520, Note_off_c, 6, 59, 64
5, 23520, Note_on_c, 6, 62, 45
5, 24000, Note_off_c, 6, 62, 64
5, 24000, Note_on_c, 6, 64, 45
5, 24480, Note_off_c, 6, 64, 64
5, 24480, Note_on_c, 6, 67, 45
5, 24960, Note_off_c, 6, 67, 64
5, 24960, Note_on_c, 6, 64, 45
5, 25440, Note_off_c, 6, 64, 64
5, 25440, Note_on_c, 6, 59, 45
5, 25920, Note_off_c, 6, 59, 64
5, 25920, Note_on_c, 6, 57, 45
5, 26400, Note_off_c, 6, 57, 64
5, 26400, Note_on_c, 6, 62, 45
5, 26880, Note_off_c, 6, 62, 64
5, 26880, Note_on_c, 6, 60, 45
5, 27840, Note_off_c, 6, 60, 64
5, 27840, Note_on_c, 6, 57, 45
5, 28320, Note_off_c, 6, 57, 64
5, 28320, Note_on_c, 6, 66, 45
5, 28800, Note_off_c, 6, 66, 64
5, 28800, Note_on_c, 6, 67, 45
5, 29280, Note_off_c, 6, 67, 64
5, 29280, Note_on_c, 6, 55, 45
5, 29760, Note_off_c, 6, 55, 64
5, 29760, Note_on_c, 6, 64, 45
5, 30240, Note_off_c, 6, 64, 64
5, 30240, Note_on_c, 6, 67, 45
5, 30720, Note_off_c, 6, 67, 64
5, 30720, Note_on_c, 6, 64, 45
5, 31200, Note_off_c, 6, 64, 64
5, 31200, Note_on_c, 6, 59, 45
5, 31680, Note_off_c, 6, 59, 64
5, 31680, Note_on_c, 6, 60, 45
5, 32160, Note_off_c, 6, 60, 64
5, 32160, Note_on_c, 6, 64, 45
5, 32640, Note_off_c, 6, 64, 64
5, 32640, Note_on_c, 6, 62, 45
5, 33120, Note_off_c, 6, 62, 64
5, 33120, Note_on_c, 6, 62, 45
5, 33600, Note_off_c, 6, 62, 64
5, 37920, Note_on_c, 6, 57, 45
5, 38280, Note_off_c, 6, 57, 64
5, 38280, Note_on_c, 6, 57, 45
5, 38400, Note_off_c, 6, 57, 64
5, 38400, Note_on_c, 6, 62, 45
5, 38760, Note_off_c, 6, 62, 64
5, 38760, Note_on_c, 6, 62, 45
5, 38880, Note_off_c, 6, 62, 64
5, 38880, Note_on_c, 6, 66, 45
5, 39240, Note_off_c, 6, 66, 64
5, 39240, Note_on_c, 6, 69, 45
5, 39360, Note_off_c, 6, 69, 64
5, 39360, Note_on_c, 6, 66, 45
5, 39720, Note_off_c, 6, 66, 64
5, 39720, Note_on_c, 6, 62, 45
5, 39840, Note_off_c, 6, 62, 64
5, 39840, Note_on_c, 6, 57, 45
5, 40200, Note_off_c, 6, 57, 64
5, 40200, Note_on_c, 6, 62, 45
5, 40320, Note_off_c, 6, 62, 64
5, 40320, Note_on_c, 6, 62, 45
5, 40800, Note_off_c, 6, 62, 64
5, 40800, Note_on_c, 6, 62, 45
5, 41280, Note_off_c, 6, 62, 64
5, 41280, Note_on_c, 6, 64, 45
5, 41760, Note_off_c, 6, 64, 64
5, 41760, Note_on_c, 6, 67, 45
5, 42240, Note_off_c, 6, 67, 64
5, 42240, Note_on_c, 6, 62, 45
5, 42720, Note_off_c, 6, 62, 64
5, 42720, Note_on_c, 6, 59, 45
5, 43200, Note_off_c, 6, 59, 64
5, 43200, Note_on_c, 6, 60, 45
5, 43440, Note_off_c, 6, 60, 64
5, 43440, Note_on_c, 6, 57, 45
5, 43680, Note_off_c, 6, 57, 64
5, 43680, Note_on_c, 6, 62, 45
5, 43920, Note_off_c, 6, 62, 64
5, 43920, Note_on_c, 6, 59, 45
5, 44160, Note_off_c, 6, 59, 64
5, 44160, Note_on_c, 6, 60, 45
5, 44400, Note_off_c, 6, 60, 64
5, 44400, Note_on_c, 6, 57, 45
5, 44640, Note_off_c, 6, 57, 64
5, 44640, Note_on_c, 6, 59, 45
5, 45120, Note_off_c, 6, 59, 64
5, 45120, Note_on_c, 6, 62, 46
5, 45600, Note_off_c, 6, 62, 64
5, 45600, Note_on_c, 6, 64, 47
5, 46080, Note_off_c, 6, 64, 64
5, 46080, Note_on_c, 6, 67, 48
5, 46560, Note_off_c, 6, 67, 64
5, 46560, Note_on_c, 6, 64, 49
5, 47040, Note_off_c, 6, 64, 64
5, 47040, Note_on_c, 6, 59, 50
5, 47520, Note_off_c, 6, 59, 64
5, 47520, Note_on_c, 6, 57, 51
5, 48000, Note_off_c, 6, 57, 64
5, 48000, Note_on_c, 6, 62, 52
5, 48480, Note_off_c, 6, 62, 64
5, 48480, Note_on_c, 6, 60, 53
5, 49440, Note_off_c, 6, 60, 64
5, 49440, Note_on_c, 6, 57, 55
5, 49920, Note_off_c, 6, 57, 64
5, 49920, Note_on_c, 6, 66, 56
5, 50400, Note_off_c, 6, 66, 64
5, 50400, Note_on_c, 6, 67, 57
5, 50880, Note_off_c, 6, 67, 64
5, 50880, Note_on_c, 6, 55, 58
5, 51360, Note_off_c, 6, 55, 64
5, 51360, Note_on_c, 6, 64, 59
5, 51840, Note_off_c, 6, 64, 64
5, 51840, Note_on_c, 6, 67, 60
5, 52320, Note_off_c, 6, 67, 64
5, 52320, Note_on_c, 6, 64, 61
5, 52800, Note_off_c, 6, 64, 64
5, 52800, Note_on_c, 6, 59, 62
5, 53280, Note_off_c, 6, 59, 64
5, 53280, Note_on_c, 6, 60, 63
5, 53760, Note_off_c, 6, 60, 64
5, 53760, Note_on_c, 6, 64, 65
5, 54240, Note_off_c, 6, 64, 64
5, 54240, Note_on_c, 6, 62, 67
5, 54720, Note_off_c, 6, 62, 64
5, 54720, Note_on_c, 6, 62, 69
5, 55200, Note_off_c, 6, 62, 64
5, 55560, Note_on_c, 6, 67, 72
5, 55645, Note_off_c, 6, 67, 64
5, 55680, Note_on_c, 6, 62, 72
5, 56040, Note_off_c, 6, 62, 64
5, 56040, Note_on_c, 6, 64, 74
5, 56125, Note_off_c, 6, 64, 64
5, 56160, Note_on_c, 6, 66, 75
5, 56640, Note_off_c, 6, 66, 64
5, 56640, Note_on_c, 6, 62, 75
5, 57120, Note_off_c, 6, 62, 64
5, 57120, Note_on_c, 6, 62, 75
5, 57600, Note_off_c, 6, 62, 64
5, 57600, Note_on_c, 6, 64, 75
5, 58080, Note_off_c, 6, 64, 64
5, 58080, Note_on_c, 6, 57, 75
5, 58560, Note_off_c, 6, 57, 64
5, 58560, Note_on_c, 6, 69, 75
5, 59520, Note_off_c, 6, 69, 64
5, 59520, Note_on_c, 6, 69, 75
5, 60000, Note_off_c, 6, 69, 64
5, 60000, Note_on_c, 6, 68, 75
5, 60480, Note_off_c, 6, 68, 64
5, 60480, Note_on_c, 6, 64, 75
5, 60960, Note_off_c, 6, 64, 64
5, 60960, Note_on_c, 6, 57, 76
5, 61440, Note_off_c, 6, 57, 64
5, 61440, Note_on_c, 6, 65, 78
5, 61920, Note_off_c, 6, 65, 64
5, 61920, Note_on_c, 6, 69, 80
5, 62400, Note_off_c, 6, 69, 64
5, 62400, Note_on_c, 6, 65, 82
5, 62880, Note_off_c, 6, 65, 64
5, 62880, Note_on_c, 6, 60, 84
5, 63360, Note_off_c, 6, 60, 64
5, 63360, Note_on_c, 6, 62, 86
5, 63840, Note_off_c, 6, 62, 64
5, 63840, Note_on_c, 6, 66, 88
5, 64320, Note_off_c, 6, 66, 64
5, 64320, Note_on_c, 6, 64, 90
5, 64800, Note_off_c, 6, 64, 64
5, 64800, Note_on_c, 6, 64, 92
5, 65280, Note_off_c, 6, 64, 64
5, 66720, Note_on_c, 6, 69, 92
5, 67200, Note_off_c, 6, 69, 64
5, 67200, Note_on_c, 6, 67, 92
5, 67680, Note_off_c, 6, 67, 64
5, 67680, Note_on_c, 6, 62, 92
5, 68160, Note_off_c, 6, 62, 64
5, 68160, Note_on_c, 6, 65, 92
5, 68640, Note_off_c, 6, 65, 64
5, 68640, Note_on_c, 6, 67, 92
5, 69120, Note_off_c, 6, 67, 64
5, 69120, Note_on_c, 6, 67, 92
5, 69600, Note_off_c, 6, 67, 64
5, 69600, Note_on_c, 6, 64, 92
5, 70080, Note_off_c, 6, 64, 64
5, 70080, Note_on_c, 6, 67, 92
5, 70560, Note_off_c, 6, 67, 64
5, 70560, Note_on_c, 6, 65, 82
5, 71040, Note_off_c, 6, 65, 64
5, 71040, Note_on_c, 6, 69, 71
5, 71520, Note_off_c, 6, 69, 64
5, 71520, Note_on_c, 6, 67, 60
5, 72000, Note_off_c, 6, 67, 64
5, 72000, Note_on_c, 6, 67, 60
5, 72480, Note_off_c, 6, 67, 64
5, 72840, Note_on_c, 6, 62, 60
5, 72925, Note_off_c, 6, 62, 64
5, 72960, Note_on_c, 6, 62, 45
5, 73320, Note_off_c, 6, 62, 64
5, 73320, Note_on_c, 6, 62, 45
5, 73405, Note_off_c, 6, 62, 64
5, 73440, Note_on_c, 6, 62, 45
5, 73920, Note_off_c, 6, 62, 64
5, 73920, Note_on_c, 6, 62, 45
5, 74400, Note_off_c, 6, 62, 64
5, 74400, Note_on_c, 6, 64, 45
5, 74880, Note_off_c, 6, 64, 64
5, 74880, Note_on_c, 6, 67, 45
5, 75360, Note_off_c, 6, 67, 64
5, 75360, Note_on_c, 6, 64, 45
5, 75840, Note_off_c, 6, 64, 64
5, 75840, Note_on_c, 6, 59, 45
5, 76320, Note_off_c, 6, 59, 64
5, 76320, Note_on_c, 6, 57, 45
5, 76800, Note_off_c, 6, 57, 64
5, 76800, Note_on_c, 6, 62, 45
5, 77280, Note_off_c, 6, 62, 64
5, 77280, Note_on_c, 6, 60, 45
5, 78240, Note_off_c, 6, 60, 64
5, 78240, Note_on_c, 6, 57, 45
5, 78600, Note_off_c, 6, 57, 64
5, 78600, Note_on_c, 6, 57, 45
5, 78720, Note_off_c, 6, 57, 64
5, 78720, Note_on_c, 6, 62, 45
5, 79080, Note_off_c, 6, 62, 64
5, 79080, Note_on_c, 6, 62, 45
5, 79200, Note_off_c, 6, 62, 64
5, 79200, Note_on_c, 6, 66, 45
5, 79560, Note_off_c, 6, 66, 64
5, 79560, Note_on_c, 6, 69, 45
5, 79680, Note_off_c, 6, 69, 64
5, 79680, Note_on_c, 6, 66, 45
5, 80040, Note_off_c, 6, 66, 64
5, 80040, Note_on_c, 6, 62, 45
5, 80160, Note_off_c, 6, 62, 64
5, 80160, Note_on_c, 6, 57, 45
5, 80520, Note_off_c, 6, 57, 64
5, 80520, Note_on_c, 6, 62, 45
5, 80640, Note_off_c, 6, 62, 64
5, 80640, Note_on_c, 6, 62, 45
5, 81120, Note_off_c, 6, 62, 64
5, 81120, Note_on_c, 6, 62, 45
5, 81600, Note_off_c, 6, 62, 64
5, 81600, Note_on_c, 6, 64, 45
5, 82080, Note_off_c, 6, 64, 64
5, 82080, Note_on_c, 6, 67, 45
5, 82560, Note_off_c, 6, 67, 64
5, 82560, Note_on_c, 6, 62, 45
5, 83040, Note_off_c, 6, 62, 64
5, 83040, Note_on_c, 6, 59, 45
5, 83520, Note_off_c, 6, 59, 64
5, 83520, Note_on_c, 6, 60, 45
5, 83760, Note_off_c, 6, 60, 64
5, 83760, Note_on_c, 6, 57, 45
5, 84000, Note_off_c, 6, 57, 64
5, 84000, Note_on_c, 6, 62, 45
5, 84240, Note_off_c, 6, 62, 64
5, 84240, Note_on_c, 6, 59, 45
5, 84480, Note_off_c, 6, 59, 64
5, 84480, Note_on_c, 6, 60, 45
5, 84720, Note_off_c, 6, 60, 64
5, 84720, Note_on_c, 6, 57, 45
5, 84960, Note_off_c, 6, 57, 64
5, 84960, Note_on_c, 6, 59, 45
5, 85440, Note_off_c, 6, 59, 64
5, 85800, Note_on_c, 6, 67, 45
5, 85885, Note_off_c, 6, 67, 64
5, 85920, Note_on_c, 6, 62, 45
5, 86280, Note_off_c, 6, 62, 64
5, 86280, Note_on_c, 6, 67, 45
5, 86365, Note_off_c, 6, 67, 64
5, 86400, Note_on_c, 6, 62, 45
5, 86880, Note_off_c, 6, 62, 64
5, 87240, Note_on_c, 6, 67, 45
5, 87325, Note_off_c, 6, 67, 64
5, 87360, Note_on_c, 6, 64, 45
5, 87720, Note_off_c, 6, 64, 64
5, 87720, Note_on_c, 6, 60, 45
5, 87805, Note_off_c, 6, 60, 64
5, 87840, Note_on_c, 6, 57, 45
5, 88320, Note_off_c, 6, 57, 64
5, 88680, Note_on_c, 6, 62, 45
5, 88765, Note_off_c, 6, 62, 64
5, 88800, Note_on_c, 6, 59, 45
5, 89160, Note_off_c, 6, 59, 64
5, 89160, Note_on_c, 6, 64, 45
5, 89280, Note_off_c, 6, 64, 64
5, 89280, Note_on_c, 6, 52, 45
5, 89640, Note_off_c, 6, 52, 64
5, 89640, Note_on_c, 6, 57, 45
5, 89760, Note_off_c, 6, 57, 64
5, 89760, Note_on_c, 6, 54, 45
5, 90120, Note_off_c, 6, 54, 64
5, 90120, Note_on_c, 6, 69, 45
5, 90240, Note_off_c, 6, 69, 64
5, 90240, Note_on_c, 6, 66, 45
5, 90600, Note_off_c, 6, 66, 64
5, 90600, Note_on_c, 6, 62, 45
5, 90720, Note_off_c, 6, 62, 64
5, 90720, Note_on_c, 6, 62, 45
5, 91200, Note_off_c, 6, 62, 64
5, 91200, Note_on_c, 6, 62, 45
5, 91680, Note_off_c, 6, 62, 64
5, 91680, Note_on_c, 6, 64, 45
5, 92160, Note_off_c, 6, 64, 64
5, 92160, Note_on_c, 6, 67, 45
5, 92640, Note_off_c, 6, 67, 64
5, 92640, Note_on_c, 6, 64, 45
5, 93120, Note_off_c, 6, 64, 64
5, 93120, Note_on_c, 6, 59, 45
5, 93600, Note_off_c, 6, 59, 64
5, 93600, Note_on_c, 6, 57, 45
5, 94080, Note_off_c, 6, 57, 64
5, 94080, Note_on_c, 6, 62, 45
5, 94560, Note_off_c, 6, 62, 64
5, 94560, Note_on_c, 6, 60, 45
5, 95520, Note_off_c, 6, 60, 64
5, 95520, Note_on_c, 6, 57, 45
5, 96000, Note_off_c, 6, 57, 64
5, 96000, Note_on_c, 6, 66, 45
5, 96480, Note_off_c, 6, 66, 64
5, 96480, Note_on_c, 6, 67, 45
5, 96960, Note_off_c, 6, 67, 64
5, 96960, Note_on_c, 6, 55, 45
5, 97440, Note_off_c, 6, 55, 64
5, 97440, Note_on_c, 6, 64, 45
5, 97920, Note_off_c, 6, 64, 64
5, 97920, Note_on_c, 6, 67, 45
5, 98400, Note_off_c, 6, 67, 64
5, 98400, Note_on_c, 6, 64, 45
5, 98880, Note_off_c, 6, 64, 64
5, 98880, Note_on_c, 6, 59, 45
5, 99360, Note_off_c, 6, 59, 64
5, 99360, Note_on_c, 6, 60, 45
5, 99840, Note_off_c, 6, 60, 64
5, 99840, Note_on_c, 6, 64, 45
5, 100320, Note_off_c, 6, 64, 64
5, 100320, Note_on_c, 6, 62, 45
5, 100800, Note_off_c, 6, 62, 64
5, 100800, Note_on_c, 6, 62, 45
5, 102240, Note_off_c, 6, 62, 64
5, 102240, End_track
6, 0, Start_track
6, 0, Title_t, "arr : G. Pollen (1999)"
6, 0, MIDI_port, 0
6, 0, Channel_prefix, 8
6, 0, Control_c, 8, 7, 127
6, 0, Control_c, 8, 10, 30
6, 0, Control_c, 8, 91, 125
6, 0, Program_c, 8, 52
6, 11520, Note_on_c, 8, 71, 60
6, 12480, Note_off_c, 8, 71, 64
6, 12480, Note_on_c, 8, 72, 60
6, 12960, Note_off_c, 8, 72, 64
6, 12960, Note_on_c, 8, 74, 60
6, 13920, Note_off_c, 8, 74, 64
6, 13920, Note_on_c, 8, 74, 60
6, 14400, Note_off_c, 8, 74, 64
6, 14400, Note_on_c, 8, 72, 60
6, 15360, Note_off_c, 8, 72, 64
6, 15360, Note_on_c, 8, 71, 60
6, 15840, Note_off_c, 8, 71, 64
6, 15840, Note_on_c, 8, 69, 60
6, 16320, Note_off_c, 8, 69, 64
6, 16320, Note_on_c, 8, 69, 60
6, 16720, Note_off_c, 8, 69, 64
6, 18720, Note_on_c, 8, 71, 60
6, 19680, Note_off_c, 8, 71, 64
6, 19680, Note_on_c, 8, 72, 60
6, 20160, Note_off_c, 8, 72, 64
6, 20160, Note_on_c, 8, 74, 60
6, 21120, Note_off_c, 8, 74, 64
6, 21120, Note_on_c, 8, 71, 60
6, 21600, Note_off_c, 8, 71, 64
6, 21600, Note_on_c, 8, 69, 60
6, 21840, Note_off_c, 8, 69, 64
6, 21840, Note_on_c, 8, 71, 60
6, 21960, Note_off_c, 8, 71, 64
6, 21960, Note_on_c, 8, 72, 60
6, 22080, Note_off_c, 8, 72, 64
6, 22080, Note_on_c, 8, 71, 60
6, 22560, Note_off_c, 8, 71, 64
6, 22560, Note_on_c, 8, 69, 60
6, 23040, Note_off_c, 8, 69, 64
6, 23040, Note_on_c, 8, 67, 60
6, 23880, Note_off_c, 8, 67, 64
6, 33120, Note_on_c, 8, 71, 60
6, 34080, Note_off_c, 8, 71, 64
6, 34080, Note_on_c, 8, 72, 60
6, 34560, Note_off_c, 8, 72, 64
6, 34560, Note_on_c, 8, 74, 60
6, 35520, Note_off_c, 8, 74, 64
6, 35520, Note_on_c, 8, 74, 60
6, 36000, Note_off_c, 8, 74, 64
6, 36000, Note_on_c, 8, 72, 60
6, 36960, Note_off_c, 8, 72, 64
6, 36960, Note_on_c, 8, 71, 60
6, 37440, Note_off_c, 8, 71, 64
6, 37440, Note_on_c, 8, 69, 60
6, 37920, Note_off_c, 8, 69, 64
6, 37920, Note_on_c, 8, 69, 60
6, 38320, Note_off_c, 8, 69, 64
6, 40320, Note_on_c, 8, 71, 60
6, 41280, Note_off_c, 8, 71, 64
6, 41280, Note_on_c, 8, 72, 60
6, 41760, Note_off_c, 8, 72, 64
6, 41760, Note_on_c, 8, 74, 60
6, 42720, Note_off_c, 8, 74, 64
6, 42720, Note_on_c, 8, 71, 60
6, 43200, Note_off_c, 8, 71, 64
6, 43200, Note_on_c, 8, 69, 60
6, 43440, Note_off_c, 8, 69, 64
6, 43440, Note_on_c, 8, 71, 60
6, 43560, Note_off_c, 8, 71, 64
6, 43560, Note_on_c, 8, 72, 60
6, 43680, Note_off_c, 8, 72, 64
6, 43680, Note_on_c, 8, 71, 60
6, 44160, Note_off_c, 8, 71, 64
6, 44160, Note_on_c, 8, 69, 60
6, 44640, Note_off_c, 8, 69, 64
6, 44640, Note_on_c, 8, 67, 60
6, 45480, Note_off_c, 8, 67, 64
6, 56160, Note_on_c, 8, 69, 75
6, 57120, Note_off_c, 8, 69, 64
6, 57120, Note_on_c, 8, 71, 75
6, 57600, Note_off_c, 8, 71, 64
6, 57600, Note_on_c, 8, 72, 75
6, 58560, Note_off_c, 8, 72, 64
6, 58560, Note_on_c, 8, 72, 75
6, 59040, Note_off_c, 8, 72, 64
6, 59040, Note_on_c, 8, 71, 75
6, 59760, Note_off_c, 8, 71, 64
6, 59760, Note_on_c, 8, 72, 75
6, 59880, Note_off_c, 8, 72, 64
6, 59880, Note_on_c, 8, 74, 75
6, 60000, Note_off_c, 8, 74, 64
6, 60000, Note_on_c, 8, 71, 75
6, 60480, Note_off_c, 8, 71, 64
6, 60480, Note_on_c, 8, 69, 75
6, 60960, Note_off_c, 8, 69, 64
6, 60960, Note_on_c, 8, 69, 75
6, 61360, Note_off_c, 8, 69, 64
6, 64800, Note_on_c, 8, 72, 92
6, 65760, Note_off_c, 8, 72, 64
6, 65760, Note_on_c, 8, 74, 92
6, 66240, Note_off_c, 8, 74, 64
6, 66240, Note_on_c, 8, 76, 92
6, 67200, Note_off_c, 8, 76, 64
6, 67200, Note_on_c, 8, 76, 92
6, 67680, Note_off_c, 8, 76, 64
6, 67680, Note_on_c, 8, 74, 92
6, 68400, Note_off_c, 8, 74, 64
6, 68400, Note_on_c, 8, 76, 92
6, 68520, Note_off_c, 8, 76, 64
6, 68520, Note_on_c, 8, 77, 92
6, 68640, Note_off_c, 8, 77, 64
6, 68640, Note_on_c, 8, 74, 92
6, 69120, Note_off_c, 8, 74, 64
6, 69120, Note_on_c, 8, 72, 92
6, 69600, Note_off_c, 8, 72, 64
6, 69600, Note_on_c, 8, 72, 92
6, 70000, Note_off_c, 8, 72, 64
6, 73440, Note_on_c, 8, 71, 60
6, 74400, Note_off_c, 8, 71, 64
6, 74400, Note_on_c, 8, 72, 60
6, 74880, Note_off_c, 8, 72, 64
6, 74880, Note_on_c, 8, 74, 60
6, 75840, Note_off_c, 8, 74, 64
6, 75840, Note_on_c, 8, 74, 60
6, 76320, Note_off_c, 8, 74, 64
6, 76320, Note_on_c, 8, 72, 60
6, 76800, Note_off_c, 8, 72, 64
6, 76800, Note_on_c, 8, 71, 60
6, 76860, Note_off_c, 8, 71, 64
6, 76860, Note_on_c, 8, 72, 60
6, 76920, Note_off_c, 8, 72, 64
6, 76920, Note_on_c, 8, 71, 60
6, 76980, Note_off_c, 8, 71, 64
6, 76980, Note_on_c, 8, 72, 60
6, 77040, Note_off_c, 8, 72, 64
6, 77040, Note_on_c, 8, 71, 60
6, 77100, Note_off_c, 8, 71, 64
6, 77100, Note_on_c, 8, 72, 60
6, 77160, Note_off_c, 8, 72, 64
6, 77160, Note_on_c, 8, 71, 60
6, 77220, Note_off_c, 8, 71, 64
6, 77220, Note_on_c, 8, 72, 60
6, 77280, Note_off_c, 8, 72, 64
6, 77280, Note_on_c, 8, 71, 60
6, 77340, Note_off_c, 8, 71, 64
6, 77340, Note_on_c, 8, 72, 60
6, 77400, Note_off_c, 8, 72, 64
6, 77400, Note_on_c, 8, 71, 60
6, 77460, Note_off_c, 8, 71, 64
6, 77460, Note_on_c, 8, 72, 60
6, 77520, Note_off_c, 8, 72, 64
6, 77520, Note_on_c, 8, 71, 60
6, 77580, Note_off_c, 8, 71, 64
6, 77580, Note_on_c, 8, 72, 60
6, 77640, Note_off_c, 8, 72, 64
6, 77640, Note_on_c, 8, 71, 60
6, 77700, Note_off_c, 8, 71, 64
6, 77700, Note_on_c, 8, 69, 60
6, 77730, Note_off_c, 8, 69, 64
6, 77730, Note_on_c, 8, 71, 60
6, 77760, Note_off_c, 8, 71, 64
6, 77760, Note_on_c, 8, 69, 60
6, 78600, Note_off_c, 8, 69, 64
6, 80640, Note_on_c, 8, 71, 60
6, 81600, Note_off_c, 8, 71, 64
6, 81600, Note_on_c, 8, 72, 60
6, 82080, Note_off_c, 8, 72, 64
6, 82080, Note_on_c, 8, 74, 60
6, 83040, Note_off_c, 8, 74, 64
6, 83040, Note_on_c, 8, 71, 60
6, 83520, Note_off_c, 8, 71, 64
6, 83520, Note_on_c, 8, 69, 60
6, 83760, Note_off_c, 8, 69, 64
6, 83760, Note_on_c, 8, 71, 60
6, 83880, Note_off_c, 8, 71, 64
6, 83880, Note_on_c, 8, 72, 60
6, 84000, Note_off_c, 8, 72, 64
6, 84000, Note_on_c, 8, 69, 60
6, 84060, Note_off_c, 8, 69, 64
6, 84060, Note_on_c, 8, 71, 60
6, 84120, Note_off_c, 8, 71, 64
6, 84120, Note_on_c, 8, 69, 60
6, 84180, Note_off_c, 8, 69, 64
6, 84180, Note_on_c, 8, 71, 60
6, 84240, Note_off_c, 8, 71, 64
6, 84240, Note_on_c, 8, 69, 60
6, 84300, Note_off_c, 8, 69, 64
6, 84300, Note_on_c, 8, 71, 60
6, 84360, Note_off_c, 8, 71, 64
6, 84360, Note_on_c, 8, 69, 60
6, 84420, Note_off_c, 8, 69, 64
6, 84420, Note_on_c, 8, 71, 60
6, 84480, Note_off_c, 8, 71, 64
6, 84480, Note_on_c, 8, 69, 60
6, 84540, Note_off_c, 8, 69, 64
6, 84540, Note_on_c, 8, 71, 60
6, 84600, Note_off_c, 8, 71, 64
6, 84600, Note_on_c, 8, 69, 60
6, 84660, Note_off_c, 8, 69, 64
6, 84660, Note_on_c, 8, 71, 60
6, 84720, Note_off_c, 8, 71, 64
6, 84720, Note_on_c, 8, 69, 60
6, 84780, Note_off_c, 8, 69, 64
6, 84780, Note_on_c, 8, 71, 60
6, 84840, Note_off_c, 8, 71, 64
6, 84840, Note_on_c, 8, 69, 60
6, 84900, Note_off_c, 8, 69, 64
6, 84900, Note_on_c, 8, 67, 60
6, 84930, Note_off_c, 8, 67, 64
6, 84930, Note_on_c, 8, 69, 60
6, 84960, Note_off_c, 8, 69, 64
6, 84960, Note_on_c, 8, 67, 60
6, 86280, Note_off_c, 8, 67, 64
6, 86280, End_track
7, 0, Start_track
7, 0, MIDI_port, 0
7, 0, Channel_prefix, 11
7, 0, Control_c, 11, 7, 127
7, 0, Control_c, 11, 10, 50
7, 0, Control_c, 11, 91, 124
7, 0, Program_c, 11, 52
7, 11520, Note_on_c, 11, 67, 60
7, 12480, Note_off_c, 11, 67, 64
7, 12480, Note_on_c, 11, 67, 60
7, 12960, Note_off_c, 11, 67, 64
7, 12960, Note_on_c, 11, 69, 60
7, 13440, Note_off_c, 11, 69, 64
7, 13440, Note_on_c, 11, 67, 60
7, 13920, Note_off_c, 11, 67, 64
7, 13920, Note_on_c, 11, 66, 60
7, 14400, Note_off_c, 11, 66, 64
7, 14400, Note_on_c, 11, 67, 60
7, 14880, Note_off_c, 11, 67, 64
7, 14880, Note_on_c, 11, 64, 60
7, 15840, Note_off_c, 11, 64, 64
7, 15840, Note_on_c, 11, 62, 60
7, 16320, Note_off_c, 11, 62, 64
7, 16320, Note_on_c, 11, 62, 60
7, 16720, Note_off_c, 11, 62, 64
7, 18720, Note_on_c, 11, 67, 60
7, 19680, Note_off_c, 11, 67, 64
7, 19680, Note_on_c, 11, 67, 60
7, 20160, Note_off_c, 11, 67, 64
7, 20160, Note_on_c, 11, 67, 60
7, 20640, Note_off_c, 11, 67, 64
7, 20640, Note_on_c, 11, 62, 60
7, 21120, Note_off_c, 11, 62, 64
7, 21120, Note_on_c, 11, 64, 60
7, 21600, Note_off_c, 11, 64, 64
7, 21600, Note_on_c, 11, 64, 60
7, 22080, Note_off_c, 11, 64, 64
7, 22080, Note_on_c, 11, 66, 60
7, 22320, Note_off_c, 11, 66, 64
7, 22320, Note_on_c, 11, 64, 60
7, 22560, Note_off_c, 11, 64, 64
7, 22560, Note_on_c, 11, 66, 60
7, 23040, Note_off_c, 11, 66, 64
7, 23040, Note_on_c, 11, 62, 60
7, 23880, Note_off_c, 11, 62, 64
7, 33120, Note_on_c, 11, 67, 60
7, 34080, Note_off_c, 11, 67, 64
7, 34080, Note_on_c, 11, 67, 60
7, 34560, Note_off_c, 11, 67, 64
7, 34560, Note_on_c, 11, 69, 60
7, 35040, Note_off_c, 11, 69, 64
7, 35040, Note_on_c, 11, 67, 60
7, 35520, Note_off_c, 11, 67, 64
7, 35520, Note_on_c, 11, 66, 60
7, 36000, Note_off_c, 11, 66, 64
7, 36000, Note_on_c, 11, 67, 60
7, 36480, Note_off_c, 11, 67, 64
7, 36480, Note_on_c, 11, 62, 60
7, 37440, Note_off_c, 11, 62, 64
7, 37440, Note_on_c, 11, 62, 60
7, 37920, Note_off_c, 11, 62, 64
7, 37920, Note_on_c, 11, 62, 60
7, 38320, Note_off_c, 11, 62, 64
7, 40320, Note_on_c, 11, 67, 60
7, 41280, Note_off_c, 11, 67, 64
7, 41280, Note_on_c, 11, 67, 60
7, 41760, Note_off_c, 11, 67, 64
7, 41760, Note_on_c, 11, 67, 60
7, 42240, Note_off_c, 11, 67, 64
7, 42240, Note_on_c, 11, 62, 60
7, 42720, Note_off_c, 11, 62, 64
7, 42720, Note_on_c, 11, 64, 60
7, 43200, Note_off_c, 11, 64, 64
7, 43200, Note_on_c, 11, 64, 60
7, 43680, Note_off_c, 11, 64, 64
7, 43680, Note_on_c, 11, 66, 60
7, 43920, Note_off_c, 11, 66, 64
7, 43920, Note_on_c, 11, 64, 60
7, 44160, Note_off_c, 11, 64, 64
7, 44160, Note_on_c, 11, 66, 60
7, 44640, Note_off_c, 11, 66, 64
7, 44640, Note_on_c, 11, 62, 60
7, 45480, Note_off_c, 11, 62, 64
7, 56160, Note_on_c, 11, 66, 75
7, 57120, Note_off_c, 11, 66, 64
7, 57120, Note_on_c, 11, 68, 75
7, 57600, Note_off_c, 11, 68, 64
7, 57600, Note_on_c, 11, 69, 75
7, 58560, Note_off_c, 11, 69, 64
7, 58560, Note_on_c, 11, 69, 75
7, 59040, Note_off_c, 11, 69, 64
7, 59040, Note_on_c, 11, 69, 75
7, 60000, Note_off_c, 11, 69, 64
7, 60000, Note_on_c, 11, 68, 75
7, 60480, Note_off_c, 11, 68, 64
7, 60480, Note_on_c, 11, 69, 75
7, 60960, Note_off_c, 11, 69, 64
7, 60960, Note_on_c, 11, 69, 75
7, 61360, Note_off_c, 11, 69, 64
7, 64800, Note_on_c, 11, 69, 92
7, 65760, Note_off_c, 11, 69, 64
7, 65760, Note_on_c, 11, 67, 92
7, 66240, Note_off_c, 11, 67, 64
7, 66240, Note_on_c, 11, 67, 92
7, 66720, Note_off_c, 11, 67, 64
7, 66720, Note_on_c, 11, 72, 92
7, 67200, Note_off_c, 11, 72, 64
7, 67200, Note_on_c, 11, 67, 92
7, 67680, Note_off_c, 11, 67, 64
7, 67680, Note_on_c, 11, 65, 92
7, 68160, Note_off_c, 11, 65, 64
7, 68160, Note_on_c, 11, 69, 92
7, 68640, Note_off_c, 11, 69, 64
7, 68640, Note_on_c, 11, 67, 92
7, 69120, Note_off_c, 11, 67, 64
7, 69120, Note_on_c, 11, 67, 92
7, 69600, Note_off_c, 11, 67, 64
7, 69600, Note_on_c, 11, 67, 92
7, 70000, Note_off_c, 11, 67, 64
7, 73440, Note_on_c, 11, 67, 60
7, 74400, Note_off_c, 11, 67, 64
7, 74400, Note_on_c, 11, 67, 60
7, 74880, Note_off_c, 11, 67, 64
7, 74880, Note_on_c, 11, 67, 60
7, 75840, Note_off_c, 11, 67, 64
7, 75840, Note_on_c, 11, 67, 60
7, 76320, Note_off_c, 11, 67, 64
7, 76320, Note_on_c, 11, 67, 60
7, 76560, Note_off_c, 11, 67, 64
7, 76560, Note_on_c, 11, 66, 60
7, 76800, Note_off_c, 11, 66, 64
7, 76800, Note_on_c, 11, 67, 60
7, 77760, Note_off_c, 11, 67, 64
7, 77760, Note_on_c, 11, 66, 60
7, 78600, Note_off_c, 11, 66, 64
7, 80640, Note_on_c, 11, 67, 60
7, 81600, Note_off_c, 11, 67, 64
7, 81600, Note_on_c, 11, 67, 60
7, 82080, Note_off_c, 11, 67, 64
7, 82080, Note_on_c, 11, 67, 60
7, 82560, Note_off_c, 11, 67, 64
7, 82560, Note_on_c, 11, 62, 60
7, 83040, Note_off_c, 11, 62, 64
7, 83040, Note_on_c, 11, 64, 60
7, 83520, Note_off_c, 11, 64, 64
7, 83520, Note_on_c, 11, 64, 60
7, 84000, Note_off_c, 11, 64, 64
7, 84000, Note_on_c, 11, 66, 60
7, 84240, Note_off_c, 11, 66, 64
7, 84240, Note_on_c, 11, 64, 60
7, 84480, Note_off_c, 11, 64, 64
7, 84480, Note_on_c, 11, 66, 60
7, 84960, Note_off_c, 11, 66, 64
7, 84960, Note_on_c, 11, 62, 60
7, 86280, Note_off_c, 11, 62, 64
7, 86280, End_track
8, 0, Start_track
8, 0, MIDI_port, 0
8, 0, Channel_prefix, 12
8, 0, Control_c, 12, 7, 127
8, 0, Control_c, 12, 10, 70
8, 0, Control_c, 12, 91, 116
8, 0, Program_c, 12, 52
8, 11520, Note_on_c, 12, 62, 60
8, 12480, Note_off_c, 12, 62, 64
8, 12480, Note_on_c, 12, 64, 60
8, 12960, Note_off_c, 12, 64, 64
8, 12960, Note_on_c, 12, 57, 60
8, 13920, Note_off_c, 12, 57, 64
8, 13920, Note_on_c, 12, 59, 60
8, 14400, Note_off_c, 12, 59, 64
8, 14400, Note_on_c, 12, 59, 60
8, 14880, Note_off_c, 12, 59, 64
8, 14880, Note_on_c, 12, 57, 60
8, 15360, Note_off_c, 12, 57, 64
8, 15360, Note_on_c, 12, 55, 60
8, 15840, Note_off_c, 12, 55, 64
8, 15840, Note_on_c, 12, 54, 60
8, 16320, Note_off_c, 12, 54, 64
8, 16320, Note_on_c, 12, 57, 60
8, 16720, Note_off_c, 12, 57, 64
8, 18720, Note_on_c, 12, 62, 60
8, 19680, Note_off_c, 12, 62, 64
8, 19680, Note_on_c, 12, 64, 60
8, 20160, Note_off_c, 12, 64, 64
8, 20160, Note_on_c, 12, 62, 60
8, 20640, Note_off_c, 12, 62, 64
8, 20640, Note_on_c, 12, 59, 60
8, 21120, Note_off_c, 12, 59, 64
8, 21120, Note_on_c, 12, 59, 60
8, 21600, Note_off_c, 12, 59, 64
8, 21600, Note_on_c, 12, 60, 60
8, 21840, Note_off_c, 12, 60, 64
8, 21840, Note_on_c, 12, 57, 60
8, 22080, Note_off_c, 12, 57, 64
8, 22080, Note_on_c, 12, 62, 60
8, 22320, Note_off_c, 12, 62, 64
8, 22320, Note_on_c, 12, 59, 60
8, 22560, Note_off_c, 12, 59, 64
8, 22560, Note_on_c, 12, 60, 60
8, 23040, Note_off_c, 12, 60, 64
8, 23040, Note_on_c, 12, 59, 60
8, 23880, Note_off_c, 12, 59, 64
8, 33120, Note_on_c, 12, 62, 60
8, 34080, Note_off_c, 12, 62, 64
8, 34080, Note_on_c, 12, 64, 60
8, 34560, Note_off_c, 12, 64, 64
8, 34560, Note_on_c, 12, 57, 60
8, 35520, Note_off_c, 12, 57, 64
8, 35520, Note_on_c, 12, 59, 60
8, 36000, Note_off_c, 12, 59, 64
8, 36000, Note_on_c, 12, 59, 60
8, 36480, Note_off_c, 12, 59, 64
8, 36480, Note_on_c, 12, 57, 60
8, 36960, Note_off_c, 12, 57, 64
8, 36960, Note_on_c, 12, 55, 60
8, 37440, Note_off_c, 12, 55, 64
8, 37440, Note_on_c, 12, 54, 60
8, 37920, Note_off_c, 12, 54, 64
8, 37920, Note_on_c, 12, 57, 60
8, 38320, Note_off_c, 12, 57, 64
8, 40320, Note_on_c, 12, 62, 60
8, 41280, Note_off_c, 12, 62, 64
8, 41280, Note_on_c, 12, 64, 60
8, 41760, Note_off_c, 12, 64, 64
8, 41760, Note_on_c, 12, 62, 60
8, 42240, Note_off_c, 12, 62, 64
8, 42240, Note_on_c, 12, 59, 60
8, 42720, Note_off_c, 12, 59, 64
8, 42720, Note_on_c, 12, 59, 60
8, 43200, Note_off_c, 12, 59, 64
8, 43200, Note_on_c, 12, 60, 60
8, 43440, Note_off_c, 12, 60, 64
8, 43440, Note_on_c, 12, 57, 60
8, 43680, Note_off_c, 12, 57, 64
8, 43680, Note_on_c, 12, 62, 60
8, 43920, Note_off_c, 12, 62, 64
8, 43920, Note_on_c, 12, 59, 60
8, 44160, Note_off_c, 12, 59, 64
8, 44160, Note_on_c, 12, 60, 60
8, 44640, Note_off_c, 12, 60, 64
8, 44640, Note_on_c, 12, 59, 60
8, 45480, Note_off_c, 12, 59, 64
8, 56160, Note_on_c, 12, 62, 75
8, 57120, Note_off_c, 12, 62, 64
8, 57120, Note_on_c, 12, 62, 75
8, 57600, Note_off_c, 12, 62, 64
8, 57600, Note_on_c, 12, 64, 75
8, 58560, Note_off_c, 12, 64, 64
8, 58560, Note_on_c, 12, 65, 75
8, 59040, Note_off_c, 12, 65, 64
8, 59040, Note_on_c, 12, 65, 75
8, 59520, Note_off_c, 12, 65, 64
8, 59520, Note_on_c, 12, 62, 75
8, 60000, Note_off_c, 12, 62, 64
8, 60000, Note_on_c, 12, 64, 75
8, 60480, Note_off_c, 12, 64, 64
8, 60480, Note_on_c, 12, 60, 75
8, 60960, Note_off_c, 12, 60, 64
8, 60960, Note_on_c, 12, 60, 75
8, 61360, Note_off_c, 12, 60, 64
8, 64800, Note_on_c, 12, 64, 92
8, 65760, Note_off_c, 12, 64, 64
8, 65760, Note_on_c, 12, 62, 92
8, 66240, Note_off_c, 12, 62, 64
8, 66240, Note_on_c, 12, 60, 92
8, 67200, Note_off_c, 12, 60, 64
8, 67200, Note_on_c, 12, 60, 92
8, 67680, Note_off_c, 12, 60, 64
8, 67680, Note_on_c, 12, 57, 92
8, 68640, Note_off_c, 12, 57, 64
8, 68640, Note_on_c, 12, 59, 92
8, 69120, Note_off_c, 12, 59, 64
8, 69120, Note_on_c, 12, 64, 92
8, 69600, Note_off_c, 12, 64, 64
8, 69600, Note_on_c, 12, 64, 92
8, 70000, Note_off_c, 12, 64, 64
8, 73440, Note_on_c, 12, 62, 60
8, 74400, Note_off_c, 12, 62, 64
8, 74400, Note_on_c, 12, 64, 60
8, 74880, Note_off_c, 12, 64, 64
8, 74880, Note_on_c, 12, 62, 60
8, 75360, Note_off_c, 12, 62, 64
8, 75360, Note_on_c, 12, 59, 60
8, 75840, Note_off_c, 12, 59, 64
8, 75840, Note_on_c, 12, 59, 60
8, 76320, Note_off_c, 12, 59, 64
8, 76320, Note_on_c, 12, 60, 60
8, 76800, Note_off_c, 12, 60, 64
8, 76800, Note_on_c, 12, 62, 60
8, 77280, Note_off_c, 12, 62, 64
8, 77280, Note_on_c, 12, 64, 60
8, 77760, Note_off_c, 12, 64, 64
8, 77760, Note_on_c, 12, 57, 60
8, 78600, Note_off_c, 12, 57, 64
8, 80640, Note_on_c, 12, 62, 60
8, 81600, Note_off_c, 12, 62, 64
8, 81600, Note_on_c, 12, 64, 60
8, 82080, Note_off_c, 12, 64, 64
8, 82080, Note_on_c, 12, 62, 60
8, 82560, Note_off_c, 12, 62, 64
8, 82560, Note_on_c, 12, 59, 60
8, 83040, Note_off_c, 12, 59, 64
8, 83040, Note_on_c, 12, 59, 60
8, 83520, Note_off_c, 12, 59, 64
8, 83520, Note_on_c, 12, 60, 60
8, 83760, Note_off_c, 12, 60, 64
8, 83760, Note_on_c, 12, 57, 60
8, 84000, Note_off_c, 12, 57, 64
8, 84000, Note_on_c, 12, 62, 60
8, 84240, Note_off_c, 12, 62, 64
8, 84240, Note_on_c, 12, 59, 60
8, 84480, Note_off_c, 12, 59, 64
8, 84480, Note_on_c, 12, 60, 60
8, 84960, Note_off_c, 12, 60, 64
8, 84960, Note_on_c, 12, 59, 60
8, 86280, Note_off_c, 12, 59, 64
8, 86280, End_track
9, 0, Start_track
9, 0, MIDI_port, 0
9, 0, Channel_prefix, 13
9, 0, Control_c, 13, 7, 127
9, 0, Control_c, 13, 10, 90
9, 0, Control_c, 13, 91, 121
9, 0, Program_c, 13, 52
9, 11520, Note_on_c, 13, 55, 60
9, 12000, Note_off_c, 13, 55, 64
9, 12000, Note_on_c, 13, 54, 60
9, 12480, Note_off_c, 13, 54, 64
9, 12480, Note_on_c, 13, 52, 60
9, 12960, Note_off_c, 13, 52, 64
9, 12960, Note_on_c, 13, 54, 60
9, 13440, Note_off_c, 13, 54, 64
9, 13440, Note_on_c, 13, 52, 60
9, 13920, Note_off_c, 13, 52, 64
9, 13920, Note_on_c, 13, 50, 60
9, 14400, Note_off_c, 13, 50, 64
9, 14400, Note_on_c, 13, 52, 60
9, 14880, Note_off_c, 13, 52, 64
9, 14880, Note_on_c, 13, 54, 60
9, 15360, Note_off_c, 13, 54, 64
9, 15360, Note_on_c, 13, 55, 60
9, 15840, Note_off_c, 13, 55, 64
9, 15840, Note_on_c, 13, 50, 60
9, 16320, Note_off_c, 13, 50, 64
9, 16320, Note_on_c, 13, 50, 60
9, 16720, Note_off_c, 13, 50, 64
9, 18720, Note_on_c, 13, 55, 60
9, 19200, Note_off_c, 13, 55, 64
9, 19200, Note_on_c, 13, 54, 60
9, 19680, Note_off_c, 13, 54, 64
9, 19680, Note_on_c, 13, 52, 60
9, 20160, Note_off_c, 13, 52, 64
9, 20160, Note_on_c, 13, 59, 60
9, 20640, Note_off_c, 13, 59, 64
9, 20640, Note_on_c, 13, 47, 60
9, 21120, Note_off_c, 13, 47, 64
9, 21120, Note_on_c, 13, 52, 60
9, 21600, Note_off_c, 13, 52, 64
9, 21600, Note_on_c, 13, 48, 60
9, 22080, Note_off_c, 13, 48, 64
9, 22080, Note_on_c, 13, 50, 60
9, 22560, Note_off_c, 13, 50, 64
9, 22560, Note_on_c, 13, 50, 60
9, 23040, Note_off_c, 13, 50, 64
9, 23040, Note_on_c, 13, 43, 60
9, 23880, Note_off_c, 13, 43, 64
9, 33120, Note_on_c, 13, 55, 60
9, 33600, Note_off_c, 13, 55, 64
9, 33600, Note_on_c, 13, 54, 60
9, 34080, Note_off_c, 13, 54, 64
9, 34080, Note_on_c, 13, 52, 60
9, 34560, Note_off_c, 13, 52, 64
9, 34560, Note_on_c, 13, 54, 60
9, 35040, Note_off_c, 13, 54, 64
9, 35040, Note_on_c, 13, 52, 60
9, 35520, Note_off_c, 13, 52, 64
9, 35520, Note_on_c, 13, 50, 60
9, 36000, Note_off_c, 13, 50, 64
9, 36000, Note_on_c, 13, 52, 60
9, 36480, Note_off_c, 13, 52, 64
9, 36480, Note_on_c, 13, 54, 60
9, 36960, Note_off_c, 13, 54, 64
9, 36960, Note_on_c, 13, 55, 60
9, 37440, Note_off_c, 13, 55, 64
9, 37440, Note_on_c, 13, 50, 60
9, 37920, Note_off_c, 13, 50, 64
9, 37920, Note_on_c, 13, 50, 60
9, 38320, Note_off_c, 13, 50, 64
9, 40320, Note_on_c, 13, 55, 60
9, 40800, Note_off_c, 13, 55, 64
9, 40800, Note_on_c, 13, 54, 60
9, 41280, Note_off_c, 13, 54, 64
9, 41280, Note_on_c, 13, 52, 60
9, 41760, Note_off_c, 13, 52, 64
9, 41760, Note_on_c, 13, 59, 60
9, 42240, Note_off_c, 13, 59, 64
9, 42240, Note_on_c, 13, 47, 60
9, 42720, Note_off_c, 13, 47, 64
9, 42720, Note_on_c, 13, 52, 60
9, 43200, Note_off_c, 13, 52, 64
9, 43200, Note_on_c, 13, 48, 60
9, 43680, Note_off_c, 13, 48, 64
9, 43680, Note_on_c, 13, 50, 60
9, 44160, Note_off_c, 13, 50, 64
9, 44160, Note_on_c, 13, 50, 60
9, 44640, Note_off_c, 13, 50, 64
9, 44640, Note_on_c, 13, 43, 60
9, 45480, Note_off_c, 13, 43, 64
9, 56160, Note_on_c, 13, 50, 75
9, 56640, Note_off_c, 13, 50, 64
9, 56640, Note_on_c, 13, 48, 75
9, 57120, Note_off_c, 13, 48, 64
9, 57120, Note_on_c, 13, 47, 75
9, 57600, Note_off_c, 13, 47, 64
9, 57600, Note_on_c, 13, 45, 75
9, 58080, Note_off_c, 13, 45, 64
9, 58080, Note_on_c, 13, 57, 75
9, 58320, Note_off_c, 13, 57, 64
9, 58320, Note_on_c, 13, 55, 75
9, 58560, Note_off_c, 13, 55, 64
9, 58560, Note_on_c, 13, 53, 75
9, 58800, Note_off_c, 13, 53, 64
9, 58800, Note_on_c, 13, 52, 75
9, 59040, Note_off_c, 13, 52, 64
9, 59040, Note_on_c, 13, 50, 75
9, 59520, Note_off_c, 13, 50, 64
9, 59520, Note_on_c, 13, 47, 75
9, 60000, Note_off_c, 13, 47, 64
9, 60000, Note_on_c, 13, 52, 75
9, 60480, Note_off_c, 13, 52, 64
9, 60480, Note_on_c, 13, 45, 75
9, 60960, Note_off_c, 13, 45, 64
9, 60960, Note_on_c, 13, 45, 75
9, 61360, Note_off_c, 13, 45, 64
9, 64800, Note_on_c, 13, 57, 92
9, 65760, Note_off_c, 13, 57, 64
9, 65760, Note_on_c, 13, 59, 92
9, 66240, Note_off_c, 13, 59, 64
9, 66240, Note_on_c, 13, 60, 92
9, 66720, Note_off_c, 13, 60, 64
9, 66720, Note_on_c, 13, 57, 92
9, 67200, Note_off_c, 13, 57, 64
9, 67200, Note_on_c, 13, 52, 92
9, 67680, Note_off_c, 13, 52, 64
9, 67680, Note_on_c, 13, 53, 92
9, 68160, Note_off_c, 13, 53, 64
9, 68160, Note_on_c, 13, 50, 92
9, 68640, Note_off_c, 13, 50, 64
9, 68640, Note_on_c, 13, 55, 92
9, 69120, Note_off_c, 13, 55, 64
9, 69120, Note_on_c, 13, 48, 92
9, 69600, Note_off_c, 13, 48, 64
9, 69600, Note_on_c, 13, 48, 92
9, 70000, Note_off_c, 13, 48, 64
9, 73440, Note_on_c, 13, 55, 60
9, 74400, Note_off_c, 13, 55, 64
9, 74400, Note_on_c, 13, 52, 60
9, 74880, Note_off_c, 13, 52, 64
9, 74880, Note_on_c, 13, 59, 60
9, 75360, Note_off_c, 13, 59, 64
9, 75360, Note_on_c, 13, 64, 60
9, 75840, Note_off_c, 13, 64, 64
9, 75840, Note_on_c, 13, 52, 60
9, 76320, Note_off_c, 13, 52, 64
9, 76320, Note_on_c, 13, 45, 60
9, 76800, Note_off_c, 13, 45, 64
9, 76800, Note_on_c, 13, 47, 60
9, 77280, Note_off_c, 13, 47, 64
9, 77280, Note_on_c, 13, 48, 60
9, 77760, Note_off_c, 13, 48, 64
9, 77760, Note_on_c, 13, 50, 60
9, 78600, Note_off_c, 13, 50, 64
9, 80640, Note_on_c, 13, 55, 60
9, 81120, Note_off_c, 13, 55, 64
9, 81120, Note_on_c, 13, 54, 60
9, 81600, Note_off_c, 13, 54, 64
9, 81600, Note_on_c, 13, 52, 60
9, 82080, Note_off_c, 13, 52, 64
9, 82080, Note_on_c, 13, 59, 60
9, 82560, Note_off_c, 13, 59, 64
9, 82560, Note_on_c, 13, 47, 60
9, 83040, Note_off_c, 13, 47, 64
9, 83040, Note_on_c, 13, 52, 60
9, 83520, Note_off_c, 13, 52, 64
9, 83520, Note_on_c, 13, 48, 60
9, 84000, Note_off_c, 13, 48, 64
9, 84000, Note_on_c, 13, 50, 60
9, 84480, Note_off_c, 13, 50, 64
9, 84480, Note_on_c, 13, 38, 60
9, 84960, Note_off_c, 13, 38, 64
9, 84960, Note_on_c, 13, 43, 60
9, 86280, Note_off_c, 13, 43, 64
9, 86280, End_track
10, 0, Start_track
10, 0, MIDI_port, 0
10, 0, Channel_prefix, 14
10, 0, Control_c, 14, 7, 127
10, 0, Control_c, 14, 10, 64
10, 0, Control_c, 14, 91, 117
10, 0, Program_c, 14, 32
10, 0, Note_on_c, 14, 43, 45
10, 480, Note_off_c, 14, 43, 64
10, 480, Note_on_c, 14, 55, 45
10, 960, Note_off_c, 14, 55, 64
10, 960, Note_on_c, 14, 52, 45
10, 1440, Note_off_c, 14, 52, 64
10, 1440, Note_on_c, 14, 47, 45
10, 1920, Note_off_c, 14, 47, 64
10, 1920, Note_on_c, 14, 52, 45
10, 2400, Note_off_c, 14, 52, 64
10, 2400, Note_on_c, 14, 40, 45
10, 2880, Note_off_c, 14, 40, 64
10, 2880, Note_on_c, 14, 45, 45
10, 3360, Note_off_c, 14, 45, 64
10, 3360, Note_on_c, 14, 47, 45
10, 3840, Note_off_c, 14, 47, 64
10, 3840, Note_on_c, 14, 48, 45
10, 4320, Note_off_c, 14, 48, 64
10, 4320, Note_on_c, 14, 50, 45
10, 4800, Note_off_c, 14, 50, 64
10, 4800, Note_on_c, 14, 54, 45
10, 5280, Note_off_c, 14, 54, 64
10, 5280, Note_on_c, 14, 50, 45
10, 5760, Note_off_c, 14, 50, 64
10, 5760, Note_on_c, 14, 55, 45
10, 6240, Note_off_c, 14, 55, 64
10, 6240, Note_on_c, 14, 52, 45
10, 6720, Note_off_c, 14, 52, 64
10, 6720, Note_on_c, 14, 48, 45
10, 7200, Note_off_c, 14, 48, 64
10, 7200, Note_on_c, 14, 47, 45
10, 7680, Note_off_c, 14, 47, 64
10, 7680, Note_on_c, 14, 52, 45
10, 8160, Note_off_c, 14, 52, 64
10, 8160, Note_on_c, 14, 50, 45
10, 8640, Note_off_c, 14, 50, 64
10, 8640, Note_on_c, 14, 48, 45
10, 9120, Note_off_c, 14, 48, 64
10, 9120, Note_on_c, 14, 49, 45
10, 9600, Note_off_c, 14, 49, 64
10, 9600, Note_on_c, 14, 50, 45
10, 10080, Note_off_c, 14, 50, 64
10, 10080, Note_on_c, 14, 43, 45
10, 10560, Note_off_c, 14, 43, 64
10, 10920, Note_on_c, 14, 55, 45
10, 11040, Note_off_c, 14, 55, 64
10, 11040, Note_on_c, 14, 50, 45
10, 11400, Note_off_c, 14, 50, 64
10, 11400, Note_on_c, 14, 47, 45
10, 11520, Note_off_c, 14, 47, 64
10, 11520, Note_on_c, 14, 43, 45
10, 12000, Note_off_c, 14, 43, 64
10, 12000, Note_on_c, 14, 54, 45
10, 12480, Note_off_c, 14, 54, 64
10, 12480, Note_on_c, 14, 52, 45
10, 12960, Note_off_c, 14, 52, 64
10, 12960, Note_on_c, 14, 54, 45
10, 13440, Note_off_c, 14, 54, 64
10, 13440, Note_on_c, 14, 52, 45
10, 13920, Note_off_c, 14, 52, 64
10, 13920, Note_on_c, 14, 50, 45
10, 14400, Note_off_c, 14, 50, 64
10, 14400, Note_on_c, 14, 52, 45
10, 14880, Note_off_c, 14, 52, 64
10, 14880, Note_on_c, 14, 54, 45
10, 15360, Note_off_c, 14, 54, 64
10, 15360, Note_on_c, 14, 55, 45
10, 15840, Note_off_c, 14, 55, 64
10, 15840, Note_on_c, 14, 50, 45
10, 16320, Note_off_c, 14, 50, 64
10, 16680, Note_on_c, 14, 50, 45
10, 16800, Note_off_c, 14, 50, 64
10, 16800, Note_on_c, 14, 50, 45
10, 17160, Note_off_c, 14, 50, 64
10, 17160, Note_on_c, 14, 50, 45
10, 17280, Note_off_c, 14, 50, 64
10, 17280, Note_on_c, 14, 38, 45
10, 17760, Note_off_c, 14, 38, 64
10, 18120, Note_on_c, 14, 50, 45
10, 18240, Note_off_c, 14, 50, 64
10, 18240, Note_on_c, 14, 50, 45
10, 18600, Note_off_c, 14, 50, 64
10, 18600, Note_on_c, 14, 50, 45
10, 18720, Note_off_c, 14, 50, 64
10, 18720, Note_on_c, 14, 55, 45
10, 19200, Note_off_c, 14, 55, 64
10, 19200, Note_on_c, 14, 54, 45
10, 19680, Note_off_c, 14, 54, 64
10, 19680, Note_on_c, 14, 52, 45
10, 20160, Note_off_c, 14, 52, 64
10, 20160, Note_on_c, 14, 59, 45
10, 20640, Note_off_c, 14, 59, 64
10, 20640, Note_on_c, 14, 47, 45
10, 21120, Note_off_c, 14, 47, 64
10, 21120, Note_on_c, 14, 52, 45
10, 21600, Note_off_c, 14, 52, 64
10, 21600, Note_on_c, 14, 48, 45
10, 22080, Note_off_c, 14, 48, 64
10, 22080, Note_on_c, 14, 50, 45
10, 22560, Note_off_c, 14, 50, 64
10, 22560, Note_on_c, 14, 38, 45
10, 23040, Note_off_c, 14, 38, 64
10, 23040, Note_on_c, 14, 43, 45
10, 23520, Note_off_c, 14, 43, 64
10, 23520, Note_on_c, 14, 55, 45
10, 24000, Note_off_c, 14, 55, 64
10, 24000, Note_on_c, 14, 52, 45
10, 24480, Note_off_c, 14, 52, 64
10, 24480, Note_on_c, 14, 47, 45
10, 24960, Note_off_c, 14, 47, 64
10, 24960, Note_on_c, 14, 52, 45
10, 25440, Note_off_c, 14, 52, 64
10, 25440, Note_on_c, 14, 40, 45
10, 25920, Note_off_c, 14, 40, 64
10, 25920, Note_on_c, 14, 45, 45
10, 26400, Note_off_c, 14, 45, 64
10, 26400, Note_on_c, 14, 47, 45
10, 26880, Note_off_c, 14, 47, 64
10, 26880, Note_on_c, 14, 48, 45
10, 27360, Note_off_c, 14, 48, 64
10, 27360, Note_on_c, 14, 50, 45
10, 27840, Note_off_c, 14, 50, 64
10, 27840, Note_on_c, 14, 54, 45
10, 28320, Note_off_c, 14, 54, 64
10, 28320, Note_on_c, 14, 50, 45
10, 28800, Note_off_c, 14, 50, 64
10, 28800, Note_on_c, 14, 55, 45
10, 29280, Note_off_c, 14, 55, 64
10, 29280, Note_on_c, 14, 52, 45
10, 29760, Note_off_c, 14, 52, 64
10, 29760, Note_on_c, 14, 48, 45
10, 30240, Note_off_c, 14, 48, 64
10, 30240, Note_on_c, 14, 47, 45
10, 30720, Note_off_c, 14, 47, 64
10, 30720, Note_on_c, 14, 52, 45
10, 31200, Note_off_c, 14, 52, 64
10, 31200, Note_on_c, 14, 50, 45
10, 31680, Note_off_c, 14, 50, 64
10, 31680, Note_on_c, 14, 48, 45
10, 32160, Note_off_c, 14, 48, 64
10, 32160, Note_on_c, 14, 49, 45
10, 32640, Note_off_c, 14, 49, 64
10, 32640, Note_on_c, 14, 50, 45
10, 33120, Note_off_c, 14, 50, 64
10, 33120, Note_on_c, 14, 43, 45
10, 33600, Note_off_c, 14, 43, 64
10, 33600, Note_on_c, 14, 54, 45
10, 34080, Note_off_c, 14, 54, 64
10, 34080, Note_on_c, 14, 52, 45
10, 34560, Note_off_c, 14, 52, 64
10, 34560, Note_on_c, 14, 54, 45
10, 35040, Note_off_c, 14, 54, 64
10, 35040, Note_on_c, 14, 52, 45
10, 35520, Note_off_c, 14, 52, 64
10, 35520, Note_on_c, 14, 50, 45
10, 36000, Note_off_c, 14, 50, 64
10, 36000, Note_on_c, 14, 52, 45
10, 36480, Note_off_c, 14, 52, 64
10, 36480, Note_on_c, 14, 54, 45
10, 36960, Note_off_c, 14, 54, 64
10, 36960, Note_on_c, 14, 55, 45
10, 37440, Note_off_c, 14, 55, 64
10, 37440, Note_on_c, 14, 50, 45
10, 37920, Note_off_c, 14, 50, 64
10, 38280, Note_on_c, 14, 50, 45
10, 38400, Note_off_c, 14, 50, 64
10, 38400, Note_on_c, 14, 50, 45
10, 38760, Note_off_c, 14, 50, 64
10, 38760, Note_on_c, 14, 50, 45
10, 38880, Note_off_c, 14, 50, 64
10, 38880, Note_on_c, 14, 38, 45
10, 39360, Note_off_c, 14, 38, 64
10, 39720, Note_on_c, 14, 50, 45
10, 39840, Note_off_c, 14, 50, 64
10, 39840, Note_on_c, 14, 50, 45
10, 40200, Note_off_c, 14, 50, 64
10, 40200, Note_on_c, 14, 50, 45
10, 40320, Note_off_c, 14, 50, 64
10, 40320, Note_on_c, 14, 55, 45
10, 40800, Note_off_c, 14, 55, 64
10, 40800, Note_on_c, 14, 54, 45
10, 41280, Note_off_c, 14, 54, 64
10, 41280, Note_on_c, 14, 52, 45
10, 41760, Note_off_c, 14, 52, 64
10, 41760, Note_on_c, 14, 59, 45
10, 42240, Note_off_c, 14, 59, 64
10, 42240, Note_on_c, 14, 47, 45
10, 42720, Note_off_c, 14, 47, 64
10, 42720, Note_on_c, 14, 52, 45
10, 43200, Note_off_c, 14, 52, 64
10, 43200, Note_on_c, 14, 48, 45
10, 43680, Note_off_c, 14, 48, 64
10, 43680, Note_on_c, 14, 50, 45
10, 44160, Note_off_c, 14, 50, 64
10, 44160, Note_on_c, 14, 38, 45
10, 44640, Note_off_c, 14, 38, 64
10, 44640, Note_on_c, 14, 43, 45
10, 45120, Note_off_c, 14, 43, 64
10, 45120, Note_on_c, 14, 55, 46
10, 45600, Note_off_c, 14, 55, 64
10, 45600, Note_on_c, 14, 52, 47
10, 46080, Note_off_c, 14, 52, 64
10, 46080, Note_on_c, 14, 47, 48
10, 46560, Note_off_c, 14, 47, 64
10, 46560, Note_on_c, 14, 52, 49
10, 47040, Note_off_c, 14, 52, 64
10, 47040, Note_on_c, 14, 40, 50
10, 47520, Note_off_c, 14, 40, 64
10, 47520, Note_on_c, 14, 45, 51
10, 48000, Note_off_c, 14, 45, 64
10, 48000, Note_on_c, 14, 47, 52
10, 48480, Note_off_c, 14, 47, 64
10, 48480, Note_on_c, 14, 48, 53
10, 48960, Note_off_c, 14, 48, 64
10, 48960, Note_on_c, 14, 50, 54
10, 49440, Note_off_c, 14, 50, 64
10, 49440, Note_on_c, 14, 54, 55
10, 49920, Note_off_c, 14, 54, 64
10, 49920, Note_on_c, 14, 50, 56
10, 50400, Note_off_c, 14, 50, 64
10, 50400, Note_on_c, 14, 55, 57
10, 50880, Note_off_c, 14, 55, 64
10, 50880, Note_on_c, 14, 52, 58
10, 51360, Note_off_c, 14, 52, 64
10, 51360, Note_on_c, 14, 48, 59
10, 51840, Note_off_c, 14, 48, 64
10, 51840, Note_on_c, 14, 47, 60
10, 52320, Note_off_c, 14, 47, 64
10, 52320, Note_on_c, 14, 52, 61
10, 52800, Note_off_c, 14, 52, 64
10, 52800, Note_on_c, 14, 50, 62
10, 53280, Note_off_c, 14, 50, 64
10, 53280, Note_on_c, 14, 48, 63
10, 53760, Note_off_c, 14, 48, 64
10, 53760, Note_on_c, 14, 49, 65
10, 54240, Note_off_c, 14, 49, 64
10, 54240, Note_on_c, 14, 50, 67
10, 54720, Note_off_c, 14, 50, 64
10, 54720, Note_on_c, 14, 43, 69
10, 55200, Note_off_c, 14, 43, 64
10, 55560, Note_on_c, 14, 55, 72
10, 55680, Note_off_c, 14, 55, 64
10, 55680, Note_on_c, 14, 54, 72
10, 56040, Note_off_c, 14, 54, 64
10, 56040, Note_on_c, 14, 52, 74
10, 56160, Note_off_c, 14, 52, 64
10, 56160, Note_on_c, 14, 50, 75
10, 56640, Note_off_c, 14, 50, 64
10, 56640, Note_on_c, 14, 48, 75
10, 57120, Note_off_c, 14, 48, 64
10, 57120, Note_on_c, 14, 47, 75
10, 57600, Note_off_c, 14, 47, 64
10, 57600, Note_on_c, 14, 45, 75
10, 58080, Note_off_c, 14, 45, 64
10, 58080, Note_on_c, 14, 57, 75
10, 58320, Note_off_c, 14, 57, 64
10, 58320, Note_on_c, 14, 55, 75
10, 58560, Note_off_c, 14, 55, 64
10, 58560, Note_on_c, 14, 53, 75
10, 58800, Note_off_c, 14, 53, 64
10, 58800, Note_on_c, 14, 52, 75
10, 59040, Note_off_c, 14, 52, 64
10, 59040, Note_on_c, 14, 50, 75
10, 59520, Note_off_c, 14, 50, 64
10, 59520, Note_on_c, 14, 47, 75
10, 60000, Note_off_c, 14, 47, 64
10, 60000, Note_on_c, 14, 52, 75
10, 60480, Note_off_c, 14, 52, 64
10, 60480, Note_on_c, 14, 45, 75
10, 60960, Note_off_c, 14, 45, 64
10, 60960, Note_on_c, 14, 53, 76
10, 61440, Note_off_c, 14, 53, 64
10, 61440, Note_on_c, 14, 50, 78
10, 61920, Note_off_c, 14, 50, 64
10, 61920, Note_on_c, 14, 48, 80
10, 62400, Note_off_c, 14, 48, 64
10, 62400, Note_on_c, 14, 53, 82
10, 62880, Note_off_c, 14, 53, 64
10, 62880, Note_on_c, 14, 52, 84
10, 63360, Note_off_c, 14, 52, 64
10, 63360, Note_on_c, 14, 50, 86
10, 63840, Note_off_c, 14, 50, 64
10, 63840, Note_on_c, 14, 51, 88
10, 64320, Note_off_c, 14, 51, 64
10, 64320, Note_on_c, 14, 52, 90
10, 64800, Note_off_c, 14, 52, 64
10, 64800, Note_on_c, 14, 45, 92
10, 65280, Note_off_c, 14, 45, 64
10, 65280, Note_on_c, 14, 57, 92
10, 65760, Note_off_c, 14, 57, 64
10, 65760, Note_on_c, 14, 59, 92
10, 66240, Note_off_c, 14, 59, 64
10, 66240, Note_on_c, 14, 60, 92
10, 66720, Note_off_c, 14, 60, 64
10, 66720, Note_on_c, 14, 57, 92
10, 67200, Note_off_c, 14, 57, 64
10, 67200, Note_on_c, 14, 52, 92
10, 67680, Note_off_c, 14, 52, 64
10, 67680, Note_on_c, 14, 53, 92
10, 68160, Note_off_c, 14, 53, 64
10, 68160, Note_on_c, 14, 50, 92
10, 68640, Note_off_c, 14, 50, 64
10, 68640, Note_on_c, 14, 55, 92
10, 69120, Note_off_c, 14, 55, 64
10, 69120, Note_on_c, 14, 48, 92
10, 69600, Note_off_c, 14, 48, 64
10, 69600, Note_on_c, 14, 52, 92
10, 70080, Note_off_c, 14, 52, 64
10, 70080, Note_on_c, 14, 48, 92
10, 70560, Note_off_c, 14, 48, 64
10, 70560, Note_on_c, 14, 53, 84
10, 71040, Note_off_c, 14, 53, 64
10, 71040, Note_on_c, 14, 50, 76
10, 71520, Note_off_c, 14, 50, 64
10, 71520, Note_on_c, 14, 55, 68
10, 72000, Note_off_c, 14, 55, 64
10, 72000, Note_on_c, 14, 48, 60
10, 72480, Note_off_c, 14, 48, 64
10, 72840, Note_on_c, 14, 48, 45
10, 72960, Note_off_c, 14, 48, 64
10, 72960, Note_on_c, 14, 47, 45
10, 73320, Note_off_c, 14, 47, 64
10, 73320, Note_on_c, 14, 50, 45
10, 73440, Note_off_c, 14, 50, 64
10, 73440, Note_on_c, 14, 43, 45
10, 73920, Note_off_c, 14, 43, 64
10, 73920, Note_on_c, 14, 55, 45
10, 74400, Note_off_c, 14, 55, 64
10, 74400, Note_on_c, 14, 52, 45
10, 74880, Note_off_c, 14, 52, 64
10, 74880, Note_on_c, 14, 47, 45
10, 75360, Note_off_c, 14, 47, 64
10, 75360, Note_on_c, 14, 52, 45
10, 75840, Note_off_c, 14, 52, 64
10, 75840, Note_on_c, 14, 40, 45
10, 76320, Note_off_c, 14, 40, 64
10, 76320, Note_on_c, 14, 45, 45
10, 76800, Note_off_c, 14, 45, 64
10, 76800, Note_on_c, 14, 47, 45
10, 77280, Note_off_c, 14, 47, 64
10, 77280, Note_on_c, 14, 48, 45
10, 77760, Note_off_c, 14, 48, 64
10, 77760, Note_on_c, 14, 50, 45
10, 78240, Note_off_c, 14, 50, 64
10, 78600, Note_on_c, 14, 50, 45
10, 78720, Note_off_c, 14, 50, 64
10, 78720, Note_on_c, 14, 50, 45
10, 79080, Note_off_c, 14, 50, 64
10, 79080, Note_on_c, 14, 50, 45
10, 79200, Note_off_c, 14, 50, 64
10, 79200, Note_on_c, 14, 50, 45
10, 79680, Note_off_c, 14, 50, 64
10, 80040, Note_on_c, 14, 50, 45
10, 80160, Note_off_c, 14, 50, 64
10, 80160, Note_on_c, 14, 50, 45
10, 80520, Note_off_c, 14, 50, 64
10, 80520, Note_on_c, 14, 50, 45
10, 80640, Note_off_c, 14, 50, 64
10, 80640, Note_on_c, 14, 55, 45
10, 81120, Note_off_c, 14, 55, 64
10, 81120, Note_on_c, 14, 54, 45
10, 81600, Note_off_c, 14, 54, 64
10, 81600, Note_on_c, 14, 52, 45
10, 82080, Note_off_c, 14, 52, 64
10, 82080, Note_on_c, 14, 59, 45
10, 82560, Note_off_c, 14, 59, 64
10, 82560, Note_on_c, 14, 47, 45
10, 83040, Note_off_c, 14, 47, 64
10, 83040, Note_on_c, 14, 52, 45
10, 83520, Note_off_c, 14, 52, 64
10, 83520, Note_on_c, 14, 48, 45
10, 84000, Note_off_c, 14, 48, 64
10, 84000, Note_on_c, 14, 50, 45
10, 84480, Note_off_c, 14, 50, 64
10, 84480, Note_on_c, 14, 38, 45
10, 84960, Note_off_c, 14, 38, 64
10, 84960, Note_on_c, 14, 43, 45
10, 91200, Note_off_c, 14, 43, 64
10, 91200, Note_on_c, 14, 55, 45
10, 91680, Note_off_c, 14, 55, 64
10, 91680, Note_on_c, 14, 52, 45
10, 92160, Note_off_c, 14, 52, 64
10, 92160, Note_on_c, 14, 47, 45
10, 92640, Note_off_c, 14, 47, 64
10, 92640, Note_on_c, 14, 52, 45
10, 93120, Note_off_c, 14, 52, 64
10, 93120, Note_on_c, 14, 40, 45
10, 93600, Note_off_c, 14, 40, 64
10, 93600, Note_on_c, 14, 45, 45
10, 94080, Note_off_c, 14, 45, 64
10, 94080, Note_on_c, 14, 47, 45
10, 94560, Note_off_c, 14, 47, 64
10, 94560, Note_on_c, 14, 48, 45
10, 95040, Note_off_c, 14, 48, 64
10, 95040, Note_on_c, 14, 50, 45
10, 95520, Note_off_c, 14, 50, 64
10, 95520, Note_on_c, 14, 54, 45
10, 96000, Note_off_c, 14, 54, 64
10, 96000, Note_on_c, 14, 50, 45
10, 96480, Note_off_c, 14, 50, 64
10, 96480, Note_on_c, 14, 55, 45
10, 96960, Note_off_c, 14, 55, 64
10, 96960, Note_on_c, 14, 52, 45
10, 97440, Note_off_c, 14, 52, 64
10, 97440, Note_on_c, 14, 48, 45
10, 97920, Note_off_c, 14, 48, 64
10, 97920, Note_on_c, 14, 47, 45
10, 98400, Note_off_c, 14, 47, 64
10, 98400, Note_on_c, 14, 52, 45
10, 98880, Note_off_c, 14, 52, 64
10, 98880, Note_on_c, 14, 50, 45
10, 99360, Note_off_c, 14, 50, 64
10, 99360, Note_on_c, 14, 48, 45
10, 99840, Note_off_c, 14, 48, 64
10, 99840, Note_on_c, 14, 49, 45
10, 100320, Note_off_c, 14, 49, 64
10, 100320, Note_on_c, 14, 50, 45
10, 100800, Note_off_c, 14, 50, 64
10, 100800, Note_on_c, 14, 43, 45
10, 102240, Note_off_c, 14, 43, 64
10, 102240, End_track
11, 0, Start_track
11, 0, MIDI_port, 0
11, 0, Channel_prefix, 14
11, 0, Control_c, 14, 7, 127
11, 0, Control_c, 14, 10, 64
11, 0, Control_c, 14, 91, 117
11, 0, Program_c, 14, 32
11, 0, Note_on_c, 14, 31, 45
11, 400, Note_off_c, 14, 31, 64
11, 480, Note_on_c, 14, 43, 45
11, 880, Note_off_c, 14, 43, 64
11, 960, Note_on_c, 14, 40, 45
11, 1360, Note_off_c, 14, 40, 64
11, 1440, Note_on_c, 14, 35, 45
11, 1840, Note_off_c, 14, 35, 64
11, 1920, Note_on_c, 14, 40, 45
11, 2320, Note_off_c, 14, 40, 64
11, 2400, Note_on_c, 14, 28, 45
11, 2800, Note_off_c, 14, 28, 64
11, 2880, Note_on_c, 14, 33, 45
11, 3280, Note_off_c, 14, 33, 64
11, 3360, Note_on_c, 14, 35, 45
11, 3760, Note_off_c, 14, 35, 64
11, 3840, Note_on_c, 14, 36, 45
11, 4240, Note_off_c, 14, 36, 64
11, 4320, Note_on_c, 14, 38, 45
11, 4720, Note_off_c, 14, 38, 64
11, 4800, Note_on_c, 14, 42, 45
11, 5200, Note_off_c, 14, 42, 64
11, 5280, Note_on_c, 14, 38, 45
11, 5680, Note_off_c, 14, 38, 64
11, 5760, Note_on_c, 14, 43, 45
11, 6160, Note_off_c, 14, 43, 64
11, 6240, Note_on_c, 14, 40, 45
11, 6640, Note_off_c, 14, 40, 64
11, 6720, Note_on_c, 14, 36, 45
11, 7120, Note_off_c, 14, 36, 64
11, 7200, Note_on_c, 14, 35, 45
11, 7600, Note_off_c, 14, 35, 64
11, 7680, Note_on_c, 14, 40, 45
11, 8080, Note_off_c, 14, 40, 64
11, 8160, Note_on_c, 14, 38, 45
11, 8560, Note_off_c, 14, 38, 64
11, 8640, Note_on_c, 14, 36, 45
11, 9040, Note_off_c, 14, 36, 64
11, 9120, Note_on_c, 14, 37, 45
11, 9520, Note_off_c, 14, 37, 64
11, 9600, Note_on_c, 14, 38, 45
11, 10000, Note_off_c, 14, 38, 64
11, 10080, Note_on_c, 14, 31, 45
11, 10480, Note_off_c, 14, 31, 64
11, 10920, Note_on_c, 14, 43, 45
11, 11000, Note_off_c, 14, 43, 64
11, 11040, Note_on_c, 14, 38, 45
11, 11395, Note_off_c, 14, 38, 64
11, 11400, Note_on_c, 14, 35, 45
11, 11480, Note_off_c, 14, 35, 64
11, 11520, Note_on_c, 14, 31, 45
11, 11920, Note_off_c, 14, 31, 64
11, 12000, Note_on_c, 14, 42, 45
11, 12400, Note_off_c, 14, 42, 64
11, 12480, Note_on_c, 14, 40, 45
11, 12880, Note_off_c, 14, 40, 64
11, 12960, Note_on_c, 14, 42, 45
11, 13360, Note_off_c, 14, 42, 64
11, 13440, Note_on_c, 14, 40, 45
11, 13840, Note_off_c, 14, 40, 64
11, 13920, Note_on_c, 14, 38, 45
11, 14320, Note_off_c, 14, 38, 64
11, 14400, Note_on_c, 14, 40, 45
11, 14800, Note_off_c, 14, 40, 64
11, 14880, Note_on_c, 14, 42, 45
11, 15280, Note_off_c, 14, 42, 64
11, 15360, Note_on_c, 14, 43, 45
11, 15760, Note_off_c, 14, 43, 64
11, 15840, Note_on_c, 14, 38, 45
11, 16240, Note_off_c, 14, 38, 64
11, 16680, Note_on_c, 14, 38, 45
11, 16760, Note_off_c, 14, 38, 64
11, 16800, Note_on_c, 14, 38, 45
11, 17155, Note_off_c, 14, 38, 64
11, 17160, Note_on_c, 14, 38, 45
11, 17240, Note_off_c, 14, 38, 64
11, 17280, Note_on_c, 14, 26, 45
11, 17680, Note_off_c, 14, 26, 64
11, 18120, Note_on_c, 14, 38, 45
11, 18200, Note_off_c, 14, 38, 64
11, 18240, Note_on_c, 14, 38, 45
11, 18595, Note_off_c, 14, 38, 64
11, 18600, Note_on_c, 14, 38, 45
11, 18680, Note_off_c, 14, 38, 64
11, 18720, Note_on_c, 14, 43, 45
11, 19120, Note_off_c, 14, 43, 64
11, 19200, Note_on_c, 14, 42, 45
11, 19600, Note_off_c, 14, 42, 64
11, 19680, Note_on_c, 14, 40, 45
11, 20080, Note_off_c, 14, 40, 64
11, 20160, Note_on_c, 14, 47, 45
11, 20560, Note_off_c, 14, 47, 64
11, 20640, Note_on_c, 14, 35, 45
11, 21040, Note_off_c, 14, 35, 64
11, 21120, Note_on_c, 14, 40, 45
11, 21520, Note_off_c, 14, 40, 64
11, 21600, Note_on_c, 14, 36, 45
11, 22000, Note_off_c, 14, 36, 64
11, 22080, Note_on_c, 14, 38, 45
11, 22480, Note_off_c, 14, 38, 64
11, 22560, Note_on_c, 14, 26, 45
11, 22960, Note_off_c, 14, 26, 64
11, 23040, Note_on_c, 14, 31, 45
11, 23440, Note_off_c, 14, 31, 64
11, 23520, Note_on_c, 14, 43, 45
11, 23920, Note_off_c, 14, 43, 64
11, 24000, Note_on_c, 14, 40, 45
11, 24400, Note_off_c, 14, 40, 64
11, 24480, Note_on_c, 14, 35, 45
11, 24880, Note_off_c, 14, 35, 64
11, 24960, Note_on_c, 14, 40, 45
11, 25360, Note_off_c, 14, 40, 64
11, 25440, Note_on_c, 14, 28, 45
11, 25840, Note_off_c, 14, 28, 64
11, 25920, Note_on_c, 14, 33, 45
11, 26320, Note_off_c, 14, 33, 64
11, 26400, Note_on_c, 14, 35, 45
11, 26800, Note_off_c, 14, 35, 64
11, 26880, Note_on_c, 14, 36, 45
11, 27280, Note_off_c, 14, 36, 64
11, 27360, Note_on_c, 14, 38, 45
11, 27760, Note_off_c, 14, 38, 64
11, 27840, Note_on_c, 14, 42, 45
11, 28240, Note_off_c, 14, 42, 64
11, 28320, Note_on_c, 14, 38, 45
11, 28720, Note_off_c, 14, 38, 64
11, 28800, Note_on_c, 14, 43, 45
11, 29200, Note_off_c, 14, 43, 64
11, 29280, Note_on_c, 14, 40, 45
11, 29680, Note_off_c, 14, 40, 64
11, 29760, Note_on_c, 14, 36, 45
11, 30160, Note_off_c, 14, 36, 64
11, 30240, Note_on_c, 14, 35, 45
11, 30640, Note_off_c, 14, 35, 64
11, 30720, Note_on_c, 14, 40, 45
11, 31120, Note_off_c, 14, 40, 64
11, 31200, Note_on_c, 14, 38, 45
11, 31600, Note_off_c, 14, 38, 64
11, 31680, Note_on_c, 14, 36, 45
11, 32080, Note_off_c, 14, 36, 64
11, 32160, Note_on_c, 14, 37, 45
11, 32560, Note_off_c, 14, 37, 64
11, 32640, Note_on_c, 14, 38, 45
11, 33040, Note_off_c, 14, 38, 64
11, 33120, Note_on_c, 14, 31, 45
11, 33600, Note_off_c, 14, 31, 64
11, 33600, Note_on_c, 14, 42, 45
11, 34000, Note_off_c, 14, 42, 64
11, 34080, Note_on_c, 14, 40, 45
11, 34480, Note_off_c, 14, 40, 64
11, 34560, Note_on_c, 14, 42, 45
11, 35040, Note_off_c, 14, 42, 64
11, 35040, Note_on_c, 14, 40, 45
11, 35440, Note_off_c, 14, 40, 64
11, 35520, Note_on_c, 14, 38, 45
11, 35920, Note_off_c, 14, 38, 64
11, 36000, Note_on_c, 14, 40, 45
11, 36480, Note_off_c, 14, 40, 64
11, 36480, Note_on_c, 14, 42, 45
11, 36880, Note_off_c, 14, 42, 64
11, 36960, Note_on_c, 14, 43, 45
11, 37360, Note_off_c, 14, 43, 64
11, 37440, Note_on_c, 14, 38, 45
11, 37840, Note_off_c, 14, 38, 64
11, 38280, Note_on_c, 14, 38, 45
11, 38360, Note_off_c, 14, 38, 64
11, 38400, Note_on_c, 14, 38, 45
11, 38755, Note_off_c, 14, 38, 64
11, 38760, Note_on_c, 14, 38, 45
11, 38840, Note_off_c, 14, 38, 64
11, 38880, Note_on_c, 14, 26, 45
11, 39280, Note_off_c, 14, 26, 64
11, 39720, Note_on_c, 14, 38, 45
11, 39800, Note_off_c, 14, 38, 64
11, 39840, Note_on_c, 14, 38, 45
11, 40195, Note_off_c, 14, 38, 64
11, 40200, Note_on_c, 14, 38, 45
11, 40280, Note_off_c, 14, 38, 64
11, 40320, Note_on_c, 14, 43, 45
11, 40800, Note_off_c, 14, 43, 64
11, 40800, Note_on_c, 14, 42, 45
11, 41200, Note_off_c, 14, 42, 64
11, 41280, Note_on_c, 14, 40, 45
11, 41680, Note_off_c, 14, 40, 64
11, 41760, Note_on_c, 14, 47, 45
11, 42240, Note_off_c, 14, 47, 64
11, 42240, Note_on_c, 14, 35, 45
11, 42640, Note_off_c, 14, 35, 64
11, 42720, Note_on_c, 14, 40, 45
11, 43120, Note_off_c, 14, 40, 64
11, 43200, Note_on_c, 14, 36, 45
11, 43680, Note_off_c, 14, 36, 64
11, 43680, Note_on_c, 14, 38, 45
11, 44080, Note_off_c, 14, 38, 64
11, 44160, Note_on_c, 14, 26, 45
11, 44560, Note_off_c, 14, 26, 64
11, 44640, Note_on_c, 14, 31, 45
11, 45040, Note_off_c, 14, 31, 64
11, 45120, Note_on_c, 14, 43, 46
11, 45520, Note_off_c, 14, 43, 64
11, 45600, Note_on_c, 14, 40, 47
11, 46000, Note_off_c, 14, 40, 64
11, 46080, Note_on_c, 14, 35, 48
11, 46480, Note_off_c, 14, 35, 64
11, 46560, Note_on_c, 14, 40, 49
11, 46960, Note_off_c, 14, 40, 64
11, 47040, Note_on_c, 14, 28, 50
11, 47440, Note_off_c, 14, 28, 64
11, 47520, Note_on_c, 14, 33, 51
11, 47920, Note_off_c, 14, 33, 64
11, 48000, Note_on_c, 14, 35, 52
11, 48400, Note_off_c, 14, 35, 64
11, 48480, Note_on_c, 14, 36, 53
11, 48880, Note_off_c, 14, 36, 64
11, 48960, Note_on_c, 14, 38, 54
11, 49360, Note_off_c, 14, 38, 64
11, 49440, Note_on_c, 14, 42, 55
11, 49840, Note_off_c, 14, 42, 64
11, 49920, Note_on_c, 14, 38, 56
11, 50320, Note_off_c, 14, 38, 64
11, 50400, Note_on_c, 14, 43, 57
11, 50800, Note_off_c, 14, 43, 64
11, 50880, Note_on_c, 14, 40, 58
11, 51280, Note_off_c, 14, 40, 64
11, 51360, Note_on_c, 14, 36, 59
11, 51760, Note_off_c, 14, 36, 64
11, 51840, Note_on_c, 14, 35, 60
11, 52240, Note_off_c, 14, 35, 64
11, 52320, Note_on_c, 14, 40, 61
11, 52720, Note_off_c, 14, 40, 64
11, 52800, Note_on_c, 14, 38, 62
11, 53200, Note_off_c, 14, 38, 64
11, 53280, Note_on_c, 14, 36, 63
11, 53680, Note_off_c, 14, 36, 64
11, 53760, Note_on_c, 14, 37, 65
11, 54160, Note_off_c, 14, 37, 64
11, 54240, Note_on_c, 14, 38, 67
11, 54640, Note_off_c, 14, 38, 64
11, 54720, Note_on_c, 14, 31, 69
11, 55120, Note_off_c, 14, 31, 64
11, 55560, Note_on_c, 14, 43, 72
11, 55640, Note_off_c, 14, 43, 64
11, 55680, Note_on_c, 14, 42, 72
11, 56035, Note_off_c, 14, 42, 64
11, 56040, Note_on_c, 14, 40, 74
11, 56120, Note_off_c, 14, 40, 64
11, 56160, Note_on_c, 14, 38, 75
11, 56560, Note_off_c, 14, 38, 64
11, 56640, Note_on_c, 14, 36, 75
11, 57040, Note_off_c, 14, 36, 64
11, 57120, Note_on_c, 14, 35, 75
11, 57520, Note_off_c, 14, 35, 64
11, 57600, Note_on_c, 14, 33, 75
11, 58000, Note_off_c, 14, 33, 64
11, 58080, Note_on_c, 14, 45, 75
11, 58315, Note_off_c, 14, 45, 64
11, 58320, Note_on_c, 14, 43, 75
11, 58555, Note_off_c, 14, 43, 64
11, 58560, Note_on_c, 14, 41, 75
11, 58795, Note_off_c, 14, 41, 64
11, 58800, Note_on_c, 14, 40, 75
11, 59035, Note_off_c, 14, 40, 64
11, 59040, Note_on_c, 14, 38, 75
11, 59440, Note_off_c, 14, 38, 64
11, 59520, Note_on_c, 14, 35, 75
11, 59920, Note_off_c, 14, 35, 64
11, 60000, Note_on_c, 14, 40, 75
11, 60400, Note_off_c, 14, 40, 64
11, 60480, Note_on_c, 14, 33, 75
11, 60880, Note_off_c, 14, 33, 64
11, 60960, Note_on_c, 14, 41, 76
11, 61360, Note_off_c, 14, 41, 64
11, 61440, Note_on_c, 14, 38, 78
11, 61840, Note_off_c, 14, 38, 64
11, 61920, Note_on_c, 14, 36, 80
11, 62320, Note_off_c, 14, 36, 64
11, 62400, Note_on_c, 14, 41, 82
11, 62800, Note_off_c, 14, 41, 64
11, 62880, Note_on_c, 14, 40, 84
11, 63280, Note_off_c, 14, 40, 64
11, 63360, Note_on_c, 14, 38, 86
11, 63760, Note_off_c, 14, 38, 64
11, 63840, Note_on_c, 14, 39, 88
11, 64240, Note_off_c, 14, 39, 64
11, 64320, Note_on_c, 14, 40, 90
11, 64720, Note_off_c, 14, 40, 64
11, 64800, Note_on_c, 14, 33, 92
11, 65200, Note_off_c, 14, 33, 64
11, 65280, Note_on_c, 14, 45, 92
11, 65680, Note_off_c, 14, 45, 64
11, 65760, Note_on_c, 14, 47, 92
11, 66160, Note_off_c, 14, 47, 64
11, 66240, Note_on_c, 14, 48, 92
11, 66640, Note_off_c, 14, 48, 64
11, 66720, Note_on_c, 14, 45, 92
11, 67120, Note_off_c, 14, 45, 64
11, 67200, Note_on_c, 14, 40, 92
11, 67600, Note_off_c, 14, 40, 64
11, 67680, Note_on_c, 14, 41, 92
11, 68080, Note_off_c, 14, 41, 64
11, 68160, Note_on_c, 14, 38, 92
11, 68560, Note_off_c, 14, 38, 64
11, 68640, Note_on_c, 14, 43, 92
11, 69040, Note_off_c, 14, 43, 64
11, 69120, Note_on_c, 14, 36, 92
11, 69520, Note_off_c, 14, 36, 64
11, 69600, Note_on_c, 14, 40, 92
11, 70000, Note_off_c, 14, 40, 64
11, 70080, Note_on_c, 14, 36, 92
11, 70480, Note_off_c, 14, 36, 64
11, 70560, Note_on_c, 14, 41, 84
11, 70960, Note_off_c, 14, 41, 64
11, 71040, Note_on_c, 14, 38, 76
11, 71440, Note_off_c, 14, 38, 64
11, 71520, Note_on_c, 14, 43, 68
11, 71920, Note_off_c, 14, 43, 64
11, 72000, Note_on_c, 14, 36, 60
11, 72400, Note_off_c, 14, 36, 64
11, 72840, Note_on_c, 14, 36, 45
11, 72920, Note_off_c, 14, 36, 64
11, 72960, Note_on_c, 14, 35, 45
11, 73315, Note_off_c, 14, 35, 64
11, 73320, Note_on_c, 14, 38, 45
11, 73400, Note_off_c, 14, 38, 64
11, 73440, Note_on_c, 14, 31, 45
11, 73840, Note_off_c, 14, 31, 64
11, 73920, Note_on_c, 14, 43, 45
11, 74320, Note_off_c, 14, 43, 64
11, 74400, Note_on_c, 14, 40, 45
11, 74800, Note_off_c, 14, 40, 64
11, 74880, Note_on_c, 14, 35, 45
11, 75280, Note_off_c, 14, 35, 64
11, 75360, Note_on_c, 14, 40, 45
11, 75760, Note_off_c, 14, 40, 64
11, 75840, Note_on_c, 14, 28, 45
11, 76240, Note_off_c, 14, 28, 64
11, 76320, Note_on_c, 14, 33, 45
11, 76720, Note_off_c, 14, 33, 64
11, 76800, Note_on_c, 14, 35, 45
11, 77200, Note_off_c, 14, 35, 64
11, 77280, Note_on_c, 14, 36, 45
11, 77680, Note_off_c, 14, 36, 64
11, 77760, Note_on_c, 14, 38, 45
11, 78160, Note_off_c, 14, 38, 64
11, 78600, Note_on_c, 14, 38, 45
11, 78680, Note_off_c, 14, 38, 64
11, 78720, Note_on_c, 14, 38, 45
11, 79075, Note_off_c, 14, 38, 64
11, 79080, Note_on_c, 14, 38, 45
11, 79160, Note_off_c, 14, 38, 64
11, 79200, Note_on_c, 14, 38, 45
11, 79600, Note_off_c, 14, 38, 64
11, 80040, Note_on_c, 14, 38, 45
11, 80120, Note_off_c, 14, 38, 64
11, 80160, Note_on_c, 14, 38, 45
11, 80515, Note_off_c, 14, 38, 64
11, 80520, Note_on_c, 14, 38, 45
11, 80600, Note_off_c, 14, 38, 64
11, 80640, Note_on_c, 14, 43, 45
11, 81040, Note_off_c, 14, 43, 64
11, 81120, Note_on_c, 14, 42, 45
11, 81520, Note_off_c, 14, 42, 64
11, 81600, Note_on_c, 14, 40, 45
11, 82000, Note_off_c, 14, 40, 64
11, 82080, Note_on_c, 14, 47, 45
11, 82480, Note_off_c, 14, 47, 64
11, 82560, Note_on_c, 14, 35, 45
11, 82960, Note_off_c, 14, 35, 64
11, 83040, Note_on_c, 14, 40, 45
11, 83440, Note_off_c, 14, 40, 64
11, 83520, Note_on_c, 14, 36, 45
11, 83920, Note_off_c, 14, 36, 64
11, 84000, Note_on_c, 14, 38, 45
11, 84400, Note_off_c, 14, 38, 64
11, 84480, Note_on_c, 14, 26, 45
11, 84880, Note_off_c, 14, 26, 64
11, 84960, Note_on_c, 14, 31, 45
11, 91120, Note_off_c, 14, 31, 64
11, 91200, Note_on_c, 14, 43, 45
11, 91600, Note_off_c, 14, 43, 64
11, 91680, Note_on_c, 14, 40, 45
11, 92080, Note_off_c, 14, 40, 64
11, 92160, Note_on_c, 14, 35, 45
11, 92560, Note_off_c, 14, 35, 64
11, 92640, Note_on_c, 14, 40, 45
11, 93040, Note_off_c, 14, 40, 64
11, 93120, Note_on_c, 14, 28, 45
11, 93520, Note_off_c, 14, 28, 64
11, 93600, Note_on_c, 14, 33, 45
11, 94000, Note_off_c, 14, 33, 64
11, 94080, Note_on_c, 14, 35, 45
11, 94480, Note_off_c, 14, 35, 64
11, 94560, Note_on_c, 14, 36, 45
11, 94960, Note_off_c, 14, 36, 64
11, 95040, Note_on_c, 14, 38, 45
11, 95440, Note_off_c, 14, 38, 64
11, 95520, Note_on_c, 14, 42, 45
11, 95920, Note_off_c, 14, 42, 64
11, 96000, Note_on_c, 14, 38, 45
11, 96400, Note_off_c, 14, 38, 64
11, 96480, Note_on_c, 14, 43, 45
11, 96880, Note_off_c, 14, 43, 64
11, 96960, Note_on_c, 14, 40, 45
11, 97360, Note_off_c, 14, 40, 64
11, 97440, Note_on_c, 14, 36, 45
11, 97840, Note_off_c, 14, 36, 64
11, 97920, Note_on_c, 14, 35, 45
11, 98320, Note_off_c, 14, 35, 64
11, 98400, Note_on_c, 14, 40, 45
11, 98800, Note_off_c, 14, 40, 64
11, 98880, Note_on_c, 14, 38, 45
11, 99280, Note_off_c, 14, 38, 64
11, 99360, Note_on_c, 14, 36, 45
11, 99760, Note_off_c, 14, 36, 64
11, 99840, Note_on_c, 14, 37, 45
11, 100240, Note_off_c, 14, 37, 64
11, 100320, Note_on_c, 14, 38, 45
11, 100720, Note_off_c, 14, 38, 64
11, 100800, Note_on_c, 14, 31, 45
11, 102120, Note_off_c, 14, 31, 64
11, 102120, End_track
12, 0, Start_track
12, 0, MIDI_port, 0
12, 0, Channel_prefix, 15
12, 0, Control_c, 15, 7, 127
12, 0, Control_c, 15, 10, 120
12, 0, Control_c, 15, 91, 117
12, 0, Program_c, 15, 48
12, 0, Note_on_c, 15, 31, 45
12, 480, Note_off_c, 15, 31, 64
12, 480, Note_on_c, 15, 43, 45
12, 960, Note_off_c, 15, 43, 64
12, 960, Note_on_c, 15, 40, 45
12, 1440, Note_off_c, 15, 40, 64
12, 1440, Note_on_c, 15, 35, 45
12, 1920, Note_off_c, 15, 35, 64
12, 1920, Note_on_c, 15, 40, 45
12, 2400, Note_off_c, 15, 40, 64
12, 2400, Note_on_c, 15, 28, 45
12, 2880, Note_off_c, 15, 28, 64
12, 2880, Note_on_c, 15, 33, 45
12, 3360, Note_off_c, 15, 33, 64
12, 3360, Note_on_c, 15, 35, 45
12, 3840, Note_off_c, 15, 35, 64
12, 3840, Note_on_c, 15, 36, 45
12, 4320, Note_off_c, 15, 36, 64
12, 4320, Note_on_c, 15, 38, 45
12, 4800, Note_off_c, 15, 38, 64
12, 4800, Note_on_c, 15, 42, 45
12, 5280, Note_off_c, 15, 42, 64
12, 5280, Note_on_c, 15, 38, 45
12, 5760, Note_off_c, 15, 38, 64
12, 5760, Note_on_c, 15, 43, 45
12, 6240, Note_off_c, 15, 43, 64
12, 6240, Note_on_c, 15, 40, 45
12, 6720, Note_off_c, 15, 40, 64
12, 6720, Note_on_c, 15, 36, 45
12, 7200, Note_off_c, 15, 36, 64
12, 7200, Note_on_c, 15, 35, 45
12, 7680, Note_off_c, 15, 35, 64
12, 7680, Note_on_c, 15, 40, 45
12, 8160, Note_off_c, 15, 40, 64
12, 8160, Note_on_c, 15, 38, 45
12, 8640, Note_off_c, 15, 38, 64
12, 8640, Note_on_c, 15, 36, 45
12, 9120, Note_off_c, 15, 36, 64
12, 9120, Note_on_c, 15, 37, 45
12, 9600, Note_off_c, 15, 37, 64
12, 9600, Note_on_c, 15, 38, 45
12, 10080, Note_off_c, 15, 38, 64
12, 10080, Note_on_c, 15, 31, 45
12, 10560, Note_off_c, 15, 31, 64
12, 10920, Note_on_c, 15, 43, 45
12, 11000, Note_off_c, 15, 43, 64
12, 11040, Note_on_c, 15, 38, 45
12, 11400, Note_off_c, 15, 38, 64
12, 11400, Note_on_c, 15, 35, 45
12, 11480, Note_off_c, 15, 35, 64
12, 11520, Note_on_c, 15, 31, 45
12, 12000, Note_off_c, 15, 31, 64
12, 12000, Note_on_c, 15, 42, 45
12, 12480, Note_off_c, 15, 42, 64
12, 12480, Note_on_c, 15, 40, 45
12, 12960, Note_off_c, 15, 40, 64
12, 12960, Note_on_c, 15, 42, 45
12, 13440, Note_off_c, 15, 42, 64
12, 13440, Note_on_c, 15, 40, 45
12, 13920, Note_off_c, 15, 40, 64
12, 13920, Note_on_c, 15, 38, 45
12, 14400, Note_off_c, 15, 38, 64
12, 14400, Note_on_c, 15, 40, 45
12, 14880, Note_off_c, 15, 40, 64
12, 14880, Note_on_c, 15, 42, 45
12, 15360, Note_off_c, 15, 42, 64
12, 15360, Note_on_c, 15, 43, 45
12, 15840, Note_off_c, 15, 43, 64
12, 15840, Note_on_c, 15, 38, 45
12, 16320, Note_off_c, 15, 38, 64
12, 16680, Note_on_c, 15, 38, 45
12, 16760, Note_off_c, 15, 38, 64
12, 16800, Note_on_c, 15, 38, 45
12, 17160, Note_off_c, 15, 38, 64
12, 17160, Note_on_c, 15, 38, 45
12, 17240, Note_off_c, 15, 38, 64
12, 17280, Note_on_c, 15, 26, 45
12, 17760, Note_off_c, 15, 26, 64
12, 18120, Note_on_c, 15, 38, 45
12, 18200, Note_off_c, 15, 38, 64
12, 18240, Note_on_c, 15, 38, 45
12, 18600, Note_off_c, 15, 38, 64
12, 18600, Note_on_c, 15, 38, 45
12, 18680, Note_off_c, 15, 38, 64
12, 18720, Note_on_c, 15, 43, 45
12, 19200, Note_off_c, 15, 43, 64
12, 19200, Note_on_c, 15, 42, 45
12, 19680, Note_off_c, 15, 42, 64
12, 19680, Note_on_c, 15, 40, 45
12, 20160, Note_off_c, 15, 40, 64
12, 20160, Note_on_c, 15, 47, 45
12, 20640, Note_off_c, 15, 47, 64
12, 20640, Note_on_c, 15, 35, 45
12, 21120, Note_off_c, 15, 35, 64
12, 21120, Note_on_c, 15, 40, 45
12, 21600, Note_off_c, 15, 40, 64
12, 21600, Note_on_c, 15, 36, 45
12, 22080, Note_off_c, 15, 36, 64
12, 22080, Note_on_c, 15, 38, 45
12, 22560, Note_off_c, 15, 38, 64
12, 22560, Note_on_c, 15, 26, 45
12, 23040, Note_off_c, 15, 26, 64
12, 23040, Note_on_c, 15, 31, 45
12, 23520, Note_off_c, 15, 31, 64
12, 23520, Note_on_c, 15, 43, 45
12, 24000, Note_off_c, 15, 43, 64
12, 24000, Note_on_c, 15, 40, 45
12, 24480, Note_off_c, 15, 40, 64
12, 24480, Note_on_c, 15, 35, 45
12, 24960, Note_off_c, 15, 35, 64
12, 24960, Note_on_c, 15, 40, 45
12, 25440, Note_off_c, 15, 40, 64
12, 25440, Note_on_c, 15, 28, 45
12, 25920, Note_off_c, 15, 28, 64
12, 25920, Note_on_c, 15, 33, 45
12, 26400, Note_off_c, 15, 33, 64
12, 26400, Note_on_c, 15, 35, 45
12, 26880, Note_off_c, 15, 35, 64
12, 26880, Note_on_c, 15, 36, 45
12, 27360, Note_off_c, 15, 36, 64
12, 27360, Note_on_c, 15, 38, 45
12, 27840, Note_off_c, 15, 38, 64
12, 27840, Note_on_c, 15, 42, 45
12, 28320, Note_off_c, 15, 42, 64
12, 28320, Note_on_c, 15, 38, 45
12, 28800, Note_off_c, 15, 38, 64
12, 28800, Note_on_c, 15, 43, 45
12, 29280, Note_off_c, 15, 43, 64
12, 29280, Note_on_c, 15, 40, 45
12, 29760, Note_off_c, 15, 40, 64
12, 29760, Note_on_c, 15, 36, 45
12, 30240, Note_off_c, 15, 36, 64
12, 30240, Note_on_c, 15, 35, 45
12, 30720, Note_off_c, 15, 35, 64
12, 30720, Note_on_c, 15, 40, 45
12, 31200, Note_off_c, 15, 40, 64
12, 31200, Note_on_c, 15, 38, 45
12, 31680, Note_off_c, 15, 38, 64
12, 31680, Note_on_c, 15, 36, 45
12, 32160, Note_off_c, 15, 36, 64
12, 32160, Note_on_c, 15, 37, 45
12, 32640, Note_off_c, 15, 37, 64
12, 32640, Note_on_c, 15, 38, 45
12, 33120, Note_off_c, 15, 38, 64
12, 33120, Note_on_c, 15, 31, 45
12, 33600, Note_off_c, 15, 31, 64
12, 33600, Note_on_c, 15, 42, 45
12, 34080, Note_off_c, 15, 42, 64
12, 34080, Note_on_c, 15, 40, 45
12, 34560, Note_off_c, 15, 40, 64
12, 34560, Note_on_c, 15, 42, 45
12, 35040, Note_off_c, 15, 42, 64
12, 35040, Note_on_c, 15, 40, 45
12, 35520, Note_off_c, 15, 40, 64
12, 35520, Note_on_c, 15, 38, 45
12, 36000, Note_off_c, 15, 38, 64
12, 36000, Note_on_c, 15, 40, 45
12, 36480, Note_off_c, 15, 40, 64
12, 36480, Note_on_c, 15, 42, 45
12, 36960, Note_off_c, 15, 42, 64
12, 36960, Note_on_c, 15, 43, 45
12, 37440, Note_off_c, 15, 43, 64
12, 37440, Note_on_c, 15, 38, 45
12, 37920, Note_off_c, 15, 38, 64
12, 38280, Note_on_c, 15, 38, 45
12, 38360, Note_off_c, 15, 38, 64
12, 38400, Note_on_c, 15, 38, 45
12, 38755, Note_off_c, 15, 38, 64
12, 38760, Note_on_c, 15, 38, 45
12, 38840, Note_off_c, 15, 38, 64
12, 38880, Note_on_c, 15, 26, 45
12, 39280, Note_off_c, 15, 26, 64
12, 39720, Note_on_c, 15, 38, 45
12, 39800, Note_off_c, 15, 38, 64
12, 39840, Note_on_c, 15, 38, 45
12, 40200, Note_off_c, 15, 38, 64
12, 40200, Note_on_c, 15, 38, 45
12, 40280, Note_off_c, 15, 38, 64
12, 40320, Note_on_c, 15, 43, 45
12, 40800, Note_off_c, 15, 43, 64
12, 40800, Note_on_c, 15, 42, 45
12, 41280, Note_off_c, 15, 42, 64
12, 41280, Note_on_c, 15, 40, 45
12, 41760, Note_off_c, 15, 40, 64
12, 41760, Note_on_c, 15, 47, 45
12, 42240, Note_off_c, 15, 47, 64
12, 42240, Note_on_c, 15, 35, 45
12, 42720, Note_off_c, 15, 35, 64
12, 42720, Note_on_c, 15, 40, 45
12, 43200, Note_off_c, 15, 40, 64
12, 43200, Note_on_c, 15, 36, 45
12, 43680, Note_off_c, 15, 36, 64
12, 43680, Note_on_c, 15, 38, 45
12, 44160, Note_off_c, 15, 38, 64
12, 44160, Note_on_c, 15, 26, 45
12, 44640, Note_off_c, 15, 26, 64
12, 44640, Note_on_c, 15, 31, 45
12, 45120, Note_off_c, 15, 31, 64
12, 45120, Note_on_c, 15, 43, 46
12, 45600, Note_off_c, 15, 43, 64
12, 45600, Note_on_c, 15, 40, 47
12, 46080, Note_off_c, 15, 40, 64
12, 46080, Note_on_c, 15, 35, 48
12, 46560, Note_off_c, 15, 35, 64
12, 46560, Note_on_c, 15, 40, 49
12, 47040, Note_off_c, 15, 40, 64
12, 47040, Note_on_c, 15, 28, 50
12, 47520, Note_off_c, 15, 28, 64
12, 47520, Note_on_c, 15, 33, 51
12, 48000, Note_off_c, 15, 33, 64
12, 48000, Note_on_c, 15, 35, 52
12, 48480, Note_off_c, 15, 35, 64
12, 48480, Note_on_c, 15, 36, 53
12, 48960, Note_off_c, 15, 36, 64
12, 48960, Note_on_c, 15, 38, 54
12, 49440, Note_off_c, 15, 38, 64
12, 49440, Note_on_c, 15, 42, 55
12, 49920, Note_off_c, 15, 42, 64
12, 49920, Note_on_c, 15, 38, 56
12, 50400, Note_off_c, 15, 38, 64
12, 50400, Note_on_c, 15, 43, 57
12, 50880, Note_off_c, 15, 43, 64
12, 50880, Note_on_c, 15, 40, 58
12, 51360, Note_off_c, 15, 40, 64
12, 51360, Note_on_c, 15, 36, 59
12, 51840, Note_off_c, 15, 36, 64
12, 51840, Note_on_c, 15, 35, 60
12, 52320, Note_off_c, 15, 35, 64
12, 52320, Note_on_c, 15, 40, 61
12, 52800, Note_off_c, 15, 40, 64
12, 52800, Note_on_c, 15, 38, 62
12, 53280, Note_off_c, 15, 38, 64
12, 53280, Note_on_c, 15, 36, 63
12, 53760, Note_off_c, 15, 36, 64
12, 53760, Note_on_c, 15, 37, 65
12, 54240, Note_off_c, 15, 37, 64
12, 54240, Note_on_c, 15, 38, 67
12, 54720, Note_off_c, 15, 38, 64
12, 54720, Note_on_c, 15, 31, 69
12, 55200, Note_off_c, 15, 31, 64
12, 55560, Note_on_c, 15, 43, 72
12, 55640, Note_off_c, 15, 43, 64
12, 55680, Note_on_c, 15, 42, 72
12, 56040, Note_off_c, 15, 42, 64
12, 56040, Note_on_c, 15, 40, 74
12, 56120, Note_off_c, 15, 40, 64
12, 56160, Note_on_c, 15, 38, 75
12, 56640, Note_off_c, 15, 38, 64
12, 56640, Note_on_c, 15, 36, 75
12, 57120, Note_off_c, 15, 36, 64
12, 57120, Note_on_c, 15, 35, 75
12, 57600, Note_off_c, 15, 35, 64
12, 57600, Note_on_c, 15, 33, 75
12, 58080, Note_off_c, 15, 33, 64
12, 58080, Note_on_c, 15, 45, 75
12, 58320, Note_off_c, 15, 45, 64
12, 58320, Note_on_c, 15, 43, 75
12, 58560, Note_off_c, 15, 43, 64
12, 58560, Note_on_c, 15, 41, 75
12, 58800, Note_off_c, 15, 41, 64
12, 58800, Note_on_c, 15, 40, 75
12, 59040, Note_off_c, 15, 40, 64
12, 59040, Note_on_c, 15, 38, 75
12, 59520, Note_off_c, 15, 38, 64
12, 59520, Note_on_c, 15, 35, 75
12, 60000, Note_off_c, 15, 35, 64
12, 60000, Note_on_c, 15, 40, 75
12, 60480, Note_off_c, 15, 40, 64
12, 60480, Note_on_c, 15, 33, 75
12, 60960, Note_off_c, 15, 33, 64
12, 60960, Note_on_c, 15, 41, 76
12, 61440, Note_off_c, 15, 41, 64
12, 61440, Note_on_c, 15, 38, 78
12, 61920, Note_off_c, 15, 38, 64
12, 61920, Note_on_c, 15, 36, 80
12, 62400, Note_off_c, 15, 36, 64
12, 62400, Note_on_c, 15, 41, 82
12, 62880, Note_off_c, 15, 41, 64
12, 62880, Note_on_c, 15, 40, 84
12, 63360, Note_off_c, 15, 40, 64
12, 63360, Note_on_c, 15, 38, 86
12, 63840, Note_off_c, 15, 38, 64
12, 63840, Note_on_c, 15, 39, 88
12, 64320, Note_off_c, 15, 39, 64
12, 64320, Note_on_c, 15, 40, 90
12, 64800, Note_off_c, 15, 40, 64
12, 64800, Note_on_c, 15, 33, 92
12, 65280, Note_off_c, 15, 33, 64
12, 65280, Note_on_c, 15, 45, 92
12, 65760, Note_off_c, 15, 45, 64
12, 65760, Note_on_c, 15, 47, 92
12, 66240, Note_off_c, 15, 47, 64
12, 66240, Note_on_c, 15, 48, 92
12, 66720, Note_off_c, 15, 48, 64
12, 66720, Note_on_c, 15, 45, 92
12, 67200, Note_off_c, 15, 45, 64
12, 67200, Note_on_c, 15, 40, 92
12, 67680, Note_off_c, 15, 40, 64
12, 67680, Note_on_c, 15, 41, 92
12, 68160, Note_off_c, 15, 41, 64
12, 68160, Note_on_c, 15, 38, 92
12, 68640, Note_off_c, 15, 38, 64
12, 68640, Note_on_c, 15, 43, 92
12, 69120, Note_off_c, 15, 43, 64
12, 69120, Note_on_c, 15, 36, 92
12, 69600, Note_off_c, 15, 36, 64
12, 69600, Note_on_c, 15, 40, 92
12, 70080, Note_off_c, 15, 40, 64
12, 70080, Note_on_c, 15, 36, 92
12, 70560, Note_off_c, 15, 36, 64
12, 70560, Note_on_c, 15, 41, 84
12, 71040, Note_off_c, 15, 41, 64
12, 71040, Note_on_c, 15, 38, 76
12, 71520, Note_off_c, 15, 38, 64
12, 71520, Note_on_c, 15, 43, 68
12, 72000, Note_off_c, 15, 43, 64
12, 72000, Note_on_c, 15, 36, 60
12, 72480, Note_off_c, 15, 36, 64
12, 72840, Note_on_c, 15, 36, 45
12, 72920, Note_off_c, 15, 36, 64
12, 72960, Note_on_c, 15, 35, 45
12, 73320, Note_off_c, 15, 35, 64
12, 73320, Note_on_c, 15, 38, 45
12, 73400, Note_off_c, 15, 38, 64
12, 73440, Note_on_c, 15, 31, 45
12, 73920, Note_off_c, 15, 31, 64
12, 73920, Note_on_c, 15, 43, 45
12, 74400, Note_off_c, 15, 43, 64
12, 74400, Note_on_c, 15, 40, 45
12, 74880, Note_off_c, 15, 40, 64
12, 74880, Note_on_c, 15, 35, 45
12, 75360, Note_off_c, 15, 35, 64
12, 75360, Note_on_c, 15, 40, 45
12, 75840, Note_off_c, 15, 40, 64
12, 75840, Note_on_c, 15, 28, 45
12, 76320, Note_off_c, 15, 28, 64
12, 76320, Note_on_c, 15, 33, 45
12, 76800, Note_off_c, 15, 33, 64
12, 76800, Note_on_c, 15, 35, 45
12, 77280, Note_off_c, 15, 35, 64
12, 77280, Note_on_c, 15, 36, 45
12, 77760, Note_off_c, 15, 36, 64
12, 77760, Note_on_c, 15, 38, 45
12, 78240, Note_off_c, 15, 38, 64
12, 78600, Note_on_c, 15, 38, 45
12, 78680, Note_off_c, 15, 38, 64
12, 78720, Note_on_c, 15, 38, 45
12, 79080, Note_off_c, 15, 38, 64
12, 79080, Note_on_c, 15, 38, 45
12, 79160, Note_off_c, 15, 38, 64
12, 79200, Note_on_c, 15, 38, 45
12, 79680, Note_off_c, 15, 38, 64
12, 80040, Note_on_c, 15, 38, 45
12, 80120, Note_off_c, 15, 38, 64
12, 80160, Note_on_c, 15, 38, 45
12, 80520, Note_off_c, 15, 38, 64
12, 80520, Note_on_c, 15, 38, 45
12, 80600, Note_off_c, 15, 38, 64
12, 80640, Note_on_c, 15, 43, 45
12, 81120, Note_off_c, 15, 43, 64
12, 81120, Note_on_c, 15, 42, 45
12, 81600, Note_off_c, 15, 42, 64
12, 81600, Note_on_c, 15, 40, 45
12, 82080, Note_off_c, 15, 40, 64
12, 82080, Note_on_c, 15, 47, 45
12, 82560, Note_off_c, 15, 47, 64
12, 82560, Note_on_c, 15, 35, 45
12, 83040, Note_off_c, 15, 35, 64
12, 83040, Note_on_c, 15, 40, 45
12, 83520, Note_off_c, 15, 40, 64
12, 83520, Note_on_c, 15, 36, 45
12, 84000, Note_off_c, 15, 36, 64
12, 84000, Note_on_c, 15, 38, 45
12, 84480, Note_off_c, 15, 38, 64
12, 84480, Note_on_c, 15, 26, 45
12, 84960, Note_off_c, 15, 26, 64
12, 84960, Note_on_c, 15, 31, 45
12, 91200, Note_off_c, 15, 31, 64
12, 91200, Note_on_c, 15, 43, 45
12, 91680, Note_off_c, 15, 43, 64
12, 91680, Note_on_c, 15, 40, 45
12, 92160, Note_off_c, 15, 40, 64
12, 92160, Note_on_c, 15, 35, 45
12, 92640, Note_off_c, 15, 35, 64
12, 92640, Note_on_c, 15, 40, 45
12, 93120, Note_off_c, 15, 40, 64
12, 93120, Note_on_c, 15, 28, 45
12, 93600, Note_off_c, 15, 28, 64
12, 93600, Note_on_c, 15, 33, 45
12, 94080, Note_off_c, 15, 33, 64
12, 94080, Note_on_c, 15, 35, 45
12, 94560, Note_off_c, 15, 35, 64
12, 94560, Note_on_c, 15, 36, 45
12, 95040, Note_off_c, 15, 36, 64
12, 95040, Note_on_c, 15, 38, 45
12, 95520, Note_off_c, 15, 38, 64
12, 95520, Note_on_c, 15, 42, 45
12, 96000, Note_off_c, 15, 42, 64
12, 96000, Note_on_c, 15, 38, 45
12, 96480, Note_off_c, 15, 38, 64
12, 96480, Note_on_c, 15, 43, 45
12, 96960, Note_off_c, 15, 43, 64
12, 96960, Note_on_c, 15, 40, 45
12, 97440, Note_off_c, 15, 40, 64
12, 97440, Note_on_c, 15, 36, 45
12, 97920, Note_off_c, 15, 36, 64
12, 97920, Note_on_c, 15, 35, 45
12, 98400, Note_off_c, 15, 35, 64
12, 98400, Note_on_c, 15, 40, 45
12, 98880, Note_off_c, 15, 40, 64
12, 98880, Note_on_c, 15, 38, 45
12, 99360, Note_off_c, 15, 38, 64
12, 99360, Note_on_c, 15, 36, 45
12, 99840, Note_off_c, 15, 36, 64
12, 99840, Note_on_c, 15, 37, 45
12, 100320, Note_off_c, 15, 37, 64
12, 100320, Note_on_c, 15, 38, 45
12, 100800, Note_off_c, 15, 38, 64
12, 100800, Note_on_c, 15, 31, 45
12, 102240, Note_off_c, 15, 31, 64
12, 102240, End_track
0, 0, End_of_file
