0, 0, Header, 0, 1, 48
1, 0, Start_track
1, 0, Title_t, "J.S.Bach Violin Concert II E major BWV1042 2. Adagio."
1, 0, Time_signature, 3, 2, 24, 8
1, 0, Channel_prefix, 0
1, 0, Copyright_t, "Copyright 2000 by KCN"
1, 0, Channel_prefix, 0
1, 0, Title_t, "Violino concertato."
1, 0, Channel_prefix, 0
1, 0, Instrument_name_t, "Violin"
1, 0, System_exclusive, 5, 126, 127, 9, 1, 247
1, 0, Tempo, 1666666
1, 0, Program_c, 0, 40
1, 0, Channel_prefix, 1
1, 0, Title_t, "Violino I."
1, 0, Channel_prefix, 1
1, 0, Instrument_name_t, "Violin"
1, 0, Program_c, 1, 48
1, 0, Note_on_c, 1, 68, 88
1, 0, Channel_prefix, 2
1, 0, Title_t, "Violino II."
1, 0, Channel_prefix, 2
1, 0, Instrument_name_t, "Violin"
1, 0, Program_c, 2, 48
1, 0, Note_on_c, 2, 64, 88
1, 0, Channel_prefix, 3
1, 0, Title_t, "Viola."
1, 0, Channel_prefix, 3
1, 0, Instrument_name_t, "Viola"
1, 0, Program_c, 3, 48
1, 0, Note_on_c, 3, 61, 88
1, 0, Channel_prefix, 4
1, 0, Title_t, "Continuo."
1, 0, Channel_prefix, 4
1, 0, Instrument_name_t, "Cello"
1, 0, Program_c, 4, 42
1, 0, Note_on_c, 4, 61, 80
1, 0, Channel_prefix, 5
1, 0, Title_t, "Continuo."
1, 0, Channel_prefix, 5
1, 0, Instrument_name_t, "Contrabass"
1, 0, Program_c, 5, 43
1, 0, Note_on_c, 5, 49, 80
1, 12, Note_off_c, 4, 61, 0
1, 12, Note_on_c, 4, 60, 80
1, 12, Note_off_c, 5, 49, 0
1, 12, Note_on_c, 5, 48, 80
1, 24, Note_off_c, 4, 60, 0
1, 24, Note_on_c, 4, 61, 80
1, 24, Note_off_c, 5, 48, 0
1, 24, Note_on_c, 5, 49, 80
1, 45, Note_off_c, 4, 61, 0
1, 45, Note_off_c, 5, 49, 0
1, 48, Note_on_c, 4, 56, 80
1, 48, Note_on_c, 5, 44, 80
1, 69, Note_off_c, 4, 56, 0
1, 69, Note_off_c, 5, 44, 0
1, 72, Note_on_c, 4, 56, 80
1, 72, Note_on_c, 5, 44, 80
1, 93, Note_off_c, 4, 56, 0
1, 93, Note_off_c, 5, 44, 0
1, 96, Note_on_c, 4, 56, 80
1, 96, Note_on_c, 5, 44, 80
1, 106, Note_off_c, 4, 56, 0
1, 106, Note_off_c, 5, 44, 0
1, 108, Note_on_c, 4, 61, 80
1, 108, Note_on_c, 5, 49, 80
1, 120, Note_off_c, 4, 61, 0
1, 120, Note_on_c, 4, 63, 80
1, 120, Note_off_c, 5, 49, 0
1, 120, Note_on_c, 5, 51, 80
1, 126, Note_off_c, 2, 64, 0
1, 126, Note_off_c, 3, 61, 0
1, 132, Note_off_c, 4, 63, 0
1, 132, Note_on_c, 4, 64, 80
1, 132, Note_off_c, 5, 51, 0
1, 132, Note_on_c, 5, 52, 80
1, 142, Note_off_c, 4, 64, 0
1, 142, Note_off_c, 5, 52, 0
1, 144, Note_on_c, 2, 66, 88
1, 144, Note_on_c, 3, 60, 88
1, 144, Note_on_c, 4, 63, 80
1, 144, Note_on_c, 5, 51, 80
1, 156, Note_off_c, 4, 63, 0
1, 156, Note_on_c, 4, 61, 80
1, 156, Note_off_c, 5, 51, 0
1, 156, Note_on_c, 5, 49, 80
1, 168, Note_off_c, 4, 61, 0
1, 168, Note_on_c, 4, 63, 80
1, 168, Note_off_c, 5, 49, 0
1, 168, Note_on_c, 5, 51, 80
1, 186, Note_off_c, 2, 66, 0
1, 189, Note_off_c, 4, 63, 0
1, 189, Note_off_c, 5, 51, 0
1, 192, Note_on_c, 2, 63, 88
1, 192, Note_on_c, 4, 56, 80
1, 192, Note_on_c, 5, 44, 80
1, 216, Note_off_c, 4, 56, 0
1, 216, Note_on_c, 4, 56, 80
1, 216, Note_off_c, 5, 44, 0
1, 216, Note_on_c, 5, 44, 80
1, 237, Note_off_c, 4, 56, 0
1, 237, Note_off_c, 5, 44, 0
1, 240, Note_on_c, 4, 56, 80
1, 240, Note_on_c, 5, 44, 80
1, 250, Note_off_c, 4, 56, 0
1, 250, Note_off_c, 5, 44, 0
1, 252, Note_on_c, 4, 63, 80
1, 252, Note_on_c, 5, 51, 80
1, 264, Note_off_c, 4, 63, 0
1, 264, Note_on_c, 4, 64, 80
1, 264, Note_off_c, 5, 51, 0
1, 264, Note_on_c, 5, 52, 80
1, 270, Note_off_c, 3, 60, 0
1, 276, Note_off_c, 2, 63, 0
1, 276, Note_off_c, 4, 64, 0
1, 276, Note_on_c, 4, 66, 80
1, 276, Note_off_c, 5, 52, 0
1, 276, Note_on_c, 5, 54, 80
1, 286, Note_off_c, 4, 66, 0
1, 286, Note_off_c, 5, 54, 0
1, 288, Note_on_c, 2, 64, 88
1, 288, Note_on_c, 3, 61, 88
1, 288, Note_on_c, 4, 64, 80
1, 288, Note_on_c, 5, 52, 80
1, 300, Note_off_c, 4, 64, 0
1, 300, Note_on_c, 4, 63, 80
1, 300, Note_off_c, 5, 52, 0
1, 300, Note_on_c, 5, 51, 80
1, 312, Note_off_c, 4, 63, 0
1, 312, Note_on_c, 4, 64, 80
1, 312, Note_off_c, 5, 51, 0
1, 312, Note_on_c, 5, 52, 80
1, 333, Note_off_c, 4, 64, 0
1, 333, Note_off_c, 5, 52, 0
1, 336, Note_on_c, 4, 56, 80
1, 336, Note_on_c, 5, 44, 80
1, 357, Note_off_c, 4, 56, 0
1, 357, Note_off_c, 5, 44, 0
1, 360, Note_on_c, 4, 56, 80
1, 360, Note_on_c, 5, 44, 80
1, 378, Note_off_c, 1, 68, 0
1, 381, Note_off_c, 4, 56, 0
1, 381, Note_off_c, 5, 44, 0
1, 384, Note_on_c, 4, 56, 80
1, 384, Note_on_c, 5, 44, 80
1, 394, Note_off_c, 4, 56, 0
1, 394, Note_off_c, 5, 44, 0
1, 396, Note_on_c, 4, 61, 80
1, 396, Note_on_c, 5, 49, 80
1, 408, Note_off_c, 4, 61, 0
1, 408, Note_on_c, 4, 63, 80
1, 408, Note_off_c, 5, 49, 0
1, 408, Note_on_c, 5, 51, 80
1, 420, Note_off_c, 4, 63, 0
1, 420, Note_on_c, 4, 64, 80
1, 420, Note_off_c, 5, 51, 0
1, 420, Note_on_c, 5, 52, 80
1, 430, Note_off_c, 4, 64, 0
1, 430, Note_off_c, 5, 52, 0
1, 432, Note_on_c, 1, 66, 88
1, 432, Note_on_c, 4, 57, 80
1, 432, Note_on_c, 5, 45, 80
1, 444, Note_off_c, 4, 57, 0
1, 444, Note_on_c, 4, 56, 80
1, 444, Note_off_c, 5, 45, 0
1, 444, Note_on_c, 5, 44, 80
1, 456, Note_off_c, 2, 64, 0
1, 456, Note_off_c, 4, 56, 0
1, 456, Note_on_c, 4, 57, 80
1, 456, Note_off_c, 5, 44, 0
1, 456, Note_on_c, 5, 45, 80
1, 477, Note_off_c, 4, 57, 0
1, 477, Note_off_c, 5, 45, 0
1, 480, Note_on_c, 2, 63, 88
1, 480, Note_on_c, 4, 54, 80
1, 480, Note_on_c, 5, 42, 80
1, 501, Note_off_c, 2, 63, 0
1, 504, Note_on_c, 2, 61, 88
1, 504, Note_off_c, 4, 54, 0
1, 504, Note_on_c, 4, 54, 80
1, 504, Note_off_c, 5, 42, 0
1, 504, Note_on_c, 5, 42, 80
1, 525, Note_off_c, 2, 61, 0
1, 525, Note_off_c, 4, 54, 0
1, 525, Note_off_c, 5, 42, 0
1, 528, Note_on_c, 2, 63, 88
1, 528, Note_on_c, 4, 54, 80
1, 528, Note_on_c, 5, 42, 80
1, 538, Note_off_c, 4, 54, 0
1, 538, Note_off_c, 5, 42, 0
1, 540, Note_off_c, 3, 61, 0
1, 540, Note_on_c, 4, 60, 80
1, 540, Note_on_c, 5, 48, 80
1, 552, Note_off_c, 4, 60, 0
1, 552, Note_on_c, 4, 61, 80
1, 552, Note_off_c, 5, 48, 0
1, 552, Note_on_c, 5, 49, 80
1, 558, Note_off_c, 1, 66, 0
1, 564, Note_off_c, 4, 61, 0
1, 564, Note_on_c, 4, 63, 80
1, 564, Note_off_c, 5, 49, 0
1, 564, Note_on_c, 5, 51, 80
1, 574, Note_off_c, 4, 63, 0
1, 574, Note_off_c, 5, 51, 0
1, 576, Note_on_c, 1, 64, 88
1, 576, Note_on_c, 3, 60, 88
1, 576, Note_on_c, 4, 56, 80
1, 576, Note_on_c, 5, 44, 80
1, 588, Note_off_c, 4, 56, 0
1, 588, Note_on_c, 4, 54, 80
1, 588, Note_off_c, 5, 44, 0
1, 588, Note_on_c, 5, 42, 80
1, 600, Note_off_c, 4, 54, 0
1, 600, Note_on_c, 4, 56, 80
1, 600, Note_off_c, 5, 42, 0
1, 600, Note_on_c, 5, 44, 80
1, 612, Note_off_c, 2, 63, 0
1, 618, Note_off_c, 3, 60, 0
1, 621, Note_off_c, 4, 56, 0
1, 621, Note_off_c, 5, 44, 0
1, 624, Note_on_c, 2, 61, 88
1, 624, Note_on_c, 3, 56, 88
1, 624, Note_on_c, 4, 52, 80
1, 624, Note_on_c, 5, 40, 80
1, 645, Note_off_c, 2, 61, 0
1, 648, Note_on_c, 2, 60, 88
1, 648, Note_off_c, 4, 52, 0
1, 648, Note_on_c, 4, 52, 80
1, 648, Note_off_c, 5, 40, 0
1, 648, Note_on_c, 5, 40, 80
1, 669, Note_off_c, 2, 60, 0
1, 669, Note_off_c, 4, 52, 0
1, 669, Note_off_c, 5, 40, 0
1, 670, Note_off_c, 1, 64, 0
1, 672, Note_on_c, 2, 61, 88
1, 672, Note_on_c, 4, 52, 80
1, 672, Note_on_c, 5, 40, 80
1, 676, Note_off_c, 3, 56, 0
1, 682, Note_off_c, 2, 61, 0
1, 682, Note_off_c, 4, 52, 0
1, 682, Note_off_c, 5, 40, 0
1, 684, Note_on_c, 1, 73, 88
1, 684, Note_on_c, 2, 73, 88
1, 684, Note_on_c, 3, 73, 88
1, 684, Note_on_c, 4, 61, 80
1, 684, Note_on_c, 5, 49, 80
1, 694, Note_off_c, 1, 73, 0
1, 694, Note_off_c, 2, 73, 0
1, 694, Note_off_c, 3, 73, 0
1, 694, Note_off_c, 4, 61, 0
1, 694, Note_off_c, 5, 49, 0
1, 696, Note_on_c, 1, 73, 88
1, 696, Note_on_c, 2, 73, 88
1, 696, Note_on_c, 3, 73, 88
1, 696, Note_on_c, 4, 61, 80
1, 696, Note_on_c, 5, 49, 80
1, 708, Note_off_c, 1, 73, 0
1, 708, Note_on_c, 1, 69, 88
1, 708, Note_off_c, 2, 73, 0
1, 708, Note_on_c, 2, 69, 88
1, 708, Note_off_c, 3, 73, 0
1, 708, Note_on_c, 3, 69, 88
1, 708, Note_off_c, 4, 61, 0
1, 708, Note_on_c, 4, 57, 80
1, 708, Note_off_c, 5, 49, 0
1, 708, Note_on_c, 5, 45, 80
1, 718, Note_off_c, 1, 69, 0
1, 718, Note_off_c, 2, 69, 0
1, 718, Note_off_c, 3, 69, 0
1, 718, Note_off_c, 4, 57, 0
1, 718, Note_off_c, 5, 45, 0
1, 720, Note_on_c, 1, 69, 88
1, 720, Note_on_c, 2, 69, 88
1, 720, Note_on_c, 3, 69, 88
1, 720, Note_on_c, 4, 57, 80
1, 720, Note_on_c, 5, 45, 80
1, 732, Note_off_c, 1, 69, 0
1, 732, Note_on_c, 1, 66, 88
1, 732, Note_off_c, 2, 69, 0
1, 732, Note_on_c, 2, 66, 88
1, 732, Note_off_c, 3, 69, 0
1, 732, Note_on_c, 3, 66, 88
1, 732, Note_off_c, 4, 57, 0
1, 732, Note_on_c, 4, 54, 80
1, 732, Note_off_c, 5, 45, 0
1, 732, Note_on_c, 5, 42, 80
1, 742, Note_off_c, 1, 66, 0
1, 742, Note_off_c, 2, 66, 0
1, 742, Note_off_c, 3, 66, 0
1, 742, Note_off_c, 4, 54, 0
1, 742, Note_off_c, 5, 42, 0
1, 744, Note_on_c, 1, 66, 88
1, 744, Note_on_c, 2, 66, 88
1, 744, Note_on_c, 3, 66, 88
1, 744, Note_on_c, 4, 54, 80
1, 744, Note_on_c, 5, 42, 80
1, 756, Note_off_c, 1, 66, 0
1, 756, Note_on_c, 1, 63, 88
1, 756, Note_off_c, 2, 66, 0
1, 756, Note_on_c, 2, 63, 88
1, 756, Note_off_c, 3, 66, 0
1, 756, Note_on_c, 3, 63, 88
1, 756, Note_off_c, 4, 54, 0
1, 756, Note_on_c, 4, 51, 80
1, 756, Note_off_c, 5, 42, 0
1, 756, Note_on_c, 5, 39, 80
1, 766, Note_off_c, 1, 63, 0
1, 766, Note_off_c, 2, 63, 0
1, 766, Note_off_c, 3, 63, 0
1, 766, Note_off_c, 4, 51, 0
1, 766, Note_off_c, 5, 39, 0
1, 768, Note_on_c, 1, 63, 88
1, 768, Note_on_c, 2, 63, 88
1, 768, Note_on_c, 3, 63, 88
1, 768, Note_on_c, 4, 51, 80
1, 768, Note_on_c, 5, 39, 80
1, 778, Note_off_c, 1, 63, 0
1, 778, Note_off_c, 2, 63, 0
1, 778, Note_off_c, 3, 63, 0
1, 778, Note_off_c, 4, 51, 0
1, 778, Note_off_c, 5, 39, 0
1, 780, Note_on_c, 1, 61, 88
1, 780, Note_on_c, 2, 61, 88
1, 780, Note_on_c, 3, 61, 88
1, 780, Note_on_c, 4, 49, 80
1, 780, Note_on_c, 5, 37, 80
1, 790, Note_off_c, 1, 61, 0
1, 790, Note_off_c, 2, 61, 0
1, 790, Note_off_c, 3, 61, 0
1, 790, Note_off_c, 4, 49, 0
1, 790, Note_off_c, 5, 37, 0
1, 792, Note_on_c, 1, 60, 88
1, 792, Note_on_c, 2, 60, 88
1, 792, Note_on_c, 3, 60, 88
1, 792, Note_on_c, 4, 48, 80
1, 792, Note_on_c, 5, 36, 80
1, 802, Note_off_c, 1, 60, 0
1, 802, Note_off_c, 2, 60, 0
1, 802, Note_off_c, 3, 60, 0
1, 802, Note_off_c, 4, 48, 0
1, 802, Note_off_c, 5, 36, 0
1, 804, Note_on_c, 1, 61, 88
1, 804, Note_on_c, 2, 61, 88
1, 804, Note_on_c, 3, 61, 88
1, 804, Note_on_c, 4, 49, 80
1, 804, Note_on_c, 5, 37, 80
1, 814, Note_off_c, 1, 61, 0
1, 814, Note_off_c, 2, 61, 0
1, 814, Note_off_c, 3, 61, 0
1, 814, Note_off_c, 4, 49, 0
1, 814, Note_off_c, 5, 37, 0
1, 816, Note_on_c, 1, 68, 88
1, 816, Note_on_c, 2, 68, 88
1, 816, Note_on_c, 3, 68, 88
1, 816, Note_on_c, 4, 56, 80
1, 816, Note_on_c, 5, 44, 80
1, 837, Note_off_c, 1, 68, 0
1, 837, Note_off_c, 2, 68, 0
1, 837, Note_off_c, 3, 68, 0
1, 837, Note_off_c, 4, 56, 0
1, 837, Note_off_c, 5, 44, 0
1, 840, Note_on_c, 1, 56, 88
1, 840, Note_on_c, 2, 56, 88
1, 840, Note_on_c, 3, 56, 88
1, 840, Note_on_c, 4, 44, 80
1, 840, Note_on_c, 5, 32, 80
1, 861, Note_off_c, 1, 56, 0
1, 861, Note_off_c, 2, 56, 0
1, 861, Note_off_c, 3, 56, 0
1, 861, Note_off_c, 4, 44, 0
1, 861, Note_off_c, 5, 32, 0
1, 864, Note_on_c, 0, 80, 96
1, 864, Note_on_c, 1, 76, 88
1, 864, Note_on_c, 2, 73, 88
1, 864, Note_on_c, 3, 68, 88
1, 864, Note_on_c, 4, 61, 80
1, 864, Note_on_c, 5, 49, 80
1, 876, Note_off_c, 4, 61, 0
1, 876, Note_on_c, 4, 60, 80
1, 876, Note_off_c, 5, 49, 0
1, 876, Note_on_c, 5, 48, 80
1, 888, Note_off_c, 4, 60, 0
1, 888, Note_on_c, 4, 61, 80
1, 888, Note_off_c, 5, 48, 0
1, 888, Note_on_c, 5, 49, 80
1, 906, Note_off_c, 1, 76, 0
1, 906, Note_off_c, 2, 73, 0
1, 906, Note_off_c, 3, 68, 0
1, 909, Note_off_c, 4, 61, 0
1, 909, Note_off_c, 5, 49, 0
1, 912, Note_on_c, 4, 56, 80
1, 912, Note_on_c, 5, 44, 80
1, 933, Note_off_c, 4, 56, 0
1, 933, Note_off_c, 5, 44, 0
1, 936, Note_on_c, 1, 76, 88
1, 936, Note_on_c, 2, 73, 88
1, 936, Note_on_c, 3, 68, 88
1, 936, Note_on_c, 4, 56, 80
1, 936, Note_on_c, 5, 44, 80
1, 946, Note_off_c, 1, 76, 0
1, 946, Note_off_c, 2, 73, 0
1, 946, Note_off_c, 3, 68, 0
1, 948, Note_on_c, 1, 75, 88
1, 948, Note_on_c, 2, 72, 88
1, 948, Note_on_c, 3, 66, 88
1, 957, Note_off_c, 4, 56, 0
1, 957, Note_off_c, 5, 44, 0
1, 958, Note_off_c, 1, 75, 0
1, 958, Note_off_c, 2, 72, 0
1, 958, Note_off_c, 3, 66, 0
1, 960, Note_on_c, 1, 76, 88
1, 960, Note_on_c, 2, 73, 88
1, 960, Note_on_c, 3, 68, 88
1, 960, Note_on_c, 4, 56, 80
1, 960, Note_on_c, 5, 44, 80
1, 970, Note_off_c, 4, 56, 0
1, 970, Note_off_c, 5, 44, 0
1, 972, Note_on_c, 4, 61, 80
1, 972, Note_on_c, 5, 49, 80
1, 981, Note_off_c, 1, 76, 0
1, 981, Note_off_c, 2, 73, 0
1, 981, Note_off_c, 3, 68, 0
1, 984, Note_on_c, 1, 73, 88
1, 984, Note_on_c, 2, 73, 88
1, 984, Note_on_c, 3, 68, 88
1, 984, Note_off_c, 4, 61, 0
1, 984, Note_on_c, 4, 63, 80
1, 984, Note_off_c, 5, 49, 0
1, 984, Note_on_c, 5, 51, 80
1, 996, Note_off_c, 4, 63, 0
1, 996, Note_on_c, 4, 64, 80
1, 996, Note_off_c, 5, 51, 0
1, 996, Note_on_c, 5, 52, 80
1, 1005, Note_off_c, 1, 73, 0
1, 1005, Note_off_c, 2, 73, 0
1, 1005, Note_off_c, 3, 68, 0
1, 1006, Note_off_c, 4, 64, 0
1, 1006, Note_off_c, 5, 52, 0
1, 1008, Note_on_c, 1, 78, 88
1, 1008, Note_on_c, 2, 72, 88
1, 1008, Note_on_c, 3, 66, 88
1, 1008, Note_on_c, 4, 63, 80
1, 1008, Note_on_c, 5, 51, 80
1, 1020, Note_off_c, 4, 63, 0
1, 1020, Note_on_c, 4, 61, 80
1, 1020, Note_off_c, 5, 51, 0
1, 1020, Note_on_c, 5, 49, 80
1, 1032, Note_off_c, 4, 61, 0
1, 1032, Note_on_c, 4, 63, 80
1, 1032, Note_off_c, 5, 49, 0
1, 1032, Note_on_c, 5, 51, 80
1, 1050, Note_off_c, 1, 78, 0
1, 1050, Note_off_c, 2, 72, 0
1, 1050, Note_off_c, 3, 66, 0
1, 1053, Note_off_c, 4, 63, 0
1, 1053, Note_off_c, 5, 51, 0
1, 1056, Note_on_c, 4, 56, 80
1, 1056, Note_on_c, 5, 44, 80
1, 1080, Note_on_c, 1, 78, 88
1, 1080, Note_on_c, 2, 75, 88
1, 1080, Note_on_c, 3, 72, 88
1, 1080, Note_off_c, 4, 56, 0
1, 1080, Note_on_c, 4, 56, 80
1, 1080, Note_off_c, 5, 44, 0
1, 1080, Note_on_c, 5, 44, 80
1, 1090, Note_off_c, 1, 78, 0
1, 1090, Note_off_c, 2, 75, 0
1, 1092, Note_on_c, 1, 76, 88
1, 1092, Note_on_c, 2, 73, 88
1, 1101, Note_off_c, 3, 72, 0
1, 1101, Note_off_c, 4, 56, 0
1, 1101, Note_off_c, 5, 44, 0
1, 1102, Note_off_c, 1, 76, 0
1, 1102, Note_off_c, 2, 73, 0
1, 1104, Note_on_c, 1, 78, 88
1, 1104, Note_on_c, 2, 75, 88
1, 1104, Note_on_c, 3, 72, 88
1, 1104, Note_on_c, 4, 56, 80
1, 1104, Note_on_c, 5, 44, 80
1, 1114, Note_off_c, 4, 56, 0
1, 1114, Note_off_c, 5, 44, 0
1, 1116, Note_on_c, 4, 63, 80
1, 1116, Note_on_c, 5, 51, 80
1, 1125, Note_off_c, 1, 78, 0
1, 1125, Note_off_c, 2, 75, 0
1, 1125, Note_off_c, 3, 72, 0
1, 1128, Note_on_c, 1, 75, 88
1, 1128, Note_on_c, 2, 75, 88
1, 1128, Note_on_c, 3, 72, 88
1, 1128, Note_off_c, 4, 63, 0
1, 1128, Note_on_c, 4, 64, 80
1, 1128, Note_off_c, 5, 51, 0
1, 1128, Note_on_c, 5, 52, 80
1, 1140, Note_off_c, 4, 64, 0
1, 1140, Note_on_c, 4, 66, 80
1, 1140, Note_off_c, 5, 52, 0
1, 1140, Note_on_c, 5, 54, 80
1, 1149, Note_off_c, 1, 75, 0
1, 1149, Note_off_c, 2, 75, 0
1, 1149, Note_off_c, 3, 72, 0
1, 1150, Note_off_c, 4, 66, 0
1, 1150, Note_off_c, 5, 54, 0
1, 1152, Note_off_c, 0, 80, 0
1, 1152, Note_on_c, 1, 80, 88
1, 1152, Note_on_c, 2, 76, 88
1, 1152, Note_on_c, 3, 73, 88
1, 1152, Note_on_c, 4, 64, 80
1, 1152, Note_on_c, 5, 52, 80
1, 1164, Note_on_c, 0, 73, 96
1, 1164, Note_off_c, 4, 64, 0
1, 1164, Note_on_c, 4, 63, 80
1, 1164, Note_off_c, 5, 52, 0
1, 1164, Note_on_c, 5, 51, 80
1, 1170, Note_off_c, 0, 73, 0
1, 1170, Note_on_c, 0, 72, 96
1, 1176, Note_off_c, 0, 72, 0
1, 1176, Note_on_c, 0, 73, 96
1, 1176, Note_off_c, 4, 63, 0
1, 1176, Note_on_c, 4, 64, 80
1, 1176, Note_off_c, 5, 51, 0
1, 1176, Note_on_c, 5, 52, 80
1, 1188, Note_off_c, 0, 73, 0
1, 1188, Note_on_c, 0, 75, 96
1, 1194, Note_off_c, 1, 80, 0
1, 1194, Note_off_c, 2, 76, 0
1, 1194, Note_off_c, 3, 73, 0
1, 1197, Note_off_c, 4, 64, 0
1, 1197, Note_off_c, 5, 52, 0
1, 1198, Note_off_c, 0, 75, 0
1, 1200, Note_on_c, 0, 76, 96
1, 1200, Note_on_c, 4, 56, 80
1, 1200, Note_on_c, 5, 44, 80
1, 1210, Note_off_c, 0, 76, 0
1, 1212, Note_on_c, 0, 73, 96
1, 1218, Note_off_c, 0, 73, 0
1, 1218, Note_on_c, 0, 72, 96
1, 1224, Note_off_c, 0, 72, 0
1, 1224, Note_on_c, 0, 73, 96
1, 1224, Note_on_c, 1, 80, 88
1, 1224, Note_on_c, 2, 76, 88
1, 1224, Note_on_c, 3, 73, 88
1, 1224, Note_off_c, 4, 56, 0
1, 1224, Note_on_c, 4, 56, 80
1, 1224, Note_off_c, 5, 44, 0
1, 1224, Note_on_c, 5, 44, 80
1, 1234, Note_off_c, 1, 80, 0
1, 1234, Note_off_c, 2, 76, 0
1, 1236, Note_off_c, 0, 73, 0
1, 1236, Note_on_c, 0, 75, 96
1, 1236, Note_on_c, 1, 78, 88
1, 1236, Note_on_c, 2, 75, 88
1, 1245, Note_off_c, 3, 73, 0
1, 1245, Note_off_c, 4, 56, 0
1, 1245, Note_off_c, 5, 44, 0
1, 1246, Note_off_c, 0, 75, 0
1, 1246, Note_off_c, 1, 78, 0
1, 1246, Note_off_c, 2, 75, 0
1, 1248, Note_on_c, 0, 76, 96
1, 1248, Note_on_c, 1, 80, 88
1, 1248, Note_on_c, 2, 73, 88
1, 1248, Note_on_c, 3, 68, 88
1, 1248, Note_on_c, 4, 56, 80
1, 1248, Note_on_c, 5, 44, 80
1, 1258, Note_off_c, 0, 76, 0
1, 1258, Note_off_c, 4, 56, 0
1, 1258, Note_off_c, 5, 44, 0
1, 1260, Note_on_c, 0, 68, 96
1, 1260, Note_on_c, 4, 61, 80
1, 1260, Note_on_c, 5, 49, 80
1, 1269, Note_off_c, 1, 80, 0
1, 1269, Note_off_c, 2, 73, 0
1, 1269, Note_off_c, 3, 68, 0
1, 1272, Note_off_c, 0, 68, 0
1, 1272, Note_on_c, 0, 66, 96
1, 1272, Note_on_c, 1, 73, 88
1, 1272, Note_on_c, 2, 68, 88
1, 1272, Note_on_c, 3, 64, 88
1, 1272, Note_off_c, 4, 61, 0
1, 1272, Note_on_c, 4, 63, 80
1, 1272, Note_off_c, 5, 49, 0
1, 1272, Note_on_c, 5, 51, 80
1, 1284, Note_off_c, 0, 66, 0
1, 1284, Note_on_c, 0, 68, 96
1, 1284, Note_off_c, 4, 63, 0
1, 1284, Note_on_c, 4, 64, 80
1, 1284, Note_off_c, 5, 51, 0
1, 1284, Note_on_c, 5, 52, 80
1, 1293, Note_off_c, 1, 73, 0
1, 1293, Note_off_c, 2, 68, 0
1, 1293, Note_off_c, 3, 64, 0
1, 1294, Note_off_c, 0, 68, 0
1, 1294, Note_off_c, 4, 64, 0
1, 1294, Note_off_c, 5, 52, 0
1, 1296, Note_on_c, 0, 60, 96
1, 1296, Note_on_c, 1, 75, 88
1, 1296, Note_on_c, 2, 68, 88
1, 1296, Note_on_c, 3, 60, 88
1, 1296, Note_on_c, 4, 44, 80
1, 1296, Note_on_c, 5, 32, 80
1, 1308, Note_off_c, 0, 60, 0
1, 1308, Note_on_c, 0, 63, 96
1, 1317, Note_off_c, 1, 75, 0
1, 1318, Note_off_c, 0, 63, 0
1, 1320, Note_on_c, 0, 66, 96
1, 1320, Note_on_c, 1, 68, 88
1, 1332, Note_off_c, 0, 66, 0
1, 1332, Note_on_c, 0, 68, 96
1, 1338, Note_off_c, 2, 68, 0
1, 1338, Note_off_c, 3, 60, 0
1, 1338, Note_off_c, 4, 44, 0
1, 1338, Note_off_c, 5, 32, 0
1, 1341, Note_off_c, 1, 68, 0
1, 1342, Note_off_c, 0, 68, 0
1, 1344, Note_on_c, 0, 72, 96
1, 1356, Note_off_c, 0, 72, 0
1, 1356, Note_on_c, 0, 75, 96
1, 1366, Note_off_c, 0, 75, 0
1, 1368, Note_on_c, 0, 78, 96
1, 1380, Note_off_c, 0, 78, 0
1, 1380, Note_on_c, 0, 81, 96
1, 1390, Note_off_c, 0, 81, 0
1, 1392, Note_on_c, 0, 80, 96
1, 1395, Note_off_c, 0, 80, 0
1, 1395, Note_on_c, 0, 81, 96
1, 1398, Note_off_c, 0, 81, 0
1, 1398, Note_on_c, 0, 80, 96
1, 1401, Note_off_c, 0, 80, 0
1, 1401, Note_on_c, 0, 81, 96
1, 1404, Note_off_c, 0, 81, 0
1, 1404, Note_on_c, 0, 80, 96
1, 1406, Note_off_c, 0, 80, 0
1, 1406, Note_on_c, 0, 81, 96
1, 1408, Note_off_c, 0, 81, 0
1, 1408, Note_on_c, 0, 80, 96
1, 1410, Note_off_c, 0, 80, 0
1, 1410, Note_on_c, 0, 78, 96
1, 1415, Note_off_c, 0, 78, 0
1, 1416, Note_on_c, 0, 76, 96
1, 1428, Note_off_c, 0, 76, 0
1, 1428, Note_on_c, 0, 78, 96
1, 1434, Note_off_c, 0, 78, 0
1, 1434, Note_on_c, 0, 75, 96
1, 1439, Note_off_c, 0, 75, 0
1, 1440, Note_on_c, 0, 76, 96
1, 1440, Note_on_c, 1, 76, 88
1, 1440, Note_on_c, 2, 68, 88
1, 1440, Note_on_c, 3, 61, 88
1, 1440, Note_on_c, 4, 61, 80
1, 1440, Note_on_c, 5, 49, 80
1, 1452, Note_off_c, 4, 61, 0
1, 1452, Note_on_c, 4, 60, 80
1, 1452, Note_off_c, 5, 49, 0
1, 1452, Note_on_c, 5, 48, 80
1, 1461, Note_off_c, 0, 76, 0
1, 1464, Note_on_c, 0, 73, 96
1, 1464, Note_off_c, 4, 60, 0
1, 1464, Note_on_c, 4, 61, 80
1, 1464, Note_off_c, 5, 48, 0
1, 1464, Note_on_c, 5, 49, 80
1, 1482, Note_off_c, 1, 76, 0
1, 1482, Note_off_c, 2, 68, 0
1, 1482, Note_off_c, 3, 61, 0
1, 1485, Note_off_c, 0, 73, 0
1, 1485, Note_off_c, 4, 61, 0
1, 1485, Note_off_c, 5, 49, 0
1, 1488, Note_on_c, 4, 56, 80
1, 1488, Note_on_c, 5, 44, 80
1, 1500, Note_on_c, 0, 76, 96
1, 1506, Note_off_c, 0, 76, 0
1, 1506, Note_on_c, 0, 75, 96
1, 1512, Note_off_c, 0, 75, 0
1, 1512, Note_on_c, 0, 76, 96
1, 1512, Note_on_c, 1, 76, 88
1, 1512, Note_on_c, 2, 73, 88
1, 1512, Note_on_c, 3, 68, 88
1, 1512, Note_off_c, 4, 56, 0
1, 1512, Note_on_c, 4, 56, 80
1, 1512, Note_off_c, 5, 44, 0
1, 1512, Note_on_c, 5, 44, 80
1, 1522, Note_off_c, 1, 76, 0
1, 1522, Note_off_c, 2, 73, 0
1, 1524, Note_off_c, 0, 76, 0
1, 1524, Note_on_c, 0, 80, 96
1, 1524, Note_on_c, 1, 75, 88
1, 1524, Note_on_c, 2, 72, 88
1, 1533, Note_off_c, 3, 68, 0
1, 1533, Note_off_c, 4, 56, 0
1, 1533, Note_off_c, 5, 44, 0
1, 1534, Note_off_c, 0, 80, 0
1, 1534, Note_off_c, 1, 75, 0
1, 1534, Note_off_c, 2, 72, 0
1, 1536, Note_on_c, 0, 76, 96
1, 1536, Note_on_c, 1, 76, 88
1, 1536, Note_on_c, 2, 73, 88
1, 1536, Note_on_c, 3, 68, 88
1, 1536, Note_on_c, 4, 56, 80
1, 1536, Note_on_c, 5, 44, 80
1, 1546, Note_off_c, 0, 76, 0
1, 1546, Note_off_c, 4, 56, 0
1, 1546, Note_off_c, 5, 44, 0
1, 1548, Note_on_c, 0, 73, 96
1, 1548, Note_on_c, 4, 61, 80
1, 1548, Note_on_c, 5, 49, 80
1, 1557, Note_off_c, 1, 76, 0
1, 1557, Note_off_c, 2, 73, 0
1, 1557, Note_off_c, 3, 68, 0
1, 1560, Note_off_c, 0, 73, 0
1, 1560, Note_on_c, 0, 72, 96
1, 1560, Note_on_c, 1, 76, 88
1, 1560, Note_on_c, 2, 68, 88
1, 1560, Note_on_c, 3, 68, 88
1, 1560, Note_off_c, 4, 61, 0
1, 1560, Note_on_c, 4, 63, 80
1, 1560, Note_off_c, 5, 49, 0
1, 1560, Note_on_c, 5, 51, 80
1, 1572, Note_off_c, 0, 72, 0
1, 1572, Note_on_c, 0, 73, 96
1, 1572, Note_off_c, 4, 63, 0
1, 1572, Note_on_c, 4, 64, 80
1, 1572, Note_off_c, 5, 51, 0
1, 1572, Note_on_c, 5, 52, 80
1, 1581, Note_off_c, 1, 76, 0
1, 1581, Note_off_c, 2, 68, 0
1, 1581, Note_off_c, 3, 68, 0
1, 1582, Note_off_c, 0, 73, 0
1, 1582, Note_off_c, 4, 64, 0
1, 1582, Note_off_c, 5, 52, 0
1, 1584, Note_on_c, 0, 66, 96
1, 1584, Note_on_c, 1, 76, 88
1, 1584, Note_on_c, 2, 73, 88
1, 1584, Note_on_c, 3, 66, 88
1, 1584, Note_on_c, 4, 57, 80
1, 1584, Note_on_c, 5, 45, 80
1, 1594, Note_off_c, 0, 66, 0
1, 1596, Note_on_c, 0, 73, 96
1, 1596, Note_off_c, 4, 57, 0
1, 1596, Note_on_c, 4, 56, 80
1, 1596, Note_off_c, 5, 45, 0
1, 1596, Note_on_c, 5, 44, 80
1, 1606, Note_off_c, 0, 73, 0
1, 1608, Note_on_c, 0, 81, 96
1, 1608, Note_off_c, 4, 56, 0
1, 1608, Note_on_c, 4, 57, 80
1, 1608, Note_off_c, 5, 44, 0
1, 1608, Note_on_c, 5, 45, 80
1, 1626, Note_off_c, 1, 76, 0
1, 1626, Note_off_c, 2, 73, 0
1, 1626, Note_off_c, 3, 66, 0
1, 1629, Note_off_c, 4, 57, 0
1, 1629, Note_off_c, 5, 45, 0
1, 1632, Note_on_c, 4, 54, 80
1, 1632, Note_on_c, 5, 42, 80
1, 1639, Note_off_c, 0, 81, 0
1, 1644, Note_on_c, 0, 75, 96
1, 1650, Note_off_c, 0, 75, 0
1, 1650, Note_on_c, 0, 73, 96
1, 1656, Note_off_c, 0, 73, 0
1, 1656, Note_on_c, 0, 75, 96
1, 1656, Note_on_c, 1, 75, 88
1, 1656, Note_on_c, 2, 71, 88
1, 1656, Note_on_c, 3, 66, 88
1, 1656, Note_off_c, 4, 54, 0
1, 1656, Note_on_c, 4, 54, 80
1, 1656, Note_off_c, 5, 42, 0
1, 1656, Note_on_c, 5, 42, 80
1, 1666, Note_off_c, 1, 75, 0
1, 1666, Note_off_c, 2, 71, 0
1, 1668, Note_off_c, 0, 75, 0
1, 1668, Note_on_c, 0, 78, 96
1, 1668, Note_on_c, 1, 73, 88
1, 1668, Note_on_c, 2, 70, 88
1, 1677, Note_off_c, 3, 66, 0
1, 1677, Note_off_c, 4, 54, 0
1, 1677, Note_off_c, 5, 42, 0
1, 1678, Note_off_c, 0, 78, 0
1, 1678, Note_off_c, 1, 73, 0
1, 1678, Note_off_c, 2, 70, 0
1, 1680, Note_on_c, 0, 75, 96
1, 1680, Note_on_c, 1, 75, 88
1, 1680, Note_on_c, 2, 71, 88
1, 1680, Note_on_c, 3, 66, 88
1, 1680, Note_on_c, 4, 54, 80
1, 1680, Note_on_c, 5, 42, 80
1, 1690, Note_off_c, 0, 75, 0
1, 1690, Note_off_c, 4, 54, 0
1, 1690, Note_off_c, 5, 42, 0
1, 1692, Note_on_c, 0, 71, 96
1, 1692, Note_on_c, 4, 59, 80
1, 1692, Note_on_c, 5, 47, 80
1, 1701, Note_off_c, 1, 75, 0
1, 1701, Note_off_c, 2, 71, 0
1, 1701, Note_off_c, 3, 66, 0
1, 1704, Note_off_c, 0, 71, 0
1, 1704, Note_on_c, 0, 70, 96
1, 1704, Note_on_c, 1, 75, 88
1, 1704, Note_on_c, 2, 66, 88
1, 1704, Note_on_c, 3, 66, 88
1, 1704, Note_off_c, 4, 59, 0
1, 1704, Note_on_c, 4, 61, 80
1, 1704, Note_off_c, 5, 47, 0
1, 1704, Note_on_c, 5, 49, 80
1, 1716, Note_off_c, 0, 70, 0
1, 1716, Note_on_c, 0, 71, 96
1, 1716, Note_off_c, 4, 61, 0
1, 1716, Note_on_c, 4, 63, 80
1, 1716, Note_off_c, 5, 49, 0
1, 1716, Note_on_c, 5, 51, 80
1, 1725, Note_off_c, 1, 75, 0
1, 1725, Note_off_c, 2, 66, 0
1, 1725, Note_off_c, 3, 66, 0
1, 1726, Note_off_c, 0, 71, 0
1, 1726, Note_off_c, 4, 63, 0
1, 1726, Note_off_c, 5, 51, 0
1, 1728, Note_on_c, 0, 64, 96
1, 1728, Note_on_c, 1, 74, 88
1, 1728, Note_on_c, 2, 71, 88
1, 1728, Note_on_c, 3, 64, 88
1, 1728, Note_on_c, 4, 56, 80
1, 1728, Note_on_c, 5, 44, 80
1, 1738, Note_off_c, 0, 64, 0
1, 1740, Note_on_c, 0, 71, 96
1, 1740, Note_off_c, 4, 56, 0
1, 1740, Note_on_c, 4, 54, 80
1, 1740, Note_off_c, 5, 44, 0
1, 1740, Note_on_c, 5, 42, 80
1, 1750, Note_off_c, 0, 71, 0
1, 1752, Note_on_c, 0, 80, 96
1, 1752, Note_off_c, 4, 54, 0
1, 1752, Note_on_c, 4, 56, 80
1, 1752, Note_off_c, 5, 42, 0
1, 1752, Note_on_c, 5, 44, 80
1, 1770, Note_off_c, 1, 74, 0
1, 1770, Note_off_c, 2, 71, 0
1, 1770, Note_off_c, 3, 64, 0
1, 1773, Note_off_c, 4, 56, 0
1, 1773, Note_off_c, 5, 44, 0
1, 1776, Note_on_c, 4, 52, 80
1, 1776, Note_on_c, 5, 40, 80
1, 1788, Note_off_c, 0, 80, 0
1, 1788, Note_on_c, 0, 80, 96
1, 1794, Note_off_c, 0, 80, 0
1, 1794, Note_on_c, 0, 78, 96
1, 1800, Note_off_c, 0, 78, 0
1, 1800, Note_on_c, 0, 80, 96
1, 1800, Note_on_c, 1, 74, 88
1, 1800, Note_on_c, 2, 71, 88
1, 1800, Note_on_c, 3, 64, 88
1, 1800, Note_off_c, 4, 52, 0
1, 1800, Note_on_c, 4, 52, 80
1, 1800, Note_off_c, 5, 40, 0
1, 1800, Note_on_c, 5, 40, 80
1, 1810, Note_off_c, 1, 74, 0
1, 1810, Note_off_c, 2, 71, 0
1, 1812, Note_off_c, 0, 80, 0
1, 1812, Note_on_c, 0, 83, 96
1, 1812, Note_on_c, 1, 73, 88
1, 1812, Note_on_c, 2, 69, 88
1, 1821, Note_off_c, 3, 64, 0
1, 1821, Note_off_c, 4, 52, 0
1, 1821, Note_off_c, 5, 40, 0
1, 1822, Note_off_c, 0, 83, 0
1, 1822, Note_off_c, 1, 73, 0
1, 1822, Note_off_c, 2, 69, 0
1, 1824, Note_on_c, 0, 80, 96
1, 1824, Note_on_c, 1, 74, 88
1, 1824, Note_on_c, 2, 71, 88
1, 1824, Note_on_c, 3, 64, 88
1, 1824, Note_on_c, 4, 52, 80
1, 1824, Note_on_c, 5, 40, 80
1, 1834, Note_off_c, 4, 52, 0
1, 1834, Note_off_c, 5, 40, 0
1, 1836, Note_off_c, 0, 80, 0
1, 1836, Note_on_c, 0, 76, 96
1, 1836, Note_on_c, 4, 64, 80
1, 1836, Note_on_c, 5, 52, 80
1, 1842, Note_off_c, 0, 76, 0
1, 1842, Note_on_c, 0, 78, 96
1, 1845, Note_off_c, 1, 74, 0
1, 1845, Note_off_c, 2, 71, 0
1, 1845, Note_off_c, 3, 64, 0
1, 1846, Note_off_c, 4, 64, 0
1, 1846, Note_off_c, 5, 52, 0
1, 1848, Note_off_c, 0, 78, 0
1, 1848, Note_on_c, 0, 80, 96
1, 1848, Note_on_c, 1, 71, 88
1, 1848, Note_on_c, 2, 64, 88
1, 1848, Note_on_c, 3, 64, 88
1, 1848, Note_on_c, 4, 64, 80
1, 1848, Note_on_c, 5, 52, 80
1, 1854, Note_off_c, 0, 80, 0
1, 1854, Note_on_c, 0, 83, 96
1, 1860, Note_off_c, 0, 83, 0
1, 1860, Note_on_c, 0, 81, 96
1, 1860, Note_off_c, 4, 64, 0
1, 1860, Note_on_c, 4, 61, 80
1, 1860, Note_off_c, 5, 52, 0
1, 1860, Note_on_c, 5, 49, 80
1, 1869, Note_off_c, 1, 71, 0
1, 1869, Note_off_c, 2, 64, 0
1, 1869, Note_off_c, 3, 64, 0
1, 1870, Note_off_c, 0, 81, 0
1, 1870, Note_off_c, 4, 61, 0
1, 1870, Note_off_c, 5, 49, 0
1, 1872, Note_on_c, 0, 81, 96
1, 1872, Note_on_c, 1, 76, 88
1, 1872, Note_on_c, 2, 64, 88
1, 1872, Note_on_c, 3, 64, 88
1, 1872, Note_on_c, 4, 61, 80
1, 1872, Note_on_c, 5, 49, 80
1, 1884, Note_off_c, 0, 81, 0
1, 1884, Note_on_c, 0, 78, 96
1, 1884, Note_off_c, 1, 76, 0
1, 1884, Note_on_c, 1, 73, 88
1, 1884, Note_off_c, 2, 64, 0
1, 1884, Note_on_c, 2, 69, 88
1, 1884, Note_off_c, 3, 64, 0
1, 1884, Note_on_c, 3, 66, 88
1, 1884, Note_off_c, 4, 61, 0
1, 1884, Note_on_c, 4, 57, 80
1, 1884, Note_off_c, 5, 49, 0
1, 1884, Note_on_c, 5, 45, 80
1, 1894, Note_off_c, 0, 78, 0
1, 1894, Note_off_c, 1, 73, 0
1, 1894, Note_off_c, 2, 69, 0
1, 1894, Note_off_c, 3, 66, 0
1, 1894, Note_off_c, 4, 57, 0
1, 1894, Note_off_c, 5, 45, 0
1, 1896, Note_on_c, 0, 78, 96
1, 1896, Note_on_c, 1, 73, 88
1, 1896, Note_on_c, 2, 69, 88
1, 1896, Note_on_c, 3, 66, 88
1, 1896, Note_on_c, 4, 57, 80
1, 1896, Note_on_c, 5, 45, 80
1, 1908, Note_off_c, 0, 78, 0
1, 1908, Note_on_c, 0, 81, 96
1, 1908, Note_off_c, 1, 73, 0
1, 1908, Note_on_c, 1, 69, 88
1, 1908, Note_off_c, 2, 69, 0
1, 1908, Note_on_c, 2, 73, 88
1, 1908, Note_off_c, 3, 66, 0
1, 1908, Note_on_c, 3, 61, 88
1, 1908, Note_off_c, 4, 57, 0
1, 1908, Note_on_c, 4, 54, 80
1, 1908, Note_off_c, 5, 45, 0
1, 1908, Note_on_c, 5, 42, 80
1, 1918, Note_off_c, 0, 81, 0
1, 1918, Note_off_c, 1, 69, 0
1, 1918, Note_off_c, 2, 73, 0
1, 1918, Note_off_c, 3, 61, 0
1, 1918, Note_off_c, 4, 54, 0
1, 1918, Note_off_c, 5, 42, 0
1, 1920, Note_on_c, 0, 75, 96
1, 1920, Note_on_c, 1, 69, 88
1, 1920, Note_on_c, 2, 75, 88
1, 1920, Note_on_c, 3, 57, 88
1, 1920, Note_on_c, 4, 54, 80
1, 1920, Note_on_c, 5, 42, 80
1, 1930, Note_off_c, 0, 75, 0
1, 1930, Note_off_c, 1, 69, 0
1, 1930, Note_off_c, 2, 75, 0
1, 1930, Note_off_c, 3, 57, 0
1, 1930, Note_off_c, 4, 54, 0
1, 1930, Note_off_c, 5, 42, 0
1, 1932, Note_on_c, 0, 78, 96
1, 1932, Note_on_c, 1, 73, 88
1, 1932, Note_on_c, 2, 69, 88
1, 1932, Note_on_c, 3, 54, 88
1, 1932, Note_on_c, 4, 52, 80
1, 1932, Note_on_c, 5, 40, 80
1, 1942, Note_off_c, 1, 73, 0
1, 1944, Note_off_c, 0, 78, 0
1, 1944, Note_on_c, 0, 71, 96
1, 1944, Note_on_c, 1, 71, 88
1, 1944, Note_off_c, 2, 69, 0
1, 1944, Note_on_c, 2, 66, 88
1, 1944, Note_off_c, 3, 54, 0
1, 1944, Note_on_c, 3, 57, 88
1, 1944, Note_off_c, 4, 52, 0
1, 1944, Note_on_c, 4, 51, 80
1, 1944, Note_off_c, 5, 40, 0
1, 1944, Note_on_c, 5, 39, 80
1, 1956, Note_off_c, 0, 71, 0
1, 1956, Note_on_c, 0, 80, 96
1, 1956, Note_off_c, 2, 66, 0
1, 1956, Note_on_c, 2, 64, 88
1, 1956, Note_off_c, 3, 57, 0
1, 1956, Note_on_c, 3, 56, 88
1, 1956, Note_off_c, 4, 51, 0
1, 1956, Note_on_c, 4, 52, 80
1, 1956, Note_off_c, 5, 39, 0
1, 1956, Note_on_c, 5, 40, 80
1, 1965, Note_off_c, 1, 71, 0
1, 1966, Note_off_c, 0, 80, 0
1, 1966, Note_off_c, 2, 64, 0
1, 1966, Note_off_c, 3, 56, 0
1, 1966, Note_off_c, 4, 52, 0
1, 1966, Note_off_c, 5, 40, 0
1, 1968, Note_on_c, 0, 78, 96
1, 1968, Note_on_c, 1, 69, 88
1, 1968, Note_on_c, 2, 64, 88
1, 1968, Note_on_c, 3, 59, 88
1, 1968, Note_on_c, 4, 59, 80
1, 1968, Note_on_c, 5, 47, 80
1, 1971, Note_off_c, 0, 78, 0
1, 1971, Note_on_c, 0, 76, 96
1, 1971, Note_off_c, 1, 69, 0
1, 1971, Note_on_c, 1, 68, 88
1, 1974, Note_off_c, 0, 76, 0
1, 1974, Note_on_c, 0, 78, 96
1, 1974, Note_off_c, 1, 68, 0
1, 1974, Note_on_c, 1, 69, 88
1, 1977, Note_off_c, 0, 78, 0
1, 1977, Note_on_c, 0, 76, 96
1, 1977, Note_off_c, 1, 69, 0
1, 1977, Note_on_c, 1, 68, 88
1, 1980, Note_off_c, 0, 76, 0
1, 1980, Note_on_c, 0, 78, 96
1, 1980, Note_off_c, 1, 68, 0
1, 1980, Note_on_c, 1, 69, 88
1, 1983, Note_off_c, 0, 78, 0
1, 1983, Note_on_c, 0, 76, 96
1, 1983, Note_off_c, 1, 69, 0
1, 1983, Note_on_c, 1, 68, 88
1, 1986, Note_off_c, 0, 76, 0
1, 1986, Note_on_c, 0, 78, 96
1, 1986, Note_off_c, 1, 68, 0
1, 1986, Note_on_c, 1, 69, 88
1, 1989, Note_off_c, 0, 78, 0
1, 1989, Note_on_c, 0, 76, 96
1, 1989, Note_off_c, 1, 69, 0
1, 1989, Note_on_c, 1, 68, 88
1, 1989, Note_off_c, 2, 64, 0
1, 1989, Note_off_c, 3, 59, 0
1, 1989, Note_off_c, 4, 59, 0
1, 1989, Note_off_c, 5, 47, 0
1, 1992, Note_off_c, 0, 76, 0
1, 1992, Note_on_c, 0, 78, 96
1, 1992, Note_off_c, 1, 68, 0
1, 1992, Note_on_c, 1, 66, 88
1, 1992, Note_on_c, 2, 66, 88
1, 1992, Note_on_c, 3, 59, 88
1, 1992, Note_on_c, 4, 47, 80
1, 1992, Note_on_c, 5, 35, 80
1, 1995, Note_off_c, 0, 78, 0
1, 1995, Note_on_c, 0, 76, 96
1, 1998, Note_off_c, 0, 76, 0
1, 1998, Note_on_c, 0, 78, 96
1, 2001, Note_off_c, 0, 78, 0
1, 2001, Note_on_c, 0, 76, 96
1, 2004, Note_off_c, 0, 76, 0
1, 2004, Note_on_c, 0, 78, 96
1, 2004, Note_off_c, 1, 66, 0
1, 2004, Note_on_c, 1, 64, 88
1, 2009, Note_off_c, 0, 78, 0
1, 2010, Note_on_c, 0, 75, 96
1, 2013, Note_off_c, 2, 66, 0
1, 2013, Note_off_c, 3, 59, 0
1, 2013, Note_off_c, 4, 47, 0
1, 2013, Note_off_c, 5, 35, 0
1, 2014, Note_off_c, 1, 64, 0
1, 2015, Note_off_c, 0, 75, 0
1, 2016, Note_on_c, 0, 76, 96
1, 2016, Note_on_c, 1, 64, 88
1, 2016, Note_on_c, 2, 68, 88
1, 2016, Note_on_c, 3, 59, 88
1, 2016, Note_on_c, 4, 52, 80
1, 2016, Note_on_c, 5, 40, 80
1, 2026, Note_off_c, 0, 76, 0
1, 2028, Note_on_c, 0, 71, 96
1, 2034, Note_off_c, 0, 71, 0
1, 2034, Note_on_c, 0, 69, 96
1, 2040, Note_off_c, 0, 69, 0
1, 2040, Note_on_c, 0, 71, 96
1, 2052, Note_off_c, 0, 71, 0
1, 2052, Note_on_c, 0, 76, 96
1, 2058, Note_off_c, 1, 64, 0
1, 2058, Note_off_c, 2, 68, 0
1, 2058, Note_off_c, 3, 59, 0
1, 2058, Note_off_c, 4, 52, 0
1, 2058, Note_off_c, 5, 40, 0
1, 2062, Note_off_c, 0, 76, 0
1, 2064, Note_on_c, 0, 76, 96
1, 2074, Note_off_c, 0, 76, 0
1, 2076, Note_on_c, 0, 68, 96
1, 2082, Note_off_c, 0, 68, 0
1, 2082, Note_on_c, 0, 66, 96
1, 2088, Note_off_c, 0, 66, 0
1, 2088, Note_on_c, 0, 68, 96
1, 2100, Note_off_c, 0, 68, 0
1, 2100, Note_on_c, 0, 71, 96
1, 2110, Note_off_c, 0, 71, 0
1, 2112, Note_on_c, 0, 71, 96
1, 2122, Note_off_c, 0, 71, 0
1, 2124, Note_on_c, 0, 64, 96
1, 2130, Note_off_c, 0, 64, 0
1, 2130, Note_on_c, 0, 63, 96
1, 2136, Note_off_c, 0, 63, 0
1, 2136, Note_on_c, 0, 64, 96
1, 2148, Note_off_c, 0, 64, 0
1, 2148, Note_on_c, 0, 68, 96
1, 2158, Note_off_c, 0, 68, 0
1, 2160, Note_on_c, 0, 72, 96
1, 2160, Note_on_c, 1, 78, 88
1, 2160, Note_on_c, 2, 75, 88
1, 2160, Note_on_c, 3, 69, 88
1, 2160, Note_on_c, 4, 51, 80
1, 2160, Note_on_c, 5, 39, 80
1, 2172, Note_off_c, 4, 51, 0
1, 2172, Note_on_c, 4, 49, 80
1, 2172, Note_off_c, 5, 39, 0
1, 2172, Note_on_c, 5, 37, 80
1, 2184, Note_off_c, 4, 49, 0
1, 2184, Note_on_c, 4, 51, 80
1, 2184, Note_off_c, 5, 37, 0
1, 2184, Note_on_c, 5, 39, 80
1, 2202, Note_off_c, 1, 78, 0
1, 2202, Note_off_c, 2, 75, 0
1, 2202, Note_off_c, 3, 69, 0
1, 2205, Note_off_c, 4, 51, 0
1, 2205, Note_off_c, 5, 39, 0
1, 2208, Note_on_c, 4, 44, 80
1, 2208, Note_on_c, 5, 32, 80
1, 2212, Note_off_c, 0, 72, 0
1, 2220, Note_on_c, 0, 75, 96
1, 2226, Note_off_c, 0, 75, 0
1, 2226, Note_on_c, 0, 73, 96
1, 2232, Note_off_c, 0, 73, 0
1, 2232, Note_on_c, 0, 75, 96
1, 2232, Note_on_c, 1, 72, 88
1, 2232, Note_on_c, 2, 75, 88
1, 2232, Note_on_c, 3, 68, 88
1, 2232, Note_off_c, 4, 44, 0
1, 2232, Note_on_c, 4, 44, 80
1, 2232, Note_off_c, 5, 32, 0
1, 2232, Note_on_c, 5, 32, 80
1, 2242, Note_off_c, 1, 72, 0
1, 2242, Note_off_c, 2, 75, 0
1, 2244, Note_off_c, 0, 75, 0
1, 2244, Note_on_c, 0, 78, 96
1, 2244, Note_on_c, 1, 70, 88
1, 2244, Note_on_c, 2, 73, 88
1, 2253, Note_off_c, 3, 68, 0
1, 2253, Note_off_c, 4, 44, 0
1, 2253, Note_off_c, 5, 32, 0
1, 2254, Note_off_c, 0, 78, 0
1, 2254, Note_off_c, 1, 70, 0
1, 2254, Note_off_c, 2, 73, 0
1, 2256, Note_on_c, 0, 78, 96
1, 2256, Note_on_c, 1, 72, 88
1, 2256, Note_on_c, 2, 75, 88
1, 2256, Note_on_c, 3, 68, 88
1, 2256, Note_on_c, 4, 44, 80
1, 2256, Note_on_c, 5, 32, 80
1, 2266, Note_off_c, 0, 78, 0
1, 2266, Note_off_c, 4, 44, 0
1, 2266, Note_off_c, 5, 32, 0
1, 2268, Note_on_c, 0, 75, 96
1, 2268, Note_on_c, 4, 51, 80
1, 2268, Note_on_c, 5, 39, 80
1, 2277, Note_off_c, 1, 72, 0
1, 2277, Note_off_c, 2, 75, 0
1, 2277, Note_off_c, 3, 68, 0
1, 2280, Note_off_c, 0, 75, 0
1, 2280, Note_on_c, 0, 73, 96
1, 2280, Note_on_c, 1, 75, 88
1, 2280, Note_on_c, 2, 68, 88
1, 2280, Note_on_c, 3, 68, 88
1, 2280, Note_off_c, 4, 51, 0
1, 2280, Note_on_c, 4, 52, 80
1, 2280, Note_off_c, 5, 39, 0
1, 2280, Note_on_c, 5, 40, 80
1, 2292, Note_off_c, 0, 73, 0
1, 2292, Note_on_c, 0, 72, 96
1, 2292, Note_off_c, 4, 52, 0
1, 2292, Note_on_c, 4, 54, 80
1, 2292, Note_off_c, 5, 40, 0
1, 2292, Note_on_c, 5, 42, 80
1, 2301, Note_off_c, 1, 75, 0
1, 2301, Note_off_c, 2, 68, 0
1, 2301, Note_off_c, 3, 68, 0
1, 2302, Note_off_c, 0, 72, 0
1, 2302, Note_off_c, 4, 54, 0
1, 2302, Note_off_c, 5, 42, 0
1, 2304, Note_on_c, 0, 73, 96
1, 2304, Note_on_c, 1, 80, 88
1, 2304, Note_on_c, 2, 68, 88
1, 2304, Note_on_c, 3, 61, 88
1, 2304, Note_on_c, 4, 52, 80
1, 2304, Note_on_c, 5, 40, 80
1, 2314, Note_off_c, 0, 73, 0
1, 2316, Note_on_c, 0, 76, 96
1, 2322, Note_off_c, 0, 76, 0
1, 2322, Note_on_c, 0, 75, 96
1, 2328, Note_off_c, 0, 75, 0
1, 2328, Note_on_c, 0, 76, 96
1, 2340, Note_off_c, 0, 76, 0
1, 2340, Note_on_c, 0, 80, 96
1, 2346, Note_off_c, 1, 80, 0
1, 2346, Note_off_c, 2, 68, 0
1, 2346, Note_off_c, 3, 61, 0
1, 2346, Note_off_c, 4, 52, 0
1, 2346, Note_off_c, 5, 40, 0
1, 2350, Note_off_c, 0, 80, 0
1, 2352, Note_on_c, 0, 80, 96
1, 2362, Note_off_c, 0, 80, 0
1, 2364, Note_on_c, 0, 85, 96
1, 2370, Note_off_c, 0, 85, 0
1, 2370, Note_on_c, 0, 84, 96
1, 2376, Note_off_c, 0, 84, 0
1, 2376, Note_on_c, 0, 85, 96
1, 2388, Note_off_c, 0, 85, 0
1, 2388, Note_on_c, 0, 80, 96
1, 2398, Note_off_c, 0, 80, 0
1, 2400, Note_on_c, 0, 80, 96
1, 2412, Note_off_c, 0, 80, 0
1, 2412, Note_on_c, 0, 76, 96
1, 2422, Note_off_c, 0, 76, 0
1, 2424, Note_on_c, 0, 75, 96
1, 2427, Note_off_c, 0, 75, 0
1, 2427, Note_on_c, 0, 76, 96
1, 2430, Note_off_c, 0, 76, 0
1, 2430, Note_on_c, 0, 75, 96
1, 2432, Note_off_c, 0, 75, 0
1, 2432, Note_on_c, 0, 76, 96
1, 2434, Note_off_c, 0, 76, 0
1, 2434, Note_on_c, 0, 75, 96
1, 2436, Note_off_c, 0, 75, 0
1, 2436, Note_on_c, 0, 73, 96
1, 2446, Note_off_c, 0, 73, 0
1, 2448, Note_on_c, 0, 77, 96
1, 2448, Note_on_c, 0, 71, 96
1, 2448, Note_on_c, 1, 71, 88
1, 2448, Note_on_c, 2, 68, 88
1, 2448, Note_on_c, 3, 62, 88
1, 2448, Note_on_c, 4, 56, 80
1, 2448, Note_on_c, 5, 44, 80
1, 2460, Note_off_c, 4, 56, 0
1, 2460, Note_on_c, 4, 54, 80
1, 2460, Note_off_c, 5, 44, 0
1, 2460, Note_on_c, 5, 42, 80
1, 2472, Note_off_c, 4, 54, 0
1, 2472, Note_on_c, 4, 56, 80
1, 2472, Note_off_c, 5, 42, 0
1, 2472, Note_on_c, 5, 44, 80
1, 2490, Note_off_c, 1, 71, 0
1, 2490, Note_off_c, 2, 68, 0
1, 2490, Note_off_c, 3, 62, 0
1, 2493, Note_off_c, 4, 56, 0
1, 2493, Note_off_c, 5, 44, 0
1, 2496, Note_on_c, 4, 49, 80
1, 2496, Note_on_c, 5, 37, 80
1, 2500, Note_off_c, 0, 77, 0
1, 2500, Note_off_c, 0, 71, 0
1, 2508, Note_on_c, 0, 80, 96
1, 2514, Note_off_c, 0, 80, 0
1, 2514, Note_on_c, 0, 78, 96
1, 2520, Note_off_c, 0, 78, 0
1, 2520, Note_on_c, 0, 80, 96
1, 2520, Note_on_c, 1, 77, 88
1, 2520, Note_on_c, 2, 71, 88
1, 2520, Note_on_c, 3, 61, 88
1, 2520, Note_off_c, 4, 49, 0
1, 2520, Note_on_c, 4, 49, 80
1, 2520, Note_off_c, 5, 37, 0
1, 2520, Note_on_c, 5, 37, 80
1, 2530, Note_off_c, 1, 77, 0
1, 2530, Note_off_c, 2, 71, 0
1, 2532, Note_off_c, 0, 80, 0
1, 2532, Note_on_c, 0, 83, 96
1, 2532, Note_on_c, 1, 75, 88
1, 2532, Note_on_c, 2, 69, 88
1, 2541, Note_off_c, 3, 61, 0
1, 2541, Note_off_c, 4, 49, 0
1, 2541, Note_off_c, 5, 37, 0
1, 2542, Note_off_c, 0, 83, 0
1, 2542, Note_off_c, 1, 75, 0
1, 2542, Note_off_c, 2, 69, 0
1, 2544, Note_on_c, 0, 83, 96
1, 2544, Note_on_c, 1, 77, 88
1, 2544, Note_on_c, 2, 68, 88
1, 2544, Note_on_c, 3, 61, 88
1, 2544, Note_on_c, 4, 49, 80
1, 2544, Note_on_c, 5, 37, 80
1, 2554, Note_off_c, 4, 49, 0
1, 2554, Note_off_c, 5, 37, 0
1, 2556, Note_off_c, 0, 83, 0
1, 2556, Note_on_c, 0, 86, 96
1, 2556, Note_on_c, 4, 56, 80
1, 2556, Note_on_c, 5, 44, 80
1, 2565, Note_off_c, 1, 77, 0
1, 2565, Note_off_c, 2, 68, 0
1, 2565, Note_off_c, 3, 61, 0
1, 2566, Note_off_c, 0, 86, 0
1, 2568, Note_on_c, 0, 85, 96
1, 2568, Note_on_c, 1, 77, 88
1, 2568, Note_on_c, 2, 68, 88
1, 2568, Note_on_c, 3, 61, 88
1, 2568, Note_off_c, 4, 56, 0
1, 2568, Note_on_c, 4, 57, 80
1, 2568, Note_off_c, 5, 44, 0
1, 2568, Note_on_c, 5, 45, 80
1, 2580, Note_off_c, 0, 85, 0
1, 2580, Note_on_c, 0, 86, 96
1, 2580, Note_off_c, 4, 57, 0
1, 2580, Note_on_c, 4, 59, 80
1, 2580, Note_off_c, 5, 45, 0
1, 2580, Note_on_c, 5, 47, 80
1, 2586, Note_off_c, 0, 86, 0
1, 2586, Note_on_c, 0, 83, 96
1, 2589, Note_off_c, 1, 77, 0
1, 2589, Note_off_c, 2, 68, 0
1, 2589, Note_off_c, 3, 61, 0
1, 2590, Note_off_c, 4, 59, 0
1, 2590, Note_off_c, 5, 47, 0
1, 2591, Note_off_c, 0, 83, 0
1, 2592, Note_on_c, 0, 85, 96
1, 2592, Note_on_c, 1, 78, 88
1, 2592, Note_on_c, 2, 66, 88
1, 2592, Note_on_c, 3, 54, 88
1, 2592, Note_on_c, 4, 57, 80
1, 2592, Note_on_c, 5, 45, 80
1, 2604, Note_off_c, 0, 85, 0
1, 2604, Note_on_c, 0, 81, 96
1, 2614, Note_off_c, 0, 81, 0
1, 2616, Note_on_c, 0, 80, 96
1, 2628, Note_off_c, 0, 80, 0
1, 2628, Note_on_c, 0, 78, 96
1, 2634, Note_off_c, 1, 78, 0
1, 2634, Note_off_c, 2, 66, 0
1, 2634, Note_off_c, 3, 54, 0
1, 2634, Note_off_c, 4, 57, 0
1, 2634, Note_off_c, 5, 45, 0
1, 2638, Note_off_c, 0, 78, 0
1, 2640, Note_on_c, 0, 78, 96
1, 2652, Note_off_c, 0, 78, 0
1, 2652, Note_on_c, 0, 81, 96
1, 2658, Note_off_c, 0, 81, 0
1, 2658, Note_on_c, 0, 78, 96
1, 2663, Note_off_c, 0, 78, 0
1, 2664, Note_on_c, 0, 76, 96
1, 2676, Note_off_c, 0, 76, 0
1, 2676, Note_on_c, 0, 74, 96
1, 2686, Note_off_c, 0, 74, 0
1, 2688, Note_on_c, 0, 74, 96
1, 2700, Note_off_c, 0, 74, 0
1, 2700, Note_on_c, 0, 78, 96
1, 2706, Note_off_c, 0, 78, 0
1, 2706, Note_on_c, 0, 74, 96
1, 2711, Note_off_c, 0, 74, 0
1, 2712, Note_on_c, 0, 73, 96
1, 2715, Note_off_c, 0, 73, 0
1, 2715, Note_on_c, 0, 74, 96
1, 2718, Note_off_c, 0, 74, 0
1, 2718, Note_on_c, 0, 73, 96
1, 2720, Note_off_c, 0, 73, 0
1, 2720, Note_on_c, 0, 74, 96
1, 2722, Note_off_c, 0, 74, 0
1, 2722, Note_on_c, 0, 73, 96
1, 2724, Note_off_c, 0, 73, 0
1, 2724, Note_on_c, 0, 72, 96
1, 2734, Note_off_c, 0, 72, 0
1, 2736, Note_on_c, 0, 81, 96
1, 2736, Note_on_c, 0, 72, 96
1, 2736, Note_on_c, 1, 78, 88
1, 2736, Note_on_c, 2, 75, 88
1, 2736, Note_on_c, 3, 72, 88
1, 2736, Note_on_c, 4, 51, 80
1, 2736, Note_on_c, 5, 39, 80
1, 2748, Note_off_c, 4, 51, 0
1, 2748, Note_on_c, 4, 49, 80
1, 2748, Note_off_c, 5, 39, 0
1, 2748, Note_on_c, 5, 37, 80
1, 2760, Note_off_c, 0, 81, 0
1, 2760, Note_on_c, 0, 80, 96
1, 2760, Note_off_c, 4, 49, 0
1, 2760, Note_on_c, 4, 51, 80
1, 2760, Note_off_c, 5, 37, 0
1, 2760, Note_on_c, 5, 39, 80
1, 2778, Note_off_c, 1, 78, 0
1, 2778, Note_off_c, 2, 75, 0
1, 2778, Note_off_c, 3, 72, 0
1, 2781, Note_off_c, 0, 80, 0
1, 2781, Note_off_c, 4, 51, 0
1, 2781, Note_off_c, 5, 39, 0
1, 2784, Note_off_c, 0, 72, 0
1, 2784, Note_on_c, 4, 44, 80
1, 2784, Note_on_c, 5, 32, 80
1, 2808, Note_on_c, 0, 78, 96
1, 2808, Note_on_c, 1, 72, 88
1, 2808, Note_on_c, 2, 68, 88
1, 2808, Note_on_c, 3, 63, 88
1, 2808, Note_off_c, 4, 44, 0
1, 2808, Note_on_c, 4, 44, 80
1, 2808, Note_off_c, 5, 32, 0
1, 2808, Note_on_c, 5, 32, 80
1, 2818, Note_off_c, 1, 72, 0
1, 2820, Note_on_c, 1, 75, 88
1, 2820, Note_off_c, 2, 68, 0
1, 2820, Note_on_c, 2, 66, 88
1, 2829, Note_off_c, 0, 78, 0
1, 2829, Note_off_c, 3, 63, 0
1, 2829, Note_off_c, 4, 44, 0
1, 2829, Note_off_c, 5, 32, 0
1, 2830, Note_off_c, 1, 75, 0
1, 2830, Note_off_c, 2, 66, 0
1, 2832, Note_on_c, 0, 76, 96
1, 2832, Note_on_c, 1, 73, 88
1, 2832, Note_on_c, 2, 68, 88
1, 2832, Note_on_c, 3, 64, 88
1, 2832, Note_on_c, 4, 44, 80
1, 2832, Note_on_c, 5, 32, 80
1, 2835, Note_off_c, 0, 76, 0
1, 2835, Note_on_c, 0, 78, 96
1, 2838, Note_off_c, 0, 78, 0
1, 2838, Note_on_c, 0, 76, 96
1, 2841, Note_off_c, 0, 76, 0
1, 2841, Note_on_c, 0, 78, 96
1, 2842, Note_off_c, 4, 44, 0
1, 2842, Note_off_c, 5, 32, 0
1, 2844, Note_off_c, 0, 78, 0
1, 2844, Note_on_c, 0, 76, 96
1, 2844, Note_on_c, 4, 51, 80
1, 2844, Note_on_c, 5, 39, 80
1, 2846, Note_off_c, 0, 76, 0
1, 2846, Note_on_c, 0, 78, 96
1, 2848, Note_off_c, 0, 78, 0
1, 2848, Note_on_c, 0, 76, 96
1, 2850, Note_off_c, 0, 76, 0
1, 2850, Note_on_c, 0, 75, 96
1, 2853, Note_off_c, 1, 73, 0
1, 2853, Note_off_c, 2, 68, 0
1, 2853, Note_off_c, 3, 64, 0
1, 2855, Note_off_c, 0, 75, 0
1, 2856, Note_on_c, 0, 73, 96
1, 2856, Note_on_c, 1, 66, 88
1, 2856, Note_on_c, 2, 69, 88
1, 2856, Note_on_c, 3, 63, 88
1, 2856, Note_off_c, 4, 51, 0
1, 2856, Note_on_c, 4, 52, 80
1, 2856, Note_off_c, 5, 39, 0
1, 2856, Note_on_c, 5, 40, 80
1, 2868, Note_off_c, 0, 73, 0
1, 2868, Note_on_c, 0, 75, 96
1, 2868, Note_off_c, 4, 52, 0
1, 2868, Note_on_c, 4, 54, 80
1, 2868, Note_off_c, 5, 40, 0
1, 2868, Note_on_c, 5, 42, 80
1, 2874, Note_off_c, 0, 75, 0
1, 2874, Note_on_c, 0, 72, 96
1, 2877, Note_off_c, 1, 66, 0
1, 2877, Note_off_c, 2, 69, 0
1, 2877, Note_off_c, 3, 63, 0
1, 2878, Note_off_c, 4, 54, 0
1, 2878, Note_off_c, 5, 42, 0
1, 2879, Note_off_c, 0, 72, 0
1, 2880, Note_on_c, 0, 73, 96
1, 2880, Note_on_c, 1, 68, 88
1, 2880, Note_on_c, 2, 68, 88
1, 2880, Note_on_c, 3, 61, 88
1, 2880, Note_on_c, 4, 52, 80
1, 2880, Note_on_c, 5, 40, 80
1, 2890, Note_off_c, 0, 73, 0
1, 2892, Note_on_c, 0, 76, 96
1, 2892, Note_off_c, 4, 52, 0
1, 2892, Note_on_c, 4, 56, 80
1, 2892, Note_off_c, 5, 40, 0
1, 2892, Note_on_c, 5, 44, 80
1, 2898, Note_off_c, 0, 76, 0
1, 2898, Note_on_c, 0, 75, 96
1, 2902, Note_off_c, 4, 56, 0
1, 2902, Note_off_c, 5, 44, 0
1, 2904, Note_off_c, 0, 75, 0
1, 2904, Note_on_c, 0, 76, 96
1, 2904, Note_on_c, 4, 56, 80
1, 2904, Note_on_c, 5, 44, 80
1, 2916, Note_off_c, 0, 76, 0
1, 2916, Note_on_c, 0, 73, 96
1, 2916, Note_off_c, 4, 56, 0
1, 2916, Note_on_c, 4, 52, 80
1, 2916, Note_off_c, 5, 44, 0
1, 2916, Note_on_c, 5, 40, 80
1, 2922, Note_off_c, 1, 68, 0
1, 2922, Note_off_c, 2, 68, 0
1, 2922, Note_off_c, 3, 61, 0
1, 2926, Note_off_c, 0, 73, 0
1, 2926, Note_off_c, 4, 52, 0
1, 2926, Note_off_c, 5, 40, 0
1, 2928, Note_on_c, 0, 69, 96
1, 2928, Note_on_c, 4, 49, 80
1, 2928, Note_on_c, 5, 37, 80
1, 2938, Note_off_c, 0, 69, 0
1, 2940, Note_on_c, 0, 73, 96
1, 2940, Note_off_c, 4, 49, 0
1, 2940, Note_on_c, 4, 52, 80
1, 2940, Note_off_c, 5, 37, 0
1, 2940, Note_on_c, 5, 40, 80
1, 2946, Note_off_c, 0, 73, 0
1, 2946, Note_on_c, 0, 71, 96
1, 2950, Note_off_c, 4, 52, 0
1, 2950, Note_off_c, 5, 40, 0
1, 2952, Note_off_c, 0, 71, 0
1, 2952, Note_on_c, 0, 73, 96
1, 2952, Note_on_c, 1, 73, 88
1, 2952, Note_on_c, 2, 68, 88
1, 2952, Note_on_c, 3, 64, 88
1, 2952, Note_on_c, 4, 52, 80
1, 2952, Note_on_c, 5, 40, 80
1, 2964, Note_off_c, 0, 73, 0
1, 2964, Note_on_c, 0, 69, 96
1, 2964, Note_off_c, 1, 73, 0
1, 2964, Note_on_c, 1, 76, 88
1, 2964, Note_off_c, 4, 52, 0
1, 2964, Note_on_c, 4, 49, 80
1, 2964, Note_off_c, 5, 40, 0
1, 2964, Note_on_c, 5, 37, 80
1, 2973, Note_off_c, 2, 68, 0
1, 2973, Note_off_c, 3, 64, 0
1, 2974, Note_off_c, 0, 69, 0
1, 2974, Note_off_c, 1, 76, 0
1, 2974, Note_off_c, 4, 49, 0
1, 2974, Note_off_c, 5, 37, 0
1, 2976, Note_on_c, 0, 66, 96
1, 2976, Note_on_c, 1, 75, 88
1, 2976, Note_on_c, 2, 69, 88
1, 2976, Note_on_c, 3, 66, 88
1, 2976, Note_on_c, 4, 45, 80
1, 2976, Note_on_c, 5, 33, 80
1, 2986, Note_off_c, 0, 66, 0
1, 2988, Note_on_c, 0, 76, 96
1, 2988, Note_off_c, 1, 75, 0
1, 2988, Note_on_c, 1, 73, 88
1, 2997, Note_off_c, 2, 69, 0
1, 2997, Note_off_c, 3, 66, 0
1, 2998, Note_off_c, 0, 76, 0
1, 3000, Note_on_c, 0, 75, 96
1, 3000, Note_off_c, 1, 73, 0
1, 3000, Note_on_c, 1, 72, 88
1, 3000, Note_on_c, 2, 78, 88
1, 3000, Note_on_c, 3, 69, 88
1, 3012, Note_off_c, 0, 75, 0
1, 3012, Note_on_c, 0, 76, 96
1, 3012, Note_off_c, 1, 72, 0
1, 3012, Note_on_c, 1, 73, 88
1, 3018, Note_off_c, 0, 76, 0
1, 3018, Note_on_c, 0, 73, 96
1, 3018, Note_off_c, 4, 45, 0
1, 3018, Note_off_c, 5, 33, 0
1, 3021, Note_off_c, 2, 78, 0
1, 3021, Note_off_c, 3, 69, 0
1, 3022, Note_off_c, 1, 73, 0
1, 3023, Note_off_c, 0, 73, 0
1, 3024, Note_on_c, 0, 72, 96
1, 3024, Note_on_c, 1, 80, 88
1, 3024, Note_on_c, 2, 72, 88
1, 3024, Note_on_c, 3, 63, 88
1, 3024, Note_on_c, 4, 44, 80
1, 3024, Note_on_c, 5, 32, 80
1, 3192, Note_off_c, 0, 72, 0
1, 3192, Note_off_c, 1, 80, 0
1, 3192, Note_off_c, 2, 72, 0
1, 3192, Note_off_c, 3, 63, 0
1, 3192, Note_off_c, 4, 44, 0
1, 3192, Note_off_c, 5, 32, 0
1, 3264, Note_on_c, 0, 76, 80
1, 3264, Note_on_c, 1, 76, 88
1, 3264, Note_on_c, 2, 73, 88
1, 3264, Note_on_c, 3, 68, 88
1, 3264, Note_on_c, 4, 49, 80
1, 3264, Note_on_c, 5, 37, 80
1, 3276, Note_off_c, 0, 76, 0
1, 3276, Note_on_c, 0, 75, 80
1, 3286, Note_off_c, 0, 75, 0
1, 3288, Note_on_c, 0, 80, 80
1, 3288, Note_off_c, 1, 76, 0
1, 3288, Note_on_c, 1, 76, 88
1, 3288, Note_off_c, 2, 73, 0
1, 3288, Note_on_c, 2, 73, 88
1, 3288, Note_off_c, 3, 68, 0
1, 3288, Note_on_c, 3, 68, 88
1, 3300, Note_off_c, 0, 80, 0
1, 3300, Note_on_c, 0, 78, 80
1, 3306, Note_off_c, 4, 49, 0
1, 3306, Note_off_c, 5, 37, 0
1, 3310, Note_off_c, 0, 78, 0
1, 3312, Note_on_c, 0, 76, 80
1, 3312, Note_off_c, 1, 76, 0
1, 3312, Note_on_c, 1, 76, 88
1, 3312, Note_off_c, 2, 73, 0
1, 3312, Note_on_c, 2, 73, 88
1, 3312, Note_off_c, 3, 68, 0
1, 3312, Note_on_c, 3, 68, 88
1, 3324, Note_off_c, 0, 76, 0
1, 3324, Note_on_c, 0, 75, 80
1, 3334, Note_off_c, 0, 75, 0
1, 3336, Note_on_c, 0, 73, 80
1, 3336, Note_off_c, 1, 76, 0
1, 3336, Note_on_c, 1, 76, 88
1, 3336, Note_off_c, 2, 73, 0
1, 3336, Note_on_c, 2, 73, 88
1, 3336, Note_off_c, 3, 68, 0
1, 3336, Note_on_c, 3, 68, 88
1, 3348, Note_off_c, 0, 73, 0
1, 3348, Note_on_c, 0, 72, 80
1, 3358, Note_off_c, 0, 72, 0
1, 3360, Note_on_c, 0, 76, 80
1, 3360, Note_off_c, 1, 76, 0
1, 3360, Note_on_c, 1, 76, 88
1, 3360, Note_off_c, 2, 73, 0
1, 3360, Note_on_c, 2, 73, 88
1, 3360, Note_off_c, 3, 68, 0
1, 3360, Note_on_c, 3, 68, 88
1, 3372, Note_off_c, 0, 76, 0
1, 3372, Note_on_c, 0, 75, 80
1, 3382, Note_off_c, 0, 75, 0
1, 3384, Note_on_c, 0, 73, 80
1, 3384, Note_off_c, 1, 76, 0
1, 3384, Note_on_c, 1, 76, 88
1, 3384, Note_off_c, 2, 73, 0
1, 3384, Note_on_c, 2, 73, 88
1, 3384, Note_off_c, 3, 68, 0
1, 3384, Note_on_c, 3, 68, 88
1, 3396, Note_off_c, 0, 73, 0
1, 3396, Note_on_c, 0, 71, 80
1, 3405, Note_off_c, 1, 76, 0
1, 3405, Note_off_c, 2, 73, 0
1, 3405, Note_off_c, 3, 68, 0
1, 3406, Note_off_c, 0, 71, 0
1, 3408, Note_on_c, 0, 69, 80
1, 3408, Note_on_c, 1, 76, 88
1, 3408, Note_on_c, 2, 73, 88
1, 3408, Note_on_c, 3, 69, 88
1, 3408, Note_on_c, 4, 49, 80
1, 3408, Note_on_c, 5, 37, 80
1, 3420, Note_off_c, 0, 69, 0
1, 3420, Note_on_c, 0, 68, 80
1, 3430, Note_off_c, 0, 68, 0
1, 3432, Note_on_c, 0, 73, 80
1, 3432, Note_off_c, 1, 76, 0
1, 3432, Note_on_c, 1, 76, 88
1, 3432, Note_off_c, 2, 73, 0
1, 3432, Note_on_c, 2, 73, 88
1, 3432, Note_off_c, 3, 69, 0
1, 3432, Note_on_c, 3, 69, 88
1, 3444, Note_off_c, 0, 73, 0
1, 3444, Note_on_c, 0, 71, 80
1, 3450, Note_off_c, 4, 49, 0
1, 3450, Note_off_c, 5, 37, 0
1, 3454, Note_off_c, 0, 71, 0
1, 3456, Note_on_c, 0, 69, 80
1, 3456, Note_off_c, 1, 76, 0
1, 3456, Note_on_c, 1, 76, 88
1, 3456, Note_off_c, 2, 73, 0
1, 3456, Note_on_c, 2, 73, 88
1, 3456, Note_off_c, 3, 69, 0
1, 3456, Note_on_c, 3, 69, 88
1, 3468, Note_off_c, 0, 69, 0
1, 3468, Note_on_c, 0, 68, 80
1, 3480, Note_off_c, 0, 68, 0
1, 3480, Note_on_c, 0, 67, 80
1, 3480, Note_off_c, 1, 76, 0
1, 3480, Note_on_c, 1, 76, 88
1, 3480, Note_off_c, 2, 73, 0
1, 3480, Note_on_c, 2, 73, 88
1, 3480, Note_off_c, 3, 69, 0
1, 3480, Note_on_c, 3, 71, 88
1, 3492, Note_off_c, 0, 67, 0
1, 3492, Note_on_c, 0, 68, 80
1, 3502, Note_off_c, 0, 68, 0
1, 3504, Note_on_c, 0, 73, 80
1, 3504, Note_off_c, 1, 76, 0
1, 3504, Note_on_c, 1, 76, 88
1, 3504, Note_off_c, 2, 73, 0
1, 3504, Note_on_c, 2, 73, 88
1, 3504, Note_off_c, 3, 71, 0
1, 3504, Note_on_c, 3, 69, 88
1, 3516, Note_off_c, 0, 73, 0
1, 3516, Note_on_c, 0, 72, 80
1, 3528, Note_off_c, 0, 72, 0
1, 3528, Note_on_c, 0, 76, 80
1, 3528, Note_off_c, 1, 76, 0
1, 3528, Note_on_c, 1, 76, 88
1, 3528, Note_off_c, 2, 73, 0
1, 3528, Note_on_c, 2, 73, 88
1, 3528, Note_off_c, 3, 69, 0
1, 3528, Note_on_c, 3, 68, 88
1, 3540, Note_off_c, 0, 76, 0
1, 3540, Note_on_c, 0, 75, 80
1, 3549, Note_off_c, 1, 76, 0
1, 3549, Note_off_c, 2, 73, 0
1, 3549, Note_off_c, 3, 68, 0
1, 3550, Note_off_c, 0, 75, 0
1, 3552, Note_on_c, 0, 75, 80
1, 3552, Note_on_c, 1, 75, 88
1, 3552, Note_on_c, 2, 70, 88
1, 3552, Note_on_c, 3, 67, 88
1, 3552, Note_on_c, 4, 61, 80
1, 3552, Note_on_c, 5, 49, 80
1, 3604, Note_off_c, 0, 75, 0
1, 3604, Note_off_c, 1, 75, 0
1, 3604, Note_off_c, 2, 70, 0
1, 3604, Note_off_c, 3, 67, 0
1, 3604, Note_off_c, 4, 61, 0
1, 3604, Note_off_c, 5, 49, 0
1, 3612, Note_on_c, 0, 79, 80
1, 3612, Note_on_c, 1, 79, 88
1, 3612, Note_on_c, 2, 73, 88
1, 3612, Note_on_c, 3, 70, 88
1, 3612, Note_on_c, 4, 58, 80
1, 3612, Note_on_c, 5, 46, 80
1, 3622, Note_off_c, 0, 79, 0
1, 3622, Note_off_c, 1, 79, 0
1, 3622, Note_off_c, 2, 73, 0
1, 3622, Note_off_c, 3, 70, 0
1, 3622, Note_off_c, 4, 58, 0
1, 3622, Note_off_c, 5, 46, 0
1, 3624, Note_on_c, 0, 79, 80
1, 3624, Note_on_c, 1, 79, 88
1, 3624, Note_on_c, 2, 73, 88
1, 3624, Note_on_c, 3, 70, 88
1, 3624, Note_on_c, 4, 58, 80
1, 3624, Note_on_c, 5, 46, 80
1, 3636, Note_off_c, 0, 79, 0
1, 3636, Note_on_c, 0, 80, 80
1, 3636, Note_off_c, 1, 79, 0
1, 3636, Note_on_c, 1, 80, 88
1, 3636, Note_off_c, 2, 73, 0
1, 3636, Note_on_c, 2, 75, 88
1, 3636, Note_off_c, 3, 70, 0
1, 3636, Note_on_c, 3, 68, 88
1, 3636, Note_off_c, 4, 58, 0
1, 3636, Note_on_c, 4, 59, 80
1, 3636, Note_off_c, 5, 46, 0
1, 3636, Note_on_c, 5, 47, 80
1, 3646, Note_off_c, 0, 80, 0
1, 3646, Note_off_c, 1, 80, 0
1, 3646, Note_off_c, 2, 75, 0
1, 3646, Note_off_c, 3, 68, 0
1, 3646, Note_off_c, 4, 59, 0
1, 3646, Note_off_c, 5, 47, 0
1, 3648, Note_on_c, 0, 80, 80
1, 3648, Note_on_c, 1, 80, 88
1, 3648, Note_on_c, 2, 75, 88
1, 3648, Note_on_c, 3, 68, 88
1, 3648, Note_on_c, 4, 59, 80
1, 3648, Note_on_c, 5, 47, 80
1, 3660, Note_off_c, 2, 75, 0
1, 3660, Note_on_c, 2, 71, 88
1, 3660, Note_off_c, 3, 68, 0
1, 3660, Note_on_c, 3, 63, 88
1, 3660, Note_off_c, 4, 59, 0
1, 3660, Note_on_c, 4, 56, 80
1, 3660, Note_off_c, 5, 47, 0
1, 3660, Note_on_c, 5, 44, 80
1, 3670, Note_off_c, 2, 71, 0
1, 3670, Note_off_c, 3, 63, 0
1, 3670, Note_off_c, 4, 56, 0
1, 3670, Note_off_c, 5, 44, 0
1, 3672, Note_on_c, 2, 71, 88
1, 3672, Note_on_c, 3, 63, 88
1, 3672, Note_on_c, 4, 56, 80
1, 3672, Note_on_c, 5, 44, 80
1, 3684, Note_off_c, 2, 71, 0
1, 3684, Note_on_c, 2, 68, 88
1, 3684, Note_off_c, 3, 63, 0
1, 3684, Note_on_c, 3, 64, 88
1, 3684, Note_off_c, 4, 56, 0
1, 3684, Note_on_c, 4, 52, 80
1, 3684, Note_off_c, 5, 44, 0
1, 3684, Note_on_c, 5, 40, 80
1, 3694, Note_off_c, 2, 68, 0
1, 3694, Note_off_c, 3, 64, 0
1, 3694, Note_off_c, 4, 52, 0
1, 3694, Note_off_c, 5, 40, 0
1, 3696, Note_on_c, 2, 68, 88
1, 3696, Note_on_c, 3, 64, 88
1, 3696, Note_on_c, 4, 52, 80
1, 3696, Note_on_c, 5, 40, 80
1, 3700, Note_off_c, 0, 80, 0
1, 3708, Note_on_c, 0, 76, 80
1, 3708, Note_off_c, 4, 52, 0
1, 3708, Note_on_c, 4, 49, 80
1, 3708, Note_off_c, 5, 40, 0
1, 3708, Note_on_c, 5, 37, 80
1, 3711, Note_off_c, 1, 80, 0
1, 3717, Note_off_c, 2, 68, 0
1, 3717, Note_off_c, 3, 64, 0
1, 3718, Note_off_c, 0, 76, 0
1, 3718, Note_off_c, 4, 49, 0
1, 3718, Note_off_c, 5, 37, 0
1, 3720, Note_on_c, 0, 76, 80
1, 3720, Note_on_c, 1, 76, 88
1, 3720, Note_on_c, 2, 68, 88
1, 3720, Note_on_c, 3, 64, 88
1, 3720, Note_on_c, 4, 49, 80
1, 3720, Note_on_c, 5, 37, 80
1, 3732, Note_off_c, 0, 76, 0
1, 3732, Note_on_c, 0, 73, 80
1, 3732, Note_off_c, 4, 49, 0
1, 3732, Note_on_c, 4, 46, 80
1, 3732, Note_off_c, 5, 37, 0
1, 3732, Note_on_c, 5, 34, 80
1, 3741, Note_off_c, 1, 76, 0
1, 3741, Note_off_c, 2, 68, 0
1, 3741, Note_off_c, 3, 64, 0
1, 3742, Note_off_c, 0, 73, 0
1, 3742, Note_off_c, 4, 46, 0
1, 3742, Note_off_c, 5, 34, 0
1, 3744, Note_on_c, 0, 67, 80
1, 3744, Note_on_c, 1, 73, 88
1, 3744, Note_on_c, 2, 67, 88
1, 3744, Note_on_c, 3, 58, 88
1, 3744, Note_on_c, 4, 46, 80
1, 3744, Note_on_c, 5, 34, 80
1, 3756, Note_off_c, 0, 67, 0
1, 3756, Note_on_c, 0, 76, 80
1, 3756, Note_off_c, 1, 73, 0
1, 3756, Note_on_c, 1, 71, 88
1, 3756, Note_off_c, 2, 67, 0
1, 3756, Note_on_c, 2, 68, 88
1, 3756, Note_off_c, 3, 58, 0
1, 3756, Note_on_c, 3, 59, 88
1, 3756, Note_off_c, 4, 46, 0
1, 3756, Note_on_c, 4, 44, 80
1, 3756, Note_off_c, 5, 34, 0
1, 3756, Note_on_c, 5, 32, 80
1, 3766, Note_off_c, 0, 76, 0
1, 3766, Note_off_c, 1, 71, 0
1, 3766, Note_off_c, 2, 68, 0
1, 3766, Note_off_c, 3, 59, 0
1, 3766, Note_off_c, 4, 44, 0
1, 3766, Note_off_c, 5, 32, 0
1, 3768, Note_on_c, 0, 75, 80
1, 3768, Note_on_c, 1, 70, 88
1, 3768, Note_on_c, 2, 70, 88
1, 3768, Note_on_c, 3, 61, 88
1, 3768, Note_on_c, 4, 43, 80
1, 3768, Note_on_c, 5, 31, 80
1, 3780, Note_off_c, 0, 75, 0
1, 3780, Note_on_c, 0, 76, 80
1, 3780, Note_off_c, 1, 70, 0
1, 3780, Note_on_c, 1, 68, 88
1, 3780, Note_off_c, 2, 70, 0
1, 3780, Note_on_c, 2, 71, 88
1, 3780, Note_off_c, 3, 61, 0
1, 3780, Note_on_c, 3, 59, 88
1, 3780, Note_off_c, 4, 43, 0
1, 3780, Note_on_c, 4, 44, 80
1, 3780, Note_off_c, 5, 31, 0
1, 3780, Note_on_c, 5, 32, 80
1, 3786, Note_off_c, 0, 76, 0
1, 3786, Note_on_c, 0, 73, 80
1, 3790, Note_off_c, 1, 68, 0
1, 3790, Note_off_c, 2, 71, 0
1, 3790, Note_off_c, 3, 59, 0
1, 3790, Note_off_c, 4, 44, 0
1, 3790, Note_off_c, 5, 32, 0
1, 3791, Note_off_c, 0, 73, 0
1, 3792, Note_on_c, 0, 71, 80
1, 3792, Note_on_c, 1, 67, 88
1, 3792, Note_on_c, 2, 63, 88
1, 3792, Note_on_c, 3, 59, 88
1, 3792, Note_on_c, 4, 51, 80
1, 3792, Note_on_c, 5, 39, 80
1, 3795, Note_off_c, 0, 71, 0
1, 3795, Note_on_c, 0, 73, 80
1, 3798, Note_off_c, 0, 73, 0
1, 3798, Note_on_c, 0, 71, 80
1, 3801, Note_off_c, 0, 71, 0
1, 3801, Note_on_c, 0, 73, 80
1, 3802, Note_off_c, 3, 59, 0
1, 3804, Note_off_c, 0, 73, 0
1, 3804, Note_on_c, 0, 71, 80
1, 3804, Note_on_c, 3, 61, 88
1, 3807, Note_off_c, 0, 71, 0
1, 3807, Note_on_c, 0, 73, 80
1, 3810, Note_off_c, 0, 73, 0
1, 3810, Note_on_c, 0, 71, 80
1, 3812, Note_off_c, 0, 71, 0
1, 3812, Note_on_c, 0, 73, 80
1, 3813, Note_off_c, 2, 63, 0
1, 3813, Note_off_c, 4, 51, 0
1, 3813, Note_off_c, 5, 39, 0
1, 3814, Note_off_c, 0, 73, 0
1, 3814, Note_on_c, 0, 71, 80
1, 3816, Note_off_c, 0, 71, 0
1, 3816, Note_on_c, 0, 70, 80
1, 3816, Note_on_c, 2, 63, 88
1, 3816, Note_off_c, 3, 61, 0
1, 3816, Note_on_c, 3, 63, 88
1, 3816, Note_on_c, 4, 39, 80
1, 3816, Note_on_c, 5, 27, 80
1, 3822, Note_off_c, 3, 63, 0
1, 3822, Note_on_c, 3, 64, 88
1, 3823, Note_off_c, 1, 67, 0
1, 3827, Note_off_c, 3, 64, 0
1, 3828, Note_off_c, 0, 70, 0
1, 3828, Note_on_c, 0, 68, 80
1, 3828, Note_on_c, 1, 68, 88
1, 3828, Note_on_c, 3, 61, 88
1, 3837, Note_off_c, 2, 63, 0
1, 3837, Note_off_c, 4, 39, 0
1, 3837, Note_off_c, 5, 27, 0
1, 3838, Note_off_c, 0, 68, 0
1, 3838, Note_off_c, 1, 68, 0
1, 3838, Note_off_c, 3, 61, 0
1, 3840, Note_on_c, 0, 68, 80
1, 3840, Note_on_c, 1, 68, 88
1, 3840, Note_on_c, 2, 63, 88
1, 3840, Note_on_c, 3, 61, 88
1, 3840, Note_on_c, 4, 44, 80
1, 3840, Note_on_c, 5, 32, 80
1, 3852, Note_off_c, 0, 68, 0
1, 3852, Note_on_c, 0, 71, 80
1, 3858, Note_off_c, 0, 71, 0
1, 3858, Note_on_c, 0, 70, 80
1, 3864, Note_off_c, 0, 70, 0
1, 3864, Note_on_c, 0, 71, 80
1, 3864, Note_off_c, 3, 61, 0
1, 3864, Note_on_c, 3, 59, 88
1, 3876, Note_off_c, 0, 71, 0
1, 3876, Note_on_c, 0, 75, 80
1, 3882, Note_off_c, 1, 68, 0
1, 3882, Note_off_c, 2, 63, 0
1, 3882, Note_off_c, 4, 44, 0
1, 3882, Note_off_c, 5, 32, 0
1, 3885, Note_off_c, 3, 59, 0
1, 3886, Note_off_c, 0, 75, 0
1, 3888, Note_on_c, 0, 71, 80
1, 3898, Note_off_c, 0, 71, 0
1, 3900, Note_on_c, 0, 68, 80
1, 3906, Note_off_c, 0, 68, 0
1, 3906, Note_on_c, 0, 67, 80
1, 3912, Note_off_c, 0, 67, 0
1, 3912, Note_on_c, 0, 68, 80
1, 3924, Note_off_c, 0, 68, 0
1, 3924, Note_on_c, 0, 63, 80
1, 3934, Note_off_c, 0, 63, 0
1, 3936, Note_on_c, 0, 56, 80
1, 3978, Note_off_c, 0, 56, 0
1, 3984, Note_on_c, 0, 71, 80
1, 3984, Note_on_c, 1, 71, 88
1, 3984, Note_on_c, 2, 68, 88
1, 3984, Note_on_c, 3, 64, 88
1, 4008, Note_off_c, 1, 71, 0
1, 4008, Note_on_c, 1, 71, 88
1, 4008, Note_off_c, 2, 68, 0
1, 4008, Note_on_c, 2, 68, 88
1, 4008, Note_off_c, 3, 64, 0
1, 4008, Note_on_c, 3, 64, 88
1, 4032, Note_off_c, 1, 71, 0
1, 4032, Note_on_c, 1, 71, 88
1, 4032, Note_off_c, 2, 68, 0
1, 4032, Note_on_c, 2, 68, 88
1, 4032, Note_off_c, 3, 64, 0
1, 4032, Note_on_c, 3, 64, 88
1, 4036, Note_off_c, 0, 71, 0
1, 4044, Note_on_c, 0, 73, 80
1, 4050, Note_off_c, 0, 73, 0
1, 4050, Note_on_c, 0, 75, 80
1, 4056, Note_off_c, 0, 75, 0
1, 4056, Note_on_c, 0, 76, 80
1, 4056, Note_off_c, 1, 71, 0
1, 4056, Note_on_c, 1, 71, 88
1, 4056, Note_off_c, 2, 68, 0
1, 4056, Note_on_c, 2, 68, 88
1, 4056, Note_off_c, 3, 64, 0
1, 4056, Note_on_c, 3, 64, 88
1, 4068, Note_off_c, 0, 76, 0
1, 4068, Note_on_c, 0, 78, 80
1, 4078, Note_off_c, 0, 78, 0
1, 4080, Note_on_c, 0, 80, 80
1, 4080, Note_off_c, 1, 71, 0
1, 4080, Note_on_c, 1, 71, 88
1, 4080, Note_off_c, 2, 68, 0
1, 4080, Note_on_c, 2, 68, 88
1, 4080, Note_off_c, 3, 64, 0
1, 4080, Note_on_c, 3, 64, 88
1, 4092, Note_off_c, 0, 80, 0
1, 4092, Note_on_c, 0, 81, 80
1, 4098, Note_off_c, 0, 81, 0
1, 4098, Note_on_c, 0, 83, 80
1, 4104, Note_off_c, 0, 83, 0
1, 4104, Note_on_c, 0, 81, 80
1, 4104, Note_off_c, 1, 71, 0
1, 4104, Note_on_c, 1, 71, 88
1, 4104, Note_off_c, 2, 68, 0
1, 4104, Note_on_c, 2, 68, 88
1, 4104, Note_off_c, 3, 64, 0
1, 4104, Note_on_c, 3, 64, 88
1, 4114, Note_off_c, 0, 81, 0
1, 4116, Note_on_c, 0, 80, 80
1, 4125, Note_off_c, 1, 71, 0
1, 4125, Note_off_c, 2, 68, 0
1, 4125, Note_off_c, 3, 64, 0
1, 4126, Note_off_c, 0, 80, 0
1, 4128, Note_on_c, 0, 71, 80
1, 4128, Note_on_c, 1, 71, 88
1, 4128, Note_on_c, 2, 66, 88
1, 4128, Note_on_c, 3, 63, 88
1, 4152, Note_off_c, 1, 71, 0
1, 4152, Note_on_c, 1, 71, 88
1, 4152, Note_off_c, 2, 66, 0
1, 4152, Note_on_c, 2, 66, 88
1, 4152, Note_off_c, 3, 63, 0
1, 4152, Note_on_c, 3, 63, 88
1, 4176, Note_off_c, 1, 71, 0
1, 4176, Note_on_c, 1, 71, 88
1, 4176, Note_off_c, 2, 66, 0
1, 4176, Note_on_c, 2, 66, 88
1, 4176, Note_off_c, 3, 63, 0
1, 4176, Note_on_c, 3, 63, 88
1, 4180, Note_off_c, 0, 71, 0
1, 4188, Note_on_c, 0, 71, 80
1, 4194, Note_off_c, 0, 71, 0
1, 4194, Note_on_c, 0, 73, 80
1, 4200, Note_off_c, 0, 73, 0
1, 4200, Note_on_c, 0, 75, 80
1, 4200, Note_off_c, 1, 71, 0
1, 4200, Note_on_c, 1, 71, 88
1, 4200, Note_off_c, 2, 66, 0
1, 4200, Note_on_c, 2, 66, 88
1, 4200, Note_off_c, 3, 63, 0
1, 4200, Note_on_c, 3, 63, 88
1, 4212, Note_off_c, 0, 75, 0
1, 4212, Note_on_c, 0, 76, 80
1, 4222, Note_off_c, 0, 76, 0
1, 4224, Note_on_c, 0, 78, 80
1, 4224, Note_off_c, 1, 71, 0
1, 4224, Note_on_c, 1, 71, 88
1, 4224, Note_off_c, 2, 66, 0
1, 4224, Note_on_c, 2, 66, 88
1, 4224, Note_off_c, 3, 63, 0
1, 4224, Note_on_c, 3, 63, 88
1, 4236, Note_off_c, 0, 78, 0
1, 4236, Note_on_c, 0, 80, 80
1, 4242, Note_off_c, 0, 80, 0
1, 4242, Note_on_c, 0, 81, 80
1, 4247, Note_off_c, 0, 81, 0
1, 4248, Note_on_c, 0, 80, 80
1, 4248, Note_off_c, 1, 71, 0
1, 4248, Note_on_c, 1, 71, 88
1, 4248, Note_off_c, 2, 66, 0
1, 4248, Note_on_c, 2, 66, 88
1, 4248, Note_off_c, 3, 63, 0
1, 4248, Note_on_c, 3, 63, 88
1, 4258, Note_off_c, 0, 80, 0
1, 4260, Note_on_c, 0, 78, 80
1, 4269, Note_off_c, 1, 71, 0
1, 4269, Note_off_c, 2, 66, 0
1, 4269, Note_off_c, 3, 63, 0
1, 4270, Note_off_c, 0, 78, 0
1, 4272, Note_on_c, 0, 71, 80
1, 4272, Note_on_c, 1, 76, 88
1, 4272, Note_on_c, 2, 64, 88
1, 4272, Note_on_c, 3, 61, 88
1, 4293, Note_off_c, 0, 71, 0
1, 4296, Note_on_c, 0, 70, 80
1, 4296, Note_off_c, 1, 76, 0
1, 4296, Note_on_c, 1, 76, 88
1, 4296, Note_off_c, 2, 64, 0
1, 4296, Note_on_c, 2, 64, 88
1, 4296, Note_off_c, 3, 61, 0
1, 4296, Note_on_c, 3, 61, 88
1, 4299, Note_off_c, 0, 70, 0
1, 4299, Note_on_c, 0, 71, 80
1, 4302, Note_off_c, 0, 71, 0
1, 4302, Note_on_c, 0, 70, 80
1, 4305, Note_off_c, 0, 70, 0
1, 4305, Note_on_c, 0, 71, 80
1, 4308, Note_off_c, 0, 71, 0
1, 4308, Note_on_c, 0, 70, 80
1, 4311, Note_off_c, 0, 70, 0
1, 4311, Note_on_c, 0, 71, 80
1, 4314, Note_off_c, 0, 71, 0
1, 4314, Note_on_c, 0, 70, 80
1, 4317, Note_off_c, 0, 70, 0
1, 4317, Note_on_c, 0, 71, 80
1, 4320, Note_off_c, 0, 71, 0
1, 4320, Note_on_c, 0, 70, 80
1, 4320, Note_off_c, 1, 76, 0
1, 4320, Note_on_c, 1, 76, 88
1, 4320, Note_off_c, 2, 64, 0
1, 4320, Note_on_c, 2, 64, 88
1, 4320, Note_off_c, 3, 61, 0
1, 4320, Note_on_c, 3, 61, 88
1, 4330, Note_off_c, 0, 70, 0
1, 4332, Note_on_c, 0, 70, 80
1, 4338, Note_off_c, 0, 70, 0
1, 4338, Note_on_c, 0, 71, 80
1, 4344, Note_off_c, 0, 71, 0
1, 4344, Note_on_c, 0, 73, 80
1, 4344, Note_off_c, 1, 76, 0
1, 4344, Note_on_c, 1, 76, 88
1, 4344, Note_off_c, 2, 64, 0
1, 4344, Note_on_c, 2, 64, 88
1, 4344, Note_off_c, 3, 61, 0
1, 4344, Note_on_c, 3, 61, 88
1, 4356, Note_off_c, 0, 73, 0
1, 4356, Note_on_c, 0, 75, 80
1, 4366, Note_off_c, 0, 75, 0
1, 4368, Note_on_c, 0, 76, 80
1, 4368, Note_off_c, 1, 76, 0
1, 4368, Note_on_c, 1, 70, 88
1, 4368, Note_off_c, 2, 64, 0
1, 4368, Note_on_c, 2, 64, 88
1, 4368, Note_off_c, 3, 61, 0
1, 4368, Note_on_c, 3, 61, 88
1, 4380, Note_off_c, 0, 76, 0
1, 4380, Note_on_c, 0, 78, 80
1, 4386, Note_off_c, 0, 78, 0
1, 4386, Note_on_c, 0, 80, 80
1, 4392, Note_off_c, 0, 80, 0
1, 4392, Note_on_c, 0, 78, 80
1, 4392, Note_off_c, 1, 70, 0
1, 4392, Note_on_c, 1, 70, 88
1, 4392, Note_off_c, 2, 64, 0
1, 4392, Note_on_c, 2, 64, 88
1, 4392, Note_off_c, 3, 61, 0
1, 4392, Note_on_c, 3, 61, 88
1, 4402, Note_off_c, 0, 78, 0
1, 4404, Note_on_c, 0, 76, 80
1, 4413, Note_off_c, 1, 70, 0
1, 4413, Note_off_c, 2, 64, 0
1, 4413, Note_off_c, 3, 61, 0
1, 4414, Note_off_c, 0, 76, 0
1, 4416, Note_on_c, 0, 75, 80
1, 4416, Note_on_c, 1, 71, 88
1, 4416, Note_on_c, 2, 66, 88
1, 4416, Note_on_c, 3, 59, 88
1, 4428, Note_off_c, 0, 75, 0
1, 4428, Note_on_c, 0, 76, 80
1, 4434, Note_off_c, 0, 76, 0
1, 4434, Note_on_c, 0, 78, 80
1, 4440, Note_off_c, 0, 78, 0
1, 4440, Note_on_c, 0, 75, 80
1, 4440, Note_off_c, 1, 71, 0
1, 4440, Note_on_c, 1, 71, 88
1, 4440, Note_off_c, 2, 66, 0
1, 4440, Note_on_c, 2, 66, 88
1, 4440, Note_off_c, 3, 59, 0
1, 4440, Note_on_c, 3, 59, 88
1, 4450, Note_off_c, 0, 75, 0
1, 4452, Note_on_c, 0, 73, 80
1, 4461, Note_off_c, 1, 71, 0
1, 4461, Note_off_c, 2, 66, 0
1, 4462, Note_off_c, 0, 73, 0
1, 4464, Note_on_c, 0, 71, 80
1, 4464, Note_on_c, 1, 75, 88
1, 4464, Note_on_c, 2, 71, 88
1, 4464, Note_off_c, 3, 59, 0
1, 4464, Note_on_c, 3, 59, 88
1, 4476, Note_off_c, 0, 71, 0
1, 4476, Note_on_c, 0, 75, 80
1, 4482, Note_off_c, 0, 75, 0
1, 4482, Note_on_c, 0, 73, 80
1, 4488, Note_off_c, 0, 73, 0
1, 4488, Note_on_c, 0, 71, 80
1, 4488, Note_off_c, 1, 75, 0
1, 4488, Note_on_c, 1, 75, 88
1, 4488, Note_off_c, 2, 71, 0
1, 4488, Note_on_c, 2, 71, 88
1, 4488, Note_off_c, 3, 59, 0
1, 4488, Note_on_c, 3, 59, 88
1, 4498, Note_off_c, 0, 71, 0
1, 4500, Note_on_c, 0, 66, 80
1, 4509, Note_off_c, 1, 75, 0
1, 4509, Note_off_c, 2, 71, 0
1, 4510, Note_off_c, 0, 66, 0
1, 4512, Note_on_c, 0, 63, 80
1, 4512, Note_on_c, 1, 78, 88
1, 4512, Note_on_c, 2, 75, 88
1, 4512, Note_off_c, 3, 59, 0
1, 4512, Note_on_c, 3, 59, 88
1, 4522, Note_off_c, 0, 63, 0
1, 4524, Note_on_c, 0, 66, 80
1, 4530, Note_off_c, 0, 66, 0
1, 4530, Note_on_c, 0, 64, 80
1, 4536, Note_off_c, 0, 64, 0
1, 4536, Note_on_c, 0, 63, 80
1, 4536, Note_off_c, 1, 78, 0
1, 4536, Note_on_c, 1, 78, 88
1, 4536, Note_off_c, 2, 75, 0
1, 4536, Note_on_c, 2, 75, 88
1, 4536, Note_off_c, 3, 59, 0
1, 4536, Note_on_c, 3, 59, 88
1, 4542, Note_off_c, 0, 63, 0
1, 4542, Note_on_c, 0, 61, 80
1, 4548, Note_off_c, 0, 61, 0
1, 4548, Note_on_c, 0, 59, 80
1, 4557, Note_off_c, 1, 78, 0
1, 4557, Note_off_c, 2, 75, 0
1, 4557, Note_off_c, 3, 59, 0
1, 4558, Note_off_c, 0, 59, 0
1, 4560, Note_on_c, 0, 71, 80
1, 4560, Note_on_c, 1, 77, 88
1, 4560, Note_on_c, 2, 74, 88
1, 4560, Note_on_c, 3, 59, 88
1, 4560, Note_on_c, 4, 56, 80
1, 4560, Note_on_c, 5, 44, 80
1, 4572, Note_off_c, 4, 56, 0
1, 4572, Note_on_c, 4, 54, 80
1, 4572, Note_off_c, 5, 44, 0
1, 4572, Note_on_c, 5, 42, 80
1, 4584, Note_off_c, 1, 77, 0
1, 4584, Note_on_c, 1, 77, 88
1, 4584, Note_off_c, 2, 74, 0
1, 4584, Note_on_c, 2, 74, 88
1, 4584, Note_off_c, 3, 59, 0
1, 4584, Note_on_c, 3, 59, 88
1, 4584, Note_off_c, 4, 54, 0
1, 4584, Note_on_c, 4, 56, 80
1, 4584, Note_off_c, 5, 42, 0
1, 4584, Note_on_c, 5, 44, 80
1, 4605, Note_off_c, 4, 56, 0
1, 4605, Note_off_c, 5, 44, 0
1, 4608, Note_off_c, 1, 77, 0
1, 4608, Note_on_c, 1, 77, 88
1, 4608, Note_off_c, 2, 74, 0
1, 4608, Note_on_c, 2, 73, 88
1, 4608, Note_off_c, 3, 59, 0
1, 4608, Note_on_c, 3, 56, 88
1, 4608, Note_on_c, 4, 49, 80
1, 4608, Note_on_c, 5, 37, 80
1, 4632, Note_off_c, 1, 77, 0
1, 4632, Note_on_c, 1, 77, 88
1, 4632, Note_off_c, 2, 73, 0
1, 4632, Note_on_c, 2, 73, 88
1, 4632, Note_off_c, 3, 56, 0
1, 4632, Note_on_c, 3, 56, 88
1, 4632, Note_off_c, 4, 49, 0
1, 4632, Note_on_c, 4, 49, 80
1, 4632, Note_off_c, 5, 37, 0
1, 4632, Note_on_c, 5, 37, 80
1, 4653, Note_off_c, 4, 49, 0
1, 4653, Note_off_c, 5, 37, 0
1, 4656, Note_off_c, 1, 77, 0
1, 4656, Note_on_c, 1, 77, 88
1, 4656, Note_off_c, 2, 73, 0
1, 4656, Note_on_c, 2, 73, 88
1, 4656, Note_off_c, 3, 56, 0
1, 4656, Note_on_c, 3, 68, 88
1, 4656, Note_on_c, 4, 49, 80
1, 4656, Note_on_c, 5, 37, 80
1, 4666, Note_off_c, 4, 49, 0
1, 4666, Note_off_c, 5, 37, 0
1, 4668, Note_on_c, 4, 56, 80
1, 4668, Note_on_c, 5, 44, 80
1, 4680, Note_off_c, 1, 77, 0
1, 4680, Note_on_c, 1, 77, 88
1, 4680, Note_off_c, 2, 73, 0
1, 4680, Note_on_c, 2, 73, 88
1, 4680, Note_off_c, 3, 68, 0
1, 4680, Note_on_c, 3, 68, 88
1, 4680, Note_off_c, 4, 56, 0
1, 4680, Note_on_c, 4, 57, 80
1, 4680, Note_off_c, 5, 44, 0
1, 4680, Note_on_c, 5, 45, 80
1, 4692, Note_off_c, 4, 57, 0
1, 4692, Note_on_c, 4, 59, 80
1, 4692, Note_off_c, 5, 45, 0
1, 4692, Note_on_c, 5, 47, 80
1, 4696, Note_off_c, 0, 71, 0
1, 4701, Note_off_c, 1, 77, 0
1, 4701, Note_off_c, 2, 73, 0
1, 4701, Note_off_c, 3, 68, 0
1, 4702, Note_off_c, 4, 59, 0
1, 4702, Note_off_c, 5, 47, 0
1, 4704, Note_on_c, 1, 77, 88
1, 4704, Note_on_c, 2, 73, 88
1, 4704, Note_on_c, 3, 68, 88
1, 4704, Note_on_c, 4, 42, 80
1, 4704, Note_on_c, 5, 30, 80
1, 4716, Note_on_c, 0, 73, 80
1, 4722, Note_off_c, 0, 73, 0
1, 4722, Note_on_c, 0, 71, 80
1, 4728, Note_off_c, 0, 71, 0
1, 4728, Note_on_c, 0, 69, 80
1, 4728, Note_off_c, 1, 77, 0
1, 4728, Note_on_c, 1, 78, 88
1, 4728, Note_off_c, 2, 73, 0
1, 4728, Note_on_c, 2, 73, 88
1, 4728, Note_off_c, 3, 68, 0
1, 4728, Note_on_c, 3, 69, 88
1, 4740, Note_off_c, 0, 69, 0
1, 4740, Note_on_c, 0, 71, 80
1, 4746, Note_off_c, 0, 71, 0
1, 4746, Note_on_c, 0, 68, 80
1, 4746, Note_off_c, 4, 42, 0
1, 4746, Note_off_c, 5, 30, 0
1, 4751, Note_off_c, 0, 68, 0
1, 4752, Note_on_c, 0, 69, 80
1, 4752, Note_off_c, 1, 78, 0
1, 4752, Note_on_c, 1, 78, 88
1, 4752, Note_off_c, 2, 73, 0
1, 4752, Note_on_c, 2, 73, 88
1, 4752, Note_off_c, 3, 69, 0
1, 4752, Note_on_c, 3, 69, 88
1, 4762, Note_off_c, 0, 69, 0
1, 4764, Note_on_c, 0, 66, 80
1, 4770, Note_off_c, 0, 66, 0
1, 4770, Note_on_c, 0, 68, 80
1, 4776, Note_off_c, 0, 68, 0
1, 4776, Note_on_c, 0, 69, 80
1, 4776, Note_off_c, 1, 78, 0
1, 4776, Note_on_c, 1, 78, 88
1, 4776, Note_off_c, 2, 73, 0
1, 4776, Note_on_c, 2, 73, 88
1, 4776, Note_off_c, 3, 69, 0
1, 4776, Note_on_c, 3, 69, 88
1, 4788, Note_off_c, 0, 69, 0
1, 4788, Note_on_c, 0, 73, 80
1, 4798, Note_off_c, 0, 73, 0
1, 4800, Note_on_c, 0, 78, 80
1, 4800, Note_off_c, 1, 78, 0
1, 4800, Note_on_c, 1, 78, 88
1, 4800, Note_off_c, 2, 73, 0
1, 4800, Note_on_c, 2, 73, 88
1, 4800, Note_off_c, 3, 69, 0
1, 4800, Note_on_c, 3, 69, 88
1, 4810, Note_off_c, 0, 78, 0
1, 4812, Note_on_c, 0, 81, 80
1, 4818, Note_off_c, 0, 81, 0
1, 4818, Note_on_c, 0, 80, 80
1, 4824, Note_off_c, 0, 80, 0
1, 4824, Note_on_c, 0, 78, 80
1, 4824, Note_off_c, 1, 78, 0
1, 4824, Note_on_c, 1, 78, 88
1, 4824, Note_off_c, 2, 73, 0
1, 4824, Note_on_c, 2, 73, 88
1, 4824, Note_off_c, 3, 69, 0
1, 4824, Note_on_c, 3, 69, 88
1, 4836, Note_off_c, 0, 78, 0
1, 4836, Note_on_c, 0, 75, 80
1, 4845, Note_off_c, 1, 78, 0
1, 4845, Note_off_c, 2, 73, 0
1, 4845, Note_off_c, 3, 69, 0
1, 4846, Note_off_c, 0, 75, 0
1, 4848, Note_on_c, 0, 72, 80
1, 4848, Note_on_c, 1, 78, 88
1, 4848, Note_on_c, 2, 72, 88
1, 4848, Note_on_c, 3, 69, 88
1, 4848, Note_on_c, 4, 51, 80
1, 4848, Note_on_c, 5, 39, 80
1, 4858, Note_off_c, 0, 72, 0
1, 4860, Note_on_c, 0, 75, 80
1, 4860, Note_off_c, 4, 51, 0
1, 4860, Note_on_c, 4, 49, 80
1, 4860, Note_off_c, 5, 39, 0
1, 4860, Note_on_c, 5, 37, 80
1, 4870, Note_off_c, 0, 75, 0
1, 4872, Note_on_c, 0, 78, 80
1, 4872, Note_off_c, 1, 78, 0
1, 4872, Note_on_c, 1, 78, 88
1, 4872, Note_off_c, 2, 72, 0
1, 4872, Note_on_c, 2, 72, 88
1, 4872, Note_off_c, 3, 69, 0
1, 4872, Note_on_c, 3, 66, 88
1, 4872, Note_off_c, 4, 49, 0
1, 4872, Note_on_c, 4, 51, 80
1, 4872, Note_off_c, 5, 37, 0
1, 4872, Note_on_c, 5, 39, 80
1, 4893, Note_off_c, 4, 51, 0
1, 4893, Note_off_c, 5, 39, 0
1, 4896, Note_off_c, 1, 78, 0
1, 4896, Note_on_c, 1, 78, 88
1, 4896, Note_off_c, 2, 72, 0
1, 4896, Note_on_c, 2, 72, 88
1, 4896, Note_off_c, 3, 66, 0
1, 4896, Note_on_c, 3, 63, 88
1, 4896, Note_on_c, 4, 44, 80
1, 4896, Note_on_c, 5, 32, 80
1, 4903, Note_off_c, 0, 78, 0
1, 4908, Note_on_c, 0, 81, 80
1, 4914, Note_off_c, 0, 81, 0
1, 4914, Note_on_c, 0, 80, 80
1, 4920, Note_off_c, 0, 80, 0
1, 4920, Note_on_c, 0, 81, 80
1, 4920, Note_off_c, 1, 78, 0
1, 4920, Note_on_c, 1, 78, 88
1, 4920, Note_off_c, 2, 72, 0
1, 4920, Note_on_c, 2, 72, 88
1, 4920, Note_off_c, 3, 63, 0
1, 4920, Note_on_c, 3, 63, 88
1, 4920, Note_off_c, 4, 44, 0
1, 4920, Note_on_c, 4, 44, 80
1, 4920, Note_off_c, 5, 32, 0
1, 4920, Note_on_c, 5, 32, 80
1, 4930, Note_off_c, 0, 81, 0
1, 4932, Note_on_c, 0, 78, 80
1, 4938, Note_off_c, 0, 78, 0
1, 4938, Note_on_c, 0, 75, 80
1, 4941, Note_off_c, 3, 63, 0
1, 4941, Note_off_c, 4, 44, 0
1, 4941, Note_off_c, 5, 32, 0
1, 4943, Note_off_c, 0, 75, 0
1, 4944, Note_on_c, 0, 84, 80
1, 4944, Note_off_c, 1, 78, 0
1, 4944, Note_on_c, 1, 78, 88
1, 4944, Note_off_c, 2, 72, 0
1, 4944, Note_on_c, 2, 75, 88
1, 4944, Note_on_c, 3, 68, 88
1, 4944, Note_on_c, 4, 44, 80
1, 4944, Note_on_c, 5, 32, 80
1, 4947, Note_off_c, 0, 84, 0
1, 4947, Note_on_c, 0, 85, 80
1, 4950, Note_off_c, 0, 85, 0
1, 4950, Note_on_c, 0, 84, 80
1, 4953, Note_off_c, 0, 84, 0
1, 4953, Note_on_c, 0, 85, 80
1, 4954, Note_off_c, 4, 44, 0
1, 4954, Note_off_c, 5, 32, 0
1, 4956, Note_off_c, 0, 85, 0
1, 4956, Note_on_c, 0, 84, 80
1, 4956, Note_on_c, 4, 51, 80
1, 4956, Note_on_c, 5, 39, 80
1, 4959, Note_off_c, 0, 84, 0
1, 4959, Note_on_c, 0, 85, 80
1, 4962, Note_off_c, 0, 85, 0
1, 4962, Note_on_c, 0, 84, 80
1, 4965, Note_off_c, 0, 84, 0
1, 4965, Note_on_c, 0, 85, 80
1, 4968, Note_off_c, 0, 85, 0
1, 4968, Note_on_c, 0, 84, 80
1, 4968, Note_off_c, 1, 78, 0
1, 4968, Note_on_c, 1, 78, 88
1, 4968, Note_off_c, 2, 75, 0
1, 4968, Note_on_c, 2, 75, 88
1, 4968, Note_off_c, 3, 68, 0
1, 4968, Note_on_c, 3, 68, 88
1, 4968, Note_off_c, 4, 51, 0
1, 4968, Note_on_c, 4, 52, 80
1, 4968, Note_off_c, 5, 39, 0
1, 4968, Note_on_c, 5, 40, 80
1, 4971, Note_off_c, 0, 84, 0
1, 4971, Note_on_c, 0, 85, 80
1, 4974, Note_off_c, 0, 85, 0
1, 4974, Note_on_c, 0, 84, 80
1, 4977, Note_off_c, 0, 84, 0
1, 4977, Note_on_c, 0, 85, 80
1, 4980, Note_off_c, 0, 85, 0
1, 4980, Note_on_c, 0, 84, 80
1, 4980, Note_off_c, 4, 52, 0
1, 4980, Note_on_c, 4, 54, 80
1, 4980, Note_off_c, 5, 40, 0
1, 4980, Note_on_c, 5, 42, 80
1, 4989, Note_off_c, 1, 78, 0
1, 4989, Note_off_c, 2, 75, 0
1, 4989, Note_off_c, 3, 68, 0
1, 4990, Note_off_c, 0, 84, 0
1, 4990, Note_off_c, 4, 54, 0
1, 4990, Note_off_c, 5, 42, 0
1, 4992, Note_on_c, 0, 85, 80
1, 4992, Note_on_c, 1, 78, 88
1, 4992, Note_on_c, 2, 73, 88
1, 4992, Note_on_c, 3, 68, 88
1, 4992, Note_on_c, 4, 37, 80
1, 4992, Note_on_c, 5, 25, 80
1, 5002, Note_off_c, 0, 85, 0
1, 5004, Note_on_c, 0, 88, 80
1, 5010, Note_off_c, 0, 88, 0
1, 5010, Note_on_c, 0, 87, 80
1, 5016, Note_off_c, 0, 87, 0
1, 5016, Note_on_c, 0, 88, 80
1, 5016, Note_off_c, 1, 78, 0
1, 5016, Note_on_c, 1, 76, 88
1, 5016, Note_off_c, 2, 73, 0
1, 5016, Note_on_c, 2, 73, 88
1, 5016, Note_off_c, 3, 68, 0
1, 5016, Note_on_c, 3, 68, 88
1, 5026, Note_off_c, 0, 88, 0
1, 5028, Note_on_c, 0, 85, 80
1, 5034, Note_off_c, 4, 37, 0
1, 5034, Note_off_c, 5, 25, 0
1, 5037, Note_off_c, 1, 76, 0
1, 5038, Note_off_c, 0, 85, 0
1, 5040, Note_on_c, 0, 84, 80
1, 5040, Note_on_c, 1, 76, 88
1, 5040, Note_off_c, 2, 73, 0
1, 5040, Note_on_c, 2, 73, 88
1, 5040, Note_off_c, 3, 68, 0
1, 5040, Note_on_c, 3, 68, 88
1, 5052, Note_off_c, 0, 84, 0
1, 5052, Note_on_c, 0, 85, 80
1, 5062, Note_off_c, 0, 85, 0
1, 5064, Note_on_c, 0, 79, 80
1, 5064, Note_off_c, 1, 76, 0
1, 5064, Note_on_c, 1, 76, 88
1, 5064, Note_off_c, 2, 73, 0
1, 5064, Note_on_c, 2, 73, 88
1, 5064, Note_off_c, 3, 68, 0
1, 5064, Note_on_c, 3, 68, 88
1, 5076, Note_off_c, 0, 79, 0
1, 5076, Note_on_c, 0, 80, 80
1, 5085, Note_off_c, 1, 76, 0
1, 5085, Note_off_c, 2, 73, 0
1, 5085, Note_off_c, 3, 68, 0
1, 5086, Note_off_c, 0, 80, 0
1, 5088, Note_on_c, 0, 75, 80
1, 5088, Note_on_c, 1, 78, 88
1, 5088, Note_on_c, 2, 75, 88
1, 5088, Note_on_c, 3, 72, 88
1, 5100, Note_off_c, 0, 75, 0
1, 5100, Note_on_c, 0, 76, 80
1, 5110, Note_off_c, 0, 76, 0
1, 5112, Note_on_c, 0, 72, 80
1, 5112, Note_off_c, 1, 78, 0
1, 5112, Note_on_c, 1, 78, 88
1, 5112, Note_off_c, 2, 75, 0
1, 5112, Note_on_c, 2, 75, 88
1, 5112, Note_off_c, 3, 72, 0
1, 5112, Note_on_c, 3, 72, 88
1, 5124, Note_off_c, 0, 72, 0
1, 5124, Note_on_c, 0, 73, 80
1, 5133, Note_off_c, 1, 78, 0
1, 5133, Note_off_c, 2, 75, 0
1, 5133, Note_off_c, 3, 72, 0
1, 5134, Note_off_c, 0, 73, 0
1, 5136, Note_on_c, 0, 61, 80
1, 5136, Note_on_c, 1, 80, 88
1, 5136, Note_on_c, 2, 76, 88
1, 5136, Note_on_c, 3, 73, 88
1, 5146, Note_off_c, 0, 61, 0
1, 5148, Note_on_c, 0, 73, 80
1, 5154, Note_off_c, 0, 73, 0
1, 5154, Note_on_c, 0, 75, 80
1, 5160, Note_off_c, 0, 75, 0
1, 5160, Note_on_c, 0, 76, 80
1, 5160, Note_off_c, 1, 80, 0
1, 5160, Note_on_c, 1, 80, 88
1, 5160, Note_off_c, 2, 76, 0
1, 5160, Note_on_c, 2, 76, 88
1, 5160, Note_off_c, 3, 73, 0
1, 5160, Note_on_c, 3, 73, 88
1, 5172, Note_off_c, 0, 76, 0
1, 5172, Note_on_c, 0, 78, 80
1, 5181, Note_off_c, 1, 80, 0
1, 5182, Note_off_c, 0, 78, 0
1, 5184, Note_on_c, 0, 80, 80
1, 5184, Note_on_c, 1, 76, 88
1, 5184, Note_off_c, 2, 76, 0
1, 5184, Note_on_c, 2, 73, 88
1, 5184, Note_off_c, 3, 73, 0
1, 5184, Note_on_c, 3, 73, 88
1, 5194, Note_off_c, 0, 80, 0
1, 5196, Note_on_c, 0, 76, 80
1, 5202, Note_off_c, 0, 76, 0
1, 5202, Note_on_c, 0, 78, 80
1, 5208, Note_off_c, 0, 78, 0
1, 5208, Note_on_c, 0, 80, 80
1, 5208, Note_off_c, 1, 76, 0
1, 5208, Note_on_c, 1, 76, 88
1, 5208, Note_off_c, 2, 73, 0
1, 5208, Note_on_c, 2, 73, 88
1, 5208, Note_off_c, 3, 73, 0
1, 5208, Note_on_c, 3, 73, 88
1, 5208, Note_on_c, 4, 61, 80
1, 5208, Note_on_c, 5, 49, 80
1, 5220, Note_off_c, 0, 80, 0
1, 5220, Note_on_c, 0, 81, 80
1, 5229, Note_off_c, 4, 61, 0
1, 5229, Note_off_c, 5, 49, 0
1, 5230, Note_off_c, 0, 81, 0
1, 5232, Note_on_c, 0, 83, 80
1, 5232, Note_off_c, 1, 76, 0
1, 5232, Note_on_c, 1, 76, 88
1, 5232, Note_off_c, 2, 73, 0
1, 5232, Note_on_c, 2, 74, 88
1, 5232, Note_off_c, 3, 73, 0
1, 5232, Note_on_c, 3, 71, 88
1, 5232, Note_on_c, 4, 56, 80
1, 5232, Note_on_c, 5, 44, 80
1, 5242, Note_off_c, 0, 83, 0
1, 5244, Note_on_c, 0, 76, 80
1, 5253, Note_off_c, 4, 56, 0
1, 5253, Note_off_c, 5, 44, 0
1, 5254, Note_off_c, 0, 76, 0
1, 5256, Note_on_c, 0, 86, 80
1, 5256, Note_off_c, 1, 76, 0
1, 5256, Note_on_c, 1, 76, 88
1, 5256, Note_off_c, 2, 74, 0
1, 5256, Note_on_c, 2, 68, 88
1, 5256, Note_off_c, 3, 71, 0
1, 5256, Note_on_c, 3, 71, 88
1, 5256, Note_on_c, 4, 52, 80
1, 5256, Note_on_c, 5, 40, 80
1, 5277, Note_off_c, 1, 76, 0
1, 5277, Note_off_c, 2, 68, 0
1, 5277, Note_off_c, 3, 71, 0
1, 5277, Note_off_c, 4, 52, 0
1, 5277, Note_off_c, 5, 40, 0
1, 5280, Note_on_c, 1, 76, 88
1, 5280, Note_on_c, 2, 69, 88
1, 5280, Note_on_c, 3, 69, 88
1, 5280, Note_on_c, 4, 57, 80
1, 5280, Note_on_c, 5, 45, 80
1, 5287, Note_off_c, 0, 86, 0
1, 5292, Note_on_c, 0, 85, 80
1, 5298, Note_off_c, 0, 85, 0
1, 5298, Note_on_c, 0, 83, 80
1, 5301, Note_off_c, 4, 57, 0
1, 5301, Note_off_c, 5, 45, 0
1, 5304, Note_off_c, 0, 83, 0
1, 5304, Note_on_c, 0, 85, 80
1, 5304, Note_off_c, 1, 76, 0
1, 5304, Note_on_c, 1, 76, 88
1, 5304, Note_off_c, 2, 69, 0
1, 5304, Note_on_c, 2, 69, 88
1, 5304, Note_off_c, 3, 69, 0
1, 5304, Note_on_c, 3, 64, 88
1, 5304, Note_on_c, 4, 45, 80
1, 5304, Note_on_c, 5, 33, 80
1, 5316, Note_off_c, 0, 85, 0
1, 5316, Note_on_c, 0, 81, 80
1, 5325, Note_off_c, 1, 76, 0
1, 5325, Note_off_c, 4, 45, 0
1, 5325, Note_off_c, 5, 33, 0
1, 5326, Note_off_c, 0, 81, 0
1, 5328, Note_on_c, 0, 78, 80
1, 5328, Note_on_c, 1, 74, 88
1, 5328, Note_off_c, 2, 69, 0
1, 5328, Note_on_c, 2, 69, 88
1, 5328, Note_off_c, 3, 64, 0
1, 5328, Note_on_c, 3, 66, 88
1, 5328, Note_on_c, 4, 50, 80
1, 5328, Note_on_c, 5, 38, 80
1, 5338, Note_off_c, 0, 78, 0
1, 5340, Note_on_c, 0, 81, 80
1, 5346, Note_off_c, 0, 81, 0
1, 5346, Note_on_c, 0, 80, 80
1, 5349, Note_off_c, 4, 50, 0
1, 5349, Note_off_c, 5, 38, 0
1, 5352, Note_off_c, 0, 80, 0
1, 5352, Note_on_c, 0, 81, 80
1, 5352, Note_off_c, 1, 74, 0
1, 5352, Note_on_c, 1, 73, 88
1, 5352, Note_off_c, 2, 69, 0
1, 5352, Note_on_c, 2, 69, 88
1, 5352, Note_off_c, 3, 66, 0
1, 5352, Note_on_c, 3, 66, 88
1, 5352, Note_on_c, 4, 51, 80
1, 5352, Note_on_c, 5, 39, 80
1, 5362, Note_off_c, 0, 81, 0
1, 5364, Note_on_c, 0, 73, 80
1, 5373, Note_off_c, 1, 73, 0
1, 5373, Note_off_c, 2, 69, 0
1, 5373, Note_off_c, 3, 66, 0
1, 5373, Note_off_c, 4, 51, 0
1, 5373, Note_off_c, 5, 39, 0
1, 5374, Note_off_c, 0, 73, 0
1, 5376, Note_on_c, 0, 64, 80
1, 5376, Note_on_c, 1, 71, 88
1, 5376, Note_on_c, 2, 64, 88
1, 5376, Note_on_c, 3, 71, 88
1, 5376, Note_on_c, 4, 52, 80
1, 5376, Note_on_c, 5, 40, 80
1, 5388, Note_off_c, 0, 64, 0
1, 5388, Note_on_c, 0, 71, 80
1, 5397, Note_off_c, 4, 52, 0
1, 5397, Note_off_c, 5, 40, 0
1, 5400, Note_off_c, 0, 71, 0
1, 5400, Note_on_c, 0, 81, 80
1, 5400, Note_off_c, 1, 71, 0
1, 5400, Note_on_c, 1, 74, 88
1, 5400, Note_off_c, 2, 64, 0
1, 5400, Note_on_c, 2, 71, 88
1, 5400, Note_off_c, 3, 71, 0
1, 5400, Note_on_c, 3, 64, 88
1, 5400, Note_on_c, 4, 40, 80
1, 5400, Note_on_c, 5, 28, 80
1, 5410, Note_off_c, 0, 81, 0
1, 5412, Note_on_c, 0, 80, 80
1, 5421, Note_off_c, 1, 74, 0
1, 5421, Note_off_c, 2, 71, 0
1, 5421, Note_off_c, 3, 64, 0
1, 5421, Note_off_c, 4, 40, 0
1, 5421, Note_off_c, 5, 28, 0
1, 5422, Note_off_c, 0, 80, 0
1, 5424, Note_on_c, 0, 57, 80
1, 5424, Note_on_c, 1, 73, 88
1, 5424, Note_on_c, 2, 69, 88
1, 5424, Note_on_c, 3, 64, 88
1, 5424, Note_on_c, 4, 57, 80
1, 5424, Note_on_c, 5, 45, 80
1, 5436, Note_off_c, 0, 57, 0
1, 5436, Note_on_c, 0, 61, 80
1, 5436, Note_off_c, 4, 57, 0
1, 5436, Note_on_c, 4, 56, 80
1, 5436, Note_off_c, 5, 45, 0
1, 5436, Note_on_c, 5, 44, 80
1, 5446, Note_off_c, 0, 61, 0
1, 5448, Note_on_c, 0, 64, 80
1, 5448, Note_off_c, 4, 56, 0
1, 5448, Note_on_c, 4, 57, 80
1, 5448, Note_off_c, 5, 44, 0
1, 5448, Note_on_c, 5, 45, 80
1, 5460, Note_off_c, 0, 64, 0
1, 5460, Note_on_c, 0, 68, 80
1, 5466, Note_off_c, 1, 73, 0
1, 5466, Note_off_c, 2, 69, 0
1, 5466, Note_off_c, 3, 64, 0
1, 5469, Note_off_c, 4, 57, 0
1, 5469, Note_off_c, 5, 45, 0
1, 5470, Note_off_c, 0, 68, 0
1, 5472, Note_on_c, 0, 69, 80
1, 5472, Note_on_c, 4, 52, 80
1, 5472, Note_on_c, 5, 40, 80
1, 5484, Note_off_c, 0, 69, 0
1, 5484, Note_on_c, 0, 73, 80
1, 5494, Note_off_c, 0, 73, 0
1, 5496, Note_on_c, 0, 76, 80
1, 5496, Note_on_c, 1, 73, 88
1, 5496, Note_on_c, 2, 64, 88
1, 5496, Note_on_c, 3, 69, 88
1, 5496, Note_off_c, 4, 52, 0
1, 5496, Note_on_c, 4, 52, 80
1, 5496, Note_off_c, 5, 40, 0
1, 5496, Note_on_c, 5, 40, 80
1, 5506, Note_off_c, 1, 73, 0
1, 5506, Note_off_c, 2, 64, 0
1, 5508, Note_off_c, 0, 76, 0
1, 5508, Note_on_c, 0, 80, 80
1, 5508, Note_on_c, 1, 71, 88
1, 5508, Note_on_c, 2, 63, 88
1, 5517, Note_off_c, 4, 52, 0
1, 5517, Note_off_c, 5, 40, 0
1, 5518, Note_off_c, 0, 80, 0
1, 5518, Note_off_c, 1, 71, 0
1, 5518, Note_off_c, 2, 63, 0
1, 5520, Note_on_c, 0, 81, 80
1, 5520, Note_on_c, 1, 73, 88
1, 5520, Note_on_c, 2, 64, 88
1, 5520, Note_off_c, 3, 69, 0
1, 5520, Note_on_c, 3, 69, 88
1, 5520, Note_on_c, 4, 52, 80
1, 5520, Note_on_c, 5, 40, 80
1, 5530, Note_off_c, 4, 52, 0
1, 5530, Note_off_c, 5, 40, 0
1, 5532, Note_on_c, 4, 57, 80
1, 5532, Note_on_c, 5, 45, 80
1, 5541, Note_off_c, 1, 73, 0
1, 5541, Note_off_c, 2, 64, 0
1, 5544, Note_on_c, 1, 73, 88
1, 5544, Note_on_c, 2, 64, 88
1, 5544, Note_off_c, 3, 69, 0
1, 5544, Note_on_c, 3, 69, 88
1, 5544, Note_off_c, 4, 57, 0
1, 5544, Note_on_c, 4, 59, 80
1, 5544, Note_off_c, 5, 45, 0
1, 5544, Note_on_c, 5, 47, 80
1, 5556, Note_off_c, 4, 59, 0
1, 5556, Note_on_c, 4, 61, 80
1, 5556, Note_off_c, 5, 47, 0
1, 5556, Note_on_c, 5, 49, 80
1, 5565, Note_off_c, 1, 73, 0
1, 5565, Note_off_c, 2, 64, 0
1, 5565, Note_off_c, 3, 69, 0
1, 5566, Note_off_c, 4, 61, 0
1, 5566, Note_off_c, 5, 49, 0
1, 5568, Note_on_c, 1, 71, 88
1, 5568, Note_on_c, 2, 66, 88
1, 5568, Note_on_c, 3, 66, 88
1, 5568, Note_on_c, 4, 51, 80
1, 5568, Note_on_c, 5, 39, 80
1, 5572, Note_off_c, 0, 81, 0
1, 5580, Note_on_c, 0, 78, 80
1, 5580, Note_off_c, 4, 51, 0
1, 5580, Note_on_c, 4, 49, 80
1, 5580, Note_off_c, 5, 39, 0
1, 5580, Note_on_c, 5, 37, 80
1, 5586, Note_off_c, 0, 78, 0
1, 5586, Note_on_c, 0, 80, 80
1, 5592, Note_off_c, 0, 80, 0
1, 5592, Note_on_c, 0, 81, 80
1, 5592, Note_off_c, 4, 49, 0
1, 5592, Note_on_c, 4, 51, 80
1, 5592, Note_off_c, 5, 37, 0
1, 5592, Note_on_c, 5, 39, 80
1, 5604, Note_off_c, 0, 81, 0
1, 5604, Note_on_c, 0, 78, 80
1, 5610, Note_off_c, 1, 71, 0
1, 5610, Note_off_c, 2, 66, 0
1, 5610, Note_off_c, 3, 66, 0
1, 5613, Note_off_c, 4, 51, 0
1, 5613, Note_off_c, 5, 39, 0
1, 5614, Note_off_c, 0, 78, 0
1, 5616, Note_on_c, 0, 75, 80
1, 5616, Note_on_c, 4, 47, 80
1, 5616, Note_on_c, 5, 35, 80
1, 5626, Note_off_c, 0, 75, 0
1, 5628, Note_on_c, 0, 71, 80
1, 5634, Note_off_c, 0, 71, 0
1, 5634, Note_on_c, 0, 73, 80
1, 5640, Note_off_c, 0, 73, 0
1, 5640, Note_on_c, 0, 75, 80
1, 5640, Note_on_c, 1, 75, 88
1, 5640, Note_on_c, 2, 66, 88
1, 5640, Note_on_c, 3, 66, 88
1, 5640, Note_off_c, 4, 47, 0
1, 5640, Note_on_c, 4, 47, 80
1, 5640, Note_off_c, 5, 35, 0
1, 5640, Note_on_c, 5, 35, 80
1, 5650, Note_off_c, 1, 75, 0
1, 5650, Note_off_c, 2, 66, 0
1, 5652, Note_off_c, 0, 75, 0
1, 5652, Note_on_c, 0, 71, 80
1, 5652, Note_on_c, 1, 76, 88
1, 5652, Note_on_c, 2, 68, 88
1, 5661, Note_off_c, 4, 47, 0
1, 5661, Note_off_c, 5, 35, 0
1, 5662, Note_off_c, 0, 71, 0
1, 5662, Note_off_c, 1, 76, 0
1, 5662, Note_off_c, 2, 68, 0
1, 5664, Note_on_c, 0, 66, 80
1, 5664, Note_on_c, 1, 75, 88
1, 5664, Note_on_c, 2, 69, 88
1, 5664, Note_off_c, 3, 66, 0
1, 5664, Note_on_c, 3, 66, 88
1, 5664, Note_on_c, 4, 47, 80
1, 5664, Note_on_c, 5, 35, 80
1, 5674, Note_off_c, 4, 47, 0
1, 5674, Note_off_c, 5, 35, 0
1, 5676, Note_off_c, 0, 66, 0
1, 5676, Note_on_c, 0, 69, 80
1, 5676, Note_on_c, 4, 57, 80
1, 5676, Note_on_c, 5, 45, 80
1, 5685, Note_off_c, 1, 75, 0
1, 5685, Note_off_c, 2, 69, 0
1, 5686, Note_off_c, 0, 69, 0
1, 5688, Note_on_c, 0, 71, 80
1, 5688, Note_on_c, 1, 75, 88
1, 5688, Note_on_c, 2, 69, 88
1, 5688, Note_off_c, 3, 66, 0
1, 5688, Note_on_c, 3, 66, 88
1, 5688, Note_off_c, 4, 57, 0
1, 5688, Note_on_c, 4, 56, 80
1, 5688, Note_off_c, 5, 45, 0
1, 5688, Note_on_c, 5, 44, 80
1, 5700, Note_off_c, 0, 71, 0
1, 5700, Note_on_c, 0, 75, 80
1, 5700, Note_off_c, 4, 56, 0
1, 5700, Note_on_c, 4, 54, 80
1, 5700, Note_off_c, 5, 44, 0
1, 5700, Note_on_c, 5, 42, 80
1, 5709, Note_off_c, 1, 75, 0
1, 5709, Note_off_c, 2, 69, 0
1, 5709, Note_off_c, 3, 66, 0
1, 5710, Note_off_c, 0, 75, 0
1, 5710, Note_off_c, 4, 54, 0
1, 5710, Note_off_c, 5, 42, 0
1, 5712, Note_on_c, 0, 80, 80
1, 5712, Note_on_c, 1, 75, 88
1, 5712, Note_on_c, 2, 68, 88
1, 5712, Note_on_c, 3, 71, 88
1, 5712, Note_on_c, 4, 52, 80
1, 5712, Note_on_c, 5, 40, 80
1, 5722, Note_off_c, 0, 80, 0
1, 5724, Note_on_c, 0, 76, 80
1, 5724, Note_off_c, 4, 52, 0
1, 5724, Note_on_c, 4, 51, 80
1, 5724, Note_off_c, 5, 40, 0
1, 5724, Note_on_c, 5, 39, 80
1, 5730, Note_off_c, 0, 76, 0
1, 5730, Note_on_c, 0, 78, 80
1, 5736, Note_off_c, 0, 78, 0
1, 5736, Note_on_c, 0, 80, 80
1, 5736, Note_off_c, 4, 51, 0
1, 5736, Note_on_c, 4, 52, 80
1, 5736, Note_off_c, 5, 39, 0
1, 5736, Note_on_c, 5, 40, 80
1, 5748, Note_off_c, 0, 80, 0
1, 5748, Note_on_c, 0, 76, 80
1, 5754, Note_off_c, 1, 75, 0
1, 5754, Note_off_c, 2, 68, 0
1, 5754, Note_off_c, 3, 71, 0
1, 5757, Note_off_c, 4, 52, 0
1, 5757, Note_off_c, 5, 40, 0
1, 5758, Note_off_c, 0, 76, 0
1, 5760, Note_on_c, 0, 73, 80
1, 5760, Note_on_c, 4, 45, 80
1, 5760, Note_on_c, 5, 33, 80
1, 5770, Note_off_c, 0, 73, 0
1, 5772, Note_on_c, 0, 69, 80
1, 5778, Note_off_c, 0, 69, 0
1, 5778, Note_on_c, 0, 71, 80
1, 5784, Note_off_c, 0, 71, 0
1, 5784, Note_on_c, 0, 73, 80
1, 5784, Note_on_c, 1, 73, 88
1, 5784, Note_on_c, 2, 64, 88
1, 5784, Note_on_c, 3, 69, 88
1, 5784, Note_off_c, 4, 45, 0
1, 5784, Note_on_c, 4, 45, 80
1, 5784, Note_off_c, 5, 33, 0
1, 5784, Note_on_c, 5, 33, 80
1, 5794, Note_off_c, 1, 73, 0
1, 5794, Note_off_c, 2, 64, 0
1, 5796, Note_off_c, 0, 73, 0
1, 5796, Note_on_c, 0, 69, 80
1, 5796, Note_on_c, 1, 72, 88
1, 5796, Note_on_c, 2, 66, 88
1, 5805, Note_off_c, 4, 45, 0
1, 5805, Note_off_c, 5, 33, 0
1, 5806, Note_off_c, 0, 69, 0
1, 5806, Note_off_c, 1, 72, 0
1, 5806, Note_off_c, 2, 66, 0
1, 5808, Note_on_c, 0, 64, 80
1, 5808, Note_on_c, 1, 73, 88
1, 5808, Note_on_c, 2, 68, 88
1, 5808, Note_off_c, 3, 69, 0
1, 5808, Note_on_c, 3, 69, 88
1, 5808, Note_on_c, 4, 45, 80
1, 5808, Note_on_c, 5, 33, 80
1, 5818, Note_off_c, 4, 45, 0
1, 5818, Note_off_c, 5, 33, 0
1, 5820, Note_off_c, 0, 64, 0
1, 5820, Note_on_c, 0, 68, 80
1, 5820, Note_on_c, 4, 56, 80
1, 5820, Note_on_c, 5, 44, 80
1, 5829, Note_off_c, 1, 73, 0
1, 5829, Note_off_c, 2, 68, 0
1, 5830, Note_off_c, 0, 68, 0
1, 5832, Note_on_c, 0, 69, 80
1, 5832, Note_on_c, 1, 73, 88
1, 5832, Note_on_c, 2, 68, 88
1, 5832, Note_off_c, 3, 69, 0
1, 5832, Note_on_c, 3, 69, 88
1, 5832, Note_off_c, 4, 56, 0
1, 5832, Note_on_c, 4, 54, 80
1, 5832, Note_off_c, 5, 44, 0
1, 5832, Note_on_c, 5, 42, 80
1, 5844, Note_off_c, 0, 69, 0
1, 5844, Note_on_c, 0, 73, 80
1, 5844, Note_off_c, 4, 54, 0
1, 5844, Note_on_c, 4, 52, 80
1, 5844, Note_off_c, 5, 42, 0
1, 5844, Note_on_c, 5, 40, 80
1, 5853, Note_off_c, 1, 73, 0
1, 5853, Note_off_c, 2, 68, 0
1, 5853, Note_off_c, 3, 69, 0
1, 5854, Note_off_c, 0, 73, 0
1, 5854, Note_off_c, 4, 52, 0
1, 5854, Note_off_c, 5, 40, 0
1, 5856, Note_on_c, 0, 78, 80
1, 5856, Note_on_c, 1, 73, 88
1, 5856, Note_on_c, 2, 66, 88
1, 5856, Note_on_c, 3, 69, 88
1, 5856, Note_on_c, 4, 51, 80
1, 5856, Note_on_c, 5, 39, 80
1, 5866, Note_off_c, 0, 78, 0
1, 5868, Note_on_c, 0, 81, 80
1, 5868, Note_off_c, 4, 51, 0
1, 5868, Note_on_c, 4, 49, 80
1, 5868, Note_off_c, 5, 39, 0
1, 5868, Note_on_c, 5, 37, 80
1, 5874, Note_off_c, 0, 81, 0
1, 5874, Note_on_c, 0, 80, 80
1, 5880, Note_off_c, 0, 80, 0
1, 5880, Note_on_c, 0, 78, 80
1, 5880, Note_off_c, 4, 49, 0
1, 5880, Note_on_c, 4, 51, 80
1, 5880, Note_off_c, 5, 37, 0
1, 5880, Note_on_c, 5, 39, 80
1, 5892, Note_off_c, 0, 78, 0
1, 5892, Note_on_c, 0, 76, 80
1, 5898, Note_off_c, 1, 73, 0
1, 5898, Note_off_c, 2, 66, 0
1, 5898, Note_off_c, 3, 69, 0
1, 5901, Note_off_c, 4, 51, 0
1, 5901, Note_off_c, 5, 39, 0
1, 5902, Note_off_c, 0, 76, 0
1, 5904, Note_on_c, 0, 75, 80
1, 5904, Note_on_c, 4, 44, 80
1, 5904, Note_on_c, 5, 32, 80
1, 5914, Note_off_c, 0, 75, 0
1, 5916, Note_on_c, 0, 78, 80
1, 5922, Note_off_c, 0, 78, 0
1, 5922, Note_on_c, 0, 76, 80
1, 5928, Note_off_c, 0, 76, 0
1, 5928, Note_on_c, 0, 75, 80
1, 5928, Note_on_c, 1, 72, 88
1, 5928, Note_on_c, 2, 68, 88
1, 5928, Note_on_c, 3, 68, 88
1, 5928, Note_off_c, 4, 44, 0
1, 5928, Note_on_c, 4, 44, 80
1, 5928, Note_off_c, 5, 32, 0
1, 5928, Note_on_c, 5, 32, 80
1, 5938, Note_off_c, 1, 72, 0
1, 5938, Note_off_c, 2, 68, 0
1, 5940, Note_off_c, 0, 75, 0
1, 5940, Note_on_c, 0, 73, 80
1, 5940, Note_on_c, 1, 70, 88
1, 5940, Note_on_c, 2, 64, 88
1, 5949, Note_off_c, 4, 44, 0
1, 5949, Note_off_c, 5, 32, 0
1, 5950, Note_off_c, 0, 73, 0
1, 5950, Note_off_c, 1, 70, 0
1, 5950, Note_off_c, 2, 64, 0
1, 5952, Note_on_c, 0, 72, 80
1, 5952, Note_on_c, 1, 72, 88
1, 5952, Note_on_c, 2, 66, 88
1, 5952, Note_off_c, 3, 68, 0
1, 5952, Note_on_c, 3, 68, 88
1, 5952, Note_on_c, 4, 44, 80
1, 5952, Note_on_c, 5, 32, 80
1, 5962, Note_off_c, 0, 72, 0
1, 5962, Note_off_c, 4, 44, 0
1, 5962, Note_off_c, 5, 32, 0
1, 5964, Note_on_c, 0, 81, 80
1, 5964, Note_on_c, 4, 56, 80
1, 5964, Note_on_c, 5, 44, 80
1, 5973, Note_off_c, 1, 72, 0
1, 5973, Note_off_c, 2, 66, 0
1, 5976, Note_off_c, 0, 81, 0
1, 5976, Note_on_c, 0, 80, 80
1, 5976, Note_on_c, 1, 75, 88
1, 5976, Note_on_c, 2, 63, 88
1, 5976, Note_off_c, 3, 68, 0
1, 5976, Note_on_c, 3, 68, 88
1, 5976, Note_off_c, 4, 56, 0
1, 5976, Note_on_c, 4, 58, 80
1, 5976, Note_off_c, 5, 44, 0
1, 5976, Note_on_c, 5, 46, 80
1, 5988, Note_off_c, 0, 80, 0
1, 5988, Note_on_c, 0, 81, 80
1, 5988, Note_off_c, 4, 58, 0
1, 5988, Note_on_c, 4, 60, 80
1, 5988, Note_off_c, 5, 46, 0
1, 5988, Note_on_c, 5, 48, 80
1, 5994, Note_off_c, 0, 81, 0
1, 5994, Note_on_c, 0, 78, 80
1, 5997, Note_off_c, 1, 75, 0
1, 5997, Note_off_c, 2, 63, 0
1, 5997, Note_off_c, 3, 68, 0
1, 5998, Note_off_c, 4, 60, 0
1, 5998, Note_off_c, 5, 48, 0
1, 5999, Note_off_c, 0, 78, 0
1, 6000, Note_on_c, 0, 76, 80
1, 6000, Note_on_c, 1, 76, 88
1, 6000, Note_on_c, 2, 61, 88
1, 6000, Note_on_c, 3, 68, 88
1, 6000, Note_on_c, 4, 61, 80
1, 6000, Note_on_c, 5, 49, 80
1, 6003, Note_off_c, 0, 76, 0
1, 6003, Note_on_c, 0, 78, 80
1, 6006, Note_off_c, 0, 78, 0
1, 6006, Note_on_c, 0, 76, 80
1, 6009, Note_off_c, 0, 76, 0
1, 6009, Note_on_c, 0, 78, 80
1, 6012, Note_off_c, 0, 78, 0
1, 6012, Note_on_c, 0, 76, 80
1, 6012, Note_off_c, 4, 61, 0
1, 6012, Note_on_c, 4, 60, 80
1, 6012, Note_off_c, 5, 49, 0
1, 6012, Note_on_c, 5, 48, 80
1, 6015, Note_off_c, 0, 76, 0
1, 6015, Note_on_c, 0, 78, 80
1, 6018, Note_off_c, 0, 78, 0
1, 6018, Note_on_c, 0, 76, 80
1, 6020, Note_off_c, 0, 76, 0
1, 6020, Note_on_c, 0, 78, 80
1, 6022, Note_off_c, 0, 78, 0
1, 6022, Note_on_c, 0, 76, 80
1, 6024, Note_off_c, 0, 76, 0
1, 6024, Note_on_c, 0, 75, 80
1, 6024, Note_off_c, 4, 60, 0
1, 6024, Note_on_c, 4, 61, 80
1, 6024, Note_off_c, 5, 48, 0
1, 6024, Note_on_c, 5, 49, 80
1, 6036, Note_off_c, 0, 75, 0
1, 6036, Note_on_c, 0, 73, 80
1, 6045, Note_off_c, 4, 61, 0
1, 6045, Note_off_c, 5, 49, 0
1, 6046, Note_off_c, 0, 73, 0
1, 6048, Note_on_c, 4, 56, 80
1, 6048, Note_on_c, 5, 44, 80
1, 6060, Note_on_c, 0, 76, 80
1, 6066, Note_off_c, 0, 76, 0
1, 6066, Note_on_c, 0, 75, 80
1, 6072, Note_off_c, 0, 75, 0
1, 6072, Note_on_c, 0, 76, 80
1, 6072, Note_off_c, 4, 56, 0
1, 6072, Note_on_c, 4, 56, 80
1, 6072, Note_off_c, 5, 44, 0
1, 6072, Note_on_c, 5, 44, 80
1, 6084, Note_off_c, 0, 76, 0
1, 6084, Note_on_c, 0, 80, 80
1, 6093, Note_off_c, 4, 56, 0
1, 6093, Note_off_c, 5, 44, 0
1, 6094, Note_off_c, 0, 80, 0
1, 6096, Note_on_c, 0, 76, 80
1, 6096, Note_on_c, 4, 56, 80
1, 6096, Note_on_c, 5, 44, 80
1, 6106, Note_off_c, 4, 56, 0
1, 6106, Note_off_c, 5, 44, 0
1, 6108, Note_off_c, 0, 76, 0
1, 6108, Note_on_c, 0, 73, 80
1, 6108, Note_on_c, 4, 61, 80
1, 6108, Note_on_c, 5, 49, 80
1, 6118, Note_off_c, 0, 73, 0
1, 6120, Note_on_c, 0, 69, 80
1, 6120, Note_off_c, 4, 61, 0
1, 6120, Note_on_c, 4, 63, 80
1, 6120, Note_off_c, 5, 49, 0
1, 6120, Note_on_c, 5, 51, 80
1, 6126, Note_off_c, 1, 76, 0
1, 6126, Note_off_c, 2, 61, 0
1, 6126, Note_off_c, 3, 68, 0
1, 6132, Note_off_c, 0, 69, 0
1, 6132, Note_on_c, 0, 68, 80
1, 6132, Note_off_c, 4, 63, 0
1, 6132, Note_on_c, 4, 64, 80
1, 6132, Note_off_c, 5, 51, 0
1, 6132, Note_on_c, 5, 52, 80
1, 6142, Note_off_c, 0, 68, 0
1, 6142, Note_off_c, 4, 64, 0
1, 6142, Note_off_c, 5, 52, 0
1, 6144, Note_on_c, 0, 66, 80
1, 6144, Note_on_c, 1, 72, 88
1, 6144, Note_on_c, 2, 66, 88
1, 6144, Note_on_c, 3, 63, 88
1, 6144, Note_on_c, 4, 63, 80
1, 6144, Note_on_c, 5, 51, 80
1, 6156, Note_off_c, 0, 66, 0
1, 6156, Note_on_c, 0, 72, 80
1, 6156, Note_off_c, 4, 63, 0
1, 6156, Note_on_c, 4, 61, 80
1, 6156, Note_off_c, 5, 51, 0
1, 6156, Note_on_c, 5, 49, 80
1, 6168, Note_off_c, 0, 72, 0
1, 6168, Note_on_c, 0, 81, 80
1, 6168, Note_off_c, 4, 61, 0
1, 6168, Note_on_c, 4, 63, 80
1, 6168, Note_off_c, 5, 49, 0
1, 6168, Note_on_c, 5, 51, 80
1, 6189, Note_off_c, 0, 81, 0
1, 6189, Note_off_c, 4, 63, 0
1, 6189, Note_off_c, 5, 51, 0
1, 6192, Note_on_c, 4, 56, 80
1, 6192, Note_on_c, 5, 44, 80
1, 6204, Note_on_c, 0, 75, 80
1, 6210, Note_off_c, 0, 75, 0
1, 6210, Note_on_c, 0, 73, 80
1, 6216, Note_off_c, 0, 73, 0
1, 6216, Note_on_c, 0, 75, 80
1, 6216, Note_off_c, 4, 56, 0
1, 6216, Note_on_c, 4, 56, 80
1, 6216, Note_off_c, 5, 44, 0
1, 6216, Note_on_c, 5, 44, 80
1, 6228, Note_off_c, 0, 75, 0
1, 6228, Note_on_c, 0, 78, 80
1, 6237, Note_off_c, 4, 56, 0
1, 6237, Note_off_c, 5, 44, 0
1, 6238, Note_off_c, 0, 78, 0
1, 6240, Note_on_c, 0, 75, 80
1, 6240, Note_on_c, 4, 56, 80
1, 6240, Note_on_c, 5, 44, 80
1, 6250, Note_off_c, 4, 56, 0
1, 6250, Note_off_c, 5, 44, 0
1, 6252, Note_off_c, 0, 75, 0
1, 6252, Note_on_c, 0, 72, 80
1, 6252, Note_on_c, 4, 63, 80
1, 6252, Note_on_c, 5, 51, 80
1, 6262, Note_off_c, 0, 72, 0
1, 6264, Note_on_c, 0, 73, 80
1, 6264, Note_off_c, 4, 63, 0
1, 6264, Note_on_c, 4, 64, 80
1, 6264, Note_off_c, 5, 51, 0
1, 6264, Note_on_c, 5, 52, 80
1, 6270, Note_off_c, 1, 72, 0
1, 6270, Note_off_c, 2, 66, 0
1, 6270, Note_off_c, 3, 63, 0
1, 6276, Note_off_c, 0, 73, 0
1, 6276, Note_on_c, 0, 75, 80
1, 6276, Note_off_c, 4, 64, 0
1, 6276, Note_on_c, 4, 66, 80
1, 6276, Note_off_c, 5, 52, 0
1, 6276, Note_on_c, 5, 54, 80
1, 6286, Note_off_c, 0, 75, 0
1, 6286, Note_off_c, 4, 66, 0
1, 6286, Note_off_c, 5, 54, 0
1, 6288, Note_on_c, 0, 64, 80
1, 6288, Note_on_c, 1, 73, 88
1, 6288, Note_on_c, 2, 68, 88
1, 6288, Note_on_c, 3, 61, 88
1, 6288, Note_on_c, 4, 64, 80
1, 6288, Note_on_c, 5, 52, 80
1, 6300, Note_off_c, 0, 64, 0
1, 6300, Note_on_c, 0, 73, 80
1, 6300, Note_off_c, 4, 64, 0
1, 6300, Note_on_c, 4, 63, 80
1, 6300, Note_off_c, 5, 52, 0
1, 6300, Note_on_c, 5, 51, 80
1, 6312, Note_off_c, 0, 73, 0
1, 6312, Note_on_c, 0, 80, 80
1, 6312, Note_off_c, 4, 63, 0
1, 6312, Note_on_c, 4, 64, 80
1, 6312, Note_off_c, 5, 51, 0
1, 6312, Note_on_c, 5, 52, 80
1, 6333, Note_off_c, 0, 80, 0
1, 6333, Note_off_c, 4, 64, 0
1, 6333, Note_off_c, 5, 52, 0
1, 6336, Note_on_c, 4, 56, 80
1, 6336, Note_on_c, 5, 44, 80
1, 6348, Note_on_c, 0, 73, 80
1, 6351, Note_off_c, 1, 73, 0
1, 6354, Note_off_c, 0, 73, 0
1, 6354, Note_on_c, 0, 72, 80
1, 6360, Note_off_c, 0, 72, 0
1, 6360, Note_on_c, 0, 73, 80
1, 6360, Note_on_c, 1, 80, 88
1, 6360, Note_off_c, 4, 56, 0
1, 6360, Note_on_c, 4, 56, 80
1, 6360, Note_off_c, 5, 44, 0
1, 6360, Note_on_c, 5, 44, 80
1, 6372, Note_off_c, 0, 73, 0
1, 6372, Note_on_c, 0, 76, 80
1, 6381, Note_off_c, 1, 80, 0
1, 6381, Note_off_c, 4, 56, 0
1, 6381, Note_off_c, 5, 44, 0
1, 6382, Note_off_c, 0, 76, 0
1, 6384, Note_on_c, 0, 73, 80
1, 6384, Note_on_c, 1, 76, 88
1, 6384, Note_on_c, 4, 56, 80
1, 6384, Note_on_c, 5, 44, 80
1, 6394, Note_off_c, 4, 56, 0
1, 6394, Note_off_c, 5, 44, 0
1, 6396, Note_off_c, 0, 73, 0
1, 6396, Note_on_c, 0, 71, 80
1, 6396, Note_on_c, 4, 61, 80
1, 6396, Note_on_c, 5, 49, 80
1, 6406, Note_off_c, 0, 71, 0
1, 6408, Note_on_c, 0, 69, 80
1, 6408, Note_off_c, 4, 61, 0
1, 6408, Note_on_c, 4, 63, 80
1, 6408, Note_off_c, 5, 49, 0
1, 6408, Note_on_c, 5, 51, 80
1, 6414, Note_off_c, 2, 68, 0
1, 6414, Note_off_c, 3, 61, 0
1, 6420, Note_off_c, 0, 69, 0
1, 6420, Note_on_c, 0, 68, 80
1, 6420, Note_off_c, 4, 63, 0
1, 6420, Note_on_c, 4, 64, 80
1, 6420, Note_off_c, 5, 51, 0
1, 6420, Note_on_c, 5, 52, 80
1, 6430, Note_off_c, 0, 68, 0
1, 6430, Note_off_c, 4, 64, 0
1, 6430, Note_off_c, 5, 52, 0
1, 6432, Note_on_c, 0, 66, 80
1, 6432, Note_on_c, 2, 73, 88
1, 6432, Note_on_c, 3, 66, 88
1, 6432, Note_on_c, 4, 57, 80
1, 6432, Note_on_c, 5, 45, 80
1, 6442, Note_off_c, 0, 66, 0
1, 6444, Note_on_c, 0, 69, 80
1, 6444, Note_off_c, 4, 57, 0
1, 6444, Note_on_c, 4, 56, 80
1, 6444, Note_off_c, 5, 45, 0
1, 6444, Note_on_c, 5, 44, 80
1, 6450, Note_off_c, 0, 69, 0
1, 6450, Note_on_c, 0, 71, 80
1, 6456, Note_off_c, 0, 71, 0
1, 6456, Note_on_c, 0, 73, 80
1, 6456, Note_off_c, 4, 56, 0
1, 6456, Note_on_c, 4, 57, 80
1, 6456, Note_off_c, 5, 44, 0
1, 6456, Note_on_c, 5, 45, 80
1, 6468, Note_off_c, 0, 73, 0
1, 6468, Note_on_c, 0, 75, 80
1, 6468, Note_off_c, 1, 76, 0
1, 6474, Note_off_c, 2, 73, 0
1, 6474, Note_off_c, 3, 66, 0
1, 6477, Note_off_c, 4, 57, 0
1, 6477, Note_off_c, 5, 45, 0
1, 6478, Note_off_c, 0, 75, 0
1, 6480, Note_on_c, 0, 76, 80
1, 6480, Note_on_c, 4, 54, 80
1, 6480, Note_on_c, 5, 42, 80
1, 6490, Note_off_c, 0, 76, 0
1, 6492, Note_on_c, 0, 78, 80
1, 6502, Note_off_c, 0, 78, 0
1, 6504, Note_on_c, 0, 80, 80
1, 6504, Note_on_c, 1, 75, 88
1, 6504, Note_on_c, 2, 71, 88
1, 6504, Note_on_c, 3, 66, 88
1, 6504, Note_off_c, 4, 54, 0
1, 6504, Note_on_c, 4, 54, 80
1, 6504, Note_off_c, 5, 42, 0
1, 6504, Note_on_c, 5, 42, 80
1, 6514, Note_off_c, 0, 80, 0
1, 6514, Note_off_c, 1, 75, 0
1, 6514, Note_off_c, 2, 71, 0
1, 6516, Note_on_c, 0, 81, 80
1, 6516, Note_on_c, 1, 73, 88
1, 6516, Note_on_c, 2, 73, 88
1, 6525, Note_off_c, 3, 66, 0
1, 6525, Note_off_c, 4, 54, 0
1, 6525, Note_off_c, 5, 42, 0
1, 6526, Note_off_c, 0, 81, 0
1, 6526, Note_off_c, 1, 73, 0
1, 6526, Note_off_c, 2, 73, 0
1, 6528, Note_on_c, 0, 75, 80
1, 6528, Note_on_c, 1, 75, 88
1, 6528, Note_on_c, 2, 69, 88
1, 6528, Note_on_c, 3, 66, 88
1, 6528, Note_on_c, 4, 54, 80
1, 6528, Note_on_c, 5, 42, 80
1, 6538, Note_off_c, 0, 75, 0
1, 6538, Note_off_c, 4, 54, 0
1, 6538, Note_off_c, 5, 42, 0
1, 6540, Note_on_c, 0, 69, 80
1, 6540, Note_on_c, 4, 59, 80
1, 6540, Note_on_c, 5, 47, 80
1, 6549, Note_off_c, 1, 75, 0
1, 6549, Note_off_c, 2, 69, 0
1, 6549, Note_off_c, 3, 66, 0
1, 6552, Note_off_c, 0, 69, 0
1, 6552, Note_on_c, 0, 68, 80
1, 6552, Note_on_c, 1, 75, 88
1, 6552, Note_on_c, 2, 71, 88
1, 6552, Note_on_c, 3, 59, 88
1, 6552, Note_off_c, 4, 59, 0
1, 6552, Note_on_c, 4, 61, 80
1, 6552, Note_off_c, 5, 47, 0
1, 6552, Note_on_c, 5, 49, 80
1, 6564, Note_off_c, 0, 68, 0
1, 6564, Note_on_c, 0, 66, 80
1, 6564, Note_off_c, 4, 61, 0
1, 6564, Note_on_c, 4, 63, 80
1, 6564, Note_off_c, 5, 49, 0
1, 6564, Note_on_c, 5, 51, 80
1, 6573, Note_off_c, 1, 75, 0
1, 6573, Note_off_c, 2, 71, 0
1, 6573, Note_off_c, 3, 59, 0
1, 6574, Note_off_c, 0, 66, 0
1, 6574, Note_off_c, 4, 63, 0
1, 6574, Note_off_c, 5, 51, 0
1, 6576, Note_on_c, 0, 64, 80
1, 6576, Note_on_c, 1, 75, 88
1, 6576, Note_on_c, 2, 71, 88
1, 6576, Note_on_c, 3, 64, 88
1, 6576, Note_on_c, 4, 56, 80
1, 6576, Note_on_c, 5, 44, 80
1, 6586, Note_off_c, 0, 64, 0
1, 6588, Note_on_c, 0, 68, 80
1, 6588, Note_off_c, 4, 56, 0
1, 6588, Note_on_c, 4, 54, 80
1, 6588, Note_off_c, 5, 44, 0
1, 6588, Note_on_c, 5, 42, 80
1, 6594, Note_off_c, 0, 68, 0
1, 6594, Note_on_c, 0, 69, 80
1, 6600, Note_off_c, 0, 69, 0
1, 6600, Note_on_c, 0, 71, 80
1, 6600, Note_off_c, 4, 54, 0
1, 6600, Note_on_c, 4, 56, 80
1, 6600, Note_off_c, 5, 42, 0
1, 6600, Note_on_c, 5, 44, 80
1, 6612, Note_off_c, 0, 71, 0
1, 6612, Note_on_c, 0, 73, 80
1, 6618, Note_off_c, 1, 75, 0
1, 6618, Note_off_c, 2, 71, 0
1, 6618, Note_off_c, 3, 64, 0
1, 6621, Note_off_c, 4, 56, 0
1, 6621, Note_off_c, 5, 44, 0
1, 6622, Note_off_c, 0, 73, 0
1, 6624, Note_on_c, 0, 75, 80
1, 6624, Note_on_c, 4, 52, 80
1, 6624, Note_on_c, 5, 40, 80
1, 6634, Note_off_c, 0, 75, 0
1, 6636, Note_on_c, 0, 76, 80
1, 6646, Note_off_c, 0, 76, 0
1, 6648, Note_on_c, 0, 78, 80
1, 6648, Note_on_c, 1, 73, 88
1, 6648, Note_on_c, 2, 69, 88
1, 6648, Note_on_c, 3, 64, 88
1, 6648, Note_off_c, 4, 52, 0
1, 6648, Note_on_c, 4, 52, 80
1, 6648, Note_off_c, 5, 40, 0
1, 6648, Note_on_c, 5, 40, 80
1, 6658, Note_off_c, 0, 78, 0
1, 6658, Note_off_c, 1, 73, 0
1, 6658, Note_off_c, 2, 69, 0
1, 6660, Note_on_c, 0, 80, 80
1, 6660, Note_on_c, 1, 72, 88
1, 6660, Note_on_c, 2, 66, 88
1, 6669, Note_off_c, 3, 64, 0
1, 6669, Note_off_c, 4, 52, 0
1, 6669, Note_off_c, 5, 40, 0
1, 6670, Note_off_c, 0, 80, 0
1, 6670, Note_off_c, 1, 72, 0
1, 6670, Note_off_c, 2, 66, 0
1, 6672, Note_on_c, 0, 73, 80
1, 6672, Note_on_c, 1, 73, 88
1, 6672, Note_on_c, 2, 68, 88
1, 6672, Note_on_c, 3, 64, 88
1, 6672, Note_on_c, 4, 52, 80
1, 6672, Note_on_c, 5, 40, 80
1, 6682, Note_off_c, 0, 73, 0
1, 6682, Note_off_c, 4, 52, 0
1, 6682, Note_off_c, 5, 40, 0
1, 6684, Note_on_c, 0, 68, 80
1, 6684, Note_on_c, 4, 57, 80
1, 6684, Note_on_c, 5, 45, 80
1, 6693, Note_off_c, 1, 73, 0
1, 6693, Note_off_c, 2, 68, 0
1, 6693, Note_off_c, 3, 64, 0
1, 6696, Note_off_c, 0, 68, 0
1, 6696, Note_on_c, 0, 66, 80
1, 6696, Note_on_c, 1, 73, 88
1, 6696, Note_on_c, 2, 69, 88
1, 6696, Note_on_c, 3, 57, 88
1, 6696, Note_off_c, 4, 57, 0
1, 6696, Note_on_c, 4, 59, 80
1, 6696, Note_off_c, 5, 45, 0
1, 6696, Note_on_c, 5, 47, 80
1, 6708, Note_off_c, 0, 66, 0
1, 6708, Note_on_c, 0, 64, 80
1, 6708, Note_off_c, 4, 59, 0
1, 6708, Note_on_c, 4, 61, 80
1, 6708, Note_off_c, 5, 47, 0
1, 6708, Note_on_c, 5, 49, 80
1, 6717, Note_off_c, 1, 73, 0
1, 6717, Note_off_c, 2, 69, 0
1, 6717, Note_off_c, 3, 57, 0
1, 6718, Note_off_c, 0, 64, 0
1, 6718, Note_off_c, 4, 61, 0
1, 6718, Note_off_c, 5, 49, 0
1, 6720, Note_on_c, 0, 63, 80
1, 6720, Note_on_c, 1, 73, 88
1, 6720, Note_on_c, 2, 69, 88
1, 6720, Note_on_c, 3, 63, 88
1, 6720, Note_on_c, 4, 54, 80
1, 6720, Note_on_c, 5, 42, 80
1, 6730, Note_off_c, 0, 63, 0
1, 6732, Note_on_c, 0, 69, 80
1, 6732, Note_off_c, 4, 54, 0
1, 6732, Note_on_c, 4, 52, 80
1, 6732, Note_off_c, 5, 42, 0
1, 6732, Note_on_c, 5, 40, 80
1, 6738, Note_off_c, 0, 69, 0
1, 6738, Note_on_c, 0, 68, 80
1, 6742, Note_off_c, 4, 52, 0
1, 6742, Note_off_c, 5, 40, 0
1, 6744, Note_off_c, 0, 68, 0
1, 6744, Note_on_c, 0, 66, 80
1, 6744, Note_on_c, 4, 54, 80
1, 6744, Note_on_c, 5, 42, 80
1, 6756, Note_off_c, 0, 66, 0
1, 6756, Note_on_c, 0, 73, 80
1, 6762, Note_off_c, 1, 73, 0
1, 6762, Note_off_c, 2, 69, 0
1, 6762, Note_off_c, 3, 63, 0
1, 6765, Note_off_c, 4, 54, 0
1, 6765, Note_off_c, 5, 42, 0
1, 6766, Note_off_c, 0, 73, 0
1, 6768, Note_on_c, 0, 72, 80
1, 6768, Note_on_c, 4, 51, 80
1, 6768, Note_on_c, 5, 39, 80
1, 6778, Note_off_c, 0, 72, 0
1, 6780, Note_on_c, 0, 75, 80
1, 6786, Note_off_c, 0, 75, 0
1, 6786, Note_on_c, 0, 76, 80
1, 6792, Note_off_c, 0, 76, 0
1, 6792, Note_on_c, 0, 78, 80
1, 6792, Note_on_c, 1, 72, 88
1, 6792, Note_on_c, 2, 69, 88
1, 6792, Note_on_c, 3, 63, 88
1, 6792, Note_off_c, 4, 51, 0
1, 6792, Note_on_c, 4, 51, 80
1, 6792, Note_off_c, 5, 39, 0
1, 6792, Note_on_c, 5, 39, 80
1, 6802, Note_off_c, 1, 72, 0
1, 6802, Note_off_c, 2, 69, 0
1, 6804, Note_off_c, 0, 78, 0
1, 6804, Note_on_c, 0, 81, 80
1, 6804, Note_on_c, 1, 70, 88
1, 6804, Note_on_c, 2, 66, 88
1, 6813, Note_off_c, 3, 63, 0
1, 6813, Note_off_c, 4, 51, 0
1, 6813, Note_off_c, 5, 39, 0
1, 6814, Note_off_c, 0, 81, 0
1, 6814, Note_off_c, 1, 70, 0
1, 6814, Note_off_c, 2, 66, 0
1, 6816, Note_on_c, 0, 80, 80
1, 6816, Note_on_c, 1, 72, 88
1, 6816, Note_on_c, 2, 63, 88
1, 6816, Note_on_c, 3, 63, 88
1, 6816, Note_on_c, 4, 51, 80
1, 6816, Note_on_c, 5, 39, 80
1, 6826, Note_off_c, 0, 80, 0
1, 6826, Note_off_c, 4, 51, 0
1, 6826, Note_off_c, 5, 39, 0
1, 6828, Note_on_c, 0, 78, 80
1, 6828, Note_on_c, 4, 56, 80
1, 6828, Note_on_c, 5, 44, 80
1, 6837, Note_off_c, 1, 72, 0
1, 6837, Note_off_c, 2, 63, 0
1, 6837, Note_off_c, 3, 63, 0
1, 6840, Note_off_c, 0, 78, 0
1, 6840, Note_on_c, 0, 76, 80
1, 6840, Note_on_c, 1, 72, 88
1, 6840, Note_on_c, 2, 68, 88
1, 6840, Note_on_c, 3, 63, 88
1, 6840, Note_off_c, 4, 56, 0
1, 6840, Note_on_c, 4, 58, 80
1, 6840, Note_off_c, 5, 44, 0
1, 6840, Note_on_c, 5, 46, 80
1, 6852, Note_off_c, 0, 76, 0
1, 6852, Note_on_c, 0, 78, 80
1, 6852, Note_off_c, 4, 58, 0
1, 6852, Note_on_c, 4, 60, 80
1, 6852, Note_off_c, 5, 46, 0
1, 6852, Note_on_c, 5, 48, 80
1, 6858, Note_off_c, 0, 78, 0
1, 6858, Note_on_c, 0, 75, 80
1, 6861, Note_off_c, 1, 72, 0
1, 6861, Note_off_c, 2, 68, 0
1, 6861, Note_off_c, 3, 63, 0
1, 6862, Note_off_c, 4, 60, 0
1, 6862, Note_off_c, 5, 48, 0
1, 6863, Note_off_c, 0, 75, 0
1, 6864, Note_on_c, 0, 80, 80
1, 6864, Note_on_c, 1, 73, 88
1, 6864, Note_on_c, 2, 61, 88
1, 6864, Note_on_c, 3, 64, 88
1, 6864, Note_on_c, 4, 52, 80
1, 6864, Note_on_c, 5, 40, 80
1, 6874, Note_off_c, 0, 80, 0
1, 6876, Note_on_c, 0, 76, 80
1, 6876, Note_off_c, 4, 52, 0
1, 6876, Note_on_c, 4, 51, 80
1, 6876, Note_off_c, 5, 40, 0
1, 6876, Note_on_c, 5, 39, 80
1, 6886, Note_off_c, 0, 76, 0
1, 6888, Note_on_c, 0, 73, 80
1, 6888, Note_off_c, 4, 51, 0
1, 6888, Note_on_c, 4, 52, 80
1, 6888, Note_off_c, 5, 39, 0
1, 6888, Note_on_c, 5, 40, 80
1, 6891, Note_off_c, 0, 73, 0
1, 6891, Note_on_c, 0, 75, 80
1, 6894, Note_off_c, 0, 75, 0
1, 6894, Note_on_c, 0, 73, 80
1, 6897, Note_off_c, 0, 73, 0
1, 6897, Note_on_c, 0, 75, 80
1, 6900, Note_off_c, 0, 75, 0
1, 6900, Note_on_c, 0, 73, 80
1, 6903, Note_off_c, 0, 73, 0
1, 6903, Note_on_c, 0, 75, 80
1, 6906, Note_off_c, 0, 75, 0
1, 6906, Note_on_c, 0, 73, 80
1, 6906, Note_off_c, 1, 73, 0
1, 6906, Note_off_c, 2, 61, 0
1, 6906, Note_off_c, 3, 64, 0
1, 6909, Note_off_c, 0, 73, 0
1, 6909, Note_on_c, 0, 75, 80
1, 6909, Note_off_c, 4, 52, 0
1, 6909, Note_off_c, 5, 40, 0
1, 6912, Note_off_c, 0, 75, 0
1, 6912, Note_on_c, 0, 73, 80
1, 6912, Note_on_c, 1, 71, 88
1, 6912, Note_on_c, 2, 68, 88
1, 6912, Note_on_c, 3, 65, 88
1, 6912, Note_on_c, 4, 49, 80
1, 6912, Note_on_c, 5, 37, 80
1, 6922, Note_off_c, 0, 73, 0
1, 6924, Note_on_c, 0, 71, 80
1, 6933, Note_off_c, 1, 71, 0
1, 6933, Note_off_c, 2, 68, 0
1, 6933, Note_off_c, 3, 65, 0
1, 6934, Note_off_c, 0, 71, 0
1, 6936, Note_on_c, 0, 74, 80
1, 6936, Note_on_c, 1, 69, 88
1, 6936, Note_on_c, 2, 69, 88
1, 6936, Note_on_c, 3, 66, 88
1, 6936, Note_off_c, 4, 49, 0
1, 6936, Note_on_c, 4, 49, 80
1, 6936, Note_off_c, 5, 37, 0
1, 6936, Note_on_c, 5, 37, 80
1, 6948, Note_off_c, 0, 74, 0
1, 6948, Note_on_c, 0, 73, 80
1, 6957, Note_off_c, 1, 69, 0
1, 6957, Note_off_c, 2, 69, 0
1, 6957, Note_off_c, 3, 66, 0
1, 6957, Note_off_c, 4, 49, 0
1, 6957, Note_off_c, 5, 37, 0
1, 6958, Note_off_c, 0, 73, 0
1, 6960, Note_on_c, 0, 78, 80
1, 6960, Note_on_c, 1, 68, 88
1, 6960, Note_on_c, 2, 71, 88
1, 6960, Note_on_c, 3, 68, 88
1, 6960, Note_on_c, 4, 49, 80
1, 6960, Note_on_c, 5, 37, 80
1, 6970, Note_off_c, 4, 49, 0
1, 6970, Note_off_c, 5, 37, 0
1, 6972, Note_off_c, 0, 78, 0
1, 6972, Note_on_c, 0, 77, 80
1, 6972, Note_on_c, 4, 61, 80
1, 6972, Note_on_c, 5, 49, 80
1, 6981, Note_off_c, 1, 68, 0
1, 6981, Note_off_c, 2, 71, 0
1, 6981, Note_off_c, 3, 68, 0
1, 6982, Note_off_c, 0, 77, 0
1, 6982, Note_off_c, 4, 61, 0
1, 6982, Note_off_c, 5, 49, 0
1, 6984, Note_on_c, 0, 80, 80
1, 6984, Note_on_c, 1, 77, 88
1, 6984, Note_on_c, 2, 74, 88
1, 6984, Note_on_c, 3, 68, 88
1, 6984, Note_on_c, 4, 61, 80
1, 6984, Note_on_c, 5, 49, 80
1, 6996, Note_off_c, 0, 80, 0
1, 6996, Note_on_c, 0, 78, 80
1, 6996, Note_off_c, 4, 61, 0
1, 6996, Note_on_c, 4, 57, 80
1, 6996, Note_off_c, 5, 49, 0
1, 6996, Note_on_c, 5, 45, 80
1, 7005, Note_off_c, 1, 77, 0
1, 7005, Note_off_c, 2, 74, 0
1, 7005, Note_off_c, 3, 68, 0
1, 7006, Note_off_c, 0, 78, 0
1, 7006, Note_off_c, 4, 57, 0
1, 7006, Note_off_c, 5, 45, 0
1, 7008, Note_on_c, 0, 78, 80
1, 7008, Note_on_c, 1, 78, 88
1, 7008, Note_on_c, 2, 73, 88
1, 7008, Note_on_c, 3, 69, 88
1, 7008, Note_on_c, 4, 57, 80
1, 7008, Note_on_c, 5, 45, 80
1, 7020, Note_off_c, 1, 78, 0
1, 7020, Note_on_c, 1, 81, 88
1, 7020, Note_off_c, 4, 57, 0
1, 7020, Note_on_c, 4, 54, 80
1, 7020, Note_off_c, 5, 45, 0
1, 7020, Note_on_c, 5, 42, 80
1, 7030, Note_off_c, 1, 81, 0
1, 7030, Note_off_c, 4, 54, 0
1, 7030, Note_off_c, 5, 42, 0
1, 7032, Note_on_c, 1, 81, 88
1, 7032, Note_on_c, 4, 54, 80
1, 7032, Note_on_c, 5, 42, 80
1, 7044, Note_off_c, 1, 81, 0
1, 7044, Note_on_c, 1, 78, 88
1, 7044, Note_off_c, 4, 54, 0
1, 7044, Note_on_c, 4, 50, 80
1, 7044, Note_off_c, 5, 42, 0
1, 7044, Note_on_c, 5, 38, 80
1, 7050, Note_off_c, 2, 73, 0
1, 7050, Note_off_c, 3, 69, 0
1, 7054, Note_off_c, 1, 78, 0
1, 7054, Note_off_c, 4, 50, 0
1, 7054, Note_off_c, 5, 38, 0
1, 7056, Note_on_c, 1, 78, 88
1, 7056, Note_on_c, 4, 50, 80
1, 7056, Note_on_c, 5, 38, 80
1, 7068, Note_off_c, 0, 78, 0
1, 7068, Note_on_c, 0, 77, 80
1, 7068, Note_off_c, 4, 50, 0
1, 7068, Note_on_c, 4, 49, 80
1, 7068, Note_off_c, 5, 38, 0
1, 7068, Note_on_c, 5, 37, 80
1, 7078, Note_off_c, 0, 77, 0
1, 7080, Note_on_c, 0, 81, 80
1, 7080, Note_on_c, 2, 78, 88
1, 7080, Note_on_c, 3, 63, 88
1, 7080, Note_off_c, 4, 49, 0
1, 7080, Note_on_c, 4, 48, 80
1, 7080, Note_off_c, 5, 37, 0
1, 7080, Note_on_c, 5, 36, 80
1, 7092, Note_off_c, 0, 81, 0
1, 7092, Note_on_c, 0, 80, 80
1, 7092, Note_off_c, 2, 78, 0
1, 7092, Note_on_c, 2, 76, 88
1, 7092, Note_off_c, 3, 63, 0
1, 7092, Note_on_c, 3, 64, 88
1, 7092, Note_off_c, 4, 48, 0
1, 7092, Note_on_c, 4, 49, 80
1, 7092, Note_off_c, 5, 36, 0
1, 7092, Note_on_c, 5, 37, 80
1, 7102, Note_off_c, 0, 80, 0
1, 7102, Note_off_c, 2, 76, 0
1, 7102, Note_off_c, 3, 64, 0
1, 7102, Note_off_c, 4, 49, 0
1, 7102, Note_off_c, 5, 37, 0
1, 7104, Note_on_c, 0, 83, 80
1, 7104, Note_on_c, 2, 75, 88
1, 7104, Note_on_c, 3, 66, 88
1, 7104, Note_on_c, 4, 42, 80
1, 7104, Note_on_c, 5, 30, 80
1, 7108, Note_off_c, 1, 78, 0
1, 7116, Note_off_c, 0, 83, 0
1, 7116, Note_on_c, 0, 82, 80
1, 7116, Note_on_c, 1, 78, 88
1, 7116, Note_off_c, 2, 75, 0
1, 7116, Note_on_c, 2, 73, 88
1, 7125, Note_off_c, 3, 66, 0
1, 7126, Note_off_c, 0, 82, 0
1, 7126, Note_off_c, 1, 78, 0
1, 7126, Note_off_c, 2, 73, 0
1, 7128, Note_on_c, 0, 85, 80
1, 7128, Note_on_c, 1, 80, 88
1, 7128, Note_on_c, 2, 76, 88
1, 7128, Note_on_c, 3, 61, 88
1, 7140, Note_off_c, 0, 85, 0
1, 7140, Note_on_c, 0, 84, 80
1, 7140, Note_off_c, 1, 80, 0
1, 7140, Note_on_c, 1, 81, 88
1, 7140, Note_off_c, 2, 76, 0
1, 7140, Note_on_c, 2, 75, 88
1, 7149, Note_off_c, 3, 61, 0
1, 7150, Note_off_c, 0, 84, 0
1, 7150, Note_off_c, 1, 81, 0
1, 7150, Note_off_c, 2, 75, 0
1, 7152, Note_on_c, 0, 84, 80
1, 7152, Note_on_c, 1, 75, 88
1, 7152, Note_on_c, 2, 80, 88
1, 7152, Note_on_c, 3, 56, 88
1, 7162, Note_off_c, 0, 84, 0
1, 7164, Note_on_c, 0, 78, 80
1, 7170, Note_off_c, 0, 78, 0
1, 7170, Note_on_c, 0, 80, 80
1, 7173, Note_off_c, 2, 80, 0
1, 7173, Note_off_c, 3, 56, 0
1, 7176, Note_off_c, 0, 80, 0
1, 7176, Note_on_c, 0, 81, 80
1, 7176, Note_on_c, 2, 78, 88
1, 7176, Note_on_c, 3, 60, 88
1, 7177, Note_off_c, 4, 42, 0
1, 7177, Note_off_c, 5, 30, 0
1, 7183, Note_off_c, 1, 75, 0
1, 7188, Note_on_c, 1, 72, 88
1, 7188, Note_on_c, 4, 54, 80
1, 7188, Note_on_c, 5, 42, 80
1, 7194, Note_off_c, 1, 72, 0
1, 7194, Note_on_c, 1, 73, 88
1, 7197, Note_off_c, 2, 78, 0
1, 7197, Note_off_c, 3, 60, 0
1, 7198, Note_off_c, 4, 54, 0
1, 7198, Note_off_c, 5, 42, 0
1, 7200, Note_off_c, 1, 73, 0
1, 7200, Note_on_c, 1, 75, 88
1, 7200, Note_on_c, 4, 48, 80
1, 7200, Note_on_c, 5, 36, 80
1, 7207, Note_off_c, 0, 81, 0
1, 7212, Note_on_c, 0, 80, 80
1, 7218, Note_off_c, 0, 80, 0
1, 7218, Note_on_c, 0, 78, 80
1, 7221, Note_off_c, 1, 75, 0
1, 7221, Note_off_c, 4, 48, 0
1, 7221, Note_off_c, 5, 36, 0
1, 7224, Note_off_c, 0, 78, 0
1, 7224, Note_on_c, 0, 80, 80
1, 7224, Note_on_c, 1, 76, 88
1, 7224, Note_on_c, 2, 68, 88
1, 7224, Note_on_c, 3, 61, 88
1, 7224, Note_on_c, 4, 49, 80
1, 7224, Note_on_c, 5, 37, 80
1, 7234, Note_off_c, 0, 80, 0
1, 7234, Note_off_c, 1, 76, 0
1, 7234, Note_off_c, 2, 68, 0
1, 7236, Note_on_c, 0, 81, 80
1, 7236, Note_on_c, 1, 73, 88
1, 7236, Note_on_c, 2, 66, 88
1, 7245, Note_off_c, 3, 61, 0
1, 7245, Note_off_c, 4, 49, 0
1, 7245, Note_off_c, 5, 37, 0
1, 7246, Note_off_c, 0, 81, 0
1, 7246, Note_off_c, 1, 73, 0
1, 7246, Note_off_c, 2, 66, 0
1, 7248, Note_on_c, 0, 76, 80
1, 7248, Note_on_c, 1, 72, 88
1, 7248, Note_on_c, 2, 68, 88
1, 7248, Note_on_c, 3, 63, 88
1, 7248, Note_on_c, 4, 56, 80
1, 7248, Note_on_c, 5, 44, 80
1, 7251, Note_off_c, 0, 76, 0
1, 7251, Note_on_c, 0, 75, 80
1, 7254, Note_off_c, 0, 75, 0
1, 7254, Note_on_c, 0, 76, 80
1, 7257, Note_off_c, 0, 76, 0
1, 7257, Note_on_c, 0, 75, 80
1, 7260, Note_off_c, 0, 75, 0
1, 7260, Note_on_c, 0, 76, 80
1, 7263, Note_off_c, 0, 76, 0
1, 7263, Note_on_c, 0, 75, 80
1, 7266, Note_off_c, 0, 75, 0
1, 7266, Note_on_c, 0, 76, 80
1, 7269, Note_off_c, 0, 76, 0
1, 7269, Note_on_c, 0, 75, 80
1, 7269, Note_off_c, 2, 68, 0
1, 7269, Note_off_c, 3, 63, 0
1, 7269, Note_off_c, 4, 56, 0
1, 7269, Note_off_c, 5, 44, 0
1, 7272, Note_off_c, 0, 75, 0
1, 7272, Note_on_c, 0, 76, 80
1, 7272, Note_on_c, 2, 68, 88
1, 7272, Note_on_c, 3, 56, 88
1, 7272, Note_on_c, 4, 44, 80
1, 7272, Note_on_c, 5, 32, 80
1, 7275, Note_off_c, 0, 76, 0
1, 7275, Note_on_c, 0, 75, 80
1, 7278, Note_off_c, 0, 75, 0
1, 7278, Note_on_c, 0, 76, 80
1, 7279, Note_off_c, 1, 72, 0
1, 7281, Note_off_c, 0, 76, 0
1, 7281, Note_on_c, 0, 75, 80
1, 7284, Note_off_c, 0, 75, 0
1, 7284, Note_on_c, 0, 73, 80
1, 7284, Note_on_c, 1, 73, 88
1, 7293, Note_off_c, 2, 68, 0
1, 7293, Note_off_c, 3, 56, 0
1, 7293, Note_off_c, 4, 44, 0
1, 7293, Note_off_c, 5, 32, 0
1, 7294, Note_off_c, 0, 73, 0
1, 7294, Note_off_c, 1, 73, 0
1, 7296, Note_on_c, 0, 73, 80
1, 7296, Note_on_c, 1, 68, 88
1, 7296, Note_on_c, 2, 64, 88
1, 7296, Note_on_c, 3, 56, 88
1, 7296, Note_on_c, 4, 61, 80
1, 7296, Note_on_c, 5, 49, 80
1, 7308, Note_off_c, 4, 61, 0
1, 7308, Note_on_c, 4, 60, 80
1, 7308, Note_off_c, 5, 49, 0
1, 7308, Note_on_c, 5, 48, 80
1, 7320, Note_off_c, 4, 60, 0
1, 7320, Note_on_c, 4, 61, 80
1, 7320, Note_off_c, 5, 48, 0
1, 7320, Note_on_c, 5, 49, 80
1, 7338, Note_off_c, 3, 56, 0
1, 7341, Note_off_c, 4, 61, 0
1, 7341, Note_off_c, 5, 49, 0
1, 7344, Note_on_c, 3, 61, 88
1, 7344, Note_on_c, 4, 56, 80
1, 7344, Note_on_c, 5, 44, 80
1, 7368, Note_off_c, 4, 56, 0
1, 7368, Note_on_c, 4, 56, 80
1, 7368, Note_off_c, 5, 44, 0
1, 7368, Note_on_c, 5, 44, 80
1, 7380, Note_off_c, 0, 73, 0
1, 7389, Note_off_c, 4, 56, 0
1, 7389, Note_off_c, 5, 44, 0
1, 7392, Note_on_c, 4, 56, 80
1, 7392, Note_on_c, 5, 44, 80
1, 7402, Note_off_c, 4, 56, 0
1, 7402, Note_off_c, 5, 44, 0
1, 7404, Note_on_c, 4, 61, 80
1, 7404, Note_on_c, 5, 49, 80
1, 7416, Note_off_c, 4, 61, 0
1, 7416, Note_on_c, 4, 63, 80
1, 7416, Note_off_c, 5, 49, 0
1, 7416, Note_on_c, 5, 51, 80
1, 7422, Note_off_c, 2, 64, 0
1, 7428, Note_off_c, 3, 61, 0
1, 7428, Note_off_c, 4, 63, 0
1, 7428, Note_on_c, 4, 64, 80
1, 7428, Note_off_c, 5, 51, 0
1, 7428, Note_on_c, 5, 52, 80
1, 7438, Note_off_c, 4, 64, 0
1, 7438, Note_off_c, 5, 52, 0
1, 7440, Note_on_c, 2, 66, 88
1, 7440, Note_on_c, 3, 60, 88
1, 7440, Note_on_c, 4, 63, 80
1, 7440, Note_on_c, 5, 51, 80
1, 7452, Note_off_c, 4, 63, 0
1, 7452, Note_on_c, 4, 61, 80
1, 7452, Note_off_c, 5, 51, 0
1, 7452, Note_on_c, 5, 49, 80
1, 7464, Note_off_c, 4, 61, 0
1, 7464, Note_on_c, 4, 63, 80
1, 7464, Note_off_c, 5, 49, 0
1, 7464, Note_on_c, 5, 51, 80
1, 7482, Note_off_c, 2, 66, 0
1, 7485, Note_off_c, 4, 63, 0
1, 7485, Note_off_c, 5, 51, 0
1, 7488, Note_on_c, 2, 63, 88
1, 7488, Note_on_c, 4, 56, 80
1, 7488, Note_on_c, 5, 44, 80
1, 7509, Note_off_c, 4, 56, 0
1, 7509, Note_off_c, 5, 44, 0
1, 7512, Note_on_c, 4, 56, 80
1, 7512, Note_on_c, 5, 44, 80
1, 7533, Note_off_c, 4, 56, 0
1, 7533, Note_off_c, 5, 44, 0
1, 7536, Note_on_c, 4, 56, 80
1, 7536, Note_on_c, 5, 44, 80
1, 7546, Note_off_c, 4, 56, 0
1, 7546, Note_off_c, 5, 44, 0
1, 7548, Note_on_c, 4, 63, 80
1, 7548, Note_on_c, 5, 51, 80
1, 7560, Note_off_c, 4, 63, 0
1, 7560, Note_on_c, 4, 64, 80
1, 7560, Note_off_c, 5, 51, 0
1, 7560, Note_on_c, 5, 52, 80
1, 7566, Note_off_c, 3, 60, 0
1, 7572, Note_off_c, 2, 63, 0
1, 7572, Note_off_c, 4, 64, 0
1, 7572, Note_on_c, 4, 66, 80
1, 7572, Note_off_c, 5, 52, 0
1, 7572, Note_on_c, 5, 54, 80
1, 7582, Note_off_c, 4, 66, 0
1, 7582, Note_off_c, 5, 54, 0
1, 7584, Note_on_c, 2, 64, 88
1, 7584, Note_on_c, 3, 61, 88
1, 7584, Note_on_c, 4, 64, 80
1, 7584, Note_on_c, 5, 52, 80
1, 7596, Note_off_c, 4, 64, 0
1, 7596, Note_on_c, 4, 63, 80
1, 7596, Note_off_c, 5, 52, 0
1, 7596, Note_on_c, 5, 51, 80
1, 7608, Note_off_c, 4, 63, 0
1, 7608, Note_on_c, 4, 64, 80
1, 7608, Note_off_c, 5, 51, 0
1, 7608, Note_on_c, 5, 52, 80
1, 7629, Note_off_c, 4, 64, 0
1, 7629, Note_off_c, 5, 52, 0
1, 7632, Note_on_c, 4, 56, 80
1, 7632, Note_on_c, 5, 44, 80
1, 7656, Note_off_c, 4, 56, 0
1, 7656, Note_on_c, 4, 56, 80
1, 7656, Note_off_c, 5, 44, 0
1, 7656, Note_on_c, 5, 44, 80
1, 7674, Note_off_c, 1, 68, 0
1, 7677, Note_off_c, 4, 56, 0
1, 7677, Note_off_c, 5, 44, 0
1, 7680, Note_on_c, 4, 56, 80
1, 7680, Note_on_c, 5, 44, 80
1, 7690, Note_off_c, 4, 56, 0
1, 7690, Note_off_c, 5, 44, 0
1, 7692, Note_on_c, 4, 61, 80
1, 7692, Note_on_c, 5, 49, 80
1, 7704, Note_off_c, 4, 61, 0
1, 7704, Note_on_c, 4, 63, 80
1, 7704, Note_off_c, 5, 49, 0
1, 7704, Note_on_c, 5, 51, 80
1, 7716, Note_off_c, 4, 63, 0
1, 7716, Note_on_c, 4, 64, 80
1, 7716, Note_off_c, 5, 51, 0
1, 7716, Note_on_c, 5, 52, 80
1, 7726, Note_off_c, 4, 64, 0
1, 7726, Note_off_c, 5, 52, 0
1, 7728, Note_on_c, 1, 66, 88
1, 7728, Note_on_c, 4, 57, 80
1, 7728, Note_on_c, 5, 45, 80
1, 7740, Note_off_c, 4, 57, 0
1, 7740, Note_on_c, 4, 56, 80
1, 7740, Note_off_c, 5, 45, 0
1, 7740, Note_on_c, 5, 44, 80
1, 7752, Note_off_c, 2, 64, 0
1, 7752, Note_off_c, 4, 56, 0
1, 7752, Note_on_c, 4, 57, 80
1, 7752, Note_off_c, 5, 44, 0
1, 7752, Note_on_c, 5, 45, 80
1, 7773, Note_off_c, 4, 57, 0
1, 7773, Note_off_c, 5, 45, 0
1, 7776, Note_on_c, 2, 63, 88
1, 7776, Note_on_c, 4, 54, 80
1, 7776, Note_on_c, 5, 42, 80
1, 7797, Note_off_c, 2, 63, 0
1, 7800, Note_on_c, 2, 61, 88
1, 7800, Note_off_c, 4, 54, 0
1, 7800, Note_on_c, 4, 54, 80
1, 7800, Note_off_c, 5, 42, 0
1, 7800, Note_on_c, 5, 42, 80
1, 7821, Note_off_c, 2, 61, 0
1, 7821, Note_off_c, 4, 54, 0
1, 7821, Note_off_c, 5, 42, 0
1, 7824, Note_on_c, 2, 63, 88
1, 7824, Note_on_c, 4, 54, 80
1, 7824, Note_on_c, 5, 42, 80
1, 7834, Note_off_c, 4, 54, 0
1, 7834, Note_off_c, 5, 42, 0
1, 7836, Note_off_c, 3, 61, 0
1, 7836, Note_on_c, 4, 60, 80
1, 7836, Note_on_c, 5, 48, 80
1, 7848, Note_off_c, 4, 60, 0
1, 7848, Note_on_c, 4, 61, 80
1, 7848, Note_off_c, 5, 48, 0
1, 7848, Note_on_c, 5, 49, 80
1, 7854, Note_off_c, 1, 66, 0
1, 7860, Note_off_c, 4, 61, 0
1, 7860, Note_on_c, 4, 63, 80
1, 7860, Note_off_c, 5, 49, 0
1, 7860, Note_on_c, 5, 51, 80
1, 7870, Note_off_c, 4, 63, 0
1, 7870, Note_off_c, 5, 51, 0
1, 7872, Note_on_c, 1, 64, 88
1, 7872, Note_on_c, 3, 60, 88
1, 7872, Note_on_c, 4, 56, 80
1, 7872, Note_on_c, 5, 44, 80
1, 7884, Note_off_c, 4, 56, 0
1, 7884, Note_on_c, 4, 54, 80
1, 7884, Note_off_c, 5, 44, 0
1, 7884, Note_on_c, 5, 42, 80
1, 7896, Note_off_c, 4, 54, 0
1, 7896, Note_on_c, 4, 56, 80
1, 7896, Note_off_c, 5, 42, 0
1, 7896, Note_on_c, 5, 44, 80
1, 7908, Note_off_c, 2, 63, 0
1, 7914, Note_off_c, 3, 60, 0
1, 7917, Note_off_c, 4, 56, 0
1, 7917, Note_off_c, 5, 44, 0
1, 7920, Note_on_c, 2, 61, 88
1, 7920, Note_on_c, 3, 56, 88
1, 7920, Note_on_c, 4, 52, 80
1, 7920, Note_on_c, 5, 40, 80
1, 7941, Note_off_c, 2, 61, 0
1, 7944, Note_on_c, 2, 60, 88
1, 7944, Note_off_c, 4, 52, 0
1, 7944, Note_on_c, 4, 52, 80
1, 7944, Note_off_c, 5, 40, 0
1, 7944, Note_on_c, 5, 40, 80
1, 7965, Note_off_c, 2, 60, 0
1, 7965, Note_off_c, 4, 52, 0
1, 7965, Note_off_c, 5, 40, 0
1, 7966, Note_off_c, 1, 64, 0
1, 7968, Note_on_c, 2, 61, 88
1, 7968, Note_on_c, 4, 52, 80
1, 7968, Note_on_c, 5, 40, 80
1, 7972, Note_off_c, 3, 56, 0
1, 7978, Note_off_c, 2, 61, 0
1, 7978, Note_off_c, 4, 52, 0
1, 7978, Note_off_c, 5, 40, 0
1, 7980, Note_on_c, 1, 73, 88
1, 7980, Note_on_c, 2, 73, 88
1, 7980, Note_on_c, 3, 73, 88
1, 7980, Note_on_c, 4, 61, 80
1, 7980, Note_on_c, 5, 49, 80
1, 7990, Note_off_c, 1, 73, 0
1, 7990, Note_off_c, 2, 73, 0
1, 7990, Note_off_c, 3, 73, 0
1, 7990, Note_off_c, 4, 61, 0
1, 7990, Note_off_c, 5, 49, 0
1, 7992, Note_on_c, 1, 73, 88
1, 7992, Note_on_c, 2, 73, 88
1, 7992, Note_on_c, 3, 73, 88
1, 7992, Note_on_c, 4, 61, 80
1, 7992, Note_on_c, 5, 49, 80
1, 8004, Note_off_c, 1, 73, 0
1, 8004, Note_on_c, 1, 69, 88
1, 8004, Note_off_c, 2, 73, 0
1, 8004, Note_on_c, 2, 69, 88
1, 8004, Note_off_c, 3, 73, 0
1, 8004, Note_on_c, 3, 69, 88
1, 8004, Note_off_c, 4, 61, 0
1, 8004, Note_on_c, 4, 57, 80
1, 8004, Note_off_c, 5, 49, 0
1, 8004, Note_on_c, 5, 45, 80
1, 8014, Note_off_c, 1, 69, 0
1, 8014, Note_off_c, 2, 69, 0
1, 8014, Note_off_c, 3, 69, 0
1, 8014, Note_off_c, 4, 57, 0
1, 8014, Note_off_c, 5, 45, 0
1, 8016, Note_on_c, 1, 69, 88
1, 8016, Note_on_c, 2, 69, 88
1, 8016, Note_on_c, 3, 69, 88
1, 8016, Note_on_c, 4, 57, 80
1, 8016, Note_on_c, 5, 45, 80
1, 8028, Note_off_c, 1, 69, 0
1, 8028, Note_on_c, 1, 66, 88
1, 8028, Note_off_c, 2, 69, 0
1, 8028, Note_on_c, 2, 66, 88
1, 8028, Note_off_c, 3, 69, 0
1, 8028, Note_on_c, 3, 66, 88
1, 8028, Note_off_c, 4, 57, 0
1, 8028, Note_on_c, 4, 54, 80
1, 8028, Note_off_c, 5, 45, 0
1, 8028, Note_on_c, 5, 42, 80
1, 8038, Note_off_c, 1, 66, 0
1, 8038, Note_off_c, 2, 66, 0
1, 8038, Note_off_c, 3, 66, 0
1, 8038, Note_off_c, 4, 54, 0
1, 8038, Note_off_c, 5, 42, 0
1, 8040, Note_on_c, 1, 66, 88
1, 8040, Note_on_c, 2, 66, 88
1, 8040, Note_on_c, 3, 66, 88
1, 8040, Note_on_c, 4, 54, 80
1, 8040, Note_on_c, 5, 42, 80
1, 8052, Note_off_c, 1, 66, 0
1, 8052, Note_on_c, 1, 63, 88
1, 8052, Note_off_c, 2, 66, 0
1, 8052, Note_on_c, 2, 63, 88
1, 8052, Note_off_c, 3, 66, 0
1, 8052, Note_on_c, 3, 63, 88
1, 8052, Note_off_c, 4, 54, 0
1, 8052, Note_on_c, 4, 51, 80
1, 8052, Note_off_c, 5, 42, 0
1, 8052, Note_on_c, 5, 39, 80
1, 8062, Note_off_c, 1, 63, 0
1, 8062, Note_off_c, 2, 63, 0
1, 8062, Note_off_c, 3, 63, 0
1, 8062, Note_off_c, 4, 51, 0
1, 8062, Note_off_c, 5, 39, 0
1, 8064, Note_on_c, 1, 63, 88
1, 8064, Note_on_c, 2, 63, 88
1, 8064, Note_on_c, 3, 63, 88
1, 8064, Note_on_c, 4, 51, 80
1, 8064, Note_on_c, 5, 39, 80
1, 8074, Note_off_c, 1, 63, 0
1, 8074, Note_off_c, 2, 63, 0
1, 8074, Note_off_c, 3, 63, 0
1, 8074, Note_off_c, 4, 51, 0
1, 8074, Note_off_c, 5, 39, 0
1, 8076, Note_on_c, 1, 61, 88
1, 8076, Note_on_c, 2, 61, 88
1, 8076, Note_on_c, 3, 61, 88
1, 8076, Note_on_c, 4, 49, 80
1, 8076, Note_on_c, 5, 37, 80
1, 8086, Note_off_c, 1, 61, 0
1, 8086, Note_off_c, 2, 61, 0
1, 8086, Note_off_c, 3, 61, 0
1, 8086, Note_off_c, 4, 49, 0
1, 8086, Note_off_c, 5, 37, 0
1, 8088, Note_on_c, 1, 60, 88
1, 8088, Note_on_c, 2, 60, 88
1, 8088, Note_on_c, 3, 60, 88
1, 8088, Note_on_c, 4, 48, 80
1, 8088, Note_on_c, 5, 36, 80
1, 8098, Note_off_c, 1, 60, 0
1, 8098, Note_off_c, 2, 60, 0
1, 8098, Note_off_c, 3, 60, 0
1, 8098, Note_off_c, 4, 48, 0
1, 8098, Note_off_c, 5, 36, 0
1, 8100, Note_on_c, 1, 61, 88
1, 8100, Note_on_c, 2, 61, 88
1, 8100, Note_on_c, 3, 61, 88
1, 8100, Note_on_c, 4, 49, 80
1, 8100, Note_on_c, 5, 37, 80
1, 8110, Note_off_c, 1, 61, 0
1, 8110, Note_off_c, 2, 61, 0
1, 8110, Note_off_c, 3, 61, 0
1, 8110, Note_off_c, 4, 49, 0
1, 8110, Note_off_c, 5, 37, 0
1, 8112, Note_on_c, 1, 68, 88
1, 8112, Note_on_c, 2, 68, 88
1, 8112, Note_on_c, 3, 68, 88
1, 8112, Note_on_c, 4, 56, 80
1, 8112, Note_on_c, 5, 44, 80
1, 8133, Note_off_c, 1, 68, 0
1, 8133, Note_off_c, 2, 68, 0
1, 8133, Note_off_c, 3, 68, 0
1, 8133, Note_off_c, 4, 56, 0
1, 8133, Note_off_c, 5, 44, 0
1, 8136, Note_on_c, 1, 56, 88
1, 8136, Note_on_c, 2, 56, 88
1, 8136, Note_on_c, 3, 56, 88
1, 8136, Note_on_c, 4, 44, 80
1, 8136, Note_on_c, 5, 32, 80
1, 8157, Note_off_c, 1, 56, 0
1, 8157, Note_off_c, 2, 56, 0
1, 8157, Note_off_c, 3, 56, 0
1, 8157, Note_off_c, 4, 44, 0
1, 8157, Note_off_c, 5, 32, 0
1, 8160, Note_on_c, 1, 61, 88
1, 8160, Note_on_c, 2, 61, 88
1, 8160, Note_on_c, 3, 61, 88
1, 8160, Note_on_c, 4, 49, 80
1, 8160, Note_on_c, 5, 37, 80
1, 8286, Note_off_c, 1, 61, 0
1, 8286, Note_off_c, 2, 61, 0
1, 8286, Note_off_c, 3, 61, 0
1, 8286, Note_off_c, 4, 49, 0
1, 8286, Note_off_c, 5, 37, 0
1, 8448, End_track
0, 0, End_of_file
