0, 0, Header, 1, 4, 384
1, 0, Start_track
1, 0, Tempo, 869560
1, 0, Time_signature, 6, 2, 24, 8
1, 85248, Tempo, 750000
1, 87552, Time_signature, 4, 2, 24, 8
1, 152064, Tempo, 779220
1, 153600, Tempo, 810810
1, 155136, Tempo, 1000000
1, 156672, End_track
2, 0, Start_track
2, 0, Title_t, "Track 1"
2, 0, Program_c, 0, 19
2, 384, Note_on_c, 0, 67, 92
2, 768, Note_off_c, 0, 67, 64
2, 768, Note_on_c, 0, 70, 92
2, 1152, Note_off_c, 0, 70, 64
2, 1152, Note_on_c, 0, 74, 92
2, 1536, Note_off_c, 0, 74, 64
2, 1536, Note_on_c, 0, 70, 92
2, 1920, Note_off_c, 0, 70, 64
2, 1920, Note_on_c, 0, 67, 92
2, 2304, Note_on_c, 0, 75, 92
2, 2304, Note_on_c, 0, 72, 92
2, 4608, Note_off_c, 0, 72, 64
2, 4608, Note_off_c, 0, 75, 64
2, 4608, Note_off_c, 0, 67, 64
2, 4992, Note_on_c, 0, 67, 92
2, 5376, Note_off_c, 0, 67, 64
2, 5376, Note_on_c, 0, 69, 92
2, 5760, Note_off_c, 0, 69, 64
2, 5760, Note_on_c, 0, 72, 92
2, 6144, Note_off_c, 0, 72, 64
2, 6144, Note_on_c, 0, 69, 92
2, 6528, Note_off_c, 0, 69, 64
2, 6528, Note_on_c, 0, 65, 92
2, 6912, Note_on_c, 0, 74, 92
2, 6912, Note_on_c, 0, 70, 92
2, 9216, Note_off_c, 0, 70, 64
2, 9216, Note_off_c, 0, 65, 64
2, 9600, Note_off_c, 0, 74, 64
2, 9600, Note_on_c, 0, 74, 92
2, 9984, Note_off_c, 0, 74, 64
2, 9984, Note_on_c, 0, 72, 92
2, 10368, Note_off_c, 0, 72, 64
2, 10368, Note_on_c, 0, 70, 92
2, 10752, Note_off_c, 0, 70, 64
2, 10752, Note_on_c, 0, 60, 92
2, 10752, Note_on_c, 0, 69, 92
2, 10944, Note_off_c, 0, 69, 64
2, 10944, Note_on_c, 0, 70, 92
2, 11136, Note_off_c, 0, 70, 64
2, 11136, Note_on_c, 0, 67, 92
2, 11520, Note_off_c, 0, 67, 64
2, 11520, Note_on_c, 0, 66, 92
2, 11904, Note_off_c, 0, 60, 64
2, 12288, Note_on_c, 0, 62, 92
2, 12672, Note_off_c, 0, 62, 64
2, 12672, Note_on_c, 0, 60, 92
2, 13056, Note_off_c, 0, 60, 64
2, 13824, Note_off_c, 0, 66, 64
2, 13824, Note_on_c, 0, 58, 92
2, 13824, Note_on_c, 0, 67, 92
2, 14208, Note_off_c, 0, 67, 64
2, 14208, Note_off_c, 0, 58, 64
2, 14208, Note_on_c, 0, 60, 92
2, 14208, Note_on_c, 0, 69, 92
2, 14592, Note_off_c, 0, 69, 64
2, 14592, Note_off_c, 0, 60, 64
2, 14592, Note_on_c, 0, 62, 92
2, 14592, Note_on_c, 0, 70, 92
2, 14976, Note_off_c, 0, 70, 64
2, 14976, Note_off_c, 0, 62, 64
2, 14976, Note_on_c, 0, 60, 92
2, 14976, Note_on_c, 0, 69, 92
2, 15360, Note_off_c, 0, 69, 64
2, 15360, Note_off_c, 0, 60, 64
2, 15360, Note_on_c, 0, 63, 92
2, 15360, Note_on_c, 0, 72, 92
2, 15744, Note_off_c, 0, 72, 64
2, 15744, Note_off_c, 0, 63, 64
2, 15744, Note_on_c, 0, 60, 92
2, 15744, Note_on_c, 0, 69, 92
2, 16128, Note_off_c, 0, 69, 64
2, 16128, Note_off_c, 0, 60, 64
2, 16128, Note_on_c, 0, 66, 92
2, 18432, Note_off_c, 0, 66, 64
2, 18624, Note_on_c, 0, 79, 92
2, 18816, Note_off_c, 0, 79, 64
2, 18816, Note_on_c, 0, 77, 92
2, 19008, Note_off_c, 0, 77, 64
2, 19008, Note_on_c, 0, 79, 92
2, 19200, Note_off_c, 0, 79, 64
2, 19200, Note_on_c, 0, 74, 92
2, 19392, Note_off_c, 0, 74, 64
2, 19392, Note_on_c, 0, 79, 92
2, 19584, Note_off_c, 0, 79, 64
2, 19584, Note_on_c, 0, 77, 92
2, 19776, Note_off_c, 0, 77, 64
2, 19776, Note_on_c, 0, 79, 92
2, 19968, Note_off_c, 0, 79, 64
2, 19968, Note_on_c, 0, 74, 92
2, 20160, Note_off_c, 0, 74, 64
2, 20160, Note_on_c, 0, 79, 92
2, 20352, Note_off_c, 0, 79, 64
2, 20352, Note_on_c, 0, 77, 92
2, 20544, Note_off_c, 0, 77, 64
2, 20544, Note_on_c, 0, 79, 92
2, 20736, Note_off_c, 0, 79, 64
2, 20736, Note_on_c, 0, 75, 92
2, 20928, Note_off_c, 0, 75, 64
2, 20928, Note_on_c, 0, 79, 92
2, 21120, Note_off_c, 0, 79, 64
2, 21120, Note_on_c, 0, 77, 92
2, 21312, Note_off_c, 0, 77, 64
2, 21312, Note_on_c, 0, 79, 92
2, 21504, Note_off_c, 0, 79, 64
2, 21504, Note_on_c, 0, 72, 92
2, 21696, Note_off_c, 0, 72, 64
2, 21696, Note_on_c, 0, 75, 92
2, 21888, Note_off_c, 0, 75, 64
2, 21888, Note_on_c, 0, 74, 92
2, 22080, Note_off_c, 0, 74, 64
2, 22080, Note_on_c, 0, 75, 92
2, 22272, Note_off_c, 0, 75, 64
2, 22272, Note_on_c, 0, 67, 92
2, 22464, Note_off_c, 0, 67, 64
2, 22464, Note_on_c, 0, 72, 92
2, 22656, Note_off_c, 0, 72, 64
2, 22656, Note_on_c, 0, 70, 92
2, 22848, Note_off_c, 0, 70, 64
2, 22848, Note_on_c, 0, 72, 92
2, 23040, Note_off_c, 0, 72, 64
2, 23040, Note_on_c, 0, 69, 92
2, 23232, Note_off_c, 0, 69, 64
2, 23232, Note_on_c, 0, 77, 92
2, 23424, Note_off_c, 0, 77, 64
2, 23424, Note_on_c, 0, 75, 92
2, 23616, Note_off_c, 0, 75, 64
2, 23616, Note_on_c, 0, 77, 92
2, 23808, Note_off_c, 0, 77, 64
2, 23808, Note_on_c, 0, 72, 92
2, 24000, Note_off_c, 0, 72, 64
2, 24000, Note_on_c, 0, 77, 92
2, 24192, Note_off_c, 0, 77, 64
2, 24192, Note_on_c, 0, 75, 92
2, 24384, Note_off_c, 0, 75, 64
2, 24384, Note_on_c, 0, 77, 92
2, 24576, Note_off_c, 0, 77, 64
2, 24576, Note_on_c, 0, 69, 92
2, 24768, Note_off_c, 0, 69, 64
2, 24768, Note_on_c, 0, 77, 92
2, 24960, Note_off_c, 0, 77, 64
2, 24960, Note_on_c, 0, 75, 92
2, 25152, Note_off_c, 0, 75, 64
2, 25152, Note_on_c, 0, 77, 92
2, 25344, Note_off_c, 0, 77, 64
2, 25344, Note_on_c, 0, 74, 92
2, 25536, Note_off_c, 0, 74, 64
2, 25536, Note_on_c, 0, 77, 92
2, 25728, Note_off_c, 0, 77, 64
2, 25728, Note_on_c, 0, 75, 92
2, 25920, Note_off_c, 0, 75, 64
2, 25920, Note_on_c, 0, 77, 92
2, 26112, Note_off_c, 0, 77, 64
2, 26112, Note_on_c, 0, 70, 92
2, 26304, Note_off_c, 0, 70, 64
2, 26304, Note_on_c, 0, 74, 92
2, 26496, Note_off_c, 0, 74, 64
2, 26496, Note_on_c, 0, 72, 92
2, 26688, Note_off_c, 0, 72, 64
2, 26688, Note_on_c, 0, 74, 92
2, 26880, Note_off_c, 0, 74, 64
2, 26880, Note_on_c, 0, 65, 92
2, 27072, Note_off_c, 0, 65, 64
2, 27072, Note_on_c, 0, 70, 92
2, 27264, Note_off_c, 0, 70, 64
2, 27264, Note_on_c, 0, 69, 92
2, 27456, Note_off_c, 0, 69, 64
2, 27456, Note_on_c, 0, 70, 92
2, 27648, Note_off_c, 0, 70, 64
2, 27648, Note_on_c, 0, 67, 92
2, 27840, Note_off_c, 0, 67, 64
2, 27840, Note_on_c, 0, 75, 92
2, 28032, Note_off_c, 0, 75, 64
2, 28032, Note_on_c, 0, 74, 92
2, 28224, Note_off_c, 0, 74, 64
2, 28224, Note_on_c, 0, 75, 92
2, 28416, Note_off_c, 0, 75, 64
2, 28416, Note_on_c, 0, 70, 92
2, 28608, Note_off_c, 0, 70, 64
2, 28608, Note_on_c, 0, 75, 92
2, 28800, Note_off_c, 0, 75, 64
2, 28800, Note_on_c, 0, 74, 92
2, 28992, Note_off_c, 0, 74, 64
2, 28992, Note_on_c, 0, 75, 92
2, 29184, Note_off_c, 0, 75, 64
2, 29184, Note_on_c, 0, 67, 92
2, 29376, Note_off_c, 0, 67, 64
2, 29376, Note_on_c, 0, 75, 92
2, 29568, Note_off_c, 0, 75, 64
2, 29568, Note_on_c, 0, 74, 92
2, 29760, Note_off_c, 0, 74, 64
2, 29760, Note_on_c, 0, 75, 92
2, 29952, Note_off_c, 0, 75, 64
2, 29952, Note_on_c, 0, 69, 92
2, 30144, Note_off_c, 0, 69, 64
2, 30144, Note_on_c, 0, 65, 92
2, 30336, Note_off_c, 0, 65, 64
2, 30336, Note_on_c, 0, 72, 92
2, 30528, Note_off_c, 0, 72, 64
2, 30528, Note_on_c, 0, 65, 92
2, 30720, Note_off_c, 0, 65, 64
2, 30720, Note_on_c, 0, 77, 92
2, 30912, Note_off_c, 0, 77, 64
2, 30912, Note_on_c, 0, 65, 92
2, 31104, Note_off_c, 0, 65, 64
2, 31104, Note_on_c, 0, 69, 92
2, 31296, Note_off_c, 0, 69, 64
2, 31296, Note_on_c, 0, 65, 92
2, 31488, Note_off_c, 0, 65, 64
2, 31488, Note_on_c, 0, 72, 92
2, 31680, Note_off_c, 0, 72, 64
2, 31680, Note_on_c, 0, 65, 92
2, 31872, Note_off_c, 0, 65, 64
2, 31872, Note_on_c, 0, 77, 92
2, 32064, Note_off_c, 0, 77, 64
2, 32064, Note_on_c, 0, 65, 92
2, 32256, Note_off_c, 0, 65, 64
2, 32256, Note_on_c, 0, 70, 92
2, 32448, Note_off_c, 0, 70, 64
2, 32448, Note_on_c, 0, 65, 92
2, 32640, Note_off_c, 0, 65, 64
2, 32640, Note_on_c, 0, 74, 92
2, 32832, Note_off_c, 0, 74, 64
2, 32832, Note_on_c, 0, 65, 92
2, 33024, Note_off_c, 0, 65, 64
2, 33024, Note_on_c, 0, 77, 92
2, 33216, Note_off_c, 0, 77, 64
2, 33216, Note_on_c, 0, 65, 92
2, 33408, Note_off_c, 0, 65, 64
2, 33408, Note_on_c, 0, 70, 92
2, 33600, Note_off_c, 0, 70, 64
2, 33600, Note_on_c, 0, 65, 92
2, 33792, Note_off_c, 0, 65, 64
2, 33792, Note_on_c, 0, 74, 92
2, 33984, Note_off_c, 0, 74, 64
2, 33984, Note_on_c, 0, 65, 92
2, 34176, Note_off_c, 0, 65, 64
2, 34176, Note_on_c, 0, 77, 92
2, 34368, Note_off_c, 0, 77, 64
2, 34368, Note_on_c, 0, 65, 92
2, 34560, Note_off_c, 0, 65, 64
2, 34560, Note_on_c, 0, 67, 92
2, 34944, Note_off_c, 0, 67, 64
2, 34944, Note_on_c, 0, 75, 92
2, 35328, Note_off_c, 0, 75, 64
2, 35328, Note_on_c, 0, 74, 92
2, 35376, Note_off_c, 0, 74, 64
2, 35376, Note_on_c, 0, 72, 92
2, 35424, Note_off_c, 0, 72, 64
2, 35424, Note_on_c, 0, 74, 92
2, 35472, Note_off_c, 0, 74, 64
2, 35472, Note_on_c, 0, 72, 92
2, 35520, Note_off_c, 0, 72, 64
2, 35520, Note_on_c, 0, 74, 92
2, 35568, Note_off_c, 0, 74, 64
2, 35568, Note_on_c, 0, 72, 92
2, 35616, Note_off_c, 0, 72, 64
2, 35616, Note_on_c, 0, 74, 92
2, 35664, Note_off_c, 0, 74, 64
2, 35664, Note_on_c, 0, 72, 92
2, 35712, Note_off_c, 0, 72, 64
2, 35712, Note_on_c, 0, 74, 92
2, 35760, Note_off_c, 0, 74, 64
2, 35760, Note_on_c, 0, 72, 92
2, 35808, Note_off_c, 0, 72, 64
2, 35808, Note_on_c, 0, 74, 92
2, 35856, Note_off_c, 0, 74, 64
2, 35856, Note_on_c, 0, 72, 92
2, 35904, Note_off_c, 0, 72, 64
2, 35904, Note_on_c, 0, 74, 92
2, 35952, Note_off_c, 0, 74, 64
2, 35952, Note_on_c, 0, 72, 92
2, 36000, Note_off_c, 0, 72, 64
2, 36000, Note_on_c, 0, 74, 92
2, 36048, Note_off_c, 0, 74, 64
2, 36048, Note_on_c, 0, 72, 92
2, 36096, Note_off_c, 0, 72, 64
2, 36096, Note_on_c, 0, 74, 92
2, 36144, Note_off_c, 0, 74, 64
2, 36144, Note_on_c, 0, 72, 92
2, 36192, Note_off_c, 0, 72, 64
2, 36192, Note_on_c, 0, 74, 92
2, 36240, Note_off_c, 0, 74, 64
2, 36240, Note_on_c, 0, 72, 92
2, 36288, Note_off_c, 0, 72, 64
2, 36288, Note_on_c, 0, 74, 92
2, 36336, Note_off_c, 0, 74, 64
2, 36336, Note_on_c, 0, 72, 92
2, 36384, Note_off_c, 0, 72, 64
2, 36384, Note_on_c, 0, 74, 92
2, 36432, Note_off_c, 0, 74, 64
2, 36432, Note_on_c, 0, 72, 92
2, 36480, Note_off_c, 0, 72, 64
2, 36480, Note_on_c, 0, 70, 92
2, 36864, Note_off_c, 0, 70, 64
2, 36864, Note_on_c, 0, 70, 92
2, 37056, Note_on_c, 0, 67, 92
2, 37248, Note_off_c, 0, 67, 64
2, 37248, Note_on_c, 0, 65, 92
2, 37440, Note_off_c, 0, 65, 64
2, 37440, Note_on_c, 0, 63, 92
2, 37632, Note_off_c, 0, 63, 64
2, 37632, Note_on_c, 0, 62, 92
2, 38016, Note_off_c, 0, 62, 64
2, 38016, Note_off_c, 0, 70, 64
2, 38016, Note_on_c, 0, 63, 92
2, 38016, Note_on_c, 0, 72, 92
2, 38400, Note_off_c, 0, 72, 64
2, 38400, Note_off_c, 0, 63, 64
2, 38400, Note_on_c, 0, 65, 92
2, 38400, Note_on_c, 0, 74, 92
2, 38784, Note_off_c, 0, 74, 64
2, 38784, Note_off_c, 0, 65, 64
2, 38784, Note_on_c, 0, 67, 92
2, 38784, Note_on_c, 0, 76, 92
2, 39168, Note_off_c, 0, 76, 64
2, 39168, Note_off_c, 0, 67, 64
2, 39168, Note_on_c, 0, 69, 92
2, 39168, Note_on_c, 0, 77, 92
2, 41472, Note_off_c, 0, 69, 64
2, 41472, Note_on_c, 0, 70, 92
2, 41856, Note_off_c, 0, 77, 64
2, 41856, Note_on_c, 0, 77, 92
2, 42240, Note_off_c, 0, 77, 64
2, 42240, Note_off_c, 0, 70, 64
2, 42240, Note_on_c, 0, 76, 92
2, 42624, Note_off_c, 0, 76, 64
2, 42624, Note_on_c, 0, 74, 92
2, 43008, Note_off_c, 0, 74, 64
2, 43008, Note_on_c, 0, 73, 92
2, 43392, Note_off_c, 0, 73, 64
2, 43392, Note_on_c, 0, 71, 92
2, 43776, Note_off_c, 0, 71, 64
2, 43776, Note_on_c, 0, 73, 92
2, 43968, Note_off_c, 0, 73, 64
2, 43968, Note_on_c, 0, 69, 92
2, 44160, Note_off_c, 0, 69, 64
2, 44160, Note_on_c, 0, 76, 92
2, 44352, Note_off_c, 0, 76, 64
2, 44352, Note_on_c, 0, 69, 92
2, 44544, Note_off_c, 0, 69, 64
2, 44544, Note_on_c, 0, 81, 92
2, 44736, Note_off_c, 0, 81, 64
2, 44736, Note_on_c, 0, 69, 92
2, 44928, Note_off_c, 0, 69, 64
2, 44928, Note_on_c, 0, 73, 92
2, 45120, Note_off_c, 0, 73, 64
2, 45120, Note_on_c, 0, 69, 92
2, 45312, Note_off_c, 0, 69, 64
2, 45312, Note_on_c, 0, 76, 92
2, 45504, Note_off_c, 0, 76, 64
2, 45504, Note_on_c, 0, 69, 92
2, 45696, Note_off_c, 0, 69, 64
2, 45696, Note_on_c, 0, 81, 92
2, 45888, Note_off_c, 0, 81, 64
2, 45888, Note_on_c, 0, 69, 92
2, 46080, Note_off_c, 0, 69, 64
2, 46080, Note_on_c, 0, 74, 92
2, 46272, Note_off_c, 0, 74, 64
2, 46272, Note_on_c, 0, 69, 92
2, 46464, Note_off_c, 0, 69, 64
2, 46464, Note_on_c, 0, 77, 92
2, 46656, Note_off_c, 0, 77, 64
2, 46656, Note_on_c, 0, 69, 92
2, 46848, Note_off_c, 0, 69, 64
2, 46848, Note_on_c, 0, 81, 92
2, 47040, Note_off_c, 0, 81, 64
2, 47040, Note_on_c, 0, 69, 92
2, 47232, Note_off_c, 0, 69, 64
2, 47232, Note_on_c, 0, 74, 92
2, 47424, Note_off_c, 0, 74, 64
2, 47424, Note_on_c, 0, 69, 92
2, 47616, Note_off_c, 0, 69, 64
2, 47616, Note_on_c, 0, 77, 92
2, 47808, Note_off_c, 0, 77, 64
2, 47808, Note_on_c, 0, 69, 92
2, 48000, Note_off_c, 0, 69, 64
2, 48000, Note_on_c, 0, 81, 92
2, 48192, Note_off_c, 0, 81, 64
2, 48192, Note_on_c, 0, 69, 92
2, 48384, Note_off_c, 0, 69, 64
2, 48384, Note_on_c, 0, 79, 92
2, 48576, Note_off_c, 0, 79, 64
2, 48576, Note_on_c, 0, 81, 92
2, 48768, Note_off_c, 0, 81, 64
2, 48768, Note_on_c, 0, 77, 92
2, 49152, Note_off_c, 0, 77, 64
2, 49152, Note_on_c, 0, 77, 92
2, 49200, Note_off_c, 0, 77, 64
2, 49200, Note_on_c, 0, 76, 92
2, 49248, Note_off_c, 0, 76, 64
2, 49248, Note_on_c, 0, 77, 92
2, 49296, Note_off_c, 0, 77, 64
2, 49296, Note_on_c, 0, 76, 92
2, 49344, Note_off_c, 0, 76, 64
2, 49344, Note_on_c, 0, 77, 92
2, 49392, Note_off_c, 0, 77, 64
2, 49392, Note_on_c, 0, 76, 92
2, 49440, Note_off_c, 0, 76, 64
2, 49440, Note_on_c, 0, 77, 92
2, 49488, Note_off_c, 0, 77, 64
2, 49488, Note_on_c, 0, 76, 92
2, 49536, Note_off_c, 0, 76, 64
2, 49536, Note_on_c, 0, 77, 92
2, 49584, Note_off_c, 0, 77, 64
2, 49584, Note_on_c, 0, 76, 92
2, 49632, Note_off_c, 0, 76, 64
2, 49632, Note_on_c, 0, 77, 92
2, 49680, Note_off_c, 0, 77, 64
2, 49680, Note_on_c, 0, 76, 92
2, 49728, Note_off_c, 0, 76, 64
2, 49728, Note_on_c, 0, 77, 92
2, 49776, Note_off_c, 0, 77, 64
2, 49776, Note_on_c, 0, 76, 92
2, 49824, Note_off_c, 0, 76, 64
2, 49824, Note_on_c, 0, 77, 92
2, 49872, Note_off_c, 0, 77, 64
2, 49872, Note_on_c, 0, 76, 92
2, 49920, Note_off_c, 0, 76, 64
2, 49920, Note_on_c, 0, 77, 92
2, 49968, Note_off_c, 0, 77, 64
2, 49968, Note_on_c, 0, 76, 92
2, 50016, Note_off_c, 0, 76, 64
2, 50016, Note_on_c, 0, 77, 92
2, 50064, Note_off_c, 0, 77, 64
2, 50064, Note_on_c, 0, 76, 92
2, 50112, Note_off_c, 0, 76, 64
2, 50112, Note_on_c, 0, 77, 92
2, 50160, Note_off_c, 0, 77, 64
2, 50160, Note_on_c, 0, 76, 92
2, 50208, Note_off_c, 0, 76, 64
2, 50208, Note_on_c, 0, 77, 92
2, 50256, Note_off_c, 0, 77, 64
2, 50256, Note_on_c, 0, 76, 92
2, 50304, Note_off_c, 0, 76, 64
2, 50304, Note_on_c, 0, 74, 92
2, 50688, Note_off_c, 0, 74, 64
2, 50688, Note_on_c, 0, 65, 92
2, 50688, Note_on_c, 0, 69, 92
2, 50688, Note_on_c, 0, 74, 92
2, 52992, Note_off_c, 0, 74, 64
2, 52992, Note_off_c, 0, 69, 64
2, 52992, Note_off_c, 0, 65, 64
2, 53376, Note_on_c, 0, 67, 92
2, 53760, Note_off_c, 0, 67, 64
2, 53760, Note_on_c, 0, 70, 92
2, 54144, Note_off_c, 0, 70, 64
2, 54144, Note_on_c, 0, 74, 92
2, 54528, Note_off_c, 0, 74, 64
2, 54528, Note_on_c, 0, 70, 92
2, 54912, Note_off_c, 0, 70, 64
2, 54912, Note_on_c, 0, 67, 92
2, 55296, Note_on_c, 0, 72, 92
2, 55296, Note_on_c, 0, 75, 92
2, 57600, Note_off_c, 0, 75, 64
2, 57600, Note_off_c, 0, 72, 64
2, 57600, Note_off_c, 0, 67, 64
2, 57984, Note_on_c, 0, 65, 92
2, 58368, Note_off_c, 0, 65, 64
2, 58368, Note_on_c, 0, 69, 92
2, 58752, Note_off_c, 0, 69, 64
2, 58752, Note_on_c, 0, 72, 92
2, 59136, Note_off_c, 0, 72, 64
2, 59136, Note_on_c, 0, 69, 92
2, 59520, Note_off_c, 0, 69, 64
2, 59520, Note_on_c, 0, 65, 92
2, 59904, Note_on_c, 0, 70, 92
2, 59904, Note_on_c, 0, 74, 92
2, 62208, Note_off_c, 0, 70, 64
2, 62208, Note_off_c, 0, 65, 64
2, 62592, Note_off_c, 0, 74, 64
2, 62592, Note_on_c, 0, 74, 92
2, 62976, Note_off_c, 0, 74, 64
2, 62976, Note_on_c, 0, 72, 92
2, 63360, Note_off_c, 0, 72, 64
2, 63360, Note_on_c, 0, 70, 92
2, 63744, Note_off_c, 0, 70, 64
2, 63744, Note_on_c, 0, 69, 92
2, 63936, Note_off_c, 0, 69, 64
2, 63936, Note_on_c, 0, 70, 92
2, 64128, Note_off_c, 0, 70, 64
2, 64128, Note_on_c, 0, 67, 92
2, 64512, Note_off_c, 0, 67, 64
2, 64512, Note_on_c, 0, 66, 92
2, 64704, Note_off_c, 0, 66, 64
2, 64704, Note_on_c, 0, 62, 92
2, 64896, Note_off_c, 0, 62, 64
2, 64896, Note_on_c, 0, 69, 92
2, 65088, Note_off_c, 0, 69, 64
2, 65088, Note_on_c, 0, 62, 92
2, 65280, Note_off_c, 0, 62, 64
2, 65280, Note_on_c, 0, 74, 92
2, 65472, Note_off_c, 0, 74, 64
2, 65472, Note_on_c, 0, 62, 92
2, 65664, Note_off_c, 0, 62, 64
2, 65664, Note_on_c, 0, 66, 92
2, 65856, Note_off_c, 0, 66, 64
2, 65856, Note_on_c, 0, 62, 92
2, 66048, Note_off_c, 0, 62, 64
2, 66048, Note_on_c, 0, 69, 92
2, 66240, Note_off_c, 0, 69, 64
2, 66240, Note_on_c, 0, 62, 92
2, 66432, Note_off_c, 0, 62, 64
2, 66432, Note_on_c, 0, 74, 92
2, 66624, Note_off_c, 0, 74, 64
2, 66624, Note_on_c, 0, 62, 92
2, 66816, Note_off_c, 0, 62, 64
2, 66816, Note_on_c, 0, 67, 92
2, 67008, Note_off_c, 0, 67, 64
2, 67008, Note_on_c, 0, 62, 92
2, 67200, Note_off_c, 0, 62, 64
2, 67200, Note_on_c, 0, 70, 92
2, 67392, Note_off_c, 0, 70, 64
2, 67392, Note_on_c, 0, 62, 92
2, 67584, Note_off_c, 0, 62, 64
2, 67584, Note_on_c, 0, 74, 92
2, 67776, Note_off_c, 0, 74, 64
2, 67776, Note_on_c, 0, 62, 92
2, 67968, Note_off_c, 0, 62, 64
2, 67968, Note_on_c, 0, 67, 92
2, 68160, Note_off_c, 0, 67, 64
2, 68160, Note_on_c, 0, 62, 92
2, 68352, Note_off_c, 0, 62, 64
2, 68352, Note_on_c, 0, 70, 92
2, 68544, Note_off_c, 0, 70, 64
2, 68544, Note_on_c, 0, 62, 92
2, 68736, Note_off_c, 0, 62, 64
2, 68736, Note_on_c, 0, 74, 92
2, 68928, Note_off_c, 0, 74, 64
2, 68928, Note_on_c, 0, 62, 92
2, 69120, Note_off_c, 0, 62, 64
2, 69120, Note_on_c, 0, 66, 92
2, 69312, Note_off_c, 0, 66, 64
2, 69312, Note_on_c, 0, 62, 92
2, 69504, Note_off_c, 0, 62, 64
2, 69504, Note_on_c, 0, 69, 92
2, 69696, Note_off_c, 0, 69, 64
2, 69696, Note_on_c, 0, 62, 92
2, 69888, Note_off_c, 0, 62, 64
2, 69888, Note_on_c, 0, 74, 92
2, 70080, Note_off_c, 0, 74, 64
2, 70080, Note_on_c, 0, 62, 92
2, 70272, Note_off_c, 0, 62, 64
2, 70272, Note_on_c, 0, 66, 92
2, 70464, Note_off_c, 0, 66, 64
2, 70464, Note_on_c, 0, 62, 92
2, 70656, Note_off_c, 0, 62, 64
2, 70656, Note_on_c, 0, 69, 92
2, 70848, Note_off_c, 0, 69, 64
2, 70848, Note_on_c, 0, 62, 92
2, 71040, Note_off_c, 0, 62, 64
2, 71040, Note_on_c, 0, 74, 92
2, 71232, Note_off_c, 0, 74, 64
2, 71232, Note_on_c, 0, 62, 92
2, 71424, Note_off_c, 0, 62, 64
2, 71424, Note_on_c, 0, 67, 92
2, 71616, Note_off_c, 0, 67, 64
2, 71616, Note_on_c, 0, 62, 92
2, 71808, Note_off_c, 0, 62, 64
2, 71808, Note_on_c, 0, 70, 92
2, 72000, Note_off_c, 0, 70, 64
2, 72000, Note_on_c, 0, 62, 92
2, 72192, Note_off_c, 0, 62, 64
2, 72192, Note_on_c, 0, 74, 92
2, 72384, Note_off_c, 0, 74, 64
2, 72384, Note_on_c, 0, 62, 92
2, 72576, Note_off_c, 0, 62, 64
2, 72576, Note_on_c, 0, 67, 92
2, 72768, Note_off_c, 0, 67, 64
2, 72768, Note_on_c, 0, 62, 92
2, 72960, Note_off_c, 0, 62, 64
2, 72960, Note_on_c, 0, 70, 92
2, 73152, Note_off_c, 0, 70, 64
2, 73152, Note_on_c, 0, 62, 92
2, 73344, Note_off_c, 0, 62, 64
2, 73344, Note_on_c, 0, 74, 92
2, 73536, Note_off_c, 0, 74, 64
2, 73536, Note_on_c, 0, 62, 92
2, 73728, Note_off_c, 0, 62, 64
2, 73728, Note_on_c, 0, 72, 92
2, 73920, Note_off_c, 0, 72, 64
2, 73920, Note_on_c, 0, 74, 92
2, 74112, Note_off_c, 0, 74, 64
2, 74112, Note_on_c, 0, 70, 92
2, 74496, Note_off_c, 0, 70, 64
2, 74496, Note_on_c, 0, 70, 92
2, 74544, Note_off_c, 0, 70, 64
2, 74544, Note_on_c, 0, 69, 92
2, 74592, Note_off_c, 0, 69, 64
2, 74592, Note_on_c, 0, 70, 92
2, 74640, Note_off_c, 0, 70, 64
2, 74640, Note_on_c, 0, 69, 92
2, 74688, Note_off_c, 0, 69, 64
2, 74688, Note_on_c, 0, 70, 92
2, 74736, Note_off_c, 0, 70, 64
2, 74736, Note_on_c, 0, 69, 92
2, 74784, Note_off_c, 0, 69, 64
2, 74784, Note_on_c, 0, 70, 92
2, 74832, Note_off_c, 0, 70, 64
2, 74832, Note_on_c, 0, 69, 92
2, 74880, Note_off_c, 0, 69, 64
2, 74880, Note_on_c, 0, 70, 92
2, 74928, Note_off_c, 0, 70, 64
2, 74928, Note_on_c, 0, 69, 92
2, 74976, Note_off_c, 0, 69, 64
2, 74976, Note_on_c, 0, 70, 92
2, 75024, Note_off_c, 0, 70, 64
2, 75024, Note_on_c, 0, 69, 92
2, 75072, Note_off_c, 0, 69, 64
2, 75072, Note_on_c, 0, 70, 92
2, 75120, Note_off_c, 0, 70, 64
2, 75120, Note_on_c, 0, 69, 92
2, 75168, Note_off_c, 0, 69, 64
2, 75168, Note_on_c, 0, 70, 92
2, 75216, Note_off_c, 0, 70, 64
2, 75216, Note_on_c, 0, 69, 92
2, 75264, Note_off_c, 0, 69, 64
2, 75264, Note_on_c, 0, 70, 92
2, 75312, Note_off_c, 0, 70, 64
2, 75312, Note_on_c, 0, 69, 92
2, 75360, Note_off_c, 0, 69, 64
2, 75360, Note_on_c, 0, 70, 92
2, 75408, Note_off_c, 0, 70, 64
2, 75408, Note_on_c, 0, 69, 92
2, 75456, Note_off_c, 0, 69, 64
2, 75456, Note_on_c, 0, 70, 92
2, 75504, Note_off_c, 0, 70, 64
2, 75504, Note_on_c, 0, 69, 92
2, 75552, Note_off_c, 0, 69, 64
2, 75552, Note_on_c, 0, 70, 92
2, 75600, Note_off_c, 0, 70, 64
2, 75600, Note_on_c, 0, 69, 92
2, 75648, Note_off_c, 0, 69, 64
2, 75648, Note_on_c, 0, 67, 92
2, 76032, Note_off_c, 0, 67, 64
2, 76032, Note_on_c, 0, 58, 92
2, 76032, Note_on_c, 0, 67, 92
2, 78336, Note_off_c, 0, 67, 64
2, 78336, Note_off_c, 0, 58, 64
2, 79104, Note_on_c, 0, 61, 92
2, 79104, Note_on_c, 0, 67, 92
2, 80640, Note_off_c, 0, 61, 64
2, 80640, Note_on_c, 0, 62, 92
2, 81024, Note_off_c, 0, 67, 64
2, 81024, Note_on_c, 0, 69, 92
2, 81408, Note_off_c, 0, 69, 64
2, 81408, Note_on_c, 0, 67, 92
2, 81456, Note_off_c, 0, 67, 64
2, 81456, Note_on_c, 0, 66, 92
2, 81504, Note_off_c, 0, 66, 64
2, 81504, Note_on_c, 0, 67, 92
2, 81552, Note_off_c, 0, 67, 64
2, 81552, Note_on_c, 0, 66, 92
2, 81600, Note_off_c, 0, 66, 64
2, 81600, Note_on_c, 0, 67, 92
2, 81648, Note_off_c, 0, 67, 64
2, 81648, Note_on_c, 0, 66, 92
2, 81696, Note_off_c, 0, 66, 64
2, 81696, Note_on_c, 0, 67, 92
2, 81744, Note_off_c, 0, 67, 64
2, 81744, Note_on_c, 0, 66, 92
2, 81792, Note_off_c, 0, 66, 64
2, 81792, Note_on_c, 0, 67, 92
2, 81840, Note_off_c, 0, 67, 64
2, 81840, Note_on_c, 0, 66, 92
2, 81888, Note_off_c, 0, 66, 64
2, 81888, Note_on_c, 0, 67, 92
2, 81936, Note_off_c, 0, 67, 64
2, 81936, Note_on_c, 0, 66, 92
2, 81984, Note_off_c, 0, 66, 64
2, 81984, Note_on_c, 0, 67, 92
2, 82032, Note_off_c, 0, 67, 64
2, 82032, Note_on_c, 0, 66, 92
2, 82080, Note_off_c, 0, 66, 64
2, 82080, Note_on_c, 0, 67, 92
2, 82128, Note_off_c, 0, 67, 64
2, 82128, Note_on_c, 0, 66, 92
2, 82176, Note_off_c, 0, 66, 64
2, 82176, Note_off_c, 0, 62, 64
2, 82176, Note_on_c, 0, 67, 92
2, 82176, Note_on_c, 0, 60, 92
2, 82224, Note_off_c, 0, 67, 64
2, 82224, Note_on_c, 0, 66, 92
2, 82272, Note_off_c, 0, 66, 64
2, 82272, Note_on_c, 0, 67, 92
2, 82320, Note_off_c, 0, 67, 64
2, 82320, Note_on_c, 0, 66, 92
2, 82368, Note_off_c, 0, 66, 64
2, 82368, Note_on_c, 0, 67, 92
2, 82416, Note_off_c, 0, 67, 64
2, 82416, Note_on_c, 0, 66, 92
2, 82464, Note_off_c, 0, 66, 64
2, 82464, Note_on_c, 0, 67, 92
2, 82512, Note_off_c, 0, 67, 64
2, 82512, Note_on_c, 0, 66, 92
2, 82560, Note_off_c, 0, 66, 64
2, 82560, Note_on_c, 0, 67, 92
2, 82944, Note_off_c, 0, 67, 64
2, 82944, Note_off_c, 0, 60, 64
2, 82944, Note_on_c, 0, 62, 92
2, 82944, Note_on_c, 0, 67, 92
2, 85248, Note_off_c, 0, 67, 64
2, 85248, Note_off_c, 0, 62, 64
2, 87552, Program_c, 0, 19
2, 87552, Note_on_c, 0, 74, 92
2, 88320, Note_off_c, 0, 74, 64
2, 88320, Note_on_c, 0, 75, 92
2, 88512, Note_off_c, 0, 75, 64
2, 88512, Note_on_c, 0, 74, 92
2, 88704, Note_off_c, 0, 74, 64
2, 88704, Note_on_c, 0, 75, 92
2, 88896, Note_off_c, 0, 75, 64
2, 88896, Note_on_c, 0, 72, 92
2, 89088, Note_off_c, 0, 72, 64
2, 89088, Note_on_c, 0, 74, 92
2, 89472, Note_off_c, 0, 74, 64
2, 89664, Note_on_c, 0, 67, 92
2, 89856, Note_off_c, 0, 67, 64
2, 89856, Note_on_c, 0, 69, 92
2, 90048, Note_off_c, 0, 69, 64
2, 90048, Note_on_c, 0, 69, 92
2, 90240, Note_off_c, 0, 69, 64
2, 90240, Note_on_c, 0, 74, 92
2, 90432, Note_off_c, 0, 74, 64
2, 90432, Note_on_c, 0, 72, 92
2, 90624, Note_off_c, 0, 72, 64
2, 90624, Note_on_c, 0, 70, 92
2, 90816, Note_off_c, 0, 70, 64
2, 90816, Note_on_c, 0, 67, 92
2, 91008, Note_off_c, 0, 67, 64
2, 91008, Note_on_c, 0, 74, 92
2, 91200, Note_off_c, 0, 74, 64
2, 91200, Note_on_c, 0, 74, 92
2, 91392, Note_off_c, 0, 74, 64
2, 91392, Note_on_c, 0, 70, 92
2, 91584, Note_off_c, 0, 70, 64
2, 91584, Note_on_c, 0, 67, 92
2, 91776, Note_off_c, 0, 67, 64
2, 91776, Note_on_c, 0, 75, 92
2, 92544, Note_off_c, 0, 75, 64
2, 92544, Note_on_c, 0, 74, 92
2, 93312, Note_off_c, 0, 74, 64
2, 93312, Note_on_c, 0, 72, 92
2, 93696, Note_on_c, 0, 67, 92
2, 93888, Note_off_c, 0, 72, 64
2, 93888, Note_on_c, 0, 70, 92
2, 93984, Note_off_c, 0, 70, 64
2, 93984, Note_on_c, 0, 69, 92
2, 94080, Note_off_c, 0, 69, 64
2, 94080, Note_on_c, 0, 70, 92
2, 94272, Note_off_c, 0, 70, 64
2, 94272, Note_on_c, 0, 72, 92
2, 94464, Note_off_c, 0, 72, 64
2, 94464, Note_off_c, 0, 67, 64
2, 94464, Note_on_c, 0, 74, 92
2, 94464, Note_on_c, 0, 70, 92
2, 94656, Note_off_c, 0, 70, 64
2, 94656, Note_on_c, 0, 69, 92
2, 94848, Note_off_c, 0, 69, 64
2, 94848, Note_off_c, 0, 74, 64
2, 94848, Note_on_c, 0, 79, 92
2, 94848, Note_on_c, 0, 70, 92
2, 95040, Note_off_c, 0, 70, 64
2, 95040, Note_on_c, 0, 67, 92
2, 95232, Note_off_c, 0, 67, 64
2, 95232, Note_on_c, 0, 69, 92
2, 95424, Note_off_c, 0, 79, 64
2, 95424, Note_on_c, 0, 73, 92
2, 95616, Note_off_c, 0, 73, 64
2, 95616, Note_off_c, 0, 69, 64
2, 95616, Note_on_c, 0, 74, 92
2, 95808, Note_on_c, 0, 62, 92
2, 96000, Note_off_c, 0, 62, 64
2, 96000, Note_on_c, 0, 64, 92
2, 96192, Note_off_c, 0, 64, 64
2, 96192, Note_on_c, 0, 64, 92
2, 96384, Note_off_c, 0, 64, 64
2, 96384, Note_off_c, 0, 74, 64
2, 96384, Note_on_c, 0, 73, 92
2, 96384, Note_on_c, 0, 69, 92
2, 96576, Note_off_c, 0, 69, 64
2, 96576, Note_on_c, 0, 67, 92
2, 96768, Note_off_c, 0, 67, 64
2, 96768, Note_off_c, 0, 73, 64
2, 96768, Note_on_c, 0, 74, 92
2, 96768, Note_on_c, 0, 65, 92
2, 96960, Note_off_c, 0, 65, 64
2, 96960, Note_on_c, 0, 62, 92
2, 97152, Note_off_c, 0, 62, 64
2, 97152, Note_off_c, 0, 74, 64
2, 97152, Note_on_c, 0, 69, 92
2, 97344, Note_off_c, 0, 69, 64
2, 97344, Note_on_c, 0, 73, 92
2, 97344, Note_on_c, 0, 69, 92
2, 97536, Note_off_c, 0, 69, 64
2, 97536, Note_off_c, 0, 73, 64
2, 97536, Note_on_c, 0, 74, 92
2, 97536, Note_on_c, 0, 65, 92
2, 97728, Note_off_c, 0, 65, 64
2, 97728, Note_on_c, 0, 62, 92
2, 97920, Note_off_c, 0, 62, 64
2, 97920, Note_off_c, 0, 74, 64
2, 97920, Note_on_c, 0, 70, 92
2, 98112, Note_on_c, 0, 74, 92
2, 98304, Note_off_c, 0, 74, 64
2, 98304, Note_on_c, 0, 72, 92
2, 98496, Note_off_c, 0, 72, 64
2, 98496, Note_on_c, 0, 72, 92
2, 98688, Note_off_c, 0, 72, 64
2, 98688, Note_off_c, 0, 70, 64
2, 98688, Note_on_c, 0, 69, 92
2, 98688, Note_on_c, 0, 72, 92
2, 98880, Note_off_c, 0, 72, 64
2, 98880, Note_on_c, 0, 74, 92
2, 98976, Note_off_c, 0, 74, 64
2, 98976, Note_on_c, 0, 72, 92
2, 99072, Note_off_c, 0, 72, 64
2, 99072, Note_on_c, 0, 70, 92
2, 99264, Note_off_c, 0, 70, 64
2, 99264, Note_on_c, 0, 70, 92
2, 99456, Note_off_c, 0, 70, 64
2, 99456, Note_off_c, 0, 69, 64
2, 99456, Note_on_c, 0, 67, 92
2, 99456, Note_on_c, 0, 70, 92
2, 99648, Note_off_c, 0, 70, 64
2, 99648, Note_on_c, 0, 72, 92
2, 99744, Note_off_c, 0, 72, 64
2, 99744, Note_on_c, 0, 70, 92
2, 99840, Note_off_c, 0, 70, 64
2, 99840, Note_on_c, 0, 69, 92
2, 100224, Note_off_c, 0, 67, 64
2, 100224, Note_on_c, 0, 66, 92
2, 100416, Note_off_c, 0, 69, 64
2, 100416, Note_on_c, 0, 74, 92
2, 100608, Note_off_c, 0, 66, 64
2, 100608, Note_on_c, 0, 67, 92
2, 100992, Note_off_c, 0, 74, 64
2, 100992, Note_on_c, 0, 72, 92
2, 101376, Note_off_c, 0, 67, 64
2, 101376, Note_on_c, 0, 66, 92
2, 101568, Note_off_c, 0, 72, 64
2, 101568, Note_on_c, 0, 69, 92
2, 101760, Note_off_c, 0, 69, 64
2, 101760, Note_off_c, 0, 66, 64
2, 101760, Note_on_c, 0, 67, 92
2, 101760, Note_on_c, 0, 70, 92
2, 102144, Note_off_c, 0, 70, 64
2, 102144, Note_on_c, 0, 69, 92
2, 102528, Note_off_c, 0, 67, 64
2, 102528, Note_on_c, 0, 66, 92
2, 102912, Note_off_c, 0, 66, 64
2, 102912, Note_off_c, 0, 69, 64
2, 102912, Note_on_c, 0, 67, 92
2, 102912, Note_on_c, 0, 70, 92
2, 103296, Note_off_c, 0, 70, 64
2, 103296, Note_off_c, 0, 67, 64
2, 103488, Note_on_c, 0, 66, 92
2, 103488, Note_on_c, 0, 69, 92
2, 103680, Note_off_c, 0, 69, 64
2, 103680, Note_off_c, 0, 66, 64
2, 103680, Note_on_c, 0, 67, 92
2, 103680, Note_on_c, 0, 70, 92
2, 104064, Note_off_c, 0, 70, 64
2, 104064, Note_off_c, 0, 67, 64
2, 104256, Note_on_c, 0, 67, 92
2, 104256, Note_on_c, 0, 72, 92
2, 104448, Note_off_c, 0, 72, 64
2, 104448, Note_off_c, 0, 67, 64
2, 104448, Note_on_c, 0, 65, 92
2, 104448, Note_on_c, 0, 69, 92
2, 104640, Note_off_c, 0, 69, 64
2, 104640, Note_off_c, 0, 65, 64
2, 104640, Note_on_c, 0, 65, 92
2, 104640, Note_on_c, 0, 69, 92
2, 104832, Note_off_c, 0, 69, 64
2, 104832, Note_off_c, 0, 65, 64
2, 104832, Note_on_c, 0, 74, 92
2, 104832, Note_on_c, 0, 65, 92
2, 105024, Note_off_c, 0, 65, 64
2, 105024, Note_on_c, 0, 67, 92
2, 105120, Note_off_c, 0, 67, 64
2, 105120, Note_on_c, 0, 65, 92
2, 105216, Note_off_c, 0, 65, 64
2, 105216, Note_off_c, 0, 74, 64
2, 105216, Note_on_c, 0, 63, 92
2, 105216, Note_on_c, 0, 67, 92
2, 105408, Note_off_c, 0, 67, 64
2, 105408, Note_off_c, 0, 63, 64
2, 105408, Note_on_c, 0, 63, 92
2, 105408, Note_on_c, 0, 67, 92
2, 105600, Note_off_c, 0, 67, 64
2, 105600, Note_off_c, 0, 63, 64
2, 105600, Note_on_c, 0, 72, 92
2, 105600, Note_on_c, 0, 63, 92
2, 105792, Note_off_c, 0, 63, 64
2, 105792, Note_on_c, 0, 65, 92
2, 105888, Note_off_c, 0, 65, 64
2, 105888, Note_on_c, 0, 63, 92
2, 105984, Note_off_c, 0, 63, 64
2, 105984, Note_off_c, 0, 72, 64
2, 105984, Note_on_c, 0, 62, 92
2, 105984, Note_on_c, 0, 66, 92
2, 106176, Note_off_c, 0, 66, 64
2, 106176, Note_off_c, 0, 62, 64
2, 106176, Note_on_c, 0, 62, 92
2, 106176, Note_on_c, 0, 66, 92
2, 106368, Note_off_c, 0, 66, 64
2, 106368, Note_off_c, 0, 62, 64
2, 106368, Note_on_c, 0, 67, 92
2, 106368, Note_on_c, 0, 62, 92
2, 106752, Note_off_c, 0, 62, 64
2, 106752, Note_on_c, 0, 60, 92
2, 106944, Note_off_c, 0, 67, 64
2, 106944, Note_on_c, 0, 69, 92
2, 107040, Note_off_c, 0, 69, 64
2, 107040, Note_on_c, 0, 67, 92
2, 107136, Note_off_c, 0, 67, 64
2, 107136, Note_on_c, 0, 66, 92
2, 107424, Note_off_c, 0, 66, 64
2, 107424, Note_on_c, 0, 67, 92
2, 107520, Note_off_c, 0, 67, 64
2, 107520, Note_off_c, 0, 60, 64
2, 107520, Note_on_c, 0, 62, 92
2, 107520, Note_on_c, 0, 67, 92
2, 107712, Note_off_c, 0, 67, 64
2, 107712, Note_on_c, 0, 69, 92
2, 107904, Note_off_c, 0, 69, 64
2, 107904, Note_off_c, 0, 62, 64
2, 107904, Note_on_c, 0, 67, 92
2, 107904, Note_on_c, 0, 70, 92
2, 108096, Note_off_c, 0, 70, 64
2, 108096, Note_on_c, 0, 72, 92
2, 108288, Note_off_c, 0, 72, 64
2, 108288, Note_on_c, 0, 74, 92
2, 108672, Note_off_c, 0, 74, 64
2, 108672, Note_off_c, 0, 67, 64
2, 108864, Note_on_c, 0, 70, 92
2, 108864, Note_on_c, 0, 74, 92
2, 109056, Note_off_c, 0, 74, 64
2, 109056, Note_off_c, 0, 70, 64
2, 109056, Note_on_c, 0, 69, 92
2, 109056, Note_on_c, 0, 73, 92
2, 109440, Note_off_c, 0, 73, 64
2, 109440, Note_off_c, 0, 69, 64
2, 109440, Note_on_c, 0, 74, 92
2, 109440, Note_on_c, 0, 69, 92
2, 109824, Note_off_c, 0, 69, 64
2, 109824, Note_on_c, 0, 67, 92
2, 110208, Note_off_c, 0, 67, 64
2, 110208, Note_off_c, 0, 74, 64
2, 110208, Note_on_c, 0, 73, 92
2, 110208, Note_on_c, 0, 69, 92
2, 110592, Note_off_c, 0, 69, 64
2, 110592, Note_off_c, 0, 73, 64
2, 110592, Note_on_c, 0, 69, 92
2, 110592, Note_on_c, 0, 74, 92
2, 110976, Note_off_c, 0, 74, 64
2, 110976, Note_off_c, 0, 69, 64
2, 111168, Note_on_c, 0, 69, 92
2, 111168, Note_on_c, 0, 73, 92
2, 111360, Note_off_c, 0, 73, 64
2, 111360, Note_off_c, 0, 69, 64
2, 111360, Note_on_c, 0, 69, 92
2, 111360, Note_on_c, 0, 74, 92
2, 111744, Note_off_c, 0, 74, 64
2, 111744, Note_off_c, 0, 69, 64
2, 111744, Note_on_c, 0, 67, 92
2, 111936, Note_on_c, 0, 74, 92
2, 112128, Note_off_c, 0, 74, 64
2, 112128, Note_off_c, 0, 67, 64
2, 112128, Note_on_c, 0, 67, 92
2, 112128, Note_on_c, 0, 72, 92
2, 112320, Note_off_c, 0, 72, 64
2, 112320, Note_on_c, 0, 72, 92
2, 112512, Note_off_c, 0, 72, 64
2, 112512, Note_off_c, 0, 67, 64
2, 112512, Note_on_c, 0, 69, 92
2, 112512, Note_on_c, 0, 72, 92
2, 112704, Note_off_c, 0, 72, 64
2, 112704, Note_on_c, 0, 74, 92
2, 112800, Note_off_c, 0, 74, 64
2, 112800, Note_on_c, 0, 72, 92
2, 112896, Note_off_c, 0, 72, 64
2, 112896, Note_off_c, 0, 69, 64
2, 112896, Note_on_c, 0, 65, 92
2, 112896, Note_on_c, 0, 70, 92
2, 113088, Note_off_c, 0, 70, 64
2, 113088, Note_on_c, 0, 70, 92
2, 113280, Note_off_c, 0, 70, 64
2, 113280, Note_off_c, 0, 65, 64
2, 113280, Note_on_c, 0, 67, 92
2, 113280, Note_on_c, 0, 70, 92
2, 113472, Note_off_c, 0, 70, 64
2, 113472, Note_on_c, 0, 72, 92
2, 113568, Note_off_c, 0, 72, 64
2, 113568, Note_on_c, 0, 70, 92
2, 113664, Note_off_c, 0, 70, 64
2, 113664, Note_off_c, 0, 67, 64
2, 113664, Note_on_c, 0, 64, 92
2, 113664, Note_on_c, 0, 69, 92
2, 113856, Note_off_c, 0, 69, 64
2, 113856, Note_on_c, 0, 69, 92
2, 114048, Note_off_c, 0, 69, 64
2, 114048, Note_off_c, 0, 64, 64
2, 114048, Note_on_c, 0, 65, 92
2, 114048, Note_on_c, 0, 69, 92
2, 114240, Note_off_c, 0, 69, 64
2, 114240, Note_on_c, 0, 70, 92
2, 114336, Note_off_c, 0, 70, 64
2, 114336, Note_on_c, 0, 69, 92
2, 114432, Note_off_c, 0, 69, 64
2, 114432, Note_off_c, 0, 65, 64
2, 114432, Note_on_c, 0, 62, 92
2, 114432, Note_on_c, 0, 67, 92
2, 114624, Note_off_c, 0, 67, 64
2, 114624, Note_on_c, 0, 67, 92
2, 114816, Note_off_c, 0, 67, 64
2, 114816, Note_off_c, 0, 62, 64
2, 114816, Note_on_c, 0, 61, 92
2, 114816, Note_on_c, 0, 67, 92
2, 115008, Note_off_c, 0, 67, 64
2, 115008, Note_on_c, 0, 69, 92
2, 115104, Note_off_c, 0, 69, 64
2, 115104, Note_on_c, 0, 67, 92
2, 115200, Note_off_c, 0, 67, 64
2, 115200, Note_off_c, 0, 61, 64
2, 115200, Note_on_c, 0, 62, 92
2, 115200, Note_on_c, 0, 65, 92
2, 115392, Note_off_c, 0, 65, 64
2, 115392, Note_on_c, 0, 69, 92
2, 115584, Note_off_c, 0, 69, 64
2, 115584, Note_off_c, 0, 62, 64
2, 115584, Note_on_c, 0, 74, 92
2, 115776, Note_on_c, 0, 65, 92
2, 115968, Note_off_c, 0, 65, 64
2, 115968, Note_on_c, 0, 64, 92
2, 116352, Note_off_c, 0, 74, 64
2, 116352, Note_on_c, 0, 73, 92
2, 116736, Note_off_c, 0, 73, 64
2, 116736, Note_off_c, 0, 64, 64
2, 116736, Note_on_c, 0, 74, 92
2, 116736, Note_on_c, 0, 65, 92
2, 117120, Note_off_c, 0, 65, 64
2, 117120, Note_off_c, 0, 74, 64
2, 117120, Note_on_c, 0, 70, 92
2, 117120, Note_on_c, 0, 77, 92
2, 117504, Note_off_c, 0, 77, 64
2, 117504, Note_on_c, 0, 75, 92
2, 117888, Note_off_c, 0, 70, 64
2, 117888, Note_on_c, 0, 69, 92
2, 118272, Note_off_c, 0, 75, 64
2, 118272, Note_on_c, 0, 74, 92
2, 118656, Note_off_c, 0, 69, 64
2, 118656, Note_on_c, 0, 67, 92
2, 119040, Note_off_c, 0, 74, 64
2, 119040, Note_on_c, 0, 72, 92
2, 119424, Note_off_c, 0, 67, 64
2, 119424, Note_on_c, 0, 65, 92
2, 119808, Note_off_c, 0, 72, 64
2, 119808, Note_on_c, 0, 70, 92
2, 120192, Note_off_c, 0, 65, 64
2, 120192, Note_on_c, 0, 63, 92
2, 120576, Note_off_c, 0, 70, 64
2, 120576, Note_on_c, 0, 69, 92
2, 120768, Note_off_c, 0, 63, 64
2, 120768, Note_on_c, 0, 65, 92
2, 120864, Note_off_c, 0, 65, 64
2, 120864, Note_on_c, 0, 63, 92
2, 120960, Note_off_c, 0, 63, 64
2, 120960, Note_off_c, 0, 69, 64
2, 120960, Note_on_c, 0, 70, 92
2, 120960, Note_on_c, 0, 62, 92
2, 121344, Note_off_c, 0, 62, 64
2, 121344, Note_on_c, 0, 60, 92
2, 121536, Note_off_c, 0, 60, 64
2, 121536, Note_on_c, 0, 62, 92
2, 121632, Note_off_c, 0, 62, 64
2, 121632, Note_on_c, 0, 63, 92
2, 121728, Note_off_c, 0, 63, 64
2, 121728, Note_on_c, 0, 62, 92
2, 121920, Note_off_c, 0, 62, 64
2, 121920, Note_off_c, 0, 70, 64
2, 121920, Note_on_c, 0, 69, 92
2, 121920, Note_on_c, 0, 60, 92
2, 122112, Note_off_c, 0, 60, 64
2, 122112, Note_off_c, 0, 69, 64
2, 122112, Note_on_c, 0, 70, 92
2, 122112, Note_on_c, 0, 62, 92
2, 122496, Note_off_c, 0, 62, 64
2, 122496, Note_off_c, 0, 70, 64
2, 122496, Note_on_c, 0, 62, 92
2, 122688, Note_on_c, 0, 74, 92
2, 122880, Note_off_c, 0, 74, 64
2, 122880, Note_off_c, 0, 62, 64
2, 122880, Note_on_c, 0, 60, 92
2, 122880, Note_on_c, 0, 75, 92
2, 123072, Note_off_c, 0, 75, 64
2, 123072, Note_on_c, 0, 75, 92
2, 123264, Note_off_c, 0, 75, 64
2, 123264, Note_on_c, 0, 75, 92
2, 123456, Note_off_c, 0, 75, 64
2, 123456, Note_on_c, 0, 77, 92
2, 123552, Note_off_c, 0, 77, 64
2, 123552, Note_on_c, 0, 75, 92
2, 123648, Note_off_c, 0, 75, 64
2, 123648, Note_off_c, 0, 60, 64
2, 123648, Note_on_c, 0, 74, 92
2, 123840, Note_off_c, 0, 74, 64
2, 123840, Note_on_c, 0, 74, 92
2, 124032, Note_off_c, 0, 74, 64
2, 124032, Note_on_c, 0, 74, 92
2, 124224, Note_off_c, 0, 74, 64
2, 124224, Note_on_c, 0, 75, 92
2, 124320, Note_off_c, 0, 75, 64
2, 124320, Note_on_c, 0, 74, 92
2, 124416, Note_off_c, 0, 74, 64
2, 124416, Note_on_c, 0, 72, 92
2, 124608, Note_off_c, 0, 72, 64
2, 124608, Note_on_c, 0, 72, 92
2, 124800, Note_off_c, 0, 72, 64
2, 124800, Note_on_c, 0, 72, 92
2, 124992, Note_off_c, 0, 72, 64
2, 124992, Note_on_c, 0, 74, 92
2, 125088, Note_off_c, 0, 74, 64
2, 125088, Note_on_c, 0, 72, 92
2, 125184, Note_off_c, 0, 72, 64
2, 125184, Note_on_c, 0, 70, 92
2, 125376, Note_off_c, 0, 70, 64
2, 125376, Note_on_c, 0, 72, 92
2, 125568, Note_off_c, 0, 72, 64
2, 125568, Note_on_c, 0, 67, 92
2, 125568, Note_on_c, 0, 74, 92
2, 125760, Note_off_c, 0, 74, 64
2, 125760, Note_on_c, 0, 75, 92
2, 125952, Note_off_c, 0, 75, 64
2, 125952, Note_on_c, 0, 69, 92
2, 126336, Note_off_c, 0, 67, 64
2, 126336, Note_on_c, 0, 66, 92
2, 126528, Note_off_c, 0, 69, 64
2, 126528, Note_on_c, 0, 74, 92
2, 126720, Note_off_c, 0, 66, 64
2, 126720, Note_on_c, 0, 67, 92
2, 127104, Note_off_c, 0, 74, 64
2, 127104, Note_on_c, 0, 72, 92
2, 127488, Note_off_c, 0, 67, 64
2, 127488, Note_on_c, 0, 66, 92
2, 127680, Note_off_c, 0, 72, 64
2, 127680, Note_on_c, 0, 70, 92
2, 127776, Note_off_c, 0, 70, 64
2, 127776, Note_on_c, 0, 69, 92
2, 127872, Note_off_c, 0, 69, 64
2, 127872, Note_off_c, 0, 66, 64
2, 127872, Note_on_c, 0, 67, 92
2, 127872, Note_on_c, 0, 70, 92
2, 128256, Note_off_c, 0, 70, 64
2, 128256, Note_on_c, 0, 69, 92
2, 128640, Note_off_c, 0, 67, 64
2, 128640, Note_on_c, 0, 66, 92
2, 129024, Note_off_c, 0, 66, 64
2, 129024, Note_off_c, 0, 69, 64
2, 129024, Note_on_c, 0, 70, 92
2, 129024, Note_on_c, 0, 67, 92
2, 129408, Note_off_c, 0, 67, 64
2, 129408, Note_off_c, 0, 70, 64
2, 129600, Note_on_c, 0, 66, 92
2, 129600, Note_on_c, 0, 69, 92
2, 129792, Note_off_c, 0, 69, 64
2, 129792, Note_off_c, 0, 66, 64
2, 129792, Note_on_c, 0, 67, 92
2, 129792, Note_on_c, 0, 70, 92
2, 130176, Note_off_c, 0, 70, 64
2, 130176, Note_off_c, 0, 67, 64
2, 130368, Note_on_c, 0, 72, 92
2, 130368, Note_on_c, 0, 67, 92
2, 130560, Note_off_c, 0, 67, 64
2, 130560, Note_off_c, 0, 72, 64
2, 130560, Note_on_c, 0, 65, 92
2, 130560, Note_on_c, 0, 69, 92
2, 130752, Note_off_c, 0, 69, 64
2, 130752, Note_off_c, 0, 65, 64
2, 130752, Note_on_c, 0, 65, 92
2, 130752, Note_on_c, 0, 69, 92
2, 130944, Note_off_c, 0, 69, 64
2, 130944, Note_off_c, 0, 65, 64
2, 130944, Note_on_c, 0, 70, 92
2, 130944, Note_on_c, 0, 65, 92
2, 131136, Note_off_c, 0, 65, 64
2, 131136, Note_on_c, 0, 67, 92
2, 131232, Note_off_c, 0, 67, 64
2, 131232, Note_on_c, 0, 65, 92
2, 131328, Note_off_c, 0, 65, 64
2, 131328, Note_off_c, 0, 70, 64
2, 131328, Note_on_c, 0, 67, 92
2, 131328, Note_on_c, 0, 63, 92
2, 131520, Note_off_c, 0, 63, 64
2, 131520, Note_off_c, 0, 67, 64
2, 131520, Note_on_c, 0, 67, 92
2, 131520, Note_on_c, 0, 63, 92
2, 131712, Note_off_c, 0, 63, 64
2, 131712, Note_off_c, 0, 67, 64
2, 131712, Note_on_c, 0, 69, 92
2, 131712, Note_on_c, 0, 63, 92
2, 131904, Note_off_c, 0, 63, 64
2, 131904, Note_on_c, 0, 65, 92
2, 132000, Note_off_c, 0, 65, 64
2, 132000, Note_on_c, 0, 63, 92
2, 132096, Note_off_c, 0, 63, 64
2, 132096, Note_off_c, 0, 69, 64
2, 132096, Note_on_c, 0, 66, 92
2, 132096, Note_on_c, 0, 62, 92
2, 132288, Note_off_c, 0, 62, 64
2, 132288, Note_off_c, 0, 66, 64
2, 132288, Note_on_c, 0, 66, 92
2, 132288, Note_on_c, 0, 62, 92
2, 132480, Note_off_c, 0, 62, 64
2, 132480, Note_off_c, 0, 66, 64
2, 132480, Note_on_c, 0, 67, 92
2, 132480, Note_on_c, 0, 62, 92
2, 132672, Note_off_c, 0, 62, 64
2, 132672, Note_on_c, 0, 63, 92
2, 132768, Note_off_c, 0, 63, 64
2, 132768, Note_on_c, 0, 62, 92
2, 132864, Note_off_c, 0, 62, 64
2, 132864, Note_on_c, 0, 60, 92
2, 133056, Note_off_c, 0, 60, 64
2, 133056, Note_on_c, 0, 60, 92
2, 133248, Note_off_c, 0, 60, 64
2, 133248, Note_off_c, 0, 67, 64
2, 133248, Note_on_c, 0, 66, 92
2, 133248, Note_on_c, 0, 60, 92
2, 133440, Note_off_c, 0, 60, 64
2, 133440, Note_on_c, 0, 62, 92
2, 133536, Note_off_c, 0, 62, 64
2, 133536, Note_on_c, 0, 60, 92
2, 133632, Note_off_c, 0, 60, 64
2, 133632, Note_off_c, 0, 66, 64
2, 133632, Note_on_c, 0, 58, 92
2, 133632, Note_on_c, 0, 67, 92
2, 133824, Note_off_c, 0, 58, 64
2, 133824, Note_on_c, 0, 59, 92
2, 134016, Note_off_c, 0, 59, 64
2, 134016, Note_on_c, 0, 60, 92
2, 134400, Note_off_c, 0, 67, 64
2, 134400, Note_on_c, 0, 68, 92
2, 134592, Note_off_c, 0, 68, 64
2, 134592, Note_on_c, 0, 67, 92
2, 134784, Note_off_c, 0, 67, 64
2, 134784, Note_off_c, 0, 60, 64
2, 134784, Note_on_c, 0, 68, 92
2, 134976, Note_off_c, 0, 68, 64
2, 134976, Note_on_c, 0, 62, 92
2, 134976, Note_on_c, 0, 65, 92
2, 135168, Note_off_c, 0, 65, 64
2, 135168, Note_off_c, 0, 62, 64
2, 135168, Note_on_c, 0, 63, 92
2, 135168, Note_on_c, 0, 67, 92
2, 135552, Note_off_c, 0, 67, 64
2, 135552, Note_off_c, 0, 63, 64
2, 135744, Note_on_c, 0, 60, 92
2, 135936, Note_off_c, 0, 60, 64
2, 135936, Note_on_c, 0, 62, 92
2, 136128, Note_off_c, 0, 62, 64
2, 136128, Note_on_c, 0, 62, 92
2, 136320, Note_off_c, 0, 62, 64
2, 136320, Note_on_c, 0, 67, 92
2, 136512, Note_off_c, 0, 67, 64
2, 136512, Note_on_c, 0, 65, 92
2, 136704, Note_off_c, 0, 65, 64
2, 136704, Note_on_c, 0, 63, 92
2, 136896, Note_off_c, 0, 63, 64
2, 136896, Note_on_c, 0, 60, 92
2, 137088, Note_off_c, 0, 60, 64
2, 137088, Note_on_c, 0, 67, 92
2, 137280, Note_off_c, 0, 67, 64
2, 137280, Note_on_c, 0, 67, 92
2, 137472, Note_off_c, 0, 67, 64
2, 137472, Note_on_c, 0, 63, 92
2, 137664, Note_off_c, 0, 63, 64
2, 137664, Note_on_c, 0, 60, 92
2, 137856, Note_off_c, 0, 60, 64
2, 137856, Note_on_c, 0, 68, 92
2, 138048, Note_on_c, 0, 63, 92
2, 138240, Note_off_c, 0, 63, 64
2, 138240, Note_on_c, 0, 62, 92
2, 138432, Note_off_c, 0, 62, 64
2, 138432, Note_on_c, 0, 62, 92
2, 138624, Note_off_c, 0, 62, 64
2, 138624, Note_off_c, 0, 68, 64
2, 138624, Note_on_c, 0, 67, 92
2, 138624, Note_on_c, 0, 62, 92
2, 138816, Note_off_c, 0, 62, 64
2, 138816, Note_on_c, 0, 63, 92
2, 138912, Note_off_c, 0, 63, 64
2, 138912, Note_on_c, 0, 62, 92
2, 139008, Note_off_c, 0, 62, 64
2, 139008, Note_on_c, 0, 60, 92
2, 139200, Note_off_c, 0, 60, 64
2, 139200, Note_on_c, 0, 60, 92
2, 139392, Note_off_c, 0, 60, 64
2, 139392, Note_off_c, 0, 67, 64
2, 139392, Note_on_c, 0, 65, 92
2, 139392, Note_on_c, 0, 60, 92
2, 139584, Note_off_c, 0, 60, 64
2, 139584, Note_on_c, 0, 62, 92
2, 139680, Note_off_c, 0, 62, 64
2, 139680, Note_on_c, 0, 60, 92
2, 139776, Note_off_c, 0, 60, 64
2, 139776, Note_on_c, 0, 59, 92
2, 139968, Note_off_c, 0, 65, 64
2, 139968, Note_on_c, 0, 62, 92
2, 140160, Note_off_c, 0, 62, 64
2, 140160, Note_off_c, 0, 59, 64
2, 140160, Note_on_c, 0, 60, 92
2, 140160, Note_on_c, 0, 63, 92
2, 140544, Note_off_c, 0, 63, 64
2, 140544, Note_on_c, 0, 62, 92
2, 140928, Note_off_c, 0, 60, 64
2, 140928, Note_on_c, 0, 60, 92
2, 140976, Note_off_c, 0, 60, 64
2, 140976, Note_on_c, 0, 59, 92
2, 141024, Note_off_c, 0, 59, 64
2, 141024, Note_on_c, 0, 60, 92
2, 141072, Note_off_c, 0, 60, 64
2, 141072, Note_on_c, 0, 59, 92
2, 141120, Note_off_c, 0, 59, 64
2, 141120, Note_on_c, 0, 60, 92
2, 141168, Note_off_c, 0, 60, 64
2, 141168, Note_on_c, 0, 59, 92
2, 141216, Note_off_c, 0, 59, 64
2, 141216, Note_on_c, 0, 60, 92
2, 141264, Note_off_c, 0, 60, 64
2, 141264, Note_on_c, 0, 59, 92
2, 141312, Note_off_c, 0, 59, 64
2, 141312, Note_off_c, 0, 62, 64
2, 141312, Note_on_c, 0, 60, 92
2, 141312, Note_on_c, 0, 63, 92
2, 141504, Note_off_c, 0, 63, 64
2, 141504, Note_off_c, 0, 60, 64
2, 141504, Note_on_c, 0, 62, 92
2, 141504, Note_on_c, 0, 65, 92
2, 141696, Note_off_c, 0, 65, 64
2, 141696, Note_off_c, 0, 62, 64
2, 141696, Note_on_c, 0, 63, 92
2, 141696, Note_on_c, 0, 67, 92
2, 142080, Note_off_c, 0, 67, 64
2, 142080, Note_off_c, 0, 63, 64
2, 142080, Note_on_c, 0, 62, 92
2, 142080, Note_on_c, 0, 66, 92
2, 142464, Note_off_c, 0, 62, 64
2, 142464, Note_on_c, 0, 69, 92
2, 142848, Note_off_c, 0, 66, 64
2, 142848, Note_on_c, 0, 74, 92
2, 143232, Note_off_c, 0, 69, 64
2, 143232, Note_on_c, 0, 67, 92
2, 143424, Note_off_c, 0, 67, 64
2, 143424, Note_on_c, 0, 70, 92
2, 143616, Note_off_c, 0, 70, 64
2, 143616, Note_off_c, 0, 74, 64
2, 143616, Note_on_c, 0, 72, 92
2, 143616, Note_on_c, 0, 75, 92
2, 143808, Note_off_c, 0, 75, 64
2, 143808, Note_off_c, 0, 72, 64
2, 143808, Note_on_c, 0, 70, 92
2, 143808, Note_on_c, 0, 74, 92
2, 144000, Note_off_c, 0, 74, 64
2, 144000, Note_off_c, 0, 70, 64
2, 144000, Note_on_c, 0, 72, 92
2, 144000, Note_on_c, 0, 75, 92
2, 144192, Note_off_c, 0, 75, 64
2, 144192, Note_on_c, 0, 69, 92
2, 144384, Note_off_c, 0, 69, 64
2, 144384, Note_off_c, 0, 72, 64
2, 144384, Note_on_c, 0, 74, 92
2, 144384, Note_on_c, 0, 65, 92
2, 144576, Note_off_c, 0, 65, 64
2, 144576, Note_on_c, 0, 66, 92
2, 144768, Note_off_c, 0, 66, 64
2, 144768, Note_off_c, 0, 74, 64
2, 144768, Note_on_c, 0, 67, 92
2, 144960, Note_off_c, 0, 67, 64
2, 144960, Note_on_c, 0, 67, 92
2, 145152, Note_off_c, 0, 67, 64
2, 145152, Note_on_c, 0, 63, 92
2, 145152, Note_on_c, 0, 69, 92
2, 145344, Note_off_c, 0, 69, 64
2, 145344, Note_on_c, 0, 69, 92
2, 145536, Note_off_c, 0, 69, 64
2, 145536, Note_off_c, 0, 63, 64
2, 145536, Note_on_c, 0, 62, 92
2, 145536, Note_on_c, 0, 74, 92
2, 145728, Note_off_c, 0, 74, 64
2, 145728, Note_on_c, 0, 72, 92
2, 145920, Note_off_c, 0, 72, 64
2, 145920, Note_on_c, 0, 70, 92
2, 146112, Note_off_c, 0, 70, 64
2, 146112, Note_on_c, 0, 67, 92
2, 146304, Note_off_c, 0, 67, 64
2, 146304, Note_off_c, 0, 62, 64
2, 146304, Note_on_c, 0, 74, 92
2, 146496, Note_off_c, 0, 74, 64
2, 146496, Note_on_c, 0, 62, 92
2, 146496, Note_on_c, 0, 74, 92
2, 146688, Note_off_c, 0, 74, 64
2, 146688, Note_off_c, 0, 62, 64
2, 146688, Note_on_c, 0, 62, 92
2, 146688, Note_on_c, 0, 70, 92
2, 146880, Note_off_c, 0, 70, 64
2, 146880, Note_on_c, 0, 67, 92
2, 147072, Note_off_c, 0, 67, 64
2, 147072, Note_off_c, 0, 62, 64
2, 147072, Note_on_c, 0, 75, 92
2, 147264, Note_on_c, 0, 70, 92
2, 147456, Note_off_c, 0, 70, 64
2, 147456, Note_on_c, 0, 69, 92
2, 147648, Note_off_c, 0, 69, 64
2, 147648, Note_on_c, 0, 69, 92
2, 147840, Note_off_c, 0, 69, 64
2, 147840, Note_off_c, 0, 75, 64
2, 147840, Note_on_c, 0, 74, 92
2, 147840, Note_on_c, 0, 69, 92
2, 148032, Note_off_c, 0, 69, 64
2, 148032, Note_on_c, 0, 70, 92
2, 148128, Note_off_c, 0, 70, 64
2, 148128, Note_on_c, 0, 69, 92
2, 148224, Note_off_c, 0, 69, 64
2, 148224, Note_on_c, 0, 67, 92
2, 148416, Note_off_c, 0, 67, 64
2, 148416, Note_on_c, 0, 67, 92
2, 148608, Note_off_c, 0, 67, 64
2, 148608, Note_off_c, 0, 74, 64
2, 148608, Note_on_c, 0, 72, 92
2, 148608, Note_on_c, 0, 67, 92
2, 148800, Note_off_c, 0, 67, 64
2, 148800, Note_on_c, 0, 69, 92
2, 148896, Note_off_c, 0, 69, 64
2, 148896, Note_on_c, 0, 67, 92
2, 148992, Note_off_c, 0, 67, 64
2, 148992, Note_on_c, 0, 66, 92
2, 149376, Note_off_c, 0, 66, 64
2, 149376, Note_off_c, 0, 72, 64
2, 149376, Note_on_c, 0, 70, 92
2, 149376, Note_on_c, 0, 67, 92
2, 149760, Note_off_c, 0, 70, 64
2, 149760, Note_on_c, 0, 69, 92
2, 150144, Note_off_c, 0, 67, 64
2, 150144, Note_on_c, 0, 65, 92
2, 150528, Note_off_c, 0, 65, 64
2, 150528, Note_on_c, 0, 62, 92
2, 150912, Note_off_c, 0, 69, 64
2, 150912, Note_on_c, 0, 67, 92
2, 151104, Note_off_c, 0, 62, 64
2, 151104, Note_on_c, 0, 74, 92
2, 151296, Note_off_c, 0, 74, 64
2, 151296, Note_on_c, 0, 72, 92
2, 151488, Note_off_c, 0, 72, 64
2, 151488, Note_on_c, 0, 72, 92
2, 151680, Note_off_c, 0, 72, 64
2, 151680, Note_off_c, 0, 67, 64
2, 151680, Note_on_c, 0, 66, 92
2, 151680, Note_on_c, 0, 72, 92
2, 151872, Note_off_c, 0, 72, 64
2, 152064, Note_off_c, 0, 66, 64
2, 152064, Note_on_c, 0, 62, 92
2, 152064, Note_on_c, 0, 70, 92
2, 152256, Note_off_c, 0, 70, 64
2, 152256, Note_on_c, 0, 69, 92
2, 152448, Note_off_c, 0, 69, 64
2, 152448, Note_off_c, 0, 62, 64
2, 152448, Note_on_c, 0, 62, 92
2, 152448, Note_on_c, 0, 67, 92
2, 153216, Note_off_c, 0, 67, 64
2, 153216, Note_on_c, 0, 66, 92
2, 153408, Note_off_c, 0, 62, 64
2, 153408, Note_on_c, 0, 60, 92
2, 153600, Note_off_c, 0, 60, 64
2, 153600, Note_off_c, 0, 66, 64
2, 153600, Note_on_c, 0, 67, 92
2, 153600, Note_on_c, 0, 59, 92
2, 153984, Note_off_c, 0, 59, 64
2, 153984, Note_on_c, 0, 60, 92
2, 154560, Note_off_c, 0, 60, 64
2, 154560, Note_on_c, 0, 62, 92
2, 154656, Note_off_c, 0, 62, 64
2, 154656, Note_on_c, 0, 60, 92
2, 154752, Note_off_c, 0, 60, 64
2, 154944, Note_off_c, 0, 67, 64
2, 154944, Note_on_c, 0, 60, 92
2, 154944, Note_on_c, 0, 66, 92
2, 155136, Note_off_c, 0, 66, 64
2, 155136, Note_off_c, 0, 60, 64
2, 155136, Note_on_c, 0, 62, 92
2, 155136, Note_on_c, 0, 67, 92
2, 156672, Note_off_c, 0, 67, 64
2, 156672, Note_off_c, 0, 62, 64
2, 156672, End_track
3, 0, Start_track
3, 0, Title_t, "Track 2"
3, 0, Note_on_c, 0, 62, 92
3, 0, Note_on_c, 0, 58, 92
3, 0, Note_on_c, 0, 55, 92
3, 2304, Note_off_c, 0, 55, 64
3, 2304, Note_off_c, 0, 58, 64
3, 2304, Note_off_c, 0, 62, 64
3, 2688, Note_on_c, 0, 48, 92
3, 3072, Note_off_c, 0, 48, 64
3, 3072, Note_on_c, 0, 51, 92
3, 3456, Note_off_c, 0, 51, 64
3, 3456, Note_on_c, 0, 55, 92
3, 3840, Note_off_c, 0, 55, 64
3, 3840, Note_on_c, 0, 60, 92
3, 4224, Note_off_c, 0, 60, 64
3, 4224, Note_on_c, 0, 48, 92
3, 4608, Note_off_c, 0, 48, 64
3, 4608, Note_on_c, 0, 60, 92
3, 4608, Note_on_c, 0, 57, 92
3, 4608, Note_on_c, 0, 53, 92
3, 6912, Note_off_c, 0, 53, 64
3, 6912, Note_off_c, 0, 57, 64
3, 6912, Note_off_c, 0, 60, 64
3, 7296, Note_on_c, 0, 46, 92
3, 7680, Note_off_c, 0, 46, 64
3, 7680, Note_on_c, 0, 50, 92
3, 8064, Note_off_c, 0, 50, 64
3, 8064, Note_on_c, 0, 53, 92
3, 8448, Note_off_c, 0, 53, 64
3, 8448, Note_on_c, 0, 58, 92
3, 8832, Note_off_c, 0, 58, 64
3, 8832, Note_on_c, 0, 46, 92
3, 9216, Note_off_c, 0, 46, 64
3, 9216, Note_on_c, 0, 55, 92
3, 9216, Note_on_c, 0, 58, 92
3, 11520, Note_off_c, 0, 58, 64
3, 11520, Note_off_c, 0, 55, 64
3, 11904, Note_on_c, 0, 57, 92
3, 12288, Note_off_c, 0, 57, 64
3, 13056, Note_on_c, 0, 58, 92
3, 13440, Note_off_c, 0, 58, 64
3, 13440, Note_on_c, 0, 57, 92
3, 13824, Note_off_c, 0, 57, 64
3, 13824, Note_on_c, 0, 55, 92
3, 16128, Note_off_c, 0, 55, 64
3, 16128, Note_on_c, 0, 57, 92
3, 16320, Note_off_c, 0, 57, 64
3, 16320, Note_on_c, 0, 62, 92
3, 16512, Note_off_c, 0, 62, 64
3, 16512, Note_on_c, 0, 60, 92
3, 16704, Note_off_c, 0, 60, 64
3, 16704, Note_on_c, 0, 62, 92
3, 16896, Note_off_c, 0, 62, 64
3, 16896, Note_on_c, 0, 57, 92
3, 17088, Note_off_c, 0, 57, 64
3, 17088, Note_on_c, 0, 62, 92
3, 17280, Note_off_c, 0, 62, 64
3, 17280, Note_on_c, 0, 60, 92
3, 17472, Note_off_c, 0, 60, 64
3, 17472, Note_on_c, 0, 62, 92
3, 17664, Note_off_c, 0, 62, 64
3, 17664, Note_on_c, 0, 57, 92
3, 17856, Note_off_c, 0, 57, 64
3, 17856, Note_on_c, 0, 62, 92
3, 18048, Note_off_c, 0, 62, 64
3, 18048, Note_on_c, 0, 60, 92
3, 18240, Note_off_c, 0, 60, 64
3, 18240, Note_on_c, 0, 62, 92
3, 18432, Note_on_c, 0, 59, 92
3, 20736, Note_off_c, 0, 59, 64
3, 20736, Note_off_c, 0, 62, 64
3, 20736, Note_on_c, 0, 55, 92
3, 20736, Note_on_c, 0, 60, 92
3, 23040, Note_off_c, 0, 60, 64
3, 23040, Note_off_c, 0, 55, 64
3, 23040, Note_on_c, 0, 57, 92
3, 23040, Note_on_c, 0, 60, 92
3, 25344, Note_off_c, 0, 60, 64
3, 25344, Note_off_c, 0, 57, 64
3, 25344, Note_on_c, 0, 53, 92
3, 25344, Note_on_c, 0, 58, 92
3, 27648, Note_off_c, 0, 58, 64
3, 27648, Note_off_c, 0, 53, 64
3, 27648, Note_on_c, 0, 55, 92
3, 27648, Note_on_c, 0, 58, 92
3, 29952, Note_off_c, 0, 58, 64
3, 29952, Note_off_c, 0, 55, 64
3, 29952, Note_on_c, 0, 53, 92
3, 29952, Note_on_c, 0, 60, 92
3, 30720, Note_off_c, 0, 60, 64
3, 30720, Note_off_c, 0, 53, 64
3, 32256, Note_on_c, 0, 53, 92
3, 32256, Note_on_c, 0, 58, 92
3, 33024, Note_off_c, 0, 58, 64
3, 33024, Note_off_c, 0, 53, 64
3, 34560, Note_on_c, 0, 58, 92
3, 36096, Note_off_c, 0, 58, 64
3, 36096, Note_on_c, 0, 57, 92
3, 36864, Note_off_c, 0, 57, 64
3, 36864, Note_on_c, 0, 53, 92
3, 36864, Note_on_c, 0, 58, 92
3, 39168, Note_off_c, 0, 58, 64
3, 39168, Note_off_c, 0, 53, 64
3, 39360, Note_on_c, 0, 60, 92
3, 39552, Note_off_c, 0, 60, 64
3, 39552, Note_on_c, 0, 58, 92
3, 39744, Note_off_c, 0, 58, 64
3, 39744, Note_on_c, 0, 60, 92
3, 39936, Note_off_c, 0, 60, 64
3, 39936, Note_on_c, 0, 57, 92
3, 40128, Note_off_c, 0, 57, 64
3, 40128, Note_on_c, 0, 60, 92
3, 40320, Note_off_c, 0, 60, 64
3, 40320, Note_on_c, 0, 58, 92
3, 40512, Note_off_c, 0, 58, 64
3, 40512, Note_on_c, 0, 60, 92
3, 40704, Note_off_c, 0, 60, 64
3, 40704, Note_on_c, 0, 53, 92
3, 40896, Note_off_c, 0, 53, 64
3, 40896, Note_on_c, 0, 60, 92
3, 41088, Note_off_c, 0, 60, 64
3, 41088, Note_on_c, 0, 58, 92
3, 41280, Note_off_c, 0, 58, 64
3, 41280, Note_on_c, 0, 60, 92
3, 41472, Note_off_c, 0, 60, 64
3, 41472, Note_on_c, 0, 55, 92
3, 41472, Note_on_c, 0, 62, 92
3, 42240, Note_off_c, 0, 62, 64
3, 42240, Note_off_c, 0, 55, 64
3, 43776, Note_on_c, 0, 55, 92
3, 43776, Note_on_c, 0, 57, 92
3, 43776, Note_on_c, 0, 64, 92
3, 44544, Note_off_c, 0, 64, 64
3, 44544, Note_off_c, 0, 57, 64
3, 44544, Note_off_c, 0, 55, 64
3, 46080, Note_on_c, 0, 53, 92
3, 46080, Note_on_c, 0, 57, 92
3, 46080, Note_on_c, 0, 62, 92
3, 46848, Note_off_c, 0, 62, 64
3, 46848, Note_off_c, 0, 57, 64
3, 46848, Note_off_c, 0, 53, 64
3, 48384, Note_on_c, 0, 62, 92
3, 48384, Note_on_c, 0, 58, 92
3, 48384, Note_on_c, 0, 55, 92
3, 49152, Note_off_c, 0, 55, 64
3, 49152, Note_off_c, 0, 58, 64
3, 49152, Note_on_c, 0, 57, 92
3, 49920, Note_off_c, 0, 62, 64
3, 49920, Note_on_c, 0, 61, 92
3, 50688, Note_off_c, 0, 61, 64
3, 50688, Note_off_c, 0, 57, 64
3, 51072, Note_on_c, 0, 50, 92
3, 51456, Note_off_c, 0, 50, 64
3, 51456, Note_on_c, 0, 53, 92
3, 51840, Note_off_c, 0, 53, 64
3, 51840, Note_on_c, 0, 57, 92
3, 52224, Note_off_c, 0, 57, 64
3, 52224, Note_on_c, 0, 53, 92
3, 52608, Note_off_c, 0, 53, 64
3, 52608, Note_on_c, 0, 50, 92
3, 52992, Note_on_c, 0, 55, 92
3, 55296, Note_off_c, 0, 55, 64
3, 55296, Note_off_c, 0, 50, 64
3, 55680, Note_on_c, 0, 48, 92
3, 56064, Note_off_c, 0, 48, 64
3, 56064, Note_on_c, 0, 51, 92
3, 56448, Note_off_c, 0, 51, 64
3, 56448, Note_on_c, 0, 55, 92
3, 56832, Note_off_c, 0, 55, 64
3, 56832, Note_on_c, 0, 60, 92
3, 57216, Note_off_c, 0, 60, 64
3, 57216, Note_on_c, 0, 48, 92
3, 57600, Note_off_c, 0, 48, 64
3, 57600, Note_on_c, 0, 53, 92
3, 57600, Note_on_c, 0, 57, 92
3, 57600, Note_on_c, 0, 60, 92
3, 59904, Note_off_c, 0, 60, 64
3, 59904, Note_off_c, 0, 57, 64
3, 59904, Note_off_c, 0, 53, 64
3, 60288, Note_on_c, 0, 46, 92
3, 60672, Note_off_c, 0, 46, 64
3, 60672, Note_on_c, 0, 50, 92
3, 61056, Note_off_c, 0, 50, 64
3, 61056, Note_on_c, 0, 53, 92
3, 61440, Note_off_c, 0, 53, 64
3, 61440, Note_on_c, 0, 58, 92
3, 61824, Note_off_c, 0, 58, 64
3, 61824, Note_on_c, 0, 46, 92
3, 62208, Note_off_c, 0, 46, 64
3, 62208, Note_on_c, 0, 58, 92
3, 62208, Note_on_c, 0, 55, 92
3, 62976, Note_off_c, 0, 58, 64
3, 63744, Note_on_c, 0, 60, 92
3, 64512, Note_off_c, 0, 55, 64
3, 64512, Note_on_c, 0, 57, 92
3, 65280, Note_off_c, 0, 57, 64
3, 65280, Note_off_c, 0, 60, 64
3, 66816, Note_on_c, 0, 55, 92
3, 66816, Note_on_c, 0, 58, 92
3, 67584, Note_off_c, 0, 58, 64
3, 67584, Note_off_c, 0, 55, 64
3, 69120, Note_on_c, 0, 50, 92
3, 69120, Note_on_c, 0, 57, 92
3, 69888, Note_off_c, 0, 57, 64
3, 69888, Note_off_c, 0, 50, 64
3, 71424, Note_on_c, 0, 50, 92
3, 71424, Note_on_c, 0, 55, 92
3, 72192, Note_off_c, 0, 55, 64
3, 72192, Note_off_c, 0, 50, 64
3, 73728, Note_on_c, 0, 55, 92
3, 75264, Note_off_c, 0, 55, 64
3, 75264, Note_on_c, 0, 54, 92
3, 76032, Note_off_c, 0, 54, 64
3, 76224, Note_on_c, 0, 55, 92
3, 76416, Note_off_c, 0, 55, 64
3, 76416, Note_on_c, 0, 54, 92
3, 76608, Note_off_c, 0, 54, 64
3, 76608, Note_on_c, 0, 55, 92
3, 76800, Note_off_c, 0, 55, 64
3, 76800, Note_on_c, 0, 50, 92
3, 76992, Note_off_c, 0, 50, 64
3, 76992, Note_on_c, 0, 55, 92
3, 77184, Note_off_c, 0, 55, 64
3, 77184, Note_on_c, 0, 54, 92
3, 77376, Note_off_c, 0, 54, 64
3, 77376, Note_on_c, 0, 55, 92
3, 77568, Note_off_c, 0, 55, 64
3, 77568, Note_on_c, 0, 46, 92
3, 77760, Note_off_c, 0, 46, 64
3, 77760, Note_on_c, 0, 50, 92
3, 77952, Note_off_c, 0, 50, 64
3, 77952, Note_on_c, 0, 48, 92
3, 78144, Note_off_c, 0, 48, 64
3, 78144, Note_on_c, 0, 50, 92
3, 78336, Note_off_c, 0, 50, 64
3, 78336, Note_on_c, 0, 43, 92
3, 79104, Note_off_c, 0, 43, 64
3, 79104, Note_on_c, 0, 55, 92
3, 80640, Note_off_c, 0, 55, 64
3, 80640, Note_on_c, 0, 58, 92
3, 81024, Note_off_c, 0, 58, 64
3, 81024, Note_on_c, 0, 60, 92
3, 81408, Note_off_c, 0, 60, 64
3, 81408, Note_on_c, 0, 57, 92
3, 82944, Note_off_c, 0, 57, 64
3, 82944, Note_on_c, 0, 58, 92
3, 85248, Note_off_c, 0, 58, 64
3, 99840, Note_on_c, 0, 62, 92
3, 100608, Note_off_c, 0, 62, 64
3, 100608, Note_on_c, 0, 63, 92
3, 100800, Note_off_c, 0, 63, 64
3, 100800, Note_on_c, 0, 62, 92
3, 100992, Note_off_c, 0, 62, 64
3, 100992, Note_on_c, 0, 63, 92
3, 101184, Note_off_c, 0, 63, 64
3, 101184, Note_on_c, 0, 60, 92
3, 101376, Note_off_c, 0, 60, 64
3, 101376, Note_on_c, 0, 62, 92
3, 101760, Note_off_c, 0, 62, 64
3, 101952, Note_on_c, 0, 55, 92
3, 102144, Note_off_c, 0, 55, 64
3, 102144, Note_on_c, 0, 57, 92
3, 102336, Note_off_c, 0, 57, 64
3, 102336, Note_on_c, 0, 57, 92
3, 102528, Note_off_c, 0, 57, 64
3, 102528, Note_on_c, 0, 62, 92
3, 102720, Note_off_c, 0, 62, 64
3, 102720, Note_on_c, 0, 60, 92
3, 102912, Note_off_c, 0, 60, 64
3, 102912, Note_on_c, 0, 58, 92
3, 103104, Note_off_c, 0, 58, 64
3, 103104, Note_on_c, 0, 55, 92
3, 103296, Note_off_c, 0, 55, 64
3, 103296, Note_on_c, 0, 62, 92
3, 103488, Note_off_c, 0, 62, 64
3, 103488, Note_on_c, 0, 62, 92
3, 103680, Note_off_c, 0, 62, 64
3, 103680, Note_on_c, 0, 58, 92
3, 103872, Note_off_c, 0, 58, 64
3, 103872, Note_on_c, 0, 55, 92
3, 104064, Note_off_c, 0, 55, 64
3, 104064, Note_on_c, 0, 63, 92
3, 104832, Note_off_c, 0, 63, 64
3, 104832, Note_on_c, 0, 62, 92
3, 105600, Note_off_c, 0, 62, 64
3, 105600, Note_on_c, 0, 60, 92
3, 106368, Note_off_c, 0, 60, 64
3, 106368, Note_on_c, 0, 58, 92
3, 106560, Note_off_c, 0, 58, 64
3, 106560, Note_on_c, 0, 57, 92
3, 106656, Note_off_c, 0, 57, 64
3, 106656, Note_on_c, 0, 55, 92
3, 106752, Note_off_c, 0, 55, 64
3, 106752, Note_on_c, 0, 57, 92
3, 107520, Note_off_c, 0, 57, 64
3, 107520, Note_on_c, 0, 58, 92
3, 107712, Note_off_c, 0, 58, 64
3, 107712, Note_on_c, 0, 60, 92
3, 107904, Note_off_c, 0, 60, 64
3, 107904, Note_on_c, 0, 62, 92
3, 108672, Note_off_c, 0, 62, 64
3, 108864, Note_on_c, 0, 67, 92
3, 109248, Note_off_c, 0, 67, 64
3, 109248, Note_on_c, 0, 65, 92
3, 109344, Note_off_c, 0, 65, 64
3, 109344, Note_on_c, 0, 64, 92
3, 109440, Note_off_c, 0, 64, 64
3, 109440, Note_on_c, 0, 65, 92
3, 109824, Note_off_c, 0, 65, 64
3, 109824, Note_on_c, 0, 64, 92
3, 110208, Note_off_c, 0, 64, 64
3, 110208, Note_on_c, 0, 64, 92
3, 110592, Note_off_c, 0, 64, 64
3, 110592, Note_on_c, 0, 65, 92
3, 110976, Note_off_c, 0, 65, 64
3, 111168, Note_on_c, 0, 64, 92
3, 111360, Note_off_c, 0, 64, 64
3, 111360, Note_on_c, 0, 65, 92
3, 111744, Note_off_c, 0, 65, 64
3, 111744, Note_on_c, 0, 62, 92
3, 112128, Note_off_c, 0, 62, 64
3, 112128, Note_on_c, 0, 64, 92
3, 112512, Note_off_c, 0, 64, 64
3, 112512, Note_on_c, 0, 65, 92
3, 112896, Note_off_c, 0, 65, 64
3, 112896, Note_on_c, 0, 62, 92
3, 113280, Note_off_c, 0, 62, 64
3, 113280, Note_on_c, 0, 64, 92
3, 113664, Note_off_c, 0, 64, 64
3, 113664, Note_on_c, 0, 61, 92
3, 114048, Note_off_c, 0, 61, 64
3, 114048, Note_on_c, 0, 62, 92
3, 114432, Note_off_c, 0, 62, 64
3, 114432, Note_on_c, 0, 59, 92
3, 114816, Note_off_c, 0, 59, 64
3, 114816, Note_on_c, 0, 55, 92
3, 115200, Note_off_c, 0, 55, 64
3, 115200, Note_on_c, 0, 57, 92
3, 115584, Note_off_c, 0, 57, 64
3, 115776, Note_on_c, 0, 57, 92
3, 115968, Note_off_c, 0, 57, 64
3, 115968, Note_on_c, 0, 58, 92
3, 116352, Note_off_c, 0, 58, 64
3, 116352, Note_on_c, 0, 57, 92
3, 116736, Note_off_c, 0, 57, 64
3, 116736, Note_on_c, 0, 57, 92
3, 117120, Note_off_c, 0, 57, 64
3, 117312, Note_on_c, 0, 62, 92
3, 117504, Note_off_c, 0, 62, 64
3, 117504, Note_on_c, 0, 60, 92
3, 117696, Note_off_c, 0, 60, 64
3, 117696, Note_on_c, 0, 60, 92
3, 117888, Note_off_c, 0, 60, 64
3, 117888, Note_on_c, 0, 60, 92
3, 118080, Note_off_c, 0, 60, 64
3, 118080, Note_on_c, 0, 62, 92
3, 118176, Note_off_c, 0, 62, 64
3, 118176, Note_on_c, 0, 60, 92
3, 118272, Note_off_c, 0, 60, 64
3, 118272, Note_on_c, 0, 58, 92
3, 118464, Note_off_c, 0, 58, 64
3, 118464, Note_on_c, 0, 58, 92
3, 118656, Note_off_c, 0, 58, 64
3, 118656, Note_on_c, 0, 58, 92
3, 118848, Note_off_c, 0, 58, 64
3, 118848, Note_on_c, 0, 60, 92
3, 118944, Note_off_c, 0, 60, 64
3, 118944, Note_on_c, 0, 58, 92
3, 119040, Note_off_c, 0, 58, 64
3, 119040, Note_on_c, 0, 57, 92
3, 119232, Note_off_c, 0, 57, 64
3, 119232, Note_on_c, 0, 57, 92
3, 119424, Note_off_c, 0, 57, 64
3, 119424, Note_on_c, 0, 57, 92
3, 119616, Note_off_c, 0, 57, 64
3, 119616, Note_on_c, 0, 58, 92
3, 119712, Note_off_c, 0, 58, 64
3, 119712, Note_on_c, 0, 57, 92
3, 119808, Note_off_c, 0, 57, 64
3, 119808, Note_on_c, 0, 55, 92
3, 120000, Note_off_c, 0, 55, 64
3, 120000, Note_on_c, 0, 55, 92
3, 120192, Note_off_c, 0, 55, 64
3, 120192, Note_on_c, 0, 55, 92
3, 120384, Note_off_c, 0, 55, 64
3, 120384, Note_on_c, 0, 57, 92
3, 120480, Note_off_c, 0, 57, 64
3, 120480, Note_on_c, 0, 55, 92
3, 120576, Note_off_c, 0, 55, 64
3, 120576, Note_on_c, 0, 53, 92
3, 120960, Note_off_c, 0, 53, 64
3, 120960, Note_on_c, 0, 46, 92
3, 121152, Note_off_c, 0, 46, 64
3, 121152, Note_on_c, 0, 50, 92
3, 121344, Note_off_c, 0, 50, 64
3, 121344, Note_on_c, 0, 51, 92
3, 121536, Note_off_c, 0, 51, 64
3, 121536, Note_on_c, 0, 48, 92
3, 121728, Note_off_c, 0, 48, 64
3, 121728, Note_on_c, 0, 53, 92
3, 121920, Note_off_c, 0, 53, 64
3, 121920, Note_on_c, 0, 41, 92
3, 122112, Note_off_c, 0, 41, 64
3, 122112, Note_on_c, 0, 46, 92
3, 122496, Note_off_c, 0, 46, 64
3, 122496, Note_on_c, 0, 58, 92
3, 123264, Note_off_c, 0, 58, 64
3, 123264, Note_on_c, 0, 57, 92
3, 123648, Note_on_c, 0, 58, 92
3, 124032, Note_off_c, 0, 57, 64
3, 124032, Note_on_c, 0, 55, 92
3, 124416, Note_off_c, 0, 58, 64
3, 124416, Note_on_c, 0, 57, 92
3, 124800, Note_off_c, 0, 55, 64
3, 124800, Note_on_c, 0, 54, 92
3, 125184, Note_off_c, 0, 54, 64
3, 125184, Note_off_c, 0, 57, 64
3, 125184, Note_on_c, 0, 55, 92
3, 125376, Note_on_c, 0, 57, 92
3, 125568, Note_off_c, 0, 57, 64
3, 125568, Note_off_c, 0, 55, 64
3, 125568, Note_on_c, 0, 58, 92
3, 125760, Note_off_c, 0, 58, 64
3, 125760, Note_on_c, 0, 60, 92
3, 125952, Note_off_c, 0, 60, 64
3, 125952, Note_on_c, 0, 62, 92
3, 126336, Note_off_c, 0, 62, 64
3, 126336, Note_on_c, 0, 57, 92
3, 126720, Note_off_c, 0, 57, 64
3, 126720, Note_on_c, 0, 55, 92
3, 127104, Note_off_c, 0, 55, 64
3, 127104, Note_on_c, 0, 57, 92
3, 127872, Note_off_c, 0, 57, 64
3, 128064, Note_on_c, 0, 62, 92
3, 128256, Note_off_c, 0, 62, 64
3, 128256, Note_on_c, 0, 60, 92
3, 128640, Note_off_c, 0, 60, 64
3, 128640, Note_on_c, 0, 62, 92
3, 129408, Note_off_c, 0, 62, 64
3, 129600, Note_on_c, 0, 62, 92
3, 129792, Note_off_c, 0, 62, 64
3, 129792, Note_on_c, 0, 62, 92
3, 130176, Note_off_c, 0, 62, 64
3, 130176, Note_on_c, 0, 55, 92
3, 130560, Note_off_c, 0, 55, 64
3, 130560, Note_on_c, 0, 60, 92
3, 130944, Note_off_c, 0, 60, 64
3, 130944, Note_on_c, 0, 53, 92
3, 131328, Note_off_c, 0, 53, 64
3, 131328, Note_on_c, 0, 58, 92
3, 131712, Note_off_c, 0, 58, 64
3, 131712, Note_on_c, 0, 51, 92
3, 132096, Note_off_c, 0, 51, 64
3, 132096, Note_on_c, 0, 57, 92
3, 132480, Note_off_c, 0, 57, 64
3, 132480, Note_on_c, 0, 55, 92
3, 132864, Note_off_c, 0, 55, 64
3, 132864, Note_on_c, 0, 57, 92
3, 133248, Note_off_c, 0, 57, 64
3, 133248, Note_on_c, 0, 48, 92
3, 133632, Note_off_c, 0, 48, 64
3, 133632, Note_on_c, 0, 50, 92
3, 133824, Note_off_c, 0, 50, 64
3, 133824, Note_on_c, 0, 53, 92
3, 134016, Note_off_c, 0, 53, 64
3, 134016, Note_on_c, 0, 51, 92
3, 134208, Note_off_c, 0, 51, 64
3, 134208, Note_on_c, 0, 52, 92
3, 134400, Note_off_c, 0, 52, 64
3, 134400, Note_on_c, 0, 53, 92
3, 134784, Note_off_c, 0, 53, 64
3, 134976, Note_on_c, 0, 58, 92
3, 135168, Note_off_c, 0, 58, 64
3, 135168, Note_on_c, 0, 51, 92
3, 135360, Note_off_c, 0, 51, 64
3, 135360, Note_on_c, 0, 53, 92
3, 135552, Note_off_c, 0, 53, 64
3, 135552, Note_on_c, 0, 55, 92
3, 135744, Note_off_c, 0, 55, 64
3, 135744, Note_on_c, 0, 56, 92
3, 135936, Note_on_c, 0, 47, 92
3, 136128, Note_off_c, 0, 56, 64
3, 136320, Note_on_c, 0, 55, 92
3, 136704, Note_off_c, 0, 47, 64
3, 136704, Note_on_c, 0, 48, 92
3, 137088, Note_off_c, 0, 48, 64
3, 137088, Note_off_c, 0, 55, 64
3, 137280, Note_on_c, 0, 47, 92
3, 137280, Note_on_c, 0, 55, 92
3, 137472, Note_off_c, 0, 55, 64
3, 137472, Note_off_c, 0, 47, 64
3, 137472, Note_on_c, 0, 48, 92
3, 137472, Note_on_c, 0, 55, 92
3, 137856, Note_off_c, 0, 55, 64
3, 137856, Note_off_c, 0, 48, 64
3, 138048, Note_on_c, 0, 60, 92
3, 138240, Note_off_c, 0, 60, 64
3, 138240, Note_on_c, 0, 58, 92
3, 138432, Note_off_c, 0, 58, 64
3, 138432, Note_on_c, 0, 58, 92
3, 138624, Note_off_c, 0, 58, 64
3, 138624, Note_on_c, 0, 58, 92
3, 138816, Note_off_c, 0, 58, 64
3, 138816, Note_on_c, 0, 60, 92
3, 138912, Note_off_c, 0, 60, 64
3, 138912, Note_on_c, 0, 58, 92
3, 139008, Note_off_c, 0, 58, 64
3, 139008, Note_on_c, 0, 56, 92
3, 139200, Note_off_c, 0, 56, 64
3, 139200, Note_on_c, 0, 56, 92
3, 139392, Note_off_c, 0, 56, 64
3, 139392, Note_on_c, 0, 56, 92
3, 139584, Note_off_c, 0, 56, 64
3, 139584, Note_on_c, 0, 58, 92
3, 139680, Note_off_c, 0, 58, 64
3, 139680, Note_on_c, 0, 56, 92
3, 139776, Note_off_c, 0, 56, 64
3, 139776, Note_on_c, 0, 55, 92
3, 140160, Note_off_c, 0, 55, 64
3, 140352, Note_on_c, 0, 48, 92
3, 140544, Note_off_c, 0, 48, 64
3, 140544, Note_on_c, 0, 53, 92
3, 140736, Note_off_c, 0, 53, 64
3, 140736, Note_on_c, 0, 50, 92
3, 140928, Note_off_c, 0, 50, 64
3, 140928, Note_on_c, 0, 55, 92
3, 141120, Note_off_c, 0, 55, 64
3, 141120, Note_on_c, 0, 43, 92
3, 141312, Note_off_c, 0, 43, 64
3, 141312, Note_on_c, 0, 48, 92
3, 141696, Note_off_c, 0, 48, 64
3, 141888, Note_on_c, 0, 60, 92
3, 142272, Note_off_c, 0, 60, 64
3, 142272, Note_on_c, 0, 60, 92
3, 142464, Note_off_c, 0, 60, 64
3, 142464, Note_on_c, 0, 60, 92
3, 142656, Note_off_c, 0, 60, 64
3, 142656, Note_on_c, 0, 62, 92
3, 142752, Note_off_c, 0, 62, 64
3, 142752, Note_on_c, 0, 60, 92
3, 142848, Note_off_c, 0, 60, 64
3, 142848, Note_on_c, 0, 58, 92
3, 143040, Note_off_c, 0, 58, 64
3, 143040, Note_on_c, 0, 57, 92
3, 143232, Note_off_c, 0, 57, 64
3, 143232, Note_on_c, 0, 58, 92
3, 143424, Note_off_c, 0, 58, 64
3, 143424, Note_on_c, 0, 55, 92
3, 143616, Note_off_c, 0, 55, 64
3, 143616, Note_on_c, 0, 60, 92
3, 144000, Note_off_c, 0, 60, 64
3, 144192, Note_on_c, 0, 53, 92
3, 144384, Note_off_c, 0, 53, 64
3, 144384, Note_on_c, 0, 58, 92
3, 144576, Note_off_c, 0, 58, 64
3, 144576, Note_on_c, 0, 57, 92
3, 144768, Note_off_c, 0, 57, 64
3, 144768, Note_on_c, 0, 58, 92
3, 145152, Note_off_c, 0, 58, 64
3, 145152, Note_on_c, 0, 60, 92
3, 145536, Note_off_c, 0, 60, 64
3, 145536, Note_on_c, 0, 57, 92
3, 145920, Note_off_c, 0, 57, 64
3, 145920, Note_on_c, 0, 58, 92
3, 146304, Note_off_c, 0, 58, 64
3, 146496, Note_on_c, 0, 57, 92
3, 146688, Note_off_c, 0, 57, 64
3, 146688, Note_on_c, 0, 58, 92
3, 147072, Note_off_c, 0, 58, 64
3, 147264, Note_on_c, 0, 58, 92
3, 147456, Note_off_c, 0, 58, 64
3, 147456, Note_on_c, 0, 60, 92
3, 147648, Note_off_c, 0, 60, 64
3, 147648, Note_on_c, 0, 60, 92
3, 147840, Note_off_c, 0, 60, 64
3, 147840, Note_on_c, 0, 57, 92
3, 148224, Note_off_c, 0, 57, 64
3, 148224, Note_on_c, 0, 58, 92
3, 148416, Note_off_c, 0, 58, 64
3, 148416, Note_on_c, 0, 58, 92
3, 148608, Note_off_c, 0, 58, 64
3, 148608, Note_on_c, 0, 55, 92
3, 148992, Note_off_c, 0, 55, 64
3, 148992, Note_on_c, 0, 57, 92
3, 149376, Note_off_c, 0, 57, 64
3, 149568, Note_on_c, 0, 62, 92
3, 149760, Note_off_c, 0, 62, 64
3, 149760, Note_on_c, 0, 60, 92
3, 149952, Note_off_c, 0, 60, 64
3, 149952, Note_on_c, 0, 60, 92
3, 150144, Note_off_c, 0, 60, 64
3, 150144, Note_on_c, 0, 60, 92
3, 150336, Note_off_c, 0, 60, 64
3, 150336, Note_on_c, 0, 62, 92
3, 150432, Note_off_c, 0, 62, 64
3, 150432, Note_on_c, 0, 60, 92
3, 150528, Note_off_c, 0, 60, 64
3, 150528, Note_on_c, 0, 58, 92
3, 150720, Note_off_c, 0, 58, 64
3, 150720, Note_on_c, 0, 58, 92
3, 150912, Note_off_c, 0, 58, 64
3, 150912, Note_on_c, 0, 58, 92
3, 151104, Note_off_c, 0, 58, 64
3, 151104, Note_on_c, 0, 60, 92
3, 151200, Note_off_c, 0, 60, 64
3, 151200, Note_on_c, 0, 58, 92
3, 151296, Note_off_c, 0, 58, 64
3, 151296, Note_on_c, 0, 57, 92
3, 151680, Note_off_c, 0, 57, 64
3, 151680, Note_on_c, 0, 62, 92
3, 152064, Note_off_c, 0, 62, 64
3, 152064, Note_on_c, 0, 55, 92
3, 152256, Note_off_c, 0, 55, 64
3, 152256, Note_on_c, 0, 57, 92
3, 152448, Note_off_c, 0, 57, 64
3, 152448, Note_on_c, 0, 58, 92
3, 152640, Note_off_c, 0, 58, 64
3, 152640, Note_on_c, 0, 57, 92
3, 152736, Note_off_c, 0, 57, 64
3, 152736, Note_on_c, 0, 55, 92
3, 152832, Note_off_c, 0, 55, 64
3, 152832, Note_on_c, 0, 57, 92
3, 153216, Note_off_c, 0, 57, 64
3, 153216, Note_on_c, 0, 50, 92
3, 153600, Note_off_c, 0, 50, 64
3, 153600, Note_on_c, 0, 51, 92
3, 153792, Note_off_c, 0, 51, 64
3, 153792, Note_on_c, 0, 51, 92
3, 153984, Note_off_c, 0, 51, 64
3, 153984, Note_on_c, 0, 51, 92
3, 154176, Note_off_c, 0, 51, 64
3, 154176, Note_on_c, 0, 53, 92
3, 154272, Note_off_c, 0, 53, 64
3, 154272, Note_on_c, 0, 51, 92
3, 154368, Note_off_c, 0, 51, 64
3, 154368, Note_on_c, 0, 50, 92
3, 154752, Note_on_c, 0, 59, 92
3, 154944, Note_off_c, 0, 59, 64
3, 154944, Note_on_c, 0, 57, 92
3, 155136, Note_off_c, 0, 57, 64
3, 155136, Note_on_c, 0, 59, 92
3, 156672, Note_off_c, 0, 59, 64
3, 156672, Note_off_c, 0, 50, 64
3, 156672, End_track
4, 0, Start_track
4, 0, Title_t, "Track 3"
4, 0, Note_on_c, 0, 43, 102
4, 2304, Note_off_c, 0, 43, 64
4, 2304, Note_on_c, 0, 48, 102
4, 4608, Note_off_c, 0, 48, 64
4, 4608, Note_on_c, 0, 41, 102
4, 6912, Note_off_c, 0, 41, 64
4, 6912, Note_on_c, 0, 46, 102
4, 9216, Note_off_c, 0, 46, 64
4, 9216, Note_on_c, 0, 51, 102
4, 11520, Note_off_c, 0, 51, 64
4, 11520, Note_on_c, 0, 50, 102
4, 13824, Note_off_c, 0, 50, 64
4, 13824, Note_on_c, 0, 43, 102
4, 16128, Note_off_c, 0, 43, 64
4, 16128, Note_on_c, 0, 50, 102
4, 18432, Note_off_c, 0, 50, 64
4, 18432, Note_on_c, 0, 47, 102
4, 20736, Note_off_c, 0, 47, 64
4, 20736, Note_on_c, 0, 48, 102
4, 23040, Note_off_c, 0, 48, 64
4, 23040, Note_on_c, 0, 53, 102
4, 25344, Note_off_c, 0, 53, 64
4, 25344, Note_on_c, 0, 46, 102
4, 27648, Note_off_c, 0, 46, 64
4, 27648, Note_on_c, 0, 51, 102
4, 30720, Note_off_c, 0, 51, 64
4, 32256, Note_on_c, 0, 50, 102
4, 33024, Note_off_c, 0, 50, 64
4, 34560, Note_on_c, 0, 51, 102
4, 35328, Note_off_c, 0, 51, 64
4, 35328, Note_on_c, 0, 53, 102
4, 36096, Note_off_c, 0, 53, 64
4, 36096, Note_on_c, 0, 41, 102
4, 36864, Note_off_c, 0, 41, 64
4, 36864, Note_on_c, 0, 46, 102
4, 39168, Note_off_c, 0, 46, 64
4, 39168, Note_on_c, 0, 45, 102
4, 41472, Note_off_c, 0, 45, 64
4, 41472, Note_on_c, 0, 43, 102
4, 42240, Note_off_c, 0, 43, 64
4, 43776, Note_on_c, 0, 43, 102
4, 44544, Note_off_c, 0, 43, 64
4, 46080, Note_on_c, 0, 41, 102
4, 46848, Note_off_c, 0, 41, 64
4, 48384, Note_on_c, 0, 43, 102
4, 49152, Note_off_c, 0, 43, 64
4, 49152, Note_on_c, 0, 45, 102
4, 50688, Note_off_c, 0, 45, 64
4, 50688, Note_on_c, 0, 50, 102
4, 52992, Note_off_c, 0, 50, 64
4, 52992, Note_on_c, 0, 46, 102
4, 55296, Note_off_c, 0, 46, 64
4, 55296, Note_on_c, 0, 48, 102
4, 57600, Note_off_c, 0, 48, 64
4, 57600, Note_on_c, 0, 41, 102
4, 59904, Note_off_c, 0, 41, 64
4, 59904, Note_on_c, 0, 46, 102
4, 62208, Note_off_c, 0, 46, 64
4, 62208, Note_on_c, 0, 51, 102
4, 64512, Note_off_c, 0, 51, 64
4, 64512, Note_on_c, 0, 50, 102
4, 65280, Note_off_c, 0, 50, 64
4, 66816, Note_on_c, 0, 50, 102
4, 67584, Note_off_c, 0, 50, 64
4, 69120, Note_on_c, 0, 48, 102
4, 69888, Note_off_c, 0, 48, 64
4, 71424, Note_on_c, 0, 46, 102
4, 72192, Note_off_c, 0, 46, 64
4, 73728, Note_on_c, 0, 48, 102
4, 74496, Note_off_c, 0, 48, 64
4, 74496, Note_on_c, 0, 50, 102
4, 75264, Note_off_c, 0, 50, 64
4, 75264, Note_on_c, 0, 38, 102
4, 76032, Note_off_c, 0, 38, 64
4, 76032, Note_on_c, 0, 43, 102
4, 78336, Note_off_c, 0, 43, 64
4, 79104, Note_on_c, 0, 52, 102
4, 80640, Note_off_c, 0, 52, 64
4, 80640, Note_on_c, 0, 50, 102
4, 82944, Note_off_c, 0, 50, 64
4, 82944, Note_on_c, 0, 43, 102
4, 85248, Note_off_c, 0, 43, 64
4, 107520, Note_on_c, 0, 55, 102
4, 108288, Note_off_c, 0, 55, 64
4, 108288, Note_on_c, 0, 58, 102
4, 108480, Note_off_c, 0, 58, 64
4, 108480, Note_on_c, 0, 57, 102
4, 108672, Note_off_c, 0, 57, 64
4, 108672, Note_on_c, 0, 58, 102
4, 108864, Note_off_c, 0, 58, 64
4, 108864, Note_on_c, 0, 55, 102
4, 109056, Note_off_c, 0, 55, 64
4, 109056, Note_on_c, 0, 57, 102
4, 109440, Note_off_c, 0, 57, 64
4, 109632, Note_on_c, 0, 50, 102
4, 109824, Note_off_c, 0, 50, 64
4, 109824, Note_on_c, 0, 52, 102
4, 110016, Note_off_c, 0, 52, 64
4, 110016, Note_on_c, 0, 52, 102
4, 110208, Note_off_c, 0, 52, 64
4, 110208, Note_on_c, 0, 57, 102
4, 110400, Note_off_c, 0, 57, 64
4, 110400, Note_on_c, 0, 55, 102
4, 110592, Note_off_c, 0, 55, 64
4, 110592, Note_on_c, 0, 53, 102
4, 110784, Note_off_c, 0, 53, 64
4, 110784, Note_on_c, 0, 50, 102
4, 110976, Note_off_c, 0, 50, 64
4, 110976, Note_on_c, 0, 57, 102
4, 111168, Note_off_c, 0, 57, 64
4, 111168, Note_on_c, 0, 57, 102
4, 111360, Note_off_c, 0, 57, 64
4, 111360, Note_on_c, 0, 53, 102
4, 111552, Note_off_c, 0, 53, 64
4, 111552, Note_on_c, 0, 50, 102
4, 111744, Note_off_c, 0, 50, 64
4, 111744, Note_on_c, 0, 58, 102
4, 112512, Note_off_c, 0, 58, 64
4, 112512, Note_on_c, 0, 57, 102
4, 113280, Note_off_c, 0, 57, 64
4, 113280, Note_on_c, 0, 55, 102
4, 114048, Note_off_c, 0, 55, 64
4, 114048, Note_on_c, 0, 53, 102
4, 114432, Note_off_c, 0, 53, 64
4, 114432, Note_on_c, 0, 52, 102
4, 115200, Note_off_c, 0, 52, 64
4, 115200, Note_on_c, 0, 50, 102
4, 115584, Note_off_c, 0, 50, 64
4, 115776, Note_on_c, 0, 50, 102
4, 115968, Note_off_c, 0, 50, 64
4, 115968, Note_on_c, 0, 55, 102
4, 116160, Note_off_c, 0, 55, 64
4, 116160, Note_on_c, 0, 52, 102
4, 116352, Note_off_c, 0, 52, 64
4, 116352, Note_on_c, 0, 57, 102
4, 116544, Note_off_c, 0, 57, 64
4, 116544, Note_on_c, 0, 45, 102
4, 116736, Note_off_c, 0, 45, 64
4, 116736, Note_on_c, 0, 50, 102
4, 117120, Note_off_c, 0, 50, 64
4, 125952, Note_on_c, 0, 50, 102
4, 126720, Note_off_c, 0, 50, 64
4, 126720, Note_on_c, 0, 51, 102
4, 126912, Note_off_c, 0, 51, 64
4, 126912, Note_on_c, 0, 50, 102
4, 127104, Note_off_c, 0, 50, 64
4, 127104, Note_on_c, 0, 51, 102
4, 127296, Note_off_c, 0, 51, 64
4, 127296, Note_on_c, 0, 48, 102
4, 127488, Note_off_c, 0, 48, 64
4, 127488, Note_on_c, 0, 50, 102
4, 127872, Note_off_c, 0, 50, 64
4, 128064, Note_on_c, 0, 43, 102
4, 128256, Note_off_c, 0, 43, 64
4, 128256, Note_on_c, 0, 45, 102
4, 128448, Note_off_c, 0, 45, 64
4, 128448, Note_on_c, 0, 45, 102
4, 128640, Note_off_c, 0, 45, 64
4, 128640, Note_on_c, 0, 50, 102
4, 128832, Note_off_c, 0, 50, 64
4, 128832, Note_on_c, 0, 48, 102
4, 129024, Note_off_c, 0, 48, 64
4, 129024, Note_on_c, 0, 46, 102
4, 129216, Note_off_c, 0, 46, 64
4, 129216, Note_on_c, 0, 43, 102
4, 129408, Note_off_c, 0, 43, 64
4, 129408, Note_on_c, 0, 50, 102
4, 129600, Note_off_c, 0, 50, 64
4, 129600, Note_on_c, 0, 50, 102
4, 129792, Note_off_c, 0, 50, 64
4, 129792, Note_on_c, 0, 46, 102
4, 129984, Note_off_c, 0, 46, 64
4, 129984, Note_on_c, 0, 43, 102
4, 130176, Note_off_c, 0, 43, 64
4, 130176, Note_on_c, 0, 51, 102
4, 130944, Note_off_c, 0, 51, 64
4, 130944, Note_on_c, 0, 50, 102
4, 131712, Note_off_c, 0, 50, 64
4, 131712, Note_on_c, 0, 48, 102
4, 132480, Note_off_c, 0, 48, 64
4, 132480, Note_on_c, 0, 46, 102
4, 132864, Note_off_c, 0, 46, 64
4, 132864, Note_on_c, 0, 45, 102
4, 133632, Note_off_c, 0, 45, 64
4, 133632, Note_on_c, 0, 43, 102
4, 134016, Note_off_c, 0, 43, 64
4, 144768, Note_on_c, 0, 55, 102
4, 145536, Note_off_c, 0, 55, 64
4, 145536, Note_on_c, 0, 54, 102
4, 145920, Note_off_c, 0, 54, 64
4, 145920, Note_on_c, 0, 55, 102
4, 146304, Note_off_c, 0, 55, 64
4, 146496, Note_on_c, 0, 54, 102
4, 146688, Note_off_c, 0, 54, 64
4, 146688, Note_on_c, 0, 55, 102
4, 147072, Note_off_c, 0, 55, 64
4, 147264, Note_on_c, 0, 55, 102
4, 147456, Note_off_c, 0, 55, 64
4, 147456, Note_on_c, 0, 53, 102
4, 147648, Note_off_c, 0, 53, 64
4, 147648, Note_on_c, 0, 53, 102
4, 147840, Note_off_c, 0, 53, 64
4, 147840, Note_on_c, 0, 53, 102
4, 148032, Note_off_c, 0, 53, 64
4, 148032, Note_on_c, 0, 55, 102
4, 148128, Note_off_c, 0, 55, 64
4, 148128, Note_on_c, 0, 53, 102
4, 148224, Note_off_c, 0, 53, 64
4, 148224, Note_on_c, 0, 51, 102
4, 148416, Note_off_c, 0, 51, 64
4, 148416, Note_on_c, 0, 51, 102
4, 148608, Note_off_c, 0, 51, 64
4, 148608, Note_on_c, 0, 51, 102
4, 148800, Note_off_c, 0, 51, 64
4, 148800, Note_on_c, 0, 53, 102
4, 148896, Note_off_c, 0, 53, 64
4, 148896, Note_on_c, 0, 51, 102
4, 148992, Note_off_c, 0, 51, 64
4, 148992, Note_on_c, 0, 50, 102
4, 149376, Note_off_c, 0, 50, 64
4, 149760, Note_on_c, 0, 50, 102
4, 153600, Note_off_c, 0, 50, 64
4, 153600, Note_on_c, 0, 43, 102
4, 156672, Note_off_c, 0, 43, 64
4, 156672, End_track
0, 0, End_of_file
