0, 0, Header, 1, 8, 1024
1, 0, Start_track
1, 0, Time_signature, 4, 2, 24, 8
1, 0, Key_signature, 1, "major"
1, 0, Tempo, 625000
1, 44032, End_track
2, 0, Start_track
2, 0, Title_t, "Instrument 1"
2, 3072, Note_on_c, 0, 67, 96
2, 4096, Note_off_c, 0, 67, 0
2, 4096, Note_on_c, 0, 74, 96
2, 5120, Note_off_c, 0, 74, 0
2, 5120, Note_on_c, 0, 74, 96
2, 6144, Note_off_c, 0, 74, 0
2, 6144, Note_on_c, 0, 74, 96
2, 7168, Note_off_c, 0, 74, 0
2, 7168, Note_on_c, 0, 74, 96
2, 8192, Note_off_c, 0, 74, 0
2, 8192, Note_on_c, 0, 76, 96
2, 9216, Note_off_c, 0, 76, 0
2, 9216, Note_on_c, 0, 74, 96
2, 9728, Note_off_c, 0, 74, 0
2, 9728, Note_on_c, 0, 72, 96
2, 10240, Note_off_c, 0, 72, 0
2, 10240, Note_on_c, 0, 71, 96
2, 11264, Note_off_c, 0, 71, 0
2, 11264, Note_on_c, 0, 69, 96
2, 12288, Note_off_c, 0, 69, 0
2, 12288, Note_on_c, 0, 71, 96
2, 12800, Note_off_c, 0, 71, 0
2, 12800, Note_on_c, 0, 73, 96
2, 13312, Note_off_c, 0, 73, 0
2, 13312, Note_on_c, 0, 74, 96
2, 14336, Note_off_c, 0, 74, 0
2, 14336, Note_on_c, 0, 76, 96
2, 15360, Note_off_c, 0, 76, 0
2, 15360, Note_on_c, 0, 76, 96
2, 16384, Note_off_c, 0, 76, 0
2, 16384, Note_on_c, 0, 74, 96
2, 19456, Note_off_c, 0, 74, 0
2, 19456, Note_on_c, 0, 74, 96
2, 20480, Note_off_c, 0, 74, 0
2, 20480, Note_on_c, 0, 74, 96
2, 21504, Note_off_c, 0, 74, 0
2, 21504, Note_on_c, 0, 74, 96
2, 22528, Note_off_c, 0, 74, 0
2, 22528, Note_on_c, 0, 74, 96
2, 23040, Note_off_c, 0, 74, 0
2, 23040, Note_on_c, 0, 72, 96
2, 23552, Note_off_c, 0, 72, 0
2, 23552, Note_on_c, 0, 71, 96
2, 24064, Note_off_c, 0, 71, 0
2, 24064, Note_on_c, 0, 72, 96
2, 24576, Note_off_c, 0, 72, 0
2, 24576, Note_on_c, 0, 74, 96
2, 25600, Note_off_c, 0, 74, 0
2, 25600, Note_on_c, 0, 72, 96
2, 26112, Note_off_c, 0, 72, 0
2, 26112, Note_on_c, 0, 71, 96
2, 26624, Note_off_c, 0, 71, 0
2, 26624, Note_on_c, 0, 69, 96
2, 27648, Note_off_c, 0, 69, 0
2, 27648, Note_on_c, 0, 74, 96
2, 28672, Note_off_c, 0, 74, 0
2, 28672, Note_on_c, 0, 72, 96
2, 29696, Note_off_c, 0, 72, 0
2, 29696, Note_on_c, 0, 71, 96
2, 30720, Note_off_c, 0, 71, 0
2, 30720, Note_on_c, 0, 69, 96
2, 31744, Note_off_c, 0, 69, 0
2, 31744, Note_on_c, 0, 69, 96
2, 32000, Note_off_c, 0, 69, 0
2, 32000, Note_on_c, 0, 67, 96
2, 32256, Note_off_c, 0, 67, 0
2, 32256, Note_on_c, 0, 69, 96
2, 32768, Note_off_c, 0, 69, 0
2, 32768, Note_on_c, 0, 67, 96
2, 33280, Note_off_c, 0, 67, 0
2, 33280, Note_on_c, 0, 69, 96
2, 33792, Note_off_c, 0, 69, 0
2, 33792, Note_on_c, 0, 71, 96
2, 34304, Note_off_c, 0, 71, 0
2, 34304, Note_on_c, 0, 72, 96
2, 34816, Note_off_c, 0, 72, 0
2, 34816, Note_on_c, 0, 74, 96
2, 35840, Note_off_c, 0, 74, 0
2, 35840, Note_on_c, 0, 74, 96
2, 36864, Note_off_c, 0, 74, 0
2, 36864, Note_on_c, 0, 72, 96
2, 37888, Note_off_c, 0, 72, 0
2, 37888, Note_on_c, 0, 71, 96
2, 38912, Note_off_c, 0, 71, 0
2, 38912, Note_on_c, 0, 69, 96
2, 39424, Note_off_c, 0, 69, 0
2, 39424, Note_on_c, 0, 71, 96
2, 39680, Note_off_c, 0, 71, 0
2, 39680, Note_on_c, 0, 72, 96
2, 39936, Note_off_c, 0, 72, 0
2, 39936, Note_on_c, 0, 69, 96
2, 40960, Note_off_c, 0, 69, 0
2, 40960, Note_on_c, 0, 67, 96
2, 44032, Note_off_c, 0, 67, 0
2, 44032, End_track
3, 0, Start_track
3, 0, Title_t, "Instrument 2"
3, 5120, Note_on_c, 1, 66, 96
3, 6144, Note_off_c, 1, 66, 0
3, 6144, Note_on_c, 1, 67, 96
3, 7680, Note_off_c, 1, 67, 0
3, 7680, Note_on_c, 1, 65, 96
3, 8192, Note_off_c, 1, 65, 0
3, 8192, Note_on_c, 1, 64, 96
3, 8704, Note_off_c, 1, 64, 0
3, 8704, Note_on_c, 1, 64, 96
3, 9216, Note_off_c, 1, 64, 0
3, 9216, Note_on_c, 1, 66, 96
3, 9472, Note_off_c, 1, 66, 0
3, 9472, Note_on_c, 1, 64, 96
3, 9728, Note_off_c, 1, 64, 0
3, 9728, Note_on_c, 1, 66, 96
3, 10240, Note_off_c, 1, 66, 0
3, 10240, Note_on_c, 1, 67, 96
3, 11264, Note_off_c, 1, 67, 0
3, 11264, Note_on_c, 1, 69, 96
3, 11776, Note_off_c, 1, 69, 0
3, 11776, Note_on_c, 1, 66, 96
3, 12288, Note_off_c, 1, 66, 0
3, 12288, Note_on_c, 1, 67, 96
3, 13824, Note_off_c, 1, 67, 0
3, 13824, Note_on_c, 1, 66, 96
3, 14336, Note_off_c, 1, 66, 0
3, 14336, Note_on_c, 1, 67, 96
3, 14848, Note_off_c, 1, 67, 0
3, 14848, Note_on_c, 1, 71, 96
3, 15360, Note_off_c, 1, 71, 0
3, 15360, Note_on_c, 1, 69, 96
3, 15872, Note_off_c, 1, 69, 0
3, 15872, Note_on_c, 1, 67, 96
3, 16384, Note_off_c, 1, 67, 0
3, 16384, Note_on_c, 1, 66, 96
3, 19456, Note_off_c, 1, 66, 0
3, 19456, Note_on_c, 1, 69, 96
3, 20480, Note_off_c, 1, 69, 0
3, 20480, Note_on_c, 1, 71, 96
3, 21504, Note_off_c, 1, 71, 0
3, 21504, Note_on_c, 1, 69, 96
3, 22528, Note_off_c, 1, 69, 0
3, 22528, Note_on_c, 1, 67, 96
3, 23040, Note_off_c, 1, 67, 0
3, 23040, Note_on_c, 1, 69, 96
3, 23552, Note_off_c, 1, 69, 0
3, 23552, Note_on_c, 1, 71, 96
3, 24064, Note_off_c, 1, 71, 0
3, 24064, Note_on_c, 1, 69, 96
3, 24576, Note_off_c, 1, 69, 0
3, 24576, Note_on_c, 1, 67, 96
3, 25600, Note_off_c, 1, 67, 0
3, 25600, Note_on_c, 1, 67, 96
3, 25856, Note_off_c, 1, 67, 0
3, 25856, Note_on_c, 1, 66, 96
3, 26112, Note_off_c, 1, 66, 0
3, 26112, Note_on_c, 1, 67, 96
3, 26624, Note_off_c, 1, 67, 0
3, 26624, Note_on_c, 1, 66, 96
3, 27648, Note_off_c, 1, 66, 0
3, 27648, Note_on_c, 1, 66, 96
3, 28672, Note_off_c, 1, 66, 0
3, 28672, Note_on_c, 1, 67, 96
3, 29184, Note_off_c, 1, 67, 0
3, 29184, Note_on_c, 1, 62, 96
3, 29696, Note_off_c, 1, 62, 0
3, 29696, Note_on_c, 1, 62, 96
3, 30208, Note_off_c, 1, 62, 0
3, 30208, Note_on_c, 1, 67, 96
3, 30720, Note_off_c, 1, 67, 0
3, 30720, Note_on_c, 1, 64, 96
3, 30976, Note_off_c, 1, 64, 0
3, 30976, Note_on_c, 1, 63, 96
3, 31232, Note_off_c, 1, 63, 0
3, 31232, Note_on_c, 1, 64, 96
3, 31744, Note_off_c, 1, 64, 0
3, 31744, Note_on_c, 1, 66, 96
3, 32256, Note_off_c, 1, 66, 0
3, 32256, Note_on_c, 1, 62, 96
3, 32768, Note_off_c, 1, 62, 0
3, 32768, Note_on_c, 1, 59, 96
3, 33280, Note_off_c, 1, 59, 0
3, 33280, Note_on_c, 1, 60, 96
3, 33792, Note_off_c, 1, 60, 0
3, 33792, Note_on_c, 1, 62, 96
3, 34304, Note_off_c, 1, 62, 0
3, 34304, Note_on_c, 1, 55, 96
3, 34816, Note_off_c, 1, 55, 0
3, 34816, Note_on_c, 1, 67, 96
3, 35840, Note_off_c, 1, 67, 0
3, 35840, Note_on_c, 1, 66, 96
3, 36352, Note_off_c, 1, 66, 0
3, 36352, Note_on_c, 1, 67, 96
3, 36864, Note_off_c, 1, 67, 0
3, 36864, Note_on_c, 1, 67, 96
3, 37376, Note_off_c, 1, 67, 0
3, 37376, Note_on_c, 1, 62, 96
3, 37888, Note_off_c, 1, 62, 0
3, 37888, Note_on_c, 1, 62, 96
3, 38400, Note_off_c, 1, 62, 0
3, 38400, Note_on_c, 1, 64, 96
3, 38912, Note_off_c, 1, 64, 0
3, 38912, Note_on_c, 1, 64, 96
3, 39936, Note_off_c, 1, 64, 0
3, 39936, Note_on_c, 1, 62, 96
3, 40960, Note_off_c, 1, 62, 0
3, 40960, Note_on_c, 1, 62, 96
3, 44032, Note_off_c, 1, 62, 0
3, 44032, End_track
4, 0, Start_track
4, 0, Title_t, "Instrument 3"
4, 5120, Note_on_c, 2, 57, 96
4, 6144, Note_off_c, 2, 57, 0
4, 6144, Note_on_c, 2, 59, 96
4, 6656, Note_off_c, 2, 59, 0
4, 6656, Note_on_c, 2, 60, 96
4, 7168, Note_off_c, 2, 60, 0
4, 7168, Note_on_c, 2, 62, 96
4, 8704, Note_off_c, 2, 62, 0
4, 8704, Note_on_c, 2, 60, 96
4, 9216, Note_off_c, 2, 60, 0
4, 9216, Note_on_c, 2, 59, 96
4, 9728, Note_off_c, 2, 59, 0
4, 9728, Note_on_c, 2, 57, 96
4, 10240, Note_off_c, 2, 57, 0
4, 10240, Note_on_c, 2, 55, 96
4, 11264, Note_off_c, 2, 55, 0
4, 11264, Note_on_c, 2, 62, 96
4, 11776, Note_off_c, 2, 62, 0
4, 11776, Note_on_c, 2, 60, 96
4, 12288, Note_off_c, 2, 60, 0
4, 12288, Note_on_c, 2, 59, 96
4, 12800, Note_off_c, 2, 59, 0
4, 12800, Note_on_c, 2, 57, 96
4, 13312, Note_off_c, 2, 57, 0
4, 13312, Note_on_c, 2, 62, 96
4, 13824, Note_off_c, 2, 62, 0
4, 13824, Note_on_c, 2, 66, 96
4, 14336, Note_off_c, 2, 66, 0
4, 14336, Note_on_c, 2, 59, 96
4, 14848, Note_off_c, 2, 59, 0
4, 14848, Note_on_c, 2, 64, 96
4, 15360, Note_off_c, 2, 64, 0
4, 15360, Note_on_c, 2, 61, 96
4, 16384, Note_off_c, 2, 61, 0
4, 16384, Note_on_c, 2, 62, 96
4, 19456, Note_off_c, 2, 62, 0
4, 19456, Note_on_c, 2, 66, 96
4, 20480, Note_off_c, 2, 66, 0
4, 20480, Note_on_c, 2, 67, 96
4, 21504, Note_off_c, 2, 67, 0
4, 21504, Note_on_c, 2, 62, 96
4, 22528, Note_off_c, 2, 62, 0
4, 22528, Note_on_c, 2, 59, 96
4, 23040, Note_off_c, 2, 59, 0
4, 23040, Note_on_c, 2, 60, 96
4, 23552, Note_off_c, 2, 60, 0
4, 23552, Note_on_c, 2, 62, 96
4, 24576, Note_off_c, 2, 62, 0
4, 24576, Note_on_c, 2, 62, 96
4, 25088, Note_off_c, 2, 62, 0
4, 25088, Note_on_c, 2, 59, 96
4, 25600, Note_off_c, 2, 59, 0
4, 25600, Note_on_c, 2, 64, 96
4, 26624, Note_off_c, 2, 64, 0
4, 26624, Note_on_c, 2, 57, 96
4, 27648, Note_off_c, 2, 57, 0
4, 27648, Note_on_c, 2, 59, 96
4, 28672, Note_off_c, 2, 59, 0
4, 28672, Note_on_c, 2, 59, 96
4, 29184, Note_off_c, 2, 59, 0
4, 29184, Note_on_c, 2, 57, 96
4, 29696, Note_off_c, 2, 57, 0
4, 29696, Note_on_c, 2, 59, 96
4, 30208, Note_off_c, 2, 59, 0
4, 30208, Note_on_c, 2, 64, 96
4, 30720, Note_off_c, 2, 64, 0
4, 30720, Note_on_c, 2, 61, 96
4, 30976, Note_off_c, 2, 61, 0
4, 30976, Note_on_c, 2, 59, 96
4, 31232, Note_off_c, 2, 59, 0
4, 31232, Note_on_c, 2, 61, 96
4, 31744, Note_off_c, 2, 61, 0
4, 31744, Note_on_c, 2, 63, 96
4, 32256, Note_off_c, 2, 63, 0
4, 32256, Note_on_c, 2, 66, 96
4, 32768, Note_off_c, 2, 66, 0
4, 32768, Note_on_c, 2, 64, 96
4, 33792, Note_off_c, 2, 64, 0
4, 33792, Note_on_c, 2, 65, 96
4, 34304, Note_off_c, 2, 65, 0
4, 34304, Note_on_c, 2, 64, 96
4, 34816, Note_off_c, 2, 64, 0
4, 34816, Note_on_c, 2, 62, 96
4, 35840, Note_off_c, 2, 62, 0
4, 35840, Note_on_c, 2, 62, 96
4, 36352, Note_off_c, 2, 62, 0
4, 36352, Note_on_c, 2, 59, 96
4, 36864, Note_off_c, 2, 59, 0
4, 36864, Note_on_c, 2, 55, 96
4, 37376, Note_off_c, 2, 55, 0
4, 37376, Note_on_c, 2, 57, 96
4, 37888, Note_off_c, 2, 57, 0
4, 37888, Note_on_c, 2, 59, 96
4, 38912, Note_off_c, 2, 59, 0
4, 38912, Note_on_c, 2, 52, 96
4, 39424, Note_off_c, 2, 52, 0
4, 39424, Note_on_c, 2, 57, 96
4, 39936, Note_off_c, 2, 57, 0
4, 39936, Note_on_c, 2, 54, 96
4, 40960, Note_off_c, 2, 54, 0
4, 40960, Note_on_c, 2, 59, 96
4, 44032, Note_off_c, 2, 59, 0
4, 44032, End_track
5, 0, Start_track
5, 0, Title_t, "Instrument 4"
5, 5120, Note_on_c, 3, 50, 96
5, 6144, Note_off_c, 3, 50, 0
5, 6144, Note_on_c, 3, 55, 96
5, 6656, Note_off_c, 3, 55, 0
5, 6656, Note_on_c, 3, 57, 96
5, 7168, Note_off_c, 3, 57, 0
5, 7168, Note_on_c, 3, 59, 96
5, 7680, Note_off_c, 3, 59, 0
5, 7680, Note_on_c, 3, 55, 96
5, 8192, Note_off_c, 3, 55, 0
5, 8192, Note_on_c, 3, 60, 96
5, 8704, Note_off_c, 3, 60, 0
5, 8704, Note_on_c, 3, 57, 96
5, 9216, Note_off_c, 3, 57, 0
5, 9216, Note_on_c, 3, 62, 96
5, 9728, Note_off_c, 3, 62, 0
5, 9728, Note_on_c, 3, 50, 96
5, 10240, Note_off_c, 3, 50, 0
5, 10240, Note_on_c, 3, 55, 96
5, 11264, Note_off_c, 3, 55, 0
5, 11264, Note_on_c, 3, 54, 96
5, 11776, Note_off_c, 3, 54, 0
5, 11776, Note_on_c, 3, 50, 96
5, 12288, Note_off_c, 3, 50, 0
5, 12288, Note_on_c, 3, 55, 96
5, 12800, Note_off_c, 3, 55, 0
5, 12800, Note_on_c, 3, 57, 96
5, 13312, Note_off_c, 3, 57, 0
5, 13312, Note_on_c, 3, 59, 96
5, 13824, Note_off_c, 3, 59, 0
5, 13824, Note_on_c, 3, 57, 96
5, 14336, Note_off_c, 3, 57, 0
5, 14336, Note_on_c, 3, 55, 96
5, 14848, Note_off_c, 3, 55, 0
5, 14848, Note_on_c, 3, 52, 96
5, 15360, Note_off_c, 3, 52, 0
5, 15360, Note_on_c, 3, 57, 96
5, 15872, Note_off_c, 3, 57, 0
5, 15872, Note_on_c, 3, 45, 96
5, 16384, Note_off_c, 3, 45, 0
5, 16384, Note_on_c, 3, 50, 96
5, 19456, Note_off_c, 3, 50, 0
5, 19456, Note_on_c, 3, 62, 96
5, 19968, Note_off_c, 3, 62, 0
5, 19968, Note_on_c, 3, 60, 96
5, 20480, Note_off_c, 3, 60, 0
5, 20480, Note_on_c, 3, 59, 96
5, 20992, Note_off_c, 3, 59, 0
5, 20992, Note_on_c, 3, 57, 96
5, 21504, Note_off_c, 3, 57, 0
5, 21504, Note_on_c, 3, 55, 96
5, 22016, Note_off_c, 3, 55, 0
5, 22016, Note_on_c, 3, 54, 96
5, 22528, Note_off_c, 3, 54, 0
5, 22528, Note_on_c, 3, 55, 96
5, 24064, Note_off_c, 3, 55, 0
5, 24064, Note_on_c, 3, 57, 96
5, 24576, Note_off_c, 3, 57, 0
5, 24576, Note_on_c, 3, 59, 96
5, 25088, Note_off_c, 3, 59, 0
5, 25088, Note_on_c, 3, 55, 96
5, 25600, Note_off_c, 3, 55, 0
5, 25600, Note_on_c, 3, 52, 96
5, 26112, Note_off_c, 3, 52, 0
5, 26112, Note_on_c, 3, 48, 96
5, 26624, Note_off_c, 3, 48, 0
5, 26624, Note_on_c, 3, 50, 96
5, 27648, Note_off_c, 3, 50, 0
5, 27648, Note_on_c, 3, 47, 96
5, 28672, Note_off_c, 3, 47, 0
5, 28672, Note_on_c, 3, 52, 96
5, 29184, Note_off_c, 3, 52, 0
5, 29184, Note_on_c, 3, 54, 96
5, 29696, Note_off_c, 3, 54, 0
5, 29696, Note_on_c, 3, 55, 96
5, 31744, Note_off_c, 3, 55, 0
5, 31744, Note_on_c, 3, 54, 96
5, 32256, Note_off_c, 3, 54, 0
5, 32256, Note_on_c, 3, 59, 96
5, 32768, Note_off_c, 3, 59, 0
5, 32768, Note_on_c, 3, 52, 96
5, 33280, Note_off_c, 3, 52, 0
5, 33280, Note_on_c, 3, 64, 96
5, 33792, Note_off_c, 3, 64, 0
5, 33792, Note_on_c, 3, 62, 96
5, 34304, Note_off_c, 3, 62, 0
5, 34304, Note_on_c, 3, 60, 96
5, 34816, Note_off_c, 3, 60, 0
5, 34816, Note_on_c, 3, 59, 96
5, 35840, Note_off_c, 3, 59, 0
5, 35840, Note_on_c, 3, 59, 96
5, 36352, Note_off_c, 3, 59, 0
5, 36352, Note_on_c, 3, 55, 96
5, 36864, Note_off_c, 3, 55, 0
5, 36864, Note_on_c, 3, 52, 96
5, 37376, Note_off_c, 3, 52, 0
5, 37376, Note_on_c, 3, 54, 96
5, 37888, Note_off_c, 3, 54, 0
5, 37888, Note_on_c, 3, 55, 96
5, 38400, Note_off_c, 3, 55, 0
5, 38400, Note_on_c, 3, 52, 96
5, 38912, Note_off_c, 3, 52, 0
5, 38912, Note_on_c, 3, 48, 96
5, 39424, Note_off_c, 3, 48, 0
5, 39424, Note_on_c, 3, 45, 96
5, 39936, Note_off_c, 3, 45, 0
5, 39936, Note_on_c, 3, 50, 96
5, 40960, Note_off_c, 3, 50, 0
5, 40960, Note_on_c, 3, 43, 96
5, 44032, Note_off_c, 3, 43, 0
5, 44032, End_track
6, 0, Start_track
6, 0, Title_t, "Instrument 5"
6, 5120, Note_on_c, 4, 38, 96
6, 6144, Note_off_c, 4, 38, 0
6, 6144, Note_on_c, 4, 43, 96
6, 6656, Note_off_c, 4, 43, 0
6, 6656, Note_on_c, 4, 45, 96
6, 7168, Note_off_c, 4, 45, 0
6, 7168, Note_on_c, 4, 47, 96
6, 7680, Note_off_c, 4, 47, 0
6, 7680, Note_on_c, 4, 43, 96
6, 8192, Note_off_c, 4, 43, 0
6, 8192, Note_on_c, 4, 48, 96
6, 8704, Note_off_c, 4, 48, 0
6, 8704, Note_on_c, 4, 45, 96
6, 9216, Note_off_c, 4, 45, 0
6, 9216, Note_on_c, 4, 50, 96
6, 9728, Note_off_c, 4, 50, 0
6, 9728, Note_on_c, 4, 38, 96
6, 10240, Note_off_c, 4, 38, 0
6, 10240, Note_on_c, 4, 43, 96
6, 11264, Note_off_c, 4, 43, 0
6, 11264, Note_on_c, 4, 54, 96
6, 11776, Note_off_c, 4, 54, 0
6, 11776, Note_on_c, 4, 50, 96
6, 12288, Note_off_c, 4, 50, 0
6, 12288, Note_on_c, 4, 55, 96
6, 12800, Note_off_c, 4, 55, 0
6, 12800, Note_on_c, 4, 57, 96
6, 13312, Note_off_c, 4, 57, 0
6, 13312, Note_on_c, 4, 59, 96
6, 13824, Note_off_c, 4, 59, 0
6, 13824, Note_on_c, 4, 57, 96
6, 14336, Note_off_c, 4, 57, 0
6, 14336, Note_on_c, 4, 55, 96
6, 14848, Note_off_c, 4, 55, 0
6, 14848, Note_on_c, 4, 52, 96
6, 15360, Note_off_c, 4, 52, 0
6, 15360, Note_on_c, 4, 57, 96
6, 15872, Note_off_c, 4, 57, 0
6, 15872, Note_on_c, 4, 45, 96
6, 16384, Note_off_c, 4, 45, 0
6, 16384, Note_on_c, 4, 50, 96
6, 19456, Note_off_c, 4, 50, 0
6, 19456, Note_on_c, 4, 62, 96
6, 19968, Note_off_c, 4, 62, 0
6, 19968, Note_on_c, 4, 60, 96
6, 20480, Note_off_c, 4, 60, 0
6, 20480, Note_on_c, 4, 59, 96
6, 20992, Note_off_c, 4, 59, 0
6, 20992, Note_on_c, 4, 57, 96
6, 21504, Note_off_c, 4, 57, 0
6, 21504, Note_on_c, 4, 55, 96
6, 22016, Note_off_c, 4, 55, 0
6, 22016, Note_on_c, 4, 54, 96
6, 22528, Note_off_c, 4, 54, 0
6, 22528, Note_on_c, 4, 55, 96
6, 23552, Note_off_c, 4, 55, 0
6, 23552, Note_on_c, 4, 43, 96
6, 24064, Note_off_c, 4, 43, 0
6, 24064, Note_on_c, 4, 45, 96
6, 24576, Note_off_c, 4, 45, 0
6, 24576, Note_on_c, 4, 47, 96
6, 25088, Note_off_c, 4, 47, 0
6, 25088, Note_on_c, 4, 43, 96
6, 25600, Note_off_c, 4, 43, 0
6, 25600, Note_on_c, 4, 52, 96
6, 26112, Note_off_c, 4, 52, 0
6, 26112, Note_on_c, 4, 48, 96
6, 26624, Note_off_c, 4, 48, 0
6, 26624, Note_on_c, 4, 50, 96
6, 27648, Note_off_c, 4, 50, 0
6, 27648, Note_on_c, 4, 47, 96
6, 28672, Note_off_c, 4, 47, 0
6, 28672, Note_on_c, 4, 52, 96
6, 29184, Note_off_c, 4, 52, 0
6, 29184, Note_on_c, 4, 54, 96
6, 29696, Note_off_c, 4, 54, 0
6, 29696, Note_on_c, 4, 55, 96
6, 31744, Note_off_c, 4, 55, 0
6, 31744, Note_on_c, 4, 54, 96
6, 32256, Note_off_c, 4, 54, 0
6, 32256, Note_on_c, 4, 47, 96
6, 32768, Note_off_c, 4, 47, 0
6, 32768, Note_on_c, 4, 52, 96
6, 33792, Note_off_c, 4, 52, 0
6, 33792, Note_on_c, 4, 50, 96
6, 34304, Note_off_c, 4, 50, 0
6, 34304, Note_on_c, 4, 48, 96
6, 34816, Note_off_c, 4, 48, 0
6, 34816, Note_on_c, 4, 47, 96
6, 35840, Note_off_c, 4, 47, 0
6, 35840, Note_on_c, 4, 59, 96
6, 36352, Note_off_c, 4, 59, 0
6, 36352, Note_on_c, 4, 55, 96
6, 36864, Note_off_c, 4, 55, 0
6, 36864, Note_on_c, 4, 52, 96
6, 37376, Note_off_c, 4, 52, 0
6, 37376, Note_on_c, 4, 54, 96
6, 37888, Note_off_c, 4, 54, 0
6, 37888, Note_on_c, 4, 55, 96
6, 38400, Note_off_c, 4, 55, 0
6, 38400, Note_on_c, 4, 52, 96
6, 38912, Note_off_c, 4, 52, 0
6, 38912, Note_on_c, 4, 48, 96
6, 39424, Note_off_c, 4, 48, 0
6, 39424, Note_on_c, 4, 45, 96
6, 39936, Note_off_c, 4, 45, 0
6, 39936, Note_on_c, 4, 50, 96
6, 40448, Note_off_c, 4, 50, 0
6, 40448, Note_on_c, 4, 38, 96
6, 40960, Note_off_c, 4, 38, 0
6, 40960, Note_on_c, 4, 43, 96
6, 44032, Note_off_c, 4, 43, 0
6, 44032, End_track
7, 0, Start_track
7, 0, Title_t, "Instrument 6"
7, 3072, Note_on_c, 5, 67, 96
7, 4096, Note_off_c, 5, 67, 0
7, 4096, Note_on_c, 5, 74, 96
7, 5120, Note_off_c, 5, 74, 0
7, 5120, Note_on_c, 5, 74, 96
7, 5120, Note_on_c, 5, 69, 96
7, 5632, Note_off_c, 5, 69, 0
7, 5632, Note_on_c, 5, 71, 96
7, 5888, Note_off_c, 5, 71, 0
7, 5888, Note_on_c, 5, 72, 96
7, 6144, Note_off_c, 5, 74, 0
7, 6144, Note_on_c, 5, 74, 96
7, 6144, Note_off_c, 5, 72, 0
7, 6144, Note_on_c, 5, 71, 96
7, 6656, Note_off_c, 5, 71, 0
7, 6656, Note_on_c, 5, 69, 96
7, 7168, Note_off_c, 5, 74, 0
7, 7168, Note_on_c, 5, 74, 96
7, 7168, Note_off_c, 5, 69, 0
7, 7168, Note_on_c, 5, 67, 96
7, 8192, Note_off_c, 5, 74, 0
7, 8192, Note_on_c, 5, 76, 96
7, 9216, Note_off_c, 5, 76, 0
7, 9216, Note_on_c, 5, 74, 96
7, 9216, Note_off_c, 5, 67, 0
7, 9216, Note_on_c, 5, 62, 96
7, 9472, Note_off_c, 5, 62, 0
7, 9472, Note_on_c, 5, 59, 96
7, 9728, Note_off_c, 5, 74, 0
7, 9728, Note_on_c, 5, 72, 96
7, 9728, Note_off_c, 5, 59, 0
7, 9728, Note_on_c, 5, 62, 96
7, 10240, Note_off_c, 5, 72, 0
7, 10240, Note_on_c, 5, 71, 96
7, 10240, Note_off_c, 5, 62, 0
7, 10240, Note_on_c, 5, 62, 96
7, 11264, Note_off_c, 5, 71, 0
7, 11264, Note_on_c, 5, 69, 96
7, 11264, Note_off_c, 5, 62, 0
7, 11264, Note_on_c, 5, 62, 96
7, 12288, Note_off_c, 5, 69, 0
7, 12288, Note_off_c, 5, 62, 0
7, 12288, Note_on_c, 5, 71, 96
7, 12288, Note_on_c, 5, 62, 96
7, 12800, Note_off_c, 5, 71, 0
7, 12800, Note_on_c, 5, 73, 96
7, 12800, Note_off_c, 5, 62, 0
7, 12800, Note_on_c, 5, 69, 96
7, 13312, Note_off_c, 5, 73, 0
7, 13312, Note_on_c, 5, 74, 96
7, 13312, Note_off_c, 5, 69, 0
7, 13824, Note_on_c, 5, 69, 96
7, 14336, Note_off_c, 5, 74, 0
7, 14336, Note_on_c, 5, 74, 96
7, 14336, Note_off_c, 5, 69, 0
7, 14336, Note_on_c, 5, 71, 96
7, 14848, Note_off_c, 5, 71, 0
7, 14848, Note_on_c, 5, 67, 96
7, 15360, Note_off_c, 5, 74, 0
7, 15360, Note_on_c, 5, 73, 96
7, 15360, Note_off_c, 5, 67, 0
7, 15360, Note_on_c, 5, 69, 96
7, 16384, Note_off_c, 5, 73, 0
7, 16384, Note_off_c, 5, 69, 0
7, 16384, Note_on_c, 5, 74, 96
7, 16384, Note_on_c, 5, 69, 96
7, 19456, Note_off_c, 5, 74, 0
7, 19456, Note_on_c, 5, 74, 96
7, 19456, Note_off_c, 5, 69, 0
7, 19456, Note_on_c, 5, 69, 96
7, 20480, Note_off_c, 5, 74, 0
7, 20480, Note_off_c, 5, 69, 0
7, 20480, Note_on_c, 5, 74, 96
7, 20480, Note_on_c, 5, 67, 96
7, 21504, Note_off_c, 5, 74, 0
7, 21504, Note_on_c, 5, 74, 96
7, 21504, Note_off_c, 5, 67, 0
7, 21504, Note_on_c, 5, 69, 96
7, 22528, Note_off_c, 5, 74, 0
7, 22528, Note_on_c, 5, 74, 96
7, 22528, Note_off_c, 5, 69, 0
7, 22528, Note_on_c, 5, 71, 96
7, 23040, Note_off_c, 5, 74, 0
7, 23040, Note_on_c, 5, 72, 96
7, 23040, Note_off_c, 5, 71, 0
7, 23040, Note_on_c, 5, 69, 96
7, 23552, Note_off_c, 5, 72, 0
7, 23552, Note_on_c, 5, 71, 96
7, 23552, Note_off_c, 5, 69, 0
7, 23552, Note_on_c, 5, 67, 96
7, 24064, Note_off_c, 5, 71, 0
7, 24064, Note_on_c, 5, 72, 96
7, 24576, Note_off_c, 5, 72, 0
7, 24576, Note_on_c, 5, 74, 96
7, 25088, Note_off_c, 5, 67, 0
7, 25088, Note_on_c, 5, 62, 96
7, 25600, Note_off_c, 5, 74, 0
7, 25600, Note_on_c, 5, 72, 96
7, 25600, Note_off_c, 5, 62, 0
7, 25600, Note_on_c, 5, 55, 96
7, 26112, Note_off_c, 5, 72, 0
7, 26112, Note_on_c, 5, 71, 96
7, 26112, Note_off_c, 5, 55, 0
7, 26112, Note_on_c, 5, 67, 96
7, 26624, Note_off_c, 5, 71, 0
7, 26624, Note_on_c, 5, 69, 96
7, 26624, Note_off_c, 5, 67, 0
7, 26624, Note_on_c, 5, 62, 96
7, 27648, Note_off_c, 5, 69, 0
7, 27648, Note_on_c, 5, 74, 96
7, 27648, Note_off_c, 5, 62, 0
7, 28672, Note_off_c, 5, 74, 0
7, 28672, Note_on_c, 5, 72, 96
7, 29696, Note_off_c, 5, 72, 0
7, 29696, Note_on_c, 5, 71, 96
7, 30720, Note_off_c, 5, 71, 0
7, 30720, Note_on_c, 5, 69, 96
7, 31744, Note_off_c, 5, 69, 0
7, 31744, Note_on_c, 5, 69, 96
7, 32000, Note_off_c, 5, 69, 0
7, 32000, Note_on_c, 5, 67, 96
7, 32256, Note_off_c, 5, 67, 0
7, 32256, Note_on_c, 5, 69, 96
7, 32256, Note_on_c, 5, 59, 96
7, 32768, Note_off_c, 5, 69, 0
7, 32768, Note_off_c, 5, 59, 0
7, 32768, Note_on_c, 5, 67, 96
7, 32768, Note_on_c, 5, 59, 96
7, 33280, Note_off_c, 5, 67, 0
7, 33280, Note_on_c, 5, 69, 96
7, 33792, Note_off_c, 5, 69, 0
7, 33792, Note_on_c, 5, 71, 96
7, 33792, Note_off_c, 5, 59, 0
7, 34304, Note_off_c, 5, 71, 0
7, 34304, Note_on_c, 5, 72, 96
7, 34816, Note_off_c, 5, 72, 0
7, 34816, Note_on_c, 5, 74, 96
7, 35840, Note_off_c, 5, 74, 0
7, 35840, Note_on_c, 5, 74, 96
7, 35840, Note_on_c, 5, 71, 96
7, 36864, Note_off_c, 5, 74, 0
7, 36864, Note_on_c, 5, 72, 96
7, 37376, Note_off_c, 5, 71, 0
7, 37376, Note_on_c, 5, 69, 96
7, 37888, Note_off_c, 5, 72, 0
7, 37888, Note_on_c, 5, 71, 96
7, 38400, Note_off_c, 5, 69, 0
7, 38400, Note_on_c, 5, 67, 96
7, 38912, Note_off_c, 5, 71, 0
7, 38912, Note_on_c, 5, 69, 96
7, 38912, Note_off_c, 5, 67, 0
7, 38912, Note_on_c, 5, 67, 96
7, 39168, Note_off_c, 5, 67, 0
7, 39168, Note_on_c, 5, 66, 96
7, 39424, Note_off_c, 5, 69, 0
7, 39424, Note_on_c, 5, 71, 96
7, 39424, Note_off_c, 5, 66, 0
7, 39424, Note_on_c, 5, 67, 96
7, 39680, Note_off_c, 5, 71, 0
7, 39680, Note_on_c, 5, 72, 96
7, 39680, Note_off_c, 5, 67, 0
7, 39680, Note_on_c, 5, 69, 96
7, 39936, Note_off_c, 5, 72, 0
7, 39936, Note_on_c, 5, 69, 96
7, 39936, Note_off_c, 5, 69, 0
7, 39936, Note_on_c, 5, 62, 96
7, 40192, Note_off_c, 5, 62, 0
7, 40192, Note_on_c, 5, 59, 96
7, 40448, Note_off_c, 5, 59, 0
7, 40448, Note_on_c, 5, 60, 96
7, 40960, Note_off_c, 5, 69, 0
7, 40960, Note_off_c, 5, 60, 0
7, 40960, Note_on_c, 5, 67, 96
7, 40960, Note_on_c, 5, 59, 96
7, 44032, Note_off_c, 5, 67, 0
7, 44032, Note_off_c, 5, 59, 0
7, 44032, End_track
8, 0, Start_track
8, 0, Title_t, "Instrument 7"
8, 5120, Note_on_c, 6, 50, 96
8, 6144, Note_off_c, 6, 50, 0
8, 6144, Note_on_c, 6, 43, 96
8, 7168, Note_off_c, 6, 43, 0
8, 9216, Note_on_c, 6, 50, 96
8, 10240, Note_off_c, 6, 50, 0
8, 10240, Note_on_c, 6, 43, 96
8, 11264, Note_off_c, 6, 43, 0
8, 11264, Note_on_c, 6, 50, 96
8, 12288, Note_off_c, 6, 50, 0
8, 12288, Note_on_c, 6, 43, 96
8, 12800, Note_off_c, 6, 43, 0
8, 16384, Note_on_c, 6, 50, 96
8, 19456, Note_off_c, 6, 50, 0
8, 19456, Note_on_c, 6, 50, 96
8, 20480, Note_off_c, 6, 50, 0
8, 20480, Note_on_c, 6, 43, 96
8, 21504, Note_off_c, 6, 43, 0
8, 21504, Note_on_c, 6, 50, 96
8, 22528, Note_off_c, 6, 50, 0
8, 22528, Note_on_c, 6, 43, 96
8, 23552, Note_off_c, 6, 43, 0
8, 25600, Note_on_c, 6, 43, 96
8, 26624, Note_off_c, 6, 43, 0
8, 26624, Note_on_c, 6, 50, 96
8, 27648, Note_off_c, 6, 50, 0
8, 36352, Note_on_c, 6, 50, 96
8, 36864, Note_off_c, 6, 50, 0
8, 36864, Note_on_c, 6, 43, 96
8, 37376, Note_off_c, 6, 43, 0
8, 37376, Note_on_c, 6, 50, 96
8, 37888, Note_off_c, 6, 50, 0
8, 37888, Note_on_c, 6, 43, 96
8, 38400, Note_off_c, 6, 43, 0
8, 39936, Note_on_c, 6, 50, 96
8, 40448, Note_off_c, 6, 50, 0
8, 40448, Note_on_c, 6, 50, 96
8, 40704, Note_off_c, 6, 50, 0
8, 40704, Note_on_c, 6, 50, 96
8, 40960, Note_off_c, 6, 50, 0
8, 40960, Note_on_c, 6, 43, 96
8, 44032, Note_off_c, 6, 43, 0
8, 44032, End_track
0, 0, End_of_file
