0, 0, Header, 0, 1, 512
1, 0, Start_track
1, 0, Title_t, "DENEME"
1, 0, Tempo, 500000
1, 0, Time_signature, 4, 2, 24, 8
1, 0, Program_c, 0, 19
1, 0, Control_c, 0, 7, 90
1, 0, Control_c, 0, 7, 90
1, 0, Program_c, 0, 48
1, 0, Control_c, 0, 7, 90
1, 0, Program_c, 0, 52
1, 0, Program_c, 0, 52
1, 0, Program_c, 0, 52
1, 0, Program_c, 0, 48
1, 0, Control_c, 0, 7, 90
1, 0, Program_c, 0, 48
1, 0, Control_c, 0, 7, 90
1, 0, Program_c, 0, 48
1, 0, Control_c, 0, 7, 90
1, 0, Program_c, 0, 73
1, 0, Control_c, 0, 7, 90
1, 1024, Note_on_c, 0, 62, 40
1, 1024, Note_on_c, 0, 66, 40
1, 1024, Note_on_c, 0, 66, 64
1, 1024, Note_on_c, 0, 71, 40
1, 1280, Note_off_c, 0, 66, 64
1, 1280, Note_on_c, 0, 62, 64
1, 1536, Note_off_c, 0, 62, 64
1, 1536, Note_on_c, 0, 50, 64
1, 1536, Note_on_c, 0, 50, 30
1, 1536, Note_on_c, 0, 59, 64
1, 1536, Note_on_c, 0, 59, 30
1, 1536, Note_on_c, 0, 66, 30
1, 1536, Note_on_c, 0, 71, 30
1, 1792, Note_off_c, 0, 62, 64
1, 1792, Note_on_c, 0, 59, 40
1, 1869, Note_off_c, 0, 50, 64
1, 1958, Note_off_c, 0, 59, 64
1, 2048, Note_off_c, 0, 50, 64
1, 2048, Note_off_c, 0, 59, 64
1, 2048, Note_off_c, 0, 59, 64
1, 2048, Note_off_c, 0, 66, 64
1, 2048, Note_off_c, 0, 71, 64
1, 2048, Note_on_c, 0, 50, 64
1, 2048, Note_on_c, 0, 59, 64
1, 2048, Note_on_c, 0, 62, 40
1, 2304, Note_off_c, 0, 62, 64
1, 2304, Note_on_c, 0, 59, 40
1, 2381, Note_off_c, 0, 50, 64
1, 2470, Note_off_c, 0, 59, 64
1, 2560, Note_off_c, 0, 59, 64
1, 2560, Note_on_c, 0, 50, 64
1, 2560, Note_on_c, 0, 59, 64
1, 2560, Note_on_c, 0, 59, 64
1, 2560, Note_on_c, 0, 62, 40
1, 2816, Note_off_c, 0, 59, 64
1, 2816, Note_off_c, 0, 62, 64
1, 2816, Note_on_c, 0, 55, 64
1, 2816, Note_on_c, 0, 59, 40
1, 2893, Note_off_c, 0, 50, 64
1, 2982, Note_off_c, 0, 59, 64
1, 3072, Note_off_c, 0, 66, 64
1, 3072, Note_off_c, 0, 59, 64
1, 3072, Note_off_c, 0, 55, 64
1, 3072, Note_on_c, 0, 52, 64
1, 3072, Note_on_c, 0, 52, 64
1, 3072, Note_on_c, 0, 52, 30
1, 3072, Note_on_c, 0, 62, 40
1, 3072, Note_on_c, 0, 64, 30
1, 3072, Note_on_c, 0, 67, 40
1, 3072, Note_on_c, 0, 67, 64
1, 3072, Note_on_c, 0, 67, 30
1, 3072, Note_on_c, 0, 71, 30
1, 3328, Note_off_c, 0, 62, 64
1, 3328, Note_on_c, 0, 59, 40
1, 3405, Note_off_c, 0, 52, 64
1, 3494, Note_off_c, 0, 59, 64
1, 3584, Note_off_c, 0, 52, 64
1, 3584, Note_off_c, 0, 52, 64
1, 3584, Note_off_c, 0, 64, 64
1, 3584, Note_off_c, 0, 67, 64
1, 3584, Note_off_c, 0, 71, 64
1, 3584, Note_on_c, 0, 52, 64
1, 3584, Note_on_c, 0, 52, 64
1, 3584, Note_on_c, 0, 62, 40
1, 3840, Note_off_c, 0, 62, 64
1, 3840, Note_on_c, 0, 59, 40
1, 3917, Note_off_c, 0, 52, 64
1, 4006, Note_off_c, 0, 59, 64
1, 4096, Note_off_c, 0, 52, 64
1, 4096, Note_on_c, 0, 52, 64
1, 4096, Note_on_c, 0, 52, 64
1, 4096, Note_on_c, 0, 62, 40
1, 4352, Note_off_c, 0, 62, 64
1, 4352, Note_on_c, 0, 59, 40
1, 4429, Note_off_c, 0, 52, 64
1, 4518, Note_off_c, 0, 59, 64
1, 4608, Note_off_c, 0, 67, 64
1, 4608, Note_off_c, 0, 52, 64
1, 4608, Note_on_c, 0, 45, 64
1, 4608, Note_on_c, 0, 45, 30
1, 4608, Note_on_c, 0, 57, 30
1, 4608, Note_on_c, 0, 60, 40
1, 4608, Note_on_c, 0, 60, 64
1, 4608, Note_on_c, 0, 60, 30
1, 4608, Note_on_c, 0, 64, 40
1, 4608, Note_on_c, 0, 64, 30
1, 4608, Note_on_c, 0, 67, 30
1, 4864, Note_off_c, 0, 60, 64
1, 4864, Note_on_c, 0, 59, 40
1, 4941, Note_off_c, 0, 45, 64
1, 5030, Note_off_c, 0, 59, 64
1, 5120, Note_off_c, 0, 71, 64
1, 5120, Note_off_c, 0, 67, 64
1, 5120, Note_off_c, 0, 45, 64
1, 5120, Note_off_c, 0, 67, 64
1, 5120, Note_on_c, 0, 45, 64
1, 5120, Note_on_c, 0, 60, 40
1, 5120, Note_on_c, 0, 66, 64
1, 5120, Note_on_c, 0, 66, 30
1, 5120, Note_on_c, 0, 69, 40
1, 5376, Note_off_c, 0, 60, 64
1, 5376, Note_on_c, 0, 59, 40
1, 5453, Note_off_c, 0, 45, 64
1, 5542, Note_off_c, 0, 59, 64
1, 5632, Note_off_c, 0, 64, 64
1, 5632, Note_off_c, 0, 66, 64
1, 5632, Note_off_c, 0, 66, 64
1, 5632, Note_off_c, 0, 69, 64
1, 5632, Note_on_c, 0, 45, 64
1, 5632, Note_on_c, 0, 60, 40
1, 5632, Note_on_c, 0, 64, 64
1, 5632, Note_on_c, 0, 67, 40
1, 5632, Note_on_c, 0, 69, 40
1, 5888, Note_off_c, 0, 60, 64
1, 5888, Note_on_c, 0, 57, 40
1, 5965, Note_off_c, 0, 45, 64
1, 6054, Note_off_c, 0, 57, 64
1, 6144, Note_off_c, 0, 57, 64
1, 6144, Note_off_c, 0, 60, 64
1, 6144, Note_off_c, 0, 64, 64
1, 6144, Note_off_c, 0, 64, 64
1, 6144, Note_off_c, 0, 67, 64
1, 6144, Note_on_c, 0, 47, 64
1, 6144, Note_on_c, 0, 47, 30
1, 6144, Note_on_c, 0, 60, 30
1, 6144, Note_on_c, 0, 63, 64
1, 6144, Note_on_c, 0, 63, 30
1, 6144, Note_on_c, 0, 66, 40
1, 6144, Note_on_c, 0, 66, 40
1, 6400, Note_off_c, 0, 66, 64
1, 6400, Note_on_c, 0, 59, 40
1, 6477, Note_off_c, 0, 47, 64
1, 6566, Note_off_c, 0, 59, 64
1, 6656, Note_off_c, 0, 60, 64
1, 6656, Note_off_c, 0, 69, 64
1, 6656, Note_off_c, 0, 47, 64
1, 6656, Note_off_c, 0, 60, 64
1, 6656, Note_on_c, 0, 47, 64
1, 6656, Note_on_c, 0, 59, 64
1, 6656, Note_on_c, 0, 59, 30
1, 6656, Note_on_c, 0, 63, 40
1, 6656, Note_on_c, 0, 67, 40
1, 6912, Note_off_c, 0, 63, 64
1, 6912, Note_on_c, 0, 59, 40
1, 6989, Note_off_c, 0, 47, 64
1, 7078, Note_off_c, 0, 59, 64
1, 7168, Note_off_c, 0, 63, 64
1, 7168, Note_off_c, 0, 63, 64
1, 7168, Note_off_c, 0, 66, 64
1, 7168, Note_off_c, 0, 59, 64
1, 7168, Note_off_c, 0, 59, 64
1, 7168, Note_off_c, 0, 67, 64
1, 7168, Note_on_c, 0, 47, 64
1, 7168, Note_on_c, 0, 57, 64
1, 7168, Note_on_c, 0, 63, 64
1, 7168, Note_on_c, 0, 66, 40
1, 7168, Note_on_c, 0, 66, 40
1, 7168, Note_on_c, 0, 71, 40
1, 7424, Note_off_c, 0, 66, 64
1, 7424, Note_on_c, 0, 59, 40
1, 7501, Note_off_c, 0, 47, 64
1, 7590, Note_off_c, 0, 59, 64
1, 7680, Note_off_c, 0, 57, 64
1, 7680, Note_off_c, 0, 63, 64
1, 7680, Note_off_c, 0, 66, 64
1, 7680, Note_on_c, 0, 41, 64
1, 7680, Note_on_c, 0, 41, 30
1, 7680, Note_on_c, 0, 53, 30
1, 7680, Note_on_c, 0, 56, 64
1, 7680, Note_on_c, 0, 56, 30
1, 7680, Note_on_c, 0, 59, 30
1, 7680, Note_on_c, 0, 62, 30
1, 7680, Note_on_c, 0, 68, 40
1, 7680, Note_on_c, 0, 71, 40
1, 7936, Note_off_c, 0, 71, 64
1, 7936, Note_off_c, 0, 68, 64
1, 7936, Note_on_c, 0, 65, 40
1, 7936, Note_on_c, 0, 73, 40
1, 8013, Note_off_c, 0, 41, 64
1, 8102, Note_off_c, 0, 65, 64
1, 8192, Note_off_c, 0, 41, 64
1, 8192, Note_off_c, 0, 53, 64
1, 8192, Note_off_c, 0, 56, 64
1, 8192, Note_off_c, 0, 59, 64
1, 8192, Note_off_c, 0, 62, 64
1, 8192, Note_off_c, 0, 73, 64
1, 8192, Note_on_c, 0, 41, 64
1, 8192, Note_on_c, 0, 62, 64
1, 8192, Note_on_c, 0, 68, 40
1, 8192, Note_on_c, 0, 71, 40
1, 8448, Note_off_c, 0, 62, 64
1, 8448, Note_off_c, 0, 68, 64
1, 8448, Note_off_c, 0, 71, 64
1, 8448, Note_on_c, 0, 61, 64
1, 8448, Note_on_c, 0, 65, 40
1, 8448, Note_on_c, 0, 70, 40
1, 8525, Note_off_c, 0, 41, 64
1, 8614, Note_off_c, 0, 65, 64
1, 8704, Note_off_c, 0, 56, 64
1, 8704, Note_off_c, 0, 71, 64
1, 8704, Note_off_c, 0, 61, 64
1, 8704, Note_off_c, 0, 70, 64
1, 8704, Note_on_c, 0, 41, 64
1, 8704, Note_on_c, 0, 56, 64
1, 8704, Note_on_c, 0, 61, 64
1, 8704, Note_on_c, 0, 68, 40
1, 8704, Note_on_c, 0, 68, 40
1, 8704, Note_on_c, 0, 71, 40
1, 8960, Note_off_c, 0, 61, 64
1, 8960, Note_off_c, 0, 68, 64
1, 8960, Note_off_c, 0, 71, 64
1, 8960, Note_on_c, 0, 59, 64
1, 8960, Note_on_c, 0, 65, 40
1, 8960, Note_on_c, 0, 73, 40
1, 9037, Note_off_c, 0, 41, 64
1, 9126, Note_off_c, 0, 65, 64
1, 9216, Note_off_c, 0, 56, 64
1, 9216, Note_off_c, 0, 68, 64
1, 9216, Note_off_c, 0, 59, 64
1, 9216, Note_off_c, 0, 73, 64
1, 9216, Note_on_c, 0, 42, 64
1, 9216, Note_on_c, 0, 42, 30
1, 9216, Note_on_c, 0, 55, 30
1, 9216, Note_on_c, 0, 58, 64
1, 9216, Note_on_c, 0, 58, 30
1, 9216, Note_on_c, 0, 64, 40
1, 9216, Note_on_c, 0, 67, 40
1, 9216, Note_on_c, 0, 70, 40
1, 9216, Control_c, 0, 7, 90
1, 9472, Note_off_c, 0, 67, 64
1, 9472, Note_off_c, 0, 70, 64
1, 9472, Note_on_c, 0, 61, 40
1, 9472, Note_on_c, 0, 66, 40
1, 9549, Note_off_c, 0, 42, 64
1, 9638, Note_off_c, 0, 61, 64
1, 9638, Note_off_c, 0, 66, 64
1, 9728, Note_off_c, 0, 42, 64
1, 9728, Note_off_c, 0, 55, 64
1, 9728, Note_off_c, 0, 58, 64
1, 9728, Note_off_c, 0, 58, 64
1, 9728, Note_on_c, 0, 42, 64
1, 9728, Note_on_c, 0, 54, 30
1, 9728, Note_on_c, 0, 55, 64
1, 9728, Note_on_c, 0, 58, 64
1, 9728, Note_on_c, 0, 58, 30
1, 9728, Note_on_c, 0, 64, 40
1, 9728, Note_on_c, 0, 70, 40
1, 9984, Note_off_c, 0, 55, 64
1, 9984, Note_off_c, 0, 64, 64
1, 9984, Note_off_c, 0, 70, 64
1, 9984, Note_on_c, 0, 54, 64
1, 9984, Note_on_c, 0, 64, 40
1, 9984, Note_on_c, 0, 67, 40
1, 10061, Note_off_c, 0, 42, 64
1, 10150, Note_off_c, 0, 64, 64
1, 10150, Note_off_c, 0, 67, 64
1, 10240, Note_off_c, 0, 64, 64
1, 10240, Note_off_c, 0, 54, 64
1, 10240, Note_off_c, 0, 58, 64
1, 10240, Note_off_c, 0, 58, 64
1, 10240, Note_off_c, 0, 54, 64
1, 10240, Note_on_c, 0, 42, 64
1, 10240, Note_on_c, 0, 54, 64
1, 10240, Note_on_c, 0, 61, 40
1, 10240, Note_on_c, 0, 70, 40
1, 10240, Note_on_c, 0, 73, 40
1, 10240, Note_on_c, 0, 73, 64
1, 10496, Note_off_c, 0, 54, 64
1, 10496, Note_off_c, 0, 61, 64
1, 10496, Note_off_c, 0, 70, 64
1, 10496, Note_off_c, 0, 73, 64
1, 10496, Note_on_c, 0, 52, 64
1, 10496, Note_on_c, 0, 66, 40
1, 10496, Note_on_c, 0, 66, 40
1, 10496, Note_on_c, 0, 70, 64
1, 10573, Note_off_c, 0, 42, 64
1, 10662, Note_off_c, 0, 66, 64
1, 10752, Note_off_c, 0, 52, 64
1, 10752, Note_off_c, 0, 70, 64
1, 10752, Note_on_c, 0, 47, 64
1, 10752, Note_on_c, 0, 47, 30
1, 10752, Note_on_c, 0, 50, 64
1, 10752, Note_on_c, 0, 59, 30
1, 10752, Note_on_c, 0, 62, 30
1, 10752, Note_on_c, 0, 66, 40
1, 10752, Note_on_c, 0, 66, 64
1, 10752, Note_on_c, 0, 66, 30
1, 10752, Note_on_c, 0, 78, 40
1, 10880, Note_off_c, 0, 78, 64
1, 10880, Note_on_c, 0, 79, 40
1, 11008, Note_off_c, 0, 66, 64
1, 11008, Note_off_c, 0, 66, 64
1, 11008, Note_off_c, 0, 79, 64
1, 11008, Note_on_c, 0, 59, 40
1, 11008, Note_on_c, 0, 64, 40
1, 11008, Note_on_c, 0, 78, 40
1, 11085, Note_off_c, 0, 47, 64
1, 11136, Note_off_c, 0, 78, 64
1, 11136, Note_on_c, 0, 76, 40
1, 11174, Note_off_c, 0, 59, 64
1, 11264, Note_off_c, 0, 73, 64
1, 11264, Note_off_c, 0, 47, 64
1, 11264, Note_off_c, 0, 50, 64
1, 11264, Note_off_c, 0, 59, 64
1, 11264, Note_off_c, 0, 62, 64
1, 11264, Note_off_c, 0, 66, 64
1, 11264, Note_off_c, 0, 66, 64
1, 11264, Note_off_c, 0, 64, 64
1, 11264, Note_off_c, 0, 76, 64
1, 11264, Note_on_c, 0, 47, 64
1, 11264, Note_on_c, 0, 50, 64
1, 11264, Note_on_c, 0, 62, 40
1, 11264, Note_on_c, 0, 62, 64
1, 11264, Note_on_c, 0, 66, 40
1, 11264, Note_on_c, 0, 66, 64
1, 11264, Note_on_c, 0, 71, 40
1, 11264, Note_on_c, 0, 78, 40
1, 11392, Note_off_c, 0, 78, 64
1, 11392, Note_on_c, 0, 76, 40
1, 11520, Note_off_c, 0, 62, 64
1, 11520, Note_off_c, 0, 62, 64
1, 11520, Note_off_c, 0, 66, 64
1, 11520, Note_off_c, 0, 71, 64
1, 11520, Note_off_c, 0, 76, 64
1, 11520, Note_on_c, 0, 61, 40
1, 11520, Note_on_c, 0, 61, 40
1, 11520, Note_on_c, 0, 64, 64
1, 11520, Note_on_c, 0, 70, 40
1, 11520, Note_on_c, 0, 74, 40
1, 11597, Note_off_c, 0, 47, 64
1, 11648, Note_off_c, 0, 74, 64
1, 11648, Note_on_c, 0, 73, 40
1, 11686, Note_off_c, 0, 61, 64
1, 11776, Note_off_c, 0, 50, 64
1, 11776, Note_off_c, 0, 66, 64
1, 11776, Note_off_c, 0, 61, 64
1, 11776, Note_off_c, 0, 64, 64
1, 11776, Note_off_c, 0, 70, 64
1, 11776, Note_off_c, 0, 73, 64
1, 11776, Note_on_c, 0, 47, 64
1, 11776, Note_on_c, 0, 54, 64
1, 11776, Note_on_c, 0, 62, 40
1, 11776, Note_on_c, 0, 66, 40
1, 11776, Note_on_c, 0, 66, 64
1, 11776, Note_on_c, 0, 66, 64
1, 11776, Note_on_c, 0, 71, 40
1, 11776, Note_on_c, 0, 71, 40
1, 11904, Note_off_c, 0, 71, 64
1, 11904, Note_on_c, 0, 74, 40
1, 12032, Note_off_c, 0, 54, 64
1, 12032, Note_off_c, 0, 66, 64
1, 12032, Note_off_c, 0, 66, 64
1, 12032, Note_off_c, 0, 74, 64
1, 12032, Note_on_c, 0, 50, 64
1, 12032, Note_on_c, 0, 59, 40
1, 12032, Note_on_c, 0, 59, 64
1, 12032, Note_on_c, 0, 73, 40
1, 12109, Note_off_c, 0, 47, 64
1, 12160, Note_off_c, 0, 73, 64
1, 12160, Note_on_c, 0, 71, 40
1, 12198, Note_off_c, 0, 59, 64
1, 12288, Note_off_c, 0, 66, 64
1, 12288, Note_off_c, 0, 50, 64
1, 12288, Note_off_c, 0, 59, 64
1, 12288, Note_off_c, 0, 71, 64
1, 12288, Note_on_c, 0, 43, 64
1, 12288, Note_on_c, 0, 43, 30
1, 12288, Note_on_c, 0, 47, 64
1, 12288, Note_on_c, 0, 59, 30
1, 12288, Note_on_c, 0, 62, 30
1, 12288, Note_on_c, 0, 67, 40
1, 12288, Note_on_c, 0, 67, 64
1, 12288, Note_on_c, 0, 67, 30
1, 12288, Note_on_c, 0, 74, 40
1, 12288, Note_on_c, 0, 74, 64
1, 12288, Note_on_c, 0, 83, 40
1, 12416, Note_off_c, 0, 74, 64
1, 12416, Note_on_c, 0, 72, 40
1, 12544, Note_off_c, 0, 62, 64
1, 12544, Note_off_c, 0, 67, 64
1, 12544, Note_off_c, 0, 72, 64
1, 12544, Note_on_c, 0, 64, 42
1, 12544, Note_on_c, 0, 72, 42
1, 12544, Note_on_c, 0, 74, 40
1, 12621, Note_off_c, 0, 43, 64
1, 12672, Note_off_c, 0, 74, 64
1, 12672, Note_on_c, 0, 76, 40
1, 12710, Note_off_c, 0, 64, 64
1, 12800, Note_off_c, 0, 43, 64
1, 12800, Note_off_c, 0, 47, 64
1, 12800, Note_off_c, 0, 59, 64
1, 12800, Note_off_c, 0, 62, 64
1, 12800, Note_off_c, 0, 67, 64
1, 12800, Note_off_c, 0, 72, 64
1, 12800, Note_off_c, 0, 76, 64
1, 12800, Note_on_c, 0, 43, 64
1, 12800, Note_on_c, 0, 47, 66
1, 12800, Note_on_c, 0, 59, 66
1, 12800, Note_on_c, 0, 67, 44
1, 12800, Note_on_c, 0, 71, 44
1, 12800, Note_on_c, 0, 74, 40
1, 12928, Note_off_c, 0, 74, 64
1, 12928, Note_on_c, 0, 72, 40
1, 13056, Note_off_c, 0, 59, 64
1, 13056, Note_off_c, 0, 67, 64
1, 13056, Note_off_c, 0, 71, 64
1, 13056, Note_off_c, 0, 72, 64
1, 13056, Note_on_c, 0, 60, 67
1, 13056, Note_on_c, 0, 64, 46
1, 13056, Note_on_c, 0, 69, 46
1, 13056, Note_on_c, 0, 71, 40
1, 13133, Note_off_c, 0, 43, 64
1, 13184, Note_off_c, 0, 71, 64
1, 13184, Note_on_c, 0, 69, 40
1, 13222, Note_off_c, 0, 64, 64
1, 13222, Note_off_c, 0, 69, 64
1, 13312, Note_off_c, 0, 47, 64
1, 13312, Note_off_c, 0, 60, 64
1, 13312, Note_off_c, 0, 69, 64
1, 13312, Note_on_c, 0, 43, 64
1, 13312, Note_on_c, 0, 47, 68
1, 13312, Note_on_c, 0, 62, 68
1, 13312, Note_on_c, 0, 67, 40
1, 13312, Note_on_c, 0, 67, 48
1, 13312, Note_on_c, 0, 71, 48
1, 13440, Note_off_c, 0, 67, 64
1, 13440, Note_on_c, 0, 71, 40
1, 13568, Note_off_c, 0, 62, 64
1, 13568, Note_off_c, 0, 67, 64
1, 13568, Note_off_c, 0, 71, 64
1, 13568, Note_off_c, 0, 71, 64
1, 13568, Note_on_c, 0, 55, 69
1, 13568, Note_on_c, 0, 59, 50
1, 13568, Note_on_c, 0, 66, 50
1, 13568, Note_on_c, 0, 69, 40
1, 13645, Note_off_c, 0, 43, 64
1, 13696, Note_off_c, 0, 69, 64
1, 13696, Note_on_c, 0, 67, 40
1, 13734, Note_off_c, 0, 59, 64
1, 13734, Note_off_c, 0, 66, 64
1, 13824, Note_off_c, 0, 47, 64
1, 13824, Note_off_c, 0, 55, 64
1, 13824, Note_off_c, 0, 67, 64
1, 13824, Note_on_c, 0, 40, 64
1, 13824, Note_on_c, 0, 40, 30
1, 13824, Note_on_c, 0, 52, 30
1, 13824, Note_on_c, 0, 55, 70
1, 13824, Note_on_c, 0, 59, 30
1, 13824, Note_on_c, 0, 62, 30
1, 13824, Note_on_c, 0, 64, 52
1, 13824, Note_on_c, 0, 64, 70
1, 13824, Note_on_c, 0, 67, 52
1, 13824, Note_on_c, 0, 76, 40
1, 13952, Note_off_c, 0, 83, 64
1, 13952, Note_on_c, 0, 81, 40
1, 14080, Note_off_c, 0, 71, 64
1, 14080, Note_off_c, 0, 67, 64
1, 14080, Note_off_c, 0, 64, 64
1, 14080, Note_off_c, 0, 81, 64
1, 14080, Note_on_c, 0, 59, 54
1, 14080, Note_on_c, 0, 66, 70
1, 14080, Note_on_c, 0, 69, 54
1, 14080, Note_on_c, 0, 83, 40
1, 14157, Note_off_c, 0, 40, 64
1, 14208, Note_off_c, 0, 83, 64
1, 14208, Note_on_c, 0, 84, 40
1, 14246, Note_off_c, 0, 59, 64
1, 14336, Note_off_c, 0, 74, 64
1, 14336, Note_off_c, 0, 40, 64
1, 14336, Note_off_c, 0, 52, 64
1, 14336, Note_off_c, 0, 59, 64
1, 14336, Note_off_c, 0, 62, 64
1, 14336, Note_off_c, 0, 66, 64
1, 14336, Note_off_c, 0, 69, 64
1, 14336, Note_off_c, 0, 84, 64
1, 14336, Note_on_c, 0, 40, 64
1, 14336, Note_on_c, 0, 64, 56
1, 14336, Note_on_c, 0, 64, 71
1, 14336, Note_on_c, 0, 67, 56
1, 14336, Note_on_c, 0, 73, 71
1, 14336, Note_on_c, 0, 83, 40
1, 14464, Note_off_c, 0, 83, 64
1, 14464, Note_on_c, 0, 81, 40
1, 14592, Note_off_c, 0, 67, 64
1, 14592, Note_off_c, 0, 64, 64
1, 14592, Note_off_c, 0, 67, 64
1, 14592, Note_off_c, 0, 81, 64
1, 14592, Note_on_c, 0, 59, 58
1, 14592, Note_on_c, 0, 66, 58
1, 14592, Note_on_c, 0, 69, 58
1, 14592, Note_on_c, 0, 79, 40
1, 14669, Note_off_c, 0, 40, 64
1, 14720, Note_off_c, 0, 79, 64
1, 14720, Note_on_c, 0, 78, 40
1, 14758, Note_off_c, 0, 59, 64
1, 14758, Note_off_c, 0, 66, 64
1, 14848, Note_off_c, 0, 64, 64
1, 14848, Note_off_c, 0, 73, 64
1, 14848, Note_off_c, 0, 69, 64
1, 14848, Note_off_c, 0, 78, 64
1, 14848, Note_on_c, 0, 40, 64
1, 14848, Note_on_c, 0, 62, 73
1, 14848, Note_on_c, 0, 64, 60
1, 14848, Note_on_c, 0, 67, 60
1, 14848, Note_on_c, 0, 71, 60
1, 14848, Note_on_c, 0, 71, 73
1, 14848, Note_on_c, 0, 76, 40
1, 14976, Note_off_c, 0, 76, 64
1, 14976, Note_on_c, 0, 79, 40
1, 15104, Note_off_c, 0, 64, 64
1, 15104, Note_off_c, 0, 67, 64
1, 15104, Note_off_c, 0, 71, 64
1, 15104, Note_off_c, 0, 79, 64
1, 15104, Note_on_c, 0, 55, 62
1, 15104, Note_on_c, 0, 64, 62
1, 15104, Note_on_c, 0, 67, 62
1, 15104, Note_on_c, 0, 78, 40
1, 15181, Note_off_c, 0, 40, 64
1, 15232, Note_off_c, 0, 78, 64
1, 15232, Note_on_c, 0, 76, 40
1, 15270, Note_off_c, 0, 55, 64
1, 15270, Note_off_c, 0, 64, 64
1, 15270, Note_off_c, 0, 67, 64
1, 15360, Note_off_c, 0, 62, 64
1, 15360, Note_off_c, 0, 71, 64
1, 15360, Note_off_c, 0, 76, 64
1, 15360, Note_on_c, 0, 42, 64
1, 15360, Note_on_c, 0, 42, 30
1, 15360, Note_on_c, 0, 58, 30
1, 15360, Note_on_c, 0, 61, 64
1, 15360, Note_on_c, 0, 61, 64
1, 15360, Note_on_c, 0, 61, 75
1, 15360, Note_on_c, 0, 61, 30
1, 15360, Note_on_c, 0, 64, 30
1, 15360, Note_on_c, 0, 67, 30
1, 15360, Note_on_c, 0, 70, 64
1, 15360, Note_on_c, 0, 70, 75
1, 15360, Note_on_c, 0, 85, 40
1, 15488, Note_off_c, 0, 76, 64
1, 15488, Note_on_c, 0, 74, 40
1, 15616, Note_off_c, 0, 61, 64
1, 15616, Note_off_c, 0, 74, 64
1, 15616, Note_on_c, 0, 64, 64
1, 15616, Note_on_c, 0, 76, 40
1, 15693, Note_off_c, 0, 42, 64
1, 15744, Note_off_c, 0, 76, 64
1, 15744, Note_on_c, 0, 78, 40
1, 15782, Note_off_c, 0, 64, 64
1, 15872, Note_off_c, 0, 55, 64
1, 15872, Note_off_c, 0, 64, 64
1, 15872, Note_off_c, 0, 42, 64
1, 15872, Note_off_c, 0, 61, 64
1, 15872, Note_off_c, 0, 61, 64
1, 15872, Note_off_c, 0, 61, 64
1, 15872, Note_off_c, 0, 64, 64
1, 15872, Note_off_c, 0, 67, 64
1, 15872, Note_off_c, 0, 70, 64
1, 15872, Note_off_c, 0, 85, 64
1, 15872, Note_off_c, 0, 78, 64
1, 15872, Note_on_c, 0, 42, 64
1, 15872, Note_on_c, 0, 54, 71
1, 15872, Note_on_c, 0, 54, 64
1, 15872, Note_on_c, 0, 62, 71
1, 15872, Note_on_c, 0, 62, 71
1, 15872, Note_on_c, 0, 62, 30
1, 15872, Note_on_c, 0, 66, 64
1, 15872, Note_on_c, 0, 66, 30
1, 15872, Note_on_c, 0, 71, 64
1, 15872, Note_on_c, 0, 76, 40
1, 16000, Note_off_c, 0, 76, 64
1, 16000, Note_on_c, 0, 74, 40
1, 16128, Note_off_c, 0, 54, 64
1, 16128, Note_off_c, 0, 74, 64
1, 16128, Note_on_c, 0, 61, 64
1, 16128, Note_on_c, 0, 73, 40
1, 16205, Note_off_c, 0, 42, 64
1, 16256, Note_off_c, 0, 73, 64
1, 16256, Note_on_c, 0, 71, 40
1, 16294, Note_off_c, 0, 61, 64
1, 16384, Note_off_c, 0, 70, 64
1, 16384, Note_off_c, 0, 54, 64
1, 16384, Note_off_c, 0, 62, 64
1, 16384, Note_off_c, 0, 62, 64
1, 16384, Note_off_c, 0, 62, 64
1, 16384, Note_off_c, 0, 66, 64
1, 16384, Note_off_c, 0, 71, 64
1, 16384, Note_off_c, 0, 71, 64
1, 16384, Note_on_c, 0, 42, 64
1, 16384, Note_on_c, 0, 52, 68
1, 16384, Note_on_c, 0, 61, 68
1, 16384, Note_on_c, 0, 61, 30
1, 16384, Note_on_c, 0, 64, 68
1, 16384, Note_on_c, 0, 64, 30
1, 16384, Note_on_c, 0, 66, 64
1, 16384, Note_on_c, 0, 70, 40
1, 16384, Note_on_c, 0, 70, 68
1, 16384, Note_on_c, 0, 73, 64
1, 16512, Note_off_c, 0, 70, 64
1, 16512, Note_on_c, 0, 73, 40
1, 16640, Note_off_c, 0, 66, 64
1, 16640, Note_off_c, 0, 73, 64
1, 16640, Note_on_c, 0, 61, 64
1, 16640, Note_on_c, 0, 71, 40
1, 16717, Note_off_c, 0, 42, 64
1, 16768, Note_off_c, 0, 71, 64
1, 16768, Note_on_c, 0, 70, 40
1, 16806, Note_off_c, 0, 61, 64
1, 16896, Note_off_c, 0, 58, 64
1, 16896, Note_off_c, 0, 52, 64
1, 16896, Note_off_c, 0, 61, 64
1, 16896, Note_off_c, 0, 61, 64
1, 16896, Note_off_c, 0, 64, 64
1, 16896, Note_off_c, 0, 64, 64
1, 16896, Note_off_c, 0, 70, 64
1, 16896, Note_off_c, 0, 73, 64
1, 16896, Note_off_c, 0, 70, 64
1, 16896, Note_on_c, 0, 36, 64
1, 16896, Note_on_c, 0, 36, 30
1, 16896, Note_on_c, 0, 51, 64
1, 16896, Note_on_c, 0, 60, 64
1, 16896, Note_on_c, 0, 60, 30
1, 16896, Note_on_c, 0, 63, 30
1, 16896, Note_on_c, 0, 66, 64
1, 16896, Note_on_c, 0, 66, 30
1, 16896, Note_on_c, 0, 69, 64
1, 16896, Note_on_c, 0, 69, 30
1, 16896, Note_on_c, 0, 75, 64
1, 16896, Note_on_c, 0, 78, 40
1, 17024, Note_off_c, 0, 78, 64
1, 17024, Note_on_c, 0, 76, 40
1, 17152, Note_off_c, 0, 66, 64
1, 17152, Note_off_c, 0, 69, 64
1, 17152, Note_off_c, 0, 76, 64
1, 17152, Note_on_c, 0, 64, 62
1, 17152, Note_on_c, 0, 68, 62
1, 17152, Note_on_c, 0, 78, 40
1, 17229, Note_off_c, 0, 36, 64
1, 17280, Note_off_c, 0, 78, 64
1, 17280, Note_on_c, 0, 80, 40
1, 17318, Note_off_c, 0, 68, 64
1, 17408, Note_off_c, 0, 36, 64
1, 17408, Note_off_c, 0, 60, 64
1, 17408, Note_off_c, 0, 63, 64
1, 17408, Note_off_c, 0, 66, 64
1, 17408, Note_off_c, 0, 69, 64
1, 17408, Note_off_c, 0, 64, 64
1, 17408, Note_off_c, 0, 80, 64
1, 17408, Note_on_c, 0, 36, 64
1, 17408, Note_on_c, 0, 61, 64
1, 17408, Note_on_c, 0, 63, 60
1, 17408, Note_on_c, 0, 64, 30
1, 17408, Note_on_c, 0, 68, 30
1, 17408, Note_on_c, 0, 69, 60
1, 17408, Note_on_c, 0, 69, 64
1, 17408, Note_on_c, 0, 78, 40
1, 17536, Note_off_c, 0, 78, 64
1, 17536, Note_on_c, 0, 76, 40
1, 17664, Note_off_c, 0, 63, 64
1, 17664, Note_off_c, 0, 69, 64
1, 17664, Note_off_c, 0, 69, 64
1, 17664, Note_off_c, 0, 76, 64
1, 17664, Note_on_c, 0, 63, 58
1, 17664, Note_on_c, 0, 68, 58
1, 17664, Note_on_c, 0, 68, 64
1, 17664, Note_on_c, 0, 75, 40
1, 17741, Note_off_c, 0, 36, 64
1, 17792, Note_off_c, 0, 75, 64
1, 17792, Note_on_c, 0, 73, 40
1, 17830, Note_off_c, 0, 63, 64
1, 17830, Note_off_c, 0, 68, 64
1, 17920, Note_off_c, 0, 51, 64
1, 17920, Note_off_c, 0, 66, 64
1, 17920, Note_off_c, 0, 75, 64
1, 17920, Note_off_c, 0, 61, 64
1, 17920, Note_off_c, 0, 64, 64
1, 17920, Note_off_c, 0, 68, 64
1, 17920, Note_off_c, 0, 68, 64
1, 17920, Note_off_c, 0, 73, 64
1, 17920, Note_on_c, 0, 36, 64
1, 17920, Note_on_c, 0, 51, 64
1, 17920, Note_on_c, 0, 63, 56
1, 17920, Note_on_c, 0, 63, 64
1, 17920, Note_on_c, 0, 63, 30
1, 17920, Note_on_c, 0, 66, 56
1, 17920, Note_on_c, 0, 66, 64
1, 17920, Note_on_c, 0, 66, 30
1, 17920, Note_on_c, 0, 68, 56
1, 17920, Note_on_c, 0, 68, 64
1, 17920, Note_on_c, 0, 72, 40
1, 18048, Note_off_c, 0, 72, 64
1, 18048, Note_on_c, 0, 75, 40
1, 18176, Note_off_c, 0, 66, 64
1, 18176, Note_off_c, 0, 68, 64
1, 18176, Note_off_c, 0, 68, 64
1, 18176, Note_off_c, 0, 75, 64
1, 18176, Note_on_c, 0, 63, 54
1, 18176, Note_on_c, 0, 66, 64
1, 18176, Note_on_c, 0, 68, 54
1, 18176, Note_on_c, 0, 73, 40
1, 18253, Note_off_c, 0, 36, 64
1, 18304, Note_off_c, 0, 73, 64
1, 18304, Note_on_c, 0, 72, 40
1, 18342, Note_off_c, 0, 63, 64
1, 18342, Note_off_c, 0, 68, 64
1, 18432, Note_off_c, 0, 60, 64
1, 18432, Note_off_c, 0, 51, 64
1, 18432, Note_off_c, 0, 63, 64
1, 18432, Note_off_c, 0, 63, 64
1, 18432, Note_off_c, 0, 63, 64
1, 18432, Note_off_c, 0, 66, 64
1, 18432, Note_off_c, 0, 66, 64
1, 18432, Note_off_c, 0, 66, 64
1, 18432, Note_off_c, 0, 72, 64
1, 18432, Note_on_c, 0, 37, 64
1, 18432, Note_on_c, 0, 37, 30
1, 18432, Note_on_c, 0, 54, 30
1, 18432, Note_on_c, 0, 56, 64
1, 18432, Note_on_c, 0, 57, 30
1, 18432, Note_on_c, 0, 61, 52
1, 18432, Note_on_c, 0, 61, 30
1, 18432, Note_on_c, 0, 65, 52
1, 18432, Note_on_c, 0, 65, 64
1, 18432, Note_on_c, 0, 68, 52
1, 18432, Note_on_c, 0, 68, 30
1, 18432, Note_on_c, 0, 80, 40
1, 18432, Note_on_c, 0, 83, 40
1, 18560, Note_off_c, 0, 83, 64
1, 18560, Note_on_c, 0, 81, 40
1, 18688, Note_off_c, 0, 68, 64
1, 18688, Note_off_c, 0, 81, 64
1, 18688, Note_on_c, 0, 61, 50
1, 18688, Note_on_c, 0, 83, 40
1, 18765, Note_off_c, 0, 37, 64
1, 18816, Note_off_c, 0, 83, 64
1, 18816, Note_on_c, 0, 85, 40
1, 18854, Note_off_c, 0, 61, 64
1, 18944, Note_off_c, 0, 37, 64
1, 18944, Note_off_c, 0, 61, 64
1, 18944, Note_off_c, 0, 65, 64
1, 18944, Note_off_c, 0, 65, 64
1, 18944, Note_off_c, 0, 68, 64
1, 18944, Note_off_c, 0, 80, 64
1, 18944, Note_off_c, 0, 85, 64
1, 18944, Note_on_c, 0, 37, 64
1, 18944, Note_on_c, 0, 50, 64
1, 18944, Note_on_c, 0, 65, 48
1, 18944, Note_on_c, 0, 65, 64
1, 18944, Note_on_c, 0, 65, 64
1, 18944, Note_on_c, 0, 66, 30
1, 18944, Note_on_c, 0, 68, 48
1, 18944, Note_on_c, 0, 68, 48
1, 18944, Note_on_c, 0, 83, 40
1, 19072, Note_off_c, 0, 83, 64
1, 19072, Note_on_c, 0, 81, 40
1, 19200, Note_off_c, 0, 50, 64
1, 19200, Note_off_c, 0, 68, 64
1, 19200, Note_off_c, 0, 81, 64
1, 19200, Note_on_c, 0, 49, 64
1, 19200, Note_on_c, 0, 59, 46
1, 19200, Note_on_c, 0, 80, 40
1, 19277, Note_off_c, 0, 37, 64
1, 19328, Note_off_c, 0, 80, 64
1, 19328, Note_on_c, 0, 78, 40
1, 19366, Note_off_c, 0, 59, 64
1, 19456, Note_off_c, 0, 54, 64
1, 19456, Note_off_c, 0, 56, 64
1, 19456, Note_off_c, 0, 57, 64
1, 19456, Note_off_c, 0, 61, 64
1, 19456, Note_off_c, 0, 65, 64
1, 19456, Note_off_c, 0, 65, 64
1, 19456, Note_off_c, 0, 66, 64
1, 19456, Note_off_c, 0, 49, 64
1, 19456, Note_off_c, 0, 78, 64
1, 19456, Note_on_c, 0, 37, 64
1, 19456, Note_on_c, 0, 49, 64
1, 19456, Note_on_c, 0, 56, 64
1, 19456, Note_on_c, 0, 68, 44
1, 19456, Note_on_c, 0, 68, 64
1, 19456, Note_on_c, 0, 77, 40
1, 19584, Note_off_c, 0, 77, 64
1, 19584, Note_on_c, 0, 80, 40
1, 19712, Note_off_c, 0, 49, 64
1, 19712, Note_off_c, 0, 68, 64
1, 19712, Note_off_c, 0, 80, 64
1, 19712, Note_on_c, 0, 47, 64
1, 19712, Note_on_c, 0, 61, 42
1, 19712, Note_on_c, 0, 78, 40
1, 19789, Note_off_c, 0, 37, 64
1, 19840, Note_off_c, 0, 78, 64
1, 19840, Note_on_c, 0, 77, 40
1, 19878, Note_off_c, 0, 61, 64
1, 19968, Note_off_c, 0, 65, 64
1, 19968, Note_off_c, 0, 56, 64
1, 19968, Note_off_c, 0, 68, 64
1, 19968, Note_off_c, 0, 47, 64
1, 19968, Note_off_c, 0, 77, 64
1, 19968, Note_on_c, 0, 42, 64
1, 19968, Note_on_c, 0, 42, 30
1, 19968, Note_on_c, 0, 45, 64
1, 19968, Note_on_c, 0, 61, 40
1, 19968, Note_on_c, 0, 61, 30
1, 19968, Note_on_c, 0, 62, 30
1, 19968, Note_on_c, 0, 66, 30
1, 19968, Note_on_c, 0, 68, 64
1, 19968, Note_on_c, 0, 69, 40
1, 19968, Note_on_c, 0, 73, 40
1, 19968, Note_on_c, 0, 81, 40
1, 20096, Note_off_c, 0, 73, 64
1, 20096, Note_on_c, 0, 71, 40
1, 20224, Note_off_c, 0, 61, 64
1, 20224, Note_off_c, 0, 68, 64
1, 20224, Note_off_c, 0, 69, 64
1, 20224, Note_off_c, 0, 71, 64
1, 20224, Note_on_c, 0, 59, 40
1, 20224, Note_on_c, 0, 61, 40
1, 20224, Note_on_c, 0, 65, 64
1, 20224, Note_on_c, 0, 73, 40
1, 20301, Note_off_c, 0, 42, 64
1, 20352, Note_off_c, 0, 73, 64
1, 20352, Note_on_c, 0, 74, 40
1, 20390, Note_off_c, 0, 59, 64
1, 20390, Note_off_c, 0, 61, 64
1, 20480, Note_off_c, 0, 68, 64
1, 20480, Note_off_c, 0, 42, 64
1, 20480, Note_off_c, 0, 45, 64
1, 20480, Note_off_c, 0, 61, 64
1, 20480, Note_off_c, 0, 81, 64
1, 20480, Note_off_c, 0, 65, 64
1, 20480, Note_off_c, 0, 74, 64
1, 20480, Note_on_c, 0, 42, 64
1, 20480, Note_on_c, 0, 45, 64
1, 20480, Note_on_c, 0, 57, 40
1, 20480, Note_on_c, 0, 57, 64
1, 20480, Note_on_c, 0, 59, 30
1, 20480, Note_on_c, 0, 66, 40
1, 20480, Note_on_c, 0, 66, 40
1, 20480, Note_on_c, 0, 66, 64
1, 20480, Note_on_c, 0, 73, 40
1, 20608, Note_off_c, 0, 73, 64
1, 20608, Note_on_c, 0, 71, 40
1, 20736, Note_off_c, 0, 57, 64
1, 20736, Note_off_c, 0, 66, 64
1, 20736, Note_off_c, 0, 71, 64
1, 20736, Note_on_c, 0, 56, 40
1, 20736, Note_on_c, 0, 61, 40
1, 20736, Note_on_c, 0, 69, 40
1, 20813, Note_off_c, 0, 42, 64
1, 20864, Note_off_c, 0, 69, 64
1, 20864, Note_on_c, 0, 68, 40
1, 20902, Note_off_c, 0, 56, 64
1, 20902, Note_off_c, 0, 61, 64
1, 20992, Note_off_c, 0, 62, 64
1, 20992, Note_off_c, 0, 66, 64
1, 20992, Note_off_c, 0, 45, 64
1, 20992, Note_off_c, 0, 57, 64
1, 20992, Note_off_c, 0, 59, 64
1, 20992, Note_off_c, 0, 66, 64
1, 20992, Note_off_c, 0, 66, 64
1, 20992, Note_off_c, 0, 68, 64
1, 20992, Note_on_c, 0, 42, 64
1, 20992, Note_on_c, 0, 57, 40
1, 20992, Note_on_c, 0, 61, 64
1, 20992, Note_on_c, 0, 66, 40
1, 20992, Note_on_c, 0, 66, 40
1, 20992, Note_on_c, 0, 69, 40
1, 20992, Note_on_c, 0, 73, 64
1, 21120, Note_off_c, 0, 66, 64
1, 21120, Note_on_c, 0, 69, 40
1, 21248, Note_off_c, 0, 57, 64
1, 21248, Note_off_c, 0, 66, 64
1, 21248, Note_off_c, 0, 73, 64
1, 21248, Note_off_c, 0, 69, 64
1, 21248, Note_on_c, 0, 61, 40
1, 21248, Note_on_c, 0, 61, 40
1, 21248, Note_on_c, 0, 68, 40
1, 21248, Note_on_c, 0, 69, 64
1, 21325, Note_off_c, 0, 42, 64
1, 21376, Note_off_c, 0, 68, 64
1, 21376, Note_on_c, 0, 66, 40
1, 21414, Note_off_c, 0, 61, 64
1, 21414, Note_off_c, 0, 61, 64
1, 21504, Note_off_c, 0, 61, 64
1, 21504, Note_off_c, 0, 69, 64
1, 21504, Note_off_c, 0, 66, 64
1, 21504, Note_on_c, 0, 38, 64
1, 21504, Note_on_c, 0, 38, 30
1, 21504, Note_on_c, 0, 50, 30
1, 21504, Note_on_c, 0, 54, 30
1, 21504, Note_on_c, 0, 61, 64
1, 21504, Note_on_c, 0, 61, 30
1, 21504, Note_on_c, 0, 66, 40
1, 21504, Note_on_c, 0, 66, 40
1, 21504, Note_on_c, 0, 66, 64
1, 21504, Note_on_c, 0, 78, 40
1, 21504, Note_on_c, 0, 78, 40
1, 21632, Note_off_c, 0, 78, 64
1, 21632, Note_on_c, 0, 76, 40
1, 21760, Note_off_c, 0, 69, 64
1, 21760, Note_off_c, 0, 61, 64
1, 21760, Note_off_c, 0, 66, 64
1, 21760, Note_off_c, 0, 76, 64
1, 21760, Note_on_c, 0, 58, 64
1, 21760, Note_on_c, 0, 61, 40
1, 21760, Note_on_c, 0, 66, 40
1, 21760, Note_on_c, 0, 78, 40
1, 21837, Note_off_c, 0, 38, 64
1, 21888, Note_off_c, 0, 78, 64
1, 21888, Note_on_c, 0, 79, 40
1, 21926, Note_off_c, 0, 61, 64
1, 22016, Note_off_c, 0, 38, 64
1, 22016, Note_off_c, 0, 61, 64
1, 22016, Note_off_c, 0, 66, 64
1, 22016, Note_off_c, 0, 58, 64
1, 22016, Note_off_c, 0, 66, 64
1, 22016, Note_off_c, 0, 78, 64
1, 22016, Note_off_c, 0, 79, 64
1, 22016, Note_on_c, 0, 38, 64
1, 22016, Note_on_c, 0, 59, 64
1, 22016, Note_on_c, 0, 59, 30
1, 22016, Note_on_c, 0, 66, 40
1, 22016, Note_on_c, 0, 66, 64
1, 22016, Note_on_c, 0, 71, 40
1, 22016, Note_on_c, 0, 78, 40
1, 22144, Note_off_c, 0, 78, 64
1, 22144, Note_on_c, 0, 76, 40
1, 22272, Note_off_c, 0, 66, 64
1, 22272, Note_off_c, 0, 66, 64
1, 22272, Note_off_c, 0, 71, 64
1, 22272, Note_off_c, 0, 76, 64
1, 22272, Note_on_c, 0, 58, 40
1, 22272, Note_on_c, 0, 64, 40
1, 22272, Note_on_c, 0, 73, 40
1, 22272, Note_on_c, 0, 74, 40
1, 22349, Note_off_c, 0, 38, 64
1, 22400, Note_off_c, 0, 74, 64
1, 22400, Note_on_c, 0, 73, 40
1, 22438, Note_off_c, 0, 58, 64
1, 22528, Note_off_c, 0, 50, 64
1, 22528, Note_off_c, 0, 54, 64
1, 22528, Note_off_c, 0, 59, 64
1, 22528, Note_off_c, 0, 59, 64
1, 22528, Note_off_c, 0, 66, 64
1, 22528, Note_off_c, 0, 64, 64
1, 22528, Note_off_c, 0, 73, 64
1, 22528, Note_off_c, 0, 73, 64
1, 22528, Note_on_c, 0, 38, 64
1, 22528, Note_on_c, 0, 66, 40
1, 22528, Note_on_c, 0, 66, 40
1, 22528, Note_on_c, 0, 66, 64
1, 22528, Note_on_c, 0, 66, 64
1, 22528, Note_on_c, 0, 71, 40
1, 22528, Note_on_c, 0, 74, 40
1, 22656, Note_off_c, 0, 71, 64
1, 22656, Note_on_c, 0, 74, 40
1, 22784, Note_off_c, 0, 66, 64
1, 22784, Note_off_c, 0, 66, 64
1, 22784, Note_off_c, 0, 66, 64
1, 22784, Note_off_c, 0, 74, 64
1, 22784, Note_on_c, 0, 62, 40
1, 22784, Note_on_c, 0, 62, 64
1, 22784, Note_on_c, 0, 70, 40
1, 22784, Note_on_c, 0, 73, 40
1, 22861, Note_off_c, 0, 38, 64
1, 22912, Note_off_c, 0, 73, 64
1, 22912, Note_on_c, 0, 71, 40
1, 22950, Note_off_c, 0, 62, 64
1, 22950, Note_off_c, 0, 70, 64
1, 23040, Note_off_c, 0, 66, 64
1, 23040, Note_off_c, 0, 62, 64
1, 23040, Note_off_c, 0, 71, 64
1, 23040, Note_on_c, 0, 43, 64
1, 23040, Note_on_c, 0, 43, 30
1, 23040, Note_on_c, 0, 55, 30
1, 23040, Note_on_c, 0, 59, 64
1, 23040, Note_on_c, 0, 59, 30
1, 23040, Note_on_c, 0, 62, 30
1, 23040, Note_on_c, 0, 65, 40
1, 23040, Note_on_c, 0, 65, 30
1, 23040, Note_on_c, 0, 71, 40
1, 23040, Note_on_c, 0, 74, 40
1, 23040, Note_on_c, 0, 74, 64
1, 23040, Note_on_c, 0, 83, 40
1, 23168, Note_off_c, 0, 74, 64
1, 23168, Note_off_c, 0, 83, 64
1, 23168, Note_on_c, 0, 72, 40
1, 23168, Note_on_c, 0, 81, 40
1, 23296, Note_off_c, 0, 74, 64
1, 23296, Note_off_c, 0, 65, 64
1, 23296, Note_off_c, 0, 72, 64
1, 23296, Note_off_c, 0, 81, 64
1, 23296, Note_on_c, 0, 62, 40
1, 23296, Note_on_c, 0, 67, 40
1, 23296, Note_on_c, 0, 74, 40
1, 23296, Note_on_c, 0, 83, 40
1, 23373, Note_off_c, 0, 43, 64
1, 23424, Note_off_c, 0, 74, 64
1, 23424, Note_off_c, 0, 83, 64
1, 23424, Note_on_c, 0, 76, 40
1, 23424, Note_on_c, 0, 84, 40
1, 23462, Note_off_c, 0, 62, 64
1, 23552, Note_off_c, 0, 43, 64
1, 23552, Note_off_c, 0, 55, 64
1, 23552, Note_off_c, 0, 59, 64
1, 23552, Note_off_c, 0, 59, 64
1, 23552, Note_off_c, 0, 62, 64
1, 23552, Note_off_c, 0, 65, 64
1, 23552, Note_off_c, 0, 67, 64
1, 23552, Note_off_c, 0, 76, 64
1, 23552, Note_off_c, 0, 84, 64
1, 23552, Note_on_c, 0, 43, 64
1, 23552, Note_on_c, 0, 59, 64
1, 23552, Note_on_c, 0, 65, 40
1, 23552, Note_on_c, 0, 69, 40
1, 23552, Note_on_c, 0, 74, 40
1, 23552, Note_on_c, 0, 83, 40
1, 23680, Note_off_c, 0, 74, 64
1, 23680, Note_off_c, 0, 83, 64
1, 23680, Note_on_c, 0, 72, 40
1, 23680, Note_on_c, 0, 81, 40
1, 23808, Note_off_c, 0, 65, 64
1, 23808, Note_off_c, 0, 69, 64
1, 23808, Note_off_c, 0, 72, 64
1, 23808, Note_off_c, 0, 81, 64
1, 23808, Note_on_c, 0, 62, 40
1, 23808, Note_on_c, 0, 71, 40
1, 23808, Note_on_c, 0, 71, 40
1, 23808, Note_on_c, 0, 79, 40
1, 23885, Note_off_c, 0, 43, 64
1, 23936, Note_off_c, 0, 71, 64
1, 23936, Note_off_c, 0, 79, 64
1, 23936, Note_on_c, 0, 69, 40
1, 23936, Note_on_c, 0, 81, 40
1, 23974, Note_off_c, 0, 62, 64
1, 24064, Note_off_c, 0, 59, 64
1, 24064, Note_off_c, 0, 71, 64
1, 24064, Note_off_c, 0, 69, 64
1, 24064, Note_off_c, 0, 81, 64
1, 24064, Note_on_c, 0, 43, 64
1, 24064, Note_on_c, 0, 59, 64
1, 24064, Note_on_c, 0, 59, 64
1, 24064, Note_on_c, 0, 65, 40
1, 24064, Note_on_c, 0, 67, 40
1, 24064, Note_on_c, 0, 72, 40
1, 24064, Note_on_c, 0, 83, 40
1, 24192, Note_off_c, 0, 67, 64
1, 24192, Note_off_c, 0, 83, 64
1, 24192, Note_on_c, 0, 71, 40
1, 24192, Note_on_c, 0, 79, 40
1, 24320, Note_off_c, 0, 59, 64
1, 24320, Note_off_c, 0, 65, 64
1, 24320, Note_off_c, 0, 72, 64
1, 24320, Note_off_c, 0, 71, 64
1, 24320, Note_off_c, 0, 79, 64
1, 24320, Note_on_c, 0, 55, 64
1, 24320, Note_on_c, 0, 59, 40
1, 24320, Note_on_c, 0, 69, 40
1, 24320, Note_on_c, 0, 74, 40
1, 24320, Note_on_c, 0, 78, 40
1, 24397, Note_off_c, 0, 43, 64
1, 24448, Note_off_c, 0, 69, 64
1, 24448, Note_off_c, 0, 78, 64
1, 24448, Note_on_c, 0, 67, 40
1, 24448, Note_on_c, 0, 76, 40
1, 24486, Note_off_c, 0, 59, 64
1, 24576, Note_off_c, 0, 59, 64
1, 24576, Note_off_c, 0, 55, 64
1, 24576, Note_off_c, 0, 74, 64
1, 24576, Note_off_c, 0, 67, 64
1, 24576, Note_off_c, 0, 76, 64
1, 24576, Note_on_c, 0, 48, 64
1, 24576, Note_on_c, 0, 48, 30
1, 24576, Note_on_c, 0, 52, 64
1, 24576, Note_on_c, 0, 55, 30
1, 24576, Note_on_c, 0, 59, 30
1, 24576, Note_on_c, 0, 60, 40
1, 24576, Note_on_c, 0, 62, 30
1, 24576, Note_on_c, 0, 67, 64
1, 24576, Note_on_c, 0, 76, 40
1, 24576, Note_on_c, 0, 76, 40
1, 24576, Note_on_c, 0, 79, 40
1, 24832, Note_off_c, 0, 71, 64
1, 24832, Note_off_c, 0, 60, 64
1, 24832, Note_off_c, 0, 76, 64
1, 24832, Note_on_c, 0, 64, 40
1, 24832, Note_on_c, 0, 67, 40
1, 24832, Note_on_c, 0, 72, 40
1, 24909, Note_off_c, 0, 48, 64
1, 24960, Note_off_c, 0, 64, 64
1, 24960, Note_off_c, 0, 72, 64
1, 24960, Note_on_c, 0, 65, 40
1, 24960, Note_on_c, 0, 74, 40
1, 25088, Note_off_c, 0, 74, 64
1, 25088, Note_off_c, 0, 48, 64
1, 25088, Note_off_c, 0, 52, 64
1, 25088, Note_off_c, 0, 55, 64
1, 25088, Note_off_c, 0, 59, 64
1, 25088, Note_off_c, 0, 62, 64
1, 25088, Note_off_c, 0, 67, 64
1, 25088, Note_off_c, 0, 65, 64
1, 25088, Note_off_c, 0, 74, 64
1, 25088, Note_on_c, 0, 48, 64
1, 25088, Note_on_c, 0, 52, 64
1, 25088, Note_on_c, 0, 67, 40
1, 25088, Note_on_c, 0, 72, 40
1, 25088, Note_on_c, 0, 72, 64
1, 25088, Note_on_c, 0, 76, 40
1, 25344, Note_off_c, 0, 67, 64
1, 25344, Note_off_c, 0, 72, 64
1, 25344, Note_off_c, 0, 72, 64
1, 25344, Note_off_c, 0, 76, 64
1, 25344, Note_on_c, 0, 65, 40
1, 25344, Note_on_c, 0, 71, 64
1, 25344, Note_on_c, 0, 74, 40
1, 25344, Note_on_c, 0, 78, 40
1, 25421, Note_off_c, 0, 48, 64
1, 25510, Note_off_c, 0, 65, 64
1, 25510, Note_off_c, 0, 74, 64
1, 25510, Note_off_c, 0, 78, 64
1, 25600, Note_off_c, 0, 52, 64
1, 25600, Note_off_c, 0, 71, 64
1, 25600, Note_on_c, 0, 48, 64
1, 25600, Note_on_c, 0, 52, 64
1, 25600, Note_on_c, 0, 52, 64
1, 25600, Note_on_c, 0, 64, 40
1, 25600, Note_on_c, 0, 76, 40
1, 25600, Note_on_c, 0, 76, 64
1, 25600, Note_on_c, 0, 79, 40
1, 25856, Note_off_c, 0, 52, 64
1, 25856, Note_off_c, 0, 64, 64
1, 25856, Note_off_c, 0, 79, 64
1, 25856, Note_on_c, 0, 48, 64
1, 25856, Note_on_c, 0, 67, 40
1, 25856, Note_on_c, 0, 76, 40
1, 25933, Note_off_c, 0, 48, 64
1, 26022, Note_off_c, 0, 67, 64
1, 26022, Note_off_c, 0, 76, 64
1, 26112, Note_off_c, 0, 52, 64
1, 26112, Note_off_c, 0, 76, 64
1, 26112, Note_off_c, 0, 48, 64
1, 26112, Note_on_c, 0, 46, 64
1, 26112, Note_on_c, 0, 49, 64
1, 26112, Note_on_c, 0, 49, 30
1, 26112, Note_on_c, 0, 61, 64
1, 26112, Note_on_c, 0, 61, 30
1, 26112, Note_on_c, 0, 67, 40
1, 26112, Note_on_c, 0, 67, 30
1, 26112, Note_on_c, 0, 70, 30
1, 26112, Note_on_c, 0, 73, 40
1, 26112, Note_on_c, 0, 76, 64
1, 26368, Note_off_c, 0, 67, 64
1, 26368, Note_on_c, 0, 64, 40
1, 26445, Note_off_c, 0, 49, 64
1, 26534, Note_off_c, 0, 64, 64
1, 26624, Note_off_c, 0, 67, 64
1, 26624, Note_off_c, 0, 46, 64
1, 26624, Note_off_c, 0, 49, 64
1, 26624, Note_off_c, 0, 61, 64
1, 26624, Note_off_c, 0, 67, 64
1, 26624, Note_off_c, 0, 70, 64
1, 26624, Note_on_c, 0, 46, 64
1, 26624, Note_on_c, 0, 49, 64
1, 26624, Note_on_c, 0, 61, 40
1, 26624, Note_on_c, 0, 66, 64
1, 26880, Note_off_c, 0, 61, 64
1, 26880, Note_on_c, 0, 62, 40
1, 26957, Note_off_c, 0, 49, 64
1, 27136, Note_off_c, 0, 76, 64
1, 27136, Note_off_c, 0, 46, 64
1, 27136, Note_off_c, 0, 66, 64
1, 27136, Note_off_c, 0, 62, 64
1, 27136, Note_on_c, 0, 46, 64
1, 27136, Note_on_c, 0, 49, 64
1, 27136, Note_on_c, 0, 64, 40
1, 27136, Note_on_c, 0, 64, 64
1, 27136, Note_on_c, 0, 67, 64
1, 27392, Note_off_c, 0, 64, 64
1, 27392, Note_on_c, 0, 67, 40
1, 27469, Note_off_c, 0, 49, 64
1, 27648, Note_off_c, 0, 46, 64
1, 27648, Note_off_c, 0, 64, 64
1, 27648, Note_off_c, 0, 67, 64
1, 27648, Note_off_c, 0, 67, 64
1, 27648, Note_on_c, 0, 46, 64
1, 27648, Note_on_c, 0, 46, 30
1, 27648, Note_on_c, 0, 55, 64
1, 27648, Note_on_c, 0, 58, 40
1, 27648, Note_on_c, 0, 58, 30
1, 27648, Note_on_c, 0, 61, 30
1, 27648, Note_on_c, 0, 64, 64
1, 27648, Note_on_c, 0, 64, 30
1, 27648, Note_on_c, 0, 67, 30
1, 27776, Note_off_c, 0, 79, 64
1, 27776, Note_on_c, 0, 78, 40
1, 27904, Note_off_c, 0, 78, 64
1, 27904, Note_on_c, 0, 79, 40
1, 27981, Note_off_c, 0, 46, 64
1, 28032, Note_off_c, 0, 79, 64
1, 28032, Note_on_c, 0, 81, 40
1, 28160, Note_off_c, 0, 61, 64
1, 28160, Note_off_c, 0, 46, 64
1, 28160, Note_off_c, 0, 58, 64
1, 28160, Note_off_c, 0, 61, 64
1, 28160, Note_off_c, 0, 64, 64
1, 28160, Note_off_c, 0, 67, 64
1, 28160, Note_off_c, 0, 81, 64
1, 28160, Note_on_c, 0, 46, 64
1, 28160, Note_on_c, 0, 59, 64
1, 28160, Note_on_c, 0, 76, 64
1, 28160, Note_on_c, 0, 79, 40
1, 28288, Note_off_c, 0, 79, 64
1, 28288, Note_on_c, 0, 78, 40
1, 28416, Note_off_c, 0, 76, 64
1, 28416, Note_off_c, 0, 78, 64
1, 28416, Note_on_c, 0, 74, 64
1, 28416, Note_on_c, 0, 76, 40
1, 28493, Note_off_c, 0, 46, 64
1, 28544, Note_off_c, 0, 76, 64
1, 28544, Note_on_c, 0, 74, 40
1, 28672, Note_off_c, 0, 64, 64
1, 28672, Note_off_c, 0, 59, 64
1, 28672, Note_off_c, 0, 74, 64
1, 28672, Note_off_c, 0, 74, 64
1, 28672, Note_on_c, 0, 46, 64
1, 28672, Note_on_c, 0, 58, 64
1, 28672, Note_on_c, 0, 64, 64
1, 28672, Note_on_c, 0, 73, 64
1, 28672, Note_on_c, 0, 76, 40
1, 28800, Note_off_c, 0, 76, 64
1, 28800, Note_on_c, 0, 73, 40
1, 28928, Note_off_c, 0, 73, 64
1, 28928, Note_off_c, 0, 73, 64
1, 28928, Note_on_c, 0, 71, 64
1, 28928, Note_on_c, 0, 74, 40
1, 29005, Note_off_c, 0, 46, 64
1, 29056, Note_off_c, 0, 74, 64
1, 29056, Note_on_c, 0, 76, 40
1, 29184, Note_off_c, 0, 58, 64
1, 29184, Note_off_c, 0, 64, 64
1, 29184, Note_off_c, 0, 76, 64
1, 29184, Note_off_c, 0, 71, 64
1, 29184, Note_on_c, 0, 42, 64
1, 29184, Note_on_c, 0, 42, 30
1, 29184, Note_on_c, 0, 58, 30
1, 29184, Note_on_c, 0, 61, 30
1, 29184, Note_on_c, 0, 64, 64
1, 29184, Note_on_c, 0, 64, 30
1, 29184, Note_on_c, 0, 67, 30
1, 29184, Note_on_c, 0, 70, 40
1, 29184, Note_on_c, 0, 70, 64
1, 29312, Note_off_c, 0, 76, 64
1, 29312, Note_off_c, 0, 70, 64
1, 29312, Note_on_c, 0, 71, 40
1, 29312, Note_on_c, 0, 74, 40
1, 29440, Note_off_c, 0, 76, 64
1, 29440, Note_off_c, 0, 58, 64
1, 29440, Note_off_c, 0, 71, 64
1, 29440, Note_off_c, 0, 74, 64
1, 29440, Note_on_c, 0, 59, 40
1, 29440, Note_on_c, 0, 73, 40
1, 29440, Note_on_c, 0, 73, 40
1, 29440, Note_on_c, 0, 76, 40
1, 29517, Note_off_c, 0, 42, 64
1, 29568, Note_off_c, 0, 73, 64
1, 29568, Note_off_c, 0, 76, 64
1, 29568, Note_on_c, 0, 74, 40
1, 29568, Note_on_c, 0, 78, 40
1, 29696, Note_off_c, 0, 55, 64
1, 29696, Note_off_c, 0, 42, 64
1, 29696, Note_off_c, 0, 67, 64
1, 29696, Note_off_c, 0, 70, 64
1, 29696, Note_off_c, 0, 59, 64
1, 29696, Note_off_c, 0, 73, 64
1, 29696, Note_off_c, 0, 74, 64
1, 29696, Note_off_c, 0, 78, 64
1, 29696, Note_on_c, 0, 42, 64
1, 29696, Note_on_c, 0, 54, 64
1, 29696, Note_on_c, 0, 61, 40
1, 29696, Note_on_c, 0, 61, 64
1, 29696, Note_on_c, 0, 66, 30
1, 29696, Note_on_c, 0, 70, 40
1, 29696, Note_on_c, 0, 70, 64
1, 29696, Note_on_c, 0, 73, 40
1, 29696, Note_on_c, 0, 76, 40
1, 29824, Note_off_c, 0, 73, 64
1, 29824, Note_off_c, 0, 76, 64
1, 29824, Note_on_c, 0, 71, 40
1, 29824, Note_on_c, 0, 74, 40
1, 29952, Note_off_c, 0, 61, 64
1, 29952, Note_off_c, 0, 70, 64
1, 29952, Note_off_c, 0, 71, 64
1, 29952, Note_off_c, 0, 74, 64
1, 29952, Note_on_c, 0, 62, 40
1, 29952, Note_on_c, 0, 70, 40
1, 29952, Note_on_c, 0, 71, 40
1, 29952, Note_on_c, 0, 73, 40
1, 30029, Note_off_c, 0, 42, 64
1, 30080, Note_off_c, 0, 70, 64
1, 30080, Note_off_c, 0, 73, 64
1, 30080, Note_on_c, 0, 68, 40
1, 30080, Note_on_c, 0, 71, 40
1, 30118, Note_off_c, 0, 62, 64
1, 30118, Note_off_c, 0, 71, 64
1, 30208, Note_off_c, 0, 64, 64
1, 30208, Note_off_c, 0, 54, 64
1, 30208, Note_off_c, 0, 61, 64
1, 30208, Note_off_c, 0, 66, 64
1, 30208, Note_off_c, 0, 70, 64
1, 30208, Note_off_c, 0, 68, 64
1, 30208, Note_off_c, 0, 71, 64
1, 30208, Note_on_c, 0, 42, 64
1, 30208, Note_on_c, 0, 52, 64
1, 30208, Note_on_c, 0, 54, 64
1, 30208, Note_on_c, 0, 64, 40
1, 30208, Note_on_c, 0, 66, 40
1, 30208, Note_on_c, 0, 70, 40
1, 30208, Note_on_c, 0, 70, 64
1, 30208, Note_on_c, 0, 73, 40
1, 30336, Note_off_c, 0, 66, 64
1, 30336, Note_off_c, 0, 70, 64
1, 30336, Note_on_c, 0, 70, 40
1, 30336, Note_on_c, 0, 73, 40
1, 30464, Note_off_c, 0, 64, 64
1, 30464, Note_off_c, 0, 73, 64
1, 30464, Note_off_c, 0, 70, 64
1, 30464, Note_off_c, 0, 73, 64
1, 30464, Note_on_c, 0, 61, 40
1, 30464, Note_on_c, 0, 64, 40
1, 30464, Note_on_c, 0, 68, 40
1, 30464, Note_on_c, 0, 71, 40
1, 30541, Note_off_c, 0, 42, 64
1, 30592, Note_off_c, 0, 68, 64
1, 30592, Note_off_c, 0, 71, 64
1, 30592, Note_on_c, 0, 66, 40
1, 30592, Note_on_c, 0, 70, 40
1, 30630, Note_off_c, 0, 61, 64
1, 30630, Note_off_c, 0, 64, 64
1, 30720, Note_off_c, 0, 73, 64
1, 30720, Note_off_c, 0, 58, 64
1, 30720, Note_off_c, 0, 61, 64
1, 30720, Note_off_c, 0, 64, 64
1, 30720, Note_off_c, 0, 52, 64
1, 30720, Note_off_c, 0, 54, 64
1, 30720, Note_off_c, 0, 70, 64
1, 30720, Note_off_c, 0, 66, 64
1, 30720, Note_off_c, 0, 70, 64
1, 30720, Note_on_c, 0, 47, 64
1, 30720, Note_on_c, 0, 47, 30
1, 30720, Note_on_c, 0, 50, 64
1, 30720, Note_on_c, 0, 54, 40
1, 30720, Note_on_c, 0, 59, 30
1, 30720, Note_on_c, 0, 62, 40
1, 30720, Note_on_c, 0, 62, 30
1, 30720, Note_on_c, 0, 71, 40
1, 30720, Note_on_c, 0, 71, 64
1, 30720, Note_on_c, 0, 74, 40
1, 30720, Note_on_c, 0, 78, 40
1, 30848, Note_off_c, 0, 78, 64
1, 30848, Note_on_c, 0, 76, 40
1, 30976, Note_off_c, 0, 76, 64
1, 30976, Note_on_c, 0, 78, 40
1, 31053, Note_off_c, 0, 47, 64
1, 31104, Note_off_c, 0, 78, 64
1, 31104, Note_on_c, 0, 79, 40
1, 31232, Note_off_c, 0, 47, 64
1, 31232, Note_off_c, 0, 59, 64
1, 31232, Note_off_c, 0, 62, 64
1, 31232, Note_off_c, 0, 71, 64
1, 31232, Note_off_c, 0, 74, 64
1, 31232, Note_off_c, 0, 79, 64
1, 31232, Note_on_c, 0, 47, 64
1, 31232, Note_on_c, 0, 59, 64
1, 31232, Note_on_c, 0, 62, 64
1, 31232, Note_on_c, 0, 71, 40
1, 31232, Note_on_c, 0, 71, 64
1, 31232, Note_on_c, 0, 78, 40
1, 31360, Note_off_c, 0, 78, 64
1, 31360, Note_on_c, 0, 76, 40
1, 31488, Note_off_c, 0, 59, 64
1, 31488, Note_off_c, 0, 62, 64
1, 31488, Note_off_c, 0, 71, 64
1, 31488, Note_off_c, 0, 76, 64
1, 31488, Note_on_c, 0, 57, 64
1, 31488, Note_on_c, 0, 64, 64
1, 31488, Note_on_c, 0, 73, 64
1, 31488, Note_on_c, 0, 74, 40
1, 31565, Note_off_c, 0, 47, 64
1, 31616, Note_off_c, 0, 74, 64
1, 31616, Note_on_c, 0, 73, 40
1, 31744, Note_off_c, 0, 50, 64
1, 31744, Note_off_c, 0, 57, 64
1, 31744, Note_off_c, 0, 64, 64
1, 31744, Note_off_c, 0, 73, 64
1, 31744, Note_off_c, 0, 73, 64
1, 31744, Note_on_c, 0, 47, 64
1, 31744, Note_on_c, 0, 50, 64
1, 31744, Note_on_c, 0, 55, 64
1, 31744, Note_on_c, 0, 66, 64
1, 31744, Note_on_c, 0, 71, 40
1, 31744, Note_on_c, 0, 74, 64
1, 31872, Note_off_c, 0, 71, 64
1, 31872, Note_on_c, 0, 74, 40
1, 32000, Note_off_c, 0, 55, 64
1, 32000, Note_off_c, 0, 66, 64
1, 32000, Note_off_c, 0, 74, 64
1, 32000, Note_off_c, 0, 74, 64
1, 32000, Note_on_c, 0, 54, 64
1, 32000, Note_on_c, 0, 62, 64
1, 32000, Note_on_c, 0, 67, 64
1, 32000, Note_on_c, 0, 72, 40
1, 32077, Note_off_c, 0, 47, 64
1, 32128, Note_off_c, 0, 72, 64
1, 32128, Note_on_c, 0, 71, 40
1, 32256, Note_off_c, 0, 54, 64
1, 32256, Note_off_c, 0, 62, 64
1, 32256, Note_off_c, 0, 50, 64
1, 32256, Note_off_c, 0, 71, 64
1, 32256, Note_off_c, 0, 54, 64
1, 32256, Note_off_c, 0, 62, 64
1, 32256, Note_off_c, 0, 67, 64
1, 32256, Note_on_c, 0, 47, 64
1, 32256, Note_on_c, 0, 47, 30
1, 32256, Note_on_c, 0, 52, 64
1, 32256, Note_on_c, 0, 55, 40
1, 32256, Note_on_c, 0, 59, 30
1, 32256, Note_on_c, 0, 62, 30
1, 32256, Note_on_c, 0, 64, 40
1, 32256, Note_on_c, 0, 67, 64
1, 32256, Note_on_c, 0, 67, 30
1, 32256, Note_on_c, 0, 76, 64
1, 32256, Note_on_c, 0, 79, 40
1, 32384, Note_off_c, 0, 71, 64
1, 32384, Note_on_c, 0, 69, 40
1, 32512, Note_off_c, 0, 52, 64
1, 32512, Note_off_c, 0, 69, 64
1, 32512, Note_on_c, 0, 54, 64
1, 32512, Note_on_c, 0, 71, 40
1, 32589, Note_off_c, 0, 47, 64
1, 32640, Note_off_c, 0, 71, 64
1, 32640, Note_on_c, 0, 72, 40
1, 32768, Note_off_c, 0, 47, 64
1, 32768, Note_off_c, 0, 59, 64
1, 32768, Note_off_c, 0, 62, 64
1, 32768, Note_off_c, 0, 67, 64
1, 32768, Note_off_c, 0, 54, 64
1, 32768, Note_off_c, 0, 72, 64
1, 32768, Note_on_c, 0, 47, 64
1, 32768, Note_on_c, 0, 52, 64
1, 32768, Note_on_c, 0, 55, 64
1, 32768, Note_on_c, 0, 71, 40
1, 32896, Note_off_c, 0, 71, 64
1, 32896, Note_on_c, 0, 69, 40
1, 33024, Note_off_c, 0, 52, 64
1, 33024, Note_off_c, 0, 55, 64
1, 33024, Note_off_c, 0, 69, 64
1, 33024, Note_on_c, 0, 54, 64
1, 33024, Note_on_c, 0, 57, 64
1, 33024, Note_on_c, 0, 67, 40
1, 33101, Note_off_c, 0, 47, 64
1, 33152, Note_off_c, 0, 67, 64
1, 33152, Note_on_c, 0, 66, 40
1, 33280, Note_off_c, 0, 54, 64
1, 33280, Note_off_c, 0, 57, 64
1, 33280, Note_off_c, 0, 66, 64
1, 33280, Note_on_c, 0, 47, 64
1, 33280, Note_on_c, 0, 55, 64
1, 33280, Note_on_c, 0, 59, 64
1, 33280, Note_on_c, 0, 64, 40
1, 33408, Note_off_c, 0, 64, 64
1, 33408, Note_on_c, 0, 67, 40
1, 33536, Note_off_c, 0, 71, 64
1, 33536, Note_off_c, 0, 55, 64
1, 33536, Note_off_c, 0, 59, 64
1, 33536, Note_off_c, 0, 67, 64
1, 33536, Note_on_c, 0, 52, 64
1, 33536, Note_on_c, 0, 55, 64
1, 33536, Note_on_c, 0, 66, 40
1, 33536, Note_on_c, 0, 71, 40
1, 33613, Note_off_c, 0, 47, 64
1, 33664, Note_off_c, 0, 66, 64
1, 33664, Note_on_c, 0, 64, 40
1, 33792, Note_off_c, 0, 52, 64
1, 33792, Note_off_c, 0, 55, 64
1, 33792, Note_off_c, 0, 71, 64
1, 33792, Note_off_c, 0, 64, 64
1, 33792, Note_on_c, 0, 47, 64
1, 33792, Note_on_c, 0, 47, 30
1, 33792, Note_on_c, 0, 58, 64
1, 33792, Note_on_c, 0, 61, 64
1, 33792, Note_on_c, 0, 61, 30
1, 33792, Note_on_c, 0, 64, 30
1, 33792, Note_on_c, 0, 70, 30
1, 33792, Note_on_c, 0, 73, 40
1, 33792, Note_on_c, 0, 76, 40
1, 33920, Note_off_c, 0, 79, 64
1, 33920, Note_on_c, 0, 76, 40
1, 34001, Note_off_c, 0, 76, 64
1, 34048, Note_off_c, 0, 55, 64
1, 34048, Note_off_c, 0, 76, 64
1, 34048, Note_on_c, 0, 59, 40
1, 34048, Note_on_c, 0, 74, 40
1, 34048, Note_on_c, 0, 76, 40
1, 34125, Note_off_c, 0, 47, 64
1, 34176, Note_off_c, 0, 76, 64
1, 34176, Note_on_c, 0, 78, 40
1, 34214, Note_off_c, 0, 74, 64
1, 34257, Note_off_c, 0, 78, 64
1, 34304, Note_off_c, 0, 67, 64
1, 34304, Note_off_c, 0, 47, 64
1, 34304, Note_off_c, 0, 58, 64
1, 34304, Note_off_c, 0, 61, 64
1, 34304, Note_off_c, 0, 61, 64
1, 34304, Note_off_c, 0, 64, 64
1, 34304, Note_off_c, 0, 70, 64
1, 34304, Note_off_c, 0, 59, 64
1, 34304, Note_on_c, 0, 47, 64
1, 34304, Note_on_c, 0, 54, 64
1, 34304, Note_on_c, 0, 58, 40
1, 34304, Note_on_c, 0, 58, 64
1, 34304, Note_on_c, 0, 61, 64
1, 34304, Note_on_c, 0, 73, 40
1, 34304, Note_on_c, 0, 78, 40
1, 34432, Note_off_c, 0, 78, 64
1, 34432, Note_on_c, 0, 74, 40
1, 34513, Note_off_c, 0, 74, 64
1, 34560, Note_off_c, 0, 73, 64
1, 34560, Note_on_c, 0, 71, 40
1, 34560, Note_on_c, 0, 74, 40
1, 34637, Note_off_c, 0, 47, 64
1, 34688, Note_off_c, 0, 74, 64
1, 34688, Note_on_c, 0, 76, 40
1, 34726, Note_off_c, 0, 71, 64
1, 34769, Note_off_c, 0, 76, 64
1, 34816, Note_off_c, 0, 76, 64
1, 34816, Note_off_c, 0, 54, 64
1, 34816, Note_off_c, 0, 58, 64
1, 34816, Note_off_c, 0, 61, 64
1, 34816, Note_on_c, 0, 47, 64
1, 34816, Note_on_c, 0, 58, 64
1, 34816, Note_on_c, 0, 61, 64
1, 34816, Note_on_c, 0, 66, 64
1, 34816, Note_on_c, 0, 70, 40
1, 34816, Note_on_c, 0, 76, 40
1, 34816, Note_on_c, 0, 76, 64
1, 34944, Note_off_c, 0, 76, 64
1, 34944, Note_on_c, 0, 73, 40
1, 35025, Note_off_c, 0, 73, 64
1, 35072, Note_off_c, 0, 70, 64
1, 35072, Note_on_c, 0, 73, 40
1, 35072, Note_on_c, 0, 73, 40
1, 35149, Note_off_c, 0, 47, 64
1, 35200, Note_off_c, 0, 73, 64
1, 35200, Note_on_c, 0, 74, 40
1, 35238, Note_off_c, 0, 73, 64
1, 35281, Note_off_c, 0, 74, 64
1, 35328, Note_off_c, 0, 64, 64
1, 35328, Note_off_c, 0, 58, 64
1, 35328, Note_off_c, 0, 58, 64
1, 35328, Note_off_c, 0, 61, 64
1, 35328, Note_off_c, 0, 66, 64
1, 35328, Note_off_c, 0, 76, 64
1, 35328, Note_on_c, 0, 47, 64
1, 35328, Note_on_c, 0, 47, 30
1, 35328, Note_on_c, 0, 59, 64
1, 35328, Note_on_c, 0, 59, 40
1, 35328, Note_on_c, 0, 59, 64
1, 35328, Note_on_c, 0, 62, 40
1, 35328, Note_on_c, 0, 62, 30
1, 35328, Note_on_c, 0, 66, 40
1, 35328, Note_on_c, 0, 66, 64
1, 35328, Note_on_c, 0, 66, 30
1, 35328, Note_on_c, 0, 71, 30
1, 35328, Note_on_c, 0, 74, 40
1, 35328, Note_on_c, 0, 74, 64
1, 35456, Note_off_c, 0, 73, 64
1, 35456, Note_on_c, 0, 70, 40
1, 35537, Note_off_c, 0, 70, 64
1, 35584, Note_on_c, 0, 70, 40
1, 35661, Note_off_c, 0, 47, 64
1, 35712, Note_off_c, 0, 70, 64
1, 35712, Note_on_c, 0, 71, 40
1, 35793, Note_off_c, 0, 71, 64
1, 35840, Note_off_c, 0, 47, 64
1, 35840, Note_off_c, 0, 59, 64
1, 35840, Note_off_c, 0, 59, 64
1, 35840, Note_off_c, 0, 59, 64
1, 35840, Note_off_c, 0, 62, 64
1, 35840, Note_off_c, 0, 62, 64
1, 35840, Note_off_c, 0, 66, 64
1, 35840, Note_off_c, 0, 66, 64
1, 35840, Note_off_c, 0, 71, 64
1, 35840, Note_off_c, 0, 74, 64
1, 35840, Note_off_c, 0, 74, 64
1, 35840, Note_on_c, 0, 47, 64
1, 35840, Note_on_c, 0, 54, 64
1, 35840, Note_on_c, 0, 54, 40
1, 35840, Note_on_c, 0, 59, 64
1, 35840, Note_on_c, 0, 66, 40
1, 35840, Note_on_c, 0, 71, 40
1, 35840, Note_on_c, 0, 71, 40
1, 35840, Note_on_c, 0, 71, 64
1, 35840, Note_on_c, 0, 75, 40
1, 35968, Note_off_c, 0, 71, 64
1, 35968, Note_on_c, 0, 67, 40
1, 36049, Note_off_c, 0, 67, 64
1, 36096, Note_off_c, 0, 54, 64
1, 36096, Note_on_c, 0, 52, 64
1, 36096, Note_on_c, 0, 67, 40
1, 36173, Note_off_c, 0, 47, 64
1, 36224, Note_off_c, 0, 67, 64
1, 36224, Note_on_c, 0, 69, 40
1, 36305, Note_off_c, 0, 69, 64
1, 36352, Note_off_c, 0, 66, 64
1, 36352, Note_off_c, 0, 54, 64
1, 36352, Note_off_c, 0, 59, 64
1, 36352, Note_off_c, 0, 71, 64
1, 36352, Note_off_c, 0, 52, 64
1, 36352, Note_on_c, 0, 47, 64
1, 36352, Note_on_c, 0, 51, 64
1, 36352, Note_on_c, 0, 57, 40
1, 36352, Note_on_c, 0, 57, 64
1, 36352, Note_on_c, 0, 66, 64
1, 36352, Note_on_c, 0, 69, 40
1, 36352, Note_on_c, 0, 72, 64
1, 36480, Note_off_c, 0, 69, 64
1, 36480, Note_on_c, 0, 66, 40
1, 36561, Note_off_c, 0, 66, 64
1, 36608, Note_off_c, 0, 51, 64
1, 36608, Note_off_c, 0, 72, 64
1, 36608, Note_on_c, 0, 52, 64
1, 36608, Note_on_c, 0, 66, 40
1, 36608, Note_on_c, 0, 71, 64
1, 36685, Note_off_c, 0, 47, 64
1, 36736, Note_off_c, 0, 52, 64
1, 36736, Note_off_c, 0, 66, 64
1, 36736, Note_on_c, 0, 54, 64
1, 36736, Note_on_c, 0, 67, 40
1, 36817, Note_off_c, 0, 67, 64
1, 36864, Note_off_c, 0, 66, 64
1, 36864, Note_off_c, 0, 75, 64
1, 36864, Note_off_c, 0, 57, 64
1, 36864, Note_off_c, 0, 57, 64
1, 36864, Note_off_c, 0, 66, 64
1, 36864, Note_off_c, 0, 71, 64
1, 36864, Note_off_c, 0, 54, 64
1, 36864, Note_on_c, 0, 47, 64
1, 36864, Note_on_c, 0, 47, 64
1, 36864, Note_on_c, 0, 47, 30
1, 36864, Note_on_c, 0, 55, 40
1, 36864, Note_on_c, 0, 55, 64
1, 36864, Note_on_c, 0, 55, 30
1, 36864, Note_on_c, 0, 64, 40
1, 36864, Note_on_c, 0, 64, 64
1, 36864, Note_on_c, 0, 66, 30
1, 36864, Note_on_c, 0, 67, 40
1, 36864, Note_on_c, 0, 71, 64
1, 36864, Note_on_c, 0, 76, 40
1, 36992, Note_off_c, 0, 67, 64
1, 36992, Note_on_c, 0, 64, 40
1, 37073, Note_off_c, 0, 64, 64
1, 37120, Note_off_c, 0, 71, 64
1, 37120, Note_off_c, 0, 55, 64
1, 37120, Note_off_c, 0, 55, 64
1, 37120, Note_off_c, 0, 64, 64
1, 37120, Note_off_c, 0, 64, 64
1, 37120, Note_off_c, 0, 71, 64
1, 37120, Note_on_c, 0, 54, 41
1, 37120, Note_on_c, 0, 54, 65
1, 37120, Note_on_c, 0, 64, 40
1, 37120, Note_on_c, 0, 66, 41
1, 37120, Note_on_c, 0, 66, 65
1, 37120, Note_on_c, 0, 69, 41
1, 37120, Note_on_c, 0, 69, 65
1, 37197, Note_off_c, 0, 47, 64
1, 37248, Note_off_c, 0, 64, 64
1, 37248, Note_on_c, 0, 74, 40
1, 37286, Note_off_c, 0, 54, 64
1, 37329, Note_off_c, 0, 74, 64
1, 37376, Note_off_c, 0, 47, 64
1, 37376, Note_off_c, 0, 47, 64
1, 37376, Note_off_c, 0, 55, 64
1, 37376, Note_off_c, 0, 66, 64
1, 37376, Note_off_c, 0, 76, 64
1, 37376, Note_off_c, 0, 54, 64
1, 37376, Note_off_c, 0, 66, 64
1, 37376, Note_off_c, 0, 66, 64
1, 37376, Note_off_c, 0, 69, 64
1, 37376, Note_off_c, 0, 69, 64
1, 37376, Note_on_c, 0, 53, 42
1, 37376, Note_on_c, 0, 53, 65
1, 37376, Note_on_c, 0, 56, 30
1, 37376, Note_on_c, 0, 59, 65
1, 37376, Note_on_c, 0, 59, 64
1, 37376, Note_on_c, 0, 59, 30
1, 37376, Note_on_c, 0, 65, 30
1, 37376, Note_on_c, 0, 68, 42
1, 37376, Note_on_c, 0, 68, 65
1, 37376, Note_on_c, 0, 74, 40
1, 37376, Note_on_c, 0, 74, 42
1, 37376, Note_on_c, 0, 74, 65
1, 37376, Note_on_c, 0, 77, 40
1, 37504, Note_off_c, 0, 74, 64
1, 37504, Note_on_c, 0, 71, 40
1, 37585, Note_off_c, 0, 71, 64
1, 37632, Note_off_c, 0, 53, 64
1, 37632, Note_off_c, 0, 53, 64
1, 37632, Note_on_c, 0, 56, 43
1, 37632, Note_on_c, 0, 56, 66
1, 37632, Note_on_c, 0, 71, 40
1, 37709, Note_off_c, 0, 59, 64
1, 37760, Note_off_c, 0, 71, 64
1, 37760, Note_on_c, 0, 73, 40
1, 37798, Note_off_c, 0, 56, 64
1, 37841, Note_off_c, 0, 73, 64
1, 37888, Note_off_c, 0, 56, 64
1, 37888, Note_off_c, 0, 59, 64
1, 37888, Note_off_c, 0, 59, 64
1, 37888, Note_off_c, 0, 65, 64
1, 37888, Note_off_c, 0, 68, 64
1, 37888, Note_off_c, 0, 68, 64
1, 37888, Note_off_c, 0, 56, 64
1, 37888, Note_on_c, 0, 57, 67
1, 37888, Note_on_c, 0, 57, 64
1, 37888, Note_on_c, 0, 57, 30
1, 37888, Note_on_c, 0, 57, 30
1, 37888, Note_on_c, 0, 61, 44
1, 37888, Note_on_c, 0, 61, 67
1, 37888, Note_on_c, 0, 61, 30
1, 37888, Note_on_c, 0, 66, 30
1, 37888, Note_on_c, 0, 69, 44
1, 37888, Note_on_c, 0, 69, 67
1, 37888, Note_on_c, 0, 73, 40
1, 38016, Note_off_c, 0, 73, 64
1, 38016, Note_on_c, 0, 69, 40
1, 38097, Note_off_c, 0, 69, 64
1, 38144, Note_off_c, 0, 61, 64
1, 38144, Note_off_c, 0, 61, 64
1, 38144, Note_on_c, 0, 59, 45
1, 38144, Note_on_c, 0, 59, 67
1, 38144, Note_on_c, 0, 69, 40
1, 38221, Note_off_c, 0, 57, 64
1, 38272, Note_off_c, 0, 69, 64
1, 38272, Note_on_c, 0, 71, 40
1, 38310, Note_off_c, 0, 59, 64
1, 38353, Note_off_c, 0, 71, 64
1, 38400, Note_off_c, 0, 74, 64
1, 38400, Note_off_c, 0, 57, 64
1, 38400, Note_off_c, 0, 57, 64
1, 38400, Note_off_c, 0, 57, 64
1, 38400, Note_off_c, 0, 61, 64
1, 38400, Note_off_c, 0, 66, 64
1, 38400, Note_off_c, 0, 69, 64
1, 38400, Note_off_c, 0, 69, 64
1, 38400, Note_off_c, 0, 59, 64
1, 38400, Note_on_c, 0, 56, 68
1, 38400, Note_on_c, 0, 56, 64
1, 38400, Note_on_c, 0, 56, 30
1, 38400, Note_on_c, 0, 56, 30
1, 38400, Note_on_c, 0, 62, 46
1, 38400, Note_on_c, 0, 62, 68
1, 38400, Note_on_c, 0, 62, 30
1, 38400, Note_on_c, 0, 65, 30
1, 38400, Note_on_c, 0, 71, 40
1, 38400, Note_on_c, 0, 71, 46
1, 38400, Note_on_c, 0, 71, 68
1, 38528, Note_off_c, 0, 77, 64
1, 38528, Note_off_c, 0, 71, 64
1, 38528, Note_on_c, 0, 68, 40
1, 38528, Note_on_c, 0, 71, 40
1, 38609, Note_off_c, 0, 68, 64
1, 38609, Note_off_c, 0, 71, 64
1, 38656, Note_off_c, 0, 74, 64
1, 38656, Note_on_c, 0, 66, 47
1, 38656, Note_on_c, 0, 68, 40
1, 38656, Note_on_c, 0, 71, 40
1, 38733, Note_off_c, 0, 56, 64
1, 38784, Note_off_c, 0, 68, 64
1, 38784, Note_off_c, 0, 71, 64
1, 38784, Note_on_c, 0, 83, 40
1, 38784, Note_on_c, 0, 86, 40
1, 38865, Note_off_c, 0, 83, 64
1, 38865, Note_off_c, 0, 86, 64
1, 38912, Note_off_c, 0, 56, 64
1, 38912, Note_off_c, 0, 56, 64
1, 38912, Note_off_c, 0, 56, 64
1, 38912, Note_off_c, 0, 62, 64
1, 38912, Note_off_c, 0, 65, 64
1, 38912, Note_off_c, 0, 71, 64
1, 38912, Note_off_c, 0, 71, 64
1, 38912, Note_off_c, 0, 66, 64
1, 38912, Note_on_c, 0, 53, 69
1, 38912, Note_on_c, 0, 53, 64
1, 38912, Note_on_c, 0, 53, 30
1, 38912, Note_on_c, 0, 53, 30
1, 38912, Note_on_c, 0, 59, 30
1, 38912, Note_on_c, 0, 62, 30
1, 38912, Note_on_c, 0, 68, 48
1, 38912, Note_on_c, 0, 68, 48
1, 38912, Note_on_c, 0, 68, 69
1, 38912, Note_on_c, 0, 68, 69
1, 38912, Note_on_c, 0, 83, 40
1, 38912, Note_on_c, 0, 86, 40
1, 39040, Note_off_c, 0, 83, 64
1, 39040, Note_off_c, 0, 86, 64
1, 39040, Note_on_c, 0, 80, 40
1, 39040, Note_on_c, 0, 83, 40
1, 39121, Note_off_c, 0, 80, 64
1, 39121, Note_off_c, 0, 83, 64
1, 39168, Note_off_c, 0, 68, 64
1, 39168, Note_off_c, 0, 68, 64
1, 39168, Note_on_c, 0, 66, 49
1, 39168, Note_on_c, 0, 66, 70
1, 39168, Note_on_c, 0, 80, 40
1, 39168, Note_on_c, 0, 83, 40
1, 39245, Note_off_c, 0, 53, 64
1, 39296, Note_off_c, 0, 80, 64
1, 39296, Note_off_c, 0, 83, 64
1, 39296, Note_on_c, 0, 81, 40
1, 39296, Note_on_c, 0, 85, 40
1, 39334, Note_off_c, 0, 66, 64
1, 39377, Note_off_c, 0, 81, 64
1, 39377, Note_off_c, 0, 85, 64
1, 39424, Note_off_c, 0, 62, 64
1, 39424, Note_off_c, 0, 62, 64
1, 39424, Note_off_c, 0, 53, 64
1, 39424, Note_off_c, 0, 53, 64
1, 39424, Note_off_c, 0, 53, 64
1, 39424, Note_off_c, 0, 59, 64
1, 39424, Note_off_c, 0, 62, 64
1, 39424, Note_off_c, 0, 68, 64
1, 39424, Note_off_c, 0, 68, 64
1, 39424, Note_off_c, 0, 66, 64
1, 39424, Note_on_c, 0, 54, 71
1, 39424, Note_on_c, 0, 54, 64
1, 39424, Note_on_c, 0, 54, 30
1, 39424, Note_on_c, 0, 54, 30
1, 39424, Note_on_c, 0, 57, 50
1, 39424, Note_on_c, 0, 57, 71
1, 39424, Note_on_c, 0, 57, 30
1, 39424, Note_on_c, 0, 61, 50
1, 39424, Note_on_c, 0, 61, 71
1, 39424, Note_on_c, 0, 61, 30
1, 39424, Note_on_c, 0, 65, 50
1, 39424, Note_on_c, 0, 65, 71
1, 39424, Note_on_c, 0, 81, 40
1, 39424, Note_on_c, 0, 85, 40
1, 39552, Note_off_c, 0, 81, 64
1, 39552, Note_off_c, 0, 85, 64
1, 39552, Note_on_c, 0, 78, 40
1, 39552, Note_on_c, 0, 81, 40
1, 39633, Note_off_c, 0, 78, 64
1, 39633, Note_off_c, 0, 81, 64
1, 39680, Note_off_c, 0, 57, 64
1, 39680, Note_off_c, 0, 57, 64
1, 39680, Note_off_c, 0, 65, 64
1, 39680, Note_off_c, 0, 65, 64
1, 39680, Note_on_c, 0, 59, 51
1, 39680, Note_on_c, 0, 59, 71
1, 39680, Note_on_c, 0, 66, 51
1, 39680, Note_on_c, 0, 66, 71
1, 39680, Note_on_c, 0, 78, 40
1, 39680, Note_on_c, 0, 81, 40
1, 39757, Note_off_c, 0, 54, 64
1, 39808, Note_off_c, 0, 59, 64
1, 39808, Note_off_c, 0, 59, 64
1, 39808, Note_off_c, 0, 78, 64
1, 39808, Note_off_c, 0, 81, 64
1, 39808, Note_on_c, 0, 61, 52
1, 39808, Note_on_c, 0, 61, 72
1, 39808, Note_on_c, 0, 79, 40
1, 39808, Note_on_c, 0, 83, 40
1, 39846, Note_off_c, 0, 66, 64
1, 39889, Note_off_c, 0, 79, 64
1, 39889, Note_off_c, 0, 83, 64
1, 39936, Note_off_c, 0, 54, 64
1, 39936, Note_off_c, 0, 54, 64
1, 39936, Note_off_c, 0, 54, 64
1, 39936, Note_off_c, 0, 57, 64
1, 39936, Note_off_c, 0, 61, 64
1, 39936, Note_off_c, 0, 61, 64
1, 39936, Note_off_c, 0, 61, 64
1, 39936, Note_off_c, 0, 66, 64
1, 39936, Note_off_c, 0, 61, 64
1, 39936, Note_off_c, 0, 61, 64
1, 39936, Note_on_c, 0, 47, 72
1, 39936, Note_on_c, 0, 47, 64
1, 39936, Note_on_c, 0, 47, 30
1, 39936, Note_on_c, 0, 55, 30
1, 39936, Note_on_c, 0, 59, 52
1, 39936, Note_on_c, 0, 59, 72
1, 39936, Note_on_c, 0, 66, 30
1, 39936, Note_on_c, 0, 67, 52
1, 39936, Note_on_c, 0, 67, 72
1, 39936, Note_on_c, 0, 74, 52
1, 39936, Note_on_c, 0, 74, 72
1, 39936, Note_on_c, 0, 79, 40
1, 39936, Note_on_c, 0, 83, 40
1, 40064, Note_off_c, 0, 79, 64
1, 40064, Note_on_c, 0, 77, 40
1, 40145, Note_off_c, 0, 77, 64
1, 40192, Note_on_c, 0, 77, 40
1, 40269, Note_off_c, 0, 47, 64
1, 40320, Note_off_c, 0, 77, 64
1, 40320, Note_on_c, 0, 78, 40
1, 40401, Note_off_c, 0, 78, 64
1, 40448, Note_off_c, 0, 47, 64
1, 40448, Note_off_c, 0, 47, 64
1, 40448, Note_off_c, 0, 55, 64
1, 40448, Note_off_c, 0, 66, 64
1, 40448, Note_off_c, 0, 67, 64
1, 40448, Note_off_c, 0, 67, 64
1, 40448, Note_off_c, 0, 74, 64
1, 40448, Note_off_c, 0, 74, 64
1, 40448, Note_on_c, 0, 44, 73
1, 40448, Note_on_c, 0, 44, 64
1, 40448, Note_on_c, 0, 44, 30
1, 40448, Note_on_c, 0, 56, 30
1, 40448, Note_on_c, 0, 59, 54
1, 40448, Note_on_c, 0, 59, 73
1, 40448, Note_on_c, 0, 65, 30
1, 40448, Note_on_c, 0, 73, 54
1, 40448, Note_on_c, 0, 73, 73
1, 40448, Note_on_c, 0, 78, 40
1, 40576, Note_off_c, 0, 78, 64
1, 40576, Note_on_c, 0, 71, 40
1, 40657, Note_off_c, 0, 71, 64
1, 40704, Note_off_c, 0, 59, 64
1, 40704, Note_off_c, 0, 59, 64
1, 40704, Note_off_c, 0, 73, 64
1, 40704, Note_off_c, 0, 73, 64
1, 40704, Note_on_c, 0, 62, 55
1, 40704, Note_on_c, 0, 62, 74
1, 40704, Note_on_c, 0, 71, 40
1, 40704, Note_on_c, 0, 71, 55
1, 40704, Note_on_c, 0, 71, 74
1, 40781, Note_off_c, 0, 44, 64
1, 40832, Note_off_c, 0, 71, 64
1, 40832, Note_on_c, 0, 77, 40
1, 40870, Note_off_c, 0, 71, 64
1, 40913, Note_off_c, 0, 77, 64
1, 40960, Note_off_c, 0, 44, 64
1, 40960, Note_off_c, 0, 44, 64
1, 40960, Note_off_c, 0, 59, 64
1, 40960, Note_off_c, 0, 59, 64
1, 40960, Note_off_c, 0, 62, 64
1, 40960, Note_off_c, 0, 62, 64
1, 40960, Note_off_c, 0, 71, 64
1, 40960, Note_on_c, 0, 49, 75
1, 40960, Note_on_c, 0, 49, 64
1, 40960, Note_on_c, 0, 49, 30
1, 40960, Note_on_c, 0, 53, 56
1, 40960, Note_on_c, 0, 53, 75
1, 40960, Note_on_c, 0, 59, 30
1, 40960, Note_on_c, 0, 61, 56
1, 40960, Note_on_c, 0, 61, 75
1, 40960, Note_on_c, 0, 69, 56
1, 40960, Note_on_c, 0, 69, 75
1, 40960, Note_on_c, 0, 77, 40
1, 41088, Note_off_c, 0, 77, 64
1, 41088, Note_on_c, 0, 73, 40
1, 41169, Note_off_c, 0, 73, 64
1, 41216, Note_off_c, 0, 53, 64
1, 41216, Note_off_c, 0, 53, 64
1, 41216, Note_off_c, 0, 69, 64
1, 41216, Note_off_c, 0, 69, 64
1, 41216, Note_on_c, 0, 56, 57
1, 41216, Note_on_c, 0, 56, 75
1, 41216, Note_on_c, 0, 68, 57
1, 41216, Note_on_c, 0, 68, 75
1, 41216, Note_on_c, 0, 73, 40
1, 41293, Note_off_c, 0, 49, 64
1, 41344, Note_off_c, 0, 73, 64
1, 41344, Note_on_c, 0, 77, 40
1, 41382, Note_off_c, 0, 56, 64
1, 41382, Note_off_c, 0, 68, 64
1, 41425, Note_off_c, 0, 77, 64
1, 41472, Note_off_c, 0, 56, 64
1, 41472, Note_off_c, 0, 65, 64
1, 41472, Note_off_c, 0, 49, 64
1, 41472, Note_off_c, 0, 49, 64
1, 41472, Note_off_c, 0, 59, 64
1, 41472, Note_off_c, 0, 56, 64
1, 41472, Note_off_c, 0, 68, 64
1, 41472, Note_on_c, 0, 42, 76
1, 41472, Note_on_c, 0, 42, 64
1, 41472, Note_on_c, 0, 42, 30
1, 41472, Note_on_c, 0, 54, 58
1, 41472, Note_on_c, 0, 54, 76
1, 41472, Note_on_c, 0, 54, 30
1, 41472, Note_on_c, 0, 57, 30
1, 41472, Note_on_c, 0, 61, 30
1, 41472, Note_on_c, 0, 73, 58
1, 41472, Note_on_c, 0, 73, 76
1, 41472, Note_on_c, 0, 78, 40
1, 41600, Note_off_c, 0, 83, 64
1, 41600, Note_on_c, 0, 80, 40
1, 41728, Note_off_c, 0, 61, 64
1, 41728, Note_off_c, 0, 61, 64
1, 41728, Note_off_c, 0, 54, 64
1, 41728, Note_off_c, 0, 54, 64
1, 41728, Note_off_c, 0, 80, 64
1, 41728, Note_on_c, 0, 49, 59
1, 41728, Note_on_c, 0, 49, 77
1, 41728, Note_on_c, 0, 66, 59
1, 41728, Note_on_c, 0, 66, 77
1, 41728, Note_on_c, 0, 81, 40
1, 41805, Note_off_c, 0, 42, 64
1, 41856, Note_off_c, 0, 81, 64
1, 41856, Note_on_c, 0, 78, 40
1, 41984, Note_off_c, 0, 42, 64
1, 41984, Note_off_c, 0, 42, 64
1, 41984, Note_off_c, 0, 54, 64
1, 41984, Note_off_c, 0, 57, 64
1, 41984, Note_off_c, 0, 61, 64
1, 41984, Note_off_c, 0, 78, 64
1, 41984, Note_off_c, 0, 49, 64
1, 41984, Note_off_c, 0, 49, 64
1, 41984, Note_off_c, 0, 66, 64
1, 41984, Note_off_c, 0, 66, 64
1, 41984, Note_on_c, 0, 49, 64
1, 41984, Note_on_c, 0, 49, 30
1, 41984, Note_on_c, 0, 54, 30
1, 41984, Note_on_c, 0, 56, 30
1, 41984, Note_on_c, 0, 61, 60
1, 41984, Note_on_c, 0, 61, 77
1, 41984, Note_on_c, 0, 61, 30
1, 41984, Note_on_c, 0, 66, 60
1, 41984, Note_on_c, 0, 66, 77
1, 41984, Note_on_c, 0, 80, 40
1, 42112, Note_off_c, 0, 78, 64
1, 42112, Note_on_c, 0, 77, 40
1, 42240, Note_off_c, 0, 73, 64
1, 42240, Note_off_c, 0, 73, 64
1, 42240, Note_off_c, 0, 66, 64
1, 42240, Note_off_c, 0, 66, 64
1, 42240, Note_off_c, 0, 77, 64
1, 42240, Note_on_c, 0, 59, 61
1, 42240, Note_on_c, 0, 59, 78
1, 42240, Note_on_c, 0, 74, 61
1, 42240, Note_on_c, 0, 74, 78
1, 42240, Note_on_c, 0, 78, 40
1, 42317, Note_off_c, 0, 49, 64
1, 42368, Note_off_c, 0, 74, 64
1, 42368, Note_off_c, 0, 74, 64
1, 42368, Note_off_c, 0, 78, 64
1, 42368, Note_on_c, 0, 73, 62
1, 42368, Note_on_c, 0, 73, 78
1, 42368, Note_on_c, 0, 75, 40
1, 42406, Note_off_c, 0, 59, 64
1, 42496, Note_off_c, 0, 49, 64
1, 42496, Note_off_c, 0, 54, 64
1, 42496, Note_off_c, 0, 61, 64
1, 42496, Note_off_c, 0, 61, 64
1, 42496, Note_off_c, 0, 59, 64
1, 42496, Note_off_c, 0, 73, 64
1, 42496, Note_off_c, 0, 73, 64
1, 42496, Note_off_c, 0, 75, 64
1, 42496, Note_on_c, 0, 37, 64
1, 42496, Note_on_c, 0, 37, 30
1, 42496, Note_on_c, 0, 53, 30
1, 42496, Note_on_c, 0, 56, 79
1, 42496, Note_on_c, 0, 56, 62
1, 42496, Note_on_c, 0, 56, 79
1, 42496, Note_on_c, 0, 62, 62
1, 42496, Note_on_c, 0, 62, 79
1, 42496, Note_on_c, 0, 71, 62
1, 42496, Note_on_c, 0, 71, 79
1, 42496, Note_on_c, 0, 78, 40
1, 42560, Note_off_c, 0, 78, 64
1, 42560, Note_on_c, 0, 77, 40
1, 42624, Note_off_c, 0, 71, 64
1, 42624, Note_off_c, 0, 71, 64
1, 42624, Note_off_c, 0, 77, 64
1, 42624, Note_on_c, 0, 69, 63
1, 42624, Note_on_c, 0, 69, 79
1, 42624, Note_on_c, 0, 78, 40
1, 42688, Note_off_c, 0, 78, 64
1, 42688, Note_on_c, 0, 77, 40
1, 42752, Note_off_c, 0, 80, 64
1, 42752, Note_off_c, 0, 56, 64
1, 42752, Note_off_c, 0, 62, 64
1, 42752, Note_off_c, 0, 62, 64
1, 42752, Note_off_c, 0, 69, 64
1, 42752, Note_off_c, 0, 69, 64
1, 42752, Note_off_c, 0, 77, 64
1, 42752, Note_on_c, 0, 53, 79
1, 42752, Note_on_c, 0, 61, 63
1, 42752, Note_on_c, 0, 61, 79
1, 42752, Note_on_c, 0, 71, 63
1, 42752, Note_on_c, 0, 71, 79
1, 42752, Note_on_c, 0, 78, 40
1, 42752, Note_on_c, 0, 78, 40
1, 42816, Note_off_c, 0, 78, 64
1, 42816, Note_on_c, 0, 77, 40
1, 42829, Note_off_c, 0, 37, 64
1, 42880, Note_off_c, 0, 77, 64
1, 42880, Note_on_c, 0, 78, 40
1, 42918, Note_off_c, 0, 61, 64
1, 43008, Note_off_c, 0, 56, 64
1, 43008, Note_off_c, 0, 61, 64
1, 43008, Note_off_c, 0, 37, 64
1, 43008, Note_off_c, 0, 53, 64
1, 43008, Note_off_c, 0, 56, 64
1, 43008, Note_off_c, 0, 56, 64
1, 43008, Note_off_c, 0, 53, 64
1, 43008, Note_off_c, 0, 61, 64
1, 43008, Note_off_c, 0, 71, 64
1, 43008, Note_off_c, 0, 71, 64
1, 43008, Note_off_c, 0, 78, 64
1, 43008, Note_off_c, 0, 78, 64
1, 43008, Note_on_c, 0, 42, 64
1, 43008, Note_on_c, 0, 42, 30
1, 43008, Note_on_c, 0, 49, 80
1, 43008, Note_on_c, 0, 54, 30
1, 43008, Note_on_c, 0, 57, 64
1, 43008, Note_on_c, 0, 57, 80
1, 43008, Note_on_c, 0, 57, 30
1, 43008, Note_on_c, 0, 61, 64
1, 43008, Note_on_c, 0, 61, 80
1, 43008, Note_on_c, 0, 61, 30
1, 43008, Note_on_c, 0, 69, 64
1, 43008, Note_on_c, 0, 69, 80
1, 43008, Note_on_c, 0, 78, 40
1, 43008, Note_on_c, 0, 78, 40
1, 43136, Note_off_c, 0, 78, 64
1, 43136, Note_on_c, 0, 71, 40
1, 43264, Note_off_c, 0, 57, 64
1, 43264, Note_off_c, 0, 71, 64
1, 43264, Note_on_c, 0, 54, 60
1, 43264, Note_on_c, 0, 73, 40
1, 43341, Note_off_c, 0, 42, 64
1, 43392, Note_off_c, 0, 73, 64
1, 43392, Note_on_c, 0, 74, 40
1, 43430, Note_off_c, 0, 54, 64
1, 43520, Note_off_c, 0, 42, 64
1, 43520, Note_off_c, 0, 49, 64
1, 43520, Note_off_c, 0, 54, 64
1, 43520, Note_off_c, 0, 57, 64
1, 43520, Note_off_c, 0, 57, 64
1, 43520, Note_off_c, 0, 61, 64
1, 43520, Note_off_c, 0, 61, 64
1, 43520, Note_off_c, 0, 61, 64
1, 43520, Note_off_c, 0, 69, 64
1, 43520, Note_off_c, 0, 74, 64
1, 43520, Note_on_c, 0, 42, 64
1, 43520, Note_on_c, 0, 49, 64
1, 43520, Note_on_c, 0, 61, 56
1, 43520, Note_on_c, 0, 66, 56
1, 43520, Note_on_c, 0, 73, 40
1, 43648, Note_off_c, 0, 73, 64
1, 43648, Note_on_c, 0, 71, 40
1, 43776, Note_off_c, 0, 69, 64
1, 43776, Note_off_c, 0, 61, 64
1, 43776, Note_off_c, 0, 66, 64
1, 43776, Note_off_c, 0, 71, 64
1, 43776, Note_on_c, 0, 53, 52
1, 43776, Note_on_c, 0, 68, 52
1, 43776, Note_on_c, 0, 69, 40
1, 43776, Note_on_c, 0, 71, 52
1, 43853, Note_off_c, 0, 42, 64
1, 43904, Note_off_c, 0, 69, 64
1, 43904, Note_on_c, 0, 68, 40
1, 43942, Note_off_c, 0, 53, 64
1, 44032, Note_off_c, 0, 78, 64
1, 44032, Note_off_c, 0, 49, 64
1, 44032, Note_off_c, 0, 68, 64
1, 44032, Note_off_c, 0, 71, 64
1, 44032, Note_off_c, 0, 68, 64
1, 44032, Note_on_c, 0, 42, 64
1, 44032, Note_on_c, 0, 49, 64
1, 44032, Note_on_c, 0, 61, 48
1, 44032, Note_on_c, 0, 61, 64
1, 44032, Note_on_c, 0, 66, 40
1, 44032, Note_on_c, 0, 69, 48
1, 44032, Note_on_c, 0, 73, 48
1, 44160, Note_off_c, 0, 66, 64
1, 44160, Note_on_c, 0, 69, 40
1, 44288, Note_off_c, 0, 61, 64
1, 44288, Note_off_c, 0, 61, 64
1, 44288, Note_off_c, 0, 73, 64
1, 44288, Note_off_c, 0, 69, 64
1, 44288, Note_on_c, 0, 57, 44
1, 44288, Note_on_c, 0, 57, 64
1, 44288, Note_on_c, 0, 68, 40
1, 44288, Note_on_c, 0, 77, 44
1, 44365, Note_off_c, 0, 42, 64
1, 44416, Note_off_c, 0, 68, 64
1, 44416, Note_on_c, 0, 66, 40
1, 44454, Note_off_c, 0, 57, 64
1, 44454, Note_off_c, 0, 77, 64
1, 44544, Note_off_c, 0, 49, 64
1, 44544, Note_off_c, 0, 57, 64
1, 44544, Note_off_c, 0, 66, 64
1, 44544, Note_on_c, 0, 38, 64
1, 44544, Note_on_c, 0, 38, 30
1, 44544, Note_on_c, 0, 54, 64
1, 44544, Note_on_c, 0, 54, 30
1, 44544, Note_on_c, 0, 57, 64
1, 44544, Note_on_c, 0, 57, 30
1, 44544, Note_on_c, 0, 60, 40
1, 44544, Note_on_c, 0, 60, 30
1, 44544, Note_on_c, 0, 78, 40
1, 44544, Note_on_c, 0, 78, 40
1, 44544, Note_on_c, 0, 81, 40
1, 44672, Note_off_c, 0, 78, 64
1, 44672, Note_off_c, 0, 81, 64
1, 44672, Note_on_c, 0, 76, 40
1, 44672, Note_on_c, 0, 79, 40
1, 44800, Note_off_c, 0, 69, 64
1, 44800, Note_off_c, 0, 60, 64
1, 44800, Note_off_c, 0, 76, 64
1, 44800, Note_off_c, 0, 79, 64
1, 44800, Note_on_c, 0, 57, 40
1, 44800, Note_on_c, 0, 62, 40
1, 44800, Note_on_c, 0, 78, 40
1, 44800, Note_on_c, 0, 81, 40
1, 44877, Note_off_c, 0, 38, 64
1, 44928, Note_off_c, 0, 78, 64
1, 44928, Note_off_c, 0, 81, 64
1, 44928, Note_on_c, 0, 79, 40
1, 44928, Note_on_c, 0, 83, 40
1, 44966, Note_off_c, 0, 57, 64
1, 45056, Note_off_c, 0, 38, 64
1, 45056, Note_off_c, 0, 54, 64
1, 45056, Note_off_c, 0, 54, 64
1, 45056, Note_off_c, 0, 57, 64
1, 45056, Note_off_c, 0, 60, 64
1, 45056, Note_off_c, 0, 62, 64
1, 45056, Note_off_c, 0, 79, 64
1, 45056, Note_off_c, 0, 83, 64
1, 45056, Note_on_c, 0, 38, 64
1, 45056, Note_on_c, 0, 54, 64
1, 45056, Note_on_c, 0, 60, 40
1, 45056, Note_on_c, 0, 64, 40
1, 45056, Note_on_c, 0, 78, 40
1, 45056, Note_on_c, 0, 81, 40
1, 45184, Note_off_c, 0, 78, 64
1, 45184, Note_off_c, 0, 81, 64
1, 45184, Note_on_c, 0, 76, 40
1, 45184, Note_on_c, 0, 79, 40
1, 45312, Note_off_c, 0, 60, 64
1, 45312, Note_off_c, 0, 64, 64
1, 45312, Note_off_c, 0, 76, 64
1, 45312, Note_off_c, 0, 79, 64
1, 45312, Note_on_c, 0, 57, 40
1, 45312, Note_on_c, 0, 66, 40
1, 45312, Note_on_c, 0, 74, 40
1, 45312, Note_on_c, 0, 78, 40
1, 45389, Note_off_c, 0, 38, 64
1, 45440, Note_off_c, 0, 74, 64
1, 45440, Note_off_c, 0, 78, 64
1, 45440, Note_on_c, 0, 76, 40
1, 45440, Note_on_c, 0, 76, 40
1, 45478, Note_off_c, 0, 57, 64
1, 45568, Note_off_c, 0, 54, 64
1, 45568, Note_off_c, 0, 66, 64
1, 45568, Note_off_c, 0, 76, 64
1, 45568, Note_off_c, 0, 76, 64
1, 45568, Note_on_c, 0, 38, 64
1, 45568, Note_on_c, 0, 54, 64
1, 45568, Note_on_c, 0, 60, 40
1, 45568, Note_on_c, 0, 66, 64
1, 45568, Note_on_c, 0, 67, 40
1, 45568, Note_on_c, 0, 74, 40
1, 45568, Note_on_c, 0, 78, 40
1, 45696, Note_off_c, 0, 74, 64
1, 45696, Note_off_c, 0, 78, 64
1, 45696, Note_on_c, 0, 74, 40
1, 45696, Note_on_c, 0, 78, 40
1, 45824, Note_off_c, 0, 60, 64
1, 45824, Note_off_c, 0, 66, 64
1, 45824, Note_off_c, 0, 67, 64
1, 45824, Note_off_c, 0, 74, 64
1, 45824, Note_off_c, 0, 78, 64
1, 45824, Note_on_c, 0, 54, 40
1, 45824, Note_on_c, 0, 62, 64
1, 45824, Note_on_c, 0, 69, 40
1, 45824, Note_on_c, 0, 76, 40
1, 45824, Note_on_c, 0, 76, 40
1, 45901, Note_off_c, 0, 38, 64
1, 45952, Note_off_c, 0, 76, 64
1, 45952, Note_off_c, 0, 76, 64
1, 45952, Note_on_c, 0, 74, 40
1, 45952, Note_on_c, 0, 78, 40
1, 45990, Note_off_c, 0, 54, 64
1, 46080, Note_off_c, 0, 54, 64
1, 46080, Note_off_c, 0, 62, 64
1, 46080, Note_off_c, 0, 69, 64
1, 46080, Note_off_c, 0, 74, 64
1, 46080, Note_off_c, 0, 78, 64
1, 46080, Note_on_c, 0, 43, 64
1, 46080, Note_on_c, 0, 43, 30
1, 46080, Note_on_c, 0, 55, 40
1, 46080, Note_on_c, 0, 55, 30
1, 46080, Note_on_c, 0, 59, 64
1, 46080, Note_on_c, 0, 60, 30
1, 46080, Note_on_c, 0, 62, 64
1, 46080, Note_on_c, 0, 71, 40
1, 46080, Note_on_c, 0, 71, 40
1, 46080, Note_on_c, 0, 86, 40
1, 46336, Note_off_c, 0, 78, 64
1, 46336, Note_off_c, 0, 55, 64
1, 46336, Note_off_c, 0, 71, 64
1, 46336, Note_on_c, 0, 59, 40
1, 46336, Note_on_c, 0, 62, 40
1, 46336, Note_on_c, 0, 67, 40
1, 46413, Note_off_c, 0, 43, 64
1, 46464, Note_off_c, 0, 59, 64
1, 46464, Note_off_c, 0, 67, 64
1, 46464, Note_on_c, 0, 60, 40
1, 46464, Note_on_c, 0, 69, 40
1, 46592, Note_off_c, 0, 57, 64
1, 46592, Note_off_c, 0, 43, 64
1, 46592, Note_off_c, 0, 55, 64
1, 46592, Note_off_c, 0, 59, 64
1, 46592, Note_off_c, 0, 60, 64
1, 46592, Note_off_c, 0, 60, 64
1, 46592, Note_off_c, 0, 69, 64
1, 46592, Note_on_c, 0, 43, 64
1, 46592, Note_on_c, 0, 55, 64
1, 46592, Note_on_c, 0, 55, 30
1, 46592, Note_on_c, 0, 59, 64
1, 46592, Note_on_c, 0, 59, 30
1, 46592, Note_on_c, 0, 62, 40
1, 46592, Note_on_c, 0, 71, 40
1, 46720, Note_off_c, 0, 71, 64
1, 46720, Note_on_c, 0, 72, 40
1, 46848, Note_off_c, 0, 62, 64
1, 46848, Note_off_c, 0, 55, 64
1, 46848, Note_off_c, 0, 62, 64
1, 46848, Note_off_c, 0, 72, 64
1, 46848, Note_on_c, 0, 54, 64
1, 46848, Note_on_c, 0, 60, 40
1, 46848, Note_on_c, 0, 64, 40
1, 46848, Note_on_c, 0, 74, 40
1, 46925, Note_off_c, 0, 43, 64
1, 46976, Note_off_c, 0, 64, 64
1, 46976, Note_on_c, 0, 66, 40
1, 47104, Note_off_c, 0, 55, 64
1, 47104, Note_off_c, 0, 59, 64
1, 47104, Note_off_c, 0, 59, 64
1, 47104, Note_off_c, 0, 54, 64
1, 47104, Note_off_c, 0, 60, 64
1, 47104, Note_off_c, 0, 66, 64
1, 47104, Note_on_c, 0, 43, 64
1, 47104, Note_on_c, 0, 59, 64
1, 47104, Note_on_c, 0, 59, 40
1, 47104, Note_on_c, 0, 59, 64
1, 47104, Note_on_c, 0, 67, 40
1, 47104, Note_on_c, 0, 71, 64
1, 47232, Note_off_c, 0, 67, 64
1, 47232, Note_on_c, 0, 69, 40
1, 47360, Note_off_c, 0, 74, 64
1, 47360, Note_off_c, 0, 59, 64
1, 47360, Note_off_c, 0, 71, 64
1, 47360, Note_off_c, 0, 69, 64
1, 47360, Note_on_c, 0, 62, 40
1, 47360, Note_on_c, 0, 67, 64
1, 47360, Note_on_c, 0, 71, 40
1, 47360, Note_on_c, 0, 71, 40
1, 47437, Note_off_c, 0, 43, 64
1, 47616, Note_off_c, 0, 59, 64
1, 47616, Note_off_c, 0, 59, 64
1, 47616, Note_off_c, 0, 62, 64
1, 47616, Note_off_c, 0, 67, 64
1, 47616, Note_off_c, 0, 71, 64
1, 47616, Note_off_c, 0, 71, 64
1, 47616, Note_on_c, 0, 44, 64
1, 47616, Note_on_c, 0, 44, 30
1, 47616, Note_on_c, 0, 59, 64
1, 47616, Note_on_c, 0, 61, 30
1, 47616, Note_on_c, 0, 62, 40
1, 47616, Note_on_c, 0, 65, 64
1, 47616, Note_on_c, 0, 65, 30
1, 47616, Note_on_c, 0, 68, 40
1, 47616, Note_on_c, 0, 68, 64
1, 47616, Note_on_c, 0, 69, 30
1, 47616, Note_on_c, 0, 71, 40
1, 47872, Note_off_c, 0, 62, 64
1, 47872, Note_on_c, 0, 59, 40
1, 47949, Note_off_c, 0, 44, 64
1, 48128, Note_off_c, 0, 62, 64
1, 48128, Note_off_c, 0, 44, 64
1, 48128, Note_off_c, 0, 61, 64
1, 48128, Note_off_c, 0, 65, 64
1, 48128, Note_off_c, 0, 65, 64
1, 48128, Note_off_c, 0, 69, 64
1, 48128, Note_off_c, 0, 59, 64
1, 48128, Note_on_c, 0, 44, 64
1, 48128, Note_on_c, 0, 56, 40
1, 48128, Note_on_c, 0, 61, 64
1, 48128, Note_on_c, 0, 61, 30
1, 48128, Note_on_c, 0, 65, 64
1, 48128, Note_on_c, 0, 65, 30
1, 48128, Note_on_c, 0, 68, 30
1, 48384, Note_off_c, 0, 56, 64
1, 48384, Note_on_c, 0, 57, 40
1, 48461, Note_off_c, 0, 44, 64
1, 48550, Note_off_c, 0, 57, 64
1, 48640, Note_off_c, 0, 59, 64
1, 48640, Note_off_c, 0, 61, 64
1, 48640, Note_off_c, 0, 61, 64
1, 48640, Note_off_c, 0, 65, 64
1, 48640, Note_off_c, 0, 65, 64
1, 48640, Note_off_c, 0, 68, 64
1, 48640, Note_on_c, 0, 44, 64
1, 48640, Note_on_c, 0, 50, 64
1, 48640, Note_on_c, 0, 59, 40
1, 48640, Note_on_c, 0, 59, 64
1, 48640, Note_on_c, 0, 65, 64
1, 48896, Note_off_c, 0, 59, 64
1, 48896, Note_on_c, 0, 62, 40
1, 48973, Note_off_c, 0, 44, 64
1, 49062, Note_off_c, 0, 62, 64
1, 49152, Note_off_c, 0, 50, 64
1, 49152, Note_off_c, 0, 59, 64
1, 49152, Note_off_c, 0, 65, 64
1, 49152, Note_on_c, 0, 41, 64
1, 49152, Note_on_c, 0, 41, 30
1, 49152, Note_on_c, 0, 53, 40
1, 49152, Note_on_c, 0, 53, 30
1, 49152, Note_on_c, 0, 56, 30
1, 49152, Note_on_c, 0, 59, 64
1, 49152, Note_on_c, 0, 59, 30
1, 49152, Note_on_c, 0, 62, 30
1, 49152, Note_on_c, 0, 74, 64
1, 49280, Note_off_c, 0, 86, 64
1, 49280, Note_on_c, 0, 85, 40
1, 49408, Note_off_c, 0, 85, 64
1, 49408, Note_on_c, 0, 86, 40
1, 49485, Note_off_c, 0, 41, 64
1, 49536, Note_off_c, 0, 86, 64
1, 49536, Note_on_c, 0, 88, 40
1, 49664, Note_off_c, 0, 68, 64
1, 49664, Note_off_c, 0, 41, 64
1, 49664, Note_off_c, 0, 53, 64
1, 49664, Note_off_c, 0, 56, 64
1, 49664, Note_off_c, 0, 59, 64
1, 49664, Note_off_c, 0, 62, 64
1, 49664, Note_off_c, 0, 88, 64
1, 49664, Note_on_c, 0, 41, 64
1, 49664, Note_on_c, 0, 59, 64
1, 49664, Note_on_c, 0, 66, 64
1, 49664, Note_on_c, 0, 86, 40
1, 49792, Note_off_c, 0, 86, 64
1, 49792, Note_on_c, 0, 85, 40
1, 49920, Note_off_c, 0, 85, 64
1, 49920, Note_on_c, 0, 83, 40
1, 49997, Note_off_c, 0, 41, 64
1, 50048, Note_off_c, 0, 83, 64
1, 50048, Note_on_c, 0, 81, 40
1, 50176, Note_off_c, 0, 59, 64
1, 50176, Note_off_c, 0, 66, 64
1, 50176, Note_off_c, 0, 81, 64
1, 50176, Note_on_c, 0, 41, 64
1, 50176, Note_on_c, 0, 59, 64
1, 50176, Note_on_c, 0, 65, 64
1, 50176, Note_on_c, 0, 83, 40
1, 50304, Note_off_c, 0, 83, 64
1, 50304, Note_on_c, 0, 80, 40
1, 50432, Note_off_c, 0, 59, 64
1, 50432, Note_off_c, 0, 80, 64
1, 50432, Note_on_c, 0, 56, 64
1, 50432, Note_on_c, 0, 81, 40
1, 50509, Note_off_c, 0, 41, 64
1, 50560, Note_off_c, 0, 81, 64
1, 50560, Note_on_c, 0, 83, 40
1, 50688, Note_off_c, 0, 59, 64
1, 50688, Note_off_c, 0, 65, 64
1, 50688, Note_off_c, 0, 56, 64
1, 50688, Note_off_c, 0, 83, 64
1, 50688, Note_on_c, 0, 37, 64
1, 50688, Note_on_c, 0, 37, 30
1, 50688, Note_on_c, 0, 49, 30
1, 50688, Note_on_c, 0, 59, 30
1, 50688, Note_on_c, 0, 61, 64
1, 50688, Note_on_c, 0, 62, 30
1, 50688, Note_on_c, 0, 71, 64
1, 50688, Note_on_c, 0, 77, 40
1, 50816, Note_off_c, 0, 71, 64
1, 50816, Note_off_c, 0, 77, 64
1, 50816, Note_on_c, 0, 69, 40
1, 50816, Note_on_c, 0, 78, 40
1, 50944, Note_off_c, 0, 71, 64
1, 50944, Note_off_c, 0, 53, 64
1, 50944, Note_off_c, 0, 69, 64
1, 50944, Note_off_c, 0, 78, 64
1, 50944, Note_on_c, 0, 54, 40
1, 50944, Note_on_c, 0, 68, 40
1, 50944, Note_on_c, 0, 71, 40
1, 50944, Note_on_c, 0, 80, 40
1, 51021, Note_off_c, 0, 37, 64
1, 51072, Note_off_c, 0, 71, 64
1, 51072, Note_off_c, 0, 80, 64
1, 51072, Note_on_c, 0, 73, 40
1, 51072, Note_on_c, 0, 81, 40
1, 51200, Note_off_c, 0, 74, 64
1, 51200, Note_off_c, 0, 37, 64
1, 51200, Note_off_c, 0, 49, 64
1, 51200, Note_off_c, 0, 59, 64
1, 51200, Note_off_c, 0, 62, 64
1, 51200, Note_off_c, 0, 54, 64
1, 51200, Note_off_c, 0, 68, 64
1, 51200, Note_off_c, 0, 73, 64
1, 51200, Note_off_c, 0, 81, 64
1, 51200, Note_on_c, 0, 37, 64
1, 51200, Note_on_c, 0, 49, 30
1, 51200, Note_on_c, 0, 56, 40
1, 51200, Note_on_c, 0, 57, 30
1, 51200, Note_on_c, 0, 61, 30
1, 51200, Note_on_c, 0, 65, 40
1, 51200, Note_on_c, 0, 68, 64
1, 51200, Note_on_c, 0, 71, 40
1, 51200, Note_on_c, 0, 73, 64
1, 51200, Note_on_c, 0, 80, 40
1, 51328, Note_off_c, 0, 71, 64
1, 51328, Note_off_c, 0, 80, 64
1, 51328, Note_on_c, 0, 69, 40
1, 51328, Note_on_c, 0, 78, 40
1, 51456, Note_off_c, 0, 56, 64
1, 51456, Note_off_c, 0, 65, 64
1, 51456, Note_off_c, 0, 69, 64
1, 51456, Note_off_c, 0, 78, 64
1, 51456, Note_on_c, 0, 57, 40
1, 51456, Note_on_c, 0, 66, 40
1, 51456, Note_on_c, 0, 68, 40
1, 51456, Note_on_c, 0, 77, 40
1, 51533, Note_off_c, 0, 37, 64
1, 51584, Note_off_c, 0, 68, 64
1, 51584, Note_off_c, 0, 77, 64
1, 51584, Note_on_c, 0, 66, 40
1, 51584, Note_on_c, 0, 75, 40
1, 51622, Note_off_c, 0, 57, 64
1, 51622, Note_off_c, 0, 66, 64
1, 51712, Note_off_c, 0, 61, 64
1, 51712, Note_off_c, 0, 71, 64
1, 51712, Note_off_c, 0, 49, 64
1, 51712, Note_off_c, 0, 57, 64
1, 51712, Note_off_c, 0, 61, 64
1, 51712, Note_off_c, 0, 73, 64
1, 51712, Note_off_c, 0, 66, 64
1, 51712, Note_off_c, 0, 75, 64
1, 51712, Note_on_c, 0, 37, 64
1, 51712, Note_on_c, 0, 59, 40
1, 51712, Note_on_c, 0, 61, 64
1, 51712, Note_on_c, 0, 65, 40
1, 51712, Note_on_c, 0, 68, 40
1, 51712, Note_on_c, 0, 71, 64
1, 51712, Note_on_c, 0, 73, 40
1, 51840, Note_off_c, 0, 59, 64
1, 51840, Note_off_c, 0, 65, 64
1, 51840, Note_off_c, 0, 73, 64
1, 51840, Note_on_c, 0, 56, 40
1, 51840, Note_on_c, 0, 68, 40
1, 51840, Note_on_c, 0, 77, 40
1, 51968, Note_off_c, 0, 68, 64
1, 51968, Note_off_c, 0, 68, 64
1, 51968, Note_off_c, 0, 56, 64
1, 51968, Note_off_c, 0, 68, 64
1, 51968, Note_off_c, 0, 77, 64
1, 51968, Note_on_c, 0, 61, 40
1, 51968, Note_on_c, 0, 65, 64
1, 51968, Note_on_c, 0, 66, 40
1, 51968, Note_on_c, 0, 71, 40
1, 51968, Note_on_c, 0, 75, 40
1, 52045, Note_off_c, 0, 37, 64
1, 52096, Note_off_c, 0, 66, 64
1, 52096, Note_off_c, 0, 75, 64
1, 52096, Note_on_c, 0, 65, 40
1, 52096, Note_on_c, 0, 73, 40
1, 52134, Note_off_c, 0, 61, 64
1, 52134, Note_off_c, 0, 71, 64
1, 52224, Note_off_c, 0, 68, 64
1, 52224, Note_off_c, 0, 61, 64
1, 52224, Note_off_c, 0, 71, 64
1, 52224, Note_off_c, 0, 65, 64
1, 52224, Note_off_c, 0, 65, 64
1, 52224, Note_off_c, 0, 73, 64
1, 52224, Note_on_c, 0, 42, 64
1, 52224, Note_on_c, 0, 42, 30
1, 52224, Note_on_c, 0, 54, 30
1, 52224, Note_on_c, 0, 57, 30
1, 52224, Note_on_c, 0, 61, 40
1, 52224, Note_on_c, 0, 66, 40
1, 52224, Note_on_c, 0, 66, 64
1, 52224, Note_on_c, 0, 69, 40
1, 52224, Note_on_c, 0, 69, 64
1, 52224, Note_on_c, 0, 73, 40
1, 52224, Note_on_c, 0, 81, 40
1, 52352, Note_off_c, 0, 73, 64
1, 52352, Note_on_c, 0, 71, 40
1, 52480, Note_off_c, 0, 69, 64
1, 52480, Note_off_c, 0, 71, 64
1, 52480, Note_on_c, 0, 68, 64
1, 52480, Note_on_c, 0, 73, 40
1, 52557, Note_off_c, 0, 42, 64
1, 52608, Note_off_c, 0, 73, 64
1, 52608, Note_on_c, 0, 74, 40
1, 52736, Note_off_c, 0, 42, 64
1, 52736, Note_off_c, 0, 54, 64
1, 52736, Note_off_c, 0, 57, 64
1, 52736, Note_off_c, 0, 66, 64
1, 52736, Note_off_c, 0, 81, 64
1, 52736, Note_off_c, 0, 68, 64
1, 52736, Note_off_c, 0, 74, 64
1, 52736, Note_on_c, 0, 42, 64
1, 52736, Note_on_c, 0, 54, 64
1, 52736, Note_on_c, 0, 57, 64
1, 52736, Note_on_c, 0, 66, 64
1, 52736, Note_on_c, 0, 69, 64
1, 52736, Note_on_c, 0, 73, 40
1, 52736, Note_on_c, 0, 78, 40
1, 52864, Note_off_c, 0, 73, 64
1, 52864, Note_on_c, 0, 71, 40
1, 52992, Note_off_c, 0, 54, 64
1, 52992, Note_off_c, 0, 57, 64
1, 52992, Note_off_c, 0, 71, 64
1, 52992, Note_on_c, 0, 56, 64
1, 52992, Note_on_c, 0, 59, 64
1, 52992, Note_on_c, 0, 69, 40
1, 53069, Note_off_c, 0, 42, 64
1, 53120, Note_off_c, 0, 69, 64
1, 53120, Note_on_c, 0, 68, 40
1, 53248, Note_off_c, 0, 69, 64
1, 53248, Note_off_c, 0, 56, 64
1, 53248, Note_off_c, 0, 59, 64
1, 53248, Note_off_c, 0, 68, 64
1, 53248, Note_on_c, 0, 42, 64
1, 53248, Note_on_c, 0, 57, 64
1, 53248, Note_on_c, 0, 61, 64
1, 53248, Note_on_c, 0, 66, 40
1, 53248, Note_on_c, 0, 66, 64
1, 53376, Note_off_c, 0, 66, 64
1, 53376, Note_on_c, 0, 69, 40
1, 53504, Note_off_c, 0, 66, 64
1, 53504, Note_off_c, 0, 57, 64
1, 53504, Note_off_c, 0, 61, 64
1, 53504, Note_off_c, 0, 69, 64
1, 53504, Note_on_c, 0, 54, 64
1, 53504, Note_on_c, 0, 57, 64
1, 53504, Note_on_c, 0, 62, 64
1, 53504, Note_on_c, 0, 68, 40
1, 53581, Note_off_c, 0, 42, 64
1, 53632, Note_off_c, 0, 68, 64
1, 53632, Note_on_c, 0, 66, 40
1, 53760, Note_off_c, 0, 61, 64
1, 53760, Note_off_c, 0, 66, 64
1, 53760, Note_off_c, 0, 69, 64
1, 53760, Note_off_c, 0, 54, 64
1, 53760, Note_off_c, 0, 57, 64
1, 53760, Note_off_c, 0, 62, 64
1, 53760, Note_off_c, 0, 66, 64
1, 53760, Note_on_c, 0, 42, 64
1, 53760, Note_on_c, 0, 42, 30
1, 53760, Note_on_c, 0, 54, 30
1, 53760, Note_on_c, 0, 59, 64
1, 53760, Note_on_c, 0, 59, 64
1, 53760, Note_on_c, 0, 59, 30
1, 53760, Note_on_c, 0, 62, 40
1, 53760, Note_on_c, 0, 62, 64
1, 53760, Note_on_c, 0, 62, 30
1, 53760, Note_on_c, 0, 66, 40
1, 53760, Note_on_c, 0, 71, 40
1, 53760, Note_on_c, 0, 74, 40
1, 53888, Note_off_c, 0, 78, 64
1, 53888, Note_on_c, 0, 76, 40
1, 54016, Note_off_c, 0, 66, 64
1, 54016, Note_off_c, 0, 76, 64
1, 54016, Note_on_c, 0, 71, 64
1, 54016, Note_on_c, 0, 78, 40
1, 54093, Note_off_c, 0, 42, 64
1, 54144, Note_off_c, 0, 71, 64
1, 54144, Note_off_c, 0, 78, 64
1, 54144, Note_on_c, 0, 70, 64
1, 54144, Note_on_c, 0, 79, 40
1, 54272, Note_off_c, 0, 42, 64
1, 54272, Note_off_c, 0, 54, 64
1, 54272, Note_off_c, 0, 59, 64
1, 54272, Note_off_c, 0, 59, 64
1, 54272, Note_off_c, 0, 62, 64
1, 54272, Note_off_c, 0, 70, 64
1, 54272, Note_off_c, 0, 79, 64
1, 54272, Note_on_c, 0, 42, 64
1, 54272, Note_on_c, 0, 62, 64
1, 54272, Note_on_c, 0, 71, 64
1, 54272, Note_on_c, 0, 78, 40
1, 54400, Note_off_c, 0, 78, 64
1, 54400, Note_on_c, 0, 76, 40
1, 54528, Note_off_c, 0, 62, 64
1, 54528, Note_off_c, 0, 71, 64
1, 54528, Note_off_c, 0, 76, 64
1, 54528, Note_on_c, 0, 64, 64
1, 54528, Note_on_c, 0, 73, 64
1, 54528, Note_on_c, 0, 74, 40
1, 54605, Note_off_c, 0, 42, 64
1, 54656, Note_off_c, 0, 74, 64
1, 54656, Note_on_c, 0, 73, 40
1, 54784, Note_off_c, 0, 64, 64
1, 54784, Note_off_c, 0, 73, 64
1, 54784, Note_off_c, 0, 73, 64
1, 54784, Note_on_c, 0, 42, 64
1, 54784, Note_on_c, 0, 66, 64
1, 54784, Note_on_c, 0, 71, 40
1, 54784, Note_on_c, 0, 74, 64
1, 54912, Note_off_c, 0, 71, 64
1, 54912, Note_on_c, 0, 74, 40
1, 55040, Note_off_c, 0, 66, 64
1, 55040, Note_off_c, 0, 74, 64
1, 55040, Note_off_c, 0, 66, 64
1, 55040, Note_off_c, 0, 74, 64
1, 55040, Note_on_c, 0, 62, 64
1, 55040, Note_on_c, 0, 66, 40
1, 55040, Note_on_c, 0, 71, 64
1, 55040, Note_on_c, 0, 73, 40
1, 55117, Note_off_c, 0, 42, 64
1, 55168, Note_off_c, 0, 73, 64
1, 55168, Note_on_c, 0, 71, 40
1, 55296, Note_off_c, 0, 62, 64
1, 55296, Note_off_c, 0, 66, 64
1, 55296, Note_off_c, 0, 71, 64
1, 55296, Note_off_c, 0, 71, 64
1, 55296, Note_on_c, 0, 42, 64
1, 55296, Note_on_c, 0, 42, 30
1, 55296, Note_on_c, 0, 56, 30
1, 55296, Note_on_c, 0, 59, 30
1, 55296, Note_on_c, 0, 65, 64
1, 55296, Note_on_c, 0, 65, 30
1, 55296, Note_on_c, 0, 68, 64
1, 55296, Note_on_c, 0, 71, 40
1, 55296, Note_on_c, 0, 80, 40
1, 55424, Note_off_c, 0, 74, 64
1, 55424, Note_on_c, 0, 71, 40
1, 55505, Note_off_c, 0, 71, 64
1, 55552, Note_off_c, 0, 62, 64
1, 55552, Note_off_c, 0, 71, 64
1, 55552, Note_on_c, 0, 66, 40
1, 55552, Note_on_c, 0, 69, 40
1, 55552, Note_on_c, 0, 71, 40
1, 55629, Note_off_c, 0, 42, 64
1, 55680, Note_off_c, 0, 71, 64
1, 55680, Note_on_c, 0, 73, 40
1, 55718, Note_off_c, 0, 69, 64
1, 55761, Note_off_c, 0, 73, 64
1, 55808, Note_off_c, 0, 59, 64
1, 55808, Note_off_c, 0, 62, 64
1, 55808, Note_off_c, 0, 42, 64
1, 55808, Note_off_c, 0, 56, 64
1, 55808, Note_off_c, 0, 59, 64
1, 55808, Note_off_c, 0, 65, 64
1, 55808, Note_off_c, 0, 65, 64
1, 55808, Note_off_c, 0, 68, 64
1, 55808, Note_off_c, 0, 66, 64
1, 55808, Note_on_c, 0, 42, 64
1, 55808, Note_on_c, 0, 56, 64
1, 55808, Note_on_c, 0, 59, 64
1, 55808, Note_on_c, 0, 61, 64
1, 55808, Note_on_c, 0, 65, 40
1, 55808, Note_on_c, 0, 65, 64
1, 55808, Note_on_c, 0, 68, 40
1, 55808, Note_on_c, 0, 73, 40
1, 55936, Note_off_c, 0, 73, 64
1, 55936, Note_on_c, 0, 69, 40
1, 56017, Note_off_c, 0, 69, 64
1, 56064, Note_off_c, 0, 68, 64
1, 56064, Note_on_c, 0, 66, 40
1, 56064, Note_on_c, 0, 69, 40
1, 56141, Note_off_c, 0, 42, 64
1, 56192, Note_off_c, 0, 69, 64
1, 56192, Note_on_c, 0, 71, 40
1, 56230, Note_off_c, 0, 66, 64
1, 56273, Note_off_c, 0, 71, 64
1, 56320, Note_off_c, 0, 56, 64
1, 56320, Note_off_c, 0, 59, 64
1, 56320, Note_off_c, 0, 61, 64
1, 56320, Note_off_c, 0, 65, 64
1, 56320, Note_on_c, 0, 42, 64
1, 56320, Note_on_c, 0, 59, 64
1, 56320, Note_on_c, 0, 61, 64
1, 56320, Note_on_c, 0, 65, 40
1, 56320, Note_on_c, 0, 65, 64
1, 56320, Note_on_c, 0, 68, 64
1, 56320, Note_on_c, 0, 71, 40
1, 56448, Note_off_c, 0, 71, 64
1, 56448, Note_on_c, 0, 68, 40
1, 56529, Note_off_c, 0, 68, 64
1, 56576, Note_off_c, 0, 65, 64
1, 56576, Note_on_c, 0, 68, 40
1, 56576, Note_on_c, 0, 68, 40
1, 56653, Note_off_c, 0, 42, 64
1, 56704, Note_off_c, 0, 68, 64
1, 56704, Note_on_c, 0, 69, 40
1, 56742, Note_off_c, 0, 68, 64
1, 56785, Note_off_c, 0, 69, 64
1, 56832, Note_off_c, 0, 71, 64
1, 56832, Note_off_c, 0, 65, 64
1, 56832, Note_off_c, 0, 59, 64
1, 56832, Note_off_c, 0, 65, 64
1, 56832, Note_off_c, 0, 68, 64
1, 56832, Note_on_c, 0, 42, 64
1, 56832, Note_on_c, 0, 42, 30
1, 56832, Note_on_c, 0, 57, 64
1, 56832, Note_on_c, 0, 57, 30
1, 56832, Note_on_c, 0, 61, 64
1, 56832, Note_on_c, 0, 61, 30
1, 56832, Note_on_c, 0, 66, 64
1, 56832, Note_on_c, 0, 66, 64
1, 56832, Note_on_c, 0, 66, 64
1, 56832, Note_on_c, 0, 66, 30
1, 56832, Note_on_c, 0, 69, 40
1, 56832, Note_on_c, 0, 69, 64
1, 56960, Note_off_c, 0, 80, 64
1, 56960, Note_on_c, 0, 77, 40
1, 57041, Note_off_c, 0, 77, 64
1, 57088, Note_off_c, 0, 66, 64
1, 57088, Note_off_c, 0, 66, 64
1, 57088, Note_on_c, 0, 68, 64
1, 57088, Note_on_c, 0, 68, 67
1, 57088, Note_on_c, 0, 77, 40
1, 57165, Note_off_c, 0, 42, 64
1, 57216, Note_off_c, 0, 77, 64
1, 57216, Note_on_c, 0, 78, 40
1, 57254, Note_off_c, 0, 68, 64
1, 57297, Note_off_c, 0, 78, 64
1, 57344, Note_off_c, 0, 61, 64
1, 57344, Note_off_c, 0, 42, 64
1, 57344, Note_off_c, 0, 57, 64
1, 57344, Note_off_c, 0, 57, 64
1, 57344, Note_off_c, 0, 61, 64
1, 57344, Note_off_c, 0, 61, 64
1, 57344, Note_off_c, 0, 66, 64
1, 57344, Note_off_c, 0, 69, 64
1, 57344, Note_off_c, 0, 69, 64
1, 57344, Note_off_c, 0, 68, 64
1, 57344, Note_on_c, 0, 42, 64
1, 57344, Note_on_c, 0, 54, 69
1, 57344, Note_on_c, 0, 61, 64
1, 57344, Note_on_c, 0, 61, 69
1, 57344, Note_on_c, 0, 66, 64
1, 57344, Note_on_c, 0, 70, 40
1, 57344, Note_on_c, 0, 70, 64
1, 57344, Note_on_c, 0, 70, 69
1, 57344, Note_on_c, 0, 78, 40
1, 57472, Note_off_c, 0, 78, 64
1, 57472, Note_on_c, 0, 74, 40
1, 57553, Note_off_c, 0, 74, 64
1, 57600, Note_off_c, 0, 70, 64
1, 57600, Note_off_c, 0, 70, 64
1, 57600, Note_on_c, 0, 71, 64
1, 57600, Note_on_c, 0, 71, 72
1, 57600, Note_on_c, 0, 74, 40
1, 57677, Note_off_c, 0, 42, 64
1, 57728, Note_off_c, 0, 74, 64
1, 57728, Note_on_c, 0, 76, 40
1, 57766, Note_off_c, 0, 71, 64
1, 57809, Note_off_c, 0, 76, 64
1, 57856, Note_off_c, 0, 66, 64
1, 57856, Note_off_c, 0, 54, 64
1, 57856, Note_off_c, 0, 61, 64
1, 57856, Note_off_c, 0, 66, 64
1, 57856, Note_off_c, 0, 71, 64
1, 57856, Note_on_c, 0, 42, 64
1, 57856, Note_on_c, 0, 55, 75
1, 57856, Note_on_c, 0, 61, 64
1, 57856, Note_on_c, 0, 61, 75
1, 57856, Note_on_c, 0, 61, 75
1, 57856, Note_on_c, 0, 73, 64
1, 57856, Note_on_c, 0, 73, 75
1, 57856, Note_on_c, 0, 76, 40
1, 57984, Note_off_c, 0, 76, 64
1, 57984, Note_on_c, 0, 73, 40
1, 58065, Note_off_c, 0, 73, 64
1, 58112, Note_off_c, 0, 55, 64
1, 58112, Note_off_c, 0, 73, 64
1, 58112, Note_off_c, 0, 73, 64
1, 58112, Note_on_c, 0, 54, 77
1, 58112, Note_on_c, 0, 66, 77
1, 58112, Note_on_c, 0, 70, 64
1, 58112, Note_on_c, 0, 73, 40
1, 58189, Note_off_c, 0, 42, 64
1, 58240, Note_off_c, 0, 73, 64
1, 58240, Note_on_c, 0, 74, 40
1, 58278, Note_off_c, 0, 70, 64
1, 58321, Note_off_c, 0, 74, 64
1, 58368, Note_off_c, 0, 61, 64
1, 58368, Note_off_c, 0, 70, 64
1, 58368, Note_off_c, 0, 61, 64
1, 58368, Note_off_c, 0, 61, 64
1, 58368, Note_off_c, 0, 61, 64
1, 58368, Note_off_c, 0, 54, 64
1, 58368, Note_off_c, 0, 66, 64
1, 58368, Note_on_c, 0, 42, 64
1, 58368, Note_on_c, 0, 42, 30
1, 58368, Note_on_c, 0, 54, 80
1, 58368, Note_on_c, 0, 59, 64
1, 58368, Note_on_c, 0, 59, 80
1, 58368, Note_on_c, 0, 59, 30
1, 58368, Note_on_c, 0, 62, 64
1, 58368, Note_on_c, 0, 62, 80
1, 58368, Note_on_c, 0, 62, 30
1, 58368, Note_on_c, 0, 71, 40
1, 58368, Note_on_c, 0, 74, 40
1, 58368, Note_on_c, 0, 78, 64
1, 58368, Note_on_c, 0, 78, 80
1, 58496, Note_off_c, 0, 74, 64
1, 58496, Note_on_c, 0, 71, 40
1, 58577, Note_off_c, 0, 71, 64
1, 58624, Note_off_c, 0, 54, 64
1, 58624, Note_off_c, 0, 59, 64
1, 58624, Note_off_c, 0, 59, 64
1, 58624, Note_off_c, 0, 59, 64
1, 58624, Note_off_c, 0, 62, 64
1, 58624, Note_off_c, 0, 62, 64
1, 58624, Note_off_c, 0, 62, 64
1, 58624, Note_off_c, 0, 78, 64
1, 58624, Note_on_c, 0, 56, 80
1, 58624, Note_on_c, 0, 61, 64
1, 58624, Note_on_c, 0, 61, 64
1, 58624, Note_on_c, 0, 61, 80
1, 58624, Note_on_c, 0, 61, 80
1, 58624, Note_on_c, 0, 61, 30
1, 58624, Note_on_c, 0, 71, 40
1, 58624, Note_on_c, 0, 76, 80
1, 58701, Note_off_c, 0, 42, 64
1, 58752, Note_off_c, 0, 71, 64
1, 58752, Note_on_c, 0, 81, 40
1, 58790, Note_off_c, 0, 61, 64
1, 58833, Note_off_c, 0, 81, 64
1, 58880, Note_off_c, 0, 42, 64
1, 58880, Note_off_c, 0, 78, 64
1, 58880, Note_off_c, 0, 56, 64
1, 58880, Note_off_c, 0, 61, 64
1, 58880, Note_off_c, 0, 61, 64
1, 58880, Note_off_c, 0, 61, 64
1, 58880, Note_off_c, 0, 61, 64
1, 58880, Note_off_c, 0, 71, 64
1, 58880, Note_off_c, 0, 76, 64
1, 58880, Note_on_c, 0, 54, 64
1, 58880, Note_on_c, 0, 54, 30
1, 58880, Note_on_c, 0, 57, 80
1, 58880, Note_on_c, 0, 57, 30
1, 58880, Note_on_c, 0, 60, 64
1, 58880, Note_on_c, 0, 60, 80
1, 58880, Note_on_c, 0, 60, 30
1, 58880, Note_on_c, 0, 63, 64
1, 58880, Note_on_c, 0, 63, 80
1, 58880, Note_on_c, 0, 63, 30
1, 58880, Note_on_c, 0, 66, 30
1, 58880, Note_on_c, 0, 72, 40
1, 58880, Note_on_c, 0, 75, 64
1, 58880, Note_on_c, 0, 75, 80
1, 58880, Note_on_c, 0, 81, 40
1, 59008, Note_off_c, 0, 81, 64
1, 59008, Note_on_c, 0, 78, 40
1, 59089, Note_off_c, 0, 78, 64
1, 59136, Note_off_c, 0, 60, 64
1, 59136, Note_off_c, 0, 60, 64
1, 59136, Note_off_c, 0, 75, 64
1, 59136, Note_off_c, 0, 75, 64
1, 59136, Note_on_c, 0, 63, 64
1, 59136, Note_on_c, 0, 63, 80
1, 59136, Note_on_c, 0, 73, 64
1, 59136, Note_on_c, 0, 73, 80
1, 59136, Note_on_c, 0, 78, 40
1, 59213, Note_off_c, 0, 54, 64
1, 59264, Note_off_c, 0, 78, 64
1, 59264, Note_on_c, 0, 80, 40
1, 59302, Note_off_c, 0, 63, 64
1, 59302, Note_off_c, 0, 73, 64
1, 59345, Note_off_c, 0, 80, 64
1, 59392, Note_off_c, 0, 54, 64
1, 59392, Note_off_c, 0, 57, 64
1, 59392, Note_off_c, 0, 57, 64
1, 59392, Note_off_c, 0, 60, 64
1, 59392, Note_off_c, 0, 63, 64
1, 59392, Note_off_c, 0, 63, 64
1, 59392, Note_off_c, 0, 63, 64
1, 59392, Note_off_c, 0, 66, 64
1, 59392, Note_off_c, 0, 63, 64
1, 59392, Note_off_c, 0, 73, 64
1, 59392, Note_on_c, 0, 52, 64
1, 59392, Note_on_c, 0, 52, 30
1, 59392, Note_on_c, 0, 56, 80
1, 59392, Note_on_c, 0, 61, 30
1, 59392, Note_on_c, 0, 64, 64
1, 59392, Note_on_c, 0, 64, 80
1, 59392, Note_on_c, 0, 64, 30
1, 59392, Note_on_c, 0, 67, 30
1, 59392, Note_on_c, 0, 68, 64
1, 59392, Note_on_c, 0, 68, 80
1, 59392, Note_on_c, 0, 70, 30
1, 59392, Note_on_c, 0, 72, 64
1, 59392, Note_on_c, 0, 72, 80
1, 59392, Note_on_c, 0, 80, 40
1, 59520, Note_off_c, 0, 80, 64
1, 59520, Note_on_c, 0, 76, 40
1, 59601, Note_off_c, 0, 76, 64
1, 59648, Note_off_c, 0, 68, 64
1, 59648, Note_off_c, 0, 68, 64
1, 59648, Note_off_c, 0, 72, 64
1, 59648, Note_off_c, 0, 72, 64
1, 59648, Note_on_c, 0, 66, 64
1, 59648, Note_on_c, 0, 66, 80
1, 59648, Note_on_c, 0, 73, 64
1, 59648, Note_on_c, 0, 73, 80
1, 59648, Note_on_c, 0, 76, 40
1, 59725, Note_off_c, 0, 52, 64
1, 59776, Note_off_c, 0, 76, 64
1, 59776, Note_on_c, 0, 78, 40
1, 59814, Note_off_c, 0, 66, 64
1, 59814, Note_off_c, 0, 73, 64
1, 59857, Note_off_c, 0, 78, 64
1, 59904, Note_off_c, 0, 52, 64
1, 59904, Note_off_c, 0, 56, 64
1, 59904, Note_off_c, 0, 61, 64
1, 59904, Note_off_c, 0, 64, 64
1, 59904, Note_off_c, 0, 64, 64
1, 59904, Note_off_c, 0, 64, 64
1, 59904, Note_off_c, 0, 67, 64
1, 59904, Note_off_c, 0, 70, 64
1, 59904, Note_off_c, 0, 66, 64
1, 59904, Note_off_c, 0, 73, 64
1, 59904, Note_on_c, 0, 51, 64
1, 59904, Note_on_c, 0, 51, 30
1, 59904, Note_on_c, 0, 63, 30
1, 59904, Note_on_c, 0, 66, 64
1, 59904, Note_on_c, 0, 66, 80
1, 59904, Note_on_c, 0, 66, 30
1, 59904, Note_on_c, 0, 69, 64
1, 59904, Note_on_c, 0, 69, 80
1, 59904, Note_on_c, 0, 69, 30
1, 59904, Note_on_c, 0, 72, 64
1, 59904, Note_on_c, 0, 72, 80
1, 59904, Note_on_c, 0, 72, 30
1, 59904, Note_on_c, 0, 78, 40
1, 60032, Note_off_c, 0, 72, 64
1, 60032, Note_off_c, 0, 78, 64
1, 60032, Note_on_c, 0, 66, 40
1, 60032, Note_on_c, 0, 75, 40
1, 60113, Note_off_c, 0, 66, 64
1, 60113, Note_off_c, 0, 75, 64
1, 60160, Note_off_c, 0, 72, 64
1, 60160, Note_off_c, 0, 72, 64
1, 60160, Note_off_c, 0, 72, 64
1, 60160, Note_on_c, 0, 66, 40
1, 60160, Note_on_c, 0, 71, 30
1, 60160, Note_on_c, 0, 73, 64
1, 60160, Note_on_c, 0, 73, 80
1, 60160, Note_on_c, 0, 75, 40
1, 60237, Note_off_c, 0, 51, 64
1, 60288, Note_off_c, 0, 66, 64
1, 60288, Note_off_c, 0, 75, 64
1, 60288, Note_on_c, 0, 78, 40
1, 60288, Note_on_c, 0, 81, 40
1, 60369, Note_off_c, 0, 78, 64
1, 60369, Note_off_c, 0, 81, 64
1, 60416, Note_off_c, 0, 51, 64
1, 60416, Note_off_c, 0, 63, 64
1, 60416, Note_off_c, 0, 66, 64
1, 60416, Note_off_c, 0, 66, 64
1, 60416, Note_off_c, 0, 66, 64
1, 60416, Note_off_c, 0, 69, 64
1, 60416, Note_off_c, 0, 71, 64
1, 60416, Note_off_c, 0, 73, 64
1, 60416, Note_off_c, 0, 73, 64
1, 60416, Note_on_c, 0, 48, 64
1, 60416, Note_on_c, 0, 48, 30
1, 60416, Note_on_c, 0, 51, 80
1, 60416, Note_on_c, 0, 60, 30
1, 60416, Note_on_c, 0, 63, 64
1, 60416, Note_on_c, 0, 63, 80
1, 60416, Note_on_c, 0, 63, 30
1, 60416, Note_on_c, 0, 66, 30
1, 60416, Note_on_c, 0, 69, 30
1, 60416, Note_on_c, 0, 75, 64
1, 60416, Note_on_c, 0, 75, 80
1, 60416, Note_on_c, 0, 78, 40
1, 60416, Note_on_c, 0, 81, 40
1, 60544, Note_off_c, 0, 78, 64
1, 60544, Note_off_c, 0, 81, 64
1, 60544, Note_on_c, 0, 75, 40
1, 60544, Note_on_c, 0, 78, 40
1, 60625, Note_off_c, 0, 75, 64
1, 60625, Note_off_c, 0, 78, 64
1, 60672, Note_off_c, 0, 51, 64
1, 60672, Note_on_c, 0, 49, 80
1, 60672, Note_on_c, 0, 75, 40
1, 60672, Note_on_c, 0, 78, 40
1, 60749, Note_off_c, 0, 48, 64
1, 60800, Note_off_c, 0, 75, 64
1, 60800, Note_off_c, 0, 78, 64
1, 60800, Note_on_c, 0, 76, 40
1, 60800, Note_on_c, 0, 80, 40
1, 60881, Note_off_c, 0, 76, 64
1, 60881, Note_off_c, 0, 80, 64
1, 60928, Note_off_c, 0, 69, 64
1, 60928, Note_off_c, 0, 69, 64
1, 60928, Note_off_c, 0, 48, 64
1, 60928, Note_off_c, 0, 60, 64
1, 60928, Note_off_c, 0, 63, 64
1, 60928, Note_off_c, 0, 63, 64
1, 60928, Note_off_c, 0, 63, 64
1, 60928, Note_off_c, 0, 66, 64
1, 60928, Note_off_c, 0, 69, 64
1, 60928, Note_off_c, 0, 75, 64
1, 60928, Note_off_c, 0, 75, 64
1, 60928, Note_off_c, 0, 49, 64
1, 60928, Note_on_c, 0, 48, 80
1, 60928, Note_on_c, 0, 49, 64
1, 60928, Note_on_c, 0, 49, 30
1, 60928, Note_on_c, 0, 56, 64
1, 60928, Note_on_c, 0, 56, 80
1, 60928, Note_on_c, 0, 61, 30
1, 60928, Note_on_c, 0, 64, 64
1, 60928, Note_on_c, 0, 64, 80
1, 60928, Note_on_c, 0, 64, 30
1, 60928, Note_on_c, 0, 68, 30
1, 60928, Note_on_c, 0, 76, 40
1, 60928, Note_on_c, 0, 76, 64
1, 60928, Note_on_c, 0, 76, 80
1, 60928, Note_on_c, 0, 80, 40
1, 61056, Note_off_c, 0, 76, 64
1, 61056, Note_off_c, 0, 80, 64
1, 61056, Note_on_c, 0, 73, 40
1, 61056, Note_on_c, 0, 76, 40
1, 61137, Note_off_c, 0, 73, 64
1, 61137, Note_off_c, 0, 76, 64
1, 61184, Note_off_c, 0, 48, 64
1, 61184, Note_off_c, 0, 64, 64
1, 61184, Note_off_c, 0, 64, 64
1, 61184, Note_on_c, 0, 49, 80
1, 61184, Note_on_c, 0, 66, 64
1, 61184, Note_on_c, 0, 66, 80
1, 61184, Note_on_c, 0, 73, 40
1, 61184, Note_on_c, 0, 76, 40
1, 61261, Note_off_c, 0, 49, 64
1, 61312, Note_off_c, 0, 66, 64
1, 61312, Note_off_c, 0, 66, 64
1, 61312, Note_off_c, 0, 73, 64
1, 61312, Note_off_c, 0, 76, 64
1, 61312, Note_on_c, 0, 68, 64
1, 61312, Note_on_c, 0, 68, 80
1, 61312, Note_on_c, 0, 74, 40
1, 61312, Note_on_c, 0, 78, 40
1, 61393, Note_off_c, 0, 74, 64
1, 61393, Note_off_c, 0, 78, 64
1, 61440, Note_off_c, 0, 49, 64
1, 61440, Note_off_c, 0, 56, 64
1, 61440, Note_off_c, 0, 56, 64
1, 61440, Note_off_c, 0, 61, 64
1, 61440, Note_off_c, 0, 64, 64
1, 61440, Note_off_c, 0, 68, 64
1, 61440, Note_off_c, 0, 76, 64
1, 61440, Note_off_c, 0, 76, 64
1, 61440, Note_off_c, 0, 49, 64
1, 61440, Note_off_c, 0, 68, 64
1, 61440, Note_off_c, 0, 68, 64
1, 61440, Note_on_c, 0, 42, 64
1, 61440, Note_on_c, 0, 42, 30
1, 61440, Note_on_c, 0, 57, 80
1, 61440, Note_on_c, 0, 62, 64
1, 61440, Note_on_c, 0, 62, 80
1, 61440, Note_on_c, 0, 64, 30
1, 61440, Note_on_c, 0, 66, 64
1, 61440, Note_on_c, 0, 66, 80
1, 61440, Note_on_c, 0, 68, 30
1, 61440, Note_on_c, 0, 73, 30
1, 61440, Note_on_c, 0, 74, 40
1, 61440, Note_on_c, 0, 78, 40
1, 61568, Note_off_c, 0, 74, 64
1, 61568, Note_on_c, 0, 72, 40
1, 61649, Note_off_c, 0, 72, 64
1, 61696, Note_on_c, 0, 72, 40
1, 61773, Note_off_c, 0, 42, 64
1, 61824, Note_off_c, 0, 72, 64
1, 61824, Note_on_c, 0, 73, 40
1, 61905, Note_off_c, 0, 73, 64
1, 61952, Note_off_c, 0, 42, 64
1, 61952, Note_off_c, 0, 57, 64
1, 61952, Note_off_c, 0, 62, 64
1, 61952, Note_off_c, 0, 62, 64
1, 61952, Note_off_c, 0, 64, 64
1, 61952, Note_on_c, 0, 39, 64
1, 61952, Note_on_c, 0, 39, 30
1, 61952, Note_on_c, 0, 54, 64
1, 61952, Note_on_c, 0, 54, 80
1, 61952, Note_on_c, 0, 56, 80
1, 61952, Note_on_c, 0, 66, 30
1, 61952, Note_on_c, 0, 73, 40
1, 61952, Note_on_c, 0, 75, 64
1, 61952, Note_on_c, 0, 75, 80
1, 62080, Note_off_c, 0, 73, 64
1, 62080, Note_on_c, 0, 66, 40
1, 62161, Note_off_c, 0, 66, 64
1, 62208, Note_off_c, 0, 66, 64
1, 62208, Note_off_c, 0, 66, 64
1, 62208, Note_off_c, 0, 56, 64
1, 62208, Note_on_c, 0, 54, 80
1, 62208, Note_on_c, 0, 66, 40
1, 62208, Note_on_c, 0, 69, 64
1, 62208, Note_on_c, 0, 69, 80
1, 62285, Note_off_c, 0, 39, 64
1, 62336, Note_off_c, 0, 66, 64
1, 62336, Note_on_c, 0, 72, 40
1, 62417, Note_off_c, 0, 72, 64
1, 62464, Note_off_c, 0, 68, 64
1, 62464, Note_off_c, 0, 73, 64
1, 62464, Note_off_c, 0, 39, 64
1, 62464, Note_off_c, 0, 54, 64
1, 62464, Note_off_c, 0, 54, 64
1, 62464, Note_off_c, 0, 66, 64
1, 62464, Note_off_c, 0, 54, 64
1, 62464, Note_off_c, 0, 69, 64
1, 62464, Note_off_c, 0, 69, 64
1, 62464, Note_on_c, 0, 44, 64
1, 62464, Note_on_c, 0, 44, 30
1, 62464, Note_on_c, 0, 52, 80
1, 62464, Note_on_c, 0, 56, 64
1, 62464, Note_on_c, 0, 56, 80
1, 62464, Note_on_c, 0, 60, 64
1, 62464, Note_on_c, 0, 60, 80
1, 62464, Note_on_c, 0, 68, 30
1, 62464, Note_on_c, 0, 72, 40
1, 62464, Note_on_c, 0, 72, 30
1, 62592, Note_off_c, 0, 72, 64
1, 62592, Note_on_c, 0, 68, 40
1, 62673, Note_off_c, 0, 68, 64
1, 62720, Note_off_c, 0, 75, 64
1, 62720, Note_off_c, 0, 52, 64
1, 62720, Note_off_c, 0, 60, 64
1, 62720, Note_off_c, 0, 60, 64
1, 62720, Note_on_c, 0, 51, 80
1, 62720, Note_on_c, 0, 63, 64
1, 62720, Note_on_c, 0, 63, 80
1, 62720, Note_on_c, 0, 68, 40
1, 62720, Note_on_c, 0, 72, 80
1, 62797, Note_off_c, 0, 44, 64
1, 62848, Note_off_c, 0, 68, 64
1, 62848, Note_on_c, 0, 72, 40
1, 62886, Note_off_c, 0, 63, 64
1, 62929, Note_off_c, 0, 72, 64
1, 62976, Note_off_c, 0, 75, 64
1, 62976, Note_off_c, 0, 44, 64
1, 62976, Note_off_c, 0, 68, 64
1, 62976, Note_off_c, 0, 72, 64
1, 62976, Note_off_c, 0, 51, 64
1, 62976, Note_off_c, 0, 63, 64
1, 62976, Note_off_c, 0, 72, 64
1, 62976, Note_on_c, 0, 49, 64
1, 62976, Note_on_c, 0, 49, 30
1, 62976, Note_on_c, 0, 52, 80
1, 62976, Note_on_c, 0, 61, 64
1, 62976, Note_on_c, 0, 61, 80
1, 62976, Note_on_c, 0, 64, 30
1, 62976, Note_on_c, 0, 68, 30
1, 62976, Note_on_c, 0, 73, 40
1, 62976, Note_on_c, 0, 73, 64
1, 62976, Note_on_c, 0, 73, 80
1, 62976, Note_on_c, 0, 73, 30
1, 63104, Note_off_c, 0, 78, 64
1, 63104, Note_off_c, 0, 52, 64
1, 63104, Note_off_c, 0, 73, 64
1, 63104, Note_off_c, 0, 73, 64
1, 63104, Note_on_c, 0, 54, 80
1, 63104, Note_on_c, 0, 68, 80
1, 63104, Note_on_c, 0, 72, 64
1, 63104, Note_on_c, 0, 75, 40
1, 63232, Note_off_c, 0, 56, 64
1, 63232, Note_off_c, 0, 56, 64
1, 63232, Note_off_c, 0, 61, 64
1, 63232, Note_off_c, 0, 61, 64
1, 63232, Note_off_c, 0, 54, 64
1, 63232, Note_off_c, 0, 68, 64
1, 63232, Note_off_c, 0, 72, 64
1, 63232, Note_off_c, 0, 75, 64
1, 63232, Note_on_c, 0, 56, 80
1, 63232, Note_on_c, 0, 56, 64
1, 63232, Note_on_c, 0, 56, 80
1, 63232, Note_on_c, 0, 61, 64
1, 63232, Note_on_c, 0, 61, 80
1, 63232, Note_on_c, 0, 73, 64
1, 63232, Note_on_c, 0, 73, 80
1, 63232, Note_on_c, 0, 76, 40
1, 63309, Note_off_c, 0, 49, 64
1, 63360, Note_off_c, 0, 73, 64
1, 63360, Note_off_c, 0, 76, 64
1, 63360, Note_on_c, 0, 73, 40
1, 63360, Note_on_c, 0, 75, 64
1, 63488, Note_off_c, 0, 49, 64
1, 63488, Note_off_c, 0, 64, 64
1, 63488, Note_off_c, 0, 68, 64
1, 63488, Note_off_c, 0, 73, 64
1, 63488, Note_off_c, 0, 73, 64
1, 63488, Note_off_c, 0, 56, 64
1, 63488, Note_off_c, 0, 56, 64
1, 63488, Note_off_c, 0, 61, 64
1, 63488, Note_off_c, 0, 61, 64
1, 63488, Note_off_c, 0, 75, 64
1, 63488, Note_on_c, 0, 56, 64
1, 63488, Note_on_c, 0, 56, 30
1, 63488, Note_on_c, 0, 61, 64
1, 63488, Note_on_c, 0, 61, 80
1, 63488, Note_on_c, 0, 61, 30
1, 63488, Note_on_c, 0, 66, 30
1, 63488, Note_on_c, 0, 68, 64
1, 63488, Note_on_c, 0, 68, 80
1, 63488, Note_on_c, 0, 68, 30
1, 63488, Note_on_c, 0, 76, 40
1, 63488, Note_on_c, 0, 76, 64
1, 63552, Note_off_c, 0, 76, 64
1, 63552, Note_on_c, 0, 75, 40
1, 63616, Note_off_c, 0, 73, 64
1, 63616, Note_off_c, 0, 73, 64
1, 63616, Note_off_c, 0, 75, 64
1, 63616, Note_on_c, 0, 72, 40
1, 63616, Note_on_c, 0, 72, 80
1, 63616, Note_on_c, 0, 76, 40
1, 63680, Note_off_c, 0, 76, 64
1, 63680, Note_on_c, 0, 75, 40
1, 63744, Note_off_c, 0, 56, 64
1, 63744, Note_off_c, 0, 61, 64
1, 63744, Note_off_c, 0, 61, 64
1, 63744, Note_off_c, 0, 76, 64
1, 63744, Note_off_c, 0, 72, 64
1, 63744, Note_off_c, 0, 72, 64
1, 63744, Note_off_c, 0, 75, 64
1, 63744, Note_on_c, 0, 54, 64
1, 63744, Note_on_c, 0, 54, 80
1, 63744, Note_on_c, 0, 57, 80
1, 63744, Note_on_c, 0, 73, 40
1, 63744, Note_on_c, 0, 73, 80
1, 63744, Note_on_c, 0, 75, 64
1, 63744, Note_on_c, 0, 76, 40
1, 63808, Note_off_c, 0, 76, 64
1, 63808, Note_on_c, 0, 75, 40
1, 63821, Note_off_c, 0, 56, 64
1, 63872, Note_off_c, 0, 57, 64
1, 63872, Note_off_c, 0, 73, 64
1, 63872, Note_off_c, 0, 73, 64
1, 63872, Note_off_c, 0, 75, 64
1, 63872, Note_on_c, 0, 56, 80
1, 63872, Note_on_c, 0, 70, 40
1, 63872, Note_on_c, 0, 75, 80
1, 63872, Note_on_c, 0, 76, 40
1, 63910, Note_off_c, 0, 54, 64
1, 63936, Note_off_c, 0, 76, 64
1, 63936, Note_on_c, 0, 75, 40
1, 64000, Note_off_c, 0, 56, 64
1, 64000, Note_off_c, 0, 61, 64
1, 64000, Note_off_c, 0, 68, 64
1, 64000, Note_off_c, 0, 68, 64
1, 64000, Note_off_c, 0, 54, 64
1, 64000, Note_off_c, 0, 75, 64
1, 64000, Note_off_c, 0, 56, 64
1, 64000, Note_off_c, 0, 70, 64
1, 64000, Note_off_c, 0, 75, 64
1, 64000, Note_off_c, 0, 75, 64
1, 64000, Note_on_c, 0, 44, 64
1, 64000, Note_on_c, 0, 44, 30
1, 64000, Note_on_c, 0, 54, 80
1, 64000, Note_on_c, 0, 57, 64
1, 64000, Note_on_c, 0, 57, 80
1, 64000, Note_on_c, 0, 60, 30
1, 64000, Note_on_c, 0, 63, 64
1, 64000, Note_on_c, 0, 63, 80
1, 64000, Note_on_c, 0, 68, 64
1, 64000, Note_on_c, 0, 72, 40
1, 64000, Note_on_c, 0, 72, 80
1, 64000, Note_on_c, 0, 76, 40
1, 64064, Note_off_c, 0, 76, 64
1, 64064, Note_on_c, 0, 75, 40
1, 64128, Note_off_c, 0, 54, 64
1, 64128, Note_off_c, 0, 75, 64
1, 64128, Note_on_c, 0, 52, 80
1, 64128, Note_on_c, 0, 76, 40
1, 64192, Note_off_c, 0, 76, 64
1, 64192, Note_on_c, 0, 75, 40
1, 64256, Note_off_c, 0, 57, 64
1, 64256, Note_off_c, 0, 57, 64
1, 64256, Note_off_c, 0, 52, 64
1, 64256, Note_off_c, 0, 75, 64
1, 64256, Note_on_c, 0, 54, 80
1, 64256, Note_on_c, 0, 56, 64
1, 64256, Note_on_c, 0, 56, 80
1, 64256, Note_on_c, 0, 73, 40
1, 64333, Note_off_c, 0, 44, 64
1, 64384, Note_off_c, 0, 72, 64
1, 64384, Note_off_c, 0, 72, 64
1, 64384, Note_off_c, 0, 73, 64
1, 64384, Note_on_c, 0, 73, 40
1, 64384, Note_on_c, 0, 73, 80
1, 64422, Note_off_c, 0, 56, 64
1, 64512, Note_off_c, 0, 66, 64
1, 64512, Note_off_c, 0, 68, 64
1, 64512, Note_off_c, 0, 44, 64
1, 64512, Note_off_c, 0, 60, 64
1, 64512, Note_off_c, 0, 63, 64
1, 64512, Note_off_c, 0, 63, 64
1, 64512, Note_off_c, 0, 54, 64
1, 64512, Note_off_c, 0, 56, 64
1, 64512, Note_off_c, 0, 73, 64
1, 64512, Note_off_c, 0, 73, 64
1, 64512, Note_on_c, 0, 49, 64
1, 64512, Note_on_c, 0, 49, 30
1, 64512, Note_on_c, 0, 52, 80
1, 64512, Note_on_c, 0, 52, 64
1, 64512, Note_on_c, 0, 56, 80
1, 64512, Note_on_c, 0, 61, 30
1, 64512, Note_on_c, 0, 64, 64
1, 64512, Note_on_c, 0, 64, 80
1, 64512, Note_on_c, 0, 64, 30
1, 64512, Note_on_c, 0, 68, 30
1, 64512, Note_on_c, 0, 73, 40
1, 64512, Note_on_c, 0, 73, 40
1, 64512, Note_on_c, 0, 73, 80
1, 64768, Note_off_c, 0, 68, 64
1, 64768, Note_off_c, 0, 52, 64
1, 64768, Note_off_c, 0, 73, 64
1, 64768, Note_on_c, 0, 56, 60
1, 64768, Note_on_c, 0, 66, 60
1, 64768, Note_on_c, 0, 80, 40
1, 64845, Note_off_c, 0, 49, 64
1, 64896, Note_off_c, 0, 80, 64
1, 64896, Note_on_c, 0, 81, 40
1, 64934, Note_off_c, 0, 56, 64
1, 65024, Note_off_c, 0, 49, 64
1, 65024, Note_off_c, 0, 52, 64
1, 65024, Note_off_c, 0, 56, 64
1, 65024, Note_off_c, 0, 61, 64
1, 65024, Note_off_c, 0, 64, 64
1, 65024, Note_off_c, 0, 64, 64
1, 65024, Note_off_c, 0, 64, 64
1, 65024, Note_off_c, 0, 68, 64
1, 65024, Note_off_c, 0, 73, 64
1, 65024, Note_off_c, 0, 73, 64
1, 65024, Note_off_c, 0, 66, 64
1, 65024, Note_off_c, 0, 81, 64
1, 65024, Note_on_c, 0, 49, 80
1, 65024, Note_on_c, 0, 49, 64
1, 65024, Note_on_c, 0, 61, 56
1, 65024, Note_on_c, 0, 61, 80
1, 65024, Note_on_c, 0, 64, 56
1, 65024, Note_on_c, 0, 68, 64
1, 65024, Note_on_c, 0, 73, 64
1, 65024, Note_on_c, 0, 76, 40
1, 65024, Note_on_c, 0, 80, 40
1, 65152, Note_off_c, 0, 80, 64
1, 65152, Note_on_c, 0, 78, 40
1, 65280, Note_off_c, 0, 61, 64
1, 65280, Note_off_c, 0, 64, 64
1, 65280, Note_off_c, 0, 78, 64
1, 65280, Note_on_c, 0, 56, 52
1, 65280, Note_on_c, 0, 68, 52
1, 65280, Note_on_c, 0, 76, 40
1, 65357, Note_off_c, 0, 49, 64
1, 65408, Note_off_c, 0, 76, 64
1, 65408, Note_on_c, 0, 75, 40
1, 65446, Note_off_c, 0, 56, 64
1, 65446, Note_off_c, 0, 68, 64
1, 65536, Note_off_c, 0, 49, 64
1, 65536, Note_off_c, 0, 61, 64
1, 65536, Note_off_c, 0, 68, 64
1, 65536, Note_off_c, 0, 75, 64
1, 65536, Note_on_c, 0, 49, 64
1, 65536, Note_on_c, 0, 52, 48
1, 65536, Note_on_c, 0, 64, 64
1, 65536, Note_on_c, 0, 73, 40
1, 65536, Note_on_c, 0, 73, 48
1, 65664, Note_off_c, 0, 52, 64
1, 65664, Note_off_c, 0, 73, 64
1, 65664, Note_off_c, 0, 73, 64
1, 65664, Note_on_c, 0, 55, 46
1, 65664, Note_on_c, 0, 71, 46
1, 65664, Note_on_c, 0, 76, 40
1, 65792, Note_off_c, 0, 73, 64
1, 65792, Note_off_c, 0, 76, 64
1, 65792, Note_off_c, 0, 55, 64
1, 65792, Note_off_c, 0, 71, 64
1, 65792, Note_on_c, 0, 54, 44
1, 65792, Note_on_c, 0, 70, 44
1, 65792, Note_on_c, 0, 75, 40
1, 65792, Note_on_c, 0, 76, 64
1, 65869, Note_off_c, 0, 49, 64
1, 65920, Note_off_c, 0, 54, 64
1, 65920, Note_off_c, 0, 70, 64
1, 65920, Note_off_c, 0, 75, 64
1, 65920, Note_on_c, 0, 52, 42
1, 65920, Note_on_c, 0, 68, 42
1, 65920, Note_on_c, 0, 73, 40
1, 66048, Note_off_c, 0, 64, 64
1, 66048, Note_off_c, 0, 76, 64
1, 66048, Note_off_c, 0, 52, 64
1, 66048, Note_off_c, 0, 68, 64
1, 66048, Note_off_c, 0, 73, 64
1, 66048, Note_on_c, 0, 42, 64
1, 66048, Note_on_c, 0, 42, 30
1, 66048, Note_on_c, 0, 58, 30
1, 66048, Note_on_c, 0, 61, 40
1, 66048, Note_on_c, 0, 61, 64
1, 66048, Note_on_c, 0, 61, 30
1, 66048, Note_on_c, 0, 64, 30
1, 66048, Note_on_c, 0, 66, 40
1, 66048, Note_on_c, 0, 70, 64
1, 66048, Note_on_c, 0, 73, 40
1, 66048, Note_on_c, 0, 82, 40
1, 66176, Note_off_c, 0, 76, 64
1, 66176, Note_on_c, 0, 74, 40
1, 66304, Note_off_c, 0, 61, 64
1, 66304, Note_off_c, 0, 73, 64
1, 66304, Note_off_c, 0, 74, 64
1, 66304, Note_on_c, 0, 54, 40
1, 66304, Note_on_c, 0, 71, 40
1, 66304, Note_on_c, 0, 76, 40
1, 66381, Note_off_c, 0, 42, 64
1, 66432, Note_off_c, 0, 76, 64
1, 66432, Note_on_c, 0, 78, 40
1, 66470, Note_off_c, 0, 54, 64
1, 66470, Note_off_c, 0, 71, 64
1, 66560, Note_off_c, 0, 42, 64
1, 66560, Note_off_c, 0, 58, 64
1, 66560, Note_off_c, 0, 61, 64
1, 66560, Note_off_c, 0, 61, 64
1, 66560, Note_off_c, 0, 64, 64
1, 66560, Note_off_c, 0, 70, 64
1, 66560, Note_off_c, 0, 78, 64
1, 66560, Note_on_c, 0, 42, 64
1, 66560, Note_on_c, 0, 54, 64
1, 66560, Note_on_c, 0, 58, 64
1, 66560, Note_on_c, 0, 61, 40
1, 66560, Note_on_c, 0, 66, 64
1, 66560, Note_on_c, 0, 73, 40
1, 66560, Note_on_c, 0, 73, 64
1, 66560, Note_on_c, 0, 76, 40
1, 66688, Note_off_c, 0, 76, 64
1, 66688, Note_on_c, 0, 74, 40
1, 66816, Note_off_c, 0, 61, 64
1, 66816, Note_off_c, 0, 73, 64
1, 66816, Note_off_c, 0, 73, 64
1, 66816, Note_off_c, 0, 74, 64
1, 66816, Note_on_c, 0, 54, 40
1, 66816, Note_on_c, 0, 70, 40
1, 66816, Note_on_c, 0, 70, 64
1, 66816, Note_on_c, 0, 73, 40
1, 66893, Note_off_c, 0, 42, 64
1, 66944, Note_off_c, 0, 73, 64
1, 66944, Note_on_c, 0, 71, 40
1, 66982, Note_off_c, 0, 54, 64
1, 66982, Note_off_c, 0, 70, 64
1, 67072, Note_off_c, 0, 82, 64
1, 67072, Note_off_c, 0, 54, 64
1, 67072, Note_off_c, 0, 66, 64
1, 67072, Note_off_c, 0, 70, 64
1, 67072, Note_off_c, 0, 71, 64
1, 67072, Note_on_c, 0, 42, 64
1, 67072, Note_on_c, 0, 58, 64
1, 67072, Note_on_c, 0, 61, 40
1, 67072, Note_on_c, 0, 66, 64
1, 67072, Note_on_c, 0, 66, 64
1, 67072, Note_on_c, 0, 70, 40
1, 67072, Note_on_c, 0, 78, 40
1, 67072, Note_on_c, 0, 85, 40
1, 67200, Note_off_c, 0, 70, 64
1, 67200, Note_off_c, 0, 78, 64
1, 67200, Note_on_c, 0, 76, 40
1, 67200, Note_on_c, 0, 79, 40
1, 67328, Note_off_c, 0, 58, 64
1, 67328, Note_off_c, 0, 61, 64
1, 67328, Note_off_c, 0, 66, 64
1, 67328, Note_off_c, 0, 76, 64
1, 67328, Note_off_c, 0, 79, 64
1, 67328, Note_on_c, 0, 54, 64
1, 67328, Note_on_c, 0, 54, 40
1, 67328, Note_on_c, 0, 73, 64
1, 67328, Note_on_c, 0, 74, 40
1, 67328, Note_on_c, 0, 78, 40
1, 67405, Note_off_c, 0, 42, 64
1, 67456, Note_off_c, 0, 74, 64
1, 67456, Note_off_c, 0, 78, 64
1, 67456, Note_on_c, 0, 73, 40
1, 67456, Note_on_c, 0, 76, 40
1, 67494, Note_off_c, 0, 54, 64
1, 67584, Note_off_c, 0, 58, 64
1, 67584, Note_off_c, 0, 66, 64
1, 67584, Note_off_c, 0, 54, 64
1, 67584, Note_off_c, 0, 73, 64
1, 67584, Note_off_c, 0, 73, 64
1, 67584, Note_off_c, 0, 76, 64
1, 67584, Note_on_c, 0, 47, 64
1, 67584, Note_on_c, 0, 47, 30
1, 67584, Note_on_c, 0, 59, 64
1, 67584, Note_on_c, 0, 59, 64
1, 67584, Note_on_c, 0, 62, 40
1, 67584, Note_on_c, 0, 62, 30
1, 67584, Note_on_c, 0, 66, 64
1, 67584, Note_on_c, 0, 66, 30
1, 67584, Note_on_c, 0, 71, 40
1, 67584, Note_on_c, 0, 73, 30
1, 67584, Note_on_c, 0, 74, 40
1, 67584, Note_on_c, 0, 74, 64
1, 67712, Note_off_c, 0, 85, 64
1, 67712, Note_on_c, 0, 82, 40
1, 67793, Note_off_c, 0, 82, 64
1, 67840, Note_off_c, 0, 66, 64
1, 67840, Note_off_c, 0, 62, 64
1, 67840, Note_on_c, 0, 54, 40
1, 67840, Note_on_c, 0, 66, 40
1, 67840, Note_on_c, 0, 82, 40
1, 67917, Note_off_c, 0, 47, 64
1, 67968, Note_off_c, 0, 82, 64
1, 67968, Note_on_c, 0, 83, 40
1, 68006, Note_off_c, 0, 54, 64
1, 68049, Note_off_c, 0, 83, 64
1, 68096, Note_off_c, 0, 47, 64
1, 68096, Note_off_c, 0, 59, 64
1, 68096, Note_off_c, 0, 59, 64
1, 68096, Note_off_c, 0, 73, 64
1, 68096, Note_off_c, 0, 66, 64
1, 68096, Note_on_c, 0, 47, 64
1, 68096, Note_on_c, 0, 59, 64
1, 68096, Note_on_c, 0, 62, 40
1, 68096, Note_on_c, 0, 62, 64
1, 68096, Note_on_c, 0, 71, 40
1, 68096, Note_on_c, 0, 71, 30
1, 68096, Note_on_c, 0, 83, 40
1, 68224, Note_off_c, 0, 83, 64
1, 68224, Note_on_c, 0, 79, 40
1, 68305, Note_off_c, 0, 79, 64
1, 68352, Note_off_c, 0, 62, 64
1, 68352, Note_off_c, 0, 71, 64
1, 68352, Note_on_c, 0, 54, 40
1, 68352, Note_on_c, 0, 74, 40
1, 68352, Note_on_c, 0, 79, 40
1, 68429, Note_off_c, 0, 47, 64
1, 68480, Note_off_c, 0, 79, 64
1, 68480, Note_on_c, 0, 81, 40
1, 68518, Note_off_c, 0, 54, 64
1, 68518, Note_off_c, 0, 74, 64
1, 68561, Note_off_c, 0, 81, 64
1, 68608, Note_off_c, 0, 62, 64
1, 68608, Note_off_c, 0, 66, 64
1, 68608, Note_off_c, 0, 66, 64
1, 68608, Note_off_c, 0, 59, 64
1, 68608, Note_off_c, 0, 62, 64
1, 68608, Note_off_c, 0, 71, 64
1, 68608, Note_on_c, 0, 47, 64
1, 68608, Note_on_c, 0, 59, 64
1, 68608, Note_on_c, 0, 62, 64
1, 68608, Note_on_c, 0, 62, 40
1, 68608, Note_on_c, 0, 66, 40
1, 68608, Note_on_c, 0, 66, 64
1, 68608, Note_on_c, 0, 81, 40
1, 68736, Note_off_c, 0, 81, 64
1, 68736, Note_on_c, 0, 78, 40
1, 68817, Note_off_c, 0, 78, 64
1, 68864, Note_off_c, 0, 62, 64
1, 68864, Note_off_c, 0, 66, 64
1, 68864, Note_on_c, 0, 54, 40
1, 68864, Note_on_c, 0, 71, 40
1, 68864, Note_on_c, 0, 78, 40
1, 68941, Note_off_c, 0, 47, 64
1, 68992, Note_off_c, 0, 78, 64
1, 68992, Note_on_c, 0, 80, 40
1, 69030, Note_off_c, 0, 54, 64
1, 69030, Note_off_c, 0, 71, 64
1, 69073, Note_off_c, 0, 80, 64
1, 69120, Note_off_c, 0, 59, 64
1, 69120, Note_off_c, 0, 62, 64
1, 69120, Note_off_c, 0, 66, 64
1, 69120, Note_on_c, 0, 41, 64
1, 69120, Note_on_c, 0, 41, 30
1, 69120, Note_on_c, 0, 53, 64
1, 69120, Note_on_c, 0, 56, 64
1, 69120, Note_on_c, 0, 59, 40
1, 69120, Note_on_c, 0, 59, 64
1, 69120, Note_on_c, 0, 62, 30
1, 69120, Note_on_c, 0, 65, 30
1, 69120, Note_on_c, 0, 68, 40
1, 69120, Note_on_c, 0, 68, 30
1, 69120, Note_on_c, 0, 71, 30
1, 69120, Note_on_c, 0, 80, 40
1, 69248, Note_off_c, 0, 74, 64
1, 69248, Note_on_c, 0, 71, 40
1, 69329, Note_off_c, 0, 71, 64
1, 69376, Note_off_c, 0, 71, 64
1, 69376, Note_off_c, 0, 59, 64
1, 69376, Note_on_c, 0, 49, 40
1, 69376, Note_on_c, 0, 68, 40
1, 69376, Note_on_c, 0, 71, 40
1, 69453, Note_off_c, 0, 41, 64
1, 69504, Note_off_c, 0, 71, 64
1, 69504, Note_on_c, 0, 73, 40
1, 69542, Note_off_c, 0, 49, 64
1, 69585, Note_off_c, 0, 73, 64
1, 69632, Note_off_c, 0, 74, 64
1, 69632, Note_off_c, 0, 41, 64
1, 69632, Note_off_c, 0, 59, 64
1, 69632, Note_off_c, 0, 62, 64
1, 69632, Note_off_c, 0, 68, 64
1, 69632, Note_off_c, 0, 68, 64
1, 69632, Note_on_c, 0, 41, 64
1, 69632, Note_on_c, 0, 56, 40
1, 69632, Note_on_c, 0, 61, 30
1, 69632, Note_on_c, 0, 65, 40
1, 69632, Note_on_c, 0, 68, 64
1, 69632, Note_on_c, 0, 73, 40
1, 69632, Note_on_c, 0, 73, 64
1, 69760, Note_off_c, 0, 73, 64
1, 69760, Note_on_c, 0, 69, 40
1, 69841, Note_off_c, 0, 69, 64
1, 69888, Note_off_c, 0, 53, 64
1, 69888, Note_off_c, 0, 56, 64
1, 69888, Note_off_c, 0, 56, 64
1, 69888, Note_off_c, 0, 65, 64
1, 69888, Note_on_c, 0, 49, 40
1, 69888, Note_on_c, 0, 53, 64
1, 69888, Note_on_c, 0, 61, 40
1, 69888, Note_on_c, 0, 61, 64
1, 69888, Note_on_c, 0, 69, 40
1, 69888, Note_on_c, 0, 73, 40
1, 69965, Note_off_c, 0, 41, 64
1, 70016, Note_off_c, 0, 69, 64
1, 70016, Note_on_c, 0, 71, 40
1, 70054, Note_off_c, 0, 49, 64
1, 70054, Note_off_c, 0, 73, 64
1, 70097, Note_off_c, 0, 71, 64
1, 70144, Note_off_c, 0, 61, 64
1, 70144, Note_off_c, 0, 68, 64
1, 70144, Note_off_c, 0, 73, 64
1, 70144, Note_off_c, 0, 53, 64
1, 70144, Note_off_c, 0, 61, 64
1, 70144, Note_off_c, 0, 61, 64
1, 70144, Note_on_c, 0, 41, 64
1, 70144, Note_on_c, 0, 53, 64
1, 70144, Note_on_c, 0, 59, 30
1, 70144, Note_on_c, 0, 61, 40
1, 70144, Note_on_c, 0, 61, 64
1, 70144, Note_on_c, 0, 65, 40
1, 70144, Note_on_c, 0, 68, 40
1, 70144, Note_on_c, 0, 68, 64
1, 70144, Note_on_c, 0, 71, 40
1, 70144, Note_on_c, 0, 71, 64
1, 70272, Note_off_c, 0, 71, 64
1, 70272, Note_on_c, 0, 68, 40
1, 70353, Note_off_c, 0, 68, 64
1, 70400, Note_off_c, 0, 53, 64
1, 70400, Note_off_c, 0, 61, 64
1, 70400, Note_off_c, 0, 61, 64
1, 70400, Note_off_c, 0, 65, 64
1, 70400, Note_off_c, 0, 68, 64
1, 70400, Note_on_c, 0, 49, 40
1, 70400, Note_on_c, 0, 53, 64
1, 70400, Note_on_c, 0, 61, 64
1, 70400, Note_on_c, 0, 68, 40
1, 70400, Note_on_c, 0, 68, 40
1, 70400, Note_on_c, 0, 71, 40
1, 70477, Note_off_c, 0, 41, 64
1, 70528, Note_off_c, 0, 68, 64
1, 70528, Note_on_c, 0, 69, 40
1, 70566, Note_off_c, 0, 49, 64
1, 70566, Note_off_c, 0, 68, 64
1, 70566, Note_off_c, 0, 71, 64
1, 70609, Note_off_c, 0, 69, 64
1, 70656, Note_off_c, 0, 65, 64
1, 70656, Note_off_c, 0, 68, 64
1, 70656, Note_off_c, 0, 71, 64
1, 70656, Note_off_c, 0, 59, 64
1, 70656, Note_off_c, 0, 68, 64
1, 70656, Note_off_c, 0, 71, 64
1, 70656, Note_off_c, 0, 53, 64
1, 70656, Note_off_c, 0, 61, 64
1, 70656, Note_on_c, 0, 42, 64
1, 70656, Note_on_c, 0, 42, 30
1, 70656, Note_on_c, 0, 54, 64
1, 70656, Note_on_c, 0, 54, 40
1, 70656, Note_on_c, 0, 59, 30
1, 70656, Note_on_c, 0, 61, 64
1, 70656, Note_on_c, 0, 65, 30
1, 70656, Note_on_c, 0, 68, 64
1, 70656, Note_on_c, 0, 68, 30
1, 70656, Note_on_c, 0, 69, 40
1, 70656, Note_on_c, 0, 69, 40
1, 70656, Note_on_c, 0, 69, 64
1, 70656, Note_on_c, 0, 73, 40
1, 70784, Note_off_c, 0, 80, 64
1, 70784, Note_on_c, 0, 77, 40
1, 70865, Note_off_c, 0, 77, 64
1, 70912, Note_off_c, 0, 69, 64
1, 70912, Note_off_c, 0, 73, 64
1, 70912, Note_on_c, 0, 71, 40
1, 70912, Note_on_c, 0, 74, 40
1, 70912, Note_on_c, 0, 77, 40
1, 70989, Note_off_c, 0, 42, 64
1, 71040, Note_off_c, 0, 77, 64
1, 71040, Note_on_c, 0, 78, 40
1, 71078, Note_off_c, 0, 71, 64
1, 71078, Note_off_c, 0, 74, 64
1, 71121, Note_off_c, 0, 78, 64
1, 71168, Note_off_c, 0, 42, 64
1, 71168, Note_off_c, 0, 59, 64
1, 71168, Note_off_c, 0, 65, 64
1, 71168, Note_off_c, 0, 68, 64
1, 71168, Note_off_c, 0, 68, 64
1, 71168, Note_on_c, 0, 42, 64
1, 71168, Note_on_c, 0, 61, 30
1, 71168, Note_on_c, 0, 66, 64
1, 71168, Note_on_c, 0, 66, 30
1, 71168, Note_on_c, 0, 69, 40
1, 71168, Note_on_c, 0, 69, 30
1, 71168, Note_on_c, 0, 73, 40
1, 71168, Note_on_c, 0, 78, 40
1, 71296, Note_off_c, 0, 78, 64
1, 71296, Note_on_c, 0, 74, 40
1, 71377, Note_off_c, 0, 74, 64
1, 71424, Note_off_c, 0, 69, 64
1, 71424, Note_off_c, 0, 73, 64
1, 71424, Note_on_c, 0, 68, 40
1, 71424, Note_on_c, 0, 71, 40
1, 71424, Note_on_c, 0, 74, 40
1, 71501, Note_off_c, 0, 42, 64
1, 71552, Note_off_c, 0, 74, 64
1, 71552, Note_on_c, 0, 76, 40
1, 71590, Note_off_c, 0, 68, 64
1, 71590, Note_off_c, 0, 71, 64
1, 71633, Note_off_c, 0, 76, 64
1, 71680, Note_off_c, 0, 54, 64
1, 71680, Note_off_c, 0, 61, 64
1, 71680, Note_off_c, 0, 69, 64
1, 71680, Note_off_c, 0, 66, 64
1, 71680, Note_on_c, 0, 42, 64
1, 71680, Note_on_c, 0, 54, 64
1, 71680, Note_on_c, 0, 61, 64
1, 71680, Note_on_c, 0, 66, 40
1, 71680, Note_on_c, 0, 66, 64
1, 71680, Note_on_c, 0, 69, 40
1, 71680, Note_on_c, 0, 69, 64
1, 71680, Note_on_c, 0, 76, 40
1, 71808, Note_off_c, 0, 76, 64
1, 71808, Note_on_c, 0, 73, 40
1, 71889, Note_off_c, 0, 73, 64
1, 71936, Note_off_c, 0, 66, 64
1, 71936, Note_off_c, 0, 69, 64
1, 71936, Note_on_c, 0, 68, 40
1, 71936, Note_on_c, 0, 73, 40
1, 71936, Note_on_c, 0, 76, 40
1, 72013, Note_off_c, 0, 42, 64
1, 72064, Note_off_c, 0, 73, 64
1, 72064, Note_on_c, 0, 74, 40
1, 72102, Note_off_c, 0, 68, 64
1, 72102, Note_off_c, 0, 76, 64
1, 72145, Note_off_c, 0, 74, 64
1, 72192, Note_off_c, 0, 61, 64
1, 72192, Note_off_c, 0, 66, 64
1, 72192, Note_off_c, 0, 69, 64
1, 72192, Note_off_c, 0, 54, 64
1, 72192, Note_off_c, 0, 61, 64
1, 72192, Note_off_c, 0, 66, 64
1, 72192, Note_off_c, 0, 69, 64
1, 72192, Note_on_c, 0, 47, 64
1, 72192, Note_on_c, 0, 47, 40
1, 72192, Note_on_c, 0, 59, 40
1, 72192, Note_on_c, 0, 62, 40
1, 72192, Note_on_c, 0, 66, 40
1, 72192, Note_on_c, 0, 69, 40
1, 72192, Note_on_c, 0, 74, 25
1, 72192, Note_on_c, 0, 74, 40
1, 72320, Note_off_c, 0, 69, 64
1, 72320, Note_on_c, 0, 66, 25
1, 72401, Note_off_c, 0, 66, 64
1, 72448, Note_off_c, 0, 54, 64
1, 72448, Note_off_c, 0, 66, 64
1, 72448, Note_off_c, 0, 74, 64
1, 72448, Note_on_c, 0, 54, 39
1, 72448, Note_on_c, 0, 66, 25
1, 72448, Note_on_c, 0, 73, 39
1, 72448, Note_on_c, 0, 76, 39
1, 72525, Note_off_c, 0, 47, 64
1, 72576, Note_off_c, 0, 74, 64
1, 72576, Note_off_c, 0, 66, 64
1, 72576, Note_on_c, 0, 67, 25
1, 72576, Note_on_c, 0, 71, 25
1, 72614, Note_off_c, 0, 73, 64
1, 72614, Note_off_c, 0, 76, 64
1, 72657, Note_off_c, 0, 67, 64
1, 72657, Note_off_c, 0, 71, 64
1, 72704, Note_off_c, 0, 47, 64
1, 72704, Note_off_c, 0, 69, 64
1, 72704, Note_off_c, 0, 54, 64
1, 72704, Note_on_c, 0, 47, 64
1, 72704, Note_on_c, 0, 55, 38
1, 72704, Note_on_c, 0, 59, 47
1, 72704, Note_on_c, 0, 59, 47
1, 72704, Note_on_c, 0, 62, 47
1, 72704, Note_on_c, 0, 67, 25
1, 72704, Note_on_c, 0, 67, 47
1, 72704, Note_on_c, 0, 67, 38
1, 72704, Note_on_c, 0, 71, 25
1, 72704, Note_on_c, 0, 71, 38
1, 72704, Note_on_c, 0, 74, 38
1, 72832, Note_off_c, 0, 67, 64
1, 72832, Note_off_c, 0, 71, 64
1, 72832, Note_on_c, 0, 71, 25
1, 72832, Note_on_c, 0, 74, 25
1, 72913, Note_off_c, 0, 71, 64
1, 72913, Note_off_c, 0, 74, 64
1, 72960, Note_off_c, 0, 55, 64
1, 72960, Note_off_c, 0, 67, 64
1, 72960, Note_off_c, 0, 71, 64
1, 72960, Note_off_c, 0, 74, 64
1, 72960, Note_on_c, 0, 57, 37
1, 72960, Note_on_c, 0, 66, 46
1, 72960, Note_on_c, 0, 69, 37
1, 72960, Note_on_c, 0, 71, 25
1, 72960, Note_on_c, 0, 73, 37
1, 72960, Note_on_c, 0, 74, 25
1, 73037, Note_off_c, 0, 47, 64
1, 73088, Note_off_c, 0, 71, 64
1, 73088, Note_off_c, 0, 74, 64
1, 73088, Note_on_c, 0, 74, 25
1, 73088, Note_on_c, 0, 79, 25
1, 73126, Note_off_c, 0, 69, 64
1, 73126, Note_off_c, 0, 73, 64
1, 73169, Note_off_c, 0, 74, 64
1, 73169, Note_off_c, 0, 79, 64
1, 73216, Note_off_c, 0, 59, 64
1, 73216, Note_off_c, 0, 59, 64
1, 73216, Note_off_c, 0, 62, 64
1, 73216, Note_off_c, 0, 67, 64
1, 73216, Note_off_c, 0, 57, 64
1, 73216, Note_off_c, 0, 66, 64
1, 73216, Note_on_c, 0, 47, 45
1, 73216, Note_on_c, 0, 47, 64
1, 73216, Note_on_c, 0, 59, 37
1, 73216, Note_on_c, 0, 59, 45
1, 73216, Note_on_c, 0, 62, 45
1, 73216, Note_on_c, 0, 66, 37
1, 73216, Note_on_c, 0, 67, 37
1, 73216, Note_on_c, 0, 67, 45
1, 73216, Note_on_c, 0, 71, 37
1, 73216, Note_on_c, 0, 74, 25
1, 73216, Note_on_c, 0, 79, 25
1, 73344, Note_off_c, 0, 74, 64
1, 73344, Note_off_c, 0, 79, 64
1, 73344, Note_on_c, 0, 79, 25
1, 73344, Note_on_c, 0, 83, 25
1, 73425, Note_off_c, 0, 79, 64
1, 73425, Note_off_c, 0, 83, 64
1, 73472, Note_off_c, 0, 59, 64
1, 73472, Note_off_c, 0, 67, 64
1, 73472, Note_off_c, 0, 67, 64
1, 73472, Note_off_c, 0, 71, 64
1, 73472, Note_on_c, 0, 59, 36
1, 73472, Note_on_c, 0, 62, 36
1, 73472, Note_on_c, 0, 71, 44
1, 73472, Note_on_c, 0, 74, 36
1, 73472, Note_on_c, 0, 79, 25
1, 73472, Note_on_c, 0, 83, 25
1, 73549, Note_off_c, 0, 47, 64
1, 73600, Note_off_c, 0, 79, 64
1, 73600, Note_off_c, 0, 83, 64
1, 73600, Note_on_c, 0, 83, 25
1, 73600, Note_on_c, 0, 86, 25
1, 73638, Note_off_c, 0, 59, 64
1, 73638, Note_off_c, 0, 74, 64
1, 73681, Note_off_c, 0, 83, 64
1, 73681, Note_off_c, 0, 86, 64
1, 73728, Note_off_c, 0, 59, 64
1, 73728, Note_off_c, 0, 62, 64
1, 73728, Note_off_c, 0, 47, 64
1, 73728, Note_off_c, 0, 59, 64
1, 73728, Note_off_c, 0, 62, 64
1, 73728, Note_off_c, 0, 66, 64
1, 73728, Note_off_c, 0, 62, 64
1, 73728, Note_off_c, 0, 71, 64
1, 73728, Note_on_c, 0, 49, 42
1, 73728, Note_on_c, 0, 49, 30
1, 73728, Note_on_c, 0, 49, 35
1, 73728, Note_on_c, 0, 56, 42
1, 73728, Note_on_c, 0, 59, 42
1, 73728, Note_on_c, 0, 59, 35
1, 73728, Note_on_c, 0, 61, 35
1, 73728, Note_on_c, 0, 62, 35
1, 73728, Note_on_c, 0, 65, 35
1, 73728, Note_on_c, 0, 65, 42
1, 73728, Note_on_c, 0, 65, 35
1, 73728, Note_on_c, 0, 68, 35
1, 73728, Note_on_c, 0, 83, 25
1, 73728, Note_on_c, 0, 86, 25
1, 73856, Note_off_c, 0, 83, 64
1, 73856, Note_on_c, 0, 77, 25
1, 73937, Note_off_c, 0, 77, 64
1, 73984, Note_on_c, 0, 77, 25
1, 74112, Note_off_c, 0, 77, 64
1, 74112, Note_on_c, 0, 80, 25
1, 74193, Note_off_c, 0, 80, 64
1, 74240, Note_on_c, 0, 80, 25
1, 74368, Note_off_c, 0, 80, 64
1, 74368, Note_on_c, 0, 73, 25
1, 74449, Note_off_c, 0, 73, 64
1, 74496, Note_off_c, 0, 49, 64
1, 74496, Note_off_c, 0, 49, 64
1, 74496, Note_off_c, 0, 49, 64
1, 74496, Note_off_c, 0, 56, 64
1, 74496, Note_off_c, 0, 59, 64
1, 74496, Note_off_c, 0, 59, 64
1, 74496, Note_off_c, 0, 61, 64
1, 74496, Note_off_c, 0, 62, 64
1, 74496, Note_off_c, 0, 65, 64
1, 74496, Note_off_c, 0, 65, 64
1, 74496, Note_off_c, 0, 65, 64
1, 74496, Note_off_c, 0, 68, 64
1, 74496, Note_off_c, 0, 86, 64
1, 74496, Note_on_c, 0, 49, 39
1, 74496, Note_on_c, 0, 49, 30
1, 74496, Note_on_c, 0, 49, 32
1, 74496, Note_on_c, 0, 53, 32
1, 74496, Note_on_c, 0, 57, 39
1, 74496, Note_on_c, 0, 61, 39
1, 74496, Note_on_c, 0, 61, 32
1, 74496, Note_on_c, 0, 65, 32
1, 74496, Note_on_c, 0, 68, 32
1, 74496, Note_on_c, 0, 69, 39
1, 74496, Note_on_c, 0, 73, 25
1, 74496, Note_on_c, 0, 73, 32
1, 74496, Note_on_c, 0, 85, 25
1, 74624, Note_off_c, 0, 73, 64
1, 74624, Note_on_c, 0, 77, 25
1, 74705, Note_off_c, 0, 77, 64
1, 74752, Note_off_c, 0, 49, 64
1, 74752, Note_off_c, 0, 49, 64
1, 74752, Note_off_c, 0, 49, 64
1, 74752, Note_off_c, 0, 53, 64
1, 74752, Note_off_c, 0, 57, 64
1, 74752, Note_off_c, 0, 61, 64
1, 74752, Note_off_c, 0, 61, 64
1, 74752, Note_off_c, 0, 65, 64
1, 74752, Note_off_c, 0, 68, 64
1, 74752, Note_off_c, 0, 69, 64
1, 74752, Note_off_c, 0, 73, 64
1, 74752, Note_off_c, 0, 85, 64
1, 74752, Note_on_c, 0, 50, 37
1, 74752, Note_on_c, 0, 50, 30
1, 74752, Note_on_c, 0, 50, 32
1, 74752, Note_on_c, 0, 54, 37
1, 74752, Note_on_c, 0, 59, 32
1, 74752, Note_on_c, 0, 59, 37
1, 74752, Note_on_c, 0, 59, 32
1, 74752, Note_on_c, 0, 66, 32
1, 74752, Note_on_c, 0, 66, 32
1, 74752, Note_on_c, 0, 66, 37
1, 74752, Note_on_c, 0, 66, 32
1, 74752, Note_on_c, 0, 78, 25
1, 74752, Note_on_c, 0, 83, 25
1, 74880, Note_off_c, 0, 83, 64
1, 74880, Note_on_c, 0, 81, 25
1, 75008, Note_off_c, 0, 59, 64
1, 75008, Note_off_c, 0, 66, 64
1, 75008, Note_off_c, 0, 66, 64
1, 75008, Note_off_c, 0, 81, 64
1, 75008, Note_on_c, 0, 62, 31
1, 75008, Note_on_c, 0, 68, 31
1, 75008, Note_on_c, 0, 71, 31
1, 75008, Note_on_c, 0, 83, 25
1, 75085, Note_off_c, 0, 50, 64
1, 75136, Note_off_c, 0, 68, 64
1, 75136, Note_off_c, 0, 83, 64
1, 75136, Note_on_c, 0, 65, 30
1, 75136, Note_on_c, 0, 80, 25
1, 75174, Note_off_c, 0, 62, 64
1, 75174, Note_off_c, 0, 71, 64
1, 75264, Note_off_c, 0, 50, 64
1, 75264, Note_off_c, 0, 50, 64
1, 75264, Note_off_c, 0, 59, 64
1, 75264, Note_off_c, 0, 66, 64
1, 75264, Note_off_c, 0, 65, 64
1, 75264, Note_off_c, 0, 80, 64
1, 75264, Note_on_c, 0, 47, 30
1, 75264, Note_on_c, 0, 47, 30
1, 75264, Note_on_c, 0, 47, 30
1, 75264, Note_on_c, 0, 54, 30
1, 75264, Note_on_c, 0, 59, 30
1, 75264, Note_on_c, 0, 62, 30
1, 75264, Note_on_c, 0, 62, 30
1, 75264, Note_on_c, 0, 66, 30
1, 75264, Note_on_c, 0, 66, 30
1, 75264, Note_on_c, 0, 69, 30
1, 75264, Note_on_c, 0, 81, 25
1, 75392, Note_off_c, 0, 78, 64
1, 75392, Note_off_c, 0, 81, 64
1, 75392, Note_on_c, 0, 77, 25
1, 75392, Note_on_c, 0, 80, 25
1, 75520, Note_off_c, 0, 54, 64
1, 75520, Note_off_c, 0, 59, 64
1, 75520, Note_off_c, 0, 66, 64
1, 75520, Note_off_c, 0, 54, 64
1, 75520, Note_off_c, 0, 62, 64
1, 75520, Note_off_c, 0, 66, 64
1, 75520, Note_off_c, 0, 77, 64
1, 75520, Note_off_c, 0, 80, 64
1, 75520, Note_on_c, 0, 54, 30
1, 75520, Note_on_c, 0, 62, 30
1, 75520, Note_on_c, 0, 66, 30
1, 75520, Note_on_c, 0, 66, 30
1, 75520, Note_on_c, 0, 74, 30
1, 75520, Note_on_c, 0, 74, 30
1, 75520, Note_on_c, 0, 78, 25
1, 75520, Note_on_c, 0, 81, 25
1, 75597, Note_off_c, 0, 47, 64
1, 75648, Note_off_c, 0, 78, 64
1, 75648, Note_off_c, 0, 81, 64
1, 75648, Note_on_c, 0, 80, 25
1, 75648, Note_on_c, 0, 83, 25
1, 75686, Note_off_c, 0, 66, 64
1, 75729, Note_off_c, 0, 80, 64
1, 75729, Note_off_c, 0, 83, 64
1, 75776, Note_off_c, 0, 47, 64
1, 75776, Note_off_c, 0, 47, 64
1, 75776, Note_off_c, 0, 59, 64
1, 75776, Note_off_c, 0, 62, 64
1, 75776, Note_off_c, 0, 66, 64
1, 75776, Note_off_c, 0, 69, 64
1, 75776, Note_off_c, 0, 54, 64
1, 75776, Note_off_c, 0, 62, 64
1, 75776, Note_off_c, 0, 66, 64
1, 75776, Note_off_c, 0, 74, 64
1, 75776, Note_off_c, 0, 74, 64
1, 75776, Note_on_c, 0, 49, 30
1, 75776, Note_on_c, 0, 49, 30
1, 75776, Note_on_c, 0, 49, 30
1, 75776, Note_on_c, 0, 56, 30
1, 75776, Note_on_c, 0, 61, 30
1, 75776, Note_on_c, 0, 61, 30
1, 75776, Note_on_c, 0, 61, 30
1, 75776, Note_on_c, 0, 65, 30
1, 75776, Note_on_c, 0, 66, 30
1, 75776, Note_on_c, 0, 68, 30
1, 75776, Note_on_c, 0, 73, 30
1, 75776, Note_on_c, 0, 73, 30
1, 75776, Note_on_c, 0, 78, 25
1, 75776, Note_on_c, 0, 80, 25
1, 75840, Note_off_c, 0, 78, 64
1, 75840, Note_on_c, 0, 77, 25
1, 75904, Note_off_c, 0, 77, 64
1, 75904, Note_on_c, 0, 78, 25
1, 75968, Note_off_c, 0, 78, 64
1, 75968, Note_on_c, 0, 77, 25
1, 76032, Note_off_c, 0, 56, 64
1, 76032, Note_off_c, 0, 73, 64
1, 76032, Note_off_c, 0, 73, 64
1, 76032, Note_off_c, 0, 77, 64
1, 76032, Note_on_c, 0, 54, 30
1, 76032, Note_on_c, 0, 70, 30
1, 76032, Note_on_c, 0, 70, 30
1, 76032, Note_on_c, 0, 78, 25
1, 76096, Note_off_c, 0, 78, 64
1, 76096, Note_on_c, 0, 77, 25
1, 76109, Note_off_c, 0, 49, 64
1, 76160, Note_off_c, 0, 77, 64
1, 76160, Note_on_c, 0, 78, 25
1, 76198, Note_off_c, 0, 70, 64
1, 76224, Note_off_c, 0, 78, 64
1, 76224, Note_on_c, 0, 77, 25
1, 76288, Note_off_c, 0, 49, 64
1, 76288, Note_off_c, 0, 61, 64
1, 76288, Note_off_c, 0, 66, 64
1, 76288, Note_off_c, 0, 54, 64
1, 76288, Note_off_c, 0, 70, 64
1, 76288, Note_off_c, 0, 77, 64
1, 76288, Note_on_c, 0, 37, 30
1, 76288, Note_on_c, 0, 37, 30
1, 76288, Note_on_c, 0, 56, 30
1, 76288, Note_on_c, 0, 61, 30
1, 76288, Note_on_c, 0, 65, 30
1, 76288, Note_on_c, 0, 71, 30
1, 76288, Note_on_c, 0, 71, 30
1, 76288, Note_on_c, 0, 78, 25
1, 76352, Note_off_c, 0, 78, 64
1, 76352, Note_on_c, 0, 77, 25
1, 76416, Note_off_c, 0, 77, 64
1, 76416, Note_on_c, 0, 78, 25
1, 76480, Note_off_c, 0, 78, 64
1, 76480, Note_on_c, 0, 77, 25
1, 76544, Note_off_c, 0, 80, 64
1, 76544, Note_off_c, 0, 56, 64
1, 76544, Note_off_c, 0, 77, 64
1, 76544, Note_on_c, 0, 61, 30
1, 76544, Note_on_c, 0, 78, 25
1, 76544, Note_on_c, 0, 78, 25
1, 76621, Note_off_c, 0, 37, 64
1, 76710, Note_off_c, 0, 61, 64
1, 76800, Note_off_c, 0, 49, 64
1, 76800, Note_off_c, 0, 61, 64
1, 76800, Note_off_c, 0, 61, 64
1, 76800, Note_off_c, 0, 65, 64
1, 76800, Note_off_c, 0, 68, 64
1, 76800, Note_off_c, 0, 37, 64
1, 76800, Note_off_c, 0, 61, 64
1, 76800, Note_off_c, 0, 65, 64
1, 76800, Note_off_c, 0, 71, 64
1, 76800, Note_off_c, 0, 71, 64
1, 76800, Note_off_c, 0, 78, 64
1, 76800, Note_off_c, 0, 78, 64
1, 76800, Note_on_c, 0, 42, 30
1, 76800, Note_on_c, 0, 42, 30
1, 76800, Note_on_c, 0, 42, 30
1, 76800, Note_on_c, 0, 58, 30
1, 76800, Note_on_c, 0, 61, 30
1, 76800, Note_on_c, 0, 61, 30
1, 76800, Note_on_c, 0, 61, 30
1, 76800, Note_on_c, 0, 61, 30
1, 76800, Note_on_c, 0, 66, 30
1, 76800, Note_on_c, 0, 66, 30
1, 76800, Note_on_c, 0, 70, 30
1, 76800, Note_on_c, 0, 70, 30
1, 76800, Note_on_c, 0, 78, 25
1, 76800, Note_on_c, 0, 78, 25
1, 78336, Note_off_c, 0, 42, 64
1, 78336, Note_off_c, 0, 42, 64
1, 78336, Note_off_c, 0, 42, 64
1, 78336, Note_off_c, 0, 58, 64
1, 78336, Note_off_c, 0, 61, 64
1, 78336, Note_off_c, 0, 61, 64
1, 78336, Note_off_c, 0, 61, 64
1, 78336, Note_off_c, 0, 61, 64
1, 78336, Note_off_c, 0, 66, 64
1, 78336, Note_off_c, 0, 66, 64
1, 78336, Note_off_c, 0, 70, 64
1, 78336, Note_off_c, 0, 70, 64
1, 78336, Note_off_c, 0, 78, 64
1, 78336, Note_off_c, 0, 78, 64
1, 78336, End_track
0, 0, End_of_file
