0, 0, Header, 1, 6, 1024
1, 0, Start_track
1, 0, Time_signature, 4, 2, 24, 8
1, 0, Key_signature, 1, "major"
1, 0, Tempo, 1500000
1, 184320, End_track
2, 0, Start_track
2, 0, Title_t, "Instrument 1"
2, 28672, Note_on_c, 0, 67, 96
2, 30720, Note_off_c, 0, 67, 0
2, 30720, Note_on_c, 0, 67, 96
2, 31744, Note_off_c, 0, 67, 0
2, 31744, Note_on_c, 0, 69, 96
2, 32256, Note_off_c, 0, 69, 0
2, 32256, Note_on_c, 0, 72, 96
2, 32512, Note_off_c, 0, 72, 0
2, 32512, Note_on_c, 0, 71, 96
2, 32768, Note_off_c, 0, 71, 0
2, 32768, Note_on_c, 0, 71, 96
2, 33792, Note_off_c, 0, 71, 0
2, 33792, Note_on_c, 0, 69, 96
2, 34560, Note_off_c, 0, 69, 0
2, 34560, Note_on_c, 0, 71, 96
2, 34816, Note_off_c, 0, 71, 0
2, 34816, Note_on_c, 0, 72, 96
2, 35840, Note_off_c, 0, 72, 0
2, 35840, Note_on_c, 0, 71, 96
2, 36864, Note_off_c, 0, 71, 0
2, 36864, Note_on_c, 0, 69, 96
2, 38144, Note_off_c, 0, 69, 0
2, 38144, Note_on_c, 0, 67, 96
2, 38400, Note_off_c, 0, 67, 0
2, 38400, Note_on_c, 0, 69, 96
2, 38912, Note_off_c, 0, 69, 0
2, 38912, Note_on_c, 0, 67, 96
2, 43008, Note_off_c, 0, 67, 0
2, 75776, Note_on_c, 0, 71, 96
2, 77824, Note_off_c, 0, 71, 0
2, 77824, Note_on_c, 0, 72, 96
2, 78848, Note_off_c, 0, 72, 0
2, 78848, Note_on_c, 0, 71, 96
2, 79872, Note_off_c, 0, 71, 0
2, 79872, Note_on_c, 0, 69, 96
2, 80896, Note_off_c, 0, 69, 0
2, 80896, Note_on_c, 0, 67, 96
2, 81920, Note_off_c, 0, 67, 0
2, 81920, Note_on_c, 0, 66, 96
2, 82944, Note_off_c, 0, 66, 0
2, 82944, Note_on_c, 0, 67, 96
2, 83968, Note_off_c, 0, 67, 0
2, 83968, Note_on_c, 0, 69, 96
2, 88064, Note_off_c, 0, 69, 0
2, 116736, Note_on_c, 0, 74, 96
2, 118784, Note_off_c, 0, 74, 0
2, 118784, Note_on_c, 0, 72, 96
2, 119808, Note_off_c, 0, 72, 0
2, 119808, Note_on_c, 0, 71, 96
2, 120832, Note_off_c, 0, 71, 0
2, 120832, Note_on_c, 0, 69, 96
2, 121344, Note_off_c, 0, 69, 0
2, 121344, Note_on_c, 0, 67, 96
2, 121856, Note_off_c, 0, 67, 0
2, 121856, Note_on_c, 0, 66, 96
2, 122880, Note_off_c, 0, 66, 0
2, 122880, Note_on_c, 0, 67, 96
2, 123392, Note_off_c, 0, 67, 0
2, 123392, Note_on_c, 0, 66, 96
2, 123904, Note_off_c, 0, 66, 0
2, 123904, Note_on_c, 0, 64, 96
2, 124928, Note_off_c, 0, 64, 0
2, 124928, Note_on_c, 0, 62, 96
2, 129024, Note_off_c, 0, 62, 0
2, 161792, Note_on_c, 0, 71, 96
2, 163840, Note_off_c, 0, 71, 0
2, 163840, Note_on_c, 0, 72, 96
2, 164864, Note_off_c, 0, 72, 0
2, 164864, Note_on_c, 0, 71, 96
2, 165888, Note_off_c, 0, 71, 0
2, 165888, Note_on_c, 0, 69, 96
2, 166912, Note_off_c, 0, 69, 0
2, 166912, Note_on_c, 0, 67, 96
2, 167424, Note_off_c, 0, 67, 0
2, 167424, Note_on_c, 0, 69, 96
2, 167936, Note_off_c, 0, 69, 0
2, 167936, Note_on_c, 0, 71, 96
2, 168960, Note_off_c, 0, 71, 0
2, 168960, Note_on_c, 0, 69, 96
2, 169984, Note_off_c, 0, 69, 0
2, 169984, Note_on_c, 0, 67, 96
2, 184320, Note_off_c, 0, 67, 0
2, 184320, End_track
3, 0, Start_track
3, 0, Title_t, "Instrument 2"
3, 4608, Note_on_c, 1, 67, 96
3, 5120, Note_off_c, 1, 67, 0
3, 5120, Note_on_c, 1, 67, 96
3, 5632, Note_off_c, 1, 67, 0
3, 5632, Note_on_c, 1, 66, 96
3, 6144, Note_off_c, 1, 66, 0
3, 6144, Note_on_c, 1, 64, 96
3, 7168, Note_off_c, 1, 64, 0
3, 7168, Note_on_c, 1, 66, 96
3, 7680, Note_off_c, 1, 66, 0
3, 7680, Note_on_c, 1, 64, 96
3, 8192, Note_off_c, 1, 64, 0
3, 8192, Note_on_c, 1, 62, 96
3, 8704, Note_off_c, 1, 62, 0
3, 8704, Note_on_c, 1, 64, 96
3, 9216, Note_off_c, 1, 64, 0
3, 9216, Note_on_c, 1, 66, 96
3, 10240, Note_off_c, 1, 66, 0
3, 10240, Note_on_c, 1, 67, 96
3, 11776, Note_off_c, 1, 67, 0
3, 11776, Note_on_c, 1, 66, 96
3, 12288, Note_off_c, 1, 66, 0
3, 12288, Note_on_c, 1, 64, 96
3, 12800, Note_off_c, 1, 64, 0
3, 12800, Note_on_c, 1, 69, 96
3, 13312, Note_off_c, 1, 69, 0
3, 13312, Note_on_c, 1, 62, 96
3, 13824, Note_off_c, 1, 62, 0
3, 13824, Note_on_c, 1, 67, 96
3, 14848, Note_off_c, 1, 67, 0
3, 14848, Note_on_c, 1, 66, 96
3, 15104, Note_off_c, 1, 66, 0
3, 15104, Note_on_c, 1, 64, 96
3, 15360, Note_off_c, 1, 64, 0
3, 15360, Note_on_c, 1, 66, 96
3, 15872, Note_off_c, 1, 66, 0
3, 15872, Note_on_c, 1, 67, 96
3, 16384, Note_off_c, 1, 67, 0
3, 16384, Note_on_c, 1, 69, 96
3, 17408, Note_off_c, 1, 69, 0
3, 17408, Note_on_c, 1, 67, 96
3, 17920, Note_off_c, 1, 67, 0
3, 17920, Note_on_c, 1, 69, 96
3, 18432, Note_off_c, 1, 69, 0
3, 18432, Note_on_c, 1, 71, 96
3, 18944, Note_off_c, 1, 71, 0
3, 18944, Note_on_c, 1, 62, 96
3, 19456, Note_off_c, 1, 62, 0
3, 19456, Note_on_c, 1, 62, 96
3, 19968, Note_off_c, 1, 62, 0
3, 19968, Note_on_c, 1, 61, 96
3, 20480, Note_off_c, 1, 61, 0
3, 20480, Note_on_c, 1, 59, 96
3, 21504, Note_off_c, 1, 59, 0
3, 21504, Note_on_c, 1, 61, 96
3, 22016, Note_off_c, 1, 61, 0
3, 22016, Note_on_c, 1, 59, 96
3, 22528, Note_off_c, 1, 59, 0
3, 22528, Note_on_c, 1, 57, 96
3, 23040, Note_off_c, 1, 57, 0
3, 23040, Note_on_c, 1, 59, 96
3, 23552, Note_off_c, 1, 59, 0
3, 23552, Note_on_c, 1, 61, 96
3, 24576, Note_off_c, 1, 61, 0
3, 24576, Note_on_c, 1, 62, 96
3, 26112, Note_off_c, 1, 62, 0
3, 26112, Note_on_c, 1, 60, 96
3, 26368, Note_off_c, 1, 60, 0
3, 26368, Note_on_c, 1, 59, 96
3, 26624, Note_off_c, 1, 59, 0
3, 26624, Note_on_c, 1, 60, 96
3, 28160, Note_off_c, 1, 60, 0
3, 28160, Note_on_c, 1, 59, 96
3, 28416, Note_off_c, 1, 59, 0
3, 28416, Note_on_c, 1, 57, 96
3, 28672, Note_off_c, 1, 57, 0
3, 28672, Note_on_c, 1, 59, 96
3, 29184, Note_off_c, 1, 59, 0
3, 29184, Note_on_c, 1, 59, 96
3, 29696, Note_off_c, 1, 59, 0
3, 29696, Note_on_c, 1, 59, 96
3, 30208, Note_off_c, 1, 59, 0
3, 30208, Note_on_c, 1, 60, 96
3, 30720, Note_off_c, 1, 60, 0
3, 30720, Note_on_c, 1, 62, 96
3, 31744, Note_off_c, 1, 62, 0
3, 31744, Note_on_c, 1, 64, 96
3, 32256, Note_off_c, 1, 64, 0
3, 32256, Note_on_c, 1, 66, 96
3, 32768, Note_off_c, 1, 66, 0
3, 32768, Note_on_c, 1, 67, 96
3, 33280, Note_off_c, 1, 67, 0
3, 33280, Note_on_c, 1, 59, 96
3, 33792, Note_off_c, 1, 59, 0
3, 33792, Note_on_c, 1, 64, 96
3, 34304, Note_off_c, 1, 64, 0
3, 34304, Note_on_c, 1, 62, 96
3, 34816, Note_off_c, 1, 62, 0
3, 34816, Note_on_c, 1, 60, 96
3, 35328, Note_off_c, 1, 60, 0
3, 35328, Note_on_c, 1, 62, 96
3, 35840, Note_off_c, 1, 62, 0
3, 35840, Note_on_c, 1, 62, 96
3, 36864, Note_off_c, 1, 62, 0
3, 36864, Note_on_c, 1, 64, 96
3, 37376, Note_off_c, 1, 64, 0
3, 37376, Note_on_c, 1, 60, 96
3, 37888, Note_off_c, 1, 60, 0
3, 37888, Note_on_c, 1, 62, 96
3, 38400, Note_off_c, 1, 62, 0
3, 38400, Note_on_c, 1, 60, 96
3, 38912, Note_off_c, 1, 60, 0
3, 38912, Note_on_c, 1, 59, 96
3, 39424, Note_off_c, 1, 59, 0
3, 39424, Note_on_c, 1, 60, 96
3, 39936, Note_off_c, 1, 60, 0
3, 39936, Note_on_c, 1, 62, 96
3, 41472, Note_off_c, 1, 62, 0
3, 41472, Note_on_c, 1, 60, 96
3, 41728, Note_off_c, 1, 60, 0
3, 41728, Note_on_c, 1, 59, 96
3, 41984, Note_off_c, 1, 59, 0
3, 41984, Note_on_c, 1, 60, 96
3, 42496, Note_off_c, 1, 60, 0
3, 42496, Note_on_c, 1, 57, 96
3, 43008, Note_off_c, 1, 57, 0
3, 43008, Note_on_c, 1, 59, 96
3, 43520, Note_off_c, 1, 59, 0
3, 45568, Note_on_c, 1, 64, 96
3, 46080, Note_off_c, 1, 64, 0
3, 46080, Note_on_c, 1, 62, 96
3, 46592, Note_off_c, 1, 62, 0
3, 46592, Note_on_c, 1, 64, 96
3, 47104, Note_off_c, 1, 64, 0
3, 47104, Note_on_c, 1, 66, 96
3, 47616, Note_off_c, 1, 66, 0
3, 47616, Note_on_c, 1, 67, 96
3, 48128, Note_off_c, 1, 67, 0
3, 48128, Note_on_c, 1, 69, 96
3, 48640, Note_off_c, 1, 69, 0
3, 48640, Note_on_c, 1, 67, 96
3, 49152, Note_off_c, 1, 67, 0
3, 49152, Note_on_c, 1, 66, 96
3, 50176, Note_off_c, 1, 66, 0
3, 50176, Note_on_c, 1, 67, 96
3, 50688, Note_off_c, 1, 67, 0
3, 50688, Note_on_c, 1, 68, 96
3, 51200, Note_off_c, 1, 68, 0
3, 51200, Note_on_c, 1, 69, 96
3, 51712, Note_off_c, 1, 69, 0
3, 51712, Note_on_c, 1, 67, 96
3, 52224, Note_off_c, 1, 67, 0
3, 52224, Note_on_c, 1, 66, 96
3, 52736, Note_off_c, 1, 66, 0
3, 52736, Note_on_c, 1, 64, 96
3, 52992, Note_off_c, 1, 64, 0
3, 52992, Note_on_c, 1, 63, 96
3, 53248, Note_off_c, 1, 63, 0
3, 53248, Note_on_c, 1, 64, 96
3, 56832, Note_off_c, 1, 64, 0
3, 56832, Note_on_c, 1, 62, 96
3, 57088, Note_off_c, 1, 62, 0
3, 57088, Note_on_c, 1, 61, 96
3, 57344, Note_off_c, 1, 61, 0
3, 57344, Note_on_c, 1, 62, 96
3, 57856, Note_off_c, 1, 62, 0
3, 57856, Note_on_c, 1, 66, 96
3, 58368, Note_off_c, 1, 66, 0
3, 58368, Note_on_c, 1, 67, 96
3, 58880, Note_off_c, 1, 67, 0
3, 58880, Note_on_c, 1, 66, 96
3, 59392, Note_off_c, 1, 66, 0
3, 59392, Note_on_c, 1, 64, 96
3, 59904, Note_off_c, 1, 64, 0
3, 59904, Note_on_c, 1, 62, 96
3, 60416, Note_off_c, 1, 62, 0
3, 60416, Note_on_c, 1, 61, 96
3, 60928, Note_off_c, 1, 61, 0
3, 60928, Note_on_c, 1, 63, 96
3, 61440, Note_off_c, 1, 63, 0
3, 61440, Note_on_c, 1, 64, 96
3, 62976, Note_off_c, 1, 64, 0
3, 62976, Note_on_c, 1, 66, 96
3, 63232, Note_off_c, 1, 66, 0
3, 63232, Note_on_c, 1, 67, 96
3, 63488, Note_off_c, 1, 67, 0
3, 63488, Note_on_c, 1, 69, 96
3, 65024, Note_off_c, 1, 69, 0
3, 65024, Note_on_c, 1, 67, 96
3, 65280, Note_off_c, 1, 67, 0
3, 65280, Note_on_c, 1, 66, 96
3, 65536, Note_off_c, 1, 66, 0
3, 65536, Note_on_c, 1, 67, 96
3, 67072, Note_off_c, 1, 67, 0
3, 67072, Note_on_c, 1, 66, 96
3, 67328, Note_off_c, 1, 66, 0
3, 67328, Note_on_c, 1, 64, 96
3, 67584, Note_off_c, 1, 64, 0
3, 67584, Note_on_c, 1, 66, 96
3, 68096, Note_off_c, 1, 66, 0
3, 68096, Note_on_c, 1, 62, 96
3, 68608, Note_off_c, 1, 62, 0
3, 68608, Note_on_c, 1, 67, 96
3, 70912, Note_off_c, 1, 67, 0
3, 70912, Note_on_c, 1, 64, 96
3, 71168, Note_off_c, 1, 64, 0
3, 71168, Note_on_c, 1, 62, 96
3, 71424, Note_off_c, 1, 62, 0
3, 71424, Note_on_c, 1, 64, 96
3, 71680, Note_off_c, 1, 64, 0
3, 71680, Note_on_c, 1, 66, 96
3, 72192, Note_off_c, 1, 66, 0
3, 72192, Note_on_c, 1, 67, 96
3, 72704, Note_off_c, 1, 67, 0
3, 72704, Note_on_c, 1, 69, 96
3, 73216, Note_off_c, 1, 69, 0
3, 73216, Note_on_c, 1, 67, 96
3, 73472, Note_off_c, 1, 67, 0
3, 73472, Note_on_c, 1, 66, 96
3, 73728, Note_off_c, 1, 66, 0
3, 73728, Note_on_c, 1, 67, 96
3, 74240, Note_off_c, 1, 67, 0
3, 74240, Note_on_c, 1, 62, 96
3, 74752, Note_off_c, 1, 62, 0
3, 74752, Note_on_c, 1, 62, 96
3, 75264, Note_off_c, 1, 62, 0
3, 75264, Note_on_c, 1, 64, 96
3, 75776, Note_off_c, 1, 64, 0
3, 75776, Note_on_c, 1, 65, 96
3, 76288, Note_off_c, 1, 65, 0
3, 76288, Note_on_c, 1, 67, 96
3, 76544, Note_off_c, 1, 67, 0
3, 76544, Note_on_c, 1, 66, 96
3, 76800, Note_off_c, 1, 66, 0
3, 76800, Note_on_c, 1, 64, 96
3, 77312, Note_off_c, 1, 64, 0
3, 77312, Note_on_c, 1, 62, 96
3, 77824, Note_off_c, 1, 62, 0
3, 77824, Note_on_c, 1, 60, 96
3, 78336, Note_off_c, 1, 60, 0
3, 78336, Note_on_c, 1, 67, 96
3, 78848, Note_off_c, 1, 67, 0
3, 78848, Note_on_c, 1, 67, 96
3, 79360, Note_off_c, 1, 67, 0
3, 79360, Note_on_c, 1, 66, 96
3, 79872, Note_off_c, 1, 66, 0
3, 79872, Note_on_c, 1, 64, 96
3, 80384, Note_off_c, 1, 64, 0
3, 80384, Note_on_c, 1, 66, 96
3, 80896, Note_off_c, 1, 66, 0
3, 80896, Note_on_c, 1, 67, 96
3, 81920, Note_off_c, 1, 67, 0
3, 82432, Note_on_c, 1, 62, 96
3, 82944, Note_off_c, 1, 62, 0
3, 82944, Note_on_c, 1, 62, 96
3, 83456, Note_off_c, 1, 62, 0
3, 83456, Note_on_c, 1, 61, 96
3, 83712, Note_off_c, 1, 61, 0
3, 83712, Note_on_c, 1, 59, 96
3, 83968, Note_off_c, 1, 59, 0
3, 83968, Note_on_c, 1, 64, 96
3, 84480, Note_off_c, 1, 64, 0
3, 84480, Note_on_c, 1, 61, 96
3, 84736, Note_off_c, 1, 61, 0
3, 84736, Note_on_c, 1, 62, 96
3, 84992, Note_off_c, 1, 62, 0
3, 84992, Note_on_c, 1, 64, 96
3, 85504, Note_off_c, 1, 64, 0
3, 85504, Note_on_c, 1, 61, 96
3, 86016, Note_off_c, 1, 61, 0
3, 86016, Note_on_c, 1, 62, 96
3, 86272, Note_off_c, 1, 62, 0
3, 86272, Note_on_c, 1, 64, 96
3, 86528, Note_off_c, 1, 64, 0
3, 86528, Note_on_c, 1, 66, 96
3, 87040, Note_off_c, 1, 66, 0
3, 87040, Note_on_c, 1, 64, 96
3, 87296, Note_off_c, 1, 64, 0
3, 87296, Note_on_c, 1, 66, 96
3, 87552, Note_off_c, 1, 66, 0
3, 87552, Note_on_c, 1, 67, 96
3, 88064, Note_off_c, 1, 67, 0
3, 88064, Note_on_c, 1, 66, 96
3, 88576, Note_off_c, 1, 66, 0
3, 92672, Note_on_c, 1, 57, 96
3, 93184, Note_off_c, 1, 57, 0
3, 93184, Note_on_c, 1, 59, 96
3, 93696, Note_off_c, 1, 59, 0
3, 93696, Note_on_c, 1, 61, 96
3, 94208, Note_off_c, 1, 61, 0
3, 94208, Note_on_c, 1, 62, 96
3, 95232, Note_off_c, 1, 62, 0
3, 95232, Note_on_c, 1, 65, 96
3, 96256, Note_off_c, 1, 65, 0
3, 96256, Note_on_c, 1, 64, 96
3, 96768, Note_off_c, 1, 64, 0
3, 96768, Note_on_c, 1, 66, 96
3, 97280, Note_off_c, 1, 66, 0
3, 97280, Note_on_c, 1, 68, 96
3, 98304, Note_off_c, 1, 68, 0
3, 98304, Note_on_c, 1, 69, 96
3, 98816, Note_off_c, 1, 69, 0
3, 98816, Note_on_c, 1, 65, 96
3, 99328, Note_off_c, 1, 65, 0
3, 99328, Note_on_c, 1, 64, 96
3, 99840, Note_off_c, 1, 64, 0
3, 99840, Note_on_c, 1, 62, 96
3, 100352, Note_off_c, 1, 62, 0
3, 100352, Note_on_c, 1, 61, 96
3, 100608, Note_off_c, 1, 61, 0
3, 100608, Note_on_c, 1, 63, 96
3, 100864, Note_off_c, 1, 63, 0
3, 100864, Note_on_c, 1, 64, 96
3, 101888, Note_off_c, 1, 64, 0
3, 101888, Note_on_c, 1, 63, 96
3, 102400, Note_off_c, 1, 63, 0
3, 102400, Note_on_c, 1, 64, 96
3, 103168, Note_off_c, 1, 64, 0
3, 103168, Note_on_c, 1, 66, 96
3, 103424, Note_off_c, 1, 66, 0
3, 103424, Note_on_c, 1, 67, 96
3, 104192, Note_off_c, 1, 67, 0
3, 104192, Note_on_c, 1, 69, 96
3, 104448, Note_off_c, 1, 69, 0
3, 104448, Note_on_c, 1, 71, 96
3, 104960, Note_off_c, 1, 71, 0
3, 104960, Note_on_c, 1, 69, 96
3, 105984, Note_off_c, 1, 69, 0
3, 105984, Note_on_c, 1, 71, 96
3, 106240, Note_off_c, 1, 71, 0
3, 106240, Note_on_c, 1, 69, 96
3, 106496, Note_off_c, 1, 69, 0
3, 106496, Note_on_c, 1, 67, 96
3, 107520, Note_off_c, 1, 67, 0
3, 107520, Note_on_c, 1, 69, 96
3, 108544, Note_off_c, 1, 69, 0
3, 108544, Note_on_c, 1, 62, 96
3, 109568, Note_off_c, 1, 62, 0
3, 109568, Note_on_c, 1, 64, 96
3, 110592, Note_off_c, 1, 64, 0
3, 110592, Note_on_c, 1, 66, 96
3, 111104, Note_off_c, 1, 66, 0
3, 111104, Note_on_c, 1, 69, 96
3, 111616, Note_off_c, 1, 69, 0
3, 111616, Note_on_c, 1, 67, 96
3, 112128, Note_off_c, 1, 67, 0
3, 112128, Note_on_c, 1, 66, 96
3, 112640, Note_off_c, 1, 66, 0
3, 112640, Note_on_c, 1, 64, 96
3, 113152, Note_off_c, 1, 64, 0
3, 113152, Note_on_c, 1, 62, 96
3, 113664, Note_off_c, 1, 62, 0
3, 113664, Note_on_c, 1, 60, 96
3, 114688, Note_off_c, 1, 60, 0
3, 114688, Note_on_c, 1, 59, 96
3, 115200, Note_off_c, 1, 59, 0
3, 115200, Note_on_c, 1, 62, 96
3, 115712, Note_off_c, 1, 62, 0
3, 115712, Note_on_c, 1, 67, 96
3, 116736, Note_off_c, 1, 67, 0
3, 116736, Note_on_c, 1, 66, 96
3, 117248, Note_off_c, 1, 66, 0
3, 117248, Note_on_c, 1, 66, 96
3, 117760, Note_off_c, 1, 66, 0
3, 117760, Note_on_c, 1, 66, 96
3, 118272, Note_off_c, 1, 66, 0
3, 118272, Note_on_c, 1, 67, 96
3, 118784, Note_off_c, 1, 67, 0
3, 118784, Note_on_c, 1, 69, 96
3, 119296, Note_off_c, 1, 69, 0
3, 119296, Note_on_c, 1, 66, 96
3, 119808, Note_off_c, 1, 66, 0
3, 119808, Note_on_c, 1, 62, 96
3, 123392, Note_off_c, 1, 62, 0
3, 123392, Note_on_c, 1, 62, 96
3, 124416, Note_off_c, 1, 62, 0
3, 124416, Note_on_c, 1, 61, 96
3, 124928, Note_off_c, 1, 61, 0
3, 124928, Note_on_c, 1, 62, 96
3, 126464, Note_off_c, 1, 62, 0
3, 126464, Note_on_c, 1, 60, 96
3, 126976, Note_off_c, 1, 60, 0
3, 126976, Note_on_c, 1, 59, 96
3, 129536, Note_off_c, 1, 59, 0
3, 129536, Note_on_c, 1, 57, 96
3, 130048, Note_off_c, 1, 57, 0
3, 131584, Note_on_c, 1, 64, 96
3, 132096, Note_off_c, 1, 64, 0
3, 132096, Note_on_c, 1, 62, 96
3, 132608, Note_off_c, 1, 62, 0
3, 132608, Note_on_c, 1, 64, 96
3, 133120, Note_off_c, 1, 64, 0
3, 133120, Note_on_c, 1, 66, 96
3, 133632, Note_off_c, 1, 66, 0
3, 133632, Note_on_c, 1, 67, 96
3, 133888, Note_off_c, 1, 67, 0
3, 133888, Note_on_c, 1, 66, 96
3, 134144, Note_off_c, 1, 66, 0
3, 134144, Note_on_c, 1, 64, 96
3, 134656, Note_off_c, 1, 64, 0
3, 134656, Note_on_c, 1, 66, 96
3, 135168, Note_off_c, 1, 66, 0
3, 135168, Note_on_c, 1, 67, 96
3, 136704, Note_off_c, 1, 67, 0
3, 136704, Note_on_c, 1, 66, 96
3, 136960, Note_off_c, 1, 66, 0
3, 136960, Note_on_c, 1, 64, 96
3, 137216, Note_off_c, 1, 64, 0
3, 137216, Note_on_c, 1, 66, 96
3, 137728, Note_off_c, 1, 66, 0
3, 137728, Note_on_c, 1, 59, 96
3, 138240, Note_off_c, 1, 59, 0
3, 138240, Note_on_c, 1, 64, 96
3, 140288, Note_off_c, 1, 64, 0
3, 140288, Note_on_c, 1, 63, 96
3, 141312, Note_off_c, 1, 63, 0
3, 141312, Note_on_c, 1, 64, 96
3, 141824, Note_off_c, 1, 64, 0
3, 141824, Note_on_c, 1, 66, 96
3, 142336, Note_off_c, 1, 66, 0
3, 142336, Note_on_c, 1, 67, 96
3, 142848, Note_off_c, 1, 67, 0
3, 142848, Note_on_c, 1, 66, 96
3, 143360, Note_off_c, 1, 66, 0
3, 143360, Note_on_c, 1, 64, 96
3, 143872, Note_off_c, 1, 64, 0
3, 143872, Note_on_c, 1, 62, 96
3, 144128, Note_off_c, 1, 62, 0
3, 144128, Note_on_c, 1, 64, 96
3, 144384, Note_off_c, 1, 64, 0
3, 144384, Note_on_c, 1, 66, 96
3, 144896, Note_off_c, 1, 66, 0
3, 144896, Note_on_c, 1, 64, 96
3, 145408, Note_off_c, 1, 64, 0
3, 145408, Note_on_c, 1, 62, 96
3, 146944, Note_off_c, 1, 62, 0
3, 146944, Note_on_c, 1, 60, 96
3, 147456, Note_off_c, 1, 60, 0
3, 147456, Note_on_c, 1, 59, 96
3, 147968, Note_off_c, 1, 59, 0
3, 147968, Note_on_c, 1, 61, 96
3, 148480, Note_off_c, 1, 61, 0
3, 148480, Note_on_c, 1, 62, 96
3, 148992, Note_off_c, 1, 62, 0
3, 148992, Note_on_c, 1, 64, 96
3, 149248, Note_off_c, 1, 64, 0
3, 149248, Note_on_c, 1, 62, 96
3, 149504, Note_off_c, 1, 62, 0
3, 149504, Note_on_c, 1, 61, 96
3, 150016, Note_off_c, 1, 61, 0
3, 150016, Note_on_c, 1, 62, 96
3, 150528, Note_off_c, 1, 62, 0
3, 150528, Note_on_c, 1, 64, 96
3, 151040, Note_off_c, 1, 64, 0
3, 151040, Note_on_c, 1, 66, 96
3, 151296, Note_off_c, 1, 66, 0
3, 151296, Note_on_c, 1, 64, 96
3, 151552, Note_off_c, 1, 64, 0
3, 151552, Note_on_c, 1, 62, 96
3, 152064, Note_off_c, 1, 62, 0
3, 152064, Note_on_c, 1, 64, 96
3, 152576, Note_off_c, 1, 64, 0
3, 152576, Note_on_c, 1, 66, 96
3, 153088, Note_off_c, 1, 66, 0
3, 153088, Note_on_c, 1, 68, 96
3, 153600, Note_off_c, 1, 68, 0
3, 153600, Note_on_c, 1, 69, 96
3, 154624, Note_off_c, 1, 69, 0
3, 156160, Note_on_c, 1, 69, 96
3, 156672, Note_off_c, 1, 69, 0
3, 156672, Note_on_c, 1, 71, 96
3, 157184, Note_off_c, 1, 71, 0
3, 157184, Note_on_c, 1, 69, 96
3, 157696, Note_off_c, 1, 69, 0
3, 157696, Note_on_c, 1, 67, 96
3, 158208, Note_off_c, 1, 67, 0
3, 158208, Note_on_c, 1, 66, 96
3, 158464, Note_off_c, 1, 66, 0
3, 158464, Note_on_c, 1, 67, 96
3, 158720, Note_off_c, 1, 67, 0
3, 158720, Note_on_c, 1, 69, 96
3, 159232, Note_off_c, 1, 69, 0
3, 159232, Note_on_c, 1, 67, 96
3, 159744, Note_off_c, 1, 67, 0
3, 159744, Note_on_c, 1, 66, 96
3, 160768, Note_off_c, 1, 66, 0
3, 160768, Note_on_c, 1, 64, 96
3, 161280, Note_off_c, 1, 64, 0
3, 161280, Note_on_c, 1, 66, 96
3, 161536, Note_off_c, 1, 66, 0
3, 161536, Note_on_c, 1, 67, 96
3, 161792, Note_off_c, 1, 67, 0
3, 161792, Note_on_c, 1, 66, 96
3, 163840, Note_off_c, 1, 66, 0
3, 163840, Note_on_c, 1, 64, 96
3, 164352, Note_off_c, 1, 64, 0
3, 164352, Note_on_c, 1, 66, 96
3, 164864, Note_off_c, 1, 66, 0
3, 164864, Note_on_c, 1, 67, 96
3, 166400, Note_off_c, 1, 67, 0
3, 166400, Note_on_c, 1, 66, 96
3, 166912, Note_off_c, 1, 66, 0
3, 166912, Note_on_c, 1, 67, 96
3, 167424, Note_off_c, 1, 67, 0
3, 167424, Note_on_c, 1, 66, 96
3, 167936, Note_off_c, 1, 66, 0
3, 167936, Note_on_c, 1, 67, 96
3, 169472, Note_off_c, 1, 67, 0
3, 169472, Note_on_c, 1, 66, 96
3, 170496, Note_off_c, 1, 66, 0
3, 170496, Note_on_c, 1, 64, 96
3, 171008, Note_off_c, 1, 64, 0
3, 171008, Note_on_c, 1, 65, 96
3, 171520, Note_off_c, 1, 65, 0
3, 171520, Note_on_c, 1, 64, 96
3, 172032, Note_off_c, 1, 64, 0
3, 172032, Note_on_c, 1, 62, 96
3, 172544, Note_off_c, 1, 62, 0
3, 172544, Note_on_c, 1, 60, 96
3, 172800, Note_off_c, 1, 60, 0
3, 172800, Note_on_c, 1, 62, 96
3, 173056, Note_off_c, 1, 62, 0
3, 173056, Note_on_c, 1, 64, 96
3, 173568, Note_off_c, 1, 64, 0
3, 173568, Note_on_c, 1, 62, 96
3, 174080, Note_off_c, 1, 62, 0
3, 174080, Note_on_c, 1, 60, 96
3, 174592, Note_off_c, 1, 60, 0
3, 176128, Note_on_c, 1, 59, 96
3, 177152, Note_off_c, 1, 59, 0
3, 178688, Note_on_c, 1, 59, 96
3, 179200, Note_off_c, 1, 59, 0
3, 179200, Note_on_c, 1, 60, 96
3, 179712, Note_off_c, 1, 60, 0
3, 179712, Note_on_c, 1, 59, 96
3, 180224, Note_off_c, 1, 59, 0
3, 180224, Note_on_c, 1, 57, 96
3, 180736, Note_off_c, 1, 57, 0
3, 180736, Note_on_c, 1, 55, 96
3, 180992, Note_off_c, 1, 55, 0
3, 180992, Note_on_c, 1, 57, 96
3, 181248, Note_off_c, 1, 57, 0
3, 181248, Note_on_c, 1, 59, 96
3, 181760, Note_off_c, 1, 59, 0
3, 181760, Note_on_c, 1, 57, 96
3, 182272, Note_off_c, 1, 57, 0
3, 182272, Note_on_c, 1, 55, 96
3, 184320, Note_off_c, 1, 55, 0
3, 184320, End_track
4, 0, Start_track
4, 0, Title_t, "Instrument 3"
4, 512, Note_on_c, 2, 55, 96
4, 1024, Note_off_c, 2, 55, 0
4, 1024, Note_on_c, 2, 55, 96
4, 1536, Note_off_c, 2, 55, 0
4, 1536, Note_on_c, 2, 57, 96
4, 2048, Note_off_c, 2, 57, 0
4, 2048, Note_on_c, 2, 59, 96
4, 3072, Note_off_c, 2, 59, 0
4, 3072, Note_on_c, 2, 57, 96
4, 3584, Note_off_c, 2, 57, 0
4, 3584, Note_on_c, 2, 59, 96
4, 4096, Note_off_c, 2, 59, 0
4, 4096, Note_on_c, 2, 60, 96
4, 4608, Note_off_c, 2, 60, 0
4, 4608, Note_on_c, 2, 59, 96
4, 5120, Note_off_c, 2, 59, 0
4, 5120, Note_on_c, 2, 57, 96
4, 6144, Note_off_c, 2, 57, 0
4, 6144, Note_on_c, 2, 55, 96
4, 6656, Note_off_c, 2, 55, 0
4, 6656, Note_on_c, 2, 56, 96
4, 7168, Note_off_c, 2, 56, 0
4, 7168, Note_on_c, 2, 57, 96
4, 7680, Note_off_c, 2, 57, 0
4, 7680, Note_on_c, 2, 58, 96
4, 8192, Note_off_c, 2, 58, 0
4, 8192, Note_on_c, 2, 59, 96
4, 9728, Note_off_c, 2, 59, 0
4, 9728, Note_on_c, 2, 57, 96
4, 10240, Note_off_c, 2, 57, 0
4, 10240, Note_on_c, 2, 59, 96
4, 10752, Note_off_c, 2, 59, 0
4, 10752, Note_on_c, 2, 61, 96
4, 11264, Note_off_c, 2, 61, 0
4, 11264, Note_on_c, 2, 62, 96
4, 12800, Note_off_c, 2, 62, 0
4, 12800, Note_on_c, 2, 60, 96
4, 13312, Note_off_c, 2, 60, 0
4, 13312, Note_on_c, 2, 59, 96
4, 13824, Note_off_c, 2, 59, 0
4, 13824, Note_on_c, 2, 64, 96
4, 14336, Note_off_c, 2, 64, 0
4, 14336, Note_on_c, 2, 57, 96
4, 16896, Note_off_c, 2, 57, 0
4, 16896, Note_on_c, 2, 59, 96
4, 17408, Note_off_c, 2, 59, 0
4, 17408, Note_on_c, 2, 60, 96
4, 18432, Note_off_c, 2, 60, 0
4, 18432, Note_on_c, 2, 59, 96
4, 18944, Note_off_c, 2, 59, 0
4, 18944, Note_on_c, 2, 57, 96
4, 19456, Note_off_c, 2, 57, 0
4, 19456, Note_on_c, 2, 55, 96
4, 20992, Note_off_c, 2, 55, 0
4, 20992, Note_on_c, 2, 54, 96
4, 21504, Note_off_c, 2, 54, 0
4, 21504, Note_on_c, 2, 55, 96
4, 22016, Note_off_c, 2, 55, 0
4, 22016, Note_on_c, 2, 56, 96
4, 22528, Note_off_c, 2, 56, 0
4, 22528, Note_on_c, 2, 57, 96
4, 24064, Note_off_c, 2, 57, 0
4, 24064, Note_on_c, 2, 55, 96
4, 24576, Note_off_c, 2, 55, 0
4, 24576, Note_on_c, 2, 57, 96
4, 25088, Note_off_c, 2, 57, 0
4, 25088, Note_on_c, 2, 55, 96
4, 25344, Note_off_c, 2, 55, 0
4, 25344, Note_on_c, 2, 54, 96
4, 25600, Note_off_c, 2, 54, 0
4, 25600, Note_on_c, 2, 55, 96
4, 27136, Note_off_c, 2, 55, 0
4, 27136, Note_on_c, 2, 54, 96
4, 27392, Note_off_c, 2, 54, 0
4, 27392, Note_on_c, 2, 52, 96
4, 27648, Note_off_c, 2, 52, 0
4, 27648, Note_on_c, 2, 54, 96
4, 28672, Note_off_c, 2, 54, 0
4, 29184, Note_on_c, 2, 55, 96
4, 29696, Note_off_c, 2, 55, 0
4, 29696, Note_on_c, 2, 55, 96
4, 30208, Note_off_c, 2, 55, 0
4, 30208, Note_on_c, 2, 57, 96
4, 30720, Note_off_c, 2, 57, 0
4, 30720, Note_on_c, 2, 59, 96
4, 31744, Note_off_c, 2, 59, 0
4, 31744, Note_on_c, 2, 61, 96
4, 32256, Note_off_c, 2, 61, 0
4, 32256, Note_on_c, 2, 63, 96
4, 32768, Note_off_c, 2, 63, 0
4, 32768, Note_on_c, 2, 64, 96
4, 33280, Note_off_c, 2, 64, 0
4, 33280, Note_on_c, 2, 55, 96
4, 33792, Note_off_c, 2, 55, 0
4, 33792, Note_on_c, 2, 55, 96
4, 34304, Note_off_c, 2, 55, 0
4, 34304, Note_on_c, 2, 54, 96
4, 34816, Note_off_c, 2, 54, 0
4, 34816, Note_on_c, 2, 52, 96
4, 35328, Note_off_c, 2, 52, 0
4, 35328, Note_on_c, 2, 57, 96
4, 36352, Note_off_c, 2, 57, 0
4, 36352, Note_on_c, 2, 55, 96
4, 37376, Note_off_c, 2, 55, 0
4, 37376, Note_on_c, 2, 55, 96
4, 38400, Note_off_c, 2, 55, 0
4, 38400, Note_on_c, 2, 54, 96
4, 38912, Note_off_c, 2, 54, 0
4, 38912, Note_on_c, 2, 55, 96
4, 39424, Note_off_c, 2, 55, 0
4, 39424, Note_on_c, 2, 55, 96
4, 39936, Note_off_c, 2, 55, 0
4, 39936, Note_on_c, 2, 55, 96
4, 40448, Note_off_c, 2, 55, 0
4, 40448, Note_on_c, 2, 53, 96
4, 40960, Note_off_c, 2, 53, 0
4, 40960, Note_on_c, 2, 52, 96
4, 42496, Note_off_c, 2, 52, 0
4, 42496, Note_on_c, 2, 51, 96
4, 43008, Note_off_c, 2, 51, 0
4, 43008, Note_on_c, 2, 50, 96
4, 43520, Note_off_c, 2, 50, 0
4, 43520, Note_on_c, 2, 59, 96
4, 44032, Note_off_c, 2, 59, 0
4, 44032, Note_on_c, 2, 60, 96
4, 44544, Note_off_c, 2, 60, 0
4, 44544, Note_on_c, 2, 59, 96
4, 45056, Note_off_c, 2, 59, 0
4, 45056, Note_on_c, 2, 57, 96
4, 45568, Note_off_c, 2, 57, 0
4, 45568, Note_on_c, 2, 55, 96
4, 46080, Note_off_c, 2, 55, 0
4, 46080, Note_on_c, 2, 54, 96
4, 46592, Note_off_c, 2, 54, 0
4, 46592, Note_on_c, 2, 55, 96
4, 47104, Note_off_c, 2, 55, 0
4, 47104, Note_on_c, 2, 57, 96
4, 47616, Note_off_c, 2, 57, 0
4, 47616, Note_on_c, 2, 59, 96
4, 48128, Note_off_c, 2, 59, 0
4, 48128, Note_on_c, 2, 60, 96
4, 50176, Note_off_c, 2, 60, 0
4, 50176, Note_on_c, 2, 59, 96
4, 51200, Note_off_c, 2, 59, 0
4, 51200, Note_on_c, 2, 52, 96
4, 52224, Note_off_c, 2, 52, 0
4, 52224, Note_on_c, 2, 57, 96
4, 53760, Note_off_c, 2, 57, 0
4, 53760, Note_on_c, 2, 55, 96
4, 54016, Note_off_c, 2, 55, 0
4, 54016, Note_on_c, 2, 54, 96
4, 54272, Note_off_c, 2, 54, 0
4, 54272, Note_on_c, 2, 55, 96
4, 55808, Note_off_c, 2, 55, 0
4, 55808, Note_on_c, 2, 54, 96
4, 56064, Note_off_c, 2, 54, 0
4, 56064, Note_on_c, 2, 52, 96
4, 56320, Note_off_c, 2, 52, 0
4, 56320, Note_on_c, 2, 54, 96
4, 58368, Note_off_c, 2, 54, 0
4, 58880, Note_on_c, 2, 54, 96
4, 59392, Note_off_c, 2, 54, 0
4, 59392, Note_on_c, 2, 55, 96
4, 59904, Note_off_c, 2, 55, 0
4, 59904, Note_on_c, 2, 56, 96
4, 60416, Note_off_c, 2, 56, 0
4, 60416, Note_on_c, 2, 57, 96
4, 61952, Note_off_c, 2, 57, 0
4, 61952, Note_on_c, 2, 55, 96
4, 62208, Note_off_c, 2, 55, 0
4, 62208, Note_on_c, 2, 54, 96
4, 62464, Note_off_c, 2, 54, 0
4, 62464, Note_on_c, 2, 55, 96
4, 64000, Note_off_c, 2, 55, 0
4, 64000, Note_on_c, 2, 54, 96
4, 64256, Note_off_c, 2, 54, 0
4, 64256, Note_on_c, 2, 52, 96
4, 64512, Note_off_c, 2, 52, 0
4, 64512, Note_on_c, 2, 54, 96
4, 65024, Note_off_c, 2, 54, 0
4, 65024, Note_on_c, 2, 59, 96
4, 65536, Note_off_c, 2, 59, 0
4, 65536, Note_on_c, 2, 52, 96
4, 67072, Note_off_c, 2, 52, 0
4, 67072, Note_on_c, 2, 57, 96
4, 67584, Note_off_c, 2, 57, 0
4, 67584, Note_on_c, 2, 50, 96
4, 68608, Note_off_c, 2, 50, 0
4, 68864, Note_on_c, 2, 62, 96
4, 69120, Note_off_c, 2, 62, 0
4, 69120, Note_on_c, 2, 64, 96
4, 69376, Note_off_c, 2, 64, 0
4, 69376, Note_on_c, 2, 62, 96
4, 69632, Note_off_c, 2, 62, 0
4, 69632, Note_on_c, 2, 60, 96
4, 70144, Note_off_c, 2, 60, 0
4, 70144, Note_on_c, 2, 59, 96
4, 70656, Note_off_c, 2, 59, 0
4, 70656, Note_on_c, 2, 57, 96
4, 71168, Note_off_c, 2, 57, 0
4, 71168, Note_on_c, 2, 59, 96
4, 71680, Note_off_c, 2, 59, 0
4, 71680, Note_on_c, 2, 60, 96
4, 73216, Note_off_c, 2, 60, 0
4, 73216, Note_on_c, 2, 59, 96
4, 73472, Note_off_c, 2, 59, 0
4, 73472, Note_on_c, 2, 57, 96
4, 73728, Note_off_c, 2, 57, 0
4, 73728, Note_on_c, 2, 59, 96
4, 74240, Note_off_c, 2, 59, 0
4, 74240, Note_on_c, 2, 59, 96
4, 74752, Note_off_c, 2, 59, 0
4, 74752, Note_on_c, 2, 59, 96
4, 75264, Note_off_c, 2, 59, 0
4, 75264, Note_on_c, 2, 60, 96
4, 75776, Note_off_c, 2, 60, 0
4, 75776, Note_on_c, 2, 62, 96
4, 76800, Note_off_c, 2, 62, 0
4, 76800, Note_on_c, 2, 67, 96
4, 78336, Note_off_c, 2, 67, 0
4, 78336, Note_on_c, 2, 55, 96
4, 78592, Note_off_c, 2, 55, 0
4, 78592, Note_on_c, 2, 57, 96
4, 78848, Note_off_c, 2, 57, 0
4, 78848, Note_on_c, 2, 59, 96
4, 79360, Note_off_c, 2, 59, 0
4, 79360, Note_on_c, 2, 60, 96
4, 79616, Note_off_c, 2, 60, 0
4, 79616, Note_on_c, 2, 62, 96
4, 79872, Note_off_c, 2, 62, 0
4, 79872, Note_on_c, 2, 64, 96
4, 80384, Note_off_c, 2, 64, 0
4, 80384, Note_on_c, 2, 62, 96
4, 80896, Note_off_c, 2, 62, 0
4, 80896, Note_on_c, 2, 62, 96
4, 81408, Note_off_c, 2, 62, 0
4, 81408, Note_on_c, 2, 64, 96
4, 81664, Note_off_c, 2, 64, 0
4, 81664, Note_on_c, 2, 62, 96
4, 81920, Note_off_c, 2, 62, 0
4, 81920, Note_on_c, 2, 60, 96
4, 82432, Note_off_c, 2, 60, 0
4, 82432, Note_on_c, 2, 59, 96
4, 82688, Note_off_c, 2, 59, 0
4, 82688, Note_on_c, 2, 57, 96
4, 82944, Note_off_c, 2, 57, 0
4, 82944, Note_on_c, 2, 59, 96
4, 83456, Note_off_c, 2, 59, 0
4, 83456, Note_on_c, 2, 55, 96
4, 84480, Note_off_c, 2, 55, 0
4, 84480, Note_on_c, 2, 55, 96
4, 84736, Note_off_c, 2, 55, 0
4, 84736, Note_on_c, 2, 54, 96
4, 84992, Note_off_c, 2, 54, 0
4, 84992, Note_on_c, 2, 52, 96
4, 85504, Note_off_c, 2, 52, 0
4, 85504, Note_on_c, 2, 54, 96
4, 85760, Note_off_c, 2, 54, 0
4, 85760, Note_on_c, 2, 55, 96
4, 86016, Note_off_c, 2, 55, 0
4, 86016, Note_on_c, 2, 57, 96
4, 86528, Note_off_c, 2, 57, 0
4, 86528, Note_on_c, 2, 62, 96
4, 87552, Note_off_c, 2, 62, 0
4, 87552, Note_on_c, 2, 61, 96
4, 88064, Note_off_c, 2, 61, 0
4, 88064, Note_on_c, 2, 62, 96
4, 88576, Note_off_c, 2, 62, 0
4, 88576, Note_on_c, 2, 62, 96
4, 89088, Note_off_c, 2, 62, 0
4, 89088, Note_on_c, 2, 60, 96
4, 89600, Note_off_c, 2, 60, 0
4, 89600, Note_on_c, 2, 59, 96
4, 90112, Note_off_c, 2, 59, 0
4, 90112, Note_on_c, 2, 57, 96
4, 91136, Note_off_c, 2, 57, 0
4, 91136, Note_on_c, 2, 54, 96
4, 92160, Note_off_c, 2, 54, 0
4, 92160, Note_on_c, 2, 55, 96
4, 92672, Note_off_c, 2, 55, 0
4, 92672, Note_on_c, 2, 54, 96
4, 93184, Note_off_c, 2, 54, 0
4, 93184, Note_on_c, 2, 52, 96
4, 94208, Note_off_c, 2, 52, 0
4, 94208, Note_on_c, 2, 50, 96
4, 94720, Note_off_c, 2, 50, 0
4, 94720, Note_on_c, 2, 60, 96
4, 95232, Note_off_c, 2, 60, 0
4, 95232, Note_on_c, 2, 59, 96
4, 95744, Note_off_c, 2, 59, 0
4, 95744, Note_on_c, 2, 57, 96
4, 96256, Note_off_c, 2, 57, 0
4, 96256, Note_on_c, 2, 56, 96
4, 96768, Note_off_c, 2, 56, 0
4, 96768, Note_on_c, 2, 57, 96
4, 97280, Note_off_c, 2, 57, 0
4, 97280, Note_on_c, 2, 59, 96
4, 98304, Note_off_c, 2, 59, 0
4, 98304, Note_on_c, 2, 60, 96
4, 99328, Note_off_c, 2, 60, 0
4, 99328, Note_on_c, 2, 59, 96
4, 100352, Note_off_c, 2, 59, 0
4, 100352, Note_on_c, 2, 52, 96
4, 100608, Note_off_c, 2, 52, 0
4, 100608, Note_on_c, 2, 54, 96
4, 100864, Note_off_c, 2, 54, 0
4, 100864, Note_on_c, 2, 55, 96
4, 101376, Note_off_c, 2, 55, 0
4, 101376, Note_on_c, 2, 57, 96
4, 101888, Note_off_c, 2, 57, 0
4, 101888, Note_on_c, 2, 59, 96
4, 102400, Note_off_c, 2, 59, 0
4, 102400, Note_on_c, 2, 60, 96
4, 103424, Note_off_c, 2, 60, 0
4, 103424, Note_on_c, 2, 64, 96
4, 104448, Note_off_c, 2, 64, 0
4, 104448, Note_on_c, 2, 63, 96
4, 104960, Note_off_c, 2, 63, 0
4, 104960, Note_on_c, 2, 64, 96
4, 105472, Note_off_c, 2, 64, 0
4, 105472, Note_on_c, 2, 66, 96
4, 107008, Note_off_c, 2, 66, 0
4, 107008, Note_on_c, 2, 64, 96
4, 107520, Note_off_c, 2, 64, 0
4, 107520, Note_on_c, 2, 62, 96
4, 108032, Note_off_c, 2, 62, 0
4, 108032, Note_on_c, 2, 60, 96
4, 108544, Note_off_c, 2, 60, 0
4, 108544, Note_on_c, 2, 59, 96
4, 109568, Note_off_c, 2, 59, 0
4, 109568, Note_on_c, 2, 61, 96
4, 110592, Note_off_c, 2, 61, 0
4, 110592, Note_on_c, 2, 62, 96
4, 112640, Note_off_c, 2, 62, 0
4, 113152, Note_on_c, 2, 50, 96
4, 113664, Note_off_c, 2, 50, 0
4, 113664, Note_on_c, 2, 52, 96
4, 114176, Note_off_c, 2, 52, 0
4, 114176, Note_on_c, 2, 54, 96
4, 114688, Note_off_c, 2, 54, 0
4, 114688, Note_on_c, 2, 55, 96
4, 115200, Note_off_c, 2, 55, 0
4, 115200, Note_on_c, 2, 57, 96
4, 115712, Note_off_c, 2, 57, 0
4, 115712, Note_on_c, 2, 59, 96
4, 116224, Note_off_c, 2, 59, 0
4, 116224, Note_on_c, 2, 61, 96
4, 116736, Note_off_c, 2, 61, 0
4, 116736, Note_on_c, 2, 62, 96
4, 117248, Note_off_c, 2, 62, 0
4, 117248, Note_on_c, 2, 60, 96
4, 117760, Note_off_c, 2, 60, 0
4, 117760, Note_on_c, 2, 59, 96
4, 118784, Note_off_c, 2, 59, 0
4, 119296, Note_on_c, 2, 57, 96
4, 119808, Note_off_c, 2, 57, 0
4, 119808, Note_on_c, 2, 57, 96
4, 120320, Note_off_c, 2, 57, 0
4, 120320, Note_on_c, 2, 55, 96
4, 120832, Note_off_c, 2, 55, 0
4, 120832, Note_on_c, 2, 54, 96
4, 121344, Note_off_c, 2, 54, 0
4, 121344, Note_on_c, 2, 59, 96
4, 121856, Note_off_c, 2, 59, 0
4, 121856, Note_on_c, 2, 57, 96
4, 122880, Note_off_c, 2, 57, 0
4, 122880, Note_on_c, 2, 55, 96
4, 123392, Note_off_c, 2, 55, 0
4, 123392, Note_on_c, 2, 57, 96
4, 123904, Note_off_c, 2, 57, 0
4, 123904, Note_on_c, 2, 59, 96
4, 124416, Note_off_c, 2, 59, 0
4, 124416, Note_on_c, 2, 57, 96
4, 125440, Note_off_c, 2, 57, 0
4, 125440, Note_on_c, 2, 54, 96
4, 125952, Note_off_c, 2, 54, 0
4, 125952, Note_on_c, 2, 55, 96
4, 126464, Note_off_c, 2, 55, 0
4, 126464, Note_on_c, 2, 57, 96
4, 127488, Note_off_c, 2, 57, 0
4, 127488, Note_on_c, 2, 55, 96
4, 127744, Note_off_c, 2, 55, 0
4, 127744, Note_on_c, 2, 54, 96
4, 128000, Note_off_c, 2, 54, 0
4, 128000, Note_on_c, 2, 55, 96
4, 129536, Note_off_c, 2, 55, 0
4, 129536, Note_on_c, 2, 54, 96
4, 130048, Note_off_c, 2, 54, 0
4, 130048, Note_on_c, 2, 59, 96
4, 131072, Note_off_c, 2, 59, 0
4, 131072, Note_on_c, 2, 60, 96
4, 132096, Note_off_c, 2, 60, 0
4, 132096, Note_on_c, 2, 59, 96
4, 133120, Note_off_c, 2, 59, 0
4, 133120, Note_on_c, 2, 57, 96
4, 134144, Note_off_c, 2, 57, 0
4, 134144, Note_on_c, 2, 55, 96
4, 134656, Note_off_c, 2, 55, 0
4, 134656, Note_on_c, 2, 57, 96
4, 135168, Note_off_c, 2, 57, 0
4, 135168, Note_on_c, 2, 59, 96
4, 136192, Note_off_c, 2, 59, 0
4, 136192, Note_on_c, 2, 57, 96
4, 137216, Note_off_c, 2, 57, 0
4, 137216, Note_on_c, 2, 55, 96
4, 139264, Note_off_c, 2, 55, 0
4, 139264, Note_on_c, 2, 54, 96
4, 139776, Note_off_c, 2, 54, 0
4, 139776, Note_on_c, 2, 55, 96
4, 140288, Note_off_c, 2, 55, 0
4, 140288, Note_on_c, 2, 57, 96
4, 140800, Note_off_c, 2, 57, 0
4, 140800, Note_on_c, 2, 59, 96
4, 141056, Note_off_c, 2, 59, 0
4, 141056, Note_on_c, 2, 57, 96
4, 141312, Note_off_c, 2, 57, 0
4, 141312, Note_on_c, 2, 55, 96
4, 141824, Note_off_c, 2, 55, 0
4, 141824, Note_on_c, 2, 57, 96
4, 142336, Note_off_c, 2, 57, 0
4, 142336, Note_on_c, 2, 59, 96
4, 144384, Note_off_c, 2, 59, 0
4, 144384, Note_on_c, 2, 58, 96
4, 145408, Note_off_c, 2, 58, 0
4, 145408, Note_on_c, 2, 59, 96
4, 145920, Note_off_c, 2, 59, 0
4, 145920, Note_on_c, 2, 54, 96
4, 146432, Note_off_c, 2, 54, 0
4, 146432, Note_on_c, 2, 52, 96
4, 146944, Note_off_c, 2, 52, 0
4, 146944, Note_on_c, 2, 54, 96
4, 147456, Note_off_c, 2, 54, 0
4, 147456, Note_on_c, 2, 55, 96
4, 147968, Note_off_c, 2, 55, 0
4, 147968, Note_on_c, 2, 57, 96
4, 148224, Note_off_c, 2, 57, 0
4, 148224, Note_on_c, 2, 55, 96
4, 148480, Note_off_c, 2, 55, 0
4, 148480, Note_on_c, 2, 54, 96
4, 148992, Note_off_c, 2, 54, 0
4, 148992, Note_on_c, 2, 56, 96
4, 149504, Note_off_c, 2, 56, 0
4, 149504, Note_on_c, 2, 57, 96
4, 150016, Note_off_c, 2, 57, 0
4, 150016, Note_on_c, 2, 59, 96
4, 150272, Note_off_c, 2, 59, 0
4, 150272, Note_on_c, 2, 57, 96
4, 150528, Note_off_c, 2, 57, 0
4, 150528, Note_on_c, 2, 55, 96
4, 151040, Note_off_c, 2, 55, 0
4, 151040, Note_on_c, 2, 57, 96
4, 151552, Note_off_c, 2, 57, 0
4, 151552, Note_on_c, 2, 59, 96
4, 152064, Note_off_c, 2, 59, 0
4, 152064, Note_on_c, 2, 61, 96
4, 152576, Note_off_c, 2, 61, 0
4, 152576, Note_on_c, 2, 62, 96
4, 153600, Note_off_c, 2, 62, 0
4, 153600, Note_on_c, 2, 61, 96
4, 154112, Note_off_c, 2, 61, 0
4, 154112, Note_on_c, 2, 54, 96
4, 154624, Note_off_c, 2, 54, 0
4, 154624, Note_on_c, 2, 55, 96
4, 155136, Note_off_c, 2, 55, 0
4, 155136, Note_on_c, 2, 54, 96
4, 155648, Note_off_c, 2, 54, 0
4, 155648, Note_on_c, 2, 52, 96
4, 156160, Note_off_c, 2, 52, 0
4, 156160, Note_on_c, 2, 50, 96
4, 156416, Note_off_c, 2, 50, 0
4, 156416, Note_on_c, 2, 52, 96
4, 156672, Note_off_c, 2, 52, 0
4, 156672, Note_on_c, 2, 54, 96
4, 157184, Note_off_c, 2, 54, 0
4, 157184, Note_on_c, 2, 52, 96
4, 157696, Note_off_c, 2, 52, 0
4, 157696, Note_on_c, 2, 50, 96
4, 158720, Note_off_c, 2, 50, 0
4, 160256, Note_on_c, 2, 59, 96
4, 160768, Note_off_c, 2, 59, 0
4, 160768, Note_on_c, 2, 60, 96
4, 161280, Note_off_c, 2, 60, 0
4, 161280, Note_on_c, 2, 59, 96
4, 161792, Note_off_c, 2, 59, 0
4, 161792, Note_on_c, 2, 57, 96
4, 162304, Note_off_c, 2, 57, 0
4, 162304, Note_on_c, 2, 55, 96
4, 162560, Note_off_c, 2, 55, 0
4, 162560, Note_on_c, 2, 57, 96
4, 162816, Note_off_c, 2, 57, 0
4, 162816, Note_on_c, 2, 59, 96
4, 163328, Note_off_c, 2, 59, 0
4, 163328, Note_on_c, 2, 57, 96
4, 163840, Note_off_c, 2, 57, 0
4, 163840, Note_on_c, 2, 55, 96
4, 164352, Note_off_c, 2, 55, 0
4, 164352, Note_on_c, 2, 57, 96
4, 164864, Note_off_c, 2, 57, 0
4, 164864, Note_on_c, 2, 59, 96
4, 165376, Note_off_c, 2, 59, 0
4, 165376, Note_on_c, 2, 60, 96
4, 165632, Note_off_c, 2, 60, 0
4, 165632, Note_on_c, 2, 62, 96
4, 165888, Note_off_c, 2, 62, 0
4, 165888, Note_on_c, 2, 64, 96
4, 166400, Note_off_c, 2, 64, 0
4, 166400, Note_on_c, 2, 62, 96
4, 166912, Note_off_c, 2, 62, 0
4, 166912, Note_on_c, 2, 62, 96
4, 167424, Note_off_c, 2, 62, 0
4, 167424, Note_on_c, 2, 60, 96
4, 167936, Note_off_c, 2, 60, 0
4, 167936, Note_on_c, 2, 62, 96
4, 168960, Note_off_c, 2, 62, 0
4, 168960, Note_on_c, 2, 64, 96
4, 169472, Note_off_c, 2, 64, 0
4, 169472, Note_on_c, 2, 59, 96
4, 169984, Note_off_c, 2, 59, 0
4, 169984, Note_on_c, 2, 59, 96
4, 171520, Note_off_c, 2, 59, 0
4, 171520, Note_on_c, 2, 60, 96
4, 172032, Note_off_c, 2, 60, 0
4, 172032, Note_on_c, 2, 55, 96
4, 173056, Note_off_c, 2, 55, 0
4, 173568, Note_on_c, 2, 59, 96
4, 174080, Note_off_c, 2, 59, 0
4, 174080, Note_on_c, 2, 60, 96
4, 174592, Note_off_c, 2, 60, 0
4, 174592, Note_on_c, 2, 48, 96
4, 175104, Note_off_c, 2, 48, 0
4, 175104, Note_on_c, 2, 47, 96
4, 175616, Note_off_c, 2, 47, 0
4, 175616, Note_on_c, 2, 48, 96
4, 176128, Note_off_c, 2, 48, 0
4, 176128, Note_on_c, 2, 50, 96
4, 176640, Note_off_c, 2, 50, 0
4, 176640, Note_on_c, 2, 52, 96
4, 176896, Note_off_c, 2, 52, 0
4, 176896, Note_on_c, 2, 50, 96
4, 177152, Note_off_c, 2, 50, 0
4, 177152, Note_on_c, 2, 48, 96
4, 177664, Note_off_c, 2, 48, 0
4, 177664, Note_on_c, 2, 50, 96
4, 178176, Note_off_c, 2, 50, 0
4, 178176, Note_on_c, 2, 52, 96
4, 178688, Note_off_c, 2, 52, 0
4, 178688, Note_on_c, 2, 53, 96
4, 179200, Note_off_c, 2, 53, 0
4, 179200, Note_on_c, 2, 55, 96
4, 179712, Note_off_c, 2, 55, 0
4, 179712, Note_on_c, 2, 53, 96
4, 180224, Note_off_c, 2, 53, 0
4, 180224, Note_on_c, 2, 51, 96
4, 180736, Note_off_c, 2, 51, 0
4, 180736, Note_on_c, 2, 50, 96
4, 180992, Note_off_c, 2, 50, 0
4, 180992, Note_on_c, 2, 52, 96
4, 181248, Note_off_c, 2, 52, 0
4, 181248, Note_on_c, 2, 53, 96
4, 181760, Note_off_c, 2, 53, 0
4, 181760, Note_on_c, 2, 52, 96
4, 182272, Note_off_c, 2, 52, 0
4, 182272, Note_on_c, 2, 50, 96
4, 184320, Note_off_c, 2, 50, 0
4, 184320, End_track
5, 0, Start_track
5, 0, Title_t, "Instrument 4"
5, 14848, Note_on_c, 3, 50, 96
5, 15360, Note_off_c, 3, 50, 0
5, 15360, Note_on_c, 3, 50, 96
5, 15872, Note_off_c, 3, 50, 0
5, 15872, Note_on_c, 3, 52, 96
5, 16384, Note_off_c, 3, 52, 0
5, 16384, Note_on_c, 3, 54, 96
5, 17408, Note_off_c, 3, 54, 0
5, 17408, Note_on_c, 3, 52, 96
5, 17920, Note_off_c, 3, 52, 0
5, 17920, Note_on_c, 3, 54, 96
5, 18432, Note_off_c, 3, 54, 0
5, 18432, Note_on_c, 3, 55, 96
5, 18944, Note_off_c, 3, 55, 0
5, 18944, Note_on_c, 3, 54, 96
5, 19456, Note_off_c, 3, 54, 0
5, 19456, Note_on_c, 3, 52, 96
5, 20480, Note_off_c, 3, 52, 0
5, 20480, Note_on_c, 3, 50, 96
5, 20992, Note_off_c, 3, 50, 0
5, 20992, Note_on_c, 3, 51, 96
5, 21504, Note_off_c, 3, 51, 0
5, 21504, Note_on_c, 3, 52, 96
5, 22016, Note_off_c, 3, 52, 0
5, 22016, Note_on_c, 3, 53, 96
5, 22528, Note_off_c, 3, 53, 0
5, 22528, Note_on_c, 3, 54, 96
5, 24064, Note_off_c, 3, 54, 0
5, 24064, Note_on_c, 3, 52, 96
5, 24576, Note_off_c, 3, 52, 0
5, 24576, Note_on_c, 3, 54, 96
5, 25088, Note_off_c, 3, 54, 0
5, 25088, Note_on_c, 3, 47, 96
5, 25600, Note_off_c, 3, 47, 0
5, 25600, Note_on_c, 3, 52, 96
5, 27136, Note_off_c, 3, 52, 0
5, 27136, Note_on_c, 3, 45, 96
5, 27648, Note_off_c, 3, 45, 0
5, 27648, Note_on_c, 3, 50, 96
5, 28672, Note_off_c, 3, 50, 0
5, 28672, Note_on_c, 3, 43, 96
5, 29184, Note_off_c, 3, 43, 0
5, 31232, Note_on_c, 3, 55, 96
5, 31744, Note_off_c, 3, 55, 0
5, 31744, Note_on_c, 3, 55, 96
5, 32256, Note_off_c, 3, 55, 0
5, 32256, Note_on_c, 3, 54, 96
5, 32768, Note_off_c, 3, 54, 0
5, 32768, Note_on_c, 3, 52, 96
5, 33536, Note_off_c, 3, 52, 0
5, 33536, Note_on_c, 3, 50, 96
5, 33792, Note_off_c, 3, 50, 0
5, 33792, Note_on_c, 3, 48, 96
5, 34304, Note_off_c, 3, 48, 0
5, 34304, Note_on_c, 3, 50, 96
5, 34816, Note_off_c, 3, 50, 0
5, 34816, Note_on_c, 3, 45, 96
5, 35328, Note_off_c, 3, 45, 0
5, 35328, Note_on_c, 3, 42, 96
5, 35840, Note_off_c, 3, 42, 0
5, 35840, Note_on_c, 3, 43, 96
5, 36352, Note_off_c, 3, 43, 0
5, 36352, Note_on_c, 3, 47, 96
5, 36864, Note_off_c, 3, 47, 0
5, 36864, Note_on_c, 3, 48, 96
5, 37376, Note_off_c, 3, 48, 0
5, 37376, Note_on_c, 3, 45, 96
5, 37888, Note_off_c, 3, 45, 0
5, 37888, Note_on_c, 3, 50, 96
5, 38400, Note_off_c, 3, 50, 0
5, 38400, Note_on_c, 3, 38, 96
5, 38912, Note_off_c, 3, 38, 0
5, 38912, Note_on_c, 3, 40, 96
5, 39424, Note_off_c, 3, 40, 0
5, 39424, Note_on_c, 3, 52, 96
5, 39936, Note_off_c, 3, 52, 0
5, 39936, Note_on_c, 3, 47, 96
5, 40448, Note_off_c, 3, 47, 0
5, 40448, Note_on_c, 3, 45, 96
5, 40704, Note_off_c, 3, 45, 0
5, 40704, Note_on_c, 3, 47, 96
5, 40960, Note_off_c, 3, 47, 0
5, 40960, Note_on_c, 3, 48, 96
5, 43008, Note_off_c, 3, 48, 0
5, 43008, Note_on_c, 3, 43, 96
5, 43520, Note_off_c, 3, 43, 0
5, 49664, Note_on_c, 3, 50, 96
5, 50176, Note_off_c, 3, 50, 0
5, 50176, Note_on_c, 3, 52, 96
5, 50688, Note_off_c, 3, 52, 0
5, 50688, Note_on_c, 3, 50, 96
5, 51200, Note_off_c, 3, 50, 0
5, 51200, Note_on_c, 3, 48, 96
5, 51712, Note_off_c, 3, 48, 0
5, 51712, Note_on_c, 3, 47, 96
5, 52224, Note_off_c, 3, 47, 0
5, 52224, Note_on_c, 3, 45, 96
5, 52736, Note_off_c, 3, 45, 0
5, 52736, Note_on_c, 3, 47, 96
5, 53248, Note_off_c, 3, 47, 0
5, 53248, Note_on_c, 3, 48, 96
5, 54784, Note_off_c, 3, 48, 0
5, 54784, Note_on_c, 3, 47, 96
5, 55040, Note_off_c, 3, 47, 0
5, 55040, Note_on_c, 3, 46, 96
5, 55296, Note_off_c, 3, 46, 0
5, 55296, Note_on_c, 3, 47, 96
5, 58368, Note_off_c, 3, 47, 0
5, 59904, Note_on_c, 3, 47, 96
5, 60416, Note_off_c, 3, 47, 0
5, 60416, Note_on_c, 3, 45, 96
5, 60928, Note_off_c, 3, 45, 0
5, 60928, Note_on_c, 3, 47, 96
5, 61440, Note_off_c, 3, 47, 0
5, 61440, Note_on_c, 3, 48, 96
5, 61952, Note_off_c, 3, 48, 0
5, 61952, Note_on_c, 3, 50, 96
5, 62464, Note_off_c, 3, 50, 0
5, 62464, Note_on_c, 3, 52, 96
5, 62976, Note_off_c, 3, 52, 0
5, 62976, Note_on_c, 3, 50, 96
5, 63488, Note_off_c, 3, 50, 0
5, 63488, Note_on_c, 3, 49, 96
5, 64000, Note_off_c, 3, 49, 0
5, 64000, Note_on_c, 3, 45, 96
5, 64512, Note_off_c, 3, 45, 0
5, 64512, Note_on_c, 3, 50, 96
5, 66048, Note_off_c, 3, 50, 0
5, 66048, Note_on_c, 3, 49, 96
5, 66304, Note_off_c, 3, 49, 0
5, 66304, Note_on_c, 3, 47, 96
5, 66560, Note_off_c, 3, 47, 0
5, 66560, Note_on_c, 3, 49, 96
5, 67072, Note_off_c, 3, 49, 0
5, 67072, Note_on_c, 3, 48, 96
5, 68096, Note_off_c, 3, 48, 0
5, 68096, Note_on_c, 3, 47, 96
5, 68352, Note_off_c, 3, 47, 0
5, 68352, Note_on_c, 3, 45, 96
5, 68608, Note_off_c, 3, 45, 0
5, 68608, Note_on_c, 3, 47, 96
5, 69120, Note_off_c, 3, 47, 0
5, 69120, Note_on_c, 3, 43, 96
5, 69632, Note_off_c, 3, 43, 0
5, 69632, Note_on_c, 3, 45, 96
5, 70144, Note_off_c, 3, 45, 0
5, 70144, Note_on_c, 3, 47, 96
5, 70400, Note_off_c, 3, 47, 0
5, 70400, Note_on_c, 3, 48, 96
5, 70656, Note_off_c, 3, 48, 0
5, 70656, Note_on_c, 3, 50, 96
5, 72192, Note_off_c, 3, 50, 0
5, 72192, Note_on_c, 3, 52, 96
5, 72704, Note_off_c, 3, 52, 0
5, 72704, Note_on_c, 3, 54, 96
5, 73216, Note_off_c, 3, 54, 0
5, 73216, Note_on_c, 3, 50, 96
5, 73728, Note_off_c, 3, 50, 0
5, 73728, Note_on_c, 3, 55, 96
5, 76288, Note_off_c, 3, 55, 0
5, 76288, Note_on_c, 3, 55, 96
5, 76800, Note_off_c, 3, 55, 0
5, 76800, Note_on_c, 3, 55, 96
5, 77312, Note_off_c, 3, 55, 0
5, 77312, Note_on_c, 3, 53, 96
5, 77824, Note_off_c, 3, 53, 0
5, 77824, Note_on_c, 3, 52, 96
5, 78336, Note_off_c, 3, 52, 0
5, 78336, Note_on_c, 3, 52, 96
5, 78848, Note_off_c, 3, 52, 0
5, 78848, Note_on_c, 3, 52, 96
5, 79360, Note_off_c, 3, 52, 0
5, 79360, Note_on_c, 3, 50, 96
5, 79872, Note_off_c, 3, 50, 0
5, 79872, Note_on_c, 3, 48, 96
5, 80384, Note_off_c, 3, 48, 0
5, 80384, Note_on_c, 3, 48, 96
5, 80896, Note_off_c, 3, 48, 0
5, 80896, Note_on_c, 3, 48, 96
5, 81408, Note_off_c, 3, 48, 0
5, 81408, Note_on_c, 3, 47, 96
5, 81920, Note_off_c, 3, 47, 0
5, 81920, Note_on_c, 3, 45, 96
5, 82432, Note_off_c, 3, 45, 0
5, 82432, Note_on_c, 3, 50, 96
5, 82944, Note_off_c, 3, 50, 0
5, 82944, Note_on_c, 3, 47, 96
5, 83456, Note_off_c, 3, 47, 0
5, 83456, Note_on_c, 3, 52, 96
5, 83968, Note_off_c, 3, 52, 0
5, 83968, Note_on_c, 3, 49, 96
5, 84480, Note_off_c, 3, 49, 0
5, 84480, Note_on_c, 3, 45, 96
5, 84736, Note_off_c, 3, 45, 0
5, 84736, Note_on_c, 3, 47, 96
5, 84992, Note_off_c, 3, 47, 0
5, 84992, Note_on_c, 3, 49, 96
5, 85504, Note_off_c, 3, 49, 0
5, 85504, Note_on_c, 3, 45, 96
5, 86016, Note_off_c, 3, 45, 0
5, 86016, Note_on_c, 3, 54, 96
5, 86528, Note_off_c, 3, 54, 0
5, 86528, Note_on_c, 3, 50, 96
5, 87040, Note_off_c, 3, 50, 0
5, 87040, Note_on_c, 3, 57, 96
5, 87552, Note_off_c, 3, 57, 0
5, 87552, Note_on_c, 3, 45, 96
5, 88064, Note_off_c, 3, 45, 0
5, 88064, Note_on_c, 3, 50, 96
5, 88576, Note_off_c, 3, 50, 0
5, 96768, Note_on_c, 3, 50, 96
5, 97280, Note_off_c, 3, 50, 0
5, 97280, Note_on_c, 3, 48, 96
5, 97792, Note_off_c, 3, 48, 0
5, 97792, Note_on_c, 3, 47, 96
5, 98304, Note_off_c, 3, 47, 0
5, 98304, Note_on_c, 3, 45, 96
5, 99328, Note_off_c, 3, 45, 0
5, 99328, Note_on_c, 3, 44, 96
5, 100352, Note_off_c, 3, 44, 0
5, 100352, Note_on_c, 3, 45, 96
5, 100864, Note_off_c, 3, 45, 0
5, 100864, Note_on_c, 3, 43, 96
5, 101376, Note_off_c, 3, 43, 0
5, 101376, Note_on_c, 3, 42, 96
5, 102400, Note_off_c, 3, 42, 0
5, 102400, Note_on_c, 3, 40, 96
5, 102912, Note_off_c, 3, 40, 0
5, 102912, Note_on_c, 3, 45, 96
5, 103424, Note_off_c, 3, 45, 0
5, 103424, Note_on_c, 3, 43, 96
5, 103936, Note_off_c, 3, 43, 0
5, 103936, Note_on_c, 3, 48, 96
5, 104448, Note_off_c, 3, 48, 0
5, 104448, Note_on_c, 3, 47, 96
5, 104960, Note_off_c, 3, 47, 0
5, 104960, Note_on_c, 3, 49, 96
5, 105472, Note_off_c, 3, 49, 0
5, 105472, Note_on_c, 3, 51, 96
5, 105984, Note_off_c, 3, 51, 0
5, 105984, Note_on_c, 3, 47, 96
5, 106496, Note_off_c, 3, 47, 0
5, 106496, Note_on_c, 3, 52, 96
5, 107520, Note_off_c, 3, 52, 0
5, 107520, Note_on_c, 3, 54, 96
5, 108544, Note_off_c, 3, 54, 0
5, 109056, Note_on_c, 3, 55, 96
5, 109568, Note_off_c, 3, 55, 0
5, 109568, Note_on_c, 3, 54, 96
5, 110080, Note_off_c, 3, 54, 0
5, 110080, Note_on_c, 3, 52, 96
5, 110592, Note_off_c, 3, 52, 0
5, 110592, Note_on_c, 3, 50, 96
5, 111616, Note_off_c, 3, 50, 0
5, 111616, Note_on_c, 3, 47, 96
5, 112640, Note_off_c, 3, 47, 0
5, 112640, Note_on_c, 3, 48, 96
5, 113152, Note_off_c, 3, 48, 0
5, 113152, Note_on_c, 3, 47, 96
5, 113664, Note_off_c, 3, 47, 0
5, 113664, Note_on_c, 3, 45, 96
5, 114688, Note_off_c, 3, 45, 0
5, 114688, Note_on_c, 3, 43, 96
5, 115200, Note_off_c, 3, 43, 0
5, 115200, Note_on_c, 3, 42, 96
5, 115712, Note_off_c, 3, 42, 0
5, 115712, Note_on_c, 3, 40, 96
5, 116224, Note_off_c, 3, 40, 0
5, 116224, Note_on_c, 3, 45, 96
5, 116736, Note_off_c, 3, 45, 0
5, 116736, Note_on_c, 3, 38, 96
5, 117248, Note_off_c, 3, 38, 0
5, 117248, Note_on_c, 3, 50, 96
5, 117760, Note_off_c, 3, 50, 0
5, 117760, Note_on_c, 3, 50, 96
5, 118272, Note_off_c, 3, 50, 0
5, 118272, Note_on_c, 3, 52, 96
5, 118784, Note_off_c, 3, 52, 0
5, 118784, Note_on_c, 3, 54, 96
5, 119296, Note_off_c, 3, 54, 0
5, 119296, Note_on_c, 3, 50, 96
5, 119808, Note_off_c, 3, 50, 0
5, 119808, Note_on_c, 3, 55, 96
5, 120320, Note_off_c, 3, 55, 0
5, 120320, Note_on_c, 3, 43, 96
5, 120832, Note_off_c, 3, 43, 0
5, 120832, Note_on_c, 3, 50, 96
5, 121344, Note_off_c, 3, 50, 0
5, 121344, Note_on_c, 3, 50, 96
5, 121856, Note_off_c, 3, 50, 0
5, 121856, Note_on_c, 3, 50, 96
5, 122368, Note_off_c, 3, 50, 0
5, 122368, Note_on_c, 3, 49, 96
5, 122880, Note_off_c, 3, 49, 0
5, 122880, Note_on_c, 3, 47, 96
5, 123392, Note_off_c, 3, 47, 0
5, 123392, Note_on_c, 3, 45, 96
5, 123904, Note_off_c, 3, 45, 0
5, 123904, Note_on_c, 3, 43, 96
5, 124416, Note_off_c, 3, 43, 0
5, 124416, Note_on_c, 3, 45, 96
5, 124672, Note_off_c, 3, 45, 0
5, 124672, Note_on_c, 3, 43, 96
5, 124928, Note_off_c, 3, 43, 0
5, 124928, Note_on_c, 3, 42, 96
5, 125440, Note_off_c, 3, 42, 0
5, 125440, Note_on_c, 3, 38, 96
5, 125952, Note_off_c, 3, 38, 0
5, 125952, Note_on_c, 3, 40, 96
5, 126464, Note_off_c, 3, 40, 0
5, 126464, Note_on_c, 3, 42, 96
5, 126976, Note_off_c, 3, 42, 0
5, 126976, Note_on_c, 3, 43, 96
5, 127488, Note_off_c, 3, 43, 0
5, 127488, Note_on_c, 3, 45, 96
5, 128000, Note_off_c, 3, 45, 0
5, 128000, Note_on_c, 3, 47, 96
5, 128512, Note_off_c, 3, 47, 0
5, 128512, Note_on_c, 3, 49, 96
5, 129024, Note_off_c, 3, 49, 0
5, 129024, Note_on_c, 3, 50, 96
5, 130048, Note_off_c, 3, 50, 0
5, 135680, Note_on_c, 3, 48, 96
5, 136192, Note_off_c, 3, 48, 0
5, 136192, Note_on_c, 3, 50, 96
5, 136704, Note_off_c, 3, 50, 0
5, 136704, Note_on_c, 3, 48, 96
5, 137216, Note_off_c, 3, 48, 0
5, 137216, Note_on_c, 3, 47, 96
5, 137728, Note_off_c, 3, 47, 0
5, 137728, Note_on_c, 3, 45, 96
5, 137984, Note_off_c, 3, 45, 0
5, 137984, Note_on_c, 3, 47, 96
5, 138240, Note_off_c, 3, 47, 0
5, 138240, Note_on_c, 3, 48, 96
5, 138752, Note_off_c, 3, 48, 0
5, 138752, Note_on_c, 3, 47, 96
5, 139264, Note_off_c, 3, 47, 0
5, 139264, Note_on_c, 3, 45, 96
5, 140288, Note_off_c, 3, 45, 0
5, 140288, Note_on_c, 3, 47, 96
5, 141312, Note_off_c, 3, 47, 0
5, 141312, Note_on_c, 3, 40, 96
5, 142336, Note_off_c, 3, 40, 0
5, 142336, Note_on_c, 3, 52, 96
5, 142848, Note_off_c, 3, 52, 0
5, 142848, Note_on_c, 3, 50, 96
5, 143360, Note_off_c, 3, 50, 0
5, 143360, Note_on_c, 3, 49, 96
5, 144384, Note_off_c, 3, 49, 0
5, 144384, Note_on_c, 3, 42, 96
5, 144896, Note_off_c, 3, 42, 0
5, 144896, Note_on_c, 3, 54, 96
5, 145408, Note_off_c, 3, 54, 0
5, 145408, Note_on_c, 3, 47, 96
5, 145920, Note_off_c, 3, 47, 0
5, 145920, Note_on_c, 3, 45, 96
5, 146432, Note_off_c, 3, 45, 0
5, 146432, Note_on_c, 3, 43, 96
5, 146944, Note_off_c, 3, 43, 0
5, 146944, Note_on_c, 3, 45, 96
5, 147456, Note_off_c, 3, 45, 0
5, 147456, Note_on_c, 3, 40, 96
5, 148480, Note_off_c, 3, 40, 0
5, 148480, Note_on_c, 3, 47, 96
5, 149504, Note_off_c, 3, 47, 0
5, 149504, Note_on_c, 3, 45, 96
5, 150528, Note_off_c, 3, 45, 0
5, 152576, Note_on_c, 3, 47, 96
5, 153600, Note_off_c, 3, 47, 0
5, 153600, Note_on_c, 3, 45, 96
5, 154624, Note_off_c, 3, 45, 0
5, 154624, Note_on_c, 3, 47, 96
5, 155648, Note_off_c, 3, 47, 0
5, 155648, Note_on_c, 3, 49, 96
5, 156672, Note_off_c, 3, 49, 0
5, 156672, Note_on_c, 3, 50, 96
5, 157184, Note_off_c, 3, 50, 0
5, 157184, Note_on_c, 3, 49, 96
5, 157696, Note_off_c, 3, 49, 0
5, 157696, Note_on_c, 3, 47, 96
5, 158720, Note_off_c, 3, 47, 0
5, 158720, Note_on_c, 3, 49, 96
5, 159744, Note_off_c, 3, 49, 0
5, 159744, Note_on_c, 3, 50, 96
5, 160256, Note_off_c, 3, 50, 0
5, 160256, Note_on_c, 3, 51, 96
5, 160768, Note_off_c, 3, 51, 0
5, 160768, Note_on_c, 3, 52, 96
5, 162816, Note_off_c, 3, 52, 0
5, 162816, Note_on_c, 3, 51, 96
5, 163840, Note_off_c, 3, 51, 0
5, 163840, Note_on_c, 3, 52, 96
5, 164352, Note_off_c, 3, 52, 0
5, 164352, Note_on_c, 3, 52, 96
5, 164864, Note_off_c, 3, 52, 0
5, 164864, Note_on_c, 3, 52, 96
5, 165376, Note_off_c, 3, 52, 0
5, 165376, Note_on_c, 3, 50, 96
5, 165888, Note_off_c, 3, 50, 0
5, 165888, Note_on_c, 3, 48, 96
5, 166400, Note_off_c, 3, 48, 0
5, 166400, Note_on_c, 3, 50, 96
5, 166656, Note_off_c, 3, 50, 0
5, 166656, Note_on_c, 3, 48, 96
5, 166912, Note_off_c, 3, 48, 0
5, 166912, Note_on_c, 3, 47, 96
5, 167424, Note_off_c, 3, 47, 0
5, 167424, Note_on_c, 3, 45, 96
5, 167936, Note_off_c, 3, 45, 0
5, 167936, Note_on_c, 3, 43, 96
5, 168448, Note_off_c, 3, 43, 0
5, 168448, Note_on_c, 3, 47, 96
5, 168960, Note_off_c, 3, 47, 0
5, 168960, Note_on_c, 3, 49, 96
5, 169472, Note_off_c, 3, 49, 0
5, 169472, Note_on_c, 3, 51, 96
5, 169984, Note_off_c, 3, 51, 0
5, 169984, Note_on_c, 3, 40, 96
5, 170496, Note_off_c, 3, 40, 0
5, 170496, Note_on_c, 3, 52, 96
5, 171008, Note_off_c, 3, 52, 0
5, 171008, Note_on_c, 3, 50, 96
5, 171520, Note_off_c, 3, 50, 0
5, 171520, Note_on_c, 3, 48, 96
5, 172032, Note_off_c, 3, 48, 0
5, 172032, Note_on_c, 3, 47, 96
5, 172544, Note_off_c, 3, 47, 0
5, 172544, Note_on_c, 3, 45, 96
5, 172800, Note_off_c, 3, 45, 0
5, 172800, Note_on_c, 3, 47, 96
5, 173056, Note_off_c, 3, 47, 0
5, 173056, Note_on_c, 3, 48, 96
5, 173568, Note_off_c, 3, 48, 0
5, 173568, Note_on_c, 3, 43, 96
5, 174080, Note_off_c, 3, 43, 0
5, 174080, Note_on_c, 3, 40, 96
5, 174592, Note_off_c, 3, 40, 0
5, 174592, Note_on_c, 3, 42, 96
5, 175104, Note_off_c, 3, 42, 0
5, 175104, Note_on_c, 3, 43, 96
5, 175616, Note_off_c, 3, 43, 0
5, 175616, Note_on_c, 3, 45, 96
5, 176128, Note_off_c, 3, 45, 0
5, 176128, Note_on_c, 3, 47, 96
5, 176640, Note_off_c, 3, 47, 0
5, 176640, Note_on_c, 3, 43, 96
5, 177152, Note_off_c, 3, 43, 0
5, 177152, Note_on_c, 3, 45, 96
5, 177664, Note_off_c, 3, 45, 0
5, 177664, Note_on_c, 3, 47, 96
5, 178176, Note_off_c, 3, 47, 0
5, 178176, Note_on_c, 3, 48, 96
5, 182272, Note_off_c, 3, 48, 0
5, 182272, Note_on_c, 3, 43, 96
5, 184320, Note_off_c, 3, 43, 0
5, 184320, End_track
6, 0, Start_track
6, 0, Title_t, "Instrument 5"
6, 14848, Note_on_c, 4, 38, 96
6, 15360, Note_off_c, 4, 38, 0
6, 15360, Note_on_c, 4, 38, 96
6, 15872, Note_off_c, 4, 38, 0
6, 15872, Note_on_c, 4, 40, 96
6, 16384, Note_off_c, 4, 40, 0
6, 16384, Note_on_c, 4, 42, 96
6, 17408, Note_off_c, 4, 42, 0
6, 17408, Note_on_c, 4, 40, 96
6, 17920, Note_off_c, 4, 40, 0
6, 17920, Note_on_c, 4, 42, 96
6, 18432, Note_off_c, 4, 42, 0
6, 18432, Note_on_c, 4, 43, 96
6, 18944, Note_off_c, 4, 43, 0
6, 18944, Note_on_c, 4, 42, 96
6, 19456, Note_off_c, 4, 42, 0
6, 19456, Note_on_c, 4, 40, 96
6, 20480, Note_off_c, 4, 40, 0
6, 20480, Note_on_c, 4, 38, 96
6, 20992, Note_off_c, 4, 38, 0
6, 20992, Note_on_c, 4, 39, 96
6, 21504, Note_off_c, 4, 39, 0
6, 21504, Note_on_c, 4, 40, 96
6, 22016, Note_off_c, 4, 40, 0
6, 22016, Note_on_c, 4, 41, 96
6, 22528, Note_off_c, 4, 41, 0
6, 22528, Note_on_c, 4, 42, 96
6, 24064, Note_off_c, 4, 42, 0
6, 24064, Note_on_c, 4, 40, 96
6, 24576, Note_off_c, 4, 40, 0
6, 24576, Note_on_c, 4, 42, 96
6, 25088, Note_off_c, 4, 42, 0
6, 25088, Note_on_c, 4, 35, 96
6, 25600, Note_off_c, 4, 35, 0
6, 25600, Note_on_c, 4, 40, 96
6, 27136, Note_off_c, 4, 40, 0
6, 27136, Note_on_c, 4, 33, 96
6, 27648, Note_off_c, 4, 33, 0
6, 27648, Note_on_c, 4, 38, 96
6, 28672, Note_off_c, 4, 38, 0
6, 28672, Note_on_c, 4, 31, 96
6, 29184, Note_off_c, 4, 31, 0
6, 31232, Note_on_c, 4, 43, 96
6, 31744, Note_off_c, 4, 43, 0
6, 31744, Note_on_c, 4, 43, 96
6, 32256, Note_off_c, 4, 43, 0
6, 32256, Note_on_c, 4, 42, 96
6, 32768, Note_off_c, 4, 42, 0
6, 32768, Note_on_c, 4, 40, 96
6, 33536, Note_off_c, 4, 40, 0
6, 33536, Note_on_c, 4, 38, 96
6, 33792, Note_off_c, 4, 38, 0
6, 33792, Note_on_c, 4, 36, 96
6, 34304, Note_off_c, 4, 36, 0
6, 34304, Note_on_c, 4, 38, 96
6, 34816, Note_off_c, 4, 38, 0
6, 34816, Note_on_c, 4, 33, 96
6, 35328, Note_off_c, 4, 33, 0
6, 35328, Note_on_c, 4, 30, 96
6, 35840, Note_off_c, 4, 30, 0
6, 35840, Note_on_c, 4, 31, 96
6, 36352, Note_off_c, 4, 31, 0
6, 36352, Note_on_c, 4, 35, 96
6, 36864, Note_off_c, 4, 35, 0
6, 36864, Note_on_c, 4, 36, 96
6, 37376, Note_off_c, 4, 36, 0
6, 37376, Note_on_c, 4, 33, 96
6, 37888, Note_off_c, 4, 33, 0
6, 37888, Note_on_c, 4, 38, 96
6, 38400, Note_off_c, 4, 38, 0
6, 38400, Note_on_c, 4, 26, 96
6, 38912, Note_off_c, 4, 26, 0
6, 38912, Note_on_c, 4, 28, 96
6, 39424, Note_off_c, 4, 28, 0
6, 39424, Note_on_c, 4, 40, 96
6, 39936, Note_off_c, 4, 40, 0
6, 39936, Note_on_c, 4, 35, 96
6, 40448, Note_off_c, 4, 35, 0
6, 40448, Note_on_c, 4, 33, 96
6, 40704, Note_off_c, 4, 33, 0
6, 40704, Note_on_c, 4, 35, 96
6, 40960, Note_off_c, 4, 35, 0
6, 40960, Note_on_c, 4, 36, 96
6, 43008, Note_off_c, 4, 36, 0
6, 43008, Note_on_c, 4, 31, 96
6, 43520, Note_off_c, 4, 31, 0
6, 49664, Note_on_c, 4, 38, 96
6, 50176, Note_off_c, 4, 38, 0
6, 50176, Note_on_c, 4, 40, 96
6, 50688, Note_off_c, 4, 40, 0
6, 50688, Note_on_c, 4, 38, 96
6, 51200, Note_off_c, 4, 38, 0
6, 51200, Note_on_c, 4, 36, 96
6, 51712, Note_off_c, 4, 36, 0
6, 51712, Note_on_c, 4, 35, 96
6, 52224, Note_off_c, 4, 35, 0
6, 52224, Note_on_c, 4, 33, 96
6, 52736, Note_off_c, 4, 33, 0
6, 52736, Note_on_c, 4, 35, 96
6, 53248, Note_off_c, 4, 35, 0
6, 53248, Note_on_c, 4, 36, 96
6, 54784, Note_off_c, 4, 36, 0
6, 54784, Note_on_c, 4, 35, 96
6, 55040, Note_off_c, 4, 35, 0
6, 55040, Note_on_c, 4, 34, 96
6, 55296, Note_off_c, 4, 34, 0
6, 55296, Note_on_c, 4, 35, 96
6, 58368, Note_off_c, 4, 35, 0
6, 59904, Note_on_c, 4, 35, 96
6, 60416, Note_off_c, 4, 35, 0
6, 60416, Note_on_c, 4, 33, 96
6, 60928, Note_off_c, 4, 33, 0
6, 60928, Note_on_c, 4, 35, 96
6, 61440, Note_off_c, 4, 35, 0
6, 61440, Note_on_c, 4, 36, 96
6, 61952, Note_off_c, 4, 36, 0
6, 61952, Note_on_c, 4, 38, 96
6, 62464, Note_off_c, 4, 38, 0
6, 62464, Note_on_c, 4, 40, 96
6, 62976, Note_off_c, 4, 40, 0
6, 62976, Note_on_c, 4, 38, 96
6, 63488, Note_off_c, 4, 38, 0
6, 63488, Note_on_c, 4, 37, 96
6, 64000, Note_off_c, 4, 37, 0
6, 64000, Note_on_c, 4, 33, 96
6, 64512, Note_off_c, 4, 33, 0
6, 64512, Note_on_c, 4, 38, 96
6, 66048, Note_off_c, 4, 38, 0
6, 66048, Note_on_c, 4, 37, 96
6, 66304, Note_off_c, 4, 37, 0
6, 66304, Note_on_c, 4, 35, 96
6, 66560, Note_off_c, 4, 35, 0
6, 66560, Note_on_c, 4, 37, 96
6, 67072, Note_off_c, 4, 37, 0
6, 67072, Note_on_c, 4, 36, 96
6, 68096, Note_off_c, 4, 36, 0
6, 68096, Note_on_c, 4, 35, 96
6, 68352, Note_off_c, 4, 35, 0
6, 68352, Note_on_c, 4, 33, 96
6, 68608, Note_off_c, 4, 33, 0
6, 68608, Note_on_c, 4, 35, 96
6, 69120, Note_off_c, 4, 35, 0
6, 69120, Note_on_c, 4, 31, 96
6, 69632, Note_off_c, 4, 31, 0
6, 69632, Note_on_c, 4, 33, 96
6, 70144, Note_off_c, 4, 33, 0
6, 70144, Note_on_c, 4, 35, 96
6, 70400, Note_off_c, 4, 35, 0
6, 70400, Note_on_c, 4, 36, 96
6, 70656, Note_off_c, 4, 36, 0
6, 70656, Note_on_c, 4, 38, 96
6, 72192, Note_off_c, 4, 38, 0
6, 72192, Note_on_c, 4, 40, 96
6, 72704, Note_off_c, 4, 40, 0
6, 72704, Note_on_c, 4, 42, 96
6, 73216, Note_off_c, 4, 42, 0
6, 73216, Note_on_c, 4, 38, 96
6, 73728, Note_off_c, 4, 38, 0
6, 73728, Note_on_c, 4, 43, 96
6, 76288, Note_off_c, 4, 43, 0
6, 76288, Note_on_c, 4, 43, 96
6, 76800, Note_off_c, 4, 43, 0
6, 76800, Note_on_c, 4, 43, 96
6, 77312, Note_off_c, 4, 43, 0
6, 77312, Note_on_c, 4, 41, 96
6, 77824, Note_off_c, 4, 41, 0
6, 77824, Note_on_c, 4, 40, 96
6, 78336, Note_off_c, 4, 40, 0
6, 78336, Note_on_c, 4, 40, 96
6, 78848, Note_off_c, 4, 40, 0
6, 78848, Note_on_c, 4, 40, 96
6, 79360, Note_off_c, 4, 40, 0
6, 79360, Note_on_c, 4, 38, 96
6, 79872, Note_off_c, 4, 38, 0
6, 79872, Note_on_c, 4, 36, 96
6, 80384, Note_off_c, 4, 36, 0
6, 80384, Note_on_c, 4, 36, 96
6, 80896, Note_off_c, 4, 36, 0
6, 80896, Note_on_c, 4, 36, 96
6, 81408, Note_off_c, 4, 36, 0
6, 81408, Note_on_c, 4, 35, 96
6, 81920, Note_off_c, 4, 35, 0
6, 81920, Note_on_c, 4, 33, 96
6, 82432, Note_off_c, 4, 33, 0
6, 82432, Note_on_c, 4, 38, 96
6, 82944, Note_off_c, 4, 38, 0
6, 82944, Note_on_c, 4, 35, 96
6, 83456, Note_off_c, 4, 35, 0
6, 83456, Note_on_c, 4, 40, 96
6, 83968, Note_off_c, 4, 40, 0
6, 83968, Note_on_c, 4, 37, 96
6, 84480, Note_off_c, 4, 37, 0
6, 84480, Note_on_c, 4, 33, 96
6, 84736, Note_off_c, 4, 33, 0
6, 84736, Note_on_c, 4, 35, 96
6, 84992, Note_off_c, 4, 35, 0
6, 84992, Note_on_c, 4, 37, 96
6, 85504, Note_off_c, 4, 37, 0
6, 85504, Note_on_c, 4, 33, 96
6, 86016, Note_off_c, 4, 33, 0
6, 86016, Note_on_c, 4, 42, 96
6, 86528, Note_off_c, 4, 42, 0
6, 86528, Note_on_c, 4, 38, 96
6, 87040, Note_off_c, 4, 38, 0
6, 87040, Note_on_c, 4, 45, 96
6, 87552, Note_off_c, 4, 45, 0
6, 87552, Note_on_c, 4, 33, 96
6, 88064, Note_off_c, 4, 33, 0
6, 88064, Note_on_c, 4, 38, 96
6, 88576, Note_off_c, 4, 38, 0
6, 96768, Note_on_c, 4, 38, 96
6, 97280, Note_off_c, 4, 38, 0
6, 97280, Note_on_c, 4, 36, 96
6, 97792, Note_off_c, 4, 36, 0
6, 97792, Note_on_c, 4, 35, 96
6, 98304, Note_off_c, 4, 35, 0
6, 98304, Note_on_c, 4, 33, 96
6, 99328, Note_off_c, 4, 33, 0
6, 99328, Note_on_c, 4, 32, 96
6, 100352, Note_off_c, 4, 32, 0
6, 100352, Note_on_c, 4, 33, 96
6, 100864, Note_off_c, 4, 33, 0
6, 100864, Note_on_c, 4, 31, 96
6, 101376, Note_off_c, 4, 31, 0
6, 101376, Note_on_c, 4, 30, 96
6, 102400, Note_off_c, 4, 30, 0
6, 102400, Note_on_c, 4, 28, 96
6, 102912, Note_off_c, 4, 28, 0
6, 102912, Note_on_c, 4, 33, 96
6, 103424, Note_off_c, 4, 33, 0
6, 103424, Note_on_c, 4, 31, 96
6, 103936, Note_off_c, 4, 31, 0
6, 103936, Note_on_c, 4, 36, 96
6, 104448, Note_off_c, 4, 36, 0
6, 104448, Note_on_c, 4, 35, 96
6, 104960, Note_off_c, 4, 35, 0
6, 104960, Note_on_c, 4, 37, 96
6, 105472, Note_off_c, 4, 37, 0
6, 105472, Note_on_c, 4, 39, 96
6, 105984, Note_off_c, 4, 39, 0
6, 105984, Note_on_c, 4, 35, 96
6, 106496, Note_off_c, 4, 35, 0
6, 106496, Note_on_c, 4, 40, 96
6, 107520, Note_off_c, 4, 40, 0
6, 107520, Note_on_c, 4, 42, 96
6, 108544, Note_off_c, 4, 42, 0
6, 109056, Note_on_c, 4, 43, 96
6, 109568, Note_off_c, 4, 43, 0
6, 109568, Note_on_c, 4, 42, 96
6, 110080, Note_off_c, 4, 42, 0
6, 110080, Note_on_c, 4, 40, 96
6, 110592, Note_off_c, 4, 40, 0
6, 110592, Note_on_c, 4, 38, 96
6, 111616, Note_off_c, 4, 38, 0
6, 111616, Note_on_c, 4, 35, 96
6, 112640, Note_off_c, 4, 35, 0
6, 112640, Note_on_c, 4, 36, 96
6, 113152, Note_off_c, 4, 36, 0
6, 113152, Note_on_c, 4, 35, 96
6, 113664, Note_off_c, 4, 35, 0
6, 113664, Note_on_c, 4, 33, 96
6, 114688, Note_off_c, 4, 33, 0
6, 114688, Note_on_c, 4, 31, 96
6, 115200, Note_off_c, 4, 31, 0
6, 115200, Note_on_c, 4, 30, 96
6, 115712, Note_off_c, 4, 30, 0
6, 115712, Note_on_c, 4, 28, 96
6, 116224, Note_off_c, 4, 28, 0
6, 116224, Note_on_c, 4, 33, 96
6, 116736, Note_off_c, 4, 33, 0
6, 116736, Note_on_c, 4, 26, 96
6, 117248, Note_off_c, 4, 26, 0
6, 117248, Note_on_c, 4, 38, 96
6, 117760, Note_off_c, 4, 38, 0
6, 117760, Note_on_c, 4, 38, 96
6, 118272, Note_off_c, 4, 38, 0
6, 118272, Note_on_c, 4, 40, 96
6, 118784, Note_off_c, 4, 40, 0
6, 118784, Note_on_c, 4, 42, 96
6, 119296, Note_off_c, 4, 42, 0
6, 119296, Note_on_c, 4, 38, 96
6, 119808, Note_off_c, 4, 38, 0
6, 119808, Note_on_c, 4, 43, 96
6, 120320, Note_off_c, 4, 43, 0
6, 120320, Note_on_c, 4, 31, 96
6, 120832, Note_off_c, 4, 31, 0
6, 120832, Note_on_c, 4, 38, 96
6, 121344, Note_off_c, 4, 38, 0
6, 121344, Note_on_c, 4, 38, 96
6, 121856, Note_off_c, 4, 38, 0
6, 121856, Note_on_c, 4, 38, 96
6, 122368, Note_off_c, 4, 38, 0
6, 122368, Note_on_c, 4, 37, 96
6, 122880, Note_off_c, 4, 37, 0
6, 122880, Note_on_c, 4, 35, 96
6, 123392, Note_off_c, 4, 35, 0
6, 123392, Note_on_c, 4, 33, 96
6, 123904, Note_off_c, 4, 33, 0
6, 123904, Note_on_c, 4, 31, 96
6, 124416, Note_off_c, 4, 31, 0
6, 124416, Note_on_c, 4, 33, 96
6, 124672, Note_off_c, 4, 33, 0
6, 124672, Note_on_c, 4, 31, 96
6, 124928, Note_off_c, 4, 31, 0
6, 124928, Note_on_c, 4, 30, 96
6, 125440, Note_off_c, 4, 30, 0
6, 125440, Note_on_c, 4, 26, 96
6, 125952, Note_off_c, 4, 26, 0
6, 125952, Note_on_c, 4, 28, 96
6, 126464, Note_off_c, 4, 28, 0
6, 126464, Note_on_c, 4, 30, 96
6, 126976, Note_off_c, 4, 30, 0
6, 126976, Note_on_c, 4, 31, 96
6, 127488, Note_off_c, 4, 31, 0
6, 127488, Note_on_c, 4, 33, 96
6, 128000, Note_off_c, 4, 33, 0
6, 128000, Note_on_c, 4, 35, 96
6, 128512, Note_off_c, 4, 35, 0
6, 128512, Note_on_c, 4, 37, 96
6, 129024, Note_off_c, 4, 37, 0
6, 129024, Note_on_c, 4, 38, 96
6, 130048, Note_off_c, 4, 38, 0
6, 135680, Note_on_c, 4, 36, 96
6, 136192, Note_off_c, 4, 36, 0
6, 136192, Note_on_c, 4, 38, 96
6, 136704, Note_off_c, 4, 38, 0
6, 136704, Note_on_c, 4, 36, 96
6, 137216, Note_off_c, 4, 36, 0
6, 137216, Note_on_c, 4, 35, 96
6, 137728, Note_off_c, 4, 35, 0
6, 137728, Note_on_c, 4, 33, 96
6, 137984, Note_off_c, 4, 33, 0
6, 137984, Note_on_c, 4, 35, 96
6, 138240, Note_off_c, 4, 35, 0
6, 138240, Note_on_c, 4, 36, 96
6, 138752, Note_off_c, 4, 36, 0
6, 138752, Note_on_c, 4, 35, 96
6, 139264, Note_off_c, 4, 35, 0
6, 139264, Note_on_c, 4, 33, 96
6, 140288, Note_off_c, 4, 33, 0
6, 140288, Note_on_c, 4, 35, 96
6, 141312, Note_off_c, 4, 35, 0
6, 141312, Note_on_c, 4, 28, 96
6, 142336, Note_off_c, 4, 28, 0
6, 142336, Note_on_c, 4, 40, 96
6, 142848, Note_off_c, 4, 40, 0
6, 142848, Note_on_c, 4, 38, 96
6, 143360, Note_off_c, 4, 38, 0
6, 143360, Note_on_c, 4, 37, 96
6, 144384, Note_off_c, 4, 37, 0
6, 144384, Note_on_c, 4, 30, 96
6, 144896, Note_off_c, 4, 30, 0
6, 144896, Note_on_c, 4, 42, 96
6, 145408, Note_off_c, 4, 42, 0
6, 145408, Note_on_c, 4, 35, 96
6, 145920, Note_off_c, 4, 35, 0
6, 145920, Note_on_c, 4, 33, 96
6, 146432, Note_off_c, 4, 33, 0
6, 146432, Note_on_c, 4, 31, 96
6, 146944, Note_off_c, 4, 31, 0
6, 146944, Note_on_c, 4, 33, 96
6, 147456, Note_off_c, 4, 33, 0
6, 147456, Note_on_c, 4, 28, 96
6, 148480, Note_off_c, 4, 28, 0
6, 148480, Note_on_c, 4, 35, 96
6, 149504, Note_off_c, 4, 35, 0
6, 149504, Note_on_c, 4, 33, 96
6, 150528, Note_off_c, 4, 33, 0
6, 152576, Note_on_c, 4, 35, 96
6, 153600, Note_off_c, 4, 35, 0
6, 153600, Note_on_c, 4, 33, 96
6, 154624, Note_off_c, 4, 33, 0
6, 154624, Note_on_c, 4, 35, 96
6, 155648, Note_off_c, 4, 35, 0
6, 155648, Note_on_c, 4, 37, 96
6, 156672, Note_off_c, 4, 37, 0
6, 156672, Note_on_c, 4, 38, 96
6, 157184, Note_off_c, 4, 38, 0
6, 157184, Note_on_c, 4, 37, 96
6, 157696, Note_off_c, 4, 37, 0
6, 157696, Note_on_c, 4, 35, 96
6, 158720, Note_off_c, 4, 35, 0
6, 158720, Note_on_c, 4, 37, 96
6, 159744, Note_off_c, 4, 37, 0
6, 159744, Note_on_c, 4, 38, 96
6, 160256, Note_off_c, 4, 38, 0
6, 160256, Note_on_c, 4, 39, 96
6, 160768, Note_off_c, 4, 39, 0
6, 160768, Note_on_c, 4, 40, 96
6, 162816, Note_off_c, 4, 40, 0
6, 162816, Note_on_c, 4, 39, 96
6, 163840, Note_off_c, 4, 39, 0
6, 163840, Note_on_c, 4, 40, 96
6, 164352, Note_off_c, 4, 40, 0
6, 164352, Note_on_c, 4, 40, 96
6, 164864, Note_off_c, 4, 40, 0
6, 164864, Note_on_c, 4, 40, 96
6, 165376, Note_off_c, 4, 40, 0
6, 165376, Note_on_c, 4, 38, 96
6, 165888, Note_off_c, 4, 38, 0
6, 165888, Note_on_c, 4, 36, 96
6, 166400, Note_off_c, 4, 36, 0
6, 166400, Note_on_c, 4, 38, 96
6, 166656, Note_off_c, 4, 38, 0
6, 166656, Note_on_c, 4, 36, 96
6, 166912, Note_off_c, 4, 36, 0
6, 166912, Note_on_c, 4, 35, 96
6, 167424, Note_off_c, 4, 35, 0
6, 167424, Note_on_c, 4, 33, 96
6, 167936, Note_off_c, 4, 33, 0
6, 167936, Note_on_c, 4, 31, 96
6, 168448, Note_off_c, 4, 31, 0
6, 168448, Note_on_c, 4, 35, 96
6, 168960, Note_off_c, 4, 35, 0
6, 168960, Note_on_c, 4, 37, 96
6, 169472, Note_off_c, 4, 37, 0
6, 169472, Note_on_c, 4, 39, 96
6, 169984, Note_off_c, 4, 39, 0
6, 169984, Note_on_c, 4, 28, 96
6, 170496, Note_off_c, 4, 28, 0
6, 170496, Note_on_c, 4, 40, 96
6, 171008, Note_off_c, 4, 40, 0
6, 171008, Note_on_c, 4, 38, 96
6, 171520, Note_off_c, 4, 38, 0
6, 171520, Note_on_c, 4, 36, 96
6, 172032, Note_off_c, 4, 36, 0
6, 172032, Note_on_c, 4, 35, 96
6, 172544, Note_off_c, 4, 35, 0
6, 172544, Note_on_c, 4, 33, 96
6, 172800, Note_off_c, 4, 33, 0
6, 172800, Note_on_c, 4, 35, 96
6, 173056, Note_off_c, 4, 35, 0
6, 173056, Note_on_c, 4, 36, 96
6, 173568, Note_off_c, 4, 36, 0
6, 173568, Note_on_c, 4, 31, 96
6, 174080, Note_off_c, 4, 31, 0
6, 174080, Note_on_c, 4, 28, 96
6, 174592, Note_off_c, 4, 28, 0
6, 174592, Note_on_c, 4, 30, 96
6, 175104, Note_off_c, 4, 30, 0
6, 175104, Note_on_c, 4, 31, 96
6, 175616, Note_off_c, 4, 31, 0
6, 175616, Note_on_c, 4, 33, 96
6, 176128, Note_off_c, 4, 33, 0
6, 176128, Note_on_c, 4, 35, 96
6, 176640, Note_off_c, 4, 35, 0
6, 176640, Note_on_c, 4, 31, 96
6, 177152, Note_off_c, 4, 31, 0
6, 177152, Note_on_c, 4, 33, 96
6, 177664, Note_off_c, 4, 33, 0
6, 177664, Note_on_c, 4, 35, 96
6, 178176, Note_off_c, 4, 35, 0
6, 178176, Note_on_c, 4, 36, 96
6, 182272, Note_off_c, 4, 36, 0
6, 182272, Note_on_c, 4, 31, 96
6, 184320, Note_off_c, 4, 31, 0
6, 184320, End_track
0, 0, End_of_file
