0, 0, Header, 1, 17, 240
1, 0, Start_track
1, 0, Sequencer_specific, 10, 0, 0, 91, 35, 1, 0, 5, 6, 42, 0
1, 0, Title_t, "J. S. Bach - Orchestral Suite No.3 in D Major BWV1068"
1, 0, Instrument_name_t, "Conductor Track"
1, 0, SMPTE_offset, 96, 0, 3, 0, 0
1, 0, MIDI_port, 0
1, 0, Marker_t, "Originally sequenced 3 Dec 1999"
1, 0, Tempo, 344827
1, 0, Key_signature, 2, "major"
1, 0, Time_signature, 1, 3, 12, 8
1, 120, Time_signature, 6, 3, 36, 8
1, 102000, Tempo, 344827
1, 102045, Tempo, 348837
1, 102090, Tempo, 350877
1, 102135, Tempo, 355029
1, 102180, Tempo, 359281
1, 102225, Tempo, 363636
1, 102270, Tempo, 365853
1, 102315, Tempo, 370370
1, 102360, Tempo, 375000
1, 102405, Tempo, 379746
1, 102450, Tempo, 382165
1, 102495, Tempo, 387096
1, 102540, Tempo, 392156
1, 102585, Tempo, 397350
1, 102630, Tempo, 400000
1, 102675, Tempo, 405405
1, 102720, Tempo, 410958
1, 102765, Tempo, 416666
1, 102810, Tempo, 419580
1, 102855, Tempo, 425531
1, 102900, Tempo, 431654
1, 102945, Tempo, 437956
1, 102990, Tempo, 441176
1, 103035, Tempo, 447761
1, 103080, Tempo, 454545
1, 103560, Tempo, 1000000
1, 103800, Tempo, 1000000
1, 103800, End_track
2, 0, Start_track
2, 0, Title_t, "5th Movement - Gigue"
2, 0, MIDI_port, 0
2, 0, End_track
3, 0, Start_track
3, 0, Title_t, "Sequenced by D. L. Viens 31 Dec 1999"
3, 0, MIDI_port, 0
3, 0, End_track
4, 0, Start_track
4, 0, Title_t, "dlviens@empire.net"
4, 0, MIDI_port, 0
4, 0, End_track
5, 0, Start_track
5, 0, MIDI_port, 0
5, 0, End_track
6, 0, Start_track
6, 0, Title_t, "Trumpet I in D"
6, 0, MIDI_port, 0
6, 0, Program_c, 0, 56
6, 0, Control_c, 0, 10, 54
6, 0, Control_c, 0, 11, 127
6, 0, Control_c, 0, 7, 96
6, 0, Note_on_c, 0, 74, 76
6, 104, Note_on_c, 0, 74, 0
6, 120, Note_on_c, 0, 81, 76
6, 464, Note_on_c, 0, 81, 0
6, 480, Note_on_c, 0, 83, 76
6, 824, Note_on_c, 0, 83, 0
6, 840, Note_on_c, 0, 81, 76
6, 1304, Note_on_c, 0, 81, 0
6, 1320, Note_on_c, 0, 83, 76
6, 1424, Note_on_c, 0, 83, 0
6, 1440, Note_on_c, 0, 85, 76
6, 1544, Note_on_c, 0, 85, 0
6, 1560, Note_on_c, 0, 86, 76
6, 1664, Note_on_c, 0, 86, 0
6, 1680, Note_on_c, 0, 85, 76
6, 1784, Note_on_c, 0, 85, 0
6, 1800, Note_on_c, 0, 83, 76
6, 1904, Note_on_c, 0, 83, 0
6, 1920, Note_on_c, 0, 81, 76
6, 2024, Note_on_c, 0, 81, 0
6, 2040, Note_on_c, 0, 83, 76
6, 2144, Note_on_c, 0, 83, 0
6, 2160, Note_on_c, 0, 79, 76
6, 2264, Note_on_c, 0, 79, 0
6, 2280, Note_on_c, 0, 78, 76
6, 2384, Note_on_c, 0, 78, 0
6, 2400, Note_on_c, 0, 76, 76
6, 2504, Note_on_c, 0, 76, 0
6, 2520, Note_on_c, 0, 78, 76
6, 2624, Note_on_c, 0, 78, 0
6, 2640, Note_on_c, 0, 74, 76
6, 2879, Note_on_c, 0, 74, 0
6, 5760, Note_on_c, 0, 76, 76
6, 5864, Note_on_c, 0, 76, 0
6, 5880, Note_on_c, 0, 81, 76
6, 5999, Note_on_c, 0, 81, 0
6, 6000, Note_on_c, 0, 79, 76
6, 6119, Note_on_c, 0, 79, 0
6, 6120, Note_on_c, 0, 81, 76
6, 6224, Note_on_c, 0, 81, 0
6, 6240, Note_on_c, 0, 81, 76
6, 6359, Note_on_c, 0, 81, 0
6, 6360, Note_on_c, 0, 79, 76
6, 6479, Note_on_c, 0, 79, 0
6, 6480, Note_on_c, 0, 81, 76
6, 6584, Note_on_c, 0, 81, 0
6, 6600, Note_on_c, 0, 81, 76
6, 7064, Note_on_c, 0, 81, 0
6, 7080, Note_on_c, 0, 83, 76
6, 7184, Note_on_c, 0, 83, 0
6, 7200, Note_on_c, 0, 81, 76
6, 7304, Note_on_c, 0, 81, 0
6, 7320, Note_on_c, 0, 79, 76
6, 7439, Note_on_c, 0, 79, 0
6, 7440, Note_on_c, 0, 78, 76
6, 7559, Note_on_c, 0, 78, 0
6, 7560, Note_on_c, 0, 79, 76
6, 7664, Note_on_c, 0, 79, 0
6, 7680, Note_on_c, 0, 79, 76
6, 7799, Note_on_c, 0, 79, 0
6, 7800, Note_on_c, 0, 78, 76
6, 7919, Note_on_c, 0, 78, 0
6, 7920, Note_on_c, 0, 79, 76
6, 8024, Note_on_c, 0, 79, 0
6, 8040, Note_on_c, 0, 79, 76
6, 8504, Note_on_c, 0, 79, 0
6, 8520, Note_on_c, 0, 81, 76
6, 8624, Note_on_c, 0, 81, 0
6, 8640, Note_on_c, 0, 79, 76
6, 8744, Note_on_c, 0, 79, 0
6, 8760, Note_on_c, 0, 78, 76
6, 8879, Note_on_c, 0, 78, 0
6, 15840, Note_on_c, 0, 86, 76
6, 15944, Note_on_c, 0, 86, 0
6, 15960, Note_on_c, 0, 85, 76
6, 16064, Note_on_c, 0, 85, 0
6, 16080, Note_on_c, 0, 83, 76
6, 16184, Note_on_c, 0, 83, 0
6, 16200, Note_on_c, 0, 81, 76
6, 16304, Note_on_c, 0, 81, 0
6, 16320, Note_on_c, 0, 83, 76
6, 16424, Note_on_c, 0, 83, 0
6, 16440, Note_on_c, 0, 81, 76
6, 16544, Note_on_c, 0, 81, 0
6, 16560, Note_on_c, 0, 80, 76
6, 16664, Note_on_c, 0, 80, 0
6, 16680, Note_on_c, 0, 81, 76
6, 17264, Note_on_c, 0, 81, 0
6, 17280, Note_on_c, 0, 74, 76
6, 17384, Note_on_c, 0, 74, 0
6, 17400, Note_on_c, 0, 81, 76
6, 17744, Note_on_c, 0, 81, 0
6, 17760, Note_on_c, 0, 83, 76
6, 18104, Note_on_c, 0, 83, 0
6, 18120, Note_on_c, 0, 81, 76
6, 18584, Note_on_c, 0, 81, 0
6, 18600, Note_on_c, 0, 83, 76
6, 18704, Note_on_c, 0, 83, 0
6, 18720, Note_on_c, 0, 85, 76
6, 18824, Note_on_c, 0, 85, 0
6, 18840, Note_on_c, 0, 86, 76
6, 18944, Note_on_c, 0, 86, 0
6, 18960, Note_on_c, 0, 85, 76
6, 19064, Note_on_c, 0, 85, 0
6, 19080, Note_on_c, 0, 83, 76
6, 19184, Note_on_c, 0, 83, 0
6, 19200, Note_on_c, 0, 81, 76
6, 19304, Note_on_c, 0, 81, 0
6, 19320, Note_on_c, 0, 83, 76
6, 19424, Note_on_c, 0, 83, 0
6, 19440, Note_on_c, 0, 79, 76
6, 19544, Note_on_c, 0, 79, 0
6, 19560, Note_on_c, 0, 78, 76
6, 19664, Note_on_c, 0, 78, 0
6, 19680, Note_on_c, 0, 76, 76
6, 19784, Note_on_c, 0, 76, 0
6, 19800, Note_on_c, 0, 78, 76
6, 19904, Note_on_c, 0, 78, 0
6, 19920, Note_on_c, 0, 74, 76
6, 20159, Note_on_c, 0, 74, 0
6, 23040, Note_on_c, 0, 76, 76
6, 23144, Note_on_c, 0, 76, 0
6, 23160, Note_on_c, 0, 81, 76
6, 23279, Note_on_c, 0, 81, 0
6, 23280, Note_on_c, 0, 79, 76
6, 23399, Note_on_c, 0, 79, 0
6, 23400, Note_on_c, 0, 81, 76
6, 23504, Note_on_c, 0, 81, 0
6, 23520, Note_on_c, 0, 81, 76
6, 23639, Note_on_c, 0, 81, 0
6, 23640, Note_on_c, 0, 79, 76
6, 23759, Note_on_c, 0, 79, 0
6, 23760, Note_on_c, 0, 81, 76
6, 23864, Note_on_c, 0, 81, 0
6, 23880, Note_on_c, 0, 81, 76
6, 24344, Note_on_c, 0, 81, 0
6, 24360, Note_on_c, 0, 83, 76
6, 24464, Note_on_c, 0, 83, 0
6, 24480, Note_on_c, 0, 81, 76
6, 24584, Note_on_c, 0, 81, 0
6, 24600, Note_on_c, 0, 79, 76
6, 24719, Note_on_c, 0, 79, 0
6, 24720, Note_on_c, 0, 78, 76
6, 24839, Note_on_c, 0, 78, 0
6, 24840, Note_on_c, 0, 79, 76
6, 24944, Note_on_c, 0, 79, 0
6, 24960, Note_on_c, 0, 79, 76
6, 25079, Note_on_c, 0, 79, 0
6, 25080, Note_on_c, 0, 78, 76
6, 25199, Note_on_c, 0, 78, 0
6, 25200, Note_on_c, 0, 79, 76
6, 25304, Note_on_c, 0, 79, 0
6, 25320, Note_on_c, 0, 79, 76
6, 25784, Note_on_c, 0, 79, 0
6, 25800, Note_on_c, 0, 81, 76
6, 25904, Note_on_c, 0, 81, 0
6, 25920, Note_on_c, 0, 79, 76
6, 26024, Note_on_c, 0, 79, 0
6, 26040, Note_on_c, 0, 78, 76
6, 26159, Note_on_c, 0, 78, 0
6, 33120, Note_on_c, 0, 86, 76
6, 33224, Note_on_c, 0, 86, 0
6, 33240, Note_on_c, 0, 85, 76
6, 33344, Note_on_c, 0, 85, 0
6, 33360, Note_on_c, 0, 83, 76
6, 33464, Note_on_c, 0, 83, 0
6, 33480, Note_on_c, 0, 81, 76
6, 33584, Note_on_c, 0, 81, 0
6, 33600, Note_on_c, 0, 83, 76
6, 33704, Note_on_c, 0, 83, 0
6, 33720, Note_on_c, 0, 81, 76
6, 33824, Note_on_c, 0, 81, 0
6, 33840, Note_on_c, 0, 80, 76
6, 33944, Note_on_c, 0, 80, 0
6, 33960, Note_on_c, 0, 81, 76
6, 34544, Note_on_c, 0, 81, 0
6, 34560, Note_on_c, 0, 69, 76
6, 34664, Note_on_c, 0, 69, 0
6, 34680, Note_on_c, 0, 76, 76
6, 35024, Note_on_c, 0, 76, 0
6, 35040, Note_on_c, 0, 78, 76
6, 35384, Note_on_c, 0, 78, 0
6, 35400, Note_on_c, 0, 76, 76
6, 35999, Note_on_c, 0, 76, 0
6, 37440, Note_on_c, 0, 66, 76
6, 37544, Note_on_c, 0, 66, 0
6, 37560, Note_on_c, 0, 78, 76
6, 37904, Note_on_c, 0, 78, 0
6, 37920, Note_on_c, 0, 79, 76
6, 38264, Note_on_c, 0, 79, 0
6, 38280, Note_on_c, 0, 78, 76
6, 38879, Note_on_c, 0, 78, 0
6, 40320, Note_on_c, 0, 66, 76
6, 40424, Note_on_c, 0, 66, 0
6, 40440, Note_on_c, 0, 74, 76
6, 40559, Note_on_c, 0, 74, 0
6, 40560, Note_on_c, 0, 76, 76
6, 40679, Note_on_c, 0, 76, 0
6, 40680, Note_on_c, 0, 74, 76
6, 40784, Note_on_c, 0, 74, 0
6, 40800, Note_on_c, 0, 74, 76
6, 40919, Note_on_c, 0, 74, 0
6, 40920, Note_on_c, 0, 76, 76
6, 41039, Note_on_c, 0, 76, 0
6, 41040, Note_on_c, 0, 74, 76
6, 41144, Note_on_c, 0, 74, 0
6, 41160, Note_on_c, 0, 74, 76
6, 41624, Note_on_c, 0, 74, 0
6, 41640, Note_on_c, 0, 76, 76
6, 41744, Note_on_c, 0, 76, 0
6, 41760, Note_on_c, 0, 74, 76
6, 41864, Note_on_c, 0, 74, 0
6, 41880, Note_on_c, 0, 76, 76
6, 42104, Note_on_c, 0, 76, 0
6, 42120, Note_on_c, 0, 81, 76
6, 42224, Note_on_c, 0, 81, 0
6, 42240, Note_on_c, 0, 81, 76
6, 42464, Note_on_c, 0, 81, 0
6, 42480, Note_on_c, 0, 80, 76
6, 42584, Note_on_c, 0, 80, 0
6, 42600, Note_on_c, 0, 81, 76
6, 42824, Note_on_c, 0, 81, 0
6, 42840, Note_on_c, 0, 76, 76
6, 42944, Note_on_c, 0, 76, 0
6, 42960, Note_on_c, 0, 76, 76
6, 43184, Note_on_c, 0, 76, 0
6, 43200, Note_on_c, 0, 69, 76
6, 43304, Note_on_c, 0, 69, 0
6, 43320, Note_on_c, 0, 79, 76
6, 43439, Note_on_c, 0, 79, 0
6, 43440, Note_on_c, 0, 78, 76
6, 43559, Note_on_c, 0, 78, 0
6, 43560, Note_on_c, 0, 79, 76
6, 43664, Note_on_c, 0, 79, 0
6, 43680, Note_on_c, 0, 79, 76
6, 43799, Note_on_c, 0, 79, 0
6, 43800, Note_on_c, 0, 78, 76
6, 43919, Note_on_c, 0, 78, 0
6, 43920, Note_on_c, 0, 79, 76
6, 44024, Note_on_c, 0, 79, 0
6, 44040, Note_on_c, 0, 79, 76
6, 44504, Note_on_c, 0, 79, 0
6, 44520, Note_on_c, 0, 81, 76
6, 44624, Note_on_c, 0, 81, 0
6, 44640, Note_on_c, 0, 79, 76
6, 44744, Note_on_c, 0, 79, 0
6, 44760, Note_on_c, 0, 81, 76
6, 44879, Note_on_c, 0, 81, 0
6, 44880, Note_on_c, 0, 79, 76
6, 44999, Note_on_c, 0, 79, 0
6, 45000, Note_on_c, 0, 78, 76
6, 45104, Note_on_c, 0, 78, 0
6, 45120, Note_on_c, 0, 76, 76
6, 45239, Note_on_c, 0, 76, 0
6, 45240, Note_on_c, 0, 78, 76
6, 45359, Note_on_c, 0, 78, 0
6, 45360, Note_on_c, 0, 79, 76
6, 45464, Note_on_c, 0, 79, 0
6, 45480, Note_on_c, 0, 78, 76
6, 45599, Note_on_c, 0, 78, 0
6, 45600, Note_on_c, 0, 76, 76
6, 45719, Note_on_c, 0, 76, 0
6, 45720, Note_on_c, 0, 78, 76
6, 45824, Note_on_c, 0, 78, 0
6, 45840, Note_on_c, 0, 74, 76
6, 46079, Note_on_c, 0, 74, 0
6, 51840, Note_on_c, 0, 74, 76
6, 51944, Note_on_c, 0, 74, 0
6, 51960, Note_on_c, 0, 81, 76
6, 52304, Note_on_c, 0, 81, 0
6, 52320, Note_on_c, 0, 83, 76
6, 52664, Note_on_c, 0, 83, 0
6, 52680, Note_on_c, 0, 84, 76
6, 53144, Note_on_c, 0, 84, 0
6, 53160, Note_on_c, 0, 83, 76
6, 53264, Note_on_c, 0, 83, 0
6, 53280, Note_on_c, 0, 81, 76
6, 53384, Note_on_c, 0, 81, 0
6, 53400, Note_on_c, 0, 83, 76
6, 53519, Note_on_c, 0, 83, 0
6, 53520, Note_on_c, 0, 81, 76
6, 53639, Note_on_c, 0, 81, 0
6, 53640, Note_on_c, 0, 79, 76
6, 53744, Note_on_c, 0, 79, 0
6, 53760, Note_on_c, 0, 81, 76
6, 53879, Note_on_c, 0, 81, 0
6, 53880, Note_on_c, 0, 79, 76
6, 53999, Note_on_c, 0, 79, 0
6, 54000, Note_on_c, 0, 78, 76
6, 54104, Note_on_c, 0, 78, 0
6, 54120, Note_on_c, 0, 79, 76
6, 54359, Note_on_c, 0, 79, 0
6, 62280, Note_on_c, 0, 81, 76
6, 62384, Note_on_c, 0, 81, 0
6, 62400, Note_on_c, 0, 83, 76
6, 62519, Note_on_c, 0, 83, 0
6, 62520, Note_on_c, 0, 85, 76
6, 62639, Note_on_c, 0, 85, 0
6, 62640, Note_on_c, 0, 86, 76
6, 62744, Note_on_c, 0, 86, 0
6, 62760, Note_on_c, 0, 81, 76
6, 62879, Note_on_c, 0, 81, 0
6, 62880, Note_on_c, 0, 83, 76
6, 62999, Note_on_c, 0, 83, 0
6, 63000, Note_on_c, 0, 81, 76
6, 63104, Note_on_c, 0, 81, 0
6, 63120, Note_on_c, 0, 79, 76
6, 63239, Note_on_c, 0, 79, 0
6, 63240, Note_on_c, 0, 78, 76
6, 63359, Note_on_c, 0, 78, 0
6, 63360, Note_on_c, 0, 76, 76
6, 63464, Note_on_c, 0, 76, 0
6, 63480, Note_on_c, 0, 74, 76
6, 63719, Note_on_c, 0, 74, 0
6, 67680, Note_on_c, 0, 85, 76
6, 67784, Note_on_c, 0, 85, 0
6, 67800, Note_on_c, 0, 86, 76
6, 68024, Note_on_c, 0, 86, 0
6, 68040, Note_on_c, 0, 81, 76
6, 68144, Note_on_c, 0, 81, 0
6, 68160, Note_on_c, 0, 78, 76
6, 68279, Note_on_c, 0, 78, 0
6, 68280, Note_on_c, 0, 76, 76
6, 68399, Note_on_c, 0, 76, 0
6, 68400, Note_on_c, 0, 74, 76
6, 68504, Note_on_c, 0, 74, 0
6, 68520, Note_on_c, 0, 74, 76
6, 69104, Note_on_c, 0, 74, 0
6, 69120, Note_on_c, 0, 69, 76
6, 69224, Note_on_c, 0, 69, 0
6, 69240, Note_on_c, 0, 76, 76
6, 69584, Note_on_c, 0, 76, 0
6, 69600, Note_on_c, 0, 78, 76
6, 69944, Note_on_c, 0, 78, 0
6, 69960, Note_on_c, 0, 76, 76
6, 70559, Note_on_c, 0, 76, 0
6, 72000, Note_on_c, 0, 66, 76
6, 72104, Note_on_c, 0, 66, 0
6, 72120, Note_on_c, 0, 78, 76
6, 72464, Note_on_c, 0, 78, 0
6, 72480, Note_on_c, 0, 79, 76
6, 72824, Note_on_c, 0, 79, 0
6, 72840, Note_on_c, 0, 78, 76
6, 73439, Note_on_c, 0, 78, 0
6, 74880, Note_on_c, 0, 66, 76
6, 74984, Note_on_c, 0, 66, 0
6, 75000, Note_on_c, 0, 74, 76
6, 75119, Note_on_c, 0, 74, 0
6, 75120, Note_on_c, 0, 76, 76
6, 75239, Note_on_c, 0, 76, 0
6, 75240, Note_on_c, 0, 74, 76
6, 75344, Note_on_c, 0, 74, 0
6, 75360, Note_on_c, 0, 74, 76
6, 75479, Note_on_c, 0, 74, 0
6, 75480, Note_on_c, 0, 76, 76
6, 75599, Note_on_c, 0, 76, 0
6, 75600, Note_on_c, 0, 74, 76
6, 75704, Note_on_c, 0, 74, 0
6, 75720, Note_on_c, 0, 74, 76
6, 76184, Note_on_c, 0, 74, 0
6, 76200, Note_on_c, 0, 76, 76
6, 76304, Note_on_c, 0, 76, 0
6, 76320, Note_on_c, 0, 74, 76
6, 76424, Note_on_c, 0, 74, 0
6, 76440, Note_on_c, 0, 76, 76
6, 76664, Note_on_c, 0, 76, 0
6, 76680, Note_on_c, 0, 81, 76
6, 76784, Note_on_c, 0, 81, 0
6, 76800, Note_on_c, 0, 81, 76
6, 77024, Note_on_c, 0, 81, 0
6, 77040, Note_on_c, 0, 80, 76
6, 77144, Note_on_c, 0, 80, 0
6, 77160, Note_on_c, 0, 81, 76
6, 77384, Note_on_c, 0, 81, 0
6, 77400, Note_on_c, 0, 76, 76
6, 77504, Note_on_c, 0, 76, 0
6, 77520, Note_on_c, 0, 76, 76
6, 77744, Note_on_c, 0, 76, 0
6, 77760, Note_on_c, 0, 69, 76
6, 77864, Note_on_c, 0, 69, 0
6, 77880, Note_on_c, 0, 79, 76
6, 77999, Note_on_c, 0, 79, 0
6, 78000, Note_on_c, 0, 78, 76
6, 78119, Note_on_c, 0, 78, 0
6, 78120, Note_on_c, 0, 79, 76
6, 78224, Note_on_c, 0, 79, 0
6, 78240, Note_on_c, 0, 79, 76
6, 78359, Note_on_c, 0, 79, 0
6, 78360, Note_on_c, 0, 78, 76
6, 78479, Note_on_c, 0, 78, 0
6, 78480, Note_on_c, 0, 79, 76
6, 78584, Note_on_c, 0, 79, 0
6, 78600, Note_on_c, 0, 79, 76
6, 79064, Note_on_c, 0, 79, 0
6, 79080, Note_on_c, 0, 81, 76
6, 79184, Note_on_c, 0, 81, 0
6, 79200, Note_on_c, 0, 79, 76
6, 79304, Note_on_c, 0, 79, 0
6, 79320, Note_on_c, 0, 81, 76
6, 79439, Note_on_c, 0, 81, 0
6, 79440, Note_on_c, 0, 79, 76
6, 79559, Note_on_c, 0, 79, 0
6, 79560, Note_on_c, 0, 78, 76
6, 79664, Note_on_c, 0, 78, 0
6, 79680, Note_on_c, 0, 76, 76
6, 79799, Note_on_c, 0, 76, 0
6, 79800, Note_on_c, 0, 78, 76
6, 79919, Note_on_c, 0, 78, 0
6, 79920, Note_on_c, 0, 79, 76
6, 80024, Note_on_c, 0, 79, 0
6, 80040, Note_on_c, 0, 78, 76
6, 80159, Note_on_c, 0, 78, 0
6, 80160, Note_on_c, 0, 76, 76
6, 80279, Note_on_c, 0, 76, 0
6, 80280, Note_on_c, 0, 78, 76
6, 80384, Note_on_c, 0, 78, 0
6, 80400, Note_on_c, 0, 74, 76
6, 80639, Note_on_c, 0, 74, 0
6, 86400, Note_on_c, 0, 74, 76
6, 86504, Note_on_c, 0, 74, 0
6, 86520, Note_on_c, 0, 81, 76
6, 86864, Note_on_c, 0, 81, 0
6, 86880, Note_on_c, 0, 83, 76
6, 87224, Note_on_c, 0, 83, 0
6, 87240, Note_on_c, 0, 84, 76
6, 87704, Note_on_c, 0, 84, 0
6, 87720, Note_on_c, 0, 83, 76
6, 87824, Note_on_c, 0, 83, 0
6, 87840, Note_on_c, 0, 81, 76
6, 87944, Note_on_c, 0, 81, 0
6, 87960, Note_on_c, 0, 83, 76
6, 88079, Note_on_c, 0, 83, 0
6, 88080, Note_on_c, 0, 81, 76
6, 88199, Note_on_c, 0, 81, 0
6, 88200, Note_on_c, 0, 79, 76
6, 88304, Note_on_c, 0, 79, 0
6, 88320, Note_on_c, 0, 81, 76
6, 88439, Note_on_c, 0, 81, 0
6, 88440, Note_on_c, 0, 79, 76
6, 88559, Note_on_c, 0, 79, 0
6, 88560, Note_on_c, 0, 78, 76
6, 88664, Note_on_c, 0, 78, 0
6, 88680, Note_on_c, 0, 79, 76
6, 88919, Note_on_c, 0, 79, 0
6, 96840, Note_on_c, 0, 81, 76
6, 96944, Note_on_c, 0, 81, 0
6, 96960, Note_on_c, 0, 83, 76
6, 97079, Note_on_c, 0, 83, 0
6, 97080, Note_on_c, 0, 85, 76
6, 97199, Note_on_c, 0, 85, 0
6, 97200, Note_on_c, 0, 86, 76
6, 97304, Note_on_c, 0, 86, 0
6, 97320, Note_on_c, 0, 81, 76
6, 97439, Note_on_c, 0, 81, 0
6, 97440, Note_on_c, 0, 83, 76
6, 97559, Note_on_c, 0, 83, 0
6, 97560, Note_on_c, 0, 81, 76
6, 97664, Note_on_c, 0, 81, 0
6, 97680, Note_on_c, 0, 79, 76
6, 97799, Note_on_c, 0, 79, 0
6, 97800, Note_on_c, 0, 78, 76
6, 97919, Note_on_c, 0, 78, 0
6, 97920, Note_on_c, 0, 76, 76
6, 98024, Note_on_c, 0, 76, 0
6, 98040, Note_on_c, 0, 74, 76
6, 98279, Note_on_c, 0, 74, 0
6, 102240, Note_on_c, 0, 85, 76
6, 102344, Note_on_c, 0, 85, 0
6, 102360, Note_on_c, 0, 86, 76
6, 102584, Note_on_c, 0, 86, 0
6, 102600, Note_on_c, 0, 81, 76
6, 102704, Note_on_c, 0, 81, 0
6, 102720, Note_on_c, 0, 78, 76
6, 102839, Note_on_c, 0, 78, 0
6, 102840, Note_on_c, 0, 76, 76
6, 102959, Note_on_c, 0, 76, 0
6, 102960, Note_on_c, 0, 74, 76
6, 103064, Note_on_c, 0, 74, 0
6, 103080, Note_on_c, 0, 74, 76
6, 103679, Note_on_c, 0, 74, 0
6, 103679, End_track
7, 0, Start_track
7, 0, Title_t, "Trumpet II in D"
7, 0, MIDI_port, 0
7, 0, Program_c, 1, 56
7, 0, Control_c, 1, 10, 64
7, 0, Control_c, 1, 11, 127
7, 0, Control_c, 1, 7, 96
7, 0, Note_on_c, 1, 69, 76
7, 104, Note_on_c, 1, 69, 0
7, 120, Note_on_c, 1, 74, 76
7, 464, Note_on_c, 1, 74, 0
7, 480, Note_on_c, 1, 79, 76
7, 824, Note_on_c, 1, 79, 0
7, 840, Note_on_c, 1, 74, 76
7, 1424, Note_on_c, 1, 74, 0
7, 1440, Note_on_c, 1, 79, 76
7, 1544, Note_on_c, 1, 79, 0
7, 1560, Note_on_c, 1, 81, 76
7, 1784, Note_on_c, 1, 81, 0
7, 1800, Note_on_c, 1, 79, 76
7, 1904, Note_on_c, 1, 79, 0
7, 1920, Note_on_c, 1, 78, 76
7, 2144, Note_on_c, 1, 78, 0
7, 2160, Note_on_c, 1, 76, 76
7, 2264, Note_on_c, 1, 76, 0
7, 2280, Note_on_c, 1, 74, 76
7, 2504, Note_on_c, 1, 74, 0
7, 2520, Note_on_c, 1, 69, 76
7, 2624, Note_on_c, 1, 69, 0
7, 2640, Note_on_c, 1, 69, 76
7, 2879, Note_on_c, 1, 69, 0
7, 5760, Note_on_c, 1, 76, 76
7, 5864, Note_on_c, 1, 76, 0
7, 5880, Note_on_c, 1, 78, 76
7, 5999, Note_on_c, 1, 78, 0
7, 6000, Note_on_c, 1, 76, 76
7, 6119, Note_on_c, 1, 76, 0
7, 6120, Note_on_c, 1, 78, 76
7, 6224, Note_on_c, 1, 78, 0
7, 6240, Note_on_c, 1, 78, 76
7, 6359, Note_on_c, 1, 78, 0
7, 6360, Note_on_c, 1, 76, 76
7, 6479, Note_on_c, 1, 76, 0
7, 6480, Note_on_c, 1, 78, 76
7, 6584, Note_on_c, 1, 78, 0
7, 6600, Note_on_c, 1, 78, 76
7, 7064, Note_on_c, 1, 78, 0
7, 7080, Note_on_c, 1, 79, 76
7, 7184, Note_on_c, 1, 79, 0
7, 7200, Note_on_c, 1, 78, 76
7, 7304, Note_on_c, 1, 78, 0
7, 7320, Note_on_c, 1, 76, 76
7, 7439, Note_on_c, 1, 76, 0
7, 7440, Note_on_c, 1, 74, 76
7, 7559, Note_on_c, 1, 74, 0
7, 7560, Note_on_c, 1, 76, 76
7, 7664, Note_on_c, 1, 76, 0
7, 7680, Note_on_c, 1, 76, 76
7, 7799, Note_on_c, 1, 76, 0
7, 7800, Note_on_c, 1, 74, 76
7, 7919, Note_on_c, 1, 74, 0
7, 7920, Note_on_c, 1, 76, 76
7, 8024, Note_on_c, 1, 76, 0
7, 8040, Note_on_c, 1, 76, 76
7, 8504, Note_on_c, 1, 76, 0
7, 8520, Note_on_c, 1, 78, 76
7, 8624, Note_on_c, 1, 78, 0
7, 8640, Note_on_c, 1, 76, 76
7, 8744, Note_on_c, 1, 76, 0
7, 8760, Note_on_c, 1, 74, 76
7, 8879, Note_on_c, 1, 74, 0
7, 15840, Note_on_c, 1, 83, 76
7, 15944, Note_on_c, 1, 83, 0
7, 15960, Note_on_c, 1, 81, 76
7, 16184, Note_on_c, 1, 81, 0
7, 16200, Note_on_c, 1, 76, 76
7, 16304, Note_on_c, 1, 76, 0
7, 16320, Note_on_c, 1, 76, 76
7, 16544, Note_on_c, 1, 76, 0
7, 16560, Note_on_c, 1, 76, 76
7, 16664, Note_on_c, 1, 76, 0
7, 16680, Note_on_c, 1, 76, 76
7, 17264, Note_on_c, 1, 76, 0
7, 17280, Note_on_c, 1, 69, 76
7, 17384, Note_on_c, 1, 69, 0
7, 17400, Note_on_c, 1, 74, 76
7, 17744, Note_on_c, 1, 74, 0
7, 17760, Note_on_c, 1, 79, 76
7, 18104, Note_on_c, 1, 79, 0
7, 18120, Note_on_c, 1, 74, 76
7, 18704, Note_on_c, 1, 74, 0
7, 18720, Note_on_c, 1, 79, 76
7, 18824, Note_on_c, 1, 79, 0
7, 18840, Note_on_c, 1, 81, 76
7, 19064, Note_on_c, 1, 81, 0
7, 19080, Note_on_c, 1, 79, 76
7, 19184, Note_on_c, 1, 79, 0
7, 19200, Note_on_c, 1, 78, 76
7, 19424, Note_on_c, 1, 78, 0
7, 19440, Note_on_c, 1, 76, 76
7, 19544, Note_on_c, 1, 76, 0
7, 19560, Note_on_c, 1, 74, 76
7, 19784, Note_on_c, 1, 74, 0
7, 19800, Note_on_c, 1, 69, 76
7, 19904, Note_on_c, 1, 69, 0
7, 19920, Note_on_c, 1, 69, 76
7, 20159, Note_on_c, 1, 69, 0
7, 23040, Note_on_c, 1, 76, 76
7, 23144, Note_on_c, 1, 76, 0
7, 23160, Note_on_c, 1, 78, 76
7, 23279, Note_on_c, 1, 78, 0
7, 23280, Note_on_c, 1, 76, 76
7, 23399, Note_on_c, 1, 76, 0
7, 23400, Note_on_c, 1, 78, 76
7, 23504, Note_on_c, 1, 78, 0
7, 23520, Note_on_c, 1, 78, 76
7, 23639, Note_on_c, 1, 78, 0
7, 23640, Note_on_c, 1, 76, 76
7, 23759, Note_on_c, 1, 76, 0
7, 23760, Note_on_c, 1, 78, 76
7, 23864, Note_on_c, 1, 78, 0
7, 23880, Note_on_c, 1, 78, 76
7, 24344, Note_on_c, 1, 78, 0
7, 24360, Note_on_c, 1, 79, 76
7, 24464, Note_on_c, 1, 79, 0
7, 24480, Note_on_c, 1, 78, 76
7, 24584, Note_on_c, 1, 78, 0
7, 24600, Note_on_c, 1, 76, 76
7, 24719, Note_on_c, 1, 76, 0
7, 24720, Note_on_c, 1, 74, 76
7, 24839, Note_on_c, 1, 74, 0
7, 24840, Note_on_c, 1, 76, 76
7, 24944, Note_on_c, 1, 76, 0
7, 24960, Note_on_c, 1, 76, 76
7, 25079, Note_on_c, 1, 76, 0
7, 25080, Note_on_c, 1, 74, 76
7, 25199, Note_on_c, 1, 74, 0
7, 25200, Note_on_c, 1, 76, 76
7, 25304, Note_on_c, 1, 76, 0
7, 25320, Note_on_c, 1, 76, 76
7, 25784, Note_on_c, 1, 76, 0
7, 25800, Note_on_c, 1, 78, 76
7, 25904, Note_on_c, 1, 78, 0
7, 25920, Note_on_c, 1, 76, 76
7, 26024, Note_on_c, 1, 76, 0
7, 26040, Note_on_c, 1, 74, 76
7, 26159, Note_on_c, 1, 74, 0
7, 33120, Note_on_c, 1, 83, 76
7, 33224, Note_on_c, 1, 83, 0
7, 33240, Note_on_c, 1, 81, 76
7, 33464, Note_on_c, 1, 81, 0
7, 33480, Note_on_c, 1, 76, 76
7, 33584, Note_on_c, 1, 76, 0
7, 33600, Note_on_c, 1, 76, 76
7, 33824, Note_on_c, 1, 76, 0
7, 33840, Note_on_c, 1, 76, 76
7, 33944, Note_on_c, 1, 76, 0
7, 33960, Note_on_c, 1, 76, 76
7, 34544, Note_on_c, 1, 76, 0
7, 34560, Note_on_c, 1, 69, 76
7, 34664, Note_on_c, 1, 69, 0
7, 34680, Note_on_c, 1, 69, 76
7, 34784, Note_on_c, 1, 69, 0
7, 34800, Note_on_c, 1, 66, 76
7, 34904, Note_on_c, 1, 66, 0
7, 34920, Note_on_c, 1, 69, 76
7, 35024, Note_on_c, 1, 69, 0
7, 35040, Note_on_c, 1, 74, 76
7, 35144, Note_on_c, 1, 74, 0
7, 35160, Note_on_c, 1, 69, 76
7, 35264, Note_on_c, 1, 69, 0
7, 35280, Note_on_c, 1, 74, 76
7, 35384, Note_on_c, 1, 74, 0
7, 35400, Note_on_c, 1, 69, 76
7, 35999, Note_on_c, 1, 69, 0
7, 37440, Note_on_c, 1, 76, 76
7, 37544, Note_on_c, 1, 76, 0
7, 37560, Note_on_c, 1, 74, 76
7, 37904, Note_on_c, 1, 74, 0
7, 37920, Note_on_c, 1, 76, 76
7, 38264, Note_on_c, 1, 76, 0
7, 38280, Note_on_c, 1, 74, 76
7, 38879, Note_on_c, 1, 74, 0
7, 41760, Note_on_c, 1, 80, 76
7, 41864, Note_on_c, 1, 80, 0
7, 41880, Note_on_c, 1, 81, 76
7, 42104, Note_on_c, 1, 81, 0
7, 42120, Note_on_c, 1, 78, 76
7, 42224, Note_on_c, 1, 78, 0
7, 42240, Note_on_c, 1, 78, 76
7, 42464, Note_on_c, 1, 78, 0
7, 42480, Note_on_c, 1, 76, 76
7, 42584, Note_on_c, 1, 76, 0
7, 42600, Note_on_c, 1, 76, 76
7, 42824, Note_on_c, 1, 76, 0
7, 42840, Note_on_c, 1, 69, 76
7, 42944, Note_on_c, 1, 69, 0
7, 42960, Note_on_c, 1, 69, 76
7, 43199, Note_on_c, 1, 69, 0
7, 44640, Note_on_c, 1, 76, 76
7, 44744, Note_on_c, 1, 76, 0
7, 44760, Note_on_c, 1, 76, 76
7, 44984, Note_on_c, 1, 76, 0
7, 45000, Note_on_c, 1, 74, 76
7, 45104, Note_on_c, 1, 74, 0
7, 45120, Note_on_c, 1, 74, 76
7, 45344, Note_on_c, 1, 74, 0
7, 45360, Note_on_c, 1, 69, 76
7, 45464, Note_on_c, 1, 69, 0
7, 45480, Note_on_c, 1, 69, 76
7, 45704, Note_on_c, 1, 69, 0
7, 45720, Note_on_c, 1, 74, 76
7, 45824, Note_on_c, 1, 74, 0
7, 45840, Note_on_c, 1, 69, 76
7, 46079, Note_on_c, 1, 69, 0
7, 51840, Note_on_c, 1, 69, 76
7, 51944, Note_on_c, 1, 69, 0
7, 51960, Note_on_c, 1, 74, 76
7, 52304, Note_on_c, 1, 74, 0
7, 52320, Note_on_c, 1, 79, 76
7, 52664, Note_on_c, 1, 79, 0
7, 52680, Note_on_c, 1, 78, 76
7, 53264, Note_on_c, 1, 78, 0
7, 53280, Note_on_c, 1, 78, 76
7, 53384, Note_on_c, 1, 78, 0
7, 53400, Note_on_c, 1, 79, 76
7, 53639, Note_on_c, 1, 79, 0
7, 54000, Note_on_c, 1, 74, 76
7, 54104, Note_on_c, 1, 74, 0
7, 54120, Note_on_c, 1, 74, 76
7, 54359, Note_on_c, 1, 74, 0
7, 62280, Note_on_c, 1, 78, 76
7, 62384, Note_on_c, 1, 78, 0
7, 62400, Note_on_c, 1, 74, 76
7, 62519, Note_on_c, 1, 74, 0
7, 62520, Note_on_c, 1, 76, 76
7, 62639, Note_on_c, 1, 76, 0
7, 62640, Note_on_c, 1, 78, 76
7, 62744, Note_on_c, 1, 78, 0
7, 62760, Note_on_c, 1, 76, 76
7, 62984, Note_on_c, 1, 76, 0
7, 63000, Note_on_c, 1, 78, 76
7, 63104, Note_on_c, 1, 78, 0
7, 63120, Note_on_c, 1, 76, 76
7, 63239, Note_on_c, 1, 76, 0
7, 63240, Note_on_c, 1, 74, 76
7, 63359, Note_on_c, 1, 74, 0
7, 63360, Note_on_c, 1, 69, 76
7, 63464, Note_on_c, 1, 69, 0
7, 63480, Note_on_c, 1, 66, 76
7, 63719, Note_on_c, 1, 66, 0
7, 67680, Note_on_c, 1, 76, 76
7, 67784, Note_on_c, 1, 76, 0
7, 67800, Note_on_c, 1, 81, 76
7, 67919, Note_on_c, 1, 81, 0
7, 67920, Note_on_c, 1, 79, 76
7, 68039, Note_on_c, 1, 79, 0
7, 68040, Note_on_c, 1, 78, 76
7, 68144, Note_on_c, 1, 78, 0
7, 68160, Note_on_c, 1, 78, 76
7, 68264, Note_on_c, 1, 78, 0
7, 68280, Note_on_c, 1, 79, 76
7, 68384, Note_on_c, 1, 79, 0
7, 68400, Note_on_c, 1, 81, 76
7, 68504, Note_on_c, 1, 81, 0
7, 68520, Note_on_c, 1, 78, 76
7, 68549, Note_on_c, 1, 78, 0
7, 68550, Note_on_c, 1, 79, 76
7, 68579, Note_on_c, 1, 79, 0
7, 68580, Note_on_c, 1, 78, 76
7, 68609, Note_on_c, 1, 78, 0
7, 68610, Note_on_c, 1, 79, 76
7, 68639, Note_on_c, 1, 79, 0
7, 68640, Note_on_c, 1, 78, 76
7, 68669, Note_on_c, 1, 78, 0
7, 68670, Note_on_c, 1, 79, 76
7, 68699, Note_on_c, 1, 79, 0
7, 68700, Note_on_c, 1, 78, 76
7, 68729, Note_on_c, 1, 78, 0
7, 68730, Note_on_c, 1, 79, 76
7, 68759, Note_on_c, 1, 79, 0
7, 68760, Note_on_c, 1, 78, 76
7, 68789, Note_on_c, 1, 78, 0
7, 68790, Note_on_c, 1, 79, 76
7, 68819, Note_on_c, 1, 79, 0
7, 68820, Note_on_c, 1, 76, 76
7, 68849, Note_on_c, 1, 76, 0
7, 68850, Note_on_c, 1, 78, 76
7, 69104, Note_on_c, 1, 78, 0
7, 69120, Note_on_c, 1, 69, 76
7, 69224, Note_on_c, 1, 69, 0
7, 69240, Note_on_c, 1, 69, 76
7, 69344, Note_on_c, 1, 69, 0
7, 69360, Note_on_c, 1, 66, 76
7, 69464, Note_on_c, 1, 66, 0
7, 69480, Note_on_c, 1, 69, 76
7, 69584, Note_on_c, 1, 69, 0
7, 69600, Note_on_c, 1, 74, 76
7, 69704, Note_on_c, 1, 74, 0
7, 69720, Note_on_c, 1, 69, 76
7, 69824, Note_on_c, 1, 69, 0
7, 69840, Note_on_c, 1, 74, 76
7, 69944, Note_on_c, 1, 74, 0
7, 69960, Note_on_c, 1, 69, 76
7, 70559, Note_on_c, 1, 69, 0
7, 72000, Note_on_c, 1, 76, 76
7, 72104, Note_on_c, 1, 76, 0
7, 72120, Note_on_c, 1, 74, 76
7, 72464, Note_on_c, 1, 74, 0
7, 72480, Note_on_c, 1, 76, 76
7, 72824, Note_on_c, 1, 76, 0
7, 72840, Note_on_c, 1, 74, 76
7, 73439, Note_on_c, 1, 74, 0
7, 76320, Note_on_c, 1, 80, 76
7, 76424, Note_on_c, 1, 80, 0
7, 76440, Note_on_c, 1, 81, 76
7, 76664, Note_on_c, 1, 81, 0
7, 76680, Note_on_c, 1, 78, 76
7, 76784, Note_on_c, 1, 78, 0
7, 76800, Note_on_c, 1, 78, 76
7, 77024, Note_on_c, 1, 78, 0
7, 77040, Note_on_c, 1, 76, 76
7, 77144, Note_on_c, 1, 76, 0
7, 77160, Note_on_c, 1, 76, 76
7, 77384, Note_on_c, 1, 76, 0
7, 77400, Note_on_c, 1, 69, 76
7, 77504, Note_on_c, 1, 69, 0
7, 77520, Note_on_c, 1, 69, 76
7, 77759, Note_on_c, 1, 69, 0
7, 79200, Note_on_c, 1, 76, 76
7, 79304, Note_on_c, 1, 76, 0
7, 79320, Note_on_c, 1, 76, 76
7, 79544, Note_on_c, 1, 76, 0
7, 79560, Note_on_c, 1, 74, 76
7, 79664, Note_on_c, 1, 74, 0
7, 79680, Note_on_c, 1, 74, 76
7, 79904, Note_on_c, 1, 74, 0
7, 79920, Note_on_c, 1, 69, 76
7, 80024, Note_on_c, 1, 69, 0
7, 80040, Note_on_c, 1, 69, 76
7, 80264, Note_on_c, 1, 69, 0
7, 80280, Note_on_c, 1, 74, 76
7, 80384, Note_on_c, 1, 74, 0
7, 80400, Note_on_c, 1, 69, 76
7, 80639, Note_on_c, 1, 69, 0
7, 86400, Note_on_c, 1, 69, 76
7, 86504, Note_on_c, 1, 69, 0
7, 86520, Note_on_c, 1, 74, 76
7, 86864, Note_on_c, 1, 74, 0
7, 86880, Note_on_c, 1, 79, 76
7, 87224, Note_on_c, 1, 79, 0
7, 87240, Note_on_c, 1, 78, 76
7, 87824, Note_on_c, 1, 78, 0
7, 87840, Note_on_c, 1, 78, 76
7, 87944, Note_on_c, 1, 78, 0
7, 87960, Note_on_c, 1, 79, 76
7, 88199, Note_on_c, 1, 79, 0
7, 88560, Note_on_c, 1, 74, 76
7, 88664, Note_on_c, 1, 74, 0
7, 88680, Note_on_c, 1, 74, 76
7, 88919, Note_on_c, 1, 74, 0
7, 96840, Note_on_c, 1, 78, 76
7, 96944, Note_on_c, 1, 78, 0
7, 96960, Note_on_c, 1, 74, 76
7, 97079, Note_on_c, 1, 74, 0
7, 97080, Note_on_c, 1, 76, 76
7, 97199, Note_on_c, 1, 76, 0
7, 97200, Note_on_c, 1, 78, 76
7, 97304, Note_on_c, 1, 78, 0
7, 97320, Note_on_c, 1, 76, 76
7, 97544, Note_on_c, 1, 76, 0
7, 97560, Note_on_c, 1, 78, 76
7, 97664, Note_on_c, 1, 78, 0
7, 97680, Note_on_c, 1, 76, 76
7, 97799, Note_on_c, 1, 76, 0
7, 97800, Note_on_c, 1, 74, 76
7, 97919, Note_on_c, 1, 74, 0
7, 97920, Note_on_c, 1, 69, 76
7, 98024, Note_on_c, 1, 69, 0
7, 98040, Note_on_c, 1, 66, 76
7, 98279, Note_on_c, 1, 66, 0
7, 102240, Note_on_c, 1, 76, 76
7, 102344, Note_on_c, 1, 76, 0
7, 102360, Note_on_c, 1, 81, 76
7, 102479, Note_on_c, 1, 81, 0
7, 102480, Note_on_c, 1, 79, 76
7, 102599, Note_on_c, 1, 79, 0
7, 102600, Note_on_c, 1, 78, 76
7, 102704, Note_on_c, 1, 78, 0
7, 102720, Note_on_c, 1, 78, 76
7, 102824, Note_on_c, 1, 78, 0
7, 102840, Note_on_c, 1, 79, 76
7, 102944, Note_on_c, 1, 79, 0
7, 102960, Note_on_c, 1, 81, 76
7, 103064, Note_on_c, 1, 81, 0
7, 103080, Note_on_c, 1, 78, 76
7, 103109, Note_on_c, 1, 78, 0
7, 103110, Note_on_c, 1, 79, 76
7, 103139, Note_on_c, 1, 79, 0
7, 103140, Note_on_c, 1, 78, 76
7, 103169, Note_on_c, 1, 78, 0
7, 103170, Note_on_c, 1, 79, 76
7, 103199, Note_on_c, 1, 79, 0
7, 103200, Note_on_c, 1, 78, 76
7, 103229, Note_on_c, 1, 78, 0
7, 103230, Note_on_c, 1, 79, 76
7, 103259, Note_on_c, 1, 79, 0
7, 103260, Note_on_c, 1, 78, 76
7, 103289, Note_on_c, 1, 78, 0
7, 103290, Note_on_c, 1, 79, 76
7, 103319, Note_on_c, 1, 79, 0
7, 103320, Note_on_c, 1, 78, 76
7, 103349, Note_on_c, 1, 78, 0
7, 103350, Note_on_c, 1, 79, 76
7, 103379, Note_on_c, 1, 79, 0
7, 103380, Note_on_c, 1, 76, 76
7, 103409, Note_on_c, 1, 76, 0
7, 103410, Note_on_c, 1, 78, 76
7, 103679, Note_on_c, 1, 78, 0
7, 103679, End_track
8, 0, Start_track
8, 0, Title_t, "Trumpet III in D"
8, 0, MIDI_port, 0
8, 0, Program_c, 2, 56
8, 0, Control_c, 2, 10, 74
8, 0, Control_c, 2, 11, 127
8, 0, Control_c, 2, 7, 96
8, 0, Note_on_c, 2, 66, 76
8, 104, Note_on_c, 2, 66, 0
8, 120, Note_on_c, 2, 66, 76
8, 464, Note_on_c, 2, 66, 0
8, 480, Note_on_c, 2, 62, 76
8, 824, Note_on_c, 2, 62, 0
8, 840, Note_on_c, 2, 66, 76
8, 1424, Note_on_c, 2, 66, 0
8, 1440, Note_on_c, 2, 69, 76
8, 1544, Note_on_c, 2, 69, 0
8, 1560, Note_on_c, 2, 62, 76
8, 1784, Note_on_c, 2, 62, 0
8, 1800, Note_on_c, 2, 74, 76
8, 1904, Note_on_c, 2, 74, 0
8, 1920, Note_on_c, 2, 74, 76
8, 2144, Note_on_c, 2, 74, 0
8, 2160, Note_on_c, 2, 69, 76
8, 2264, Note_on_c, 2, 69, 0
8, 2280, Note_on_c, 2, 69, 76
8, 2504, Note_on_c, 2, 69, 0
8, 2520, Note_on_c, 2, 66, 76
8, 2624, Note_on_c, 2, 66, 0
8, 2640, Note_on_c, 2, 66, 76
8, 2879, Note_on_c, 2, 66, 0
8, 15840, Note_on_c, 2, 76, 76
8, 15944, Note_on_c, 2, 76, 0
8, 15960, Note_on_c, 2, 76, 76
8, 16184, Note_on_c, 2, 76, 0
8, 16200, Note_on_c, 2, 76, 76
8, 16304, Note_on_c, 2, 76, 0
8, 16320, Note_on_c, 2, 74, 76
8, 16544, Note_on_c, 2, 74, 0
8, 16560, Note_on_c, 2, 74, 76
8, 16664, Note_on_c, 2, 74, 0
8, 16680, Note_on_c, 2, 69, 76
8, 17264, Note_on_c, 2, 69, 0
8, 17280, Note_on_c, 2, 66, 76
8, 17384, Note_on_c, 2, 66, 0
8, 17400, Note_on_c, 2, 66, 76
8, 17744, Note_on_c, 2, 66, 0
8, 17760, Note_on_c, 2, 62, 76
8, 18104, Note_on_c, 2, 62, 0
8, 18120, Note_on_c, 2, 66, 76
8, 18704, Note_on_c, 2, 66, 0
8, 18720, Note_on_c, 2, 69, 76
8, 18824, Note_on_c, 2, 69, 0
8, 18840, Note_on_c, 2, 62, 76
8, 19064, Note_on_c, 2, 62, 0
8, 19080, Note_on_c, 2, 74, 76
8, 19184, Note_on_c, 2, 74, 0
8, 19200, Note_on_c, 2, 74, 76
8, 19424, Note_on_c, 2, 74, 0
8, 19440, Note_on_c, 2, 69, 76
8, 19544, Note_on_c, 2, 69, 0
8, 19560, Note_on_c, 2, 69, 76
8, 19784, Note_on_c, 2, 69, 0
8, 19800, Note_on_c, 2, 66, 76
8, 19904, Note_on_c, 2, 66, 0
8, 19920, Note_on_c, 2, 66, 76
8, 20159, Note_on_c, 2, 66, 0
8, 33120, Note_on_c, 2, 76, 76
8, 33224, Note_on_c, 2, 76, 0
8, 33240, Note_on_c, 2, 76, 76
8, 33464, Note_on_c, 2, 76, 0
8, 33480, Note_on_c, 2, 76, 76
8, 33584, Note_on_c, 2, 76, 0
8, 33600, Note_on_c, 2, 74, 76
8, 33824, Note_on_c, 2, 74, 0
8, 33840, Note_on_c, 2, 74, 76
8, 33944, Note_on_c, 2, 74, 0
8, 33960, Note_on_c, 2, 69, 76
8, 34544, Note_on_c, 2, 69, 0
8, 34560, Note_on_c, 2, 69, 76
8, 34664, Note_on_c, 2, 69, 0
8, 34680, Note_on_c, 2, 69, 76
8, 35024, Note_on_c, 2, 69, 0
8, 35040, Note_on_c, 2, 66, 76
8, 35144, Note_on_c, 2, 66, 0
8, 35160, Note_on_c, 2, 62, 76
8, 35264, Note_on_c, 2, 62, 0
8, 35280, Note_on_c, 2, 66, 76
8, 35384, Note_on_c, 2, 66, 0
8, 35400, Note_on_c, 2, 69, 76
8, 35999, Note_on_c, 2, 69, 0
8, 37440, Note_on_c, 2, 66, 76
8, 37544, Note_on_c, 2, 66, 0
8, 37560, Note_on_c, 2, 66, 76
8, 37799, Note_on_c, 2, 66, 0
8, 38280, Note_on_c, 2, 66, 76
8, 38879, Note_on_c, 2, 66, 0
8, 41760, Note_on_c, 2, 76, 76
8, 41864, Note_on_c, 2, 76, 0
8, 41880, Note_on_c, 2, 69, 76
8, 42104, Note_on_c, 2, 69, 0
8, 42120, Note_on_c, 2, 69, 76
8, 42224, Note_on_c, 2, 69, 0
8, 42240, Note_on_c, 2, 62, 76
8, 42479, Note_on_c, 2, 62, 0
8, 42600, Note_on_c, 2, 69, 76
8, 42824, Note_on_c, 2, 69, 0
8, 42840, Note_on_c, 2, 69, 76
8, 42944, Note_on_c, 2, 69, 0
8, 42960, Note_on_c, 2, 69, 76
8, 43199, Note_on_c, 2, 69, 0
8, 44640, Note_on_c, 2, 69, 76
8, 44744, Note_on_c, 2, 69, 0
8, 44760, Note_on_c, 2, 69, 76
8, 44984, Note_on_c, 2, 69, 0
8, 45000, Note_on_c, 2, 78, 76
8, 45104, Note_on_c, 2, 78, 0
8, 45120, Note_on_c, 2, 79, 76
8, 45344, Note_on_c, 2, 79, 0
8, 45360, Note_on_c, 2, 76, 76
8, 45464, Note_on_c, 2, 76, 0
8, 45480, Note_on_c, 2, 74, 76
8, 45704, Note_on_c, 2, 74, 0
8, 45720, Note_on_c, 2, 69, 76
8, 45824, Note_on_c, 2, 69, 0
8, 45840, Note_on_c, 2, 66, 76
8, 46079, Note_on_c, 2, 66, 0
8, 51840, Note_on_c, 2, 66, 76
8, 51944, Note_on_c, 2, 66, 0
8, 51960, Note_on_c, 2, 66, 76
8, 52304, Note_on_c, 2, 66, 0
8, 52320, Note_on_c, 2, 62, 76
8, 52664, Note_on_c, 2, 62, 0
8, 52680, Note_on_c, 2, 69, 76
8, 53264, Note_on_c, 2, 69, 0
8, 53280, Note_on_c, 2, 74, 76
8, 53384, Note_on_c, 2, 74, 0
8, 53400, Note_on_c, 2, 74, 76
8, 53639, Note_on_c, 2, 74, 0
8, 54000, Note_on_c, 2, 62, 76
8, 54104, Note_on_c, 2, 62, 0
8, 54120, Note_on_c, 2, 62, 76
8, 54359, Note_on_c, 2, 62, 0
8, 62280, Note_on_c, 2, 74, 76
8, 62384, Note_on_c, 2, 74, 0
8, 62400, Note_on_c, 2, 62, 76
8, 62624, Note_on_c, 2, 62, 0
8, 62640, Note_on_c, 2, 62, 76
8, 62744, Note_on_c, 2, 62, 0
8, 62760, Note_on_c, 2, 69, 76
8, 62999, Note_on_c, 2, 69, 0
8, 63360, Note_on_c, 2, 69, 76
8, 63464, Note_on_c, 2, 69, 0
8, 63480, Note_on_c, 2, 62, 76
8, 63719, Note_on_c, 2, 62, 0
8, 67680, Note_on_c, 2, 69, 76
8, 67784, Note_on_c, 2, 69, 0
8, 67800, Note_on_c, 2, 66, 76
8, 67904, Note_on_c, 2, 66, 0
8, 67920, Note_on_c, 2, 69, 76
8, 68024, Note_on_c, 2, 69, 0
8, 68040, Note_on_c, 2, 74, 76
8, 68144, Note_on_c, 2, 74, 0
8, 68160, Note_on_c, 2, 74, 76
8, 68384, Note_on_c, 2, 74, 0
8, 68400, Note_on_c, 2, 69, 76
8, 68504, Note_on_c, 2, 69, 0
8, 68520, Note_on_c, 2, 69, 76
8, 69104, Note_on_c, 2, 69, 0
8, 69120, Note_on_c, 2, 69, 76
8, 69224, Note_on_c, 2, 69, 0
8, 69240, Note_on_c, 2, 69, 76
8, 69584, Note_on_c, 2, 69, 0
8, 69600, Note_on_c, 2, 66, 76
8, 69704, Note_on_c, 2, 66, 0
8, 69720, Note_on_c, 2, 62, 76
8, 69824, Note_on_c, 2, 62, 0
8, 69840, Note_on_c, 2, 66, 76
8, 69944, Note_on_c, 2, 66, 0
8, 69960, Note_on_c, 2, 69, 76
8, 70559, Note_on_c, 2, 69, 0
8, 72000, Note_on_c, 2, 66, 76
8, 72104, Note_on_c, 2, 66, 0
8, 72120, Note_on_c, 2, 66, 76
8, 72359, Note_on_c, 2, 66, 0
8, 72840, Note_on_c, 2, 66, 76
8, 73439, Note_on_c, 2, 66, 0
8, 76320, Note_on_c, 2, 76, 76
8, 76424, Note_on_c, 2, 76, 0
8, 76440, Note_on_c, 2, 69, 76
8, 76664, Note_on_c, 2, 69, 0
8, 76680, Note_on_c, 2, 69, 76
8, 76784, Note_on_c, 2, 69, 0
8, 76800, Note_on_c, 2, 62, 76
8, 77039, Note_on_c, 2, 62, 0
8, 77160, Note_on_c, 2, 69, 76
8, 77384, Note_on_c, 2, 69, 0
8, 77400, Note_on_c, 2, 69, 76
8, 77504, Note_on_c, 2, 69, 0
8, 77520, Note_on_c, 2, 69, 76
8, 77759, Note_on_c, 2, 69, 0
8, 79200, Note_on_c, 2, 69, 76
8, 79304, Note_on_c, 2, 69, 0
8, 79320, Note_on_c, 2, 69, 76
8, 79544, Note_on_c, 2, 69, 0
8, 79560, Note_on_c, 2, 78, 76
8, 79664, Note_on_c, 2, 78, 0
8, 79680, Note_on_c, 2, 79, 76
8, 79904, Note_on_c, 2, 79, 0
8, 79920, Note_on_c, 2, 76, 76
8, 80024, Note_on_c, 2, 76, 0
8, 80040, Note_on_c, 2, 74, 76
8, 80264, Note_on_c, 2, 74, 0
8, 80280, Note_on_c, 2, 69, 76
8, 80384, Note_on_c, 2, 69, 0
8, 80400, Note_on_c, 2, 66, 76
8, 80639, Note_on_c, 2, 66, 0
8, 86400, Note_on_c, 2, 66, 76
8, 86504, Note_on_c, 2, 66, 0
8, 86520, Note_on_c, 2, 66, 76
8, 86864, Note_on_c, 2, 66, 0
8, 86880, Note_on_c, 2, 62, 76
8, 87224, Note_on_c, 2, 62, 0
8, 87240, Note_on_c, 2, 69, 76
8, 87824, Note_on_c, 2, 69, 0
8, 87840, Note_on_c, 2, 74, 76
8, 87944, Note_on_c, 2, 74, 0
8, 87960, Note_on_c, 2, 74, 76
8, 88199, Note_on_c, 2, 74, 0
8, 88560, Note_on_c, 2, 62, 76
8, 88664, Note_on_c, 2, 62, 0
8, 88680, Note_on_c, 2, 62, 76
8, 88919, Note_on_c, 2, 62, 0
8, 96840, Note_on_c, 2, 74, 76
8, 96944, Note_on_c, 2, 74, 0
8, 96960, Note_on_c, 2, 62, 76
8, 97184, Note_on_c, 2, 62, 0
8, 97200, Note_on_c, 2, 62, 76
8, 97304, Note_on_c, 2, 62, 0
8, 97320, Note_on_c, 2, 69, 76
8, 97559, Note_on_c, 2, 69, 0
8, 97920, Note_on_c, 2, 69, 76
8, 98024, Note_on_c, 2, 69, 0
8, 98040, Note_on_c, 2, 62, 76
8, 98279, Note_on_c, 2, 62, 0
8, 102240, Note_on_c, 2, 69, 76
8, 102344, Note_on_c, 2, 69, 0
8, 102360, Note_on_c, 2, 66, 76
8, 102464, Note_on_c, 2, 66, 0
8, 102480, Note_on_c, 2, 69, 76
8, 102584, Note_on_c, 2, 69, 0
8, 102600, Note_on_c, 2, 74, 76
8, 102704, Note_on_c, 2, 74, 0
8, 102720, Note_on_c, 2, 74, 76
8, 102944, Note_on_c, 2, 74, 0
8, 102960, Note_on_c, 2, 69, 76
8, 103064, Note_on_c, 2, 69, 0
8, 103080, Note_on_c, 2, 69, 76
8, 103679, Note_on_c, 2, 69, 0
8, 103679, End_track
9, 0, Start_track
9, 0, Title_t, "Timpani"
9, 0, MIDI_port, 0
9, 0, Program_c, 3, 47
9, 0, Control_c, 3, 10, 25
9, 0, Control_c, 3, 11, 127
9, 0, Control_c, 3, 7, 96
9, 0, Note_on_c, 3, 50, 76
9, 119, Note_on_c, 3, 50, 0
9, 120, Note_on_c, 3, 50, 72
9, 149, Note_on_c, 3, 50, 0
9, 150, Note_on_c, 3, 50, 76
9, 179, Note_on_c, 3, 50, 0
9, 180, Note_on_c, 3, 50, 73
9, 209, Note_on_c, 3, 50, 0
9, 210, Note_on_c, 3, 50, 77
9, 239, Note_on_c, 3, 50, 0
9, 240, Note_on_c, 3, 50, 76
9, 269, Note_on_c, 3, 50, 0
9, 270, Note_on_c, 3, 50, 75
9, 299, Note_on_c, 3, 50, 0
9, 300, Note_on_c, 3, 50, 74
9, 329, Note_on_c, 3, 50, 0
9, 330, Note_on_c, 3, 50, 78
9, 359, Note_on_c, 3, 50, 0
9, 360, Note_on_c, 3, 50, 77
9, 389, Note_on_c, 3, 50, 0
9, 390, Note_on_c, 3, 50, 76
9, 419, Note_on_c, 3, 50, 0
9, 420, Note_on_c, 3, 50, 73
9, 449, Note_on_c, 3, 50, 0
9, 450, Note_on_c, 3, 50, 77
9, 479, Note_on_c, 3, 50, 0
9, 480, Note_on_c, 3, 50, 76
9, 509, Note_on_c, 3, 50, 0
9, 510, Note_on_c, 3, 50, 76
9, 539, Note_on_c, 3, 50, 0
9, 540, Note_on_c, 3, 50, 74
9, 569, Note_on_c, 3, 50, 0
9, 570, Note_on_c, 3, 50, 72
9, 599, Note_on_c, 3, 50, 0
9, 600, Note_on_c, 3, 50, 72
9, 629, Note_on_c, 3, 50, 0
9, 630, Note_on_c, 3, 50, 74
9, 659, Note_on_c, 3, 50, 0
9, 660, Note_on_c, 3, 50, 73
9, 689, Note_on_c, 3, 50, 0
9, 690, Note_on_c, 3, 50, 73
9, 719, Note_on_c, 3, 50, 0
9, 720, Note_on_c, 3, 50, 78
9, 749, Note_on_c, 3, 50, 0
9, 750, Note_on_c, 3, 50, 75
9, 779, Note_on_c, 3, 50, 0
9, 780, Note_on_c, 3, 50, 72
9, 809, Note_on_c, 3, 50, 0
9, 810, Note_on_c, 3, 50, 72
9, 839, Note_on_c, 3, 50, 0
9, 840, Note_on_c, 3, 50, 76
9, 1439, Note_on_c, 3, 50, 0
9, 1440, Note_on_c, 3, 45, 76
9, 1559, Note_on_c, 3, 45, 0
9, 1560, Note_on_c, 3, 50, 76
9, 1799, Note_on_c, 3, 50, 0
9, 1800, Note_on_c, 3, 50, 76
9, 1919, Note_on_c, 3, 50, 0
9, 1920, Note_on_c, 3, 45, 76
9, 2159, Note_on_c, 3, 45, 0
9, 2160, Note_on_c, 3, 45, 76
9, 2279, Note_on_c, 3, 45, 0
9, 2280, Note_on_c, 3, 50, 76
9, 2519, Note_on_c, 3, 50, 0
9, 2520, Note_on_c, 3, 50, 76
9, 2639, Note_on_c, 3, 50, 0
9, 2640, Note_on_c, 3, 50, 76
9, 2879, Note_on_c, 3, 50, 0
9, 15840, Note_on_c, 3, 50, 76
9, 15959, Note_on_c, 3, 50, 0
9, 15960, Note_on_c, 3, 45, 76
9, 16199, Note_on_c, 3, 45, 0
9, 16200, Note_on_c, 3, 45, 76
9, 16319, Note_on_c, 3, 45, 0
9, 16320, Note_on_c, 3, 50, 76
9, 16559, Note_on_c, 3, 50, 0
9, 16560, Note_on_c, 3, 50, 76
9, 16679, Note_on_c, 3, 50, 0
9, 16680, Note_on_c, 3, 45, 76
9, 17279, Note_on_c, 3, 45, 0
9, 17280, Note_on_c, 3, 50, 76
9, 17399, Note_on_c, 3, 50, 0
9, 17400, Note_on_c, 3, 50, 72
9, 17429, Note_on_c, 3, 50, 0
9, 17430, Note_on_c, 3, 50, 75
9, 17459, Note_on_c, 3, 50, 0
9, 17460, Note_on_c, 3, 50, 76
9, 17489, Note_on_c, 3, 50, 0
9, 17490, Note_on_c, 3, 50, 76
9, 17519, Note_on_c, 3, 50, 0
9, 17520, Note_on_c, 3, 50, 76
9, 17549, Note_on_c, 3, 50, 0
9, 17550, Note_on_c, 3, 50, 76
9, 17579, Note_on_c, 3, 50, 0
9, 17580, Note_on_c, 3, 50, 73
9, 17609, Note_on_c, 3, 50, 0
9, 17610, Note_on_c, 3, 50, 76
9, 17639, Note_on_c, 3, 50, 0
9, 17640, Note_on_c, 3, 50, 75
9, 17669, Note_on_c, 3, 50, 0
9, 17670, Note_on_c, 3, 50, 74
9, 17699, Note_on_c, 3, 50, 0
9, 17700, Note_on_c, 3, 50, 72
9, 17729, Note_on_c, 3, 50, 0
9, 17730, Note_on_c, 3, 50, 76
9, 17759, Note_on_c, 3, 50, 0
9, 17760, Note_on_c, 3, 50, 77
9, 17789, Note_on_c, 3, 50, 0
9, 17790, Note_on_c, 3, 50, 77
9, 17819, Note_on_c, 3, 50, 0
9, 17820, Note_on_c, 3, 50, 76
9, 17849, Note_on_c, 3, 50, 0
9, 17850, Note_on_c, 3, 50, 74
9, 17879, Note_on_c, 3, 50, 0
9, 17880, Note_on_c, 3, 50, 78
9, 17909, Note_on_c, 3, 50, 0
9, 17910, Note_on_c, 3, 50, 76
9, 17939, Note_on_c, 3, 50, 0
9, 17940, Note_on_c, 3, 50, 78
9, 17969, Note_on_c, 3, 50, 0
9, 17970, Note_on_c, 3, 50, 78
9, 17999, Note_on_c, 3, 50, 0
9, 18000, Note_on_c, 3, 50, 76
9, 18029, Note_on_c, 3, 50, 0
9, 18030, Note_on_c, 3, 50, 73
9, 18059, Note_on_c, 3, 50, 0
9, 18060, Note_on_c, 3, 50, 75
9, 18089, Note_on_c, 3, 50, 0
9, 18090, Note_on_c, 3, 50, 73
9, 18119, Note_on_c, 3, 50, 0
9, 18120, Note_on_c, 3, 50, 76
9, 18719, Note_on_c, 3, 50, 0
9, 18720, Note_on_c, 3, 45, 76
9, 18839, Note_on_c, 3, 45, 0
9, 18840, Note_on_c, 3, 50, 76
9, 19079, Note_on_c, 3, 50, 0
9, 19080, Note_on_c, 3, 50, 76
9, 19199, Note_on_c, 3, 50, 0
9, 19200, Note_on_c, 3, 45, 76
9, 19439, Note_on_c, 3, 45, 0
9, 19440, Note_on_c, 3, 45, 76
9, 19559, Note_on_c, 3, 45, 0
9, 19560, Note_on_c, 3, 50, 76
9, 19799, Note_on_c, 3, 50, 0
9, 19800, Note_on_c, 3, 50, 76
9, 19919, Note_on_c, 3, 50, 0
9, 19920, Note_on_c, 3, 50, 76
9, 20159, Note_on_c, 3, 50, 0
9, 33120, Note_on_c, 3, 50, 76
9, 33239, Note_on_c, 3, 50, 0
9, 33240, Note_on_c, 3, 45, 76
9, 33479, Note_on_c, 3, 45, 0
9, 33480, Note_on_c, 3, 45, 76
9, 33599, Note_on_c, 3, 45, 0
9, 33600, Note_on_c, 3, 50, 76
9, 33839, Note_on_c, 3, 50, 0
9, 33840, Note_on_c, 3, 50, 76
9, 33959, Note_on_c, 3, 50, 0
9, 33960, Note_on_c, 3, 45, 76
9, 34559, Note_on_c, 3, 45, 0
9, 34560, Note_on_c, 3, 45, 76
9, 34679, Note_on_c, 3, 45, 0
9, 34680, Note_on_c, 3, 45, 76
9, 34709, Note_on_c, 3, 45, 0
9, 34710, Note_on_c, 3, 45, 76
9, 34739, Note_on_c, 3, 45, 0
9, 34740, Note_on_c, 3, 45, 76
9, 34769, Note_on_c, 3, 45, 0
9, 34770, Note_on_c, 3, 45, 76
9, 34799, Note_on_c, 3, 45, 0
9, 34800, Note_on_c, 3, 45, 76
9, 34829, Note_on_c, 3, 45, 0
9, 34830, Note_on_c, 3, 45, 76
9, 34859, Note_on_c, 3, 45, 0
9, 34860, Note_on_c, 3, 45, 76
9, 34889, Note_on_c, 3, 45, 0
9, 34890, Note_on_c, 3, 45, 76
9, 34919, Note_on_c, 3, 45, 0
9, 34920, Note_on_c, 3, 45, 76
9, 34949, Note_on_c, 3, 45, 0
9, 34950, Note_on_c, 3, 45, 76
9, 34979, Note_on_c, 3, 45, 0
9, 34980, Note_on_c, 3, 45, 76
9, 35009, Note_on_c, 3, 45, 0
9, 35010, Note_on_c, 3, 45, 76
9, 35039, Note_on_c, 3, 45, 0
9, 35040, Note_on_c, 3, 45, 76
9, 35069, Note_on_c, 3, 45, 0
9, 35070, Note_on_c, 3, 45, 76
9, 35099, Note_on_c, 3, 45, 0
9, 35100, Note_on_c, 3, 45, 76
9, 35129, Note_on_c, 3, 45, 0
9, 35130, Note_on_c, 3, 45, 76
9, 35159, Note_on_c, 3, 45, 0
9, 35160, Note_on_c, 3, 45, 76
9, 35189, Note_on_c, 3, 45, 0
9, 35190, Note_on_c, 3, 45, 76
9, 35219, Note_on_c, 3, 45, 0
9, 35220, Note_on_c, 3, 45, 76
9, 35249, Note_on_c, 3, 45, 0
9, 35250, Note_on_c, 3, 45, 76
9, 35279, Note_on_c, 3, 45, 0
9, 35280, Note_on_c, 3, 45, 76
9, 35309, Note_on_c, 3, 45, 0
9, 35310, Note_on_c, 3, 45, 76
9, 35339, Note_on_c, 3, 45, 0
9, 35340, Note_on_c, 3, 45, 76
9, 35369, Note_on_c, 3, 45, 0
9, 35370, Note_on_c, 3, 45, 76
9, 35399, Note_on_c, 3, 45, 0
9, 35400, Note_on_c, 3, 45, 76
9, 35759, Note_on_c, 3, 45, 0
9, 35760, Note_on_c, 3, 45, 76
9, 35999, Note_on_c, 3, 45, 0
9, 37560, Note_on_c, 3, 50, 76
9, 37799, Note_on_c, 3, 50, 0
9, 38280, Note_on_c, 3, 50, 76
9, 38879, Note_on_c, 3, 50, 0
9, 41760, Note_on_c, 3, 50, 76
9, 41879, Note_on_c, 3, 50, 0
9, 41880, Note_on_c, 3, 45, 76
9, 42119, Note_on_c, 3, 45, 0
9, 42120, Note_on_c, 3, 45, 76
9, 42239, Note_on_c, 3, 45, 0
9, 42240, Note_on_c, 3, 50, 76
9, 42479, Note_on_c, 3, 50, 0
9, 42600, Note_on_c, 3, 45, 76
9, 42839, Note_on_c, 3, 45, 0
9, 42840, Note_on_c, 3, 45, 76
9, 42959, Note_on_c, 3, 45, 0
9, 42960, Note_on_c, 3, 45, 76
9, 43199, Note_on_c, 3, 45, 0
9, 44640, Note_on_c, 3, 45, 76
9, 44759, Note_on_c, 3, 45, 0
9, 44760, Note_on_c, 3, 45, 76
9, 44999, Note_on_c, 3, 45, 0
9, 45000, Note_on_c, 3, 50, 76
9, 45119, Note_on_c, 3, 50, 0
9, 45120, Note_on_c, 3, 50, 76
9, 45359, Note_on_c, 3, 50, 0
9, 45360, Note_on_c, 3, 45, 76
9, 45479, Note_on_c, 3, 45, 0
9, 45480, Note_on_c, 3, 50, 76
9, 45719, Note_on_c, 3, 50, 0
9, 45720, Note_on_c, 3, 50, 76
9, 45839, Note_on_c, 3, 50, 0
9, 45840, Note_on_c, 3, 50, 76
9, 46079, Note_on_c, 3, 50, 0
9, 51840, Note_on_c, 3, 50, 76
9, 51959, Note_on_c, 3, 50, 0
9, 51960, Note_on_c, 3, 50, 76
9, 51989, Note_on_c, 3, 50, 0
9, 51990, Note_on_c, 3, 50, 76
9, 52019, Note_on_c, 3, 50, 0
9, 52020, Note_on_c, 3, 50, 76
9, 52049, Note_on_c, 3, 50, 0
9, 52050, Note_on_c, 3, 50, 76
9, 52079, Note_on_c, 3, 50, 0
9, 52080, Note_on_c, 3, 50, 76
9, 52109, Note_on_c, 3, 50, 0
9, 52110, Note_on_c, 3, 50, 76
9, 52139, Note_on_c, 3, 50, 0
9, 52140, Note_on_c, 3, 50, 76
9, 52169, Note_on_c, 3, 50, 0
9, 52170, Note_on_c, 3, 50, 76
9, 52199, Note_on_c, 3, 50, 0
9, 52200, Note_on_c, 3, 50, 76
9, 52229, Note_on_c, 3, 50, 0
9, 52230, Note_on_c, 3, 50, 76
9, 52259, Note_on_c, 3, 50, 0
9, 52260, Note_on_c, 3, 50, 76
9, 52289, Note_on_c, 3, 50, 0
9, 52290, Note_on_c, 3, 50, 76
9, 52319, Note_on_c, 3, 50, 0
9, 52320, Note_on_c, 3, 50, 76
9, 52349, Note_on_c, 3, 50, 0
9, 52350, Note_on_c, 3, 50, 76
9, 52379, Note_on_c, 3, 50, 0
9, 52380, Note_on_c, 3, 50, 76
9, 52409, Note_on_c, 3, 50, 0
9, 52410, Note_on_c, 3, 50, 76
9, 52439, Note_on_c, 3, 50, 0
9, 52440, Note_on_c, 3, 50, 76
9, 52469, Note_on_c, 3, 50, 0
9, 52470, Note_on_c, 3, 50, 76
9, 52499, Note_on_c, 3, 50, 0
9, 52500, Note_on_c, 3, 50, 76
9, 52529, Note_on_c, 3, 50, 0
9, 52530, Note_on_c, 3, 50, 76
9, 52559, Note_on_c, 3, 50, 0
9, 52560, Note_on_c, 3, 50, 76
9, 52589, Note_on_c, 3, 50, 0
9, 52590, Note_on_c, 3, 50, 76
9, 52619, Note_on_c, 3, 50, 0
9, 52620, Note_on_c, 3, 50, 76
9, 52649, Note_on_c, 3, 50, 0
9, 52650, Note_on_c, 3, 50, 76
9, 52679, Note_on_c, 3, 50, 0
9, 52680, Note_on_c, 3, 50, 76
9, 53039, Note_on_c, 3, 50, 0
9, 53040, Note_on_c, 3, 50, 76
9, 53279, Note_on_c, 3, 50, 0
9, 53280, Note_on_c, 3, 50, 76
9, 53399, Note_on_c, 3, 50, 0
9, 53400, Note_on_c, 3, 50, 76
9, 53639, Note_on_c, 3, 50, 0
9, 54000, Note_on_c, 3, 50, 76
9, 54119, Note_on_c, 3, 50, 0
9, 54120, Note_on_c, 3, 50, 76
9, 54359, Note_on_c, 3, 50, 0
9, 62280, Note_on_c, 3, 50, 76
9, 62399, Note_on_c, 3, 50, 0
9, 62400, Note_on_c, 3, 50, 76
9, 62639, Note_on_c, 3, 50, 0
9, 63000, Note_on_c, 3, 50, 76
9, 63119, Note_on_c, 3, 50, 0
9, 63120, Note_on_c, 3, 50, 76
9, 63359, Note_on_c, 3, 50, 0
9, 63360, Note_on_c, 3, 45, 76
9, 63479, Note_on_c, 3, 45, 0
9, 63480, Note_on_c, 3, 50, 76
9, 63719, Note_on_c, 3, 50, 0
9, 67680, Note_on_c, 3, 45, 76
9, 67799, Note_on_c, 3, 45, 0
9, 67800, Note_on_c, 3, 50, 76
9, 68039, Note_on_c, 3, 50, 0
9, 68040, Note_on_c, 3, 50, 76
9, 68159, Note_on_c, 3, 50, 0
9, 68160, Note_on_c, 3, 45, 76
9, 68399, Note_on_c, 3, 45, 0
9, 68400, Note_on_c, 3, 45, 76
9, 68519, Note_on_c, 3, 45, 0
9, 68520, Note_on_c, 3, 50, 76
9, 69119, Note_on_c, 3, 50, 0
9, 69120, Note_on_c, 3, 45, 76
9, 69239, Note_on_c, 3, 45, 0
9, 69240, Note_on_c, 3, 45, 76
9, 69269, Note_on_c, 3, 45, 0
9, 69270, Note_on_c, 3, 45, 76
9, 69299, Note_on_c, 3, 45, 0
9, 69300, Note_on_c, 3, 45, 76
9, 69329, Note_on_c, 3, 45, 0
9, 69330, Note_on_c, 3, 45, 76
9, 69359, Note_on_c, 3, 45, 0
9, 69360, Note_on_c, 3, 45, 76
9, 69389, Note_on_c, 3, 45, 0
9, 69390, Note_on_c, 3, 45, 76
9, 69419, Note_on_c, 3, 45, 0
9, 69420, Note_on_c, 3, 45, 76
9, 69449, Note_on_c, 3, 45, 0
9, 69450, Note_on_c, 3, 45, 76
9, 69479, Note_on_c, 3, 45, 0
9, 69480, Note_on_c, 3, 45, 76
9, 69509, Note_on_c, 3, 45, 0
9, 69510, Note_on_c, 3, 45, 76
9, 69539, Note_on_c, 3, 45, 0
9, 69540, Note_on_c, 3, 45, 76
9, 69569, Note_on_c, 3, 45, 0
9, 69570, Note_on_c, 3, 45, 76
9, 69599, Note_on_c, 3, 45, 0
9, 69600, Note_on_c, 3, 45, 76
9, 69629, Note_on_c, 3, 45, 0
9, 69630, Note_on_c, 3, 45, 76
9, 69659, Note_on_c, 3, 45, 0
9, 69660, Note_on_c, 3, 45, 76
9, 69689, Note_on_c, 3, 45, 0
9, 69690, Note_on_c, 3, 45, 76
9, 69719, Note_on_c, 3, 45, 0
9, 69720, Note_on_c, 3, 45, 76
9, 69749, Note_on_c, 3, 45, 0
9, 69750, Note_on_c, 3, 45, 76
9, 69779, Note_on_c, 3, 45, 0
9, 69780, Note_on_c, 3, 45, 76
9, 69809, Note_on_c, 3, 45, 0
9, 69810, Note_on_c, 3, 45, 76
9, 69839, Note_on_c, 3, 45, 0
9, 69840, Note_on_c, 3, 45, 76
9, 69869, Note_on_c, 3, 45, 0
9, 69870, Note_on_c, 3, 45, 76
9, 69899, Note_on_c, 3, 45, 0
9, 69900, Note_on_c, 3, 45, 76
9, 69929, Note_on_c, 3, 45, 0
9, 69930, Note_on_c, 3, 45, 76
9, 69959, Note_on_c, 3, 45, 0
9, 69960, Note_on_c, 3, 45, 76
9, 70319, Note_on_c, 3, 45, 0
9, 70320, Note_on_c, 3, 45, 76
9, 70559, Note_on_c, 3, 45, 0
9, 72120, Note_on_c, 3, 50, 76
9, 72359, Note_on_c, 3, 50, 0
9, 72840, Note_on_c, 3, 50, 76
9, 73439, Note_on_c, 3, 50, 0
9, 76320, Note_on_c, 3, 50, 76
9, 76439, Note_on_c, 3, 50, 0
9, 76440, Note_on_c, 3, 45, 76
9, 76679, Note_on_c, 3, 45, 0
9, 76680, Note_on_c, 3, 45, 76
9, 76799, Note_on_c, 3, 45, 0
9, 76800, Note_on_c, 3, 50, 76
9, 77039, Note_on_c, 3, 50, 0
9, 77160, Note_on_c, 3, 45, 76
9, 77399, Note_on_c, 3, 45, 0
9, 77400, Note_on_c, 3, 45, 76
9, 77519, Note_on_c, 3, 45, 0
9, 77520, Note_on_c, 3, 45, 76
9, 77759, Note_on_c, 3, 45, 0
9, 79200, Note_on_c, 3, 45, 76
9, 79319, Note_on_c, 3, 45, 0
9, 79320, Note_on_c, 3, 45, 76
9, 79559, Note_on_c, 3, 45, 0
9, 79560, Note_on_c, 3, 50, 76
9, 79679, Note_on_c, 3, 50, 0
9, 79680, Note_on_c, 3, 50, 76
9, 79919, Note_on_c, 3, 50, 0
9, 79920, Note_on_c, 3, 45, 76
9, 80039, Note_on_c, 3, 45, 0
9, 80040, Note_on_c, 3, 50, 76
9, 80279, Note_on_c, 3, 50, 0
9, 80280, Note_on_c, 3, 50, 76
9, 80399, Note_on_c, 3, 50, 0
9, 80400, Note_on_c, 3, 50, 76
9, 80639, Note_on_c, 3, 50, 0
9, 86400, Note_on_c, 3, 50, 76
9, 86519, Note_on_c, 3, 50, 0
9, 86520, Note_on_c, 3, 50, 76
9, 86549, Note_on_c, 3, 50, 0
9, 86550, Note_on_c, 3, 50, 76
9, 86579, Note_on_c, 3, 50, 0
9, 86580, Note_on_c, 3, 50, 76
9, 86609, Note_on_c, 3, 50, 0
9, 86610, Note_on_c, 3, 50, 76
9, 86639, Note_on_c, 3, 50, 0
9, 86640, Note_on_c, 3, 50, 76
9, 86669, Note_on_c, 3, 50, 0
9, 86670, Note_on_c, 3, 50, 76
9, 86699, Note_on_c, 3, 50, 0
9, 86700, Note_on_c, 3, 50, 76
9, 86729, Note_on_c, 3, 50, 0
9, 86730, Note_on_c, 3, 50, 76
9, 86759, Note_on_c, 3, 50, 0
9, 86760, Note_on_c, 3, 50, 76
9, 86789, Note_on_c, 3, 50, 0
9, 86790, Note_on_c, 3, 50, 76
9, 86819, Note_on_c, 3, 50, 0
9, 86820, Note_on_c, 3, 50, 76
9, 86849, Note_on_c, 3, 50, 0
9, 86850, Note_on_c, 3, 50, 76
9, 86879, Note_on_c, 3, 50, 0
9, 86880, Note_on_c, 3, 50, 76
9, 86909, Note_on_c, 3, 50, 0
9, 86910, Note_on_c, 3, 50, 76
9, 86939, Note_on_c, 3, 50, 0
9, 86940, Note_on_c, 3, 50, 76
9, 86969, Note_on_c, 3, 50, 0
9, 86970, Note_on_c, 3, 50, 76
9, 86999, Note_on_c, 3, 50, 0
9, 87000, Note_on_c, 3, 50, 76
9, 87029, Note_on_c, 3, 50, 0
9, 87030, Note_on_c, 3, 50, 76
9, 87059, Note_on_c, 3, 50, 0
9, 87060, Note_on_c, 3, 50, 76
9, 87089, Note_on_c, 3, 50, 0
9, 87090, Note_on_c, 3, 50, 76
9, 87119, Note_on_c, 3, 50, 0
9, 87120, Note_on_c, 3, 50, 76
9, 87149, Note_on_c, 3, 50, 0
9, 87150, Note_on_c, 3, 50, 76
9, 87179, Note_on_c, 3, 50, 0
9, 87180, Note_on_c, 3, 50, 76
9, 87209, Note_on_c, 3, 50, 0
9, 87210, Note_on_c, 3, 50, 76
9, 87239, Note_on_c, 3, 50, 0
9, 87240, Note_on_c, 3, 50, 76
9, 87599, Note_on_c, 3, 50, 0
9, 87600, Note_on_c, 3, 50, 76
9, 87839, Note_on_c, 3, 50, 0
9, 87840, Note_on_c, 3, 50, 76
9, 87959, Note_on_c, 3, 50, 0
9, 87960, Note_on_c, 3, 50, 76
9, 88199, Note_on_c, 3, 50, 0
9, 88560, Note_on_c, 3, 50, 76
9, 88679, Note_on_c, 3, 50, 0
9, 88680, Note_on_c, 3, 50, 76
9, 88919, Note_on_c, 3, 50, 0
9, 96840, Note_on_c, 3, 50, 76
9, 96959, Note_on_c, 3, 50, 0
9, 96960, Note_on_c, 3, 50, 76
9, 97199, Note_on_c, 3, 50, 0
9, 97560, Note_on_c, 3, 50, 76
9, 97679, Note_on_c, 3, 50, 0
9, 97680, Note_on_c, 3, 50, 76
9, 97919, Note_on_c, 3, 50, 0
9, 97920, Note_on_c, 3, 45, 76
9, 98039, Note_on_c, 3, 45, 0
9, 98040, Note_on_c, 3, 50, 76
9, 98279, Note_on_c, 3, 50, 0
9, 102240, Note_on_c, 3, 45, 76
9, 102359, Note_on_c, 3, 45, 0
9, 102360, Note_on_c, 3, 50, 76
9, 102599, Note_on_c, 3, 50, 0
9, 102600, Note_on_c, 3, 50, 76
9, 102719, Note_on_c, 3, 50, 0
9, 102720, Note_on_c, 3, 45, 76
9, 102959, Note_on_c, 3, 45, 0
9, 102960, Note_on_c, 3, 45, 76
9, 103079, Note_on_c, 3, 45, 0
9, 103080, Note_on_c, 3, 50, 76
9, 103679, Note_on_c, 3, 50, 0
9, 103679, End_track
10, 0, Start_track
10, 0, Title_t, "Oboe I"
10, 0, MIDI_port, 0
10, 0, Program_c, 4, 68
10, 0, Control_c, 4, 10, 59
10, 0, Control_c, 4, 11, 127
10, 0, Control_c, 4, 7, 80
10, 0, Note_on_c, 4, 62, 76
10, 104, Note_on_c, 4, 62, 0
10, 120, Note_on_c, 4, 69, 76
10, 464, Note_on_c, 4, 69, 0
10, 480, Note_on_c, 4, 71, 76
10, 824, Note_on_c, 4, 71, 0
10, 840, Note_on_c, 4, 69, 76
10, 1304, Note_on_c, 4, 69, 0
10, 1320, Note_on_c, 4, 71, 76
10, 1424, Note_on_c, 4, 71, 0
10, 1440, Note_on_c, 4, 73, 76
10, 1544, Note_on_c, 4, 73, 0
10, 1560, Note_on_c, 4, 74, 76
10, 1679, Note_on_c, 4, 74, 0
10, 1680, Note_on_c, 4, 73, 76
10, 1799, Note_on_c, 4, 73, 0
10, 1800, Note_on_c, 4, 71, 76
10, 1904, Note_on_c, 4, 71, 0
10, 1920, Note_on_c, 4, 69, 76
10, 2039, Note_on_c, 4, 69, 0
10, 2040, Note_on_c, 4, 71, 76
10, 2159, Note_on_c, 4, 71, 0
10, 2160, Note_on_c, 4, 67, 76
10, 2264, Note_on_c, 4, 67, 0
10, 2280, Note_on_c, 4, 66, 76
10, 2399, Note_on_c, 4, 66, 0
10, 2400, Note_on_c, 4, 64, 76
10, 2519, Note_on_c, 4, 64, 0
10, 2520, Note_on_c, 4, 66, 76
10, 2624, Note_on_c, 4, 66, 0
10, 2640, Note_on_c, 4, 62, 76
10, 2759, Note_on_c, 4, 62, 0
10, 2760, Note_on_c, 4, 66, 76
10, 2879, Note_on_c, 4, 66, 0
10, 2880, Note_on_c, 4, 69, 76
10, 2984, Note_on_c, 4, 69, 0
10, 3000, Note_on_c, 4, 74, 76
10, 3344, Note_on_c, 4, 74, 0
10, 3360, Note_on_c, 4, 78, 76
10, 3704, Note_on_c, 4, 78, 0
10, 3720, Note_on_c, 4, 76, 76
10, 4304, Note_on_c, 4, 76, 0
10, 4320, Note_on_c, 4, 74, 76
10, 4424, Note_on_c, 4, 74, 0
10, 4440, Note_on_c, 4, 73, 76
10, 4559, Note_on_c, 4, 73, 0
10, 4560, Note_on_c, 4, 71, 76
10, 4679, Note_on_c, 4, 71, 0
10, 4680, Note_on_c, 4, 69, 76
10, 4784, Note_on_c, 4, 69, 0
10, 4800, Note_on_c, 4, 71, 76
10, 4919, Note_on_c, 4, 71, 0
10, 4920, Note_on_c, 4, 73, 76
10, 5039, Note_on_c, 4, 73, 0
10, 5040, Note_on_c, 4, 74, 76
10, 5144, Note_on_c, 4, 74, 0
10, 5160, Note_on_c, 4, 73, 76
10, 5279, Note_on_c, 4, 73, 0
10, 5280, Note_on_c, 4, 71, 76
10, 5399, Note_on_c, 4, 71, 0
10, 5400, Note_on_c, 4, 73, 76
10, 5504, Note_on_c, 4, 73, 0
10, 5520, Note_on_c, 4, 69, 76
10, 5639, Note_on_c, 4, 69, 0
10, 5640, Note_on_c, 4, 73, 76
10, 5759, Note_on_c, 4, 73, 0
10, 5760, Note_on_c, 4, 76, 76
10, 5864, Note_on_c, 4, 76, 0
10, 5880, Note_on_c, 4, 81, 76
10, 5999, Note_on_c, 4, 81, 0
10, 6000, Note_on_c, 4, 79, 76
10, 6119, Note_on_c, 4, 79, 0
10, 6120, Note_on_c, 4, 81, 76
10, 6224, Note_on_c, 4, 81, 0
10, 6240, Note_on_c, 4, 81, 76
10, 6359, Note_on_c, 4, 81, 0
10, 6360, Note_on_c, 4, 79, 76
10, 6479, Note_on_c, 4, 79, 0
10, 6480, Note_on_c, 4, 81, 76
10, 6584, Note_on_c, 4, 81, 0
10, 6600, Note_on_c, 4, 81, 76
10, 6719, Note_on_c, 4, 81, 0
10, 6720, Note_on_c, 4, 79, 76
10, 6839, Note_on_c, 4, 79, 0
10, 6840, Note_on_c, 4, 81, 76
10, 6944, Note_on_c, 4, 81, 0
10, 6960, Note_on_c, 4, 71, 76
10, 7079, Note_on_c, 4, 71, 0
10, 7080, Note_on_c, 4, 75, 76
10, 7199, Note_on_c, 4, 75, 0
10, 7200, Note_on_c, 4, 78, 76
10, 7304, Note_on_c, 4, 78, 0
10, 7320, Note_on_c, 4, 79, 76
10, 7439, Note_on_c, 4, 79, 0
10, 7440, Note_on_c, 4, 78, 76
10, 7559, Note_on_c, 4, 78, 0
10, 7560, Note_on_c, 4, 79, 76
10, 7664, Note_on_c, 4, 79, 0
10, 7680, Note_on_c, 4, 79, 76
10, 7799, Note_on_c, 4, 79, 0
10, 7800, Note_on_c, 4, 78, 76
10, 7919, Note_on_c, 4, 78, 0
10, 7920, Note_on_c, 4, 79, 76
10, 8024, Note_on_c, 4, 79, 0
10, 8040, Note_on_c, 4, 79, 76
10, 8159, Note_on_c, 4, 79, 0
10, 8160, Note_on_c, 4, 78, 76
10, 8279, Note_on_c, 4, 78, 0
10, 8280, Note_on_c, 4, 79, 76
10, 8384, Note_on_c, 4, 79, 0
10, 8400, Note_on_c, 4, 69, 76
10, 8519, Note_on_c, 4, 69, 0
10, 8520, Note_on_c, 4, 73, 76
10, 8639, Note_on_c, 4, 73, 0
10, 8640, Note_on_c, 4, 76, 76
10, 8744, Note_on_c, 4, 76, 0
10, 8760, Note_on_c, 4, 78, 76
10, 8879, Note_on_c, 4, 78, 0
10, 8880, Note_on_c, 4, 80, 76
10, 8999, Note_on_c, 4, 80, 0
10, 9000, Note_on_c, 4, 81, 76
10, 9104, Note_on_c, 4, 81, 0
10, 9120, Note_on_c, 4, 81, 76
10, 9239, Note_on_c, 4, 81, 0
10, 9240, Note_on_c, 4, 80, 76
10, 9359, Note_on_c, 4, 80, 0
10, 9360, Note_on_c, 4, 81, 76
10, 9464, Note_on_c, 4, 81, 0
10, 9480, Note_on_c, 4, 74, 76
10, 9599, Note_on_c, 4, 74, 0
10, 9600, Note_on_c, 4, 76, 76
10, 9719, Note_on_c, 4, 76, 0
10, 9720, Note_on_c, 4, 78, 76
10, 9824, Note_on_c, 4, 78, 0
10, 9840, Note_on_c, 4, 78, 76
10, 9959, Note_on_c, 4, 78, 0
10, 9960, Note_on_c, 4, 76, 76
10, 10079, Note_on_c, 4, 76, 0
10, 10080, Note_on_c, 4, 78, 76
10, 10184, Note_on_c, 4, 78, 0
10, 10200, Note_on_c, 4, 71, 76
10, 10319, Note_on_c, 4, 71, 0
10, 10320, Note_on_c, 4, 73, 76
10, 10439, Note_on_c, 4, 73, 0
10, 10440, Note_on_c, 4, 74, 76
10, 10544, Note_on_c, 4, 74, 0
10, 10560, Note_on_c, 4, 74, 76
10, 10679, Note_on_c, 4, 74, 0
10, 10680, Note_on_c, 4, 73, 76
10, 10799, Note_on_c, 4, 73, 0
10, 10800, Note_on_c, 4, 74, 76
10, 10904, Note_on_c, 4, 74, 0
10, 10920, Note_on_c, 4, 68, 76
10, 11039, Note_on_c, 4, 68, 0
10, 11040, Note_on_c, 4, 69, 76
10, 11159, Note_on_c, 4, 69, 0
10, 11160, Note_on_c, 4, 71, 76
10, 11264, Note_on_c, 4, 71, 0
10, 11280, Note_on_c, 4, 64, 76
10, 11399, Note_on_c, 4, 64, 0
10, 11400, Note_on_c, 4, 68, 76
10, 11519, Note_on_c, 4, 68, 0
10, 11520, Note_on_c, 4, 71, 76
10, 11624, Note_on_c, 4, 71, 0
10, 11640, Note_on_c, 4, 76, 76
10, 11759, Note_on_c, 4, 76, 0
10, 11760, Note_on_c, 4, 74, 76
10, 11879, Note_on_c, 4, 74, 0
10, 11880, Note_on_c, 4, 73, 76
10, 11984, Note_on_c, 4, 73, 0
10, 12000, Note_on_c, 4, 74, 76
10, 12119, Note_on_c, 4, 74, 0
10, 12120, Note_on_c, 4, 73, 76
10, 12239, Note_on_c, 4, 73, 0
10, 12240, Note_on_c, 4, 71, 76
10, 12344, Note_on_c, 4, 71, 0
10, 12360, Note_on_c, 4, 69, 76
10, 12584, Note_on_c, 4, 69, 0
10, 12600, Note_on_c, 4, 78, 76
10, 12704, Note_on_c, 4, 78, 0
10, 12720, Note_on_c, 4, 69, 76
10, 12944, Note_on_c, 4, 69, 0
10, 12960, Note_on_c, 4, 78, 76
10, 13064, Note_on_c, 4, 78, 0
10, 13080, Note_on_c, 4, 68, 76
10, 13304, Note_on_c, 4, 68, 0
10, 13320, Note_on_c, 4, 76, 76
10, 13424, Note_on_c, 4, 76, 0
10, 13440, Note_on_c, 4, 67, 76
10, 13664, Note_on_c, 4, 67, 0
10, 13680, Note_on_c, 4, 76, 76
10, 13784, Note_on_c, 4, 76, 0
10, 13800, Note_on_c, 4, 66, 76
10, 14024, Note_on_c, 4, 66, 0
10, 14040, Note_on_c, 4, 74, 76
10, 14144, Note_on_c, 4, 74, 0
10, 14160, Note_on_c, 4, 65, 76
10, 14384, Note_on_c, 4, 65, 0
10, 14400, Note_on_c, 4, 74, 76
10, 14504, Note_on_c, 4, 74, 0
10, 14520, Note_on_c, 4, 64, 76
10, 14984, Note_on_c, 4, 64, 0
10, 15000, Note_on_c, 4, 68, 76
10, 15104, Note_on_c, 4, 68, 0
10, 15120, Note_on_c, 4, 71, 76
10, 15224, Note_on_c, 4, 71, 0
10, 15240, Note_on_c, 4, 74, 76
10, 15359, Note_on_c, 4, 74, 0
10, 15360, Note_on_c, 4, 80, 76
10, 15479, Note_on_c, 4, 80, 0
10, 15480, Note_on_c, 4, 83, 76
10, 15584, Note_on_c, 4, 83, 0
10, 15600, Note_on_c, 4, 74, 76
10, 15719, Note_on_c, 4, 74, 0
10, 15720, Note_on_c, 4, 73, 76
10, 15839, Note_on_c, 4, 73, 0
10, 15840, Note_on_c, 4, 71, 76
10, 15944, Note_on_c, 4, 71, 0
10, 15960, Note_on_c, 4, 73, 76
10, 16019, Note_on_c, 4, 73, 0
10, 16020, Note_on_c, 4, 74, 76
10, 16079, Note_on_c, 4, 74, 0
10, 16080, Note_on_c, 4, 76, 76
10, 16184, Note_on_c, 4, 76, 0
10, 16200, Note_on_c, 4, 69, 76
10, 16304, Note_on_c, 4, 69, 0
10, 16320, Note_on_c, 4, 64, 76
10, 16424, Note_on_c, 4, 64, 0
10, 16440, Note_on_c, 4, 69, 76
10, 16544, Note_on_c, 4, 69, 0
10, 16560, Note_on_c, 4, 68, 76
10, 16664, Note_on_c, 4, 68, 0
10, 16680, Note_on_c, 4, 69, 76
10, 17264, Note_on_c, 4, 69, 0
10, 17280, Note_on_c, 4, 62, 76
10, 17384, Note_on_c, 4, 62, 0
10, 17400, Note_on_c, 4, 69, 76
10, 17744, Note_on_c, 4, 69, 0
10, 17760, Note_on_c, 4, 71, 76
10, 18104, Note_on_c, 4, 71, 0
10, 18120, Note_on_c, 4, 69, 76
10, 18584, Note_on_c, 4, 69, 0
10, 18600, Note_on_c, 4, 71, 76
10, 18704, Note_on_c, 4, 71, 0
10, 18720, Note_on_c, 4, 73, 76
10, 18824, Note_on_c, 4, 73, 0
10, 18840, Note_on_c, 4, 74, 76
10, 18959, Note_on_c, 4, 74, 0
10, 18960, Note_on_c, 4, 73, 76
10, 19079, Note_on_c, 4, 73, 0
10, 19080, Note_on_c, 4, 71, 76
10, 19184, Note_on_c, 4, 71, 0
10, 19200, Note_on_c, 4, 69, 76
10, 19319, Note_on_c, 4, 69, 0
10, 19320, Note_on_c, 4, 71, 76
10, 19439, Note_on_c, 4, 71, 0
10, 19440, Note_on_c, 4, 67, 76
10, 19544, Note_on_c, 4, 67, 0
10, 19560, Note_on_c, 4, 66, 76
10, 19679, Note_on_c, 4, 66, 0
10, 19680, Note_on_c, 4, 64, 76
10, 19799, Note_on_c, 4, 64, 0
10, 19800, Note_on_c, 4, 66, 76
10, 19904, Note_on_c, 4, 66, 0
10, 19920, Note_on_c, 4, 62, 76
10, 20039, Note_on_c, 4, 62, 0
10, 20040, Note_on_c, 4, 66, 76
10, 20159, Note_on_c, 4, 66, 0
10, 20160, Note_on_c, 4, 69, 76
10, 20264, Note_on_c, 4, 69, 0
10, 20280, Note_on_c, 4, 74, 76
10, 20624, Note_on_c, 4, 74, 0
10, 20640, Note_on_c, 4, 78, 76
10, 20984, Note_on_c, 4, 78, 0
10, 21000, Note_on_c, 4, 76, 76
10, 21584, Note_on_c, 4, 76, 0
10, 21600, Note_on_c, 4, 74, 76
10, 21704, Note_on_c, 4, 74, 0
10, 21720, Note_on_c, 4, 73, 76
10, 21839, Note_on_c, 4, 73, 0
10, 21840, Note_on_c, 4, 71, 76
10, 21959, Note_on_c, 4, 71, 0
10, 21960, Note_on_c, 4, 69, 76
10, 22064, Note_on_c, 4, 69, 0
10, 22080, Note_on_c, 4, 71, 76
10, 22199, Note_on_c, 4, 71, 0
10, 22200, Note_on_c, 4, 73, 76
10, 22319, Note_on_c, 4, 73, 0
10, 22320, Note_on_c, 4, 74, 76
10, 22424, Note_on_c, 4, 74, 0
10, 22440, Note_on_c, 4, 73, 76
10, 22559, Note_on_c, 4, 73, 0
10, 22560, Note_on_c, 4, 71, 76
10, 22679, Note_on_c, 4, 71, 0
10, 22680, Note_on_c, 4, 73, 76
10, 22784, Note_on_c, 4, 73, 0
10, 22800, Note_on_c, 4, 69, 76
10, 22919, Note_on_c, 4, 69, 0
10, 22920, Note_on_c, 4, 73, 76
10, 23039, Note_on_c, 4, 73, 0
10, 23040, Note_on_c, 4, 76, 76
10, 23144, Note_on_c, 4, 76, 0
10, 23160, Note_on_c, 4, 81, 76
10, 23279, Note_on_c, 4, 81, 0
10, 23280, Note_on_c, 4, 79, 76
10, 23399, Note_on_c, 4, 79, 0
10, 23400, Note_on_c, 4, 81, 76
10, 23504, Note_on_c, 4, 81, 0
10, 23520, Note_on_c, 4, 81, 76
10, 23639, Note_on_c, 4, 81, 0
10, 23640, Note_on_c, 4, 79, 76
10, 23759, Note_on_c, 4, 79, 0
10, 23760, Note_on_c, 4, 81, 76
10, 23864, Note_on_c, 4, 81, 0
10, 23880, Note_on_c, 4, 81, 76
10, 23999, Note_on_c, 4, 81, 0
10, 24000, Note_on_c, 4, 79, 76
10, 24119, Note_on_c, 4, 79, 0
10, 24120, Note_on_c, 4, 81, 76
10, 24224, Note_on_c, 4, 81, 0
10, 24240, Note_on_c, 4, 71, 76
10, 24359, Note_on_c, 4, 71, 0
10, 24360, Note_on_c, 4, 75, 76
10, 24479, Note_on_c, 4, 75, 0
10, 24480, Note_on_c, 4, 78, 76
10, 24584, Note_on_c, 4, 78, 0
10, 24600, Note_on_c, 4, 79, 76
10, 24719, Note_on_c, 4, 79, 0
10, 24720, Note_on_c, 4, 78, 76
10, 24839, Note_on_c, 4, 78, 0
10, 24840, Note_on_c, 4, 79, 76
10, 24944, Note_on_c, 4, 79, 0
10, 24960, Note_on_c, 4, 79, 76
10, 25079, Note_on_c, 4, 79, 0
10, 25080, Note_on_c, 4, 78, 76
10, 25199, Note_on_c, 4, 78, 0
10, 25200, Note_on_c, 4, 79, 76
10, 25304, Note_on_c, 4, 79, 0
10, 25320, Note_on_c, 4, 79, 76
10, 25439, Note_on_c, 4, 79, 0
10, 25440, Note_on_c, 4, 78, 76
10, 25559, Note_on_c, 4, 78, 0
10, 25560, Note_on_c, 4, 79, 76
10, 25664, Note_on_c, 4, 79, 0
10, 25680, Note_on_c, 4, 69, 76
10, 25799, Note_on_c, 4, 69, 0
10, 25800, Note_on_c, 4, 73, 76
10, 25919, Note_on_c, 4, 73, 0
10, 25920, Note_on_c, 4, 76, 76
10, 26024, Note_on_c, 4, 76, 0
10, 26040, Note_on_c, 4, 78, 76
10, 26159, Note_on_c, 4, 78, 0
10, 26160, Note_on_c, 4, 80, 76
10, 26279, Note_on_c, 4, 80, 0
10, 26280, Note_on_c, 4, 81, 76
10, 26384, Note_on_c, 4, 81, 0
10, 26400, Note_on_c, 4, 81, 76
10, 26519, Note_on_c, 4, 81, 0
10, 26520, Note_on_c, 4, 80, 76
10, 26639, Note_on_c, 4, 80, 0
10, 26640, Note_on_c, 4, 81, 76
10, 26744, Note_on_c, 4, 81, 0
10, 26760, Note_on_c, 4, 74, 76
10, 26879, Note_on_c, 4, 74, 0
10, 26880, Note_on_c, 4, 76, 76
10, 26999, Note_on_c, 4, 76, 0
10, 27000, Note_on_c, 4, 78, 76
10, 27104, Note_on_c, 4, 78, 0
10, 27120, Note_on_c, 4, 78, 76
10, 27239, Note_on_c, 4, 78, 0
10, 27240, Note_on_c, 4, 76, 76
10, 27359, Note_on_c, 4, 76, 0
10, 27360, Note_on_c, 4, 78, 76
10, 27464, Note_on_c, 4, 78, 0
10, 27480, Note_on_c, 4, 71, 76
10, 27599, Note_on_c, 4, 71, 0
10, 27600, Note_on_c, 4, 73, 76
10, 27719, Note_on_c, 4, 73, 0
10, 27720, Note_on_c, 4, 74, 76
10, 27824, Note_on_c, 4, 74, 0
10, 27840, Note_on_c, 4, 74, 76
10, 27959, Note_on_c, 4, 74, 0
10, 27960, Note_on_c, 4, 73, 76
10, 28079, Note_on_c, 4, 73, 0
10, 28080, Note_on_c, 4, 74, 76
10, 28184, Note_on_c, 4, 74, 0
10, 28200, Note_on_c, 4, 68, 76
10, 28319, Note_on_c, 4, 68, 0
10, 28320, Note_on_c, 4, 69, 76
10, 28439, Note_on_c, 4, 69, 0
10, 28440, Note_on_c, 4, 71, 76
10, 28544, Note_on_c, 4, 71, 0
10, 28560, Note_on_c, 4, 64, 76
10, 28679, Note_on_c, 4, 64, 0
10, 28680, Note_on_c, 4, 68, 76
10, 28799, Note_on_c, 4, 68, 0
10, 28800, Note_on_c, 4, 71, 76
10, 28904, Note_on_c, 4, 71, 0
10, 28920, Note_on_c, 4, 76, 76
10, 29039, Note_on_c, 4, 76, 0
10, 29040, Note_on_c, 4, 74, 76
10, 29159, Note_on_c, 4, 74, 0
10, 29160, Note_on_c, 4, 73, 76
10, 29264, Note_on_c, 4, 73, 0
10, 29280, Note_on_c, 4, 74, 76
10, 29399, Note_on_c, 4, 74, 0
10, 29400, Note_on_c, 4, 73, 76
10, 29519, Note_on_c, 4, 73, 0
10, 29520, Note_on_c, 4, 71, 76
10, 29624, Note_on_c, 4, 71, 0
10, 29640, Note_on_c, 4, 69, 76
10, 29864, Note_on_c, 4, 69, 0
10, 29880, Note_on_c, 4, 78, 76
10, 29984, Note_on_c, 4, 78, 0
10, 30000, Note_on_c, 4, 69, 76
10, 30224, Note_on_c, 4, 69, 0
10, 30240, Note_on_c, 4, 78, 76
10, 30344, Note_on_c, 4, 78, 0
10, 30360, Note_on_c, 4, 68, 76
10, 30584, Note_on_c, 4, 68, 0
10, 30600, Note_on_c, 4, 76, 76
10, 30704, Note_on_c, 4, 76, 0
10, 30720, Note_on_c, 4, 67, 76
10, 30944, Note_on_c, 4, 67, 0
10, 30960, Note_on_c, 4, 76, 76
10, 31064, Note_on_c, 4, 76, 0
10, 31080, Note_on_c, 4, 66, 76
10, 31304, Note_on_c, 4, 66, 0
10, 31320, Note_on_c, 4, 74, 76
10, 31424, Note_on_c, 4, 74, 0
10, 31440, Note_on_c, 4, 65, 76
10, 31664, Note_on_c, 4, 65, 0
10, 31680, Note_on_c, 4, 74, 76
10, 31784, Note_on_c, 4, 74, 0
10, 31800, Note_on_c, 4, 64, 76
10, 32264, Note_on_c, 4, 64, 0
10, 32280, Note_on_c, 4, 68, 76
10, 32384, Note_on_c, 4, 68, 0
10, 32400, Note_on_c, 4, 71, 76
10, 32504, Note_on_c, 4, 71, 0
10, 32520, Note_on_c, 4, 74, 76
10, 32639, Note_on_c, 4, 74, 0
10, 32640, Note_on_c, 4, 80, 76
10, 32759, Note_on_c, 4, 80, 0
10, 32760, Note_on_c, 4, 83, 76
10, 32864, Note_on_c, 4, 83, 0
10, 32880, Note_on_c, 4, 74, 76
10, 32999, Note_on_c, 4, 74, 0
10, 33000, Note_on_c, 4, 73, 76
10, 33119, Note_on_c, 4, 73, 0
10, 33120, Note_on_c, 4, 71, 76
10, 33224, Note_on_c, 4, 71, 0
10, 33240, Note_on_c, 4, 73, 76
10, 33299, Note_on_c, 4, 73, 0
10, 33300, Note_on_c, 4, 74, 76
10, 33359, Note_on_c, 4, 74, 0
10, 33360, Note_on_c, 4, 76, 76
10, 33464, Note_on_c, 4, 76, 0
10, 33480, Note_on_c, 4, 69, 76
10, 33584, Note_on_c, 4, 69, 0
10, 33600, Note_on_c, 4, 64, 76
10, 33704, Note_on_c, 4, 64, 0
10, 33720, Note_on_c, 4, 69, 76
10, 33824, Note_on_c, 4, 69, 0
10, 33840, Note_on_c, 4, 68, 76
10, 33944, Note_on_c, 4, 68, 0
10, 33960, Note_on_c, 4, 69, 76
10, 34544, Note_on_c, 4, 69, 0
10, 34560, Note_on_c, 4, 69, 76
10, 34664, Note_on_c, 4, 69, 0
10, 34680, Note_on_c, 4, 76, 76
10, 35024, Note_on_c, 4, 76, 0
10, 35040, Note_on_c, 4, 78, 76
10, 35384, Note_on_c, 4, 78, 0
10, 35400, Note_on_c, 4, 76, 76
10, 35864, Note_on_c, 4, 76, 0
10, 35880, Note_on_c, 4, 78, 76
10, 35984, Note_on_c, 4, 78, 0
10, 36000, Note_on_c, 4, 79, 76
10, 36104, Note_on_c, 4, 79, 0
10, 36120, Note_on_c, 4, 78, 76
10, 36239, Note_on_c, 4, 78, 0
10, 36240, Note_on_c, 4, 76, 76
10, 36359, Note_on_c, 4, 76, 0
10, 36360, Note_on_c, 4, 74, 76
10, 36464, Note_on_c, 4, 74, 0
10, 36480, Note_on_c, 4, 73, 76
10, 36599, Note_on_c, 4, 73, 0
10, 36600, Note_on_c, 4, 74, 76
10, 36719, Note_on_c, 4, 74, 0
10, 36720, Note_on_c, 4, 71, 76
10, 36824, Note_on_c, 4, 71, 0
10, 36840, Note_on_c, 4, 70, 76
10, 36959, Note_on_c, 4, 70, 0
10, 36960, Note_on_c, 4, 71, 76
10, 37079, Note_on_c, 4, 71, 0
10, 37080, Note_on_c, 4, 73, 76
10, 37184, Note_on_c, 4, 73, 0
10, 37200, Note_on_c, 4, 66, 76
10, 37304, Note_on_c, 4, 66, 0
10, 37320, Note_on_c, 4, 70, 76
10, 37424, Note_on_c, 4, 70, 0
10, 37440, Note_on_c, 4, 73, 76
10, 37544, Note_on_c, 4, 73, 0
10, 37560, Note_on_c, 4, 78, 76
10, 37904, Note_on_c, 4, 78, 0
10, 37920, Note_on_c, 4, 79, 76
10, 38264, Note_on_c, 4, 79, 0
10, 38280, Note_on_c, 4, 78, 76
10, 38744, Note_on_c, 4, 78, 0
10, 38760, Note_on_c, 4, 76, 76
10, 38864, Note_on_c, 4, 76, 0
10, 38880, Note_on_c, 4, 74, 76
10, 38984, Note_on_c, 4, 74, 0
10, 39000, Note_on_c, 4, 73, 76
10, 39119, Note_on_c, 4, 73, 0
10, 39120, Note_on_c, 4, 74, 76
10, 39239, Note_on_c, 4, 74, 0
10, 39240, Note_on_c, 4, 71, 76
10, 39344, Note_on_c, 4, 71, 0
10, 39360, Note_on_c, 4, 66, 76
10, 39479, Note_on_c, 4, 66, 0
10, 39480, Note_on_c, 4, 71, 76
10, 39599, Note_on_c, 4, 71, 0
10, 39600, Note_on_c, 4, 70, 76
10, 39704, Note_on_c, 4, 70, 0
10, 39720, Note_on_c, 4, 71, 76
10, 40184, Note_on_c, 4, 71, 0
10, 40200, Note_on_c, 4, 74, 76
10, 40304, Note_on_c, 4, 74, 0
10, 40320, Note_on_c, 4, 73, 76
10, 40424, Note_on_c, 4, 73, 0
10, 40440, Note_on_c, 4, 74, 76
10, 40559, Note_on_c, 4, 74, 0
10, 40560, Note_on_c, 4, 73, 76
10, 40679, Note_on_c, 4, 73, 0
10, 40680, Note_on_c, 4, 74, 76
10, 40784, Note_on_c, 4, 74, 0
10, 40800, Note_on_c, 4, 74, 76
10, 40919, Note_on_c, 4, 74, 0
10, 40920, Note_on_c, 4, 73, 76
10, 41039, Note_on_c, 4, 73, 0
10, 41040, Note_on_c, 4, 74, 76
10, 41144, Note_on_c, 4, 74, 0
10, 41160, Note_on_c, 4, 74, 76
10, 41279, Note_on_c, 4, 74, 0
10, 41280, Note_on_c, 4, 73, 76
10, 41399, Note_on_c, 4, 73, 0
10, 41400, Note_on_c, 4, 74, 76
10, 41504, Note_on_c, 4, 74, 0
10, 41520, Note_on_c, 4, 64, 76
10, 41639, Note_on_c, 4, 64, 0
10, 41640, Note_on_c, 4, 68, 76
10, 41759, Note_on_c, 4, 68, 0
10, 41760, Note_on_c, 4, 71, 76
10, 41864, Note_on_c, 4, 71, 0
10, 41880, Note_on_c, 4, 76, 76
10, 41999, Note_on_c, 4, 76, 0
10, 42000, Note_on_c, 4, 74, 76
10, 42119, Note_on_c, 4, 74, 0
10, 42120, Note_on_c, 4, 73, 76
10, 42224, Note_on_c, 4, 73, 0
10, 42240, Note_on_c, 4, 71, 76
10, 42359, Note_on_c, 4, 71, 0
10, 42360, Note_on_c, 4, 73, 76
10, 42479, Note_on_c, 4, 73, 0
10, 42480, Note_on_c, 4, 74, 76
10, 42584, Note_on_c, 4, 74, 0
10, 42600, Note_on_c, 4, 73, 76
10, 42719, Note_on_c, 4, 73, 0
10, 42720, Note_on_c, 4, 71, 76
10, 42839, Note_on_c, 4, 71, 0
10, 42840, Note_on_c, 4, 73, 76
10, 42944, Note_on_c, 4, 73, 0
10, 42960, Note_on_c, 4, 69, 76
10, 43079, Note_on_c, 4, 69, 0
10, 43080, Note_on_c, 4, 73, 76
10, 43199, Note_on_c, 4, 73, 0
10, 43200, Note_on_c, 4, 76, 76
10, 43304, Note_on_c, 4, 76, 0
10, 43320, Note_on_c, 4, 79, 76
10, 43439, Note_on_c, 4, 79, 0
10, 43440, Note_on_c, 4, 78, 76
10, 43559, Note_on_c, 4, 78, 0
10, 43560, Note_on_c, 4, 79, 76
10, 43664, Note_on_c, 4, 79, 0
10, 43680, Note_on_c, 4, 79, 76
10, 43799, Note_on_c, 4, 79, 0
10, 43800, Note_on_c, 4, 78, 76
10, 43919, Note_on_c, 4, 78, 0
10, 43920, Note_on_c, 4, 79, 76
10, 44024, Note_on_c, 4, 79, 0
10, 44040, Note_on_c, 4, 79, 76
10, 44159, Note_on_c, 4, 79, 0
10, 44160, Note_on_c, 4, 78, 76
10, 44279, Note_on_c, 4, 78, 0
10, 44280, Note_on_c, 4, 79, 76
10, 44384, Note_on_c, 4, 79, 0
10, 44400, Note_on_c, 4, 69, 76
10, 44519, Note_on_c, 4, 69, 0
10, 44520, Note_on_c, 4, 73, 76
10, 44639, Note_on_c, 4, 73, 0
10, 44640, Note_on_c, 4, 76, 76
10, 44744, Note_on_c, 4, 76, 0
10, 44760, Note_on_c, 4, 81, 76
10, 44879, Note_on_c, 4, 81, 0
10, 44880, Note_on_c, 4, 79, 76
10, 44999, Note_on_c, 4, 79, 0
10, 45000, Note_on_c, 4, 78, 76
10, 45104, Note_on_c, 4, 78, 0
10, 45120, Note_on_c, 4, 76, 76
10, 45239, Note_on_c, 4, 76, 0
10, 45240, Note_on_c, 4, 78, 76
10, 45359, Note_on_c, 4, 78, 0
10, 45360, Note_on_c, 4, 79, 76
10, 45464, Note_on_c, 4, 79, 0
10, 45480, Note_on_c, 4, 78, 76
10, 45599, Note_on_c, 4, 78, 0
10, 45600, Note_on_c, 4, 76, 76
10, 45719, Note_on_c, 4, 76, 0
10, 45720, Note_on_c, 4, 78, 76
10, 45824, Note_on_c, 4, 78, 0
10, 45840, Note_on_c, 4, 74, 76
10, 45959, Note_on_c, 4, 74, 0
10, 45960, Note_on_c, 4, 78, 76
10, 46079, Note_on_c, 4, 78, 0
10, 46080, Note_on_c, 4, 76, 76
10, 46184, Note_on_c, 4, 76, 0
10, 46200, Note_on_c, 4, 78, 76
10, 46319, Note_on_c, 4, 78, 0
10, 46320, Note_on_c, 4, 80, 76
10, 46439, Note_on_c, 4, 80, 0
10, 46440, Note_on_c, 4, 81, 76
10, 46544, Note_on_c, 4, 81, 0
10, 46560, Note_on_c, 4, 80, 76
10, 46679, Note_on_c, 4, 80, 0
10, 46680, Note_on_c, 4, 81, 76
10, 46799, Note_on_c, 4, 81, 0
10, 46800, Note_on_c, 4, 83, 76
10, 46904, Note_on_c, 4, 83, 0
10, 46920, Note_on_c, 4, 73, 76
10, 47384, Note_on_c, 4, 73, 0
10, 47400, Note_on_c, 4, 80, 76
10, 47504, Note_on_c, 4, 80, 0
10, 47520, Note_on_c, 4, 83, 76
10, 47624, Note_on_c, 4, 83, 0
10, 47640, Note_on_c, 4, 81, 76
10, 47759, Note_on_c, 4, 81, 0
10, 47760, Note_on_c, 4, 80, 76
10, 47879, Note_on_c, 4, 80, 0
10, 47880, Note_on_c, 4, 78, 76
10, 47984, Note_on_c, 4, 78, 0
10, 48000, Note_on_c, 4, 76, 76
10, 48119, Note_on_c, 4, 76, 0
10, 48120, Note_on_c, 4, 74, 76
10, 48239, Note_on_c, 4, 74, 0
10, 48240, Note_on_c, 4, 73, 76
10, 48344, Note_on_c, 4, 73, 0
10, 48360, Note_on_c, 4, 71, 76
10, 48824, Note_on_c, 4, 71, 0
10, 48840, Note_on_c, 4, 78, 76
10, 48944, Note_on_c, 4, 78, 0
10, 48960, Note_on_c, 4, 81, 76
10, 49064, Note_on_c, 4, 81, 0
10, 49080, Note_on_c, 4, 80, 76
10, 49199, Note_on_c, 4, 80, 0
10, 49200, Note_on_c, 4, 78, 76
10, 49319, Note_on_c, 4, 78, 0
10, 49320, Note_on_c, 4, 77, 76
10, 49424, Note_on_c, 4, 77, 0
10, 49440, Note_on_c, 4, 78, 76
10, 49559, Note_on_c, 4, 78, 0
10, 49560, Note_on_c, 4, 76, 76
10, 49679, Note_on_c, 4, 76, 0
10, 49680, Note_on_c, 4, 74, 76
10, 49784, Note_on_c, 4, 74, 0
10, 49800, Note_on_c, 4, 73, 76
10, 49919, Note_on_c, 4, 73, 0
10, 49920, Note_on_c, 4, 78, 76
10, 50039, Note_on_c, 4, 78, 0
10, 50040, Note_on_c, 4, 76, 76
10, 50144, Note_on_c, 4, 76, 0
10, 50160, Note_on_c, 4, 74, 76
10, 50279, Note_on_c, 4, 74, 0
10, 50280, Note_on_c, 4, 73, 76
10, 50399, Note_on_c, 4, 73, 0
10, 50400, Note_on_c, 4, 71, 76
10, 50504, Note_on_c, 4, 71, 0
10, 50520, Note_on_c, 4, 69, 76
10, 50639, Note_on_c, 4, 69, 0
10, 50640, Note_on_c, 4, 68, 76
10, 50759, Note_on_c, 4, 68, 0
10, 50760, Note_on_c, 4, 66, 76
10, 50864, Note_on_c, 4, 66, 0
10, 50880, Note_on_c, 4, 71, 76
10, 50999, Note_on_c, 4, 71, 0
10, 51000, Note_on_c, 4, 69, 76
10, 51119, Note_on_c, 4, 69, 0
10, 51120, Note_on_c, 4, 68, 76
10, 51224, Note_on_c, 4, 68, 0
10, 51240, Note_on_c, 4, 66, 76
10, 51824, Note_on_c, 4, 66, 0
10, 51840, Note_on_c, 4, 62, 76
10, 51944, Note_on_c, 4, 62, 0
10, 51960, Note_on_c, 4, 69, 76
10, 52304, Note_on_c, 4, 69, 0
10, 52320, Note_on_c, 4, 71, 76
10, 52664, Note_on_c, 4, 71, 0
10, 52680, Note_on_c, 4, 72, 76
10, 53144, Note_on_c, 4, 72, 0
10, 53160, Note_on_c, 4, 71, 76
10, 53264, Note_on_c, 4, 71, 0
10, 53280, Note_on_c, 4, 69, 76
10, 53384, Note_on_c, 4, 69, 0
10, 53400, Note_on_c, 4, 71, 76
10, 53519, Note_on_c, 4, 71, 0
10, 53520, Note_on_c, 4, 74, 76
10, 53639, Note_on_c, 4, 74, 0
10, 53640, Note_on_c, 4, 79, 76
10, 53744, Note_on_c, 4, 79, 0
10, 53760, Note_on_c, 4, 69, 76
10, 53879, Note_on_c, 4, 69, 0
10, 53880, Note_on_c, 4, 79, 76
10, 53999, Note_on_c, 4, 79, 0
10, 54000, Note_on_c, 4, 78, 76
10, 54104, Note_on_c, 4, 78, 0
10, 54120, Note_on_c, 4, 79, 76
10, 54239, Note_on_c, 4, 79, 0
10, 54240, Note_on_c, 4, 83, 76
10, 54359, Note_on_c, 4, 83, 0
10, 54360, Note_on_c, 4, 81, 76
10, 54464, Note_on_c, 4, 81, 0
10, 54480, Note_on_c, 4, 83, 76
10, 54944, Note_on_c, 4, 83, 0
10, 54960, Note_on_c, 4, 81, 76
10, 55064, Note_on_c, 4, 81, 0
10, 55080, Note_on_c, 4, 79, 76
10, 55184, Note_on_c, 4, 79, 0
10, 55200, Note_on_c, 4, 78, 76
10, 55319, Note_on_c, 4, 78, 0
10, 55320, Note_on_c, 4, 79, 76
10, 55439, Note_on_c, 4, 79, 0
10, 55440, Note_on_c, 4, 76, 76
10, 55544, Note_on_c, 4, 76, 0
10, 55560, Note_on_c, 4, 78, 76
10, 55679, Note_on_c, 4, 78, 0
10, 55680, Note_on_c, 4, 81, 76
10, 55799, Note_on_c, 4, 81, 0
10, 55800, Note_on_c, 4, 79, 76
10, 55904, Note_on_c, 4, 79, 0
10, 55920, Note_on_c, 4, 81, 76
10, 56384, Note_on_c, 4, 81, 0
10, 56400, Note_on_c, 4, 79, 76
10, 56504, Note_on_c, 4, 79, 0
10, 56520, Note_on_c, 4, 78, 76
10, 56624, Note_on_c, 4, 78, 0
10, 56640, Note_on_c, 4, 76, 76
10, 56759, Note_on_c, 4, 76, 0
10, 56760, Note_on_c, 4, 78, 76
10, 56879, Note_on_c, 4, 78, 0
10, 56880, Note_on_c, 4, 75, 76
10, 56984, Note_on_c, 4, 75, 0
10, 57000, Note_on_c, 4, 76, 76
10, 57119, Note_on_c, 4, 76, 0
10, 57120, Note_on_c, 4, 79, 76
10, 57239, Note_on_c, 4, 79, 0
10, 57240, Note_on_c, 4, 78, 76
10, 57344, Note_on_c, 4, 78, 0
10, 57360, Note_on_c, 4, 79, 76
10, 57824, Note_on_c, 4, 79, 0
10, 57840, Note_on_c, 4, 78, 76
10, 57944, Note_on_c, 4, 78, 0
10, 57960, Note_on_c, 4, 76, 76
10, 58064, Note_on_c, 4, 76, 0
10, 58080, Note_on_c, 4, 74, 76
10, 58199, Note_on_c, 4, 74, 0
10, 58200, Note_on_c, 4, 76, 76
10, 58319, Note_on_c, 4, 76, 0
10, 58320, Note_on_c, 4, 73, 76
10, 58424, Note_on_c, 4, 73, 0
10, 58440, Note_on_c, 4, 74, 76
10, 58559, Note_on_c, 4, 74, 0
10, 58560, Note_on_c, 4, 78, 76
10, 58679, Note_on_c, 4, 78, 0
10, 58680, Note_on_c, 4, 76, 76
10, 58784, Note_on_c, 4, 76, 0
10, 58800, Note_on_c, 4, 78, 76
10, 58919, Note_on_c, 4, 78, 0
10, 58920, Note_on_c, 4, 79, 76
10, 59039, Note_on_c, 4, 79, 0
10, 59040, Note_on_c, 4, 81, 76
10, 59144, Note_on_c, 4, 81, 0
10, 59160, Note_on_c, 4, 71, 76
10, 59279, Note_on_c, 4, 71, 0
10, 59280, Note_on_c, 4, 73, 76
10, 59399, Note_on_c, 4, 73, 0
10, 59400, Note_on_c, 4, 74, 76
10, 59504, Note_on_c, 4, 74, 0
10, 59520, Note_on_c, 4, 76, 76
10, 59639, Note_on_c, 4, 76, 0
10, 59640, Note_on_c, 4, 78, 76
10, 59759, Note_on_c, 4, 78, 0
10, 59760, Note_on_c, 4, 74, 76
10, 59864, Note_on_c, 4, 74, 0
10, 59880, Note_on_c, 4, 73, 76
10, 59999, Note_on_c, 4, 73, 0
10, 60000, Note_on_c, 4, 74, 76
10, 60119, Note_on_c, 4, 74, 0
10, 60120, Note_on_c, 4, 76, 76
10, 60224, Note_on_c, 4, 76, 0
10, 60240, Note_on_c, 4, 78, 76
10, 60359, Note_on_c, 4, 78, 0
10, 60360, Note_on_c, 4, 79, 76
10, 60479, Note_on_c, 4, 79, 0
10, 60480, Note_on_c, 4, 76, 76
10, 60584, Note_on_c, 4, 76, 0
10, 60600, Note_on_c, 4, 74, 76
10, 60719, Note_on_c, 4, 74, 0
10, 60720, Note_on_c, 4, 76, 76
10, 60839, Note_on_c, 4, 76, 0
10, 60840, Note_on_c, 4, 78, 76
10, 60944, Note_on_c, 4, 78, 0
10, 60960, Note_on_c, 4, 79, 76
10, 61079, Note_on_c, 4, 79, 0
10, 61080, Note_on_c, 4, 81, 76
10, 61199, Note_on_c, 4, 81, 0
10, 61200, Note_on_c, 4, 78, 76
10, 61304, Note_on_c, 4, 78, 0
10, 61320, Note_on_c, 4, 76, 76
10, 61439, Note_on_c, 4, 76, 0
10, 61440, Note_on_c, 4, 78, 76
10, 61559, Note_on_c, 4, 78, 0
10, 61560, Note_on_c, 4, 79, 76
10, 61664, Note_on_c, 4, 79, 0
10, 61680, Note_on_c, 4, 81, 76
10, 61799, Note_on_c, 4, 81, 0
10, 61800, Note_on_c, 4, 83, 76
10, 61919, Note_on_c, 4, 83, 0
10, 61920, Note_on_c, 4, 79, 76
10, 62024, Note_on_c, 4, 79, 0
10, 62040, Note_on_c, 4, 78, 76
10, 62504, Note_on_c, 4, 78, 0
10, 62520, Note_on_c, 4, 76, 76
10, 62624, Note_on_c, 4, 76, 0
10, 62640, Note_on_c, 4, 74, 76
10, 62744, Note_on_c, 4, 74, 0
10, 62760, Note_on_c, 4, 76, 76
10, 62879, Note_on_c, 4, 76, 0
10, 62880, Note_on_c, 4, 73, 76
10, 62999, Note_on_c, 4, 73, 0
10, 63000, Note_on_c, 4, 74, 76
10, 63104, Note_on_c, 4, 74, 0
10, 63120, Note_on_c, 4, 69, 76
10, 63239, Note_on_c, 4, 69, 0
10, 63240, Note_on_c, 4, 74, 76
10, 63359, Note_on_c, 4, 74, 0
10, 63360, Note_on_c, 4, 73, 76
10, 63464, Note_on_c, 4, 73, 0
10, 63480, Note_on_c, 4, 62, 76
10, 63704, Note_on_c, 4, 62, 0
10, 63720, Note_on_c, 4, 74, 76
10, 63824, Note_on_c, 4, 74, 0
10, 63840, Note_on_c, 4, 81, 76
10, 64304, Note_on_c, 4, 81, 0
10, 64320, Note_on_c, 4, 83, 76
10, 64424, Note_on_c, 4, 83, 0
10, 64440, Note_on_c, 4, 81, 76
10, 64544, Note_on_c, 4, 81, 0
10, 64560, Note_on_c, 4, 80, 76
10, 64679, Note_on_c, 4, 80, 0
10, 64680, Note_on_c, 4, 76, 76
10, 64799, Note_on_c, 4, 76, 0
10, 64800, Note_on_c, 4, 78, 76
10, 64904, Note_on_c, 4, 78, 0
10, 64920, Note_on_c, 4, 79, 76
10, 65039, Note_on_c, 4, 79, 0
10, 65040, Note_on_c, 4, 81, 76
10, 65159, Note_on_c, 4, 81, 0
10, 65160, Note_on_c, 4, 79, 76
10, 65264, Note_on_c, 4, 79, 0
10, 65280, Note_on_c, 4, 78, 76
10, 65399, Note_on_c, 4, 78, 0
10, 65400, Note_on_c, 4, 74, 76
10, 65519, Note_on_c, 4, 74, 0
10, 65520, Note_on_c, 4, 76, 76
10, 65624, Note_on_c, 4, 76, 0
10, 65640, Note_on_c, 4, 77, 76
10, 65759, Note_on_c, 4, 77, 0
10, 65760, Note_on_c, 4, 79, 76
10, 65879, Note_on_c, 4, 79, 0
10, 65880, Note_on_c, 4, 77, 76
10, 65984, Note_on_c, 4, 77, 0
10, 66000, Note_on_c, 4, 76, 76
10, 66119, Note_on_c, 4, 76, 0
10, 66120, Note_on_c, 4, 73, 76
10, 66239, Note_on_c, 4, 73, 0
10, 66240, Note_on_c, 4, 74, 76
10, 66344, Note_on_c, 4, 74, 0
10, 66360, Note_on_c, 4, 73, 76
10, 66479, Note_on_c, 4, 73, 0
10, 66480, Note_on_c, 4, 74, 76
10, 66599, Note_on_c, 4, 74, 0
10, 66600, Note_on_c, 4, 76, 76
10, 66704, Note_on_c, 4, 76, 0
10, 66720, Note_on_c, 4, 69, 76
10, 67304, Note_on_c, 4, 69, 0
10, 67320, Note_on_c, 4, 81, 76
10, 67424, Note_on_c, 4, 81, 0
10, 67440, Note_on_c, 4, 83, 76
10, 67664, Note_on_c, 4, 83, 0
10, 67680, Note_on_c, 4, 85, 76
10, 67747, Note_on_c, 4, 85, 0
10, 67760, Note_on_c, 4, 85, 76
10, 67799, Note_on_c, 4, 85, 0
10, 67800, Note_on_c, 4, 86, 76
10, 68024, Note_on_c, 4, 86, 0
10, 68040, Note_on_c, 4, 81, 76
10, 68144, Note_on_c, 4, 81, 0
10, 68160, Note_on_c, 4, 78, 76
10, 68189, Note_on_c, 4, 78, 0
10, 68190, Note_on_c, 4, 79, 76
10, 68219, Note_on_c, 4, 79, 0
10, 68220, Note_on_c, 4, 76, 76
10, 68249, Note_on_c, 4, 76, 0
10, 68250, Note_on_c, 4, 78, 76
10, 68279, Note_on_c, 4, 78, 0
10, 68280, Note_on_c, 4, 76, 76
10, 68399, Note_on_c, 4, 76, 0
10, 68400, Note_on_c, 4, 74, 76
10, 68504, Note_on_c, 4, 74, 0
10, 68520, Note_on_c, 4, 74, 76
10, 69104, Note_on_c, 4, 74, 0
10, 69120, Note_on_c, 4, 69, 76
10, 69224, Note_on_c, 4, 69, 0
10, 69240, Note_on_c, 4, 76, 76
10, 69584, Note_on_c, 4, 76, 0
10, 69600, Note_on_c, 4, 78, 76
10, 69944, Note_on_c, 4, 78, 0
10, 69960, Note_on_c, 4, 76, 76
10, 70424, Note_on_c, 4, 76, 0
10, 70440, Note_on_c, 4, 78, 76
10, 70544, Note_on_c, 4, 78, 0
10, 70560, Note_on_c, 4, 79, 76
10, 70664, Note_on_c, 4, 79, 0
10, 70680, Note_on_c, 4, 78, 76
10, 70799, Note_on_c, 4, 78, 0
10, 70800, Note_on_c, 4, 76, 76
10, 70919, Note_on_c, 4, 76, 0
10, 70920, Note_on_c, 4, 74, 76
10, 71024, Note_on_c, 4, 74, 0
10, 71040, Note_on_c, 4, 73, 76
10, 71159, Note_on_c, 4, 73, 0
10, 71160, Note_on_c, 4, 74, 76
10, 71279, Note_on_c, 4, 74, 0
10, 71280, Note_on_c, 4, 71, 76
10, 71384, Note_on_c, 4, 71, 0
10, 71400, Note_on_c, 4, 70, 76
10, 71519, Note_on_c, 4, 70, 0
10, 71520, Note_on_c, 4, 71, 76
10, 71639, Note_on_c, 4, 71, 0
10, 71640, Note_on_c, 4, 73, 76
10, 71744, Note_on_c, 4, 73, 0
10, 71760, Note_on_c, 4, 66, 76
10, 71864, Note_on_c, 4, 66, 0
10, 71880, Note_on_c, 4, 70, 76
10, 71984, Note_on_c, 4, 70, 0
10, 72000, Note_on_c, 4, 73, 76
10, 72104, Note_on_c, 4, 73, 0
10, 72120, Note_on_c, 4, 78, 76
10, 72464, Note_on_c, 4, 78, 0
10, 72480, Note_on_c, 4, 79, 76
10, 72824, Note_on_c, 4, 79, 0
10, 72840, Note_on_c, 4, 78, 76
10, 73304, Note_on_c, 4, 78, 0
10, 73320, Note_on_c, 4, 76, 76
10, 73424, Note_on_c, 4, 76, 0
10, 73440, Note_on_c, 4, 74, 76
10, 73544, Note_on_c, 4, 74, 0
10, 73560, Note_on_c, 4, 73, 76
10, 73679, Note_on_c, 4, 73, 0
10, 73680, Note_on_c, 4, 74, 76
10, 73799, Note_on_c, 4, 74, 0
10, 73800, Note_on_c, 4, 71, 76
10, 73904, Note_on_c, 4, 71, 0
10, 73920, Note_on_c, 4, 66, 76
10, 74039, Note_on_c, 4, 66, 0
10, 74040, Note_on_c, 4, 71, 76
10, 74159, Note_on_c, 4, 71, 0
10, 74160, Note_on_c, 4, 70, 76
10, 74264, Note_on_c, 4, 70, 0
10, 74280, Note_on_c, 4, 71, 76
10, 74744, Note_on_c, 4, 71, 0
10, 74760, Note_on_c, 4, 74, 76
10, 74864, Note_on_c, 4, 74, 0
10, 74880, Note_on_c, 4, 73, 76
10, 74984, Note_on_c, 4, 73, 0
10, 75000, Note_on_c, 4, 74, 76
10, 75119, Note_on_c, 4, 74, 0
10, 75120, Note_on_c, 4, 73, 76
10, 75239, Note_on_c, 4, 73, 0
10, 75240, Note_on_c, 4, 74, 76
10, 75344, Note_on_c, 4, 74, 0
10, 75360, Note_on_c, 4, 74, 76
10, 75479, Note_on_c, 4, 74, 0
10, 75480, Note_on_c, 4, 73, 76
10, 75599, Note_on_c, 4, 73, 0
10, 75600, Note_on_c, 4, 74, 76
10, 75704, Note_on_c, 4, 74, 0
10, 75720, Note_on_c, 4, 74, 76
10, 75839, Note_on_c, 4, 74, 0
10, 75840, Note_on_c, 4, 73, 76
10, 75959, Note_on_c, 4, 73, 0
10, 75960, Note_on_c, 4, 74, 76
10, 76064, Note_on_c, 4, 74, 0
10, 76080, Note_on_c, 4, 64, 76
10, 76199, Note_on_c, 4, 64, 0
10, 76200, Note_on_c, 4, 68, 76
10, 76319, Note_on_c, 4, 68, 0
10, 76320, Note_on_c, 4, 71, 76
10, 76424, Note_on_c, 4, 71, 0
10, 76440, Note_on_c, 4, 76, 76
10, 76559, Note_on_c, 4, 76, 0
10, 76560, Note_on_c, 4, 74, 76
10, 76679, Note_on_c, 4, 74, 0
10, 76680, Note_on_c, 4, 73, 76
10, 76784, Note_on_c, 4, 73, 0
10, 76800, Note_on_c, 4, 71, 76
10, 76919, Note_on_c, 4, 71, 0
10, 76920, Note_on_c, 4, 73, 76
10, 77039, Note_on_c, 4, 73, 0
10, 77040, Note_on_c, 4, 74, 76
10, 77144, Note_on_c, 4, 74, 0
10, 77160, Note_on_c, 4, 73, 76
10, 77279, Note_on_c, 4, 73, 0
10, 77280, Note_on_c, 4, 71, 76
10, 77399, Note_on_c, 4, 71, 0
10, 77400, Note_on_c, 4, 73, 76
10, 77504, Note_on_c, 4, 73, 0
10, 77520, Note_on_c, 4, 69, 76
10, 77639, Note_on_c, 4, 69, 0
10, 77640, Note_on_c, 4, 73, 76
10, 77759, Note_on_c, 4, 73, 0
10, 77760, Note_on_c, 4, 76, 76
10, 77864, Note_on_c, 4, 76, 0
10, 77880, Note_on_c, 4, 79, 76
10, 77999, Note_on_c, 4, 79, 0
10, 78000, Note_on_c, 4, 78, 76
10, 78119, Note_on_c, 4, 78, 0
10, 78120, Note_on_c, 4, 79, 76
10, 78224, Note_on_c, 4, 79, 0
10, 78240, Note_on_c, 4, 79, 76
10, 78359, Note_on_c, 4, 79, 0
10, 78360, Note_on_c, 4, 78, 76
10, 78479, Note_on_c, 4, 78, 0
10, 78480, Note_on_c, 4, 79, 76
10, 78584, Note_on_c, 4, 79, 0
10, 78600, Note_on_c, 4, 79, 76
10, 78719, Note_on_c, 4, 79, 0
10, 78720, Note_on_c, 4, 78, 76
10, 78839, Note_on_c, 4, 78, 0
10, 78840, Note_on_c, 4, 79, 76
10, 78944, Note_on_c, 4, 79, 0
10, 78960, Note_on_c, 4, 69, 76
10, 79079, Note_on_c, 4, 69, 0
10, 79080, Note_on_c, 4, 73, 76
10, 79199, Note_on_c, 4, 73, 0
10, 79200, Note_on_c, 4, 76, 76
10, 79304, Note_on_c, 4, 76, 0
10, 79320, Note_on_c, 4, 81, 76
10, 79439, Note_on_c, 4, 81, 0
10, 79440, Note_on_c, 4, 79, 76
10, 79559, Note_on_c, 4, 79, 0
10, 79560, Note_on_c, 4, 78, 76
10, 79664, Note_on_c, 4, 78, 0
10, 79680, Note_on_c, 4, 76, 76
10, 79799, Note_on_c, 4, 76, 0
10, 79800, Note_on_c, 4, 78, 76
10, 79919, Note_on_c, 4, 78, 0
10, 79920, Note_on_c, 4, 79, 76
10, 80024, Note_on_c, 4, 79, 0
10, 80040, Note_on_c, 4, 78, 76
10, 80159, Note_on_c, 4, 78, 0
10, 80160, Note_on_c, 4, 76, 76
10, 80279, Note_on_c, 4, 76, 0
10, 80280, Note_on_c, 4, 78, 76
10, 80384, Note_on_c, 4, 78, 0
10, 80400, Note_on_c, 4, 74, 76
10, 80519, Note_on_c, 4, 74, 0
10, 80520, Note_on_c, 4, 78, 76
10, 80639, Note_on_c, 4, 78, 0
10, 80640, Note_on_c, 4, 76, 76
10, 80744, Note_on_c, 4, 76, 0
10, 80760, Note_on_c, 4, 78, 76
10, 80879, Note_on_c, 4, 78, 0
10, 80880, Note_on_c, 4, 80, 76
10, 80999, Note_on_c, 4, 80, 0
10, 81000, Note_on_c, 4, 81, 76
10, 81104, Note_on_c, 4, 81, 0
10, 81120, Note_on_c, 4, 80, 76
10, 81239, Note_on_c, 4, 80, 0
10, 81240, Note_on_c, 4, 81, 76
10, 81359, Note_on_c, 4, 81, 0
10, 81360, Note_on_c, 4, 83, 76
10, 81464, Note_on_c, 4, 83, 0
10, 81480, Note_on_c, 4, 73, 76
10, 81944, Note_on_c, 4, 73, 0
10, 81960, Note_on_c, 4, 80, 76
10, 82064, Note_on_c, 4, 80, 0
10, 82080, Note_on_c, 4, 83, 76
10, 82184, Note_on_c, 4, 83, 0
10, 82200, Note_on_c, 4, 81, 76
10, 82319, Note_on_c, 4, 81, 0
10, 82320, Note_on_c, 4, 80, 76
10, 82439, Note_on_c, 4, 80, 0
10, 82440, Note_on_c, 4, 78, 76
10, 82544, Note_on_c, 4, 78, 0
10, 82560, Note_on_c, 4, 76, 76
10, 82679, Note_on_c, 4, 76, 0
10, 82680, Note_on_c, 4, 74, 76
10, 82799, Note_on_c, 4, 74, 0
10, 82800, Note_on_c, 4, 73, 76
10, 82904, Note_on_c, 4, 73, 0
10, 82920, Note_on_c, 4, 71, 76
10, 83384, Note_on_c, 4, 71, 0
10, 83400, Note_on_c, 4, 78, 76
10, 83504, Note_on_c, 4, 78, 0
10, 83520, Note_on_c, 4, 81, 76
10, 83624, Note_on_c, 4, 81, 0
10, 83640, Note_on_c, 4, 80, 76
10, 83759, Note_on_c, 4, 80, 0
10, 83760, Note_on_c, 4, 78, 76
10, 83879, Note_on_c, 4, 78, 0
10, 83880, Note_on_c, 4, 77, 76
10, 83984, Note_on_c, 4, 77, 0
10, 84000, Note_on_c, 4, 78, 76
10, 84119, Note_on_c, 4, 78, 0
10, 84120, Note_on_c, 4, 76, 76
10, 84239, Note_on_c, 4, 76, 0
10, 84240, Note_on_c, 4, 74, 76
10, 84344, Note_on_c, 4, 74, 0
10, 84360, Note_on_c, 4, 73, 76
10, 84479, Note_on_c, 4, 73, 0
10, 84480, Note_on_c, 4, 78, 76
10, 84599, Note_on_c, 4, 78, 0
10, 84600, Note_on_c, 4, 76, 76
10, 84704, Note_on_c, 4, 76, 0
10, 84720, Note_on_c, 4, 74, 76
10, 84839, Note_on_c, 4, 74, 0
10, 84840, Note_on_c, 4, 73, 76
10, 84959, Note_on_c, 4, 73, 0
10, 84960, Note_on_c, 4, 71, 76
10, 85064, Note_on_c, 4, 71, 0
10, 85080, Note_on_c, 4, 69, 76
10, 85199, Note_on_c, 4, 69, 0
10, 85200, Note_on_c, 4, 68, 76
10, 85319, Note_on_c, 4, 68, 0
10, 85320, Note_on_c, 4, 66, 76
10, 85424, Note_on_c, 4, 66, 0
10, 85440, Note_on_c, 4, 71, 76
10, 85559, Note_on_c, 4, 71, 0
10, 85560, Note_on_c, 4, 69, 76
10, 85679, Note_on_c, 4, 69, 0
10, 85680, Note_on_c, 4, 68, 76
10, 85784, Note_on_c, 4, 68, 0
10, 85800, Note_on_c, 4, 66, 76
10, 86384, Note_on_c, 4, 66, 0
10, 86400, Note_on_c, 4, 62, 76
10, 86504, Note_on_c, 4, 62, 0
10, 86520, Note_on_c, 4, 69, 76
10, 86864, Note_on_c, 4, 69, 0
10, 86880, Note_on_c, 4, 71, 76
10, 87224, Note_on_c, 4, 71, 0
10, 87240, Note_on_c, 4, 72, 76
10, 87704, Note_on_c, 4, 72, 0
10, 87720, Note_on_c, 4, 71, 76
10, 87824, Note_on_c, 4, 71, 0
10, 87840, Note_on_c, 4, 69, 76
10, 87944, Note_on_c, 4, 69, 0
10, 87960, Note_on_c, 4, 71, 76
10, 88079, Note_on_c, 4, 71, 0
10, 88080, Note_on_c, 4, 74, 76
10, 88199, Note_on_c, 4, 74, 0
10, 88200, Note_on_c, 4, 79, 76
10, 88304, Note_on_c, 4, 79, 0
10, 88320, Note_on_c, 4, 69, 76
10, 88439, Note_on_c, 4, 69, 0
10, 88440, Note_on_c, 4, 79, 76
10, 88559, Note_on_c, 4, 79, 0
10, 88560, Note_on_c, 4, 78, 76
10, 88664, Note_on_c, 4, 78, 0
10, 88680, Note_on_c, 4, 79, 76
10, 88799, Note_on_c, 4, 79, 0
10, 88800, Note_on_c, 4, 83, 76
10, 88919, Note_on_c, 4, 83, 0
10, 88920, Note_on_c, 4, 81, 76
10, 89024, Note_on_c, 4, 81, 0
10, 89040, Note_on_c, 4, 83, 76
10, 89504, Note_on_c, 4, 83, 0
10, 89520, Note_on_c, 4, 81, 76
10, 89624, Note_on_c, 4, 81, 0
10, 89640, Note_on_c, 4, 79, 76
10, 89744, Note_on_c, 4, 79, 0
10, 89760, Note_on_c, 4, 78, 76
10, 89879, Note_on_c, 4, 78, 0
10, 89880, Note_on_c, 4, 79, 76
10, 89999, Note_on_c, 4, 79, 0
10, 90000, Note_on_c, 4, 76, 76
10, 90104, Note_on_c, 4, 76, 0
10, 90120, Note_on_c, 4, 78, 76
10, 90239, Note_on_c, 4, 78, 0
10, 90240, Note_on_c, 4, 81, 76
10, 90359, Note_on_c, 4, 81, 0
10, 90360, Note_on_c, 4, 79, 76
10, 90464, Note_on_c, 4, 79, 0
10, 90480, Note_on_c, 4, 81, 76
10, 90944, Note_on_c, 4, 81, 0
10, 90960, Note_on_c, 4, 79, 76
10, 91064, Note_on_c, 4, 79, 0
10, 91080, Note_on_c, 4, 78, 76
10, 91184, Note_on_c, 4, 78, 0
10, 91200, Note_on_c, 4, 76, 76
10, 91319, Note_on_c, 4, 76, 0
10, 91320, Note_on_c, 4, 78, 76
10, 91439, Note_on_c, 4, 78, 0
10, 91440, Note_on_c, 4, 75, 76
10, 91544, Note_on_c, 4, 75, 0
10, 91560, Note_on_c, 4, 76, 76
10, 91679, Note_on_c, 4, 76, 0
10, 91680, Note_on_c, 4, 79, 76
10, 91799, Note_on_c, 4, 79, 0
10, 91800, Note_on_c, 4, 78, 76
10, 91904, Note_on_c, 4, 78, 0
10, 91920, Note_on_c, 4, 79, 76
10, 92384, Note_on_c, 4, 79, 0
10, 92400, Note_on_c, 4, 78, 76
10, 92504, Note_on_c, 4, 78, 0
10, 92520, Note_on_c, 4, 76, 76
10, 92624, Note_on_c, 4, 76, 0
10, 92640, Note_on_c, 4, 74, 76
10, 92759, Note_on_c, 4, 74, 0
10, 92760, Note_on_c, 4, 76, 76
10, 92879, Note_on_c, 4, 76, 0
10, 92880, Note_on_c, 4, 73, 76
10, 92984, Note_on_c, 4, 73, 0
10, 93000, Note_on_c, 4, 74, 76
10, 93119, Note_on_c, 4, 74, 0
10, 93120, Note_on_c, 4, 78, 76
10, 93239, Note_on_c, 4, 78, 0
10, 93240, Note_on_c, 4, 76, 76
10, 93344, Note_on_c, 4, 76, 0
10, 93360, Note_on_c, 4, 78, 76
10, 93479, Note_on_c, 4, 78, 0
10, 93480, Note_on_c, 4, 79, 76
10, 93599, Note_on_c, 4, 79, 0
10, 93600, Note_on_c, 4, 81, 76
10, 93704, Note_on_c, 4, 81, 0
10, 93720, Note_on_c, 4, 71, 76
10, 93839, Note_on_c, 4, 71, 0
10, 93840, Note_on_c, 4, 73, 76
10, 93959, Note_on_c, 4, 73, 0
10, 93960, Note_on_c, 4, 74, 76
10, 94064, Note_on_c, 4, 74, 0
10, 94080, Note_on_c, 4, 76, 76
10, 94199, Note_on_c, 4, 76, 0
10, 94200, Note_on_c, 4, 78, 76
10, 94319, Note_on_c, 4, 78, 0
10, 94320, Note_on_c, 4, 74, 76
10, 94424, Note_on_c, 4, 74, 0
10, 94440, Note_on_c, 4, 73, 76
10, 94559, Note_on_c, 4, 73, 0
10, 94560, Note_on_c, 4, 74, 76
10, 94679, Note_on_c, 4, 74, 0
10, 94680, Note_on_c, 4, 76, 76
10, 94784, Note_on_c, 4, 76, 0
10, 94800, Note_on_c, 4, 78, 76
10, 94919, Note_on_c, 4, 78, 0
10, 94920, Note_on_c, 4, 79, 76
10, 95039, Note_on_c, 4, 79, 0
10, 95040, Note_on_c, 4, 76, 76
10, 95144, Note_on_c, 4, 76, 0
10, 95160, Note_on_c, 4, 74, 76
10, 95279, Note_on_c, 4, 74, 0
10, 95280, Note_on_c, 4, 76, 76
10, 95399, Note_on_c, 4, 76, 0
10, 95400, Note_on_c, 4, 78, 76
10, 95504, Note_on_c, 4, 78, 0
10, 95520, Note_on_c, 4, 79, 76
10, 95639, Note_on_c, 4, 79, 0
10, 95640, Note_on_c, 4, 81, 76
10, 95759, Note_on_c, 4, 81, 0
10, 95760, Note_on_c, 4, 78, 76
10, 95864, Note_on_c, 4, 78, 0
10, 95880, Note_on_c, 4, 76, 76
10, 95999, Note_on_c, 4, 76, 0
10, 96000, Note_on_c, 4, 78, 76
10, 96119, Note_on_c, 4, 78, 0
10, 96120, Note_on_c, 4, 79, 76
10, 96224, Note_on_c, 4, 79, 0
10, 96240, Note_on_c, 4, 81, 76
10, 96359, Note_on_c, 4, 81, 0
10, 96360, Note_on_c, 4, 83, 76
10, 96479, Note_on_c, 4, 83, 0
10, 96480, Note_on_c, 4, 79, 76
10, 96584, Note_on_c, 4, 79, 0
10, 96600, Note_on_c, 4, 78, 76
10, 97064, Note_on_c, 4, 78, 0
10, 97080, Note_on_c, 4, 76, 76
10, 97184, Note_on_c, 4, 76, 0
10, 97200, Note_on_c, 4, 74, 76
10, 97304, Note_on_c, 4, 74, 0
10, 97320, Note_on_c, 4, 76, 76
10, 97439, Note_on_c, 4, 76, 0
10, 97440, Note_on_c, 4, 73, 76
10, 97559, Note_on_c, 4, 73, 0
10, 97560, Note_on_c, 4, 74, 76
10, 97664, Note_on_c, 4, 74, 0
10, 97680, Note_on_c, 4, 69, 76
10, 97799, Note_on_c, 4, 69, 0
10, 97800, Note_on_c, 4, 74, 76
10, 97919, Note_on_c, 4, 74, 0
10, 97920, Note_on_c, 4, 73, 76
10, 98024, Note_on_c, 4, 73, 0
10, 98040, Note_on_c, 4, 62, 76
10, 98264, Note_on_c, 4, 62, 0
10, 98280, Note_on_c, 4, 74, 76
10, 98384, Note_on_c, 4, 74, 0
10, 98400, Note_on_c, 4, 81, 76
10, 98864, Note_on_c, 4, 81, 0
10, 98880, Note_on_c, 4, 83, 76
10, 98984, Note_on_c, 4, 83, 0
10, 99000, Note_on_c, 4, 81, 76
10, 99104, Note_on_c, 4, 81, 0
10, 99120, Note_on_c, 4, 80, 76
10, 99239, Note_on_c, 4, 80, 0
10, 99240, Note_on_c, 4, 76, 76
10, 99359, Note_on_c, 4, 76, 0
10, 99360, Note_on_c, 4, 78, 76
10, 99464, Note_on_c, 4, 78, 0
10, 99480, Note_on_c, 4, 79, 76
10, 99599, Note_on_c, 4, 79, 0
10, 99600, Note_on_c, 4, 81, 76
10, 99719, Note_on_c, 4, 81, 0
10, 99720, Note_on_c, 4, 79, 76
10, 99824, Note_on_c, 4, 79, 0
10, 99840, Note_on_c, 4, 78, 76
10, 99959, Note_on_c, 4, 78, 0
10, 99960, Note_on_c, 4, 74, 76
10, 100079, Note_on_c, 4, 74, 0
10, 100080, Note_on_c, 4, 76, 76
10, 100184, Note_on_c, 4, 76, 0
10, 100200, Note_on_c, 4, 77, 76
10, 100319, Note_on_c, 4, 77, 0
10, 100320, Note_on_c, 4, 79, 76
10, 100439, Note_on_c, 4, 79, 0
10, 100440, Note_on_c, 4, 77, 76
10, 100544, Note_on_c, 4, 77, 0
10, 100560, Note_on_c, 4, 76, 76
10, 100679, Note_on_c, 4, 76, 0
10, 100680, Note_on_c, 4, 73, 76
10, 100799, Note_on_c, 4, 73, 0
10, 100800, Note_on_c, 4, 74, 76
10, 100904, Note_on_c, 4, 74, 0
10, 100920, Note_on_c, 4, 73, 76
10, 101039, Note_on_c, 4, 73, 0
10, 101040, Note_on_c, 4, 74, 76
10, 101159, Note_on_c, 4, 74, 0
10, 101160, Note_on_c, 4, 76, 76
10, 101264, Note_on_c, 4, 76, 0
10, 101280, Note_on_c, 4, 69, 76
10, 101864, Note_on_c, 4, 69, 0
10, 101880, Note_on_c, 4, 81, 76
10, 101984, Note_on_c, 4, 81, 0
10, 102000, Note_on_c, 4, 83, 76
10, 102224, Note_on_c, 4, 83, 0
10, 102240, Note_on_c, 4, 85, 76
10, 102307, Note_on_c, 4, 85, 0
10, 102320, Note_on_c, 4, 85, 76
10, 102359, Note_on_c, 4, 85, 0
10, 102360, Note_on_c, 4, 86, 76
10, 102584, Note_on_c, 4, 86, 0
10, 102600, Note_on_c, 4, 81, 76
10, 102704, Note_on_c, 4, 81, 0
10, 102720, Note_on_c, 4, 78, 76
10, 102749, Note_on_c, 4, 78, 0
10, 102750, Note_on_c, 4, 79, 76
10, 102779, Note_on_c, 4, 79, 0
10, 102780, Note_on_c, 4, 76, 76
10, 102809, Note_on_c, 4, 76, 0
10, 102810, Note_on_c, 4, 78, 76
10, 102839, Note_on_c, 4, 78, 0
10, 102840, Note_on_c, 4, 76, 76
10, 102959, Note_on_c, 4, 76, 0
10, 102960, Note_on_c, 4, 74, 76
10, 103064, Note_on_c, 4, 74, 0
10, 103080, Note_on_c, 4, 74, 76
10, 103679, Note_on_c, 4, 74, 0
10, 103679, End_track
11, 0, Start_track
11, 0, Title_t, "Oboe II"
11, 0, MIDI_port, 0
11, 0, Program_c, 5, 68
11, 0, Control_c, 5, 10, 69
11, 0, Control_c, 5, 11, 127
11, 0, Control_c, 5, 7, 80
11, 0, Note_on_c, 5, 62, 76
11, 104, Note_on_c, 5, 62, 0
11, 120, Note_on_c, 5, 69, 76
11, 464, Note_on_c, 5, 69, 0
11, 480, Note_on_c, 5, 71, 76
11, 824, Note_on_c, 5, 71, 0
11, 840, Note_on_c, 5, 69, 76
11, 1304, Note_on_c, 5, 69, 0
11, 1320, Note_on_c, 5, 71, 76
11, 1424, Note_on_c, 5, 71, 0
11, 1440, Note_on_c, 5, 73, 76
11, 1544, Note_on_c, 5, 73, 0
11, 1560, Note_on_c, 5, 74, 76
11, 1679, Note_on_c, 5, 74, 0
11, 1680, Note_on_c, 5, 73, 76
11, 1799, Note_on_c, 5, 73, 0
11, 1800, Note_on_c, 5, 71, 76
11, 1904, Note_on_c, 5, 71, 0
11, 1920, Note_on_c, 5, 69, 76
11, 2039, Note_on_c, 5, 69, 0
11, 2040, Note_on_c, 5, 71, 76
11, 2159, Note_on_c, 5, 71, 0
11, 2160, Note_on_c, 5, 67, 76
11, 2264, Note_on_c, 5, 67, 0
11, 2280, Note_on_c, 5, 66, 76
11, 2399, Note_on_c, 5, 66, 0
11, 2400, Note_on_c, 5, 64, 76
11, 2519, Note_on_c, 5, 64, 0
11, 2520, Note_on_c, 5, 66, 76
11, 2624, Note_on_c, 5, 66, 0
11, 2640, Note_on_c, 5, 62, 76
11, 2759, Note_on_c, 5, 62, 0
11, 2760, Note_on_c, 5, 66, 76
11, 2879, Note_on_c, 5, 66, 0
11, 2880, Note_on_c, 5, 69, 76
11, 2984, Note_on_c, 5, 69, 0
11, 3000, Note_on_c, 5, 74, 76
11, 3344, Note_on_c, 5, 74, 0
11, 3360, Note_on_c, 5, 78, 76
11, 3704, Note_on_c, 5, 78, 0
11, 3720, Note_on_c, 5, 76, 76
11, 4304, Note_on_c, 5, 76, 0
11, 4320, Note_on_c, 5, 74, 76
11, 4424, Note_on_c, 5, 74, 0
11, 4440, Note_on_c, 5, 73, 76
11, 4559, Note_on_c, 5, 73, 0
11, 4560, Note_on_c, 5, 71, 76
11, 4679, Note_on_c, 5, 71, 0
11, 4680, Note_on_c, 5, 69, 76
11, 4784, Note_on_c, 5, 69, 0
11, 4800, Note_on_c, 5, 71, 76
11, 4919, Note_on_c, 5, 71, 0
11, 4920, Note_on_c, 5, 73, 76
11, 5039, Note_on_c, 5, 73, 0
11, 5040, Note_on_c, 5, 74, 76
11, 5144, Note_on_c, 5, 74, 0
11, 5160, Note_on_c, 5, 73, 76
11, 5279, Note_on_c, 5, 73, 0
11, 5280, Note_on_c, 5, 71, 76
11, 5399, Note_on_c, 5, 71, 0
11, 5400, Note_on_c, 5, 73, 76
11, 5504, Note_on_c, 5, 73, 0
11, 5520, Note_on_c, 5, 69, 76
11, 5639, Note_on_c, 5, 69, 0
11, 5640, Note_on_c, 5, 73, 76
11, 5759, Note_on_c, 5, 73, 0
11, 5760, Note_on_c, 5, 76, 76
11, 5864, Note_on_c, 5, 76, 0
11, 5880, Note_on_c, 5, 81, 76
11, 5999, Note_on_c, 5, 81, 0
11, 6000, Note_on_c, 5, 79, 76
11, 6119, Note_on_c, 5, 79, 0
11, 6120, Note_on_c, 5, 81, 76
11, 6224, Note_on_c, 5, 81, 0
11, 6240, Note_on_c, 5, 81, 76
11, 6359, Note_on_c, 5, 81, 0
11, 6360, Note_on_c, 5, 79, 76
11, 6479, Note_on_c, 5, 79, 0
11, 6480, Note_on_c, 5, 81, 76
11, 6584, Note_on_c, 5, 81, 0
11, 6600, Note_on_c, 5, 81, 76
11, 6719, Note_on_c, 5, 81, 0
11, 6720, Note_on_c, 5, 79, 76
11, 6839, Note_on_c, 5, 79, 0
11, 6840, Note_on_c, 5, 81, 76
11, 6944, Note_on_c, 5, 81, 0
11, 6960, Note_on_c, 5, 71, 76
11, 7079, Note_on_c, 5, 71, 0
11, 7080, Note_on_c, 5, 75, 76
11, 7199, Note_on_c, 5, 75, 0
11, 7200, Note_on_c, 5, 78, 76
11, 7304, Note_on_c, 5, 78, 0
11, 7320, Note_on_c, 5, 79, 76
11, 7439, Note_on_c, 5, 79, 0
11, 7440, Note_on_c, 5, 78, 76
11, 7559, Note_on_c, 5, 78, 0
11, 7560, Note_on_c, 5, 79, 76
11, 7664, Note_on_c, 5, 79, 0
11, 7680, Note_on_c, 5, 79, 76
11, 7799, Note_on_c, 5, 79, 0
11, 7800, Note_on_c, 5, 78, 76
11, 7919, Note_on_c, 5, 78, 0
11, 7920, Note_on_c, 5, 79, 76
11, 8024, Note_on_c, 5, 79, 0
11, 8040, Note_on_c, 5, 79, 76
11, 8159, Note_on_c, 5, 79, 0
11, 8160, Note_on_c, 5, 78, 76
11, 8279, Note_on_c, 5, 78, 0
11, 8280, Note_on_c, 5, 79, 76
11, 8384, Note_on_c, 5, 79, 0
11, 8400, Note_on_c, 5, 69, 76
11, 8519, Note_on_c, 5, 69, 0
11, 8520, Note_on_c, 5, 73, 76
11, 8639, Note_on_c, 5, 73, 0
11, 8640, Note_on_c, 5, 76, 76
11, 8744, Note_on_c, 5, 76, 0
11, 8760, Note_on_c, 5, 78, 76
11, 8879, Note_on_c, 5, 78, 0
11, 8880, Note_on_c, 5, 80, 76
11, 8999, Note_on_c, 5, 80, 0
11, 9000, Note_on_c, 5, 81, 76
11, 9104, Note_on_c, 5, 81, 0
11, 9120, Note_on_c, 5, 81, 76
11, 9239, Note_on_c, 5, 81, 0
11, 9240, Note_on_c, 5, 80, 76
11, 9359, Note_on_c, 5, 80, 0
11, 9360, Note_on_c, 5, 81, 76
11, 9464, Note_on_c, 5, 81, 0
11, 9480, Note_on_c, 5, 74, 76
11, 9599, Note_on_c, 5, 74, 0
11, 9600, Note_on_c, 5, 76, 76
11, 9719, Note_on_c, 5, 76, 0
11, 9720, Note_on_c, 5, 78, 76
11, 9824, Note_on_c, 5, 78, 0
11, 9840, Note_on_c, 5, 78, 76
11, 9959, Note_on_c, 5, 78, 0
11, 9960, Note_on_c, 5, 76, 76
11, 10079, Note_on_c, 5, 76, 0
11, 10080, Note_on_c, 5, 78, 76
11, 10184, Note_on_c, 5, 78, 0
11, 10200, Note_on_c, 5, 71, 76
11, 10319, Note_on_c, 5, 71, 0
11, 10320, Note_on_c, 5, 73, 76
11, 10439, Note_on_c, 5, 73, 0
11, 10440, Note_on_c, 5, 74, 76
11, 10544, Note_on_c, 5, 74, 0
11, 10560, Note_on_c, 5, 74, 76
11, 10679, Note_on_c, 5, 74, 0
11, 10680, Note_on_c, 5, 73, 76
11, 10799, Note_on_c, 5, 73, 0
11, 10800, Note_on_c, 5, 74, 76
11, 10904, Note_on_c, 5, 74, 0
11, 10920, Note_on_c, 5, 68, 76
11, 11039, Note_on_c, 5, 68, 0
11, 11040, Note_on_c, 5, 69, 76
11, 11159, Note_on_c, 5, 69, 0
11, 11160, Note_on_c, 5, 71, 76
11, 11264, Note_on_c, 5, 71, 0
11, 11280, Note_on_c, 5, 64, 76
11, 11399, Note_on_c, 5, 64, 0
11, 11400, Note_on_c, 5, 68, 76
11, 11519, Note_on_c, 5, 68, 0
11, 11520, Note_on_c, 5, 71, 76
11, 11624, Note_on_c, 5, 71, 0
11, 11640, Note_on_c, 5, 76, 76
11, 11759, Note_on_c, 5, 76, 0
11, 11760, Note_on_c, 5, 74, 76
11, 11879, Note_on_c, 5, 74, 0
11, 11880, Note_on_c, 5, 73, 76
11, 11984, Note_on_c, 5, 73, 0
11, 12000, Note_on_c, 5, 74, 76
11, 12119, Note_on_c, 5, 74, 0
11, 12120, Note_on_c, 5, 73, 76
11, 12239, Note_on_c, 5, 73, 0
11, 12240, Note_on_c, 5, 71, 76
11, 12344, Note_on_c, 5, 71, 0
11, 12360, Note_on_c, 5, 69, 76
11, 12584, Note_on_c, 5, 69, 0
11, 12600, Note_on_c, 5, 78, 76
11, 12704, Note_on_c, 5, 78, 0
11, 12720, Note_on_c, 5, 69, 76
11, 12944, Note_on_c, 5, 69, 0
11, 12960, Note_on_c, 5, 78, 76
11, 13064, Note_on_c, 5, 78, 0
11, 13080, Note_on_c, 5, 68, 76
11, 13304, Note_on_c, 5, 68, 0
11, 13320, Note_on_c, 5, 76, 76
11, 13424, Note_on_c, 5, 76, 0
11, 13440, Note_on_c, 5, 67, 76
11, 13664, Note_on_c, 5, 67, 0
11, 13680, Note_on_c, 5, 76, 76
11, 13784, Note_on_c, 5, 76, 0
11, 13800, Note_on_c, 5, 66, 76
11, 14024, Note_on_c, 5, 66, 0
11, 14040, Note_on_c, 5, 74, 76
11, 14144, Note_on_c, 5, 74, 0
11, 14160, Note_on_c, 5, 65, 76
11, 14384, Note_on_c, 5, 65, 0
11, 14400, Note_on_c, 5, 74, 76
11, 14504, Note_on_c, 5, 74, 0
11, 14520, Note_on_c, 5, 64, 76
11, 14984, Note_on_c, 5, 64, 0
11, 15000, Note_on_c, 5, 68, 76
11, 15104, Note_on_c, 5, 68, 0
11, 15120, Note_on_c, 5, 71, 76
11, 15224, Note_on_c, 5, 71, 0
11, 15240, Note_on_c, 5, 74, 76
11, 15359, Note_on_c, 5, 74, 0
11, 15360, Note_on_c, 5, 80, 76
11, 15479, Note_on_c, 5, 80, 0
11, 15480, Note_on_c, 5, 83, 76
11, 15584, Note_on_c, 5, 83, 0
11, 15600, Note_on_c, 5, 74, 76
11, 15719, Note_on_c, 5, 74, 0
11, 15720, Note_on_c, 5, 73, 76
11, 15839, Note_on_c, 5, 73, 0
11, 15840, Note_on_c, 5, 71, 76
11, 15944, Note_on_c, 5, 71, 0
11, 15960, Note_on_c, 5, 73, 76
11, 16019, Note_on_c, 5, 73, 0
11, 16020, Note_on_c, 5, 74, 76
11, 16079, Note_on_c, 5, 74, 0
11, 16080, Note_on_c, 5, 76, 76
11, 16184, Note_on_c, 5, 76, 0
11, 16200, Note_on_c, 5, 69, 76
11, 16304, Note_on_c, 5, 69, 0
11, 16320, Note_on_c, 5, 64, 76
11, 16424, Note_on_c, 5, 64, 0
11, 16440, Note_on_c, 5, 69, 76
11, 16544, Note_on_c, 5, 69, 0
11, 16560, Note_on_c, 5, 68, 76
11, 16664, Note_on_c, 5, 68, 0
11, 16680, Note_on_c, 5, 69, 76
11, 17264, Note_on_c, 5, 69, 0
11, 17280, Note_on_c, 5, 62, 76
11, 17384, Note_on_c, 5, 62, 0
11, 17400, Note_on_c, 5, 69, 76
11, 17744, Note_on_c, 5, 69, 0
11, 17760, Note_on_c, 5, 71, 76
11, 18104, Note_on_c, 5, 71, 0
11, 18120, Note_on_c, 5, 69, 76
11, 18584, Note_on_c, 5, 69, 0
11, 18600, Note_on_c, 5, 71, 76
11, 18704, Note_on_c, 5, 71, 0
11, 18720, Note_on_c, 5, 73, 76
11, 18824, Note_on_c, 5, 73, 0
11, 18840, Note_on_c, 5, 74, 76
11, 18959, Note_on_c, 5, 74, 0
11, 18960, Note_on_c, 5, 73, 76
11, 19079, Note_on_c, 5, 73, 0
11, 19080, Note_on_c, 5, 71, 76
11, 19184, Note_on_c, 5, 71, 0
11, 19200, Note_on_c, 5, 69, 76
11, 19319, Note_on_c, 5, 69, 0
11, 19320, Note_on_c, 5, 71, 76
11, 19439, Note_on_c, 5, 71, 0
11, 19440, Note_on_c, 5, 67, 76
11, 19544, Note_on_c, 5, 67, 0
11, 19560, Note_on_c, 5, 66, 76
11, 19679, Note_on_c, 5, 66, 0
11, 19680, Note_on_c, 5, 64, 76
11, 19799, Note_on_c, 5, 64, 0
11, 19800, Note_on_c, 5, 66, 76
11, 19904, Note_on_c, 5, 66, 0
11, 19920, Note_on_c, 5, 62, 76
11, 20039, Note_on_c, 5, 62, 0
11, 20040, Note_on_c, 5, 66, 76
11, 20159, Note_on_c, 5, 66, 0
11, 20160, Note_on_c, 5, 69, 76
11, 20264, Note_on_c, 5, 69, 0
11, 20280, Note_on_c, 5, 74, 76
11, 20624, Note_on_c, 5, 74, 0
11, 20640, Note_on_c, 5, 78, 76
11, 20984, Note_on_c, 5, 78, 0
11, 21000, Note_on_c, 5, 76, 76
11, 21584, Note_on_c, 5, 76, 0
11, 21600, Note_on_c, 5, 74, 76
11, 21704, Note_on_c, 5, 74, 0
11, 21720, Note_on_c, 5, 73, 76
11, 21839, Note_on_c, 5, 73, 0
11, 21840, Note_on_c, 5, 71, 76
11, 21959, Note_on_c, 5, 71, 0
11, 21960, Note_on_c, 5, 69, 76
11, 22064, Note_on_c, 5, 69, 0
11, 22080, Note_on_c, 5, 71, 76
11, 22199, Note_on_c, 5, 71, 0
11, 22200, Note_on_c, 5, 73, 76
11, 22319, Note_on_c, 5, 73, 0
11, 22320, Note_on_c, 5, 74, 76
11, 22424, Note_on_c, 5, 74, 0
11, 22440, Note_on_c, 5, 73, 76
11, 22559, Note_on_c, 5, 73, 0
11, 22560, Note_on_c, 5, 71, 76
11, 22679, Note_on_c, 5, 71, 0
11, 22680, Note_on_c, 5, 73, 76
11, 22784, Note_on_c, 5, 73, 0
11, 22800, Note_on_c, 5, 69, 76
11, 22919, Note_on_c, 5, 69, 0
11, 22920, Note_on_c, 5, 73, 76
11, 23039, Note_on_c, 5, 73, 0
11, 23040, Note_on_c, 5, 76, 76
11, 23144, Note_on_c, 5, 76, 0
11, 23160, Note_on_c, 5, 81, 76
11, 23279, Note_on_c, 5, 81, 0
11, 23280, Note_on_c, 5, 79, 76
11, 23399, Note_on_c, 5, 79, 0
11, 23400, Note_on_c, 5, 81, 76
11, 23504, Note_on_c, 5, 81, 0
11, 23520, Note_on_c, 5, 81, 76
11, 23639, Note_on_c, 5, 81, 0
11, 23640, Note_on_c, 5, 79, 76
11, 23759, Note_on_c, 5, 79, 0
11, 23760, Note_on_c, 5, 81, 76
11, 23864, Note_on_c, 5, 81, 0
11, 23880, Note_on_c, 5, 81, 76
11, 23999, Note_on_c, 5, 81, 0
11, 24000, Note_on_c, 5, 79, 76
11, 24119, Note_on_c, 5, 79, 0
11, 24120, Note_on_c, 5, 81, 76
11, 24224, Note_on_c, 5, 81, 0
11, 24240, Note_on_c, 5, 71, 76
11, 24359, Note_on_c, 5, 71, 0
11, 24360, Note_on_c, 5, 75, 76
11, 24479, Note_on_c, 5, 75, 0
11, 24480, Note_on_c, 5, 78, 76
11, 24584, Note_on_c, 5, 78, 0
11, 24600, Note_on_c, 5, 79, 76
11, 24719, Note_on_c, 5, 79, 0
11, 24720, Note_on_c, 5, 78, 76
11, 24839, Note_on_c, 5, 78, 0
11, 24840, Note_on_c, 5, 79, 76
11, 24944, Note_on_c, 5, 79, 0
11, 24960, Note_on_c, 5, 79, 76
11, 25079, Note_on_c, 5, 79, 0
11, 25080, Note_on_c, 5, 78, 76
11, 25199, Note_on_c, 5, 78, 0
11, 25200, Note_on_c, 5, 79, 76
11, 25304, Note_on_c, 5, 79, 0
11, 25320, Note_on_c, 5, 79, 76
11, 25439, Note_on_c, 5, 79, 0
11, 25440, Note_on_c, 5, 78, 76
11, 25559, Note_on_c, 5, 78, 0
11, 25560, Note_on_c, 5, 79, 76
11, 25664, Note_on_c, 5, 79, 0
11, 25680, Note_on_c, 5, 69, 76
11, 25799, Note_on_c, 5, 69, 0
11, 25800, Note_on_c, 5, 73, 76
11, 25919, Note_on_c, 5, 73, 0
11, 25920, Note_on_c, 5, 76, 76
11, 26024, Note_on_c, 5, 76, 0
11, 26040, Note_on_c, 5, 78, 76
11, 26159, Note_on_c, 5, 78, 0
11, 26160, Note_on_c, 5, 80, 76
11, 26279, Note_on_c, 5, 80, 0
11, 26280, Note_on_c, 5, 81, 76
11, 26384, Note_on_c, 5, 81, 0
11, 26400, Note_on_c, 5, 81, 76
11, 26519, Note_on_c, 5, 81, 0
11, 26520, Note_on_c, 5, 80, 76
11, 26639, Note_on_c, 5, 80, 0
11, 26640, Note_on_c, 5, 81, 76
11, 26744, Note_on_c, 5, 81, 0
11, 26760, Note_on_c, 5, 74, 76
11, 26879, Note_on_c, 5, 74, 0
11, 26880, Note_on_c, 5, 76, 76
11, 26999, Note_on_c, 5, 76, 0
11, 27000, Note_on_c, 5, 78, 76
11, 27104, Note_on_c, 5, 78, 0
11, 27120, Note_on_c, 5, 78, 76
11, 27239, Note_on_c, 5, 78, 0
11, 27240, Note_on_c, 5, 76, 76
11, 27359, Note_on_c, 5, 76, 0
11, 27360, Note_on_c, 5, 78, 76
11, 27464, Note_on_c, 5, 78, 0
11, 27480, Note_on_c, 5, 71, 76
11, 27599, Note_on_c, 5, 71, 0
11, 27600, Note_on_c, 5, 73, 76
11, 27719, Note_on_c, 5, 73, 0
11, 27720, Note_on_c, 5, 74, 76
11, 27824, Note_on_c, 5, 74, 0
11, 27840, Note_on_c, 5, 74, 76
11, 27959, Note_on_c, 5, 74, 0
11, 27960, Note_on_c, 5, 73, 76
11, 28079, Note_on_c, 5, 73, 0
11, 28080, Note_on_c, 5, 74, 76
11, 28184, Note_on_c, 5, 74, 0
11, 28200, Note_on_c, 5, 68, 76
11, 28319, Note_on_c, 5, 68, 0
11, 28320, Note_on_c, 5, 69, 76
11, 28439, Note_on_c, 5, 69, 0
11, 28440, Note_on_c, 5, 71, 76
11, 28544, Note_on_c, 5, 71, 0
11, 28560, Note_on_c, 5, 64, 76
11, 28679, Note_on_c, 5, 64, 0
11, 28680, Note_on_c, 5, 68, 76
11, 28799, Note_on_c, 5, 68, 0
11, 28800, Note_on_c, 5, 71, 76
11, 28904, Note_on_c, 5, 71, 0
11, 28920, Note_on_c, 5, 76, 76
11, 29039, Note_on_c, 5, 76, 0
11, 29040, Note_on_c, 5, 74, 76
11, 29159, Note_on_c, 5, 74, 0
11, 29160, Note_on_c, 5, 73, 76
11, 29264, Note_on_c, 5, 73, 0
11, 29280, Note_on_c, 5, 74, 76
11, 29399, Note_on_c, 5, 74, 0
11, 29400, Note_on_c, 5, 73, 76
11, 29519, Note_on_c, 5, 73, 0
11, 29520, Note_on_c, 5, 71, 76
11, 29624, Note_on_c, 5, 71, 0
11, 29640, Note_on_c, 5, 69, 76
11, 29864, Note_on_c, 5, 69, 0
11, 29880, Note_on_c, 5, 78, 76
11, 29984, Note_on_c, 5, 78, 0
11, 30000, Note_on_c, 5, 69, 76
11, 30224, Note_on_c, 5, 69, 0
11, 30240, Note_on_c, 5, 78, 76
11, 30344, Note_on_c, 5, 78, 0
11, 30360, Note_on_c, 5, 68, 76
11, 30584, Note_on_c, 5, 68, 0
11, 30600, Note_on_c, 5, 76, 76
11, 30704, Note_on_c, 5, 76, 0
11, 30720, Note_on_c, 5, 67, 76
11, 30944, Note_on_c, 5, 67, 0
11, 30960, Note_on_c, 5, 76, 76
11, 31064, Note_on_c, 5, 76, 0
11, 31080, Note_on_c, 5, 66, 76
11, 31304, Note_on_c, 5, 66, 0
11, 31320, Note_on_c, 5, 74, 76
11, 31424, Note_on_c, 5, 74, 0
11, 31440, Note_on_c, 5, 65, 76
11, 31664, Note_on_c, 5, 65, 0
11, 31680, Note_on_c, 5, 74, 76
11, 31784, Note_on_c, 5, 74, 0
11, 31800, Note_on_c, 5, 64, 76
11, 32264, Note_on_c, 5, 64, 0
11, 32280, Note_on_c, 5, 68, 76
11, 32384, Note_on_c, 5, 68, 0
11, 32400, Note_on_c, 5, 71, 76
11, 32504, Note_on_c, 5, 71, 0
11, 32520, Note_on_c, 5, 74, 76
11, 32639, Note_on_c, 5, 74, 0
11, 32640, Note_on_c, 5, 80, 76
11, 32759, Note_on_c, 5, 80, 0
11, 32760, Note_on_c, 5, 83, 76
11, 32864, Note_on_c, 5, 83, 0
11, 32880, Note_on_c, 5, 74, 76
11, 32999, Note_on_c, 5, 74, 0
11, 33000, Note_on_c, 5, 73, 76
11, 33119, Note_on_c, 5, 73, 0
11, 33120, Note_on_c, 5, 71, 76
11, 33224, Note_on_c, 5, 71, 0
11, 33240, Note_on_c, 5, 73, 76
11, 33299, Note_on_c, 5, 73, 0
11, 33300, Note_on_c, 5, 74, 76
11, 33359, Note_on_c, 5, 74, 0
11, 33360, Note_on_c, 5, 76, 76
11, 33464, Note_on_c, 5, 76, 0
11, 33480, Note_on_c, 5, 69, 76
11, 33584, Note_on_c, 5, 69, 0
11, 33600, Note_on_c, 5, 64, 76
11, 33704, Note_on_c, 5, 64, 0
11, 33720, Note_on_c, 5, 69, 76
11, 33824, Note_on_c, 5, 69, 0
11, 33840, Note_on_c, 5, 68, 76
11, 33944, Note_on_c, 5, 68, 0
11, 33960, Note_on_c, 5, 69, 76
11, 34544, Note_on_c, 5, 69, 0
11, 34560, Note_on_c, 5, 69, 76
11, 34664, Note_on_c, 5, 69, 0
11, 34680, Note_on_c, 5, 76, 76
11, 35024, Note_on_c, 5, 76, 0
11, 35040, Note_on_c, 5, 78, 76
11, 35384, Note_on_c, 5, 78, 0
11, 35400, Note_on_c, 5, 76, 76
11, 35864, Note_on_c, 5, 76, 0
11, 35880, Note_on_c, 5, 78, 76
11, 35984, Note_on_c, 5, 78, 0
11, 36000, Note_on_c, 5, 79, 76
11, 36104, Note_on_c, 5, 79, 0
11, 36120, Note_on_c, 5, 78, 76
11, 36239, Note_on_c, 5, 78, 0
11, 36240, Note_on_c, 5, 76, 76
11, 36359, Note_on_c, 5, 76, 0
11, 36360, Note_on_c, 5, 74, 76
11, 36464, Note_on_c, 5, 74, 0
11, 36480, Note_on_c, 5, 73, 76
11, 36599, Note_on_c, 5, 73, 0
11, 36600, Note_on_c, 5, 74, 76
11, 36719, Note_on_c, 5, 74, 0
11, 36720, Note_on_c, 5, 71, 76
11, 36824, Note_on_c, 5, 71, 0
11, 36840, Note_on_c, 5, 70, 76
11, 36959, Note_on_c, 5, 70, 0
11, 36960, Note_on_c, 5, 71, 76
11, 37079, Note_on_c, 5, 71, 0
11, 37080, Note_on_c, 5, 73, 76
11, 37184, Note_on_c, 5, 73, 0
11, 37200, Note_on_c, 5, 66, 76
11, 37304, Note_on_c, 5, 66, 0
11, 37320, Note_on_c, 5, 70, 76
11, 37424, Note_on_c, 5, 70, 0
11, 37440, Note_on_c, 5, 73, 76
11, 37544, Note_on_c, 5, 73, 0
11, 37560, Note_on_c, 5, 78, 76
11, 37904, Note_on_c, 5, 78, 0
11, 37920, Note_on_c, 5, 79, 76
11, 38264, Note_on_c, 5, 79, 0
11, 38280, Note_on_c, 5, 78, 76
11, 38744, Note_on_c, 5, 78, 0
11, 38760, Note_on_c, 5, 76, 76
11, 38864, Note_on_c, 5, 76, 0
11, 38880, Note_on_c, 5, 74, 76
11, 38984, Note_on_c, 5, 74, 0
11, 39000, Note_on_c, 5, 73, 76
11, 39119, Note_on_c, 5, 73, 0
11, 39120, Note_on_c, 5, 74, 76
11, 39239, Note_on_c, 5, 74, 0
11, 39240, Note_on_c, 5, 71, 76
11, 39344, Note_on_c, 5, 71, 0
11, 39360, Note_on_c, 5, 66, 76
11, 39479, Note_on_c, 5, 66, 0
11, 39480, Note_on_c, 5, 71, 76
11, 39599, Note_on_c, 5, 71, 0
11, 39600, Note_on_c, 5, 70, 76
11, 39704, Note_on_c, 5, 70, 0
11, 39720, Note_on_c, 5, 71, 76
11, 40184, Note_on_c, 5, 71, 0
11, 40200, Note_on_c, 5, 74, 76
11, 40304, Note_on_c, 5, 74, 0
11, 40320, Note_on_c, 5, 73, 76
11, 40424, Note_on_c, 5, 73, 0
11, 40440, Note_on_c, 5, 74, 76
11, 40559, Note_on_c, 5, 74, 0
11, 40560, Note_on_c, 5, 73, 76
11, 40679, Note_on_c, 5, 73, 0
11, 40680, Note_on_c, 5, 74, 76
11, 40784, Note_on_c, 5, 74, 0
11, 40800, Note_on_c, 5, 74, 76
11, 40919, Note_on_c, 5, 74, 0
11, 40920, Note_on_c, 5, 73, 76
11, 41039, Note_on_c, 5, 73, 0
11, 41040, Note_on_c, 5, 74, 76
11, 41144, Note_on_c, 5, 74, 0
11, 41160, Note_on_c, 5, 74, 76
11, 41279, Note_on_c, 5, 74, 0
11, 41280, Note_on_c, 5, 73, 76
11, 41399, Note_on_c, 5, 73, 0
11, 41400, Note_on_c, 5, 74, 76
11, 41504, Note_on_c, 5, 74, 0
11, 41520, Note_on_c, 5, 64, 76
11, 41639, Note_on_c, 5, 64, 0
11, 41640, Note_on_c, 5, 68, 76
11, 41759, Note_on_c, 5, 68, 0
11, 41760, Note_on_c, 5, 71, 76
11, 41864, Note_on_c, 5, 71, 0
11, 41880, Note_on_c, 5, 76, 76
11, 41999, Note_on_c, 5, 76, 0
11, 42000, Note_on_c, 5, 74, 76
11, 42119, Note_on_c, 5, 74, 0
11, 42120, Note_on_c, 5, 73, 76
11, 42224, Note_on_c, 5, 73, 0
11, 42240, Note_on_c, 5, 71, 76
11, 42359, Note_on_c, 5, 71, 0
11, 42360, Note_on_c, 5, 73, 76
11, 42479, Note_on_c, 5, 73, 0
11, 42480, Note_on_c, 5, 74, 76
11, 42584, Note_on_c, 5, 74, 0
11, 42600, Note_on_c, 5, 73, 76
11, 42719, Note_on_c, 5, 73, 0
11, 42720, Note_on_c, 5, 71, 76
11, 42839, Note_on_c, 5, 71, 0
11, 42840, Note_on_c, 5, 73, 76
11, 42944, Note_on_c, 5, 73, 0
11, 42960, Note_on_c, 5, 69, 76
11, 43079, Note_on_c, 5, 69, 0
11, 43080, Note_on_c, 5, 73, 76
11, 43199, Note_on_c, 5, 73, 0
11, 43200, Note_on_c, 5, 76, 76
11, 43304, Note_on_c, 5, 76, 0
11, 43320, Note_on_c, 5, 79, 76
11, 43439, Note_on_c, 5, 79, 0
11, 43440, Note_on_c, 5, 78, 76
11, 43559, Note_on_c, 5, 78, 0
11, 43560, Note_on_c, 5, 79, 76
11, 43664, Note_on_c, 5, 79, 0
11, 43680, Note_on_c, 5, 79, 76
11, 43799, Note_on_c, 5, 79, 0
11, 43800, Note_on_c, 5, 78, 76
11, 43919, Note_on_c, 5, 78, 0
11, 43920, Note_on_c, 5, 79, 76
11, 44024, Note_on_c, 5, 79, 0
11, 44040, Note_on_c, 5, 79, 76
11, 44159, Note_on_c, 5, 79, 0
11, 44160, Note_on_c, 5, 78, 76
11, 44279, Note_on_c, 5, 78, 0
11, 44280, Note_on_c, 5, 79, 76
11, 44384, Note_on_c, 5, 79, 0
11, 44400, Note_on_c, 5, 69, 76
11, 44519, Note_on_c, 5, 69, 0
11, 44520, Note_on_c, 5, 73, 76
11, 44639, Note_on_c, 5, 73, 0
11, 44640, Note_on_c, 5, 76, 76
11, 44744, Note_on_c, 5, 76, 0
11, 44760, Note_on_c, 5, 81, 76
11, 44879, Note_on_c, 5, 81, 0
11, 44880, Note_on_c, 5, 79, 76
11, 44999, Note_on_c, 5, 79, 0
11, 45000, Note_on_c, 5, 78, 76
11, 45104, Note_on_c, 5, 78, 0
11, 45120, Note_on_c, 5, 76, 76
11, 45239, Note_on_c, 5, 76, 0
11, 45240, Note_on_c, 5, 78, 76
11, 45359, Note_on_c, 5, 78, 0
11, 45360, Note_on_c, 5, 79, 76
11, 45464, Note_on_c, 5, 79, 0
11, 45480, Note_on_c, 5, 78, 76
11, 45599, Note_on_c, 5, 78, 0
11, 45600, Note_on_c, 5, 76, 76
11, 45719, Note_on_c, 5, 76, 0
11, 45720, Note_on_c, 5, 78, 76
11, 45824, Note_on_c, 5, 78, 0
11, 45840, Note_on_c, 5, 74, 76
11, 45959, Note_on_c, 5, 74, 0
11, 45960, Note_on_c, 5, 78, 76
11, 46079, Note_on_c, 5, 78, 0
11, 46080, Note_on_c, 5, 76, 76
11, 46184, Note_on_c, 5, 76, 0
11, 46200, Note_on_c, 5, 78, 76
11, 46319, Note_on_c, 5, 78, 0
11, 46320, Note_on_c, 5, 80, 76
11, 46439, Note_on_c, 5, 80, 0
11, 46440, Note_on_c, 5, 81, 76
11, 46544, Note_on_c, 5, 81, 0
11, 46560, Note_on_c, 5, 80, 76
11, 46679, Note_on_c, 5, 80, 0
11, 46680, Note_on_c, 5, 81, 76
11, 46799, Note_on_c, 5, 81, 0
11, 46800, Note_on_c, 5, 83, 76
11, 46904, Note_on_c, 5, 83, 0
11, 46920, Note_on_c, 5, 73, 76
11, 47384, Note_on_c, 5, 73, 0
11, 47400, Note_on_c, 5, 80, 76
11, 47504, Note_on_c, 5, 80, 0
11, 47520, Note_on_c, 5, 83, 76
11, 47624, Note_on_c, 5, 83, 0
11, 47640, Note_on_c, 5, 81, 76
11, 47759, Note_on_c, 5, 81, 0
11, 47760, Note_on_c, 5, 80, 76
11, 47879, Note_on_c, 5, 80, 0
11, 47880, Note_on_c, 5, 78, 76
11, 47984, Note_on_c, 5, 78, 0
11, 48000, Note_on_c, 5, 76, 76
11, 48119, Note_on_c, 5, 76, 0
11, 48120, Note_on_c, 5, 74, 76
11, 48239, Note_on_c, 5, 74, 0
11, 48240, Note_on_c, 5, 73, 76
11, 48344, Note_on_c, 5, 73, 0
11, 48360, Note_on_c, 5, 71, 76
11, 48824, Note_on_c, 5, 71, 0
11, 48840, Note_on_c, 5, 78, 76
11, 48944, Note_on_c, 5, 78, 0
11, 48960, Note_on_c, 5, 81, 76
11, 49064, Note_on_c, 5, 81, 0
11, 49080, Note_on_c, 5, 80, 76
11, 49199, Note_on_c, 5, 80, 0
11, 49200, Note_on_c, 5, 78, 76
11, 49319, Note_on_c, 5, 78, 0
11, 49320, Note_on_c, 5, 77, 76
11, 49424, Note_on_c, 5, 77, 0
11, 49440, Note_on_c, 5, 78, 76
11, 49559, Note_on_c, 5, 78, 0
11, 49560, Note_on_c, 5, 76, 76
11, 49679, Note_on_c, 5, 76, 0
11, 49680, Note_on_c, 5, 74, 76
11, 49784, Note_on_c, 5, 74, 0
11, 49800, Note_on_c, 5, 73, 76
11, 49919, Note_on_c, 5, 73, 0
11, 49920, Note_on_c, 5, 78, 76
11, 50039, Note_on_c, 5, 78, 0
11, 50040, Note_on_c, 5, 76, 76
11, 50144, Note_on_c, 5, 76, 0
11, 50160, Note_on_c, 5, 74, 76
11, 50279, Note_on_c, 5, 74, 0
11, 50280, Note_on_c, 5, 73, 76
11, 50399, Note_on_c, 5, 73, 0
11, 50400, Note_on_c, 5, 71, 76
11, 50504, Note_on_c, 5, 71, 0
11, 50520, Note_on_c, 5, 69, 76
11, 50639, Note_on_c, 5, 69, 0
11, 50640, Note_on_c, 5, 68, 76
11, 50759, Note_on_c, 5, 68, 0
11, 50760, Note_on_c, 5, 66, 76
11, 50864, Note_on_c, 5, 66, 0
11, 50880, Note_on_c, 5, 71, 76
11, 50999, Note_on_c, 5, 71, 0
11, 51000, Note_on_c, 5, 69, 76
11, 51119, Note_on_c, 5, 69, 0
11, 51120, Note_on_c, 5, 68, 76
11, 51224, Note_on_c, 5, 68, 0
11, 51240, Note_on_c, 5, 66, 76
11, 51824, Note_on_c, 5, 66, 0
11, 51840, Note_on_c, 5, 62, 76
11, 51944, Note_on_c, 5, 62, 0
11, 51960, Note_on_c, 5, 69, 76
11, 52304, Note_on_c, 5, 69, 0
11, 52320, Note_on_c, 5, 71, 76
11, 52664, Note_on_c, 5, 71, 0
11, 52680, Note_on_c, 5, 72, 76
11, 53144, Note_on_c, 5, 72, 0
11, 53160, Note_on_c, 5, 71, 76
11, 53264, Note_on_c, 5, 71, 0
11, 53280, Note_on_c, 5, 69, 76
11, 53384, Note_on_c, 5, 69, 0
11, 53400, Note_on_c, 5, 71, 76
11, 53519, Note_on_c, 5, 71, 0
11, 53520, Note_on_c, 5, 74, 76
11, 53639, Note_on_c, 5, 74, 0
11, 53640, Note_on_c, 5, 79, 76
11, 53744, Note_on_c, 5, 79, 0
11, 53760, Note_on_c, 5, 69, 76
11, 53879, Note_on_c, 5, 69, 0
11, 53880, Note_on_c, 5, 79, 76
11, 53999, Note_on_c, 5, 79, 0
11, 54000, Note_on_c, 5, 78, 76
11, 54104, Note_on_c, 5, 78, 0
11, 54120, Note_on_c, 5, 79, 76
11, 54239, Note_on_c, 5, 79, 0
11, 54240, Note_on_c, 5, 83, 76
11, 54359, Note_on_c, 5, 83, 0
11, 54360, Note_on_c, 5, 81, 76
11, 54427, Note_on_c, 5, 81, 0
11, 54440, Note_on_c, 5, 81, 76
11, 54479, Note_on_c, 5, 81, 0
11, 54480, Note_on_c, 5, 83, 76
11, 54944, Note_on_c, 5, 83, 0
11, 54960, Note_on_c, 5, 81, 76
11, 55064, Note_on_c, 5, 81, 0
11, 55080, Note_on_c, 5, 79, 76
11, 55184, Note_on_c, 5, 79, 0
11, 55200, Note_on_c, 5, 78, 76
11, 55319, Note_on_c, 5, 78, 0
11, 55320, Note_on_c, 5, 79, 76
11, 55439, Note_on_c, 5, 79, 0
11, 55440, Note_on_c, 5, 76, 76
11, 55544, Note_on_c, 5, 76, 0
11, 55560, Note_on_c, 5, 78, 76
11, 55679, Note_on_c, 5, 78, 0
11, 55680, Note_on_c, 5, 81, 76
11, 55799, Note_on_c, 5, 81, 0
11, 55800, Note_on_c, 5, 79, 76
11, 55867, Note_on_c, 5, 79, 0
11, 55880, Note_on_c, 5, 79, 76
11, 55919, Note_on_c, 5, 79, 0
11, 55920, Note_on_c, 5, 81, 76
11, 56384, Note_on_c, 5, 81, 0
11, 56400, Note_on_c, 5, 79, 76
11, 56504, Note_on_c, 5, 79, 0
11, 56520, Note_on_c, 5, 78, 76
11, 56624, Note_on_c, 5, 78, 0
11, 56640, Note_on_c, 5, 76, 76
11, 56759, Note_on_c, 5, 76, 0
11, 56760, Note_on_c, 5, 78, 76
11, 56879, Note_on_c, 5, 78, 0
11, 56880, Note_on_c, 5, 75, 76
11, 56984, Note_on_c, 5, 75, 0
11, 57000, Note_on_c, 5, 76, 76
11, 57119, Note_on_c, 5, 76, 0
11, 57120, Note_on_c, 5, 79, 76
11, 57239, Note_on_c, 5, 79, 0
11, 57240, Note_on_c, 5, 78, 76
11, 57307, Note_on_c, 5, 78, 0
11, 57320, Note_on_c, 5, 78, 76
11, 57359, Note_on_c, 5, 78, 0
11, 57360, Note_on_c, 5, 79, 76
11, 57824, Note_on_c, 5, 79, 0
11, 57840, Note_on_c, 5, 78, 76
11, 57944, Note_on_c, 5, 78, 0
11, 57960, Note_on_c, 5, 76, 76
11, 58064, Note_on_c, 5, 76, 0
11, 58080, Note_on_c, 5, 74, 76
11, 58199, Note_on_c, 5, 74, 0
11, 58200, Note_on_c, 5, 76, 76
11, 58319, Note_on_c, 5, 76, 0
11, 58320, Note_on_c, 5, 73, 76
11, 58424, Note_on_c, 5, 73, 0
11, 58440, Note_on_c, 5, 74, 76
11, 58559, Note_on_c, 5, 74, 0
11, 58560, Note_on_c, 5, 78, 76
11, 58679, Note_on_c, 5, 78, 0
11, 58680, Note_on_c, 5, 76, 76
11, 58784, Note_on_c, 5, 76, 0
11, 58800, Note_on_c, 5, 78, 76
11, 58919, Note_on_c, 5, 78, 0
11, 58920, Note_on_c, 5, 79, 76
11, 59039, Note_on_c, 5, 79, 0
11, 59040, Note_on_c, 5, 81, 76
11, 59144, Note_on_c, 5, 81, 0
11, 59160, Note_on_c, 5, 71, 76
11, 59279, Note_on_c, 5, 71, 0
11, 59280, Note_on_c, 5, 73, 76
11, 59399, Note_on_c, 5, 73, 0
11, 59400, Note_on_c, 5, 74, 76
11, 59504, Note_on_c, 5, 74, 0
11, 59520, Note_on_c, 5, 76, 76
11, 59639, Note_on_c, 5, 76, 0
11, 59640, Note_on_c, 5, 78, 76
11, 59759, Note_on_c, 5, 78, 0
11, 59760, Note_on_c, 5, 74, 76
11, 59864, Note_on_c, 5, 74, 0
11, 59880, Note_on_c, 5, 73, 76
11, 59999, Note_on_c, 5, 73, 0
11, 60000, Note_on_c, 5, 74, 76
11, 60119, Note_on_c, 5, 74, 0
11, 60120, Note_on_c, 5, 76, 76
11, 60224, Note_on_c, 5, 76, 0
11, 60240, Note_on_c, 5, 78, 76
11, 60359, Note_on_c, 5, 78, 0
11, 60360, Note_on_c, 5, 79, 76
11, 60479, Note_on_c, 5, 79, 0
11, 60480, Note_on_c, 5, 76, 76
11, 60584, Note_on_c, 5, 76, 0
11, 60600, Note_on_c, 5, 74, 76
11, 60719, Note_on_c, 5, 74, 0
11, 60720, Note_on_c, 5, 76, 76
11, 60839, Note_on_c, 5, 76, 0
11, 60840, Note_on_c, 5, 78, 76
11, 60944, Note_on_c, 5, 78, 0
11, 60960, Note_on_c, 5, 79, 76
11, 61079, Note_on_c, 5, 79, 0
11, 61080, Note_on_c, 5, 81, 76
11, 61199, Note_on_c, 5, 81, 0
11, 61200, Note_on_c, 5, 78, 76
11, 61304, Note_on_c, 5, 78, 0
11, 61320, Note_on_c, 5, 76, 76
11, 61439, Note_on_c, 5, 76, 0
11, 61440, Note_on_c, 5, 78, 76
11, 61559, Note_on_c, 5, 78, 0
11, 61560, Note_on_c, 5, 79, 76
11, 61664, Note_on_c, 5, 79, 0
11, 61680, Note_on_c, 5, 81, 76
11, 61799, Note_on_c, 5, 81, 0
11, 61800, Note_on_c, 5, 83, 76
11, 61919, Note_on_c, 5, 83, 0
11, 61920, Note_on_c, 5, 79, 76
11, 61987, Note_on_c, 5, 79, 0
11, 62000, Note_on_c, 5, 79, 76
11, 62039, Note_on_c, 5, 79, 0
11, 62040, Note_on_c, 5, 78, 76
11, 62504, Note_on_c, 5, 78, 0
11, 62520, Note_on_c, 5, 76, 76
11, 62624, Note_on_c, 5, 76, 0
11, 62640, Note_on_c, 5, 74, 76
11, 62744, Note_on_c, 5, 74, 0
11, 62760, Note_on_c, 5, 76, 76
11, 62879, Note_on_c, 5, 76, 0
11, 62880, Note_on_c, 5, 73, 76
11, 62999, Note_on_c, 5, 73, 0
11, 63000, Note_on_c, 5, 74, 76
11, 63104, Note_on_c, 5, 74, 0
11, 63120, Note_on_c, 5, 69, 76
11, 63239, Note_on_c, 5, 69, 0
11, 63240, Note_on_c, 5, 74, 76
11, 63359, Note_on_c, 5, 74, 0
11, 63360, Note_on_c, 5, 73, 76
11, 63464, Note_on_c, 5, 73, 0
11, 63480, Note_on_c, 5, 62, 76
11, 63704, Note_on_c, 5, 62, 0
11, 63720, Note_on_c, 5, 74, 76
11, 63824, Note_on_c, 5, 74, 0
11, 63840, Note_on_c, 5, 81, 76
11, 64304, Note_on_c, 5, 81, 0
11, 64320, Note_on_c, 5, 83, 76
11, 64424, Note_on_c, 5, 83, 0
11, 64440, Note_on_c, 5, 81, 76
11, 64544, Note_on_c, 5, 81, 0
11, 64560, Note_on_c, 5, 80, 76
11, 64679, Note_on_c, 5, 80, 0
11, 64680, Note_on_c, 5, 76, 76
11, 64799, Note_on_c, 5, 76, 0
11, 64800, Note_on_c, 5, 78, 76
11, 64904, Note_on_c, 5, 78, 0
11, 64920, Note_on_c, 5, 79, 76
11, 65039, Note_on_c, 5, 79, 0
11, 65040, Note_on_c, 5, 81, 76
11, 65159, Note_on_c, 5, 81, 0
11, 65160, Note_on_c, 5, 79, 76
11, 65264, Note_on_c, 5, 79, 0
11, 65280, Note_on_c, 5, 78, 76
11, 65399, Note_on_c, 5, 78, 0
11, 65400, Note_on_c, 5, 74, 76
11, 65519, Note_on_c, 5, 74, 0
11, 65520, Note_on_c, 5, 76, 76
11, 65624, Note_on_c, 5, 76, 0
11, 65640, Note_on_c, 5, 77, 76
11, 65759, Note_on_c, 5, 77, 0
11, 65760, Note_on_c, 5, 79, 76
11, 65879, Note_on_c, 5, 79, 0
11, 65880, Note_on_c, 5, 77, 76
11, 65984, Note_on_c, 5, 77, 0
11, 66000, Note_on_c, 5, 76, 76
11, 66119, Note_on_c, 5, 76, 0
11, 66120, Note_on_c, 5, 73, 76
11, 66239, Note_on_c, 5, 73, 0
11, 66240, Note_on_c, 5, 74, 76
11, 66344, Note_on_c, 5, 74, 0
11, 66360, Note_on_c, 5, 73, 76
11, 66479, Note_on_c, 5, 73, 0
11, 66480, Note_on_c, 5, 74, 76
11, 66599, Note_on_c, 5, 74, 0
11, 66600, Note_on_c, 5, 76, 76
11, 66704, Note_on_c, 5, 76, 0
11, 66720, Note_on_c, 5, 69, 76
11, 67304, Note_on_c, 5, 69, 0
11, 67320, Note_on_c, 5, 81, 76
11, 67424, Note_on_c, 5, 81, 0
11, 67440, Note_on_c, 5, 83, 76
11, 67664, Note_on_c, 5, 83, 0
11, 67680, Note_on_c, 5, 85, 76
11, 67747, Note_on_c, 5, 85, 0
11, 67760, Note_on_c, 5, 85, 76
11, 67799, Note_on_c, 5, 85, 0
11, 67800, Note_on_c, 5, 86, 76
11, 68024, Note_on_c, 5, 86, 0
11, 68040, Note_on_c, 5, 81, 76
11, 68144, Note_on_c, 5, 81, 0
11, 68160, Note_on_c, 5, 78, 76
11, 68189, Note_on_c, 5, 78, 0
11, 68190, Note_on_c, 5, 79, 76
11, 68219, Note_on_c, 5, 79, 0
11, 68220, Note_on_c, 5, 76, 76
11, 68249, Note_on_c, 5, 76, 0
11, 68250, Note_on_c, 5, 78, 76
11, 68279, Note_on_c, 5, 78, 0
11, 68280, Note_on_c, 5, 76, 76
11, 68399, Note_on_c, 5, 76, 0
11, 68400, Note_on_c, 5, 74, 76
11, 68504, Note_on_c, 5, 74, 0
11, 68520, Note_on_c, 5, 74, 76
11, 69104, Note_on_c, 5, 74, 0
11, 69120, Note_on_c, 5, 69, 76
11, 69224, Note_on_c, 5, 69, 0
11, 69240, Note_on_c, 5, 76, 76
11, 69584, Note_on_c, 5, 76, 0
11, 69600, Note_on_c, 5, 78, 76
11, 69944, Note_on_c, 5, 78, 0
11, 69960, Note_on_c, 5, 76, 76
11, 70424, Note_on_c, 5, 76, 0
11, 70440, Note_on_c, 5, 78, 76
11, 70544, Note_on_c, 5, 78, 0
11, 70560, Note_on_c, 5, 79, 76
11, 70664, Note_on_c, 5, 79, 0
11, 70680, Note_on_c, 5, 78, 76
11, 70799, Note_on_c, 5, 78, 0
11, 70800, Note_on_c, 5, 76, 76
11, 70919, Note_on_c, 5, 76, 0
11, 70920, Note_on_c, 5, 74, 76
11, 71024, Note_on_c, 5, 74, 0
11, 71040, Note_on_c, 5, 73, 76
11, 71159, Note_on_c, 5, 73, 0
11, 71160, Note_on_c, 5, 74, 76
11, 71279, Note_on_c, 5, 74, 0
11, 71280, Note_on_c, 5, 71, 76
11, 71384, Note_on_c, 5, 71, 0
11, 71400, Note_on_c, 5, 70, 76
11, 71519, Note_on_c, 5, 70, 0
11, 71520, Note_on_c, 5, 71, 76
11, 71639, Note_on_c, 5, 71, 0
11, 71640, Note_on_c, 5, 73, 76
11, 71744, Note_on_c, 5, 73, 0
11, 71760, Note_on_c, 5, 66, 76
11, 71864, Note_on_c, 5, 66, 0
11, 71880, Note_on_c, 5, 70, 76
11, 71984, Note_on_c, 5, 70, 0
11, 72000, Note_on_c, 5, 73, 76
11, 72104, Note_on_c, 5, 73, 0
11, 72120, Note_on_c, 5, 78, 76
11, 72464, Note_on_c, 5, 78, 0
11, 72480, Note_on_c, 5, 79, 76
11, 72824, Note_on_c, 5, 79, 0
11, 72840, Note_on_c, 5, 78, 76
11, 73304, Note_on_c, 5, 78, 0
11, 73320, Note_on_c, 5, 76, 76
11, 73424, Note_on_c, 5, 76, 0
11, 73440, Note_on_c, 5, 74, 76
11, 73544, Note_on_c, 5, 74, 0
11, 73560, Note_on_c, 5, 73, 76
11, 73679, Note_on_c, 5, 73, 0
11, 73680, Note_on_c, 5, 74, 76
11, 73799, Note_on_c, 5, 74, 0
11, 73800, Note_on_c, 5, 71, 76
11, 73904, Note_on_c, 5, 71, 0
11, 73920, Note_on_c, 5, 66, 76
11, 74039, Note_on_c, 5, 66, 0
11, 74040, Note_on_c, 5, 71, 76
11, 74159, Note_on_c, 5, 71, 0
11, 74160, Note_on_c, 5, 70, 76
11, 74264, Note_on_c, 5, 70, 0
11, 74280, Note_on_c, 5, 71, 76
11, 74744, Note_on_c, 5, 71, 0
11, 74760, Note_on_c, 5, 74, 76
11, 74864, Note_on_c, 5, 74, 0
11, 74880, Note_on_c, 5, 73, 76
11, 74984, Note_on_c, 5, 73, 0
11, 75000, Note_on_c, 5, 74, 76
11, 75119, Note_on_c, 5, 74, 0
11, 75120, Note_on_c, 5, 73, 76
11, 75239, Note_on_c, 5, 73, 0
11, 75240, Note_on_c, 5, 74, 76
11, 75344, Note_on_c, 5, 74, 0
11, 75360, Note_on_c, 5, 74, 76
11, 75479, Note_on_c, 5, 74, 0
11, 75480, Note_on_c, 5, 73, 76
11, 75599, Note_on_c, 5, 73, 0
11, 75600, Note_on_c, 5, 74, 76
11, 75704, Note_on_c, 5, 74, 0
11, 75720, Note_on_c, 5, 74, 76
11, 75839, Note_on_c, 5, 74, 0
11, 75840, Note_on_c, 5, 73, 76
11, 75959, Note_on_c, 5, 73, 0
11, 75960, Note_on_c, 5, 74, 76
11, 76064, Note_on_c, 5, 74, 0
11, 76080, Note_on_c, 5, 64, 76
11, 76199, Note_on_c, 5, 64, 0
11, 76200, Note_on_c, 5, 68, 76
11, 76319, Note_on_c, 5, 68, 0
11, 76320, Note_on_c, 5, 71, 76
11, 76424, Note_on_c, 5, 71, 0
11, 76440, Note_on_c, 5, 76, 76
11, 76559, Note_on_c, 5, 76, 0
11, 76560, Note_on_c, 5, 74, 76
11, 76679, Note_on_c, 5, 74, 0
11, 76680, Note_on_c, 5, 73, 76
11, 76784, Note_on_c, 5, 73, 0
11, 76800, Note_on_c, 5, 71, 76
11, 76919, Note_on_c, 5, 71, 0
11, 76920, Note_on_c, 5, 73, 76
11, 77039, Note_on_c, 5, 73, 0
11, 77040, Note_on_c, 5, 74, 76
11, 77144, Note_on_c, 5, 74, 0
11, 77160, Note_on_c, 5, 73, 76
11, 77279, Note_on_c, 5, 73, 0
11, 77280, Note_on_c, 5, 71, 76
11, 77399, Note_on_c, 5, 71, 0
11, 77400, Note_on_c, 5, 73, 76
11, 77504, Note_on_c, 5, 73, 0
11, 77520, Note_on_c, 5, 69, 76
11, 77639, Note_on_c, 5, 69, 0
11, 77640, Note_on_c, 5, 73, 76
11, 77759, Note_on_c, 5, 73, 0
11, 77760, Note_on_c, 5, 76, 76
11, 77864, Note_on_c, 5, 76, 0
11, 77880, Note_on_c, 5, 79, 76
11, 77999, Note_on_c, 5, 79, 0
11, 78000, Note_on_c, 5, 78, 76
11, 78119, Note_on_c, 5, 78, 0
11, 78120, Note_on_c, 5, 79, 76
11, 78224, Note_on_c, 5, 79, 0
11, 78240, Note_on_c, 5, 79, 76
11, 78359, Note_on_c, 5, 79, 0
11, 78360, Note_on_c, 5, 78, 76
11, 78479, Note_on_c, 5, 78, 0
11, 78480, Note_on_c, 5, 79, 76
11, 78584, Note_on_c, 5, 79, 0
11, 78600, Note_on_c, 5, 79, 76
11, 78719, Note_on_c, 5, 79, 0
11, 78720, Note_on_c, 5, 78, 76
11, 78839, Note_on_c, 5, 78, 0
11, 78840, Note_on_c, 5, 79, 76
11, 78944, Note_on_c, 5, 79, 0
11, 78960, Note_on_c, 5, 69, 76
11, 79079, Note_on_c, 5, 69, 0
11, 79080, Note_on_c, 5, 73, 76
11, 79199, Note_on_c, 5, 73, 0
11, 79200, Note_on_c, 5, 76, 76
11, 79304, Note_on_c, 5, 76, 0
11, 79320, Note_on_c, 5, 81, 76
11, 79439, Note_on_c, 5, 81, 0
11, 79440, Note_on_c, 5, 79, 76
11, 79559, Note_on_c, 5, 79, 0
11, 79560, Note_on_c, 5, 78, 76
11, 79664, Note_on_c, 5, 78, 0
11, 79680, Note_on_c, 5, 76, 76
11, 79799, Note_on_c, 5, 76, 0
11, 79800, Note_on_c, 5, 78, 76
11, 79919, Note_on_c, 5, 78, 0
11, 79920, Note_on_c, 5, 79, 76
11, 80024, Note_on_c, 5, 79, 0
11, 80040, Note_on_c, 5, 78, 76
11, 80159, Note_on_c, 5, 78, 0
11, 80160, Note_on_c, 5, 76, 76
11, 80279, Note_on_c, 5, 76, 0
11, 80280, Note_on_c, 5, 78, 76
11, 80384, Note_on_c, 5, 78, 0
11, 80400, Note_on_c, 5, 74, 76
11, 80519, Note_on_c, 5, 74, 0
11, 80520, Note_on_c, 5, 78, 76
11, 80639, Note_on_c, 5, 78, 0
11, 80640, Note_on_c, 5, 76, 76
11, 80744, Note_on_c, 5, 76, 0
11, 80760, Note_on_c, 5, 78, 76
11, 80879, Note_on_c, 5, 78, 0
11, 80880, Note_on_c, 5, 80, 76
11, 80999, Note_on_c, 5, 80, 0
11, 81000, Note_on_c, 5, 81, 76
11, 81104, Note_on_c, 5, 81, 0
11, 81120, Note_on_c, 5, 80, 76
11, 81239, Note_on_c, 5, 80, 0
11, 81240, Note_on_c, 5, 81, 76
11, 81359, Note_on_c, 5, 81, 0
11, 81360, Note_on_c, 5, 83, 76
11, 81464, Note_on_c, 5, 83, 0
11, 81480, Note_on_c, 5, 73, 76
11, 81944, Note_on_c, 5, 73, 0
11, 81960, Note_on_c, 5, 80, 76
11, 82064, Note_on_c, 5, 80, 0
11, 82080, Note_on_c, 5, 83, 76
11, 82184, Note_on_c, 5, 83, 0
11, 82200, Note_on_c, 5, 81, 76
11, 82319, Note_on_c, 5, 81, 0
11, 82320, Note_on_c, 5, 80, 76
11, 82439, Note_on_c, 5, 80, 0
11, 82440, Note_on_c, 5, 78, 76
11, 82544, Note_on_c, 5, 78, 0
11, 82560, Note_on_c, 5, 76, 76
11, 82679, Note_on_c, 5, 76, 0
11, 82680, Note_on_c, 5, 74, 76
11, 82799, Note_on_c, 5, 74, 0
11, 82800, Note_on_c, 5, 73, 76
11, 82904, Note_on_c, 5, 73, 0
11, 82920, Note_on_c, 5, 71, 76
11, 83384, Note_on_c, 5, 71, 0
11, 83400, Note_on_c, 5, 78, 76
11, 83504, Note_on_c, 5, 78, 0
11, 83520, Note_on_c, 5, 81, 76
11, 83624, Note_on_c, 5, 81, 0
11, 83640, Note_on_c, 5, 80, 76
11, 83759, Note_on_c, 5, 80, 0
11, 83760, Note_on_c, 5, 78, 76
11, 83879, Note_on_c, 5, 78, 0
11, 83880, Note_on_c, 5, 77, 76
11, 83984, Note_on_c, 5, 77, 0
11, 84000, Note_on_c, 5, 78, 76
11, 84119, Note_on_c, 5, 78, 0
11, 84120, Note_on_c, 5, 76, 76
11, 84239, Note_on_c, 5, 76, 0
11, 84240, Note_on_c, 5, 74, 76
11, 84344, Note_on_c, 5, 74, 0
11, 84360, Note_on_c, 5, 73, 76
11, 84479, Note_on_c, 5, 73, 0
11, 84480, Note_on_c, 5, 78, 76
11, 84599, Note_on_c, 5, 78, 0
11, 84600, Note_on_c, 5, 76, 76
11, 84704, Note_on_c, 5, 76, 0
11, 84720, Note_on_c, 5, 74, 76
11, 84839, Note_on_c, 5, 74, 0
11, 84840, Note_on_c, 5, 73, 76
11, 84959, Note_on_c, 5, 73, 0
11, 84960, Note_on_c, 5, 71, 76
11, 85064, Note_on_c, 5, 71, 0
11, 85080, Note_on_c, 5, 69, 76
11, 85199, Note_on_c, 5, 69, 0
11, 85200, Note_on_c, 5, 68, 76
11, 85319, Note_on_c, 5, 68, 0
11, 85320, Note_on_c, 5, 66, 76
11, 85424, Note_on_c, 5, 66, 0
11, 85440, Note_on_c, 5, 71, 76
11, 85559, Note_on_c, 5, 71, 0
11, 85560, Note_on_c, 5, 69, 76
11, 85679, Note_on_c, 5, 69, 0
11, 85680, Note_on_c, 5, 68, 76
11, 85784, Note_on_c, 5, 68, 0
11, 85800, Note_on_c, 5, 66, 76
11, 86384, Note_on_c, 5, 66, 0
11, 86400, Note_on_c, 5, 62, 76
11, 86504, Note_on_c, 5, 62, 0
11, 86520, Note_on_c, 5, 69, 76
11, 86864, Note_on_c, 5, 69, 0
11, 86880, Note_on_c, 5, 71, 76
11, 87224, Note_on_c, 5, 71, 0
11, 87240, Note_on_c, 5, 72, 76
11, 87704, Note_on_c, 5, 72, 0
11, 87720, Note_on_c, 5, 71, 76
11, 87824, Note_on_c, 5, 71, 0
11, 87840, Note_on_c, 5, 69, 76
11, 87944, Note_on_c, 5, 69, 0
11, 87960, Note_on_c, 5, 71, 76
11, 88079, Note_on_c, 5, 71, 0
11, 88080, Note_on_c, 5, 74, 76
11, 88199, Note_on_c, 5, 74, 0
11, 88200, Note_on_c, 5, 79, 76
11, 88304, Note_on_c, 5, 79, 0
11, 88320, Note_on_c, 5, 69, 76
11, 88439, Note_on_c, 5, 69, 0
11, 88440, Note_on_c, 5, 79, 76
11, 88559, Note_on_c, 5, 79, 0
11, 88560, Note_on_c, 5, 78, 76
11, 88664, Note_on_c, 5, 78, 0
11, 88680, Note_on_c, 5, 79, 76
11, 88799, Note_on_c, 5, 79, 0
11, 88800, Note_on_c, 5, 83, 76
11, 88919, Note_on_c, 5, 83, 0
11, 88920, Note_on_c, 5, 81, 76
11, 88987, Note_on_c, 5, 81, 0
11, 89000, Note_on_c, 5, 81, 76
11, 89039, Note_on_c, 5, 81, 0
11, 89040, Note_on_c, 5, 83, 76
11, 89504, Note_on_c, 5, 83, 0
11, 89520, Note_on_c, 5, 81, 76
11, 89624, Note_on_c, 5, 81, 0
11, 89640, Note_on_c, 5, 79, 76
11, 89744, Note_on_c, 5, 79, 0
11, 89760, Note_on_c, 5, 78, 76
11, 89879, Note_on_c, 5, 78, 0
11, 89880, Note_on_c, 5, 79, 76
11, 89999, Note_on_c, 5, 79, 0
11, 90000, Note_on_c, 5, 76, 76
11, 90104, Note_on_c, 5, 76, 0
11, 90120, Note_on_c, 5, 78, 76
11, 90239, Note_on_c, 5, 78, 0
11, 90240, Note_on_c, 5, 81, 76
11, 90359, Note_on_c, 5, 81, 0
11, 90360, Note_on_c, 5, 79, 76
11, 90427, Note_on_c, 5, 79, 0
11, 90440, Note_on_c, 5, 79, 76
11, 90479, Note_on_c, 5, 79, 0
11, 90480, Note_on_c, 5, 81, 76
11, 90944, Note_on_c, 5, 81, 0
11, 90960, Note_on_c, 5, 79, 76
11, 91064, Note_on_c, 5, 79, 0
11, 91080, Note_on_c, 5, 78, 76
11, 91184, Note_on_c, 5, 78, 0
11, 91200, Note_on_c, 5, 76, 76
11, 91319, Note_on_c, 5, 76, 0
11, 91320, Note_on_c, 5, 78, 76
11, 91439, Note_on_c, 5, 78, 0
11, 91440, Note_on_c, 5, 75, 76
11, 91544, Note_on_c, 5, 75, 0
11, 91560, Note_on_c, 5, 76, 76
11, 91679, Note_on_c, 5, 76, 0
11, 91680, Note_on_c, 5, 79, 76
11, 91799, Note_on_c, 5, 79, 0
11, 91800, Note_on_c, 5, 78, 76
11, 91867, Note_on_c, 5, 78, 0
11, 91880, Note_on_c, 5, 78, 76
11, 91919, Note_on_c, 5, 78, 0
11, 91920, Note_on_c, 5, 79, 76
11, 92384, Note_on_c, 5, 79, 0
11, 92400, Note_on_c, 5, 78, 76
11, 92504, Note_on_c, 5, 78, 0
11, 92520, Note_on_c, 5, 76, 76
11, 92624, Note_on_c, 5, 76, 0
11, 92640, Note_on_c, 5, 74, 76
11, 92759, Note_on_c, 5, 74, 0
11, 92760, Note_on_c, 5, 76, 76
11, 92879, Note_on_c, 5, 76, 0
11, 92880, Note_on_c, 5, 73, 76
11, 92984, Note_on_c, 5, 73, 0
11, 93000, Note_on_c, 5, 74, 76
11, 93119, Note_on_c, 5, 74, 0
11, 93120, Note_on_c, 5, 78, 76
11, 93239, Note_on_c, 5, 78, 0
11, 93240, Note_on_c, 5, 76, 76
11, 93344, Note_on_c, 5, 76, 0
11, 93360, Note_on_c, 5, 78, 76
11, 93479, Note_on_c, 5, 78, 0
11, 93480, Note_on_c, 5, 79, 76
11, 93599, Note_on_c, 5, 79, 0
11, 93600, Note_on_c, 5, 81, 76
11, 93704, Note_on_c, 5, 81, 0
11, 93720, Note_on_c, 5, 71, 76
11, 93839, Note_on_c, 5, 71, 0
11, 93840, Note_on_c, 5, 73, 76
11, 93959, Note_on_c, 5, 73, 0
11, 93960, Note_on_c, 5, 74, 76
11, 94064, Note_on_c, 5, 74, 0
11, 94080, Note_on_c, 5, 76, 76
11, 94199, Note_on_c, 5, 76, 0
11, 94200, Note_on_c, 5, 78, 76
11, 94319, Note_on_c, 5, 78, 0
11, 94320, Note_on_c, 5, 74, 76
11, 94424, Note_on_c, 5, 74, 0
11, 94440, Note_on_c, 5, 73, 76
11, 94559, Note_on_c, 5, 73, 0
11, 94560, Note_on_c, 5, 74, 76
11, 94679, Note_on_c, 5, 74, 0
11, 94680, Note_on_c, 5, 76, 76
11, 94784, Note_on_c, 5, 76, 0
11, 94800, Note_on_c, 5, 78, 76
11, 94919, Note_on_c, 5, 78, 0
11, 94920, Note_on_c, 5, 79, 76
11, 95039, Note_on_c, 5, 79, 0
11, 95040, Note_on_c, 5, 76, 76
11, 95144, Note_on_c, 5, 76, 0
11, 95160, Note_on_c, 5, 74, 76
11, 95279, Note_on_c, 5, 74, 0
11, 95280, Note_on_c, 5, 76, 76
11, 95399, Note_on_c, 5, 76, 0
11, 95400, Note_on_c, 5, 78, 76
11, 95504, Note_on_c, 5, 78, 0
11, 95520, Note_on_c, 5, 79, 76
11, 95639, Note_on_c, 5, 79, 0
11, 95640, Note_on_c, 5, 81, 76
11, 95759, Note_on_c, 5, 81, 0
11, 95760, Note_on_c, 5, 78, 76
11, 95864, Note_on_c, 5, 78, 0
11, 95880, Note_on_c, 5, 76, 76
11, 95999, Note_on_c, 5, 76, 0
11, 96000, Note_on_c, 5, 78, 76
11, 96119, Note_on_c, 5, 78, 0
11, 96120, Note_on_c, 5, 79, 76
11, 96224, Note_on_c, 5, 79, 0
11, 96240, Note_on_c, 5, 81, 76
11, 96359, Note_on_c, 5, 81, 0
11, 96360, Note_on_c, 5, 83, 76
11, 96479, Note_on_c, 5, 83, 0
11, 96480, Note_on_c, 5, 79, 76
11, 96547, Note_on_c, 5, 79, 0
11, 96560, Note_on_c, 5, 79, 76
11, 96599, Note_on_c, 5, 79, 0
11, 96600, Note_on_c, 5, 78, 76
11, 97064, Note_on_c, 5, 78, 0
11, 97080, Note_on_c, 5, 76, 76
11, 97184, Note_on_c, 5, 76, 0
11, 97200, Note_on_c, 5, 74, 76
11, 97304, Note_on_c, 5, 74, 0
11, 97320, Note_on_c, 5, 76, 76
11, 97439, Note_on_c, 5, 76, 0
11, 97440, Note_on_c, 5, 73, 76
11, 97559, Note_on_c, 5, 73, 0
11, 97560, Note_on_c, 5, 74, 76
11, 97664, Note_on_c, 5, 74, 0
11, 97680, Note_on_c, 5, 69, 76
11, 97799, Note_on_c, 5, 69, 0
11, 97800, Note_on_c, 5, 74, 76
11, 97919, Note_on_c, 5, 74, 0
11, 97920, Note_on_c, 5, 73, 76
11, 98024, Note_on_c, 5, 73, 0
11, 98040, Note_on_c, 5, 62, 76
11, 98264, Note_on_c, 5, 62, 0
11, 98280, Note_on_c, 5, 74, 76
11, 98384, Note_on_c, 5, 74, 0
11, 98400, Note_on_c, 5, 81, 76
11, 98864, Note_on_c, 5, 81, 0
11, 98880, Note_on_c, 5, 83, 76
11, 98984, Note_on_c, 5, 83, 0
11, 99000, Note_on_c, 5, 81, 76
11, 99104, Note_on_c, 5, 81, 0
11, 99120, Note_on_c, 5, 80, 76
11, 99239, Note_on_c, 5, 80, 0
11, 99240, Note_on_c, 5, 76, 76
11, 99359, Note_on_c, 5, 76, 0
11, 99360, Note_on_c, 5, 78, 76
11, 99464, Note_on_c, 5, 78, 0
11, 99480, Note_on_c, 5, 79, 76
11, 99599, Note_on_c, 5, 79, 0
11, 99600, Note_on_c, 5, 81, 76
11, 99719, Note_on_c, 5, 81, 0
11, 99720, Note_on_c, 5, 79, 76
11, 99824, Note_on_c, 5, 79, 0
11, 99840, Note_on_c, 5, 78, 76
11, 99959, Note_on_c, 5, 78, 0
11, 99960, Note_on_c, 5, 74, 76
11, 100079, Note_on_c, 5, 74, 0
11, 100080, Note_on_c, 5, 76, 76
11, 100184, Note_on_c, 5, 76, 0
11, 100200, Note_on_c, 5, 77, 76
11, 100319, Note_on_c, 5, 77, 0
11, 100320, Note_on_c, 5, 79, 76
11, 100439, Note_on_c, 5, 79, 0
11, 100440, Note_on_c, 5, 77, 76
11, 100544, Note_on_c, 5, 77, 0
11, 100560, Note_on_c, 5, 76, 76
11, 100679, Note_on_c, 5, 76, 0
11, 100680, Note_on_c, 5, 73, 76
11, 100799, Note_on_c, 5, 73, 0
11, 100800, Note_on_c, 5, 74, 76
11, 100904, Note_on_c, 5, 74, 0
11, 100920, Note_on_c, 5, 73, 76
11, 101039, Note_on_c, 5, 73, 0
11, 101040, Note_on_c, 5, 74, 76
11, 101159, Note_on_c, 5, 74, 0
11, 101160, Note_on_c, 5, 76, 76
11, 101264, Note_on_c, 5, 76, 0
11, 101280, Note_on_c, 5, 69, 76
11, 101864, Note_on_c, 5, 69, 0
11, 101880, Note_on_c, 5, 81, 76
11, 101984, Note_on_c, 5, 81, 0
11, 102000, Note_on_c, 5, 83, 76
11, 102224, Note_on_c, 5, 83, 0
11, 102240, Note_on_c, 5, 85, 76
11, 102307, Note_on_c, 5, 85, 0
11, 102320, Note_on_c, 5, 85, 76
11, 102359, Note_on_c, 5, 85, 0
11, 102360, Note_on_c, 5, 86, 76
11, 102584, Note_on_c, 5, 86, 0
11, 102600, Note_on_c, 5, 81, 76
11, 102704, Note_on_c, 5, 81, 0
11, 102720, Note_on_c, 5, 78, 76
11, 102749, Note_on_c, 5, 78, 0
11, 102750, Note_on_c, 5, 79, 76
11, 102779, Note_on_c, 5, 79, 0
11, 102780, Note_on_c, 5, 76, 76
11, 102809, Note_on_c, 5, 76, 0
11, 102810, Note_on_c, 5, 78, 76
11, 102839, Note_on_c, 5, 78, 0
11, 102840, Note_on_c, 5, 76, 76
11, 102959, Note_on_c, 5, 76, 0
11, 102960, Note_on_c, 5, 74, 76
11, 103064, Note_on_c, 5, 74, 0
11, 103080, Note_on_c, 5, 74, 76
11, 103679, Note_on_c, 5, 74, 0
11, 103679, End_track
12, 0, Start_track
12, 0, Title_t, "Violin I"
12, 0, MIDI_port, 0
12, 0, Program_c, 10, 48
12, 0, Control_c, 10, 10, 48
12, 0, Control_c, 10, 11, 127
12, 0, Control_c, 10, 7, 96
12, 0, Note_on_c, 10, 62, 76
12, 104, Note_on_c, 10, 62, 0
12, 120, Note_on_c, 10, 69, 76
12, 464, Note_on_c, 10, 69, 0
12, 480, Note_on_c, 10, 71, 76
12, 824, Note_on_c, 10, 71, 0
12, 840, Note_on_c, 10, 69, 76
12, 1304, Note_on_c, 10, 69, 0
12, 1320, Note_on_c, 10, 71, 76
12, 1424, Note_on_c, 10, 71, 0
12, 1440, Note_on_c, 10, 73, 76
12, 1544, Note_on_c, 10, 73, 0
12, 1560, Note_on_c, 10, 74, 76
12, 1679, Note_on_c, 10, 74, 0
12, 1680, Note_on_c, 10, 73, 76
12, 1799, Note_on_c, 10, 73, 0
12, 1800, Note_on_c, 10, 71, 76
12, 1904, Note_on_c, 10, 71, 0
12, 1920, Note_on_c, 10, 69, 76
12, 2039, Note_on_c, 10, 69, 0
12, 2040, Note_on_c, 10, 71, 76
12, 2159, Note_on_c, 10, 71, 0
12, 2160, Note_on_c, 10, 67, 76
12, 2264, Note_on_c, 10, 67, 0
12, 2280, Note_on_c, 10, 66, 76
12, 2399, Note_on_c, 10, 66, 0
12, 2400, Note_on_c, 10, 64, 76
12, 2519, Note_on_c, 10, 64, 0
12, 2520, Note_on_c, 10, 66, 76
12, 2624, Note_on_c, 10, 66, 0
12, 2640, Note_on_c, 10, 62, 76
12, 2759, Note_on_c, 10, 62, 0
12, 2760, Note_on_c, 10, 66, 76
12, 2879, Note_on_c, 10, 66, 0
12, 2880, Note_on_c, 10, 69, 76
12, 2984, Note_on_c, 10, 69, 0
12, 3000, Note_on_c, 10, 74, 76
12, 3344, Note_on_c, 10, 74, 0
12, 3360, Note_on_c, 10, 78, 76
12, 3704, Note_on_c, 10, 78, 0
12, 3720, Note_on_c, 10, 76, 76
12, 4304, Note_on_c, 10, 76, 0
12, 4320, Note_on_c, 10, 74, 76
12, 4424, Note_on_c, 10, 74, 0
12, 4440, Note_on_c, 10, 73, 76
12, 4559, Note_on_c, 10, 73, 0
12, 4560, Note_on_c, 10, 71, 76
12, 4679, Note_on_c, 10, 71, 0
12, 4680, Note_on_c, 10, 69, 76
12, 4784, Note_on_c, 10, 69, 0
12, 4800, Note_on_c, 10, 71, 76
12, 4919, Note_on_c, 10, 71, 0
12, 4920, Note_on_c, 10, 73, 76
12, 5039, Note_on_c, 10, 73, 0
12, 5040, Note_on_c, 10, 74, 76
12, 5144, Note_on_c, 10, 74, 0
12, 5160, Note_on_c, 10, 73, 76
12, 5279, Note_on_c, 10, 73, 0
12, 5280, Note_on_c, 10, 71, 76
12, 5399, Note_on_c, 10, 71, 0
12, 5400, Note_on_c, 10, 73, 76
12, 5504, Note_on_c, 10, 73, 0
12, 5520, Note_on_c, 10, 69, 76
12, 5639, Note_on_c, 10, 69, 0
12, 5640, Note_on_c, 10, 73, 76
12, 5759, Note_on_c, 10, 73, 0
12, 5760, Note_on_c, 10, 76, 76
12, 5864, Note_on_c, 10, 76, 0
12, 5880, Note_on_c, 10, 81, 76
12, 5999, Note_on_c, 10, 81, 0
12, 6000, Note_on_c, 10, 79, 76
12, 6119, Note_on_c, 10, 79, 0
12, 6120, Note_on_c, 10, 81, 76
12, 6224, Note_on_c, 10, 81, 0
12, 6240, Note_on_c, 10, 81, 76
12, 6359, Note_on_c, 10, 81, 0
12, 6360, Note_on_c, 10, 79, 76
12, 6479, Note_on_c, 10, 79, 0
12, 6480, Note_on_c, 10, 81, 76
12, 6584, Note_on_c, 10, 81, 0
12, 6600, Note_on_c, 10, 81, 76
12, 6719, Note_on_c, 10, 81, 0
12, 6720, Note_on_c, 10, 79, 76
12, 6839, Note_on_c, 10, 79, 0
12, 6840, Note_on_c, 10, 81, 76
12, 6944, Note_on_c, 10, 81, 0
12, 6960, Note_on_c, 10, 71, 76
12, 7079, Note_on_c, 10, 71, 0
12, 7080, Note_on_c, 10, 75, 76
12, 7199, Note_on_c, 10, 75, 0
12, 7200, Note_on_c, 10, 78, 76
12, 7304, Note_on_c, 10, 78, 0
12, 7320, Note_on_c, 10, 79, 76
12, 7439, Note_on_c, 10, 79, 0
12, 7440, Note_on_c, 10, 78, 76
12, 7559, Note_on_c, 10, 78, 0
12, 7560, Note_on_c, 10, 79, 76
12, 7664, Note_on_c, 10, 79, 0
12, 7680, Note_on_c, 10, 79, 76
12, 7799, Note_on_c, 10, 79, 0
12, 7800, Note_on_c, 10, 78, 76
12, 7919, Note_on_c, 10, 78, 0
12, 7920, Note_on_c, 10, 79, 76
12, 8024, Note_on_c, 10, 79, 0
12, 8040, Note_on_c, 10, 79, 76
12, 8159, Note_on_c, 10, 79, 0
12, 8160, Note_on_c, 10, 78, 76
12, 8279, Note_on_c, 10, 78, 0
12, 8280, Note_on_c, 10, 79, 76
12, 8384, Note_on_c, 10, 79, 0
12, 8400, Note_on_c, 10, 69, 76
12, 8519, Note_on_c, 10, 69, 0
12, 8520, Note_on_c, 10, 73, 76
12, 8639, Note_on_c, 10, 73, 0
12, 8640, Note_on_c, 10, 76, 76
12, 8744, Note_on_c, 10, 76, 0
12, 8760, Note_on_c, 10, 78, 76
12, 8879, Note_on_c, 10, 78, 0
12, 8880, Note_on_c, 10, 80, 76
12, 8999, Note_on_c, 10, 80, 0
12, 9000, Note_on_c, 10, 81, 76
12, 9104, Note_on_c, 10, 81, 0
12, 9120, Note_on_c, 10, 81, 76
12, 9239, Note_on_c, 10, 81, 0
12, 9240, Note_on_c, 10, 80, 76
12, 9359, Note_on_c, 10, 80, 0
12, 9360, Note_on_c, 10, 81, 76
12, 9464, Note_on_c, 10, 81, 0
12, 9480, Note_on_c, 10, 74, 76
12, 9599, Note_on_c, 10, 74, 0
12, 9600, Note_on_c, 10, 76, 76
12, 9719, Note_on_c, 10, 76, 0
12, 9720, Note_on_c, 10, 78, 76
12, 9824, Note_on_c, 10, 78, 0
12, 9840, Note_on_c, 10, 78, 76
12, 9959, Note_on_c, 10, 78, 0
12, 9960, Note_on_c, 10, 76, 76
12, 10079, Note_on_c, 10, 76, 0
12, 10080, Note_on_c, 10, 78, 76
12, 10184, Note_on_c, 10, 78, 0
12, 10200, Note_on_c, 10, 71, 76
12, 10319, Note_on_c, 10, 71, 0
12, 10320, Note_on_c, 10, 73, 76
12, 10439, Note_on_c, 10, 73, 0
12, 10440, Note_on_c, 10, 74, 76
12, 10544, Note_on_c, 10, 74, 0
12, 10560, Note_on_c, 10, 74, 76
12, 10679, Note_on_c, 10, 74, 0
12, 10680, Note_on_c, 10, 73, 76
12, 10799, Note_on_c, 10, 73, 0
12, 10800, Note_on_c, 10, 74, 76
12, 10904, Note_on_c, 10, 74, 0
12, 10920, Note_on_c, 10, 68, 76
12, 11039, Note_on_c, 10, 68, 0
12, 11040, Note_on_c, 10, 69, 76
12, 11159, Note_on_c, 10, 69, 0
12, 11160, Note_on_c, 10, 71, 76
12, 11264, Note_on_c, 10, 71, 0
12, 11280, Note_on_c, 10, 64, 76
12, 11399, Note_on_c, 10, 64, 0
12, 11400, Note_on_c, 10, 68, 76
12, 11519, Note_on_c, 10, 68, 0
12, 11520, Note_on_c, 10, 71, 76
12, 11624, Note_on_c, 10, 71, 0
12, 11640, Note_on_c, 10, 76, 76
12, 11759, Note_on_c, 10, 76, 0
12, 11760, Note_on_c, 10, 74, 76
12, 11879, Note_on_c, 10, 74, 0
12, 11880, Note_on_c, 10, 73, 76
12, 11984, Note_on_c, 10, 73, 0
12, 12000, Note_on_c, 10, 74, 76
12, 12119, Note_on_c, 10, 74, 0
12, 12120, Note_on_c, 10, 73, 76
12, 12239, Note_on_c, 10, 73, 0
12, 12240, Note_on_c, 10, 71, 76
12, 12344, Note_on_c, 10, 71, 0
12, 12360, Note_on_c, 10, 69, 76
12, 12584, Note_on_c, 10, 69, 0
12, 12600, Note_on_c, 10, 78, 76
12, 12704, Note_on_c, 10, 78, 0
12, 12720, Note_on_c, 10, 69, 76
12, 12944, Note_on_c, 10, 69, 0
12, 12960, Note_on_c, 10, 78, 76
12, 13064, Note_on_c, 10, 78, 0
12, 13080, Note_on_c, 10, 68, 76
12, 13304, Note_on_c, 10, 68, 0
12, 13320, Note_on_c, 10, 76, 76
12, 13424, Note_on_c, 10, 76, 0
12, 13440, Note_on_c, 10, 67, 76
12, 13664, Note_on_c, 10, 67, 0
12, 13680, Note_on_c, 10, 76, 76
12, 13784, Note_on_c, 10, 76, 0
12, 13800, Note_on_c, 10, 66, 76
12, 14024, Note_on_c, 10, 66, 0
12, 14040, Note_on_c, 10, 74, 76
12, 14144, Note_on_c, 10, 74, 0
12, 14160, Note_on_c, 10, 65, 76
12, 14384, Note_on_c, 10, 65, 0
12, 14400, Note_on_c, 10, 74, 76
12, 14504, Note_on_c, 10, 74, 0
12, 14520, Note_on_c, 10, 64, 76
12, 14984, Note_on_c, 10, 64, 0
12, 15000, Note_on_c, 10, 68, 76
12, 15104, Note_on_c, 10, 68, 0
12, 15120, Note_on_c, 10, 71, 76
12, 15224, Note_on_c, 10, 71, 0
12, 15240, Note_on_c, 10, 74, 76
12, 15359, Note_on_c, 10, 74, 0
12, 15360, Note_on_c, 10, 80, 76
12, 15479, Note_on_c, 10, 80, 0
12, 15480, Note_on_c, 10, 83, 76
12, 15584, Note_on_c, 10, 83, 0
12, 15600, Note_on_c, 10, 74, 76
12, 15719, Note_on_c, 10, 74, 0
12, 15720, Note_on_c, 10, 73, 76
12, 15839, Note_on_c, 10, 73, 0
12, 15840, Note_on_c, 10, 71, 76
12, 15944, Note_on_c, 10, 71, 0
12, 15960, Note_on_c, 10, 73, 76
12, 16019, Note_on_c, 10, 73, 0
12, 16020, Note_on_c, 10, 74, 76
12, 16079, Note_on_c, 10, 74, 0
12, 16080, Note_on_c, 10, 76, 76
12, 16184, Note_on_c, 10, 76, 0
12, 16200, Note_on_c, 10, 69, 76
12, 16304, Note_on_c, 10, 69, 0
12, 16320, Note_on_c, 10, 64, 76
12, 16424, Note_on_c, 10, 64, 0
12, 16440, Note_on_c, 10, 69, 76
12, 16544, Note_on_c, 10, 69, 0
12, 16560, Note_on_c, 10, 68, 76
12, 16664, Note_on_c, 10, 68, 0
12, 16680, Note_on_c, 10, 69, 76
12, 17264, Note_on_c, 10, 69, 0
12, 17280, Note_on_c, 10, 62, 76
12, 17384, Note_on_c, 10, 62, 0
12, 17400, Note_on_c, 10, 69, 76
12, 17744, Note_on_c, 10, 69, 0
12, 17760, Note_on_c, 10, 71, 76
12, 18104, Note_on_c, 10, 71, 0
12, 18120, Note_on_c, 10, 69, 76
12, 18584, Note_on_c, 10, 69, 0
12, 18600, Note_on_c, 10, 71, 76
12, 18704, Note_on_c, 10, 71, 0
12, 18720, Note_on_c, 10, 73, 76
12, 18824, Note_on_c, 10, 73, 0
12, 18840, Note_on_c, 10, 74, 76
12, 18959, Note_on_c, 10, 74, 0
12, 18960, Note_on_c, 10, 73, 76
12, 19079, Note_on_c, 10, 73, 0
12, 19080, Note_on_c, 10, 71, 76
12, 19184, Note_on_c, 10, 71, 0
12, 19200, Note_on_c, 10, 69, 76
12, 19319, Note_on_c, 10, 69, 0
12, 19320, Note_on_c, 10, 71, 76
12, 19439, Note_on_c, 10, 71, 0
12, 19440, Note_on_c, 10, 67, 76
12, 19544, Note_on_c, 10, 67, 0
12, 19560, Note_on_c, 10, 66, 76
12, 19679, Note_on_c, 10, 66, 0
12, 19680, Note_on_c, 10, 64, 76
12, 19799, Note_on_c, 10, 64, 0
12, 19800, Note_on_c, 10, 66, 76
12, 19904, Note_on_c, 10, 66, 0
12, 19920, Note_on_c, 10, 62, 76
12, 20039, Note_on_c, 10, 62, 0
12, 20040, Note_on_c, 10, 66, 76
12, 20159, Note_on_c, 10, 66, 0
12, 20160, Note_on_c, 10, 69, 76
12, 20264, Note_on_c, 10, 69, 0
12, 20280, Note_on_c, 10, 74, 76
12, 20624, Note_on_c, 10, 74, 0
12, 20640, Note_on_c, 10, 78, 76
12, 20984, Note_on_c, 10, 78, 0
12, 21000, Note_on_c, 10, 76, 76
12, 21584, Note_on_c, 10, 76, 0
12, 21600, Note_on_c, 10, 74, 76
12, 21704, Note_on_c, 10, 74, 0
12, 21720, Note_on_c, 10, 73, 76
12, 21839, Note_on_c, 10, 73, 0
12, 21840, Note_on_c, 10, 71, 76
12, 21959, Note_on_c, 10, 71, 0
12, 21960, Note_on_c, 10, 69, 76
12, 22064, Note_on_c, 10, 69, 0
12, 22080, Note_on_c, 10, 71, 76
12, 22199, Note_on_c, 10, 71, 0
12, 22200, Note_on_c, 10, 73, 76
12, 22319, Note_on_c, 10, 73, 0
12, 22320, Note_on_c, 10, 74, 76
12, 22424, Note_on_c, 10, 74, 0
12, 22440, Note_on_c, 10, 73, 76
12, 22559, Note_on_c, 10, 73, 0
12, 22560, Note_on_c, 10, 71, 76
12, 22679, Note_on_c, 10, 71, 0
12, 22680, Note_on_c, 10, 73, 76
12, 22784, Note_on_c, 10, 73, 0
12, 22800, Note_on_c, 10, 69, 76
12, 22919, Note_on_c, 10, 69, 0
12, 22920, Note_on_c, 10, 73, 76
12, 23039, Note_on_c, 10, 73, 0
12, 23040, Note_on_c, 10, 76, 76
12, 23144, Note_on_c, 10, 76, 0
12, 23160, Note_on_c, 10, 81, 76
12, 23279, Note_on_c, 10, 81, 0
12, 23280, Note_on_c, 10, 79, 76
12, 23399, Note_on_c, 10, 79, 0
12, 23400, Note_on_c, 10, 81, 76
12, 23504, Note_on_c, 10, 81, 0
12, 23520, Note_on_c, 10, 81, 76
12, 23639, Note_on_c, 10, 81, 0
12, 23640, Note_on_c, 10, 79, 76
12, 23759, Note_on_c, 10, 79, 0
12, 23760, Note_on_c, 10, 81, 76
12, 23864, Note_on_c, 10, 81, 0
12, 23880, Note_on_c, 10, 81, 76
12, 23999, Note_on_c, 10, 81, 0
12, 24000, Note_on_c, 10, 79, 76
12, 24119, Note_on_c, 10, 79, 0
12, 24120, Note_on_c, 10, 81, 76
12, 24224, Note_on_c, 10, 81, 0
12, 24240, Note_on_c, 10, 71, 76
12, 24359, Note_on_c, 10, 71, 0
12, 24360, Note_on_c, 10, 75, 76
12, 24479, Note_on_c, 10, 75, 0
12, 24480, Note_on_c, 10, 78, 76
12, 24584, Note_on_c, 10, 78, 0
12, 24600, Note_on_c, 10, 79, 76
12, 24719, Note_on_c, 10, 79, 0
12, 24720, Note_on_c, 10, 78, 76
12, 24839, Note_on_c, 10, 78, 0
12, 24840, Note_on_c, 10, 79, 76
12, 24944, Note_on_c, 10, 79, 0
12, 24960, Note_on_c, 10, 79, 76
12, 25079, Note_on_c, 10, 79, 0
12, 25080, Note_on_c, 10, 78, 76
12, 25199, Note_on_c, 10, 78, 0
12, 25200, Note_on_c, 10, 79, 76
12, 25304, Note_on_c, 10, 79, 0
12, 25320, Note_on_c, 10, 79, 76
12, 25439, Note_on_c, 10, 79, 0
12, 25440, Note_on_c, 10, 78, 76
12, 25559, Note_on_c, 10, 78, 0
12, 25560, Note_on_c, 10, 79, 76
12, 25664, Note_on_c, 10, 79, 0
12, 25680, Note_on_c, 10, 69, 76
12, 25799, Note_on_c, 10, 69, 0
12, 25800, Note_on_c, 10, 73, 76
12, 25919, Note_on_c, 10, 73, 0
12, 25920, Note_on_c, 10, 76, 76
12, 26024, Note_on_c, 10, 76, 0
12, 26040, Note_on_c, 10, 78, 76
12, 26159, Note_on_c, 10, 78, 0
12, 26160, Note_on_c, 10, 80, 76
12, 26279, Note_on_c, 10, 80, 0
12, 26280, Note_on_c, 10, 81, 76
12, 26384, Note_on_c, 10, 81, 0
12, 26400, Note_on_c, 10, 81, 76
12, 26519, Note_on_c, 10, 81, 0
12, 26520, Note_on_c, 10, 80, 76
12, 26639, Note_on_c, 10, 80, 0
12, 26640, Note_on_c, 10, 81, 76
12, 26744, Note_on_c, 10, 81, 0
12, 26760, Note_on_c, 10, 74, 76
12, 26879, Note_on_c, 10, 74, 0
12, 26880, Note_on_c, 10, 76, 76
12, 26999, Note_on_c, 10, 76, 0
12, 27000, Note_on_c, 10, 78, 76
12, 27104, Note_on_c, 10, 78, 0
12, 27120, Note_on_c, 10, 78, 76
12, 27239, Note_on_c, 10, 78, 0
12, 27240, Note_on_c, 10, 76, 76
12, 27359, Note_on_c, 10, 76, 0
12, 27360, Note_on_c, 10, 78, 76
12, 27464, Note_on_c, 10, 78, 0
12, 27480, Note_on_c, 10, 71, 76
12, 27599, Note_on_c, 10, 71, 0
12, 27600, Note_on_c, 10, 73, 76
12, 27719, Note_on_c, 10, 73, 0
12, 27720, Note_on_c, 10, 74, 76
12, 27824, Note_on_c, 10, 74, 0
12, 27840, Note_on_c, 10, 74, 76
12, 27959, Note_on_c, 10, 74, 0
12, 27960, Note_on_c, 10, 73, 76
12, 28079, Note_on_c, 10, 73, 0
12, 28080, Note_on_c, 10, 74, 76
12, 28184, Note_on_c, 10, 74, 0
12, 28200, Note_on_c, 10, 68, 76
12, 28319, Note_on_c, 10, 68, 0
12, 28320, Note_on_c, 10, 69, 76
12, 28439, Note_on_c, 10, 69, 0
12, 28440, Note_on_c, 10, 71, 76
12, 28544, Note_on_c, 10, 71, 0
12, 28560, Note_on_c, 10, 64, 76
12, 28679, Note_on_c, 10, 64, 0
12, 28680, Note_on_c, 10, 68, 76
12, 28799, Note_on_c, 10, 68, 0
12, 28800, Note_on_c, 10, 71, 76
12, 28904, Note_on_c, 10, 71, 0
12, 28920, Note_on_c, 10, 76, 76
12, 29039, Note_on_c, 10, 76, 0
12, 29040, Note_on_c, 10, 74, 76
12, 29159, Note_on_c, 10, 74, 0
12, 29160, Note_on_c, 10, 73, 76
12, 29264, Note_on_c, 10, 73, 0
12, 29280, Note_on_c, 10, 74, 76
12, 29399, Note_on_c, 10, 74, 0
12, 29400, Note_on_c, 10, 73, 76
12, 29519, Note_on_c, 10, 73, 0
12, 29520, Note_on_c, 10, 71, 76
12, 29624, Note_on_c, 10, 71, 0
12, 29640, Note_on_c, 10, 69, 76
12, 29864, Note_on_c, 10, 69, 0
12, 29880, Note_on_c, 10, 78, 76
12, 29984, Note_on_c, 10, 78, 0
12, 30000, Note_on_c, 10, 69, 76
12, 30224, Note_on_c, 10, 69, 0
12, 30240, Note_on_c, 10, 78, 76
12, 30344, Note_on_c, 10, 78, 0
12, 30360, Note_on_c, 10, 68, 76
12, 30584, Note_on_c, 10, 68, 0
12, 30600, Note_on_c, 10, 76, 76
12, 30704, Note_on_c, 10, 76, 0
12, 30720, Note_on_c, 10, 67, 76
12, 30944, Note_on_c, 10, 67, 0
12, 30960, Note_on_c, 10, 76, 76
12, 31064, Note_on_c, 10, 76, 0
12, 31080, Note_on_c, 10, 66, 76
12, 31304, Note_on_c, 10, 66, 0
12, 31320, Note_on_c, 10, 74, 76
12, 31424, Note_on_c, 10, 74, 0
12, 31440, Note_on_c, 10, 65, 76
12, 31664, Note_on_c, 10, 65, 0
12, 31680, Note_on_c, 10, 74, 76
12, 31784, Note_on_c, 10, 74, 0
12, 31800, Note_on_c, 10, 64, 76
12, 32264, Note_on_c, 10, 64, 0
12, 32280, Note_on_c, 10, 68, 76
12, 32384, Note_on_c, 10, 68, 0
12, 32400, Note_on_c, 10, 71, 76
12, 32504, Note_on_c, 10, 71, 0
12, 32520, Note_on_c, 10, 74, 76
12, 32639, Note_on_c, 10, 74, 0
12, 32640, Note_on_c, 10, 80, 76
12, 32759, Note_on_c, 10, 80, 0
12, 32760, Note_on_c, 10, 83, 76
12, 32864, Note_on_c, 10, 83, 0
12, 32880, Note_on_c, 10, 74, 76
12, 32999, Note_on_c, 10, 74, 0
12, 33000, Note_on_c, 10, 73, 76
12, 33119, Note_on_c, 10, 73, 0
12, 33120, Note_on_c, 10, 71, 76
12, 33224, Note_on_c, 10, 71, 0
12, 33240, Note_on_c, 10, 73, 76
12, 33299, Note_on_c, 10, 73, 0
12, 33300, Note_on_c, 10, 74, 76
12, 33359, Note_on_c, 10, 74, 0
12, 33360, Note_on_c, 10, 76, 76
12, 33464, Note_on_c, 10, 76, 0
12, 33480, Note_on_c, 10, 69, 76
12, 33584, Note_on_c, 10, 69, 0
12, 33600, Note_on_c, 10, 64, 76
12, 33704, Note_on_c, 10, 64, 0
12, 33720, Note_on_c, 10, 69, 76
12, 33824, Note_on_c, 10, 69, 0
12, 33840, Note_on_c, 10, 68, 76
12, 33944, Note_on_c, 10, 68, 0
12, 33960, Note_on_c, 10, 69, 76
12, 34544, Note_on_c, 10, 69, 0
12, 34560, Note_on_c, 10, 69, 76
12, 34664, Note_on_c, 10, 69, 0
12, 34680, Note_on_c, 10, 76, 76
12, 35024, Note_on_c, 10, 76, 0
12, 35040, Note_on_c, 10, 78, 76
12, 35384, Note_on_c, 10, 78, 0
12, 35400, Note_on_c, 10, 76, 76
12, 35864, Note_on_c, 10, 76, 0
12, 35880, Note_on_c, 10, 78, 76
12, 35984, Note_on_c, 10, 78, 0
12, 36000, Note_on_c, 10, 79, 76
12, 36104, Note_on_c, 10, 79, 0
12, 36120, Note_on_c, 10, 78, 76
12, 36239, Note_on_c, 10, 78, 0
12, 36240, Note_on_c, 10, 76, 76
12, 36359, Note_on_c, 10, 76, 0
12, 36360, Note_on_c, 10, 74, 76
12, 36464, Note_on_c, 10, 74, 0
12, 36480, Note_on_c, 10, 73, 76
12, 36599, Note_on_c, 10, 73, 0
12, 36600, Note_on_c, 10, 74, 76
12, 36719, Note_on_c, 10, 74, 0
12, 36720, Note_on_c, 10, 71, 76
12, 36824, Note_on_c, 10, 71, 0
12, 36840, Note_on_c, 10, 70, 76
12, 36959, Note_on_c, 10, 70, 0
12, 36960, Note_on_c, 10, 71, 76
12, 37079, Note_on_c, 10, 71, 0
12, 37080, Note_on_c, 10, 73, 76
12, 37184, Note_on_c, 10, 73, 0
12, 37200, Note_on_c, 10, 66, 76
12, 37319, Note_on_c, 10, 66, 0
12, 37320, Note_on_c, 10, 70, 76
12, 37439, Note_on_c, 10, 70, 0
12, 37440, Note_on_c, 10, 73, 76
12, 37544, Note_on_c, 10, 73, 0
12, 37560, Note_on_c, 10, 78, 76
12, 37904, Note_on_c, 10, 78, 0
12, 37920, Note_on_c, 10, 79, 76
12, 38227, Note_on_c, 10, 79, 0
12, 38240, Note_on_c, 10, 79, 76
12, 38279, Note_on_c, 10, 79, 0
12, 38280, Note_on_c, 10, 78, 76
12, 38744, Note_on_c, 10, 78, 0
12, 38760, Note_on_c, 10, 76, 76
12, 38864, Note_on_c, 10, 76, 0
12, 38880, Note_on_c, 10, 74, 76
12, 38984, Note_on_c, 10, 74, 0
12, 39000, Note_on_c, 10, 73, 76
12, 39119, Note_on_c, 10, 73, 0
12, 39120, Note_on_c, 10, 74, 76
12, 39239, Note_on_c, 10, 74, 0
12, 39240, Note_on_c, 10, 71, 76
12, 39344, Note_on_c, 10, 71, 0
12, 39360, Note_on_c, 10, 66, 76
12, 39479, Note_on_c, 10, 66, 0
12, 39480, Note_on_c, 10, 71, 76
12, 39599, Note_on_c, 10, 71, 0
12, 39600, Note_on_c, 10, 70, 76
12, 39704, Note_on_c, 10, 70, 0
12, 39720, Note_on_c, 10, 71, 76
12, 40184, Note_on_c, 10, 71, 0
12, 40200, Note_on_c, 10, 74, 76
12, 40304, Note_on_c, 10, 74, 0
12, 40320, Note_on_c, 10, 73, 76
12, 40424, Note_on_c, 10, 73, 0
12, 40440, Note_on_c, 10, 74, 76
12, 40559, Note_on_c, 10, 74, 0
12, 40560, Note_on_c, 10, 73, 76
12, 40679, Note_on_c, 10, 73, 0
12, 40680, Note_on_c, 10, 74, 76
12, 40784, Note_on_c, 10, 74, 0
12, 40800, Note_on_c, 10, 74, 76
12, 40919, Note_on_c, 10, 74, 0
12, 40920, Note_on_c, 10, 73, 76
12, 41039, Note_on_c, 10, 73, 0
12, 41040, Note_on_c, 10, 74, 76
12, 41144, Note_on_c, 10, 74, 0
12, 41160, Note_on_c, 10, 74, 76
12, 41279, Note_on_c, 10, 74, 0
12, 41280, Note_on_c, 10, 73, 76
12, 41399, Note_on_c, 10, 73, 0
12, 41400, Note_on_c, 10, 74, 76
12, 41504, Note_on_c, 10, 74, 0
12, 41520, Note_on_c, 10, 64, 76
12, 41639, Note_on_c, 10, 64, 0
12, 41640, Note_on_c, 10, 68, 76
12, 41759, Note_on_c, 10, 68, 0
12, 41760, Note_on_c, 10, 71, 76
12, 41864, Note_on_c, 10, 71, 0
12, 41880, Note_on_c, 10, 76, 76
12, 41999, Note_on_c, 10, 76, 0
12, 42000, Note_on_c, 10, 74, 76
12, 42119, Note_on_c, 10, 74, 0
12, 42120, Note_on_c, 10, 73, 76
12, 42224, Note_on_c, 10, 73, 0
12, 42240, Note_on_c, 10, 71, 76
12, 42359, Note_on_c, 10, 71, 0
12, 42360, Note_on_c, 10, 73, 76
12, 42479, Note_on_c, 10, 73, 0
12, 42480, Note_on_c, 10, 74, 76
12, 42584, Note_on_c, 10, 74, 0
12, 42600, Note_on_c, 10, 73, 76
12, 42719, Note_on_c, 10, 73, 0
12, 42720, Note_on_c, 10, 71, 76
12, 42839, Note_on_c, 10, 71, 0
12, 42840, Note_on_c, 10, 73, 76
12, 42944, Note_on_c, 10, 73, 0
12, 42960, Note_on_c, 10, 69, 76
12, 43079, Note_on_c, 10, 69, 0
12, 43080, Note_on_c, 10, 73, 76
12, 43199, Note_on_c, 10, 73, 0
12, 43200, Note_on_c, 10, 76, 76
12, 43304, Note_on_c, 10, 76, 0
12, 43320, Note_on_c, 10, 79, 76
12, 43439, Note_on_c, 10, 79, 0
12, 43440, Note_on_c, 10, 78, 76
12, 43559, Note_on_c, 10, 78, 0
12, 43560, Note_on_c, 10, 79, 76
12, 43664, Note_on_c, 10, 79, 0
12, 43680, Note_on_c, 10, 79, 76
12, 43799, Note_on_c, 10, 79, 0
12, 43800, Note_on_c, 10, 78, 76
12, 43919, Note_on_c, 10, 78, 0
12, 43920, Note_on_c, 10, 79, 76
12, 44024, Note_on_c, 10, 79, 0
12, 44040, Note_on_c, 10, 79, 76
12, 44159, Note_on_c, 10, 79, 0
12, 44160, Note_on_c, 10, 78, 76
12, 44279, Note_on_c, 10, 78, 0
12, 44280, Note_on_c, 10, 79, 76
12, 44384, Note_on_c, 10, 79, 0
12, 44400, Note_on_c, 10, 69, 76
12, 44519, Note_on_c, 10, 69, 0
12, 44520, Note_on_c, 10, 73, 76
12, 44639, Note_on_c, 10, 73, 0
12, 44640, Note_on_c, 10, 76, 76
12, 44744, Note_on_c, 10, 76, 0
12, 44760, Note_on_c, 10, 81, 76
12, 44879, Note_on_c, 10, 81, 0
12, 44880, Note_on_c, 10, 79, 76
12, 44999, Note_on_c, 10, 79, 0
12, 45000, Note_on_c, 10, 78, 76
12, 45104, Note_on_c, 10, 78, 0
12, 45120, Note_on_c, 10, 76, 76
12, 45239, Note_on_c, 10, 76, 0
12, 45240, Note_on_c, 10, 78, 76
12, 45359, Note_on_c, 10, 78, 0
12, 45360, Note_on_c, 10, 79, 76
12, 45464, Note_on_c, 10, 79, 0
12, 45480, Note_on_c, 10, 78, 76
12, 45599, Note_on_c, 10, 78, 0
12, 45600, Note_on_c, 10, 76, 76
12, 45719, Note_on_c, 10, 76, 0
12, 45720, Note_on_c, 10, 78, 76
12, 45824, Note_on_c, 10, 78, 0
12, 45840, Note_on_c, 10, 74, 76
12, 45959, Note_on_c, 10, 74, 0
12, 45960, Note_on_c, 10, 78, 76
12, 46079, Note_on_c, 10, 78, 0
12, 46080, Note_on_c, 10, 76, 76
12, 46184, Note_on_c, 10, 76, 0
12, 46200, Note_on_c, 10, 78, 76
12, 46319, Note_on_c, 10, 78, 0
12, 46320, Note_on_c, 10, 80, 76
12, 46439, Note_on_c, 10, 80, 0
12, 46440, Note_on_c, 10, 81, 76
12, 46544, Note_on_c, 10, 81, 0
12, 46560, Note_on_c, 10, 80, 76
12, 46679, Note_on_c, 10, 80, 0
12, 46680, Note_on_c, 10, 81, 76
12, 46799, Note_on_c, 10, 81, 0
12, 46800, Note_on_c, 10, 83, 76
12, 46904, Note_on_c, 10, 83, 0
12, 46920, Note_on_c, 10, 73, 76
12, 47384, Note_on_c, 10, 73, 0
12, 47400, Note_on_c, 10, 80, 76
12, 47504, Note_on_c, 10, 80, 0
12, 47520, Note_on_c, 10, 83, 76
12, 47624, Note_on_c, 10, 83, 0
12, 47640, Note_on_c, 10, 81, 76
12, 47759, Note_on_c, 10, 81, 0
12, 47760, Note_on_c, 10, 80, 76
12, 47879, Note_on_c, 10, 80, 0
12, 47880, Note_on_c, 10, 78, 76
12, 47984, Note_on_c, 10, 78, 0
12, 48000, Note_on_c, 10, 76, 76
12, 48119, Note_on_c, 10, 76, 0
12, 48120, Note_on_c, 10, 74, 76
12, 48239, Note_on_c, 10, 74, 0
12, 48240, Note_on_c, 10, 73, 76
12, 48344, Note_on_c, 10, 73, 0
12, 48360, Note_on_c, 10, 71, 76
12, 48824, Note_on_c, 10, 71, 0
12, 48840, Note_on_c, 10, 78, 76
12, 48944, Note_on_c, 10, 78, 0
12, 48960, Note_on_c, 10, 81, 76
12, 49064, Note_on_c, 10, 81, 0
12, 49080, Note_on_c, 10, 80, 76
12, 49199, Note_on_c, 10, 80, 0
12, 49200, Note_on_c, 10, 78, 76
12, 49319, Note_on_c, 10, 78, 0
12, 49320, Note_on_c, 10, 77, 76
12, 49424, Note_on_c, 10, 77, 0
12, 49440, Note_on_c, 10, 78, 76
12, 49559, Note_on_c, 10, 78, 0
12, 49560, Note_on_c, 10, 76, 76
12, 49679, Note_on_c, 10, 76, 0
12, 49680, Note_on_c, 10, 74, 76
12, 49784, Note_on_c, 10, 74, 0
12, 49800, Note_on_c, 10, 73, 76
12, 49919, Note_on_c, 10, 73, 0
12, 49920, Note_on_c, 10, 78, 76
12, 50039, Note_on_c, 10, 78, 0
12, 50040, Note_on_c, 10, 76, 76
12, 50144, Note_on_c, 10, 76, 0
12, 50160, Note_on_c, 10, 74, 76
12, 50279, Note_on_c, 10, 74, 0
12, 50280, Note_on_c, 10, 73, 76
12, 50399, Note_on_c, 10, 73, 0
12, 50400, Note_on_c, 10, 71, 76
12, 50504, Note_on_c, 10, 71, 0
12, 50520, Note_on_c, 10, 69, 76
12, 50639, Note_on_c, 10, 69, 0
12, 50640, Note_on_c, 10, 68, 76
12, 50759, Note_on_c, 10, 68, 0
12, 50760, Note_on_c, 10, 66, 76
12, 50864, Note_on_c, 10, 66, 0
12, 50880, Note_on_c, 10, 71, 76
12, 50999, Note_on_c, 10, 71, 0
12, 51000, Note_on_c, 10, 69, 76
12, 51119, Note_on_c, 10, 69, 0
12, 51120, Note_on_c, 10, 68, 76
12, 51224, Note_on_c, 10, 68, 0
12, 51240, Note_on_c, 10, 66, 76
12, 51824, Note_on_c, 10, 66, 0
12, 51840, Note_on_c, 10, 62, 76
12, 51944, Note_on_c, 10, 62, 0
12, 51960, Note_on_c, 10, 69, 76
12, 52304, Note_on_c, 10, 69, 0
12, 52320, Note_on_c, 10, 71, 76
12, 52664, Note_on_c, 10, 71, 0
12, 52680, Note_on_c, 10, 72, 76
12, 53144, Note_on_c, 10, 72, 0
12, 53160, Note_on_c, 10, 71, 76
12, 53264, Note_on_c, 10, 71, 0
12, 53280, Note_on_c, 10, 69, 76
12, 53384, Note_on_c, 10, 69, 0
12, 53400, Note_on_c, 10, 71, 76
12, 53519, Note_on_c, 10, 71, 0
12, 53520, Note_on_c, 10, 74, 76
12, 53639, Note_on_c, 10, 74, 0
12, 53640, Note_on_c, 10, 79, 76
12, 53744, Note_on_c, 10, 79, 0
12, 53760, Note_on_c, 10, 69, 76
12, 53879, Note_on_c, 10, 69, 0
12, 53880, Note_on_c, 10, 79, 76
12, 53999, Note_on_c, 10, 79, 0
12, 54000, Note_on_c, 10, 78, 76
12, 54104, Note_on_c, 10, 78, 0
12, 54120, Note_on_c, 10, 79, 76
12, 54239, Note_on_c, 10, 79, 0
12, 54240, Note_on_c, 10, 83, 76
12, 54359, Note_on_c, 10, 83, 0
12, 54360, Note_on_c, 10, 81, 76
12, 54464, Note_on_c, 10, 81, 0
12, 54480, Note_on_c, 10, 83, 76
12, 54944, Note_on_c, 10, 83, 0
12, 54960, Note_on_c, 10, 81, 76
12, 55064, Note_on_c, 10, 81, 0
12, 55080, Note_on_c, 10, 79, 76
12, 55184, Note_on_c, 10, 79, 0
12, 55200, Note_on_c, 10, 78, 76
12, 55319, Note_on_c, 10, 78, 0
12, 55320, Note_on_c, 10, 79, 76
12, 55439, Note_on_c, 10, 79, 0
12, 55440, Note_on_c, 10, 76, 76
12, 55544, Note_on_c, 10, 76, 0
12, 55560, Note_on_c, 10, 78, 76
12, 55679, Note_on_c, 10, 78, 0
12, 55680, Note_on_c, 10, 81, 76
12, 55799, Note_on_c, 10, 81, 0
12, 55800, Note_on_c, 10, 79, 76
12, 55904, Note_on_c, 10, 79, 0
12, 55920, Note_on_c, 10, 81, 76
12, 56384, Note_on_c, 10, 81, 0
12, 56400, Note_on_c, 10, 79, 76
12, 56504, Note_on_c, 10, 79, 0
12, 56520, Note_on_c, 10, 78, 76
12, 56624, Note_on_c, 10, 78, 0
12, 56640, Note_on_c, 10, 76, 76
12, 56759, Note_on_c, 10, 76, 0
12, 56760, Note_on_c, 10, 78, 76
12, 56879, Note_on_c, 10, 78, 0
12, 56880, Note_on_c, 10, 75, 76
12, 56984, Note_on_c, 10, 75, 0
12, 57000, Note_on_c, 10, 76, 76
12, 57119, Note_on_c, 10, 76, 0
12, 57120, Note_on_c, 10, 79, 76
12, 57239, Note_on_c, 10, 79, 0
12, 57240, Note_on_c, 10, 78, 76
12, 57344, Note_on_c, 10, 78, 0
12, 57360, Note_on_c, 10, 79, 76
12, 57824, Note_on_c, 10, 79, 0
12, 57840, Note_on_c, 10, 78, 76
12, 57944, Note_on_c, 10, 78, 0
12, 57960, Note_on_c, 10, 76, 76
12, 58064, Note_on_c, 10, 76, 0
12, 58080, Note_on_c, 10, 74, 76
12, 58199, Note_on_c, 10, 74, 0
12, 58200, Note_on_c, 10, 76, 76
12, 58319, Note_on_c, 10, 76, 0
12, 58320, Note_on_c, 10, 73, 76
12, 58424, Note_on_c, 10, 73, 0
12, 58440, Note_on_c, 10, 74, 76
12, 58559, Note_on_c, 10, 74, 0
12, 58560, Note_on_c, 10, 78, 76
12, 58679, Note_on_c, 10, 78, 0
12, 58680, Note_on_c, 10, 76, 76
12, 58784, Note_on_c, 10, 76, 0
12, 58800, Note_on_c, 10, 78, 76
12, 58919, Note_on_c, 10, 78, 0
12, 58920, Note_on_c, 10, 79, 76
12, 59039, Note_on_c, 10, 79, 0
12, 59040, Note_on_c, 10, 81, 76
12, 59144, Note_on_c, 10, 81, 0
12, 59160, Note_on_c, 10, 71, 76
12, 59279, Note_on_c, 10, 71, 0
12, 59280, Note_on_c, 10, 73, 76
12, 59399, Note_on_c, 10, 73, 0
12, 59400, Note_on_c, 10, 74, 76
12, 59504, Note_on_c, 10, 74, 0
12, 59520, Note_on_c, 10, 76, 76
12, 59639, Note_on_c, 10, 76, 0
12, 59640, Note_on_c, 10, 78, 76
12, 59759, Note_on_c, 10, 78, 0
12, 59760, Note_on_c, 10, 74, 76
12, 59864, Note_on_c, 10, 74, 0
12, 59880, Note_on_c, 10, 73, 76
12, 59999, Note_on_c, 10, 73, 0
12, 60000, Note_on_c, 10, 74, 76
12, 60119, Note_on_c, 10, 74, 0
12, 60120, Note_on_c, 10, 76, 76
12, 60224, Note_on_c, 10, 76, 0
12, 60240, Note_on_c, 10, 78, 76
12, 60359, Note_on_c, 10, 78, 0
12, 60360, Note_on_c, 10, 79, 76
12, 60479, Note_on_c, 10, 79, 0
12, 60480, Note_on_c, 10, 76, 76
12, 60584, Note_on_c, 10, 76, 0
12, 60600, Note_on_c, 10, 74, 76
12, 60719, Note_on_c, 10, 74, 0
12, 60720, Note_on_c, 10, 76, 76
12, 60839, Note_on_c, 10, 76, 0
12, 60840, Note_on_c, 10, 78, 76
12, 60944, Note_on_c, 10, 78, 0
12, 60960, Note_on_c, 10, 79, 76
12, 61079, Note_on_c, 10, 79, 0
12, 61080, Note_on_c, 10, 81, 76
12, 61199, Note_on_c, 10, 81, 0
12, 61200, Note_on_c, 10, 78, 76
12, 61304, Note_on_c, 10, 78, 0
12, 61320, Note_on_c, 10, 76, 76
12, 61439, Note_on_c, 10, 76, 0
12, 61440, Note_on_c, 10, 78, 76
12, 61559, Note_on_c, 10, 78, 0
12, 61560, Note_on_c, 10, 79, 76
12, 61664, Note_on_c, 10, 79, 0
12, 61680, Note_on_c, 10, 81, 76
12, 61799, Note_on_c, 10, 81, 0
12, 61800, Note_on_c, 10, 83, 76
12, 61919, Note_on_c, 10, 83, 0
12, 61920, Note_on_c, 10, 79, 76
12, 62024, Note_on_c, 10, 79, 0
12, 62040, Note_on_c, 10, 78, 76
12, 62504, Note_on_c, 10, 78, 0
12, 62520, Note_on_c, 10, 76, 76
12, 62624, Note_on_c, 10, 76, 0
12, 62640, Note_on_c, 10, 74, 76
12, 62744, Note_on_c, 10, 74, 0
12, 62760, Note_on_c, 10, 76, 76
12, 62879, Note_on_c, 10, 76, 0
12, 62880, Note_on_c, 10, 73, 76
12, 62999, Note_on_c, 10, 73, 0
12, 63000, Note_on_c, 10, 74, 76
12, 63104, Note_on_c, 10, 74, 0
12, 63120, Note_on_c, 10, 69, 76
12, 63239, Note_on_c, 10, 69, 0
12, 63240, Note_on_c, 10, 74, 76
12, 63359, Note_on_c, 10, 74, 0
12, 63360, Note_on_c, 10, 73, 76
12, 63464, Note_on_c, 10, 73, 0
12, 63480, Note_on_c, 10, 62, 76
12, 63704, Note_on_c, 10, 62, 0
12, 63720, Note_on_c, 10, 74, 76
12, 63824, Note_on_c, 10, 74, 0
12, 63840, Note_on_c, 10, 81, 76
12, 64304, Note_on_c, 10, 81, 0
12, 64320, Note_on_c, 10, 83, 76
12, 64424, Note_on_c, 10, 83, 0
12, 64440, Note_on_c, 10, 81, 76
12, 64544, Note_on_c, 10, 81, 0
12, 64560, Note_on_c, 10, 80, 76
12, 64679, Note_on_c, 10, 80, 0
12, 64680, Note_on_c, 10, 76, 76
12, 64799, Note_on_c, 10, 76, 0
12, 64800, Note_on_c, 10, 78, 76
12, 64904, Note_on_c, 10, 78, 0
12, 64920, Note_on_c, 10, 79, 76
12, 65039, Note_on_c, 10, 79, 0
12, 65040, Note_on_c, 10, 81, 76
12, 65159, Note_on_c, 10, 81, 0
12, 65160, Note_on_c, 10, 79, 76
12, 65264, Note_on_c, 10, 79, 0
12, 65280, Note_on_c, 10, 78, 76
12, 65399, Note_on_c, 10, 78, 0
12, 65400, Note_on_c, 10, 74, 76
12, 65519, Note_on_c, 10, 74, 0
12, 65520, Note_on_c, 10, 76, 76
12, 65624, Note_on_c, 10, 76, 0
12, 65640, Note_on_c, 10, 77, 76
12, 65759, Note_on_c, 10, 77, 0
12, 65760, Note_on_c, 10, 79, 76
12, 65879, Note_on_c, 10, 79, 0
12, 65880, Note_on_c, 10, 77, 76
12, 65984, Note_on_c, 10, 77, 0
12, 66000, Note_on_c, 10, 76, 76
12, 66119, Note_on_c, 10, 76, 0
12, 66120, Note_on_c, 10, 73, 76
12, 66239, Note_on_c, 10, 73, 0
12, 66240, Note_on_c, 10, 74, 76
12, 66344, Note_on_c, 10, 74, 0
12, 66360, Note_on_c, 10, 73, 76
12, 66479, Note_on_c, 10, 73, 0
12, 66480, Note_on_c, 10, 74, 76
12, 66599, Note_on_c, 10, 74, 0
12, 66600, Note_on_c, 10, 76, 76
12, 66704, Note_on_c, 10, 76, 0
12, 66720, Note_on_c, 10, 69, 76
12, 67304, Note_on_c, 10, 69, 0
12, 67320, Note_on_c, 10, 81, 76
12, 67424, Note_on_c, 10, 81, 0
12, 67440, Note_on_c, 10, 83, 76
12, 67664, Note_on_c, 10, 83, 0
12, 67680, Note_on_c, 10, 85, 76
12, 67784, Note_on_c, 10, 85, 0
12, 67800, Note_on_c, 10, 86, 76
12, 68024, Note_on_c, 10, 86, 0
12, 68040, Note_on_c, 10, 81, 76
12, 68144, Note_on_c, 10, 81, 0
12, 68160, Note_on_c, 10, 78, 76
12, 68279, Note_on_c, 10, 78, 0
12, 68280, Note_on_c, 10, 76, 76
12, 68399, Note_on_c, 10, 76, 0
12, 68400, Note_on_c, 10, 74, 76
12, 68504, Note_on_c, 10, 74, 0
12, 68520, Note_on_c, 10, 74, 76
12, 69104, Note_on_c, 10, 74, 0
12, 69120, Note_on_c, 10, 69, 76
12, 69224, Note_on_c, 10, 69, 0
12, 69240, Note_on_c, 10, 76, 76
12, 69584, Note_on_c, 10, 76, 0
12, 69600, Note_on_c, 10, 78, 76
12, 69944, Note_on_c, 10, 78, 0
12, 69960, Note_on_c, 10, 76, 76
12, 70424, Note_on_c, 10, 76, 0
12, 70440, Note_on_c, 10, 78, 76
12, 70544, Note_on_c, 10, 78, 0
12, 70560, Note_on_c, 10, 79, 76
12, 70664, Note_on_c, 10, 79, 0
12, 70680, Note_on_c, 10, 78, 76
12, 70799, Note_on_c, 10, 78, 0
12, 70800, Note_on_c, 10, 76, 76
12, 70919, Note_on_c, 10, 76, 0
12, 70920, Note_on_c, 10, 74, 76
12, 71024, Note_on_c, 10, 74, 0
12, 71040, Note_on_c, 10, 73, 76
12, 71159, Note_on_c, 10, 73, 0
12, 71160, Note_on_c, 10, 74, 76
12, 71279, Note_on_c, 10, 74, 0
12, 71280, Note_on_c, 10, 71, 76
12, 71384, Note_on_c, 10, 71, 0
12, 71400, Note_on_c, 10, 70, 76
12, 71519, Note_on_c, 10, 70, 0
12, 71520, Note_on_c, 10, 71, 76
12, 71639, Note_on_c, 10, 71, 0
12, 71640, Note_on_c, 10, 73, 76
12, 71744, Note_on_c, 10, 73, 0
12, 71760, Note_on_c, 10, 66, 76
12, 71879, Note_on_c, 10, 66, 0
12, 71880, Note_on_c, 10, 70, 76
12, 71999, Note_on_c, 10, 70, 0
12, 72000, Note_on_c, 10, 73, 76
12, 72104, Note_on_c, 10, 73, 0
12, 72120, Note_on_c, 10, 78, 76
12, 72464, Note_on_c, 10, 78, 0
12, 72480, Note_on_c, 10, 79, 76
12, 72787, Note_on_c, 10, 79, 0
12, 72800, Note_on_c, 10, 79, 76
12, 72839, Note_on_c, 10, 79, 0
12, 72840, Note_on_c, 10, 78, 76
12, 73304, Note_on_c, 10, 78, 0
12, 73320, Note_on_c, 10, 76, 76
12, 73424, Note_on_c, 10, 76, 0
12, 73440, Note_on_c, 10, 74, 76
12, 73544, Note_on_c, 10, 74, 0
12, 73560, Note_on_c, 10, 73, 76
12, 73679, Note_on_c, 10, 73, 0
12, 73680, Note_on_c, 10, 74, 76
12, 73799, Note_on_c, 10, 74, 0
12, 73800, Note_on_c, 10, 71, 76
12, 73904, Note_on_c, 10, 71, 0
12, 73920, Note_on_c, 10, 66, 76
12, 74039, Note_on_c, 10, 66, 0
12, 74040, Note_on_c, 10, 71, 76
12, 74159, Note_on_c, 10, 71, 0
12, 74160, Note_on_c, 10, 70, 76
12, 74264, Note_on_c, 10, 70, 0
12, 74280, Note_on_c, 10, 71, 76
12, 74744, Note_on_c, 10, 71, 0
12, 74760, Note_on_c, 10, 74, 76
12, 74864, Note_on_c, 10, 74, 0
12, 74880, Note_on_c, 10, 73, 76
12, 74984, Note_on_c, 10, 73, 0
12, 75000, Note_on_c, 10, 74, 76
12, 75119, Note_on_c, 10, 74, 0
12, 75120, Note_on_c, 10, 73, 76
12, 75239, Note_on_c, 10, 73, 0
12, 75240, Note_on_c, 10, 74, 76
12, 75344, Note_on_c, 10, 74, 0
12, 75360, Note_on_c, 10, 74, 76
12, 75479, Note_on_c, 10, 74, 0
12, 75480, Note_on_c, 10, 73, 76
12, 75599, Note_on_c, 10, 73, 0
12, 75600, Note_on_c, 10, 74, 76
12, 75704, Note_on_c, 10, 74, 0
12, 75720, Note_on_c, 10, 74, 76
12, 75839, Note_on_c, 10, 74, 0
12, 75840, Note_on_c, 10, 73, 76
12, 75959, Note_on_c, 10, 73, 0
12, 75960, Note_on_c, 10, 74, 76
12, 76064, Note_on_c, 10, 74, 0
12, 76080, Note_on_c, 10, 64, 76
12, 76199, Note_on_c, 10, 64, 0
12, 76200, Note_on_c, 10, 68, 76
12, 76319, Note_on_c, 10, 68, 0
12, 76320, Note_on_c, 10, 71, 76
12, 76424, Note_on_c, 10, 71, 0
12, 76440, Note_on_c, 10, 76, 76
12, 76559, Note_on_c, 10, 76, 0
12, 76560, Note_on_c, 10, 74, 76
12, 76679, Note_on_c, 10, 74, 0
12, 76680, Note_on_c, 10, 73, 76
12, 76784, Note_on_c, 10, 73, 0
12, 76800, Note_on_c, 10, 71, 76
12, 76919, Note_on_c, 10, 71, 0
12, 76920, Note_on_c, 10, 73, 76
12, 77039, Note_on_c, 10, 73, 0
12, 77040, Note_on_c, 10, 74, 76
12, 77144, Note_on_c, 10, 74, 0
12, 77160, Note_on_c, 10, 73, 76
12, 77279, Note_on_c, 10, 73, 0
12, 77280, Note_on_c, 10, 71, 76
12, 77399, Note_on_c, 10, 71, 0
12, 77400, Note_on_c, 10, 73, 76
12, 77504, Note_on_c, 10, 73, 0
12, 77520, Note_on_c, 10, 69, 76
12, 77639, Note_on_c, 10, 69, 0
12, 77640, Note_on_c, 10, 73, 76
12, 77759, Note_on_c, 10, 73, 0
12, 77760, Note_on_c, 10, 76, 76
12, 77864, Note_on_c, 10, 76, 0
12, 77880, Note_on_c, 10, 79, 76
12, 77999, Note_on_c, 10, 79, 0
12, 78000, Note_on_c, 10, 78, 76
12, 78119, Note_on_c, 10, 78, 0
12, 78120, Note_on_c, 10, 79, 76
12, 78224, Note_on_c, 10, 79, 0
12, 78240, Note_on_c, 10, 79, 76
12, 78359, Note_on_c, 10, 79, 0
12, 78360, Note_on_c, 10, 78, 76
12, 78479, Note_on_c, 10, 78, 0
12, 78480, Note_on_c, 10, 79, 76
12, 78584, Note_on_c, 10, 79, 0
12, 78600, Note_on_c, 10, 79, 76
12, 78719, Note_on_c, 10, 79, 0
12, 78720, Note_on_c, 10, 78, 76
12, 78839, Note_on_c, 10, 78, 0
12, 78840, Note_on_c, 10, 79, 76
12, 78944, Note_on_c, 10, 79, 0
12, 78960, Note_on_c, 10, 69, 76
12, 79079, Note_on_c, 10, 69, 0
12, 79080, Note_on_c, 10, 73, 76
12, 79199, Note_on_c, 10, 73, 0
12, 79200, Note_on_c, 10, 76, 76
12, 79304, Note_on_c, 10, 76, 0
12, 79320, Note_on_c, 10, 81, 76
12, 79439, Note_on_c, 10, 81, 0
12, 79440, Note_on_c, 10, 79, 76
12, 79559, Note_on_c, 10, 79, 0
12, 79560, Note_on_c, 10, 78, 76
12, 79664, Note_on_c, 10, 78, 0
12, 79680, Note_on_c, 10, 76, 76
12, 79799, Note_on_c, 10, 76, 0
12, 79800, Note_on_c, 10, 78, 76
12, 79919, Note_on_c, 10, 78, 0
12, 79920, Note_on_c, 10, 79, 76
12, 80024, Note_on_c, 10, 79, 0
12, 80040, Note_on_c, 10, 78, 76
12, 80159, Note_on_c, 10, 78, 0
12, 80160, Note_on_c, 10, 76, 76
12, 80279, Note_on_c, 10, 76, 0
12, 80280, Note_on_c, 10, 78, 76
12, 80384, Note_on_c, 10, 78, 0
12, 80400, Note_on_c, 10, 74, 76
12, 80519, Note_on_c, 10, 74, 0
12, 80520, Note_on_c, 10, 78, 76
12, 80639, Note_on_c, 10, 78, 0
12, 80640, Note_on_c, 10, 76, 76
12, 80744, Note_on_c, 10, 76, 0
12, 80760, Note_on_c, 10, 78, 76
12, 80879, Note_on_c, 10, 78, 0
12, 80880, Note_on_c, 10, 80, 76
12, 80999, Note_on_c, 10, 80, 0
12, 81000, Note_on_c, 10, 81, 76
12, 81104, Note_on_c, 10, 81, 0
12, 81120, Note_on_c, 10, 80, 76
12, 81239, Note_on_c, 10, 80, 0
12, 81240, Note_on_c, 10, 81, 76
12, 81359, Note_on_c, 10, 81, 0
12, 81360, Note_on_c, 10, 83, 76
12, 81464, Note_on_c, 10, 83, 0
12, 81480, Note_on_c, 10, 73, 76
12, 81944, Note_on_c, 10, 73, 0
12, 81960, Note_on_c, 10, 80, 76
12, 82064, Note_on_c, 10, 80, 0
12, 82080, Note_on_c, 10, 83, 76
12, 82184, Note_on_c, 10, 83, 0
12, 82200, Note_on_c, 10, 81, 76
12, 82319, Note_on_c, 10, 81, 0
12, 82320, Note_on_c, 10, 80, 76
12, 82439, Note_on_c, 10, 80, 0
12, 82440, Note_on_c, 10, 78, 76
12, 82544, Note_on_c, 10, 78, 0
12, 82560, Note_on_c, 10, 76, 76
12, 82679, Note_on_c, 10, 76, 0
12, 82680, Note_on_c, 10, 74, 76
12, 82799, Note_on_c, 10, 74, 0
12, 82800, Note_on_c, 10, 73, 76
12, 82904, Note_on_c, 10, 73, 0
12, 82920, Note_on_c, 10, 71, 76
12, 83384, Note_on_c, 10, 71, 0
12, 83400, Note_on_c, 10, 78, 76
12, 83504, Note_on_c, 10, 78, 0
12, 83520, Note_on_c, 10, 81, 76
12, 83624, Note_on_c, 10, 81, 0
12, 83640, Note_on_c, 10, 80, 76
12, 83759, Note_on_c, 10, 80, 0
12, 83760, Note_on_c, 10, 78, 76
12, 83879, Note_on_c, 10, 78, 0
12, 83880, Note_on_c, 10, 77, 76
12, 83984, Note_on_c, 10, 77, 0
12, 84000, Note_on_c, 10, 78, 76
12, 84119, Note_on_c, 10, 78, 0
12, 84120, Note_on_c, 10, 76, 76
12, 84239, Note_on_c, 10, 76, 0
12, 84240, Note_on_c, 10, 74, 76
12, 84344, Note_on_c, 10, 74, 0
12, 84360, Note_on_c, 10, 73, 76
12, 84479, Note_on_c, 10, 73, 0
12, 84480, Note_on_c, 10, 78, 76
12, 84599, Note_on_c, 10, 78, 0
12, 84600, Note_on_c, 10, 76, 76
12, 84704, Note_on_c, 10, 76, 0
12, 84720, Note_on_c, 10, 74, 76
12, 84839, Note_on_c, 10, 74, 0
12, 84840, Note_on_c, 10, 73, 76
12, 84959, Note_on_c, 10, 73, 0
12, 84960, Note_on_c, 10, 71, 76
12, 85064, Note_on_c, 10, 71, 0
12, 85080, Note_on_c, 10, 69, 76
12, 85199, Note_on_c, 10, 69, 0
12, 85200, Note_on_c, 10, 68, 76
12, 85319, Note_on_c, 10, 68, 0
12, 85320, Note_on_c, 10, 66, 76
12, 85424, Note_on_c, 10, 66, 0
12, 85440, Note_on_c, 10, 71, 76
12, 85559, Note_on_c, 10, 71, 0
12, 85560, Note_on_c, 10, 69, 76
12, 85679, Note_on_c, 10, 69, 0
12, 85680, Note_on_c, 10, 68, 76
12, 85784, Note_on_c, 10, 68, 0
12, 85800, Note_on_c, 10, 66, 76
12, 86384, Note_on_c, 10, 66, 0
12, 86400, Note_on_c, 10, 62, 76
12, 86504, Note_on_c, 10, 62, 0
12, 86520, Note_on_c, 10, 69, 76
12, 86864, Note_on_c, 10, 69, 0
12, 86880, Note_on_c, 10, 71, 76
12, 87224, Note_on_c, 10, 71, 0
12, 87240, Note_on_c, 10, 72, 76
12, 87704, Note_on_c, 10, 72, 0
12, 87720, Note_on_c, 10, 71, 76
12, 87824, Note_on_c, 10, 71, 0
12, 87840, Note_on_c, 10, 69, 76
12, 87944, Note_on_c, 10, 69, 0
12, 87960, Note_on_c, 10, 71, 76
12, 88079, Note_on_c, 10, 71, 0
12, 88080, Note_on_c, 10, 74, 76
12, 88199, Note_on_c, 10, 74, 0
12, 88200, Note_on_c, 10, 79, 76
12, 88304, Note_on_c, 10, 79, 0
12, 88320, Note_on_c, 10, 69, 76
12, 88439, Note_on_c, 10, 69, 0
12, 88440, Note_on_c, 10, 79, 76
12, 88559, Note_on_c, 10, 79, 0
12, 88560, Note_on_c, 10, 78, 76
12, 88664, Note_on_c, 10, 78, 0
12, 88680, Note_on_c, 10, 79, 76
12, 88799, Note_on_c, 10, 79, 0
12, 88800, Note_on_c, 10, 83, 76
12, 88919, Note_on_c, 10, 83, 0
12, 88920, Note_on_c, 10, 81, 76
12, 89024, Note_on_c, 10, 81, 0
12, 89040, Note_on_c, 10, 83, 76
12, 89504, Note_on_c, 10, 83, 0
12, 89520, Note_on_c, 10, 81, 76
12, 89624, Note_on_c, 10, 81, 0
12, 89640, Note_on_c, 10, 79, 76
12, 89744, Note_on_c, 10, 79, 0
12, 89760, Note_on_c, 10, 78, 76
12, 89879, Note_on_c, 10, 78, 0
12, 89880, Note_on_c, 10, 79, 76
12, 89999, Note_on_c, 10, 79, 0
12, 90000, Note_on_c, 10, 76, 76
12, 90104, Note_on_c, 10, 76, 0
12, 90120, Note_on_c, 10, 78, 76
12, 90239, Note_on_c, 10, 78, 0
12, 90240, Note_on_c, 10, 81, 76
12, 90359, Note_on_c, 10, 81, 0
12, 90360, Note_on_c, 10, 79, 76
12, 90464, Note_on_c, 10, 79, 0
12, 90480, Note_on_c, 10, 81, 76
12, 90944, Note_on_c, 10, 81, 0
12, 90960, Note_on_c, 10, 79, 76
12, 91064, Note_on_c, 10, 79, 0
12, 91080, Note_on_c, 10, 78, 76
12, 91184, Note_on_c, 10, 78, 0
12, 91200, Note_on_c, 10, 76, 76
12, 91319, Note_on_c, 10, 76, 0
12, 91320, Note_on_c, 10, 78, 76
12, 91439, Note_on_c, 10, 78, 0
12, 91440, Note_on_c, 10, 75, 76
12, 91544, Note_on_c, 10, 75, 0
12, 91560, Note_on_c, 10, 76, 76
12, 91679, Note_on_c, 10, 76, 0
12, 91680, Note_on_c, 10, 79, 76
12, 91799, Note_on_c, 10, 79, 0
12, 91800, Note_on_c, 10, 78, 76
12, 91904, Note_on_c, 10, 78, 0
12, 91920, Note_on_c, 10, 79, 76
12, 92384, Note_on_c, 10, 79, 0
12, 92400, Note_on_c, 10, 78, 76
12, 92504, Note_on_c, 10, 78, 0
12, 92520, Note_on_c, 10, 76, 76
12, 92624, Note_on_c, 10, 76, 0
12, 92640, Note_on_c, 10, 74, 76
12, 92759, Note_on_c, 10, 74, 0
12, 92760, Note_on_c, 10, 76, 76
12, 92879, Note_on_c, 10, 76, 0
12, 92880, Note_on_c, 10, 73, 76
12, 92984, Note_on_c, 10, 73, 0
12, 93000, Note_on_c, 10, 74, 76
12, 93119, Note_on_c, 10, 74, 0
12, 93120, Note_on_c, 10, 78, 76
12, 93239, Note_on_c, 10, 78, 0
12, 93240, Note_on_c, 10, 76, 76
12, 93344, Note_on_c, 10, 76, 0
12, 93360, Note_on_c, 10, 78, 76
12, 93479, Note_on_c, 10, 78, 0
12, 93480, Note_on_c, 10, 79, 76
12, 93599, Note_on_c, 10, 79, 0
12, 93600, Note_on_c, 10, 81, 76
12, 93704, Note_on_c, 10, 81, 0
12, 93720, Note_on_c, 10, 71, 76
12, 93839, Note_on_c, 10, 71, 0
12, 93840, Note_on_c, 10, 73, 76
12, 93959, Note_on_c, 10, 73, 0
12, 93960, Note_on_c, 10, 74, 76
12, 94064, Note_on_c, 10, 74, 0
12, 94080, Note_on_c, 10, 76, 76
12, 94199, Note_on_c, 10, 76, 0
12, 94200, Note_on_c, 10, 78, 76
12, 94319, Note_on_c, 10, 78, 0
12, 94320, Note_on_c, 10, 74, 76
12, 94424, Note_on_c, 10, 74, 0
12, 94440, Note_on_c, 10, 73, 76
12, 94559, Note_on_c, 10, 73, 0
12, 94560, Note_on_c, 10, 74, 76
12, 94679, Note_on_c, 10, 74, 0
12, 94680, Note_on_c, 10, 76, 76
12, 94784, Note_on_c, 10, 76, 0
12, 94800, Note_on_c, 10, 78, 76
12, 94919, Note_on_c, 10, 78, 0
12, 94920, Note_on_c, 10, 79, 76
12, 95039, Note_on_c, 10, 79, 0
12, 95040, Note_on_c, 10, 76, 76
12, 95144, Note_on_c, 10, 76, 0
12, 95160, Note_on_c, 10, 74, 76
12, 95279, Note_on_c, 10, 74, 0
12, 95280, Note_on_c, 10, 76, 76
12, 95399, Note_on_c, 10, 76, 0
12, 95400, Note_on_c, 10, 78, 76
12, 95504, Note_on_c, 10, 78, 0
12, 95520, Note_on_c, 10, 79, 76
12, 95639, Note_on_c, 10, 79, 0
12, 95640, Note_on_c, 10, 81, 76
12, 95759, Note_on_c, 10, 81, 0
12, 95760, Note_on_c, 10, 78, 76
12, 95864, Note_on_c, 10, 78, 0
12, 95880, Note_on_c, 10, 76, 76
12, 95999, Note_on_c, 10, 76, 0
12, 96000, Note_on_c, 10, 78, 76
12, 96119, Note_on_c, 10, 78, 0
12, 96120, Note_on_c, 10, 79, 76
12, 96224, Note_on_c, 10, 79, 0
12, 96240, Note_on_c, 10, 81, 76
12, 96359, Note_on_c, 10, 81, 0
12, 96360, Note_on_c, 10, 83, 76
12, 96479, Note_on_c, 10, 83, 0
12, 96480, Note_on_c, 10, 79, 76
12, 96584, Note_on_c, 10, 79, 0
12, 96600, Note_on_c, 10, 78, 76
12, 97064, Note_on_c, 10, 78, 0
12, 97080, Note_on_c, 10, 76, 76
12, 97184, Note_on_c, 10, 76, 0
12, 97200, Note_on_c, 10, 74, 76
12, 97304, Note_on_c, 10, 74, 0
12, 97320, Note_on_c, 10, 76, 76
12, 97439, Note_on_c, 10, 76, 0
12, 97440, Note_on_c, 10, 73, 76
12, 97559, Note_on_c, 10, 73, 0
12, 97560, Note_on_c, 10, 74, 76
12, 97664, Note_on_c, 10, 74, 0
12, 97680, Note_on_c, 10, 69, 76
12, 97799, Note_on_c, 10, 69, 0
12, 97800, Note_on_c, 10, 74, 76
12, 97919, Note_on_c, 10, 74, 0
12, 97920, Note_on_c, 10, 73, 76
12, 98024, Note_on_c, 10, 73, 0
12, 98040, Note_on_c, 10, 62, 76
12, 98264, Note_on_c, 10, 62, 0
12, 98280, Note_on_c, 10, 74, 76
12, 98384, Note_on_c, 10, 74, 0
12, 98400, Note_on_c, 10, 81, 76
12, 98864, Note_on_c, 10, 81, 0
12, 98880, Note_on_c, 10, 83, 76
12, 98984, Note_on_c, 10, 83, 0
12, 99000, Note_on_c, 10, 81, 76
12, 99104, Note_on_c, 10, 81, 0
12, 99120, Note_on_c, 10, 80, 76
12, 99239, Note_on_c, 10, 80, 0
12, 99240, Note_on_c, 10, 76, 76
12, 99359, Note_on_c, 10, 76, 0
12, 99360, Note_on_c, 10, 78, 76
12, 99464, Note_on_c, 10, 78, 0
12, 99480, Note_on_c, 10, 79, 76
12, 99599, Note_on_c, 10, 79, 0
12, 99600, Note_on_c, 10, 81, 76
12, 99719, Note_on_c, 10, 81, 0
12, 99720, Note_on_c, 10, 79, 76
12, 99824, Note_on_c, 10, 79, 0
12, 99840, Note_on_c, 10, 78, 76
12, 99959, Note_on_c, 10, 78, 0
12, 99960, Note_on_c, 10, 74, 76
12, 100079, Note_on_c, 10, 74, 0
12, 100080, Note_on_c, 10, 76, 76
12, 100184, Note_on_c, 10, 76, 0
12, 100200, Note_on_c, 10, 77, 76
12, 100319, Note_on_c, 10, 77, 0
12, 100320, Note_on_c, 10, 79, 76
12, 100439, Note_on_c, 10, 79, 0
12, 100440, Note_on_c, 10, 77, 76
12, 100544, Note_on_c, 10, 77, 0
12, 100560, Note_on_c, 10, 76, 76
12, 100679, Note_on_c, 10, 76, 0
12, 100680, Note_on_c, 10, 73, 76
12, 100799, Note_on_c, 10, 73, 0
12, 100800, Note_on_c, 10, 74, 76
12, 100904, Note_on_c, 10, 74, 0
12, 100920, Note_on_c, 10, 73, 76
12, 101039, Note_on_c, 10, 73, 0
12, 101040, Note_on_c, 10, 74, 76
12, 101159, Note_on_c, 10, 74, 0
12, 101160, Note_on_c, 10, 76, 76
12, 101264, Note_on_c, 10, 76, 0
12, 101280, Note_on_c, 10, 69, 76
12, 101864, Note_on_c, 10, 69, 0
12, 101880, Note_on_c, 10, 81, 76
12, 101984, Note_on_c, 10, 81, 0
12, 102000, Note_on_c, 10, 83, 76
12, 102224, Note_on_c, 10, 83, 0
12, 102240, Note_on_c, 10, 85, 76
12, 102344, Note_on_c, 10, 85, 0
12, 102360, Note_on_c, 10, 86, 76
12, 102584, Note_on_c, 10, 86, 0
12, 102600, Note_on_c, 10, 81, 76
12, 102704, Note_on_c, 10, 81, 0
12, 102720, Note_on_c, 10, 78, 76
12, 102839, Note_on_c, 10, 78, 0
12, 102840, Note_on_c, 10, 76, 76
12, 102959, Note_on_c, 10, 76, 0
12, 102960, Note_on_c, 10, 74, 76
12, 103064, Note_on_c, 10, 74, 0
12, 103080, Note_on_c, 10, 74, 76
12, 103679, Note_on_c, 10, 74, 0
12, 103679, End_track
13, 0, Start_track
13, 0, Title_t, "Violin II"
13, 0, MIDI_port, 0
13, 0, Program_c, 11, 48
13, 0, Control_c, 11, 10, 24
13, 0, Control_c, 11, 11, 127
13, 0, Control_c, 11, 7, 96
13, 0, Note_on_c, 11, 66, 76
13, 104, Note_on_c, 11, 66, 0
13, 120, Note_on_c, 11, 66, 76
13, 464, Note_on_c, 11, 66, 0
13, 480, Note_on_c, 11, 67, 76
13, 824, Note_on_c, 11, 67, 0
13, 840, Note_on_c, 11, 66, 76
13, 1424, Note_on_c, 11, 66, 0
13, 1440, Note_on_c, 11, 67, 76
13, 1544, Note_on_c, 11, 67, 0
13, 1560, Note_on_c, 11, 69, 76
13, 1784, Note_on_c, 11, 69, 0
13, 1800, Note_on_c, 11, 67, 76
13, 1904, Note_on_c, 11, 67, 0
13, 1920, Note_on_c, 11, 66, 76
13, 2144, Note_on_c, 11, 66, 0
13, 2160, Note_on_c, 11, 64, 76
13, 2264, Note_on_c, 11, 64, 0
13, 2280, Note_on_c, 11, 62, 76
13, 2399, Note_on_c, 11, 62, 0
13, 2400, Note_on_c, 11, 61, 76
13, 2519, Note_on_c, 11, 61, 0
13, 2520, Note_on_c, 11, 62, 76
13, 2624, Note_on_c, 11, 62, 0
13, 2640, Note_on_c, 11, 57, 76
13, 2759, Note_on_c, 11, 57, 0
13, 2760, Note_on_c, 11, 62, 76
13, 2879, Note_on_c, 11, 62, 0
13, 2880, Note_on_c, 11, 64, 76
13, 2984, Note_on_c, 11, 64, 0
13, 3000, Note_on_c, 11, 66, 76
13, 3344, Note_on_c, 11, 66, 0
13, 3360, Note_on_c, 11, 71, 76
13, 3704, Note_on_c, 11, 71, 0
13, 3720, Note_on_c, 11, 71, 76
13, 4304, Note_on_c, 11, 71, 0
13, 4320, Note_on_c, 11, 71, 76
13, 4424, Note_on_c, 11, 71, 0
13, 4440, Note_on_c, 11, 69, 76
13, 4664, Note_on_c, 11, 69, 0
13, 4680, Note_on_c, 11, 69, 76
13, 4784, Note_on_c, 11, 69, 0
13, 4800, Note_on_c, 11, 69, 76
13, 5024, Note_on_c, 11, 69, 0
13, 5040, Note_on_c, 11, 68, 76
13, 5144, Note_on_c, 11, 68, 0
13, 5160, Note_on_c, 11, 69, 76
13, 5279, Note_on_c, 11, 69, 0
13, 5280, Note_on_c, 11, 68, 76
13, 5399, Note_on_c, 11, 68, 0
13, 5400, Note_on_c, 11, 69, 76
13, 5504, Note_on_c, 11, 69, 0
13, 5520, Note_on_c, 11, 64, 76
13, 5639, Note_on_c, 11, 64, 0
13, 5640, Note_on_c, 11, 69, 76
13, 5759, Note_on_c, 11, 69, 0
13, 5760, Note_on_c, 11, 71, 76
13, 5864, Note_on_c, 11, 71, 0
13, 5880, Note_on_c, 11, 73, 76
13, 6119, Note_on_c, 11, 73, 0
13, 6240, Note_on_c, 11, 73, 76
13, 6479, Note_on_c, 11, 73, 0
13, 6600, Note_on_c, 11, 71, 76
13, 6959, Note_on_c, 11, 71, 0
13, 7200, Note_on_c, 11, 71, 76
13, 7304, Note_on_c, 11, 71, 0
13, 7320, Note_on_c, 11, 71, 76
13, 7559, Note_on_c, 11, 71, 0
13, 7680, Note_on_c, 11, 71, 76
13, 7919, Note_on_c, 11, 71, 0
13, 8040, Note_on_c, 11, 69, 76
13, 8399, Note_on_c, 11, 69, 0
13, 8640, Note_on_c, 11, 73, 76
13, 8744, Note_on_c, 11, 73, 0
13, 8760, Note_on_c, 11, 74, 76
13, 8984, Note_on_c, 11, 74, 0
13, 9000, Note_on_c, 11, 78, 76
13, 9104, Note_on_c, 11, 78, 0
13, 9120, Note_on_c, 11, 76, 76
13, 9344, Note_on_c, 11, 76, 0
13, 9360, Note_on_c, 11, 69, 76
13, 9464, Note_on_c, 11, 69, 0
13, 9480, Note_on_c, 11, 71, 76
13, 9704, Note_on_c, 11, 71, 0
13, 9720, Note_on_c, 11, 74, 76
13, 9824, Note_on_c, 11, 74, 0
13, 9840, Note_on_c, 11, 74, 76
13, 10064, Note_on_c, 11, 74, 0
13, 10080, Note_on_c, 11, 74, 76
13, 10184, Note_on_c, 11, 74, 0
13, 10200, Note_on_c, 11, 74, 76
13, 10424, Note_on_c, 11, 74, 0
13, 10440, Note_on_c, 11, 71, 76
13, 10544, Note_on_c, 11, 71, 0
13, 10560, Note_on_c, 11, 69, 76
13, 10784, Note_on_c, 11, 69, 0
13, 10800, Note_on_c, 11, 74, 76
13, 10904, Note_on_c, 11, 74, 0
13, 10920, Note_on_c, 11, 76, 76
13, 11144, Note_on_c, 11, 76, 0
13, 11160, Note_on_c, 11, 64, 76
13, 11264, Note_on_c, 11, 64, 0
13, 11280, Note_on_c, 11, 68, 76
13, 11504, Note_on_c, 11, 68, 0
13, 11520, Note_on_c, 11, 68, 76
13, 11624, Note_on_c, 11, 68, 0
13, 11640, Note_on_c, 11, 69, 76
13, 11864, Note_on_c, 11, 69, 0
13, 11880, Note_on_c, 11, 69, 76
13, 11984, Note_on_c, 11, 69, 0
13, 12000, Note_on_c, 11, 69, 76
13, 12224, Note_on_c, 11, 69, 0
13, 12240, Note_on_c, 11, 68, 76
13, 12344, Note_on_c, 11, 68, 0
13, 12360, Note_on_c, 11, 66, 76
13, 13064, Note_on_c, 11, 66, 0
13, 13080, Note_on_c, 11, 64, 76
13, 13784, Note_on_c, 11, 64, 0
13, 13800, Note_on_c, 11, 62, 76
13, 14984, Note_on_c, 11, 62, 0
13, 15000, Note_on_c, 11, 64, 76
13, 15104, Note_on_c, 11, 64, 0
13, 15120, Note_on_c, 11, 68, 76
13, 15224, Note_on_c, 11, 68, 0
13, 15240, Note_on_c, 11, 71, 76
13, 15464, Note_on_c, 11, 71, 0
13, 15480, Note_on_c, 11, 68, 76
13, 15584, Note_on_c, 11, 68, 0
13, 15600, Note_on_c, 11, 69, 76
13, 15824, Note_on_c, 11, 69, 0
13, 15840, Note_on_c, 11, 71, 76
13, 15944, Note_on_c, 11, 71, 0
13, 15960, Note_on_c, 11, 69, 76
13, 16184, Note_on_c, 11, 69, 0
13, 16200, Note_on_c, 11, 64, 76
13, 16304, Note_on_c, 11, 64, 0
13, 16320, Note_on_c, 11, 64, 76
13, 16544, Note_on_c, 11, 64, 0
13, 16560, Note_on_c, 11, 64, 76
13, 16664, Note_on_c, 11, 64, 0
13, 16680, Note_on_c, 11, 64, 76
13, 17264, Note_on_c, 11, 64, 0
13, 17280, Note_on_c, 11, 66, 76
13, 17384, Note_on_c, 11, 66, 0
13, 17400, Note_on_c, 11, 66, 76
13, 17744, Note_on_c, 11, 66, 0
13, 17760, Note_on_c, 11, 67, 76
13, 18104, Note_on_c, 11, 67, 0
13, 18120, Note_on_c, 11, 66, 76
13, 18704, Note_on_c, 11, 66, 0
13, 18720, Note_on_c, 11, 67, 76
13, 18824, Note_on_c, 11, 67, 0
13, 18840, Note_on_c, 11, 69, 76
13, 19064, Note_on_c, 11, 69, 0
13, 19080, Note_on_c, 11, 67, 76
13, 19184, Note_on_c, 11, 67, 0
13, 19200, Note_on_c, 11, 66, 76
13, 19424, Note_on_c, 11, 66, 0
13, 19440, Note_on_c, 11, 64, 76
13, 19544, Note_on_c, 11, 64, 0
13, 19560, Note_on_c, 11, 62, 76
13, 19679, Note_on_c, 11, 62, 0
13, 19680, Note_on_c, 11, 61, 76
13, 19799, Note_on_c, 11, 61, 0
13, 19800, Note_on_c, 11, 62, 76
13, 19904, Note_on_c, 11, 62, 0
13, 19920, Note_on_c, 11, 57, 76
13, 20039, Note_on_c, 11, 57, 0
13, 20040, Note_on_c, 11, 62, 76
13, 20159, Note_on_c, 11, 62, 0
13, 20160, Note_on_c, 11, 64, 76
13, 20264, Note_on_c, 11, 64, 0
13, 20280, Note_on_c, 11, 66, 76
13, 20624, Note_on_c, 11, 66, 0
13, 20640, Note_on_c, 11, 71, 76
13, 20984, Note_on_c, 11, 71, 0
13, 21000, Note_on_c, 11, 71, 76
13, 21584, Note_on_c, 11, 71, 0
13, 21600, Note_on_c, 11, 71, 76
13, 21704, Note_on_c, 11, 71, 0
13, 21720, Note_on_c, 11, 69, 76
13, 21944, Note_on_c, 11, 69, 0
13, 21960, Note_on_c, 11, 69, 76
13, 22064, Note_on_c, 11, 69, 0
13, 22080, Note_on_c, 11, 69, 76
13, 22304, Note_on_c, 11, 69, 0
13, 22320, Note_on_c, 11, 68, 76
13, 22424, Note_on_c, 11, 68, 0
13, 22440, Note_on_c, 11, 69, 76
13, 22559, Note_on_c, 11, 69, 0
13, 22560, Note_on_c, 11, 68, 76
13, 22679, Note_on_c, 11, 68, 0
13, 22680, Note_on_c, 11, 69, 76
13, 22784, Note_on_c, 11, 69, 0
13, 22800, Note_on_c, 11, 64, 76
13, 22919, Note_on_c, 11, 64, 0
13, 22920, Note_on_c, 11, 69, 76
13, 23039, Note_on_c, 11, 69, 0
13, 23040, Note_on_c, 11, 71, 76
13, 23144, Note_on_c, 11, 71, 0
13, 23160, Note_on_c, 11, 73, 76
13, 23399, Note_on_c, 11, 73, 0
13, 23520, Note_on_c, 11, 73, 76
13, 23759, Note_on_c, 11, 73, 0
13, 23880, Note_on_c, 11, 71, 76
13, 24239, Note_on_c, 11, 71, 0
13, 24480, Note_on_c, 11, 71, 76
13, 24584, Note_on_c, 11, 71, 0
13, 24600, Note_on_c, 11, 71, 76
13, 24839, Note_on_c, 11, 71, 0
13, 24960, Note_on_c, 11, 71, 76
13, 25199, Note_on_c, 11, 71, 0
13, 25320, Note_on_c, 11, 69, 76
13, 25679, Note_on_c, 11, 69, 0
13, 25920, Note_on_c, 11, 73, 76
13, 26024, Note_on_c, 11, 73, 0
13, 26040, Note_on_c, 11, 74, 76
13, 26264, Note_on_c, 11, 74, 0
13, 26280, Note_on_c, 11, 78, 76
13, 26384, Note_on_c, 11, 78, 0
13, 26400, Note_on_c, 11, 76, 76
13, 26624, Note_on_c, 11, 76, 0
13, 26640, Note_on_c, 11, 69, 76
13, 26744, Note_on_c, 11, 69, 0
13, 26760, Note_on_c, 11, 71, 76
13, 26984, Note_on_c, 11, 71, 0
13, 27000, Note_on_c, 11, 74, 76
13, 27104, Note_on_c, 11, 74, 0
13, 27120, Note_on_c, 11, 74, 76
13, 27344, Note_on_c, 11, 74, 0
13, 27360, Note_on_c, 11, 74, 76
13, 27464, Note_on_c, 11, 74, 0
13, 27480, Note_on_c, 11, 74, 76
13, 27704, Note_on_c, 11, 74, 0
13, 27720, Note_on_c, 11, 71, 76
13, 27824, Note_on_c, 11, 71, 0
13, 27840, Note_on_c, 11, 69, 76
13, 28064, Note_on_c, 11, 69, 0
13, 28080, Note_on_c, 11, 74, 76
13, 28184, Note_on_c, 11, 74, 0
13, 28200, Note_on_c, 11, 76, 76
13, 28424, Note_on_c, 11, 76, 0
13, 28440, Note_on_c, 11, 64, 76
13, 28544, Note_on_c, 11, 64, 0
13, 28560, Note_on_c, 11, 68, 76
13, 28784, Note_on_c, 11, 68, 0
13, 28800, Note_on_c, 11, 68, 76
13, 28904, Note_on_c, 11, 68, 0
13, 28920, Note_on_c, 11, 69, 76
13, 29144, Note_on_c, 11, 69, 0
13, 29160, Note_on_c, 11, 69, 76
13, 29264, Note_on_c, 11, 69, 0
13, 29280, Note_on_c, 11, 69, 76
13, 29504, Note_on_c, 11, 69, 0
13, 29520, Note_on_c, 11, 68, 76
13, 29624, Note_on_c, 11, 68, 0
13, 29640, Note_on_c, 11, 66, 76
13, 30344, Note_on_c, 11, 66, 0
13, 30360, Note_on_c, 11, 64, 76
13, 31064, Note_on_c, 11, 64, 0
13, 31080, Note_on_c, 11, 62, 76
13, 32264, Note_on_c, 11, 62, 0
13, 32280, Note_on_c, 11, 64, 76
13, 32384, Note_on_c, 11, 64, 0
13, 32400, Note_on_c, 11, 68, 76
13, 32504, Note_on_c, 11, 68, 0
13, 32520, Note_on_c, 11, 71, 76
13, 32744, Note_on_c, 11, 71, 0
13, 32760, Note_on_c, 11, 68, 76
13, 32864, Note_on_c, 11, 68, 0
13, 32880, Note_on_c, 11, 69, 76
13, 33104, Note_on_c, 11, 69, 0
13, 33120, Note_on_c, 11, 71, 76
13, 33224, Note_on_c, 11, 71, 0
13, 33240, Note_on_c, 11, 69, 76
13, 33464, Note_on_c, 11, 69, 0
13, 33480, Note_on_c, 11, 64, 76
13, 33584, Note_on_c, 11, 64, 0
13, 33600, Note_on_c, 11, 64, 76
13, 33824, Note_on_c, 11, 64, 0
13, 33840, Note_on_c, 11, 64, 76
13, 33944, Note_on_c, 11, 64, 0
13, 33960, Note_on_c, 11, 64, 76
13, 34544, Note_on_c, 11, 64, 0
13, 34560, Note_on_c, 11, 73, 76
13, 34664, Note_on_c, 11, 73, 0
13, 34680, Note_on_c, 11, 73, 76
13, 35024, Note_on_c, 11, 73, 0
13, 35040, Note_on_c, 11, 74, 76
13, 35384, Note_on_c, 11, 74, 0
13, 35400, Note_on_c, 11, 73, 76
13, 35864, Note_on_c, 11, 73, 0
13, 35880, Note_on_c, 11, 74, 76
13, 35984, Note_on_c, 11, 74, 0
13, 36000, Note_on_c, 11, 76, 76
13, 36104, Note_on_c, 11, 76, 0
13, 36120, Note_on_c, 11, 74, 76
13, 36344, Note_on_c, 11, 74, 0
13, 36360, Note_on_c, 11, 66, 76
13, 36464, Note_on_c, 11, 66, 0
13, 36480, Note_on_c, 11, 64, 76
13, 36704, Note_on_c, 11, 64, 0
13, 36720, Note_on_c, 11, 64, 76
13, 36824, Note_on_c, 11, 64, 0
13, 36840, Note_on_c, 11, 66, 76
13, 37304, Note_on_c, 11, 66, 0
13, 37320, Note_on_c, 11, 78, 76
13, 37424, Note_on_c, 11, 78, 0
13, 37440, Note_on_c, 11, 76, 76
13, 37544, Note_on_c, 11, 76, 0
13, 37560, Note_on_c, 11, 74, 76
13, 37904, Note_on_c, 11, 74, 0
13, 37920, Note_on_c, 11, 76, 76
13, 38264, Note_on_c, 11, 76, 0
13, 38280, Note_on_c, 11, 74, 76
13, 38864, Note_on_c, 11, 74, 0
13, 38880, Note_on_c, 11, 66, 76
13, 38984, Note_on_c, 11, 66, 0
13, 39000, Note_on_c, 11, 64, 76
13, 39224, Note_on_c, 11, 64, 0
13, 39240, Note_on_c, 11, 64, 76
13, 39344, Note_on_c, 11, 64, 0
13, 39360, Note_on_c, 11, 66, 76
13, 39584, Note_on_c, 11, 66, 0
13, 39600, Note_on_c, 11, 66, 76
13, 39704, Note_on_c, 11, 66, 0
13, 39720, Note_on_c, 11, 66, 76
13, 40319, Note_on_c, 11, 66, 0
13, 40320, Note_on_c, 11, 66, 76
13, 40439, Note_on_c, 11, 66, 0
13, 40440, Note_on_c, 11, 71, 76
13, 40679, Note_on_c, 11, 71, 0
13, 40800, Note_on_c, 11, 68, 76
13, 41039, Note_on_c, 11, 68, 0
13, 41160, Note_on_c, 11, 68, 76
13, 41399, Note_on_c, 11, 68, 0
13, 41520, Note_on_c, 11, 71, 76
13, 41744, Note_on_c, 11, 71, 0
13, 41760, Note_on_c, 11, 71, 76
13, 41864, Note_on_c, 11, 71, 0
13, 41880, Note_on_c, 11, 71, 76
13, 42104, Note_on_c, 11, 71, 0
13, 42120, Note_on_c, 11, 69, 76
13, 42224, Note_on_c, 11, 69, 0
13, 42240, Note_on_c, 11, 69, 76
13, 42464, Note_on_c, 11, 69, 0
13, 42480, Note_on_c, 11, 68, 76
13, 42584, Note_on_c, 11, 68, 0
13, 42600, Note_on_c, 11, 69, 76
13, 42719, Note_on_c, 11, 69, 0
13, 42720, Note_on_c, 11, 68, 76
13, 42839, Note_on_c, 11, 68, 0
13, 42840, Note_on_c, 11, 69, 76
13, 42944, Note_on_c, 11, 69, 0
13, 42960, Note_on_c, 11, 64, 76
13, 43079, Note_on_c, 11, 64, 0
13, 43080, Note_on_c, 11, 69, 76
13, 43199, Note_on_c, 11, 69, 0
13, 43200, Note_on_c, 11, 73, 76
13, 43304, Note_on_c, 11, 73, 0
13, 43320, Note_on_c, 11, 76, 76
13, 43559, Note_on_c, 11, 76, 0
13, 43680, Note_on_c, 11, 73, 76
13, 43919, Note_on_c, 11, 73, 0
13, 44040, Note_on_c, 11, 73, 76
13, 44279, Note_on_c, 11, 73, 0
13, 44400, Note_on_c, 11, 76, 76
13, 44624, Note_on_c, 11, 76, 0
13, 44640, Note_on_c, 11, 76, 76
13, 44744, Note_on_c, 11, 76, 0
13, 44760, Note_on_c, 11, 76, 76
13, 44984, Note_on_c, 11, 76, 0
13, 45000, Note_on_c, 11, 74, 76
13, 45104, Note_on_c, 11, 74, 0
13, 45120, Note_on_c, 11, 74, 76
13, 45344, Note_on_c, 11, 74, 0
13, 45360, Note_on_c, 11, 73, 76
13, 45464, Note_on_c, 11, 73, 0
13, 45480, Note_on_c, 11, 74, 76
13, 45599, Note_on_c, 11, 74, 0
13, 45600, Note_on_c, 11, 73, 76
13, 45719, Note_on_c, 11, 73, 0
13, 45720, Note_on_c, 11, 74, 76
13, 45824, Note_on_c, 11, 74, 0
13, 45840, Note_on_c, 11, 69, 76
13, 45959, Note_on_c, 11, 69, 0
13, 45960, Note_on_c, 11, 74, 76
13, 46079, Note_on_c, 11, 74, 0
13, 46080, Note_on_c, 11, 73, 76
13, 46184, Note_on_c, 11, 73, 0
13, 46200, Note_on_c, 11, 74, 76
13, 46664, Note_on_c, 11, 74, 0
13, 46680, Note_on_c, 11, 73, 76
13, 46784, Note_on_c, 11, 73, 0
13, 46800, Note_on_c, 11, 74, 76
13, 46904, Note_on_c, 11, 74, 0
13, 46920, Note_on_c, 11, 65, 76
13, 47504, Note_on_c, 11, 65, 0
13, 47520, Note_on_c, 11, 73, 76
13, 47624, Note_on_c, 11, 73, 0
13, 47640, Note_on_c, 11, 73, 76
13, 48104, Note_on_c, 11, 73, 0
13, 48120, Note_on_c, 11, 71, 76
13, 48224, Note_on_c, 11, 71, 0
13, 48240, Note_on_c, 11, 69, 76
13, 48344, Note_on_c, 11, 69, 0
13, 48360, Note_on_c, 11, 71, 76
13, 48944, Note_on_c, 11, 71, 0
13, 48960, Note_on_c, 11, 69, 76
13, 49064, Note_on_c, 11, 69, 0
13, 49080, Note_on_c, 11, 74, 76
13, 49304, Note_on_c, 11, 74, 0
13, 49320, Note_on_c, 11, 73, 76
13, 49424, Note_on_c, 11, 73, 0
13, 49440, Note_on_c, 11, 71, 76
13, 49664, Note_on_c, 11, 71, 0
13, 49680, Note_on_c, 11, 71, 76
13, 49784, Note_on_c, 11, 71, 0
13, 49800, Note_on_c, 11, 69, 76
13, 50024, Note_on_c, 11, 69, 0
13, 50040, Note_on_c, 11, 73, 76
13, 50144, Note_on_c, 11, 73, 0
13, 50160, Note_on_c, 11, 71, 76
13, 50279, Note_on_c, 11, 71, 0
13, 50280, Note_on_c, 11, 69, 76
13, 50399, Note_on_c, 11, 69, 0
13, 50400, Note_on_c, 11, 68, 76
13, 50504, Note_on_c, 11, 68, 0
13, 50520, Note_on_c, 11, 66, 76
13, 50744, Note_on_c, 11, 66, 0
13, 50760, Note_on_c, 11, 66, 76
13, 50864, Note_on_c, 11, 66, 0
13, 50880, Note_on_c, 11, 66, 76
13, 51104, Note_on_c, 11, 66, 0
13, 51120, Note_on_c, 11, 65, 76
13, 51224, Note_on_c, 11, 65, 0
13, 51240, Note_on_c, 11, 61, 76
13, 51824, Note_on_c, 11, 61, 0
13, 51840, Note_on_c, 11, 62, 76
13, 51944, Note_on_c, 11, 62, 0
13, 51960, Note_on_c, 11, 66, 76
13, 52304, Note_on_c, 11, 66, 0
13, 52320, Note_on_c, 11, 67, 76
13, 52664, Note_on_c, 11, 67, 0
13, 52680, Note_on_c, 11, 66, 76
13, 53144, Note_on_c, 11, 66, 0
13, 53160, Note_on_c, 11, 67, 76
13, 53264, Note_on_c, 11, 67, 0
13, 53280, Note_on_c, 11, 69, 76
13, 53384, Note_on_c, 11, 69, 0
13, 53400, Note_on_c, 11, 67, 76
13, 53624, Note_on_c, 11, 67, 0
13, 53640, Note_on_c, 11, 71, 76
13, 53744, Note_on_c, 11, 71, 0
13, 53760, Note_on_c, 11, 69, 76
13, 53984, Note_on_c, 11, 69, 0
13, 54000, Note_on_c, 11, 69, 76
13, 54104, Note_on_c, 11, 69, 0
13, 54120, Note_on_c, 11, 71, 76
13, 54239, Note_on_c, 11, 71, 0
13, 54240, Note_on_c, 11, 74, 76
13, 54359, Note_on_c, 11, 74, 0
13, 54360, Note_on_c, 11, 72, 76
13, 54464, Note_on_c, 11, 72, 0
13, 54480, Note_on_c, 11, 74, 76
13, 54704, Note_on_c, 11, 74, 0
13, 54720, Note_on_c, 11, 71, 76
13, 54824, Note_on_c, 11, 71, 0
13, 54840, Note_on_c, 11, 76, 76
13, 55064, Note_on_c, 11, 76, 0
13, 55080, Note_on_c, 11, 74, 76
13, 55184, Note_on_c, 11, 74, 0
13, 55200, Note_on_c, 11, 73, 76
13, 55664, Note_on_c, 11, 73, 0
13, 55680, Note_on_c, 11, 78, 76
13, 55784, Note_on_c, 11, 78, 0
13, 55800, Note_on_c, 11, 76, 76
13, 55904, Note_on_c, 11, 76, 0
13, 55920, Note_on_c, 11, 75, 76
13, 56144, Note_on_c, 11, 75, 0
13, 56160, Note_on_c, 11, 76, 76
13, 56264, Note_on_c, 11, 76, 0
13, 56280, Note_on_c, 11, 75, 76
13, 56504, Note_on_c, 11, 75, 0
13, 56520, Note_on_c, 11, 78, 76
13, 56624, Note_on_c, 11, 78, 0
13, 56640, Note_on_c, 11, 71, 76
13, 57224, Note_on_c, 11, 71, 0
13, 57240, Note_on_c, 11, 71, 76
13, 57344, Note_on_c, 11, 71, 0
13, 57360, Note_on_c, 11, 71, 76
13, 57464, Note_on_c, 11, 71, 0
13, 57480, Note_on_c, 11, 76, 76
13, 57584, Note_on_c, 11, 76, 0
13, 57600, Note_on_c, 11, 74, 76
13, 57704, Note_on_c, 11, 74, 0
13, 57720, Note_on_c, 11, 73, 76
13, 57944, Note_on_c, 11, 73, 0
13, 57960, Note_on_c, 11, 76, 76
13, 58064, Note_on_c, 11, 76, 0
13, 58080, Note_on_c, 11, 69, 76
13, 58664, Note_on_c, 11, 69, 0
13, 58680, Note_on_c, 11, 69, 76
13, 58784, Note_on_c, 11, 69, 0
13, 58800, Note_on_c, 11, 69, 76
13, 59024, Note_on_c, 11, 69, 0
13, 59040, Note_on_c, 11, 69, 76
13, 59144, Note_on_c, 11, 69, 0
13, 59160, Note_on_c, 11, 67, 76
13, 59399, Note_on_c, 11, 67, 0
13, 59520, Note_on_c, 11, 71, 76
13, 59759, Note_on_c, 11, 71, 0
13, 59880, Note_on_c, 11, 69, 76
13, 60119, Note_on_c, 11, 69, 0
13, 60240, Note_on_c, 11, 73, 76
13, 60479, Note_on_c, 11, 73, 0
13, 60600, Note_on_c, 11, 71, 76
13, 60839, Note_on_c, 11, 71, 0
13, 60960, Note_on_c, 11, 74, 76
13, 61199, Note_on_c, 11, 74, 0
13, 61320, Note_on_c, 11, 76, 76
13, 61559, Note_on_c, 11, 76, 0
13, 61680, Note_on_c, 11, 76, 76
13, 61919, Note_on_c, 11, 76, 0
13, 62040, Note_on_c, 11, 74, 76
13, 62159, Note_on_c, 11, 74, 0
13, 62160, Note_on_c, 11, 73, 76
13, 62279, Note_on_c, 11, 73, 0
13, 62280, Note_on_c, 11, 74, 76
13, 62384, Note_on_c, 11, 74, 0
13, 62400, Note_on_c, 11, 71, 76
13, 62624, Note_on_c, 11, 71, 0
13, 62640, Note_on_c, 11, 71, 76
13, 62744, Note_on_c, 11, 71, 0
13, 62760, Note_on_c, 11, 73, 76
13, 62984, Note_on_c, 11, 73, 0
13, 63000, Note_on_c, 11, 69, 76
13, 63104, Note_on_c, 11, 69, 0
13, 63120, Note_on_c, 11, 71, 76
13, 63344, Note_on_c, 11, 71, 0
13, 63360, Note_on_c, 11, 69, 76
13, 63464, Note_on_c, 11, 69, 0
13, 63480, Note_on_c, 11, 66, 76
13, 63839, Note_on_c, 11, 66, 0
13, 64080, Note_on_c, 11, 72, 76
13, 64184, Note_on_c, 11, 72, 0
13, 64200, Note_on_c, 11, 71, 76
13, 64904, Note_on_c, 11, 71, 0
13, 64920, Note_on_c, 11, 69, 76
13, 65624, Note_on_c, 11, 69, 0
13, 65640, Note_on_c, 11, 67, 76
13, 66359, Note_on_c, 11, 67, 0
13, 66360, Note_on_c, 11, 67, 76
13, 66824, Note_on_c, 11, 67, 0
13, 66840, Note_on_c, 11, 69, 76
13, 66944, Note_on_c, 11, 69, 0
13, 66960, Note_on_c, 11, 73, 76
13, 67064, Note_on_c, 11, 73, 0
13, 67080, Note_on_c, 11, 76, 76
13, 67304, Note_on_c, 11, 76, 0
13, 67320, Note_on_c, 11, 73, 76
13, 67424, Note_on_c, 11, 73, 0
13, 67440, Note_on_c, 11, 74, 76
13, 67664, Note_on_c, 11, 74, 0
13, 67680, Note_on_c, 11, 76, 76
13, 67784, Note_on_c, 11, 76, 0
13, 67800, Note_on_c, 11, 74, 76
13, 68024, Note_on_c, 11, 74, 0
13, 68040, Note_on_c, 11, 78, 76
13, 68144, Note_on_c, 11, 78, 0
13, 68160, Note_on_c, 11, 74, 76
13, 68279, Note_on_c, 11, 74, 0
13, 68280, Note_on_c, 11, 73, 76
13, 68399, Note_on_c, 11, 73, 0
13, 68400, Note_on_c, 11, 74, 76
13, 68504, Note_on_c, 11, 74, 0
13, 68520, Note_on_c, 11, 69, 76
13, 69104, Note_on_c, 11, 69, 0
13, 69120, Note_on_c, 11, 73, 76
13, 69224, Note_on_c, 11, 73, 0
13, 69240, Note_on_c, 11, 73, 76
13, 69584, Note_on_c, 11, 73, 0
13, 69600, Note_on_c, 11, 74, 76
13, 69944, Note_on_c, 11, 74, 0
13, 69960, Note_on_c, 11, 73, 76
13, 70424, Note_on_c, 11, 73, 0
13, 70440, Note_on_c, 11, 74, 76
13, 70544, Note_on_c, 11, 74, 0
13, 70560, Note_on_c, 11, 76, 76
13, 70664, Note_on_c, 11, 76, 0
13, 70680, Note_on_c, 11, 74, 76
13, 70904, Note_on_c, 11, 74, 0
13, 70920, Note_on_c, 11, 66, 76
13, 71024, Note_on_c, 11, 66, 0
13, 71040, Note_on_c, 11, 64, 76
13, 71264, Note_on_c, 11, 64, 0
13, 71280, Note_on_c, 11, 64, 76
13, 71384, Note_on_c, 11, 64, 0
13, 71400, Note_on_c, 11, 66, 76
13, 71864, Note_on_c, 11, 66, 0
13, 71880, Note_on_c, 11, 78, 76
13, 71984, Note_on_c, 11, 78, 0
13, 72000, Note_on_c, 11, 76, 76
13, 72104, Note_on_c, 11, 76, 0
13, 72120, Note_on_c, 11, 74, 76
13, 72464, Note_on_c, 11, 74, 0
13, 72480, Note_on_c, 11, 76, 76
13, 72824, Note_on_c, 11, 76, 0
13, 72840, Note_on_c, 11, 74, 76
13, 73424, Note_on_c, 11, 74, 0
13, 73440, Note_on_c, 11, 66, 76
13, 73544, Note_on_c, 11, 66, 0
13, 73560, Note_on_c, 11, 64, 76
13, 73784, Note_on_c, 11, 64, 0
13, 73800, Note_on_c, 11, 64, 76
13, 73904, Note_on_c, 11, 64, 0
13, 73920, Note_on_c, 11, 66, 76
13, 74144, Note_on_c, 11, 66, 0
13, 74160, Note_on_c, 11, 66, 76
13, 74264, Note_on_c, 11, 66, 0
13, 74280, Note_on_c, 11, 66, 76
13, 74879, Note_on_c, 11, 66, 0
13, 74880, Note_on_c, 11, 66, 76
13, 74999, Note_on_c, 11, 66, 0
13, 75000, Note_on_c, 11, 71, 76
13, 75239, Note_on_c, 11, 71, 0
13, 75360, Note_on_c, 11, 68, 76
13, 75599, Note_on_c, 11, 68, 0
13, 75720, Note_on_c, 11, 68, 76
13, 75959, Note_on_c, 11, 68, 0
13, 76080, Note_on_c, 11, 71, 76
13, 76304, Note_on_c, 11, 71, 0
13, 76320, Note_on_c, 11, 71, 76
13, 76424, Note_on_c, 11, 71, 0
13, 76440, Note_on_c, 11, 71, 76
13, 76664, Note_on_c, 11, 71, 0
13, 76680, Note_on_c, 11, 69, 76
13, 76784, Note_on_c, 11, 69, 0
13, 76800, Note_on_c, 11, 69, 76
13, 77024, Note_on_c, 11, 69, 0
13, 77040, Note_on_c, 11, 68, 76
13, 77144, Note_on_c, 11, 68, 0
13, 77160, Note_on_c, 11, 69, 76
13, 77279, Note_on_c, 11, 69, 0
13, 77280, Note_on_c, 11, 68, 76
13, 77399, Note_on_c, 11, 68, 0
13, 77400, Note_on_c, 11, 69, 76
13, 77504, Note_on_c, 11, 69, 0
13, 77520, Note_on_c, 11, 64, 76
13, 77639, Note_on_c, 11, 64, 0
13, 77640, Note_on_c, 11, 69, 76
13, 77759, Note_on_c, 11, 69, 0
13, 77760, Note_on_c, 11, 73, 76
13, 77864, Note_on_c, 11, 73, 0
13, 77880, Note_on_c, 11, 76, 76
13, 78119, Note_on_c, 11, 76, 0
13, 78240, Note_on_c, 11, 73, 76
13, 78479, Note_on_c, 11, 73, 0
13, 78600, Note_on_c, 11, 73, 76
13, 78839, Note_on_c, 11, 73, 0
13, 78960, Note_on_c, 11, 76, 76
13, 79184, Note_on_c, 11, 76, 0
13, 79200, Note_on_c, 11, 76, 76
13, 79304, Note_on_c, 11, 76, 0
13, 79320, Note_on_c, 11, 76, 76
13, 79544, Note_on_c, 11, 76, 0
13, 79560, Note_on_c, 11, 74, 76
13, 79664, Note_on_c, 11, 74, 0
13, 79680, Note_on_c, 11, 74, 76
13, 79904, Note_on_c, 11, 74, 0
13, 79920, Note_on_c, 11, 73, 76
13, 80024, Note_on_c, 11, 73, 0
13, 80040, Note_on_c, 11, 74, 76
13, 80159, Note_on_c, 11, 74, 0
13, 80160, Note_on_c, 11, 73, 76
13, 80279, Note_on_c, 11, 73, 0
13, 80280, Note_on_c, 11, 74, 76
13, 80384, Note_on_c, 11, 74, 0
13, 80400, Note_on_c, 11, 69, 76
13, 80519, Note_on_c, 11, 69, 0
13, 80520, Note_on_c, 11, 74, 76
13, 80639, Note_on_c, 11, 74, 0
13, 80640, Note_on_c, 11, 73, 76
13, 80744, Note_on_c, 11, 73, 0
13, 80760, Note_on_c, 11, 74, 76
13, 81224, Note_on_c, 11, 74, 0
13, 81240, Note_on_c, 11, 73, 76
13, 81344, Note_on_c, 11, 73, 0
13, 81360, Note_on_c, 11, 74, 76
13, 81464, Note_on_c, 11, 74, 0
13, 81480, Note_on_c, 11, 65, 76
13, 82064, Note_on_c, 11, 65, 0
13, 82080, Note_on_c, 11, 73, 76
13, 82184, Note_on_c, 11, 73, 0
13, 82200, Note_on_c, 11, 73, 76
13, 82664, Note_on_c, 11, 73, 0
13, 82680, Note_on_c, 11, 71, 76
13, 82784, Note_on_c, 11, 71, 0
13, 82800, Note_on_c, 11, 69, 76
13, 82904, Note_on_c, 11, 69, 0
13, 82920, Note_on_c, 11, 71, 76
13, 83504, Note_on_c, 11, 71, 0
13, 83520, Note_on_c, 11, 69, 76
13, 83624, Note_on_c, 11, 69, 0
13, 83640, Note_on_c, 11, 74, 76
13, 83864, Note_on_c, 11, 74, 0
13, 83880, Note_on_c, 11, 73, 76
13, 83984, Note_on_c, 11, 73, 0
13, 84000, Note_on_c, 11, 71, 76
13, 84224, Note_on_c, 11, 71, 0
13, 84240, Note_on_c, 11, 71, 76
13, 84344, Note_on_c, 11, 71, 0
13, 84360, Note_on_c, 11, 69, 76
13, 84584, Note_on_c, 11, 69, 0
13, 84600, Note_on_c, 11, 73, 76
13, 84704, Note_on_c, 11, 73, 0
13, 84720, Note_on_c, 11, 71, 76
13, 84839, Note_on_c, 11, 71, 0
13, 84840, Note_on_c, 11, 69, 76
13, 84959, Note_on_c, 11, 69, 0
13, 84960, Note_on_c, 11, 68, 76
13, 85064, Note_on_c, 11, 68, 0
13, 85080, Note_on_c, 11, 66, 76
13, 85304, Note_on_c, 11, 66, 0
13, 85320, Note_on_c, 11, 66, 76
13, 85424, Note_on_c, 11, 66, 0
13, 85440, Note_on_c, 11, 66, 76
13, 85664, Note_on_c, 11, 66, 0
13, 85680, Note_on_c, 11, 65, 76
13, 85784, Note_on_c, 11, 65, 0
13, 85800, Note_on_c, 11, 61, 76
13, 86384, Note_on_c, 11, 61, 0
13, 86400, Note_on_c, 11, 62, 76
13, 86504, Note_on_c, 11, 62, 0
13, 86520, Note_on_c, 11, 66, 76
13, 86864, Note_on_c, 11, 66, 0
13, 86880, Note_on_c, 11, 67, 76
13, 87224, Note_on_c, 11, 67, 0
13, 87240, Note_on_c, 11, 66, 76
13, 87704, Note_on_c, 11, 66, 0
13, 87720, Note_on_c, 11, 67, 76
13, 87824, Note_on_c, 11, 67, 0
13, 87840, Note_on_c, 11, 69, 76
13, 87944, Note_on_c, 11, 69, 0
13, 87960, Note_on_c, 11, 67, 76
13, 88184, Note_on_c, 11, 67, 0
13, 88200, Note_on_c, 11, 71, 76
13, 88304, Note_on_c, 11, 71, 0
13, 88320, Note_on_c, 11, 69, 76
13, 88544, Note_on_c, 11, 69, 0
13, 88560, Note_on_c, 11, 69, 76
13, 88664, Note_on_c, 11, 69, 0
13, 88680, Note_on_c, 11, 71, 76
13, 88799, Note_on_c, 11, 71, 0
13, 88800, Note_on_c, 11, 74, 76
13, 88919, Note_on_c, 11, 74, 0
13, 88920, Note_on_c, 11, 72, 76
13, 89024, Note_on_c, 11, 72, 0
13, 89040, Note_on_c, 11, 74, 76
13, 89264, Note_on_c, 11, 74, 0
13, 89280, Note_on_c, 11, 71, 76
13, 89384, Note_on_c, 11, 71, 0
13, 89400, Note_on_c, 11, 76, 76
13, 89624, Note_on_c, 11, 76, 0
13, 89640, Note_on_c, 11, 74, 76
13, 89744, Note_on_c, 11, 74, 0
13, 89760, Note_on_c, 11, 73, 76
13, 90224, Note_on_c, 11, 73, 0
13, 90240, Note_on_c, 11, 78, 76
13, 90344, Note_on_c, 11, 78, 0
13, 90360, Note_on_c, 11, 76, 76
13, 90464, Note_on_c, 11, 76, 0
13, 90480, Note_on_c, 11, 75, 76
13, 90704, Note_on_c, 11, 75, 0
13, 90720, Note_on_c, 11, 76, 76
13, 90824, Note_on_c, 11, 76, 0
13, 90840, Note_on_c, 11, 75, 76
13, 91064, Note_on_c, 11, 75, 0
13, 91080, Note_on_c, 11, 78, 76
13, 91184, Note_on_c, 11, 78, 0
13, 91200, Note_on_c, 11, 71, 76
13, 91784, Note_on_c, 11, 71, 0
13, 91800, Note_on_c, 11, 71, 76
13, 91904, Note_on_c, 11, 71, 0
13, 91920, Note_on_c, 11, 71, 76
13, 92024, Note_on_c, 11, 71, 0
13, 92040, Note_on_c, 11, 76, 76
13, 92144, Note_on_c, 11, 76, 0
13, 92160, Note_on_c, 11, 74, 76
13, 92264, Note_on_c, 11, 74, 0
13, 92280, Note_on_c, 11, 73, 76
13, 92504, Note_on_c, 11, 73, 0
13, 92520, Note_on_c, 11, 76, 76
13, 92624, Note_on_c, 11, 76, 0
13, 92640, Note_on_c, 11, 69, 76
13, 93224, Note_on_c, 11, 69, 0
13, 93240, Note_on_c, 11, 69, 76
13, 93344, Note_on_c, 11, 69, 0
13, 93360, Note_on_c, 11, 69, 76
13, 93584, Note_on_c, 11, 69, 0
13, 93600, Note_on_c, 11, 69, 76
13, 93704, Note_on_c, 11, 69, 0
13, 93720, Note_on_c, 11, 67, 76
13, 93959, Note_on_c, 11, 67, 0
13, 94080, Note_on_c, 11, 71, 76
13, 94319, Note_on_c, 11, 71, 0
13, 94440, Note_on_c, 11, 69, 76
13, 94679, Note_on_c, 11, 69, 0
13, 94800, Note_on_c, 11, 73, 76
13, 95039, Note_on_c, 11, 73, 0
13, 95160, Note_on_c, 11, 71, 76
13, 95399, Note_on_c, 11, 71, 0
13, 95520, Note_on_c, 11, 74, 76
13, 95759, Note_on_c, 11, 74, 0
13, 95880, Note_on_c, 11, 76, 76
13, 96119, Note_on_c, 11, 76, 0
13, 96240, Note_on_c, 11, 76, 76
13, 96479, Note_on_c, 11, 76, 0
13, 96600, Note_on_c, 11, 74, 76
13, 96719, Note_on_c, 11, 74, 0
13, 96720, Note_on_c, 11, 73, 76
13, 96839, Note_on_c, 11, 73, 0
13, 96840, Note_on_c, 11, 74, 76
13, 96944, Note_on_c, 11, 74, 0
13, 96960, Note_on_c, 11, 71, 76
13, 97184, Note_on_c, 11, 71, 0
13, 97200, Note_on_c, 11, 71, 76
13, 97304, Note_on_c, 11, 71, 0
13, 97320, Note_on_c, 11, 73, 76
13, 97544, Note_on_c, 11, 73, 0
13, 97560, Note_on_c, 11, 69, 76
13, 97664, Note_on_c, 11, 69, 0
13, 97680, Note_on_c, 11, 71, 76
13, 97904, Note_on_c, 11, 71, 0
13, 97920, Note_on_c, 11, 69, 76
13, 98024, Note_on_c, 11, 69, 0
13, 98040, Note_on_c, 11, 66, 76
13, 98399, Note_on_c, 11, 66, 0
13, 98640, Note_on_c, 11, 72, 76
13, 98744, Note_on_c, 11, 72, 0
13, 98760, Note_on_c, 11, 71, 76
13, 99464, Note_on_c, 11, 71, 0
13, 99480, Note_on_c, 11, 69, 76
13, 100184, Note_on_c, 11, 69, 0
13, 100200, Note_on_c, 11, 67, 76
13, 100919, Note_on_c, 11, 67, 0
13, 100920, Note_on_c, 11, 67, 76
13, 101384, Note_on_c, 11, 67, 0
13, 101400, Note_on_c, 11, 69, 76
13, 101504, Note_on_c, 11, 69, 0
13, 101520, Note_on_c, 11, 73, 76
13, 101624, Note_on_c, 11, 73, 0
13, 101640, Note_on_c, 11, 76, 76
13, 101864, Note_on_c, 11, 76, 0
13, 101880, Note_on_c, 11, 73, 76
13, 101984, Note_on_c, 11, 73, 0
13, 102000, Note_on_c, 11, 74, 76
13, 102224, Note_on_c, 11, 74, 0
13, 102240, Note_on_c, 11, 76, 76
13, 102344, Note_on_c, 11, 76, 0
13, 102360, Note_on_c, 11, 74, 76
13, 102584, Note_on_c, 11, 74, 0
13, 102600, Note_on_c, 11, 78, 76
13, 102704, Note_on_c, 11, 78, 0
13, 102720, Note_on_c, 11, 74, 76
13, 102839, Note_on_c, 11, 74, 0
13, 102840, Note_on_c, 11, 73, 76
13, 102959, Note_on_c, 11, 73, 0
13, 102960, Note_on_c, 11, 74, 76
13, 103064, Note_on_c, 11, 74, 0
13, 103080, Note_on_c, 11, 69, 76
13, 103664, Note_on_c, 11, 69, 0
13, 103664, End_track
14, 0, Start_track
14, 0, Title_t, "Viola"
14, 0, MIDI_port, 0
14, 0, Program_c, 12, 48
14, 0, Control_c, 12, 10, 70
14, 0, Control_c, 12, 11, 127
14, 0, Control_c, 12, 7, 96
14, 0, Note_on_c, 12, 62, 76
14, 104, Note_on_c, 12, 62, 0
14, 120, Note_on_c, 12, 62, 76
14, 464, Note_on_c, 12, 62, 0
14, 480, Note_on_c, 12, 62, 76
14, 824, Note_on_c, 12, 62, 0
14, 840, Note_on_c, 12, 62, 76
14, 1424, Note_on_c, 12, 62, 0
14, 1440, Note_on_c, 12, 55, 76
14, 1544, Note_on_c, 12, 55, 0
14, 1560, Note_on_c, 12, 62, 76
14, 1784, Note_on_c, 12, 62, 0
14, 1800, Note_on_c, 12, 62, 76
14, 1904, Note_on_c, 12, 62, 0
14, 1920, Note_on_c, 12, 62, 76
14, 2144, Note_on_c, 12, 62, 0
14, 2160, Note_on_c, 12, 61, 76
14, 2264, Note_on_c, 12, 61, 0
14, 2280, Note_on_c, 12, 57, 76
14, 2399, Note_on_c, 12, 57, 0
14, 2400, Note_on_c, 12, 55, 76
14, 2519, Note_on_c, 12, 55, 0
14, 2520, Note_on_c, 12, 57, 76
14, 2624, Note_on_c, 12, 57, 0
14, 2640, Note_on_c, 12, 54, 76
14, 2759, Note_on_c, 12, 54, 0
14, 2760, Note_on_c, 12, 57, 76
14, 2879, Note_on_c, 12, 57, 0
14, 2880, Note_on_c, 12, 61, 76
14, 2984, Note_on_c, 12, 61, 0
14, 3000, Note_on_c, 12, 62, 76
14, 3344, Note_on_c, 12, 62, 0
14, 3360, Note_on_c, 12, 62, 76
14, 3704, Note_on_c, 12, 62, 0
14, 3720, Note_on_c, 12, 64, 76
14, 4304, Note_on_c, 12, 64, 0
14, 4320, Note_on_c, 12, 64, 76
14, 4424, Note_on_c, 12, 64, 0
14, 4440, Note_on_c, 12, 64, 76
14, 4664, Note_on_c, 12, 64, 0
14, 4680, Note_on_c, 12, 61, 76
14, 4784, Note_on_c, 12, 61, 0
14, 4800, Note_on_c, 12, 66, 76
14, 5024, Note_on_c, 12, 66, 0
14, 5040, Note_on_c, 12, 64, 76
14, 5144, Note_on_c, 12, 64, 0
14, 5160, Note_on_c, 12, 64, 76
14, 5279, Note_on_c, 12, 64, 0
14, 5280, Note_on_c, 12, 62, 76
14, 5399, Note_on_c, 12, 62, 0
14, 5400, Note_on_c, 12, 64, 76
14, 5504, Note_on_c, 12, 64, 0
14, 5520, Note_on_c, 12, 61, 76
14, 5639, Note_on_c, 12, 61, 0
14, 5640, Note_on_c, 12, 64, 76
14, 5759, Note_on_c, 12, 64, 0
14, 5760, Note_on_c, 12, 67, 76
14, 5864, Note_on_c, 12, 67, 0
14, 5880, Note_on_c, 12, 61, 76
14, 6119, Note_on_c, 12, 61, 0
14, 6240, Note_on_c, 12, 66, 76
14, 6479, Note_on_c, 12, 66, 0
14, 6600, Note_on_c, 12, 66, 76
14, 6959, Note_on_c, 12, 66, 0
14, 7200, Note_on_c, 12, 63, 76
14, 7304, Note_on_c, 12, 63, 0
14, 7320, Note_on_c, 12, 64, 76
14, 7559, Note_on_c, 12, 64, 0
14, 7680, Note_on_c, 12, 64, 76
14, 7919, Note_on_c, 12, 64, 0
14, 8040, Note_on_c, 12, 64, 76
14, 8399, Note_on_c, 12, 64, 0
14, 8640, Note_on_c, 12, 69, 76
14, 8744, Note_on_c, 12, 69, 0
14, 8760, Note_on_c, 12, 69, 76
14, 8984, Note_on_c, 12, 69, 0
14, 9000, Note_on_c, 12, 62, 76
14, 9104, Note_on_c, 12, 62, 0
14, 9120, Note_on_c, 12, 64, 76
14, 9344, Note_on_c, 12, 64, 0
14, 9360, Note_on_c, 12, 64, 76
14, 9464, Note_on_c, 12, 64, 0
14, 9480, Note_on_c, 12, 66, 76
14, 9704, Note_on_c, 12, 66, 0
14, 9720, Note_on_c, 12, 59, 76
14, 9824, Note_on_c, 12, 59, 0
14, 9840, Note_on_c, 12, 59, 76
14, 10064, Note_on_c, 12, 59, 0
14, 10080, Note_on_c, 12, 59, 76
14, 10184, Note_on_c, 12, 59, 0
14, 10200, Note_on_c, 12, 64, 76
14, 10424, Note_on_c, 12, 64, 0
14, 10440, Note_on_c, 12, 64, 76
14, 10544, Note_on_c, 12, 64, 0
14, 10560, Note_on_c, 12, 66, 76
14, 10784, Note_on_c, 12, 66, 0
14, 10800, Note_on_c, 12, 66, 76
14, 10904, Note_on_c, 12, 66, 0
14, 10920, Note_on_c, 12, 59, 76
14, 11144, Note_on_c, 12, 59, 0
14, 11160, Note_on_c, 12, 68, 76
14, 11264, Note_on_c, 12, 68, 0
14, 11280, Note_on_c, 12, 71, 76
14, 11504, Note_on_c, 12, 71, 0
14, 11520, Note_on_c, 12, 62, 76
14, 11624, Note_on_c, 12, 62, 0
14, 11640, Note_on_c, 12, 61, 76
14, 11864, Note_on_c, 12, 61, 0
14, 11880, Note_on_c, 12, 64, 76
14, 11984, Note_on_c, 12, 64, 0
14, 12000, Note_on_c, 12, 64, 76
14, 12224, Note_on_c, 12, 64, 0
14, 12240, Note_on_c, 12, 62, 76
14, 12344, Note_on_c, 12, 62, 0
14, 12360, Note_on_c, 12, 61, 76
14, 12704, Note_on_c, 12, 61, 0
14, 12720, Note_on_c, 12, 59, 76
14, 13424, Note_on_c, 12, 59, 0
14, 13440, Note_on_c, 12, 57, 76
14, 14144, Note_on_c, 12, 57, 0
14, 14160, Note_on_c, 12, 56, 76
14, 14279, Note_on_c, 12, 56, 0
14, 14280, Note_on_c, 12, 59, 76
14, 14399, Note_on_c, 12, 59, 0
14, 14400, Note_on_c, 12, 57, 76
14, 14504, Note_on_c, 12, 57, 0
14, 14520, Note_on_c, 12, 59, 76
14, 14639, Note_on_c, 12, 59, 0
14, 14640, Note_on_c, 12, 61, 76
14, 14759, Note_on_c, 12, 61, 0
14, 14760, Note_on_c, 12, 62, 76
14, 14864, Note_on_c, 12, 62, 0
14, 14880, Note_on_c, 12, 56, 76
14, 14999, Note_on_c, 12, 56, 0
14, 15000, Note_on_c, 12, 59, 76
14, 15119, Note_on_c, 12, 59, 0
14, 15120, Note_on_c, 12, 62, 76
14, 15224, Note_on_c, 12, 62, 0
14, 15240, Note_on_c, 12, 68, 76
14, 15464, Note_on_c, 12, 68, 0
14, 15480, Note_on_c, 12, 64, 76
14, 15584, Note_on_c, 12, 64, 0
14, 15600, Note_on_c, 12, 57, 76
14, 15824, Note_on_c, 12, 57, 0
14, 15840, Note_on_c, 12, 64, 76
14, 15944, Note_on_c, 12, 64, 0
14, 15960, Note_on_c, 12, 64, 76
14, 16184, Note_on_c, 12, 64, 0
14, 16200, Note_on_c, 12, 61, 76
14, 16304, Note_on_c, 12, 61, 0
14, 16320, Note_on_c, 12, 59, 76
14, 16544, Note_on_c, 12, 59, 0
14, 16560, Note_on_c, 12, 59, 76
14, 16664, Note_on_c, 12, 59, 0
14, 16680, Note_on_c, 12, 61, 76
14, 17264, Note_on_c, 12, 61, 0
14, 17280, Note_on_c, 12, 62, 76
14, 17384, Note_on_c, 12, 62, 0
14, 17400, Note_on_c, 12, 62, 76
14, 17744, Note_on_c, 12, 62, 0
14, 17760, Note_on_c, 12, 62, 76
14, 18104, Note_on_c, 12, 62, 0
14, 18120, Note_on_c, 12, 62, 76
14, 18704, Note_on_c, 12, 62, 0
14, 18720, Note_on_c, 12, 55, 76
14, 18824, Note_on_c, 12, 55, 0
14, 18840, Note_on_c, 12, 62, 76
14, 19064, Note_on_c, 12, 62, 0
14, 19080, Note_on_c, 12, 62, 76
14, 19184, Note_on_c, 12, 62, 0
14, 19200, Note_on_c, 12, 62, 76
14, 19424, Note_on_c, 12, 62, 0
14, 19440, Note_on_c, 12, 61, 76
14, 19544, Note_on_c, 12, 61, 0
14, 19560, Note_on_c, 12, 57, 76
14, 19679, Note_on_c, 12, 57, 0
14, 19680, Note_on_c, 12, 55, 76
14, 19799, Note_on_c, 12, 55, 0
14, 19800, Note_on_c, 12, 57, 76
14, 19904, Note_on_c, 12, 57, 0
14, 19920, Note_on_c, 12, 54, 76
14, 20039, Note_on_c, 12, 54, 0
14, 20040, Note_on_c, 12, 57, 76
14, 20159, Note_on_c, 12, 57, 0
14, 20160, Note_on_c, 12, 61, 76
14, 20264, Note_on_c, 12, 61, 0
14, 20280, Note_on_c, 12, 62, 76
14, 20624, Note_on_c, 12, 62, 0
14, 20640, Note_on_c, 12, 62, 76
14, 20984, Note_on_c, 12, 62, 0
14, 21000, Note_on_c, 12, 64, 76
14, 21584, Note_on_c, 12, 64, 0
14, 21600, Note_on_c, 12, 64, 76
14, 21704, Note_on_c, 12, 64, 0
14, 21720, Note_on_c, 12, 64, 76
14, 21944, Note_on_c, 12, 64, 0
14, 21960, Note_on_c, 12, 61, 76
14, 22064, Note_on_c, 12, 61, 0
14, 22080, Note_on_c, 12, 66, 76
14, 22304, Note_on_c, 12, 66, 0
14, 22320, Note_on_c, 12, 64, 76
14, 22424, Note_on_c, 12, 64, 0
14, 22440, Note_on_c, 12, 64, 76
14, 22559, Note_on_c, 12, 64, 0
14, 22560, Note_on_c, 12, 62, 76
14, 22679, Note_on_c, 12, 62, 0
14, 22680, Note_on_c, 12, 64, 76
14, 22784, Note_on_c, 12, 64, 0
14, 22800, Note_on_c, 12, 61, 76
14, 22919, Note_on_c, 12, 61, 0
14, 22920, Note_on_c, 12, 64, 76
14, 23039, Note_on_c, 12, 64, 0
14, 23040, Note_on_c, 12, 67, 76
14, 23144, Note_on_c, 12, 67, 0
14, 23160, Note_on_c, 12, 61, 76
14, 23399, Note_on_c, 12, 61, 0
14, 23520, Note_on_c, 12, 66, 76
14, 23759, Note_on_c, 12, 66, 0
14, 23880, Note_on_c, 12, 66, 76
14, 24239, Note_on_c, 12, 66, 0
14, 24480, Note_on_c, 12, 63, 76
14, 24584, Note_on_c, 12, 63, 0
14, 24600, Note_on_c, 12, 64, 76
14, 24839, Note_on_c, 12, 64, 0
14, 24960, Note_on_c, 12, 64, 76
14, 25199, Note_on_c, 12, 64, 0
14, 25320, Note_on_c, 12, 64, 76
14, 25679, Note_on_c, 12, 64, 0
14, 25920, Note_on_c, 12, 69, 76
14, 26024, Note_on_c, 12, 69, 0
14, 26040, Note_on_c, 12, 69, 76
14, 26264, Note_on_c, 12, 69, 0
14, 26280, Note_on_c, 12, 62, 76
14, 26384, Note_on_c, 12, 62, 0
14, 26400, Note_on_c, 12, 64, 76
14, 26624, Note_on_c, 12, 64, 0
14, 26640, Note_on_c, 12, 64, 76
14, 26744, Note_on_c, 12, 64, 0
14, 26760, Note_on_c, 12, 66, 76
14, 26984, Note_on_c, 12, 66, 0
14, 27000, Note_on_c, 12, 59, 76
14, 27104, Note_on_c, 12, 59, 0
14, 27120, Note_on_c, 12, 59, 76
14, 27344, Note_on_c, 12, 59, 0
14, 27360, Note_on_c, 12, 59, 76
14, 27464, Note_on_c, 12, 59, 0
14, 27480, Note_on_c, 12, 64, 76
14, 27704, Note_on_c, 12, 64, 0
14, 27720, Note_on_c, 12, 64, 76
14, 27824, Note_on_c, 12, 64, 0
14, 27840, Note_on_c, 12, 66, 76
14, 28064, Note_on_c, 12, 66, 0
14, 28080, Note_on_c, 12, 66, 76
14, 28184, Note_on_c, 12, 66, 0
14, 28200, Note_on_c, 12, 59, 76
14, 28424, Note_on_c, 12, 59, 0
14, 28440, Note_on_c, 12, 68, 76
14, 28544, Note_on_c, 12, 68, 0
14, 28560, Note_on_c, 12, 71, 76
14, 28784, Note_on_c, 12, 71, 0
14, 28800, Note_on_c, 12, 62, 76
14, 28904, Note_on_c, 12, 62, 0
14, 28920, Note_on_c, 12, 61, 76
14, 29144, Note_on_c, 12, 61, 0
14, 29160, Note_on_c, 12, 64, 76
14, 29264, Note_on_c, 12, 64, 0
14, 29280, Note_on_c, 12, 64, 76
14, 29504, Note_on_c, 12, 64, 0
14, 29520, Note_on_c, 12, 62, 76
14, 29624, Note_on_c, 12, 62, 0
14, 29640, Note_on_c, 12, 61, 76
14, 29984, Note_on_c, 12, 61, 0
14, 30000, Note_on_c, 12, 59, 76
14, 30704, Note_on_c, 12, 59, 0
14, 30720, Note_on_c, 12, 57, 76
14, 31424, Note_on_c, 12, 57, 0
14, 31440, Note_on_c, 12, 56, 76
14, 31559, Note_on_c, 12, 56, 0
14, 31560, Note_on_c, 12, 59, 76
14, 31679, Note_on_c, 12, 59, 0
14, 31680, Note_on_c, 12, 57, 76
14, 31784, Note_on_c, 12, 57, 0
14, 31800, Note_on_c, 12, 59, 76
14, 31919, Note_on_c, 12, 59, 0
14, 31920, Note_on_c, 12, 61, 76
14, 32039, Note_on_c, 12, 61, 0
14, 32040, Note_on_c, 12, 62, 76
14, 32144, Note_on_c, 12, 62, 0
14, 32160, Note_on_c, 12, 56, 76
14, 32279, Note_on_c, 12, 56, 0
14, 32280, Note_on_c, 12, 59, 76
14, 32399, Note_on_c, 12, 59, 0
14, 32400, Note_on_c, 12, 62, 76
14, 32504, Note_on_c, 12, 62, 0
14, 32520, Note_on_c, 12, 68, 76
14, 32744, Note_on_c, 12, 68, 0
14, 32760, Note_on_c, 12, 64, 76
14, 32864, Note_on_c, 12, 64, 0
14, 32880, Note_on_c, 12, 57, 76
14, 33104, Note_on_c, 12, 57, 0
14, 33120, Note_on_c, 12, 64, 76
14, 33224, Note_on_c, 12, 64, 0
14, 33240, Note_on_c, 12, 64, 76
14, 33464, Note_on_c, 12, 64, 0
14, 33480, Note_on_c, 12, 61, 76
14, 33584, Note_on_c, 12, 61, 0
14, 33600, Note_on_c, 12, 59, 76
14, 33824, Note_on_c, 12, 59, 0
14, 33840, Note_on_c, 12, 59, 76
14, 33944, Note_on_c, 12, 59, 0
14, 33960, Note_on_c, 12, 61, 76
14, 34544, Note_on_c, 12, 61, 0
14, 34560, Note_on_c, 12, 64, 76
14, 34664, Note_on_c, 12, 64, 0
14, 34680, Note_on_c, 12, 69, 76
14, 35024, Note_on_c, 12, 69, 0
14, 35040, Note_on_c, 12, 69, 76
14, 35384, Note_on_c, 12, 69, 0
14, 35400, Note_on_c, 12, 69, 76
14, 35984, Note_on_c, 12, 69, 0
14, 36000, Note_on_c, 12, 61, 76
14, 36104, Note_on_c, 12, 61, 0
14, 36120, Note_on_c, 12, 57, 76
14, 36344, Note_on_c, 12, 57, 0
14, 36360, Note_on_c, 12, 59, 76
14, 36464, Note_on_c, 12, 59, 0
14, 36480, Note_on_c, 12, 55, 76
14, 36704, Note_on_c, 12, 55, 0
14, 36720, Note_on_c, 12, 59, 76
14, 36824, Note_on_c, 12, 59, 0
14, 36840, Note_on_c, 12, 61, 76
14, 37064, Note_on_c, 12, 61, 0
14, 37080, Note_on_c, 12, 58, 76
14, 37184, Note_on_c, 12, 58, 0
14, 37200, Note_on_c, 12, 59, 76
14, 37319, Note_on_c, 12, 59, 0
14, 37320, Note_on_c, 12, 61, 76
14, 37439, Note_on_c, 12, 61, 0
14, 37440, Note_on_c, 12, 58, 76
14, 37544, Note_on_c, 12, 58, 0
14, 37560, Note_on_c, 12, 59, 76
14, 37904, Note_on_c, 12, 59, 0
14, 37920, Note_on_c, 12, 71, 76
14, 38264, Note_on_c, 12, 71, 0
14, 38280, Note_on_c, 12, 71, 76
14, 38864, Note_on_c, 12, 71, 0
14, 38880, Note_on_c, 12, 59, 76
14, 38984, Note_on_c, 12, 59, 0
14, 39000, Note_on_c, 12, 55, 76
14, 39224, Note_on_c, 12, 55, 0
14, 39240, Note_on_c, 12, 59, 76
14, 39344, Note_on_c, 12, 59, 0
14, 39360, Note_on_c, 12, 61, 76
14, 39584, Note_on_c, 12, 61, 0
14, 39600, Note_on_c, 12, 61, 76
14, 39704, Note_on_c, 12, 61, 0
14, 39720, Note_on_c, 12, 62, 76
14, 40304, Note_on_c, 12, 62, 0
14, 40320, Note_on_c, 12, 66, 76
14, 40424, Note_on_c, 12, 66, 0
14, 40440, Note_on_c, 12, 64, 76
14, 40679, Note_on_c, 12, 64, 0
14, 40800, Note_on_c, 12, 64, 76
14, 41039, Note_on_c, 12, 64, 0
14, 41160, Note_on_c, 12, 59, 76
14, 41399, Note_on_c, 12, 59, 0
14, 41520, Note_on_c, 12, 64, 76
14, 41744, Note_on_c, 12, 64, 0
14, 41760, Note_on_c, 12, 64, 76
14, 41864, Note_on_c, 12, 64, 0
14, 41880, Note_on_c, 12, 64, 76
14, 42104, Note_on_c, 12, 64, 0
14, 42120, Note_on_c, 12, 66, 76
14, 42224, Note_on_c, 12, 66, 0
14, 42240, Note_on_c, 12, 66, 76
14, 42464, Note_on_c, 12, 66, 0
14, 42480, Note_on_c, 12, 64, 76
14, 42584, Note_on_c, 12, 64, 0
14, 42600, Note_on_c, 12, 64, 76
14, 42719, Note_on_c, 12, 64, 0
14, 42720, Note_on_c, 12, 62, 76
14, 42839, Note_on_c, 12, 62, 0
14, 42840, Note_on_c, 12, 64, 76
14, 42944, Note_on_c, 12, 64, 0
14, 42960, Note_on_c, 12, 61, 76
14, 43079, Note_on_c, 12, 61, 0
14, 43080, Note_on_c, 12, 64, 76
14, 43199, Note_on_c, 12, 64, 0
14, 43200, Note_on_c, 12, 69, 76
14, 43304, Note_on_c, 12, 69, 0
14, 43320, Note_on_c, 12, 69, 76
14, 43559, Note_on_c, 12, 69, 0
14, 43680, Note_on_c, 12, 69, 76
14, 43919, Note_on_c, 12, 69, 0
14, 44040, Note_on_c, 12, 64, 76
14, 44279, Note_on_c, 12, 64, 0
14, 44400, Note_on_c, 12, 69, 76
14, 44624, Note_on_c, 12, 69, 0
14, 44640, Note_on_c, 12, 69, 76
14, 44744, Note_on_c, 12, 69, 0
14, 44760, Note_on_c, 12, 69, 76
14, 44984, Note_on_c, 12, 69, 0
14, 45000, Note_on_c, 12, 71, 76
14, 45104, Note_on_c, 12, 71, 0
14, 45120, Note_on_c, 12, 71, 76
14, 45344, Note_on_c, 12, 71, 0
14, 45360, Note_on_c, 12, 69, 76
14, 45464, Note_on_c, 12, 69, 0
14, 45480, Note_on_c, 12, 69, 76
14, 45599, Note_on_c, 12, 69, 0
14, 45600, Note_on_c, 12, 67, 76
14, 45719, Note_on_c, 12, 67, 0
14, 45720, Note_on_c, 12, 69, 76
14, 45824, Note_on_c, 12, 69, 0
14, 45840, Note_on_c, 12, 66, 76
14, 45959, Note_on_c, 12, 66, 0
14, 45960, Note_on_c, 12, 62, 76
14, 46079, Note_on_c, 12, 62, 0
14, 46080, Note_on_c, 12, 69, 76
14, 46184, Note_on_c, 12, 69, 0
14, 46200, Note_on_c, 12, 69, 76
14, 46319, Note_on_c, 12, 69, 0
14, 46320, Note_on_c, 12, 68, 76
14, 46439, Note_on_c, 12, 68, 0
14, 46440, Note_on_c, 12, 66, 76
14, 46544, Note_on_c, 12, 66, 0
14, 46560, Note_on_c, 12, 71, 76
14, 46784, Note_on_c, 12, 71, 0
14, 46800, Note_on_c, 12, 69, 76
14, 46904, Note_on_c, 12, 69, 0
14, 46920, Note_on_c, 12, 68, 76
14, 47504, Note_on_c, 12, 68, 0
14, 47520, Note_on_c, 12, 65, 76
14, 47624, Note_on_c, 12, 65, 0
14, 47640, Note_on_c, 12, 66, 76
14, 47759, Note_on_c, 12, 66, 0
14, 47760, Note_on_c, 12, 68, 76
14, 47879, Note_on_c, 12, 68, 0
14, 47880, Note_on_c, 12, 69, 76
14, 47984, Note_on_c, 12, 69, 0
14, 48000, Note_on_c, 12, 57, 76
14, 48224, Note_on_c, 12, 57, 0
14, 48240, Note_on_c, 12, 61, 76
14, 48344, Note_on_c, 12, 61, 0
14, 48360, Note_on_c, 12, 66, 76
14, 48944, Note_on_c, 12, 66, 0
14, 48960, Note_on_c, 12, 73, 76
14, 49064, Note_on_c, 12, 73, 0
14, 49080, Note_on_c, 12, 71, 76
14, 49199, Note_on_c, 12, 71, 0
14, 49200, Note_on_c, 12, 69, 76
14, 49319, Note_on_c, 12, 69, 0
14, 49320, Note_on_c, 12, 68, 76
14, 49424, Note_on_c, 12, 68, 0
14, 49440, Note_on_c, 12, 66, 76
14, 49664, Note_on_c, 12, 66, 0
14, 49680, Note_on_c, 12, 65, 76
14, 49784, Note_on_c, 12, 65, 0
14, 49800, Note_on_c, 12, 66, 76
14, 50384, Note_on_c, 12, 66, 0
14, 50400, Note_on_c, 12, 68, 76
14, 50504, Note_on_c, 12, 68, 0
14, 50520, Note_on_c, 12, 61, 76
14, 50744, Note_on_c, 12, 61, 0
14, 50760, Note_on_c, 12, 62, 76
14, 50864, Note_on_c, 12, 62, 0
14, 50880, Note_on_c, 12, 56, 76
14, 51104, Note_on_c, 12, 56, 0
14, 51120, Note_on_c, 12, 61, 76
14, 51224, Note_on_c, 12, 61, 0
14, 51240, Note_on_c, 12, 57, 76
14, 51824, Note_on_c, 12, 57, 0
14, 51840, Note_on_c, 12, 57, 76
14, 51944, Note_on_c, 12, 57, 0
14, 51960, Note_on_c, 12, 62, 76
14, 52304, Note_on_c, 12, 62, 0
14, 52320, Note_on_c, 12, 62, 76
14, 52664, Note_on_c, 12, 62, 0
14, 52680, Note_on_c, 12, 57, 76
14, 53024, Note_on_c, 12, 57, 0
14, 53040, Note_on_c, 12, 57, 76
14, 53264, Note_on_c, 12, 57, 0
14, 53280, Note_on_c, 12, 62, 76
14, 53384, Note_on_c, 12, 62, 0
14, 53400, Note_on_c, 12, 62, 76
14, 53624, Note_on_c, 12, 62, 0
14, 53640, Note_on_c, 12, 64, 76
14, 53744, Note_on_c, 12, 64, 0
14, 53760, Note_on_c, 12, 64, 76
14, 53984, Note_on_c, 12, 64, 0
14, 54000, Note_on_c, 12, 62, 76
14, 54104, Note_on_c, 12, 62, 0
14, 54120, Note_on_c, 12, 62, 76
14, 54584, Note_on_c, 12, 62, 0
14, 54600, Note_on_c, 12, 67, 76
14, 54704, Note_on_c, 12, 67, 0
14, 54720, Note_on_c, 12, 66, 76
14, 54824, Note_on_c, 12, 66, 0
14, 54840, Note_on_c, 12, 71, 76
14, 55064, Note_on_c, 12, 71, 0
14, 55080, Note_on_c, 12, 71, 76
14, 55184, Note_on_c, 12, 71, 0
14, 55200, Note_on_c, 12, 69, 76
14, 55424, Note_on_c, 12, 69, 0
14, 55440, Note_on_c, 12, 67, 76
14, 55544, Note_on_c, 12, 67, 0
14, 55560, Note_on_c, 12, 66, 76
14, 55784, Note_on_c, 12, 66, 0
14, 55800, Note_on_c, 12, 72, 76
14, 55904, Note_on_c, 12, 72, 0
14, 55920, Note_on_c, 12, 69, 76
14, 56144, Note_on_c, 12, 69, 0
14, 56160, Note_on_c, 12, 64, 76
14, 56264, Note_on_c, 12, 64, 0
14, 56280, Note_on_c, 12, 66, 76
14, 56504, Note_on_c, 12, 66, 0
14, 56520, Note_on_c, 12, 69, 76
14, 56624, Note_on_c, 12, 69, 0
14, 56640, Note_on_c, 12, 67, 76
14, 56864, Note_on_c, 12, 67, 0
14, 56880, Note_on_c, 12, 66, 76
14, 56984, Note_on_c, 12, 66, 0
14, 57000, Note_on_c, 12, 64, 76
14, 57224, Note_on_c, 12, 64, 0
14, 57240, Note_on_c, 12, 59, 76
14, 57344, Note_on_c, 12, 59, 0
14, 57360, Note_on_c, 12, 71, 76
14, 57584, Note_on_c, 12, 71, 0
14, 57600, Note_on_c, 12, 66, 76
14, 57704, Note_on_c, 12, 66, 0
14, 57720, Note_on_c, 12, 64, 76
14, 57944, Note_on_c, 12, 64, 0
14, 57960, Note_on_c, 12, 67, 76
14, 58064, Note_on_c, 12, 67, 0
14, 58080, Note_on_c, 12, 66, 76
14, 58304, Note_on_c, 12, 66, 0
14, 58320, Note_on_c, 12, 64, 76
14, 58424, Note_on_c, 12, 64, 0
14, 58440, Note_on_c, 12, 62, 76
14, 58664, Note_on_c, 12, 62, 0
14, 58680, Note_on_c, 12, 57, 76
14, 58784, Note_on_c, 12, 57, 0
14, 58800, Note_on_c, 12, 62, 76
14, 59024, Note_on_c, 12, 62, 0
14, 59040, Note_on_c, 12, 62, 76
14, 59144, Note_on_c, 12, 62, 0
14, 59160, Note_on_c, 12, 62, 76
14, 59399, Note_on_c, 12, 62, 0
14, 59520, Note_on_c, 12, 64, 76
14, 59759, Note_on_c, 12, 64, 0
14, 59880, Note_on_c, 12, 64, 76
14, 60119, Note_on_c, 12, 64, 0
14, 60240, Note_on_c, 12, 66, 76
14, 60479, Note_on_c, 12, 66, 0
14, 60600, Note_on_c, 12, 66, 76
14, 60839, Note_on_c, 12, 66, 0
14, 60960, Note_on_c, 12, 62, 76
14, 61199, Note_on_c, 12, 62, 0
14, 61320, Note_on_c, 12, 69, 76
14, 61559, Note_on_c, 12, 69, 0
14, 61680, Note_on_c, 12, 69, 76
14, 61919, Note_on_c, 12, 69, 0
14, 62040, Note_on_c, 12, 69, 76
14, 62159, Note_on_c, 12, 69, 0
14, 62160, Note_on_c, 12, 67, 76
14, 62279, Note_on_c, 12, 67, 0
14, 62280, Note_on_c, 12, 69, 76
14, 62384, Note_on_c, 12, 69, 0
14, 62400, Note_on_c, 12, 67, 76
14, 62624, Note_on_c, 12, 67, 0
14, 62640, Note_on_c, 12, 66, 76
14, 62744, Note_on_c, 12, 66, 0
14, 62760, Note_on_c, 12, 64, 76
14, 62984, Note_on_c, 12, 64, 0
14, 63000, Note_on_c, 12, 66, 76
14, 63104, Note_on_c, 12, 66, 0
14, 63120, Note_on_c, 12, 64, 76
14, 63344, Note_on_c, 12, 64, 0
14, 63360, Note_on_c, 12, 64, 76
14, 63464, Note_on_c, 12, 64, 0
14, 63480, Note_on_c, 12, 62, 76
14, 63839, Note_on_c, 12, 62, 0
14, 64080, Note_on_c, 12, 66, 76
14, 64184, Note_on_c, 12, 66, 0
14, 64200, Note_on_c, 12, 66, 76
14, 64544, Note_on_c, 12, 66, 0
14, 64560, Note_on_c, 12, 64, 76
14, 65264, Note_on_c, 12, 64, 0
14, 65280, Note_on_c, 12, 62, 76
14, 65984, Note_on_c, 12, 62, 0
14, 66000, Note_on_c, 12, 61, 76
14, 66119, Note_on_c, 12, 61, 0
14, 66120, Note_on_c, 12, 64, 76
14, 66239, Note_on_c, 12, 64, 0
14, 66240, Note_on_c, 12, 62, 76
14, 66344, Note_on_c, 12, 62, 0
14, 66360, Note_on_c, 12, 64, 76
14, 66479, Note_on_c, 12, 64, 0
14, 66480, Note_on_c, 12, 66, 76
14, 66599, Note_on_c, 12, 66, 0
14, 66600, Note_on_c, 12, 67, 76
14, 66704, Note_on_c, 12, 67, 0
14, 66720, Note_on_c, 12, 61, 76
14, 66839, Note_on_c, 12, 61, 0
14, 66840, Note_on_c, 12, 64, 76
14, 66959, Note_on_c, 12, 64, 0
14, 66960, Note_on_c, 12, 67, 76
14, 67064, Note_on_c, 12, 67, 0
14, 67080, Note_on_c, 12, 73, 76
14, 67304, Note_on_c, 12, 73, 0
14, 67320, Note_on_c, 12, 69, 76
14, 67424, Note_on_c, 12, 69, 0
14, 67440, Note_on_c, 12, 62, 76
14, 67664, Note_on_c, 12, 62, 0
14, 67680, Note_on_c, 12, 67, 76
14, 67784, Note_on_c, 12, 67, 0
14, 67800, Note_on_c, 12, 69, 76
14, 68024, Note_on_c, 12, 69, 0
14, 68040, Note_on_c, 12, 74, 76
14, 68144, Note_on_c, 12, 74, 0
14, 68160, Note_on_c, 12, 69, 76
14, 68279, Note_on_c, 12, 69, 0
14, 68280, Note_on_c, 12, 67, 76
14, 68399, Note_on_c, 12, 67, 0
14, 68400, Note_on_c, 12, 66, 76
14, 68504, Note_on_c, 12, 66, 0
14, 68520, Note_on_c, 12, 66, 76
14, 69104, Note_on_c, 12, 66, 0
14, 69120, Note_on_c, 12, 64, 76
14, 69224, Note_on_c, 12, 64, 0
14, 69240, Note_on_c, 12, 69, 76
14, 69584, Note_on_c, 12, 69, 0
14, 69600, Note_on_c, 12, 69, 76
14, 69944, Note_on_c, 12, 69, 0
14, 69960, Note_on_c, 12, 69, 76
14, 70544, Note_on_c, 12, 69, 0
14, 70560, Note_on_c, 12, 61, 76
14, 70664, Note_on_c, 12, 61, 0
14, 70680, Note_on_c, 12, 57, 76
14, 70904, Note_on_c, 12, 57, 0
14, 70920, Note_on_c, 12, 59, 76
14, 71024, Note_on_c, 12, 59, 0
14, 71040, Note_on_c, 12, 55, 76
14, 71264, Note_on_c, 12, 55, 0
14, 71280, Note_on_c, 12, 59, 76
14, 71384, Note_on_c, 12, 59, 0
14, 71400, Note_on_c, 12, 61, 76
14, 71624, Note_on_c, 12, 61, 0
14, 71640, Note_on_c, 12, 58, 76
14, 71744, Note_on_c, 12, 58, 0
14, 71760, Note_on_c, 12, 59, 76
14, 71879, Note_on_c, 12, 59, 0
14, 71880, Note_on_c, 12, 61, 76
14, 71999, Note_on_c, 12, 61, 0
14, 72000, Note_on_c, 12, 58, 76
14, 72104, Note_on_c, 12, 58, 0
14, 72120, Note_on_c, 12, 59, 76
14, 72464, Note_on_c, 12, 59, 0
14, 72480, Note_on_c, 12, 71, 76
14, 72824, Note_on_c, 12, 71, 0
14, 72840, Note_on_c, 12, 71, 76
14, 73424, Note_on_c, 12, 71, 0
14, 73440, Note_on_c, 12, 59, 76
14, 73544, Note_on_c, 12, 59, 0
14, 73560, Note_on_c, 12, 55, 76
14, 73784, Note_on_c, 12, 55, 0
14, 73800, Note_on_c, 12, 59, 76
14, 73904, Note_on_c, 12, 59, 0
14, 73920, Note_on_c, 12, 61, 76
14, 74144, Note_on_c, 12, 61, 0
14, 74160, Note_on_c, 12, 61, 76
14, 74264, Note_on_c, 12, 61, 0
14, 74280, Note_on_c, 12, 62, 76
14, 74864, Note_on_c, 12, 62, 0
14, 74880, Note_on_c, 12, 66, 76
14, 74984, Note_on_c, 12, 66, 0
14, 75000, Note_on_c, 12, 64, 76
14, 75239, Note_on_c, 12, 64, 0
14, 75360, Note_on_c, 12, 64, 76
14, 75599, Note_on_c, 12, 64, 0
14, 75720, Note_on_c, 12, 59, 76
14, 75959, Note_on_c, 12, 59, 0
14, 76080, Note_on_c, 12, 64, 76
14, 76304, Note_on_c, 12, 64, 0
14, 76320, Note_on_c, 12, 64, 76
14, 76424, Note_on_c, 12, 64, 0
14, 76440, Note_on_c, 12, 64, 76
14, 76664, Note_on_c, 12, 64, 0
14, 76680, Note_on_c, 12, 66, 76
14, 76784, Note_on_c, 12, 66, 0
14, 76800, Note_on_c, 12, 66, 76
14, 77024, Note_on_c, 12, 66, 0
14, 77040, Note_on_c, 12, 64, 76
14, 77144, Note_on_c, 12, 64, 0
14, 77160, Note_on_c, 12, 64, 76
14, 77279, Note_on_c, 12, 64, 0
14, 77280, Note_on_c, 12, 62, 76
14, 77399, Note_on_c, 12, 62, 0
14, 77400, Note_on_c, 12, 64, 76
14, 77504, Note_on_c, 12, 64, 0
14, 77520, Note_on_c, 12, 61, 76
14, 77639, Note_on_c, 12, 61, 0
14, 77640, Note_on_c, 12, 64, 76
14, 77759, Note_on_c, 12, 64, 0
14, 77760, Note_on_c, 12, 69, 76
14, 77864, Note_on_c, 12, 69, 0
14, 77880, Note_on_c, 12, 69, 76
14, 78119, Note_on_c, 12, 69, 0
14, 78240, Note_on_c, 12, 69, 76
14, 78479, Note_on_c, 12, 69, 0
14, 78600, Note_on_c, 12, 64, 76
14, 78839, Note_on_c, 12, 64, 0
14, 78960, Note_on_c, 12, 69, 76
14, 79184, Note_on_c, 12, 69, 0
14, 79200, Note_on_c, 12, 69, 76
14, 79304, Note_on_c, 12, 69, 0
14, 79320, Note_on_c, 12, 69, 76
14, 79544, Note_on_c, 12, 69, 0
14, 79560, Note_on_c, 12, 71, 76
14, 79664, Note_on_c, 12, 71, 0
14, 79680, Note_on_c, 12, 71, 76
14, 79904, Note_on_c, 12, 71, 0
14, 79920, Note_on_c, 12, 69, 76
14, 80024, Note_on_c, 12, 69, 0
14, 80040, Note_on_c, 12, 69, 76
14, 80159, Note_on_c, 12, 69, 0
14, 80160, Note_on_c, 12, 67, 76
14, 80279, Note_on_c, 12, 67, 0
14, 80280, Note_on_c, 12, 69, 76
14, 80384, Note_on_c, 12, 69, 0
14, 80400, Note_on_c, 12, 66, 76
14, 80519, Note_on_c, 12, 66, 0
14, 80520, Note_on_c, 12, 62, 76
14, 80639, Note_on_c, 12, 62, 0
14, 80640, Note_on_c, 12, 69, 76
14, 80744, Note_on_c, 12, 69, 0
14, 80760, Note_on_c, 12, 69, 76
14, 80879, Note_on_c, 12, 69, 0
14, 80880, Note_on_c, 12, 68, 76
14, 80999, Note_on_c, 12, 68, 0
14, 81000, Note_on_c, 12, 66, 76
14, 81104, Note_on_c, 12, 66, 0
14, 81120, Note_on_c, 12, 71, 76
14, 81344, Note_on_c, 12, 71, 0
14, 81360, Note_on_c, 12, 69, 76
14, 81464, Note_on_c, 12, 69, 0
14, 81480, Note_on_c, 12, 68, 76
14, 82064, Note_on_c, 12, 68, 0
14, 82080, Note_on_c, 12, 65, 76
14, 82184, Note_on_c, 12, 65, 0
14, 82200, Note_on_c, 12, 66, 76
14, 82319, Note_on_c, 12, 66, 0
14, 82320, Note_on_c, 12, 68, 76
14, 82439, Note_on_c, 12, 68, 0
14, 82440, Note_on_c, 12, 69, 76
14, 82544, Note_on_c, 12, 69, 0
14, 82560, Note_on_c, 12, 57, 76
14, 82784, Note_on_c, 12, 57, 0
14, 82800, Note_on_c, 12, 61, 76
14, 82904, Note_on_c, 12, 61, 0
14, 82920, Note_on_c, 12, 66, 76
14, 83504, Note_on_c, 12, 66, 0
14, 83520, Note_on_c, 12, 73, 76
14, 83624, Note_on_c, 12, 73, 0
14, 83640, Note_on_c, 12, 71, 76
14, 83759, Note_on_c, 12, 71, 0
14, 83760, Note_on_c, 12, 69, 76
14, 83879, Note_on_c, 12, 69, 0
14, 83880, Note_on_c, 12, 68, 76
14, 83984, Note_on_c, 12, 68, 0
14, 84000, Note_on_c, 12, 66, 76
14, 84224, Note_on_c, 12, 66, 0
14, 84240, Note_on_c, 12, 65, 76
14, 84344, Note_on_c, 12, 65, 0
14, 84360, Note_on_c, 12, 66, 76
14, 84944, Note_on_c, 12, 66, 0
14, 84960, Note_on_c, 12, 68, 76
14, 85064, Note_on_c, 12, 68, 0
14, 85080, Note_on_c, 12, 61, 76
14, 85304, Note_on_c, 12, 61, 0
14, 85320, Note_on_c, 12, 62, 76
14, 85424, Note_on_c, 12, 62, 0
14, 85440, Note_on_c, 12, 56, 76
14, 85664, Note_on_c, 12, 56, 0
14, 85680, Note_on_c, 12, 61, 76
14, 85784, Note_on_c, 12, 61, 0
14, 85800, Note_on_c, 12, 57, 76
14, 86384, Note_on_c, 12, 57, 0
14, 86400, Note_on_c, 12, 57, 76
14, 86504, Note_on_c, 12, 57, 0
14, 86520, Note_on_c, 12, 62, 76
14, 86864, Note_on_c, 12, 62, 0
14, 86880, Note_on_c, 12, 62, 76
14, 87224, Note_on_c, 12, 62, 0
14, 87240, Note_on_c, 12, 57, 76
14, 87584, Note_on_c, 12, 57, 0
14, 87600, Note_on_c, 12, 57, 76
14, 87824, Note_on_c, 12, 57, 0
14, 87840, Note_on_c, 12, 62, 76
14, 87944, Note_on_c, 12, 62, 0
14, 87960, Note_on_c, 12, 62, 76
14, 88184, Note_on_c, 12, 62, 0
14, 88200, Note_on_c, 12, 64, 76
14, 88304, Note_on_c, 12, 64, 0
14, 88320, Note_on_c, 12, 64, 76
14, 88544, Note_on_c, 12, 64, 0
14, 88560, Note_on_c, 12, 62, 76
14, 88664, Note_on_c, 12, 62, 0
14, 88680, Note_on_c, 12, 62, 76
14, 89144, Note_on_c, 12, 62, 0
14, 89160, Note_on_c, 12, 67, 76
14, 89264, Note_on_c, 12, 67, 0
14, 89280, Note_on_c, 12, 66, 76
14, 89384, Note_on_c, 12, 66, 0
14, 89400, Note_on_c, 12, 71, 76
14, 89624, Note_on_c, 12, 71, 0
14, 89640, Note_on_c, 12, 71, 76
14, 89744, Note_on_c, 12, 71, 0
14, 89760, Note_on_c, 12, 69, 76
14, 89984, Note_on_c, 12, 69, 0
14, 90000, Note_on_c, 12, 67, 76
14, 90104, Note_on_c, 12, 67, 0
14, 90120, Note_on_c, 12, 66, 76
14, 90344, Note_on_c, 12, 66, 0
14, 90360, Note_on_c, 12, 72, 76
14, 90464, Note_on_c, 12, 72, 0
14, 90480, Note_on_c, 12, 69, 76
14, 90704, Note_on_c, 12, 69, 0
14, 90720, Note_on_c, 12, 64, 76
14, 90824, Note_on_c, 12, 64, 0
14, 90840, Note_on_c, 12, 66, 76
14, 91064, Note_on_c, 12, 66, 0
14, 91080, Note_on_c, 12, 69, 76
14, 91184, Note_on_c, 12, 69, 0
14, 91200, Note_on_c, 12, 67, 76
14, 91424, Note_on_c, 12, 67, 0
14, 91440, Note_on_c, 12, 66, 76
14, 91544, Note_on_c, 12, 66, 0
14, 91560, Note_on_c, 12, 64, 76
14, 91784, Note_on_c, 12, 64, 0
14, 91800, Note_on_c, 12, 59, 76
14, 91904, Note_on_c, 12, 59, 0
14, 91920, Note_on_c, 12, 71, 76
14, 92144, Note_on_c, 12, 71, 0
14, 92160, Note_on_c, 12, 66, 76
14, 92264, Note_on_c, 12, 66, 0
14, 92280, Note_on_c, 12, 64, 76
14, 92504, Note_on_c, 12, 64, 0
14, 92520, Note_on_c, 12, 67, 76
14, 92624, Note_on_c, 12, 67, 0
14, 92640, Note_on_c, 12, 66, 76
14, 92864, Note_on_c, 12, 66, 0
14, 92880, Note_on_c, 12, 64, 76
14, 92984, Note_on_c, 12, 64, 0
14, 93000, Note_on_c, 12, 62, 76
14, 93224, Note_on_c, 12, 62, 0
14, 93240, Note_on_c, 12, 57, 76
14, 93344, Note_on_c, 12, 57, 0
14, 93360, Note_on_c, 12, 62, 76
14, 93584, Note_on_c, 12, 62, 0
14, 93600, Note_on_c, 12, 62, 76
14, 93704, Note_on_c, 12, 62, 0
14, 93720, Note_on_c, 12, 62, 76
14, 93959, Note_on_c, 12, 62, 0
14, 94080, Note_on_c, 12, 64, 76
14, 94319, Note_on_c, 12, 64, 0
14, 94440, Note_on_c, 12, 64, 76
14, 94679, Note_on_c, 12, 64, 0
14, 94800, Note_on_c, 12, 66, 76
14, 95039, Note_on_c, 12, 66, 0
14, 95160, Note_on_c, 12, 66, 76
14, 95399, Note_on_c, 12, 66, 0
14, 95520, Note_on_c, 12, 62, 76
14, 95759, Note_on_c, 12, 62, 0
14, 95880, Note_on_c, 12, 69, 76
14, 96119, Note_on_c, 12, 69, 0
14, 96240, Note_on_c, 12, 69, 76
14, 96479, Note_on_c, 12, 69, 0
14, 96600, Note_on_c, 12, 69, 76
14, 96719, Note_on_c, 12, 69, 0
14, 96720, Note_on_c, 12, 67, 76
14, 96839, Note_on_c, 12, 67, 0
14, 96840, Note_on_c, 12, 69, 76
14, 96944, Note_on_c, 12, 69, 0
14, 96960, Note_on_c, 12, 67, 76
14, 97184, Note_on_c, 12, 67, 0
14, 97200, Note_on_c, 12, 66, 76
14, 97304, Note_on_c, 12, 66, 0
14, 97320, Note_on_c, 12, 64, 76
14, 97544, Note_on_c, 12, 64, 0
14, 97560, Note_on_c, 12, 66, 76
14, 97664, Note_on_c, 12, 66, 0
14, 97680, Note_on_c, 12, 64, 76
14, 97904, Note_on_c, 12, 64, 0
14, 97920, Note_on_c, 12, 64, 76
14, 98024, Note_on_c, 12, 64, 0
14, 98040, Note_on_c, 12, 62, 76
14, 98399, Note_on_c, 12, 62, 0
14, 98640, Note_on_c, 12, 66, 76
14, 98744, Note_on_c, 12, 66, 0
14, 98760, Note_on_c, 12, 66, 76
14, 99104, Note_on_c, 12, 66, 0
14, 99120, Note_on_c, 12, 64, 76
14, 99824, Note_on_c, 12, 64, 0
14, 99840, Note_on_c, 12, 62, 76
14, 100544, Note_on_c, 12, 62, 0
14, 100560, Note_on_c, 12, 61, 76
14, 100679, Note_on_c, 12, 61, 0
14, 100680, Note_on_c, 12, 64, 76
14, 100799, Note_on_c, 12, 64, 0
14, 100800, Note_on_c, 12, 62, 76
14, 100904, Note_on_c, 12, 62, 0
14, 100920, Note_on_c, 12, 64, 76
14, 101039, Note_on_c, 12, 64, 0
14, 101040, Note_on_c, 12, 66, 76
14, 101159, Note_on_c, 12, 66, 0
14, 101160, Note_on_c, 12, 67, 76
14, 101264, Note_on_c, 12, 67, 0
14, 101280, Note_on_c, 12, 61, 76
14, 101399, Note_on_c, 12, 61, 0
14, 101400, Note_on_c, 12, 64, 76
14, 101519, Note_on_c, 12, 64, 0
14, 101520, Note_on_c, 12, 67, 76
14, 101624, Note_on_c, 12, 67, 0
14, 101640, Note_on_c, 12, 73, 76
14, 101864, Note_on_c, 12, 73, 0
14, 101880, Note_on_c, 12, 69, 76
14, 101984, Note_on_c, 12, 69, 0
14, 102000, Note_on_c, 12, 62, 76
14, 102224, Note_on_c, 12, 62, 0
14, 102240, Note_on_c, 12, 67, 76
14, 102344, Note_on_c, 12, 67, 0
14, 102360, Note_on_c, 12, 69, 76
14, 102584, Note_on_c, 12, 69, 0
14, 102600, Note_on_c, 12, 74, 76
14, 102704, Note_on_c, 12, 74, 0
14, 102720, Note_on_c, 12, 69, 76
14, 102839, Note_on_c, 12, 69, 0
14, 102840, Note_on_c, 12, 67, 76
14, 102959, Note_on_c, 12, 67, 0
14, 102960, Note_on_c, 12, 66, 76
14, 103064, Note_on_c, 12, 66, 0
14, 103080, Note_on_c, 12, 66, 76
14, 103679, Note_on_c, 12, 66, 0
14, 103679, End_track
15, 0, Start_track
15, 0, Title_t, "Cello"
15, 0, MIDI_port, 0
15, 0, Program_c, 13, 48
15, 0, Control_c, 13, 10, 90
15, 0, Control_c, 13, 11, 127
15, 0, Control_c, 13, 7, 96
15, 0, Note_on_c, 13, 50, 76
15, 104, Note_on_c, 13, 50, 0
15, 120, Note_on_c, 13, 62, 76
15, 239, Note_on_c, 13, 62, 0
15, 240, Note_on_c, 13, 61, 76
15, 359, Note_on_c, 13, 61, 0
15, 360, Note_on_c, 13, 62, 76
15, 464, Note_on_c, 13, 62, 0
15, 480, Note_on_c, 13, 62, 76
15, 599, Note_on_c, 13, 62, 0
15, 600, Note_on_c, 13, 61, 76
15, 719, Note_on_c, 13, 61, 0
15, 720, Note_on_c, 13, 62, 76
15, 824, Note_on_c, 13, 62, 0
15, 840, Note_on_c, 13, 62, 76
15, 959, Note_on_c, 13, 62, 0
15, 960, Note_on_c, 13, 61, 76
15, 1079, Note_on_c, 13, 61, 0
15, 1080, Note_on_c, 13, 62, 76
15, 1184, Note_on_c, 13, 62, 0
15, 1200, Note_on_c, 13, 50, 76
15, 1424, Note_on_c, 13, 50, 0
15, 1440, Note_on_c, 13, 52, 76
15, 1544, Note_on_c, 13, 52, 0
15, 1560, Note_on_c, 13, 54, 76
15, 1784, Note_on_c, 13, 54, 0
15, 1800, Note_on_c, 13, 55, 76
15, 1904, Note_on_c, 13, 55, 0
15, 1920, Note_on_c, 13, 57, 76
15, 2144, Note_on_c, 13, 57, 0
15, 2160, Note_on_c, 13, 45, 76
15, 2264, Note_on_c, 13, 45, 0
15, 2280, Note_on_c, 13, 50, 76
15, 2864, Note_on_c, 13, 50, 0
15, 2880, Note_on_c, 13, 49, 76
15, 2984, Note_on_c, 13, 49, 0
15, 3000, Note_on_c, 13, 47, 76
15, 3119, Note_on_c, 13, 47, 0
15, 3120, Note_on_c, 13, 45, 76
15, 3239, Note_on_c, 13, 45, 0
15, 3240, Note_on_c, 13, 47, 76
15, 3344, Note_on_c, 13, 47, 0
15, 3360, Note_on_c, 13, 45, 76
15, 3479, Note_on_c, 13, 45, 0
15, 3480, Note_on_c, 13, 44, 76
15, 3599, Note_on_c, 13, 44, 0
15, 3600, Note_on_c, 13, 45, 76
15, 3704, Note_on_c, 13, 45, 0
15, 3720, Note_on_c, 13, 44, 76
15, 3839, Note_on_c, 13, 44, 0
15, 3840, Note_on_c, 13, 42, 76
15, 3959, Note_on_c, 13, 42, 0
15, 3960, Note_on_c, 13, 44, 76
15, 4064, Note_on_c, 13, 44, 0
15, 4080, Note_on_c, 13, 40, 76
15, 4199, Note_on_c, 13, 40, 0
15, 4200, Note_on_c, 13, 42, 76
15, 4319, Note_on_c, 13, 42, 0
15, 4320, Note_on_c, 13, 44, 76
15, 4424, Note_on_c, 13, 44, 0
15, 4440, Note_on_c, 13, 45, 76
15, 4664, Note_on_c, 13, 45, 0
15, 4680, Note_on_c, 13, 54, 76
15, 4784, Note_on_c, 13, 54, 0
15, 4800, Note_on_c, 13, 50, 76
15, 5024, Note_on_c, 13, 50, 0
15, 5040, Note_on_c, 13, 52, 76
15, 5144, Note_on_c, 13, 52, 0
15, 5160, Note_on_c, 13, 45, 76
15, 5744, Note_on_c, 13, 45, 0
15, 5760, Note_on_c, 13, 43, 76
15, 5864, Note_on_c, 13, 43, 0
15, 5880, Note_on_c, 13, 42, 76
15, 6104, Note_on_c, 13, 42, 0
15, 6120, Note_on_c, 13, 55, 76
15, 6224, Note_on_c, 13, 55, 0
15, 6240, Note_on_c, 13, 54, 76
15, 6464, Note_on_c, 13, 54, 0
15, 6480, Note_on_c, 13, 52, 76
15, 6584, Note_on_c, 13, 52, 0
15, 6600, Note_on_c, 13, 51, 76
15, 6824, Note_on_c, 13, 51, 0
15, 6840, Note_on_c, 13, 54, 76
15, 6944, Note_on_c, 13, 54, 0
15, 6960, Note_on_c, 13, 51, 76
15, 7184, Note_on_c, 13, 51, 0
15, 7200, Note_on_c, 13, 47, 76
15, 7304, Note_on_c, 13, 47, 0
15, 7320, Note_on_c, 13, 52, 76
15, 7544, Note_on_c, 13, 52, 0
15, 7560, Note_on_c, 13, 54, 76
15, 7664, Note_on_c, 13, 54, 0
15, 7680, Note_on_c, 13, 52, 76
15, 7904, Note_on_c, 13, 52, 0
15, 7920, Note_on_c, 13, 50, 76
15, 8024, Note_on_c, 13, 50, 0
15, 8040, Note_on_c, 13, 49, 76
15, 8264, Note_on_c, 13, 49, 0
15, 8280, Note_on_c, 13, 52, 76
15, 8384, Note_on_c, 13, 52, 0
15, 8400, Note_on_c, 13, 49, 76
15, 8624, Note_on_c, 13, 49, 0
15, 8640, Note_on_c, 13, 45, 76
15, 8744, Note_on_c, 13, 45, 0
15, 8760, Note_on_c, 13, 50, 76
15, 8984, Note_on_c, 13, 50, 0
15, 9000, Note_on_c, 13, 62, 76
15, 9104, Note_on_c, 13, 62, 0
15, 9120, Note_on_c, 13, 61, 76
15, 9344, Note_on_c, 13, 61, 0
15, 9360, Note_on_c, 13, 49, 76
15, 9464, Note_on_c, 13, 49, 0
15, 9480, Note_on_c, 13, 47, 76
15, 9704, Note_on_c, 13, 47, 0
15, 9720, Note_on_c, 13, 59, 76
15, 9824, Note_on_c, 13, 59, 0
15, 9840, Note_on_c, 13, 57, 76
15, 10064, Note_on_c, 13, 57, 0
15, 10080, Note_on_c, 13, 45, 76
15, 10184, Note_on_c, 13, 45, 0
15, 10200, Note_on_c, 13, 44, 76
15, 10424, Note_on_c, 13, 44, 0
15, 10440, Note_on_c, 13, 56, 76
15, 10544, Note_on_c, 13, 56, 0
15, 10560, Note_on_c, 13, 54, 76
15, 10784, Note_on_c, 13, 54, 0
15, 10800, Note_on_c, 13, 42, 76
15, 10904, Note_on_c, 13, 42, 0
15, 10920, Note_on_c, 13, 40, 76
15, 11144, Note_on_c, 13, 40, 0
15, 11160, Note_on_c, 13, 52, 76
15, 11264, Note_on_c, 13, 52, 0
15, 11280, Note_on_c, 13, 50, 76
15, 11399, Note_on_c, 13, 50, 0
15, 11400, Note_on_c, 13, 49, 76
15, 11519, Note_on_c, 13, 49, 0
15, 11520, Note_on_c, 13, 47, 76
15, 11624, Note_on_c, 13, 47, 0
15, 11640, Note_on_c, 13, 49, 76
15, 11744, Note_on_c, 13, 49, 0
15, 11760, Note_on_c, 13, 47, 76
15, 11864, Note_on_c, 13, 47, 0
15, 11880, Note_on_c, 13, 45, 76
15, 11984, Note_on_c, 13, 45, 0
15, 12000, Note_on_c, 13, 52, 76
15, 12464, Note_on_c, 13, 52, 0
15, 12480, Note_on_c, 13, 54, 76
15, 12584, Note_on_c, 13, 54, 0
15, 12600, Note_on_c, 13, 52, 76
15, 12704, Note_on_c, 13, 52, 0
15, 12720, Note_on_c, 13, 51, 76
15, 12839, Note_on_c, 13, 51, 0
15, 12840, Note_on_c, 13, 47, 76
15, 12944, Note_on_c, 13, 47, 0
15, 12960, Note_on_c, 13, 49, 76
15, 13064, Note_on_c, 13, 49, 0
15, 13080, Note_on_c, 13, 50, 76
15, 13199, Note_on_c, 13, 50, 0
15, 13200, Note_on_c, 13, 52, 76
15, 13304, Note_on_c, 13, 52, 0
15, 13320, Note_on_c, 13, 50, 76
15, 13424, Note_on_c, 13, 50, 0
15, 13440, Note_on_c, 13, 49, 76
15, 13559, Note_on_c, 13, 49, 0
15, 13560, Note_on_c, 13, 45, 76
15, 13664, Note_on_c, 13, 45, 0
15, 13680, Note_on_c, 13, 47, 76
15, 13784, Note_on_c, 13, 47, 0
15, 13800, Note_on_c, 13, 48, 76
15, 13919, Note_on_c, 13, 48, 0
15, 13920, Note_on_c, 13, 50, 76
15, 14024, Note_on_c, 13, 50, 0
15, 14040, Note_on_c, 13, 48, 76
15, 14144, Note_on_c, 13, 48, 0
15, 14160, Note_on_c, 13, 47, 76
15, 14279, Note_on_c, 13, 47, 0
15, 14280, Note_on_c, 13, 44, 76
15, 14384, Note_on_c, 13, 44, 0
15, 14400, Note_on_c, 13, 45, 76
15, 14504, Note_on_c, 13, 45, 0
15, 14520, Note_on_c, 13, 44, 76
15, 14639, Note_on_c, 13, 44, 0
15, 14640, Note_on_c, 13, 45, 76
15, 14744, Note_on_c, 13, 45, 0
15, 14760, Note_on_c, 13, 47, 76
15, 14864, Note_on_c, 13, 47, 0
15, 14880, Note_on_c, 13, 40, 76
15, 15464, Note_on_c, 13, 40, 0
15, 15480, Note_on_c, 13, 52, 76
15, 15584, Note_on_c, 13, 52, 0
15, 15600, Note_on_c, 13, 54, 76
15, 15824, Note_on_c, 13, 54, 0
15, 15840, Note_on_c, 13, 56, 76
15, 15944, Note_on_c, 13, 56, 0
15, 15960, Note_on_c, 13, 57, 76
15, 16184, Note_on_c, 13, 57, 0
15, 16200, Note_on_c, 13, 49, 76
15, 16304, Note_on_c, 13, 49, 0
15, 16320, Note_on_c, 13, 52, 76
15, 16544, Note_on_c, 13, 52, 0
15, 16560, Note_on_c, 13, 40, 76
15, 16664, Note_on_c, 13, 40, 0
15, 16680, Note_on_c, 13, 45, 76
15, 17264, Note_on_c, 13, 45, 0
15, 17280, Note_on_c, 13, 50, 76
15, 17384, Note_on_c, 13, 50, 0
15, 17400, Note_on_c, 13, 62, 76
15, 17519, Note_on_c, 13, 62, 0
15, 17520, Note_on_c, 13, 61, 76
15, 17639, Note_on_c, 13, 61, 0
15, 17640, Note_on_c, 13, 62, 76
15, 17744, Note_on_c, 13, 62, 0
15, 17760, Note_on_c, 13, 62, 76
15, 17879, Note_on_c, 13, 62, 0
15, 17880, Note_on_c, 13, 61, 76
15, 17999, Note_on_c, 13, 61, 0
15, 18000, Note_on_c, 13, 62, 76
15, 18104, Note_on_c, 13, 62, 0
15, 18120, Note_on_c, 13, 62, 76
15, 18239, Note_on_c, 13, 62, 0
15, 18240, Note_on_c, 13, 61, 76
15, 18359, Note_on_c, 13, 61, 0
15, 18360, Note_on_c, 13, 62, 76
15, 18464, Note_on_c, 13, 62, 0
15, 18480, Note_on_c, 13, 50, 76
15, 18704, Note_on_c, 13, 50, 0
15, 18720, Note_on_c, 13, 52, 76
15, 18824, Note_on_c, 13, 52, 0
15, 18840, Note_on_c, 13, 54, 76
15, 19064, Note_on_c, 13, 54, 0
15, 19080, Note_on_c, 13, 55, 76
15, 19184, Note_on_c, 13, 55, 0
15, 19200, Note_on_c, 13, 57, 76
15, 19424, Note_on_c, 13, 57, 0
15, 19440, Note_on_c, 13, 45, 76
15, 19544, Note_on_c, 13, 45, 0
15, 19560, Note_on_c, 13, 50, 76
15, 20144, Note_on_c, 13, 50, 0
15, 20160, Note_on_c, 13, 49, 76
15, 20264, Note_on_c, 13, 49, 0
15, 20280, Note_on_c, 13, 47, 76
15, 20399, Note_on_c, 13, 47, 0
15, 20400, Note_on_c, 13, 45, 76
15, 20519, Note_on_c, 13, 45, 0
15, 20520, Note_on_c, 13, 47, 76
15, 20624, Note_on_c, 13, 47, 0
15, 20640, Note_on_c, 13, 45, 76
15, 20759, Note_on_c, 13, 45, 0
15, 20760, Note_on_c, 13, 44, 76
15, 20879, Note_on_c, 13, 44, 0
15, 20880, Note_on_c, 13, 45, 76
15, 20984, Note_on_c, 13, 45, 0
15, 21000, Note_on_c, 13, 44, 76
15, 21119, Note_on_c, 13, 44, 0
15, 21120, Note_on_c, 13, 42, 76
15, 21239, Note_on_c, 13, 42, 0
15, 21240, Note_on_c, 13, 44, 76
15, 21344, Note_on_c, 13, 44, 0
15, 21360, Note_on_c, 13, 40, 76
15, 21479, Note_on_c, 13, 40, 0
15, 21480, Note_on_c, 13, 42, 76
15, 21599, Note_on_c, 13, 42, 0
15, 21600, Note_on_c, 13, 44, 76
15, 21704, Note_on_c, 13, 44, 0
15, 21720, Note_on_c, 13, 45, 76
15, 21944, Note_on_c, 13, 45, 0
15, 21960, Note_on_c, 13, 54, 76
15, 22064, Note_on_c, 13, 54, 0
15, 22080, Note_on_c, 13, 50, 76
15, 22304, Note_on_c, 13, 50, 0
15, 22320, Note_on_c, 13, 52, 76
15, 22424, Note_on_c, 13, 52, 0
15, 22440, Note_on_c, 13, 45, 76
15, 23024, Note_on_c, 13, 45, 0
15, 23040, Note_on_c, 13, 43, 76
15, 23144, Note_on_c, 13, 43, 0
15, 23160, Note_on_c, 13, 42, 76
15, 23384, Note_on_c, 13, 42, 0
15, 23400, Note_on_c, 13, 55, 76
15, 23504, Note_on_c, 13, 55, 0
15, 23520, Note_on_c, 13, 54, 76
15, 23744, Note_on_c, 13, 54, 0
15, 23760, Note_on_c, 13, 52, 76
15, 23864, Note_on_c, 13, 52, 0
15, 23880, Note_on_c, 13, 51, 76
15, 24104, Note_on_c, 13, 51, 0
15, 24120, Note_on_c, 13, 54, 76
15, 24224, Note_on_c, 13, 54, 0
15, 24240, Note_on_c, 13, 51, 76
15, 24464, Note_on_c, 13, 51, 0
15, 24480, Note_on_c, 13, 47, 76
15, 24584, Note_on_c, 13, 47, 0
15, 24600, Note_on_c, 13, 52, 76
15, 24824, Note_on_c, 13, 52, 0
15, 24840, Note_on_c, 13, 54, 76
15, 24944, Note_on_c, 13, 54, 0
15, 24960, Note_on_c, 13, 52, 76
15, 25184, Note_on_c, 13, 52, 0
15, 25200, Note_on_c, 13, 50, 76
15, 25304, Note_on_c, 13, 50, 0
15, 25320, Note_on_c, 13, 49, 76
15, 25544, Note_on_c, 13, 49, 0
15, 25560, Note_on_c, 13, 52, 76
15, 25664, Note_on_c, 13, 52, 0
15, 25680, Note_on_c, 13, 49, 76
15, 25904, Note_on_c, 13, 49, 0
15, 25920, Note_on_c, 13, 45, 76
15, 26024, Note_on_c, 13, 45, 0
15, 26040, Note_on_c, 13, 50, 76
15, 26264, Note_on_c, 13, 50, 0
15, 26280, Note_on_c, 13, 62, 76
15, 26384, Note_on_c, 13, 62, 0
15, 26400, Note_on_c, 13, 61, 76
15, 26624, Note_on_c, 13, 61, 0
15, 26640, Note_on_c, 13, 49, 76
15, 26744, Note_on_c, 13, 49, 0
15, 26760, Note_on_c, 13, 47, 76
15, 26984, Note_on_c, 13, 47, 0
15, 27000, Note_on_c, 13, 59, 76
15, 27104, Note_on_c, 13, 59, 0
15, 27120, Note_on_c, 13, 57, 76
15, 27344, Note_on_c, 13, 57, 0
15, 27360, Note_on_c, 13, 45, 76
15, 27464, Note_on_c, 13, 45, 0
15, 27480, Note_on_c, 13, 44, 76
15, 27704, Note_on_c, 13, 44, 0
15, 27720, Note_on_c, 13, 56, 76
15, 27824, Note_on_c, 13, 56, 0
15, 27840, Note_on_c, 13, 54, 76
15, 28064, Note_on_c, 13, 54, 0
15, 28080, Note_on_c, 13, 42, 76
15, 28184, Note_on_c, 13, 42, 0
15, 28200, Note_on_c, 13, 40, 76
15, 28424, Note_on_c, 13, 40, 0
15, 28440, Note_on_c, 13, 52, 76
15, 28544, Note_on_c, 13, 52, 0
15, 28560, Note_on_c, 13, 50, 76
15, 28679, Note_on_c, 13, 50, 0
15, 28680, Note_on_c, 13, 49, 76
15, 28799, Note_on_c, 13, 49, 0
15, 28800, Note_on_c, 13, 47, 76
15, 28904, Note_on_c, 13, 47, 0
15, 28920, Note_on_c, 13, 49, 76
15, 29024, Note_on_c, 13, 49, 0
15, 29040, Note_on_c, 13, 47, 76
15, 29144, Note_on_c, 13, 47, 0
15, 29160, Note_on_c, 13, 45, 76
15, 29264, Note_on_c, 13, 45, 0
15, 29280, Note_on_c, 13, 52, 76
15, 29744, Note_on_c, 13, 52, 0
15, 29760, Note_on_c, 13, 54, 76
15, 29864, Note_on_c, 13, 54, 0
15, 29880, Note_on_c, 13, 52, 76
15, 29984, Note_on_c, 13, 52, 0
15, 30000, Note_on_c, 13, 51, 76
15, 30119, Note_on_c, 13, 51, 0
15, 30120, Note_on_c, 13, 47, 76
15, 30224, Note_on_c, 13, 47, 0
15, 30240, Note_on_c, 13, 49, 76
15, 30344, Note_on_c, 13, 49, 0
15, 30360, Note_on_c, 13, 50, 76
15, 30479, Note_on_c, 13, 50, 0
15, 30480, Note_on_c, 13, 52, 76
15, 30584, Note_on_c, 13, 52, 0
15, 30600, Note_on_c, 13, 50, 76
15, 30704, Note_on_c, 13, 50, 0
15, 30720, Note_on_c, 13, 49, 76
15, 30839, Note_on_c, 13, 49, 0
15, 30840, Note_on_c, 13, 45, 76
15, 30944, Note_on_c, 13, 45, 0
15, 30960, Note_on_c, 13, 47, 76
15, 31064, Note_on_c, 13, 47, 0
15, 31080, Note_on_c, 13, 48, 76
15, 31199, Note_on_c, 13, 48, 0
15, 31200, Note_on_c, 13, 50, 76
15, 31304, Note_on_c, 13, 50, 0
15, 31320, Note_on_c, 13, 48, 76
15, 31424, Note_on_c, 13, 48, 0
15, 31440, Note_on_c, 13, 47, 76
15, 31559, Note_on_c, 13, 47, 0
15, 31560, Note_on_c, 13, 44, 76
15, 31664, Note_on_c, 13, 44, 0
15, 31680, Note_on_c, 13, 45, 76
15, 31784, Note_on_c, 13, 45, 0
15, 31800, Note_on_c, 13, 44, 76
15, 31919, Note_on_c, 13, 44, 0
15, 31920, Note_on_c, 13, 45, 76
15, 32024, Note_on_c, 13, 45, 0
15, 32040, Note_on_c, 13, 47, 76
15, 32144, Note_on_c, 13, 47, 0
15, 32160, Note_on_c, 13, 40, 76
15, 32744, Note_on_c, 13, 40, 0
15, 32760, Note_on_c, 13, 52, 76
15, 32864, Note_on_c, 13, 52, 0
15, 32880, Note_on_c, 13, 54, 76
15, 33104, Note_on_c, 13, 54, 0
15, 33120, Note_on_c, 13, 56, 76
15, 33224, Note_on_c, 13, 56, 0
15, 33240, Note_on_c, 13, 57, 76
15, 33464, Note_on_c, 13, 57, 0
15, 33480, Note_on_c, 13, 49, 76
15, 33584, Note_on_c, 13, 49, 0
15, 33600, Note_on_c, 13, 52, 76
15, 33824, Note_on_c, 13, 52, 0
15, 33840, Note_on_c, 13, 40, 76
15, 33944, Note_on_c, 13, 40, 0
15, 33960, Note_on_c, 13, 45, 76
15, 34544, Note_on_c, 13, 45, 0
15, 34560, Note_on_c, 13, 45, 76
15, 34664, Note_on_c, 13, 45, 0
15, 34680, Note_on_c, 13, 57, 76
15, 34799, Note_on_c, 13, 57, 0
15, 34800, Note_on_c, 13, 56, 76
15, 34919, Note_on_c, 13, 56, 0
15, 34920, Note_on_c, 13, 57, 76
15, 35024, Note_on_c, 13, 57, 0
15, 35040, Note_on_c, 13, 57, 76
15, 35159, Note_on_c, 13, 57, 0
15, 35160, Note_on_c, 13, 56, 76
15, 35279, Note_on_c, 13, 56, 0
15, 35280, Note_on_c, 13, 57, 76
15, 35384, Note_on_c, 13, 57, 0
15, 35400, Note_on_c, 13, 57, 76
15, 35519, Note_on_c, 13, 57, 0
15, 35520, Note_on_c, 13, 56, 76
15, 35639, Note_on_c, 13, 56, 0
15, 35640, Note_on_c, 13, 57, 76
15, 35744, Note_on_c, 13, 57, 0
15, 35760, Note_on_c, 13, 49, 76
15, 35984, Note_on_c, 13, 49, 0
15, 36000, Note_on_c, 13, 45, 76
15, 36104, Note_on_c, 13, 45, 0
15, 36120, Note_on_c, 13, 50, 76
15, 36344, Note_on_c, 13, 50, 0
15, 36360, Note_on_c, 13, 47, 76
15, 36464, Note_on_c, 13, 47, 0
15, 36480, Note_on_c, 13, 52, 76
15, 36704, Note_on_c, 13, 52, 0
15, 36720, Note_on_c, 13, 55, 76
15, 36824, Note_on_c, 13, 55, 0
15, 36840, Note_on_c, 13, 54, 76
15, 37064, Note_on_c, 13, 54, 0
15, 37080, Note_on_c, 13, 52, 76
15, 37184, Note_on_c, 13, 52, 0
15, 37200, Note_on_c, 13, 50, 76
15, 37424, Note_on_c, 13, 50, 0
15, 37440, Note_on_c, 13, 49, 76
15, 37544, Note_on_c, 13, 49, 0
15, 37560, Note_on_c, 13, 47, 76
15, 37679, Note_on_c, 13, 47, 0
15, 37680, Note_on_c, 13, 46, 76
15, 37799, Note_on_c, 13, 46, 0
15, 37800, Note_on_c, 13, 47, 76
15, 37904, Note_on_c, 13, 47, 0
15, 37920, Note_on_c, 13, 47, 76
15, 38039, Note_on_c, 13, 47, 0
15, 38040, Note_on_c, 13, 46, 76
15, 38159, Note_on_c, 13, 46, 0
15, 38160, Note_on_c, 13, 47, 76
15, 38264, Note_on_c, 13, 47, 0
15, 38280, Note_on_c, 13, 47, 76
15, 38399, Note_on_c, 13, 47, 0
15, 38400, Note_on_c, 13, 49, 76
15, 38519, Note_on_c, 13, 49, 0
15, 38520, Note_on_c, 13, 50, 76
15, 38624, Note_on_c, 13, 50, 0
15, 38640, Note_on_c, 13, 50, 76
15, 38759, Note_on_c, 13, 50, 0
15, 38760, Note_on_c, 13, 49, 76
15, 38879, Note_on_c, 13, 49, 0
15, 38880, Note_on_c, 13, 47, 76
15, 38984, Note_on_c, 13, 47, 0
15, 39000, Note_on_c, 13, 52, 76
15, 39119, Note_on_c, 13, 52, 0
15, 39120, Note_on_c, 13, 54, 76
15, 39239, Note_on_c, 13, 54, 0
15, 39240, Note_on_c, 13, 55, 76
15, 39344, Note_on_c, 13, 55, 0
15, 39360, Note_on_c, 13, 54, 76
15, 39479, Note_on_c, 13, 54, 0
15, 39480, Note_on_c, 13, 52, 76
15, 39599, Note_on_c, 13, 52, 0
15, 39600, Note_on_c, 13, 54, 76
15, 39704, Note_on_c, 13, 54, 0
15, 39720, Note_on_c, 13, 47, 76
15, 39839, Note_on_c, 13, 47, 0
15, 39840, Note_on_c, 13, 50, 76
15, 39959, Note_on_c, 13, 50, 0
15, 39960, Note_on_c, 13, 54, 76
15, 40064, Note_on_c, 13, 54, 0
15, 40080, Note_on_c, 13, 59, 76
15, 40304, Note_on_c, 13, 59, 0
15, 40320, Note_on_c, 13, 57, 76
15, 40424, Note_on_c, 13, 57, 0
15, 40440, Note_on_c, 13, 56, 76
15, 40664, Note_on_c, 13, 56, 0
15, 40680, Note_on_c, 13, 59, 76
15, 40784, Note_on_c, 13, 59, 0
15, 40800, Note_on_c, 13, 59, 76
15, 41024, Note_on_c, 13, 59, 0
15, 41040, Note_on_c, 13, 56, 76
15, 41144, Note_on_c, 13, 56, 0
15, 41160, Note_on_c, 13, 52, 76
15, 41384, Note_on_c, 13, 52, 0
15, 41400, Note_on_c, 13, 56, 76
15, 41504, Note_on_c, 13, 56, 0
15, 41520, Note_on_c, 13, 56, 76
15, 41744, Note_on_c, 13, 56, 0
15, 41760, Note_on_c, 13, 52, 76
15, 41864, Note_on_c, 13, 52, 0
15, 41880, Note_on_c, 13, 49, 76
15, 42104, Note_on_c, 13, 49, 0
15, 42120, Note_on_c, 13, 54, 76
15, 42224, Note_on_c, 13, 54, 0
15, 42240, Note_on_c, 13, 50, 76
15, 42464, Note_on_c, 13, 50, 0
15, 42480, Note_on_c, 13, 52, 76
15, 42584, Note_on_c, 13, 52, 0
15, 42600, Note_on_c, 13, 45, 76
15, 42824, Note_on_c, 13, 45, 0
15, 42840, Note_on_c, 13, 57, 76
15, 42944, Note_on_c, 13, 57, 0
15, 42960, Note_on_c, 13, 57, 76
15, 43184, Note_on_c, 13, 57, 0
15, 43200, Note_on_c, 13, 52, 76
15, 43304, Note_on_c, 13, 52, 0
15, 43320, Note_on_c, 13, 49, 76
15, 43544, Note_on_c, 13, 49, 0
15, 43560, Note_on_c, 13, 52, 76
15, 43664, Note_on_c, 13, 52, 0
15, 43680, Note_on_c, 13, 52, 76
15, 43904, Note_on_c, 13, 52, 0
15, 43920, Note_on_c, 13, 49, 76
15, 44024, Note_on_c, 13, 49, 0
15, 44040, Note_on_c, 13, 45, 76
15, 44264, Note_on_c, 13, 45, 0
15, 44280, Note_on_c, 13, 49, 76
15, 44384, Note_on_c, 13, 49, 0
15, 44400, Note_on_c, 13, 49, 76
15, 44624, Note_on_c, 13, 49, 0
15, 44640, Note_on_c, 13, 45, 76
15, 44744, Note_on_c, 13, 45, 0
15, 44760, Note_on_c, 13, 42, 76
15, 44984, Note_on_c, 13, 42, 0
15, 45000, Note_on_c, 13, 47, 76
15, 45104, Note_on_c, 13, 47, 0
15, 45120, Note_on_c, 13, 43, 76
15, 45344, Note_on_c, 13, 43, 0
15, 45360, Note_on_c, 13, 45, 76
15, 45464, Note_on_c, 13, 45, 0
15, 45480, Note_on_c, 13, 38, 76
15, 45704, Note_on_c, 13, 38, 0
15, 45720, Note_on_c, 13, 50, 76
15, 45824, Note_on_c, 13, 50, 0
15, 45840, Note_on_c, 13, 54, 76
15, 46064, Note_on_c, 13, 54, 0
15, 46080, Note_on_c, 13, 57, 76
15, 46184, Note_on_c, 13, 57, 0
15, 46200, Note_on_c, 13, 62, 76
15, 46424, Note_on_c, 13, 62, 0
15, 46440, Note_on_c, 13, 61, 76
15, 46544, Note_on_c, 13, 61, 0
15, 46560, Note_on_c, 13, 59, 76
15, 47024, Note_on_c, 13, 59, 0
15, 47040, Note_on_c, 13, 56, 76
15, 47144, Note_on_c, 13, 56, 0
15, 47160, Note_on_c, 13, 53, 76
15, 47264, Note_on_c, 13, 53, 0
15, 47280, Note_on_c, 13, 49, 76
15, 47384, Note_on_c, 13, 49, 0
15, 47400, Note_on_c, 13, 53, 76
15, 47504, Note_on_c, 13, 53, 0
15, 47520, Note_on_c, 13, 49, 76
15, 47624, Note_on_c, 13, 49, 0
15, 47640, Note_on_c, 13, 54, 76
15, 47864, Note_on_c, 13, 54, 0
15, 47880, Note_on_c, 13, 42, 76
15, 47984, Note_on_c, 13, 42, 0
15, 48000, Note_on_c, 13, 54, 76
15, 48224, Note_on_c, 13, 54, 0
15, 48240, Note_on_c, 13, 52, 76
15, 48344, Note_on_c, 13, 52, 0
15, 48360, Note_on_c, 13, 50, 76
15, 48479, Note_on_c, 13, 50, 0
15, 48480, Note_on_c, 13, 47, 76
15, 48599, Note_on_c, 13, 47, 0
15, 48600, Note_on_c, 13, 50, 76
15, 48704, Note_on_c, 13, 50, 0
15, 48720, Note_on_c, 13, 54, 76
15, 48839, Note_on_c, 13, 54, 0
15, 48840, Note_on_c, 13, 50, 76
15, 48959, Note_on_c, 13, 50, 0
15, 48960, Note_on_c, 13, 54, 76
15, 49064, Note_on_c, 13, 54, 0
15, 49080, Note_on_c, 13, 59, 76
15, 49304, Note_on_c, 13, 59, 0
15, 49320, Note_on_c, 13, 61, 76
15, 49424, Note_on_c, 13, 61, 0
15, 49440, Note_on_c, 13, 62, 76
15, 49664, Note_on_c, 13, 62, 0
15, 49680, Note_on_c, 13, 56, 76
15, 49784, Note_on_c, 13, 56, 0
15, 49800, Note_on_c, 13, 57, 76
15, 50024, Note_on_c, 13, 57, 0
15, 50040, Note_on_c, 13, 54, 76
15, 50144, Note_on_c, 13, 54, 0
15, 50160, Note_on_c, 13, 59, 76
15, 50384, Note_on_c, 13, 59, 0
15, 50400, Note_on_c, 13, 53, 76
15, 50504, Note_on_c, 13, 53, 0
15, 50520, Note_on_c, 13, 54, 76
15, 50744, Note_on_c, 13, 54, 0
15, 50760, Note_on_c, 13, 47, 76
15, 50864, Note_on_c, 13, 47, 0
15, 50880, Note_on_c, 13, 49, 76
15, 51104, Note_on_c, 13, 49, 0
15, 51120, Note_on_c, 13, 37, 76
15, 51224, Note_on_c, 13, 37, 0
15, 51240, Note_on_c, 13, 42, 76
15, 51359, Note_on_c, 13, 42, 0
15, 51360, Note_on_c, 13, 45, 76
15, 51479, Note_on_c, 13, 45, 0
15, 51480, Note_on_c, 13, 49, 76
15, 51584, Note_on_c, 13, 49, 0
15, 51600, Note_on_c, 13, 54, 76
15, 51719, Note_on_c, 13, 54, 0
15, 51720, Note_on_c, 13, 52, 76
15, 51839, Note_on_c, 13, 52, 0
15, 51840, Note_on_c, 13, 54, 76
15, 51944, Note_on_c, 13, 54, 0
15, 51960, Note_on_c, 13, 50, 76
15, 52079, Note_on_c, 13, 50, 0
15, 52080, Note_on_c, 13, 49, 76
15, 52199, Note_on_c, 13, 49, 0
15, 52200, Note_on_c, 13, 50, 76
15, 52304, Note_on_c, 13, 50, 0
15, 52320, Note_on_c, 13, 50, 76
15, 52439, Note_on_c, 13, 50, 0
15, 52440, Note_on_c, 13, 49, 76
15, 52559, Note_on_c, 13, 49, 0
15, 52560, Note_on_c, 13, 50, 76
15, 52664, Note_on_c, 13, 50, 0
15, 52680, Note_on_c, 13, 50, 76
15, 52799, Note_on_c, 13, 50, 0
15, 52800, Note_on_c, 13, 54, 76
15, 52919, Note_on_c, 13, 54, 0
15, 52920, Note_on_c, 13, 57, 76
15, 53024, Note_on_c, 13, 57, 0
15, 53040, Note_on_c, 13, 62, 76
15, 53264, Note_on_c, 13, 62, 0
15, 53280, Note_on_c, 13, 54, 76
15, 53384, Note_on_c, 13, 54, 0
15, 53400, Note_on_c, 13, 55, 76
15, 53624, Note_on_c, 13, 55, 0
15, 53640, Note_on_c, 13, 52, 76
15, 53744, Note_on_c, 13, 52, 0
15, 53760, Note_on_c, 13, 48, 76
15, 53984, Note_on_c, 13, 48, 0
15, 54000, Note_on_c, 13, 50, 76
15, 54104, Note_on_c, 13, 50, 0
15, 54120, Note_on_c, 13, 43, 76
15, 54584, Note_on_c, 13, 43, 0
15, 54600, Note_on_c, 13, 47, 76
15, 54704, Note_on_c, 13, 47, 0
15, 54720, Note_on_c, 13, 50, 76
15, 54824, Note_on_c, 13, 50, 0
15, 54840, Note_on_c, 13, 55, 76
15, 55064, Note_on_c, 13, 55, 0
15, 55080, Note_on_c, 13, 52, 76
15, 55184, Note_on_c, 13, 52, 0
15, 55200, Note_on_c, 13, 57, 76
15, 55784, Note_on_c, 13, 57, 0
15, 55800, Note_on_c, 13, 40, 76
15, 55904, Note_on_c, 13, 40, 0
15, 55920, Note_on_c, 13, 42, 76
15, 56039, Note_on_c, 13, 42, 0
15, 56040, Note_on_c, 13, 45, 76
15, 56144, Note_on_c, 13, 45, 0
15, 56160, Note_on_c, 13, 48, 76
15, 56264, Note_on_c, 13, 48, 0
15, 56280, Note_on_c, 13, 54, 76
15, 56504, Note_on_c, 13, 54, 0
15, 56520, Note_on_c, 13, 51, 76
15, 56624, Note_on_c, 13, 51, 0
15, 56640, Note_on_c, 13, 55, 76
15, 57224, Note_on_c, 13, 55, 0
15, 57240, Note_on_c, 13, 39, 76
15, 57344, Note_on_c, 13, 39, 0
15, 57360, Note_on_c, 13, 40, 76
15, 57479, Note_on_c, 13, 40, 0
15, 57480, Note_on_c, 13, 43, 76
15, 57584, Note_on_c, 13, 43, 0
15, 57600, Note_on_c, 13, 47, 76
15, 57704, Note_on_c, 13, 47, 0
15, 57720, Note_on_c, 13, 52, 76
15, 57944, Note_on_c, 13, 52, 0
15, 57960, Note_on_c, 13, 49, 76
15, 58064, Note_on_c, 13, 49, 0
15, 58080, Note_on_c, 13, 54, 76
15, 58664, Note_on_c, 13, 54, 0
15, 58680, Note_on_c, 13, 37, 76
15, 58784, Note_on_c, 13, 37, 0
15, 58800, Note_on_c, 13, 38, 76
15, 59024, Note_on_c, 13, 38, 0
15, 59040, Note_on_c, 13, 42, 76
15, 59144, Note_on_c, 13, 42, 0
15, 59160, Note_on_c, 13, 43, 76
15, 59384, Note_on_c, 13, 43, 0
15, 59400, Note_on_c, 13, 47, 76
15, 59504, Note_on_c, 13, 47, 0
15, 59520, Note_on_c, 13, 44, 76
15, 59744, Note_on_c, 13, 44, 0
15, 59760, Note_on_c, 13, 40, 76
15, 59864, Note_on_c, 13, 40, 0
15, 59880, Note_on_c, 13, 45, 76
15, 60104, Note_on_c, 13, 45, 0
15, 60120, Note_on_c, 13, 49, 76
15, 60224, Note_on_c, 13, 49, 0
15, 60240, Note_on_c, 13, 46, 76
15, 60464, Note_on_c, 13, 46, 0
15, 60480, Note_on_c, 13, 42, 76
15, 60584, Note_on_c, 13, 42, 0
15, 60600, Note_on_c, 13, 47, 76
15, 60824, Note_on_c, 13, 47, 0
15, 60840, Note_on_c, 13, 45, 76
15, 60944, Note_on_c, 13, 45, 0
15, 60960, Note_on_c, 13, 47, 76
15, 61184, Note_on_c, 13, 47, 0
15, 61200, Note_on_c, 13, 43, 76
15, 61304, Note_on_c, 13, 43, 0
15, 61320, Note_on_c, 13, 49, 76
15, 61544, Note_on_c, 13, 49, 0
15, 61560, Note_on_c, 13, 47, 76
15, 61664, Note_on_c, 13, 47, 0
15, 61680, Note_on_c, 13, 49, 76
15, 61904, Note_on_c, 13, 49, 0
15, 61920, Note_on_c, 13, 45, 76
15, 62024, Note_on_c, 13, 45, 0
15, 62040, Note_on_c, 13, 50, 76
15, 62144, Note_on_c, 13, 50, 0
15, 62160, Note_on_c, 13, 52, 76
15, 62264, Note_on_c, 13, 52, 0
15, 62280, Note_on_c, 13, 54, 76
15, 62384, Note_on_c, 13, 54, 0
15, 62400, Note_on_c, 13, 55, 76
15, 62984, Note_on_c, 13, 55, 0
15, 63000, Note_on_c, 13, 54, 76
15, 63104, Note_on_c, 13, 54, 0
15, 63120, Note_on_c, 13, 55, 76
15, 63344, Note_on_c, 13, 55, 0
15, 63360, Note_on_c, 13, 57, 76
15, 63464, Note_on_c, 13, 57, 0
15, 63480, Note_on_c, 13, 59, 76
15, 63584, Note_on_c, 13, 59, 0
15, 63600, Note_on_c, 13, 57, 76
15, 63704, Note_on_c, 13, 57, 0
15, 63720, Note_on_c, 13, 55, 76
15, 63824, Note_on_c, 13, 55, 0
15, 63840, Note_on_c, 13, 54, 76
15, 63944, Note_on_c, 13, 54, 0
15, 63960, Note_on_c, 13, 55, 76
15, 64064, Note_on_c, 13, 55, 0
15, 64080, Note_on_c, 13, 52, 76
15, 64184, Note_on_c, 13, 52, 0
15, 64200, Note_on_c, 13, 51, 76
15, 64424, Note_on_c, 13, 51, 0
15, 64440, Note_on_c, 13, 59, 76
15, 64544, Note_on_c, 13, 59, 0
15, 64560, Note_on_c, 13, 50, 76
15, 64784, Note_on_c, 13, 50, 0
15, 64800, Note_on_c, 13, 59, 76
15, 64904, Note_on_c, 13, 59, 0
15, 64920, Note_on_c, 13, 49, 76
15, 65144, Note_on_c, 13, 49, 0
15, 65160, Note_on_c, 13, 57, 76
15, 65264, Note_on_c, 13, 57, 0
15, 65280, Note_on_c, 13, 48, 76
15, 65504, Note_on_c, 13, 48, 0
15, 65520, Note_on_c, 13, 57, 76
15, 65624, Note_on_c, 13, 57, 0
15, 65640, Note_on_c, 13, 47, 76
15, 65864, Note_on_c, 13, 47, 0
15, 65880, Note_on_c, 13, 55, 76
15, 65984, Note_on_c, 13, 55, 0
15, 66000, Note_on_c, 13, 46, 76
15, 66224, Note_on_c, 13, 46, 0
15, 66240, Note_on_c, 13, 55, 76
15, 66344, Note_on_c, 13, 55, 0
15, 66360, Note_on_c, 13, 45, 76
15, 66824, Note_on_c, 13, 45, 0
15, 66840, Note_on_c, 13, 49, 76
15, 66944, Note_on_c, 13, 49, 0
15, 66960, Note_on_c, 13, 52, 76
15, 67064, Note_on_c, 13, 52, 0
15, 67080, Note_on_c, 13, 55, 76
15, 67199, Note_on_c, 13, 55, 0
15, 67200, Note_on_c, 13, 61, 76
15, 67319, Note_on_c, 13, 61, 0
15, 67320, Note_on_c, 13, 64, 76
15, 67424, Note_on_c, 13, 64, 0
15, 67440, Note_on_c, 13, 55, 76
15, 67559, Note_on_c, 13, 55, 0
15, 67560, Note_on_c, 13, 54, 76
15, 67679, Note_on_c, 13, 54, 0
15, 67680, Note_on_c, 13, 52, 76
15, 67784, Note_on_c, 13, 52, 0
15, 67800, Note_on_c, 13, 54, 76
15, 67919, Note_on_c, 13, 54, 0
15, 67920, Note_on_c, 13, 52, 76
15, 68039, Note_on_c, 13, 52, 0
15, 68040, Note_on_c, 13, 50, 76
15, 68144, Note_on_c, 13, 50, 0
15, 68160, Note_on_c, 13, 57, 76
15, 68384, Note_on_c, 13, 57, 0
15, 68400, Note_on_c, 13, 45, 76
15, 68504, Note_on_c, 13, 45, 0
15, 68520, Note_on_c, 13, 50, 76
15, 69104, Note_on_c, 13, 50, 0
15, 69120, Note_on_c, 13, 45, 76
15, 69224, Note_on_c, 13, 45, 0
15, 69240, Note_on_c, 13, 57, 76
15, 69359, Note_on_c, 13, 57, 0
15, 69360, Note_on_c, 13, 56, 76
15, 69479, Note_on_c, 13, 56, 0
15, 69480, Note_on_c, 13, 57, 76
15, 69584, Note_on_c, 13, 57, 0
15, 69600, Note_on_c, 13, 57, 76
15, 69719, Note_on_c, 13, 57, 0
15, 69720, Note_on_c, 13, 56, 76
15, 69839, Note_on_c, 13, 56, 0
15, 69840, Note_on_c, 13, 57, 76
15, 69944, Note_on_c, 13, 57, 0
15, 69960, Note_on_c, 13, 57, 76
15, 70079, Note_on_c, 13, 57, 0
15, 70080, Note_on_c, 13, 56, 76
15, 70199, Note_on_c, 13, 56, 0
15, 70200, Note_on_c, 13, 57, 76
15, 70304, Note_on_c, 13, 57, 0
15, 70320, Note_on_c, 13, 49, 76
15, 70544, Note_on_c, 13, 49, 0
15, 70560, Note_on_c, 13, 45, 76
15, 70664, Note_on_c, 13, 45, 0
15, 70680, Note_on_c, 13, 50, 76
15, 70904, Note_on_c, 13, 50, 0
15, 70920, Note_on_c, 13, 47, 76
15, 71024, Note_on_c, 13, 47, 0
15, 71040, Note_on_c, 13, 52, 76
15, 71264, Note_on_c, 13, 52, 0
15, 71280, Note_on_c, 13, 55, 76
15, 71384, Note_on_c, 13, 55, 0
15, 71400, Note_on_c, 13, 54, 76
15, 71624, Note_on_c, 13, 54, 0
15, 71640, Note_on_c, 13, 52, 76
15, 71744, Note_on_c, 13, 52, 0
15, 71760, Note_on_c, 13, 50, 76
15, 71984, Note_on_c, 13, 50, 0
15, 72000, Note_on_c, 13, 49, 76
15, 72104, Note_on_c, 13, 49, 0
15, 72120, Note_on_c, 13, 47, 76
15, 72239, Note_on_c, 13, 47, 0
15, 72240, Note_on_c, 13, 46, 76
15, 72359, Note_on_c, 13, 46, 0
15, 72360, Note_on_c, 13, 47, 76
15, 72464, Note_on_c, 13, 47, 0
15, 72480, Note_on_c, 13, 47, 76
15, 72599, Note_on_c, 13, 47, 0
15, 72600, Note_on_c, 13, 46, 76
15, 72719, Note_on_c, 13, 46, 0
15, 72720, Note_on_c, 13, 47, 76
15, 72824, Note_on_c, 13, 47, 0
15, 72840, Note_on_c, 13, 47, 76
15, 72959, Note_on_c, 13, 47, 0
15, 72960, Note_on_c, 13, 49, 76
15, 73079, Note_on_c, 13, 49, 0
15, 73080, Note_on_c, 13, 50, 76
15, 73184, Note_on_c, 13, 50, 0
15, 73200, Note_on_c, 13, 50, 76
15, 73319, Note_on_c, 13, 50, 0
15, 73320, Note_on_c, 13, 49, 76
15, 73439, Note_on_c, 13, 49, 0
15, 73440, Note_on_c, 13, 47, 76
15, 73544, Note_on_c, 13, 47, 0
15, 73560, Note_on_c, 13, 52, 76
15, 73679, Note_on_c, 13, 52, 0
15, 73680, Note_on_c, 13, 54, 76
15, 73799, Note_on_c, 13, 54, 0
15, 73800, Note_on_c, 13, 55, 76
15, 73904, Note_on_c, 13, 55, 0
15, 73920, Note_on_c, 13, 54, 76
15, 74039, Note_on_c, 13, 54, 0
15, 74040, Note_on_c, 13, 52, 76
15, 74159, Note_on_c, 13, 52, 0
15, 74160, Note_on_c, 13, 54, 76
15, 74264, Note_on_c, 13, 54, 0
15, 74280, Note_on_c, 13, 47, 76
15, 74399, Note_on_c, 13, 47, 0
15, 74400, Note_on_c, 13, 50, 76
15, 74519, Note_on_c, 13, 50, 0
15, 74520, Note_on_c, 13, 54, 76
15, 74624, Note_on_c, 13, 54, 0
15, 74640, Note_on_c, 13, 59, 76
15, 74864, Note_on_c, 13, 59, 0
15, 74880, Note_on_c, 13, 57, 76
15, 74984, Note_on_c, 13, 57, 0
15, 75000, Note_on_c, 13, 56, 76
15, 75224, Note_on_c, 13, 56, 0
15, 75240, Note_on_c, 13, 59, 76
15, 75344, Note_on_c, 13, 59, 0
15, 75360, Note_on_c, 13, 59, 76
15, 75584, Note_on_c, 13, 59, 0
15, 75600, Note_on_c, 13, 56, 76
15, 75704, Note_on_c, 13, 56, 0
15, 75720, Note_on_c, 13, 52, 76
15, 75944, Note_on_c, 13, 52, 0
15, 75960, Note_on_c, 13, 56, 76
15, 76064, Note_on_c, 13, 56, 0
15, 76080, Note_on_c, 13, 56, 76
15, 76304, Note_on_c, 13, 56, 0
15, 76320, Note_on_c, 13, 52, 76
15, 76424, Note_on_c, 13, 52, 0
15, 76440, Note_on_c, 13, 49, 76
15, 76664, Note_on_c, 13, 49, 0
15, 76680, Note_on_c, 13, 54, 76
15, 76784, Note_on_c, 13, 54, 0
15, 76800, Note_on_c, 13, 50, 76
15, 77024, Note_on_c, 13, 50, 0
15, 77040, Note_on_c, 13, 52, 76
15, 77144, Note_on_c, 13, 52, 0
15, 77160, Note_on_c, 13, 45, 76
15, 77384, Note_on_c, 13, 45, 0
15, 77400, Note_on_c, 13, 57, 76
15, 77504, Note_on_c, 13, 57, 0
15, 77520, Note_on_c, 13, 57, 76
15, 77744, Note_on_c, 13, 57, 0
15, 77760, Note_on_c, 13, 52, 76
15, 77864, Note_on_c, 13, 52, 0
15, 77880, Note_on_c, 13, 49, 76
15, 78104, Note_on_c, 13, 49, 0
15, 78120, Note_on_c, 13, 52, 76
15, 78224, Note_on_c, 13, 52, 0
15, 78240, Note_on_c, 13, 52, 76
15, 78464, Note_on_c, 13, 52, 0
15, 78480, Note_on_c, 13, 49, 76
15, 78584, Note_on_c, 13, 49, 0
15, 78600, Note_on_c, 13, 45, 76
15, 78824, Note_on_c, 13, 45, 0
15, 78840, Note_on_c, 13, 49, 76
15, 78944, Note_on_c, 13, 49, 0
15, 78960, Note_on_c, 13, 49, 76
15, 79184, Note_on_c, 13, 49, 0
15, 79200, Note_on_c, 13, 45, 76
15, 79304, Note_on_c, 13, 45, 0
15, 79320, Note_on_c, 13, 42, 76
15, 79544, Note_on_c, 13, 42, 0
15, 79560, Note_on_c, 13, 47, 76
15, 79664, Note_on_c, 13, 47, 0
15, 79680, Note_on_c, 13, 43, 76
15, 79904, Note_on_c, 13, 43, 0
15, 79920, Note_on_c, 13, 45, 76
15, 80024, Note_on_c, 13, 45, 0
15, 80040, Note_on_c, 13, 38, 76
15, 80264, Note_on_c, 13, 38, 0
15, 80280, Note_on_c, 13, 50, 76
15, 80384, Note_on_c, 13, 50, 0
15, 80400, Note_on_c, 13, 54, 76
15, 80624, Note_on_c, 13, 54, 0
15, 80640, Note_on_c, 13, 57, 76
15, 80744, Note_on_c, 13, 57, 0
15, 80760, Note_on_c, 13, 62, 76
15, 80984, Note_on_c, 13, 62, 0
15, 81000, Note_on_c, 13, 61, 76
15, 81104, Note_on_c, 13, 61, 0
15, 81120, Note_on_c, 13, 59, 76
15, 81584, Note_on_c, 13, 59, 0
15, 81600, Note_on_c, 13, 56, 76
15, 81704, Note_on_c, 13, 56, 0
15, 81720, Note_on_c, 13, 53, 76
15, 81824, Note_on_c, 13, 53, 0
15, 81840, Note_on_c, 13, 49, 76
15, 81944, Note_on_c, 13, 49, 0
15, 81960, Note_on_c, 13, 53, 76
15, 82064, Note_on_c, 13, 53, 0
15, 82080, Note_on_c, 13, 49, 76
15, 82184, Note_on_c, 13, 49, 0
15, 82200, Note_on_c, 13, 54, 76
15, 82424, Note_on_c, 13, 54, 0
15, 82440, Note_on_c, 13, 42, 76
15, 82544, Note_on_c, 13, 42, 0
15, 82560, Note_on_c, 13, 54, 76
15, 82784, Note_on_c, 13, 54, 0
15, 82800, Note_on_c, 13, 52, 76
15, 82904, Note_on_c, 13, 52, 0
15, 82920, Note_on_c, 13, 50, 76
15, 83039, Note_on_c, 13, 50, 0
15, 83040, Note_on_c, 13, 47, 76
15, 83159, Note_on_c, 13, 47, 0
15, 83160, Note_on_c, 13, 50, 76
15, 83264, Note_on_c, 13, 50, 0
15, 83280, Note_on_c, 13, 54, 76
15, 83399, Note_on_c, 13, 54, 0
15, 83400, Note_on_c, 13, 50, 76
15, 83519, Note_on_c, 13, 50, 0
15, 83520, Note_on_c, 13, 54, 76
15, 83624, Note_on_c, 13, 54, 0
15, 83640, Note_on_c, 13, 59, 76
15, 83864, Note_on_c, 13, 59, 0
15, 83880, Note_on_c, 13, 61, 76
15, 83984, Note_on_c, 13, 61, 0
15, 84000, Note_on_c, 13, 62, 76
15, 84224, Note_on_c, 13, 62, 0
15, 84240, Note_on_c, 13, 56, 76
15, 84344, Note_on_c, 13, 56, 0
15, 84360, Note_on_c, 13, 57, 76
15, 84584, Note_on_c, 13, 57, 0
15, 84600, Note_on_c, 13, 54, 76
15, 84704, Note_on_c, 13, 54, 0
15, 84720, Note_on_c, 13, 59, 76
15, 84944, Note_on_c, 13, 59, 0
15, 84960, Note_on_c, 13, 53, 76
15, 85064, Note_on_c, 13, 53, 0
15, 85080, Note_on_c, 13, 54, 76
15, 85304, Note_on_c, 13, 54, 0
15, 85320, Note_on_c, 13, 47, 76
15, 85424, Note_on_c, 13, 47, 0
15, 85440, Note_on_c, 13, 49, 76
15, 85664, Note_on_c, 13, 49, 0
15, 85680, Note_on_c, 13, 37, 76
15, 85784, Note_on_c, 13, 37, 0
15, 85800, Note_on_c, 13, 42, 76
15, 85919, Note_on_c, 13, 42, 0
15, 85920, Note_on_c, 13, 45, 76
15, 86039, Note_on_c, 13, 45, 0
15, 86040, Note_on_c, 13, 49, 76
15, 86144, Note_on_c, 13, 49, 0
15, 86160, Note_on_c, 13, 54, 76
15, 86279, Note_on_c, 13, 54, 0
15, 86280, Note_on_c, 13, 52, 76
15, 86399, Note_on_c, 13, 52, 0
15, 86400, Note_on_c, 13, 54, 76
15, 86504, Note_on_c, 13, 54, 0
15, 86520, Note_on_c, 13, 50, 76
15, 86639, Note_on_c, 13, 50, 0
15, 86640, Note_on_c, 13, 49, 76
15, 86759, Note_on_c, 13, 49, 0
15, 86760, Note_on_c, 13, 50, 76
15, 86864, Note_on_c, 13, 50, 0
15, 86880, Note_on_c, 13, 50, 76
15, 86999, Note_on_c, 13, 50, 0
15, 87000, Note_on_c, 13, 49, 76
15, 87119, Note_on_c, 13, 49, 0
15, 87120, Note_on_c, 13, 50, 76
15, 87224, Note_on_c, 13, 50, 0
15, 87240, Note_on_c, 13, 50, 76
15, 87359, Note_on_c, 13, 50, 0
15, 87360, Note_on_c, 13, 54, 76
15, 87479, Note_on_c, 13, 54, 0
15, 87480, Note_on_c, 13, 57, 76
15, 87584, Note_on_c, 13, 57, 0
15, 87600, Note_on_c, 13, 62, 76
15, 87824, Note_on_c, 13, 62, 0
15, 87840, Note_on_c, 13, 54, 76
15, 87944, Note_on_c, 13, 54, 0
15, 87960, Note_on_c, 13, 55, 76
15, 88184, Note_on_c, 13, 55, 0
15, 88200, Note_on_c, 13, 52, 76
15, 88304, Note_on_c, 13, 52, 0
15, 88320, Note_on_c, 13, 48, 76
15, 88544, Note_on_c, 13, 48, 0
15, 88560, Note_on_c, 13, 50, 76
15, 88664, Note_on_c, 13, 50, 0
15, 88680, Note_on_c, 13, 43, 76
15, 89144, Note_on_c, 13, 43, 0
15, 89160, Note_on_c, 13, 47, 76
15, 89264, Note_on_c, 13, 47, 0
15, 89280, Note_on_c, 13, 50, 76
15, 89384, Note_on_c, 13, 50, 0
15, 89400, Note_on_c, 13, 55, 76
15, 89624, Note_on_c, 13, 55, 0
15, 89640, Note_on_c, 13, 52, 76
15, 89744, Note_on_c, 13, 52, 0
15, 89760, Note_on_c, 13, 57, 76
15, 90344, Note_on_c, 13, 57, 0
15, 90360, Note_on_c, 13, 40, 76
15, 90464, Note_on_c, 13, 40, 0
15, 90480, Note_on_c, 13, 42, 76
15, 90599, Note_on_c, 13, 42, 0
15, 90600, Note_on_c, 13, 45, 76
15, 90704, Note_on_c, 13, 45, 0
15, 90720, Note_on_c, 13, 48, 76
15, 90824, Note_on_c, 13, 48, 0
15, 90840, Note_on_c, 13, 54, 76
15, 91064, Note_on_c, 13, 54, 0
15, 91080, Note_on_c, 13, 51, 76
15, 91184, Note_on_c, 13, 51, 0
15, 91200, Note_on_c, 13, 55, 76
15, 91784, Note_on_c, 13, 55, 0
15, 91800, Note_on_c, 13, 39, 76
15, 91904, Note_on_c, 13, 39, 0
15, 91920, Note_on_c, 13, 40, 76
15, 92039, Note_on_c, 13, 40, 0
15, 92040, Note_on_c, 13, 43, 76
15, 92144, Note_on_c, 13, 43, 0
15, 92160, Note_on_c, 13, 47, 76
15, 92264, Note_on_c, 13, 47, 0
15, 92280, Note_on_c, 13, 52, 76
15, 92504, Note_on_c, 13, 52, 0
15, 92520, Note_on_c, 13, 49, 76
15, 92624, Note_on_c, 13, 49, 0
15, 92640, Note_on_c, 13, 54, 76
15, 93224, Note_on_c, 13, 54, 0
15, 93240, Note_on_c, 13, 37, 76
15, 93344, Note_on_c, 13, 37, 0
15, 93360, Note_on_c, 13, 38, 76
15, 93584, Note_on_c, 13, 38, 0
15, 93600, Note_on_c, 13, 42, 76
15, 93704, Note_on_c, 13, 42, 0
15, 93720, Note_on_c, 13, 43, 76
15, 93944, Note_on_c, 13, 43, 0
15, 93960, Note_on_c, 13, 47, 76
15, 94064, Note_on_c, 13, 47, 0
15, 94080, Note_on_c, 13, 44, 76
15, 94304, Note_on_c, 13, 44, 0
15, 94320, Note_on_c, 13, 40, 76
15, 94424, Note_on_c, 13, 40, 0
15, 94440, Note_on_c, 13, 45, 76
15, 94664, Note_on_c, 13, 45, 0
15, 94680, Note_on_c, 13, 49, 76
15, 94784, Note_on_c, 13, 49, 0
15, 94800, Note_on_c, 13, 46, 76
15, 95024, Note_on_c, 13, 46, 0
15, 95040, Note_on_c, 13, 42, 76
15, 95144, Note_on_c, 13, 42, 0
15, 95160, Note_on_c, 13, 47, 76
15, 95384, Note_on_c, 13, 47, 0
15, 95400, Note_on_c, 13, 45, 76
15, 95504, Note_on_c, 13, 45, 0
15, 95520, Note_on_c, 13, 47, 76
15, 95744, Note_on_c, 13, 47, 0
15, 95760, Note_on_c, 13, 43, 76
15, 95864, Note_on_c, 13, 43, 0
15, 95880, Note_on_c, 13, 49, 76
15, 96104, Note_on_c, 13, 49, 0
15, 96120, Note_on_c, 13, 47, 76
15, 96224, Note_on_c, 13, 47, 0
15, 96240, Note_on_c, 13, 49, 76
15, 96464, Note_on_c, 13, 49, 0
15, 96480, Note_on_c, 13, 45, 76
15, 96584, Note_on_c, 13, 45, 0
15, 96600, Note_on_c, 13, 50, 76
15, 96704, Note_on_c, 13, 50, 0
15, 96720, Note_on_c, 13, 52, 76
15, 96824, Note_on_c, 13, 52, 0
15, 96840, Note_on_c, 13, 54, 76
15, 96944, Note_on_c, 13, 54, 0
15, 96960, Note_on_c, 13, 55, 76
15, 97544, Note_on_c, 13, 55, 0
15, 97560, Note_on_c, 13, 54, 76
15, 97664, Note_on_c, 13, 54, 0
15, 97680, Note_on_c, 13, 55, 76
15, 97904, Note_on_c, 13, 55, 0
15, 97920, Note_on_c, 13, 57, 76
15, 98024, Note_on_c, 13, 57, 0
15, 98040, Note_on_c, 13, 59, 76
15, 98144, Note_on_c, 13, 59, 0
15, 98160, Note_on_c, 13, 57, 76
15, 98264, Note_on_c, 13, 57, 0
15, 98280, Note_on_c, 13, 55, 76
15, 98384, Note_on_c, 13, 55, 0
15, 98400, Note_on_c, 13, 54, 76
15, 98504, Note_on_c, 13, 54, 0
15, 98520, Note_on_c, 13, 55, 76
15, 98624, Note_on_c, 13, 55, 0
15, 98640, Note_on_c, 13, 52, 76
15, 98744, Note_on_c, 13, 52, 0
15, 98760, Note_on_c, 13, 51, 76
15, 98984, Note_on_c, 13, 51, 0
15, 99000, Note_on_c, 13, 59, 76
15, 99104, Note_on_c, 13, 59, 0
15, 99120, Note_on_c, 13, 50, 76
15, 99344, Note_on_c, 13, 50, 0
15, 99360, Note_on_c, 13, 59, 76
15, 99464, Note_on_c, 13, 59, 0
15, 99480, Note_on_c, 13, 49, 76
15, 99704, Note_on_c, 13, 49, 0
15, 99720, Note_on_c, 13, 57, 76
15, 99824, Note_on_c, 13, 57, 0
15, 99840, Note_on_c, 13, 48, 76
15, 100064, Note_on_c, 13, 48, 0
15, 100080, Note_on_c, 13, 57, 76
15, 100184, Note_on_c, 13, 57, 0
15, 100200, Note_on_c, 13, 47, 76
15, 100424, Note_on_c, 13, 47, 0
15, 100440, Note_on_c, 13, 55, 76
15, 100544, Note_on_c, 13, 55, 0
15, 100560, Note_on_c, 13, 46, 76
15, 100784, Note_on_c, 13, 46, 0
15, 100800, Note_on_c, 13, 55, 76
15, 100904, Note_on_c, 13, 55, 0
15, 100920, Note_on_c, 13, 45, 76
15, 101384, Note_on_c, 13, 45, 0
15, 101400, Note_on_c, 13, 49, 76
15, 101504, Note_on_c, 13, 49, 0
15, 101520, Note_on_c, 13, 52, 76
15, 101624, Note_on_c, 13, 52, 0
15, 101640, Note_on_c, 13, 55, 76
15, 101759, Note_on_c, 13, 55, 0
15, 101760, Note_on_c, 13, 61, 76
15, 101879, Note_on_c, 13, 61, 0
15, 101880, Note_on_c, 13, 64, 76
15, 101984, Note_on_c, 13, 64, 0
15, 102000, Note_on_c, 13, 55, 76
15, 102119, Note_on_c, 13, 55, 0
15, 102120, Note_on_c, 13, 54, 76
15, 102239, Note_on_c, 13, 54, 0
15, 102240, Note_on_c, 13, 52, 76
15, 102344, Note_on_c, 13, 52, 0
15, 102360, Note_on_c, 13, 54, 76
15, 102479, Note_on_c, 13, 54, 0
15, 102480, Note_on_c, 13, 52, 76
15, 102599, Note_on_c, 13, 52, 0
15, 102600, Note_on_c, 13, 50, 76
15, 102704, Note_on_c, 13, 50, 0
15, 102720, Note_on_c, 13, 57, 76
15, 102944, Note_on_c, 13, 57, 0
15, 102960, Note_on_c, 13, 45, 76
15, 103064, Note_on_c, 13, 45, 0
15, 103080, Note_on_c, 13, 50, 76
15, 103679, Note_on_c, 13, 50, 0
15, 103679, End_track
16, 0, Start_track
16, 0, Title_t, "Harpsichord "
16, 0, MIDI_port, 0
16, 0, Control_c, 14, 10, 64
16, 0, Control_c, 14, 11, 127
16, 0, Control_c, 14, 7, 72
16, 0, Program_c, 14, 6
16, 0, Note_on_c, 14, 50, 76
16, 104, Note_on_c, 14, 50, 0
16, 120, Note_on_c, 14, 62, 76
16, 239, Note_on_c, 14, 62, 0
16, 240, Note_on_c, 14, 61, 76
16, 359, Note_on_c, 14, 61, 0
16, 360, Note_on_c, 14, 62, 76
16, 464, Note_on_c, 14, 62, 0
16, 480, Note_on_c, 14, 62, 76
16, 599, Note_on_c, 14, 62, 0
16, 600, Note_on_c, 14, 61, 76
16, 719, Note_on_c, 14, 61, 0
16, 720, Note_on_c, 14, 62, 76
16, 824, Note_on_c, 14, 62, 0
16, 840, Note_on_c, 14, 62, 76
16, 959, Note_on_c, 14, 62, 0
16, 960, Note_on_c, 14, 61, 76
16, 1079, Note_on_c, 14, 61, 0
16, 1080, Note_on_c, 14, 62, 76
16, 1184, Note_on_c, 14, 62, 0
16, 1200, Note_on_c, 14, 50, 76
16, 1424, Note_on_c, 14, 50, 0
16, 1440, Note_on_c, 14, 52, 76
16, 1544, Note_on_c, 14, 52, 0
16, 1560, Note_on_c, 14, 54, 76
16, 1784, Note_on_c, 14, 54, 0
16, 1800, Note_on_c, 14, 55, 76
16, 1904, Note_on_c, 14, 55, 0
16, 1920, Note_on_c, 14, 57, 76
16, 2144, Note_on_c, 14, 57, 0
16, 2160, Note_on_c, 14, 45, 76
16, 2264, Note_on_c, 14, 45, 0
16, 2280, Note_on_c, 14, 50, 76
16, 2864, Note_on_c, 14, 50, 0
16, 2880, Note_on_c, 14, 49, 76
16, 2984, Note_on_c, 14, 49, 0
16, 3000, Note_on_c, 14, 47, 76
16, 3119, Note_on_c, 14, 47, 0
16, 3120, Note_on_c, 14, 45, 76
16, 3239, Note_on_c, 14, 45, 0
16, 3240, Note_on_c, 14, 47, 76
16, 3344, Note_on_c, 14, 47, 0
16, 3360, Note_on_c, 14, 45, 76
16, 3479, Note_on_c, 14, 45, 0
16, 3480, Note_on_c, 14, 44, 76
16, 3599, Note_on_c, 14, 44, 0
16, 3600, Note_on_c, 14, 45, 76
16, 3704, Note_on_c, 14, 45, 0
16, 3720, Note_on_c, 14, 44, 76
16, 3839, Note_on_c, 14, 44, 0
16, 3840, Note_on_c, 14, 42, 76
16, 3959, Note_on_c, 14, 42, 0
16, 3960, Note_on_c, 14, 44, 76
16, 4064, Note_on_c, 14, 44, 0
16, 4080, Note_on_c, 14, 40, 76
16, 4199, Note_on_c, 14, 40, 0
16, 4200, Note_on_c, 14, 42, 76
16, 4319, Note_on_c, 14, 42, 0
16, 4320, Note_on_c, 14, 44, 76
16, 4424, Note_on_c, 14, 44, 0
16, 4440, Note_on_c, 14, 45, 76
16, 4664, Note_on_c, 14, 45, 0
16, 4680, Note_on_c, 14, 54, 76
16, 4784, Note_on_c, 14, 54, 0
16, 4800, Note_on_c, 14, 50, 76
16, 5024, Note_on_c, 14, 50, 0
16, 5040, Note_on_c, 14, 52, 76
16, 5144, Note_on_c, 14, 52, 0
16, 5160, Note_on_c, 14, 45, 76
16, 5744, Note_on_c, 14, 45, 0
16, 5760, Note_on_c, 14, 43, 76
16, 5864, Note_on_c, 14, 43, 0
16, 5880, Note_on_c, 14, 42, 76
16, 6104, Note_on_c, 14, 42, 0
16, 6120, Note_on_c, 14, 55, 76
16, 6224, Note_on_c, 14, 55, 0
16, 6240, Note_on_c, 14, 54, 76
16, 6464, Note_on_c, 14, 54, 0
16, 6480, Note_on_c, 14, 52, 76
16, 6584, Note_on_c, 14, 52, 0
16, 6600, Note_on_c, 14, 51, 76
16, 6824, Note_on_c, 14, 51, 0
16, 6840, Note_on_c, 14, 54, 76
16, 6944, Note_on_c, 14, 54, 0
16, 6960, Note_on_c, 14, 51, 76
16, 7184, Note_on_c, 14, 51, 0
16, 7200, Note_on_c, 14, 47, 76
16, 7304, Note_on_c, 14, 47, 0
16, 7320, Note_on_c, 14, 52, 76
16, 7544, Note_on_c, 14, 52, 0
16, 7560, Note_on_c, 14, 54, 76
16, 7664, Note_on_c, 14, 54, 0
16, 7680, Note_on_c, 14, 52, 76
16, 7904, Note_on_c, 14, 52, 0
16, 7920, Note_on_c, 14, 50, 76
16, 8024, Note_on_c, 14, 50, 0
16, 8040, Note_on_c, 14, 49, 76
16, 8264, Note_on_c, 14, 49, 0
16, 8280, Note_on_c, 14, 52, 76
16, 8384, Note_on_c, 14, 52, 0
16, 8400, Note_on_c, 14, 49, 76
16, 8624, Note_on_c, 14, 49, 0
16, 8640, Note_on_c, 14, 45, 76
16, 8744, Note_on_c, 14, 45, 0
16, 8760, Note_on_c, 14, 50, 76
16, 8984, Note_on_c, 14, 50, 0
16, 9000, Note_on_c, 14, 62, 76
16, 9104, Note_on_c, 14, 62, 0
16, 9120, Note_on_c, 14, 61, 76
16, 9344, Note_on_c, 14, 61, 0
16, 9360, Note_on_c, 14, 49, 76
16, 9464, Note_on_c, 14, 49, 0
16, 9480, Note_on_c, 14, 47, 76
16, 9704, Note_on_c, 14, 47, 0
16, 9720, Note_on_c, 14, 59, 76
16, 9824, Note_on_c, 14, 59, 0
16, 9840, Note_on_c, 14, 57, 76
16, 10064, Note_on_c, 14, 57, 0
16, 10080, Note_on_c, 14, 45, 76
16, 10184, Note_on_c, 14, 45, 0
16, 10200, Note_on_c, 14, 44, 76
16, 10424, Note_on_c, 14, 44, 0
16, 10440, Note_on_c, 14, 56, 76
16, 10544, Note_on_c, 14, 56, 0
16, 10560, Note_on_c, 14, 54, 76
16, 10784, Note_on_c, 14, 54, 0
16, 10800, Note_on_c, 14, 42, 76
16, 10904, Note_on_c, 14, 42, 0
16, 10920, Note_on_c, 14, 40, 76
16, 11144, Note_on_c, 14, 40, 0
16, 11160, Note_on_c, 14, 52, 76
16, 11264, Note_on_c, 14, 52, 0
16, 11280, Note_on_c, 14, 50, 76
16, 11399, Note_on_c, 14, 50, 0
16, 11400, Note_on_c, 14, 49, 76
16, 11519, Note_on_c, 14, 49, 0
16, 11520, Note_on_c, 14, 47, 76
16, 11624, Note_on_c, 14, 47, 0
16, 11640, Note_on_c, 14, 49, 76
16, 11744, Note_on_c, 14, 49, 0
16, 11760, Note_on_c, 14, 47, 76
16, 11864, Note_on_c, 14, 47, 0
16, 11880, Note_on_c, 14, 45, 76
16, 11984, Note_on_c, 14, 45, 0
16, 12000, Note_on_c, 14, 52, 76
16, 12464, Note_on_c, 14, 52, 0
16, 12480, Note_on_c, 14, 54, 76
16, 12584, Note_on_c, 14, 54, 0
16, 12600, Note_on_c, 14, 52, 76
16, 12704, Note_on_c, 14, 52, 0
16, 12720, Note_on_c, 14, 51, 76
16, 12839, Note_on_c, 14, 51, 0
16, 12840, Note_on_c, 14, 47, 76
16, 12944, Note_on_c, 14, 47, 0
16, 12960, Note_on_c, 14, 49, 76
16, 13064, Note_on_c, 14, 49, 0
16, 13080, Note_on_c, 14, 50, 76
16, 13199, Note_on_c, 14, 50, 0
16, 13200, Note_on_c, 14, 52, 76
16, 13304, Note_on_c, 14, 52, 0
16, 13320, Note_on_c, 14, 50, 76
16, 13424, Note_on_c, 14, 50, 0
16, 13440, Note_on_c, 14, 49, 76
16, 13559, Note_on_c, 14, 49, 0
16, 13560, Note_on_c, 14, 45, 76
16, 13664, Note_on_c, 14, 45, 0
16, 13680, Note_on_c, 14, 47, 76
16, 13784, Note_on_c, 14, 47, 0
16, 13800, Note_on_c, 14, 48, 76
16, 13919, Note_on_c, 14, 48, 0
16, 13920, Note_on_c, 14, 50, 76
16, 14024, Note_on_c, 14, 50, 0
16, 14040, Note_on_c, 14, 48, 76
16, 14144, Note_on_c, 14, 48, 0
16, 14160, Note_on_c, 14, 47, 76
16, 14279, Note_on_c, 14, 47, 0
16, 14280, Note_on_c, 14, 44, 76
16, 14384, Note_on_c, 14, 44, 0
16, 14400, Note_on_c, 14, 45, 76
16, 14504, Note_on_c, 14, 45, 0
16, 14520, Note_on_c, 14, 44, 76
16, 14639, Note_on_c, 14, 44, 0
16, 14640, Note_on_c, 14, 45, 76
16, 14744, Note_on_c, 14, 45, 0
16, 14760, Note_on_c, 14, 47, 76
16, 14864, Note_on_c, 14, 47, 0
16, 14880, Note_on_c, 14, 40, 76
16, 15464, Note_on_c, 14, 40, 0
16, 15480, Note_on_c, 14, 52, 76
16, 15584, Note_on_c, 14, 52, 0
16, 15600, Note_on_c, 14, 54, 76
16, 15824, Note_on_c, 14, 54, 0
16, 15840, Note_on_c, 14, 56, 76
16, 15944, Note_on_c, 14, 56, 0
16, 15960, Note_on_c, 14, 57, 76
16, 16184, Note_on_c, 14, 57, 0
16, 16200, Note_on_c, 14, 49, 76
16, 16304, Note_on_c, 14, 49, 0
16, 16320, Note_on_c, 14, 52, 76
16, 16544, Note_on_c, 14, 52, 0
16, 16560, Note_on_c, 14, 40, 76
16, 16664, Note_on_c, 14, 40, 0
16, 16680, Note_on_c, 14, 45, 76
16, 17264, Note_on_c, 14, 45, 0
16, 17280, Note_on_c, 14, 50, 76
16, 17384, Note_on_c, 14, 50, 0
16, 17400, Note_on_c, 14, 62, 76
16, 17519, Note_on_c, 14, 62, 0
16, 17520, Note_on_c, 14, 61, 76
16, 17639, Note_on_c, 14, 61, 0
16, 17640, Note_on_c, 14, 62, 76
16, 17744, Note_on_c, 14, 62, 0
16, 17760, Note_on_c, 14, 62, 76
16, 17879, Note_on_c, 14, 62, 0
16, 17880, Note_on_c, 14, 61, 76
16, 17999, Note_on_c, 14, 61, 0
16, 18000, Note_on_c, 14, 62, 76
16, 18104, Note_on_c, 14, 62, 0
16, 18120, Note_on_c, 14, 62, 76
16, 18239, Note_on_c, 14, 62, 0
16, 18240, Note_on_c, 14, 61, 76
16, 18359, Note_on_c, 14, 61, 0
16, 18360, Note_on_c, 14, 62, 76
16, 18464, Note_on_c, 14, 62, 0
16, 18480, Note_on_c, 14, 50, 76
16, 18704, Note_on_c, 14, 50, 0
16, 18720, Note_on_c, 14, 52, 76
16, 18824, Note_on_c, 14, 52, 0
16, 18840, Note_on_c, 14, 54, 76
16, 19064, Note_on_c, 14, 54, 0
16, 19080, Note_on_c, 14, 55, 76
16, 19184, Note_on_c, 14, 55, 0
16, 19200, Note_on_c, 14, 57, 76
16, 19424, Note_on_c, 14, 57, 0
16, 19440, Note_on_c, 14, 45, 76
16, 19544, Note_on_c, 14, 45, 0
16, 19560, Note_on_c, 14, 50, 76
16, 20144, Note_on_c, 14, 50, 0
16, 20160, Note_on_c, 14, 49, 76
16, 20264, Note_on_c, 14, 49, 0
16, 20280, Note_on_c, 14, 47, 76
16, 20399, Note_on_c, 14, 47, 0
16, 20400, Note_on_c, 14, 45, 76
16, 20519, Note_on_c, 14, 45, 0
16, 20520, Note_on_c, 14, 47, 76
16, 20624, Note_on_c, 14, 47, 0
16, 20640, Note_on_c, 14, 45, 76
16, 20759, Note_on_c, 14, 45, 0
16, 20760, Note_on_c, 14, 44, 76
16, 20879, Note_on_c, 14, 44, 0
16, 20880, Note_on_c, 14, 45, 76
16, 20984, Note_on_c, 14, 45, 0
16, 21000, Note_on_c, 14, 44, 76
16, 21119, Note_on_c, 14, 44, 0
16, 21120, Note_on_c, 14, 42, 76
16, 21239, Note_on_c, 14, 42, 0
16, 21240, Note_on_c, 14, 44, 76
16, 21344, Note_on_c, 14, 44, 0
16, 21360, Note_on_c, 14, 40, 76
16, 21479, Note_on_c, 14, 40, 0
16, 21480, Note_on_c, 14, 42, 76
16, 21599, Note_on_c, 14, 42, 0
16, 21600, Note_on_c, 14, 44, 76
16, 21704, Note_on_c, 14, 44, 0
16, 21720, Note_on_c, 14, 45, 76
16, 21944, Note_on_c, 14, 45, 0
16, 21960, Note_on_c, 14, 54, 76
16, 22064, Note_on_c, 14, 54, 0
16, 22080, Note_on_c, 14, 50, 76
16, 22304, Note_on_c, 14, 50, 0
16, 22320, Note_on_c, 14, 52, 76
16, 22424, Note_on_c, 14, 52, 0
16, 22440, Note_on_c, 14, 45, 76
16, 23024, Note_on_c, 14, 45, 0
16, 23040, Note_on_c, 14, 43, 76
16, 23144, Note_on_c, 14, 43, 0
16, 23160, Note_on_c, 14, 42, 76
16, 23384, Note_on_c, 14, 42, 0
16, 23400, Note_on_c, 14, 55, 76
16, 23504, Note_on_c, 14, 55, 0
16, 23520, Note_on_c, 14, 54, 76
16, 23744, Note_on_c, 14, 54, 0
16, 23760, Note_on_c, 14, 52, 76
16, 23864, Note_on_c, 14, 52, 0
16, 23880, Note_on_c, 14, 51, 76
16, 24104, Note_on_c, 14, 51, 0
16, 24120, Note_on_c, 14, 54, 76
16, 24224, Note_on_c, 14, 54, 0
16, 24240, Note_on_c, 14, 51, 76
16, 24464, Note_on_c, 14, 51, 0
16, 24480, Note_on_c, 14, 47, 76
16, 24584, Note_on_c, 14, 47, 0
16, 24600, Note_on_c, 14, 52, 76
16, 24824, Note_on_c, 14, 52, 0
16, 24840, Note_on_c, 14, 54, 76
16, 24944, Note_on_c, 14, 54, 0
16, 24960, Note_on_c, 14, 52, 76
16, 25184, Note_on_c, 14, 52, 0
16, 25200, Note_on_c, 14, 50, 76
16, 25304, Note_on_c, 14, 50, 0
16, 25320, Note_on_c, 14, 49, 76
16, 25544, Note_on_c, 14, 49, 0
16, 25560, Note_on_c, 14, 52, 76
16, 25664, Note_on_c, 14, 52, 0
16, 25680, Note_on_c, 14, 49, 76
16, 25904, Note_on_c, 14, 49, 0
16, 25920, Note_on_c, 14, 45, 76
16, 26024, Note_on_c, 14, 45, 0
16, 26040, Note_on_c, 14, 50, 76
16, 26264, Note_on_c, 14, 50, 0
16, 26280, Note_on_c, 14, 62, 76
16, 26384, Note_on_c, 14, 62, 0
16, 26400, Note_on_c, 14, 61, 76
16, 26624, Note_on_c, 14, 61, 0
16, 26640, Note_on_c, 14, 49, 76
16, 26744, Note_on_c, 14, 49, 0
16, 26760, Note_on_c, 14, 47, 76
16, 26984, Note_on_c, 14, 47, 0
16, 27000, Note_on_c, 14, 59, 76
16, 27104, Note_on_c, 14, 59, 0
16, 27120, Note_on_c, 14, 57, 76
16, 27344, Note_on_c, 14, 57, 0
16, 27360, Note_on_c, 14, 45, 76
16, 27464, Note_on_c, 14, 45, 0
16, 27480, Note_on_c, 14, 44, 76
16, 27704, Note_on_c, 14, 44, 0
16, 27720, Note_on_c, 14, 56, 76
16, 27824, Note_on_c, 14, 56, 0
16, 27840, Note_on_c, 14, 54, 76
16, 28064, Note_on_c, 14, 54, 0
16, 28080, Note_on_c, 14, 42, 76
16, 28184, Note_on_c, 14, 42, 0
16, 28200, Note_on_c, 14, 40, 76
16, 28424, Note_on_c, 14, 40, 0
16, 28440, Note_on_c, 14, 52, 76
16, 28544, Note_on_c, 14, 52, 0
16, 28560, Note_on_c, 14, 50, 76
16, 28679, Note_on_c, 14, 50, 0
16, 28680, Note_on_c, 14, 49, 76
16, 28799, Note_on_c, 14, 49, 0
16, 28800, Note_on_c, 14, 47, 76
16, 28904, Note_on_c, 14, 47, 0
16, 28920, Note_on_c, 14, 49, 76
16, 29024, Note_on_c, 14, 49, 0
16, 29040, Note_on_c, 14, 47, 76
16, 29144, Note_on_c, 14, 47, 0
16, 29160, Note_on_c, 14, 45, 76
16, 29264, Note_on_c, 14, 45, 0
16, 29280, Note_on_c, 14, 52, 76
16, 29744, Note_on_c, 14, 52, 0
16, 29760, Note_on_c, 14, 54, 76
16, 29864, Note_on_c, 14, 54, 0
16, 29880, Note_on_c, 14, 52, 76
16, 29984, Note_on_c, 14, 52, 0
16, 30000, Note_on_c, 14, 51, 76
16, 30119, Note_on_c, 14, 51, 0
16, 30120, Note_on_c, 14, 47, 76
16, 30224, Note_on_c, 14, 47, 0
16, 30240, Note_on_c, 14, 49, 76
16, 30344, Note_on_c, 14, 49, 0
16, 30360, Note_on_c, 14, 50, 76
16, 30479, Note_on_c, 14, 50, 0
16, 30480, Note_on_c, 14, 52, 76
16, 30584, Note_on_c, 14, 52, 0
16, 30600, Note_on_c, 14, 50, 76
16, 30704, Note_on_c, 14, 50, 0
16, 30720, Note_on_c, 14, 49, 76
16, 30839, Note_on_c, 14, 49, 0
16, 30840, Note_on_c, 14, 45, 76
16, 30944, Note_on_c, 14, 45, 0
16, 30960, Note_on_c, 14, 47, 76
16, 31064, Note_on_c, 14, 47, 0
16, 31080, Note_on_c, 14, 48, 76
16, 31199, Note_on_c, 14, 48, 0
16, 31200, Note_on_c, 14, 50, 76
16, 31304, Note_on_c, 14, 50, 0
16, 31320, Note_on_c, 14, 48, 76
16, 31424, Note_on_c, 14, 48, 0
16, 31440, Note_on_c, 14, 47, 76
16, 31559, Note_on_c, 14, 47, 0
16, 31560, Note_on_c, 14, 44, 76
16, 31664, Note_on_c, 14, 44, 0
16, 31680, Note_on_c, 14, 45, 76
16, 31784, Note_on_c, 14, 45, 0
16, 31800, Note_on_c, 14, 44, 76
16, 31919, Note_on_c, 14, 44, 0
16, 31920, Note_on_c, 14, 45, 76
16, 32024, Note_on_c, 14, 45, 0
16, 32040, Note_on_c, 14, 47, 76
16, 32144, Note_on_c, 14, 47, 0
16, 32160, Note_on_c, 14, 40, 76
16, 32744, Note_on_c, 14, 40, 0
16, 32760, Note_on_c, 14, 52, 76
16, 32864, Note_on_c, 14, 52, 0
16, 32880, Note_on_c, 14, 54, 76
16, 33104, Note_on_c, 14, 54, 0
16, 33120, Note_on_c, 14, 56, 76
16, 33224, Note_on_c, 14, 56, 0
16, 33240, Note_on_c, 14, 57, 76
16, 33464, Note_on_c, 14, 57, 0
16, 33480, Note_on_c, 14, 49, 76
16, 33584, Note_on_c, 14, 49, 0
16, 33600, Note_on_c, 14, 52, 76
16, 33824, Note_on_c, 14, 52, 0
16, 33840, Note_on_c, 14, 40, 76
16, 33944, Note_on_c, 14, 40, 0
16, 33960, Note_on_c, 14, 45, 76
16, 34544, Note_on_c, 14, 45, 0
16, 34560, Note_on_c, 14, 45, 76
16, 34664, Note_on_c, 14, 45, 0
16, 34680, Note_on_c, 14, 57, 76
16, 34799, Note_on_c, 14, 57, 0
16, 34800, Note_on_c, 14, 56, 76
16, 34919, Note_on_c, 14, 56, 0
16, 34920, Note_on_c, 14, 57, 76
16, 35024, Note_on_c, 14, 57, 0
16, 35040, Note_on_c, 14, 57, 76
16, 35159, Note_on_c, 14, 57, 0
16, 35160, Note_on_c, 14, 56, 76
16, 35279, Note_on_c, 14, 56, 0
16, 35280, Note_on_c, 14, 57, 76
16, 35384, Note_on_c, 14, 57, 0
16, 35400, Note_on_c, 14, 57, 76
16, 35519, Note_on_c, 14, 57, 0
16, 35520, Note_on_c, 14, 56, 76
16, 35639, Note_on_c, 14, 56, 0
16, 35640, Note_on_c, 14, 57, 76
16, 35744, Note_on_c, 14, 57, 0
16, 35760, Note_on_c, 14, 49, 76
16, 35984, Note_on_c, 14, 49, 0
16, 36000, Note_on_c, 14, 45, 76
16, 36104, Note_on_c, 14, 45, 0
16, 36120, Note_on_c, 14, 50, 76
16, 36344, Note_on_c, 14, 50, 0
16, 36360, Note_on_c, 14, 47, 76
16, 36464, Note_on_c, 14, 47, 0
16, 36480, Note_on_c, 14, 52, 76
16, 36704, Note_on_c, 14, 52, 0
16, 36720, Note_on_c, 14, 55, 76
16, 36824, Note_on_c, 14, 55, 0
16, 36840, Note_on_c, 14, 54, 76
16, 37064, Note_on_c, 14, 54, 0
16, 37080, Note_on_c, 14, 52, 76
16, 37184, Note_on_c, 14, 52, 0
16, 37200, Note_on_c, 14, 50, 76
16, 37424, Note_on_c, 14, 50, 0
16, 37440, Note_on_c, 14, 49, 76
16, 37544, Note_on_c, 14, 49, 0
16, 37560, Note_on_c, 14, 47, 76
16, 37679, Note_on_c, 14, 47, 0
16, 37680, Note_on_c, 14, 46, 76
16, 37799, Note_on_c, 14, 46, 0
16, 37800, Note_on_c, 14, 47, 76
16, 37904, Note_on_c, 14, 47, 0
16, 37920, Note_on_c, 14, 47, 76
16, 38039, Note_on_c, 14, 47, 0
16, 38040, Note_on_c, 14, 46, 76
16, 38159, Note_on_c, 14, 46, 0
16, 38160, Note_on_c, 14, 47, 76
16, 38264, Note_on_c, 14, 47, 0
16, 38280, Note_on_c, 14, 47, 76
16, 38399, Note_on_c, 14, 47, 0
16, 38400, Note_on_c, 14, 49, 76
16, 38519, Note_on_c, 14, 49, 0
16, 38520, Note_on_c, 14, 50, 76
16, 38624, Note_on_c, 14, 50, 0
16, 38640, Note_on_c, 14, 50, 76
16, 38759, Note_on_c, 14, 50, 0
16, 38760, Note_on_c, 14, 49, 76
16, 38879, Note_on_c, 14, 49, 0
16, 38880, Note_on_c, 14, 47, 76
16, 38984, Note_on_c, 14, 47, 0
16, 39000, Note_on_c, 14, 52, 76
16, 39119, Note_on_c, 14, 52, 0
16, 39120, Note_on_c, 14, 54, 76
16, 39239, Note_on_c, 14, 54, 0
16, 39240, Note_on_c, 14, 55, 76
16, 39344, Note_on_c, 14, 55, 0
16, 39360, Note_on_c, 14, 54, 76
16, 39479, Note_on_c, 14, 54, 0
16, 39480, Note_on_c, 14, 52, 76
16, 39599, Note_on_c, 14, 52, 0
16, 39600, Note_on_c, 14, 54, 76
16, 39704, Note_on_c, 14, 54, 0
16, 39720, Note_on_c, 14, 47, 76
16, 39839, Note_on_c, 14, 47, 0
16, 39840, Note_on_c, 14, 50, 76
16, 39959, Note_on_c, 14, 50, 0
16, 39960, Note_on_c, 14, 54, 76
16, 40064, Note_on_c, 14, 54, 0
16, 40080, Note_on_c, 14, 59, 76
16, 40304, Note_on_c, 14, 59, 0
16, 40320, Note_on_c, 14, 57, 76
16, 40424, Note_on_c, 14, 57, 0
16, 40440, Note_on_c, 14, 56, 76
16, 40664, Note_on_c, 14, 56, 0
16, 40680, Note_on_c, 14, 59, 76
16, 40784, Note_on_c, 14, 59, 0
16, 40800, Note_on_c, 14, 59, 76
16, 41024, Note_on_c, 14, 59, 0
16, 41040, Note_on_c, 14, 56, 76
16, 41144, Note_on_c, 14, 56, 0
16, 41160, Note_on_c, 14, 52, 76
16, 41384, Note_on_c, 14, 52, 0
16, 41400, Note_on_c, 14, 56, 76
16, 41504, Note_on_c, 14, 56, 0
16, 41520, Note_on_c, 14, 56, 76
16, 41744, Note_on_c, 14, 56, 0
16, 41760, Note_on_c, 14, 52, 76
16, 41864, Note_on_c, 14, 52, 0
16, 41880, Note_on_c, 14, 49, 76
16, 42104, Note_on_c, 14, 49, 0
16, 42120, Note_on_c, 14, 54, 76
16, 42224, Note_on_c, 14, 54, 0
16, 42240, Note_on_c, 14, 50, 76
16, 42464, Note_on_c, 14, 50, 0
16, 42480, Note_on_c, 14, 52, 76
16, 42584, Note_on_c, 14, 52, 0
16, 42600, Note_on_c, 14, 45, 76
16, 42824, Note_on_c, 14, 45, 0
16, 42840, Note_on_c, 14, 57, 76
16, 42944, Note_on_c, 14, 57, 0
16, 42960, Note_on_c, 14, 57, 76
16, 43184, Note_on_c, 14, 57, 0
16, 43200, Note_on_c, 14, 52, 76
16, 43304, Note_on_c, 14, 52, 0
16, 43320, Note_on_c, 14, 49, 76
16, 43544, Note_on_c, 14, 49, 0
16, 43560, Note_on_c, 14, 52, 76
16, 43664, Note_on_c, 14, 52, 0
16, 43680, Note_on_c, 14, 52, 76
16, 43904, Note_on_c, 14, 52, 0
16, 43920, Note_on_c, 14, 49, 76
16, 44024, Note_on_c, 14, 49, 0
16, 44040, Note_on_c, 14, 45, 76
16, 44264, Note_on_c, 14, 45, 0
16, 44280, Note_on_c, 14, 49, 76
16, 44384, Note_on_c, 14, 49, 0
16, 44400, Note_on_c, 14, 49, 76
16, 44624, Note_on_c, 14, 49, 0
16, 44640, Note_on_c, 14, 45, 76
16, 44744, Note_on_c, 14, 45, 0
16, 44760, Note_on_c, 14, 42, 76
16, 44984, Note_on_c, 14, 42, 0
16, 45000, Note_on_c, 14, 47, 76
16, 45104, Note_on_c, 14, 47, 0
16, 45120, Note_on_c, 14, 43, 76
16, 45344, Note_on_c, 14, 43, 0
16, 45360, Note_on_c, 14, 45, 76
16, 45464, Note_on_c, 14, 45, 0
16, 45480, Note_on_c, 14, 38, 76
16, 45704, Note_on_c, 14, 38, 0
16, 45720, Note_on_c, 14, 50, 76
16, 45824, Note_on_c, 14, 50, 0
16, 45840, Note_on_c, 14, 54, 76
16, 46064, Note_on_c, 14, 54, 0
16, 46080, Note_on_c, 14, 57, 76
16, 46184, Note_on_c, 14, 57, 0
16, 46200, Note_on_c, 14, 62, 76
16, 46424, Note_on_c, 14, 62, 0
16, 46440, Note_on_c, 14, 61, 76
16, 46544, Note_on_c, 14, 61, 0
16, 46560, Note_on_c, 14, 59, 76
16, 47024, Note_on_c, 14, 59, 0
16, 47040, Note_on_c, 14, 56, 76
16, 47144, Note_on_c, 14, 56, 0
16, 47160, Note_on_c, 14, 53, 76
16, 47264, Note_on_c, 14, 53, 0
16, 47280, Note_on_c, 14, 49, 76
16, 47384, Note_on_c, 14, 49, 0
16, 47400, Note_on_c, 14, 53, 76
16, 47504, Note_on_c, 14, 53, 0
16, 47520, Note_on_c, 14, 49, 76
16, 47624, Note_on_c, 14, 49, 0
16, 47640, Note_on_c, 14, 54, 76
16, 47864, Note_on_c, 14, 54, 0
16, 47880, Note_on_c, 14, 42, 76
16, 47984, Note_on_c, 14, 42, 0
16, 48000, Note_on_c, 14, 54, 76
16, 48224, Note_on_c, 14, 54, 0
16, 48240, Note_on_c, 14, 52, 76
16, 48344, Note_on_c, 14, 52, 0
16, 48360, Note_on_c, 14, 50, 76
16, 48479, Note_on_c, 14, 50, 0
16, 48480, Note_on_c, 14, 47, 76
16, 48599, Note_on_c, 14, 47, 0
16, 48600, Note_on_c, 14, 50, 76
16, 48704, Note_on_c, 14, 50, 0
16, 48720, Note_on_c, 14, 54, 76
16, 48839, Note_on_c, 14, 54, 0
16, 48840, Note_on_c, 14, 50, 76
16, 48959, Note_on_c, 14, 50, 0
16, 48960, Note_on_c, 14, 54, 76
16, 49064, Note_on_c, 14, 54, 0
16, 49080, Note_on_c, 14, 59, 76
16, 49304, Note_on_c, 14, 59, 0
16, 49320, Note_on_c, 14, 61, 76
16, 49424, Note_on_c, 14, 61, 0
16, 49440, Note_on_c, 14, 62, 76
16, 49664, Note_on_c, 14, 62, 0
16, 49680, Note_on_c, 14, 56, 76
16, 49784, Note_on_c, 14, 56, 0
16, 49800, Note_on_c, 14, 57, 76
16, 50024, Note_on_c, 14, 57, 0
16, 50040, Note_on_c, 14, 54, 76
16, 50144, Note_on_c, 14, 54, 0
16, 50160, Note_on_c, 14, 59, 76
16, 50384, Note_on_c, 14, 59, 0
16, 50400, Note_on_c, 14, 53, 76
16, 50504, Note_on_c, 14, 53, 0
16, 50520, Note_on_c, 14, 54, 76
16, 50744, Note_on_c, 14, 54, 0
16, 50760, Note_on_c, 14, 47, 76
16, 50864, Note_on_c, 14, 47, 0
16, 50880, Note_on_c, 14, 49, 76
16, 51104, Note_on_c, 14, 49, 0
16, 51120, Note_on_c, 14, 37, 76
16, 51224, Note_on_c, 14, 37, 0
16, 51240, Note_on_c, 14, 42, 76
16, 51359, Note_on_c, 14, 42, 0
16, 51360, Note_on_c, 14, 45, 76
16, 51479, Note_on_c, 14, 45, 0
16, 51480, Note_on_c, 14, 49, 76
16, 51584, Note_on_c, 14, 49, 0
16, 51600, Note_on_c, 14, 54, 76
16, 51719, Note_on_c, 14, 54, 0
16, 51720, Note_on_c, 14, 52, 76
16, 51839, Note_on_c, 14, 52, 0
16, 51840, Note_on_c, 14, 54, 76
16, 51944, Note_on_c, 14, 54, 0
16, 51960, Note_on_c, 14, 50, 76
16, 52079, Note_on_c, 14, 50, 0
16, 52080, Note_on_c, 14, 49, 76
16, 52199, Note_on_c, 14, 49, 0
16, 52200, Note_on_c, 14, 50, 76
16, 52304, Note_on_c, 14, 50, 0
16, 52320, Note_on_c, 14, 50, 76
16, 52439, Note_on_c, 14, 50, 0
16, 52440, Note_on_c, 14, 49, 76
16, 52559, Note_on_c, 14, 49, 0
16, 52560, Note_on_c, 14, 50, 76
16, 52664, Note_on_c, 14, 50, 0
16, 52680, Note_on_c, 14, 50, 76
16, 52799, Note_on_c, 14, 50, 0
16, 52800, Note_on_c, 14, 54, 76
16, 52919, Note_on_c, 14, 54, 0
16, 52920, Note_on_c, 14, 57, 76
16, 53024, Note_on_c, 14, 57, 0
16, 53040, Note_on_c, 14, 62, 76
16, 53264, Note_on_c, 14, 62, 0
16, 53280, Note_on_c, 14, 54, 76
16, 53384, Note_on_c, 14, 54, 0
16, 53400, Note_on_c, 14, 55, 76
16, 53624, Note_on_c, 14, 55, 0
16, 53640, Note_on_c, 14, 52, 76
16, 53744, Note_on_c, 14, 52, 0
16, 53760, Note_on_c, 14, 48, 76
16, 53984, Note_on_c, 14, 48, 0
16, 54000, Note_on_c, 14, 50, 76
16, 54104, Note_on_c, 14, 50, 0
16, 54120, Note_on_c, 14, 43, 76
16, 54584, Note_on_c, 14, 43, 0
16, 54600, Note_on_c, 14, 47, 76
16, 54704, Note_on_c, 14, 47, 0
16, 54720, Note_on_c, 14, 50, 76
16, 54824, Note_on_c, 14, 50, 0
16, 54840, Note_on_c, 14, 55, 76
16, 55064, Note_on_c, 14, 55, 0
16, 55080, Note_on_c, 14, 52, 76
16, 55184, Note_on_c, 14, 52, 0
16, 55200, Note_on_c, 14, 57, 76
16, 55784, Note_on_c, 14, 57, 0
16, 55800, Note_on_c, 14, 40, 76
16, 55904, Note_on_c, 14, 40, 0
16, 55920, Note_on_c, 14, 42, 76
16, 56039, Note_on_c, 14, 42, 0
16, 56040, Note_on_c, 14, 45, 76
16, 56144, Note_on_c, 14, 45, 0
16, 56160, Note_on_c, 14, 48, 76
16, 56264, Note_on_c, 14, 48, 0
16, 56280, Note_on_c, 14, 54, 76
16, 56504, Note_on_c, 14, 54, 0
16, 56520, Note_on_c, 14, 51, 76
16, 56624, Note_on_c, 14, 51, 0
16, 56640, Note_on_c, 14, 55, 76
16, 57224, Note_on_c, 14, 55, 0
16, 57240, Note_on_c, 14, 39, 76
16, 57344, Note_on_c, 14, 39, 0
16, 57360, Note_on_c, 14, 40, 76
16, 57479, Note_on_c, 14, 40, 0
16, 57480, Note_on_c, 14, 43, 76
16, 57584, Note_on_c, 14, 43, 0
16, 57600, Note_on_c, 14, 47, 76
16, 57704, Note_on_c, 14, 47, 0
16, 57720, Note_on_c, 14, 52, 76
16, 57944, Note_on_c, 14, 52, 0
16, 57960, Note_on_c, 14, 49, 76
16, 58064, Note_on_c, 14, 49, 0
16, 58080, Note_on_c, 14, 54, 76
16, 58664, Note_on_c, 14, 54, 0
16, 58680, Note_on_c, 14, 37, 76
16, 58784, Note_on_c, 14, 37, 0
16, 58800, Note_on_c, 14, 38, 76
16, 59024, Note_on_c, 14, 38, 0
16, 59040, Note_on_c, 14, 42, 76
16, 59144, Note_on_c, 14, 42, 0
16, 59160, Note_on_c, 14, 43, 76
16, 59384, Note_on_c, 14, 43, 0
16, 59400, Note_on_c, 14, 47, 76
16, 59504, Note_on_c, 14, 47, 0
16, 59520, Note_on_c, 14, 44, 76
16, 59744, Note_on_c, 14, 44, 0
16, 59760, Note_on_c, 14, 40, 76
16, 59864, Note_on_c, 14, 40, 0
16, 59880, Note_on_c, 14, 45, 76
16, 60104, Note_on_c, 14, 45, 0
16, 60120, Note_on_c, 14, 49, 76
16, 60224, Note_on_c, 14, 49, 0
16, 60240, Note_on_c, 14, 46, 76
16, 60464, Note_on_c, 14, 46, 0
16, 60480, Note_on_c, 14, 42, 76
16, 60584, Note_on_c, 14, 42, 0
16, 60600, Note_on_c, 14, 47, 76
16, 60824, Note_on_c, 14, 47, 0
16, 60840, Note_on_c, 14, 45, 76
16, 60944, Note_on_c, 14, 45, 0
16, 60960, Note_on_c, 14, 47, 76
16, 61184, Note_on_c, 14, 47, 0
16, 61200, Note_on_c, 14, 43, 76
16, 61304, Note_on_c, 14, 43, 0
16, 61320, Note_on_c, 14, 49, 76
16, 61544, Note_on_c, 14, 49, 0
16, 61560, Note_on_c, 14, 47, 76
16, 61664, Note_on_c, 14, 47, 0
16, 61680, Note_on_c, 14, 49, 76
16, 61904, Note_on_c, 14, 49, 0
16, 61920, Note_on_c, 14, 45, 76
16, 62024, Note_on_c, 14, 45, 0
16, 62040, Note_on_c, 14, 50, 76
16, 62144, Note_on_c, 14, 50, 0
16, 62160, Note_on_c, 14, 52, 76
16, 62264, Note_on_c, 14, 52, 0
16, 62280, Note_on_c, 14, 54, 76
16, 62384, Note_on_c, 14, 54, 0
16, 62400, Note_on_c, 14, 55, 76
16, 62984, Note_on_c, 14, 55, 0
16, 63000, Note_on_c, 14, 54, 76
16, 63104, Note_on_c, 14, 54, 0
16, 63120, Note_on_c, 14, 55, 76
16, 63344, Note_on_c, 14, 55, 0
16, 63360, Note_on_c, 14, 57, 76
16, 63464, Note_on_c, 14, 57, 0
16, 63480, Note_on_c, 14, 59, 76
16, 63584, Note_on_c, 14, 59, 0
16, 63600, Note_on_c, 14, 57, 76
16, 63704, Note_on_c, 14, 57, 0
16, 63720, Note_on_c, 14, 55, 76
16, 63824, Note_on_c, 14, 55, 0
16, 63840, Note_on_c, 14, 54, 76
16, 63944, Note_on_c, 14, 54, 0
16, 63960, Note_on_c, 14, 55, 76
16, 64064, Note_on_c, 14, 55, 0
16, 64080, Note_on_c, 14, 52, 76
16, 64184, Note_on_c, 14, 52, 0
16, 64200, Note_on_c, 14, 51, 76
16, 64424, Note_on_c, 14, 51, 0
16, 64440, Note_on_c, 14, 59, 76
16, 64544, Note_on_c, 14, 59, 0
16, 64560, Note_on_c, 14, 50, 76
16, 64784, Note_on_c, 14, 50, 0
16, 64800, Note_on_c, 14, 59, 76
16, 64904, Note_on_c, 14, 59, 0
16, 64920, Note_on_c, 14, 49, 76
16, 65144, Note_on_c, 14, 49, 0
16, 65160, Note_on_c, 14, 57, 76
16, 65264, Note_on_c, 14, 57, 0
16, 65280, Note_on_c, 14, 48, 76
16, 65504, Note_on_c, 14, 48, 0
16, 65520, Note_on_c, 14, 57, 76
16, 65624, Note_on_c, 14, 57, 0
16, 65640, Note_on_c, 14, 47, 76
16, 65864, Note_on_c, 14, 47, 0
16, 65880, Note_on_c, 14, 55, 76
16, 65984, Note_on_c, 14, 55, 0
16, 66000, Note_on_c, 14, 46, 76
16, 66224, Note_on_c, 14, 46, 0
16, 66240, Note_on_c, 14, 55, 76
16, 66344, Note_on_c, 14, 55, 0
16, 66360, Note_on_c, 14, 45, 76
16, 66824, Note_on_c, 14, 45, 0
16, 66840, Note_on_c, 14, 49, 76
16, 66944, Note_on_c, 14, 49, 0
16, 66960, Note_on_c, 14, 52, 76
16, 67064, Note_on_c, 14, 52, 0
16, 67080, Note_on_c, 14, 55, 76
16, 67199, Note_on_c, 14, 55, 0
16, 67200, Note_on_c, 14, 61, 76
16, 67319, Note_on_c, 14, 61, 0
16, 67320, Note_on_c, 14, 64, 76
16, 67424, Note_on_c, 14, 64, 0
16, 67440, Note_on_c, 14, 55, 76
16, 67559, Note_on_c, 14, 55, 0
16, 67560, Note_on_c, 14, 54, 76
16, 67679, Note_on_c, 14, 54, 0
16, 67680, Note_on_c, 14, 52, 76
16, 67784, Note_on_c, 14, 52, 0
16, 67800, Note_on_c, 14, 54, 76
16, 67919, Note_on_c, 14, 54, 0
16, 67920, Note_on_c, 14, 52, 76
16, 68039, Note_on_c, 14, 52, 0
16, 68040, Note_on_c, 14, 50, 76
16, 68144, Note_on_c, 14, 50, 0
16, 68160, Note_on_c, 14, 57, 76
16, 68384, Note_on_c, 14, 57, 0
16, 68400, Note_on_c, 14, 45, 76
16, 68504, Note_on_c, 14, 45, 0
16, 68520, Note_on_c, 14, 50, 76
16, 69104, Note_on_c, 14, 50, 0
16, 69120, Note_on_c, 14, 45, 76
16, 69224, Note_on_c, 14, 45, 0
16, 69240, Note_on_c, 14, 57, 76
16, 69359, Note_on_c, 14, 57, 0
16, 69360, Note_on_c, 14, 56, 76
16, 69479, Note_on_c, 14, 56, 0
16, 69480, Note_on_c, 14, 57, 76
16, 69584, Note_on_c, 14, 57, 0
16, 69600, Note_on_c, 14, 57, 76
16, 69719, Note_on_c, 14, 57, 0
16, 69720, Note_on_c, 14, 56, 76
16, 69839, Note_on_c, 14, 56, 0
16, 69840, Note_on_c, 14, 57, 76
16, 69944, Note_on_c, 14, 57, 0
16, 69960, Note_on_c, 14, 57, 76
16, 70079, Note_on_c, 14, 57, 0
16, 70080, Note_on_c, 14, 56, 76
16, 70199, Note_on_c, 14, 56, 0
16, 70200, Note_on_c, 14, 57, 76
16, 70304, Note_on_c, 14, 57, 0
16, 70320, Note_on_c, 14, 49, 76
16, 70544, Note_on_c, 14, 49, 0
16, 70560, Note_on_c, 14, 45, 76
16, 70664, Note_on_c, 14, 45, 0
16, 70680, Note_on_c, 14, 50, 76
16, 70904, Note_on_c, 14, 50, 0
16, 70920, Note_on_c, 14, 47, 76
16, 71024, Note_on_c, 14, 47, 0
16, 71040, Note_on_c, 14, 52, 76
16, 71264, Note_on_c, 14, 52, 0
16, 71280, Note_on_c, 14, 55, 76
16, 71384, Note_on_c, 14, 55, 0
16, 71400, Note_on_c, 14, 54, 76
16, 71624, Note_on_c, 14, 54, 0
16, 71640, Note_on_c, 14, 52, 76
16, 71744, Note_on_c, 14, 52, 0
16, 71760, Note_on_c, 14, 50, 76
16, 71984, Note_on_c, 14, 50, 0
16, 72000, Note_on_c, 14, 49, 76
16, 72104, Note_on_c, 14, 49, 0
16, 72120, Note_on_c, 14, 47, 76
16, 72239, Note_on_c, 14, 47, 0
16, 72240, Note_on_c, 14, 46, 76
16, 72359, Note_on_c, 14, 46, 0
16, 72360, Note_on_c, 14, 47, 76
16, 72464, Note_on_c, 14, 47, 0
16, 72480, Note_on_c, 14, 47, 76
16, 72599, Note_on_c, 14, 47, 0
16, 72600, Note_on_c, 14, 46, 76
16, 72719, Note_on_c, 14, 46, 0
16, 72720, Note_on_c, 14, 47, 76
16, 72824, Note_on_c, 14, 47, 0
16, 72840, Note_on_c, 14, 47, 76
16, 72959, Note_on_c, 14, 47, 0
16, 72960, Note_on_c, 14, 49, 76
16, 73079, Note_on_c, 14, 49, 0
16, 73080, Note_on_c, 14, 50, 76
16, 73184, Note_on_c, 14, 50, 0
16, 73200, Note_on_c, 14, 50, 76
16, 73319, Note_on_c, 14, 50, 0
16, 73320, Note_on_c, 14, 49, 76
16, 73439, Note_on_c, 14, 49, 0
16, 73440, Note_on_c, 14, 47, 76
16, 73544, Note_on_c, 14, 47, 0
16, 73560, Note_on_c, 14, 52, 76
16, 73679, Note_on_c, 14, 52, 0
16, 73680, Note_on_c, 14, 54, 76
16, 73799, Note_on_c, 14, 54, 0
16, 73800, Note_on_c, 14, 55, 76
16, 73904, Note_on_c, 14, 55, 0
16, 73920, Note_on_c, 14, 54, 76
16, 74039, Note_on_c, 14, 54, 0
16, 74040, Note_on_c, 14, 52, 76
16, 74159, Note_on_c, 14, 52, 0
16, 74160, Note_on_c, 14, 54, 76
16, 74264, Note_on_c, 14, 54, 0
16, 74280, Note_on_c, 14, 47, 76
16, 74399, Note_on_c, 14, 47, 0
16, 74400, Note_on_c, 14, 50, 76
16, 74519, Note_on_c, 14, 50, 0
16, 74520, Note_on_c, 14, 54, 76
16, 74624, Note_on_c, 14, 54, 0
16, 74640, Note_on_c, 14, 59, 76
16, 74864, Note_on_c, 14, 59, 0
16, 74880, Note_on_c, 14, 57, 76
16, 74984, Note_on_c, 14, 57, 0
16, 75000, Note_on_c, 14, 56, 76
16, 75224, Note_on_c, 14, 56, 0
16, 75240, Note_on_c, 14, 59, 76
16, 75344, Note_on_c, 14, 59, 0
16, 75360, Note_on_c, 14, 59, 76
16, 75584, Note_on_c, 14, 59, 0
16, 75600, Note_on_c, 14, 56, 76
16, 75704, Note_on_c, 14, 56, 0
16, 75720, Note_on_c, 14, 52, 76
16, 75944, Note_on_c, 14, 52, 0
16, 75960, Note_on_c, 14, 56, 76
16, 76064, Note_on_c, 14, 56, 0
16, 76080, Note_on_c, 14, 56, 76
16, 76304, Note_on_c, 14, 56, 0
16, 76320, Note_on_c, 14, 52, 76
16, 76424, Note_on_c, 14, 52, 0
16, 76440, Note_on_c, 14, 49, 76
16, 76664, Note_on_c, 14, 49, 0
16, 76680, Note_on_c, 14, 54, 76
16, 76784, Note_on_c, 14, 54, 0
16, 76800, Note_on_c, 14, 50, 76
16, 77024, Note_on_c, 14, 50, 0
16, 77040, Note_on_c, 14, 52, 76
16, 77144, Note_on_c, 14, 52, 0
16, 77160, Note_on_c, 14, 45, 76
16, 77384, Note_on_c, 14, 45, 0
16, 77400, Note_on_c, 14, 57, 76
16, 77504, Note_on_c, 14, 57, 0
16, 77520, Note_on_c, 14, 57, 76
16, 77744, Note_on_c, 14, 57, 0
16, 77760, Note_on_c, 14, 52, 76
16, 77864, Note_on_c, 14, 52, 0
16, 77880, Note_on_c, 14, 49, 76
16, 78104, Note_on_c, 14, 49, 0
16, 78120, Note_on_c, 14, 52, 76
16, 78224, Note_on_c, 14, 52, 0
16, 78240, Note_on_c, 14, 52, 76
16, 78464, Note_on_c, 14, 52, 0
16, 78480, Note_on_c, 14, 49, 76
16, 78584, Note_on_c, 14, 49, 0
16, 78600, Note_on_c, 14, 45, 76
16, 78824, Note_on_c, 14, 45, 0
16, 78840, Note_on_c, 14, 49, 76
16, 78944, Note_on_c, 14, 49, 0
16, 78960, Note_on_c, 14, 49, 76
16, 79184, Note_on_c, 14, 49, 0
16, 79200, Note_on_c, 14, 45, 76
16, 79304, Note_on_c, 14, 45, 0
16, 79320, Note_on_c, 14, 42, 76
16, 79544, Note_on_c, 14, 42, 0
16, 79560, Note_on_c, 14, 47, 76
16, 79664, Note_on_c, 14, 47, 0
16, 79680, Note_on_c, 14, 43, 76
16, 79904, Note_on_c, 14, 43, 0
16, 79920, Note_on_c, 14, 45, 76
16, 80024, Note_on_c, 14, 45, 0
16, 80040, Note_on_c, 14, 38, 76
16, 80264, Note_on_c, 14, 38, 0
16, 80280, Note_on_c, 14, 50, 76
16, 80384, Note_on_c, 14, 50, 0
16, 80400, Note_on_c, 14, 54, 76
16, 80624, Note_on_c, 14, 54, 0
16, 80640, Note_on_c, 14, 57, 76
16, 80744, Note_on_c, 14, 57, 0
16, 80760, Note_on_c, 14, 62, 76
16, 80984, Note_on_c, 14, 62, 0
16, 81000, Note_on_c, 14, 61, 76
16, 81104, Note_on_c, 14, 61, 0
16, 81120, Note_on_c, 14, 59, 76
16, 81584, Note_on_c, 14, 59, 0
16, 81600, Note_on_c, 14, 56, 76
16, 81704, Note_on_c, 14, 56, 0
16, 81720, Note_on_c, 14, 53, 76
16, 81824, Note_on_c, 14, 53, 0
16, 81840, Note_on_c, 14, 49, 76
16, 81944, Note_on_c, 14, 49, 0
16, 81960, Note_on_c, 14, 53, 76
16, 82064, Note_on_c, 14, 53, 0
16, 82080, Note_on_c, 14, 49, 76
16, 82184, Note_on_c, 14, 49, 0
16, 82200, Note_on_c, 14, 54, 76
16, 82424, Note_on_c, 14, 54, 0
16, 82440, Note_on_c, 14, 42, 76
16, 82544, Note_on_c, 14, 42, 0
16, 82560, Note_on_c, 14, 54, 76
16, 82784, Note_on_c, 14, 54, 0
16, 82800, Note_on_c, 14, 52, 76
16, 82904, Note_on_c, 14, 52, 0
16, 82920, Note_on_c, 14, 50, 76
16, 83039, Note_on_c, 14, 50, 0
16, 83040, Note_on_c, 14, 47, 76
16, 83159, Note_on_c, 14, 47, 0
16, 83160, Note_on_c, 14, 50, 76
16, 83264, Note_on_c, 14, 50, 0
16, 83280, Note_on_c, 14, 54, 76
16, 83399, Note_on_c, 14, 54, 0
16, 83400, Note_on_c, 14, 50, 76
16, 83519, Note_on_c, 14, 50, 0
16, 83520, Note_on_c, 14, 54, 76
16, 83624, Note_on_c, 14, 54, 0
16, 83640, Note_on_c, 14, 59, 76
16, 83864, Note_on_c, 14, 59, 0
16, 83880, Note_on_c, 14, 61, 76
16, 83984, Note_on_c, 14, 61, 0
16, 84000, Note_on_c, 14, 62, 76
16, 84224, Note_on_c, 14, 62, 0
16, 84240, Note_on_c, 14, 56, 76
16, 84344, Note_on_c, 14, 56, 0
16, 84360, Note_on_c, 14, 57, 76
16, 84584, Note_on_c, 14, 57, 0
16, 84600, Note_on_c, 14, 54, 76
16, 84704, Note_on_c, 14, 54, 0
16, 84720, Note_on_c, 14, 59, 76
16, 84944, Note_on_c, 14, 59, 0
16, 84960, Note_on_c, 14, 53, 76
16, 85064, Note_on_c, 14, 53, 0
16, 85080, Note_on_c, 14, 54, 76
16, 85304, Note_on_c, 14, 54, 0
16, 85320, Note_on_c, 14, 47, 76
16, 85424, Note_on_c, 14, 47, 0
16, 85440, Note_on_c, 14, 49, 76
16, 85664, Note_on_c, 14, 49, 0
16, 85680, Note_on_c, 14, 37, 76
16, 85784, Note_on_c, 14, 37, 0
16, 85800, Note_on_c, 14, 42, 76
16, 85919, Note_on_c, 14, 42, 0
16, 85920, Note_on_c, 14, 45, 76
16, 86039, Note_on_c, 14, 45, 0
16, 86040, Note_on_c, 14, 49, 76
16, 86144, Note_on_c, 14, 49, 0
16, 86160, Note_on_c, 14, 54, 76
16, 86279, Note_on_c, 14, 54, 0
16, 86280, Note_on_c, 14, 52, 76
16, 86399, Note_on_c, 14, 52, 0
16, 86400, Note_on_c, 14, 54, 76
16, 86504, Note_on_c, 14, 54, 0
16, 86520, Note_on_c, 14, 50, 76
16, 86639, Note_on_c, 14, 50, 0
16, 86640, Note_on_c, 14, 49, 76
16, 86759, Note_on_c, 14, 49, 0
16, 86760, Note_on_c, 14, 50, 76
16, 86864, Note_on_c, 14, 50, 0
16, 86880, Note_on_c, 14, 50, 76
16, 86999, Note_on_c, 14, 50, 0
16, 87000, Note_on_c, 14, 49, 76
16, 87119, Note_on_c, 14, 49, 0
16, 87120, Note_on_c, 14, 50, 76
16, 87224, Note_on_c, 14, 50, 0
16, 87240, Note_on_c, 14, 50, 76
16, 87359, Note_on_c, 14, 50, 0
16, 87360, Note_on_c, 14, 54, 76
16, 87479, Note_on_c, 14, 54, 0
16, 87480, Note_on_c, 14, 57, 76
16, 87584, Note_on_c, 14, 57, 0
16, 87600, Note_on_c, 14, 62, 76
16, 87824, Note_on_c, 14, 62, 0
16, 87840, Note_on_c, 14, 54, 76
16, 87944, Note_on_c, 14, 54, 0
16, 87960, Note_on_c, 14, 55, 76
16, 88184, Note_on_c, 14, 55, 0
16, 88200, Note_on_c, 14, 52, 76
16, 88304, Note_on_c, 14, 52, 0
16, 88320, Note_on_c, 14, 48, 76
16, 88544, Note_on_c, 14, 48, 0
16, 88560, Note_on_c, 14, 50, 76
16, 88664, Note_on_c, 14, 50, 0
16, 88680, Note_on_c, 14, 43, 76
16, 89144, Note_on_c, 14, 43, 0
16, 89160, Note_on_c, 14, 47, 76
16, 89264, Note_on_c, 14, 47, 0
16, 89280, Note_on_c, 14, 50, 76
16, 89384, Note_on_c, 14, 50, 0
16, 89400, Note_on_c, 14, 55, 76
16, 89624, Note_on_c, 14, 55, 0
16, 89640, Note_on_c, 14, 52, 76
16, 89744, Note_on_c, 14, 52, 0
16, 89760, Note_on_c, 14, 57, 76
16, 90344, Note_on_c, 14, 57, 0
16, 90360, Note_on_c, 14, 40, 76
16, 90464, Note_on_c, 14, 40, 0
16, 90480, Note_on_c, 14, 42, 76
16, 90599, Note_on_c, 14, 42, 0
16, 90600, Note_on_c, 14, 45, 76
16, 90704, Note_on_c, 14, 45, 0
16, 90720, Note_on_c, 14, 48, 76
16, 90824, Note_on_c, 14, 48, 0
16, 90840, Note_on_c, 14, 54, 76
16, 91064, Note_on_c, 14, 54, 0
16, 91080, Note_on_c, 14, 51, 76
16, 91184, Note_on_c, 14, 51, 0
16, 91200, Note_on_c, 14, 55, 76
16, 91784, Note_on_c, 14, 55, 0
16, 91800, Note_on_c, 14, 39, 76
16, 91904, Note_on_c, 14, 39, 0
16, 91920, Note_on_c, 14, 40, 76
16, 92039, Note_on_c, 14, 40, 0
16, 92040, Note_on_c, 14, 43, 76
16, 92144, Note_on_c, 14, 43, 0
16, 92160, Note_on_c, 14, 47, 76
16, 92264, Note_on_c, 14, 47, 0
16, 92280, Note_on_c, 14, 52, 76
16, 92504, Note_on_c, 14, 52, 0
16, 92520, Note_on_c, 14, 49, 76
16, 92624, Note_on_c, 14, 49, 0
16, 92640, Note_on_c, 14, 54, 76
16, 93224, Note_on_c, 14, 54, 0
16, 93240, Note_on_c, 14, 37, 76
16, 93344, Note_on_c, 14, 37, 0
16, 93360, Note_on_c, 14, 38, 76
16, 93584, Note_on_c, 14, 38, 0
16, 93600, Note_on_c, 14, 42, 76
16, 93704, Note_on_c, 14, 42, 0
16, 93720, Note_on_c, 14, 43, 76
16, 93944, Note_on_c, 14, 43, 0
16, 93960, Note_on_c, 14, 47, 76
16, 94064, Note_on_c, 14, 47, 0
16, 94080, Note_on_c, 14, 44, 76
16, 94304, Note_on_c, 14, 44, 0
16, 94320, Note_on_c, 14, 40, 76
16, 94424, Note_on_c, 14, 40, 0
16, 94440, Note_on_c, 14, 45, 76
16, 94664, Note_on_c, 14, 45, 0
16, 94680, Note_on_c, 14, 49, 76
16, 94784, Note_on_c, 14, 49, 0
16, 94800, Note_on_c, 14, 46, 76
16, 95024, Note_on_c, 14, 46, 0
16, 95040, Note_on_c, 14, 42, 76
16, 95144, Note_on_c, 14, 42, 0
16, 95160, Note_on_c, 14, 47, 76
16, 95384, Note_on_c, 14, 47, 0
16, 95400, Note_on_c, 14, 45, 76
16, 95504, Note_on_c, 14, 45, 0
16, 95520, Note_on_c, 14, 47, 76
16, 95744, Note_on_c, 14, 47, 0
16, 95760, Note_on_c, 14, 43, 76
16, 95864, Note_on_c, 14, 43, 0
16, 95880, Note_on_c, 14, 49, 76
16, 96104, Note_on_c, 14, 49, 0
16, 96120, Note_on_c, 14, 47, 76
16, 96224, Note_on_c, 14, 47, 0
16, 96240, Note_on_c, 14, 49, 76
16, 96464, Note_on_c, 14, 49, 0
16, 96480, Note_on_c, 14, 45, 76
16, 96584, Note_on_c, 14, 45, 0
16, 96600, Note_on_c, 14, 50, 76
16, 96704, Note_on_c, 14, 50, 0
16, 96720, Note_on_c, 14, 52, 76
16, 96824, Note_on_c, 14, 52, 0
16, 96840, Note_on_c, 14, 54, 76
16, 96944, Note_on_c, 14, 54, 0
16, 96960, Note_on_c, 14, 55, 76
16, 97544, Note_on_c, 14, 55, 0
16, 97560, Note_on_c, 14, 54, 76
16, 97664, Note_on_c, 14, 54, 0
16, 97680, Note_on_c, 14, 55, 76
16, 97904, Note_on_c, 14, 55, 0
16, 97920, Note_on_c, 14, 57, 76
16, 98024, Note_on_c, 14, 57, 0
16, 98040, Note_on_c, 14, 59, 76
16, 98144, Note_on_c, 14, 59, 0
16, 98160, Note_on_c, 14, 57, 76
16, 98264, Note_on_c, 14, 57, 0
16, 98280, Note_on_c, 14, 55, 76
16, 98384, Note_on_c, 14, 55, 0
16, 98400, Note_on_c, 14, 54, 76
16, 98504, Note_on_c, 14, 54, 0
16, 98520, Note_on_c, 14, 55, 76
16, 98624, Note_on_c, 14, 55, 0
16, 98640, Note_on_c, 14, 52, 76
16, 98744, Note_on_c, 14, 52, 0
16, 98760, Note_on_c, 14, 51, 76
16, 98984, Note_on_c, 14, 51, 0
16, 99000, Note_on_c, 14, 59, 76
16, 99104, Note_on_c, 14, 59, 0
16, 99120, Note_on_c, 14, 50, 76
16, 99344, Note_on_c, 14, 50, 0
16, 99360, Note_on_c, 14, 59, 76
16, 99464, Note_on_c, 14, 59, 0
16, 99480, Note_on_c, 14, 49, 76
16, 99704, Note_on_c, 14, 49, 0
16, 99720, Note_on_c, 14, 57, 76
16, 99824, Note_on_c, 14, 57, 0
16, 99840, Note_on_c, 14, 48, 76
16, 100064, Note_on_c, 14, 48, 0
16, 100080, Note_on_c, 14, 57, 76
16, 100184, Note_on_c, 14, 57, 0
16, 100200, Note_on_c, 14, 47, 76
16, 100424, Note_on_c, 14, 47, 0
16, 100440, Note_on_c, 14, 55, 76
16, 100544, Note_on_c, 14, 55, 0
16, 100560, Note_on_c, 14, 46, 76
16, 100784, Note_on_c, 14, 46, 0
16, 100800, Note_on_c, 14, 55, 76
16, 100904, Note_on_c, 14, 55, 0
16, 100920, Note_on_c, 14, 45, 76
16, 101384, Note_on_c, 14, 45, 0
16, 101400, Note_on_c, 14, 49, 76
16, 101504, Note_on_c, 14, 49, 0
16, 101520, Note_on_c, 14, 52, 76
16, 101624, Note_on_c, 14, 52, 0
16, 101640, Note_on_c, 14, 55, 76
16, 101759, Note_on_c, 14, 55, 0
16, 101760, Note_on_c, 14, 61, 76
16, 101879, Note_on_c, 14, 61, 0
16, 101880, Note_on_c, 14, 64, 76
16, 101984, Note_on_c, 14, 64, 0
16, 102000, Note_on_c, 14, 55, 76
16, 102119, Note_on_c, 14, 55, 0
16, 102120, Note_on_c, 14, 54, 76
16, 102239, Note_on_c, 14, 54, 0
16, 102240, Note_on_c, 14, 52, 76
16, 102344, Note_on_c, 14, 52, 0
16, 102360, Note_on_c, 14, 54, 76
16, 102479, Note_on_c, 14, 54, 0
16, 102480, Note_on_c, 14, 52, 76
16, 102599, Note_on_c, 14, 52, 0
16, 102600, Note_on_c, 14, 50, 76
16, 102704, Note_on_c, 14, 50, 0
16, 102720, Note_on_c, 14, 57, 76
16, 102944, Note_on_c, 14, 57, 0
16, 102960, Note_on_c, 14, 45, 76
16, 103064, Note_on_c, 14, 45, 0
16, 103080, Note_on_c, 14, 50, 76
16, 103679, Note_on_c, 14, 50, 0
16, 103679, End_track
17, 0, Start_track
17, 0, Title_t, "Johann Sebastian Bach - Orchestral Suite No. 3 in D Major, BWV1068 - No. 5 Gigue"
17, 0, MIDI_port, 0
17, 0, End_track
0, 0, End_of_file
