0, 0, Header, 1, 6, 240
1, 0, Start_track
1, 0, Title_t, "(Ohne Titel)"
1, 0, Time_signature, 6, 3, 12, 8
1, 0, Key_signature, 0, "major"
1, 0, Tempo, 1500000
1, 0, End_track
2, 0, Start_track
2, 0, Sequence_number, 65535
2, 0, MIDI_port, 0
2, 0, Title_t, "Flauto traverso"
2, 0, Control_c, 0, 0, 0
2, 0, Control_c, 0, 32, 0
2, 0, Program_c, 0, 73
2, 0, Control_c, 0, 7, 100
2, 0, Control_c, 0, 10, 54
2, 0, Note_on_c, 0, 76, 100
2, 216, Note_on_c, 0, 76, 0
2, 240, Note_on_c, 0, 77, 100
2, 348, Note_on_c, 0, 77, 0
2, 360, Note_on_c, 0, 71, 100
2, 576, Note_on_c, 0, 71, 0
2, 600, Note_on_c, 0, 72, 100
2, 708, Note_on_c, 0, 72, 0
2, 720, Note_on_c, 0, 74, 100
2, 756, Note_on_c, 0, 74, 0
2, 760, Note_on_c, 0, 72, 100
2, 796, Note_on_c, 0, 72, 0
2, 800, Note_on_c, 0, 74, 100
2, 836, Note_on_c, 0, 74, 0
2, 840, Note_on_c, 0, 67, 100
2, 948, Note_on_c, 0, 67, 0
2, 960, Note_on_c, 0, 71, 100
2, 1188, Note_on_c, 0, 71, 0
2, 1200, Note_on_c, 0, 72, 100
2, 1308, Note_on_c, 0, 72, 0
2, 2160, Note_on_c, 0, 77, 100
2, 2268, Note_on_c, 0, 77, 0
2, 2280, Note_on_c, 0, 76, 100
2, 2388, Note_on_c, 0, 76, 0
2, 2400, Note_on_c, 0, 75, 100
2, 2574, Note_on_c, 0, 75, 0
2, 2580, Note_on_c, 0, 74, 100
2, 2607, Note_on_c, 0, 74, 0
2, 2610, Note_on_c, 0, 72, 100
2, 2637, Note_on_c, 0, 72, 0
2, 2640, Note_on_c, 0, 74, 100
2, 2694, Note_on_c, 0, 74, 0
2, 2700, Note_on_c, 0, 76, 100
2, 2727, Note_on_c, 0, 76, 0
2, 2730, Note_on_c, 0, 77, 100
2, 2757, Note_on_c, 0, 77, 0
2, 2760, Note_on_c, 0, 76, 100
2, 2814, Note_on_c, 0, 76, 0
2, 2820, Note_on_c, 0, 77, 100
2, 2847, Note_on_c, 0, 77, 0
2, 2850, Note_on_c, 0, 79, 100
2, 2877, Note_on_c, 0, 79, 0
2, 2880, Note_on_c, 0, 77, 100
2, 3348, Note_on_c, 0, 77, 0
2, 3360, Note_on_c, 0, 76, 100
2, 3468, Note_on_c, 0, 76, 0
2, 3600, Note_on_c, 0, 69, 100
2, 3654, Note_on_c, 0, 69, 0
2, 3660, Note_on_c, 0, 74, 100
2, 3687, Note_on_c, 0, 74, 0
2, 3690, Note_on_c, 0, 76, 100
2, 3717, Note_on_c, 0, 76, 0
2, 3720, Note_on_c, 0, 78, 100
2, 3774, Note_on_c, 0, 78, 0
2, 3780, Note_on_c, 0, 78, 100
2, 3807, Note_on_c, 0, 78, 0
2, 3810, Note_on_c, 0, 79, 100
2, 3837, Note_on_c, 0, 79, 0
2, 3840, Note_on_c, 0, 81, 100
2, 3894, Note_on_c, 0, 81, 0
2, 3900, Note_on_c, 0, 81, 100
2, 3927, Note_on_c, 0, 81, 0
2, 3930, Note_on_c, 0, 79, 100
2, 3957, Note_on_c, 0, 79, 0
2, 3960, Note_on_c, 0, 78, 100
2, 4014, Note_on_c, 0, 78, 0
2, 4020, Note_on_c, 0, 78, 100
2, 4047, Note_on_c, 0, 78, 0
2, 4050, Note_on_c, 0, 79, 100
2, 4077, Note_on_c, 0, 79, 0
2, 4080, Note_on_c, 0, 81, 100
2, 4134, Note_on_c, 0, 81, 0
2, 4140, Note_on_c, 0, 81, 100
2, 4167, Note_on_c, 0, 81, 0
2, 4170, Note_on_c, 0, 83, 100
2, 4197, Note_on_c, 0, 83, 0
2, 4200, Note_on_c, 0, 84, 100
2, 4254, Note_on_c, 0, 84, 0
2, 4260, Note_on_c, 0, 83, 100
2, 4287, Note_on_c, 0, 83, 0
2, 4290, Note_on_c, 0, 81, 100
2, 4317, Note_on_c, 0, 81, 0
2, 4320, Note_on_c, 0, 79, 100
2, 4842, Note_on_c, 0, 79, 0
2, 4860, Note_on_c, 0, 81, 100
2, 4887, Note_on_c, 0, 81, 0
2, 4890, Note_on_c, 0, 79, 100
2, 4917, Note_on_c, 0, 79, 0
2, 4920, Note_on_c, 0, 78, 100
2, 4947, Note_on_c, 0, 78, 0
2, 4950, Note_on_c, 0, 76, 100
2, 4977, Note_on_c, 0, 76, 0
2, 4980, Note_on_c, 0, 74, 100
2, 5007, Note_on_c, 0, 74, 0
2, 5010, Note_on_c, 0, 72, 100
2, 5037, Note_on_c, 0, 72, 0
2, 5040, Note_on_c, 0, 71, 100
2, 5148, Note_on_c, 0, 71, 0
2, 5160, Note_on_c, 0, 79, 100
2, 5268, Note_on_c, 0, 79, 0
2, 5280, Note_on_c, 0, 78, 100
2, 5508, Note_on_c, 0, 78, 0
2, 5520, Note_on_c, 0, 79, 100
2, 5628, Note_on_c, 0, 79, 0
2, 5820, Note_on_c, 0, 84, 100
2, 5874, Note_on_c, 0, 84, 0
2, 5880, Note_on_c, 0, 79, 100
2, 5934, Note_on_c, 0, 79, 0
2, 5940, Note_on_c, 0, 76, 100
2, 5994, Note_on_c, 0, 76, 0
2, 6000, Note_on_c, 0, 72, 100
2, 6054, Note_on_c, 0, 72, 0
2, 6060, Note_on_c, 0, 84, 100
2, 6114, Note_on_c, 0, 84, 0
2, 6180, Note_on_c, 0, 77, 100
2, 6234, Note_on_c, 0, 77, 0
2, 6240, Note_on_c, 0, 74, 100
2, 6294, Note_on_c, 0, 74, 0
2, 6300, Note_on_c, 0, 71, 100
2, 6354, Note_on_c, 0, 71, 0
2, 6360, Note_on_c, 0, 67, 100
2, 6414, Note_on_c, 0, 67, 0
2, 6420, Note_on_c, 0, 79, 100
2, 6474, Note_on_c, 0, 79, 0
2, 6540, Note_on_c, 0, 69, 100
2, 6594, Note_on_c, 0, 69, 0
2, 6600, Note_on_c, 0, 65, 100
2, 6654, Note_on_c, 0, 65, 0
2, 6660, Note_on_c, 0, 62, 100
2, 6714, Note_on_c, 0, 62, 0
2, 6720, Note_on_c, 0, 74, 100
2, 6774, Note_on_c, 0, 74, 0
2, 6780, Note_on_c, 0, 67, 100
2, 6834, Note_on_c, 0, 67, 0
2, 6900, Note_on_c, 0, 67, 100
2, 6954, Note_on_c, 0, 67, 0
2, 6960, Note_on_c, 0, 79, 100
2, 7014, Note_on_c, 0, 79, 0
2, 7020, Note_on_c, 0, 72, 100
2, 7074, Note_on_c, 0, 72, 0
2, 7080, Note_on_c, 0, 71, 100
2, 7134, Note_on_c, 0, 71, 0
2, 7140, Note_on_c, 0, 74, 100
2, 7194, Note_on_c, 0, 74, 0
2, 7200, Note_on_c, 0, 67, 100
2, 7308, Note_on_c, 0, 67, 0
2, 7620, Note_on_c, 0, 72, 100
2, 7674, Note_on_c, 0, 72, 0
2, 7680, Note_on_c, 0, 72, 100
2, 7734, Note_on_c, 0, 72, 0
2, 7740, Note_on_c, 0, 77, 100
2, 7794, Note_on_c, 0, 77, 0
2, 7800, Note_on_c, 0, 77, 100
2, 7854, Note_on_c, 0, 77, 0
2, 7860, Note_on_c, 0, 68, 100
2, 7914, Note_on_c, 0, 68, 0
2, 7920, Note_on_c, 0, 69, 100
2, 8028, Note_on_c, 0, 69, 0
2, 8340, Note_on_c, 0, 67, 100
2, 8394, Note_on_c, 0, 67, 0
2, 8400, Note_on_c, 0, 67, 100
2, 8454, Note_on_c, 0, 67, 0
2, 8460, Note_on_c, 0, 72, 100
2, 8514, Note_on_c, 0, 72, 0
2, 8520, Note_on_c, 0, 72, 100
2, 8574, Note_on_c, 0, 72, 0
2, 8580, Note_on_c, 0, 71, 100
2, 8634, Note_on_c, 0, 71, 0
2, 8640, Note_on_c, 0, 71, 100
2, 8694, Note_on_c, 0, 71, 0
2, 8700, Note_on_c, 0, 79, 100
2, 8754, Note_on_c, 0, 79, 0
2, 8760, Note_on_c, 0, 74, 100
2, 8814, Note_on_c, 0, 74, 0
2, 8820, Note_on_c, 0, 71, 100
2, 8874, Note_on_c, 0, 71, 0
2, 8880, Note_on_c, 0, 67, 100
2, 8934, Note_on_c, 0, 67, 0
2, 8940, Note_on_c, 0, 71, 100
2, 8994, Note_on_c, 0, 71, 0
2, 9000, Note_on_c, 0, 74, 100
2, 9054, Note_on_c, 0, 74, 0
2, 9060, Note_on_c, 0, 79, 100
2, 9114, Note_on_c, 0, 79, 0
2, 9120, Note_on_c, 0, 83, 100
2, 9228, Note_on_c, 0, 83, 0
2, 9420, Note_on_c, 0, 72, 100
2, 9474, Note_on_c, 0, 72, 0
2, 9480, Note_on_c, 0, 69, 100
2, 9534, Note_on_c, 0, 69, 0
2, 9540, Note_on_c, 0, 66, 100
2, 9594, Note_on_c, 0, 66, 0
2, 9600, Note_on_c, 0, 62, 100
2, 9654, Note_on_c, 0, 62, 0
2, 9660, Note_on_c, 0, 66, 100
2, 9714, Note_on_c, 0, 66, 0
2, 9720, Note_on_c, 0, 69, 100
2, 9774, Note_on_c, 0, 69, 0
2, 9780, Note_on_c, 0, 74, 100
2, 9834, Note_on_c, 0, 74, 0
2, 9840, Note_on_c, 0, 78, 100
2, 9948, Note_on_c, 0, 78, 0
2, 10140, Note_on_c, 0, 71, 100
2, 10194, Note_on_c, 0, 71, 0
2, 10200, Note_on_c, 0, 67, 100
2, 10254, Note_on_c, 0, 67, 0
2, 10260, Note_on_c, 0, 64, 100
2, 10314, Note_on_c, 0, 64, 0
2, 10320, Note_on_c, 0, 76, 100
2, 10374, Note_on_c, 0, 76, 0
2, 10380, Note_on_c, 0, 69, 100
2, 10434, Note_on_c, 0, 69, 0
2, 10500, Note_on_c, 0, 79, 100
2, 10554, Note_on_c, 0, 79, 0
2, 10560, Note_on_c, 0, 76, 100
2, 10614, Note_on_c, 0, 76, 0
2, 10620, Note_on_c, 0, 72, 100
2, 10674, Note_on_c, 0, 72, 0
2, 10680, Note_on_c, 0, 69, 100
2, 10734, Note_on_c, 0, 69, 0
2, 10740, Note_on_c, 0, 81, 100
2, 10794, Note_on_c, 0, 81, 0
2, 10860, Note_on_c, 0, 67, 100
2, 10914, Note_on_c, 0, 67, 0
2, 10920, Note_on_c, 0, 71, 100
2, 10974, Note_on_c, 0, 71, 0
2, 10980, Note_on_c, 0, 76, 100
2, 11034, Note_on_c, 0, 76, 0
2, 11040, Note_on_c, 0, 74, 100
2, 11094, Note_on_c, 0, 74, 0
2, 11100, Note_on_c, 0, 69, 100
2, 11154, Note_on_c, 0, 69, 0
2, 11220, Note_on_c, 0, 62, 100
2, 11274, Note_on_c, 0, 62, 0
2, 11280, Note_on_c, 0, 74, 100
2, 11334, Note_on_c, 0, 74, 0
2, 11340, Note_on_c, 0, 71, 100
2, 11394, Note_on_c, 0, 71, 0
2, 11400, Note_on_c, 0, 67, 100
2, 11508, Note_on_c, 0, 67, 0
2, 11520, Note_on_c, 0, 74, 100
2, 11736, Note_on_c, 0, 74, 0
2, 11760, Note_on_c, 0, 76, 100
2, 11868, Note_on_c, 0, 76, 0
2, 11880, Note_on_c, 0, 69, 100
2, 12096, Note_on_c, 0, 69, 0
2, 12120, Note_on_c, 0, 71, 100
2, 12228, Note_on_c, 0, 71, 0
2, 12240, Note_on_c, 0, 72, 100
2, 12276, Note_on_c, 0, 72, 0
2, 12280, Note_on_c, 0, 71, 100
2, 12316, Note_on_c, 0, 71, 0
2, 12320, Note_on_c, 0, 72, 100
2, 12356, Note_on_c, 0, 72, 0
2, 12360, Note_on_c, 0, 81, 100
2, 12468, Note_on_c, 0, 81, 0
2, 12480, Note_on_c, 0, 72, 100
2, 12708, Note_on_c, 0, 72, 0
2, 12720, Note_on_c, 0, 71, 100
2, 12828, Note_on_c, 0, 71, 0
2, 12960, Note_on_c, 0, 70, 100
2, 12987, Note_on_c, 0, 70, 0
2, 12990, Note_on_c, 0, 69, 100
2, 13017, Note_on_c, 0, 69, 0
2, 13020, Note_on_c, 0, 70, 100
2, 13128, Note_on_c, 0, 70, 0
2, 13140, Note_on_c, 0, 76, 100
2, 13167, Note_on_c, 0, 76, 0
2, 13170, Note_on_c, 0, 77, 100
2, 13197, Note_on_c, 0, 77, 0
2, 13200, Note_on_c, 0, 79, 100
2, 13254, Note_on_c, 0, 79, 0
2, 13260, Note_on_c, 0, 70, 100
2, 13314, Note_on_c, 0, 70, 0
2, 13320, Note_on_c, 0, 70, 100
2, 13428, Note_on_c, 0, 70, 0
2, 13440, Note_on_c, 0, 69, 100
2, 13548, Note_on_c, 0, 69, 0
2, 13680, Note_on_c, 0, 75, 100
2, 14148, Note_on_c, 0, 75, 0
2, 14160, Note_on_c, 0, 76, 100
2, 14214, Note_on_c, 0, 76, 0
2, 14220, Note_on_c, 0, 77, 100
2, 14247, Note_on_c, 0, 77, 0
2, 14250, Note_on_c, 0, 76, 100
2, 14277, Note_on_c, 0, 76, 0
2, 14280, Note_on_c, 0, 74, 100
2, 14307, Note_on_c, 0, 74, 0
2, 14310, Note_on_c, 0, 72, 100
2, 14337, Note_on_c, 0, 72, 0
2, 14340, Note_on_c, 0, 71, 100
2, 14394, Note_on_c, 0, 71, 0
2, 14400, Note_on_c, 0, 72, 100
2, 14616, Note_on_c, 0, 72, 0
2, 14640, Note_on_c, 0, 74, 100
2, 14748, Note_on_c, 0, 74, 0
2, 14760, Note_on_c, 0, 68, 100
2, 14976, Note_on_c, 0, 68, 0
2, 15000, Note_on_c, 0, 69, 100
2, 15108, Note_on_c, 0, 69, 0
2, 15120, Note_on_c, 0, 71, 100
2, 15156, Note_on_c, 0, 71, 0
2, 15160, Note_on_c, 0, 69, 100
2, 15196, Note_on_c, 0, 69, 0
2, 15200, Note_on_c, 0, 71, 100
2, 15236, Note_on_c, 0, 71, 0
2, 15240, Note_on_c, 0, 64, 100
2, 15348, Note_on_c, 0, 64, 0
2, 15360, Note_on_c, 0, 68, 100
2, 15588, Note_on_c, 0, 68, 0
2, 15600, Note_on_c, 0, 69, 100
2, 15708, Note_on_c, 0, 69, 0
2, 16200, Note_on_c, 0, 71, 100
2, 16227, Note_on_c, 0, 71, 0
2, 16230, Note_on_c, 0, 69, 100
2, 16257, Note_on_c, 0, 69, 0
2, 16260, Note_on_c, 0, 68, 100
2, 16287, Note_on_c, 0, 68, 0
2, 16290, Note_on_c, 0, 71, 100
2, 16317, Note_on_c, 0, 71, 0
2, 16320, Note_on_c, 0, 69, 100
2, 16347, Note_on_c, 0, 69, 0
2, 16350, Note_on_c, 0, 68, 100
2, 16377, Note_on_c, 0, 68, 0
2, 16380, Note_on_c, 0, 66, 100
2, 16407, Note_on_c, 0, 66, 0
2, 16410, Note_on_c, 0, 69, 100
2, 16437, Note_on_c, 0, 69, 0
2, 16440, Note_on_c, 0, 68, 100
2, 16494, Note_on_c, 0, 68, 0
2, 16500, Note_on_c, 0, 71, 100
2, 16527, Note_on_c, 0, 71, 0
2, 16530, Note_on_c, 0, 76, 100
2, 16557, Note_on_c, 0, 76, 0
2, 16560, Note_on_c, 0, 81, 100
2, 16707, Note_on_c, 0, 81, 0
2, 16710, Note_on_c, 0, 80, 100
2, 16737, Note_on_c, 0, 80, 0
2, 16740, Note_on_c, 0, 78, 100
2, 16767, Note_on_c, 0, 78, 0
2, 16770, Note_on_c, 0, 76, 100
2, 16797, Note_on_c, 0, 76, 0
2, 16800, Note_on_c, 0, 83, 100
2, 16854, Note_on_c, 0, 83, 0
2, 16860, Note_on_c, 0, 74, 100
2, 16914, Note_on_c, 0, 74, 0
2, 16920, Note_on_c, 0, 74, 100
2, 17028, Note_on_c, 0, 74, 0
2, 17040, Note_on_c, 0, 72, 100
2, 17148, Note_on_c, 0, 72, 0
2, 17160, Note_on_c, 0, 75, 100
2, 17307, Note_on_c, 0, 75, 0
2, 17310, Note_on_c, 0, 72, 100
2, 17337, Note_on_c, 0, 72, 0
2, 17340, Note_on_c, 0, 74, 100
2, 17367, Note_on_c, 0, 74, 0
2, 17370, Note_on_c, 0, 75, 100
2, 17397, Note_on_c, 0, 75, 0
2, 17400, Note_on_c, 0, 74, 100
2, 17427, Note_on_c, 0, 74, 0
2, 17430, Note_on_c, 0, 70, 100
2, 17457, Note_on_c, 0, 70, 0
2, 17460, Note_on_c, 0, 72, 100
2, 17487, Note_on_c, 0, 72, 0
2, 17490, Note_on_c, 0, 74, 100
2, 17517, Note_on_c, 0, 74, 0
2, 17520, Note_on_c, 0, 72, 100
2, 17547, Note_on_c, 0, 72, 0
2, 17550, Note_on_c, 0, 69, 100
2, 17577, Note_on_c, 0, 69, 0
2, 17580, Note_on_c, 0, 70, 100
2, 17607, Note_on_c, 0, 70, 0
2, 17610, Note_on_c, 0, 72, 100
2, 17637, Note_on_c, 0, 72, 0
2, 17640, Note_on_c, 0, 70, 100
2, 17748, Note_on_c, 0, 70, 0
2, 17760, Note_on_c, 0, 72, 100
2, 17868, Note_on_c, 0, 72, 0
2, 17880, Note_on_c, 0, 74, 100
2, 18027, Note_on_c, 0, 74, 0
2, 18030, Note_on_c, 0, 70, 100
2, 18057, Note_on_c, 0, 70, 0
2, 18060, Note_on_c, 0, 72, 100
2, 18087, Note_on_c, 0, 72, 0
2, 18090, Note_on_c, 0, 74, 100
2, 18117, Note_on_c, 0, 74, 0
2, 18120, Note_on_c, 0, 72, 100
2, 18147, Note_on_c, 0, 72, 0
2, 18150, Note_on_c, 0, 69, 100
2, 18177, Note_on_c, 0, 69, 0
2, 18180, Note_on_c, 0, 70, 100
2, 18207, Note_on_c, 0, 70, 0
2, 18210, Note_on_c, 0, 72, 100
2, 18237, Note_on_c, 0, 72, 0
2, 18240, Note_on_c, 0, 70, 100
2, 18267, Note_on_c, 0, 70, 0
2, 18270, Note_on_c, 0, 67, 100
2, 18297, Note_on_c, 0, 67, 0
2, 18300, Note_on_c, 0, 69, 100
2, 18327, Note_on_c, 0, 69, 0
2, 18330, Note_on_c, 0, 70, 100
2, 18357, Note_on_c, 0, 70, 0
2, 18360, Note_on_c, 0, 69, 100
2, 18774, Note_on_c, 0, 69, 0
2, 18780, Note_on_c, 0, 67, 100
2, 18807, Note_on_c, 0, 67, 0
2, 18810, Note_on_c, 0, 69, 100
2, 18837, Note_on_c, 0, 69, 0
2, 18840, Note_on_c, 0, 71, 100
2, 18894, Note_on_c, 0, 71, 0
2, 18900, Note_on_c, 0, 71, 100
2, 18927, Note_on_c, 0, 71, 0
2, 18930, Note_on_c, 0, 72, 100
2, 18957, Note_on_c, 0, 72, 0
2, 18960, Note_on_c, 0, 74, 100
2, 19014, Note_on_c, 0, 74, 0
2, 19020, Note_on_c, 0, 74, 100
2, 19047, Note_on_c, 0, 74, 0
2, 19050, Note_on_c, 0, 76, 100
2, 19077, Note_on_c, 0, 76, 0
2, 19080, Note_on_c, 0, 77, 100
2, 19134, Note_on_c, 0, 77, 0
2, 19140, Note_on_c, 0, 76, 100
2, 19167, Note_on_c, 0, 76, 0
2, 19170, Note_on_c, 0, 77, 100
2, 19197, Note_on_c, 0, 77, 0
2, 19200, Note_on_c, 0, 79, 100
2, 19254, Note_on_c, 0, 79, 0
2, 19260, Note_on_c, 0, 76, 100
2, 19314, Note_on_c, 0, 76, 0
2, 19320, Note_on_c, 0, 72, 100
2, 19548, Note_on_c, 0, 72, 0
2, 19560, Note_on_c, 0, 77, 100
2, 19668, Note_on_c, 0, 77, 0
2, 19680, Note_on_c, 0, 81, 100
2, 19827, Note_on_c, 0, 81, 0
2, 19830, Note_on_c, 0, 79, 100
2, 19857, Note_on_c, 0, 79, 0
2, 19860, Note_on_c, 0, 78, 100
2, 19887, Note_on_c, 0, 78, 0
2, 19890, Note_on_c, 0, 79, 100
2, 19917, Note_on_c, 0, 79, 0
2, 19920, Note_on_c, 0, 86, 100
2, 20187, Note_on_c, 0, 86, 0
2, 20190, Note_on_c, 0, 84, 100
2, 20217, Note_on_c, 0, 84, 0
2, 20220, Note_on_c, 0, 83, 100
2, 20274, Note_on_c, 0, 83, 0
2, 20280, Note_on_c, 0, 84, 100
2, 20334, Note_on_c, 0, 84, 0
2, 20340, Note_on_c, 0, 79, 100
2, 20448, Note_on_c, 0, 79, 0
2, 20460, Note_on_c, 0, 81, 100
2, 20514, Note_on_c, 0, 81, 0
2, 20520, Note_on_c, 0, 74, 100
2, 20736, Note_on_c, 0, 74, 0
2, 20760, Note_on_c, 0, 76, 100
2, 20868, Note_on_c, 0, 76, 0
2, 20880, Note_on_c, 0, 77, 100
2, 20916, Note_on_c, 0, 77, 0
2, 20920, Note_on_c, 0, 76, 100
2, 20956, Note_on_c, 0, 76, 0
2, 20960, Note_on_c, 0, 77, 100
2, 20996, Note_on_c, 0, 77, 0
2, 21000, Note_on_c, 0, 86, 100
2, 21108, Note_on_c, 0, 86, 0
2, 21120, Note_on_c, 0, 77, 100
2, 21348, Note_on_c, 0, 77, 0
2, 21360, Note_on_c, 0, 76, 100
2, 21468, Note_on_c, 0, 76, 0
2, 21480, Note_on_c, 0, 79, 100
2, 21708, Note_on_c, 0, 79, 0
2, 21720, Note_on_c, 0, 78, 100
2, 22068, Note_on_c, 0, 78, 0
2, 22080, Note_on_c, 0, 79, 100
2, 22134, Note_on_c, 0, 79, 0
2, 22140, Note_on_c, 0, 81, 100
2, 22167, Note_on_c, 0, 81, 0
2, 22170, Note_on_c, 0, 82, 100
2, 22197, Note_on_c, 0, 82, 0
2, 22200, Note_on_c, 0, 81, 100
2, 22227, Note_on_c, 0, 81, 0
2, 22230, Note_on_c, 0, 79, 100
2, 22257, Note_on_c, 0, 79, 0
2, 22260, Note_on_c, 0, 77, 100
2, 22287, Note_on_c, 0, 77, 0
2, 22290, Note_on_c, 0, 76, 100
2, 22317, Note_on_c, 0, 76, 0
2, 22320, Note_on_c, 0, 74, 100
2, 22347, Note_on_c, 0, 74, 0
2, 22350, Note_on_c, 0, 73, 100
2, 22377, Note_on_c, 0, 73, 0
2, 22380, Note_on_c, 0, 74, 100
2, 22488, Note_on_c, 0, 74, 0
2, 22500, Note_on_c, 0, 80, 100
2, 22527, Note_on_c, 0, 80, 0
2, 22530, Note_on_c, 0, 81, 100
2, 22557, Note_on_c, 0, 81, 0
2, 22560, Note_on_c, 0, 83, 100
2, 22614, Note_on_c, 0, 83, 0
2, 22620, Note_on_c, 0, 74, 100
2, 22674, Note_on_c, 0, 74, 0
2, 22680, Note_on_c, 0, 74, 100
2, 22788, Note_on_c, 0, 74, 0
2, 22800, Note_on_c, 0, 73, 100
2, 22854, Note_on_c, 0, 73, 0
2, 22860, Note_on_c, 0, 76, 100
2, 22914, Note_on_c, 0, 76, 0
2, 22920, Note_on_c, 0, 79, 100
2, 23148, Note_on_c, 0, 79, 0
2, 23160, Note_on_c, 0, 78, 100
2, 23268, Note_on_c, 0, 78, 0
2, 23280, Note_on_c, 0, 77, 100
2, 23454, Note_on_c, 0, 77, 0
2, 23460, Note_on_c, 0, 76, 100
2, 23487, Note_on_c, 0, 76, 0
2, 23490, Note_on_c, 0, 74, 100
2, 23517, Note_on_c, 0, 74, 0
2, 23520, Note_on_c, 0, 76, 100
2, 23574, Note_on_c, 0, 76, 0
2, 23580, Note_on_c, 0, 78, 100
2, 23607, Note_on_c, 0, 78, 0
2, 23610, Note_on_c, 0, 79, 100
2, 23637, Note_on_c, 0, 79, 0
2, 23640, Note_on_c, 0, 78, 100
2, 23694, Note_on_c, 0, 78, 0
2, 23700, Note_on_c, 0, 79, 100
2, 23727, Note_on_c, 0, 79, 0
2, 23730, Note_on_c, 0, 81, 100
2, 23757, Note_on_c, 0, 81, 0
2, 23760, Note_on_c, 0, 79, 100
2, 24228, Note_on_c, 0, 79, 0
2, 24240, Note_on_c, 0, 78, 100
2, 24348, Note_on_c, 0, 78, 0
2, 24360, Note_on_c, 0, 77, 100
2, 24588, Note_on_c, 0, 77, 0
2, 24600, Note_on_c, 0, 76, 100
2, 24708, Note_on_c, 0, 76, 0
2, 24720, Note_on_c, 0, 75, 100
2, 24894, Note_on_c, 0, 75, 0
2, 24900, Note_on_c, 0, 74, 100
2, 24927, Note_on_c, 0, 74, 0
2, 24930, Note_on_c, 0, 72, 100
2, 24957, Note_on_c, 0, 72, 0
2, 24960, Note_on_c, 0, 74, 100
2, 25014, Note_on_c, 0, 74, 0
2, 25020, Note_on_c, 0, 76, 100
2, 25047, Note_on_c, 0, 76, 0
2, 25050, Note_on_c, 0, 77, 100
2, 25077, Note_on_c, 0, 77, 0
2, 25080, Note_on_c, 0, 76, 100
2, 25134, Note_on_c, 0, 76, 0
2, 25140, Note_on_c, 0, 77, 100
2, 25167, Note_on_c, 0, 77, 0
2, 25170, Note_on_c, 0, 79, 100
2, 25197, Note_on_c, 0, 79, 0
2, 25200, Note_on_c, 0, 77, 100
2, 25668, Note_on_c, 0, 77, 0
2, 25680, Note_on_c, 0, 76, 100
2, 25788, Note_on_c, 0, 76, 0
2, 25920, Note_on_c, 0, 67, 100
2, 25974, Note_on_c, 0, 67, 0
2, 25980, Note_on_c, 0, 72, 100
2, 26007, Note_on_c, 0, 72, 0
2, 26010, Note_on_c, 0, 74, 100
2, 26037, Note_on_c, 0, 74, 0
2, 26040, Note_on_c, 0, 76, 100
2, 26094, Note_on_c, 0, 76, 0
2, 26100, Note_on_c, 0, 76, 100
2, 26127, Note_on_c, 0, 76, 0
2, 26130, Note_on_c, 0, 77, 100
2, 26157, Note_on_c, 0, 77, 0
2, 26160, Note_on_c, 0, 79, 100
2, 26214, Note_on_c, 0, 79, 0
2, 26220, Note_on_c, 0, 79, 100
2, 26247, Note_on_c, 0, 79, 0
2, 26250, Note_on_c, 0, 77, 100
2, 26277, Note_on_c, 0, 77, 0
2, 26280, Note_on_c, 0, 76, 100
2, 26334, Note_on_c, 0, 76, 0
2, 26340, Note_on_c, 0, 76, 100
2, 26367, Note_on_c, 0, 76, 0
2, 26370, Note_on_c, 0, 77, 100
2, 26397, Note_on_c, 0, 77, 0
2, 26400, Note_on_c, 0, 79, 100
2, 26454, Note_on_c, 0, 79, 0
2, 26460, Note_on_c, 0, 79, 100
2, 26487, Note_on_c, 0, 79, 0
2, 26490, Note_on_c, 0, 81, 100
2, 26517, Note_on_c, 0, 81, 0
2, 26520, Note_on_c, 0, 82, 100
2, 26574, Note_on_c, 0, 82, 0
2, 26580, Note_on_c, 0, 81, 100
2, 26607, Note_on_c, 0, 81, 0
2, 26610, Note_on_c, 0, 79, 100
2, 26637, Note_on_c, 0, 79, 0
2, 26640, Note_on_c, 0, 77, 100
2, 27108, Note_on_c, 0, 77, 0
2, 27120, Note_on_c, 0, 76, 100
2, 27228, Note_on_c, 0, 76, 0
2, 27360, Note_on_c, 0, 76, 100
2, 27522, Note_on_c, 0, 76, 0
2, 27540, Note_on_c, 0, 77, 100
2, 27567, Note_on_c, 0, 77, 0
2, 27570, Note_on_c, 0, 76, 100
2, 27597, Note_on_c, 0, 76, 0
2, 27600, Note_on_c, 0, 74, 100
2, 27627, Note_on_c, 0, 74, 0
2, 27630, Note_on_c, 0, 72, 100
2, 27657, Note_on_c, 0, 72, 0
2, 27660, Note_on_c, 0, 71, 100
2, 27687, Note_on_c, 0, 71, 0
2, 27690, Note_on_c, 0, 69, 100
2, 27717, Note_on_c, 0, 69, 0
2, 27720, Note_on_c, 0, 67, 100
2, 27828, Note_on_c, 0, 67, 0
2, 27840, Note_on_c, 0, 69, 100
2, 27948, Note_on_c, 0, 69, 0
2, 27960, Note_on_c, 0, 71, 100
2, 28068, Note_on_c, 0, 71, 0
2, 28080, Note_on_c, 0, 72, 100
2, 28107, Note_on_c, 0, 72, 0
2, 28110, Note_on_c, 0, 71, 100
2, 28137, Note_on_c, 0, 71, 0
2, 28140, Note_on_c, 0, 69, 100
2, 28248, Note_on_c, 0, 69, 0
2, 28260, Note_on_c, 0, 74, 100
2, 28368, Note_on_c, 0, 74, 0
2, 28380, Note_on_c, 0, 65, 100
2, 28434, Note_on_c, 0, 65, 0
2, 28440, Note_on_c, 0, 65, 100
2, 28548, Note_on_c, 0, 65, 0
2, 28560, Note_on_c, 0, 64, 100
2, 28668, Note_on_c, 0, 64, 0
2, 28860, Note_on_c, 0, 79, 100
2, 28914, Note_on_c, 0, 79, 0
2, 28920, Note_on_c, 0, 74, 100
2, 28974, Note_on_c, 0, 74, 0
2, 28980, Note_on_c, 0, 71, 100
2, 29034, Note_on_c, 0, 71, 0
2, 29040, Note_on_c, 0, 67, 100
2, 29094, Note_on_c, 0, 67, 0
2, 29100, Note_on_c, 0, 79, 100
2, 29154, Note_on_c, 0, 79, 0
2, 29220, Note_on_c, 0, 72, 100
2, 29274, Note_on_c, 0, 72, 0
2, 29280, Note_on_c, 0, 69, 100
2, 29334, Note_on_c, 0, 69, 0
2, 29340, Note_on_c, 0, 66, 100
2, 29394, Note_on_c, 0, 66, 0
2, 29400, Note_on_c, 0, 62, 100
2, 29454, Note_on_c, 0, 62, 0
2, 29460, Note_on_c, 0, 74, 100
2, 29514, Note_on_c, 0, 74, 0
2, 29580, Note_on_c, 0, 76, 100
2, 29634, Note_on_c, 0, 76, 0
2, 29640, Note_on_c, 0, 72, 100
2, 29694, Note_on_c, 0, 72, 0
2, 29700, Note_on_c, 0, 69, 100
2, 29754, Note_on_c, 0, 69, 0
2, 29760, Note_on_c, 0, 81, 100
2, 29814, Note_on_c, 0, 81, 0
2, 29820, Note_on_c, 0, 74, 100
2, 29874, Note_on_c, 0, 74, 0
2, 29940, Note_on_c, 0, 74, 100
2, 29994, Note_on_c, 0, 74, 0
2, 30000, Note_on_c, 0, 67, 100
2, 30054, Note_on_c, 0, 67, 0
2, 30060, Note_on_c, 0, 71, 100
2, 30114, Note_on_c, 0, 71, 0
2, 30120, Note_on_c, 0, 62, 100
2, 30174, Note_on_c, 0, 62, 0
2, 30180, Note_on_c, 0, 67, 100
2, 30234, Note_on_c, 0, 67, 0
2, 30300, Note_on_c, 0, 67, 100
2, 30354, Note_on_c, 0, 67, 0
2, 30360, Note_on_c, 0, 64, 100
2, 30414, Note_on_c, 0, 64, 0
2, 30420, Note_on_c, 0, 73, 100
2, 30474, Note_on_c, 0, 73, 0
2, 30480, Note_on_c, 0, 70, 100
2, 30534, Note_on_c, 0, 70, 0
2, 30540, Note_on_c, 0, 79, 100
2, 30594, Note_on_c, 0, 79, 0
2, 30660, Note_on_c, 0, 64, 100
2, 30714, Note_on_c, 0, 64, 0
2, 30720, Note_on_c, 0, 62, 100
2, 30774, Note_on_c, 0, 62, 0
2, 30780, Note_on_c, 0, 69, 100
2, 30834, Note_on_c, 0, 69, 0
2, 30840, Note_on_c, 0, 65, 100
2, 30894, Note_on_c, 0, 65, 0
2, 30900, Note_on_c, 0, 74, 100
2, 30954, Note_on_c, 0, 74, 0
2, 31020, Note_on_c, 0, 72, 100
2, 31074, Note_on_c, 0, 72, 0
2, 31080, Note_on_c, 0, 69, 100
2, 31134, Note_on_c, 0, 69, 0
2, 31140, Note_on_c, 0, 78, 100
2, 31194, Note_on_c, 0, 78, 0
2, 31200, Note_on_c, 0, 75, 100
2, 31254, Note_on_c, 0, 75, 0
2, 31260, Note_on_c, 0, 83, 100
2, 31314, Note_on_c, 0, 83, 0
2, 31380, Note_on_c, 0, 72, 100
2, 31434, Note_on_c, 0, 72, 0
2, 31440, Note_on_c, 0, 71, 100
2, 31494, Note_on_c, 0, 71, 0
2, 31500, Note_on_c, 0, 69, 100
2, 31554, Note_on_c, 0, 69, 0
2, 31560, Note_on_c, 0, 77, 100
2, 31614, Note_on_c, 0, 77, 0
2, 31620, Note_on_c, 0, 76, 100
2, 31674, Note_on_c, 0, 76, 0
2, 31740, Note_on_c, 0, 76, 100
2, 31794, Note_on_c, 0, 76, 0
2, 31800, Note_on_c, 0, 72, 100
2, 31854, Note_on_c, 0, 72, 0
2, 31860, Note_on_c, 0, 69, 100
2, 31914, Note_on_c, 0, 69, 0
2, 31920, Note_on_c, 0, 68, 100
2, 31974, Note_on_c, 0, 68, 0
2, 31980, Note_on_c, 0, 69, 100
2, 32034, Note_on_c, 0, 69, 0
2, 32100, Note_on_c, 0, 74, 100
2, 32154, Note_on_c, 0, 74, 0
2, 32160, Note_on_c, 0, 71, 100
2, 32214, Note_on_c, 0, 71, 0
2, 32220, Note_on_c, 0, 68, 100
2, 32274, Note_on_c, 0, 68, 0
2, 32280, Note_on_c, 0, 64, 100
2, 32334, Note_on_c, 0, 64, 0
2, 32340, Note_on_c, 0, 76, 100
2, 32394, Note_on_c, 0, 76, 0
2, 32460, Note_on_c, 0, 77, 100
2, 32514, Note_on_c, 0, 77, 0
2, 32520, Note_on_c, 0, 74, 100
2, 32574, Note_on_c, 0, 74, 0
2, 32580, Note_on_c, 0, 71, 100
2, 32634, Note_on_c, 0, 71, 0
2, 32640, Note_on_c, 0, 83, 100
2, 32694, Note_on_c, 0, 83, 0
2, 32700, Note_on_c, 0, 76, 100
2, 32754, Note_on_c, 0, 76, 0
2, 32820, Note_on_c, 0, 77, 100
2, 32874, Note_on_c, 0, 77, 0
2, 32880, Note_on_c, 0, 76, 100
2, 32934, Note_on_c, 0, 76, 0
2, 32940, Note_on_c, 0, 68, 100
2, 32994, Note_on_c, 0, 68, 0
2, 33000, Note_on_c, 0, 69, 100
2, 33054, Note_on_c, 0, 69, 0
2, 33060, Note_on_c, 0, 72, 100
2, 33114, Note_on_c, 0, 72, 0
2, 33120, Note_on_c, 0, 70, 100
2, 33228, Note_on_c, 0, 70, 0
2, 33300, Note_on_c, 0, 69, 100
2, 33354, Note_on_c, 0, 69, 0
2, 33360, Note_on_c, 0, 68, 100
2, 33414, Note_on_c, 0, 68, 0
2, 33420, Note_on_c, 0, 71, 100
2, 33474, Note_on_c, 0, 71, 0
2, 33480, Note_on_c, 0, 64, 100
2, 33588, Note_on_c, 0, 64, 0
2, 33660, Note_on_c, 0, 69, 100
2, 33714, Note_on_c, 0, 69, 0
2, 33720, Note_on_c, 0, 71, 100
2, 33774, Note_on_c, 0, 71, 0
2, 33780, Note_on_c, 0, 68, 100
2, 33834, Note_on_c, 0, 68, 0
2, 33840, Note_on_c, 0, 69, 100
2, 33894, Note_on_c, 0, 69, 0
2, 33900, Note_on_c, 0, 72, 100
2, 33954, Note_on_c, 0, 72, 0
2, 33960, Note_on_c, 0, 77, 100
2, 34014, Note_on_c, 0, 77, 0
2, 34020, Note_on_c, 0, 74, 100
2, 34074, Note_on_c, 0, 74, 0
2, 34080, Note_on_c, 0, 74, 100
2, 34134, Note_on_c, 0, 74, 0
2, 34140, Note_on_c, 0, 71, 100
2, 34194, Note_on_c, 0, 71, 0
2, 34260, Note_on_c, 0, 65, 100
2, 34314, Note_on_c, 0, 65, 0
2, 34320, Note_on_c, 0, 64, 100
2, 34374, Note_on_c, 0, 64, 0
2, 34380, Note_on_c, 0, 69, 100
2, 34434, Note_on_c, 0, 69, 0
2, 34440, Note_on_c, 0, 72, 100
2, 34494, Note_on_c, 0, 72, 0
2, 34500, Note_on_c, 0, 69, 100
2, 34554, Note_on_c, 0, 69, 0
2, 34560, Note_on_c, 0, 81, 100
2, 34668, Note_on_c, 0, 81, 0
2, 34740, Note_on_c, 0, 69, 100
2, 34794, Note_on_c, 0, 69, 0
2, 34800, Note_on_c, 0, 66, 100
2, 34854, Note_on_c, 0, 66, 0
2, 34860, Note_on_c, 0, 62, 100
2, 34914, Note_on_c, 0, 62, 0
2, 34920, Note_on_c, 0, 74, 100
2, 35028, Note_on_c, 0, 74, 0
2, 35100, Note_on_c, 0, 69, 100
2, 35154, Note_on_c, 0, 69, 0
2, 35160, Note_on_c, 0, 74, 100
2, 35214, Note_on_c, 0, 74, 0
2, 35220, Note_on_c, 0, 67, 100
2, 35274, Note_on_c, 0, 67, 0
2, 35280, Note_on_c, 0, 79, 100
2, 35388, Note_on_c, 0, 79, 0
2, 35460, Note_on_c, 0, 74, 100
2, 35514, Note_on_c, 0, 74, 0
2, 35520, Note_on_c, 0, 79, 100
2, 35574, Note_on_c, 0, 79, 0
2, 35580, Note_on_c, 0, 72, 100
2, 35634, Note_on_c, 0, 72, 0
2, 35640, Note_on_c, 0, 84, 100
2, 35748, Note_on_c, 0, 84, 0
2, 35820, Note_on_c, 0, 74, 100
2, 35874, Note_on_c, 0, 74, 0
2, 35880, Note_on_c, 0, 69, 100
2, 35934, Note_on_c, 0, 69, 0
2, 35940, Note_on_c, 0, 72, 100
2, 35994, Note_on_c, 0, 72, 0
2, 36000, Note_on_c, 0, 77, 100
2, 36054, Note_on_c, 0, 77, 0
2, 36060, Note_on_c, 0, 79, 100
2, 36114, Note_on_c, 0, 79, 0
2, 36120, Note_on_c, 0, 74, 100
2, 36174, Note_on_c, 0, 74, 0
2, 36180, Note_on_c, 0, 71, 100
2, 36234, Note_on_c, 0, 71, 0
2, 36240, Note_on_c, 0, 67, 100
2, 36294, Note_on_c, 0, 67, 0
2, 36300, Note_on_c, 0, 79, 100
2, 36354, Note_on_c, 0, 79, 0
2, 36420, Note_on_c, 0, 79, 100
2, 36474, Note_on_c, 0, 79, 0
2, 36480, Note_on_c, 0, 76, 100
2, 36534, Note_on_c, 0, 76, 0
2, 36540, Note_on_c, 0, 72, 100
2, 36594, Note_on_c, 0, 72, 0
2, 36600, Note_on_c, 0, 67, 100
2, 36654, Note_on_c, 0, 67, 0
2, 36660, Note_on_c, 0, 72, 100
2, 36714, Note_on_c, 0, 72, 0
2, 36780, Note_on_c, 0, 72, 100
2, 36834, Note_on_c, 0, 72, 0
2, 36840, Note_on_c, 0, 69, 100
2, 36894, Note_on_c, 0, 69, 0
2, 36900, Note_on_c, 0, 72, 100
2, 36954, Note_on_c, 0, 72, 0
2, 36960, Note_on_c, 0, 77, 100
2, 37014, Note_on_c, 0, 77, 0
2, 37020, Note_on_c, 0, 69, 100
2, 37074, Note_on_c, 0, 69, 0
2, 37140, Note_on_c, 0, 74, 100
2, 37194, Note_on_c, 0, 74, 0
2, 37200, Note_on_c, 0, 71, 100
2, 37254, Note_on_c, 0, 71, 0
2, 37260, Note_on_c, 0, 74, 100
2, 37314, Note_on_c, 0, 74, 0
2, 37320, Note_on_c, 0, 79, 100
2, 37374, Note_on_c, 0, 79, 0
2, 37380, Note_on_c, 0, 77, 100
2, 37434, Note_on_c, 0, 77, 0
2, 37500, Note_on_c, 0, 67, 100
2, 37554, Note_on_c, 0, 67, 0
2, 37560, Note_on_c, 0, 79, 100
2, 37614, Note_on_c, 0, 79, 0
2, 37620, Note_on_c, 0, 76, 100
2, 37674, Note_on_c, 0, 76, 0
2, 37680, Note_on_c, 0, 72, 100
2, 37734, Note_on_c, 0, 72, 0
2, 37740, Note_on_c, 0, 84, 100
2, 37794, Note_on_c, 0, 84, 0
2, 37860, Note_on_c, 0, 77, 100
2, 37914, Note_on_c, 0, 77, 0
2, 37920, Note_on_c, 0, 74, 100
2, 37974, Note_on_c, 0, 74, 0
2, 37980, Note_on_c, 0, 71, 100
2, 38034, Note_on_c, 0, 71, 0
2, 38040, Note_on_c, 0, 67, 100
2, 38094, Note_on_c, 0, 67, 0
2, 38100, Note_on_c, 0, 79, 100
2, 38154, Note_on_c, 0, 79, 0
2, 38220, Note_on_c, 0, 81, 100
2, 38274, Note_on_c, 0, 81, 0
2, 38280, Note_on_c, 0, 77, 100
2, 38334, Note_on_c, 0, 77, 0
2, 38340, Note_on_c, 0, 74, 100
2, 38394, Note_on_c, 0, 74, 0
2, 38400, Note_on_c, 0, 86, 100
2, 38454, Note_on_c, 0, 86, 0
2, 38460, Note_on_c, 0, 79, 100
2, 38514, Note_on_c, 0, 79, 0
2, 38580, Note_on_c, 0, 79, 100
2, 38634, Note_on_c, 0, 79, 0
2, 38640, Note_on_c, 0, 79, 100
2, 38694, Note_on_c, 0, 79, 0
2, 38700, Note_on_c, 0, 76, 100
2, 38754, Note_on_c, 0, 76, 0
2, 38760, Note_on_c, 0, 76, 100
2, 38814, Note_on_c, 0, 76, 0
2, 38820, Note_on_c, 0, 72, 100
2, 38874, Note_on_c, 0, 72, 0
2, 38940, Note_on_c, 0, 72, 100
2, 38994, Note_on_c, 0, 72, 0
2, 39000, Note_on_c, 0, 69, 100
2, 39054, Note_on_c, 0, 69, 0
2, 39060, Note_on_c, 0, 72, 100
2, 39114, Note_on_c, 0, 72, 0
2, 39120, Note_on_c, 0, 75, 100
2, 39174, Note_on_c, 0, 75, 0
2, 39180, Note_on_c, 0, 72, 100
2, 39234, Note_on_c, 0, 72, 0
2, 39300, Note_on_c, 0, 72, 100
2, 39354, Note_on_c, 0, 72, 0
2, 39360, Note_on_c, 0, 70, 100
2, 39414, Note_on_c, 0, 70, 0
2, 39420, Note_on_c, 0, 67, 100
2, 39474, Note_on_c, 0, 67, 0
2, 39480, Note_on_c, 0, 62, 100
2, 39534, Note_on_c, 0, 62, 0
2, 39540, Note_on_c, 0, 74, 100
2, 39594, Note_on_c, 0, 74, 0
2, 39660, Note_on_c, 0, 77, 100
2, 39714, Note_on_c, 0, 77, 0
2, 39720, Note_on_c, 0, 74, 100
2, 39774, Note_on_c, 0, 74, 0
2, 39780, Note_on_c, 0, 71, 100
2, 39834, Note_on_c, 0, 71, 0
2, 39840, Note_on_c, 0, 68, 100
2, 39894, Note_on_c, 0, 68, 0
2, 39900, Note_on_c, 0, 71, 100
2, 39954, Note_on_c, 0, 71, 0
2, 40020, Note_on_c, 0, 64, 100
2, 40074, Note_on_c, 0, 64, 0
2, 40080, Note_on_c, 0, 69, 100
2, 40134, Note_on_c, 0, 69, 0
2, 40140, Note_on_c, 0, 73, 100
2, 40194, Note_on_c, 0, 73, 0
2, 40200, Note_on_c, 0, 74, 100
2, 40254, Note_on_c, 0, 74, 0
2, 40260, Note_on_c, 0, 70, 100
2, 40314, Note_on_c, 0, 70, 0
2, 40320, Note_on_c, 0, 69, 100
2, 40428, Note_on_c, 0, 69, 0
2, 40500, Note_on_c, 0, 62, 100
2, 40554, Note_on_c, 0, 62, 0
2, 40560, Note_on_c, 0, 69, 100
2, 40614, Note_on_c, 0, 69, 0
2, 40620, Note_on_c, 0, 74, 100
2, 40674, Note_on_c, 0, 74, 0
2, 40680, Note_on_c, 0, 67, 100
2, 40788, Note_on_c, 0, 67, 0
2, 40860, Note_on_c, 0, 64, 100
2, 40914, Note_on_c, 0, 64, 0
2, 40920, Note_on_c, 0, 69, 100
2, 40974, Note_on_c, 0, 69, 0
2, 40980, Note_on_c, 0, 63, 100
2, 41034, Note_on_c, 0, 63, 0
2, 41040, Note_on_c, 0, 64, 100
2, 41148, Note_on_c, 0, 64, 0
2, 41220, Note_on_c, 0, 76, 100
2, 41274, Note_on_c, 0, 76, 0
2, 41280, Note_on_c, 0, 64, 100
2, 41334, Note_on_c, 0, 64, 0
2, 41340, Note_on_c, 0, 62, 100
2, 41394, Note_on_c, 0, 62, 0
2, 41400, Note_on_c, 0, 62, 100
2, 41508, Note_on_c, 0, 62, 0
2, 41580, Note_on_c, 0, 62, 100
2, 41634, Note_on_c, 0, 62, 0
2, 41640, Note_on_c, 0, 74, 100
2, 41694, Note_on_c, 0, 74, 0
2, 41700, Note_on_c, 0, 71, 100
2, 41754, Note_on_c, 0, 71, 0
2, 41760, Note_on_c, 0, 69, 100
2, 41868, Note_on_c, 0, 69, 0
2, 41940, Note_on_c, 0, 81, 100
2, 41994, Note_on_c, 0, 81, 0
2, 42000, Note_on_c, 0, 69, 100
2, 42054, Note_on_c, 0, 69, 0
2, 42060, Note_on_c, 0, 67, 100
2, 42114, Note_on_c, 0, 67, 0
2, 42120, Note_on_c, 0, 67, 100
2, 42228, Note_on_c, 0, 67, 0
2, 42300, Note_on_c, 0, 67, 100
2, 42354, Note_on_c, 0, 67, 0
2, 42360, Note_on_c, 0, 79, 100
2, 42414, Note_on_c, 0, 79, 0
2, 42420, Note_on_c, 0, 76, 100
2, 42474, Note_on_c, 0, 76, 0
2, 42480, Note_on_c, 0, 74, 100
2, 42588, Note_on_c, 0, 74, 0
2, 42660, Note_on_c, 0, 62, 100
2, 42714, Note_on_c, 0, 62, 0
2, 42720, Note_on_c, 0, 74, 100
2, 42774, Note_on_c, 0, 74, 0
2, 42780, Note_on_c, 0, 72, 100
2, 42834, Note_on_c, 0, 72, 0
2, 42840, Note_on_c, 0, 72, 100
2, 42948, Note_on_c, 0, 72, 0
2, 43020, Note_on_c, 0, 72, 100
2, 43074, Note_on_c, 0, 72, 0
2, 43080, Note_on_c, 0, 77, 100
2, 43134, Note_on_c, 0, 77, 0
2, 43140, Note_on_c, 0, 76, 100
2, 43194, Note_on_c, 0, 76, 0
2, 43200, Note_on_c, 0, 76, 100
2, 43254, Note_on_c, 0, 76, 0
2, 43260, Note_on_c, 0, 84, 100
2, 43314, Note_on_c, 0, 84, 0
2, 43320, Note_on_c, 0, 79, 100
2, 43374, Note_on_c, 0, 79, 0
2, 43380, Note_on_c, 0, 76, 100
2, 43434, Note_on_c, 0, 76, 0
2, 43440, Note_on_c, 0, 72, 100
2, 43494, Note_on_c, 0, 72, 0
2, 43500, Note_on_c, 0, 76, 100
2, 43554, Note_on_c, 0, 76, 0
2, 43560, Note_on_c, 0, 67, 100
2, 43614, Note_on_c, 0, 67, 0
2, 43620, Note_on_c, 0, 72, 100
2, 43674, Note_on_c, 0, 72, 0
2, 43680, Note_on_c, 0, 76, 100
2, 43788, Note_on_c, 0, 76, 0
2, 43980, Note_on_c, 0, 71, 100
2, 44034, Note_on_c, 0, 71, 0
2, 44040, Note_on_c, 0, 74, 100
2, 44094, Note_on_c, 0, 74, 0
2, 44100, Note_on_c, 0, 71, 100
2, 44154, Note_on_c, 0, 71, 0
2, 44160, Note_on_c, 0, 67, 100
2, 44214, Note_on_c, 0, 67, 0
2, 44220, Note_on_c, 0, 71, 100
2, 44274, Note_on_c, 0, 71, 0
2, 44280, Note_on_c, 0, 62, 100
2, 44334, Note_on_c, 0, 62, 0
2, 44340, Note_on_c, 0, 67, 100
2, 44394, Note_on_c, 0, 67, 0
2, 44400, Note_on_c, 0, 71, 100
2, 44508, Note_on_c, 0, 71, 0
2, 44700, Note_on_c, 0, 76, 100
2, 44754, Note_on_c, 0, 76, 0
2, 44760, Note_on_c, 0, 72, 100
2, 44814, Note_on_c, 0, 72, 0
2, 44820, Note_on_c, 0, 69, 100
2, 44874, Note_on_c, 0, 69, 0
2, 44880, Note_on_c, 0, 81, 100
2, 44934, Note_on_c, 0, 81, 0
2, 44940, Note_on_c, 0, 74, 100
2, 44994, Note_on_c, 0, 74, 0
2, 45060, Note_on_c, 0, 72, 100
2, 45114, Note_on_c, 0, 72, 0
2, 45120, Note_on_c, 0, 69, 100
2, 45174, Note_on_c, 0, 69, 0
2, 45180, Note_on_c, 0, 65, 100
2, 45234, Note_on_c, 0, 65, 0
2, 45240, Note_on_c, 0, 62, 100
2, 45294, Note_on_c, 0, 62, 0
2, 45300, Note_on_c, 0, 74, 100
2, 45354, Note_on_c, 0, 74, 0
2, 45420, Note_on_c, 0, 72, 100
2, 45474, Note_on_c, 0, 72, 0
2, 45480, Note_on_c, 0, 76, 100
2, 45534, Note_on_c, 0, 76, 0
2, 45540, Note_on_c, 0, 81, 100
2, 45594, Note_on_c, 0, 81, 0
2, 45600, Note_on_c, 0, 74, 100
2, 45654, Note_on_c, 0, 74, 0
2, 45660, Note_on_c, 0, 83, 100
2, 45714, Note_on_c, 0, 83, 0
2, 45780, Note_on_c, 0, 67, 100
2, 45834, Note_on_c, 0, 67, 0
2, 45840, Note_on_c, 0, 79, 100
2, 45894, Note_on_c, 0, 79, 0
2, 45900, Note_on_c, 0, 76, 100
2, 45954, Note_on_c, 0, 76, 0
2, 45960, Note_on_c, 0, 71, 100
2, 46014, Note_on_c, 0, 71, 0
2, 46020, Note_on_c, 0, 72, 100
2, 46188, Note_on_c, 0, 72, 0
2, 46200, Note_on_c, 0, 79, 100
2, 46308, Note_on_c, 0, 79, 0
2, 46320, Note_on_c, 0, 82, 100
2, 46428, Note_on_c, 0, 82, 0
2, 46440, Note_on_c, 0, 81, 100
2, 46854, Note_on_c, 0, 81, 0
2, 46860, Note_on_c, 0, 80, 100
2, 46914, Note_on_c, 0, 80, 0
2, 46920, Note_on_c, 0, 81, 100
2, 46974, Note_on_c, 0, 81, 0
2, 46980, Note_on_c, 0, 72, 100
2, 47034, Note_on_c, 0, 72, 0
2, 47040, Note_on_c, 0, 69, 100
2, 47094, Note_on_c, 0, 69, 0
2, 47100, Note_on_c, 0, 71, 100
2, 47154, Note_on_c, 0, 71, 0
2, 47160, Note_on_c, 0, 71, 100
2, 47484, Note_on_c, 0, 71, 0
2, 47484, End_track
3, 0, Start_track
3, 0, Sequence_number, 65535
3, 0, MIDI_port, 0
3, 0, Title_t, "Violino concertato"
3, 0, Control_c, 1, 0, 0
3, 0, Control_c, 1, 32, 0
3, 0, Program_c, 1, 40
3, 0, Control_c, 1, 7, 100
3, 0, Control_c, 1, 10, 74
3, 5760, Note_on_c, 1, 67, 100
3, 5976, Note_on_c, 1, 67, 0
3, 6000, Note_on_c, 1, 69, 100
3, 6108, Note_on_c, 1, 69, 0
3, 6120, Note_on_c, 1, 62, 100
3, 6336, Note_on_c, 1, 62, 0
3, 6360, Note_on_c, 1, 64, 100
3, 6468, Note_on_c, 1, 64, 0
3, 6480, Note_on_c, 1, 65, 100
3, 6516, Note_on_c, 1, 65, 0
3, 6520, Note_on_c, 1, 64, 100
3, 6556, Note_on_c, 1, 64, 0
3, 6560, Note_on_c, 1, 65, 100
3, 6596, Note_on_c, 1, 65, 0
3, 6600, Note_on_c, 1, 74, 100
3, 6708, Note_on_c, 1, 74, 0
3, 6720, Note_on_c, 1, 65, 100
3, 6948, Note_on_c, 1, 65, 0
3, 6960, Note_on_c, 1, 64, 100
3, 7068, Note_on_c, 1, 64, 0
3, 7200, Note_on_c, 1, 72, 100
3, 7308, Note_on_c, 1, 72, 0
3, 7320, Note_on_c, 1, 71, 100
3, 7428, Note_on_c, 1, 71, 0
3, 7440, Note_on_c, 1, 70, 100
3, 7614, Note_on_c, 1, 70, 0
3, 7620, Note_on_c, 1, 69, 100
3, 7647, Note_on_c, 1, 69, 0
3, 7650, Note_on_c, 1, 67, 100
3, 7677, Note_on_c, 1, 67, 0
3, 7680, Note_on_c, 1, 69, 100
3, 7734, Note_on_c, 1, 69, 0
3, 7740, Note_on_c, 1, 71, 100
3, 7767, Note_on_c, 1, 71, 0
3, 7770, Note_on_c, 1, 72, 100
3, 7797, Note_on_c, 1, 72, 0
3, 7800, Note_on_c, 1, 71, 100
3, 7854, Note_on_c, 1, 71, 0
3, 7860, Note_on_c, 1, 72, 100
3, 7887, Note_on_c, 1, 72, 0
3, 7890, Note_on_c, 1, 74, 100
3, 7917, Note_on_c, 1, 74, 0
3, 7920, Note_on_c, 1, 72, 100
3, 8388, Note_on_c, 1, 72, 0
3, 8400, Note_on_c, 1, 71, 100
3, 8508, Note_on_c, 1, 71, 0
3, 8640, Note_on_c, 1, 62, 100
3, 8694, Note_on_c, 1, 62, 0
3, 8700, Note_on_c, 1, 67, 100
3, 8727, Note_on_c, 1, 67, 0
3, 8730, Note_on_c, 1, 69, 100
3, 8757, Note_on_c, 1, 69, 0
3, 8760, Note_on_c, 1, 71, 100
3, 8814, Note_on_c, 1, 71, 0
3, 8820, Note_on_c, 1, 71, 100
3, 8847, Note_on_c, 1, 71, 0
3, 8850, Note_on_c, 1, 72, 100
3, 8877, Note_on_c, 1, 72, 0
3, 8880, Note_on_c, 1, 74, 100
3, 8934, Note_on_c, 1, 74, 0
3, 8940, Note_on_c, 1, 74, 100
3, 8967, Note_on_c, 1, 74, 0
3, 8970, Note_on_c, 1, 72, 100
3, 8997, Note_on_c, 1, 72, 0
3, 9000, Note_on_c, 1, 71, 100
3, 9054, Note_on_c, 1, 71, 0
3, 9060, Note_on_c, 1, 71, 100
3, 9087, Note_on_c, 1, 71, 0
3, 9090, Note_on_c, 1, 72, 100
3, 9117, Note_on_c, 1, 72, 0
3, 9120, Note_on_c, 1, 74, 100
3, 9174, Note_on_c, 1, 74, 0
3, 9180, Note_on_c, 1, 74, 100
3, 9207, Note_on_c, 1, 74, 0
3, 9210, Note_on_c, 1, 76, 100
3, 9237, Note_on_c, 1, 76, 0
3, 9240, Note_on_c, 1, 77, 100
3, 9294, Note_on_c, 1, 77, 0
3, 9300, Note_on_c, 1, 76, 100
3, 9327, Note_on_c, 1, 76, 0
3, 9330, Note_on_c, 1, 74, 100
3, 9357, Note_on_c, 1, 74, 0
3, 9360, Note_on_c, 1, 72, 100
3, 9828, Note_on_c, 1, 72, 0
3, 9840, Note_on_c, 1, 71, 100
3, 9948, Note_on_c, 1, 71, 0
3, 10080, Note_on_c, 1, 71, 100
3, 10242, Note_on_c, 1, 71, 0
3, 10260, Note_on_c, 1, 72, 100
3, 10287, Note_on_c, 1, 72, 0
3, 10290, Note_on_c, 1, 71, 100
3, 10317, Note_on_c, 1, 71, 0
3, 10320, Note_on_c, 1, 69, 100
3, 10347, Note_on_c, 1, 69, 0
3, 10350, Note_on_c, 1, 67, 100
3, 10377, Note_on_c, 1, 67, 0
3, 10380, Note_on_c, 1, 66, 100
3, 10407, Note_on_c, 1, 66, 0
3, 10410, Note_on_c, 1, 64, 100
3, 10437, Note_on_c, 1, 64, 0
3, 10440, Note_on_c, 1, 62, 100
3, 10548, Note_on_c, 1, 62, 0
3, 10560, Note_on_c, 1, 64, 100
3, 10668, Note_on_c, 1, 64, 0
3, 10680, Note_on_c, 1, 66, 100
3, 10788, Note_on_c, 1, 66, 0
3, 10800, Note_on_c, 1, 67, 100
3, 10827, Note_on_c, 1, 67, 0
3, 10830, Note_on_c, 1, 66, 100
3, 10857, Note_on_c, 1, 66, 0
3, 10860, Note_on_c, 1, 64, 100
3, 10968, Note_on_c, 1, 64, 0
3, 10980, Note_on_c, 1, 69, 100
3, 11088, Note_on_c, 1, 69, 0
3, 11100, Note_on_c, 1, 60, 100
3, 11154, Note_on_c, 1, 60, 0
3, 11160, Note_on_c, 1, 60, 100
3, 11268, Note_on_c, 1, 60, 0
3, 11280, Note_on_c, 1, 59, 100
3, 11388, Note_on_c, 1, 59, 0
3, 28800, Note_on_c, 1, 71, 100
3, 29016, Note_on_c, 1, 71, 0
3, 29040, Note_on_c, 1, 72, 100
3, 29148, Note_on_c, 1, 72, 0
3, 29160, Note_on_c, 1, 66, 100
3, 29376, Note_on_c, 1, 66, 0
3, 29400, Note_on_c, 1, 67, 100
3, 29508, Note_on_c, 1, 67, 0
3, 29520, Note_on_c, 1, 69, 100
3, 29556, Note_on_c, 1, 69, 0
3, 29560, Note_on_c, 1, 67, 100
3, 29596, Note_on_c, 1, 67, 0
3, 29600, Note_on_c, 1, 69, 100
3, 29636, Note_on_c, 1, 69, 0
3, 29640, Note_on_c, 1, 62, 100
3, 29748, Note_on_c, 1, 62, 0
3, 29760, Note_on_c, 1, 66, 100
3, 29988, Note_on_c, 1, 66, 0
3, 30000, Note_on_c, 1, 67, 100
3, 30108, Note_on_c, 1, 67, 0
3, 30240, Note_on_c, 1, 61, 100
3, 30708, Note_on_c, 1, 61, 0
3, 30720, Note_on_c, 1, 62, 100
3, 30774, Note_on_c, 1, 62, 0
3, 30780, Note_on_c, 1, 65, 100
3, 30807, Note_on_c, 1, 65, 0
3, 30810, Note_on_c, 1, 64, 100
3, 30837, Note_on_c, 1, 64, 0
3, 30840, Note_on_c, 1, 62, 100
3, 30867, Note_on_c, 1, 62, 0
3, 30870, Note_on_c, 1, 60, 100
3, 30897, Note_on_c, 1, 60, 0
3, 30900, Note_on_c, 1, 59, 100
3, 30954, Note_on_c, 1, 59, 0
3, 30960, Note_on_c, 1, 57, 100
3, 30987, Note_on_c, 1, 57, 0
3, 30990, Note_on_c, 1, 56, 100
3, 31017, Note_on_c, 1, 56, 0
3, 31020, Note_on_c, 1, 57, 100
3, 31128, Note_on_c, 1, 57, 0
3, 31140, Note_on_c, 1, 63, 100
3, 31167, Note_on_c, 1, 63, 0
3, 31170, Note_on_c, 1, 64, 100
3, 31197, Note_on_c, 1, 64, 0
3, 31200, Note_on_c, 1, 66, 100
3, 31254, Note_on_c, 1, 66, 0
3, 31260, Note_on_c, 1, 57, 100
3, 31314, Note_on_c, 1, 57, 0
3, 31320, Note_on_c, 1, 57, 100
3, 31428, Note_on_c, 1, 57, 0
3, 31440, Note_on_c, 1, 56, 100
3, 31494, Note_on_c, 1, 56, 0
3, 31500, Note_on_c, 1, 57, 100
3, 31554, Note_on_c, 1, 57, 0
3, 31560, Note_on_c, 1, 59, 100
3, 31707, Note_on_c, 1, 59, 0
3, 31710, Note_on_c, 1, 57, 100
3, 31737, Note_on_c, 1, 57, 0
3, 31740, Note_on_c, 1, 56, 100
3, 31794, Note_on_c, 1, 56, 0
3, 31800, Note_on_c, 1, 57, 100
3, 31854, Note_on_c, 1, 57, 0
3, 31860, Note_on_c, 1, 64, 100
3, 31968, Note_on_c, 1, 64, 0
3, 31980, Note_on_c, 1, 65, 100
3, 32034, Note_on_c, 1, 65, 0
3, 32040, Note_on_c, 1, 59, 100
3, 32256, Note_on_c, 1, 59, 0
3, 32280, Note_on_c, 1, 60, 100
3, 32388, Note_on_c, 1, 60, 0
3, 32400, Note_on_c, 1, 62, 100
3, 32436, Note_on_c, 1, 62, 0
3, 32440, Note_on_c, 1, 60, 100
3, 32476, Note_on_c, 1, 60, 0
3, 32480, Note_on_c, 1, 62, 100
3, 32516, Note_on_c, 1, 62, 0
3, 32520, Note_on_c, 1, 71, 100
3, 32628, Note_on_c, 1, 71, 0
3, 32640, Note_on_c, 1, 62, 100
3, 32868, Note_on_c, 1, 62, 0
3, 32880, Note_on_c, 1, 60, 100
3, 32988, Note_on_c, 1, 60, 0
3, 33120, Note_on_c, 1, 65, 100
3, 33147, Note_on_c, 1, 65, 0
3, 33150, Note_on_c, 1, 64, 100
3, 33177, Note_on_c, 1, 64, 0
3, 33180, Note_on_c, 1, 62, 100
3, 33207, Note_on_c, 1, 62, 0
3, 33210, Note_on_c, 1, 65, 100
3, 33237, Note_on_c, 1, 65, 0
3, 33240, Note_on_c, 1, 64, 100
3, 33267, Note_on_c, 1, 64, 0
3, 33270, Note_on_c, 1, 62, 100
3, 33297, Note_on_c, 1, 62, 0
3, 33300, Note_on_c, 1, 60, 100
3, 33327, Note_on_c, 1, 60, 0
3, 33330, Note_on_c, 1, 64, 100
3, 33357, Note_on_c, 1, 64, 0
3, 33360, Note_on_c, 1, 62, 100
3, 33414, Note_on_c, 1, 62, 0
3, 33420, Note_on_c, 1, 68, 100
3, 33447, Note_on_c, 1, 68, 0
3, 33450, Note_on_c, 1, 71, 100
3, 33477, Note_on_c, 1, 71, 0
3, 33480, Note_on_c, 1, 74, 100
3, 33867, Note_on_c, 1, 74, 0
3, 33870, Note_on_c, 1, 72, 100
3, 33897, Note_on_c, 1, 72, 0
3, 33900, Note_on_c, 1, 71, 100
3, 33927, Note_on_c, 1, 71, 0
3, 33930, Note_on_c, 1, 69, 100
3, 33957, Note_on_c, 1, 69, 0
3, 33960, Note_on_c, 1, 71, 100
3, 34068, Note_on_c, 1, 71, 0
3, 34080, Note_on_c, 1, 68, 100
3, 34308, Note_on_c, 1, 68, 0
3, 34320, Note_on_c, 1, 69, 100
3, 34428, Note_on_c, 1, 69, 0
3, 34800, Note_on_c, 1, 69, 100
3, 34947, Note_on_c, 1, 69, 0
3, 34950, Note_on_c, 1, 66, 100
3, 34977, Note_on_c, 1, 66, 0
3, 34980, Note_on_c, 1, 67, 100
3, 35007, Note_on_c, 1, 67, 0
3, 35010, Note_on_c, 1, 69, 100
3, 35037, Note_on_c, 1, 69, 0
3, 35040, Note_on_c, 1, 67, 100
3, 35067, Note_on_c, 1, 67, 0
3, 35070, Note_on_c, 1, 64, 100
3, 35097, Note_on_c, 1, 64, 0
3, 35100, Note_on_c, 1, 65, 100
3, 35127, Note_on_c, 1, 65, 0
3, 35130, Note_on_c, 1, 67, 100
3, 35157, Note_on_c, 1, 67, 0
3, 35160, Note_on_c, 1, 65, 100
3, 35187, Note_on_c, 1, 65, 0
3, 35190, Note_on_c, 1, 62, 100
3, 35217, Note_on_c, 1, 62, 0
3, 35220, Note_on_c, 1, 64, 100
3, 35247, Note_on_c, 1, 64, 0
3, 35250, Note_on_c, 1, 65, 100
3, 35277, Note_on_c, 1, 65, 0
3, 35280, Note_on_c, 1, 64, 100
3, 35388, Note_on_c, 1, 64, 0
3, 35400, Note_on_c, 1, 65, 100
3, 35508, Note_on_c, 1, 65, 0
3, 35520, Note_on_c, 1, 67, 100
3, 35667, Note_on_c, 1, 67, 0
3, 35670, Note_on_c, 1, 64, 100
3, 35697, Note_on_c, 1, 64, 0
3, 35700, Note_on_c, 1, 65, 100
3, 35727, Note_on_c, 1, 65, 0
3, 35730, Note_on_c, 1, 67, 100
3, 35757, Note_on_c, 1, 67, 0
3, 35760, Note_on_c, 1, 65, 100
3, 35787, Note_on_c, 1, 65, 0
3, 35790, Note_on_c, 1, 62, 100
3, 35817, Note_on_c, 1, 62, 0
3, 35820, Note_on_c, 1, 64, 100
3, 35847, Note_on_c, 1, 64, 0
3, 35850, Note_on_c, 1, 65, 100
3, 35877, Note_on_c, 1, 65, 0
3, 35880, Note_on_c, 1, 64, 100
3, 35907, Note_on_c, 1, 64, 0
3, 35910, Note_on_c, 1, 60, 100
3, 35937, Note_on_c, 1, 60, 0
3, 35940, Note_on_c, 1, 62, 100
3, 35967, Note_on_c, 1, 62, 0
3, 35970, Note_on_c, 1, 64, 100
3, 35997, Note_on_c, 1, 64, 0
3, 36000, Note_on_c, 1, 62, 100
3, 36414, Note_on_c, 1, 62, 0
3, 36420, Note_on_c, 1, 60, 100
3, 36447, Note_on_c, 1, 60, 0
3, 36450, Note_on_c, 1, 62, 100
3, 36477, Note_on_c, 1, 62, 0
3, 36480, Note_on_c, 1, 64, 100
3, 36534, Note_on_c, 1, 64, 0
3, 36540, Note_on_c, 1, 64, 100
3, 36567, Note_on_c, 1, 64, 0
3, 36570, Note_on_c, 1, 65, 100
3, 36597, Note_on_c, 1, 65, 0
3, 36600, Note_on_c, 1, 67, 100
3, 36654, Note_on_c, 1, 67, 0
3, 36660, Note_on_c, 1, 67, 100
3, 36687, Note_on_c, 1, 67, 0
3, 36690, Note_on_c, 1, 69, 100
3, 36717, Note_on_c, 1, 69, 0
3, 36720, Note_on_c, 1, 70, 100
3, 36774, Note_on_c, 1, 70, 0
3, 36780, Note_on_c, 1, 69, 100
3, 36807, Note_on_c, 1, 69, 0
3, 36810, Note_on_c, 1, 70, 100
3, 36837, Note_on_c, 1, 70, 0
3, 36840, Note_on_c, 1, 72, 100
3, 36894, Note_on_c, 1, 72, 0
3, 36900, Note_on_c, 1, 69, 100
3, 36954, Note_on_c, 1, 69, 0
3, 36960, Note_on_c, 1, 65, 100
3, 37014, Note_on_c, 1, 65, 0
3, 37020, Note_on_c, 1, 74, 100
3, 37074, Note_on_c, 1, 74, 0
3, 37080, Note_on_c, 1, 71, 100
3, 37242, Note_on_c, 1, 71, 0
3, 37260, Note_on_c, 1, 69, 100
3, 37314, Note_on_c, 1, 69, 0
3, 37320, Note_on_c, 1, 67, 100
3, 37428, Note_on_c, 1, 67, 0
3, 37440, Note_on_c, 1, 76, 100
3, 37656, Note_on_c, 1, 76, 0
3, 37680, Note_on_c, 1, 77, 100
3, 37788, Note_on_c, 1, 77, 0
3, 37800, Note_on_c, 1, 71, 100
3, 38016, Note_on_c, 1, 71, 0
3, 38040, Note_on_c, 1, 72, 100
3, 38148, Note_on_c, 1, 72, 0
3, 38160, Note_on_c, 1, 74, 100
3, 38196, Note_on_c, 1, 74, 0
3, 38200, Note_on_c, 1, 72, 100
3, 38236, Note_on_c, 1, 72, 0
3, 38240, Note_on_c, 1, 74, 100
3, 38276, Note_on_c, 1, 74, 0
3, 38280, Note_on_c, 1, 67, 100
3, 38388, Note_on_c, 1, 67, 0
3, 38400, Note_on_c, 1, 71, 100
3, 38628, Note_on_c, 1, 71, 0
3, 38640, Note_on_c, 1, 72, 100
3, 38748, Note_on_c, 1, 72, 0
3, 38880, Note_on_c, 1, 63, 100
3, 38907, Note_on_c, 1, 63, 0
3, 38910, Note_on_c, 1, 62, 100
3, 38937, Note_on_c, 1, 62, 0
3, 38940, Note_on_c, 1, 63, 100
3, 39048, Note_on_c, 1, 63, 0
3, 39060, Note_on_c, 1, 69, 100
3, 39087, Note_on_c, 1, 69, 0
3, 39090, Note_on_c, 1, 70, 100
3, 39117, Note_on_c, 1, 70, 0
3, 39120, Note_on_c, 1, 72, 100
3, 39174, Note_on_c, 1, 72, 0
3, 39180, Note_on_c, 1, 63, 100
3, 39234, Note_on_c, 1, 63, 0
3, 39240, Note_on_c, 1, 63, 100
3, 39348, Note_on_c, 1, 63, 0
3, 39360, Note_on_c, 1, 62, 100
3, 39468, Note_on_c, 1, 62, 0
3, 39480, Note_on_c, 1, 69, 100
3, 39708, Note_on_c, 1, 69, 0
3, 39720, Note_on_c, 1, 68, 100
3, 40068, Note_on_c, 1, 68, 0
3, 40080, Note_on_c, 1, 69, 100
3, 40134, Note_on_c, 1, 69, 0
3, 40140, Note_on_c, 1, 70, 100
3, 40167, Note_on_c, 1, 70, 0
3, 40170, Note_on_c, 1, 69, 100
3, 40197, Note_on_c, 1, 69, 0
3, 40200, Note_on_c, 1, 67, 100
3, 40227, Note_on_c, 1, 67, 0
3, 40230, Note_on_c, 1, 65, 100
3, 40257, Note_on_c, 1, 65, 0
3, 40260, Note_on_c, 1, 64, 100
3, 40287, Note_on_c, 1, 64, 0
3, 40290, Note_on_c, 1, 62, 100
3, 40317, Note_on_c, 1, 62, 0
3, 40320, Note_on_c, 1, 64, 100
3, 40428, Note_on_c, 1, 64, 0
3, 40440, Note_on_c, 1, 57, 100
3, 40548, Note_on_c, 1, 57, 0
3, 40920, Note_on_c, 1, 72, 100
3, 41148, Note_on_c, 1, 72, 0
3, 41160, Note_on_c, 1, 71, 100
3, 41268, Note_on_c, 1, 71, 0
3, 41280, Note_on_c, 1, 70, 100
3, 41454, Note_on_c, 1, 70, 0
3, 41460, Note_on_c, 1, 69, 100
3, 41487, Note_on_c, 1, 69, 0
3, 41490, Note_on_c, 1, 67, 100
3, 41517, Note_on_c, 1, 67, 0
3, 41520, Note_on_c, 1, 69, 100
3, 41574, Note_on_c, 1, 69, 0
3, 41580, Note_on_c, 1, 71, 100
3, 41607, Note_on_c, 1, 71, 0
3, 41610, Note_on_c, 1, 72, 100
3, 41637, Note_on_c, 1, 72, 0
3, 41640, Note_on_c, 1, 71, 100
3, 41694, Note_on_c, 1, 71, 0
3, 41700, Note_on_c, 1, 72, 100
3, 41727, Note_on_c, 1, 72, 0
3, 41730, Note_on_c, 1, 74, 100
3, 41757, Note_on_c, 1, 74, 0
3, 41760, Note_on_c, 1, 72, 100
3, 42228, Note_on_c, 1, 72, 0
3, 42240, Note_on_c, 1, 71, 100
3, 42348, Note_on_c, 1, 71, 0
3, 42360, Note_on_c, 1, 70, 100
3, 42588, Note_on_c, 1, 70, 0
3, 42600, Note_on_c, 1, 69, 100
3, 42708, Note_on_c, 1, 69, 0
3, 42720, Note_on_c, 1, 68, 100
3, 42894, Note_on_c, 1, 68, 0
3, 42900, Note_on_c, 1, 67, 100
3, 42927, Note_on_c, 1, 67, 0
3, 42930, Note_on_c, 1, 65, 100
3, 42957, Note_on_c, 1, 65, 0
3, 42960, Note_on_c, 1, 67, 100
3, 43014, Note_on_c, 1, 67, 0
3, 43020, Note_on_c, 1, 69, 100
3, 43047, Note_on_c, 1, 69, 0
3, 43050, Note_on_c, 1, 70, 100
3, 43077, Note_on_c, 1, 70, 0
3, 43080, Note_on_c, 1, 69, 100
3, 43134, Note_on_c, 1, 69, 0
3, 43140, Note_on_c, 1, 70, 100
3, 43167, Note_on_c, 1, 70, 0
3, 43170, Note_on_c, 1, 72, 100
3, 43197, Note_on_c, 1, 72, 0
3, 43200, Note_on_c, 1, 70, 100
3, 43668, Note_on_c, 1, 70, 0
3, 43680, Note_on_c, 1, 69, 100
3, 43788, Note_on_c, 1, 69, 0
3, 43920, Note_on_c, 1, 62, 100
3, 43974, Note_on_c, 1, 62, 0
3, 43980, Note_on_c, 1, 67, 100
3, 44007, Note_on_c, 1, 67, 0
3, 44010, Note_on_c, 1, 69, 100
3, 44037, Note_on_c, 1, 69, 0
3, 44040, Note_on_c, 1, 71, 100
3, 44094, Note_on_c, 1, 71, 0
3, 44100, Note_on_c, 1, 71, 100
3, 44127, Note_on_c, 1, 71, 0
3, 44130, Note_on_c, 1, 72, 100
3, 44157, Note_on_c, 1, 72, 0
3, 44160, Note_on_c, 1, 74, 100
3, 44214, Note_on_c, 1, 74, 0
3, 44220, Note_on_c, 1, 74, 100
3, 44247, Note_on_c, 1, 74, 0
3, 44250, Note_on_c, 1, 72, 100
3, 44277, Note_on_c, 1, 72, 0
3, 44280, Note_on_c, 1, 71, 100
3, 44334, Note_on_c, 1, 71, 0
3, 44340, Note_on_c, 1, 71, 100
3, 44367, Note_on_c, 1, 71, 0
3, 44370, Note_on_c, 1, 72, 100
3, 44397, Note_on_c, 1, 72, 0
3, 44400, Note_on_c, 1, 74, 100
3, 44454, Note_on_c, 1, 74, 0
3, 44460, Note_on_c, 1, 74, 100
3, 44487, Note_on_c, 1, 74, 0
3, 44490, Note_on_c, 1, 76, 100
3, 44517, Note_on_c, 1, 76, 0
3, 44520, Note_on_c, 1, 77, 100
3, 44574, Note_on_c, 1, 77, 0
3, 44580, Note_on_c, 1, 76, 100
3, 44607, Note_on_c, 1, 76, 0
3, 44610, Note_on_c, 1, 74, 100
3, 44637, Note_on_c, 1, 74, 0
3, 44640, Note_on_c, 1, 72, 100
3, 45162, Note_on_c, 1, 72, 0
3, 45180, Note_on_c, 1, 74, 100
3, 45207, Note_on_c, 1, 74, 0
3, 45210, Note_on_c, 1, 72, 100
3, 45237, Note_on_c, 1, 72, 0
3, 45240, Note_on_c, 1, 71, 100
3, 45267, Note_on_c, 1, 71, 0
3, 45270, Note_on_c, 1, 69, 100
3, 45297, Note_on_c, 1, 69, 0
3, 45300, Note_on_c, 1, 67, 100
3, 45327, Note_on_c, 1, 67, 0
3, 45330, Note_on_c, 1, 65, 100
3, 45357, Note_on_c, 1, 65, 0
3, 45360, Note_on_c, 1, 64, 100
3, 45468, Note_on_c, 1, 64, 0
3, 45480, Note_on_c, 1, 72, 100
3, 45588, Note_on_c, 1, 72, 0
3, 45600, Note_on_c, 1, 71, 100
3, 45828, Note_on_c, 1, 71, 0
3, 45840, Note_on_c, 1, 72, 100
3, 45948, Note_on_c, 1, 72, 0
3, 46140, Note_on_c, 1, 72, 100
3, 46194, Note_on_c, 1, 72, 0
3, 46200, Note_on_c, 1, 82, 100
3, 46254, Note_on_c, 1, 82, 0
3, 46260, Note_on_c, 1, 81, 100
3, 46314, Note_on_c, 1, 81, 0
3, 46320, Note_on_c, 1, 73, 100
3, 46374, Note_on_c, 1, 73, 0
3, 46380, Note_on_c, 1, 74, 100
3, 46434, Note_on_c, 1, 74, 0
3, 46440, Note_on_c, 1, 74, 100
3, 46548, Note_on_c, 1, 74, 0
3, 46560, Note_on_c, 1, 81, 100
3, 46668, Note_on_c, 1, 81, 0
3, 46680, Note_on_c, 1, 84, 100
3, 46854, Note_on_c, 1, 84, 0
3, 46860, Note_on_c, 1, 83, 100
3, 46914, Note_on_c, 1, 83, 0
3, 46920, Note_on_c, 1, 84, 100
3, 46974, Note_on_c, 1, 84, 0
3, 46980, Note_on_c, 1, 69, 100
3, 47034, Note_on_c, 1, 69, 0
3, 47040, Note_on_c, 1, 66, 100
3, 47094, Note_on_c, 1, 66, 0
3, 47100, Note_on_c, 1, 68, 100
3, 47154, Note_on_c, 1, 68, 0
3, 47160, Note_on_c, 1, 68, 100
3, 47484, Note_on_c, 1, 68, 0
3, 47484, End_track
4, 0, Start_track
4, 0, Sequence_number, 65535
4, 0, MIDI_port, 0
4, 0, Title_t, "Violino concertato"
4, 0, Control_c, 2, 0, 0
4, 0, Control_c, 2, 32, 0
4, 0, Program_c, 2, 45
4, 0, Control_c, 2, 7, 100
4, 0, Control_c, 2, 10, 74
4, 60, Note_on_c, 2, 72, 100
4, 114, Note_on_c, 2, 72, 0
4, 120, Note_on_c, 2, 67, 100
4, 174, Note_on_c, 2, 67, 0
4, 180, Note_on_c, 2, 64, 100
4, 234, Note_on_c, 2, 64, 0
4, 240, Note_on_c, 2, 60, 100
4, 294, Note_on_c, 2, 60, 0
4, 300, Note_on_c, 2, 72, 100
4, 354, Note_on_c, 2, 72, 0
4, 420, Note_on_c, 2, 65, 100
4, 474, Note_on_c, 2, 65, 0
4, 480, Note_on_c, 2, 62, 100
4, 534, Note_on_c, 2, 62, 0
4, 540, Note_on_c, 2, 59, 100
4, 594, Note_on_c, 2, 59, 0
4, 600, Note_on_c, 2, 55, 100
4, 654, Note_on_c, 2, 55, 0
4, 660, Note_on_c, 2, 67, 100
4, 714, Note_on_c, 2, 67, 0
4, 780, Note_on_c, 2, 69, 100
4, 834, Note_on_c, 2, 69, 0
4, 840, Note_on_c, 2, 65, 100
4, 894, Note_on_c, 2, 65, 0
4, 900, Note_on_c, 2, 62, 100
4, 954, Note_on_c, 2, 62, 0
4, 960, Note_on_c, 2, 74, 100
4, 1014, Note_on_c, 2, 74, 0
4, 1020, Note_on_c, 2, 67, 100
4, 1074, Note_on_c, 2, 67, 0
4, 1140, Note_on_c, 2, 67, 100
4, 1194, Note_on_c, 2, 67, 0
4, 1200, Note_on_c, 2, 72, 100
4, 1254, Note_on_c, 2, 72, 0
4, 1260, Note_on_c, 2, 76, 100
4, 1314, Note_on_c, 2, 76, 0
4, 1320, Note_on_c, 2, 77, 100
4, 1374, Note_on_c, 2, 77, 0
4, 1380, Note_on_c, 2, 71, 100
4, 1434, Note_on_c, 2, 71, 0
4, 1440, Note_on_c, 2, 79, 100
4, 1548, Note_on_c, 2, 79, 0
4, 1860, Note_on_c, 2, 72, 100
4, 1914, Note_on_c, 2, 72, 0
4, 1920, Note_on_c, 2, 72, 100
4, 1974, Note_on_c, 2, 72, 0
4, 1980, Note_on_c, 2, 77, 100
4, 2034, Note_on_c, 2, 77, 0
4, 2040, Note_on_c, 2, 77, 100
4, 2094, Note_on_c, 2, 77, 0
4, 2100, Note_on_c, 2, 68, 100
4, 2154, Note_on_c, 2, 68, 0
4, 2160, Note_on_c, 2, 69, 100
4, 2268, Note_on_c, 2, 69, 0
4, 2580, Note_on_c, 2, 67, 100
4, 2634, Note_on_c, 2, 67, 0
4, 2640, Note_on_c, 2, 67, 100
4, 2694, Note_on_c, 2, 67, 0
4, 2700, Note_on_c, 2, 72, 100
4, 2754, Note_on_c, 2, 72, 0
4, 2760, Note_on_c, 2, 72, 100
4, 2814, Note_on_c, 2, 72, 0
4, 2820, Note_on_c, 2, 71, 100
4, 2874, Note_on_c, 2, 71, 0
4, 2880, Note_on_c, 2, 71, 100
4, 2934, Note_on_c, 2, 71, 0
4, 2940, Note_on_c, 2, 67, 100
4, 2994, Note_on_c, 2, 67, 0
4, 3000, Note_on_c, 2, 62, 100
4, 3054, Note_on_c, 2, 62, 0
4, 3060, Note_on_c, 2, 59, 100
4, 3114, Note_on_c, 2, 59, 0
4, 3120, Note_on_c, 2, 55, 100
4, 3174, Note_on_c, 2, 55, 0
4, 3180, Note_on_c, 2, 59, 100
4, 3234, Note_on_c, 2, 59, 0
4, 3240, Note_on_c, 2, 62, 100
4, 3294, Note_on_c, 2, 62, 0
4, 3300, Note_on_c, 2, 67, 100
4, 3354, Note_on_c, 2, 67, 0
4, 3360, Note_on_c, 2, 71, 100
4, 3468, Note_on_c, 2, 71, 0
4, 3660, Note_on_c, 2, 66, 100
4, 3714, Note_on_c, 2, 66, 0
4, 3720, Note_on_c, 2, 69, 100
4, 3774, Note_on_c, 2, 69, 0
4, 3780, Note_on_c, 2, 66, 100
4, 3834, Note_on_c, 2, 66, 0
4, 3840, Note_on_c, 2, 62, 100
4, 3894, Note_on_c, 2, 62, 0
4, 3900, Note_on_c, 2, 66, 100
4, 3954, Note_on_c, 2, 66, 0
4, 3960, Note_on_c, 2, 69, 100
4, 4014, Note_on_c, 2, 69, 0
4, 4020, Note_on_c, 2, 74, 100
4, 4074, Note_on_c, 2, 74, 0
4, 4080, Note_on_c, 2, 78, 100
4, 4188, Note_on_c, 2, 78, 0
4, 4380, Note_on_c, 2, 71, 100
4, 4434, Note_on_c, 2, 71, 0
4, 4440, Note_on_c, 2, 67, 100
4, 4494, Note_on_c, 2, 67, 0
4, 4500, Note_on_c, 2, 64, 100
4, 4554, Note_on_c, 2, 64, 0
4, 4560, Note_on_c, 2, 76, 100
4, 4614, Note_on_c, 2, 76, 0
4, 4620, Note_on_c, 2, 69, 100
4, 4674, Note_on_c, 2, 69, 0
4, 4740, Note_on_c, 2, 67, 100
4, 4794, Note_on_c, 2, 67, 0
4, 4800, Note_on_c, 2, 64, 100
4, 4854, Note_on_c, 2, 64, 0
4, 4860, Note_on_c, 2, 60, 100
4, 4914, Note_on_c, 2, 60, 0
4, 4920, Note_on_c, 2, 57, 100
4, 4974, Note_on_c, 2, 57, 0
4, 4980, Note_on_c, 2, 69, 100
4, 5034, Note_on_c, 2, 69, 0
4, 5100, Note_on_c, 2, 67, 100
4, 5154, Note_on_c, 2, 67, 0
4, 5160, Note_on_c, 2, 71, 100
4, 5214, Note_on_c, 2, 71, 0
4, 5220, Note_on_c, 2, 76, 100
4, 5274, Note_on_c, 2, 76, 0
4, 5280, Note_on_c, 2, 74, 100
4, 5334, Note_on_c, 2, 74, 0
4, 5340, Note_on_c, 2, 69, 100
4, 5394, Note_on_c, 2, 69, 0
4, 5460, Note_on_c, 2, 62, 100
4, 5514, Note_on_c, 2, 62, 0
4, 5520, Note_on_c, 2, 74, 100
4, 5574, Note_on_c, 2, 74, 0
4, 5580, Note_on_c, 2, 71, 100
4, 5634, Note_on_c, 2, 71, 0
4, 5640, Note_on_c, 2, 67, 100
4, 5748, Note_on_c, 2, 67, 0
4, 11580, Note_on_c, 2, 67, 100
4, 11634, Note_on_c, 2, 67, 0
4, 11640, Note_on_c, 2, 62, 100
4, 11694, Note_on_c, 2, 62, 0
4, 11700, Note_on_c, 2, 59, 100
4, 11754, Note_on_c, 2, 59, 0
4, 11760, Note_on_c, 2, 55, 100
4, 11814, Note_on_c, 2, 55, 0
4, 11820, Note_on_c, 2, 67, 100
4, 11874, Note_on_c, 2, 67, 0
4, 11940, Note_on_c, 2, 72, 100
4, 11994, Note_on_c, 2, 72, 0
4, 12000, Note_on_c, 2, 69, 100
4, 12054, Note_on_c, 2, 69, 0
4, 12060, Note_on_c, 2, 66, 100
4, 12114, Note_on_c, 2, 66, 0
4, 12120, Note_on_c, 2, 62, 100
4, 12174, Note_on_c, 2, 62, 0
4, 12180, Note_on_c, 2, 74, 100
4, 12234, Note_on_c, 2, 74, 0
4, 12300, Note_on_c, 2, 64, 100
4, 12354, Note_on_c, 2, 64, 0
4, 12360, Note_on_c, 2, 60, 100
4, 12414, Note_on_c, 2, 60, 0
4, 12420, Note_on_c, 2, 57, 100
4, 12474, Note_on_c, 2, 57, 0
4, 12480, Note_on_c, 2, 69, 100
4, 12534, Note_on_c, 2, 69, 0
4, 12540, Note_on_c, 2, 62, 100
4, 12594, Note_on_c, 2, 62, 0
4, 12660, Note_on_c, 2, 62, 100
4, 12714, Note_on_c, 2, 62, 0
4, 12720, Note_on_c, 2, 67, 100
4, 12774, Note_on_c, 2, 67, 0
4, 12780, Note_on_c, 2, 71, 100
4, 12834, Note_on_c, 2, 71, 0
4, 12840, Note_on_c, 2, 74, 100
4, 12894, Note_on_c, 2, 74, 0
4, 12900, Note_on_c, 2, 67, 100
4, 12954, Note_on_c, 2, 67, 0
4, 13020, Note_on_c, 2, 67, 100
4, 13074, Note_on_c, 2, 67, 0
4, 13080, Note_on_c, 2, 64, 100
4, 13134, Note_on_c, 2, 64, 0
4, 13140, Note_on_c, 2, 61, 100
4, 13194, Note_on_c, 2, 61, 0
4, 13200, Note_on_c, 2, 58, 100
4, 13254, Note_on_c, 2, 58, 0
4, 13260, Note_on_c, 2, 55, 100
4, 13314, Note_on_c, 2, 55, 0
4, 13380, Note_on_c, 2, 64, 100
4, 13434, Note_on_c, 2, 64, 0
4, 13440, Note_on_c, 2, 62, 100
4, 13494, Note_on_c, 2, 62, 0
4, 13500, Note_on_c, 2, 69, 100
4, 13554, Note_on_c, 2, 69, 0
4, 13560, Note_on_c, 2, 65, 100
4, 13614, Note_on_c, 2, 65, 0
4, 13620, Note_on_c, 2, 74, 100
4, 13674, Note_on_c, 2, 74, 0
4, 13740, Note_on_c, 2, 72, 100
4, 13794, Note_on_c, 2, 72, 0
4, 13800, Note_on_c, 2, 69, 100
4, 13854, Note_on_c, 2, 69, 0
4, 13860, Note_on_c, 2, 66, 100
4, 13914, Note_on_c, 2, 66, 0
4, 13920, Note_on_c, 2, 63, 100
4, 13974, Note_on_c, 2, 63, 0
4, 13980, Note_on_c, 2, 59, 100
4, 14034, Note_on_c, 2, 59, 0
4, 14100, Note_on_c, 2, 60, 100
4, 14154, Note_on_c, 2, 60, 0
4, 14160, Note_on_c, 2, 59, 100
4, 14214, Note_on_c, 2, 59, 0
4, 14220, Note_on_c, 2, 57, 100
4, 14274, Note_on_c, 2, 57, 0
4, 14280, Note_on_c, 2, 65, 100
4, 14334, Note_on_c, 2, 65, 0
4, 14340, Note_on_c, 2, 64, 100
4, 14394, Note_on_c, 2, 64, 0
4, 14460, Note_on_c, 2, 76, 100
4, 14514, Note_on_c, 2, 76, 0
4, 14520, Note_on_c, 2, 72, 100
4, 14574, Note_on_c, 2, 72, 0
4, 14580, Note_on_c, 2, 69, 100
4, 14634, Note_on_c, 2, 69, 0
4, 14640, Note_on_c, 2, 68, 100
4, 14694, Note_on_c, 2, 68, 0
4, 14700, Note_on_c, 2, 69, 100
4, 14754, Note_on_c, 2, 69, 0
4, 14820, Note_on_c, 2, 74, 100
4, 14874, Note_on_c, 2, 74, 0
4, 14880, Note_on_c, 2, 71, 100
4, 14934, Note_on_c, 2, 71, 0
4, 14940, Note_on_c, 2, 68, 100
4, 14994, Note_on_c, 2, 68, 0
4, 15000, Note_on_c, 2, 64, 100
4, 15054, Note_on_c, 2, 64, 0
4, 15060, Note_on_c, 2, 76, 100
4, 15114, Note_on_c, 2, 76, 0
4, 15180, Note_on_c, 2, 77, 100
4, 15234, Note_on_c, 2, 77, 0
4, 15240, Note_on_c, 2, 74, 100
4, 15294, Note_on_c, 2, 74, 0
4, 15300, Note_on_c, 2, 71, 100
4, 15354, Note_on_c, 2, 71, 0
4, 15360, Note_on_c, 2, 83, 100
4, 15414, Note_on_c, 2, 83, 0
4, 15420, Note_on_c, 2, 76, 100
4, 15474, Note_on_c, 2, 76, 0
4, 15540, Note_on_c, 2, 77, 100
4, 15594, Note_on_c, 2, 77, 0
4, 15600, Note_on_c, 2, 76, 100
4, 15654, Note_on_c, 2, 76, 0
4, 15660, Note_on_c, 2, 68, 100
4, 15714, Note_on_c, 2, 68, 0
4, 15720, Note_on_c, 2, 69, 100
4, 15774, Note_on_c, 2, 69, 0
4, 15780, Note_on_c, 2, 72, 100
4, 15834, Note_on_c, 2, 72, 0
4, 15840, Note_on_c, 2, 70, 100
4, 15948, Note_on_c, 2, 70, 0
4, 16020, Note_on_c, 2, 69, 100
4, 16074, Note_on_c, 2, 69, 0
4, 16080, Note_on_c, 2, 68, 100
4, 16134, Note_on_c, 2, 68, 0
4, 16140, Note_on_c, 2, 71, 100
4, 16194, Note_on_c, 2, 71, 0
4, 16200, Note_on_c, 2, 64, 100
4, 16308, Note_on_c, 2, 64, 0
4, 16380, Note_on_c, 2, 69, 100
4, 16434, Note_on_c, 2, 69, 0
4, 16440, Note_on_c, 2, 71, 100
4, 16494, Note_on_c, 2, 71, 0
4, 16500, Note_on_c, 2, 68, 100
4, 16554, Note_on_c, 2, 68, 0
4, 16560, Note_on_c, 2, 69, 100
4, 16614, Note_on_c, 2, 69, 0
4, 16620, Note_on_c, 2, 72, 100
4, 16674, Note_on_c, 2, 72, 0
4, 16680, Note_on_c, 2, 77, 100
4, 16734, Note_on_c, 2, 77, 0
4, 16740, Note_on_c, 2, 74, 100
4, 16794, Note_on_c, 2, 74, 0
4, 16800, Note_on_c, 2, 74, 100
4, 16854, Note_on_c, 2, 74, 0
4, 16860, Note_on_c, 2, 71, 100
4, 16914, Note_on_c, 2, 71, 0
4, 16980, Note_on_c, 2, 65, 100
4, 17034, Note_on_c, 2, 65, 0
4, 17040, Note_on_c, 2, 64, 100
4, 17094, Note_on_c, 2, 64, 0
4, 17100, Note_on_c, 2, 69, 100
4, 17154, Note_on_c, 2, 69, 0
4, 17160, Note_on_c, 2, 72, 100
4, 17214, Note_on_c, 2, 72, 0
4, 17220, Note_on_c, 2, 69, 100
4, 17274, Note_on_c, 2, 69, 0
4, 17280, Note_on_c, 2, 57, 100
4, 17388, Note_on_c, 2, 57, 0
4, 17460, Note_on_c, 2, 69, 100
4, 17514, Note_on_c, 2, 69, 0
4, 17520, Note_on_c, 2, 66, 100
4, 17574, Note_on_c, 2, 66, 0
4, 17580, Note_on_c, 2, 62, 100
4, 17634, Note_on_c, 2, 62, 0
4, 17640, Note_on_c, 2, 74, 100
4, 17748, Note_on_c, 2, 74, 0
4, 17820, Note_on_c, 2, 69, 100
4, 17874, Note_on_c, 2, 69, 0
4, 17880, Note_on_c, 2, 62, 100
4, 17934, Note_on_c, 2, 62, 0
4, 17940, Note_on_c, 2, 67, 100
4, 17994, Note_on_c, 2, 67, 0
4, 18000, Note_on_c, 2, 55, 100
4, 18108, Note_on_c, 2, 55, 0
4, 18180, Note_on_c, 2, 74, 100
4, 18234, Note_on_c, 2, 74, 0
4, 18240, Note_on_c, 2, 67, 100
4, 18294, Note_on_c, 2, 67, 0
4, 18300, Note_on_c, 2, 72, 100
4, 18354, Note_on_c, 2, 72, 0
4, 18360, Note_on_c, 2, 60, 100
4, 18468, Note_on_c, 2, 60, 0
4, 18540, Note_on_c, 2, 62, 100
4, 18594, Note_on_c, 2, 62, 0
4, 18600, Note_on_c, 2, 69, 100
4, 18654, Note_on_c, 2, 69, 0
4, 18660, Note_on_c, 2, 72, 100
4, 18714, Note_on_c, 2, 72, 0
4, 18720, Note_on_c, 2, 65, 100
4, 18774, Note_on_c, 2, 65, 0
4, 18780, Note_on_c, 2, 67, 100
4, 18834, Note_on_c, 2, 67, 0
4, 18840, Note_on_c, 2, 62, 100
4, 18894, Note_on_c, 2, 62, 0
4, 18900, Note_on_c, 2, 59, 100
4, 18954, Note_on_c, 2, 59, 0
4, 18960, Note_on_c, 2, 55, 100
4, 19014, Note_on_c, 2, 55, 0
4, 19020, Note_on_c, 2, 67, 100
4, 19074, Note_on_c, 2, 67, 0
4, 19140, Note_on_c, 2, 67, 100
4, 19194, Note_on_c, 2, 67, 0
4, 19200, Note_on_c, 2, 64, 100
4, 19254, Note_on_c, 2, 64, 0
4, 19260, Note_on_c, 2, 60, 100
4, 19314, Note_on_c, 2, 60, 0
4, 19320, Note_on_c, 2, 55, 100
4, 19374, Note_on_c, 2, 55, 0
4, 19380, Note_on_c, 2, 60, 100
4, 19434, Note_on_c, 2, 60, 0
4, 19500, Note_on_c, 2, 60, 100
4, 19554, Note_on_c, 2, 60, 0
4, 19560, Note_on_c, 2, 57, 100
4, 19614, Note_on_c, 2, 57, 0
4, 19620, Note_on_c, 2, 60, 100
4, 19674, Note_on_c, 2, 60, 0
4, 19680, Note_on_c, 2, 65, 100
4, 19734, Note_on_c, 2, 65, 0
4, 19740, Note_on_c, 2, 69, 100
4, 19794, Note_on_c, 2, 69, 0
4, 19860, Note_on_c, 2, 62, 100
4, 19914, Note_on_c, 2, 62, 0
4, 19920, Note_on_c, 2, 59, 100
4, 19974, Note_on_c, 2, 59, 0
4, 19980, Note_on_c, 2, 62, 100
4, 20034, Note_on_c, 2, 62, 0
4, 20040, Note_on_c, 2, 55, 100
4, 20094, Note_on_c, 2, 55, 0
4, 20100, Note_on_c, 2, 65, 100
4, 20154, Note_on_c, 2, 65, 0
4, 20220, Note_on_c, 2, 64, 100
4, 20274, Note_on_c, 2, 64, 0
4, 20280, Note_on_c, 2, 67, 100
4, 20334, Note_on_c, 2, 67, 0
4, 20340, Note_on_c, 2, 64, 100
4, 20394, Note_on_c, 2, 64, 0
4, 20400, Note_on_c, 2, 60, 100
4, 20454, Note_on_c, 2, 60, 0
4, 20460, Note_on_c, 2, 72, 100
4, 20514, Note_on_c, 2, 72, 0
4, 20580, Note_on_c, 2, 77, 100
4, 20634, Note_on_c, 2, 77, 0
4, 20640, Note_on_c, 2, 74, 100
4, 20694, Note_on_c, 2, 74, 0
4, 20700, Note_on_c, 2, 71, 100
4, 20754, Note_on_c, 2, 71, 0
4, 20760, Note_on_c, 2, 67, 100
4, 20814, Note_on_c, 2, 67, 0
4, 20820, Note_on_c, 2, 79, 100
4, 20874, Note_on_c, 2, 79, 0
4, 20940, Note_on_c, 2, 69, 100
4, 20994, Note_on_c, 2, 69, 0
4, 21000, Note_on_c, 2, 65, 100
4, 21054, Note_on_c, 2, 65, 0
4, 21060, Note_on_c, 2, 62, 100
4, 21114, Note_on_c, 2, 62, 0
4, 21120, Note_on_c, 2, 74, 100
4, 21174, Note_on_c, 2, 74, 0
4, 21180, Note_on_c, 2, 67, 100
4, 21234, Note_on_c, 2, 67, 0
4, 21300, Note_on_c, 2, 67, 100
4, 21354, Note_on_c, 2, 67, 0
4, 21360, Note_on_c, 2, 79, 100
4, 21414, Note_on_c, 2, 79, 0
4, 21420, Note_on_c, 2, 76, 100
4, 21474, Note_on_c, 2, 76, 0
4, 21480, Note_on_c, 2, 76, 100
4, 21534, Note_on_c, 2, 76, 0
4, 21540, Note_on_c, 2, 72, 100
4, 21594, Note_on_c, 2, 72, 0
4, 21660, Note_on_c, 2, 72, 100
4, 21714, Note_on_c, 2, 72, 0
4, 21720, Note_on_c, 2, 69, 100
4, 21774, Note_on_c, 2, 69, 0
4, 21780, Note_on_c, 2, 72, 100
4, 21834, Note_on_c, 2, 72, 0
4, 21840, Note_on_c, 2, 75, 100
4, 21894, Note_on_c, 2, 75, 0
4, 21900, Note_on_c, 2, 72, 100
4, 21954, Note_on_c, 2, 72, 0
4, 22020, Note_on_c, 2, 72, 100
4, 22074, Note_on_c, 2, 72, 0
4, 22080, Note_on_c, 2, 70, 100
4, 22134, Note_on_c, 2, 70, 0
4, 22140, Note_on_c, 2, 67, 100
4, 22194, Note_on_c, 2, 67, 0
4, 22200, Note_on_c, 2, 62, 100
4, 22254, Note_on_c, 2, 62, 0
4, 22260, Note_on_c, 2, 74, 100
4, 22314, Note_on_c, 2, 74, 0
4, 22380, Note_on_c, 2, 77, 100
4, 22434, Note_on_c, 2, 77, 0
4, 22440, Note_on_c, 2, 74, 100
4, 22494, Note_on_c, 2, 74, 0
4, 22500, Note_on_c, 2, 71, 100
4, 22554, Note_on_c, 2, 71, 0
4, 22560, Note_on_c, 2, 68, 100
4, 22614, Note_on_c, 2, 68, 0
4, 22620, Note_on_c, 2, 71, 100
4, 22674, Note_on_c, 2, 71, 0
4, 22740, Note_on_c, 2, 64, 100
4, 22794, Note_on_c, 2, 64, 0
4, 22800, Note_on_c, 2, 69, 100
4, 22854, Note_on_c, 2, 69, 0
4, 22860, Note_on_c, 2, 73, 100
4, 22914, Note_on_c, 2, 73, 0
4, 22920, Note_on_c, 2, 74, 100
4, 22974, Note_on_c, 2, 74, 0
4, 22980, Note_on_c, 2, 70, 100
4, 23034, Note_on_c, 2, 70, 0
4, 23040, Note_on_c, 2, 69, 100
4, 23148, Note_on_c, 2, 69, 0
4, 23220, Note_on_c, 2, 74, 100
4, 23274, Note_on_c, 2, 74, 0
4, 23280, Note_on_c, 2, 69, 100
4, 23334, Note_on_c, 2, 69, 0
4, 23340, Note_on_c, 2, 62, 100
4, 23394, Note_on_c, 2, 62, 0
4, 23400, Note_on_c, 2, 67, 100
4, 23508, Note_on_c, 2, 67, 0
4, 23580, Note_on_c, 2, 64, 100
4, 23634, Note_on_c, 2, 64, 0
4, 23640, Note_on_c, 2, 69, 100
4, 23694, Note_on_c, 2, 69, 0
4, 23700, Note_on_c, 2, 63, 100
4, 23754, Note_on_c, 2, 63, 0
4, 23760, Note_on_c, 2, 64, 100
4, 23868, Note_on_c, 2, 64, 0
4, 23940, Note_on_c, 2, 76, 100
4, 23994, Note_on_c, 2, 76, 0
4, 24000, Note_on_c, 2, 76, 100
4, 24054, Note_on_c, 2, 76, 0
4, 24060, Note_on_c, 2, 74, 100
4, 24114, Note_on_c, 2, 74, 0
4, 24120, Note_on_c, 2, 74, 100
4, 24228, Note_on_c, 2, 74, 0
4, 24300, Note_on_c, 2, 62, 100
4, 24354, Note_on_c, 2, 62, 0
4, 24360, Note_on_c, 2, 74, 100
4, 24414, Note_on_c, 2, 74, 0
4, 24420, Note_on_c, 2, 71, 100
4, 24474, Note_on_c, 2, 71, 0
4, 24480, Note_on_c, 2, 69, 100
4, 24588, Note_on_c, 2, 69, 0
4, 24660, Note_on_c, 2, 69, 100
4, 24714, Note_on_c, 2, 69, 0
4, 24720, Note_on_c, 2, 57, 100
4, 24774, Note_on_c, 2, 57, 0
4, 24780, Note_on_c, 2, 55, 100
4, 24834, Note_on_c, 2, 55, 0
4, 24840, Note_on_c, 2, 55, 100
4, 24948, Note_on_c, 2, 55, 0
4, 25020, Note_on_c, 2, 55, 100
4, 25074, Note_on_c, 2, 55, 0
4, 25080, Note_on_c, 2, 67, 100
4, 25134, Note_on_c, 2, 67, 0
4, 25140, Note_on_c, 2, 64, 100
4, 25194, Note_on_c, 2, 64, 0
4, 25200, Note_on_c, 2, 62, 100
4, 25308, Note_on_c, 2, 62, 0
4, 25380, Note_on_c, 2, 74, 100
4, 25434, Note_on_c, 2, 74, 0
4, 25440, Note_on_c, 2, 62, 100
4, 25494, Note_on_c, 2, 62, 0
4, 25500, Note_on_c, 2, 60, 100
4, 25554, Note_on_c, 2, 60, 0
4, 25560, Note_on_c, 2, 60, 100
4, 25668, Note_on_c, 2, 60, 0
4, 25740, Note_on_c, 2, 72, 100
4, 25794, Note_on_c, 2, 72, 0
4, 25800, Note_on_c, 2, 77, 100
4, 25854, Note_on_c, 2, 77, 0
4, 25860, Note_on_c, 2, 76, 100
4, 25914, Note_on_c, 2, 76, 0
4, 25920, Note_on_c, 2, 76, 100
4, 25974, Note_on_c, 2, 76, 0
4, 25980, Note_on_c, 2, 72, 100
4, 26034, Note_on_c, 2, 72, 0
4, 26040, Note_on_c, 2, 67, 100
4, 26094, Note_on_c, 2, 67, 0
4, 26100, Note_on_c, 2, 64, 100
4, 26154, Note_on_c, 2, 64, 0
4, 26160, Note_on_c, 2, 60, 100
4, 26214, Note_on_c, 2, 60, 0
4, 26220, Note_on_c, 2, 64, 100
4, 26274, Note_on_c, 2, 64, 0
4, 26280, Note_on_c, 2, 67, 100
4, 26334, Note_on_c, 2, 67, 0
4, 26340, Note_on_c, 2, 72, 100
4, 26394, Note_on_c, 2, 72, 0
4, 26400, Note_on_c, 2, 76, 100
4, 26508, Note_on_c, 2, 76, 0
4, 26700, Note_on_c, 2, 59, 100
4, 26754, Note_on_c, 2, 59, 0
4, 26760, Note_on_c, 2, 62, 100
4, 26814, Note_on_c, 2, 62, 0
4, 26820, Note_on_c, 2, 59, 100
4, 26874, Note_on_c, 2, 59, 0
4, 26880, Note_on_c, 2, 55, 100
4, 26934, Note_on_c, 2, 55, 0
4, 26940, Note_on_c, 2, 59, 100
4, 26994, Note_on_c, 2, 59, 0
4, 27000, Note_on_c, 2, 62, 100
4, 27054, Note_on_c, 2, 62, 0
4, 27060, Note_on_c, 2, 67, 100
4, 27114, Note_on_c, 2, 67, 0
4, 27120, Note_on_c, 2, 71, 100
4, 27228, Note_on_c, 2, 71, 0
4, 27420, Note_on_c, 2, 64, 100
4, 27474, Note_on_c, 2, 64, 0
4, 27480, Note_on_c, 2, 60, 100
4, 27534, Note_on_c, 2, 60, 0
4, 27540, Note_on_c, 2, 57, 100
4, 27594, Note_on_c, 2, 57, 0
4, 27600, Note_on_c, 2, 69, 100
4, 27654, Note_on_c, 2, 69, 0
4, 27660, Note_on_c, 2, 62, 100
4, 27714, Note_on_c, 2, 62, 0
4, 27780, Note_on_c, 2, 72, 100
4, 27834, Note_on_c, 2, 72, 0
4, 27840, Note_on_c, 2, 69, 100
4, 27894, Note_on_c, 2, 69, 0
4, 27900, Note_on_c, 2, 65, 100
4, 27954, Note_on_c, 2, 65, 0
4, 27960, Note_on_c, 2, 62, 100
4, 28014, Note_on_c, 2, 62, 0
4, 28020, Note_on_c, 2, 74, 100
4, 28074, Note_on_c, 2, 74, 0
4, 28140, Note_on_c, 2, 60, 100
4, 28194, Note_on_c, 2, 60, 0
4, 28200, Note_on_c, 2, 64, 100
4, 28254, Note_on_c, 2, 64, 0
4, 28260, Note_on_c, 2, 69, 100
4, 28314, Note_on_c, 2, 69, 0
4, 28320, Note_on_c, 2, 62, 100
4, 28374, Note_on_c, 2, 62, 0
4, 28380, Note_on_c, 2, 71, 100
4, 28434, Note_on_c, 2, 71, 0
4, 28500, Note_on_c, 2, 67, 100
4, 28554, Note_on_c, 2, 67, 0
4, 28560, Note_on_c, 2, 72, 100
4, 28614, Note_on_c, 2, 72, 0
4, 28620, Note_on_c, 2, 71, 100
4, 28674, Note_on_c, 2, 71, 0
4, 28680, Note_on_c, 2, 72, 100
4, 28788, Note_on_c, 2, 72, 0
4, 28788, End_track
5, 0, Start_track
5, 0, Sequence_number, 65535
5, 0, MIDI_port, 0
5, 0, Title_t, "Cembalo, rechte Hand"
5, 0, Control_c, 3, 0, 0
5, 0, Control_c, 3, 32, 0
5, 0, Program_c, 3, 6
5, 0, Control_c, 3, 7, 80
5, 0, Control_c, 3, 10, 64
5, 0, Note_on_c, 3, 79, 100
5, 216, Note_on_c, 3, 79, 0
5, 240, Note_on_c, 3, 81, 100
5, 348, Note_on_c, 3, 81, 0
5, 360, Note_on_c, 3, 74, 100
5, 576, Note_on_c, 3, 74, 0
5, 600, Note_on_c, 3, 76, 100
5, 708, Note_on_c, 3, 76, 0
5, 720, Note_on_c, 3, 77, 100
5, 756, Note_on_c, 3, 77, 0
5, 760, Note_on_c, 3, 76, 100
5, 796, Note_on_c, 3, 76, 0
5, 800, Note_on_c, 3, 77, 100
5, 836, Note_on_c, 3, 77, 0
5, 840, Note_on_c, 3, 86, 100
5, 948, Note_on_c, 3, 86, 0
5, 960, Note_on_c, 3, 77, 100
5, 1188, Note_on_c, 3, 77, 0
5, 1200, Note_on_c, 3, 76, 100
5, 1308, Note_on_c, 3, 76, 0
5, 1440, Note_on_c, 3, 84, 100
5, 1548, Note_on_c, 3, 84, 0
5, 1560, Note_on_c, 3, 83, 100
5, 1668, Note_on_c, 3, 83, 0
5, 1680, Note_on_c, 3, 82, 100
5, 1854, Note_on_c, 3, 82, 0
5, 1860, Note_on_c, 3, 81, 100
5, 1887, Note_on_c, 3, 81, 0
5, 1890, Note_on_c, 3, 79, 100
5, 1917, Note_on_c, 3, 79, 0
5, 1920, Note_on_c, 3, 81, 100
5, 1974, Note_on_c, 3, 81, 0
5, 1980, Note_on_c, 3, 83, 100
5, 2007, Note_on_c, 3, 83, 0
5, 2010, Note_on_c, 3, 84, 100
5, 2037, Note_on_c, 3, 84, 0
5, 2040, Note_on_c, 3, 83, 100
5, 2094, Note_on_c, 3, 83, 0
5, 2100, Note_on_c, 3, 84, 100
5, 2127, Note_on_c, 3, 84, 0
5, 2130, Note_on_c, 3, 86, 100
5, 2157, Note_on_c, 3, 86, 0
5, 2160, Note_on_c, 3, 84, 100
5, 2628, Note_on_c, 3, 84, 0
5, 2640, Note_on_c, 3, 83, 100
5, 2748, Note_on_c, 3, 83, 0
5, 2880, Note_on_c, 3, 74, 100
5, 2934, Note_on_c, 3, 74, 0
5, 2940, Note_on_c, 3, 79, 100
5, 2967, Note_on_c, 3, 79, 0
5, 2970, Note_on_c, 3, 81, 100
5, 2997, Note_on_c, 3, 81, 0
5, 3000, Note_on_c, 3, 83, 100
5, 3054, Note_on_c, 3, 83, 0
5, 3060, Note_on_c, 3, 83, 100
5, 3087, Note_on_c, 3, 83, 0
5, 3090, Note_on_c, 3, 84, 100
5, 3117, Note_on_c, 3, 84, 0
5, 3120, Note_on_c, 3, 86, 100
5, 3174, Note_on_c, 3, 86, 0
5, 3180, Note_on_c, 3, 86, 100
5, 3207, Note_on_c, 3, 86, 0
5, 3210, Note_on_c, 3, 84, 100
5, 3237, Note_on_c, 3, 84, 0
5, 3240, Note_on_c, 3, 83, 100
5, 3294, Note_on_c, 3, 83, 0
5, 3300, Note_on_c, 3, 83, 100
5, 3327, Note_on_c, 3, 83, 0
5, 3330, Note_on_c, 3, 84, 100
5, 3357, Note_on_c, 3, 84, 0
5, 3360, Note_on_c, 3, 86, 100
5, 3414, Note_on_c, 3, 86, 0
5, 3420, Note_on_c, 3, 86, 100
5, 3447, Note_on_c, 3, 86, 0
5, 3450, Note_on_c, 3, 88, 100
5, 3477, Note_on_c, 3, 88, 0
5, 3480, Note_on_c, 3, 89, 100
5, 3534, Note_on_c, 3, 89, 0
5, 3540, Note_on_c, 3, 88, 100
5, 3567, Note_on_c, 3, 88, 0
5, 3570, Note_on_c, 3, 86, 100
5, 3597, Note_on_c, 3, 86, 0
5, 3600, Note_on_c, 3, 84, 100
5, 4068, Note_on_c, 3, 84, 0
5, 4080, Note_on_c, 3, 83, 100
5, 4188, Note_on_c, 3, 83, 0
5, 4320, Note_on_c, 3, 83, 100
5, 4482, Note_on_c, 3, 83, 0
5, 4500, Note_on_c, 3, 84, 100
5, 4527, Note_on_c, 3, 84, 0
5, 4530, Note_on_c, 3, 83, 100
5, 4557, Note_on_c, 3, 83, 0
5, 4560, Note_on_c, 3, 81, 100
5, 4587, Note_on_c, 3, 81, 0
5, 4590, Note_on_c, 3, 79, 100
5, 4617, Note_on_c, 3, 79, 0
5, 4620, Note_on_c, 3, 78, 100
5, 4647, Note_on_c, 3, 78, 0
5, 4650, Note_on_c, 3, 76, 100
5, 4677, Note_on_c, 3, 76, 0
5, 4680, Note_on_c, 3, 74, 100
5, 4788, Note_on_c, 3, 74, 0
5, 4800, Note_on_c, 3, 76, 100
5, 4908, Note_on_c, 3, 76, 0
5, 4920, Note_on_c, 3, 78, 100
5, 5028, Note_on_c, 3, 78, 0
5, 5040, Note_on_c, 3, 79, 100
5, 5067, Note_on_c, 3, 79, 0
5, 5070, Note_on_c, 3, 78, 100
5, 5097, Note_on_c, 3, 78, 0
5, 5100, Note_on_c, 3, 76, 100
5, 5208, Note_on_c, 3, 76, 0
5, 5220, Note_on_c, 3, 81, 100
5, 5328, Note_on_c, 3, 81, 0
5, 5340, Note_on_c, 3, 72, 100
5, 5394, Note_on_c, 3, 72, 0
5, 5400, Note_on_c, 3, 72, 100
5, 5508, Note_on_c, 3, 72, 0
5, 5520, Note_on_c, 3, 71, 100
5, 5628, Note_on_c, 3, 71, 0
5, 5760, Note_on_c, 3, 76, 100
5, 5976, Note_on_c, 3, 76, 0
5, 6000, Note_on_c, 3, 77, 100
5, 6108, Note_on_c, 3, 77, 0
5, 6120, Note_on_c, 3, 71, 100
5, 6336, Note_on_c, 3, 71, 0
5, 6360, Note_on_c, 3, 72, 100
5, 6468, Note_on_c, 3, 72, 0
5, 6480, Note_on_c, 3, 74, 100
5, 6516, Note_on_c, 3, 74, 0
5, 6520, Note_on_c, 3, 72, 100
5, 6556, Note_on_c, 3, 72, 0
5, 6560, Note_on_c, 3, 74, 100
5, 6596, Note_on_c, 3, 74, 0
5, 6600, Note_on_c, 3, 67, 100
5, 6708, Note_on_c, 3, 67, 0
5, 6720, Note_on_c, 3, 71, 100
5, 6948, Note_on_c, 3, 71, 0
5, 6960, Note_on_c, 3, 72, 100
5, 7068, Note_on_c, 3, 72, 0
5, 7920, Note_on_c, 3, 77, 100
5, 8028, Note_on_c, 3, 77, 0
5, 8040, Note_on_c, 3, 76, 100
5, 8148, Note_on_c, 3, 76, 0
5, 8160, Note_on_c, 3, 75, 100
5, 8268, Note_on_c, 3, 75, 0
5, 8280, Note_on_c, 3, 75, 100
5, 8334, Note_on_c, 3, 75, 0
5, 8340, Note_on_c, 3, 74, 100
5, 8367, Note_on_c, 3, 74, 0
5, 8370, Note_on_c, 3, 72, 100
5, 8397, Note_on_c, 3, 72, 0
5, 8400, Note_on_c, 3, 74, 100
5, 8454, Note_on_c, 3, 74, 0
5, 8460, Note_on_c, 3, 76, 100
5, 8487, Note_on_c, 3, 76, 0
5, 8490, Note_on_c, 3, 77, 100
5, 8517, Note_on_c, 3, 77, 0
5, 8520, Note_on_c, 3, 76, 100
5, 8574, Note_on_c, 3, 76, 0
5, 8580, Note_on_c, 3, 77, 100
5, 8607, Note_on_c, 3, 77, 0
5, 8610, Note_on_c, 3, 79, 100
5, 8637, Note_on_c, 3, 79, 0
5, 8640, Note_on_c, 3, 77, 100
5, 9108, Note_on_c, 3, 77, 0
5, 9120, Note_on_c, 3, 76, 100
5, 9228, Note_on_c, 3, 76, 0
5, 9360, Note_on_c, 3, 69, 100
5, 9414, Note_on_c, 3, 69, 0
5, 9420, Note_on_c, 3, 74, 100
5, 9447, Note_on_c, 3, 74, 0
5, 9450, Note_on_c, 3, 76, 100
5, 9477, Note_on_c, 3, 76, 0
5, 9480, Note_on_c, 3, 78, 100
5, 9534, Note_on_c, 3, 78, 0
5, 9540, Note_on_c, 3, 78, 100
5, 9567, Note_on_c, 3, 78, 0
5, 9570, Note_on_c, 3, 79, 100
5, 9597, Note_on_c, 3, 79, 0
5, 9600, Note_on_c, 3, 81, 100
5, 9654, Note_on_c, 3, 81, 0
5, 9660, Note_on_c, 3, 81, 100
5, 9687, Note_on_c, 3, 81, 0
5, 9690, Note_on_c, 3, 79, 100
5, 9717, Note_on_c, 3, 79, 0
5, 9720, Note_on_c, 3, 78, 100
5, 9774, Note_on_c, 3, 78, 0
5, 9780, Note_on_c, 3, 78, 100
5, 9807, Note_on_c, 3, 78, 0
5, 9810, Note_on_c, 3, 79, 100
5, 9837, Note_on_c, 3, 79, 0
5, 9840, Note_on_c, 3, 81, 100
5, 9894, Note_on_c, 3, 81, 0
5, 9900, Note_on_c, 3, 81, 100
5, 9927, Note_on_c, 3, 81, 0
5, 9930, Note_on_c, 3, 83, 100
5, 9957, Note_on_c, 3, 83, 0
5, 9960, Note_on_c, 3, 84, 100
5, 10014, Note_on_c, 3, 84, 0
5, 10020, Note_on_c, 3, 83, 100
5, 10047, Note_on_c, 3, 83, 0
5, 10050, Note_on_c, 3, 81, 100
5, 10077, Note_on_c, 3, 81, 0
5, 10080, Note_on_c, 3, 79, 100
5, 10602, Note_on_c, 3, 79, 0
5, 10620, Note_on_c, 3, 81, 100
5, 10647, Note_on_c, 3, 81, 0
5, 10650, Note_on_c, 3, 79, 100
5, 10677, Note_on_c, 3, 79, 0
5, 10680, Note_on_c, 3, 78, 100
5, 10707, Note_on_c, 3, 78, 0
5, 10710, Note_on_c, 3, 76, 100
5, 10737, Note_on_c, 3, 76, 0
5, 10740, Note_on_c, 3, 74, 100
5, 10767, Note_on_c, 3, 74, 0
5, 10770, Note_on_c, 3, 72, 100
5, 10797, Note_on_c, 3, 72, 0
5, 10800, Note_on_c, 3, 71, 100
5, 10908, Note_on_c, 3, 71, 0
5, 10920, Note_on_c, 3, 79, 100
5, 11028, Note_on_c, 3, 79, 0
5, 11040, Note_on_c, 3, 78, 100
5, 11268, Note_on_c, 3, 78, 0
5, 11280, Note_on_c, 3, 79, 100
5, 11388, Note_on_c, 3, 79, 0
5, 11520, Note_on_c, 3, 83, 100
5, 11736, Note_on_c, 3, 83, 0
5, 11760, Note_on_c, 3, 84, 100
5, 11868, Note_on_c, 3, 84, 0
5, 11880, Note_on_c, 3, 78, 100
5, 12096, Note_on_c, 3, 78, 0
5, 12120, Note_on_c, 3, 79, 100
5, 12228, Note_on_c, 3, 79, 0
5, 12240, Note_on_c, 3, 81, 100
5, 12276, Note_on_c, 3, 81, 0
5, 12280, Note_on_c, 3, 79, 100
5, 12316, Note_on_c, 3, 79, 0
5, 12320, Note_on_c, 3, 81, 100
5, 12356, Note_on_c, 3, 81, 0
5, 12360, Note_on_c, 3, 74, 100
5, 12468, Note_on_c, 3, 74, 0
5, 12480, Note_on_c, 3, 78, 100
5, 12708, Note_on_c, 3, 78, 0
5, 12720, Note_on_c, 3, 79, 100
5, 12828, Note_on_c, 3, 79, 0
5, 12960, Note_on_c, 3, 73, 100
5, 13428, Note_on_c, 3, 73, 0
5, 13440, Note_on_c, 3, 74, 100
5, 13494, Note_on_c, 3, 74, 0
5, 13500, Note_on_c, 3, 77, 100
5, 13527, Note_on_c, 3, 77, 0
5, 13530, Note_on_c, 3, 76, 100
5, 13557, Note_on_c, 3, 76, 0
5, 13560, Note_on_c, 3, 74, 100
5, 13587, Note_on_c, 3, 74, 0
5, 13590, Note_on_c, 3, 72, 100
5, 13617, Note_on_c, 3, 72, 0
5, 13620, Note_on_c, 3, 71, 100
5, 13674, Note_on_c, 3, 71, 0
5, 13680, Note_on_c, 3, 69, 100
5, 13707, Note_on_c, 3, 69, 0
5, 13710, Note_on_c, 3, 68, 100
5, 13737, Note_on_c, 3, 68, 0
5, 13740, Note_on_c, 3, 69, 100
5, 13848, Note_on_c, 3, 69, 0
5, 13860, Note_on_c, 3, 75, 100
5, 13887, Note_on_c, 3, 75, 0
5, 13890, Note_on_c, 3, 76, 100
5, 13917, Note_on_c, 3, 76, 0
5, 13920, Note_on_c, 3, 78, 100
5, 13974, Note_on_c, 3, 78, 0
5, 13980, Note_on_c, 3, 69, 100
5, 14034, Note_on_c, 3, 69, 0
5, 14040, Note_on_c, 3, 69, 100
5, 14148, Note_on_c, 3, 69, 0
5, 14160, Note_on_c, 3, 68, 100
5, 14214, Note_on_c, 3, 68, 0
5, 14220, Note_on_c, 3, 69, 100
5, 14274, Note_on_c, 3, 69, 0
5, 14280, Note_on_c, 3, 71, 100
5, 14427, Note_on_c, 3, 71, 0
5, 14430, Note_on_c, 3, 69, 100
5, 14457, Note_on_c, 3, 69, 0
5, 14460, Note_on_c, 3, 68, 100
5, 14514, Note_on_c, 3, 68, 0
5, 14520, Note_on_c, 3, 69, 100
5, 14574, Note_on_c, 3, 69, 0
5, 14580, Note_on_c, 3, 76, 100
5, 14688, Note_on_c, 3, 76, 0
5, 14700, Note_on_c, 3, 77, 100
5, 14754, Note_on_c, 3, 77, 0
5, 14760, Note_on_c, 3, 71, 100
5, 14976, Note_on_c, 3, 71, 0
5, 15000, Note_on_c, 3, 72, 100
5, 15108, Note_on_c, 3, 72, 0
5, 15120, Note_on_c, 3, 74, 100
5, 15156, Note_on_c, 3, 74, 0
5, 15160, Note_on_c, 3, 72, 100
5, 15196, Note_on_c, 3, 72, 0
5, 15200, Note_on_c, 3, 74, 100
5, 15236, Note_on_c, 3, 74, 0
5, 15240, Note_on_c, 3, 83, 100
5, 15348, Note_on_c, 3, 83, 0
5, 15360, Note_on_c, 3, 74, 100
5, 15588, Note_on_c, 3, 74, 0
5, 15600, Note_on_c, 3, 72, 100
5, 15708, Note_on_c, 3, 72, 0
5, 15840, Note_on_c, 3, 77, 100
5, 15867, Note_on_c, 3, 77, 0
5, 15870, Note_on_c, 3, 76, 100
5, 15897, Note_on_c, 3, 76, 0
5, 15900, Note_on_c, 3, 74, 100
5, 15927, Note_on_c, 3, 74, 0
5, 15930, Note_on_c, 3, 77, 100
5, 15957, Note_on_c, 3, 77, 0
5, 15960, Note_on_c, 3, 76, 100
5, 15987, Note_on_c, 3, 76, 0
5, 15990, Note_on_c, 3, 74, 100
5, 16017, Note_on_c, 3, 74, 0
5, 16020, Note_on_c, 3, 72, 100
5, 16047, Note_on_c, 3, 72, 0
5, 16050, Note_on_c, 3, 76, 100
5, 16077, Note_on_c, 3, 76, 0
5, 16080, Note_on_c, 3, 74, 100
5, 16134, Note_on_c, 3, 74, 0
5, 16140, Note_on_c, 3, 80, 100
5, 16167, Note_on_c, 3, 80, 0
5, 16170, Note_on_c, 3, 83, 100
5, 16197, Note_on_c, 3, 83, 0
5, 16200, Note_on_c, 3, 86, 100
5, 16587, Note_on_c, 3, 86, 0
5, 16590, Note_on_c, 3, 84, 100
5, 16617, Note_on_c, 3, 84, 0
5, 16620, Note_on_c, 3, 83, 100
5, 16647, Note_on_c, 3, 83, 0
5, 16650, Note_on_c, 3, 81, 100
5, 16677, Note_on_c, 3, 81, 0
5, 16680, Note_on_c, 3, 83, 100
5, 16788, Note_on_c, 3, 83, 0
5, 16800, Note_on_c, 3, 80, 100
5, 17028, Note_on_c, 3, 80, 0
5, 17040, Note_on_c, 3, 81, 100
5, 17148, Note_on_c, 3, 81, 0
5, 17520, Note_on_c, 3, 81, 100
5, 17667, Note_on_c, 3, 81, 0
5, 17670, Note_on_c, 3, 78, 100
5, 17697, Note_on_c, 3, 78, 0
5, 17700, Note_on_c, 3, 79, 100
5, 17727, Note_on_c, 3, 79, 0
5, 17730, Note_on_c, 3, 81, 100
5, 17757, Note_on_c, 3, 81, 0
5, 17760, Note_on_c, 3, 79, 100
5, 17787, Note_on_c, 3, 79, 0
5, 17790, Note_on_c, 3, 76, 100
5, 17817, Note_on_c, 3, 76, 0
5, 17820, Note_on_c, 3, 77, 100
5, 17847, Note_on_c, 3, 77, 0
5, 17850, Note_on_c, 3, 79, 100
5, 17877, Note_on_c, 3, 79, 0
5, 17880, Note_on_c, 3, 77, 100
5, 17907, Note_on_c, 3, 77, 0
5, 17910, Note_on_c, 3, 74, 100
5, 17937, Note_on_c, 3, 74, 0
5, 17940, Note_on_c, 3, 76, 100
5, 17967, Note_on_c, 3, 76, 0
5, 17970, Note_on_c, 3, 77, 100
5, 17997, Note_on_c, 3, 77, 0
5, 18000, Note_on_c, 3, 76, 100
5, 18108, Note_on_c, 3, 76, 0
5, 18120, Note_on_c, 3, 77, 100
5, 18228, Note_on_c, 3, 77, 0
5, 18240, Note_on_c, 3, 79, 100
5, 18387, Note_on_c, 3, 79, 0
5, 18390, Note_on_c, 3, 76, 100
5, 18417, Note_on_c, 3, 76, 0
5, 18420, Note_on_c, 3, 77, 100
5, 18447, Note_on_c, 3, 77, 0
5, 18450, Note_on_c, 3, 79, 100
5, 18477, Note_on_c, 3, 79, 0
5, 18480, Note_on_c, 3, 77, 100
5, 18507, Note_on_c, 3, 77, 0
5, 18510, Note_on_c, 3, 74, 100
5, 18537, Note_on_c, 3, 74, 0
5, 18540, Note_on_c, 3, 76, 100
5, 18567, Note_on_c, 3, 76, 0
5, 18570, Note_on_c, 3, 77, 100
5, 18597, Note_on_c, 3, 77, 0
5, 18600, Note_on_c, 3, 76, 100
5, 18627, Note_on_c, 3, 76, 0
5, 18630, Note_on_c, 3, 72, 100
5, 18657, Note_on_c, 3, 72, 0
5, 18660, Note_on_c, 3, 74, 100
5, 18687, Note_on_c, 3, 74, 0
5, 18690, Note_on_c, 3, 76, 100
5, 18717, Note_on_c, 3, 76, 0
5, 18720, Note_on_c, 3, 74, 100
5, 19134, Note_on_c, 3, 74, 0
5, 19140, Note_on_c, 3, 72, 100
5, 19167, Note_on_c, 3, 72, 0
5, 19170, Note_on_c, 3, 74, 100
5, 19197, Note_on_c, 3, 74, 0
5, 19200, Note_on_c, 3, 76, 100
5, 19254, Note_on_c, 3, 76, 0
5, 19260, Note_on_c, 3, 76, 100
5, 19287, Note_on_c, 3, 76, 0
5, 19290, Note_on_c, 3, 77, 100
5, 19317, Note_on_c, 3, 77, 0
5, 19320, Note_on_c, 3, 79, 100
5, 19374, Note_on_c, 3, 79, 0
5, 19380, Note_on_c, 3, 79, 100
5, 19407, Note_on_c, 3, 79, 0
5, 19410, Note_on_c, 3, 81, 100
5, 19437, Note_on_c, 3, 81, 0
5, 19440, Note_on_c, 3, 82, 100
5, 19494, Note_on_c, 3, 82, 0
5, 19500, Note_on_c, 3, 81, 100
5, 19527, Note_on_c, 3, 81, 0
5, 19530, Note_on_c, 3, 82, 100
5, 19557, Note_on_c, 3, 82, 0
5, 19560, Note_on_c, 3, 84, 100
5, 19614, Note_on_c, 3, 84, 0
5, 19620, Note_on_c, 3, 81, 100
5, 19674, Note_on_c, 3, 81, 0
5, 19680, Note_on_c, 3, 77, 100
5, 19734, Note_on_c, 3, 77, 0
5, 19740, Note_on_c, 3, 86, 100
5, 19794, Note_on_c, 3, 86, 0
5, 19800, Note_on_c, 3, 83, 100
5, 19962, Note_on_c, 3, 83, 0
5, 19980, Note_on_c, 3, 81, 100
5, 20034, Note_on_c, 3, 81, 0
5, 20040, Note_on_c, 3, 79, 100
5, 20148, Note_on_c, 3, 79, 0
5, 20160, Note_on_c, 3, 88, 100
5, 20376, Note_on_c, 3, 88, 0
5, 20400, Note_on_c, 3, 89, 100
5, 20508, Note_on_c, 3, 89, 0
5, 20520, Note_on_c, 3, 83, 100
5, 20736, Note_on_c, 3, 83, 0
5, 20760, Note_on_c, 3, 84, 100
5, 20868, Note_on_c, 3, 84, 0
5, 20880, Note_on_c, 3, 86, 100
5, 20916, Note_on_c, 3, 86, 0
5, 20920, Note_on_c, 3, 84, 100
5, 20956, Note_on_c, 3, 84, 0
5, 20960, Note_on_c, 3, 86, 100
5, 20996, Note_on_c, 3, 86, 0
5, 21000, Note_on_c, 3, 79, 100
5, 21108, Note_on_c, 3, 79, 0
5, 21120, Note_on_c, 3, 83, 100
5, 21348, Note_on_c, 3, 83, 0
5, 21360, Note_on_c, 3, 84, 100
5, 21468, Note_on_c, 3, 84, 0
5, 21600, Note_on_c, 3, 75, 100
5, 21627, Note_on_c, 3, 75, 0
5, 21630, Note_on_c, 3, 74, 100
5, 21657, Note_on_c, 3, 74, 0
5, 21660, Note_on_c, 3, 75, 100
5, 21768, Note_on_c, 3, 75, 0
5, 21780, Note_on_c, 3, 81, 100
5, 21807, Note_on_c, 3, 81, 0
5, 21810, Note_on_c, 3, 82, 100
5, 21837, Note_on_c, 3, 82, 0
5, 21840, Note_on_c, 3, 84, 100
5, 21894, Note_on_c, 3, 84, 0
5, 21900, Note_on_c, 3, 75, 100
5, 21954, Note_on_c, 3, 75, 0
5, 21960, Note_on_c, 3, 75, 100
5, 22068, Note_on_c, 3, 75, 0
5, 22080, Note_on_c, 3, 74, 100
5, 22188, Note_on_c, 3, 74, 0
5, 22200, Note_on_c, 3, 81, 100
5, 22428, Note_on_c, 3, 81, 0
5, 22440, Note_on_c, 3, 80, 100
5, 22788, Note_on_c, 3, 80, 0
5, 22800, Note_on_c, 3, 81, 100
5, 22854, Note_on_c, 3, 81, 0
5, 22860, Note_on_c, 3, 82, 100
5, 22887, Note_on_c, 3, 82, 0
5, 22890, Note_on_c, 3, 81, 100
5, 22917, Note_on_c, 3, 81, 0
5, 22920, Note_on_c, 3, 79, 100
5, 22947, Note_on_c, 3, 79, 0
5, 22950, Note_on_c, 3, 77, 100
5, 22977, Note_on_c, 3, 77, 0
5, 22980, Note_on_c, 3, 76, 100
5, 23007, Note_on_c, 3, 76, 0
5, 23010, Note_on_c, 3, 74, 100
5, 23037, Note_on_c, 3, 74, 0
5, 23040, Note_on_c, 3, 76, 100
5, 23148, Note_on_c, 3, 76, 0
5, 23160, Note_on_c, 3, 69, 100
5, 23268, Note_on_c, 3, 69, 0
5, 23640, Note_on_c, 3, 84, 100
5, 23868, Note_on_c, 3, 84, 0
5, 23880, Note_on_c, 3, 83, 100
5, 23988, Note_on_c, 3, 83, 0
5, 24000, Note_on_c, 3, 82, 100
5, 24174, Note_on_c, 3, 82, 0
5, 24180, Note_on_c, 3, 81, 100
5, 24207, Note_on_c, 3, 81, 0
5, 24210, Note_on_c, 3, 79, 100
5, 24237, Note_on_c, 3, 79, 0
5, 24240, Note_on_c, 3, 81, 100
5, 24294, Note_on_c, 3, 81, 0
5, 24300, Note_on_c, 3, 83, 100
5, 24327, Note_on_c, 3, 83, 0
5, 24330, Note_on_c, 3, 84, 100
5, 24357, Note_on_c, 3, 84, 0
5, 24360, Note_on_c, 3, 83, 100
5, 24414, Note_on_c, 3, 83, 0
5, 24420, Note_on_c, 3, 84, 100
5, 24447, Note_on_c, 3, 84, 0
5, 24450, Note_on_c, 3, 86, 100
5, 24477, Note_on_c, 3, 86, 0
5, 24480, Note_on_c, 3, 84, 100
5, 24948, Note_on_c, 3, 84, 0
5, 24960, Note_on_c, 3, 83, 100
5, 25068, Note_on_c, 3, 83, 0
5, 25080, Note_on_c, 3, 82, 100
5, 25308, Note_on_c, 3, 82, 0
5, 25320, Note_on_c, 3, 81, 100
5, 25428, Note_on_c, 3, 81, 0
5, 25440, Note_on_c, 3, 80, 100
5, 25614, Note_on_c, 3, 80, 0
5, 25620, Note_on_c, 3, 79, 100
5, 25647, Note_on_c, 3, 79, 0
5, 25650, Note_on_c, 3, 77, 100
5, 25677, Note_on_c, 3, 77, 0
5, 25680, Note_on_c, 3, 79, 100
5, 25734, Note_on_c, 3, 79, 0
5, 25740, Note_on_c, 3, 81, 100
5, 25767, Note_on_c, 3, 81, 0
5, 25770, Note_on_c, 3, 82, 100
5, 25797, Note_on_c, 3, 82, 0
5, 25800, Note_on_c, 3, 81, 100
5, 25854, Note_on_c, 3, 81, 0
5, 25860, Note_on_c, 3, 82, 100
5, 25887, Note_on_c, 3, 82, 0
5, 25890, Note_on_c, 3, 84, 100
5, 25917, Note_on_c, 3, 84, 0
5, 25920, Note_on_c, 3, 82, 100
5, 26388, Note_on_c, 3, 82, 0
5, 26400, Note_on_c, 3, 81, 100
5, 26508, Note_on_c, 3, 81, 0
5, 26640, Note_on_c, 3, 74, 100
5, 26694, Note_on_c, 3, 74, 0
5, 26700, Note_on_c, 3, 79, 100
5, 26727, Note_on_c, 3, 79, 0
5, 26730, Note_on_c, 3, 81, 100
5, 26757, Note_on_c, 3, 81, 0
5, 26760, Note_on_c, 3, 83, 100
5, 26814, Note_on_c, 3, 83, 0
5, 26820, Note_on_c, 3, 83, 100
5, 26847, Note_on_c, 3, 83, 0
5, 26850, Note_on_c, 3, 84, 100
5, 26877, Note_on_c, 3, 84, 0
5, 26880, Note_on_c, 3, 86, 100
5, 26934, Note_on_c, 3, 86, 0
5, 26940, Note_on_c, 3, 86, 100
5, 26967, Note_on_c, 3, 86, 0
5, 26970, Note_on_c, 3, 84, 100
5, 26997, Note_on_c, 3, 84, 0
5, 27000, Note_on_c, 3, 83, 100
5, 27054, Note_on_c, 3, 83, 0
5, 27060, Note_on_c, 3, 83, 100
5, 27087, Note_on_c, 3, 83, 0
5, 27090, Note_on_c, 3, 84, 100
5, 27117, Note_on_c, 3, 84, 0
5, 27120, Note_on_c, 3, 86, 100
5, 27174, Note_on_c, 3, 86, 0
5, 27180, Note_on_c, 3, 86, 100
5, 27207, Note_on_c, 3, 86, 0
5, 27210, Note_on_c, 3, 88, 100
5, 27237, Note_on_c, 3, 88, 0
5, 27240, Note_on_c, 3, 89, 100
5, 27294, Note_on_c, 3, 89, 0
5, 27300, Note_on_c, 3, 88, 100
5, 27327, Note_on_c, 3, 88, 0
5, 27330, Note_on_c, 3, 86, 100
5, 27357, Note_on_c, 3, 86, 0
5, 27360, Note_on_c, 3, 84, 100
5, 27882, Note_on_c, 3, 84, 0
5, 27900, Note_on_c, 3, 86, 100
5, 27927, Note_on_c, 3, 86, 0
5, 27930, Note_on_c, 3, 84, 100
5, 27957, Note_on_c, 3, 84, 0
5, 27960, Note_on_c, 3, 83, 100
5, 27987, Note_on_c, 3, 83, 0
5, 27990, Note_on_c, 3, 81, 100
5, 28017, Note_on_c, 3, 81, 0
5, 28020, Note_on_c, 3, 79, 100
5, 28047, Note_on_c, 3, 79, 0
5, 28050, Note_on_c, 3, 77, 100
5, 28077, Note_on_c, 3, 77, 0
5, 28080, Note_on_c, 3, 76, 100
5, 28188, Note_on_c, 3, 76, 0
5, 28200, Note_on_c, 3, 84, 100
5, 28308, Note_on_c, 3, 84, 0
5, 28320, Note_on_c, 3, 83, 100
5, 28548, Note_on_c, 3, 83, 0
5, 28560, Note_on_c, 3, 84, 100
5, 28668, Note_on_c, 3, 84, 0
5, 28800, Note_on_c, 3, 74, 100
5, 29016, Note_on_c, 3, 74, 0
5, 29040, Note_on_c, 3, 76, 100
5, 29148, Note_on_c, 3, 76, 0
5, 29160, Note_on_c, 3, 69, 100
5, 29376, Note_on_c, 3, 69, 0
5, 29400, Note_on_c, 3, 71, 100
5, 29508, Note_on_c, 3, 71, 0
5, 29520, Note_on_c, 3, 72, 100
5, 29556, Note_on_c, 3, 72, 0
5, 29560, Note_on_c, 3, 71, 100
5, 29596, Note_on_c, 3, 71, 0
5, 29600, Note_on_c, 3, 72, 100
5, 29636, Note_on_c, 3, 72, 0
5, 29640, Note_on_c, 3, 81, 100
5, 29748, Note_on_c, 3, 81, 0
5, 29760, Note_on_c, 3, 72, 100
5, 29988, Note_on_c, 3, 72, 0
5, 30000, Note_on_c, 3, 71, 100
5, 30108, Note_on_c, 3, 71, 0
5, 30240, Note_on_c, 3, 70, 100
5, 30267, Note_on_c, 3, 70, 0
5, 30270, Note_on_c, 3, 69, 100
5, 30297, Note_on_c, 3, 69, 0
5, 30300, Note_on_c, 3, 70, 100
5, 30408, Note_on_c, 3, 70, 0
5, 30420, Note_on_c, 3, 76, 100
5, 30447, Note_on_c, 3, 76, 0
5, 30450, Note_on_c, 3, 77, 100
5, 30477, Note_on_c, 3, 77, 0
5, 30480, Note_on_c, 3, 79, 100
5, 30534, Note_on_c, 3, 79, 0
5, 30540, Note_on_c, 3, 70, 100
5, 30594, Note_on_c, 3, 70, 0
5, 30600, Note_on_c, 3, 70, 100
5, 30708, Note_on_c, 3, 70, 0
5, 30720, Note_on_c, 3, 69, 100
5, 30828, Note_on_c, 3, 69, 0
5, 30960, Note_on_c, 3, 75, 100
5, 31428, Note_on_c, 3, 75, 0
5, 31440, Note_on_c, 3, 76, 100
5, 31494, Note_on_c, 3, 76, 0
5, 31500, Note_on_c, 3, 77, 100
5, 31527, Note_on_c, 3, 77, 0
5, 31530, Note_on_c, 3, 76, 100
5, 31557, Note_on_c, 3, 76, 0
5, 31560, Note_on_c, 3, 74, 100
5, 31587, Note_on_c, 3, 74, 0
5, 31590, Note_on_c, 3, 72, 100
5, 31617, Note_on_c, 3, 72, 0
5, 31620, Note_on_c, 3, 71, 100
5, 31674, Note_on_c, 3, 71, 0
5, 31680, Note_on_c, 3, 72, 100
5, 31896, Note_on_c, 3, 72, 0
5, 31920, Note_on_c, 3, 74, 100
5, 32028, Note_on_c, 3, 74, 0
5, 32040, Note_on_c, 3, 68, 100
5, 32256, Note_on_c, 3, 68, 0
5, 32280, Note_on_c, 3, 69, 100
5, 32388, Note_on_c, 3, 69, 0
5, 32400, Note_on_c, 3, 71, 100
5, 32436, Note_on_c, 3, 71, 0
5, 32440, Note_on_c, 3, 69, 100
5, 32476, Note_on_c, 3, 69, 0
5, 32480, Note_on_c, 3, 71, 100
5, 32516, Note_on_c, 3, 71, 0
5, 32520, Note_on_c, 3, 64, 100
5, 32628, Note_on_c, 3, 64, 0
5, 32640, Note_on_c, 3, 68, 100
5, 32868, Note_on_c, 3, 68, 0
5, 32880, Note_on_c, 3, 69, 100
5, 32988, Note_on_c, 3, 69, 0
5, 33480, Note_on_c, 3, 71, 100
5, 33507, Note_on_c, 3, 71, 0
5, 33510, Note_on_c, 3, 69, 100
5, 33537, Note_on_c, 3, 69, 0
5, 33540, Note_on_c, 3, 68, 100
5, 33567, Note_on_c, 3, 68, 0
5, 33570, Note_on_c, 3, 71, 100
5, 33597, Note_on_c, 3, 71, 0
5, 33600, Note_on_c, 3, 69, 100
5, 33627, Note_on_c, 3, 69, 0
5, 33630, Note_on_c, 3, 68, 100
5, 33657, Note_on_c, 3, 68, 0
5, 33660, Note_on_c, 3, 66, 100
5, 33687, Note_on_c, 3, 66, 0
5, 33690, Note_on_c, 3, 69, 100
5, 33717, Note_on_c, 3, 69, 0
5, 33720, Note_on_c, 3, 68, 100
5, 33774, Note_on_c, 3, 68, 0
5, 33780, Note_on_c, 3, 71, 100
5, 33807, Note_on_c, 3, 71, 0
5, 33810, Note_on_c, 3, 76, 100
5, 33837, Note_on_c, 3, 76, 0
5, 33840, Note_on_c, 3, 81, 100
5, 33987, Note_on_c, 3, 81, 0
5, 33990, Note_on_c, 3, 80, 100
5, 34017, Note_on_c, 3, 80, 0
5, 34020, Note_on_c, 3, 78, 100
5, 34047, Note_on_c, 3, 78, 0
5, 34050, Note_on_c, 3, 76, 100
5, 34077, Note_on_c, 3, 76, 0
5, 34080, Note_on_c, 3, 83, 100
5, 34134, Note_on_c, 3, 83, 0
5, 34140, Note_on_c, 3, 74, 100
5, 34194, Note_on_c, 3, 74, 0
5, 34200, Note_on_c, 3, 74, 100
5, 34308, Note_on_c, 3, 74, 0
5, 34320, Note_on_c, 3, 72, 100
5, 34428, Note_on_c, 3, 72, 0
5, 34440, Note_on_c, 3, 75, 100
5, 34587, Note_on_c, 3, 75, 0
5, 34590, Note_on_c, 3, 72, 100
5, 34617, Note_on_c, 3, 72, 0
5, 34620, Note_on_c, 3, 74, 100
5, 34647, Note_on_c, 3, 74, 0
5, 34650, Note_on_c, 3, 75, 100
5, 34677, Note_on_c, 3, 75, 0
5, 34680, Note_on_c, 3, 74, 100
5, 34707, Note_on_c, 3, 74, 0
5, 34710, Note_on_c, 3, 70, 100
5, 34737, Note_on_c, 3, 70, 0
5, 34740, Note_on_c, 3, 72, 100
5, 34767, Note_on_c, 3, 72, 0
5, 34770, Note_on_c, 3, 74, 100
5, 34797, Note_on_c, 3, 74, 0
5, 34800, Note_on_c, 3, 72, 100
5, 34827, Note_on_c, 3, 72, 0
5, 34830, Note_on_c, 3, 69, 100
5, 34857, Note_on_c, 3, 69, 0
5, 34860, Note_on_c, 3, 70, 100
5, 34887, Note_on_c, 3, 70, 0
5, 34890, Note_on_c, 3, 72, 100
5, 34917, Note_on_c, 3, 72, 0
5, 34920, Note_on_c, 3, 70, 100
5, 35028, Note_on_c, 3, 70, 0
5, 35040, Note_on_c, 3, 72, 100
5, 35148, Note_on_c, 3, 72, 0
5, 35160, Note_on_c, 3, 74, 100
5, 35307, Note_on_c, 3, 74, 0
5, 35310, Note_on_c, 3, 70, 100
5, 35337, Note_on_c, 3, 70, 0
5, 35340, Note_on_c, 3, 72, 100
5, 35367, Note_on_c, 3, 72, 0
5, 35370, Note_on_c, 3, 74, 100
5, 35397, Note_on_c, 3, 74, 0
5, 35400, Note_on_c, 3, 72, 100
5, 35427, Note_on_c, 3, 72, 0
5, 35430, Note_on_c, 3, 69, 100
5, 35457, Note_on_c, 3, 69, 0
5, 35460, Note_on_c, 3, 70, 100
5, 35487, Note_on_c, 3, 70, 0
5, 35490, Note_on_c, 3, 72, 100
5, 35517, Note_on_c, 3, 72, 0
5, 35520, Note_on_c, 3, 70, 100
5, 35547, Note_on_c, 3, 70, 0
5, 35550, Note_on_c, 3, 67, 100
5, 35577, Note_on_c, 3, 67, 0
5, 35580, Note_on_c, 3, 69, 100
5, 35607, Note_on_c, 3, 69, 0
5, 35610, Note_on_c, 3, 70, 100
5, 35637, Note_on_c, 3, 70, 0
5, 35640, Note_on_c, 3, 69, 100
5, 36054, Note_on_c, 3, 69, 0
5, 36060, Note_on_c, 3, 67, 100
5, 36087, Note_on_c, 3, 67, 0
5, 36090, Note_on_c, 3, 69, 100
5, 36117, Note_on_c, 3, 69, 0
5, 36120, Note_on_c, 3, 71, 100
5, 36174, Note_on_c, 3, 71, 0
5, 36180, Note_on_c, 3, 71, 100
5, 36207, Note_on_c, 3, 71, 0
5, 36210, Note_on_c, 3, 72, 100
5, 36237, Note_on_c, 3, 72, 0
5, 36240, Note_on_c, 3, 74, 100
5, 36294, Note_on_c, 3, 74, 0
5, 36300, Note_on_c, 3, 74, 100
5, 36327, Note_on_c, 3, 74, 0
5, 36330, Note_on_c, 3, 76, 100
5, 36357, Note_on_c, 3, 76, 0
5, 36360, Note_on_c, 3, 77, 100
5, 36414, Note_on_c, 3, 77, 0
5, 36420, Note_on_c, 3, 76, 100
5, 36447, Note_on_c, 3, 76, 0
5, 36450, Note_on_c, 3, 77, 100
5, 36477, Note_on_c, 3, 77, 0
5, 36480, Note_on_c, 3, 79, 100
5, 36534, Note_on_c, 3, 79, 0
5, 36540, Note_on_c, 3, 76, 100
5, 36594, Note_on_c, 3, 76, 0
5, 36600, Note_on_c, 3, 72, 100
5, 36828, Note_on_c, 3, 72, 0
5, 36840, Note_on_c, 3, 77, 100
5, 36948, Note_on_c, 3, 77, 0
5, 36960, Note_on_c, 3, 81, 100
5, 37107, Note_on_c, 3, 81, 0
5, 37110, Note_on_c, 3, 79, 100
5, 37137, Note_on_c, 3, 79, 0
5, 37140, Note_on_c, 3, 78, 100
5, 37167, Note_on_c, 3, 78, 0
5, 37170, Note_on_c, 3, 79, 100
5, 37197, Note_on_c, 3, 79, 0
5, 37200, Note_on_c, 3, 86, 100
5, 37467, Note_on_c, 3, 86, 0
5, 37470, Note_on_c, 3, 84, 100
5, 37497, Note_on_c, 3, 84, 0
5, 37500, Note_on_c, 3, 83, 100
5, 37554, Note_on_c, 3, 83, 0
5, 37560, Note_on_c, 3, 84, 100
5, 37614, Note_on_c, 3, 84, 0
5, 37620, Note_on_c, 3, 79, 100
5, 37728, Note_on_c, 3, 79, 0
5, 37740, Note_on_c, 3, 81, 100
5, 37794, Note_on_c, 3, 81, 0
5, 37800, Note_on_c, 3, 74, 100
5, 38016, Note_on_c, 3, 74, 0
5, 38040, Note_on_c, 3, 76, 100
5, 38148, Note_on_c, 3, 76, 0
5, 38160, Note_on_c, 3, 77, 100
5, 38196, Note_on_c, 3, 77, 0
5, 38200, Note_on_c, 3, 76, 100
5, 38236, Note_on_c, 3, 76, 0
5, 38240, Note_on_c, 3, 77, 100
5, 38276, Note_on_c, 3, 77, 0
5, 38280, Note_on_c, 3, 86, 100
5, 38388, Note_on_c, 3, 86, 0
5, 38400, Note_on_c, 3, 77, 100
5, 38628, Note_on_c, 3, 77, 0
5, 38640, Note_on_c, 3, 76, 100
5, 38748, Note_on_c, 3, 76, 0
5, 38760, Note_on_c, 3, 79, 100
5, 38988, Note_on_c, 3, 79, 0
5, 39000, Note_on_c, 3, 78, 100
5, 39348, Note_on_c, 3, 78, 0
5, 39360, Note_on_c, 3, 79, 100
5, 39414, Note_on_c, 3, 79, 0
5, 39420, Note_on_c, 3, 81, 100
5, 39447, Note_on_c, 3, 81, 0
5, 39450, Note_on_c, 3, 82, 100
5, 39477, Note_on_c, 3, 82, 0
5, 39480, Note_on_c, 3, 81, 100
5, 39507, Note_on_c, 3, 81, 0
5, 39510, Note_on_c, 3, 79, 100
5, 39537, Note_on_c, 3, 79, 0
5, 39540, Note_on_c, 3, 77, 100
5, 39567, Note_on_c, 3, 77, 0
5, 39570, Note_on_c, 3, 76, 100
5, 39597, Note_on_c, 3, 76, 0
5, 39600, Note_on_c, 3, 74, 100
5, 39627, Note_on_c, 3, 74, 0
5, 39630, Note_on_c, 3, 73, 100
5, 39657, Note_on_c, 3, 73, 0
5, 39660, Note_on_c, 3, 74, 100
5, 39768, Note_on_c, 3, 74, 0
5, 39780, Note_on_c, 3, 80, 100
5, 39807, Note_on_c, 3, 80, 0
5, 39810, Note_on_c, 3, 81, 100
5, 39837, Note_on_c, 3, 81, 0
5, 39840, Note_on_c, 3, 83, 100
5, 39894, Note_on_c, 3, 83, 0
5, 39900, Note_on_c, 3, 74, 100
5, 39954, Note_on_c, 3, 74, 0
5, 39960, Note_on_c, 3, 74, 100
5, 40068, Note_on_c, 3, 74, 0
5, 40080, Note_on_c, 3, 73, 100
5, 40134, Note_on_c, 3, 73, 0
5, 40140, Note_on_c, 3, 76, 100
5, 40194, Note_on_c, 3, 76, 0
5, 40200, Note_on_c, 3, 79, 100
5, 40428, Note_on_c, 3, 79, 0
5, 40440, Note_on_c, 3, 78, 100
5, 40548, Note_on_c, 3, 78, 0
5, 40560, Note_on_c, 3, 77, 100
5, 40734, Note_on_c, 3, 77, 0
5, 40740, Note_on_c, 3, 76, 100
5, 40767, Note_on_c, 3, 76, 0
5, 40770, Note_on_c, 3, 74, 100
5, 40797, Note_on_c, 3, 74, 0
5, 40800, Note_on_c, 3, 76, 100
5, 40854, Note_on_c, 3, 76, 0
5, 40860, Note_on_c, 3, 78, 100
5, 40887, Note_on_c, 3, 78, 0
5, 40890, Note_on_c, 3, 79, 100
5, 40917, Note_on_c, 3, 79, 0
5, 40920, Note_on_c, 3, 78, 100
5, 40974, Note_on_c, 3, 78, 0
5, 40980, Note_on_c, 3, 79, 100
5, 41007, Note_on_c, 3, 79, 0
5, 41010, Note_on_c, 3, 81, 100
5, 41037, Note_on_c, 3, 81, 0
5, 41040, Note_on_c, 3, 79, 100
5, 41508, Note_on_c, 3, 79, 0
5, 41520, Note_on_c, 3, 78, 100
5, 41628, Note_on_c, 3, 78, 0
5, 41640, Note_on_c, 3, 77, 100
5, 41868, Note_on_c, 3, 77, 0
5, 41880, Note_on_c, 3, 76, 100
5, 41988, Note_on_c, 3, 76, 0
5, 42000, Note_on_c, 3, 75, 100
5, 42174, Note_on_c, 3, 75, 0
5, 42180, Note_on_c, 3, 74, 100
5, 42207, Note_on_c, 3, 74, 0
5, 42210, Note_on_c, 3, 72, 100
5, 42237, Note_on_c, 3, 72, 0
5, 42240, Note_on_c, 3, 74, 100
5, 42294, Note_on_c, 3, 74, 0
5, 42300, Note_on_c, 3, 76, 100
5, 42327, Note_on_c, 3, 76, 0
5, 42330, Note_on_c, 3, 77, 100
5, 42357, Note_on_c, 3, 77, 0
5, 42360, Note_on_c, 3, 76, 100
5, 42414, Note_on_c, 3, 76, 0
5, 42420, Note_on_c, 3, 77, 100
5, 42447, Note_on_c, 3, 77, 0
5, 42450, Note_on_c, 3, 79, 100
5, 42477, Note_on_c, 3, 79, 0
5, 42480, Note_on_c, 3, 77, 100
5, 42948, Note_on_c, 3, 77, 0
5, 42960, Note_on_c, 3, 76, 100
5, 43068, Note_on_c, 3, 76, 0
5, 43200, Note_on_c, 3, 67, 100
5, 43254, Note_on_c, 3, 67, 0
5, 43260, Note_on_c, 3, 72, 100
5, 43287, Note_on_c, 3, 72, 0
5, 43290, Note_on_c, 3, 74, 100
5, 43317, Note_on_c, 3, 74, 0
5, 43320, Note_on_c, 3, 76, 100
5, 43374, Note_on_c, 3, 76, 0
5, 43380, Note_on_c, 3, 76, 100
5, 43407, Note_on_c, 3, 76, 0
5, 43410, Note_on_c, 3, 77, 100
5, 43437, Note_on_c, 3, 77, 0
5, 43440, Note_on_c, 3, 79, 100
5, 43494, Note_on_c, 3, 79, 0
5, 43500, Note_on_c, 3, 79, 100
5, 43527, Note_on_c, 3, 79, 0
5, 43530, Note_on_c, 3, 77, 100
5, 43557, Note_on_c, 3, 77, 0
5, 43560, Note_on_c, 3, 76, 100
5, 43614, Note_on_c, 3, 76, 0
5, 43620, Note_on_c, 3, 76, 100
5, 43647, Note_on_c, 3, 76, 0
5, 43650, Note_on_c, 3, 77, 100
5, 43677, Note_on_c, 3, 77, 0
5, 43680, Note_on_c, 3, 79, 100
5, 43734, Note_on_c, 3, 79, 0
5, 43740, Note_on_c, 3, 79, 100
5, 43767, Note_on_c, 3, 79, 0
5, 43770, Note_on_c, 3, 81, 100
5, 43797, Note_on_c, 3, 81, 0
5, 43800, Note_on_c, 3, 82, 100
5, 43854, Note_on_c, 3, 82, 0
5, 43860, Note_on_c, 3, 81, 100
5, 43887, Note_on_c, 3, 81, 0
5, 43890, Note_on_c, 3, 79, 100
5, 43917, Note_on_c, 3, 79, 0
5, 43920, Note_on_c, 3, 77, 100
5, 44388, Note_on_c, 3, 77, 0
5, 44400, Note_on_c, 3, 76, 100
5, 44508, Note_on_c, 3, 76, 0
5, 44640, Note_on_c, 3, 76, 100
5, 44802, Note_on_c, 3, 76, 0
5, 44820, Note_on_c, 3, 77, 100
5, 44847, Note_on_c, 3, 77, 0
5, 44850, Note_on_c, 3, 76, 100
5, 44877, Note_on_c, 3, 76, 0
5, 44880, Note_on_c, 3, 74, 100
5, 44907, Note_on_c, 3, 74, 0
5, 44910, Note_on_c, 3, 72, 100
5, 44937, Note_on_c, 3, 72, 0
5, 44940, Note_on_c, 3, 71, 100
5, 44967, Note_on_c, 3, 71, 0
5, 44970, Note_on_c, 3, 69, 100
5, 44997, Note_on_c, 3, 69, 0
5, 45000, Note_on_c, 3, 67, 100
5, 45108, Note_on_c, 3, 67, 0
5, 45120, Note_on_c, 3, 69, 100
5, 45228, Note_on_c, 3, 69, 0
5, 45240, Note_on_c, 3, 71, 100
5, 45348, Note_on_c, 3, 71, 0
5, 45360, Note_on_c, 3, 72, 100
5, 45387, Note_on_c, 3, 72, 0
5, 45390, Note_on_c, 3, 71, 100
5, 45417, Note_on_c, 3, 71, 0
5, 45420, Note_on_c, 3, 69, 100
5, 45528, Note_on_c, 3, 69, 0
5, 45540, Note_on_c, 3, 74, 100
5, 45648, Note_on_c, 3, 74, 0
5, 45660, Note_on_c, 3, 65, 100
5, 45714, Note_on_c, 3, 65, 0
5, 45720, Note_on_c, 3, 65, 100
5, 45828, Note_on_c, 3, 65, 0
5, 45840, Note_on_c, 3, 64, 100
5, 45948, Note_on_c, 3, 64, 0
5, 46500, Note_on_c, 3, 74, 100
5, 46554, Note_on_c, 3, 74, 0
5, 46560, Note_on_c, 3, 84, 100
5, 46614, Note_on_c, 3, 84, 0
5, 46620, Note_on_c, 3, 81, 100
5, 46674, Note_on_c, 3, 81, 0
5, 46680, Note_on_c, 3, 75, 100
5, 46734, Note_on_c, 3, 75, 0
5, 46740, Note_on_c, 3, 76, 100
5, 46794, Note_on_c, 3, 76, 0
5, 46800, Note_on_c, 3, 76, 100
5, 47448, Note_on_c, 3, 76, 0
5, 47448, End_track
6, 0, Start_track
6, 0, Sequence_number, 65535
6, 0, MIDI_port, 0
6, 0, Title_t, "Cembalo, linke Hand"
6, 0, Control_c, 4, 0, 0
6, 0, Control_c, 4, 32, 0
6, 0, Program_c, 4, 6
6, 0, Control_c, 4, 7, 80
6, 0, Control_c, 4, 10, 64
6, 0, Note_on_c, 4, 48, 100
6, 108, Note_on_c, 4, 48, 0
6, 120, Note_on_c, 4, 36, 100
6, 228, Note_on_c, 4, 36, 0
6, 240, Note_on_c, 4, 48, 100
6, 468, Note_on_c, 4, 48, 0
6, 480, Note_on_c, 4, 36, 100
6, 588, Note_on_c, 4, 36, 0
6, 600, Note_on_c, 4, 48, 100
6, 828, Note_on_c, 4, 48, 0
6, 840, Note_on_c, 4, 47, 100
6, 948, Note_on_c, 4, 47, 0
6, 960, Note_on_c, 4, 43, 100
6, 1068, Note_on_c, 4, 43, 0
6, 1080, Note_on_c, 4, 48, 100
6, 1242, Note_on_c, 4, 48, 0
6, 1260, Note_on_c, 4, 50, 100
6, 1287, Note_on_c, 4, 50, 0
6, 1290, Note_on_c, 4, 52, 100
6, 1317, Note_on_c, 4, 52, 0
6, 1320, Note_on_c, 4, 50, 100
6, 1374, Note_on_c, 4, 50, 0
6, 1380, Note_on_c, 4, 52, 100
6, 1407, Note_on_c, 4, 52, 0
6, 1410, Note_on_c, 4, 53, 100
6, 1437, Note_on_c, 4, 53, 0
6, 1440, Note_on_c, 4, 52, 100
6, 1494, Note_on_c, 4, 52, 0
6, 1500, Note_on_c, 4, 50, 100
6, 1554, Note_on_c, 4, 50, 0
6, 1560, Note_on_c, 4, 50, 100
6, 1614, Note_on_c, 4, 50, 0
6, 1620, Note_on_c, 4, 52, 100
6, 1674, Note_on_c, 4, 52, 0
6, 1680, Note_on_c, 4, 52, 100
6, 1734, Note_on_c, 4, 52, 0
6, 1740, Note_on_c, 4, 53, 100
6, 1794, Note_on_c, 4, 53, 0
6, 1800, Note_on_c, 4, 53, 100
6, 1908, Note_on_c, 4, 53, 0
6, 1920, Note_on_c, 4, 52, 100
6, 2028, Note_on_c, 4, 52, 0
6, 2040, Note_on_c, 4, 50, 100
6, 2148, Note_on_c, 4, 50, 0
6, 2160, Note_on_c, 4, 57, 100
6, 2214, Note_on_c, 4, 57, 0
6, 2220, Note_on_c, 4, 55, 100
6, 2274, Note_on_c, 4, 55, 0
6, 2280, Note_on_c, 4, 55, 100
6, 2334, Note_on_c, 4, 55, 0
6, 2340, Note_on_c, 4, 54, 100
6, 2394, Note_on_c, 4, 54, 0
6, 2400, Note_on_c, 4, 54, 100
6, 2454, Note_on_c, 4, 54, 0
6, 2460, Note_on_c, 4, 55, 100
6, 2514, Note_on_c, 4, 55, 0
6, 2520, Note_on_c, 4, 55, 100
6, 2628, Note_on_c, 4, 55, 0
6, 2640, Note_on_c, 4, 43, 100
6, 2748, Note_on_c, 4, 43, 0
6, 3000, Note_on_c, 4, 62, 100
6, 3108, Note_on_c, 4, 62, 0
6, 3120, Note_on_c, 4, 59, 100
6, 3228, Note_on_c, 4, 59, 0
6, 3240, Note_on_c, 4, 55, 100
6, 3348, Note_on_c, 4, 55, 0
6, 3360, Note_on_c, 4, 56, 100
6, 3468, Note_on_c, 4, 56, 0
6, 3720, Note_on_c, 4, 57, 100
6, 3828, Note_on_c, 4, 57, 0
6, 3840, Note_on_c, 4, 54, 100
6, 3948, Note_on_c, 4, 54, 0
6, 3960, Note_on_c, 4, 50, 100
6, 4068, Note_on_c, 4, 50, 0
6, 4080, Note_on_c, 4, 51, 100
6, 4188, Note_on_c, 4, 51, 0
6, 4320, Note_on_c, 4, 52, 100
6, 4428, Note_on_c, 4, 52, 0
6, 4440, Note_on_c, 4, 50, 100
6, 4548, Note_on_c, 4, 50, 0
6, 4560, Note_on_c, 4, 48, 100
6, 4668, Note_on_c, 4, 48, 0
6, 4680, Note_on_c, 4, 47, 100
6, 4788, Note_on_c, 4, 47, 0
6, 4800, Note_on_c, 4, 48, 100
6, 4908, Note_on_c, 4, 48, 0
6, 4920, Note_on_c, 4, 50, 100
6, 5028, Note_on_c, 4, 50, 0
6, 5040, Note_on_c, 4, 52, 100
6, 5148, Note_on_c, 4, 52, 0
6, 5160, Note_on_c, 4, 50, 100
6, 5214, Note_on_c, 4, 50, 0
6, 5220, Note_on_c, 4, 48, 100
6, 5274, Note_on_c, 4, 48, 0
6, 5280, Note_on_c, 4, 50, 100
6, 5388, Note_on_c, 4, 50, 0
6, 5400, Note_on_c, 4, 43, 100
6, 5454, Note_on_c, 4, 43, 0
6, 5460, Note_on_c, 4, 55, 100
6, 5568, Note_on_c, 4, 55, 0
6, 5580, Note_on_c, 4, 53, 100
6, 5634, Note_on_c, 4, 53, 0
6, 5640, Note_on_c, 4, 52, 100
6, 5694, Note_on_c, 4, 52, 0
6, 5700, Note_on_c, 4, 50, 100
6, 5754, Note_on_c, 4, 50, 0
6, 5760, Note_on_c, 4, 48, 100
6, 5868, Note_on_c, 4, 48, 0
6, 5880, Note_on_c, 4, 36, 100
6, 5988, Note_on_c, 4, 36, 0
6, 6000, Note_on_c, 4, 48, 100
6, 6228, Note_on_c, 4, 48, 0
6, 6240, Note_on_c, 4, 36, 100
6, 6348, Note_on_c, 4, 36, 0
6, 6360, Note_on_c, 4, 48, 100
6, 6588, Note_on_c, 4, 48, 0
6, 6600, Note_on_c, 4, 47, 100
6, 6708, Note_on_c, 4, 47, 0
6, 6720, Note_on_c, 4, 43, 100
6, 6828, Note_on_c, 4, 43, 0
6, 6840, Note_on_c, 4, 48, 100
6, 7002, Note_on_c, 4, 48, 0
6, 7020, Note_on_c, 4, 50, 100
6, 7047, Note_on_c, 4, 50, 0
6, 7050, Note_on_c, 4, 52, 100
6, 7077, Note_on_c, 4, 52, 0
6, 7080, Note_on_c, 4, 50, 100
6, 7134, Note_on_c, 4, 50, 0
6, 7140, Note_on_c, 4, 52, 100
6, 7167, Note_on_c, 4, 52, 0
6, 7170, Note_on_c, 4, 53, 100
6, 7197, Note_on_c, 4, 53, 0
6, 7200, Note_on_c, 4, 52, 100
6, 7254, Note_on_c, 4, 52, 0
6, 7260, Note_on_c, 4, 50, 100
6, 7314, Note_on_c, 4, 50, 0
6, 7320, Note_on_c, 4, 50, 100
6, 7374, Note_on_c, 4, 50, 0
6, 7380, Note_on_c, 4, 52, 100
6, 7434, Note_on_c, 4, 52, 0
6, 7440, Note_on_c, 4, 52, 100
6, 7494, Note_on_c, 4, 52, 0
6, 7500, Note_on_c, 4, 53, 100
6, 7554, Note_on_c, 4, 53, 0
6, 7560, Note_on_c, 4, 53, 100
6, 7668, Note_on_c, 4, 53, 0
6, 7680, Note_on_c, 4, 52, 100
6, 7788, Note_on_c, 4, 52, 0
6, 7800, Note_on_c, 4, 50, 100
6, 7908, Note_on_c, 4, 50, 0
6, 7920, Note_on_c, 4, 57, 100
6, 7974, Note_on_c, 4, 57, 0
6, 7980, Note_on_c, 4, 55, 100
6, 8034, Note_on_c, 4, 55, 0
6, 8040, Note_on_c, 4, 55, 100
6, 8094, Note_on_c, 4, 55, 0
6, 8100, Note_on_c, 4, 54, 100
6, 8154, Note_on_c, 4, 54, 0
6, 8160, Note_on_c, 4, 54, 100
6, 8214, Note_on_c, 4, 54, 0
6, 8220, Note_on_c, 4, 55, 100
6, 8274, Note_on_c, 4, 55, 0
6, 8280, Note_on_c, 4, 55, 100
6, 8388, Note_on_c, 4, 55, 0
6, 8400, Note_on_c, 4, 43, 100
6, 8508, Note_on_c, 4, 43, 0
6, 8760, Note_on_c, 4, 62, 100
6, 8868, Note_on_c, 4, 62, 0
6, 8880, Note_on_c, 4, 59, 100
6, 8988, Note_on_c, 4, 59, 0
6, 9000, Note_on_c, 4, 55, 100
6, 9108, Note_on_c, 4, 55, 0
6, 9120, Note_on_c, 4, 56, 100
6, 9228, Note_on_c, 4, 56, 0
6, 9480, Note_on_c, 4, 57, 100
6, 9588, Note_on_c, 4, 57, 0
6, 9600, Note_on_c, 4, 54, 100
6, 9708, Note_on_c, 4, 54, 0
6, 9720, Note_on_c, 4, 50, 100
6, 9828, Note_on_c, 4, 50, 0
6, 9840, Note_on_c, 4, 51, 100
6, 9948, Note_on_c, 4, 51, 0
6, 10080, Note_on_c, 4, 52, 100
6, 10188, Note_on_c, 4, 52, 0
6, 10200, Note_on_c, 4, 50, 100
6, 10308, Note_on_c, 4, 50, 0
6, 10320, Note_on_c, 4, 48, 100
6, 10428, Note_on_c, 4, 48, 0
6, 10440, Note_on_c, 4, 47, 100
6, 10548, Note_on_c, 4, 47, 0
6, 10560, Note_on_c, 4, 48, 100
6, 10668, Note_on_c, 4, 48, 0
6, 10680, Note_on_c, 4, 50, 100
6, 10788, Note_on_c, 4, 50, 0
6, 10800, Note_on_c, 4, 52, 100
6, 10908, Note_on_c, 4, 52, 0
6, 10920, Note_on_c, 4, 50, 100
6, 10974, Note_on_c, 4, 50, 0
6, 10980, Note_on_c, 4, 48, 100
6, 11034, Note_on_c, 4, 48, 0
6, 11040, Note_on_c, 4, 50, 100
6, 11148, Note_on_c, 4, 50, 0
6, 11160, Note_on_c, 4, 43, 100
6, 11322, Note_on_c, 4, 43, 0
6, 11340, Note_on_c, 4, 43, 100
6, 11394, Note_on_c, 4, 43, 0
6, 11400, Note_on_c, 4, 47, 100
6, 11454, Note_on_c, 4, 47, 0
6, 11460, Note_on_c, 4, 50, 100
6, 11514, Note_on_c, 4, 50, 0
6, 11520, Note_on_c, 4, 55, 100
6, 11628, Note_on_c, 4, 55, 0
6, 11640, Note_on_c, 4, 43, 100
6, 11748, Note_on_c, 4, 43, 0
6, 11760, Note_on_c, 4, 55, 100
6, 11988, Note_on_c, 4, 55, 0
6, 12000, Note_on_c, 4, 43, 100
6, 12108, Note_on_c, 4, 43, 0
6, 12120, Note_on_c, 4, 55, 100
6, 12348, Note_on_c, 4, 55, 0
6, 12360, Note_on_c, 4, 54, 100
6, 12468, Note_on_c, 4, 54, 0
6, 12480, Note_on_c, 4, 50, 100
6, 12588, Note_on_c, 4, 50, 0
6, 12600, Note_on_c, 4, 55, 100
6, 12762, Note_on_c, 4, 55, 0
6, 12780, Note_on_c, 4, 53, 100
6, 12807, Note_on_c, 4, 53, 0
6, 12810, Note_on_c, 4, 52, 100
6, 12837, Note_on_c, 4, 52, 0
6, 12840, Note_on_c, 4, 53, 100
6, 12894, Note_on_c, 4, 53, 0
6, 12900, Note_on_c, 4, 52, 100
6, 12927, Note_on_c, 4, 52, 0
6, 12930, Note_on_c, 4, 50, 100
6, 12957, Note_on_c, 4, 50, 0
6, 12960, Note_on_c, 4, 52, 100
6, 13068, Note_on_c, 4, 52, 0
6, 13080, Note_on_c, 4, 55, 100
6, 13188, Note_on_c, 4, 55, 0
6, 13200, Note_on_c, 4, 52, 100
6, 13308, Note_on_c, 4, 52, 0
6, 13320, Note_on_c, 4, 53, 100
6, 13428, Note_on_c, 4, 53, 0
6, 13440, Note_on_c, 4, 41, 100
6, 13548, Note_on_c, 4, 41, 0
6, 13680, Note_on_c, 4, 54, 100
6, 13788, Note_on_c, 4, 54, 0
6, 13800, Note_on_c, 4, 59, 100
6, 13908, Note_on_c, 4, 59, 0
6, 13920, Note_on_c, 4, 47, 100
6, 14028, Note_on_c, 4, 47, 0
6, 14040, Note_on_c, 4, 52, 100
6, 14148, Note_on_c, 4, 52, 0
6, 14160, Note_on_c, 4, 64, 100
6, 14268, Note_on_c, 4, 64, 0
6, 14280, Note_on_c, 4, 56, 100
6, 14388, Note_on_c, 4, 56, 0
6, 14400, Note_on_c, 4, 57, 100
6, 14508, Note_on_c, 4, 57, 0
6, 14520, Note_on_c, 4, 45, 100
6, 14628, Note_on_c, 4, 45, 0
6, 14640, Note_on_c, 4, 57, 100
6, 14868, Note_on_c, 4, 57, 0
6, 14880, Note_on_c, 4, 45, 100
6, 14988, Note_on_c, 4, 45, 0
6, 15000, Note_on_c, 4, 57, 100
6, 15228, Note_on_c, 4, 57, 0
6, 15240, Note_on_c, 4, 56, 100
6, 15348, Note_on_c, 4, 56, 0
6, 15360, Note_on_c, 4, 52, 100
6, 15468, Note_on_c, 4, 52, 0
6, 15480, Note_on_c, 4, 57, 100
6, 15534, Note_on_c, 4, 57, 0
6, 15540, Note_on_c, 4, 45, 100
6, 15648, Note_on_c, 4, 45, 0
6, 15660, Note_on_c, 4, 47, 100
6, 15714, Note_on_c, 4, 47, 0
6, 15720, Note_on_c, 4, 48, 100
6, 15774, Note_on_c, 4, 48, 0
6, 15780, Note_on_c, 4, 45, 100
6, 15834, Note_on_c, 4, 45, 0
6, 15840, Note_on_c, 4, 50, 100
6, 15948, Note_on_c, 4, 50, 0
6, 15960, Note_on_c, 4, 48, 100
6, 16068, Note_on_c, 4, 48, 0
6, 16080, Note_on_c, 4, 47, 100
6, 16188, Note_on_c, 4, 47, 0
6, 16200, Note_on_c, 4, 56, 100
6, 16308, Note_on_c, 4, 56, 0
6, 16320, Note_on_c, 4, 54, 100
6, 16428, Note_on_c, 4, 54, 0
6, 16440, Note_on_c, 4, 52, 100
6, 16548, Note_on_c, 4, 52, 0
6, 16560, Note_on_c, 4, 53, 100
6, 16668, Note_on_c, 4, 53, 0
6, 16680, Note_on_c, 4, 50, 100
6, 16788, Note_on_c, 4, 50, 0
6, 16800, Note_on_c, 4, 52, 100
6, 16908, Note_on_c, 4, 52, 0
6, 16920, Note_on_c, 4, 45, 100
6, 16974, Note_on_c, 4, 45, 0
6, 16980, Note_on_c, 4, 57, 100
6, 17034, Note_on_c, 4, 57, 0
6, 17040, Note_on_c, 4, 57, 100
6, 17094, Note_on_c, 4, 57, 0
6, 17100, Note_on_c, 4, 55, 100
6, 17154, Note_on_c, 4, 55, 0
6, 17160, Note_on_c, 4, 55, 100
6, 17214, Note_on_c, 4, 55, 0
6, 17220, Note_on_c, 4, 54, 100
6, 17274, Note_on_c, 4, 54, 0
6, 17280, Note_on_c, 4, 54, 100
6, 17388, Note_on_c, 4, 54, 0
6, 17400, Note_on_c, 4, 42, 100
6, 17508, Note_on_c, 4, 42, 0
6, 17520, Note_on_c, 4, 38, 100
6, 17628, Note_on_c, 4, 38, 0
6, 17640, Note_on_c, 4, 43, 100
6, 17748, Note_on_c, 4, 43, 0
6, 17760, Note_on_c, 4, 45, 100
6, 17868, Note_on_c, 4, 45, 0
6, 17880, Note_on_c, 4, 46, 100
6, 17988, Note_on_c, 4, 46, 0
6, 18000, Note_on_c, 4, 48, 100
6, 18108, Note_on_c, 4, 48, 0
6, 18120, Note_on_c, 4, 50, 100
6, 18228, Note_on_c, 4, 50, 0
6, 18240, Note_on_c, 4, 52, 100
6, 18348, Note_on_c, 4, 52, 0
6, 18360, Note_on_c, 4, 53, 100
6, 18468, Note_on_c, 4, 53, 0
6, 18480, Note_on_c, 4, 50, 100
6, 18588, Note_on_c, 4, 50, 0
6, 18600, Note_on_c, 4, 48, 100
6, 18708, Note_on_c, 4, 48, 0
6, 18720, Note_on_c, 4, 47, 100
6, 18828, Note_on_c, 4, 47, 0
6, 18840, Note_on_c, 4, 43, 100
6, 18948, Note_on_c, 4, 43, 0
6, 18960, Note_on_c, 4, 47, 100
6, 19068, Note_on_c, 4, 47, 0
6, 19080, Note_on_c, 4, 48, 100
6, 19188, Note_on_c, 4, 48, 0
6, 19200, Note_on_c, 4, 36, 100
6, 19308, Note_on_c, 4, 36, 0
6, 19320, Note_on_c, 4, 40, 100
6, 19428, Note_on_c, 4, 40, 0
6, 19440, Note_on_c, 4, 41, 100
6, 19548, Note_on_c, 4, 41, 0
6, 19560, Note_on_c, 4, 45, 100
6, 19668, Note_on_c, 4, 45, 0
6, 19680, Note_on_c, 4, 38, 100
6, 19788, Note_on_c, 4, 38, 0
6, 19800, Note_on_c, 4, 43, 100
6, 19962, Note_on_c, 4, 43, 0
6, 19980, Note_on_c, 4, 45, 100
6, 20007, Note_on_c, 4, 45, 0
6, 20010, Note_on_c, 4, 47, 100
6, 20037, Note_on_c, 4, 47, 0
6, 20040, Note_on_c, 4, 48, 100
6, 20067, Note_on_c, 4, 48, 0
6, 20070, Note_on_c, 4, 47, 100
6, 20097, Note_on_c, 4, 47, 0
6, 20100, Note_on_c, 4, 45, 100
6, 20127, Note_on_c, 4, 45, 0
6, 20130, Note_on_c, 4, 47, 100
6, 20157, Note_on_c, 4, 47, 0
6, 20160, Note_on_c, 4, 48, 100
6, 20268, Note_on_c, 4, 48, 0
6, 20280, Note_on_c, 4, 36, 100
6, 20388, Note_on_c, 4, 36, 0
6, 20400, Note_on_c, 4, 48, 100
6, 20628, Note_on_c, 4, 48, 0
6, 20640, Note_on_c, 4, 36, 100
6, 20748, Note_on_c, 4, 36, 0
6, 20760, Note_on_c, 4, 48, 100
6, 20988, Note_on_c, 4, 48, 0
6, 21000, Note_on_c, 4, 47, 100
6, 21108, Note_on_c, 4, 47, 0
6, 21120, Note_on_c, 4, 43, 100
6, 21228, Note_on_c, 4, 43, 0
6, 21240, Note_on_c, 4, 48, 100
6, 21402, Note_on_c, 4, 48, 0
6, 21420, Note_on_c, 4, 46, 100
6, 21447, Note_on_c, 4, 46, 0
6, 21450, Note_on_c, 4, 45, 100
6, 21477, Note_on_c, 4, 45, 0
6, 21480, Note_on_c, 4, 46, 100
6, 21534, Note_on_c, 4, 46, 0
6, 21540, Note_on_c, 4, 45, 100
6, 21567, Note_on_c, 4, 45, 0
6, 21570, Note_on_c, 4, 43, 100
6, 21597, Note_on_c, 4, 43, 0
6, 21600, Note_on_c, 4, 45, 100
6, 21708, Note_on_c, 4, 45, 0
6, 21720, Note_on_c, 4, 48, 100
6, 21828, Note_on_c, 4, 48, 0
6, 21840, Note_on_c, 4, 45, 100
6, 21948, Note_on_c, 4, 45, 0
6, 21960, Note_on_c, 4, 46, 100
6, 22068, Note_on_c, 4, 46, 0
6, 22080, Note_on_c, 4, 58, 100
6, 22188, Note_on_c, 4, 58, 0
6, 22320, Note_on_c, 4, 59, 100
6, 22428, Note_on_c, 4, 59, 0
6, 22440, Note_on_c, 4, 64, 100
6, 22548, Note_on_c, 4, 64, 0
6, 22560, Note_on_c, 4, 52, 100
6, 22668, Note_on_c, 4, 52, 0
6, 22680, Note_on_c, 4, 57, 100
6, 22788, Note_on_c, 4, 57, 0
6, 22800, Note_on_c, 4, 45, 100
6, 22854, Note_on_c, 4, 45, 0
6, 22860, Note_on_c, 4, 57, 100
6, 22914, Note_on_c, 4, 57, 0
6, 22920, Note_on_c, 4, 59, 100
6, 22974, Note_on_c, 4, 59, 0
6, 22980, Note_on_c, 4, 61, 100
6, 23034, Note_on_c, 4, 61, 0
6, 23040, Note_on_c, 4, 61, 100
6, 23094, Note_on_c, 4, 61, 0
6, 23100, Note_on_c, 4, 62, 100
6, 23154, Note_on_c, 4, 62, 0
6, 23160, Note_on_c, 4, 62, 100
6, 23214, Note_on_c, 4, 62, 0
6, 23220, Note_on_c, 4, 60, 100
6, 23274, Note_on_c, 4, 60, 0
6, 23280, Note_on_c, 4, 60, 100
6, 23334, Note_on_c, 4, 60, 0
6, 23340, Note_on_c, 4, 59, 100
6, 23394, Note_on_c, 4, 59, 0
6, 23400, Note_on_c, 4, 59, 100
6, 23508, Note_on_c, 4, 59, 0
6, 23520, Note_on_c, 4, 60, 100
6, 23628, Note_on_c, 4, 60, 0
6, 23640, Note_on_c, 4, 57, 100
6, 23748, Note_on_c, 4, 57, 0
6, 23760, Note_on_c, 4, 52, 100
6, 23814, Note_on_c, 4, 52, 0
6, 23820, Note_on_c, 4, 50, 100
6, 23874, Note_on_c, 4, 50, 0
6, 23880, Note_on_c, 4, 50, 100
6, 23934, Note_on_c, 4, 50, 0
6, 23940, Note_on_c, 4, 49, 100
6, 23994, Note_on_c, 4, 49, 0
6, 24000, Note_on_c, 4, 49, 100
6, 24054, Note_on_c, 4, 49, 0
6, 24060, Note_on_c, 4, 50, 100
6, 24114, Note_on_c, 4, 50, 0
6, 24120, Note_on_c, 4, 50, 100
6, 24228, Note_on_c, 4, 50, 0
6, 24240, Note_on_c, 4, 62, 100
6, 24348, Note_on_c, 4, 62, 0
6, 24360, Note_on_c, 4, 56, 100
6, 24468, Note_on_c, 4, 56, 0
6, 24480, Note_on_c, 4, 57, 100
6, 24534, Note_on_c, 4, 57, 0
6, 24540, Note_on_c, 4, 55, 100
6, 24594, Note_on_c, 4, 55, 0
6, 24600, Note_on_c, 4, 55, 100
6, 24654, Note_on_c, 4, 55, 0
6, 24660, Note_on_c, 4, 54, 100
6, 24714, Note_on_c, 4, 54, 0
6, 24720, Note_on_c, 4, 54, 100
6, 24774, Note_on_c, 4, 54, 0
6, 24780, Note_on_c, 4, 55, 100
6, 24834, Note_on_c, 4, 55, 0
6, 24840, Note_on_c, 4, 55, 100
6, 24948, Note_on_c, 4, 55, 0
6, 24960, Note_on_c, 4, 43, 100
6, 25068, Note_on_c, 4, 43, 0
6, 25080, Note_on_c, 4, 49, 100
6, 25188, Note_on_c, 4, 49, 0
6, 25200, Note_on_c, 4, 50, 100
6, 25254, Note_on_c, 4, 50, 0
6, 25260, Note_on_c, 4, 48, 100
6, 25314, Note_on_c, 4, 48, 0
6, 25320, Note_on_c, 4, 48, 100
6, 25374, Note_on_c, 4, 48, 0
6, 25380, Note_on_c, 4, 47, 100
6, 25434, Note_on_c, 4, 47, 0
6, 25440, Note_on_c, 4, 47, 100
6, 25494, Note_on_c, 4, 47, 0
6, 25500, Note_on_c, 4, 48, 100
6, 25554, Note_on_c, 4, 48, 0
6, 25560, Note_on_c, 4, 48, 100
6, 25668, Note_on_c, 4, 48, 0
6, 25680, Note_on_c, 4, 36, 100
6, 25788, Note_on_c, 4, 36, 0
6, 26040, Note_on_c, 4, 55, 100
6, 26148, Note_on_c, 4, 55, 0
6, 26160, Note_on_c, 4, 52, 100
6, 26268, Note_on_c, 4, 52, 0
6, 26280, Note_on_c, 4, 48, 100
6, 26388, Note_on_c, 4, 48, 0
6, 26400, Note_on_c, 4, 49, 100
6, 26508, Note_on_c, 4, 49, 0
6, 26760, Note_on_c, 4, 50, 100
6, 26868, Note_on_c, 4, 50, 0
6, 26880, Note_on_c, 4, 47, 100
6, 26988, Note_on_c, 4, 47, 0
6, 27000, Note_on_c, 4, 43, 100
6, 27108, Note_on_c, 4, 43, 0
6, 27120, Note_on_c, 4, 44, 100
6, 27228, Note_on_c, 4, 44, 0
6, 27360, Note_on_c, 4, 57, 100
6, 27468, Note_on_c, 4, 57, 0
6, 27480, Note_on_c, 4, 55, 100
6, 27588, Note_on_c, 4, 55, 0
6, 27600, Note_on_c, 4, 53, 100
6, 27708, Note_on_c, 4, 53, 0
6, 27720, Note_on_c, 4, 52, 100
6, 27828, Note_on_c, 4, 52, 0
6, 27840, Note_on_c, 4, 53, 100
6, 27948, Note_on_c, 4, 53, 0
6, 27960, Note_on_c, 4, 55, 100
6, 28068, Note_on_c, 4, 55, 0
6, 28080, Note_on_c, 4, 57, 100
6, 28188, Note_on_c, 4, 57, 0
6, 28200, Note_on_c, 4, 55, 100
6, 28254, Note_on_c, 4, 55, 0
6, 28260, Note_on_c, 4, 53, 100
6, 28314, Note_on_c, 4, 53, 0
6, 28320, Note_on_c, 4, 55, 100
6, 28428, Note_on_c, 4, 55, 0
6, 28440, Note_on_c, 4, 60, 100
6, 28494, Note_on_c, 4, 60, 0
6, 28500, Note_on_c, 4, 48, 100
6, 28608, Note_on_c, 4, 48, 0
6, 28620, Note_on_c, 4, 50, 100
6, 28674, Note_on_c, 4, 50, 0
6, 28680, Note_on_c, 4, 52, 100
6, 28734, Note_on_c, 4, 52, 0
6, 28740, Note_on_c, 4, 48, 100
6, 28794, Note_on_c, 4, 48, 0
6, 28800, Note_on_c, 4, 55, 100
6, 28908, Note_on_c, 4, 55, 0
6, 28920, Note_on_c, 4, 43, 100
6, 29028, Note_on_c, 4, 43, 0
6, 29040, Note_on_c, 4, 55, 100
6, 29268, Note_on_c, 4, 55, 0
6, 29280, Note_on_c, 4, 43, 100
6, 29388, Note_on_c, 4, 43, 0
6, 29400, Note_on_c, 4, 55, 100
6, 29628, Note_on_c, 4, 55, 0
6, 29640, Note_on_c, 4, 54, 100
6, 29748, Note_on_c, 4, 54, 0
6, 29760, Note_on_c, 4, 50, 100
6, 29868, Note_on_c, 4, 50, 0
6, 29880, Note_on_c, 4, 55, 100
6, 30042, Note_on_c, 4, 55, 0
6, 30060, Note_on_c, 4, 53, 100
6, 30087, Note_on_c, 4, 53, 0
6, 30090, Note_on_c, 4, 52, 100
6, 30117, Note_on_c, 4, 52, 0
6, 30120, Note_on_c, 4, 53, 100
6, 30174, Note_on_c, 4, 53, 0
6, 30180, Note_on_c, 4, 52, 100
6, 30207, Note_on_c, 4, 52, 0
6, 30210, Note_on_c, 4, 50, 100
6, 30237, Note_on_c, 4, 50, 0
6, 30240, Note_on_c, 4, 52, 100
6, 30348, Note_on_c, 4, 52, 0
6, 30360, Note_on_c, 4, 55, 100
6, 30468, Note_on_c, 4, 55, 0
6, 30480, Note_on_c, 4, 52, 100
6, 30588, Note_on_c, 4, 52, 0
6, 30600, Note_on_c, 4, 53, 100
6, 30708, Note_on_c, 4, 53, 0
6, 30720, Note_on_c, 4, 41, 100
6, 30828, Note_on_c, 4, 41, 0
6, 30960, Note_on_c, 4, 54, 100
6, 31068, Note_on_c, 4, 54, 0
6, 31080, Note_on_c, 4, 59, 100
6, 31188, Note_on_c, 4, 59, 0
6, 31200, Note_on_c, 4, 47, 100
6, 31308, Note_on_c, 4, 47, 0
6, 31320, Note_on_c, 4, 52, 100
6, 31428, Note_on_c, 4, 52, 0
6, 31440, Note_on_c, 4, 40, 100
6, 31548, Note_on_c, 4, 40, 0
6, 31560, Note_on_c, 4, 44, 100
6, 31668, Note_on_c, 4, 44, 0
6, 31680, Note_on_c, 4, 45, 100
6, 31788, Note_on_c, 4, 45, 0
6, 31800, Note_on_c, 4, 57, 100
6, 31908, Note_on_c, 4, 57, 0
6, 31920, Note_on_c, 4, 45, 100
6, 32148, Note_on_c, 4, 45, 0
6, 32160, Note_on_c, 4, 57, 100
6, 32268, Note_on_c, 4, 57, 0
6, 32280, Note_on_c, 4, 45, 100
6, 32508, Note_on_c, 4, 45, 0
6, 32520, Note_on_c, 4, 44, 100
6, 32628, Note_on_c, 4, 44, 0
6, 32640, Note_on_c, 4, 40, 100
6, 32748, Note_on_c, 4, 40, 0
6, 32760, Note_on_c, 4, 45, 100
6, 32922, Note_on_c, 4, 45, 0
6, 32940, Note_on_c, 4, 47, 100
6, 32994, Note_on_c, 4, 47, 0
6, 33000, Note_on_c, 4, 48, 100
6, 33054, Note_on_c, 4, 48, 0
6, 33060, Note_on_c, 4, 45, 100
6, 33114, Note_on_c, 4, 45, 0
6, 33120, Note_on_c, 4, 50, 100
6, 33228, Note_on_c, 4, 50, 0
6, 33240, Note_on_c, 4, 48, 100
6, 33348, Note_on_c, 4, 48, 0
6, 33360, Note_on_c, 4, 47, 100
6, 33468, Note_on_c, 4, 47, 0
6, 33480, Note_on_c, 4, 56, 100
6, 33588, Note_on_c, 4, 56, 0
6, 33600, Note_on_c, 4, 54, 100
6, 33708, Note_on_c, 4, 54, 0
6, 33720, Note_on_c, 4, 52, 100
6, 33828, Note_on_c, 4, 52, 0
6, 33840, Note_on_c, 4, 53, 100
6, 33948, Note_on_c, 4, 53, 0
6, 33960, Note_on_c, 4, 50, 100
6, 34068, Note_on_c, 4, 50, 0
6, 34080, Note_on_c, 4, 52, 100
6, 34188, Note_on_c, 4, 52, 0
6, 34200, Note_on_c, 4, 45, 100
6, 34254, Note_on_c, 4, 45, 0
6, 34260, Note_on_c, 4, 57, 100
6, 34314, Note_on_c, 4, 57, 0
6, 34320, Note_on_c, 4, 57, 100
6, 34374, Note_on_c, 4, 57, 0
6, 34380, Note_on_c, 4, 55, 100
6, 34434, Note_on_c, 4, 55, 0
6, 34440, Note_on_c, 4, 55, 100
6, 34494, Note_on_c, 4, 55, 0
6, 34500, Note_on_c, 4, 54, 100
6, 34554, Note_on_c, 4, 54, 0
6, 34560, Note_on_c, 4, 54, 100
6, 34668, Note_on_c, 4, 54, 0
6, 34680, Note_on_c, 4, 42, 100
6, 34788, Note_on_c, 4, 42, 0
6, 34800, Note_on_c, 4, 38, 100
6, 34908, Note_on_c, 4, 38, 0
6, 34920, Note_on_c, 4, 43, 100
6, 35028, Note_on_c, 4, 43, 0
6, 35040, Note_on_c, 4, 45, 100
6, 35148, Note_on_c, 4, 45, 0
6, 35160, Note_on_c, 4, 46, 100
6, 35268, Note_on_c, 4, 46, 0
6, 35280, Note_on_c, 4, 48, 100
6, 35388, Note_on_c, 4, 48, 0
6, 35400, Note_on_c, 4, 50, 100
6, 35508, Note_on_c, 4, 50, 0
6, 35520, Note_on_c, 4, 52, 100
6, 35628, Note_on_c, 4, 52, 0
6, 35640, Note_on_c, 4, 53, 100
6, 35748, Note_on_c, 4, 53, 0
6, 35760, Note_on_c, 4, 50, 100
6, 35868, Note_on_c, 4, 50, 0
6, 35880, Note_on_c, 4, 48, 100
6, 35988, Note_on_c, 4, 48, 0
6, 36000, Note_on_c, 4, 47, 100
6, 36108, Note_on_c, 4, 47, 0
6, 36120, Note_on_c, 4, 43, 100
6, 36228, Note_on_c, 4, 43, 0
6, 36240, Note_on_c, 4, 47, 100
6, 36348, Note_on_c, 4, 47, 0
6, 36360, Note_on_c, 4, 48, 100
6, 36468, Note_on_c, 4, 48, 0
6, 36480, Note_on_c, 4, 36, 100
6, 36588, Note_on_c, 4, 36, 0
6, 36600, Note_on_c, 4, 40, 100
6, 36708, Note_on_c, 4, 40, 0
6, 36720, Note_on_c, 4, 41, 100
6, 36828, Note_on_c, 4, 41, 0
6, 36840, Note_on_c, 4, 45, 100
6, 36948, Note_on_c, 4, 45, 0
6, 36960, Note_on_c, 4, 38, 100
6, 37068, Note_on_c, 4, 38, 0
6, 37080, Note_on_c, 4, 43, 100
6, 37242, Note_on_c, 4, 43, 0
6, 37260, Note_on_c, 4, 45, 100
6, 37287, Note_on_c, 4, 45, 0
6, 37290, Note_on_c, 4, 47, 100
6, 37317, Note_on_c, 4, 47, 0
6, 37320, Note_on_c, 4, 48, 100
6, 37347, Note_on_c, 4, 48, 0
6, 37350, Note_on_c, 4, 47, 100
6, 37377, Note_on_c, 4, 47, 0
6, 37380, Note_on_c, 4, 45, 100
6, 37407, Note_on_c, 4, 45, 0
6, 37410, Note_on_c, 4, 47, 100
6, 37437, Note_on_c, 4, 47, 0
6, 37440, Note_on_c, 4, 48, 100
6, 37548, Note_on_c, 4, 48, 0
6, 37560, Note_on_c, 4, 36, 100
6, 37668, Note_on_c, 4, 36, 0
6, 37680, Note_on_c, 4, 48, 100
6, 37908, Note_on_c, 4, 48, 0
6, 37920, Note_on_c, 4, 36, 100
6, 38028, Note_on_c, 4, 36, 0
6, 38040, Note_on_c, 4, 48, 100
6, 38268, Note_on_c, 4, 48, 0
6, 38280, Note_on_c, 4, 47, 100
6, 38388, Note_on_c, 4, 47, 0
6, 38400, Note_on_c, 4, 43, 100
6, 38508, Note_on_c, 4, 43, 0
6, 38520, Note_on_c, 4, 48, 100
6, 38682, Note_on_c, 4, 48, 0
6, 38700, Note_on_c, 4, 46, 100
6, 38727, Note_on_c, 4, 46, 0
6, 38730, Note_on_c, 4, 45, 100
6, 38757, Note_on_c, 4, 45, 0
6, 38760, Note_on_c, 4, 46, 100
6, 38814, Note_on_c, 4, 46, 0
6, 38820, Note_on_c, 4, 45, 100
6, 38847, Note_on_c, 4, 45, 0
6, 38850, Note_on_c, 4, 43, 100
6, 38877, Note_on_c, 4, 43, 0
6, 38880, Note_on_c, 4, 45, 100
6, 38988, Note_on_c, 4, 45, 0
6, 39000, Note_on_c, 4, 48, 100
6, 39108, Note_on_c, 4, 48, 0
6, 39120, Note_on_c, 4, 45, 100
6, 39228, Note_on_c, 4, 45, 0
6, 39240, Note_on_c, 4, 46, 100
6, 39348, Note_on_c, 4, 46, 0
6, 39360, Note_on_c, 4, 58, 100
6, 39468, Note_on_c, 4, 58, 0
6, 39600, Note_on_c, 4, 59, 100
6, 39708, Note_on_c, 4, 59, 0
6, 39720, Note_on_c, 4, 64, 100
6, 39828, Note_on_c, 4, 64, 0
6, 39840, Note_on_c, 4, 52, 100
6, 39948, Note_on_c, 4, 52, 0
6, 39960, Note_on_c, 4, 57, 100
6, 40068, Note_on_c, 4, 57, 0
6, 40080, Note_on_c, 4, 45, 100
6, 40134, Note_on_c, 4, 45, 0
6, 40140, Note_on_c, 4, 57, 100
6, 40194, Note_on_c, 4, 57, 0
6, 40200, Note_on_c, 4, 59, 100
6, 40254, Note_on_c, 4, 59, 0
6, 40260, Note_on_c, 4, 61, 100
6, 40314, Note_on_c, 4, 61, 0
6, 40320, Note_on_c, 4, 61, 100
6, 40374, Note_on_c, 4, 61, 0
6, 40380, Note_on_c, 4, 62, 100
6, 40434, Note_on_c, 4, 62, 0
6, 40440, Note_on_c, 4, 62, 100
6, 40494, Note_on_c, 4, 62, 0
6, 40500, Note_on_c, 4, 60, 100
6, 40554, Note_on_c, 4, 60, 0
6, 40560, Note_on_c, 4, 60, 100
6, 40614, Note_on_c, 4, 60, 0
6, 40620, Note_on_c, 4, 59, 100
6, 40674, Note_on_c, 4, 59, 0
6, 40680, Note_on_c, 4, 59, 100
6, 40788, Note_on_c, 4, 59, 0
6, 40800, Note_on_c, 4, 60, 100
6, 40908, Note_on_c, 4, 60, 0
6, 40920, Note_on_c, 4, 57, 100
6, 41028, Note_on_c, 4, 57, 0
6, 41040, Note_on_c, 4, 52, 100
6, 41094, Note_on_c, 4, 52, 0
6, 41100, Note_on_c, 4, 50, 100
6, 41154, Note_on_c, 4, 50, 0
6, 41160, Note_on_c, 4, 50, 100
6, 41214, Note_on_c, 4, 50, 0
6, 41220, Note_on_c, 4, 49, 100
6, 41274, Note_on_c, 4, 49, 0
6, 41280, Note_on_c, 4, 49, 100
6, 41334, Note_on_c, 4, 49, 0
6, 41340, Note_on_c, 4, 50, 100
6, 41394, Note_on_c, 4, 50, 0
6, 41400, Note_on_c, 4, 50, 100
6, 41508, Note_on_c, 4, 50, 0
6, 41520, Note_on_c, 4, 62, 100
6, 41628, Note_on_c, 4, 62, 0
6, 41640, Note_on_c, 4, 56, 100
6, 41748, Note_on_c, 4, 56, 0
6, 41760, Note_on_c, 4, 57, 100
6, 41814, Note_on_c, 4, 57, 0
6, 41820, Note_on_c, 4, 55, 100
6, 41874, Note_on_c, 4, 55, 0
6, 41880, Note_on_c, 4, 55, 100
6, 41934, Note_on_c, 4, 55, 0
6, 41940, Note_on_c, 4, 54, 100
6, 41994, Note_on_c, 4, 54, 0
6, 42000, Note_on_c, 4, 54, 100
6, 42054, Note_on_c, 4, 54, 0
6, 42060, Note_on_c, 4, 55, 100
6, 42114, Note_on_c, 4, 55, 0
6, 42120, Note_on_c, 4, 55, 100
6, 42228, Note_on_c, 4, 55, 0
6, 42240, Note_on_c, 4, 43, 100
6, 42348, Note_on_c, 4, 43, 0
6, 42360, Note_on_c, 4, 49, 100
6, 42468, Note_on_c, 4, 49, 0
6, 42480, Note_on_c, 4, 50, 100
6, 42534, Note_on_c, 4, 50, 0
6, 42540, Note_on_c, 4, 48, 100
6, 42594, Note_on_c, 4, 48, 0
6, 42600, Note_on_c, 4, 48, 100
6, 42654, Note_on_c, 4, 48, 0
6, 42660, Note_on_c, 4, 47, 100
6, 42714, Note_on_c, 4, 47, 0
6, 42720, Note_on_c, 4, 47, 100
6, 42774, Note_on_c, 4, 47, 0
6, 42780, Note_on_c, 4, 48, 100
6, 42834, Note_on_c, 4, 48, 0
6, 42840, Note_on_c, 4, 48, 100
6, 42948, Note_on_c, 4, 48, 0
6, 42960, Note_on_c, 4, 36, 100
6, 43068, Note_on_c, 4, 36, 0
6, 43320, Note_on_c, 4, 55, 100
6, 43428, Note_on_c, 4, 55, 0
6, 43440, Note_on_c, 4, 52, 100
6, 43548, Note_on_c, 4, 52, 0
6, 43560, Note_on_c, 4, 48, 100
6, 43668, Note_on_c, 4, 48, 0
6, 43680, Note_on_c, 4, 49, 100
6, 43788, Note_on_c, 4, 49, 0
6, 44040, Note_on_c, 4, 50, 100
6, 44148, Note_on_c, 4, 50, 0
6, 44160, Note_on_c, 4, 47, 100
6, 44268, Note_on_c, 4, 47, 0
6, 44280, Note_on_c, 4, 43, 100
6, 44388, Note_on_c, 4, 43, 0
6, 44400, Note_on_c, 4, 44, 100
6, 44508, Note_on_c, 4, 44, 0
6, 44640, Note_on_c, 4, 45, 100
6, 44748, Note_on_c, 4, 45, 0
6, 44760, Note_on_c, 4, 43, 100
6, 44868, Note_on_c, 4, 43, 0
6, 44880, Note_on_c, 4, 41, 100
6, 44988, Note_on_c, 4, 41, 0
6, 45000, Note_on_c, 4, 40, 100
6, 45108, Note_on_c, 4, 40, 0
6, 45120, Note_on_c, 4, 41, 100
6, 45228, Note_on_c, 4, 41, 0
6, 45240, Note_on_c, 4, 43, 100
6, 45348, Note_on_c, 4, 43, 0
6, 45360, Note_on_c, 4, 45, 100
6, 45468, Note_on_c, 4, 45, 0
6, 45480, Note_on_c, 4, 43, 100
6, 45534, Note_on_c, 4, 43, 0
6, 45540, Note_on_c, 4, 41, 100
6, 45594, Note_on_c, 4, 41, 0
6, 45600, Note_on_c, 4, 43, 100
6, 45708, Note_on_c, 4, 43, 0
6, 45720, Note_on_c, 4, 36, 100
6, 45828, Note_on_c, 4, 36, 0
6, 45840, Note_on_c, 4, 48, 100
6, 45948, Note_on_c, 4, 48, 0
6, 45960, Note_on_c, 4, 50, 100
6, 46068, Note_on_c, 4, 50, 0
6, 46080, Note_on_c, 4, 52, 100
6, 46188, Note_on_c, 4, 52, 0
6, 46200, Note_on_c, 4, 40, 100
6, 46308, Note_on_c, 4, 40, 0
6, 46320, Note_on_c, 4, 52, 100
6, 46428, Note_on_c, 4, 52, 0
6, 46440, Note_on_c, 4, 53, 100
6, 46548, Note_on_c, 4, 53, 0
6, 46560, Note_on_c, 4, 41, 100
6, 46668, Note_on_c, 4, 41, 0
6, 46680, Note_on_c, 4, 41, 100
6, 46788, Note_on_c, 4, 41, 0
6, 46800, Note_on_c, 4, 40, 100
6, 47448, Note_on_c, 4, 40, 0
6, 47448, End_track
0, 0, End_of_file
