0, 0, Header, 1, 6, 1024
1, 0, Start_track
1, 0, Time_signature, 4, 2, 24, 8
1, 0, Key_signature, 1, "major"
1, 0, Tempo, 625000
1, 57345, End_track
2, 0, Start_track
2, 0, Title_t, "Instrument 1"
2, 0, Note_on_c, 0, 71, 96
2, 1024, Note_off_c, 0, 71, 0
2, 1024, Note_on_c, 0, 72, 96
2, 2048, Note_off_c, 0, 72, 0
2, 2048, Note_on_c, 0, 74, 96
2, 3072, Note_off_c, 0, 74, 0
2, 3072, Note_on_c, 0, 74, 96
2, 4096, Note_off_c, 0, 74, 0
2, 4096, Note_on_c, 0, 67, 96
2, 5120, Note_off_c, 0, 67, 0
2, 5120, Note_on_c, 0, 69, 96
2, 6144, Note_off_c, 0, 69, 0
2, 6144, Note_on_c, 0, 71, 96
2, 8192, Note_off_c, 0, 71, 0
2, 8192, Note_on_c, 0, 76, 96
2, 9216, Note_off_c, 0, 76, 0
2, 9216, Note_on_c, 0, 78, 96
2, 10240, Note_off_c, 0, 78, 0
2, 10240, Note_on_c, 0, 79, 96
2, 11264, Note_off_c, 0, 79, 0
2, 11264, Note_on_c, 0, 71, 96
2, 12288, Note_off_c, 0, 71, 0
2, 12288, Note_on_c, 0, 69, 96
2, 14336, Note_off_c, 0, 69, 0
2, 14336, Note_on_c, 0, 67, 96
2, 16384, Note_off_c, 0, 67, 0
2, 16384, Note_on_c, 0, 71, 96
2, 17408, Note_off_c, 0, 71, 0
2, 17408, Note_on_c, 0, 72, 96
2, 18432, Note_off_c, 0, 72, 0
2, 18432, Note_on_c, 0, 74, 96
2, 19456, Note_off_c, 0, 74, 0
2, 19456, Note_on_c, 0, 74, 96
2, 20480, Note_off_c, 0, 74, 0
2, 20480, Note_on_c, 0, 67, 96
2, 21504, Note_off_c, 0, 67, 0
2, 21504, Note_on_c, 0, 69, 96
2, 22528, Note_off_c, 0, 69, 0
2, 22528, Note_on_c, 0, 71, 96
2, 24576, Note_off_c, 0, 71, 0
2, 24576, Note_on_c, 0, 76, 96
2, 25600, Note_off_c, 0, 76, 0
2, 25600, Note_on_c, 0, 78, 96
2, 26624, Note_off_c, 0, 78, 0
2, 26624, Note_on_c, 0, 79, 96
2, 27648, Note_off_c, 0, 79, 0
2, 27648, Note_on_c, 0, 71, 96
2, 28672, Note_off_c, 0, 71, 0
2, 28672, Note_on_c, 0, 69, 96
2, 30720, Note_off_c, 0, 69, 0
2, 30720, Note_on_c, 0, 67, 96
2, 32768, Note_off_c, 0, 67, 0
2, 32768, Note_on_c, 0, 74, 96
2, 33792, Note_off_c, 0, 74, 0
2, 33792, Note_on_c, 0, 69, 96
2, 34816, Note_off_c, 0, 69, 0
2, 34816, Note_on_c, 0, 71, 96
2, 36864, Note_off_c, 0, 71, 0
2, 36864, Note_on_c, 0, 76, 96
2, 38400, Note_off_c, 0, 76, 0
2, 38400, Note_on_c, 0, 74, 96
2, 38912, Note_off_c, 0, 74, 0
2, 38912, Note_on_c, 0, 73, 96
2, 40960, Note_off_c, 0, 73, 0
2, 40960, Note_on_c, 0, 74, 96
2, 41984, Note_off_c, 0, 74, 0
2, 41984, Note_on_c, 0, 69, 96
2, 43008, Note_off_c, 0, 69, 0
2, 43008, Note_on_c, 0, 71, 96
2, 43520, Note_off_c, 0, 71, 0
2, 43520, Note_on_c, 0, 73, 96
2, 44032, Note_off_c, 0, 73, 0
2, 44032, Note_on_c, 0, 74, 96
2, 45056, Note_off_c, 0, 74, 0
2, 45056, Note_on_c, 0, 74, 96
2, 46080, Note_off_c, 0, 74, 0
2, 46080, Note_on_c, 0, 73, 96
2, 47104, Note_off_c, 0, 73, 0
2, 47104, Note_on_c, 0, 74, 96
2, 49152, Note_off_c, 0, 74, 0
2, 49152, Note_on_c, 0, 76, 96
2, 50176, Note_off_c, 0, 76, 0
2, 50176, Note_on_c, 0, 78, 96
2, 51200, Note_off_c, 0, 78, 0
2, 51200, Note_on_c, 0, 79, 96
2, 52224, Note_off_c, 0, 79, 0
2, 52224, Note_on_c, 0, 71, 96
2, 53248, Note_off_c, 0, 71, 0
2, 53248, Note_on_c, 0, 69, 96
2, 55296, Note_off_c, 0, 69, 0
2, 55296, Note_on_c, 0, 67, 96
2, 57344, Note_off_c, 0, 67, 0
2, 57345, End_track
3, 0, Start_track
3, 0, Title_t, "Instrument 2"
3, 0, Note_on_c, 1, 67, 96
3, 1024, Note_off_c, 1, 67, 0
3, 1024, Note_on_c, 1, 67, 96
3, 2048, Note_off_c, 1, 67, 0
3, 2048, Note_on_c, 1, 69, 96
3, 2560, Note_off_c, 1, 69, 0
3, 2560, Note_on_c, 1, 67, 96
3, 3072, Note_off_c, 1, 67, 0
3, 3072, Note_on_c, 1, 66, 96
3, 4096, Note_off_c, 1, 66, 0
3, 4096, Note_on_c, 1, 67, 96
3, 5120, Note_off_c, 1, 67, 0
3, 5120, Note_on_c, 1, 67, 96
3, 5632, Note_off_c, 1, 67, 0
3, 5632, Note_on_c, 1, 66, 96
3, 6144, Note_off_c, 1, 66, 0
3, 6144, Note_on_c, 1, 67, 96
3, 8192, Note_off_c, 1, 67, 0
3, 8192, Note_on_c, 1, 67, 96
3, 9216, Note_off_c, 1, 67, 0
3, 9216, Note_on_c, 1, 69, 96
3, 10240, Note_off_c, 1, 69, 0
3, 10240, Note_on_c, 1, 67, 96
3, 10752, Note_off_c, 1, 67, 0
3, 10752, Note_on_c, 1, 66, 96
3, 11264, Note_off_c, 1, 66, 0
3, 11264, Note_on_c, 1, 67, 96
3, 12288, Note_off_c, 1, 67, 0
3, 12288, Note_on_c, 1, 67, 96
3, 13312, Note_off_c, 1, 67, 0
3, 13312, Note_on_c, 1, 66, 96
3, 14336, Note_off_c, 1, 66, 0
3, 14336, Note_on_c, 1, 62, 96
3, 16384, Note_off_c, 1, 62, 0
3, 16384, Note_on_c, 1, 67, 96
3, 17408, Note_off_c, 1, 67, 0
3, 17408, Note_on_c, 1, 67, 96
3, 18432, Note_off_c, 1, 67, 0
3, 18432, Note_on_c, 1, 69, 96
3, 18944, Note_off_c, 1, 69, 0
3, 18944, Note_on_c, 1, 67, 96
3, 19456, Note_off_c, 1, 67, 0
3, 19456, Note_on_c, 1, 66, 96
3, 20480, Note_off_c, 1, 66, 0
3, 20480, Note_on_c, 1, 67, 96
3, 21504, Note_off_c, 1, 67, 0
3, 21504, Note_on_c, 1, 67, 96
3, 22016, Note_off_c, 1, 67, 0
3, 22016, Note_on_c, 1, 66, 96
3, 22528, Note_off_c, 1, 66, 0
3, 22528, Note_on_c, 1, 67, 96
3, 24576, Note_off_c, 1, 67, 0
3, 24576, Note_on_c, 1, 67, 96
3, 25600, Note_off_c, 1, 67, 0
3, 25600, Note_on_c, 1, 69, 96
3, 26624, Note_off_c, 1, 69, 0
3, 26624, Note_on_c, 1, 67, 96
3, 27136, Note_off_c, 1, 67, 0
3, 27136, Note_on_c, 1, 66, 96
3, 27648, Note_off_c, 1, 66, 0
3, 27648, Note_on_c, 1, 67, 96
3, 28672, Note_off_c, 1, 67, 0
3, 28672, Note_on_c, 1, 67, 96
3, 29696, Note_off_c, 1, 67, 0
3, 29696, Note_on_c, 1, 66, 96
3, 30720, Note_off_c, 1, 66, 0
3, 30720, Note_on_c, 1, 62, 96
3, 32768, Note_off_c, 1, 62, 0
3, 32768, Note_on_c, 1, 69, 96
3, 33280, Note_off_c, 1, 69, 0
3, 33280, Note_on_c, 1, 67, 96
3, 33792, Note_off_c, 1, 67, 0
3, 33792, Note_on_c, 1, 66, 96
3, 34304, Note_off_c, 1, 66, 0
3, 34304, Note_on_c, 1, 69, 96
3, 34816, Note_off_c, 1, 69, 0
3, 34816, Note_on_c, 1, 67, 96
3, 36864, Note_off_c, 1, 67, 0
3, 36864, Note_on_c, 1, 64, 96
3, 37888, Note_off_c, 1, 64, 0
3, 37888, Note_on_c, 1, 64, 96
3, 38912, Note_off_c, 1, 64, 0
3, 38912, Note_on_c, 1, 64, 96
3, 40960, Note_off_c, 1, 64, 0
3, 40960, Note_on_c, 1, 69, 96
3, 41984, Note_off_c, 1, 69, 0
3, 41984, Note_on_c, 1, 69, 96
3, 43520, Note_off_c, 1, 69, 0
3, 43520, Note_on_c, 1, 67, 96
3, 44032, Note_off_c, 1, 67, 0
3, 44032, Note_on_c, 1, 66, 96
3, 45056, Note_off_c, 1, 66, 0
3, 45056, Note_on_c, 1, 64, 96
3, 47104, Note_off_c, 1, 64, 0
3, 47104, Note_on_c, 1, 66, 96
3, 49152, Note_off_c, 1, 66, 0
3, 49152, Note_on_c, 1, 69, 96
3, 50176, Note_off_c, 1, 69, 0
3, 50176, Note_on_c, 1, 69, 96
3, 51200, Note_off_c, 1, 69, 0
3, 51200, Note_on_c, 1, 67, 96
3, 52224, Note_off_c, 1, 67, 0
3, 52224, Note_on_c, 1, 67, 96
3, 53248, Note_off_c, 1, 67, 0
3, 53248, Note_on_c, 1, 67, 96
3, 54272, Note_off_c, 1, 67, 0
3, 54272, Note_on_c, 1, 66, 96
3, 55296, Note_off_c, 1, 66, 0
3, 55296, Note_on_c, 1, 62, 96
3, 57344, Note_off_c, 1, 62, 0
3, 57345, End_track
4, 0, Start_track
4, 0, Title_t, "Instrument 3"
4, 0, Note_on_c, 2, 62, 96
4, 1024, Note_off_c, 2, 62, 0
4, 1024, Note_on_c, 2, 64, 96
4, 2048, Note_off_c, 2, 64, 0
4, 2048, Note_on_c, 2, 57, 96
4, 3072, Note_off_c, 2, 57, 0
4, 3072, Note_on_c, 2, 59, 96
4, 4096, Note_off_c, 2, 59, 0
4, 4096, Note_on_c, 2, 59, 96
4, 5120, Note_off_c, 2, 59, 0
4, 5120, Note_on_c, 2, 64, 96
4, 5632, Note_off_c, 2, 64, 0
4, 5632, Note_on_c, 2, 62, 96
4, 6144, Note_off_c, 2, 62, 0
4, 6144, Note_on_c, 2, 62, 96
4, 8192, Note_off_c, 2, 62, 0
4, 8192, Note_on_c, 2, 60, 96
4, 9216, Note_off_c, 2, 60, 0
4, 9216, Note_on_c, 2, 60, 96
4, 10240, Note_off_c, 2, 60, 0
4, 10240, Note_on_c, 2, 62, 96
4, 11264, Note_off_c, 2, 62, 0
4, 11264, Note_on_c, 2, 62, 96
4, 12288, Note_off_c, 2, 62, 0
4, 12288, Note_on_c, 2, 64, 96
4, 13312, Note_off_c, 2, 64, 0
4, 13312, Note_on_c, 2, 62, 96
4, 13824, Note_off_c, 2, 62, 0
4, 13824, Note_on_c, 2, 60, 96
4, 14336, Note_off_c, 2, 60, 0
4, 14336, Note_on_c, 2, 59, 96
4, 16384, Note_off_c, 2, 59, 0
4, 16384, Note_on_c, 2, 62, 96
4, 17408, Note_off_c, 2, 62, 0
4, 17408, Note_on_c, 2, 64, 96
4, 18432, Note_off_c, 2, 64, 0
4, 18432, Note_on_c, 2, 57, 96
4, 19456, Note_off_c, 2, 57, 0
4, 19456, Note_on_c, 2, 59, 96
4, 20480, Note_off_c, 2, 59, 0
4, 20480, Note_on_c, 2, 59, 96
4, 21504, Note_off_c, 2, 59, 0
4, 21504, Note_on_c, 2, 64, 96
4, 22016, Note_off_c, 2, 64, 0
4, 22016, Note_on_c, 2, 62, 96
4, 22528, Note_off_c, 2, 62, 0
4, 22528, Note_on_c, 2, 62, 96
4, 24576, Note_off_c, 2, 62, 0
4, 24576, Note_on_c, 2, 60, 96
4, 25600, Note_off_c, 2, 60, 0
4, 25600, Note_on_c, 2, 60, 96
4, 26624, Note_off_c, 2, 60, 0
4, 26624, Note_on_c, 2, 62, 96
4, 27648, Note_off_c, 2, 62, 0
4, 27648, Note_on_c, 2, 62, 96
4, 28672, Note_off_c, 2, 62, 0
4, 28672, Note_on_c, 2, 64, 96
4, 29696, Note_off_c, 2, 64, 0
4, 29696, Note_on_c, 2, 62, 96
4, 30208, Note_off_c, 2, 62, 0
4, 30208, Note_on_c, 2, 60, 96
4, 30720, Note_off_c, 2, 60, 0
4, 30720, Note_on_c, 2, 59, 96
4, 32768, Note_off_c, 2, 59, 0
4, 32768, Note_on_c, 2, 62, 96
4, 33792, Note_off_c, 2, 62, 0
4, 33792, Note_on_c, 2, 62, 96
4, 34816, Note_off_c, 2, 62, 0
4, 34816, Note_on_c, 2, 62, 96
4, 36864, Note_off_c, 2, 62, 0
4, 36864, Note_on_c, 2, 59, 96
4, 37376, Note_off_c, 2, 59, 0
4, 37376, Note_on_c, 2, 57, 96
4, 37888, Note_off_c, 2, 57, 0
4, 37888, Note_on_c, 2, 56, 96
4, 38400, Note_off_c, 2, 56, 0
4, 38400, Note_on_c, 2, 59, 96
4, 38912, Note_off_c, 2, 59, 0
4, 38912, Note_on_c, 2, 57, 96
4, 40960, Note_off_c, 2, 57, 0
4, 40960, Note_on_c, 2, 62, 96
4, 41472, Note_off_c, 2, 62, 0
4, 41472, Note_on_c, 2, 64, 96
4, 41984, Note_off_c, 2, 64, 0
4, 41984, Note_on_c, 2, 66, 96
4, 43008, Note_off_c, 2, 66, 0
4, 43008, Note_on_c, 2, 66, 96
4, 43520, Note_off_c, 2, 66, 0
4, 43520, Note_on_c, 2, 64, 96
4, 44032, Note_off_c, 2, 64, 0
4, 44032, Note_on_c, 2, 62, 96
4, 44544, Note_off_c, 2, 62, 0
4, 44544, Note_on_c, 2, 61, 96
4, 45056, Note_off_c, 2, 61, 0
4, 45056, Note_on_c, 2, 59, 96
4, 46080, Note_off_c, 2, 59, 0
4, 46080, Note_on_c, 2, 57, 96
4, 47104, Note_off_c, 2, 57, 0
4, 47104, Note_on_c, 2, 57, 96
4, 49152, Note_off_c, 2, 57, 0
4, 49152, Note_on_c, 2, 60, 96
4, 50176, Note_off_c, 2, 60, 0
4, 50176, Note_on_c, 2, 62, 96
4, 51200, Note_off_c, 2, 62, 0
4, 51200, Note_on_c, 2, 62, 96
4, 52224, Note_off_c, 2, 62, 0
4, 52224, Note_on_c, 2, 62, 96
4, 53248, Note_off_c, 2, 62, 0
4, 53248, Note_on_c, 2, 64, 96
4, 53760, Note_off_c, 2, 64, 0
4, 53760, Note_on_c, 2, 62, 96
4, 54016, Note_off_c, 2, 62, 0
4, 54016, Note_on_c, 2, 60, 96
4, 54272, Note_off_c, 2, 60, 0
4, 54272, Note_on_c, 2, 62, 96
4, 54784, Note_off_c, 2, 62, 0
4, 54784, Note_on_c, 2, 57, 96
4, 55296, Note_off_c, 2, 57, 0
4, 55296, Note_on_c, 2, 59, 96
4, 57344, Note_off_c, 2, 59, 0
4, 57345, End_track
5, 0, Start_track
5, 0, Title_t, "Instrument 4"
5, 0, Note_on_c, 3, 55, 96
5, 512, Note_off_c, 3, 55, 0
5, 512, Note_on_c, 3, 54, 96
5, 1024, Note_off_c, 3, 54, 0
5, 1024, Note_on_c, 3, 52, 96
5, 1536, Note_off_c, 3, 52, 0
5, 1536, Note_on_c, 3, 55, 96
5, 2048, Note_off_c, 3, 55, 0
5, 2048, Note_on_c, 3, 54, 96
5, 2560, Note_off_c, 3, 54, 0
5, 2560, Note_on_c, 3, 52, 96
5, 3072, Note_off_c, 3, 52, 0
5, 3072, Note_on_c, 3, 50, 96
5, 3584, Note_off_c, 3, 50, 0
5, 3584, Note_on_c, 3, 54, 96
5, 4096, Note_off_c, 3, 54, 0
5, 4096, Note_on_c, 3, 52, 96
5, 4608, Note_off_c, 3, 52, 0
5, 4608, Note_on_c, 3, 50, 96
5, 5120, Note_off_c, 3, 50, 0
5, 5120, Note_on_c, 3, 48, 96
5, 5632, Note_off_c, 3, 48, 0
5, 5632, Note_on_c, 3, 50, 96
5, 6144, Note_off_c, 3, 50, 0
5, 6144, Note_on_c, 3, 43, 96
5, 8192, Note_off_c, 3, 43, 0
5, 8192, Note_on_c, 3, 48, 96
5, 8704, Note_off_c, 3, 48, 0
5, 8704, Note_on_c, 3, 47, 96
5, 9216, Note_off_c, 3, 47, 0
5, 9216, Note_on_c, 3, 45, 96
5, 9728, Note_off_c, 3, 45, 0
5, 9728, Note_on_c, 3, 48, 96
5, 10240, Note_off_c, 3, 48, 0
5, 10240, Note_on_c, 3, 47, 96
5, 10752, Note_off_c, 3, 47, 0
5, 10752, Note_on_c, 3, 45, 96
5, 11264, Note_off_c, 3, 45, 0
5, 11264, Note_on_c, 3, 43, 96
5, 11776, Note_off_c, 3, 43, 0
5, 11776, Note_on_c, 3, 47, 96
5, 12288, Note_off_c, 3, 47, 0
5, 12288, Note_on_c, 3, 48, 96
5, 12800, Note_off_c, 3, 48, 0
5, 12800, Note_on_c, 3, 45, 96
5, 13312, Note_off_c, 3, 45, 0
5, 13312, Note_on_c, 3, 50, 96
5, 14336, Note_off_c, 3, 50, 0
5, 14336, Note_on_c, 3, 43, 96
5, 16384, Note_off_c, 3, 43, 0
5, 16384, Note_on_c, 3, 55, 96
5, 16896, Note_off_c, 3, 55, 0
5, 16896, Note_on_c, 3, 54, 96
5, 17408, Note_off_c, 3, 54, 0
5, 17408, Note_on_c, 3, 52, 96
5, 17920, Note_off_c, 3, 52, 0
5, 17920, Note_on_c, 3, 55, 96
5, 18432, Note_off_c, 3, 55, 0
5, 18432, Note_on_c, 3, 54, 96
5, 18944, Note_off_c, 3, 54, 0
5, 18944, Note_on_c, 3, 52, 96
5, 19456, Note_off_c, 3, 52, 0
5, 19456, Note_on_c, 3, 50, 96
5, 19968, Note_off_c, 3, 50, 0
5, 19968, Note_on_c, 3, 54, 96
5, 20480, Note_off_c, 3, 54, 0
5, 20480, Note_on_c, 3, 52, 96
5, 20992, Note_off_c, 3, 52, 0
5, 20992, Note_on_c, 3, 50, 96
5, 21504, Note_off_c, 3, 50, 0
5, 21504, Note_on_c, 3, 48, 96
5, 22016, Note_off_c, 3, 48, 0
5, 22016, Note_on_c, 3, 50, 96
5, 22528, Note_off_c, 3, 50, 0
5, 22528, Note_on_c, 3, 43, 96
5, 24576, Note_off_c, 3, 43, 0
5, 24576, Note_on_c, 3, 48, 96
5, 25088, Note_off_c, 3, 48, 0
5, 25088, Note_on_c, 3, 47, 96
5, 25600, Note_off_c, 3, 47, 0
5, 25600, Note_on_c, 3, 45, 96
5, 26112, Note_off_c, 3, 45, 0
5, 26112, Note_on_c, 3, 48, 96
5, 26624, Note_off_c, 3, 48, 0
5, 26624, Note_on_c, 3, 47, 96
5, 27136, Note_off_c, 3, 47, 0
5, 27136, Note_on_c, 3, 45, 96
5, 27648, Note_off_c, 3, 45, 0
5, 27648, Note_on_c, 3, 43, 96
5, 28160, Note_off_c, 3, 43, 0
5, 28160, Note_on_c, 3, 47, 96
5, 28672, Note_off_c, 3, 47, 0
5, 28672, Note_on_c, 3, 48, 96
5, 29184, Note_off_c, 3, 48, 0
5, 29184, Note_on_c, 3, 45, 96
5, 29696, Note_off_c, 3, 45, 0
5, 29696, Note_on_c, 3, 50, 96
5, 30720, Note_off_c, 3, 50, 0
5, 30720, Note_on_c, 3, 43, 96
5, 32768, Note_off_c, 3, 43, 0
5, 32768, Note_on_c, 3, 54, 96
5, 33280, Note_off_c, 3, 54, 0
5, 33280, Note_on_c, 3, 52, 96
5, 33792, Note_off_c, 3, 52, 0
5, 33792, Note_on_c, 3, 50, 96
5, 34304, Note_off_c, 3, 50, 0
5, 34304, Note_on_c, 3, 54, 96
5, 34816, Note_off_c, 3, 54, 0
5, 34816, Note_on_c, 3, 55, 96
5, 36864, Note_off_c, 3, 55, 0
5, 36864, Note_on_c, 3, 56, 96
5, 37376, Note_off_c, 3, 56, 0
5, 37376, Note_on_c, 3, 54, 96
5, 37888, Note_off_c, 3, 54, 0
5, 37888, Note_on_c, 3, 52, 96
5, 38400, Note_off_c, 3, 52, 0
5, 38400, Note_on_c, 3, 56, 96
5, 38912, Note_off_c, 3, 56, 0
5, 38912, Note_on_c, 3, 57, 96
5, 40960, Note_off_c, 3, 57, 0
5, 40960, Note_on_c, 3, 54, 96
5, 41472, Note_off_c, 3, 54, 0
5, 41472, Note_on_c, 3, 52, 96
5, 41984, Note_off_c, 3, 52, 0
5, 41984, Note_on_c, 3, 50, 96
5, 42496, Note_off_c, 3, 50, 0
5, 42496, Note_on_c, 3, 54, 96
5, 43008, Note_off_c, 3, 54, 0
5, 43008, Note_on_c, 3, 55, 96
5, 43520, Note_off_c, 3, 55, 0
5, 43520, Note_on_c, 3, 57, 96
5, 44032, Note_off_c, 3, 57, 0
5, 44032, Note_on_c, 3, 59, 96
5, 44544, Note_off_c, 3, 59, 0
5, 44544, Note_on_c, 3, 57, 96
5, 45056, Note_off_c, 3, 57, 0
5, 45056, Note_on_c, 3, 55, 96
5, 45568, Note_off_c, 3, 55, 0
5, 45568, Note_on_c, 3, 52, 96
5, 46080, Note_off_c, 3, 52, 0
5, 46080, Note_on_c, 3, 57, 96
5, 47104, Note_off_c, 3, 57, 0
5, 47104, Note_on_c, 3, 50, 96
5, 49152, Note_off_c, 3, 50, 0
5, 49152, Note_on_c, 3, 45, 96
5, 49664, Note_off_c, 3, 45, 0
5, 49664, Note_on_c, 3, 47, 96
5, 50176, Note_off_c, 3, 47, 0
5, 50176, Note_on_c, 3, 48, 96
5, 50688, Note_off_c, 3, 48, 0
5, 50688, Note_on_c, 3, 45, 96
5, 51200, Note_off_c, 3, 45, 0
5, 51200, Note_on_c, 3, 47, 96
5, 51712, Note_off_c, 3, 47, 0
5, 51712, Note_on_c, 3, 48, 96
5, 52224, Note_off_c, 3, 48, 0
5, 52224, Note_on_c, 3, 50, 96
5, 52736, Note_off_c, 3, 50, 0
5, 52736, Note_on_c, 3, 47, 96
5, 53248, Note_off_c, 3, 47, 0
5, 53248, Note_on_c, 3, 48, 96
5, 53760, Note_off_c, 3, 48, 0
5, 53760, Note_on_c, 3, 45, 96
5, 54272, Note_off_c, 3, 45, 0
5, 54272, Note_on_c, 3, 50, 96
5, 55296, Note_off_c, 3, 50, 0
5, 55296, Note_on_c, 3, 43, 96
5, 57344, Note_off_c, 3, 43, 0
5, 57345, End_track
6, 0, Start_track
6, 0, Title_t, "Instrument 5"
6, 0, Note_on_c, 4, 55, 96
6, 512, Note_off_c, 4, 55, 0
6, 512, Note_on_c, 4, 54, 96
6, 1024, Note_off_c, 4, 54, 0
6, 1024, Note_on_c, 4, 52, 96
6, 1536, Note_off_c, 4, 52, 0
6, 1536, Note_on_c, 4, 55, 96
6, 2048, Note_off_c, 4, 55, 0
6, 2048, Note_on_c, 4, 54, 96
6, 2560, Note_off_c, 4, 54, 0
6, 2560, Note_on_c, 4, 52, 96
6, 3072, Note_off_c, 4, 52, 0
6, 3072, Note_on_c, 4, 50, 96
6, 3584, Note_off_c, 4, 50, 0
6, 3584, Note_on_c, 4, 54, 96
6, 4096, Note_off_c, 4, 54, 0
6, 4096, Note_on_c, 4, 52, 96
6, 4608, Note_off_c, 4, 52, 0
6, 4608, Note_on_c, 4, 50, 96
6, 5120, Note_off_c, 4, 50, 0
6, 5120, Note_on_c, 4, 48, 96
6, 5632, Note_off_c, 4, 48, 0
6, 5632, Note_on_c, 4, 50, 96
6, 6144, Note_off_c, 4, 50, 0
6, 6144, Note_on_c, 4, 43, 96
6, 8192, Note_off_c, 4, 43, 0
6, 8192, Note_on_c, 4, 48, 96
6, 8704, Note_off_c, 4, 48, 0
6, 8704, Note_on_c, 4, 47, 96
6, 9216, Note_off_c, 4, 47, 0
6, 9216, Note_on_c, 4, 45, 96
6, 9728, Note_off_c, 4, 45, 0
6, 9728, Note_on_c, 4, 48, 96
6, 10240, Note_off_c, 4, 48, 0
6, 10240, Note_on_c, 4, 47, 96
6, 10752, Note_off_c, 4, 47, 0
6, 10752, Note_on_c, 4, 45, 96
6, 11264, Note_off_c, 4, 45, 0
6, 11264, Note_on_c, 4, 43, 96
6, 11776, Note_off_c, 4, 43, 0
6, 11776, Note_on_c, 4, 47, 96
6, 12288, Note_off_c, 4, 47, 0
6, 12288, Note_on_c, 4, 48, 96
6, 12800, Note_off_c, 4, 48, 0
6, 12800, Note_on_c, 4, 45, 96
6, 13312, Note_off_c, 4, 45, 0
6, 13312, Note_on_c, 4, 50, 96
6, 13824, Note_off_c, 4, 50, 0
6, 13824, Note_on_c, 4, 38, 96
6, 14336, Note_off_c, 4, 38, 0
6, 14336, Note_on_c, 4, 43, 96
6, 16384, Note_off_c, 4, 43, 0
6, 16384, Note_on_c, 4, 55, 96
6, 16896, Note_off_c, 4, 55, 0
6, 16896, Note_on_c, 4, 54, 96
6, 17408, Note_off_c, 4, 54, 0
6, 17408, Note_on_c, 4, 52, 96
6, 17920, Note_off_c, 4, 52, 0
6, 17920, Note_on_c, 4, 55, 96
6, 18432, Note_off_c, 4, 55, 0
6, 18432, Note_on_c, 4, 54, 96
6, 18944, Note_off_c, 4, 54, 0
6, 18944, Note_on_c, 4, 52, 96
6, 19456, Note_off_c, 4, 52, 0
6, 19456, Note_on_c, 4, 50, 96
6, 19968, Note_off_c, 4, 50, 0
6, 19968, Note_on_c, 4, 54, 96
6, 20480, Note_off_c, 4, 54, 0
6, 20480, Note_on_c, 4, 52, 96
6, 20992, Note_off_c, 4, 52, 0
6, 20992, Note_on_c, 4, 50, 96
6, 21504, Note_off_c, 4, 50, 0
6, 21504, Note_on_c, 4, 48, 96
6, 22016, Note_off_c, 4, 48, 0
6, 22016, Note_on_c, 4, 50, 96
6, 22528, Note_off_c, 4, 50, 0
6, 22528, Note_on_c, 4, 43, 96
6, 24576, Note_off_c, 4, 43, 0
6, 24576, Note_on_c, 4, 48, 96
6, 25088, Note_off_c, 4, 48, 0
6, 25088, Note_on_c, 4, 47, 96
6, 25600, Note_off_c, 4, 47, 0
6, 25600, Note_on_c, 4, 45, 96
6, 26112, Note_off_c, 4, 45, 0
6, 26112, Note_on_c, 4, 48, 96
6, 26624, Note_off_c, 4, 48, 0
6, 26624, Note_on_c, 4, 47, 96
6, 27136, Note_off_c, 4, 47, 0
6, 27136, Note_on_c, 4, 45, 96
6, 27648, Note_off_c, 4, 45, 0
6, 27648, Note_on_c, 4, 43, 96
6, 28160, Note_off_c, 4, 43, 0
6, 28160, Note_on_c, 4, 47, 96
6, 28672, Note_off_c, 4, 47, 0
6, 28672, Note_on_c, 4, 48, 96
6, 29184, Note_off_c, 4, 48, 0
6, 29184, Note_on_c, 4, 45, 96
6, 29696, Note_off_c, 4, 45, 0
6, 29696, Note_on_c, 4, 50, 96
6, 30208, Note_off_c, 4, 50, 0
6, 30208, Note_on_c, 4, 38, 96
6, 30720, Note_off_c, 4, 38, 0
6, 30720, Note_on_c, 4, 43, 96
6, 32768, Note_off_c, 4, 43, 0
6, 32768, Note_on_c, 4, 54, 96
6, 33280, Note_off_c, 4, 54, 0
6, 33280, Note_on_c, 4, 52, 96
6, 33792, Note_off_c, 4, 52, 0
6, 33792, Note_on_c, 4, 50, 96
6, 34304, Note_off_c, 4, 50, 0
6, 34304, Note_on_c, 4, 54, 96
6, 34816, Note_off_c, 4, 54, 0
6, 34816, Note_on_c, 4, 55, 96
6, 36864, Note_off_c, 4, 55, 0
6, 36864, Note_on_c, 4, 56, 96
6, 37376, Note_off_c, 4, 56, 0
6, 37376, Note_on_c, 4, 54, 96
6, 37888, Note_off_c, 4, 54, 0
6, 37888, Note_on_c, 4, 52, 96
6, 38400, Note_off_c, 4, 52, 0
6, 38400, Note_on_c, 4, 56, 96
6, 38912, Note_off_c, 4, 56, 0
6, 38912, Note_on_c, 4, 57, 96
6, 40960, Note_off_c, 4, 57, 0
6, 40960, Note_on_c, 4, 54, 96
6, 41472, Note_off_c, 4, 54, 0
6, 41472, Note_on_c, 4, 52, 96
6, 41984, Note_off_c, 4, 52, 0
6, 41984, Note_on_c, 4, 50, 96
6, 42496, Note_off_c, 4, 50, 0
6, 42496, Note_on_c, 4, 54, 96
6, 43008, Note_off_c, 4, 54, 0
6, 43008, Note_on_c, 4, 55, 96
6, 43520, Note_off_c, 4, 55, 0
6, 43520, Note_on_c, 4, 57, 96
6, 44032, Note_off_c, 4, 57, 0
6, 44032, Note_on_c, 4, 59, 96
6, 44544, Note_off_c, 4, 59, 0
6, 44544, Note_on_c, 4, 57, 96
6, 45056, Note_off_c, 4, 57, 0
6, 45056, Note_on_c, 4, 55, 96
6, 45568, Note_off_c, 4, 55, 0
6, 45568, Note_on_c, 4, 52, 96
6, 46080, Note_off_c, 4, 52, 0
6, 46080, Note_on_c, 4, 57, 96
6, 46592, Note_off_c, 4, 57, 0
6, 46592, Note_on_c, 4, 45, 96
6, 47104, Note_off_c, 4, 45, 0
6, 47104, Note_on_c, 4, 50, 96
6, 49152, Note_off_c, 4, 50, 0
6, 49152, Note_on_c, 4, 45, 96
6, 49664, Note_off_c, 4, 45, 0
6, 49664, Note_on_c, 4, 47, 96
6, 50176, Note_off_c, 4, 47, 0
6, 50176, Note_on_c, 4, 48, 96
6, 50688, Note_off_c, 4, 48, 0
6, 50688, Note_on_c, 4, 45, 96
6, 51200, Note_off_c, 4, 45, 0
6, 51200, Note_on_c, 4, 47, 96
6, 51712, Note_off_c, 4, 47, 0
6, 51712, Note_on_c, 4, 48, 96
6, 52224, Note_off_c, 4, 48, 0
6, 52224, Note_on_c, 4, 50, 96
6, 52736, Note_off_c, 4, 50, 0
6, 52736, Note_on_c, 4, 47, 96
6, 53248, Note_off_c, 4, 47, 0
6, 53248, Note_on_c, 4, 48, 96
6, 53760, Note_off_c, 4, 48, 0
6, 53760, Note_on_c, 4, 45, 96
6, 54272, Note_off_c, 4, 45, 0
6, 54272, Note_on_c, 4, 50, 96
6, 54784, Note_off_c, 4, 50, 0
6, 54784, Note_on_c, 4, 38, 96
6, 55296, Note_off_c, 4, 38, 0
6, 55296, Note_on_c, 4, 43, 96
6, 57344, Note_off_c, 4, 43, 0
6, 57345, End_track
0, 0, End_of_file
