0, 0, Header, 1, 4, 120
1, 0, Start_track
1, 0, Title_t, "Minuet in Gm"
1, 0, Title_t, "from ""Anna Magdalena's Notebook"""
1, 0, Text_t, "Composed by Johann Sebastian Bach (1685-1750)\012"
1, 0, Text_t, "Programmed for MIDI by Lory Werths\012"
1, 0, Time_signature, 3, 2, 24, 8
1, 0, Key_signature, -2, "major"
1, 0, Tempo, 500000
1, 22560, Tempo, 500000
1, 22575, Tempo, 504202
1, 22590, Tempo, 508475
1, 22605, Tempo, 512821
1, 22620, Tempo, 517241
1, 22635, Tempo, 521739
1, 22650, Tempo, 526316
1, 22665, Tempo, 530973
1, 22680, Tempo, 535714
1, 22695, Tempo, 540541
1, 22710, Tempo, 545455
1, 22725, Tempo, 550459
1, 22740, Tempo, 555556
1, 22755, Tempo, 560748
1, 22770, Tempo, 566038
1, 22785, Tempo, 571429
1, 22800, Tempo, 576923
1, 22815, Tempo, 582524
1, 22830, Tempo, 588235
1, 22845, Tempo, 594059
1, 22860, Tempo, 600000
1, 22875, Tempo, 606061
1, 22890, Tempo, 612245
1, 22905, Tempo, 618557
1, 22920, Tempo, 625000
1, 22935, Tempo, 631579
1, 22950, Tempo, 638298
1, 22965, Tempo, 645161
1, 22980, Tempo, 652174
1, 22995, Tempo, 659341
1, 23010, Tempo, 666667
1, 23025, Tempo, 674157
1, 23040, Tempo, 681818
1, 23055, Tempo, 689655
1, 23070, Tempo, 697674
1, 23085, Tempo, 705882
1, 23100, Tempo, 714286
1, 23115, Tempo, 722892
1, 23130, Tempo, 731707
1, 23145, Tempo, 740741
1, 23160, Tempo, 750000
1, 23160, End_track
2, 0, Start_track
2, 0, Control_c, 0, 0, 0
2, 0, Control_c, 0, 7, 105
2, 0, Control_c, 0, 10, 27
2, 0, Control_c, 0, 32, 0
2, 0, Program_c, 0, 16
2, 360, Note_on_c, 0, 82, 100
2, 480, Note_on_c, 0, 82, 0
2, 480, Note_on_c, 0, 81, 100
2, 600, Note_on_c, 0, 81, 0
2, 600, Note_on_c, 0, 79, 100
2, 720, Note_on_c, 0, 79, 0
2, 720, Note_on_c, 0, 81, 100
2, 840, Note_on_c, 0, 81, 0
2, 840, Note_on_c, 0, 74, 100
2, 890, Note_on_c, 0, 74, 0
2, 960, Note_on_c, 0, 74, 100
2, 1010, Note_on_c, 0, 74, 0
2, 1080, Note_on_c, 0, 79, 100
2, 1200, Note_on_c, 0, 79, 0
2, 1200, Note_on_c, 0, 67, 100
2, 1260, Note_on_c, 0, 67, 0
2, 1260, Note_on_c, 0, 69, 100
2, 1320, Note_on_c, 0, 69, 0
2, 1320, Note_on_c, 0, 70, 100
2, 1380, Note_on_c, 0, 70, 0
2, 1380, Note_on_c, 0, 72, 100
2, 1440, Note_on_c, 0, 72, 0
2, 1440, Note_on_c, 0, 74, 100
2, 1799, Note_on_c, 0, 74, 0
2, 1800, Note_on_c, 0, 75, 100
2, 1920, Note_on_c, 0, 75, 0
2, 1920, Note_on_c, 0, 77, 100
2, 1980, Note_on_c, 0, 77, 0
2, 1980, Note_on_c, 0, 75, 100
2, 2040, Note_on_c, 0, 75, 0
2, 2040, Note_on_c, 0, 74, 100
2, 2100, Note_on_c, 0, 74, 0
2, 2100, Note_on_c, 0, 72, 100
2, 2160, Note_on_c, 0, 72, 0
2, 2160, Note_on_c, 0, 74, 100
2, 2280, Note_on_c, 0, 74, 0
2, 2280, Note_on_c, 0, 75, 100
2, 2340, Note_on_c, 0, 75, 0
2, 2340, Note_on_c, 0, 74, 100
2, 2400, Note_on_c, 0, 74, 0
2, 2400, Note_on_c, 0, 72, 100
2, 2460, Note_on_c, 0, 72, 0
2, 2460, Note_on_c, 0, 70, 100
2, 2520, Note_on_c, 0, 70, 0
2, 2520, Note_on_c, 0, 72, 100
2, 2640, Note_on_c, 0, 72, 0
2, 2640, Note_on_c, 0, 74, 100
2, 2700, Note_on_c, 0, 74, 0
2, 2700, Note_on_c, 0, 72, 100
2, 2760, Note_on_c, 0, 72, 0
2, 2760, Note_on_c, 0, 70, 100
2, 2820, Note_on_c, 0, 70, 0
2, 2820, Note_on_c, 0, 72, 100
2, 2880, Note_on_c, 0, 72, 0
2, 2880, Note_on_c, 0, 69, 100
2, 2895, Note_on_c, 0, 69, 0
2, 2895, Note_on_c, 0, 70, 100
2, 2910, Note_on_c, 0, 70, 0
2, 2910, Note_on_c, 0, 69, 100
2, 3239, Note_on_c, 0, 69, 0
2, 3240, Note_on_c, 0, 82, 100
2, 3360, Note_on_c, 0, 82, 0
2, 3360, Note_on_c, 0, 81, 100
2, 3375, Note_on_c, 0, 81, 0
2, 3375, Note_on_c, 0, 82, 100
2, 3390, Note_on_c, 0, 82, 0
2, 3390, Note_on_c, 0, 81, 100
2, 3480, Note_on_c, 0, 81, 0
2, 3480, Note_on_c, 0, 79, 100
2, 3600, Note_on_c, 0, 79, 0
2, 3600, Note_on_c, 0, 81, 100
2, 3720, Note_on_c, 0, 81, 0
2, 3720, Note_on_c, 0, 74, 100
2, 3770, Note_on_c, 0, 74, 0
2, 3840, Note_on_c, 0, 74, 100
2, 3890, Note_on_c, 0, 74, 0
2, 3960, Note_on_c, 0, 79, 100
2, 4080, Note_on_c, 0, 79, 0
2, 4080, Note_on_c, 0, 67, 100
2, 4140, Note_on_c, 0, 67, 0
2, 4140, Note_on_c, 0, 69, 100
2, 4200, Note_on_c, 0, 69, 0
2, 4200, Note_on_c, 0, 70, 100
2, 4260, Note_on_c, 0, 70, 0
2, 4260, Note_on_c, 0, 72, 100
2, 4320, Note_on_c, 0, 72, 0
2, 4320, Note_on_c, 0, 74, 100
2, 4679, Note_on_c, 0, 74, 0
2, 4680, Note_on_c, 0, 77, 100
2, 4695, Note_on_c, 0, 77, 0
2, 4695, Note_on_c, 0, 76, 100
2, 4710, Note_on_c, 0, 76, 0
2, 4710, Note_on_c, 0, 77, 100
2, 4800, Note_on_c, 0, 77, 0
2, 4800, Note_on_c, 0, 79, 100
2, 4860, Note_on_c, 0, 79, 0
2, 4860, Note_on_c, 0, 77, 100
2, 4920, Note_on_c, 0, 77, 0
2, 4920, Note_on_c, 0, 75, 100
2, 4980, Note_on_c, 0, 75, 0
2, 4980, Note_on_c, 0, 74, 100
2, 5040, Note_on_c, 0, 74, 0
2, 5040, Note_on_c, 0, 75, 100
2, 5160, Note_on_c, 0, 75, 0
2, 5160, Note_on_c, 0, 77, 100
2, 5220, Note_on_c, 0, 77, 0
2, 5220, Note_on_c, 0, 75, 100
2, 5280, Note_on_c, 0, 75, 0
2, 5280, Note_on_c, 0, 74, 100
2, 5340, Note_on_c, 0, 74, 0
2, 5340, Note_on_c, 0, 72, 100
2, 5400, Note_on_c, 0, 72, 0
2, 5400, Note_on_c, 0, 74, 100
2, 5520, Note_on_c, 0, 74, 0
2, 5520, Note_on_c, 0, 79, 100
2, 5638, Note_on_c, 0, 79, 0
2, 5640, Note_on_c, 0, 72, 100
2, 5655, Note_on_c, 0, 72, 0
2, 5655, Note_on_c, 0, 74, 100
2, 5670, Note_on_c, 0, 74, 0
2, 5670, Note_on_c, 0, 72, 100
2, 5760, Note_on_c, 0, 72, 0
2, 5760, Note_on_c, 0, 70, 100
2, 5760, Note_on_c, 0, 65, 100
2, 5760, Note_on_c, 0, 62, 100
2, 6119, Note_on_c, 0, 62, 0
2, 6119, Note_on_c, 0, 65, 0
2, 6119, Note_on_c, 0, 70, 0
2, 6120, Note_on_c, 0, 82, 100
2, 6240, Note_on_c, 0, 82, 0
2, 6240, Note_on_c, 0, 81, 100
2, 6360, Note_on_c, 0, 81, 0
2, 6360, Note_on_c, 0, 79, 100
2, 6480, Note_on_c, 0, 79, 0
2, 6480, Note_on_c, 0, 81, 100
2, 6600, Note_on_c, 0, 81, 0
2, 6600, Note_on_c, 0, 74, 100
2, 6650, Note_on_c, 0, 74, 0
2, 6720, Note_on_c, 0, 74, 100
2, 6770, Note_on_c, 0, 74, 0
2, 6840, Note_on_c, 0, 79, 100
2, 6960, Note_on_c, 0, 79, 0
2, 6960, Note_on_c, 0, 67, 100
2, 7020, Note_on_c, 0, 67, 0
2, 7020, Note_on_c, 0, 69, 100
2, 7080, Note_on_c, 0, 69, 0
2, 7080, Note_on_c, 0, 70, 100
2, 7140, Note_on_c, 0, 70, 0
2, 7140, Note_on_c, 0, 72, 100
2, 7200, Note_on_c, 0, 72, 0
2, 7200, Note_on_c, 0, 74, 100
2, 7559, Note_on_c, 0, 74, 0
2, 7560, Note_on_c, 0, 75, 100
2, 7680, Note_on_c, 0, 75, 0
2, 7680, Note_on_c, 0, 77, 100
2, 7740, Note_on_c, 0, 77, 0
2, 7740, Note_on_c, 0, 75, 100
2, 7800, Note_on_c, 0, 75, 0
2, 7800, Note_on_c, 0, 74, 100
2, 7860, Note_on_c, 0, 74, 0
2, 7860, Note_on_c, 0, 72, 100
2, 7920, Note_on_c, 0, 72, 0
2, 7920, Note_on_c, 0, 74, 100
2, 8040, Note_on_c, 0, 74, 0
2, 8040, Note_on_c, 0, 75, 100
2, 8100, Note_on_c, 0, 75, 0
2, 8100, Note_on_c, 0, 74, 100
2, 8160, Note_on_c, 0, 74, 0
2, 8160, Note_on_c, 0, 72, 100
2, 8220, Note_on_c, 0, 72, 0
2, 8220, Note_on_c, 0, 70, 100
2, 8280, Note_on_c, 0, 70, 0
2, 8280, Note_on_c, 0, 72, 100
2, 8400, Note_on_c, 0, 72, 0
2, 8400, Note_on_c, 0, 74, 100
2, 8460, Note_on_c, 0, 74, 0
2, 8460, Note_on_c, 0, 72, 100
2, 8520, Note_on_c, 0, 72, 0
2, 8520, Note_on_c, 0, 70, 100
2, 8580, Note_on_c, 0, 70, 0
2, 8580, Note_on_c, 0, 72, 100
2, 8640, Note_on_c, 0, 72, 0
2, 8640, Note_on_c, 0, 69, 100
2, 8655, Note_on_c, 0, 69, 0
2, 8655, Note_on_c, 0, 70, 100
2, 8670, Note_on_c, 0, 70, 0
2, 8670, Note_on_c, 0, 69, 100
2, 8999, Note_on_c, 0, 69, 0
2, 9000, Note_on_c, 0, 82, 100
2, 9120, Note_on_c, 0, 82, 0
2, 9120, Note_on_c, 0, 81, 100
2, 9135, Note_on_c, 0, 81, 0
2, 9135, Note_on_c, 0, 82, 100
2, 9150, Note_on_c, 0, 82, 0
2, 9150, Note_on_c, 0, 81, 100
2, 9240, Note_on_c, 0, 81, 0
2, 9240, Note_on_c, 0, 79, 100
2, 9360, Note_on_c, 0, 79, 0
2, 9360, Note_on_c, 0, 81, 100
2, 9480, Note_on_c, 0, 81, 0
2, 9480, Note_on_c, 0, 74, 100
2, 9530, Note_on_c, 0, 74, 0
2, 9600, Note_on_c, 0, 74, 100
2, 9650, Note_on_c, 0, 74, 0
2, 9720, Note_on_c, 0, 79, 100
2, 9840, Note_on_c, 0, 79, 0
2, 9840, Note_on_c, 0, 67, 100
2, 9900, Note_on_c, 0, 67, 0
2, 9900, Note_on_c, 0, 69, 100
2, 9960, Note_on_c, 0, 69, 0
2, 9960, Note_on_c, 0, 70, 100
2, 10020, Note_on_c, 0, 70, 0
2, 10020, Note_on_c, 0, 72, 100
2, 10080, Note_on_c, 0, 72, 0
2, 10080, Note_on_c, 0, 74, 100
2, 10439, Note_on_c, 0, 74, 0
2, 10440, Note_on_c, 0, 77, 100
2, 10455, Note_on_c, 0, 77, 0
2, 10455, Note_on_c, 0, 76, 100
2, 10470, Note_on_c, 0, 76, 0
2, 10470, Note_on_c, 0, 77, 100
2, 10560, Note_on_c, 0, 77, 0
2, 10560, Note_on_c, 0, 79, 100
2, 10620, Note_on_c, 0, 79, 0
2, 10620, Note_on_c, 0, 77, 100
2, 10680, Note_on_c, 0, 77, 0
2, 10680, Note_on_c, 0, 75, 100
2, 10740, Note_on_c, 0, 75, 0
2, 10740, Note_on_c, 0, 74, 100
2, 10800, Note_on_c, 0, 74, 0
2, 10800, Note_on_c, 0, 75, 100
2, 10920, Note_on_c, 0, 75, 0
2, 10920, Note_on_c, 0, 77, 100
2, 10980, Note_on_c, 0, 77, 0
2, 10980, Note_on_c, 0, 75, 100
2, 11040, Note_on_c, 0, 75, 0
2, 11040, Note_on_c, 0, 74, 100
2, 11100, Note_on_c, 0, 74, 0
2, 11100, Note_on_c, 0, 72, 100
2, 11160, Note_on_c, 0, 72, 0
2, 11160, Note_on_c, 0, 74, 100
2, 11280, Note_on_c, 0, 74, 0
2, 11280, Note_on_c, 0, 79, 100
2, 11398, Note_on_c, 0, 79, 0
2, 11400, Note_on_c, 0, 72, 100
2, 11415, Note_on_c, 0, 72, 0
2, 11415, Note_on_c, 0, 74, 100
2, 11430, Note_on_c, 0, 74, 0
2, 11430, Note_on_c, 0, 72, 100
2, 11520, Note_on_c, 0, 72, 0
2, 11520, Note_on_c, 0, 70, 100
2, 11520, Note_on_c, 0, 65, 100
2, 11520, Note_on_c, 0, 62, 100
2, 11879, Note_on_c, 0, 62, 0
2, 11879, Note_on_c, 0, 65, 0
2, 11879, Note_on_c, 0, 70, 0
2, 11880, Note_on_c, 0, 74, 100
2, 12000, Note_on_c, 0, 74, 0
2, 12000, Note_on_c, 0, 70, 100
2, 12060, Note_on_c, 0, 70, 0
2, 12060, Note_on_c, 0, 72, 100
2, 12120, Note_on_c, 0, 72, 0
2, 12120, Note_on_c, 0, 74, 100
2, 12180, Note_on_c, 0, 74, 0
2, 12180, Note_on_c, 0, 76, 100
2, 12240, Note_on_c, 0, 76, 0
2, 12240, Note_on_c, 0, 77, 100
2, 12358, Note_on_c, 0, 77, 0
2, 12360, Note_on_c, 0, 79, 100
2, 12480, Note_on_c, 0, 79, 0
2, 12480, Note_on_c, 0, 81, 100
2, 12600, Note_on_c, 0, 81, 0
2, 12600, Note_on_c, 0, 82, 100
2, 12720, Note_on_c, 0, 82, 0
2, 12720, Note_on_c, 0, 79, 100
2, 12780, Note_on_c, 0, 79, 0
2, 12780, Note_on_c, 0, 81, 100
2, 12840, Note_on_c, 0, 81, 0
2, 12840, Note_on_c, 0, 82, 100
2, 12900, Note_on_c, 0, 82, 0
2, 12900, Note_on_c, 0, 79, 100
2, 12960, Note_on_c, 0, 79, 0
2, 12960, Note_on_c, 0, 81, 100
2, 13080, Note_on_c, 0, 81, 0
2, 13080, Note_on_c, 0, 79, 100
2, 13140, Note_on_c, 0, 79, 0
2, 13140, Note_on_c, 0, 81, 100
2, 13200, Note_on_c, 0, 81, 0
2, 13200, Note_on_c, 0, 77, 100
2, 13318, Note_on_c, 0, 77, 0
2, 13320, Note_on_c, 0, 65, 100
2, 13380, Note_on_c, 0, 65, 0
2, 13380, Note_on_c, 0, 67, 100
2, 13440, Note_on_c, 0, 67, 0
2, 13440, Note_on_c, 0, 69, 100
2, 13500, Note_on_c, 0, 69, 0
2, 13500, Note_on_c, 0, 70, 100
2, 13560, Note_on_c, 0, 70, 0
2, 13560, Note_on_c, 0, 72, 100
2, 13620, Note_on_c, 0, 72, 0
2, 13620, Note_on_c, 0, 74, 100
2, 13680, Note_on_c, 0, 74, 0
2, 13680, Note_on_c, 0, 75, 100
2, 13798, Note_on_c, 0, 75, 0
2, 13800, Note_on_c, 0, 74, 100
2, 13815, Note_on_c, 0, 74, 0
2, 13815, Note_on_c, 0, 75, 100
2, 13830, Note_on_c, 0, 75, 0
2, 13830, Note_on_c, 0, 74, 100
2, 13920, Note_on_c, 0, 74, 0
2, 13920, Note_on_c, 0, 72, 100
2, 14040, Note_on_c, 0, 72, 0
2, 14040, Note_on_c, 0, 77, 100
2, 14160, Note_on_c, 0, 77, 0
2, 14160, Note_on_c, 0, 70, 100
2, 14280, Note_on_c, 0, 70, 0
2, 14280, Note_on_c, 0, 69, 100
2, 14400, Note_on_c, 0, 69, 0
2, 14400, Note_on_c, 0, 70, 100
2, 14759, Note_on_c, 0, 70, 0
2, 14760, Note_on_c, 0, 67, 100
2, 14880, Note_on_c, 0, 67, 0
2, 14880, Note_on_c, 0, 74, 100
2, 14940, Note_on_c, 0, 74, 0
2, 14940, Note_on_c, 0, 72, 100
2, 15000, Note_on_c, 0, 72, 0
2, 15000, Note_on_c, 0, 74, 100
2, 15118, Note_on_c, 0, 74, 0
2, 15120, Note_on_c, 0, 67, 100
2, 15240, Note_on_c, 0, 67, 0
2, 15240, Note_on_c, 0, 75, 100
2, 15300, Note_on_c, 0, 75, 0
2, 15300, Note_on_c, 0, 74, 100
2, 15360, Note_on_c, 0, 74, 0
2, 15360, Note_on_c, 0, 75, 100
2, 15478, Note_on_c, 0, 75, 0
2, 15480, Note_on_c, 0, 67, 100
2, 15540, Note_on_c, 0, 67, 0
2, 15540, Note_on_c, 0, 74, 100
2, 15598, Note_on_c, 0, 74, 0
2, 15600, Note_on_c, 0, 66, 100
2, 15660, Note_on_c, 0, 66, 0
2, 15660, Note_on_c, 0, 72, 100
2, 15718, Note_on_c, 0, 72, 0
2, 15720, Note_on_c, 0, 67, 100
2, 15780, Note_on_c, 0, 67, 0
2, 15780, Note_on_c, 0, 70, 100
2, 15838, Note_on_c, 0, 70, 0
2, 15840, Note_on_c, 0, 69, 100
2, 16199, Note_on_c, 0, 69, 0
2, 16200, Note_on_c, 0, 62, 100
2, 16260, Note_on_c, 0, 62, 0
2, 16260, Note_on_c, 0, 64, 100
2, 16320, Note_on_c, 0, 64, 0
2, 16320, Note_on_c, 0, 66, 100
2, 16380, Note_on_c, 0, 66, 0
2, 16380, Note_on_c, 0, 67, 100
2, 16440, Note_on_c, 0, 67, 0
2, 16440, Note_on_c, 0, 69, 100
2, 16500, Note_on_c, 0, 69, 0
2, 16500, Note_on_c, 0, 70, 100
2, 16560, Note_on_c, 0, 70, 0
2, 16560, Note_on_c, 0, 72, 100
2, 16678, Note_on_c, 0, 72, 0
2, 16680, Note_on_c, 0, 70, 100
2, 16800, Note_on_c, 0, 70, 0
2, 16800, Note_on_c, 0, 69, 100
2, 16920, Note_on_c, 0, 69, 0
2, 16920, Note_on_c, 0, 70, 100
2, 16980, Note_on_c, 0, 70, 0
2, 16980, Note_on_c, 0, 72, 100
2, 17010, Note_on_c, 0, 72, 0
2, 17010, Note_on_c, 0, 74, 100
2, 17040, Note_on_c, 0, 74, 0
2, 17040, Note_on_c, 0, 67, 100
2, 17160, Note_on_c, 0, 67, 0
2, 17160, Note_on_c, 0, 66, 100
2, 17280, Note_on_c, 0, 66, 0
2, 17280, Note_on_c, 0, 67, 100
2, 17280, Note_on_c, 0, 62, 100
2, 17280, Note_on_c, 0, 58, 100
2, 17639, Note_on_c, 0, 58, 0
2, 17639, Note_on_c, 0, 62, 0
2, 17639, Note_on_c, 0, 67, 0
2, 17640, Note_on_c, 0, 74, 100
2, 17760, Note_on_c, 0, 74, 0
2, 17760, Note_on_c, 0, 70, 100
2, 17820, Note_on_c, 0, 70, 0
2, 17820, Note_on_c, 0, 72, 100
2, 17880, Note_on_c, 0, 72, 0
2, 17880, Note_on_c, 0, 74, 100
2, 17940, Note_on_c, 0, 74, 0
2, 17940, Note_on_c, 0, 76, 100
2, 18000, Note_on_c, 0, 76, 0
2, 18000, Note_on_c, 0, 77, 100
2, 18118, Note_on_c, 0, 77, 0
2, 18120, Note_on_c, 0, 79, 100
2, 18240, Note_on_c, 0, 79, 0
2, 18240, Note_on_c, 0, 81, 100
2, 18360, Note_on_c, 0, 81, 0
2, 18360, Note_on_c, 0, 82, 100
2, 18480, Note_on_c, 0, 82, 0
2, 18480, Note_on_c, 0, 79, 100
2, 18540, Note_on_c, 0, 79, 0
2, 18540, Note_on_c, 0, 81, 100
2, 18600, Note_on_c, 0, 81, 0
2, 18600, Note_on_c, 0, 82, 100
2, 18660, Note_on_c, 0, 82, 0
2, 18660, Note_on_c, 0, 79, 100
2, 18720, Note_on_c, 0, 79, 0
2, 18720, Note_on_c, 0, 81, 100
2, 18840, Note_on_c, 0, 81, 0
2, 18840, Note_on_c, 0, 79, 100
2, 18900, Note_on_c, 0, 79, 0
2, 18900, Note_on_c, 0, 81, 100
2, 18960, Note_on_c, 0, 81, 0
2, 18960, Note_on_c, 0, 77, 100
2, 19078, Note_on_c, 0, 77, 0
2, 19080, Note_on_c, 0, 65, 100
2, 19140, Note_on_c, 0, 65, 0
2, 19140, Note_on_c, 0, 67, 100
2, 19200, Note_on_c, 0, 67, 0
2, 19200, Note_on_c, 0, 69, 100
2, 19260, Note_on_c, 0, 69, 0
2, 19260, Note_on_c, 0, 70, 100
2, 19320, Note_on_c, 0, 70, 0
2, 19320, Note_on_c, 0, 72, 100
2, 19380, Note_on_c, 0, 72, 0
2, 19380, Note_on_c, 0, 74, 100
2, 19440, Note_on_c, 0, 74, 0
2, 19440, Note_on_c, 0, 75, 100
2, 19558, Note_on_c, 0, 75, 0
2, 19560, Note_on_c, 0, 74, 100
2, 19575, Note_on_c, 0, 74, 0
2, 19575, Note_on_c, 0, 75, 100
2, 19590, Note_on_c, 0, 75, 0
2, 19590, Note_on_c, 0, 74, 100
2, 19680, Note_on_c, 0, 74, 0
2, 19680, Note_on_c, 0, 72, 100
2, 19800, Note_on_c, 0, 72, 0
2, 19800, Note_on_c, 0, 77, 100
2, 19920, Note_on_c, 0, 77, 0
2, 19920, Note_on_c, 0, 70, 100
2, 20040, Note_on_c, 0, 70, 0
2, 20040, Note_on_c, 0, 69, 100
2, 20160, Note_on_c, 0, 69, 0
2, 20160, Note_on_c, 0, 70, 100
2, 20519, Note_on_c, 0, 70, 0
2, 20520, Note_on_c, 0, 67, 100
2, 20640, Note_on_c, 0, 67, 0
2, 20640, Note_on_c, 0, 74, 100
2, 20700, Note_on_c, 0, 74, 0
2, 20700, Note_on_c, 0, 72, 100
2, 20760, Note_on_c, 0, 72, 0
2, 20760, Note_on_c, 0, 74, 100
2, 20878, Note_on_c, 0, 74, 0
2, 20880, Note_on_c, 0, 67, 100
2, 21000, Note_on_c, 0, 67, 0
2, 21000, Note_on_c, 0, 75, 100
2, 21060, Note_on_c, 0, 75, 0
2, 21060, Note_on_c, 0, 74, 100
2, 21120, Note_on_c, 0, 74, 0
2, 21120, Note_on_c, 0, 75, 100
2, 21238, Note_on_c, 0, 75, 0
2, 21240, Note_on_c, 0, 67, 100
2, 21300, Note_on_c, 0, 67, 0
2, 21300, Note_on_c, 0, 74, 100
2, 21358, Note_on_c, 0, 74, 0
2, 21360, Note_on_c, 0, 66, 100
2, 21420, Note_on_c, 0, 66, 0
2, 21420, Note_on_c, 0, 72, 100
2, 21478, Note_on_c, 0, 72, 0
2, 21480, Note_on_c, 0, 67, 100
2, 21540, Note_on_c, 0, 67, 0
2, 21540, Note_on_c, 0, 70, 100
2, 21598, Note_on_c, 0, 70, 0
2, 21600, Note_on_c, 0, 69, 100
2, 21959, Note_on_c, 0, 69, 0
2, 21960, Note_on_c, 0, 62, 100
2, 22020, Note_on_c, 0, 62, 0
2, 22020, Note_on_c, 0, 64, 100
2, 22080, Note_on_c, 0, 64, 0
2, 22080, Note_on_c, 0, 66, 100
2, 22140, Note_on_c, 0, 66, 0
2, 22140, Note_on_c, 0, 67, 100
2, 22200, Note_on_c, 0, 67, 0
2, 22200, Note_on_c, 0, 69, 100
2, 22260, Note_on_c, 0, 69, 0
2, 22260, Note_on_c, 0, 70, 100
2, 22320, Note_on_c, 0, 70, 0
2, 22320, Note_on_c, 0, 72, 100
2, 22438, Note_on_c, 0, 72, 0
2, 22440, Note_on_c, 0, 70, 100
2, 22560, Note_on_c, 0, 70, 0
2, 22560, Note_on_c, 0, 69, 100
2, 22680, Note_on_c, 0, 69, 0
2, 22680, Note_on_c, 0, 70, 100
2, 22740, Note_on_c, 0, 70, 0
2, 22740, Note_on_c, 0, 72, 100
2, 22770, Note_on_c, 0, 72, 0
2, 22770, Note_on_c, 0, 74, 100
2, 22800, Note_on_c, 0, 74, 0
2, 22800, Note_on_c, 0, 67, 100
2, 22920, Note_on_c, 0, 67, 0
2, 22920, Note_on_c, 0, 66, 100
2, 23040, Note_on_c, 0, 66, 0
2, 23040, Note_on_c, 0, 67, 100
2, 23040, Note_on_c, 0, 62, 100
2, 23040, Note_on_c, 0, 58, 100
2, 23041, Poly_aftertouch_c, 0, 58, 0
2, 23579, Note_on_c, 0, 58, 0
2, 23579, Note_on_c, 0, 62, 0
2, 23579, Note_on_c, 0, 67, 0
2, 23579, End_track
3, 0, Start_track
3, 0, Control_c, 1, 0, 0
3, 0, Control_c, 1, 7, 100
3, 0, Control_c, 1, 10, 100
3, 0, Control_c, 1, 32, 0
3, 0, Program_c, 1, 16
3, 360, Note_on_c, 1, 55, 100
3, 720, Note_on_c, 1, 55, 0
3, 720, Note_on_c, 1, 53, 100
3, 1080, Note_on_c, 1, 53, 0
3, 1080, Note_on_c, 1, 51, 100
3, 1440, Note_on_c, 1, 51, 0
3, 1440, Note_on_c, 1, 50, 100
3, 1558, Note_on_c, 1, 50, 0
3, 1560, Note_on_c, 1, 62, 100
3, 1620, Note_on_c, 1, 62, 0
3, 1620, Note_on_c, 1, 60, 100
3, 1680, Note_on_c, 1, 60, 0
3, 1680, Note_on_c, 1, 58, 100
3, 1740, Note_on_c, 1, 58, 0
3, 1740, Note_on_c, 1, 57, 100
3, 1799, Note_on_c, 1, 57, 0
3, 1800, Note_on_c, 1, 58, 100
3, 1800, Note_on_c, 1, 55, 100
3, 2039, Note_on_c, 1, 55, 0
3, 2039, Note_on_c, 1, 58, 0
3, 2040, Note_on_c, 1, 57, 100
3, 2159, Note_on_c, 1, 57, 0
3, 2160, Note_on_c, 1, 58, 100
3, 2399, Note_on_c, 1, 58, 0
3, 2400, Note_on_c, 1, 55, 100
3, 2520, Note_on_c, 1, 55, 0
3, 2520, Note_on_c, 1, 57, 100
3, 2570, Note_on_c, 1, 57, 0
3, 2640, Note_on_c, 1, 54, 100
3, 2690, Note_on_c, 1, 54, 0
3, 2760, Note_on_c, 1, 55, 100
3, 2810, Note_on_c, 1, 55, 0
3, 2880, Note_on_c, 1, 50, 100
3, 2930, Note_on_c, 1, 50, 0
3, 3000, Note_on_c, 1, 62, 100
3, 3060, Note_on_c, 1, 62, 0
3, 3060, Note_on_c, 1, 60, 100
3, 3120, Note_on_c, 1, 60, 0
3, 3120, Note_on_c, 1, 58, 100
3, 3180, Note_on_c, 1, 58, 0
3, 3180, Note_on_c, 1, 57, 100
3, 3239, Note_on_c, 1, 57, 0
3, 3240, Note_on_c, 1, 55, 100
3, 3600, Note_on_c, 1, 55, 0
3, 3600, Note_on_c, 1, 53, 100
3, 3960, Note_on_c, 1, 53, 0
3, 3960, Note_on_c, 1, 51, 100
3, 4320, Note_on_c, 1, 51, 0
3, 4320, Note_on_c, 1, 50, 100
3, 4438, Note_on_c, 1, 50, 0
3, 4440, Note_on_c, 1, 62, 100
3, 4500, Note_on_c, 1, 62, 0
3, 4500, Note_on_c, 1, 60, 100
3, 4560, Note_on_c, 1, 60, 0
3, 4560, Note_on_c, 1, 59, 100
3, 4620, Note_on_c, 1, 59, 0
3, 4620, Note_on_c, 1, 57, 100
3, 4679, Note_on_c, 1, 57, 0
3, 4680, Note_on_c, 1, 62, 100
3, 4680, Note_on_c, 1, 59, 100
3, 4919, Note_on_c, 1, 59, 0
3, 4919, Note_on_c, 1, 62, 0
3, 4920, Note_on_c, 1, 55, 100
3, 5039, Note_on_c, 1, 55, 0
3, 5040, Note_on_c, 1, 60, 100
3, 5159, Note_on_c, 1, 60, 0
3, 5160, Note_on_c, 1, 57, 100
3, 5279, Note_on_c, 1, 57, 0
3, 5280, Note_on_c, 1, 53, 100
3, 5399, Note_on_c, 1, 53, 0
3, 5400, Note_on_c, 1, 58, 100
3, 5450, Note_on_c, 1, 58, 0
3, 5520, Note_on_c, 1, 51, 100
3, 5570, Note_on_c, 1, 51, 0
3, 5640, Note_on_c, 1, 57, 100
3, 5640, Note_on_c, 1, 53, 100
3, 5690, Note_on_c, 1, 53, 0
3, 5690, Note_on_c, 1, 57, 0
3, 5760, Note_on_c, 1, 58, 100
3, 5810, Note_on_c, 1, 58, 0
3, 5880, Note_on_c, 1, 46, 100
3, 6119, Note_on_c, 1, 46, 0
3, 6120, Note_on_c, 1, 55, 100
3, 6480, Note_on_c, 1, 55, 0
3, 6480, Note_on_c, 1, 53, 100
3, 6840, Note_on_c, 1, 53, 0
3, 6840, Note_on_c, 1, 51, 100
3, 7200, Note_on_c, 1, 51, 0
3, 7200, Note_on_c, 1, 50, 100
3, 7318, Note_on_c, 1, 50, 0
3, 7320, Note_on_c, 1, 62, 100
3, 7380, Note_on_c, 1, 62, 0
3, 7380, Note_on_c, 1, 60, 100
3, 7440, Note_on_c, 1, 60, 0
3, 7440, Note_on_c, 1, 58, 100
3, 7500, Note_on_c, 1, 58, 0
3, 7500, Note_on_c, 1, 57, 100
3, 7559, Note_on_c, 1, 57, 0
3, 7560, Note_on_c, 1, 58, 100
3, 7560, Note_on_c, 1, 55, 100
3, 7799, Note_on_c, 1, 55, 0
3, 7799, Note_on_c, 1, 58, 0
3, 7800, Note_on_c, 1, 57, 100
3, 7919, Note_on_c, 1, 57, 0
3, 7920, Note_on_c, 1, 58, 100
3, 8159, Note_on_c, 1, 58, 0
3, 8160, Note_on_c, 1, 55, 100
3, 8280, Note_on_c, 1, 55, 0
3, 8280, Note_on_c, 1, 57, 100
3, 8330, Note_on_c, 1, 57, 0
3, 8400, Note_on_c, 1, 54, 100
3, 8450, Note_on_c, 1, 54, 0
3, 8520, Note_on_c, 1, 55, 100
3, 8570, Note_on_c, 1, 55, 0
3, 8640, Note_on_c, 1, 50, 100
3, 8690, Note_on_c, 1, 50, 0
3, 8760, Note_on_c, 1, 62, 100
3, 8820, Note_on_c, 1, 62, 0
3, 8820, Note_on_c, 1, 60, 100
3, 8880, Note_on_c, 1, 60, 0
3, 8880, Note_on_c, 1, 58, 100
3, 8940, Note_on_c, 1, 58, 0
3, 8940, Note_on_c, 1, 57, 100
3, 8999, Note_on_c, 1, 57, 0
3, 9000, Note_on_c, 1, 55, 100
3, 9360, Note_on_c, 1, 55, 0
3, 9360, Note_on_c, 1, 53, 100
3, 9720, Note_on_c, 1, 53, 0
3, 9720, Note_on_c, 1, 51, 100
3, 10080, Note_on_c, 1, 51, 0
3, 10080, Note_on_c, 1, 50, 100
3, 10198, Note_on_c, 1, 50, 0
3, 10200, Note_on_c, 1, 62, 100
3, 10260, Note_on_c, 1, 62, 0
3, 10260, Note_on_c, 1, 60, 100
3, 10320, Note_on_c, 1, 60, 0
3, 10320, Note_on_c, 1, 59, 100
3, 10380, Note_on_c, 1, 59, 0
3, 10380, Note_on_c, 1, 57, 100
3, 10439, Note_on_c, 1, 57, 0
3, 10440, Note_on_c, 1, 62, 100
3, 10440, Note_on_c, 1, 59, 100
3, 10679, Note_on_c, 1, 59, 0
3, 10679, Note_on_c, 1, 62, 0
3, 10680, Note_on_c, 1, 55, 100
3, 10799, Note_on_c, 1, 55, 0
3, 10800, Note_on_c, 1, 60, 100
3, 10919, Note_on_c, 1, 60, 0
3, 10920, Note_on_c, 1, 57, 100
3, 11039, Note_on_c, 1, 57, 0
3, 11040, Note_on_c, 1, 53, 100
3, 11159, Note_on_c, 1, 53, 0
3, 11160, Note_on_c, 1, 58, 100
3, 11210, Note_on_c, 1, 58, 0
3, 11280, Note_on_c, 1, 51, 100
3, 11330, Note_on_c, 1, 51, 0
3, 11400, Note_on_c, 1, 57, 100
3, 11400, Note_on_c, 1, 53, 100
3, 11450, Note_on_c, 1, 53, 0
3, 11450, Note_on_c, 1, 57, 0
3, 11520, Note_on_c, 1, 58, 100
3, 11570, Note_on_c, 1, 58, 0
3, 11640, Note_on_c, 1, 46, 100
3, 11879, Note_on_c, 1, 46, 0
3, 11880, Note_on_c, 1, 58, 100
3, 12239, Note_on_c, 1, 58, 0
3, 12240, Note_on_c, 1, 57, 100
3, 12359, Note_on_c, 1, 57, 0
3, 12360, Note_on_c, 1, 55, 100
3, 12479, Note_on_c, 1, 55, 0
3, 12480, Note_on_c, 1, 53, 100
3, 12599, Note_on_c, 1, 53, 0
3, 12600, Note_on_c, 1, 55, 100
3, 12650, Note_on_c, 1, 55, 0
3, 12720, Note_on_c, 1, 52, 100
3, 12770, Note_on_c, 1, 52, 0
3, 12840, Note_on_c, 1, 48, 100
3, 12890, Note_on_c, 1, 48, 0
3, 12960, Note_on_c, 1, 53, 100
3, 13200, Poly_aftertouch_c, 1, 53, 0
3, 13319, Note_on_c, 1, 53, 0
3, 13320, Note_on_c, 1, 57, 100
3, 13440, Note_on_c, 1, 57, 0
3, 13440, Note_on_c, 1, 55, 100
3, 13560, Note_on_c, 1, 55, 0
3, 13560, Note_on_c, 1, 53, 100
3, 13680, Note_on_c, 1, 53, 0
3, 13680, Note_on_c, 1, 55, 100
3, 13798, Note_on_c, 1, 55, 0
3, 13800, Note_on_c, 1, 53, 100
3, 13919, Note_on_c, 1, 53, 0
3, 13920, Note_on_c, 1, 51, 100
3, 14039, Note_on_c, 1, 51, 0
3, 14040, Note_on_c, 1, 50, 100
3, 14159, Note_on_c, 1, 50, 0
3, 14160, Note_on_c, 1, 51, 100
3, 14279, Note_on_c, 1, 51, 0
3, 14280, Note_on_c, 1, 53, 100
3, 14399, Note_on_c, 1, 53, 0
3, 14400, Note_on_c, 1, 46, 100
3, 14450, Note_on_c, 1, 46, 0
3, 14520, Note_on_c, 1, 62, 100
3, 14639, Note_on_c, 1, 62, 0
3, 14640, Note_on_c, 1, 60, 100
3, 14759, Note_on_c, 1, 60, 0
3, 14760, Note_on_c, 1, 62, 100
3, 14760, Note_on_c, 1, 59, 100
3, 15119, Note_on_c, 1, 59, 0
3, 15119, Note_on_c, 1, 62, 0
3, 15120, Note_on_c, 1, 60, 100
3, 15479, Note_on_c, 1, 60, 0
3, 15480, Note_on_c, 1, 58, 100
3, 15600, Note_on_c, 1, 58, 0
3, 15600, Note_on_c, 1, 57, 100
3, 15720, Note_on_c, 1, 57, 0
3, 15720, Note_on_c, 1, 55, 100
3, 15840, Note_on_c, 1, 55, 0
3, 15840, Note_on_c, 1, 62, 100
3, 15958, Note_on_c, 1, 62, 0
3, 15960, Note_on_c, 1, 57, 100
3, 16020, Note_on_c, 1, 57, 0
3, 16020, Note_on_c, 1, 55, 100
3, 16080, Note_on_c, 1, 55, 0
3, 16080, Note_on_c, 1, 54, 100
3, 16140, Note_on_c, 1, 54, 0
3, 16140, Note_on_c, 1, 52, 100
3, 16200, Note_on_c, 1, 52, 0
3, 16200, Note_on_c, 1, 50, 100
3, 16439, Note_on_c, 1, 50, 0
3, 16440, Poly_aftertouch_c, 1, 50, 0
3, 16560, Note_on_c, 1, 51, 100
3, 16679, Note_on_c, 1, 51, 0
3, 16680, Note_on_c, 1, 50, 100
3, 16799, Note_on_c, 1, 50, 0
3, 16800, Note_on_c, 1, 48, 100
3, 16919, Note_on_c, 1, 48, 0
3, 16920, Note_on_c, 1, 46, 100
3, 17040, Note_on_c, 1, 46, 0
3, 17040, Note_on_c, 1, 48, 100
3, 17160, Note_on_c, 1, 48, 0
3, 17160, Note_on_c, 1, 50, 100
3, 17278, Note_on_c, 1, 50, 0
3, 17280, Note_on_c, 1, 55, 100
3, 17399, Note_on_c, 1, 55, 0
3, 17400, Note_on_c, 1, 43, 100
3, 17639, Note_on_c, 1, 43, 0
3, 17640, Note_on_c, 1, 58, 100
3, 17999, Note_on_c, 1, 58, 0
3, 18000, Note_on_c, 1, 57, 100
3, 18119, Note_on_c, 1, 57, 0
3, 18120, Note_on_c, 1, 55, 100
3, 18239, Note_on_c, 1, 55, 0
3, 18240, Note_on_c, 1, 53, 100
3, 18359, Note_on_c, 1, 53, 0
3, 18360, Note_on_c, 1, 55, 100
3, 18410, Note_on_c, 1, 55, 0
3, 18480, Note_on_c, 1, 52, 100
3, 18530, Note_on_c, 1, 52, 0
3, 18600, Note_on_c, 1, 48, 100
3, 18650, Note_on_c, 1, 48, 0
3, 18720, Note_on_c, 1, 53, 100
3, 18960, Poly_aftertouch_c, 1, 53, 0
3, 19079, Note_on_c, 1, 53, 0
3, 19080, Note_on_c, 1, 57, 100
3, 19200, Note_on_c, 1, 57, 0
3, 19200, Note_on_c, 1, 55, 100
3, 19320, Note_on_c, 1, 55, 0
3, 19320, Note_on_c, 1, 53, 100
3, 19440, Note_on_c, 1, 53, 0
3, 19440, Note_on_c, 1, 55, 100
3, 19558, Note_on_c, 1, 55, 0
3, 19560, Note_on_c, 1, 53, 100
3, 19679, Note_on_c, 1, 53, 0
3, 19680, Note_on_c, 1, 51, 100
3, 19799, Note_on_c, 1, 51, 0
3, 19800, Note_on_c, 1, 50, 100
3, 19919, Note_on_c, 1, 50, 0
3, 19920, Note_on_c, 1, 51, 100
3, 20039, Note_on_c, 1, 51, 0
3, 20040, Note_on_c, 1, 53, 100
3, 20159, Note_on_c, 1, 53, 0
3, 20160, Note_on_c, 1, 46, 100
3, 20210, Note_on_c, 1, 46, 0
3, 20280, Note_on_c, 1, 62, 100
3, 20399, Note_on_c, 1, 62, 0
3, 20400, Note_on_c, 1, 60, 100
3, 20519, Note_on_c, 1, 60, 0
3, 20520, Note_on_c, 1, 62, 100
3, 20520, Note_on_c, 1, 59, 100
3, 20879, Note_on_c, 1, 59, 0
3, 20879, Note_on_c, 1, 62, 0
3, 20880, Note_on_c, 1, 60, 100
3, 21239, Note_on_c, 1, 60, 0
3, 21240, Note_on_c, 1, 58, 100
3, 21360, Note_on_c, 1, 58, 0
3, 21360, Note_on_c, 1, 57, 100
3, 21480, Note_on_c, 1, 57, 0
3, 21480, Note_on_c, 1, 55, 100
3, 21600, Note_on_c, 1, 55, 0
3, 21600, Note_on_c, 1, 62, 100
3, 21718, Note_on_c, 1, 62, 0
3, 21720, Note_on_c, 1, 57, 100
3, 21780, Note_on_c, 1, 57, 0
3, 21780, Note_on_c, 1, 55, 100
3, 21840, Note_on_c, 1, 55, 0
3, 21840, Note_on_c, 1, 54, 100
3, 21900, Note_on_c, 1, 54, 0
3, 21900, Note_on_c, 1, 52, 100
3, 21960, Note_on_c, 1, 52, 0
3, 21960, Note_on_c, 1, 50, 100
3, 22199, Note_on_c, 1, 50, 0
3, 22200, Poly_aftertouch_c, 1, 50, 0
3, 22320, Note_on_c, 1, 51, 100
3, 22439, Note_on_c, 1, 51, 0
3, 22440, Note_on_c, 1, 50, 100
3, 22559, Note_on_c, 1, 50, 0
3, 22560, Note_on_c, 1, 48, 100
3, 22679, Note_on_c, 1, 48, 0
3, 22680, Note_on_c, 1, 46, 100
3, 22800, Note_on_c, 1, 46, 0
3, 22800, Note_on_c, 1, 48, 100
3, 22920, Note_on_c, 1, 48, 0
3, 22920, Note_on_c, 1, 50, 100
3, 23038, Note_on_c, 1, 50, 0
3, 23040, Note_on_c, 1, 55, 100
3, 23159, Note_on_c, 1, 55, 0
3, 23160, Note_on_c, 1, 43, 100
3, 23161, Poly_aftertouch_c, 1, 43, 0
3, 23519, Note_on_c, 1, 43, 0
3, 23519, End_track
4, 0, Start_track
4, 0, End_track
0, 0, End_of_file
