0, 0, Header, 1, 4, 240
1, 0, Start_track
1, 0, Title_t, "untitled"
1, 0, Time_signature, 3, 2, 24, 8
1, 0, Key_signature, 0, "major"
1, 0, Tempo, 600000
1, 30000, Tempo, 618557
1, 30240, Tempo, 638298
1, 30360, Tempo, 666667
1, 30480, Tempo, 689655
1, 30600, Tempo, 722892
1, 30720, Tempo, 800000
1, 30840, Tempo, 895522
1, 30960, Tempo, 1071429
1, 30960, End_track
2, 0, Start_track
2, 0, Title_t, "RH B"
2, 0, Program_c, 0, 0
2, 120, Note_on_c, 0, 68, 64
2, 180, Note_on_c, 0, 68, 0
2, 180, Note_on_c, 0, 67, 64
2, 240, Note_on_c, 0, 67, 0
2, 240, Note_on_c, 0, 68, 64
2, 360, Note_on_c, 0, 68, 0
2, 360, Note_on_c, 0, 72, 64
2, 480, Note_on_c, 0, 72, 0
2, 480, Note_on_c, 0, 63, 64
2, 600, Note_on_c, 0, 63, 0
2, 600, Note_on_c, 0, 68, 64
2, 720, Note_on_c, 0, 68, 0
2, 840, Note_on_c, 0, 70, 64
2, 900, Note_on_c, 0, 70, 0
2, 900, Note_on_c, 0, 68, 64
2, 960, Note_on_c, 0, 68, 0
2, 960, Note_on_c, 0, 70, 64
2, 1080, Note_on_c, 0, 70, 0
2, 1080, Note_on_c, 0, 73, 64
2, 1200, Note_on_c, 0, 73, 0
2, 1200, Note_on_c, 0, 63, 64
2, 1320, Note_on_c, 0, 63, 0
2, 1320, Note_on_c, 0, 70, 64
2, 1440, Note_on_c, 0, 70, 0
2, 1440, Note_on_c, 0, 72, 64
2, 1680, Note_on_c, 0, 72, 0
2, 1680, Note_on_c, 0, 72, 64
2, 1680, Note_on_c, 0, 75, 64
2, 1680, Note_on_c, 0, 80, 64
2, 1920, Note_on_c, 0, 80, 0
2, 1920, Note_on_c, 0, 75, 0
2, 1920, Note_on_c, 0, 72, 0
2, 2040, Note_on_c, 0, 72, 64
2, 2040, Note_on_c, 0, 75, 64
2, 2160, Note_on_c, 0, 75, 0
2, 2160, Note_on_c, 0, 72, 0
2, 2160, Note_on_c, 0, 73, 64
2, 2160, Note_on_c, 0, 70, 64
2, 2400, Note_on_c, 0, 70, 0
2, 2400, Note_on_c, 0, 73, 0
2, 2400, Note_on_c, 0, 79, 64
2, 2640, Note_on_c, 0, 79, 0
2, 2760, Note_on_c, 0, 70, 64
2, 2760, Note_on_c, 0, 73, 64
2, 2760, Note_on_c, 0, 79, 64
2, 2880, Note_on_c, 0, 79, 0
2, 2880, Note_on_c, 0, 73, 0
2, 2880, Note_on_c, 0, 70, 0
2, 2880, Note_on_c, 0, 80, 64
2, 2880, Note_on_c, 0, 68, 64
2, 2880, Note_on_c, 0, 75, 64
2, 3120, Note_on_c, 0, 75, 0
2, 3120, Note_on_c, 0, 68, 0
2, 3120, Note_on_c, 0, 80, 0
2, 3120, Note_on_c, 0, 75, 64
2, 3360, Note_on_c, 0, 75, 0
2, 3480, Note_on_c, 0, 70, 64
2, 3480, Note_on_c, 0, 75, 64
2, 3600, Note_on_c, 0, 75, 0
2, 3600, Note_on_c, 0, 70, 0
2, 3600, Note_on_c, 0, 56, 64
2, 3600, Note_on_c, 0, 75, 64
2, 3720, Note_on_c, 0, 75, 0
2, 3720, Note_on_c, 0, 80, 64
2, 3780, Note_on_c, 0, 80, 0
2, 3780, Note_on_c, 0, 79, 64
2, 3840, Note_on_c, 0, 79, 0
2, 3840, Note_on_c, 0, 56, 0
2, 3840, Note_on_c, 0, 80, 64
2, 3960, Note_on_c, 0, 80, 0
2, 3960, Note_on_c, 0, 77, 64
2, 4080, Note_on_c, 0, 77, 0
2, 4080, Note_on_c, 0, 73, 64
2, 4200, Note_on_c, 0, 73, 0
2, 4200, Note_on_c, 0, 75, 64
2, 4320, Note_on_c, 0, 75, 0
2, 4320, Note_on_c, 0, 73, 64
2, 4320, Note_on_c, 0, 70, 64
2, 4560, Note_on_c, 0, 70, 0
2, 4560, Note_on_c, 0, 73, 0
2, 4560, Note_on_c, 0, 80, 64
2, 4800, Note_on_c, 0, 80, 0
2, 4920, Note_on_c, 0, 73, 64
2, 5040, Note_on_c, 0, 73, 0
2, 5040, Note_on_c, 0, 55, 64
2, 5040, Note_on_c, 0, 73, 64
2, 5160, Note_on_c, 0, 73, 0
2, 5160, Note_on_c, 0, 82, 64
2, 5220, Note_on_c, 0, 82, 0
2, 5220, Note_on_c, 0, 80, 64
2, 5280, Note_on_c, 0, 80, 0
2, 5280, Note_on_c, 0, 55, 0
2, 5280, Note_on_c, 0, 82, 64
2, 5400, Note_on_c, 0, 82, 0
2, 5400, Note_on_c, 0, 79, 64
2, 5520, Note_on_c, 0, 79, 0
2, 5520, Note_on_c, 0, 73, 64
2, 5640, Note_on_c, 0, 73, 0
2, 5640, Note_on_c, 0, 73, 64
2, 5640, Note_on_c, 0, 67, 64
2, 5640, Note_on_c, 0, 82, 64
2, 5760, Note_on_c, 0, 82, 0
2, 5760, Note_on_c, 0, 67, 0
2, 5760, Note_on_c, 0, 73, 0
2, 5760, Note_on_c, 0, 72, 64
2, 5760, Note_on_c, 0, 68, 64
2, 6000, Note_on_c, 0, 68, 0
2, 6000, Note_on_c, 0, 72, 0
2, 6060, Note_on_c, 0, 75, 64
2, 6120, Note_on_c, 0, 75, 0
2, 6120, Note_on_c, 0, 77, 64
2, 6180, Note_on_c, 0, 77, 0
2, 6180, Note_on_c, 0, 79, 64
2, 6240, Note_on_c, 0, 79, 0
2, 6240, Note_on_c, 0, 80, 64
2, 6300, Note_on_c, 0, 80, 0
2, 6300, Note_on_c, 0, 77, 64
2, 6360, Note_on_c, 0, 77, 0
2, 6360, Note_on_c, 0, 74, 64
2, 6420, Note_on_c, 0, 74, 0
2, 6420, Note_on_c, 0, 77, 64
2, 6480, Note_on_c, 0, 77, 0
2, 6480, Note_on_c, 0, 70, 64
2, 6780, Note_on_c, 0, 70, 0
2, 6780, Note_on_c, 0, 74, 64
2, 6840, Note_on_c, 0, 74, 0
2, 6840, Note_on_c, 0, 75, 64
2, 6900, Note_on_c, 0, 75, 0
2, 6900, Note_on_c, 0, 77, 64
2, 6960, Note_on_c, 0, 77, 0
2, 6960, Note_on_c, 0, 79, 64
2, 7020, Note_on_c, 0, 79, 0
2, 7020, Note_on_c, 0, 75, 64
2, 7080, Note_on_c, 0, 75, 0
2, 7080, Note_on_c, 0, 72, 64
2, 7140, Note_on_c, 0, 72, 0
2, 7140, Note_on_c, 0, 75, 64
2, 7200, Note_on_c, 0, 75, 0
2, 7200, Note_on_c, 0, 68, 64
2, 7260, Note_on_c, 0, 68, 0
2, 7260, Note_on_c, 0, 70, 64
2, 7320, Note_on_c, 0, 70, 0
2, 7320, Note_on_c, 0, 67, 64
2, 7380, Note_on_c, 0, 67, 0
2, 7380, Note_on_c, 0, 70, 64
2, 7440, Note_on_c, 0, 70, 0
2, 7440, Note_on_c, 0, 68, 64
2, 7500, Note_on_c, 0, 68, 0
2, 7500, Note_on_c, 0, 72, 64
2, 7560, Note_on_c, 0, 72, 0
2, 7560, Note_on_c, 0, 74, 64
2, 7620, Note_on_c, 0, 74, 0
2, 7620, Note_on_c, 0, 75, 64
2, 7680, Note_on_c, 0, 75, 0
2, 7680, Note_on_c, 0, 77, 64
2, 7740, Note_on_c, 0, 77, 0
2, 7740, Note_on_c, 0, 74, 64
2, 7800, Note_on_c, 0, 74, 0
2, 7800, Note_on_c, 0, 70, 64
2, 7860, Note_on_c, 0, 70, 0
2, 7860, Note_on_c, 0, 74, 64
2, 7920, Note_on_c, 0, 74, 0
2, 7920, Note_on_c, 0, 67, 64
2, 7980, Note_on_c, 0, 67, 0
2, 7980, Note_on_c, 0, 68, 64
2, 8040, Note_on_c, 0, 68, 0
2, 8040, Note_on_c, 0, 65, 64
2, 8100, Note_on_c, 0, 65, 0
2, 8100, Note_on_c, 0, 68, 64
2, 8160, Note_on_c, 0, 68, 0
2, 8160, Note_on_c, 0, 67, 64
2, 8220, Note_on_c, 0, 67, 0
2, 8220, Note_on_c, 0, 70, 64
2, 8280, Note_on_c, 0, 70, 0
2, 8280, Note_on_c, 0, 72, 64
2, 8340, Note_on_c, 0, 72, 0
2, 8340, Note_on_c, 0, 74, 64
2, 8400, Note_on_c, 0, 74, 0
2, 8400, Note_on_c, 0, 75, 64
2, 8460, Note_on_c, 0, 75, 0
2, 8460, Note_on_c, 0, 72, 64
2, 8520, Note_on_c, 0, 72, 0
2, 8520, Note_on_c, 0, 68, 64
2, 8580, Note_on_c, 0, 68, 0
2, 8580, Note_on_c, 0, 72, 64
2, 8640, Note_on_c, 0, 72, 0
2, 8640, Note_on_c, 0, 65, 64
2, 8700, Note_on_c, 0, 65, 0
2, 8700, Note_on_c, 0, 75, 64
2, 8760, Note_on_c, 0, 75, 0
2, 8760, Note_on_c, 0, 74, 64
2, 8820, Note_on_c, 0, 74, 0
2, 8820, Note_on_c, 0, 75, 64
2, 8880, Note_on_c, 0, 75, 0
2, 8880, Note_on_c, 0, 68, 64
2, 8940, Note_on_c, 0, 68, 0
2, 8940, Note_on_c, 0, 75, 64
2, 9000, Note_on_c, 0, 75, 0
2, 9000, Note_on_c, 0, 74, 64
2, 9060, Note_on_c, 0, 74, 0
2, 9060, Note_on_c, 0, 75, 64
2, 9120, Note_on_c, 0, 75, 0
2, 9120, Note_on_c, 0, 65, 64
2, 9180, Note_on_c, 0, 65, 0
2, 9180, Note_on_c, 0, 75, 64
2, 9240, Note_on_c, 0, 75, 0
2, 9240, Note_on_c, 0, 74, 64
2, 9300, Note_on_c, 0, 74, 0
2, 9300, Note_on_c, 0, 75, 64
2, 9360, Note_on_c, 0, 75, 0
2, 9360, Note_on_c, 0, 67, 64
2, 9420, Note_on_c, 0, 67, 0
2, 9420, Note_on_c, 0, 75, 64
2, 9480, Note_on_c, 0, 75, 0
2, 9480, Note_on_c, 0, 74, 64
2, 9540, Note_on_c, 0, 74, 0
2, 9540, Note_on_c, 0, 75, 64
2, 9600, Note_on_c, 0, 75, 0
2, 9600, Note_on_c, 0, 70, 64
2, 9660, Note_on_c, 0, 70, 0
2, 9660, Note_on_c, 0, 75, 64
2, 9720, Note_on_c, 0, 75, 0
2, 9720, Note_on_c, 0, 74, 64
2, 9780, Note_on_c, 0, 74, 0
2, 9780, Note_on_c, 0, 75, 64
2, 9840, Note_on_c, 0, 75, 0
2, 9840, Note_on_c, 0, 67, 64
2, 9900, Note_on_c, 0, 67, 0
2, 9900, Note_on_c, 0, 75, 64
2, 9960, Note_on_c, 0, 75, 0
2, 9960, Note_on_c, 0, 74, 64
2, 10020, Note_on_c, 0, 74, 0
2, 10020, Note_on_c, 0, 75, 64
2, 10080, Note_on_c, 0, 75, 0
2, 10080, Note_on_c, 0, 68, 64
2, 10140, Note_on_c, 0, 68, 0
2, 10140, Note_on_c, 0, 75, 64
2, 10200, Note_on_c, 0, 75, 0
2, 10200, Note_on_c, 0, 73, 64
2, 10260, Note_on_c, 0, 73, 0
2, 10260, Note_on_c, 0, 75, 64
2, 10320, Note_on_c, 0, 75, 0
2, 10320, Note_on_c, 0, 72, 64
2, 10380, Note_on_c, 0, 72, 0
2, 10380, Note_on_c, 0, 75, 64
2, 10440, Note_on_c, 0, 75, 0
2, 10440, Note_on_c, 0, 70, 64
2, 10500, Note_on_c, 0, 70, 0
2, 10500, Note_on_c, 0, 75, 64
2, 10560, Note_on_c, 0, 75, 0
2, 10560, Note_on_c, 0, 68, 64
2, 10620, Note_on_c, 0, 68, 0
2, 10620, Note_on_c, 0, 75, 64
2, 10680, Note_on_c, 0, 75, 0
2, 10680, Note_on_c, 0, 67, 64
2, 10740, Note_on_c, 0, 67, 0
2, 10740, Note_on_c, 0, 75, 64
2, 10800, Note_on_c, 0, 75, 0
2, 10800, Note_on_c, 0, 65, 64
2, 10860, Note_on_c, 0, 65, 0
2, 10860, Note_on_c, 0, 75, 64
2, 10920, Note_on_c, 0, 75, 0
2, 10920, Note_on_c, 0, 67, 64
2, 10980, Note_on_c, 0, 67, 0
2, 10980, Note_on_c, 0, 75, 64
2, 11040, Note_on_c, 0, 75, 0
2, 11040, Note_on_c, 0, 68, 64
2, 11100, Note_on_c, 0, 68, 0
2, 11100, Note_on_c, 0, 74, 64
2, 11160, Note_on_c, 0, 74, 0
2, 11160, Note_on_c, 0, 75, 64
2, 11220, Note_on_c, 0, 75, 0
2, 11220, Note_on_c, 0, 77, 64
2, 11280, Note_on_c, 0, 77, 0
2, 11280, Note_on_c, 0, 67, 64
2, 11340, Note_on_c, 0, 67, 0
2, 11340, Note_on_c, 0, 70, 64
2, 11400, Note_on_c, 0, 70, 0
2, 11400, Note_on_c, 0, 68, 64
2, 11460, Note_on_c, 0, 68, 0
2, 11460, Note_on_c, 0, 72, 64
2, 11520, Note_on_c, 0, 72, 0
2, 11520, Note_on_c, 0, 70, 64
2, 11580, Note_on_c, 0, 70, 0
2, 11580, Note_on_c, 0, 75, 64
2, 11640, Note_on_c, 0, 75, 0
2, 11640, Note_on_c, 0, 74, 64
2, 11700, Note_on_c, 0, 74, 0
2, 11700, Note_on_c, 0, 72, 64
2, 11760, Note_on_c, 0, 72, 0
2, 11760, Note_on_c, 0, 70, 64
2, 11820, Note_on_c, 0, 70, 0
2, 11820, Note_on_c, 0, 68, 64
2, 11880, Note_on_c, 0, 68, 0
2, 11880, Note_on_c, 0, 70, 64
2, 11940, Note_on_c, 0, 70, 0
2, 11940, Note_on_c, 0, 72, 64
2, 12000, Note_on_c, 0, 72, 0
2, 12000, Note_on_c, 0, 67, 72
2, 12000, Note_on_c, 0, 62, 64
2, 12020, Note_on_c, 0, 67, 0
2, 12020, Note_on_c, 0, 65, 53
2, 12040, Note_on_c, 0, 65, 0
2, 12040, Note_on_c, 0, 67, 56
2, 12060, Note_on_c, 0, 67, 0
2, 12060, Note_on_c, 0, 65, 60
2, 12080, Note_on_c, 0, 65, 0
2, 12080, Note_on_c, 0, 67, 88
2, 12100, Note_on_c, 0, 67, 0
2, 12100, Note_on_c, 0, 65, 86
2, 12180, Note_on_c, 0, 65, 0
2, 12180, Note_on_c, 0, 63, 64
2, 12230, Note_on_c, 0, 63, 0
2, 12230, Note_on_c, 0, 62, 0
2, 12240, Note_on_c, 0, 63, 64
2, 12480, Note_on_c, 0, 63, 0
2, 12480, Note_on_c, 0, 70, 64
2, 12480, Note_on_c, 0, 67, 64
2, 12480, Note_on_c, 0, 75, 64
2, 12720, Note_on_c, 0, 75, 0
2, 12720, Note_on_c, 0, 67, 0
2, 12720, Note_on_c, 0, 70, 0
2, 12840, Note_on_c, 0, 70, 64
2, 12840, Note_on_c, 0, 67, 64
2, 12960, Note_on_c, 0, 67, 0
2, 12960, Note_on_c, 0, 70, 0
2, 12960, Note_on_c, 0, 65, 64
2, 12960, Note_on_c, 0, 68, 64
2, 13200, Note_on_c, 0, 68, 0
2, 13200, Note_on_c, 0, 65, 0
2, 13200, Note_on_c, 0, 74, 64
2, 13440, Note_on_c, 0, 74, 0
2, 13560, Note_on_c, 0, 65, 64
2, 13560, Note_on_c, 0, 68, 64
2, 13560, Note_on_c, 0, 74, 64
2, 13680, Note_on_c, 0, 74, 0
2, 13680, Note_on_c, 0, 68, 0
2, 13680, Note_on_c, 0, 65, 0
2, 13680, Note_on_c, 0, 63, 64
2, 13680, Note_on_c, 0, 70, 64
2, 13680, Note_on_c, 0, 75, 64
2, 13680, Note_on_c, 0, 67, 64
2, 13800, Note_on_c, 0, 67, 0
2, 13800, Note_on_c, 0, 63, 0
2, 13800, Note_on_c, 0, 70, 0
2, 13800, Note_on_c, 0, 75, 0
2, 13800, Note_on_c, 0, 63, 64
2, 13860, Note_on_c, 0, 63, 0
2, 13860, Note_on_c, 0, 62, 64
2, 13920, Note_on_c, 0, 62, 0
2, 13920, Note_on_c, 0, 63, 64
2, 14040, Note_on_c, 0, 63, 0
2, 14040, Note_on_c, 0, 67, 64
2, 14160, Note_on_c, 0, 67, 0
2, 14160, Note_on_c, 0, 58, 64
2, 14280, Note_on_c, 0, 58, 0
2, 14280, Note_on_c, 0, 63, 64
2, 14400, Note_on_c, 0, 63, 0
2, 14520, Note_on_c, 0, 65, 64
2, 14580, Note_on_c, 0, 65, 0
2, 14580, Note_on_c, 0, 63, 64
2, 14640, Note_on_c, 0, 63, 0
2, 14640, Note_on_c, 0, 65, 64
2, 14760, Note_on_c, 0, 65, 0
2, 14760, Note_on_c, 0, 68, 64
2, 14880, Note_on_c, 0, 68, 0
2, 14880, Note_on_c, 0, 58, 64
2, 15000, Note_on_c, 0, 58, 0
2, 15000, Note_on_c, 0, 65, 64
2, 15120, Note_on_c, 0, 65, 0
2, 15120, Note_on_c, 0, 67, 64
2, 15240, Note_on_c, 0, 67, 0
2, 15240, Note_on_c, 0, 70, 64
2, 15300, Note_on_c, 0, 70, 0
2, 15300, Note_on_c, 0, 68, 64
2, 15360, Note_on_c, 0, 68, 0
2, 15360, Note_on_c, 0, 70, 64
2, 15480, Note_on_c, 0, 70, 0
2, 15480, Note_on_c, 0, 75, 64
2, 15600, Note_on_c, 0, 75, 0
2, 15600, Note_on_c, 0, 67, 64
2, 15720, Note_on_c, 0, 67, 0
2, 15720, Note_on_c, 0, 70, 64
2, 15840, Note_on_c, 0, 70, 0
2, 15840, Note_on_c, 0, 63, 64
2, 15960, Note_on_c, 0, 63, 0
2, 15960, Note_on_c, 0, 67, 64
2, 16020, Note_on_c, 0, 67, 0
2, 16020, Note_on_c, 0, 65, 64
2, 16080, Note_on_c, 0, 65, 0
2, 16080, Note_on_c, 0, 67, 64
2, 16200, Note_on_c, 0, 67, 0
2, 16200, Note_on_c, 0, 70, 64
2, 16320, Note_on_c, 0, 70, 0
2, 16320, Note_on_c, 0, 63, 64
2, 16440, Note_on_c, 0, 63, 0
2, 16440, Note_on_c, 0, 67, 64
2, 16560, Note_on_c, 0, 67, 0
2, 16560, Note_on_c, 0, 60, 64
2, 16680, Note_on_c, 0, 60, 0
2, 16920, Note_on_c, 0, 78, 64
2, 16980, Note_on_c, 0, 78, 0
2, 16980, Note_on_c, 0, 77, 64
2, 17040, Note_on_c, 0, 77, 0
2, 17040, Note_on_c, 0, 75, 64
2, 17100, Note_on_c, 0, 75, 0
2, 17100, Note_on_c, 0, 77, 64
2, 17160, Note_on_c, 0, 77, 0
2, 17160, Note_on_c, 0, 73, 64
2, 17220, Note_on_c, 0, 73, 0
2, 17220, Note_on_c, 0, 75, 64
2, 17280, Note_on_c, 0, 75, 0
2, 17280, Note_on_c, 0, 72, 64
2, 17340, Note_on_c, 0, 72, 0
2, 17340, Note_on_c, 0, 73, 64
2, 17400, Note_on_c, 0, 73, 0
2, 17400, Note_on_c, 0, 70, 64
2, 17460, Note_on_c, 0, 70, 0
2, 17460, Note_on_c, 0, 72, 64
2, 17520, Note_on_c, 0, 72, 0
2, 17520, Note_on_c, 0, 68, 64
2, 17580, Note_on_c, 0, 68, 0
2, 17580, Note_on_c, 0, 70, 64
2, 17640, Note_on_c, 0, 70, 0
2, 17640, Note_on_c, 0, 66, 64
2, 17700, Note_on_c, 0, 66, 0
2, 17700, Note_on_c, 0, 68, 64
2, 17760, Note_on_c, 0, 68, 0
2, 17760, Note_on_c, 0, 65, 64
2, 17820, Note_on_c, 0, 65, 0
2, 17820, Note_on_c, 0, 66, 64
2, 17880, Note_on_c, 0, 66, 0
2, 17880, Note_on_c, 0, 63, 64
2, 17940, Note_on_c, 0, 63, 0
2, 17940, Note_on_c, 0, 65, 64
2, 18000, Note_on_c, 0, 65, 0
2, 18000, Note_on_c, 0, 61, 64
2, 18120, Note_on_c, 0, 61, 0
2, 18120, Note_on_c, 0, 73, 64
2, 18180, Note_on_c, 0, 73, 0
2, 18180, Note_on_c, 0, 72, 64
2, 18240, Note_on_c, 0, 72, 0
2, 18240, Note_on_c, 0, 73, 64
2, 18360, Note_on_c, 0, 73, 0
2, 18360, Note_on_c, 0, 77, 64
2, 18480, Note_on_c, 0, 77, 0
2, 18480, Note_on_c, 0, 70, 64
2, 18600, Note_on_c, 0, 70, 0
2, 18600, Note_on_c, 0, 73, 64
2, 18720, Note_on_c, 0, 73, 0
2, 18720, Note_on_c, 0, 67, 64
2, 18840, Note_on_c, 0, 67, 0
2, 18840, Note_on_c, 0, 72, 64
2, 18900, Note_on_c, 0, 72, 0
2, 18900, Note_on_c, 0, 70, 64
2, 18960, Note_on_c, 0, 70, 0
2, 18960, Note_on_c, 0, 72, 64
2, 19080, Note_on_c, 0, 72, 0
2, 19080, Note_on_c, 0, 75, 64
2, 19200, Note_on_c, 0, 75, 0
2, 19200, Note_on_c, 0, 68, 64
2, 19320, Note_on_c, 0, 68, 0
2, 19320, Note_on_c, 0, 72, 64
2, 19440, Note_on_c, 0, 72, 0
2, 19440, Note_on_c, 0, 65, 64
2, 19560, Note_on_c, 0, 65, 0
2, 19560, Note_on_c, 0, 70, 64
2, 19620, Note_on_c, 0, 70, 0
2, 19620, Note_on_c, 0, 68, 64
2, 19680, Note_on_c, 0, 68, 0
2, 19680, Note_on_c, 0, 70, 64
2, 19800, Note_on_c, 0, 70, 0
2, 19800, Note_on_c, 0, 73, 64
2, 19920, Note_on_c, 0, 73, 0
2, 19920, Note_on_c, 0, 67, 64
2, 20040, Note_on_c, 0, 67, 0
2, 20040, Note_on_c, 0, 70, 64
2, 20160, Note_on_c, 0, 70, 0
2, 20160, Note_on_c, 0, 63, 64
2, 20280, Note_on_c, 0, 63, 0
2, 20280, Note_on_c, 0, 68, 64
2, 20340, Note_on_c, 0, 68, 0
2, 20340, Note_on_c, 0, 67, 64
2, 20400, Note_on_c, 0, 67, 0
2, 20400, Note_on_c, 0, 68, 64
2, 20520, Note_on_c, 0, 68, 0
2, 20520, Note_on_c, 0, 72, 64
2, 20640, Note_on_c, 0, 72, 0
2, 20640, Note_on_c, 0, 65, 64
2, 20760, Note_on_c, 0, 65, 0
2, 20760, Note_on_c, 0, 68, 64
2, 20880, Note_on_c, 0, 68, 0
2, 20880, Note_on_c, 0, 61, 64
2, 21000, Note_on_c, 0, 61, 0
2, 21000, Note_on_c, 0, 70, 64
2, 21060, Note_on_c, 0, 70, 0
2, 21060, Note_on_c, 0, 68, 64
2, 21120, Note_on_c, 0, 68, 0
2, 21120, Note_on_c, 0, 70, 64
2, 21240, Note_on_c, 0, 70, 0
2, 21240, Note_on_c, 0, 73, 64
2, 21360, Note_on_c, 0, 73, 0
2, 21360, Note_on_c, 0, 67, 64
2, 21480, Note_on_c, 0, 67, 0
2, 21480, Note_on_c, 0, 70, 64
2, 21600, Note_on_c, 0, 70, 0
2, 21600, Note_on_c, 0, 63, 64
2, 21720, Note_on_c, 0, 63, 0
2, 21720, Note_on_c, 0, 72, 64
2, 21780, Note_on_c, 0, 72, 0
2, 21780, Note_on_c, 0, 70, 64
2, 21840, Note_on_c, 0, 70, 0
2, 21840, Note_on_c, 0, 72, 64
2, 21960, Note_on_c, 0, 72, 0
2, 21960, Note_on_c, 0, 75, 64
2, 22080, Note_on_c, 0, 75, 0
2, 22080, Note_on_c, 0, 68, 64
2, 22200, Note_on_c, 0, 68, 0
2, 22200, Note_on_c, 0, 72, 64
2, 22320, Note_on_c, 0, 72, 0
2, 22320, Note_on_c, 0, 65, 64
2, 22440, Note_on_c, 0, 65, 0
2, 22440, Note_on_c, 0, 73, 64
2, 22500, Note_on_c, 0, 73, 0
2, 22500, Note_on_c, 0, 72, 64
2, 22560, Note_on_c, 0, 72, 0
2, 22560, Note_on_c, 0, 73, 64
2, 22680, Note_on_c, 0, 73, 0
2, 22680, Note_on_c, 0, 77, 64
2, 22800, Note_on_c, 0, 77, 0
2, 22800, Note_on_c, 0, 70, 64
2, 22920, Note_on_c, 0, 70, 0
2, 22920, Note_on_c, 0, 73, 64
2, 23040, Note_on_c, 0, 73, 0
2, 23040, Note_on_c, 0, 67, 64
2, 23160, Note_on_c, 0, 67, 0
2, 23160, Note_on_c, 0, 70, 64
2, 23280, Note_on_c, 0, 70, 0
2, 23280, Note_on_c, 0, 63, 64
2, 23400, Note_on_c, 0, 63, 0
2, 23400, Note_on_c, 0, 67, 64
2, 23520, Note_on_c, 0, 67, 0
2, 23520, Note_on_c, 0, 68, 64
2, 23820, Note_on_c, 0, 68, 0
2, 23820, Note_on_c, 0, 67, 64
2, 23880, Note_on_c, 0, 67, 0
2, 23880, Note_on_c, 0, 68, 64
2, 23940, Note_on_c, 0, 68, 0
2, 23940, Note_on_c, 0, 70, 64
2, 23990, Note_on_c, 0, 70, 0
2, 24000, Note_on_c, 0, 72, 72
2, 24000, Note_on_c, 0, 67, 64
2, 24020, Note_on_c, 0, 72, 0
2, 24020, Note_on_c, 0, 70, 52
2, 24040, Note_on_c, 0, 70, 0
2, 24040, Note_on_c, 0, 72, 54
2, 24060, Note_on_c, 0, 72, 0
2, 24060, Note_on_c, 0, 70, 56
2, 24080, Note_on_c, 0, 70, 0
2, 24080, Note_on_c, 0, 72, 58
2, 24100, Note_on_c, 0, 72, 0
2, 24100, Note_on_c, 0, 70, 60
2, 24360, Note_on_c, 0, 70, 0
2, 24360, Note_on_c, 0, 68, 64
2, 24470, Note_on_c, 0, 68, 0
2, 24470, Note_on_c, 0, 67, 0
2, 24480, Note_on_c, 0, 68, 64
2, 24600, Note_on_c, 0, 75, 64
2, 24660, Note_on_c, 0, 75, 0
2, 24660, Note_on_c, 0, 73, 64
2, 24720, Note_on_c, 0, 73, 0
2, 24720, Note_on_c, 0, 68, 0
2, 24720, Note_on_c, 0, 75, 64
2, 24840, Note_on_c, 0, 75, 0
2, 24840, Note_on_c, 0, 72, 64
2, 24960, Note_on_c, 0, 72, 0
2, 24960, Note_on_c, 0, 67, 64
2, 25080, Note_on_c, 0, 67, 0
2, 25080, Note_on_c, 0, 70, 64
2, 25180, Note_on_c, 0, 70, 0
2, 25200, Note_on_c, 0, 70, 72
2, 25220, Note_on_c, 0, 70, 0
2, 25220, Note_on_c, 0, 68, 51
2, 25240, Note_on_c, 0, 68, 0
2, 25240, Note_on_c, 0, 70, 53
2, 25260, Note_on_c, 0, 70, 0
2, 25260, Note_on_c, 0, 68, 55
2, 25280, Note_on_c, 0, 68, 0
2, 25280, Note_on_c, 0, 70, 57
2, 25300, Note_on_c, 0, 70, 0
2, 25300, Note_on_c, 0, 68, 60
2, 25440, Note_on_c, 0, 68, 0
2, 25440, Note_on_c, 0, 75, 64
2, 25740, Note_on_c, 0, 75, 0
2, 25740, Note_on_c, 0, 66, 64
2, 25800, Note_on_c, 0, 66, 0
2, 25800, Note_on_c, 0, 65, 64
2, 25860, Note_on_c, 0, 65, 0
2, 25860, Note_on_c, 0, 63, 64
2, 25920, Note_on_c, 0, 63, 0
2, 25920, Note_on_c, 0, 61, 64
2, 26040, Note_on_c, 0, 61, 0
2, 26040, Note_on_c, 0, 73, 64
2, 26100, Note_on_c, 0, 73, 0
2, 26100, Note_on_c, 0, 72, 64
2, 26160, Note_on_c, 0, 72, 0
2, 26160, Note_on_c, 0, 73, 64
2, 26280, Note_on_c, 0, 73, 0
2, 26280, Note_on_c, 0, 70, 64
2, 26400, Note_on_c, 0, 70, 0
2, 26400, Note_on_c, 0, 65, 64
2, 26520, Note_on_c, 0, 65, 0
2, 26520, Note_on_c, 0, 68, 64
2, 26640, Note_on_c, 0, 68, 0
2, 26640, Note_on_c, 0, 68, 72
2, 26660, Note_on_c, 0, 68, 0
2, 26660, Note_on_c, 0, 67, 51
2, 26680, Note_on_c, 0, 67, 0
2, 26680, Note_on_c, 0, 68, 53
2, 26700, Note_on_c, 0, 68, 0
2, 26700, Note_on_c, 0, 67, 55
2, 26720, Note_on_c, 0, 67, 0
2, 26720, Note_on_c, 0, 68, 57
2, 26740, Note_on_c, 0, 68, 0
2, 26740, Note_on_c, 0, 67, 60
2, 26880, Note_on_c, 0, 67, 0
2, 26880, Note_on_c, 0, 73, 64
2, 27180, Note_on_c, 0, 73, 0
2, 27180, Note_on_c, 0, 65, 64
2, 27240, Note_on_c, 0, 65, 0
2, 27240, Note_on_c, 0, 63, 64
2, 27300, Note_on_c, 0, 63, 0
2, 27300, Note_on_c, 0, 61, 64
2, 27360, Note_on_c, 0, 61, 0
2, 27360, Note_on_c, 0, 60, 64
2, 27420, Note_on_c, 0, 60, 0
2, 27420, Note_on_c, 0, 72, 64
2, 27480, Note_on_c, 0, 72, 0
2, 27480, Note_on_c, 0, 70, 64
2, 27540, Note_on_c, 0, 70, 0
2, 27540, Note_on_c, 0, 72, 64
2, 27600, Note_on_c, 0, 72, 0
2, 27600, Note_on_c, 0, 68, 64
2, 27660, Note_on_c, 0, 68, 0
2, 27660, Note_on_c, 0, 72, 64
2, 27720, Note_on_c, 0, 72, 0
2, 27720, Note_on_c, 0, 67, 64
2, 27780, Note_on_c, 0, 67, 0
2, 27780, Note_on_c, 0, 72, 64
2, 27840, Note_on_c, 0, 72, 0
2, 27840, Note_on_c, 0, 65, 64
2, 27900, Note_on_c, 0, 65, 0
2, 27900, Note_on_c, 0, 72, 64
2, 27960, Note_on_c, 0, 72, 0
2, 27960, Note_on_c, 0, 63, 64
2, 28020, Note_on_c, 0, 63, 0
2, 28020, Note_on_c, 0, 72, 64
2, 28080, Note_on_c, 0, 72, 0
2, 28080, Note_on_c, 0, 61, 64
2, 28140, Note_on_c, 0, 61, 0
2, 28140, Note_on_c, 0, 73, 64
2, 28200, Note_on_c, 0, 73, 0
2, 28200, Note_on_c, 0, 72, 64
2, 28260, Note_on_c, 0, 72, 0
2, 28260, Note_on_c, 0, 73, 64
2, 28320, Note_on_c, 0, 73, 0
2, 28320, Note_on_c, 0, 70, 64
2, 28380, Note_on_c, 0, 70, 0
2, 28380, Note_on_c, 0, 73, 64
2, 28440, Note_on_c, 0, 73, 0
2, 28440, Note_on_c, 0, 68, 64
2, 28500, Note_on_c, 0, 68, 0
2, 28500, Note_on_c, 0, 73, 64
2, 28560, Note_on_c, 0, 73, 0
2, 28560, Note_on_c, 0, 67, 64
2, 28620, Note_on_c, 0, 67, 0
2, 28620, Note_on_c, 0, 73, 64
2, 28680, Note_on_c, 0, 73, 0
2, 28680, Note_on_c, 0, 65, 64
2, 28740, Note_on_c, 0, 65, 0
2, 28740, Note_on_c, 0, 73, 64
2, 28800, Note_on_c, 0, 73, 0
2, 28800, Note_on_c, 0, 63, 64
2, 28920, Note_on_c, 0, 63, 0
2, 28920, Note_on_c, 0, 68, 69
2, 28940, Note_on_c, 0, 68, 0
2, 28940, Note_on_c, 0, 70, 50
2, 28960, Note_on_c, 0, 70, 0
2, 28960, Note_on_c, 0, 68, 58
2, 28980, Note_on_c, 0, 68, 0
2, 28980, Note_on_c, 0, 67, 64
2, 29040, Note_on_c, 0, 67, 0
2, 29040, Note_on_c, 0, 68, 64
2, 29160, Note_on_c, 0, 68, 0
2, 29160, Note_on_c, 0, 72, 64
2, 29280, Note_on_c, 0, 72, 0
2, 29280, Note_on_c, 0, 65, 64
2, 29400, Note_on_c, 0, 65, 0
2, 29400, Note_on_c, 0, 68, 64
2, 29520, Note_on_c, 0, 68, 0
2, 29520, Note_on_c, 0, 73, 64
2, 29640, Note_on_c, 0, 73, 0
2, 29640, Note_on_c, 0, 67, 69
2, 29660, Note_on_c, 0, 67, 0
2, 29660, Note_on_c, 0, 68, 50
2, 29680, Note_on_c, 0, 68, 0
2, 29680, Note_on_c, 0, 67, 58
2, 29700, Note_on_c, 0, 67, 0
2, 29700, Note_on_c, 0, 65, 64
2, 29760, Note_on_c, 0, 65, 0
2, 29760, Note_on_c, 0, 67, 64
2, 29880, Note_on_c, 0, 67, 0
2, 29880, Note_on_c, 0, 70, 64
2, 30000, Note_on_c, 0, 70, 0
2, 30000, Note_on_c, 0, 63, 64
2, 30120, Note_on_c, 0, 63, 0
2, 30120, Note_on_c, 0, 67, 64
2, 30240, Note_on_c, 0, 67, 0
2, 30240, Note_on_c, 0, 72, 64
2, 30360, Note_on_c, 0, 72, 0
2, 30360, Note_on_c, 0, 65, 64
2, 30360, Note_on_c, 0, 61, 64
2, 30360, Note_on_c, 0, 68, 64
2, 30480, Note_on_c, 0, 68, 0
2, 30480, Note_on_c, 0, 61, 0
2, 30480, Note_on_c, 0, 65, 0
2, 30480, Note_on_c, 0, 63, 64
2, 30480, Note_on_c, 0, 58, 64
2, 30480, Note_on_c, 0, 68, 64
2, 30720, Note_on_c, 0, 68, 0
2, 30720, Note_on_c, 0, 67, 64
2, 30960, Note_on_c, 0, 67, 0
2, 30960, Note_on_c, 0, 58, 0
2, 30960, Note_on_c, 0, 63, 0
2, 30960, Note_on_c, 0, 60, 64
2, 30960, Note_on_c, 0, 68, 64
2, 30960, Note_on_c, 0, 63, 64
2, 31680, Note_on_c, 0, 63, 0
2, 31680, Note_on_c, 0, 68, 0
2, 31680, Note_on_c, 0, 60, 0
2, 31680, End_track
3, 0, Start_track
3, 0, Title_t, "LH B"
3, 0, Program_c, 1, 0
3, 0, Note_on_c, 1, 56, 64
3, 0, Note_on_c, 1, 63, 64
3, 0, Note_on_c, 1, 60, 64
3, 240, Note_on_c, 1, 60, 0
3, 240, Note_on_c, 1, 63, 0
3, 240, Note_on_c, 1, 56, 0
3, 720, Note_on_c, 1, 63, 64
3, 720, Note_on_c, 1, 58, 64
3, 720, Note_on_c, 1, 55, 64
3, 960, Note_on_c, 1, 55, 0
3, 960, Note_on_c, 1, 58, 0
3, 960, Note_on_c, 1, 63, 0
3, 1560, Note_on_c, 1, 56, 64
3, 1620, Note_on_c, 1, 56, 0
3, 1620, Note_on_c, 1, 55, 64
3, 1680, Note_on_c, 1, 55, 0
3, 1680, Note_on_c, 1, 56, 64
3, 1800, Note_on_c, 1, 56, 0
3, 1800, Note_on_c, 1, 60, 64
3, 1920, Note_on_c, 1, 60, 0
3, 1920, Note_on_c, 1, 51, 64
3, 2040, Note_on_c, 1, 51, 0
3, 2040, Note_on_c, 1, 56, 64
3, 2160, Note_on_c, 1, 56, 0
3, 2280, Note_on_c, 1, 58, 64
3, 2340, Note_on_c, 1, 58, 0
3, 2340, Note_on_c, 1, 56, 64
3, 2400, Note_on_c, 1, 56, 0
3, 2400, Note_on_c, 1, 58, 64
3, 2520, Note_on_c, 1, 58, 0
3, 2520, Note_on_c, 1, 61, 64
3, 2640, Note_on_c, 1, 61, 0
3, 2640, Note_on_c, 1, 51, 64
3, 2760, Note_on_c, 1, 51, 0
3, 2760, Note_on_c, 1, 58, 64
3, 2880, Note_on_c, 1, 58, 0
3, 3000, Note_on_c, 1, 60, 64
3, 3060, Note_on_c, 1, 60, 0
3, 3060, Note_on_c, 1, 58, 64
3, 3120, Note_on_c, 1, 58, 0
3, 3120, Note_on_c, 1, 60, 64
3, 3240, Note_on_c, 1, 60, 0
3, 3240, Note_on_c, 1, 63, 64
3, 3360, Note_on_c, 1, 63, 0
3, 3360, Note_on_c, 1, 56, 64
3, 3480, Note_on_c, 1, 56, 0
3, 3480, Note_on_c, 1, 60, 64
3, 3600, Note_on_c, 1, 60, 0
3, 3600, Note_on_c, 1, 53, 64
3, 3840, Note_on_c, 1, 53, 0
3, 3840, Note_on_c, 1, 65, 64
3, 4080, Note_on_c, 1, 65, 0
3, 4440, Note_on_c, 1, 58, 64
3, 4500, Note_on_c, 1, 58, 0
3, 4500, Note_on_c, 1, 56, 64
3, 4560, Note_on_c, 1, 56, 0
3, 4560, Note_on_c, 1, 58, 64
3, 4680, Note_on_c, 1, 58, 0
3, 4680, Note_on_c, 1, 61, 64
3, 4800, Note_on_c, 1, 61, 0
3, 4800, Note_on_c, 1, 55, 64
3, 4920, Note_on_c, 1, 55, 0
3, 4920, Note_on_c, 1, 58, 64
3, 5040, Note_on_c, 1, 58, 0
3, 5040, Note_on_c, 1, 51, 64
3, 5280, Note_on_c, 1, 51, 0
3, 5280, Note_on_c, 1, 63, 64
3, 5520, Note_on_c, 1, 63, 0
3, 5880, Note_on_c, 1, 56, 64
3, 5940, Note_on_c, 1, 56, 0
3, 5940, Note_on_c, 1, 55, 64
3, 6000, Note_on_c, 1, 55, 0
3, 6000, Note_on_c, 1, 56, 64
3, 6120, Note_on_c, 1, 56, 0
3, 6120, Note_on_c, 1, 60, 64
3, 6240, Note_on_c, 1, 60, 0
3, 6240, Note_on_c, 1, 53, 64
3, 6360, Note_on_c, 1, 53, 0
3, 6360, Note_on_c, 1, 56, 64
3, 6480, Note_on_c, 1, 56, 0
3, 6480, Note_on_c, 1, 50, 64
3, 6600, Note_on_c, 1, 50, 0
3, 6600, Note_on_c, 1, 55, 64
3, 6660, Note_on_c, 1, 55, 0
3, 6660, Note_on_c, 1, 53, 64
3, 6720, Note_on_c, 1, 53, 0
3, 6720, Note_on_c, 1, 55, 64
3, 6840, Note_on_c, 1, 55, 0
3, 6840, Note_on_c, 1, 58, 64
3, 6960, Note_on_c, 1, 58, 0
3, 6960, Note_on_c, 1, 51, 64
3, 7080, Note_on_c, 1, 51, 0
3, 7080, Note_on_c, 1, 55, 64
3, 7200, Note_on_c, 1, 55, 0
3, 7200, Note_on_c, 1, 48, 64
3, 7320, Note_on_c, 1, 48, 0
3, 7320, Note_on_c, 1, 55, 64
3, 7380, Note_on_c, 1, 55, 0
3, 7380, Note_on_c, 1, 51, 64
3, 7440, Note_on_c, 1, 51, 0
3, 7440, Note_on_c, 1, 53, 64
3, 7560, Note_on_c, 1, 53, 0
3, 7560, Note_on_c, 1, 56, 64
3, 7680, Note_on_c, 1, 56, 0
3, 7680, Note_on_c, 1, 50, 64
3, 7800, Note_on_c, 1, 50, 0
3, 7800, Note_on_c, 1, 53, 64
3, 7920, Note_on_c, 1, 53, 0
3, 7920, Note_on_c, 1, 46, 64
3, 8040, Note_on_c, 1, 46, 0
3, 8040, Note_on_c, 1, 51, 64
3, 8100, Note_on_c, 1, 51, 0
3, 8100, Note_on_c, 1, 50, 64
3, 8160, Note_on_c, 1, 50, 0
3, 8160, Note_on_c, 1, 51, 64
3, 8280, Note_on_c, 1, 51, 0
3, 8280, Note_on_c, 1, 55, 64
3, 8400, Note_on_c, 1, 55, 0
3, 8400, Note_on_c, 1, 48, 64
3, 8520, Note_on_c, 1, 48, 0
3, 8520, Note_on_c, 1, 51, 64
3, 8640, Note_on_c, 1, 51, 0
3, 8640, Note_on_c, 1, 44, 64
3, 8760, Note_on_c, 1, 44, 0
3, 8760, Note_on_c, 1, 53, 64
3, 8820, Note_on_c, 1, 53, 0
3, 8820, Note_on_c, 1, 51, 64
3, 8880, Note_on_c, 1, 51, 0
3, 8880, Note_on_c, 1, 53, 64
3, 9000, Note_on_c, 1, 53, 0
3, 9000, Note_on_c, 1, 56, 64
3, 9120, Note_on_c, 1, 56, 0
3, 9120, Note_on_c, 1, 50, 64
3, 9240, Note_on_c, 1, 50, 0
3, 9240, Note_on_c, 1, 53, 64
3, 9360, Note_on_c, 1, 53, 0
3, 9360, Note_on_c, 1, 46, 64
3, 9480, Note_on_c, 1, 46, 0
3, 9480, Note_on_c, 1, 55, 64
3, 9540, Note_on_c, 1, 55, 0
3, 9540, Note_on_c, 1, 53, 64
3, 9600, Note_on_c, 1, 53, 0
3, 9600, Note_on_c, 1, 55, 64
3, 9720, Note_on_c, 1, 55, 0
3, 9720, Note_on_c, 1, 58, 64
3, 9840, Note_on_c, 1, 58, 0
3, 9840, Note_on_c, 1, 51, 64
3, 9960, Note_on_c, 1, 51, 0
3, 9960, Note_on_c, 1, 55, 64
3, 10080, Note_on_c, 1, 55, 0
3, 10080, Note_on_c, 1, 48, 64
3, 10200, Note_on_c, 1, 48, 0
3, 10200, Note_on_c, 1, 56, 64
3, 10260, Note_on_c, 1, 56, 0
3, 10260, Note_on_c, 1, 55, 64
3, 10320, Note_on_c, 1, 55, 0
3, 10320, Note_on_c, 1, 56, 64
3, 10440, Note_on_c, 1, 56, 0
3, 10440, Note_on_c, 1, 60, 64
3, 10560, Note_on_c, 1, 60, 0
3, 10560, Note_on_c, 1, 53, 64
3, 10680, Note_on_c, 1, 53, 0
3, 10680, Note_on_c, 1, 56, 64
3, 10800, Note_on_c, 1, 56, 0
3, 10800, Note_on_c, 1, 50, 64
3, 10920, Note_on_c, 1, 50, 0
3, 10920, Note_on_c, 1, 53, 64
3, 11040, Note_on_c, 1, 53, 0
3, 11040, Note_on_c, 1, 46, 64
3, 11160, Note_on_c, 1, 46, 0
3, 11160, Note_on_c, 1, 50, 64
3, 11280, Note_on_c, 1, 50, 0
3, 11280, Note_on_c, 1, 51, 64
3, 11400, Note_on_c, 1, 51, 0
3, 11400, Note_on_c, 1, 48, 64
3, 11520, Note_on_c, 1, 48, 0
3, 11520, Note_on_c, 1, 43, 64
3, 11640, Note_on_c, 1, 43, 0
3, 11640, Note_on_c, 1, 41, 64
3, 11760, Note_on_c, 1, 41, 0
3, 11760, Note_on_c, 1, 43, 64
3, 11880, Note_on_c, 1, 43, 0
3, 11880, Note_on_c, 1, 44, 64
3, 12000, Note_on_c, 1, 44, 0
3, 12000, Note_on_c, 1, 46, 64
3, 12240, Note_on_c, 1, 46, 0
3, 12360, Note_on_c, 1, 51, 64
3, 12420, Note_on_c, 1, 51, 0
3, 12420, Note_on_c, 1, 50, 64
3, 12480, Note_on_c, 1, 50, 0
3, 12480, Note_on_c, 1, 51, 64
3, 12600, Note_on_c, 1, 51, 0
3, 12600, Note_on_c, 1, 55, 64
3, 12720, Note_on_c, 1, 55, 0
3, 12720, Note_on_c, 1, 46, 64
3, 12840, Note_on_c, 1, 46, 0
3, 12840, Note_on_c, 1, 51, 64
3, 12960, Note_on_c, 1, 51, 0
3, 13080, Note_on_c, 1, 53, 64
3, 13140, Note_on_c, 1, 53, 0
3, 13140, Note_on_c, 1, 51, 64
3, 13200, Note_on_c, 1, 51, 0
3, 13200, Note_on_c, 1, 53, 64
3, 13320, Note_on_c, 1, 53, 0
3, 13320, Note_on_c, 1, 56, 64
3, 13440, Note_on_c, 1, 56, 0
3, 13440, Note_on_c, 1, 46, 64
3, 13560, Note_on_c, 1, 46, 0
3, 13560, Note_on_c, 1, 53, 64
3, 13680, Note_on_c, 1, 53, 0
3, 13680, Note_on_c, 1, 55, 64
3, 13920, Note_on_c, 1, 55, 0
3, 14040, Note_on_c, 1, 51, 64
3, 14100, Note_on_c, 1, 51, 0
3, 14100, Note_on_c, 1, 53, 64
3, 14160, Note_on_c, 1, 53, 0
3, 14160, Note_on_c, 1, 55, 64
3, 14220, Note_on_c, 1, 55, 0
3, 14220, Note_on_c, 1, 53, 64
3, 14280, Note_on_c, 1, 53, 0
3, 14280, Note_on_c, 1, 55, 64
3, 14340, Note_on_c, 1, 55, 0
3, 14340, Note_on_c, 1, 51, 64
3, 14400, Note_on_c, 1, 51, 0
3, 14400, Note_on_c, 1, 58, 64
3, 14520, Note_on_c, 1, 58, 0
3, 14520, Note_on_c, 1, 46, 64
3, 14640, Note_on_c, 1, 46, 0
3, 14760, Note_on_c, 1, 46, 64
3, 14820, Note_on_c, 1, 46, 0
3, 14820, Note_on_c, 1, 48, 64
3, 14880, Note_on_c, 1, 48, 0
3, 14880, Note_on_c, 1, 50, 64
3, 14940, Note_on_c, 1, 50, 0
3, 14940, Note_on_c, 1, 48, 64
3, 15000, Note_on_c, 1, 48, 0
3, 15000, Note_on_c, 1, 50, 64
3, 15060, Note_on_c, 1, 50, 0
3, 15060, Note_on_c, 1, 46, 64
3, 15120, Note_on_c, 1, 46, 0
3, 15120, Note_on_c, 1, 51, 64
3, 15240, Note_on_c, 1, 51, 0
3, 15240, Note_on_c, 1, 39, 64
3, 15360, Note_on_c, 1, 39, 0
3, 15480, Note_on_c, 1, 61, 64
3, 15540, Note_on_c, 1, 61, 0
3, 15540, Note_on_c, 1, 60, 64
3, 15600, Note_on_c, 1, 60, 0
3, 15600, Note_on_c, 1, 58, 64
3, 15660, Note_on_c, 1, 58, 0
3, 15660, Note_on_c, 1, 60, 64
3, 15720, Note_on_c, 1, 60, 0
3, 15720, Note_on_c, 1, 56, 64
3, 15780, Note_on_c, 1, 56, 0
3, 15780, Note_on_c, 1, 58, 64
3, 15840, Note_on_c, 1, 58, 0
3, 15840, Note_on_c, 1, 55, 64
3, 15900, Note_on_c, 1, 55, 0
3, 15900, Note_on_c, 1, 56, 64
3, 15960, Note_on_c, 1, 56, 0
3, 15960, Note_on_c, 1, 53, 64
3, 16020, Note_on_c, 1, 53, 0
3, 16020, Note_on_c, 1, 55, 64
3, 16080, Note_on_c, 1, 55, 0
3, 16080, Note_on_c, 1, 51, 64
3, 16140, Note_on_c, 1, 51, 0
3, 16140, Note_on_c, 1, 53, 64
3, 16200, Note_on_c, 1, 53, 0
3, 16200, Note_on_c, 1, 49, 64
3, 16260, Note_on_c, 1, 49, 0
3, 16260, Note_on_c, 1, 51, 64
3, 16320, Note_on_c, 1, 51, 0
3, 16320, Note_on_c, 1, 48, 64
3, 16380, Note_on_c, 1, 48, 0
3, 16380, Note_on_c, 1, 49, 64
3, 16440, Note_on_c, 1, 49, 0
3, 16440, Note_on_c, 1, 46, 64
3, 16500, Note_on_c, 1, 46, 0
3, 16500, Note_on_c, 1, 48, 64
3, 16560, Note_on_c, 1, 48, 0
3, 16560, Note_on_c, 1, 44, 64
3, 16680, Note_on_c, 1, 44, 0
3, 16680, Note_on_c, 1, 63, 64
3, 16740, Note_on_c, 1, 63, 0
3, 16740, Note_on_c, 1, 62, 64
3, 16800, Note_on_c, 1, 62, 0
3, 16800, Note_on_c, 1, 63, 64
3, 16920, Note_on_c, 1, 63, 0
3, 16920, Note_on_c, 1, 68, 64
3, 17040, Note_on_c, 1, 68, 0
3, 17040, Note_on_c, 1, 60, 64
3, 17160, Note_on_c, 1, 60, 0
3, 17160, Note_on_c, 1, 63, 64
3, 17280, Note_on_c, 1, 63, 0
3, 17280, Note_on_c, 1, 56, 64
3, 17400, Note_on_c, 1, 56, 0
3, 17400, Note_on_c, 1, 60, 64
3, 17460, Note_on_c, 1, 60, 0
3, 17460, Note_on_c, 1, 58, 64
3, 17520, Note_on_c, 1, 58, 0
3, 17520, Note_on_c, 1, 60, 64
3, 17640, Note_on_c, 1, 60, 0
3, 17640, Note_on_c, 1, 63, 64
3, 17760, Note_on_c, 1, 63, 0
3, 17760, Note_on_c, 1, 56, 64
3, 17880, Note_on_c, 1, 56, 0
3, 17880, Note_on_c, 1, 60, 64
3, 18000, Note_on_c, 1, 60, 0
3, 18000, Note_on_c, 1, 53, 64
3, 18300, Note_on_c, 1, 53, 0
3, 18300, Note_on_c, 1, 56, 64
3, 18360, Note_on_c, 1, 56, 0
3, 18360, Note_on_c, 1, 58, 64
3, 18420, Note_on_c, 1, 58, 0
3, 18420, Note_on_c, 1, 60, 64
3, 18480, Note_on_c, 1, 60, 0
3, 18480, Note_on_c, 1, 61, 64
3, 18540, Note_on_c, 1, 61, 0
3, 18540, Note_on_c, 1, 58, 64
3, 18600, Note_on_c, 1, 58, 0
3, 18600, Note_on_c, 1, 55, 64
3, 18660, Note_on_c, 1, 55, 0
3, 18660, Note_on_c, 1, 58, 64
3, 18720, Note_on_c, 1, 58, 0
3, 18720, Note_on_c, 1, 51, 64
3, 19020, Note_on_c, 1, 51, 0
3, 19020, Note_on_c, 1, 55, 64
3, 19080, Note_on_c, 1, 55, 0
3, 19080, Note_on_c, 1, 56, 64
3, 19140, Note_on_c, 1, 56, 0
3, 19140, Note_on_c, 1, 58, 64
3, 19200, Note_on_c, 1, 58, 0
3, 19200, Note_on_c, 1, 60, 64
3, 19260, Note_on_c, 1, 60, 0
3, 19260, Note_on_c, 1, 56, 64
3, 19320, Note_on_c, 1, 56, 0
3, 19320, Note_on_c, 1, 53, 64
3, 19380, Note_on_c, 1, 53, 0
3, 19380, Note_on_c, 1, 56, 64
3, 19440, Note_on_c, 1, 56, 0
3, 19440, Note_on_c, 1, 49, 64
3, 19500, Note_on_c, 1, 49, 0
3, 19500, Note_on_c, 1, 51, 64
3, 19560, Note_on_c, 1, 51, 0
3, 19560, Note_on_c, 1, 48, 64
3, 19620, Note_on_c, 1, 48, 0
3, 19620, Note_on_c, 1, 51, 64
3, 19680, Note_on_c, 1, 51, 0
3, 19680, Note_on_c, 1, 49, 64
3, 19740, Note_on_c, 1, 49, 0
3, 19740, Note_on_c, 1, 53, 64
3, 19800, Note_on_c, 1, 53, 0
3, 19800, Note_on_c, 1, 55, 64
3, 19860, Note_on_c, 1, 55, 0
3, 19860, Note_on_c, 1, 56, 64
3, 19920, Note_on_c, 1, 56, 0
3, 19920, Note_on_c, 1, 58, 64
3, 19980, Note_on_c, 1, 58, 0
3, 19980, Note_on_c, 1, 55, 64
3, 20040, Note_on_c, 1, 55, 0
3, 20040, Note_on_c, 1, 51, 64
3, 20100, Note_on_c, 1, 51, 0
3, 20100, Note_on_c, 1, 55, 64
3, 20160, Note_on_c, 1, 55, 0
3, 20160, Note_on_c, 1, 48, 64
3, 20220, Note_on_c, 1, 48, 0
3, 20220, Note_on_c, 1, 49, 64
3, 20280, Note_on_c, 1, 49, 0
3, 20280, Note_on_c, 1, 46, 64
3, 20340, Note_on_c, 1, 46, 0
3, 20340, Note_on_c, 1, 49, 64
3, 20400, Note_on_c, 1, 49, 0
3, 20400, Note_on_c, 1, 48, 64
3, 20460, Note_on_c, 1, 48, 0
3, 20460, Note_on_c, 1, 51, 64
3, 20520, Note_on_c, 1, 51, 0
3, 20520, Note_on_c, 1, 53, 64
3, 20580, Note_on_c, 1, 53, 0
3, 20580, Note_on_c, 1, 55, 64
3, 20640, Note_on_c, 1, 55, 0
3, 20640, Note_on_c, 1, 56, 64
3, 20700, Note_on_c, 1, 56, 0
3, 20700, Note_on_c, 1, 53, 64
3, 20760, Note_on_c, 1, 53, 0
3, 20760, Note_on_c, 1, 49, 64
3, 20820, Note_on_c, 1, 49, 0
3, 20820, Note_on_c, 1, 53, 64
3, 20880, Note_on_c, 1, 53, 0
3, 20880, Note_on_c, 1, 46, 64
3, 20940, Note_on_c, 1, 46, 0
3, 20940, Note_on_c, 1, 56, 64
3, 21000, Note_on_c, 1, 56, 0
3, 21000, Note_on_c, 1, 55, 64
3, 21060, Note_on_c, 1, 55, 0
3, 21060, Note_on_c, 1, 56, 64
3, 21120, Note_on_c, 1, 56, 0
3, 21120, Note_on_c, 1, 49, 64
3, 21180, Note_on_c, 1, 49, 0
3, 21180, Note_on_c, 1, 56, 64
3, 21240, Note_on_c, 1, 56, 0
3, 21240, Note_on_c, 1, 55, 64
3, 21300, Note_on_c, 1, 55, 0
3, 21300, Note_on_c, 1, 56, 64
3, 21360, Note_on_c, 1, 56, 0
3, 21360, Note_on_c, 1, 46, 64
3, 21420, Note_on_c, 1, 46, 0
3, 21420, Note_on_c, 1, 56, 64
3, 21480, Note_on_c, 1, 56, 0
3, 21480, Note_on_c, 1, 55, 64
3, 21540, Note_on_c, 1, 55, 0
3, 21540, Note_on_c, 1, 56, 64
3, 21600, Note_on_c, 1, 56, 0
3, 21600, Note_on_c, 1, 48, 64
3, 21660, Note_on_c, 1, 48, 0
3, 21660, Note_on_c, 1, 56, 64
3, 21720, Note_on_c, 1, 56, 0
3, 21720, Note_on_c, 1, 55, 64
3, 21780, Note_on_c, 1, 55, 0
3, 21780, Note_on_c, 1, 56, 64
3, 21840, Note_on_c, 1, 56, 0
3, 21840, Note_on_c, 1, 51, 64
3, 21900, Note_on_c, 1, 51, 0
3, 21900, Note_on_c, 1, 56, 64
3, 21960, Note_on_c, 1, 56, 0
3, 21960, Note_on_c, 1, 55, 64
3, 22020, Note_on_c, 1, 55, 0
3, 22020, Note_on_c, 1, 56, 64
3, 22080, Note_on_c, 1, 56, 0
3, 22080, Note_on_c, 1, 48, 64
3, 22140, Note_on_c, 1, 48, 0
3, 22140, Note_on_c, 1, 56, 64
3, 22200, Note_on_c, 1, 56, 0
3, 22200, Note_on_c, 1, 55, 64
3, 22260, Note_on_c, 1, 55, 0
3, 22260, Note_on_c, 1, 56, 64
3, 22320, Note_on_c, 1, 56, 0
3, 22320, Note_on_c, 1, 49, 64
3, 22380, Note_on_c, 1, 49, 0
3, 22380, Note_on_c, 1, 56, 64
3, 22440, Note_on_c, 1, 56, 0
3, 22440, Note_on_c, 1, 54, 64
3, 22500, Note_on_c, 1, 54, 0
3, 22500, Note_on_c, 1, 56, 64
3, 22560, Note_on_c, 1, 56, 0
3, 22560, Note_on_c, 1, 53, 64
3, 22620, Note_on_c, 1, 53, 0
3, 22620, Note_on_c, 1, 56, 64
3, 22680, Note_on_c, 1, 56, 0
3, 22680, Note_on_c, 1, 51, 64
3, 22740, Note_on_c, 1, 51, 0
3, 22740, Note_on_c, 1, 56, 64
3, 22800, Note_on_c, 1, 56, 0
3, 22800, Note_on_c, 1, 49, 64
3, 22860, Note_on_c, 1, 49, 0
3, 22860, Note_on_c, 1, 56, 64
3, 22920, Note_on_c, 1, 56, 0
3, 22920, Note_on_c, 1, 48, 64
3, 22980, Note_on_c, 1, 48, 0
3, 22980, Note_on_c, 1, 56, 64
3, 23040, Note_on_c, 1, 56, 0
3, 23040, Note_on_c, 1, 46, 64
3, 23100, Note_on_c, 1, 46, 0
3, 23100, Note_on_c, 1, 49, 64
3, 23160, Note_on_c, 1, 49, 0
3, 23160, Note_on_c, 1, 48, 64
3, 23220, Note_on_c, 1, 48, 0
3, 23220, Note_on_c, 1, 51, 64
3, 23280, Note_on_c, 1, 51, 0
3, 23280, Note_on_c, 1, 49, 64
3, 23340, Note_on_c, 1, 49, 0
3, 23340, Note_on_c, 1, 53, 64
3, 23400, Note_on_c, 1, 53, 0
3, 23400, Note_on_c, 1, 51, 64
3, 23460, Note_on_c, 1, 51, 0
3, 23460, Note_on_c, 1, 49, 64
3, 23520, Note_on_c, 1, 49, 0
3, 23520, Note_on_c, 1, 48, 64
3, 23580, Note_on_c, 1, 48, 0
3, 23580, Note_on_c, 1, 51, 64
3, 23640, Note_on_c, 1, 51, 0
3, 23640, Note_on_c, 1, 49, 64
3, 23700, Note_on_c, 1, 49, 0
3, 23700, Note_on_c, 1, 53, 64
3, 23760, Note_on_c, 1, 53, 0
3, 23760, Note_on_c, 1, 51, 64
3, 23880, Note_on_c, 1, 51, 0
3, 23880, Note_on_c, 1, 53, 64
3, 23940, Note_on_c, 1, 53, 0
3, 23940, Note_on_c, 1, 49, 64
3, 24000, Note_on_c, 1, 49, 0
3, 24000, Note_on_c, 1, 51, 64
3, 24120, Note_on_c, 1, 51, 0
3, 24120, Note_on_c, 1, 49, 64
3, 24240, Note_on_c, 1, 49, 0
3, 24240, Note_on_c, 1, 51, 64
3, 24360, Note_on_c, 1, 51, 0
3, 24360, Note_on_c, 1, 39, 64
3, 24480, Note_on_c, 1, 39, 0
3, 24480, Note_on_c, 1, 44, 64
3, 24720, Note_on_c, 1, 44, 0
3, 24720, Note_on_c, 1, 56, 64
3, 24960, Note_on_c, 1, 56, 0
3, 25320, Note_on_c, 1, 53, 64
3, 25380, Note_on_c, 1, 53, 0
3, 25380, Note_on_c, 1, 51, 64
3, 25440, Note_on_c, 1, 51, 0
3, 25440, Note_on_c, 1, 53, 64
3, 25560, Note_on_c, 1, 53, 0
3, 25560, Note_on_c, 1, 56, 64
3, 25680, Note_on_c, 1, 56, 0
3, 25680, Note_on_c, 1, 49, 64
3, 25800, Note_on_c, 1, 49, 0
3, 25800, Note_on_c, 1, 53, 64
3, 25920, Note_on_c, 1, 53, 0
3, 25920, Note_on_c, 1, 46, 64
3, 26160, Note_on_c, 1, 46, 0
3, 26160, Note_on_c, 1, 58, 64
3, 26400, Note_on_c, 1, 58, 0
3, 26760, Note_on_c, 1, 51, 64
3, 26820, Note_on_c, 1, 51, 0
3, 26820, Note_on_c, 1, 49, 64
3, 26880, Note_on_c, 1, 49, 0
3, 26880, Note_on_c, 1, 51, 64
3, 27000, Note_on_c, 1, 51, 0
3, 27000, Note_on_c, 1, 55, 64
3, 27120, Note_on_c, 1, 55, 0
3, 27120, Note_on_c, 1, 48, 64
3, 27240, Note_on_c, 1, 48, 0
3, 27240, Note_on_c, 1, 51, 64
3, 27360, Note_on_c, 1, 51, 0
3, 27360, Note_on_c, 1, 44, 64
3, 27420, Note_on_c, 1, 44, 0
3, 27420, Note_on_c, 1, 56, 64
3, 27480, Note_on_c, 1, 56, 0
3, 27480, Note_on_c, 1, 55, 64
3, 27540, Note_on_c, 1, 55, 0
3, 27540, Note_on_c, 1, 56, 64
3, 27600, Note_on_c, 1, 56, 0
3, 27600, Note_on_c, 1, 53, 64
3, 27660, Note_on_c, 1, 53, 0
3, 27660, Note_on_c, 1, 56, 64
3, 27720, Note_on_c, 1, 56, 0
3, 27720, Note_on_c, 1, 51, 64
3, 27780, Note_on_c, 1, 51, 0
3, 27780, Note_on_c, 1, 56, 64
3, 27840, Note_on_c, 1, 56, 0
3, 27840, Note_on_c, 1, 49, 64
3, 27900, Note_on_c, 1, 49, 0
3, 27900, Note_on_c, 1, 56, 64
3, 27960, Note_on_c, 1, 56, 0
3, 27960, Note_on_c, 1, 48, 64
3, 28020, Note_on_c, 1, 48, 0
3, 28020, Note_on_c, 1, 56, 64
3, 28080, Note_on_c, 1, 56, 0
3, 28080, Note_on_c, 1, 46, 64
3, 28140, Note_on_c, 1, 46, 0
3, 28140, Note_on_c, 1, 58, 64
3, 28200, Note_on_c, 1, 58, 0
3, 28200, Note_on_c, 1, 56, 64
3, 28260, Note_on_c, 1, 56, 0
3, 28260, Note_on_c, 1, 58, 64
3, 28320, Note_on_c, 1, 58, 0
3, 28320, Note_on_c, 1, 55, 64
3, 28380, Note_on_c, 1, 55, 0
3, 28380, Note_on_c, 1, 58, 64
3, 28440, Note_on_c, 1, 58, 0
3, 28440, Note_on_c, 1, 53, 64
3, 28500, Note_on_c, 1, 53, 0
3, 28500, Note_on_c, 1, 58, 64
3, 28560, Note_on_c, 1, 58, 0
3, 28560, Note_on_c, 1, 51, 64
3, 28620, Note_on_c, 1, 51, 0
3, 28620, Note_on_c, 1, 58, 64
3, 28680, Note_on_c, 1, 58, 0
3, 28680, Note_on_c, 1, 49, 64
3, 28740, Note_on_c, 1, 49, 0
3, 28740, Note_on_c, 1, 58, 64
3, 28800, Note_on_c, 1, 58, 0
3, 28800, Note_on_c, 1, 48, 64
3, 28920, Note_on_c, 1, 48, 0
3, 28920, Note_on_c, 1, 60, 64
3, 29040, Note_on_c, 1, 60, 0
3, 29160, Note_on_c, 1, 53, 64
3, 29220, Note_on_c, 1, 53, 0
3, 29220, Note_on_c, 1, 55, 64
3, 29280, Note_on_c, 1, 55, 0
3, 29280, Note_on_c, 1, 56, 64
3, 29340, Note_on_c, 1, 56, 0
3, 29340, Note_on_c, 1, 55, 64
3, 29400, Note_on_c, 1, 55, 0
3, 29400, Note_on_c, 1, 56, 64
3, 29460, Note_on_c, 1, 56, 0
3, 29460, Note_on_c, 1, 53, 64
3, 29520, Note_on_c, 1, 53, 0
3, 29520, Note_on_c, 1, 58, 64
3, 29640, Note_on_c, 1, 58, 0
3, 29640, Note_on_c, 1, 46, 64
3, 29760, Note_on_c, 1, 46, 0
3, 29880, Note_on_c, 1, 51, 64
3, 29940, Note_on_c, 1, 51, 0
3, 29940, Note_on_c, 1, 53, 64
3, 30000, Note_on_c, 1, 53, 0
3, 30000, Note_on_c, 1, 55, 64
3, 30060, Note_on_c, 1, 55, 0
3, 30060, Note_on_c, 1, 53, 64
3, 30120, Note_on_c, 1, 53, 0
3, 30120, Note_on_c, 1, 55, 64
3, 30180, Note_on_c, 1, 55, 0
3, 30180, Note_on_c, 1, 51, 64
3, 30240, Note_on_c, 1, 51, 0
3, 30240, Note_on_c, 1, 56, 64
3, 30360, Note_on_c, 1, 56, 0
3, 30360, Note_on_c, 1, 49, 64
3, 30480, Note_on_c, 1, 49, 0
3, 30480, Note_on_c, 1, 51, 64
3, 30600, Note_on_c, 1, 51, 0
3, 30600, Note_on_c, 1, 49, 64
3, 30720, Note_on_c, 1, 49, 0
3, 30720, Note_on_c, 1, 51, 64
3, 30840, Note_on_c, 1, 51, 0
3, 30840, Note_on_c, 1, 39, 64
3, 30960, Note_on_c, 1, 39, 0
3, 30960, Note_on_c, 1, 44, 64
3, 31680, Note_on_c, 1, 44, 0
3, 31680, End_track
4, 0, Start_track
4, 0, End_track
0, 0, End_of_file
