0, 0, Header, 1, 17, 1024
1, 0, Start_track
1, 0, Time_signature, 1, 2, 24, 8
1, 0, Key_signature, 2, "major"
1, 0, Tempo, 625000
1, 1024, Time_signature, 3, 2, 24, 8
1, 1024, Tempo, 582524
1, 261868, Tempo, 689655
1, 263532, Tempo, 566037
1, 263596, Tempo, 582524
1, 338624, Tempo, 666666
1, 339776, Tempo, 582524
1, 339808, Tempo, 588235
1, 339840, Tempo, 582524
1, 397548, Tempo, 594059
1, 397824, Tempo, 666666
1, 398912, Tempo, 937500
1, 399680, Tempo, 1395348
1, 399692, Tempo, 1071428
1, 400172, Tempo, 1250000
1, 400300, Tempo, 2307692
1, 400332, Tempo, 1016949
1, 407552, Control_c, 0, 121, 127
1, 407552, Control_c, 1, 121, 127
1, 407552, Control_c, 2, 121, 127
1, 407552, Control_c, 3, 121, 127
1, 407552, Control_c, 4, 121, 127
1, 407552, Control_c, 5, 121, 127
1, 407552, Control_c, 6, 121, 127
1, 407552, Control_c, 7, 121, 127
1, 407552, Control_c, 8, 121, 127
1, 407552, Control_c, 10, 121, 127
1, 407552, Control_c, 11, 121, 127
1, 407552, Control_c, 12, 121, 127
1, 407552, Control_c, 13, 121, 127
1, 407552, Control_c, 14, 121, 127
1, 407552, Control_c, 15, 121, 127
1, 409600, End_track
2, 0, Start_track
2, 409600, End_track
3, 0, Start_track
3, 0, Title_t, "Trumpet"
3, 0, Program_c, 0, 56
3, 0, Control_c, 0, 121, 127
3, 0, Control_c, 0, 1, 10
3, 0, Control_c, 0, 10, 20
3, 0, Control_c, 0, 91, 127
3, 2560, Note_on_c, 0, 69, 82
3, 2560, Note_on_c, 0, 66, 82
3, 2560, Note_on_c, 0, 62, 82
3, 2816, Note_on_c, 0, 69, 0
3, 2816, Note_on_c, 0, 66, 0
3, 2816, Note_on_c, 0, 62, 0
3, 3072, Note_on_c, 0, 74, 86
3, 3072, Note_on_c, 0, 69, 86
3, 3072, Note_on_c, 0, 62, 86
3, 3328, Note_on_c, 0, 74, 0
3, 3328, Note_on_c, 0, 69, 0
3, 3328, Note_on_c, 0, 62, 0
3, 3584, Note_on_c, 0, 76, 90
3, 3584, Note_on_c, 0, 69, 90
3, 3584, Note_on_c, 0, 69, 90
3, 3840, Note_on_c, 0, 76, 0
3, 3840, Note_on_c, 0, 69, 0
3, 3840, Note_on_c, 0, 69, 0
3, 4096, Note_on_c, 0, 78, 94
3, 4096, Note_on_c, 0, 69, 94
3, 4096, Note_on_c, 0, 62, 94
3, 4352, Note_on_c, 0, 78, 0
3, 4608, Note_on_c, 0, 79, 87
3, 4779, Note_on_c, 0, 79, 0
3, 4779, Note_on_c, 0, 78, 87
3, 4949, Note_on_c, 0, 78, 0
3, 4949, Note_on_c, 0, 76, 87
3, 5120, Note_on_c, 0, 76, 0
3, 5120, Note_on_c, 0, 78, 87
3, 5120, Note_on_c, 0, 69, 0
3, 5120, Note_on_c, 0, 62, 0
3, 5376, Note_on_c, 0, 78, 0
3, 5632, Note_on_c, 0, 83, 87
3, 5632, Note_on_c, 0, 79, 87
3, 5632, Note_on_c, 0, 74, 87
3, 5888, Note_on_c, 0, 83, 0
3, 5888, Note_on_c, 0, 79, 0
3, 5888, Note_on_c, 0, 74, 0
3, 6144, Note_on_c, 0, 81, 86
3, 6144, Note_on_c, 0, 78, 86
3, 6144, Note_on_c, 0, 74, 86
3, 6400, Note_on_c, 0, 81, 0
3, 6400, Note_on_c, 0, 78, 0
3, 6400, Note_on_c, 0, 74, 0
3, 6656, Note_on_c, 0, 79, 86
3, 6656, Note_on_c, 0, 76, 86
3, 6656, Note_on_c, 0, 69, 86
3, 6912, Note_on_c, 0, 79, 0
3, 6912, Note_on_c, 0, 76, 0
3, 6912, Note_on_c, 0, 69, 0
3, 7168, Note_on_c, 0, 78, 86
3, 7168, Note_on_c, 0, 74, 86
3, 7168, Note_on_c, 0, 69, 86
3, 7424, Note_on_c, 0, 78, 0
3, 7424, Note_on_c, 0, 74, 0
3, 7424, Note_on_c, 0, 69, 0
3, 8192, Note_on_c, 0, 81, 64
3, 8192, Note_on_c, 0, 78, 64
3, 8192, Note_on_c, 0, 74, 64
3, 8448, Note_on_c, 0, 81, 0
3, 8448, Note_on_c, 0, 78, 0
3, 8448, Note_on_c, 0, 74, 0
3, 9216, Note_on_c, 0, 78, 64
3, 9216, Note_on_c, 0, 81, 64
3, 9216, Note_on_c, 0, 78, 64
3, 9472, Note_on_c, 0, 78, 0
3, 9472, Note_on_c, 0, 81, 0
3, 9472, Note_on_c, 0, 78, 0
3, 10240, Note_on_c, 0, 74, 85
3, 10240, Note_on_c, 0, 83, 85
3, 10240, Note_on_c, 0, 79, 85
3, 10496, Note_on_c, 0, 74, 0
3, 10496, Note_on_c, 0, 83, 0
3, 10496, Note_on_c, 0, 79, 0
3, 10752, Note_on_c, 0, 76, 86
3, 11008, Note_on_c, 0, 76, 0
3, 11008, Note_on_c, 0, 78, 87
3, 11264, Note_on_c, 0, 78, 0
3, 11264, Note_on_c, 0, 79, 87
3, 11520, Note_on_c, 0, 79, 0
3, 11776, Note_on_c, 0, 81, 88
3, 11776, Note_on_c, 0, 81, 88
3, 11776, Note_on_c, 0, 76, 88
3, 12032, Note_on_c, 0, 81, 0
3, 12032, Note_on_c, 0, 81, 0
3, 12032, Note_on_c, 0, 76, 0
3, 12288, Note_on_c, 0, 79, 90
3, 12288, Note_on_c, 0, 81, 90
3, 12288, Note_on_c, 0, 74, 90
3, 12544, Note_on_c, 0, 79, 0
3, 12544, Note_on_c, 0, 78, 90
3, 12544, Note_on_c, 0, 81, 0
3, 12544, Note_on_c, 0, 74, 0
3, 12800, Note_on_c, 0, 78, 0
3, 12800, Note_on_c, 0, 76, 91
3, 12800, Note_on_c, 0, 80, 91
3, 12800, Note_on_c, 0, 62, 91
3, 13056, Note_on_c, 0, 76, 0
3, 13056, Note_on_c, 0, 74, 92
3, 13056, Note_on_c, 0, 80, 0
3, 13056, Note_on_c, 0, 62, 0
3, 13312, Note_on_c, 0, 74, 0
3, 13312, Note_on_c, 0, 76, 92
3, 13312, Note_on_c, 0, 81, 92
3, 13312, Note_on_c, 0, 69, 92
3, 13568, Note_on_c, 0, 76, 0
3, 13824, Note_on_c, 0, 78, 88
3, 14080, Note_on_c, 0, 78, 0
3, 14080, Note_on_c, 0, 79, 88
3, 14336, Note_on_c, 0, 79, 0
3, 14336, Note_on_c, 0, 81, 88
3, 14336, Note_on_c, 0, 81, 0
3, 14336, Note_on_c, 0, 69, 0
3, 14592, Note_on_c, 0, 81, 0
3, 14592, Note_on_c, 0, 79, 88
3, 14848, Note_on_c, 0, 79, 0
3, 14848, Note_on_c, 0, 81, 88
3, 14848, Note_on_c, 0, 69, 88
3, 14848, Note_on_c, 0, 69, 88
3, 15104, Note_on_c, 0, 81, 0
3, 15104, Note_on_c, 0, 83, 88
3, 15104, Note_on_c, 0, 69, 0
3, 15104, Note_on_c, 0, 69, 88
3, 15104, Note_on_c, 0, 69, 0
3, 15104, Note_on_c, 0, 69, 88
3, 15360, Note_on_c, 0, 83, 0
3, 15360, Note_on_c, 0, 81, 88
3, 15360, Note_on_c, 0, 69, 0
3, 15360, Note_on_c, 0, 69, 88
3, 15360, Note_on_c, 0, 69, 0
3, 15360, Note_on_c, 0, 69, 88
3, 15616, Note_on_c, 0, 81, 0
3, 15616, Note_on_c, 0, 79, 87
3, 15616, Note_on_c, 0, 69, 0
3, 15616, Note_on_c, 0, 69, 0
3, 15872, Note_on_c, 0, 79, 0
3, 15872, Note_on_c, 0, 78, 87
3, 15872, Note_on_c, 0, 69, 87
3, 15872, Note_on_c, 0, 69, 87
3, 16128, Note_on_c, 0, 78, 0
3, 16128, Note_on_c, 0, 76, 87
3, 16128, Note_on_c, 0, 69, 0
3, 16128, Note_on_c, 0, 69, 0
3, 16384, Note_on_c, 0, 76, 0
3, 16384, Note_on_c, 0, 78, 87
3, 16384, Note_on_c, 0, 69, 87
3, 16384, Note_on_c, 0, 69, 87
3, 16640, Note_on_c, 0, 78, 0
3, 16640, Note_on_c, 0, 69, 0
3, 16640, Note_on_c, 0, 69, 0
3, 16896, Note_on_c, 0, 79, 87
3, 16896, Note_on_c, 0, 69, 87
3, 16896, Note_on_c, 0, 69, 87
3, 17067, Note_on_c, 0, 79, 0
3, 17067, Note_on_c, 0, 78, 87
3, 17152, Note_on_c, 0, 69, 0
3, 17152, Note_on_c, 0, 69, 87
3, 17152, Note_on_c, 0, 69, 0
3, 17152, Note_on_c, 0, 69, 87
3, 17237, Note_on_c, 0, 78, 0
3, 17237, Note_on_c, 0, 76, 87
3, 17408, Note_on_c, 0, 76, 0
3, 17408, Note_on_c, 0, 78, 87
3, 17408, Note_on_c, 0, 69, 0
3, 17408, Note_on_c, 0, 69, 87
3, 17408, Note_on_c, 0, 69, 0
3, 17408, Note_on_c, 0, 69, 87
3, 17664, Note_on_c, 0, 78, 0
3, 17664, Note_on_c, 0, 69, 0
3, 17664, Note_on_c, 0, 69, 0
3, 17920, Note_on_c, 0, 79, 86
3, 17920, Note_on_c, 0, 74, 86
3, 17920, Note_on_c, 0, 62, 86
3, 18176, Note_on_c, 0, 79, 0
3, 18176, Note_on_c, 0, 74, 0
3, 18176, Note_on_c, 0, 76, 86
3, 18176, Note_on_c, 0, 62, 0
3, 18432, Note_on_c, 0, 81, 86
3, 18432, Note_on_c, 0, 76, 0
3, 18432, Note_on_c, 0, 78, 86
3, 18432, Note_on_c, 0, 74, 86
3, 18688, Note_on_c, 0, 81, 0
3, 18688, Note_on_c, 0, 78, 0
3, 18688, Note_on_c, 0, 76, 86
3, 18688, Note_on_c, 0, 74, 0
3, 18944, Note_on_c, 0, 83, 86
3, 18944, Note_on_c, 0, 76, 0
3, 18944, Note_on_c, 0, 78, 86
3, 18944, Note_on_c, 0, 62, 86
3, 19200, Note_on_c, 0, 83, 0
3, 19200, Note_on_c, 0, 78, 0
3, 19200, Note_on_c, 0, 74, 86
3, 19200, Note_on_c, 0, 62, 0
3, 19456, Note_on_c, 0, 74, 0
3, 19456, Note_on_c, 0, 76, 86
3, 19456, Note_on_c, 0, 81, 86
3, 19456, Note_on_c, 0, 69, 86
3, 19712, Note_on_c, 0, 76, 0
3, 19712, Note_on_c, 0, 81, 0
3, 19712, Note_on_c, 0, 69, 0
3, 20480, Note_on_c, 0, 81, 64
3, 20480, Note_on_c, 0, 85, 64
3, 20480, Note_on_c, 0, 76, 64
3, 20736, Note_on_c, 0, 81, 0
3, 20736, Note_on_c, 0, 85, 0
3, 20736, Note_on_c, 0, 76, 0
3, 21504, Note_on_c, 0, 76, 64
3, 21504, Note_on_c, 0, 81, 64
3, 21504, Note_on_c, 0, 69, 64
3, 21760, Note_on_c, 0, 76, 0
3, 21760, Note_on_c, 0, 81, 0
3, 21760, Note_on_c, 0, 69, 0
3, 22528, Note_on_c, 0, 76, 83
3, 22528, Note_on_c, 0, 81, 83
3, 22528, Note_on_c, 0, 69, 83
3, 22784, Note_on_c, 0, 76, 0
3, 23040, Note_on_c, 0, 78, 84
3, 23296, Note_on_c, 0, 78, 0
3, 23296, Note_on_c, 0, 80, 85
3, 23552, Note_on_c, 0, 80, 0
3, 23552, Note_on_c, 0, 81, 86
3, 23552, Note_on_c, 0, 81, 0
3, 23552, Note_on_c, 0, 69, 0
3, 23808, Note_on_c, 0, 81, 0
3, 24064, Note_on_c, 0, 83, 87
3, 24064, Note_on_c, 0, 78, 87
3, 24064, Note_on_c, 0, 74, 87
3, 24320, Note_on_c, 0, 83, 0
3, 24320, Note_on_c, 0, 78, 0
3, 24320, Note_on_c, 0, 74, 0
3, 24576, Note_on_c, 0, 76, 88
3, 24576, Note_on_c, 0, 76, 88
3, 24576, Note_on_c, 0, 74, 88
3, 24832, Note_on_c, 0, 76, 0
3, 24832, Note_on_c, 0, 76, 0
3, 24832, Note_on_c, 0, 74, 0
3, 25088, Note_on_c, 0, 80, 90
3, 25088, Note_on_c, 0, 76, 90
3, 25088, Note_on_c, 0, 74, 90
3, 25344, Note_on_c, 0, 80, 0
3, 25344, Note_on_c, 0, 76, 0
3, 25344, Note_on_c, 0, 74, 0
3, 25600, Note_on_c, 0, 81, 91
3, 25600, Note_on_c, 0, 76, 91
3, 25600, Note_on_c, 0, 69, 91
3, 26624, Note_on_c, 0, 81, 0
3, 26624, Note_on_c, 0, 76, 0
3, 26624, Note_on_c, 0, 69, 0
3, 42496, Note_on_c, 0, 69, 90
3, 42496, Note_on_c, 0, 69, 90
3, 42496, Note_on_c, 0, 66, 90
3, 42752, Note_on_c, 0, 69, 0
3, 42752, Note_on_c, 0, 69, 0
3, 42752, Note_on_c, 0, 66, 0
3, 43008, Note_on_c, 0, 74, 94
3, 43008, Note_on_c, 0, 69, 94
3, 43008, Note_on_c, 0, 62, 94
3, 43264, Note_on_c, 0, 74, 0
3, 43264, Note_on_c, 0, 69, 0
3, 43264, Note_on_c, 0, 62, 0
3, 43520, Note_on_c, 0, 76, 98
3, 43520, Note_on_c, 0, 69, 98
3, 43520, Note_on_c, 0, 69, 98
3, 43776, Note_on_c, 0, 76, 0
3, 43776, Note_on_c, 0, 69, 0
3, 43776, Note_on_c, 0, 69, 0
3, 44032, Note_on_c, 0, 78, 102
3, 44032, Note_on_c, 0, 69, 102
3, 44032, Note_on_c, 0, 62, 102
3, 44288, Note_on_c, 0, 78, 0
3, 44544, Note_on_c, 0, 79, 94
3, 44715, Note_on_c, 0, 79, 0
3, 44715, Note_on_c, 0, 78, 94
3, 44885, Note_on_c, 0, 78, 0
3, 44885, Note_on_c, 0, 76, 95
3, 45056, Note_on_c, 0, 76, 0
3, 45056, Note_on_c, 0, 78, 95
3, 45056, Note_on_c, 0, 69, 0
3, 45056, Note_on_c, 0, 62, 0
3, 45312, Note_on_c, 0, 78, 0
3, 45568, Note_on_c, 0, 83, 97
3, 45568, Note_on_c, 0, 79, 97
3, 45568, Note_on_c, 0, 74, 97
3, 45824, Note_on_c, 0, 83, 0
3, 45824, Note_on_c, 0, 79, 0
3, 45824, Note_on_c, 0, 74, 0
3, 46080, Note_on_c, 0, 81, 99
3, 46080, Note_on_c, 0, 78, 99
3, 46080, Note_on_c, 0, 74, 99
3, 46336, Note_on_c, 0, 81, 0
3, 46336, Note_on_c, 0, 78, 0
3, 46336, Note_on_c, 0, 74, 0
3, 46592, Note_on_c, 0, 79, 100
3, 46592, Note_on_c, 0, 76, 100
3, 46592, Note_on_c, 0, 69, 100
3, 46848, Note_on_c, 0, 79, 0
3, 46848, Note_on_c, 0, 76, 0
3, 46848, Note_on_c, 0, 69, 0
3, 47104, Note_on_c, 0, 78, 102
3, 47104, Note_on_c, 0, 74, 102
3, 47104, Note_on_c, 0, 69, 102
3, 47360, Note_on_c, 0, 78, 0
3, 47360, Note_on_c, 0, 74, 0
3, 47360, Note_on_c, 0, 69, 0
3, 48128, Note_on_c, 0, 81, 70
3, 48128, Note_on_c, 0, 78, 70
3, 48128, Note_on_c, 0, 74, 70
3, 48384, Note_on_c, 0, 81, 0
3, 48384, Note_on_c, 0, 78, 0
3, 48384, Note_on_c, 0, 74, 0
3, 49152, Note_on_c, 0, 78, 72
3, 49152, Note_on_c, 0, 74, 72
3, 49152, Note_on_c, 0, 69, 72
3, 49408, Note_on_c, 0, 78, 0
3, 49408, Note_on_c, 0, 74, 0
3, 49408, Note_on_c, 0, 69, 0
3, 50176, Note_on_c, 0, 74, 74
3, 50176, Note_on_c, 0, 69, 74
3, 50176, Note_on_c, 0, 66, 74
3, 50432, Note_on_c, 0, 74, 0
3, 50432, Note_on_c, 0, 69, 0
3, 50432, Note_on_c, 0, 66, 0
3, 59392, Note_on_c, 0, 81, 86
3, 59392, Note_on_c, 0, 76, 86
3, 59392, Note_on_c, 0, 69, 86
3, 59648, Note_on_c, 0, 81, 0
3, 59648, Note_on_c, 0, 76, 0
3, 59648, Note_on_c, 0, 69, 0
3, 60416, Note_on_c, 0, 85, 75
3, 60416, Note_on_c, 0, 81, 75
3, 60416, Note_on_c, 0, 76, 75
3, 60672, Note_on_c, 0, 85, 0
3, 60672, Note_on_c, 0, 81, 0
3, 60672, Note_on_c, 0, 76, 0
3, 61440, Note_on_c, 0, 81, 75
3, 61440, Note_on_c, 0, 76, 75
3, 61440, Note_on_c, 0, 69, 75
3, 61696, Note_on_c, 0, 81, 0
3, 61696, Note_on_c, 0, 76, 0
3, 61696, Note_on_c, 0, 69, 0
3, 62464, Note_on_c, 0, 76, 75
3, 62464, Note_on_c, 0, 69, 75
3, 62464, Note_on_c, 0, 69, 75
3, 62720, Note_on_c, 0, 76, 0
3, 62720, Note_on_c, 0, 69, 0
3, 62720, Note_on_c, 0, 69, 0
3, 83968, Program_c, 0, 73
3, 83968, Note_on_c, 0, 69, 36
3, 84096, Note_on_c, 0, 69, 0
3, 84096, Note_on_c, 0, 71, 36
3, 84224, Note_on_c, 0, 71, 0
3, 84224, Note_on_c, 0, 69, 37
3, 84352, Note_on_c, 0, 69, 0
3, 84352, Note_on_c, 0, 71, 37
3, 84480, Note_on_c, 0, 71, 0
3, 84480, Note_on_c, 0, 69, 37
3, 84608, Note_on_c, 0, 69, 0
3, 84608, Note_on_c, 0, 71, 38
3, 84736, Note_on_c, 0, 71, 0
3, 84736, Note_on_c, 0, 69, 38
3, 84864, Note_on_c, 0, 69, 0
3, 84864, Note_on_c, 0, 71, 38
3, 84992, Note_on_c, 0, 71, 0
3, 84992, Note_on_c, 0, 69, 39
3, 85120, Note_on_c, 0, 69, 0
3, 85120, Note_on_c, 0, 71, 39
3, 85248, Note_on_c, 0, 71, 0
3, 85248, Note_on_c, 0, 69, 39
3, 85376, Note_on_c, 0, 69, 0
3, 85376, Note_on_c, 0, 71, 40
3, 85504, Note_on_c, 0, 71, 0
3, 85504, Note_on_c, 0, 69, 40
3, 85632, Note_on_c, 0, 69, 0
3, 85632, Note_on_c, 0, 71, 40
3, 85760, Note_on_c, 0, 71, 0
3, 85760, Note_on_c, 0, 69, 40
3, 85888, Note_on_c, 0, 69, 0
3, 85888, Note_on_c, 0, 71, 41
3, 86016, Note_on_c, 0, 71, 0
3, 86016, Note_on_c, 0, 69, 41
3, 86144, Note_on_c, 0, 69, 0
3, 86144, Note_on_c, 0, 71, 41
3, 86272, Note_on_c, 0, 71, 0
3, 86272, Note_on_c, 0, 69, 42
3, 86400, Note_on_c, 0, 69, 0
3, 86400, Note_on_c, 0, 71, 42
3, 86528, Note_on_c, 0, 71, 0
3, 86528, Note_on_c, 0, 69, 42
3, 86656, Note_on_c, 0, 69, 0
3, 86656, Note_on_c, 0, 71, 43
3, 86784, Note_on_c, 0, 71, 0
3, 86784, Note_on_c, 0, 69, 43
3, 86912, Note_on_c, 0, 69, 0
3, 86912, Note_on_c, 0, 71, 43
3, 87040, Note_on_c, 0, 71, 0
3, 87040, Note_on_c, 0, 69, 44
3, 87552, Note_on_c, 0, 69, 0
3, 87552, Note_on_c, 0, 68, 45
3, 87723, Note_on_c, 0, 68, 0
3, 87723, Note_on_c, 0, 66, 45
3, 87893, Note_on_c, 0, 66, 0
3, 87893, Note_on_c, 0, 64, 46
3, 88064, Note_on_c, 0, 64, 0
3, 88064, Note_on_c, 0, 71, 46
3, 88320, Note_on_c, 0, 71, 0
3, 88320, Note_on_c, 0, 73, 47
3, 88576, Note_on_c, 0, 73, 0
3, 88576, Note_on_c, 0, 71, 48
3, 88832, Note_on_c, 0, 71, 0
3, 88832, Note_on_c, 0, 73, 48
3, 89088, Note_on_c, 0, 73, 0
3, 89088, Note_on_c, 0, 71, 49
3, 89344, Note_on_c, 0, 71, 0
3, 89344, Note_on_c, 0, 73, 49
3, 89600, Note_on_c, 0, 73, 0
3, 89600, Note_on_c, 0, 71, 50
3, 89856, Note_on_c, 0, 71, 0
3, 89856, Note_on_c, 0, 73, 51
3, 90112, Note_on_c, 0, 73, 0
3, 90112, Note_on_c, 0, 71, 51
3, 90240, Note_on_c, 0, 71, 0
3, 90240, Note_on_c, 0, 73, 52
3, 90368, Note_on_c, 0, 73, 0
3, 90368, Note_on_c, 0, 71, 52
3, 90496, Note_on_c, 0, 71, 0
3, 90496, Note_on_c, 0, 73, 52
3, 90624, Note_on_c, 0, 73, 0
3, 90624, Note_on_c, 0, 71, 53
3, 90752, Note_on_c, 0, 71, 0
3, 90752, Note_on_c, 0, 73, 53
3, 90880, Note_on_c, 0, 73, 0
3, 90880, Note_on_c, 0, 71, 53
3, 91008, Note_on_c, 0, 71, 0
3, 91008, Note_on_c, 0, 73, 54
3, 91136, Note_on_c, 0, 73, 0
3, 91136, Note_on_c, 0, 71, 54
3, 91264, Note_on_c, 0, 71, 0
3, 91264, Note_on_c, 0, 73, 54
3, 91392, Note_on_c, 0, 73, 0
3, 91392, Note_on_c, 0, 71, 55
3, 91520, Note_on_c, 0, 71, 0
3, 91520, Note_on_c, 0, 73, 55
3, 91648, Note_on_c, 0, 73, 0
3, 91648, Note_on_c, 0, 71, 55
3, 91776, Note_on_c, 0, 71, 0
3, 91776, Note_on_c, 0, 73, 56
3, 91904, Note_on_c, 0, 73, 0
3, 91904, Note_on_c, 0, 71, 56
3, 92032, Note_on_c, 0, 71, 0
3, 92032, Note_on_c, 0, 73, 56
3, 92160, Note_on_c, 0, 73, 0
3, 92160, Note_on_c, 0, 71, 57
3, 92288, Note_on_c, 0, 71, 0
3, 92288, Note_on_c, 0, 73, 57
3, 92416, Note_on_c, 0, 73, 0
3, 92416, Note_on_c, 0, 71, 57
3, 92544, Note_on_c, 0, 71, 0
3, 92544, Note_on_c, 0, 73, 58
3, 92672, Note_on_c, 0, 73, 0
3, 92672, Note_on_c, 0, 71, 58
3, 92800, Note_on_c, 0, 71, 0
3, 92800, Note_on_c, 0, 73, 58
3, 92928, Note_on_c, 0, 73, 0
3, 92928, Note_on_c, 0, 71, 58
3, 93056, Note_on_c, 0, 71, 0
3, 93056, Note_on_c, 0, 73, 59
3, 93184, Note_on_c, 0, 73, 0
3, 93184, Note_on_c, 0, 71, 59
3, 93696, Note_on_c, 0, 71, 0
3, 93696, Note_on_c, 0, 70, 60
3, 93867, Note_on_c, 0, 70, 0
3, 93867, Note_on_c, 0, 68, 61
3, 94037, Note_on_c, 0, 68, 0
3, 94037, Note_on_c, 0, 66, 61
3, 94208, Note_on_c, 0, 66, 0
3, 94208, Note_on_c, 0, 73, 62
3, 94464, Note_on_c, 0, 73, 0
3, 94464, Note_on_c, 0, 74, 62
3, 94720, Note_on_c, 0, 74, 0
3, 94720, Note_on_c, 0, 73, 63
3, 94976, Note_on_c, 0, 73, 0
3, 94976, Note_on_c, 0, 74, 64
3, 95232, Note_on_c, 0, 74, 0
3, 95232, Note_on_c, 0, 73, 64
3, 95488, Note_on_c, 0, 73, 0
3, 95488, Note_on_c, 0, 74, 65
3, 95744, Note_on_c, 0, 74, 0
3, 95744, Note_on_c, 0, 73, 66
3, 96000, Note_on_c, 0, 73, 0
3, 96000, Note_on_c, 0, 74, 66
3, 96256, Program_c, 0, 56
3, 96256, Note_on_c, 0, 74, 0
3, 146944, Note_on_c, 0, 76, 89
3, 147200, Note_on_c, 0, 76, 0
3, 147200, Note_on_c, 0, 78, 89
3, 147456, Note_on_c, 0, 78, 0
3, 147456, Note_on_c, 0, 76, 90
3, 147712, Note_on_c, 0, 76, 0
3, 147712, Note_on_c, 0, 78, 91
3, 147968, Note_on_c, 0, 78, 0
3, 147968, Note_on_c, 0, 76, 92
3, 148224, Note_on_c, 0, 76, 0
3, 148224, Note_on_c, 0, 78, 92
3, 148480, Note_on_c, 0, 78, 0
3, 148480, Note_on_c, 0, 76, 93
3, 148736, Note_on_c, 0, 76, 0
3, 148992, Note_on_c, 0, 78, 94
3, 149248, Note_on_c, 0, 78, 0
3, 149248, Note_on_c, 0, 80, 95
3, 149504, Note_on_c, 0, 80, 0
3, 149504, Note_on_c, 0, 81, 96
3, 149760, Note_on_c, 0, 81, 0
3, 150016, Note_on_c, 0, 83, 97
3, 150016, Note_on_c, 0, 78, 97
3, 150016, Note_on_c, 0, 74, 97
3, 150272, Note_on_c, 0, 83, 0
3, 150272, Note_on_c, 0, 78, 0
3, 150272, Note_on_c, 0, 74, 0
3, 150528, Note_on_c, 0, 76, 99
3, 150528, Note_on_c, 0, 76, 99
3, 150528, Note_on_c, 0, 74, 99
3, 150784, Note_on_c, 0, 76, 0
3, 150784, Note_on_c, 0, 76, 0
3, 150784, Note_on_c, 0, 74, 0
3, 151040, Note_on_c, 0, 80, 100
3, 151040, Note_on_c, 0, 76, 100
3, 151040, Note_on_c, 0, 74, 100
3, 151296, Note_on_c, 0, 80, 0
3, 151296, Note_on_c, 0, 76, 0
3, 151296, Note_on_c, 0, 74, 0
3, 151552, Note_on_c, 0, 81, 102
3, 151552, Note_on_c, 0, 76, 102
3, 151552, Note_on_c, 0, 69, 102
3, 153088, Note_on_c, 0, 81, 0
3, 153088, Note_on_c, 0, 76, 0
3, 153088, Note_on_c, 0, 69, 0
3, 171520, Note_on_c, 0, 74, 79
3, 171520, Note_on_c, 0, 66, 79
3, 171776, Note_on_c, 0, 74, 0
3, 171776, Note_on_c, 0, 76, 79
3, 171776, Note_on_c, 0, 66, 0
3, 172032, Note_on_c, 0, 76, 0
3, 172032, Note_on_c, 0, 78, 79
3, 172032, Note_on_c, 0, 74, 79
3, 172288, Note_on_c, 0, 78, 0
3, 172288, Note_on_c, 0, 74, 0
3, 172544, Note_on_c, 0, 79, 79
3, 172544, Note_on_c, 0, 76, 79
3, 172800, Note_on_c, 0, 79, 0
3, 172800, Note_on_c, 0, 76, 0
3, 173056, Note_on_c, 0, 81, 79
3, 173056, Note_on_c, 0, 78, 79
3, 173312, Note_on_c, 0, 81, 0
3, 173312, Note_on_c, 0, 78, 0
3, 173568, Note_on_c, 0, 83, 79
3, 173568, Note_on_c, 0, 79, 79
3, 173739, Note_on_c, 0, 83, 0
3, 173739, Note_on_c, 0, 81, 79
3, 173739, Note_on_c, 0, 79, 0
3, 173739, Note_on_c, 0, 78, 79
3, 173909, Note_on_c, 0, 81, 0
3, 173909, Note_on_c, 0, 79, 79
3, 173909, Note_on_c, 0, 78, 0
3, 173909, Note_on_c, 0, 76, 79
3, 174080, Note_on_c, 0, 79, 0
3, 174080, Note_on_c, 0, 81, 79
3, 174080, Note_on_c, 0, 76, 0
3, 174080, Note_on_c, 0, 78, 79
3, 174336, Note_on_c, 0, 81, 0
3, 174336, Note_on_c, 0, 78, 0
3, 174592, Note_on_c, 0, 81, 79
3, 174592, Note_on_c, 0, 78, 79
3, 174848, Note_on_c, 0, 81, 0
3, 174848, Note_on_c, 0, 79, 79
3, 174848, Note_on_c, 0, 78, 0
3, 174848, Note_on_c, 0, 76, 79
3, 175104, Note_on_c, 0, 79, 0
3, 175104, Note_on_c, 0, 81, 79
3, 175104, Note_on_c, 0, 76, 0
3, 175104, Note_on_c, 0, 78, 79
3, 175360, Note_on_c, 0, 81, 0
3, 175360, Note_on_c, 0, 78, 0
3, 175616, Note_on_c, 0, 83, 79
3, 175616, Note_on_c, 0, 79, 79
3, 175872, Note_on_c, 0, 83, 0
3, 175872, Note_on_c, 0, 81, 79
3, 175872, Note_on_c, 0, 79, 0
3, 175872, Note_on_c, 0, 78, 79
3, 176128, Note_on_c, 0, 81, 0
3, 176128, Note_on_c, 0, 78, 0
3, 176128, Note_on_c, 0, 79, 79
3, 176128, Note_on_c, 0, 76, 79
3, 176384, Note_on_c, 0, 79, 0
3, 176384, Note_on_c, 0, 76, 0
3, 176640, Note_on_c, 0, 81, 79
3, 176640, Note_on_c, 0, 78, 79
3, 176811, Note_on_c, 0, 81, 0
3, 176811, Note_on_c, 0, 79, 79
3, 176811, Note_on_c, 0, 78, 0
3, 176811, Note_on_c, 0, 76, 79
3, 176981, Note_on_c, 0, 79, 0
3, 176981, Note_on_c, 0, 78, 79
3, 176981, Note_on_c, 0, 76, 0
3, 176981, Note_on_c, 0, 74, 79
3, 177152, Note_on_c, 0, 78, 0
3, 177152, Note_on_c, 0, 79, 79
3, 177152, Note_on_c, 0, 74, 0
3, 177152, Note_on_c, 0, 76, 79
3, 177408, Note_on_c, 0, 79, 0
3, 177408, Note_on_c, 0, 76, 0
3, 177664, Note_on_c, 0, 79, 79
3, 177664, Note_on_c, 0, 76, 79
3, 177920, Note_on_c, 0, 79, 0
3, 177920, Note_on_c, 0, 78, 79
3, 177920, Note_on_c, 0, 76, 0
3, 177920, Note_on_c, 0, 74, 79
3, 178176, Note_on_c, 0, 78, 0
3, 178176, Note_on_c, 0, 79, 79
3, 178176, Note_on_c, 0, 74, 0
3, 178176, Note_on_c, 0, 76, 79
3, 178432, Note_on_c, 0, 79, 0
3, 178432, Note_on_c, 0, 76, 0
3, 178688, Note_on_c, 0, 81, 79
3, 178688, Note_on_c, 0, 78, 79
3, 178944, Note_on_c, 0, 81, 0
3, 178944, Note_on_c, 0, 79, 79
3, 178944, Note_on_c, 0, 78, 0
3, 178944, Note_on_c, 0, 76, 79
3, 179200, Note_on_c, 0, 79, 0
3, 179200, Note_on_c, 0, 76, 0
3, 179200, Note_on_c, 0, 78, 79
3, 179200, Note_on_c, 0, 74, 79
3, 179456, Note_on_c, 0, 78, 0
3, 179456, Note_on_c, 0, 74, 0
3, 179712, Note_on_c, 0, 79, 79
3, 179712, Note_on_c, 0, 76, 79
3, 179883, Note_on_c, 0, 79, 0
3, 179883, Note_on_c, 0, 78, 79
3, 179883, Note_on_c, 0, 76, 0
3, 179883, Note_on_c, 0, 74, 79
3, 180053, Note_on_c, 0, 78, 0
3, 180053, Note_on_c, 0, 76, 79
3, 180053, Note_on_c, 0, 74, 0
3, 180053, Note_on_c, 0, 73, 79
3, 180224, Note_on_c, 0, 76, 0
3, 180224, Note_on_c, 0, 78, 79
3, 180224, Note_on_c, 0, 73, 0
3, 180224, Note_on_c, 0, 74, 79
3, 180480, Note_on_c, 0, 78, 0
3, 180480, Note_on_c, 0, 74, 0
3, 180736, Note_on_c, 0, 78, 79
3, 180736, Note_on_c, 0, 74, 79
3, 180992, Note_on_c, 0, 78, 0
3, 180992, Note_on_c, 0, 76, 79
3, 180992, Note_on_c, 0, 74, 0
3, 180992, Note_on_c, 0, 69, 79
3, 181248, Note_on_c, 0, 76, 0
3, 181248, Note_on_c, 0, 78, 79
3, 181248, Note_on_c, 0, 69, 0
3, 181248, Note_on_c, 0, 74, 79
3, 181504, Note_on_c, 0, 78, 0
3, 181504, Note_on_c, 0, 74, 0
3, 181760, Note_on_c, 0, 79, 79
3, 181760, Note_on_c, 0, 76, 79
3, 182016, Note_on_c, 0, 79, 0
3, 182016, Note_on_c, 0, 78, 79
3, 182016, Note_on_c, 0, 76, 0
3, 182016, Note_on_c, 0, 74, 79
3, 182272, Note_on_c, 0, 78, 0
3, 182272, Note_on_c, 0, 74, 0
3, 182272, Note_on_c, 0, 76, 79
3, 182272, Note_on_c, 0, 76, 79
3, 182528, Note_on_c, 0, 76, 0
3, 182528, Note_on_c, 0, 76, 0
3, 263680, Note_on_c, 0, 69, 79
3, 263680, Note_on_c, 0, 66, 79
3, 263680, Note_on_c, 0, 62, 79
3, 263936, Note_on_c, 0, 69, 0
3, 263936, Note_on_c, 0, 66, 0
3, 263936, Note_on_c, 0, 62, 0
3, 264192, Note_on_c, 0, 74, 83
3, 264192, Note_on_c, 0, 69, 83
3, 264192, Note_on_c, 0, 62, 83
3, 264448, Note_on_c, 0, 74, 0
3, 264448, Note_on_c, 0, 69, 0
3, 264448, Note_on_c, 0, 62, 0
3, 264704, Note_on_c, 0, 76, 86
3, 264704, Note_on_c, 0, 69, 86
3, 264704, Note_on_c, 0, 69, 86
3, 264960, Note_on_c, 0, 76, 0
3, 264960, Note_on_c, 0, 69, 0
3, 264960, Note_on_c, 0, 69, 0
3, 265216, Note_on_c, 0, 78, 90
3, 265216, Note_on_c, 0, 69, 90
3, 265216, Note_on_c, 0, 62, 90
3, 265472, Note_on_c, 0, 78, 0
3, 265728, Note_on_c, 0, 79, 94
3, 265899, Note_on_c, 0, 79, 0
3, 265899, Note_on_c, 0, 78, 95
3, 266069, Note_on_c, 0, 78, 0
3, 266069, Note_on_c, 0, 76, 96
3, 266240, Note_on_c, 0, 76, 0
3, 266240, Note_on_c, 0, 78, 97
3, 266240, Note_on_c, 0, 69, 0
3, 266240, Note_on_c, 0, 62, 0
3, 266496, Note_on_c, 0, 78, 0
3, 266752, Note_on_c, 0, 83, 95
3, 266752, Note_on_c, 0, 79, 95
3, 266752, Note_on_c, 0, 74, 95
3, 267008, Note_on_c, 0, 83, 0
3, 267008, Note_on_c, 0, 79, 0
3, 267008, Note_on_c, 0, 74, 0
3, 267264, Note_on_c, 0, 81, 95
3, 267264, Note_on_c, 0, 78, 95
3, 267264, Note_on_c, 0, 74, 95
3, 267520, Note_on_c, 0, 81, 0
3, 267520, Note_on_c, 0, 78, 0
3, 267520, Note_on_c, 0, 74, 0
3, 267776, Note_on_c, 0, 79, 95
3, 267776, Note_on_c, 0, 76, 95
3, 267776, Note_on_c, 0, 69, 95
3, 268032, Note_on_c, 0, 79, 0
3, 268032, Note_on_c, 0, 76, 0
3, 268032, Note_on_c, 0, 69, 0
3, 268288, Note_on_c, 0, 78, 95
3, 268288, Note_on_c, 0, 74, 95
3, 268288, Note_on_c, 0, 69, 95
3, 268544, Note_on_c, 0, 78, 0
3, 268544, Note_on_c, 0, 74, 0
3, 268544, Note_on_c, 0, 69, 0
3, 269312, Note_on_c, 0, 81, 66
3, 269312, Note_on_c, 0, 78, 66
3, 269312, Note_on_c, 0, 74, 66
3, 269568, Note_on_c, 0, 81, 0
3, 269568, Note_on_c, 0, 78, 0
3, 269568, Note_on_c, 0, 74, 0
3, 270336, Note_on_c, 0, 78, 66
3, 270336, Note_on_c, 0, 81, 66
3, 270336, Note_on_c, 0, 78, 66
3, 270592, Note_on_c, 0, 78, 0
3, 270592, Note_on_c, 0, 81, 0
3, 270592, Note_on_c, 0, 78, 0
3, 271360, Note_on_c, 0, 74, 79
3, 271360, Note_on_c, 0, 83, 79
3, 271360, Note_on_c, 0, 79, 79
3, 271616, Note_on_c, 0, 74, 0
3, 271616, Note_on_c, 0, 83, 0
3, 271616, Note_on_c, 0, 79, 0
3, 271872, Note_on_c, 0, 76, 81
3, 272128, Note_on_c, 0, 76, 0
3, 272128, Note_on_c, 0, 78, 82
3, 272384, Note_on_c, 0, 78, 0
3, 272384, Note_on_c, 0, 79, 83
3, 272640, Note_on_c, 0, 79, 0
3, 272896, Note_on_c, 0, 81, 85
3, 272896, Note_on_c, 0, 81, 85
3, 272896, Note_on_c, 0, 76, 85
3, 273152, Note_on_c, 0, 81, 0
3, 273152, Note_on_c, 0, 81, 0
3, 273152, Note_on_c, 0, 76, 0
3, 273408, Note_on_c, 0, 79, 87
3, 273408, Note_on_c, 0, 81, 87
3, 273408, Note_on_c, 0, 74, 87
3, 273664, Note_on_c, 0, 79, 0
3, 273664, Note_on_c, 0, 78, 88
3, 273664, Note_on_c, 0, 81, 0
3, 273664, Note_on_c, 0, 74, 0
3, 273920, Note_on_c, 0, 78, 0
3, 273920, Note_on_c, 0, 76, 89
3, 273920, Note_on_c, 0, 80, 89
3, 273920, Note_on_c, 0, 62, 89
3, 274176, Note_on_c, 0, 76, 0
3, 274176, Note_on_c, 0, 74, 90
3, 274176, Note_on_c, 0, 80, 0
3, 274176, Note_on_c, 0, 62, 0
3, 274432, Note_on_c, 0, 74, 0
3, 274432, Note_on_c, 0, 76, 91
3, 274432, Note_on_c, 0, 81, 91
3, 274432, Note_on_c, 0, 69, 91
3, 274688, Note_on_c, 0, 76, 0
3, 274944, Note_on_c, 0, 78, 89
3, 275200, Note_on_c, 0, 78, 0
3, 275200, Note_on_c, 0, 79, 89
3, 275456, Note_on_c, 0, 79, 0
3, 275456, Note_on_c, 0, 81, 89
3, 275456, Note_on_c, 0, 81, 0
3, 275456, Note_on_c, 0, 69, 0
3, 275712, Note_on_c, 0, 81, 0
3, 275712, Note_on_c, 0, 79, 90
3, 275968, Note_on_c, 0, 79, 0
3, 275968, Note_on_c, 0, 81, 90
3, 275968, Note_on_c, 0, 69, 90
3, 275968, Note_on_c, 0, 69, 90
3, 276224, Note_on_c, 0, 81, 0
3, 276224, Note_on_c, 0, 83, 90
3, 276224, Note_on_c, 0, 69, 0
3, 276224, Note_on_c, 0, 69, 90
3, 276224, Note_on_c, 0, 69, 0
3, 276224, Note_on_c, 0, 69, 90
3, 276480, Note_on_c, 0, 83, 0
3, 276480, Note_on_c, 0, 81, 90
3, 276480, Note_on_c, 0, 69, 0
3, 276480, Note_on_c, 0, 69, 90
3, 276480, Note_on_c, 0, 69, 0
3, 276480, Note_on_c, 0, 69, 90
3, 276736, Note_on_c, 0, 81, 0
3, 276736, Note_on_c, 0, 79, 91
3, 276736, Note_on_c, 0, 69, 0
3, 276736, Note_on_c, 0, 69, 0
3, 276992, Note_on_c, 0, 79, 0
3, 276992, Note_on_c, 0, 78, 91
3, 276992, Note_on_c, 0, 69, 91
3, 276992, Note_on_c, 0, 69, 91
3, 277248, Note_on_c, 0, 78, 0
3, 277248, Note_on_c, 0, 76, 91
3, 277248, Note_on_c, 0, 69, 0
3, 277248, Note_on_c, 0, 69, 0
3, 277504, Note_on_c, 0, 76, 0
3, 277504, Note_on_c, 0, 78, 92
3, 277504, Note_on_c, 0, 69, 92
3, 277504, Note_on_c, 0, 69, 92
3, 277760, Note_on_c, 0, 78, 0
3, 277760, Note_on_c, 0, 69, 0
3, 277760, Note_on_c, 0, 69, 0
3, 278016, Note_on_c, 0, 79, 92
3, 278016, Note_on_c, 0, 69, 92
3, 278016, Note_on_c, 0, 69, 92
3, 278187, Note_on_c, 0, 79, 0
3, 278187, Note_on_c, 0, 78, 92
3, 278272, Note_on_c, 0, 69, 0
3, 278272, Note_on_c, 0, 69, 92
3, 278272, Note_on_c, 0, 69, 0
3, 278272, Note_on_c, 0, 69, 92
3, 278357, Note_on_c, 0, 78, 0
3, 278357, Note_on_c, 0, 76, 93
3, 278528, Note_on_c, 0, 76, 0
3, 278528, Note_on_c, 0, 78, 93
3, 278528, Note_on_c, 0, 69, 0
3, 278528, Note_on_c, 0, 69, 93
3, 278528, Note_on_c, 0, 69, 0
3, 278528, Note_on_c, 0, 69, 93
3, 278784, Note_on_c, 0, 78, 0
3, 278784, Note_on_c, 0, 69, 0
3, 278784, Note_on_c, 0, 69, 0
3, 279040, Note_on_c, 0, 79, 93
3, 279040, Note_on_c, 0, 74, 93
3, 279040, Note_on_c, 0, 62, 93
3, 279296, Note_on_c, 0, 79, 0
3, 279296, Note_on_c, 0, 74, 0
3, 279296, Note_on_c, 0, 76, 94
3, 279296, Note_on_c, 0, 62, 0
3, 279552, Note_on_c, 0, 81, 94
3, 279552, Note_on_c, 0, 76, 0
3, 279552, Note_on_c, 0, 78, 94
3, 279552, Note_on_c, 0, 74, 94
3, 279808, Note_on_c, 0, 81, 0
3, 279808, Note_on_c, 0, 78, 0
3, 279808, Note_on_c, 0, 76, 94
3, 279808, Note_on_c, 0, 74, 0
3, 280064, Note_on_c, 0, 83, 95
3, 280064, Note_on_c, 0, 76, 0
3, 280064, Note_on_c, 0, 78, 95
3, 280064, Note_on_c, 0, 74, 95
3, 280320, Note_on_c, 0, 83, 0
3, 280320, Note_on_c, 0, 78, 0
3, 280320, Note_on_c, 0, 74, 95
3, 280320, Note_on_c, 0, 74, 0
3, 280576, Note_on_c, 0, 74, 0
3, 280576, Note_on_c, 0, 76, 95
3, 280576, Note_on_c, 0, 81, 95
3, 280576, Note_on_c, 0, 69, 95
3, 281600, Note_on_c, 0, 76, 0
3, 281600, Note_on_c, 0, 81, 0
3, 281600, Note_on_c, 0, 69, 0
3, 283648, Note_on_c, 0, 81, 75
3, 283648, Note_on_c, 0, 78, 75
3, 283648, Note_on_c, 0, 74, 75
3, 283904, Note_on_c, 0, 81, 0
3, 283904, Note_on_c, 0, 78, 0
3, 283904, Note_on_c, 0, 74, 0
3, 284672, Note_on_c, 0, 86, 64
3, 284672, Note_on_c, 0, 81, 64
3, 284672, Note_on_c, 0, 78, 64
3, 284928, Note_on_c, 0, 86, 0
3, 284928, Note_on_c, 0, 81, 0
3, 284928, Note_on_c, 0, 78, 0
3, 285696, Note_on_c, 0, 81, 64
3, 285696, Note_on_c, 0, 78, 64
3, 285696, Note_on_c, 0, 74, 64
3, 285952, Note_on_c, 0, 81, 0
3, 285952, Note_on_c, 0, 78, 0
3, 285952, Note_on_c, 0, 74, 0
3, 286720, Note_on_c, 0, 78, 64
3, 286720, Note_on_c, 0, 74, 64
3, 286720, Note_on_c, 0, 69, 64
3, 286976, Note_on_c, 0, 78, 0
3, 286976, Note_on_c, 0, 74, 0
3, 286976, Note_on_c, 0, 69, 0
3, 295936, Note_on_c, 0, 78, 81
3, 295936, Note_on_c, 0, 74, 81
3, 295936, Note_on_c, 0, 69, 81
3, 296192, Note_on_c, 0, 78, 0
3, 296192, Note_on_c, 0, 74, 0
3, 296192, Note_on_c, 0, 69, 0
3, 296960, Note_on_c, 0, 81, 64
3, 296960, Note_on_c, 0, 78, 64
3, 296960, Note_on_c, 0, 74, 64
3, 297216, Note_on_c, 0, 81, 0
3, 297216, Note_on_c, 0, 78, 0
3, 297216, Note_on_c, 0, 74, 0
3, 297984, Note_on_c, 0, 78, 64
3, 297984, Note_on_c, 0, 74, 64
3, 297984, Note_on_c, 0, 69, 64
3, 298240, Note_on_c, 0, 78, 0
3, 298240, Note_on_c, 0, 74, 0
3, 298240, Note_on_c, 0, 69, 0
3, 299008, Note_on_c, 0, 74, 64
3, 299008, Note_on_c, 0, 69, 64
3, 299008, Note_on_c, 0, 66, 64
3, 299264, Note_on_c, 0, 74, 0
3, 299264, Note_on_c, 0, 69, 0
3, 299264, Note_on_c, 0, 66, 0
3, 309760, Note_on_c, 0, 76, 83
3, 309760, Note_on_c, 0, 69, 83
3, 310016, Note_on_c, 0, 76, 0
3, 310016, Note_on_c, 0, 69, 0
3, 310272, Note_on_c, 0, 78, 88
3, 310272, Note_on_c, 0, 69, 88
3, 310528, Note_on_c, 0, 78, 0
3, 310528, Note_on_c, 0, 69, 0
3, 310784, Note_on_c, 0, 79, 93
3, 310784, Note_on_c, 0, 76, 93
3, 311040, Note_on_c, 0, 79, 0
3, 311040, Note_on_c, 0, 76, 0
3, 311296, Note_on_c, 0, 81, 99
3, 311296, Note_on_c, 0, 78, 99
3, 311552, Note_on_c, 0, 81, 0
3, 311552, Note_on_c, 0, 78, 0
3, 311808, Note_on_c, 0, 83, 100
3, 311808, Note_on_c, 0, 79, 100
3, 311979, Note_on_c, 0, 83, 0
3, 311979, Note_on_c, 0, 81, 100
3, 311979, Note_on_c, 0, 79, 0
3, 311979, Note_on_c, 0, 78, 100
3, 312149, Note_on_c, 0, 81, 0
3, 312149, Note_on_c, 0, 79, 100
3, 312149, Note_on_c, 0, 78, 0
3, 312149, Note_on_c, 0, 76, 100
3, 312320, Note_on_c, 0, 79, 0
3, 312320, Note_on_c, 0, 81, 99
3, 312320, Note_on_c, 0, 76, 0
3, 312320, Note_on_c, 0, 78, 99
3, 312576, Note_on_c, 0, 81, 0
3, 312576, Note_on_c, 0, 78, 0
3, 312832, Note_on_c, 0, 81, 98
3, 312832, Note_on_c, 0, 78, 98
3, 313088, Note_on_c, 0, 81, 0
3, 313088, Note_on_c, 0, 79, 98
3, 313088, Note_on_c, 0, 78, 0
3, 313088, Note_on_c, 0, 76, 98
3, 313344, Note_on_c, 0, 79, 0
3, 313344, Note_on_c, 0, 81, 97
3, 313344, Note_on_c, 0, 76, 0
3, 313344, Note_on_c, 0, 78, 97
3, 313600, Note_on_c, 0, 81, 0
3, 313600, Note_on_c, 0, 78, 0
3, 313856, Note_on_c, 0, 83, 96
3, 313856, Note_on_c, 0, 79, 96
3, 314112, Note_on_c, 0, 83, 0
3, 314112, Note_on_c, 0, 81, 96
3, 314112, Note_on_c, 0, 79, 0
3, 314112, Note_on_c, 0, 78, 96
3, 314368, Note_on_c, 0, 81, 0
3, 314368, Note_on_c, 0, 78, 0
3, 314368, Note_on_c, 0, 79, 95
3, 314368, Note_on_c, 0, 76, 95
3, 314624, Note_on_c, 0, 79, 0
3, 314624, Note_on_c, 0, 76, 0
3, 314880, Note_on_c, 0, 81, 94
3, 314880, Note_on_c, 0, 78, 94
3, 315051, Note_on_c, 0, 81, 0
3, 315051, Note_on_c, 0, 79, 94
3, 315051, Note_on_c, 0, 78, 0
3, 315051, Note_on_c, 0, 76, 94
3, 315221, Note_on_c, 0, 79, 0
3, 315221, Note_on_c, 0, 78, 93
3, 315221, Note_on_c, 0, 76, 0
3, 315221, Note_on_c, 0, 74, 93
3, 315392, Note_on_c, 0, 78, 0
3, 315392, Note_on_c, 0, 79, 93
3, 315392, Note_on_c, 0, 74, 0
3, 315392, Note_on_c, 0, 76, 93
3, 315648, Note_on_c, 0, 79, 0
3, 315648, Note_on_c, 0, 76, 0
3, 315904, Note_on_c, 0, 79, 92
3, 315904, Note_on_c, 0, 76, 92
3, 316160, Note_on_c, 0, 79, 0
3, 316160, Note_on_c, 0, 78, 91
3, 316160, Note_on_c, 0, 76, 0
3, 316160, Note_on_c, 0, 74, 91
3, 316416, Note_on_c, 0, 78, 0
3, 316416, Note_on_c, 0, 79, 91
3, 316416, Note_on_c, 0, 74, 0
3, 316416, Note_on_c, 0, 76, 91
3, 316672, Note_on_c, 0, 79, 0
3, 316672, Note_on_c, 0, 76, 0
3, 316928, Note_on_c, 0, 81, 90
3, 316928, Note_on_c, 0, 78, 90
3, 317184, Note_on_c, 0, 81, 0
3, 317184, Note_on_c, 0, 79, 89
3, 317184, Note_on_c, 0, 78, 0
3, 317184, Note_on_c, 0, 76, 89
3, 317440, Note_on_c, 0, 79, 0
3, 317440, Note_on_c, 0, 76, 0
3, 317440, Note_on_c, 0, 78, 89
3, 317440, Note_on_c, 0, 74, 89
3, 317696, Note_on_c, 0, 78, 0
3, 317696, Note_on_c, 0, 74, 0
3, 317952, Note_on_c, 0, 79, 88
3, 317952, Note_on_c, 0, 76, 88
3, 318123, Note_on_c, 0, 79, 0
3, 318123, Note_on_c, 0, 78, 87
3, 318123, Note_on_c, 0, 76, 0
3, 318123, Note_on_c, 0, 74, 87
3, 318293, Note_on_c, 0, 78, 0
3, 318293, Note_on_c, 0, 76, 87
3, 318293, Note_on_c, 0, 74, 0
3, 318293, Note_on_c, 0, 73, 87
3, 318464, Note_on_c, 0, 76, 0
3, 318464, Note_on_c, 0, 78, 86
3, 318464, Note_on_c, 0, 73, 0
3, 318464, Note_on_c, 0, 74, 86
3, 318720, Note_on_c, 0, 78, 0
3, 318720, Note_on_c, 0, 74, 0
3, 318976, Note_on_c, 0, 78, 85
3, 318976, Note_on_c, 0, 74, 85
3, 319232, Note_on_c, 0, 78, 0
3, 319232, Note_on_c, 0, 76, 85
3, 319232, Note_on_c, 0, 74, 0
3, 319232, Note_on_c, 0, 69, 85
3, 319488, Note_on_c, 0, 76, 0
3, 319488, Note_on_c, 0, 78, 84
3, 319488, Note_on_c, 0, 69, 0
3, 319488, Note_on_c, 0, 74, 84
3, 319744, Note_on_c, 0, 78, 0
3, 319744, Note_on_c, 0, 74, 0
3, 320000, Note_on_c, 0, 79, 83
3, 320000, Note_on_c, 0, 74, 83
3, 320256, Note_on_c, 0, 79, 0
3, 320256, Note_on_c, 0, 78, 83
3, 320256, Note_on_c, 0, 74, 0
3, 320512, Note_on_c, 0, 78, 0
3, 320512, Note_on_c, 0, 76, 40
3, 320512, Note_on_c, 0, 74, 40
3, 320640, Note_on_c, 0, 74, 0
3, 320640, Note_on_c, 0, 76, 41
3, 320768, Note_on_c, 0, 76, 0
3, 320768, Note_on_c, 0, 74, 41
3, 320768, Note_on_c, 0, 76, 0
3, 320768, Note_on_c, 0, 74, 41
3, 320896, Note_on_c, 0, 74, 0
3, 320896, Note_on_c, 0, 76, 42
3, 321024, Note_on_c, 0, 74, 0
3, 321024, Note_on_c, 0, 76, 42
3, 321024, Note_on_c, 0, 76, 0
3, 321024, Note_on_c, 0, 74, 42
3, 321152, Note_on_c, 0, 74, 0
3, 321152, Note_on_c, 0, 76, 43
3, 321280, Note_on_c, 0, 76, 0
3, 321280, Note_on_c, 0, 78, 44
3, 321280, Note_on_c, 0, 76, 0
3, 321280, Note_on_c, 0, 74, 44
3, 321408, Note_on_c, 0, 74, 0
3, 321408, Note_on_c, 0, 76, 44
3, 321536, Note_on_c, 0, 78, 0
3, 321536, Note_on_c, 0, 76, 45
3, 321536, Note_on_c, 0, 76, 0
3, 321536, Note_on_c, 0, 74, 45
3, 321664, Note_on_c, 0, 74, 0
3, 321664, Note_on_c, 0, 76, 45
3, 321792, Note_on_c, 0, 76, 0
3, 321792, Note_on_c, 0, 78, 46
3, 321792, Note_on_c, 0, 76, 0
3, 321792, Note_on_c, 0, 74, 46
3, 321920, Note_on_c, 0, 74, 0
3, 321920, Note_on_c, 0, 76, 47
3, 322048, Note_on_c, 0, 78, 0
3, 322048, Note_on_c, 0, 76, 47
3, 322048, Note_on_c, 0, 76, 0
3, 322048, Note_on_c, 0, 74, 47
3, 322176, Note_on_c, 0, 74, 0
3, 322176, Note_on_c, 0, 76, 48
3, 322304, Note_on_c, 0, 76, 0
3, 322304, Note_on_c, 0, 78, 48
3, 322304, Note_on_c, 0, 76, 0
3, 322304, Note_on_c, 0, 74, 48
3, 322432, Note_on_c, 0, 74, 0
3, 322432, Note_on_c, 0, 76, 49
3, 322560, Note_on_c, 0, 78, 0
3, 322560, Note_on_c, 0, 76, 50
3, 322560, Note_on_c, 0, 76, 0
3, 322560, Note_on_c, 0, 74, 50
3, 322688, Note_on_c, 0, 74, 0
3, 322688, Note_on_c, 0, 76, 50
3, 322816, Note_on_c, 0, 76, 0
3, 322816, Note_on_c, 0, 78, 51
3, 322816, Note_on_c, 0, 76, 0
3, 322816, Note_on_c, 0, 74, 51
3, 322944, Note_on_c, 0, 74, 0
3, 322944, Note_on_c, 0, 76, 51
3, 323072, Note_on_c, 0, 78, 0
3, 323072, Note_on_c, 0, 76, 52
3, 323072, Note_on_c, 0, 76, 0
3, 323072, Note_on_c, 0, 74, 52
3, 323200, Note_on_c, 0, 74, 0
3, 323200, Note_on_c, 0, 76, 53
3, 323328, Note_on_c, 0, 76, 0
3, 323328, Note_on_c, 0, 78, 53
3, 323328, Note_on_c, 0, 76, 0
3, 323328, Note_on_c, 0, 74, 53
3, 323456, Note_on_c, 0, 74, 0
3, 323456, Note_on_c, 0, 76, 54
3, 323584, Note_on_c, 0, 78, 0
3, 323584, Note_on_c, 0, 76, 0
3, 323584, Note_on_c, 0, 79, 54
3, 323584, Note_on_c, 0, 74, 54
3, 323840, Note_on_c, 0, 79, 0
3, 323840, Note_on_c, 0, 78, 55
3, 323840, Note_on_c, 0, 74, 0
3, 324096, Note_on_c, 0, 78, 0
3, 324096, Note_on_c, 0, 79, 57
3, 324096, Note_on_c, 0, 69, 57
3, 324352, Note_on_c, 0, 79, 0
3, 324352, Note_on_c, 0, 81, 58
3, 324352, Note_on_c, 0, 69, 0
3, 324608, Note_on_c, 0, 81, 0
3, 324608, Note_on_c, 0, 79, 59
3, 324608, Note_on_c, 0, 76, 59
3, 324864, Note_on_c, 0, 79, 0
3, 324864, Note_on_c, 0, 81, 60
3, 324864, Note_on_c, 0, 76, 0
3, 324864, Note_on_c, 0, 78, 60
3, 325120, Note_on_c, 0, 81, 0
3, 325120, Note_on_c, 0, 79, 61
3, 325120, Note_on_c, 0, 78, 0
3, 325120, Note_on_c, 0, 76, 61
3, 325376, Note_on_c, 0, 79, 0
3, 325376, Note_on_c, 0, 81, 63
3, 325376, Note_on_c, 0, 76, 0
3, 325376, Note_on_c, 0, 78, 63
3, 325632, Note_on_c, 0, 81, 0
3, 325632, Note_on_c, 0, 79, 64
3, 325632, Note_on_c, 0, 78, 0
3, 325632, Note_on_c, 0, 76, 64
3, 325888, Note_on_c, 0, 79, 0
3, 325888, Note_on_c, 0, 81, 65
3, 325888, Note_on_c, 0, 76, 0
3, 325888, Note_on_c, 0, 78, 65
3, 326144, Note_on_c, 0, 81, 0
3, 326144, Note_on_c, 0, 79, 66
3, 326144, Note_on_c, 0, 78, 0
3, 326144, Note_on_c, 0, 76, 66
3, 326400, Note_on_c, 0, 79, 0
3, 326400, Note_on_c, 0, 81, 67
3, 326400, Note_on_c, 0, 76, 0
3, 326400, Note_on_c, 0, 78, 67
3, 326656, Note_on_c, 0, 81, 0
3, 326656, Note_on_c, 0, 78, 0
3, 326656, Note_on_c, 0, 78, 69
3, 326656, Note_on_c, 0, 76, 69
3, 326784, Note_on_c, 0, 76, 0
3, 326784, Note_on_c, 0, 78, 69
3, 326912, Note_on_c, 0, 78, 0
3, 326912, Note_on_c, 0, 76, 70
3, 326912, Note_on_c, 0, 78, 0
3, 326912, Note_on_c, 0, 76, 70
3, 327040, Note_on_c, 0, 76, 0
3, 327040, Note_on_c, 0, 78, 70
3, 327168, Note_on_c, 0, 76, 0
3, 327168, Note_on_c, 0, 78, 71
3, 327168, Note_on_c, 0, 78, 0
3, 327168, Note_on_c, 0, 76, 71
3, 327296, Note_on_c, 0, 76, 0
3, 327296, Note_on_c, 0, 78, 71
3, 327424, Note_on_c, 0, 78, 0
3, 327424, Note_on_c, 0, 79, 72
3, 327424, Note_on_c, 0, 78, 0
3, 327424, Note_on_c, 0, 76, 72
3, 327552, Note_on_c, 0, 76, 0
3, 327552, Note_on_c, 0, 78, 73
3, 327680, Note_on_c, 0, 79, 0
3, 327680, Note_on_c, 0, 78, 73
3, 327680, Note_on_c, 0, 78, 0
3, 327680, Note_on_c, 0, 76, 73
3, 327808, Note_on_c, 0, 76, 0
3, 327808, Note_on_c, 0, 78, 74
3, 327936, Note_on_c, 0, 78, 0
3, 327936, Note_on_c, 0, 79, 74
3, 327936, Note_on_c, 0, 78, 0
3, 327936, Note_on_c, 0, 76, 74
3, 328064, Note_on_c, 0, 76, 0
3, 328064, Note_on_c, 0, 78, 75
3, 328192, Note_on_c, 0, 79, 0
3, 328192, Note_on_c, 0, 78, 76
3, 328192, Note_on_c, 0, 78, 0
3, 328192, Note_on_c, 0, 76, 76
3, 328320, Note_on_c, 0, 76, 0
3, 328320, Note_on_c, 0, 78, 76
3, 328448, Note_on_c, 0, 78, 0
3, 328448, Note_on_c, 0, 79, 77
3, 328448, Note_on_c, 0, 78, 0
3, 328448, Note_on_c, 0, 76, 77
3, 328576, Note_on_c, 0, 76, 0
3, 328576, Note_on_c, 0, 78, 77
3, 328704, Note_on_c, 0, 79, 0
3, 328704, Note_on_c, 0, 78, 78
3, 328704, Note_on_c, 0, 78, 0
3, 328704, Note_on_c, 0, 76, 78
3, 328832, Note_on_c, 0, 76, 0
3, 328832, Note_on_c, 0, 78, 79
3, 328960, Note_on_c, 0, 78, 0
3, 328960, Note_on_c, 0, 79, 79
3, 328960, Note_on_c, 0, 78, 0
3, 328960, Note_on_c, 0, 76, 79
3, 329088, Note_on_c, 0, 76, 0
3, 329088, Note_on_c, 0, 78, 80
3, 329216, Note_on_c, 0, 79, 0
3, 329216, Note_on_c, 0, 78, 80
3, 329216, Note_on_c, 0, 78, 0
3, 329216, Note_on_c, 0, 76, 80
3, 329344, Note_on_c, 0, 76, 0
3, 329344, Note_on_c, 0, 78, 81
3, 329472, Note_on_c, 0, 78, 0
3, 329472, Note_on_c, 0, 79, 82
3, 329472, Note_on_c, 0, 78, 0
3, 329472, Note_on_c, 0, 76, 82
3, 329600, Note_on_c, 0, 76, 0
3, 329600, Note_on_c, 0, 78, 82
3, 329728, Note_on_c, 0, 79, 0
3, 329728, Note_on_c, 0, 78, 0
3, 329728, Note_on_c, 0, 81, 83
3, 329728, Note_on_c, 0, 76, 83
3, 329984, Note_on_c, 0, 81, 0
3, 329984, Note_on_c, 0, 79, 84
3, 329984, Note_on_c, 0, 76, 0
3, 330240, Note_on_c, 0, 79, 0
3, 330240, Note_on_c, 0, 81, 85
3, 330240, Note_on_c, 0, 78, 85
3, 330496, Note_on_c, 0, 81, 0
3, 330496, Note_on_c, 0, 83, 86
3, 330496, Note_on_c, 0, 78, 0
3, 330496, Note_on_c, 0, 76, 86
3, 330752, Note_on_c, 0, 83, 0
3, 330752, Note_on_c, 0, 81, 87
3, 330752, Note_on_c, 0, 76, 0
3, 330752, Note_on_c, 0, 78, 87
3, 331008, Note_on_c, 0, 81, 0
3, 331008, Note_on_c, 0, 83, 89
3, 331008, Note_on_c, 0, 78, 0
3, 331008, Note_on_c, 0, 79, 89
3, 331264, Note_on_c, 0, 83, 0
3, 331264, Note_on_c, 0, 81, 90
3, 331264, Note_on_c, 0, 79, 0
3, 331264, Note_on_c, 0, 78, 90
3, 331520, Note_on_c, 0, 81, 0
3, 331520, Note_on_c, 0, 83, 91
3, 331520, Note_on_c, 0, 78, 0
3, 331520, Note_on_c, 0, 79, 91
3, 331776, Note_on_c, 0, 83, 0
3, 331776, Note_on_c, 0, 81, 92
3, 331776, Note_on_c, 0, 79, 0
3, 331776, Note_on_c, 0, 78, 92
3, 332032, Note_on_c, 0, 81, 0
3, 332032, Note_on_c, 0, 83, 93
3, 332032, Note_on_c, 0, 78, 0
3, 332032, Note_on_c, 0, 79, 93
3, 332288, Note_on_c, 0, 83, 0
3, 332288, Note_on_c, 0, 81, 95
3, 332288, Note_on_c, 0, 79, 0
3, 332288, Note_on_c, 0, 78, 95
3, 332544, Note_on_c, 0, 81, 0
3, 332544, Note_on_c, 0, 83, 96
3, 332544, Note_on_c, 0, 78, 0
3, 332544, Note_on_c, 0, 79, 96
3, 332800, Note_on_c, 0, 83, 0
3, 332800, Note_on_c, 0, 79, 0
3, 332800, Note_on_c, 0, 79, 94
3, 332800, Note_on_c, 0, 76, 94
3, 333056, Note_on_c, 0, 79, 0
3, 333056, Note_on_c, 0, 76, 0
3, 333312, Note_on_c, 0, 81, 94
3, 333312, Note_on_c, 0, 76, 94
3, 333312, Note_on_c, 0, 69, 94
3, 333568, Note_on_c, 0, 81, 0
3, 333568, Note_on_c, 0, 79, 95
3, 333568, Note_on_c, 0, 76, 0
3, 333568, Note_on_c, 0, 69, 0
3, 333824, Note_on_c, 0, 79, 0
3, 333824, Note_on_c, 0, 78, 95
3, 333824, Note_on_c, 0, 74, 95
3, 333824, Note_on_c, 0, 69, 95
3, 334080, Note_on_c, 0, 78, 0
3, 334080, Note_on_c, 0, 74, 0
3, 334080, Note_on_c, 0, 69, 0
3, 334336, Note_on_c, 0, 83, 96
3, 334336, Note_on_c, 0, 79, 96
3, 334336, Note_on_c, 0, 62, 96
3, 334592, Note_on_c, 0, 83, 0
3, 334592, Note_on_c, 0, 79, 0
3, 334592, Note_on_c, 0, 62, 0
3, 334848, Note_on_c, 0, 81, 97
3, 334848, Note_on_c, 0, 74, 97
3, 334848, Note_on_c, 0, 69, 97
3, 335104, Note_on_c, 0, 81, 0
3, 335104, Note_on_c, 0, 79, 98
3, 335104, Note_on_c, 0, 74, 0
3, 335104, Note_on_c, 0, 69, 0
3, 335360, Note_on_c, 0, 79, 0
3, 335360, Note_on_c, 0, 78, 98
3, 335360, Note_on_c, 0, 69, 98
3, 335360, Note_on_c, 0, 69, 98
3, 335616, Note_on_c, 0, 78, 0
3, 335616, Note_on_c, 0, 76, 99
3, 335616, Note_on_c, 0, 69, 0
3, 335616, Note_on_c, 0, 69, 0
3, 335872, Note_on_c, 0, 76, 0
3, 335872, Note_on_c, 0, 74, 99
3, 335872, Note_on_c, 0, 66, 99
3, 335872, Note_on_c, 0, 62, 99
3, 336128, Note_on_c, 0, 74, 0
3, 336128, Note_on_c, 0, 76, 100
3, 336128, Note_on_c, 0, 66, 0
3, 336128, Note_on_c, 0, 62, 0
3, 336384, Note_on_c, 0, 76, 0
3, 336384, Note_on_c, 0, 78, 100
3, 336640, Note_on_c, 0, 78, 0
3, 336640, Note_on_c, 0, 79, 101
3, 336896, Note_on_c, 0, 79, 0
3, 336896, Note_on_c, 0, 81, 101
3, 337152, Note_on_c, 0, 81, 0
3, 337152, Note_on_c, 0, 74, 102
3, 337408, Note_on_c, 0, 74, 0
3, 337408, Note_on_c, 0, 86, 102
3, 337408, Note_on_c, 0, 81, 102
3, 337408, Note_on_c, 0, 69, 102
3, 337664, Note_on_c, 0, 81, 0
3, 337664, Note_on_c, 0, 79, 102
3, 337664, Note_on_c, 0, 69, 0
3, 337664, Note_on_c, 0, 69, 102
3, 337920, Note_on_c, 0, 79, 0
3, 337920, Note_on_c, 0, 78, 103
3, 337920, Note_on_c, 0, 69, 0
3, 337920, Note_on_c, 0, 69, 103
3, 338176, Note_on_c, 0, 78, 0
3, 338176, Note_on_c, 0, 69, 0
3, 338176, Note_on_c, 0, 66, 103
3, 338432, Note_on_c, 0, 86, 0
3, 338432, Note_on_c, 0, 85, 104
3, 338432, Note_on_c, 0, 76, 104
3, 338432, Note_on_c, 0, 66, 0
3, 338432, Note_on_c, 0, 69, 104
3, 338944, Note_on_c, 0, 85, 0
3, 338944, Note_on_c, 0, 76, 0
3, 338944, Note_on_c, 0, 69, 0
3, 338944, Note_on_c, 0, 86, 105
3, 338944, Note_on_c, 0, 78, 105
3, 338944, Note_on_c, 0, 69, 105
3, 339968, Note_on_c, 0, 86, 0
3, 339968, Note_on_c, 0, 78, 0
3, 339968, Note_on_c, 0, 69, 0
3, 365056, Note_on_c, 0, 69, 95
3, 365312, Note_on_c, 0, 69, 0
3, 365568, Note_on_c, 0, 74, 98
3, 365824, Note_on_c, 0, 74, 0
3, 366080, Note_on_c, 0, 76, 101
3, 366336, Note_on_c, 0, 76, 0
3, 366592, Note_on_c, 0, 78, 104
3, 366848, Note_on_c, 0, 78, 0
3, 367104, Note_on_c, 0, 79, 99
3, 367275, Note_on_c, 0, 79, 0
3, 367275, Note_on_c, 0, 78, 99
3, 367445, Note_on_c, 0, 78, 0
3, 367445, Note_on_c, 0, 76, 99
3, 367616, Note_on_c, 0, 76, 0
3, 367616, Note_on_c, 0, 78, 99
3, 367872, Note_on_c, 0, 78, 0
3, 368128, Note_on_c, 0, 79, 99
3, 368384, Note_on_c, 0, 79, 0
3, 368640, Note_on_c, 0, 78, 99
3, 368896, Note_on_c, 0, 78, 0
3, 369152, Note_on_c, 0, 76, 99
3, 369408, Note_on_c, 0, 76, 0
3, 369664, Note_on_c, 0, 74, 99
3, 370688, Note_on_c, 0, 74, 0
3, 371200, Note_on_c, 0, 74, 48
3, 371200, Note_on_c, 0, 66, 48
3, 371456, Note_on_c, 0, 74, 0
3, 371456, Note_on_c, 0, 76, 51
3, 371456, Note_on_c, 0, 66, 0
3, 371456, Note_on_c, 0, 69, 51
3, 371712, Note_on_c, 0, 76, 0
3, 371712, Note_on_c, 0, 78, 53
3, 371712, Note_on_c, 0, 69, 0
3, 371712, Note_on_c, 0, 74, 53
3, 371968, Note_on_c, 0, 78, 0
3, 371968, Note_on_c, 0, 74, 0
3, 372224, Note_on_c, 0, 79, 59
3, 372224, Note_on_c, 0, 76, 59
3, 372480, Note_on_c, 0, 79, 0
3, 372480, Note_on_c, 0, 76, 0
3, 372736, Note_on_c, 0, 81, 67
3, 372736, Note_on_c, 0, 78, 67
3, 372992, Note_on_c, 0, 81, 0
3, 372992, Note_on_c, 0, 78, 0
3, 373248, Note_on_c, 0, 83, 66
3, 373248, Note_on_c, 0, 79, 66
3, 373419, Note_on_c, 0, 83, 0
3, 373419, Note_on_c, 0, 81, 66
3, 373419, Note_on_c, 0, 79, 0
3, 373419, Note_on_c, 0, 78, 66
3, 373589, Note_on_c, 0, 81, 0
3, 373589, Note_on_c, 0, 79, 65
3, 373589, Note_on_c, 0, 78, 0
3, 373589, Note_on_c, 0, 76, 65
3, 373760, Note_on_c, 0, 79, 0
3, 373760, Note_on_c, 0, 81, 65
3, 373760, Note_on_c, 0, 76, 0
3, 373760, Note_on_c, 0, 78, 65
3, 374016, Note_on_c, 0, 81, 0
3, 374016, Note_on_c, 0, 78, 0
3, 374272, Note_on_c, 0, 81, 64
3, 374272, Note_on_c, 0, 78, 64
3, 374528, Note_on_c, 0, 81, 0
3, 374528, Note_on_c, 0, 79, 63
3, 374528, Note_on_c, 0, 78, 0
3, 374528, Note_on_c, 0, 76, 63
3, 374784, Note_on_c, 0, 79, 0
3, 374784, Note_on_c, 0, 81, 63
3, 374784, Note_on_c, 0, 76, 0
3, 374784, Note_on_c, 0, 78, 63
3, 375040, Note_on_c, 0, 81, 0
3, 375040, Note_on_c, 0, 78, 0
3, 375296, Note_on_c, 0, 83, 62
3, 375296, Note_on_c, 0, 79, 62
3, 375552, Note_on_c, 0, 83, 0
3, 375552, Note_on_c, 0, 81, 61
3, 375552, Note_on_c, 0, 79, 0
3, 375552, Note_on_c, 0, 78, 61
3, 375808, Note_on_c, 0, 81, 0
3, 375808, Note_on_c, 0, 78, 0
3, 375808, Note_on_c, 0, 79, 61
3, 375808, Note_on_c, 0, 76, 61
3, 376064, Note_on_c, 0, 79, 0
3, 376064, Note_on_c, 0, 76, 0
3, 376320, Note_on_c, 0, 81, 59
3, 376320, Note_on_c, 0, 78, 59
3, 376491, Note_on_c, 0, 81, 0
3, 376491, Note_on_c, 0, 79, 59
3, 376491, Note_on_c, 0, 78, 0
3, 376491, Note_on_c, 0, 76, 59
3, 376661, Note_on_c, 0, 79, 0
3, 376661, Note_on_c, 0, 78, 59
3, 376661, Note_on_c, 0, 76, 0
3, 376661, Note_on_c, 0, 74, 59
3, 376832, Note_on_c, 0, 78, 0
3, 376832, Note_on_c, 0, 79, 58
3, 376832, Note_on_c, 0, 74, 0
3, 376832, Note_on_c, 0, 76, 58
3, 377088, Note_on_c, 0, 79, 0
3, 377088, Note_on_c, 0, 76, 0
3, 377344, Note_on_c, 0, 79, 57
3, 377344, Note_on_c, 0, 76, 57
3, 377600, Note_on_c, 0, 79, 0
3, 377600, Note_on_c, 0, 78, 57
3, 377600, Note_on_c, 0, 76, 0
3, 377600, Note_on_c, 0, 74, 57
3, 377856, Note_on_c, 0, 78, 0
3, 377856, Note_on_c, 0, 79, 56
3, 377856, Note_on_c, 0, 74, 0
3, 377856, Note_on_c, 0, 76, 56
3, 378112, Note_on_c, 0, 79, 0
3, 378112, Note_on_c, 0, 76, 0
3, 378368, Note_on_c, 0, 81, 55
3, 378368, Note_on_c, 0, 78, 55
3, 378624, Note_on_c, 0, 81, 0
3, 378624, Note_on_c, 0, 79, 54
3, 378624, Note_on_c, 0, 78, 0
3, 378624, Note_on_c, 0, 76, 54
3, 378880, Note_on_c, 0, 79, 0
3, 378880, Note_on_c, 0, 76, 0
3, 378880, Note_on_c, 0, 78, 54
3, 378880, Note_on_c, 0, 74, 54
3, 379136, Note_on_c, 0, 78, 0
3, 379136, Note_on_c, 0, 74, 0
3, 379392, Note_on_c, 0, 79, 53
3, 379392, Note_on_c, 0, 76, 53
3, 379563, Note_on_c, 0, 79, 0
3, 379563, Note_on_c, 0, 78, 52
3, 379563, Note_on_c, 0, 76, 0
3, 379563, Note_on_c, 0, 74, 52
3, 379733, Note_on_c, 0, 78, 0
3, 379733, Note_on_c, 0, 76, 52
3, 379733, Note_on_c, 0, 74, 0
3, 379733, Note_on_c, 0, 73, 52
3, 379904, Note_on_c, 0, 76, 0
3, 379904, Note_on_c, 0, 78, 52
3, 379904, Note_on_c, 0, 73, 0
3, 379904, Note_on_c, 0, 74, 52
3, 380160, Note_on_c, 0, 78, 0
3, 380160, Note_on_c, 0, 74, 0
3, 380416, Note_on_c, 0, 78, 51
3, 380416, Note_on_c, 0, 74, 51
3, 380672, Note_on_c, 0, 78, 0
3, 380672, Note_on_c, 0, 76, 50
3, 380672, Note_on_c, 0, 74, 0
3, 380672, Note_on_c, 0, 69, 50
3, 380928, Note_on_c, 0, 76, 0
3, 380928, Note_on_c, 0, 78, 49
3, 380928, Note_on_c, 0, 69, 0
3, 380928, Note_on_c, 0, 74, 49
3, 381184, Note_on_c, 0, 78, 0
3, 381184, Note_on_c, 0, 74, 0
3, 381440, Note_on_c, 0, 79, 48
3, 381440, Note_on_c, 0, 74, 48
3, 381696, Note_on_c, 0, 79, 0
3, 381696, Note_on_c, 0, 78, 48
3, 381696, Note_on_c, 0, 74, 0
3, 381952, Note_on_c, 0, 78, 0
3, 381952, Note_on_c, 0, 76, 43
3, 381952, Note_on_c, 0, 74, 43
3, 382080, Note_on_c, 0, 74, 0
3, 382080, Note_on_c, 0, 76, 43
3, 382208, Note_on_c, 0, 76, 0
3, 382208, Note_on_c, 0, 74, 44
3, 382208, Note_on_c, 0, 76, 0
3, 382208, Note_on_c, 0, 74, 44
3, 382336, Note_on_c, 0, 74, 0
3, 382336, Note_on_c, 0, 76, 45
3, 382464, Note_on_c, 0, 74, 0
3, 382464, Note_on_c, 0, 76, 45
3, 382464, Note_on_c, 0, 76, 0
3, 382464, Note_on_c, 0, 74, 45
3, 382592, Note_on_c, 0, 74, 0
3, 382592, Note_on_c, 0, 76, 46
3, 382720, Note_on_c, 0, 76, 0
3, 382720, Note_on_c, 0, 78, 46
3, 382720, Note_on_c, 0, 76, 0
3, 382720, Note_on_c, 0, 74, 46
3, 382848, Note_on_c, 0, 74, 0
3, 382848, Note_on_c, 0, 76, 47
3, 382976, Note_on_c, 0, 78, 0
3, 382976, Note_on_c, 0, 76, 48
3, 382976, Note_on_c, 0, 76, 0
3, 382976, Note_on_c, 0, 74, 48
3, 383104, Note_on_c, 0, 74, 0
3, 383104, Note_on_c, 0, 76, 48
3, 383232, Note_on_c, 0, 76, 0
3, 383232, Note_on_c, 0, 78, 49
3, 383232, Note_on_c, 0, 76, 0
3, 383232, Note_on_c, 0, 74, 49
3, 383360, Note_on_c, 0, 74, 0
3, 383360, Note_on_c, 0, 76, 49
3, 383488, Note_on_c, 0, 78, 0
3, 383488, Note_on_c, 0, 76, 50
3, 383488, Note_on_c, 0, 76, 0
3, 383488, Note_on_c, 0, 74, 50
3, 383616, Note_on_c, 0, 74, 0
3, 383616, Note_on_c, 0, 76, 51
3, 383744, Note_on_c, 0, 76, 0
3, 383744, Note_on_c, 0, 78, 51
3, 383744, Note_on_c, 0, 76, 0
3, 383744, Note_on_c, 0, 74, 51
3, 383872, Note_on_c, 0, 74, 0
3, 383872, Note_on_c, 0, 76, 52
3, 384000, Note_on_c, 0, 78, 0
3, 384000, Note_on_c, 0, 76, 52
3, 384000, Note_on_c, 0, 76, 0
3, 384000, Note_on_c, 0, 74, 52
3, 384128, Note_on_c, 0, 74, 0
3, 384128, Note_on_c, 0, 76, 53
3, 384256, Note_on_c, 0, 76, 0
3, 384256, Note_on_c, 0, 78, 54
3, 384256, Note_on_c, 0, 76, 0
3, 384256, Note_on_c, 0, 74, 54
3, 384384, Note_on_c, 0, 74, 0
3, 384384, Note_on_c, 0, 76, 54
3, 384512, Note_on_c, 0, 78, 0
3, 384512, Note_on_c, 0, 76, 55
3, 384512, Note_on_c, 0, 76, 0
3, 384512, Note_on_c, 0, 74, 55
3, 384640, Note_on_c, 0, 74, 0
3, 384640, Note_on_c, 0, 76, 55
3, 384768, Note_on_c, 0, 76, 0
3, 384768, Note_on_c, 0, 78, 56
3, 384768, Note_on_c, 0, 76, 0
3, 384768, Note_on_c, 0, 74, 56
3, 384896, Note_on_c, 0, 74, 0
3, 384896, Note_on_c, 0, 76, 57
3, 385024, Note_on_c, 0, 78, 0
3, 385024, Note_on_c, 0, 76, 0
3, 385024, Note_on_c, 0, 79, 57
3, 385024, Note_on_c, 0, 74, 57
3, 385280, Note_on_c, 0, 79, 0
3, 385280, Note_on_c, 0, 78, 59
3, 385280, Note_on_c, 0, 74, 0
3, 385536, Note_on_c, 0, 78, 0
3, 385536, Note_on_c, 0, 79, 60
3, 385536, Note_on_c, 0, 69, 60
3, 385792, Note_on_c, 0, 79, 0
3, 385792, Note_on_c, 0, 81, 61
3, 385792, Note_on_c, 0, 69, 0
3, 386048, Note_on_c, 0, 81, 0
3, 386048, Note_on_c, 0, 79, 62
3, 386048, Note_on_c, 0, 76, 62
3, 386304, Note_on_c, 0, 79, 0
3, 386304, Note_on_c, 0, 81, 63
3, 386304, Note_on_c, 0, 76, 0
3, 386304, Note_on_c, 0, 78, 63
3, 386560, Note_on_c, 0, 81, 0
3, 386560, Note_on_c, 0, 79, 65
3, 386560, Note_on_c, 0, 78, 0
3, 386560, Note_on_c, 0, 76, 65
3, 386816, Note_on_c, 0, 79, 0
3, 386816, Note_on_c, 0, 81, 66
3, 386816, Note_on_c, 0, 76, 0
3, 386816, Note_on_c, 0, 78, 66
3, 387072, Note_on_c, 0, 81, 0
3, 387072, Note_on_c, 0, 79, 67
3, 387072, Note_on_c, 0, 78, 0
3, 387072, Note_on_c, 0, 76, 67
3, 387328, Note_on_c, 0, 79, 0
3, 387328, Note_on_c, 0, 81, 68
3, 387328, Note_on_c, 0, 76, 0
3, 387328, Note_on_c, 0, 78, 68
3, 387584, Note_on_c, 0, 81, 0
3, 387584, Note_on_c, 0, 79, 69
3, 387584, Note_on_c, 0, 78, 0
3, 387584, Note_on_c, 0, 76, 69
3, 387840, Note_on_c, 0, 79, 0
3, 387840, Note_on_c, 0, 81, 71
3, 387840, Note_on_c, 0, 76, 0
3, 387840, Note_on_c, 0, 78, 71
3, 388096, Note_on_c, 0, 81, 0
3, 388096, Note_on_c, 0, 78, 0
3, 388096, Note_on_c, 0, 78, 72
3, 388096, Note_on_c, 0, 76, 72
3, 388224, Note_on_c, 0, 76, 0
3, 388224, Note_on_c, 0, 78, 72
3, 388352, Note_on_c, 0, 78, 0
3, 388352, Note_on_c, 0, 76, 73
3, 388352, Note_on_c, 0, 78, 0
3, 388352, Note_on_c, 0, 76, 73
3, 388480, Note_on_c, 0, 76, 0
3, 388480, Note_on_c, 0, 78, 74
3, 388608, Note_on_c, 0, 76, 0
3, 388608, Note_on_c, 0, 78, 74
3, 388608, Note_on_c, 0, 78, 0
3, 388608, Note_on_c, 0, 76, 74
3, 388736, Note_on_c, 0, 76, 0
3, 388736, Note_on_c, 0, 78, 75
3, 388864, Note_on_c, 0, 78, 0
3, 388864, Note_on_c, 0, 79, 75
3, 388864, Note_on_c, 0, 78, 0
3, 388864, Note_on_c, 0, 76, 75
3, 388992, Note_on_c, 0, 76, 0
3, 388992, Note_on_c, 0, 78, 76
3, 389120, Note_on_c, 0, 79, 0
3, 389120, Note_on_c, 0, 78, 77
3, 389120, Note_on_c, 0, 78, 0
3, 389120, Note_on_c, 0, 76, 77
3, 389248, Note_on_c, 0, 76, 0
3, 389248, Note_on_c, 0, 78, 77
3, 389376, Note_on_c, 0, 78, 0
3, 389376, Note_on_c, 0, 79, 78
3, 389376, Note_on_c, 0, 78, 0
3, 389376, Note_on_c, 0, 76, 78
3, 389504, Note_on_c, 0, 76, 0
3, 389504, Note_on_c, 0, 78, 78
3, 389632, Note_on_c, 0, 79, 0
3, 389632, Note_on_c, 0, 78, 79
3, 389632, Note_on_c, 0, 78, 0
3, 389632, Note_on_c, 0, 76, 79
3, 389760, Note_on_c, 0, 76, 0
3, 389760, Note_on_c, 0, 78, 80
3, 389888, Note_on_c, 0, 78, 0
3, 389888, Note_on_c, 0, 79, 80
3, 389888, Note_on_c, 0, 78, 0
3, 389888, Note_on_c, 0, 76, 80
3, 390016, Note_on_c, 0, 76, 0
3, 390016, Note_on_c, 0, 78, 81
3, 390144, Note_on_c, 0, 79, 0
3, 390144, Note_on_c, 0, 78, 81
3, 390144, Note_on_c, 0, 78, 0
3, 390144, Note_on_c, 0, 76, 81
3, 390272, Note_on_c, 0, 76, 0
3, 390272, Note_on_c, 0, 78, 82
3, 390400, Note_on_c, 0, 78, 0
3, 390400, Note_on_c, 0, 79, 83
3, 390400, Note_on_c, 0, 78, 0
3, 390400, Note_on_c, 0, 76, 83
3, 390528, Note_on_c, 0, 76, 0
3, 390528, Note_on_c, 0, 78, 83
3, 390656, Note_on_c, 0, 79, 0
3, 390656, Note_on_c, 0, 78, 84
3, 390656, Note_on_c, 0, 78, 0
3, 390656, Note_on_c, 0, 76, 84
3, 390784, Note_on_c, 0, 76, 0
3, 390784, Note_on_c, 0, 78, 84
3, 390912, Note_on_c, 0, 78, 0
3, 390912, Note_on_c, 0, 79, 85
3, 390912, Note_on_c, 0, 78, 0
3, 390912, Note_on_c, 0, 76, 85
3, 391040, Note_on_c, 0, 76, 0
3, 391040, Note_on_c, 0, 78, 86
3, 391168, Note_on_c, 0, 79, 0
3, 391168, Note_on_c, 0, 78, 0
3, 391168, Note_on_c, 0, 81, 86
3, 391168, Note_on_c, 0, 76, 86
3, 391424, Note_on_c, 0, 81, 0
3, 391424, Note_on_c, 0, 79, 87
3, 391424, Note_on_c, 0, 76, 0
3, 391680, Note_on_c, 0, 79, 0
3, 391680, Note_on_c, 0, 81, 87
3, 391680, Note_on_c, 0, 78, 87
3, 391936, Note_on_c, 0, 81, 0
3, 391936, Note_on_c, 0, 83, 88
3, 391936, Note_on_c, 0, 78, 0
3, 391936, Note_on_c, 0, 76, 88
3, 392192, Note_on_c, 0, 83, 0
3, 392192, Note_on_c, 0, 81, 89
3, 392192, Note_on_c, 0, 76, 0
3, 392192, Note_on_c, 0, 78, 89
3, 392448, Note_on_c, 0, 81, 0
3, 392448, Note_on_c, 0, 83, 89
3, 392448, Note_on_c, 0, 78, 0
3, 392448, Note_on_c, 0, 79, 89
3, 392704, Note_on_c, 0, 83, 0
3, 392704, Note_on_c, 0, 81, 90
3, 392704, Note_on_c, 0, 79, 0
3, 392704, Note_on_c, 0, 78, 90
3, 392960, Note_on_c, 0, 81, 0
3, 392960, Note_on_c, 0, 83, 91
3, 392960, Note_on_c, 0, 78, 0
3, 392960, Note_on_c, 0, 79, 91
3, 393216, Note_on_c, 0, 83, 0
3, 393216, Note_on_c, 0, 81, 92
3, 393216, Note_on_c, 0, 79, 0
3, 393216, Note_on_c, 0, 78, 92
3, 393472, Note_on_c, 0, 81, 0
3, 393472, Note_on_c, 0, 83, 92
3, 393472, Note_on_c, 0, 78, 0
3, 393472, Note_on_c, 0, 79, 92
3, 393728, Note_on_c, 0, 83, 0
3, 393728, Note_on_c, 0, 81, 93
3, 393728, Note_on_c, 0, 79, 0
3, 393728, Note_on_c, 0, 78, 93
3, 393984, Note_on_c, 0, 81, 0
3, 393984, Note_on_c, 0, 83, 94
3, 393984, Note_on_c, 0, 78, 0
3, 393984, Note_on_c, 0, 79, 94
3, 394240, Note_on_c, 0, 83, 0
3, 394240, Note_on_c, 0, 79, 0
3, 394240, Note_on_c, 0, 79, 94
3, 394240, Note_on_c, 0, 76, 94
3, 394496, Note_on_c, 0, 79, 0
3, 394496, Note_on_c, 0, 76, 0
3, 394752, Note_on_c, 0, 81, 96
3, 394752, Note_on_c, 0, 76, 96
3, 394752, Note_on_c, 0, 69, 96
3, 395008, Note_on_c, 0, 81, 0
3, 395008, Note_on_c, 0, 79, 96
3, 395008, Note_on_c, 0, 76, 0
3, 395008, Note_on_c, 0, 69, 0
3, 395264, Note_on_c, 0, 79, 0
3, 395264, Note_on_c, 0, 78, 97
3, 395264, Note_on_c, 0, 74, 97
3, 395264, Note_on_c, 0, 69, 97
3, 395520, Note_on_c, 0, 78, 0
3, 395520, Note_on_c, 0, 74, 0
3, 395520, Note_on_c, 0, 69, 0
3, 395776, Note_on_c, 0, 83, 98
3, 395776, Note_on_c, 0, 74, 98
3, 395776, Note_on_c, 0, 62, 98
3, 396032, Note_on_c, 0, 83, 0
3, 396032, Note_on_c, 0, 74, 0
3, 396032, Note_on_c, 0, 62, 0
3, 396288, Note_on_c, 0, 81, 100
3, 396288, Note_on_c, 0, 74, 100
3, 396288, Note_on_c, 0, 69, 100
3, 396544, Note_on_c, 0, 81, 0
3, 396544, Note_on_c, 0, 79, 100
3, 396544, Note_on_c, 0, 74, 0
3, 396544, Note_on_c, 0, 69, 0
3, 396800, Note_on_c, 0, 79, 0
3, 396800, Note_on_c, 0, 78, 101
3, 396800, Note_on_c, 0, 69, 101
3, 396800, Note_on_c, 0, 69, 101
3, 397056, Note_on_c, 0, 78, 0
3, 397056, Note_on_c, 0, 76, 102
3, 397056, Note_on_c, 0, 69, 0
3, 397056, Note_on_c, 0, 69, 0
3, 397312, Note_on_c, 0, 76, 0
3, 397312, Note_on_c, 0, 74, 103
3, 397312, Note_on_c, 0, 66, 103
3, 397312, Note_on_c, 0, 62, 103
3, 397568, Note_on_c, 0, 74, 0
3, 397568, Note_on_c, 0, 66, 0
3, 397568, Note_on_c, 0, 62, 0
3, 397824, Note_on_c, 0, 78, 104
3, 397824, Note_on_c, 0, 69, 104
3, 397824, Note_on_c, 0, 62, 104
3, 398080, Note_on_c, 0, 78, 0
3, 398080, Note_on_c, 0, 76, 105
3, 398080, Note_on_c, 0, 69, 0
3, 398080, Note_on_c, 0, 62, 0
3, 398336, Note_on_c, 0, 76, 0
3, 398336, Note_on_c, 0, 74, 105
3, 398336, Note_on_c, 0, 74, 105
3, 398336, Note_on_c, 0, 69, 105
3, 398592, Note_on_c, 0, 74, 0
3, 398592, Note_on_c, 0, 74, 0
3, 398592, Note_on_c, 0, 69, 0
3, 398848, Note_on_c, 0, 79, 107
3, 398848, Note_on_c, 0, 74, 107
3, 398848, Note_on_c, 0, 74, 107
3, 399104, Note_on_c, 0, 79, 0
3, 399104, Note_on_c, 0, 74, 0
3, 399104, Note_on_c, 0, 74, 0
3, 399360, Note_on_c, 0, 76, 108
3, 399360, Note_on_c, 0, 81, 108
3, 399360, Note_on_c, 0, 69, 108
3, 399616, Note_on_c, 0, 76, 0
3, 399616, Note_on_c, 0, 81, 0
3, 399616, Note_on_c, 0, 69, 0
3, 399872, Note_on_c, 0, 81, 109
3, 399872, Note_on_c, 0, 76, 109
3, 399872, Note_on_c, 0, 69, 109
3, 400128, Note_on_c, 0, 81, 0
3, 400128, Note_on_c, 0, 76, 0
3, 400128, Note_on_c, 0, 69, 0
3, 400384, Note_on_c, 0, 78, 111
3, 400384, Note_on_c, 0, 74, 111
3, 400384, Note_on_c, 0, 69, 111
3, 403456, Note_on_c, 0, 78, 0
3, 403456, Note_on_c, 0, 74, 0
3, 403456, Note_on_c, 0, 69, 0
3, 409600, End_track
4, 0, Start_track
4, 0, Title_t, "Timpani"
4, 0, Program_c, 1, 47
4, 0, Control_c, 1, 121, 127
4, 0, Control_c, 1, 91, 127
4, 0, Control_c, 1, 10, 90
4, 2560, Note_on_c, 1, 50, 99
4, 3072, Note_on_c, 1, 50, 0
4, 3072, Note_on_c, 1, 50, 99
4, 3584, Note_on_c, 1, 50, 0
4, 3584, Note_on_c, 1, 45, 96
4, 4096, Note_on_c, 1, 45, 0
4, 4096, Note_on_c, 1, 50, 95
4, 5120, Note_on_c, 1, 50, 0
4, 5632, Note_on_c, 1, 50, 95
4, 6144, Note_on_c, 1, 50, 0
4, 6144, Note_on_c, 1, 50, 94
4, 6656, Note_on_c, 1, 50, 0
4, 6656, Note_on_c, 1, 45, 94
4, 7168, Note_on_c, 1, 45, 0
4, 7168, Note_on_c, 1, 50, 94
4, 7680, Note_on_c, 1, 50, 0
4, 8192, Note_on_c, 1, 50, 80
4, 8704, Note_on_c, 1, 50, 0
4, 9216, Note_on_c, 1, 50, 78
4, 9728, Note_on_c, 1, 50, 0
4, 10240, Note_on_c, 1, 50, 95
4, 10752, Note_on_c, 1, 50, 0
4, 11776, Note_on_c, 1, 45, 84
4, 12288, Note_on_c, 1, 45, 0
4, 12288, Note_on_c, 1, 50, 87
4, 12800, Note_on_c, 1, 50, 0
4, 12800, Note_on_c, 1, 50, 90
4, 13312, Note_on_c, 1, 50, 0
4, 13312, Note_on_c, 1, 45, 93
4, 14336, Note_on_c, 1, 45, 0
4, 14848, Note_on_c, 1, 45, 79
4, 15104, Note_on_c, 1, 45, 0
4, 15104, Note_on_c, 1, 45, 81
4, 15360, Note_on_c, 1, 45, 0
4, 15360, Note_on_c, 1, 45, 83
4, 15872, Note_on_c, 1, 45, 0
4, 15872, Note_on_c, 1, 45, 87
4, 16384, Note_on_c, 1, 45, 0
4, 16384, Note_on_c, 1, 50, 91
4, 16896, Note_on_c, 1, 50, 0
4, 16896, Note_on_c, 1, 45, 93
4, 17408, Note_on_c, 1, 45, 0
4, 17408, Note_on_c, 1, 50, 93
4, 17920, Note_on_c, 1, 50, 0
4, 17920, Note_on_c, 1, 50, 93
4, 18176, Note_on_c, 1, 50, 0
4, 18176, Note_on_c, 1, 50, 93
4, 18432, Note_on_c, 1, 50, 0
4, 18432, Note_on_c, 1, 50, 93
4, 18688, Note_on_c, 1, 50, 0
4, 18688, Note_on_c, 1, 50, 93
4, 18944, Note_on_c, 1, 50, 0
4, 18944, Note_on_c, 1, 50, 93
4, 19200, Note_on_c, 1, 50, 0
4, 19200, Note_on_c, 1, 50, 93
4, 19456, Note_on_c, 1, 50, 0
4, 19456, Note_on_c, 1, 45, 93
4, 19968, Note_on_c, 1, 45, 0
4, 20480, Note_on_c, 1, 45, 93
4, 20992, Note_on_c, 1, 45, 0
4, 21504, Note_on_c, 1, 45, 93
4, 22016, Note_on_c, 1, 45, 0
4, 22528, Note_on_c, 1, 45, 94
4, 23552, Note_on_c, 1, 45, 0
4, 24064, Note_on_c, 1, 50, 94
4, 24320, Note_on_c, 1, 50, 0
4, 24320, Note_on_c, 1, 50, 94
4, 24576, Note_on_c, 1, 50, 0
4, 24576, Note_on_c, 1, 50, 94
4, 25088, Note_on_c, 1, 50, 0
4, 25600, Note_on_c, 1, 45, 94
4, 26624, Note_on_c, 1, 45, 0
4, 42496, Note_on_c, 1, 50, 101
4, 43008, Note_on_c, 1, 50, 0
4, 43008, Note_on_c, 1, 50, 103
4, 43520, Note_on_c, 1, 50, 0
4, 43520, Note_on_c, 1, 45, 104
4, 44032, Note_on_c, 1, 45, 0
4, 44032, Note_on_c, 1, 50, 106
4, 45056, Note_on_c, 1, 50, 0
4, 45568, Note_on_c, 1, 50, 100
4, 46080, Note_on_c, 1, 50, 0
4, 46080, Note_on_c, 1, 45, 103
4, 46592, Note_on_c, 1, 45, 0
4, 46592, Note_on_c, 1, 45, 105
4, 47104, Note_on_c, 1, 45, 0
4, 47104, Note_on_c, 1, 50, 108
4, 47616, Note_on_c, 1, 50, 0
4, 48128, Note_on_c, 1, 50, 99
4, 48640, Note_on_c, 1, 50, 0
4, 49152, Note_on_c, 1, 50, 99
4, 49664, Note_on_c, 1, 50, 0
4, 50176, Note_on_c, 1, 50, 109
4, 50688, Note_on_c, 1, 50, 0
4, 59392, Note_on_c, 1, 45, 79
4, 59904, Note_on_c, 1, 45, 0
4, 60416, Note_on_c, 1, 45, 64
4, 60928, Note_on_c, 1, 45, 0
4, 61440, Note_on_c, 1, 45, 64
4, 61952, Note_on_c, 1, 45, 0
4, 62464, Note_on_c, 1, 45, 64
4, 62976, Note_on_c, 1, 45, 0
4, 83968, Program_c, 1, 68
4, 83968, Note_on_c, 1, 69, 41
4, 84096, Note_on_c, 1, 69, 0
4, 84096, Note_on_c, 1, 71, 42
4, 84224, Note_on_c, 1, 71, 0
4, 84224, Note_on_c, 1, 69, 43
4, 84352, Note_on_c, 1, 69, 0
4, 84352, Note_on_c, 1, 71, 45
4, 84480, Note_on_c, 1, 71, 0
4, 84480, Note_on_c, 1, 69, 46
4, 84608, Note_on_c, 1, 69, 0
4, 84608, Note_on_c, 1, 71, 47
4, 84736, Note_on_c, 1, 71, 0
4, 84736, Note_on_c, 1, 69, 49
4, 84864, Note_on_c, 1, 69, 0
4, 84864, Note_on_c, 1, 71, 50
4, 84992, Note_on_c, 1, 71, 0
4, 84992, Note_on_c, 1, 69, 51
4, 85120, Note_on_c, 1, 69, 0
4, 85120, Note_on_c, 1, 71, 53
4, 85248, Note_on_c, 1, 71, 0
4, 85248, Note_on_c, 1, 69, 54
4, 85376, Note_on_c, 1, 69, 0
4, 85376, Note_on_c, 1, 71, 55
4, 85504, Note_on_c, 1, 71, 0
4, 85504, Note_on_c, 1, 69, 57
4, 85632, Note_on_c, 1, 69, 0
4, 85632, Note_on_c, 1, 71, 58
4, 85760, Note_on_c, 1, 71, 0
4, 85760, Note_on_c, 1, 69, 59
4, 85888, Note_on_c, 1, 69, 0
4, 85888, Note_on_c, 1, 71, 61
4, 86016, Note_on_c, 1, 71, 0
4, 86016, Note_on_c, 1, 69, 62
4, 86144, Note_on_c, 1, 69, 0
4, 86144, Note_on_c, 1, 71, 63
4, 86272, Note_on_c, 1, 71, 0
4, 86272, Note_on_c, 1, 69, 65
4, 86400, Note_on_c, 1, 69, 0
4, 86400, Note_on_c, 1, 71, 66
4, 86528, Note_on_c, 1, 71, 0
4, 86528, Note_on_c, 1, 69, 67
4, 86656, Note_on_c, 1, 69, 0
4, 86656, Note_on_c, 1, 71, 69
4, 86784, Note_on_c, 1, 71, 0
4, 86784, Note_on_c, 1, 69, 70
4, 86912, Note_on_c, 1, 69, 0
4, 86912, Note_on_c, 1, 71, 71
4, 87040, Note_on_c, 1, 71, 0
4, 87040, Note_on_c, 1, 69, 73
4, 87552, Note_on_c, 1, 69, 0
4, 87552, Note_on_c, 1, 68, 43
4, 87808, Note_on_c, 1, 68, 0
4, 88576, Note_on_c, 1, 71, 51
4, 88832, Note_on_c, 1, 71, 0
4, 88832, Note_on_c, 1, 69, 53
4, 89088, Note_on_c, 1, 69, 0
4, 89088, Note_on_c, 1, 71, 55
4, 89344, Note_on_c, 1, 71, 0
4, 89600, Note_on_c, 1, 71, 59
4, 89856, Note_on_c, 1, 71, 0
4, 90112, Note_on_c, 1, 71, 56
4, 90240, Note_on_c, 1, 71, 0
4, 90240, Note_on_c, 1, 73, 57
4, 90368, Note_on_c, 1, 73, 0
4, 90368, Note_on_c, 1, 71, 58
4, 90496, Note_on_c, 1, 71, 0
4, 90496, Note_on_c, 1, 73, 59
4, 90624, Note_on_c, 1, 73, 0
4, 90624, Note_on_c, 1, 71, 60
4, 90752, Note_on_c, 1, 71, 0
4, 90752, Note_on_c, 1, 73, 61
4, 90880, Note_on_c, 1, 73, 0
4, 90880, Note_on_c, 1, 71, 62
4, 91008, Note_on_c, 1, 71, 0
4, 91008, Note_on_c, 1, 73, 63
4, 91136, Note_on_c, 1, 73, 0
4, 91136, Note_on_c, 1, 71, 64
4, 91264, Note_on_c, 1, 71, 0
4, 91264, Note_on_c, 1, 73, 65
4, 91392, Note_on_c, 1, 73, 0
4, 91392, Note_on_c, 1, 71, 66
4, 91520, Note_on_c, 1, 71, 0
4, 91520, Note_on_c, 1, 73, 67
4, 91648, Note_on_c, 1, 73, 0
4, 91648, Note_on_c, 1, 71, 68
4, 91776, Note_on_c, 1, 71, 0
4, 91776, Note_on_c, 1, 73, 69
4, 91904, Note_on_c, 1, 73, 0
4, 91904, Note_on_c, 1, 71, 70
4, 92032, Note_on_c, 1, 71, 0
4, 92032, Note_on_c, 1, 73, 71
4, 92160, Note_on_c, 1, 73, 0
4, 92160, Note_on_c, 1, 71, 72
4, 92288, Note_on_c, 1, 71, 0
4, 92288, Note_on_c, 1, 73, 73
4, 92416, Note_on_c, 1, 73, 0
4, 92416, Note_on_c, 1, 71, 74
4, 92544, Note_on_c, 1, 71, 0
4, 92544, Note_on_c, 1, 73, 75
4, 92672, Note_on_c, 1, 73, 0
4, 92672, Note_on_c, 1, 71, 76
4, 92800, Note_on_c, 1, 71, 0
4, 92800, Note_on_c, 1, 73, 77
4, 92928, Note_on_c, 1, 73, 0
4, 92928, Note_on_c, 1, 71, 78
4, 93056, Note_on_c, 1, 71, 0
4, 93056, Note_on_c, 1, 73, 79
4, 93184, Note_on_c, 1, 73, 0
4, 93184, Note_on_c, 1, 71, 80
4, 93696, Note_on_c, 1, 71, 0
4, 93696, Note_on_c, 1, 70, 45
4, 93952, Note_on_c, 1, 70, 0
4, 94720, Note_on_c, 1, 73, 55
4, 94976, Note_on_c, 1, 73, 0
4, 94976, Note_on_c, 1, 71, 58
4, 95232, Note_on_c, 1, 71, 0
4, 95232, Note_on_c, 1, 73, 60
4, 95488, Note_on_c, 1, 73, 0
4, 95744, Note_on_c, 1, 70, 65
4, 96000, Note_on_c, 1, 70, 0
4, 96256, Program_c, 1, 47
4, 150016, Note_on_c, 1, 50, 103
4, 150272, Note_on_c, 1, 50, 0
4, 150272, Note_on_c, 1, 50, 104
4, 150528, Note_on_c, 1, 50, 0
4, 150528, Note_on_c, 1, 50, 105
4, 151040, Note_on_c, 1, 50, 0
4, 151552, Note_on_c, 1, 45, 108
4, 153088, Note_on_c, 1, 45, 0
4, 263680, Note_on_c, 1, 50, 97
4, 264192, Note_on_c, 1, 50, 0
4, 264192, Note_on_c, 1, 50, 100
4, 264704, Note_on_c, 1, 50, 0
4, 264704, Note_on_c, 1, 45, 103
4, 265216, Note_on_c, 1, 45, 0
4, 265216, Note_on_c, 1, 50, 107
4, 266240, Note_on_c, 1, 50, 0
4, 266752, Note_on_c, 1, 50, 93
4, 267264, Note_on_c, 1, 50, 0
4, 267264, Note_on_c, 1, 50, 97
4, 267776, Note_on_c, 1, 50, 0
4, 267776, Note_on_c, 1, 45, 102
4, 268288, Note_on_c, 1, 45, 0
4, 268288, Note_on_c, 1, 50, 106
4, 268800, Note_on_c, 1, 50, 0
4, 269312, Note_on_c, 1, 50, 94
4, 269824, Note_on_c, 1, 50, 0
4, 270336, Note_on_c, 1, 50, 94
4, 270848, Note_on_c, 1, 50, 0
4, 271360, Note_on_c, 1, 50, 95
4, 271872, Note_on_c, 1, 50, 0
4, 272896, Note_on_c, 1, 45, 95
4, 273408, Note_on_c, 1, 45, 0
4, 273408, Note_on_c, 1, 50, 97
4, 273920, Note_on_c, 1, 50, 0
4, 273920, Note_on_c, 1, 50, 98
4, 274432, Note_on_c, 1, 50, 0
4, 274432, Note_on_c, 1, 45, 99
4, 275456, Note_on_c, 1, 45, 0
4, 275968, Note_on_c, 1, 45, 93
4, 276224, Note_on_c, 1, 45, 0
4, 276224, Note_on_c, 1, 45, 94
4, 276480, Note_on_c, 1, 45, 0
4, 276480, Note_on_c, 1, 45, 95
4, 276992, Note_on_c, 1, 45, 0
4, 276992, Note_on_c, 1, 45, 98
4, 277504, Note_on_c, 1, 45, 0
4, 277504, Note_on_c, 1, 50, 100
4, 278016, Note_on_c, 1, 50, 0
4, 278016, Note_on_c, 1, 45, 102
4, 278528, Note_on_c, 1, 45, 0
4, 278528, Note_on_c, 1, 50, 105
4, 279040, Note_on_c, 1, 50, 0
4, 279040, Note_on_c, 1, 50, 88
4, 279296, Note_on_c, 1, 50, 0
4, 279296, Note_on_c, 1, 50, 90
4, 279552, Note_on_c, 1, 50, 0
4, 279552, Note_on_c, 1, 50, 93
4, 279808, Note_on_c, 1, 50, 0
4, 279808, Note_on_c, 1, 50, 95
4, 280064, Note_on_c, 1, 50, 0
4, 280064, Note_on_c, 1, 50, 98
4, 280320, Note_on_c, 1, 50, 0
4, 280320, Note_on_c, 1, 50, 100
4, 280576, Note_on_c, 1, 50, 0
4, 280576, Note_on_c, 1, 45, 103
4, 281600, Note_on_c, 1, 45, 0
4, 283648, Note_on_c, 1, 50, 80
4, 284160, Note_on_c, 1, 50, 0
4, 284672, Note_on_c, 1, 50, 63
4, 285184, Note_on_c, 1, 50, 0
4, 285696, Note_on_c, 1, 50, 63
4, 286208, Note_on_c, 1, 50, 0
4, 286720, Note_on_c, 1, 50, 63
4, 287232, Note_on_c, 1, 50, 0
4, 295936, Note_on_c, 1, 50, 82
4, 296448, Note_on_c, 1, 50, 0
4, 296960, Note_on_c, 1, 50, 64
4, 297472, Note_on_c, 1, 50, 0
4, 297984, Note_on_c, 1, 50, 64
4, 298496, Note_on_c, 1, 50, 0
4, 299008, Note_on_c, 1, 50, 64
4, 299520, Note_on_c, 1, 50, 0
4, 320512, Program_c, 1, 68
4, 320512, Note_on_c, 1, 74, 38
4, 320640, Note_on_c, 1, 74, 0
4, 320640, Note_on_c, 1, 76, 39
4, 320768, Note_on_c, 1, 76, 0
4, 320768, Note_on_c, 1, 74, 40
4, 320896, Note_on_c, 1, 74, 0
4, 320896, Note_on_c, 1, 76, 41
4, 321024, Note_on_c, 1, 76, 0
4, 321024, Note_on_c, 1, 74, 43
4, 321152, Note_on_c, 1, 74, 0
4, 321152, Note_on_c, 1, 76, 44
4, 321280, Note_on_c, 1, 76, 0
4, 321280, Note_on_c, 1, 74, 45
4, 321408, Note_on_c, 1, 74, 0
4, 321408, Note_on_c, 1, 76, 46
4, 321536, Note_on_c, 1, 76, 0
4, 321536, Note_on_c, 1, 74, 47
4, 321664, Note_on_c, 1, 74, 0
4, 321664, Note_on_c, 1, 76, 49
4, 321792, Note_on_c, 1, 76, 0
4, 321792, Note_on_c, 1, 74, 50
4, 321920, Note_on_c, 1, 74, 0
4, 321920, Note_on_c, 1, 76, 51
4, 322048, Note_on_c, 1, 76, 0
4, 322048, Note_on_c, 1, 74, 52
4, 322176, Note_on_c, 1, 74, 0
4, 322176, Note_on_c, 1, 76, 53
4, 322304, Note_on_c, 1, 76, 0
4, 322304, Note_on_c, 1, 74, 55
4, 322432, Note_on_c, 1, 74, 0
4, 322432, Note_on_c, 1, 76, 56
4, 322560, Note_on_c, 1, 76, 0
4, 322560, Note_on_c, 1, 74, 57
4, 322688, Note_on_c, 1, 74, 0
4, 322688, Note_on_c, 1, 76, 58
4, 322816, Note_on_c, 1, 76, 0
4, 322816, Note_on_c, 1, 74, 59
4, 322944, Note_on_c, 1, 74, 0
4, 322944, Note_on_c, 1, 76, 61
4, 323072, Note_on_c, 1, 76, 0
4, 323072, Note_on_c, 1, 74, 62
4, 323200, Note_on_c, 1, 74, 0
4, 323200, Note_on_c, 1, 76, 63
4, 323328, Note_on_c, 1, 76, 0
4, 323328, Note_on_c, 1, 74, 64
4, 323456, Note_on_c, 1, 74, 0
4, 323456, Note_on_c, 1, 76, 65
4, 323584, Note_on_c, 1, 76, 0
4, 323584, Note_on_c, 1, 74, 67
4, 324096, Note_on_c, 1, 74, 0
4, 324096, Note_on_c, 1, 73, 47
4, 324352, Note_on_c, 1, 73, 0
4, 325120, Note_on_c, 1, 76, 54
4, 325376, Note_on_c, 1, 76, 0
4, 325376, Note_on_c, 1, 74, 55
4, 325632, Note_on_c, 1, 74, 0
4, 325632, Note_on_c, 1, 76, 57
4, 325888, Note_on_c, 1, 76, 0
4, 326144, Note_on_c, 1, 76, 60
4, 326400, Note_on_c, 1, 76, 0
4, 326656, Note_on_c, 1, 76, 53
4, 326784, Note_on_c, 1, 76, 0
4, 326784, Note_on_c, 1, 78, 54
4, 326912, Note_on_c, 1, 78, 0
4, 326912, Note_on_c, 1, 76, 55
4, 327040, Note_on_c, 1, 76, 0
4, 327040, Note_on_c, 1, 78, 56
4, 327168, Note_on_c, 1, 78, 0
4, 327168, Note_on_c, 1, 76, 56
4, 327296, Note_on_c, 1, 76, 0
4, 327296, Note_on_c, 1, 78, 57
4, 327424, Note_on_c, 1, 78, 0
4, 327424, Note_on_c, 1, 76, 58
4, 327552, Note_on_c, 1, 76, 0
4, 327552, Note_on_c, 1, 78, 59
4, 327680, Note_on_c, 1, 78, 0
4, 327680, Note_on_c, 1, 76, 60
4, 327808, Note_on_c, 1, 76, 0
4, 327808, Note_on_c, 1, 78, 61
4, 327936, Note_on_c, 1, 78, 0
4, 327936, Note_on_c, 1, 76, 62
4, 328064, Note_on_c, 1, 76, 0
4, 328064, Note_on_c, 1, 78, 63
4, 328192, Note_on_c, 1, 78, 0
4, 328192, Note_on_c, 1, 76, 64
4, 328320, Note_on_c, 1, 76, 0
4, 328320, Note_on_c, 1, 78, 65
4, 328448, Note_on_c, 1, 78, 0
4, 328448, Note_on_c, 1, 76, 66
4, 328576, Note_on_c, 1, 76, 0
4, 328576, Note_on_c, 1, 78, 66
4, 328704, Note_on_c, 1, 78, 0
4, 328704, Note_on_c, 1, 76, 67
4, 328832, Note_on_c, 1, 76, 0
4, 328832, Note_on_c, 1, 78, 68
4, 328960, Note_on_c, 1, 78, 0
4, 328960, Note_on_c, 1, 76, 69
4, 329088, Note_on_c, 1, 76, 0
4, 329088, Note_on_c, 1, 78, 70
4, 329216, Note_on_c, 1, 78, 0
4, 329216, Note_on_c, 1, 76, 71
4, 329344, Note_on_c, 1, 76, 0
4, 329344, Note_on_c, 1, 78, 72
4, 329472, Note_on_c, 1, 78, 0
4, 329472, Note_on_c, 1, 76, 73
4, 329600, Note_on_c, 1, 76, 0
4, 329600, Note_on_c, 1, 78, 74
4, 329728, Program_c, 1, 47
4, 329728, Note_on_c, 1, 78, 0
4, 333312, Note_on_c, 1, 45, 79
4, 333824, Note_on_c, 1, 45, 0
4, 333824, Note_on_c, 1, 50, 81
4, 334336, Note_on_c, 1, 50, 0
4, 334336, Note_on_c, 1, 50, 83
4, 334592, Note_on_c, 1, 50, 0
4, 334592, Note_on_c, 1, 50, 84
4, 334848, Note_on_c, 1, 50, 0
4, 334848, Note_on_c, 1, 50, 85
4, 335360, Note_on_c, 1, 50, 0
4, 335360, Note_on_c, 1, 45, 88
4, 335872, Note_on_c, 1, 45, 0
4, 335872, Note_on_c, 1, 50, 90
4, 336384, Note_on_c, 1, 50, 0
4, 337408, Note_on_c, 1, 50, 96
4, 337664, Note_on_c, 1, 50, 0
4, 337664, Note_on_c, 1, 50, 98
4, 337920, Note_on_c, 1, 50, 0
4, 337920, Note_on_c, 1, 45, 99
4, 338432, Note_on_c, 1, 45, 0
4, 338432, Note_on_c, 1, 45, 101
4, 338944, Note_on_c, 1, 45, 0
4, 338944, Note_on_c, 1, 50, 103
4, 339968, Note_on_c, 1, 50, 0
4, 381952, Program_c, 1, 68
4, 381952, Note_on_c, 1, 74, 32
4, 382080, Note_on_c, 1, 74, 0
4, 382080, Note_on_c, 1, 76, 33
4, 382208, Note_on_c, 1, 76, 0
4, 382208, Note_on_c, 1, 74, 34
4, 382336, Note_on_c, 1, 74, 0
4, 382336, Note_on_c, 1, 76, 35
4, 382464, Note_on_c, 1, 76, 0
4, 382464, Note_on_c, 1, 74, 37
4, 382592, Note_on_c, 1, 74, 0
4, 382592, Note_on_c, 1, 76, 38
4, 382720, Note_on_c, 1, 76, 0
4, 382720, Note_on_c, 1, 74, 39
4, 382848, Note_on_c, 1, 74, 0
4, 382848, Note_on_c, 1, 76, 40
4, 382976, Note_on_c, 1, 76, 0
4, 382976, Note_on_c, 1, 74, 41
4, 383104, Note_on_c, 1, 74, 0
4, 383104, Note_on_c, 1, 76, 42
4, 383232, Note_on_c, 1, 76, 0
4, 383232, Note_on_c, 1, 74, 43
4, 383360, Note_on_c, 1, 74, 0
4, 383360, Note_on_c, 1, 76, 44
4, 383488, Note_on_c, 1, 76, 0
4, 383488, Note_on_c, 1, 74, 45
4, 383616, Note_on_c, 1, 74, 0
4, 383616, Note_on_c, 1, 76, 46
4, 383744, Note_on_c, 1, 76, 0
4, 383744, Note_on_c, 1, 74, 47
4, 383872, Note_on_c, 1, 74, 0
4, 383872, Note_on_c, 1, 76, 49
4, 384000, Note_on_c, 1, 76, 0
4, 384000, Note_on_c, 1, 74, 50
4, 384128, Note_on_c, 1, 74, 0
4, 384128, Note_on_c, 1, 76, 51
4, 384256, Note_on_c, 1, 76, 0
4, 384256, Note_on_c, 1, 74, 52
4, 384384, Note_on_c, 1, 74, 0
4, 384384, Note_on_c, 1, 76, 53
4, 384512, Note_on_c, 1, 76, 0
4, 384512, Note_on_c, 1, 74, 54
4, 384640, Note_on_c, 1, 74, 0
4, 384640, Note_on_c, 1, 76, 55
4, 384768, Note_on_c, 1, 76, 0
4, 384768, Note_on_c, 1, 74, 56
4, 384896, Note_on_c, 1, 74, 0
4, 384896, Note_on_c, 1, 76, 57
4, 385024, Note_on_c, 1, 76, 0
4, 385024, Note_on_c, 1, 74, 58
4, 385536, Note_on_c, 1, 74, 0
4, 385536, Note_on_c, 1, 73, 59
4, 385792, Note_on_c, 1, 73, 0
4, 386560, Note_on_c, 1, 76, 66
4, 386816, Note_on_c, 1, 76, 0
4, 386816, Note_on_c, 1, 74, 68
4, 387072, Note_on_c, 1, 74, 0
4, 387072, Note_on_c, 1, 76, 70
4, 387328, Note_on_c, 1, 76, 0
4, 387584, Note_on_c, 1, 76, 74
4, 387840, Note_on_c, 1, 76, 0
4, 388096, Note_on_c, 1, 76, 51
4, 388224, Note_on_c, 1, 76, 0
4, 388224, Note_on_c, 1, 78, 52
4, 388352, Note_on_c, 1, 78, 0
4, 388352, Note_on_c, 1, 76, 53
4, 388480, Note_on_c, 1, 76, 0
4, 388480, Note_on_c, 1, 78, 54
4, 388608, Note_on_c, 1, 78, 0
4, 388608, Note_on_c, 1, 76, 55
4, 388736, Note_on_c, 1, 76, 0
4, 388736, Note_on_c, 1, 78, 56
4, 388864, Note_on_c, 1, 78, 0
4, 388864, Note_on_c, 1, 76, 57
4, 388992, Note_on_c, 1, 76, 0
4, 388992, Note_on_c, 1, 78, 58
4, 389120, Note_on_c, 1, 78, 0
4, 389120, Note_on_c, 1, 76, 59
4, 389248, Note_on_c, 1, 76, 0
4, 389248, Note_on_c, 1, 78, 60
4, 389376, Note_on_c, 1, 78, 0
4, 389376, Note_on_c, 1, 76, 61
4, 389504, Note_on_c, 1, 76, 0
4, 389504, Note_on_c, 1, 78, 62
4, 389632, Note_on_c, 1, 78, 0
4, 389632, Note_on_c, 1, 76, 63
4, 389760, Note_on_c, 1, 76, 0
4, 389760, Note_on_c, 1, 78, 65
4, 389888, Note_on_c, 1, 78, 0
4, 389888, Note_on_c, 1, 76, 66
4, 390016, Note_on_c, 1, 76, 0
4, 390016, Note_on_c, 1, 78, 67
4, 390144, Note_on_c, 1, 78, 0
4, 390144, Note_on_c, 1, 76, 68
4, 390272, Note_on_c, 1, 76, 0
4, 390272, Note_on_c, 1, 78, 69
4, 390400, Note_on_c, 1, 78, 0
4, 390400, Note_on_c, 1, 76, 70
4, 390528, Note_on_c, 1, 76, 0
4, 390528, Note_on_c, 1, 78, 71
4, 390656, Note_on_c, 1, 78, 0
4, 390656, Note_on_c, 1, 76, 72
4, 390784, Note_on_c, 1, 76, 0
4, 390784, Note_on_c, 1, 78, 73
4, 390912, Note_on_c, 1, 78, 0
4, 390912, Note_on_c, 1, 76, 74
4, 391040, Note_on_c, 1, 76, 0
4, 391040, Note_on_c, 1, 78, 75
4, 391168, Program_c, 1, 47
4, 391168, Note_on_c, 1, 78, 0
4, 394752, Note_on_c, 1, 45, 82
4, 395264, Note_on_c, 1, 45, 0
4, 395264, Note_on_c, 1, 50, 85
4, 395776, Note_on_c, 1, 50, 0
4, 395776, Note_on_c, 1, 50, 87
4, 396288, Note_on_c, 1, 50, 0
4, 396288, Note_on_c, 1, 50, 90
4, 396800, Note_on_c, 1, 50, 0
4, 396800, Note_on_c, 1, 45, 92
4, 397312, Note_on_c, 1, 45, 0
4, 397312, Note_on_c, 1, 50, 94
4, 397824, Note_on_c, 1, 50, 0
4, 397824, Note_on_c, 1, 50, 97
4, 398080, Note_on_c, 1, 50, 0
4, 398080, Note_on_c, 1, 50, 98
4, 398336, Note_on_c, 1, 50, 0
4, 398336, Note_on_c, 1, 50, 99
4, 398848, Note_on_c, 1, 50, 0
4, 398848, Note_on_c, 1, 50, 102
4, 399360, Note_on_c, 1, 50, 0
4, 399360, Note_on_c, 1, 45, 104
4, 399872, Note_on_c, 1, 45, 0
4, 399872, Note_on_c, 1, 45, 107
4, 400384, Note_on_c, 1, 45, 0
4, 400384, Note_on_c, 1, 50, 109
4, 403456, Note_on_c, 1, 50, 0
4, 409600, End_track
5, 0, Start_track
5, 0, Title_t, "Flute"
5, 0, Program_c, 2, 73
5, 0, Control_c, 2, 121, 127
5, 0, Control_c, 2, 91, 127
5, 0, Control_c, 2, 10, 40
5, 0, Control_c, 2, 1, 10
5, 2560, Note_on_c, 2, 69, 95
5, 2560, Note_on_c, 2, 69, 95
5, 2816, Note_on_c, 2, 69, 0
5, 2816, Note_on_c, 2, 69, 0
5, 3072, Note_on_c, 2, 74, 100
5, 3072, Note_on_c, 2, 74, 100
5, 3328, Note_on_c, 2, 74, 0
5, 3328, Note_on_c, 2, 74, 0
5, 3584, Note_on_c, 2, 76, 105
5, 3584, Note_on_c, 2, 76, 105
5, 3840, Note_on_c, 2, 76, 0
5, 3840, Note_on_c, 2, 76, 0
5, 4096, Note_on_c, 2, 78, 110
5, 4096, Note_on_c, 2, 78, 110
5, 4352, Note_on_c, 2, 78, 0
5, 4352, Note_on_c, 2, 78, 0
5, 4608, Note_on_c, 2, 79, 94
5, 4608, Note_on_c, 2, 79, 94
5, 4779, Note_on_c, 2, 79, 0
5, 4779, Note_on_c, 2, 78, 95
5, 4779, Note_on_c, 2, 79, 0
5, 4779, Note_on_c, 2, 78, 95
5, 4949, Note_on_c, 2, 78, 0
5, 4949, Note_on_c, 2, 76, 96
5, 4949, Note_on_c, 2, 78, 0
5, 4949, Note_on_c, 2, 76, 96
5, 5120, Note_on_c, 2, 76, 0
5, 5120, Note_on_c, 2, 78, 98
5, 5120, Note_on_c, 2, 76, 0
5, 5120, Note_on_c, 2, 78, 98
5, 5376, Note_on_c, 2, 78, 0
5, 5376, Note_on_c, 2, 78, 0
5, 5632, Note_on_c, 2, 83, 102
5, 5632, Note_on_c, 2, 83, 102
5, 5888, Note_on_c, 2, 83, 0
5, 5888, Note_on_c, 2, 83, 0
5, 6144, Note_on_c, 2, 81, 106
5, 6144, Note_on_c, 2, 81, 106
5, 6400, Note_on_c, 2, 81, 0
5, 6400, Note_on_c, 2, 81, 0
5, 6656, Note_on_c, 2, 79, 101
5, 6656, Note_on_c, 2, 79, 101
5, 6912, Note_on_c, 2, 79, 0
5, 6912, Note_on_c, 2, 79, 0
5, 7168, Note_on_c, 2, 78, 99
5, 7168, Note_on_c, 2, 78, 99
5, 7424, Note_on_c, 2, 78, 0
5, 7424, Note_on_c, 2, 76, 98
5, 7424, Note_on_c, 2, 78, 0
5, 7680, Note_on_c, 2, 76, 0
5, 7680, Note_on_c, 2, 74, 98
5, 7680, Note_on_c, 2, 69, 98
5, 7936, Note_on_c, 2, 74, 0
5, 7936, Note_on_c, 2, 76, 97
5, 7936, Note_on_c, 2, 69, 0
5, 8192, Note_on_c, 2, 76, 0
5, 8192, Note_on_c, 2, 78, 96
5, 8192, Note_on_c, 2, 74, 96
5, 8448, Note_on_c, 2, 78, 0
5, 8448, Note_on_c, 2, 79, 96
5, 8448, Note_on_c, 2, 74, 0
5, 8704, Note_on_c, 2, 79, 0
5, 8704, Note_on_c, 2, 81, 95
5, 8704, Note_on_c, 2, 78, 95
5, 8960, Note_on_c, 2, 81, 0
5, 8960, Note_on_c, 2, 83, 94
5, 8960, Note_on_c, 2, 78, 0
5, 8960, Note_on_c, 2, 76, 94
5, 9216, Note_on_c, 2, 83, 0
5, 9216, Note_on_c, 2, 81, 94
5, 9216, Note_on_c, 2, 76, 0
5, 9216, Note_on_c, 2, 78, 94
5, 9472, Note_on_c, 2, 81, 0
5, 9472, Note_on_c, 2, 79, 93
5, 9472, Note_on_c, 2, 78, 0
5, 9728, Note_on_c, 2, 79, 0
5, 9728, Note_on_c, 2, 78, 92
5, 9728, Note_on_c, 2, 74, 92
5, 9984, Note_on_c, 2, 78, 0
5, 9984, Note_on_c, 2, 76, 91
5, 10240, Note_on_c, 2, 76, 0
5, 10240, Note_on_c, 2, 74, 84
5, 10496, Note_on_c, 2, 74, 0
5, 10496, Note_on_c, 2, 74, 0
5, 10752, Note_on_c, 2, 76, 86
5, 10752, Note_on_c, 2, 76, 86
5, 11008, Note_on_c, 2, 76, 0
5, 11008, Note_on_c, 2, 78, 87
5, 11008, Note_on_c, 2, 76, 0
5, 11008, Note_on_c, 2, 78, 87
5, 11264, Note_on_c, 2, 78, 0
5, 11264, Note_on_c, 2, 79, 89
5, 11264, Note_on_c, 2, 78, 0
5, 11264, Note_on_c, 2, 79, 89
5, 11520, Note_on_c, 2, 79, 0
5, 11520, Note_on_c, 2, 79, 0
5, 11776, Note_on_c, 2, 81, 91
5, 11776, Note_on_c, 2, 81, 91
5, 12032, Note_on_c, 2, 81, 0
5, 12032, Note_on_c, 2, 81, 0
5, 12288, Note_on_c, 2, 79, 93
5, 12288, Note_on_c, 2, 79, 93
5, 12544, Note_on_c, 2, 79, 0
5, 12544, Note_on_c, 2, 78, 94
5, 12544, Note_on_c, 2, 79, 0
5, 12544, Note_on_c, 2, 78, 94
5, 12800, Note_on_c, 2, 78, 0
5, 12800, Note_on_c, 2, 76, 96
5, 12800, Note_on_c, 2, 78, 0
5, 12800, Note_on_c, 2, 76, 96
5, 13056, Note_on_c, 2, 76, 0
5, 13056, Note_on_c, 2, 74, 97
5, 13056, Note_on_c, 2, 76, 0
5, 13056, Note_on_c, 2, 74, 97
5, 13312, Note_on_c, 2, 74, 0
5, 13312, Note_on_c, 2, 74, 0
5, 13312, Note_on_c, 2, 76, 98
5, 13312, Note_on_c, 2, 76, 98
5, 13568, Note_on_c, 2, 76, 0
5, 13568, Note_on_c, 2, 76, 0
5, 13824, Note_on_c, 2, 69, 98
5, 13824, Note_on_c, 2, 69, 98
5, 14080, Note_on_c, 2, 69, 0
5, 14080, Note_on_c, 2, 69, 0
5, 14336, Note_on_c, 2, 73, 96
5, 14336, Note_on_c, 2, 73, 96
5, 14592, Note_on_c, 2, 73, 0
5, 14592, Note_on_c, 2, 73, 0
5, 14848, Note_on_c, 2, 76, 94
5, 14848, Note_on_c, 2, 76, 94
5, 15104, Note_on_c, 2, 76, 0
5, 15104, Note_on_c, 2, 76, 0
5, 15360, Note_on_c, 2, 81, 92
5, 15360, Note_on_c, 2, 81, 92
5, 15616, Note_on_c, 2, 81, 0
5, 15616, Note_on_c, 2, 79, 91
5, 15616, Note_on_c, 2, 81, 0
5, 15616, Note_on_c, 2, 79, 91
5, 15872, Note_on_c, 2, 79, 0
5, 15872, Note_on_c, 2, 78, 89
5, 15872, Note_on_c, 2, 79, 0
5, 15872, Note_on_c, 2, 78, 89
5, 16128, Note_on_c, 2, 78, 0
5, 16128, Note_on_c, 2, 76, 88
5, 16128, Note_on_c, 2, 78, 0
5, 16128, Note_on_c, 2, 76, 88
5, 16384, Note_on_c, 2, 76, 0
5, 16384, Note_on_c, 2, 76, 0
5, 16384, Note_on_c, 2, 78, 87
5, 16384, Note_on_c, 2, 78, 87
5, 16640, Note_on_c, 2, 78, 0
5, 16640, Note_on_c, 2, 78, 0
5, 16896, Note_on_c, 2, 79, 85
5, 16896, Note_on_c, 2, 79, 85
5, 17067, Note_on_c, 2, 79, 0
5, 17067, Note_on_c, 2, 78, 80
5, 17067, Note_on_c, 2, 79, 0
5, 17067, Note_on_c, 2, 78, 80
5, 17237, Note_on_c, 2, 78, 0
5, 17237, Note_on_c, 2, 76, 80
5, 17237, Note_on_c, 2, 78, 0
5, 17237, Note_on_c, 2, 76, 80
5, 17408, Note_on_c, 2, 76, 0
5, 17408, Note_on_c, 2, 78, 81
5, 17408, Note_on_c, 2, 76, 0
5, 17408, Note_on_c, 2, 78, 81
5, 17664, Note_on_c, 2, 78, 0
5, 17664, Note_on_c, 2, 78, 0
5, 17920, Note_on_c, 2, 79, 82
5, 17920, Note_on_c, 2, 79, 82
5, 18176, Note_on_c, 2, 79, 0
5, 18176, Note_on_c, 2, 79, 0
5, 18432, Note_on_c, 2, 81, 84
5, 18432, Note_on_c, 2, 81, 84
5, 18688, Note_on_c, 2, 81, 0
5, 18688, Note_on_c, 2, 81, 0
5, 18944, Note_on_c, 2, 83, 86
5, 18944, Note_on_c, 2, 83, 86
5, 19200, Note_on_c, 2, 83, 0
5, 19200, Note_on_c, 2, 83, 0
5, 19456, Note_on_c, 2, 76, 87
5, 19456, Note_on_c, 2, 76, 87
5, 19712, Note_on_c, 2, 76, 0
5, 19712, Note_on_c, 2, 81, 88
5, 19712, Note_on_c, 2, 76, 0
5, 19712, Note_on_c, 2, 81, 88
5, 19968, Note_on_c, 2, 81, 0
5, 19968, Note_on_c, 2, 80, 89
5, 19968, Note_on_c, 2, 81, 0
5, 19968, Note_on_c, 2, 80, 89
5, 20224, Note_on_c, 2, 80, 0
5, 20224, Note_on_c, 2, 78, 90
5, 20224, Note_on_c, 2, 80, 0
5, 20224, Note_on_c, 2, 78, 90
5, 20480, Note_on_c, 2, 78, 0
5, 20480, Note_on_c, 2, 76, 90
5, 20480, Note_on_c, 2, 78, 0
5, 20480, Note_on_c, 2, 76, 90
5, 20736, Note_on_c, 2, 76, 0
5, 20736, Note_on_c, 2, 74, 91
5, 20736, Note_on_c, 2, 76, 0
5, 20736, Note_on_c, 2, 74, 91
5, 20992, Note_on_c, 2, 74, 0
5, 20992, Note_on_c, 2, 73, 92
5, 20992, Note_on_c, 2, 74, 0
5, 20992, Note_on_c, 2, 73, 92
5, 21248, Note_on_c, 2, 73, 0
5, 21248, Note_on_c, 2, 74, 93
5, 21248, Note_on_c, 2, 73, 0
5, 21248, Note_on_c, 2, 74, 93
5, 21504, Note_on_c, 2, 74, 0
5, 21504, Note_on_c, 2, 76, 94
5, 21504, Note_on_c, 2, 74, 0
5, 21504, Note_on_c, 2, 76, 94
5, 21760, Note_on_c, 2, 76, 0
5, 21760, Note_on_c, 2, 78, 95
5, 21760, Note_on_c, 2, 76, 0
5, 21760, Note_on_c, 2, 78, 95
5, 22016, Note_on_c, 2, 78, 0
5, 22016, Note_on_c, 2, 76, 95
5, 22016, Note_on_c, 2, 78, 0
5, 22016, Note_on_c, 2, 76, 95
5, 22272, Note_on_c, 2, 76, 0
5, 22272, Note_on_c, 2, 78, 96
5, 22272, Note_on_c, 2, 76, 0
5, 22272, Note_on_c, 2, 78, 96
5, 22528, Note_on_c, 2, 78, 0
5, 22528, Note_on_c, 2, 78, 0
5, 22528, Note_on_c, 2, 76, 97
5, 22528, Note_on_c, 2, 76, 97
5, 22784, Note_on_c, 2, 76, 0
5, 22784, Note_on_c, 2, 74, 98
5, 22784, Note_on_c, 2, 76, 0
5, 22784, Note_on_c, 2, 74, 98
5, 23040, Note_on_c, 2, 74, 0
5, 23040, Note_on_c, 2, 73, 99
5, 23040, Note_on_c, 2, 74, 0
5, 23040, Note_on_c, 2, 73, 99
5, 23296, Note_on_c, 2, 73, 0
5, 23296, Note_on_c, 2, 71, 99
5, 23296, Note_on_c, 2, 73, 0
5, 23296, Note_on_c, 2, 71, 99
5, 23552, Note_on_c, 2, 71, 0
5, 23552, Note_on_c, 2, 69, 100
5, 23552, Note_on_c, 2, 71, 0
5, 23552, Note_on_c, 2, 69, 100
5, 23808, Note_on_c, 2, 69, 0
5, 23808, Note_on_c, 2, 69, 0
5, 24064, Note_on_c, 2, 74, 102
5, 24064, Note_on_c, 2, 74, 102
5, 24320, Note_on_c, 2, 74, 0
5, 24320, Note_on_c, 2, 74, 0
5, 24576, Note_on_c, 2, 74, 103
5, 24576, Note_on_c, 2, 74, 103
5, 24704, Note_on_c, 2, 74, 0
5, 24704, Note_on_c, 2, 73, 104
5, 24704, Note_on_c, 2, 74, 0
5, 24704, Note_on_c, 2, 73, 104
5, 24832, Note_on_c, 2, 73, 0
5, 24832, Note_on_c, 2, 74, 104
5, 24832, Note_on_c, 2, 73, 0
5, 24832, Note_on_c, 2, 74, 104
5, 24960, Note_on_c, 2, 74, 0
5, 24960, Note_on_c, 2, 73, 105
5, 24960, Note_on_c, 2, 74, 0
5, 24960, Note_on_c, 2, 73, 105
5, 25088, Note_on_c, 2, 73, 0
5, 25088, Note_on_c, 2, 71, 105
5, 25088, Note_on_c, 2, 73, 0
5, 25088, Note_on_c, 2, 71, 105
5, 25344, Note_on_c, 2, 71, 0
5, 25344, Note_on_c, 2, 69, 106
5, 25344, Note_on_c, 2, 71, 0
5, 25344, Note_on_c, 2, 69, 106
5, 25600, Note_on_c, 2, 69, 0
5, 25600, Note_on_c, 2, 69, 0
5, 25600, Note_on_c, 2, 69, 107
5, 25600, Note_on_c, 2, 69, 107
5, 26624, Note_on_c, 2, 69, 0
5, 26624, Note_on_c, 2, 69, 0
5, 42496, Note_on_c, 2, 69, 72
5, 42496, Note_on_c, 2, 69, 72
5, 42752, Note_on_c, 2, 69, 0
5, 42752, Note_on_c, 2, 69, 0
5, 43008, Note_on_c, 2, 74, 99
5, 43008, Note_on_c, 2, 74, 99
5, 43264, Note_on_c, 2, 74, 0
5, 43264, Note_on_c, 2, 74, 0
5, 43520, Note_on_c, 2, 76, 102
5, 43520, Note_on_c, 2, 76, 102
5, 43776, Note_on_c, 2, 76, 0
5, 43776, Note_on_c, 2, 76, 0
5, 44032, Note_on_c, 2, 78, 106
5, 44032, Note_on_c, 2, 78, 106
5, 44288, Note_on_c, 2, 78, 0
5, 44288, Note_on_c, 2, 78, 0
5, 44544, Note_on_c, 2, 79, 109
5, 44544, Note_on_c, 2, 79, 109
5, 44715, Note_on_c, 2, 79, 0
5, 44715, Note_on_c, 2, 78, 110
5, 44715, Note_on_c, 2, 79, 0
5, 44715, Note_on_c, 2, 78, 110
5, 44885, Note_on_c, 2, 78, 0
5, 44885, Note_on_c, 2, 76, 108
5, 44885, Note_on_c, 2, 78, 0
5, 44885, Note_on_c, 2, 76, 108
5, 45056, Note_on_c, 2, 76, 0
5, 45056, Note_on_c, 2, 78, 108
5, 45056, Note_on_c, 2, 76, 0
5, 45056, Note_on_c, 2, 78, 108
5, 45312, Note_on_c, 2, 78, 0
5, 45312, Note_on_c, 2, 78, 0
5, 45568, Note_on_c, 2, 83, 107
5, 45568, Note_on_c, 2, 83, 107
5, 45824, Note_on_c, 2, 83, 0
5, 45824, Note_on_c, 2, 83, 0
5, 46080, Note_on_c, 2, 81, 106
5, 46080, Note_on_c, 2, 81, 106
5, 46336, Note_on_c, 2, 81, 0
5, 46336, Note_on_c, 2, 81, 0
5, 46592, Note_on_c, 2, 79, 106
5, 46592, Note_on_c, 2, 79, 106
5, 46848, Note_on_c, 2, 79, 0
5, 46848, Note_on_c, 2, 79, 0
5, 47104, Note_on_c, 2, 78, 105
5, 47104, Note_on_c, 2, 78, 105
5, 47360, Note_on_c, 2, 78, 0
5, 47360, Note_on_c, 2, 79, 98
5, 47360, Note_on_c, 2, 78, 0
5, 47360, Note_on_c, 2, 76, 98
5, 47616, Note_on_c, 2, 79, 0
5, 47616, Note_on_c, 2, 78, 98
5, 47616, Note_on_c, 2, 76, 0
5, 47616, Note_on_c, 2, 74, 98
5, 47872, Note_on_c, 2, 78, 0
5, 47872, Note_on_c, 2, 79, 98
5, 47872, Note_on_c, 2, 74, 0
5, 47872, Note_on_c, 2, 76, 98
5, 48128, Note_on_c, 2, 79, 0
5, 48128, Note_on_c, 2, 78, 98
5, 48128, Note_on_c, 2, 76, 0
5, 48128, Note_on_c, 2, 74, 98
5, 48384, Note_on_c, 2, 78, 0
5, 48384, Note_on_c, 2, 79, 99
5, 48384, Note_on_c, 2, 74, 0
5, 48384, Note_on_c, 2, 76, 99
5, 48640, Note_on_c, 2, 79, 0
5, 48640, Note_on_c, 2, 78, 99
5, 48640, Note_on_c, 2, 76, 0
5, 48640, Note_on_c, 2, 74, 99
5, 48896, Note_on_c, 2, 78, 0
5, 48896, Note_on_c, 2, 79, 99
5, 48896, Note_on_c, 2, 74, 0
5, 48896, Note_on_c, 2, 76, 99
5, 49152, Note_on_c, 2, 79, 0
5, 49152, Note_on_c, 2, 78, 99
5, 49152, Note_on_c, 2, 76, 0
5, 49152, Note_on_c, 2, 74, 99
5, 49408, Note_on_c, 2, 78, 0
5, 49408, Note_on_c, 2, 79, 99
5, 49408, Note_on_c, 2, 74, 0
5, 49408, Note_on_c, 2, 76, 99
5, 49664, Note_on_c, 2, 79, 0
5, 49664, Note_on_c, 2, 78, 99
5, 49664, Note_on_c, 2, 76, 0
5, 49664, Note_on_c, 2, 74, 99
5, 49920, Note_on_c, 2, 78, 0
5, 49920, Note_on_c, 2, 79, 99
5, 49920, Note_on_c, 2, 74, 0
5, 49920, Note_on_c, 2, 76, 99
5, 50176, Note_on_c, 2, 79, 0
5, 50176, Note_on_c, 2, 76, 0
5, 50176, Note_on_c, 2, 78, 99
5, 50176, Note_on_c, 2, 74, 99
5, 50432, Note_on_c, 2, 78, 0
5, 50432, Note_on_c, 2, 74, 0
5, 59904, Note_on_c, 2, 81, 82
5, 59904, Note_on_c, 2, 73, 82
5, 60160, Note_on_c, 2, 81, 0
5, 60160, Note_on_c, 2, 83, 82
5, 60160, Note_on_c, 2, 73, 0
5, 60160, Note_on_c, 2, 74, 82
5, 60416, Note_on_c, 2, 83, 0
5, 60416, Note_on_c, 2, 85, 82
5, 60416, Note_on_c, 2, 74, 0
5, 60416, Note_on_c, 2, 76, 82
5, 60672, Note_on_c, 2, 85, 0
5, 60672, Note_on_c, 2, 86, 82
5, 60672, Note_on_c, 2, 76, 0
5, 60672, Note_on_c, 2, 78, 82
5, 60928, Note_on_c, 2, 86, 0
5, 60928, Note_on_c, 2, 85, 82
5, 60928, Note_on_c, 2, 78, 0
5, 60928, Note_on_c, 2, 76, 82
5, 61184, Note_on_c, 2, 85, 0
5, 61184, Note_on_c, 2, 86, 82
5, 61184, Note_on_c, 2, 76, 0
5, 61184, Note_on_c, 2, 78, 82
5, 61440, Note_on_c, 2, 86, 0
5, 61440, Note_on_c, 2, 85, 82
5, 61440, Note_on_c, 2, 78, 0
5, 61440, Note_on_c, 2, 76, 82
5, 61696, Note_on_c, 2, 85, 0
5, 61696, Note_on_c, 2, 86, 82
5, 61696, Note_on_c, 2, 76, 0
5, 61696, Note_on_c, 2, 78, 82
5, 61952, Note_on_c, 2, 86, 0
5, 61952, Note_on_c, 2, 85, 82
5, 61952, Note_on_c, 2, 78, 0
5, 61952, Note_on_c, 2, 76, 82
5, 62208, Note_on_c, 2, 85, 0
5, 62208, Note_on_c, 2, 83, 82
5, 62208, Note_on_c, 2, 76, 0
5, 62208, Note_on_c, 2, 74, 82
5, 62464, Note_on_c, 2, 83, 0
5, 62464, Note_on_c, 2, 74, 0
5, 62464, Note_on_c, 2, 81, 82
5, 62464, Note_on_c, 2, 73, 82
5, 62720, Note_on_c, 2, 81, 0
5, 62720, Note_on_c, 2, 73, 0
5, 66048, Note_on_c, 2, 78, 83
5, 66048, Note_on_c, 2, 78, 83
5, 66304, Note_on_c, 2, 78, 0
5, 66304, Note_on_c, 2, 80, 83
5, 66304, Note_on_c, 2, 78, 0
5, 66304, Note_on_c, 2, 77, 83
5, 66560, Note_on_c, 2, 80, 0
5, 66560, Note_on_c, 2, 81, 83
5, 66560, Note_on_c, 2, 77, 0
5, 66560, Note_on_c, 2, 78, 83
5, 66816, Note_on_c, 2, 81, 0
5, 66816, Note_on_c, 2, 83, 83
5, 66816, Note_on_c, 2, 78, 0
5, 66816, Note_on_c, 2, 80, 83
5, 67072, Note_on_c, 2, 83, 0
5, 67072, Note_on_c, 2, 81, 83
5, 67072, Note_on_c, 2, 80, 0
5, 67072, Note_on_c, 2, 78, 83
5, 67328, Note_on_c, 2, 81, 0
5, 67328, Note_on_c, 2, 83, 83
5, 67328, Note_on_c, 2, 78, 0
5, 67328, Note_on_c, 2, 80, 83
5, 67584, Note_on_c, 2, 83, 0
5, 67584, Note_on_c, 2, 81, 83
5, 67584, Note_on_c, 2, 80, 0
5, 67584, Note_on_c, 2, 78, 83
5, 67840, Note_on_c, 2, 81, 0
5, 67840, Note_on_c, 2, 83, 83
5, 67840, Note_on_c, 2, 78, 0
5, 67840, Note_on_c, 2, 80, 83
5, 68096, Note_on_c, 2, 83, 0
5, 68096, Note_on_c, 2, 81, 83
5, 68096, Note_on_c, 2, 80, 0
5, 68096, Note_on_c, 2, 78, 83
5, 68352, Note_on_c, 2, 81, 0
5, 68352, Note_on_c, 2, 83, 83
5, 68352, Note_on_c, 2, 78, 0
5, 68352, Note_on_c, 2, 80, 83
5, 68608, Note_on_c, 2, 83, 0
5, 68608, Note_on_c, 2, 80, 0
5, 68608, Note_on_c, 2, 81, 83
5, 68608, Note_on_c, 2, 78, 83
5, 68864, Note_on_c, 2, 81, 0
5, 68864, Note_on_c, 2, 78, 0
5, 72192, Note_on_c, 2, 64, 73
5, 72192, Note_on_c, 2, 64, 73
5, 72448, Note_on_c, 2, 64, 0
5, 72448, Note_on_c, 2, 66, 73
5, 72448, Note_on_c, 2, 64, 0
5, 72448, Note_on_c, 2, 63, 73
5, 72704, Note_on_c, 2, 66, 0
5, 72704, Note_on_c, 2, 68, 64
5, 72704, Note_on_c, 2, 63, 0
5, 72704, Note_on_c, 2, 64, 64
5, 72960, Note_on_c, 2, 68, 0
5, 72960, Note_on_c, 2, 69, 64
5, 72960, Note_on_c, 2, 64, 0
5, 72960, Note_on_c, 2, 66, 64
5, 73216, Note_on_c, 2, 69, 0
5, 73216, Note_on_c, 2, 71, 64
5, 73216, Note_on_c, 2, 66, 0
5, 73216, Note_on_c, 2, 68, 64
5, 73472, Note_on_c, 2, 71, 0
5, 73472, Note_on_c, 2, 68, 0
5, 73728, Note_on_c, 2, 73, 64
5, 73728, Note_on_c, 2, 70, 64
5, 73984, Note_on_c, 2, 73, 0
5, 73984, Note_on_c, 2, 70, 0
5, 74240, Note_on_c, 2, 74, 64
5, 74240, Note_on_c, 2, 71, 64
5, 74496, Note_on_c, 2, 74, 0
5, 74496, Note_on_c, 2, 71, 0
5, 74752, Note_on_c, 2, 76, 64
5, 74752, Note_on_c, 2, 73, 64
5, 75008, Note_on_c, 2, 76, 0
5, 75008, Note_on_c, 2, 73, 0
5, 75264, Note_on_c, 2, 78, 64
5, 75264, Note_on_c, 2, 74, 64
5, 75435, Note_on_c, 2, 78, 0
5, 75435, Note_on_c, 2, 76, 64
5, 75435, Note_on_c, 2, 74, 0
5, 75435, Note_on_c, 2, 73, 64
5, 75605, Note_on_c, 2, 76, 0
5, 75605, Note_on_c, 2, 74, 64
5, 75605, Note_on_c, 2, 73, 0
5, 75605, Note_on_c, 2, 71, 64
5, 75776, Note_on_c, 2, 74, 0
5, 75776, Note_on_c, 2, 76, 64
5, 75776, Note_on_c, 2, 71, 0
5, 75776, Note_on_c, 2, 73, 64
5, 76032, Note_on_c, 2, 76, 0
5, 76032, Note_on_c, 2, 73, 0
5, 76288, Note_on_c, 2, 76, 64
5, 76288, Note_on_c, 2, 73, 64
5, 76544, Note_on_c, 2, 76, 0
5, 76544, Note_on_c, 2, 74, 64
5, 76544, Note_on_c, 2, 73, 0
5, 76544, Note_on_c, 2, 71, 64
5, 76800, Note_on_c, 2, 74, 0
5, 76800, Note_on_c, 2, 76, 64
5, 76800, Note_on_c, 2, 71, 0
5, 76800, Note_on_c, 2, 73, 64
5, 77056, Note_on_c, 2, 76, 0
5, 77056, Note_on_c, 2, 73, 0
5, 77312, Note_on_c, 2, 78, 64
5, 77312, Note_on_c, 2, 74, 64
5, 77568, Note_on_c, 2, 78, 0
5, 77568, Note_on_c, 2, 76, 64
5, 77568, Note_on_c, 2, 74, 0
5, 77568, Note_on_c, 2, 73, 64
5, 77824, Note_on_c, 2, 76, 0
5, 77824, Note_on_c, 2, 73, 0
5, 77824, Note_on_c, 2, 74, 61
5, 77824, Note_on_c, 2, 71, 61
5, 78080, Note_on_c, 2, 74, 0
5, 78080, Note_on_c, 2, 71, 0
5, 78336, Note_on_c, 2, 76, 60
5, 78336, Note_on_c, 2, 73, 60
5, 78507, Note_on_c, 2, 76, 0
5, 78507, Note_on_c, 2, 74, 60
5, 78507, Note_on_c, 2, 73, 0
5, 78507, Note_on_c, 2, 71, 60
5, 78677, Note_on_c, 2, 74, 0
5, 78677, Note_on_c, 2, 73, 59
5, 78677, Note_on_c, 2, 71, 0
5, 78677, Note_on_c, 2, 69, 59
5, 78848, Note_on_c, 2, 73, 0
5, 78848, Note_on_c, 2, 74, 59
5, 78848, Note_on_c, 2, 69, 0
5, 78848, Note_on_c, 2, 71, 59
5, 79104, Note_on_c, 2, 74, 0
5, 79104, Note_on_c, 2, 71, 0
5, 79360, Note_on_c, 2, 74, 58
5, 79360, Note_on_c, 2, 71, 58
5, 79616, Note_on_c, 2, 74, 0
5, 79616, Note_on_c, 2, 73, 57
5, 79616, Note_on_c, 2, 71, 0
5, 79616, Note_on_c, 2, 69, 57
5, 79872, Note_on_c, 2, 73, 0
5, 79872, Note_on_c, 2, 74, 57
5, 79872, Note_on_c, 2, 69, 0
5, 79872, Note_on_c, 2, 71, 57
5, 80128, Note_on_c, 2, 74, 0
5, 80128, Note_on_c, 2, 71, 0
5, 80384, Note_on_c, 2, 76, 55
5, 80384, Note_on_c, 2, 73, 55
5, 80640, Note_on_c, 2, 76, 0
5, 80640, Note_on_c, 2, 74, 55
5, 80640, Note_on_c, 2, 73, 0
5, 80640, Note_on_c, 2, 71, 55
5, 80896, Note_on_c, 2, 74, 0
5, 80896, Note_on_c, 2, 71, 0
5, 80896, Note_on_c, 2, 73, 54
5, 80896, Note_on_c, 2, 69, 54
5, 81152, Note_on_c, 2, 73, 0
5, 81152, Note_on_c, 2, 69, 0
5, 81408, Note_on_c, 2, 74, 53
5, 81408, Note_on_c, 2, 71, 53
5, 81579, Note_on_c, 2, 74, 0
5, 81579, Note_on_c, 2, 73, 53
5, 81579, Note_on_c, 2, 71, 0
5, 81579, Note_on_c, 2, 69, 53
5, 81749, Note_on_c, 2, 73, 0
5, 81749, Note_on_c, 2, 71, 52
5, 81749, Note_on_c, 2, 69, 0
5, 81749, Note_on_c, 2, 68, 52
5, 81920, Note_on_c, 2, 71, 0
5, 81920, Note_on_c, 2, 73, 52
5, 81920, Note_on_c, 2, 68, 0
5, 81920, Note_on_c, 2, 69, 52
5, 82176, Note_on_c, 2, 73, 0
5, 82176, Note_on_c, 2, 69, 0
5, 82432, Note_on_c, 2, 73, 51
5, 82432, Note_on_c, 2, 69, 51
5, 82688, Note_on_c, 2, 73, 0
5, 82688, Note_on_c, 2, 71, 50
5, 82688, Note_on_c, 2, 69, 0
5, 82688, Note_on_c, 2, 68, 50
5, 82944, Note_on_c, 2, 71, 0
5, 82944, Note_on_c, 2, 73, 50
5, 82944, Note_on_c, 2, 68, 0
5, 82944, Note_on_c, 2, 69, 50
5, 83200, Note_on_c, 2, 73, 0
5, 83200, Note_on_c, 2, 69, 0
5, 83456, Note_on_c, 2, 74, 48
5, 83456, Note_on_c, 2, 69, 48
5, 83712, Note_on_c, 2, 74, 0
5, 83712, Note_on_c, 2, 73, 48
5, 83712, Note_on_c, 2, 69, 0
5, 83968, Note_on_c, 2, 73, 0
5, 83968, Note_on_c, 2, 71, 60
5, 84224, Note_on_c, 2, 71, 0
5, 84224, Note_on_c, 2, 69, 40
5, 84480, Note_on_c, 2, 69, 0
5, 84480, Note_on_c, 2, 71, 42
5, 84736, Note_on_c, 2, 71, 0
5, 84736, Note_on_c, 2, 73, 44
5, 84992, Note_on_c, 2, 73, 0
5, 84992, Note_on_c, 2, 71, 45
5, 85248, Note_on_c, 2, 71, 0
5, 85248, Note_on_c, 2, 73, 47
5, 85504, Note_on_c, 2, 73, 0
5, 85504, Note_on_c, 2, 71, 49
5, 85760, Note_on_c, 2, 71, 0
5, 85760, Note_on_c, 2, 73, 50
5, 86016, Note_on_c, 2, 73, 0
5, 86016, Note_on_c, 2, 71, 52
5, 86272, Note_on_c, 2, 71, 0
5, 86272, Note_on_c, 2, 73, 53
5, 86528, Note_on_c, 2, 73, 0
5, 86528, Note_on_c, 2, 71, 55
5, 86784, Note_on_c, 2, 71, 0
5, 86784, Note_on_c, 2, 73, 57
5, 87040, Note_on_c, 2, 73, 0
5, 87040, Note_on_c, 2, 74, 69
5, 87296, Note_on_c, 2, 74, 0
5, 87296, Note_on_c, 2, 73, 44
5, 87552, Note_on_c, 2, 73, 0
5, 87552, Note_on_c, 2, 74, 47
5, 87808, Note_on_c, 2, 74, 0
5, 87808, Note_on_c, 2, 76, 49
5, 88064, Note_on_c, 2, 76, 0
5, 88064, Note_on_c, 2, 74, 52
5, 88320, Note_on_c, 2, 74, 0
5, 88320, Note_on_c, 2, 76, 54
5, 88576, Note_on_c, 2, 76, 0
5, 88576, Note_on_c, 2, 74, 57
5, 88832, Note_on_c, 2, 74, 0
5, 88832, Note_on_c, 2, 76, 59
5, 89088, Note_on_c, 2, 76, 0
5, 89088, Note_on_c, 2, 74, 62
5, 89344, Note_on_c, 2, 74, 0
5, 89344, Note_on_c, 2, 76, 64
5, 89600, Note_on_c, 2, 76, 0
5, 89600, Note_on_c, 2, 74, 67
5, 89856, Note_on_c, 2, 74, 0
5, 89856, Note_on_c, 2, 76, 69
5, 90112, Note_on_c, 2, 76, 0
5, 90112, Note_on_c, 2, 73, 72
5, 90368, Note_on_c, 2, 73, 0
5, 90368, Note_on_c, 2, 71, 51
5, 90624, Note_on_c, 2, 71, 0
5, 90624, Note_on_c, 2, 73, 54
5, 90880, Note_on_c, 2, 73, 0
5, 90880, Note_on_c, 2, 74, 56
5, 91136, Note_on_c, 2, 74, 0
5, 91136, Note_on_c, 2, 73, 59
5, 91392, Note_on_c, 2, 73, 0
5, 91392, Note_on_c, 2, 74, 62
5, 91648, Note_on_c, 2, 74, 0
5, 91648, Note_on_c, 2, 73, 64
5, 91904, Note_on_c, 2, 73, 0
5, 91904, Note_on_c, 2, 74, 67
5, 92160, Note_on_c, 2, 74, 0
5, 92160, Note_on_c, 2, 73, 70
5, 92416, Note_on_c, 2, 73, 0
5, 92416, Note_on_c, 2, 74, 72
5, 92672, Note_on_c, 2, 74, 0
5, 92672, Note_on_c, 2, 73, 75
5, 92928, Note_on_c, 2, 73, 0
5, 92928, Note_on_c, 2, 74, 78
5, 93184, Note_on_c, 2, 74, 0
5, 93184, Note_on_c, 2, 76, 80
5, 93440, Note_on_c, 2, 76, 0
5, 93440, Note_on_c, 2, 74, 62
5, 93696, Note_on_c, 2, 74, 0
5, 93696, Note_on_c, 2, 76, 64
5, 93952, Note_on_c, 2, 76, 0
5, 93952, Note_on_c, 2, 78, 67
5, 94208, Note_on_c, 2, 78, 0
5, 94208, Note_on_c, 2, 76, 69
5, 94464, Note_on_c, 2, 76, 0
5, 94464, Note_on_c, 2, 78, 72
5, 94720, Note_on_c, 2, 78, 0
5, 94720, Note_on_c, 2, 76, 75
5, 94976, Note_on_c, 2, 76, 0
5, 94976, Note_on_c, 2, 78, 77
5, 95232, Note_on_c, 2, 78, 0
5, 95232, Note_on_c, 2, 76, 80
5, 95488, Note_on_c, 2, 76, 0
5, 95488, Note_on_c, 2, 78, 83
5, 95744, Note_on_c, 2, 78, 0
5, 95744, Note_on_c, 2, 76, 85
5, 96000, Note_on_c, 2, 76, 0
5, 96000, Note_on_c, 2, 78, 88
5, 96256, Note_on_c, 2, 78, 0
5, 96256, Note_on_c, 2, 74, 91
5, 96256, Note_on_c, 2, 74, 91
5, 96512, Note_on_c, 2, 74, 0
5, 96512, Note_on_c, 2, 74, 0
5, 96768, Note_on_c, 2, 76, 90
5, 96768, Note_on_c, 2, 76, 90
5, 97024, Note_on_c, 2, 76, 0
5, 97024, Note_on_c, 2, 74, 91
5, 97024, Note_on_c, 2, 76, 0
5, 97024, Note_on_c, 2, 74, 91
5, 97280, Note_on_c, 2, 74, 0
5, 97280, Note_on_c, 2, 73, 92
5, 97280, Note_on_c, 2, 74, 0
5, 97280, Note_on_c, 2, 73, 92
5, 97536, Note_on_c, 2, 73, 0
5, 97536, Note_on_c, 2, 73, 0
5, 97792, Note_on_c, 2, 78, 94
5, 97792, Note_on_c, 2, 78, 94
5, 98048, Note_on_c, 2, 78, 0
5, 98048, Note_on_c, 2, 78, 0
5, 98304, Note_on_c, 2, 76, 97
5, 98304, Note_on_c, 2, 76, 97
5, 98560, Note_on_c, 2, 76, 0
5, 98560, Note_on_c, 2, 74, 98
5, 98560, Note_on_c, 2, 76, 0
5, 98560, Note_on_c, 2, 74, 98
5, 98816, Note_on_c, 2, 74, 0
5, 98816, Note_on_c, 2, 73, 99
5, 98816, Note_on_c, 2, 74, 0
5, 98816, Note_on_c, 2, 73, 99
5, 99072, Note_on_c, 2, 73, 0
5, 99072, Note_on_c, 2, 71, 100
5, 99072, Note_on_c, 2, 73, 0
5, 99072, Note_on_c, 2, 71, 100
5, 99328, Note_on_c, 2, 71, 0
5, 99328, Note_on_c, 2, 71, 0
5, 99328, Note_on_c, 2, 69, 101
5, 99328, Note_on_c, 2, 69, 101
5, 99584, Note_on_c, 2, 69, 0
5, 99584, Note_on_c, 2, 69, 0
5, 103936, Note_on_c, 2, 64, 40
5, 103936, Note_on_c, 2, 64, 40
5, 104192, Note_on_c, 2, 64, 0
5, 104192, Note_on_c, 2, 64, 0
5, 104448, Note_on_c, 2, 69, 45
5, 104448, Note_on_c, 2, 69, 45
5, 104704, Note_on_c, 2, 69, 0
5, 104704, Note_on_c, 2, 69, 0
5, 104960, Note_on_c, 2, 71, 50
5, 104960, Note_on_c, 2, 71, 50
5, 105216, Note_on_c, 2, 71, 0
5, 105216, Note_on_c, 2, 71, 0
5, 105472, Note_on_c, 2, 73, 55
5, 105472, Note_on_c, 2, 73, 55
5, 105728, Note_on_c, 2, 73, 0
5, 105728, Note_on_c, 2, 73, 0
5, 105984, Note_on_c, 2, 74, 55
5, 105984, Note_on_c, 2, 74, 55
5, 106155, Note_on_c, 2, 74, 0
5, 106155, Note_on_c, 2, 73, 55
5, 106155, Note_on_c, 2, 74, 0
5, 106155, Note_on_c, 2, 73, 55
5, 106325, Note_on_c, 2, 73, 0
5, 106325, Note_on_c, 2, 71, 55
5, 106325, Note_on_c, 2, 73, 0
5, 106325, Note_on_c, 2, 71, 55
5, 106496, Note_on_c, 2, 71, 0
5, 106496, Note_on_c, 2, 73, 55
5, 106496, Note_on_c, 2, 71, 0
5, 106496, Note_on_c, 2, 73, 55
5, 106752, Note_on_c, 2, 73, 0
5, 106752, Note_on_c, 2, 73, 0
5, 107008, Note_on_c, 2, 78, 56
5, 107008, Note_on_c, 2, 78, 56
5, 107264, Note_on_c, 2, 78, 0
5, 107264, Note_on_c, 2, 78, 0
5, 107520, Note_on_c, 2, 76, 57
5, 107520, Note_on_c, 2, 76, 57
5, 107776, Note_on_c, 2, 76, 0
5, 107776, Note_on_c, 2, 76, 0
5, 108032, Note_on_c, 2, 74, 57
5, 108032, Note_on_c, 2, 74, 57
5, 108288, Note_on_c, 2, 74, 0
5, 108288, Note_on_c, 2, 74, 0
5, 108544, Note_on_c, 2, 73, 58
5, 108544, Note_on_c, 2, 73, 58
5, 108800, Note_on_c, 2, 73, 0
5, 108800, Note_on_c, 2, 71, 58
5, 108800, Note_on_c, 2, 73, 0
5, 109056, Note_on_c, 2, 71, 0
5, 109056, Note_on_c, 2, 69, 58
5, 109056, Note_on_c, 2, 64, 58
5, 109312, Note_on_c, 2, 69, 0
5, 109312, Note_on_c, 2, 71, 59
5, 109312, Note_on_c, 2, 64, 0
5, 109568, Note_on_c, 2, 71, 0
5, 109568, Note_on_c, 2, 73, 59
5, 109568, Note_on_c, 2, 69, 59
5, 109824, Note_on_c, 2, 73, 0
5, 109824, Note_on_c, 2, 74, 59
5, 109824, Note_on_c, 2, 69, 0
5, 110080, Note_on_c, 2, 74, 0
5, 110080, Note_on_c, 2, 76, 59
5, 110080, Note_on_c, 2, 73, 59
5, 110336, Note_on_c, 2, 76, 0
5, 110336, Note_on_c, 2, 78, 60
5, 110336, Note_on_c, 2, 73, 0
5, 110336, Note_on_c, 2, 71, 60
5, 110592, Note_on_c, 2, 78, 0
5, 110592, Note_on_c, 2, 76, 60
5, 110592, Note_on_c, 2, 71, 0
5, 110592, Note_on_c, 2, 73, 60
5, 110848, Note_on_c, 2, 76, 0
5, 110848, Note_on_c, 2, 74, 60
5, 110848, Note_on_c, 2, 73, 0
5, 111104, Note_on_c, 2, 74, 0
5, 111104, Note_on_c, 2, 73, 61
5, 111104, Note_on_c, 2, 69, 61
5, 111360, Note_on_c, 2, 73, 0
5, 111360, Note_on_c, 2, 71, 61
5, 111616, Note_on_c, 2, 71, 0
5, 111616, Note_on_c, 2, 69, 61
5, 111872, Note_on_c, 2, 69, 0
5, 111872, Note_on_c, 2, 69, 0
5, 112128, Note_on_c, 2, 71, 61
5, 112128, Note_on_c, 2, 71, 61
5, 112384, Note_on_c, 2, 71, 0
5, 112384, Note_on_c, 2, 73, 60
5, 112384, Note_on_c, 2, 71, 0
5, 112384, Note_on_c, 2, 73, 60
5, 112640, Note_on_c, 2, 73, 0
5, 112640, Note_on_c, 2, 74, 60
5, 112640, Note_on_c, 2, 73, 0
5, 112640, Note_on_c, 2, 74, 60
5, 112896, Note_on_c, 2, 74, 0
5, 112896, Note_on_c, 2, 74, 0
5, 113152, Note_on_c, 2, 76, 59
5, 113152, Note_on_c, 2, 76, 59
5, 113408, Note_on_c, 2, 76, 0
5, 113408, Note_on_c, 2, 76, 0
5, 113664, Note_on_c, 2, 74, 58
5, 113664, Note_on_c, 2, 74, 58
5, 113920, Note_on_c, 2, 74, 0
5, 113920, Note_on_c, 2, 73, 57
5, 113920, Note_on_c, 2, 74, 0
5, 113920, Note_on_c, 2, 73, 57
5, 114176, Note_on_c, 2, 73, 0
5, 114176, Note_on_c, 2, 71, 57
5, 114176, Note_on_c, 2, 73, 0
5, 114176, Note_on_c, 2, 71, 57
5, 114432, Note_on_c, 2, 71, 0
5, 114432, Note_on_c, 2, 69, 57
5, 114432, Note_on_c, 2, 71, 0
5, 114432, Note_on_c, 2, 69, 57
5, 114688, Note_on_c, 2, 69, 0
5, 114688, Note_on_c, 2, 69, 0
5, 114688, Note_on_c, 2, 71, 56
5, 114688, Note_on_c, 2, 71, 56
5, 114944, Note_on_c, 2, 71, 0
5, 114944, Note_on_c, 2, 71, 0
5, 115200, Note_on_c, 2, 64, 53
5, 115200, Note_on_c, 2, 64, 53
5, 115456, Note_on_c, 2, 64, 0
5, 115456, Note_on_c, 2, 64, 0
5, 115712, Note_on_c, 2, 68, 53
5, 115712, Note_on_c, 2, 68, 53
5, 115968, Note_on_c, 2, 68, 0
5, 115968, Note_on_c, 2, 68, 0
5, 116224, Note_on_c, 2, 71, 54
5, 116224, Note_on_c, 2, 71, 54
5, 116480, Note_on_c, 2, 71, 0
5, 116480, Note_on_c, 2, 71, 0
5, 116736, Note_on_c, 2, 76, 55
5, 116736, Note_on_c, 2, 76, 55
5, 116992, Note_on_c, 2, 76, 0
5, 116992, Note_on_c, 2, 74, 55
5, 116992, Note_on_c, 2, 76, 0
5, 116992, Note_on_c, 2, 74, 55
5, 117248, Note_on_c, 2, 74, 0
5, 117248, Note_on_c, 2, 73, 56
5, 117248, Note_on_c, 2, 74, 0
5, 117248, Note_on_c, 2, 73, 56
5, 117504, Note_on_c, 2, 73, 0
5, 117504, Note_on_c, 2, 71, 56
5, 117504, Note_on_c, 2, 73, 0
5, 117504, Note_on_c, 2, 71, 56
5, 117760, Note_on_c, 2, 71, 0
5, 117760, Note_on_c, 2, 71, 0
5, 117760, Note_on_c, 2, 73, 57
5, 117760, Note_on_c, 2, 73, 57
5, 118016, Note_on_c, 2, 73, 0
5, 118016, Note_on_c, 2, 73, 0
5, 118272, Note_on_c, 2, 74, 57
5, 118272, Note_on_c, 2, 74, 57
5, 118443, Note_on_c, 2, 74, 0
5, 118443, Note_on_c, 2, 73, 58
5, 118443, Note_on_c, 2, 74, 0
5, 118443, Note_on_c, 2, 73, 58
5, 118613, Note_on_c, 2, 73, 0
5, 118613, Note_on_c, 2, 71, 58
5, 118613, Note_on_c, 2, 73, 0
5, 118613, Note_on_c, 2, 71, 58
5, 118784, Note_on_c, 2, 71, 0
5, 118784, Note_on_c, 2, 73, 58
5, 118784, Note_on_c, 2, 71, 0
5, 118784, Note_on_c, 2, 73, 58
5, 119040, Note_on_c, 2, 73, 0
5, 119040, Note_on_c, 2, 73, 0
5, 119296, Note_on_c, 2, 74, 59
5, 119296, Note_on_c, 2, 74, 59
5, 119552, Note_on_c, 2, 74, 0
5, 119552, Note_on_c, 2, 74, 0
5, 119808, Note_on_c, 2, 76, 60
5, 119808, Note_on_c, 2, 76, 60
5, 120064, Note_on_c, 2, 76, 0
5, 120064, Note_on_c, 2, 76, 0
5, 120320, Note_on_c, 2, 78, 60
5, 120320, Note_on_c, 2, 78, 60
5, 120576, Note_on_c, 2, 78, 0
5, 120576, Note_on_c, 2, 78, 0
5, 120832, Note_on_c, 2, 71, 61
5, 120832, Note_on_c, 2, 71, 61
5, 121856, Note_on_c, 2, 71, 0
5, 121856, Note_on_c, 2, 71, 0
5, 122368, Note_on_c, 2, 71, 47
5, 122368, Note_on_c, 2, 68, 47
5, 122624, Note_on_c, 2, 71, 0
5, 122624, Note_on_c, 2, 68, 0
5, 122880, Note_on_c, 2, 73, 50
5, 122880, Note_on_c, 2, 70, 50
5, 123136, Note_on_c, 2, 73, 0
5, 123136, Note_on_c, 2, 70, 0
5, 123392, Note_on_c, 2, 74, 52
5, 123392, Note_on_c, 2, 71, 52
5, 123648, Note_on_c, 2, 74, 0
5, 123648, Note_on_c, 2, 71, 0
5, 123904, Note_on_c, 2, 76, 55
5, 123904, Note_on_c, 2, 73, 55
5, 124160, Note_on_c, 2, 76, 0
5, 124160, Note_on_c, 2, 73, 0
5, 125440, Note_on_c, 2, 79, 50
5, 125440, Note_on_c, 2, 76, 50
5, 125696, Note_on_c, 2, 79, 0
5, 125696, Note_on_c, 2, 76, 0
5, 125952, Note_on_c, 2, 78, 51
5, 125952, Note_on_c, 2, 74, 51
5, 126208, Note_on_c, 2, 78, 0
5, 126208, Note_on_c, 2, 74, 0
5, 126464, Note_on_c, 2, 76, 52
5, 126464, Note_on_c, 2, 73, 52
5, 126720, Note_on_c, 2, 76, 0
5, 126720, Note_on_c, 2, 73, 0
5, 126976, Note_on_c, 2, 74, 54
5, 126976, Note_on_c, 2, 71, 54
5, 127232, Note_on_c, 2, 74, 0
5, 127232, Note_on_c, 2, 71, 0
5, 128512, Note_on_c, 2, 74, 51
5, 128512, Note_on_c, 2, 71, 51
5, 128768, Note_on_c, 2, 74, 0
5, 128768, Note_on_c, 2, 73, 52
5, 128768, Note_on_c, 2, 71, 0
5, 128768, Note_on_c, 2, 70, 52
5, 129024, Note_on_c, 2, 73, 0
5, 129024, Note_on_c, 2, 76, 53
5, 129024, Note_on_c, 2, 70, 0
5, 129024, Note_on_c, 2, 73, 53
5, 129280, Note_on_c, 2, 76, 0
5, 129280, Note_on_c, 2, 73, 0
5, 129536, Note_on_c, 2, 74, 56
5, 129536, Note_on_c, 2, 71, 56
5, 129792, Note_on_c, 2, 74, 0
5, 129792, Note_on_c, 2, 73, 57
5, 129792, Note_on_c, 2, 71, 0
5, 129792, Note_on_c, 2, 70, 57
5, 130048, Note_on_c, 2, 73, 0
5, 130048, Note_on_c, 2, 70, 0
5, 130048, Note_on_c, 2, 74, 58
5, 130048, Note_on_c, 2, 71, 58
5, 130304, Note_on_c, 2, 74, 0
5, 130304, Note_on_c, 2, 71, 0
5, 130560, Note_on_c, 2, 78, 60
5, 130560, Note_on_c, 2, 74, 60
5, 130816, Note_on_c, 2, 78, 0
5, 130816, Note_on_c, 2, 76, 61
5, 130816, Note_on_c, 2, 74, 0
5, 130816, Note_on_c, 2, 73, 61
5, 131072, Note_on_c, 2, 76, 0
5, 131072, Note_on_c, 2, 74, 62
5, 131072, Note_on_c, 2, 73, 0
5, 131072, Note_on_c, 2, 71, 62
5, 131328, Note_on_c, 2, 74, 0
5, 131328, Note_on_c, 2, 71, 0
5, 131584, Note_on_c, 2, 71, 65
5, 131584, Note_on_c, 2, 66, 65
5, 131840, Note_on_c, 2, 71, 0
5, 131840, Note_on_c, 2, 66, 0
5, 132096, Note_on_c, 2, 66, 64
5, 132096, Note_on_c, 2, 78, 64
5, 132352, Note_on_c, 2, 66, 0
5, 132352, Note_on_c, 2, 78, 0
5, 132608, Note_on_c, 2, 78, 64
5, 132608, Note_on_c, 2, 70, 64
5, 132864, Note_on_c, 2, 78, 0
5, 132864, Note_on_c, 2, 70, 0
5, 133120, Note_on_c, 2, 74, 64
5, 133120, Note_on_c, 2, 71, 64
5, 133376, Note_on_c, 2, 74, 0
5, 133376, Note_on_c, 2, 76, 60
5, 133376, Note_on_c, 2, 71, 0
5, 133632, Note_on_c, 2, 76, 0
5, 133632, Note_on_c, 2, 74, 57
5, 133632, Note_on_c, 2, 71, 57
5, 133888, Note_on_c, 2, 74, 0
5, 133888, Note_on_c, 2, 73, 55
5, 133888, Note_on_c, 2, 71, 0
5, 133888, Note_on_c, 2, 70, 55
5, 134144, Note_on_c, 2, 73, 0
5, 134144, Note_on_c, 2, 71, 53
5, 134144, Note_on_c, 2, 70, 0
5, 134144, Note_on_c, 2, 71, 53
5, 134400, Note_on_c, 2, 71, 0
5, 134400, Note_on_c, 2, 71, 0
5, 134656, Note_on_c, 2, 74, 44
5, 134656, Note_on_c, 2, 71, 44
5, 134912, Note_on_c, 2, 74, 0
5, 134912, Note_on_c, 2, 73, 46
5, 134912, Note_on_c, 2, 71, 0
5, 134912, Note_on_c, 2, 70, 46
5, 135168, Note_on_c, 2, 73, 0
5, 135168, Note_on_c, 2, 74, 47
5, 135168, Note_on_c, 2, 70, 0
5, 135168, Note_on_c, 2, 71, 47
5, 135424, Note_on_c, 2, 74, 0
5, 135424, Note_on_c, 2, 71, 0
5, 135680, Note_on_c, 2, 74, 50
5, 135680, Note_on_c, 2, 71, 50
5, 135936, Note_on_c, 2, 74, 0
5, 135936, Note_on_c, 2, 73, 51
5, 135936, Note_on_c, 2, 71, 0
5, 135936, Note_on_c, 2, 70, 51
5, 136192, Note_on_c, 2, 73, 0
5, 136192, Note_on_c, 2, 70, 0
5, 136192, Note_on_c, 2, 74, 53
5, 136192, Note_on_c, 2, 71, 53
5, 136448, Note_on_c, 2, 74, 0
5, 136448, Note_on_c, 2, 71, 0
5, 137728, Note_on_c, 2, 78, 48
5, 137728, Note_on_c, 2, 74, 48
5, 137984, Note_on_c, 2, 78, 0
5, 137984, Note_on_c, 2, 74, 0
5, 138240, Note_on_c, 2, 76, 49
5, 138240, Note_on_c, 2, 73, 49
5, 138496, Note_on_c, 2, 76, 0
5, 138496, Note_on_c, 2, 73, 0
5, 138752, Note_on_c, 2, 74, 50
5, 138752, Note_on_c, 2, 71, 50
5, 139008, Note_on_c, 2, 74, 0
5, 139008, Note_on_c, 2, 71, 0
5, 139264, Note_on_c, 2, 73, 52
5, 139264, Note_on_c, 2, 69, 52
5, 139520, Note_on_c, 2, 73, 0
5, 139520, Note_on_c, 2, 69, 0
5, 140800, Note_on_c, 2, 73, 55
5, 140800, Note_on_c, 2, 69, 55
5, 141056, Note_on_c, 2, 73, 0
5, 141056, Note_on_c, 2, 71, 56
5, 141056, Note_on_c, 2, 69, 0
5, 141056, Note_on_c, 2, 68, 56
5, 141312, Note_on_c, 2, 71, 0
5, 141312, Note_on_c, 2, 74, 57
5, 141312, Note_on_c, 2, 68, 0
5, 141312, Note_on_c, 2, 71, 57
5, 141568, Note_on_c, 2, 74, 0
5, 141568, Note_on_c, 2, 71, 0
5, 141824, Note_on_c, 2, 73, 58
5, 141824, Note_on_c, 2, 69, 58
5, 142080, Note_on_c, 2, 73, 0
5, 142080, Note_on_c, 2, 71, 58
5, 142080, Note_on_c, 2, 69, 0
5, 142080, Note_on_c, 2, 68, 58
5, 142336, Note_on_c, 2, 71, 0
5, 142336, Note_on_c, 2, 68, 0
5, 142336, Note_on_c, 2, 73, 59
5, 142336, Note_on_c, 2, 69, 59
5, 142592, Note_on_c, 2, 73, 0
5, 142592, Note_on_c, 2, 69, 0
5, 142848, Note_on_c, 2, 76, 60
5, 142848, Note_on_c, 2, 73, 60
5, 143104, Note_on_c, 2, 76, 0
5, 143104, Note_on_c, 2, 74, 61
5, 143104, Note_on_c, 2, 73, 0
5, 143104, Note_on_c, 2, 71, 61
5, 143360, Note_on_c, 2, 74, 0
5, 143360, Note_on_c, 2, 73, 61
5, 143360, Note_on_c, 2, 71, 0
5, 143360, Note_on_c, 2, 69, 61
5, 143616, Note_on_c, 2, 73, 0
5, 143616, Note_on_c, 2, 69, 0
5, 143872, Note_on_c, 2, 69, 63
5, 143872, Note_on_c, 2, 64, 63
5, 144128, Note_on_c, 2, 69, 0
5, 144128, Note_on_c, 2, 64, 0
5, 144384, Note_on_c, 2, 64, 64
5, 144384, Note_on_c, 2, 76, 64
5, 144640, Note_on_c, 2, 64, 0
5, 144640, Note_on_c, 2, 76, 0
5, 144896, Note_on_c, 2, 76, 67
5, 144896, Note_on_c, 2, 68, 67
5, 145152, Note_on_c, 2, 76, 0
5, 145152, Note_on_c, 2, 68, 0
5, 145408, Note_on_c, 2, 73, 70
5, 145408, Note_on_c, 2, 69, 70
5, 145664, Note_on_c, 2, 73, 0
5, 145664, Note_on_c, 2, 74, 72
5, 145664, Note_on_c, 2, 69, 0
5, 145920, Note_on_c, 2, 74, 0
5, 145920, Note_on_c, 2, 73, 74
5, 145920, Note_on_c, 2, 69, 74
5, 146176, Note_on_c, 2, 73, 0
5, 146176, Note_on_c, 2, 71, 76
5, 146176, Note_on_c, 2, 69, 0
5, 146176, Note_on_c, 2, 68, 76
5, 146432, Note_on_c, 2, 71, 0
5, 146432, Note_on_c, 2, 69, 78
5, 146432, Note_on_c, 2, 68, 0
5, 146432, Note_on_c, 2, 69, 78
5, 146688, Note_on_c, 2, 69, 0
5, 146688, Note_on_c, 2, 69, 0
5, 146944, Note_on_c, 2, 73, 81
5, 146944, Note_on_c, 2, 73, 81
5, 147200, Note_on_c, 2, 73, 0
5, 147200, Note_on_c, 2, 71, 83
5, 147200, Note_on_c, 2, 73, 0
5, 147200, Note_on_c, 2, 71, 83
5, 147456, Note_on_c, 2, 71, 0
5, 147456, Note_on_c, 2, 73, 85
5, 147456, Note_on_c, 2, 71, 0
5, 147456, Note_on_c, 2, 73, 85
5, 147712, Note_on_c, 2, 73, 0
5, 147712, Note_on_c, 2, 73, 0
5, 147968, Note_on_c, 2, 76, 89
5, 147968, Note_on_c, 2, 76, 89
5, 148224, Note_on_c, 2, 76, 0
5, 148224, Note_on_c, 2, 74, 90
5, 148224, Note_on_c, 2, 76, 0
5, 148224, Note_on_c, 2, 74, 90
5, 148480, Note_on_c, 2, 74, 0
5, 148480, Note_on_c, 2, 74, 0
5, 148480, Note_on_c, 2, 76, 92
5, 148480, Note_on_c, 2, 76, 92
5, 148736, Note_on_c, 2, 76, 0
5, 148736, Note_on_c, 2, 74, 94
5, 148736, Note_on_c, 2, 76, 0
5, 148736, Note_on_c, 2, 74, 94
5, 148992, Note_on_c, 2, 74, 0
5, 148992, Note_on_c, 2, 73, 96
5, 148992, Note_on_c, 2, 74, 0
5, 148992, Note_on_c, 2, 73, 96
5, 149248, Note_on_c, 2, 73, 0
5, 149248, Note_on_c, 2, 71, 98
5, 149248, Note_on_c, 2, 73, 0
5, 149248, Note_on_c, 2, 71, 98
5, 149504, Note_on_c, 2, 71, 0
5, 149504, Note_on_c, 2, 69, 98
5, 149504, Note_on_c, 2, 71, 0
5, 149504, Note_on_c, 2, 69, 98
5, 149760, Note_on_c, 2, 69, 0
5, 149760, Note_on_c, 2, 69, 0
5, 150016, Note_on_c, 2, 74, 99
5, 150016, Note_on_c, 2, 74, 99
5, 150272, Note_on_c, 2, 74, 0
5, 150272, Note_on_c, 2, 74, 0
5, 150528, Note_on_c, 2, 73, 100
5, 150528, Note_on_c, 2, 73, 100
5, 150784, Note_on_c, 2, 73, 0
5, 150784, Note_on_c, 2, 73, 0
5, 151040, Note_on_c, 2, 71, 102
5, 151040, Note_on_c, 2, 71, 102
5, 151296, Note_on_c, 2, 71, 0
5, 151296, Note_on_c, 2, 69, 102
5, 151296, Note_on_c, 2, 71, 0
5, 151296, Note_on_c, 2, 69, 102
5, 151552, Note_on_c, 2, 69, 0
5, 151552, Note_on_c, 2, 69, 0
5, 151552, Note_on_c, 2, 69, 103
5, 151552, Note_on_c, 2, 69, 103
5, 153088, Note_on_c, 2, 69, 0
5, 153088, Note_on_c, 2, 69, 0
5, 156160, Note_on_c, 2, 69, 48
5, 156160, Note_on_c, 2, 69, 48
5, 156416, Note_on_c, 2, 69, 0
5, 156416, Note_on_c, 2, 69, 0
5, 156672, Note_on_c, 2, 74, 48
5, 156672, Note_on_c, 2, 74, 48
5, 156928, Note_on_c, 2, 74, 0
5, 156928, Note_on_c, 2, 74, 0
5, 157184, Note_on_c, 2, 76, 48
5, 157184, Note_on_c, 2, 76, 48
5, 157440, Note_on_c, 2, 76, 0
5, 157440, Note_on_c, 2, 76, 0
5, 157696, Note_on_c, 2, 78, 48
5, 157696, Note_on_c, 2, 78, 48
5, 157952, Note_on_c, 2, 78, 0
5, 157952, Note_on_c, 2, 76, 48
5, 157952, Note_on_c, 2, 78, 0
5, 157952, Note_on_c, 2, 76, 48
5, 158208, Note_on_c, 2, 76, 0
5, 158208, Note_on_c, 2, 74, 48
5, 158208, Note_on_c, 2, 76, 0
5, 158208, Note_on_c, 2, 74, 48
5, 158464, Note_on_c, 2, 74, 0
5, 158464, Note_on_c, 2, 76, 48
5, 158464, Note_on_c, 2, 74, 0
5, 158464, Note_on_c, 2, 76, 48
5, 158720, Note_on_c, 2, 76, 0
5, 158720, Note_on_c, 2, 78, 48
5, 158720, Note_on_c, 2, 76, 0
5, 158720, Note_on_c, 2, 78, 48
5, 158976, Note_on_c, 2, 78, 0
5, 158976, Note_on_c, 2, 78, 0
5, 171520, Note_on_c, 2, 71, 72
5, 171520, Note_on_c, 2, 71, 72
5, 171776, Note_on_c, 2, 71, 0
5, 171776, Note_on_c, 2, 73, 73
5, 171776, Note_on_c, 2, 71, 0
5, 171776, Note_on_c, 2, 70, 73
5, 172032, Note_on_c, 2, 73, 0
5, 172032, Note_on_c, 2, 74, 73
5, 172032, Note_on_c, 2, 70, 0
5, 172032, Note_on_c, 2, 71, 73
5, 172288, Note_on_c, 2, 74, 0
5, 172288, Note_on_c, 2, 76, 73
5, 172288, Note_on_c, 2, 71, 0
5, 172288, Note_on_c, 2, 73, 73
5, 172544, Note_on_c, 2, 76, 0
5, 172544, Note_on_c, 2, 78, 74
5, 172544, Note_on_c, 2, 73, 0
5, 172544, Note_on_c, 2, 74, 74
5, 172800, Note_on_c, 2, 78, 0
5, 172800, Note_on_c, 2, 79, 74
5, 172800, Note_on_c, 2, 74, 0
5, 172800, Note_on_c, 2, 76, 74
5, 173056, Note_on_c, 2, 79, 0
5, 173056, Note_on_c, 2, 76, 0
5, 173056, Note_on_c, 2, 81, 74
5, 173056, Note_on_c, 2, 78, 74
5, 173312, Note_on_c, 2, 81, 0
5, 173312, Note_on_c, 2, 78, 0
5, 173568, Note_on_c, 2, 83, 53
5, 173568, Note_on_c, 2, 79, 53
5, 173739, Note_on_c, 2, 83, 0
5, 173739, Note_on_c, 2, 81, 55
5, 173739, Note_on_c, 2, 79, 0
5, 173739, Note_on_c, 2, 78, 55
5, 173909, Note_on_c, 2, 81, 0
5, 173909, Note_on_c, 2, 79, 56
5, 173909, Note_on_c, 2, 78, 0
5, 173909, Note_on_c, 2, 76, 56
5, 174080, Note_on_c, 2, 79, 0
5, 174080, Note_on_c, 2, 81, 57
5, 174080, Note_on_c, 2, 76, 0
5, 174080, Note_on_c, 2, 78, 57
5, 174336, Note_on_c, 2, 81, 0
5, 174336, Note_on_c, 2, 78, 0
5, 175616, Note_on_c, 2, 83, 69
5, 175616, Note_on_c, 2, 79, 69
5, 175872, Note_on_c, 2, 83, 0
5, 175872, Note_on_c, 2, 81, 71
5, 175872, Note_on_c, 2, 79, 0
5, 175872, Note_on_c, 2, 78, 71
5, 176128, Note_on_c, 2, 81, 0
5, 176128, Note_on_c, 2, 78, 0
5, 176128, Note_on_c, 2, 79, 73
5, 176128, Note_on_c, 2, 76, 73
5, 176384, Note_on_c, 2, 79, 0
5, 176384, Note_on_c, 2, 76, 0
5, 176640, Note_on_c, 2, 81, 55
5, 176640, Note_on_c, 2, 78, 55
5, 176811, Note_on_c, 2, 81, 0
5, 176811, Note_on_c, 2, 79, 56
5, 176811, Note_on_c, 2, 78, 0
5, 176811, Note_on_c, 2, 76, 56
5, 176981, Note_on_c, 2, 79, 0
5, 176981, Note_on_c, 2, 78, 57
5, 176981, Note_on_c, 2, 76, 0
5, 176981, Note_on_c, 2, 74, 57
5, 177152, Note_on_c, 2, 78, 0
5, 177152, Note_on_c, 2, 79, 58
5, 177152, Note_on_c, 2, 74, 0
5, 177152, Note_on_c, 2, 76, 58
5, 177408, Note_on_c, 2, 79, 0
5, 177408, Note_on_c, 2, 76, 0
5, 178688, Note_on_c, 2, 81, 66
5, 178688, Note_on_c, 2, 78, 66
5, 178944, Note_on_c, 2, 81, 0
5, 178944, Note_on_c, 2, 79, 68
5, 178944, Note_on_c, 2, 78, 0
5, 178944, Note_on_c, 2, 76, 68
5, 179200, Note_on_c, 2, 79, 0
5, 179200, Note_on_c, 2, 76, 0
5, 179200, Note_on_c, 2, 78, 69
5, 179200, Note_on_c, 2, 74, 69
5, 179456, Note_on_c, 2, 78, 0
5, 179456, Note_on_c, 2, 74, 0
5, 179712, Note_on_c, 2, 79, 57
5, 179712, Note_on_c, 2, 76, 57
5, 179883, Note_on_c, 2, 79, 0
5, 179883, Note_on_c, 2, 78, 58
5, 179883, Note_on_c, 2, 76, 0
5, 179883, Note_on_c, 2, 74, 58
5, 180053, Note_on_c, 2, 78, 0
5, 180053, Note_on_c, 2, 76, 59
5, 180053, Note_on_c, 2, 74, 0
5, 180053, Note_on_c, 2, 73, 59
5, 180224, Note_on_c, 2, 76, 0
5, 180224, Note_on_c, 2, 78, 60
5, 180224, Note_on_c, 2, 73, 0
5, 180224, Note_on_c, 2, 74, 60
5, 180480, Note_on_c, 2, 78, 0
5, 180480, Note_on_c, 2, 74, 0
5, 181760, Note_on_c, 2, 79, 69
5, 181760, Note_on_c, 2, 74, 69
5, 182016, Note_on_c, 2, 79, 0
5, 182016, Note_on_c, 2, 78, 71
5, 182272, Note_on_c, 2, 78, 0
5, 182272, Note_on_c, 2, 76, 72
5, 182528, Note_on_c, 2, 76, 0
5, 182528, Note_on_c, 2, 74, 0
5, 182784, Note_on_c, 2, 71, 38
5, 182784, Note_on_c, 2, 71, 38
5, 182955, Note_on_c, 2, 71, 0
5, 182955, Note_on_c, 2, 69, 40
5, 182955, Note_on_c, 2, 71, 0
5, 182955, Note_on_c, 2, 69, 40
5, 183125, Note_on_c, 2, 69, 0
5, 183125, Note_on_c, 2, 68, 41
5, 183125, Note_on_c, 2, 69, 0
5, 183125, Note_on_c, 2, 68, 41
5, 183296, Note_on_c, 2, 68, 0
5, 183296, Note_on_c, 2, 74, 42
5, 183296, Note_on_c, 2, 68, 0
5, 183296, Note_on_c, 2, 74, 42
5, 185600, Note_on_c, 2, 74, 0
5, 185600, Note_on_c, 2, 74, 0
5, 185856, Note_on_c, 2, 73, 46
5, 185856, Note_on_c, 2, 73, 46
5, 186027, Note_on_c, 2, 73, 0
5, 186027, Note_on_c, 2, 71, 47
5, 186027, Note_on_c, 2, 73, 0
5, 186027, Note_on_c, 2, 71, 47
5, 186197, Note_on_c, 2, 71, 0
5, 186197, Note_on_c, 2, 69, 48
5, 186197, Note_on_c, 2, 71, 0
5, 186197, Note_on_c, 2, 69, 48
5, 186368, Note_on_c, 2, 69, 0
5, 186368, Note_on_c, 2, 76, 50
5, 186368, Note_on_c, 2, 69, 0
5, 186368, Note_on_c, 2, 76, 50
5, 186624, Note_on_c, 2, 76, 0
5, 186624, Note_on_c, 2, 78, 52
5, 186624, Note_on_c, 2, 76, 0
5, 186624, Note_on_c, 2, 78, 52
5, 186880, Note_on_c, 2, 78, 0
5, 186880, Note_on_c, 2, 76, 54
5, 186880, Note_on_c, 2, 78, 0
5, 186880, Note_on_c, 2, 76, 54
5, 187136, Note_on_c, 2, 76, 0
5, 187136, Note_on_c, 2, 78, 56
5, 187136, Note_on_c, 2, 76, 0
5, 187136, Note_on_c, 2, 78, 56
5, 187392, Note_on_c, 2, 78, 0
5, 187392, Note_on_c, 2, 76, 58
5, 187392, Note_on_c, 2, 78, 0
5, 187392, Note_on_c, 2, 76, 58
5, 187648, Note_on_c, 2, 76, 0
5, 187648, Note_on_c, 2, 78, 60
5, 187648, Note_on_c, 2, 76, 0
5, 187648, Note_on_c, 2, 78, 60
5, 187904, Note_on_c, 2, 78, 0
5, 187904, Note_on_c, 2, 76, 63
5, 187904, Note_on_c, 2, 78, 0
5, 187904, Note_on_c, 2, 76, 63
5, 188160, Note_on_c, 2, 76, 0
5, 188160, Note_on_c, 2, 78, 65
5, 188160, Note_on_c, 2, 76, 0
5, 188160, Note_on_c, 2, 78, 65
5, 188416, Note_on_c, 2, 78, 0
5, 188416, Note_on_c, 2, 78, 0
5, 188416, Note_on_c, 2, 76, 67
5, 188416, Note_on_c, 2, 76, 67
5, 191744, Note_on_c, 2, 76, 0
5, 191744, Note_on_c, 2, 76, 0
5, 192000, Note_on_c, 2, 75, 59
5, 192000, Note_on_c, 2, 75, 59
5, 192171, Note_on_c, 2, 75, 0
5, 192171, Note_on_c, 2, 73, 61
5, 192171, Note_on_c, 2, 75, 0
5, 192171, Note_on_c, 2, 73, 61
5, 192341, Note_on_c, 2, 73, 0
5, 192341, Note_on_c, 2, 71, 62
5, 192341, Note_on_c, 2, 73, 0
5, 192341, Note_on_c, 2, 71, 62
5, 192512, Note_on_c, 2, 71, 0
5, 192512, Note_on_c, 2, 78, 64
5, 192512, Note_on_c, 2, 71, 0
5, 192512, Note_on_c, 2, 78, 64
5, 192768, Note_on_c, 2, 78, 0
5, 192768, Note_on_c, 2, 79, 66
5, 192768, Note_on_c, 2, 78, 0
5, 192768, Note_on_c, 2, 79, 66
5, 193024, Note_on_c, 2, 79, 0
5, 193024, Note_on_c, 2, 78, 69
5, 193024, Note_on_c, 2, 79, 0
5, 193024, Note_on_c, 2, 78, 69
5, 193280, Note_on_c, 2, 78, 0
5, 193280, Note_on_c, 2, 79, 71
5, 193280, Note_on_c, 2, 78, 0
5, 193280, Note_on_c, 2, 79, 71
5, 193536, Note_on_c, 2, 79, 0
5, 193536, Note_on_c, 2, 78, 73
5, 193536, Note_on_c, 2, 79, 0
5, 193536, Note_on_c, 2, 78, 73
5, 193792, Note_on_c, 2, 78, 0
5, 193792, Note_on_c, 2, 79, 75
5, 193792, Note_on_c, 2, 78, 0
5, 193792, Note_on_c, 2, 79, 75
5, 194048, Note_on_c, 2, 79, 0
5, 194048, Note_on_c, 2, 78, 78
5, 194048, Note_on_c, 2, 79, 0
5, 194048, Note_on_c, 2, 78, 78
5, 194304, Note_on_c, 2, 78, 0
5, 194304, Note_on_c, 2, 79, 80
5, 194304, Note_on_c, 2, 78, 0
5, 194304, Note_on_c, 2, 79, 80
5, 194560, Note_on_c, 2, 79, 0
5, 194560, Note_on_c, 2, 79, 0
5, 194560, Note_on_c, 2, 76, 82
5, 194560, Note_on_c, 2, 76, 82
5, 194816, Note_on_c, 2, 76, 0
5, 194816, Note_on_c, 2, 76, 0
5, 202240, Note_on_c, 2, 66, 43
5, 202240, Note_on_c, 2, 66, 43
5, 202496, Note_on_c, 2, 66, 0
5, 202496, Note_on_c, 2, 66, 0
5, 202752, Note_on_c, 2, 71, 45
5, 202752, Note_on_c, 2, 71, 45
5, 203008, Note_on_c, 2, 71, 0
5, 203008, Note_on_c, 2, 71, 0
5, 203264, Note_on_c, 2, 73, 48
5, 203264, Note_on_c, 2, 73, 48
5, 203520, Note_on_c, 2, 73, 0
5, 203520, Note_on_c, 2, 73, 0
5, 203776, Note_on_c, 2, 74, 50
5, 203776, Note_on_c, 2, 74, 50
5, 204032, Note_on_c, 2, 74, 0
5, 204032, Note_on_c, 2, 74, 0
5, 204288, Note_on_c, 2, 76, 51
5, 204288, Note_on_c, 2, 76, 51
5, 204459, Note_on_c, 2, 76, 0
5, 204459, Note_on_c, 2, 74, 51
5, 204459, Note_on_c, 2, 76, 0
5, 204459, Note_on_c, 2, 74, 51
5, 204629, Note_on_c, 2, 74, 0
5, 204629, Note_on_c, 2, 73, 51
5, 204629, Note_on_c, 2, 74, 0
5, 204629, Note_on_c, 2, 73, 51
5, 204800, Note_on_c, 2, 73, 0
5, 204800, Note_on_c, 2, 74, 52
5, 204800, Note_on_c, 2, 73, 0
5, 204800, Note_on_c, 2, 74, 52
5, 205056, Note_on_c, 2, 74, 0
5, 205056, Note_on_c, 2, 74, 0
5, 205312, Note_on_c, 2, 78, 53
5, 205312, Note_on_c, 2, 78, 53
5, 205568, Note_on_c, 2, 78, 0
5, 205568, Note_on_c, 2, 78, 0
5, 205824, Note_on_c, 2, 76, 54
5, 205824, Note_on_c, 2, 76, 54
5, 206080, Note_on_c, 2, 76, 0
5, 206080, Note_on_c, 2, 76, 0
5, 206336, Note_on_c, 2, 75, 55
5, 206336, Note_on_c, 2, 75, 55
5, 206592, Note_on_c, 2, 75, 0
5, 206592, Note_on_c, 2, 75, 0
5, 206848, Note_on_c, 2, 76, 57
5, 206848, Note_on_c, 2, 76, 57
5, 207104, Note_on_c, 2, 76, 0
5, 207104, Note_on_c, 2, 76, 0
5, 207872, Note_on_c, 2, 79, 44
5, 207872, Note_on_c, 2, 79, 44
5, 208128, Note_on_c, 2, 79, 0
5, 208128, Note_on_c, 2, 79, 0
5, 208896, Note_on_c, 2, 76, 49
5, 208896, Note_on_c, 2, 76, 49
5, 209152, Note_on_c, 2, 76, 0
5, 209152, Note_on_c, 2, 76, 0
5, 209920, Note_on_c, 2, 73, 55
5, 209920, Note_on_c, 2, 73, 55
5, 210176, Note_on_c, 2, 73, 0
5, 210176, Note_on_c, 2, 73, 0
5, 210432, Note_on_c, 2, 74, 43
5, 210432, Note_on_c, 2, 74, 43
5, 210603, Note_on_c, 2, 74, 0
5, 210603, Note_on_c, 2, 73, 43
5, 210603, Note_on_c, 2, 74, 0
5, 210603, Note_on_c, 2, 73, 43
5, 210773, Note_on_c, 2, 73, 0
5, 210773, Note_on_c, 2, 71, 44
5, 210773, Note_on_c, 2, 73, 0
5, 210773, Note_on_c, 2, 71, 44
5, 210944, Note_on_c, 2, 71, 0
5, 210944, Note_on_c, 2, 73, 44
5, 210944, Note_on_c, 2, 71, 0
5, 210944, Note_on_c, 2, 73, 44
5, 211200, Note_on_c, 2, 73, 0
5, 211200, Note_on_c, 2, 73, 0
5, 211456, Note_on_c, 2, 76, 45
5, 211456, Note_on_c, 2, 76, 45
5, 211712, Note_on_c, 2, 76, 0
5, 211712, Note_on_c, 2, 76, 0
5, 211968, Note_on_c, 2, 74, 46
5, 211968, Note_on_c, 2, 74, 46
5, 212224, Note_on_c, 2, 74, 0
5, 212224, Note_on_c, 2, 74, 0
5, 212480, Note_on_c, 2, 73, 47
5, 212480, Note_on_c, 2, 73, 47
5, 212736, Note_on_c, 2, 73, 0
5, 212736, Note_on_c, 2, 73, 0
5, 212992, Note_on_c, 2, 74, 48
5, 212992, Note_on_c, 2, 74, 48
5, 213248, Note_on_c, 2, 74, 0
5, 213248, Note_on_c, 2, 74, 0
5, 214016, Note_on_c, 2, 78, 51
5, 214016, Note_on_c, 2, 78, 51
5, 214272, Note_on_c, 2, 78, 0
5, 214272, Note_on_c, 2, 78, 0
5, 215040, Note_on_c, 2, 74, 53
5, 215040, Note_on_c, 2, 74, 53
5, 215296, Note_on_c, 2, 74, 0
5, 215296, Note_on_c, 2, 74, 0
5, 216064, Note_on_c, 2, 71, 55
5, 216064, Note_on_c, 2, 71, 55
5, 216320, Note_on_c, 2, 71, 0
5, 216320, Note_on_c, 2, 71, 0
5, 216576, Note_on_c, 2, 72, 58
5, 216576, Note_on_c, 2, 72, 58
5, 216747, Note_on_c, 2, 72, 0
5, 216747, Note_on_c, 2, 71, 59
5, 216747, Note_on_c, 2, 72, 0
5, 216747, Note_on_c, 2, 71, 59
5, 216917, Note_on_c, 2, 71, 0
5, 216917, Note_on_c, 2, 69, 60
5, 216917, Note_on_c, 2, 71, 0
5, 216917, Note_on_c, 2, 69, 60
5, 217088, Note_on_c, 2, 69, 0
5, 217088, Note_on_c, 2, 71, 61
5, 217088, Note_on_c, 2, 69, 0
5, 217088, Note_on_c, 2, 71, 61
5, 217344, Note_on_c, 2, 71, 0
5, 217344, Note_on_c, 2, 71, 0
5, 217600, Note_on_c, 2, 81, 65
5, 217600, Note_on_c, 2, 81, 65
5, 217856, Note_on_c, 2, 81, 0
5, 217856, Note_on_c, 2, 81, 0
5, 218112, Note_on_c, 2, 79, 68
5, 218112, Note_on_c, 2, 79, 68
5, 218368, Note_on_c, 2, 79, 0
5, 218368, Note_on_c, 2, 79, 0
5, 218624, Note_on_c, 2, 78, 71
5, 218624, Note_on_c, 2, 78, 71
5, 218880, Note_on_c, 2, 78, 0
5, 218880, Note_on_c, 2, 78, 0
5, 219136, Note_on_c, 2, 79, 74
5, 219136, Note_on_c, 2, 79, 74
5, 219392, Note_on_c, 2, 79, 0
5, 219392, Note_on_c, 2, 78, 76
5, 219392, Note_on_c, 2, 79, 0
5, 219392, Note_on_c, 2, 78, 76
5, 219648, Note_on_c, 2, 78, 0
5, 219648, Note_on_c, 2, 76, 77
5, 219648, Note_on_c, 2, 78, 0
5, 219648, Note_on_c, 2, 76, 77
5, 219904, Note_on_c, 2, 76, 0
5, 219904, Note_on_c, 2, 78, 79
5, 219904, Note_on_c, 2, 76, 0
5, 219904, Note_on_c, 2, 78, 79
5, 220160, Note_on_c, 2, 78, 0
5, 220160, Note_on_c, 2, 79, 81
5, 220160, Note_on_c, 2, 78, 0
5, 220160, Note_on_c, 2, 79, 81
5, 220416, Note_on_c, 2, 79, 0
5, 220416, Note_on_c, 2, 81, 82
5, 220416, Note_on_c, 2, 79, 0
5, 220416, Note_on_c, 2, 81, 82
5, 220672, Note_on_c, 2, 81, 0
5, 220672, Note_on_c, 2, 83, 83
5, 220672, Note_on_c, 2, 81, 0
5, 220672, Note_on_c, 2, 83, 83
5, 220928, Note_on_c, 2, 83, 0
5, 220928, Note_on_c, 2, 82, 82
5, 220928, Note_on_c, 2, 83, 0
5, 220928, Note_on_c, 2, 82, 82
5, 221184, Note_on_c, 2, 82, 0
5, 221184, Note_on_c, 2, 85, 80
5, 221184, Note_on_c, 2, 82, 0
5, 221184, Note_on_c, 2, 85, 80
5, 221440, Note_on_c, 2, 85, 0
5, 221440, Note_on_c, 2, 83, 79
5, 221440, Note_on_c, 2, 85, 0
5, 221440, Note_on_c, 2, 83, 79
5, 221696, Note_on_c, 2, 83, 0
5, 221696, Note_on_c, 2, 82, 77
5, 221696, Note_on_c, 2, 83, 0
5, 221696, Note_on_c, 2, 82, 77
5, 221952, Note_on_c, 2, 82, 0
5, 221952, Note_on_c, 2, 80, 75
5, 221952, Note_on_c, 2, 82, 0
5, 221952, Note_on_c, 2, 80, 75
5, 222208, Note_on_c, 2, 80, 0
5, 222208, Note_on_c, 2, 80, 0
5, 222208, Note_on_c, 2, 78, 74
5, 222208, Note_on_c, 2, 78, 74
5, 222464, Note_on_c, 2, 78, 0
5, 222464, Note_on_c, 2, 76, 72
5, 222464, Note_on_c, 2, 78, 0
5, 222464, Note_on_c, 2, 76, 72
5, 222720, Note_on_c, 2, 76, 0
5, 222720, Note_on_c, 2, 74, 71
5, 222720, Note_on_c, 2, 76, 0
5, 222720, Note_on_c, 2, 74, 71
5, 222976, Note_on_c, 2, 74, 0
5, 222976, Note_on_c, 2, 76, 69
5, 222976, Note_on_c, 2, 74, 0
5, 222976, Note_on_c, 2, 76, 69
5, 223232, Note_on_c, 2, 76, 0
5, 223232, Note_on_c, 2, 78, 67
5, 223232, Note_on_c, 2, 76, 0
5, 223232, Note_on_c, 2, 78, 67
5, 223488, Note_on_c, 2, 78, 0
5, 223488, Note_on_c, 2, 78, 0
5, 223744, Note_on_c, 2, 71, 64
5, 223744, Note_on_c, 2, 71, 64
5, 224000, Note_on_c, 2, 71, 0
5, 224000, Note_on_c, 2, 71, 0
5, 224256, Note_on_c, 2, 74, 61
5, 224256, Note_on_c, 2, 74, 61
5, 224512, Note_on_c, 2, 74, 0
5, 224512, Note_on_c, 2, 73, 59
5, 224512, Note_on_c, 2, 74, 0
5, 224512, Note_on_c, 2, 73, 59
5, 224768, Note_on_c, 2, 73, 0
5, 224768, Note_on_c, 2, 71, 58
5, 224768, Note_on_c, 2, 73, 0
5, 224768, Note_on_c, 2, 71, 58
5, 225024, Note_on_c, 2, 71, 0
5, 225024, Note_on_c, 2, 70, 56
5, 225024, Note_on_c, 2, 71, 0
5, 225024, Note_on_c, 2, 70, 56
5, 225280, Note_on_c, 2, 70, 0
5, 225280, Note_on_c, 2, 70, 0
5, 225280, Note_on_c, 2, 71, 55
5, 225280, Note_on_c, 2, 71, 55
5, 226816, Note_on_c, 2, 71, 0
5, 226816, Note_on_c, 2, 71, 0
5, 263680, Note_on_c, 2, 69, 96
5, 263680, Note_on_c, 2, 69, 96
5, 263936, Note_on_c, 2, 69, 0
5, 263936, Note_on_c, 2, 69, 0
5, 264192, Note_on_c, 2, 74, 99
5, 264192, Note_on_c, 2, 74, 99
5, 264448, Note_on_c, 2, 74, 0
5, 264448, Note_on_c, 2, 74, 0
5, 264704, Note_on_c, 2, 76, 103
5, 264704, Note_on_c, 2, 76, 103
5, 264960, Note_on_c, 2, 76, 0
5, 264960, Note_on_c, 2, 76, 0
5, 265216, Note_on_c, 2, 78, 106
5, 265216, Note_on_c, 2, 78, 106
5, 265472, Note_on_c, 2, 78, 0
5, 265472, Note_on_c, 2, 78, 0
5, 265728, Note_on_c, 2, 79, 95
5, 265728, Note_on_c, 2, 79, 95
5, 265899, Note_on_c, 2, 79, 0
5, 265899, Note_on_c, 2, 78, 95
5, 265899, Note_on_c, 2, 79, 0
5, 265899, Note_on_c, 2, 78, 95
5, 266069, Note_on_c, 2, 78, 0
5, 266069, Note_on_c, 2, 76, 96
5, 266069, Note_on_c, 2, 78, 0
5, 266069, Note_on_c, 2, 76, 96
5, 266240, Note_on_c, 2, 76, 0
5, 266240, Note_on_c, 2, 78, 97
5, 266240, Note_on_c, 2, 76, 0
5, 266240, Note_on_c, 2, 78, 97
5, 266496, Note_on_c, 2, 78, 0
5, 266496, Note_on_c, 2, 78, 0
5, 266752, Note_on_c, 2, 83, 100
5, 266752, Note_on_c, 2, 83, 100
5, 267008, Note_on_c, 2, 83, 0
5, 267008, Note_on_c, 2, 83, 0
5, 267264, Note_on_c, 2, 81, 103
5, 267264, Note_on_c, 2, 81, 103
5, 267520, Note_on_c, 2, 81, 0
5, 267520, Note_on_c, 2, 81, 0
5, 267776, Note_on_c, 2, 79, 105
5, 267776, Note_on_c, 2, 79, 105
5, 268032, Note_on_c, 2, 79, 0
5, 268032, Note_on_c, 2, 79, 0
5, 268288, Note_on_c, 2, 78, 108
5, 268288, Note_on_c, 2, 78, 108
5, 268544, Note_on_c, 2, 78, 0
5, 268544, Note_on_c, 2, 76, 90
5, 268544, Note_on_c, 2, 78, 0
5, 268800, Note_on_c, 2, 76, 0
5, 268800, Note_on_c, 2, 74, 91
5, 268800, Note_on_c, 2, 69, 91
5, 269056, Note_on_c, 2, 74, 0
5, 269056, Note_on_c, 2, 76, 93
5, 269056, Note_on_c, 2, 69, 0
5, 269312, Note_on_c, 2, 76, 0
5, 269312, Note_on_c, 2, 78, 94
5, 269312, Note_on_c, 2, 74, 94
5, 269568, Note_on_c, 2, 78, 0
5, 269568, Note_on_c, 2, 79, 95
5, 269568, Note_on_c, 2, 74, 0
5, 269824, Note_on_c, 2, 79, 0
5, 269824, Note_on_c, 2, 81, 97
5, 269824, Note_on_c, 2, 78, 97
5, 270080, Note_on_c, 2, 81, 0
5, 270080, Note_on_c, 2, 83, 98
5, 270080, Note_on_c, 2, 78, 0
5, 270080, Note_on_c, 2, 76, 98
5, 270336, Note_on_c, 2, 83, 0
5, 270336, Note_on_c, 2, 81, 99
5, 270336, Note_on_c, 2, 76, 0
5, 270336, Note_on_c, 2, 78, 99
5, 270592, Note_on_c, 2, 81, 0
5, 270592, Note_on_c, 2, 79, 100
5, 270592, Note_on_c, 2, 78, 0
5, 270848, Note_on_c, 2, 79, 0
5, 270848, Note_on_c, 2, 78, 102
5, 270848, Note_on_c, 2, 74, 102
5, 271104, Note_on_c, 2, 78, 0
5, 271104, Note_on_c, 2, 76, 103
5, 271360, Note_on_c, 2, 76, 0
5, 271360, Note_on_c, 2, 74, 104
5, 271616, Note_on_c, 2, 74, 0
5, 271616, Note_on_c, 2, 74, 0
5, 271872, Note_on_c, 2, 76, 95
5, 271872, Note_on_c, 2, 76, 95
5, 272128, Note_on_c, 2, 76, 0
5, 272128, Note_on_c, 2, 78, 95
5, 272128, Note_on_c, 2, 76, 0
5, 272128, Note_on_c, 2, 78, 95
5, 272384, Note_on_c, 2, 78, 0
5, 272384, Note_on_c, 2, 79, 96
5, 272384, Note_on_c, 2, 78, 0
5, 272384, Note_on_c, 2, 79, 96
5, 272640, Note_on_c, 2, 79, 0
5, 272640, Note_on_c, 2, 79, 0
5, 272896, Note_on_c, 2, 81, 98
5, 272896, Note_on_c, 2, 81, 98
5, 273152, Note_on_c, 2, 81, 0
5, 273152, Note_on_c, 2, 81, 0
5, 273408, Note_on_c, 2, 79, 100
5, 273408, Note_on_c, 2, 79, 100
5, 273664, Note_on_c, 2, 79, 0
5, 273664, Note_on_c, 2, 78, 101
5, 273664, Note_on_c, 2, 79, 0
5, 273664, Note_on_c, 2, 78, 101
5, 273920, Note_on_c, 2, 78, 0
5, 273920, Note_on_c, 2, 76, 102
5, 273920, Note_on_c, 2, 78, 0
5, 273920, Note_on_c, 2, 76, 102
5, 274176, Note_on_c, 2, 76, 0
5, 274176, Note_on_c, 2, 74, 103
5, 274176, Note_on_c, 2, 76, 0
5, 274176, Note_on_c, 2, 74, 103
5, 274432, Note_on_c, 2, 74, 0
5, 274432, Note_on_c, 2, 74, 0
5, 274432, Note_on_c, 2, 76, 104
5, 274432, Note_on_c, 2, 76, 104
5, 274688, Note_on_c, 2, 76, 0
5, 274688, Note_on_c, 2, 76, 0
5, 274944, Note_on_c, 2, 69, 92
5, 274944, Note_on_c, 2, 69, 92
5, 275200, Note_on_c, 2, 69, 0
5, 275200, Note_on_c, 2, 69, 0
5, 275456, Note_on_c, 2, 73, 93
5, 275456, Note_on_c, 2, 73, 93
5, 275712, Note_on_c, 2, 73, 0
5, 275712, Note_on_c, 2, 73, 0
5, 275968, Note_on_c, 2, 76, 95
5, 275968, Note_on_c, 2, 76, 95
5, 276224, Note_on_c, 2, 76, 0
5, 276224, Note_on_c, 2, 76, 0
5, 276480, Note_on_c, 2, 81, 96
5, 276480, Note_on_c, 2, 81, 96
5, 276736, Note_on_c, 2, 81, 0
5, 276736, Note_on_c, 2, 79, 97
5, 276736, Note_on_c, 2, 81, 0
5, 276736, Note_on_c, 2, 79, 97
5, 276992, Note_on_c, 2, 79, 0
5, 276992, Note_on_c, 2, 78, 98
5, 276992, Note_on_c, 2, 79, 0
5, 276992, Note_on_c, 2, 78, 98
5, 277248, Note_on_c, 2, 78, 0
5, 277248, Note_on_c, 2, 76, 98
5, 277248, Note_on_c, 2, 78, 0
5, 277248, Note_on_c, 2, 76, 98
5, 277504, Note_on_c, 2, 76, 0
5, 277504, Note_on_c, 2, 76, 0
5, 277504, Note_on_c, 2, 78, 99
5, 277504, Note_on_c, 2, 78, 99
5, 277760, Note_on_c, 2, 78, 0
5, 277760, Note_on_c, 2, 78, 0
5, 278016, Note_on_c, 2, 79, 100
5, 278016, Note_on_c, 2, 79, 100
5, 278187, Note_on_c, 2, 79, 0
5, 278187, Note_on_c, 2, 78, 101
5, 278187, Note_on_c, 2, 79, 0
5, 278187, Note_on_c, 2, 78, 101
5, 278357, Note_on_c, 2, 78, 0
5, 278357, Note_on_c, 2, 76, 101
5, 278357, Note_on_c, 2, 78, 0
5, 278357, Note_on_c, 2, 76, 101
5, 278528, Note_on_c, 2, 76, 0
5, 278528, Note_on_c, 2, 78, 102
5, 278528, Note_on_c, 2, 76, 0
5, 278528, Note_on_c, 2, 78, 102
5, 278784, Note_on_c, 2, 78, 0
5, 278784, Note_on_c, 2, 78, 0
5, 279040, Note_on_c, 2, 79, 103
5, 279040, Note_on_c, 2, 79, 103
5, 279296, Note_on_c, 2, 79, 0
5, 279296, Note_on_c, 2, 79, 0
5, 279552, Note_on_c, 2, 81, 105
5, 279552, Note_on_c, 2, 81, 105
5, 279808, Note_on_c, 2, 81, 0
5, 279808, Note_on_c, 2, 81, 0
5, 280064, Note_on_c, 2, 83, 106
5, 280064, Note_on_c, 2, 83, 106
5, 280320, Note_on_c, 2, 83, 0
5, 280320, Note_on_c, 2, 83, 0
5, 280576, Note_on_c, 2, 76, 108
5, 280576, Note_on_c, 2, 76, 108
5, 281600, Note_on_c, 2, 76, 0
5, 281600, Note_on_c, 2, 76, 0
5, 284160, Note_on_c, 2, 69, 29
5, 284160, Note_on_c, 2, 69, 29
5, 284416, Note_on_c, 2, 69, 0
5, 284416, Note_on_c, 2, 69, 0
5, 284672, Note_on_c, 2, 69, 31
5, 284672, Note_on_c, 2, 69, 31
5, 284928, Note_on_c, 2, 69, 0
5, 284928, Note_on_c, 2, 69, 0
5, 285184, Note_on_c, 2, 69, 33
5, 285184, Note_on_c, 2, 69, 33
5, 285440, Note_on_c, 2, 69, 0
5, 285440, Note_on_c, 2, 69, 0
5, 285696, Note_on_c, 2, 69, 36
5, 285696, Note_on_c, 2, 69, 36
5, 285952, Note_on_c, 2, 69, 0
5, 285952, Note_on_c, 2, 69, 0
5, 286208, Note_on_c, 2, 69, 38
5, 286208, Note_on_c, 2, 69, 38
5, 286464, Note_on_c, 2, 69, 0
5, 286464, Note_on_c, 2, 69, 0
5, 287232, Note_on_c, 2, 74, 42
5, 287232, Note_on_c, 2, 74, 42
5, 287488, Note_on_c, 2, 74, 0
5, 287488, Note_on_c, 2, 74, 0
5, 287744, Note_on_c, 2, 74, 44
5, 287744, Note_on_c, 2, 74, 44
5, 288000, Note_on_c, 2, 74, 0
5, 288000, Note_on_c, 2, 74, 0
5, 288256, Note_on_c, 2, 74, 46
5, 288256, Note_on_c, 2, 74, 46
5, 288512, Note_on_c, 2, 74, 0
5, 288512, Note_on_c, 2, 74, 0
5, 288768, Note_on_c, 2, 74, 48
5, 288768, Note_on_c, 2, 74, 48
5, 289024, Note_on_c, 2, 74, 0
5, 289024, Note_on_c, 2, 74, 0
5, 289280, Note_on_c, 2, 74, 50
5, 289280, Note_on_c, 2, 74, 50
5, 289536, Note_on_c, 2, 74, 0
5, 289536, Note_on_c, 2, 74, 0
5, 290304, Note_on_c, 2, 73, 50
5, 290304, Note_on_c, 2, 73, 50
5, 290560, Note_on_c, 2, 73, 0
5, 290560, Note_on_c, 2, 73, 0
5, 290816, Note_on_c, 2, 73, 52
5, 290816, Note_on_c, 2, 73, 52
5, 291072, Note_on_c, 2, 73, 0
5, 291072, Note_on_c, 2, 73, 0
5, 291328, Note_on_c, 2, 73, 54
5, 291328, Note_on_c, 2, 73, 54
5, 291584, Note_on_c, 2, 73, 0
5, 291584, Note_on_c, 2, 73, 0
5, 291840, Note_on_c, 2, 73, 56
5, 291840, Note_on_c, 2, 73, 56
5, 292096, Note_on_c, 2, 73, 0
5, 292096, Note_on_c, 2, 73, 0
5, 292352, Note_on_c, 2, 73, 58
5, 292352, Note_on_c, 2, 73, 58
5, 292608, Note_on_c, 2, 73, 0
5, 292608, Note_on_c, 2, 73, 0
5, 293376, Note_on_c, 2, 76, 63
5, 293376, Note_on_c, 2, 76, 63
5, 293632, Note_on_c, 2, 76, 0
5, 293632, Note_on_c, 2, 76, 0
5, 293888, Note_on_c, 2, 76, 65
5, 293888, Note_on_c, 2, 76, 65
5, 294144, Note_on_c, 2, 76, 0
5, 294144, Note_on_c, 2, 76, 0
5, 294400, Note_on_c, 2, 76, 67
5, 294400, Note_on_c, 2, 76, 67
5, 294656, Note_on_c, 2, 76, 0
5, 294656, Note_on_c, 2, 76, 0
5, 294912, Note_on_c, 2, 76, 69
5, 294912, Note_on_c, 2, 76, 69
5, 295168, Note_on_c, 2, 76, 0
5, 295168, Note_on_c, 2, 76, 0
5, 295424, Note_on_c, 2, 76, 71
5, 295424, Note_on_c, 2, 76, 71
5, 295680, Note_on_c, 2, 76, 0
5, 295680, Note_on_c, 2, 76, 0
5, 295936, Note_on_c, 2, 74, 73
5, 295936, Note_on_c, 2, 74, 73
5, 296192, Note_on_c, 2, 74, 0
5, 296192, Note_on_c, 2, 78, 74
5, 296192, Note_on_c, 2, 74, 0
5, 296448, Note_on_c, 2, 78, 0
5, 296448, Note_on_c, 2, 81, 76
5, 296448, Note_on_c, 2, 78, 76
5, 296704, Note_on_c, 2, 81, 0
5, 296704, Note_on_c, 2, 79, 78
5, 296704, Note_on_c, 2, 78, 0
5, 296704, Note_on_c, 2, 76, 78
5, 296960, Note_on_c, 2, 79, 0
5, 296960, Note_on_c, 2, 78, 94
5, 296960, Note_on_c, 2, 76, 0
5, 296960, Note_on_c, 2, 74, 94
5, 297216, Note_on_c, 2, 78, 0
5, 297216, Note_on_c, 2, 79, 95
5, 297216, Note_on_c, 2, 74, 0
5, 297216, Note_on_c, 2, 76, 95
5, 297472, Note_on_c, 2, 79, 0
5, 297472, Note_on_c, 2, 78, 96
5, 297472, Note_on_c, 2, 76, 0
5, 297472, Note_on_c, 2, 74, 96
5, 297728, Note_on_c, 2, 78, 0
5, 297728, Note_on_c, 2, 79, 96
5, 297728, Note_on_c, 2, 74, 0
5, 297728, Note_on_c, 2, 76, 96
5, 297984, Note_on_c, 2, 79, 0
5, 297984, Note_on_c, 2, 78, 97
5, 297984, Note_on_c, 2, 76, 0
5, 297984, Note_on_c, 2, 74, 97
5, 298240, Note_on_c, 2, 78, 0
5, 298240, Note_on_c, 2, 79, 98
5, 298240, Note_on_c, 2, 74, 0
5, 298240, Note_on_c, 2, 76, 98
5, 298496, Note_on_c, 2, 79, 0
5, 298496, Note_on_c, 2, 78, 99
5, 298496, Note_on_c, 2, 76, 0
5, 298496, Note_on_c, 2, 74, 99
5, 298752, Note_on_c, 2, 78, 0
5, 298752, Note_on_c, 2, 79, 99
5, 298752, Note_on_c, 2, 74, 0
5, 298752, Note_on_c, 2, 76, 99
5, 299008, Note_on_c, 2, 79, 0
5, 299008, Note_on_c, 2, 76, 0
5, 299008, Note_on_c, 2, 78, 100
5, 299008, Note_on_c, 2, 74, 100
5, 299264, Note_on_c, 2, 78, 0
5, 299264, Note_on_c, 2, 74, 0
5, 302592, Note_on_c, 2, 78, 99
5, 302592, Note_on_c, 2, 74, 99
5, 302848, Note_on_c, 2, 78, 0
5, 302848, Note_on_c, 2, 76, 99
5, 302848, Note_on_c, 2, 74, 0
5, 302848, Note_on_c, 2, 73, 99
5, 303104, Note_on_c, 2, 76, 0
5, 303104, Note_on_c, 2, 74, 99
5, 303104, Note_on_c, 2, 73, 0
5, 303104, Note_on_c, 2, 71, 99
5, 303360, Note_on_c, 2, 74, 0
5, 303360, Note_on_c, 2, 76, 99
5, 303360, Note_on_c, 2, 71, 0
5, 303360, Note_on_c, 2, 73, 99
5, 303616, Note_on_c, 2, 76, 0
5, 303616, Note_on_c, 2, 74, 99
5, 303616, Note_on_c, 2, 73, 0
5, 303616, Note_on_c, 2, 71, 99
5, 303872, Note_on_c, 2, 74, 0
5, 303872, Note_on_c, 2, 76, 99
5, 303872, Note_on_c, 2, 71, 0
5, 303872, Note_on_c, 2, 73, 99
5, 304128, Note_on_c, 2, 76, 0
5, 304128, Note_on_c, 2, 74, 99
5, 304128, Note_on_c, 2, 73, 0
5, 304128, Note_on_c, 2, 71, 99
5, 304384, Note_on_c, 2, 74, 0
5, 304384, Note_on_c, 2, 76, 99
5, 304384, Note_on_c, 2, 71, 0
5, 304384, Note_on_c, 2, 73, 99
5, 304640, Note_on_c, 2, 76, 0
5, 304640, Note_on_c, 2, 74, 99
5, 304640, Note_on_c, 2, 73, 0
5, 304640, Note_on_c, 2, 71, 99
5, 304896, Note_on_c, 2, 74, 0
5, 304896, Note_on_c, 2, 76, 99
5, 304896, Note_on_c, 2, 71, 0
5, 304896, Note_on_c, 2, 73, 99
5, 305152, Note_on_c, 2, 76, 0
5, 305152, Note_on_c, 2, 73, 0
5, 305152, Note_on_c, 2, 74, 99
5, 305152, Note_on_c, 2, 71, 99
5, 305408, Note_on_c, 2, 74, 0
5, 305408, Note_on_c, 2, 71, 0
5, 308736, Note_on_c, 2, 69, 98
5, 308736, Note_on_c, 2, 69, 98
5, 308992, Note_on_c, 2, 69, 0
5, 308992, Note_on_c, 2, 71, 98
5, 308992, Note_on_c, 2, 69, 0
5, 308992, Note_on_c, 2, 68, 98
5, 309248, Note_on_c, 2, 71, 0
5, 309248, Note_on_c, 2, 73, 98
5, 309248, Note_on_c, 2, 68, 0
5, 309248, Note_on_c, 2, 69, 98
5, 309504, Note_on_c, 2, 73, 0
5, 309504, Note_on_c, 2, 74, 98
5, 309504, Note_on_c, 2, 69, 0
5, 309504, Note_on_c, 2, 71, 98
5, 309760, Note_on_c, 2, 74, 0
5, 309760, Note_on_c, 2, 76, 98
5, 309760, Note_on_c, 2, 71, 0
5, 309760, Note_on_c, 2, 73, 98
5, 310016, Note_on_c, 2, 76, 0
5, 310016, Note_on_c, 2, 73, 0
5, 310272, Note_on_c, 2, 78, 98
5, 310272, Note_on_c, 2, 75, 98
5, 310528, Note_on_c, 2, 78, 0
5, 310528, Note_on_c, 2, 75, 0
5, 310784, Note_on_c, 2, 81, 98
5, 310784, Note_on_c, 2, 78, 98
5, 310912, Note_on_c, 2, 81, 0
5, 310912, Note_on_c, 2, 79, 98
5, 310912, Note_on_c, 2, 78, 0
5, 310912, Note_on_c, 2, 76, 98
5, 311040, Note_on_c, 2, 79, 0
5, 311040, Note_on_c, 2, 81, 98
5, 311040, Note_on_c, 2, 76, 0
5, 311040, Note_on_c, 2, 78, 98
5, 311168, Note_on_c, 2, 81, 0
5, 311168, Note_on_c, 2, 79, 98
5, 311168, Note_on_c, 2, 78, 0
5, 311168, Note_on_c, 2, 76, 98
5, 311296, Note_on_c, 2, 79, 0
5, 311296, Note_on_c, 2, 76, 0
5, 311296, Note_on_c, 2, 81, 98
5, 311296, Note_on_c, 2, 78, 98
5, 311552, Note_on_c, 2, 81, 0
5, 311552, Note_on_c, 2, 78, 0
5, 311808, Note_on_c, 2, 83, 97
5, 311808, Note_on_c, 2, 79, 97
5, 311979, Note_on_c, 2, 83, 0
5, 311979, Note_on_c, 2, 81, 97
5, 311979, Note_on_c, 2, 79, 0
5, 311979, Note_on_c, 2, 78, 97
5, 312149, Note_on_c, 2, 81, 0
5, 312149, Note_on_c, 2, 79, 97
5, 312149, Note_on_c, 2, 78, 0
5, 312149, Note_on_c, 2, 76, 97
5, 312320, Note_on_c, 2, 79, 0
5, 312320, Note_on_c, 2, 81, 97
5, 312320, Note_on_c, 2, 76, 0
5, 312320, Note_on_c, 2, 78, 97
5, 312576, Note_on_c, 2, 81, 0
5, 312576, Note_on_c, 2, 78, 0
5, 313856, Note_on_c, 2, 83, 97
5, 313856, Note_on_c, 2, 79, 97
5, 314112, Note_on_c, 2, 83, 0
5, 314112, Note_on_c, 2, 81, 97
5, 314112, Note_on_c, 2, 79, 0
5, 314112, Note_on_c, 2, 78, 97
5, 314368, Note_on_c, 2, 81, 0
5, 314368, Note_on_c, 2, 78, 0
5, 314368, Note_on_c, 2, 79, 97
5, 314368, Note_on_c, 2, 76, 97
5, 314624, Note_on_c, 2, 79, 0
5, 314624, Note_on_c, 2, 76, 0
5, 314880, Note_on_c, 2, 81, 97
5, 314880, Note_on_c, 2, 78, 97
5, 315051, Note_on_c, 2, 81, 0
5, 315051, Note_on_c, 2, 79, 97
5, 315051, Note_on_c, 2, 78, 0
5, 315051, Note_on_c, 2, 76, 97
5, 315221, Note_on_c, 2, 79, 0
5, 315221, Note_on_c, 2, 78, 97
5, 315221, Note_on_c, 2, 76, 0
5, 315221, Note_on_c, 2, 74, 97
5, 315392, Note_on_c, 2, 78, 0
5, 315392, Note_on_c, 2, 79, 97
5, 315392, Note_on_c, 2, 74, 0
5, 315392, Note_on_c, 2, 76, 97
5, 315648, Note_on_c, 2, 79, 0
5, 315648, Note_on_c, 2, 76, 0
5, 316928, Note_on_c, 2, 81, 96
5, 316928, Note_on_c, 2, 78, 96
5, 317184, Note_on_c, 2, 81, 0
5, 317184, Note_on_c, 2, 79, 96
5, 317184, Note_on_c, 2, 78, 0
5, 317184, Note_on_c, 2, 76, 96
5, 317440, Note_on_c, 2, 79, 0
5, 317440, Note_on_c, 2, 76, 0
5, 317440, Note_on_c, 2, 78, 96
5, 317440, Note_on_c, 2, 74, 96
5, 317696, Note_on_c, 2, 78, 0
5, 317696, Note_on_c, 2, 74, 0
5, 317952, Note_on_c, 2, 79, 96
5, 317952, Note_on_c, 2, 76, 96
5, 318123, Note_on_c, 2, 79, 0
5, 318123, Note_on_c, 2, 78, 96
5, 318123, Note_on_c, 2, 76, 0
5, 318123, Note_on_c, 2, 74, 96
5, 318293, Note_on_c, 2, 78, 0
5, 318293, Note_on_c, 2, 76, 96
5, 318293, Note_on_c, 2, 74, 0
5, 318293, Note_on_c, 2, 73, 96
5, 318464, Note_on_c, 2, 76, 0
5, 318464, Note_on_c, 2, 78, 96
5, 318464, Note_on_c, 2, 73, 0
5, 318464, Note_on_c, 2, 74, 96
5, 318720, Note_on_c, 2, 78, 0
5, 318720, Note_on_c, 2, 74, 0
5, 320000, Note_on_c, 2, 79, 96
5, 320000, Note_on_c, 2, 74, 96
5, 320256, Note_on_c, 2, 79, 0
5, 320256, Note_on_c, 2, 78, 96
5, 320256, Note_on_c, 2, 74, 0
5, 320512, Note_on_c, 2, 78, 0
5, 320512, Note_on_c, 2, 76, 67
5, 320768, Note_on_c, 2, 76, 0
5, 321024, Note_on_c, 2, 76, 69
5, 321280, Note_on_c, 2, 76, 0
5, 321280, Note_on_c, 2, 78, 71
5, 321536, Note_on_c, 2, 78, 0
5, 321536, Note_on_c, 2, 76, 72
5, 321792, Note_on_c, 2, 76, 0
5, 323072, Note_on_c, 2, 76, 80
5, 323328, Note_on_c, 2, 76, 0
5, 323328, Note_on_c, 2, 78, 81
5, 323584, Note_on_c, 2, 78, 0
5, 323584, Note_on_c, 2, 79, 83
5, 323840, Note_on_c, 2, 79, 0
5, 324096, Note_on_c, 2, 79, 59
5, 324352, Note_on_c, 2, 79, 0
5, 324352, Note_on_c, 2, 78, 61
5, 324608, Note_on_c, 2, 78, 0
5, 324608, Note_on_c, 2, 79, 63
5, 324864, Note_on_c, 2, 79, 0
5, 326144, Note_on_c, 2, 76, 74
5, 326400, Note_on_c, 2, 76, 0
5, 326656, Note_on_c, 2, 78, 78
5, 326912, Note_on_c, 2, 78, 0
5, 327168, Note_on_c, 2, 78, 73
5, 327424, Note_on_c, 2, 78, 0
5, 327424, Note_on_c, 2, 79, 74
5, 327680, Note_on_c, 2, 79, 0
5, 327680, Note_on_c, 2, 78, 76
5, 327936, Note_on_c, 2, 78, 0
5, 329216, Note_on_c, 2, 78, 85
5, 329472, Note_on_c, 2, 78, 0
5, 329472, Note_on_c, 2, 79, 86
5, 329728, Note_on_c, 2, 79, 0
5, 329728, Note_on_c, 2, 81, 88
5, 329728, Note_on_c, 2, 76, 88
5, 329984, Note_on_c, 2, 81, 0
5, 329984, Note_on_c, 2, 76, 0
5, 330240, Note_on_c, 2, 81, 80
5, 330240, Note_on_c, 2, 75, 80
5, 330411, Note_on_c, 2, 75, 0
5, 330411, Note_on_c, 2, 73, 81
5, 330496, Note_on_c, 2, 81, 0
5, 330496, Note_on_c, 2, 79, 82
5, 330581, Note_on_c, 2, 73, 0
5, 330581, Note_on_c, 2, 71, 82
5, 330752, Note_on_c, 2, 79, 0
5, 330752, Note_on_c, 2, 81, 84
5, 330752, Note_on_c, 2, 71, 0
5, 330752, Note_on_c, 2, 78, 84
5, 331008, Note_on_c, 2, 81, 0
5, 331008, Note_on_c, 2, 78, 0
5, 332288, Note_on_c, 2, 78, 96
5, 332288, Note_on_c, 2, 75, 96
5, 332544, Note_on_c, 2, 78, 0
5, 332544, Note_on_c, 2, 75, 0
5, 332800, Note_on_c, 2, 79, 100
5, 332800, Note_on_c, 2, 76, 100
5, 333056, Note_on_c, 2, 79, 0
5, 333056, Note_on_c, 2, 76, 0
5, 333312, Note_on_c, 2, 81, 99
5, 333312, Note_on_c, 2, 81, 99
5, 333568, Note_on_c, 2, 81, 0
5, 333568, Note_on_c, 2, 79, 100
5, 333568, Note_on_c, 2, 81, 0
5, 333568, Note_on_c, 2, 79, 100
5, 333824, Note_on_c, 2, 79, 0
5, 333824, Note_on_c, 2, 78, 100
5, 333824, Note_on_c, 2, 79, 0
5, 333824, Note_on_c, 2, 78, 100
5, 334080, Note_on_c, 2, 78, 0
5, 334080, Note_on_c, 2, 78, 0
5, 334336, Note_on_c, 2, 83, 101
5, 334336, Note_on_c, 2, 83, 101
5, 334592, Note_on_c, 2, 83, 0
5, 334592, Note_on_c, 2, 83, 0
5, 334848, Note_on_c, 2, 81, 102
5, 334848, Note_on_c, 2, 81, 102
5, 335104, Note_on_c, 2, 81, 0
5, 335104, Note_on_c, 2, 79, 103
5, 335104, Note_on_c, 2, 81, 0
5, 335104, Note_on_c, 2, 79, 103
5, 335360, Note_on_c, 2, 79, 0
5, 335360, Note_on_c, 2, 78, 104
5, 335360, Note_on_c, 2, 79, 0
5, 335360, Note_on_c, 2, 78, 104
5, 335616, Note_on_c, 2, 78, 0
5, 335616, Note_on_c, 2, 76, 104
5, 335616, Note_on_c, 2, 78, 0
5, 335616, Note_on_c, 2, 76, 104
5, 335872, Note_on_c, 2, 76, 0
5, 335872, Note_on_c, 2, 76, 0
5, 335872, Note_on_c, 2, 74, 105
5, 335872, Note_on_c, 2, 74, 105
5, 336128, Note_on_c, 2, 74, 0
5, 336128, Note_on_c, 2, 76, 105
5, 336128, Note_on_c, 2, 74, 0
5, 336128, Note_on_c, 2, 76, 105
5, 336384, Note_on_c, 2, 76, 0
5, 336384, Note_on_c, 2, 78, 106
5, 336384, Note_on_c, 2, 76, 0
5, 336384, Note_on_c, 2, 78, 106
5, 336640, Note_on_c, 2, 78, 0
5, 336640, Note_on_c, 2, 79, 106
5, 336640, Note_on_c, 2, 78, 0
5, 336640, Note_on_c, 2, 79, 106
5, 336896, Note_on_c, 2, 79, 0
5, 336896, Note_on_c, 2, 81, 107
5, 336896, Note_on_c, 2, 79, 0
5, 336896, Note_on_c, 2, 81, 107
5, 337152, Note_on_c, 2, 81, 0
5, 337152, Note_on_c, 2, 81, 0
5, 337408, Note_on_c, 2, 74, 108
5, 337408, Note_on_c, 2, 74, 108
5, 337664, Note_on_c, 2, 74, 0
5, 337664, Note_on_c, 2, 74, 0
5, 337920, Note_on_c, 2, 78, 109
5, 337920, Note_on_c, 2, 78, 109
5, 338176, Note_on_c, 2, 78, 0
5, 338176, Note_on_c, 2, 78, 0
5, 338432, Note_on_c, 2, 76, 110
5, 338432, Note_on_c, 2, 76, 110
5, 338688, Note_on_c, 2, 76, 0
5, 338688, Note_on_c, 2, 76, 0
5, 338944, Note_on_c, 2, 74, 111
5, 338944, Note_on_c, 2, 74, 111
5, 339968, Note_on_c, 2, 74, 0
5, 339968, Note_on_c, 2, 74, 0
5, 340480, Note_on_c, 2, 76, 47
5, 340480, Note_on_c, 2, 73, 47
5, 340736, Note_on_c, 2, 76, 0
5, 340736, Note_on_c, 2, 73, 0
5, 340992, Note_on_c, 2, 78, 47
5, 340992, Note_on_c, 2, 75, 47
5, 341248, Note_on_c, 2, 78, 0
5, 341248, Note_on_c, 2, 75, 0
5, 341504, Note_on_c, 2, 79, 47
5, 341504, Note_on_c, 2, 76, 47
5, 341760, Note_on_c, 2, 79, 0
5, 341760, Note_on_c, 2, 76, 0
5, 342016, Note_on_c, 2, 81, 47
5, 342016, Note_on_c, 2, 78, 47
5, 342272, Note_on_c, 2, 81, 0
5, 342272, Note_on_c, 2, 78, 0
5, 342528, Note_on_c, 2, 83, 47
5, 342528, Note_on_c, 2, 79, 47
5, 342699, Note_on_c, 2, 83, 0
5, 342699, Note_on_c, 2, 81, 47
5, 342699, Note_on_c, 2, 79, 0
5, 342699, Note_on_c, 2, 78, 47
5, 342869, Note_on_c, 2, 81, 0
5, 342869, Note_on_c, 2, 79, 47
5, 342869, Note_on_c, 2, 78, 0
5, 342869, Note_on_c, 2, 76, 47
5, 343040, Note_on_c, 2, 79, 0
5, 343040, Note_on_c, 2, 81, 47
5, 343040, Note_on_c, 2, 76, 0
5, 343040, Note_on_c, 2, 78, 47
5, 343296, Note_on_c, 2, 81, 0
5, 343296, Note_on_c, 2, 78, 0
5, 343552, Note_on_c, 2, 84, 47
5, 343552, Note_on_c, 2, 81, 47
5, 343808, Note_on_c, 2, 84, 0
5, 343808, Note_on_c, 2, 81, 0
5, 344064, Note_on_c, 2, 83, 47
5, 344064, Note_on_c, 2, 79, 47
5, 344320, Note_on_c, 2, 83, 0
5, 344320, Note_on_c, 2, 79, 0
5, 344576, Note_on_c, 2, 81, 47
5, 344576, Note_on_c, 2, 78, 47
5, 344832, Note_on_c, 2, 81, 0
5, 344832, Note_on_c, 2, 78, 0
5, 345088, Note_on_c, 2, 79, 47
5, 345088, Note_on_c, 2, 76, 47
5, 345344, Note_on_c, 2, 79, 0
5, 345344, Note_on_c, 2, 76, 0
5, 345600, Note_on_c, 2, 79, 47
5, 345600, Note_on_c, 2, 76, 47
5, 345856, Note_on_c, 2, 79, 0
5, 345856, Note_on_c, 2, 78, 47
5, 345856, Note_on_c, 2, 76, 0
5, 345856, Note_on_c, 2, 75, 47
5, 346112, Note_on_c, 2, 78, 0
5, 346112, Note_on_c, 2, 79, 47
5, 346112, Note_on_c, 2, 75, 0
5, 346112, Note_on_c, 2, 76, 47
5, 346368, Note_on_c, 2, 79, 0
5, 346368, Note_on_c, 2, 76, 0
5, 346624, Note_on_c, 2, 79, 47
5, 346624, Note_on_c, 2, 76, 47
5, 346880, Note_on_c, 2, 79, 0
5, 346880, Note_on_c, 2, 78, 47
5, 346880, Note_on_c, 2, 76, 0
5, 346880, Note_on_c, 2, 75, 47
5, 347136, Note_on_c, 2, 78, 0
5, 347136, Note_on_c, 2, 81, 47
5, 347136, Note_on_c, 2, 75, 0
5, 347136, Note_on_c, 2, 78, 47
5, 347392, Note_on_c, 2, 81, 0
5, 347392, Note_on_c, 2, 78, 0
5, 347648, Note_on_c, 2, 79, 47
5, 347648, Note_on_c, 2, 76, 47
5, 347904, Note_on_c, 2, 79, 0
5, 347904, Note_on_c, 2, 78, 47
5, 347904, Note_on_c, 2, 76, 0
5, 347904, Note_on_c, 2, 75, 47
5, 348160, Note_on_c, 2, 78, 0
5, 348160, Note_on_c, 2, 75, 0
5, 348160, Note_on_c, 2, 79, 47
5, 348160, Note_on_c, 2, 76, 47
5, 348416, Note_on_c, 2, 79, 0
5, 348416, Note_on_c, 2, 78, 47
5, 348416, Note_on_c, 2, 76, 0
5, 348416, Note_on_c, 2, 75, 47
5, 348672, Note_on_c, 2, 78, 0
5, 348672, Note_on_c, 2, 76, 47
5, 348672, Note_on_c, 2, 75, 0
5, 348672, Note_on_c, 2, 76, 47
5, 348928, Note_on_c, 2, 76, 0
5, 348928, Note_on_c, 2, 78, 47
5, 348928, Note_on_c, 2, 76, 0
5, 348928, Note_on_c, 2, 78, 47
5, 349184, Note_on_c, 2, 78, 0
5, 349184, Note_on_c, 2, 79, 47
5, 349184, Note_on_c, 2, 78, 0
5, 349184, Note_on_c, 2, 79, 47
5, 349440, Note_on_c, 2, 79, 0
5, 349440, Note_on_c, 2, 81, 47
5, 349440, Note_on_c, 2, 79, 0
5, 349440, Note_on_c, 2, 81, 47
5, 349696, Note_on_c, 2, 81, 0
5, 349696, Note_on_c, 2, 83, 47
5, 349696, Note_on_c, 2, 81, 0
5, 349696, Note_on_c, 2, 83, 47
5, 349952, Note_on_c, 2, 83, 0
5, 349952, Note_on_c, 2, 84, 47
5, 349952, Note_on_c, 2, 83, 0
5, 349952, Note_on_c, 2, 84, 47
5, 350208, Note_on_c, 2, 84, 0
5, 350208, Note_on_c, 2, 83, 47
5, 350208, Note_on_c, 2, 84, 0
5, 350208, Note_on_c, 2, 83, 47
5, 350464, Note_on_c, 2, 83, 0
5, 350464, Note_on_c, 2, 81, 47
5, 350464, Note_on_c, 2, 83, 0
5, 350464, Note_on_c, 2, 81, 47
5, 350720, Note_on_c, 2, 81, 0
5, 350720, Note_on_c, 2, 79, 47
5, 350720, Note_on_c, 2, 81, 0
5, 350720, Note_on_c, 2, 79, 47
5, 350976, Note_on_c, 2, 79, 0
5, 350976, Note_on_c, 2, 78, 47
5, 350976, Note_on_c, 2, 79, 0
5, 350976, Note_on_c, 2, 78, 47
5, 351232, Note_on_c, 2, 78, 0
5, 351232, Note_on_c, 2, 78, 0
5, 351232, Note_on_c, 2, 79, 47
5, 351232, Note_on_c, 2, 79, 47
5, 351488, Note_on_c, 2, 79, 0
5, 351488, Note_on_c, 2, 81, 47
5, 351488, Note_on_c, 2, 79, 0
5, 351488, Note_on_c, 2, 81, 47
5, 351744, Note_on_c, 2, 81, 0
5, 351744, Note_on_c, 2, 79, 47
5, 351744, Note_on_c, 2, 81, 0
5, 351744, Note_on_c, 2, 79, 47
5, 352000, Note_on_c, 2, 79, 0
5, 352000, Note_on_c, 2, 78, 47
5, 352000, Note_on_c, 2, 79, 0
5, 352000, Note_on_c, 2, 78, 47
5, 352256, Note_on_c, 2, 78, 0
5, 352256, Note_on_c, 2, 76, 47
5, 352256, Note_on_c, 2, 78, 0
5, 352256, Note_on_c, 2, 76, 47
5, 352512, Note_on_c, 2, 76, 0
5, 352512, Note_on_c, 2, 71, 47
5, 352512, Note_on_c, 2, 76, 0
5, 352512, Note_on_c, 2, 71, 47
5, 352768, Note_on_c, 2, 71, 0
5, 352768, Note_on_c, 2, 73, 47
5, 352768, Note_on_c, 2, 71, 0
5, 352768, Note_on_c, 2, 73, 47
5, 353024, Note_on_c, 2, 73, 0
5, 353024, Note_on_c, 2, 74, 47
5, 353024, Note_on_c, 2, 73, 0
5, 353024, Note_on_c, 2, 74, 47
5, 353280, Note_on_c, 2, 74, 0
5, 353280, Note_on_c, 2, 76, 47
5, 353280, Note_on_c, 2, 74, 0
5, 353280, Note_on_c, 2, 76, 47
5, 353536, Note_on_c, 2, 76, 0
5, 353536, Note_on_c, 2, 78, 47
5, 353536, Note_on_c, 2, 76, 0
5, 353536, Note_on_c, 2, 78, 47
5, 353792, Note_on_c, 2, 78, 0
5, 353792, Note_on_c, 2, 79, 47
5, 353792, Note_on_c, 2, 78, 0
5, 353792, Note_on_c, 2, 79, 47
5, 354048, Note_on_c, 2, 79, 0
5, 354048, Note_on_c, 2, 81, 47
5, 354048, Note_on_c, 2, 79, 0
5, 354048, Note_on_c, 2, 81, 47
5, 354304, Note_on_c, 2, 81, 0
5, 354304, Note_on_c, 2, 81, 0
5, 354304, Note_on_c, 2, 79, 47
5, 354304, Note_on_c, 2, 79, 47
5, 354560, Note_on_c, 2, 79, 0
5, 354560, Note_on_c, 2, 78, 47
5, 354560, Note_on_c, 2, 79, 0
5, 354560, Note_on_c, 2, 78, 47
5, 354816, Note_on_c, 2, 78, 0
5, 354816, Note_on_c, 2, 76, 47
5, 354816, Note_on_c, 2, 78, 0
5, 354816, Note_on_c, 2, 76, 47
5, 355072, Note_on_c, 2, 76, 0
5, 355072, Note_on_c, 2, 78, 47
5, 355072, Note_on_c, 2, 76, 0
5, 355072, Note_on_c, 2, 78, 47
5, 355328, Note_on_c, 2, 78, 0
5, 355328, Note_on_c, 2, 79, 47
5, 355328, Note_on_c, 2, 78, 0
5, 355328, Note_on_c, 2, 79, 47
5, 355584, Note_on_c, 2, 79, 0
5, 355584, Note_on_c, 2, 81, 47
5, 355584, Note_on_c, 2, 79, 0
5, 355584, Note_on_c, 2, 81, 47
5, 355840, Note_on_c, 2, 81, 0
5, 355840, Note_on_c, 2, 83, 47
5, 355840, Note_on_c, 2, 81, 0
5, 355840, Note_on_c, 2, 83, 47
5, 356096, Note_on_c, 2, 83, 0
5, 356096, Note_on_c, 2, 83, 0
5, 356352, Note_on_c, 2, 81, 47
5, 356352, Note_on_c, 2, 81, 47
5, 356608, Note_on_c, 2, 81, 0
5, 356608, Note_on_c, 2, 81, 0
5, 356864, Note_on_c, 2, 79, 47
5, 356864, Note_on_c, 2, 79, 47
5, 357120, Note_on_c, 2, 79, 0
5, 357120, Note_on_c, 2, 79, 0
5, 357376, Note_on_c, 2, 78, 47
5, 357376, Note_on_c, 2, 74, 47
5, 357632, Note_on_c, 2, 78, 0
5, 357632, Note_on_c, 2, 74, 0
5, 357888, Note_on_c, 2, 78, 47
5, 357888, Note_on_c, 2, 74, 47
5, 358144, Note_on_c, 2, 78, 0
5, 358144, Note_on_c, 2, 76, 47
5, 358144, Note_on_c, 2, 74, 0
5, 358144, Note_on_c, 2, 73, 47
5, 358400, Note_on_c, 2, 76, 0
5, 358400, Note_on_c, 2, 78, 47
5, 358400, Note_on_c, 2, 73, 0
5, 358400, Note_on_c, 2, 74, 47
5, 358656, Note_on_c, 2, 78, 0
5, 358656, Note_on_c, 2, 74, 0
5, 358912, Note_on_c, 2, 78, 47
5, 358912, Note_on_c, 2, 74, 47
5, 359168, Note_on_c, 2, 78, 0
5, 359168, Note_on_c, 2, 76, 47
5, 359168, Note_on_c, 2, 74, 0
5, 359168, Note_on_c, 2, 73, 47
5, 359424, Note_on_c, 2, 76, 0
5, 359424, Note_on_c, 2, 79, 47
5, 359424, Note_on_c, 2, 73, 0
5, 359424, Note_on_c, 2, 76, 47
5, 359680, Note_on_c, 2, 79, 0
5, 359680, Note_on_c, 2, 76, 0
5, 359936, Note_on_c, 2, 78, 47
5, 359936, Note_on_c, 2, 74, 47
5, 360192, Note_on_c, 2, 78, 0
5, 360192, Note_on_c, 2, 76, 47
5, 360192, Note_on_c, 2, 74, 0
5, 360192, Note_on_c, 2, 73, 47
5, 360448, Note_on_c, 2, 76, 0
5, 360448, Note_on_c, 2, 73, 0
5, 360448, Note_on_c, 2, 78, 47
5, 360448, Note_on_c, 2, 74, 47
5, 360704, Note_on_c, 2, 78, 0
5, 360704, Note_on_c, 2, 76, 47
5, 360704, Note_on_c, 2, 74, 0
5, 360704, Note_on_c, 2, 73, 47
5, 360960, Note_on_c, 2, 76, 0
5, 360960, Note_on_c, 2, 74, 47
5, 360960, Note_on_c, 2, 73, 0
5, 360960, Note_on_c, 2, 74, 47
5, 361216, Note_on_c, 2, 74, 0
5, 361216, Note_on_c, 2, 76, 47
5, 361216, Note_on_c, 2, 74, 0
5, 361216, Note_on_c, 2, 76, 47
5, 361472, Note_on_c, 2, 76, 0
5, 361472, Note_on_c, 2, 78, 47
5, 361472, Note_on_c, 2, 76, 0
5, 361472, Note_on_c, 2, 78, 47
5, 361728, Note_on_c, 2, 78, 0
5, 361728, Note_on_c, 2, 79, 47
5, 361728, Note_on_c, 2, 78, 0
5, 361728, Note_on_c, 2, 79, 47
5, 361984, Note_on_c, 2, 79, 0
5, 361984, Note_on_c, 2, 81, 47
5, 361984, Note_on_c, 2, 79, 0
5, 361984, Note_on_c, 2, 81, 47
5, 362240, Note_on_c, 2, 81, 0
5, 362240, Note_on_c, 2, 83, 47
5, 362240, Note_on_c, 2, 81, 0
5, 362240, Note_on_c, 2, 83, 47
5, 362496, Note_on_c, 2, 83, 0
5, 362496, Note_on_c, 2, 81, 47
5, 362496, Note_on_c, 2, 83, 0
5, 362496, Note_on_c, 2, 81, 47
5, 362752, Note_on_c, 2, 81, 0
5, 362752, Note_on_c, 2, 79, 47
5, 362752, Note_on_c, 2, 81, 0
5, 362752, Note_on_c, 2, 79, 47
5, 363008, Note_on_c, 2, 79, 0
5, 363008, Note_on_c, 2, 78, 47
5, 363008, Note_on_c, 2, 79, 0
5, 363008, Note_on_c, 2, 78, 47
5, 363264, Note_on_c, 2, 78, 0
5, 363264, Note_on_c, 2, 76, 47
5, 363264, Note_on_c, 2, 78, 0
5, 363264, Note_on_c, 2, 76, 47
5, 363520, Note_on_c, 2, 76, 0
5, 363520, Note_on_c, 2, 76, 0
5, 363520, Note_on_c, 2, 78, 47
5, 363520, Note_on_c, 2, 78, 47
5, 363776, Note_on_c, 2, 78, 0
5, 363776, Note_on_c, 2, 79, 47
5, 363776, Note_on_c, 2, 78, 0
5, 363776, Note_on_c, 2, 79, 47
5, 364032, Note_on_c, 2, 79, 0
5, 364032, Note_on_c, 2, 78, 47
5, 364032, Note_on_c, 2, 79, 0
5, 364032, Note_on_c, 2, 78, 47
5, 364288, Note_on_c, 2, 78, 0
5, 364288, Note_on_c, 2, 76, 47
5, 364288, Note_on_c, 2, 78, 0
5, 364288, Note_on_c, 2, 76, 47
5, 364544, Note_on_c, 2, 76, 0
5, 364544, Note_on_c, 2, 74, 47
5, 364544, Note_on_c, 2, 76, 0
5, 364544, Note_on_c, 2, 74, 47
5, 364800, Note_on_c, 2, 74, 0
5, 364800, Note_on_c, 2, 76, 47
5, 364800, Note_on_c, 2, 74, 0
5, 364800, Note_on_c, 2, 76, 47
5, 365056, Note_on_c, 2, 76, 0
5, 365056, Note_on_c, 2, 78, 47
5, 365056, Note_on_c, 2, 76, 0
5, 365056, Note_on_c, 2, 78, 47
5, 365312, Note_on_c, 2, 78, 0
5, 365312, Note_on_c, 2, 79, 47
5, 365312, Note_on_c, 2, 78, 0
5, 365312, Note_on_c, 2, 79, 47
5, 365568, Note_on_c, 2, 79, 0
5, 365568, Note_on_c, 2, 81, 47
5, 365568, Note_on_c, 2, 79, 0
5, 365568, Note_on_c, 2, 81, 47
5, 365824, Note_on_c, 2, 81, 0
5, 365824, Note_on_c, 2, 83, 47
5, 365824, Note_on_c, 2, 81, 0
5, 365824, Note_on_c, 2, 83, 47
5, 366080, Note_on_c, 2, 83, 0
5, 366080, Note_on_c, 2, 81, 47
5, 366080, Note_on_c, 2, 83, 0
5, 366080, Note_on_c, 2, 81, 47
5, 366336, Note_on_c, 2, 81, 0
5, 366336, Note_on_c, 2, 83, 47
5, 366336, Note_on_c, 2, 81, 0
5, 366336, Note_on_c, 2, 83, 47
5, 366592, Note_on_c, 2, 83, 0
5, 366592, Note_on_c, 2, 83, 0
5, 366592, Note_on_c, 2, 81, 47
5, 366592, Note_on_c, 2, 81, 47
5, 366848, Note_on_c, 2, 81, 0
5, 366848, Note_on_c, 2, 83, 47
5, 366848, Note_on_c, 2, 81, 0
5, 366848, Note_on_c, 2, 83, 47
5, 367104, Note_on_c, 2, 83, 0
5, 367104, Note_on_c, 2, 81, 47
5, 367104, Note_on_c, 2, 83, 0
5, 367104, Note_on_c, 2, 81, 47
5, 367360, Note_on_c, 2, 81, 0
5, 367360, Note_on_c, 2, 83, 47
5, 367360, Note_on_c, 2, 81, 0
5, 367360, Note_on_c, 2, 83, 47
5, 367616, Note_on_c, 2, 83, 0
5, 367616, Note_on_c, 2, 81, 47
5, 367616, Note_on_c, 2, 83, 0
5, 367616, Note_on_c, 2, 81, 47
5, 367872, Note_on_c, 2, 81, 0
5, 367872, Note_on_c, 2, 79, 47
5, 367872, Note_on_c, 2, 81, 0
5, 367872, Note_on_c, 2, 79, 47
5, 368128, Note_on_c, 2, 79, 0
5, 368128, Note_on_c, 2, 78, 47
5, 368128, Note_on_c, 2, 79, 0
5, 368128, Note_on_c, 2, 78, 47
5, 368384, Note_on_c, 2, 78, 0
5, 368384, Note_on_c, 2, 79, 47
5, 368384, Note_on_c, 2, 78, 0
5, 368384, Note_on_c, 2, 79, 47
5, 368640, Note_on_c, 2, 79, 0
5, 368640, Note_on_c, 2, 81, 47
5, 368640, Note_on_c, 2, 79, 0
5, 368640, Note_on_c, 2, 81, 47
5, 368896, Note_on_c, 2, 81, 0
5, 368896, Note_on_c, 2, 79, 47
5, 368896, Note_on_c, 2, 81, 0
5, 368896, Note_on_c, 2, 79, 47
5, 369152, Note_on_c, 2, 79, 0
5, 369152, Note_on_c, 2, 78, 47
5, 369152, Note_on_c, 2, 79, 0
5, 369152, Note_on_c, 2, 78, 47
5, 369408, Note_on_c, 2, 78, 0
5, 369408, Note_on_c, 2, 76, 47
5, 369408, Note_on_c, 2, 78, 0
5, 369408, Note_on_c, 2, 76, 47
5, 369664, Note_on_c, 2, 76, 0
5, 369664, Note_on_c, 2, 76, 0
5, 369664, Note_on_c, 2, 74, 48
5, 369664, Note_on_c, 2, 74, 48
5, 369920, Note_on_c, 2, 74, 0
5, 369920, Note_on_c, 2, 76, 50
5, 369920, Note_on_c, 2, 74, 0
5, 369920, Note_on_c, 2, 76, 50
5, 370176, Note_on_c, 2, 76, 0
5, 370176, Note_on_c, 2, 74, 52
5, 370176, Note_on_c, 2, 76, 0
5, 370176, Note_on_c, 2, 74, 52
5, 370432, Note_on_c, 2, 74, 0
5, 370432, Note_on_c, 2, 73, 54
5, 370432, Note_on_c, 2, 74, 0
5, 370432, Note_on_c, 2, 73, 54
5, 370688, Note_on_c, 2, 73, 0
5, 370688, Note_on_c, 2, 71, 56
5, 370688, Note_on_c, 2, 73, 0
5, 370688, Note_on_c, 2, 71, 56
5, 370944, Note_on_c, 2, 71, 0
5, 370944, Note_on_c, 2, 70, 58
5, 370944, Note_on_c, 2, 71, 0
5, 370944, Note_on_c, 2, 70, 58
5, 371200, Note_on_c, 2, 70, 0
5, 371200, Note_on_c, 2, 71, 60
5, 371200, Note_on_c, 2, 70, 0
5, 371200, Note_on_c, 2, 71, 60
5, 371456, Note_on_c, 2, 71, 0
5, 371456, Note_on_c, 2, 73, 62
5, 371456, Note_on_c, 2, 71, 0
5, 371456, Note_on_c, 2, 73, 62
5, 371712, Note_on_c, 2, 73, 0
5, 371712, Note_on_c, 2, 74, 64
5, 371712, Note_on_c, 2, 73, 0
5, 371712, Note_on_c, 2, 74, 64
5, 371968, Note_on_c, 2, 74, 0
5, 371968, Note_on_c, 2, 76, 67
5, 371968, Note_on_c, 2, 74, 0
5, 371968, Note_on_c, 2, 76, 67
5, 372224, Note_on_c, 2, 76, 0
5, 372224, Note_on_c, 2, 78, 69
5, 372224, Note_on_c, 2, 76, 0
5, 372224, Note_on_c, 2, 78, 69
5, 372480, Note_on_c, 2, 78, 0
5, 372480, Note_on_c, 2, 79, 71
5, 372480, Note_on_c, 2, 78, 0
5, 372480, Note_on_c, 2, 79, 71
5, 372736, Note_on_c, 2, 79, 0
5, 372736, Note_on_c, 2, 79, 0
5, 372736, Note_on_c, 2, 81, 73
5, 372736, Note_on_c, 2, 78, 73
5, 372992, Note_on_c, 2, 81, 0
5, 372992, Note_on_c, 2, 78, 0
5, 373248, Note_on_c, 2, 83, 53
5, 373248, Note_on_c, 2, 79, 53
5, 373419, Note_on_c, 2, 83, 0
5, 373419, Note_on_c, 2, 81, 53
5, 373419, Note_on_c, 2, 79, 0
5, 373419, Note_on_c, 2, 78, 53
5, 373589, Note_on_c, 2, 81, 0
5, 373589, Note_on_c, 2, 79, 54
5, 373589, Note_on_c, 2, 78, 0
5, 373589, Note_on_c, 2, 76, 54
5, 373760, Note_on_c, 2, 79, 0
5, 373760, Note_on_c, 2, 81, 55
5, 373760, Note_on_c, 2, 76, 0
5, 373760, Note_on_c, 2, 78, 55
5, 374016, Note_on_c, 2, 81, 0
5, 374016, Note_on_c, 2, 78, 0
5, 375296, Note_on_c, 2, 83, 63
5, 375296, Note_on_c, 2, 79, 63
5, 375552, Note_on_c, 2, 83, 0
5, 375552, Note_on_c, 2, 81, 65
5, 375552, Note_on_c, 2, 79, 0
5, 375552, Note_on_c, 2, 78, 65
5, 375808, Note_on_c, 2, 81, 0
5, 375808, Note_on_c, 2, 78, 0
5, 375808, Note_on_c, 2, 79, 66
5, 375808, Note_on_c, 2, 76, 66
5, 376064, Note_on_c, 2, 79, 0
5, 376064, Note_on_c, 2, 76, 0
5, 376320, Note_on_c, 2, 81, 50
5, 376320, Note_on_c, 2, 78, 50
5, 376491, Note_on_c, 2, 81, 0
5, 376491, Note_on_c, 2, 79, 51
5, 376491, Note_on_c, 2, 78, 0
5, 376491, Note_on_c, 2, 76, 51
5, 376661, Note_on_c, 2, 79, 0
5, 376661, Note_on_c, 2, 78, 52
5, 376661, Note_on_c, 2, 76, 0
5, 376661, Note_on_c, 2, 74, 52
5, 376832, Note_on_c, 2, 78, 0
5, 376832, Note_on_c, 2, 79, 54
5, 376832, Note_on_c, 2, 74, 0
5, 376832, Note_on_c, 2, 76, 54
5, 377088, Note_on_c, 2, 79, 0
5, 377088, Note_on_c, 2, 76, 0
5, 378368, Note_on_c, 2, 81, 63
5, 378368, Note_on_c, 2, 78, 63
5, 378624, Note_on_c, 2, 81, 0
5, 378624, Note_on_c, 2, 79, 65
5, 378624, Note_on_c, 2, 78, 0
5, 378624, Note_on_c, 2, 76, 65
5, 378880, Note_on_c, 2, 79, 0
5, 378880, Note_on_c, 2, 76, 0
5, 378880, Note_on_c, 2, 78, 66
5, 378880, Note_on_c, 2, 74, 66
5, 379136, Note_on_c, 2, 78, 0
5, 379136, Note_on_c, 2, 74, 0
5, 379392, Note_on_c, 2, 79, 47
5, 379392, Note_on_c, 2, 76, 47
5, 379563, Note_on_c, 2, 79, 0
5, 379563, Note_on_c, 2, 78, 48
5, 379563, Note_on_c, 2, 76, 0
5, 379563, Note_on_c, 2, 74, 48
5, 379733, Note_on_c, 2, 78, 0
5, 379733, Note_on_c, 2, 76, 49
5, 379733, Note_on_c, 2, 74, 0
5, 379733, Note_on_c, 2, 73, 49
5, 379904, Note_on_c, 2, 76, 0
5, 379904, Note_on_c, 2, 78, 51
5, 379904, Note_on_c, 2, 73, 0
5, 379904, Note_on_c, 2, 74, 51
5, 380160, Note_on_c, 2, 78, 0
5, 380160, Note_on_c, 2, 74, 0
5, 381440, Note_on_c, 2, 79, 62
5, 381440, Note_on_c, 2, 74, 62
5, 381696, Note_on_c, 2, 79, 0
5, 381696, Note_on_c, 2, 78, 64
5, 381696, Note_on_c, 2, 74, 0
5, 381952, Note_on_c, 2, 78, 0
5, 381952, Note_on_c, 2, 76, 35
5, 382208, Note_on_c, 2, 76, 0
5, 382464, Note_on_c, 2, 76, 39
5, 382720, Note_on_c, 2, 76, 0
5, 382720, Note_on_c, 2, 78, 41
5, 382976, Note_on_c, 2, 78, 0
5, 382976, Note_on_c, 2, 76, 43
5, 383232, Note_on_c, 2, 76, 0
5, 384512, Note_on_c, 2, 76, 56
5, 384768, Note_on_c, 2, 76, 0
5, 384768, Note_on_c, 2, 78, 58
5, 385024, Note_on_c, 2, 78, 0
5, 385024, Note_on_c, 2, 79, 60
5, 385280, Note_on_c, 2, 79, 0
5, 385536, Note_on_c, 2, 79, 47
5, 385792, Note_on_c, 2, 79, 0
5, 385792, Note_on_c, 2, 78, 49
5, 386048, Note_on_c, 2, 78, 0
5, 386048, Note_on_c, 2, 79, 52
5, 386304, Note_on_c, 2, 79, 0
5, 387584, Note_on_c, 2, 76, 65
5, 387840, Note_on_c, 2, 76, 0
5, 388096, Note_on_c, 2, 78, 69
5, 388352, Note_on_c, 2, 78, 0
5, 388608, Note_on_c, 2, 78, 60
5, 388864, Note_on_c, 2, 78, 0
5, 388864, Note_on_c, 2, 79, 62
5, 389120, Note_on_c, 2, 79, 0
5, 389120, Note_on_c, 2, 78, 65
5, 389376, Note_on_c, 2, 78, 0
5, 390656, Note_on_c, 2, 78, 80
5, 390912, Note_on_c, 2, 78, 0
5, 390912, Note_on_c, 2, 79, 82
5, 391168, Note_on_c, 2, 79, 0
5, 391168, Note_on_c, 2, 81, 85
5, 391168, Note_on_c, 2, 76, 85
5, 391424, Note_on_c, 2, 81, 0
5, 391424, Note_on_c, 2, 76, 0
5, 391680, Note_on_c, 2, 81, 85
5, 391680, Note_on_c, 2, 75, 85
5, 391851, Note_on_c, 2, 75, 0
5, 391851, Note_on_c, 2, 73, 87
5, 391936, Note_on_c, 2, 81, 0
5, 391936, Note_on_c, 2, 79, 87
5, 392021, Note_on_c, 2, 73, 0
5, 392021, Note_on_c, 2, 71, 88
5, 392192, Note_on_c, 2, 79, 0
5, 392192, Note_on_c, 2, 81, 89
5, 392192, Note_on_c, 2, 71, 0
5, 392192, Note_on_c, 2, 78, 89
5, 392448, Note_on_c, 2, 81, 0
5, 392448, Note_on_c, 2, 78, 0
5, 393728, Note_on_c, 2, 78, 100
5, 393728, Note_on_c, 2, 75, 100
5, 393984, Note_on_c, 2, 78, 0
5, 393984, Note_on_c, 2, 75, 0
5, 394240, Note_on_c, 2, 79, 104
5, 394240, Note_on_c, 2, 76, 104
5, 394496, Note_on_c, 2, 79, 0
5, 394496, Note_on_c, 2, 76, 0
5, 394752, Note_on_c, 2, 81, 106
5, 394752, Note_on_c, 2, 81, 106
5, 395008, Note_on_c, 2, 81, 0
5, 395008, Note_on_c, 2, 79, 106
5, 395008, Note_on_c, 2, 81, 0
5, 395008, Note_on_c, 2, 79, 106
5, 395264, Note_on_c, 2, 79, 0
5, 395264, Note_on_c, 2, 78, 107
5, 395264, Note_on_c, 2, 79, 0
5, 395264, Note_on_c, 2, 78, 107
5, 395520, Note_on_c, 2, 78, 0
5, 395520, Note_on_c, 2, 78, 0
5, 395776, Note_on_c, 2, 83, 108
5, 395776, Note_on_c, 2, 83, 108
5, 396032, Note_on_c, 2, 83, 0
5, 396032, Note_on_c, 2, 83, 0
5, 396288, Note_on_c, 2, 81, 109
5, 396288, Note_on_c, 2, 81, 109
5, 396544, Note_on_c, 2, 81, 0
5, 396544, Note_on_c, 2, 79, 109
5, 396544, Note_on_c, 2, 81, 0
5, 396544, Note_on_c, 2, 79, 109
5, 396800, Note_on_c, 2, 79, 0
5, 396800, Note_on_c, 2, 78, 110
5, 396800, Note_on_c, 2, 79, 0
5, 396800, Note_on_c, 2, 78, 110
5, 397056, Note_on_c, 2, 78, 0
5, 397056, Note_on_c, 2, 76, 110
5, 397056, Note_on_c, 2, 78, 0
5, 397056, Note_on_c, 2, 76, 110
5, 397312, Note_on_c, 2, 76, 0
5, 397312, Note_on_c, 2, 76, 0
5, 397312, Note_on_c, 2, 74, 111
5, 397312, Note_on_c, 2, 74, 111
5, 397568, Note_on_c, 2, 74, 0
5, 397568, Note_on_c, 2, 76, 111
5, 397568, Note_on_c, 2, 74, 0
5, 397568, Note_on_c, 2, 76, 111
5, 397824, Note_on_c, 2, 76, 0
5, 397824, Note_on_c, 2, 78, 112
5, 397824, Note_on_c, 2, 76, 0
5, 397824, Note_on_c, 2, 78, 112
5, 398080, Note_on_c, 2, 78, 0
5, 398080, Note_on_c, 2, 79, 112
5, 398080, Note_on_c, 2, 78, 0
5, 398080, Note_on_c, 2, 79, 112
5, 398336, Note_on_c, 2, 79, 0
5, 398336, Note_on_c, 2, 81, 113
5, 398336, Note_on_c, 2, 79, 0
5, 398336, Note_on_c, 2, 81, 113
5, 398592, Note_on_c, 2, 81, 0
5, 398592, Note_on_c, 2, 81, 0
5, 398848, Note_on_c, 2, 74, 114
5, 398848, Note_on_c, 2, 74, 114
5, 399104, Note_on_c, 2, 74, 0
5, 399104, Note_on_c, 2, 74, 0
5, 399360, Note_on_c, 2, 69, 115
5, 399360, Note_on_c, 2, 69, 115
5, 399616, Note_on_c, 2, 69, 0
5, 399616, Note_on_c, 2, 69, 0
5, 399872, Note_on_c, 2, 73, 116
5, 399872, Note_on_c, 2, 73, 116
5, 400128, Note_on_c, 2, 73, 0
5, 400128, Note_on_c, 2, 73, 0
5, 400384, Note_on_c, 2, 74, 117
5, 400384, Note_on_c, 2, 74, 117
5, 403456, Note_on_c, 2, 74, 0
5, 403456, Note_on_c, 2, 74, 0
5, 409600, End_track
6, 0, Start_track
6, 0, Title_t, "Bassoon"
6, 0, Program_c, 4, 70
6, 0, Control_c, 4, 121, 127
6, 0, Control_c, 4, 91, 127
6, 0, Control_c, 4, 10, 60
6, 0, Control_c, 4, 1, 10
6, 2560, Note_on_c, 4, 50, 91
6, 2816, Note_on_c, 4, 50, 0
6, 3072, Note_on_c, 4, 54, 92
6, 3328, Note_on_c, 4, 54, 0
6, 3584, Note_on_c, 4, 57, 94
6, 3840, Note_on_c, 4, 57, 0
6, 4096, Note_on_c, 4, 62, 96
6, 5120, Note_on_c, 4, 62, 0
6, 5632, Note_on_c, 4, 55, 96
6, 6144, Note_on_c, 4, 55, 0
6, 6144, Note_on_c, 4, 57, 96
6, 6400, Note_on_c, 4, 57, 0
6, 6656, Note_on_c, 4, 45, 96
6, 6912, Note_on_c, 4, 45, 0
6, 7168, Note_on_c, 4, 50, 96
6, 7424, Note_on_c, 4, 50, 0
6, 8192, Note_on_c, 4, 38, 96
6, 8448, Note_on_c, 4, 38, 0
6, 9216, Note_on_c, 4, 50, 96
6, 9472, Note_on_c, 4, 50, 0
6, 10240, Note_on_c, 4, 55, 96
6, 10496, Note_on_c, 4, 55, 0
6, 10752, Note_on_c, 4, 54, 96
6, 11008, Note_on_c, 4, 54, 0
6, 11264, Note_on_c, 4, 52, 96
6, 11520, Note_on_c, 4, 52, 0
6, 11776, Note_on_c, 4, 49, 96
6, 12032, Note_on_c, 4, 49, 0
6, 12288, Note_on_c, 4, 50, 96
6, 12544, Note_on_c, 4, 50, 0
6, 12800, Note_on_c, 4, 47, 96
6, 13056, Note_on_c, 4, 47, 0
6, 13312, Note_on_c, 4, 45, 96
6, 14336, Note_on_c, 4, 45, 0
6, 14848, Note_on_c, 4, 57, 96
6, 15104, Note_on_c, 4, 57, 0
6, 15104, Note_on_c, 4, 55, 95
6, 15360, Note_on_c, 4, 55, 0
6, 15360, Note_on_c, 4, 54, 94
6, 15616, Note_on_c, 4, 54, 0
6, 15872, Note_on_c, 4, 57, 92
6, 16128, Note_on_c, 4, 57, 0
6, 16384, Note_on_c, 4, 50, 91
6, 16640, Note_on_c, 4, 50, 0
6, 16896, Note_on_c, 4, 57, 89
6, 17152, Note_on_c, 4, 57, 0
6, 17408, Note_on_c, 4, 62, 87
6, 17664, Note_on_c, 4, 62, 0
6, 17920, Note_on_c, 4, 59, 86
6, 18176, Note_on_c, 4, 59, 0
6, 18432, Note_on_c, 4, 54, 84
6, 18688, Note_on_c, 4, 54, 0
6, 18944, Note_on_c, 4, 55, 82
6, 19200, Note_on_c, 4, 55, 0
6, 19456, Note_on_c, 4, 57, 79
6, 19712, Note_on_c, 4, 57, 0
6, 19968, Note_on_c, 4, 59, 81
6, 20224, Note_on_c, 4, 59, 0
6, 20480, Note_on_c, 4, 61, 84
6, 20736, Note_on_c, 4, 61, 0
6, 20992, Note_on_c, 4, 59, 86
6, 21248, Note_on_c, 4, 59, 0
6, 21504, Note_on_c, 4, 57, 89
6, 21760, Note_on_c, 4, 57, 0
6, 22016, Note_on_c, 4, 59, 91
6, 22272, Note_on_c, 4, 59, 0
6, 22528, Note_on_c, 4, 61, 94
6, 22784, Note_on_c, 4, 61, 0
6, 23040, Note_on_c, 4, 57, 96
6, 23296, Note_on_c, 4, 57, 0
6, 23552, Note_on_c, 4, 54, 98
6, 23808, Note_on_c, 4, 54, 0
6, 24064, Note_on_c, 4, 50, 101
6, 24320, Note_on_c, 4, 50, 0
6, 24576, Note_on_c, 4, 52, 103
6, 24832, Note_on_c, 4, 52, 0
6, 25088, Note_on_c, 4, 40, 106
6, 25344, Note_on_c, 4, 40, 0
6, 25600, Note_on_c, 4, 45, 108
6, 25856, Note_on_c, 4, 45, 0
6, 26112, Note_on_c, 4, 57, 83
6, 26368, Note_on_c, 4, 57, 0
6, 26368, Note_on_c, 4, 59, 82
6, 26624, Note_on_c, 4, 59, 0
6, 26624, Note_on_c, 4, 57, 78
6, 26880, Note_on_c, 4, 57, 0
6, 27136, Note_on_c, 4, 55, 70
6, 27392, Note_on_c, 4, 55, 0
6, 27648, Note_on_c, 4, 54, 63
6, 27904, Note_on_c, 4, 54, 0
6, 28160, Note_on_c, 4, 52, 55
6, 28416, Note_on_c, 4, 52, 0
6, 28672, Note_on_c, 4, 50, 47
6, 29696, Note_on_c, 4, 50, 0
6, 31744, Note_on_c, 4, 38, 50
6, 32768, Note_on_c, 4, 38, 0
6, 34816, Note_on_c, 4, 50, 60
6, 35840, Note_on_c, 4, 50, 0
6, 37888, Note_on_c, 4, 38, 70
6, 38912, Note_on_c, 4, 38, 0
6, 40960, Note_on_c, 4, 50, 81
6, 41984, Note_on_c, 4, 50, 0
6, 42496, Note_on_c, 4, 50, 97
6, 42752, Note_on_c, 4, 50, 0
6, 43008, Note_on_c, 4, 54, 99
6, 43264, Note_on_c, 4, 54, 0
6, 43520, Note_on_c, 4, 57, 101
6, 43776, Note_on_c, 4, 57, 0
6, 44032, Note_on_c, 4, 62, 104
6, 45056, Note_on_c, 4, 62, 0
6, 45568, Note_on_c, 4, 55, 96
6, 45824, Note_on_c, 4, 55, 0
6, 46080, Note_on_c, 4, 57, 95
6, 46336, Note_on_c, 4, 57, 0
6, 46592, Note_on_c, 4, 45, 94
6, 46848, Note_on_c, 4, 45, 0
6, 47104, Note_on_c, 4, 50, 93
6, 47360, Note_on_c, 4, 50, 0
6, 48128, Note_on_c, 4, 38, 60
6, 48384, Note_on_c, 4, 38, 0
6, 49152, Note_on_c, 4, 50, 63
6, 49408, Note_on_c, 4, 50, 0
6, 50688, Note_on_c, 4, 54, 68
6, 50944, Note_on_c, 4, 54, 0
6, 50944, Note_on_c, 4, 52, 69
6, 51200, Note_on_c, 4, 52, 0
6, 51200, Note_on_c, 4, 54, 69
6, 51456, Note_on_c, 4, 54, 0
6, 51712, Note_on_c, 4, 57, 71
6, 51968, Note_on_c, 4, 57, 0
6, 52224, Note_on_c, 4, 54, 72
6, 52480, Note_on_c, 4, 54, 0
6, 52736, Note_on_c, 4, 50, 74
6, 52992, Note_on_c, 4, 50, 0
6, 53248, Note_on_c, 4, 43, 75
6, 53504, Note_on_c, 4, 43, 0
6, 53760, Note_on_c, 4, 55, 77
6, 54016, Note_on_c, 4, 55, 0
6, 54016, Note_on_c, 4, 54, 78
6, 54272, Note_on_c, 4, 54, 0
6, 54272, Note_on_c, 4, 55, 78
6, 54528, Note_on_c, 4, 55, 0
6, 54784, Note_on_c, 4, 59, 80
6, 55040, Note_on_c, 4, 59, 0
6, 55296, Note_on_c, 4, 52, 81
6, 55552, Note_on_c, 4, 52, 0
6, 55808, Note_on_c, 4, 55, 83
6, 56064, Note_on_c, 4, 55, 0
6, 56320, Note_on_c, 4, 57, 84
6, 56576, Note_on_c, 4, 57, 0
6, 56832, Note_on_c, 4, 55, 86
6, 57088, Note_on_c, 4, 55, 0
6, 57344, Note_on_c, 4, 54, 87
6, 57600, Note_on_c, 4, 54, 0
6, 57856, Note_on_c, 4, 52, 89
6, 58112, Note_on_c, 4, 52, 0
6, 58368, Note_on_c, 4, 54, 90
6, 58624, Note_on_c, 4, 54, 0
6, 58880, Note_on_c, 4, 50, 92
6, 59136, Note_on_c, 4, 50, 0
6, 59392, Note_on_c, 4, 57, 93
6, 60416, Note_on_c, 4, 57, 0
6, 60928, Note_on_c, 4, 52, 78
6, 61184, Note_on_c, 4, 52, 0
6, 61440, Note_on_c, 4, 49, 78
6, 61696, Note_on_c, 4, 49, 0
6, 61952, Note_on_c, 4, 52, 78
6, 62208, Note_on_c, 4, 52, 0
6, 62464, Note_on_c, 4, 45, 78
6, 62720, Note_on_c, 4, 45, 0
6, 62976, Note_on_c, 4, 52, 78
6, 63232, Note_on_c, 4, 52, 0
6, 63488, Note_on_c, 4, 57, 78
6, 63744, Note_on_c, 4, 57, 0
6, 64000, Note_on_c, 4, 59, 78
6, 64256, Note_on_c, 4, 59, 0
6, 64512, Note_on_c, 4, 57, 78
6, 64768, Note_on_c, 4, 57, 0
6, 65024, Note_on_c, 4, 56, 78
6, 65280, Note_on_c, 4, 56, 0
6, 65536, Note_on_c, 4, 54, 78
6, 65792, Note_on_c, 4, 54, 0
6, 66048, Note_on_c, 4, 42, 78
6, 66304, Note_on_c, 4, 42, 0
6, 66560, Note_on_c, 4, 54, 78
6, 66816, Note_on_c, 4, 54, 0
6, 67072, Note_on_c, 4, 57, 78
6, 67328, Note_on_c, 4, 57, 0
6, 67584, Note_on_c, 4, 50, 78
6, 67840, Note_on_c, 4, 50, 0
6, 68096, Note_on_c, 4, 54, 78
6, 68352, Note_on_c, 4, 54, 0
6, 68608, Note_on_c, 4, 47, 78
6, 68864, Note_on_c, 4, 47, 0
6, 69120, Note_on_c, 4, 50, 78
6, 69376, Note_on_c, 4, 50, 0
6, 69632, Note_on_c, 4, 49, 78
6, 69888, Note_on_c, 4, 49, 0
6, 70144, Note_on_c, 4, 47, 78
6, 70400, Note_on_c, 4, 47, 0
6, 70656, Note_on_c, 4, 49, 78
6, 70912, Note_on_c, 4, 49, 0
6, 71168, Note_on_c, 4, 50, 78
6, 71424, Note_on_c, 4, 50, 0
6, 71680, Note_on_c, 4, 52, 73
6, 71936, Note_on_c, 4, 52, 0
6, 72192, Note_on_c, 4, 56, 69
6, 72448, Note_on_c, 4, 56, 0
6, 72448, Note_on_c, 4, 54, 67
6, 72704, Note_on_c, 4, 54, 0
6, 72704, Note_on_c, 4, 52, 65
6, 72960, Note_on_c, 4, 52, 0
6, 73216, Note_on_c, 4, 40, 60
6, 73472, Note_on_c, 4, 40, 0
6, 73728, Note_on_c, 4, 52, 37
6, 73984, Note_on_c, 4, 52, 0
6, 74240, Note_on_c, 4, 50, 37
6, 74496, Note_on_c, 4, 50, 0
6, 74752, Note_on_c, 4, 49, 37
6, 75008, Note_on_c, 4, 49, 0
6, 75264, Note_on_c, 4, 47, 37
6, 75520, Note_on_c, 4, 47, 0
6, 75776, Note_on_c, 4, 46, 38
6, 76032, Note_on_c, 4, 46, 0
6, 76288, Note_on_c, 4, 49, 38
6, 76544, Note_on_c, 4, 49, 0
6, 76800, Note_on_c, 4, 42, 38
6, 77056, Note_on_c, 4, 42, 0
6, 77312, Note_on_c, 4, 46, 38
6, 77568, Note_on_c, 4, 46, 0
6, 77824, Note_on_c, 4, 47, 39
6, 78080, Note_on_c, 4, 47, 0
6, 78336, Note_on_c, 4, 45, 39
6, 78592, Note_on_c, 4, 45, 0
6, 78848, Note_on_c, 4, 44, 39
6, 79104, Note_on_c, 4, 44, 0
6, 79360, Note_on_c, 4, 47, 39
6, 79616, Note_on_c, 4, 47, 0
6, 79872, Note_on_c, 4, 40, 40
6, 80128, Note_on_c, 4, 40, 0
6, 80384, Note_on_c, 4, 44, 40
6, 80640, Note_on_c, 4, 44, 0
6, 80896, Note_on_c, 4, 45, 40
6, 81152, Note_on_c, 4, 45, 0
6, 81408, Note_on_c, 4, 44, 40
6, 81664, Note_on_c, 4, 44, 0
6, 81920, Note_on_c, 4, 42, 41
6, 82176, Note_on_c, 4, 42, 0
6, 82432, Note_on_c, 4, 45, 41
6, 82688, Note_on_c, 4, 45, 0
6, 82944, Note_on_c, 4, 37, 41
6, 83200, Note_on_c, 4, 37, 0
6, 83456, Note_on_c, 4, 40, 41
6, 83712, Note_on_c, 4, 40, 0
6, 83968, Note_on_c, 4, 39, 48
6, 84224, Note_on_c, 4, 39, 0
6, 84480, Note_on_c, 4, 39, 42
6, 84736, Note_on_c, 4, 39, 0
6, 84992, Note_on_c, 4, 39, 43
6, 85248, Note_on_c, 4, 39, 0
6, 85504, Note_on_c, 4, 39, 45
6, 85760, Note_on_c, 4, 39, 0
6, 86016, Note_on_c, 4, 39, 46
6, 86272, Note_on_c, 4, 39, 0
6, 86528, Note_on_c, 4, 39, 47
6, 86784, Note_on_c, 4, 39, 0
6, 87040, Note_on_c, 4, 40, 59
6, 87296, Note_on_c, 4, 40, 0
6, 87552, Note_on_c, 4, 40, 51
6, 87808, Note_on_c, 4, 40, 0
6, 88064, Note_on_c, 4, 40, 53
6, 88320, Note_on_c, 4, 40, 0
6, 88576, Note_on_c, 4, 40, 55
6, 88832, Note_on_c, 4, 40, 0
6, 89088, Note_on_c, 4, 40, 57
6, 89344, Note_on_c, 4, 40, 0
6, 89600, Note_on_c, 4, 40, 59
6, 89856, Note_on_c, 4, 40, 0
6, 90112, Note_on_c, 4, 41, 72
6, 90368, Note_on_c, 4, 41, 0
6, 90624, Note_on_c, 4, 41, 61
6, 90880, Note_on_c, 4, 41, 0
6, 91136, Note_on_c, 4, 41, 63
6, 91392, Note_on_c, 4, 41, 0
6, 91648, Note_on_c, 4, 41, 65
6, 91904, Note_on_c, 4, 41, 0
6, 92160, Note_on_c, 4, 41, 67
6, 92416, Note_on_c, 4, 41, 0
6, 92672, Note_on_c, 4, 41, 69
6, 92928, Note_on_c, 4, 41, 0
6, 93184, Note_on_c, 4, 42, 87
6, 93440, Note_on_c, 4, 42, 0
6, 93696, Note_on_c, 4, 42, 72
6, 93952, Note_on_c, 4, 42, 0
6, 94208, Note_on_c, 4, 42, 75
6, 94464, Note_on_c, 4, 42, 0
6, 94720, Note_on_c, 4, 42, 78
6, 94976, Note_on_c, 4, 42, 0
6, 95232, Note_on_c, 4, 42, 81
6, 95488, Note_on_c, 4, 42, 0
6, 95744, Note_on_c, 4, 42, 84
6, 96000, Note_on_c, 4, 42, 0
6, 96256, Note_on_c, 4, 47, 87
6, 96512, Note_on_c, 4, 47, 0
6, 96768, Note_on_c, 4, 56, 90
6, 97024, Note_on_c, 4, 56, 0
6, 97280, Note_on_c, 4, 57, 93
6, 97536, Note_on_c, 4, 57, 0
6, 97792, Note_on_c, 4, 47, 96
6, 98048, Note_on_c, 4, 47, 0
6, 98304, Note_on_c, 4, 49, 99
6, 98816, Note_on_c, 4, 49, 0
6, 98816, Note_on_c, 4, 52, 102
6, 99072, Note_on_c, 4, 52, 0
6, 99328, Note_on_c, 4, 54, 105
6, 99584, Note_on_c, 4, 54, 0
6, 99840, Note_on_c, 4, 52, 106
6, 100096, Note_on_c, 4, 52, 0
6, 100096, Note_on_c, 4, 50, 106
6, 100352, Note_on_c, 4, 50, 0
6, 100352, Note_on_c, 4, 49, 107
6, 100608, Note_on_c, 4, 49, 0
6, 100864, Note_on_c, 4, 50, 107
6, 101120, Note_on_c, 4, 50, 0
6, 101376, Note_on_c, 4, 52, 108
6, 101632, Note_on_c, 4, 52, 0
6, 101888, Note_on_c, 4, 40, 108
6, 102144, Note_on_c, 4, 40, 0
6, 102400, Note_on_c, 4, 45, 109
6, 103424, Note_on_c, 4, 45, 0
6, 103936, Note_on_c, 4, 45, 76
6, 104192, Note_on_c, 4, 45, 0
6, 104448, Note_on_c, 4, 49, 75
6, 104704, Note_on_c, 4, 49, 0
6, 104960, Note_on_c, 4, 52, 74
6, 105216, Note_on_c, 4, 52, 0
6, 105472, Note_on_c, 4, 57, 73
6, 105728, Note_on_c, 4, 57, 0
6, 105984, Note_on_c, 4, 56, 72
6, 106240, Note_on_c, 4, 56, 0
6, 106496, Note_on_c, 4, 54, 71
6, 106752, Note_on_c, 4, 54, 0
6, 107008, Note_on_c, 4, 50, 71
6, 107264, Note_on_c, 4, 50, 0
6, 107520, Note_on_c, 4, 52, 70
6, 107776, Note_on_c, 4, 52, 0
6, 108032, Note_on_c, 4, 40, 69
6, 108288, Note_on_c, 4, 40, 0
6, 108544, Note_on_c, 4, 45, 68
6, 108800, Note_on_c, 4, 45, 0
6, 109568, Note_on_c, 4, 57, 66
6, 109824, Note_on_c, 4, 57, 0
6, 110592, Note_on_c, 4, 45, 64
6, 110848, Note_on_c, 4, 45, 0
6, 111616, Note_on_c, 4, 50, 65
6, 111872, Note_on_c, 4, 50, 0
6, 112128, Note_on_c, 4, 49, 65
6, 112384, Note_on_c, 4, 49, 0
6, 112640, Note_on_c, 4, 47, 65
6, 112896, Note_on_c, 4, 47, 0
6, 113152, Note_on_c, 4, 44, 64
6, 113408, Note_on_c, 4, 44, 0
6, 113664, Note_on_c, 4, 45, 64
6, 113920, Note_on_c, 4, 45, 0
6, 114176, Note_on_c, 4, 42, 63
6, 114432, Note_on_c, 4, 42, 0
6, 114688, Note_on_c, 4, 40, 63
6, 115712, Note_on_c, 4, 40, 0
6, 116224, Note_on_c, 4, 52, 52
6, 116480, Note_on_c, 4, 52, 0
6, 116480, Note_on_c, 4, 50, 53
6, 116736, Note_on_c, 4, 50, 0
6, 116736, Note_on_c, 4, 49, 54
6, 116992, Note_on_c, 4, 49, 0
6, 117248, Note_on_c, 4, 52, 56
6, 117504, Note_on_c, 4, 52, 0
6, 117760, Note_on_c, 4, 45, 58
6, 118016, Note_on_c, 4, 45, 0
6, 118272, Note_on_c, 4, 52, 60
6, 118528, Note_on_c, 4, 52, 0
6, 118784, Note_on_c, 4, 57, 58
6, 119040, Note_on_c, 4, 57, 0
6, 119296, Note_on_c, 4, 54, 56
6, 119552, Note_on_c, 4, 54, 0
6, 119808, Note_on_c, 4, 49, 55
6, 120064, Note_on_c, 4, 49, 0
6, 120320, Note_on_c, 4, 50, 53
6, 120576, Note_on_c, 4, 50, 0
6, 120832, Note_on_c, 4, 52, 51
6, 121088, Note_on_c, 4, 52, 0
6, 121344, Note_on_c, 4, 47, 50
6, 121600, Note_on_c, 4, 47, 0
6, 121856, Note_on_c, 4, 40, 48
6, 122112, Note_on_c, 4, 40, 0
6, 131584, Note_on_c, 4, 47, 90
6, 131840, Note_on_c, 4, 47, 0
6, 132096, Note_on_c, 4, 50, 93
6, 132352, Note_on_c, 4, 50, 0
6, 132608, Note_on_c, 4, 54, 96
6, 132864, Note_on_c, 4, 54, 0
6, 133120, Note_on_c, 4, 59, 98
6, 133376, Note_on_c, 4, 59, 0
6, 133632, Note_on_c, 4, 54, 99
6, 133888, Note_on_c, 4, 54, 0
6, 134144, Note_on_c, 4, 47, 96
6, 134400, Note_on_c, 4, 47, 0
6, 143872, Note_on_c, 4, 45, 47
6, 144128, Note_on_c, 4, 45, 0
6, 144384, Note_on_c, 4, 49, 49
6, 144640, Note_on_c, 4, 49, 0
6, 144896, Note_on_c, 4, 52, 51
6, 145152, Note_on_c, 4, 52, 0
6, 145408, Note_on_c, 4, 57, 54
6, 145664, Note_on_c, 4, 57, 0
6, 145920, Note_on_c, 4, 52, 56
6, 146176, Note_on_c, 4, 52, 0
6, 146432, Note_on_c, 4, 45, 56
6, 146688, Note_on_c, 4, 45, 0
6, 146944, Note_on_c, 4, 57, 56
6, 147200, Note_on_c, 4, 57, 0
6, 147200, Note_on_c, 4, 56, 56
6, 147456, Note_on_c, 4, 56, 0
6, 147456, Note_on_c, 4, 57, 56
6, 147712, Note_on_c, 4, 57, 0
6, 147968, Note_on_c, 4, 61, 56
6, 148224, Note_on_c, 4, 61, 0
6, 148224, Note_on_c, 4, 59, 56
6, 148480, Note_on_c, 4, 59, 0
6, 148480, Note_on_c, 4, 61, 56
6, 148736, Note_on_c, 4, 61, 0
6, 148992, Note_on_c, 4, 57, 56
6, 149248, Note_on_c, 4, 57, 0
6, 149504, Note_on_c, 4, 54, 56
6, 149760, Note_on_c, 4, 54, 0
6, 150016, Note_on_c, 4, 50, 56
6, 150272, Note_on_c, 4, 50, 0
6, 150528, Note_on_c, 4, 52, 56
6, 150784, Note_on_c, 4, 52, 0
6, 151040, Note_on_c, 4, 40, 56
6, 151296, Note_on_c, 4, 40, 0
6, 151552, Note_on_c, 4, 45, 56
6, 151808, Note_on_c, 4, 45, 0
6, 152064, Note_on_c, 4, 52, 56
6, 152320, Note_on_c, 4, 52, 0
6, 152576, Note_on_c, 4, 57, 56
6, 152832, Note_on_c, 4, 57, 0
6, 153088, Note_on_c, 4, 52, 56
6, 153344, Note_on_c, 4, 52, 0
6, 153600, Note_on_c, 4, 49, 56
6, 153856, Note_on_c, 4, 49, 0
6, 154112, Note_on_c, 4, 52, 56
6, 154368, Note_on_c, 4, 52, 0
6, 154624, Note_on_c, 4, 45, 56
6, 154880, Note_on_c, 4, 45, 0
6, 155136, Note_on_c, 4, 52, 56
6, 155392, Note_on_c, 4, 52, 0
6, 155648, Note_on_c, 4, 57, 56
6, 155904, Note_on_c, 4, 57, 0
6, 156160, Note_on_c, 4, 55, 56
6, 156416, Note_on_c, 4, 55, 0
6, 156672, Note_on_c, 4, 54, 56
6, 156928, Note_on_c, 4, 54, 0
6, 157184, Note_on_c, 4, 52, 56
6, 157440, Note_on_c, 4, 52, 0
6, 157696, Note_on_c, 4, 50, 56
6, 157952, Note_on_c, 4, 50, 0
6, 158208, Note_on_c, 4, 45, 56
6, 158464, Note_on_c, 4, 45, 0
6, 158720, Note_on_c, 4, 38, 56
6, 158976, Note_on_c, 4, 38, 0
6, 159232, Note_on_c, 4, 47, 56
6, 159488, Note_on_c, 4, 47, 0
6, 159744, Note_on_c, 4, 52, 56
6, 160000, Note_on_c, 4, 52, 0
6, 160256, Note_on_c, 4, 54, 56
6, 160512, Note_on_c, 4, 54, 0
6, 160768, Note_on_c, 4, 55, 56
6, 161024, Note_on_c, 4, 55, 0
6, 161280, Note_on_c, 4, 54, 56
6, 161536, Note_on_c, 4, 54, 0
6, 161792, Note_on_c, 4, 55, 56
6, 162048, Note_on_c, 4, 55, 0
6, 162304, Note_on_c, 4, 52, 56
6, 162560, Note_on_c, 4, 52, 0
6, 162816, Note_on_c, 4, 49, 56
6, 163072, Note_on_c, 4, 49, 0
6, 163328, Note_on_c, 4, 52, 56
6, 163584, Note_on_c, 4, 52, 0
6, 163840, Note_on_c, 4, 54, 56
6, 164096, Note_on_c, 4, 54, 0
6, 164352, Note_on_c, 4, 49, 56
6, 164608, Note_on_c, 4, 49, 0
6, 164864, Note_on_c, 4, 42, 56
6, 165120, Note_on_c, 4, 42, 0
6, 165376, Note_on_c, 4, 54, 56
6, 165632, Note_on_c, 4, 54, 0
6, 165888, Note_on_c, 4, 56, 56
6, 166144, Note_on_c, 4, 56, 0
6, 166400, Note_on_c, 4, 58, 56
6, 166656, Note_on_c, 4, 58, 0
6, 166912, Note_on_c, 4, 59, 56
6, 167168, Note_on_c, 4, 59, 0
6, 167424, Note_on_c, 4, 54, 56
6, 167680, Note_on_c, 4, 54, 0
6, 167936, Note_on_c, 4, 50, 56
6, 168192, Note_on_c, 4, 50, 0
6, 168448, Note_on_c, 4, 52, 56
6, 168704, Note_on_c, 4, 52, 0
6, 168960, Note_on_c, 4, 54, 56
6, 169472, Note_on_c, 4, 54, 0
6, 169472, Note_on_c, 4, 42, 56
6, 169728, Note_on_c, 4, 42, 0
6, 169984, Note_on_c, 4, 47, 56
6, 170240, Note_on_c, 4, 47, 0
6, 170496, Note_on_c, 4, 54, 57
6, 170752, Note_on_c, 4, 54, 0
6, 171008, Note_on_c, 4, 59, 58
6, 171264, Note_on_c, 4, 59, 0
6, 171520, Note_on_c, 4, 47, 58
6, 171776, Note_on_c, 4, 47, 0
6, 172032, Note_on_c, 4, 45, 59
6, 172288, Note_on_c, 4, 45, 0
6, 172544, Note_on_c, 4, 43, 59
6, 172800, Note_on_c, 4, 43, 0
6, 173056, Note_on_c, 4, 42, 60
6, 173312, Note_on_c, 4, 42, 0
6, 173568, Note_on_c, 4, 49, 60
6, 173824, Note_on_c, 4, 49, 0
6, 174080, Note_on_c, 4, 51, 64
6, 174336, Note_on_c, 4, 51, 0
6, 174592, Note_on_c, 4, 54, 69
6, 174848, Note_on_c, 4, 54, 0
6, 175104, Note_on_c, 4, 47, 73
6, 175360, Note_on_c, 4, 47, 0
6, 175616, Note_on_c, 4, 51, 78
6, 175872, Note_on_c, 4, 51, 0
6, 176128, Note_on_c, 4, 52, 82
6, 176384, Note_on_c, 4, 52, 0
6, 176640, Note_on_c, 4, 50, 84
6, 176896, Note_on_c, 4, 50, 0
6, 177152, Note_on_c, 4, 49, 85
6, 177408, Note_on_c, 4, 49, 0
6, 177664, Note_on_c, 4, 52, 87
6, 177920, Note_on_c, 4, 52, 0
6, 178176, Note_on_c, 4, 45, 88
6, 178432, Note_on_c, 4, 45, 0
6, 178688, Note_on_c, 4, 49, 89
6, 178944, Note_on_c, 4, 49, 0
6, 179200, Note_on_c, 4, 50, 90
6, 179456, Note_on_c, 4, 50, 0
6, 179712, Note_on_c, 4, 49, 91
6, 179968, Note_on_c, 4, 49, 0
6, 180224, Note_on_c, 4, 47, 93
6, 180480, Note_on_c, 4, 47, 0
6, 180736, Note_on_c, 4, 50, 94
6, 180992, Note_on_c, 4, 50, 0
6, 181248, Note_on_c, 4, 42, 95
6, 181504, Note_on_c, 4, 42, 0
6, 181760, Note_on_c, 4, 45, 96
6, 182016, Note_on_c, 4, 45, 0
6, 182272, Note_on_c, 4, 44, 83
6, 182528, Note_on_c, 4, 44, 0
6, 182784, Note_on_c, 4, 44, 45
6, 183040, Note_on_c, 4, 44, 0
6, 183296, Note_on_c, 4, 44, 48
6, 183552, Note_on_c, 4, 44, 0
6, 183808, Note_on_c, 4, 44, 51
6, 184064, Note_on_c, 4, 44, 0
6, 184320, Note_on_c, 4, 44, 53
6, 184576, Note_on_c, 4, 44, 0
6, 184832, Note_on_c, 4, 44, 56
6, 185088, Note_on_c, 4, 44, 0
6, 185344, Note_on_c, 4, 45, 68
6, 185600, Note_on_c, 4, 45, 0
6, 185856, Note_on_c, 4, 45, 60
6, 186112, Note_on_c, 4, 45, 0
6, 186368, Note_on_c, 4, 45, 62
6, 186624, Note_on_c, 4, 45, 0
6, 186880, Note_on_c, 4, 45, 64
6, 187136, Note_on_c, 4, 45, 0
6, 187392, Note_on_c, 4, 45, 66
6, 187648, Note_on_c, 4, 45, 0
6, 187904, Note_on_c, 4, 45, 68
6, 188160, Note_on_c, 4, 45, 0
6, 188416, Note_on_c, 4, 46, 82
6, 188672, Note_on_c, 4, 46, 0
6, 188928, Note_on_c, 4, 46, 72
6, 189184, Note_on_c, 4, 46, 0
6, 189440, Note_on_c, 4, 46, 75
6, 189696, Note_on_c, 4, 46, 0
6, 189952, Note_on_c, 4, 46, 77
6, 190208, Note_on_c, 4, 46, 0
6, 190464, Note_on_c, 4, 46, 79
6, 190720, Note_on_c, 4, 46, 0
6, 190976, Note_on_c, 4, 46, 81
6, 191232, Note_on_c, 4, 46, 0
6, 191488, Note_on_c, 4, 47, 96
6, 191744, Note_on_c, 4, 47, 0
6, 192000, Note_on_c, 4, 47, 86
6, 192256, Note_on_c, 4, 47, 0
6, 192512, Note_on_c, 4, 47, 88
6, 192768, Note_on_c, 4, 47, 0
6, 193024, Note_on_c, 4, 47, 90
6, 193280, Note_on_c, 4, 47, 0
6, 193536, Note_on_c, 4, 47, 92
6, 193792, Note_on_c, 4, 47, 0
6, 194048, Note_on_c, 4, 47, 94
6, 194304, Note_on_c, 4, 47, 0
6, 194560, Note_on_c, 4, 40, 101
6, 194816, Note_on_c, 4, 40, 0
6, 195072, Note_on_c, 4, 49, 94
6, 195328, Note_on_c, 4, 49, 0
6, 195584, Note_on_c, 4, 46, 95
6, 195840, Note_on_c, 4, 46, 0
6, 196096, Note_on_c, 4, 42, 96
6, 196352, Note_on_c, 4, 42, 0
6, 196608, Note_on_c, 4, 50, 97
6, 196864, Note_on_c, 4, 50, 0
6, 197120, Note_on_c, 4, 47, 98
6, 197376, Note_on_c, 4, 47, 0
6, 197632, Note_on_c, 4, 55, 99
6, 197888, Note_on_c, 4, 55, 0
6, 198144, Note_on_c, 4, 54, 101
6, 198400, Note_on_c, 4, 54, 0
6, 198400, Note_on_c, 4, 52, 101
6, 198656, Note_on_c, 4, 52, 0
6, 198656, Note_on_c, 4, 50, 102
6, 198912, Note_on_c, 4, 50, 0
6, 199168, Note_on_c, 4, 52, 103
6, 199424, Note_on_c, 4, 52, 0
6, 199680, Note_on_c, 4, 54, 104
6, 199936, Note_on_c, 4, 54, 0
6, 200192, Note_on_c, 4, 42, 105
6, 200448, Note_on_c, 4, 42, 0
6, 200704, Note_on_c, 4, 47, 106
6, 200960, Note_on_c, 4, 47, 0
6, 201216, Note_on_c, 4, 54, 99
6, 201472, Note_on_c, 4, 54, 0
6, 201472, Note_on_c, 4, 52, 99
6, 201728, Note_on_c, 4, 52, 0
6, 201728, Note_on_c, 4, 50, 98
6, 201984, Note_on_c, 4, 50, 0
6, 202240, Note_on_c, 4, 47, 97
6, 202496, Note_on_c, 4, 47, 0
6, 202752, Note_on_c, 4, 50, 95
6, 203008, Note_on_c, 4, 50, 0
6, 203264, Note_on_c, 4, 54, 94
6, 203520, Note_on_c, 4, 54, 0
6, 203776, Note_on_c, 4, 59, 92
6, 204032, Note_on_c, 4, 59, 0
6, 204288, Note_on_c, 4, 47, 91
6, 204544, Note_on_c, 4, 47, 0
6, 204800, Note_on_c, 4, 47, 90
6, 205056, Note_on_c, 4, 47, 0
6, 207360, Note_on_c, 4, 59, 63
6, 207616, Note_on_c, 4, 59, 0
6, 207616, Note_on_c, 4, 61, 65
6, 207872, Note_on_c, 4, 61, 0
6, 207872, Note_on_c, 4, 59, 67
6, 208128, Note_on_c, 4, 59, 0
6, 208128, Note_on_c, 4, 61, 69
6, 208384, Note_on_c, 4, 61, 0
6, 208384, Note_on_c, 4, 59, 70
6, 208640, Note_on_c, 4, 59, 0
6, 208640, Note_on_c, 4, 61, 72
6, 208896, Note_on_c, 4, 61, 0
6, 208896, Note_on_c, 4, 59, 74
6, 209152, Note_on_c, 4, 59, 0
6, 209152, Note_on_c, 4, 61, 76
6, 209408, Note_on_c, 4, 61, 0
6, 209408, Note_on_c, 4, 59, 78
6, 209664, Note_on_c, 4, 59, 0
6, 209664, Note_on_c, 4, 61, 79
6, 209920, Note_on_c, 4, 61, 0
6, 209920, Note_on_c, 4, 59, 81
6, 210176, Note_on_c, 4, 59, 0
6, 210432, Note_on_c, 4, 47, 88
6, 210688, Note_on_c, 4, 47, 0
6, 210944, Note_on_c, 4, 47, 88
6, 211200, Note_on_c, 4, 47, 0
6, 213504, Note_on_c, 4, 59, 58
6, 213760, Note_on_c, 4, 59, 0
6, 213760, Note_on_c, 4, 61, 61
6, 214016, Note_on_c, 4, 61, 0
6, 214016, Note_on_c, 4, 59, 64
6, 214272, Note_on_c, 4, 59, 0
6, 214272, Note_on_c, 4, 61, 67
6, 214528, Note_on_c, 4, 61, 0
6, 214528, Note_on_c, 4, 59, 70
6, 214784, Note_on_c, 4, 59, 0
6, 214784, Note_on_c, 4, 61, 73
6, 215040, Note_on_c, 4, 61, 0
6, 215040, Note_on_c, 4, 59, 76
6, 215296, Note_on_c, 4, 59, 0
6, 215296, Note_on_c, 4, 61, 79
6, 215552, Note_on_c, 4, 61, 0
6, 215552, Note_on_c, 4, 59, 82
6, 215808, Note_on_c, 4, 59, 0
6, 215808, Note_on_c, 4, 61, 86
6, 216064, Note_on_c, 4, 61, 0
6, 216064, Note_on_c, 4, 57, 86
6, 216320, Note_on_c, 4, 57, 0
6, 216320, Note_on_c, 4, 59, 87
6, 216576, Note_on_c, 4, 59, 0
6, 216576, Note_on_c, 4, 57, 88
6, 216832, Note_on_c, 4, 57, 0
6, 216832, Note_on_c, 4, 55, 89
6, 217088, Note_on_c, 4, 55, 0
6, 217088, Note_on_c, 4, 54, 89
6, 217344, Note_on_c, 4, 54, 0
6, 217344, Note_on_c, 4, 52, 90
6, 217600, Note_on_c, 4, 52, 0
6, 217600, Note_on_c, 4, 51, 91
6, 217856, Note_on_c, 4, 51, 0
6, 217856, Note_on_c, 4, 49, 92
6, 218112, Note_on_c, 4, 49, 0
6, 218112, Note_on_c, 4, 47, 92
6, 218368, Note_on_c, 4, 47, 0
6, 218624, Note_on_c, 4, 59, 88
6, 218880, Note_on_c, 4, 59, 0
6, 219136, Note_on_c, 4, 52, 88
6, 219392, Note_on_c, 4, 52, 0
6, 219648, Note_on_c, 4, 55, 89
6, 219904, Note_on_c, 4, 55, 0
6, 219904, Note_on_c, 4, 54, 89
6, 220160, Note_on_c, 4, 54, 0
6, 220160, Note_on_c, 4, 52, 89
6, 220416, Note_on_c, 4, 52, 0
6, 220672, Note_on_c, 4, 49, 90
6, 220928, Note_on_c, 4, 49, 0
6, 221184, Note_on_c, 4, 46, 90
6, 221440, Note_on_c, 4, 46, 0
6, 221696, Note_on_c, 4, 42, 90
6, 221952, Note_on_c, 4, 42, 0
6, 222208, Note_on_c, 4, 47, 91
6, 222464, Note_on_c, 4, 47, 0
6, 222720, Note_on_c, 4, 49, 91
6, 222976, Note_on_c, 4, 49, 0
6, 223232, Note_on_c, 4, 50, 92
6, 223488, Note_on_c, 4, 50, 0
6, 223744, Note_on_c, 4, 52, 92
6, 224000, Note_on_c, 4, 52, 0
6, 224256, Note_on_c, 4, 54, 93
6, 224512, Note_on_c, 4, 54, 0
6, 224768, Note_on_c, 4, 42, 93
6, 225024, Note_on_c, 4, 42, 0
6, 225280, Note_on_c, 4, 47, 93
6, 225536, Note_on_c, 4, 47, 0
6, 225792, Note_on_c, 4, 50, 42
6, 226048, Note_on_c, 4, 50, 0
6, 226304, Note_on_c, 4, 54, 44
6, 226560, Note_on_c, 4, 54, 0
6, 226816, Note_on_c, 4, 59, 46
6, 227072, Note_on_c, 4, 59, 0
6, 227328, Note_on_c, 4, 62, 47
6, 227584, Note_on_c, 4, 62, 0
6, 227584, Note_on_c, 4, 61, 48
6, 227840, Note_on_c, 4, 61, 0
6, 227840, Note_on_c, 4, 59, 49
6, 228096, Note_on_c, 4, 59, 0
6, 228096, Note_on_c, 4, 57, 50
6, 228352, Note_on_c, 4, 57, 0
6, 228352, Note_on_c, 4, 56, 51
6, 228608, Note_on_c, 4, 56, 0
6, 228864, Note_on_c, 4, 64, 52
6, 229120, Note_on_c, 4, 64, 0
6, 229376, Note_on_c, 4, 52, 50
6, 229632, Note_on_c, 4, 52, 0
6, 229888, Note_on_c, 4, 64, 49
6, 230144, Note_on_c, 4, 64, 0
6, 230400, Note_on_c, 4, 56, 48
6, 230656, Note_on_c, 4, 56, 0
6, 230912, Note_on_c, 4, 64, 46
6, 231168, Note_on_c, 4, 64, 0
6, 231424, Note_on_c, 4, 45, 45
6, 231680, Note_on_c, 4, 45, 0
6, 231936, Note_on_c, 4, 49, 44
6, 232192, Note_on_c, 4, 49, 0
6, 232448, Note_on_c, 4, 52, 42
6, 232704, Note_on_c, 4, 52, 0
6, 232960, Note_on_c, 4, 57, 43
6, 233216, Note_on_c, 4, 57, 0
6, 233472, Note_on_c, 4, 59, 44
6, 233728, Note_on_c, 4, 59, 0
6, 233728, Note_on_c, 4, 57, 44
6, 233984, Note_on_c, 4, 57, 0
6, 233984, Note_on_c, 4, 56, 45
6, 234240, Note_on_c, 4, 56, 0
6, 234240, Note_on_c, 4, 54, 45
6, 234496, Note_on_c, 4, 54, 0
6, 234496, Note_on_c, 4, 53, 46
6, 234752, Note_on_c, 4, 53, 0
6, 235008, Note_on_c, 4, 61, 47
6, 235264, Note_on_c, 4, 61, 0
6, 235520, Note_on_c, 4, 56, 48
6, 235776, Note_on_c, 4, 56, 0
6, 236032, Note_on_c, 4, 61, 49
6, 236288, Note_on_c, 4, 61, 0
6, 236544, Note_on_c, 4, 49, 50
6, 236800, Note_on_c, 4, 49, 0
6, 237056, Note_on_c, 4, 61, 51
6, 237312, Note_on_c, 4, 61, 0
6, 237568, Note_on_c, 4, 42, 52
6, 237824, Note_on_c, 4, 42, 0
6, 238080, Note_on_c, 4, 45, 54
6, 238336, Note_on_c, 4, 45, 0
6, 238592, Note_on_c, 4, 49, 53
6, 238848, Note_on_c, 4, 49, 0
6, 239104, Note_on_c, 4, 54, 53
6, 239360, Note_on_c, 4, 54, 0
6, 239616, Note_on_c, 4, 50, 53
6, 239872, Note_on_c, 4, 50, 0
6, 240128, Note_on_c, 4, 47, 53
6, 240384, Note_on_c, 4, 47, 0
6, 240640, Note_on_c, 4, 49, 53
6, 240896, Note_on_c, 4, 49, 0
6, 241152, Note_on_c, 4, 53, 53
6, 241408, Note_on_c, 4, 53, 0
6, 241664, Note_on_c, 4, 56, 53
6, 241920, Note_on_c, 4, 56, 0
6, 242176, Note_on_c, 4, 59, 53
6, 242432, Note_on_c, 4, 59, 0
6, 242688, Note_on_c, 4, 57, 53
6, 242944, Note_on_c, 4, 57, 0
6, 243200, Note_on_c, 4, 56, 53
6, 243456, Note_on_c, 4, 56, 0
6, 243712, Note_on_c, 4, 54, 52
6, 243968, Note_on_c, 4, 54, 0
6, 244224, Note_on_c, 4, 49, 52
6, 244480, Note_on_c, 4, 49, 0
6, 244736, Note_on_c, 4, 54, 52
6, 244992, Note_on_c, 4, 54, 0
6, 245248, Note_on_c, 4, 57, 52
6, 245504, Note_on_c, 4, 57, 0
6, 245760, Note_on_c, 4, 50, 52
6, 246016, Note_on_c, 4, 50, 0
6, 246272, Note_on_c, 4, 49, 52
6, 246528, Note_on_c, 4, 49, 0
6, 246784, Note_on_c, 4, 47, 52
6, 247040, Note_on_c, 4, 47, 0
6, 247296, Note_on_c, 4, 42, 52
6, 247552, Note_on_c, 4, 42, 0
6, 247808, Note_on_c, 4, 47, 52
6, 248064, Note_on_c, 4, 47, 0
6, 248320, Note_on_c, 4, 49, 52
6, 248576, Note_on_c, 4, 49, 0
6, 248576, Note_on_c, 4, 50, 51
6, 248832, Note_on_c, 4, 50, 0
6, 248832, Note_on_c, 4, 52, 51
6, 249088, Note_on_c, 4, 52, 0
6, 249088, Note_on_c, 4, 50, 50
6, 249344, Note_on_c, 4, 50, 0
6, 249344, Note_on_c, 4, 49, 49
6, 249600, Note_on_c, 4, 49, 0
6, 249600, Note_on_c, 4, 47, 49
6, 249856, Note_on_c, 4, 47, 0
6, 249856, Note_on_c, 4, 52, 48
6, 250112, Note_on_c, 4, 52, 0
6, 250368, Note_on_c, 4, 40, 46
6, 250624, Note_on_c, 4, 40, 0
6, 250880, Note_on_c, 4, 42, 45
6, 251136, Note_on_c, 4, 42, 0
6, 251392, Note_on_c, 4, 44, 44
6, 251648, Note_on_c, 4, 44, 0
6, 251904, Note_on_c, 4, 45, 42
6, 252160, Note_on_c, 4, 45, 0
6, 252416, Note_on_c, 4, 47, 42
6, 252672, Note_on_c, 4, 47, 0
6, 252672, Note_on_c, 4, 49, 44
6, 252928, Note_on_c, 4, 49, 0
6, 252928, Note_on_c, 4, 50, 46
6, 253184, Note_on_c, 4, 50, 0
6, 253184, Note_on_c, 4, 49, 48
6, 253440, Note_on_c, 4, 49, 0
6, 253440, Note_on_c, 4, 47, 50
6, 253696, Note_on_c, 4, 47, 0
6, 253696, Note_on_c, 4, 45, 50
6, 253952, Note_on_c, 4, 45, 0
6, 253952, Note_on_c, 4, 50, 49
6, 254208, Note_on_c, 4, 50, 0
6, 254464, Note_on_c, 4, 54, 48
6, 254720, Note_on_c, 4, 54, 0
6, 254976, Note_on_c, 4, 47, 46
6, 255232, Note_on_c, 4, 47, 0
6, 255488, Note_on_c, 4, 49, 44
6, 255744, Note_on_c, 4, 49, 0
6, 256000, Note_on_c, 4, 50, 43
6, 256256, Note_on_c, 4, 50, 0
6, 256512, Note_on_c, 4, 52, 42
6, 256768, Note_on_c, 4, 52, 0
6, 256768, Note_on_c, 4, 54, 43
6, 257024, Note_on_c, 4, 54, 0
6, 257024, Note_on_c, 4, 52, 44
6, 257280, Note_on_c, 4, 52, 0
6, 257280, Note_on_c, 4, 50, 45
6, 257536, Note_on_c, 4, 50, 0
6, 257536, Note_on_c, 4, 49, 46
6, 257792, Note_on_c, 4, 49, 0
6, 257792, Note_on_c, 4, 47, 48
6, 258048, Note_on_c, 4, 47, 0
6, 258048, Note_on_c, 4, 53, 49
6, 258304, Note_on_c, 4, 53, 0
6, 258560, Note_on_c, 4, 49, 51
6, 258816, Note_on_c, 4, 49, 0
6, 259072, Note_on_c, 4, 54, 53
6, 259328, Note_on_c, 4, 54, 0
6, 259584, Note_on_c, 4, 50, 53
6, 259840, Note_on_c, 4, 50, 0
6, 260096, Note_on_c, 4, 45, 53
6, 260352, Note_on_c, 4, 45, 0
6, 260608, Note_on_c, 4, 47, 53
6, 260864, Note_on_c, 4, 47, 0
6, 261120, Note_on_c, 4, 49, 53
6, 261376, Note_on_c, 4, 49, 0
6, 261632, Note_on_c, 4, 37, 53
6, 261888, Note_on_c, 4, 37, 0
6, 262144, Note_on_c, 4, 42, 53
6, 263168, Note_on_c, 4, 42, 0
6, 263680, Note_on_c, 4, 38, 96
6, 263936, Note_on_c, 4, 38, 0
6, 264192, Note_on_c, 4, 42, 98
6, 264448, Note_on_c, 4, 42, 0
6, 264704, Note_on_c, 4, 45, 100
6, 264960, Note_on_c, 4, 45, 0
6, 265216, Note_on_c, 4, 50, 102
6, 266240, Note_on_c, 4, 50, 0
6, 266752, Note_on_c, 4, 55, 99
6, 267008, Note_on_c, 4, 55, 0
6, 267264, Note_on_c, 4, 57, 99
6, 267520, Note_on_c, 4, 57, 0
6, 267776, Note_on_c, 4, 45, 99
6, 268032, Note_on_c, 4, 45, 0
6, 268288, Note_on_c, 4, 50, 99
6, 268544, Note_on_c, 4, 50, 0
6, 269312, Note_on_c, 4, 38, 99
6, 269568, Note_on_c, 4, 38, 0
6, 270336, Note_on_c, 4, 50, 99
6, 270592, Note_on_c, 4, 50, 0
6, 271360, Note_on_c, 4, 55, 99
6, 271616, Note_on_c, 4, 55, 0
6, 271872, Note_on_c, 4, 54, 99
6, 272128, Note_on_c, 4, 54, 0
6, 272384, Note_on_c, 4, 52, 99
6, 272640, Note_on_c, 4, 52, 0
6, 272896, Note_on_c, 4, 49, 99
6, 273152, Note_on_c, 4, 49, 0
6, 273408, Note_on_c, 4, 50, 99
6, 273664, Note_on_c, 4, 50, 0
6, 273920, Note_on_c, 4, 47, 99
6, 274176, Note_on_c, 4, 47, 0
6, 274432, Note_on_c, 4, 45, 99
6, 275456, Note_on_c, 4, 45, 0
6, 275968, Note_on_c, 4, 57, 94
6, 276224, Note_on_c, 4, 57, 0
6, 276224, Note_on_c, 4, 55, 94
6, 276480, Note_on_c, 4, 55, 0
6, 276480, Note_on_c, 4, 54, 95
6, 276736, Note_on_c, 4, 54, 0
6, 276992, Note_on_c, 4, 57, 92
6, 277248, Note_on_c, 4, 57, 0
6, 277504, Note_on_c, 4, 50, 91
6, 277760, Note_on_c, 4, 50, 0
6, 278016, Note_on_c, 4, 57, 90
6, 278272, Note_on_c, 4, 57, 0
6, 278528, Note_on_c, 4, 62, 88
6, 278784, Note_on_c, 4, 62, 0
6, 279040, Note_on_c, 4, 59, 89
6, 279296, Note_on_c, 4, 59, 0
6, 279552, Note_on_c, 4, 54, 91
6, 279808, Note_on_c, 4, 54, 0
6, 280064, Note_on_c, 4, 55, 92
6, 280320, Note_on_c, 4, 55, 0
6, 280576, Note_on_c, 4, 57, 93
6, 280832, Note_on_c, 4, 57, 0
6, 281088, Note_on_c, 4, 45, 66
6, 281344, Note_on_c, 4, 45, 0
6, 281344, Note_on_c, 4, 47, 64
6, 281600, Note_on_c, 4, 47, 0
6, 281600, Note_on_c, 4, 45, 62
6, 281856, Note_on_c, 4, 45, 0
6, 282112, Note_on_c, 4, 43, 58
6, 282368, Note_on_c, 4, 43, 0
6, 282624, Note_on_c, 4, 42, 54
6, 282880, Note_on_c, 4, 42, 0
6, 283136, Note_on_c, 4, 40, 50
6, 283392, Note_on_c, 4, 40, 0
6, 283648, Note_on_c, 4, 38, 46
6, 284672, Note_on_c, 4, 38, 0
6, 286720, Note_on_c, 4, 50, 53
6, 287744, Note_on_c, 4, 50, 0
6, 289792, Note_on_c, 4, 38, 65
6, 290816, Note_on_c, 4, 38, 0
6, 292864, Note_on_c, 4, 50, 78
6, 293888, Note_on_c, 4, 50, 0
6, 295936, Note_on_c, 4, 38, 90
6, 296960, Note_on_c, 4, 38, 0
6, 297472, Note_on_c, 4, 50, 56
6, 297728, Note_on_c, 4, 50, 0
6, 297984, Note_on_c, 4, 54, 62
6, 298240, Note_on_c, 4, 54, 0
6, 298496, Note_on_c, 4, 57, 68
6, 298752, Note_on_c, 4, 57, 0
6, 299008, Note_on_c, 4, 62, 74
6, 299264, Note_on_c, 4, 62, 0
6, 299520, Note_on_c, 4, 50, 79
6, 299776, Note_on_c, 4, 50, 0
6, 300032, Note_on_c, 4, 50, 80
6, 300288, Note_on_c, 4, 50, 0
6, 300544, Note_on_c, 4, 52, 81
6, 300800, Note_on_c, 4, 52, 0
6, 301056, Note_on_c, 4, 50, 83
6, 301312, Note_on_c, 4, 50, 0
6, 301568, Note_on_c, 4, 49, 84
6, 301824, Note_on_c, 4, 49, 0
6, 302080, Note_on_c, 4, 47, 86
6, 302336, Note_on_c, 4, 47, 0
6, 302592, Note_on_c, 4, 59, 87
6, 302848, Note_on_c, 4, 59, 0
6, 302848, Note_on_c, 4, 58, 88
6, 303104, Note_on_c, 4, 58, 0
6, 303104, Note_on_c, 4, 59, 89
6, 303360, Note_on_c, 4, 59, 0
6, 303616, Note_on_c, 4, 62, 90
6, 303872, Note_on_c, 4, 62, 0
6, 304128, Note_on_c, 4, 55, 92
6, 304384, Note_on_c, 4, 55, 0
6, 304640, Note_on_c, 4, 59, 93
6, 304896, Note_on_c, 4, 59, 0
6, 305152, Note_on_c, 4, 52, 94
6, 305408, Note_on_c, 4, 52, 0
6, 305664, Note_on_c, 4, 55, 96
6, 305920, Note_on_c, 4, 55, 0
6, 306176, Note_on_c, 4, 54, 97
6, 306432, Note_on_c, 4, 54, 0
6, 306688, Note_on_c, 4, 52, 99
6, 306944, Note_on_c, 4, 52, 0
6, 307200, Note_on_c, 4, 54, 100
6, 307456, Note_on_c, 4, 54, 0
6, 307712, Note_on_c, 4, 55, 102
6, 307968, Note_on_c, 4, 55, 0
6, 308224, Note_on_c, 4, 57, 103
6, 308480, Note_on_c, 4, 57, 0
6, 308736, Note_on_c, 4, 61, 104
6, 308992, Note_on_c, 4, 61, 0
6, 308992, Note_on_c, 4, 59, 105
6, 309248, Note_on_c, 4, 59, 0
6, 309248, Note_on_c, 4, 57, 106
6, 309504, Note_on_c, 4, 57, 0
6, 309760, Note_on_c, 4, 45, 107
6, 310016, Note_on_c, 4, 45, 0
6, 310272, Note_on_c, 4, 57, 109
6, 310528, Note_on_c, 4, 57, 0
6, 310784, Note_on_c, 4, 55, 110
6, 311040, Note_on_c, 4, 55, 0
6, 311296, Note_on_c, 4, 54, 109
6, 311552, Note_on_c, 4, 54, 0
6, 311808, Note_on_c, 4, 52, 107
6, 312064, Note_on_c, 4, 52, 0
6, 312320, Note_on_c, 4, 51, 106
6, 312576, Note_on_c, 4, 51, 0
6, 312832, Note_on_c, 4, 54, 105
6, 313088, Note_on_c, 4, 54, 0
6, 313344, Note_on_c, 4, 47, 104
6, 313600, Note_on_c, 4, 47, 0
6, 313856, Note_on_c, 4, 51, 103
6, 314112, Note_on_c, 4, 51, 0
6, 314368, Note_on_c, 4, 52, 102
6, 314624, Note_on_c, 4, 52, 0
6, 314880, Note_on_c, 4, 50, 101
6, 315136, Note_on_c, 4, 50, 0
6, 315392, Note_on_c, 4, 49, 100
6, 315648, Note_on_c, 4, 49, 0
6, 315904, Note_on_c, 4, 52, 99
6, 316160, Note_on_c, 4, 52, 0
6, 316416, Note_on_c, 4, 45, 98
6, 316672, Note_on_c, 4, 45, 0
6, 316928, Note_on_c, 4, 49, 96
6, 317184, Note_on_c, 4, 49, 0
6, 317440, Note_on_c, 4, 50, 95
6, 317696, Note_on_c, 4, 50, 0
6, 317952, Note_on_c, 4, 49, 94
6, 318208, Note_on_c, 4, 49, 0
6, 318464, Note_on_c, 4, 47, 93
6, 318720, Note_on_c, 4, 47, 0
6, 318976, Note_on_c, 4, 50, 92
6, 319232, Note_on_c, 4, 50, 0
6, 319488, Note_on_c, 4, 42, 91
6, 319744, Note_on_c, 4, 42, 0
6, 320000, Note_on_c, 4, 45, 90
6, 320256, Note_on_c, 4, 45, 0
6, 320512, Note_on_c, 4, 44, 89
6, 320768, Note_on_c, 4, 44, 0
6, 321024, Note_on_c, 4, 44, 46
6, 321280, Note_on_c, 4, 44, 0
6, 321536, Note_on_c, 4, 44, 48
6, 321792, Note_on_c, 4, 44, 0
6, 322048, Note_on_c, 4, 44, 50
6, 322304, Note_on_c, 4, 44, 0
6, 322560, Note_on_c, 4, 44, 53
6, 322816, Note_on_c, 4, 44, 0
6, 323072, Note_on_c, 4, 44, 55
6, 323328, Note_on_c, 4, 44, 0
6, 323584, Note_on_c, 4, 45, 68
6, 323840, Note_on_c, 4, 45, 0
6, 324096, Note_on_c, 4, 45, 60
6, 324352, Note_on_c, 4, 45, 0
6, 324608, Note_on_c, 4, 45, 62
6, 324864, Note_on_c, 4, 45, 0
6, 325120, Note_on_c, 4, 45, 64
6, 325376, Note_on_c, 4, 45, 0
6, 325632, Note_on_c, 4, 45, 67
6, 325888, Note_on_c, 4, 45, 0
6, 326144, Note_on_c, 4, 45, 69
6, 326400, Note_on_c, 4, 45, 0
6, 326656, Note_on_c, 4, 46, 78
6, 326912, Note_on_c, 4, 46, 0
6, 327168, Note_on_c, 4, 46, 74
6, 327424, Note_on_c, 4, 46, 0
6, 327680, Note_on_c, 4, 46, 76
6, 327936, Note_on_c, 4, 46, 0
6, 328192, Note_on_c, 4, 46, 78
6, 328448, Note_on_c, 4, 46, 0
6, 328704, Note_on_c, 4, 46, 81
6, 328960, Note_on_c, 4, 46, 0
6, 329216, Note_on_c, 4, 46, 83
6, 329472, Note_on_c, 4, 46, 0
6, 329728, Note_on_c, 4, 47, 95
6, 329984, Note_on_c, 4, 47, 0
6, 330240, Note_on_c, 4, 47, 88
6, 330496, Note_on_c, 4, 47, 0
6, 330752, Note_on_c, 4, 47, 90
6, 331008, Note_on_c, 4, 47, 0
6, 331264, Note_on_c, 4, 47, 92
6, 331520, Note_on_c, 4, 47, 0
6, 331776, Note_on_c, 4, 47, 95
6, 332032, Note_on_c, 4, 47, 0
6, 332288, Note_on_c, 4, 47, 97
6, 332544, Note_on_c, 4, 47, 0
6, 332800, Note_on_c, 4, 40, 100
6, 333056, Note_on_c, 4, 40, 0
6, 333312, Note_on_c, 4, 49, 101
6, 333568, Note_on_c, 4, 49, 0
6, 333824, Note_on_c, 4, 50, 102
6, 334080, Note_on_c, 4, 50, 0
6, 334336, Note_on_c, 4, 52, 103
6, 334592, Note_on_c, 4, 52, 0
6, 334848, Note_on_c, 4, 54, 104
6, 335104, Note_on_c, 4, 54, 0
6, 335360, Note_on_c, 4, 57, 104
6, 335616, Note_on_c, 4, 57, 0
6, 335872, Note_on_c, 4, 59, 105
6, 336128, Note_on_c, 4, 59, 0
6, 336384, Note_on_c, 4, 57, 106
6, 336640, Note_on_c, 4, 57, 0
6, 336640, Note_on_c, 4, 55, 107
6, 336896, Note_on_c, 4, 55, 0
6, 336896, Note_on_c, 4, 54, 107
6, 337152, Note_on_c, 4, 54, 0
6, 337152, Note_on_c, 4, 52, 108
6, 337408, Note_on_c, 4, 52, 0
6, 337408, Note_on_c, 4, 54, 108
6, 337664, Note_on_c, 4, 54, 0
6, 337664, Note_on_c, 4, 55, 108
6, 337920, Note_on_c, 4, 55, 0
6, 337920, Note_on_c, 4, 57, 109
6, 338432, Note_on_c, 4, 57, 0
6, 338432, Note_on_c, 4, 45, 110
6, 338688, Note_on_c, 4, 45, 0
6, 338944, Note_on_c, 4, 38, 111
6, 339968, Note_on_c, 4, 38, 0
6, 349696, Note_on_c, 4, 52, 56
6, 349952, Note_on_c, 4, 52, 0
6, 350208, Note_on_c, 4, 55, 60
6, 350464, Note_on_c, 4, 55, 0
6, 350720, Note_on_c, 4, 59, 65
6, 350976, Note_on_c, 4, 59, 0
6, 351232, Note_on_c, 4, 64, 69
6, 351488, Note_on_c, 4, 64, 0
6, 351744, Note_on_c, 4, 52, 69
6, 352000, Note_on_c, 4, 52, 0
6, 352256, Note_on_c, 4, 52, 66
6, 352512, Note_on_c, 4, 52, 0
6, 361984, Note_on_c, 4, 50, 61
6, 362240, Note_on_c, 4, 50, 0
6, 362496, Note_on_c, 4, 54, 66
6, 362752, Note_on_c, 4, 54, 0
6, 363008, Note_on_c, 4, 57, 70
6, 363264, Note_on_c, 4, 57, 0
6, 363520, Note_on_c, 4, 62, 75
6, 363776, Note_on_c, 4, 62, 0
6, 364032, Note_on_c, 4, 50, 71
6, 364288, Note_on_c, 4, 50, 0
6, 364544, Note_on_c, 4, 50, 66
6, 364800, Note_on_c, 4, 50, 0
6, 365056, Note_on_c, 4, 45, 61
6, 365312, Note_on_c, 4, 45, 0
6, 365568, Note_on_c, 4, 42, 55
6, 365824, Note_on_c, 4, 42, 0
6, 366080, Note_on_c, 4, 45, 55
6, 366336, Note_on_c, 4, 45, 0
6, 366592, Note_on_c, 4, 38, 55
6, 366848, Note_on_c, 4, 38, 0
6, 367104, Note_on_c, 4, 45, 55
6, 367360, Note_on_c, 4, 45, 0
6, 367616, Note_on_c, 4, 50, 54
6, 367872, Note_on_c, 4, 50, 0
6, 368128, Note_on_c, 4, 52, 54
6, 368384, Note_on_c, 4, 52, 0
6, 368640, Note_on_c, 4, 50, 54
6, 368896, Note_on_c, 4, 50, 0
6, 369152, Note_on_c, 4, 49, 54
6, 369408, Note_on_c, 4, 49, 0
6, 369664, Note_on_c, 4, 47, 54
6, 369920, Note_on_c, 4, 47, 0
6, 370176, Note_on_c, 4, 50, 54
6, 370432, Note_on_c, 4, 50, 0
6, 370688, Note_on_c, 4, 54, 54
6, 370944, Note_on_c, 4, 54, 0
6, 371200, Note_on_c, 4, 59, 54
6, 371456, Note_on_c, 4, 59, 0
6, 371712, Note_on_c, 4, 57, 54
6, 371968, Note_on_c, 4, 57, 0
6, 372224, Note_on_c, 4, 55, 54
6, 372480, Note_on_c, 4, 55, 0
6, 372736, Note_on_c, 4, 54, 54
6, 372992, Note_on_c, 4, 54, 0
6, 373248, Note_on_c, 4, 52, 54
6, 373504, Note_on_c, 4, 52, 0
6, 373760, Note_on_c, 4, 51, 54
6, 374016, Note_on_c, 4, 51, 0
6, 374272, Note_on_c, 4, 54, 54
6, 374528, Note_on_c, 4, 54, 0
6, 374784, Note_on_c, 4, 47, 54
6, 375040, Note_on_c, 4, 47, 0
6, 375296, Note_on_c, 4, 51, 54
6, 375552, Note_on_c, 4, 51, 0
6, 375808, Note_on_c, 4, 52, 54
6, 376064, Note_on_c, 4, 52, 0
6, 376320, Note_on_c, 4, 50, 54
6, 376576, Note_on_c, 4, 50, 0
6, 376832, Note_on_c, 4, 49, 54
6, 377088, Note_on_c, 4, 49, 0
6, 377344, Note_on_c, 4, 52, 54
6, 377600, Note_on_c, 4, 52, 0
6, 377856, Note_on_c, 4, 45, 54
6, 378112, Note_on_c, 4, 45, 0
6, 378368, Note_on_c, 4, 49, 54
6, 378624, Note_on_c, 4, 49, 0
6, 378880, Note_on_c, 4, 50, 54
6, 379136, Note_on_c, 4, 50, 0
6, 379392, Note_on_c, 4, 49, 54
6, 379648, Note_on_c, 4, 49, 0
6, 379904, Note_on_c, 4, 47, 54
6, 380160, Note_on_c, 4, 47, 0
6, 380416, Note_on_c, 4, 50, 54
6, 380672, Note_on_c, 4, 50, 0
6, 380928, Note_on_c, 4, 42, 54
6, 381184, Note_on_c, 4, 42, 0
6, 381440, Note_on_c, 4, 45, 54
6, 381696, Note_on_c, 4, 45, 0
6, 381952, Note_on_c, 4, 44, 56
6, 382208, Note_on_c, 4, 44, 0
6, 382464, Note_on_c, 4, 44, 44
6, 382720, Note_on_c, 4, 44, 0
6, 382976, Note_on_c, 4, 44, 46
6, 383232, Note_on_c, 4, 44, 0
6, 383488, Note_on_c, 4, 44, 48
6, 383744, Note_on_c, 4, 44, 0
6, 384000, Note_on_c, 4, 44, 50
6, 384256, Note_on_c, 4, 44, 0
6, 384512, Note_on_c, 4, 44, 52
6, 384768, Note_on_c, 4, 44, 0
6, 385024, Note_on_c, 4, 45, 60
6, 385280, Note_on_c, 4, 45, 0
6, 385536, Note_on_c, 4, 45, 56
6, 385792, Note_on_c, 4, 45, 0
6, 386048, Note_on_c, 4, 45, 59
6, 386304, Note_on_c, 4, 45, 0
6, 386560, Note_on_c, 4, 45, 61
6, 386816, Note_on_c, 4, 45, 0
6, 387072, Note_on_c, 4, 45, 63
6, 387328, Note_on_c, 4, 45, 0
6, 387584, Note_on_c, 4, 45, 65
6, 387840, Note_on_c, 4, 45, 0
6, 388096, Note_on_c, 4, 46, 72
6, 388352, Note_on_c, 4, 46, 0
6, 388608, Note_on_c, 4, 46, 69
6, 388864, Note_on_c, 4, 46, 0
6, 389120, Note_on_c, 4, 46, 72
6, 389376, Note_on_c, 4, 46, 0
6, 389632, Note_on_c, 4, 46, 74
6, 389888, Note_on_c, 4, 46, 0
6, 390144, Note_on_c, 4, 46, 76
6, 390400, Note_on_c, 4, 46, 0
6, 390656, Note_on_c, 4, 46, 78
6, 390912, Note_on_c, 4, 46, 0
6, 391168, Note_on_c, 4, 47, 90
6, 391424, Note_on_c, 4, 47, 0
6, 391680, Note_on_c, 4, 47, 82
6, 391936, Note_on_c, 4, 47, 0
6, 392192, Note_on_c, 4, 47, 84
6, 392448, Note_on_c, 4, 47, 0
6, 392704, Note_on_c, 4, 47, 87
6, 392960, Note_on_c, 4, 47, 0
6, 393216, Note_on_c, 4, 47, 89
6, 393472, Note_on_c, 4, 47, 0
6, 393728, Note_on_c, 4, 47, 91
6, 393984, Note_on_c, 4, 47, 0
6, 394240, Note_on_c, 4, 40, 103
6, 394496, Note_on_c, 4, 40, 0
6, 394752, Note_on_c, 4, 49, 104
6, 395008, Note_on_c, 4, 49, 0
6, 395264, Note_on_c, 4, 50, 105
6, 395520, Note_on_c, 4, 50, 0
6, 395776, Note_on_c, 4, 55, 107
6, 396032, Note_on_c, 4, 55, 0
6, 396288, Note_on_c, 4, 54, 108
6, 396544, Note_on_c, 4, 54, 0
6, 396800, Note_on_c, 4, 57, 109
6, 397056, Note_on_c, 4, 57, 0
6, 397312, Note_on_c, 4, 59, 110
6, 397568, Note_on_c, 4, 59, 0
6, 397824, Note_on_c, 4, 57, 111
6, 398080, Note_on_c, 4, 57, 0
6, 398080, Note_on_c, 4, 55, 112
6, 398336, Note_on_c, 4, 55, 0
6, 398336, Note_on_c, 4, 54, 113
6, 398592, Note_on_c, 4, 54, 0
6, 398848, Note_on_c, 4, 55, 114
6, 399104, Note_on_c, 4, 55, 0
6, 399360, Note_on_c, 4, 57, 115
6, 399616, Note_on_c, 4, 57, 0
6, 399872, Note_on_c, 4, 45, 116
6, 400128, Note_on_c, 4, 45, 0
6, 400384, Note_on_c, 4, 38, 118
6, 403456, Note_on_c, 4, 38, 0
6, 409600, End_track
7, 0, Start_track
7, 0, Title_t, "Violin I"
7, 0, Program_c, 5, 48
7, 0, Control_c, 5, 121, 127
7, 0, Control_c, 5, 91, 127
7, 0, Control_c, 5, 10, 30
7, 0, Control_c, 5, 1, 10
7, 2560, Note_on_c, 5, 69, 95
7, 2816, Note_on_c, 5, 69, 0
7, 3072, Note_on_c, 5, 74, 100
7, 3328, Note_on_c, 5, 74, 0
7, 3584, Note_on_c, 5, 76, 105
7, 3840, Note_on_c, 5, 76, 0
7, 4096, Note_on_c, 5, 78, 110
7, 4608, Note_on_c, 5, 78, 0
7, 4608, Note_on_c, 5, 79, 94
7, 4779, Note_on_c, 5, 79, 0
7, 4779, Note_on_c, 5, 78, 95
7, 4949, Note_on_c, 5, 78, 0
7, 4949, Note_on_c, 5, 76, 96
7, 5120, Note_on_c, 5, 76, 0
7, 5120, Note_on_c, 5, 78, 98
7, 5376, Note_on_c, 5, 78, 0
7, 5632, Note_on_c, 5, 83, 102
7, 5888, Note_on_c, 5, 83, 0
7, 6144, Note_on_c, 5, 81, 106
7, 6400, Note_on_c, 5, 81, 0
7, 6656, Note_on_c, 5, 79, 101
7, 6912, Note_on_c, 5, 79, 0
7, 7168, Note_on_c, 5, 78, 99
7, 7424, Note_on_c, 5, 78, 0
7, 7680, Note_on_c, 5, 81, 98
7, 7936, Note_on_c, 5, 81, 0
7, 8192, Note_on_c, 5, 78, 96
7, 8448, Note_on_c, 5, 78, 0
7, 8704, Note_on_c, 5, 74, 95
7, 8960, Note_on_c, 5, 74, 0
7, 9216, Note_on_c, 5, 69, 94
7, 9472, Note_on_c, 5, 69, 0
7, 9728, Note_on_c, 5, 74, 92
7, 10496, Note_on_c, 5, 74, 0
7, 10752, Note_on_c, 5, 76, 86
7, 11008, Note_on_c, 5, 76, 0
7, 11008, Note_on_c, 5, 78, 87
7, 11264, Note_on_c, 5, 78, 0
7, 11264, Note_on_c, 5, 79, 89
7, 11520, Note_on_c, 5, 79, 0
7, 11776, Note_on_c, 5, 81, 91
7, 12032, Note_on_c, 5, 81, 0
7, 12288, Note_on_c, 5, 79, 93
7, 12544, Note_on_c, 5, 79, 0
7, 12544, Note_on_c, 5, 78, 94
7, 12800, Note_on_c, 5, 78, 0
7, 12800, Note_on_c, 5, 76, 96
7, 13056, Note_on_c, 5, 76, 0
7, 13056, Note_on_c, 5, 74, 97
7, 13312, Note_on_c, 5, 74, 0
7, 13312, Note_on_c, 5, 76, 98
7, 13568, Note_on_c, 5, 76, 0
7, 13824, Note_on_c, 5, 69, 98
7, 14080, Note_on_c, 5, 69, 0
7, 14336, Note_on_c, 5, 73, 96
7, 14592, Note_on_c, 5, 73, 0
7, 14848, Note_on_c, 5, 76, 94
7, 15104, Note_on_c, 5, 76, 0
7, 15360, Note_on_c, 5, 81, 92
7, 15616, Note_on_c, 5, 81, 0
7, 15616, Note_on_c, 5, 79, 91
7, 15872, Note_on_c, 5, 79, 0
7, 15872, Note_on_c, 5, 78, 89
7, 16128, Note_on_c, 5, 78, 0
7, 16128, Note_on_c, 5, 76, 88
7, 16384, Note_on_c, 5, 76, 0
7, 16384, Note_on_c, 5, 78, 87
7, 16640, Note_on_c, 5, 78, 0
7, 16896, Note_on_c, 5, 79, 85
7, 17067, Note_on_c, 5, 79, 0
7, 17067, Note_on_c, 5, 78, 80
7, 17237, Note_on_c, 5, 78, 0
7, 17237, Note_on_c, 5, 76, 80
7, 17408, Note_on_c, 5, 76, 0
7, 17408, Note_on_c, 5, 78, 81
7, 17664, Note_on_c, 5, 78, 0
7, 17920, Note_on_c, 5, 79, 82
7, 18176, Note_on_c, 5, 79, 0
7, 18432, Note_on_c, 5, 81, 84
7, 18688, Note_on_c, 5, 81, 0
7, 18944, Note_on_c, 5, 83, 86
7, 19200, Note_on_c, 5, 83, 0
7, 19456, Note_on_c, 5, 76, 87
7, 19712, Note_on_c, 5, 76, 0
7, 19712, Note_on_c, 5, 81, 88
7, 19968, Note_on_c, 5, 81, 0
7, 19968, Note_on_c, 5, 80, 89
7, 20224, Note_on_c, 5, 80, 0
7, 20224, Note_on_c, 5, 78, 90
7, 20480, Note_on_c, 5, 78, 0
7, 20480, Note_on_c, 5, 76, 90
7, 20736, Note_on_c, 5, 76, 0
7, 20736, Note_on_c, 5, 74, 91
7, 20992, Note_on_c, 5, 74, 0
7, 20992, Note_on_c, 5, 73, 92
7, 21248, Note_on_c, 5, 73, 0
7, 21248, Note_on_c, 5, 74, 93
7, 21504, Note_on_c, 5, 74, 0
7, 21504, Note_on_c, 5, 76, 94
7, 21760, Note_on_c, 5, 76, 0
7, 21760, Note_on_c, 5, 78, 95
7, 22016, Note_on_c, 5, 78, 0
7, 22016, Note_on_c, 5, 76, 95
7, 22272, Note_on_c, 5, 76, 0
7, 22272, Note_on_c, 5, 78, 96
7, 22528, Note_on_c, 5, 78, 0
7, 22528, Note_on_c, 5, 76, 97
7, 22784, Note_on_c, 5, 76, 0
7, 22784, Note_on_c, 5, 74, 98
7, 23040, Note_on_c, 5, 74, 0
7, 23040, Note_on_c, 5, 73, 99
7, 23296, Note_on_c, 5, 73, 0
7, 23296, Note_on_c, 5, 71, 99
7, 23552, Note_on_c, 5, 71, 0
7, 23552, Note_on_c, 5, 69, 100
7, 23808, Note_on_c, 5, 69, 0
7, 24064, Note_on_c, 5, 74, 102
7, 24320, Note_on_c, 5, 74, 0
7, 24576, Note_on_c, 5, 74, 103
7, 24704, Note_on_c, 5, 74, 0
7, 24704, Note_on_c, 5, 73, 104
7, 24832, Note_on_c, 5, 73, 0
7, 24832, Note_on_c, 5, 74, 104
7, 24960, Note_on_c, 5, 74, 0
7, 24960, Note_on_c, 5, 73, 105
7, 25088, Note_on_c, 5, 73, 0
7, 25088, Note_on_c, 5, 71, 105
7, 25344, Note_on_c, 5, 71, 0
7, 25344, Note_on_c, 5, 69, 106
7, 25600, Note_on_c, 5, 69, 0
7, 25600, Note_on_c, 5, 69, 107
7, 26624, Note_on_c, 5, 69, 0
7, 29184, Note_on_c, 5, 62, 36
7, 29440, Note_on_c, 5, 62, 0
7, 29696, Note_on_c, 5, 62, 37
7, 29952, Note_on_c, 5, 62, 0
7, 30208, Note_on_c, 5, 62, 39
7, 30464, Note_on_c, 5, 62, 0
7, 30720, Note_on_c, 5, 62, 40
7, 30976, Note_on_c, 5, 62, 0
7, 31232, Note_on_c, 5, 62, 41
7, 31488, Note_on_c, 5, 62, 0
7, 32256, Note_on_c, 5, 66, 44
7, 32512, Note_on_c, 5, 66, 0
7, 32768, Note_on_c, 5, 66, 46
7, 33024, Note_on_c, 5, 66, 0
7, 33280, Note_on_c, 5, 66, 47
7, 33536, Note_on_c, 5, 66, 0
7, 33792, Note_on_c, 5, 66, 48
7, 34048, Note_on_c, 5, 66, 0
7, 34304, Note_on_c, 5, 66, 50
7, 34560, Note_on_c, 5, 66, 0
7, 35328, Note_on_c, 5, 64, 52
7, 35584, Note_on_c, 5, 64, 0
7, 35840, Note_on_c, 5, 64, 54
7, 36096, Note_on_c, 5, 64, 0
7, 36352, Note_on_c, 5, 64, 55
7, 36608, Note_on_c, 5, 64, 0
7, 36864, Note_on_c, 5, 64, 56
7, 37120, Note_on_c, 5, 64, 0
7, 37376, Note_on_c, 5, 64, 58
7, 37632, Note_on_c, 5, 64, 0
7, 38400, Note_on_c, 5, 67, 61
7, 38656, Note_on_c, 5, 67, 0
7, 38912, Note_on_c, 5, 67, 62
7, 39168, Note_on_c, 5, 67, 0
7, 39424, Note_on_c, 5, 67, 63
7, 39680, Note_on_c, 5, 67, 0
7, 39936, Note_on_c, 5, 67, 65
7, 40192, Note_on_c, 5, 67, 0
7, 40448, Note_on_c, 5, 67, 66
7, 40704, Note_on_c, 5, 67, 0
7, 41472, Note_on_c, 5, 66, 69
7, 41728, Note_on_c, 5, 66, 0
7, 41984, Note_on_c, 5, 66, 70
7, 42240, Note_on_c, 5, 66, 0
7, 42496, Note_on_c, 5, 69, 72
7, 42752, Note_on_c, 5, 69, 0
7, 43008, Note_on_c, 5, 74, 99
7, 43264, Note_on_c, 5, 74, 0
7, 43520, Note_on_c, 5, 76, 102
7, 43776, Note_on_c, 5, 76, 0
7, 44032, Note_on_c, 5, 78, 106
7, 44544, Note_on_c, 5, 78, 0
7, 44544, Note_on_c, 5, 79, 109
7, 44715, Note_on_c, 5, 79, 0
7, 44715, Note_on_c, 5, 78, 110
7, 44885, Note_on_c, 5, 78, 0
7, 44885, Note_on_c, 5, 76, 108
7, 45056, Note_on_c, 5, 76, 0
7, 45056, Note_on_c, 5, 78, 108
7, 45312, Note_on_c, 5, 78, 0
7, 45568, Note_on_c, 5, 83, 107
7, 45824, Note_on_c, 5, 83, 0
7, 46080, Note_on_c, 5, 81, 106
7, 46336, Note_on_c, 5, 81, 0
7, 46592, Note_on_c, 5, 79, 106
7, 46848, Note_on_c, 5, 79, 0
7, 47104, Note_on_c, 5, 78, 105
7, 47360, Note_on_c, 5, 78, 0
7, 48128, Note_on_c, 5, 74, 98
7, 48384, Note_on_c, 5, 74, 0
7, 49152, Note_on_c, 5, 78, 99
7, 49408, Note_on_c, 5, 78, 0
7, 50176, Note_on_c, 5, 81, 99
7, 50432, Note_on_c, 5, 81, 0
7, 51712, Note_on_c, 5, 81, 79
7, 51968, Note_on_c, 5, 81, 0
7, 51968, Note_on_c, 5, 79, 80
7, 52224, Note_on_c, 5, 79, 0
7, 52224, Note_on_c, 5, 81, 81
7, 52480, Note_on_c, 5, 81, 0
7, 52736, Note_on_c, 5, 72, 83
7, 53504, Note_on_c, 5, 72, 0
7, 53760, Note_on_c, 5, 71, 86
7, 54016, Note_on_c, 5, 71, 0
7, 56576, Note_on_c, 5, 69, 95
7, 56832, Note_on_c, 5, 69, 0
7, 56832, Note_on_c, 5, 71, 96
7, 57088, Note_on_c, 5, 71, 0
7, 57088, Note_on_c, 5, 73, 97
7, 57344, Note_on_c, 5, 73, 0
7, 57344, Note_on_c, 5, 74, 98
7, 57600, Note_on_c, 5, 74, 0
7, 57600, Note_on_c, 5, 76, 99
7, 57856, Note_on_c, 5, 76, 0
7, 57856, Note_on_c, 5, 78, 100
7, 58112, Note_on_c, 5, 78, 0
7, 58112, Note_on_c, 5, 79, 101
7, 58368, Note_on_c, 5, 79, 0
7, 58368, Note_on_c, 5, 81, 101
7, 58624, Note_on_c, 5, 81, 0
7, 58880, Note_on_c, 5, 79, 103
7, 59136, Note_on_c, 5, 79, 0
7, 59136, Note_on_c, 5, 78, 104
7, 59392, Note_on_c, 5, 78, 0
7, 59392, Note_on_c, 5, 76, 105
7, 60416, Note_on_c, 5, 76, 0
7, 60928, Note_on_c, 5, 64, 82
7, 61184, Note_on_c, 5, 64, 0
7, 61440, Note_on_c, 5, 69, 82
7, 61696, Note_on_c, 5, 69, 0
7, 61952, Note_on_c, 5, 71, 82
7, 62208, Note_on_c, 5, 71, 0
7, 62464, Note_on_c, 5, 73, 82
7, 62976, Note_on_c, 5, 73, 0
7, 62976, Note_on_c, 5, 74, 82
7, 63147, Note_on_c, 5, 74, 0
7, 63147, Note_on_c, 5, 73, 82
7, 63317, Note_on_c, 5, 73, 0
7, 63317, Note_on_c, 5, 71, 82
7, 63488, Note_on_c, 5, 71, 0
7, 63488, Note_on_c, 5, 73, 82
7, 63744, Note_on_c, 5, 73, 0
7, 64000, Note_on_c, 5, 74, 82
7, 64256, Note_on_c, 5, 74, 0
7, 64512, Note_on_c, 5, 73, 82
7, 64768, Note_on_c, 5, 73, 0
7, 65024, Note_on_c, 5, 71, 83
7, 65280, Note_on_c, 5, 71, 0
7, 65536, Note_on_c, 5, 69, 83
7, 65792, Note_on_c, 5, 69, 0
7, 65792, Note_on_c, 5, 68, 83
7, 66048, Note_on_c, 5, 68, 0
7, 66048, Note_on_c, 5, 69, 83
7, 66304, Note_on_c, 5, 69, 0
7, 67072, Note_on_c, 5, 66, 83
7, 67328, Note_on_c, 5, 66, 0
7, 67584, Note_on_c, 5, 71, 83
7, 67840, Note_on_c, 5, 71, 0
7, 68096, Note_on_c, 5, 73, 83
7, 68352, Note_on_c, 5, 73, 0
7, 68608, Note_on_c, 5, 74, 83
7, 68864, Note_on_c, 5, 74, 0
7, 69120, Note_on_c, 5, 73, 80
7, 69376, Note_on_c, 5, 73, 0
7, 69376, Note_on_c, 5, 71, 79
7, 69632, Note_on_c, 5, 71, 0
7, 69632, Note_on_c, 5, 76, 79
7, 69888, Note_on_c, 5, 76, 0
7, 70144, Note_on_c, 5, 68, 78
7, 70400, Note_on_c, 5, 68, 0
7, 70656, Note_on_c, 5, 69, 77
7, 70912, Note_on_c, 5, 69, 0
7, 71168, Note_on_c, 5, 74, 75
7, 71424, Note_on_c, 5, 74, 0
7, 71680, Note_on_c, 5, 73, 74
7, 72192, Note_on_c, 5, 73, 0
7, 72192, Note_on_c, 5, 71, 73
7, 72448, Note_on_c, 5, 71, 0
7, 73216, Note_on_c, 5, 71, 64
7, 73472, Note_on_c, 5, 71, 0
7, 73728, Note_on_c, 5, 73, 64
7, 73984, Note_on_c, 5, 73, 0
7, 74240, Note_on_c, 5, 74, 64
7, 74496, Note_on_c, 5, 74, 0
7, 74752, Note_on_c, 5, 76, 64
7, 75008, Note_on_c, 5, 76, 0
7, 77312, Note_on_c, 5, 78, 64
7, 77568, Note_on_c, 5, 78, 0
7, 77568, Note_on_c, 5, 76, 64
7, 77824, Note_on_c, 5, 76, 0
7, 77824, Note_on_c, 5, 74, 61
7, 78080, Note_on_c, 5, 74, 0
7, 80384, Note_on_c, 5, 76, 55
7, 80640, Note_on_c, 5, 76, 0
7, 80640, Note_on_c, 5, 74, 55
7, 80896, Note_on_c, 5, 74, 0
7, 80896, Note_on_c, 5, 73, 54
7, 81152, Note_on_c, 5, 73, 0
7, 83456, Note_on_c, 5, 74, 48
7, 83712, Note_on_c, 5, 74, 0
7, 83712, Note_on_c, 5, 73, 48
7, 83968, Note_on_c, 5, 73, 0
7, 83968, Note_on_c, 5, 71, 60
7, 84224, Note_on_c, 5, 71, 0
7, 84480, Note_on_c, 5, 59, 42
7, 84736, Note_on_c, 5, 59, 0
7, 84992, Note_on_c, 5, 63, 45
7, 85248, Note_on_c, 5, 63, 0
7, 85504, Note_on_c, 5, 66, 49
7, 85760, Note_on_c, 5, 66, 0
7, 86016, Note_on_c, 5, 71, 52
7, 87296, Note_on_c, 5, 71, 0
7, 87552, Note_on_c, 5, 64, 47
7, 87808, Note_on_c, 5, 64, 0
7, 88064, Note_on_c, 5, 68, 52
7, 88320, Note_on_c, 5, 68, 0
7, 88576, Note_on_c, 5, 71, 57
7, 88832, Note_on_c, 5, 71, 0
7, 89088, Note_on_c, 5, 74, 62
7, 89344, Note_on_c, 5, 74, 0
7, 89600, Note_on_c, 5, 71, 67
7, 89856, Note_on_c, 5, 71, 0
7, 90112, Note_on_c, 5, 73, 72
7, 90368, Note_on_c, 5, 73, 0
7, 90624, Note_on_c, 5, 61, 54
7, 90880, Note_on_c, 5, 61, 0
7, 91136, Note_on_c, 5, 65, 59
7, 91392, Note_on_c, 5, 65, 0
7, 91648, Note_on_c, 5, 68, 64
7, 91904, Note_on_c, 5, 68, 0
7, 92160, Note_on_c, 5, 73, 70
7, 93184, Note_on_c, 5, 73, 0
7, 93184, Note_on_c, 5, 73, 80
7, 93440, Note_on_c, 5, 73, 0
7, 93696, Note_on_c, 5, 66, 64
7, 93952, Note_on_c, 5, 66, 0
7, 94208, Note_on_c, 5, 70, 69
7, 94464, Note_on_c, 5, 70, 0
7, 94720, Note_on_c, 5, 73, 75
7, 94976, Note_on_c, 5, 73, 0
7, 95232, Note_on_c, 5, 76, 80
7, 95488, Note_on_c, 5, 76, 0
7, 95744, Note_on_c, 5, 73, 85
7, 96000, Note_on_c, 5, 73, 0
7, 96256, Note_on_c, 5, 74, 91
7, 96512, Note_on_c, 5, 74, 0
7, 96768, Note_on_c, 5, 76, 90
7, 97024, Note_on_c, 5, 76, 0
7, 97024, Note_on_c, 5, 74, 91
7, 97280, Note_on_c, 5, 74, 0
7, 97280, Note_on_c, 5, 73, 92
7, 97536, Note_on_c, 5, 73, 0
7, 97792, Note_on_c, 5, 78, 94
7, 98048, Note_on_c, 5, 78, 0
7, 98304, Note_on_c, 5, 76, 97
7, 98560, Note_on_c, 5, 76, 0
7, 98560, Note_on_c, 5, 74, 98
7, 98816, Note_on_c, 5, 74, 0
7, 98816, Note_on_c, 5, 73, 99
7, 99072, Note_on_c, 5, 73, 0
7, 99072, Note_on_c, 5, 71, 100
7, 99328, Note_on_c, 5, 71, 0
7, 99328, Note_on_c, 5, 69, 101
7, 99584, Note_on_c, 5, 69, 0
7, 103936, Note_on_c, 5, 64, 40
7, 104192, Note_on_c, 5, 64, 0
7, 104448, Note_on_c, 5, 69, 45
7, 104704, Note_on_c, 5, 69, 0
7, 104960, Note_on_c, 5, 71, 50
7, 105216, Note_on_c, 5, 71, 0
7, 105472, Note_on_c, 5, 73, 55
7, 105984, Note_on_c, 5, 73, 0
7, 105984, Note_on_c, 5, 74, 55
7, 106155, Note_on_c, 5, 74, 0
7, 106155, Note_on_c, 5, 73, 55
7, 106325, Note_on_c, 5, 73, 0
7, 106325, Note_on_c, 5, 71, 55
7, 106496, Note_on_c, 5, 71, 0
7, 106496, Note_on_c, 5, 73, 55
7, 106752, Note_on_c, 5, 73, 0
7, 107008, Note_on_c, 5, 78, 56
7, 107264, Note_on_c, 5, 78, 0
7, 107520, Note_on_c, 5, 76, 57
7, 107776, Note_on_c, 5, 76, 0
7, 108032, Note_on_c, 5, 74, 57
7, 108288, Note_on_c, 5, 74, 0
7, 108544, Note_on_c, 5, 73, 58
7, 108800, Note_on_c, 5, 73, 0
7, 109056, Note_on_c, 5, 76, 58
7, 109312, Note_on_c, 5, 76, 0
7, 109568, Note_on_c, 5, 73, 59
7, 109824, Note_on_c, 5, 73, 0
7, 110080, Note_on_c, 5, 69, 59
7, 110336, Note_on_c, 5, 69, 0
7, 110592, Note_on_c, 5, 64, 60
7, 110848, Note_on_c, 5, 64, 0
7, 111104, Note_on_c, 5, 69, 61
7, 111872, Note_on_c, 5, 69, 0
7, 112128, Note_on_c, 5, 71, 61
7, 112384, Note_on_c, 5, 71, 0
7, 112384, Note_on_c, 5, 73, 60
7, 112640, Note_on_c, 5, 73, 0
7, 112640, Note_on_c, 5, 74, 60
7, 112896, Note_on_c, 5, 74, 0
7, 113152, Note_on_c, 5, 76, 59
7, 113408, Note_on_c, 5, 76, 0
7, 113664, Note_on_c, 5, 74, 58
7, 113920, Note_on_c, 5, 74, 0
7, 113920, Note_on_c, 5, 73, 57
7, 114176, Note_on_c, 5, 73, 0
7, 114176, Note_on_c, 5, 71, 57
7, 114432, Note_on_c, 5, 71, 0
7, 114432, Note_on_c, 5, 69, 57
7, 114688, Note_on_c, 5, 69, 0
7, 114688, Note_on_c, 5, 71, 56
7, 114944, Note_on_c, 5, 71, 0
7, 115200, Note_on_c, 5, 64, 53
7, 115456, Note_on_c, 5, 64, 0
7, 115712, Note_on_c, 5, 68, 53
7, 115968, Note_on_c, 5, 68, 0
7, 116224, Note_on_c, 5, 71, 54
7, 116480, Note_on_c, 5, 71, 0
7, 116736, Note_on_c, 5, 76, 55
7, 116992, Note_on_c, 5, 76, 0
7, 116992, Note_on_c, 5, 74, 55
7, 117248, Note_on_c, 5, 74, 0
7, 117248, Note_on_c, 5, 73, 56
7, 117504, Note_on_c, 5, 73, 0
7, 117504, Note_on_c, 5, 71, 56
7, 117760, Note_on_c, 5, 71, 0
7, 117760, Note_on_c, 5, 73, 57
7, 118016, Note_on_c, 5, 73, 0
7, 118272, Note_on_c, 5, 74, 57
7, 118443, Note_on_c, 5, 74, 0
7, 118443, Note_on_c, 5, 73, 58
7, 118613, Note_on_c, 5, 73, 0
7, 118613, Note_on_c, 5, 71, 58
7, 118784, Note_on_c, 5, 71, 0
7, 118784, Note_on_c, 5, 73, 58
7, 119040, Note_on_c, 5, 73, 0
7, 119296, Note_on_c, 5, 74, 59
7, 119552, Note_on_c, 5, 74, 0
7, 119808, Note_on_c, 5, 76, 60
7, 120064, Note_on_c, 5, 76, 0
7, 120320, Note_on_c, 5, 78, 60
7, 120576, Note_on_c, 5, 78, 0
7, 120832, Note_on_c, 5, 71, 61
7, 121856, Note_on_c, 5, 71, 0
7, 122368, Note_on_c, 5, 64, 47
7, 122624, Note_on_c, 5, 64, 0
7, 122624, Note_on_c, 5, 66, 48
7, 122880, Note_on_c, 5, 66, 0
7, 122880, Note_on_c, 5, 64, 50
7, 123136, Note_on_c, 5, 64, 0
7, 123392, Note_on_c, 5, 62, 52
7, 123648, Note_on_c, 5, 62, 0
7, 123904, Note_on_c, 5, 61, 55
7, 124160, Note_on_c, 5, 61, 0
7, 124416, Note_on_c, 5, 59, 47
7, 124672, Note_on_c, 5, 59, 0
7, 124928, Note_on_c, 5, 58, 48
7, 125184, Note_on_c, 5, 58, 0
7, 125440, Note_on_c, 5, 61, 50
7, 125696, Note_on_c, 5, 61, 0
7, 125952, Note_on_c, 5, 66, 51
7, 126208, Note_on_c, 5, 66, 0
7, 126464, Note_on_c, 5, 58, 52
7, 126720, Note_on_c, 5, 58, 0
7, 126976, Note_on_c, 5, 59, 54
7, 127232, Note_on_c, 5, 59, 0
7, 127488, Note_on_c, 5, 66, 46
7, 127744, Note_on_c, 5, 66, 0
7, 128000, Note_on_c, 5, 59, 49
7, 128256, Note_on_c, 5, 59, 0
7, 128512, Note_on_c, 5, 66, 51
7, 128768, Note_on_c, 5, 66, 0
7, 129024, Note_on_c, 5, 58, 53
7, 129280, Note_on_c, 5, 58, 0
7, 129536, Note_on_c, 5, 66, 56
7, 129792, Note_on_c, 5, 66, 0
7, 130048, Note_on_c, 5, 59, 58
7, 130304, Note_on_c, 5, 59, 0
7, 130560, Note_on_c, 5, 71, 60
7, 130816, Note_on_c, 5, 71, 0
7, 130816, Note_on_c, 5, 70, 61
7, 131072, Note_on_c, 5, 70, 0
7, 131072, Note_on_c, 5, 71, 62
7, 131328, Note_on_c, 5, 71, 0
7, 131584, Note_on_c, 5, 66, 65
7, 131840, Note_on_c, 5, 66, 0
7, 132096, Note_on_c, 5, 71, 64
7, 132352, Note_on_c, 5, 71, 0
7, 132608, Note_on_c, 5, 74, 64
7, 132864, Note_on_c, 5, 74, 0
7, 132864, Note_on_c, 5, 73, 64
7, 133120, Note_on_c, 5, 73, 0
7, 133120, Note_on_c, 5, 74, 64
7, 133376, Note_on_c, 5, 74, 0
7, 133632, Note_on_c, 5, 78, 57
7, 133888, Note_on_c, 5, 78, 0
7, 133888, Note_on_c, 5, 76, 55
7, 134144, Note_on_c, 5, 76, 0
7, 134144, Note_on_c, 5, 74, 53
7, 134400, Note_on_c, 5, 74, 0
7, 134656, Note_on_c, 5, 71, 44
7, 134912, Note_on_c, 5, 71, 0
7, 135168, Note_on_c, 5, 68, 47
7, 135424, Note_on_c, 5, 68, 0
7, 135680, Note_on_c, 5, 71, 50
7, 135936, Note_on_c, 5, 71, 0
7, 136192, Note_on_c, 5, 59, 53
7, 136448, Note_on_c, 5, 59, 0
7, 136704, Note_on_c, 5, 57, 46
7, 136960, Note_on_c, 5, 57, 0
7, 137216, Note_on_c, 5, 56, 47
7, 137472, Note_on_c, 5, 56, 0
7, 137728, Note_on_c, 5, 59, 48
7, 137984, Note_on_c, 5, 59, 0
7, 138240, Note_on_c, 5, 64, 49
7, 138496, Note_on_c, 5, 64, 0
7, 138752, Note_on_c, 5, 56, 50
7, 139008, Note_on_c, 5, 56, 0
7, 139264, Note_on_c, 5, 57, 52
7, 139520, Note_on_c, 5, 57, 0
7, 139776, Note_on_c, 5, 64, 53
7, 140032, Note_on_c, 5, 64, 0
7, 140288, Note_on_c, 5, 57, 54
7, 140544, Note_on_c, 5, 57, 0
7, 140800, Note_on_c, 5, 64, 55
7, 141056, Note_on_c, 5, 64, 0
7, 141312, Note_on_c, 5, 56, 57
7, 141568, Note_on_c, 5, 56, 0
7, 141824, Note_on_c, 5, 64, 58
7, 142080, Note_on_c, 5, 64, 0
7, 142336, Note_on_c, 5, 57, 59
7, 142592, Note_on_c, 5, 57, 0
7, 142848, Note_on_c, 5, 69, 60
7, 143104, Note_on_c, 5, 69, 0
7, 143104, Note_on_c, 5, 68, 61
7, 143360, Note_on_c, 5, 68, 0
7, 143360, Note_on_c, 5, 69, 61
7, 143616, Note_on_c, 5, 69, 0
7, 143872, Note_on_c, 5, 64, 63
7, 144128, Note_on_c, 5, 64, 0
7, 144384, Note_on_c, 5, 69, 64
7, 144640, Note_on_c, 5, 69, 0
7, 144896, Note_on_c, 5, 73, 67
7, 145152, Note_on_c, 5, 73, 0
7, 145152, Note_on_c, 5, 71, 69
7, 145408, Note_on_c, 5, 71, 0
7, 145408, Note_on_c, 5, 73, 70
7, 145664, Note_on_c, 5, 73, 0
7, 145920, Note_on_c, 5, 76, 74
7, 146176, Note_on_c, 5, 76, 0
7, 146176, Note_on_c, 5, 74, 76
7, 146432, Note_on_c, 5, 74, 0
7, 146432, Note_on_c, 5, 73, 78
7, 146688, Note_on_c, 5, 73, 0
7, 146944, Note_on_c, 5, 76, 81
7, 147200, Note_on_c, 5, 76, 0
7, 147456, Note_on_c, 5, 81, 85
7, 147712, Note_on_c, 5, 81, 0
7, 147968, Note_on_c, 5, 76, 89
7, 148224, Note_on_c, 5, 76, 0
7, 148480, Note_on_c, 5, 76, 92
7, 148736, Note_on_c, 5, 76, 0
7, 148736, Note_on_c, 5, 74, 94
7, 148992, Note_on_c, 5, 74, 0
7, 148992, Note_on_c, 5, 73, 96
7, 149248, Note_on_c, 5, 73, 0
7, 149248, Note_on_c, 5, 71, 98
7, 149504, Note_on_c, 5, 71, 0
7, 149504, Note_on_c, 5, 69, 98
7, 149760, Note_on_c, 5, 69, 0
7, 150016, Note_on_c, 5, 74, 99
7, 150272, Note_on_c, 5, 74, 0
7, 150528, Note_on_c, 5, 73, 100
7, 150784, Note_on_c, 5, 73, 0
7, 151040, Note_on_c, 5, 71, 102
7, 151296, Note_on_c, 5, 71, 0
7, 151296, Note_on_c, 5, 69, 102
7, 151552, Note_on_c, 5, 69, 0
7, 151552, Note_on_c, 5, 69, 103
7, 153088, Note_on_c, 5, 69, 0
7, 165376, Note_on_c, 5, 66, 50
7, 165632, Note_on_c, 5, 66, 0
7, 165888, Note_on_c, 5, 71, 58
7, 166144, Note_on_c, 5, 71, 0
7, 166400, Note_on_c, 5, 73, 66
7, 166656, Note_on_c, 5, 73, 0
7, 166912, Note_on_c, 5, 74, 74
7, 167168, Note_on_c, 5, 74, 0
7, 167424, Note_on_c, 5, 76, 68
7, 167595, Note_on_c, 5, 76, 0
7, 167595, Note_on_c, 5, 74, 68
7, 167765, Note_on_c, 5, 74, 0
7, 167765, Note_on_c, 5, 73, 68
7, 167936, Note_on_c, 5, 73, 0
7, 167936, Note_on_c, 5, 74, 68
7, 168192, Note_on_c, 5, 74, 0
7, 168448, Note_on_c, 5, 79, 69
7, 168704, Note_on_c, 5, 79, 0
7, 168960, Note_on_c, 5, 78, 69
7, 169472, Note_on_c, 5, 78, 0
7, 169472, Note_on_c, 5, 76, 70
7, 169728, Note_on_c, 5, 76, 0
7, 169984, Note_on_c, 5, 74, 71
7, 170240, Note_on_c, 5, 74, 0
7, 170240, Note_on_c, 5, 76, 71
7, 170496, Note_on_c, 5, 76, 0
7, 170496, Note_on_c, 5, 74, 71
7, 170752, Note_on_c, 5, 74, 0
7, 170752, Note_on_c, 5, 73, 72
7, 171008, Note_on_c, 5, 73, 0
7, 171008, Note_on_c, 5, 71, 72
7, 171264, Note_on_c, 5, 71, 0
7, 171264, Note_on_c, 5, 70, 72
7, 171520, Note_on_c, 5, 70, 0
7, 171520, Note_on_c, 5, 71, 72
7, 171776, Note_on_c, 5, 71, 0
7, 171776, Note_on_c, 5, 73, 73
7, 172032, Note_on_c, 5, 73, 0
7, 172032, Note_on_c, 5, 74, 73
7, 172288, Note_on_c, 5, 74, 0
7, 172288, Note_on_c, 5, 76, 73
7, 172544, Note_on_c, 5, 76, 0
7, 172544, Note_on_c, 5, 78, 74
7, 172800, Note_on_c, 5, 78, 0
7, 172800, Note_on_c, 5, 79, 74
7, 173056, Note_on_c, 5, 79, 0
7, 173056, Note_on_c, 5, 81, 74
7, 173312, Note_on_c, 5, 81, 0
7, 175616, Note_on_c, 5, 83, 69
7, 175872, Note_on_c, 5, 83, 0
7, 175872, Note_on_c, 5, 81, 71
7, 176128, Note_on_c, 5, 81, 0
7, 176128, Note_on_c, 5, 79, 73
7, 176384, Note_on_c, 5, 79, 0
7, 178688, Note_on_c, 5, 81, 66
7, 178944, Note_on_c, 5, 81, 0
7, 178944, Note_on_c, 5, 79, 68
7, 179200, Note_on_c, 5, 79, 0
7, 179200, Note_on_c, 5, 78, 69
7, 179456, Note_on_c, 5, 78, 0
7, 181760, Note_on_c, 5, 79, 69
7, 182016, Note_on_c, 5, 79, 0
7, 182016, Note_on_c, 5, 78, 71
7, 182272, Note_on_c, 5, 78, 0
7, 182272, Note_on_c, 5, 76, 72
7, 182528, Note_on_c, 5, 76, 0
7, 182784, Note_on_c, 5, 64, 38
7, 183040, Note_on_c, 5, 64, 0
7, 183296, Note_on_c, 5, 68, 42
7, 183552, Note_on_c, 5, 68, 0
7, 183808, Note_on_c, 5, 71, 46
7, 184064, Note_on_c, 5, 71, 0
7, 184320, Note_on_c, 5, 76, 50
7, 185600, Note_on_c, 5, 76, 0
7, 185856, Note_on_c, 5, 81, 46
7, 186112, Note_on_c, 5, 81, 0
7, 186368, Note_on_c, 5, 76, 50
7, 186624, Note_on_c, 5, 76, 0
7, 186880, Note_on_c, 5, 73, 54
7, 187136, Note_on_c, 5, 73, 0
7, 187392, Note_on_c, 5, 69, 58
7, 187648, Note_on_c, 5, 69, 0
7, 188928, Note_on_c, 5, 66, 53
7, 189184, Note_on_c, 5, 66, 0
7, 189440, Note_on_c, 5, 70, 57
7, 189696, Note_on_c, 5, 70, 0
7, 189952, Note_on_c, 5, 73, 62
7, 190208, Note_on_c, 5, 73, 0
7, 190464, Note_on_c, 5, 78, 66
7, 191744, Note_on_c, 5, 78, 0
7, 192000, Note_on_c, 5, 83, 59
7, 192256, Note_on_c, 5, 83, 0
7, 192512, Note_on_c, 5, 78, 64
7, 192768, Note_on_c, 5, 78, 0
7, 193024, Note_on_c, 5, 75, 69
7, 193280, Note_on_c, 5, 75, 0
7, 193536, Note_on_c, 5, 71, 73
7, 193792, Note_on_c, 5, 71, 0
7, 202240, Note_on_c, 5, 66, 43
7, 202496, Note_on_c, 5, 66, 0
7, 202752, Note_on_c, 5, 71, 45
7, 203008, Note_on_c, 5, 71, 0
7, 203264, Note_on_c, 5, 73, 48
7, 203520, Note_on_c, 5, 73, 0
7, 203776, Note_on_c, 5, 74, 50
7, 204032, Note_on_c, 5, 74, 0
7, 204288, Note_on_c, 5, 76, 51
7, 204459, Note_on_c, 5, 76, 0
7, 204459, Note_on_c, 5, 74, 51
7, 204629, Note_on_c, 5, 74, 0
7, 204629, Note_on_c, 5, 73, 51
7, 204800, Note_on_c, 5, 73, 0
7, 204800, Note_on_c, 5, 74, 52
7, 205056, Note_on_c, 5, 74, 0
7, 208384, Note_on_c, 5, 76, 46
7, 208640, Note_on_c, 5, 76, 0
7, 208896, Note_on_c, 5, 70, 49
7, 209152, Note_on_c, 5, 70, 0
7, 209408, Note_on_c, 5, 71, 52
7, 209664, Note_on_c, 5, 71, 0
7, 209920, Note_on_c, 5, 73, 55
7, 210176, Note_on_c, 5, 73, 0
7, 210432, Note_on_c, 5, 74, 43
7, 210603, Note_on_c, 5, 74, 0
7, 210603, Note_on_c, 5, 73, 43
7, 210773, Note_on_c, 5, 73, 0
7, 210773, Note_on_c, 5, 71, 44
7, 210944, Note_on_c, 5, 71, 0
7, 210944, Note_on_c, 5, 73, 44
7, 211200, Note_on_c, 5, 73, 0
7, 214528, Note_on_c, 5, 71, 52
7, 214784, Note_on_c, 5, 71, 0
7, 215040, Note_on_c, 5, 74, 53
7, 215296, Note_on_c, 5, 74, 0
7, 215552, Note_on_c, 5, 71, 54
7, 215808, Note_on_c, 5, 71, 0
7, 216064, Note_on_c, 5, 71, 55
7, 216320, Note_on_c, 5, 71, 0
7, 216576, Note_on_c, 5, 72, 58
7, 216747, Note_on_c, 5, 72, 0
7, 216747, Note_on_c, 5, 71, 59
7, 216917, Note_on_c, 5, 71, 0
7, 216917, Note_on_c, 5, 69, 60
7, 217088, Note_on_c, 5, 69, 0
7, 217088, Note_on_c, 5, 71, 61
7, 217344, Note_on_c, 5, 71, 0
7, 217600, Note_on_c, 5, 81, 65
7, 217856, Note_on_c, 5, 81, 0
7, 218112, Note_on_c, 5, 79, 68
7, 218368, Note_on_c, 5, 79, 0
7, 218624, Note_on_c, 5, 78, 71
7, 218880, Note_on_c, 5, 78, 0
7, 219136, Note_on_c, 5, 79, 74
7, 219392, Note_on_c, 5, 79, 0
7, 219392, Note_on_c, 5, 78, 76
7, 219648, Note_on_c, 5, 78, 0
7, 219648, Note_on_c, 5, 76, 77
7, 219904, Note_on_c, 5, 76, 0
7, 219904, Note_on_c, 5, 78, 79
7, 220160, Note_on_c, 5, 78, 0
7, 220160, Note_on_c, 5, 79, 81
7, 220416, Note_on_c, 5, 79, 0
7, 220416, Note_on_c, 5, 81, 82
7, 220672, Note_on_c, 5, 81, 0
7, 220672, Note_on_c, 5, 83, 83
7, 220928, Note_on_c, 5, 83, 0
7, 220928, Note_on_c, 5, 82, 82
7, 221184, Note_on_c, 5, 82, 0
7, 221184, Note_on_c, 5, 85, 80
7, 221440, Note_on_c, 5, 85, 0
7, 221440, Note_on_c, 5, 83, 79
7, 221696, Note_on_c, 5, 83, 0
7, 221696, Note_on_c, 5, 82, 77
7, 221952, Note_on_c, 5, 82, 0
7, 221952, Note_on_c, 5, 80, 75
7, 222208, Note_on_c, 5, 80, 0
7, 222208, Note_on_c, 5, 78, 74
7, 222464, Note_on_c, 5, 78, 0
7, 222464, Note_on_c, 5, 76, 72
7, 222720, Note_on_c, 5, 76, 0
7, 222720, Note_on_c, 5, 74, 71
7, 222976, Note_on_c, 5, 74, 0
7, 222976, Note_on_c, 5, 76, 69
7, 223232, Note_on_c, 5, 76, 0
7, 223232, Note_on_c, 5, 78, 67
7, 223488, Note_on_c, 5, 78, 0
7, 223744, Note_on_c, 5, 71, 64
7, 224000, Note_on_c, 5, 71, 0
7, 224256, Note_on_c, 5, 74, 61
7, 224512, Note_on_c, 5, 74, 0
7, 224512, Note_on_c, 5, 73, 59
7, 224768, Note_on_c, 5, 73, 0
7, 224768, Note_on_c, 5, 71, 58
7, 225024, Note_on_c, 5, 71, 0
7, 225024, Note_on_c, 5, 70, 56
7, 225280, Note_on_c, 5, 70, 0
7, 225280, Note_on_c, 5, 71, 55
7, 225536, Note_on_c, 5, 71, 0
7, 226304, Note_on_c, 5, 74, 30
7, 226560, Note_on_c, 5, 74, 0
7, 227328, Note_on_c, 5, 74, 30
7, 227584, Note_on_c, 5, 74, 0
7, 228352, Note_on_c, 5, 74, 38
7, 228608, Note_on_c, 5, 74, 0
7, 229376, Note_on_c, 5, 74, 30
7, 229632, Note_on_c, 5, 74, 0
7, 230400, Note_on_c, 5, 74, 30
7, 230656, Note_on_c, 5, 74, 0
7, 231424, Note_on_c, 5, 74, 39
7, 231680, Note_on_c, 5, 74, 0
7, 232448, Note_on_c, 5, 73, 30
7, 232704, Note_on_c, 5, 73, 0
7, 233472, Note_on_c, 5, 73, 30
7, 233728, Note_on_c, 5, 73, 0
7, 234496, Note_on_c, 5, 71, 36
7, 234752, Note_on_c, 5, 71, 0
7, 235520, Note_on_c, 5, 71, 30
7, 235776, Note_on_c, 5, 71, 0
7, 236544, Note_on_c, 5, 71, 30
7, 236800, Note_on_c, 5, 71, 0
7, 237568, Note_on_c, 5, 71, 38
7, 237824, Note_on_c, 5, 71, 0
7, 238592, Note_on_c, 5, 69, 30
7, 238848, Note_on_c, 5, 69, 0
7, 239616, Note_on_c, 5, 71, 30
7, 239872, Note_on_c, 5, 71, 0
7, 240640, Note_on_c, 5, 65, 39
7, 240896, Note_on_c, 5, 65, 0
7, 241664, Note_on_c, 5, 61, 30
7, 241920, Note_on_c, 5, 61, 0
7, 242688, Note_on_c, 5, 73, 30
7, 242944, Note_on_c, 5, 73, 0
7, 243712, Note_on_c, 5, 69, 39
7, 243968, Note_on_c, 5, 69, 0
7, 244736, Note_on_c, 5, 66, 31
7, 244992, Note_on_c, 5, 66, 0
7, 245760, Note_on_c, 5, 78, 31
7, 246016, Note_on_c, 5, 78, 0
7, 246784, Note_on_c, 5, 74, 38
7, 247040, Note_on_c, 5, 74, 0
7, 247808, Note_on_c, 5, 74, 31
7, 248064, Note_on_c, 5, 74, 0
7, 248832, Note_on_c, 5, 74, 31
7, 249088, Note_on_c, 5, 74, 0
7, 249856, Note_on_c, 5, 74, 38
7, 250112, Note_on_c, 5, 74, 0
7, 250880, Note_on_c, 5, 74, 31
7, 251136, Note_on_c, 5, 74, 0
7, 251904, Note_on_c, 5, 73, 31
7, 252160, Note_on_c, 5, 73, 0
7, 252928, Note_on_c, 5, 78, 38
7, 253184, Note_on_c, 5, 78, 0
7, 253952, Note_on_c, 5, 71, 31
7, 254208, Note_on_c, 5, 71, 0
7, 254976, Note_on_c, 5, 74, 31
7, 255232, Note_on_c, 5, 74, 0
7, 256000, Note_on_c, 5, 66, 38
7, 256256, Note_on_c, 5, 66, 0
7, 257024, Note_on_c, 5, 71, 31
7, 257280, Note_on_c, 5, 71, 0
7, 258048, Note_on_c, 5, 71, 31
7, 258304, Note_on_c, 5, 71, 0
7, 259072, Note_on_c, 5, 69, 36
7, 259328, Note_on_c, 5, 69, 0
7, 260096, Note_on_c, 5, 66, 31
7, 260352, Note_on_c, 5, 66, 0
7, 261120, Note_on_c, 5, 65, 31
7, 261376, Note_on_c, 5, 65, 0
7, 262144, Note_on_c, 5, 66, 40
7, 263168, Note_on_c, 5, 66, 0
7, 263680, Note_on_c, 5, 69, 96
7, 263936, Note_on_c, 5, 69, 0
7, 264192, Note_on_c, 5, 74, 99
7, 264448, Note_on_c, 5, 74, 0
7, 264704, Note_on_c, 5, 76, 103
7, 264960, Note_on_c, 5, 76, 0
7, 265216, Note_on_c, 5, 78, 106
7, 265472, Note_on_c, 5, 78, 0
7, 265728, Note_on_c, 5, 79, 95
7, 265899, Note_on_c, 5, 79, 0
7, 265899, Note_on_c, 5, 78, 95
7, 266069, Note_on_c, 5, 78, 0
7, 266069, Note_on_c, 5, 76, 96
7, 266240, Note_on_c, 5, 76, 0
7, 266240, Note_on_c, 5, 78, 97
7, 266496, Note_on_c, 5, 78, 0
7, 266752, Note_on_c, 5, 83, 100
7, 267008, Note_on_c, 5, 83, 0
7, 267264, Note_on_c, 5, 81, 103
7, 267520, Note_on_c, 5, 81, 0
7, 267776, Note_on_c, 5, 79, 105
7, 268032, Note_on_c, 5, 79, 0
7, 268288, Note_on_c, 5, 78, 108
7, 268544, Note_on_c, 5, 78, 0
7, 268800, Note_on_c, 5, 81, 91
7, 269056, Note_on_c, 5, 81, 0
7, 269312, Note_on_c, 5, 78, 94
7, 269568, Note_on_c, 5, 78, 0
7, 269824, Note_on_c, 5, 74, 97
7, 270080, Note_on_c, 5, 74, 0
7, 270336, Note_on_c, 5, 69, 99
7, 270592, Note_on_c, 5, 69, 0
7, 270848, Note_on_c, 5, 74, 102
7, 271616, Note_on_c, 5, 74, 0
7, 271872, Note_on_c, 5, 76, 95
7, 272128, Note_on_c, 5, 76, 0
7, 272128, Note_on_c, 5, 78, 95
7, 272384, Note_on_c, 5, 78, 0
7, 272384, Note_on_c, 5, 79, 96
7, 272640, Note_on_c, 5, 79, 0
7, 272896, Note_on_c, 5, 81, 98
7, 273152, Note_on_c, 5, 81, 0
7, 273408, Note_on_c, 5, 79, 100
7, 273664, Note_on_c, 5, 79, 0
7, 273664, Note_on_c, 5, 78, 101
7, 273920, Note_on_c, 5, 78, 0
7, 273920, Note_on_c, 5, 76, 102
7, 274176, Note_on_c, 5, 76, 0
7, 274176, Note_on_c, 5, 74, 103
7, 274432, Note_on_c, 5, 74, 0
7, 274432, Note_on_c, 5, 76, 104
7, 274688, Note_on_c, 5, 76, 0
7, 274944, Note_on_c, 5, 69, 92
7, 275200, Note_on_c, 5, 69, 0
7, 275456, Note_on_c, 5, 73, 93
7, 275712, Note_on_c, 5, 73, 0
7, 275968, Note_on_c, 5, 76, 95
7, 276224, Note_on_c, 5, 76, 0
7, 276480, Note_on_c, 5, 81, 96
7, 276736, Note_on_c, 5, 81, 0
7, 276736, Note_on_c, 5, 79, 97
7, 276992, Note_on_c, 5, 79, 0
7, 276992, Note_on_c, 5, 78, 98
7, 277248, Note_on_c, 5, 78, 0
7, 277248, Note_on_c, 5, 76, 98
7, 277504, Note_on_c, 5, 76, 0
7, 277504, Note_on_c, 5, 78, 99
7, 277760, Note_on_c, 5, 78, 0
7, 278016, Note_on_c, 5, 79, 100
7, 278187, Note_on_c, 5, 79, 0
7, 278187, Note_on_c, 5, 78, 101
7, 278357, Note_on_c, 5, 78, 0
7, 278357, Note_on_c, 5, 76, 101
7, 278528, Note_on_c, 5, 76, 0
7, 278528, Note_on_c, 5, 78, 102
7, 278784, Note_on_c, 5, 78, 0
7, 279040, Note_on_c, 5, 79, 103
7, 279296, Note_on_c, 5, 79, 0
7, 279552, Note_on_c, 5, 81, 105
7, 279808, Note_on_c, 5, 81, 0
7, 280064, Note_on_c, 5, 83, 106
7, 280320, Note_on_c, 5, 83, 0
7, 280576, Note_on_c, 5, 76, 108
7, 281600, Note_on_c, 5, 76, 0
7, 297472, Note_on_c, 5, 69, 96
7, 297728, Note_on_c, 5, 69, 0
7, 297984, Note_on_c, 5, 74, 97
7, 298240, Note_on_c, 5, 74, 0
7, 298496, Note_on_c, 5, 76, 99
7, 298752, Note_on_c, 5, 76, 0
7, 299008, Note_on_c, 5, 78, 100
7, 299264, Note_on_c, 5, 78, 0
7, 299520, Note_on_c, 5, 79, 94
7, 299691, Note_on_c, 5, 79, 0
7, 299691, Note_on_c, 5, 78, 94
7, 299861, Note_on_c, 5, 78, 0
7, 299861, Note_on_c, 5, 76, 95
7, 300032, Note_on_c, 5, 76, 0
7, 300032, Note_on_c, 5, 78, 95
7, 300288, Note_on_c, 5, 78, 0
7, 300544, Note_on_c, 5, 79, 96
7, 300800, Note_on_c, 5, 79, 0
7, 301056, Note_on_c, 5, 78, 97
7, 301312, Note_on_c, 5, 78, 0
7, 301568, Note_on_c, 5, 76, 98
7, 301824, Note_on_c, 5, 76, 0
7, 302080, Note_on_c, 5, 74, 99
7, 303104, Note_on_c, 5, 74, 0
7, 303616, Note_on_c, 5, 71, 99
7, 303872, Note_on_c, 5, 71, 0
7, 304128, Note_on_c, 5, 76, 99
7, 304384, Note_on_c, 5, 76, 0
7, 304640, Note_on_c, 5, 78, 99
7, 304896, Note_on_c, 5, 78, 0
7, 305152, Note_on_c, 5, 79, 99
7, 305408, Note_on_c, 5, 79, 0
7, 305664, Note_on_c, 5, 78, 99
7, 305920, Note_on_c, 5, 78, 0
7, 305920, Note_on_c, 5, 76, 99
7, 306176, Note_on_c, 5, 76, 0
7, 306176, Note_on_c, 5, 81, 99
7, 306432, Note_on_c, 5, 81, 0
7, 306688, Note_on_c, 5, 73, 99
7, 306944, Note_on_c, 5, 73, 0
7, 307200, Note_on_c, 5, 74, 98
7, 307456, Note_on_c, 5, 74, 0
7, 307712, Note_on_c, 5, 79, 98
7, 307968, Note_on_c, 5, 79, 0
7, 308224, Note_on_c, 5, 78, 98
7, 308736, Note_on_c, 5, 78, 0
7, 308736, Note_on_c, 5, 76, 98
7, 308992, Note_on_c, 5, 76, 0
7, 309760, Note_on_c, 5, 76, 98
7, 310016, Note_on_c, 5, 76, 0
7, 310272, Note_on_c, 5, 78, 98
7, 310528, Note_on_c, 5, 78, 0
7, 310784, Note_on_c, 5, 81, 98
7, 310912, Note_on_c, 5, 81, 0
7, 310912, Note_on_c, 5, 79, 98
7, 311040, Note_on_c, 5, 79, 0
7, 311040, Note_on_c, 5, 81, 98
7, 311168, Note_on_c, 5, 81, 0
7, 311168, Note_on_c, 5, 79, 98
7, 311296, Note_on_c, 5, 79, 0
7, 311296, Note_on_c, 5, 81, 98
7, 311552, Note_on_c, 5, 81, 0
7, 313856, Note_on_c, 5, 83, 97
7, 314112, Note_on_c, 5, 83, 0
7, 314112, Note_on_c, 5, 81, 97
7, 314368, Note_on_c, 5, 81, 0
7, 314368, Note_on_c, 5, 79, 97
7, 314624, Note_on_c, 5, 79, 0
7, 316928, Note_on_c, 5, 81, 96
7, 317184, Note_on_c, 5, 81, 0
7, 317184, Note_on_c, 5, 79, 96
7, 317440, Note_on_c, 5, 79, 0
7, 317440, Note_on_c, 5, 78, 96
7, 317696, Note_on_c, 5, 78, 0
7, 320000, Note_on_c, 5, 79, 96
7, 320256, Note_on_c, 5, 79, 0
7, 320256, Note_on_c, 5, 78, 96
7, 320512, Note_on_c, 5, 78, 0
7, 320512, Note_on_c, 5, 76, 67
7, 320512, Note_on_c, 5, 71, 67
7, 320768, Note_on_c, 5, 76, 0
7, 320768, Note_on_c, 5, 71, 0
7, 321024, Note_on_c, 5, 64, 69
7, 321024, Note_on_c, 5, 59, 69
7, 321280, Note_on_c, 5, 64, 0
7, 321280, Note_on_c, 5, 59, 0
7, 321536, Note_on_c, 5, 68, 72
7, 321536, Note_on_c, 5, 64, 72
7, 321792, Note_on_c, 5, 68, 0
7, 321792, Note_on_c, 5, 64, 0
7, 322048, Note_on_c, 5, 71, 75
7, 322048, Note_on_c, 5, 68, 75
7, 322304, Note_on_c, 5, 71, 0
7, 322304, Note_on_c, 5, 68, 0
7, 322560, Note_on_c, 5, 76, 77
7, 322560, Note_on_c, 5, 71, 77
7, 322816, Note_on_c, 5, 71, 0
7, 323072, Note_on_c, 5, 64, 80
7, 323328, Note_on_c, 5, 64, 0
7, 323584, Note_on_c, 5, 69, 83
7, 323840, Note_on_c, 5, 76, 0
7, 323840, Note_on_c, 5, 69, 0
7, 324096, Note_on_c, 5, 69, 59
7, 324096, Note_on_c, 5, 64, 59
7, 324352, Note_on_c, 5, 69, 0
7, 324352, Note_on_c, 5, 64, 0
7, 324608, Note_on_c, 5, 73, 63
7, 324608, Note_on_c, 5, 69, 63
7, 324864, Note_on_c, 5, 73, 0
7, 324864, Note_on_c, 5, 69, 0
7, 325120, Note_on_c, 5, 76, 66
7, 325120, Note_on_c, 5, 73, 66
7, 325376, Note_on_c, 5, 76, 0
7, 325376, Note_on_c, 5, 73, 0
7, 325632, Note_on_c, 5, 79, 70
7, 325632, Note_on_c, 5, 76, 70
7, 325888, Note_on_c, 5, 79, 0
7, 326144, Note_on_c, 5, 76, 74
7, 326400, Note_on_c, 5, 76, 0
7, 326656, Note_on_c, 5, 78, 78
7, 326912, Note_on_c, 5, 78, 0
7, 326912, Note_on_c, 5, 76, 0
7, 327168, Note_on_c, 5, 66, 73
7, 327168, Note_on_c, 5, 61, 73
7, 327424, Note_on_c, 5, 66, 0
7, 327424, Note_on_c, 5, 61, 0
7, 327680, Note_on_c, 5, 70, 76
7, 327680, Note_on_c, 5, 66, 76
7, 327936, Note_on_c, 5, 70, 0
7, 327936, Note_on_c, 5, 66, 0
7, 328192, Note_on_c, 5, 73, 79
7, 328192, Note_on_c, 5, 70, 79
7, 328448, Note_on_c, 5, 73, 0
7, 328448, Note_on_c, 5, 70, 0
7, 328704, Note_on_c, 5, 78, 82
7, 328704, Note_on_c, 5, 73, 82
7, 328960, Note_on_c, 5, 73, 0
7, 329216, Note_on_c, 5, 66, 85
7, 329472, Note_on_c, 5, 66, 0
7, 329984, Note_on_c, 5, 78, 0
7, 330240, Note_on_c, 5, 71, 80
7, 330496, Note_on_c, 5, 71, 0
7, 330752, Note_on_c, 5, 75, 84
7, 331008, Note_on_c, 5, 75, 0
7, 331264, Note_on_c, 5, 78, 88
7, 331520, Note_on_c, 5, 78, 0
7, 331776, Note_on_c, 5, 81, 92
7, 332032, Note_on_c, 5, 81, 0
7, 332288, Note_on_c, 5, 78, 96
7, 332544, Note_on_c, 5, 78, 0
7, 332800, Note_on_c, 5, 79, 100
7, 333056, Note_on_c, 5, 79, 0
7, 333312, Note_on_c, 5, 81, 99
7, 333568, Note_on_c, 5, 81, 0
7, 333568, Note_on_c, 5, 79, 100
7, 333824, Note_on_c, 5, 79, 0
7, 333824, Note_on_c, 5, 78, 100
7, 334080, Note_on_c, 5, 78, 0
7, 334336, Note_on_c, 5, 83, 101
7, 334592, Note_on_c, 5, 83, 0
7, 334848, Note_on_c, 5, 81, 102
7, 335104, Note_on_c, 5, 81, 0
7, 335104, Note_on_c, 5, 79, 103
7, 335360, Note_on_c, 5, 79, 0
7, 335360, Note_on_c, 5, 78, 104
7, 335616, Note_on_c, 5, 78, 0
7, 335616, Note_on_c, 5, 76, 104
7, 335872, Note_on_c, 5, 76, 0
7, 335872, Note_on_c, 5, 74, 105
7, 336128, Note_on_c, 5, 74, 0
7, 336128, Note_on_c, 5, 76, 105
7, 336384, Note_on_c, 5, 76, 0
7, 336384, Note_on_c, 5, 78, 106
7, 336640, Note_on_c, 5, 78, 0
7, 336640, Note_on_c, 5, 79, 106
7, 336896, Note_on_c, 5, 79, 0
7, 336896, Note_on_c, 5, 81, 107
7, 337152, Note_on_c, 5, 81, 0
7, 337408, Note_on_c, 5, 74, 108
7, 337664, Note_on_c, 5, 74, 0
7, 337920, Note_on_c, 5, 78, 109
7, 338432, Note_on_c, 5, 78, 0
7, 338432, Note_on_c, 5, 76, 110
7, 338688, Note_on_c, 5, 76, 0
7, 338944, Note_on_c, 5, 74, 111
7, 339968, Note_on_c, 5, 74, 0
7, 340480, Note_on_c, 5, 69, 47
7, 340736, Note_on_c, 5, 69, 0
7, 340736, Note_on_c, 5, 71, 47
7, 340992, Note_on_c, 5, 71, 0
7, 340992, Note_on_c, 5, 69, 47
7, 341248, Note_on_c, 5, 69, 0
7, 341504, Note_on_c, 5, 67, 47
7, 341760, Note_on_c, 5, 67, 0
7, 342016, Note_on_c, 5, 66, 47
7, 342272, Note_on_c, 5, 66, 0
7, 342528, Note_on_c, 5, 64, 47
7, 342784, Note_on_c, 5, 64, 0
7, 343040, Note_on_c, 5, 63, 47
7, 343296, Note_on_c, 5, 63, 0
7, 343552, Note_on_c, 5, 66, 47
7, 343808, Note_on_c, 5, 66, 0
7, 344064, Note_on_c, 5, 59, 47
7, 344320, Note_on_c, 5, 59, 0
7, 344576, Note_on_c, 5, 63, 47
7, 344832, Note_on_c, 5, 63, 0
7, 345088, Note_on_c, 5, 64, 47
7, 345344, Note_on_c, 5, 64, 0
7, 345600, Note_on_c, 5, 71, 47
7, 345856, Note_on_c, 5, 71, 0
7, 346112, Note_on_c, 5, 64, 47
7, 346368, Note_on_c, 5, 64, 0
7, 346624, Note_on_c, 5, 71, 47
7, 346880, Note_on_c, 5, 71, 0
7, 347136, Note_on_c, 5, 63, 47
7, 347392, Note_on_c, 5, 63, 0
7, 347648, Note_on_c, 5, 71, 47
7, 347904, Note_on_c, 5, 71, 0
7, 348160, Note_on_c, 5, 64, 47
7, 348416, Note_on_c, 5, 64, 0
7, 348672, Note_on_c, 5, 76, 47
7, 348928, Note_on_c, 5, 76, 0
7, 348928, Note_on_c, 5, 75, 47
7, 349184, Note_on_c, 5, 75, 0
7, 349184, Note_on_c, 5, 76, 47
7, 349440, Note_on_c, 5, 76, 0
7, 349696, Note_on_c, 5, 71, 47
7, 349952, Note_on_c, 5, 71, 0
7, 350208, Note_on_c, 5, 76, 47
7, 350464, Note_on_c, 5, 76, 0
7, 350720, Note_on_c, 5, 79, 47
7, 350976, Note_on_c, 5, 79, 0
7, 350976, Note_on_c, 5, 78, 47
7, 351232, Note_on_c, 5, 78, 0
7, 351232, Note_on_c, 5, 79, 47
7, 351488, Note_on_c, 5, 79, 0
7, 351744, Note_on_c, 5, 83, 47
7, 352000, Note_on_c, 5, 83, 0
7, 352000, Note_on_c, 5, 81, 47
7, 352256, Note_on_c, 5, 81, 0
7, 352256, Note_on_c, 5, 79, 47
7, 352512, Note_on_c, 5, 79, 0
7, 352768, Note_on_c, 5, 76, 47
7, 353024, Note_on_c, 5, 76, 0
7, 353280, Note_on_c, 5, 73, 47
7, 353536, Note_on_c, 5, 73, 0
7, 353792, Note_on_c, 5, 76, 47
7, 354048, Note_on_c, 5, 76, 0
7, 354304, Note_on_c, 5, 69, 47
7, 354560, Note_on_c, 5, 69, 0
7, 354816, Note_on_c, 5, 64, 47
7, 355072, Note_on_c, 5, 64, 0
7, 355328, Note_on_c, 5, 61, 47
7, 355584, Note_on_c, 5, 61, 0
7, 355840, Note_on_c, 5, 64, 47
7, 356096, Note_on_c, 5, 64, 0
7, 356352, Note_on_c, 5, 57, 47
7, 356608, Note_on_c, 5, 57, 0
7, 356864, Note_on_c, 5, 61, 47
7, 357120, Note_on_c, 5, 61, 0
7, 357376, Note_on_c, 5, 62, 47
7, 357632, Note_on_c, 5, 62, 0
7, 357888, Note_on_c, 5, 69, 47
7, 358144, Note_on_c, 5, 69, 0
7, 358400, Note_on_c, 5, 62, 47
7, 358656, Note_on_c, 5, 62, 0
7, 358912, Note_on_c, 5, 69, 47
7, 359168, Note_on_c, 5, 69, 0
7, 359424, Note_on_c, 5, 61, 47
7, 359680, Note_on_c, 5, 61, 0
7, 359936, Note_on_c, 5, 69, 47
7, 360192, Note_on_c, 5, 69, 0
7, 360448, Note_on_c, 5, 62, 47
7, 360704, Note_on_c, 5, 62, 0
7, 360960, Note_on_c, 5, 74, 47
7, 361216, Note_on_c, 5, 74, 0
7, 361216, Note_on_c, 5, 73, 47
7, 361472, Note_on_c, 5, 73, 0
7, 361472, Note_on_c, 5, 74, 47
7, 361728, Note_on_c, 5, 74, 0
7, 361984, Note_on_c, 5, 69, 47
7, 362240, Note_on_c, 5, 69, 0
7, 362496, Note_on_c, 5, 74, 47
7, 362752, Note_on_c, 5, 74, 0
7, 363008, Note_on_c, 5, 78, 47
7, 363264, Note_on_c, 5, 78, 0
7, 363264, Note_on_c, 5, 76, 47
7, 363520, Note_on_c, 5, 76, 0
7, 363520, Note_on_c, 5, 78, 47
7, 363776, Note_on_c, 5, 78, 0
7, 364032, Note_on_c, 5, 81, 47
7, 364288, Note_on_c, 5, 81, 0
7, 364288, Note_on_c, 5, 79, 47
7, 364544, Note_on_c, 5, 79, 0
7, 364544, Note_on_c, 5, 78, 47
7, 364800, Note_on_c, 5, 78, 0
7, 364800, Note_on_c, 5, 76, 47
7, 365056, Note_on_c, 5, 76, 0
7, 365056, Note_on_c, 5, 78, 47
7, 365312, Note_on_c, 5, 78, 0
7, 365312, Note_on_c, 5, 79, 47
7, 365568, Note_on_c, 5, 79, 0
7, 365568, Note_on_c, 5, 81, 47
7, 365824, Note_on_c, 5, 81, 0
7, 365824, Note_on_c, 5, 83, 47
7, 366080, Note_on_c, 5, 83, 0
7, 366080, Note_on_c, 5, 81, 47
7, 366336, Note_on_c, 5, 81, 0
7, 366336, Note_on_c, 5, 83, 47
7, 366592, Note_on_c, 5, 83, 0
7, 366592, Note_on_c, 5, 81, 47
7, 366848, Note_on_c, 5, 81, 0
7, 366848, Note_on_c, 5, 83, 47
7, 367104, Note_on_c, 5, 83, 0
7, 367104, Note_on_c, 5, 81, 47
7, 367360, Note_on_c, 5, 81, 0
7, 367360, Note_on_c, 5, 83, 47
7, 367616, Note_on_c, 5, 83, 0
7, 367616, Note_on_c, 5, 81, 47
7, 367872, Note_on_c, 5, 81, 0
7, 367872, Note_on_c, 5, 79, 47
7, 368128, Note_on_c, 5, 79, 0
7, 368128, Note_on_c, 5, 78, 47
7, 368384, Note_on_c, 5, 78, 0
7, 368384, Note_on_c, 5, 79, 47
7, 368640, Note_on_c, 5, 79, 0
7, 368640, Note_on_c, 5, 81, 47
7, 368896, Note_on_c, 5, 81, 0
7, 368896, Note_on_c, 5, 79, 47
7, 369152, Note_on_c, 5, 79, 0
7, 369152, Note_on_c, 5, 78, 47
7, 369408, Note_on_c, 5, 78, 0
7, 369408, Note_on_c, 5, 76, 47
7, 369664, Note_on_c, 5, 76, 0
7, 369664, Note_on_c, 5, 74, 48
7, 369920, Note_on_c, 5, 74, 0
7, 369920, Note_on_c, 5, 76, 50
7, 370176, Note_on_c, 5, 76, 0
7, 370176, Note_on_c, 5, 74, 52
7, 370432, Note_on_c, 5, 74, 0
7, 370432, Note_on_c, 5, 73, 54
7, 370688, Note_on_c, 5, 73, 0
7, 370688, Note_on_c, 5, 71, 56
7, 370944, Note_on_c, 5, 71, 0
7, 370944, Note_on_c, 5, 70, 58
7, 371200, Note_on_c, 5, 70, 0
7, 371200, Note_on_c, 5, 71, 60
7, 371456, Note_on_c, 5, 71, 0
7, 371456, Note_on_c, 5, 73, 62
7, 371712, Note_on_c, 5, 73, 0
7, 371712, Note_on_c, 5, 74, 64
7, 371968, Note_on_c, 5, 74, 0
7, 371968, Note_on_c, 5, 76, 67
7, 372224, Note_on_c, 5, 76, 0
7, 372224, Note_on_c, 5, 78, 69
7, 372480, Note_on_c, 5, 78, 0
7, 372480, Note_on_c, 5, 79, 71
7, 372736, Note_on_c, 5, 79, 0
7, 372736, Note_on_c, 5, 81, 73
7, 372992, Note_on_c, 5, 81, 0
7, 375296, Note_on_c, 5, 83, 63
7, 375552, Note_on_c, 5, 83, 0
7, 375552, Note_on_c, 5, 81, 65
7, 375808, Note_on_c, 5, 81, 0
7, 375808, Note_on_c, 5, 79, 66
7, 376064, Note_on_c, 5, 79, 0
7, 378368, Note_on_c, 5, 81, 63
7, 378624, Note_on_c, 5, 81, 0
7, 378624, Note_on_c, 5, 79, 65
7, 378880, Note_on_c, 5, 79, 0
7, 378880, Note_on_c, 5, 78, 66
7, 379136, Note_on_c, 5, 78, 0
7, 381440, Note_on_c, 5, 79, 62
7, 381696, Note_on_c, 5, 79, 0
7, 381696, Note_on_c, 5, 78, 64
7, 381952, Note_on_c, 5, 78, 0
7, 381952, Note_on_c, 5, 76, 35
7, 381952, Note_on_c, 5, 71, 35
7, 382208, Note_on_c, 5, 76, 0
7, 382208, Note_on_c, 5, 71, 0
7, 382464, Note_on_c, 5, 64, 39
7, 382464, Note_on_c, 5, 59, 39
7, 382720, Note_on_c, 5, 64, 0
7, 382720, Note_on_c, 5, 59, 0
7, 382976, Note_on_c, 5, 68, 43
7, 382976, Note_on_c, 5, 64, 43
7, 383232, Note_on_c, 5, 68, 0
7, 383232, Note_on_c, 5, 64, 0
7, 383488, Note_on_c, 5, 71, 47
7, 383488, Note_on_c, 5, 68, 47
7, 383744, Note_on_c, 5, 71, 0
7, 383744, Note_on_c, 5, 68, 0
7, 384000, Note_on_c, 5, 76, 51
7, 384000, Note_on_c, 5, 71, 51
7, 384256, Note_on_c, 5, 71, 0
7, 384512, Note_on_c, 5, 64, 56
7, 384768, Note_on_c, 5, 64, 0
7, 385024, Note_on_c, 5, 69, 60
7, 385280, Note_on_c, 5, 76, 0
7, 385280, Note_on_c, 5, 69, 0
7, 385536, Note_on_c, 5, 69, 47
7, 385536, Note_on_c, 5, 64, 47
7, 385792, Note_on_c, 5, 69, 0
7, 385792, Note_on_c, 5, 64, 0
7, 386048, Note_on_c, 5, 73, 52
7, 386048, Note_on_c, 5, 69, 52
7, 386304, Note_on_c, 5, 73, 0
7, 386304, Note_on_c, 5, 69, 0
7, 386560, Note_on_c, 5, 76, 56
7, 386560, Note_on_c, 5, 73, 56
7, 386816, Note_on_c, 5, 76, 0
7, 386816, Note_on_c, 5, 73, 0
7, 387072, Note_on_c, 5, 79, 60
7, 387072, Note_on_c, 5, 76, 60
7, 387328, Note_on_c, 5, 79, 0
7, 387584, Note_on_c, 5, 76, 65
7, 387840, Note_on_c, 5, 76, 0
7, 388096, Note_on_c, 5, 78, 69
7, 388352, Note_on_c, 5, 78, 0
7, 388352, Note_on_c, 5, 76, 0
7, 388608, Note_on_c, 5, 66, 60
7, 388608, Note_on_c, 5, 61, 60
7, 388864, Note_on_c, 5, 66, 0
7, 388864, Note_on_c, 5, 61, 0
7, 389120, Note_on_c, 5, 70, 65
7, 389120, Note_on_c, 5, 66, 65
7, 389376, Note_on_c, 5, 70, 0
7, 389376, Note_on_c, 5, 66, 0
7, 389632, Note_on_c, 5, 73, 70
7, 389632, Note_on_c, 5, 70, 70
7, 389888, Note_on_c, 5, 73, 0
7, 389888, Note_on_c, 5, 70, 0
7, 390144, Note_on_c, 5, 78, 75
7, 390144, Note_on_c, 5, 73, 75
7, 390400, Note_on_c, 5, 73, 0
7, 390656, Note_on_c, 5, 66, 80
7, 390912, Note_on_c, 5, 66, 0
7, 391424, Note_on_c, 5, 78, 0
7, 391680, Note_on_c, 5, 71, 85
7, 391936, Note_on_c, 5, 71, 0
7, 392192, Note_on_c, 5, 75, 89
7, 392448, Note_on_c, 5, 75, 0
7, 392704, Note_on_c, 5, 78, 93
7, 392960, Note_on_c, 5, 78, 0
7, 393216, Note_on_c, 5, 81, 97
7, 393472, Note_on_c, 5, 81, 0
7, 393728, Note_on_c, 5, 78, 100
7, 393984, Note_on_c, 5, 78, 0
7, 394240, Note_on_c, 5, 79, 104
7, 394496, Note_on_c, 5, 79, 0
7, 394752, Note_on_c, 5, 81, 106
7, 395008, Note_on_c, 5, 81, 0
7, 395008, Note_on_c, 5, 79, 106
7, 395264, Note_on_c, 5, 79, 0
7, 395264, Note_on_c, 5, 78, 107
7, 395520, Note_on_c, 5, 78, 0
7, 395776, Note_on_c, 5, 83, 108
7, 396032, Note_on_c, 5, 83, 0
7, 396288, Note_on_c, 5, 81, 109
7, 396544, Note_on_c, 5, 81, 0
7, 396544, Note_on_c, 5, 79, 109
7, 396800, Note_on_c, 5, 79, 0
7, 396800, Note_on_c, 5, 78, 110
7, 397056, Note_on_c, 5, 78, 0
7, 397056, Note_on_c, 5, 76, 110
7, 397312, Note_on_c, 5, 76, 0
7, 397312, Note_on_c, 5, 74, 111
7, 397568, Note_on_c, 5, 74, 0
7, 397568, Note_on_c, 5, 76, 111
7, 397824, Note_on_c, 5, 76, 0
7, 397824, Note_on_c, 5, 78, 112
7, 398080, Note_on_c, 5, 78, 0
7, 398080, Note_on_c, 5, 79, 112
7, 398336, Note_on_c, 5, 79, 0
7, 398336, Note_on_c, 5, 81, 113
7, 398592, Note_on_c, 5, 81, 0
7, 398848, Note_on_c, 5, 74, 114
7, 399104, Note_on_c, 5, 74, 0
7, 399360, Note_on_c, 5, 69, 115
7, 399616, Note_on_c, 5, 69, 0
7, 399872, Note_on_c, 5, 73, 116
7, 400128, Note_on_c, 5, 73, 0
7, 400384, Note_on_c, 5, 74, 117
7, 403456, Note_on_c, 5, 74, 0
7, 409600, End_track
8, 0, Start_track
8, 0, Title_t, "Violin II"
8, 0, Program_c, 6, 48
8, 0, Control_c, 6, 121, 127
8, 0, Control_c, 6, 91, 127
8, 0, Control_c, 6, 10, 50
8, 0, Control_c, 6, 1, 10
8, 2560, Note_on_c, 6, 66, 95
8, 2816, Note_on_c, 6, 66, 0
8, 3072, Note_on_c, 6, 69, 100
8, 3328, Note_on_c, 6, 69, 0
8, 3584, Note_on_c, 6, 73, 105
8, 3840, Note_on_c, 6, 73, 0
8, 4096, Note_on_c, 6, 74, 110
8, 4608, Note_on_c, 6, 74, 0
8, 4608, Note_on_c, 6, 76, 94
8, 4779, Note_on_c, 6, 76, 0
8, 4779, Note_on_c, 6, 74, 95
8, 4949, Note_on_c, 6, 74, 0
8, 4949, Note_on_c, 6, 73, 96
8, 5120, Note_on_c, 6, 73, 0
8, 5120, Note_on_c, 6, 74, 98
8, 5376, Note_on_c, 6, 74, 0
8, 5632, Note_on_c, 6, 79, 102
8, 5888, Note_on_c, 6, 79, 0
8, 6144, Note_on_c, 6, 78, 106
8, 6400, Note_on_c, 6, 78, 0
8, 6656, Note_on_c, 6, 76, 101
8, 6912, Note_on_c, 6, 76, 0
8, 7168, Note_on_c, 6, 74, 99
8, 7424, Note_on_c, 6, 74, 0
8, 7680, Note_on_c, 6, 78, 98
8, 7936, Note_on_c, 6, 78, 0
8, 8192, Note_on_c, 6, 74, 96
8, 8448, Note_on_c, 6, 74, 0
8, 8704, Note_on_c, 6, 69, 95
8, 8960, Note_on_c, 6, 69, 0
8, 9216, Note_on_c, 6, 66, 94
8, 9472, Note_on_c, 6, 66, 0
8, 9728, Note_on_c, 6, 69, 92
8, 9984, Note_on_c, 6, 69, 0
8, 10240, Note_on_c, 6, 71, 84
8, 10496, Note_on_c, 6, 71, 0
8, 10752, Note_on_c, 6, 73, 86
8, 11008, Note_on_c, 6, 73, 0
8, 11008, Note_on_c, 6, 74, 87
8, 11264, Note_on_c, 6, 74, 0
8, 11264, Note_on_c, 6, 76, 89
8, 11520, Note_on_c, 6, 76, 0
8, 11776, Note_on_c, 6, 76, 91
8, 12032, Note_on_c, 6, 76, 0
8, 12288, Note_on_c, 6, 69, 93
8, 12544, Note_on_c, 6, 69, 0
8, 12800, Note_on_c, 6, 71, 96
8, 13056, Note_on_c, 6, 71, 0
8, 13312, Note_on_c, 6, 73, 98
8, 14336, Note_on_c, 6, 73, 0
8, 14848, Note_on_c, 6, 73, 94
8, 15104, Note_on_c, 6, 73, 0
8, 15360, Note_on_c, 6, 74, 92
8, 15616, Note_on_c, 6, 74, 0
8, 15872, Note_on_c, 6, 73, 89
8, 16128, Note_on_c, 6, 73, 0
8, 16384, Note_on_c, 6, 74, 87
8, 16640, Note_on_c, 6, 74, 0
8, 16896, Note_on_c, 6, 76, 85
8, 17067, Note_on_c, 6, 76, 0
8, 17067, Note_on_c, 6, 74, 80
8, 17237, Note_on_c, 6, 74, 0
8, 17237, Note_on_c, 6, 73, 80
8, 17408, Note_on_c, 6, 73, 0
8, 17408, Note_on_c, 6, 74, 81
8, 17664, Note_on_c, 6, 74, 0
8, 17664, Note_on_c, 6, 76, 82
8, 17920, Note_on_c, 6, 76, 0
8, 17920, Note_on_c, 6, 74, 82
8, 18176, Note_on_c, 6, 74, 0
8, 18176, Note_on_c, 6, 76, 83
8, 18432, Note_on_c, 6, 76, 0
8, 18432, Note_on_c, 6, 74, 84
8, 18688, Note_on_c, 6, 74, 0
8, 18688, Note_on_c, 6, 76, 85
8, 18944, Note_on_c, 6, 76, 0
8, 18944, Note_on_c, 6, 74, 86
8, 19200, Note_on_c, 6, 74, 0
8, 19200, Note_on_c, 6, 76, 86
8, 19456, Note_on_c, 6, 76, 0
8, 19456, Note_on_c, 6, 73, 87
8, 19712, Note_on_c, 6, 73, 0
8, 19712, Note_on_c, 6, 71, 88
8, 19968, Note_on_c, 6, 71, 0
8, 19968, Note_on_c, 6, 73, 89
8, 20224, Note_on_c, 6, 73, 0
8, 20224, Note_on_c, 6, 74, 90
8, 20480, Note_on_c, 6, 74, 0
8, 20480, Note_on_c, 6, 76, 90
8, 20736, Note_on_c, 6, 76, 0
8, 20992, Note_on_c, 6, 81, 92
8, 21248, Note_on_c, 6, 81, 0
8, 21248, Note_on_c, 6, 80, 93
8, 21504, Note_on_c, 6, 80, 0
8, 21504, Note_on_c, 6, 81, 94
8, 21760, Note_on_c, 6, 81, 0
8, 22016, Note_on_c, 6, 76, 95
8, 22272, Note_on_c, 6, 76, 0
8, 22528, Note_on_c, 6, 69, 97
8, 22784, Note_on_c, 6, 69, 0
8, 23040, Note_on_c, 6, 69, 99
8, 23296, Note_on_c, 6, 69, 0
8, 23296, Note_on_c, 6, 71, 99
8, 23552, Note_on_c, 6, 71, 0
8, 23552, Note_on_c, 6, 73, 100
8, 23808, Note_on_c, 6, 73, 0
8, 24064, Note_on_c, 6, 66, 102
8, 24320, Note_on_c, 6, 66, 0
8, 24576, Note_on_c, 6, 68, 103
8, 24832, Note_on_c, 6, 68, 0
8, 25088, Note_on_c, 6, 64, 105
8, 25344, Note_on_c, 6, 64, 0
8, 25600, Note_on_c, 6, 64, 107
8, 26624, Note_on_c, 6, 64, 0
8, 29184, Note_on_c, 6, 57, 36
8, 29440, Note_on_c, 6, 57, 0
8, 29696, Note_on_c, 6, 57, 37
8, 29952, Note_on_c, 6, 57, 0
8, 30208, Note_on_c, 6, 57, 39
8, 30464, Note_on_c, 6, 57, 0
8, 30720, Note_on_c, 6, 57, 40
8, 30976, Note_on_c, 6, 57, 0
8, 31232, Note_on_c, 6, 57, 41
8, 31488, Note_on_c, 6, 57, 0
8, 32256, Note_on_c, 6, 62, 44
8, 32512, Note_on_c, 6, 62, 0
8, 32768, Note_on_c, 6, 62, 46
8, 33024, Note_on_c, 6, 62, 0
8, 33280, Note_on_c, 6, 62, 47
8, 33536, Note_on_c, 6, 62, 0
8, 33792, Note_on_c, 6, 62, 48
8, 34048, Note_on_c, 6, 62, 0
8, 34304, Note_on_c, 6, 62, 50
8, 34560, Note_on_c, 6, 62, 0
8, 35328, Note_on_c, 6, 61, 52
8, 35584, Note_on_c, 6, 61, 0
8, 35840, Note_on_c, 6, 61, 54
8, 36096, Note_on_c, 6, 61, 0
8, 36352, Note_on_c, 6, 61, 55
8, 36608, Note_on_c, 6, 61, 0
8, 36864, Note_on_c, 6, 61, 56
8, 37120, Note_on_c, 6, 61, 0
8, 37376, Note_on_c, 6, 61, 58
8, 37632, Note_on_c, 6, 61, 0
8, 38400, Note_on_c, 6, 64, 61
8, 38656, Note_on_c, 6, 64, 0
8, 38912, Note_on_c, 6, 64, 62
8, 39168, Note_on_c, 6, 64, 0
8, 39424, Note_on_c, 6, 64, 63
8, 39680, Note_on_c, 6, 64, 0
8, 39936, Note_on_c, 6, 64, 65
8, 40192, Note_on_c, 6, 64, 0
8, 40448, Note_on_c, 6, 64, 66
8, 40704, Note_on_c, 6, 64, 0
8, 41472, Note_on_c, 6, 62, 69
8, 41728, Note_on_c, 6, 62, 0
8, 41984, Note_on_c, 6, 62, 70
8, 42240, Note_on_c, 6, 62, 0
8, 42496, Note_on_c, 6, 66, 72
8, 42752, Note_on_c, 6, 66, 0
8, 43008, Note_on_c, 6, 69, 99
8, 43264, Note_on_c, 6, 69, 0
8, 43520, Note_on_c, 6, 73, 102
8, 43776, Note_on_c, 6, 73, 0
8, 44032, Note_on_c, 6, 74, 106
8, 44544, Note_on_c, 6, 74, 0
8, 44544, Note_on_c, 6, 76, 109
8, 44715, Note_on_c, 6, 76, 0
8, 44715, Note_on_c, 6, 74, 110
8, 44885, Note_on_c, 6, 74, 0
8, 44885, Note_on_c, 6, 73, 108
8, 45056, Note_on_c, 6, 73, 0
8, 45056, Note_on_c, 6, 74, 108
8, 45312, Note_on_c, 6, 74, 0
8, 45568, Note_on_c, 6, 74, 107
8, 45824, Note_on_c, 6, 74, 0
8, 46080, Note_on_c, 6, 74, 106
8, 46336, Note_on_c, 6, 74, 0
8, 46592, Note_on_c, 6, 73, 106
8, 46848, Note_on_c, 6, 73, 0
8, 47104, Note_on_c, 6, 74, 105
8, 47360, Note_on_c, 6, 74, 0
8, 48128, Note_on_c, 6, 69, 98
8, 48384, Note_on_c, 6, 69, 0
8, 49152, Note_on_c, 6, 74, 99
8, 49408, Note_on_c, 6, 74, 0
8, 50176, Note_on_c, 6, 78, 99
8, 50432, Note_on_c, 6, 78, 0
8, 51712, Note_on_c, 6, 78, 79
8, 51968, Note_on_c, 6, 78, 0
8, 51968, Note_on_c, 6, 76, 80
8, 52224, Note_on_c, 6, 76, 0
8, 52224, Note_on_c, 6, 78, 81
8, 52480, Note_on_c, 6, 78, 0
8, 52736, Note_on_c, 6, 69, 83
8, 53504, Note_on_c, 6, 69, 0
8, 53760, Note_on_c, 6, 67, 86
8, 54016, Note_on_c, 6, 67, 0
8, 56576, Note_on_c, 6, 64, 95
8, 56832, Note_on_c, 6, 64, 0
8, 56832, Note_on_c, 6, 66, 96
8, 57088, Note_on_c, 6, 66, 0
8, 57088, Note_on_c, 6, 67, 97
8, 57344, Note_on_c, 6, 67, 0
8, 57344, Note_on_c, 6, 69, 98
8, 57600, Note_on_c, 6, 69, 0
8, 57856, Note_on_c, 6, 67, 100
8, 58112, Note_on_c, 6, 67, 0
8, 58368, Note_on_c, 6, 66, 101
8, 58624, Note_on_c, 6, 66, 0
8, 58880, Note_on_c, 6, 69, 103
8, 59136, Note_on_c, 6, 69, 0
8, 59392, Note_on_c, 6, 69, 105
8, 60416, Note_on_c, 6, 69, 0
8, 60928, Note_on_c, 6, 64, 82
8, 61184, Note_on_c, 6, 64, 0
8, 61440, Note_on_c, 6, 64, 82
8, 61696, Note_on_c, 6, 64, 0
8, 61952, Note_on_c, 6, 68, 82
8, 62208, Note_on_c, 6, 68, 0
8, 62464, Note_on_c, 6, 69, 82
8, 62976, Note_on_c, 6, 69, 0
8, 62976, Note_on_c, 6, 71, 82
8, 63147, Note_on_c, 6, 71, 0
8, 63147, Note_on_c, 6, 69, 82
8, 63317, Note_on_c, 6, 69, 0
8, 63317, Note_on_c, 6, 68, 82
8, 63488, Note_on_c, 6, 68, 0
8, 63488, Note_on_c, 6, 69, 82
8, 63744, Note_on_c, 6, 69, 0
8, 64000, Note_on_c, 6, 68, 82
8, 64256, Note_on_c, 6, 68, 0
8, 64512, Note_on_c, 6, 69, 82
8, 64768, Note_on_c, 6, 69, 0
8, 65024, Note_on_c, 6, 65, 83
8, 65280, Note_on_c, 6, 65, 0
8, 65536, Note_on_c, 6, 66, 83
8, 65792, Note_on_c, 6, 66, 0
8, 65792, Note_on_c, 6, 65, 83
8, 66048, Note_on_c, 6, 65, 0
8, 66048, Note_on_c, 6, 66, 83
8, 66304, Note_on_c, 6, 66, 0
8, 67072, Note_on_c, 6, 61, 83
8, 67328, Note_on_c, 6, 61, 0
8, 67584, Note_on_c, 6, 66, 83
8, 67840, Note_on_c, 6, 66, 0
8, 68096, Note_on_c, 6, 66, 83
8, 68352, Note_on_c, 6, 66, 0
8, 68608, Note_on_c, 6, 66, 83
8, 68864, Note_on_c, 6, 66, 0
8, 69120, Note_on_c, 6, 68, 80
8, 69376, Note_on_c, 6, 68, 0
8, 69632, Note_on_c, 6, 69, 79
8, 69888, Note_on_c, 6, 69, 0
8, 70144, Note_on_c, 6, 71, 78
8, 70400, Note_on_c, 6, 71, 0
8, 70656, Note_on_c, 6, 64, 77
8, 70912, Note_on_c, 6, 64, 0
8, 71168, Note_on_c, 6, 69, 75
8, 71424, Note_on_c, 6, 69, 0
8, 71680, Note_on_c, 6, 69, 74
8, 72192, Note_on_c, 6, 69, 0
8, 72192, Note_on_c, 6, 68, 73
8, 72448, Note_on_c, 6, 68, 0
8, 73216, Note_on_c, 6, 68, 64
8, 73472, Note_on_c, 6, 68, 0
8, 73728, Note_on_c, 6, 70, 64
8, 73984, Note_on_c, 6, 70, 0
8, 74240, Note_on_c, 6, 71, 64
8, 74496, Note_on_c, 6, 71, 0
8, 74752, Note_on_c, 6, 73, 64
8, 75008, Note_on_c, 6, 73, 0
8, 77312, Note_on_c, 6, 74, 64
8, 77568, Note_on_c, 6, 74, 0
8, 77568, Note_on_c, 6, 73, 64
8, 77824, Note_on_c, 6, 73, 0
8, 77824, Note_on_c, 6, 71, 61
8, 78080, Note_on_c, 6, 71, 0
8, 80384, Note_on_c, 6, 73, 55
8, 80640, Note_on_c, 6, 73, 0
8, 80640, Note_on_c, 6, 71, 55
8, 80896, Note_on_c, 6, 71, 0
8, 80896, Note_on_c, 6, 69, 54
8, 81152, Note_on_c, 6, 69, 0
8, 83456, Note_on_c, 6, 69, 48
8, 83712, Note_on_c, 6, 69, 0
8, 83968, Note_on_c, 6, 66, 60
8, 84224, Note_on_c, 6, 66, 0
8, 84480, Note_on_c, 6, 66, 42
8, 84736, Note_on_c, 6, 66, 0
8, 84992, Note_on_c, 6, 59, 45
8, 85248, Note_on_c, 6, 59, 0
8, 85504, Note_on_c, 6, 63, 49
8, 85760, Note_on_c, 6, 63, 0
8, 86016, Note_on_c, 6, 66, 52
8, 86272, Note_on_c, 6, 66, 0
8, 86528, Note_on_c, 6, 59, 55
8, 86784, Note_on_c, 6, 59, 0
8, 87040, Note_on_c, 6, 64, 69
8, 87296, Note_on_c, 6, 64, 0
8, 87552, Note_on_c, 6, 59, 47
8, 87808, Note_on_c, 6, 59, 0
8, 88064, Note_on_c, 6, 64, 52
8, 88320, Note_on_c, 6, 64, 0
8, 88576, Note_on_c, 6, 68, 57
8, 88832, Note_on_c, 6, 68, 0
8, 89088, Note_on_c, 6, 71, 62
8, 90368, Note_on_c, 6, 71, 0
8, 90624, Note_on_c, 6, 56, 54
8, 90880, Note_on_c, 6, 56, 0
8, 91136, Note_on_c, 6, 61, 59
8, 91392, Note_on_c, 6, 61, 0
8, 91648, Note_on_c, 6, 65, 64
8, 91904, Note_on_c, 6, 65, 0
8, 92160, Note_on_c, 6, 68, 70
8, 92416, Note_on_c, 6, 68, 0
8, 92672, Note_on_c, 6, 61, 75
8, 92928, Note_on_c, 6, 61, 0
8, 93184, Note_on_c, 6, 66, 80
8, 93440, Note_on_c, 6, 66, 0
8, 93696, Note_on_c, 6, 61, 64
8, 93952, Note_on_c, 6, 61, 0
8, 94208, Note_on_c, 6, 66, 69
8, 94464, Note_on_c, 6, 66, 0
8, 94720, Note_on_c, 6, 70, 75
8, 94976, Note_on_c, 6, 70, 0
8, 95232, Note_on_c, 6, 73, 80
8, 95488, Note_on_c, 6, 73, 0
8, 95744, Note_on_c, 6, 70, 85
8, 96000, Note_on_c, 6, 70, 0
8, 96256, Note_on_c, 6, 71, 91
8, 96512, Note_on_c, 6, 71, 0
8, 96768, Note_on_c, 6, 71, 90
8, 97024, Note_on_c, 6, 71, 0
8, 97280, Note_on_c, 6, 69, 92
8, 97536, Note_on_c, 6, 69, 0
8, 97792, Note_on_c, 6, 68, 94
8, 98048, Note_on_c, 6, 68, 0
8, 98304, Note_on_c, 6, 69, 97
8, 98816, Note_on_c, 6, 69, 0
8, 98816, Note_on_c, 6, 64, 99
8, 99072, Note_on_c, 6, 64, 0
8, 99328, Note_on_c, 6, 61, 101
8, 99584, Note_on_c, 6, 61, 0
8, 103936, Note_on_c, 6, 61, 40
8, 104192, Note_on_c, 6, 61, 0
8, 104448, Note_on_c, 6, 64, 45
8, 104704, Note_on_c, 6, 64, 0
8, 104960, Note_on_c, 6, 68, 50
8, 105216, Note_on_c, 6, 68, 0
8, 105472, Note_on_c, 6, 69, 55
8, 105984, Note_on_c, 6, 69, 0
8, 105984, Note_on_c, 6, 71, 55
8, 106155, Note_on_c, 6, 71, 0
8, 106155, Note_on_c, 6, 69, 55
8, 106325, Note_on_c, 6, 69, 0
8, 106325, Note_on_c, 6, 68, 55
8, 106496, Note_on_c, 6, 68, 0
8, 106496, Note_on_c, 6, 69, 55
8, 106752, Note_on_c, 6, 69, 0
8, 107008, Note_on_c, 6, 74, 56
8, 107264, Note_on_c, 6, 74, 0
8, 107520, Note_on_c, 6, 73, 57
8, 107776, Note_on_c, 6, 73, 0
8, 108032, Note_on_c, 6, 71, 57
8, 108288, Note_on_c, 6, 71, 0
8, 108544, Note_on_c, 6, 69, 58
8, 108800, Note_on_c, 6, 69, 0
8, 109056, Note_on_c, 6, 73, 58
8, 109312, Note_on_c, 6, 73, 0
8, 109568, Note_on_c, 6, 69, 59
8, 109824, Note_on_c, 6, 69, 0
8, 110080, Note_on_c, 6, 64, 59
8, 110336, Note_on_c, 6, 64, 0
8, 110592, Note_on_c, 6, 61, 60
8, 110848, Note_on_c, 6, 61, 0
8, 111104, Note_on_c, 6, 64, 61
8, 111360, Note_on_c, 6, 64, 0
8, 111616, Note_on_c, 6, 66, 61
8, 111872, Note_on_c, 6, 66, 0
8, 112128, Note_on_c, 6, 68, 61
8, 112384, Note_on_c, 6, 68, 0
8, 112384, Note_on_c, 6, 69, 60
8, 112640, Note_on_c, 6, 69, 0
8, 112640, Note_on_c, 6, 71, 60
8, 112896, Note_on_c, 6, 71, 0
8, 113152, Note_on_c, 6, 71, 59
8, 113408, Note_on_c, 6, 71, 0
8, 113664, Note_on_c, 6, 64, 58
8, 113920, Note_on_c, 6, 64, 0
8, 114176, Note_on_c, 6, 66, 57
8, 114432, Note_on_c, 6, 66, 0
8, 114688, Note_on_c, 6, 68, 56
8, 115712, Note_on_c, 6, 68, 0
8, 116224, Note_on_c, 6, 68, 54
8, 116480, Note_on_c, 6, 68, 0
8, 116736, Note_on_c, 6, 73, 55
8, 116992, Note_on_c, 6, 73, 0
8, 116992, Note_on_c, 6, 71, 55
8, 117248, Note_on_c, 6, 71, 0
8, 117248, Note_on_c, 6, 69, 56
8, 117504, Note_on_c, 6, 69, 0
8, 117504, Note_on_c, 6, 68, 56
8, 117760, Note_on_c, 6, 68, 0
8, 117760, Note_on_c, 6, 69, 57
8, 118016, Note_on_c, 6, 69, 0
8, 118272, Note_on_c, 6, 71, 57
8, 118443, Note_on_c, 6, 71, 0
8, 118443, Note_on_c, 6, 69, 58
8, 118613, Note_on_c, 6, 69, 0
8, 118613, Note_on_c, 6, 68, 58
8, 118784, Note_on_c, 6, 68, 0
8, 118784, Note_on_c, 6, 69, 58
8, 119040, Note_on_c, 6, 69, 0
8, 119040, Note_on_c, 6, 71, 59
8, 119296, Note_on_c, 6, 71, 0
8, 119296, Note_on_c, 6, 69, 59
8, 119552, Note_on_c, 6, 69, 0
8, 119552, Note_on_c, 6, 71, 59
8, 119808, Note_on_c, 6, 71, 0
8, 119808, Note_on_c, 6, 69, 60
8, 120064, Note_on_c, 6, 69, 0
8, 120064, Note_on_c, 6, 71, 60
8, 120320, Note_on_c, 6, 71, 0
8, 120320, Note_on_c, 6, 69, 60
8, 120576, Note_on_c, 6, 69, 0
8, 120576, Note_on_c, 6, 71, 61
8, 120832, Note_on_c, 6, 71, 0
8, 120832, Note_on_c, 6, 68, 61
8, 121856, Note_on_c, 6, 68, 0
8, 122368, Note_on_c, 6, 64, 47
8, 122624, Note_on_c, 6, 64, 0
8, 122624, Note_on_c, 6, 66, 48
8, 122880, Note_on_c, 6, 66, 0
8, 122880, Note_on_c, 6, 64, 50
8, 123136, Note_on_c, 6, 64, 0
8, 123392, Note_on_c, 6, 62, 52
8, 123648, Note_on_c, 6, 62, 0
8, 123904, Note_on_c, 6, 61, 55
8, 124160, Note_on_c, 6, 61, 0
8, 124416, Note_on_c, 6, 59, 47
8, 124672, Note_on_c, 6, 59, 0
8, 124928, Note_on_c, 6, 58, 48
8, 125184, Note_on_c, 6, 58, 0
8, 125440, Note_on_c, 6, 61, 50
8, 125696, Note_on_c, 6, 61, 0
8, 125952, Note_on_c, 6, 66, 51
8, 126208, Note_on_c, 6, 66, 0
8, 126464, Note_on_c, 6, 58, 52
8, 126720, Note_on_c, 6, 58, 0
8, 126976, Note_on_c, 6, 59, 54
8, 127232, Note_on_c, 6, 59, 0
8, 127488, Note_on_c, 6, 66, 46
8, 127744, Note_on_c, 6, 66, 0
8, 128000, Note_on_c, 6, 59, 49
8, 128256, Note_on_c, 6, 59, 0
8, 128512, Note_on_c, 6, 66, 51
8, 128768, Note_on_c, 6, 66, 0
8, 129024, Note_on_c, 6, 58, 53
8, 129280, Note_on_c, 6, 58, 0
8, 129536, Note_on_c, 6, 66, 56
8, 129792, Note_on_c, 6, 66, 0
8, 130048, Note_on_c, 6, 59, 58
8, 130304, Note_on_c, 6, 59, 0
8, 130560, Note_on_c, 6, 66, 60
8, 130816, Note_on_c, 6, 66, 0
8, 131072, Note_on_c, 6, 59, 62
8, 131328, Note_on_c, 6, 59, 0
8, 131584, Note_on_c, 6, 62, 65
8, 131840, Note_on_c, 6, 62, 0
8, 132096, Note_on_c, 6, 66, 64
8, 132352, Note_on_c, 6, 66, 0
8, 132608, Note_on_c, 6, 70, 64
8, 132864, Note_on_c, 6, 70, 0
8, 133120, Note_on_c, 6, 71, 64
8, 133376, Note_on_c, 6, 71, 0
8, 133632, Note_on_c, 6, 71, 57
8, 133888, Note_on_c, 6, 71, 0
8, 133888, Note_on_c, 6, 70, 55
8, 134144, Note_on_c, 6, 70, 0
8, 134144, Note_on_c, 6, 71, 53
8, 134400, Note_on_c, 6, 71, 0
8, 134656, Note_on_c, 6, 71, 44
8, 134912, Note_on_c, 6, 71, 0
8, 135168, Note_on_c, 6, 68, 47
8, 135424, Note_on_c, 6, 68, 0
8, 135680, Note_on_c, 6, 71, 50
8, 135936, Note_on_c, 6, 71, 0
8, 136192, Note_on_c, 6, 59, 53
8, 136448, Note_on_c, 6, 59, 0
8, 136704, Note_on_c, 6, 57, 46
8, 136960, Note_on_c, 6, 57, 0
8, 137216, Note_on_c, 6, 56, 47
8, 137472, Note_on_c, 6, 56, 0
8, 137728, Note_on_c, 6, 59, 48
8, 137984, Note_on_c, 6, 59, 0
8, 138240, Note_on_c, 6, 64, 49
8, 138496, Note_on_c, 6, 64, 0
8, 138752, Note_on_c, 6, 56, 50
8, 139008, Note_on_c, 6, 56, 0
8, 139264, Note_on_c, 6, 57, 52
8, 139520, Note_on_c, 6, 57, 0
8, 139776, Note_on_c, 6, 64, 53
8, 140032, Note_on_c, 6, 64, 0
8, 140288, Note_on_c, 6, 57, 54
8, 140544, Note_on_c, 6, 57, 0
8, 140800, Note_on_c, 6, 64, 55
8, 141056, Note_on_c, 6, 64, 0
8, 141312, Note_on_c, 6, 56, 57
8, 141568, Note_on_c, 6, 56, 0
8, 141824, Note_on_c, 6, 64, 58
8, 142080, Note_on_c, 6, 64, 0
8, 142336, Note_on_c, 6, 57, 59
8, 142592, Note_on_c, 6, 57, 0
8, 142848, Note_on_c, 6, 64, 60
8, 143104, Note_on_c, 6, 64, 0
8, 143360, Note_on_c, 6, 57, 61
8, 143616, Note_on_c, 6, 57, 0
8, 143872, Note_on_c, 6, 61, 63
8, 144128, Note_on_c, 6, 61, 0
8, 144384, Note_on_c, 6, 64, 64
8, 144640, Note_on_c, 6, 64, 0
8, 144896, Note_on_c, 6, 68, 67
8, 145152, Note_on_c, 6, 68, 0
8, 145408, Note_on_c, 6, 69, 70
8, 145664, Note_on_c, 6, 69, 0
8, 145920, Note_on_c, 6, 69, 74
8, 146176, Note_on_c, 6, 69, 0
8, 146176, Note_on_c, 6, 68, 76
8, 146432, Note_on_c, 6, 68, 0
8, 146432, Note_on_c, 6, 69, 78
8, 146688, Note_on_c, 6, 69, 0
8, 146944, Note_on_c, 6, 69, 81
8, 147200, Note_on_c, 6, 69, 0
8, 147456, Note_on_c, 6, 73, 85
8, 147712, Note_on_c, 6, 73, 0
8, 147968, Note_on_c, 6, 68, 89
8, 148224, Note_on_c, 6, 68, 0
8, 148480, Note_on_c, 6, 69, 92
8, 148736, Note_on_c, 6, 69, 0
8, 148992, Note_on_c, 6, 69, 96
8, 149248, Note_on_c, 6, 69, 0
8, 149248, Note_on_c, 6, 71, 98
8, 149504, Note_on_c, 6, 71, 0
8, 149504, Note_on_c, 6, 73, 98
8, 149760, Note_on_c, 6, 73, 0
8, 150016, Note_on_c, 6, 66, 99
8, 150272, Note_on_c, 6, 66, 0
8, 150528, Note_on_c, 6, 68, 100
8, 150784, Note_on_c, 6, 68, 0
8, 151040, Note_on_c, 6, 64, 102
8, 151296, Note_on_c, 6, 64, 0
8, 151552, Note_on_c, 6, 64, 103
8, 153088, Note_on_c, 6, 64, 0
8, 165376, Note_on_c, 6, 66, 50
8, 165632, Note_on_c, 6, 66, 0
8, 165888, Note_on_c, 6, 66, 58
8, 166144, Note_on_c, 6, 66, 0
8, 166400, Note_on_c, 6, 64, 66
8, 166656, Note_on_c, 6, 64, 0
8, 166912, Note_on_c, 6, 62, 74
8, 167168, Note_on_c, 6, 62, 0
8, 167424, Note_on_c, 6, 66, 68
8, 167680, Note_on_c, 6, 66, 0
8, 167936, Note_on_c, 6, 71, 68
8, 168192, Note_on_c, 6, 71, 0
8, 168448, Note_on_c, 6, 71, 69
8, 168704, Note_on_c, 6, 71, 0
8, 168960, Note_on_c, 6, 70, 69
8, 169472, Note_on_c, 6, 70, 0
8, 169472, Note_on_c, 6, 73, 70
8, 169728, Note_on_c, 6, 73, 0
8, 169984, Note_on_c, 6, 71, 71
8, 170240, Note_on_c, 6, 71, 0
8, 170240, Note_on_c, 6, 73, 71
8, 170496, Note_on_c, 6, 73, 0
8, 170496, Note_on_c, 6, 74, 71
8, 170752, Note_on_c, 6, 74, 0
8, 170752, Note_on_c, 6, 76, 72
8, 171008, Note_on_c, 6, 76, 0
8, 171008, Note_on_c, 6, 78, 72
8, 171264, Note_on_c, 6, 78, 0
8, 171520, Note_on_c, 6, 78, 72
8, 171776, Note_on_c, 6, 78, 0
8, 172032, Note_on_c, 6, 71, 73
8, 172288, Note_on_c, 6, 71, 0
8, 172544, Note_on_c, 6, 71, 74
8, 172800, Note_on_c, 6, 71, 0
8, 173056, Note_on_c, 6, 73, 74
8, 173312, Note_on_c, 6, 73, 0
8, 175616, Note_on_c, 6, 79, 69
8, 175872, Note_on_c, 6, 79, 0
8, 175872, Note_on_c, 6, 78, 71
8, 176128, Note_on_c, 6, 78, 0
8, 176128, Note_on_c, 6, 76, 73
8, 176384, Note_on_c, 6, 76, 0
8, 178688, Note_on_c, 6, 78, 66
8, 178944, Note_on_c, 6, 78, 0
8, 178944, Note_on_c, 6, 76, 68
8, 179200, Note_on_c, 6, 76, 0
8, 179200, Note_on_c, 6, 74, 69
8, 179456, Note_on_c, 6, 74, 0
8, 181760, Note_on_c, 6, 74, 69
8, 182016, Note_on_c, 6, 74, 0
8, 182272, Note_on_c, 6, 71, 72
8, 182528, Note_on_c, 6, 71, 0
8, 182784, Note_on_c, 6, 59, 38
8, 183040, Note_on_c, 6, 59, 0
8, 183296, Note_on_c, 6, 64, 42
8, 183552, Note_on_c, 6, 64, 0
8, 183808, Note_on_c, 6, 68, 46
8, 184064, Note_on_c, 6, 68, 0
8, 184320, Note_on_c, 6, 71, 50
8, 184576, Note_on_c, 6, 71, 0
8, 184832, Note_on_c, 6, 64, 54
8, 185088, Note_on_c, 6, 64, 0
8, 185344, Note_on_c, 6, 69, 58
8, 185600, Note_on_c, 6, 69, 0
8, 185856, Note_on_c, 6, 76, 46
8, 186112, Note_on_c, 6, 76, 0
8, 186368, Note_on_c, 6, 73, 50
8, 186624, Note_on_c, 6, 73, 0
8, 186880, Note_on_c, 6, 69, 54
8, 187136, Note_on_c, 6, 69, 0
8, 187392, Note_on_c, 6, 64, 58
8, 187648, Note_on_c, 6, 64, 0
8, 188928, Note_on_c, 6, 61, 53
8, 189184, Note_on_c, 6, 61, 0
8, 189440, Note_on_c, 6, 66, 57
8, 189696, Note_on_c, 6, 66, 0
8, 189952, Note_on_c, 6, 70, 62
8, 190208, Note_on_c, 6, 70, 0
8, 190464, Note_on_c, 6, 73, 66
8, 190720, Note_on_c, 6, 73, 0
8, 190976, Note_on_c, 6, 66, 71
8, 191232, Note_on_c, 6, 66, 0
8, 191488, Note_on_c, 6, 71, 75
8, 191744, Note_on_c, 6, 71, 0
8, 192000, Note_on_c, 6, 78, 59
8, 192256, Note_on_c, 6, 78, 0
8, 192512, Note_on_c, 6, 75, 64
8, 192768, Note_on_c, 6, 75, 0
8, 193024, Note_on_c, 6, 71, 69
8, 193280, Note_on_c, 6, 71, 0
8, 193536, Note_on_c, 6, 66, 73
8, 193792, Note_on_c, 6, 66, 0
8, 202240, Note_on_c, 6, 62, 43
8, 202496, Note_on_c, 6, 62, 0
8, 202752, Note_on_c, 6, 66, 45
8, 203008, Note_on_c, 6, 66, 0
8, 203264, Note_on_c, 6, 70, 48
8, 203520, Note_on_c, 6, 70, 0
8, 203776, Note_on_c, 6, 71, 50
8, 204032, Note_on_c, 6, 71, 0
8, 204288, Note_on_c, 6, 73, 51
8, 204459, Note_on_c, 6, 73, 0
8, 204459, Note_on_c, 6, 71, 51
8, 204629, Note_on_c, 6, 71, 0
8, 204629, Note_on_c, 6, 70, 51
8, 204800, Note_on_c, 6, 70, 0
8, 204800, Note_on_c, 6, 71, 52
8, 205056, Note_on_c, 6, 71, 0
8, 208384, Note_on_c, 6, 71, 46
8, 208640, Note_on_c, 6, 71, 0
8, 208896, Note_on_c, 6, 64, 49
8, 209152, Note_on_c, 6, 64, 0
8, 209408, Note_on_c, 6, 66, 52
8, 209664, Note_on_c, 6, 66, 0
8, 209920, Note_on_c, 6, 67, 55
8, 210176, Note_on_c, 6, 67, 0
8, 210432, Note_on_c, 6, 66, 43
8, 210603, Note_on_c, 6, 66, 0
8, 210603, Note_on_c, 6, 64, 43
8, 210773, Note_on_c, 6, 64, 0
8, 210773, Note_on_c, 6, 62, 44
8, 210944, Note_on_c, 6, 62, 0
8, 210944, Note_on_c, 6, 64, 44
8, 211200, Note_on_c, 6, 64, 0
8, 214528, Note_on_c, 6, 71, 52
8, 214784, Note_on_c, 6, 71, 0
8, 215040, Note_on_c, 6, 74, 53
8, 215296, Note_on_c, 6, 74, 0
8, 215552, Note_on_c, 6, 71, 54
8, 215808, Note_on_c, 6, 71, 0
8, 216064, Note_on_c, 6, 66, 55
8, 216320, Note_on_c, 6, 66, 0
8, 216576, Note_on_c, 6, 67, 58
8, 216747, Note_on_c, 6, 67, 0
8, 216747, Note_on_c, 6, 66, 59
8, 216917, Note_on_c, 6, 66, 0
8, 216917, Note_on_c, 6, 64, 60
8, 217088, Note_on_c, 6, 64, 0
8, 217088, Note_on_c, 6, 66, 61
8, 217344, Note_on_c, 6, 66, 0
8, 217600, Note_on_c, 6, 78, 65
8, 217856, Note_on_c, 6, 78, 0
8, 218112, Note_on_c, 6, 76, 68
8, 218368, Note_on_c, 6, 76, 0
8, 218624, Note_on_c, 6, 75, 71
8, 218880, Note_on_c, 6, 75, 0
8, 219136, Note_on_c, 6, 76, 74
8, 219392, Note_on_c, 6, 76, 0
8, 219648, Note_on_c, 6, 71, 77
8, 219904, Note_on_c, 6, 71, 0
8, 220160, Note_on_c, 6, 76, 81
8, 220416, Note_on_c, 6, 76, 0
8, 220672, Note_on_c, 6, 76, 83
8, 220928, Note_on_c, 6, 76, 0
8, 221184, Note_on_c, 6, 76, 80
8, 221440, Note_on_c, 6, 76, 0
8, 221696, Note_on_c, 6, 76, 77
8, 221952, Note_on_c, 6, 76, 0
8, 222208, Note_on_c, 6, 74, 74
8, 222464, Note_on_c, 6, 74, 0
8, 222464, Note_on_c, 6, 73, 72
8, 222720, Note_on_c, 6, 73, 0
8, 222720, Note_on_c, 6, 71, 71
8, 222976, Note_on_c, 6, 71, 0
8, 222976, Note_on_c, 6, 70, 69
8, 223232, Note_on_c, 6, 70, 0
8, 223232, Note_on_c, 6, 71, 67
8, 223488, Note_on_c, 6, 71, 0
8, 223744, Note_on_c, 6, 71, 64
8, 224000, Note_on_c, 6, 71, 0
8, 224256, Note_on_c, 6, 71, 61
8, 224512, Note_on_c, 6, 71, 0
8, 224768, Note_on_c, 6, 66, 58
8, 225024, Note_on_c, 6, 66, 0
8, 225280, Note_on_c, 6, 66, 55
8, 225536, Note_on_c, 6, 66, 0
8, 226304, Note_on_c, 6, 71, 30
8, 226560, Note_on_c, 6, 71, 0
8, 227328, Note_on_c, 6, 71, 30
8, 227584, Note_on_c, 6, 71, 0
8, 228352, Note_on_c, 6, 71, 38
8, 228608, Note_on_c, 6, 71, 0
8, 229376, Note_on_c, 6, 71, 30
8, 229632, Note_on_c, 6, 71, 0
8, 230400, Note_on_c, 6, 71, 30
8, 230656, Note_on_c, 6, 71, 0
8, 231424, Note_on_c, 6, 71, 39
8, 231680, Note_on_c, 6, 71, 0
8, 232448, Note_on_c, 6, 69, 30
8, 232704, Note_on_c, 6, 69, 0
8, 233472, Note_on_c, 6, 69, 30
8, 233728, Note_on_c, 6, 69, 0
8, 234496, Note_on_c, 6, 68, 36
8, 234752, Note_on_c, 6, 68, 0
8, 235520, Note_on_c, 6, 68, 30
8, 235776, Note_on_c, 6, 68, 0
8, 236544, Note_on_c, 6, 68, 30
8, 236800, Note_on_c, 6, 68, 0
8, 237568, Note_on_c, 6, 68, 38
8, 237824, Note_on_c, 6, 68, 0
8, 238592, Note_on_c, 6, 66, 30
8, 238848, Note_on_c, 6, 66, 0
8, 239616, Note_on_c, 6, 66, 30
8, 239872, Note_on_c, 6, 66, 0
8, 240640, Note_on_c, 6, 61, 39
8, 240896, Note_on_c, 6, 61, 0
8, 241664, Note_on_c, 6, 56, 30
8, 241920, Note_on_c, 6, 56, 0
8, 242688, Note_on_c, 6, 66, 30
8, 242944, Note_on_c, 6, 66, 0
8, 243712, Note_on_c, 6, 66, 39
8, 243968, Note_on_c, 6, 66, 0
8, 244736, Note_on_c, 6, 61, 31
8, 244992, Note_on_c, 6, 61, 0
8, 245760, Note_on_c, 6, 70, 31
8, 246016, Note_on_c, 6, 70, 0
8, 246784, Note_on_c, 6, 71, 38
8, 247040, Note_on_c, 6, 71, 0
8, 247808, Note_on_c, 6, 71, 31
8, 248064, Note_on_c, 6, 71, 0
8, 248832, Note_on_c, 6, 71, 31
8, 249088, Note_on_c, 6, 71, 0
8, 249856, Note_on_c, 6, 71, 38
8, 250112, Note_on_c, 6, 71, 0
8, 250880, Note_on_c, 6, 71, 31
8, 251136, Note_on_c, 6, 71, 0
8, 251904, Note_on_c, 6, 69, 31
8, 252160, Note_on_c, 6, 69, 0
8, 252928, Note_on_c, 6, 69, 38
8, 253184, Note_on_c, 6, 69, 0
8, 253952, Note_on_c, 6, 66, 31
8, 254208, Note_on_c, 6, 66, 0
8, 254976, Note_on_c, 6, 66, 31
8, 255232, Note_on_c, 6, 66, 0
8, 256000, Note_on_c, 6, 62, 38
8, 256256, Note_on_c, 6, 62, 0
8, 257024, Note_on_c, 6, 66, 31
8, 257280, Note_on_c, 6, 66, 0
8, 258048, Note_on_c, 6, 68, 31
8, 258304, Note_on_c, 6, 68, 0
8, 259072, Note_on_c, 6, 66, 36
8, 259328, Note_on_c, 6, 66, 0
8, 260096, Note_on_c, 6, 61, 31
8, 260352, Note_on_c, 6, 61, 0
8, 261120, Note_on_c, 6, 61, 31
8, 261376, Note_on_c, 6, 61, 0
8, 262144, Note_on_c, 6, 61, 40
8, 263168, Note_on_c, 6, 61, 0
8, 263680, Note_on_c, 6, 66, 96
8, 263936, Note_on_c, 6, 66, 0
8, 264192, Note_on_c, 6, 69, 99
8, 264448, Note_on_c, 6, 69, 0
8, 264704, Note_on_c, 6, 73, 103
8, 264960, Note_on_c, 6, 73, 0
8, 265216, Note_on_c, 6, 74, 106
8, 265472, Note_on_c, 6, 74, 0
8, 265728, Note_on_c, 6, 76, 95
8, 265899, Note_on_c, 6, 76, 0
8, 265899, Note_on_c, 6, 74, 95
8, 266069, Note_on_c, 6, 74, 0
8, 266069, Note_on_c, 6, 73, 96
8, 266240, Note_on_c, 6, 73, 0
8, 266240, Note_on_c, 6, 74, 97
8, 266496, Note_on_c, 6, 74, 0
8, 266752, Note_on_c, 6, 79, 100
8, 267008, Note_on_c, 6, 79, 0
8, 267264, Note_on_c, 6, 78, 103
8, 267520, Note_on_c, 6, 78, 0
8, 267776, Note_on_c, 6, 76, 105
8, 268032, Note_on_c, 6, 76, 0
8, 268288, Note_on_c, 6, 74, 108
8, 268544, Note_on_c, 6, 74, 0
8, 268800, Note_on_c, 6, 78, 91
8, 269056, Note_on_c, 6, 78, 0
8, 269312, Note_on_c, 6, 74, 94
8, 269568, Note_on_c, 6, 74, 0
8, 269824, Note_on_c, 6, 69, 97
8, 270080, Note_on_c, 6, 69, 0
8, 270336, Note_on_c, 6, 66, 99
8, 270592, Note_on_c, 6, 66, 0
8, 270848, Note_on_c, 6, 69, 102
8, 271104, Note_on_c, 6, 69, 0
8, 271360, Note_on_c, 6, 71, 104
8, 271616, Note_on_c, 6, 71, 0
8, 271872, Note_on_c, 6, 73, 95
8, 272128, Note_on_c, 6, 73, 0
8, 272128, Note_on_c, 6, 74, 95
8, 272384, Note_on_c, 6, 74, 0
8, 272384, Note_on_c, 6, 76, 96
8, 272640, Note_on_c, 6, 76, 0
8, 272896, Note_on_c, 6, 76, 98
8, 273152, Note_on_c, 6, 76, 0
8, 273408, Note_on_c, 6, 69, 100
8, 273664, Note_on_c, 6, 69, 0
8, 273920, Note_on_c, 6, 71, 102
8, 274176, Note_on_c, 6, 71, 0
8, 274432, Note_on_c, 6, 73, 104
8, 275456, Note_on_c, 6, 73, 0
8, 275968, Note_on_c, 6, 73, 95
8, 276224, Note_on_c, 6, 73, 0
8, 276480, Note_on_c, 6, 74, 96
8, 276736, Note_on_c, 6, 74, 0
8, 276992, Note_on_c, 6, 73, 98
8, 277248, Note_on_c, 6, 73, 0
8, 277504, Note_on_c, 6, 74, 99
8, 277760, Note_on_c, 6, 74, 0
8, 278016, Note_on_c, 6, 76, 100
8, 278187, Note_on_c, 6, 76, 0
8, 278187, Note_on_c, 6, 74, 101
8, 278357, Note_on_c, 6, 74, 0
8, 278357, Note_on_c, 6, 73, 101
8, 278528, Note_on_c, 6, 73, 0
8, 278528, Note_on_c, 6, 74, 102
8, 278784, Note_on_c, 6, 74, 0
8, 278784, Note_on_c, 6, 76, 103
8, 279040, Note_on_c, 6, 76, 0
8, 279040, Note_on_c, 6, 74, 103
8, 279296, Note_on_c, 6, 74, 0
8, 279296, Note_on_c, 6, 76, 104
8, 279552, Note_on_c, 6, 76, 0
8, 279552, Note_on_c, 6, 74, 105
8, 279808, Note_on_c, 6, 74, 0
8, 279808, Note_on_c, 6, 76, 105
8, 280064, Note_on_c, 6, 76, 0
8, 280064, Note_on_c, 6, 74, 106
8, 280320, Note_on_c, 6, 74, 0
8, 280320, Note_on_c, 6, 76, 107
8, 280576, Note_on_c, 6, 76, 0
8, 280576, Note_on_c, 6, 73, 108
8, 281600, Note_on_c, 6, 73, 0
8, 297472, Note_on_c, 6, 66, 96
8, 297728, Note_on_c, 6, 66, 0
8, 297984, Note_on_c, 6, 69, 97
8, 298240, Note_on_c, 6, 69, 0
8, 298496, Note_on_c, 6, 73, 99
8, 298752, Note_on_c, 6, 73, 0
8, 299008, Note_on_c, 6, 74, 100
8, 299264, Note_on_c, 6, 74, 0
8, 299520, Note_on_c, 6, 76, 94
8, 299691, Note_on_c, 6, 76, 0
8, 299691, Note_on_c, 6, 74, 94
8, 299861, Note_on_c, 6, 74, 0
8, 299861, Note_on_c, 6, 73, 95
8, 300032, Note_on_c, 6, 73, 0
8, 300032, Note_on_c, 6, 74, 95
8, 300288, Note_on_c, 6, 74, 0
8, 300544, Note_on_c, 6, 73, 96
8, 300800, Note_on_c, 6, 73, 0
8, 301056, Note_on_c, 6, 74, 97
8, 301312, Note_on_c, 6, 74, 0
8, 301568, Note_on_c, 6, 70, 98
8, 301824, Note_on_c, 6, 70, 0
8, 302080, Note_on_c, 6, 71, 99
8, 303104, Note_on_c, 6, 71, 0
8, 303616, Note_on_c, 6, 66, 99
8, 303872, Note_on_c, 6, 66, 0
8, 304128, Note_on_c, 6, 71, 99
8, 304384, Note_on_c, 6, 71, 0
8, 304640, Note_on_c, 6, 71, 99
8, 304896, Note_on_c, 6, 71, 0
8, 305152, Note_on_c, 6, 71, 99
8, 305408, Note_on_c, 6, 71, 0
8, 305664, Note_on_c, 6, 73, 99
8, 305920, Note_on_c, 6, 73, 0
8, 306176, Note_on_c, 6, 74, 99
8, 306432, Note_on_c, 6, 74, 0
8, 306688, Note_on_c, 6, 76, 99
8, 306944, Note_on_c, 6, 76, 0
8, 307200, Note_on_c, 6, 69, 98
8, 307456, Note_on_c, 6, 69, 0
8, 307712, Note_on_c, 6, 76, 98
8, 307968, Note_on_c, 6, 76, 0
8, 308224, Note_on_c, 6, 74, 98
8, 308736, Note_on_c, 6, 74, 0
8, 308736, Note_on_c, 6, 73, 98
8, 308992, Note_on_c, 6, 73, 0
8, 309760, Note_on_c, 6, 73, 98
8, 310016, Note_on_c, 6, 73, 0
8, 310272, Note_on_c, 6, 75, 98
8, 310528, Note_on_c, 6, 75, 0
8, 310784, Note_on_c, 6, 78, 98
8, 310912, Note_on_c, 6, 78, 0
8, 310912, Note_on_c, 6, 76, 98
8, 311040, Note_on_c, 6, 76, 0
8, 311040, Note_on_c, 6, 78, 98
8, 311168, Note_on_c, 6, 78, 0
8, 311168, Note_on_c, 6, 76, 98
8, 311296, Note_on_c, 6, 76, 0
8, 311296, Note_on_c, 6, 78, 98
8, 311552, Note_on_c, 6, 78, 0
8, 313856, Note_on_c, 6, 79, 97
8, 314112, Note_on_c, 6, 79, 0
8, 314112, Note_on_c, 6, 78, 97
8, 314368, Note_on_c, 6, 78, 0
8, 314368, Note_on_c, 6, 76, 97
8, 314624, Note_on_c, 6, 76, 0
8, 316928, Note_on_c, 6, 78, 96
8, 317184, Note_on_c, 6, 78, 0
8, 317184, Note_on_c, 6, 76, 96
8, 317440, Note_on_c, 6, 76, 0
8, 317440, Note_on_c, 6, 74, 96
8, 317696, Note_on_c, 6, 74, 0
8, 320000, Note_on_c, 6, 74, 96
8, 320256, Note_on_c, 6, 74, 0
8, 320512, Program_c, 6, 73
8, 320512, Note_on_c, 6, 74, 67
8, 320640, Note_on_c, 6, 74, 0
8, 320640, Note_on_c, 6, 76, 67
8, 320768, Note_on_c, 6, 76, 0
8, 320768, Note_on_c, 6, 74, 68
8, 320896, Note_on_c, 6, 74, 0
8, 320896, Note_on_c, 6, 76, 69
8, 321024, Note_on_c, 6, 76, 0
8, 321024, Note_on_c, 6, 74, 69
8, 321152, Note_on_c, 6, 74, 0
8, 321152, Note_on_c, 6, 76, 70
8, 321280, Note_on_c, 6, 76, 0
8, 321280, Note_on_c, 6, 74, 71
8, 321408, Note_on_c, 6, 74, 0
8, 321408, Note_on_c, 6, 76, 71
8, 321536, Note_on_c, 6, 76, 0
8, 321536, Note_on_c, 6, 74, 72
8, 321664, Note_on_c, 6, 74, 0
8, 321664, Note_on_c, 6, 76, 73
8, 321792, Note_on_c, 6, 76, 0
8, 321792, Note_on_c, 6, 74, 73
8, 321920, Note_on_c, 6, 74, 0
8, 321920, Note_on_c, 6, 76, 74
8, 322048, Note_on_c, 6, 76, 0
8, 322048, Note_on_c, 6, 74, 75
8, 322176, Note_on_c, 6, 74, 0
8, 322176, Note_on_c, 6, 76, 75
8, 322304, Note_on_c, 6, 76, 0
8, 322304, Note_on_c, 6, 74, 76
8, 322432, Note_on_c, 6, 74, 0
8, 322432, Note_on_c, 6, 76, 77
8, 322560, Note_on_c, 6, 76, 0
8, 322560, Note_on_c, 6, 74, 77
8, 322688, Note_on_c, 6, 74, 0
8, 322688, Note_on_c, 6, 76, 78
8, 322816, Note_on_c, 6, 76, 0
8, 322816, Note_on_c, 6, 74, 79
8, 322944, Note_on_c, 6, 74, 0
8, 322944, Note_on_c, 6, 76, 79
8, 323072, Note_on_c, 6, 76, 0
8, 323072, Note_on_c, 6, 74, 80
8, 323200, Note_on_c, 6, 74, 0
8, 323200, Note_on_c, 6, 76, 81
8, 323328, Note_on_c, 6, 76, 0
8, 323328, Note_on_c, 6, 74, 81
8, 323456, Note_on_c, 6, 74, 0
8, 323456, Note_on_c, 6, 76, 82
8, 323584, Note_on_c, 6, 76, 0
8, 323584, Note_on_c, 6, 74, 83
8, 323840, Note_on_c, 6, 74, 0
8, 324096, Note_on_c, 6, 73, 59
8, 324267, Note_on_c, 6, 73, 0
8, 324267, Note_on_c, 6, 71, 60
8, 324437, Note_on_c, 6, 71, 0
8, 324437, Note_on_c, 6, 69, 61
8, 324608, Note_on_c, 6, 69, 0
8, 324608, Note_on_c, 6, 76, 63
8, 324864, Note_on_c, 6, 76, 0
8, 326144, Note_on_c, 6, 76, 74
8, 326400, Note_on_c, 6, 76, 0
8, 326656, Note_on_c, 6, 76, 78
8, 326784, Note_on_c, 6, 76, 0
8, 326784, Note_on_c, 6, 78, 71
8, 326912, Note_on_c, 6, 78, 0
8, 326912, Note_on_c, 6, 76, 71
8, 327040, Note_on_c, 6, 76, 0
8, 327040, Note_on_c, 6, 78, 72
8, 327168, Note_on_c, 6, 78, 0
8, 327168, Note_on_c, 6, 76, 73
8, 327296, Note_on_c, 6, 76, 0
8, 327296, Note_on_c, 6, 78, 74
8, 327424, Note_on_c, 6, 78, 0
8, 327424, Note_on_c, 6, 76, 74
8, 327552, Note_on_c, 6, 76, 0
8, 327552, Note_on_c, 6, 78, 75
8, 327680, Note_on_c, 6, 78, 0
8, 327680, Note_on_c, 6, 76, 76
8, 327808, Note_on_c, 6, 76, 0
8, 327808, Note_on_c, 6, 78, 77
8, 327936, Note_on_c, 6, 78, 0
8, 327936, Note_on_c, 6, 76, 77
8, 328064, Note_on_c, 6, 76, 0
8, 328064, Note_on_c, 6, 78, 78
8, 328192, Note_on_c, 6, 78, 0
8, 328192, Note_on_c, 6, 76, 79
8, 328320, Note_on_c, 6, 76, 0
8, 328320, Note_on_c, 6, 78, 80
8, 328448, Note_on_c, 6, 78, 0
8, 328448, Note_on_c, 6, 76, 80
8, 328576, Note_on_c, 6, 76, 0
8, 328576, Note_on_c, 6, 78, 81
8, 328704, Note_on_c, 6, 78, 0
8, 328704, Note_on_c, 6, 76, 82
8, 328832, Note_on_c, 6, 76, 0
8, 328832, Note_on_c, 6, 78, 83
8, 328960, Note_on_c, 6, 78, 0
8, 328960, Note_on_c, 6, 76, 83
8, 329088, Note_on_c, 6, 76, 0
8, 329088, Note_on_c, 6, 78, 84
8, 329216, Note_on_c, 6, 78, 0
8, 329216, Note_on_c, 6, 76, 85
8, 329344, Note_on_c, 6, 76, 0
8, 329344, Note_on_c, 6, 78, 86
8, 329472, Note_on_c, 6, 78, 0
8, 329472, Note_on_c, 6, 76, 86
8, 329600, Note_on_c, 6, 76, 0
8, 329600, Note_on_c, 6, 78, 87
8, 329728, Program_c, 6, 48
8, 329728, Note_on_c, 6, 78, 0
8, 329728, Note_on_c, 6, 71, 88
8, 329984, Note_on_c, 6, 71, 0
8, 330240, Note_on_c, 6, 66, 80
8, 330496, Note_on_c, 6, 66, 0
8, 330752, Note_on_c, 6, 71, 84
8, 331008, Note_on_c, 6, 71, 0
8, 331264, Note_on_c, 6, 75, 88
8, 331520, Note_on_c, 6, 75, 0
8, 331776, Note_on_c, 6, 78, 92
8, 332032, Note_on_c, 6, 78, 0
8, 332288, Note_on_c, 6, 75, 96
8, 332544, Note_on_c, 6, 75, 0
8, 332800, Note_on_c, 6, 76, 100
8, 333056, Note_on_c, 6, 76, 0
8, 333312, Note_on_c, 6, 76, 99
8, 333568, Note_on_c, 6, 76, 0
8, 333824, Note_on_c, 6, 74, 100
8, 334080, Note_on_c, 6, 74, 0
8, 334336, Note_on_c, 6, 73, 101
8, 334592, Note_on_c, 6, 73, 0
8, 334848, Note_on_c, 6, 74, 102
8, 335104, Note_on_c, 6, 74, 0
8, 335360, Note_on_c, 6, 69, 104
8, 335616, Note_on_c, 6, 69, 0
8, 335872, Note_on_c, 6, 66, 105
8, 336128, Note_on_c, 6, 66, 0
8, 336128, Note_on_c, 6, 64, 105
8, 336384, Note_on_c, 6, 64, 0
8, 336384, Note_on_c, 6, 62, 106
8, 336640, Note_on_c, 6, 62, 0
8, 336640, Note_on_c, 6, 64, 106
8, 336896, Note_on_c, 6, 64, 0
8, 336896, Note_on_c, 6, 66, 107
8, 337152, Note_on_c, 6, 66, 0
8, 337152, Note_on_c, 6, 67, 107
8, 337408, Note_on_c, 6, 67, 0
8, 337408, Note_on_c, 6, 69, 108
8, 337664, Note_on_c, 6, 69, 0
8, 337920, Note_on_c, 6, 69, 109
8, 338432, Note_on_c, 6, 69, 0
8, 338432, Note_on_c, 6, 67, 110
8, 338688, Note_on_c, 6, 67, 0
8, 338944, Note_on_c, 6, 66, 111
8, 339968, Note_on_c, 6, 66, 0
8, 340480, Note_on_c, 6, 69, 47
8, 340736, Note_on_c, 6, 69, 0
8, 340736, Note_on_c, 6, 71, 47
8, 340992, Note_on_c, 6, 71, 0
8, 340992, Note_on_c, 6, 69, 47
8, 341248, Note_on_c, 6, 69, 0
8, 341504, Note_on_c, 6, 67, 47
8, 341760, Note_on_c, 6, 67, 0
8, 342016, Note_on_c, 6, 66, 47
8, 342272, Note_on_c, 6, 66, 0
8, 342528, Note_on_c, 6, 64, 47
8, 342784, Note_on_c, 6, 64, 0
8, 343040, Note_on_c, 6, 63, 47
8, 343296, Note_on_c, 6, 63, 0
8, 343552, Note_on_c, 6, 66, 47
8, 343808, Note_on_c, 6, 66, 0
8, 344064, Note_on_c, 6, 59, 47
8, 344320, Note_on_c, 6, 59, 0
8, 344576, Note_on_c, 6, 63, 47
8, 344832, Note_on_c, 6, 63, 0
8, 345088, Note_on_c, 6, 64, 47
8, 345344, Note_on_c, 6, 64, 0
8, 345600, Note_on_c, 6, 71, 47
8, 345856, Note_on_c, 6, 71, 0
8, 346112, Note_on_c, 6, 64, 47
8, 346368, Note_on_c, 6, 64, 0
8, 346624, Note_on_c, 6, 71, 47
8, 346880, Note_on_c, 6, 71, 0
8, 347136, Note_on_c, 6, 63, 47
8, 347392, Note_on_c, 6, 63, 0
8, 347648, Note_on_c, 6, 71, 47
8, 347904, Note_on_c, 6, 71, 0
8, 348160, Note_on_c, 6, 64, 47
8, 348416, Note_on_c, 6, 64, 0
8, 348672, Note_on_c, 6, 59, 47
8, 348928, Note_on_c, 6, 59, 0
8, 349184, Note_on_c, 6, 64, 47
8, 349440, Note_on_c, 6, 64, 0
8, 349696, Note_on_c, 6, 67, 47
8, 349952, Note_on_c, 6, 67, 0
8, 350208, Note_on_c, 6, 71, 47
8, 350464, Note_on_c, 6, 71, 0
8, 350720, Note_on_c, 6, 75, 47
8, 350976, Note_on_c, 6, 75, 0
8, 351232, Note_on_c, 6, 76, 47
8, 351488, Note_on_c, 6, 76, 0
8, 351744, Note_on_c, 6, 76, 47
8, 352000, Note_on_c, 6, 76, 0
8, 352000, Note_on_c, 6, 75, 47
8, 352256, Note_on_c, 6, 75, 0
8, 352256, Note_on_c, 6, 76, 47
8, 352512, Note_on_c, 6, 76, 0
8, 352768, Note_on_c, 6, 76, 47
8, 353024, Note_on_c, 6, 76, 0
8, 353280, Note_on_c, 6, 73, 47
8, 353536, Note_on_c, 6, 73, 0
8, 353792, Note_on_c, 6, 76, 47
8, 354048, Note_on_c, 6, 76, 0
8, 354304, Note_on_c, 6, 69, 47
8, 354560, Note_on_c, 6, 69, 0
8, 354816, Note_on_c, 6, 64, 47
8, 355072, Note_on_c, 6, 64, 0
8, 355328, Note_on_c, 6, 61, 47
8, 355584, Note_on_c, 6, 61, 0
8, 355840, Note_on_c, 6, 64, 47
8, 356096, Note_on_c, 6, 64, 0
8, 356352, Note_on_c, 6, 57, 47
8, 356608, Note_on_c, 6, 57, 0
8, 356864, Note_on_c, 6, 61, 47
8, 357120, Note_on_c, 6, 61, 0
8, 357376, Note_on_c, 6, 62, 47
8, 357632, Note_on_c, 6, 62, 0
8, 357888, Note_on_c, 6, 69, 47
8, 358144, Note_on_c, 6, 69, 0
8, 358400, Note_on_c, 6, 62, 47
8, 358656, Note_on_c, 6, 62, 0
8, 358912, Note_on_c, 6, 69, 47
8, 359168, Note_on_c, 6, 69, 0
8, 359424, Note_on_c, 6, 61, 47
8, 359680, Note_on_c, 6, 61, 0
8, 359936, Note_on_c, 6, 69, 47
8, 360192, Note_on_c, 6, 69, 0
8, 360448, Note_on_c, 6, 62, 47
8, 360704, Note_on_c, 6, 62, 0
8, 360960, Note_on_c, 6, 57, 47
8, 361216, Note_on_c, 6, 57, 0
8, 361472, Note_on_c, 6, 62, 47
8, 361728, Note_on_c, 6, 62, 0
8, 361984, Note_on_c, 6, 66, 47
8, 362240, Note_on_c, 6, 66, 0
8, 362496, Note_on_c, 6, 69, 47
8, 362752, Note_on_c, 6, 69, 0
8, 363008, Note_on_c, 6, 73, 47
8, 363264, Note_on_c, 6, 73, 0
8, 363520, Note_on_c, 6, 74, 47
8, 363776, Note_on_c, 6, 74, 0
8, 364032, Note_on_c, 6, 74, 47
8, 364288, Note_on_c, 6, 74, 0
8, 364288, Note_on_c, 6, 73, 47
8, 364544, Note_on_c, 6, 73, 0
8, 364544, Note_on_c, 6, 74, 47
8, 364800, Note_on_c, 6, 74, 0
8, 364800, Note_on_c, 6, 73, 47
8, 365056, Note_on_c, 6, 73, 0
8, 365056, Note_on_c, 6, 74, 47
8, 365312, Note_on_c, 6, 74, 0
8, 365312, Note_on_c, 6, 76, 47
8, 365568, Note_on_c, 6, 76, 0
8, 365568, Note_on_c, 6, 78, 47
8, 365824, Note_on_c, 6, 78, 0
8, 365824, Note_on_c, 6, 79, 47
8, 366080, Note_on_c, 6, 79, 0
8, 366080, Note_on_c, 6, 78, 47
8, 366336, Note_on_c, 6, 78, 0
8, 366336, Note_on_c, 6, 79, 47
8, 366592, Note_on_c, 6, 79, 0
8, 366592, Note_on_c, 6, 78, 47
8, 366848, Note_on_c, 6, 78, 0
8, 367104, Note_on_c, 6, 73, 47
8, 367360, Note_on_c, 6, 73, 0
8, 367616, Note_on_c, 6, 74, 47
8, 367872, Note_on_c, 6, 74, 0
8, 368128, Note_on_c, 6, 69, 47
8, 368384, Note_on_c, 6, 69, 0
8, 368640, Note_on_c, 6, 69, 47
8, 368896, Note_on_c, 6, 69, 0
8, 369152, Note_on_c, 6, 69, 47
8, 369408, Note_on_c, 6, 69, 0
8, 369664, Note_on_c, 6, 71, 48
8, 369920, Note_on_c, 6, 71, 0
8, 369920, Note_on_c, 6, 70, 50
8, 370176, Note_on_c, 6, 70, 0
8, 370176, Note_on_c, 6, 71, 52
8, 370432, Note_on_c, 6, 71, 0
8, 370432, Note_on_c, 6, 73, 54
8, 370688, Note_on_c, 6, 73, 0
8, 370688, Note_on_c, 6, 74, 56
8, 370944, Note_on_c, 6, 74, 0
8, 371200, Note_on_c, 6, 78, 60
8, 371456, Note_on_c, 6, 78, 0
8, 371712, Note_on_c, 6, 71, 64
8, 371968, Note_on_c, 6, 71, 0
8, 372224, Note_on_c, 6, 71, 69
8, 372480, Note_on_c, 6, 71, 0
8, 372736, Note_on_c, 6, 73, 73
8, 372992, Note_on_c, 6, 73, 0
8, 375296, Note_on_c, 6, 78, 63
8, 375552, Note_on_c, 6, 78, 0
8, 375808, Note_on_c, 6, 76, 66
8, 376064, Note_on_c, 6, 76, 0
8, 378368, Note_on_c, 6, 76, 63
8, 378624, Note_on_c, 6, 76, 0
8, 378880, Note_on_c, 6, 74, 66
8, 379136, Note_on_c, 6, 74, 0
8, 381440, Note_on_c, 6, 74, 62
8, 381696, Note_on_c, 6, 74, 0
8, 381952, Program_c, 6, 73
8, 381952, Note_on_c, 6, 74, 35
8, 382080, Note_on_c, 6, 74, 0
8, 382080, Note_on_c, 6, 76, 36
8, 382208, Note_on_c, 6, 76, 0
8, 382208, Note_on_c, 6, 74, 37
8, 382336, Note_on_c, 6, 74, 0
8, 382336, Note_on_c, 6, 76, 38
8, 382464, Note_on_c, 6, 76, 0
8, 382464, Note_on_c, 6, 74, 39
8, 382592, Note_on_c, 6, 74, 0
8, 382592, Note_on_c, 6, 76, 40
8, 382720, Note_on_c, 6, 76, 0
8, 382720, Note_on_c, 6, 74, 41
8, 382848, Note_on_c, 6, 74, 0
8, 382848, Note_on_c, 6, 76, 42
8, 382976, Note_on_c, 6, 76, 0
8, 382976, Note_on_c, 6, 74, 43
8, 383104, Note_on_c, 6, 74, 0
8, 383104, Note_on_c, 6, 76, 44
8, 383232, Note_on_c, 6, 76, 0
8, 383232, Note_on_c, 6, 74, 45
8, 383360, Note_on_c, 6, 74, 0
8, 383360, Note_on_c, 6, 76, 46
8, 383488, Note_on_c, 6, 76, 0
8, 383488, Note_on_c, 6, 74, 47
8, 383616, Note_on_c, 6, 74, 0
8, 383616, Note_on_c, 6, 76, 48
8, 383744, Note_on_c, 6, 76, 0
8, 383744, Note_on_c, 6, 74, 49
8, 383872, Note_on_c, 6, 74, 0
8, 383872, Note_on_c, 6, 76, 50
8, 384000, Note_on_c, 6, 76, 0
8, 384000, Note_on_c, 6, 74, 51
8, 384128, Note_on_c, 6, 74, 0
8, 384128, Note_on_c, 6, 76, 52
8, 384256, Note_on_c, 6, 76, 0
8, 384256, Note_on_c, 6, 74, 54
8, 384384, Note_on_c, 6, 74, 0
8, 384384, Note_on_c, 6, 76, 55
8, 384512, Note_on_c, 6, 76, 0
8, 384512, Note_on_c, 6, 74, 56
8, 384640, Note_on_c, 6, 74, 0
8, 384640, Note_on_c, 6, 76, 57
8, 384768, Note_on_c, 6, 76, 0
8, 384768, Note_on_c, 6, 74, 58
8, 384896, Note_on_c, 6, 74, 0
8, 384896, Note_on_c, 6, 76, 59
8, 385024, Note_on_c, 6, 76, 0
8, 385024, Note_on_c, 6, 74, 60
8, 385280, Note_on_c, 6, 74, 0
8, 385536, Note_on_c, 6, 73, 47
8, 385707, Note_on_c, 6, 73, 0
8, 385707, Note_on_c, 6, 71, 49
8, 385877, Note_on_c, 6, 71, 0
8, 385877, Note_on_c, 6, 69, 50
8, 386048, Note_on_c, 6, 69, 0
8, 386048, Note_on_c, 6, 76, 52
8, 386304, Note_on_c, 6, 76, 0
8, 387584, Note_on_c, 6, 76, 65
8, 387840, Note_on_c, 6, 76, 0
8, 388096, Note_on_c, 6, 76, 69
8, 388224, Note_on_c, 6, 76, 0
8, 388224, Note_on_c, 6, 78, 70
8, 388352, Note_on_c, 6, 78, 0
8, 388352, Note_on_c, 6, 76, 57
8, 388480, Note_on_c, 6, 76, 0
8, 388480, Note_on_c, 6, 78, 58
8, 388608, Note_on_c, 6, 78, 0
8, 388608, Note_on_c, 6, 76, 60
8, 388736, Note_on_c, 6, 76, 0
8, 388736, Note_on_c, 6, 78, 61
8, 388864, Note_on_c, 6, 78, 0
8, 388864, Note_on_c, 6, 76, 62
8, 388992, Note_on_c, 6, 76, 0
8, 388992, Note_on_c, 6, 78, 63
8, 389120, Note_on_c, 6, 78, 0
8, 389120, Note_on_c, 6, 76, 65
8, 389248, Note_on_c, 6, 76, 0
8, 389248, Note_on_c, 6, 78, 66
8, 389376, Note_on_c, 6, 78, 0
8, 389376, Note_on_c, 6, 76, 67
8, 389504, Note_on_c, 6, 76, 0
8, 389504, Note_on_c, 6, 78, 68
8, 389632, Note_on_c, 6, 78, 0
8, 389632, Note_on_c, 6, 76, 70
8, 389760, Note_on_c, 6, 76, 0
8, 389760, Note_on_c, 6, 78, 71
8, 389888, Note_on_c, 6, 78, 0
8, 389888, Note_on_c, 6, 76, 72
8, 390016, Note_on_c, 6, 76, 0
8, 390016, Note_on_c, 6, 78, 73
8, 390144, Note_on_c, 6, 78, 0
8, 390144, Note_on_c, 6, 76, 75
8, 390272, Note_on_c, 6, 76, 0
8, 390272, Note_on_c, 6, 78, 76
8, 390400, Note_on_c, 6, 78, 0
8, 390400, Note_on_c, 6, 76, 77
8, 390528, Note_on_c, 6, 76, 0
8, 390528, Note_on_c, 6, 78, 78
8, 390656, Note_on_c, 6, 78, 0
8, 390656, Note_on_c, 6, 76, 80
8, 390784, Note_on_c, 6, 76, 0
8, 390784, Note_on_c, 6, 78, 81
8, 390912, Note_on_c, 6, 78, 0
8, 390912, Note_on_c, 6, 76, 82
8, 391040, Note_on_c, 6, 76, 0
8, 391040, Note_on_c, 6, 78, 83
8, 391168, Program_c, 6, 48
8, 391168, Note_on_c, 6, 78, 0
8, 391168, Note_on_c, 6, 71, 85
8, 391424, Note_on_c, 6, 71, 0
8, 391680, Note_on_c, 6, 66, 85
8, 391936, Note_on_c, 6, 66, 0
8, 392192, Note_on_c, 6, 71, 89
8, 392448, Note_on_c, 6, 71, 0
8, 392704, Note_on_c, 6, 75, 93
8, 392960, Note_on_c, 6, 75, 0
8, 393216, Note_on_c, 6, 78, 97
8, 393472, Note_on_c, 6, 78, 0
8, 393728, Note_on_c, 6, 75, 100
8, 393984, Note_on_c, 6, 75, 0
8, 394240, Note_on_c, 6, 76, 104
8, 394496, Note_on_c, 6, 76, 0
8, 394752, Note_on_c, 6, 76, 106
8, 395008, Note_on_c, 6, 76, 0
8, 395264, Note_on_c, 6, 74, 107
8, 395520, Note_on_c, 6, 74, 0
8, 395776, Note_on_c, 6, 74, 108
8, 396032, Note_on_c, 6, 74, 0
8, 396288, Note_on_c, 6, 74, 109
8, 396544, Note_on_c, 6, 74, 0
8, 396800, Note_on_c, 6, 73, 110
8, 397056, Note_on_c, 6, 73, 0
8, 397312, Note_on_c, 6, 74, 111
8, 397568, Note_on_c, 6, 74, 0
8, 397568, Note_on_c, 6, 73, 111
8, 397824, Note_on_c, 6, 73, 0
8, 397824, Note_on_c, 6, 74, 112
8, 398080, Note_on_c, 6, 74, 0
8, 398080, Note_on_c, 6, 76, 112
8, 398336, Note_on_c, 6, 76, 0
8, 398336, Note_on_c, 6, 78, 113
8, 398592, Note_on_c, 6, 78, 0
8, 398848, Note_on_c, 6, 71, 114
8, 399104, Note_on_c, 6, 71, 0
8, 399360, Note_on_c, 6, 69, 115
8, 399616, Note_on_c, 6, 69, 0
8, 399872, Note_on_c, 6, 69, 116
8, 400128, Note_on_c, 6, 69, 0
8, 400384, Note_on_c, 6, 69, 117
8, 403456, Note_on_c, 6, 69, 0
8, 409600, End_track
9, 0, Start_track
9, 0, Title_t, "Viola"
9, 0, Program_c, 7, 48
9, 0, Control_c, 7, 121, 127
9, 0, Control_c, 7, 91, 127
9, 0, Control_c, 7, 10, 70
9, 0, Control_c, 7, 1, 10
9, 2560, Note_on_c, 7, 62, 95
9, 2816, Note_on_c, 7, 62, 0
9, 3072, Note_on_c, 7, 62, 100
9, 3328, Note_on_c, 7, 62, 0
9, 3584, Note_on_c, 7, 69, 105
9, 3840, Note_on_c, 7, 69, 0
9, 4096, Note_on_c, 7, 69, 110
9, 4608, Note_on_c, 7, 69, 0
9, 4608, Note_on_c, 7, 71, 94
9, 4779, Note_on_c, 7, 71, 0
9, 4779, Note_on_c, 7, 69, 95
9, 4949, Note_on_c, 7, 69, 0
9, 4949, Note_on_c, 7, 67, 96
9, 5120, Note_on_c, 7, 67, 0
9, 5120, Note_on_c, 7, 69, 98
9, 5376, Note_on_c, 7, 69, 0
9, 5632, Note_on_c, 7, 74, 102
9, 5888, Note_on_c, 7, 74, 0
9, 6144, Note_on_c, 7, 74, 106
9, 6400, Note_on_c, 7, 74, 0
9, 6656, Note_on_c, 7, 73, 101
9, 6912, Note_on_c, 7, 73, 0
9, 7168, Note_on_c, 7, 69, 99
9, 7424, Note_on_c, 7, 69, 0
9, 7680, Note_on_c, 7, 74, 98
9, 7936, Note_on_c, 7, 74, 0
9, 8192, Note_on_c, 7, 69, 96
9, 8448, Note_on_c, 7, 69, 0
9, 8704, Note_on_c, 7, 66, 95
9, 8960, Note_on_c, 7, 66, 0
9, 9216, Note_on_c, 7, 62, 94
9, 9472, Note_on_c, 7, 62, 0
9, 9728, Note_on_c, 7, 66, 92
9, 9984, Note_on_c, 7, 66, 0
9, 10240, Note_on_c, 7, 67, 84
9, 10496, Note_on_c, 7, 67, 0
9, 10496, Note_on_c, 7, 66, 85
9, 10752, Note_on_c, 7, 66, 0
9, 10752, Note_on_c, 7, 67, 86
9, 11008, Note_on_c, 7, 67, 0
9, 11008, Note_on_c, 7, 69, 87
9, 11264, Note_on_c, 7, 69, 0
9, 11264, Note_on_c, 7, 71, 89
9, 11520, Note_on_c, 7, 71, 0
9, 11776, Note_on_c, 7, 69, 91
9, 12032, Note_on_c, 7, 69, 0
9, 12288, Note_on_c, 7, 74, 93
9, 12544, Note_on_c, 7, 74, 0
9, 12800, Note_on_c, 7, 62, 96
9, 13056, Note_on_c, 7, 62, 0
9, 13312, Note_on_c, 7, 69, 98
9, 14336, Note_on_c, 7, 69, 0
9, 14848, Note_on_c, 7, 69, 94
9, 15104, Note_on_c, 7, 69, 0
9, 15360, Note_on_c, 7, 69, 92
9, 15616, Note_on_c, 7, 69, 0
9, 15872, Note_on_c, 7, 69, 89
9, 16128, Note_on_c, 7, 69, 0
9, 16384, Note_on_c, 7, 69, 87
9, 16640, Note_on_c, 7, 69, 0
9, 16896, Note_on_c, 7, 69, 85
9, 17152, Note_on_c, 7, 69, 0
9, 17408, Note_on_c, 7, 69, 81
9, 17664, Note_on_c, 7, 69, 0
9, 17920, Note_on_c, 7, 71, 82
9, 18176, Note_on_c, 7, 71, 0
9, 18432, Note_on_c, 7, 69, 84
9, 18688, Note_on_c, 7, 69, 0
9, 18944, Note_on_c, 7, 62, 86
9, 19200, Note_on_c, 7, 62, 0
9, 19456, Note_on_c, 7, 69, 87
9, 19712, Note_on_c, 7, 69, 0
9, 19712, Note_on_c, 7, 66, 88
9, 19968, Note_on_c, 7, 66, 0
9, 19968, Note_on_c, 7, 64, 89
9, 20224, Note_on_c, 7, 64, 0
9, 20224, Note_on_c, 7, 62, 90
9, 20480, Note_on_c, 7, 62, 0
9, 20480, Note_on_c, 7, 61, 90
9, 20736, Note_on_c, 7, 61, 0
9, 20736, Note_on_c, 7, 59, 91
9, 20992, Note_on_c, 7, 59, 0
9, 20992, Note_on_c, 7, 57, 92
9, 21248, Note_on_c, 7, 57, 0
9, 21248, Note_on_c, 7, 59, 93
9, 21504, Note_on_c, 7, 59, 0
9, 21504, Note_on_c, 7, 61, 94
9, 21760, Note_on_c, 7, 61, 0
9, 21760, Note_on_c, 7, 62, 95
9, 22016, Note_on_c, 7, 62, 0
9, 22016, Note_on_c, 7, 61, 95
9, 22272, Note_on_c, 7, 61, 0
9, 22272, Note_on_c, 7, 62, 96
9, 22528, Note_on_c, 7, 62, 0
9, 22528, Note_on_c, 7, 64, 97
9, 22784, Note_on_c, 7, 64, 0
9, 23040, Note_on_c, 7, 69, 99
9, 23296, Note_on_c, 7, 69, 0
9, 23552, Note_on_c, 7, 61, 100
9, 23808, Note_on_c, 7, 61, 0
9, 24064, Note_on_c, 7, 59, 102
9, 24320, Note_on_c, 7, 59, 0
9, 24576, Note_on_c, 7, 64, 103
9, 24832, Note_on_c, 7, 64, 0
9, 25088, Note_on_c, 7, 59, 105
9, 25344, Note_on_c, 7, 59, 0
9, 25600, Note_on_c, 7, 61, 107
9, 26624, Note_on_c, 7, 61, 0
9, 29184, Note_on_c, 7, 54, 36
9, 29440, Note_on_c, 7, 54, 0
9, 29696, Note_on_c, 7, 54, 37
9, 29952, Note_on_c, 7, 54, 0
9, 30208, Note_on_c, 7, 54, 39
9, 30464, Note_on_c, 7, 54, 0
9, 30720, Note_on_c, 7, 54, 40
9, 30976, Note_on_c, 7, 54, 0
9, 31232, Note_on_c, 7, 54, 41
9, 31488, Note_on_c, 7, 54, 0
9, 32256, Note_on_c, 7, 57, 44
9, 32512, Note_on_c, 7, 57, 0
9, 32768, Note_on_c, 7, 57, 46
9, 33024, Note_on_c, 7, 57, 0
9, 33280, Note_on_c, 7, 57, 47
9, 33536, Note_on_c, 7, 57, 0
9, 33792, Note_on_c, 7, 57, 48
9, 34048, Note_on_c, 7, 57, 0
9, 34304, Note_on_c, 7, 57, 50
9, 34560, Note_on_c, 7, 57, 0
9, 35328, Note_on_c, 7, 55, 52
9, 35584, Note_on_c, 7, 55, 0
9, 35840, Note_on_c, 7, 55, 54
9, 36096, Note_on_c, 7, 55, 0
9, 36352, Note_on_c, 7, 55, 55
9, 36608, Note_on_c, 7, 55, 0
9, 36864, Note_on_c, 7, 55, 56
9, 37120, Note_on_c, 7, 55, 0
9, 37376, Note_on_c, 7, 55, 58
9, 37632, Note_on_c, 7, 55, 0
9, 38400, Note_on_c, 7, 61, 61
9, 38656, Note_on_c, 7, 61, 0
9, 38912, Note_on_c, 7, 61, 62
9, 39168, Note_on_c, 7, 61, 0
9, 39424, Note_on_c, 7, 61, 63
9, 39680, Note_on_c, 7, 61, 0
9, 39936, Note_on_c, 7, 61, 65
9, 40192, Note_on_c, 7, 61, 0
9, 40448, Note_on_c, 7, 61, 66
9, 40704, Note_on_c, 7, 61, 0
9, 41472, Note_on_c, 7, 57, 69
9, 41728, Note_on_c, 7, 57, 0
9, 41984, Note_on_c, 7, 57, 70
9, 42240, Note_on_c, 7, 57, 0
9, 42496, Note_on_c, 7, 62, 72
9, 42752, Note_on_c, 7, 62, 0
9, 43008, Note_on_c, 7, 62, 99
9, 43264, Note_on_c, 7, 62, 0
9, 43520, Note_on_c, 7, 69, 102
9, 43776, Note_on_c, 7, 69, 0
9, 44032, Note_on_c, 7, 69, 106
9, 44544, Note_on_c, 7, 69, 0
9, 44544, Note_on_c, 7, 71, 109
9, 44715, Note_on_c, 7, 71, 0
9, 44715, Note_on_c, 7, 69, 110
9, 44885, Note_on_c, 7, 69, 0
9, 44885, Note_on_c, 7, 67, 108
9, 45056, Note_on_c, 7, 67, 0
9, 45056, Note_on_c, 7, 69, 108
9, 45312, Note_on_c, 7, 69, 0
9, 45568, Note_on_c, 7, 62, 107
9, 45824, Note_on_c, 7, 62, 0
9, 46080, Note_on_c, 7, 66, 106
9, 46336, Note_on_c, 7, 66, 0
9, 46592, Note_on_c, 7, 69, 106
9, 46848, Note_on_c, 7, 69, 0
9, 47104, Note_on_c, 7, 69, 105
9, 47360, Note_on_c, 7, 69, 0
9, 48128, Note_on_c, 7, 66, 98
9, 48384, Note_on_c, 7, 66, 0
9, 49152, Note_on_c, 7, 69, 99
9, 49408, Note_on_c, 7, 69, 0
9, 50176, Note_on_c, 7, 74, 99
9, 50432, Note_on_c, 7, 74, 0
9, 51712, Note_on_c, 7, 74, 79
9, 51968, Note_on_c, 7, 74, 0
9, 52224, Note_on_c, 7, 62, 81
9, 52480, Note_on_c, 7, 62, 0
9, 52736, Note_on_c, 7, 62, 83
9, 53504, Note_on_c, 7, 62, 0
9, 53760, Note_on_c, 7, 62, 86
9, 54016, Note_on_c, 7, 62, 0
9, 56576, Note_on_c, 7, 61, 95
9, 56832, Note_on_c, 7, 61, 0
9, 56832, Note_on_c, 7, 62, 96
9, 57088, Note_on_c, 7, 62, 0
9, 57088, Note_on_c, 7, 64, 97
9, 57344, Note_on_c, 7, 64, 0
9, 57344, Note_on_c, 7, 66, 98
9, 57600, Note_on_c, 7, 66, 0
9, 57856, Note_on_c, 7, 61, 100
9, 58112, Note_on_c, 7, 61, 0
9, 58368, Note_on_c, 7, 62, 101
9, 58624, Note_on_c, 7, 62, 0
9, 58880, Note_on_c, 7, 62, 103
9, 59136, Note_on_c, 7, 62, 0
9, 59392, Note_on_c, 7, 61, 105
9, 60416, Note_on_c, 7, 61, 0
9, 60928, Note_on_c, 7, 57, 82
9, 61184, Note_on_c, 7, 57, 0
9, 61440, Note_on_c, 7, 57, 82
9, 61696, Note_on_c, 7, 57, 0
9, 61952, Note_on_c, 7, 64, 82
9, 62208, Note_on_c, 7, 64, 0
9, 62464, Note_on_c, 7, 64, 82
9, 62720, Note_on_c, 7, 64, 0
9, 62976, Note_on_c, 7, 64, 82
9, 63232, Note_on_c, 7, 64, 0
9, 63488, Note_on_c, 7, 64, 82
9, 63744, Note_on_c, 7, 64, 0
9, 64000, Note_on_c, 7, 64, 82
9, 64256, Note_on_c, 7, 64, 0
9, 64512, Note_on_c, 7, 64, 82
9, 64768, Note_on_c, 7, 64, 0
9, 65024, Note_on_c, 7, 68, 83
9, 65280, Note_on_c, 7, 68, 0
9, 65536, Note_on_c, 7, 61, 83
9, 65792, Note_on_c, 7, 61, 0
9, 65792, Note_on_c, 7, 59, 83
9, 66048, Note_on_c, 7, 59, 0
9, 66048, Note_on_c, 7, 61, 83
9, 66304, Note_on_c, 7, 61, 0
9, 67072, Note_on_c, 7, 57, 83
9, 67328, Note_on_c, 7, 57, 0
9, 67584, Note_on_c, 7, 62, 83
9, 67840, Note_on_c, 7, 62, 0
9, 68096, Note_on_c, 7, 61, 83
9, 68352, Note_on_c, 7, 61, 0
9, 68608, Note_on_c, 7, 59, 83
9, 68864, Note_on_c, 7, 59, 0
9, 69120, Note_on_c, 7, 64, 80
9, 69376, Note_on_c, 7, 64, 0
9, 69632, Note_on_c, 7, 64, 79
9, 69888, Note_on_c, 7, 64, 0
9, 70144, Note_on_c, 7, 62, 78
9, 70400, Note_on_c, 7, 62, 0
9, 70656, Note_on_c, 7, 61, 77
9, 70912, Note_on_c, 7, 61, 0
9, 71168, Note_on_c, 7, 66, 75
9, 71424, Note_on_c, 7, 66, 0
9, 71680, Note_on_c, 7, 64, 74
9, 72704, Note_on_c, 7, 64, 0
9, 73216, Note_on_c, 7, 64, 64
9, 73472, Note_on_c, 7, 64, 0
9, 73472, Note_on_c, 7, 62, 64
9, 73728, Note_on_c, 7, 62, 0
9, 73728, Note_on_c, 7, 61, 64
9, 73984, Note_on_c, 7, 61, 0
9, 74240, Note_on_c, 7, 59, 64
9, 74496, Note_on_c, 7, 59, 0
9, 74752, Note_on_c, 7, 58, 64
9, 75008, Note_on_c, 7, 58, 0
9, 77312, Note_on_c, 7, 66, 64
9, 77568, Note_on_c, 7, 66, 0
9, 77824, Note_on_c, 7, 66, 61
9, 78080, Note_on_c, 7, 66, 0
9, 80384, Note_on_c, 7, 64, 55
9, 80640, Note_on_c, 7, 64, 0
9, 80896, Note_on_c, 7, 64, 54
9, 81152, Note_on_c, 7, 64, 0
9, 83456, Note_on_c, 7, 64, 48
9, 83712, Note_on_c, 7, 64, 0
9, 83968, Note_on_c, 7, 66, 60
9, 84224, Note_on_c, 7, 66, 0
9, 84480, Note_on_c, 7, 51, 42
9, 84736, Note_on_c, 7, 51, 0
9, 84992, Note_on_c, 7, 54, 45
9, 85248, Note_on_c, 7, 54, 0
9, 85504, Note_on_c, 7, 59, 49
9, 85760, Note_on_c, 7, 59, 0
9, 86016, Note_on_c, 7, 63, 52
9, 86272, Note_on_c, 7, 63, 0
9, 86528, Note_on_c, 7, 66, 55
9, 86784, Note_on_c, 7, 66, 0
9, 87040, Note_on_c, 7, 59, 69
9, 87296, Note_on_c, 7, 59, 0
9, 87552, Note_on_c, 7, 64, 47
9, 87808, Note_on_c, 7, 64, 0
9, 88064, Note_on_c, 7, 59, 52
9, 88320, Note_on_c, 7, 59, 0
9, 88576, Note_on_c, 7, 64, 57
9, 88832, Note_on_c, 7, 64, 0
9, 89088, Note_on_c, 7, 68, 62
9, 90368, Note_on_c, 7, 68, 0
9, 90624, Note_on_c, 7, 53, 54
9, 90880, Note_on_c, 7, 53, 0
9, 91136, Note_on_c, 7, 56, 59
9, 91392, Note_on_c, 7, 56, 0
9, 91648, Note_on_c, 7, 61, 64
9, 91904, Note_on_c, 7, 61, 0
9, 92160, Note_on_c, 7, 65, 70
9, 92416, Note_on_c, 7, 65, 0
9, 92672, Note_on_c, 7, 68, 75
9, 92928, Note_on_c, 7, 68, 0
9, 93184, Note_on_c, 7, 61, 80
9, 93440, Note_on_c, 7, 61, 0
9, 93696, Note_on_c, 7, 66, 64
9, 93952, Note_on_c, 7, 66, 0
9, 94208, Note_on_c, 7, 61, 69
9, 94464, Note_on_c, 7, 61, 0
9, 94720, Note_on_c, 7, 66, 75
9, 94976, Note_on_c, 7, 66, 0
9, 95232, Note_on_c, 7, 58, 80
9, 95488, Note_on_c, 7, 58, 0
9, 95744, Note_on_c, 7, 66, 85
9, 96000, Note_on_c, 7, 66, 0
9, 96256, Note_on_c, 7, 66, 91
9, 96512, Note_on_c, 7, 66, 0
9, 96768, Note_on_c, 7, 64, 90
9, 97024, Note_on_c, 7, 64, 0
9, 97280, Note_on_c, 7, 64, 92
9, 97536, Note_on_c, 7, 64, 0
9, 97792, Note_on_c, 7, 62, 94
9, 98048, Note_on_c, 7, 62, 0
9, 98304, Note_on_c, 7, 64, 97
9, 98816, Note_on_c, 7, 64, 0
9, 98816, Note_on_c, 7, 64, 99
9, 99072, Note_on_c, 7, 64, 0
9, 99328, Note_on_c, 7, 57, 101
9, 99584, Note_on_c, 7, 57, 0
9, 103936, Note_on_c, 7, 57, 40
9, 104192, Note_on_c, 7, 57, 0
9, 104448, Note_on_c, 7, 57, 45
9, 104704, Note_on_c, 7, 57, 0
9, 104960, Note_on_c, 7, 64, 50
9, 105216, Note_on_c, 7, 64, 0
9, 105472, Note_on_c, 7, 64, 55
9, 105728, Note_on_c, 7, 64, 0
9, 105984, Note_on_c, 7, 64, 55
9, 106240, Note_on_c, 7, 64, 0
9, 106496, Note_on_c, 7, 57, 55
9, 106752, Note_on_c, 7, 57, 0
9, 107008, Note_on_c, 7, 69, 56
9, 107264, Note_on_c, 7, 69, 0
9, 107520, Note_on_c, 7, 69, 57
9, 107776, Note_on_c, 7, 69, 0
9, 108032, Note_on_c, 7, 68, 57
9, 108288, Note_on_c, 7, 68, 0
9, 108544, Note_on_c, 7, 64, 58
9, 108800, Note_on_c, 7, 64, 0
9, 109056, Note_on_c, 7, 69, 58
9, 109312, Note_on_c, 7, 69, 0
9, 109568, Note_on_c, 7, 64, 59
9, 109824, Note_on_c, 7, 64, 0
9, 110080, Note_on_c, 7, 61, 59
9, 110336, Note_on_c, 7, 61, 0
9, 110592, Note_on_c, 7, 57, 60
9, 110848, Note_on_c, 7, 57, 0
9, 111104, Note_on_c, 7, 61, 61
9, 111360, Note_on_c, 7, 61, 0
9, 111616, Note_on_c, 7, 62, 61
9, 111872, Note_on_c, 7, 62, 0
9, 111872, Note_on_c, 7, 61, 61
9, 112128, Note_on_c, 7, 61, 0
9, 112128, Note_on_c, 7, 62, 61
9, 112384, Note_on_c, 7, 62, 0
9, 112384, Note_on_c, 7, 64, 60
9, 112640, Note_on_c, 7, 64, 0
9, 112640, Note_on_c, 7, 66, 60
9, 112896, Note_on_c, 7, 66, 0
9, 113152, Note_on_c, 7, 64, 59
9, 113408, Note_on_c, 7, 64, 0
9, 113664, Note_on_c, 7, 69, 58
9, 113920, Note_on_c, 7, 69, 0
9, 114176, Note_on_c, 7, 63, 57
9, 114432, Note_on_c, 7, 63, 0
9, 114688, Note_on_c, 7, 64, 56
9, 115712, Note_on_c, 7, 64, 0
9, 116224, Note_on_c, 7, 64, 54
9, 116480, Note_on_c, 7, 64, 0
9, 116736, Note_on_c, 7, 64, 55
9, 116992, Note_on_c, 7, 64, 0
9, 117248, Note_on_c, 7, 64, 56
9, 117504, Note_on_c, 7, 64, 0
9, 117760, Note_on_c, 7, 64, 57
9, 118016, Note_on_c, 7, 64, 0
9, 118272, Note_on_c, 7, 64, 57
9, 118528, Note_on_c, 7, 64, 0
9, 118784, Note_on_c, 7, 64, 58
9, 119040, Note_on_c, 7, 64, 0
9, 119296, Note_on_c, 7, 66, 59
9, 119552, Note_on_c, 7, 66, 0
9, 119808, Note_on_c, 7, 64, 60
9, 120064, Note_on_c, 7, 64, 0
9, 120320, Note_on_c, 7, 57, 60
9, 120576, Note_on_c, 7, 57, 0
9, 120832, Note_on_c, 7, 64, 61
9, 121856, Note_on_c, 7, 64, 0
9, 122368, Note_on_c, 7, 64, 47
9, 122624, Note_on_c, 7, 64, 0
9, 122624, Note_on_c, 7, 66, 48
9, 122880, Note_on_c, 7, 66, 0
9, 122880, Note_on_c, 7, 64, 50
9, 123136, Note_on_c, 7, 64, 0
9, 123392, Note_on_c, 7, 62, 52
9, 123648, Note_on_c, 7, 62, 0
9, 123904, Note_on_c, 7, 61, 55
9, 124160, Note_on_c, 7, 61, 0
9, 124416, Note_on_c, 7, 59, 47
9, 124672, Note_on_c, 7, 59, 0
9, 124928, Note_on_c, 7, 58, 48
9, 125184, Note_on_c, 7, 58, 0
9, 125440, Note_on_c, 7, 61, 50
9, 125696, Note_on_c, 7, 61, 0
9, 125952, Note_on_c, 7, 54, 51
9, 126208, Note_on_c, 7, 54, 0
9, 126464, Note_on_c, 7, 58, 52
9, 126720, Note_on_c, 7, 58, 0
9, 126976, Note_on_c, 7, 59, 54
9, 127232, Note_on_c, 7, 59, 0
9, 127488, Note_on_c, 7, 66, 46
9, 127744, Note_on_c, 7, 66, 0
9, 128000, Note_on_c, 7, 59, 49
9, 128256, Note_on_c, 7, 59, 0
9, 128512, Note_on_c, 7, 66, 51
9, 128768, Note_on_c, 7, 66, 0
9, 129024, Note_on_c, 7, 58, 53
9, 129280, Note_on_c, 7, 58, 0
9, 129536, Note_on_c, 7, 66, 56
9, 129792, Note_on_c, 7, 66, 0
9, 130048, Note_on_c, 7, 59, 58
9, 130304, Note_on_c, 7, 59, 0
9, 130560, Note_on_c, 7, 50, 60
9, 130816, Note_on_c, 7, 50, 0
9, 131072, Note_on_c, 7, 54, 62
9, 131328, Note_on_c, 7, 54, 0
9, 131584, Note_on_c, 7, 59, 65
9, 132608, Note_on_c, 7, 59, 0
9, 132608, Note_on_c, 7, 66, 64
9, 132864, Note_on_c, 7, 66, 0
9, 133120, Note_on_c, 7, 66, 64
9, 133376, Note_on_c, 7, 66, 0
9, 133632, Note_on_c, 7, 62, 57
9, 133888, Note_on_c, 7, 62, 0
9, 133888, Note_on_c, 7, 64, 55
9, 134144, Note_on_c, 7, 64, 0
9, 134144, Note_on_c, 7, 66, 53
9, 134400, Note_on_c, 7, 66, 0
9, 134656, Note_on_c, 7, 71, 44
9, 134912, Note_on_c, 7, 71, 0
9, 135168, Note_on_c, 7, 68, 47
9, 135424, Note_on_c, 7, 68, 0
9, 135680, Note_on_c, 7, 71, 50
9, 135936, Note_on_c, 7, 71, 0
9, 136192, Note_on_c, 7, 59, 53
9, 136448, Note_on_c, 7, 59, 0
9, 136704, Note_on_c, 7, 57, 46
9, 136960, Note_on_c, 7, 57, 0
9, 137216, Note_on_c, 7, 56, 47
9, 137472, Note_on_c, 7, 56, 0
9, 137728, Note_on_c, 7, 59, 48
9, 137984, Note_on_c, 7, 59, 0
9, 138240, Note_on_c, 7, 52, 49
9, 138496, Note_on_c, 7, 52, 0
9, 138752, Note_on_c, 7, 56, 50
9, 139008, Note_on_c, 7, 56, 0
9, 139264, Note_on_c, 7, 57, 52
9, 139520, Note_on_c, 7, 57, 0
9, 139776, Note_on_c, 7, 64, 53
9, 140032, Note_on_c, 7, 64, 0
9, 140288, Note_on_c, 7, 57, 54
9, 140544, Note_on_c, 7, 57, 0
9, 140800, Note_on_c, 7, 64, 55
9, 141056, Note_on_c, 7, 64, 0
9, 141312, Note_on_c, 7, 56, 57
9, 141568, Note_on_c, 7, 56, 0
9, 141824, Note_on_c, 7, 64, 58
9, 142080, Note_on_c, 7, 64, 0
9, 142336, Note_on_c, 7, 57, 59
9, 142592, Note_on_c, 7, 57, 0
9, 142848, Note_on_c, 7, 49, 60
9, 143104, Note_on_c, 7, 49, 0
9, 143360, Note_on_c, 7, 52, 61
9, 143616, Note_on_c, 7, 52, 0
9, 143872, Note_on_c, 7, 57, 63
9, 144640, Note_on_c, 7, 57, 0
9, 144896, Note_on_c, 7, 64, 67
9, 145152, Note_on_c, 7, 64, 0
9, 145408, Note_on_c, 7, 64, 70
9, 145664, Note_on_c, 7, 64, 0
9, 145920, Note_on_c, 7, 61, 74
9, 146176, Note_on_c, 7, 61, 0
9, 146176, Note_on_c, 7, 62, 76
9, 146432, Note_on_c, 7, 62, 0
9, 146432, Note_on_c, 7, 64, 78
9, 146688, Note_on_c, 7, 64, 0
9, 146688, Note_on_c, 7, 62, 79
9, 146944, Note_on_c, 7, 62, 0
9, 146944, Note_on_c, 7, 61, 81
9, 147200, Note_on_c, 7, 61, 0
9, 147200, Note_on_c, 7, 62, 83
9, 147456, Note_on_c, 7, 62, 0
9, 147456, Note_on_c, 7, 64, 85
9, 147712, Note_on_c, 7, 64, 0
9, 147712, Note_on_c, 7, 62, 87
9, 147968, Note_on_c, 7, 62, 0
9, 147968, Note_on_c, 7, 61, 89
9, 148224, Note_on_c, 7, 61, 0
9, 148224, Note_on_c, 7, 62, 90
9, 148480, Note_on_c, 7, 62, 0
9, 148480, Note_on_c, 7, 64, 92
9, 148736, Note_on_c, 7, 64, 0
9, 148992, Note_on_c, 7, 69, 96
9, 149248, Note_on_c, 7, 69, 0
9, 149504, Note_on_c, 7, 61, 98
9, 149760, Note_on_c, 7, 61, 0
9, 150016, Note_on_c, 7, 59, 99
9, 150272, Note_on_c, 7, 59, 0
9, 150528, Note_on_c, 7, 61, 100
9, 150784, Note_on_c, 7, 61, 0
9, 151040, Note_on_c, 7, 62, 102
9, 151296, Note_on_c, 7, 62, 0
9, 151552, Note_on_c, 7, 61, 103
9, 153088, Note_on_c, 7, 61, 0
9, 165376, Note_on_c, 7, 58, 50
9, 165632, Note_on_c, 7, 58, 0
9, 165888, Note_on_c, 7, 59, 58
9, 166144, Note_on_c, 7, 59, 0
9, 166400, Note_on_c, 7, 66, 66
9, 166656, Note_on_c, 7, 66, 0
9, 166912, Note_on_c, 7, 66, 74
9, 167168, Note_on_c, 7, 66, 0
9, 167424, Note_on_c, 7, 70, 68
9, 167680, Note_on_c, 7, 70, 0
9, 167936, Note_on_c, 7, 66, 68
9, 168192, Note_on_c, 7, 66, 0
9, 168448, Note_on_c, 7, 64, 69
9, 168704, Note_on_c, 7, 64, 0
9, 168960, Note_on_c, 7, 61, 69
9, 169472, Note_on_c, 7, 61, 0
9, 169472, Note_on_c, 7, 66, 70
9, 169728, Note_on_c, 7, 66, 0
9, 169984, Note_on_c, 7, 66, 71
9, 170240, Note_on_c, 7, 66, 0
9, 170240, Note_on_c, 7, 67, 71
9, 170496, Note_on_c, 7, 67, 0
9, 170496, Note_on_c, 7, 66, 71
9, 170752, Note_on_c, 7, 66, 0
9, 170752, Note_on_c, 7, 64, 72
9, 171008, Note_on_c, 7, 64, 0
9, 171008, Note_on_c, 7, 62, 72
9, 171264, Note_on_c, 7, 62, 0
9, 171520, Note_on_c, 7, 74, 72
9, 171776, Note_on_c, 7, 74, 0
9, 172032, Note_on_c, 7, 66, 73
9, 172288, Note_on_c, 7, 66, 0
9, 172544, Note_on_c, 7, 71, 74
9, 172800, Note_on_c, 7, 71, 0
9, 173056, Note_on_c, 7, 69, 74
9, 173312, Note_on_c, 7, 69, 0
9, 175616, Note_on_c, 7, 71, 69
9, 175872, Note_on_c, 7, 71, 0
9, 176128, Note_on_c, 7, 71, 73
9, 176384, Note_on_c, 7, 71, 0
9, 178688, Note_on_c, 7, 69, 66
9, 178944, Note_on_c, 7, 69, 0
9, 179200, Note_on_c, 7, 69, 69
9, 179456, Note_on_c, 7, 69, 0
9, 181760, Note_on_c, 7, 69, 69
9, 182016, Note_on_c, 7, 69, 0
9, 182272, Note_on_c, 7, 71, 72
9, 182528, Note_on_c, 7, 71, 0
9, 182784, Note_on_c, 7, 56, 38
9, 183040, Note_on_c, 7, 56, 0
9, 183296, Note_on_c, 7, 59, 42
9, 183552, Note_on_c, 7, 59, 0
9, 183808, Note_on_c, 7, 64, 46
9, 184064, Note_on_c, 7, 64, 0
9, 184320, Note_on_c, 7, 68, 50
9, 184576, Note_on_c, 7, 68, 0
9, 184832, Note_on_c, 7, 71, 54
9, 185088, Note_on_c, 7, 71, 0
9, 185344, Note_on_c, 7, 64, 58
9, 185600, Note_on_c, 7, 64, 0
9, 185856, Note_on_c, 7, 73, 46
9, 186112, Note_on_c, 7, 73, 0
9, 186368, Note_on_c, 7, 69, 50
9, 186624, Note_on_c, 7, 69, 0
9, 186880, Note_on_c, 7, 64, 54
9, 187136, Note_on_c, 7, 64, 0
9, 187392, Note_on_c, 7, 61, 58
9, 187648, Note_on_c, 7, 61, 0
9, 188928, Note_on_c, 7, 58, 53
9, 189184, Note_on_c, 7, 58, 0
9, 189440, Note_on_c, 7, 61, 57
9, 189696, Note_on_c, 7, 61, 0
9, 189952, Note_on_c, 7, 66, 62
9, 190208, Note_on_c, 7, 66, 0
9, 190464, Note_on_c, 7, 70, 66
9, 190720, Note_on_c, 7, 70, 0
9, 190976, Note_on_c, 7, 73, 71
9, 191232, Note_on_c, 7, 73, 0
9, 191488, Note_on_c, 7, 66, 75
9, 191744, Note_on_c, 7, 66, 0
9, 192000, Note_on_c, 7, 75, 59
9, 192256, Note_on_c, 7, 75, 0
9, 192512, Note_on_c, 7, 71, 64
9, 192768, Note_on_c, 7, 71, 0
9, 193024, Note_on_c, 7, 66, 69
9, 193280, Note_on_c, 7, 66, 0
9, 193536, Note_on_c, 7, 71, 73
9, 193792, Note_on_c, 7, 71, 0
9, 202240, Note_on_c, 7, 59, 43
9, 202496, Note_on_c, 7, 59, 0
9, 202752, Note_on_c, 7, 59, 45
9, 203008, Note_on_c, 7, 59, 0
9, 203264, Note_on_c, 7, 66, 48
9, 203520, Note_on_c, 7, 66, 0
9, 203776, Note_on_c, 7, 66, 50
9, 204032, Note_on_c, 7, 66, 0
9, 204288, Note_on_c, 7, 67, 51
9, 204459, Note_on_c, 7, 67, 0
9, 204459, Note_on_c, 7, 66, 51
9, 204629, Note_on_c, 7, 66, 0
9, 204629, Note_on_c, 7, 64, 51
9, 204800, Note_on_c, 7, 64, 0
9, 204800, Note_on_c, 7, 66, 52
9, 205056, Note_on_c, 7, 66, 0
9, 208384, Note_on_c, 7, 67, 46
9, 208640, Note_on_c, 7, 67, 0
9, 208896, Note_on_c, 7, 61, 49
9, 209152, Note_on_c, 7, 61, 0
9, 209408, Note_on_c, 7, 62, 52
9, 209664, Note_on_c, 7, 62, 0
9, 209920, Note_on_c, 7, 64, 55
9, 210176, Note_on_c, 7, 64, 0
9, 210432, Note_on_c, 7, 66, 43
9, 210688, Note_on_c, 7, 66, 0
9, 210944, Note_on_c, 7, 67, 44
9, 211200, Note_on_c, 7, 67, 0
9, 214528, Note_on_c, 7, 66, 52
9, 214784, Note_on_c, 7, 66, 0
9, 215040, Note_on_c, 7, 71, 53
9, 215296, Note_on_c, 7, 71, 0
9, 215552, Note_on_c, 7, 66, 54
9, 215808, Note_on_c, 7, 66, 0
9, 216064, Note_on_c, 7, 63, 55
9, 216320, Note_on_c, 7, 63, 0
9, 216576, Note_on_c, 7, 64, 58
9, 216747, Note_on_c, 7, 64, 0
9, 216747, Note_on_c, 7, 63, 59
9, 216917, Note_on_c, 7, 63, 0
9, 216917, Note_on_c, 7, 61, 60
9, 217088, Note_on_c, 7, 61, 0
9, 217088, Note_on_c, 7, 63, 61
9, 217344, Note_on_c, 7, 63, 0
9, 217600, Note_on_c, 7, 59, 65
9, 217856, Note_on_c, 7, 59, 0
9, 218112, Note_on_c, 7, 71, 68
9, 218368, Note_on_c, 7, 71, 0
9, 218624, Note_on_c, 7, 71, 71
9, 218880, Note_on_c, 7, 71, 0
9, 219136, Note_on_c, 7, 71, 74
9, 219392, Note_on_c, 7, 71, 0
9, 219392, Note_on_c, 7, 69, 76
9, 219648, Note_on_c, 7, 69, 0
9, 219648, Note_on_c, 7, 67, 77
9, 219904, Note_on_c, 7, 67, 0
9, 219904, Note_on_c, 7, 69, 79
9, 220160, Note_on_c, 7, 69, 0
9, 220160, Note_on_c, 7, 71, 81
9, 220416, Note_on_c, 7, 71, 0
9, 220672, Note_on_c, 7, 64, 83
9, 220928, Note_on_c, 7, 64, 0
9, 221184, Note_on_c, 7, 61, 80
9, 221440, Note_on_c, 7, 61, 0
9, 221696, Note_on_c, 7, 66, 77
9, 221952, Note_on_c, 7, 66, 0
9, 222208, Note_on_c, 7, 66, 74
9, 222464, Note_on_c, 7, 66, 0
9, 222464, Note_on_c, 7, 67, 72
9, 222720, Note_on_c, 7, 67, 0
9, 222720, Note_on_c, 7, 66, 71
9, 222976, Note_on_c, 7, 66, 0
9, 222976, Note_on_c, 7, 64, 69
9, 223232, Note_on_c, 7, 64, 0
9, 223232, Note_on_c, 7, 62, 67
9, 223488, Note_on_c, 7, 62, 0
9, 223744, Note_on_c, 7, 67, 64
9, 224000, Note_on_c, 7, 67, 0
9, 224256, Note_on_c, 7, 66, 61
9, 224512, Note_on_c, 7, 66, 0
9, 224768, Note_on_c, 7, 61, 58
9, 225024, Note_on_c, 7, 61, 0
9, 225280, Note_on_c, 7, 62, 55
9, 225536, Note_on_c, 7, 62, 0
9, 226304, Note_on_c, 7, 66, 30
9, 226560, Note_on_c, 7, 66, 0
9, 227328, Note_on_c, 7, 66, 30
9, 227584, Note_on_c, 7, 66, 0
9, 228352, Note_on_c, 7, 64, 38
9, 228608, Note_on_c, 7, 64, 0
9, 229376, Note_on_c, 7, 68, 30
9, 229632, Note_on_c, 7, 68, 0
9, 230400, Note_on_c, 7, 68, 30
9, 230656, Note_on_c, 7, 68, 0
9, 231424, Note_on_c, 7, 64, 39
9, 231680, Note_on_c, 7, 64, 0
9, 232448, Note_on_c, 7, 64, 30
9, 232704, Note_on_c, 7, 64, 0
9, 233472, Note_on_c, 7, 61, 30
9, 233728, Note_on_c, 7, 61, 0
9, 234496, Note_on_c, 7, 61, 36
9, 234752, Note_on_c, 7, 61, 0
9, 235520, Note_on_c, 7, 61, 30
9, 235776, Note_on_c, 7, 61, 0
9, 236544, Note_on_c, 7, 61, 30
9, 236800, Note_on_c, 7, 61, 0
9, 237568, Note_on_c, 7, 61, 38
9, 237824, Note_on_c, 7, 61, 0
9, 238592, Note_on_c, 7, 61, 30
9, 238848, Note_on_c, 7, 61, 0
9, 239616, Note_on_c, 7, 62, 30
9, 239872, Note_on_c, 7, 62, 0
9, 240640, Note_on_c, 7, 56, 39
9, 240896, Note_on_c, 7, 56, 0
9, 241664, Note_on_c, 7, 53, 30
9, 241920, Note_on_c, 7, 53, 0
9, 242688, Note_on_c, 7, 57, 30
9, 242944, Note_on_c, 7, 57, 0
9, 243712, Note_on_c, 7, 61, 39
9, 243968, Note_on_c, 7, 61, 0
9, 244736, Note_on_c, 7, 57, 31
9, 244992, Note_on_c, 7, 57, 0
9, 245760, Note_on_c, 7, 61, 31
9, 246016, Note_on_c, 7, 61, 0
9, 246784, Note_on_c, 7, 66, 38
9, 247040, Note_on_c, 7, 66, 0
9, 247808, Note_on_c, 7, 66, 31
9, 248064, Note_on_c, 7, 66, 0
9, 248832, Note_on_c, 7, 68, 31
9, 249088, Note_on_c, 7, 68, 0
9, 249856, Note_on_c, 7, 68, 38
9, 250112, Note_on_c, 7, 68, 0
9, 250880, Note_on_c, 7, 64, 31
9, 251136, Note_on_c, 7, 64, 0
9, 251904, Note_on_c, 7, 64, 31
9, 252160, Note_on_c, 7, 64, 0
9, 252928, Note_on_c, 7, 62, 38
9, 253184, Note_on_c, 7, 62, 0
9, 253952, Note_on_c, 7, 62, 31
9, 254208, Note_on_c, 7, 62, 0
9, 254976, Note_on_c, 7, 54, 31
9, 255232, Note_on_c, 7, 54, 0
9, 256000, Note_on_c, 7, 59, 38
9, 256256, Note_on_c, 7, 59, 0
9, 257024, Note_on_c, 7, 62, 31
9, 257280, Note_on_c, 7, 62, 0
9, 258048, Note_on_c, 7, 61, 31
9, 258304, Note_on_c, 7, 61, 0
9, 259072, Note_on_c, 7, 61, 36
9, 259328, Note_on_c, 7, 61, 0
9, 260096, Note_on_c, 7, 57, 31
9, 260352, Note_on_c, 7, 57, 0
9, 261120, Note_on_c, 7, 56, 31
9, 261376, Note_on_c, 7, 56, 0
9, 262144, Note_on_c, 7, 57, 40
9, 263168, Note_on_c, 7, 57, 0
9, 263680, Note_on_c, 7, 62, 96
9, 263936, Note_on_c, 7, 62, 0
9, 264192, Note_on_c, 7, 62, 99
9, 264448, Note_on_c, 7, 62, 0
9, 264704, Note_on_c, 7, 69, 103
9, 264960, Note_on_c, 7, 69, 0
9, 265216, Note_on_c, 7, 69, 106
9, 265472, Note_on_c, 7, 69, 0
9, 265728, Note_on_c, 7, 71, 95
9, 265899, Note_on_c, 7, 71, 0
9, 265899, Note_on_c, 7, 69, 95
9, 266069, Note_on_c, 7, 69, 0
9, 266069, Note_on_c, 7, 67, 96
9, 266240, Note_on_c, 7, 67, 0
9, 266240, Note_on_c, 7, 69, 97
9, 266496, Note_on_c, 7, 69, 0
9, 266752, Note_on_c, 7, 74, 100
9, 267008, Note_on_c, 7, 74, 0
9, 267264, Note_on_c, 7, 74, 103
9, 267520, Note_on_c, 7, 74, 0
9, 267776, Note_on_c, 7, 73, 105
9, 268032, Note_on_c, 7, 73, 0
9, 268288, Note_on_c, 7, 69, 108
9, 268544, Note_on_c, 7, 69, 0
9, 268800, Note_on_c, 7, 74, 91
9, 269056, Note_on_c, 7, 74, 0
9, 269312, Note_on_c, 7, 69, 94
9, 269568, Note_on_c, 7, 69, 0
9, 269824, Note_on_c, 7, 66, 97
9, 270080, Note_on_c, 7, 66, 0
9, 270336, Note_on_c, 7, 62, 99
9, 270592, Note_on_c, 7, 62, 0
9, 270848, Note_on_c, 7, 66, 102
9, 271104, Note_on_c, 7, 66, 0
9, 271360, Note_on_c, 7, 67, 104
9, 271616, Note_on_c, 7, 67, 0
9, 271616, Note_on_c, 7, 66, 106
9, 271872, Note_on_c, 7, 66, 0
9, 271872, Note_on_c, 7, 67, 95
9, 272128, Note_on_c, 7, 67, 0
9, 272128, Note_on_c, 7, 69, 95
9, 272384, Note_on_c, 7, 69, 0
9, 272384, Note_on_c, 7, 71, 96
9, 272640, Note_on_c, 7, 71, 0
9, 272896, Note_on_c, 7, 69, 98
9, 273152, Note_on_c, 7, 69, 0
9, 273408, Note_on_c, 7, 74, 100
9, 273664, Note_on_c, 7, 74, 0
9, 273920, Note_on_c, 7, 62, 102
9, 274176, Note_on_c, 7, 62, 0
9, 274432, Note_on_c, 7, 69, 104
9, 275456, Note_on_c, 7, 69, 0
9, 275968, Note_on_c, 7, 69, 95
9, 276224, Note_on_c, 7, 69, 0
9, 276480, Note_on_c, 7, 69, 96
9, 276736, Note_on_c, 7, 69, 0
9, 276992, Note_on_c, 7, 69, 98
9, 277248, Note_on_c, 7, 69, 0
9, 277504, Note_on_c, 7, 69, 99
9, 277760, Note_on_c, 7, 69, 0
9, 278016, Note_on_c, 7, 69, 100
9, 278272, Note_on_c, 7, 69, 0
9, 278528, Note_on_c, 7, 69, 102
9, 278784, Note_on_c, 7, 69, 0
9, 279040, Note_on_c, 7, 71, 103
9, 279296, Note_on_c, 7, 71, 0
9, 279552, Note_on_c, 7, 69, 105
9, 279808, Note_on_c, 7, 69, 0
9, 280064, Note_on_c, 7, 62, 106
9, 280320, Note_on_c, 7, 62, 0
9, 280576, Note_on_c, 7, 69, 108
9, 281600, Note_on_c, 7, 69, 0
9, 297472, Note_on_c, 7, 62, 96
9, 297728, Note_on_c, 7, 62, 0
9, 297984, Note_on_c, 7, 62, 97
9, 298240, Note_on_c, 7, 62, 0
9, 298496, Note_on_c, 7, 69, 99
9, 298752, Note_on_c, 7, 69, 0
9, 299008, Note_on_c, 7, 69, 100
9, 299264, Note_on_c, 7, 69, 0
9, 299520, Note_on_c, 7, 69, 94
9, 299776, Note_on_c, 7, 69, 0
9, 300032, Note_on_c, 7, 69, 95
9, 300288, Note_on_c, 7, 69, 0
9, 300544, Note_on_c, 7, 69, 96
9, 300800, Note_on_c, 7, 69, 0
9, 301056, Note_on_c, 7, 69, 97
9, 301312, Note_on_c, 7, 69, 0
9, 301568, Note_on_c, 7, 73, 98
9, 301824, Note_on_c, 7, 73, 0
9, 302080, Note_on_c, 7, 66, 99
9, 303104, Note_on_c, 7, 66, 0
9, 303616, Note_on_c, 7, 66, 99
9, 303872, Note_on_c, 7, 66, 0
9, 304128, Note_on_c, 7, 67, 99
9, 304384, Note_on_c, 7, 67, 0
9, 304640, Note_on_c, 7, 66, 99
9, 304896, Note_on_c, 7, 66, 0
9, 305152, Note_on_c, 7, 64, 99
9, 305408, Note_on_c, 7, 64, 0
9, 305664, Note_on_c, 7, 69, 99
9, 305920, Note_on_c, 7, 69, 0
9, 306176, Note_on_c, 7, 69, 99
9, 306432, Note_on_c, 7, 69, 0
9, 306688, Note_on_c, 7, 67, 99
9, 306944, Note_on_c, 7, 67, 0
9, 307200, Note_on_c, 7, 66, 98
9, 307456, Note_on_c, 7, 66, 0
9, 307712, Note_on_c, 7, 71, 98
9, 307968, Note_on_c, 7, 71, 0
9, 308224, Note_on_c, 7, 69, 98
9, 309248, Note_on_c, 7, 69, 0
9, 309760, Note_on_c, 7, 69, 98
9, 310016, Note_on_c, 7, 69, 0
9, 310016, Note_on_c, 7, 67, 98
9, 310272, Note_on_c, 7, 67, 0
9, 310272, Note_on_c, 7, 66, 98
9, 310528, Note_on_c, 7, 66, 0
9, 310784, Note_on_c, 7, 64, 98
9, 311040, Note_on_c, 7, 64, 0
9, 311296, Note_on_c, 7, 63, 98
9, 311552, Note_on_c, 7, 63, 0
9, 313856, Note_on_c, 7, 71, 97
9, 314112, Note_on_c, 7, 71, 0
9, 314368, Note_on_c, 7, 71, 97
9, 314624, Note_on_c, 7, 71, 0
9, 316928, Note_on_c, 7, 69, 96
9, 317184, Note_on_c, 7, 69, 0
9, 317440, Note_on_c, 7, 69, 96
9, 317696, Note_on_c, 7, 69, 0
9, 320000, Note_on_c, 7, 69, 96
9, 320256, Note_on_c, 7, 69, 0
9, 320512, Note_on_c, 7, 71, 67
9, 320768, Note_on_c, 7, 71, 0
9, 321024, Note_on_c, 7, 56, 69
9, 321280, Note_on_c, 7, 56, 0
9, 321536, Note_on_c, 7, 59, 72
9, 321792, Note_on_c, 7, 59, 0
9, 322048, Note_on_c, 7, 64, 75
9, 322304, Note_on_c, 7, 64, 0
9, 322560, Note_on_c, 7, 68, 77
9, 322816, Note_on_c, 7, 68, 0
9, 323072, Note_on_c, 7, 71, 80
9, 323328, Note_on_c, 7, 71, 0
9, 323584, Note_on_c, 7, 64, 83
9, 323840, Note_on_c, 7, 64, 0
9, 324096, Note_on_c, 7, 69, 59
9, 324352, Note_on_c, 7, 69, 0
9, 324608, Note_on_c, 7, 64, 63
9, 324864, Note_on_c, 7, 64, 0
9, 325120, Note_on_c, 7, 69, 66
9, 325376, Note_on_c, 7, 69, 0
9, 325632, Note_on_c, 7, 73, 70
9, 326912, Note_on_c, 7, 73, 0
9, 327168, Note_on_c, 7, 58, 73
9, 327424, Note_on_c, 7, 58, 0
9, 327680, Note_on_c, 7, 61, 76
9, 327936, Note_on_c, 7, 61, 0
9, 328192, Note_on_c, 7, 66, 79
9, 328448, Note_on_c, 7, 66, 0
9, 328704, Note_on_c, 7, 70, 82
9, 328960, Note_on_c, 7, 70, 0
9, 329216, Note_on_c, 7, 73, 85
9, 329472, Note_on_c, 7, 73, 0
9, 329728, Note_on_c, 7, 66, 88
9, 329984, Note_on_c, 7, 66, 0
9, 330240, Note_on_c, 7, 71, 80
9, 330496, Note_on_c, 7, 71, 0
9, 330752, Note_on_c, 7, 66, 84
9, 331008, Note_on_c, 7, 66, 0
9, 331264, Note_on_c, 7, 71, 88
9, 331520, Note_on_c, 7, 71, 0
9, 331776, Note_on_c, 7, 63, 92
9, 332032, Note_on_c, 7, 63, 0
9, 332288, Note_on_c, 7, 71, 96
9, 332544, Note_on_c, 7, 71, 0
9, 332800, Note_on_c, 7, 71, 100
9, 333056, Note_on_c, 7, 71, 0
9, 333312, Note_on_c, 7, 69, 99
9, 333568, Note_on_c, 7, 69, 0
9, 333824, Note_on_c, 7, 69, 100
9, 334080, Note_on_c, 7, 69, 0
9, 334336, Note_on_c, 7, 67, 101
9, 334592, Note_on_c, 7, 67, 0
9, 334848, Note_on_c, 7, 69, 102
9, 335104, Note_on_c, 7, 69, 0
9, 335360, Note_on_c, 7, 57, 104
9, 335616, Note_on_c, 7, 57, 0
9, 335872, Note_on_c, 7, 62, 105
9, 336128, Note_on_c, 7, 62, 0
9, 336128, Note_on_c, 7, 67, 105
9, 336384, Note_on_c, 7, 67, 0
9, 336384, Note_on_c, 7, 66, 106
9, 336640, Note_on_c, 7, 66, 0
9, 336640, Note_on_c, 7, 64, 106
9, 336896, Note_on_c, 7, 64, 0
9, 336896, Note_on_c, 7, 62, 107
9, 337152, Note_on_c, 7, 62, 0
9, 337408, Note_on_c, 7, 62, 108
9, 337664, Note_on_c, 7, 62, 0
9, 337920, Note_on_c, 7, 62, 109
9, 338432, Note_on_c, 7, 62, 0
9, 338432, Note_on_c, 7, 61, 110
9, 338688, Note_on_c, 7, 61, 0
9, 338944, Note_on_c, 7, 57, 111
9, 339968, Note_on_c, 7, 57, 0
9, 340480, Note_on_c, 7, 69, 47
9, 340736, Note_on_c, 7, 69, 0
9, 340736, Note_on_c, 7, 71, 47
9, 340992, Note_on_c, 7, 71, 0
9, 340992, Note_on_c, 7, 69, 47
9, 341248, Note_on_c, 7, 69, 0
9, 341504, Note_on_c, 7, 67, 47
9, 341760, Note_on_c, 7, 67, 0
9, 342016, Note_on_c, 7, 66, 47
9, 342272, Note_on_c, 7, 66, 0
9, 342528, Note_on_c, 7, 64, 47
9, 342784, Note_on_c, 7, 64, 0
9, 343040, Note_on_c, 7, 63, 47
9, 343296, Note_on_c, 7, 63, 0
9, 343552, Note_on_c, 7, 66, 47
9, 343808, Note_on_c, 7, 66, 0
9, 344064, Note_on_c, 7, 59, 47
9, 344320, Note_on_c, 7, 59, 0
9, 344576, Note_on_c, 7, 63, 47
9, 344832, Note_on_c, 7, 63, 0
9, 345088, Note_on_c, 7, 64, 47
9, 345344, Note_on_c, 7, 64, 0
9, 345600, Note_on_c, 7, 71, 47
9, 345856, Note_on_c, 7, 71, 0
9, 346112, Note_on_c, 7, 64, 47
9, 346368, Note_on_c, 7, 64, 0
9, 346624, Note_on_c, 7, 71, 47
9, 346880, Note_on_c, 7, 71, 0
9, 347136, Note_on_c, 7, 63, 47
9, 347392, Note_on_c, 7, 63, 0
9, 347648, Note_on_c, 7, 71, 47
9, 347904, Note_on_c, 7, 71, 0
9, 348160, Note_on_c, 7, 64, 47
9, 348416, Note_on_c, 7, 64, 0
9, 348672, Note_on_c, 7, 55, 47
9, 348928, Note_on_c, 7, 55, 0
9, 349184, Note_on_c, 7, 59, 47
9, 349440, Note_on_c, 7, 59, 0
9, 349696, Note_on_c, 7, 64, 47
9, 350720, Note_on_c, 7, 64, 0
9, 350720, Note_on_c, 7, 71, 47
9, 350976, Note_on_c, 7, 71, 0
9, 351232, Note_on_c, 7, 71, 47
9, 351488, Note_on_c, 7, 71, 0
9, 351744, Note_on_c, 7, 67, 47
9, 352000, Note_on_c, 7, 67, 0
9, 352000, Note_on_c, 7, 69, 47
9, 352256, Note_on_c, 7, 69, 0
9, 352256, Note_on_c, 7, 71, 47
9, 352512, Note_on_c, 7, 71, 0
9, 352768, Note_on_c, 7, 76, 47
9, 353024, Note_on_c, 7, 76, 0
9, 353280, Note_on_c, 7, 73, 47
9, 353536, Note_on_c, 7, 73, 0
9, 353792, Note_on_c, 7, 76, 47
9, 354048, Note_on_c, 7, 76, 0
9, 354304, Note_on_c, 7, 69, 47
9, 354560, Note_on_c, 7, 69, 0
9, 354816, Note_on_c, 7, 64, 47
9, 355072, Note_on_c, 7, 64, 0
9, 355328, Note_on_c, 7, 61, 47
9, 355584, Note_on_c, 7, 61, 0
9, 355840, Note_on_c, 7, 64, 47
9, 356096, Note_on_c, 7, 64, 0
9, 356352, Note_on_c, 7, 57, 47
9, 356608, Note_on_c, 7, 57, 0
9, 356864, Note_on_c, 7, 61, 47
9, 357120, Note_on_c, 7, 61, 0
9, 357376, Note_on_c, 7, 62, 47
9, 357632, Note_on_c, 7, 62, 0
9, 357888, Note_on_c, 7, 69, 47
9, 358144, Note_on_c, 7, 69, 0
9, 358400, Note_on_c, 7, 62, 47
9, 358656, Note_on_c, 7, 62, 0
9, 358912, Note_on_c, 7, 69, 47
9, 359168, Note_on_c, 7, 69, 0
9, 359424, Note_on_c, 7, 61, 47
9, 359680, Note_on_c, 7, 61, 0
9, 359936, Note_on_c, 7, 69, 47
9, 360192, Note_on_c, 7, 69, 0
9, 360448, Note_on_c, 7, 62, 47
9, 360704, Note_on_c, 7, 62, 0
9, 360960, Note_on_c, 7, 54, 47
9, 361216, Note_on_c, 7, 54, 0
9, 361472, Note_on_c, 7, 57, 47
9, 361728, Note_on_c, 7, 57, 0
9, 361984, Note_on_c, 7, 62, 47
9, 363008, Note_on_c, 7, 62, 0
9, 363008, Note_on_c, 7, 69, 47
9, 363264, Note_on_c, 7, 69, 0
9, 363520, Note_on_c, 7, 69, 47
9, 363776, Note_on_c, 7, 69, 0
9, 364032, Note_on_c, 7, 66, 47
9, 364288, Note_on_c, 7, 66, 0
9, 364288, Note_on_c, 7, 67, 47
9, 364544, Note_on_c, 7, 67, 0
9, 364544, Note_on_c, 7, 69, 47
9, 364800, Note_on_c, 7, 69, 0
9, 365056, Note_on_c, 7, 66, 47
9, 365312, Note_on_c, 7, 66, 0
9, 365568, Note_on_c, 7, 62, 47
9, 365824, Note_on_c, 7, 62, 0
9, 366080, Note_on_c, 7, 57, 47
9, 366336, Note_on_c, 7, 57, 0
9, 366592, Note_on_c, 7, 62, 47
9, 366848, Note_on_c, 7, 62, 0
9, 367104, Note_on_c, 7, 64, 47
9, 367360, Note_on_c, 7, 64, 0
9, 367616, Note_on_c, 7, 57, 47
9, 367872, Note_on_c, 7, 57, 0
9, 368128, Note_on_c, 7, 61, 47
9, 368384, Note_on_c, 7, 61, 0
9, 368640, Note_on_c, 7, 62, 47
9, 368896, Note_on_c, 7, 62, 0
9, 369152, Note_on_c, 7, 64, 47
9, 369408, Note_on_c, 7, 64, 0
9, 369664, Note_on_c, 7, 66, 48
9, 369920, Note_on_c, 7, 66, 0
9, 370176, Note_on_c, 7, 71, 52
9, 370432, Note_on_c, 7, 71, 0
9, 370432, Note_on_c, 7, 70, 54
9, 370688, Note_on_c, 7, 70, 0
9, 370688, Note_on_c, 7, 71, 56
9, 370944, Note_on_c, 7, 71, 0
9, 371200, Note_on_c, 7, 74, 60
9, 371456, Note_on_c, 7, 74, 0
9, 371712, Note_on_c, 7, 66, 64
9, 371968, Note_on_c, 7, 66, 0
9, 372224, Note_on_c, 7, 71, 69
9, 372480, Note_on_c, 7, 71, 0
9, 372736, Note_on_c, 7, 69, 73
9, 372992, Note_on_c, 7, 69, 0
9, 375296, Note_on_c, 7, 71, 63
9, 375552, Note_on_c, 7, 71, 0
9, 375808, Note_on_c, 7, 71, 66
9, 376064, Note_on_c, 7, 71, 0
9, 378368, Note_on_c, 7, 69, 63
9, 378624, Note_on_c, 7, 69, 0
9, 378880, Note_on_c, 7, 69, 66
9, 379136, Note_on_c, 7, 69, 0
9, 381440, Note_on_c, 7, 69, 62
9, 381696, Note_on_c, 7, 69, 0
9, 381952, Note_on_c, 7, 71, 35
9, 382208, Note_on_c, 7, 71, 0
9, 382464, Note_on_c, 7, 56, 39
9, 382720, Note_on_c, 7, 56, 0
9, 382976, Note_on_c, 7, 59, 43
9, 383232, Note_on_c, 7, 59, 0
9, 383488, Note_on_c, 7, 64, 47
9, 383744, Note_on_c, 7, 64, 0
9, 384000, Note_on_c, 7, 68, 51
9, 384256, Note_on_c, 7, 68, 0
9, 384512, Note_on_c, 7, 71, 56
9, 384768, Note_on_c, 7, 71, 0
9, 385024, Note_on_c, 7, 64, 60
9, 385280, Note_on_c, 7, 64, 0
9, 385536, Note_on_c, 7, 69, 47
9, 385792, Note_on_c, 7, 69, 0
9, 386048, Note_on_c, 7, 64, 52
9, 386304, Note_on_c, 7, 64, 0
9, 386560, Note_on_c, 7, 69, 56
9, 386816, Note_on_c, 7, 69, 0
9, 387072, Note_on_c, 7, 73, 60
9, 388352, Note_on_c, 7, 73, 0
9, 388608, Note_on_c, 7, 58, 60
9, 388864, Note_on_c, 7, 58, 0
9, 389120, Note_on_c, 7, 61, 65
9, 389376, Note_on_c, 7, 61, 0
9, 389632, Note_on_c, 7, 66, 70
9, 389888, Note_on_c, 7, 66, 0
9, 390144, Note_on_c, 7, 70, 75
9, 390400, Note_on_c, 7, 70, 0
9, 390656, Note_on_c, 7, 73, 80
9, 390912, Note_on_c, 7, 73, 0
9, 391168, Note_on_c, 7, 66, 85
9, 391424, Note_on_c, 7, 66, 0
9, 391680, Note_on_c, 7, 71, 85
9, 391936, Note_on_c, 7, 71, 0
9, 392192, Note_on_c, 7, 66, 89
9, 392448, Note_on_c, 7, 66, 0
9, 392704, Note_on_c, 7, 71, 93
9, 392960, Note_on_c, 7, 71, 0
9, 393216, Note_on_c, 7, 63, 97
9, 393472, Note_on_c, 7, 63, 0
9, 393728, Note_on_c, 7, 71, 100
9, 393984, Note_on_c, 7, 71, 0
9, 394240, Note_on_c, 7, 71, 104
9, 394496, Note_on_c, 7, 71, 0
9, 394752, Note_on_c, 7, 69, 106
9, 395008, Note_on_c, 7, 69, 0
9, 395264, Note_on_c, 7, 69, 107
9, 395520, Note_on_c, 7, 69, 0
9, 395776, Note_on_c, 7, 67, 108
9, 396032, Note_on_c, 7, 67, 0
9, 396288, Note_on_c, 7, 69, 109
9, 396544, Note_on_c, 7, 69, 0
9, 396800, Note_on_c, 7, 69, 110
9, 397056, Note_on_c, 7, 69, 0
9, 397312, Note_on_c, 7, 66, 111
9, 397568, Note_on_c, 7, 66, 0
9, 397824, Note_on_c, 7, 69, 112
9, 398080, Note_on_c, 7, 69, 0
9, 398336, Note_on_c, 7, 62, 113
9, 398592, Note_on_c, 7, 62, 0
9, 398848, Note_on_c, 7, 71, 114
9, 399104, Note_on_c, 7, 71, 0
9, 399360, Note_on_c, 7, 61, 115
9, 399616, Note_on_c, 7, 61, 0
9, 399872, Note_on_c, 7, 64, 116
9, 400128, Note_on_c, 7, 64, 0
9, 400384, Note_on_c, 7, 66, 117
9, 403456, Note_on_c, 7, 66, 0
9, 409600, End_track
10, 0, Start_track
10, 0, Title_t, "Cello"
10, 0, Program_c, 8, 48
10, 0, Control_c, 8, 121, 127
10, 0, Control_c, 8, 91, 127
10, 0, Control_c, 8, 10, 90
10, 0, Control_c, 8, 1, 10
10, 2560, Note_on_c, 8, 50, 91
10, 2816, Note_on_c, 8, 50, 0
10, 3072, Note_on_c, 8, 54, 92
10, 3328, Note_on_c, 8, 54, 0
10, 3584, Note_on_c, 8, 57, 94
10, 3840, Note_on_c, 8, 57, 0
10, 4096, Note_on_c, 8, 62, 96
10, 5120, Note_on_c, 8, 62, 0
10, 5632, Note_on_c, 8, 55, 96
10, 6144, Note_on_c, 8, 55, 0
10, 6144, Note_on_c, 8, 57, 96
10, 6400, Note_on_c, 8, 57, 0
10, 6656, Note_on_c, 8, 45, 96
10, 6912, Note_on_c, 8, 45, 0
10, 7168, Note_on_c, 8, 50, 96
10, 7424, Note_on_c, 8, 50, 0
10, 8192, Note_on_c, 8, 38, 96
10, 8448, Note_on_c, 8, 38, 0
10, 9216, Note_on_c, 8, 50, 96
10, 9472, Note_on_c, 8, 50, 0
10, 10240, Note_on_c, 8, 55, 96
10, 10496, Note_on_c, 8, 55, 0
10, 10752, Note_on_c, 8, 54, 96
10, 11008, Note_on_c, 8, 54, 0
10, 11264, Note_on_c, 8, 52, 96
10, 11520, Note_on_c, 8, 52, 0
10, 11776, Note_on_c, 8, 49, 96
10, 12032, Note_on_c, 8, 49, 0
10, 12288, Note_on_c, 8, 50, 96
10, 12544, Note_on_c, 8, 50, 0
10, 12800, Note_on_c, 8, 47, 96
10, 13056, Note_on_c, 8, 47, 0
10, 13312, Note_on_c, 8, 45, 96
10, 14336, Note_on_c, 8, 45, 0
10, 14848, Note_on_c, 8, 57, 96
10, 15104, Note_on_c, 8, 57, 0
10, 15104, Note_on_c, 8, 55, 95
10, 15360, Note_on_c, 8, 55, 0
10, 15360, Note_on_c, 8, 54, 94
10, 15616, Note_on_c, 8, 54, 0
10, 15872, Note_on_c, 8, 57, 92
10, 16128, Note_on_c, 8, 57, 0
10, 16384, Note_on_c, 8, 50, 91
10, 16640, Note_on_c, 8, 50, 0
10, 16896, Note_on_c, 8, 57, 89
10, 17152, Note_on_c, 8, 57, 0
10, 17408, Note_on_c, 8, 62, 87
10, 17664, Note_on_c, 8, 62, 0
10, 17920, Note_on_c, 8, 59, 86
10, 18176, Note_on_c, 8, 59, 0
10, 18432, Note_on_c, 8, 54, 84
10, 18688, Note_on_c, 8, 54, 0
10, 18944, Note_on_c, 8, 55, 82
10, 19200, Note_on_c, 8, 55, 0
10, 19456, Note_on_c, 8, 57, 79
10, 19712, Note_on_c, 8, 57, 0
10, 19968, Note_on_c, 8, 59, 81
10, 20224, Note_on_c, 8, 59, 0
10, 20480, Note_on_c, 8, 61, 84
10, 20736, Note_on_c, 8, 61, 0
10, 20992, Note_on_c, 8, 59, 86
10, 21248, Note_on_c, 8, 59, 0
10, 21504, Note_on_c, 8, 57, 89
10, 21760, Note_on_c, 8, 57, 0
10, 22016, Note_on_c, 8, 59, 91
10, 22272, Note_on_c, 8, 59, 0
10, 22528, Note_on_c, 8, 61, 94
10, 22784, Note_on_c, 8, 61, 0
10, 23040, Note_on_c, 8, 57, 96
10, 23296, Note_on_c, 8, 57, 0
10, 23552, Note_on_c, 8, 54, 98
10, 23808, Note_on_c, 8, 54, 0
10, 24064, Note_on_c, 8, 50, 101
10, 24320, Note_on_c, 8, 50, 0
10, 24576, Note_on_c, 8, 52, 103
10, 24832, Note_on_c, 8, 52, 0
10, 25088, Note_on_c, 8, 40, 106
10, 25344, Note_on_c, 8, 40, 0
10, 25600, Note_on_c, 8, 45, 108
10, 25856, Note_on_c, 8, 45, 0
10, 26112, Note_on_c, 8, 57, 64
10, 26368, Note_on_c, 8, 57, 0
10, 26368, Note_on_c, 8, 59, 82
10, 26624, Note_on_c, 8, 59, 0
10, 26624, Note_on_c, 8, 57, 78
10, 26880, Note_on_c, 8, 57, 0
10, 27136, Note_on_c, 8, 55, 70
10, 27392, Note_on_c, 8, 55, 0
10, 27648, Note_on_c, 8, 54, 63
10, 27904, Note_on_c, 8, 54, 0
10, 28160, Note_on_c, 8, 52, 55
10, 28416, Note_on_c, 8, 52, 0
10, 28672, Note_on_c, 8, 50, 47
10, 29696, Note_on_c, 8, 50, 0
10, 31744, Note_on_c, 8, 38, 50
10, 32768, Note_on_c, 8, 38, 0
10, 34816, Note_on_c, 8, 50, 60
10, 35840, Note_on_c, 8, 50, 0
10, 37888, Note_on_c, 8, 38, 70
10, 38912, Note_on_c, 8, 38, 0
10, 40960, Note_on_c, 8, 50, 81
10, 41984, Note_on_c, 8, 50, 0
10, 42496, Note_on_c, 8, 50, 97
10, 42752, Note_on_c, 8, 50, 0
10, 43008, Note_on_c, 8, 54, 99
10, 43264, Note_on_c, 8, 54, 0
10, 43520, Note_on_c, 8, 57, 101
10, 43776, Note_on_c, 8, 57, 0
10, 44032, Note_on_c, 8, 62, 104
10, 45056, Note_on_c, 8, 62, 0
10, 45568, Note_on_c, 8, 55, 96
10, 45824, Note_on_c, 8, 55, 0
10, 46080, Note_on_c, 8, 57, 95
10, 46336, Note_on_c, 8, 57, 0
10, 46592, Note_on_c, 8, 45, 94
10, 46848, Note_on_c, 8, 45, 0
10, 47104, Note_on_c, 8, 50, 93
10, 47360, Note_on_c, 8, 50, 0
10, 48128, Note_on_c, 8, 38, 60
10, 48384, Note_on_c, 8, 38, 0
10, 49152, Note_on_c, 8, 50, 63
10, 49408, Note_on_c, 8, 50, 0
10, 50688, Note_on_c, 8, 54, 68
10, 50944, Note_on_c, 8, 54, 0
10, 50944, Note_on_c, 8, 52, 69
10, 51200, Note_on_c, 8, 52, 0
10, 51200, Note_on_c, 8, 54, 69
10, 51456, Note_on_c, 8, 54, 0
10, 51712, Note_on_c, 8, 57, 71
10, 51968, Note_on_c, 8, 57, 0
10, 52224, Note_on_c, 8, 54, 72
10, 52480, Note_on_c, 8, 54, 0
10, 52736, Note_on_c, 8, 50, 74
10, 52992, Note_on_c, 8, 50, 0
10, 53248, Note_on_c, 8, 43, 75
10, 53504, Note_on_c, 8, 43, 0
10, 53760, Note_on_c, 8, 55, 77
10, 54016, Note_on_c, 8, 55, 0
10, 54016, Note_on_c, 8, 54, 78
10, 54272, Note_on_c, 8, 54, 0
10, 54272, Note_on_c, 8, 55, 78
10, 54528, Note_on_c, 8, 55, 0
10, 54784, Note_on_c, 8, 59, 80
10, 55040, Note_on_c, 8, 59, 0
10, 55296, Note_on_c, 8, 52, 81
10, 55552, Note_on_c, 8, 52, 0
10, 55808, Note_on_c, 8, 55, 83
10, 56064, Note_on_c, 8, 55, 0
10, 56320, Note_on_c, 8, 57, 84
10, 56576, Note_on_c, 8, 57, 0
10, 56832, Note_on_c, 8, 55, 86
10, 57088, Note_on_c, 8, 55, 0
10, 57344, Note_on_c, 8, 54, 87
10, 57600, Note_on_c, 8, 54, 0
10, 57856, Note_on_c, 8, 52, 89
10, 58112, Note_on_c, 8, 52, 0
10, 58368, Note_on_c, 8, 54, 90
10, 58624, Note_on_c, 8, 54, 0
10, 58880, Note_on_c, 8, 50, 92
10, 59136, Note_on_c, 8, 50, 0
10, 59392, Note_on_c, 8, 57, 93
10, 60416, Note_on_c, 8, 57, 0
10, 60928, Note_on_c, 8, 52, 78
10, 61184, Note_on_c, 8, 52, 0
10, 61440, Note_on_c, 8, 49, 78
10, 61696, Note_on_c, 8, 49, 0
10, 61952, Note_on_c, 8, 52, 78
10, 62208, Note_on_c, 8, 52, 0
10, 62464, Note_on_c, 8, 45, 78
10, 62720, Note_on_c, 8, 45, 0
10, 62976, Note_on_c, 8, 52, 78
10, 63232, Note_on_c, 8, 52, 0
10, 63488, Note_on_c, 8, 57, 78
10, 63744, Note_on_c, 8, 57, 0
10, 64000, Note_on_c, 8, 59, 78
10, 64256, Note_on_c, 8, 59, 0
10, 64512, Note_on_c, 8, 57, 78
10, 64768, Note_on_c, 8, 57, 0
10, 65024, Note_on_c, 8, 56, 78
10, 65280, Note_on_c, 8, 56, 0
10, 65536, Note_on_c, 8, 54, 78
10, 65792, Note_on_c, 8, 54, 0
10, 66048, Note_on_c, 8, 42, 78
10, 66304, Note_on_c, 8, 42, 0
10, 66560, Note_on_c, 8, 54, 78
10, 66816, Note_on_c, 8, 54, 0
10, 67072, Note_on_c, 8, 57, 78
10, 67328, Note_on_c, 8, 57, 0
10, 67584, Note_on_c, 8, 50, 78
10, 67840, Note_on_c, 8, 50, 0
10, 68096, Note_on_c, 8, 54, 78
10, 68352, Note_on_c, 8, 54, 0
10, 68608, Note_on_c, 8, 47, 78
10, 68864, Note_on_c, 8, 47, 0
10, 69120, Note_on_c, 8, 50, 78
10, 69376, Note_on_c, 8, 50, 0
10, 69632, Note_on_c, 8, 49, 78
10, 69888, Note_on_c, 8, 49, 0
10, 70144, Note_on_c, 8, 47, 78
10, 70400, Note_on_c, 8, 47, 0
10, 70656, Note_on_c, 8, 49, 78
10, 70912, Note_on_c, 8, 49, 0
10, 71168, Note_on_c, 8, 50, 78
10, 71424, Note_on_c, 8, 50, 0
10, 71680, Note_on_c, 8, 52, 73
10, 71936, Note_on_c, 8, 52, 0
10, 72192, Note_on_c, 8, 56, 69
10, 72448, Note_on_c, 8, 56, 0
10, 72448, Note_on_c, 8, 54, 67
10, 72704, Note_on_c, 8, 54, 0
10, 72704, Note_on_c, 8, 52, 65
10, 72960, Note_on_c, 8, 52, 0
10, 73216, Note_on_c, 8, 40, 60
10, 73472, Note_on_c, 8, 40, 0
10, 73728, Note_on_c, 8, 52, 37
10, 73984, Note_on_c, 8, 52, 0
10, 74240, Note_on_c, 8, 50, 37
10, 74496, Note_on_c, 8, 50, 0
10, 74752, Note_on_c, 8, 49, 37
10, 75008, Note_on_c, 8, 49, 0
10, 75264, Note_on_c, 8, 47, 37
10, 75520, Note_on_c, 8, 47, 0
10, 75776, Note_on_c, 8, 46, 38
10, 76032, Note_on_c, 8, 46, 0
10, 76288, Note_on_c, 8, 49, 38
10, 76544, Note_on_c, 8, 49, 0
10, 76800, Note_on_c, 8, 42, 38
10, 77056, Note_on_c, 8, 42, 0
10, 77312, Note_on_c, 8, 46, 38
10, 77568, Note_on_c, 8, 46, 0
10, 77824, Note_on_c, 8, 47, 39
10, 78080, Note_on_c, 8, 47, 0
10, 78336, Note_on_c, 8, 45, 39
10, 78592, Note_on_c, 8, 45, 0
10, 78848, Note_on_c, 8, 44, 39
10, 79104, Note_on_c, 8, 44, 0
10, 79360, Note_on_c, 8, 47, 39
10, 79616, Note_on_c, 8, 47, 0
10, 79872, Note_on_c, 8, 40, 40
10, 80128, Note_on_c, 8, 40, 0
10, 80384, Note_on_c, 8, 44, 40
10, 80640, Note_on_c, 8, 44, 0
10, 80896, Note_on_c, 8, 45, 40
10, 81152, Note_on_c, 8, 45, 0
10, 81408, Note_on_c, 8, 44, 40
10, 81664, Note_on_c, 8, 44, 0
10, 81920, Note_on_c, 8, 42, 41
10, 82176, Note_on_c, 8, 42, 0
10, 82432, Note_on_c, 8, 45, 41
10, 82688, Note_on_c, 8, 45, 0
10, 82944, Note_on_c, 8, 37, 41
10, 83200, Note_on_c, 8, 37, 0
10, 83456, Note_on_c, 8, 40, 41
10, 83712, Note_on_c, 8, 40, 0
10, 83968, Note_on_c, 8, 39, 48
10, 84224, Note_on_c, 8, 39, 0
10, 84480, Note_on_c, 8, 39, 42
10, 84736, Note_on_c, 8, 39, 0
10, 84992, Note_on_c, 8, 39, 43
10, 85248, Note_on_c, 8, 39, 0
10, 85504, Note_on_c, 8, 39, 45
10, 85760, Note_on_c, 8, 39, 0
10, 86016, Note_on_c, 8, 39, 46
10, 86272, Note_on_c, 8, 39, 0
10, 86528, Note_on_c, 8, 39, 47
10, 86784, Note_on_c, 8, 39, 0
10, 87040, Note_on_c, 8, 40, 59
10, 87296, Note_on_c, 8, 40, 0
10, 87552, Note_on_c, 8, 40, 51
10, 87808, Note_on_c, 8, 40, 0
10, 88064, Note_on_c, 8, 40, 53
10, 88320, Note_on_c, 8, 40, 0
10, 88576, Note_on_c, 8, 40, 55
10, 88832, Note_on_c, 8, 40, 0
10, 89088, Note_on_c, 8, 40, 57
10, 89344, Note_on_c, 8, 40, 0
10, 89600, Note_on_c, 8, 40, 59
10, 89856, Note_on_c, 8, 40, 0
10, 90112, Note_on_c, 8, 41, 72
10, 90368, Note_on_c, 8, 41, 0
10, 90624, Note_on_c, 8, 41, 61
10, 90880, Note_on_c, 8, 41, 0
10, 91136, Note_on_c, 8, 41, 63
10, 91392, Note_on_c, 8, 41, 0
10, 91648, Note_on_c, 8, 41, 65
10, 91904, Note_on_c, 8, 41, 0
10, 92160, Note_on_c, 8, 41, 67
10, 92416, Note_on_c, 8, 41, 0
10, 92672, Note_on_c, 8, 41, 69
10, 92928, Note_on_c, 8, 41, 0
10, 93184, Note_on_c, 8, 42, 87
10, 93440, Note_on_c, 8, 42, 0
10, 93696, Note_on_c, 8, 42, 72
10, 93952, Note_on_c, 8, 42, 0
10, 94208, Note_on_c, 8, 42, 75
10, 94464, Note_on_c, 8, 42, 0
10, 94720, Note_on_c, 8, 42, 78
10, 94976, Note_on_c, 8, 42, 0
10, 95232, Note_on_c, 8, 42, 81
10, 95488, Note_on_c, 8, 42, 0
10, 95744, Note_on_c, 8, 42, 84
10, 96000, Note_on_c, 8, 42, 0
10, 96256, Note_on_c, 8, 47, 87
10, 96512, Note_on_c, 8, 47, 0
10, 96768, Note_on_c, 8, 56, 90
10, 97024, Note_on_c, 8, 56, 0
10, 97280, Note_on_c, 8, 57, 93
10, 97536, Note_on_c, 8, 57, 0
10, 97792, Note_on_c, 8, 47, 96
10, 98048, Note_on_c, 8, 47, 0
10, 98304, Note_on_c, 8, 49, 99
10, 98816, Note_on_c, 8, 49, 0
10, 98816, Note_on_c, 8, 52, 102
10, 99072, Note_on_c, 8, 52, 0
10, 99328, Note_on_c, 8, 54, 105
10, 99584, Note_on_c, 8, 54, 0
10, 99840, Note_on_c, 8, 52, 106
10, 100096, Note_on_c, 8, 52, 0
10, 100096, Note_on_c, 8, 50, 106
10, 100352, Note_on_c, 8, 50, 0
10, 100352, Note_on_c, 8, 49, 107
10, 100608, Note_on_c, 8, 49, 0
10, 100864, Note_on_c, 8, 50, 107
10, 101120, Note_on_c, 8, 50, 0
10, 101376, Note_on_c, 8, 52, 108
10, 101632, Note_on_c, 8, 52, 0
10, 101888, Note_on_c, 8, 40, 108
10, 102144, Note_on_c, 8, 40, 0
10, 102400, Note_on_c, 8, 45, 109
10, 103424, Note_on_c, 8, 45, 0
10, 103936, Note_on_c, 8, 45, 76
10, 104192, Note_on_c, 8, 45, 0
10, 104448, Note_on_c, 8, 49, 75
10, 104704, Note_on_c, 8, 49, 0
10, 104960, Note_on_c, 8, 52, 74
10, 105216, Note_on_c, 8, 52, 0
10, 105472, Note_on_c, 8, 57, 73
10, 105728, Note_on_c, 8, 57, 0
10, 105984, Note_on_c, 8, 56, 72
10, 106240, Note_on_c, 8, 56, 0
10, 106496, Note_on_c, 8, 54, 71
10, 106752, Note_on_c, 8, 54, 0
10, 107008, Note_on_c, 8, 50, 71
10, 107264, Note_on_c, 8, 50, 0
10, 107520, Note_on_c, 8, 52, 70
10, 107776, Note_on_c, 8, 52, 0
10, 108032, Note_on_c, 8, 40, 69
10, 108288, Note_on_c, 8, 40, 0
10, 108544, Note_on_c, 8, 45, 68
10, 108800, Note_on_c, 8, 45, 0
10, 109568, Note_on_c, 8, 57, 66
10, 109824, Note_on_c, 8, 57, 0
10, 110592, Note_on_c, 8, 45, 64
10, 110848, Note_on_c, 8, 45, 0
10, 111616, Note_on_c, 8, 50, 65
10, 111872, Note_on_c, 8, 50, 0
10, 112128, Note_on_c, 8, 49, 65
10, 112384, Note_on_c, 8, 49, 0
10, 112640, Note_on_c, 8, 47, 65
10, 112896, Note_on_c, 8, 47, 0
10, 113152, Note_on_c, 8, 44, 64
10, 113408, Note_on_c, 8, 44, 0
10, 113664, Note_on_c, 8, 45, 64
10, 113920, Note_on_c, 8, 45, 0
10, 114176, Note_on_c, 8, 42, 63
10, 114432, Note_on_c, 8, 42, 0
10, 114688, Note_on_c, 8, 40, 63
10, 115712, Note_on_c, 8, 40, 0
10, 116224, Note_on_c, 8, 52, 52
10, 116480, Note_on_c, 8, 52, 0
10, 116480, Note_on_c, 8, 50, 53
10, 116736, Note_on_c, 8, 50, 0
10, 116736, Note_on_c, 8, 49, 54
10, 116992, Note_on_c, 8, 49, 0
10, 117248, Note_on_c, 8, 52, 56
10, 117504, Note_on_c, 8, 52, 0
10, 117760, Note_on_c, 8, 45, 58
10, 118016, Note_on_c, 8, 45, 0
10, 118272, Note_on_c, 8, 52, 60
10, 118528, Note_on_c, 8, 52, 0
10, 118784, Note_on_c, 8, 57, 58
10, 119040, Note_on_c, 8, 57, 0
10, 119296, Note_on_c, 8, 54, 56
10, 119552, Note_on_c, 8, 54, 0
10, 119808, Note_on_c, 8, 49, 55
10, 120064, Note_on_c, 8, 49, 0
10, 120320, Note_on_c, 8, 50, 53
10, 120576, Note_on_c, 8, 50, 0
10, 120832, Note_on_c, 8, 52, 51
10, 121088, Note_on_c, 8, 52, 0
10, 121344, Note_on_c, 8, 47, 50
10, 121600, Note_on_c, 8, 47, 0
10, 121856, Note_on_c, 8, 40, 48
10, 122112, Note_on_c, 8, 40, 0
10, 131584, Note_on_c, 8, 47, 90
10, 131840, Note_on_c, 8, 47, 0
10, 132096, Note_on_c, 8, 50, 93
10, 132352, Note_on_c, 8, 50, 0
10, 132608, Note_on_c, 8, 54, 96
10, 132864, Note_on_c, 8, 54, 0
10, 133120, Note_on_c, 8, 59, 98
10, 133376, Note_on_c, 8, 59, 0
10, 133632, Note_on_c, 8, 54, 99
10, 133888, Note_on_c, 8, 54, 0
10, 134144, Note_on_c, 8, 47, 96
10, 134400, Note_on_c, 8, 47, 0
10, 143872, Note_on_c, 8, 45, 47
10, 144128, Note_on_c, 8, 45, 0
10, 144384, Note_on_c, 8, 49, 49
10, 144640, Note_on_c, 8, 49, 0
10, 144896, Note_on_c, 8, 52, 51
10, 145152, Note_on_c, 8, 52, 0
10, 145408, Note_on_c, 8, 57, 54
10, 145664, Note_on_c, 8, 57, 0
10, 145920, Note_on_c, 8, 52, 56
10, 146176, Note_on_c, 8, 52, 0
10, 146432, Note_on_c, 8, 45, 56
10, 146688, Note_on_c, 8, 45, 0
10, 146944, Note_on_c, 8, 57, 56
10, 147200, Note_on_c, 8, 57, 0
10, 147200, Note_on_c, 8, 56, 56
10, 147456, Note_on_c, 8, 56, 0
10, 147456, Note_on_c, 8, 57, 56
10, 147712, Note_on_c, 8, 57, 0
10, 147968, Note_on_c, 8, 61, 56
10, 148224, Note_on_c, 8, 61, 0
10, 148224, Note_on_c, 8, 59, 56
10, 148480, Note_on_c, 8, 59, 0
10, 148480, Note_on_c, 8, 61, 56
10, 148736, Note_on_c, 8, 61, 0
10, 148992, Note_on_c, 8, 57, 56
10, 149248, Note_on_c, 8, 57, 0
10, 149504, Note_on_c, 8, 54, 56
10, 149760, Note_on_c, 8, 54, 0
10, 150016, Note_on_c, 8, 50, 56
10, 150272, Note_on_c, 8, 50, 0
10, 150528, Note_on_c, 8, 52, 56
10, 150784, Note_on_c, 8, 52, 0
10, 151040, Note_on_c, 8, 40, 56
10, 151296, Note_on_c, 8, 40, 0
10, 151552, Note_on_c, 8, 45, 56
10, 151808, Note_on_c, 8, 45, 0
10, 152064, Note_on_c, 8, 52, 56
10, 152320, Note_on_c, 8, 52, 0
10, 152576, Note_on_c, 8, 57, 56
10, 152832, Note_on_c, 8, 57, 0
10, 153088, Note_on_c, 8, 52, 56
10, 153344, Note_on_c, 8, 52, 0
10, 153600, Note_on_c, 8, 49, 56
10, 153856, Note_on_c, 8, 49, 0
10, 154112, Note_on_c, 8, 52, 56
10, 154368, Note_on_c, 8, 52, 0
10, 154624, Note_on_c, 8, 45, 56
10, 154880, Note_on_c, 8, 45, 0
10, 155136, Note_on_c, 8, 52, 56
10, 155392, Note_on_c, 8, 52, 0
10, 155648, Note_on_c, 8, 57, 56
10, 155904, Note_on_c, 8, 57, 0
10, 156160, Note_on_c, 8, 55, 56
10, 156416, Note_on_c, 8, 55, 0
10, 156672, Note_on_c, 8, 54, 56
10, 156928, Note_on_c, 8, 54, 0
10, 157184, Note_on_c, 8, 52, 56
10, 157440, Note_on_c, 8, 52, 0
10, 157696, Note_on_c, 8, 50, 56
10, 157952, Note_on_c, 8, 50, 0
10, 158208, Note_on_c, 8, 45, 56
10, 158464, Note_on_c, 8, 45, 0
10, 158720, Note_on_c, 8, 38, 56
10, 158976, Note_on_c, 8, 38, 0
10, 159232, Note_on_c, 8, 47, 56
10, 159488, Note_on_c, 8, 47, 0
10, 159744, Note_on_c, 8, 52, 56
10, 160000, Note_on_c, 8, 52, 0
10, 160256, Note_on_c, 8, 54, 56
10, 160512, Note_on_c, 8, 54, 0
10, 160768, Note_on_c, 8, 55, 56
10, 161024, Note_on_c, 8, 55, 0
10, 161280, Note_on_c, 8, 54, 56
10, 161536, Note_on_c, 8, 54, 0
10, 161792, Note_on_c, 8, 55, 56
10, 162048, Note_on_c, 8, 55, 0
10, 162304, Note_on_c, 8, 52, 56
10, 162560, Note_on_c, 8, 52, 0
10, 162816, Note_on_c, 8, 49, 56
10, 163072, Note_on_c, 8, 49, 0
10, 163328, Note_on_c, 8, 52, 56
10, 163584, Note_on_c, 8, 52, 0
10, 163840, Note_on_c, 8, 54, 56
10, 164096, Note_on_c, 8, 54, 0
10, 164352, Note_on_c, 8, 49, 56
10, 164608, Note_on_c, 8, 49, 0
10, 164864, Note_on_c, 8, 42, 56
10, 165120, Note_on_c, 8, 42, 0
10, 165376, Note_on_c, 8, 54, 56
10, 165632, Note_on_c, 8, 54, 0
10, 165888, Note_on_c, 8, 56, 56
10, 166144, Note_on_c, 8, 56, 0
10, 166400, Note_on_c, 8, 58, 56
10, 166656, Note_on_c, 8, 58, 0
10, 166912, Note_on_c, 8, 59, 56
10, 167168, Note_on_c, 8, 59, 0
10, 167424, Note_on_c, 8, 54, 56
10, 167680, Note_on_c, 8, 54, 0
10, 167936, Note_on_c, 8, 50, 56
10, 168192, Note_on_c, 8, 50, 0
10, 168448, Note_on_c, 8, 52, 56
10, 168704, Note_on_c, 8, 52, 0
10, 168960, Note_on_c, 8, 54, 56
10, 169472, Note_on_c, 8, 54, 0
10, 169472, Note_on_c, 8, 42, 56
10, 169728, Note_on_c, 8, 42, 0
10, 169984, Note_on_c, 8, 47, 56
10, 170240, Note_on_c, 8, 47, 0
10, 170496, Note_on_c, 8, 54, 57
10, 170752, Note_on_c, 8, 54, 0
10, 171008, Note_on_c, 8, 59, 58
10, 171264, Note_on_c, 8, 59, 0
10, 171520, Note_on_c, 8, 47, 58
10, 171776, Note_on_c, 8, 47, 0
10, 172032, Note_on_c, 8, 45, 59
10, 172288, Note_on_c, 8, 45, 0
10, 172544, Note_on_c, 8, 43, 59
10, 172800, Note_on_c, 8, 43, 0
10, 173056, Note_on_c, 8, 42, 60
10, 173312, Note_on_c, 8, 42, 0
10, 173568, Note_on_c, 8, 49, 60
10, 173824, Note_on_c, 8, 49, 0
10, 174080, Note_on_c, 8, 51, 64
10, 174336, Note_on_c, 8, 51, 0
10, 174592, Note_on_c, 8, 54, 69
10, 174848, Note_on_c, 8, 54, 0
10, 175104, Note_on_c, 8, 47, 73
10, 175360, Note_on_c, 8, 47, 0
10, 175616, Note_on_c, 8, 51, 78
10, 175872, Note_on_c, 8, 51, 0
10, 176128, Note_on_c, 8, 52, 82
10, 176384, Note_on_c, 8, 52, 0
10, 176640, Note_on_c, 8, 50, 84
10, 176896, Note_on_c, 8, 50, 0
10, 177152, Note_on_c, 8, 49, 85
10, 177408, Note_on_c, 8, 49, 0
10, 177664, Note_on_c, 8, 52, 87
10, 177920, Note_on_c, 8, 52, 0
10, 178176, Note_on_c, 8, 45, 88
10, 178432, Note_on_c, 8, 45, 0
10, 178688, Note_on_c, 8, 49, 89
10, 178944, Note_on_c, 8, 49, 0
10, 179200, Note_on_c, 8, 50, 90
10, 179456, Note_on_c, 8, 50, 0
10, 179712, Note_on_c, 8, 49, 91
10, 179968, Note_on_c, 8, 49, 0
10, 180224, Note_on_c, 8, 47, 93
10, 180480, Note_on_c, 8, 47, 0
10, 180736, Note_on_c, 8, 50, 94
10, 180992, Note_on_c, 8, 50, 0
10, 181248, Note_on_c, 8, 42, 95
10, 181504, Note_on_c, 8, 42, 0
10, 181760, Note_on_c, 8, 45, 96
10, 182016, Note_on_c, 8, 45, 0
10, 182272, Note_on_c, 8, 44, 83
10, 182528, Note_on_c, 8, 44, 0
10, 182784, Note_on_c, 8, 44, 45
10, 183040, Note_on_c, 8, 44, 0
10, 183296, Note_on_c, 8, 44, 48
10, 183552, Note_on_c, 8, 44, 0
10, 183808, Note_on_c, 8, 44, 51
10, 184064, Note_on_c, 8, 44, 0
10, 184320, Note_on_c, 8, 44, 53
10, 184576, Note_on_c, 8, 44, 0
10, 184832, Note_on_c, 8, 44, 56
10, 185088, Note_on_c, 8, 44, 0
10, 185344, Note_on_c, 8, 45, 68
10, 185600, Note_on_c, 8, 45, 0
10, 185856, Note_on_c, 8, 45, 60
10, 186112, Note_on_c, 8, 45, 0
10, 186368, Note_on_c, 8, 45, 62
10, 186624, Note_on_c, 8, 45, 0
10, 186880, Note_on_c, 8, 45, 64
10, 187136, Note_on_c, 8, 45, 0
10, 187392, Note_on_c, 8, 45, 66
10, 187648, Note_on_c, 8, 45, 0
10, 187904, Note_on_c, 8, 45, 68
10, 188160, Note_on_c, 8, 45, 0
10, 188416, Note_on_c, 8, 46, 82
10, 188672, Note_on_c, 8, 46, 0
10, 188928, Note_on_c, 8, 46, 72
10, 189184, Note_on_c, 8, 46, 0
10, 189440, Note_on_c, 8, 46, 75
10, 189696, Note_on_c, 8, 46, 0
10, 189952, Note_on_c, 8, 46, 77
10, 190208, Note_on_c, 8, 46, 0
10, 190464, Note_on_c, 8, 46, 79
10, 190720, Note_on_c, 8, 46, 0
10, 190976, Note_on_c, 8, 46, 81
10, 191232, Note_on_c, 8, 46, 0
10, 191488, Note_on_c, 8, 47, 96
10, 191744, Note_on_c, 8, 47, 0
10, 192000, Note_on_c, 8, 47, 86
10, 192256, Note_on_c, 8, 47, 0
10, 192512, Note_on_c, 8, 47, 88
10, 192768, Note_on_c, 8, 47, 0
10, 193024, Note_on_c, 8, 47, 90
10, 193280, Note_on_c, 8, 47, 0
10, 193536, Note_on_c, 8, 47, 92
10, 193792, Note_on_c, 8, 47, 0
10, 194048, Note_on_c, 8, 47, 94
10, 194304, Note_on_c, 8, 47, 0
10, 194560, Note_on_c, 8, 40, 101
10, 194816, Note_on_c, 8, 40, 0
10, 195072, Note_on_c, 8, 49, 94
10, 195328, Note_on_c, 8, 49, 0
10, 195584, Note_on_c, 8, 46, 95
10, 195840, Note_on_c, 8, 46, 0
10, 196096, Note_on_c, 8, 42, 96
10, 196352, Note_on_c, 8, 42, 0
10, 196608, Note_on_c, 8, 50, 97
10, 196864, Note_on_c, 8, 50, 0
10, 197120, Note_on_c, 8, 47, 98
10, 197376, Note_on_c, 8, 47, 0
10, 197632, Note_on_c, 8, 55, 99
10, 197888, Note_on_c, 8, 55, 0
10, 198144, Note_on_c, 8, 54, 101
10, 198400, Note_on_c, 8, 54, 0
10, 198400, Note_on_c, 8, 52, 101
10, 198656, Note_on_c, 8, 52, 0
10, 198656, Note_on_c, 8, 50, 102
10, 198912, Note_on_c, 8, 50, 0
10, 199168, Note_on_c, 8, 52, 103
10, 199424, Note_on_c, 8, 52, 0
10, 199680, Note_on_c, 8, 54, 104
10, 199936, Note_on_c, 8, 54, 0
10, 200192, Note_on_c, 8, 42, 105
10, 200448, Note_on_c, 8, 42, 0
10, 200704, Note_on_c, 8, 47, 106
10, 200960, Note_on_c, 8, 47, 0
10, 201216, Note_on_c, 8, 54, 99
10, 201472, Note_on_c, 8, 54, 0
10, 201472, Note_on_c, 8, 52, 99
10, 201728, Note_on_c, 8, 52, 0
10, 201728, Note_on_c, 8, 50, 98
10, 201984, Note_on_c, 8, 50, 0
10, 202240, Note_on_c, 8, 47, 97
10, 202496, Note_on_c, 8, 47, 0
10, 202752, Note_on_c, 8, 50, 95
10, 203008, Note_on_c, 8, 50, 0
10, 203264, Note_on_c, 8, 54, 94
10, 203520, Note_on_c, 8, 54, 0
10, 203776, Note_on_c, 8, 59, 92
10, 204032, Note_on_c, 8, 59, 0
10, 204288, Note_on_c, 8, 47, 91
10, 204544, Note_on_c, 8, 47, 0
10, 204800, Note_on_c, 8, 47, 90
10, 205056, Note_on_c, 8, 47, 0
10, 207360, Note_on_c, 8, 59, 63
10, 207616, Note_on_c, 8, 59, 0
10, 207616, Note_on_c, 8, 61, 65
10, 207872, Note_on_c, 8, 61, 0
10, 207872, Note_on_c, 8, 59, 67
10, 208128, Note_on_c, 8, 59, 0
10, 208128, Note_on_c, 8, 61, 69
10, 208384, Note_on_c, 8, 61, 0
10, 208384, Note_on_c, 8, 59, 70
10, 208640, Note_on_c, 8, 59, 0
10, 208640, Note_on_c, 8, 61, 72
10, 208896, Note_on_c, 8, 61, 0
10, 208896, Note_on_c, 8, 59, 74
10, 209152, Note_on_c, 8, 59, 0
10, 209152, Note_on_c, 8, 61, 76
10, 209408, Note_on_c, 8, 61, 0
10, 209408, Note_on_c, 8, 59, 78
10, 209664, Note_on_c, 8, 59, 0
10, 209664, Note_on_c, 8, 61, 79
10, 209920, Note_on_c, 8, 61, 0
10, 209920, Note_on_c, 8, 59, 81
10, 210176, Note_on_c, 8, 59, 0
10, 210432, Note_on_c, 8, 47, 88
10, 210688, Note_on_c, 8, 47, 0
10, 210944, Note_on_c, 8, 47, 88
10, 211200, Note_on_c, 8, 47, 0
10, 213504, Note_on_c, 8, 59, 58
10, 213760, Note_on_c, 8, 59, 0
10, 213760, Note_on_c, 8, 61, 61
10, 214016, Note_on_c, 8, 61, 0
10, 214016, Note_on_c, 8, 59, 64
10, 214272, Note_on_c, 8, 59, 0
10, 214272, Note_on_c, 8, 61, 67
10, 214528, Note_on_c, 8, 61, 0
10, 214528, Note_on_c, 8, 59, 70
10, 214784, Note_on_c, 8, 59, 0
10, 214784, Note_on_c, 8, 61, 73
10, 215040, Note_on_c, 8, 61, 0
10, 215040, Note_on_c, 8, 59, 76
10, 215296, Note_on_c, 8, 59, 0
10, 215296, Note_on_c, 8, 61, 79
10, 215552, Note_on_c, 8, 61, 0
10, 215552, Note_on_c, 8, 59, 82
10, 215808, Note_on_c, 8, 59, 0
10, 215808, Note_on_c, 8, 61, 86
10, 216064, Note_on_c, 8, 61, 0
10, 216064, Note_on_c, 8, 57, 86
10, 216320, Note_on_c, 8, 57, 0
10, 216320, Note_on_c, 8, 59, 87
10, 216576, Note_on_c, 8, 59, 0
10, 216576, Note_on_c, 8, 57, 88
10, 216832, Note_on_c, 8, 57, 0
10, 216832, Note_on_c, 8, 55, 89
10, 217088, Note_on_c, 8, 55, 0
10, 217088, Note_on_c, 8, 54, 89
10, 217344, Note_on_c, 8, 54, 0
10, 217344, Note_on_c, 8, 52, 90
10, 217600, Note_on_c, 8, 52, 0
10, 217600, Note_on_c, 8, 51, 91
10, 217856, Note_on_c, 8, 51, 0
10, 217856, Note_on_c, 8, 49, 92
10, 218112, Note_on_c, 8, 49, 0
10, 218112, Note_on_c, 8, 47, 92
10, 218368, Note_on_c, 8, 47, 0
10, 218624, Note_on_c, 8, 59, 88
10, 218880, Note_on_c, 8, 59, 0
10, 219136, Note_on_c, 8, 52, 88
10, 219392, Note_on_c, 8, 52, 0
10, 219648, Note_on_c, 8, 55, 89
10, 219904, Note_on_c, 8, 55, 0
10, 219904, Note_on_c, 8, 54, 89
10, 220160, Note_on_c, 8, 54, 0
10, 220160, Note_on_c, 8, 52, 89
10, 220416, Note_on_c, 8, 52, 0
10, 220672, Note_on_c, 8, 49, 90
10, 220928, Note_on_c, 8, 49, 0
10, 221184, Note_on_c, 8, 46, 90
10, 221440, Note_on_c, 8, 46, 0
10, 221696, Note_on_c, 8, 42, 90
10, 221952, Note_on_c, 8, 42, 0
10, 222208, Note_on_c, 8, 47, 91
10, 222464, Note_on_c, 8, 47, 0
10, 222720, Note_on_c, 8, 49, 91
10, 222976, Note_on_c, 8, 49, 0
10, 223232, Note_on_c, 8, 50, 92
10, 223488, Note_on_c, 8, 50, 0
10, 223744, Note_on_c, 8, 52, 92
10, 224000, Note_on_c, 8, 52, 0
10, 224256, Note_on_c, 8, 54, 93
10, 224512, Note_on_c, 8, 54, 0
10, 224768, Note_on_c, 8, 42, 93
10, 225024, Note_on_c, 8, 42, 0
10, 225280, Note_on_c, 8, 47, 93
10, 225536, Note_on_c, 8, 47, 0
10, 225792, Note_on_c, 8, 50, 42
10, 226048, Note_on_c, 8, 50, 0
10, 226304, Note_on_c, 8, 54, 44
10, 226560, Note_on_c, 8, 54, 0
10, 226816, Note_on_c, 8, 59, 46
10, 227072, Note_on_c, 8, 59, 0
10, 227328, Note_on_c, 8, 62, 47
10, 227584, Note_on_c, 8, 62, 0
10, 227584, Note_on_c, 8, 61, 48
10, 227840, Note_on_c, 8, 61, 0
10, 227840, Note_on_c, 8, 59, 49
10, 228096, Note_on_c, 8, 59, 0
10, 228096, Note_on_c, 8, 57, 50
10, 228352, Note_on_c, 8, 57, 0
10, 228352, Note_on_c, 8, 56, 51
10, 228608, Note_on_c, 8, 56, 0
10, 228864, Note_on_c, 8, 64, 52
10, 229120, Note_on_c, 8, 64, 0
10, 229376, Note_on_c, 8, 52, 50
10, 229632, Note_on_c, 8, 52, 0
10, 229888, Note_on_c, 8, 64, 49
10, 230144, Note_on_c, 8, 64, 0
10, 230400, Note_on_c, 8, 56, 48
10, 230656, Note_on_c, 8, 56, 0
10, 230912, Note_on_c, 8, 64, 46
10, 231168, Note_on_c, 8, 64, 0
10, 231424, Note_on_c, 8, 45, 45
10, 231680, Note_on_c, 8, 45, 0
10, 231936, Note_on_c, 8, 49, 44
10, 232192, Note_on_c, 8, 49, 0
10, 232448, Note_on_c, 8, 52, 42
10, 232704, Note_on_c, 8, 52, 0
10, 232960, Note_on_c, 8, 57, 43
10, 233216, Note_on_c, 8, 57, 0
10, 233472, Note_on_c, 8, 59, 44
10, 233728, Note_on_c, 8, 59, 0
10, 233728, Note_on_c, 8, 57, 44
10, 233984, Note_on_c, 8, 57, 0
10, 233984, Note_on_c, 8, 56, 45
10, 234240, Note_on_c, 8, 56, 0
10, 234240, Note_on_c, 8, 54, 45
10, 234496, Note_on_c, 8, 54, 0
10, 234496, Note_on_c, 8, 53, 46
10, 234752, Note_on_c, 8, 53, 0
10, 235008, Note_on_c, 8, 61, 47
10, 235264, Note_on_c, 8, 61, 0
10, 235520, Note_on_c, 8, 56, 48
10, 235776, Note_on_c, 8, 56, 0
10, 236032, Note_on_c, 8, 61, 49
10, 236288, Note_on_c, 8, 61, 0
10, 236544, Note_on_c, 8, 49, 50
10, 236800, Note_on_c, 8, 49, 0
10, 237056, Note_on_c, 8, 61, 51
10, 237312, Note_on_c, 8, 61, 0
10, 237568, Note_on_c, 8, 42, 52
10, 237824, Note_on_c, 8, 42, 0
10, 238080, Note_on_c, 8, 45, 54
10, 238336, Note_on_c, 8, 45, 0
10, 238592, Note_on_c, 8, 49, 53
10, 238848, Note_on_c, 8, 49, 0
10, 239104, Note_on_c, 8, 54, 53
10, 239360, Note_on_c, 8, 54, 0
10, 239616, Note_on_c, 8, 50, 53
10, 239872, Note_on_c, 8, 50, 0
10, 240128, Note_on_c, 8, 47, 53
10, 240384, Note_on_c, 8, 47, 0
10, 240640, Note_on_c, 8, 49, 53
10, 240896, Note_on_c, 8, 49, 0
10, 241152, Note_on_c, 8, 53, 53
10, 241408, Note_on_c, 8, 53, 0
10, 241664, Note_on_c, 8, 56, 53
10, 241920, Note_on_c, 8, 56, 0
10, 242176, Note_on_c, 8, 59, 53
10, 242432, Note_on_c, 8, 59, 0
10, 242688, Note_on_c, 8, 57, 53
10, 242944, Note_on_c, 8, 57, 0
10, 243200, Note_on_c, 8, 56, 53
10, 243456, Note_on_c, 8, 56, 0
10, 243712, Note_on_c, 8, 54, 52
10, 243968, Note_on_c, 8, 54, 0
10, 244224, Note_on_c, 8, 49, 52
10, 244480, Note_on_c, 8, 49, 0
10, 244736, Note_on_c, 8, 54, 52
10, 244992, Note_on_c, 8, 54, 0
10, 245248, Note_on_c, 8, 57, 52
10, 245504, Note_on_c, 8, 57, 0
10, 245760, Note_on_c, 8, 50, 52
10, 246016, Note_on_c, 8, 50, 0
10, 246272, Note_on_c, 8, 49, 52
10, 246528, Note_on_c, 8, 49, 0
10, 246784, Note_on_c, 8, 47, 52
10, 247040, Note_on_c, 8, 47, 0
10, 247296, Note_on_c, 8, 42, 52
10, 247552, Note_on_c, 8, 42, 0
10, 247808, Note_on_c, 8, 47, 52
10, 248064, Note_on_c, 8, 47, 0
10, 248320, Note_on_c, 8, 49, 52
10, 248576, Note_on_c, 8, 49, 0
10, 248576, Note_on_c, 8, 50, 51
10, 248832, Note_on_c, 8, 50, 0
10, 248832, Note_on_c, 8, 52, 51
10, 249088, Note_on_c, 8, 52, 0
10, 249088, Note_on_c, 8, 50, 50
10, 249344, Note_on_c, 8, 50, 0
10, 249344, Note_on_c, 8, 49, 49
10, 249600, Note_on_c, 8, 49, 0
10, 249600, Note_on_c, 8, 47, 49
10, 249856, Note_on_c, 8, 47, 0
10, 249856, Note_on_c, 8, 52, 48
10, 250112, Note_on_c, 8, 52, 0
10, 250368, Note_on_c, 8, 40, 46
10, 250624, Note_on_c, 8, 40, 0
10, 250880, Note_on_c, 8, 42, 45
10, 251136, Note_on_c, 8, 42, 0
10, 251392, Note_on_c, 8, 44, 44
10, 251648, Note_on_c, 8, 44, 0
10, 251904, Note_on_c, 8, 45, 42
10, 252160, Note_on_c, 8, 45, 0
10, 252416, Note_on_c, 8, 47, 42
10, 252672, Note_on_c, 8, 47, 0
10, 252672, Note_on_c, 8, 49, 44
10, 252928, Note_on_c, 8, 49, 0
10, 252928, Note_on_c, 8, 50, 46
10, 253184, Note_on_c, 8, 50, 0
10, 253184, Note_on_c, 8, 49, 48
10, 253440, Note_on_c, 8, 49, 0
10, 253440, Note_on_c, 8, 47, 50
10, 253696, Note_on_c, 8, 47, 0
10, 253696, Note_on_c, 8, 45, 50
10, 253952, Note_on_c, 8, 45, 0
10, 253952, Note_on_c, 8, 50, 49
10, 254208, Note_on_c, 8, 50, 0
10, 254464, Note_on_c, 8, 54, 48
10, 254720, Note_on_c, 8, 54, 0
10, 254976, Note_on_c, 8, 47, 46
10, 255232, Note_on_c, 8, 47, 0
10, 255488, Note_on_c, 8, 49, 44
10, 255744, Note_on_c, 8, 49, 0
10, 256000, Note_on_c, 8, 50, 43
10, 256256, Note_on_c, 8, 50, 0
10, 256512, Note_on_c, 8, 52, 42
10, 256768, Note_on_c, 8, 52, 0
10, 256768, Note_on_c, 8, 54, 43
10, 257024, Note_on_c, 8, 54, 0
10, 257024, Note_on_c, 8, 52, 44
10, 257280, Note_on_c, 8, 52, 0
10, 257280, Note_on_c, 8, 50, 45
10, 257536, Note_on_c, 8, 50, 0
10, 257536, Note_on_c, 8, 49, 46
10, 257792, Note_on_c, 8, 49, 0
10, 257792, Note_on_c, 8, 47, 48
10, 258048, Note_on_c, 8, 47, 0
10, 258048, Note_on_c, 8, 53, 49
10, 258304, Note_on_c, 8, 53, 0
10, 258560, Note_on_c, 8, 49, 51
10, 258816, Note_on_c, 8, 49, 0
10, 259072, Note_on_c, 8, 54, 64
10, 259328, Note_on_c, 8, 54, 0
10, 259584, Note_on_c, 8, 50, 53
10, 259840, Note_on_c, 8, 50, 0
10, 260096, Note_on_c, 8, 45, 53
10, 260352, Note_on_c, 8, 45, 0
10, 260608, Note_on_c, 8, 47, 53
10, 260864, Note_on_c, 8, 47, 0
10, 261120, Note_on_c, 8, 49, 53
10, 261376, Note_on_c, 8, 49, 0
10, 261632, Note_on_c, 8, 37, 53
10, 261888, Note_on_c, 8, 37, 0
10, 262144, Note_on_c, 8, 42, 53
10, 263168, Note_on_c, 8, 42, 0
10, 263680, Note_on_c, 8, 38, 96
10, 263936, Note_on_c, 8, 38, 0
10, 264192, Note_on_c, 8, 42, 98
10, 264448, Note_on_c, 8, 42, 0
10, 264704, Note_on_c, 8, 45, 100
10, 264960, Note_on_c, 8, 45, 0
10, 265216, Note_on_c, 8, 50, 102
10, 266240, Note_on_c, 8, 50, 0
10, 266752, Note_on_c, 8, 55, 99
10, 267008, Note_on_c, 8, 55, 0
10, 267264, Note_on_c, 8, 57, 99
10, 267520, Note_on_c, 8, 57, 0
10, 267776, Note_on_c, 8, 45, 99
10, 268032, Note_on_c, 8, 45, 0
10, 268288, Note_on_c, 8, 50, 99
10, 268544, Note_on_c, 8, 50, 0
10, 269312, Note_on_c, 8, 38, 99
10, 269568, Note_on_c, 8, 38, 0
10, 270336, Note_on_c, 8, 50, 99
10, 270592, Note_on_c, 8, 50, 0
10, 271360, Note_on_c, 8, 55, 99
10, 271616, Note_on_c, 8, 55, 0
10, 271872, Note_on_c, 8, 54, 99
10, 272128, Note_on_c, 8, 54, 0
10, 272384, Note_on_c, 8, 52, 99
10, 272640, Note_on_c, 8, 52, 0
10, 272896, Note_on_c, 8, 49, 99
10, 273152, Note_on_c, 8, 49, 0
10, 273408, Note_on_c, 8, 50, 99
10, 273664, Note_on_c, 8, 50, 0
10, 273920, Note_on_c, 8, 47, 99
10, 274176, Note_on_c, 8, 47, 0
10, 274432, Note_on_c, 8, 45, 99
10, 275456, Note_on_c, 8, 45, 0
10, 275968, Note_on_c, 8, 57, 94
10, 276224, Note_on_c, 8, 57, 0
10, 276224, Note_on_c, 8, 55, 94
10, 276480, Note_on_c, 8, 55, 0
10, 276480, Note_on_c, 8, 54, 95
10, 276736, Note_on_c, 8, 54, 0
10, 276992, Note_on_c, 8, 57, 92
10, 277248, Note_on_c, 8, 57, 0
10, 277504, Note_on_c, 8, 50, 91
10, 277760, Note_on_c, 8, 50, 0
10, 278016, Note_on_c, 8, 57, 90
10, 278272, Note_on_c, 8, 57, 0
10, 278528, Note_on_c, 8, 62, 88
10, 278784, Note_on_c, 8, 62, 0
10, 279040, Note_on_c, 8, 59, 89
10, 279296, Note_on_c, 8, 59, 0
10, 279552, Note_on_c, 8, 54, 91
10, 279808, Note_on_c, 8, 54, 0
10, 280064, Note_on_c, 8, 55, 92
10, 280320, Note_on_c, 8, 55, 0
10, 280576, Note_on_c, 8, 57, 93
10, 280832, Note_on_c, 8, 57, 0
10, 281088, Note_on_c, 8, 45, 66
10, 281344, Note_on_c, 8, 45, 0
10, 281344, Note_on_c, 8, 47, 64
10, 281600, Note_on_c, 8, 47, 0
10, 281600, Note_on_c, 8, 45, 62
10, 281856, Note_on_c, 8, 45, 0
10, 282112, Note_on_c, 8, 43, 58
10, 282368, Note_on_c, 8, 43, 0
10, 282624, Note_on_c, 8, 42, 54
10, 282880, Note_on_c, 8, 42, 0
10, 283136, Note_on_c, 8, 40, 50
10, 283392, Note_on_c, 8, 40, 0
10, 283648, Note_on_c, 8, 38, 46
10, 284672, Note_on_c, 8, 38, 0
10, 286720, Note_on_c, 8, 50, 53
10, 287744, Note_on_c, 8, 50, 0
10, 289792, Note_on_c, 8, 38, 65
10, 290816, Note_on_c, 8, 38, 0
10, 292864, Note_on_c, 8, 50, 78
10, 293888, Note_on_c, 8, 50, 0
10, 295936, Note_on_c, 8, 38, 90
10, 296960, Note_on_c, 8, 38, 0
10, 297472, Note_on_c, 8, 50, 56
10, 297728, Note_on_c, 8, 50, 0
10, 297984, Note_on_c, 8, 54, 62
10, 298240, Note_on_c, 8, 54, 0
10, 298496, Note_on_c, 8, 57, 68
10, 298752, Note_on_c, 8, 57, 0
10, 299008, Note_on_c, 8, 62, 74
10, 299264, Note_on_c, 8, 62, 0
10, 299520, Note_on_c, 8, 50, 79
10, 299776, Note_on_c, 8, 50, 0
10, 300032, Note_on_c, 8, 50, 80
10, 300288, Note_on_c, 8, 50, 0
10, 300544, Note_on_c, 8, 52, 81
10, 300800, Note_on_c, 8, 52, 0
10, 301056, Note_on_c, 8, 50, 83
10, 301312, Note_on_c, 8, 50, 0
10, 301568, Note_on_c, 8, 49, 84
10, 301824, Note_on_c, 8, 49, 0
10, 302080, Note_on_c, 8, 47, 86
10, 302336, Note_on_c, 8, 47, 0
10, 302592, Note_on_c, 8, 59, 87
10, 302848, Note_on_c, 8, 59, 0
10, 302848, Note_on_c, 8, 58, 88
10, 303104, Note_on_c, 8, 58, 0
10, 303104, Note_on_c, 8, 59, 89
10, 303360, Note_on_c, 8, 59, 0
10, 303616, Note_on_c, 8, 62, 90
10, 303872, Note_on_c, 8, 62, 0
10, 304128, Note_on_c, 8, 55, 92
10, 304384, Note_on_c, 8, 55, 0
10, 304640, Note_on_c, 8, 59, 93
10, 304896, Note_on_c, 8, 59, 0
10, 305152, Note_on_c, 8, 52, 94
10, 305408, Note_on_c, 8, 52, 0
10, 305664, Note_on_c, 8, 55, 96
10, 305920, Note_on_c, 8, 55, 0
10, 306176, Note_on_c, 8, 54, 97
10, 306432, Note_on_c, 8, 54, 0
10, 306688, Note_on_c, 8, 52, 99
10, 306944, Note_on_c, 8, 52, 0
10, 307200, Note_on_c, 8, 54, 100
10, 307456, Note_on_c, 8, 54, 0
10, 307712, Note_on_c, 8, 55, 102
10, 307968, Note_on_c, 8, 55, 0
10, 308224, Note_on_c, 8, 57, 103
10, 308480, Note_on_c, 8, 57, 0
10, 308736, Note_on_c, 8, 61, 104
10, 308992, Note_on_c, 8, 61, 0
10, 308992, Note_on_c, 8, 59, 105
10, 309248, Note_on_c, 8, 59, 0
10, 309248, Note_on_c, 8, 57, 106
10, 309504, Note_on_c, 8, 57, 0
10, 309760, Note_on_c, 8, 45, 107
10, 310016, Note_on_c, 8, 45, 0
10, 310272, Note_on_c, 8, 57, 109
10, 310528, Note_on_c, 8, 57, 0
10, 310784, Note_on_c, 8, 55, 110
10, 311040, Note_on_c, 8, 55, 0
10, 311296, Note_on_c, 8, 54, 109
10, 311552, Note_on_c, 8, 54, 0
10, 311808, Note_on_c, 8, 52, 107
10, 312064, Note_on_c, 8, 52, 0
10, 312320, Note_on_c, 8, 51, 106
10, 312576, Note_on_c, 8, 51, 0
10, 312832, Note_on_c, 8, 54, 105
10, 313088, Note_on_c, 8, 54, 0
10, 313344, Note_on_c, 8, 47, 104
10, 313600, Note_on_c, 8, 47, 0
10, 313856, Note_on_c, 8, 51, 103
10, 314112, Note_on_c, 8, 51, 0
10, 314368, Note_on_c, 8, 52, 102
10, 314624, Note_on_c, 8, 52, 0
10, 314880, Note_on_c, 8, 50, 101
10, 315136, Note_on_c, 8, 50, 0
10, 315392, Note_on_c, 8, 49, 100
10, 315648, Note_on_c, 8, 49, 0
10, 315904, Note_on_c, 8, 52, 99
10, 316160, Note_on_c, 8, 52, 0
10, 316416, Note_on_c, 8, 45, 98
10, 316672, Note_on_c, 8, 45, 0
10, 316928, Note_on_c, 8, 49, 96
10, 317184, Note_on_c, 8, 49, 0
10, 317440, Note_on_c, 8, 50, 95
10, 317696, Note_on_c, 8, 50, 0
10, 317952, Note_on_c, 8, 49, 94
10, 318208, Note_on_c, 8, 49, 0
10, 318464, Note_on_c, 8, 47, 93
10, 318720, Note_on_c, 8, 47, 0
10, 318976, Note_on_c, 8, 50, 92
10, 319232, Note_on_c, 8, 50, 0
10, 319488, Note_on_c, 8, 42, 91
10, 319744, Note_on_c, 8, 42, 0
10, 320000, Note_on_c, 8, 45, 90
10, 320256, Note_on_c, 8, 45, 0
10, 320512, Note_on_c, 8, 44, 89
10, 320768, Note_on_c, 8, 44, 0
10, 321024, Note_on_c, 8, 44, 46
10, 321280, Note_on_c, 8, 44, 0
10, 321536, Note_on_c, 8, 44, 48
10, 321792, Note_on_c, 8, 44, 0
10, 322048, Note_on_c, 8, 44, 50
10, 322304, Note_on_c, 8, 44, 0
10, 322560, Note_on_c, 8, 44, 53
10, 322816, Note_on_c, 8, 44, 0
10, 323072, Note_on_c, 8, 44, 55
10, 323328, Note_on_c, 8, 44, 0
10, 323584, Note_on_c, 8, 45, 68
10, 323840, Note_on_c, 8, 45, 0
10, 324096, Note_on_c, 8, 45, 60
10, 324352, Note_on_c, 8, 45, 0
10, 324608, Note_on_c, 8, 45, 62
10, 324864, Note_on_c, 8, 45, 0
10, 325120, Note_on_c, 8, 45, 64
10, 325376, Note_on_c, 8, 45, 0
10, 325632, Note_on_c, 8, 45, 67
10, 325888, Note_on_c, 8, 45, 0
10, 326144, Note_on_c, 8, 45, 69
10, 326400, Note_on_c, 8, 45, 0
10, 326656, Note_on_c, 8, 46, 78
10, 326912, Note_on_c, 8, 46, 0
10, 327168, Note_on_c, 8, 46, 74
10, 327424, Note_on_c, 8, 46, 0
10, 327680, Note_on_c, 8, 46, 76
10, 327936, Note_on_c, 8, 46, 0
10, 328192, Note_on_c, 8, 46, 78
10, 328448, Note_on_c, 8, 46, 0
10, 328704, Note_on_c, 8, 46, 81
10, 328960, Note_on_c, 8, 46, 0
10, 329216, Note_on_c, 8, 46, 83
10, 329472, Note_on_c, 8, 46, 0
10, 329728, Note_on_c, 8, 47, 95
10, 329984, Note_on_c, 8, 47, 0
10, 330240, Note_on_c, 8, 47, 88
10, 330496, Note_on_c, 8, 47, 0
10, 330752, Note_on_c, 8, 47, 90
10, 331008, Note_on_c, 8, 47, 0
10, 331264, Note_on_c, 8, 47, 92
10, 331520, Note_on_c, 8, 47, 0
10, 331776, Note_on_c, 8, 47, 95
10, 332032, Note_on_c, 8, 47, 0
10, 332288, Note_on_c, 8, 47, 97
10, 332544, Note_on_c, 8, 47, 0
10, 332800, Note_on_c, 8, 40, 100
10, 333056, Note_on_c, 8, 40, 0
10, 333312, Note_on_c, 8, 49, 101
10, 333568, Note_on_c, 8, 49, 0
10, 333824, Note_on_c, 8, 50, 102
10, 334080, Note_on_c, 8, 50, 0
10, 334336, Note_on_c, 8, 52, 103
10, 334592, Note_on_c, 8, 52, 0
10, 334848, Note_on_c, 8, 54, 104
10, 335104, Note_on_c, 8, 54, 0
10, 335360, Note_on_c, 8, 57, 104
10, 335616, Note_on_c, 8, 57, 0
10, 335872, Note_on_c, 8, 59, 105
10, 336128, Note_on_c, 8, 59, 0
10, 336384, Note_on_c, 8, 57, 106
10, 336640, Note_on_c, 8, 57, 0
10, 336640, Note_on_c, 8, 55, 107
10, 336896, Note_on_c, 8, 55, 0
10, 336896, Note_on_c, 8, 54, 107
10, 337152, Note_on_c, 8, 54, 0
10, 337152, Note_on_c, 8, 52, 108
10, 337408, Note_on_c, 8, 52, 0
10, 337408, Note_on_c, 8, 54, 108
10, 337664, Note_on_c, 8, 54, 0
10, 337664, Note_on_c, 8, 55, 108
10, 337920, Note_on_c, 8, 55, 0
10, 337920, Note_on_c, 8, 57, 109
10, 338432, Note_on_c, 8, 57, 0
10, 338432, Note_on_c, 8, 45, 110
10, 338688, Note_on_c, 8, 45, 0
10, 338944, Note_on_c, 8, 38, 111
10, 339968, Note_on_c, 8, 38, 0
10, 349696, Note_on_c, 8, 52, 56
10, 349952, Note_on_c, 8, 52, 0
10, 350208, Note_on_c, 8, 55, 60
10, 350464, Note_on_c, 8, 55, 0
10, 350720, Note_on_c, 8, 59, 65
10, 350976, Note_on_c, 8, 59, 0
10, 351232, Note_on_c, 8, 64, 69
10, 351488, Note_on_c, 8, 64, 0
10, 351744, Note_on_c, 8, 52, 69
10, 352000, Note_on_c, 8, 52, 0
10, 352256, Note_on_c, 8, 52, 66
10, 352512, Note_on_c, 8, 52, 0
10, 361984, Note_on_c, 8, 50, 61
10, 362240, Note_on_c, 8, 50, 0
10, 362496, Note_on_c, 8, 54, 66
10, 362752, Note_on_c, 8, 54, 0
10, 363008, Note_on_c, 8, 57, 70
10, 363264, Note_on_c, 8, 57, 0
10, 363520, Note_on_c, 8, 62, 75
10, 363776, Note_on_c, 8, 62, 0
10, 364032, Note_on_c, 8, 50, 71
10, 364288, Note_on_c, 8, 50, 0
10, 364544, Note_on_c, 8, 50, 66
10, 364800, Note_on_c, 8, 50, 0
10, 365056, Note_on_c, 8, 45, 61
10, 365312, Note_on_c, 8, 45, 0
10, 365568, Note_on_c, 8, 42, 55
10, 365824, Note_on_c, 8, 42, 0
10, 366080, Note_on_c, 8, 45, 55
10, 366336, Note_on_c, 8, 45, 0
10, 366592, Note_on_c, 8, 38, 55
10, 366848, Note_on_c, 8, 38, 0
10, 367104, Note_on_c, 8, 45, 55
10, 367360, Note_on_c, 8, 45, 0
10, 367616, Note_on_c, 8, 50, 54
10, 367872, Note_on_c, 8, 50, 0
10, 368128, Note_on_c, 8, 52, 54
10, 368384, Note_on_c, 8, 52, 0
10, 368640, Note_on_c, 8, 50, 54
10, 368896, Note_on_c, 8, 50, 0
10, 369152, Note_on_c, 8, 49, 54
10, 369408, Note_on_c, 8, 49, 0
10, 369664, Note_on_c, 8, 47, 54
10, 369920, Note_on_c, 8, 47, 0
10, 370176, Note_on_c, 8, 50, 54
10, 370432, Note_on_c, 8, 50, 0
10, 370688, Note_on_c, 8, 54, 54
10, 370944, Note_on_c, 8, 54, 0
10, 371200, Note_on_c, 8, 59, 54
10, 371456, Note_on_c, 8, 59, 0
10, 371712, Note_on_c, 8, 57, 54
10, 371968, Note_on_c, 8, 57, 0
10, 372224, Note_on_c, 8, 55, 54
10, 372480, Note_on_c, 8, 55, 0
10, 372736, Note_on_c, 8, 54, 54
10, 372992, Note_on_c, 8, 54, 0
10, 373248, Note_on_c, 8, 52, 54
10, 373504, Note_on_c, 8, 52, 0
10, 373760, Note_on_c, 8, 51, 54
10, 374016, Note_on_c, 8, 51, 0
10, 374272, Note_on_c, 8, 54, 54
10, 374528, Note_on_c, 8, 54, 0
10, 374784, Note_on_c, 8, 47, 54
10, 375040, Note_on_c, 8, 47, 0
10, 375296, Note_on_c, 8, 51, 54
10, 375552, Note_on_c, 8, 51, 0
10, 375808, Note_on_c, 8, 52, 54
10, 376064, Note_on_c, 8, 52, 0
10, 376320, Note_on_c, 8, 50, 54
10, 376576, Note_on_c, 8, 50, 0
10, 376832, Note_on_c, 8, 49, 54
10, 377088, Note_on_c, 8, 49, 0
10, 377344, Note_on_c, 8, 52, 54
10, 377600, Note_on_c, 8, 52, 0
10, 377856, Note_on_c, 8, 45, 54
10, 378112, Note_on_c, 8, 45, 0
10, 378368, Note_on_c, 8, 49, 54
10, 378624, Note_on_c, 8, 49, 0
10, 378880, Note_on_c, 8, 50, 54
10, 379136, Note_on_c, 8, 50, 0
10, 379392, Note_on_c, 8, 49, 54
10, 379648, Note_on_c, 8, 49, 0
10, 379904, Note_on_c, 8, 47, 54
10, 380160, Note_on_c, 8, 47, 0
10, 380416, Note_on_c, 8, 50, 54
10, 380672, Note_on_c, 8, 50, 0
10, 380928, Note_on_c, 8, 42, 54
10, 381184, Note_on_c, 8, 42, 0
10, 381440, Note_on_c, 8, 45, 54
10, 381696, Note_on_c, 8, 45, 0
10, 381952, Note_on_c, 8, 44, 56
10, 382208, Note_on_c, 8, 44, 0
10, 382464, Note_on_c, 8, 44, 44
10, 382720, Note_on_c, 8, 44, 0
10, 382976, Note_on_c, 8, 44, 46
10, 383232, Note_on_c, 8, 44, 0
10, 383488, Note_on_c, 8, 44, 48
10, 383744, Note_on_c, 8, 44, 0
10, 384000, Note_on_c, 8, 44, 50
10, 384256, Note_on_c, 8, 44, 0
10, 384512, Note_on_c, 8, 44, 52
10, 384768, Note_on_c, 8, 44, 0
10, 385024, Note_on_c, 8, 45, 60
10, 385280, Note_on_c, 8, 45, 0
10, 385536, Note_on_c, 8, 45, 56
10, 385792, Note_on_c, 8, 45, 0
10, 386048, Note_on_c, 8, 45, 59
10, 386304, Note_on_c, 8, 45, 0
10, 386560, Note_on_c, 8, 45, 61
10, 386816, Note_on_c, 8, 45, 0
10, 387072, Note_on_c, 8, 45, 63
10, 387328, Note_on_c, 8, 45, 0
10, 387584, Note_on_c, 8, 45, 65
10, 387840, Note_on_c, 8, 45, 0
10, 388096, Note_on_c, 8, 46, 72
10, 388352, Note_on_c, 8, 46, 0
10, 388608, Note_on_c, 8, 46, 69
10, 388864, Note_on_c, 8, 46, 0
10, 389120, Note_on_c, 8, 46, 72
10, 389376, Note_on_c, 8, 46, 0
10, 389632, Note_on_c, 8, 46, 74
10, 389888, Note_on_c, 8, 46, 0
10, 390144, Note_on_c, 8, 46, 76
10, 390400, Note_on_c, 8, 46, 0
10, 390656, Note_on_c, 8, 46, 78
10, 390912, Note_on_c, 8, 46, 0
10, 391168, Note_on_c, 8, 47, 90
10, 391424, Note_on_c, 8, 47, 0
10, 391680, Note_on_c, 8, 47, 82
10, 391936, Note_on_c, 8, 47, 0
10, 392192, Note_on_c, 8, 47, 84
10, 392448, Note_on_c, 8, 47, 0
10, 392704, Note_on_c, 8, 47, 87
10, 392960, Note_on_c, 8, 47, 0
10, 393216, Note_on_c, 8, 47, 89
10, 393472, Note_on_c, 8, 47, 0
10, 393728, Note_on_c, 8, 47, 91
10, 393984, Note_on_c, 8, 47, 0
10, 394240, Note_on_c, 8, 40, 103
10, 394496, Note_on_c, 8, 40, 0
10, 394752, Note_on_c, 8, 49, 104
10, 395008, Note_on_c, 8, 49, 0
10, 395264, Note_on_c, 8, 50, 105
10, 395520, Note_on_c, 8, 50, 0
10, 395776, Note_on_c, 8, 55, 107
10, 396032, Note_on_c, 8, 55, 0
10, 396288, Note_on_c, 8, 54, 108
10, 396544, Note_on_c, 8, 54, 0
10, 396800, Note_on_c, 8, 57, 109
10, 397056, Note_on_c, 8, 57, 0
10, 397312, Note_on_c, 8, 59, 110
10, 397568, Note_on_c, 8, 59, 0
10, 397824, Note_on_c, 8, 57, 111
10, 398080, Note_on_c, 8, 57, 0
10, 398080, Note_on_c, 8, 55, 112
10, 398336, Note_on_c, 8, 55, 0
10, 398336, Note_on_c, 8, 54, 113
10, 398592, Note_on_c, 8, 54, 0
10, 398848, Note_on_c, 8, 55, 114
10, 399104, Note_on_c, 8, 55, 0
10, 399360, Note_on_c, 8, 57, 115
10, 399616, Note_on_c, 8, 57, 0
10, 399872, Note_on_c, 8, 45, 116
10, 400128, Note_on_c, 8, 45, 0
10, 400384, Note_on_c, 8, 38, 118
10, 403456, Note_on_c, 8, 38, 0
10, 409600, End_track
11, 0, Start_track
11, 0, Title_t, "Soprano I"
11, 0, Program_c, 10, 52
11, 0, Control_c, 10, 121, 127
11, 0, Control_c, 10, 91, 127
11, 0, Control_c, 10, 1, 10
11, 0, Control_c, 10, 10, 20
11, 2560, Note_on_c, 10, 69, 115
11, 2816, Note_on_c, 10, 69, 0
11, 3072, Note_on_c, 10, 74, 115
11, 3328, Note_on_c, 10, 74, 0
11, 3584, Note_on_c, 10, 76, 115
11, 3840, Note_on_c, 10, 76, 0
11, 4096, Note_on_c, 10, 78, 115
11, 4608, Note_on_c, 10, 78, 0
11, 4608, Note_on_c, 10, 79, 115
11, 4779, Note_on_c, 10, 79, 0
11, 4779, Note_on_c, 10, 78, 115
11, 4949, Note_on_c, 10, 78, 0
11, 4949, Note_on_c, 10, 76, 115
11, 5120, Note_on_c, 10, 76, 0
11, 5120, Note_on_c, 10, 78, 115
11, 5376, Note_on_c, 10, 78, 0
11, 5632, Note_on_c, 10, 79, 115
11, 5888, Note_on_c, 10, 79, 0
11, 6144, Note_on_c, 10, 78, 115
11, 6400, Note_on_c, 10, 78, 0
11, 6656, Note_on_c, 10, 76, 115
11, 6912, Note_on_c, 10, 76, 0
11, 7168, Note_on_c, 10, 74, 115
11, 8090, Note_on_c, 10, 74, 0
11, 8192, Note_on_c, 10, 69, 115
11, 9114, Note_on_c, 10, 69, 0
11, 42496, Note_on_c, 10, 69, 109
11, 42752, Note_on_c, 10, 69, 0
11, 43008, Note_on_c, 10, 74, 109
11, 43264, Note_on_c, 10, 74, 0
11, 43520, Note_on_c, 10, 76, 109
11, 43776, Note_on_c, 10, 76, 0
11, 44032, Note_on_c, 10, 78, 109
11, 44544, Note_on_c, 10, 78, 0
11, 44544, Note_on_c, 10, 79, 109
11, 44715, Note_on_c, 10, 79, 0
11, 44715, Note_on_c, 10, 78, 109
11, 44885, Note_on_c, 10, 78, 0
11, 44885, Note_on_c, 10, 76, 109
11, 45056, Note_on_c, 10, 76, 0
11, 45056, Note_on_c, 10, 78, 109
11, 45312, Note_on_c, 10, 78, 0
11, 45568, Note_on_c, 10, 83, 109
11, 45824, Note_on_c, 10, 83, 0
11, 46080, Note_on_c, 10, 81, 109
11, 46336, Note_on_c, 10, 81, 0
11, 46592, Note_on_c, 10, 79, 109
11, 46848, Note_on_c, 10, 79, 0
11, 47104, Note_on_c, 10, 78, 109
11, 47360, Note_on_c, 10, 78, 0
11, 47360, Note_on_c, 10, 79, 109
11, 47616, Note_on_c, 10, 79, 0
11, 47616, Note_on_c, 10, 78, 109
11, 47872, Note_on_c, 10, 78, 0
11, 47872, Note_on_c, 10, 79, 109
11, 48128, Note_on_c, 10, 79, 0
11, 48128, Note_on_c, 10, 78, 109
11, 48384, Note_on_c, 10, 78, 0
11, 48384, Note_on_c, 10, 79, 109
11, 48640, Note_on_c, 10, 79, 0
11, 48640, Note_on_c, 10, 78, 109
11, 48896, Note_on_c, 10, 78, 0
11, 48896, Note_on_c, 10, 79, 109
11, 49152, Note_on_c, 10, 79, 0
11, 49152, Note_on_c, 10, 78, 109
11, 49408, Note_on_c, 10, 78, 0
11, 49408, Note_on_c, 10, 79, 109
11, 49664, Note_on_c, 10, 79, 0
11, 49664, Note_on_c, 10, 78, 109
11, 49920, Note_on_c, 10, 78, 0
11, 49920, Note_on_c, 10, 79, 109
11, 50176, Note_on_c, 10, 79, 0
11, 50176, Note_on_c, 10, 78, 108
11, 50688, Note_on_c, 10, 78, 0
11, 50688, Note_on_c, 10, 74, 106
11, 50944, Note_on_c, 10, 74, 0
11, 50944, Note_on_c, 10, 73, 105
11, 51200, Note_on_c, 10, 73, 0
11, 51200, Note_on_c, 10, 74, 104
11, 51456, Note_on_c, 10, 74, 0
11, 51712, Note_on_c, 10, 69, 102
11, 51968, Note_on_c, 10, 69, 0
11, 52224, Note_on_c, 10, 72, 101
11, 53504, Note_on_c, 10, 72, 0
11, 53760, Note_on_c, 10, 71, 96
11, 54016, Note_on_c, 10, 71, 0
11, 54272, Note_on_c, 10, 74, 95
11, 54528, Note_on_c, 10, 74, 0
11, 54784, Note_on_c, 10, 79, 93
11, 55808, Note_on_c, 10, 79, 0
11, 55808, Note_on_c, 10, 76, 98
11, 56064, Note_on_c, 10, 76, 0
11, 56320, Note_on_c, 10, 73, 100
11, 56576, Note_on_c, 10, 73, 0
11, 56576, Note_on_c, 10, 69, 101
11, 56832, Note_on_c, 10, 69, 0
11, 56832, Note_on_c, 10, 71, 102
11, 57088, Note_on_c, 10, 71, 0
11, 57088, Note_on_c, 10, 73, 103
11, 57344, Note_on_c, 10, 73, 0
11, 57344, Note_on_c, 10, 74, 105
11, 57600, Note_on_c, 10, 74, 0
11, 57600, Note_on_c, 10, 76, 106
11, 57856, Note_on_c, 10, 76, 0
11, 57856, Note_on_c, 10, 78, 107
11, 58112, Note_on_c, 10, 78, 0
11, 58112, Note_on_c, 10, 79, 108
11, 58368, Note_on_c, 10, 79, 0
11, 58368, Note_on_c, 10, 81, 111
11, 58624, Note_on_c, 10, 81, 0
11, 58880, Note_on_c, 10, 79, 112
11, 59136, Note_on_c, 10, 79, 0
11, 59136, Note_on_c, 10, 78, 112
11, 59392, Note_on_c, 10, 78, 0
11, 59392, Note_on_c, 10, 76, 113
11, 59648, Note_on_c, 10, 76, 0
11, 59904, Note_on_c, 10, 76, 114
11, 60160, Note_on_c, 10, 76, 0
11, 60928, Note_on_c, 10, 64, 98
11, 61184, Note_on_c, 10, 64, 0
11, 61440, Note_on_c, 10, 69, 98
11, 61696, Note_on_c, 10, 69, 0
11, 61952, Note_on_c, 10, 71, 99
11, 62208, Note_on_c, 10, 71, 0
11, 62464, Note_on_c, 10, 73, 99
11, 62976, Note_on_c, 10, 73, 0
11, 62976, Note_on_c, 10, 74, 98
11, 63147, Note_on_c, 10, 74, 0
11, 63147, Note_on_c, 10, 73, 98
11, 63317, Note_on_c, 10, 73, 0
11, 63317, Note_on_c, 10, 71, 98
11, 63488, Note_on_c, 10, 71, 0
11, 63488, Note_on_c, 10, 73, 97
11, 63744, Note_on_c, 10, 73, 0
11, 64000, Note_on_c, 10, 74, 96
11, 64256, Note_on_c, 10, 74, 0
11, 64512, Note_on_c, 10, 73, 95
11, 64768, Note_on_c, 10, 73, 0
11, 65024, Note_on_c, 10, 71, 94
11, 65280, Note_on_c, 10, 71, 0
11, 65536, Note_on_c, 10, 69, 93
11, 65792, Note_on_c, 10, 69, 0
11, 66048, Note_on_c, 10, 69, 91
11, 66304, Note_on_c, 10, 69, 0
11, 66304, Note_on_c, 10, 68, 91
11, 66560, Note_on_c, 10, 68, 0
11, 66560, Note_on_c, 10, 66, 64
11, 66816, Note_on_c, 10, 66, 0
11, 67072, Note_on_c, 10, 66, 88
11, 67328, Note_on_c, 10, 66, 0
11, 67584, Note_on_c, 10, 71, 90
11, 67840, Note_on_c, 10, 71, 0
11, 68096, Note_on_c, 10, 73, 92
11, 68352, Note_on_c, 10, 73, 0
11, 68608, Note_on_c, 10, 74, 94
11, 69120, Note_on_c, 10, 74, 0
11, 69120, Note_on_c, 10, 73, 94
11, 69376, Note_on_c, 10, 73, 0
11, 69376, Note_on_c, 10, 71, 94
11, 69632, Note_on_c, 10, 71, 0
11, 69632, Note_on_c, 10, 76, 94
11, 69888, Note_on_c, 10, 76, 0
11, 70144, Note_on_c, 10, 68, 94
11, 70400, Note_on_c, 10, 68, 0
11, 70656, Note_on_c, 10, 69, 94
11, 70912, Note_on_c, 10, 69, 0
11, 71168, Note_on_c, 10, 74, 94
11, 71424, Note_on_c, 10, 74, 0
11, 71680, Note_on_c, 10, 73, 90
11, 72192, Note_on_c, 10, 73, 0
11, 72192, Note_on_c, 10, 71, 80
11, 72448, Note_on_c, 10, 71, 0
11, 73216, Note_on_c, 10, 71, 43
11, 73728, Note_on_c, 10, 71, 0
11, 73728, Note_on_c, 10, 73, 43
11, 73984, Note_on_c, 10, 73, 0
11, 74240, Note_on_c, 10, 74, 43
11, 74496, Note_on_c, 10, 74, 0
11, 74752, Note_on_c, 10, 76, 43
11, 75264, Note_on_c, 10, 76, 0
11, 75264, Note_on_c, 10, 78, 43
11, 75435, Note_on_c, 10, 78, 0
11, 75435, Note_on_c, 10, 76, 43
11, 75605, Note_on_c, 10, 76, 0
11, 75605, Note_on_c, 10, 74, 43
11, 75776, Note_on_c, 10, 74, 0
11, 75776, Note_on_c, 10, 76, 43
11, 77312, Note_on_c, 10, 76, 0
11, 77312, Note_on_c, 10, 78, 43
11, 77568, Note_on_c, 10, 78, 0
11, 77568, Note_on_c, 10, 76, 43
11, 77824, Note_on_c, 10, 76, 0
11, 77824, Note_on_c, 10, 74, 43
11, 78336, Note_on_c, 10, 74, 0
11, 78336, Note_on_c, 10, 76, 43
11, 78507, Note_on_c, 10, 76, 0
11, 78507, Note_on_c, 10, 74, 43
11, 78677, Note_on_c, 10, 74, 0
11, 78677, Note_on_c, 10, 73, 43
11, 78848, Note_on_c, 10, 73, 0
11, 78848, Note_on_c, 10, 74, 43
11, 80384, Note_on_c, 10, 74, 0
11, 80384, Note_on_c, 10, 76, 43
11, 80640, Note_on_c, 10, 76, 0
11, 80640, Note_on_c, 10, 74, 43
11, 80896, Note_on_c, 10, 74, 0
11, 80896, Note_on_c, 10, 73, 42
11, 81408, Note_on_c, 10, 73, 0
11, 81408, Note_on_c, 10, 74, 44
11, 81579, Note_on_c, 10, 74, 0
11, 81579, Note_on_c, 10, 73, 44
11, 81749, Note_on_c, 10, 73, 0
11, 81749, Note_on_c, 10, 71, 45
11, 81920, Note_on_c, 10, 71, 0
11, 81920, Note_on_c, 10, 73, 46
11, 83456, Note_on_c, 10, 73, 0
11, 83456, Note_on_c, 10, 74, 52
11, 83712, Note_on_c, 10, 74, 0
11, 83712, Note_on_c, 10, 73, 53
11, 83968, Note_on_c, 10, 73, 0
11, 83968, Note_on_c, 10, 71, 54
11, 84224, Note_on_c, 10, 71, 0
11, 84224, Note_on_c, 10, 69, 55
11, 84480, Note_on_c, 10, 69, 0
11, 84480, Note_on_c, 10, 71, 56
11, 84736, Note_on_c, 10, 71, 0
11, 84736, Note_on_c, 10, 73, 57
11, 84992, Note_on_c, 10, 73, 0
11, 84992, Note_on_c, 10, 71, 58
11, 85248, Note_on_c, 10, 71, 0
11, 85248, Note_on_c, 10, 73, 59
11, 85504, Note_on_c, 10, 73, 0
11, 85504, Note_on_c, 10, 71, 60
11, 85760, Note_on_c, 10, 71, 0
11, 85760, Note_on_c, 10, 73, 61
11, 86016, Note_on_c, 10, 73, 0
11, 86016, Note_on_c, 10, 71, 62
11, 86272, Note_on_c, 10, 71, 0
11, 86272, Note_on_c, 10, 73, 63
11, 86528, Note_on_c, 10, 73, 0
11, 86528, Note_on_c, 10, 71, 64
11, 86784, Note_on_c, 10, 71, 0
11, 86784, Note_on_c, 10, 73, 65
11, 87040, Note_on_c, 10, 73, 0
11, 87040, Note_on_c, 10, 74, 66
11, 87296, Note_on_c, 10, 74, 0
11, 87296, Note_on_c, 10, 73, 67
11, 87552, Note_on_c, 10, 73, 0
11, 87552, Note_on_c, 10, 74, 68
11, 87808, Note_on_c, 10, 74, 0
11, 87808, Note_on_c, 10, 76, 69
11, 88064, Note_on_c, 10, 76, 0
11, 88064, Note_on_c, 10, 74, 70
11, 88320, Note_on_c, 10, 74, 0
11, 88320, Note_on_c, 10, 76, 71
11, 88576, Note_on_c, 10, 76, 0
11, 88576, Note_on_c, 10, 74, 72
11, 88832, Note_on_c, 10, 74, 0
11, 88832, Note_on_c, 10, 76, 73
11, 89088, Note_on_c, 10, 76, 0
11, 89088, Note_on_c, 10, 74, 74
11, 89344, Note_on_c, 10, 74, 0
11, 89344, Note_on_c, 10, 76, 75
11, 89600, Note_on_c, 10, 76, 0
11, 89600, Note_on_c, 10, 74, 76
11, 89856, Note_on_c, 10, 74, 0
11, 89856, Note_on_c, 10, 76, 77
11, 90112, Note_on_c, 10, 76, 0
11, 90112, Note_on_c, 10, 73, 78
11, 90368, Note_on_c, 10, 73, 0
11, 90368, Note_on_c, 10, 71, 79
11, 90624, Note_on_c, 10, 71, 0
11, 90624, Note_on_c, 10, 73, 80
11, 90880, Note_on_c, 10, 73, 0
11, 90880, Note_on_c, 10, 74, 81
11, 91136, Note_on_c, 10, 74, 0
11, 91136, Note_on_c, 10, 73, 82
11, 91392, Note_on_c, 10, 73, 0
11, 91392, Note_on_c, 10, 74, 83
11, 91648, Note_on_c, 10, 74, 0
11, 91648, Note_on_c, 10, 73, 85
11, 91904, Note_on_c, 10, 73, 0
11, 91904, Note_on_c, 10, 74, 86
11, 92160, Note_on_c, 10, 74, 0
11, 92160, Note_on_c, 10, 73, 87
11, 92416, Note_on_c, 10, 73, 0
11, 92416, Note_on_c, 10, 74, 88
11, 92672, Note_on_c, 10, 74, 0
11, 92672, Note_on_c, 10, 73, 89
11, 92928, Note_on_c, 10, 73, 0
11, 92928, Note_on_c, 10, 74, 90
11, 93184, Note_on_c, 10, 74, 0
11, 93184, Note_on_c, 10, 76, 91
11, 93440, Note_on_c, 10, 76, 0
11, 93440, Note_on_c, 10, 74, 92
11, 93696, Note_on_c, 10, 74, 0
11, 93696, Note_on_c, 10, 76, 93
11, 93952, Note_on_c, 10, 76, 0
11, 93952, Note_on_c, 10, 78, 94
11, 94208, Note_on_c, 10, 78, 0
11, 94208, Note_on_c, 10, 76, 95
11, 94464, Note_on_c, 10, 76, 0
11, 94464, Note_on_c, 10, 78, 96
11, 94720, Note_on_c, 10, 78, 0
11, 94720, Note_on_c, 10, 76, 97
11, 94976, Note_on_c, 10, 76, 0
11, 94976, Note_on_c, 10, 78, 98
11, 95232, Note_on_c, 10, 78, 0
11, 95232, Note_on_c, 10, 76, 99
11, 95488, Note_on_c, 10, 76, 0
11, 95488, Note_on_c, 10, 78, 100
11, 95744, Note_on_c, 10, 78, 0
11, 95744, Note_on_c, 10, 76, 101
11, 96000, Note_on_c, 10, 76, 0
11, 96000, Note_on_c, 10, 78, 102
11, 96256, Note_on_c, 10, 78, 0
11, 96256, Note_on_c, 10, 74, 103
11, 96512, Note_on_c, 10, 74, 0
11, 96768, Note_on_c, 10, 74, 105
11, 97024, Note_on_c, 10, 74, 0
11, 97792, Note_on_c, 10, 74, 110
11, 98048, Note_on_c, 10, 74, 0
11, 98304, Note_on_c, 10, 73, 110
11, 98816, Note_on_c, 10, 73, 0
11, 98816, Note_on_c, 10, 68, 111
11, 99072, Note_on_c, 10, 68, 0
11, 99328, Note_on_c, 10, 69, 112
11, 99584, Note_on_c, 10, 69, 0
11, 99584, Note_on_c, 10, 71, 112
11, 99840, Note_on_c, 10, 71, 0
11, 99840, Note_on_c, 10, 73, 113
11, 100096, Note_on_c, 10, 73, 0
11, 100096, Note_on_c, 10, 74, 113
11, 100352, Note_on_c, 10, 74, 0
11, 100352, Note_on_c, 10, 76, 113
11, 100608, Note_on_c, 10, 76, 0
11, 100864, Note_on_c, 10, 69, 114
11, 101120, Note_on_c, 10, 69, 0
11, 101376, Note_on_c, 10, 73, 115
11, 101888, Note_on_c, 10, 73, 0
11, 101888, Note_on_c, 10, 71, 115
11, 102144, Note_on_c, 10, 71, 0
11, 102400, Note_on_c, 10, 69, 116
11, 103424, Note_on_c, 10, 69, 0
11, 153088, Note_on_c, 10, 64, 79
11, 153344, Note_on_c, 10, 64, 0
11, 153600, Note_on_c, 10, 69, 79
11, 154112, Note_on_c, 10, 69, 0
11, 154112, Note_on_c, 10, 71, 80
11, 154368, Note_on_c, 10, 71, 0
11, 154624, Note_on_c, 10, 73, 80
11, 155136, Note_on_c, 10, 73, 0
11, 155136, Note_on_c, 10, 74, 81
11, 155307, Note_on_c, 10, 74, 0
11, 155307, Note_on_c, 10, 73, 81
11, 155477, Note_on_c, 10, 73, 0
11, 155477, Note_on_c, 10, 71, 81
11, 155648, Note_on_c, 10, 71, 0
11, 155648, Note_on_c, 10, 73, 81
11, 156160, Note_on_c, 10, 73, 0
11, 156160, Note_on_c, 10, 76, 82
11, 156672, Note_on_c, 10, 76, 0
11, 156672, Note_on_c, 10, 69, 82
11, 156928, Note_on_c, 10, 69, 0
11, 157184, Note_on_c, 10, 73, 83
11, 157440, Note_on_c, 10, 73, 0
11, 157696, Note_on_c, 10, 74, 83
11, 157952, Note_on_c, 10, 74, 0
11, 158208, Note_on_c, 10, 78, 85
11, 158464, Note_on_c, 10, 78, 0
11, 158464, Note_on_c, 10, 76, 83
11, 158720, Note_on_c, 10, 76, 0
11, 158720, Note_on_c, 10, 74, 81
11, 158976, Note_on_c, 10, 74, 0
11, 159232, Note_on_c, 10, 74, 79
11, 159744, Note_on_c, 10, 74, 0
11, 159744, Note_on_c, 10, 73, 80
11, 160000, Note_on_c, 10, 73, 0
11, 160256, Note_on_c, 10, 71, 81
11, 160512, Note_on_c, 10, 71, 0
11, 160512, Note_on_c, 10, 70, 81
11, 160768, Note_on_c, 10, 70, 0
11, 160768, Note_on_c, 10, 71, 81
11, 161280, Note_on_c, 10, 71, 0
11, 161280, Note_on_c, 10, 73, 82
11, 161451, Note_on_c, 10, 73, 0
11, 161451, Note_on_c, 10, 71, 82
11, 161621, Note_on_c, 10, 71, 0
11, 161621, Note_on_c, 10, 70, 83
11, 161792, Note_on_c, 10, 70, 0
11, 161792, Note_on_c, 10, 71, 83
11, 162048, Note_on_c, 10, 71, 0
11, 162304, Note_on_c, 10, 76, 84
11, 162560, Note_on_c, 10, 76, 0
11, 162560, Note_on_c, 10, 78, 84
11, 162816, Note_on_c, 10, 78, 0
11, 162816, Note_on_c, 10, 79, 85
11, 163072, Note_on_c, 10, 79, 0
11, 163328, Note_on_c, 10, 71, 83
11, 163584, Note_on_c, 10, 71, 0
11, 163840, Note_on_c, 10, 70, 80
11, 164096, Note_on_c, 10, 70, 0
11, 164096, Note_on_c, 10, 71, 78
11, 164352, Note_on_c, 10, 71, 0
11, 164352, Note_on_c, 10, 73, 77
11, 164608, Note_on_c, 10, 73, 0
11, 164864, Note_on_c, 10, 66, 76
11, 165120, Note_on_c, 10, 66, 0
11, 165376, Note_on_c, 10, 76, 78
11, 165632, Note_on_c, 10, 76, 0
11, 165888, Note_on_c, 10, 74, 79
11, 166144, Note_on_c, 10, 74, 0
11, 166400, Note_on_c, 10, 73, 81
11, 166656, Note_on_c, 10, 73, 0
11, 166912, Note_on_c, 10, 71, 83
11, 167424, Note_on_c, 10, 71, 0
11, 167424, Note_on_c, 10, 73, 84
11, 167595, Note_on_c, 10, 73, 0
11, 167595, Note_on_c, 10, 71, 85
11, 167765, Note_on_c, 10, 71, 0
11, 167765, Note_on_c, 10, 70, 85
11, 167936, Note_on_c, 10, 70, 0
11, 167936, Note_on_c, 10, 71, 86
11, 168192, Note_on_c, 10, 71, 0
11, 168448, Note_on_c, 10, 73, 88
11, 168704, Note_on_c, 10, 73, 0
11, 168960, Note_on_c, 10, 66, 89
11, 169472, Note_on_c, 10, 66, 0
11, 169472, Note_on_c, 10, 70, 91
11, 169728, Note_on_c, 10, 70, 0
11, 169984, Note_on_c, 10, 71, 92
11, 171008, Note_on_c, 10, 71, 0
11, 178688, Note_on_c, 10, 69, 108
11, 178944, Note_on_c, 10, 69, 0
11, 179200, Note_on_c, 10, 78, 108
11, 179712, Note_on_c, 10, 78, 0
11, 179712, Note_on_c, 10, 79, 108
11, 179883, Note_on_c, 10, 79, 0
11, 179883, Note_on_c, 10, 78, 108
11, 180053, Note_on_c, 10, 78, 0
11, 180053, Note_on_c, 10, 76, 108
11, 180224, Note_on_c, 10, 76, 0
11, 180224, Note_on_c, 10, 78, 108
11, 180480, Note_on_c, 10, 78, 0
11, 180736, Note_on_c, 10, 78, 108
11, 180992, Note_on_c, 10, 78, 0
11, 180992, Note_on_c, 10, 76, 108
11, 181248, Note_on_c, 10, 76, 0
11, 181248, Note_on_c, 10, 78, 108
11, 181504, Note_on_c, 10, 78, 0
11, 181760, Note_on_c, 10, 79, 108
11, 182016, Note_on_c, 10, 79, 0
11, 182016, Note_on_c, 10, 78, 108
11, 182272, Note_on_c, 10, 78, 0
11, 182272, Note_on_c, 10, 76, 108
11, 182528, Note_on_c, 10, 76, 0
11, 182784, Note_on_c, 10, 74, 104
11, 183040, Note_on_c, 10, 74, 0
11, 183040, Note_on_c, 10, 73, 101
11, 183296, Note_on_c, 10, 73, 0
11, 183296, Note_on_c, 10, 74, 98
11, 183552, Note_on_c, 10, 74, 0
11, 184832, Note_on_c, 10, 74, 99
11, 185600, Note_on_c, 10, 74, 0
11, 185856, Note_on_c, 10, 73, 102
11, 186112, Note_on_c, 10, 73, 0
11, 186112, Note_on_c, 10, 71, 103
11, 186368, Note_on_c, 10, 71, 0
11, 186368, Note_on_c, 10, 73, 104
11, 186880, Note_on_c, 10, 73, 0
11, 186880, Note_on_c, 10, 76, 105
11, 187136, Note_on_c, 10, 76, 0
11, 187392, Note_on_c, 10, 81, 107
11, 187648, Note_on_c, 10, 81, 0
11, 187904, Note_on_c, 10, 76, 108
11, 188160, Note_on_c, 10, 76, 0
11, 188416, Note_on_c, 10, 78, 108
11, 188672, Note_on_c, 10, 78, 0
11, 188928, Note_on_c, 10, 76, 104
11, 189184, Note_on_c, 10, 76, 0
11, 189184, Note_on_c, 10, 74, 102
11, 189440, Note_on_c, 10, 74, 0
11, 189440, Note_on_c, 10, 76, 100
11, 189696, Note_on_c, 10, 76, 0
11, 190976, Note_on_c, 10, 66, 84
11, 191744, Note_on_c, 10, 66, 0
11, 192000, Note_on_c, 10, 66, 86
11, 192256, Note_on_c, 10, 66, 0
11, 192256, Note_on_c, 10, 64, 87
11, 192512, Note_on_c, 10, 64, 0
11, 192512, Note_on_c, 10, 66, 88
11, 193536, Note_on_c, 10, 66, 0
11, 194048, Note_on_c, 10, 66, 91
11, 194304, Note_on_c, 10, 66, 0
11, 194560, Note_on_c, 10, 67, 93
11, 194816, Note_on_c, 10, 67, 0
11, 195072, Note_on_c, 10, 66, 94
11, 195328, Note_on_c, 10, 66, 0
11, 195328, Note_on_c, 10, 64, 95
11, 195584, Note_on_c, 10, 64, 0
11, 195584, Note_on_c, 10, 73, 95
11, 195840, Note_on_c, 10, 73, 0
11, 196096, Note_on_c, 10, 71, 96
11, 196352, Note_on_c, 10, 71, 0
11, 196352, Note_on_c, 10, 70, 97
11, 196608, Note_on_c, 10, 70, 0
11, 196608, Note_on_c, 10, 71, 98
11, 196864, Note_on_c, 10, 71, 0
11, 196864, Note_on_c, 10, 73, 98
11, 197120, Note_on_c, 10, 73, 0
11, 197120, Note_on_c, 10, 74, 99
11, 197888, Note_on_c, 10, 74, 0
11, 197888, Note_on_c, 10, 73, 101
11, 198144, Note_on_c, 10, 73, 0
11, 198144, Note_on_c, 10, 76, 101
11, 198912, Note_on_c, 10, 76, 0
11, 198912, Note_on_c, 10, 74, 103
11, 199168, Note_on_c, 10, 74, 0
11, 199168, Note_on_c, 10, 73, 104
11, 199424, Note_on_c, 10, 73, 0
11, 199424, Note_on_c, 10, 71, 105
11, 199680, Note_on_c, 10, 71, 0
11, 199680, Note_on_c, 10, 74, 106
11, 200192, Note_on_c, 10, 74, 0
11, 200192, Note_on_c, 10, 74, 106
11, 200320, Note_on_c, 10, 74, 0
11, 200320, Note_on_c, 10, 73, 106
11, 200448, Note_on_c, 10, 73, 0
11, 200448, Note_on_c, 10, 74, 107
11, 200576, Note_on_c, 10, 74, 0
11, 200576, Note_on_c, 10, 73, 107
11, 200704, Note_on_c, 10, 73, 0
11, 200704, Note_on_c, 10, 71, 107
11, 201728, Note_on_c, 10, 71, 0
11, 263680, Note_on_c, 10, 69, 100
11, 264192, Note_on_c, 10, 69, 0
11, 264192, Note_on_c, 10, 74, 102
11, 264448, Note_on_c, 10, 74, 0
11, 264704, Note_on_c, 10, 76, 105
11, 264960, Note_on_c, 10, 76, 0
11, 265216, Note_on_c, 10, 78, 108
11, 265472, Note_on_c, 10, 78, 0
11, 265728, Note_on_c, 10, 79, 108
11, 265899, Note_on_c, 10, 79, 0
11, 265899, Note_on_c, 10, 78, 108
11, 266069, Note_on_c, 10, 78, 0
11, 266069, Note_on_c, 10, 76, 108
11, 266240, Note_on_c, 10, 76, 0
11, 266240, Note_on_c, 10, 78, 108
11, 266496, Note_on_c, 10, 78, 0
11, 266752, Note_on_c, 10, 79, 108
11, 267008, Note_on_c, 10, 79, 0
11, 267264, Note_on_c, 10, 78, 108
11, 267520, Note_on_c, 10, 78, 0
11, 267776, Note_on_c, 10, 76, 108
11, 268032, Note_on_c, 10, 76, 0
11, 268288, Note_on_c, 10, 74, 108
11, 269210, Note_on_c, 10, 74, 0
11, 269312, Note_on_c, 10, 74, 108
11, 270234, Note_on_c, 10, 74, 0
11, 297472, Note_on_c, 10, 69, 56
11, 297984, Note_on_c, 10, 69, 0
11, 297984, Note_on_c, 10, 74, 56
11, 298240, Note_on_c, 10, 74, 0
11, 298496, Note_on_c, 10, 76, 56
11, 298752, Note_on_c, 10, 76, 0
11, 299008, Note_on_c, 10, 78, 57
11, 299264, Note_on_c, 10, 78, 0
11, 299520, Note_on_c, 10, 79, 59
11, 299691, Note_on_c, 10, 79, 0
11, 299691, Note_on_c, 10, 78, 59
11, 299861, Note_on_c, 10, 78, 0
11, 299861, Note_on_c, 10, 76, 60
11, 300032, Note_on_c, 10, 76, 0
11, 300032, Note_on_c, 10, 78, 61
11, 300288, Note_on_c, 10, 78, 0
11, 300544, Note_on_c, 10, 79, 63
11, 300800, Note_on_c, 10, 79, 0
11, 301056, Note_on_c, 10, 78, 65
11, 301312, Note_on_c, 10, 78, 0
11, 301568, Note_on_c, 10, 76, 67
11, 301824, Note_on_c, 10, 76, 0
11, 302080, Note_on_c, 10, 74, 69
11, 302336, Note_on_c, 10, 74, 0
11, 302592, Note_on_c, 10, 74, 71
11, 302848, Note_on_c, 10, 74, 0
11, 302848, Note_on_c, 10, 73, 72
11, 303104, Note_on_c, 10, 73, 0
11, 303104, Note_on_c, 10, 71, 73
11, 303360, Note_on_c, 10, 71, 0
11, 303616, Note_on_c, 10, 71, 75
11, 304128, Note_on_c, 10, 71, 0
11, 304128, Note_on_c, 10, 76, 77
11, 304384, Note_on_c, 10, 76, 0
11, 304640, Note_on_c, 10, 78, 79
11, 304896, Note_on_c, 10, 78, 0
11, 305152, Note_on_c, 10, 79, 81
11, 305408, Note_on_c, 10, 79, 0
11, 305664, Note_on_c, 10, 78, 83
11, 305920, Note_on_c, 10, 78, 0
11, 305920, Note_on_c, 10, 76, 84
11, 306176, Note_on_c, 10, 76, 0
11, 306176, Note_on_c, 10, 81, 85
11, 306432, Note_on_c, 10, 81, 0
11, 306688, Note_on_c, 10, 73, 87
11, 306944, Note_on_c, 10, 73, 0
11, 307200, Note_on_c, 10, 74, 89
11, 307456, Note_on_c, 10, 74, 0
11, 307712, Note_on_c, 10, 79, 91
11, 307968, Note_on_c, 10, 79, 0
11, 308224, Note_on_c, 10, 78, 91
11, 308736, Note_on_c, 10, 78, 0
11, 308736, Note_on_c, 10, 76, 83
11, 308992, Note_on_c, 10, 76, 0
11, 309760, Note_on_c, 10, 73, 95
11, 310272, Note_on_c, 10, 73, 0
11, 310272, Note_on_c, 10, 75, 97
11, 310528, Note_on_c, 10, 75, 0
11, 310784, Note_on_c, 10, 76, 99
11, 311040, Note_on_c, 10, 76, 0
11, 311296, Note_on_c, 10, 78, 101
11, 311808, Note_on_c, 10, 78, 0
11, 311808, Note_on_c, 10, 79, 99
11, 311979, Note_on_c, 10, 79, 0
11, 311979, Note_on_c, 10, 78, 98
11, 312149, Note_on_c, 10, 78, 0
11, 312149, Note_on_c, 10, 76, 98
11, 312320, Note_on_c, 10, 76, 0
11, 312320, Note_on_c, 10, 78, 98
11, 313856, Note_on_c, 10, 78, 0
11, 313856, Note_on_c, 10, 79, 95
11, 314112, Note_on_c, 10, 79, 0
11, 314112, Note_on_c, 10, 78, 94
11, 314368, Note_on_c, 10, 78, 0
11, 314368, Note_on_c, 10, 76, 93
11, 314880, Note_on_c, 10, 76, 0
11, 314880, Note_on_c, 10, 78, 92
11, 315051, Note_on_c, 10, 78, 0
11, 315051, Note_on_c, 10, 76, 92
11, 315221, Note_on_c, 10, 76, 0
11, 315221, Note_on_c, 10, 74, 92
11, 315392, Note_on_c, 10, 74, 0
11, 315392, Note_on_c, 10, 76, 91
11, 316928, Note_on_c, 10, 76, 0
11, 316928, Note_on_c, 10, 78, 88
11, 317184, Note_on_c, 10, 78, 0
11, 317184, Note_on_c, 10, 76, 88
11, 317440, Note_on_c, 10, 76, 0
11, 317440, Note_on_c, 10, 74, 87
11, 317952, Note_on_c, 10, 74, 0
11, 317952, Note_on_c, 10, 76, 85
11, 318123, Note_on_c, 10, 76, 0
11, 318123, Note_on_c, 10, 74, 84
11, 318293, Note_on_c, 10, 74, 0
11, 318293, Note_on_c, 10, 73, 82
11, 318464, Note_on_c, 10, 73, 0
11, 318464, Note_on_c, 10, 74, 81
11, 324096, Note_on_c, 10, 74, 0
11, 324096, Note_on_c, 10, 73, 69
11, 324267, Note_on_c, 10, 73, 0
11, 324267, Note_on_c, 10, 71, 70
11, 324437, Note_on_c, 10, 71, 0
11, 324437, Note_on_c, 10, 69, 71
11, 324608, Note_on_c, 10, 69, 0
11, 324608, Note_on_c, 10, 76, 72
11, 324864, Note_on_c, 10, 76, 0
11, 324864, Note_on_c, 10, 78, 73
11, 325120, Note_on_c, 10, 78, 0
11, 325120, Note_on_c, 10, 76, 74
11, 325376, Note_on_c, 10, 76, 0
11, 325376, Note_on_c, 10, 78, 75
11, 325632, Note_on_c, 10, 78, 0
11, 325632, Note_on_c, 10, 76, 76
11, 325888, Note_on_c, 10, 76, 0
11, 325888, Note_on_c, 10, 78, 77
11, 326144, Note_on_c, 10, 78, 0
11, 326144, Note_on_c, 10, 76, 79
11, 326400, Note_on_c, 10, 76, 0
11, 326400, Note_on_c, 10, 78, 80
11, 326656, Note_on_c, 10, 78, 0
11, 326656, Note_on_c, 10, 76, 81
11, 330240, Note_on_c, 10, 76, 0
11, 330240, Note_on_c, 10, 75, 97
11, 330496, Note_on_c, 10, 75, 0
11, 330752, Note_on_c, 10, 71, 98
11, 331008, Note_on_c, 10, 71, 0
11, 331264, Note_on_c, 10, 75, 99
11, 331520, Note_on_c, 10, 75, 0
11, 331776, Note_on_c, 10, 78, 100
11, 332032, Note_on_c, 10, 78, 0
11, 332288, Note_on_c, 10, 75, 101
11, 332544, Note_on_c, 10, 75, 0
11, 332800, Note_on_c, 10, 76, 102
11, 333312, Note_on_c, 10, 76, 0
11, 333312, Note_on_c, 10, 76, 103
11, 333568, Note_on_c, 10, 76, 0
11, 334336, Note_on_c, 10, 79, 105
11, 334848, Note_on_c, 10, 79, 0
11, 334848, Note_on_c, 10, 78, 106
11, 335104, Note_on_c, 10, 78, 0
11, 335360, Note_on_c, 10, 73, 107
11, 335616, Note_on_c, 10, 73, 0
11, 335872, Note_on_c, 10, 74, 108
11, 336128, Note_on_c, 10, 74, 0
11, 336128, Note_on_c, 10, 76, 109
11, 336384, Note_on_c, 10, 76, 0
11, 336384, Note_on_c, 10, 78, 109
11, 336640, Note_on_c, 10, 78, 0
11, 336640, Note_on_c, 10, 79, 109
11, 336896, Note_on_c, 10, 79, 0
11, 336896, Note_on_c, 10, 81, 110
11, 337152, Note_on_c, 10, 81, 0
11, 337408, Note_on_c, 10, 74, 111
11, 337664, Note_on_c, 10, 74, 0
11, 337920, Note_on_c, 10, 78, 111
11, 338432, Note_on_c, 10, 78, 0
11, 338432, Note_on_c, 10, 76, 112
11, 338688, Note_on_c, 10, 76, 0
11, 338944, Note_on_c, 10, 74, 113
11, 339968, Note_on_c, 10, 74, 0
11, 409600, End_track
12, 0, Start_track
12, 0, Title_t, "Soprano II"
12, 0, Program_c, 11, 52
12, 0, Control_c, 11, 121, 127
12, 0, Control_c, 11, 91, 127
12, 0, Control_c, 11, 1, 10
12, 0, Control_c, 11, 10, 40
12, 2560, Note_on_c, 11, 66, 115
12, 2816, Note_on_c, 11, 66, 0
12, 3072, Note_on_c, 11, 69, 115
12, 3328, Note_on_c, 11, 69, 0
12, 3584, Note_on_c, 11, 73, 115
12, 3840, Note_on_c, 11, 73, 0
12, 4096, Note_on_c, 11, 74, 115
12, 4608, Note_on_c, 11, 74, 0
12, 4608, Note_on_c, 11, 76, 115
12, 4779, Note_on_c, 11, 76, 0
12, 4779, Note_on_c, 11, 74, 115
12, 4949, Note_on_c, 11, 74, 0
12, 4949, Note_on_c, 11, 73, 115
12, 5120, Note_on_c, 11, 73, 0
12, 5120, Note_on_c, 11, 74, 115
12, 5376, Note_on_c, 11, 74, 0
12, 5632, Note_on_c, 11, 74, 115
12, 5888, Note_on_c, 11, 74, 0
12, 6144, Note_on_c, 11, 74, 115
12, 6400, Note_on_c, 11, 74, 0
12, 6656, Note_on_c, 11, 73, 115
12, 6912, Note_on_c, 11, 73, 0
12, 7168, Note_on_c, 11, 74, 115
12, 8090, Note_on_c, 11, 74, 0
12, 8192, Note_on_c, 11, 74, 115
12, 9114, Note_on_c, 11, 74, 0
12, 36352, Note_on_c, 11, 64, 69
12, 36608, Note_on_c, 11, 64, 0
12, 36864, Note_on_c, 11, 69, 72
12, 37120, Note_on_c, 11, 69, 0
12, 37376, Note_on_c, 11, 71, 75
12, 37632, Note_on_c, 11, 71, 0
12, 37888, Note_on_c, 11, 73, 79
12, 38144, Note_on_c, 11, 73, 0
12, 38144, Note_on_c, 11, 74, 80
12, 38400, Note_on_c, 11, 74, 0
12, 38400, Note_on_c, 11, 73, 82
12, 38656, Note_on_c, 11, 73, 0
12, 38656, Note_on_c, 11, 71, 84
12, 38912, Note_on_c, 11, 71, 0
12, 38912, Note_on_c, 11, 69, 85
12, 39168, Note_on_c, 11, 69, 0
12, 39168, Note_on_c, 11, 67, 87
12, 39424, Note_on_c, 11, 67, 0
12, 39424, Note_on_c, 11, 69, 88
12, 39680, Note_on_c, 11, 69, 0
12, 39680, Note_on_c, 11, 71, 90
12, 39936, Note_on_c, 11, 71, 0
12, 39936, Note_on_c, 11, 73, 92
12, 40192, Note_on_c, 11, 73, 0
12, 40192, Note_on_c, 11, 74, 93
12, 40448, Note_on_c, 11, 74, 0
12, 40448, Note_on_c, 11, 71, 95
12, 40704, Note_on_c, 11, 71, 0
12, 40704, Note_on_c, 11, 73, 97
12, 40960, Note_on_c, 11, 73, 0
12, 40960, Note_on_c, 11, 74, 98
12, 41216, Note_on_c, 11, 74, 0
12, 41216, Note_on_c, 11, 76, 100
12, 41472, Note_on_c, 11, 76, 0
12, 41472, Note_on_c, 11, 74, 102
12, 41728, Note_on_c, 11, 74, 0
12, 41728, Note_on_c, 11, 73, 103
12, 41984, Note_on_c, 11, 73, 0
12, 41984, Note_on_c, 11, 74, 105
12, 42240, Note_on_c, 11, 74, 0
12, 42496, Note_on_c, 11, 69, 109
12, 42752, Note_on_c, 11, 69, 0
12, 43008, Note_on_c, 11, 69, 109
12, 43264, Note_on_c, 11, 69, 0
12, 43520, Note_on_c, 11, 73, 109
12, 43776, Note_on_c, 11, 73, 0
12, 44032, Note_on_c, 11, 74, 109
12, 44544, Note_on_c, 11, 74, 0
12, 44544, Note_on_c, 11, 76, 109
12, 44715, Note_on_c, 11, 76, 0
12, 44715, Note_on_c, 11, 74, 109
12, 44885, Note_on_c, 11, 74, 0
12, 44885, Note_on_c, 11, 73, 109
12, 45056, Note_on_c, 11, 73, 0
12, 45056, Note_on_c, 11, 74, 109
12, 45312, Note_on_c, 11, 74, 0
12, 45568, Note_on_c, 11, 74, 109
12, 45824, Note_on_c, 11, 74, 0
12, 46080, Note_on_c, 11, 74, 109
12, 46336, Note_on_c, 11, 74, 0
12, 46592, Note_on_c, 11, 73, 109
12, 46848, Note_on_c, 11, 73, 0
12, 47104, Note_on_c, 11, 74, 109
12, 47360, Note_on_c, 11, 74, 0
12, 47360, Note_on_c, 11, 76, 109
12, 47616, Note_on_c, 11, 76, 0
12, 47616, Note_on_c, 11, 74, 109
12, 47872, Note_on_c, 11, 74, 0
12, 47872, Note_on_c, 11, 76, 109
12, 48128, Note_on_c, 11, 76, 0
12, 48128, Note_on_c, 11, 74, 109
12, 48384, Note_on_c, 11, 74, 0
12, 48384, Note_on_c, 11, 76, 109
12, 48640, Note_on_c, 11, 76, 0
12, 48640, Note_on_c, 11, 74, 109
12, 48896, Note_on_c, 11, 74, 0
12, 48896, Note_on_c, 11, 76, 109
12, 49152, Note_on_c, 11, 76, 0
12, 49152, Note_on_c, 11, 74, 109
12, 49408, Note_on_c, 11, 74, 0
12, 49408, Note_on_c, 11, 76, 109
12, 49664, Note_on_c, 11, 76, 0
12, 49664, Note_on_c, 11, 74, 109
12, 49920, Note_on_c, 11, 74, 0
12, 49920, Note_on_c, 11, 76, 109
12, 50176, Note_on_c, 11, 76, 0
12, 50176, Note_on_c, 11, 74, 108
12, 50688, Note_on_c, 11, 74, 0
12, 50688, Note_on_c, 11, 69, 106
12, 50944, Note_on_c, 11, 69, 0
12, 50944, Note_on_c, 11, 67, 105
12, 51200, Note_on_c, 11, 67, 0
12, 51200, Note_on_c, 11, 69, 104
12, 51456, Note_on_c, 11, 69, 0
12, 51712, Note_on_c, 11, 69, 102
12, 51968, Note_on_c, 11, 69, 0
12, 52224, Note_on_c, 11, 69, 101
12, 53504, Note_on_c, 11, 69, 0
12, 53760, Note_on_c, 11, 67, 96
12, 54016, Note_on_c, 11, 67, 0
12, 54272, Note_on_c, 11, 71, 95
12, 54528, Note_on_c, 11, 71, 0
12, 54784, Note_on_c, 11, 74, 93
12, 55296, Note_on_c, 11, 74, 0
12, 55296, Note_on_c, 11, 76, 95
12, 55552, Note_on_c, 11, 76, 0
12, 55808, Note_on_c, 11, 71, 98
12, 56064, Note_on_c, 11, 71, 0
12, 56320, Note_on_c, 11, 69, 100
12, 56576, Note_on_c, 11, 69, 0
12, 56832, Note_on_c, 11, 69, 102
12, 57088, Note_on_c, 11, 69, 0
12, 57344, Note_on_c, 11, 69, 105
12, 57600, Note_on_c, 11, 69, 0
12, 57856, Note_on_c, 11, 76, 107
12, 58112, Note_on_c, 11, 76, 0
12, 58368, Note_on_c, 11, 74, 111
12, 58624, Note_on_c, 11, 74, 0
12, 58880, Note_on_c, 11, 74, 112
12, 59136, Note_on_c, 11, 74, 0
12, 59136, Note_on_c, 11, 74, 112
12, 59392, Note_on_c, 11, 74, 0
12, 59392, Note_on_c, 11, 73, 113
12, 59648, Note_on_c, 11, 73, 0
12, 59904, Note_on_c, 11, 73, 114
12, 60160, Note_on_c, 11, 73, 0
12, 60928, Note_on_c, 11, 76, 98
12, 61184, Note_on_c, 11, 76, 0
12, 61440, Note_on_c, 11, 64, 98
12, 61696, Note_on_c, 11, 64, 0
12, 61952, Note_on_c, 11, 68, 99
12, 62208, Note_on_c, 11, 68, 0
12, 62464, Note_on_c, 11, 69, 99
12, 62976, Note_on_c, 11, 69, 0
12, 62976, Note_on_c, 11, 71, 98
12, 63147, Note_on_c, 11, 71, 0
12, 63147, Note_on_c, 11, 69, 98
12, 63317, Note_on_c, 11, 69, 0
12, 63317, Note_on_c, 11, 68, 98
12, 63488, Note_on_c, 11, 68, 0
12, 63488, Note_on_c, 11, 69, 97
12, 63744, Note_on_c, 11, 69, 0
12, 64000, Note_on_c, 11, 68, 96
12, 64256, Note_on_c, 11, 68, 0
12, 64512, Note_on_c, 11, 69, 95
12, 64768, Note_on_c, 11, 69, 0
12, 65024, Note_on_c, 11, 65, 94
12, 65280, Note_on_c, 11, 65, 0
12, 65536, Note_on_c, 11, 66, 93
12, 65792, Note_on_c, 11, 66, 0
12, 66048, Note_on_c, 11, 73, 91
12, 66304, Note_on_c, 11, 73, 0
12, 66304, Note_on_c, 11, 71, 91
12, 66560, Note_on_c, 11, 71, 0
12, 66560, Note_on_c, 11, 69, 64
12, 66816, Note_on_c, 11, 69, 0
12, 67072, Note_on_c, 11, 73, 88
12, 67328, Note_on_c, 11, 73, 0
12, 67584, Note_on_c, 11, 66, 90
12, 67840, Note_on_c, 11, 66, 0
12, 68096, Note_on_c, 11, 69, 92
12, 68352, Note_on_c, 11, 69, 0
12, 68608, Note_on_c, 11, 69, 94
12, 69120, Note_on_c, 11, 69, 0
12, 69120, Note_on_c, 11, 68, 94
12, 69632, Note_on_c, 11, 68, 0
12, 69632, Note_on_c, 11, 69, 94
12, 69888, Note_on_c, 11, 69, 0
12, 70144, Note_on_c, 11, 71, 94
12, 70400, Note_on_c, 11, 71, 0
12, 70656, Note_on_c, 11, 64, 94
12, 70912, Note_on_c, 11, 64, 0
12, 71168, Note_on_c, 11, 69, 94
12, 71424, Note_on_c, 11, 69, 0
12, 71680, Note_on_c, 11, 69, 90
12, 72192, Note_on_c, 11, 69, 0
12, 72192, Note_on_c, 11, 68, 80
12, 72448, Note_on_c, 11, 68, 0
12, 73216, Note_on_c, 11, 68, 43
12, 73728, Note_on_c, 11, 68, 0
12, 73728, Note_on_c, 11, 70, 43
12, 73984, Note_on_c, 11, 70, 0
12, 74240, Note_on_c, 11, 71, 43
12, 74496, Note_on_c, 11, 71, 0
12, 74752, Note_on_c, 11, 73, 43
12, 75264, Note_on_c, 11, 73, 0
12, 75264, Note_on_c, 11, 74, 43
12, 75435, Note_on_c, 11, 74, 0
12, 75435, Note_on_c, 11, 73, 43
12, 75605, Note_on_c, 11, 73, 0
12, 75605, Note_on_c, 11, 71, 43
12, 75776, Note_on_c, 11, 71, 0
12, 75776, Note_on_c, 11, 73, 43
12, 77312, Note_on_c, 11, 73, 0
12, 77312, Note_on_c, 11, 74, 43
12, 77568, Note_on_c, 11, 74, 0
12, 77568, Note_on_c, 11, 73, 43
12, 77824, Note_on_c, 11, 73, 0
12, 77824, Note_on_c, 11, 71, 43
12, 78336, Note_on_c, 11, 71, 0
12, 78336, Note_on_c, 11, 73, 43
12, 78507, Note_on_c, 11, 73, 0
12, 78507, Note_on_c, 11, 71, 43
12, 78677, Note_on_c, 11, 71, 0
12, 78677, Note_on_c, 11, 69, 43
12, 78848, Note_on_c, 11, 69, 0
12, 78848, Note_on_c, 11, 71, 43
12, 80384, Note_on_c, 11, 71, 0
12, 80384, Note_on_c, 11, 73, 43
12, 80640, Note_on_c, 11, 73, 0
12, 80640, Note_on_c, 11, 71, 43
12, 80896, Note_on_c, 11, 71, 0
12, 80896, Note_on_c, 11, 69, 42
12, 81408, Note_on_c, 11, 69, 0
12, 81408, Note_on_c, 11, 71, 44
12, 81579, Note_on_c, 11, 71, 0
12, 81579, Note_on_c, 11, 69, 44
12, 81749, Note_on_c, 11, 69, 0
12, 81749, Note_on_c, 11, 68, 45
12, 81920, Note_on_c, 11, 68, 0
12, 81920, Note_on_c, 11, 69, 46
12, 87296, Note_on_c, 11, 69, 0
12, 87552, Note_on_c, 11, 68, 68
12, 87723, Note_on_c, 11, 68, 0
12, 87723, Note_on_c, 11, 66, 69
12, 87893, Note_on_c, 11, 66, 0
12, 87893, Note_on_c, 11, 64, 69
12, 88064, Note_on_c, 11, 64, 0
12, 88064, Note_on_c, 11, 71, 70
12, 88320, Note_on_c, 11, 71, 0
12, 88320, Note_on_c, 11, 73, 71
12, 88576, Note_on_c, 11, 73, 0
12, 88576, Note_on_c, 11, 71, 72
12, 88832, Note_on_c, 11, 71, 0
12, 88832, Note_on_c, 11, 73, 73
12, 89088, Note_on_c, 11, 73, 0
12, 89088, Note_on_c, 11, 71, 74
12, 89344, Note_on_c, 11, 71, 0
12, 89344, Note_on_c, 11, 73, 75
12, 89600, Note_on_c, 11, 73, 0
12, 89600, Note_on_c, 11, 71, 76
12, 89856, Note_on_c, 11, 71, 0
12, 89856, Note_on_c, 11, 73, 77
12, 90112, Note_on_c, 11, 73, 0
12, 90112, Note_on_c, 11, 71, 78
12, 93440, Note_on_c, 11, 71, 0
12, 93696, Note_on_c, 11, 70, 93
12, 93952, Note_on_c, 11, 70, 0
12, 94208, Note_on_c, 11, 66, 95
12, 94720, Note_on_c, 11, 66, 0
12, 94720, Note_on_c, 11, 70, 97
12, 95232, Note_on_c, 11, 70, 0
12, 95232, Note_on_c, 11, 73, 99
12, 95488, Note_on_c, 11, 73, 0
12, 95744, Note_on_c, 11, 71, 101
12, 96000, Note_on_c, 11, 71, 0
12, 96000, Note_on_c, 11, 70, 102
12, 96256, Note_on_c, 11, 70, 0
12, 96256, Note_on_c, 11, 71, 103
12, 96512, Note_on_c, 11, 71, 0
12, 96768, Note_on_c, 11, 71, 105
12, 97024, Note_on_c, 11, 71, 0
12, 97792, Note_on_c, 11, 71, 110
12, 98048, Note_on_c, 11, 71, 0
12, 98304, Note_on_c, 11, 76, 110
12, 98816, Note_on_c, 11, 76, 0
12, 98816, Note_on_c, 11, 74, 111
12, 99072, Note_on_c, 11, 74, 0
12, 99328, Note_on_c, 11, 73, 112
12, 99584, Note_on_c, 11, 73, 0
12, 99584, Note_on_c, 11, 74, 112
12, 99840, Note_on_c, 11, 74, 0
12, 99840, Note_on_c, 11, 73, 113
12, 100096, Note_on_c, 11, 73, 0
12, 100096, Note_on_c, 11, 71, 113
12, 100352, Note_on_c, 11, 71, 0
12, 100352, Note_on_c, 11, 69, 113
12, 100608, Note_on_c, 11, 69, 0
12, 100864, Note_on_c, 11, 69, 114
12, 101120, Note_on_c, 11, 69, 0
12, 101376, Note_on_c, 11, 69, 115
12, 101888, Note_on_c, 11, 69, 0
12, 101888, Note_on_c, 11, 68, 115
12, 102144, Note_on_c, 11, 68, 0
12, 102400, Note_on_c, 11, 69, 116
12, 103424, Note_on_c, 11, 69, 0
12, 153088, Note_on_c, 11, 64, 79
12, 153344, Note_on_c, 11, 64, 0
12, 153600, Note_on_c, 11, 64, 79
12, 154112, Note_on_c, 11, 64, 0
12, 154112, Note_on_c, 11, 68, 80
12, 154368, Note_on_c, 11, 68, 0
12, 154624, Note_on_c, 11, 69, 80
12, 155136, Note_on_c, 11, 69, 0
12, 155136, Note_on_c, 11, 68, 81
12, 155392, Note_on_c, 11, 68, 0
12, 155648, Note_on_c, 11, 69, 81
12, 156160, Note_on_c, 11, 69, 0
12, 156160, Note_on_c, 11, 73, 82
12, 156416, Note_on_c, 11, 73, 0
12, 156672, Note_on_c, 11, 74, 82
12, 157184, Note_on_c, 11, 74, 0
12, 157184, Note_on_c, 11, 76, 83
12, 157440, Note_on_c, 11, 76, 0
12, 157696, Note_on_c, 11, 69, 83
12, 158720, Note_on_c, 11, 69, 0
12, 158720, Note_on_c, 11, 69, 81
12, 158976, Note_on_c, 11, 69, 0
12, 159232, Note_on_c, 11, 71, 79
12, 159488, Note_on_c, 11, 71, 0
12, 159744, Note_on_c, 11, 67, 80
12, 160000, Note_on_c, 11, 67, 0
12, 160256, Note_on_c, 11, 66, 81
12, 160512, Note_on_c, 11, 66, 0
12, 160768, Note_on_c, 11, 66, 81
12, 161536, Note_on_c, 11, 66, 0
12, 161536, Note_on_c, 11, 66, 83
12, 161792, Note_on_c, 11, 66, 0
12, 161792, Note_on_c, 11, 64, 83
12, 162048, Note_on_c, 11, 64, 0
12, 162304, Note_on_c, 11, 71, 84
12, 162560, Note_on_c, 11, 71, 0
12, 162560, Note_on_c, 11, 70, 84
12, 162816, Note_on_c, 11, 70, 0
12, 162816, Note_on_c, 11, 71, 85
12, 163072, Note_on_c, 11, 71, 0
12, 163328, Note_on_c, 11, 76, 83
12, 163584, Note_on_c, 11, 76, 0
12, 163840, Note_on_c, 11, 73, 80
12, 164864, Note_on_c, 11, 73, 0
12, 164864, Note_on_c, 11, 70, 76
12, 165120, Note_on_c, 11, 70, 0
12, 165376, Note_on_c, 11, 70, 78
12, 165632, Note_on_c, 11, 70, 0
12, 165888, Note_on_c, 11, 71, 79
12, 166144, Note_on_c, 11, 71, 0
12, 166400, Note_on_c, 11, 73, 81
12, 166656, Note_on_c, 11, 73, 0
12, 166912, Note_on_c, 11, 74, 83
12, 167424, Note_on_c, 11, 74, 0
12, 167424, Note_on_c, 11, 76, 84
12, 167595, Note_on_c, 11, 76, 0
12, 167595, Note_on_c, 11, 74, 85
12, 167765, Note_on_c, 11, 74, 0
12, 167765, Note_on_c, 11, 73, 85
12, 167936, Note_on_c, 11, 73, 0
12, 167936, Note_on_c, 11, 78, 86
12, 168192, Note_on_c, 11, 78, 0
12, 168448, Note_on_c, 11, 76, 88
12, 168704, Note_on_c, 11, 76, 0
12, 168960, Note_on_c, 11, 76, 89
12, 169216, Note_on_c, 11, 76, 0
12, 169216, Note_on_c, 11, 74, 90
12, 169472, Note_on_c, 11, 74, 0
12, 169472, Note_on_c, 11, 73, 91
12, 169728, Note_on_c, 11, 73, 0
12, 169728, Note_on_c, 11, 74, 92
12, 169984, Note_on_c, 11, 74, 0
12, 169984, Note_on_c, 11, 71, 92
12, 171008, Note_on_c, 11, 71, 0
12, 177664, Note_on_c, 11, 64, 102
12, 177920, Note_on_c, 11, 64, 0
12, 178176, Note_on_c, 11, 76, 108
12, 178432, Note_on_c, 11, 76, 0
12, 178688, Note_on_c, 11, 76, 108
12, 178944, Note_on_c, 11, 76, 0
12, 179712, Note_on_c, 11, 69, 108
12, 179968, Note_on_c, 11, 69, 0
12, 180224, Note_on_c, 11, 74, 108
12, 180480, Note_on_c, 11, 74, 0
12, 180736, Note_on_c, 11, 74, 108
12, 180992, Note_on_c, 11, 74, 0
12, 180992, Note_on_c, 11, 73, 108
12, 181248, Note_on_c, 11, 73, 0
12, 181248, Note_on_c, 11, 74, 108
12, 181504, Note_on_c, 11, 74, 0
12, 181760, Note_on_c, 11, 73, 108
12, 182016, Note_on_c, 11, 73, 0
12, 182272, Note_on_c, 11, 71, 108
12, 183194, Note_on_c, 11, 71, 0
12, 183296, Note_on_c, 11, 71, 98
12, 184218, Note_on_c, 11, 71, 0
12, 184832, Note_on_c, 11, 71, 99
12, 185088, Note_on_c, 11, 71, 0
12, 185344, Note_on_c, 11, 69, 101
12, 185856, Note_on_c, 11, 69, 0
12, 185856, Note_on_c, 11, 64, 102
12, 186368, Note_on_c, 11, 64, 0
12, 186368, Note_on_c, 11, 69, 104
12, 186880, Note_on_c, 11, 69, 0
12, 186880, Note_on_c, 11, 73, 105
12, 187136, Note_on_c, 11, 73, 0
12, 187392, Note_on_c, 11, 76, 107
12, 187648, Note_on_c, 11, 76, 0
12, 187904, Note_on_c, 11, 73, 108
12, 188160, Note_on_c, 11, 73, 0
12, 188416, Note_on_c, 11, 73, 108
12, 189338, Note_on_c, 11, 73, 0
12, 189440, Note_on_c, 11, 73, 100
12, 190362, Note_on_c, 11, 73, 0
12, 192000, Note_on_c, 11, 71, 86
12, 192768, Note_on_c, 11, 71, 0
12, 192768, Note_on_c, 11, 70, 88
12, 193024, Note_on_c, 11, 70, 0
12, 193024, Note_on_c, 11, 71, 89
12, 193280, Note_on_c, 11, 71, 0
12, 194048, Note_on_c, 11, 75, 91
12, 194304, Note_on_c, 11, 75, 0
12, 194560, Note_on_c, 11, 76, 93
12, 195072, Note_on_c, 11, 76, 0
12, 195072, Note_on_c, 11, 78, 94
12, 195328, Note_on_c, 11, 78, 0
12, 195328, Note_on_c, 11, 79, 95
12, 195584, Note_on_c, 11, 79, 0
12, 195584, Note_on_c, 11, 78, 95
12, 196864, Note_on_c, 11, 78, 0
12, 197120, Note_on_c, 11, 79, 99
12, 197376, Note_on_c, 11, 79, 0
12, 197376, Note_on_c, 11, 78, 100
12, 197632, Note_on_c, 11, 78, 0
12, 197632, Note_on_c, 11, 76, 100
12, 197888, Note_on_c, 11, 76, 0
12, 198144, Note_on_c, 11, 70, 101
12, 198400, Note_on_c, 11, 70, 0
12, 198656, Note_on_c, 11, 71, 103
12, 198912, Note_on_c, 11, 71, 0
12, 199168, Note_on_c, 11, 71, 104
12, 199424, Note_on_c, 11, 71, 0
12, 199680, Note_on_c, 11, 71, 106
12, 200192, Note_on_c, 11, 71, 0
12, 200192, Note_on_c, 11, 70, 106
12, 200448, Note_on_c, 11, 70, 0
12, 200704, Note_on_c, 11, 71, 107
12, 201728, Note_on_c, 11, 71, 0
12, 263680, Note_on_c, 11, 66, 100
12, 264192, Note_on_c, 11, 66, 0
12, 264192, Note_on_c, 11, 69, 102
12, 264448, Note_on_c, 11, 69, 0
12, 264704, Note_on_c, 11, 73, 105
12, 264960, Note_on_c, 11, 73, 0
12, 265216, Note_on_c, 11, 74, 108
12, 265472, Note_on_c, 11, 74, 0
12, 265728, Note_on_c, 11, 76, 108
12, 265899, Note_on_c, 11, 76, 0
12, 265899, Note_on_c, 11, 74, 108
12, 266069, Note_on_c, 11, 74, 0
12, 266069, Note_on_c, 11, 73, 108
12, 266240, Note_on_c, 11, 73, 0
12, 266240, Note_on_c, 11, 74, 108
12, 266496, Note_on_c, 11, 74, 0
12, 266752, Note_on_c, 11, 74, 108
12, 267008, Note_on_c, 11, 74, 0
12, 267264, Note_on_c, 11, 74, 108
12, 267520, Note_on_c, 11, 74, 0
12, 267776, Note_on_c, 11, 73, 108
12, 268032, Note_on_c, 11, 73, 0
12, 268288, Note_on_c, 11, 74, 108
12, 269210, Note_on_c, 11, 74, 0
12, 269312, Note_on_c, 11, 69, 108
12, 270234, Note_on_c, 11, 69, 0
12, 291328, Note_on_c, 11, 64, 61
12, 291840, Note_on_c, 11, 64, 0
12, 291840, Note_on_c, 11, 69, 63
12, 292096, Note_on_c, 11, 69, 0
12, 292352, Note_on_c, 11, 71, 65
12, 292608, Note_on_c, 11, 71, 0
12, 292864, Note_on_c, 11, 73, 66
12, 293120, Note_on_c, 11, 73, 0
12, 293120, Note_on_c, 11, 74, 67
12, 293376, Note_on_c, 11, 74, 0
12, 293376, Note_on_c, 11, 73, 68
12, 293632, Note_on_c, 11, 73, 0
12, 293632, Note_on_c, 11, 71, 69
12, 293888, Note_on_c, 11, 71, 0
12, 293888, Note_on_c, 11, 69, 69
12, 294144, Note_on_c, 11, 69, 0
12, 294144, Note_on_c, 11, 67, 70
12, 294400, Note_on_c, 11, 67, 0
12, 294400, Note_on_c, 11, 69, 71
12, 294656, Note_on_c, 11, 69, 0
12, 294656, Note_on_c, 11, 71, 72
12, 294912, Note_on_c, 11, 71, 0
12, 294912, Note_on_c, 11, 73, 73
12, 295168, Note_on_c, 11, 73, 0
12, 295168, Note_on_c, 11, 74, 73
12, 295424, Note_on_c, 11, 74, 0
12, 295424, Note_on_c, 11, 71, 74
12, 295680, Note_on_c, 11, 71, 0
12, 295680, Note_on_c, 11, 73, 75
12, 295936, Note_on_c, 11, 73, 0
12, 295936, Note_on_c, 11, 74, 76
12, 296192, Note_on_c, 11, 74, 0
12, 296192, Note_on_c, 11, 76, 77
12, 296448, Note_on_c, 11, 76, 0
12, 296448, Note_on_c, 11, 74, 77
12, 296704, Note_on_c, 11, 74, 0
12, 296704, Note_on_c, 11, 73, 78
12, 296960, Note_on_c, 11, 73, 0
12, 296960, Note_on_c, 11, 74, 79
12, 297216, Note_on_c, 11, 74, 0
12, 297472, Note_on_c, 11, 69, 56
12, 297728, Note_on_c, 11, 69, 0
12, 297984, Note_on_c, 11, 69, 56
12, 298240, Note_on_c, 11, 69, 0
12, 298496, Note_on_c, 11, 73, 56
12, 298752, Note_on_c, 11, 73, 0
12, 299008, Note_on_c, 11, 74, 57
12, 299264, Note_on_c, 11, 74, 0
12, 299520, Note_on_c, 11, 76, 59
12, 299691, Note_on_c, 11, 76, 0
12, 299691, Note_on_c, 11, 74, 59
12, 299861, Note_on_c, 11, 74, 0
12, 299861, Note_on_c, 11, 73, 60
12, 300032, Note_on_c, 11, 73, 0
12, 300032, Note_on_c, 11, 74, 61
12, 300288, Note_on_c, 11, 74, 0
12, 300544, Note_on_c, 11, 73, 63
12, 300800, Note_on_c, 11, 73, 0
12, 301056, Note_on_c, 11, 74, 65
12, 301312, Note_on_c, 11, 74, 0
12, 301568, Note_on_c, 11, 70, 67
12, 301824, Note_on_c, 11, 70, 0
12, 302080, Note_on_c, 11, 71, 69
12, 302336, Note_on_c, 11, 71, 0
12, 302592, Note_on_c, 11, 71, 71
12, 302848, Note_on_c, 11, 71, 0
12, 302848, Note_on_c, 11, 73, 72
12, 303104, Note_on_c, 11, 73, 0
12, 303104, Note_on_c, 11, 74, 73
12, 303360, Note_on_c, 11, 74, 0
12, 303616, Note_on_c, 11, 78, 75
12, 304128, Note_on_c, 11, 78, 0
12, 304128, Note_on_c, 11, 76, 77
12, 304384, Note_on_c, 11, 76, 0
12, 304640, Note_on_c, 11, 74, 79
12, 304896, Note_on_c, 11, 74, 0
12, 305152, Note_on_c, 11, 74, 81
12, 305664, Note_on_c, 11, 74, 0
12, 305664, Note_on_c, 11, 73, 83
12, 305920, Note_on_c, 11, 73, 0
12, 306176, Note_on_c, 11, 74, 85
12, 306432, Note_on_c, 11, 74, 0
12, 306688, Note_on_c, 11, 76, 87
12, 306944, Note_on_c, 11, 76, 0
12, 307200, Note_on_c, 11, 74, 89
12, 307456, Note_on_c, 11, 74, 0
12, 307712, Note_on_c, 11, 74, 91
12, 307968, Note_on_c, 11, 74, 0
12, 308224, Note_on_c, 11, 74, 91
12, 308736, Note_on_c, 11, 74, 0
12, 308736, Note_on_c, 11, 73, 83
12, 308992, Note_on_c, 11, 73, 0
12, 309760, Note_on_c, 11, 73, 95
12, 310272, Note_on_c, 11, 73, 0
12, 310272, Note_on_c, 11, 71, 97
12, 310528, Note_on_c, 11, 71, 0
12, 310784, Note_on_c, 11, 71, 99
12, 311040, Note_on_c, 11, 71, 0
12, 311296, Note_on_c, 11, 69, 101
12, 311808, Note_on_c, 11, 69, 0
12, 311808, Note_on_c, 11, 64, 99
12, 312320, Note_on_c, 11, 64, 0
12, 312320, Note_on_c, 11, 66, 98
12, 312832, Note_on_c, 11, 66, 0
12, 312832, Note_on_c, 11, 69, 97
12, 313344, Note_on_c, 11, 69, 0
12, 313344, Note_on_c, 11, 63, 96
12, 313856, Note_on_c, 11, 63, 0
12, 313856, Note_on_c, 11, 71, 95
12, 314880, Note_on_c, 11, 71, 0
12, 314880, Note_on_c, 11, 73, 92
12, 315136, Note_on_c, 11, 73, 0
12, 315136, Note_on_c, 11, 74, 92
12, 315392, Note_on_c, 11, 74, 0
12, 315392, Note_on_c, 11, 69, 91
12, 317696, Note_on_c, 11, 69, 0
12, 317952, Note_on_c, 11, 64, 85
12, 318208, Note_on_c, 11, 64, 0
12, 318976, Note_on_c, 11, 66, 76
12, 319232, Note_on_c, 11, 66, 0
12, 319488, Note_on_c, 11, 62, 72
12, 319744, Note_on_c, 11, 62, 0
12, 320000, Note_on_c, 11, 66, 67
12, 320256, Note_on_c, 11, 66, 0
12, 320512, Note_on_c, 11, 71, 53
12, 321536, Note_on_c, 11, 71, 0
12, 321536, Note_on_c, 11, 71, 57
12, 321792, Note_on_c, 11, 71, 0
12, 322048, Note_on_c, 11, 64, 60
12, 322560, Note_on_c, 11, 64, 0
12, 322560, Note_on_c, 11, 68, 62
12, 322816, Note_on_c, 11, 68, 0
12, 323072, Note_on_c, 11, 71, 64
12, 323328, Note_on_c, 11, 71, 0
12, 323584, Note_on_c, 11, 76, 67
12, 323840, Note_on_c, 11, 76, 0
12, 324096, Note_on_c, 11, 76, 69
12, 324352, Note_on_c, 11, 76, 0
12, 324352, Note_on_c, 11, 74, 70
12, 324608, Note_on_c, 11, 74, 0
12, 324608, Note_on_c, 11, 73, 72
12, 324864, Note_on_c, 11, 73, 0
12, 325120, Note_on_c, 11, 69, 74
12, 325376, Note_on_c, 11, 69, 0
12, 325632, Note_on_c, 11, 64, 76
12, 325888, Note_on_c, 11, 64, 0
12, 326144, Note_on_c, 11, 69, 79
12, 326400, Note_on_c, 11, 69, 0
12, 326656, Note_on_c, 11, 73, 81
12, 327680, Note_on_c, 11, 73, 0
12, 327680, Note_on_c, 11, 73, 86
12, 327936, Note_on_c, 11, 73, 0
12, 328192, Note_on_c, 11, 66, 88
12, 328704, Note_on_c, 11, 66, 0
12, 328704, Note_on_c, 11, 70, 90
12, 328960, Note_on_c, 11, 70, 0
12, 329216, Note_on_c, 11, 73, 93
12, 329472, Note_on_c, 11, 73, 0
12, 329728, Note_on_c, 11, 78, 96
12, 329984, Note_on_c, 11, 78, 0
12, 330240, Note_on_c, 11, 78, 97
12, 330496, Note_on_c, 11, 78, 0
12, 330496, Note_on_c, 11, 76, 97
12, 330752, Note_on_c, 11, 76, 0
12, 330752, Note_on_c, 11, 75, 98
12, 331008, Note_on_c, 11, 75, 0
12, 331264, Note_on_c, 11, 78, 99
12, 331520, Note_on_c, 11, 78, 0
12, 331776, Note_on_c, 11, 75, 100
12, 332032, Note_on_c, 11, 75, 0
12, 332288, Note_on_c, 11, 71, 101
12, 332544, Note_on_c, 11, 71, 0
12, 332800, Note_on_c, 11, 71, 102
12, 333312, Note_on_c, 11, 71, 0
12, 333312, Note_on_c, 11, 69, 103
12, 333568, Note_on_c, 11, 69, 0
12, 334336, Note_on_c, 11, 73, 105
12, 334592, Note_on_c, 11, 73, 0
12, 334848, Note_on_c, 11, 74, 106
12, 335104, Note_on_c, 11, 74, 0
12, 335360, Note_on_c, 11, 69, 107
12, 335616, Note_on_c, 11, 69, 0
12, 335872, Note_on_c, 11, 62, 108
12, 337408, Note_on_c, 11, 62, 0
12, 337408, Note_on_c, 11, 69, 111
12, 337664, Note_on_c, 11, 69, 0
12, 337920, Note_on_c, 11, 69, 111
12, 338432, Note_on_c, 11, 69, 0
12, 338432, Note_on_c, 11, 67, 112
12, 338688, Note_on_c, 11, 67, 0
12, 338944, Note_on_c, 11, 66, 113
12, 339968, Note_on_c, 11, 66, 0
12, 409600, End_track
13, 0, Start_track
13, 0, Title_t, "Alto"
13, 0, Program_c, 12, 52
13, 0, Control_c, 12, 121, 127
13, 0, Control_c, 12, 91, 127
13, 0, Control_c, 12, 1, 10
13, 0, Control_c, 12, 10, 60
13, 2560, Note_on_c, 12, 62, 115
13, 2816, Note_on_c, 12, 62, 0
13, 3072, Note_on_c, 12, 62, 115
13, 3328, Note_on_c, 12, 62, 0
13, 3584, Note_on_c, 12, 57, 115
13, 3840, Note_on_c, 12, 57, 0
13, 4096, Note_on_c, 12, 69, 115
13, 5018, Note_on_c, 12, 69, 0
13, 5120, Note_on_c, 12, 69, 115
13, 5376, Note_on_c, 12, 69, 0
13, 5632, Note_on_c, 12, 71, 115
13, 6144, Note_on_c, 12, 71, 0
13, 6144, Note_on_c, 12, 69, 115
13, 6400, Note_on_c, 12, 69, 0
13, 6656, Note_on_c, 12, 67, 115
13, 6912, Note_on_c, 12, 67, 0
13, 7168, Note_on_c, 12, 66, 115
13, 8090, Note_on_c, 12, 66, 0
13, 8192, Note_on_c, 12, 66, 115
13, 9114, Note_on_c, 12, 66, 0
13, 30208, Note_on_c, 12, 57, 56
13, 30464, Note_on_c, 12, 57, 0
13, 30720, Note_on_c, 12, 62, 57
13, 30976, Note_on_c, 12, 62, 0
13, 31232, Note_on_c, 12, 64, 57
13, 31488, Note_on_c, 12, 64, 0
13, 31744, Note_on_c, 12, 66, 57
13, 32000, Note_on_c, 12, 66, 0
13, 32000, Note_on_c, 12, 67, 57
13, 32256, Note_on_c, 12, 67, 0
13, 32256, Note_on_c, 12, 66, 57
13, 32512, Note_on_c, 12, 66, 0
13, 32512, Note_on_c, 12, 64, 57
13, 32768, Note_on_c, 12, 64, 0
13, 32768, Note_on_c, 12, 62, 57
13, 33024, Note_on_c, 12, 62, 0
13, 33024, Note_on_c, 12, 61, 57
13, 33280, Note_on_c, 12, 61, 0
13, 33280, Note_on_c, 12, 62, 57
13, 33536, Note_on_c, 12, 62, 0
13, 33536, Note_on_c, 12, 64, 57
13, 33792, Note_on_c, 12, 64, 0
13, 33792, Note_on_c, 12, 66, 57
13, 34048, Note_on_c, 12, 66, 0
13, 34048, Note_on_c, 12, 67, 57
13, 34304, Note_on_c, 12, 67, 0
13, 34304, Note_on_c, 12, 66, 57
13, 34560, Note_on_c, 12, 66, 0
13, 34560, Note_on_c, 12, 67, 57
13, 34816, Note_on_c, 12, 67, 0
13, 34816, Note_on_c, 12, 64, 59
13, 35072, Note_on_c, 12, 64, 0
13, 35072, Note_on_c, 12, 66, 60
13, 35328, Note_on_c, 12, 66, 0
13, 35328, Note_on_c, 12, 64, 62
13, 35584, Note_on_c, 12, 64, 0
13, 35584, Note_on_c, 12, 62, 64
13, 35840, Note_on_c, 12, 62, 0
13, 35840, Note_on_c, 12, 61, 65
13, 36096, Note_on_c, 12, 61, 0
13, 36096, Note_on_c, 12, 59, 67
13, 36352, Note_on_c, 12, 59, 0
13, 36352, Note_on_c, 12, 61, 69
13, 36608, Note_on_c, 12, 61, 0
13, 36608, Note_on_c, 12, 62, 70
13, 36864, Note_on_c, 12, 62, 0
13, 36864, Note_on_c, 12, 64, 72
13, 37120, Note_on_c, 12, 64, 0
13, 37120, Note_on_c, 12, 66, 74
13, 37376, Note_on_c, 12, 66, 0
13, 37376, Note_on_c, 12, 64, 75
13, 37632, Note_on_c, 12, 64, 0
13, 37632, Note_on_c, 12, 66, 77
13, 37888, Note_on_c, 12, 66, 0
13, 37888, Note_on_c, 12, 67, 79
13, 38144, Note_on_c, 12, 67, 0
13, 38144, Note_on_c, 12, 69, 80
13, 38400, Note_on_c, 12, 69, 0
13, 38400, Note_on_c, 12, 67, 82
13, 38656, Note_on_c, 12, 67, 0
13, 38656, Note_on_c, 12, 66, 84
13, 38912, Note_on_c, 12, 66, 0
13, 38912, Note_on_c, 12, 64, 85
13, 39168, Note_on_c, 12, 64, 0
13, 39168, Note_on_c, 12, 62, 87
13, 39424, Note_on_c, 12, 62, 0
13, 39424, Note_on_c, 12, 64, 88
13, 39680, Note_on_c, 12, 64, 0
13, 39680, Note_on_c, 12, 66, 90
13, 39936, Note_on_c, 12, 66, 0
13, 39936, Note_on_c, 12, 67, 92
13, 40192, Note_on_c, 12, 67, 0
13, 40192, Note_on_c, 12, 69, 93
13, 40448, Note_on_c, 12, 69, 0
13, 40448, Note_on_c, 12, 66, 95
13, 40704, Note_on_c, 12, 66, 0
13, 40704, Note_on_c, 12, 67, 97
13, 40960, Note_on_c, 12, 67, 0
13, 40960, Note_on_c, 12, 69, 98
13, 41216, Note_on_c, 12, 69, 0
13, 41216, Note_on_c, 12, 71, 100
13, 41472, Note_on_c, 12, 71, 0
13, 41472, Note_on_c, 12, 69, 102
13, 41728, Note_on_c, 12, 69, 0
13, 41728, Note_on_c, 12, 67, 103
13, 41984, Note_on_c, 12, 67, 0
13, 41984, Note_on_c, 12, 69, 105
13, 42240, Note_on_c, 12, 69, 0
13, 42496, Note_on_c, 12, 66, 109
13, 42752, Note_on_c, 12, 66, 0
13, 43008, Note_on_c, 12, 69, 109
13, 43264, Note_on_c, 12, 69, 0
13, 43520, Note_on_c, 12, 69, 109
13, 43776, Note_on_c, 12, 69, 0
13, 44032, Note_on_c, 12, 69, 109
13, 44544, Note_on_c, 12, 69, 0
13, 44544, Note_on_c, 12, 71, 109
13, 44715, Note_on_c, 12, 71, 0
13, 44715, Note_on_c, 12, 69, 109
13, 44885, Note_on_c, 12, 69, 0
13, 44885, Note_on_c, 12, 67, 109
13, 45056, Note_on_c, 12, 67, 0
13, 45056, Note_on_c, 12, 69, 109
13, 45312, Note_on_c, 12, 69, 0
13, 45568, Note_on_c, 12, 71, 109
13, 45824, Note_on_c, 12, 71, 0
13, 46080, Note_on_c, 12, 66, 109
13, 46336, Note_on_c, 12, 66, 0
13, 46592, Note_on_c, 12, 69, 109
13, 46848, Note_on_c, 12, 69, 0
13, 47104, Note_on_c, 12, 69, 109
13, 47360, Note_on_c, 12, 69, 0
13, 47360, Note_on_c, 12, 71, 109
13, 47616, Note_on_c, 12, 71, 0
13, 47616, Note_on_c, 12, 69, 109
13, 47872, Note_on_c, 12, 69, 0
13, 47872, Note_on_c, 12, 71, 109
13, 48128, Note_on_c, 12, 71, 0
13, 48128, Note_on_c, 12, 69, 109
13, 48384, Note_on_c, 12, 69, 0
13, 48384, Note_on_c, 12, 71, 109
13, 48640, Note_on_c, 12, 71, 0
13, 48640, Note_on_c, 12, 69, 109
13, 48896, Note_on_c, 12, 69, 0
13, 48896, Note_on_c, 12, 71, 109
13, 49152, Note_on_c, 12, 71, 0
13, 49152, Note_on_c, 12, 69, 109
13, 49408, Note_on_c, 12, 69, 0
13, 49408, Note_on_c, 12, 71, 109
13, 49664, Note_on_c, 12, 71, 0
13, 49664, Note_on_c, 12, 69, 109
13, 49920, Note_on_c, 12, 69, 0
13, 49920, Note_on_c, 12, 71, 109
13, 50176, Note_on_c, 12, 71, 0
13, 50176, Note_on_c, 12, 69, 108
13, 50432, Note_on_c, 12, 69, 0
13, 50688, Note_on_c, 12, 66, 106
13, 50944, Note_on_c, 12, 66, 0
13, 51200, Note_on_c, 12, 62, 104
13, 52122, Note_on_c, 12, 62, 0
13, 52224, Note_on_c, 12, 62, 101
13, 52480, Note_on_c, 12, 62, 0
13, 52736, Note_on_c, 12, 62, 100
13, 52992, Note_on_c, 12, 62, 0
13, 53248, Note_on_c, 12, 62, 98
13, 54170, Note_on_c, 12, 62, 0
13, 54272, Note_on_c, 12, 62, 95
13, 54528, Note_on_c, 12, 62, 0
13, 54784, Note_on_c, 12, 62, 93
13, 55040, Note_on_c, 12, 62, 0
13, 55296, Note_on_c, 12, 55, 95
13, 55552, Note_on_c, 12, 55, 0
13, 55808, Note_on_c, 12, 67, 98
13, 56064, Note_on_c, 12, 67, 0
13, 56320, Note_on_c, 12, 64, 100
13, 56832, Note_on_c, 12, 64, 0
13, 56832, Note_on_c, 12, 66, 102
13, 57088, Note_on_c, 12, 66, 0
13, 57088, Note_on_c, 12, 67, 103
13, 57344, Note_on_c, 12, 67, 0
13, 57344, Note_on_c, 12, 69, 105
13, 57600, Note_on_c, 12, 69, 0
13, 57856, Note_on_c, 12, 67, 107
13, 58112, Note_on_c, 12, 67, 0
13, 58368, Note_on_c, 12, 66, 111
13, 58624, Note_on_c, 12, 66, 0
13, 58880, Note_on_c, 12, 69, 112
13, 59136, Note_on_c, 12, 69, 0
13, 59136, Note_on_c, 12, 69, 112
13, 59392, Note_on_c, 12, 69, 0
13, 59392, Note_on_c, 12, 69, 113
13, 59648, Note_on_c, 12, 69, 0
13, 59904, Note_on_c, 12, 69, 114
13, 60160, Note_on_c, 12, 69, 0
13, 60928, Note_on_c, 12, 61, 98
13, 61184, Note_on_c, 12, 61, 0
13, 61440, Note_on_c, 12, 64, 98
13, 61696, Note_on_c, 12, 64, 0
13, 61952, Note_on_c, 12, 64, 99
13, 62208, Note_on_c, 12, 64, 0
13, 62464, Note_on_c, 12, 64, 99
13, 63846, Note_on_c, 12, 64, 0
13, 64000, Note_on_c, 12, 64, 96
13, 64256, Note_on_c, 12, 64, 0
13, 64512, Note_on_c, 12, 64, 95
13, 64768, Note_on_c, 12, 64, 0
13, 65024, Note_on_c, 12, 68, 94
13, 65280, Note_on_c, 12, 68, 0
13, 65536, Note_on_c, 12, 61, 93
13, 66458, Note_on_c, 12, 61, 0
13, 66560, Note_on_c, 12, 61, 64
13, 66816, Note_on_c, 12, 61, 0
13, 67072, Note_on_c, 12, 66, 88
13, 67328, Note_on_c, 12, 66, 0
13, 67584, Note_on_c, 12, 66, 90
13, 67840, Note_on_c, 12, 66, 0
13, 68096, Note_on_c, 12, 66, 92
13, 68352, Note_on_c, 12, 66, 0
13, 68608, Note_on_c, 12, 66, 94
13, 68864, Note_on_c, 12, 66, 0
13, 69120, Note_on_c, 12, 64, 94
13, 69376, Note_on_c, 12, 64, 0
13, 69632, Note_on_c, 12, 64, 94
13, 70144, Note_on_c, 12, 64, 0
13, 70144, Note_on_c, 12, 62, 94
13, 70400, Note_on_c, 12, 62, 0
13, 70656, Note_on_c, 12, 61, 94
13, 71168, Note_on_c, 12, 61, 0
13, 71168, Note_on_c, 12, 57, 94
13, 71424, Note_on_c, 12, 57, 0
13, 71680, Note_on_c, 12, 61, 90
13, 72192, Note_on_c, 12, 61, 0
13, 72192, Note_on_c, 12, 64, 80
13, 72448, Note_on_c, 12, 64, 0
13, 73216, Note_on_c, 12, 68, 43
13, 73728, Note_on_c, 12, 68, 0
13, 73728, Note_on_c, 12, 66, 43
13, 73984, Note_on_c, 12, 66, 0
13, 74240, Note_on_c, 12, 66, 43
13, 74496, Note_on_c, 12, 66, 0
13, 74752, Note_on_c, 12, 64, 43
13, 75008, Note_on_c, 12, 64, 0
13, 75264, Note_on_c, 12, 62, 43
13, 75520, Note_on_c, 12, 62, 0
13, 75776, Note_on_c, 12, 61, 43
13, 76032, Note_on_c, 12, 61, 0
13, 76288, Note_on_c, 12, 64, 43
13, 76544, Note_on_c, 12, 64, 0
13, 76800, Note_on_c, 12, 58, 43
13, 77312, Note_on_c, 12, 58, 0
13, 77312, Note_on_c, 12, 61, 43
13, 77568, Note_on_c, 12, 61, 0
13, 77824, Note_on_c, 12, 62, 43
13, 78080, Note_on_c, 12, 62, 0
13, 78336, Note_on_c, 12, 61, 43
13, 78592, Note_on_c, 12, 61, 0
13, 78848, Note_on_c, 12, 59, 43
13, 79104, Note_on_c, 12, 59, 0
13, 79360, Note_on_c, 12, 62, 43
13, 79616, Note_on_c, 12, 62, 0
13, 79872, Note_on_c, 12, 56, 43
13, 80384, Note_on_c, 12, 56, 0
13, 80384, Note_on_c, 12, 59, 43
13, 80640, Note_on_c, 12, 59, 0
13, 80896, Note_on_c, 12, 61, 42
13, 81152, Note_on_c, 12, 61, 0
13, 81408, Note_on_c, 12, 59, 44
13, 81664, Note_on_c, 12, 59, 0
13, 81920, Note_on_c, 12, 66, 46
13, 82432, Note_on_c, 12, 66, 0
13, 82432, Note_on_c, 12, 64, 48
13, 82688, Note_on_c, 12, 64, 0
13, 82944, Note_on_c, 12, 69, 50
13, 83456, Note_on_c, 12, 69, 0
13, 83456, Note_on_c, 12, 68, 52
13, 83712, Note_on_c, 12, 68, 0
13, 83968, Note_on_c, 12, 66, 54
13, 84224, Note_on_c, 12, 66, 0
13, 84224, Note_on_c, 12, 68, 55
13, 84480, Note_on_c, 12, 68, 0
13, 84480, Note_on_c, 12, 66, 56
13, 84736, Note_on_c, 12, 66, 0
13, 84736, Note_on_c, 12, 64, 57
13, 84992, Note_on_c, 12, 64, 0
13, 84992, Note_on_c, 12, 63, 58
13, 85248, Note_on_c, 12, 63, 0
13, 85504, Note_on_c, 12, 66, 60
13, 85760, Note_on_c, 12, 66, 0
13, 86016, Note_on_c, 12, 59, 62
13, 86272, Note_on_c, 12, 59, 0
13, 86528, Note_on_c, 12, 66, 64
13, 86784, Note_on_c, 12, 66, 0
13, 87040, Note_on_c, 12, 64, 66
13, 87962, Note_on_c, 12, 64, 0
13, 88064, Note_on_c, 12, 64, 70
13, 88986, Note_on_c, 12, 64, 0
13, 90624, Note_on_c, 12, 68, 80
13, 90880, Note_on_c, 12, 68, 0
13, 90880, Note_on_c, 12, 66, 81
13, 91136, Note_on_c, 12, 66, 0
13, 91136, Note_on_c, 12, 65, 82
13, 91392, Note_on_c, 12, 65, 0
13, 91648, Note_on_c, 12, 61, 85
13, 91904, Note_on_c, 12, 61, 0
13, 92160, Note_on_c, 12, 65, 87
13, 92672, Note_on_c, 12, 65, 0
13, 92672, Note_on_c, 12, 68, 89
13, 92928, Note_on_c, 12, 68, 0
13, 93184, Note_on_c, 12, 66, 91
13, 93440, Note_on_c, 12, 66, 0
13, 93696, Note_on_c, 12, 61, 93
13, 93952, Note_on_c, 12, 61, 0
13, 94208, Note_on_c, 12, 66, 95
13, 95130, Note_on_c, 12, 66, 0
13, 95232, Note_on_c, 12, 66, 99
13, 95488, Note_on_c, 12, 66, 0
13, 95744, Note_on_c, 12, 66, 101
13, 96000, Note_on_c, 12, 66, 0
13, 96256, Note_on_c, 12, 66, 103
13, 96512, Note_on_c, 12, 66, 0
13, 96768, Note_on_c, 12, 64, 105
13, 97024, Note_on_c, 12, 64, 0
13, 97792, Note_on_c, 12, 68, 110
13, 98048, Note_on_c, 12, 68, 0
13, 98304, Note_on_c, 12, 69, 110
13, 98816, Note_on_c, 12, 69, 0
13, 98816, Note_on_c, 12, 64, 111
13, 99072, Note_on_c, 12, 64, 0
13, 99328, Note_on_c, 12, 57, 112
13, 100864, Note_on_c, 12, 57, 0
13, 100864, Note_on_c, 12, 66, 114
13, 101120, Note_on_c, 12, 66, 0
13, 101376, Note_on_c, 12, 64, 115
13, 102400, Note_on_c, 12, 64, 0
13, 102400, Note_on_c, 12, 64, 116
13, 103424, Note_on_c, 12, 64, 0
13, 153088, Note_on_c, 12, 61, 79
13, 153344, Note_on_c, 12, 61, 0
13, 153600, Note_on_c, 12, 64, 79
13, 153856, Note_on_c, 12, 64, 0
13, 154112, Note_on_c, 12, 62, 80
13, 154624, Note_on_c, 12, 62, 0
13, 154624, Note_on_c, 12, 61, 80
13, 155136, Note_on_c, 12, 61, 0
13, 155136, Note_on_c, 12, 59, 81
13, 155392, Note_on_c, 12, 59, 0
13, 155648, Note_on_c, 12, 57, 81
13, 155904, Note_on_c, 12, 57, 0
13, 156160, Note_on_c, 12, 57, 82
13, 156416, Note_on_c, 12, 57, 0
13, 156672, Note_on_c, 12, 69, 82
13, 157952, Note_on_c, 12, 69, 0
13, 158208, Note_on_c, 12, 69, 85
13, 158464, Note_on_c, 12, 69, 0
13, 158464, Note_on_c, 12, 67, 83
13, 158720, Note_on_c, 12, 67, 0
13, 158720, Note_on_c, 12, 66, 81
13, 158976, Note_on_c, 12, 66, 0
13, 159232, Note_on_c, 12, 66, 79
13, 159488, Note_on_c, 12, 66, 0
13, 159744, Note_on_c, 12, 64, 80
13, 160000, Note_on_c, 12, 64, 0
13, 160256, Note_on_c, 12, 64, 81
13, 160512, Note_on_c, 12, 64, 0
13, 160768, Note_on_c, 12, 62, 81
13, 161536, Note_on_c, 12, 62, 0
13, 161536, Note_on_c, 12, 61, 83
13, 161792, Note_on_c, 12, 61, 0
13, 161792, Note_on_c, 12, 59, 83
13, 162048, Note_on_c, 12, 59, 0
13, 162304, Note_on_c, 12, 67, 84
13, 163328, Note_on_c, 12, 67, 0
13, 163328, Note_on_c, 12, 67, 83
13, 163584, Note_on_c, 12, 67, 0
13, 163840, Note_on_c, 12, 66, 80
13, 164864, Note_on_c, 12, 66, 0
13, 164864, Note_on_c, 12, 66, 76
13, 165120, Note_on_c, 12, 66, 0
13, 165376, Note_on_c, 12, 66, 78
13, 165632, Note_on_c, 12, 66, 0
13, 165888, Note_on_c, 12, 59, 79
13, 166144, Note_on_c, 12, 59, 0
13, 166400, Note_on_c, 12, 66, 81
13, 166656, Note_on_c, 12, 66, 0
13, 166912, Note_on_c, 12, 66, 83
13, 168448, Note_on_c, 12, 66, 0
13, 168448, Note_on_c, 12, 61, 88
13, 168704, Note_on_c, 12, 61, 0
13, 168960, Note_on_c, 12, 66, 89
13, 169984, Note_on_c, 12, 66, 0
13, 169984, Note_on_c, 12, 66, 92
13, 171008, Note_on_c, 12, 66, 0
13, 179712, Note_on_c, 12, 66, 108
13, 179968, Note_on_c, 12, 66, 0
13, 180224, Note_on_c, 12, 71, 108
13, 180480, Note_on_c, 12, 71, 0
13, 180736, Note_on_c, 12, 69, 108
13, 180992, Note_on_c, 12, 69, 0
13, 180992, Note_on_c, 12, 67, 108
13, 181248, Note_on_c, 12, 67, 0
13, 181248, Note_on_c, 12, 69, 108
13, 181504, Note_on_c, 12, 69, 0
13, 181760, Note_on_c, 12, 69, 108
13, 182016, Note_on_c, 12, 69, 0
13, 182272, Note_on_c, 12, 71, 108
13, 182784, Note_on_c, 12, 71, 0
13, 182784, Note_on_c, 12, 68, 104
13, 183040, Note_on_c, 12, 68, 0
13, 183296, Note_on_c, 12, 64, 98
13, 184218, Note_on_c, 12, 64, 0
13, 184832, Note_on_c, 12, 64, 99
13, 185088, Note_on_c, 12, 64, 0
13, 185344, Note_on_c, 12, 64, 101
13, 185856, Note_on_c, 12, 64, 0
13, 185856, Note_on_c, 12, 69, 102
13, 186112, Note_on_c, 12, 69, 0
13, 186112, Note_on_c, 12, 68, 103
13, 186368, Note_on_c, 12, 68, 0
13, 186368, Note_on_c, 12, 69, 104
13, 186624, Note_on_c, 12, 69, 0
13, 186880, Note_on_c, 12, 64, 105
13, 187136, Note_on_c, 12, 64, 0
13, 187904, Note_on_c, 12, 67, 108
13, 188160, Note_on_c, 12, 67, 0
13, 188416, Note_on_c, 12, 66, 108
13, 189338, Note_on_c, 12, 66, 0
13, 189440, Note_on_c, 12, 66, 100
13, 190362, Note_on_c, 12, 66, 0
13, 193024, Note_on_c, 12, 69, 89
13, 193792, Note_on_c, 12, 69, 0
13, 193792, Note_on_c, 12, 67, 91
13, 194048, Note_on_c, 12, 67, 0
13, 194048, Note_on_c, 12, 69, 91
13, 194304, Note_on_c, 12, 69, 0
13, 196096, Note_on_c, 12, 66, 96
13, 197120, Note_on_c, 12, 66, 0
13, 197120, Note_on_c, 12, 64, 99
13, 197376, Note_on_c, 12, 64, 0
13, 197376, Note_on_c, 12, 66, 100
13, 197632, Note_on_c, 12, 66, 0
13, 197632, Note_on_c, 12, 67, 100
13, 197888, Note_on_c, 12, 67, 0
13, 198144, Note_on_c, 12, 67, 101
13, 198400, Note_on_c, 12, 67, 0
13, 198656, Note_on_c, 12, 66, 103
13, 198912, Note_on_c, 12, 66, 0
13, 199168, Note_on_c, 12, 64, 104
13, 199424, Note_on_c, 12, 64, 0
13, 199680, Note_on_c, 12, 62, 106
13, 199936, Note_on_c, 12, 62, 0
13, 199936, Note_on_c, 12, 64, 106
13, 200192, Note_on_c, 12, 64, 0
13, 200192, Note_on_c, 12, 66, 106
13, 200448, Note_on_c, 12, 66, 0
13, 200704, Note_on_c, 12, 66, 107
13, 201728, Note_on_c, 12, 66, 0
13, 263680, Note_on_c, 12, 62, 100
13, 264448, Note_on_c, 12, 62, 0
13, 264704, Note_on_c, 12, 57, 105
13, 264960, Note_on_c, 12, 57, 0
13, 265216, Note_on_c, 12, 69, 108
13, 266138, Note_on_c, 12, 69, 0
13, 266240, Note_on_c, 12, 69, 108
13, 266496, Note_on_c, 12, 69, 0
13, 266752, Note_on_c, 12, 71, 108
13, 267008, Note_on_c, 12, 71, 0
13, 267264, Note_on_c, 12, 69, 108
13, 267520, Note_on_c, 12, 69, 0
13, 267776, Note_on_c, 12, 67, 108
13, 268032, Note_on_c, 12, 67, 0
13, 268288, Note_on_c, 12, 66, 108
13, 269210, Note_on_c, 12, 66, 0
13, 269312, Note_on_c, 12, 66, 108
13, 270234, Note_on_c, 12, 66, 0
13, 285184, Note_on_c, 12, 57, 56
13, 285696, Note_on_c, 12, 57, 0
13, 285696, Note_on_c, 12, 62, 56
13, 285952, Note_on_c, 12, 62, 0
13, 286208, Note_on_c, 12, 64, 56
13, 286464, Note_on_c, 12, 64, 0
13, 286720, Note_on_c, 12, 66, 56
13, 286976, Note_on_c, 12, 66, 0
13, 286976, Note_on_c, 12, 67, 56
13, 287232, Note_on_c, 12, 67, 0
13, 287232, Note_on_c, 12, 66, 56
13, 287488, Note_on_c, 12, 66, 0
13, 287488, Note_on_c, 12, 64, 56
13, 287744, Note_on_c, 12, 64, 0
13, 287744, Note_on_c, 12, 62, 56
13, 288000, Note_on_c, 12, 62, 0
13, 288000, Note_on_c, 12, 61, 56
13, 288256, Note_on_c, 12, 61, 0
13, 288256, Note_on_c, 12, 62, 56
13, 288512, Note_on_c, 12, 62, 0
13, 288512, Note_on_c, 12, 64, 56
13, 288768, Note_on_c, 12, 64, 0
13, 288768, Note_on_c, 12, 66, 56
13, 289024, Note_on_c, 12, 66, 0
13, 289024, Note_on_c, 12, 67, 56
13, 289280, Note_on_c, 12, 67, 0
13, 289280, Note_on_c, 12, 66, 56
13, 289536, Note_on_c, 12, 66, 0
13, 289536, Note_on_c, 12, 67, 56
13, 289792, Note_on_c, 12, 67, 0
13, 289792, Note_on_c, 12, 64, 57
13, 290048, Note_on_c, 12, 64, 0
13, 290048, Note_on_c, 12, 66, 57
13, 290304, Note_on_c, 12, 66, 0
13, 290304, Note_on_c, 12, 64, 58
13, 290560, Note_on_c, 12, 64, 0
13, 290560, Note_on_c, 12, 62, 59
13, 290816, Note_on_c, 12, 62, 0
13, 290816, Note_on_c, 12, 61, 60
13, 291072, Note_on_c, 12, 61, 0
13, 291072, Note_on_c, 12, 59, 61
13, 291328, Note_on_c, 12, 59, 0
13, 291328, Note_on_c, 12, 61, 61
13, 291584, Note_on_c, 12, 61, 0
13, 291584, Note_on_c, 12, 62, 62
13, 291840, Note_on_c, 12, 62, 0
13, 291840, Note_on_c, 12, 64, 63
13, 292096, Note_on_c, 12, 64, 0
13, 292096, Note_on_c, 12, 66, 64
13, 292352, Note_on_c, 12, 66, 0
13, 292352, Note_on_c, 12, 64, 65
13, 292608, Note_on_c, 12, 64, 0
13, 292608, Note_on_c, 12, 66, 65
13, 292864, Note_on_c, 12, 66, 0
13, 292864, Note_on_c, 12, 67, 66
13, 293120, Note_on_c, 12, 67, 0
13, 293120, Note_on_c, 12, 69, 67
13, 293376, Note_on_c, 12, 69, 0
13, 293376, Note_on_c, 12, 67, 68
13, 293632, Note_on_c, 12, 67, 0
13, 293632, Note_on_c, 12, 66, 69
13, 293888, Note_on_c, 12, 66, 0
13, 293888, Note_on_c, 12, 64, 69
13, 294144, Note_on_c, 12, 64, 0
13, 294144, Note_on_c, 12, 62, 70
13, 294400, Note_on_c, 12, 62, 0
13, 294400, Note_on_c, 12, 64, 71
13, 294656, Note_on_c, 12, 64, 0
13, 294656, Note_on_c, 12, 66, 72
13, 294912, Note_on_c, 12, 66, 0
13, 294912, Note_on_c, 12, 67, 73
13, 295168, Note_on_c, 12, 67, 0
13, 295168, Note_on_c, 12, 69, 73
13, 295424, Note_on_c, 12, 69, 0
13, 295424, Note_on_c, 12, 66, 74
13, 295680, Note_on_c, 12, 66, 0
13, 295680, Note_on_c, 12, 67, 75
13, 295936, Note_on_c, 12, 67, 0
13, 295936, Note_on_c, 12, 69, 76
13, 296192, Note_on_c, 12, 69, 0
13, 296192, Note_on_c, 12, 71, 77
13, 296448, Note_on_c, 12, 71, 0
13, 296448, Note_on_c, 12, 69, 77
13, 296704, Note_on_c, 12, 69, 0
13, 296704, Note_on_c, 12, 67, 78
13, 296960, Note_on_c, 12, 67, 0
13, 296960, Note_on_c, 12, 69, 79
13, 297216, Note_on_c, 12, 69, 0
13, 297472, Note_on_c, 12, 66, 56
13, 297728, Note_on_c, 12, 66, 0
13, 297984, Note_on_c, 12, 69, 56
13, 298240, Note_on_c, 12, 69, 0
13, 298496, Note_on_c, 12, 69, 56
13, 298752, Note_on_c, 12, 69, 0
13, 299008, Note_on_c, 12, 69, 57
13, 299930, Note_on_c, 12, 69, 0
13, 300032, Note_on_c, 12, 69, 61
13, 300288, Note_on_c, 12, 69, 0
13, 300544, Note_on_c, 12, 69, 63
13, 300800, Note_on_c, 12, 69, 0
13, 301056, Note_on_c, 12, 69, 65
13, 301312, Note_on_c, 12, 69, 0
13, 301568, Note_on_c, 12, 73, 67
13, 301824, Note_on_c, 12, 73, 0
13, 302080, Note_on_c, 12, 66, 69
13, 303002, Note_on_c, 12, 66, 0
13, 303104, Note_on_c, 12, 66, 73
13, 303360, Note_on_c, 12, 66, 0
13, 303616, Note_on_c, 12, 71, 75
13, 304538, Note_on_c, 12, 71, 0
13, 304640, Note_on_c, 12, 71, 79
13, 304896, Note_on_c, 12, 71, 0
13, 305152, Note_on_c, 12, 71, 81
13, 305664, Note_on_c, 12, 71, 0
13, 305664, Note_on_c, 12, 69, 83
13, 305920, Note_on_c, 12, 69, 0
13, 306176, Note_on_c, 12, 69, 85
13, 306432, Note_on_c, 12, 69, 0
13, 306688, Note_on_c, 12, 67, 87
13, 306944, Note_on_c, 12, 67, 0
13, 307200, Note_on_c, 12, 69, 89
13, 307456, Note_on_c, 12, 69, 0
13, 307712, Note_on_c, 12, 71, 91
13, 307968, Note_on_c, 12, 71, 0
13, 308224, Note_on_c, 12, 69, 91
13, 308736, Note_on_c, 12, 69, 0
13, 308736, Note_on_c, 12, 69, 83
13, 308992, Note_on_c, 12, 69, 0
13, 309760, Note_on_c, 12, 64, 95
13, 310272, Note_on_c, 12, 64, 0
13, 310272, Note_on_c, 12, 66, 97
13, 310528, Note_on_c, 12, 66, 0
13, 310784, Note_on_c, 12, 67, 99
13, 311040, Note_on_c, 12, 67, 0
13, 311296, Note_on_c, 12, 69, 101
13, 311808, Note_on_c, 12, 69, 0
13, 311808, Note_on_c, 12, 71, 99
13, 311979, Note_on_c, 12, 71, 0
13, 311979, Note_on_c, 12, 69, 98
13, 312149, Note_on_c, 12, 69, 0
13, 312149, Note_on_c, 12, 67, 98
13, 312320, Note_on_c, 12, 67, 0
13, 312320, Note_on_c, 12, 69, 98
13, 313856, Note_on_c, 12, 69, 0
13, 313856, Note_on_c, 12, 71, 95
13, 314112, Note_on_c, 12, 71, 0
13, 314112, Note_on_c, 12, 69, 94
13, 314368, Note_on_c, 12, 69, 0
13, 314368, Note_on_c, 12, 67, 93
13, 314880, Note_on_c, 12, 67, 0
13, 314880, Note_on_c, 12, 69, 92
13, 315051, Note_on_c, 12, 69, 0
13, 315051, Note_on_c, 12, 67, 92
13, 315221, Note_on_c, 12, 67, 0
13, 315221, Note_on_c, 12, 66, 92
13, 315392, Note_on_c, 12, 66, 0
13, 315392, Note_on_c, 12, 67, 91
13, 316928, Note_on_c, 12, 67, 0
13, 316928, Note_on_c, 12, 69, 88
13, 317184, Note_on_c, 12, 69, 0
13, 317184, Note_on_c, 12, 67, 88
13, 317440, Note_on_c, 12, 67, 0
13, 317440, Note_on_c, 12, 66, 87
13, 317952, Note_on_c, 12, 66, 0
13, 317952, Note_on_c, 12, 67, 85
13, 318123, Note_on_c, 12, 67, 0
13, 318123, Note_on_c, 12, 66, 84
13, 318293, Note_on_c, 12, 66, 0
13, 318293, Note_on_c, 12, 64, 82
13, 318464, Note_on_c, 12, 64, 0
13, 318464, Note_on_c, 12, 66, 81
13, 320000, Note_on_c, 12, 66, 0
13, 320000, Note_on_c, 12, 67, 67
13, 320256, Note_on_c, 12, 67, 0
13, 320256, Note_on_c, 12, 66, 65
13, 320512, Note_on_c, 12, 66, 0
13, 320512, Note_on_c, 12, 64, 53
13, 320768, Note_on_c, 12, 64, 0
13, 320768, Note_on_c, 12, 62, 54
13, 321024, Note_on_c, 12, 62, 0
13, 321024, Note_on_c, 12, 64, 55
13, 321280, Note_on_c, 12, 64, 0
13, 321280, Note_on_c, 12, 66, 56
13, 321536, Note_on_c, 12, 66, 0
13, 321536, Note_on_c, 12, 64, 57
13, 321792, Note_on_c, 12, 64, 0
13, 321792, Note_on_c, 12, 66, 59
13, 322048, Note_on_c, 12, 66, 0
13, 322048, Note_on_c, 12, 64, 60
13, 322304, Note_on_c, 12, 64, 0
13, 322304, Note_on_c, 12, 66, 61
13, 322560, Note_on_c, 12, 66, 0
13, 322560, Note_on_c, 12, 64, 62
13, 322816, Note_on_c, 12, 64, 0
13, 322816, Note_on_c, 12, 66, 63
13, 323072, Note_on_c, 12, 66, 0
13, 323072, Note_on_c, 12, 64, 64
13, 323328, Note_on_c, 12, 64, 0
13, 323328, Note_on_c, 12, 66, 66
13, 323584, Note_on_c, 12, 66, 0
13, 323584, Note_on_c, 12, 67, 67
13, 323840, Note_on_c, 12, 67, 0
13, 323840, Note_on_c, 12, 66, 68
13, 324096, Note_on_c, 12, 66, 0
13, 324096, Note_on_c, 12, 67, 69
13, 324352, Note_on_c, 12, 67, 0
13, 324352, Note_on_c, 12, 69, 70
13, 324608, Note_on_c, 12, 69, 0
13, 324608, Note_on_c, 12, 67, 72
13, 324864, Note_on_c, 12, 67, 0
13, 324864, Note_on_c, 12, 69, 73
13, 325120, Note_on_c, 12, 69, 0
13, 325120, Note_on_c, 12, 67, 74
13, 325376, Note_on_c, 12, 67, 0
13, 325376, Note_on_c, 12, 69, 75
13, 325632, Note_on_c, 12, 69, 0
13, 325632, Note_on_c, 12, 67, 76
13, 325888, Note_on_c, 12, 67, 0
13, 325888, Note_on_c, 12, 69, 77
13, 326144, Note_on_c, 12, 69, 0
13, 326144, Note_on_c, 12, 67, 79
13, 326400, Note_on_c, 12, 67, 0
13, 326400, Note_on_c, 12, 69, 80
13, 326656, Note_on_c, 12, 69, 0
13, 326656, Note_on_c, 12, 66, 81
13, 326912, Note_on_c, 12, 66, 0
13, 326912, Note_on_c, 12, 64, 82
13, 327168, Note_on_c, 12, 64, 0
13, 327168, Note_on_c, 12, 66, 83
13, 327424, Note_on_c, 12, 66, 0
13, 327424, Note_on_c, 12, 67, 84
13, 327680, Note_on_c, 12, 67, 0
13, 327680, Note_on_c, 12, 66, 86
13, 327936, Note_on_c, 12, 66, 0
13, 327936, Note_on_c, 12, 67, 87
13, 328192, Note_on_c, 12, 67, 0
13, 328192, Note_on_c, 12, 66, 88
13, 328448, Note_on_c, 12, 66, 0
13, 328448, Note_on_c, 12, 67, 89
13, 328704, Note_on_c, 12, 67, 0
13, 328704, Note_on_c, 12, 66, 90
13, 328960, Note_on_c, 12, 66, 0
13, 328960, Note_on_c, 12, 67, 91
13, 329216, Note_on_c, 12, 67, 0
13, 329216, Note_on_c, 12, 66, 93
13, 329472, Note_on_c, 12, 66, 0
13, 329472, Note_on_c, 12, 67, 94
13, 329728, Note_on_c, 12, 67, 0
13, 329728, Note_on_c, 12, 69, 96
13, 329984, Note_on_c, 12, 69, 0
13, 329984, Note_on_c, 12, 67, 96
13, 330240, Note_on_c, 12, 67, 0
13, 330240, Note_on_c, 12, 69, 97
13, 330496, Note_on_c, 12, 69, 0
13, 330496, Note_on_c, 12, 71, 97
13, 330752, Note_on_c, 12, 71, 0
13, 330752, Note_on_c, 12, 69, 98
13, 331008, Note_on_c, 12, 69, 0
13, 331008, Note_on_c, 12, 71, 98
13, 331264, Note_on_c, 12, 71, 0
13, 331264, Note_on_c, 12, 69, 99
13, 331520, Note_on_c, 12, 69, 0
13, 331520, Note_on_c, 12, 71, 99
13, 331776, Note_on_c, 12, 71, 0
13, 331776, Note_on_c, 12, 69, 100
13, 332032, Note_on_c, 12, 69, 0
13, 332032, Note_on_c, 12, 71, 100
13, 332288, Note_on_c, 12, 71, 0
13, 332288, Note_on_c, 12, 69, 101
13, 332544, Note_on_c, 12, 69, 0
13, 332544, Note_on_c, 12, 71, 101
13, 332800, Note_on_c, 12, 71, 0
13, 332800, Note_on_c, 12, 67, 102
13, 333312, Note_on_c, 12, 67, 0
13, 333312, Note_on_c, 12, 67, 103
13, 333568, Note_on_c, 12, 67, 0
13, 334336, Note_on_c, 12, 64, 105
13, 334592, Note_on_c, 12, 64, 0
13, 334848, Note_on_c, 12, 69, 106
13, 335104, Note_on_c, 12, 69, 0
13, 335360, Note_on_c, 12, 67, 107
13, 335616, Note_on_c, 12, 67, 0
13, 335872, Note_on_c, 12, 66, 108
13, 336128, Note_on_c, 12, 66, 0
13, 336128, Note_on_c, 12, 67, 109
13, 336384, Note_on_c, 12, 67, 0
13, 336384, Note_on_c, 12, 66, 109
13, 336640, Note_on_c, 12, 66, 0
13, 336640, Note_on_c, 12, 64, 109
13, 336896, Note_on_c, 12, 64, 0
13, 336896, Note_on_c, 12, 62, 110
13, 337152, Note_on_c, 12, 62, 0
13, 337408, Note_on_c, 12, 62, 111
13, 337664, Note_on_c, 12, 62, 0
13, 337920, Note_on_c, 12, 62, 111
13, 338432, Note_on_c, 12, 62, 0
13, 338432, Note_on_c, 12, 61, 112
13, 338688, Note_on_c, 12, 61, 0
13, 338944, Note_on_c, 12, 62, 113
13, 339968, Note_on_c, 12, 62, 0
13, 409600, End_track
14, 0, Start_track
14, 0, Title_t, "Tenor"
14, 0, Program_c, 13, 52
14, 0, Control_c, 13, 121, 127
14, 0, Control_c, 13, 91, 127
14, 0, Control_c, 13, 1, 10
14, 0, Control_c, 13, 10, 80
14, 2560, Note_on_c, 13, 69, 115
14, 2816, Note_on_c, 13, 69, 0
14, 3072, Note_on_c, 13, 66, 115
14, 3328, Note_on_c, 13, 66, 0
14, 3584, Note_on_c, 13, 64, 115
14, 3840, Note_on_c, 13, 64, 0
14, 4096, Note_on_c, 13, 62, 115
14, 5018, Note_on_c, 13, 62, 0
14, 5120, Note_on_c, 13, 62, 115
14, 5376, Note_on_c, 13, 62, 0
14, 5632, Note_on_c, 13, 62, 115
14, 6656, Note_on_c, 13, 62, 0
14, 6656, Note_on_c, 13, 57, 115
14, 6912, Note_on_c, 13, 57, 0
14, 7168, Note_on_c, 13, 57, 115
14, 8090, Note_on_c, 13, 57, 0
14, 8192, Note_on_c, 13, 57, 115
14, 9114, Note_on_c, 13, 57, 0
14, 33280, Note_on_c, 13, 50, 57
14, 33536, Note_on_c, 13, 50, 0
14, 33792, Note_on_c, 13, 57, 57
14, 34048, Note_on_c, 13, 57, 0
14, 34304, Note_on_c, 13, 59, 57
14, 34560, Note_on_c, 13, 59, 0
14, 34816, Note_on_c, 13, 61, 59
14, 35072, Note_on_c, 13, 61, 0
14, 35072, Note_on_c, 13, 62, 60
14, 35328, Note_on_c, 13, 62, 0
14, 35328, Note_on_c, 13, 61, 62
14, 35584, Note_on_c, 13, 61, 0
14, 35584, Note_on_c, 13, 59, 64
14, 35840, Note_on_c, 13, 59, 0
14, 35840, Note_on_c, 13, 57, 65
14, 36096, Note_on_c, 13, 57, 0
14, 36096, Note_on_c, 13, 55, 67
14, 36352, Note_on_c, 13, 55, 0
14, 36352, Note_on_c, 13, 57, 69
14, 36608, Note_on_c, 13, 57, 0
14, 36608, Note_on_c, 13, 59, 70
14, 36864, Note_on_c, 13, 59, 0
14, 36864, Note_on_c, 13, 61, 72
14, 37120, Note_on_c, 13, 61, 0
14, 37120, Note_on_c, 13, 62, 74
14, 37376, Note_on_c, 13, 62, 0
14, 37376, Note_on_c, 13, 61, 75
14, 37632, Note_on_c, 13, 61, 0
14, 37632, Note_on_c, 13, 62, 77
14, 37888, Note_on_c, 13, 62, 0
14, 37888, Note_on_c, 13, 64, 79
14, 38144, Note_on_c, 13, 64, 0
14, 38144, Note_on_c, 13, 66, 80
14, 38400, Note_on_c, 13, 66, 0
14, 38400, Note_on_c, 13, 64, 82
14, 38656, Note_on_c, 13, 64, 0
14, 38656, Note_on_c, 13, 62, 84
14, 38912, Note_on_c, 13, 62, 0
14, 38912, Note_on_c, 13, 61, 85
14, 39168, Note_on_c, 13, 61, 0
14, 39168, Note_on_c, 13, 59, 87
14, 39424, Note_on_c, 13, 59, 0
14, 39424, Note_on_c, 13, 61, 88
14, 39680, Note_on_c, 13, 61, 0
14, 39680, Note_on_c, 13, 62, 90
14, 39936, Note_on_c, 13, 62, 0
14, 39936, Note_on_c, 13, 64, 92
14, 40192, Note_on_c, 13, 64, 0
14, 40192, Note_on_c, 13, 66, 93
14, 40448, Note_on_c, 13, 66, 0
14, 40448, Note_on_c, 13, 62, 95
14, 40704, Note_on_c, 13, 62, 0
14, 40704, Note_on_c, 13, 64, 97
14, 40960, Note_on_c, 13, 64, 0
14, 40960, Note_on_c, 13, 66, 98
14, 41216, Note_on_c, 13, 66, 0
14, 41216, Note_on_c, 13, 67, 100
14, 41472, Note_on_c, 13, 67, 0
14, 41472, Note_on_c, 13, 66, 102
14, 41728, Note_on_c, 13, 66, 0
14, 41728, Note_on_c, 13, 64, 103
14, 41984, Note_on_c, 13, 64, 0
14, 41984, Note_on_c, 13, 66, 105
14, 42240, Note_on_c, 13, 66, 0
14, 42496, Note_on_c, 13, 62, 109
14, 42752, Note_on_c, 13, 62, 0
14, 43008, Note_on_c, 13, 62, 109
14, 43264, Note_on_c, 13, 62, 0
14, 43520, Note_on_c, 13, 57, 109
14, 43776, Note_on_c, 13, 57, 0
14, 44032, Note_on_c, 13, 57, 109
14, 44544, Note_on_c, 13, 57, 0
14, 44544, Note_on_c, 13, 54, 109
14, 45056, Note_on_c, 13, 54, 0
14, 45056, Note_on_c, 13, 62, 109
14, 45312, Note_on_c, 13, 62, 0
14, 45568, Note_on_c, 13, 62, 109
14, 45824, Note_on_c, 13, 62, 0
14, 46080, Note_on_c, 13, 57, 109
14, 46336, Note_on_c, 13, 57, 0
14, 46592, Note_on_c, 13, 57, 109
14, 46848, Note_on_c, 13, 57, 0
14, 47104, Note_on_c, 13, 57, 109
14, 47616, Note_on_c, 13, 57, 0
14, 47616, Note_on_c, 13, 66, 109
14, 47872, Note_on_c, 13, 66, 0
14, 47872, Note_on_c, 13, 64, 109
14, 48128, Note_on_c, 13, 64, 0
14, 48128, Note_on_c, 13, 66, 109
14, 48640, Note_on_c, 13, 66, 0
14, 48640, Note_on_c, 13, 69, 109
14, 49152, Note_on_c, 13, 69, 0
14, 49152, Note_on_c, 13, 62, 109
14, 49664, Note_on_c, 13, 62, 0
14, 49664, Note_on_c, 13, 66, 109
14, 50176, Note_on_c, 13, 66, 0
14, 50176, Note_on_c, 13, 57, 108
14, 50432, Note_on_c, 13, 57, 0
14, 50688, Note_on_c, 13, 62, 106
14, 50944, Note_on_c, 13, 62, 0
14, 51200, Note_on_c, 13, 57, 104
14, 52480, Note_on_c, 13, 57, 0
14, 52736, Note_on_c, 13, 55, 100
14, 52992, Note_on_c, 13, 55, 0
14, 52992, Note_on_c, 13, 54, 99
14, 53248, Note_on_c, 13, 54, 0
14, 53248, Note_on_c, 13, 55, 98
14, 53504, Note_on_c, 13, 55, 0
14, 53504, Note_on_c, 13, 57, 97
14, 53760, Note_on_c, 13, 57, 0
14, 53760, Note_on_c, 13, 59, 96
14, 54016, Note_on_c, 13, 59, 0
14, 54272, Note_on_c, 13, 59, 95
14, 54528, Note_on_c, 13, 59, 0
14, 54784, Note_on_c, 13, 59, 93
14, 55706, Note_on_c, 13, 59, 0
14, 55808, Note_on_c, 13, 59, 98
14, 56064, Note_on_c, 13, 59, 0
14, 56320, Note_on_c, 13, 61, 100
14, 56832, Note_on_c, 13, 61, 0
14, 56832, Note_on_c, 13, 62, 102
14, 57088, Note_on_c, 13, 62, 0
14, 57088, Note_on_c, 13, 64, 103
14, 57344, Note_on_c, 13, 64, 0
14, 57344, Note_on_c, 13, 66, 105
14, 57600, Note_on_c, 13, 66, 0
14, 57856, Note_on_c, 13, 61, 107
14, 58112, Note_on_c, 13, 61, 0
14, 58368, Note_on_c, 13, 62, 111
14, 58624, Note_on_c, 13, 62, 0
14, 58880, Note_on_c, 13, 62, 112
14, 59136, Note_on_c, 13, 62, 0
14, 59136, Note_on_c, 13, 62, 112
14, 59392, Note_on_c, 13, 62, 0
14, 59392, Note_on_c, 13, 64, 113
14, 59648, Note_on_c, 13, 64, 0
14, 59904, Note_on_c, 13, 64, 114
14, 60160, Note_on_c, 13, 64, 0
14, 60928, Note_on_c, 13, 64, 98
14, 61184, Note_on_c, 13, 64, 0
14, 61440, Note_on_c, 13, 64, 98
14, 61696, Note_on_c, 13, 64, 0
14, 61952, Note_on_c, 13, 59, 99
14, 62208, Note_on_c, 13, 59, 0
14, 62464, Note_on_c, 13, 57, 99
14, 62720, Note_on_c, 13, 57, 0
14, 62976, Note_on_c, 13, 56, 98
14, 63232, Note_on_c, 13, 56, 0
14, 63488, Note_on_c, 13, 61, 97
14, 64000, Note_on_c, 13, 61, 0
14, 64000, Note_on_c, 13, 59, 96
14, 64256, Note_on_c, 13, 59, 0
14, 64512, Note_on_c, 13, 61, 95
14, 65536, Note_on_c, 13, 61, 0
14, 65536, Note_on_c, 13, 66, 93
14, 65792, Note_on_c, 13, 66, 0
14, 66048, Note_on_c, 13, 57, 91
14, 66304, Note_on_c, 13, 57, 0
14, 66304, Note_on_c, 13, 59, 91
14, 66560, Note_on_c, 13, 59, 0
14, 66560, Note_on_c, 13, 61, 64
14, 66816, Note_on_c, 13, 61, 0
14, 67072, Note_on_c, 13, 61, 88
14, 67328, Note_on_c, 13, 61, 0
14, 67584, Note_on_c, 13, 62, 90
14, 67840, Note_on_c, 13, 62, 0
14, 68096, Note_on_c, 13, 61, 92
14, 68352, Note_on_c, 13, 61, 0
14, 68608, Note_on_c, 13, 59, 94
14, 68864, Note_on_c, 13, 59, 0
14, 69120, Note_on_c, 13, 59, 94
14, 69376, Note_on_c, 13, 59, 0
14, 69632, Note_on_c, 13, 61, 94
14, 70144, Note_on_c, 13, 61, 0
14, 70144, Note_on_c, 13, 62, 94
14, 70400, Note_on_c, 13, 62, 0
14, 70656, Note_on_c, 13, 64, 94
14, 71168, Note_on_c, 13, 64, 0
14, 71168, Note_on_c, 13, 66, 94
14, 71424, Note_on_c, 13, 66, 0
14, 71680, Note_on_c, 13, 64, 90
14, 72192, Note_on_c, 13, 64, 0
14, 72192, Note_on_c, 13, 59, 80
14, 72448, Note_on_c, 13, 59, 0
14, 73216, Note_on_c, 13, 64, 43
14, 73472, Note_on_c, 13, 64, 0
14, 73472, Note_on_c, 13, 62, 43
14, 73728, Note_on_c, 13, 62, 0
14, 73728, Note_on_c, 13, 61, 43
14, 73984, Note_on_c, 13, 61, 0
14, 74240, Note_on_c, 13, 59, 43
14, 74496, Note_on_c, 13, 59, 0
14, 74752, Note_on_c, 13, 58, 43
14, 75008, Note_on_c, 13, 58, 0
14, 75264, Note_on_c, 13, 54, 43
14, 75520, Note_on_c, 13, 54, 0
14, 75776, Note_on_c, 13, 66, 43
14, 78080, Note_on_c, 13, 66, 0
14, 78336, Note_on_c, 13, 68, 43
14, 78592, Note_on_c, 13, 68, 0
14, 78592, Note_on_c, 13, 69, 43
14, 78848, Note_on_c, 13, 69, 0
14, 78848, Note_on_c, 13, 64, 43
14, 81152, Note_on_c, 13, 64, 0
14, 81408, Note_on_c, 13, 64, 44
14, 81664, Note_on_c, 13, 64, 0
14, 81920, Note_on_c, 13, 69, 46
14, 82432, Note_on_c, 13, 69, 0
14, 82432, Note_on_c, 13, 61, 48
14, 82688, Note_on_c, 13, 61, 0
14, 82944, Note_on_c, 13, 64, 50
14, 83456, Note_on_c, 13, 64, 0
14, 83456, Note_on_c, 13, 57, 52
14, 83712, Note_on_c, 13, 57, 0
14, 83968, Note_on_c, 13, 59, 54
14, 84224, Note_on_c, 13, 59, 0
14, 84480, Note_on_c, 13, 54, 56
14, 84736, Note_on_c, 13, 54, 0
14, 84992, Note_on_c, 13, 59, 58
14, 85504, Note_on_c, 13, 59, 0
14, 85504, Note_on_c, 13, 63, 60
14, 85760, Note_on_c, 13, 63, 0
14, 86016, Note_on_c, 13, 66, 62
14, 86528, Note_on_c, 13, 66, 0
14, 86528, Note_on_c, 13, 63, 64
14, 86784, Note_on_c, 13, 63, 0
14, 87040, Note_on_c, 13, 59, 66
14, 87296, Note_on_c, 13, 59, 0
14, 87552, Note_on_c, 13, 59, 68
14, 87808, Note_on_c, 13, 59, 0
14, 88064, Note_on_c, 13, 56, 70
14, 88320, Note_on_c, 13, 56, 0
14, 88576, Note_on_c, 13, 52, 72
14, 88832, Note_on_c, 13, 52, 0
14, 89088, Note_on_c, 13, 64, 74
14, 89600, Note_on_c, 13, 64, 0
14, 89600, Note_on_c, 13, 59, 76
14, 89856, Note_on_c, 13, 59, 0
14, 90112, Note_on_c, 13, 68, 78
14, 91136, Note_on_c, 13, 68, 0
14, 91136, Note_on_c, 13, 61, 82
14, 92160, Note_on_c, 13, 61, 0
14, 93184, Note_on_c, 13, 61, 91
14, 93440, Note_on_c, 13, 61, 0
14, 93696, Note_on_c, 13, 66, 93
14, 93952, Note_on_c, 13, 66, 0
14, 94208, Note_on_c, 13, 61, 95
14, 94464, Note_on_c, 13, 61, 0
14, 94720, Note_on_c, 13, 61, 97
14, 94976, Note_on_c, 13, 61, 0
14, 95232, Note_on_c, 13, 61, 99
14, 95488, Note_on_c, 13, 61, 0
14, 95744, Note_on_c, 13, 61, 101
14, 96000, Note_on_c, 13, 61, 0
14, 96000, Note_on_c, 13, 61, 102
14, 96256, Note_on_c, 13, 61, 0
14, 96256, Note_on_c, 13, 59, 103
14, 96512, Note_on_c, 13, 59, 0
14, 96768, Note_on_c, 13, 59, 105
14, 97024, Note_on_c, 13, 59, 0
14, 97792, Note_on_c, 13, 62, 110
14, 98048, Note_on_c, 13, 62, 0
14, 98304, Note_on_c, 13, 64, 110
14, 98816, Note_on_c, 13, 64, 0
14, 98816, Note_on_c, 13, 68, 111
14, 99072, Note_on_c, 13, 68, 0
14, 99328, Note_on_c, 13, 61, 112
14, 99584, Note_on_c, 13, 61, 0
14, 99840, Note_on_c, 13, 66, 113
14, 100096, Note_on_c, 13, 66, 0
14, 100352, Note_on_c, 13, 64, 113
14, 100864, Note_on_c, 13, 64, 0
14, 100864, Note_on_c, 13, 62, 114
14, 101376, Note_on_c, 13, 62, 0
14, 101376, Note_on_c, 13, 61, 115
14, 101888, Note_on_c, 13, 61, 0
14, 101888, Note_on_c, 13, 62, 115
14, 102144, Note_on_c, 13, 62, 0
14, 102400, Note_on_c, 13, 61, 116
14, 103424, Note_on_c, 13, 61, 0
14, 153088, Note_on_c, 13, 57, 79
14, 153344, Note_on_c, 13, 57, 0
14, 153600, Note_on_c, 13, 57, 79
14, 153856, Note_on_c, 13, 57, 0
14, 154112, Note_on_c, 13, 64, 80
14, 154880, Note_on_c, 13, 64, 0
14, 155136, Note_on_c, 13, 64, 81
14, 156058, Note_on_c, 13, 64, 0
14, 156160, Note_on_c, 13, 64, 82
14, 156416, Note_on_c, 13, 64, 0
14, 156672, Note_on_c, 13, 66, 82
14, 157184, Note_on_c, 13, 66, 0
14, 157184, Note_on_c, 13, 67, 83
14, 157696, Note_on_c, 13, 67, 0
14, 157696, Note_on_c, 13, 66, 83
14, 158208, Note_on_c, 13, 66, 0
14, 158208, Note_on_c, 13, 61, 85
14, 158720, Note_on_c, 13, 61, 0
14, 158720, Note_on_c, 13, 62, 81
14, 158976, Note_on_c, 13, 62, 0
14, 159232, Note_on_c, 13, 54, 79
14, 159488, Note_on_c, 13, 54, 0
14, 159744, Note_on_c, 13, 61, 80
14, 160000, Note_on_c, 13, 61, 0
14, 160256, Note_on_c, 13, 61, 81
14, 160512, Note_on_c, 13, 61, 0
14, 160768, Note_on_c, 13, 59, 81
14, 161280, Note_on_c, 13, 59, 0
14, 161280, Note_on_c, 13, 62, 82
14, 161536, Note_on_c, 13, 62, 0
14, 161792, Note_on_c, 13, 67, 83
14, 162048, Note_on_c, 13, 67, 0
14, 162304, Note_on_c, 13, 59, 84
14, 162816, Note_on_c, 13, 59, 0
14, 162816, Note_on_c, 13, 61, 85
14, 163072, Note_on_c, 13, 61, 0
14, 163328, Note_on_c, 13, 61, 83
14, 163584, Note_on_c, 13, 61, 0
14, 163840, Note_on_c, 13, 61, 80
14, 164864, Note_on_c, 13, 61, 0
14, 164864, Note_on_c, 13, 61, 76
14, 165120, Note_on_c, 13, 61, 0
14, 165376, Note_on_c, 13, 54, 78
14, 165632, Note_on_c, 13, 54, 0
14, 165888, Note_on_c, 13, 66, 79
14, 166144, Note_on_c, 13, 66, 0
14, 166400, Note_on_c, 13, 64, 81
14, 166656, Note_on_c, 13, 64, 0
14, 166912, Note_on_c, 13, 62, 83
14, 167424, Note_on_c, 13, 62, 0
14, 167424, Note_on_c, 13, 61, 84
14, 167936, Note_on_c, 13, 61, 0
14, 167936, Note_on_c, 13, 62, 86
14, 168192, Note_on_c, 13, 62, 0
14, 168448, Note_on_c, 13, 67, 88
14, 168704, Note_on_c, 13, 67, 0
14, 168960, Note_on_c, 13, 61, 89
14, 169984, Note_on_c, 13, 61, 0
14, 169984, Note_on_c, 13, 62, 92
14, 171008, Note_on_c, 13, 62, 0
14, 176640, Note_on_c, 13, 52, 98
14, 176896, Note_on_c, 13, 52, 0
14, 177152, Note_on_c, 13, 64, 100
14, 177408, Note_on_c, 13, 64, 0
14, 177664, Note_on_c, 13, 64, 102
14, 177920, Note_on_c, 13, 64, 0
14, 178176, Note_on_c, 13, 61, 108
14, 179200, Note_on_c, 13, 61, 0
14, 179200, Note_on_c, 13, 57, 108
14, 179456, Note_on_c, 13, 57, 0
14, 179712, Note_on_c, 13, 57, 108
14, 179968, Note_on_c, 13, 57, 0
14, 180736, Note_on_c, 13, 57, 108
14, 180992, Note_on_c, 13, 57, 0
14, 181248, Note_on_c, 13, 62, 108
14, 181504, Note_on_c, 13, 62, 0
14, 181760, Note_on_c, 13, 64, 108
14, 182016, Note_on_c, 13, 64, 0
14, 182016, Note_on_c, 13, 66, 108
14, 182272, Note_on_c, 13, 66, 0
14, 182272, Note_on_c, 13, 59, 108
14, 183194, Note_on_c, 13, 59, 0
14, 183296, Note_on_c, 13, 59, 98
14, 184218, Note_on_c, 13, 59, 0
14, 184832, Note_on_c, 13, 59, 99
14, 185088, Note_on_c, 13, 59, 0
14, 185344, Note_on_c, 13, 61, 101
14, 185856, Note_on_c, 13, 61, 0
14, 185856, Note_on_c, 13, 64, 102
14, 186112, Note_on_c, 13, 64, 0
14, 186112, Note_on_c, 13, 62, 103
14, 186368, Note_on_c, 13, 62, 0
14, 186368, Note_on_c, 13, 64, 104
14, 186624, Note_on_c, 13, 64, 0
14, 186880, Note_on_c, 13, 61, 105
14, 187136, Note_on_c, 13, 61, 0
14, 187904, Note_on_c, 13, 61, 108
14, 188160, Note_on_c, 13, 61, 0
14, 188416, Note_on_c, 13, 61, 108
14, 188672, Note_on_c, 13, 61, 0
14, 188928, Note_on_c, 13, 58, 104
14, 189440, Note_on_c, 13, 58, 0
14, 189440, Note_on_c, 13, 54, 100
14, 189696, Note_on_c, 13, 54, 0
14, 194048, Note_on_c, 13, 59, 91
14, 195072, Note_on_c, 13, 59, 0
14, 195072, Note_on_c, 13, 58, 94
14, 195328, Note_on_c, 13, 58, 0
14, 195328, Note_on_c, 13, 59, 95
14, 195584, Note_on_c, 13, 59, 0
14, 195584, Note_on_c, 13, 61, 95
14, 195840, Note_on_c, 13, 61, 0
14, 196096, Note_on_c, 13, 62, 96
14, 196352, Note_on_c, 13, 62, 0
14, 196352, Note_on_c, 13, 61, 97
14, 196608, Note_on_c, 13, 61, 0
14, 196608, Note_on_c, 13, 59, 98
14, 197888, Note_on_c, 13, 59, 0
14, 198144, Note_on_c, 13, 61, 101
14, 198400, Note_on_c, 13, 61, 0
14, 198656, Note_on_c, 13, 62, 103
14, 198912, Note_on_c, 13, 62, 0
14, 199168, Note_on_c, 13, 67, 104
14, 199424, Note_on_c, 13, 67, 0
14, 199680, Note_on_c, 13, 66, 106
14, 200192, Note_on_c, 13, 66, 0
14, 200192, Note_on_c, 13, 61, 106
14, 200448, Note_on_c, 13, 61, 0
14, 200704, Note_on_c, 13, 62, 107
14, 201728, Note_on_c, 13, 62, 0
14, 263680, Note_on_c, 13, 69, 100
14, 264192, Note_on_c, 13, 69, 0
14, 264192, Note_on_c, 13, 66, 102
14, 264448, Note_on_c, 13, 66, 0
14, 264704, Note_on_c, 13, 64, 105
14, 264960, Note_on_c, 13, 64, 0
14, 265216, Note_on_c, 13, 62, 108
14, 266138, Note_on_c, 13, 62, 0
14, 266240, Note_on_c, 13, 62, 108
14, 266496, Note_on_c, 13, 62, 0
14, 266752, Note_on_c, 13, 62, 108
14, 267008, Note_on_c, 13, 62, 0
14, 267264, Note_on_c, 13, 62, 108
14, 267520, Note_on_c, 13, 62, 0
14, 267776, Note_on_c, 13, 57, 108
14, 268032, Note_on_c, 13, 57, 0
14, 268288, Note_on_c, 13, 57, 108
14, 269210, Note_on_c, 13, 57, 0
14, 269312, Note_on_c, 13, 57, 108
14, 270234, Note_on_c, 13, 57, 0
14, 288256, Note_on_c, 13, 50, 56
14, 288768, Note_on_c, 13, 50, 0
14, 288768, Note_on_c, 13, 57, 56
14, 289024, Note_on_c, 13, 57, 0
14, 289280, Note_on_c, 13, 59, 56
14, 289536, Note_on_c, 13, 59, 0
14, 289792, Note_on_c, 13, 61, 57
14, 290048, Note_on_c, 13, 61, 0
14, 290048, Note_on_c, 13, 62, 57
14, 290304, Note_on_c, 13, 62, 0
14, 290304, Note_on_c, 13, 61, 58
14, 290560, Note_on_c, 13, 61, 0
14, 290560, Note_on_c, 13, 59, 59
14, 290816, Note_on_c, 13, 59, 0
14, 290816, Note_on_c, 13, 57, 60
14, 291072, Note_on_c, 13, 57, 0
14, 291072, Note_on_c, 13, 55, 61
14, 291328, Note_on_c, 13, 55, 0
14, 291328, Note_on_c, 13, 57, 61
14, 291584, Note_on_c, 13, 57, 0
14, 291584, Note_on_c, 13, 59, 62
14, 291840, Note_on_c, 13, 59, 0
14, 291840, Note_on_c, 13, 61, 63
14, 292096, Note_on_c, 13, 61, 0
14, 292096, Note_on_c, 13, 62, 64
14, 292352, Note_on_c, 13, 62, 0
14, 292352, Note_on_c, 13, 61, 65
14, 292608, Note_on_c, 13, 61, 0
14, 292608, Note_on_c, 13, 62, 65
14, 292864, Note_on_c, 13, 62, 0
14, 292864, Note_on_c, 13, 64, 66
14, 293120, Note_on_c, 13, 64, 0
14, 293120, Note_on_c, 13, 66, 67
14, 293376, Note_on_c, 13, 66, 0
14, 293376, Note_on_c, 13, 64, 68
14, 293632, Note_on_c, 13, 64, 0
14, 293632, Note_on_c, 13, 62, 69
14, 293888, Note_on_c, 13, 62, 0
14, 293888, Note_on_c, 13, 61, 69
14, 294144, Note_on_c, 13, 61, 0
14, 294144, Note_on_c, 13, 59, 70
14, 294400, Note_on_c, 13, 59, 0
14, 294400, Note_on_c, 13, 61, 71
14, 294656, Note_on_c, 13, 61, 0
14, 294656, Note_on_c, 13, 62, 72
14, 294912, Note_on_c, 13, 62, 0
14, 294912, Note_on_c, 13, 64, 73
14, 295168, Note_on_c, 13, 64, 0
14, 295168, Note_on_c, 13, 66, 73
14, 295424, Note_on_c, 13, 66, 0
14, 295424, Note_on_c, 13, 62, 74
14, 295680, Note_on_c, 13, 62, 0
14, 295680, Note_on_c, 13, 64, 75
14, 295936, Note_on_c, 13, 64, 0
14, 295936, Note_on_c, 13, 66, 76
14, 296192, Note_on_c, 13, 66, 0
14, 296192, Note_on_c, 13, 67, 77
14, 296448, Note_on_c, 13, 67, 0
14, 296448, Note_on_c, 13, 66, 77
14, 296704, Note_on_c, 13, 66, 0
14, 296704, Note_on_c, 13, 64, 78
14, 296960, Note_on_c, 13, 64, 0
14, 296960, Note_on_c, 13, 66, 79
14, 297216, Note_on_c, 13, 66, 0
14, 297472, Note_on_c, 13, 62, 56
14, 297728, Note_on_c, 13, 62, 0
14, 297984, Note_on_c, 13, 62, 56
14, 298240, Note_on_c, 13, 62, 0
14, 298496, Note_on_c, 13, 57, 56
14, 298752, Note_on_c, 13, 57, 0
14, 299008, Note_on_c, 13, 57, 57
14, 299930, Note_on_c, 13, 57, 0
14, 300032, Note_on_c, 13, 57, 61
14, 300288, Note_on_c, 13, 57, 0
14, 300544, Note_on_c, 13, 64, 63
14, 300800, Note_on_c, 13, 64, 0
14, 301056, Note_on_c, 13, 66, 65
14, 301312, Note_on_c, 13, 66, 0
14, 301568, Note_on_c, 13, 61, 67
14, 301824, Note_on_c, 13, 61, 0
14, 302080, Note_on_c, 13, 62, 69
14, 302336, Note_on_c, 13, 62, 0
14, 302592, Note_on_c, 13, 59, 71
14, 302848, Note_on_c, 13, 59, 0
14, 303104, Note_on_c, 13, 54, 73
14, 303360, Note_on_c, 13, 54, 0
14, 303616, Note_on_c, 13, 54, 75
14, 304128, Note_on_c, 13, 54, 0
14, 304128, Note_on_c, 13, 59, 77
14, 304384, Note_on_c, 13, 59, 0
14, 304640, Note_on_c, 13, 62, 79
14, 304896, Note_on_c, 13, 62, 0
14, 305152, Note_on_c, 13, 64, 81
14, 306176, Note_on_c, 13, 64, 0
14, 306176, Note_on_c, 13, 62, 85
14, 306432, Note_on_c, 13, 62, 0
14, 306688, Note_on_c, 13, 61, 87
14, 306944, Note_on_c, 13, 61, 0
14, 307200, Note_on_c, 13, 57, 89
14, 307456, Note_on_c, 13, 57, 0
14, 307712, Note_on_c, 13, 64, 91
14, 307968, Note_on_c, 13, 64, 0
14, 308224, Note_on_c, 13, 66, 91
14, 308480, Note_on_c, 13, 66, 0
14, 308480, Note_on_c, 13, 67, 87
14, 308736, Note_on_c, 13, 67, 0
14, 308736, Note_on_c, 13, 69, 83
14, 308992, Note_on_c, 13, 69, 0
14, 309760, Note_on_c, 13, 69, 95
14, 310016, Note_on_c, 13, 69, 0
14, 310016, Note_on_c, 13, 67, 96
14, 310272, Note_on_c, 13, 67, 0
14, 310272, Note_on_c, 13, 66, 97
14, 310528, Note_on_c, 13, 66, 0
14, 310784, Note_on_c, 13, 64, 99
14, 311040, Note_on_c, 13, 64, 0
14, 311296, Note_on_c, 13, 63, 101
14, 311808, Note_on_c, 13, 63, 0
14, 311808, Note_on_c, 13, 64, 99
14, 312064, Note_on_c, 13, 64, 0
14, 312064, Note_on_c, 13, 66, 98
14, 312320, Note_on_c, 13, 66, 0
14, 312320, Note_on_c, 13, 59, 98
14, 314624, Note_on_c, 13, 59, 0
14, 314880, Note_on_c, 13, 54, 92
14, 315136, Note_on_c, 13, 54, 0
14, 315904, Note_on_c, 13, 61, 90
14, 316416, Note_on_c, 13, 61, 0
14, 316416, Note_on_c, 13, 64, 89
14, 316672, Note_on_c, 13, 64, 0
14, 316928, Note_on_c, 13, 61, 88
14, 317184, Note_on_c, 13, 61, 0
14, 317440, Note_on_c, 13, 57, 87
14, 317952, Note_on_c, 13, 57, 0
14, 317952, Note_on_c, 13, 61, 85
14, 318208, Note_on_c, 13, 61, 0
14, 318464, Note_on_c, 13, 54, 81
14, 318720, Note_on_c, 13, 54, 0
14, 318976, Note_on_c, 13, 59, 76
14, 319232, Note_on_c, 13, 59, 0
14, 319488, Note_on_c, 13, 62, 72
14, 319744, Note_on_c, 13, 62, 0
14, 320000, Note_on_c, 13, 61, 67
14, 320256, Note_on_c, 13, 61, 0
14, 320512, Note_on_c, 13, 59, 53
14, 321024, Note_on_c, 13, 59, 0
14, 321024, Note_on_c, 13, 62, 55
14, 321280, Note_on_c, 13, 62, 0
14, 321536, Note_on_c, 13, 56, 57
14, 321792, Note_on_c, 13, 56, 0
14, 322048, Note_on_c, 13, 59, 60
14, 323072, Note_on_c, 13, 59, 0
14, 323072, Note_on_c, 13, 59, 64
14, 323328, Note_on_c, 13, 59, 0
14, 323584, Note_on_c, 13, 57, 67
14, 324096, Note_on_c, 13, 57, 0
14, 324096, Note_on_c, 13, 61, 69
14, 324608, Note_on_c, 13, 61, 0
14, 324608, Note_on_c, 13, 52, 72
14, 325120, Note_on_c, 13, 52, 0
14, 325120, Note_on_c, 13, 57, 74
14, 325632, Note_on_c, 13, 57, 0
14, 325632, Note_on_c, 13, 61, 76
14, 327168, Note_on_c, 13, 61, 0
14, 327168, Note_on_c, 13, 64, 83
14, 327680, Note_on_c, 13, 64, 0
14, 327680, Note_on_c, 13, 58, 86
14, 328192, Note_on_c, 13, 58, 0
14, 328192, Note_on_c, 13, 61, 88
14, 328704, Note_on_c, 13, 61, 0
14, 328704, Note_on_c, 13, 66, 90
14, 330240, Note_on_c, 13, 66, 0
14, 330240, Note_on_c, 13, 69, 97
14, 330496, Note_on_c, 13, 69, 0
14, 330752, Note_on_c, 13, 66, 98
14, 331008, Note_on_c, 13, 66, 0
14, 331264, Note_on_c, 13, 63, 99
14, 331520, Note_on_c, 13, 63, 0
14, 331776, Note_on_c, 13, 59, 100
14, 332032, Note_on_c, 13, 59, 0
14, 332288, Note_on_c, 13, 59, 101
14, 332544, Note_on_c, 13, 59, 0
14, 332800, Note_on_c, 13, 59, 102
14, 333312, Note_on_c, 13, 59, 0
14, 333312, Note_on_c, 13, 64, 103
14, 333568, Note_on_c, 13, 64, 0
14, 334336, Note_on_c, 13, 64, 105
14, 334592, Note_on_c, 13, 64, 0
14, 334848, Note_on_c, 13, 62, 106
14, 335104, Note_on_c, 13, 62, 0
14, 335360, Note_on_c, 13, 66, 107
14, 335616, Note_on_c, 13, 66, 0
14, 335872, Note_on_c, 13, 59, 108
14, 336128, Note_on_c, 13, 59, 0
14, 336384, Note_on_c, 13, 62, 109
14, 336640, Note_on_c, 13, 62, 0
14, 336640, Note_on_c, 13, 61, 109
14, 336896, Note_on_c, 13, 61, 0
14, 336896, Note_on_c, 13, 62, 110
14, 337152, Note_on_c, 13, 62, 0
14, 337408, Note_on_c, 13, 57, 111
14, 337664, Note_on_c, 13, 57, 0
14, 337920, Note_on_c, 13, 54, 111
14, 338176, Note_on_c, 13, 54, 0
14, 338176, Note_on_c, 13, 55, 112
14, 338432, Note_on_c, 13, 55, 0
14, 338432, Note_on_c, 13, 57, 112
14, 338688, Note_on_c, 13, 57, 0
14, 338944, Note_on_c, 13, 57, 113
14, 339968, Note_on_c, 13, 57, 0
14, 409600, End_track
15, 0, Start_track
15, 0, Title_t, "Bass"
15, 0, Program_c, 14, 52
15, 0, Control_c, 14, 121, 127
15, 0, Control_c, 14, 91, 127
15, 0, Control_c, 14, 1, 10
15, 0, Control_c, 14, 10, 100
15, 2560, Note_on_c, 14, 50, 115
15, 2816, Note_on_c, 14, 50, 0
15, 3072, Note_on_c, 14, 54, 115
15, 3328, Note_on_c, 14, 54, 0
15, 3584, Note_on_c, 14, 57, 115
15, 3840, Note_on_c, 14, 57, 0
15, 4096, Note_on_c, 14, 62, 115
15, 5018, Note_on_c, 14, 62, 0
15, 5120, Note_on_c, 14, 62, 115
15, 5376, Note_on_c, 14, 62, 0
15, 5632, Note_on_c, 14, 55, 115
15, 6144, Note_on_c, 14, 55, 0
15, 6144, Note_on_c, 14, 57, 115
15, 6400, Note_on_c, 14, 57, 0
15, 6656, Note_on_c, 14, 45, 115
15, 6912, Note_on_c, 14, 45, 0
15, 7168, Note_on_c, 14, 50, 115
15, 8090, Note_on_c, 14, 50, 0
15, 8192, Note_on_c, 14, 50, 115
15, 9114, Note_on_c, 14, 50, 0
15, 27136, Note_on_c, 14, 45, 56
15, 27392, Note_on_c, 14, 45, 0
15, 27648, Note_on_c, 14, 50, 56
15, 27904, Note_on_c, 14, 50, 0
15, 28160, Note_on_c, 14, 52, 56
15, 28416, Note_on_c, 14, 52, 0
15, 28672, Note_on_c, 14, 54, 56
15, 28928, Note_on_c, 14, 54, 0
15, 28928, Note_on_c, 14, 55, 56
15, 29184, Note_on_c, 14, 55, 0
15, 29184, Note_on_c, 14, 54, 56
15, 29440, Note_on_c, 14, 54, 0
15, 29440, Note_on_c, 14, 52, 56
15, 29696, Note_on_c, 14, 52, 0
15, 29696, Note_on_c, 14, 50, 56
15, 29952, Note_on_c, 14, 50, 0
15, 29952, Note_on_c, 14, 49, 56
15, 30208, Note_on_c, 14, 49, 0
15, 30208, Note_on_c, 14, 50, 56
15, 30464, Note_on_c, 14, 50, 0
15, 30464, Note_on_c, 14, 52, 56
15, 30720, Note_on_c, 14, 52, 0
15, 30720, Note_on_c, 14, 54, 57
15, 30976, Note_on_c, 14, 54, 0
15, 30976, Note_on_c, 14, 55, 57
15, 31232, Note_on_c, 14, 55, 0
15, 31232, Note_on_c, 14, 54, 57
15, 31488, Note_on_c, 14, 54, 0
15, 31488, Note_on_c, 14, 55, 57
15, 31744, Note_on_c, 14, 55, 0
15, 31744, Note_on_c, 14, 57, 57
15, 32000, Note_on_c, 14, 57, 0
15, 32000, Note_on_c, 14, 59, 57
15, 32256, Note_on_c, 14, 59, 0
15, 32256, Note_on_c, 14, 57, 57
15, 32512, Note_on_c, 14, 57, 0
15, 32512, Note_on_c, 14, 55, 57
15, 32768, Note_on_c, 14, 55, 0
15, 32768, Note_on_c, 14, 54, 57
15, 33024, Note_on_c, 14, 54, 0
15, 33024, Note_on_c, 14, 55, 57
15, 33280, Note_on_c, 14, 55, 0
15, 33280, Note_on_c, 14, 54, 57
15, 33536, Note_on_c, 14, 54, 0
15, 33536, Note_on_c, 14, 52, 57
15, 33792, Note_on_c, 14, 52, 0
15, 33792, Note_on_c, 14, 50, 57
15, 34048, Note_on_c, 14, 50, 0
15, 34048, Note_on_c, 14, 52, 57
15, 34304, Note_on_c, 14, 52, 0
15, 34304, Note_on_c, 14, 54, 57
15, 34560, Note_on_c, 14, 54, 0
15, 34560, Note_on_c, 14, 50, 57
15, 34816, Note_on_c, 14, 50, 0
15, 34816, Note_on_c, 14, 55, 59
15, 35072, Note_on_c, 14, 55, 0
15, 35072, Note_on_c, 14, 57, 60
15, 35328, Note_on_c, 14, 57, 0
15, 35328, Note_on_c, 14, 55, 62
15, 35584, Note_on_c, 14, 55, 0
15, 35584, Note_on_c, 14, 54, 64
15, 35840, Note_on_c, 14, 54, 0
15, 35840, Note_on_c, 14, 55, 65
15, 36096, Note_on_c, 14, 55, 0
15, 36352, Note_on_c, 14, 52, 69
15, 36608, Note_on_c, 14, 52, 0
15, 36864, Note_on_c, 14, 49, 72
15, 37120, Note_on_c, 14, 49, 0
15, 37376, Note_on_c, 14, 52, 75
15, 37632, Note_on_c, 14, 52, 0
15, 37888, Note_on_c, 14, 45, 79
15, 38144, Note_on_c, 14, 45, 0
15, 38400, Note_on_c, 14, 57, 82
15, 38656, Note_on_c, 14, 57, 0
15, 39424, Note_on_c, 14, 55, 88
15, 39680, Note_on_c, 14, 55, 0
15, 39680, Note_on_c, 14, 54, 90
15, 39936, Note_on_c, 14, 54, 0
15, 39936, Note_on_c, 14, 52, 92
15, 40192, Note_on_c, 14, 52, 0
15, 40448, Note_on_c, 14, 57, 95
15, 40704, Note_on_c, 14, 57, 0
15, 40960, Note_on_c, 14, 54, 98
15, 41216, Note_on_c, 14, 54, 0
15, 41472, Note_on_c, 14, 50, 102
15, 41728, Note_on_c, 14, 50, 0
15, 42496, Note_on_c, 14, 50, 109
15, 42752, Note_on_c, 14, 50, 0
15, 43008, Note_on_c, 14, 54, 109
15, 43264, Note_on_c, 14, 54, 0
15, 43520, Note_on_c, 14, 57, 109
15, 43776, Note_on_c, 14, 57, 0
15, 44032, Note_on_c, 14, 62, 109
15, 45568, Note_on_c, 14, 62, 0
15, 45568, Note_on_c, 14, 55, 109
15, 45824, Note_on_c, 14, 55, 0
15, 46080, Note_on_c, 14, 57, 109
15, 46336, Note_on_c, 14, 57, 0
15, 46592, Note_on_c, 14, 45, 109
15, 46848, Note_on_c, 14, 45, 0
15, 47104, Note_on_c, 14, 50, 109
15, 47616, Note_on_c, 14, 50, 0
15, 47616, Note_on_c, 14, 62, 109
15, 47872, Note_on_c, 14, 62, 0
15, 47872, Note_on_c, 14, 61, 109
15, 48128, Note_on_c, 14, 61, 0
15, 48128, Note_on_c, 14, 62, 109
15, 48640, Note_on_c, 14, 62, 0
15, 48640, Note_on_c, 14, 57, 109
15, 48896, Note_on_c, 14, 57, 0
15, 48896, Note_on_c, 14, 55, 109
15, 49152, Note_on_c, 14, 55, 0
15, 49152, Note_on_c, 14, 57, 109
15, 49664, Note_on_c, 14, 57, 0
15, 49664, Note_on_c, 14, 54, 109
15, 49920, Note_on_c, 14, 54, 0
15, 49920, Note_on_c, 14, 52, 109
15, 50176, Note_on_c, 14, 52, 0
15, 50176, Note_on_c, 14, 54, 108
15, 50432, Note_on_c, 14, 54, 0
15, 50688, Note_on_c, 14, 50, 106
15, 50944, Note_on_c, 14, 50, 0
15, 50944, Note_on_c, 14, 52, 105
15, 51200, Note_on_c, 14, 52, 0
15, 51200, Note_on_c, 14, 54, 104
15, 51456, Note_on_c, 14, 54, 0
15, 51712, Note_on_c, 14, 57, 102
15, 52224, Note_on_c, 14, 57, 0
15, 52224, Note_on_c, 14, 54, 101
15, 52480, Note_on_c, 14, 54, 0
15, 52736, Note_on_c, 14, 52, 100
15, 52992, Note_on_c, 14, 52, 0
15, 52992, Note_on_c, 14, 50, 99
15, 53248, Note_on_c, 14, 50, 0
15, 53248, Note_on_c, 14, 55, 98
15, 53504, Note_on_c, 14, 55, 0
15, 53760, Note_on_c, 14, 55, 96
15, 54016, Note_on_c, 14, 55, 0
15, 54016, Note_on_c, 14, 54, 96
15, 54272, Note_on_c, 14, 54, 0
15, 54272, Note_on_c, 14, 55, 95
15, 54528, Note_on_c, 14, 55, 0
15, 54784, Note_on_c, 14, 59, 93
15, 55040, Note_on_c, 14, 59, 0
15, 55296, Note_on_c, 14, 52, 95
15, 55552, Note_on_c, 14, 52, 0
15, 55808, Note_on_c, 14, 55, 98
15, 56064, Note_on_c, 14, 55, 0
15, 56320, Note_on_c, 14, 57, 100
15, 56832, Note_on_c, 14, 57, 0
15, 56832, Note_on_c, 14, 55, 102
15, 57344, Note_on_c, 14, 55, 0
15, 57344, Note_on_c, 14, 54, 105
15, 57600, Note_on_c, 14, 54, 0
15, 57856, Note_on_c, 14, 52, 107
15, 58112, Note_on_c, 14, 52, 0
15, 58368, Note_on_c, 14, 54, 111
15, 58624, Note_on_c, 14, 54, 0
15, 58880, Note_on_c, 14, 52, 112
15, 59136, Note_on_c, 14, 52, 0
15, 59136, Note_on_c, 14, 50, 112
15, 59392, Note_on_c, 14, 50, 0
15, 59392, Note_on_c, 14, 57, 113
15, 59648, Note_on_c, 14, 57, 0
15, 59904, Note_on_c, 14, 57, 114
15, 60160, Note_on_c, 14, 57, 0
15, 60928, Note_on_c, 14, 52, 98
15, 61184, Note_on_c, 14, 52, 0
15, 61440, Note_on_c, 14, 49, 98
15, 61696, Note_on_c, 14, 49, 0
15, 61952, Note_on_c, 14, 52, 99
15, 62208, Note_on_c, 14, 52, 0
15, 62464, Note_on_c, 14, 45, 99
15, 62720, Note_on_c, 14, 45, 0
15, 62976, Note_on_c, 14, 52, 98
15, 63232, Note_on_c, 14, 52, 0
15, 63488, Note_on_c, 14, 57, 97
15, 64000, Note_on_c, 14, 57, 0
15, 64000, Note_on_c, 14, 59, 96
15, 64256, Note_on_c, 14, 59, 0
15, 64512, Note_on_c, 14, 57, 95
15, 65024, Note_on_c, 14, 57, 0
15, 65024, Note_on_c, 14, 56, 94
15, 65280, Note_on_c, 14, 56, 0
15, 65536, Note_on_c, 14, 54, 93
15, 66048, Note_on_c, 14, 54, 0
15, 66048, Note_on_c, 14, 49, 91
15, 66304, Note_on_c, 14, 49, 0
15, 66560, Note_on_c, 14, 42, 64
15, 66816, Note_on_c, 14, 42, 0
15, 67072, Note_on_c, 14, 57, 88
15, 67328, Note_on_c, 14, 57, 0
15, 67584, Note_on_c, 14, 50, 90
15, 67840, Note_on_c, 14, 50, 0
15, 68096, Note_on_c, 14, 54, 92
15, 68352, Note_on_c, 14, 54, 0
15, 68608, Note_on_c, 14, 47, 94
15, 68864, Note_on_c, 14, 47, 0
15, 69120, Note_on_c, 14, 50, 94
15, 69376, Note_on_c, 14, 50, 0
15, 69632, Note_on_c, 14, 49, 94
15, 70144, Note_on_c, 14, 49, 0
15, 70144, Note_on_c, 14, 47, 94
15, 70400, Note_on_c, 14, 47, 0
15, 70656, Note_on_c, 14, 49, 94
15, 71168, Note_on_c, 14, 49, 0
15, 71168, Note_on_c, 14, 50, 94
15, 71424, Note_on_c, 14, 50, 0
15, 71680, Note_on_c, 14, 52, 90
15, 72192, Note_on_c, 14, 52, 0
15, 72192, Note_on_c, 14, 52, 80
15, 72448, Note_on_c, 14, 52, 0
15, 73216, Note_on_c, 14, 52, 43
15, 73472, Note_on_c, 14, 52, 0
15, 73728, Note_on_c, 14, 64, 43
15, 73984, Note_on_c, 14, 64, 0
15, 74240, Note_on_c, 14, 62, 43
15, 74496, Note_on_c, 14, 62, 0
15, 74752, Note_on_c, 14, 61, 43
15, 75008, Note_on_c, 14, 61, 0
15, 75264, Note_on_c, 14, 59, 43
15, 75520, Note_on_c, 14, 59, 0
15, 75776, Note_on_c, 14, 58, 43
15, 76032, Note_on_c, 14, 58, 0
15, 76288, Note_on_c, 14, 61, 43
15, 76544, Note_on_c, 14, 61, 0
15, 76800, Note_on_c, 14, 54, 43
15, 77312, Note_on_c, 14, 54, 0
15, 77312, Note_on_c, 14, 58, 43
15, 77568, Note_on_c, 14, 58, 0
15, 77824, Note_on_c, 14, 59, 43
15, 78080, Note_on_c, 14, 59, 0
15, 78336, Note_on_c, 14, 57, 43
15, 78592, Note_on_c, 14, 57, 0
15, 78848, Note_on_c, 14, 56, 43
15, 79104, Note_on_c, 14, 56, 0
15, 79360, Note_on_c, 14, 59, 43
15, 79616, Note_on_c, 14, 59, 0
15, 79872, Note_on_c, 14, 52, 43
15, 80384, Note_on_c, 14, 52, 0
15, 80384, Note_on_c, 14, 56, 43
15, 80640, Note_on_c, 14, 56, 0
15, 80896, Note_on_c, 14, 57, 42
15, 81408, Note_on_c, 14, 57, 0
15, 81408, Note_on_c, 14, 56, 44
15, 81664, Note_on_c, 14, 56, 0
15, 81920, Note_on_c, 14, 54, 46
15, 82176, Note_on_c, 14, 54, 0
15, 82432, Note_on_c, 14, 57, 48
15, 82944, Note_on_c, 14, 57, 0
15, 82944, Note_on_c, 14, 49, 50
15, 83200, Note_on_c, 14, 49, 0
15, 83456, Note_on_c, 14, 52, 52
15, 83712, Note_on_c, 14, 52, 0
15, 83968, Note_on_c, 14, 51, 54
15, 84224, Note_on_c, 14, 51, 0
15, 84224, Note_on_c, 14, 49, 55
15, 84480, Note_on_c, 14, 49, 0
15, 84480, Note_on_c, 14, 51, 56
15, 84736, Note_on_c, 14, 51, 0
15, 84736, Note_on_c, 14, 52, 57
15, 84992, Note_on_c, 14, 52, 0
15, 84992, Note_on_c, 14, 54, 58
15, 85248, Note_on_c, 14, 54, 0
15, 85504, Note_on_c, 14, 59, 60
15, 85760, Note_on_c, 14, 59, 0
15, 86016, Note_on_c, 14, 63, 62
15, 86272, Note_on_c, 14, 63, 0
15, 86528, Note_on_c, 14, 59, 64
15, 86784, Note_on_c, 14, 59, 0
15, 87040, Note_on_c, 14, 64, 66
15, 87962, Note_on_c, 14, 64, 0
15, 88064, Note_on_c, 14, 52, 70
15, 88986, Note_on_c, 14, 52, 0
15, 90624, Note_on_c, 14, 53, 80
15, 90880, Note_on_c, 14, 53, 0
15, 90880, Note_on_c, 14, 54, 81
15, 91136, Note_on_c, 14, 54, 0
15, 91136, Note_on_c, 14, 56, 82
15, 91392, Note_on_c, 14, 56, 0
15, 91648, Note_on_c, 14, 61, 85
15, 91904, Note_on_c, 14, 61, 0
15, 92160, Note_on_c, 14, 49, 87
15, 92672, Note_on_c, 14, 49, 0
15, 92672, Note_on_c, 14, 53, 89
15, 92928, Note_on_c, 14, 53, 0
15, 93184, Note_on_c, 14, 54, 91
15, 94720, Note_on_c, 14, 54, 0
15, 94720, Note_on_c, 14, 61, 97
15, 94976, Note_on_c, 14, 61, 0
15, 95232, Note_on_c, 14, 58, 99
15, 95488, Note_on_c, 14, 58, 0
15, 95744, Note_on_c, 14, 54, 101
15, 96000, Note_on_c, 14, 54, 0
15, 96256, Note_on_c, 14, 59, 103
15, 96512, Note_on_c, 14, 59, 0
15, 96768, Note_on_c, 14, 59, 105
15, 97024, Note_on_c, 14, 59, 0
15, 97792, Note_on_c, 14, 47, 110
15, 98048, Note_on_c, 14, 47, 0
15, 98304, Note_on_c, 14, 49, 110
15, 98816, Note_on_c, 14, 49, 0
15, 98816, Note_on_c, 14, 52, 111
15, 99072, Note_on_c, 14, 52, 0
15, 99328, Note_on_c, 14, 54, 112
15, 99584, Note_on_c, 14, 54, 0
15, 99840, Note_on_c, 14, 52, 113
15, 100096, Note_on_c, 14, 52, 0
15, 100096, Note_on_c, 14, 50, 113
15, 100352, Note_on_c, 14, 50, 0
15, 100352, Note_on_c, 14, 49, 113
15, 100608, Note_on_c, 14, 49, 0
15, 100864, Note_on_c, 14, 50, 114
15, 101376, Note_on_c, 14, 50, 0
15, 101376, Note_on_c, 14, 52, 115
15, 102400, Note_on_c, 14, 52, 0
15, 102400, Note_on_c, 14, 45, 116
15, 103424, Note_on_c, 14, 45, 0
15, 153088, Note_on_c, 14, 45, 79
15, 153344, Note_on_c, 14, 45, 0
15, 153600, Note_on_c, 14, 49, 79
15, 154112, Note_on_c, 14, 49, 0
15, 154112, Note_on_c, 14, 52, 80
15, 154368, Note_on_c, 14, 52, 0
15, 154624, Note_on_c, 14, 57, 80
15, 155136, Note_on_c, 14, 57, 0
15, 155136, Note_on_c, 14, 52, 81
15, 155392, Note_on_c, 14, 52, 0
15, 155648, Note_on_c, 14, 45, 81
15, 155904, Note_on_c, 14, 45, 0
15, 156160, Note_on_c, 14, 55, 82
15, 156416, Note_on_c, 14, 55, 0
15, 156672, Note_on_c, 14, 54, 82
15, 157184, Note_on_c, 14, 54, 0
15, 157184, Note_on_c, 14, 52, 83
15, 157696, Note_on_c, 14, 52, 0
15, 157696, Note_on_c, 14, 50, 83
15, 158208, Note_on_c, 14, 50, 0
15, 158208, Note_on_c, 14, 57, 85
15, 158720, Note_on_c, 14, 57, 0
15, 158720, Note_on_c, 14, 62, 81
15, 158976, Note_on_c, 14, 62, 0
15, 159232, Note_on_c, 14, 59, 79
15, 159744, Note_on_c, 14, 59, 0
15, 159744, Note_on_c, 14, 52, 80
15, 160000, Note_on_c, 14, 52, 0
15, 160256, Note_on_c, 14, 54, 81
15, 160512, Note_on_c, 14, 54, 0
15, 160768, Note_on_c, 14, 55, 81
15, 161024, Note_on_c, 14, 55, 0
15, 161280, Note_on_c, 14, 54, 82
15, 161792, Note_on_c, 14, 54, 0
15, 161792, Note_on_c, 14, 55, 83
15, 162048, Note_on_c, 14, 55, 0
15, 162304, Note_on_c, 14, 52, 84
15, 162560, Note_on_c, 14, 52, 0
15, 162816, Note_on_c, 14, 49, 85
15, 163072, Note_on_c, 14, 49, 0
15, 163328, Note_on_c, 14, 52, 83
15, 163584, Note_on_c, 14, 52, 0
15, 163840, Note_on_c, 14, 54, 80
15, 164352, Note_on_c, 14, 54, 0
15, 164352, Note_on_c, 14, 49, 77
15, 164608, Note_on_c, 14, 49, 0
15, 164864, Note_on_c, 14, 42, 76
15, 165120, Note_on_c, 14, 42, 0
15, 165376, Note_on_c, 14, 54, 78
15, 165632, Note_on_c, 14, 54, 0
15, 165888, Note_on_c, 14, 56, 79
15, 166400, Note_on_c, 14, 56, 0
15, 166400, Note_on_c, 14, 58, 81
15, 166912, Note_on_c, 14, 58, 0
15, 166912, Note_on_c, 14, 59, 83
15, 167168, Note_on_c, 14, 59, 0
15, 167424, Note_on_c, 14, 54, 84
15, 167680, Note_on_c, 14, 54, 0
15, 167936, Note_on_c, 14, 50, 86
15, 168192, Note_on_c, 14, 50, 0
15, 168448, Note_on_c, 14, 52, 88
15, 168704, Note_on_c, 14, 52, 0
15, 168960, Note_on_c, 14, 54, 89
15, 169984, Note_on_c, 14, 54, 0
15, 169984, Note_on_c, 14, 47, 92
15, 171008, Note_on_c, 14, 47, 0
15, 178688, Note_on_c, 14, 45, 108
15, 178944, Note_on_c, 14, 45, 0
15, 179200, Note_on_c, 14, 50, 108
15, 179712, Note_on_c, 14, 50, 0
15, 179712, Note_on_c, 14, 49, 108
15, 180224, Note_on_c, 14, 49, 0
15, 180224, Note_on_c, 14, 47, 108
15, 180736, Note_on_c, 14, 47, 0
15, 180736, Note_on_c, 14, 50, 108
15, 180992, Note_on_c, 14, 50, 0
15, 181248, Note_on_c, 14, 54, 108
15, 181504, Note_on_c, 14, 54, 0
15, 181760, Note_on_c, 14, 57, 108
15, 182016, Note_on_c, 14, 57, 0
15, 182272, Note_on_c, 14, 56, 108
15, 183194, Note_on_c, 14, 56, 0
15, 183296, Note_on_c, 14, 56, 98
15, 184218, Note_on_c, 14, 56, 0
15, 184832, Note_on_c, 14, 44, 99
15, 185088, Note_on_c, 14, 44, 0
15, 185344, Note_on_c, 14, 45, 101
15, 185856, Note_on_c, 14, 45, 0
15, 185856, Note_on_c, 14, 49, 102
15, 186368, Note_on_c, 14, 49, 0
15, 186368, Note_on_c, 14, 52, 104
15, 186880, Note_on_c, 14, 52, 0
15, 186880, Note_on_c, 14, 57, 105
15, 187136, Note_on_c, 14, 57, 0
15, 187392, Note_on_c, 14, 61, 107
15, 187648, Note_on_c, 14, 61, 0
15, 187904, Note_on_c, 14, 64, 108
15, 188160, Note_on_c, 14, 64, 0
15, 188416, Note_on_c, 14, 58, 108
15, 189338, Note_on_c, 14, 58, 0
15, 189440, Note_on_c, 14, 58, 100
15, 190362, Note_on_c, 14, 58, 0
15, 191488, Note_on_c, 14, 59, 85
15, 192512, Note_on_c, 14, 59, 0
15, 192512, Note_on_c, 14, 47, 88
15, 193536, Note_on_c, 14, 47, 0
15, 194048, Note_on_c, 14, 59, 91
15, 194304, Note_on_c, 14, 59, 0
15, 194560, Note_on_c, 14, 64, 93
15, 194816, Note_on_c, 14, 64, 0
15, 195072, Note_on_c, 14, 61, 94
15, 195328, Note_on_c, 14, 61, 0
15, 195584, Note_on_c, 14, 58, 95
15, 195840, Note_on_c, 14, 58, 0
15, 196096, Note_on_c, 14, 54, 96
15, 196352, Note_on_c, 14, 54, 0
15, 196608, Note_on_c, 14, 50, 98
15, 196864, Note_on_c, 14, 50, 0
15, 197120, Note_on_c, 14, 59, 99
15, 197376, Note_on_c, 14, 59, 0
15, 197632, Note_on_c, 14, 55, 100
15, 198144, Note_on_c, 14, 55, 0
15, 198144, Note_on_c, 14, 54, 101
15, 198400, Note_on_c, 14, 54, 0
15, 198400, Note_on_c, 14, 52, 102
15, 198656, Note_on_c, 14, 52, 0
15, 198656, Note_on_c, 14, 50, 103
15, 198912, Note_on_c, 14, 50, 0
15, 199168, Note_on_c, 14, 52, 104
15, 199424, Note_on_c, 14, 52, 0
15, 199680, Note_on_c, 14, 54, 106
15, 200602, Note_on_c, 14, 54, 0
15, 200704, Note_on_c, 14, 47, 107
15, 201728, Note_on_c, 14, 47, 0
15, 225280, Program_c, 14, 71
15, 226816, Note_on_c, 14, 54, 74
15, 227072, Note_on_c, 14, 54, 0
15, 227328, Note_on_c, 14, 59, 77
15, 227584, Note_on_c, 14, 59, 0
15, 227840, Note_on_c, 14, 61, 81
15, 228096, Note_on_c, 14, 61, 0
15, 228352, Note_on_c, 14, 62, 85
15, 228608, Note_on_c, 14, 62, 0
15, 228864, Note_on_c, 14, 64, 85
15, 229035, Note_on_c, 14, 64, 0
15, 229035, Note_on_c, 14, 62, 84
15, 229205, Note_on_c, 14, 62, 0
15, 229205, Note_on_c, 14, 61, 83
15, 229376, Note_on_c, 14, 61, 0
15, 229376, Note_on_c, 14, 62, 81
15, 229632, Note_on_c, 14, 62, 0
15, 229888, Note_on_c, 14, 52, 65
15, 230144, Note_on_c, 14, 52, 0
15, 230144, Note_on_c, 14, 54, 68
15, 230272, Note_on_c, 14, 54, 0
15, 230400, Note_on_c, 14, 56, 71
15, 230656, Note_on_c, 14, 56, 0
15, 230656, Note_on_c, 14, 57, 74
15, 230784, Note_on_c, 14, 57, 0
15, 230912, Note_on_c, 14, 59, 77
15, 231168, Note_on_c, 14, 59, 0
15, 231168, Note_on_c, 14, 61, 80
15, 231296, Note_on_c, 14, 61, 0
15, 231424, Note_on_c, 14, 62, 83
15, 231680, Note_on_c, 14, 62, 0
15, 231936, Note_on_c, 14, 61, 83
15, 232192, Note_on_c, 14, 61, 0
15, 232192, Note_on_c, 14, 59, 82
15, 232448, Note_on_c, 14, 59, 0
15, 232448, Note_on_c, 14, 61, 81
15, 232704, Note_on_c, 14, 61, 0
15, 232960, Note_on_c, 14, 54, 75
15, 233216, Note_on_c, 14, 54, 0
15, 233472, Note_on_c, 14, 56, 75
15, 233728, Note_on_c, 14, 56, 0
15, 233728, Note_on_c, 14, 54, 75
15, 233856, Note_on_c, 14, 54, 0
15, 233984, Note_on_c, 14, 53, 75
15, 234240, Note_on_c, 14, 53, 0
15, 234240, Note_on_c, 14, 54, 75
15, 234368, Note_on_c, 14, 54, 0
15, 234496, Note_on_c, 14, 59, 75
15, 234752, Note_on_c, 14, 59, 0
15, 235008, Note_on_c, 14, 61, 75
15, 235179, Note_on_c, 14, 61, 0
15, 235179, Note_on_c, 14, 59, 75
15, 235349, Note_on_c, 14, 59, 0
15, 235349, Note_on_c, 14, 57, 75
15, 235520, Note_on_c, 14, 57, 0
15, 235520, Note_on_c, 14, 59, 75
15, 236032, Note_on_c, 14, 59, 0
15, 236032, Note_on_c, 14, 49, 52
15, 236288, Note_on_c, 14, 49, 0
15, 236288, Note_on_c, 14, 51, 55
15, 236544, Note_on_c, 14, 51, 0
15, 236544, Note_on_c, 14, 53, 57
15, 236800, Note_on_c, 14, 53, 0
15, 236800, Note_on_c, 14, 54, 60
15, 237056, Note_on_c, 14, 54, 0
15, 237056, Note_on_c, 14, 56, 63
15, 237312, Note_on_c, 14, 56, 0
15, 237312, Note_on_c, 14, 57, 65
15, 237568, Note_on_c, 14, 57, 0
15, 237568, Note_on_c, 14, 59, 68
15, 237824, Note_on_c, 14, 59, 0
15, 238080, Note_on_c, 14, 57, 72
15, 238336, Note_on_c, 14, 57, 0
15, 238336, Note_on_c, 14, 56, 72
15, 238592, Note_on_c, 14, 56, 0
15, 238592, Note_on_c, 14, 57, 72
15, 238848, Note_on_c, 14, 57, 0
15, 239104, Note_on_c, 14, 61, 72
15, 239360, Note_on_c, 14, 61, 0
15, 239616, Note_on_c, 14, 59, 71
15, 239872, Note_on_c, 14, 59, 0
15, 239872, Note_on_c, 14, 57, 71
15, 240000, Note_on_c, 14, 57, 0
15, 240128, Note_on_c, 14, 56, 71
15, 240384, Note_on_c, 14, 56, 0
15, 240384, Note_on_c, 14, 54, 71
15, 240512, Note_on_c, 14, 54, 0
15, 240640, Note_on_c, 14, 53, 71
15, 241664, Note_on_c, 14, 53, 0
15, 241920, Note_on_c, 14, 49, 45
15, 242176, Note_on_c, 14, 49, 0
15, 242176, Note_on_c, 14, 51, 47
15, 242304, Note_on_c, 14, 51, 0
15, 242432, Note_on_c, 14, 53, 49
15, 242560, Note_on_c, 14, 53, 0
15, 242688, Note_on_c, 14, 54, 51
15, 242944, Note_on_c, 14, 54, 0
15, 242944, Note_on_c, 14, 53, 53
15, 243200, Note_on_c, 14, 53, 0
15, 243200, Note_on_c, 14, 54, 55
15, 243456, Note_on_c, 14, 54, 0
15, 243456, Note_on_c, 14, 56, 57
15, 243712, Note_on_c, 14, 56, 0
15, 243712, Note_on_c, 14, 57, 60
15, 243968, Note_on_c, 14, 57, 0
15, 243968, Note_on_c, 14, 59, 62
15, 244224, Note_on_c, 14, 59, 0
15, 244224, Note_on_c, 14, 57, 64
15, 244480, Note_on_c, 14, 57, 0
15, 244480, Note_on_c, 14, 56, 66
15, 244736, Note_on_c, 14, 56, 0
15, 244736, Note_on_c, 14, 57, 68
15, 244992, Note_on_c, 14, 57, 0
15, 244992, Note_on_c, 14, 54, 70
15, 245248, Note_on_c, 14, 54, 0
15, 245248, Note_on_c, 14, 53, 72
15, 245504, Note_on_c, 14, 53, 0
15, 245504, Note_on_c, 14, 54, 74
15, 245760, Note_on_c, 14, 54, 0
15, 245760, Note_on_c, 14, 56, 76
15, 246016, Note_on_c, 14, 56, 0
15, 246016, Note_on_c, 14, 58, 78
15, 246144, Note_on_c, 14, 58, 0
15, 246272, Note_on_c, 14, 59, 80
15, 246528, Note_on_c, 14, 59, 0
15, 246528, Note_on_c, 14, 61, 82
15, 246656, Note_on_c, 14, 61, 0
15, 246784, Note_on_c, 14, 62, 84
15, 247040, Note_on_c, 14, 62, 0
15, 247296, Note_on_c, 14, 64, 87
15, 247467, Note_on_c, 14, 64, 0
15, 247467, Note_on_c, 14, 62, 86
15, 247637, Note_on_c, 14, 62, 0
15, 247637, Note_on_c, 14, 61, 85
15, 247808, Note_on_c, 14, 61, 0
15, 247808, Note_on_c, 14, 62, 84
15, 248064, Note_on_c, 14, 62, 0
15, 248320, Note_on_c, 14, 59, 81
15, 248576, Note_on_c, 14, 59, 0
15, 248832, Note_on_c, 14, 56, 78
15, 250112, Note_on_c, 14, 56, 0
15, 250368, Note_on_c, 14, 57, 74
15, 250624, Note_on_c, 14, 57, 0
15, 250624, Note_on_c, 14, 59, 72
15, 250880, Note_on_c, 14, 59, 0
15, 250880, Note_on_c, 14, 57, 70
15, 251136, Note_on_c, 14, 57, 0
15, 251136, Note_on_c, 14, 56, 68
15, 251264, Note_on_c, 14, 56, 0
15, 251392, Note_on_c, 14, 54, 66
15, 251648, Note_on_c, 14, 54, 0
15, 251648, Note_on_c, 14, 52, 64
15, 251776, Note_on_c, 14, 52, 0
15, 251904, Note_on_c, 14, 50, 62
15, 252160, Note_on_c, 14, 50, 0
15, 252160, Note_on_c, 14, 49, 60
15, 252288, Note_on_c, 14, 49, 0
15, 252416, Note_on_c, 14, 61, 58
15, 253440, Note_on_c, 14, 61, 0
15, 253440, Note_on_c, 14, 62, 58
15, 253696, Note_on_c, 14, 62, 0
15, 253696, Note_on_c, 14, 61, 61
15, 253824, Note_on_c, 14, 61, 0
15, 253952, Note_on_c, 14, 59, 64
15, 254208, Note_on_c, 14, 59, 0
15, 254208, Note_on_c, 14, 57, 66
15, 254464, Note_on_c, 14, 57, 0
15, 254464, Note_on_c, 14, 56, 69
15, 254720, Note_on_c, 14, 56, 0
15, 254720, Note_on_c, 14, 54, 72
15, 254976, Note_on_c, 14, 54, 0
15, 254976, Note_on_c, 14, 62, 74
15, 255232, Note_on_c, 14, 62, 0
15, 255488, Note_on_c, 14, 61, 79
15, 255744, Note_on_c, 14, 61, 0
15, 256000, Note_on_c, 14, 59, 85
15, 256256, Note_on_c, 14, 59, 0
15, 256256, Note_on_c, 14, 58, 87
15, 256512, Note_on_c, 14, 58, 0
15, 256512, Note_on_c, 14, 59, 87
15, 257434, Note_on_c, 14, 59, 0
15, 257536, Note_on_c, 14, 50, 49
15, 257792, Note_on_c, 14, 50, 0
15, 258048, Note_on_c, 14, 49, 55
15, 258304, Note_on_c, 14, 49, 0
15, 258560, Note_on_c, 14, 51, 62
15, 258816, Note_on_c, 14, 51, 0
15, 258816, Note_on_c, 14, 53, 65
15, 258944, Note_on_c, 14, 53, 0
15, 259072, Note_on_c, 14, 54, 68
15, 259328, Note_on_c, 14, 54, 0
15, 259328, Note_on_c, 14, 56, 71
15, 259456, Note_on_c, 14, 56, 0
15, 259584, Note_on_c, 14, 57, 74
15, 259840, Note_on_c, 14, 57, 0
15, 259840, Note_on_c, 14, 59, 77
15, 259968, Note_on_c, 14, 59, 0
15, 260096, Note_on_c, 14, 61, 81
15, 260352, Note_on_c, 14, 61, 0
15, 260608, Note_on_c, 14, 54, 87
15, 260864, Note_on_c, 14, 54, 0
15, 261120, Note_on_c, 14, 49, 88
15, 261376, Note_on_c, 14, 49, 0
15, 261376, Note_on_c, 14, 47, 88
15, 261632, Note_on_c, 14, 47, 0
15, 261632, Note_on_c, 14, 49, 88
15, 261888, Note_on_c, 14, 49, 0
15, 262144, Note_on_c, 14, 42, 88
15, 263168, Note_on_c, 14, 42, 0
15, 263168, Program_c, 14, 52
15, 263680, Note_on_c, 14, 50, 100
15, 264192, Note_on_c, 14, 50, 0
15, 264192, Note_on_c, 14, 54, 102
15, 264448, Note_on_c, 14, 54, 0
15, 264704, Note_on_c, 14, 57, 105
15, 264960, Note_on_c, 14, 57, 0
15, 265216, Note_on_c, 14, 62, 108
15, 266138, Note_on_c, 14, 62, 0
15, 266240, Note_on_c, 14, 62, 108
15, 266496, Note_on_c, 14, 62, 0
15, 266752, Note_on_c, 14, 55, 108
15, 267008, Note_on_c, 14, 55, 0
15, 267264, Note_on_c, 14, 57, 108
15, 267520, Note_on_c, 14, 57, 0
15, 267776, Note_on_c, 14, 45, 108
15, 268032, Note_on_c, 14, 45, 0
15, 268288, Note_on_c, 14, 50, 108
15, 269210, Note_on_c, 14, 50, 0
15, 269312, Note_on_c, 14, 50, 108
15, 270234, Note_on_c, 14, 50, 0
15, 282112, Note_on_c, 14, 45, 56
15, 282624, Note_on_c, 14, 45, 0
15, 282624, Note_on_c, 14, 50, 56
15, 282880, Note_on_c, 14, 50, 0
15, 283136, Note_on_c, 14, 52, 56
15, 283392, Note_on_c, 14, 52, 0
15, 283648, Note_on_c, 14, 54, 56
15, 283904, Note_on_c, 14, 54, 0
15, 283904, Note_on_c, 14, 55, 56
15, 284160, Note_on_c, 14, 55, 0
15, 284160, Note_on_c, 14, 54, 56
15, 284416, Note_on_c, 14, 54, 0
15, 284416, Note_on_c, 14, 52, 56
15, 284672, Note_on_c, 14, 52, 0
15, 284672, Note_on_c, 14, 50, 56
15, 284928, Note_on_c, 14, 50, 0
15, 284928, Note_on_c, 14, 49, 56
15, 285184, Note_on_c, 14, 49, 0
15, 285184, Note_on_c, 14, 50, 56
15, 285440, Note_on_c, 14, 50, 0
15, 285440, Note_on_c, 14, 52, 56
15, 285696, Note_on_c, 14, 52, 0
15, 285696, Note_on_c, 14, 54, 56
15, 285952, Note_on_c, 14, 54, 0
15, 285952, Note_on_c, 14, 55, 56
15, 286208, Note_on_c, 14, 55, 0
15, 286208, Note_on_c, 14, 54, 56
15, 286464, Note_on_c, 14, 54, 0
15, 286464, Note_on_c, 14, 55, 56
15, 286720, Note_on_c, 14, 55, 0
15, 286720, Note_on_c, 14, 57, 56
15, 286976, Note_on_c, 14, 57, 0
15, 286976, Note_on_c, 14, 59, 56
15, 287232, Note_on_c, 14, 59, 0
15, 287232, Note_on_c, 14, 57, 56
15, 287488, Note_on_c, 14, 57, 0
15, 287488, Note_on_c, 14, 55, 56
15, 287744, Note_on_c, 14, 55, 0
15, 287744, Note_on_c, 14, 54, 56
15, 288000, Note_on_c, 14, 54, 0
15, 288000, Note_on_c, 14, 55, 56
15, 288256, Note_on_c, 14, 55, 0
15, 288256, Note_on_c, 14, 54, 56
15, 288512, Note_on_c, 14, 54, 0
15, 288512, Note_on_c, 14, 52, 56
15, 288768, Note_on_c, 14, 52, 0
15, 288768, Note_on_c, 14, 50, 56
15, 289024, Note_on_c, 14, 50, 0
15, 289024, Note_on_c, 14, 52, 56
15, 289280, Note_on_c, 14, 52, 0
15, 289280, Note_on_c, 14, 54, 56
15, 289536, Note_on_c, 14, 54, 0
15, 289536, Note_on_c, 14, 50, 56
15, 289792, Note_on_c, 14, 50, 0
15, 289792, Note_on_c, 14, 55, 57
15, 290048, Note_on_c, 14, 55, 0
15, 290304, Note_on_c, 14, 55, 58
15, 290560, Note_on_c, 14, 55, 0
15, 290560, Note_on_c, 14, 54, 59
15, 290816, Note_on_c, 14, 54, 0
15, 290816, Note_on_c, 14, 55, 60
15, 291072, Note_on_c, 14, 55, 0
15, 291328, Note_on_c, 14, 52, 61
15, 291584, Note_on_c, 14, 52, 0
15, 291840, Note_on_c, 14, 49, 63
15, 292096, Note_on_c, 14, 49, 0
15, 292352, Note_on_c, 14, 52, 65
15, 292608, Note_on_c, 14, 52, 0
15, 292864, Note_on_c, 14, 57, 66
15, 293120, Note_on_c, 14, 57, 0
15, 293376, Note_on_c, 14, 57, 68
15, 293632, Note_on_c, 14, 57, 0
15, 294400, Note_on_c, 14, 55, 71
15, 294656, Note_on_c, 14, 55, 0
15, 294656, Note_on_c, 14, 54, 72
15, 294912, Note_on_c, 14, 54, 0
15, 294912, Note_on_c, 14, 52, 73
15, 295168, Note_on_c, 14, 52, 0
15, 295424, Note_on_c, 14, 57, 74
15, 295680, Note_on_c, 14, 57, 0
15, 295936, Note_on_c, 14, 54, 76
15, 296192, Note_on_c, 14, 54, 0
15, 296448, Note_on_c, 14, 50, 77
15, 296704, Note_on_c, 14, 50, 0
15, 297472, Note_on_c, 14, 50, 56
15, 297984, Note_on_c, 14, 50, 0
15, 297984, Note_on_c, 14, 54, 56
15, 298240, Note_on_c, 14, 54, 0
15, 298496, Note_on_c, 14, 57, 56
15, 298752, Note_on_c, 14, 57, 0
15, 299008, Note_on_c, 14, 62, 57
15, 299930, Note_on_c, 14, 62, 0
15, 300032, Note_on_c, 14, 50, 61
15, 300288, Note_on_c, 14, 50, 0
15, 300544, Note_on_c, 14, 52, 63
15, 300800, Note_on_c, 14, 52, 0
15, 301056, Note_on_c, 14, 50, 65
15, 301312, Note_on_c, 14, 50, 0
15, 301568, Note_on_c, 14, 49, 67
15, 301824, Note_on_c, 14, 49, 0
15, 302080, Note_on_c, 14, 47, 69
15, 303002, Note_on_c, 14, 47, 0
15, 303104, Note_on_c, 14, 47, 73
15, 303360, Note_on_c, 14, 47, 0
15, 303616, Note_on_c, 14, 50, 75
15, 304128, Note_on_c, 14, 50, 0
15, 304128, Note_on_c, 14, 55, 77
15, 304384, Note_on_c, 14, 55, 0
15, 304640, Note_on_c, 14, 59, 79
15, 304896, Note_on_c, 14, 59, 0
15, 305152, Note_on_c, 14, 52, 81
15, 305664, Note_on_c, 14, 52, 0
15, 305664, Note_on_c, 14, 55, 83
15, 305920, Note_on_c, 14, 55, 0
15, 306176, Note_on_c, 14, 54, 85
15, 306432, Note_on_c, 14, 54, 0
15, 306688, Note_on_c, 14, 52, 87
15, 306944, Note_on_c, 14, 52, 0
15, 307200, Note_on_c, 14, 54, 89
15, 307456, Note_on_c, 14, 54, 0
15, 307712, Note_on_c, 14, 55, 91
15, 307968, Note_on_c, 14, 55, 0
15, 308224, Note_on_c, 14, 57, 91
15, 308736, Note_on_c, 14, 57, 0
15, 308736, Note_on_c, 14, 45, 83
15, 308992, Note_on_c, 14, 45, 0
15, 309760, Note_on_c, 14, 57, 95
15, 310682, Note_on_c, 14, 57, 0
15, 310784, Note_on_c, 14, 55, 99
15, 311040, Note_on_c, 14, 55, 0
15, 311296, Note_on_c, 14, 54, 101
15, 311808, Note_on_c, 14, 54, 0
15, 311808, Note_on_c, 14, 52, 99
15, 312320, Note_on_c, 14, 52, 0
15, 312320, Note_on_c, 14, 51, 98
15, 312832, Note_on_c, 14, 51, 0
15, 312832, Note_on_c, 14, 54, 97
15, 313344, Note_on_c, 14, 54, 0
15, 313344, Note_on_c, 14, 47, 96
15, 313856, Note_on_c, 14, 47, 0
15, 313856, Note_on_c, 14, 51, 95
15, 314368, Note_on_c, 14, 51, 0
15, 314368, Note_on_c, 14, 52, 93
15, 314880, Note_on_c, 14, 52, 0
15, 314880, Note_on_c, 14, 50, 92
15, 315392, Note_on_c, 14, 50, 0
15, 315392, Note_on_c, 14, 49, 91
15, 315904, Note_on_c, 14, 49, 0
15, 315904, Note_on_c, 14, 52, 90
15, 316416, Note_on_c, 14, 52, 0
15, 316416, Note_on_c, 14, 45, 89
15, 316928, Note_on_c, 14, 45, 0
15, 316928, Note_on_c, 14, 49, 88
15, 317440, Note_on_c, 14, 49, 0
15, 317440, Note_on_c, 14, 50, 87
15, 317952, Note_on_c, 14, 50, 0
15, 317952, Note_on_c, 14, 49, 85
15, 318464, Note_on_c, 14, 49, 0
15, 318464, Note_on_c, 14, 47, 81
15, 318976, Note_on_c, 14, 47, 0
15, 318976, Note_on_c, 14, 50, 76
15, 319488, Note_on_c, 14, 50, 0
15, 319488, Note_on_c, 14, 54, 72
15, 320000, Note_on_c, 14, 54, 0
15, 320000, Note_on_c, 14, 57, 67
15, 320512, Note_on_c, 14, 57, 0
15, 320512, Note_on_c, 14, 56, 53
15, 320768, Note_on_c, 14, 56, 0
15, 320768, Note_on_c, 14, 54, 54
15, 321024, Note_on_c, 14, 54, 0
15, 321024, Note_on_c, 14, 56, 55
15, 321280, Note_on_c, 14, 56, 0
15, 321280, Note_on_c, 14, 57, 56
15, 321536, Note_on_c, 14, 57, 0
15, 321536, Note_on_c, 14, 59, 57
15, 321792, Note_on_c, 14, 59, 0
15, 322048, Note_on_c, 14, 56, 60
15, 322304, Note_on_c, 14, 56, 0
15, 322560, Note_on_c, 14, 52, 62
15, 322816, Note_on_c, 14, 52, 0
15, 323072, Note_on_c, 14, 56, 64
15, 323328, Note_on_c, 14, 56, 0
15, 323584, Note_on_c, 14, 57, 67
15, 324608, Note_on_c, 14, 57, 0
15, 324608, Note_on_c, 14, 45, 72
15, 324864, Note_on_c, 14, 45, 0
15, 325120, Note_on_c, 14, 57, 74
15, 326144, Note_on_c, 14, 57, 0
15, 326144, Note_on_c, 14, 57, 79
15, 326400, Note_on_c, 14, 57, 0
15, 326656, Note_on_c, 14, 58, 81
15, 326912, Note_on_c, 14, 58, 0
15, 326912, Note_on_c, 14, 56, 82
15, 327168, Note_on_c, 14, 56, 0
15, 327168, Note_on_c, 14, 58, 83
15, 327424, Note_on_c, 14, 58, 0
15, 327424, Note_on_c, 14, 59, 84
15, 327680, Note_on_c, 14, 59, 0
15, 327680, Note_on_c, 14, 61, 86
15, 327936, Note_on_c, 14, 61, 0
15, 328192, Note_on_c, 14, 58, 88
15, 328448, Note_on_c, 14, 58, 0
15, 328704, Note_on_c, 14, 54, 90
15, 328960, Note_on_c, 14, 54, 0
15, 329216, Note_on_c, 14, 58, 93
15, 329472, Note_on_c, 14, 58, 0
15, 329728, Note_on_c, 14, 59, 96
15, 330752, Note_on_c, 14, 59, 0
15, 330752, Note_on_c, 14, 47, 98
15, 331008, Note_on_c, 14, 47, 0
15, 331264, Note_on_c, 14, 47, 99
15, 331520, Note_on_c, 14, 47, 0
15, 331776, Note_on_c, 14, 47, 100
15, 332032, Note_on_c, 14, 47, 0
15, 332288, Note_on_c, 14, 47, 101
15, 332544, Note_on_c, 14, 47, 0
15, 332800, Note_on_c, 14, 52, 102
15, 333312, Note_on_c, 14, 52, 0
15, 333312, Note_on_c, 14, 45, 103
15, 333568, Note_on_c, 14, 45, 0
15, 334336, Note_on_c, 14, 52, 105
15, 334848, Note_on_c, 14, 52, 0
15, 334848, Note_on_c, 14, 54, 106
15, 335104, Note_on_c, 14, 54, 0
15, 335360, Note_on_c, 14, 57, 107
15, 335616, Note_on_c, 14, 57, 0
15, 335872, Note_on_c, 14, 59, 108
15, 336128, Note_on_c, 14, 59, 0
15, 336384, Note_on_c, 14, 57, 109
15, 336640, Note_on_c, 14, 57, 0
15, 336640, Note_on_c, 14, 55, 109
15, 336896, Note_on_c, 14, 55, 0
15, 336896, Note_on_c, 14, 54, 110
15, 337664, Note_on_c, 14, 54, 0
15, 337664, Note_on_c, 14, 55, 111
15, 337920, Note_on_c, 14, 55, 0
15, 337920, Note_on_c, 14, 57, 111
15, 338944, Note_on_c, 14, 57, 0
15, 338944, Note_on_c, 14, 50, 113
15, 339968, Note_on_c, 14, 50, 0
15, 409600, End_track
16, 0, Start_track
16, 0, Title_t, "Organ"
16, 0, Program_c, 15, 19
16, 0, Control_c, 15, 121, 127
16, 0, Control_c, 15, 91, 127
16, 0, Control_c, 15, 10, 80
16, 2560, Note_on_c, 15, 50, 91
16, 2816, Note_on_c, 15, 50, 0
16, 3072, Note_on_c, 15, 54, 92
16, 3328, Note_on_c, 15, 54, 0
16, 3584, Note_on_c, 15, 57, 94
16, 3840, Note_on_c, 15, 57, 0
16, 4096, Note_on_c, 15, 62, 96
16, 5120, Note_on_c, 15, 62, 0
16, 5632, Note_on_c, 15, 55, 96
16, 6144, Note_on_c, 15, 55, 0
16, 6144, Note_on_c, 15, 57, 96
16, 6400, Note_on_c, 15, 57, 0
16, 6656, Note_on_c, 15, 45, 96
16, 6912, Note_on_c, 15, 45, 0
16, 7168, Note_on_c, 15, 50, 96
16, 7424, Note_on_c, 15, 50, 0
16, 8192, Note_on_c, 15, 38, 96
16, 8448, Note_on_c, 15, 38, 0
16, 9216, Note_on_c, 15, 50, 96
16, 9472, Note_on_c, 15, 50, 0
16, 10240, Note_on_c, 15, 55, 96
16, 10496, Note_on_c, 15, 55, 0
16, 10752, Note_on_c, 15, 54, 96
16, 11008, Note_on_c, 15, 54, 0
16, 11264, Note_on_c, 15, 52, 96
16, 11520, Note_on_c, 15, 52, 0
16, 11776, Note_on_c, 15, 49, 96
16, 12032, Note_on_c, 15, 49, 0
16, 12288, Note_on_c, 15, 50, 96
16, 12544, Note_on_c, 15, 50, 0
16, 12800, Note_on_c, 15, 47, 96
16, 13056, Note_on_c, 15, 47, 0
16, 13312, Note_on_c, 15, 45, 96
16, 14336, Note_on_c, 15, 45, 0
16, 14848, Note_on_c, 15, 57, 96
16, 15104, Note_on_c, 15, 57, 0
16, 15104, Note_on_c, 15, 55, 95
16, 15360, Note_on_c, 15, 55, 0
16, 15360, Note_on_c, 15, 54, 94
16, 15616, Note_on_c, 15, 54, 0
16, 15872, Note_on_c, 15, 57, 92
16, 16128, Note_on_c, 15, 57, 0
16, 16384, Note_on_c, 15, 50, 91
16, 16640, Note_on_c, 15, 50, 0
16, 16896, Note_on_c, 15, 57, 89
16, 17152, Note_on_c, 15, 57, 0
16, 17408, Note_on_c, 15, 62, 87
16, 17664, Note_on_c, 15, 62, 0
16, 17920, Note_on_c, 15, 59, 86
16, 18176, Note_on_c, 15, 59, 0
16, 18432, Note_on_c, 15, 54, 84
16, 18688, Note_on_c, 15, 54, 0
16, 18944, Note_on_c, 15, 55, 82
16, 19200, Note_on_c, 15, 55, 0
16, 19456, Note_on_c, 15, 57, 79
16, 19712, Note_on_c, 15, 57, 0
16, 19968, Note_on_c, 15, 59, 81
16, 20224, Note_on_c, 15, 59, 0
16, 20480, Note_on_c, 15, 61, 84
16, 20736, Note_on_c, 15, 61, 0
16, 20992, Note_on_c, 15, 59, 86
16, 21248, Note_on_c, 15, 59, 0
16, 21504, Note_on_c, 15, 57, 89
16, 21760, Note_on_c, 15, 57, 0
16, 22016, Note_on_c, 15, 59, 91
16, 22272, Note_on_c, 15, 59, 0
16, 22528, Note_on_c, 15, 61, 94
16, 22784, Note_on_c, 15, 61, 0
16, 23040, Note_on_c, 15, 57, 96
16, 23296, Note_on_c, 15, 57, 0
16, 23552, Note_on_c, 15, 54, 98
16, 23808, Note_on_c, 15, 54, 0
16, 24064, Note_on_c, 15, 50, 101
16, 24320, Note_on_c, 15, 50, 0
16, 24576, Note_on_c, 15, 52, 103
16, 24832, Note_on_c, 15, 52, 0
16, 25088, Note_on_c, 15, 40, 106
16, 25344, Note_on_c, 15, 40, 0
16, 25600, Note_on_c, 15, 45, 108
16, 25856, Note_on_c, 15, 45, 0
16, 26112, Note_on_c, 15, 57, 64
16, 26368, Note_on_c, 15, 57, 0
16, 26368, Note_on_c, 15, 59, 82
16, 26624, Note_on_c, 15, 59, 0
16, 26624, Note_on_c, 15, 57, 78
16, 26880, Note_on_c, 15, 57, 0
16, 27136, Note_on_c, 15, 55, 70
16, 27392, Note_on_c, 15, 55, 0
16, 27648, Note_on_c, 15, 54, 63
16, 27904, Note_on_c, 15, 54, 0
16, 28160, Note_on_c, 15, 52, 55
16, 28416, Note_on_c, 15, 52, 0
16, 28672, Note_on_c, 15, 50, 47
16, 29696, Note_on_c, 15, 50, 0
16, 31744, Note_on_c, 15, 38, 50
16, 32768, Note_on_c, 15, 38, 0
16, 34816, Note_on_c, 15, 50, 60
16, 35840, Note_on_c, 15, 50, 0
16, 37888, Note_on_c, 15, 38, 70
16, 38912, Note_on_c, 15, 38, 0
16, 40960, Note_on_c, 15, 50, 81
16, 41984, Note_on_c, 15, 50, 0
16, 42496, Note_on_c, 15, 50, 97
16, 42752, Note_on_c, 15, 50, 0
16, 43008, Note_on_c, 15, 54, 99
16, 43264, Note_on_c, 15, 54, 0
16, 43520, Note_on_c, 15, 57, 101
16, 43776, Note_on_c, 15, 57, 0
16, 44032, Note_on_c, 15, 62, 104
16, 45056, Note_on_c, 15, 62, 0
16, 45568, Note_on_c, 15, 55, 96
16, 45824, Note_on_c, 15, 55, 0
16, 46080, Note_on_c, 15, 57, 95
16, 46336, Note_on_c, 15, 57, 0
16, 46592, Note_on_c, 15, 45, 94
16, 46848, Note_on_c, 15, 45, 0
16, 47104, Note_on_c, 15, 50, 93
16, 47360, Note_on_c, 15, 50, 0
16, 48128, Note_on_c, 15, 38, 60
16, 48384, Note_on_c, 15, 38, 0
16, 49152, Note_on_c, 15, 50, 63
16, 49408, Note_on_c, 15, 50, 0
16, 50688, Note_on_c, 15, 54, 68
16, 50944, Note_on_c, 15, 54, 0
16, 50944, Note_on_c, 15, 52, 69
16, 51200, Note_on_c, 15, 52, 0
16, 51200, Note_on_c, 15, 54, 69
16, 51456, Note_on_c, 15, 54, 0
16, 51712, Note_on_c, 15, 57, 71
16, 51968, Note_on_c, 15, 57, 0
16, 52224, Note_on_c, 15, 54, 72
16, 52480, Note_on_c, 15, 54, 0
16, 52736, Note_on_c, 15, 50, 74
16, 52992, Note_on_c, 15, 50, 0
16, 53248, Note_on_c, 15, 43, 75
16, 53504, Note_on_c, 15, 43, 0
16, 53760, Note_on_c, 15, 55, 77
16, 54016, Note_on_c, 15, 55, 0
16, 54016, Note_on_c, 15, 54, 78
16, 54272, Note_on_c, 15, 54, 0
16, 54272, Note_on_c, 15, 55, 78
16, 54528, Note_on_c, 15, 55, 0
16, 54784, Note_on_c, 15, 59, 80
16, 55040, Note_on_c, 15, 59, 0
16, 55296, Note_on_c, 15, 52, 81
16, 55552, Note_on_c, 15, 52, 0
16, 55808, Note_on_c, 15, 55, 83
16, 56064, Note_on_c, 15, 55, 0
16, 56320, Note_on_c, 15, 57, 84
16, 56576, Note_on_c, 15, 57, 0
16, 56832, Note_on_c, 15, 55, 86
16, 57088, Note_on_c, 15, 55, 0
16, 57344, Note_on_c, 15, 54, 87
16, 57600, Note_on_c, 15, 54, 0
16, 57856, Note_on_c, 15, 52, 89
16, 58112, Note_on_c, 15, 52, 0
16, 58368, Note_on_c, 15, 54, 90
16, 58624, Note_on_c, 15, 54, 0
16, 58880, Note_on_c, 15, 50, 92
16, 59136, Note_on_c, 15, 50, 0
16, 59392, Note_on_c, 15, 57, 93
16, 60416, Note_on_c, 15, 57, 0
16, 60928, Note_on_c, 15, 52, 78
16, 61184, Note_on_c, 15, 52, 0
16, 61440, Note_on_c, 15, 49, 78
16, 61696, Note_on_c, 15, 49, 0
16, 61952, Note_on_c, 15, 52, 78
16, 62208, Note_on_c, 15, 52, 0
16, 62464, Note_on_c, 15, 45, 78
16, 62720, Note_on_c, 15, 45, 0
16, 62976, Note_on_c, 15, 52, 78
16, 63232, Note_on_c, 15, 52, 0
16, 63488, Note_on_c, 15, 57, 78
16, 63744, Note_on_c, 15, 57, 0
16, 64000, Note_on_c, 15, 59, 78
16, 64256, Note_on_c, 15, 59, 0
16, 64512, Note_on_c, 15, 57, 78
16, 64768, Note_on_c, 15, 57, 0
16, 65024, Note_on_c, 15, 56, 78
16, 65280, Note_on_c, 15, 56, 0
16, 65536, Note_on_c, 15, 54, 78
16, 65792, Note_on_c, 15, 54, 0
16, 66048, Note_on_c, 15, 42, 78
16, 66304, Note_on_c, 15, 42, 0
16, 66560, Note_on_c, 15, 54, 78
16, 66816, Note_on_c, 15, 54, 0
16, 67072, Note_on_c, 15, 57, 78
16, 67328, Note_on_c, 15, 57, 0
16, 67584, Note_on_c, 15, 50, 78
16, 67840, Note_on_c, 15, 50, 0
16, 68096, Note_on_c, 15, 54, 78
16, 68352, Note_on_c, 15, 54, 0
16, 68608, Note_on_c, 15, 47, 78
16, 68864, Note_on_c, 15, 47, 0
16, 69120, Note_on_c, 15, 50, 78
16, 69376, Note_on_c, 15, 50, 0
16, 69632, Note_on_c, 15, 49, 78
16, 69888, Note_on_c, 15, 49, 0
16, 70144, Note_on_c, 15, 47, 78
16, 70400, Note_on_c, 15, 47, 0
16, 70656, Note_on_c, 15, 49, 78
16, 70912, Note_on_c, 15, 49, 0
16, 71168, Note_on_c, 15, 50, 78
16, 71424, Note_on_c, 15, 50, 0
16, 71680, Note_on_c, 15, 52, 73
16, 71936, Note_on_c, 15, 52, 0
16, 72192, Note_on_c, 15, 56, 69
16, 72448, Note_on_c, 15, 56, 0
16, 72448, Note_on_c, 15, 54, 67
16, 72704, Note_on_c, 15, 54, 0
16, 72704, Note_on_c, 15, 52, 65
16, 72960, Note_on_c, 15, 52, 0
16, 73216, Note_on_c, 15, 40, 60
16, 73472, Note_on_c, 15, 40, 0
16, 73728, Note_on_c, 15, 52, 37
16, 73984, Note_on_c, 15, 52, 0
16, 74240, Note_on_c, 15, 50, 37
16, 74496, Note_on_c, 15, 50, 0
16, 74752, Note_on_c, 15, 49, 37
16, 75008, Note_on_c, 15, 49, 0
16, 75264, Note_on_c, 15, 47, 37
16, 75520, Note_on_c, 15, 47, 0
16, 75776, Note_on_c, 15, 46, 38
16, 76032, Note_on_c, 15, 46, 0
16, 76288, Note_on_c, 15, 49, 38
16, 76544, Note_on_c, 15, 49, 0
16, 76800, Note_on_c, 15, 42, 38
16, 77056, Note_on_c, 15, 42, 0
16, 77312, Note_on_c, 15, 46, 38
16, 77568, Note_on_c, 15, 46, 0
16, 77824, Note_on_c, 15, 47, 39
16, 78080, Note_on_c, 15, 47, 0
16, 78336, Note_on_c, 15, 45, 39
16, 78592, Note_on_c, 15, 45, 0
16, 78848, Note_on_c, 15, 44, 39
16, 79104, Note_on_c, 15, 44, 0
16, 79360, Note_on_c, 15, 47, 39
16, 79616, Note_on_c, 15, 47, 0
16, 79872, Note_on_c, 15, 40, 40
16, 80128, Note_on_c, 15, 40, 0
16, 80384, Note_on_c, 15, 44, 40
16, 80640, Note_on_c, 15, 44, 0
16, 80896, Note_on_c, 15, 45, 40
16, 81152, Note_on_c, 15, 45, 0
16, 81408, Note_on_c, 15, 44, 40
16, 81664, Note_on_c, 15, 44, 0
16, 81920, Note_on_c, 15, 42, 41
16, 82176, Note_on_c, 15, 42, 0
16, 82432, Note_on_c, 15, 45, 41
16, 82688, Note_on_c, 15, 45, 0
16, 82944, Note_on_c, 15, 37, 41
16, 83200, Note_on_c, 15, 37, 0
16, 83456, Note_on_c, 15, 40, 41
16, 83712, Note_on_c, 15, 40, 0
16, 83968, Note_on_c, 15, 39, 48
16, 84224, Note_on_c, 15, 39, 0
16, 84480, Note_on_c, 15, 39, 42
16, 84736, Note_on_c, 15, 39, 0
16, 84992, Note_on_c, 15, 39, 43
16, 85248, Note_on_c, 15, 39, 0
16, 85504, Note_on_c, 15, 39, 45
16, 85760, Note_on_c, 15, 39, 0
16, 86016, Note_on_c, 15, 39, 46
16, 86272, Note_on_c, 15, 39, 0
16, 86528, Note_on_c, 15, 39, 47
16, 86784, Note_on_c, 15, 39, 0
16, 87040, Note_on_c, 15, 40, 59
16, 87296, Note_on_c, 15, 40, 0
16, 87552, Note_on_c, 15, 40, 51
16, 87808, Note_on_c, 15, 40, 0
16, 88064, Note_on_c, 15, 40, 53
16, 88320, Note_on_c, 15, 40, 0
16, 88576, Note_on_c, 15, 40, 55
16, 88832, Note_on_c, 15, 40, 0
16, 89088, Note_on_c, 15, 40, 57
16, 89344, Note_on_c, 15, 40, 0
16, 89600, Note_on_c, 15, 40, 59
16, 89856, Note_on_c, 15, 40, 0
16, 90112, Note_on_c, 15, 41, 72
16, 90368, Note_on_c, 15, 41, 0
16, 90624, Note_on_c, 15, 41, 61
16, 90880, Note_on_c, 15, 41, 0
16, 91136, Note_on_c, 15, 41, 63
16, 91392, Note_on_c, 15, 41, 0
16, 91648, Note_on_c, 15, 41, 65
16, 91904, Note_on_c, 15, 41, 0
16, 92160, Note_on_c, 15, 41, 67
16, 92416, Note_on_c, 15, 41, 0
16, 92672, Note_on_c, 15, 41, 69
16, 92928, Note_on_c, 15, 41, 0
16, 93184, Note_on_c, 15, 42, 87
16, 93440, Note_on_c, 15, 42, 0
16, 93696, Note_on_c, 15, 42, 72
16, 93952, Note_on_c, 15, 42, 0
16, 94208, Note_on_c, 15, 42, 75
16, 94464, Note_on_c, 15, 42, 0
16, 94720, Note_on_c, 15, 42, 78
16, 94976, Note_on_c, 15, 42, 0
16, 95232, Note_on_c, 15, 42, 81
16, 95488, Note_on_c, 15, 42, 0
16, 95744, Note_on_c, 15, 42, 84
16, 96000, Note_on_c, 15, 42, 0
16, 96256, Note_on_c, 15, 47, 87
16, 96512, Note_on_c, 15, 47, 0
16, 96768, Note_on_c, 15, 56, 90
16, 97024, Note_on_c, 15, 56, 0
16, 97280, Note_on_c, 15, 57, 93
16, 97536, Note_on_c, 15, 57, 0
16, 97792, Note_on_c, 15, 47, 96
16, 98048, Note_on_c, 15, 47, 0
16, 98304, Note_on_c, 15, 49, 99
16, 98816, Note_on_c, 15, 49, 0
16, 98816, Note_on_c, 15, 52, 102
16, 99072, Note_on_c, 15, 52, 0
16, 99328, Note_on_c, 15, 54, 105
16, 99584, Note_on_c, 15, 54, 0
16, 99840, Note_on_c, 15, 52, 106
16, 100096, Note_on_c, 15, 52, 0
16, 100096, Note_on_c, 15, 50, 106
16, 100352, Note_on_c, 15, 50, 0
16, 100352, Note_on_c, 15, 49, 107
16, 100608, Note_on_c, 15, 49, 0
16, 100864, Note_on_c, 15, 50, 107
16, 101120, Note_on_c, 15, 50, 0
16, 101376, Note_on_c, 15, 52, 108
16, 101632, Note_on_c, 15, 52, 0
16, 101888, Note_on_c, 15, 40, 108
16, 102144, Note_on_c, 15, 40, 0
16, 102400, Note_on_c, 15, 45, 109
16, 103424, Note_on_c, 15, 45, 0
16, 103936, Note_on_c, 15, 45, 76
16, 104192, Note_on_c, 15, 45, 0
16, 104448, Note_on_c, 15, 49, 75
16, 104704, Note_on_c, 15, 49, 0
16, 104960, Note_on_c, 15, 52, 74
16, 105216, Note_on_c, 15, 52, 0
16, 105472, Note_on_c, 15, 57, 73
16, 105728, Note_on_c, 15, 57, 0
16, 105984, Note_on_c, 15, 56, 72
16, 106240, Note_on_c, 15, 56, 0
16, 106496, Note_on_c, 15, 54, 71
16, 106752, Note_on_c, 15, 54, 0
16, 107008, Note_on_c, 15, 50, 71
16, 107264, Note_on_c, 15, 50, 0
16, 107520, Note_on_c, 15, 52, 70
16, 107776, Note_on_c, 15, 52, 0
16, 108032, Note_on_c, 15, 40, 69
16, 108288, Note_on_c, 15, 40, 0
16, 108544, Note_on_c, 15, 45, 68
16, 108800, Note_on_c, 15, 45, 0
16, 109568, Note_on_c, 15, 57, 66
16, 109824, Note_on_c, 15, 57, 0
16, 110592, Note_on_c, 15, 45, 64
16, 110848, Note_on_c, 15, 45, 0
16, 111616, Note_on_c, 15, 50, 65
16, 111872, Note_on_c, 15, 50, 0
16, 112128, Note_on_c, 15, 49, 65
16, 112384, Note_on_c, 15, 49, 0
16, 112640, Note_on_c, 15, 47, 65
16, 112896, Note_on_c, 15, 47, 0
16, 113152, Note_on_c, 15, 44, 64
16, 113408, Note_on_c, 15, 44, 0
16, 113664, Note_on_c, 15, 45, 64
16, 113920, Note_on_c, 15, 45, 0
16, 114176, Note_on_c, 15, 42, 63
16, 114432, Note_on_c, 15, 42, 0
16, 114688, Note_on_c, 15, 40, 63
16, 115712, Note_on_c, 15, 40, 0
16, 116224, Note_on_c, 15, 52, 52
16, 116480, Note_on_c, 15, 52, 0
16, 116480, Note_on_c, 15, 50, 53
16, 116736, Note_on_c, 15, 50, 0
16, 116736, Note_on_c, 15, 49, 54
16, 116992, Note_on_c, 15, 49, 0
16, 117248, Note_on_c, 15, 52, 56
16, 117504, Note_on_c, 15, 52, 0
16, 117760, Note_on_c, 15, 45, 58
16, 118016, Note_on_c, 15, 45, 0
16, 118272, Note_on_c, 15, 52, 60
16, 118528, Note_on_c, 15, 52, 0
16, 118784, Note_on_c, 15, 57, 58
16, 119040, Note_on_c, 15, 57, 0
16, 119296, Note_on_c, 15, 54, 56
16, 119552, Note_on_c, 15, 54, 0
16, 119808, Note_on_c, 15, 49, 55
16, 120064, Note_on_c, 15, 49, 0
16, 120320, Note_on_c, 15, 50, 53
16, 120576, Note_on_c, 15, 50, 0
16, 120832, Note_on_c, 15, 52, 51
16, 121088, Note_on_c, 15, 52, 0
16, 121344, Note_on_c, 15, 47, 50
16, 121600, Note_on_c, 15, 47, 0
16, 121856, Note_on_c, 15, 40, 48
16, 122112, Note_on_c, 15, 40, 0
16, 131584, Note_on_c, 15, 47, 90
16, 131840, Note_on_c, 15, 47, 0
16, 132096, Note_on_c, 15, 50, 93
16, 132352, Note_on_c, 15, 50, 0
16, 132608, Note_on_c, 15, 54, 96
16, 132864, Note_on_c, 15, 54, 0
16, 133120, Note_on_c, 15, 59, 98
16, 133376, Note_on_c, 15, 59, 0
16, 133632, Note_on_c, 15, 54, 99
16, 133888, Note_on_c, 15, 54, 0
16, 134144, Note_on_c, 15, 47, 96
16, 134400, Note_on_c, 15, 47, 0
16, 143872, Note_on_c, 15, 45, 47
16, 144128, Note_on_c, 15, 45, 0
16, 144384, Note_on_c, 15, 49, 49
16, 144640, Note_on_c, 15, 49, 0
16, 144896, Note_on_c, 15, 52, 51
16, 145152, Note_on_c, 15, 52, 0
16, 145408, Note_on_c, 15, 57, 54
16, 145664, Note_on_c, 15, 57, 0
16, 145920, Note_on_c, 15, 52, 56
16, 146176, Note_on_c, 15, 52, 0
16, 146432, Note_on_c, 15, 45, 56
16, 146688, Note_on_c, 15, 45, 0
16, 146944, Note_on_c, 15, 57, 56
16, 147200, Note_on_c, 15, 57, 0
16, 147200, Note_on_c, 15, 56, 56
16, 147456, Note_on_c, 15, 56, 0
16, 147456, Note_on_c, 15, 57, 56
16, 147712, Note_on_c, 15, 57, 0
16, 147968, Note_on_c, 15, 61, 56
16, 148224, Note_on_c, 15, 61, 0
16, 148224, Note_on_c, 15, 59, 56
16, 148480, Note_on_c, 15, 59, 0
16, 148480, Note_on_c, 15, 61, 56
16, 148736, Note_on_c, 15, 61, 0
16, 148992, Note_on_c, 15, 57, 56
16, 149248, Note_on_c, 15, 57, 0
16, 149504, Note_on_c, 15, 54, 56
16, 149760, Note_on_c, 15, 54, 0
16, 150016, Note_on_c, 15, 50, 56
16, 150272, Note_on_c, 15, 50, 0
16, 150528, Note_on_c, 15, 52, 56
16, 150784, Note_on_c, 15, 52, 0
16, 151040, Note_on_c, 15, 40, 56
16, 151296, Note_on_c, 15, 40, 0
16, 151552, Note_on_c, 15, 45, 56
16, 151808, Note_on_c, 15, 45, 0
16, 152064, Note_on_c, 15, 52, 56
16, 152320, Note_on_c, 15, 52, 0
16, 152576, Note_on_c, 15, 57, 56
16, 152832, Note_on_c, 15, 57, 0
16, 153088, Note_on_c, 15, 52, 56
16, 153344, Note_on_c, 15, 52, 0
16, 153600, Note_on_c, 15, 49, 56
16, 153856, Note_on_c, 15, 49, 0
16, 154112, Note_on_c, 15, 52, 56
16, 154368, Note_on_c, 15, 52, 0
16, 154624, Note_on_c, 15, 45, 56
16, 154880, Note_on_c, 15, 45, 0
16, 155136, Note_on_c, 15, 52, 56
16, 155392, Note_on_c, 15, 52, 0
16, 155648, Note_on_c, 15, 57, 56
16, 155904, Note_on_c, 15, 57, 0
16, 156160, Note_on_c, 15, 55, 56
16, 156416, Note_on_c, 15, 55, 0
16, 156672, Note_on_c, 15, 54, 56
16, 156928, Note_on_c, 15, 54, 0
16, 157184, Note_on_c, 15, 52, 56
16, 157440, Note_on_c, 15, 52, 0
16, 157696, Note_on_c, 15, 50, 56
16, 157952, Note_on_c, 15, 50, 0
16, 158208, Note_on_c, 15, 45, 56
16, 158464, Note_on_c, 15, 45, 0
16, 158720, Note_on_c, 15, 38, 56
16, 158976, Note_on_c, 15, 38, 0
16, 159232, Note_on_c, 15, 47, 56
16, 159488, Note_on_c, 15, 47, 0
16, 159744, Note_on_c, 15, 52, 56
16, 160000, Note_on_c, 15, 52, 0
16, 160256, Note_on_c, 15, 54, 56
16, 160512, Note_on_c, 15, 54, 0
16, 160768, Note_on_c, 15, 55, 56
16, 161024, Note_on_c, 15, 55, 0
16, 161280, Note_on_c, 15, 54, 56
16, 161536, Note_on_c, 15, 54, 0
16, 161792, Note_on_c, 15, 55, 56
16, 162048, Note_on_c, 15, 55, 0
16, 162304, Note_on_c, 15, 52, 56
16, 162560, Note_on_c, 15, 52, 0
16, 162816, Note_on_c, 15, 49, 56
16, 163072, Note_on_c, 15, 49, 0
16, 163328, Note_on_c, 15, 52, 56
16, 163584, Note_on_c, 15, 52, 0
16, 163840, Note_on_c, 15, 54, 56
16, 164096, Note_on_c, 15, 54, 0
16, 164352, Note_on_c, 15, 49, 56
16, 164608, Note_on_c, 15, 49, 0
16, 164864, Note_on_c, 15, 42, 56
16, 165120, Note_on_c, 15, 42, 0
16, 165376, Note_on_c, 15, 54, 56
16, 165632, Note_on_c, 15, 54, 0
16, 165888, Note_on_c, 15, 56, 56
16, 166144, Note_on_c, 15, 56, 0
16, 166400, Note_on_c, 15, 58, 56
16, 166656, Note_on_c, 15, 58, 0
16, 166912, Note_on_c, 15, 59, 56
16, 167168, Note_on_c, 15, 59, 0
16, 167424, Note_on_c, 15, 54, 56
16, 167680, Note_on_c, 15, 54, 0
16, 167936, Note_on_c, 15, 50, 56
16, 168192, Note_on_c, 15, 50, 0
16, 168448, Note_on_c, 15, 52, 56
16, 168704, Note_on_c, 15, 52, 0
16, 168960, Note_on_c, 15, 54, 56
16, 169472, Note_on_c, 15, 54, 0
16, 169472, Note_on_c, 15, 42, 56
16, 169728, Note_on_c, 15, 42, 0
16, 169984, Note_on_c, 15, 47, 56
16, 170240, Note_on_c, 15, 47, 0
16, 170496, Note_on_c, 15, 54, 57
16, 170752, Note_on_c, 15, 54, 0
16, 171008, Note_on_c, 15, 59, 58
16, 171264, Note_on_c, 15, 59, 0
16, 171520, Note_on_c, 15, 47, 58
16, 171776, Note_on_c, 15, 47, 0
16, 172032, Note_on_c, 15, 45, 59
16, 172288, Note_on_c, 15, 45, 0
16, 172544, Note_on_c, 15, 43, 59
16, 172800, Note_on_c, 15, 43, 0
16, 173056, Note_on_c, 15, 42, 60
16, 173312, Note_on_c, 15, 42, 0
16, 173568, Note_on_c, 15, 49, 60
16, 173824, Note_on_c, 15, 49, 0
16, 174080, Note_on_c, 15, 51, 64
16, 174336, Note_on_c, 15, 51, 0
16, 174592, Note_on_c, 15, 54, 69
16, 174848, Note_on_c, 15, 54, 0
16, 175104, Note_on_c, 15, 47, 73
16, 175360, Note_on_c, 15, 47, 0
16, 175616, Note_on_c, 15, 51, 78
16, 175872, Note_on_c, 15, 51, 0
16, 176128, Note_on_c, 15, 52, 82
16, 176384, Note_on_c, 15, 52, 0
16, 176640, Note_on_c, 15, 50, 84
16, 176896, Note_on_c, 15, 50, 0
16, 177152, Note_on_c, 15, 49, 85
16, 177408, Note_on_c, 15, 49, 0
16, 177664, Note_on_c, 15, 52, 87
16, 177920, Note_on_c, 15, 52, 0
16, 178176, Note_on_c, 15, 45, 88
16, 178432, Note_on_c, 15, 45, 0
16, 178688, Note_on_c, 15, 49, 89
16, 178944, Note_on_c, 15, 49, 0
16, 179200, Note_on_c, 15, 50, 90
16, 179456, Note_on_c, 15, 50, 0
16, 179712, Note_on_c, 15, 49, 91
16, 179968, Note_on_c, 15, 49, 0
16, 180224, Note_on_c, 15, 47, 93
16, 180480, Note_on_c, 15, 47, 0
16, 180736, Note_on_c, 15, 50, 94
16, 180992, Note_on_c, 15, 50, 0
16, 181248, Note_on_c, 15, 42, 95
16, 181504, Note_on_c, 15, 42, 0
16, 181760, Note_on_c, 15, 45, 96
16, 182016, Note_on_c, 15, 45, 0
16, 182272, Note_on_c, 15, 44, 83
16, 182528, Note_on_c, 15, 44, 0
16, 182784, Note_on_c, 15, 44, 45
16, 183040, Note_on_c, 15, 44, 0
16, 183296, Note_on_c, 15, 44, 48
16, 183552, Note_on_c, 15, 44, 0
16, 183808, Note_on_c, 15, 44, 51
16, 184064, Note_on_c, 15, 44, 0
16, 184320, Note_on_c, 15, 44, 53
16, 184576, Note_on_c, 15, 44, 0
16, 184832, Note_on_c, 15, 44, 56
16, 185088, Note_on_c, 15, 44, 0
16, 185344, Note_on_c, 15, 45, 68
16, 185600, Note_on_c, 15, 45, 0
16, 185856, Note_on_c, 15, 45, 60
16, 186112, Note_on_c, 15, 45, 0
16, 186368, Note_on_c, 15, 45, 62
16, 186624, Note_on_c, 15, 45, 0
16, 186880, Note_on_c, 15, 45, 64
16, 187136, Note_on_c, 15, 45, 0
16, 187392, Note_on_c, 15, 45, 66
16, 187648, Note_on_c, 15, 45, 0
16, 187904, Note_on_c, 15, 45, 68
16, 188160, Note_on_c, 15, 45, 0
16, 188416, Note_on_c, 15, 46, 82
16, 188672, Note_on_c, 15, 46, 0
16, 188928, Note_on_c, 15, 46, 72
16, 189184, Note_on_c, 15, 46, 0
16, 189440, Note_on_c, 15, 46, 75
16, 189696, Note_on_c, 15, 46, 0
16, 189952, Note_on_c, 15, 46, 77
16, 190208, Note_on_c, 15, 46, 0
16, 190464, Note_on_c, 15, 46, 79
16, 190720, Note_on_c, 15, 46, 0
16, 190976, Note_on_c, 15, 46, 81
16, 191232, Note_on_c, 15, 46, 0
16, 191488, Note_on_c, 15, 47, 96
16, 191744, Note_on_c, 15, 47, 0
16, 192000, Note_on_c, 15, 47, 86
16, 192256, Note_on_c, 15, 47, 0
16, 192512, Note_on_c, 15, 47, 88
16, 192768, Note_on_c, 15, 47, 0
16, 193024, Note_on_c, 15, 47, 90
16, 193280, Note_on_c, 15, 47, 0
16, 193536, Note_on_c, 15, 47, 92
16, 193792, Note_on_c, 15, 47, 0
16, 194048, Note_on_c, 15, 47, 94
16, 194304, Note_on_c, 15, 47, 0
16, 194560, Note_on_c, 15, 40, 101
16, 194816, Note_on_c, 15, 40, 0
16, 195072, Note_on_c, 15, 49, 94
16, 195328, Note_on_c, 15, 49, 0
16, 195584, Note_on_c, 15, 46, 95
16, 195840, Note_on_c, 15, 46, 0
16, 196096, Note_on_c, 15, 42, 96
16, 196352, Note_on_c, 15, 42, 0
16, 196608, Note_on_c, 15, 50, 97
16, 196864, Note_on_c, 15, 50, 0
16, 197120, Note_on_c, 15, 47, 98
16, 197376, Note_on_c, 15, 47, 0
16, 197632, Note_on_c, 15, 55, 99
16, 197888, Note_on_c, 15, 55, 0
16, 198144, Note_on_c, 15, 54, 101
16, 198400, Note_on_c, 15, 54, 0
16, 198400, Note_on_c, 15, 52, 101
16, 198656, Note_on_c, 15, 52, 0
16, 198656, Note_on_c, 15, 50, 102
16, 198912, Note_on_c, 15, 50, 0
16, 199168, Note_on_c, 15, 52, 103
16, 199424, Note_on_c, 15, 52, 0
16, 199680, Note_on_c, 15, 54, 104
16, 199936, Note_on_c, 15, 54, 0
16, 200192, Note_on_c, 15, 42, 105
16, 200448, Note_on_c, 15, 42, 0
16, 200704, Note_on_c, 15, 47, 106
16, 200960, Note_on_c, 15, 47, 0
16, 201216, Note_on_c, 15, 54, 99
16, 201472, Note_on_c, 15, 54, 0
16, 201472, Note_on_c, 15, 52, 99
16, 201728, Note_on_c, 15, 52, 0
16, 201728, Note_on_c, 15, 50, 98
16, 201984, Note_on_c, 15, 50, 0
16, 202240, Note_on_c, 15, 47, 97
16, 202496, Note_on_c, 15, 47, 0
16, 202752, Note_on_c, 15, 50, 95
16, 203008, Note_on_c, 15, 50, 0
16, 203264, Note_on_c, 15, 54, 94
16, 203520, Note_on_c, 15, 54, 0
16, 203776, Note_on_c, 15, 59, 92
16, 204032, Note_on_c, 15, 59, 0
16, 204288, Note_on_c, 15, 47, 91
16, 204544, Note_on_c, 15, 47, 0
16, 204800, Note_on_c, 15, 47, 90
16, 205056, Note_on_c, 15, 47, 0
16, 207360, Note_on_c, 15, 59, 63
16, 207616, Note_on_c, 15, 59, 0
16, 207616, Note_on_c, 15, 61, 65
16, 207872, Note_on_c, 15, 61, 0
16, 207872, Note_on_c, 15, 59, 67
16, 208128, Note_on_c, 15, 59, 0
16, 208128, Note_on_c, 15, 61, 69
16, 208384, Note_on_c, 15, 61, 0
16, 208384, Note_on_c, 15, 59, 70
16, 208640, Note_on_c, 15, 59, 0
16, 208640, Note_on_c, 15, 61, 72
16, 208896, Note_on_c, 15, 61, 0
16, 208896, Note_on_c, 15, 59, 74
16, 209152, Note_on_c, 15, 59, 0
16, 209152, Note_on_c, 15, 61, 76
16, 209408, Note_on_c, 15, 61, 0
16, 209408, Note_on_c, 15, 59, 78
16, 209664, Note_on_c, 15, 59, 0
16, 209664, Note_on_c, 15, 61, 79
16, 209920, Note_on_c, 15, 61, 0
16, 209920, Note_on_c, 15, 59, 81
16, 210176, Note_on_c, 15, 59, 0
16, 210432, Note_on_c, 15, 47, 88
16, 210688, Note_on_c, 15, 47, 0
16, 210944, Note_on_c, 15, 47, 88
16, 211200, Note_on_c, 15, 47, 0
16, 213504, Note_on_c, 15, 59, 58
16, 213760, Note_on_c, 15, 59, 0
16, 213760, Note_on_c, 15, 61, 61
16, 214016, Note_on_c, 15, 61, 0
16, 214016, Note_on_c, 15, 59, 64
16, 214272, Note_on_c, 15, 59, 0
16, 214272, Note_on_c, 15, 61, 67
16, 214528, Note_on_c, 15, 61, 0
16, 214528, Note_on_c, 15, 59, 70
16, 214784, Note_on_c, 15, 59, 0
16, 214784, Note_on_c, 15, 61, 73
16, 215040, Note_on_c, 15, 61, 0
16, 215040, Note_on_c, 15, 59, 76
16, 215296, Note_on_c, 15, 59, 0
16, 215296, Note_on_c, 15, 61, 79
16, 215552, Note_on_c, 15, 61, 0
16, 215552, Note_on_c, 15, 59, 82
16, 215808, Note_on_c, 15, 59, 0
16, 215808, Note_on_c, 15, 61, 86
16, 216064, Note_on_c, 15, 61, 0
16, 216064, Note_on_c, 15, 57, 86
16, 216320, Note_on_c, 15, 57, 0
16, 216320, Note_on_c, 15, 59, 87
16, 216576, Note_on_c, 15, 59, 0
16, 216576, Note_on_c, 15, 57, 88
16, 216832, Note_on_c, 15, 57, 0
16, 216832, Note_on_c, 15, 55, 89
16, 217088, Note_on_c, 15, 55, 0
16, 217088, Note_on_c, 15, 54, 89
16, 217344, Note_on_c, 15, 54, 0
16, 217344, Note_on_c, 15, 52, 90
16, 217600, Note_on_c, 15, 52, 0
16, 217600, Note_on_c, 15, 51, 91
16, 217856, Note_on_c, 15, 51, 0
16, 217856, Note_on_c, 15, 49, 92
16, 218112, Note_on_c, 15, 49, 0
16, 218112, Note_on_c, 15, 47, 92
16, 218368, Note_on_c, 15, 47, 0
16, 218624, Note_on_c, 15, 59, 88
16, 218880, Note_on_c, 15, 59, 0
16, 219136, Note_on_c, 15, 52, 88
16, 219392, Note_on_c, 15, 52, 0
16, 219648, Note_on_c, 15, 55, 89
16, 219904, Note_on_c, 15, 55, 0
16, 219904, Note_on_c, 15, 54, 89
16, 220160, Note_on_c, 15, 54, 0
16, 220160, Note_on_c, 15, 52, 89
16, 220416, Note_on_c, 15, 52, 0
16, 220672, Note_on_c, 15, 49, 90
16, 220928, Note_on_c, 15, 49, 0
16, 221184, Note_on_c, 15, 46, 90
16, 221440, Note_on_c, 15, 46, 0
16, 221696, Note_on_c, 15, 42, 90
16, 221952, Note_on_c, 15, 42, 0
16, 222208, Note_on_c, 15, 47, 91
16, 222464, Note_on_c, 15, 47, 0
16, 222720, Note_on_c, 15, 49, 91
16, 222976, Note_on_c, 15, 49, 0
16, 223232, Note_on_c, 15, 50, 92
16, 223488, Note_on_c, 15, 50, 0
16, 223744, Note_on_c, 15, 52, 92
16, 224000, Note_on_c, 15, 52, 0
16, 224256, Note_on_c, 15, 54, 93
16, 224512, Note_on_c, 15, 54, 0
16, 224768, Note_on_c, 15, 42, 93
16, 225024, Note_on_c, 15, 42, 0
16, 225280, Note_on_c, 15, 47, 93
16, 225536, Note_on_c, 15, 47, 0
16, 225792, Note_on_c, 15, 50, 42
16, 226048, Note_on_c, 15, 50, 0
16, 226304, Note_on_c, 15, 54, 44
16, 226560, Note_on_c, 15, 54, 0
16, 226816, Note_on_c, 15, 59, 46
16, 227072, Note_on_c, 15, 59, 0
16, 227328, Note_on_c, 15, 62, 47
16, 227584, Note_on_c, 15, 62, 0
16, 227584, Note_on_c, 15, 61, 48
16, 227840, Note_on_c, 15, 61, 0
16, 227840, Note_on_c, 15, 59, 49
16, 228096, Note_on_c, 15, 59, 0
16, 228096, Note_on_c, 15, 57, 50
16, 228352, Note_on_c, 15, 57, 0
16, 228352, Note_on_c, 15, 56, 51
16, 228608, Note_on_c, 15, 56, 0
16, 228864, Note_on_c, 15, 64, 52
16, 229120, Note_on_c, 15, 64, 0
16, 229376, Note_on_c, 15, 52, 50
16, 229632, Note_on_c, 15, 52, 0
16, 229888, Note_on_c, 15, 64, 49
16, 230144, Note_on_c, 15, 64, 0
16, 230400, Note_on_c, 15, 56, 48
16, 230656, Note_on_c, 15, 56, 0
16, 230912, Note_on_c, 15, 64, 46
16, 231168, Note_on_c, 15, 64, 0
16, 231424, Note_on_c, 15, 45, 45
16, 231680, Note_on_c, 15, 45, 0
16, 231936, Note_on_c, 15, 49, 44
16, 232192, Note_on_c, 15, 49, 0
16, 232448, Note_on_c, 15, 52, 42
16, 232704, Note_on_c, 15, 52, 0
16, 232960, Note_on_c, 15, 57, 43
16, 233216, Note_on_c, 15, 57, 0
16, 233472, Note_on_c, 15, 59, 44
16, 233728, Note_on_c, 15, 59, 0
16, 233728, Note_on_c, 15, 57, 44
16, 233984, Note_on_c, 15, 57, 0
16, 233984, Note_on_c, 15, 56, 45
16, 234240, Note_on_c, 15, 56, 0
16, 234240, Note_on_c, 15, 54, 45
16, 234496, Note_on_c, 15, 54, 0
16, 234496, Note_on_c, 15, 53, 46
16, 234752, Note_on_c, 15, 53, 0
16, 235008, Note_on_c, 15, 61, 47
16, 235264, Note_on_c, 15, 61, 0
16, 235520, Note_on_c, 15, 56, 48
16, 235776, Note_on_c, 15, 56, 0
16, 236032, Note_on_c, 15, 61, 49
16, 236288, Note_on_c, 15, 61, 0
16, 236544, Note_on_c, 15, 49, 50
16, 236800, Note_on_c, 15, 49, 0
16, 237056, Note_on_c, 15, 61, 51
16, 237312, Note_on_c, 15, 61, 0
16, 237568, Note_on_c, 15, 42, 52
16, 237824, Note_on_c, 15, 42, 0
16, 238080, Note_on_c, 15, 45, 54
16, 238336, Note_on_c, 15, 45, 0
16, 238592, Note_on_c, 15, 49, 53
16, 238848, Note_on_c, 15, 49, 0
16, 239104, Note_on_c, 15, 54, 53
16, 239360, Note_on_c, 15, 54, 0
16, 239616, Note_on_c, 15, 50, 53
16, 239872, Note_on_c, 15, 50, 0
16, 240128, Note_on_c, 15, 47, 53
16, 240384, Note_on_c, 15, 47, 0
16, 240640, Note_on_c, 15, 49, 53
16, 240896, Note_on_c, 15, 49, 0
16, 241152, Note_on_c, 15, 53, 53
16, 241408, Note_on_c, 15, 53, 0
16, 241664, Note_on_c, 15, 56, 53
16, 241920, Note_on_c, 15, 56, 0
16, 242176, Note_on_c, 15, 59, 53
16, 242432, Note_on_c, 15, 59, 0
16, 242688, Note_on_c, 15, 57, 53
16, 242944, Note_on_c, 15, 57, 0
16, 243200, Note_on_c, 15, 56, 53
16, 243456, Note_on_c, 15, 56, 0
16, 243712, Note_on_c, 15, 54, 52
16, 243968, Note_on_c, 15, 54, 0
16, 244224, Note_on_c, 15, 49, 52
16, 244480, Note_on_c, 15, 49, 0
16, 244736, Note_on_c, 15, 54, 52
16, 244992, Note_on_c, 15, 54, 0
16, 245248, Note_on_c, 15, 57, 52
16, 245504, Note_on_c, 15, 57, 0
16, 245760, Note_on_c, 15, 50, 52
16, 246016, Note_on_c, 15, 50, 0
16, 246272, Note_on_c, 15, 49, 52
16, 246528, Note_on_c, 15, 49, 0
16, 246784, Note_on_c, 15, 47, 52
16, 247040, Note_on_c, 15, 47, 0
16, 247296, Note_on_c, 15, 42, 52
16, 247552, Note_on_c, 15, 42, 0
16, 247808, Note_on_c, 15, 47, 52
16, 248064, Note_on_c, 15, 47, 0
16, 248320, Note_on_c, 15, 49, 52
16, 248576, Note_on_c, 15, 49, 0
16, 248576, Note_on_c, 15, 50, 51
16, 248832, Note_on_c, 15, 50, 0
16, 248832, Note_on_c, 15, 52, 51
16, 249088, Note_on_c, 15, 52, 0
16, 249088, Note_on_c, 15, 50, 50
16, 249344, Note_on_c, 15, 50, 0
16, 249344, Note_on_c, 15, 49, 49
16, 249600, Note_on_c, 15, 49, 0
16, 249600, Note_on_c, 15, 47, 49
16, 249856, Note_on_c, 15, 47, 0
16, 249856, Note_on_c, 15, 52, 48
16, 250112, Note_on_c, 15, 52, 0
16, 250368, Note_on_c, 15, 40, 46
16, 250624, Note_on_c, 15, 40, 0
16, 250880, Note_on_c, 15, 42, 45
16, 251136, Note_on_c, 15, 42, 0
16, 251392, Note_on_c, 15, 44, 44
16, 251648, Note_on_c, 15, 44, 0
16, 251904, Note_on_c, 15, 45, 42
16, 252160, Note_on_c, 15, 45, 0
16, 252416, Note_on_c, 15, 47, 42
16, 252672, Note_on_c, 15, 47, 0
16, 252672, Note_on_c, 15, 49, 44
16, 252928, Note_on_c, 15, 49, 0
16, 252928, Note_on_c, 15, 50, 46
16, 253184, Note_on_c, 15, 50, 0
16, 253184, Note_on_c, 15, 49, 48
16, 253440, Note_on_c, 15, 49, 0
16, 253440, Note_on_c, 15, 47, 50
16, 253696, Note_on_c, 15, 47, 0
16, 253696, Note_on_c, 15, 45, 50
16, 253952, Note_on_c, 15, 45, 0
16, 253952, Note_on_c, 15, 50, 49
16, 254208, Note_on_c, 15, 50, 0
16, 254464, Note_on_c, 15, 54, 48
16, 254720, Note_on_c, 15, 54, 0
16, 254976, Note_on_c, 15, 47, 46
16, 255232, Note_on_c, 15, 47, 0
16, 255488, Note_on_c, 15, 49, 44
16, 255744, Note_on_c, 15, 49, 0
16, 256000, Note_on_c, 15, 50, 43
16, 256256, Note_on_c, 15, 50, 0
16, 256512, Note_on_c, 15, 52, 42
16, 256768, Note_on_c, 15, 52, 0
16, 256768, Note_on_c, 15, 54, 43
16, 257024, Note_on_c, 15, 54, 0
16, 257024, Note_on_c, 15, 52, 44
16, 257280, Note_on_c, 15, 52, 0
16, 257280, Note_on_c, 15, 50, 45
16, 257536, Note_on_c, 15, 50, 0
16, 257536, Note_on_c, 15, 49, 46
16, 257792, Note_on_c, 15, 49, 0
16, 257792, Note_on_c, 15, 47, 48
16, 258048, Note_on_c, 15, 47, 0
16, 258048, Note_on_c, 15, 53, 49
16, 258304, Note_on_c, 15, 53, 0
16, 258560, Note_on_c, 15, 49, 51
16, 258816, Note_on_c, 15, 49, 0
16, 259072, Note_on_c, 15, 54, 64
16, 259328, Note_on_c, 15, 54, 0
16, 259584, Note_on_c, 15, 50, 53
16, 259840, Note_on_c, 15, 50, 0
16, 260096, Note_on_c, 15, 45, 53
16, 260352, Note_on_c, 15, 45, 0
16, 260608, Note_on_c, 15, 47, 53
16, 260864, Note_on_c, 15, 47, 0
16, 261120, Note_on_c, 15, 49, 53
16, 261376, Note_on_c, 15, 49, 0
16, 261632, Note_on_c, 15, 37, 53
16, 261888, Note_on_c, 15, 37, 0
16, 262144, Note_on_c, 15, 42, 53
16, 263168, Note_on_c, 15, 42, 0
16, 263680, Note_on_c, 15, 38, 96
16, 263936, Note_on_c, 15, 38, 0
16, 264192, Note_on_c, 15, 42, 98
16, 264448, Note_on_c, 15, 42, 0
16, 264704, Note_on_c, 15, 45, 100
16, 264960, Note_on_c, 15, 45, 0
16, 265216, Note_on_c, 15, 50, 102
16, 266240, Note_on_c, 15, 50, 0
16, 266752, Note_on_c, 15, 55, 99
16, 267008, Note_on_c, 15, 55, 0
16, 267264, Note_on_c, 15, 57, 99
16, 267520, Note_on_c, 15, 57, 0
16, 267776, Note_on_c, 15, 45, 99
16, 268032, Note_on_c, 15, 45, 0
16, 268288, Note_on_c, 15, 50, 99
16, 268544, Note_on_c, 15, 50, 0
16, 269312, Note_on_c, 15, 38, 99
16, 269568, Note_on_c, 15, 38, 0
16, 270336, Note_on_c, 15, 50, 99
16, 270592, Note_on_c, 15, 50, 0
16, 271360, Note_on_c, 15, 55, 99
16, 271616, Note_on_c, 15, 55, 0
16, 271872, Note_on_c, 15, 54, 99
16, 272128, Note_on_c, 15, 54, 0
16, 272384, Note_on_c, 15, 52, 99
16, 272640, Note_on_c, 15, 52, 0
16, 272896, Note_on_c, 15, 49, 99
16, 273152, Note_on_c, 15, 49, 0
16, 273408, Note_on_c, 15, 50, 99
16, 273664, Note_on_c, 15, 50, 0
16, 273920, Note_on_c, 15, 47, 99
16, 274176, Note_on_c, 15, 47, 0
16, 274432, Note_on_c, 15, 45, 99
16, 275456, Note_on_c, 15, 45, 0
16, 275968, Note_on_c, 15, 57, 94
16, 276224, Note_on_c, 15, 57, 0
16, 276224, Note_on_c, 15, 55, 94
16, 276480, Note_on_c, 15, 55, 0
16, 276480, Note_on_c, 15, 54, 95
16, 276736, Note_on_c, 15, 54, 0
16, 276992, Note_on_c, 15, 57, 92
16, 277248, Note_on_c, 15, 57, 0
16, 277504, Note_on_c, 15, 50, 91
16, 277760, Note_on_c, 15, 50, 0
16, 278016, Note_on_c, 15, 57, 90
16, 278272, Note_on_c, 15, 57, 0
16, 278528, Note_on_c, 15, 62, 88
16, 278784, Note_on_c, 15, 62, 0
16, 279040, Note_on_c, 15, 59, 89
16, 279296, Note_on_c, 15, 59, 0
16, 279552, Note_on_c, 15, 54, 91
16, 279808, Note_on_c, 15, 54, 0
16, 280064, Note_on_c, 15, 55, 92
16, 280320, Note_on_c, 15, 55, 0
16, 280576, Note_on_c, 15, 57, 93
16, 280832, Note_on_c, 15, 57, 0
16, 281088, Note_on_c, 15, 45, 66
16, 281344, Note_on_c, 15, 45, 0
16, 281344, Note_on_c, 15, 47, 64
16, 281600, Note_on_c, 15, 47, 0
16, 281600, Note_on_c, 15, 45, 62
16, 281856, Note_on_c, 15, 45, 0
16, 282112, Note_on_c, 15, 43, 58
16, 282368, Note_on_c, 15, 43, 0
16, 282624, Note_on_c, 15, 42, 54
16, 282880, Note_on_c, 15, 42, 0
16, 283136, Note_on_c, 15, 40, 50
16, 283392, Note_on_c, 15, 40, 0
16, 283648, Note_on_c, 15, 38, 46
16, 284672, Note_on_c, 15, 38, 0
16, 286720, Note_on_c, 15, 50, 53
16, 287744, Note_on_c, 15, 50, 0
16, 289792, Note_on_c, 15, 38, 65
16, 290816, Note_on_c, 15, 38, 0
16, 292864, Note_on_c, 15, 50, 78
16, 293888, Note_on_c, 15, 50, 0
16, 295936, Note_on_c, 15, 38, 90
16, 296960, Note_on_c, 15, 38, 0
16, 297472, Note_on_c, 15, 50, 56
16, 297728, Note_on_c, 15, 50, 0
16, 297984, Note_on_c, 15, 54, 62
16, 298240, Note_on_c, 15, 54, 0
16, 298496, Note_on_c, 15, 57, 68
16, 298752, Note_on_c, 15, 57, 0
16, 299008, Note_on_c, 15, 62, 74
16, 299264, Note_on_c, 15, 62, 0
16, 299520, Note_on_c, 15, 50, 79
16, 299776, Note_on_c, 15, 50, 0
16, 300032, Note_on_c, 15, 50, 80
16, 300288, Note_on_c, 15, 50, 0
16, 300544, Note_on_c, 15, 52, 81
16, 300800, Note_on_c, 15, 52, 0
16, 301056, Note_on_c, 15, 50, 83
16, 301312, Note_on_c, 15, 50, 0
16, 301568, Note_on_c, 15, 49, 84
16, 301824, Note_on_c, 15, 49, 0
16, 302080, Note_on_c, 15, 47, 86
16, 302336, Note_on_c, 15, 47, 0
16, 302592, Note_on_c, 15, 59, 87
16, 302848, Note_on_c, 15, 59, 0
16, 302848, Note_on_c, 15, 58, 88
16, 303104, Note_on_c, 15, 58, 0
16, 303104, Note_on_c, 15, 59, 89
16, 303360, Note_on_c, 15, 59, 0
16, 303616, Note_on_c, 15, 62, 90
16, 303872, Note_on_c, 15, 62, 0
16, 304128, Note_on_c, 15, 55, 92
16, 304384, Note_on_c, 15, 55, 0
16, 304640, Note_on_c, 15, 59, 93
16, 304896, Note_on_c, 15, 59, 0
16, 305152, Note_on_c, 15, 52, 94
16, 305408, Note_on_c, 15, 52, 0
16, 305664, Note_on_c, 15, 55, 96
16, 305920, Note_on_c, 15, 55, 0
16, 306176, Note_on_c, 15, 54, 97
16, 306432, Note_on_c, 15, 54, 0
16, 306688, Note_on_c, 15, 52, 99
16, 306944, Note_on_c, 15, 52, 0
16, 307200, Note_on_c, 15, 54, 100
16, 307456, Note_on_c, 15, 54, 0
16, 307712, Note_on_c, 15, 55, 102
16, 307968, Note_on_c, 15, 55, 0
16, 308224, Note_on_c, 15, 57, 103
16, 308480, Note_on_c, 15, 57, 0
16, 308736, Note_on_c, 15, 61, 104
16, 308992, Note_on_c, 15, 61, 0
16, 308992, Note_on_c, 15, 59, 105
16, 309248, Note_on_c, 15, 59, 0
16, 309248, Note_on_c, 15, 57, 106
16, 309504, Note_on_c, 15, 57, 0
16, 309760, Note_on_c, 15, 45, 107
16, 310016, Note_on_c, 15, 45, 0
16, 310272, Note_on_c, 15, 57, 109
16, 310528, Note_on_c, 15, 57, 0
16, 310784, Note_on_c, 15, 55, 110
16, 311040, Note_on_c, 15, 55, 0
16, 311296, Note_on_c, 15, 54, 109
16, 311552, Note_on_c, 15, 54, 0
16, 311808, Note_on_c, 15, 52, 107
16, 312064, Note_on_c, 15, 52, 0
16, 312320, Note_on_c, 15, 51, 106
16, 312576, Note_on_c, 15, 51, 0
16, 312832, Note_on_c, 15, 54, 105
16, 313088, Note_on_c, 15, 54, 0
16, 313344, Note_on_c, 15, 47, 104
16, 313600, Note_on_c, 15, 47, 0
16, 313856, Note_on_c, 15, 51, 103
16, 314112, Note_on_c, 15, 51, 0
16, 314368, Note_on_c, 15, 52, 102
16, 314624, Note_on_c, 15, 52, 0
16, 314880, Note_on_c, 15, 50, 101
16, 315136, Note_on_c, 15, 50, 0
16, 315392, Note_on_c, 15, 49, 100
16, 315648, Note_on_c, 15, 49, 0
16, 315904, Note_on_c, 15, 52, 99
16, 316160, Note_on_c, 15, 52, 0
16, 316416, Note_on_c, 15, 45, 98
16, 316672, Note_on_c, 15, 45, 0
16, 316928, Note_on_c, 15, 49, 96
16, 317184, Note_on_c, 15, 49, 0
16, 317440, Note_on_c, 15, 50, 95
16, 317696, Note_on_c, 15, 50, 0
16, 317952, Note_on_c, 15, 49, 94
16, 318208, Note_on_c, 15, 49, 0
16, 318464, Note_on_c, 15, 47, 93
16, 318720, Note_on_c, 15, 47, 0
16, 318976, Note_on_c, 15, 50, 92
16, 319232, Note_on_c, 15, 50, 0
16, 319488, Note_on_c, 15, 42, 91
16, 319744, Note_on_c, 15, 42, 0
16, 320000, Note_on_c, 15, 45, 90
16, 320256, Note_on_c, 15, 45, 0
16, 320512, Note_on_c, 15, 44, 89
16, 320768, Note_on_c, 15, 44, 0
16, 321024, Note_on_c, 15, 44, 46
16, 321280, Note_on_c, 15, 44, 0
16, 321536, Note_on_c, 15, 44, 48
16, 321792, Note_on_c, 15, 44, 0
16, 322048, Note_on_c, 15, 44, 50
16, 322304, Note_on_c, 15, 44, 0
16, 322560, Note_on_c, 15, 44, 53
16, 322816, Note_on_c, 15, 44, 0
16, 323072, Note_on_c, 15, 44, 55
16, 323328, Note_on_c, 15, 44, 0
16, 323584, Note_on_c, 15, 45, 68
16, 323840, Note_on_c, 15, 45, 0
16, 324096, Note_on_c, 15, 45, 60
16, 324352, Note_on_c, 15, 45, 0
16, 324608, Note_on_c, 15, 45, 62
16, 324864, Note_on_c, 15, 45, 0
16, 325120, Note_on_c, 15, 45, 64
16, 325376, Note_on_c, 15, 45, 0
16, 325632, Note_on_c, 15, 45, 67
16, 325888, Note_on_c, 15, 45, 0
16, 326144, Note_on_c, 15, 45, 69
16, 326400, Note_on_c, 15, 45, 0
16, 326656, Note_on_c, 15, 46, 78
16, 326912, Note_on_c, 15, 46, 0
16, 327168, Note_on_c, 15, 46, 74
16, 327424, Note_on_c, 15, 46, 0
16, 327680, Note_on_c, 15, 46, 76
16, 327936, Note_on_c, 15, 46, 0
16, 328192, Note_on_c, 15, 46, 78
16, 328448, Note_on_c, 15, 46, 0
16, 328704, Note_on_c, 15, 46, 81
16, 328960, Note_on_c, 15, 46, 0
16, 329216, Note_on_c, 15, 46, 83
16, 329472, Note_on_c, 15, 46, 0
16, 329728, Note_on_c, 15, 47, 95
16, 329984, Note_on_c, 15, 47, 0
16, 330240, Note_on_c, 15, 47, 88
16, 330496, Note_on_c, 15, 47, 0
16, 330752, Note_on_c, 15, 47, 90
16, 331008, Note_on_c, 15, 47, 0
16, 331264, Note_on_c, 15, 47, 92
16, 331520, Note_on_c, 15, 47, 0
16, 331776, Note_on_c, 15, 47, 95
16, 332032, Note_on_c, 15, 47, 0
16, 332288, Note_on_c, 15, 47, 97
16, 332544, Note_on_c, 15, 47, 0
16, 332800, Note_on_c, 15, 40, 100
16, 333056, Note_on_c, 15, 40, 0
16, 333312, Note_on_c, 15, 49, 101
16, 333568, Note_on_c, 15, 49, 0
16, 333824, Note_on_c, 15, 50, 102
16, 334080, Note_on_c, 15, 50, 0
16, 334336, Note_on_c, 15, 52, 103
16, 334592, Note_on_c, 15, 52, 0
16, 334848, Note_on_c, 15, 54, 104
16, 335104, Note_on_c, 15, 54, 0
16, 335360, Note_on_c, 15, 57, 104
16, 335616, Note_on_c, 15, 57, 0
16, 335872, Note_on_c, 15, 59, 105
16, 336128, Note_on_c, 15, 59, 0
16, 336384, Note_on_c, 15, 57, 106
16, 336640, Note_on_c, 15, 57, 0
16, 336640, Note_on_c, 15, 55, 107
16, 336896, Note_on_c, 15, 55, 0
16, 336896, Note_on_c, 15, 54, 107
16, 337152, Note_on_c, 15, 54, 0
16, 337152, Note_on_c, 15, 52, 108
16, 337408, Note_on_c, 15, 52, 0
16, 337408, Note_on_c, 15, 54, 108
16, 337664, Note_on_c, 15, 54, 0
16, 337664, Note_on_c, 15, 55, 108
16, 337920, Note_on_c, 15, 55, 0
16, 337920, Note_on_c, 15, 57, 109
16, 338432, Note_on_c, 15, 57, 0
16, 338432, Note_on_c, 15, 45, 110
16, 338688, Note_on_c, 15, 45, 0
16, 338944, Note_on_c, 15, 38, 111
16, 339968, Note_on_c, 15, 38, 0
16, 349696, Note_on_c, 15, 52, 56
16, 349952, Note_on_c, 15, 52, 0
16, 350208, Note_on_c, 15, 55, 60
16, 350464, Note_on_c, 15, 55, 0
16, 350720, Note_on_c, 15, 59, 65
16, 350976, Note_on_c, 15, 59, 0
16, 351232, Note_on_c, 15, 64, 69
16, 351488, Note_on_c, 15, 64, 0
16, 351744, Note_on_c, 15, 52, 69
16, 352000, Note_on_c, 15, 52, 0
16, 352256, Note_on_c, 15, 52, 66
16, 352512, Note_on_c, 15, 52, 0
16, 361984, Note_on_c, 15, 50, 61
16, 362240, Note_on_c, 15, 50, 0
16, 362496, Note_on_c, 15, 54, 66
16, 362752, Note_on_c, 15, 54, 0
16, 363008, Note_on_c, 15, 57, 70
16, 363264, Note_on_c, 15, 57, 0
16, 363520, Note_on_c, 15, 62, 75
16, 363776, Note_on_c, 15, 62, 0
16, 364032, Note_on_c, 15, 50, 71
16, 364288, Note_on_c, 15, 50, 0
16, 364544, Note_on_c, 15, 50, 66
16, 364800, Note_on_c, 15, 50, 0
16, 365056, Note_on_c, 15, 45, 61
16, 365312, Note_on_c, 15, 45, 0
16, 365568, Note_on_c, 15, 42, 55
16, 365824, Note_on_c, 15, 42, 0
16, 366080, Note_on_c, 15, 45, 55
16, 366336, Note_on_c, 15, 45, 0
16, 366592, Note_on_c, 15, 38, 55
16, 366848, Note_on_c, 15, 38, 0
16, 367104, Note_on_c, 15, 45, 55
16, 367360, Note_on_c, 15, 45, 0
16, 367616, Note_on_c, 15, 50, 54
16, 367872, Note_on_c, 15, 50, 0
16, 368128, Note_on_c, 15, 52, 54
16, 368384, Note_on_c, 15, 52, 0
16, 368640, Note_on_c, 15, 50, 54
16, 368896, Note_on_c, 15, 50, 0
16, 369152, Note_on_c, 15, 49, 54
16, 369408, Note_on_c, 15, 49, 0
16, 369664, Note_on_c, 15, 47, 54
16, 369920, Note_on_c, 15, 47, 0
16, 370176, Note_on_c, 15, 50, 54
16, 370432, Note_on_c, 15, 50, 0
16, 370688, Note_on_c, 15, 54, 54
16, 370944, Note_on_c, 15, 54, 0
16, 371200, Note_on_c, 15, 59, 54
16, 371456, Note_on_c, 15, 59, 0
16, 371712, Note_on_c, 15, 57, 54
16, 371968, Note_on_c, 15, 57, 0
16, 372224, Note_on_c, 15, 55, 54
16, 372480, Note_on_c, 15, 55, 0
16, 372736, Note_on_c, 15, 54, 54
16, 372992, Note_on_c, 15, 54, 0
16, 373248, Note_on_c, 15, 52, 54
16, 373504, Note_on_c, 15, 52, 0
16, 373760, Note_on_c, 15, 51, 54
16, 374016, Note_on_c, 15, 51, 0
16, 374272, Note_on_c, 15, 54, 54
16, 374528, Note_on_c, 15, 54, 0
16, 374784, Note_on_c, 15, 47, 54
16, 375040, Note_on_c, 15, 47, 0
16, 375296, Note_on_c, 15, 51, 54
16, 375552, Note_on_c, 15, 51, 0
16, 375808, Note_on_c, 15, 52, 54
16, 376064, Note_on_c, 15, 52, 0
16, 376320, Note_on_c, 15, 50, 54
16, 376576, Note_on_c, 15, 50, 0
16, 376832, Note_on_c, 15, 49, 54
16, 377088, Note_on_c, 15, 49, 0
16, 377344, Note_on_c, 15, 52, 54
16, 377600, Note_on_c, 15, 52, 0
16, 377856, Note_on_c, 15, 45, 54
16, 378112, Note_on_c, 15, 45, 0
16, 378368, Note_on_c, 15, 49, 54
16, 378624, Note_on_c, 15, 49, 0
16, 378880, Note_on_c, 15, 50, 54
16, 379136, Note_on_c, 15, 50, 0
16, 379392, Note_on_c, 15, 49, 54
16, 379648, Note_on_c, 15, 49, 0
16, 379904, Note_on_c, 15, 47, 54
16, 380160, Note_on_c, 15, 47, 0
16, 380416, Note_on_c, 15, 50, 54
16, 380672, Note_on_c, 15, 50, 0
16, 380928, Note_on_c, 15, 42, 54
16, 381184, Note_on_c, 15, 42, 0
16, 381440, Note_on_c, 15, 45, 54
16, 381696, Note_on_c, 15, 45, 0
16, 381952, Note_on_c, 15, 44, 56
16, 382208, Note_on_c, 15, 44, 0
16, 382464, Note_on_c, 15, 44, 44
16, 382720, Note_on_c, 15, 44, 0
16, 382976, Note_on_c, 15, 44, 46
16, 383232, Note_on_c, 15, 44, 0
16, 383488, Note_on_c, 15, 44, 48
16, 383744, Note_on_c, 15, 44, 0
16, 384000, Note_on_c, 15, 44, 50
16, 384256, Note_on_c, 15, 44, 0
16, 384512, Note_on_c, 15, 44, 52
16, 384768, Note_on_c, 15, 44, 0
16, 385024, Note_on_c, 15, 45, 60
16, 385280, Note_on_c, 15, 45, 0
16, 385536, Note_on_c, 15, 45, 56
16, 385792, Note_on_c, 15, 45, 0
16, 386048, Note_on_c, 15, 45, 59
16, 386304, Note_on_c, 15, 45, 0
16, 386560, Note_on_c, 15, 45, 61
16, 386816, Note_on_c, 15, 45, 0
16, 387072, Note_on_c, 15, 45, 63
16, 387328, Note_on_c, 15, 45, 0
16, 387584, Note_on_c, 15, 45, 65
16, 387840, Note_on_c, 15, 45, 0
16, 388096, Note_on_c, 15, 46, 72
16, 388352, Note_on_c, 15, 46, 0
16, 388608, Note_on_c, 15, 46, 69
16, 388864, Note_on_c, 15, 46, 0
16, 389120, Note_on_c, 15, 46, 72
16, 389376, Note_on_c, 15, 46, 0
16, 389632, Note_on_c, 15, 46, 74
16, 389888, Note_on_c, 15, 46, 0
16, 390144, Note_on_c, 15, 46, 76
16, 390400, Note_on_c, 15, 46, 0
16, 390656, Note_on_c, 15, 46, 78
16, 390912, Note_on_c, 15, 46, 0
16, 391168, Note_on_c, 15, 47, 90
16, 391424, Note_on_c, 15, 47, 0
16, 391680, Note_on_c, 15, 47, 82
16, 391936, Note_on_c, 15, 47, 0
16, 392192, Note_on_c, 15, 47, 84
16, 392448, Note_on_c, 15, 47, 0
16, 392704, Note_on_c, 15, 47, 87
16, 392960, Note_on_c, 15, 47, 0
16, 393216, Note_on_c, 15, 47, 89
16, 393472, Note_on_c, 15, 47, 0
16, 393728, Note_on_c, 15, 47, 91
16, 393984, Note_on_c, 15, 47, 0
16, 394240, Note_on_c, 15, 40, 103
16, 394496, Note_on_c, 15, 40, 0
16, 394752, Note_on_c, 15, 49, 104
16, 395008, Note_on_c, 15, 49, 0
16, 395264, Note_on_c, 15, 50, 105
16, 395520, Note_on_c, 15, 50, 0
16, 395776, Note_on_c, 15, 55, 107
16, 396032, Note_on_c, 15, 55, 0
16, 396288, Note_on_c, 15, 54, 108
16, 396544, Note_on_c, 15, 54, 0
16, 396800, Note_on_c, 15, 57, 109
16, 397056, Note_on_c, 15, 57, 0
16, 397312, Note_on_c, 15, 59, 110
16, 397568, Note_on_c, 15, 59, 0
16, 397824, Note_on_c, 15, 57, 111
16, 398080, Note_on_c, 15, 57, 0
16, 398080, Note_on_c, 15, 55, 112
16, 398336, Note_on_c, 15, 55, 0
16, 398336, Note_on_c, 15, 54, 113
16, 398592, Note_on_c, 15, 54, 0
16, 398848, Note_on_c, 15, 55, 114
16, 399104, Note_on_c, 15, 55, 0
16, 399360, Note_on_c, 15, 57, 115
16, 399616, Note_on_c, 15, 57, 0
16, 399872, Note_on_c, 15, 45, 116
16, 400128, Note_on_c, 15, 45, 0
16, 400384, Note_on_c, 15, 38, 118
16, 403456, Note_on_c, 15, 38, 0
16, 409600, End_track
17, 0, Start_track
17, 0, Title_t, "Oboe"
17, 0, Program_c, 3, 68
17, 0, Control_c, 3, 121, 127
17, 0, Control_c, 3, 91, 127
17, 0, Control_c, 3, 10, 80
17, 0, Control_c, 3, 1, 10
17, 2560, Note_on_c, 3, 69, 95
17, 2560, Note_on_c, 3, 66, 95
17, 2816, Note_on_c, 3, 69, 0
17, 2816, Note_on_c, 3, 66, 0
17, 3072, Note_on_c, 3, 74, 100
17, 3072, Note_on_c, 3, 69, 100
17, 3328, Note_on_c, 3, 74, 0
17, 3328, Note_on_c, 3, 69, 0
17, 3584, Note_on_c, 3, 76, 105
17, 3584, Note_on_c, 3, 73, 105
17, 3840, Note_on_c, 3, 76, 0
17, 3840, Note_on_c, 3, 73, 0
17, 4096, Note_on_c, 3, 78, 110
17, 4096, Note_on_c, 3, 74, 110
17, 4352, Note_on_c, 3, 78, 0
17, 4352, Note_on_c, 3, 74, 0
17, 4608, Note_on_c, 3, 79, 94
17, 4608, Note_on_c, 3, 76, 94
17, 4779, Note_on_c, 3, 79, 0
17, 4779, Note_on_c, 3, 78, 95
17, 4779, Note_on_c, 3, 76, 0
17, 4779, Note_on_c, 3, 74, 95
17, 4949, Note_on_c, 3, 78, 0
17, 4949, Note_on_c, 3, 76, 96
17, 4949, Note_on_c, 3, 74, 0
17, 4949, Note_on_c, 3, 73, 96
17, 5120, Note_on_c, 3, 76, 0
17, 5120, Note_on_c, 3, 78, 98
17, 5120, Note_on_c, 3, 73, 0
17, 5120, Note_on_c, 3, 74, 98
17, 5376, Note_on_c, 3, 78, 0
17, 5376, Note_on_c, 3, 74, 0
17, 5632, Note_on_c, 3, 83, 102
17, 5632, Note_on_c, 3, 79, 102
17, 5888, Note_on_c, 3, 83, 0
17, 5888, Note_on_c, 3, 79, 0
17, 6144, Note_on_c, 3, 81, 106
17, 6144, Note_on_c, 3, 78, 106
17, 6400, Note_on_c, 3, 81, 0
17, 6400, Note_on_c, 3, 78, 0
17, 6656, Note_on_c, 3, 79, 101
17, 6656, Note_on_c, 3, 76, 101
17, 6912, Note_on_c, 3, 79, 0
17, 6912, Note_on_c, 3, 76, 0
17, 7168, Note_on_c, 3, 78, 99
17, 7168, Note_on_c, 3, 74, 99
17, 7424, Note_on_c, 3, 78, 0
17, 7424, Note_on_c, 3, 76, 98
17, 7424, Note_on_c, 3, 74, 0
17, 7680, Note_on_c, 3, 76, 0
17, 7680, Note_on_c, 3, 74, 98
17, 7680, Note_on_c, 3, 69, 98
17, 7936, Note_on_c, 3, 74, 0
17, 7936, Note_on_c, 3, 76, 97
17, 7936, Note_on_c, 3, 69, 0
17, 8192, Note_on_c, 3, 76, 0
17, 8192, Note_on_c, 3, 78, 96
17, 8192, Note_on_c, 3, 74, 96
17, 8448, Note_on_c, 3, 78, 0
17, 8448, Note_on_c, 3, 79, 96
17, 8448, Note_on_c, 3, 74, 0
17, 8704, Note_on_c, 3, 79, 0
17, 8704, Note_on_c, 3, 81, 95
17, 8704, Note_on_c, 3, 78, 95
17, 8960, Note_on_c, 3, 81, 0
17, 8960, Note_on_c, 3, 83, 94
17, 8960, Note_on_c, 3, 78, 0
17, 8960, Note_on_c, 3, 76, 94
17, 9216, Note_on_c, 3, 83, 0
17, 9216, Note_on_c, 3, 81, 94
17, 9216, Note_on_c, 3, 76, 0
17, 9216, Note_on_c, 3, 78, 94
17, 9472, Note_on_c, 3, 81, 0
17, 9472, Note_on_c, 3, 79, 93
17, 9472, Note_on_c, 3, 78, 0
17, 9728, Note_on_c, 3, 79, 0
17, 9728, Note_on_c, 3, 78, 92
17, 9728, Note_on_c, 3, 74, 92
17, 9984, Note_on_c, 3, 78, 0
17, 9984, Note_on_c, 3, 76, 91
17, 9984, Note_on_c, 3, 74, 0
17, 10240, Note_on_c, 3, 76, 0
17, 10240, Note_on_c, 3, 74, 84
17, 10240, Note_on_c, 3, 71, 84
17, 10496, Note_on_c, 3, 74, 0
17, 10496, Note_on_c, 3, 71, 0
17, 10752, Note_on_c, 3, 76, 86
17, 10752, Note_on_c, 3, 73, 86
17, 11008, Note_on_c, 3, 76, 0
17, 11008, Note_on_c, 3, 78, 87
17, 11008, Note_on_c, 3, 73, 0
17, 11008, Note_on_c, 3, 74, 87
17, 11264, Note_on_c, 3, 78, 0
17, 11264, Note_on_c, 3, 79, 89
17, 11264, Note_on_c, 3, 74, 0
17, 11264, Note_on_c, 3, 76, 89
17, 11520, Note_on_c, 3, 79, 0
17, 11520, Note_on_c, 3, 76, 0
17, 11776, Note_on_c, 3, 81, 91
17, 11776, Note_on_c, 3, 76, 91
17, 12032, Note_on_c, 3, 81, 0
17, 12032, Note_on_c, 3, 76, 0
17, 12288, Note_on_c, 3, 79, 93
17, 12288, Note_on_c, 3, 69, 93
17, 12544, Note_on_c, 3, 79, 0
17, 12544, Note_on_c, 3, 78, 94
17, 12544, Note_on_c, 3, 69, 0
17, 12800, Note_on_c, 3, 78, 0
17, 12800, Note_on_c, 3, 76, 96
17, 12800, Note_on_c, 3, 71, 96
17, 13056, Note_on_c, 3, 76, 0
17, 13056, Note_on_c, 3, 74, 97
17, 13056, Note_on_c, 3, 71, 0
17, 13312, Note_on_c, 3, 74, 0
17, 13312, Note_on_c, 3, 76, 98
17, 13312, Note_on_c, 3, 73, 98
17, 13568, Note_on_c, 3, 76, 0
17, 13824, Note_on_c, 3, 69, 98
17, 14080, Note_on_c, 3, 69, 0
17, 14336, Note_on_c, 3, 73, 96
17, 14336, Note_on_c, 3, 73, 0
17, 14592, Note_on_c, 3, 73, 0
17, 14848, Note_on_c, 3, 76, 94
17, 14848, Note_on_c, 3, 73, 94
17, 15104, Note_on_c, 3, 76, 0
17, 15104, Note_on_c, 3, 73, 0
17, 15360, Note_on_c, 3, 81, 92
17, 15360, Note_on_c, 3, 74, 92
17, 15616, Note_on_c, 3, 81, 0
17, 15616, Note_on_c, 3, 79, 91
17, 15616, Note_on_c, 3, 74, 0
17, 15872, Note_on_c, 3, 79, 0
17, 15872, Note_on_c, 3, 78, 89
17, 15872, Note_on_c, 3, 73, 89
17, 16128, Note_on_c, 3, 78, 0
17, 16128, Note_on_c, 3, 76, 88
17, 16128, Note_on_c, 3, 73, 0
17, 16384, Note_on_c, 3, 76, 0
17, 16384, Note_on_c, 3, 78, 87
17, 16384, Note_on_c, 3, 74, 87
17, 16640, Note_on_c, 3, 78, 0
17, 16640, Note_on_c, 3, 74, 0
17, 16896, Note_on_c, 3, 79, 85
17, 16896, Note_on_c, 3, 76, 85
17, 17067, Note_on_c, 3, 79, 0
17, 17067, Note_on_c, 3, 78, 80
17, 17067, Note_on_c, 3, 76, 0
17, 17067, Note_on_c, 3, 74, 80
17, 17237, Note_on_c, 3, 78, 0
17, 17237, Note_on_c, 3, 76, 80
17, 17237, Note_on_c, 3, 74, 0
17, 17237, Note_on_c, 3, 73, 80
17, 17408, Note_on_c, 3, 76, 0
17, 17408, Note_on_c, 3, 78, 81
17, 17408, Note_on_c, 3, 73, 0
17, 17408, Note_on_c, 3, 74, 81
17, 17664, Note_on_c, 3, 78, 0
17, 17664, Note_on_c, 3, 74, 0
17, 17664, Note_on_c, 3, 76, 82
17, 17920, Note_on_c, 3, 79, 82
17, 17920, Note_on_c, 3, 76, 0
17, 17920, Note_on_c, 3, 74, 82
17, 18176, Note_on_c, 3, 79, 0
17, 18176, Note_on_c, 3, 74, 0
17, 18176, Note_on_c, 3, 76, 83
17, 18432, Note_on_c, 3, 81, 84
17, 18432, Note_on_c, 3, 76, 0
17, 18432, Note_on_c, 3, 74, 84
17, 18688, Note_on_c, 3, 81, 0
17, 18688, Note_on_c, 3, 74, 0
17, 18688, Note_on_c, 3, 76, 85
17, 18944, Note_on_c, 3, 83, 86
17, 18944, Note_on_c, 3, 76, 0
17, 18944, Note_on_c, 3, 74, 86
17, 19200, Note_on_c, 3, 83, 0
17, 19200, Note_on_c, 3, 74, 0
17, 19200, Note_on_c, 3, 76, 86
17, 19456, Note_on_c, 3, 76, 0
17, 19456, Note_on_c, 3, 76, 87
17, 19456, Note_on_c, 3, 73, 87
17, 19712, Note_on_c, 3, 76, 0
17, 19712, Note_on_c, 3, 81, 88
17, 19712, Note_on_c, 3, 73, 0
17, 19712, Note_on_c, 3, 71, 88
17, 19968, Note_on_c, 3, 81, 0
17, 19968, Note_on_c, 3, 80, 89
17, 19968, Note_on_c, 3, 71, 0
17, 19968, Note_on_c, 3, 73, 89
17, 20224, Note_on_c, 3, 80, 0
17, 20224, Note_on_c, 3, 78, 90
17, 20224, Note_on_c, 3, 73, 0
17, 20224, Note_on_c, 3, 74, 90
17, 20480, Note_on_c, 3, 78, 0
17, 20480, Note_on_c, 3, 76, 90
17, 20480, Note_on_c, 3, 74, 0
17, 20480, Note_on_c, 3, 76, 90
17, 20736, Note_on_c, 3, 76, 0
17, 20736, Note_on_c, 3, 74, 91
17, 20736, Note_on_c, 3, 76, 0
17, 20992, Note_on_c, 3, 74, 0
17, 20992, Note_on_c, 3, 73, 92
17, 20992, Note_on_c, 3, 81, 92
17, 21248, Note_on_c, 3, 73, 0
17, 21248, Note_on_c, 3, 74, 93
17, 21248, Note_on_c, 3, 81, 0
17, 21248, Note_on_c, 3, 80, 93
17, 21504, Note_on_c, 3, 74, 0
17, 21504, Note_on_c, 3, 76, 94
17, 21504, Note_on_c, 3, 80, 0
17, 21504, Note_on_c, 3, 81, 94
17, 21760, Note_on_c, 3, 76, 0
17, 21760, Note_on_c, 3, 78, 95
17, 21760, Note_on_c, 3, 81, 0
17, 22016, Note_on_c, 3, 78, 0
17, 22016, Note_on_c, 3, 76, 95
17, 22016, Note_on_c, 3, 76, 95
17, 22272, Note_on_c, 3, 76, 0
17, 22272, Note_on_c, 3, 78, 96
17, 22272, Note_on_c, 3, 76, 0
17, 22528, Note_on_c, 3, 78, 0
17, 22528, Note_on_c, 3, 76, 97
17, 22528, Note_on_c, 3, 69, 97
17, 22784, Note_on_c, 3, 76, 0
17, 22784, Note_on_c, 3, 74, 98
17, 22784, Note_on_c, 3, 69, 0
17, 23040, Note_on_c, 3, 74, 0
17, 23040, Note_on_c, 3, 73, 99
17, 23040, Note_on_c, 3, 69, 99
17, 23296, Note_on_c, 3, 73, 0
17, 23296, Note_on_c, 3, 71, 99
17, 23296, Note_on_c, 3, 69, 0
17, 23296, Note_on_c, 3, 71, 99
17, 23552, Note_on_c, 3, 71, 0
17, 23552, Note_on_c, 3, 69, 100
17, 23552, Note_on_c, 3, 71, 0
17, 23552, Note_on_c, 3, 73, 100
17, 23808, Note_on_c, 3, 69, 0
17, 23808, Note_on_c, 3, 73, 0
17, 24064, Note_on_c, 3, 74, 102
17, 24064, Note_on_c, 3, 66, 102
17, 24320, Note_on_c, 3, 74, 0
17, 24320, Note_on_c, 3, 66, 0
17, 24576, Note_on_c, 3, 74, 103
17, 24576, Note_on_c, 3, 68, 103
17, 24704, Note_on_c, 3, 74, 0
17, 24704, Note_on_c, 3, 73, 104
17, 24832, Note_on_c, 3, 73, 0
17, 24832, Note_on_c, 3, 74, 104
17, 24832, Note_on_c, 3, 68, 0
17, 24960, Note_on_c, 3, 74, 0
17, 24960, Note_on_c, 3, 73, 105
17, 25088, Note_on_c, 3, 73, 0
17, 25088, Note_on_c, 3, 71, 105
17, 25088, Note_on_c, 3, 64, 105
17, 25344, Note_on_c, 3, 71, 0
17, 25344, Note_on_c, 3, 69, 106
17, 25344, Note_on_c, 3, 64, 0
17, 25600, Note_on_c, 3, 69, 0
17, 25600, Note_on_c, 3, 69, 107
17, 25600, Note_on_c, 3, 64, 107
17, 26624, Note_on_c, 3, 69, 0
17, 26624, Note_on_c, 3, 64, 0
17, 42496, Note_on_c, 3, 69, 72
17, 42496, Note_on_c, 3, 66, 72
17, 42752, Note_on_c, 3, 69, 0
17, 42752, Note_on_c, 3, 66, 0
17, 43008, Note_on_c, 3, 74, 99
17, 43008, Note_on_c, 3, 69, 99
17, 43264, Note_on_c, 3, 74, 0
17, 43264, Note_on_c, 3, 69, 0
17, 43520, Note_on_c, 3, 76, 102
17, 43520, Note_on_c, 3, 73, 102
17, 43776, Note_on_c, 3, 76, 0
17, 43776, Note_on_c, 3, 73, 0
17, 44032, Note_on_c, 3, 78, 106
17, 44032, Note_on_c, 3, 74, 106
17, 44288, Note_on_c, 3, 78, 0
17, 44288, Note_on_c, 3, 74, 0
17, 44544, Note_on_c, 3, 79, 109
17, 44544, Note_on_c, 3, 76, 109
17, 44715, Note_on_c, 3, 79, 0
17, 44715, Note_on_c, 3, 78, 110
17, 44715, Note_on_c, 3, 76, 0
17, 44715, Note_on_c, 3, 74, 110
17, 44885, Note_on_c, 3, 78, 0
17, 44885, Note_on_c, 3, 76, 108
17, 44885, Note_on_c, 3, 74, 0
17, 44885, Note_on_c, 3, 73, 108
17, 45056, Note_on_c, 3, 76, 0
17, 45056, Note_on_c, 3, 78, 108
17, 45056, Note_on_c, 3, 73, 0
17, 45056, Note_on_c, 3, 74, 108
17, 45312, Note_on_c, 3, 78, 0
17, 45312, Note_on_c, 3, 74, 0
17, 45568, Note_on_c, 3, 83, 107
17, 45568, Note_on_c, 3, 74, 107
17, 45824, Note_on_c, 3, 83, 0
17, 45824, Note_on_c, 3, 74, 0
17, 46080, Note_on_c, 3, 81, 106
17, 46080, Note_on_c, 3, 74, 106
17, 46336, Note_on_c, 3, 81, 0
17, 46336, Note_on_c, 3, 74, 0
17, 46592, Note_on_c, 3, 79, 106
17, 46592, Note_on_c, 3, 73, 106
17, 46848, Note_on_c, 3, 79, 0
17, 46848, Note_on_c, 3, 73, 0
17, 47104, Note_on_c, 3, 78, 105
17, 47104, Note_on_c, 3, 74, 105
17, 47360, Note_on_c, 3, 78, 0
17, 47360, Note_on_c, 3, 74, 0
17, 48128, Note_on_c, 3, 74, 98
17, 48128, Note_on_c, 3, 69, 98
17, 48384, Note_on_c, 3, 74, 0
17, 48384, Note_on_c, 3, 69, 0
17, 49152, Note_on_c, 3, 78, 99
17, 49152, Note_on_c, 3, 74, 99
17, 49408, Note_on_c, 3, 78, 0
17, 49408, Note_on_c, 3, 74, 0
17, 50176, Note_on_c, 3, 81, 99
17, 50176, Note_on_c, 3, 78, 99
17, 50432, Note_on_c, 3, 81, 0
17, 50432, Note_on_c, 3, 78, 0
17, 53760, Note_on_c, 3, 83, 86
17, 53760, Note_on_c, 3, 74, 86
17, 54016, Note_on_c, 3, 83, 0
17, 54016, Note_on_c, 3, 81, 87
17, 54016, Note_on_c, 3, 74, 0
17, 54272, Note_on_c, 3, 81, 0
17, 54272, Note_on_c, 3, 83, 88
17, 54272, Note_on_c, 3, 79, 88
17, 54528, Note_on_c, 3, 83, 0
17, 54528, Note_on_c, 3, 79, 0
17, 54784, Note_on_c, 3, 79, 89
17, 54784, Note_on_c, 3, 74, 89
17, 55040, Note_on_c, 3, 79, 0
17, 55040, Note_on_c, 3, 78, 90
17, 55040, Note_on_c, 3, 74, 0
17, 55296, Note_on_c, 3, 78, 0
17, 55296, Note_on_c, 3, 79, 91
17, 55296, Note_on_c, 3, 76, 91
17, 55552, Note_on_c, 3, 79, 0
17, 55552, Note_on_c, 3, 76, 0
17, 55808, Note_on_c, 3, 76, 93
17, 55808, Note_on_c, 3, 71, 93
17, 56064, Note_on_c, 3, 76, 0
17, 56064, Note_on_c, 3, 71, 0
17, 56320, Note_on_c, 3, 73, 95
17, 56320, Note_on_c, 3, 69, 95
17, 56576, Note_on_c, 3, 73, 0
17, 56576, Note_on_c, 3, 69, 95
17, 56832, Note_on_c, 3, 69, 0
17, 56832, Note_on_c, 3, 71, 96
17, 57088, Note_on_c, 3, 71, 0
17, 57088, Note_on_c, 3, 73, 97
17, 57344, Note_on_c, 3, 73, 0
17, 57344, Note_on_c, 3, 74, 98
17, 57600, Note_on_c, 3, 74, 0
17, 57600, Note_on_c, 3, 76, 99
17, 57856, Note_on_c, 3, 76, 0
17, 57856, Note_on_c, 3, 78, 100
17, 57856, Note_on_c, 3, 69, 0
17, 57856, Note_on_c, 3, 76, 100
17, 58112, Note_on_c, 3, 78, 0
17, 58112, Note_on_c, 3, 79, 101
17, 58112, Note_on_c, 3, 76, 0
17, 58368, Note_on_c, 3, 79, 0
17, 58368, Note_on_c, 3, 81, 101
17, 58368, Note_on_c, 3, 69, 101
17, 58624, Note_on_c, 3, 81, 0
17, 58624, Note_on_c, 3, 69, 0
17, 58624, Note_on_c, 3, 67, 102
17, 58880, Note_on_c, 3, 79, 103
17, 58880, Note_on_c, 3, 67, 0
17, 58880, Note_on_c, 3, 69, 103
17, 59136, Note_on_c, 3, 79, 0
17, 59136, Note_on_c, 3, 78, 104
17, 59136, Note_on_c, 3, 69, 0
17, 59136, Note_on_c, 3, 71, 104
17, 59392, Note_on_c, 3, 78, 0
17, 59392, Note_on_c, 3, 71, 0
17, 59392, Note_on_c, 3, 76, 105
17, 59392, Note_on_c, 3, 73, 105
17, 59648, Note_on_c, 3, 76, 0
17, 59648, Note_on_c, 3, 73, 0
17, 60416, Note_on_c, 3, 73, 82
17, 60416, Note_on_c, 3, 69, 82
17, 60672, Note_on_c, 3, 73, 0
17, 60672, Note_on_c, 3, 69, 0
17, 61440, Note_on_c, 3, 76, 82
17, 61440, Note_on_c, 3, 73, 82
17, 61696, Note_on_c, 3, 76, 0
17, 61696, Note_on_c, 3, 73, 0
17, 62464, Note_on_c, 3, 81, 82
17, 62464, Note_on_c, 3, 76, 82
17, 62720, Note_on_c, 3, 81, 0
17, 62720, Note_on_c, 3, 76, 0
17, 65536, Note_on_c, 3, 78, 83
17, 65536, Note_on_c, 3, 73, 83
17, 65792, Note_on_c, 3, 78, 0
17, 65792, Note_on_c, 3, 73, 0
17, 66560, Note_on_c, 3, 81, 83
17, 66560, Note_on_c, 3, 78, 83
17, 66816, Note_on_c, 3, 81, 0
17, 66816, Note_on_c, 3, 78, 0
17, 67584, Note_on_c, 3, 78, 83
17, 67584, Note_on_c, 3, 73, 83
17, 67840, Note_on_c, 3, 78, 0
17, 67840, Note_on_c, 3, 73, 0
17, 68608, Note_on_c, 3, 74, 83
17, 68608, Note_on_c, 3, 66, 83
17, 68864, Note_on_c, 3, 74, 0
17, 68864, Note_on_c, 3, 66, 0
17, 73216, Note_on_c, 3, 71, 64
17, 73216, Note_on_c, 3, 68, 64
17, 73472, Note_on_c, 3, 71, 0
17, 73472, Note_on_c, 3, 68, 0
17, 73728, Note_on_c, 3, 73, 64
17, 73728, Note_on_c, 3, 70, 64
17, 73984, Note_on_c, 3, 73, 0
17, 73984, Note_on_c, 3, 70, 0
17, 74240, Note_on_c, 3, 74, 64
17, 74240, Note_on_c, 3, 71, 64
17, 74496, Note_on_c, 3, 74, 0
17, 74496, Note_on_c, 3, 71, 0
17, 74752, Note_on_c, 3, 76, 64
17, 74752, Note_on_c, 3, 73, 64
17, 75008, Note_on_c, 3, 76, 0
17, 75008, Note_on_c, 3, 73, 0
17, 76288, Note_on_c, 3, 76, 64
17, 76288, Note_on_c, 3, 73, 64
17, 76544, Note_on_c, 3, 76, 0
17, 76544, Note_on_c, 3, 74, 64
17, 76544, Note_on_c, 3, 73, 0
17, 76544, Note_on_c, 3, 71, 64
17, 76800, Note_on_c, 3, 74, 0
17, 76800, Note_on_c, 3, 76, 64
17, 76800, Note_on_c, 3, 71, 0
17, 76800, Note_on_c, 3, 73, 64
17, 77056, Note_on_c, 3, 76, 0
17, 77056, Note_on_c, 3, 73, 0
17, 77312, Note_on_c, 3, 78, 64
17, 77312, Note_on_c, 3, 74, 64
17, 77568, Note_on_c, 3, 78, 0
17, 77568, Note_on_c, 3, 76, 64
17, 77568, Note_on_c, 3, 74, 0
17, 77568, Note_on_c, 3, 73, 64
17, 77824, Note_on_c, 3, 76, 0
17, 77824, Note_on_c, 3, 73, 0
17, 77824, Note_on_c, 3, 74, 61
17, 77824, Note_on_c, 3, 71, 61
17, 78080, Note_on_c, 3, 74, 0
17, 78080, Note_on_c, 3, 71, 0
17, 79360, Note_on_c, 3, 74, 58
17, 79360, Note_on_c, 3, 71, 58
17, 79616, Note_on_c, 3, 74, 0
17, 79616, Note_on_c, 3, 73, 57
17, 79616, Note_on_c, 3, 71, 0
17, 79616, Note_on_c, 3, 69, 57
17, 79872, Note_on_c, 3, 73, 0
17, 79872, Note_on_c, 3, 74, 57
17, 79872, Note_on_c, 3, 69, 0
17, 79872, Note_on_c, 3, 71, 57
17, 80128, Note_on_c, 3, 74, 0
17, 80128, Note_on_c, 3, 71, 0
17, 80384, Note_on_c, 3, 76, 55
17, 80384, Note_on_c, 3, 73, 55
17, 80640, Note_on_c, 3, 76, 0
17, 80640, Note_on_c, 3, 74, 55
17, 80640, Note_on_c, 3, 73, 0
17, 80640, Note_on_c, 3, 71, 55
17, 80896, Note_on_c, 3, 74, 0
17, 80896, Note_on_c, 3, 71, 0
17, 80896, Note_on_c, 3, 73, 54
17, 80896, Note_on_c, 3, 69, 54
17, 81152, Note_on_c, 3, 73, 0
17, 81152, Note_on_c, 3, 69, 0
17, 82432, Note_on_c, 3, 73, 51
17, 82432, Note_on_c, 3, 69, 51
17, 82688, Note_on_c, 3, 73, 0
17, 82688, Note_on_c, 3, 71, 50
17, 82688, Note_on_c, 3, 69, 0
17, 82688, Note_on_c, 3, 68, 50
17, 82944, Note_on_c, 3, 71, 0
17, 82944, Note_on_c, 3, 73, 50
17, 82944, Note_on_c, 3, 68, 0
17, 82944, Note_on_c, 3, 69, 50
17, 83200, Note_on_c, 3, 73, 0
17, 83200, Note_on_c, 3, 69, 0
17, 83456, Note_on_c, 3, 74, 48
17, 83456, Note_on_c, 3, 69, 48
17, 83712, Note_on_c, 3, 74, 0
17, 83712, Note_on_c, 3, 73, 48
17, 83712, Note_on_c, 3, 69, 0
17, 83968, Note_on_c, 3, 73, 0
17, 83968, Note_on_c, 3, 71, 60
17, 84224, Note_on_c, 3, 71, 0
17, 85504, Note_on_c, 3, 71, 49
17, 85760, Note_on_c, 3, 71, 0
17, 85760, Note_on_c, 3, 69, 50
17, 86016, Note_on_c, 3, 69, 0
17, 86016, Note_on_c, 3, 71, 52
17, 86272, Note_on_c, 3, 71, 0
17, 86528, Note_on_c, 3, 71, 55
17, 86784, Note_on_c, 3, 71, 0
17, 86784, Note_on_c, 3, 73, 57
17, 87040, Note_on_c, 3, 73, 0
17, 87040, Note_on_c, 3, 74, 69
17, 87296, Note_on_c, 3, 74, 0
17, 88576, Note_on_c, 3, 74, 57
17, 88832, Note_on_c, 3, 74, 0
17, 88832, Note_on_c, 3, 73, 59
17, 89088, Note_on_c, 3, 73, 0
17, 89088, Note_on_c, 3, 74, 62
17, 89344, Note_on_c, 3, 74, 0
17, 89600, Note_on_c, 3, 71, 67
17, 89856, Note_on_c, 3, 71, 0
17, 90112, Note_on_c, 3, 73, 72
17, 90368, Note_on_c, 3, 73, 0
17, 91648, Note_on_c, 3, 73, 64
17, 91904, Note_on_c, 3, 73, 0
17, 91904, Note_on_c, 3, 71, 67
17, 92160, Note_on_c, 3, 71, 0
17, 92160, Note_on_c, 3, 73, 70
17, 92416, Note_on_c, 3, 73, 0
17, 92672, Note_on_c, 3, 73, 75
17, 92928, Note_on_c, 3, 73, 0
17, 92928, Note_on_c, 3, 74, 78
17, 93184, Note_on_c, 3, 74, 0
17, 93184, Note_on_c, 3, 76, 80
17, 93440, Note_on_c, 3, 76, 0
17, 94720, Note_on_c, 3, 76, 75
17, 94976, Note_on_c, 3, 76, 0
17, 94976, Note_on_c, 3, 74, 77
17, 95232, Note_on_c, 3, 74, 0
17, 95232, Note_on_c, 3, 76, 80
17, 95488, Note_on_c, 3, 76, 0
17, 95744, Note_on_c, 3, 73, 85
17, 96000, Note_on_c, 3, 73, 0
17, 96256, Note_on_c, 3, 74, 91
17, 96256, Note_on_c, 3, 71, 91
17, 96512, Note_on_c, 3, 74, 0
17, 96512, Note_on_c, 3, 71, 0
17, 96768, Note_on_c, 3, 76, 90
17, 96768, Note_on_c, 3, 71, 90
17, 97024, Note_on_c, 3, 76, 0
17, 97024, Note_on_c, 3, 74, 91
17, 97024, Note_on_c, 3, 71, 0
17, 97280, Note_on_c, 3, 74, 0
17, 97280, Note_on_c, 3, 73, 92
17, 97280, Note_on_c, 3, 69, 92
17, 97536, Note_on_c, 3, 73, 0
17, 97536, Note_on_c, 3, 69, 0
17, 97792, Note_on_c, 3, 78, 94
17, 97792, Note_on_c, 3, 68, 94
17, 98048, Note_on_c, 3, 78, 0
17, 98048, Note_on_c, 3, 68, 0
17, 98304, Note_on_c, 3, 76, 97
17, 98304, Note_on_c, 3, 69, 97
17, 98560, Note_on_c, 3, 76, 0
17, 98560, Note_on_c, 3, 74, 98
17, 98560, Note_on_c, 3, 69, 0
17, 98816, Note_on_c, 3, 74, 0
17, 98816, Note_on_c, 3, 73, 99
17, 98816, Note_on_c, 3, 64, 99
17, 99072, Note_on_c, 3, 73, 0
17, 99072, Note_on_c, 3, 71, 100
17, 99072, Note_on_c, 3, 64, 0
17, 99328, Note_on_c, 3, 71, 0
17, 99328, Note_on_c, 3, 69, 101
17, 99328, Note_on_c, 3, 69, 101
17, 99584, Note_on_c, 3, 69, 0
17, 99584, Note_on_c, 3, 69, 0
17, 103936, Note_on_c, 3, 64, 40
17, 103936, Note_on_c, 3, 64, 40
17, 104192, Note_on_c, 3, 64, 0
17, 104192, Note_on_c, 3, 64, 0
17, 104448, Note_on_c, 3, 69, 45
17, 104448, Note_on_c, 3, 64, 45
17, 104704, Note_on_c, 3, 69, 0
17, 104704, Note_on_c, 3, 64, 0
17, 104960, Note_on_c, 3, 71, 50
17, 104960, Note_on_c, 3, 68, 50
17, 105216, Note_on_c, 3, 71, 0
17, 105216, Note_on_c, 3, 68, 0
17, 105472, Note_on_c, 3, 73, 55
17, 105472, Note_on_c, 3, 69, 55
17, 105728, Note_on_c, 3, 73, 0
17, 105728, Note_on_c, 3, 69, 0
17, 105984, Note_on_c, 3, 74, 55
17, 105984, Note_on_c, 3, 71, 55
17, 106155, Note_on_c, 3, 74, 0
17, 106155, Note_on_c, 3, 73, 55
17, 106155, Note_on_c, 3, 71, 0
17, 106155, Note_on_c, 3, 69, 55
17, 106325, Note_on_c, 3, 73, 0
17, 106325, Note_on_c, 3, 71, 55
17, 106325, Note_on_c, 3, 69, 0
17, 106325, Note_on_c, 3, 68, 55
17, 106496, Note_on_c, 3, 71, 0
17, 106496, Note_on_c, 3, 73, 55
17, 106496, Note_on_c, 3, 68, 0
17, 106496, Note_on_c, 3, 69, 55
17, 106752, Note_on_c, 3, 73, 0
17, 106752, Note_on_c, 3, 69, 0
17, 107008, Note_on_c, 3, 78, 56
17, 107008, Note_on_c, 3, 74, 56
17, 107264, Note_on_c, 3, 78, 0
17, 107264, Note_on_c, 3, 74, 0
17, 107520, Note_on_c, 3, 76, 57
17, 107520, Note_on_c, 3, 73, 57
17, 107776, Note_on_c, 3, 76, 0
17, 107776, Note_on_c, 3, 73, 0
17, 108032, Note_on_c, 3, 74, 57
17, 108032, Note_on_c, 3, 71, 57
17, 108288, Note_on_c, 3, 74, 0
17, 108288, Note_on_c, 3, 71, 0
17, 108544, Note_on_c, 3, 73, 58
17, 108544, Note_on_c, 3, 69, 58
17, 108800, Note_on_c, 3, 73, 0
17, 108800, Note_on_c, 3, 69, 0
17, 109568, Note_on_c, 3, 76, 59
17, 109568, Note_on_c, 3, 73, 59
17, 109824, Note_on_c, 3, 76, 0
17, 109824, Note_on_c, 3, 73, 0
17, 110592, Note_on_c, 3, 73, 60
17, 110592, Note_on_c, 3, 69, 60
17, 110848, Note_on_c, 3, 73, 0
17, 110848, Note_on_c, 3, 69, 0
17, 111616, Note_on_c, 3, 69, 61
17, 111616, Note_on_c, 3, 66, 61
17, 111872, Note_on_c, 3, 69, 0
17, 111872, Note_on_c, 3, 66, 0
17, 112128, Note_on_c, 3, 71, 61
17, 112128, Note_on_c, 3, 68, 61
17, 112384, Note_on_c, 3, 71, 0
17, 112384, Note_on_c, 3, 73, 60
17, 112384, Note_on_c, 3, 68, 0
17, 112384, Note_on_c, 3, 69, 60
17, 112640, Note_on_c, 3, 73, 0
17, 112640, Note_on_c, 3, 74, 60
17, 112640, Note_on_c, 3, 69, 0
17, 112640, Note_on_c, 3, 71, 60
17, 112896, Note_on_c, 3, 74, 0
17, 112896, Note_on_c, 3, 71, 0
17, 113152, Note_on_c, 3, 76, 59
17, 113152, Note_on_c, 3, 71, 59
17, 113408, Note_on_c, 3, 76, 0
17, 113408, Note_on_c, 3, 71, 0
17, 113664, Note_on_c, 3, 74, 58
17, 113664, Note_on_c, 3, 64, 58
17, 113920, Note_on_c, 3, 74, 0
17, 113920, Note_on_c, 3, 73, 57
17, 113920, Note_on_c, 3, 64, 0
17, 114176, Note_on_c, 3, 73, 0
17, 114176, Note_on_c, 3, 71, 57
17, 114176, Note_on_c, 3, 66, 57
17, 114432, Note_on_c, 3, 71, 0
17, 114432, Note_on_c, 3, 69, 57
17, 114432, Note_on_c, 3, 66, 0
17, 114688, Note_on_c, 3, 69, 0
17, 114688, Note_on_c, 3, 71, 56
17, 114688, Note_on_c, 3, 68, 56
17, 114944, Note_on_c, 3, 71, 0
17, 115200, Note_on_c, 3, 64, 53
17, 115456, Note_on_c, 3, 64, 0
17, 115712, Note_on_c, 3, 68, 53
17, 115712, Note_on_c, 3, 68, 0
17, 115968, Note_on_c, 3, 68, 0
17, 116224, Note_on_c, 3, 71, 54
17, 116224, Note_on_c, 3, 68, 54
17, 116480, Note_on_c, 3, 71, 0
17, 116480, Note_on_c, 3, 68, 0
17, 116736, Note_on_c, 3, 76, 55
17, 116736, Note_on_c, 3, 73, 55
17, 116992, Note_on_c, 3, 76, 0
17, 116992, Note_on_c, 3, 74, 55
17, 116992, Note_on_c, 3, 73, 0
17, 116992, Note_on_c, 3, 71, 55
17, 117248, Note_on_c, 3, 74, 0
17, 117248, Note_on_c, 3, 73, 56
17, 117248, Note_on_c, 3, 71, 0
17, 117248, Note_on_c, 3, 69, 56
17, 117504, Note_on_c, 3, 73, 0
17, 117504, Note_on_c, 3, 71, 56
17, 117504, Note_on_c, 3, 69, 0
17, 117504, Note_on_c, 3, 68, 56
17, 117760, Note_on_c, 3, 71, 0
17, 117760, Note_on_c, 3, 68, 0
17, 117760, Note_on_c, 3, 73, 57
17, 117760, Note_on_c, 3, 69, 57
17, 118016, Note_on_c, 3, 73, 0
17, 118016, Note_on_c, 3, 69, 0
17, 118272, Note_on_c, 3, 74, 57
17, 118272, Note_on_c, 3, 71, 57
17, 118443, Note_on_c, 3, 74, 0
17, 118443, Note_on_c, 3, 73, 58
17, 118443, Note_on_c, 3, 71, 0
17, 118443, Note_on_c, 3, 69, 58
17, 118613, Note_on_c, 3, 73, 0
17, 118613, Note_on_c, 3, 71, 58
17, 118613, Note_on_c, 3, 69, 0
17, 118613, Note_on_c, 3, 68, 58
17, 118784, Note_on_c, 3, 71, 0
17, 118784, Note_on_c, 3, 73, 58
17, 118784, Note_on_c, 3, 68, 0
17, 118784, Note_on_c, 3, 69, 58
17, 119040, Note_on_c, 3, 73, 0
17, 119040, Note_on_c, 3, 69, 0
17, 119040, Note_on_c, 3, 71, 59
17, 119296, Note_on_c, 3, 74, 59
17, 119296, Note_on_c, 3, 71, 0
17, 119296, Note_on_c, 3, 69, 59
17, 119552, Note_on_c, 3, 74, 0
17, 119552, Note_on_c, 3, 69, 0
17, 119552, Note_on_c, 3, 71, 59
17, 119808, Note_on_c, 3, 76, 60
17, 119808, Note_on_c, 3, 71, 0
17, 119808, Note_on_c, 3, 69, 60
17, 120064, Note_on_c, 3, 76, 0
17, 120064, Note_on_c, 3, 69, 0
17, 120064, Note_on_c, 3, 71, 60
17, 120320, Note_on_c, 3, 78, 60
17, 120320, Note_on_c, 3, 71, 0
17, 120320, Note_on_c, 3, 69, 60
17, 120576, Note_on_c, 3, 78, 0
17, 120576, Note_on_c, 3, 69, 0
17, 120576, Note_on_c, 3, 71, 61
17, 120832, Note_on_c, 3, 71, 0
17, 120832, Note_on_c, 3, 71, 61
17, 120832, Note_on_c, 3, 68, 61
17, 121856, Note_on_c, 3, 71, 0
17, 121856, Note_on_c, 3, 68, 0
17, 122368, Note_on_c, 3, 71, 47
17, 122368, Note_on_c, 3, 68, 47
17, 122624, Note_on_c, 3, 71, 0
17, 122624, Note_on_c, 3, 68, 0
17, 122880, Note_on_c, 3, 73, 50
17, 122880, Note_on_c, 3, 70, 50
17, 123136, Note_on_c, 3, 73, 0
17, 123136, Note_on_c, 3, 70, 0
17, 123392, Note_on_c, 3, 74, 52
17, 123392, Note_on_c, 3, 71, 52
17, 123648, Note_on_c, 3, 74, 0
17, 123648, Note_on_c, 3, 71, 0
17, 123904, Note_on_c, 3, 76, 55
17, 123904, Note_on_c, 3, 73, 55
17, 124160, Note_on_c, 3, 76, 0
17, 124160, Note_on_c, 3, 73, 0
17, 124416, Note_on_c, 3, 78, 47
17, 124416, Note_on_c, 3, 74, 47
17, 124587, Note_on_c, 3, 78, 0
17, 124587, Note_on_c, 3, 76, 48
17, 124587, Note_on_c, 3, 74, 0
17, 124587, Note_on_c, 3, 73, 48
17, 124757, Note_on_c, 3, 76, 0
17, 124757, Note_on_c, 3, 74, 48
17, 124757, Note_on_c, 3, 73, 0
17, 124757, Note_on_c, 3, 71, 48
17, 124928, Note_on_c, 3, 74, 0
17, 124928, Note_on_c, 3, 76, 48
17, 124928, Note_on_c, 3, 71, 0
17, 124928, Note_on_c, 3, 73, 48
17, 125184, Note_on_c, 3, 76, 0
17, 125184, Note_on_c, 3, 73, 0
17, 125440, Note_on_c, 3, 79, 50
17, 125440, Note_on_c, 3, 76, 50
17, 125696, Note_on_c, 3, 79, 0
17, 125696, Note_on_c, 3, 76, 0
17, 125952, Note_on_c, 3, 78, 51
17, 125952, Note_on_c, 3, 74, 51
17, 126208, Note_on_c, 3, 78, 0
17, 126208, Note_on_c, 3, 74, 0
17, 126464, Note_on_c, 3, 76, 52
17, 126464, Note_on_c, 3, 73, 52
17, 126720, Note_on_c, 3, 76, 0
17, 126720, Note_on_c, 3, 73, 0
17, 126976, Note_on_c, 3, 74, 54
17, 126976, Note_on_c, 3, 71, 54
17, 127232, Note_on_c, 3, 74, 0
17, 127232, Note_on_c, 3, 71, 0
17, 127488, Note_on_c, 3, 74, 46
17, 127488, Note_on_c, 3, 71, 46
17, 127744, Note_on_c, 3, 74, 0
17, 127744, Note_on_c, 3, 73, 48
17, 127744, Note_on_c, 3, 71, 0
17, 127744, Note_on_c, 3, 70, 48
17, 128000, Note_on_c, 3, 73, 0
17, 128000, Note_on_c, 3, 74, 49
17, 128000, Note_on_c, 3, 70, 0
17, 128000, Note_on_c, 3, 71, 49
17, 128256, Note_on_c, 3, 74, 0
17, 128256, Note_on_c, 3, 71, 0
17, 128512, Note_on_c, 3, 74, 51
17, 128512, Note_on_c, 3, 71, 51
17, 128768, Note_on_c, 3, 74, 0
17, 128768, Note_on_c, 3, 73, 52
17, 128768, Note_on_c, 3, 71, 0
17, 128768, Note_on_c, 3, 70, 52
17, 129024, Note_on_c, 3, 73, 0
17, 129024, Note_on_c, 3, 76, 53
17, 129024, Note_on_c, 3, 70, 0
17, 129024, Note_on_c, 3, 73, 53
17, 129280, Note_on_c, 3, 76, 0
17, 129280, Note_on_c, 3, 73, 0
17, 129536, Note_on_c, 3, 74, 56
17, 129536, Note_on_c, 3, 71, 56
17, 129792, Note_on_c, 3, 74, 0
17, 129792, Note_on_c, 3, 73, 57
17, 129792, Note_on_c, 3, 71, 0
17, 129792, Note_on_c, 3, 70, 57
17, 130048, Note_on_c, 3, 73, 0
17, 130048, Note_on_c, 3, 70, 0
17, 130048, Note_on_c, 3, 74, 58
17, 130048, Note_on_c, 3, 71, 58
17, 130304, Note_on_c, 3, 74, 0
17, 130304, Note_on_c, 3, 73, 59
17, 130304, Note_on_c, 3, 71, 0
17, 130304, Note_on_c, 3, 70, 59
17, 130560, Note_on_c, 3, 73, 0
17, 130560, Note_on_c, 3, 71, 60
17, 130560, Note_on_c, 3, 70, 0
17, 130560, Note_on_c, 3, 71, 60
17, 130816, Note_on_c, 3, 71, 0
17, 130816, Note_on_c, 3, 73, 61
17, 130816, Note_on_c, 3, 71, 0
17, 130816, Note_on_c, 3, 73, 61
17, 131072, Note_on_c, 3, 73, 0
17, 131072, Note_on_c, 3, 74, 62
17, 131072, Note_on_c, 3, 73, 0
17, 131072, Note_on_c, 3, 74, 62
17, 131328, Note_on_c, 3, 74, 0
17, 131328, Note_on_c, 3, 76, 64
17, 131328, Note_on_c, 3, 74, 0
17, 131328, Note_on_c, 3, 76, 64
17, 131584, Note_on_c, 3, 76, 0
17, 131584, Note_on_c, 3, 78, 65
17, 131584, Note_on_c, 3, 76, 0
17, 131584, Note_on_c, 3, 78, 65
17, 131840, Note_on_c, 3, 78, 0
17, 131840, Note_on_c, 3, 79, 64
17, 131840, Note_on_c, 3, 78, 0
17, 131840, Note_on_c, 3, 79, 64
17, 132096, Note_on_c, 3, 79, 0
17, 132096, Note_on_c, 3, 78, 64
17, 132096, Note_on_c, 3, 79, 0
17, 132096, Note_on_c, 3, 78, 64
17, 132352, Note_on_c, 3, 78, 0
17, 132352, Note_on_c, 3, 76, 64
17, 132352, Note_on_c, 3, 78, 0
17, 132352, Note_on_c, 3, 76, 64
17, 132608, Note_on_c, 3, 76, 0
17, 132608, Note_on_c, 3, 74, 64
17, 132608, Note_on_c, 3, 76, 0
17, 132608, Note_on_c, 3, 74, 64
17, 132864, Note_on_c, 3, 74, 0
17, 132864, Note_on_c, 3, 73, 64
17, 132864, Note_on_c, 3, 74, 0
17, 132864, Note_on_c, 3, 73, 64
17, 133120, Note_on_c, 3, 73, 0
17, 133120, Note_on_c, 3, 73, 0
17, 133120, Note_on_c, 3, 74, 64
17, 133120, Note_on_c, 3, 74, 64
17, 133376, Note_on_c, 3, 74, 0
17, 133376, Note_on_c, 3, 76, 60
17, 133376, Note_on_c, 3, 74, 0
17, 133376, Note_on_c, 3, 76, 60
17, 133632, Note_on_c, 3, 76, 0
17, 133632, Note_on_c, 3, 74, 57
17, 133632, Note_on_c, 3, 76, 0
17, 133632, Note_on_c, 3, 74, 57
17, 133888, Note_on_c, 3, 74, 0
17, 133888, Note_on_c, 3, 73, 55
17, 133888, Note_on_c, 3, 74, 0
17, 133888, Note_on_c, 3, 73, 55
17, 134144, Note_on_c, 3, 73, 0
17, 134144, Note_on_c, 3, 71, 53
17, 134144, Note_on_c, 3, 73, 0
17, 134144, Note_on_c, 3, 71, 53
17, 134400, Note_on_c, 3, 71, 0
17, 134400, Note_on_c, 3, 66, 50
17, 134400, Note_on_c, 3, 71, 0
17, 134400, Note_on_c, 3, 66, 50
17, 134656, Note_on_c, 3, 66, 0
17, 134656, Note_on_c, 3, 68, 44
17, 134656, Note_on_c, 3, 66, 0
17, 134656, Note_on_c, 3, 68, 44
17, 134912, Note_on_c, 3, 68, 0
17, 134912, Note_on_c, 3, 70, 46
17, 134912, Note_on_c, 3, 68, 0
17, 134912, Note_on_c, 3, 70, 46
17, 135168, Note_on_c, 3, 70, 0
17, 135168, Note_on_c, 3, 71, 47
17, 135168, Note_on_c, 3, 70, 0
17, 135168, Note_on_c, 3, 71, 47
17, 135424, Note_on_c, 3, 71, 0
17, 135424, Note_on_c, 3, 73, 48
17, 135424, Note_on_c, 3, 71, 0
17, 135424, Note_on_c, 3, 73, 48
17, 135680, Note_on_c, 3, 73, 0
17, 135680, Note_on_c, 3, 74, 50
17, 135680, Note_on_c, 3, 73, 0
17, 135680, Note_on_c, 3, 74, 50
17, 135936, Note_on_c, 3, 74, 0
17, 135936, Note_on_c, 3, 76, 51
17, 135936, Note_on_c, 3, 74, 0
17, 135936, Note_on_c, 3, 76, 51
17, 136192, Note_on_c, 3, 76, 0
17, 136192, Note_on_c, 3, 76, 0
17, 136192, Note_on_c, 3, 74, 53
17, 136192, Note_on_c, 3, 74, 53
17, 136448, Note_on_c, 3, 74, 0
17, 136448, Note_on_c, 3, 73, 54
17, 136448, Note_on_c, 3, 74, 0
17, 136448, Note_on_c, 3, 73, 54
17, 136704, Note_on_c, 3, 73, 0
17, 136704, Note_on_c, 3, 71, 46
17, 136704, Note_on_c, 3, 73, 0
17, 136704, Note_on_c, 3, 71, 46
17, 136960, Note_on_c, 3, 71, 0
17, 136960, Note_on_c, 3, 73, 46
17, 136960, Note_on_c, 3, 71, 0
17, 136960, Note_on_c, 3, 73, 46
17, 137216, Note_on_c, 3, 73, 0
17, 137216, Note_on_c, 3, 74, 47
17, 137216, Note_on_c, 3, 73, 0
17, 137216, Note_on_c, 3, 74, 47
17, 137472, Note_on_c, 3, 74, 0
17, 137472, Note_on_c, 3, 76, 47
17, 137472, Note_on_c, 3, 74, 0
17, 137472, Note_on_c, 3, 76, 47
17, 137728, Note_on_c, 3, 76, 0
17, 137728, Note_on_c, 3, 78, 48
17, 137728, Note_on_c, 3, 76, 0
17, 137728, Note_on_c, 3, 78, 48
17, 137984, Note_on_c, 3, 78, 0
17, 137984, Note_on_c, 3, 78, 0
17, 138240, Note_on_c, 3, 76, 49
17, 138240, Note_on_c, 3, 76, 49
17, 138496, Note_on_c, 3, 76, 0
17, 138496, Note_on_c, 3, 76, 0
17, 138752, Note_on_c, 3, 74, 50
17, 138752, Note_on_c, 3, 74, 50
17, 139008, Note_on_c, 3, 74, 0
17, 139008, Note_on_c, 3, 74, 0
17, 139264, Note_on_c, 3, 73, 52
17, 139264, Note_on_c, 3, 69, 52
17, 139520, Note_on_c, 3, 73, 0
17, 139520, Note_on_c, 3, 69, 0
17, 139776, Note_on_c, 3, 73, 53
17, 139776, Note_on_c, 3, 69, 53
17, 140032, Note_on_c, 3, 73, 0
17, 140032, Note_on_c, 3, 71, 54
17, 140032, Note_on_c, 3, 69, 0
17, 140032, Note_on_c, 3, 68, 54
17, 140288, Note_on_c, 3, 71, 0
17, 140288, Note_on_c, 3, 73, 54
17, 140288, Note_on_c, 3, 68, 0
17, 140288, Note_on_c, 3, 69, 54
17, 140544, Note_on_c, 3, 73, 0
17, 140544, Note_on_c, 3, 69, 0
17, 140800, Note_on_c, 3, 73, 55
17, 140800, Note_on_c, 3, 69, 55
17, 141056, Note_on_c, 3, 73, 0
17, 141056, Note_on_c, 3, 71, 56
17, 141056, Note_on_c, 3, 69, 0
17, 141056, Note_on_c, 3, 68, 56
17, 141312, Note_on_c, 3, 71, 0
17, 141312, Note_on_c, 3, 74, 57
17, 141312, Note_on_c, 3, 68, 0
17, 141312, Note_on_c, 3, 71, 57
17, 141568, Note_on_c, 3, 74, 0
17, 141568, Note_on_c, 3, 71, 0
17, 141824, Note_on_c, 3, 73, 58
17, 141824, Note_on_c, 3, 69, 58
17, 142080, Note_on_c, 3, 73, 0
17, 142080, Note_on_c, 3, 71, 58
17, 142080, Note_on_c, 3, 69, 0
17, 142080, Note_on_c, 3, 68, 58
17, 142336, Note_on_c, 3, 71, 0
17, 142336, Note_on_c, 3, 68, 0
17, 142336, Note_on_c, 3, 73, 59
17, 142336, Note_on_c, 3, 69, 59
17, 142592, Note_on_c, 3, 73, 0
17, 142592, Note_on_c, 3, 71, 60
17, 142592, Note_on_c, 3, 69, 0
17, 142592, Note_on_c, 3, 68, 60
17, 142848, Note_on_c, 3, 71, 0
17, 142848, Note_on_c, 3, 69, 60
17, 142848, Note_on_c, 3, 68, 0
17, 142848, Note_on_c, 3, 69, 60
17, 143104, Note_on_c, 3, 69, 0
17, 143104, Note_on_c, 3, 71, 61
17, 143104, Note_on_c, 3, 69, 0
17, 143104, Note_on_c, 3, 71, 61
17, 143360, Note_on_c, 3, 71, 0
17, 143360, Note_on_c, 3, 73, 61
17, 143360, Note_on_c, 3, 71, 0
17, 143360, Note_on_c, 3, 73, 61
17, 143616, Note_on_c, 3, 73, 0
17, 143616, Note_on_c, 3, 74, 62
17, 143616, Note_on_c, 3, 73, 0
17, 143616, Note_on_c, 3, 74, 62
17, 143872, Note_on_c, 3, 74, 0
17, 143872, Note_on_c, 3, 76, 63
17, 143872, Note_on_c, 3, 74, 0
17, 143872, Note_on_c, 3, 76, 63
17, 144128, Note_on_c, 3, 76, 0
17, 144128, Note_on_c, 3, 78, 63
17, 144128, Note_on_c, 3, 76, 0
17, 144128, Note_on_c, 3, 78, 63
17, 144384, Note_on_c, 3, 78, 0
17, 144384, Note_on_c, 3, 76, 64
17, 144384, Note_on_c, 3, 78, 0
17, 144384, Note_on_c, 3, 76, 64
17, 144640, Note_on_c, 3, 76, 0
17, 144640, Note_on_c, 3, 74, 65
17, 144640, Note_on_c, 3, 76, 0
17, 144640, Note_on_c, 3, 74, 65
17, 144896, Note_on_c, 3, 74, 0
17, 144896, Note_on_c, 3, 73, 67
17, 144896, Note_on_c, 3, 74, 0
17, 144896, Note_on_c, 3, 73, 67
17, 145152, Note_on_c, 3, 73, 0
17, 145152, Note_on_c, 3, 71, 69
17, 145152, Note_on_c, 3, 73, 0
17, 145152, Note_on_c, 3, 71, 69
17, 145408, Note_on_c, 3, 71, 0
17, 145408, Note_on_c, 3, 71, 0
17, 145408, Note_on_c, 3, 73, 70
17, 145408, Note_on_c, 3, 73, 70
17, 145664, Note_on_c, 3, 73, 0
17, 145664, Note_on_c, 3, 74, 72
17, 145664, Note_on_c, 3, 73, 0
17, 145664, Note_on_c, 3, 74, 72
17, 145920, Note_on_c, 3, 74, 0
17, 145920, Note_on_c, 3, 73, 74
17, 145920, Note_on_c, 3, 74, 0
17, 145920, Note_on_c, 3, 73, 74
17, 146176, Note_on_c, 3, 73, 0
17, 146176, Note_on_c, 3, 71, 76
17, 146176, Note_on_c, 3, 73, 0
17, 146176, Note_on_c, 3, 71, 76
17, 146432, Note_on_c, 3, 71, 0
17, 146432, Note_on_c, 3, 69, 78
17, 146432, Note_on_c, 3, 71, 0
17, 146432, Note_on_c, 3, 69, 78
17, 146688, Note_on_c, 3, 69, 0
17, 146688, Note_on_c, 3, 69, 0
17, 146944, Note_on_c, 3, 73, 81
17, 146944, Note_on_c, 3, 69, 81
17, 147200, Note_on_c, 3, 73, 0
17, 147200, Note_on_c, 3, 71, 83
17, 147200, Note_on_c, 3, 69, 0
17, 147456, Note_on_c, 3, 71, 0
17, 147456, Note_on_c, 3, 73, 85
17, 147456, Note_on_c, 3, 73, 85
17, 147712, Note_on_c, 3, 73, 0
17, 147712, Note_on_c, 3, 73, 0
17, 147968, Note_on_c, 3, 76, 89
17, 147968, Note_on_c, 3, 68, 89
17, 148224, Note_on_c, 3, 76, 0
17, 148224, Note_on_c, 3, 74, 90
17, 148224, Note_on_c, 3, 68, 0
17, 148480, Note_on_c, 3, 74, 0
17, 148480, Note_on_c, 3, 76, 92
17, 148480, Note_on_c, 3, 69, 92
17, 148736, Note_on_c, 3, 76, 0
17, 148736, Note_on_c, 3, 74, 94
17, 148736, Note_on_c, 3, 69, 0
17, 148992, Note_on_c, 3, 74, 0
17, 148992, Note_on_c, 3, 73, 96
17, 148992, Note_on_c, 3, 69, 96
17, 149248, Note_on_c, 3, 73, 0
17, 149248, Note_on_c, 3, 71, 98
17, 149248, Note_on_c, 3, 69, 0
17, 149248, Note_on_c, 3, 71, 98
17, 149504, Note_on_c, 3, 71, 0
17, 149504, Note_on_c, 3, 69, 98
17, 149504, Note_on_c, 3, 71, 0
17, 149504, Note_on_c, 3, 73, 98
17, 149760, Note_on_c, 3, 69, 0
17, 149760, Note_on_c, 3, 73, 0
17, 150016, Note_on_c, 3, 74, 99
17, 150016, Note_on_c, 3, 66, 99
17, 150272, Note_on_c, 3, 74, 0
17, 150272, Note_on_c, 3, 66, 0
17, 150528, Note_on_c, 3, 73, 100
17, 150528, Note_on_c, 3, 68, 100
17, 150784, Note_on_c, 3, 73, 0
17, 150784, Note_on_c, 3, 68, 0
17, 151040, Note_on_c, 3, 71, 102
17, 151040, Note_on_c, 3, 64, 102
17, 151296, Note_on_c, 3, 71, 0
17, 151296, Note_on_c, 3, 69, 102
17, 151296, Note_on_c, 3, 64, 0
17, 151552, Note_on_c, 3, 69, 0
17, 151552, Note_on_c, 3, 69, 103
17, 151552, Note_on_c, 3, 64, 103
17, 153088, Note_on_c, 3, 69, 0
17, 153088, Note_on_c, 3, 64, 0
17, 162304, Note_on_c, 3, 79, 44
17, 162304, Note_on_c, 3, 76, 44
17, 162560, Note_on_c, 3, 79, 0
17, 162560, Note_on_c, 3, 78, 44
17, 162560, Note_on_c, 3, 76, 0
17, 162560, Note_on_c, 3, 74, 44
17, 162816, Note_on_c, 3, 78, 0
17, 162816, Note_on_c, 3, 79, 44
17, 162816, Note_on_c, 3, 74, 0
17, 162816, Note_on_c, 3, 76, 44
17, 163072, Note_on_c, 3, 79, 0
17, 163072, Note_on_c, 3, 76, 0
17, 163328, Note_on_c, 3, 76, 44
17, 163328, Note_on_c, 3, 73, 44
17, 163584, Note_on_c, 3, 76, 0
17, 163584, Note_on_c, 3, 74, 44
17, 163584, Note_on_c, 3, 73, 0
17, 163584, Note_on_c, 3, 71, 44
17, 163840, Note_on_c, 3, 74, 0
17, 163840, Note_on_c, 3, 71, 0
17, 163840, Note_on_c, 3, 76, 44
17, 163840, Note_on_c, 3, 73, 44
17, 164096, Note_on_c, 3, 76, 0
17, 164096, Note_on_c, 3, 73, 0
17, 164352, Note_on_c, 3, 73, 44
17, 164352, Note_on_c, 3, 70, 44
17, 164608, Note_on_c, 3, 73, 0
17, 164608, Note_on_c, 3, 71, 44
17, 164608, Note_on_c, 3, 70, 0
17, 164608, Note_on_c, 3, 68, 44
17, 164864, Note_on_c, 3, 71, 0
17, 164864, Note_on_c, 3, 73, 44
17, 164864, Note_on_c, 3, 68, 0
17, 164864, Note_on_c, 3, 70, 44
17, 165120, Note_on_c, 3, 73, 0
17, 165120, Note_on_c, 3, 70, 0
17, 171520, Note_on_c, 3, 71, 72
17, 171520, Note_on_c, 3, 71, 72
17, 171776, Note_on_c, 3, 71, 0
17, 171776, Note_on_c, 3, 73, 73
17, 171776, Note_on_c, 3, 71, 0
17, 171776, Note_on_c, 3, 70, 73
17, 172032, Note_on_c, 3, 73, 0
17, 172032, Note_on_c, 3, 74, 73
17, 172032, Note_on_c, 3, 70, 0
17, 172032, Note_on_c, 3, 71, 73
17, 172288, Note_on_c, 3, 74, 0
17, 172288, Note_on_c, 3, 76, 73
17, 172288, Note_on_c, 3, 71, 0
17, 172288, Note_on_c, 3, 73, 73
17, 172544, Note_on_c, 3, 76, 0
17, 172544, Note_on_c, 3, 78, 74
17, 172544, Note_on_c, 3, 73, 0
17, 172544, Note_on_c, 3, 74, 74
17, 172800, Note_on_c, 3, 78, 0
17, 172800, Note_on_c, 3, 79, 74
17, 172800, Note_on_c, 3, 74, 0
17, 172800, Note_on_c, 3, 76, 74
17, 173056, Note_on_c, 3, 79, 0
17, 173056, Note_on_c, 3, 76, 0
17, 173056, Note_on_c, 3, 81, 74
17, 173056, Note_on_c, 3, 78, 74
17, 173312, Note_on_c, 3, 81, 0
17, 173312, Note_on_c, 3, 78, 0
17, 174592, Note_on_c, 3, 81, 61
17, 174592, Note_on_c, 3, 78, 61
17, 174848, Note_on_c, 3, 81, 0
17, 174848, Note_on_c, 3, 79, 63
17, 174848, Note_on_c, 3, 78, 0
17, 174848, Note_on_c, 3, 76, 63
17, 175104, Note_on_c, 3, 79, 0
17, 175104, Note_on_c, 3, 81, 65
17, 175104, Note_on_c, 3, 76, 0
17, 175104, Note_on_c, 3, 78, 65
17, 175360, Note_on_c, 3, 81, 0
17, 175360, Note_on_c, 3, 78, 0
17, 175616, Note_on_c, 3, 83, 69
17, 175616, Note_on_c, 3, 79, 69
17, 175872, Note_on_c, 3, 83, 0
17, 175872, Note_on_c, 3, 81, 71
17, 175872, Note_on_c, 3, 79, 0
17, 175872, Note_on_c, 3, 78, 71
17, 176128, Note_on_c, 3, 81, 0
17, 176128, Note_on_c, 3, 78, 0
17, 176128, Note_on_c, 3, 79, 73
17, 176128, Note_on_c, 3, 76, 73
17, 176384, Note_on_c, 3, 79, 0
17, 176384, Note_on_c, 3, 76, 0
17, 177664, Note_on_c, 3, 79, 61
17, 177664, Note_on_c, 3, 76, 61
17, 177920, Note_on_c, 3, 79, 0
17, 177920, Note_on_c, 3, 78, 62
17, 177920, Note_on_c, 3, 76, 0
17, 177920, Note_on_c, 3, 74, 62
17, 178176, Note_on_c, 3, 78, 0
17, 178176, Note_on_c, 3, 79, 64
17, 178176, Note_on_c, 3, 74, 0
17, 178176, Note_on_c, 3, 76, 64
17, 178432, Note_on_c, 3, 79, 0
17, 178432, Note_on_c, 3, 76, 0
17, 178688, Note_on_c, 3, 81, 66
17, 178688, Note_on_c, 3, 78, 66
17, 178944, Note_on_c, 3, 81, 0
17, 178944, Note_on_c, 3, 79, 68
17, 178944, Note_on_c, 3, 78, 0
17, 178944, Note_on_c, 3, 76, 68
17, 179200, Note_on_c, 3, 79, 0
17, 179200, Note_on_c, 3, 76, 0
17, 179200, Note_on_c, 3, 78, 69
17, 179200, Note_on_c, 3, 74, 69
17, 179456, Note_on_c, 3, 78, 0
17, 179456, Note_on_c, 3, 74, 0
17, 180736, Note_on_c, 3, 78, 63
17, 180736, Note_on_c, 3, 74, 63
17, 180992, Note_on_c, 3, 78, 0
17, 180992, Note_on_c, 3, 76, 65
17, 180992, Note_on_c, 3, 74, 0
17, 180992, Note_on_c, 3, 73, 65
17, 181248, Note_on_c, 3, 76, 0
17, 181248, Note_on_c, 3, 78, 66
17, 181248, Note_on_c, 3, 73, 0
17, 181248, Note_on_c, 3, 74, 66
17, 181504, Note_on_c, 3, 78, 0
17, 181504, Note_on_c, 3, 74, 0
17, 181760, Note_on_c, 3, 79, 69
17, 181760, Note_on_c, 3, 74, 69
17, 182016, Note_on_c, 3, 79, 0
17, 182016, Note_on_c, 3, 78, 71
17, 182016, Note_on_c, 3, 74, 0
17, 182272, Note_on_c, 3, 78, 0
17, 182272, Note_on_c, 3, 76, 72
17, 182272, Note_on_c, 3, 71, 72
17, 182528, Note_on_c, 3, 76, 0
17, 182528, Note_on_c, 3, 71, 0
17, 186880, Note_on_c, 3, 64, 54
17, 186880, Note_on_c, 3, 64, 54
17, 187136, Note_on_c, 3, 64, 0
17, 187136, Note_on_c, 3, 64, 0
17, 187392, Note_on_c, 3, 69, 58
17, 187392, Note_on_c, 3, 69, 58
17, 187648, Note_on_c, 3, 69, 0
17, 187648, Note_on_c, 3, 69, 0
17, 187904, Note_on_c, 3, 71, 63
17, 187904, Note_on_c, 3, 71, 63
17, 188160, Note_on_c, 3, 71, 0
17, 188160, Note_on_c, 3, 71, 0
17, 188416, Note_on_c, 3, 73, 67
17, 188416, Note_on_c, 3, 73, 67
17, 188672, Note_on_c, 3, 73, 0
17, 188672, Note_on_c, 3, 73, 0
17, 188928, Note_on_c, 3, 74, 53
17, 188928, Note_on_c, 3, 74, 53
17, 189099, Note_on_c, 3, 74, 0
17, 189099, Note_on_c, 3, 73, 54
17, 189099, Note_on_c, 3, 74, 0
17, 189099, Note_on_c, 3, 73, 54
17, 189269, Note_on_c, 3, 73, 0
17, 189269, Note_on_c, 3, 71, 56
17, 189269, Note_on_c, 3, 73, 0
17, 189269, Note_on_c, 3, 71, 56
17, 189440, Note_on_c, 3, 71, 0
17, 189440, Note_on_c, 3, 73, 57
17, 189440, Note_on_c, 3, 71, 0
17, 189440, Note_on_c, 3, 73, 57
17, 189696, Note_on_c, 3, 73, 0
17, 189696, Note_on_c, 3, 73, 0
17, 193024, Note_on_c, 3, 78, 69
17, 193024, Note_on_c, 3, 78, 69
17, 193280, Note_on_c, 3, 78, 0
17, 193280, Note_on_c, 3, 78, 0
17, 193536, Note_on_c, 3, 76, 73
17, 193536, Note_on_c, 3, 76, 73
17, 193792, Note_on_c, 3, 76, 0
17, 193792, Note_on_c, 3, 76, 0
17, 194048, Note_on_c, 3, 75, 78
17, 194048, Note_on_c, 3, 75, 78
17, 194304, Note_on_c, 3, 75, 0
17, 194304, Note_on_c, 3, 75, 0
17, 194560, Note_on_c, 3, 76, 82
17, 194560, Note_on_c, 3, 76, 82
17, 194816, Note_on_c, 3, 76, 0
17, 194816, Note_on_c, 3, 76, 0
17, 195072, Note_on_c, 3, 78, 82
17, 195072, Note_on_c, 3, 78, 82
17, 195328, Note_on_c, 3, 78, 0
17, 195328, Note_on_c, 3, 79, 83
17, 195328, Note_on_c, 3, 78, 0
17, 195328, Note_on_c, 3, 79, 83
17, 195584, Note_on_c, 3, 79, 0
17, 195584, Note_on_c, 3, 78, 83
17, 195584, Note_on_c, 3, 79, 0
17, 195584, Note_on_c, 3, 78, 83
17, 197120, Note_on_c, 3, 78, 0
17, 197120, Note_on_c, 3, 79, 87
17, 197120, Note_on_c, 3, 78, 0
17, 197120, Note_on_c, 3, 79, 87
17, 197376, Note_on_c, 3, 79, 0
17, 197376, Note_on_c, 3, 78, 87
17, 197376, Note_on_c, 3, 79, 0
17, 197376, Note_on_c, 3, 78, 87
17, 197632, Note_on_c, 3, 78, 0
17, 197632, Note_on_c, 3, 78, 0
17, 197632, Note_on_c, 3, 76, 88
17, 197632, Note_on_c, 3, 76, 88
17, 197888, Note_on_c, 3, 76, 0
17, 197888, Note_on_c, 3, 76, 0
17, 198144, Note_on_c, 3, 70, 89
17, 198144, Note_on_c, 3, 70, 89
17, 198400, Note_on_c, 3, 70, 0
17, 198400, Note_on_c, 3, 70, 0
17, 198656, Note_on_c, 3, 71, 90
17, 198656, Note_on_c, 3, 71, 90
17, 198912, Note_on_c, 3, 71, 0
17, 198912, Note_on_c, 3, 71, 0
17, 199168, Note_on_c, 3, 67, 92
17, 199168, Note_on_c, 3, 67, 92
17, 199424, Note_on_c, 3, 67, 0
17, 199424, Note_on_c, 3, 67, 0
17, 199680, Note_on_c, 3, 66, 93
17, 199680, Note_on_c, 3, 66, 93
17, 199936, Note_on_c, 3, 66, 0
17, 199936, Note_on_c, 3, 66, 0
17, 200192, Note_on_c, 3, 76, 94
17, 200192, Note_on_c, 3, 76, 94
17, 200448, Note_on_c, 3, 76, 0
17, 200448, Note_on_c, 3, 76, 0
17, 200704, Note_on_c, 3, 74, 95
17, 200704, Note_on_c, 3, 74, 95
17, 200960, Note_on_c, 3, 74, 0
17, 200960, Note_on_c, 3, 74, 0
17, 201216, Note_on_c, 3, 73, 81
17, 201216, Note_on_c, 3, 73, 81
17, 201472, Note_on_c, 3, 73, 0
17, 201472, Note_on_c, 3, 74, 79
17, 201472, Note_on_c, 3, 73, 0
17, 201472, Note_on_c, 3, 74, 79
17, 201728, Note_on_c, 3, 74, 0
17, 201728, Note_on_c, 3, 71, 77
17, 201728, Note_on_c, 3, 74, 0
17, 201728, Note_on_c, 3, 71, 77
17, 201984, Note_on_c, 3, 71, 0
17, 201984, Note_on_c, 3, 71, 0
17, 202240, Note_on_c, 3, 66, 43
17, 202240, Note_on_c, 3, 66, 43
17, 202496, Note_on_c, 3, 66, 0
17, 202496, Note_on_c, 3, 66, 0
17, 202752, Note_on_c, 3, 71, 45
17, 202752, Note_on_c, 3, 66, 45
17, 203008, Note_on_c, 3, 71, 0
17, 203008, Note_on_c, 3, 66, 0
17, 203264, Note_on_c, 3, 73, 48
17, 203264, Note_on_c, 3, 70, 48
17, 203520, Note_on_c, 3, 73, 0
17, 203520, Note_on_c, 3, 70, 0
17, 203776, Note_on_c, 3, 74, 50
17, 203776, Note_on_c, 3, 71, 50
17, 204032, Note_on_c, 3, 74, 0
17, 204032, Note_on_c, 3, 71, 0
17, 204288, Note_on_c, 3, 76, 51
17, 204288, Note_on_c, 3, 73, 51
17, 204459, Note_on_c, 3, 76, 0
17, 204459, Note_on_c, 3, 74, 51
17, 204459, Note_on_c, 3, 73, 0
17, 204459, Note_on_c, 3, 71, 51
17, 204629, Note_on_c, 3, 74, 0
17, 204629, Note_on_c, 3, 73, 51
17, 204629, Note_on_c, 3, 71, 0
17, 204629, Note_on_c, 3, 70, 51
17, 204800, Note_on_c, 3, 73, 0
17, 204800, Note_on_c, 3, 74, 52
17, 204800, Note_on_c, 3, 70, 0
17, 204800, Note_on_c, 3, 71, 52
17, 205056, Note_on_c, 3, 74, 0
17, 205056, Note_on_c, 3, 71, 0
17, 205312, Note_on_c, 3, 72, 53
17, 205312, Note_on_c, 3, 69, 53
17, 205568, Note_on_c, 3, 72, 0
17, 205568, Note_on_c, 3, 69, 0
17, 205824, Note_on_c, 3, 71, 54
17, 205824, Note_on_c, 3, 67, 54
17, 206080, Note_on_c, 3, 71, 0
17, 206080, Note_on_c, 3, 67, 0
17, 206336, Note_on_c, 3, 69, 55
17, 206336, Note_on_c, 3, 66, 55
17, 206592, Note_on_c, 3, 69, 0
17, 206592, Note_on_c, 3, 66, 0
17, 206848, Note_on_c, 3, 71, 57
17, 206848, Note_on_c, 3, 67, 57
17, 207104, Note_on_c, 3, 71, 0
17, 207104, Note_on_c, 3, 67, 0
17, 207872, Note_on_c, 3, 76, 44
17, 207872, Note_on_c, 3, 71, 44
17, 208128, Note_on_c, 3, 76, 0
17, 208128, Note_on_c, 3, 71, 0
17, 208896, Note_on_c, 3, 73, 49
17, 208896, Note_on_c, 3, 67, 49
17, 209152, Note_on_c, 3, 73, 0
17, 209152, Note_on_c, 3, 67, 0
17, 209920, Note_on_c, 3, 70, 55
17, 209920, Note_on_c, 3, 64, 55
17, 210176, Note_on_c, 3, 70, 0
17, 210176, Note_on_c, 3, 64, 0
17, 210432, Note_on_c, 3, 71, 43
17, 210432, Note_on_c, 3, 66, 43
17, 210603, Note_on_c, 3, 71, 0
17, 210603, Note_on_c, 3, 70, 43
17, 210603, Note_on_c, 3, 66, 0
17, 210603, Note_on_c, 3, 64, 43
17, 210773, Note_on_c, 3, 70, 0
17, 210773, Note_on_c, 3, 67, 44
17, 210773, Note_on_c, 3, 64, 0
17, 210773, Note_on_c, 3, 62, 44
17, 210944, Note_on_c, 3, 67, 0
17, 210944, Note_on_c, 3, 70, 44
17, 210944, Note_on_c, 3, 62, 0
17, 210944, Note_on_c, 3, 64, 44
17, 211200, Note_on_c, 3, 70, 0
17, 211200, Note_on_c, 3, 64, 0
17, 211456, Note_on_c, 3, 73, 45
17, 211456, Note_on_c, 3, 67, 45
17, 211712, Note_on_c, 3, 73, 0
17, 211712, Note_on_c, 3, 67, 0
17, 211968, Note_on_c, 3, 71, 46
17, 211968, Note_on_c, 3, 66, 46
17, 212224, Note_on_c, 3, 71, 0
17, 212224, Note_on_c, 3, 66, 0
17, 212480, Note_on_c, 3, 70, 47
17, 212480, Note_on_c, 3, 64, 47
17, 212736, Note_on_c, 3, 70, 0
17, 212736, Note_on_c, 3, 64, 0
17, 212992, Note_on_c, 3, 71, 48
17, 212992, Note_on_c, 3, 66, 48
17, 213248, Note_on_c, 3, 71, 0
17, 213248, Note_on_c, 3, 66, 0
17, 214016, Note_on_c, 3, 74, 51
17, 214016, Note_on_c, 3, 71, 51
17, 214272, Note_on_c, 3, 74, 0
17, 214272, Note_on_c, 3, 71, 0
17, 215040, Note_on_c, 3, 71, 53
17, 215040, Note_on_c, 3, 66, 53
17, 215296, Note_on_c, 3, 71, 0
17, 215296, Note_on_c, 3, 66, 0
17, 216064, Note_on_c, 3, 66, 55
17, 216064, Note_on_c, 3, 63, 55
17, 216320, Note_on_c, 3, 66, 0
17, 216320, Note_on_c, 3, 63, 0
17, 216576, Note_on_c, 3, 67, 58
17, 216576, Note_on_c, 3, 64, 58
17, 216747, Note_on_c, 3, 67, 0
17, 216747, Note_on_c, 3, 66, 59
17, 216832, Note_on_c, 3, 64, 0
17, 216917, Note_on_c, 3, 66, 0
17, 216917, Note_on_c, 3, 64, 60
17, 217088, Note_on_c, 3, 64, 0
17, 217088, Note_on_c, 3, 66, 61
17, 217088, Note_on_c, 3, 63, 61
17, 217344, Note_on_c, 3, 66, 0
17, 217344, Note_on_c, 3, 63, 0
17, 217600, Note_on_c, 3, 81, 65
17, 217600, Note_on_c, 3, 78, 65
17, 217856, Note_on_c, 3, 81, 0
17, 217856, Note_on_c, 3, 78, 0
17, 218112, Note_on_c, 3, 79, 68
17, 218112, Note_on_c, 3, 76, 68
17, 218368, Note_on_c, 3, 79, 0
17, 218368, Note_on_c, 3, 76, 0
17, 218624, Note_on_c, 3, 78, 71
17, 218624, Note_on_c, 3, 75, 71
17, 218880, Note_on_c, 3, 78, 0
17, 218880, Note_on_c, 3, 75, 0
17, 219136, Note_on_c, 3, 79, 74
17, 219136, Note_on_c, 3, 76, 74
17, 219392, Note_on_c, 3, 79, 0
17, 219392, Note_on_c, 3, 78, 76
17, 219392, Note_on_c, 3, 76, 0
17, 219648, Note_on_c, 3, 78, 0
17, 219648, Note_on_c, 3, 76, 77
17, 219648, Note_on_c, 3, 71, 77
17, 219904, Note_on_c, 3, 76, 0
17, 219904, Note_on_c, 3, 78, 79
17, 219904, Note_on_c, 3, 71, 0
17, 220160, Note_on_c, 3, 78, 0
17, 220160, Note_on_c, 3, 79, 81
17, 220160, Note_on_c, 3, 76, 81
17, 220416, Note_on_c, 3, 79, 0
17, 220416, Note_on_c, 3, 81, 82
17, 220416, Note_on_c, 3, 76, 0
17, 220672, Note_on_c, 3, 81, 0
17, 220672, Note_on_c, 3, 83, 83
17, 220672, Note_on_c, 3, 76, 83
17, 220928, Note_on_c, 3, 83, 0
17, 220928, Note_on_c, 3, 82, 82
17, 220928, Note_on_c, 3, 76, 0
17, 221184, Note_on_c, 3, 82, 0
17, 221184, Note_on_c, 3, 85, 80
17, 221184, Note_on_c, 3, 76, 80
17, 221440, Note_on_c, 3, 85, 0
17, 221440, Note_on_c, 3, 83, 79
17, 221440, Note_on_c, 3, 76, 0
17, 221696, Note_on_c, 3, 83, 0
17, 221696, Note_on_c, 3, 82, 77
17, 221696, Note_on_c, 3, 76, 77
17, 221952, Note_on_c, 3, 82, 0
17, 221952, Note_on_c, 3, 80, 75
17, 221952, Note_on_c, 3, 76, 0
17, 222208, Note_on_c, 3, 80, 0
17, 222208, Note_on_c, 3, 78, 74
17, 222208, Note_on_c, 3, 74, 74
17, 222464, Note_on_c, 3, 78, 0
17, 222464, Note_on_c, 3, 76, 72
17, 222464, Note_on_c, 3, 74, 0
17, 222464, Note_on_c, 3, 73, 72
17, 222720, Note_on_c, 3, 76, 0
17, 222720, Note_on_c, 3, 74, 71
17, 222720, Note_on_c, 3, 73, 0
17, 222720, Note_on_c, 3, 71, 71
17, 222976, Note_on_c, 3, 74, 0
17, 222976, Note_on_c, 3, 76, 69
17, 222976, Note_on_c, 3, 71, 0
17, 222976, Note_on_c, 3, 70, 69
17, 223232, Note_on_c, 3, 76, 0
17, 223232, Note_on_c, 3, 78, 67
17, 223232, Note_on_c, 3, 70, 0
17, 223232, Note_on_c, 3, 71, 67
17, 223488, Note_on_c, 3, 78, 0
17, 223488, Note_on_c, 3, 71, 0
17, 223744, Note_on_c, 3, 71, 64
17, 223744, Note_on_c, 3, 71, 64
17, 224000, Note_on_c, 3, 71, 0
17, 224000, Note_on_c, 3, 71, 0
17, 224256, Note_on_c, 3, 74, 61
17, 224256, Note_on_c, 3, 71, 61
17, 224512, Note_on_c, 3, 74, 0
17, 224512, Note_on_c, 3, 73, 59
17, 224512, Note_on_c, 3, 71, 0
17, 224768, Note_on_c, 3, 73, 0
17, 224768, Note_on_c, 3, 71, 58
17, 224768, Note_on_c, 3, 66, 58
17, 225024, Note_on_c, 3, 71, 0
17, 225024, Note_on_c, 3, 70, 56
17, 225024, Note_on_c, 3, 66, 0
17, 225280, Note_on_c, 3, 70, 0
17, 225280, Note_on_c, 3, 71, 55
17, 225280, Note_on_c, 3, 62, 55
17, 226816, Note_on_c, 3, 71, 0
17, 226816, Note_on_c, 3, 62, 0
17, 263680, Note_on_c, 3, 69, 96
17, 263680, Note_on_c, 3, 66, 96
17, 263936, Note_on_c, 3, 69, 0
17, 263936, Note_on_c, 3, 66, 0
17, 264192, Note_on_c, 3, 74, 99
17, 264192, Note_on_c, 3, 69, 99
17, 264448, Note_on_c, 3, 74, 0
17, 264448, Note_on_c, 3, 69, 0
17, 264704, Note_on_c, 3, 76, 103
17, 264704, Note_on_c, 3, 73, 103
17, 264960, Note_on_c, 3, 76, 0
17, 264960, Note_on_c, 3, 73, 0
17, 265216, Note_on_c, 3, 78, 106
17, 265216, Note_on_c, 3, 74, 106
17, 265472, Note_on_c, 3, 78, 0
17, 265472, Note_on_c, 3, 74, 0
17, 265728, Note_on_c, 3, 79, 95
17, 265728, Note_on_c, 3, 76, 95
17, 265899, Note_on_c, 3, 79, 0
17, 265899, Note_on_c, 3, 78, 95
17, 265899, Note_on_c, 3, 76, 0
17, 265899, Note_on_c, 3, 74, 95
17, 266069, Note_on_c, 3, 78, 0
17, 266069, Note_on_c, 3, 76, 96
17, 266069, Note_on_c, 3, 74, 0
17, 266069, Note_on_c, 3, 73, 96
17, 266240, Note_on_c, 3, 76, 0
17, 266240, Note_on_c, 3, 78, 97
17, 266240, Note_on_c, 3, 73, 0
17, 266240, Note_on_c, 3, 74, 97
17, 266496, Note_on_c, 3, 78, 0
17, 266496, Note_on_c, 3, 74, 0
17, 266752, Note_on_c, 3, 83, 100
17, 266752, Note_on_c, 3, 79, 100
17, 267008, Note_on_c, 3, 83, 0
17, 267008, Note_on_c, 3, 79, 0
17, 267264, Note_on_c, 3, 81, 103
17, 267264, Note_on_c, 3, 78, 103
17, 267520, Note_on_c, 3, 81, 0
17, 267520, Note_on_c, 3, 78, 0
17, 267776, Note_on_c, 3, 79, 105
17, 267776, Note_on_c, 3, 76, 105
17, 268032, Note_on_c, 3, 79, 0
17, 268032, Note_on_c, 3, 76, 0
17, 268288, Note_on_c, 3, 78, 108
17, 268288, Note_on_c, 3, 74, 108
17, 268544, Note_on_c, 3, 78, 0
17, 268544, Note_on_c, 3, 76, 90
17, 268544, Note_on_c, 3, 74, 0
17, 268800, Note_on_c, 3, 76, 0
17, 268800, Note_on_c, 3, 74, 91
17, 268800, Note_on_c, 3, 69, 91
17, 269056, Note_on_c, 3, 74, 0
17, 269056, Note_on_c, 3, 76, 93
17, 269056, Note_on_c, 3, 69, 0
17, 269312, Note_on_c, 3, 76, 0
17, 269312, Note_on_c, 3, 78, 94
17, 269312, Note_on_c, 3, 74, 94
17, 269568, Note_on_c, 3, 78, 0
17, 269568, Note_on_c, 3, 79, 95
17, 269568, Note_on_c, 3, 74, 0
17, 269824, Note_on_c, 3, 79, 0
17, 269824, Note_on_c, 3, 81, 97
17, 269824, Note_on_c, 3, 78, 97
17, 270080, Note_on_c, 3, 81, 0
17, 270080, Note_on_c, 3, 83, 98
17, 270080, Note_on_c, 3, 78, 0
17, 270080, Note_on_c, 3, 76, 98
17, 270336, Note_on_c, 3, 83, 0
17, 270336, Note_on_c, 3, 81, 99
17, 270336, Note_on_c, 3, 76, 0
17, 270336, Note_on_c, 3, 78, 99
17, 270592, Note_on_c, 3, 81, 0
17, 270592, Note_on_c, 3, 79, 100
17, 270592, Note_on_c, 3, 78, 0
17, 270848, Note_on_c, 3, 79, 0
17, 270848, Note_on_c, 3, 78, 102
17, 270848, Note_on_c, 3, 74, 102
17, 271104, Note_on_c, 3, 78, 0
17, 271104, Note_on_c, 3, 76, 103
17, 271104, Note_on_c, 3, 74, 0
17, 271360, Note_on_c, 3, 76, 0
17, 271360, Note_on_c, 3, 74, 104
17, 271360, Note_on_c, 3, 71, 104
17, 271616, Note_on_c, 3, 74, 0
17, 271616, Note_on_c, 3, 71, 0
17, 271872, Note_on_c, 3, 76, 95
17, 271872, Note_on_c, 3, 73, 95
17, 272128, Note_on_c, 3, 76, 0
17, 272128, Note_on_c, 3, 78, 95
17, 272128, Note_on_c, 3, 73, 0
17, 272128, Note_on_c, 3, 74, 95
17, 272384, Note_on_c, 3, 78, 0
17, 272384, Note_on_c, 3, 79, 96
17, 272384, Note_on_c, 3, 74, 0
17, 272384, Note_on_c, 3, 76, 96
17, 272640, Note_on_c, 3, 79, 0
17, 272640, Note_on_c, 3, 76, 0
17, 272896, Note_on_c, 3, 81, 98
17, 272896, Note_on_c, 3, 76, 98
17, 273152, Note_on_c, 3, 81, 0
17, 273152, Note_on_c, 3, 76, 0
17, 273408, Note_on_c, 3, 79, 100
17, 273408, Note_on_c, 3, 69, 100
17, 273664, Note_on_c, 3, 79, 0
17, 273664, Note_on_c, 3, 78, 101
17, 273664, Note_on_c, 3, 69, 0
17, 273920, Note_on_c, 3, 78, 0
17, 273920, Note_on_c, 3, 76, 102
17, 273920, Note_on_c, 3, 71, 102
17, 274176, Note_on_c, 3, 76, 0
17, 274176, Note_on_c, 3, 74, 103
17, 274176, Note_on_c, 3, 71, 0
17, 274432, Note_on_c, 3, 74, 0
17, 274432, Note_on_c, 3, 76, 104
17, 274432, Note_on_c, 3, 73, 104
17, 274688, Note_on_c, 3, 76, 0
17, 274944, Note_on_c, 3, 69, 92
17, 275200, Note_on_c, 3, 69, 0
17, 275456, Note_on_c, 3, 73, 93
17, 275456, Note_on_c, 3, 73, 0
17, 275712, Note_on_c, 3, 73, 0
17, 275968, Note_on_c, 3, 76, 95
17, 275968, Note_on_c, 3, 73, 95
17, 276224, Note_on_c, 3, 76, 0
17, 276224, Note_on_c, 3, 73, 0
17, 276480, Note_on_c, 3, 81, 96
17, 276480, Note_on_c, 3, 74, 96
17, 276736, Note_on_c, 3, 81, 0
17, 276736, Note_on_c, 3, 79, 97
17, 276736, Note_on_c, 3, 74, 0
17, 276992, Note_on_c, 3, 79, 0
17, 276992, Note_on_c, 3, 78, 98
17, 276992, Note_on_c, 3, 73, 98
17, 277248, Note_on_c, 3, 78, 0
17, 277248, Note_on_c, 3, 76, 98
17, 277248, Note_on_c, 3, 73, 0
17, 277504, Note_on_c, 3, 76, 0
17, 277504, Note_on_c, 3, 78, 99
17, 277504, Note_on_c, 3, 74, 99
17, 277760, Note_on_c, 3, 78, 0
17, 277760, Note_on_c, 3, 74, 0
17, 278016, Note_on_c, 3, 79, 100
17, 278016, Note_on_c, 3, 76, 100
17, 278187, Note_on_c, 3, 79, 0
17, 278187, Note_on_c, 3, 78, 101
17, 278187, Note_on_c, 3, 76, 0
17, 278187, Note_on_c, 3, 74, 101
17, 278357, Note_on_c, 3, 78, 0
17, 278357, Note_on_c, 3, 76, 101
17, 278357, Note_on_c, 3, 74, 0
17, 278357, Note_on_c, 3, 73, 101
17, 278528, Note_on_c, 3, 76, 0
17, 278528, Note_on_c, 3, 78, 102
17, 278528, Note_on_c, 3, 73, 0
17, 278528, Note_on_c, 3, 74, 102
17, 278784, Note_on_c, 3, 78, 0
17, 278784, Note_on_c, 3, 74, 0
17, 278784, Note_on_c, 3, 76, 103
17, 279040, Note_on_c, 3, 79, 103
17, 279040, Note_on_c, 3, 76, 0
17, 279040, Note_on_c, 3, 74, 103
17, 279296, Note_on_c, 3, 79, 0
17, 279296, Note_on_c, 3, 74, 0
17, 279296, Note_on_c, 3, 76, 104
17, 279552, Note_on_c, 3, 81, 105
17, 279552, Note_on_c, 3, 76, 0
17, 279552, Note_on_c, 3, 74, 105
17, 279808, Note_on_c, 3, 81, 0
17, 279808, Note_on_c, 3, 74, 0
17, 279808, Note_on_c, 3, 76, 105
17, 280064, Note_on_c, 3, 83, 106
17, 280064, Note_on_c, 3, 76, 0
17, 280064, Note_on_c, 3, 74, 106
17, 280320, Note_on_c, 3, 83, 0
17, 280320, Note_on_c, 3, 74, 0
17, 280320, Note_on_c, 3, 76, 107
17, 280576, Note_on_c, 3, 76, 0
17, 280576, Note_on_c, 3, 76, 108
17, 280576, Note_on_c, 3, 73, 108
17, 281600, Note_on_c, 3, 76, 0
17, 281600, Note_on_c, 3, 73, 0
17, 284160, Note_on_c, 3, 66, 29
17, 284160, Note_on_c, 3, 62, 29
17, 284416, Note_on_c, 3, 66, 0
17, 284416, Note_on_c, 3, 62, 0
17, 284672, Note_on_c, 3, 66, 31
17, 284672, Note_on_c, 3, 62, 31
17, 284928, Note_on_c, 3, 66, 0
17, 284928, Note_on_c, 3, 62, 0
17, 285184, Note_on_c, 3, 66, 33
17, 285184, Note_on_c, 3, 62, 33
17, 285440, Note_on_c, 3, 66, 0
17, 285440, Note_on_c, 3, 62, 0
17, 285696, Note_on_c, 3, 66, 36
17, 285696, Note_on_c, 3, 62, 36
17, 285952, Note_on_c, 3, 66, 0
17, 285952, Note_on_c, 3, 62, 0
17, 286208, Note_on_c, 3, 66, 38
17, 286208, Note_on_c, 3, 62, 38
17, 286464, Note_on_c, 3, 66, 0
17, 286464, Note_on_c, 3, 62, 0
17, 287232, Note_on_c, 3, 69, 42
17, 287232, Note_on_c, 3, 66, 42
17, 287488, Note_on_c, 3, 69, 0
17, 287488, Note_on_c, 3, 66, 0
17, 287744, Note_on_c, 3, 69, 44
17, 287744, Note_on_c, 3, 66, 44
17, 288000, Note_on_c, 3, 69, 0
17, 288000, Note_on_c, 3, 66, 0
17, 288256, Note_on_c, 3, 69, 46
17, 288256, Note_on_c, 3, 66, 46
17, 288512, Note_on_c, 3, 69, 0
17, 288512, Note_on_c, 3, 66, 0
17, 288768, Note_on_c, 3, 69, 48
17, 288768, Note_on_c, 3, 66, 48
17, 289024, Note_on_c, 3, 69, 0
17, 289024, Note_on_c, 3, 66, 0
17, 289280, Note_on_c, 3, 69, 50
17, 289280, Note_on_c, 3, 66, 50
17, 289536, Note_on_c, 3, 69, 0
17, 289536, Note_on_c, 3, 66, 0
17, 290304, Note_on_c, 3, 67, 50
17, 290304, Note_on_c, 3, 64, 50
17, 290560, Note_on_c, 3, 67, 0
17, 290560, Note_on_c, 3, 64, 0
17, 290816, Note_on_c, 3, 67, 52
17, 290816, Note_on_c, 3, 64, 52
17, 291072, Note_on_c, 3, 67, 0
17, 291072, Note_on_c, 3, 64, 0
17, 291328, Note_on_c, 3, 67, 54
17, 291328, Note_on_c, 3, 64, 54
17, 291584, Note_on_c, 3, 67, 0
17, 291584, Note_on_c, 3, 64, 0
17, 291840, Note_on_c, 3, 67, 56
17, 291840, Note_on_c, 3, 64, 56
17, 292096, Note_on_c, 3, 67, 0
17, 292096, Note_on_c, 3, 64, 0
17, 292352, Note_on_c, 3, 67, 58
17, 292352, Note_on_c, 3, 64, 58
17, 292608, Note_on_c, 3, 67, 0
17, 292608, Note_on_c, 3, 64, 0
17, 293376, Note_on_c, 3, 67, 63
17, 293376, Note_on_c, 3, 73, 63
17, 293632, Note_on_c, 3, 67, 0
17, 293632, Note_on_c, 3, 73, 0
17, 293888, Note_on_c, 3, 67, 65
17, 293888, Note_on_c, 3, 73, 65
17, 294144, Note_on_c, 3, 67, 0
17, 294144, Note_on_c, 3, 73, 0
17, 294400, Note_on_c, 3, 67, 67
17, 294400, Note_on_c, 3, 73, 67
17, 294656, Note_on_c, 3, 67, 0
17, 294656, Note_on_c, 3, 73, 0
17, 294912, Note_on_c, 3, 67, 69
17, 294912, Note_on_c, 3, 73, 69
17, 295168, Note_on_c, 3, 67, 0
17, 295168, Note_on_c, 3, 73, 0
17, 295424, Note_on_c, 3, 67, 71
17, 295424, Note_on_c, 3, 73, 71
17, 295680, Note_on_c, 3, 67, 0
17, 295680, Note_on_c, 3, 73, 0
17, 295936, Note_on_c, 3, 66, 73
17, 295936, Note_on_c, 3, 69, 73
17, 296192, Note_on_c, 3, 66, 0
17, 296192, Note_on_c, 3, 69, 0
17, 296960, Note_on_c, 3, 62, 94
17, 296960, Note_on_c, 3, 66, 94
17, 297216, Note_on_c, 3, 62, 0
17, 297216, Note_on_c, 3, 66, 0
17, 297984, Note_on_c, 3, 66, 97
17, 297984, Note_on_c, 3, 69, 97
17, 298240, Note_on_c, 3, 66, 0
17, 298240, Note_on_c, 3, 69, 0
17, 299008, Note_on_c, 3, 69, 100
17, 299008, Note_on_c, 3, 74, 100
17, 299264, Note_on_c, 3, 69, 0
17, 299264, Note_on_c, 3, 74, 0
17, 302080, Note_on_c, 3, 78, 99
17, 302080, Note_on_c, 3, 71, 99
17, 302336, Note_on_c, 3, 78, 0
17, 302336, Note_on_c, 3, 71, 0
17, 303104, Note_on_c, 3, 86, 99
17, 303104, Note_on_c, 3, 78, 99
17, 303360, Note_on_c, 3, 86, 0
17, 303360, Note_on_c, 3, 78, 0
17, 304128, Note_on_c, 3, 83, 99
17, 304128, Note_on_c, 3, 74, 99
17, 304384, Note_on_c, 3, 83, 0
17, 304384, Note_on_c, 3, 74, 0
17, 305152, Note_on_c, 3, 79, 99
17, 305152, Note_on_c, 3, 71, 99
17, 305408, Note_on_c, 3, 79, 0
17, 305408, Note_on_c, 3, 71, 0
17, 308736, Note_on_c, 3, 69, 98
17, 308736, Note_on_c, 3, 69, 98
17, 308992, Note_on_c, 3, 69, 0
17, 308992, Note_on_c, 3, 71, 98
17, 308992, Note_on_c, 3, 69, 0
17, 308992, Note_on_c, 3, 68, 98
17, 309248, Note_on_c, 3, 71, 0
17, 309248, Note_on_c, 3, 73, 98
17, 309248, Note_on_c, 3, 68, 0
17, 309248, Note_on_c, 3, 69, 98
17, 309504, Note_on_c, 3, 73, 0
17, 309504, Note_on_c, 3, 74, 98
17, 309504, Note_on_c, 3, 69, 0
17, 309504, Note_on_c, 3, 71, 98
17, 309760, Note_on_c, 3, 74, 0
17, 309760, Note_on_c, 3, 76, 98
17, 309760, Note_on_c, 3, 71, 0
17, 309760, Note_on_c, 3, 73, 98
17, 310016, Note_on_c, 3, 76, 0
17, 310016, Note_on_c, 3, 73, 0
17, 310272, Note_on_c, 3, 78, 98
17, 310272, Note_on_c, 3, 75, 98
17, 310528, Note_on_c, 3, 78, 0
17, 310528, Note_on_c, 3, 75, 0
17, 310784, Note_on_c, 3, 81, 98
17, 310784, Note_on_c, 3, 78, 98
17, 310912, Note_on_c, 3, 81, 0
17, 310912, Note_on_c, 3, 79, 98
17, 310912, Note_on_c, 3, 78, 0
17, 310912, Note_on_c, 3, 76, 98
17, 311040, Note_on_c, 3, 79, 0
17, 311040, Note_on_c, 3, 81, 98
17, 311040, Note_on_c, 3, 76, 0
17, 311040, Note_on_c, 3, 78, 98
17, 311168, Note_on_c, 3, 81, 0
17, 311168, Note_on_c, 3, 79, 98
17, 311168, Note_on_c, 3, 78, 0
17, 311168, Note_on_c, 3, 76, 98
17, 311296, Note_on_c, 3, 79, 0
17, 311296, Note_on_c, 3, 76, 0
17, 311296, Note_on_c, 3, 81, 98
17, 311296, Note_on_c, 3, 78, 98
17, 311552, Note_on_c, 3, 81, 0
17, 311552, Note_on_c, 3, 78, 0
17, 312832, Note_on_c, 3, 81, 97
17, 312832, Note_on_c, 3, 78, 97
17, 313088, Note_on_c, 3, 81, 0
17, 313088, Note_on_c, 3, 79, 97
17, 313088, Note_on_c, 3, 78, 0
17, 313088, Note_on_c, 3, 76, 97
17, 313344, Note_on_c, 3, 79, 0
17, 313344, Note_on_c, 3, 81, 97
17, 313344, Note_on_c, 3, 76, 0
17, 313344, Note_on_c, 3, 78, 97
17, 313600, Note_on_c, 3, 81, 0
17, 313600, Note_on_c, 3, 78, 0
17, 313856, Note_on_c, 3, 83, 97
17, 313856, Note_on_c, 3, 79, 97
17, 314112, Note_on_c, 3, 83, 0
17, 314112, Note_on_c, 3, 81, 97
17, 314112, Note_on_c, 3, 79, 0
17, 314112, Note_on_c, 3, 78, 97
17, 314368, Note_on_c, 3, 81, 0
17, 314368, Note_on_c, 3, 78, 0
17, 314368, Note_on_c, 3, 79, 97
17, 314368, Note_on_c, 3, 76, 97
17, 314624, Note_on_c, 3, 79, 0
17, 314624, Note_on_c, 3, 76, 0
17, 315904, Note_on_c, 3, 79, 96
17, 315904, Note_on_c, 3, 76, 96
17, 316160, Note_on_c, 3, 79, 0
17, 316160, Note_on_c, 3, 78, 96
17, 316160, Note_on_c, 3, 76, 0
17, 316160, Note_on_c, 3, 74, 96
17, 316416, Note_on_c, 3, 78, 0
17, 316416, Note_on_c, 3, 79, 96
17, 316416, Note_on_c, 3, 74, 0
17, 316416, Note_on_c, 3, 76, 96
17, 316672, Note_on_c, 3, 79, 0
17, 316672, Note_on_c, 3, 76, 0
17, 316928, Note_on_c, 3, 81, 96
17, 316928, Note_on_c, 3, 78, 96
17, 317184, Note_on_c, 3, 81, 0
17, 317184, Note_on_c, 3, 79, 96
17, 317184, Note_on_c, 3, 78, 0
17, 317184, Note_on_c, 3, 76, 96
17, 317440, Note_on_c, 3, 79, 0
17, 317440, Note_on_c, 3, 76, 0
17, 317440, Note_on_c, 3, 78, 96
17, 317440, Note_on_c, 3, 74, 96
17, 317696, Note_on_c, 3, 78, 0
17, 317696, Note_on_c, 3, 74, 0
17, 318976, Note_on_c, 3, 78, 96
17, 318976, Note_on_c, 3, 74, 96
17, 319232, Note_on_c, 3, 78, 0
17, 319232, Note_on_c, 3, 76, 96
17, 319232, Note_on_c, 3, 74, 0
17, 319232, Note_on_c, 3, 73, 96
17, 319488, Note_on_c, 3, 76, 0
17, 319488, Note_on_c, 3, 78, 96
17, 319488, Note_on_c, 3, 73, 0
17, 319488, Note_on_c, 3, 74, 96
17, 319744, Note_on_c, 3, 78, 0
17, 319744, Note_on_c, 3, 74, 0
17, 320000, Note_on_c, 3, 79, 96
17, 320000, Note_on_c, 3, 74, 96
17, 320256, Note_on_c, 3, 79, 0
17, 320256, Note_on_c, 3, 78, 96
17, 320256, Note_on_c, 3, 74, 0
17, 320512, Note_on_c, 3, 78, 0
17, 320512, Note_on_c, 3, 76, 67
17, 320768, Note_on_c, 3, 76, 0
17, 322048, Note_on_c, 3, 76, 75
17, 322304, Note_on_c, 3, 76, 0
17, 322304, Note_on_c, 3, 78, 76
17, 322560, Note_on_c, 3, 78, 0
17, 322560, Note_on_c, 3, 76, 77
17, 322816, Note_on_c, 3, 76, 0
17, 323072, Note_on_c, 3, 76, 80
17, 323328, Note_on_c, 3, 76, 0
17, 323328, Note_on_c, 3, 78, 81
17, 323584, Note_on_c, 3, 78, 0
17, 323584, Note_on_c, 3, 79, 83
17, 323840, Note_on_c, 3, 79, 0
17, 325120, Note_on_c, 3, 79, 66
17, 325376, Note_on_c, 3, 79, 0
17, 325376, Note_on_c, 3, 78, 68
17, 325632, Note_on_c, 3, 78, 0
17, 325632, Note_on_c, 3, 79, 70
17, 325888, Note_on_c, 3, 79, 0
17, 326144, Note_on_c, 3, 76, 74
17, 326400, Note_on_c, 3, 76, 0
17, 326656, Note_on_c, 3, 78, 78
17, 326912, Note_on_c, 3, 78, 0
17, 328192, Note_on_c, 3, 78, 79
17, 328448, Note_on_c, 3, 78, 0
17, 328448, Note_on_c, 3, 79, 80
17, 328704, Note_on_c, 3, 79, 0
17, 328704, Note_on_c, 3, 78, 82
17, 328960, Note_on_c, 3, 78, 0
17, 329216, Note_on_c, 3, 78, 85
17, 329472, Note_on_c, 3, 78, 0
17, 329472, Note_on_c, 3, 79, 86
17, 329728, Note_on_c, 3, 79, 0
17, 329728, Note_on_c, 3, 81, 88
17, 329728, Note_on_c, 3, 76, 88
17, 329984, Note_on_c, 3, 81, 0
17, 329984, Note_on_c, 3, 76, 0
17, 330240, Note_on_c, 3, 75, 80
17, 330496, Note_on_c, 3, 75, 0
17, 331264, Note_on_c, 3, 81, 88
17, 331264, Note_on_c, 3, 78, 88
17, 331520, Note_on_c, 3, 81, 0
17, 331520, Note_on_c, 3, 79, 90
17, 331520, Note_on_c, 3, 78, 0
17, 331520, Note_on_c, 3, 76, 90
17, 331776, Note_on_c, 3, 79, 0
17, 331776, Note_on_c, 3, 81, 92
17, 331776, Note_on_c, 3, 76, 0
17, 331776, Note_on_c, 3, 78, 92
17, 332032, Note_on_c, 3, 81, 0
17, 332032, Note_on_c, 3, 78, 0
17, 332288, Note_on_c, 3, 78, 96
17, 332288, Note_on_c, 3, 75, 96
17, 332544, Note_on_c, 3, 78, 0
17, 332544, Note_on_c, 3, 75, 0
17, 332800, Note_on_c, 3, 79, 100
17, 332800, Note_on_c, 3, 76, 100
17, 333056, Note_on_c, 3, 79, 0
17, 333056, Note_on_c, 3, 76, 0
17, 333312, Note_on_c, 3, 81, 99
17, 333312, Note_on_c, 3, 76, 99
17, 333568, Note_on_c, 3, 81, 0
17, 333568, Note_on_c, 3, 79, 100
17, 333568, Note_on_c, 3, 76, 0
17, 333824, Note_on_c, 3, 79, 0
17, 333824, Note_on_c, 3, 78, 100
17, 333824, Note_on_c, 3, 74, 100
17, 334080, Note_on_c, 3, 78, 0
17, 334080, Note_on_c, 3, 74, 0
17, 334336, Note_on_c, 3, 83, 101
17, 334336, Note_on_c, 3, 73, 101
17, 334592, Note_on_c, 3, 83, 0
17, 334592, Note_on_c, 3, 73, 0
17, 334848, Note_on_c, 3, 81, 102
17, 334848, Note_on_c, 3, 74, 102
17, 335104, Note_on_c, 3, 81, 0
17, 335104, Note_on_c, 3, 79, 103
17, 335104, Note_on_c, 3, 74, 0
17, 335360, Note_on_c, 3, 79, 0
17, 335360, Note_on_c, 3, 78, 104
17, 335360, Note_on_c, 3, 69, 104
17, 335616, Note_on_c, 3, 78, 0
17, 335616, Note_on_c, 3, 76, 104
17, 335616, Note_on_c, 3, 69, 0
17, 335872, Note_on_c, 3, 76, 0
17, 335872, Note_on_c, 3, 74, 105
17, 335872, Note_on_c, 3, 66, 105
17, 336128, Note_on_c, 3, 74, 0
17, 336128, Note_on_c, 3, 76, 105
17, 336128, Note_on_c, 3, 66, 0
17, 336128, Note_on_c, 3, 64, 105
17, 336384, Note_on_c, 3, 76, 0
17, 336384, Note_on_c, 3, 78, 106
17, 336384, Note_on_c, 3, 64, 0
17, 336384, Note_on_c, 3, 62, 106
17, 336640, Note_on_c, 3, 78, 0
17, 336640, Note_on_c, 3, 79, 106
17, 336640, Note_on_c, 3, 62, 0
17, 336640, Note_on_c, 3, 64, 106
17, 336896, Note_on_c, 3, 79, 0
17, 336896, Note_on_c, 3, 81, 107
17, 336896, Note_on_c, 3, 64, 0
17, 336896, Note_on_c, 3, 66, 107
17, 337152, Note_on_c, 3, 81, 0
17, 337152, Note_on_c, 3, 66, 0
17, 337152, Note_on_c, 3, 67, 107
17, 337408, Note_on_c, 3, 74, 108
17, 337408, Note_on_c, 3, 67, 0
17, 337408, Note_on_c, 3, 69, 108
17, 337664, Note_on_c, 3, 74, 0
17, 337664, Note_on_c, 3, 69, 0
17, 337920, Note_on_c, 3, 78, 109
17, 337920, Note_on_c, 3, 69, 109
17, 338176, Note_on_c, 3, 78, 0
17, 338176, Note_on_c, 3, 69, 0
17, 338432, Note_on_c, 3, 76, 110
17, 338432, Note_on_c, 3, 67, 110
17, 338688, Note_on_c, 3, 76, 0
17, 338688, Note_on_c, 3, 67, 0
17, 338944, Note_on_c, 3, 74, 111
17, 338944, Note_on_c, 3, 66, 111
17, 339968, Note_on_c, 3, 74, 0
17, 339968, Note_on_c, 3, 66, 0
17, 340480, Note_on_c, 3, 76, 47
17, 340480, Note_on_c, 3, 73, 47
17, 340736, Note_on_c, 3, 76, 0
17, 340736, Note_on_c, 3, 73, 0
17, 340992, Note_on_c, 3, 78, 47
17, 340992, Note_on_c, 3, 75, 47
17, 341248, Note_on_c, 3, 78, 0
17, 341248, Note_on_c, 3, 75, 0
17, 341504, Note_on_c, 3, 79, 47
17, 341504, Note_on_c, 3, 76, 47
17, 341760, Note_on_c, 3, 79, 0
17, 341760, Note_on_c, 3, 76, 0
17, 342016, Note_on_c, 3, 81, 47
17, 342016, Note_on_c, 3, 78, 47
17, 342272, Note_on_c, 3, 81, 0
17, 342272, Note_on_c, 3, 78, 0
17, 343552, Note_on_c, 3, 84, 47
17, 343552, Note_on_c, 3, 81, 47
17, 343808, Note_on_c, 3, 84, 0
17, 343808, Note_on_c, 3, 81, 0
17, 344064, Note_on_c, 3, 83, 47
17, 344064, Note_on_c, 3, 79, 47
17, 344320, Note_on_c, 3, 83, 0
17, 344320, Note_on_c, 3, 79, 0
17, 344576, Note_on_c, 3, 81, 47
17, 344576, Note_on_c, 3, 78, 47
17, 344832, Note_on_c, 3, 81, 0
17, 344832, Note_on_c, 3, 78, 0
17, 345088, Note_on_c, 3, 79, 47
17, 345088, Note_on_c, 3, 76, 47
17, 345344, Note_on_c, 3, 79, 0
17, 345344, Note_on_c, 3, 76, 0
17, 346624, Note_on_c, 3, 79, 47
17, 346624, Note_on_c, 3, 76, 47
17, 346880, Note_on_c, 3, 79, 0
17, 346880, Note_on_c, 3, 78, 47
17, 346880, Note_on_c, 3, 76, 0
17, 346880, Note_on_c, 3, 75, 47
17, 347136, Note_on_c, 3, 78, 0
17, 347136, Note_on_c, 3, 81, 47
17, 347136, Note_on_c, 3, 75, 0
17, 347136, Note_on_c, 3, 78, 47
17, 347392, Note_on_c, 3, 81, 0
17, 347392, Note_on_c, 3, 78, 0
17, 347648, Note_on_c, 3, 79, 47
17, 347648, Note_on_c, 3, 76, 47
17, 347904, Note_on_c, 3, 79, 0
17, 347904, Note_on_c, 3, 78, 47
17, 347904, Note_on_c, 3, 76, 0
17, 347904, Note_on_c, 3, 75, 47
17, 348160, Note_on_c, 3, 78, 0
17, 348160, Note_on_c, 3, 75, 0
17, 348160, Note_on_c, 3, 79, 47
17, 348160, Note_on_c, 3, 76, 47
17, 348416, Note_on_c, 3, 79, 0
17, 348416, Note_on_c, 3, 76, 0
17, 348672, Note_on_c, 3, 83, 47
17, 348672, Note_on_c, 3, 79, 47
17, 348928, Note_on_c, 3, 83, 0
17, 348928, Note_on_c, 3, 81, 47
17, 348928, Note_on_c, 3, 79, 0
17, 348928, Note_on_c, 3, 78, 47
17, 349184, Note_on_c, 3, 81, 0
17, 349184, Note_on_c, 3, 79, 47
17, 349184, Note_on_c, 3, 78, 0
17, 349184, Note_on_c, 3, 76, 47
17, 349440, Note_on_c, 3, 79, 0
17, 349440, Note_on_c, 3, 76, 0
17, 349696, Note_on_c, 3, 76, 47
17, 349696, Note_on_c, 3, 64, 47
17, 349952, Note_on_c, 3, 76, 0
17, 349952, Note_on_c, 3, 64, 0
17, 350208, Note_on_c, 3, 71, 47
17, 350208, Note_on_c, 3, 76, 47
17, 350464, Note_on_c, 3, 71, 0
17, 350464, Note_on_c, 3, 76, 0
17, 350720, Note_on_c, 3, 83, 47
17, 350720, Note_on_c, 3, 75, 47
17, 350976, Note_on_c, 3, 83, 0
17, 350976, Note_on_c, 3, 75, 0
17, 351232, Note_on_c, 3, 79, 47
17, 351232, Note_on_c, 3, 76, 47
17, 351488, Note_on_c, 3, 79, 0
17, 351488, Note_on_c, 3, 81, 47
17, 351488, Note_on_c, 3, 76, 0
17, 351744, Note_on_c, 3, 81, 0
17, 351744, Note_on_c, 3, 79, 47
17, 351744, Note_on_c, 3, 76, 47
17, 352000, Note_on_c, 3, 79, 0
17, 352000, Note_on_c, 3, 78, 47
17, 352000, Note_on_c, 3, 76, 0
17, 352000, Note_on_c, 3, 75, 47
17, 352256, Note_on_c, 3, 78, 0
17, 352256, Note_on_c, 3, 76, 47
17, 352256, Note_on_c, 3, 75, 0
17, 352256, Note_on_c, 3, 76, 47
17, 352512, Note_on_c, 3, 76, 0
17, 352512, Note_on_c, 3, 76, 0
17, 352768, Note_on_c, 3, 79, 47
17, 352768, Note_on_c, 3, 76, 47
17, 353024, Note_on_c, 3, 79, 0
17, 353024, Note_on_c, 3, 78, 47
17, 353024, Note_on_c, 3, 76, 0
17, 353024, Note_on_c, 3, 74, 47
17, 353280, Note_on_c, 3, 78, 0
17, 353280, Note_on_c, 3, 79, 47
17, 353280, Note_on_c, 3, 74, 0
17, 353280, Note_on_c, 3, 76, 47
17, 353536, Note_on_c, 3, 79, 0
17, 353536, Note_on_c, 3, 76, 0
17, 353792, Note_on_c, 3, 79, 47
17, 353792, Note_on_c, 3, 76, 47
17, 354048, Note_on_c, 3, 79, 0
17, 354048, Note_on_c, 3, 78, 47
17, 354048, Note_on_c, 3, 76, 0
17, 354048, Note_on_c, 3, 74, 47
17, 354304, Note_on_c, 3, 78, 0
17, 354304, Note_on_c, 3, 74, 0
17, 354304, Note_on_c, 3, 79, 47
17, 354304, Note_on_c, 3, 76, 47
17, 355328, Note_on_c, 3, 79, 0
17, 355328, Note_on_c, 3, 76, 0
17, 355840, Note_on_c, 3, 83, 47
17, 355840, Note_on_c, 3, 79, 47
17, 356096, Note_on_c, 3, 83, 0
17, 356096, Note_on_c, 3, 79, 0
17, 356352, Note_on_c, 3, 81, 47
17, 356352, Note_on_c, 3, 78, 47
17, 356608, Note_on_c, 3, 81, 0
17, 356608, Note_on_c, 3, 78, 0
17, 356864, Note_on_c, 3, 79, 47
17, 356864, Note_on_c, 3, 76, 47
17, 357120, Note_on_c, 3, 79, 0
17, 357120, Note_on_c, 3, 76, 0
17, 357376, Note_on_c, 3, 78, 47
17, 357376, Note_on_c, 3, 74, 47
17, 357632, Note_on_c, 3, 78, 0
17, 357632, Note_on_c, 3, 74, 0
17, 358912, Note_on_c, 3, 78, 47
17, 358912, Note_on_c, 3, 74, 47
17, 359168, Note_on_c, 3, 78, 0
17, 359168, Note_on_c, 3, 76, 47
17, 359168, Note_on_c, 3, 74, 0
17, 359168, Note_on_c, 3, 73, 47
17, 359424, Note_on_c, 3, 76, 0
17, 359424, Note_on_c, 3, 79, 47
17, 359424, Note_on_c, 3, 73, 0
17, 359424, Note_on_c, 3, 76, 47
17, 359680, Note_on_c, 3, 79, 0
17, 359680, Note_on_c, 3, 76, 0
17, 359936, Note_on_c, 3, 78, 47
17, 359936, Note_on_c, 3, 74, 47
17, 360192, Note_on_c, 3, 78, 0
17, 360192, Note_on_c, 3, 76, 47
17, 360192, Note_on_c, 3, 74, 0
17, 360192, Note_on_c, 3, 73, 47
17, 360448, Note_on_c, 3, 76, 0
17, 360448, Note_on_c, 3, 73, 0
17, 360448, Note_on_c, 3, 78, 47
17, 360448, Note_on_c, 3, 74, 47
17, 360704, Note_on_c, 3, 78, 0
17, 360704, Note_on_c, 3, 74, 0
17, 360960, Note_on_c, 3, 81, 47
17, 360960, Note_on_c, 3, 78, 47
17, 361216, Note_on_c, 3, 81, 0
17, 361216, Note_on_c, 3, 79, 47
17, 361216, Note_on_c, 3, 78, 0
17, 361216, Note_on_c, 3, 76, 47
17, 361472, Note_on_c, 3, 79, 0
17, 361472, Note_on_c, 3, 78, 47
17, 361472, Note_on_c, 3, 76, 0
17, 361472, Note_on_c, 3, 74, 47
17, 361728, Note_on_c, 3, 78, 0
17, 361728, Note_on_c, 3, 74, 0
17, 361984, Note_on_c, 3, 74, 47
17, 361984, Note_on_c, 3, 62, 47
17, 362240, Note_on_c, 3, 74, 0
17, 362240, Note_on_c, 3, 62, 0
17, 362496, Note_on_c, 3, 69, 47
17, 362496, Note_on_c, 3, 74, 47
17, 362752, Note_on_c, 3, 69, 0
17, 362752, Note_on_c, 3, 74, 0
17, 363008, Note_on_c, 3, 81, 47
17, 363008, Note_on_c, 3, 73, 47
17, 363264, Note_on_c, 3, 81, 0
17, 363264, Note_on_c, 3, 73, 0
17, 363520, Note_on_c, 3, 78, 47
17, 363520, Note_on_c, 3, 74, 47
17, 363776, Note_on_c, 3, 78, 0
17, 363776, Note_on_c, 3, 79, 47
17, 363776, Note_on_c, 3, 74, 0
17, 364032, Note_on_c, 3, 79, 0
17, 364032, Note_on_c, 3, 78, 47
17, 364032, Note_on_c, 3, 74, 47
17, 364288, Note_on_c, 3, 78, 0
17, 364288, Note_on_c, 3, 76, 47
17, 364288, Note_on_c, 3, 74, 0
17, 364288, Note_on_c, 3, 73, 47
17, 364544, Note_on_c, 3, 76, 0
17, 364544, Note_on_c, 3, 74, 47
17, 364544, Note_on_c, 3, 73, 0
17, 364544, Note_on_c, 3, 74, 47
17, 364800, Note_on_c, 3, 74, 0
17, 364800, Note_on_c, 3, 76, 47
17, 364800, Note_on_c, 3, 74, 0
17, 364800, Note_on_c, 3, 73, 47
17, 365056, Note_on_c, 3, 76, 0
17, 365056, Note_on_c, 3, 78, 47
17, 365056, Note_on_c, 3, 73, 0
17, 365056, Note_on_c, 3, 74, 47
17, 365312, Note_on_c, 3, 78, 0
17, 365312, Note_on_c, 3, 79, 47
17, 365312, Note_on_c, 3, 74, 0
17, 365312, Note_on_c, 3, 76, 47
17, 365568, Note_on_c, 3, 79, 0
17, 365568, Note_on_c, 3, 81, 47
17, 365568, Note_on_c, 3, 76, 0
17, 365568, Note_on_c, 3, 78, 47
17, 365824, Note_on_c, 3, 81, 0
17, 365824, Note_on_c, 3, 83, 47
17, 365824, Note_on_c, 3, 78, 0
17, 365824, Note_on_c, 3, 79, 47
17, 366080, Note_on_c, 3, 83, 0
17, 366080, Note_on_c, 3, 81, 47
17, 366080, Note_on_c, 3, 79, 0
17, 366080, Note_on_c, 3, 78, 47
17, 366336, Note_on_c, 3, 81, 0
17, 366336, Note_on_c, 3, 83, 47
17, 366336, Note_on_c, 3, 78, 0
17, 366336, Note_on_c, 3, 79, 47
17, 366592, Note_on_c, 3, 83, 0
17, 366592, Note_on_c, 3, 79, 0
17, 366592, Note_on_c, 3, 81, 47
17, 366592, Note_on_c, 3, 78, 47
17, 366848, Note_on_c, 3, 81, 0
17, 366848, Note_on_c, 3, 83, 47
17, 366848, Note_on_c, 3, 78, 0
17, 367104, Note_on_c, 3, 83, 0
17, 367104, Note_on_c, 3, 81, 47
17, 367104, Note_on_c, 3, 73, 47
17, 367360, Note_on_c, 3, 81, 0
17, 367360, Note_on_c, 3, 83, 47
17, 367360, Note_on_c, 3, 73, 0
17, 367616, Note_on_c, 3, 83, 0
17, 367616, Note_on_c, 3, 81, 47
17, 367616, Note_on_c, 3, 74, 47
17, 367872, Note_on_c, 3, 81, 0
17, 367872, Note_on_c, 3, 79, 47
17, 367872, Note_on_c, 3, 74, 0
17, 368128, Note_on_c, 3, 79, 0
17, 368128, Note_on_c, 3, 78, 47
17, 368128, Note_on_c, 3, 69, 47
17, 368384, Note_on_c, 3, 78, 0
17, 368384, Note_on_c, 3, 79, 47
17, 368384, Note_on_c, 3, 69, 0
17, 368640, Note_on_c, 3, 79, 0
17, 368640, Note_on_c, 3, 81, 47
17, 368640, Note_on_c, 3, 69, 47
17, 368896, Note_on_c, 3, 81, 0
17, 368896, Note_on_c, 3, 79, 47
17, 368896, Note_on_c, 3, 69, 0
17, 369152, Note_on_c, 3, 79, 0
17, 369152, Note_on_c, 3, 78, 47
17, 369152, Note_on_c, 3, 69, 47
17, 369408, Note_on_c, 3, 78, 0
17, 369408, Note_on_c, 3, 76, 47
17, 369408, Note_on_c, 3, 69, 0
17, 369664, Note_on_c, 3, 76, 0
17, 369664, Note_on_c, 3, 74, 48
17, 369664, Note_on_c, 3, 71, 48
17, 369920, Note_on_c, 3, 74, 0
17, 369920, Note_on_c, 3, 76, 50
17, 369920, Note_on_c, 3, 71, 0
17, 369920, Note_on_c, 3, 70, 50
17, 370176, Note_on_c, 3, 76, 0
17, 370176, Note_on_c, 3, 74, 52
17, 370176, Note_on_c, 3, 70, 0
17, 370176, Note_on_c, 3, 71, 52
17, 370432, Note_on_c, 3, 74, 0
17, 370432, Note_on_c, 3, 73, 54
17, 370432, Note_on_c, 3, 71, 0
17, 370432, Note_on_c, 3, 73, 54
17, 370688, Note_on_c, 3, 73, 0
17, 370688, Note_on_c, 3, 71, 56
17, 370688, Note_on_c, 3, 73, 0
17, 370688, Note_on_c, 3, 74, 56
17, 370944, Note_on_c, 3, 71, 0
17, 370944, Note_on_c, 3, 70, 58
17, 370944, Note_on_c, 3, 74, 0
17, 371200, Note_on_c, 3, 70, 0
17, 371200, Note_on_c, 3, 71, 60
17, 371200, Note_on_c, 3, 78, 60
17, 371456, Note_on_c, 3, 71, 0
17, 371456, Note_on_c, 3, 73, 62
17, 371456, Note_on_c, 3, 78, 0
17, 371712, Note_on_c, 3, 73, 0
17, 371712, Note_on_c, 3, 74, 64
17, 371712, Note_on_c, 3, 71, 64
17, 371968, Note_on_c, 3, 74, 0
17, 371968, Note_on_c, 3, 76, 67
17, 371968, Note_on_c, 3, 71, 0
17, 372224, Note_on_c, 3, 76, 0
17, 372224, Note_on_c, 3, 78, 69
17, 372224, Note_on_c, 3, 71, 69
17, 372480, Note_on_c, 3, 78, 0
17, 372480, Note_on_c, 3, 79, 71
17, 372480, Note_on_c, 3, 71, 0
17, 372736, Note_on_c, 3, 79, 0
17, 372736, Note_on_c, 3, 81, 73
17, 372736, Note_on_c, 3, 78, 73
17, 372992, Note_on_c, 3, 81, 0
17, 372992, Note_on_c, 3, 78, 0
17, 374272, Note_on_c, 3, 81, 58
17, 374272, Note_on_c, 3, 78, 58
17, 374528, Note_on_c, 3, 81, 0
17, 374528, Note_on_c, 3, 79, 59
17, 374528, Note_on_c, 3, 78, 0
17, 374528, Note_on_c, 3, 76, 59
17, 374784, Note_on_c, 3, 79, 0
17, 374784, Note_on_c, 3, 81, 61
17, 374784, Note_on_c, 3, 76, 0
17, 374784, Note_on_c, 3, 78, 61
17, 375040, Note_on_c, 3, 81, 0
17, 375040, Note_on_c, 3, 78, 0
17, 375296, Note_on_c, 3, 83, 63
17, 375296, Note_on_c, 3, 79, 63
17, 375552, Note_on_c, 3, 83, 0
17, 375552, Note_on_c, 3, 81, 65
17, 375552, Note_on_c, 3, 79, 0
17, 375552, Note_on_c, 3, 78, 65
17, 375808, Note_on_c, 3, 81, 0
17, 375808, Note_on_c, 3, 78, 0
17, 375808, Note_on_c, 3, 79, 66
17, 375808, Note_on_c, 3, 76, 66
17, 376064, Note_on_c, 3, 79, 0
17, 376064, Note_on_c, 3, 76, 0
17, 377344, Note_on_c, 3, 79, 57
17, 377344, Note_on_c, 3, 76, 57
17, 377600, Note_on_c, 3, 79, 0
17, 377600, Note_on_c, 3, 78, 58
17, 377600, Note_on_c, 3, 76, 0
17, 377600, Note_on_c, 3, 74, 58
17, 377856, Note_on_c, 3, 78, 0
17, 377856, Note_on_c, 3, 79, 60
17, 377856, Note_on_c, 3, 74, 0
17, 377856, Note_on_c, 3, 76, 60
17, 378112, Note_on_c, 3, 79, 0
17, 378112, Note_on_c, 3, 76, 0
17, 378368, Note_on_c, 3, 81, 63
17, 378368, Note_on_c, 3, 78, 63
17, 378624, Note_on_c, 3, 81, 0
17, 378624, Note_on_c, 3, 79, 65
17, 378624, Note_on_c, 3, 78, 0
17, 378624, Note_on_c, 3, 76, 65
17, 378880, Note_on_c, 3, 79, 0
17, 378880, Note_on_c, 3, 76, 0
17, 378880, Note_on_c, 3, 78, 66
17, 378880, Note_on_c, 3, 74, 66
17, 379136, Note_on_c, 3, 78, 0
17, 379136, Note_on_c, 3, 74, 0
17, 380416, Note_on_c, 3, 78, 55
17, 380416, Note_on_c, 3, 74, 55
17, 380672, Note_on_c, 3, 78, 0
17, 380672, Note_on_c, 3, 76, 56
17, 380672, Note_on_c, 3, 74, 0
17, 380672, Note_on_c, 3, 73, 56
17, 380928, Note_on_c, 3, 76, 0
17, 380928, Note_on_c, 3, 78, 58
17, 380928, Note_on_c, 3, 73, 0
17, 380928, Note_on_c, 3, 74, 58
17, 381184, Note_on_c, 3, 78, 0
17, 381184, Note_on_c, 3, 74, 0
17, 381440, Note_on_c, 3, 79, 62
17, 381440, Note_on_c, 3, 74, 62
17, 381696, Note_on_c, 3, 79, 0
17, 381696, Note_on_c, 3, 78, 64
17, 381696, Note_on_c, 3, 74, 0
17, 381952, Note_on_c, 3, 78, 0
17, 381952, Note_on_c, 3, 76, 35
17, 382208, Note_on_c, 3, 76, 0
17, 383488, Note_on_c, 3, 76, 47
17, 383744, Note_on_c, 3, 76, 0
17, 383744, Note_on_c, 3, 78, 49
17, 384000, Note_on_c, 3, 78, 0
17, 384000, Note_on_c, 3, 76, 51
17, 384256, Note_on_c, 3, 76, 0
17, 384512, Note_on_c, 3, 76, 56
17, 384768, Note_on_c, 3, 76, 0
17, 384768, Note_on_c, 3, 78, 58
17, 385024, Note_on_c, 3, 78, 0
17, 385024, Note_on_c, 3, 79, 60
17, 385280, Note_on_c, 3, 79, 0
17, 386560, Note_on_c, 3, 79, 56
17, 386816, Note_on_c, 3, 79, 0
17, 386816, Note_on_c, 3, 78, 58
17, 387072, Note_on_c, 3, 78, 0
17, 387072, Note_on_c, 3, 79, 60
17, 387328, Note_on_c, 3, 79, 0
17, 387584, Note_on_c, 3, 76, 65
17, 387840, Note_on_c, 3, 76, 0
17, 388096, Note_on_c, 3, 78, 69
17, 388352, Note_on_c, 3, 78, 0
17, 389632, Note_on_c, 3, 78, 70
17, 389888, Note_on_c, 3, 78, 0
17, 389888, Note_on_c, 3, 79, 72
17, 390144, Note_on_c, 3, 79, 0
17, 390144, Note_on_c, 3, 78, 75
17, 390400, Note_on_c, 3, 78, 0
17, 390656, Note_on_c, 3, 78, 80
17, 390912, Note_on_c, 3, 78, 0
17, 390912, Note_on_c, 3, 79, 82
17, 391168, Note_on_c, 3, 79, 0
17, 391168, Note_on_c, 3, 81, 85
17, 391168, Note_on_c, 3, 76, 85
17, 391424, Note_on_c, 3, 81, 0
17, 391424, Note_on_c, 3, 76, 0
17, 391680, Note_on_c, 3, 75, 85
17, 391936, Note_on_c, 3, 75, 0
17, 392704, Note_on_c, 3, 81, 93
17, 392704, Note_on_c, 3, 78, 93
17, 392960, Note_on_c, 3, 81, 0
17, 392960, Note_on_c, 3, 79, 95
17, 392960, Note_on_c, 3, 78, 0
17, 392960, Note_on_c, 3, 76, 95
17, 393216, Note_on_c, 3, 79, 0
17, 393216, Note_on_c, 3, 81, 97
17, 393216, Note_on_c, 3, 76, 0
17, 393216, Note_on_c, 3, 78, 97
17, 393472, Note_on_c, 3, 81, 0
17, 393472, Note_on_c, 3, 78, 0
17, 393728, Note_on_c, 3, 78, 100
17, 393728, Note_on_c, 3, 75, 100
17, 393984, Note_on_c, 3, 78, 0
17, 393984, Note_on_c, 3, 75, 0
17, 394240, Note_on_c, 3, 79, 104
17, 394240, Note_on_c, 3, 76, 104
17, 394496, Note_on_c, 3, 79, 0
17, 394496, Note_on_c, 3, 76, 0
17, 394752, Note_on_c, 3, 81, 106
17, 394752, Note_on_c, 3, 76, 106
17, 395008, Note_on_c, 3, 81, 0
17, 395008, Note_on_c, 3, 79, 106
17, 395008, Note_on_c, 3, 76, 0
17, 395264, Note_on_c, 3, 79, 0
17, 395264, Note_on_c, 3, 78, 107
17, 395264, Note_on_c, 3, 74, 107
17, 395520, Note_on_c, 3, 78, 0
17, 395520, Note_on_c, 3, 74, 0
17, 395776, Note_on_c, 3, 83, 108
17, 395776, Note_on_c, 3, 74, 108
17, 396032, Note_on_c, 3, 83, 0
17, 396032, Note_on_c, 3, 74, 0
17, 396288, Note_on_c, 3, 81, 109
17, 396288, Note_on_c, 3, 74, 109
17, 396544, Note_on_c, 3, 81, 0
17, 396544, Note_on_c, 3, 79, 109
17, 396544, Note_on_c, 3, 74, 0
17, 396800, Note_on_c, 3, 79, 0
17, 396800, Note_on_c, 3, 78, 110
17, 396800, Note_on_c, 3, 69, 110
17, 397056, Note_on_c, 3, 78, 0
17, 397056, Note_on_c, 3, 76, 110
17, 397056, Note_on_c, 3, 69, 0
17, 397312, Note_on_c, 3, 76, 0
17, 397312, Note_on_c, 3, 74, 111
17, 397312, Note_on_c, 3, 74, 111
17, 397568, Note_on_c, 3, 74, 0
17, 397568, Note_on_c, 3, 76, 111
17, 397568, Note_on_c, 3, 74, 0
17, 397568, Note_on_c, 3, 73, 111
17, 397824, Note_on_c, 3, 76, 0
17, 397824, Note_on_c, 3, 78, 112
17, 397824, Note_on_c, 3, 73, 0
17, 397824, Note_on_c, 3, 74, 112
17, 398080, Note_on_c, 3, 78, 0
17, 398080, Note_on_c, 3, 79, 112
17, 398080, Note_on_c, 3, 74, 0
17, 398080, Note_on_c, 3, 76, 112
17, 398336, Note_on_c, 3, 79, 0
17, 398336, Note_on_c, 3, 81, 113
17, 398336, Note_on_c, 3, 76, 0
17, 398336, Note_on_c, 3, 78, 113
17, 398592, Note_on_c, 3, 81, 0
17, 398592, Note_on_c, 3, 78, 0
17, 398848, Note_on_c, 3, 74, 114
17, 398848, Note_on_c, 3, 71, 114
17, 399104, Note_on_c, 3, 74, 0
17, 399104, Note_on_c, 3, 71, 0
17, 399360, Note_on_c, 3, 69, 115
17, 399360, Note_on_c, 3, 69, 115
17, 399616, Note_on_c, 3, 69, 0
17, 399616, Note_on_c, 3, 69, 0
17, 399872, Note_on_c, 3, 73, 116
17, 399872, Note_on_c, 3, 64, 116
17, 400128, Note_on_c, 3, 73, 0
17, 400128, Note_on_c, 3, 64, 0
17, 400384, Note_on_c, 3, 74, 117
17, 400384, Note_on_c, 3, 66, 117
17, 403456, Note_on_c, 3, 74, 0
17, 403456, Note_on_c, 3, 66, 0
17, 409600, End_track
0, 0, End_of_file
