0, 0, Header, 1, 3, 384
1, 0, Start_track
1, 0, Title_t, "untitled"
1, 0, Text_t, "harpsichord: John Sankey\012"
1, 0, SMPTE_offset, 96, 0, 3, 0, 0
1, 0, Time_signature, 8, 3, 12, 8
1, 0, Key_signature, 0, "major"
1, 0, Tempo, 666667
1, 87552, Tempo, 857143
1, 125952, Tempo, 631579
1, 127488, Time_signature, 6, 3, 12, 8
1, 127488, End_track
2, 0, Start_track
2, 0, MIDI_port, 0
2, 0, Title_t, "Bach J.S."
2, 0, Program_c, 0, 0
2, 0, Pitch_bend_c, 0, 8192
2, 0, Pitch_bend_c, 0, 7790
2, 0, Pitch_bend_c, 0, 7876
2, 0, Pitch_bend_c, 0, 7952
2, 0, Pitch_bend_c, 0, 7792
2, 0, Pitch_bend_c, 0, 8112
2, 0, Pitch_bend_c, 0, 7710
2, 0, Pitch_bend_c, 0, 8037
2, 0, Pitch_bend_c, 0, 7870
2, 0, Pitch_bend_c, 0, 7712
2, 0, Pitch_bend_c, 0, 8032
2, 0, Pitch_bend_c, 0, 7872
2, 96, Note_on_c, 0, 79, 127
2, 287, Note_on_c, 0, 79, 0
2, 288, Note_on_c, 0, 78, 127
2, 383, Note_on_c, 0, 78, 0
2, 384, Note_on_c, 0, 76, 127
2, 479, Note_on_c, 0, 76, 0
2, 480, Note_on_c, 0, 74, 127
2, 575, Note_on_c, 0, 74, 0
2, 576, Note_on_c, 0, 72, 127
2, 671, Note_on_c, 0, 72, 0
2, 672, Note_on_c, 0, 71, 127
2, 767, Note_on_c, 0, 71, 0
2, 768, Note_on_c, 0, 69, 127
2, 832, Note_on_c, 0, 69, 0
2, 864, Note_on_c, 0, 79, 127
2, 1055, Note_on_c, 0, 79, 0
2, 1056, Note_on_c, 0, 78, 127
2, 1151, Note_on_c, 0, 78, 0
2, 1152, Note_on_c, 0, 76, 127
2, 1247, Note_on_c, 0, 76, 0
2, 1248, Note_on_c, 0, 74, 127
2, 1343, Note_on_c, 0, 74, 0
2, 1344, Note_on_c, 0, 72, 127
2, 1439, Note_on_c, 0, 72, 0
2, 1440, Note_on_c, 0, 71, 127
2, 1535, Note_on_c, 0, 71, 0
2, 1536, Note_on_c, 0, 69, 127
2, 1631, Note_on_c, 0, 69, 0
2, 1632, Note_on_c, 0, 67, 127
2, 1728, Note_on_c, 0, 74, 127
2, 1822, Note_on_c, 0, 67, 0
2, 1823, Note_on_c, 0, 74, 0
2, 1824, Note_on_c, 0, 71, 127
2, 1919, Note_on_c, 0, 71, 0
2, 1920, Note_on_c, 0, 67, 127
2, 2015, Note_on_c, 0, 67, 0
2, 2016, Note_on_c, 0, 71, 127
2, 2111, Note_on_c, 0, 71, 0
2, 2112, Note_on_c, 0, 62, 127
2, 2207, Note_on_c, 0, 62, 0
2, 2208, Note_on_c, 0, 67, 127
2, 2303, Note_on_c, 0, 67, 0
2, 2304, Note_on_c, 0, 55, 127
2, 2399, Note_on_c, 0, 55, 0
2, 2400, Note_on_c, 0, 67, 127
2, 2496, Note_on_c, 0, 74, 127
2, 2590, Note_on_c, 0, 67, 0
2, 2591, Note_on_c, 0, 74, 0
2, 2592, Note_on_c, 0, 71, 127
2, 2687, Note_on_c, 0, 71, 0
2, 2688, Note_on_c, 0, 67, 127
2, 2783, Note_on_c, 0, 67, 0
2, 2784, Note_on_c, 0, 71, 127
2, 2879, Note_on_c, 0, 71, 0
2, 2880, Note_on_c, 0, 62, 127
2, 2975, Note_on_c, 0, 62, 0
2, 2976, Note_on_c, 0, 67, 127
2, 3071, Note_on_c, 0, 67, 0
2, 3072, Note_on_c, 0, 55, 127
2, 3167, Note_on_c, 0, 55, 0
2, 3168, Note_on_c, 0, 67, 127
2, 3264, Note_on_c, 0, 74, 127
2, 3358, Note_on_c, 0, 67, 0
2, 3359, Note_on_c, 0, 74, 0
2, 3360, Note_on_c, 0, 71, 127
2, 3455, Note_on_c, 0, 71, 0
2, 3456, Note_on_c, 0, 67, 127
2, 3551, Note_on_c, 0, 67, 0
2, 3552, Note_on_c, 0, 71, 127
2, 3647, Note_on_c, 0, 71, 0
2, 3648, Note_on_c, 0, 62, 127
2, 3743, Note_on_c, 0, 62, 0
2, 3744, Note_on_c, 0, 67, 127
2, 3839, Note_on_c, 0, 67, 0
2, 3840, Note_on_c, 0, 55, 127
2, 3935, Note_on_c, 0, 55, 0
2, 3936, Note_on_c, 0, 74, 127
2, 4127, Note_on_c, 0, 74, 0
2, 4128, Note_on_c, 0, 59, 127
2, 4128, Note_on_c, 0, 67, 127
2, 4128, Note_on_c, 0, 62, 127
2, 4128, Note_on_c, 0, 71, 127
2, 4128, Note_on_c, 0, 79, 127
2, 4128, Note_on_c, 0, 74, 127
2, 4298, Note_on_c, 0, 74, 0
2, 4298, Note_on_c, 0, 67, 0
2, 4298, Note_on_c, 0, 62, 0
2, 4298, Note_on_c, 0, 59, 0
2, 4298, Note_on_c, 0, 79, 0
2, 4298, Note_on_c, 0, 71, 0
2, 4320, Note_on_c, 0, 66, 127
2, 4320, Note_on_c, 0, 60, 127
2, 4320, Note_on_c, 0, 57, 127
2, 4320, Note_on_c, 0, 72, 127
2, 4320, Note_on_c, 0, 69, 127
2, 4320, Note_on_c, 0, 78, 127
2, 4490, Note_on_c, 0, 78, 0
2, 4490, Note_on_c, 0, 60, 0
2, 4490, Note_on_c, 0, 57, 0
2, 4490, Note_on_c, 0, 66, 0
2, 4490, Note_on_c, 0, 69, 0
2, 4490, Note_on_c, 0, 72, 0
2, 4512, Note_on_c, 0, 64, 127
2, 4512, Note_on_c, 0, 59, 127
2, 4512, Note_on_c, 0, 55, 127
2, 4512, Note_on_c, 0, 71, 127
2, 4512, Note_on_c, 0, 76, 127
2, 4512, Note_on_c, 0, 67, 127
2, 4682, Note_on_c, 0, 67, 0
2, 4682, Note_on_c, 0, 59, 0
2, 4682, Note_on_c, 0, 55, 0
2, 4682, Note_on_c, 0, 64, 0
2, 4682, Note_on_c, 0, 76, 0
2, 4682, Note_on_c, 0, 71, 0
2, 4704, Note_on_c, 0, 57, 127
2, 4704, Note_on_c, 0, 62, 127
2, 4704, Note_on_c, 0, 54, 127
2, 4704, Note_on_c, 0, 66, 127
2, 4704, Note_on_c, 0, 74, 127
2, 4704, Note_on_c, 0, 69, 127
2, 4874, Note_on_c, 0, 69, 0
2, 4874, Note_on_c, 0, 62, 0
2, 4874, Note_on_c, 0, 54, 0
2, 4874, Note_on_c, 0, 57, 0
2, 4874, Note_on_c, 0, 74, 0
2, 4874, Note_on_c, 0, 66, 0
2, 4896, Note_on_c, 0, 52, 127
2, 4896, Note_on_c, 0, 60, 127
2, 4896, Note_on_c, 0, 55, 127
2, 4896, Note_on_c, 0, 64, 127
2, 4896, Note_on_c, 0, 72, 127
2, 4896, Note_on_c, 0, 67, 127
2, 5066, Note_on_c, 0, 67, 0
2, 5066, Note_on_c, 0, 60, 0
2, 5066, Note_on_c, 0, 55, 0
2, 5066, Note_on_c, 0, 52, 0
2, 5066, Note_on_c, 0, 72, 0
2, 5066, Note_on_c, 0, 64, 0
2, 5088, Note_on_c, 0, 54, 127
2, 5088, Note_on_c, 0, 59, 127
2, 5088, Note_on_c, 0, 50, 127
2, 5088, Note_on_c, 0, 66, 127
2, 5088, Note_on_c, 0, 71, 127
2, 5088, Note_on_c, 0, 62, 127
2, 5258, Note_on_c, 0, 62, 0
2, 5258, Note_on_c, 0, 59, 0
2, 5258, Note_on_c, 0, 50, 0
2, 5258, Note_on_c, 0, 54, 0
2, 5258, Note_on_c, 0, 71, 0
2, 5258, Note_on_c, 0, 66, 0
2, 5280, Note_on_c, 0, 57, 127
2, 5280, Note_on_c, 0, 52, 127
2, 5280, Note_on_c, 0, 48, 127
2, 5280, Note_on_c, 0, 64, 127
2, 5280, Note_on_c, 0, 60, 127
2, 5280, Note_on_c, 0, 69, 127
2, 5450, Note_on_c, 0, 69, 0
2, 5450, Note_on_c, 0, 52, 0
2, 5450, Note_on_c, 0, 48, 0
2, 5450, Note_on_c, 0, 57, 0
2, 5450, Note_on_c, 0, 60, 0
2, 5450, Note_on_c, 0, 64, 0
2, 5472, Note_on_c, 0, 55, 127
2, 5472, Note_on_c, 0, 50, 127
2, 5472, Note_on_c, 0, 47, 127
2, 5472, Note_on_c, 0, 62, 127
2, 5472, Note_on_c, 0, 59, 127
2, 5472, Note_on_c, 0, 67, 127
2, 5663, Note_on_c, 0, 67, 0
2, 5663, Note_on_c, 0, 50, 0
2, 5663, Note_on_c, 0, 47, 0
2, 5663, Note_on_c, 0, 59, 0
2, 5664, Note_on_c, 0, 48, 127
2, 5664, Note_on_c, 0, 67, 127
2, 5664, Note_on_c, 0, 64, 127
2, 5664, Note_on_c, 0, 69, 127
2, 5852, Note_on_c, 0, 55, 0
2, 5852, Note_on_c, 0, 62, 0
2, 5855, Note_on_c, 0, 64, 0
2, 5855, Note_on_c, 0, 67, 0
2, 5855, Note_on_c, 0, 69, 0
2, 5855, Note_on_c, 0, 48, 0
2, 5856, Note_on_c, 0, 55, 127
2, 5856, Note_on_c, 0, 50, 127
2, 5856, Note_on_c, 0, 71, 127
2, 5856, Note_on_c, 0, 62, 127
2, 5856, Note_on_c, 0, 67, 127
2, 5951, Note_on_c, 0, 71, 0
2, 5952, Note_on_c, 0, 72, 127
2, 6036, Note_on_c, 0, 62, 0
2, 6036, Note_on_c, 0, 67, 0
2, 6047, Note_on_c, 0, 72, 0
2, 6047, Note_on_c, 0, 55, 0
2, 6048, Note_on_c, 0, 38, 127
2, 6048, Note_on_c, 0, 66, 127
2, 6048, Note_on_c, 0, 69, 127
2, 6048, Note_on_c, 0, 60, 127
2, 6143, Note_on_c, 0, 69, 0
2, 6144, Note_on_c, 0, 71, 127
2, 6228, Note_on_c, 0, 66, 0
2, 6228, Note_on_c, 0, 60, 0
2, 6236, Note_on_c, 0, 50, 0
2, 6239, Note_on_c, 0, 38, 0
2, 6239, Note_on_c, 0, 71, 0
2, 6240, Note_on_c, 0, 43, 127
2, 6240, Note_on_c, 0, 67, 127
2, 6240, Note_on_c, 0, 62, 127
2, 6240, Note_on_c, 0, 59, 127
2, 6431, Note_on_c, 0, 59, 0
2, 6431, Note_on_c, 0, 43, 0
2, 6431, Note_on_c, 0, 67, 0
2, 6431, Note_on_c, 0, 62, 0
2, 6432, Note_on_c, 0, 71, 127
2, 6432, Note_on_c, 0, 79, 127
2, 6527, Note_on_c, 0, 79, 0
2, 6528, Note_on_c, 0, 74, 127
2, 6623, Note_on_c, 0, 74, 0
2, 6623, Note_on_c, 0, 71, 0
2, 6624, Note_on_c, 0, 66, 127
2, 6624, Note_on_c, 0, 81, 127
2, 6719, Note_on_c, 0, 81, 0
2, 6720, Note_on_c, 0, 74, 127
2, 6815, Note_on_c, 0, 74, 0
2, 6815, Note_on_c, 0, 66, 0
2, 6816, Note_on_c, 0, 67, 127
2, 6816, Note_on_c, 0, 83, 127
2, 6911, Note_on_c, 0, 83, 0
2, 6912, Note_on_c, 0, 74, 127
2, 7007, Note_on_c, 0, 74, 0
2, 7007, Note_on_c, 0, 67, 0
2, 7008, Note_on_c, 0, 66, 127
2, 7008, Note_on_c, 0, 62, 127
2, 7008, Note_on_c, 0, 81, 127
2, 7103, Note_on_c, 0, 81, 0
2, 7104, Note_on_c, 0, 74, 127
2, 7199, Note_on_c, 0, 74, 0
2, 7199, Note_on_c, 0, 62, 0
2, 7199, Note_on_c, 0, 66, 0
2, 7200, Note_on_c, 0, 71, 127
2, 7200, Note_on_c, 0, 79, 127
2, 7295, Note_on_c, 0, 79, 0
2, 7296, Note_on_c, 0, 74, 127
2, 7391, Note_on_c, 0, 74, 0
2, 7391, Note_on_c, 0, 71, 0
2, 7392, Note_on_c, 0, 66, 127
2, 7392, Note_on_c, 0, 81, 127
2, 7487, Note_on_c, 0, 81, 0
2, 7488, Note_on_c, 0, 74, 127
2, 7583, Note_on_c, 0, 74, 0
2, 7583, Note_on_c, 0, 66, 0
2, 7584, Note_on_c, 0, 67, 127
2, 7584, Note_on_c, 0, 83, 127
2, 7679, Note_on_c, 0, 83, 0
2, 7680, Note_on_c, 0, 74, 127
2, 7775, Note_on_c, 0, 74, 0
2, 7775, Note_on_c, 0, 67, 0
2, 7776, Note_on_c, 0, 62, 127
2, 7776, Note_on_c, 0, 66, 127
2, 7776, Note_on_c, 0, 81, 127
2, 7871, Note_on_c, 0, 81, 0
2, 7872, Note_on_c, 0, 74, 127
2, 7967, Note_on_c, 0, 74, 0
2, 7967, Note_on_c, 0, 66, 0
2, 7967, Note_on_c, 0, 62, 0
2, 7968, Note_on_c, 0, 67, 127
2, 7968, Note_on_c, 0, 83, 127
2, 7968, Note_on_c, 0, 74, 127
2, 8063, Note_on_c, 0, 67, 0
2, 8064, Note_on_c, 0, 62, 127
2, 8159, Note_on_c, 0, 62, 0
2, 8159, Note_on_c, 0, 74, 0
2, 8159, Note_on_c, 0, 83, 0
2, 8160, Note_on_c, 0, 69, 127
2, 8160, Note_on_c, 0, 78, 127
2, 8160, Note_on_c, 0, 74, 127
2, 8255, Note_on_c, 0, 69, 0
2, 8256, Note_on_c, 0, 62, 127
2, 8351, Note_on_c, 0, 62, 0
2, 8351, Note_on_c, 0, 74, 0
2, 8351, Note_on_c, 0, 78, 0
2, 8352, Note_on_c, 0, 71, 127
2, 8352, Note_on_c, 0, 79, 127
2, 8352, Note_on_c, 0, 74, 127
2, 8447, Note_on_c, 0, 71, 0
2, 8448, Note_on_c, 0, 62, 127
2, 8543, Note_on_c, 0, 62, 0
2, 8543, Note_on_c, 0, 74, 0
2, 8543, Note_on_c, 0, 79, 0
2, 8544, Note_on_c, 0, 69, 127
2, 8544, Note_on_c, 0, 74, 127
2, 8544, Note_on_c, 0, 78, 127
2, 8639, Note_on_c, 0, 69, 0
2, 8640, Note_on_c, 0, 62, 127
2, 8735, Note_on_c, 0, 62, 0
2, 8735, Note_on_c, 0, 78, 0
2, 8735, Note_on_c, 0, 74, 0
2, 8736, Note_on_c, 0, 67, 127
2, 8736, Note_on_c, 0, 83, 127
2, 8736, Note_on_c, 0, 74, 127
2, 8831, Note_on_c, 0, 67, 0
2, 8832, Note_on_c, 0, 62, 127
2, 8927, Note_on_c, 0, 62, 0
2, 8927, Note_on_c, 0, 74, 0
2, 8927, Note_on_c, 0, 83, 0
2, 8928, Note_on_c, 0, 69, 127
2, 8928, Note_on_c, 0, 78, 127
2, 8928, Note_on_c, 0, 74, 127
2, 9023, Note_on_c, 0, 69, 0
2, 9024, Note_on_c, 0, 62, 127
2, 9119, Note_on_c, 0, 62, 0
2, 9119, Note_on_c, 0, 74, 0
2, 9119, Note_on_c, 0, 78, 0
2, 9120, Note_on_c, 0, 71, 127
2, 9120, Note_on_c, 0, 79, 127
2, 9120, Note_on_c, 0, 74, 127
2, 9215, Note_on_c, 0, 71, 0
2, 9216, Note_on_c, 0, 62, 127
2, 9311, Note_on_c, 0, 62, 0
2, 9311, Note_on_c, 0, 74, 0
2, 9311, Note_on_c, 0, 79, 0
2, 9312, Note_on_c, 0, 66, 127
2, 9312, Note_on_c, 0, 81, 127
2, 9312, Note_on_c, 0, 74, 127
2, 9503, Note_on_c, 0, 74, 0
2, 9503, Note_on_c, 0, 81, 0
2, 9503, Note_on_c, 0, 66, 0
2, 9504, Note_on_c, 0, 67, 127
2, 9504, Note_on_c, 0, 83, 127
2, 9504, Note_on_c, 0, 74, 127
2, 9599, Note_on_c, 0, 74, 0
2, 9599, Note_on_c, 0, 83, 0
2, 9600, Note_on_c, 0, 76, 127
2, 9695, Note_on_c, 0, 76, 0
2, 9695, Note_on_c, 0, 67, 0
2, 9696, Note_on_c, 0, 69, 127
2, 9696, Note_on_c, 0, 78, 127
2, 9696, Note_on_c, 0, 74, 127
2, 9887, Note_on_c, 0, 74, 0
2, 9887, Note_on_c, 0, 78, 0
2, 9887, Note_on_c, 0, 69, 0
2, 9888, Note_on_c, 0, 76, 127
2, 9888, Note_on_c, 0, 57, 127
2, 9888, Note_on_c, 0, 73, 127
2, 9983, Note_on_c, 0, 73, 0
2, 9983, Note_on_c, 0, 76, 0
2, 9984, Note_on_c, 0, 74, 127
2, 10079, Note_on_c, 0, 74, 0
2, 10079, Note_on_c, 0, 57, 0
2, 10080, Note_on_c, 0, 62, 127
2, 10080, Note_on_c, 0, 74, 127
2, 10271, Note_on_c, 0, 74, 0
2, 10271, Note_on_c, 0, 62, 0
2, 10272, Note_on_c, 0, 50, 127
2, 10272, Note_on_c, 0, 73, 127
2, 10367, Note_on_c, 0, 73, 0
2, 10368, Note_on_c, 0, 71, 127
2, 10463, Note_on_c, 0, 71, 0
2, 10463, Note_on_c, 0, 50, 0
2, 10464, Note_on_c, 0, 69, 127
2, 10559, Note_on_c, 0, 69, 0
2, 10560, Note_on_c, 0, 67, 127
2, 10655, Note_on_c, 0, 67, 0
2, 10656, Note_on_c, 0, 66, 127
2, 10751, Note_on_c, 0, 66, 0
2, 10752, Note_on_c, 0, 64, 127
2, 10816, Note_on_c, 0, 64, 0
2, 10848, Note_on_c, 0, 74, 127
2, 11039, Note_on_c, 0, 74, 0
2, 11040, Note_on_c, 0, 73, 127
2, 11135, Note_on_c, 0, 73, 0
2, 11136, Note_on_c, 0, 71, 127
2, 11231, Note_on_c, 0, 71, 0
2, 11232, Note_on_c, 0, 69, 127
2, 11327, Note_on_c, 0, 69, 0
2, 11328, Note_on_c, 0, 67, 127
2, 11423, Note_on_c, 0, 67, 0
2, 11424, Note_on_c, 0, 66, 127
2, 11519, Note_on_c, 0, 66, 0
2, 11520, Note_on_c, 0, 64, 127
2, 11615, Note_on_c, 0, 64, 0
2, 11616, Note_on_c, 0, 62, 127
2, 11712, Note_on_c, 0, 69, 127
2, 11806, Note_on_c, 0, 62, 0
2, 11807, Note_on_c, 0, 69, 0
2, 11808, Note_on_c, 0, 66, 127
2, 11903, Note_on_c, 0, 66, 0
2, 11904, Note_on_c, 0, 62, 127
2, 11999, Note_on_c, 0, 62, 0
2, 12000, Note_on_c, 0, 66, 127
2, 12095, Note_on_c, 0, 66, 0
2, 12096, Note_on_c, 0, 57, 127
2, 12191, Note_on_c, 0, 57, 0
2, 12192, Note_on_c, 0, 62, 127
2, 12287, Note_on_c, 0, 62, 0
2, 12288, Note_on_c, 0, 50, 127
2, 12383, Note_on_c, 0, 50, 0
2, 12384, Note_on_c, 0, 62, 127
2, 12480, Note_on_c, 0, 69, 127
2, 12574, Note_on_c, 0, 62, 0
2, 12575, Note_on_c, 0, 69, 0
2, 12576, Note_on_c, 0, 66, 127
2, 12671, Note_on_c, 0, 66, 0
2, 12672, Note_on_c, 0, 62, 127
2, 12767, Note_on_c, 0, 62, 0
2, 12768, Note_on_c, 0, 66, 127
2, 12863, Note_on_c, 0, 66, 0
2, 12864, Note_on_c, 0, 57, 127
2, 12959, Note_on_c, 0, 57, 0
2, 12960, Note_on_c, 0, 62, 127
2, 13055, Note_on_c, 0, 62, 0
2, 13056, Note_on_c, 0, 50, 127
2, 13151, Note_on_c, 0, 50, 0
2, 13152, Note_on_c, 0, 62, 127
2, 13248, Note_on_c, 0, 69, 127
2, 13342, Note_on_c, 0, 62, 0
2, 13343, Note_on_c, 0, 69, 0
2, 13344, Note_on_c, 0, 66, 127
2, 13439, Note_on_c, 0, 66, 0
2, 13440, Note_on_c, 0, 62, 127
2, 13535, Note_on_c, 0, 62, 0
2, 13536, Note_on_c, 0, 66, 127
2, 13631, Note_on_c, 0, 66, 0
2, 13632, Note_on_c, 0, 57, 127
2, 13727, Note_on_c, 0, 57, 0
2, 13728, Note_on_c, 0, 62, 127
2, 13823, Note_on_c, 0, 62, 0
2, 13824, Note_on_c, 0, 50, 127
2, 13919, Note_on_c, 0, 50, 0
2, 13920, Note_on_c, 0, 69, 127
2, 14111, Note_on_c, 0, 69, 0
2, 14112, Note_on_c, 0, 54, 127
2, 14112, Note_on_c, 0, 57, 127
2, 14112, Note_on_c, 0, 62, 127
2, 14112, Note_on_c, 0, 74, 127
2, 14112, Note_on_c, 0, 69, 127
2, 14112, Note_on_c, 0, 66, 127
2, 14282, Note_on_c, 0, 66, 0
2, 14282, Note_on_c, 0, 57, 0
2, 14282, Note_on_c, 0, 62, 0
2, 14282, Note_on_c, 0, 54, 0
2, 14282, Note_on_c, 0, 69, 0
2, 14282, Note_on_c, 0, 74, 0
2, 14304, Note_on_c, 0, 55, 127
2, 14304, Note_on_c, 0, 52, 127
2, 14304, Note_on_c, 0, 61, 127
2, 14304, Note_on_c, 0, 73, 127
2, 14304, Note_on_c, 0, 64, 127
2, 14304, Note_on_c, 0, 67, 127
2, 14474, Note_on_c, 0, 67, 0
2, 14474, Note_on_c, 0, 52, 0
2, 14474, Note_on_c, 0, 61, 0
2, 14474, Note_on_c, 0, 55, 0
2, 14474, Note_on_c, 0, 64, 0
2, 14474, Note_on_c, 0, 73, 0
2, 14496, Note_on_c, 0, 50, 127
2, 14496, Note_on_c, 0, 59, 127
2, 14496, Note_on_c, 0, 54, 127
2, 14496, Note_on_c, 0, 62, 127
2, 14496, Note_on_c, 0, 71, 127
2, 14496, Note_on_c, 0, 66, 127
2, 14666, Note_on_c, 0, 66, 0
2, 14666, Note_on_c, 0, 59, 0
2, 14666, Note_on_c, 0, 54, 0
2, 14666, Note_on_c, 0, 50, 0
2, 14666, Note_on_c, 0, 71, 0
2, 14666, Note_on_c, 0, 62, 0
2, 14688, Note_on_c, 0, 52, 127
2, 14688, Note_on_c, 0, 49, 127
2, 14688, Note_on_c, 0, 57, 127
2, 14688, Note_on_c, 0, 61, 127
2, 14688, Note_on_c, 0, 69, 127
2, 14688, Note_on_c, 0, 64, 127
2, 14858, Note_on_c, 0, 64, 0
2, 14858, Note_on_c, 0, 49, 0
2, 14858, Note_on_c, 0, 57, 0
2, 14858, Note_on_c, 0, 52, 0
2, 14858, Note_on_c, 0, 69, 0
2, 14858, Note_on_c, 0, 61, 0
2, 14880, Note_on_c, 0, 47, 127
2, 14880, Note_on_c, 0, 55, 127
2, 14880, Note_on_c, 0, 50, 127
2, 14880, Note_on_c, 0, 59, 127
2, 14880, Note_on_c, 0, 67, 127
2, 14880, Note_on_c, 0, 62, 127
2, 15050, Note_on_c, 0, 62, 0
2, 15050, Note_on_c, 0, 55, 0
2, 15050, Note_on_c, 0, 50, 0
2, 15050, Note_on_c, 0, 47, 0
2, 15050, Note_on_c, 0, 67, 0
2, 15050, Note_on_c, 0, 59, 0
2, 15072, Note_on_c, 0, 49, 127
2, 15072, Note_on_c, 0, 45, 127
2, 15072, Note_on_c, 0, 54, 127
2, 15072, Note_on_c, 0, 66, 127
2, 15072, Note_on_c, 0, 61, 127
2, 15072, Note_on_c, 0, 57, 127
2, 15242, Note_on_c, 0, 57, 0
2, 15242, Note_on_c, 0, 45, 0
2, 15242, Note_on_c, 0, 54, 0
2, 15242, Note_on_c, 0, 49, 0
2, 15242, Note_on_c, 0, 61, 0
2, 15242, Note_on_c, 0, 66, 0
2, 15264, Note_on_c, 0, 47, 127
2, 15264, Note_on_c, 0, 43, 127
2, 15264, Note_on_c, 0, 52, 127
2, 15264, Note_on_c, 0, 59, 127
2, 15264, Note_on_c, 0, 55, 127
2, 15264, Note_on_c, 0, 64, 127
2, 15434, Note_on_c, 0, 64, 0
2, 15434, Note_on_c, 0, 43, 0
2, 15434, Note_on_c, 0, 52, 0
2, 15434, Note_on_c, 0, 47, 0
2, 15434, Note_on_c, 0, 55, 0
2, 15434, Note_on_c, 0, 59, 0
2, 15456, Note_on_c, 0, 45, 127
2, 15456, Note_on_c, 0, 50, 127
2, 15456, Note_on_c, 0, 42, 127
2, 15456, Note_on_c, 0, 54, 127
2, 15456, Note_on_c, 0, 62, 127
2, 15456, Note_on_c, 0, 57, 127
2, 15647, Note_on_c, 0, 57, 0
2, 15647, Note_on_c, 0, 45, 0
2, 15647, Note_on_c, 0, 42, 0
2, 15647, Note_on_c, 0, 54, 0
2, 15647, Note_on_c, 0, 62, 0
2, 15648, Note_on_c, 0, 43, 127
2, 15648, Note_on_c, 0, 59, 127
2, 15648, Note_on_c, 0, 64, 127
2, 15648, Note_on_c, 0, 62, 127
2, 15839, Note_on_c, 0, 62, 0
2, 15839, Note_on_c, 0, 59, 0
2, 15839, Note_on_c, 0, 64, 0
2, 15839, Note_on_c, 0, 43, 0
2, 15840, Note_on_c, 0, 45, 127
2, 15840, Note_on_c, 0, 62, 127
2, 15840, Note_on_c, 0, 66, 127
2, 15840, Note_on_c, 0, 57, 127
2, 15935, Note_on_c, 0, 66, 0
2, 15936, Note_on_c, 0, 67, 127
2, 16020, Note_on_c, 0, 62, 0
2, 16020, Note_on_c, 0, 57, 0
2, 16031, Note_on_c, 0, 50, 0
2, 16031, Note_on_c, 0, 45, 0
2, 16031, Note_on_c, 0, 67, 0
2, 16032, Note_on_c, 0, 45, 127
2, 16032, Note_on_c, 0, 55, 127
2, 16032, Note_on_c, 0, 64, 127
2, 16032, Note_on_c, 0, 61, 127
2, 16127, Note_on_c, 0, 64, 0
2, 16128, Note_on_c, 0, 66, 127
2, 16212, Note_on_c, 0, 61, 0
2, 16212, Note_on_c, 0, 55, 0
2, 16223, Note_on_c, 0, 45, 0
2, 16223, Note_on_c, 0, 66, 0
2, 16224, Note_on_c, 0, 38, 127
2, 16224, Note_on_c, 0, 62, 127
2, 16224, Note_on_c, 0, 57, 127
2, 16224, Note_on_c, 0, 54, 127
2, 16415, Note_on_c, 0, 54, 0
2, 16415, Note_on_c, 0, 38, 0
2, 16415, Note_on_c, 0, 62, 0
2, 16415, Note_on_c, 0, 57, 0
2, 16416, Note_on_c, 0, 66, 127
2, 16416, Note_on_c, 0, 74, 127
2, 16511, Note_on_c, 0, 74, 0
2, 16512, Note_on_c, 0, 69, 127
2, 16607, Note_on_c, 0, 69, 0
2, 16607, Note_on_c, 0, 66, 0
2, 16608, Note_on_c, 0, 61, 127
2, 16608, Note_on_c, 0, 76, 127
2, 16703, Note_on_c, 0, 76, 0
2, 16704, Note_on_c, 0, 69, 127
2, 16799, Note_on_c, 0, 69, 0
2, 16799, Note_on_c, 0, 61, 0
2, 16800, Note_on_c, 0, 62, 127
2, 16800, Note_on_c, 0, 78, 127
2, 16895, Note_on_c, 0, 78, 0
2, 16896, Note_on_c, 0, 69, 127
2, 16991, Note_on_c, 0, 69, 0
2, 16991, Note_on_c, 0, 62, 0
2, 16992, Note_on_c, 0, 57, 127
2, 16992, Note_on_c, 0, 61, 127
2, 16992, Note_on_c, 0, 76, 127
2, 17087, Note_on_c, 0, 76, 0
2, 17088, Note_on_c, 0, 69, 127
2, 17183, Note_on_c, 0, 69, 0
2, 17183, Note_on_c, 0, 61, 0
2, 17183, Note_on_c, 0, 57, 0
2, 17184, Note_on_c, 0, 66, 127
2, 17184, Note_on_c, 0, 74, 127
2, 17279, Note_on_c, 0, 74, 0
2, 17280, Note_on_c, 0, 69, 127
2, 17375, Note_on_c, 0, 69, 0
2, 17375, Note_on_c, 0, 66, 0
2, 17376, Note_on_c, 0, 61, 127
2, 17376, Note_on_c, 0, 76, 127
2, 17471, Note_on_c, 0, 76, 0
2, 17472, Note_on_c, 0, 69, 127
2, 17567, Note_on_c, 0, 69, 0
2, 17567, Note_on_c, 0, 61, 0
2, 17568, Note_on_c, 0, 62, 127
2, 17568, Note_on_c, 0, 78, 127
2, 17663, Note_on_c, 0, 78, 0
2, 17664, Note_on_c, 0, 69, 127
2, 17759, Note_on_c, 0, 69, 0
2, 17759, Note_on_c, 0, 62, 0
2, 17760, Note_on_c, 0, 57, 127
2, 17760, Note_on_c, 0, 61, 127
2, 17760, Note_on_c, 0, 76, 127
2, 17855, Note_on_c, 0, 76, 0
2, 17856, Note_on_c, 0, 69, 127
2, 17951, Note_on_c, 0, 69, 0
2, 17951, Note_on_c, 0, 61, 0
2, 17951, Note_on_c, 0, 57, 0
2, 17952, Note_on_c, 0, 62, 127
2, 17952, Note_on_c, 0, 78, 127
2, 17952, Note_on_c, 0, 69, 127
2, 18047, Note_on_c, 0, 62, 0
2, 18048, Note_on_c, 0, 57, 127
2, 18143, Note_on_c, 0, 57, 0
2, 18143, Note_on_c, 0, 69, 0
2, 18143, Note_on_c, 0, 78, 0
2, 18144, Note_on_c, 0, 64, 127
2, 18144, Note_on_c, 0, 73, 127
2, 18144, Note_on_c, 0, 69, 127
2, 18239, Note_on_c, 0, 64, 0
2, 18240, Note_on_c, 0, 57, 127
2, 18335, Note_on_c, 0, 57, 0
2, 18335, Note_on_c, 0, 69, 0
2, 18335, Note_on_c, 0, 73, 0
2, 18336, Note_on_c, 0, 66, 127
2, 18336, Note_on_c, 0, 69, 127
2, 18336, Note_on_c, 0, 74, 127
2, 18431, Note_on_c, 0, 66, 0
2, 18432, Note_on_c, 0, 57, 127
2, 18527, Note_on_c, 0, 57, 0
2, 18527, Note_on_c, 0, 74, 0
2, 18527, Note_on_c, 0, 69, 0
2, 18528, Note_on_c, 0, 64, 127
2, 18528, Note_on_c, 0, 69, 127
2, 18528, Note_on_c, 0, 73, 127
2, 18623, Note_on_c, 0, 64, 0
2, 18624, Note_on_c, 0, 57, 127
2, 18719, Note_on_c, 0, 57, 0
2, 18719, Note_on_c, 0, 73, 0
2, 18719, Note_on_c, 0, 69, 0
2, 18720, Note_on_c, 0, 62, 127
2, 18720, Note_on_c, 0, 78, 127
2, 18720, Note_on_c, 0, 69, 127
2, 18815, Note_on_c, 0, 62, 0
2, 18816, Note_on_c, 0, 57, 127
2, 18911, Note_on_c, 0, 57, 0
2, 18911, Note_on_c, 0, 69, 0
2, 18911, Note_on_c, 0, 78, 0
2, 18912, Note_on_c, 0, 64, 127
2, 18912, Note_on_c, 0, 73, 127
2, 18912, Note_on_c, 0, 69, 127
2, 19007, Note_on_c, 0, 64, 0
2, 19008, Note_on_c, 0, 57, 127
2, 19103, Note_on_c, 0, 57, 0
2, 19103, Note_on_c, 0, 69, 0
2, 19103, Note_on_c, 0, 73, 0
2, 19104, Note_on_c, 0, 66, 127
2, 19104, Note_on_c, 0, 74, 127
2, 19104, Note_on_c, 0, 69, 127
2, 19199, Note_on_c, 0, 66, 0
2, 19200, Note_on_c, 0, 57, 127
2, 19295, Note_on_c, 0, 57, 0
2, 19295, Note_on_c, 0, 69, 0
2, 19295, Note_on_c, 0, 74, 0
2, 19296, Note_on_c, 0, 64, 127
2, 19296, Note_on_c, 0, 73, 127
2, 19296, Note_on_c, 0, 69, 127
2, 19391, Note_on_c, 0, 64, 0
2, 19392, Note_on_c, 0, 57, 127
2, 19487, Note_on_c, 0, 57, 0
2, 19487, Note_on_c, 0, 69, 0
2, 19487, Note_on_c, 0, 73, 0
2, 19488, Note_on_c, 0, 54, 127
2, 19488, Note_on_c, 0, 57, 127
2, 19488, Note_on_c, 0, 62, 127
2, 19488, Note_on_c, 0, 74, 127
2, 19583, Note_on_c, 0, 74, 0
2, 19584, Note_on_c, 0, 69, 127
2, 19679, Note_on_c, 0, 69, 0
2, 19679, Note_on_c, 0, 57, 0
2, 19680, Note_on_c, 0, 55, 127
2, 19680, Note_on_c, 0, 71, 127
2, 19775, Note_on_c, 0, 71, 0
2, 19776, Note_on_c, 0, 67, 127
2, 19868, Note_on_c, 0, 54, 0
2, 19868, Note_on_c, 0, 62, 0
2, 19871, Note_on_c, 0, 67, 0
2, 19872, Note_on_c, 0, 61, 127
2, 19872, Note_on_c, 0, 52, 127
2, 19872, Note_on_c, 0, 73, 127
2, 19967, Note_on_c, 0, 73, 0
2, 19968, Note_on_c, 0, 67, 127
2, 20060, Note_on_c, 0, 55, 0
2, 20063, Note_on_c, 0, 67, 0
2, 20064, Note_on_c, 0, 54, 127
2, 20064, Note_on_c, 0, 69, 127
2, 20159, Note_on_c, 0, 69, 0
2, 20160, Note_on_c, 0, 66, 127
2, 20252, Note_on_c, 0, 61, 0
2, 20252, Note_on_c, 0, 52, 0
2, 20255, Note_on_c, 0, 66, 0
2, 20256, Note_on_c, 0, 50, 127
2, 20256, Note_on_c, 0, 59, 127
2, 20256, Note_on_c, 0, 71, 127
2, 20351, Note_on_c, 0, 71, 0
2, 20352, Note_on_c, 0, 66, 127
2, 20444, Note_on_c, 0, 54, 0
2, 20447, Note_on_c, 0, 66, 0
2, 20448, Note_on_c, 0, 52, 127
2, 20448, Note_on_c, 0, 67, 127
2, 20543, Note_on_c, 0, 67, 0
2, 20544, Note_on_c, 0, 64, 127
2, 20636, Note_on_c, 0, 50, 0
2, 20636, Note_on_c, 0, 59, 0
2, 20639, Note_on_c, 0, 64, 0
2, 20640, Note_on_c, 0, 49, 127
2, 20640, Note_on_c, 0, 57, 127
2, 20640, Note_on_c, 0, 69, 127
2, 20735, Note_on_c, 0, 69, 0
2, 20736, Note_on_c, 0, 64, 127
2, 20828, Note_on_c, 0, 52, 0
2, 20831, Note_on_c, 0, 49, 0
2, 20831, Note_on_c, 0, 57, 0
2, 20831, Note_on_c, 0, 64, 0
2, 20832, Note_on_c, 0, 50, 127
2, 20832, Note_on_c, 0, 66, 127
2, 20832, Note_on_c, 0, 62, 127
2, 21023, Note_on_c, 0, 62, 0
2, 21023, Note_on_c, 0, 66, 0
2, 21023, Note_on_c, 0, 50, 0
2, 21024, Note_on_c, 0, 55, 127
2, 21024, Note_on_c, 0, 62, 127
2, 21024, Note_on_c, 0, 67, 127
2, 21119, Note_on_c, 0, 67, 0
2, 21120, Note_on_c, 0, 69, 127
2, 21215, Note_on_c, 0, 69, 0
2, 21215, Note_on_c, 0, 62, 0
2, 21215, Note_on_c, 0, 55, 0
2, 21216, Note_on_c, 0, 57, 127
2, 21216, Note_on_c, 0, 66, 127
2, 21216, Note_on_c, 0, 62, 127
2, 21263, Note_on_c, 0, 66, 0
2, 21264, Note_on_c, 0, 64, 127
2, 21311, Note_on_c, 0, 64, 0
2, 21312, Note_on_c, 0, 66, 127
2, 21359, Note_on_c, 0, 66, 0
2, 21360, Note_on_c, 0, 64, 127
2, 21407, Note_on_c, 0, 62, 0
2, 21407, Note_on_c, 0, 57, 0
2, 21408, Note_on_c, 0, 45, 127
2, 21408, Note_on_c, 0, 52, 127
2, 21408, Note_on_c, 0, 61, 127
2, 21504, Note_on_c, 0, 64, 0
2, 21504, Note_on_c, 0, 62, 127
2, 21552, Note_on_c, 0, 61, 0
2, 21599, Note_on_c, 0, 45, 0
2, 21599, Note_on_c, 0, 52, 0
2, 21599, Note_on_c, 0, 62, 0
2, 21600, Note_on_c, 0, 54, 127
2, 21600, Note_on_c, 0, 50, 127
2, 21600, Note_on_c, 0, 62, 127
2, 21600, Note_on_c, 0, 57, 127
2, 21791, Note_on_c, 0, 57, 0
2, 21791, Note_on_c, 0, 54, 0
2, 21791, Note_on_c, 0, 50, 0
2, 21791, Note_on_c, 0, 62, 0
2, 21792, Note_on_c, 0, 59, 127
2, 21792, Note_on_c, 0, 67, 127
2, 21887, Note_on_c, 0, 67, 0
2, 21888, Note_on_c, 0, 62, 127
2, 21983, Note_on_c, 0, 62, 0
2, 21983, Note_on_c, 0, 59, 0
2, 21984, Note_on_c, 0, 54, 127
2, 21984, Note_on_c, 0, 69, 127
2, 22079, Note_on_c, 0, 69, 0
2, 22080, Note_on_c, 0, 62, 127
2, 22175, Note_on_c, 0, 62, 0
2, 22175, Note_on_c, 0, 54, 0
2, 22176, Note_on_c, 0, 55, 127
2, 22176, Note_on_c, 0, 71, 127
2, 22271, Note_on_c, 0, 71, 0
2, 22272, Note_on_c, 0, 62, 127
2, 22367, Note_on_c, 0, 62, 0
2, 22367, Note_on_c, 0, 55, 0
2, 22368, Note_on_c, 0, 54, 127
2, 22368, Note_on_c, 0, 50, 127
2, 22368, Note_on_c, 0, 69, 127
2, 22463, Note_on_c, 0, 69, 0
2, 22464, Note_on_c, 0, 62, 127
2, 22559, Note_on_c, 0, 62, 0
2, 22559, Note_on_c, 0, 50, 0
2, 22559, Note_on_c, 0, 54, 0
2, 22560, Note_on_c, 0, 59, 127
2, 22560, Note_on_c, 0, 67, 127
2, 22655, Note_on_c, 0, 67, 0
2, 22656, Note_on_c, 0, 62, 127
2, 22751, Note_on_c, 0, 62, 0
2, 22751, Note_on_c, 0, 59, 0
2, 22752, Note_on_c, 0, 54, 127
2, 22752, Note_on_c, 0, 69, 127
2, 22847, Note_on_c, 0, 69, 0
2, 22848, Note_on_c, 0, 62, 127
2, 22943, Note_on_c, 0, 62, 0
2, 22943, Note_on_c, 0, 54, 0
2, 22944, Note_on_c, 0, 55, 127
2, 22944, Note_on_c, 0, 71, 127
2, 23039, Note_on_c, 0, 71, 0
2, 23040, Note_on_c, 0, 62, 127
2, 23135, Note_on_c, 0, 62, 0
2, 23135, Note_on_c, 0, 55, 0
2, 23136, Note_on_c, 0, 54, 127
2, 23136, Note_on_c, 0, 50, 127
2, 23136, Note_on_c, 0, 69, 127
2, 23231, Note_on_c, 0, 69, 0
2, 23232, Note_on_c, 0, 62, 127
2, 23327, Note_on_c, 0, 62, 0
2, 23327, Note_on_c, 0, 50, 0
2, 23327, Note_on_c, 0, 54, 0
2, 23328, Note_on_c, 0, 55, 127
2, 23328, Note_on_c, 0, 71, 127
2, 23328, Note_on_c, 0, 74, 127
2, 23423, Note_on_c, 0, 55, 0
2, 23424, Note_on_c, 0, 50, 127
2, 23519, Note_on_c, 0, 50, 0
2, 23519, Note_on_c, 0, 74, 0
2, 23519, Note_on_c, 0, 71, 0
2, 23520, Note_on_c, 0, 57, 127
2, 23520, Note_on_c, 0, 66, 127
2, 23520, Note_on_c, 0, 74, 127
2, 23615, Note_on_c, 0, 57, 0
2, 23616, Note_on_c, 0, 50, 127
2, 23711, Note_on_c, 0, 50, 0
2, 23711, Note_on_c, 0, 74, 0
2, 23711, Note_on_c, 0, 66, 0
2, 23712, Note_on_c, 0, 59, 127
2, 23712, Note_on_c, 0, 74, 127
2, 23712, Note_on_c, 0, 67, 127
2, 23807, Note_on_c, 0, 59, 0
2, 23808, Note_on_c, 0, 50, 127
2, 23903, Note_on_c, 0, 50, 0
2, 23903, Note_on_c, 0, 67, 0
2, 23903, Note_on_c, 0, 74, 0
2, 23904, Note_on_c, 0, 57, 127
2, 23904, Note_on_c, 0, 74, 127
2, 23904, Note_on_c, 0, 66, 127
2, 23999, Note_on_c, 0, 57, 0
2, 24000, Note_on_c, 0, 50, 127
2, 24095, Note_on_c, 0, 50, 0
2, 24095, Note_on_c, 0, 66, 0
2, 24095, Note_on_c, 0, 74, 0
2, 24096, Note_on_c, 0, 55, 127
2, 24096, Note_on_c, 0, 74, 127
2, 24096, Note_on_c, 0, 71, 127
2, 24191, Note_on_c, 0, 55, 0
2, 24192, Note_on_c, 0, 50, 127
2, 24287, Note_on_c, 0, 50, 0
2, 24287, Note_on_c, 0, 71, 0
2, 24287, Note_on_c, 0, 74, 0
2, 24288, Note_on_c, 0, 57, 127
2, 24288, Note_on_c, 0, 66, 127
2, 24288, Note_on_c, 0, 74, 127
2, 24383, Note_on_c, 0, 57, 0
2, 24384, Note_on_c, 0, 50, 127
2, 24479, Note_on_c, 0, 50, 0
2, 24479, Note_on_c, 0, 74, 0
2, 24479, Note_on_c, 0, 66, 0
2, 24480, Note_on_c, 0, 59, 127
2, 24480, Note_on_c, 0, 67, 127
2, 24480, Note_on_c, 0, 74, 127
2, 24575, Note_on_c, 0, 59, 0
2, 24576, Note_on_c, 0, 50, 127
2, 24671, Note_on_c, 0, 50, 0
2, 24671, Note_on_c, 0, 74, 0
2, 24671, Note_on_c, 0, 67, 0
2, 24672, Note_on_c, 0, 57, 127
2, 24672, Note_on_c, 0, 74, 127
2, 24672, Note_on_c, 0, 66, 127
2, 24767, Note_on_c, 0, 57, 0
2, 24768, Note_on_c, 0, 50, 127
2, 24863, Note_on_c, 0, 50, 0
2, 24863, Note_on_c, 0, 66, 0
2, 24863, Note_on_c, 0, 74, 0
2, 24864, Note_on_c, 0, 62, 127
2, 24864, Note_on_c, 0, 59, 127
2, 24864, Note_on_c, 0, 67, 127
2, 24864, Note_on_c, 0, 79, 127
2, 24959, Note_on_c, 0, 79, 0
2, 24960, Note_on_c, 0, 74, 127
2, 25055, Note_on_c, 0, 74, 0
2, 25055, Note_on_c, 0, 62, 0
2, 25056, Note_on_c, 0, 60, 127
2, 25056, Note_on_c, 0, 76, 127
2, 25151, Note_on_c, 0, 76, 0
2, 25152, Note_on_c, 0, 72, 127
2, 25244, Note_on_c, 0, 59, 0
2, 25244, Note_on_c, 0, 67, 0
2, 25247, Note_on_c, 0, 72, 0
2, 25248, Note_on_c, 0, 57, 127
2, 25248, Note_on_c, 0, 66, 127
2, 25248, Note_on_c, 0, 78, 127
2, 25343, Note_on_c, 0, 78, 0
2, 25344, Note_on_c, 0, 72, 127
2, 25436, Note_on_c, 0, 60, 0
2, 25439, Note_on_c, 0, 72, 0
2, 25440, Note_on_c, 0, 59, 127
2, 25440, Note_on_c, 0, 74, 127
2, 25535, Note_on_c, 0, 74, 0
2, 25536, Note_on_c, 0, 71, 127
2, 25628, Note_on_c, 0, 57, 0
2, 25628, Note_on_c, 0, 66, 0
2, 25631, Note_on_c, 0, 71, 0
2, 25632, Note_on_c, 0, 64, 127
2, 25632, Note_on_c, 0, 55, 127
2, 25632, Note_on_c, 0, 76, 127
2, 25727, Note_on_c, 0, 76, 0
2, 25728, Note_on_c, 0, 71, 127
2, 25820, Note_on_c, 0, 59, 0
2, 25823, Note_on_c, 0, 71, 0
2, 25824, Note_on_c, 0, 57, 127
2, 25824, Note_on_c, 0, 72, 127
2, 25919, Note_on_c, 0, 72, 0
2, 25920, Note_on_c, 0, 69, 127
2, 26012, Note_on_c, 0, 64, 0
2, 26012, Note_on_c, 0, 55, 0
2, 26015, Note_on_c, 0, 57, 0
2, 26015, Note_on_c, 0, 69, 0
2, 26016, Note_on_c, 0, 54, 127
2, 26016, Note_on_c, 0, 57, 127
2, 26016, Note_on_c, 0, 62, 127
2, 26016, Note_on_c, 0, 74, 127
2, 26111, Note_on_c, 0, 74, 0
2, 26112, Note_on_c, 0, 69, 127
2, 26207, Note_on_c, 0, 69, 0
2, 26207, Note_on_c, 0, 62, 0
2, 26207, Note_on_c, 0, 57, 0
2, 26207, Note_on_c, 0, 54, 0
2, 26208, Note_on_c, 0, 55, 127
2, 26208, Note_on_c, 0, 67, 127
2, 26208, Note_on_c, 0, 71, 127
2, 26399, Note_on_c, 0, 71, 0
2, 26399, Note_on_c, 0, 67, 0
2, 26399, Note_on_c, 0, 55, 0
2, 26400, Note_on_c, 0, 52, 127
2, 26400, Note_on_c, 0, 48, 127
2, 26400, Note_on_c, 0, 72, 127
2, 26400, Note_on_c, 0, 67, 127
2, 26495, Note_on_c, 0, 72, 0
2, 26496, Note_on_c, 0, 74, 127
2, 26590, Note_on_c, 0, 67, 0
2, 26591, Note_on_c, 0, 52, 0
2, 26591, Note_on_c, 0, 48, 0
2, 26591, Note_on_c, 0, 74, 0
2, 26592, Note_on_c, 0, 50, 127
2, 26592, Note_on_c, 0, 67, 127
2, 26592, Note_on_c, 0, 71, 127
2, 26639, Note_on_c, 0, 71, 0
2, 26640, Note_on_c, 0, 69, 127
2, 26687, Note_on_c, 0, 69, 0
2, 26688, Note_on_c, 0, 71, 127
2, 26735, Note_on_c, 0, 71, 0
2, 26736, Note_on_c, 0, 69, 127
2, 26782, Note_on_c, 0, 67, 0
2, 26783, Note_on_c, 0, 50, 0
2, 26784, Note_on_c, 0, 38, 127
2, 26784, Note_on_c, 0, 66, 127
2, 26880, Note_on_c, 0, 69, 0
2, 26880, Note_on_c, 0, 67, 127
2, 26924, Note_on_c, 0, 66, 0
2, 26975, Note_on_c, 0, 67, 0
2, 26975, Note_on_c, 0, 38, 0
2, 26976, Note_on_c, 0, 43, 127
2, 26976, Note_on_c, 0, 50, 127
2, 26976, Note_on_c, 0, 67, 127
2, 26976, Note_on_c, 0, 59, 127
2, 26976, Note_on_c, 0, 62, 127
2, 27166, Note_on_c, 0, 50, 0
2, 27166, Note_on_c, 0, 43, 0
2, 27167, Note_on_c, 0, 59, 0
2, 27167, Note_on_c, 0, 67, 0
2, 27167, Note_on_c, 0, 62, 0
2, 27168, Note_on_c, 0, 66, 127
2, 27263, Note_on_c, 0, 66, 0
2, 27264, Note_on_c, 0, 64, 127
2, 27359, Note_on_c, 0, 64, 0
2, 27360, Note_on_c, 0, 62, 127
2, 27455, Note_on_c, 0, 62, 0
2, 27456, Note_on_c, 0, 60, 127
2, 27551, Note_on_c, 0, 60, 0
2, 27552, Note_on_c, 0, 59, 127
2, 27647, Note_on_c, 0, 59, 0
2, 27648, Note_on_c, 0, 57, 127
2, 27743, Note_on_c, 0, 57, 0
2, 27744, Note_on_c, 0, 55, 127
2, 27839, Note_on_c, 0, 55, 0
2, 27840, Note_on_c, 0, 76, 127
2, 27935, Note_on_c, 0, 76, 0
2, 27936, Note_on_c, 0, 74, 127
2, 28031, Note_on_c, 0, 74, 0
2, 28032, Note_on_c, 0, 72, 127
2, 28127, Note_on_c, 0, 72, 0
2, 28128, Note_on_c, 0, 71, 127
2, 28223, Note_on_c, 0, 71, 0
2, 28224, Note_on_c, 0, 69, 127
2, 28319, Note_on_c, 0, 69, 0
2, 28320, Note_on_c, 0, 67, 127
2, 28415, Note_on_c, 0, 67, 0
2, 28416, Note_on_c, 0, 66, 127
2, 28511, Note_on_c, 0, 66, 0
2, 28512, Note_on_c, 0, 64, 127
2, 28608, Note_on_c, 0, 71, 127
2, 28702, Note_on_c, 0, 64, 0
2, 28703, Note_on_c, 0, 71, 0
2, 28704, Note_on_c, 0, 67, 127
2, 28799, Note_on_c, 0, 67, 0
2, 28800, Note_on_c, 0, 64, 127
2, 28895, Note_on_c, 0, 64, 0
2, 28896, Note_on_c, 0, 67, 127
2, 28991, Note_on_c, 0, 67, 0
2, 28992, Note_on_c, 0, 59, 127
2, 29087, Note_on_c, 0, 59, 0
2, 29088, Note_on_c, 0, 64, 127
2, 29183, Note_on_c, 0, 64, 0
2, 29184, Note_on_c, 0, 52, 127
2, 29279, Note_on_c, 0, 52, 0
2, 29280, Note_on_c, 0, 64, 127
2, 29376, Note_on_c, 0, 71, 127
2, 29470, Note_on_c, 0, 64, 0
2, 29471, Note_on_c, 0, 71, 0
2, 29472, Note_on_c, 0, 67, 127
2, 29567, Note_on_c, 0, 67, 0
2, 29568, Note_on_c, 0, 64, 127
2, 29663, Note_on_c, 0, 64, 0
2, 29664, Note_on_c, 0, 67, 127
2, 29759, Note_on_c, 0, 67, 0
2, 29760, Note_on_c, 0, 59, 127
2, 29855, Note_on_c, 0, 59, 0
2, 29856, Note_on_c, 0, 64, 127
2, 29951, Note_on_c, 0, 64, 0
2, 29952, Note_on_c, 0, 52, 127
2, 30047, Note_on_c, 0, 52, 0
2, 30048, Note_on_c, 0, 64, 127
2, 30144, Note_on_c, 0, 71, 127
2, 30238, Note_on_c, 0, 64, 0
2, 30239, Note_on_c, 0, 71, 0
2, 30240, Note_on_c, 0, 67, 127
2, 30335, Note_on_c, 0, 67, 0
2, 30336, Note_on_c, 0, 64, 127
2, 30431, Note_on_c, 0, 64, 0
2, 30432, Note_on_c, 0, 67, 127
2, 30527, Note_on_c, 0, 67, 0
2, 30528, Note_on_c, 0, 59, 127
2, 30623, Note_on_c, 0, 59, 0
2, 30624, Note_on_c, 0, 64, 127
2, 30719, Note_on_c, 0, 64, 0
2, 30720, Note_on_c, 0, 52, 127
2, 30815, Note_on_c, 0, 52, 0
2, 30816, Note_on_c, 0, 71, 127
2, 31007, Note_on_c, 0, 71, 0
2, 31008, Note_on_c, 0, 59, 127
2, 31008, Note_on_c, 0, 55, 127
2, 31008, Note_on_c, 0, 64, 127
2, 31008, Note_on_c, 0, 76, 127
2, 31008, Note_on_c, 0, 71, 127
2, 31008, Note_on_c, 0, 67, 127
2, 31178, Note_on_c, 0, 67, 0
2, 31178, Note_on_c, 0, 55, 0
2, 31178, Note_on_c, 0, 64, 0
2, 31178, Note_on_c, 0, 59, 0
2, 31178, Note_on_c, 0, 71, 0
2, 31178, Note_on_c, 0, 76, 0
2, 31200, Note_on_c, 0, 57, 127
2, 31200, Note_on_c, 0, 62, 127
2, 31200, Note_on_c, 0, 54, 127
2, 31200, Note_on_c, 0, 69, 127
2, 31200, Note_on_c, 0, 66, 127
2, 31200, Note_on_c, 0, 74, 127
2, 31370, Note_on_c, 0, 74, 0
2, 31370, Note_on_c, 0, 62, 0
2, 31370, Note_on_c, 0, 54, 0
2, 31370, Note_on_c, 0, 57, 0
2, 31370, Note_on_c, 0, 66, 0
2, 31370, Note_on_c, 0, 69, 0
2, 31392, Note_on_c, 0, 55, 127
2, 31392, Note_on_c, 0, 52, 127
2, 31392, Note_on_c, 0, 60, 127
2, 31392, Note_on_c, 0, 72, 127
2, 31392, Note_on_c, 0, 67, 127
2, 31392, Note_on_c, 0, 64, 127
2, 31562, Note_on_c, 0, 64, 0
2, 31562, Note_on_c, 0, 52, 0
2, 31562, Note_on_c, 0, 60, 0
2, 31562, Note_on_c, 0, 55, 0
2, 31562, Note_on_c, 0, 67, 0
2, 31562, Note_on_c, 0, 72, 0
2, 31584, Note_on_c, 0, 54, 127
2, 31584, Note_on_c, 0, 51, 127
2, 31584, Note_on_c, 0, 59, 127
2, 31584, Note_on_c, 0, 66, 127
2, 31584, Note_on_c, 0, 63, 127
2, 31584, Note_on_c, 0, 71, 127
2, 31754, Note_on_c, 0, 71, 0
2, 31754, Note_on_c, 0, 51, 0
2, 31754, Note_on_c, 0, 59, 0
2, 31754, Note_on_c, 0, 54, 0
2, 31754, Note_on_c, 0, 63, 0
2, 31754, Note_on_c, 0, 66, 0
2, 31776, Note_on_c, 0, 48, 127
2, 31776, Note_on_c, 0, 57, 127
2, 31776, Note_on_c, 0, 52, 127
2, 31776, Note_on_c, 0, 69, 127
2, 31776, Note_on_c, 0, 60, 127
2, 31776, Note_on_c, 0, 64, 127
2, 31946, Note_on_c, 0, 64, 0
2, 31946, Note_on_c, 0, 57, 0
2, 31946, Note_on_c, 0, 52, 0
2, 31946, Note_on_c, 0, 48, 0
2, 31946, Note_on_c, 0, 60, 0
2, 31946, Note_on_c, 0, 69, 0
2, 31968, Note_on_c, 0, 55, 127
2, 31968, Note_on_c, 0, 50, 127
2, 31968, Note_on_c, 0, 47, 127
2, 31968, Note_on_c, 0, 67, 127
2, 31968, Note_on_c, 0, 62, 127
2, 31968, Note_on_c, 0, 59, 127
2, 32138, Note_on_c, 0, 59, 0
2, 32138, Note_on_c, 0, 50, 0
2, 32138, Note_on_c, 0, 47, 0
2, 32138, Note_on_c, 0, 55, 0
2, 32138, Note_on_c, 0, 62, 0
2, 32138, Note_on_c, 0, 67, 0
2, 32160, Note_on_c, 0, 54, 127
2, 32160, Note_on_c, 0, 48, 127
2, 32160, Note_on_c, 0, 45, 127
2, 32160, Note_on_c, 0, 66, 127
2, 32160, Note_on_c, 0, 60, 127
2, 32160, Note_on_c, 0, 57, 127
2, 32330, Note_on_c, 0, 57, 0
2, 32330, Note_on_c, 0, 48, 0
2, 32330, Note_on_c, 0, 45, 0
2, 32330, Note_on_c, 0, 54, 0
2, 32330, Note_on_c, 0, 60, 0
2, 32330, Note_on_c, 0, 66, 0
2, 32352, Note_on_c, 0, 43, 127
2, 32352, Note_on_c, 0, 52, 127
2, 32352, Note_on_c, 0, 47, 127
2, 32352, Note_on_c, 0, 55, 127
2, 32352, Note_on_c, 0, 64, 127
2, 32352, Note_on_c, 0, 59, 127
2, 32543, Note_on_c, 0, 59, 0
2, 32543, Note_on_c, 0, 43, 0
2, 32543, Note_on_c, 0, 47, 0
2, 32543, Note_on_c, 0, 55, 0
2, 32543, Note_on_c, 0, 64, 0
2, 32544, Note_on_c, 0, 45, 127
2, 32544, Note_on_c, 0, 66, 127
2, 32544, Note_on_c, 0, 60, 127
2, 32544, Note_on_c, 0, 64, 127
2, 32735, Note_on_c, 0, 64, 0
2, 32735, Note_on_c, 0, 66, 0
2, 32735, Note_on_c, 0, 60, 0
2, 32735, Note_on_c, 0, 45, 0
2, 32736, Note_on_c, 0, 47, 127
2, 32736, Note_on_c, 0, 64, 127
2, 32736, Note_on_c, 0, 59, 127
2, 32736, Note_on_c, 0, 67, 127
2, 32831, Note_on_c, 0, 67, 0
2, 32832, Note_on_c, 0, 69, 127
2, 32916, Note_on_c, 0, 64, 0
2, 32916, Note_on_c, 0, 59, 0
2, 32927, Note_on_c, 0, 52, 0
2, 32927, Note_on_c, 0, 47, 0
2, 32927, Note_on_c, 0, 69, 0
2, 32928, Note_on_c, 0, 47, 127
2, 32928, Note_on_c, 0, 57, 127
2, 32928, Note_on_c, 0, 66, 127
2, 32928, Note_on_c, 0, 63, 127
2, 33023, Note_on_c, 0, 66, 0
2, 33024, Note_on_c, 0, 67, 127
2, 33108, Note_on_c, 0, 63, 0
2, 33108, Note_on_c, 0, 57, 0
2, 33119, Note_on_c, 0, 47, 0
2, 33119, Note_on_c, 0, 67, 0
2, 33120, Note_on_c, 0, 52, 127
2, 33120, Note_on_c, 0, 64, 127
2, 33120, Note_on_c, 0, 59, 127
2, 33120, Note_on_c, 0, 55, 127
2, 33311, Note_on_c, 0, 55, 0
2, 33311, Note_on_c, 0, 52, 0
2, 33311, Note_on_c, 0, 64, 0
2, 33311, Note_on_c, 0, 59, 0
2, 33312, Note_on_c, 0, 67, 127
2, 33312, Note_on_c, 0, 76, 127
2, 33407, Note_on_c, 0, 76, 0
2, 33408, Note_on_c, 0, 71, 127
2, 33503, Note_on_c, 0, 71, 0
2, 33503, Note_on_c, 0, 67, 0
2, 33504, Note_on_c, 0, 63, 127
2, 33504, Note_on_c, 0, 78, 127
2, 33599, Note_on_c, 0, 78, 0
2, 33600, Note_on_c, 0, 71, 127
2, 33695, Note_on_c, 0, 71, 0
2, 33695, Note_on_c, 0, 63, 0
2, 33696, Note_on_c, 0, 64, 127
2, 33696, Note_on_c, 0, 79, 127
2, 33791, Note_on_c, 0, 79, 0
2, 33792, Note_on_c, 0, 71, 127
2, 33887, Note_on_c, 0, 71, 0
2, 33887, Note_on_c, 0, 64, 0
2, 33888, Note_on_c, 0, 59, 127
2, 33888, Note_on_c, 0, 63, 127
2, 33888, Note_on_c, 0, 78, 127
2, 33983, Note_on_c, 0, 78, 0
2, 33984, Note_on_c, 0, 71, 127
2, 34079, Note_on_c, 0, 71, 0
2, 34079, Note_on_c, 0, 63, 0
2, 34079, Note_on_c, 0, 59, 0
2, 34080, Note_on_c, 0, 67, 127
2, 34080, Note_on_c, 0, 76, 127
2, 34175, Note_on_c, 0, 76, 0
2, 34176, Note_on_c, 0, 71, 127
2, 34271, Note_on_c, 0, 71, 0
2, 34271, Note_on_c, 0, 67, 0
2, 34272, Note_on_c, 0, 63, 127
2, 34272, Note_on_c, 0, 78, 127
2, 34367, Note_on_c, 0, 78, 0
2, 34368, Note_on_c, 0, 71, 127
2, 34463, Note_on_c, 0, 71, 0
2, 34463, Note_on_c, 0, 63, 0
2, 34464, Note_on_c, 0, 64, 127
2, 34464, Note_on_c, 0, 79, 127
2, 34559, Note_on_c, 0, 79, 0
2, 34560, Note_on_c, 0, 71, 127
2, 34655, Note_on_c, 0, 71, 0
2, 34655, Note_on_c, 0, 64, 0
2, 34656, Note_on_c, 0, 63, 127
2, 34656, Note_on_c, 0, 59, 127
2, 34656, Note_on_c, 0, 78, 127
2, 34751, Note_on_c, 0, 78, 0
2, 34752, Note_on_c, 0, 71, 127
2, 34847, Note_on_c, 0, 71, 0
2, 34847, Note_on_c, 0, 59, 0
2, 34847, Note_on_c, 0, 63, 0
2, 34848, Note_on_c, 0, 64, 127
2, 34848, Note_on_c, 0, 83, 127
2, 34848, Note_on_c, 0, 79, 127
2, 34943, Note_on_c, 0, 64, 0
2, 34944, Note_on_c, 0, 59, 127
2, 35039, Note_on_c, 0, 59, 0
2, 35039, Note_on_c, 0, 79, 0
2, 35039, Note_on_c, 0, 83, 0
2, 35040, Note_on_c, 0, 66, 127
2, 35040, Note_on_c, 0, 83, 127
2, 35040, Note_on_c, 0, 75, 127
2, 35135, Note_on_c, 0, 66, 0
2, 35136, Note_on_c, 0, 59, 127
2, 35231, Note_on_c, 0, 59, 0
2, 35231, Note_on_c, 0, 75, 0
2, 35231, Note_on_c, 0, 83, 0
2, 35232, Note_on_c, 0, 67, 127
2, 35232, Note_on_c, 0, 76, 127
2, 35232, Note_on_c, 0, 83, 127
2, 35327, Note_on_c, 0, 67, 0
2, 35328, Note_on_c, 0, 59, 127
2, 35423, Note_on_c, 0, 59, 0
2, 35423, Note_on_c, 0, 83, 0
2, 35423, Note_on_c, 0, 76, 0
2, 35424, Note_on_c, 0, 66, 127
2, 35424, Note_on_c, 0, 75, 127
2, 35424, Note_on_c, 0, 83, 127
2, 35519, Note_on_c, 0, 66, 0
2, 35520, Note_on_c, 0, 59, 127
2, 35615, Note_on_c, 0, 59, 0
2, 35615, Note_on_c, 0, 83, 0
2, 35615, Note_on_c, 0, 75, 0
2, 35616, Note_on_c, 0, 64, 127
2, 35616, Note_on_c, 0, 83, 127
2, 35616, Note_on_c, 0, 79, 127
2, 35711, Note_on_c, 0, 64, 0
2, 35712, Note_on_c, 0, 59, 127
2, 35807, Note_on_c, 0, 59, 0
2, 35807, Note_on_c, 0, 79, 0
2, 35807, Note_on_c, 0, 83, 0
2, 35808, Note_on_c, 0, 66, 127
2, 35808, Note_on_c, 0, 75, 127
2, 35808, Note_on_c, 0, 83, 127
2, 35903, Note_on_c, 0, 66, 0
2, 35904, Note_on_c, 0, 59, 127
2, 35999, Note_on_c, 0, 59, 0
2, 35999, Note_on_c, 0, 83, 0
2, 35999, Note_on_c, 0, 75, 0
2, 36000, Note_on_c, 0, 67, 127
2, 36000, Note_on_c, 0, 83, 127
2, 36000, Note_on_c, 0, 76, 127
2, 36095, Note_on_c, 0, 67, 0
2, 36096, Note_on_c, 0, 59, 127
2, 36191, Note_on_c, 0, 59, 0
2, 36191, Note_on_c, 0, 76, 0
2, 36191, Note_on_c, 0, 83, 0
2, 36192, Note_on_c, 0, 69, 127
2, 36192, Note_on_c, 0, 75, 127
2, 36192, Note_on_c, 0, 71, 127
2, 36287, Note_on_c, 0, 69, 0
2, 36288, Note_on_c, 0, 59, 127
2, 36383, Note_on_c, 0, 59, 0
2, 36383, Note_on_c, 0, 71, 0
2, 36383, Note_on_c, 0, 75, 0
2, 36384, Note_on_c, 0, 67, 127
2, 36384, Note_on_c, 0, 76, 127
2, 36384, Note_on_c, 0, 72, 127
2, 36479, Note_on_c, 0, 76, 0
2, 36479, Note_on_c, 0, 67, 0
2, 36480, Note_on_c, 0, 57, 127
2, 36480, Note_on_c, 0, 78, 127
2, 36574, Note_on_c, 0, 72, 0
2, 36575, Note_on_c, 0, 78, 0
2, 36575, Note_on_c, 0, 57, 0
2, 36576, Note_on_c, 0, 59, 127
2, 36576, Note_on_c, 0, 66, 127
2, 36576, Note_on_c, 0, 76, 127
2, 36576, Note_on_c, 0, 71, 127
2, 36623, Note_on_c, 0, 76, 0
2, 36624, Note_on_c, 0, 75, 127
2, 36671, Note_on_c, 0, 75, 0
2, 36672, Note_on_c, 0, 76, 127
2, 36719, Note_on_c, 0, 76, 0
2, 36720, Note_on_c, 0, 75, 127
2, 36767, Note_on_c, 0, 59, 0
2, 36767, Note_on_c, 0, 71, 0
2, 36767, Note_on_c, 0, 66, 0
2, 36768, Note_on_c, 0, 59, 127
2, 36768, Note_on_c, 0, 47, 127
2, 36768, Note_on_c, 0, 69, 127
2, 36864, Note_on_c, 0, 75, 0
2, 36864, Note_on_c, 0, 76, 127
2, 36958, Note_on_c, 0, 69, 0
2, 36959, Note_on_c, 0, 59, 0
2, 36959, Note_on_c, 0, 47, 0
2, 36959, Note_on_c, 0, 76, 0
2, 36960, Note_on_c, 0, 59, 127
2, 36960, Note_on_c, 0, 52, 127
2, 36960, Note_on_c, 0, 76, 127
2, 36960, Note_on_c, 0, 67, 127
2, 37151, Note_on_c, 0, 67, 0
2, 37151, Note_on_c, 0, 59, 0
2, 37151, Note_on_c, 0, 52, 0
2, 37151, Note_on_c, 0, 76, 0
2, 37152, Note_on_c, 0, 67, 127
2, 37152, Note_on_c, 0, 71, 127
2, 37152, Note_on_c, 0, 76, 127
2, 37242, Note_on_c, 0, 71, 0
2, 37247, Note_on_c, 0, 76, 0
2, 37248, Note_on_c, 0, 71, 127
2, 37343, Note_on_c, 0, 71, 0
2, 37344, Note_on_c, 0, 69, 127
2, 37344, Note_on_c, 0, 72, 127
2, 37434, Note_on_c, 0, 69, 0
2, 37439, Note_on_c, 0, 72, 0
2, 37440, Note_on_c, 0, 69, 127
2, 37532, Note_on_c, 0, 67, 0
2, 37535, Note_on_c, 0, 69, 0
2, 37536, Note_on_c, 0, 66, 127
2, 37536, Note_on_c, 0, 74, 127
2, 37631, Note_on_c, 0, 74, 0
2, 37632, Note_on_c, 0, 69, 127
2, 37727, Note_on_c, 0, 69, 0
2, 37728, Note_on_c, 0, 67, 127
2, 37728, Note_on_c, 0, 71, 127
2, 37818, Note_on_c, 0, 67, 0
2, 37823, Note_on_c, 0, 71, 0
2, 37824, Note_on_c, 0, 67, 127
2, 37916, Note_on_c, 0, 66, 0
2, 37919, Note_on_c, 0, 67, 0
2, 37920, Note_on_c, 0, 64, 127
2, 37920, Note_on_c, 0, 72, 127
2, 38015, Note_on_c, 0, 72, 0
2, 38016, Note_on_c, 0, 67, 127
2, 38111, Note_on_c, 0, 67, 0
2, 38112, Note_on_c, 0, 66, 127
2, 38112, Note_on_c, 0, 69, 127
2, 38202, Note_on_c, 0, 66, 0
2, 38207, Note_on_c, 0, 69, 0
2, 38208, Note_on_c, 0, 66, 127
2, 38300, Note_on_c, 0, 64, 0
2, 38303, Note_on_c, 0, 66, 0
2, 38304, Note_on_c, 0, 63, 127
2, 38304, Note_on_c, 0, 71, 127
2, 38399, Note_on_c, 0, 71, 0
2, 38400, Note_on_c, 0, 66, 127
2, 38494, Note_on_c, 0, 63, 0
2, 38495, Note_on_c, 0, 66, 0
2, 38496, Note_on_c, 0, 67, 127
2, 38496, Note_on_c, 0, 64, 127
2, 38687, Note_on_c, 0, 64, 0
2, 38687, Note_on_c, 0, 67, 0
2, 38688, Note_on_c, 0, 52, 127
2, 38688, Note_on_c, 0, 67, 127
2, 38688, Note_on_c, 0, 64, 127
2, 38688, Note_on_c, 0, 59, 127
2, 38783, Note_on_c, 0, 52, 0
2, 38784, Note_on_c, 0, 47, 127
2, 38879, Note_on_c, 0, 47, 0
2, 38879, Note_on_c, 0, 59, 0
2, 38880, Note_on_c, 0, 48, 127
2, 38880, Note_on_c, 0, 57, 127
2, 38975, Note_on_c, 0, 48, 0
2, 38976, Note_on_c, 0, 45, 127
2, 39068, Note_on_c, 0, 67, 0
2, 39068, Note_on_c, 0, 64, 0
2, 39071, Note_on_c, 0, 45, 0
2, 39072, Note_on_c, 0, 50, 127
2, 39072, Note_on_c, 0, 66, 127
2, 39072, Note_on_c, 0, 62, 127
2, 39167, Note_on_c, 0, 50, 0
2, 39168, Note_on_c, 0, 45, 127
2, 39260, Note_on_c, 0, 57, 0
2, 39263, Note_on_c, 0, 45, 0
2, 39264, Note_on_c, 0, 47, 127
2, 39264, Note_on_c, 0, 55, 127
2, 39359, Note_on_c, 0, 47, 0
2, 39360, Note_on_c, 0, 43, 127
2, 39452, Note_on_c, 0, 62, 0
2, 39452, Note_on_c, 0, 66, 0
2, 39455, Note_on_c, 0, 43, 0
2, 39456, Note_on_c, 0, 48, 127
2, 39456, Note_on_c, 0, 64, 127
2, 39456, Note_on_c, 0, 60, 127
2, 39551, Note_on_c, 0, 48, 0
2, 39552, Note_on_c, 0, 43, 127
2, 39644, Note_on_c, 0, 55, 0
2, 39647, Note_on_c, 0, 43, 0
2, 39648, Note_on_c, 0, 45, 127
2, 39648, Note_on_c, 0, 54, 127
2, 39743, Note_on_c, 0, 45, 0
2, 39744, Note_on_c, 0, 42, 127
2, 39836, Note_on_c, 0, 60, 0
2, 39836, Note_on_c, 0, 64, 0
2, 39839, Note_on_c, 0, 42, 0
2, 39840, Note_on_c, 0, 47, 127
2, 39840, Note_on_c, 0, 59, 127
2, 39840, Note_on_c, 0, 63, 127
2, 39935, Note_on_c, 0, 47, 0
2, 39936, Note_on_c, 0, 42, 127
2, 40028, Note_on_c, 0, 54, 0
2, 40031, Note_on_c, 0, 63, 0
2, 40031, Note_on_c, 0, 59, 0
2, 40031, Note_on_c, 0, 42, 0
2, 40032, Note_on_c, 0, 52, 127
2, 40032, Note_on_c, 0, 43, 127
2, 40032, Note_on_c, 0, 64, 127
2, 40032, Note_on_c, 0, 59, 127
2, 40127, Note_on_c, 0, 59, 0
2, 40127, Note_on_c, 0, 64, 0
2, 40128, Note_on_c, 0, 67, 127
2, 40223, Note_on_c, 0, 67, 0
2, 40223, Note_on_c, 0, 43, 0
2, 40223, Note_on_c, 0, 52, 0
2, 40224, Note_on_c, 0, 51, 127
2, 40224, Note_on_c, 0, 47, 127
2, 40224, Note_on_c, 0, 66, 127
2, 40319, Note_on_c, 0, 66, 0
2, 40320, Note_on_c, 0, 69, 127
2, 40415, Note_on_c, 0, 69, 0
2, 40415, Note_on_c, 0, 47, 0
2, 40415, Note_on_c, 0, 51, 0
2, 40416, Note_on_c, 0, 40, 127
2, 40416, Note_on_c, 0, 52, 127
2, 40416, Note_on_c, 0, 67, 127
2, 40511, Note_on_c, 0, 67, 0
2, 40512, Note_on_c, 0, 71, 127
2, 40607, Note_on_c, 0, 71, 0
2, 40607, Note_on_c, 0, 52, 0
2, 40607, Note_on_c, 0, 40, 0
2, 40608, Note_on_c, 0, 54, 127
2, 40608, Note_on_c, 0, 69, 127
2, 40703, Note_on_c, 0, 69, 0
2, 40704, Note_on_c, 0, 72, 127
2, 40799, Note_on_c, 0, 72, 0
2, 40799, Note_on_c, 0, 54, 0
2, 40800, Note_on_c, 0, 55, 127
2, 40800, Note_on_c, 0, 71, 127
2, 40895, Note_on_c, 0, 71, 0
2, 40896, Note_on_c, 0, 74, 127
2, 40991, Note_on_c, 0, 74, 0
2, 40991, Note_on_c, 0, 55, 0
2, 40992, Note_on_c, 0, 52, 127
2, 40992, Note_on_c, 0, 73, 127
2, 41087, Note_on_c, 0, 73, 0
2, 41088, Note_on_c, 0, 76, 127
2, 41183, Note_on_c, 0, 76, 0
2, 41183, Note_on_c, 0, 52, 0
2, 41184, Note_on_c, 0, 59, 127
2, 41184, Note_on_c, 0, 74, 127
2, 41279, Note_on_c, 0, 74, 0
2, 41280, Note_on_c, 0, 78, 127
2, 41375, Note_on_c, 0, 78, 0
2, 41375, Note_on_c, 0, 59, 0
2, 41376, Note_on_c, 0, 61, 127
2, 41376, Note_on_c, 0, 76, 127
2, 41471, Note_on_c, 0, 76, 0
2, 41472, Note_on_c, 0, 79, 127
2, 41567, Note_on_c, 0, 79, 0
2, 41567, Note_on_c, 0, 61, 0
2, 41568, Note_on_c, 0, 62, 127
2, 41568, Note_on_c, 0, 78, 127
2, 41759, Note_on_c, 0, 78, 0
2, 41759, Note_on_c, 0, 62, 0
2, 41760, Note_on_c, 0, 62, 127
2, 41760, Note_on_c, 0, 71, 127
2, 41760, Note_on_c, 0, 66, 127
2, 41760, Note_on_c, 0, 83, 127
2, 41855, Note_on_c, 0, 83, 0
2, 41856, Note_on_c, 0, 78, 127
2, 41951, Note_on_c, 0, 78, 0
2, 41951, Note_on_c, 0, 66, 0
2, 41952, Note_on_c, 0, 64, 127
2, 41952, Note_on_c, 0, 79, 127
2, 42047, Note_on_c, 0, 79, 0
2, 42048, Note_on_c, 0, 76, 127
2, 42140, Note_on_c, 0, 62, 0
2, 42140, Note_on_c, 0, 71, 0
2, 42143, Note_on_c, 0, 76, 0
2, 42144, Note_on_c, 0, 61, 127
2, 42144, Note_on_c, 0, 69, 127
2, 42144, Note_on_c, 0, 81, 127
2, 42239, Note_on_c, 0, 81, 0
2, 42240, Note_on_c, 0, 76, 127
2, 42332, Note_on_c, 0, 64, 0
2, 42335, Note_on_c, 0, 76, 0
2, 42336, Note_on_c, 0, 62, 127
2, 42336, Note_on_c, 0, 78, 127
2, 42431, Note_on_c, 0, 78, 0
2, 42432, Note_on_c, 0, 74, 127
2, 42524, Note_on_c, 0, 61, 0
2, 42524, Note_on_c, 0, 69, 0
2, 42527, Note_on_c, 0, 74, 0
2, 42528, Note_on_c, 0, 59, 127
2, 42528, Note_on_c, 0, 67, 127
2, 42528, Note_on_c, 0, 79, 127
2, 42623, Note_on_c, 0, 79, 0
2, 42624, Note_on_c, 0, 74, 127
2, 42716, Note_on_c, 0, 62, 0
2, 42719, Note_on_c, 0, 74, 0
2, 42720, Note_on_c, 0, 61, 127
2, 42720, Note_on_c, 0, 76, 127
2, 42815, Note_on_c, 0, 76, 0
2, 42816, Note_on_c, 0, 73, 127
2, 42908, Note_on_c, 0, 59, 0
2, 42908, Note_on_c, 0, 67, 0
2, 42911, Note_on_c, 0, 61, 0
2, 42911, Note_on_c, 0, 73, 0
2, 42912, Note_on_c, 0, 58, 127
2, 42912, Note_on_c, 0, 66, 127
2, 42912, Note_on_c, 0, 61, 127
2, 42912, Note_on_c, 0, 78, 127
2, 43007, Note_on_c, 0, 78, 0
2, 43008, Note_on_c, 0, 73, 127
2, 43103, Note_on_c, 0, 73, 0
2, 43103, Note_on_c, 0, 61, 0
2, 43103, Note_on_c, 0, 66, 0
2, 43103, Note_on_c, 0, 58, 0
2, 43104, Note_on_c, 0, 59, 127
2, 43104, Note_on_c, 0, 66, 127
2, 43104, Note_on_c, 0, 74, 127
2, 43199, Note_on_c, 0, 74, 0
2, 43200, Note_on_c, 0, 73, 127
2, 43294, Note_on_c, 0, 66, 0
2, 43295, Note_on_c, 0, 73, 0
2, 43295, Note_on_c, 0, 59, 0
2, 43296, Note_on_c, 0, 55, 127
2, 43296, Note_on_c, 0, 71, 127
2, 43296, Note_on_c, 0, 64, 127
2, 43391, Note_on_c, 0, 71, 0
2, 43392, Note_on_c, 0, 73, 127
2, 43486, Note_on_c, 0, 64, 0
2, 43487, Note_on_c, 0, 73, 0
2, 43487, Note_on_c, 0, 55, 0
2, 43488, Note_on_c, 0, 54, 127
2, 43488, Note_on_c, 0, 62, 127
2, 43488, Note_on_c, 0, 66, 127
2, 43679, Note_on_c, 0, 66, 0
2, 43679, Note_on_c, 0, 62, 0
2, 43679, Note_on_c, 0, 54, 0
2, 43680, Note_on_c, 0, 42, 127
2, 43680, Note_on_c, 0, 61, 127
2, 43680, Note_on_c, 0, 71, 127
2, 43727, Note_on_c, 0, 71, 0
2, 43728, Note_on_c, 0, 70, 127
2, 43775, Note_on_c, 0, 70, 0
2, 43776, Note_on_c, 0, 68, 127
2, 43823, Note_on_c, 0, 68, 0
2, 43824, Note_on_c, 0, 70, 127
2, 43871, Note_on_c, 0, 70, 0
2, 43871, Note_on_c, 0, 61, 0
2, 43871, Note_on_c, 0, 42, 0
2, 43872, Note_on_c, 0, 47, 127
2, 43872, Note_on_c, 0, 71, 127
2, 43872, Note_on_c, 0, 66, 127
2, 43872, Note_on_c, 0, 62, 127
2, 44062, Note_on_c, 0, 47, 0
2, 44063, Note_on_c, 0, 71, 0
2, 44063, Note_on_c, 0, 66, 0
2, 44063, Note_on_c, 0, 62, 0
2, 44064, Note_on_c, 0, 69, 127
2, 44159, Note_on_c, 0, 69, 0
2, 44160, Note_on_c, 0, 67, 127
2, 44255, Note_on_c, 0, 67, 0
2, 44256, Note_on_c, 0, 66, 127
2, 44351, Note_on_c, 0, 66, 0
2, 44352, Note_on_c, 0, 64, 127
2, 44447, Note_on_c, 0, 64, 0
2, 44448, Note_on_c, 0, 62, 127
2, 44543, Note_on_c, 0, 62, 0
2, 44544, Note_on_c, 0, 61, 127
2, 44608, Note_on_c, 0, 61, 0
2, 44640, Note_on_c, 0, 71, 127
2, 44831, Note_on_c, 0, 71, 0
2, 44832, Note_on_c, 0, 69, 127
2, 44927, Note_on_c, 0, 69, 0
2, 44928, Note_on_c, 0, 67, 127
2, 45023, Note_on_c, 0, 67, 0
2, 45024, Note_on_c, 0, 66, 127
2, 45119, Note_on_c, 0, 66, 0
2, 45120, Note_on_c, 0, 64, 127
2, 45215, Note_on_c, 0, 64, 0
2, 45216, Note_on_c, 0, 62, 127
2, 45311, Note_on_c, 0, 62, 0
2, 45312, Note_on_c, 0, 61, 127
2, 45407, Note_on_c, 0, 61, 0
2, 45408, Note_on_c, 0, 59, 127
2, 45504, Note_on_c, 0, 66, 127
2, 45598, Note_on_c, 0, 59, 0
2, 45599, Note_on_c, 0, 66, 0
2, 45600, Note_on_c, 0, 62, 127
2, 45695, Note_on_c, 0, 62, 0
2, 45696, Note_on_c, 0, 59, 127
2, 45791, Note_on_c, 0, 59, 0
2, 45792, Note_on_c, 0, 62, 127
2, 45887, Note_on_c, 0, 62, 0
2, 45888, Note_on_c, 0, 54, 127
2, 45983, Note_on_c, 0, 54, 0
2, 45984, Note_on_c, 0, 59, 127
2, 46079, Note_on_c, 0, 59, 0
2, 46080, Note_on_c, 0, 47, 127
2, 46175, Note_on_c, 0, 47, 0
2, 46176, Note_on_c, 0, 59, 127
2, 46272, Note_on_c, 0, 66, 127
2, 46366, Note_on_c, 0, 59, 0
2, 46367, Note_on_c, 0, 66, 0
2, 46368, Note_on_c, 0, 62, 127
2, 46463, Note_on_c, 0, 62, 0
2, 46464, Note_on_c, 0, 59, 127
2, 46559, Note_on_c, 0, 59, 0
2, 46560, Note_on_c, 0, 62, 127
2, 46655, Note_on_c, 0, 62, 0
2, 46656, Note_on_c, 0, 54, 127
2, 46751, Note_on_c, 0, 54, 0
2, 46752, Note_on_c, 0, 59, 127
2, 46847, Note_on_c, 0, 59, 0
2, 46848, Note_on_c, 0, 47, 127
2, 46943, Note_on_c, 0, 47, 0
2, 46944, Note_on_c, 0, 59, 127
2, 47040, Note_on_c, 0, 66, 127
2, 47134, Note_on_c, 0, 59, 0
2, 47135, Note_on_c, 0, 66, 0
2, 47136, Note_on_c, 0, 62, 127
2, 47231, Note_on_c, 0, 62, 0
2, 47232, Note_on_c, 0, 59, 127
2, 47327, Note_on_c, 0, 59, 0
2, 47328, Note_on_c, 0, 62, 127
2, 47423, Note_on_c, 0, 62, 0
2, 47424, Note_on_c, 0, 54, 127
2, 47519, Note_on_c, 0, 54, 0
2, 47520, Note_on_c, 0, 59, 127
2, 47615, Note_on_c, 0, 59, 0
2, 47616, Note_on_c, 0, 47, 127
2, 47711, Note_on_c, 0, 47, 0
2, 47712, Note_on_c, 0, 66, 127
2, 47903, Note_on_c, 0, 66, 0
2, 47904, Note_on_c, 0, 54, 127
2, 47904, Note_on_c, 0, 50, 127
2, 47904, Note_on_c, 0, 59, 127
2, 47904, Note_on_c, 0, 71, 127
2, 47904, Note_on_c, 0, 66, 127
2, 47904, Note_on_c, 0, 62, 127
2, 48074, Note_on_c, 0, 62, 0
2, 48074, Note_on_c, 0, 50, 0
2, 48074, Note_on_c, 0, 59, 0
2, 48074, Note_on_c, 0, 54, 0
2, 48074, Note_on_c, 0, 66, 0
2, 48074, Note_on_c, 0, 71, 0
2, 48096, Note_on_c, 0, 52, 127
2, 48096, Note_on_c, 0, 49, 127
2, 48096, Note_on_c, 0, 57, 127
2, 48096, Note_on_c, 0, 69, 127
2, 48096, Note_on_c, 0, 64, 127
2, 48096, Note_on_c, 0, 61, 127
2, 48266, Note_on_c, 0, 61, 0
2, 48266, Note_on_c, 0, 49, 0
2, 48266, Note_on_c, 0, 57, 0
2, 48266, Note_on_c, 0, 52, 0
2, 48266, Note_on_c, 0, 64, 0
2, 48266, Note_on_c, 0, 69, 0
2, 48288, Note_on_c, 0, 55, 127
2, 48288, Note_on_c, 0, 50, 127
2, 48288, Note_on_c, 0, 47, 127
2, 48288, Note_on_c, 0, 62, 127
2, 48288, Note_on_c, 0, 59, 127
2, 48288, Note_on_c, 0, 67, 127
2, 48458, Note_on_c, 0, 67, 0
2, 48458, Note_on_c, 0, 50, 0
2, 48458, Note_on_c, 0, 47, 0
2, 48458, Note_on_c, 0, 55, 0
2, 48458, Note_on_c, 0, 59, 0
2, 48458, Note_on_c, 0, 62, 0
2, 48480, Note_on_c, 0, 54, 127
2, 48480, Note_on_c, 0, 49, 127
2, 48480, Note_on_c, 0, 46, 127
2, 48480, Note_on_c, 0, 61, 127
2, 48480, Note_on_c, 0, 58, 127
2, 48480, Note_on_c, 0, 66, 127
2, 48650, Note_on_c, 0, 66, 0
2, 48650, Note_on_c, 0, 49, 0
2, 48650, Note_on_c, 0, 46, 0
2, 48650, Note_on_c, 0, 54, 0
2, 48650, Note_on_c, 0, 58, 0
2, 48650, Note_on_c, 0, 61, 0
2, 48672, Note_on_c, 0, 47, 127
2, 48672, Note_on_c, 0, 43, 127
2, 48672, Note_on_c, 0, 52, 127
2, 48672, Note_on_c, 0, 55, 127
2, 48672, Note_on_c, 0, 64, 127
2, 48672, Note_on_c, 0, 59, 127
2, 48842, Note_on_c, 0, 59, 0
2, 48842, Note_on_c, 0, 43, 0
2, 48842, Note_on_c, 0, 52, 0
2, 48842, Note_on_c, 0, 47, 0
2, 48842, Note_on_c, 0, 64, 0
2, 48842, Note_on_c, 0, 55, 0
2, 48864, Note_on_c, 0, 50, 127
2, 48864, Note_on_c, 0, 47, 127
2, 48864, Note_on_c, 0, 42, 127
2, 48864, Note_on_c, 0, 62, 127
2, 48864, Note_on_c, 0, 59, 127
2, 48864, Note_on_c, 0, 54, 127
2, 49034, Note_on_c, 0, 54, 0
2, 49034, Note_on_c, 0, 47, 0
2, 49034, Note_on_c, 0, 42, 0
2, 49034, Note_on_c, 0, 50, 0
2, 49034, Note_on_c, 0, 59, 0
2, 49034, Note_on_c, 0, 62, 0
2, 49056, Note_on_c, 0, 49, 127
2, 49056, Note_on_c, 0, 46, 127
2, 49056, Note_on_c, 0, 40, 127
2, 49056, Note_on_c, 0, 54, 127
2, 49056, Note_on_c, 0, 61, 127
2, 49056, Note_on_c, 0, 58, 127
2, 49226, Note_on_c, 0, 58, 0
2, 49226, Note_on_c, 0, 46, 0
2, 49226, Note_on_c, 0, 40, 0
2, 49226, Note_on_c, 0, 49, 0
2, 49226, Note_on_c, 0, 61, 0
2, 49226, Note_on_c, 0, 54, 0
2, 49248, Note_on_c, 0, 47, 127
2, 49248, Note_on_c, 0, 38, 127
2, 49248, Note_on_c, 0, 66, 127
2, 49343, Note_on_c, 0, 66, 0
2, 49344, Note_on_c, 0, 64, 127
2, 49439, Note_on_c, 0, 64, 0
2, 49439, Note_on_c, 0, 38, 0
2, 49439, Note_on_c, 0, 47, 0
2, 49440, Note_on_c, 0, 54, 127
2, 49440, Note_on_c, 0, 47, 127
2, 49440, Note_on_c, 0, 59, 127
2, 49440, Note_on_c, 0, 62, 127
2, 49535, Note_on_c, 0, 62, 0
2, 49536, Note_on_c, 0, 61, 127
2, 49630, Note_on_c, 0, 59, 0
2, 49630, Note_on_c, 0, 47, 0
2, 49631, Note_on_c, 0, 54, 0
2, 49631, Note_on_c, 0, 61, 0
2, 49632, Note_on_c, 0, 54, 127
2, 49632, Note_on_c, 0, 62, 127
2, 49632, Note_on_c, 0, 58, 127
2, 49679, Note_on_c, 0, 62, 0
2, 49680, Note_on_c, 0, 61, 127
2, 49727, Note_on_c, 0, 61, 0
2, 49728, Note_on_c, 0, 62, 127
2, 49775, Note_on_c, 0, 62, 0
2, 49776, Note_on_c, 0, 61, 127
2, 49823, Note_on_c, 0, 58, 0
2, 49823, Note_on_c, 0, 54, 0
2, 49824, Note_on_c, 0, 42, 127
2, 49824, Note_on_c, 0, 54, 127
2, 49824, Note_on_c, 0, 58, 127
2, 49920, Note_on_c, 0, 61, 0
2, 49920, Note_on_c, 0, 59, 127
2, 49984, Note_on_c, 0, 58, 0
2, 50015, Note_on_c, 0, 42, 0
2, 50015, Note_on_c, 0, 54, 0
2, 50015, Note_on_c, 0, 59, 0
2, 50016, Note_on_c, 0, 50, 127
2, 50016, Note_on_c, 0, 47, 127
2, 50016, Note_on_c, 0, 54, 127
2, 50016, Note_on_c, 0, 59, 127
2, 50207, Note_on_c, 0, 59, 0
2, 50207, Note_on_c, 0, 50, 0
2, 50207, Note_on_c, 0, 47, 0
2, 50207, Note_on_c, 0, 54, 0
2, 50208, Note_on_c, 0, 62, 127
2, 50208, Note_on_c, 0, 71, 127
2, 50303, Note_on_c, 0, 71, 0
2, 50304, Note_on_c, 0, 66, 127
2, 50399, Note_on_c, 0, 66, 0
2, 50399, Note_on_c, 0, 62, 0
2, 50400, Note_on_c, 0, 58, 127
2, 50400, Note_on_c, 0, 73, 127
2, 50495, Note_on_c, 0, 73, 0
2, 50496, Note_on_c, 0, 66, 127
2, 50591, Note_on_c, 0, 66, 0
2, 50591, Note_on_c, 0, 58, 0
2, 50592, Note_on_c, 0, 59, 127
2, 50592, Note_on_c, 0, 74, 127
2, 50687, Note_on_c, 0, 74, 0
2, 50688, Note_on_c, 0, 66, 127
2, 50783, Note_on_c, 0, 66, 0
2, 50783, Note_on_c, 0, 59, 0
2, 50784, Note_on_c, 0, 58, 127
2, 50784, Note_on_c, 0, 54, 127
2, 50784, Note_on_c, 0, 73, 127
2, 50879, Note_on_c, 0, 73, 0
2, 50880, Note_on_c, 0, 66, 127
2, 50975, Note_on_c, 0, 66, 0
2, 50975, Note_on_c, 0, 54, 0
2, 50975, Note_on_c, 0, 58, 0
2, 50976, Note_on_c, 0, 62, 127
2, 50976, Note_on_c, 0, 71, 127
2, 51071, Note_on_c, 0, 71, 0
2, 51072, Note_on_c, 0, 66, 127
2, 51167, Note_on_c, 0, 66, 0
2, 51167, Note_on_c, 0, 62, 0
2, 51168, Note_on_c, 0, 58, 127
2, 51168, Note_on_c, 0, 73, 127
2, 51263, Note_on_c, 0, 73, 0
2, 51264, Note_on_c, 0, 66, 127
2, 51359, Note_on_c, 0, 66, 0
2, 51359, Note_on_c, 0, 58, 0
2, 51360, Note_on_c, 0, 59, 127
2, 51360, Note_on_c, 0, 74, 127
2, 51455, Note_on_c, 0, 74, 0
2, 51456, Note_on_c, 0, 66, 127
2, 51551, Note_on_c, 0, 66, 0
2, 51551, Note_on_c, 0, 59, 0
2, 51552, Note_on_c, 0, 58, 127
2, 51552, Note_on_c, 0, 54, 127
2, 51552, Note_on_c, 0, 73, 127
2, 51647, Note_on_c, 0, 73, 0
2, 51648, Note_on_c, 0, 66, 127
2, 51743, Note_on_c, 0, 66, 0
2, 51743, Note_on_c, 0, 54, 0
2, 51743, Note_on_c, 0, 58, 0
2, 51744, Note_on_c, 0, 59, 127
2, 51744, Note_on_c, 0, 74, 127
2, 51744, Note_on_c, 0, 78, 127
2, 51839, Note_on_c, 0, 59, 0
2, 51840, Note_on_c, 0, 54, 127
2, 51935, Note_on_c, 0, 54, 0
2, 51935, Note_on_c, 0, 78, 0
2, 51935, Note_on_c, 0, 74, 0
2, 51936, Note_on_c, 0, 61, 127
2, 51936, Note_on_c, 0, 78, 127
2, 51936, Note_on_c, 0, 70, 127
2, 52031, Note_on_c, 0, 61, 0
2, 52032, Note_on_c, 0, 54, 127
2, 52127, Note_on_c, 0, 54, 0
2, 52127, Note_on_c, 0, 70, 0
2, 52127, Note_on_c, 0, 78, 0
2, 52128, Note_on_c, 0, 62, 127
2, 52128, Note_on_c, 0, 71, 127
2, 52128, Note_on_c, 0, 78, 127
2, 52223, Note_on_c, 0, 62, 0
2, 52224, Note_on_c, 0, 54, 127
2, 52319, Note_on_c, 0, 54, 0
2, 52319, Note_on_c, 0, 78, 0
2, 52319, Note_on_c, 0, 71, 0
2, 52320, Note_on_c, 0, 61, 127
2, 52320, Note_on_c, 0, 78, 127
2, 52320, Note_on_c, 0, 70, 127
2, 52415, Note_on_c, 0, 61, 0
2, 52416, Note_on_c, 0, 54, 127
2, 52511, Note_on_c, 0, 54, 0
2, 52511, Note_on_c, 0, 70, 0
2, 52511, Note_on_c, 0, 78, 0
2, 52512, Note_on_c, 0, 59, 127
2, 52512, Note_on_c, 0, 78, 127
2, 52512, Note_on_c, 0, 74, 127
2, 52607, Note_on_c, 0, 59, 0
2, 52608, Note_on_c, 0, 54, 127
2, 52703, Note_on_c, 0, 54, 0
2, 52703, Note_on_c, 0, 74, 0
2, 52703, Note_on_c, 0, 78, 0
2, 52704, Note_on_c, 0, 61, 127
2, 52704, Note_on_c, 0, 78, 127
2, 52704, Note_on_c, 0, 70, 127
2, 52799, Note_on_c, 0, 61, 0
2, 52800, Note_on_c, 0, 54, 127
2, 52895, Note_on_c, 0, 54, 0
2, 52895, Note_on_c, 0, 70, 0
2, 52895, Note_on_c, 0, 78, 0
2, 52896, Note_on_c, 0, 62, 127
2, 52896, Note_on_c, 0, 78, 127
2, 52896, Note_on_c, 0, 71, 127
2, 52991, Note_on_c, 0, 62, 0
2, 52992, Note_on_c, 0, 54, 127
2, 53087, Note_on_c, 0, 54, 0
2, 53087, Note_on_c, 0, 71, 0
2, 53087, Note_on_c, 0, 78, 0
2, 53088, Note_on_c, 0, 78, 127
2, 53088, Note_on_c, 0, 70, 127
2, 53088, Note_on_c, 0, 61, 127
2, 53184, Note_on_c, 0, 61, 0
2, 53184, Note_on_c, 0, 70, 0
2, 53184, Note_on_c, 0, 78, 0
2, 53185, Note_on_c, 0, 73, 127
2, 53185, Note_on_c, 0, 54, 127
2, 53281, Note_on_c, 0, 54, 0
2, 53281, Note_on_c, 0, 73, 0
2, 53283, Note_on_c, 0, 78, 127
2, 53283, Note_on_c, 0, 69, 127
2, 53283, Note_on_c, 0, 66, 127
2, 53379, Note_on_c, 0, 78, 0
2, 53381, Note_on_c, 0, 81, 127
2, 53477, Note_on_c, 0, 81, 0
2, 53477, Note_on_c, 0, 66, 0
2, 53477, Note_on_c, 0, 69, 0
2, 53479, Note_on_c, 0, 71, 127
2, 53479, Note_on_c, 0, 66, 127
2, 53479, Note_on_c, 0, 63, 127
2, 53575, Note_on_c, 0, 71, 0
2, 53577, Note_on_c, 0, 81, 127
2, 53673, Note_on_c, 0, 81, 0
2, 53673, Note_on_c, 0, 63, 0
2, 53673, Note_on_c, 0, 66, 0
2, 53675, Note_on_c, 0, 83, 127
2, 53675, Note_on_c, 0, 63, 127
2, 53675, Note_on_c, 0, 59, 127
2, 53771, Note_on_c, 0, 83, 0
2, 53773, Note_on_c, 0, 78, 127
2, 53869, Note_on_c, 0, 78, 0
2, 53869, Note_on_c, 0, 59, 0
2, 53869, Note_on_c, 0, 63, 0
2, 53871, Note_on_c, 0, 79, 127
2, 53871, Note_on_c, 0, 64, 127
2, 53871, Note_on_c, 0, 52, 127
2, 53871, Note_on_c, 0, 59, 127
2, 53967, Note_on_c, 0, 79, 0
2, 53969, Note_on_c, 0, 71, 127
2, 54065, Note_on_c, 0, 71, 0
2, 54065, Note_on_c, 0, 59, 0
2, 54065, Note_on_c, 0, 52, 0
2, 54065, Note_on_c, 0, 64, 0
2, 54067, Note_on_c, 0, 76, 127
2, 54067, Note_on_c, 0, 67, 127
2, 54067, Note_on_c, 0, 64, 127
2, 54163, Note_on_c, 0, 76, 0
2, 54165, Note_on_c, 0, 79, 127
2, 54261, Note_on_c, 0, 79, 0
2, 54261, Note_on_c, 0, 64, 0
2, 54261, Note_on_c, 0, 67, 0
2, 54263, Note_on_c, 0, 69, 127
2, 54263, Note_on_c, 0, 61, 127
2, 54263, Note_on_c, 0, 64, 127
2, 54359, Note_on_c, 0, 69, 0
2, 54360, Note_on_c, 0, 79, 127
2, 54456, Note_on_c, 0, 79, 0
2, 54457, Note_on_c, 0, 64, 0
2, 54457, Note_on_c, 0, 61, 0
2, 54458, Note_on_c, 0, 81, 127
2, 54458, Note_on_c, 0, 57, 127
2, 54458, Note_on_c, 0, 61, 127
2, 54554, Note_on_c, 0, 81, 0
2, 54556, Note_on_c, 0, 76, 127
2, 54652, Note_on_c, 0, 76, 0
2, 54652, Note_on_c, 0, 61, 0
2, 54652, Note_on_c, 0, 57, 0
2, 54654, Note_on_c, 0, 78, 127
2, 54654, Note_on_c, 0, 57, 127
2, 54654, Note_on_c, 0, 62, 127
2, 54654, Note_on_c, 0, 50, 127
2, 54750, Note_on_c, 0, 78, 0
2, 54752, Note_on_c, 0, 69, 127
2, 54848, Note_on_c, 0, 69, 0
2, 54848, Note_on_c, 0, 50, 0
2, 54848, Note_on_c, 0, 62, 0
2, 54848, Note_on_c, 0, 57, 0
2, 54850, Note_on_c, 0, 74, 127
2, 54850, Note_on_c, 0, 62, 127
2, 54850, Note_on_c, 0, 66, 127
2, 54946, Note_on_c, 0, 74, 0
2, 54948, Note_on_c, 0, 78, 127
2, 55044, Note_on_c, 0, 78, 0
2, 55044, Note_on_c, 0, 66, 0
2, 55044, Note_on_c, 0, 62, 0
2, 55046, Note_on_c, 0, 68, 127
2, 55046, Note_on_c, 0, 62, 127
2, 55046, Note_on_c, 0, 59, 127
2, 55142, Note_on_c, 0, 68, 0
2, 55144, Note_on_c, 0, 74, 127
2, 55240, Note_on_c, 0, 74, 0
2, 55240, Note_on_c, 0, 59, 0
2, 55240, Note_on_c, 0, 62, 0
2, 55242, Note_on_c, 0, 78, 127
2, 55242, Note_on_c, 0, 56, 127
2, 55242, Note_on_c, 0, 59, 127
2, 55338, Note_on_c, 0, 78, 0
2, 55340, Note_on_c, 0, 74, 127
2, 55436, Note_on_c, 0, 74, 0
2, 55436, Note_on_c, 0, 59, 0
2, 55436, Note_on_c, 0, 56, 0
2, 55438, Note_on_c, 0, 76, 127
2, 55438, Note_on_c, 0, 49, 127
2, 55438, Note_on_c, 0, 61, 127
2, 55534, Note_on_c, 0, 76, 0
2, 55536, Note_on_c, 0, 67, 127
2, 55632, Note_on_c, 0, 67, 0
2, 55632, Note_on_c, 0, 61, 0
2, 55632, Note_on_c, 0, 49, 0
2, 55633, Note_on_c, 0, 73, 127
2, 55633, Note_on_c, 0, 64, 127
2, 55633, Note_on_c, 0, 61, 127
2, 55729, Note_on_c, 0, 73, 0
2, 55731, Note_on_c, 0, 76, 127
2, 55827, Note_on_c, 0, 76, 0
2, 55827, Note_on_c, 0, 61, 0
2, 55827, Note_on_c, 0, 64, 0
2, 55829, Note_on_c, 0, 66, 127
2, 55829, Note_on_c, 0, 58, 127
2, 55829, Note_on_c, 0, 61, 127
2, 55925, Note_on_c, 0, 66, 0
2, 55927, Note_on_c, 0, 73, 127
2, 56023, Note_on_c, 0, 73, 0
2, 56023, Note_on_c, 0, 61, 0
2, 56023, Note_on_c, 0, 58, 0
2, 56025, Note_on_c, 0, 76, 127
2, 56025, Note_on_c, 0, 54, 127
2, 56025, Note_on_c, 0, 58, 127
2, 56121, Note_on_c, 0, 76, 0
2, 56123, Note_on_c, 0, 73, 127
2, 56219, Note_on_c, 0, 73, 0
2, 56219, Note_on_c, 0, 58, 0
2, 56219, Note_on_c, 0, 54, 0
2, 56221, Note_on_c, 0, 59, 127
2, 56221, Note_on_c, 0, 74, 127
2, 56320, Note_on_c, 0, 59, 0
2, 56322, Note_on_c, 0, 47, 127
2, 56421, Note_on_c, 0, 47, 0
2, 56422, Note_on_c, 0, 74, 0
2, 56424, Note_on_c, 0, 59, 127
2, 56424, Note_on_c, 0, 71, 127
2, 56424, Note_on_c, 0, 66, 127
2, 56424, Note_on_c, 0, 74, 127
2, 56523, Note_on_c, 0, 59, 0
2, 56526, Note_on_c, 0, 54, 127
2, 56625, Note_on_c, 0, 54, 0
2, 56625, Note_on_c, 0, 66, 0
2, 56628, Note_on_c, 0, 55, 127
2, 56628, Note_on_c, 0, 64, 127
2, 56727, Note_on_c, 0, 55, 0
2, 56730, Note_on_c, 0, 52, 127
2, 56826, Note_on_c, 0, 74, 0
2, 56826, Note_on_c, 0, 71, 0
2, 56829, Note_on_c, 0, 52, 0
2, 56832, Note_on_c, 0, 57, 127
2, 56832, Note_on_c, 0, 73, 127
2, 56832, Note_on_c, 0, 69, 127
2, 56931, Note_on_c, 0, 57, 0
2, 56933, Note_on_c, 0, 52, 127
2, 57030, Note_on_c, 0, 64, 0
2, 57032, Note_on_c, 0, 52, 0
2, 57035, Note_on_c, 0, 54, 127
2, 57035, Note_on_c, 0, 62, 127
2, 57134, Note_on_c, 0, 54, 0
2, 57137, Note_on_c, 0, 50, 127
2, 57234, Note_on_c, 0, 69, 0
2, 57234, Note_on_c, 0, 73, 0
2, 57236, Note_on_c, 0, 50, 0
2, 57239, Note_on_c, 0, 55, 127
2, 57239, Note_on_c, 0, 71, 127
2, 57239, Note_on_c, 0, 67, 127
2, 57338, Note_on_c, 0, 55, 0
2, 57341, Note_on_c, 0, 50, 127
2, 57437, Note_on_c, 0, 62, 0
2, 57440, Note_on_c, 0, 50, 0
2, 57443, Note_on_c, 0, 52, 127
2, 57443, Note_on_c, 0, 61, 127
2, 57542, Note_on_c, 0, 52, 0
2, 57544, Note_on_c, 0, 49, 127
2, 57641, Note_on_c, 0, 67, 0
2, 57641, Note_on_c, 0, 71, 0
2, 57643, Note_on_c, 0, 49, 0
2, 57646, Note_on_c, 0, 54, 127
2, 57646, Note_on_c, 0, 66, 127
2, 57646, Note_on_c, 0, 70, 127
2, 57745, Note_on_c, 0, 54, 0
2, 57748, Note_on_c, 0, 49, 127
2, 57845, Note_on_c, 0, 61, 0
2, 57847, Note_on_c, 0, 70, 0
2, 57847, Note_on_c, 0, 66, 0
2, 57847, Note_on_c, 0, 49, 0
2, 57850, Note_on_c, 0, 50, 127
2, 57850, Note_on_c, 0, 59, 127
2, 57850, Note_on_c, 0, 71, 127
2, 57850, Note_on_c, 0, 66, 127
2, 57949, Note_on_c, 0, 66, 0
2, 57949, Note_on_c, 0, 71, 0
2, 57952, Note_on_c, 0, 67, 127
2, 58042, Note_on_c, 0, 59, 0
2, 58051, Note_on_c, 0, 67, 0
2, 58051, Note_on_c, 0, 50, 0
2, 58054, Note_on_c, 0, 59, 127
2, 58054, Note_on_c, 0, 52, 127
2, 58054, Note_on_c, 0, 66, 127
2, 58153, Note_on_c, 0, 66, 0
2, 58155, Note_on_c, 0, 64, 127
2, 58254, Note_on_c, 0, 64, 0
2, 58255, Note_on_c, 0, 52, 0
2, 58255, Note_on_c, 0, 59, 0
2, 58257, Note_on_c, 0, 54, 127
2, 58257, Note_on_c, 0, 59, 127
2, 58257, Note_on_c, 0, 62, 127
2, 58356, Note_on_c, 0, 62, 0
2, 58359, Note_on_c, 0, 61, 127
2, 58436, Note_on_c, 0, 59, 0
2, 58458, Note_on_c, 0, 61, 0
2, 58458, Note_on_c, 0, 54, 0
2, 58459, Note_on_c, 0, 59, 127
2, 58461, Note_on_c, 0, 42, 127
2, 58557, Note_on_c, 0, 58, 127
2, 58558, Note_on_c, 0, 59, 0
2, 58656, Note_on_c, 0, 58, 0
2, 58656, Note_on_c, 0, 59, 127
2, 58656, Note_on_c, 0, 47, 127
2, 58662, Note_on_c, 0, 42, 0
2, 58751, Note_on_c, 0, 59, 0
2, 58752, Note_on_c, 0, 55, 127
2, 58846, Note_on_c, 0, 47, 0
2, 58847, Note_on_c, 0, 55, 0
2, 58848, Note_on_c, 0, 54, 127
2, 58943, Note_on_c, 0, 54, 0
2, 58944, Note_on_c, 0, 52, 127
2, 59039, Note_on_c, 0, 52, 0
2, 59040, Note_on_c, 0, 50, 127
2, 59135, Note_on_c, 0, 50, 0
2, 59136, Note_on_c, 0, 49, 127
2, 59231, Note_on_c, 0, 49, 0
2, 59232, Note_on_c, 0, 47, 127
2, 59327, Note_on_c, 0, 47, 0
2, 59328, Note_on_c, 0, 46, 127
2, 59423, Note_on_c, 0, 46, 0
2, 59424, Note_on_c, 0, 47, 127
2, 59520, Note_on_c, 0, 78, 127
2, 59615, Note_on_c, 0, 78, 0
2, 59616, Note_on_c, 0, 74, 127
2, 59711, Note_on_c, 0, 74, 0
2, 59712, Note_on_c, 0, 71, 127
2, 59804, Note_on_c, 0, 47, 0
2, 59807, Note_on_c, 0, 71, 0
2, 59808, Note_on_c, 0, 74, 127
2, 59904, Note_on_c, 0, 66, 127
2, 59999, Note_on_c, 0, 66, 0
2, 60000, Note_on_c, 0, 71, 127
2, 60088, Note_on_c, 0, 74, 0
2, 60095, Note_on_c, 0, 71, 0
2, 60096, Note_on_c, 0, 59, 127
2, 60191, Note_on_c, 0, 59, 0
2, 60192, Note_on_c, 0, 64, 127
2, 60288, Note_on_c, 0, 74, 127
2, 60383, Note_on_c, 0, 74, 0
2, 60384, Note_on_c, 0, 71, 127
2, 60479, Note_on_c, 0, 71, 0
2, 60480, Note_on_c, 0, 68, 127
2, 60572, Note_on_c, 0, 64, 0
2, 60575, Note_on_c, 0, 68, 0
2, 60576, Note_on_c, 0, 71, 127
2, 60672, Note_on_c, 0, 62, 127
2, 60766, Note_on_c, 0, 71, 0
2, 60767, Note_on_c, 0, 62, 0
2, 60768, Note_on_c, 0, 68, 127
2, 60863, Note_on_c, 0, 68, 0
2, 60864, Note_on_c, 0, 52, 127
2, 60959, Note_on_c, 0, 52, 0
2, 60960, Note_on_c, 0, 57, 127
2, 61056, Note_on_c, 0, 76, 127
2, 61151, Note_on_c, 0, 76, 0
2, 61152, Note_on_c, 0, 72, 127
2, 61248, Note_on_c, 0, 69, 127
2, 61340, Note_on_c, 0, 57, 0
2, 61342, Note_on_c, 0, 72, 0
2, 61343, Note_on_c, 0, 69, 0
2, 61344, Note_on_c, 0, 72, 127
2, 61440, Note_on_c, 0, 64, 127
2, 61534, Note_on_c, 0, 72, 0
2, 61535, Note_on_c, 0, 64, 0
2, 61536, Note_on_c, 0, 69, 127
2, 61631, Note_on_c, 0, 69, 0
2, 61632, Note_on_c, 0, 57, 127
2, 61727, Note_on_c, 0, 57, 0
2, 61728, Note_on_c, 0, 62, 127
2, 61824, Note_on_c, 0, 72, 127
2, 61919, Note_on_c, 0, 72, 0
2, 61920, Note_on_c, 0, 69, 127
2, 62015, Note_on_c, 0, 69, 0
2, 62016, Note_on_c, 0, 66, 127
2, 62108, Note_on_c, 0, 62, 0
2, 62111, Note_on_c, 0, 66, 0
2, 62112, Note_on_c, 0, 69, 127
2, 62208, Note_on_c, 0, 60, 127
2, 62302, Note_on_c, 0, 69, 0
2, 62303, Note_on_c, 0, 60, 0
2, 62304, Note_on_c, 0, 66, 127
2, 62399, Note_on_c, 0, 66, 0
2, 62400, Note_on_c, 0, 50, 127
2, 62495, Note_on_c, 0, 50, 0
2, 62496, Note_on_c, 0, 55, 127
2, 62592, Note_on_c, 0, 74, 127
2, 62687, Note_on_c, 0, 74, 0
2, 62688, Note_on_c, 0, 71, 127
2, 62783, Note_on_c, 0, 71, 0
2, 62784, Note_on_c, 0, 67, 127
2, 62876, Note_on_c, 0, 55, 0
2, 62879, Note_on_c, 0, 67, 0
2, 62880, Note_on_c, 0, 71, 127
2, 62976, Note_on_c, 0, 62, 127
2, 63071, Note_on_c, 0, 62, 0
2, 63072, Note_on_c, 0, 67, 127
2, 63160, Note_on_c, 0, 71, 0
2, 63167, Note_on_c, 0, 67, 0
2, 63168, Note_on_c, 0, 55, 127
2, 63263, Note_on_c, 0, 55, 0
2, 63264, Note_on_c, 0, 64, 127
2, 63360, Note_on_c, 0, 74, 127
2, 63455, Note_on_c, 0, 74, 0
2, 63456, Note_on_c, 0, 71, 127
2, 63551, Note_on_c, 0, 71, 0
2, 63552, Note_on_c, 0, 67, 127
2, 63644, Note_on_c, 0, 64, 0
2, 63647, Note_on_c, 0, 67, 0
2, 63648, Note_on_c, 0, 71, 127
2, 63744, Note_on_c, 0, 62, 127
2, 63839, Note_on_c, 0, 62, 0
2, 63840, Note_on_c, 0, 67, 127
2, 63928, Note_on_c, 0, 71, 0
2, 63935, Note_on_c, 0, 67, 0
2, 63936, Note_on_c, 0, 52, 127
2, 64031, Note_on_c, 0, 52, 0
2, 64032, Note_on_c, 0, 59, 127
2, 64128, Note_on_c, 0, 74, 127
2, 64223, Note_on_c, 0, 74, 0
2, 64224, Note_on_c, 0, 71, 127
2, 64319, Note_on_c, 0, 71, 0
2, 64320, Note_on_c, 0, 67, 127
2, 64412, Note_on_c, 0, 59, 0
2, 64415, Note_on_c, 0, 67, 0
2, 64416, Note_on_c, 0, 71, 127
2, 64512, Note_on_c, 0, 62, 127
2, 64606, Note_on_c, 0, 71, 0
2, 64607, Note_on_c, 0, 62, 0
2, 64608, Note_on_c, 0, 67, 127
2, 64704, Note_on_c, 0, 55, 127
2, 64798, Note_on_c, 0, 67, 0
2, 64799, Note_on_c, 0, 55, 0
2, 64800, Note_on_c, 0, 60, 127
2, 64896, Note_on_c, 0, 74, 127
2, 64991, Note_on_c, 0, 74, 0
2, 64992, Note_on_c, 0, 71, 127
2, 65080, Note_on_c, 0, 60, 0
2, 65087, Note_on_c, 0, 71, 0
2, 65088, Note_on_c, 0, 67, 127
2, 65183, Note_on_c, 0, 67, 0
2, 65184, Note_on_c, 0, 72, 127
2, 65280, Note_on_c, 0, 64, 127
2, 65375, Note_on_c, 0, 64, 0
2, 65376, Note_on_c, 0, 69, 127
2, 65464, Note_on_c, 0, 72, 0
2, 65471, Note_on_c, 0, 69, 0
2, 65472, Note_on_c, 0, 57, 127
2, 65567, Note_on_c, 0, 57, 0
2, 65568, Note_on_c, 0, 62, 127
2, 65664, Note_on_c, 0, 72, 127
2, 65759, Note_on_c, 0, 72, 0
2, 65760, Note_on_c, 0, 69, 127
2, 65848, Note_on_c, 0, 62, 0
2, 65855, Note_on_c, 0, 69, 0
2, 65856, Note_on_c, 0, 66, 127
2, 65951, Note_on_c, 0, 66, 0
2, 65952, Note_on_c, 0, 69, 127
2, 66048, Note_on_c, 0, 60, 127
2, 66143, Note_on_c, 0, 60, 0
2, 66144, Note_on_c, 0, 66, 127
2, 66232, Note_on_c, 0, 69, 0
2, 66239, Note_on_c, 0, 66, 0
2, 66240, Note_on_c, 0, 50, 127
2, 66335, Note_on_c, 0, 50, 0
2, 66336, Note_on_c, 0, 59, 127
2, 66432, Note_on_c, 0, 71, 127
2, 66527, Note_on_c, 0, 71, 0
2, 66528, Note_on_c, 0, 67, 127
2, 66616, Note_on_c, 0, 59, 0
2, 66623, Note_on_c, 0, 67, 0
2, 66624, Note_on_c, 0, 62, 127
2, 66719, Note_on_c, 0, 62, 0
2, 66720, Note_on_c, 0, 67, 127
2, 66816, Note_on_c, 0, 59, 127
2, 66911, Note_on_c, 0, 59, 0
2, 66912, Note_on_c, 0, 62, 127
2, 67000, Note_on_c, 0, 67, 0
2, 67007, Note_on_c, 0, 62, 0
2, 67008, Note_on_c, 0, 52, 127
2, 67103, Note_on_c, 0, 52, 0
2, 67104, Note_on_c, 0, 61, 127
2, 67200, Note_on_c, 0, 71, 127
2, 67295, Note_on_c, 0, 71, 0
2, 67296, Note_on_c, 0, 67, 127
2, 67391, Note_on_c, 0, 67, 0
2, 67392, Note_on_c, 0, 64, 127
2, 67487, Note_on_c, 0, 64, 0
2, 67488, Note_on_c, 0, 69, 127
2, 67583, Note_on_c, 0, 69, 0
2, 67584, Note_on_c, 0, 64, 127
2, 67679, Note_on_c, 0, 64, 0
2, 67679, Note_on_c, 0, 61, 0
2, 67680, Note_on_c, 0, 67, 127
2, 67775, Note_on_c, 0, 67, 0
2, 67776, Note_on_c, 0, 61, 127
2, 67871, Note_on_c, 0, 61, 0
2, 67872, Note_on_c, 0, 62, 127
2, 67968, Note_on_c, 0, 69, 127
2, 68063, Note_on_c, 0, 69, 0
2, 68064, Note_on_c, 0, 66, 127
2, 68152, Note_on_c, 0, 62, 0
2, 68159, Note_on_c, 0, 66, 0
2, 68160, Note_on_c, 0, 62, 127
2, 68256, Note_on_c, 0, 66, 127
2, 68350, Note_on_c, 0, 62, 0
2, 68351, Note_on_c, 0, 66, 0
2, 68352, Note_on_c, 0, 57, 127
2, 68447, Note_on_c, 0, 57, 0
2, 68448, Note_on_c, 0, 62, 127
2, 68543, Note_on_c, 0, 62, 0
2, 68544, Note_on_c, 0, 48, 127
2, 68639, Note_on_c, 0, 48, 0
2, 68640, Note_on_c, 0, 47, 127
2, 68736, Note_on_c, 0, 71, 127
2, 68831, Note_on_c, 0, 71, 0
2, 68832, Note_on_c, 0, 67, 127
2, 68927, Note_on_c, 0, 67, 0
2, 68928, Note_on_c, 0, 62, 127
2, 69020, Note_on_c, 0, 47, 0
2, 69023, Note_on_c, 0, 62, 0
2, 69024, Note_on_c, 0, 67, 127
2, 69120, Note_on_c, 0, 59, 127
2, 69215, Note_on_c, 0, 59, 0
2, 69216, Note_on_c, 0, 62, 127
2, 69304, Note_on_c, 0, 67, 0
2, 69311, Note_on_c, 0, 62, 0
2, 69312, Note_on_c, 0, 55, 127
2, 69407, Note_on_c, 0, 55, 0
2, 69408, Note_on_c, 0, 60, 127
2, 69504, Note_on_c, 0, 67, 127
2, 69599, Note_on_c, 0, 67, 0
2, 69600, Note_on_c, 0, 64, 127
2, 69688, Note_on_c, 0, 60, 0
2, 69695, Note_on_c, 0, 64, 0
2, 69696, Note_on_c, 0, 60, 127
2, 69791, Note_on_c, 0, 60, 0
2, 69792, Note_on_c, 0, 64, 127
2, 69888, Note_on_c, 0, 55, 127
2, 69982, Note_on_c, 0, 64, 0
2, 69983, Note_on_c, 0, 55, 0
2, 69984, Note_on_c, 0, 60, 127
2, 70079, Note_on_c, 0, 60, 0
2, 70080, Note_on_c, 0, 48, 127
2, 70175, Note_on_c, 0, 48, 0
2, 70176, Note_on_c, 0, 45, 127
2, 70272, Note_on_c, 0, 72, 127
2, 70366, Note_on_c, 0, 45, 0
2, 70367, Note_on_c, 0, 72, 0
2, 70368, Note_on_c, 0, 69, 127
2, 70463, Note_on_c, 0, 69, 0
2, 70464, Note_on_c, 0, 64, 127
2, 70559, Note_on_c, 0, 64, 0
2, 70560, Note_on_c, 0, 69, 127
2, 70656, Note_on_c, 0, 60, 127
2, 70750, Note_on_c, 0, 69, 0
2, 70751, Note_on_c, 0, 60, 0
2, 70752, Note_on_c, 0, 64, 127
2, 70847, Note_on_c, 0, 64, 0
2, 70848, Note_on_c, 0, 57, 127
2, 70943, Note_on_c, 0, 57, 0
2, 70944, Note_on_c, 0, 62, 127
2, 71040, Note_on_c, 0, 69, 127
2, 71135, Note_on_c, 0, 69, 0
2, 71136, Note_on_c, 0, 66, 127
2, 71224, Note_on_c, 0, 62, 0
2, 71231, Note_on_c, 0, 66, 0
2, 71232, Note_on_c, 0, 62, 127
2, 71327, Note_on_c, 0, 62, 0
2, 71328, Note_on_c, 0, 66, 127
2, 71424, Note_on_c, 0, 57, 127
2, 71518, Note_on_c, 0, 66, 0
2, 71519, Note_on_c, 0, 57, 0
2, 71520, Note_on_c, 0, 62, 127
2, 71615, Note_on_c, 0, 62, 0
2, 71616, Note_on_c, 0, 50, 127
2, 71711, Note_on_c, 0, 50, 0
2, 71712, Note_on_c, 0, 47, 127
2, 71808, Note_on_c, 0, 79, 127
2, 71903, Note_on_c, 0, 79, 0
2, 71904, Note_on_c, 0, 74, 127
2, 71992, Note_on_c, 0, 47, 0
2, 71999, Note_on_c, 0, 74, 0
2, 72000, Note_on_c, 0, 71, 127
2, 72095, Note_on_c, 0, 71, 0
2, 72096, Note_on_c, 0, 74, 127
2, 72192, Note_on_c, 0, 67, 127
2, 72286, Note_on_c, 0, 74, 0
2, 72287, Note_on_c, 0, 67, 0
2, 72288, Note_on_c, 0, 71, 127
2, 72384, Note_on_c, 0, 62, 127
2, 72384, Note_on_c, 0, 47, 127
2, 72479, Note_on_c, 0, 47, 0
2, 72479, Note_on_c, 0, 62, 0
2, 72480, Note_on_c, 0, 64, 127
2, 72480, Note_on_c, 0, 48, 127
2, 72568, Note_on_c, 0, 71, 0
2, 72576, Note_on_c, 0, 67, 127
2, 72670, Note_on_c, 0, 64, 0
2, 72671, Note_on_c, 0, 67, 0
2, 72672, Note_on_c, 0, 64, 127
2, 72767, Note_on_c, 0, 64, 0
2, 72768, Note_on_c, 0, 60, 127
2, 72860, Note_on_c, 0, 48, 0
2, 72863, Note_on_c, 0, 60, 0
2, 72864, Note_on_c, 0, 64, 127
2, 72960, Note_on_c, 0, 55, 127
2, 73054, Note_on_c, 0, 64, 0
2, 73055, Note_on_c, 0, 55, 0
2, 73056, Note_on_c, 0, 60, 127
2, 73152, Note_on_c, 0, 52, 127
2, 73152, Note_on_c, 0, 48, 127
2, 73246, Note_on_c, 0, 60, 0
2, 73247, Note_on_c, 0, 48, 0
2, 73247, Note_on_c, 0, 52, 0
2, 73248, Note_on_c, 0, 54, 127
2, 73248, Note_on_c, 0, 50, 127
2, 73343, Note_on_c, 0, 54, 0
2, 73344, Note_on_c, 0, 57, 127
2, 73438, Note_on_c, 0, 50, 0
2, 73439, Note_on_c, 0, 57, 0
2, 73440, Note_on_c, 0, 54, 127
2, 73535, Note_on_c, 0, 54, 0
2, 73536, Note_on_c, 0, 50, 127
2, 73631, Note_on_c, 0, 50, 0
2, 73632, Note_on_c, 0, 54, 127
2, 73728, Note_on_c, 0, 45, 127
2, 73752, Note_on_c, 0, 54, 0
2, 73823, Note_on_c, 0, 45, 0
2, 73824, Note_on_c, 0, 48, 127
2, 73920, Note_on_c, 0, 42, 127
2, 73944, Note_on_c, 0, 48, 0
2, 74015, Note_on_c, 0, 42, 0
2, 74016, Note_on_c, 0, 43, 127
2, 74016, Note_on_c, 0, 67, 127
2, 74207, Note_on_c, 0, 67, 0
2, 74208, Note_on_c, 0, 66, 127
2, 74226, Note_on_c, 0, 43, 0
2, 74303, Note_on_c, 0, 66, 0
2, 74304, Note_on_c, 0, 64, 127
2, 74399, Note_on_c, 0, 64, 0
2, 74400, Note_on_c, 0, 62, 127
2, 74495, Note_on_c, 0, 62, 0
2, 74496, Note_on_c, 0, 60, 127
2, 74591, Note_on_c, 0, 60, 0
2, 74592, Note_on_c, 0, 59, 127
2, 74687, Note_on_c, 0, 59, 0
2, 74688, Note_on_c, 0, 57, 127
2, 74783, Note_on_c, 0, 57, 0
2, 74784, Note_on_c, 0, 55, 127
2, 74784, Note_on_c, 0, 79, 127
2, 74975, Note_on_c, 0, 79, 0
2, 74976, Note_on_c, 0, 78, 127
2, 74994, Note_on_c, 0, 55, 0
2, 75071, Note_on_c, 0, 78, 0
2, 75072, Note_on_c, 0, 76, 127
2, 75167, Note_on_c, 0, 76, 0
2, 75168, Note_on_c, 0, 74, 127
2, 75263, Note_on_c, 0, 74, 0
2, 75264, Note_on_c, 0, 72, 127
2, 75359, Note_on_c, 0, 72, 0
2, 75360, Note_on_c, 0, 71, 127
2, 75455, Note_on_c, 0, 71, 0
2, 75456, Note_on_c, 0, 69, 127
2, 75551, Note_on_c, 0, 69, 0
2, 75552, Note_on_c, 0, 67, 127
2, 75648, Note_on_c, 0, 74, 127
2, 75742, Note_on_c, 0, 67, 0
2, 75743, Note_on_c, 0, 74, 0
2, 75744, Note_on_c, 0, 71, 127
2, 75839, Note_on_c, 0, 71, 0
2, 75840, Note_on_c, 0, 67, 127
2, 75935, Note_on_c, 0, 67, 0
2, 75936, Note_on_c, 0, 71, 127
2, 76031, Note_on_c, 0, 71, 0
2, 76032, Note_on_c, 0, 62, 127
2, 76127, Note_on_c, 0, 62, 0
2, 76128, Note_on_c, 0, 67, 127
2, 76223, Note_on_c, 0, 67, 0
2, 76224, Note_on_c, 0, 55, 127
2, 76319, Note_on_c, 0, 55, 0
2, 76320, Note_on_c, 0, 67, 127
2, 76416, Note_on_c, 0, 74, 127
2, 76510, Note_on_c, 0, 67, 0
2, 76511, Note_on_c, 0, 74, 0
2, 76512, Note_on_c, 0, 71, 127
2, 76607, Note_on_c, 0, 71, 0
2, 76608, Note_on_c, 0, 67, 127
2, 76703, Note_on_c, 0, 67, 0
2, 76704, Note_on_c, 0, 71, 127
2, 76799, Note_on_c, 0, 71, 0
2, 76800, Note_on_c, 0, 62, 127
2, 76895, Note_on_c, 0, 62, 0
2, 76896, Note_on_c, 0, 67, 127
2, 76991, Note_on_c, 0, 67, 0
2, 76992, Note_on_c, 0, 55, 127
2, 77087, Note_on_c, 0, 55, 0
2, 77088, Note_on_c, 0, 67, 127
2, 77184, Note_on_c, 0, 74, 127
2, 77278, Note_on_c, 0, 67, 0
2, 77279, Note_on_c, 0, 74, 0
2, 77280, Note_on_c, 0, 71, 127
2, 77375, Note_on_c, 0, 71, 0
2, 77376, Note_on_c, 0, 67, 127
2, 77471, Note_on_c, 0, 67, 0
2, 77472, Note_on_c, 0, 71, 127
2, 77567, Note_on_c, 0, 71, 0
2, 77568, Note_on_c, 0, 62, 127
2, 77663, Note_on_c, 0, 62, 0
2, 77664, Note_on_c, 0, 67, 127
2, 77759, Note_on_c, 0, 67, 0
2, 77760, Note_on_c, 0, 55, 127
2, 77855, Note_on_c, 0, 55, 0
2, 77856, Note_on_c, 0, 74, 127
2, 78047, Note_on_c, 0, 74, 0
2, 78048, Note_on_c, 0, 74, 127
2, 78048, Note_on_c, 0, 79, 127
2, 78048, Note_on_c, 0, 71, 127
2, 78048, Note_on_c, 0, 67, 127
2, 78048, Note_on_c, 0, 59, 127
2, 78048, Note_on_c, 0, 62, 127
2, 78218, Note_on_c, 0, 62, 0
2, 78218, Note_on_c, 0, 79, 0
2, 78218, Note_on_c, 0, 71, 0
2, 78218, Note_on_c, 0, 74, 0
2, 78218, Note_on_c, 0, 59, 0
2, 78218, Note_on_c, 0, 67, 0
2, 78240, Note_on_c, 0, 72, 127
2, 78240, Note_on_c, 0, 78, 127
2, 78240, Note_on_c, 0, 69, 127
2, 78240, Note_on_c, 0, 60, 127
2, 78240, Note_on_c, 0, 57, 127
2, 78240, Note_on_c, 0, 66, 127
2, 78410, Note_on_c, 0, 66, 0
2, 78410, Note_on_c, 0, 78, 0
2, 78410, Note_on_c, 0, 69, 0
2, 78410, Note_on_c, 0, 72, 0
2, 78410, Note_on_c, 0, 57, 0
2, 78410, Note_on_c, 0, 60, 0
2, 78432, Note_on_c, 0, 67, 127
2, 78432, Note_on_c, 0, 71, 127
2, 78432, Note_on_c, 0, 76, 127
2, 78432, Note_on_c, 0, 55, 127
2, 78432, Note_on_c, 0, 64, 127
2, 78432, Note_on_c, 0, 59, 127
2, 78602, Note_on_c, 0, 59, 0
2, 78602, Note_on_c, 0, 71, 0
2, 78602, Note_on_c, 0, 76, 0
2, 78602, Note_on_c, 0, 67, 0
2, 78602, Note_on_c, 0, 64, 0
2, 78602, Note_on_c, 0, 55, 0
2, 78624, Note_on_c, 0, 69, 127
2, 78624, Note_on_c, 0, 74, 127
2, 78624, Note_on_c, 0, 66, 127
2, 78624, Note_on_c, 0, 62, 127
2, 78624, Note_on_c, 0, 54, 127
2, 78624, Note_on_c, 0, 57, 127
2, 78794, Note_on_c, 0, 57, 0
2, 78794, Note_on_c, 0, 74, 0
2, 78794, Note_on_c, 0, 66, 0
2, 78794, Note_on_c, 0, 69, 0
2, 78794, Note_on_c, 0, 54, 0
2, 78794, Note_on_c, 0, 62, 0
2, 78816, Note_on_c, 0, 64, 127
2, 78816, Note_on_c, 0, 67, 127
2, 78816, Note_on_c, 0, 72, 127
2, 78816, Note_on_c, 0, 52, 127
2, 78816, Note_on_c, 0, 60, 127
2, 78816, Note_on_c, 0, 55, 127
2, 78986, Note_on_c, 0, 55, 0
2, 78986, Note_on_c, 0, 67, 0
2, 78986, Note_on_c, 0, 72, 0
2, 78986, Note_on_c, 0, 64, 0
2, 78986, Note_on_c, 0, 60, 0
2, 78986, Note_on_c, 0, 52, 0
2, 79008, Note_on_c, 0, 71, 127
2, 79008, Note_on_c, 0, 62, 127
2, 79008, Note_on_c, 0, 66, 127
2, 79008, Note_on_c, 0, 59, 127
2, 79008, Note_on_c, 0, 50, 127
2, 79008, Note_on_c, 0, 54, 127
2, 79178, Note_on_c, 0, 54, 0
2, 79178, Note_on_c, 0, 62, 0
2, 79178, Note_on_c, 0, 66, 0
2, 79178, Note_on_c, 0, 71, 0
2, 79178, Note_on_c, 0, 50, 0
2, 79178, Note_on_c, 0, 59, 0
2, 79200, Note_on_c, 0, 69, 127
2, 79200, Note_on_c, 0, 60, 127
2, 79200, Note_on_c, 0, 64, 127
2, 79200, Note_on_c, 0, 52, 127
2, 79200, Note_on_c, 0, 57, 127
2, 79200, Note_on_c, 0, 48, 127
2, 79370, Note_on_c, 0, 48, 0
2, 79370, Note_on_c, 0, 60, 0
2, 79370, Note_on_c, 0, 64, 0
2, 79370, Note_on_c, 0, 69, 0
2, 79370, Note_on_c, 0, 57, 0
2, 79370, Note_on_c, 0, 52, 0
2, 79392, Note_on_c, 0, 59, 127
2, 79392, Note_on_c, 0, 62, 127
2, 79392, Note_on_c, 0, 67, 127
2, 79392, Note_on_c, 0, 47, 127
2, 79392, Note_on_c, 0, 55, 127
2, 79392, Note_on_c, 0, 50, 127
2, 79582, Note_on_c, 0, 50, 0
2, 79583, Note_on_c, 0, 59, 0
2, 79583, Note_on_c, 0, 67, 0
2, 79583, Note_on_c, 0, 47, 0
2, 79584, Note_on_c, 0, 64, 127
2, 79584, Note_on_c, 0, 67, 127
2, 79584, Note_on_c, 0, 69, 127
2, 79584, Note_on_c, 0, 48, 127
2, 79772, Note_on_c, 0, 62, 0
2, 79772, Note_on_c, 0, 55, 0
2, 79775, Note_on_c, 0, 69, 0
2, 79775, Note_on_c, 0, 67, 0
2, 79775, Note_on_c, 0, 48, 0
2, 79775, Note_on_c, 0, 64, 0
2, 79776, Note_on_c, 0, 67, 127
2, 79776, Note_on_c, 0, 71, 127
2, 79776, Note_on_c, 0, 62, 127
2, 79776, Note_on_c, 0, 50, 127
2, 79871, Note_on_c, 0, 71, 0
2, 79872, Note_on_c, 0, 72, 127
2, 79956, Note_on_c, 0, 67, 0
2, 79956, Note_on_c, 0, 62, 0
2, 79967, Note_on_c, 0, 72, 0
2, 79968, Note_on_c, 0, 69, 127
2, 79968, Note_on_c, 0, 60, 127
2, 79968, Note_on_c, 0, 66, 127
2, 79968, Note_on_c, 0, 38, 127
2, 80063, Note_on_c, 0, 69, 0
2, 80064, Note_on_c, 0, 71, 127
2, 80148, Note_on_c, 0, 66, 0
2, 80148, Note_on_c, 0, 60, 0
2, 80156, Note_on_c, 0, 50, 0
2, 80159, Note_on_c, 0, 71, 0
2, 80159, Note_on_c, 0, 38, 0
2, 80160, Note_on_c, 0, 59, 127
2, 80160, Note_on_c, 0, 67, 127
2, 80160, Note_on_c, 0, 43, 127
2, 80255, Note_on_c, 0, 67, 0
2, 80256, Note_on_c, 0, 71, 127
2, 80350, Note_on_c, 0, 59, 0
2, 80351, Note_on_c, 0, 71, 0
2, 80352, Note_on_c, 0, 69, 127
2, 80447, Note_on_c, 0, 69, 0
2, 80448, Note_on_c, 0, 72, 127
2, 80540, Note_on_c, 0, 43, 0
2, 80543, Note_on_c, 0, 72, 0
2, 80544, Note_on_c, 0, 71, 127
2, 80639, Note_on_c, 0, 71, 0
2, 80640, Note_on_c, 0, 74, 127
2, 80735, Note_on_c, 0, 74, 0
2, 80736, Note_on_c, 0, 72, 127
2, 80831, Note_on_c, 0, 72, 0
2, 80832, Note_on_c, 0, 76, 127
2, 80922, Note_on_c, 0, 76, 0
2, 80928, Note_on_c, 0, 76, 127
2, 80928, Note_on_c, 0, 55, 127
2, 81023, Note_on_c, 0, 55, 0
2, 81023, Note_on_c, 0, 76, 0
2, 81024, Note_on_c, 0, 74, 127
2, 81024, Note_on_c, 0, 59, 127
2, 81070, Note_on_c, 0, 76, 127
2, 81071, Note_on_c, 0, 74, 0
2, 81116, Note_on_c, 0, 74, 127
2, 81117, Note_on_c, 0, 76, 0
2, 81119, Note_on_c, 0, 59, 0
2, 81120, Note_on_c, 0, 57, 127
2, 81162, Note_on_c, 0, 76, 127
2, 81163, Note_on_c, 0, 74, 0
2, 81208, Note_on_c, 0, 74, 127
2, 81209, Note_on_c, 0, 76, 0
2, 81215, Note_on_c, 0, 57, 0
2, 81216, Note_on_c, 0, 60, 127
2, 81254, Note_on_c, 0, 76, 127
2, 81255, Note_on_c, 0, 74, 0
2, 81300, Note_on_c, 0, 74, 127
2, 81301, Note_on_c, 0, 76, 0
2, 81311, Note_on_c, 0, 60, 0
2, 81312, Note_on_c, 0, 59, 127
2, 81346, Note_on_c, 0, 76, 127
2, 81347, Note_on_c, 0, 74, 0
2, 81392, Note_on_c, 0, 74, 127
2, 81393, Note_on_c, 0, 76, 0
2, 81407, Note_on_c, 0, 59, 0
2, 81408, Note_on_c, 0, 62, 127
2, 81438, Note_on_c, 0, 76, 127
2, 81439, Note_on_c, 0, 74, 0
2, 81484, Note_on_c, 0, 74, 127
2, 81485, Note_on_c, 0, 76, 0
2, 81503, Note_on_c, 0, 62, 0
2, 81504, Note_on_c, 0, 60, 127
2, 81530, Note_on_c, 0, 76, 127
2, 81531, Note_on_c, 0, 74, 0
2, 81576, Note_on_c, 0, 74, 127
2, 81577, Note_on_c, 0, 76, 0
2, 81599, Note_on_c, 0, 60, 0
2, 81600, Note_on_c, 0, 64, 127
2, 81622, Note_on_c, 0, 76, 127
2, 81623, Note_on_c, 0, 74, 0
2, 81668, Note_on_c, 0, 74, 127
2, 81669, Note_on_c, 0, 76, 0
2, 81695, Note_on_c, 0, 64, 0
2, 81696, Note_on_c, 0, 62, 127
2, 81714, Note_on_c, 0, 76, 127
2, 81715, Note_on_c, 0, 74, 0
2, 81760, Note_on_c, 0, 74, 127
2, 81761, Note_on_c, 0, 76, 0
2, 81791, Note_on_c, 0, 62, 0
2, 81792, Note_on_c, 0, 66, 127
2, 81806, Note_on_c, 0, 76, 127
2, 81807, Note_on_c, 0, 74, 0
2, 81852, Note_on_c, 0, 74, 127
2, 81853, Note_on_c, 0, 76, 0
2, 81887, Note_on_c, 0, 66, 0
2, 81888, Note_on_c, 0, 64, 127
2, 81898, Note_on_c, 0, 76, 127
2, 81899, Note_on_c, 0, 74, 0
2, 81944, Note_on_c, 0, 74, 127
2, 81945, Note_on_c, 0, 76, 0
2, 81983, Note_on_c, 0, 64, 0
2, 81984, Note_on_c, 0, 67, 127
2, 81990, Note_on_c, 0, 76, 127
2, 81991, Note_on_c, 0, 74, 0
2, 82036, Note_on_c, 0, 74, 127
2, 82037, Note_on_c, 0, 76, 0
2, 82079, Note_on_c, 0, 67, 0
2, 82080, Note_on_c, 0, 66, 127
2, 82082, Note_on_c, 0, 76, 127
2, 82083, Note_on_c, 0, 74, 0
2, 82128, Note_on_c, 0, 74, 127
2, 82129, Note_on_c, 0, 76, 0
2, 82175, Note_on_c, 0, 66, 0
2, 82176, Note_on_c, 0, 69, 127
2, 82271, Note_on_c, 0, 69, 0
2, 82272, Note_on_c, 0, 67, 127
2, 82367, Note_on_c, 0, 67, 0
2, 82368, Note_on_c, 0, 66, 127
2, 82458, Note_on_c, 0, 74, 0
2, 82463, Note_on_c, 0, 66, 0
2, 82464, Note_on_c, 0, 67, 127
2, 82560, Note_on_c, 0, 79, 127
2, 82654, Note_on_c, 0, 67, 0
2, 82655, Note_on_c, 0, 79, 0
2, 82656, Note_on_c, 0, 78, 127
2, 82751, Note_on_c, 0, 78, 0
2, 82752, Note_on_c, 0, 76, 127
2, 82847, Note_on_c, 0, 76, 0
2, 82848, Note_on_c, 0, 74, 127
2, 82943, Note_on_c, 0, 74, 0
2, 82944, Note_on_c, 0, 72, 127
2, 83039, Note_on_c, 0, 72, 0
2, 83040, Note_on_c, 0, 71, 127
2, 83135, Note_on_c, 0, 71, 0
2, 83136, Note_on_c, 0, 69, 127
2, 83231, Note_on_c, 0, 69, 0
2, 83232, Note_on_c, 0, 67, 127
2, 83328, Note_on_c, 0, 74, 127
2, 83422, Note_on_c, 0, 67, 0
2, 83423, Note_on_c, 0, 74, 0
2, 83424, Note_on_c, 0, 71, 127
2, 83519, Note_on_c, 0, 71, 0
2, 83520, Note_on_c, 0, 67, 127
2, 83615, Note_on_c, 0, 67, 0
2, 83616, Note_on_c, 0, 71, 127
2, 83711, Note_on_c, 0, 71, 0
2, 83712, Note_on_c, 0, 62, 127
2, 83807, Note_on_c, 0, 62, 0
2, 83808, Note_on_c, 0, 67, 127
2, 83903, Note_on_c, 0, 67, 0
2, 83904, Note_on_c, 0, 50, 127
2, 83999, Note_on_c, 0, 50, 0
2, 84000, Note_on_c, 0, 55, 127
2, 84096, Note_on_c, 0, 62, 127
2, 84190, Note_on_c, 0, 55, 0
2, 84191, Note_on_c, 0, 62, 0
2, 84192, Note_on_c, 0, 59, 127
2, 84287, Note_on_c, 0, 59, 0
2, 84288, Note_on_c, 0, 55, 127
2, 84383, Note_on_c, 0, 55, 0
2, 84384, Note_on_c, 0, 59, 127
2, 84479, Note_on_c, 0, 59, 0
2, 84480, Note_on_c, 0, 50, 127
2, 84575, Note_on_c, 0, 50, 0
2, 84576, Note_on_c, 0, 55, 127
2, 84671, Note_on_c, 0, 55, 0
2, 84680, Note_on_c, 0, 38, 127
2, 84775, Note_on_c, 0, 38, 0
2, 84800, Note_on_c, 0, 43, 127
2, 85950, Note_on_c, 0, 43, 0
2, 87648, Note_on_c, 0, 55, 127
2, 87648, Note_on_c, 0, 52, 127
2, 87648, Note_on_c, 0, 59, 127
2, 87648, Note_on_c, 0, 64, 127
2, 87840, Note_on_c, 0, 71, 127
2, 88028, Note_on_c, 0, 64, 0
2, 88028, Note_on_c, 0, 59, 0
2, 88028, Note_on_c, 0, 55, 0
2, 88028, Note_on_c, 0, 52, 0
2, 88031, Note_on_c, 0, 71, 0
2, 88032, Note_on_c, 0, 76, 127
2, 88223, Note_on_c, 0, 76, 0
2, 88224, Note_on_c, 0, 79, 127
2, 88415, Note_on_c, 0, 79, 0
2, 88416, Note_on_c, 0, 52, 127
2, 88416, Note_on_c, 0, 57, 127
2, 88416, Note_on_c, 0, 60, 127
2, 88416, Note_on_c, 0, 78, 127
2, 88607, Note_on_c, 0, 78, 0
2, 88608, Note_on_c, 0, 66, 127
2, 88799, Note_on_c, 0, 52, 0
2, 88799, Note_on_c, 0, 60, 0
2, 88799, Note_on_c, 0, 57, 0
2, 88800, Note_on_c, 0, 51, 127
2, 88800, Note_on_c, 0, 54, 127
2, 88800, Note_on_c, 0, 59, 127
2, 88991, Note_on_c, 0, 66, 0
2, 88992, Note_on_c, 0, 71, 127
2, 89087, Note_on_c, 0, 71, 0
2, 89088, Note_on_c, 0, 66, 127
2, 89183, Note_on_c, 0, 66, 0
2, 89183, Note_on_c, 0, 51, 0
2, 89183, Note_on_c, 0, 54, 0
2, 89183, Note_on_c, 0, 59, 0
2, 89184, Note_on_c, 0, 52, 127
2, 89184, Note_on_c, 0, 59, 127
2, 89184, Note_on_c, 0, 67, 127
2, 89375, Note_on_c, 0, 67, 0
2, 89376, Note_on_c, 0, 66, 127
2, 89471, Note_on_c, 0, 66, 0
2, 89472, Note_on_c, 0, 64, 127
2, 89564, Note_on_c, 0, 59, 0
2, 89564, Note_on_c, 0, 52, 0
2, 89567, Note_on_c, 0, 64, 0
2, 89568, Note_on_c, 0, 72, 127
2, 89760, Note_on_c, 0, 57, 127
2, 89760, Note_on_c, 0, 64, 127
2, 89760, Note_on_c, 0, 60, 127
2, 89951, Note_on_c, 0, 60, 0
2, 89951, Note_on_c, 0, 64, 0
2, 89951, Note_on_c, 0, 57, 0
2, 89952, Note_on_c, 0, 50, 127
2, 89952, Note_on_c, 0, 66, 127
2, 89952, Note_on_c, 0, 62, 127
2, 90143, Note_on_c, 0, 66, 0
2, 90143, Note_on_c, 0, 72, 0
2, 90143, Note_on_c, 0, 50, 0
2, 90144, Note_on_c, 0, 55, 127
2, 90144, Note_on_c, 0, 71, 127
2, 90144, Note_on_c, 0, 67, 127
2, 90332, Note_on_c, 0, 62, 0
2, 90335, Note_on_c, 0, 55, 0
2, 90336, Note_on_c, 0, 49, 127
2, 90336, Note_on_c, 0, 64, 127
2, 90524, Note_on_c, 0, 71, 0
2, 90524, Note_on_c, 0, 67, 0
2, 90527, Note_on_c, 0, 49, 0
2, 90527, Note_on_c, 0, 64, 0
2, 90528, Note_on_c, 0, 51, 127
2, 90528, Note_on_c, 0, 59, 127
2, 90528, Note_on_c, 0, 69, 127
2, 90528, Note_on_c, 0, 66, 127
2, 90719, Note_on_c, 0, 51, 0
2, 90720, Note_on_c, 0, 52, 127
2, 90911, Note_on_c, 0, 52, 0
2, 90911, Note_on_c, 0, 66, 0
2, 90911, Note_on_c, 0, 69, 0
2, 90912, Note_on_c, 0, 43, 127
2, 90912, Note_on_c, 0, 67, 127
2, 90912, Note_on_c, 0, 64, 127
2, 91007, Note_on_c, 0, 64, 0
2, 91008, Note_on_c, 0, 62, 127
2, 91103, Note_on_c, 0, 62, 0
2, 91103, Note_on_c, 0, 43, 0
2, 91104, Note_on_c, 0, 45, 127
2, 91104, Note_on_c, 0, 60, 127
2, 91292, Note_on_c, 0, 67, 0
2, 91295, Note_on_c, 0, 59, 0
2, 91296, Note_on_c, 0, 57, 127
2, 91296, Note_on_c, 0, 65, 127
2, 91391, Note_on_c, 0, 65, 0
2, 91391, Note_on_c, 0, 57, 0
2, 91392, Note_on_c, 0, 55, 127
2, 91392, Note_on_c, 0, 69, 127
2, 91484, Note_on_c, 0, 60, 0
2, 91487, Note_on_c, 0, 69, 0
2, 91487, Note_on_c, 0, 55, 0
2, 91488, Note_on_c, 0, 54, 127
2, 91488, Note_on_c, 0, 63, 127
2, 91488, Note_on_c, 0, 59, 127
2, 91679, Note_on_c, 0, 63, 0
2, 91679, Note_on_c, 0, 45, 0
2, 91679, Note_on_c, 0, 54, 0
2, 91680, Note_on_c, 0, 52, 127
2, 91680, Note_on_c, 0, 43, 127
2, 91680, Note_on_c, 0, 64, 127
2, 91775, Note_on_c, 0, 64, 0
2, 91776, Note_on_c, 0, 71, 127
2, 91871, Note_on_c, 0, 71, 0
2, 91871, Note_on_c, 0, 43, 0
2, 91872, Note_on_c, 0, 47, 127
2, 91872, Note_on_c, 0, 67, 127
2, 92060, Note_on_c, 0, 52, 0
2, 92063, Note_on_c, 0, 59, 0
2, 92063, Note_on_c, 0, 67, 0
2, 92064, Note_on_c, 0, 51, 127
2, 92064, Note_on_c, 0, 66, 127
2, 92064, Note_on_c, 0, 57, 127
2, 92159, Note_on_c, 0, 66, 0
2, 92160, Note_on_c, 0, 64, 127
2, 92252, Note_on_c, 0, 47, 0
2, 92254, Note_on_c, 0, 57, 0
2, 92255, Note_on_c, 0, 51, 0
2, 92255, Note_on_c, 0, 64, 0
2, 92256, Note_on_c, 0, 40, 127
2, 92256, Note_on_c, 0, 52, 127
2, 92256, Note_on_c, 0, 64, 127
2, 92256, Note_on_c, 0, 55, 127
2, 92447, Note_on_c, 0, 55, 0
2, 92447, Note_on_c, 0, 64, 0
2, 92448, Note_on_c, 0, 71, 127
2, 92636, Note_on_c, 0, 52, 0
2, 92636, Note_on_c, 0, 40, 0
2, 92639, Note_on_c, 0, 71, 0
2, 92640, Note_on_c, 0, 76, 127
2, 92831, Note_on_c, 0, 76, 0
2, 92832, Note_on_c, 0, 76, 127
2, 92927, Note_on_c, 0, 76, 0
2, 92928, Note_on_c, 0, 79, 127
2, 92976, Note_on_c, 0, 79, 0
2, 92976, Note_on_c, 0, 78, 127
2, 93024, Note_on_c, 0, 78, 0
2, 93024, Note_on_c, 0, 54, 127
2, 93024, Note_on_c, 0, 52, 127
2, 93024, Note_on_c, 0, 61, 127
2, 93024, Note_on_c, 0, 58, 127
2, 93024, Note_on_c, 0, 78, 127
2, 93215, Note_on_c, 0, 78, 0
2, 93216, Note_on_c, 0, 70, 127
2, 93311, Note_on_c, 0, 70, 0
2, 93312, Note_on_c, 0, 73, 127
2, 93360, Note_on_c, 0, 73, 0
2, 93360, Note_on_c, 0, 66, 127
2, 93407, Note_on_c, 0, 61, 0
2, 93407, Note_on_c, 0, 58, 0
2, 93407, Note_on_c, 0, 54, 0
2, 93407, Note_on_c, 0, 52, 0
2, 93408, Note_on_c, 0, 66, 0
2, 93408, Note_on_c, 0, 54, 127
2, 93408, Note_on_c, 0, 50, 127
2, 93408, Note_on_c, 0, 71, 127
2, 93600, Note_on_c, 0, 59, 127
2, 93791, Note_on_c, 0, 59, 0
2, 93791, Note_on_c, 0, 54, 0
2, 93791, Note_on_c, 0, 50, 0
2, 93792, Note_on_c, 0, 49, 127
2, 93792, Note_on_c, 0, 55, 127
2, 93792, Note_on_c, 0, 64, 127
2, 93983, Note_on_c, 0, 64, 0
2, 93983, Note_on_c, 0, 55, 0
2, 93984, Note_on_c, 0, 52, 127
2, 93984, Note_on_c, 0, 67, 127
2, 94172, Note_on_c, 0, 49, 0
2, 94175, Note_on_c, 0, 71, 0
2, 94175, Note_on_c, 0, 52, 0
2, 94175, Note_on_c, 0, 67, 0
2, 94176, Note_on_c, 0, 54, 127
2, 94176, Note_on_c, 0, 70, 127
2, 94176, Note_on_c, 0, 66, 127
2, 94367, Note_on_c, 0, 66, 0
2, 94368, Note_on_c, 0, 42, 127
2, 94368, Note_on_c, 0, 64, 127
2, 94556, Note_on_c, 0, 70, 0
2, 94556, Note_on_c, 0, 54, 0
2, 94559, Note_on_c, 0, 42, 0
2, 94559, Note_on_c, 0, 64, 0
2, 94560, Note_on_c, 0, 47, 127
2, 94560, Note_on_c, 0, 71, 127
2, 94560, Note_on_c, 0, 62, 127
2, 94751, Note_on_c, 0, 62, 0
2, 94752, Note_on_c, 0, 61, 127
2, 94847, Note_on_c, 0, 61, 0
2, 94848, Note_on_c, 0, 62, 127
2, 94896, Note_on_c, 0, 62, 0
2, 94896, Note_on_c, 0, 59, 127
2, 94940, Note_on_c, 0, 71, 0
2, 94940, Note_on_c, 0, 47, 0
2, 94944, Note_on_c, 0, 59, 0
2, 94944, Note_on_c, 0, 67, 127
2, 95136, Note_on_c, 0, 59, 127
2, 95136, Note_on_c, 0, 74, 127
2, 95324, Note_on_c, 0, 67, 0
2, 95327, Note_on_c, 0, 74, 0
2, 95327, Note_on_c, 0, 59, 0
2, 95328, Note_on_c, 0, 60, 127
2, 95328, Note_on_c, 0, 76, 127
2, 95328, Note_on_c, 0, 67, 127
2, 95519, Note_on_c, 0, 76, 0
2, 95520, Note_on_c, 0, 78, 127
2, 95615, Note_on_c, 0, 78, 0
2, 95616, Note_on_c, 0, 76, 127
2, 95664, Note_on_c, 0, 76, 0
2, 95664, Note_on_c, 0, 78, 127
2, 95708, Note_on_c, 0, 67, 0
2, 95711, Note_on_c, 0, 60, 0
2, 95712, Note_on_c, 0, 78, 0
2, 95712, Note_on_c, 0, 61, 127
2, 95712, Note_on_c, 0, 79, 127
2, 95712, Note_on_c, 0, 69, 127
2, 95807, Note_on_c, 0, 79, 0
2, 95808, Note_on_c, 0, 83, 127
2, 95903, Note_on_c, 0, 83, 0
2, 95904, Note_on_c, 0, 81, 127
2, 95999, Note_on_c, 0, 81, 0
2, 96000, Note_on_c, 0, 76, 127
2, 96095, Note_on_c, 0, 76, 0
2, 96095, Note_on_c, 0, 61, 0
2, 96096, Note_on_c, 0, 62, 127
2, 96096, Note_on_c, 0, 78, 127
2, 96287, Note_on_c, 0, 78, 0
2, 96287, Note_on_c, 0, 62, 0
2, 96288, Note_on_c, 0, 60, 127
2, 96288, Note_on_c, 0, 76, 127
2, 96383, Note_on_c, 0, 76, 0
2, 96384, Note_on_c, 0, 74, 127
2, 96479, Note_on_c, 0, 74, 0
2, 96479, Note_on_c, 0, 60, 0
2, 96479, Note_on_c, 0, 69, 0
2, 96480, Note_on_c, 0, 59, 127
2, 96480, Note_on_c, 0, 79, 127
2, 96671, Note_on_c, 0, 59, 0
2, 96672, Note_on_c, 0, 64, 127
2, 96672, Note_on_c, 0, 67, 127
2, 96863, Note_on_c, 0, 67, 0
2, 96863, Note_on_c, 0, 64, 0
2, 96864, Note_on_c, 0, 57, 127
2, 96864, Note_on_c, 0, 72, 127
2, 97055, Note_on_c, 0, 72, 0
2, 97056, Note_on_c, 0, 76, 127
2, 97247, Note_on_c, 0, 76, 0
2, 97247, Note_on_c, 0, 57, 0
2, 97247, Note_on_c, 0, 79, 0
2, 97248, Note_on_c, 0, 62, 127
2, 97248, Note_on_c, 0, 78, 127
2, 97248, Note_on_c, 0, 74, 127
2, 97439, Note_on_c, 0, 74, 0
2, 97440, Note_on_c, 0, 72, 127
2, 97631, Note_on_c, 0, 72, 0
2, 97631, Note_on_c, 0, 62, 0
2, 97632, Note_on_c, 0, 55, 127
2, 97632, Note_on_c, 0, 71, 127
2, 97823, Note_on_c, 0, 78, 0
2, 97824, Note_on_c, 0, 83, 127
2, 97919, Note_on_c, 0, 83, 0
2, 97920, Note_on_c, 0, 75, 127
2, 98012, Note_on_c, 0, 71, 0
2, 98012, Note_on_c, 0, 55, 0
2, 98015, Note_on_c, 0, 75, 0
2, 98016, Note_on_c, 0, 76, 127
2, 98208, Note_on_c, 0, 52, 127
2, 98208, Note_on_c, 0, 59, 127
2, 98208, Note_on_c, 0, 67, 127
2, 98399, Note_on_c, 0, 67, 0
2, 98399, Note_on_c, 0, 59, 0
2, 98399, Note_on_c, 0, 52, 0
2, 98400, Note_on_c, 0, 57, 127
2, 98400, Note_on_c, 0, 66, 127
2, 98592, Note_on_c, 0, 60, 127
2, 98780, Note_on_c, 0, 57, 0
2, 98783, Note_on_c, 0, 76, 0
2, 98783, Note_on_c, 0, 60, 0
2, 98784, Note_on_c, 0, 59, 127
2, 98784, Note_on_c, 0, 74, 127
2, 98976, Note_on_c, 0, 57, 127
2, 99167, Note_on_c, 0, 57, 0
2, 99167, Note_on_c, 0, 66, 0
2, 99168, Note_on_c, 0, 55, 127
2, 99168, Note_on_c, 0, 64, 127
2, 99359, Note_on_c, 0, 55, 0
2, 99360, Note_on_c, 0, 54, 127
2, 99455, Note_on_c, 0, 54, 0
2, 99456, Note_on_c, 0, 52, 127
2, 99551, Note_on_c, 0, 52, 0
2, 99551, Note_on_c, 0, 59, 0
2, 99551, Note_on_c, 0, 74, 0
2, 99551, Note_on_c, 0, 64, 0
2, 99552, Note_on_c, 0, 57, 127
2, 99552, Note_on_c, 0, 72, 127
2, 99744, Note_on_c, 0, 64, 127
2, 99935, Note_on_c, 0, 64, 0
2, 99935, Note_on_c, 0, 72, 0
2, 99936, Note_on_c, 0, 62, 127
2, 99936, Note_on_c, 0, 71, 127
2, 100127, Note_on_c, 0, 62, 0
2, 100128, Note_on_c, 0, 65, 127
2, 100319, Note_on_c, 0, 65, 0
2, 100319, Note_on_c, 0, 57, 0
2, 100320, Note_on_c, 0, 55, 127
2, 100320, Note_on_c, 0, 64, 127
2, 100415, Note_on_c, 0, 71, 0
2, 100416, Note_on_c, 0, 73, 127
2, 100511, Note_on_c, 0, 73, 0
2, 100511, Note_on_c, 0, 64, 0
2, 100512, Note_on_c, 0, 62, 127
2, 100512, Note_on_c, 0, 74, 127
2, 100607, Note_on_c, 0, 74, 0
2, 100608, Note_on_c, 0, 76, 127
2, 100703, Note_on_c, 0, 76, 0
2, 100703, Note_on_c, 0, 62, 0
2, 100704, Note_on_c, 0, 61, 127
2, 100704, Note_on_c, 0, 69, 127
2, 100895, Note_on_c, 0, 61, 0
2, 100896, Note_on_c, 0, 59, 127
2, 100991, Note_on_c, 0, 59, 0
2, 100992, Note_on_c, 0, 57, 127
2, 101084, Note_on_c, 0, 69, 0
2, 101087, Note_on_c, 0, 57, 0
2, 101087, Note_on_c, 0, 55, 0
2, 101088, Note_on_c, 0, 62, 127
2, 101088, Note_on_c, 0, 54, 127
2, 101280, Note_on_c, 0, 74, 127
2, 101471, Note_on_c, 0, 74, 0
2, 101471, Note_on_c, 0, 54, 0
2, 101472, Note_on_c, 0, 52, 127
2, 101472, Note_on_c, 0, 79, 127
2, 101663, Note_on_c, 0, 79, 0
2, 101664, Note_on_c, 0, 83, 127
2, 101855, Note_on_c, 0, 83, 0
2, 101855, Note_on_c, 0, 62, 0
2, 101856, Note_on_c, 0, 60, 127
2, 101856, Note_on_c, 0, 81, 127
2, 102047, Note_on_c, 0, 81, 0
2, 102048, Note_on_c, 0, 79, 127
2, 102239, Note_on_c, 0, 79, 0
2, 102239, Note_on_c, 0, 52, 0
2, 102240, Note_on_c, 0, 50, 127
2, 102240, Note_on_c, 0, 78, 127
2, 102431, Note_on_c, 0, 78, 0
2, 102432, Note_on_c, 0, 76, 127
2, 102527, Note_on_c, 0, 76, 0
2, 102528, Note_on_c, 0, 74, 127
2, 102623, Note_on_c, 0, 74, 0
2, 102623, Note_on_c, 0, 50, 0
2, 102623, Note_on_c, 0, 60, 0
2, 102624, Note_on_c, 0, 52, 127
2, 102624, Note_on_c, 0, 59, 127
2, 102624, Note_on_c, 0, 79, 127
2, 102816, Note_on_c, 0, 67, 127
2, 103007, Note_on_c, 0, 67, 0
2, 103007, Note_on_c, 0, 52, 0
2, 103007, Note_on_c, 0, 59, 0
2, 103008, Note_on_c, 0, 45, 127
2, 103008, Note_on_c, 0, 57, 127
2, 103008, Note_on_c, 0, 72, 127
2, 103199, Note_on_c, 0, 72, 0
2, 103200, Note_on_c, 0, 76, 127
2, 103391, Note_on_c, 0, 76, 0
2, 103391, Note_on_c, 0, 45, 0
2, 103391, Note_on_c, 0, 79, 0
2, 103392, Note_on_c, 0, 50, 127
2, 103392, Note_on_c, 0, 78, 127
2, 103392, Note_on_c, 0, 74, 127
2, 103583, Note_on_c, 0, 74, 0
2, 103584, Note_on_c, 0, 72, 127
2, 103775, Note_on_c, 0, 72, 0
2, 103775, Note_on_c, 0, 50, 0
2, 103775, Note_on_c, 0, 57, 0
2, 103776, Note_on_c, 0, 55, 127
2, 103776, Note_on_c, 0, 43, 127
2, 103776, Note_on_c, 0, 71, 127
2, 103967, Note_on_c, 0, 71, 0
2, 103968, Note_on_c, 0, 74, 127
2, 104159, Note_on_c, 0, 74, 0
2, 104159, Note_on_c, 0, 43, 0
2, 104159, Note_on_c, 0, 78, 0
2, 104160, Note_on_c, 0, 48, 127
2, 104160, Note_on_c, 0, 72, 127
2, 104160, Note_on_c, 0, 76, 127
2, 104351, Note_on_c, 0, 72, 0
2, 104352, Note_on_c, 0, 74, 127
2, 104447, Note_on_c, 0, 74, 0
2, 104448, Note_on_c, 0, 71, 127
2, 104543, Note_on_c, 0, 71, 0
2, 104543, Note_on_c, 0, 55, 0
2, 104543, Note_on_c, 0, 48, 0
2, 104544, Note_on_c, 0, 42, 127
2, 104544, Note_on_c, 0, 54, 127
2, 104544, Note_on_c, 0, 69, 127
2, 104735, Note_on_c, 0, 69, 0
2, 104736, Note_on_c, 0, 72, 127
2, 104927, Note_on_c, 0, 72, 0
2, 104927, Note_on_c, 0, 42, 0
2, 104927, Note_on_c, 0, 76, 0
2, 104928, Note_on_c, 0, 47, 127
2, 104928, Note_on_c, 0, 71, 127
2, 104928, Note_on_c, 0, 74, 127
2, 105119, Note_on_c, 0, 71, 0
2, 105120, Note_on_c, 0, 72, 127
2, 105215, Note_on_c, 0, 72, 0
2, 105216, Note_on_c, 0, 69, 127
2, 105311, Note_on_c, 0, 69, 0
2, 105311, Note_on_c, 0, 54, 0
2, 105311, Note_on_c, 0, 47, 0
2, 105312, Note_on_c, 0, 40, 127
2, 105312, Note_on_c, 0, 52, 127
2, 105312, Note_on_c, 0, 67, 127
2, 105503, Note_on_c, 0, 67, 0
2, 105504, Note_on_c, 0, 71, 127
2, 105695, Note_on_c, 0, 71, 0
2, 105695, Note_on_c, 0, 40, 0
2, 105695, Note_on_c, 0, 74, 0
2, 105696, Note_on_c, 0, 45, 127
2, 105696, Note_on_c, 0, 72, 127
2, 105696, Note_on_c, 0, 69, 127
2, 105887, Note_on_c, 0, 69, 0
2, 105888, Note_on_c, 0, 67, 127
2, 106079, Note_on_c, 0, 67, 0
2, 106079, Note_on_c, 0, 45, 0
2, 106079, Note_on_c, 0, 52, 0
2, 106080, Note_on_c, 0, 38, 127
2, 106080, Note_on_c, 0, 50, 127
2, 106080, Note_on_c, 0, 66, 127
2, 106271, Note_on_c, 0, 66, 0
2, 106272, Note_on_c, 0, 64, 127
2, 106367, Note_on_c, 0, 64, 0
2, 106368, Note_on_c, 0, 62, 127
2, 106460, Note_on_c, 0, 50, 0
2, 106460, Note_on_c, 0, 38, 0
2, 106463, Note_on_c, 0, 72, 0
2, 106463, Note_on_c, 0, 62, 0
2, 106464, Note_on_c, 0, 71, 127
2, 106464, Note_on_c, 0, 67, 127
2, 106656, Note_on_c, 0, 55, 127
2, 106847, Note_on_c, 0, 55, 0
2, 106847, Note_on_c, 0, 67, 0
2, 106847, Note_on_c, 0, 71, 0
2, 106848, Note_on_c, 0, 60, 127
2, 106848, Note_on_c, 0, 69, 127
2, 107039, Note_on_c, 0, 60, 0
2, 107040, Note_on_c, 0, 64, 127
2, 107231, Note_on_c, 0, 64, 0
2, 107232, Note_on_c, 0, 62, 127
2, 107232, Note_on_c, 0, 66, 127
2, 107423, Note_on_c, 0, 62, 0
2, 107424, Note_on_c, 0, 50, 127
2, 107424, Note_on_c, 0, 60, 127
2, 107615, Note_on_c, 0, 60, 0
2, 107615, Note_on_c, 0, 69, 0
2, 107615, Note_on_c, 0, 66, 0
2, 107615, Note_on_c, 0, 50, 0
2, 107616, Note_on_c, 0, 55, 127
2, 107616, Note_on_c, 0, 59, 127
2, 107616, Note_on_c, 0, 67, 127
2, 107807, Note_on_c, 0, 59, 0
2, 107807, Note_on_c, 0, 55, 0
2, 107808, Note_on_c, 0, 59, 127
2, 107999, Note_on_c, 0, 59, 0
2, 107999, Note_on_c, 0, 67, 0
2, 108000, Note_on_c, 0, 57, 127
2, 108000, Note_on_c, 0, 76, 127
2, 108191, Note_on_c, 0, 57, 0
2, 108192, Note_on_c, 0, 55, 127
2, 108192, Note_on_c, 0, 64, 127
2, 108383, Note_on_c, 0, 64, 0
2, 108383, Note_on_c, 0, 55, 0
2, 108384, Note_on_c, 0, 54, 127
2, 108384, Note_on_c, 0, 69, 127
2, 108575, Note_on_c, 0, 69, 0
2, 108576, Note_on_c, 0, 72, 127
2, 108767, Note_on_c, 0, 72, 0
2, 108767, Note_on_c, 0, 54, 0
2, 108767, Note_on_c, 0, 76, 0
2, 108768, Note_on_c, 0, 59, 127
2, 108768, Note_on_c, 0, 75, 127
2, 108768, Note_on_c, 0, 71, 127
2, 108959, Note_on_c, 0, 71, 0
2, 108960, Note_on_c, 0, 69, 127
2, 109148, Note_on_c, 0, 75, 0
2, 109151, Note_on_c, 0, 69, 0
2, 109151, Note_on_c, 0, 59, 0
2, 109152, Note_on_c, 0, 52, 127
2, 109152, Note_on_c, 0, 76, 127
2, 109152, Note_on_c, 0, 67, 127
2, 109247, Note_on_c, 0, 67, 0
2, 109248, Note_on_c, 0, 66, 127
2, 109343, Note_on_c, 0, 66, 0
2, 109344, Note_on_c, 0, 64, 127
2, 109432, Note_on_c, 0, 76, 0
2, 109440, Note_on_c, 0, 74, 127
2, 109532, Note_on_c, 0, 52, 0
2, 109534, Note_on_c, 0, 64, 0
2, 109535, Note_on_c, 0, 74, 0
2, 109536, Note_on_c, 0, 69, 127
2, 109536, Note_on_c, 0, 72, 127
2, 109728, Note_on_c, 0, 57, 127
2, 109919, Note_on_c, 0, 57, 0
2, 109919, Note_on_c, 0, 72, 0
2, 109920, Note_on_c, 0, 62, 127
2, 109920, Note_on_c, 0, 71, 127
2, 110111, Note_on_c, 0, 62, 0
2, 110112, Note_on_c, 0, 65, 127
2, 110303, Note_on_c, 0, 65, 0
2, 110303, Note_on_c, 0, 69, 0
2, 110304, Note_on_c, 0, 64, 127
2, 110304, Note_on_c, 0, 67, 127
2, 110495, Note_on_c, 0, 64, 0
2, 110496, Note_on_c, 0, 62, 127
2, 110687, Note_on_c, 0, 62, 0
2, 110687, Note_on_c, 0, 71, 0
2, 110688, Note_on_c, 0, 60, 127
2, 110688, Note_on_c, 0, 69, 127
2, 110879, Note_on_c, 0, 60, 0
2, 110880, Note_on_c, 0, 64, 127
2, 111071, Note_on_c, 0, 64, 0
2, 111071, Note_on_c, 0, 67, 0
2, 111072, Note_on_c, 0, 62, 127
2, 111072, Note_on_c, 0, 66, 127
2, 111263, Note_on_c, 0, 62, 0
2, 111264, Note_on_c, 0, 64, 127
2, 111359, Note_on_c, 0, 64, 0
2, 111360, Note_on_c, 0, 60, 127
2, 111455, Note_on_c, 0, 60, 0
2, 111455, Note_on_c, 0, 69, 0
2, 111456, Note_on_c, 0, 59, 127
2, 111456, Note_on_c, 0, 67, 127
2, 111647, Note_on_c, 0, 59, 0
2, 111648, Note_on_c, 0, 62, 127
2, 111839, Note_on_c, 0, 62, 0
2, 111839, Note_on_c, 0, 66, 0
2, 111840, Note_on_c, 0, 60, 127
2, 111840, Note_on_c, 0, 64, 127
2, 112031, Note_on_c, 0, 60, 0
2, 112032, Note_on_c, 0, 62, 127
2, 112127, Note_on_c, 0, 62, 0
2, 112128, Note_on_c, 0, 59, 127
2, 112223, Note_on_c, 0, 59, 0
2, 112223, Note_on_c, 0, 67, 0
2, 112224, Note_on_c, 0, 57, 127
2, 112224, Note_on_c, 0, 66, 127
2, 112415, Note_on_c, 0, 57, 0
2, 112416, Note_on_c, 0, 60, 127
2, 112607, Note_on_c, 0, 60, 0
2, 112607, Note_on_c, 0, 64, 0
2, 112608, Note_on_c, 0, 59, 127
2, 112608, Note_on_c, 0, 63, 127
2, 112799, Note_on_c, 0, 59, 0
2, 112800, Note_on_c, 0, 47, 127
2, 112800, Note_on_c, 0, 57, 127
2, 112991, Note_on_c, 0, 57, 0
2, 112991, Note_on_c, 0, 66, 0
2, 112991, Note_on_c, 0, 63, 0
2, 112991, Note_on_c, 0, 47, 0
2, 112992, Note_on_c, 0, 52, 127
2, 112992, Note_on_c, 0, 55, 127
2, 112992, Note_on_c, 0, 64, 127
2, 113183, Note_on_c, 0, 55, 0
2, 113183, Note_on_c, 0, 52, 0
2, 113184, Note_on_c, 0, 55, 127
2, 113375, Note_on_c, 0, 55, 0
2, 113375, Note_on_c, 0, 64, 0
2, 113376, Note_on_c, 0, 53, 127
2, 113376, Note_on_c, 0, 72, 127
2, 113376, Note_on_c, 0, 64, 127
2, 113376, Note_on_c, 0, 67, 127
2, 113567, Note_on_c, 0, 53, 0
2, 113568, Note_on_c, 0, 52, 127
2, 113759, Note_on_c, 0, 52, 0
2, 113759, Note_on_c, 0, 67, 0
2, 113759, Note_on_c, 0, 64, 0
2, 113760, Note_on_c, 0, 50, 127
2, 113760, Note_on_c, 0, 65, 127
2, 113760, Note_on_c, 0, 69, 127
2, 113951, Note_on_c, 0, 50, 0
2, 113951, Note_on_c, 0, 72, 0
2, 113952, Note_on_c, 0, 53, 127
2, 113952, Note_on_c, 0, 71, 127
2, 114140, Note_on_c, 0, 69, 0
2, 114143, Note_on_c, 0, 71, 0
2, 114143, Note_on_c, 0, 53, 0
2, 114144, Note_on_c, 0, 52, 127
2, 114144, Note_on_c, 0, 71, 127
2, 114335, Note_on_c, 0, 52, 0
2, 114336, Note_on_c, 0, 53, 127
2, 114431, Note_on_c, 0, 53, 0
2, 114432, Note_on_c, 0, 50, 127
2, 114527, Note_on_c, 0, 50, 0
2, 114527, Note_on_c, 0, 65, 0
2, 114528, Note_on_c, 0, 48, 127
2, 114528, Note_on_c, 0, 76, 127
2, 114528, Note_on_c, 0, 64, 127
2, 114719, Note_on_c, 0, 48, 0
2, 114719, Note_on_c, 0, 71, 0
2, 114720, Note_on_c, 0, 52, 127
2, 114720, Note_on_c, 0, 69, 127
2, 114911, Note_on_c, 0, 69, 0
2, 114911, Note_on_c, 0, 52, 0
2, 114912, Note_on_c, 0, 50, 127
2, 114912, Note_on_c, 0, 69, 127
2, 115103, Note_on_c, 0, 50, 0
2, 115104, Note_on_c, 0, 48, 127
2, 115295, Note_on_c, 0, 48, 0
2, 115295, Note_on_c, 0, 64, 0
2, 115295, Note_on_c, 0, 76, 0
2, 115296, Note_on_c, 0, 47, 127
2, 115296, Note_on_c, 0, 74, 127
2, 115296, Note_on_c, 0, 65, 127
2, 115392, Note_on_c, 0, 69, 0
2, 115392, Note_on_c, 0, 72, 127
2, 115487, Note_on_c, 0, 72, 0
2, 115487, Note_on_c, 0, 47, 0
2, 115488, Note_on_c, 0, 50, 127
2, 115488, Note_on_c, 0, 71, 127
2, 115583, Note_on_c, 0, 71, 0
2, 115584, Note_on_c, 0, 69, 127
2, 115676, Note_on_c, 0, 65, 0
2, 115679, Note_on_c, 0, 69, 0
2, 115679, Note_on_c, 0, 50, 0
2, 115680, Note_on_c, 0, 52, 127
2, 115680, Note_on_c, 0, 68, 127
2, 115680, Note_on_c, 0, 64, 127
2, 115871, Note_on_c, 0, 52, 0
2, 115872, Note_on_c, 0, 40, 127
2, 116063, Note_on_c, 0, 40, 0
2, 116063, Note_on_c, 0, 64, 0
2, 116063, Note_on_c, 0, 68, 0
2, 116064, Note_on_c, 0, 45, 127
2, 116064, Note_on_c, 0, 69, 127
2, 116064, Note_on_c, 0, 64, 127
2, 116256, Note_on_c, 0, 74, 0
2, 116256, Note_on_c, 0, 72, 127
2, 116351, Note_on_c, 0, 72, 0
2, 116352, Note_on_c, 0, 71, 127
2, 116444, Note_on_c, 0, 64, 0
2, 116444, Note_on_c, 0, 69, 0
2, 116447, Note_on_c, 0, 71, 0
2, 116448, Note_on_c, 0, 57, 127
2, 116448, Note_on_c, 0, 72, 127
2, 116544, Note_on_c, 0, 67, 127
2, 116639, Note_on_c, 0, 67, 0
2, 116639, Note_on_c, 0, 57, 0
2, 116640, Note_on_c, 0, 55, 127
2, 116640, Note_on_c, 0, 66, 127
2, 116735, Note_on_c, 0, 66, 0
2, 116736, Note_on_c, 0, 64, 127
2, 116831, Note_on_c, 0, 64, 0
2, 116831, Note_on_c, 0, 55, 0
2, 116831, Note_on_c, 0, 45, 0
2, 116832, Note_on_c, 0, 54, 127
2, 116832, Note_on_c, 0, 47, 127
2, 116832, Note_on_c, 0, 63, 127
2, 117023, Note_on_c, 0, 54, 0
2, 117024, Note_on_c, 0, 57, 127
2, 117215, Note_on_c, 0, 57, 0
2, 117215, Note_on_c, 0, 72, 0
2, 117216, Note_on_c, 0, 55, 127
2, 117216, Note_on_c, 0, 71, 127
2, 117407, Note_on_c, 0, 55, 0
2, 117408, Note_on_c, 0, 54, 127
2, 117599, Note_on_c, 0, 54, 0
2, 117599, Note_on_c, 0, 63, 0
2, 117599, Note_on_c, 0, 47, 0
2, 117600, Note_on_c, 0, 48, 127
2, 117600, Note_on_c, 0, 52, 127
2, 117600, Note_on_c, 0, 64, 127
2, 117791, Note_on_c, 0, 52, 0
2, 117792, Note_on_c, 0, 55, 127
2, 117980, Note_on_c, 0, 48, 0
2, 117983, Note_on_c, 0, 71, 0
2, 117983, Note_on_c, 0, 55, 0
2, 117984, Note_on_c, 0, 54, 127
2, 117984, Note_on_c, 0, 49, 127
2, 117984, Note_on_c, 0, 69, 127
2, 118175, Note_on_c, 0, 54, 0
2, 118176, Note_on_c, 0, 52, 127
2, 118364, Note_on_c, 0, 49, 0
2, 118367, Note_on_c, 0, 64, 0
2, 118367, Note_on_c, 0, 52, 0
2, 118368, Note_on_c, 0, 54, 127
2, 118368, Note_on_c, 0, 50, 127
2, 118368, Note_on_c, 0, 62, 127
2, 118559, Note_on_c, 0, 62, 0
2, 118560, Note_on_c, 0, 72, 127
2, 118751, Note_on_c, 0, 72, 0
2, 118751, Note_on_c, 0, 50, 0
2, 118751, Note_on_c, 0, 54, 0
2, 118751, Note_on_c, 0, 69, 0
2, 118752, Note_on_c, 0, 51, 127
2, 118752, Note_on_c, 0, 59, 127
2, 118752, Note_on_c, 0, 71, 127
2, 118752, Note_on_c, 0, 66, 127
2, 118943, Note_on_c, 0, 71, 0
2, 118944, Note_on_c, 0, 69, 127
2, 119132, Note_on_c, 0, 66, 0
2, 119135, Note_on_c, 0, 69, 0
2, 119135, Note_on_c, 0, 51, 0
2, 119136, Note_on_c, 0, 52, 127
2, 119136, Note_on_c, 0, 64, 127
2, 119328, Note_on_c, 0, 67, 127
2, 119416, Note_on_c, 0, 64, 0
2, 119424, Note_on_c, 0, 62, 127
2, 119519, Note_on_c, 0, 62, 0
2, 119519, Note_on_c, 0, 59, 0
2, 119519, Note_on_c, 0, 52, 0
2, 119520, Note_on_c, 0, 45, 127
2, 119520, Note_on_c, 0, 57, 127
2, 119520, Note_on_c, 0, 60, 127
2, 119708, Note_on_c, 0, 67, 0
2, 119712, Note_on_c, 0, 65, 127
2, 119807, Note_on_c, 0, 65, 0
2, 119807, Note_on_c, 0, 57, 0
2, 119808, Note_on_c, 0, 55, 127
2, 119808, Note_on_c, 0, 69, 127
2, 119900, Note_on_c, 0, 60, 0
2, 119903, Note_on_c, 0, 69, 0
2, 119903, Note_on_c, 0, 55, 0
2, 119904, Note_on_c, 0, 54, 127
2, 119904, Note_on_c, 0, 59, 127
2, 119904, Note_on_c, 0, 63, 127
2, 120095, Note_on_c, 0, 63, 0
2, 120095, Note_on_c, 0, 45, 0
2, 120095, Note_on_c, 0, 54, 0
2, 120095, Note_on_c, 0, 59, 0
2, 120096, Note_on_c, 0, 46, 127
2, 120096, Note_on_c, 0, 55, 127
2, 120096, Note_on_c, 0, 64, 127
2, 120096, Note_on_c, 0, 61, 127
2, 120191, Note_on_c, 0, 64, 0
2, 120191, Note_on_c, 0, 55, 0
2, 120192, Note_on_c, 0, 52, 127
2, 120192, Note_on_c, 0, 66, 127
2, 120286, Note_on_c, 0, 46, 0
2, 120286, Note_on_c, 0, 61, 0
2, 120287, Note_on_c, 0, 52, 0
2, 120287, Note_on_c, 0, 66, 0
2, 120288, Note_on_c, 0, 52, 127
2, 120288, Note_on_c, 0, 47, 127
2, 120288, Note_on_c, 0, 67, 127
2, 120288, Note_on_c, 0, 59, 127
2, 120479, Note_on_c, 0, 59, 0
2, 120479, Note_on_c, 0, 67, 0
2, 120479, Note_on_c, 0, 52, 0
2, 120480, Note_on_c, 0, 51, 127
2, 120480, Note_on_c, 0, 57, 127
2, 120480, Note_on_c, 0, 66, 127
2, 120584, Note_on_c, 0, 66, 0
2, 120584, Note_on_c, 0, 64, 127
2, 120680, Note_on_c, 0, 64, 0
2, 120680, Note_on_c, 0, 47, 0
2, 120681, Note_on_c, 0, 57, 0
2, 120681, Note_on_c, 0, 51, 0
2, 120692, Note_on_c, 0, 40, 127
2, 120692, Note_on_c, 0, 55, 127
2, 120692, Note_on_c, 0, 52, 127
2, 120692, Note_on_c, 0, 64, 127
2, 121392, Note_on_c, 0, 52, 0
2, 121392, Note_on_c, 0, 40, 0
2, 121392, Note_on_c, 0, 55, 0
2, 121459, Note_on_c, 0, 64, 0
2, 121632, Note_on_c, 0, 76, 127
2, 121742, Note_on_c, 0, 76, 0
2, 121743, Note_on_c, 0, 78, 127
2, 121853, Note_on_c, 0, 78, 0
2, 121855, Note_on_c, 0, 79, 127
2, 121965, Note_on_c, 0, 79, 0
2, 121966, Note_on_c, 0, 54, 127
2, 121966, Note_on_c, 0, 52, 127
2, 121966, Note_on_c, 0, 61, 127
2, 121966, Note_on_c, 0, 70, 127
2, 122188, Note_on_c, 0, 70, 0
2, 122191, Note_on_c, 0, 68, 127
2, 122301, Note_on_c, 0, 68, 0
2, 122302, Note_on_c, 0, 66, 127
2, 122412, Note_on_c, 0, 66, 0
2, 122412, Note_on_c, 0, 61, 0
2, 122412, Note_on_c, 0, 52, 0
2, 122415, Note_on_c, 0, 50, 127
2, 122415, Note_on_c, 0, 71, 127
2, 122639, Note_on_c, 0, 59, 127
2, 122859, Note_on_c, 0, 54, 0
2, 122861, Note_on_c, 0, 50, 0
2, 122861, Note_on_c, 0, 59, 0
2, 122862, Note_on_c, 0, 48, 127
2, 122862, Note_on_c, 0, 55, 127
2, 122862, Note_on_c, 0, 64, 127
2, 123084, Note_on_c, 0, 64, 0
2, 123086, Note_on_c, 0, 67, 127
2, 123308, Note_on_c, 0, 67, 0
2, 123308, Note_on_c, 0, 55, 0
2, 123308, Note_on_c, 0, 71, 0
2, 123311, Note_on_c, 0, 57, 127
2, 123311, Note_on_c, 0, 66, 127
2, 123311, Note_on_c, 0, 69, 127
2, 123533, Note_on_c, 0, 66, 0
2, 123534, Note_on_c, 0, 64, 127
2, 123754, Note_on_c, 0, 69, 0
2, 123755, Note_on_c, 0, 48, 0
2, 123756, Note_on_c, 0, 64, 0
2, 123758, Note_on_c, 0, 47, 127
2, 123758, Note_on_c, 0, 71, 127
2, 123758, Note_on_c, 0, 63, 127
2, 123980, Note_on_c, 0, 63, 0
2, 123980, Note_on_c, 0, 57, 0
2, 123982, Note_on_c, 0, 55, 127
2, 123982, Note_on_c, 0, 64, 127
2, 124204, Note_on_c, 0, 64, 0
2, 124204, Note_on_c, 0, 55, 0
2, 124205, Note_on_c, 0, 54, 127
2, 124205, Note_on_c, 0, 63, 127
2, 124427, Note_on_c, 0, 63, 0
2, 124427, Note_on_c, 0, 54, 0
2, 124430, Note_on_c, 0, 52, 127
2, 124430, Note_on_c, 0, 61, 127
2, 124652, Note_on_c, 0, 61, 0
2, 124652, Note_on_c, 0, 52, 0
2, 124654, Note_on_c, 0, 54, 127
2, 124654, Note_on_c, 0, 63, 127
2, 125358, Note_on_c, 0, 71, 0
2, 125538, Note_on_c, 0, 54, 0
2, 125541, Note_on_c, 0, 47, 0
2, 125547, Note_on_c, 0, 63, 0
2, 127392, Note_on_c, 0, 74, 127
2, 127583, Note_on_c, 0, 74, 0
2, 127584, Note_on_c, 0, 71, 127
2, 127871, Note_on_c, 0, 71, 0
2, 127872, Note_on_c, 0, 72, 127
2, 127967, Note_on_c, 0, 72, 0
2, 127968, Note_on_c, 0, 74, 127
2, 128159, Note_on_c, 0, 74, 0
2, 128160, Note_on_c, 0, 67, 127
2, 128255, Note_on_c, 0, 67, 0
2, 128256, Note_on_c, 0, 79, 127
2, 128351, Note_on_c, 0, 79, 0
2, 128352, Note_on_c, 0, 78, 127
2, 128447, Note_on_c, 0, 78, 0
2, 128448, Note_on_c, 0, 76, 127
2, 128543, Note_on_c, 0, 76, 0
2, 128544, Note_on_c, 0, 74, 127
2, 128639, Note_on_c, 0, 74, 0
2, 128640, Note_on_c, 0, 72, 127
2, 128735, Note_on_c, 0, 72, 0
2, 128736, Note_on_c, 0, 71, 127
2, 128831, Note_on_c, 0, 71, 0
2, 128832, Note_on_c, 0, 76, 127
2, 128927, Note_on_c, 0, 76, 0
2, 128928, Note_on_c, 0, 74, 127
2, 129023, Note_on_c, 0, 74, 0
2, 129024, Note_on_c, 0, 72, 127
2, 129119, Note_on_c, 0, 72, 0
2, 129120, Note_on_c, 0, 71, 127
2, 129215, Note_on_c, 0, 71, 0
2, 129216, Note_on_c, 0, 69, 127
2, 129311, Note_on_c, 0, 69, 0
2, 129312, Note_on_c, 0, 67, 127
2, 129695, Note_on_c, 0, 67, 0
2, 129696, Note_on_c, 0, 69, 127
2, 129887, Note_on_c, 0, 69, 0
2, 129888, Note_on_c, 0, 71, 127
2, 129983, Note_on_c, 0, 71, 0
2, 129984, Note_on_c, 0, 67, 127
2, 130079, Note_on_c, 0, 67, 0
2, 130080, Note_on_c, 0, 71, 127
2, 130175, Note_on_c, 0, 71, 0
2, 130176, Note_on_c, 0, 74, 127
2, 130271, Note_on_c, 0, 74, 0
2, 130272, Note_on_c, 0, 79, 127
2, 130367, Note_on_c, 0, 79, 0
2, 130368, Note_on_c, 0, 71, 127
2, 130463, Note_on_c, 0, 71, 0
2, 130464, Note_on_c, 0, 73, 127
2, 130655, Note_on_c, 0, 73, 0
2, 130656, Note_on_c, 0, 69, 127
2, 130847, Note_on_c, 0, 69, 0
2, 130848, Note_on_c, 0, 74, 127
2, 130848, Note_on_c, 0, 67, 127
2, 131039, Note_on_c, 0, 67, 0
2, 131039, Note_on_c, 0, 74, 0
2, 131040, Note_on_c, 0, 74, 127
2, 131040, Note_on_c, 0, 66, 127
2, 131327, Note_on_c, 0, 66, 0
2, 131327, Note_on_c, 0, 74, 0
2, 131328, Note_on_c, 0, 76, 127
2, 131328, Note_on_c, 0, 67, 127
2, 131423, Note_on_c, 0, 67, 0
2, 131423, Note_on_c, 0, 76, 0
2, 131424, Note_on_c, 0, 73, 127
2, 131424, Note_on_c, 0, 69, 127
2, 131615, Note_on_c, 0, 69, 0
2, 131615, Note_on_c, 0, 73, 0
2, 131616, Note_on_c, 0, 74, 127
2, 131616, Note_on_c, 0, 62, 127
2, 131706, Note_on_c, 0, 74, 0
2, 131711, Note_on_c, 0, 62, 0
2, 131712, Note_on_c, 0, 74, 127
2, 131807, Note_on_c, 0, 74, 0
2, 131808, Note_on_c, 0, 78, 127
2, 131808, Note_on_c, 0, 73, 127
2, 131903, Note_on_c, 0, 73, 0
2, 131904, Note_on_c, 0, 71, 127
2, 131999, Note_on_c, 0, 71, 0
2, 131999, Note_on_c, 0, 78, 0
2, 132000, Note_on_c, 0, 79, 127
2, 132000, Note_on_c, 0, 69, 127
2, 132095, Note_on_c, 0, 69, 0
2, 132096, Note_on_c, 0, 67, 127
2, 132191, Note_on_c, 0, 67, 0
2, 132191, Note_on_c, 0, 79, 0
2, 132192, Note_on_c, 0, 81, 127
2, 132192, Note_on_c, 0, 66, 127
2, 132287, Note_on_c, 0, 66, 0
2, 132288, Note_on_c, 0, 71, 127
2, 132383, Note_on_c, 0, 71, 0
2, 132383, Note_on_c, 0, 81, 0
2, 132384, Note_on_c, 0, 73, 127
2, 132384, Note_on_c, 0, 69, 127
2, 132479, Note_on_c, 0, 69, 0
2, 132480, Note_on_c, 0, 67, 127
2, 132575, Note_on_c, 0, 67, 0
2, 132575, Note_on_c, 0, 73, 0
2, 132576, Note_on_c, 0, 76, 127
2, 132576, Note_on_c, 0, 66, 127
2, 132671, Note_on_c, 0, 66, 0
2, 132672, Note_on_c, 0, 64, 127
2, 132767, Note_on_c, 0, 64, 0
2, 132767, Note_on_c, 0, 76, 0
2, 132768, Note_on_c, 0, 78, 127
2, 132768, Note_on_c, 0, 62, 127
2, 132863, Note_on_c, 0, 78, 0
2, 132864, Note_on_c, 0, 76, 127
2, 132959, Note_on_c, 0, 76, 0
2, 132960, Note_on_c, 0, 78, 127
2, 133055, Note_on_c, 0, 78, 0
2, 133056, Note_on_c, 0, 79, 127
2, 133151, Note_on_c, 0, 79, 0
2, 133151, Note_on_c, 0, 62, 0
2, 133152, Note_on_c, 0, 81, 127
2, 133152, Note_on_c, 0, 62, 127
2, 133247, Note_on_c, 0, 81, 0
2, 133248, Note_on_c, 0, 83, 127
2, 133343, Note_on_c, 0, 83, 0
2, 133343, Note_on_c, 0, 62, 0
2, 133344, Note_on_c, 0, 84, 127
2, 133344, Note_on_c, 0, 64, 127
2, 133439, Note_on_c, 0, 64, 0
2, 133440, Note_on_c, 0, 60, 127
2, 133535, Note_on_c, 0, 60, 0
2, 133535, Note_on_c, 0, 84, 0
2, 133536, Note_on_c, 0, 79, 127
2, 133536, Note_on_c, 0, 64, 127
2, 133631, Note_on_c, 0, 64, 0
2, 133632, Note_on_c, 0, 67, 127
2, 133727, Note_on_c, 0, 67, 0
2, 133727, Note_on_c, 0, 79, 0
2, 133728, Note_on_c, 0, 76, 127
2, 133728, Note_on_c, 0, 72, 127
2, 133823, Note_on_c, 0, 72, 0
2, 133824, Note_on_c, 0, 64, 127
2, 133919, Note_on_c, 0, 64, 0
2, 133919, Note_on_c, 0, 76, 0
2, 133920, Note_on_c, 0, 74, 127
2, 133920, Note_on_c, 0, 66, 127
2, 134015, Note_on_c, 0, 74, 0
2, 134016, Note_on_c, 0, 76, 127
2, 134111, Note_on_c, 0, 76, 0
2, 134111, Note_on_c, 0, 66, 0
2, 134112, Note_on_c, 0, 74, 127
2, 134112, Note_on_c, 0, 62, 127
2, 134207, Note_on_c, 0, 74, 0
2, 134208, Note_on_c, 0, 72, 127
2, 134303, Note_on_c, 0, 72, 0
2, 134303, Note_on_c, 0, 62, 0
2, 134304, Note_on_c, 0, 71, 127
2, 134304, Note_on_c, 0, 67, 127
2, 134399, Note_on_c, 0, 71, 0
2, 134400, Note_on_c, 0, 74, 127
2, 134495, Note_on_c, 0, 74, 0
2, 134495, Note_on_c, 0, 67, 0
2, 134496, Note_on_c, 0, 72, 127
2, 134496, Note_on_c, 0, 67, 127
2, 134591, Note_on_c, 0, 72, 0
2, 134592, Note_on_c, 0, 74, 127
2, 134687, Note_on_c, 0, 74, 0
2, 134688, Note_on_c, 0, 72, 127
2, 134783, Note_on_c, 0, 72, 0
2, 134783, Note_on_c, 0, 67, 0
2, 134784, Note_on_c, 0, 71, 127
2, 134784, Note_on_c, 0, 67, 127
2, 134879, Note_on_c, 0, 67, 0
2, 134879, Note_on_c, 0, 71, 0
2, 134880, Note_on_c, 0, 69, 127
2, 134880, Note_on_c, 0, 66, 127
2, 134975, Note_on_c, 0, 69, 0
2, 134976, Note_on_c, 0, 72, 127
2, 135071, Note_on_c, 0, 72, 0
2, 135071, Note_on_c, 0, 66, 0
2, 135072, Note_on_c, 0, 71, 127
2, 135072, Note_on_c, 0, 67, 127
2, 135167, Note_on_c, 0, 67, 0
2, 135167, Note_on_c, 0, 71, 0
2, 135168, Note_on_c, 0, 72, 127
2, 135168, Note_on_c, 0, 69, 127
2, 135263, Note_on_c, 0, 69, 0
2, 135263, Note_on_c, 0, 72, 0
2, 135264, Note_on_c, 0, 74, 127
2, 135264, Note_on_c, 0, 71, 127
2, 135359, Note_on_c, 0, 71, 0
2, 135359, Note_on_c, 0, 74, 0
2, 135360, Note_on_c, 0, 76, 127
2, 135360, Note_on_c, 0, 72, 127
2, 135455, Note_on_c, 0, 72, 0
2, 135455, Note_on_c, 0, 76, 0
2, 135456, Note_on_c, 0, 77, 127
2, 135456, Note_on_c, 0, 69, 127
2, 135456, Note_on_c, 0, 62, 127
2, 135551, Note_on_c, 0, 77, 0
2, 135552, Note_on_c, 0, 74, 127
2, 135647, Note_on_c, 0, 74, 0
2, 135647, Note_on_c, 0, 62, 0
2, 135647, Note_on_c, 0, 69, 0
2, 135648, Note_on_c, 0, 79, 127
2, 135648, Note_on_c, 0, 74, 127
2, 135648, Note_on_c, 0, 59, 127
2, 135839, Note_on_c, 0, 74, 0
2, 135839, Note_on_c, 0, 79, 0
2, 135840, Note_on_c, 0, 71, 127
2, 135840, Note_on_c, 0, 67, 127
2, 135935, Note_on_c, 0, 59, 0
2, 135936, Note_on_c, 0, 60, 127
2, 136031, Note_on_c, 0, 60, 0
2, 136031, Note_on_c, 0, 67, 0
2, 136031, Note_on_c, 0, 71, 0
2, 136032, Note_on_c, 0, 69, 127
2, 136032, Note_on_c, 0, 66, 127
2, 136032, Note_on_c, 0, 62, 127
2, 136223, Note_on_c, 0, 62, 0
2, 136223, Note_on_c, 0, 66, 0
2, 136223, Note_on_c, 0, 69, 0
2, 136224, Note_on_c, 0, 71, 127
2, 136224, Note_on_c, 0, 67, 127
2, 136224, Note_on_c, 0, 55, 127
2, 136314, Note_on_c, 0, 67, 0
2, 136319, Note_on_c, 0, 55, 0
2, 136320, Note_on_c, 0, 67, 127
2, 136415, Note_on_c, 0, 67, 0
2, 136415, Note_on_c, 0, 71, 0
2, 136416, Note_on_c, 0, 79, 127
2, 136416, Note_on_c, 0, 71, 127
2, 136416, Note_on_c, 0, 66, 127
2, 136511, Note_on_c, 0, 66, 0
2, 136512, Note_on_c, 0, 64, 127
2, 136607, Note_on_c, 0, 64, 0
2, 136607, Note_on_c, 0, 71, 0
2, 136607, Note_on_c, 0, 79, 0
2, 136608, Note_on_c, 0, 81, 127
2, 136608, Note_on_c, 0, 72, 127
2, 136608, Note_on_c, 0, 62, 127
2, 136703, Note_on_c, 0, 62, 0
2, 136704, Note_on_c, 0, 60, 127
2, 136799, Note_on_c, 0, 60, 0
2, 136799, Note_on_c, 0, 72, 0
2, 136799, Note_on_c, 0, 81, 0
2, 136800, Note_on_c, 0, 83, 127
2, 136800, Note_on_c, 0, 74, 127
2, 136800, Note_on_c, 0, 59, 127
2, 136895, Note_on_c, 0, 59, 0
2, 136896, Note_on_c, 0, 64, 127
2, 136991, Note_on_c, 0, 64, 0
2, 136991, Note_on_c, 0, 74, 0
2, 136991, Note_on_c, 0, 83, 0
2, 136992, Note_on_c, 0, 78, 127
2, 136992, Note_on_c, 0, 69, 127
2, 136992, Note_on_c, 0, 62, 127
2, 137087, Note_on_c, 0, 62, 0
2, 137088, Note_on_c, 0, 60, 127
2, 137183, Note_on_c, 0, 60, 0
2, 137183, Note_on_c, 0, 69, 0
2, 137184, Note_on_c, 0, 74, 127
2, 137184, Note_on_c, 0, 59, 127
2, 137279, Note_on_c, 0, 59, 0
2, 137280, Note_on_c, 0, 57, 127
2, 137375, Note_on_c, 0, 57, 0
2, 137375, Note_on_c, 0, 74, 0
2, 137375, Note_on_c, 0, 78, 0
2, 137376, Note_on_c, 0, 79, 127
2, 137376, Note_on_c, 0, 71, 127
2, 137376, Note_on_c, 0, 55, 127
2, 137471, Note_on_c, 0, 71, 0
2, 137472, Note_on_c, 0, 76, 127
2, 137567, Note_on_c, 0, 76, 0
2, 137568, Note_on_c, 0, 74, 127
2, 137663, Note_on_c, 0, 74, 0
2, 137664, Note_on_c, 0, 72, 127
2, 137756, Note_on_c, 0, 79, 0
2, 137759, Note_on_c, 0, 72, 0
2, 137759, Note_on_c, 0, 55, 0
2, 137760, Note_on_c, 0, 71, 127
2, 137760, Note_on_c, 0, 57, 127
2, 137855, Note_on_c, 0, 71, 0
2, 137856, Note_on_c, 0, 69, 127
2, 137951, Note_on_c, 0, 69, 0
2, 137951, Note_on_c, 0, 57, 0
2, 137952, Note_on_c, 0, 67, 127
2, 137952, Note_on_c, 0, 59, 127
2, 138047, Note_on_c, 0, 59, 0
2, 138048, Note_on_c, 0, 55, 127
2, 138143, Note_on_c, 0, 55, 0
2, 138144, Note_on_c, 0, 59, 127
2, 138239, Note_on_c, 0, 59, 0
2, 138239, Note_on_c, 0, 67, 0
2, 138240, Note_on_c, 0, 69, 127
2, 138240, Note_on_c, 0, 62, 127
2, 138335, Note_on_c, 0, 62, 0
2, 138335, Note_on_c, 0, 69, 0
2, 138336, Note_on_c, 0, 74, 127
2, 138336, Note_on_c, 0, 71, 127
2, 138336, Note_on_c, 0, 67, 127
2, 138431, Note_on_c, 0, 67, 0
2, 138432, Note_on_c, 0, 59, 127
2, 138527, Note_on_c, 0, 59, 0
2, 138527, Note_on_c, 0, 71, 0
2, 138527, Note_on_c, 0, 74, 0
2, 138528, Note_on_c, 0, 76, 127
2, 138528, Note_on_c, 0, 69, 127
2, 138528, Note_on_c, 0, 61, 127
2, 138623, Note_on_c, 0, 69, 0
2, 138624, Note_on_c, 0, 71, 127
2, 138719, Note_on_c, 0, 71, 0
2, 138719, Note_on_c, 0, 61, 0
2, 138719, Note_on_c, 0, 76, 0
2, 138720, Note_on_c, 0, 73, 127
2, 138720, Note_on_c, 0, 69, 127
2, 138720, Note_on_c, 0, 57, 127
2, 138815, Note_on_c, 0, 69, 0
2, 138816, Note_on_c, 0, 67, 127
2, 138911, Note_on_c, 0, 67, 0
2, 138911, Note_on_c, 0, 57, 0
2, 138911, Note_on_c, 0, 73, 0
2, 138912, Note_on_c, 0, 74, 127
2, 138912, Note_on_c, 0, 66, 127
2, 138912, Note_on_c, 0, 62, 127
2, 139007, Note_on_c, 0, 66, 0
2, 139008, Note_on_c, 0, 69, 127
2, 139103, Note_on_c, 0, 69, 0
2, 139103, Note_on_c, 0, 62, 0
2, 139103, Note_on_c, 0, 74, 0
2, 139104, Note_on_c, 0, 76, 127
2, 139104, Note_on_c, 0, 67, 127
2, 139104, Note_on_c, 0, 62, 127
2, 139199, Note_on_c, 0, 67, 0
2, 139200, Note_on_c, 0, 69, 127
2, 139295, Note_on_c, 0, 69, 0
2, 139296, Note_on_c, 0, 67, 127
2, 139391, Note_on_c, 0, 67, 0
2, 139391, Note_on_c, 0, 76, 0
2, 139392, Note_on_c, 0, 78, 127
2, 139392, Note_on_c, 0, 66, 127
2, 139487, Note_on_c, 0, 66, 0
2, 139487, Note_on_c, 0, 78, 0
2, 139487, Note_on_c, 0, 62, 0
2, 139488, Note_on_c, 0, 79, 127
2, 139488, Note_on_c, 0, 64, 127
2, 139488, Note_on_c, 0, 61, 127
2, 139583, Note_on_c, 0, 64, 0
2, 139584, Note_on_c, 0, 67, 127
2, 139679, Note_on_c, 0, 67, 0
2, 139679, Note_on_c, 0, 61, 0
2, 139679, Note_on_c, 0, 79, 0
2, 139680, Note_on_c, 0, 78, 127
2, 139680, Note_on_c, 0, 66, 127
2, 139680, Note_on_c, 0, 62, 127
2, 139775, Note_on_c, 0, 62, 0
2, 139776, Note_on_c, 0, 64, 127
2, 139871, Note_on_c, 0, 64, 0
2, 139872, Note_on_c, 0, 62, 127
2, 139967, Note_on_c, 0, 62, 0
2, 139968, Note_on_c, 0, 60, 127
2, 140063, Note_on_c, 0, 60, 0
2, 140063, Note_on_c, 0, 66, 0
2, 140063, Note_on_c, 0, 78, 0
2, 140064, Note_on_c, 0, 74, 127
2, 140064, Note_on_c, 0, 66, 127
2, 140064, Note_on_c, 0, 59, 127
2, 140159, Note_on_c, 0, 59, 0
2, 140160, Note_on_c, 0, 57, 127
2, 140255, Note_on_c, 0, 57, 0
2, 140255, Note_on_c, 0, 66, 0
2, 140255, Note_on_c, 0, 74, 0
2, 140256, Note_on_c, 0, 71, 127
2, 140256, Note_on_c, 0, 67, 127
2, 140256, Note_on_c, 0, 55, 127
2, 140351, Note_on_c, 0, 55, 0
2, 140352, Note_on_c, 0, 60, 127
2, 140447, Note_on_c, 0, 60, 0
2, 140448, Note_on_c, 0, 59, 127
2, 140543, Note_on_c, 0, 59, 0
2, 140543, Note_on_c, 0, 67, 0
2, 140543, Note_on_c, 0, 71, 0
2, 140544, Note_on_c, 0, 72, 127
2, 140544, Note_on_c, 0, 69, 127
2, 140544, Note_on_c, 0, 57, 127
2, 140639, Note_on_c, 0, 57, 0
2, 140639, Note_on_c, 0, 69, 0
2, 140639, Note_on_c, 0, 72, 0
2, 140640, Note_on_c, 0, 74, 127
2, 140640, Note_on_c, 0, 71, 127
2, 140640, Note_on_c, 0, 55, 127
2, 140735, Note_on_c, 0, 55, 0
2, 140736, Note_on_c, 0, 54, 127
2, 140831, Note_on_c, 0, 54, 0
2, 140831, Note_on_c, 0, 71, 0
2, 140831, Note_on_c, 0, 74, 0
2, 140832, Note_on_c, 0, 67, 127
2, 140832, Note_on_c, 0, 64, 127
2, 140832, Note_on_c, 0, 52, 127
2, 140927, Note_on_c, 0, 64, 0
2, 140927, Note_on_c, 0, 67, 0
2, 140928, Note_on_c, 0, 67, 127
2, 141023, Note_on_c, 0, 67, 0
2, 141024, Note_on_c, 0, 66, 127
2, 141119, Note_on_c, 0, 66, 0
2, 141120, Note_on_c, 0, 64, 127
2, 141215, Note_on_c, 0, 64, 0
2, 141215, Note_on_c, 0, 52, 0
2, 141216, Note_on_c, 0, 62, 127
2, 141216, Note_on_c, 0, 54, 127
2, 141311, Note_on_c, 0, 62, 0
2, 141312, Note_on_c, 0, 60, 127
2, 141407, Note_on_c, 0, 60, 0
2, 141407, Note_on_c, 0, 54, 0
2, 141408, Note_on_c, 0, 59, 127
2, 141408, Note_on_c, 0, 55, 127
2, 141504, Note_on_c, 0, 79, 127
2, 141599, Note_on_c, 0, 79, 0
2, 141600, Note_on_c, 0, 78, 127
2, 141695, Note_on_c, 0, 78, 0
2, 141696, Note_on_c, 0, 76, 127
2, 141791, Note_on_c, 0, 76, 0
2, 141791, Note_on_c, 0, 59, 0
2, 141792, Note_on_c, 0, 74, 127
2, 141792, Note_on_c, 0, 60, 127
2, 141887, Note_on_c, 0, 74, 0
2, 141888, Note_on_c, 0, 72, 127
2, 141983, Note_on_c, 0, 72, 0
2, 141983, Note_on_c, 0, 60, 0
2, 141984, Note_on_c, 0, 71, 127
2, 141984, Note_on_c, 0, 62, 127
2, 142079, Note_on_c, 0, 55, 0
2, 142080, Note_on_c, 0, 57, 127
2, 142175, Note_on_c, 0, 57, 0
2, 142176, Note_on_c, 0, 55, 127
2, 142271, Note_on_c, 0, 55, 0
2, 142272, Note_on_c, 0, 54, 127
2, 142367, Note_on_c, 0, 54, 0
2, 142367, Note_on_c, 0, 62, 0
2, 142367, Note_on_c, 0, 71, 0
2, 142368, Note_on_c, 0, 71, 127
2, 142368, Note_on_c, 0, 67, 127
2, 142368, Note_on_c, 0, 52, 127
2, 142463, Note_on_c, 0, 52, 0
2, 142464, Note_on_c, 0, 50, 127
2, 142559, Note_on_c, 0, 50, 0
2, 142559, Note_on_c, 0, 67, 0
2, 142560, Note_on_c, 0, 64, 127
2, 142560, Note_on_c, 0, 49, 127
2, 142655, Note_on_c, 0, 71, 0
2, 142656, Note_on_c, 0, 71, 127
2, 142751, Note_on_c, 0, 71, 0
2, 142752, Note_on_c, 0, 69, 127
2, 142847, Note_on_c, 0, 69, 0
2, 142848, Note_on_c, 0, 67, 127
2, 142943, Note_on_c, 0, 67, 0
2, 142943, Note_on_c, 0, 49, 0
2, 142943, Note_on_c, 0, 64, 0
2, 142944, Note_on_c, 0, 66, 127
2, 142944, Note_on_c, 0, 57, 127
2, 142944, Note_on_c, 0, 49, 127
2, 143039, Note_on_c, 0, 66, 0
2, 143040, Note_on_c, 0, 64, 127
2, 143135, Note_on_c, 0, 64, 0
2, 143135, Note_on_c, 0, 49, 0
2, 143136, Note_on_c, 0, 66, 127
2, 143136, Note_on_c, 0, 50, 127
2, 143231, Note_on_c, 0, 57, 0
2, 143232, Note_on_c, 0, 64, 127
2, 143327, Note_on_c, 0, 64, 0
2, 143328, Note_on_c, 0, 62, 127
2, 143423, Note_on_c, 0, 62, 0
2, 143424, Note_on_c, 0, 60, 127
2, 143519, Note_on_c, 0, 60, 0
2, 143519, Note_on_c, 0, 50, 0
2, 143519, Note_on_c, 0, 66, 0
2, 143520, Note_on_c, 0, 78, 127
2, 143520, Note_on_c, 0, 59, 127
2, 143520, Note_on_c, 0, 50, 127
2, 143615, Note_on_c, 0, 59, 0
2, 143616, Note_on_c, 0, 57, 127
2, 143711, Note_on_c, 0, 57, 0
2, 143711, Note_on_c, 0, 50, 0
2, 143711, Note_on_c, 0, 78, 0
2, 143712, Note_on_c, 0, 71, 127
2, 143712, Note_on_c, 0, 55, 127
2, 143712, Note_on_c, 0, 52, 127
2, 143807, Note_on_c, 0, 71, 0
2, 143808, Note_on_c, 0, 81, 127
2, 143903, Note_on_c, 0, 81, 0
2, 143903, Note_on_c, 0, 52, 0
2, 143903, Note_on_c, 0, 55, 0
2, 143904, Note_on_c, 0, 79, 127
2, 143904, Note_on_c, 0, 57, 127
2, 143904, Note_on_c, 0, 54, 127
2, 143999, Note_on_c, 0, 79, 0
2, 144000, Note_on_c, 0, 78, 127
2, 144095, Note_on_c, 0, 78, 0
2, 144095, Note_on_c, 0, 54, 0
2, 144095, Note_on_c, 0, 57, 0
2, 144096, Note_on_c, 0, 76, 127
2, 144096, Note_on_c, 0, 59, 127
2, 144096, Note_on_c, 0, 55, 127
2, 144191, Note_on_c, 0, 76, 0
2, 144192, Note_on_c, 0, 74, 127
2, 144287, Note_on_c, 0, 74, 0
2, 144287, Note_on_c, 0, 55, 0
2, 144287, Note_on_c, 0, 59, 0
2, 144288, Note_on_c, 0, 73, 127
2, 144288, Note_on_c, 0, 57, 127
2, 144383, Note_on_c, 0, 73, 0
2, 144384, Note_on_c, 0, 69, 127
2, 144479, Note_on_c, 0, 69, 0
2, 144480, Note_on_c, 0, 73, 127
2, 144575, Note_on_c, 0, 73, 0
2, 144575, Note_on_c, 0, 57, 0
2, 144576, Note_on_c, 0, 76, 127
2, 144576, Note_on_c, 0, 59, 127
2, 144671, Note_on_c, 0, 59, 0
2, 144671, Note_on_c, 0, 76, 0
2, 144672, Note_on_c, 0, 81, 127
2, 144672, Note_on_c, 0, 61, 127
2, 144767, Note_on_c, 0, 81, 0
2, 144768, Note_on_c, 0, 79, 127
2, 144863, Note_on_c, 0, 79, 0
2, 144863, Note_on_c, 0, 61, 0
2, 144864, Note_on_c, 0, 78, 127
2, 144864, Note_on_c, 0, 62, 127
2, 145151, Note_on_c, 0, 78, 0
2, 145152, Note_on_c, 0, 79, 127
2, 145247, Note_on_c, 0, 79, 0
2, 145248, Note_on_c, 0, 81, 127
2, 145248, Note_on_c, 0, 69, 127
2, 145439, Note_on_c, 0, 69, 0
2, 145439, Note_on_c, 0, 81, 0
2, 145439, Note_on_c, 0, 62, 0
2, 145440, Note_on_c, 0, 74, 127
2, 145440, Note_on_c, 0, 66, 127
2, 145727, Note_on_c, 0, 66, 0
2, 145728, Note_on_c, 0, 67, 127
2, 145823, Note_on_c, 0, 67, 0
2, 145823, Note_on_c, 0, 74, 0
2, 145824, Note_on_c, 0, 73, 127
2, 145824, Note_on_c, 0, 69, 127
2, 145824, Note_on_c, 0, 57, 127
2, 146015, Note_on_c, 0, 57, 0
2, 146015, Note_on_c, 0, 69, 0
2, 146015, Note_on_c, 0, 73, 0
2, 146016, Note_on_c, 0, 74, 127
2, 146016, Note_on_c, 0, 62, 127
2, 146016, Note_on_c, 0, 54, 127
2, 146111, Note_on_c, 0, 74, 0
2, 146112, Note_on_c, 0, 71, 127
2, 146207, Note_on_c, 0, 71, 0
2, 146208, Note_on_c, 0, 69, 127
2, 146303, Note_on_c, 0, 69, 0
2, 146303, Note_on_c, 0, 54, 0
2, 146304, Note_on_c, 0, 67, 127
2, 146304, Note_on_c, 0, 55, 127
2, 146399, Note_on_c, 0, 55, 0
2, 146399, Note_on_c, 0, 67, 0
2, 146399, Note_on_c, 0, 62, 0
2, 146400, Note_on_c, 0, 66, 127
2, 146400, Note_on_c, 0, 61, 127
2, 146400, Note_on_c, 0, 57, 127
2, 146495, Note_on_c, 0, 66, 0
2, 146496, Note_on_c, 0, 64, 127
2, 146591, Note_on_c, 0, 64, 0
2, 146591, Note_on_c, 0, 57, 0
2, 146591, Note_on_c, 0, 61, 0
2, 146592, Note_on_c, 0, 66, 127
2, 146592, Note_on_c, 0, 62, 127
2, 146592, Note_on_c, 0, 50, 127
2, 146687, Note_on_c, 0, 62, 0
2, 146688, Note_on_c, 0, 59, 127
2, 146782, Note_on_c, 0, 66, 0
2, 146783, Note_on_c, 0, 59, 0
2, 146784, Note_on_c, 0, 57, 127
2, 146879, Note_on_c, 0, 57, 0
2, 146880, Note_on_c, 0, 55, 127
2, 146975, Note_on_c, 0, 55, 0
2, 146975, Note_on_c, 0, 50, 0
2, 146976, Note_on_c, 0, 54, 127
2, 146976, Note_on_c, 0, 45, 127
2, 147071, Note_on_c, 0, 54, 0
2, 147072, Note_on_c, 0, 52, 127
2, 147167, Note_on_c, 0, 52, 0
2, 147167, Note_on_c, 0, 45, 0
2, 147168, Note_on_c, 0, 50, 127
2, 147168, Note_on_c, 0, 47, 127
2, 147263, Note_on_c, 0, 47, 0
2, 147264, Note_on_c, 0, 43, 127
2, 147359, Note_on_c, 0, 43, 0
2, 147359, Note_on_c, 0, 50, 0
2, 147360, Note_on_c, 0, 55, 127
2, 147360, Note_on_c, 0, 47, 127
2, 147455, Note_on_c, 0, 47, 0
2, 147455, Note_on_c, 0, 55, 0
2, 147456, Note_on_c, 0, 57, 127
2, 147456, Note_on_c, 0, 50, 127
2, 147551, Note_on_c, 0, 50, 0
2, 147551, Note_on_c, 0, 57, 0
2, 147552, Note_on_c, 0, 59, 127
2, 147552, Note_on_c, 0, 55, 127
2, 147647, Note_on_c, 0, 55, 0
2, 147648, Note_on_c, 0, 50, 127
2, 147743, Note_on_c, 0, 50, 0
2, 147743, Note_on_c, 0, 59, 0
2, 147744, Note_on_c, 0, 60, 127
2, 147744, Note_on_c, 0, 52, 127
2, 147839, Note_on_c, 0, 60, 0
2, 147840, Note_on_c, 0, 64, 127
2, 147935, Note_on_c, 0, 64, 0
2, 147935, Note_on_c, 0, 52, 0
2, 147936, Note_on_c, 0, 62, 127
2, 147936, Note_on_c, 0, 48, 127
2, 148031, Note_on_c, 0, 62, 0
2, 148032, Note_on_c, 0, 60, 127
2, 148127, Note_on_c, 0, 60, 0
2, 148127, Note_on_c, 0, 48, 0
2, 148128, Note_on_c, 0, 59, 127
2, 148128, Note_on_c, 0, 55, 127
2, 148223, Note_on_c, 0, 59, 0
2, 148224, Note_on_c, 0, 62, 127
2, 148319, Note_on_c, 0, 62, 0
2, 148320, Note_on_c, 0, 57, 127
2, 148415, Note_on_c, 0, 55, 0
2, 148416, Note_on_c, 0, 55, 127
2, 148511, Note_on_c, 0, 55, 0
2, 148512, Note_on_c, 0, 54, 127
2, 148607, Note_on_c, 0, 54, 0
2, 148608, Note_on_c, 0, 52, 127
2, 148700, Note_on_c, 0, 57, 0
2, 148703, Note_on_c, 0, 52, 0
2, 148704, Note_on_c, 0, 74, 127
2, 148704, Note_on_c, 0, 54, 127
2, 148799, Note_on_c, 0, 54, 0
2, 148800, Note_on_c, 0, 50, 127
2, 148895, Note_on_c, 0, 50, 0
2, 148895, Note_on_c, 0, 74, 0
2, 148896, Note_on_c, 0, 71, 127
2, 148896, Note_on_c, 0, 55, 127
2, 148991, Note_on_c, 0, 55, 0
2, 148992, Note_on_c, 0, 64, 127
2, 149087, Note_on_c, 0, 64, 0
2, 149088, Note_on_c, 0, 62, 127
2, 149183, Note_on_c, 0, 62, 0
2, 149183, Note_on_c, 0, 71, 0
2, 149184, Note_on_c, 0, 72, 127
2, 149184, Note_on_c, 0, 60, 127
2, 149279, Note_on_c, 0, 60, 0
2, 149279, Note_on_c, 0, 72, 0
2, 149280, Note_on_c, 0, 74, 127
2, 149280, Note_on_c, 0, 59, 127
2, 149375, Note_on_c, 0, 59, 0
2, 149376, Note_on_c, 0, 57, 127
2, 149471, Note_on_c, 0, 57, 0
2, 149471, Note_on_c, 0, 74, 0
2, 149472, Note_on_c, 0, 67, 127
2, 149472, Note_on_c, 0, 59, 127
2, 149567, Note_on_c, 0, 59, 0
2, 149567, Note_on_c, 0, 67, 0
2, 149568, Note_on_c, 0, 79, 127
2, 149568, Note_on_c, 0, 64, 127
2, 149663, Note_on_c, 0, 64, 0
2, 149663, Note_on_c, 0, 79, 0
2, 149664, Note_on_c, 0, 78, 127
2, 149664, Note_on_c, 0, 62, 127
2, 149759, Note_on_c, 0, 62, 0
2, 149759, Note_on_c, 0, 78, 0
2, 149760, Note_on_c, 0, 76, 127
2, 149760, Note_on_c, 0, 60, 127
2, 149855, Note_on_c, 0, 60, 0
2, 149855, Note_on_c, 0, 76, 0
2, 149856, Note_on_c, 0, 74, 127
2, 149856, Note_on_c, 0, 59, 127
2, 149951, Note_on_c, 0, 59, 0
2, 149951, Note_on_c, 0, 74, 0
2, 149952, Note_on_c, 0, 72, 127
2, 149952, Note_on_c, 0, 57, 127
2, 150047, Note_on_c, 0, 57, 0
2, 150047, Note_on_c, 0, 72, 0
2, 150048, Note_on_c, 0, 71, 127
2, 150048, Note_on_c, 0, 55, 127
2, 150143, Note_on_c, 0, 71, 0
2, 150144, Note_on_c, 0, 76, 127
2, 150239, Note_on_c, 0, 76, 0
2, 150240, Note_on_c, 0, 74, 127
2, 150335, Note_on_c, 0, 74, 0
2, 150336, Note_on_c, 0, 72, 127
2, 150431, Note_on_c, 0, 72, 0
2, 150431, Note_on_c, 0, 55, 0
2, 150432, Note_on_c, 0, 71, 127
2, 150432, Note_on_c, 0, 50, 127
2, 150527, Note_on_c, 0, 71, 0
2, 150528, Note_on_c, 0, 69, 127
2, 150623, Note_on_c, 0, 69, 0
2, 150623, Note_on_c, 0, 50, 0
2, 150624, Note_on_c, 0, 67, 127
2, 150624, Note_on_c, 0, 47, 127
2, 150719, Note_on_c, 0, 47, 0
2, 150720, Note_on_c, 0, 52, 127
2, 150815, Note_on_c, 0, 52, 0
2, 150816, Note_on_c, 0, 50, 127
2, 150911, Note_on_c, 0, 50, 0
2, 150912, Note_on_c, 0, 48, 127
2, 151007, Note_on_c, 0, 48, 0
2, 151007, Note_on_c, 0, 67, 0
2, 151008, Note_on_c, 0, 69, 127
2, 151008, Note_on_c, 0, 47, 127
2, 151103, Note_on_c, 0, 47, 0
2, 151104, Note_on_c, 0, 45, 127
2, 151199, Note_on_c, 0, 45, 0
2, 151199, Note_on_c, 0, 69, 0
2, 151200, Note_on_c, 0, 71, 127
2, 151200, Note_on_c, 0, 43, 127
2, 151295, Note_on_c, 0, 71, 0
2, 151296, Note_on_c, 0, 67, 127
2, 151391, Note_on_c, 0, 67, 0
2, 151391, Note_on_c, 0, 43, 0
2, 151392, Note_on_c, 0, 71, 127
2, 151392, Note_on_c, 0, 55, 127
2, 151487, Note_on_c, 0, 71, 0
2, 151488, Note_on_c, 0, 74, 127
2, 151583, Note_on_c, 0, 74, 0
2, 151583, Note_on_c, 0, 55, 0
2, 151584, Note_on_c, 0, 79, 127
2, 151584, Note_on_c, 0, 52, 127
2, 151679, Note_on_c, 0, 79, 0
2, 151680, Note_on_c, 0, 71, 127
2, 151775, Note_on_c, 0, 71, 0
2, 151775, Note_on_c, 0, 52, 0
2, 151776, Note_on_c, 0, 73, 127
2, 151776, Note_on_c, 0, 45, 127
2, 151871, Note_on_c, 0, 45, 0
2, 151872, Note_on_c, 0, 59, 127
2, 151967, Note_on_c, 0, 59, 0
2, 151967, Note_on_c, 0, 73, 0
2, 151968, Note_on_c, 0, 69, 127
2, 151968, Note_on_c, 0, 57, 127
2, 152063, Note_on_c, 0, 57, 0
2, 152064, Note_on_c, 0, 55, 127
2, 152159, Note_on_c, 0, 55, 0
2, 152159, Note_on_c, 0, 69, 0
2, 152160, Note_on_c, 0, 74, 127
2, 152160, Note_on_c, 0, 69, 127
2, 152160, Note_on_c, 0, 54, 127
2, 152255, Note_on_c, 0, 54, 0
2, 152256, Note_on_c, 0, 52, 127
2, 152351, Note_on_c, 0, 52, 0
2, 152351, Note_on_c, 0, 69, 0
2, 152351, Note_on_c, 0, 74, 0
2, 152352, Note_on_c, 0, 74, 127
2, 152352, Note_on_c, 0, 66, 127
2, 152352, Note_on_c, 0, 50, 127
2, 152447, Note_on_c, 0, 50, 0
2, 152448, Note_on_c, 0, 55, 127
2, 152543, Note_on_c, 0, 55, 0
2, 152544, Note_on_c, 0, 57, 127
2, 152639, Note_on_c, 0, 66, 0
2, 152640, Note_on_c, 0, 67, 127
2, 152735, Note_on_c, 0, 67, 0
2, 152735, Note_on_c, 0, 57, 0
2, 152735, Note_on_c, 0, 74, 0
2, 152736, Note_on_c, 0, 73, 127
2, 152736, Note_on_c, 0, 69, 127
2, 152736, Note_on_c, 0, 45, 127
2, 152927, Note_on_c, 0, 45, 0
2, 152927, Note_on_c, 0, 69, 0
2, 152927, Note_on_c, 0, 73, 0
2, 152928, Note_on_c, 0, 74, 127
2, 152928, Note_on_c, 0, 62, 127
2, 152928, Note_on_c, 0, 47, 127
2, 153018, Note_on_c, 0, 74, 0
2, 153023, Note_on_c, 0, 62, 0
2, 153024, Note_on_c, 0, 74, 127
2, 153119, Note_on_c, 0, 47, 0
2, 153120, Note_on_c, 0, 73, 127
2, 153120, Note_on_c, 0, 59, 127
2, 153215, Note_on_c, 0, 73, 0
2, 153216, Note_on_c, 0, 71, 127
2, 153304, Note_on_c, 0, 74, 0
2, 153311, Note_on_c, 0, 71, 0
2, 153311, Note_on_c, 0, 59, 0
2, 153312, Note_on_c, 0, 76, 127
2, 153312, Note_on_c, 0, 69, 127
2, 153312, Note_on_c, 0, 61, 127
2, 153407, Note_on_c, 0, 69, 0
2, 153408, Note_on_c, 0, 67, 127
2, 153503, Note_on_c, 0, 67, 0
2, 153503, Note_on_c, 0, 61, 0
2, 153503, Note_on_c, 0, 76, 0
2, 153504, Note_on_c, 0, 74, 127
2, 153504, Note_on_c, 0, 66, 127
2, 153504, Note_on_c, 0, 62, 127
2, 153599, Note_on_c, 0, 66, 0
2, 153599, Note_on_c, 0, 74, 0
2, 153600, Note_on_c, 0, 79, 127
2, 153600, Note_on_c, 0, 71, 127
2, 153695, Note_on_c, 0, 71, 0
2, 153695, Note_on_c, 0, 79, 0
2, 153696, Note_on_c, 0, 78, 127
2, 153696, Note_on_c, 0, 69, 127
2, 153791, Note_on_c, 0, 69, 0
2, 153791, Note_on_c, 0, 78, 0
2, 153792, Note_on_c, 0, 76, 127
2, 153792, Note_on_c, 0, 67, 127
2, 153887, Note_on_c, 0, 67, 0
2, 153887, Note_on_c, 0, 76, 0
2, 153887, Note_on_c, 0, 62, 0
2, 153888, Note_on_c, 0, 74, 127
2, 153888, Note_on_c, 0, 66, 127
2, 153888, Note_on_c, 0, 62, 127
2, 153983, Note_on_c, 0, 66, 0
2, 153983, Note_on_c, 0, 74, 0
2, 153984, Note_on_c, 0, 72, 127
2, 153984, Note_on_c, 0, 64, 127
2, 154079, Note_on_c, 0, 64, 0
2, 154079, Note_on_c, 0, 72, 0
2, 154079, Note_on_c, 0, 62, 0
2, 154080, Note_on_c, 0, 71, 127
2, 154080, Note_on_c, 0, 62, 127
2, 154080, Note_on_c, 0, 55, 127
2, 154175, Note_on_c, 0, 71, 0
2, 154176, Note_on_c, 0, 76, 127
2, 154271, Note_on_c, 0, 76, 0
2, 154272, Note_on_c, 0, 74, 127
2, 154367, Note_on_c, 0, 74, 0
2, 154367, Note_on_c, 0, 55, 0
2, 154368, Note_on_c, 0, 72, 127
2, 154368, Note_on_c, 0, 57, 127
2, 154463, Note_on_c, 0, 57, 0
2, 154463, Note_on_c, 0, 72, 0
2, 154463, Note_on_c, 0, 62, 0
2, 154464, Note_on_c, 0, 71, 127
2, 154464, Note_on_c, 0, 62, 127
2, 154464, Note_on_c, 0, 59, 127
2, 154559, Note_on_c, 0, 71, 0
2, 154560, Note_on_c, 0, 69, 127
2, 154655, Note_on_c, 0, 69, 0
2, 154655, Note_on_c, 0, 59, 0
2, 154655, Note_on_c, 0, 62, 0
2, 154656, Note_on_c, 0, 67, 127
2, 154656, Note_on_c, 0, 64, 127
2, 154656, Note_on_c, 0, 60, 127
2, 154746, Note_on_c, 0, 60, 0
2, 154751, Note_on_c, 0, 64, 0
2, 154752, Note_on_c, 0, 60, 127
2, 154846, Note_on_c, 0, 67, 0
2, 154848, Note_on_c, 0, 64, 127
2, 154943, Note_on_c, 0, 64, 0
2, 154944, Note_on_c, 0, 67, 127
2, 155032, Note_on_c, 0, 60, 0
2, 155039, Note_on_c, 0, 67, 0
2, 155040, Note_on_c, 0, 72, 127
2, 155040, Note_on_c, 0, 57, 127
2, 155135, Note_on_c, 0, 72, 0
2, 155136, Note_on_c, 0, 64, 127
2, 155231, Note_on_c, 0, 64, 0
2, 155231, Note_on_c, 0, 57, 0
2, 155232, Note_on_c, 0, 66, 127
2, 155232, Note_on_c, 0, 50, 127
2, 155327, Note_on_c, 0, 50, 0
2, 155328, Note_on_c, 0, 64, 127
2, 155423, Note_on_c, 0, 64, 0
2, 155423, Note_on_c, 0, 66, 0
2, 155424, Note_on_c, 0, 62, 127
2, 155520, Note_on_c, 0, 60, 127
2, 155615, Note_on_c, 0, 60, 0
2, 155615, Note_on_c, 0, 62, 0
2, 155616, Note_on_c, 0, 74, 127
2, 155616, Note_on_c, 0, 67, 127
2, 155616, Note_on_c, 0, 59, 127
2, 155711, Note_on_c, 0, 59, 0
2, 155712, Note_on_c, 0, 60, 127
2, 155807, Note_on_c, 0, 60, 0
2, 155807, Note_on_c, 0, 67, 0
2, 155807, Note_on_c, 0, 74, 0
2, 155808, Note_on_c, 0, 72, 127
2, 155808, Note_on_c, 0, 67, 127
2, 155808, Note_on_c, 0, 57, 127
2, 155903, Note_on_c, 0, 72, 0
2, 155904, Note_on_c, 0, 69, 127
2, 155999, Note_on_c, 0, 69, 0
2, 156000, Note_on_c, 0, 72, 127
2, 156095, Note_on_c, 0, 72, 0
2, 156096, Note_on_c, 0, 76, 127
2, 156191, Note_on_c, 0, 76, 0
2, 156191, Note_on_c, 0, 57, 0
2, 156191, Note_on_c, 0, 67, 0
2, 156192, Note_on_c, 0, 81, 127
2, 156192, Note_on_c, 0, 66, 127
2, 156192, Note_on_c, 0, 57, 127
2, 156287, Note_on_c, 0, 81, 0
2, 156288, Note_on_c, 0, 72, 127
2, 156383, Note_on_c, 0, 72, 0
2, 156383, Note_on_c, 0, 57, 0
2, 156383, Note_on_c, 0, 66, 0
2, 156384, Note_on_c, 0, 71, 127
2, 156384, Note_on_c, 0, 67, 127
2, 156384, Note_on_c, 0, 55, 127
2, 156474, Note_on_c, 0, 67, 0
2, 156479, Note_on_c, 0, 71, 0
2, 156480, Note_on_c, 0, 67, 127
2, 156576, Note_on_c, 0, 71, 127
2, 156670, Note_on_c, 0, 67, 0
2, 156671, Note_on_c, 0, 71, 0
2, 156672, Note_on_c, 0, 74, 127
2, 156672, Note_on_c, 0, 66, 127
2, 156764, Note_on_c, 0, 55, 0
2, 156767, Note_on_c, 0, 66, 0
2, 156767, Note_on_c, 0, 74, 0
2, 156768, Note_on_c, 0, 79, 127
2, 156768, Note_on_c, 0, 64, 127
2, 156863, Note_on_c, 0, 79, 0
2, 156864, Note_on_c, 0, 71, 127
2, 156959, Note_on_c, 0, 71, 0
2, 156959, Note_on_c, 0, 64, 0
2, 156960, Note_on_c, 0, 69, 127
2, 156960, Note_on_c, 0, 66, 127
2, 157055, Note_on_c, 0, 69, 0
2, 157056, Note_on_c, 0, 76, 127
2, 157151, Note_on_c, 0, 76, 0
2, 157152, Note_on_c, 0, 74, 127
2, 157247, Note_on_c, 0, 74, 0
2, 157247, Note_on_c, 0, 66, 0
2, 157248, Note_on_c, 0, 73, 127
2, 157248, Note_on_c, 0, 64, 127
2, 157343, Note_on_c, 0, 64, 0
2, 157343, Note_on_c, 0, 73, 0
2, 157344, Note_on_c, 0, 71, 127
2, 157344, Note_on_c, 0, 62, 127
2, 157439, Note_on_c, 0, 71, 0
2, 157440, Note_on_c, 0, 69, 127
2, 157535, Note_on_c, 0, 69, 0
2, 157535, Note_on_c, 0, 62, 0
2, 157536, Note_on_c, 0, 67, 127
2, 157536, Note_on_c, 0, 64, 127
2, 157631, Note_on_c, 0, 67, 0
2, 157632, Note_on_c, 0, 71, 127
2, 157727, Note_on_c, 0, 71, 0
2, 157727, Note_on_c, 0, 64, 0
2, 157728, Note_on_c, 0, 69, 127
2, 157728, Note_on_c, 0, 61, 127
2, 157823, Note_on_c, 0, 69, 0
2, 157824, Note_on_c, 0, 67, 127
2, 157919, Note_on_c, 0, 67, 0
2, 157919, Note_on_c, 0, 61, 0
2, 157920, Note_on_c, 0, 66, 127
2, 157920, Note_on_c, 0, 57, 127
2, 158015, Note_on_c, 0, 66, 0
2, 158016, Note_on_c, 0, 64, 127
2, 158111, Note_on_c, 0, 64, 0
2, 158111, Note_on_c, 0, 57, 0
2, 158112, Note_on_c, 0, 66, 127
2, 158112, Note_on_c, 0, 62, 127
2, 158202, Note_on_c, 0, 62, 0
2, 158207, Note_on_c, 0, 66, 0
2, 158208, Note_on_c, 0, 62, 127
2, 158304, Note_on_c, 0, 66, 127
2, 158399, Note_on_c, 0, 66, 0
2, 158400, Note_on_c, 0, 69, 127
2, 158488, Note_on_c, 0, 62, 0
2, 158495, Note_on_c, 0, 69, 0
2, 158496, Note_on_c, 0, 74, 127
2, 158496, Note_on_c, 0, 62, 127
2, 158496, Note_on_c, 0, 50, 127
2, 158591, Note_on_c, 0, 74, 0
2, 158592, Note_on_c, 0, 66, 127
2, 158687, Note_on_c, 0, 66, 0
2, 158687, Note_on_c, 0, 50, 0
2, 158687, Note_on_c, 0, 62, 0
2, 158688, Note_on_c, 0, 67, 127
2, 158688, Note_on_c, 0, 62, 127
2, 158688, Note_on_c, 0, 47, 127
2, 158783, Note_on_c, 0, 67, 0
2, 158784, Note_on_c, 0, 69, 127
2, 158879, Note_on_c, 0, 69, 0
2, 158879, Note_on_c, 0, 62, 0
2, 158880, Note_on_c, 0, 71, 127
2, 158880, Note_on_c, 0, 67, 127
2, 158975, Note_on_c, 0, 47, 0
2, 158976, Note_on_c, 0, 48, 127
2, 159071, Note_on_c, 0, 48, 0
2, 159072, Note_on_c, 0, 50, 127
2, 159167, Note_on_c, 0, 67, 0
2, 159167, Note_on_c, 0, 71, 0
2, 159168, Note_on_c, 0, 69, 127
2, 159168, Note_on_c, 0, 66, 127
2, 159263, Note_on_c, 0, 66, 0
2, 159263, Note_on_c, 0, 69, 0
2, 159263, Note_on_c, 0, 50, 0
2, 159264, Note_on_c, 0, 71, 127
2, 159264, Note_on_c, 0, 67, 127
2, 159264, Note_on_c, 0, 43, 127
2, 159359, Note_on_c, 0, 43, 0
2, 159360, Note_on_c, 0, 55, 127
2, 159454, Note_on_c, 0, 71, 0
2, 159455, Note_on_c, 0, 55, 0
2, 159455, Note_on_c, 0, 67, 0
2, 159456, Note_on_c, 0, 59, 127
2, 159456, Note_on_c, 0, 54, 127
2, 159551, Note_on_c, 0, 54, 0
2, 159552, Note_on_c, 0, 52, 127
2, 159647, Note_on_c, 0, 52, 0
2, 159647, Note_on_c, 0, 59, 0
2, 159648, Note_on_c, 0, 60, 127
2, 159648, Note_on_c, 0, 50, 127
2, 159743, Note_on_c, 0, 50, 0
2, 159744, Note_on_c, 0, 48, 127
2, 159839, Note_on_c, 0, 48, 0
2, 159839, Note_on_c, 0, 60, 0
2, 159840, Note_on_c, 0, 62, 127
2, 159840, Note_on_c, 0, 47, 127
2, 159935, Note_on_c, 0, 47, 0
2, 159935, Note_on_c, 0, 62, 0
2, 159936, Note_on_c, 0, 67, 127
2, 159936, Note_on_c, 0, 52, 127
2, 160031, Note_on_c, 0, 52, 0
2, 160031, Note_on_c, 0, 67, 0
2, 160032, Note_on_c, 0, 66, 127
2, 160032, Note_on_c, 0, 50, 127
2, 160127, Note_on_c, 0, 50, 0
2, 160127, Note_on_c, 0, 66, 0
2, 160128, Note_on_c, 0, 64, 127
2, 160128, Note_on_c, 0, 48, 127
2, 160223, Note_on_c, 0, 48, 0
2, 160223, Note_on_c, 0, 64, 0
2, 160224, Note_on_c, 0, 62, 127
2, 160224, Note_on_c, 0, 47, 127
2, 160319, Note_on_c, 0, 47, 0
2, 160319, Note_on_c, 0, 62, 0
2, 160320, Note_on_c, 0, 60, 127
2, 160320, Note_on_c, 0, 45, 127
2, 160415, Note_on_c, 0, 45, 0
2, 160415, Note_on_c, 0, 60, 0
2, 160416, Note_on_c, 0, 59, 127
2, 160416, Note_on_c, 0, 43, 127
2, 160511, Note_on_c, 0, 59, 0
2, 160512, Note_on_c, 0, 64, 127
2, 160607, Note_on_c, 0, 64, 0
2, 160608, Note_on_c, 0, 62, 127
2, 160703, Note_on_c, 0, 62, 0
2, 160704, Note_on_c, 0, 60, 127
2, 160799, Note_on_c, 0, 60, 0
2, 160799, Note_on_c, 0, 43, 0
2, 160800, Note_on_c, 0, 59, 127
2, 160800, Note_on_c, 0, 45, 127
2, 160895, Note_on_c, 0, 59, 0
2, 160896, Note_on_c, 0, 57, 127
2, 160991, Note_on_c, 0, 57, 0
2, 160991, Note_on_c, 0, 45, 0
2, 160992, Note_on_c, 0, 55, 127
2, 160992, Note_on_c, 0, 47, 127
2, 161087, Note_on_c, 0, 47, 0
2, 161088, Note_on_c, 0, 43, 127
2, 161183, Note_on_c, 0, 43, 0
2, 161184, Note_on_c, 0, 47, 127
2, 161279, Note_on_c, 0, 47, 0
2, 161279, Note_on_c, 0, 55, 0
2, 161280, Note_on_c, 0, 57, 127
2, 161280, Note_on_c, 0, 50, 127
2, 161375, Note_on_c, 0, 50, 0
2, 161375, Note_on_c, 0, 57, 0
2, 161376, Note_on_c, 0, 62, 127
2, 161376, Note_on_c, 0, 59, 127
2, 161376, Note_on_c, 0, 55, 127
2, 161471, Note_on_c, 0, 55, 0
2, 161472, Note_on_c, 0, 47, 127
2, 161567, Note_on_c, 0, 47, 0
2, 161567, Note_on_c, 0, 59, 0
2, 161567, Note_on_c, 0, 62, 0
2, 161568, Note_on_c, 0, 64, 127
2, 161568, Note_on_c, 0, 55, 127
2, 161568, Note_on_c, 0, 49, 127
2, 161663, Note_on_c, 0, 64, 0
2, 161664, Note_on_c, 0, 69, 127
2, 161759, Note_on_c, 0, 69, 0
2, 161759, Note_on_c, 0, 49, 0
2, 161760, Note_on_c, 0, 67, 127
2, 161760, Note_on_c, 0, 45, 127
2, 161855, Note_on_c, 0, 67, 0
2, 161856, Note_on_c, 0, 66, 127
2, 161951, Note_on_c, 0, 66, 0
2, 161951, Note_on_c, 0, 45, 0
2, 161951, Note_on_c, 0, 55, 0
2, 161952, Note_on_c, 0, 64, 127
2, 161952, Note_on_c, 0, 57, 127
2, 161952, Note_on_c, 0, 50, 127
2, 162047, Note_on_c, 0, 64, 0
2, 162048, Note_on_c, 0, 62, 127
2, 162143, Note_on_c, 0, 62, 0
2, 162143, Note_on_c, 0, 50, 0
2, 162143, Note_on_c, 0, 57, 0
2, 162144, Note_on_c, 0, 64, 127
2, 162144, Note_on_c, 0, 55, 127
2, 162144, Note_on_c, 0, 50, 127
2, 162239, Note_on_c, 0, 64, 0
2, 162240, Note_on_c, 0, 57, 127
2, 162335, Note_on_c, 0, 57, 0
2, 162336, Note_on_c, 0, 64, 127
2, 162431, Note_on_c, 0, 64, 0
2, 162431, Note_on_c, 0, 55, 0
2, 162432, Note_on_c, 0, 67, 127
2, 162432, Note_on_c, 0, 54, 127
2, 162527, Note_on_c, 0, 54, 0
2, 162527, Note_on_c, 0, 67, 0
2, 162527, Note_on_c, 0, 50, 0
2, 162528, Note_on_c, 0, 69, 127
2, 162528, Note_on_c, 0, 52, 127
2, 162528, Note_on_c, 0, 49, 127
2, 162623, Note_on_c, 0, 69, 0
2, 162624, Note_on_c, 0, 64, 127
2, 162719, Note_on_c, 0, 64, 0
2, 162719, Note_on_c, 0, 49, 0
2, 162719, Note_on_c, 0, 52, 0
2, 162720, Note_on_c, 0, 66, 127
2, 162720, Note_on_c, 0, 50, 127
2, 162816, Note_on_c, 0, 62, 127
2, 162910, Note_on_c, 0, 66, 0
2, 162911, Note_on_c, 0, 62, 0
2, 162912, Note_on_c, 0, 66, 127
2, 163007, Note_on_c, 0, 66, 0
2, 163007, Note_on_c, 0, 50, 0
2, 163008, Note_on_c, 0, 69, 127
2, 163008, Note_on_c, 0, 52, 127
2, 163103, Note_on_c, 0, 52, 0
2, 163103, Note_on_c, 0, 69, 0
2, 163104, Note_on_c, 0, 74, 127
2, 163104, Note_on_c, 0, 54, 127
2, 163199, Note_on_c, 0, 54, 0
2, 163200, Note_on_c, 0, 66, 127
2, 163200, Note_on_c, 0, 50, 127
2, 163295, Note_on_c, 0, 50, 0
2, 163295, Note_on_c, 0, 66, 0
2, 163295, Note_on_c, 0, 74, 0
2, 163296, Note_on_c, 0, 71, 127
2, 163296, Note_on_c, 0, 67, 127
2, 163296, Note_on_c, 0, 55, 127
2, 163486, Note_on_c, 0, 67, 0
2, 163487, Note_on_c, 0, 55, 0
2, 163488, Note_on_c, 0, 43, 127
2, 163583, Note_on_c, 0, 71, 0
2, 163584, Note_on_c, 0, 72, 127
2, 163678, Note_on_c, 0, 43, 0
2, 163679, Note_on_c, 0, 72, 0
2, 163680, Note_on_c, 0, 74, 127
2, 163680, Note_on_c, 0, 62, 127
2, 163871, Note_on_c, 0, 62, 0
2, 163871, Note_on_c, 0, 74, 0
2, 163872, Note_on_c, 0, 67, 127
2, 163872, Note_on_c, 0, 59, 127
2, 164159, Note_on_c, 0, 59, 0
2, 164160, Note_on_c, 0, 60, 127
2, 164255, Note_on_c, 0, 60, 0
2, 164255, Note_on_c, 0, 67, 0
2, 164256, Note_on_c, 0, 66, 127
2, 164256, Note_on_c, 0, 62, 127
2, 164256, Note_on_c, 0, 50, 127
2, 164447, Note_on_c, 0, 50, 0
2, 164447, Note_on_c, 0, 62, 0
2, 164447, Note_on_c, 0, 66, 0
2, 164448, Note_on_c, 0, 67, 127
2, 164448, Note_on_c, 0, 55, 127
2, 164448, Note_on_c, 0, 47, 127
2, 164543, Note_on_c, 0, 55, 0
2, 164544, Note_on_c, 0, 64, 127
2, 164638, Note_on_c, 0, 67, 0
2, 164639, Note_on_c, 0, 64, 0
2, 164640, Note_on_c, 0, 62, 127
2, 164735, Note_on_c, 0, 62, 0
2, 164735, Note_on_c, 0, 47, 0
2, 164736, Note_on_c, 0, 60, 127
2, 164736, Note_on_c, 0, 48, 127
2, 164831, Note_on_c, 0, 48, 0
2, 164831, Note_on_c, 0, 60, 0
2, 164832, Note_on_c, 0, 59, 127
2, 164832, Note_on_c, 0, 50, 127
2, 164927, Note_on_c, 0, 59, 0
2, 164928, Note_on_c, 0, 57, 127
2, 165023, Note_on_c, 0, 57, 0
2, 165023, Note_on_c, 0, 50, 0
2, 165024, Note_on_c, 0, 59, 127
2, 165024, Note_on_c, 0, 43, 127
2, 165119, Note_on_c, 0, 43, 0
2, 165120, Note_on_c, 0, 48, 127
2, 165215, Note_on_c, 0, 48, 0
2, 165216, Note_on_c, 0, 47, 127
2, 165311, Note_on_c, 0, 47, 0
2, 165311, Note_on_c, 0, 59, 0
2, 165312, Note_on_c, 0, 61, 127
2, 165312, Note_on_c, 0, 45, 127
2, 165407, Note_on_c, 0, 45, 0
2, 165407, Note_on_c, 0, 61, 0
2, 165408, Note_on_c, 0, 71, 127
2, 165408, Note_on_c, 0, 63, 127
2, 165408, Note_on_c, 0, 43, 127
2, 165503, Note_on_c, 0, 43, 0
2, 165504, Note_on_c, 0, 42, 127
2, 165599, Note_on_c, 0, 42, 0
2, 165599, Note_on_c, 0, 63, 0
2, 165599, Note_on_c, 0, 71, 0
2, 165600, Note_on_c, 0, 67, 127
2, 165600, Note_on_c, 0, 64, 127
2, 165600, Note_on_c, 0, 40, 127
2, 165695, Note_on_c, 0, 40, 0
2, 165696, Note_on_c, 0, 52, 127
2, 165791, Note_on_c, 0, 52, 0
2, 165792, Note_on_c, 0, 50, 127
2, 165887, Note_on_c, 0, 50, 0
2, 165887, Note_on_c, 0, 67, 0
2, 165888, Note_on_c, 0, 69, 127
2, 165888, Note_on_c, 0, 48, 127
2, 165983, Note_on_c, 0, 48, 0
2, 165983, Note_on_c, 0, 69, 0
2, 165983, Note_on_c, 0, 64, 0
2, 165984, Note_on_c, 0, 71, 127
2, 165984, Note_on_c, 0, 63, 127
2, 165984, Note_on_c, 0, 47, 127
2, 166079, Note_on_c, 0, 47, 0
2, 166080, Note_on_c, 0, 45, 127
2, 166175, Note_on_c, 0, 45, 0
2, 166175, Note_on_c, 0, 63, 0
2, 166175, Note_on_c, 0, 71, 0
2, 166176, Note_on_c, 0, 64, 127
2, 166176, Note_on_c, 0, 43, 127
2, 166272, Note_on_c, 0, 76, 127
2, 166367, Note_on_c, 0, 76, 0
2, 166367, Note_on_c, 0, 43, 0
2, 166367, Note_on_c, 0, 64, 0
2, 166368, Note_on_c, 0, 74, 127
2, 166368, Note_on_c, 0, 52, 127
2, 166368, Note_on_c, 0, 45, 127
2, 166463, Note_on_c, 0, 74, 0
2, 166464, Note_on_c, 0, 72, 127
2, 166559, Note_on_c, 0, 72, 0
2, 166559, Note_on_c, 0, 45, 0
2, 166559, Note_on_c, 0, 52, 0
2, 166560, Note_on_c, 0, 71, 127
2, 166560, Note_on_c, 0, 51, 127
2, 166560, Note_on_c, 0, 47, 127
2, 166655, Note_on_c, 0, 71, 0
2, 166656, Note_on_c, 0, 69, 127
2, 166751, Note_on_c, 0, 69, 0
2, 166751, Note_on_c, 0, 47, 0
2, 166751, Note_on_c, 0, 51, 0
2, 166752, Note_on_c, 0, 67, 127
2, 166752, Note_on_c, 0, 52, 127
2, 166752, Note_on_c, 0, 40, 127
2, 166847, Note_on_c, 0, 67, 0
2, 166848, Note_on_c, 0, 72, 127
2, 166942, Note_on_c, 0, 52, 0
2, 166943, Note_on_c, 0, 72, 0
2, 166943, Note_on_c, 0, 40, 0
2, 166944, Note_on_c, 0, 71, 127
2, 166944, Note_on_c, 0, 52, 127
2, 167039, Note_on_c, 0, 71, 0
2, 167040, Note_on_c, 0, 69, 127
2, 167135, Note_on_c, 0, 69, 0
2, 167135, Note_on_c, 0, 52, 0
2, 167136, Note_on_c, 0, 67, 127
2, 167136, Note_on_c, 0, 50, 127
2, 167231, Note_on_c, 0, 67, 0
2, 167232, Note_on_c, 0, 66, 127
2, 167327, Note_on_c, 0, 66, 0
2, 167327, Note_on_c, 0, 50, 0
2, 167328, Note_on_c, 0, 64, 127
2, 167328, Note_on_c, 0, 49, 127
2, 167423, Note_on_c, 0, 49, 0
2, 167424, Note_on_c, 0, 57, 127
2, 167519, Note_on_c, 0, 57, 0
2, 167520, Note_on_c, 0, 55, 127
2, 167615, Note_on_c, 0, 55, 0
2, 167616, Note_on_c, 0, 54, 127
2, 167711, Note_on_c, 0, 54, 0
2, 167711, Note_on_c, 0, 64, 0
2, 167712, Note_on_c, 0, 66, 127
2, 167712, Note_on_c, 0, 52, 127
2, 167807, Note_on_c, 0, 52, 0
2, 167808, Note_on_c, 0, 50, 127
2, 167903, Note_on_c, 0, 50, 0
2, 167903, Note_on_c, 0, 66, 0
2, 167904, Note_on_c, 0, 67, 127
2, 167904, Note_on_c, 0, 52, 127
2, 167999, Note_on_c, 0, 67, 0
2, 168000, Note_on_c, 0, 64, 127
2, 168095, Note_on_c, 0, 64, 0
2, 168095, Note_on_c, 0, 52, 0
2, 168096, Note_on_c, 0, 67, 127
2, 168096, Note_on_c, 0, 40, 127
2, 168191, Note_on_c, 0, 67, 0
2, 168192, Note_on_c, 0, 71, 127
2, 168287, Note_on_c, 0, 71, 0
2, 168287, Note_on_c, 0, 40, 0
2, 168288, Note_on_c, 0, 76, 127
2, 168288, Note_on_c, 0, 52, 127
2, 168383, Note_on_c, 0, 76, 0
2, 168384, Note_on_c, 0, 68, 127
2, 168479, Note_on_c, 0, 68, 0
2, 168480, Note_on_c, 0, 70, 127
2, 168575, Note_on_c, 0, 52, 0
2, 168576, Note_on_c, 0, 55, 127
2, 168671, Note_on_c, 0, 55, 0
2, 168671, Note_on_c, 0, 70, 0
2, 168672, Note_on_c, 0, 66, 127
2, 168672, Note_on_c, 0, 54, 127
2, 168767, Note_on_c, 0, 54, 0
2, 168768, Note_on_c, 0, 52, 127
2, 168863, Note_on_c, 0, 52, 0
2, 168863, Note_on_c, 0, 66, 0
2, 168864, Note_on_c, 0, 78, 127
2, 168864, Note_on_c, 0, 50, 127
2, 168959, Note_on_c, 0, 50, 0
2, 168960, Note_on_c, 0, 49, 127
2, 169055, Note_on_c, 0, 49, 0
2, 169055, Note_on_c, 0, 78, 0
2, 169056, Note_on_c, 0, 74, 127
2, 169056, Note_on_c, 0, 54, 127
2, 169151, Note_on_c, 0, 54, 0
2, 169152, Note_on_c, 0, 52, 127
2, 169247, Note_on_c, 0, 52, 0
2, 169248, Note_on_c, 0, 54, 127
2, 169343, Note_on_c, 0, 74, 0
2, 169344, Note_on_c, 0, 73, 127
2, 169439, Note_on_c, 0, 73, 0
2, 169439, Note_on_c, 0, 54, 0
2, 169440, Note_on_c, 0, 71, 127
2, 169440, Note_on_c, 0, 66, 127
2, 169440, Note_on_c, 0, 42, 127
2, 169631, Note_on_c, 0, 42, 0
2, 169631, Note_on_c, 0, 66, 0
2, 169631, Note_on_c, 0, 71, 0
2, 169632, Note_on_c, 0, 71, 127
2, 169632, Note_on_c, 0, 62, 127
2, 169632, Note_on_c, 0, 47, 127
2, 169919, Note_on_c, 0, 62, 0
2, 169920, Note_on_c, 0, 64, 127
2, 170012, Note_on_c, 0, 71, 0
2, 170015, Note_on_c, 0, 64, 0
2, 170015, Note_on_c, 0, 47, 0
2, 170016, Note_on_c, 0, 66, 127
2, 170016, Note_on_c, 0, 54, 127
2, 170207, Note_on_c, 0, 54, 0
2, 170207, Note_on_c, 0, 66, 0
2, 170208, Note_on_c, 0, 59, 127
2, 170208, Note_on_c, 0, 50, 127
2, 170303, Note_on_c, 0, 59, 0
2, 170304, Note_on_c, 0, 71, 127
2, 170399, Note_on_c, 0, 71, 0
2, 170400, Note_on_c, 0, 69, 127
2, 170495, Note_on_c, 0, 69, 0
2, 170495, Note_on_c, 0, 50, 0
2, 170496, Note_on_c, 0, 67, 127
2, 170496, Note_on_c, 0, 52, 127
2, 170591, Note_on_c, 0, 52, 0
2, 170591, Note_on_c, 0, 67, 0
2, 170592, Note_on_c, 0, 66, 127
2, 170592, Note_on_c, 0, 54, 127
2, 170687, Note_on_c, 0, 66, 0
2, 170688, Note_on_c, 0, 64, 127
2, 170783, Note_on_c, 0, 64, 0
2, 170783, Note_on_c, 0, 54, 0
2, 170784, Note_on_c, 0, 62, 127
2, 170784, Note_on_c, 0, 47, 127
2, 170879, Note_on_c, 0, 47, 0
2, 170879, Note_on_c, 0, 62, 0
2, 170880, Note_on_c, 0, 67, 127
2, 170880, Note_on_c, 0, 59, 127
2, 170975, Note_on_c, 0, 59, 0
2, 170975, Note_on_c, 0, 67, 0
2, 170976, Note_on_c, 0, 66, 127
2, 170976, Note_on_c, 0, 57, 127
2, 171071, Note_on_c, 0, 57, 0
2, 171071, Note_on_c, 0, 66, 0
2, 171072, Note_on_c, 0, 64, 127
2, 171072, Note_on_c, 0, 55, 127
2, 171167, Note_on_c, 0, 55, 0
2, 171167, Note_on_c, 0, 64, 0
2, 171168, Note_on_c, 0, 62, 127
2, 171168, Note_on_c, 0, 54, 127
2, 171263, Note_on_c, 0, 54, 0
2, 171263, Note_on_c, 0, 62, 0
2, 171264, Note_on_c, 0, 61, 127
2, 171264, Note_on_c, 0, 52, 127
2, 171359, Note_on_c, 0, 52, 0
2, 171359, Note_on_c, 0, 61, 0
2, 171360, Note_on_c, 0, 59, 127
2, 171360, Note_on_c, 0, 50, 127
2, 171455, Note_on_c, 0, 50, 0
2, 171456, Note_on_c, 0, 55, 127
2, 171551, Note_on_c, 0, 55, 0
2, 171552, Note_on_c, 0, 54, 127
2, 171647, Note_on_c, 0, 54, 0
2, 171648, Note_on_c, 0, 52, 127
2, 171743, Note_on_c, 0, 52, 0
2, 171743, Note_on_c, 0, 59, 0
2, 171744, Note_on_c, 0, 61, 127
2, 171744, Note_on_c, 0, 50, 127
2, 171839, Note_on_c, 0, 50, 0
2, 171840, Note_on_c, 0, 49, 127
2, 171935, Note_on_c, 0, 49, 0
2, 171935, Note_on_c, 0, 61, 0
2, 171936, Note_on_c, 0, 63, 127
2, 171936, Note_on_c, 0, 47, 127
2, 172031, Note_on_c, 0, 63, 0
2, 172032, Note_on_c, 0, 59, 127
2, 172127, Note_on_c, 0, 59, 0
2, 172128, Note_on_c, 0, 63, 127
2, 172223, Note_on_c, 0, 63, 0
2, 172224, Note_on_c, 0, 66, 127
2, 172319, Note_on_c, 0, 66, 0
2, 172319, Note_on_c, 0, 47, 0
2, 172320, Note_on_c, 0, 71, 127
2, 172320, Note_on_c, 0, 47, 127
2, 172415, Note_on_c, 0, 71, 0
2, 172416, Note_on_c, 0, 63, 127
2, 172511, Note_on_c, 0, 63, 0
2, 172511, Note_on_c, 0, 47, 0
2, 172512, Note_on_c, 0, 64, 127
2, 172512, Note_on_c, 0, 49, 127
2, 172607, Note_on_c, 0, 49, 0
2, 172608, Note_on_c, 0, 45, 127
2, 172703, Note_on_c, 0, 45, 0
2, 172704, Note_on_c, 0, 49, 127
2, 172799, Note_on_c, 0, 49, 0
2, 172800, Note_on_c, 0, 52, 127
2, 172895, Note_on_c, 0, 52, 0
2, 172895, Note_on_c, 0, 64, 0
2, 172896, Note_on_c, 0, 64, 127
2, 172896, Note_on_c, 0, 57, 127
2, 172991, Note_on_c, 0, 57, 0
2, 172992, Note_on_c, 0, 49, 127
2, 173087, Note_on_c, 0, 49, 0
2, 173087, Note_on_c, 0, 64, 0
2, 173088, Note_on_c, 0, 66, 127
2, 173088, Note_on_c, 0, 51, 127
2, 173183, Note_on_c, 0, 66, 0
2, 173184, Note_on_c, 0, 71, 127
2, 173279, Note_on_c, 0, 71, 0
2, 173279, Note_on_c, 0, 51, 0
2, 173280, Note_on_c, 0, 69, 127
2, 173280, Note_on_c, 0, 47, 127
2, 173375, Note_on_c, 0, 69, 0
2, 173376, Note_on_c, 0, 67, 127
2, 173471, Note_on_c, 0, 67, 0
2, 173471, Note_on_c, 0, 47, 0
2, 173472, Note_on_c, 0, 66, 127
2, 173472, Note_on_c, 0, 52, 127
2, 173567, Note_on_c, 0, 66, 0
2, 173568, Note_on_c, 0, 64, 127
2, 173663, Note_on_c, 0, 64, 0
2, 173664, Note_on_c, 0, 66, 127
2, 173759, Note_on_c, 0, 52, 0
2, 173760, Note_on_c, 0, 57, 127
2, 173855, Note_on_c, 0, 57, 0
2, 173855, Note_on_c, 0, 66, 0
2, 173856, Note_on_c, 0, 59, 127
2, 173856, Note_on_c, 0, 55, 127
2, 173951, Note_on_c, 0, 55, 0
2, 173952, Note_on_c, 0, 54, 127
2, 174047, Note_on_c, 0, 54, 0
2, 174047, Note_on_c, 0, 59, 0
2, 174048, Note_on_c, 0, 71, 127
2, 174048, Note_on_c, 0, 52, 127
2, 174143, Note_on_c, 0, 52, 0
2, 174144, Note_on_c, 0, 51, 127
2, 174239, Note_on_c, 0, 51, 0
2, 174239, Note_on_c, 0, 71, 0
2, 174240, Note_on_c, 0, 67, 127
2, 174240, Note_on_c, 0, 52, 127
2, 174335, Note_on_c, 0, 52, 0
2, 174336, Note_on_c, 0, 47, 127
2, 174431, Note_on_c, 0, 47, 0
2, 174432, Note_on_c, 0, 52, 127
2, 174527, Note_on_c, 0, 52, 0
2, 174527, Note_on_c, 0, 67, 0
2, 174528, Note_on_c, 0, 69, 127
2, 174528, Note_on_c, 0, 54, 127
2, 174623, Note_on_c, 0, 54, 0
2, 174623, Note_on_c, 0, 69, 0
2, 174624, Note_on_c, 0, 76, 127
2, 174624, Note_on_c, 0, 71, 127
2, 174624, Note_on_c, 0, 55, 127
2, 174719, Note_on_c, 0, 55, 0
2, 174720, Note_on_c, 0, 52, 127
2, 174815, Note_on_c, 0, 52, 0
2, 174815, Note_on_c, 0, 71, 0
2, 174815, Note_on_c, 0, 76, 0
2, 174816, Note_on_c, 0, 72, 127
2, 174816, Note_on_c, 0, 64, 127
2, 174816, Note_on_c, 0, 57, 127
2, 174911, Note_on_c, 0, 57, 0
2, 174912, Note_on_c, 0, 52, 127
2, 175007, Note_on_c, 0, 52, 0
2, 175008, Note_on_c, 0, 57, 127
2, 175103, Note_on_c, 0, 57, 0
2, 175103, Note_on_c, 0, 72, 0
2, 175104, Note_on_c, 0, 74, 127
2, 175104, Note_on_c, 0, 59, 127
2, 175199, Note_on_c, 0, 59, 0
2, 175199, Note_on_c, 0, 74, 0
2, 175199, Note_on_c, 0, 64, 0
2, 175200, Note_on_c, 0, 76, 127
2, 175200, Note_on_c, 0, 69, 127
2, 175200, Note_on_c, 0, 60, 127
2, 175295, Note_on_c, 0, 60, 0
2, 175296, Note_on_c, 0, 57, 127
2, 175391, Note_on_c, 0, 57, 0
2, 175391, Note_on_c, 0, 69, 0
2, 175391, Note_on_c, 0, 76, 0
2, 175392, Note_on_c, 0, 69, 127
2, 175392, Note_on_c, 0, 66, 127
2, 175392, Note_on_c, 0, 62, 127
2, 175487, Note_on_c, 0, 62, 0
2, 175488, Note_on_c, 0, 45, 127
2, 175583, Note_on_c, 0, 45, 0
2, 175584, Note_on_c, 0, 50, 127
2, 175679, Note_on_c, 0, 50, 0
2, 175679, Note_on_c, 0, 66, 0
2, 175680, Note_on_c, 0, 67, 127
2, 175680, Note_on_c, 0, 52, 127
2, 175775, Note_on_c, 0, 52, 0
2, 175775, Note_on_c, 0, 67, 0
2, 175775, Note_on_c, 0, 69, 0
2, 175776, Note_on_c, 0, 74, 127
2, 175776, Note_on_c, 0, 69, 127
2, 175776, Note_on_c, 0, 54, 127
2, 175871, Note_on_c, 0, 54, 0
2, 175872, Note_on_c, 0, 50, 127
2, 175967, Note_on_c, 0, 50, 0
2, 175967, Note_on_c, 0, 69, 0
2, 175967, Note_on_c, 0, 74, 0
2, 175968, Note_on_c, 0, 71, 127
2, 175968, Note_on_c, 0, 62, 127
2, 175968, Note_on_c, 0, 55, 127
2, 176063, Note_on_c, 0, 55, 0
2, 176064, Note_on_c, 0, 60, 127
2, 176158, Note_on_c, 0, 62, 0
2, 176159, Note_on_c, 0, 60, 0
2, 176160, Note_on_c, 0, 59, 127
2, 176255, Note_on_c, 0, 59, 0
2, 176255, Note_on_c, 0, 71, 0
2, 176256, Note_on_c, 0, 72, 127
2, 176256, Note_on_c, 0, 57, 127
2, 176351, Note_on_c, 0, 57, 0
2, 176351, Note_on_c, 0, 72, 0
2, 176352, Note_on_c, 0, 74, 127
2, 176352, Note_on_c, 0, 55, 127
2, 176447, Note_on_c, 0, 55, 0
2, 176448, Note_on_c, 0, 54, 127
2, 176543, Note_on_c, 0, 54, 0
2, 176543, Note_on_c, 0, 74, 0
2, 176544, Note_on_c, 0, 67, 127
2, 176544, Note_on_c, 0, 52, 127
2, 176639, Note_on_c, 0, 67, 0
2, 176640, Note_on_c, 0, 79, 127
2, 176734, Note_on_c, 0, 52, 0
2, 176735, Note_on_c, 0, 79, 0
2, 176736, Note_on_c, 0, 78, 127
2, 176736, Note_on_c, 0, 64, 127
2, 176831, Note_on_c, 0, 78, 0
2, 176832, Note_on_c, 0, 76, 127
2, 176927, Note_on_c, 0, 76, 0
2, 176927, Note_on_c, 0, 64, 0
2, 176928, Note_on_c, 0, 74, 127
2, 176928, Note_on_c, 0, 66, 127
2, 177023, Note_on_c, 0, 74, 0
2, 177024, Note_on_c, 0, 72, 127
2, 177119, Note_on_c, 0, 72, 0
2, 177119, Note_on_c, 0, 66, 0
2, 177120, Note_on_c, 0, 71, 127
2, 177120, Note_on_c, 0, 67, 127
2, 177215, Note_on_c, 0, 71, 0
2, 177216, Note_on_c, 0, 76, 127
2, 177310, Note_on_c, 0, 67, 0
2, 177311, Note_on_c, 0, 76, 0
2, 177312, Note_on_c, 0, 74, 127
2, 177312, Note_on_c, 0, 47, 127
2, 177407, Note_on_c, 0, 74, 0
2, 177408, Note_on_c, 0, 72, 127
2, 177503, Note_on_c, 0, 72, 0
2, 177503, Note_on_c, 0, 47, 0
2, 177504, Note_on_c, 0, 71, 127
2, 177504, Note_on_c, 0, 50, 127
2, 177599, Note_on_c, 0, 71, 0
2, 177600, Note_on_c, 0, 69, 127
2, 177695, Note_on_c, 0, 69, 0
2, 177695, Note_on_c, 0, 50, 0
2, 177696, Note_on_c, 0, 67, 127
2, 177696, Note_on_c, 0, 52, 127
2, 177792, Note_on_c, 0, 64, 127
2, 177886, Note_on_c, 0, 52, 0
2, 177887, Note_on_c, 0, 64, 0
2, 177888, Note_on_c, 0, 62, 127
2, 177983, Note_on_c, 0, 62, 0
2, 177984, Note_on_c, 0, 60, 127
2, 178079, Note_on_c, 0, 60, 0
2, 178079, Note_on_c, 0, 67, 0
2, 178080, Note_on_c, 0, 69, 127
2, 178080, Note_on_c, 0, 59, 127
2, 178080, Note_on_c, 0, 54, 127
2, 178175, Note_on_c, 0, 59, 0
2, 178176, Note_on_c, 0, 57, 127
2, 178271, Note_on_c, 0, 57, 0
2, 178271, Note_on_c, 0, 54, 0
2, 178271, Note_on_c, 0, 69, 0
2, 178272, Note_on_c, 0, 71, 127
2, 178272, Note_on_c, 0, 55, 127
2, 178367, Note_on_c, 0, 71, 0
2, 178368, Note_on_c, 0, 67, 127
2, 178463, Note_on_c, 0, 67, 0
2, 178463, Note_on_c, 0, 55, 0
2, 178464, Note_on_c, 0, 71, 127
2, 178464, Note_on_c, 0, 67, 127
2, 178559, Note_on_c, 0, 67, 0
2, 178559, Note_on_c, 0, 71, 0
2, 178560, Note_on_c, 0, 74, 127
2, 178560, Note_on_c, 0, 66, 127
2, 178655, Note_on_c, 0, 66, 0
2, 178655, Note_on_c, 0, 74, 0
2, 178656, Note_on_c, 0, 79, 127
2, 178656, Note_on_c, 0, 64, 127
2, 178751, Note_on_c, 0, 79, 0
2, 178752, Note_on_c, 0, 71, 127
2, 178847, Note_on_c, 0, 71, 0
2, 178847, Note_on_c, 0, 64, 0
2, 178848, Note_on_c, 0, 73, 127
2, 178848, Note_on_c, 0, 57, 127
2, 178943, Note_on_c, 0, 57, 0
2, 178944, Note_on_c, 0, 69, 127
2, 179039, Note_on_c, 0, 69, 0
2, 179039, Note_on_c, 0, 73, 0
2, 179040, Note_on_c, 0, 69, 127
2, 179040, Note_on_c, 0, 67, 127
2, 179135, Note_on_c, 0, 67, 0
2, 179136, Note_on_c, 0, 66, 127
2, 179231, Note_on_c, 0, 66, 0
2, 179231, Note_on_c, 0, 69, 0
2, 179232, Note_on_c, 0, 74, 127
2, 179232, Note_on_c, 0, 64, 127
2, 179327, Note_on_c, 0, 64, 0
2, 179328, Note_on_c, 0, 62, 127
2, 179423, Note_on_c, 0, 62, 0
2, 179423, Note_on_c, 0, 74, 0
2, 179424, Note_on_c, 0, 74, 127
2, 179424, Note_on_c, 0, 64, 127
2, 179519, Note_on_c, 0, 64, 0
2, 179520, Note_on_c, 0, 57, 127
2, 179615, Note_on_c, 0, 57, 0
2, 179616, Note_on_c, 0, 64, 127
2, 179711, Note_on_c, 0, 64, 0
2, 179712, Note_on_c, 0, 67, 127
2, 179807, Note_on_c, 0, 67, 0
2, 179807, Note_on_c, 0, 74, 0
2, 179808, Note_on_c, 0, 73, 127
2, 179808, Note_on_c, 0, 69, 127
2, 179808, Note_on_c, 0, 45, 127
2, 179903, Note_on_c, 0, 69, 0
2, 179904, Note_on_c, 0, 64, 127
2, 179999, Note_on_c, 0, 64, 0
2, 179999, Note_on_c, 0, 45, 0
2, 179999, Note_on_c, 0, 73, 0
2, 180000, Note_on_c, 0, 74, 127
2, 180000, Note_on_c, 0, 66, 127
2, 180000, Note_on_c, 0, 42, 127
2, 180191, Note_on_c, 0, 66, 0
2, 180191, Note_on_c, 0, 74, 0
2, 180192, Note_on_c, 0, 66, 127
2, 180192, Note_on_c, 0, 62, 127
2, 180287, Note_on_c, 0, 42, 0
2, 180288, Note_on_c, 0, 43, 127
2, 180383, Note_on_c, 0, 43, 0
2, 180383, Note_on_c, 0, 62, 0
2, 180383, Note_on_c, 0, 66, 0
2, 180384, Note_on_c, 0, 64, 127
2, 180384, Note_on_c, 0, 61, 127
2, 180384, Note_on_c, 0, 45, 127
2, 180575, Note_on_c, 0, 45, 0
2, 180575, Note_on_c, 0, 61, 0
2, 180575, Note_on_c, 0, 64, 0
2, 180576, Note_on_c, 0, 66, 127
2, 180576, Note_on_c, 0, 62, 127
2, 180576, Note_on_c, 0, 38, 127
2, 180671, Note_on_c, 0, 38, 0
2, 180672, Note_on_c, 0, 50, 127
2, 180767, Note_on_c, 0, 50, 0
2, 180768, Note_on_c, 0, 49, 127
2, 180863, Note_on_c, 0, 49, 0
2, 180864, Note_on_c, 0, 47, 127
2, 180959, Note_on_c, 0, 47, 0
2, 180959, Note_on_c, 0, 66, 0
2, 180960, Note_on_c, 0, 67, 127
2, 180960, Note_on_c, 0, 45, 127
2, 181055, Note_on_c, 0, 45, 0
2, 181056, Note_on_c, 0, 43, 127
2, 181151, Note_on_c, 0, 43, 0
2, 181151, Note_on_c, 0, 67, 0
2, 181152, Note_on_c, 0, 69, 127
2, 181152, Note_on_c, 0, 42, 127
2, 181247, Note_on_c, 0, 42, 0
2, 181247, Note_on_c, 0, 69, 0
2, 181248, Note_on_c, 0, 74, 127
2, 181248, Note_on_c, 0, 47, 127
2, 181343, Note_on_c, 0, 47, 0
2, 181343, Note_on_c, 0, 74, 0
2, 181343, Note_on_c, 0, 62, 0
2, 181344, Note_on_c, 0, 73, 127
2, 181344, Note_on_c, 0, 45, 127
2, 181439, Note_on_c, 0, 45, 0
2, 181439, Note_on_c, 0, 73, 0
2, 181440, Note_on_c, 0, 71, 127
2, 181440, Note_on_c, 0, 43, 127
2, 181535, Note_on_c, 0, 43, 0
2, 181535, Note_on_c, 0, 71, 0
2, 181536, Note_on_c, 0, 69, 127
2, 181536, Note_on_c, 0, 42, 127
2, 181631, Note_on_c, 0, 42, 0
2, 181631, Note_on_c, 0, 69, 0
2, 181632, Note_on_c, 0, 67, 127
2, 181632, Note_on_c, 0, 40, 127
2, 181727, Note_on_c, 0, 40, 0
2, 181727, Note_on_c, 0, 67, 0
2, 181728, Note_on_c, 0, 66, 127
2, 181728, Note_on_c, 0, 38, 127
2, 181823, Note_on_c, 0, 66, 0
2, 181824, Note_on_c, 0, 71, 127
2, 181919, Note_on_c, 0, 71, 0
2, 181920, Note_on_c, 0, 69, 127
2, 182015, Note_on_c, 0, 69, 0
2, 182016, Note_on_c, 0, 67, 127
2, 182111, Note_on_c, 0, 67, 0
2, 182111, Note_on_c, 0, 38, 0
2, 182112, Note_on_c, 0, 66, 127
2, 182112, Note_on_c, 0, 40, 127
2, 182207, Note_on_c, 0, 66, 0
2, 182208, Note_on_c, 0, 64, 127
2, 182303, Note_on_c, 0, 64, 0
2, 182303, Note_on_c, 0, 40, 0
2, 182304, Note_on_c, 0, 62, 127
2, 182304, Note_on_c, 0, 42, 127
2, 182399, Note_on_c, 0, 42, 0
2, 182400, Note_on_c, 0, 38, 127
2, 182495, Note_on_c, 0, 38, 0
2, 182495, Note_on_c, 0, 62, 0
2, 182496, Note_on_c, 0, 74, 127
2, 182496, Note_on_c, 0, 42, 127
2, 182591, Note_on_c, 0, 42, 0
2, 182591, Note_on_c, 0, 74, 0
2, 182592, Note_on_c, 0, 76, 127
2, 182592, Note_on_c, 0, 45, 127
2, 182687, Note_on_c, 0, 45, 0
2, 182687, Note_on_c, 0, 76, 0
2, 182688, Note_on_c, 0, 78, 127
2, 182688, Note_on_c, 0, 50, 127
2, 182783, Note_on_c, 0, 50, 0
2, 182784, Note_on_c, 0, 42, 127
2, 182879, Note_on_c, 0, 42, 0
2, 182879, Note_on_c, 0, 78, 0
2, 182880, Note_on_c, 0, 76, 127
2, 182880, Note_on_c, 0, 44, 127
2, 182975, Note_on_c, 0, 76, 0
2, 182976, Note_on_c, 0, 78, 127
2, 183071, Note_on_c, 0, 78, 0
2, 183071, Note_on_c, 0, 44, 0
2, 183072, Note_on_c, 0, 76, 127
2, 183072, Note_on_c, 0, 40, 127
2, 183167, Note_on_c, 0, 76, 0
2, 183168, Note_on_c, 0, 74, 127
2, 183263, Note_on_c, 0, 74, 0
2, 183263, Note_on_c, 0, 40, 0
2, 183264, Note_on_c, 0, 73, 127
2, 183264, Note_on_c, 0, 45, 127
2, 183359, Note_on_c, 0, 73, 0
2, 183360, Note_on_c, 0, 76, 127
2, 183455, Note_on_c, 0, 76, 0
2, 183455, Note_on_c, 0, 45, 0
2, 183456, Note_on_c, 0, 74, 127
2, 183456, Note_on_c, 0, 45, 127
2, 183551, Note_on_c, 0, 74, 0
2, 183552, Note_on_c, 0, 76, 127
2, 183647, Note_on_c, 0, 76, 0
2, 183648, Note_on_c, 0, 74, 127
2, 183743, Note_on_c, 0, 74, 0
2, 183744, Note_on_c, 0, 73, 127
2, 183839, Note_on_c, 0, 73, 0
2, 183839, Note_on_c, 0, 45, 0
2, 183840, Note_on_c, 0, 71, 127
2, 183840, Note_on_c, 0, 44, 127
2, 183935, Note_on_c, 0, 71, 0
2, 183936, Note_on_c, 0, 74, 127
2, 184031, Note_on_c, 0, 74, 0
2, 184031, Note_on_c, 0, 44, 0
2, 184032, Note_on_c, 0, 73, 127
2, 184032, Note_on_c, 0, 45, 127
2, 184127, Note_on_c, 0, 73, 0
2, 184128, Note_on_c, 0, 69, 127
2, 184223, Note_on_c, 0, 69, 0
2, 184223, Note_on_c, 0, 45, 0
2, 184224, Note_on_c, 0, 73, 127
2, 184224, Note_on_c, 0, 45, 127
2, 184319, Note_on_c, 0, 45, 0
2, 184319, Note_on_c, 0, 73, 0
2, 184320, Note_on_c, 0, 76, 127
2, 184320, Note_on_c, 0, 47, 127
2, 184415, Note_on_c, 0, 47, 0
2, 184415, Note_on_c, 0, 76, 0
2, 184416, Note_on_c, 0, 81, 127
2, 184416, Note_on_c, 0, 49, 127
2, 184511, Note_on_c, 0, 81, 0
2, 184512, Note_on_c, 0, 76, 127
2, 184607, Note_on_c, 0, 76, 0
2, 184607, Note_on_c, 0, 49, 0
2, 184608, Note_on_c, 0, 78, 127
2, 184608, Note_on_c, 0, 50, 127
2, 184703, Note_on_c, 0, 78, 0
2, 184704, Note_on_c, 0, 71, 127
2, 184799, Note_on_c, 0, 71, 0
2, 184799, Note_on_c, 0, 50, 0
2, 184800, Note_on_c, 0, 74, 127
2, 184800, Note_on_c, 0, 47, 127
2, 184895, Note_on_c, 0, 47, 0
2, 184895, Note_on_c, 0, 74, 0
2, 184896, Note_on_c, 0, 78, 127
2, 184896, Note_on_c, 0, 49, 127
2, 184991, Note_on_c, 0, 49, 0
2, 184991, Note_on_c, 0, 78, 0
2, 184992, Note_on_c, 0, 83, 127
2, 184992, Note_on_c, 0, 50, 127
2, 185087, Note_on_c, 0, 83, 0
2, 185088, Note_on_c, 0, 78, 127
2, 185183, Note_on_c, 0, 78, 0
2, 185183, Note_on_c, 0, 50, 0
2, 185184, Note_on_c, 0, 80, 127
2, 185184, Note_on_c, 0, 52, 127
2, 185279, Note_on_c, 0, 52, 0
2, 185280, Note_on_c, 0, 40, 127
2, 185375, Note_on_c, 0, 40, 0
2, 185375, Note_on_c, 0, 80, 0
2, 185376, Note_on_c, 0, 76, 127
2, 185376, Note_on_c, 0, 44, 127
2, 185471, Note_on_c, 0, 44, 0
2, 185471, Note_on_c, 0, 76, 0
2, 185472, Note_on_c, 0, 78, 127
2, 185472, Note_on_c, 0, 47, 127
2, 185567, Note_on_c, 0, 47, 0
2, 185567, Note_on_c, 0, 78, 0
2, 185568, Note_on_c, 0, 80, 127
2, 185568, Note_on_c, 0, 52, 127
2, 185663, Note_on_c, 0, 52, 0
2, 185664, Note_on_c, 0, 47, 127
2, 185759, Note_on_c, 0, 47, 0
2, 185759, Note_on_c, 0, 80, 0
2, 185760, Note_on_c, 0, 81, 127
2, 185760, Note_on_c, 0, 49, 127
2, 185855, Note_on_c, 0, 49, 0
2, 185856, Note_on_c, 0, 45, 127
2, 185951, Note_on_c, 0, 45, 0
2, 185951, Note_on_c, 0, 81, 0
2, 185952, Note_on_c, 0, 76, 127
2, 185952, Note_on_c, 0, 49, 127
2, 186047, Note_on_c, 0, 49, 0
2, 186047, Note_on_c, 0, 76, 0
2, 186048, Note_on_c, 0, 78, 127
2, 186048, Note_on_c, 0, 52, 127
2, 186143, Note_on_c, 0, 52, 0
2, 186143, Note_on_c, 0, 78, 0
2, 186144, Note_on_c, 0, 79, 127
2, 186144, Note_on_c, 0, 57, 127
2, 186239, Note_on_c, 0, 57, 0
2, 186240, Note_on_c, 0, 49, 127
2, 186335, Note_on_c, 0, 49, 0
2, 186335, Note_on_c, 0, 79, 0
2, 186336, Note_on_c, 0, 78, 127
2, 186336, Note_on_c, 0, 50, 127
2, 186431, Note_on_c, 0, 50, 0
2, 186432, Note_on_c, 0, 38, 127
2, 186527, Note_on_c, 0, 38, 0
2, 186528, Note_on_c, 0, 42, 127
2, 186623, Note_on_c, 0, 42, 0
2, 186624, Note_on_c, 0, 45, 127
2, 186719, Note_on_c, 0, 45, 0
2, 186719, Note_on_c, 0, 78, 0
2, 186720, Note_on_c, 0, 78, 127
2, 186720, Note_on_c, 0, 50, 127
2, 186815, Note_on_c, 0, 50, 0
2, 186816, Note_on_c, 0, 45, 127
2, 186911, Note_on_c, 0, 45, 0
2, 186911, Note_on_c, 0, 78, 0
2, 186912, Note_on_c, 0, 74, 127
2, 186912, Note_on_c, 0, 47, 127
2, 187007, Note_on_c, 0, 74, 0
2, 187008, Note_on_c, 0, 71, 127
2, 187103, Note_on_c, 0, 71, 0
2, 187103, Note_on_c, 0, 47, 0
2, 187104, Note_on_c, 0, 74, 127
2, 187104, Note_on_c, 0, 47, 127
2, 187199, Note_on_c, 0, 47, 0
2, 187199, Note_on_c, 0, 74, 0
2, 187200, Note_on_c, 0, 78, 127
2, 187200, Note_on_c, 0, 48, 127
2, 187295, Note_on_c, 0, 48, 0
2, 187295, Note_on_c, 0, 78, 0
2, 187296, Note_on_c, 0, 83, 127
2, 187296, Note_on_c, 0, 50, 127
2, 187391, Note_on_c, 0, 83, 0
2, 187392, Note_on_c, 0, 78, 127
2, 187487, Note_on_c, 0, 78, 0
2, 187487, Note_on_c, 0, 50, 0
2, 187488, Note_on_c, 0, 79, 127
2, 187488, Note_on_c, 0, 52, 127
2, 187583, Note_on_c, 0, 52, 0
2, 187584, Note_on_c, 0, 40, 127
2, 187679, Note_on_c, 0, 40, 0
2, 187679, Note_on_c, 0, 79, 0
2, 187680, Note_on_c, 0, 76, 127
2, 187680, Note_on_c, 0, 43, 127
2, 187775, Note_on_c, 0, 43, 0
2, 187775, Note_on_c, 0, 76, 0
2, 187776, Note_on_c, 0, 78, 127
2, 187776, Note_on_c, 0, 47, 127
2, 187871, Note_on_c, 0, 47, 0
2, 187871, Note_on_c, 0, 78, 0
2, 187872, Note_on_c, 0, 79, 127
2, 187872, Note_on_c, 0, 52, 127
2, 187967, Note_on_c, 0, 52, 0
2, 187968, Note_on_c, 0, 43, 127
2, 188063, Note_on_c, 0, 43, 0
2, 188063, Note_on_c, 0, 79, 0
2, 188064, Note_on_c, 0, 73, 127
2, 188064, Note_on_c, 0, 45, 127
2, 188159, Note_on_c, 0, 73, 0
2, 188160, Note_on_c, 0, 69, 127
2, 188255, Note_on_c, 0, 69, 0
2, 188255, Note_on_c, 0, 45, 0
2, 188256, Note_on_c, 0, 73, 127
2, 188256, Note_on_c, 0, 45, 127
2, 188351, Note_on_c, 0, 45, 0
2, 188351, Note_on_c, 0, 73, 0
2, 188352, Note_on_c, 0, 76, 127
2, 188352, Note_on_c, 0, 47, 127
2, 188447, Note_on_c, 0, 47, 0
2, 188447, Note_on_c, 0, 76, 0
2, 188448, Note_on_c, 0, 81, 127
2, 188448, Note_on_c, 0, 49, 127
2, 188543, Note_on_c, 0, 81, 0
2, 188544, Note_on_c, 0, 76, 127
2, 188639, Note_on_c, 0, 76, 0
2, 188639, Note_on_c, 0, 49, 0
2, 188640, Note_on_c, 0, 78, 127
2, 188640, Note_on_c, 0, 50, 127
2, 188735, Note_on_c, 0, 78, 0
2, 188736, Note_on_c, 0, 74, 127
2, 188831, Note_on_c, 0, 74, 0
2, 188831, Note_on_c, 0, 50, 0
2, 188832, Note_on_c, 0, 78, 127
2, 188832, Note_on_c, 0, 50, 127
2, 188927, Note_on_c, 0, 50, 0
2, 188927, Note_on_c, 0, 78, 0
2, 188928, Note_on_c, 0, 81, 127
2, 188928, Note_on_c, 0, 52, 127
2, 189023, Note_on_c, 0, 52, 0
2, 189023, Note_on_c, 0, 81, 0
2, 189024, Note_on_c, 0, 84, 127
2, 189024, Note_on_c, 0, 54, 127
2, 189119, Note_on_c, 0, 84, 0
2, 189120, Note_on_c, 0, 81, 127
2, 189215, Note_on_c, 0, 81, 0
2, 189215, Note_on_c, 0, 54, 0
2, 189216, Note_on_c, 0, 83, 127
2, 189216, Note_on_c, 0, 43, 127
2, 189311, Note_on_c, 0, 43, 0
2, 189312, Note_on_c, 0, 57, 127
2, 189407, Note_on_c, 0, 57, 0
2, 189407, Note_on_c, 0, 83, 0
2, 189408, Note_on_c, 0, 74, 127
2, 189408, Note_on_c, 0, 55, 127
2, 189503, Note_on_c, 0, 55, 0
2, 189504, Note_on_c, 0, 54, 127
2, 189599, Note_on_c, 0, 54, 0
2, 189599, Note_on_c, 0, 74, 0
2, 189600, Note_on_c, 0, 79, 127
2, 189600, Note_on_c, 0, 52, 127
2, 189695, Note_on_c, 0, 52, 0
2, 189696, Note_on_c, 0, 50, 127
2, 189791, Note_on_c, 0, 50, 0
2, 189792, Note_on_c, 0, 49, 127
2, 189887, Note_on_c, 0, 79, 0
2, 189888, Note_on_c, 0, 83, 127
2, 189983, Note_on_c, 0, 83, 0
2, 189983, Note_on_c, 0, 49, 0
2, 189984, Note_on_c, 0, 81, 127
2, 189984, Note_on_c, 0, 45, 127
2, 190079, Note_on_c, 0, 81, 0
2, 190080, Note_on_c, 0, 79, 127
2, 190175, Note_on_c, 0, 79, 0
2, 190175, Note_on_c, 0, 45, 0
2, 190176, Note_on_c, 0, 78, 127
2, 190176, Note_on_c, 0, 69, 127
2, 190176, Note_on_c, 0, 50, 127
2, 190271, Note_on_c, 0, 78, 0
2, 190272, Note_on_c, 0, 81, 127
2, 190367, Note_on_c, 0, 81, 0
2, 190367, Note_on_c, 0, 50, 0
2, 190367, Note_on_c, 0, 69, 0
2, 190368, Note_on_c, 0, 74, 127
2, 190368, Note_on_c, 0, 66, 127
2, 190368, Note_on_c, 0, 42, 127
2, 190463, Note_on_c, 0, 42, 0
2, 190464, Note_on_c, 0, 43, 127
2, 190559, Note_on_c, 0, 43, 0
2, 190560, Note_on_c, 0, 45, 127
2, 190655, Note_on_c, 0, 66, 0
2, 190655, Note_on_c, 0, 74, 0
2, 190656, Note_on_c, 0, 76, 127
2, 190656, Note_on_c, 0, 67, 127
2, 190751, Note_on_c, 0, 67, 0
2, 190751, Note_on_c, 0, 76, 0
2, 190751, Note_on_c, 0, 45, 0
2, 190752, Note_on_c, 0, 73, 127
2, 190752, Note_on_c, 0, 69, 127
2, 190752, Note_on_c, 0, 57, 127
2, 190943, Note_on_c, 0, 57, 0
2, 190943, Note_on_c, 0, 69, 0
2, 190943, Note_on_c, 0, 73, 0
2, 190944, Note_on_c, 0, 74, 127
2, 190944, Note_on_c, 0, 62, 127
2, 190944, Note_on_c, 0, 59, 127
2, 191034, Note_on_c, 0, 74, 0
2, 191039, Note_on_c, 0, 62, 0
2, 191040, Note_on_c, 0, 74, 127
2, 191135, Note_on_c, 0, 74, 0
2, 191135, Note_on_c, 0, 59, 0
2, 191136, Note_on_c, 0, 73, 127
2, 191136, Note_on_c, 0, 47, 127
2, 191231, Note_on_c, 0, 73, 0
2, 191232, Note_on_c, 0, 71, 127
2, 191327, Note_on_c, 0, 71, 0
2, 191327, Note_on_c, 0, 47, 0
2, 191328, Note_on_c, 0, 69, 127
2, 191328, Note_on_c, 0, 49, 127
2, 191423, Note_on_c, 0, 69, 0
2, 191424, Note_on_c, 0, 67, 127
2, 191519, Note_on_c, 0, 67, 0
2, 191519, Note_on_c, 0, 49, 0
2, 191520, Note_on_c, 0, 66, 127
2, 191520, Note_on_c, 0, 50, 127
2, 191615, Note_on_c, 0, 50, 0
2, 191615, Note_on_c, 0, 66, 0
2, 191616, Note_on_c, 0, 71, 127
2, 191616, Note_on_c, 0, 62, 127
2, 191711, Note_on_c, 0, 62, 0
2, 191711, Note_on_c, 0, 71, 0
2, 191712, Note_on_c, 0, 69, 127
2, 191712, Note_on_c, 0, 61, 127
2, 191807, Note_on_c, 0, 61, 0
2, 191807, Note_on_c, 0, 69, 0
2, 191808, Note_on_c, 0, 67, 127
2, 191808, Note_on_c, 0, 59, 127
2, 191903, Note_on_c, 0, 59, 0
2, 191903, Note_on_c, 0, 67, 0
2, 191904, Note_on_c, 0, 66, 127
2, 191904, Note_on_c, 0, 57, 127
2, 191999, Note_on_c, 0, 57, 0
2, 191999, Note_on_c, 0, 66, 0
2, 192000, Note_on_c, 0, 64, 127
2, 192000, Note_on_c, 0, 55, 127
2, 192095, Note_on_c, 0, 55, 0
2, 192095, Note_on_c, 0, 64, 0
2, 192096, Note_on_c, 0, 62, 127
2, 192096, Note_on_c, 0, 54, 127
2, 192192, Note_on_c, 0, 76, 127
2, 192287, Note_on_c, 0, 76, 0
2, 192287, Note_on_c, 0, 54, 0
2, 192288, Note_on_c, 0, 74, 127
2, 192288, Note_on_c, 0, 50, 127
2, 192383, Note_on_c, 0, 74, 0
2, 192384, Note_on_c, 0, 72, 127
2, 192479, Note_on_c, 0, 72, 0
2, 192479, Note_on_c, 0, 50, 0
2, 192479, Note_on_c, 0, 62, 0
2, 192480, Note_on_c, 0, 71, 127
2, 192480, Note_on_c, 0, 62, 127
2, 192480, Note_on_c, 0, 55, 127
2, 192575, Note_on_c, 0, 71, 0
2, 192576, Note_on_c, 0, 69, 127
2, 192671, Note_on_c, 0, 69, 0
2, 192671, Note_on_c, 0, 55, 0
2, 192671, Note_on_c, 0, 62, 0
2, 192672, Note_on_c, 0, 67, 127
2, 192672, Note_on_c, 0, 64, 127
2, 192672, Note_on_c, 0, 60, 127
2, 192762, Note_on_c, 0, 60, 0
2, 192767, Note_on_c, 0, 64, 0
2, 192768, Note_on_c, 0, 60, 127
2, 192863, Note_on_c, 0, 67, 0
2, 192864, Note_on_c, 0, 72, 127
2, 192864, Note_on_c, 0, 64, 127
2, 192959, Note_on_c, 0, 64, 0
2, 192959, Note_on_c, 0, 72, 0
2, 192960, Note_on_c, 0, 74, 127
2, 192960, Note_on_c, 0, 67, 127
2, 193055, Note_on_c, 0, 67, 0
2, 193055, Note_on_c, 0, 74, 0
2, 193056, Note_on_c, 0, 76, 127
2, 193056, Note_on_c, 0, 72, 127
2, 193148, Note_on_c, 0, 60, 0
2, 193151, Note_on_c, 0, 72, 0
2, 193152, Note_on_c, 0, 64, 127
2, 193247, Note_on_c, 0, 64, 0
2, 193247, Note_on_c, 0, 76, 0
2, 193248, Note_on_c, 0, 69, 127
2, 193248, Note_on_c, 0, 66, 127
2, 193344, Note_on_c, 0, 60, 127
2, 193439, Note_on_c, 0, 60, 0
2, 193439, Note_on_c, 0, 66, 0
2, 193439, Note_on_c, 0, 69, 0
2, 193440, Note_on_c, 0, 71, 127
2, 193440, Note_on_c, 0, 62, 127
2, 193440, Note_on_c, 0, 59, 127
2, 193535, Note_on_c, 0, 59, 0
2, 193535, Note_on_c, 0, 71, 0
2, 193536, Note_on_c, 0, 72, 127
2, 193536, Note_on_c, 0, 57, 127
2, 193631, Note_on_c, 0, 57, 0
2, 193631, Note_on_c, 0, 72, 0
2, 193631, Note_on_c, 0, 62, 0
2, 193632, Note_on_c, 0, 74, 127
2, 193632, Note_on_c, 0, 67, 127
2, 193632, Note_on_c, 0, 59, 127
2, 193727, Note_on_c, 0, 59, 0
2, 193728, Note_on_c, 0, 55, 127
2, 193823, Note_on_c, 0, 55, 0
2, 193823, Note_on_c, 0, 74, 0
2, 193824, Note_on_c, 0, 72, 127
2, 193824, Note_on_c, 0, 57, 127
2, 193919, Note_on_c, 0, 57, 0
2, 193920, Note_on_c, 0, 50, 127
2, 194015, Note_on_c, 0, 50, 0
2, 194015, Note_on_c, 0, 72, 0
2, 194016, Note_on_c, 0, 69, 127
2, 194016, Note_on_c, 0, 54, 127
2, 194111, Note_on_c, 0, 54, 0
2, 194111, Note_on_c, 0, 69, 0
2, 194112, Note_on_c, 0, 71, 127
2, 194112, Note_on_c, 0, 57, 127
2, 194207, Note_on_c, 0, 57, 0
2, 194207, Note_on_c, 0, 71, 0
2, 194207, Note_on_c, 0, 67, 0
2, 194208, Note_on_c, 0, 72, 127
2, 194208, Note_on_c, 0, 66, 127
2, 194208, Note_on_c, 0, 62, 127
2, 194303, Note_on_c, 0, 62, 0
2, 194304, Note_on_c, 0, 50, 127
2, 194399, Note_on_c, 0, 50, 0
2, 194399, Note_on_c, 0, 66, 0
2, 194399, Note_on_c, 0, 72, 0
2, 194400, Note_on_c, 0, 71, 127
2, 194400, Note_on_c, 0, 67, 127
2, 194400, Note_on_c, 0, 55, 127
2, 194490, Note_on_c, 0, 67, 0
2, 194495, Note_on_c, 0, 71, 0
2, 194496, Note_on_c, 0, 67, 127
2, 194592, Note_on_c, 0, 71, 127
2, 194687, Note_on_c, 0, 71, 0
2, 194688, Note_on_c, 0, 74, 127
2, 194776, Note_on_c, 0, 67, 0
2, 194780, Note_on_c, 0, 55, 0
2, 194783, Note_on_c, 0, 74, 0
2, 194784, Note_on_c, 0, 79, 127
2, 194879, Note_on_c, 0, 79, 0
2, 194880, Note_on_c, 0, 74, 127
2, 194975, Note_on_c, 0, 74, 0
2, 194976, Note_on_c, 0, 76, 127
2, 194976, Note_on_c, 0, 59, 127
2, 194976, Note_on_c, 0, 56, 127
2, 195071, Note_on_c, 0, 76, 0
2, 195072, Note_on_c, 0, 64, 127
2, 195167, Note_on_c, 0, 64, 0
2, 195168, Note_on_c, 0, 68, 127
2, 195263, Note_on_c, 0, 68, 0
2, 195264, Note_on_c, 0, 71, 127
2, 195356, Note_on_c, 0, 56, 0
2, 195356, Note_on_c, 0, 59, 0
2, 195359, Note_on_c, 0, 71, 0
2, 195360, Note_on_c, 0, 76, 127
2, 195455, Note_on_c, 0, 76, 0
2, 195456, Note_on_c, 0, 71, 127
2, 195551, Note_on_c, 0, 71, 0
2, 195552, Note_on_c, 0, 72, 127
2, 195552, Note_on_c, 0, 64, 127
2, 195552, Note_on_c, 0, 57, 127
2, 195647, Note_on_c, 0, 72, 0
2, 195648, Note_on_c, 0, 69, 127
2, 195743, Note_on_c, 0, 69, 0
2, 195744, Note_on_c, 0, 72, 127
2, 195839, Note_on_c, 0, 72, 0
2, 195839, Note_on_c, 0, 57, 0
2, 195840, Note_on_c, 0, 76, 127
2, 195840, Note_on_c, 0, 59, 127
2, 195935, Note_on_c, 0, 59, 0
2, 195935, Note_on_c, 0, 76, 0
2, 195935, Note_on_c, 0, 64, 0
2, 195936, Note_on_c, 0, 81, 127
2, 195936, Note_on_c, 0, 64, 127
2, 195936, Note_on_c, 0, 60, 127
2, 196031, Note_on_c, 0, 81, 0
2, 196032, Note_on_c, 0, 76, 127
2, 196127, Note_on_c, 0, 76, 0
2, 196127, Note_on_c, 0, 60, 0
2, 196127, Note_on_c, 0, 64, 0
2, 196128, Note_on_c, 0, 77, 127
2, 196128, Note_on_c, 0, 62, 127
2, 196224, Note_on_c, 0, 64, 127
2, 196319, Note_on_c, 0, 64, 0
2, 196319, Note_on_c, 0, 62, 0
2, 196319, Note_on_c, 0, 77, 0
2, 196320, Note_on_c, 0, 69, 127
2, 196320, Note_on_c, 0, 65, 127
2, 196320, Note_on_c, 0, 62, 127
2, 196415, Note_on_c, 0, 62, 0
2, 196416, Note_on_c, 0, 60, 127
2, 196511, Note_on_c, 0, 60, 0
2, 196511, Note_on_c, 0, 69, 0
2, 196512, Note_on_c, 0, 74, 127
2, 196512, Note_on_c, 0, 59, 127
2, 196607, Note_on_c, 0, 59, 0
2, 196608, Note_on_c, 0, 57, 127
2, 196703, Note_on_c, 0, 57, 0
2, 196703, Note_on_c, 0, 65, 0
2, 196704, Note_on_c, 0, 64, 127
2, 196704, Note_on_c, 0, 56, 127
2, 196799, Note_on_c, 0, 74, 0
2, 196800, Note_on_c, 0, 77, 127
2, 196895, Note_on_c, 0, 77, 0
2, 196895, Note_on_c, 0, 56, 0
2, 196895, Note_on_c, 0, 64, 0
2, 196896, Note_on_c, 0, 76, 127
2, 196896, Note_on_c, 0, 68, 127
2, 196896, Note_on_c, 0, 52, 127
2, 196991, Note_on_c, 0, 76, 0
2, 196992, Note_on_c, 0, 74, 127
2, 197087, Note_on_c, 0, 74, 0
2, 197087, Note_on_c, 0, 52, 0
2, 197087, Note_on_c, 0, 68, 0
2, 197088, Note_on_c, 0, 72, 127
2, 197088, Note_on_c, 0, 69, 127
2, 197088, Note_on_c, 0, 57, 127
2, 197183, Note_on_c, 0, 72, 0
2, 197184, Note_on_c, 0, 76, 127
2, 197279, Note_on_c, 0, 76, 0
2, 197279, Note_on_c, 0, 57, 0
2, 197280, Note_on_c, 0, 74, 127
2, 197280, Note_on_c, 0, 62, 127
2, 197375, Note_on_c, 0, 74, 0
2, 197376, Note_on_c, 0, 72, 127
2, 197471, Note_on_c, 0, 72, 0
2, 197471, Note_on_c, 0, 62, 0
2, 197472, Note_on_c, 0, 71, 127
2, 197472, Note_on_c, 0, 64, 127
2, 197663, Note_on_c, 0, 64, 0
2, 197663, Note_on_c, 0, 69, 0
2, 197664, Note_on_c, 0, 68, 127
2, 197664, Note_on_c, 0, 52, 127
2, 197759, Note_on_c, 0, 71, 0
2, 197760, Note_on_c, 0, 69, 127
2, 197854, Note_on_c, 0, 68, 0
2, 197855, Note_on_c, 0, 69, 0
2, 197855, Note_on_c, 0, 52, 0
2, 197856, Note_on_c, 0, 69, 127
2, 197856, Note_on_c, 0, 48, 127
2, 197946, Note_on_c, 0, 69, 0
2, 197952, Note_on_c, 0, 69, 127
2, 198047, Note_on_c, 0, 69, 0
2, 198048, Note_on_c, 0, 67, 127
2, 198143, Note_on_c, 0, 67, 0
2, 198143, Note_on_c, 0, 48, 0
2, 198144, Note_on_c, 0, 65, 127
2, 198144, Note_on_c, 0, 50, 127
2, 198239, Note_on_c, 0, 50, 0
2, 198239, Note_on_c, 0, 65, 0
2, 198240, Note_on_c, 0, 64, 127
2, 198240, Note_on_c, 0, 52, 127
2, 198335, Note_on_c, 0, 64, 0
2, 198336, Note_on_c, 0, 62, 127
2, 198431, Note_on_c, 0, 62, 0
2, 198431, Note_on_c, 0, 52, 0
2, 198432, Note_on_c, 0, 60, 127
2, 198432, Note_on_c, 0, 45, 127
2, 198527, Note_on_c, 0, 45, 0
2, 198528, Note_on_c, 0, 57, 127
2, 198623, Note_on_c, 0, 57, 0
2, 198624, Note_on_c, 0, 55, 127
2, 198719, Note_on_c, 0, 55, 0
2, 198719, Note_on_c, 0, 60, 0
2, 198720, Note_on_c, 0, 62, 127
2, 198720, Note_on_c, 0, 53, 127
2, 198815, Note_on_c, 0, 53, 0
2, 198815, Note_on_c, 0, 62, 0
2, 198816, Note_on_c, 0, 64, 127
2, 198816, Note_on_c, 0, 52, 127
2, 198911, Note_on_c, 0, 52, 0
2, 198912, Note_on_c, 0, 50, 127
2, 199007, Note_on_c, 0, 50, 0
2, 199007, Note_on_c, 0, 64, 0
2, 199008, Note_on_c, 0, 57, 127
2, 199008, Note_on_c, 0, 48, 127
2, 199103, Note_on_c, 0, 48, 0
2, 199104, Note_on_c, 0, 81, 127
2, 199104, Note_on_c, 0, 53, 127
2, 199198, Note_on_c, 0, 57, 0
2, 199199, Note_on_c, 0, 53, 0
2, 199199, Note_on_c, 0, 81, 0
2, 199200, Note_on_c, 0, 79, 127
2, 199200, Note_on_c, 0, 52, 127
2, 199295, Note_on_c, 0, 52, 0
2, 199295, Note_on_c, 0, 79, 0
2, 199296, Note_on_c, 0, 77, 127
2, 199296, Note_on_c, 0, 50, 127
2, 199391, Note_on_c, 0, 50, 0
2, 199391, Note_on_c, 0, 77, 0
2, 199392, Note_on_c, 0, 76, 127
2, 199392, Note_on_c, 0, 48, 127
2, 199487, Note_on_c, 0, 48, 0
2, 199487, Note_on_c, 0, 76, 0
2, 199488, Note_on_c, 0, 74, 127
2, 199488, Note_on_c, 0, 47, 127
2, 199583, Note_on_c, 0, 47, 0
2, 199583, Note_on_c, 0, 74, 0
2, 199584, Note_on_c, 0, 72, 127
2, 199584, Note_on_c, 0, 45, 127
2, 199679, Note_on_c, 0, 72, 0
2, 199680, Note_on_c, 0, 77, 127
2, 199775, Note_on_c, 0, 77, 0
2, 199776, Note_on_c, 0, 76, 127
2, 199871, Note_on_c, 0, 76, 0
2, 199872, Note_on_c, 0, 74, 127
2, 199967, Note_on_c, 0, 74, 0
2, 199967, Note_on_c, 0, 45, 0
2, 199968, Note_on_c, 0, 72, 127
2, 199968, Note_on_c, 0, 47, 127
2, 200063, Note_on_c, 0, 72, 0
2, 200064, Note_on_c, 0, 71, 127
2, 200159, Note_on_c, 0, 71, 0
2, 200159, Note_on_c, 0, 47, 0
2, 200160, Note_on_c, 0, 69, 127
2, 200160, Note_on_c, 0, 48, 127
2, 200255, Note_on_c, 0, 48, 0
2, 200256, Note_on_c, 0, 45, 127
2, 200351, Note_on_c, 0, 45, 0
2, 200352, Note_on_c, 0, 48, 127
2, 200447, Note_on_c, 0, 48, 0
2, 200448, Note_on_c, 0, 52, 127
2, 200543, Note_on_c, 0, 52, 0
2, 200543, Note_on_c, 0, 69, 0
2, 200544, Note_on_c, 0, 67, 127
2, 200544, Note_on_c, 0, 57, 127
2, 200639, Note_on_c, 0, 57, 0
2, 200640, Note_on_c, 0, 49, 127
2, 200735, Note_on_c, 0, 49, 0
2, 200735, Note_on_c, 0, 67, 0
2, 200736, Note_on_c, 0, 66, 127
2, 200736, Note_on_c, 0, 51, 127
2, 200831, Note_on_c, 0, 66, 0
2, 200832, Note_on_c, 0, 71, 127
2, 200927, Note_on_c, 0, 71, 0
2, 200927, Note_on_c, 0, 51, 0
2, 200928, Note_on_c, 0, 69, 127
2, 200928, Note_on_c, 0, 47, 127
2, 201023, Note_on_c, 0, 69, 0
2, 201024, Note_on_c, 0, 67, 127
2, 201119, Note_on_c, 0, 67, 0
2, 201119, Note_on_c, 0, 47, 0
2, 201120, Note_on_c, 0, 66, 127
2, 201120, Note_on_c, 0, 52, 127
2, 201215, Note_on_c, 0, 66, 0
2, 201216, Note_on_c, 0, 64, 127
2, 201311, Note_on_c, 0, 64, 0
2, 201312, Note_on_c, 0, 66, 127
2, 201407, Note_on_c, 0, 66, 0
2, 201408, Note_on_c, 0, 59, 127
2, 201503, Note_on_c, 0, 59, 0
2, 201504, Note_on_c, 0, 66, 127
2, 201599, Note_on_c, 0, 66, 0
2, 201599, Note_on_c, 0, 52, 0
2, 201600, Note_on_c, 0, 69, 127
2, 201600, Note_on_c, 0, 54, 127
2, 201695, Note_on_c, 0, 54, 0
2, 201695, Note_on_c, 0, 69, 0
2, 201696, Note_on_c, 0, 71, 127
2, 201696, Note_on_c, 0, 50, 127
2, 201791, Note_on_c, 0, 71, 0
2, 201792, Note_on_c, 0, 66, 127
2, 201887, Note_on_c, 0, 66, 0
2, 201888, Note_on_c, 0, 68, 127
2, 201983, Note_on_c, 0, 50, 0
2, 201984, Note_on_c, 0, 52, 127
2, 202079, Note_on_c, 0, 52, 0
2, 202079, Note_on_c, 0, 68, 0
2, 202080, Note_on_c, 0, 64, 127
2, 202080, Note_on_c, 0, 50, 127
2, 202175, Note_on_c, 0, 50, 0
2, 202176, Note_on_c, 0, 48, 127
2, 202271, Note_on_c, 0, 48, 0
2, 202271, Note_on_c, 0, 64, 0
2, 202272, Note_on_c, 0, 69, 127
2, 202272, Note_on_c, 0, 47, 127
2, 202367, Note_on_c, 0, 47, 0
2, 202368, Note_on_c, 0, 45, 127
2, 202463, Note_on_c, 0, 45, 0
2, 202464, Note_on_c, 0, 71, 127
2, 202464, Note_on_c, 0, 52, 127
2, 202559, Note_on_c, 0, 71, 0
2, 202560, Note_on_c, 0, 64, 127
2, 202655, Note_on_c, 0, 64, 0
2, 202655, Note_on_c, 0, 52, 0
2, 202656, Note_on_c, 0, 71, 127
2, 202656, Note_on_c, 0, 40, 127
2, 202751, Note_on_c, 0, 71, 0
2, 202752, Note_on_c, 0, 74, 127
2, 202847, Note_on_c, 0, 74, 0
2, 202847, Note_on_c, 0, 40, 0
2, 202847, Note_on_c, 0, 69, 0
2, 202848, Note_on_c, 0, 76, 127
2, 202848, Note_on_c, 0, 68, 127
2, 202848, Note_on_c, 0, 40, 127
2, 202943, Note_on_c, 0, 76, 0
2, 202944, Note_on_c, 0, 71, 127
2, 203039, Note_on_c, 0, 71, 0
2, 203039, Note_on_c, 0, 40, 0
2, 203039, Note_on_c, 0, 68, 0
2, 203040, Note_on_c, 0, 72, 127
2, 203040, Note_on_c, 0, 69, 127
2, 203040, Note_on_c, 0, 45, 127
2, 203135, Note_on_c, 0, 45, 0
2, 203136, Note_on_c, 0, 57, 127
2, 203230, Note_on_c, 0, 69, 0
2, 203231, Note_on_c, 0, 57, 0
2, 203231, Note_on_c, 0, 72, 0
2, 203232, Note_on_c, 0, 69, 127
2, 203232, Note_on_c, 0, 60, 127
2, 203327, Note_on_c, 0, 60, 0
2, 203328, Note_on_c, 0, 59, 127
2, 203423, Note_on_c, 0, 59, 0
2, 203423, Note_on_c, 0, 69, 0
2, 203424, Note_on_c, 0, 72, 127
2, 203424, Note_on_c, 0, 57, 127
2, 203519, Note_on_c, 0, 57, 0
2, 203520, Note_on_c, 0, 55, 127
2, 203615, Note_on_c, 0, 55, 0
2, 203615, Note_on_c, 0, 72, 0
2, 203616, Note_on_c, 0, 74, 127
2, 203616, Note_on_c, 0, 53, 127
2, 203711, Note_on_c, 0, 53, 0
2, 203711, Note_on_c, 0, 74, 0
2, 203712, Note_on_c, 0, 67, 127
2, 203712, Note_on_c, 0, 57, 127
2, 203807, Note_on_c, 0, 57, 0
2, 203807, Note_on_c, 0, 67, 0
2, 203808, Note_on_c, 0, 71, 127
2, 203808, Note_on_c, 0, 55, 127
2, 203903, Note_on_c, 0, 55, 0
2, 203903, Note_on_c, 0, 71, 0
2, 203904, Note_on_c, 0, 74, 127
2, 203904, Note_on_c, 0, 53, 127
2, 203999, Note_on_c, 0, 53, 0
2, 203999, Note_on_c, 0, 74, 0
2, 204000, Note_on_c, 0, 79, 127
2, 204000, Note_on_c, 0, 52, 127
2, 204095, Note_on_c, 0, 52, 0
2, 204095, Note_on_c, 0, 79, 0
2, 204096, Note_on_c, 0, 74, 127
2, 204096, Note_on_c, 0, 50, 127
2, 204191, Note_on_c, 0, 50, 0
2, 204191, Note_on_c, 0, 74, 0
2, 204192, Note_on_c, 0, 76, 127
2, 204192, Note_on_c, 0, 48, 127
2, 204287, Note_on_c, 0, 48, 0
2, 204287, Note_on_c, 0, 76, 0
2, 204288, Note_on_c, 0, 72, 127
2, 204288, Note_on_c, 0, 50, 127
2, 204383, Note_on_c, 0, 50, 0
2, 204383, Note_on_c, 0, 72, 0
2, 204384, Note_on_c, 0, 76, 127
2, 204384, Note_on_c, 0, 48, 127
2, 204479, Note_on_c, 0, 48, 0
2, 204479, Note_on_c, 0, 76, 0
2, 204480, Note_on_c, 0, 79, 127
2, 204480, Note_on_c, 0, 47, 127
2, 204575, Note_on_c, 0, 47, 0
2, 204575, Note_on_c, 0, 79, 0
2, 204576, Note_on_c, 0, 84, 127
2, 204576, Note_on_c, 0, 45, 127
2, 204671, Note_on_c, 0, 45, 0
2, 204671, Note_on_c, 0, 84, 0
2, 204672, Note_on_c, 0, 79, 127
2, 204672, Note_on_c, 0, 43, 127
2, 204767, Note_on_c, 0, 43, 0
2, 204767, Note_on_c, 0, 79, 0
2, 204768, Note_on_c, 0, 81, 127
2, 204768, Note_on_c, 0, 41, 127
2, 204863, Note_on_c, 0, 41, 0
2, 204863, Note_on_c, 0, 81, 0
2, 204864, Note_on_c, 0, 83, 127
2, 204864, Note_on_c, 0, 43, 127
2, 204959, Note_on_c, 0, 43, 0
2, 204959, Note_on_c, 0, 83, 0
2, 204960, Note_on_c, 0, 81, 127
2, 204960, Note_on_c, 0, 41, 127
2, 205055, Note_on_c, 0, 41, 0
2, 205055, Note_on_c, 0, 81, 0
2, 205056, Note_on_c, 0, 79, 127
2, 205056, Note_on_c, 0, 40, 127
2, 205151, Note_on_c, 0, 40, 0
2, 205151, Note_on_c, 0, 79, 0
2, 205152, Note_on_c, 0, 77, 127
2, 205152, Note_on_c, 0, 38, 127
2, 205247, Note_on_c, 0, 38, 0
2, 205247, Note_on_c, 0, 77, 0
2, 205248, Note_on_c, 0, 76, 127
2, 205248, Note_on_c, 0, 36, 127
2, 205343, Note_on_c, 0, 36, 0
2, 205343, Note_on_c, 0, 76, 0
2, 205344, Note_on_c, 0, 74, 127
2, 205344, Note_on_c, 0, 43, 127
2, 205439, Note_on_c, 0, 43, 0
2, 205440, Note_on_c, 0, 45, 127
2, 205535, Note_on_c, 0, 45, 0
2, 205535, Note_on_c, 0, 74, 0
2, 205536, Note_on_c, 0, 67, 127
2, 205536, Note_on_c, 0, 43, 127
2, 205631, Note_on_c, 0, 43, 0
2, 205632, Note_on_c, 0, 41, 127
2, 205727, Note_on_c, 0, 41, 0
2, 205727, Note_on_c, 0, 67, 0
2, 205728, Note_on_c, 0, 79, 127
2, 205728, Note_on_c, 0, 40, 127
2, 205823, Note_on_c, 0, 40, 0
2, 205824, Note_on_c, 0, 38, 127
2, 205919, Note_on_c, 0, 38, 0
2, 205919, Note_on_c, 0, 79, 0
2, 205920, Note_on_c, 0, 76, 127
2, 205920, Note_on_c, 0, 36, 127
2, 206110, Note_on_c, 0, 36, 0
2, 206207, Note_on_c, 0, 76, 0
2, 206208, Note_on_c, 0, 77, 127
2, 206303, Note_on_c, 0, 77, 0
2, 206304, Note_on_c, 0, 79, 127
2, 206304, Note_on_c, 0, 67, 127
2, 206495, Note_on_c, 0, 67, 0
2, 206495, Note_on_c, 0, 79, 0
2, 206496, Note_on_c, 0, 72, 127
2, 206496, Note_on_c, 0, 64, 127
2, 206783, Note_on_c, 0, 64, 0
2, 206784, Note_on_c, 0, 65, 127
2, 206879, Note_on_c, 0, 65, 0
2, 206879, Note_on_c, 0, 72, 0
2, 206880, Note_on_c, 0, 71, 127
2, 206880, Note_on_c, 0, 67, 127
2, 206880, Note_on_c, 0, 55, 127
2, 207071, Note_on_c, 0, 55, 0
2, 207071, Note_on_c, 0, 67, 0
2, 207071, Note_on_c, 0, 71, 0
2, 207072, Note_on_c, 0, 72, 127
2, 207072, Note_on_c, 0, 60, 127
2, 207072, Note_on_c, 0, 52, 127
2, 207263, Note_on_c, 0, 60, 0
2, 207263, Note_on_c, 0, 72, 0
2, 207264, Note_on_c, 0, 76, 127
2, 207264, Note_on_c, 0, 72, 127
2, 207359, Note_on_c, 0, 52, 0
2, 207360, Note_on_c, 0, 53, 127
2, 207455, Note_on_c, 0, 53, 0
2, 207455, Note_on_c, 0, 72, 0
2, 207455, Note_on_c, 0, 76, 0
2, 207456, Note_on_c, 0, 74, 127
2, 207456, Note_on_c, 0, 71, 127
2, 207456, Note_on_c, 0, 55, 127
2, 207647, Note_on_c, 0, 55, 0
2, 207647, Note_on_c, 0, 71, 0
2, 207647, Note_on_c, 0, 74, 0
2, 207648, Note_on_c, 0, 76, 127
2, 207648, Note_on_c, 0, 72, 127
2, 207648, Note_on_c, 0, 48, 127
2, 207743, Note_on_c, 0, 76, 0
2, 207744, Note_on_c, 0, 84, 127
2, 207838, Note_on_c, 0, 48, 0
2, 207838, Note_on_c, 0, 72, 0
2, 207839, Note_on_c, 0, 84, 0
2, 207840, Note_on_c, 0, 83, 127
2, 207935, Note_on_c, 0, 83, 0
2, 207936, Note_on_c, 0, 81, 127
2, 208031, Note_on_c, 0, 81, 0
2, 208032, Note_on_c, 0, 79, 127
2, 208127, Note_on_c, 0, 79, 0
2, 208128, Note_on_c, 0, 77, 127
2, 208223, Note_on_c, 0, 77, 0
2, 208224, Note_on_c, 0, 76, 127
2, 208319, Note_on_c, 0, 76, 0
2, 208320, Note_on_c, 0, 81, 127
2, 208320, Note_on_c, 0, 72, 127
2, 208415, Note_on_c, 0, 72, 0
2, 208415, Note_on_c, 0, 81, 0
2, 208416, Note_on_c, 0, 79, 127
2, 208416, Note_on_c, 0, 71, 127
2, 208511, Note_on_c, 0, 71, 0
2, 208511, Note_on_c, 0, 79, 0
2, 208512, Note_on_c, 0, 77, 127
2, 208512, Note_on_c, 0, 69, 127
2, 208607, Note_on_c, 0, 69, 0
2, 208607, Note_on_c, 0, 77, 0
2, 208608, Note_on_c, 0, 76, 127
2, 208608, Note_on_c, 0, 67, 127
2, 208703, Note_on_c, 0, 67, 0
2, 208703, Note_on_c, 0, 76, 0
2, 208704, Note_on_c, 0, 74, 127
2, 208704, Note_on_c, 0, 65, 127
2, 208799, Note_on_c, 0, 65, 0
2, 208799, Note_on_c, 0, 74, 0
2, 208800, Note_on_c, 0, 72, 127
2, 208800, Note_on_c, 0, 64, 127
2, 208895, Note_on_c, 0, 64, 0
2, 208896, Note_on_c, 0, 69, 127
2, 208896, Note_on_c, 0, 60, 127
2, 208990, Note_on_c, 0, 72, 0
2, 208991, Note_on_c, 0, 60, 0
2, 208991, Note_on_c, 0, 69, 0
2, 208992, Note_on_c, 0, 67, 127
2, 208992, Note_on_c, 0, 59, 127
2, 209087, Note_on_c, 0, 59, 0
2, 209087, Note_on_c, 0, 67, 0
2, 209088, Note_on_c, 0, 65, 127
2, 209088, Note_on_c, 0, 57, 127
2, 209183, Note_on_c, 0, 57, 0
2, 209183, Note_on_c, 0, 65, 0
2, 209184, Note_on_c, 0, 64, 127
2, 209184, Note_on_c, 0, 55, 127
2, 209279, Note_on_c, 0, 55, 0
2, 209279, Note_on_c, 0, 64, 0
2, 209280, Note_on_c, 0, 62, 127
2, 209280, Note_on_c, 0, 53, 127
2, 209375, Note_on_c, 0, 53, 0
2, 209375, Note_on_c, 0, 62, 0
2, 209376, Note_on_c, 0, 60, 127
2, 209376, Note_on_c, 0, 52, 127
2, 209471, Note_on_c, 0, 52, 0
2, 209472, Note_on_c, 0, 57, 127
2, 209567, Note_on_c, 0, 57, 0
2, 209568, Note_on_c, 0, 55, 127
2, 209663, Note_on_c, 0, 55, 0
2, 209664, Note_on_c, 0, 53, 127
2, 209759, Note_on_c, 0, 53, 0
2, 209759, Note_on_c, 0, 60, 0
2, 209760, Note_on_c, 0, 71, 127
2, 209760, Note_on_c, 0, 62, 127
2, 209760, Note_on_c, 0, 52, 127
2, 209855, Note_on_c, 0, 52, 0
2, 209856, Note_on_c, 0, 50, 127
2, 209951, Note_on_c, 0, 50, 0
2, 209951, Note_on_c, 0, 62, 0
2, 209951, Note_on_c, 0, 71, 0
2, 209952, Note_on_c, 0, 72, 127
2, 209952, Note_on_c, 0, 64, 127
2, 209952, Note_on_c, 0, 48, 127
2, 210047, Note_on_c, 0, 64, 0
2, 210048, Note_on_c, 0, 60, 127
2, 210143, Note_on_c, 0, 60, 0
2, 210144, Note_on_c, 0, 64, 127
2, 210239, Note_on_c, 0, 64, 0
2, 210240, Note_on_c, 0, 67, 127
2, 210335, Note_on_c, 0, 67, 0
2, 210335, Note_on_c, 0, 48, 0
2, 210335, Note_on_c, 0, 72, 0
2, 210336, Note_on_c, 0, 72, 127
2, 210336, Note_on_c, 0, 45, 127
2, 210432, Note_on_c, 0, 64, 127
2, 210527, Note_on_c, 0, 64, 0
2, 210527, Note_on_c, 0, 45, 0
2, 210527, Note_on_c, 0, 72, 0
2, 210528, Note_on_c, 0, 69, 127
2, 210528, Note_on_c, 0, 66, 127
2, 210528, Note_on_c, 0, 50, 127
2, 210623, Note_on_c, 0, 50, 0
2, 210624, Note_on_c, 0, 48, 127
2, 210719, Note_on_c, 0, 48, 0
2, 210719, Note_on_c, 0, 66, 0
2, 210719, Note_on_c, 0, 69, 0
2, 210720, Note_on_c, 0, 74, 127
2, 210720, Note_on_c, 0, 62, 127
2, 210720, Note_on_c, 0, 47, 127
2, 210815, Note_on_c, 0, 47, 0
2, 210816, Note_on_c, 0, 45, 127
2, 210911, Note_on_c, 0, 45, 0
2, 210911, Note_on_c, 0, 62, 0
2, 210911, Note_on_c, 0, 74, 0
2, 210912, Note_on_c, 0, 71, 127
2, 210912, Note_on_c, 0, 67, 127
2, 210912, Note_on_c, 0, 47, 127
2, 211007, Note_on_c, 0, 47, 0
2, 211008, Note_on_c, 0, 43, 127
2, 211103, Note_on_c, 0, 43, 0
2, 211103, Note_on_c, 0, 67, 0
2, 211103, Note_on_c, 0, 71, 0
2, 211104, Note_on_c, 0, 69, 127
2, 211104, Note_on_c, 0, 67, 127
2, 211104, Note_on_c, 0, 48, 127
2, 211199, Note_on_c, 0, 48, 0
2, 211200, Note_on_c, 0, 45, 127
2, 211295, Note_on_c, 0, 45, 0
2, 211295, Note_on_c, 0, 67, 0
2, 211296, Note_on_c, 0, 66, 127
2, 211296, Note_on_c, 0, 50, 127
2, 211487, Note_on_c, 0, 50, 0
2, 211487, Note_on_c, 0, 69, 0
2, 211488, Note_on_c, 0, 74, 127
2, 211488, Note_on_c, 0, 38, 127
2, 211679, Note_on_c, 0, 38, 0
2, 211679, Note_on_c, 0, 74, 0
2, 211679, Note_on_c, 0, 66, 0
2, 211680, Note_on_c, 0, 71, 127
2, 211680, Note_on_c, 0, 67, 127
2, 211680, Note_on_c, 0, 43, 127
2, 211967, Note_on_c, 0, 71, 0
2, 211968, Note_on_c, 0, 72, 127
2, 212060, Note_on_c, 0, 43, 0
2, 212063, Note_on_c, 0, 72, 0
2, 212063, Note_on_c, 0, 67, 0
2, 212064, Note_on_c, 0, 74, 127
2, 212064, Note_on_c, 0, 62, 127
2, 212255, Note_on_c, 0, 62, 0
2, 212255, Note_on_c, 0, 74, 0
2, 212256, Note_on_c, 0, 67, 127
2, 212256, Note_on_c, 0, 59, 127
2, 212351, Note_on_c, 0, 67, 0
2, 212352, Note_on_c, 0, 79, 127
2, 212447, Note_on_c, 0, 79, 0
2, 212448, Note_on_c, 0, 78, 127
2, 212543, Note_on_c, 0, 78, 0
2, 212543, Note_on_c, 0, 59, 0
2, 212544, Note_on_c, 0, 76, 127
2, 212544, Note_on_c, 0, 60, 127
2, 212639, Note_on_c, 0, 60, 0
2, 212639, Note_on_c, 0, 76, 0
2, 212640, Note_on_c, 0, 74, 127
2, 212640, Note_on_c, 0, 62, 127
2, 212735, Note_on_c, 0, 74, 0
2, 212736, Note_on_c, 0, 72, 127
2, 212831, Note_on_c, 0, 72, 0
2, 212831, Note_on_c, 0, 62, 0
2, 212832, Note_on_c, 0, 71, 127
2, 212832, Note_on_c, 0, 55, 127
2, 212927, Note_on_c, 0, 55, 0
2, 212927, Note_on_c, 0, 71, 0
2, 212928, Note_on_c, 0, 76, 127
2, 212928, Note_on_c, 0, 67, 127
2, 213023, Note_on_c, 0, 67, 0
2, 213023, Note_on_c, 0, 76, 0
2, 213024, Note_on_c, 0, 74, 127
2, 213024, Note_on_c, 0, 66, 127
2, 213119, Note_on_c, 0, 66, 0
2, 213119, Note_on_c, 0, 74, 0
2, 213120, Note_on_c, 0, 72, 127
2, 213120, Note_on_c, 0, 64, 127
2, 213215, Note_on_c, 0, 64, 0
2, 213215, Note_on_c, 0, 72, 0
2, 213216, Note_on_c, 0, 71, 127
2, 213216, Note_on_c, 0, 62, 127
2, 213311, Note_on_c, 0, 62, 0
2, 213311, Note_on_c, 0, 71, 0
2, 213312, Note_on_c, 0, 69, 127
2, 213312, Note_on_c, 0, 60, 127
2, 213407, Note_on_c, 0, 60, 0
2, 213407, Note_on_c, 0, 69, 0
2, 213408, Note_on_c, 0, 67, 127
2, 213408, Note_on_c, 0, 59, 127
2, 213503, Note_on_c, 0, 59, 0
2, 213504, Note_on_c, 0, 64, 127
2, 213599, Note_on_c, 0, 64, 0
2, 213600, Note_on_c, 0, 62, 127
2, 213695, Note_on_c, 0, 62, 0
2, 213696, Note_on_c, 0, 60, 127
2, 213791, Note_on_c, 0, 60, 0
2, 213791, Note_on_c, 0, 67, 0
2, 213792, Note_on_c, 0, 69, 127
2, 213792, Note_on_c, 0, 59, 127
2, 213887, Note_on_c, 0, 59, 0
2, 213888, Note_on_c, 0, 57, 127
2, 213983, Note_on_c, 0, 57, 0
2, 213983, Note_on_c, 0, 69, 0
2, 213984, Note_on_c, 0, 71, 127
2, 213984, Note_on_c, 0, 55, 127
2, 214079, Note_on_c, 0, 71, 0
2, 214080, Note_on_c, 0, 67, 127
2, 214175, Note_on_c, 0, 67, 0
2, 214176, Note_on_c, 0, 71, 127
2, 214271, Note_on_c, 0, 71, 0
2, 214272, Note_on_c, 0, 74, 127
2, 214367, Note_on_c, 0, 74, 0
2, 214367, Note_on_c, 0, 55, 0
2, 214368, Note_on_c, 0, 79, 127
2, 214368, Note_on_c, 0, 52, 127
2, 214463, Note_on_c, 0, 79, 0
2, 214464, Note_on_c, 0, 71, 127
2, 214559, Note_on_c, 0, 71, 0
2, 214559, Note_on_c, 0, 52, 0
2, 214560, Note_on_c, 0, 73, 127
2, 214560, Note_on_c, 0, 57, 127
2, 214655, Note_on_c, 0, 73, 0
2, 214656, Note_on_c, 0, 69, 127
2, 214751, Note_on_c, 0, 69, 0
2, 214752, Note_on_c, 0, 73, 127
2, 214847, Note_on_c, 0, 73, 0
2, 214847, Note_on_c, 0, 57, 0
2, 214848, Note_on_c, 0, 76, 127
2, 214848, Note_on_c, 0, 55, 127
2, 214943, Note_on_c, 0, 55, 0
2, 214943, Note_on_c, 0, 76, 0
2, 214944, Note_on_c, 0, 81, 127
2, 214944, Note_on_c, 0, 54, 127
2, 215039, Note_on_c, 0, 81, 0
2, 215040, Note_on_c, 0, 74, 127
2, 215135, Note_on_c, 0, 74, 0
2, 215135, Note_on_c, 0, 54, 0
2, 215136, Note_on_c, 0, 83, 127
2, 215136, Note_on_c, 0, 55, 127
2, 215231, Note_on_c, 0, 83, 0
2, 215232, Note_on_c, 0, 74, 127
2, 215327, Note_on_c, 0, 74, 0
2, 215327, Note_on_c, 0, 55, 0
2, 215328, Note_on_c, 0, 73, 127
2, 215328, Note_on_c, 0, 57, 127
2, 215423, Note_on_c, 0, 73, 0
2, 215424, Note_on_c, 0, 76, 127
2, 215519, Note_on_c, 0, 76, 0
2, 215519, Note_on_c, 0, 57, 0
2, 215520, Note_on_c, 0, 81, 127
2, 215520, Note_on_c, 0, 61, 127
2, 215615, Note_on_c, 0, 81, 0
2, 215616, Note_on_c, 0, 76, 127
2, 215711, Note_on_c, 0, 76, 0
2, 215711, Note_on_c, 0, 61, 0
2, 215712, Note_on_c, 0, 78, 127
2, 215712, Note_on_c, 0, 62, 127
2, 215807, Note_on_c, 0, 62, 0
2, 215808, Note_on_c, 0, 50, 127
2, 215903, Note_on_c, 0, 50, 0
2, 215904, Note_on_c, 0, 54, 127
2, 215999, Note_on_c, 0, 54, 0
2, 216000, Note_on_c, 0, 57, 127
2, 216095, Note_on_c, 0, 57, 0
2, 216095, Note_on_c, 0, 78, 0
2, 216096, Note_on_c, 0, 66, 127
2, 216096, Note_on_c, 0, 62, 127
2, 216096, Note_on_c, 0, 50, 127
2, 216191, Note_on_c, 0, 62, 0
2, 216192, Note_on_c, 0, 57, 127
2, 216287, Note_on_c, 0, 57, 0
2, 216287, Note_on_c, 0, 50, 0
2, 216287, Note_on_c, 0, 66, 0
2, 216288, Note_on_c, 0, 67, 127
2, 216288, Note_on_c, 0, 59, 127
2, 216288, Note_on_c, 0, 47, 127
2, 216378, Note_on_c, 0, 67, 0
2, 216383, Note_on_c, 0, 59, 0
2, 216384, Note_on_c, 0, 67, 127
2, 216479, Note_on_c, 0, 67, 0
2, 216480, Note_on_c, 0, 66, 127
2, 216575, Note_on_c, 0, 66, 0
2, 216575, Note_on_c, 0, 47, 0
2, 216576, Note_on_c, 0, 64, 127
2, 216576, Note_on_c, 0, 48, 127
2, 216671, Note_on_c, 0, 48, 0
2, 216671, Note_on_c, 0, 64, 0
2, 216672, Note_on_c, 0, 66, 127
2, 216672, Note_on_c, 0, 62, 127
2, 216672, Note_on_c, 0, 50, 127
2, 216767, Note_on_c, 0, 62, 0
2, 216768, Note_on_c, 0, 60, 127
2, 216863, Note_on_c, 0, 60, 0
2, 216863, Note_on_c, 0, 50, 0
2, 216863, Note_on_c, 0, 66, 0
2, 216864, Note_on_c, 0, 67, 127
2, 216864, Note_on_c, 0, 59, 127
2, 216864, Note_on_c, 0, 43, 127
2, 216954, Note_on_c, 0, 59, 0
2, 216959, Note_on_c, 0, 43, 0
2, 216959, Note_on_c, 0, 67, 0
2, 216960, Note_on_c, 0, 59, 127
2, 216960, Note_on_c, 0, 55, 127
2, 217055, Note_on_c, 0, 55, 0
2, 217055, Note_on_c, 0, 59, 0
2, 217056, Note_on_c, 0, 60, 127
2, 217056, Note_on_c, 0, 54, 127
2, 217151, Note_on_c, 0, 54, 0
2, 217151, Note_on_c, 0, 60, 0
2, 217152, Note_on_c, 0, 62, 127
2, 217152, Note_on_c, 0, 52, 127
2, 217247, Note_on_c, 0, 52, 0
2, 217247, Note_on_c, 0, 62, 0
2, 217248, Note_on_c, 0, 64, 127
2, 217248, Note_on_c, 0, 50, 127
2, 217343, Note_on_c, 0, 50, 0
2, 217343, Note_on_c, 0, 64, 0
2, 217344, Note_on_c, 0, 66, 127
2, 217344, Note_on_c, 0, 48, 127
2, 217439, Note_on_c, 0, 48, 0
2, 217439, Note_on_c, 0, 66, 0
2, 217440, Note_on_c, 0, 67, 127
2, 217440, Note_on_c, 0, 47, 127
2, 217535, Note_on_c, 0, 47, 0
2, 217535, Note_on_c, 0, 67, 0
2, 217536, Note_on_c, 0, 62, 127
2, 217536, Note_on_c, 0, 52, 127
2, 217631, Note_on_c, 0, 52, 0
2, 217631, Note_on_c, 0, 62, 0
2, 217632, Note_on_c, 0, 64, 127
2, 217632, Note_on_c, 0, 50, 127
2, 217727, Note_on_c, 0, 50, 0
2, 217727, Note_on_c, 0, 64, 0
2, 217728, Note_on_c, 0, 66, 127
2, 217728, Note_on_c, 0, 48, 127
2, 217823, Note_on_c, 0, 48, 0
2, 217823, Note_on_c, 0, 66, 0
2, 217824, Note_on_c, 0, 67, 127
2, 217824, Note_on_c, 0, 47, 127
2, 217919, Note_on_c, 0, 47, 0
2, 217919, Note_on_c, 0, 67, 0
2, 217920, Note_on_c, 0, 69, 127
2, 217920, Note_on_c, 0, 45, 127
2, 218015, Note_on_c, 0, 45, 0
2, 218015, Note_on_c, 0, 69, 0
2, 218016, Note_on_c, 0, 71, 127
2, 218016, Note_on_c, 0, 43, 127
2, 218112, Note_on_c, 0, 64, 127
2, 218206, Note_on_c, 0, 71, 0
2, 218207, Note_on_c, 0, 64, 0
2, 218208, Note_on_c, 0, 62, 127
2, 218303, Note_on_c, 0, 62, 0
2, 218304, Note_on_c, 0, 60, 127
2, 218399, Note_on_c, 0, 60, 0
2, 218399, Note_on_c, 0, 43, 0
2, 218400, Note_on_c, 0, 59, 127
2, 218400, Note_on_c, 0, 45, 127
2, 218495, Note_on_c, 0, 59, 0
2, 218496, Note_on_c, 0, 57, 127
2, 218591, Note_on_c, 0, 57, 0
2, 218591, Note_on_c, 0, 45, 0
2, 218592, Note_on_c, 0, 55, 127
2, 218592, Note_on_c, 0, 47, 127
2, 218687, Note_on_c, 0, 47, 0
2, 218688, Note_on_c, 0, 43, 127
2, 218783, Note_on_c, 0, 43, 0
2, 218784, Note_on_c, 0, 47, 127
2, 218879, Note_on_c, 0, 47, 0
2, 218879, Note_on_c, 0, 55, 0
2, 218880, Note_on_c, 0, 57, 127
2, 218880, Note_on_c, 0, 50, 127
2, 218975, Note_on_c, 0, 50, 0
2, 218975, Note_on_c, 0, 57, 0
2, 218976, Note_on_c, 0, 59, 127
2, 218976, Note_on_c, 0, 55, 127
2, 219071, Note_on_c, 0, 55, 0
2, 219072, Note_on_c, 0, 47, 127
2, 219167, Note_on_c, 0, 47, 0
2, 219167, Note_on_c, 0, 59, 0
2, 219168, Note_on_c, 0, 57, 127
2, 219168, Note_on_c, 0, 49, 127
2, 219263, Note_on_c, 0, 57, 0
2, 219264, Note_on_c, 0, 69, 127
2, 219359, Note_on_c, 0, 69, 0
2, 219359, Note_on_c, 0, 49, 0
2, 219360, Note_on_c, 0, 67, 127
2, 219360, Note_on_c, 0, 45, 127
2, 219455, Note_on_c, 0, 67, 0
2, 219456, Note_on_c, 0, 66, 127
2, 219551, Note_on_c, 0, 66, 0
2, 219551, Note_on_c, 0, 45, 0
2, 219552, Note_on_c, 0, 64, 127
2, 219552, Note_on_c, 0, 50, 127
2, 219647, Note_on_c, 0, 64, 0
2, 219648, Note_on_c, 0, 62, 127
2, 219743, Note_on_c, 0, 62, 0
2, 219744, Note_on_c, 0, 64, 127
2, 219935, Note_on_c, 0, 64, 0
2, 219935, Note_on_c, 0, 50, 0
2, 219936, Note_on_c, 0, 57, 127
2, 219936, Note_on_c, 0, 49, 127
2, 220031, Note_on_c, 0, 49, 0
2, 220032, Note_on_c, 0, 47, 127
2, 220127, Note_on_c, 0, 47, 0
2, 220127, Note_on_c, 0, 57, 0
2, 220128, Note_on_c, 0, 69, 127
2, 220128, Note_on_c, 0, 49, 127
2, 220223, Note_on_c, 0, 49, 0
2, 220224, Note_on_c, 0, 45, 127
2, 220319, Note_on_c, 0, 45, 0
2, 220319, Note_on_c, 0, 69, 0
2, 220320, Note_on_c, 0, 66, 127
2, 220320, Note_on_c, 0, 50, 127
2, 220415, Note_on_c, 0, 50, 0
2, 220416, Note_on_c, 0, 49, 127
2, 220511, Note_on_c, 0, 49, 0
2, 220512, Note_on_c, 0, 50, 127
2, 220607, Note_on_c, 0, 50, 0
2, 220607, Note_on_c, 0, 66, 0
2, 220608, Note_on_c, 0, 67, 127
2, 220608, Note_on_c, 0, 52, 127
2, 220703, Note_on_c, 0, 52, 0
2, 220703, Note_on_c, 0, 67, 0
2, 220704, Note_on_c, 0, 74, 127
2, 220704, Note_on_c, 0, 69, 127
2, 220704, Note_on_c, 0, 54, 127
2, 220799, Note_on_c, 0, 54, 0
2, 220800, Note_on_c, 0, 50, 127
2, 220895, Note_on_c, 0, 50, 0
2, 220895, Note_on_c, 0, 69, 0
2, 220895, Note_on_c, 0, 74, 0
2, 220896, Note_on_c, 0, 71, 127
2, 220896, Note_on_c, 0, 62, 127
2, 220896, Note_on_c, 0, 55, 127
2, 220991, Note_on_c, 0, 55, 0
2, 220992, Note_on_c, 0, 54, 127
2, 221087, Note_on_c, 0, 54, 0
2, 221088, Note_on_c, 0, 55, 127
2, 221183, Note_on_c, 0, 55, 0
2, 221183, Note_on_c, 0, 71, 0
2, 221184, Note_on_c, 0, 72, 127
2, 221184, Note_on_c, 0, 57, 127
2, 221279, Note_on_c, 0, 57, 0
2, 221279, Note_on_c, 0, 72, 0
2, 221279, Note_on_c, 0, 62, 0
2, 221280, Note_on_c, 0, 74, 127
2, 221280, Note_on_c, 0, 67, 127
2, 221280, Note_on_c, 0, 59, 127
2, 221375, Note_on_c, 0, 59, 0
2, 221376, Note_on_c, 0, 55, 127
2, 221471, Note_on_c, 0, 55, 0
2, 221471, Note_on_c, 0, 67, 0
2, 221471, Note_on_c, 0, 74, 0
2, 221472, Note_on_c, 0, 67, 127
2, 221472, Note_on_c, 0, 64, 127
2, 221472, Note_on_c, 0, 60, 127
2, 221567, Note_on_c, 0, 60, 0
2, 221568, Note_on_c, 0, 59, 127
2, 221663, Note_on_c, 0, 59, 0
2, 221664, Note_on_c, 0, 60, 127
2, 221759, Note_on_c, 0, 60, 0
2, 221759, Note_on_c, 0, 64, 0
2, 221760, Note_on_c, 0, 66, 127
2, 221760, Note_on_c, 0, 62, 127
2, 221855, Note_on_c, 0, 62, 0
2, 221855, Note_on_c, 0, 66, 0
2, 221855, Note_on_c, 0, 67, 0
2, 221856, Note_on_c, 0, 76, 127
2, 221856, Note_on_c, 0, 67, 127
2, 221856, Note_on_c, 0, 60, 127
2, 221951, Note_on_c, 0, 60, 0
2, 221952, Note_on_c, 0, 59, 127
2, 222047, Note_on_c, 0, 59, 0
2, 222047, Note_on_c, 0, 67, 0
2, 222047, Note_on_c, 0, 76, 0
2, 222048, Note_on_c, 0, 72, 127
2, 222048, Note_on_c, 0, 69, 127
2, 222048, Note_on_c, 0, 57, 127
2, 222143, Note_on_c, 0, 57, 0
2, 222144, Note_on_c, 0, 55, 127
2, 222239, Note_on_c, 0, 55, 0
2, 222240, Note_on_c, 0, 57, 127
2, 222335, Note_on_c, 0, 57, 0
2, 222335, Note_on_c, 0, 72, 0
2, 222336, Note_on_c, 0, 74, 127
2, 222336, Note_on_c, 0, 59, 127
2, 222431, Note_on_c, 0, 59, 0
2, 222431, Note_on_c, 0, 74, 0
2, 222431, Note_on_c, 0, 69, 0
2, 222432, Note_on_c, 0, 76, 127
2, 222432, Note_on_c, 0, 69, 127
2, 222432, Note_on_c, 0, 60, 127
2, 222527, Note_on_c, 0, 60, 0
2, 222528, Note_on_c, 0, 57, 127
2, 222623, Note_on_c, 0, 57, 0
2, 222623, Note_on_c, 0, 69, 0
2, 222623, Note_on_c, 0, 76, 0
2, 222624, Note_on_c, 0, 69, 127
2, 222624, Note_on_c, 0, 66, 127
2, 222624, Note_on_c, 0, 62, 127
2, 222719, Note_on_c, 0, 62, 0
2, 222720, Note_on_c, 0, 60, 127
2, 222815, Note_on_c, 0, 60, 0
2, 222816, Note_on_c, 0, 62, 127
2, 222911, Note_on_c, 0, 62, 0
2, 222911, Note_on_c, 0, 66, 0
2, 222912, Note_on_c, 0, 67, 127
2, 222912, Note_on_c, 0, 64, 127
2, 223007, Note_on_c, 0, 64, 0
2, 223007, Note_on_c, 0, 67, 0
2, 223007, Note_on_c, 0, 69, 0
2, 223008, Note_on_c, 0, 74, 127
2, 223008, Note_on_c, 0, 69, 127
2, 223008, Note_on_c, 0, 66, 127
2, 223103, Note_on_c, 0, 66, 0
2, 223104, Note_on_c, 0, 62, 127
2, 223199, Note_on_c, 0, 62, 0
2, 223199, Note_on_c, 0, 69, 0
2, 223199, Note_on_c, 0, 74, 0
2, 223200, Note_on_c, 0, 71, 127
2, 223200, Note_on_c, 0, 67, 127
2, 223296, Note_on_c, 0, 55, 127
2, 223391, Note_on_c, 0, 55, 0
2, 223392, Note_on_c, 0, 54, 127
2, 223487, Note_on_c, 0, 54, 0
2, 223487, Note_on_c, 0, 71, 0
2, 223488, Note_on_c, 0, 72, 127
2, 223488, Note_on_c, 0, 52, 127
2, 223583, Note_on_c, 0, 52, 0
2, 223583, Note_on_c, 0, 72, 0
2, 223583, Note_on_c, 0, 67, 0
2, 223584, Note_on_c, 0, 74, 127
2, 223584, Note_on_c, 0, 66, 127
2, 223584, Note_on_c, 0, 50, 127
2, 223679, Note_on_c, 0, 50, 0
2, 223680, Note_on_c, 0, 48, 127
2, 223775, Note_on_c, 0, 48, 0
2, 223775, Note_on_c, 0, 66, 0
2, 223775, Note_on_c, 0, 74, 0
2, 223776, Note_on_c, 0, 67, 127
2, 223776, Note_on_c, 0, 47, 127
2, 223871, Note_on_c, 0, 47, 0
2, 223872, Note_on_c, 0, 79, 127
2, 223872, Note_on_c, 0, 52, 127
2, 223967, Note_on_c, 0, 52, 0
2, 223967, Note_on_c, 0, 79, 0
2, 223968, Note_on_c, 0, 78, 127
2, 223968, Note_on_c, 0, 50, 127
2, 224063, Note_on_c, 0, 50, 0
2, 224063, Note_on_c, 0, 78, 0
2, 224064, Note_on_c, 0, 76, 127
2, 224064, Note_on_c, 0, 48, 127
2, 224159, Note_on_c, 0, 48, 0
2, 224159, Note_on_c, 0, 76, 0
2, 224160, Note_on_c, 0, 74, 127
2, 224160, Note_on_c, 0, 47, 127
2, 224255, Note_on_c, 0, 47, 0
2, 224255, Note_on_c, 0, 74, 0
2, 224256, Note_on_c, 0, 72, 127
2, 224256, Note_on_c, 0, 45, 127
2, 224351, Note_on_c, 0, 45, 0
2, 224351, Note_on_c, 0, 72, 0
2, 224352, Note_on_c, 0, 71, 127
2, 224352, Note_on_c, 0, 43, 127
2, 224447, Note_on_c, 0, 71, 0
2, 224448, Note_on_c, 0, 76, 127
2, 224543, Note_on_c, 0, 76, 0
2, 224543, Note_on_c, 0, 43, 0
2, 224543, Note_on_c, 0, 67, 0
2, 224544, Note_on_c, 0, 74, 127
2, 224544, Note_on_c, 0, 59, 127
2, 224544, Note_on_c, 0, 55, 127
2, 224639, Note_on_c, 0, 74, 0
2, 224640, Note_on_c, 0, 72, 127
2, 224735, Note_on_c, 0, 72, 0
2, 224735, Note_on_c, 0, 55, 0
2, 224735, Note_on_c, 0, 59, 0
2, 224736, Note_on_c, 0, 71, 127
2, 224736, Note_on_c, 0, 60, 127
2, 224736, Note_on_c, 0, 57, 127
2, 224831, Note_on_c, 0, 71, 0
2, 224832, Note_on_c, 0, 69, 127
2, 224927, Note_on_c, 0, 69, 0
2, 224927, Note_on_c, 0, 57, 0
2, 224927, Note_on_c, 0, 60, 0
2, 224928, Note_on_c, 0, 67, 127
2, 224928, Note_on_c, 0, 62, 127
2, 224928, Note_on_c, 0, 59, 127
2, 225018, Note_on_c, 0, 67, 0
2, 225023, Note_on_c, 0, 62, 0
2, 225024, Note_on_c, 0, 67, 127
2, 225120, Note_on_c, 0, 66, 127
2, 225215, Note_on_c, 0, 66, 0
2, 225216, Note_on_c, 0, 64, 127
2, 225304, Note_on_c, 0, 67, 0
2, 225311, Note_on_c, 0, 64, 0
2, 225311, Note_on_c, 0, 59, 0
2, 225312, Note_on_c, 0, 69, 127
2, 225312, Note_on_c, 0, 62, 127
2, 225312, Note_on_c, 0, 54, 127
2, 225407, Note_on_c, 0, 62, 0
2, 225408, Note_on_c, 0, 60, 127
2, 225503, Note_on_c, 0, 60, 0
2, 225503, Note_on_c, 0, 54, 0
2, 225503, Note_on_c, 0, 69, 0
2, 225504, Note_on_c, 0, 71, 127
2, 225504, Note_on_c, 0, 59, 127
2, 225504, Note_on_c, 0, 55, 127
2, 225599, Note_on_c, 0, 71, 0
2, 225600, Note_on_c, 0, 67, 127
2, 225695, Note_on_c, 0, 67, 0
2, 225696, Note_on_c, 0, 71, 127
2, 225791, Note_on_c, 0, 71, 0
2, 225791, Note_on_c, 0, 55, 0
2, 225791, Note_on_c, 0, 59, 0
2, 225792, Note_on_c, 0, 74, 127
2, 225792, Note_on_c, 0, 57, 127
2, 225792, Note_on_c, 0, 54, 127
2, 225887, Note_on_c, 0, 54, 0
2, 225887, Note_on_c, 0, 57, 0
2, 225887, Note_on_c, 0, 74, 0
2, 225888, Note_on_c, 0, 79, 127
2, 225888, Note_on_c, 0, 55, 127
2, 225888, Note_on_c, 0, 52, 127
2, 225983, Note_on_c, 0, 79, 0
2, 225984, Note_on_c, 0, 71, 127
2, 226079, Note_on_c, 0, 71, 0
2, 226079, Note_on_c, 0, 52, 0
2, 226079, Note_on_c, 0, 55, 0
2, 226080, Note_on_c, 0, 73, 127
2, 226080, Note_on_c, 0, 57, 127
2, 226176, Note_on_c, 0, 67, 127
2, 226271, Note_on_c, 0, 67, 0
2, 226271, Note_on_c, 0, 73, 0
2, 226272, Note_on_c, 0, 69, 127
2, 226272, Note_on_c, 0, 66, 127
2, 226367, Note_on_c, 0, 66, 0
2, 226368, Note_on_c, 0, 64, 127
2, 226463, Note_on_c, 0, 64, 0
2, 226463, Note_on_c, 0, 69, 0
2, 226463, Note_on_c, 0, 57, 0
2, 226464, Note_on_c, 0, 74, 127
2, 226464, Note_on_c, 0, 66, 127
2, 226464, Note_on_c, 0, 59, 127
2, 226559, Note_on_c, 0, 66, 0
2, 226560, Note_on_c, 0, 62, 127
2, 226655, Note_on_c, 0, 62, 0
2, 226655, Note_on_c, 0, 59, 0
2, 226656, Note_on_c, 0, 67, 127
2, 226656, Note_on_c, 0, 64, 127
2, 226751, Note_on_c, 0, 67, 0
2, 226752, Note_on_c, 0, 69, 127
2, 226847, Note_on_c, 0, 69, 0
2, 226847, Note_on_c, 0, 64, 0
2, 226848, Note_on_c, 0, 67, 127
2, 226848, Note_on_c, 0, 52, 127
2, 226943, Note_on_c, 0, 67, 0
2, 226944, Note_on_c, 0, 66, 127
2, 227039, Note_on_c, 0, 66, 0
2, 227039, Note_on_c, 0, 52, 0
2, 227039, Note_on_c, 0, 74, 0
2, 227040, Note_on_c, 0, 72, 127
2, 227040, Note_on_c, 0, 64, 127
2, 227040, Note_on_c, 0, 57, 127
2, 227135, Note_on_c, 0, 64, 0
2, 227136, Note_on_c, 0, 67, 127
2, 227231, Note_on_c, 0, 67, 0
2, 227231, Note_on_c, 0, 57, 0
2, 227232, Note_on_c, 0, 66, 127
2, 227232, Note_on_c, 0, 62, 127
2, 227327, Note_on_c, 0, 66, 0
2, 227328, Note_on_c, 0, 67, 127
2, 227423, Note_on_c, 0, 67, 0
2, 227423, Note_on_c, 0, 62, 0
2, 227424, Note_on_c, 0, 66, 127
2, 227424, Note_on_c, 0, 50, 127
2, 227519, Note_on_c, 0, 66, 0
2, 227520, Note_on_c, 0, 64, 127
2, 227615, Note_on_c, 0, 64, 0
2, 227615, Note_on_c, 0, 50, 0
2, 227615, Note_on_c, 0, 72, 0
2, 227616, Note_on_c, 0, 71, 127
2, 227616, Note_on_c, 0, 62, 127
2, 227616, Note_on_c, 0, 55, 127
2, 227711, Note_on_c, 0, 62, 0
2, 227712, Note_on_c, 0, 65, 127
2, 227807, Note_on_c, 0, 65, 0
2, 227807, Note_on_c, 0, 55, 0
2, 227808, Note_on_c, 0, 64, 127
2, 227808, Note_on_c, 0, 60, 127
2, 227903, Note_on_c, 0, 71, 0
2, 227904, Note_on_c, 0, 74, 127
2, 227999, Note_on_c, 0, 74, 0
2, 228000, Note_on_c, 0, 72, 127
2, 228095, Note_on_c, 0, 72, 0
2, 228096, Note_on_c, 0, 71, 127
2, 228191, Note_on_c, 0, 71, 0
2, 228191, Note_on_c, 0, 60, 0
2, 228191, Note_on_c, 0, 64, 0
2, 228192, Note_on_c, 0, 69, 127
2, 228192, Note_on_c, 0, 64, 127
2, 228192, Note_on_c, 0, 60, 127
2, 228287, Note_on_c, 0, 69, 0
2, 228288, Note_on_c, 0, 67, 127
2, 228383, Note_on_c, 0, 67, 0
2, 228383, Note_on_c, 0, 64, 0
2, 228384, Note_on_c, 0, 66, 127
2, 228384, Note_on_c, 0, 62, 127
2, 228474, Note_on_c, 0, 62, 0
2, 228479, Note_on_c, 0, 66, 0
2, 228480, Note_on_c, 0, 62, 127
2, 228576, Note_on_c, 0, 66, 127
2, 228671, Note_on_c, 0, 66, 0
2, 228671, Note_on_c, 0, 60, 0
2, 228672, Note_on_c, 0, 69, 127
2, 228672, Note_on_c, 0, 60, 127
2, 228767, Note_on_c, 0, 60, 0
2, 228767, Note_on_c, 0, 69, 0
2, 228768, Note_on_c, 0, 74, 127
2, 228768, Note_on_c, 0, 59, 127
2, 228863, Note_on_c, 0, 59, 0
2, 228864, Note_on_c, 0, 57, 127
2, 228959, Note_on_c, 0, 57, 0
2, 228960, Note_on_c, 0, 62, 0
2, 228960, Note_on_c, 0, 64, 127
2, 228960, Note_on_c, 0, 56, 127
2, 229055, Note_on_c, 0, 56, 0
2, 229056, Note_on_c, 0, 52, 127
2, 229151, Note_on_c, 0, 52, 0
2, 229152, Note_on_c, 0, 56, 127
2, 229247, Note_on_c, 0, 56, 0
2, 229247, Note_on_c, 0, 64, 0
2, 229248, Note_on_c, 0, 66, 127
2, 229248, Note_on_c, 0, 59, 127
2, 229343, Note_on_c, 0, 59, 0
2, 229343, Note_on_c, 0, 66, 0
2, 229344, Note_on_c, 0, 68, 127
2, 229344, Note_on_c, 0, 64, 127
2, 229439, Note_on_c, 0, 74, 0
2, 229440, Note_on_c, 0, 74, 127
2, 229535, Note_on_c, 0, 74, 0
2, 229535, Note_on_c, 0, 64, 0
2, 229535, Note_on_c, 0, 68, 0
2, 229536, Note_on_c, 0, 72, 127
2, 229536, Note_on_c, 0, 69, 127
2, 229536, Note_on_c, 0, 57, 127
2, 229631, Note_on_c, 0, 72, 0
2, 229632, Note_on_c, 0, 74, 127
2, 229727, Note_on_c, 0, 74, 0
2, 229728, Note_on_c, 0, 72, 127
2, 229823, Note_on_c, 0, 72, 0
2, 229824, Note_on_c, 0, 71, 127
2, 229916, Note_on_c, 0, 69, 0
2, 229919, Note_on_c, 0, 71, 0
2, 229920, Note_on_c, 0, 69, 127
2, 230015, Note_on_c, 0, 57, 0
2, 230016, Note_on_c, 0, 71, 127
2, 230016, Note_on_c, 0, 55, 127
2, 230110, Note_on_c, 0, 69, 0
2, 230111, Note_on_c, 0, 55, 0
2, 230111, Note_on_c, 0, 71, 0
2, 230112, Note_on_c, 0, 72, 127
2, 230112, Note_on_c, 0, 62, 127
2, 230112, Note_on_c, 0, 54, 127
2, 230207, Note_on_c, 0, 54, 0
2, 230208, Note_on_c, 0, 50, 127
2, 230303, Note_on_c, 0, 50, 0
2, 230304, Note_on_c, 0, 54, 127
2, 230399, Note_on_c, 0, 54, 0
2, 230399, Note_on_c, 0, 62, 0
2, 230400, Note_on_c, 0, 64, 127
2, 230400, Note_on_c, 0, 57, 127
2, 230495, Note_on_c, 0, 57, 0
2, 230495, Note_on_c, 0, 64, 0
2, 230496, Note_on_c, 0, 66, 127
2, 230496, Note_on_c, 0, 62, 127
2, 230591, Note_on_c, 0, 72, 0
2, 230592, Note_on_c, 0, 72, 127
2, 230687, Note_on_c, 0, 72, 0
2, 230687, Note_on_c, 0, 62, 0
2, 230687, Note_on_c, 0, 66, 0
2, 230688, Note_on_c, 0, 71, 127
2, 230688, Note_on_c, 0, 67, 127
2, 230688, Note_on_c, 0, 55, 127
2, 230783, Note_on_c, 0, 71, 0
2, 230784, Note_on_c, 0, 72, 127
2, 230879, Note_on_c, 0, 72, 0
2, 230880, Note_on_c, 0, 71, 127
2, 230975, Note_on_c, 0, 71, 0
2, 230976, Note_on_c, 0, 69, 127
2, 231068, Note_on_c, 0, 67, 0
2, 231071, Note_on_c, 0, 69, 0
2, 231072, Note_on_c, 0, 67, 127
2, 231167, Note_on_c, 0, 55, 0
2, 231168, Note_on_c, 0, 69, 127
2, 231168, Note_on_c, 0, 53, 127
2, 231262, Note_on_c, 0, 67, 0
2, 231263, Note_on_c, 0, 53, 0
2, 231263, Note_on_c, 0, 69, 0
2, 231264, Note_on_c, 0, 71, 127
2, 231264, Note_on_c, 0, 60, 127
2, 231264, Note_on_c, 0, 52, 127
2, 231359, Note_on_c, 0, 52, 0
2, 231360, Note_on_c, 0, 48, 127
2, 231455, Note_on_c, 0, 48, 0
2, 231456, Note_on_c, 0, 52, 127
2, 231551, Note_on_c, 0, 52, 0
2, 231551, Note_on_c, 0, 60, 0
2, 231551, Note_on_c, 0, 71, 0
2, 231552, Note_on_c, 0, 71, 127
2, 231552, Note_on_c, 0, 62, 127
2, 231552, Note_on_c, 0, 55, 127
2, 231647, Note_on_c, 0, 55, 0
2, 231647, Note_on_c, 0, 62, 0
2, 231647, Note_on_c, 0, 71, 0
2, 231648, Note_on_c, 0, 69, 127
2, 231648, Note_on_c, 0, 64, 127
2, 231648, Note_on_c, 0, 60, 127
2, 231743, Note_on_c, 0, 69, 0
2, 231744, Note_on_c, 0, 67, 127
2, 231839, Note_on_c, 0, 67, 0
2, 231839, Note_on_c, 0, 64, 0
2, 231840, Note_on_c, 0, 66, 127
2, 231840, Note_on_c, 0, 62, 127
2, 231930, Note_on_c, 0, 62, 0
2, 231935, Note_on_c, 0, 66, 0
2, 231936, Note_on_c, 0, 62, 127
2, 232032, Note_on_c, 0, 66, 127
2, 232127, Note_on_c, 0, 66, 0
2, 232127, Note_on_c, 0, 60, 0
2, 232128, Note_on_c, 0, 69, 127
2, 232128, Note_on_c, 0, 60, 127
2, 232216, Note_on_c, 0, 62, 0
2, 232223, Note_on_c, 0, 60, 0
2, 232223, Note_on_c, 0, 69, 0
2, 232224, Note_on_c, 0, 74, 127
2, 232224, Note_on_c, 0, 62, 127
2, 232224, Note_on_c, 0, 59, 127
2, 232319, Note_on_c, 0, 74, 0
2, 232320, Note_on_c, 0, 67, 127
2, 232414, Note_on_c, 0, 62, 0
2, 232415, Note_on_c, 0, 67, 0
2, 232415, Note_on_c, 0, 59, 0
2, 232416, Note_on_c, 0, 76, 127
2, 232416, Note_on_c, 0, 60, 127
2, 232511, Note_on_c, 0, 76, 0
2, 232512, Note_on_c, 0, 72, 127
2, 232607, Note_on_c, 0, 72, 0
2, 232608, Note_on_c, 0, 76, 127
2, 232703, Note_on_c, 0, 76, 0
2, 232703, Note_on_c, 0, 60, 0
2, 232704, Note_on_c, 0, 79, 127
2, 232704, Note_on_c, 0, 59, 127
2, 232799, Note_on_c, 0, 59, 0
2, 232799, Note_on_c, 0, 79, 0
2, 232800, Note_on_c, 0, 84, 127
2, 232800, Note_on_c, 0, 57, 127
2, 232895, Note_on_c, 0, 84, 0
2, 232896, Note_on_c, 0, 76, 127
2, 232991, Note_on_c, 0, 76, 0
2, 232991, Note_on_c, 0, 57, 0
2, 232992, Note_on_c, 0, 78, 127
2, 232992, Note_on_c, 0, 50, 127
2, 233087, Note_on_c, 0, 78, 0
2, 233088, Note_on_c, 0, 74, 127
2, 233183, Note_on_c, 0, 74, 0
2, 233184, Note_on_c, 0, 76, 127
2, 233279, Note_on_c, 0, 76, 0
2, 233280, Note_on_c, 0, 78, 127
2, 233280, Note_on_c, 0, 60, 127
2, 233372, Note_on_c, 0, 50, 0
2, 233375, Note_on_c, 0, 60, 0
2, 233375, Note_on_c, 0, 78, 0
2, 233376, Note_on_c, 0, 79, 127
2, 233376, Note_on_c, 0, 59, 127
2, 233472, Note_on_c, 0, 52, 127
2, 233567, Note_on_c, 0, 52, 0
2, 233568, Note_on_c, 0, 48, 127
2, 233663, Note_on_c, 0, 59, 0
2, 233664, Note_on_c, 0, 60, 127
2, 233759, Note_on_c, 0, 60, 0
2, 233760, Note_on_c, 0, 57, 127
2, 233855, Note_on_c, 0, 79, 0
2, 233856, Note_on_c, 0, 81, 127
2, 233951, Note_on_c, 0, 81, 0
2, 233951, Note_on_c, 0, 57, 0
2, 233951, Note_on_c, 0, 48, 0
2, 233952, Note_on_c, 0, 78, 127
2, 233952, Note_on_c, 0, 57, 127
2, 233952, Note_on_c, 0, 50, 127
2, 234143, Note_on_c, 0, 50, 0
2, 234143, Note_on_c, 0, 57, 0
2, 234143, Note_on_c, 0, 78, 0
2, 234144, Note_on_c, 0, 79, 127
2, 234144, Note_on_c, 0, 55, 127
2, 234144, Note_on_c, 0, 47, 127
2, 234334, Note_on_c, 0, 55, 0
2, 234334, Note_on_c, 0, 79, 0
2, 234431, Note_on_c, 0, 47, 0
2, 234432, Note_on_c, 0, 48, 127
2, 234527, Note_on_c, 0, 48, 0
2, 234528, Note_on_c, 0, 62, 127
2, 234528, Note_on_c, 0, 50, 127
2, 234719, Note_on_c, 0, 50, 0
2, 234719, Note_on_c, 0, 62, 0
2, 234720, Note_on_c, 0, 59, 127
2, 234720, Note_on_c, 0, 43, 127
2, 235007, Note_on_c, 0, 59, 0
2, 235008, Note_on_c, 0, 60, 127
2, 235103, Note_on_c, 0, 60, 0
2, 235103, Note_on_c, 0, 43, 0
2, 235104, Note_on_c, 0, 74, 127
2, 235104, Note_on_c, 0, 62, 127
2, 235104, Note_on_c, 0, 42, 127
2, 235295, Note_on_c, 0, 42, 0
2, 235295, Note_on_c, 0, 62, 0
2, 235295, Note_on_c, 0, 74, 0
2, 235296, Note_on_c, 0, 71, 127
2, 235296, Note_on_c, 0, 55, 127
2, 235296, Note_on_c, 0, 43, 127
2, 235386, Note_on_c, 0, 55, 0
2, 235391, Note_on_c, 0, 43, 0
2, 235392, Note_on_c, 0, 55, 127
2, 235488, Note_on_c, 0, 54, 127
2, 235583, Note_on_c, 0, 54, 0
2, 235583, Note_on_c, 0, 71, 0
2, 235584, Note_on_c, 0, 72, 127
2, 235584, Note_on_c, 0, 52, 127
2, 235672, Note_on_c, 0, 55, 0
2, 235679, Note_on_c, 0, 52, 0
2, 235679, Note_on_c, 0, 72, 0
2, 235680, Note_on_c, 0, 74, 127
2, 235680, Note_on_c, 0, 54, 127
2, 235680, Note_on_c, 0, 50, 127
2, 235775, Note_on_c, 0, 50, 0
2, 235776, Note_on_c, 0, 48, 127
2, 235871, Note_on_c, 0, 48, 0
2, 235871, Note_on_c, 0, 54, 0
2, 235871, Note_on_c, 0, 74, 0
2, 235872, Note_on_c, 0, 67, 127
2, 235872, Note_on_c, 0, 55, 127
2, 235872, Note_on_c, 0, 47, 127
2, 235967, Note_on_c, 0, 67, 0
2, 235968, Note_on_c, 0, 79, 127
2, 236063, Note_on_c, 0, 79, 0
2, 236064, Note_on_c, 0, 78, 127
2, 236159, Note_on_c, 0, 78, 0
2, 236159, Note_on_c, 0, 47, 0
2, 236160, Note_on_c, 0, 76, 127
2, 236160, Note_on_c, 0, 48, 127
2, 236252, Note_on_c, 0, 55, 0
2, 236255, Note_on_c, 0, 48, 0
2, 236255, Note_on_c, 0, 76, 0
2, 236256, Note_on_c, 0, 74, 127
2, 236256, Note_on_c, 0, 50, 127
2, 236351, Note_on_c, 0, 74, 0
2, 236352, Note_on_c, 0, 72, 127
2, 236447, Note_on_c, 0, 72, 0
2, 236447, Note_on_c, 0, 50, 0
2, 236448, Note_on_c, 0, 71, 127
2, 236448, Note_on_c, 0, 43, 127
2, 236543, Note_on_c, 0, 71, 0
2, 236544, Note_on_c, 0, 76, 127
2, 236544, Note_on_c, 0, 67, 127
2, 236638, Note_on_c, 0, 43, 0
2, 236639, Note_on_c, 0, 67, 0
2, 236639, Note_on_c, 0, 76, 0
2, 236640, Note_on_c, 0, 74, 127
2, 236640, Note_on_c, 0, 66, 127
2, 236735, Note_on_c, 0, 66, 0
2, 236735, Note_on_c, 0, 74, 0
2, 236736, Note_on_c, 0, 72, 127
2, 236736, Note_on_c, 0, 64, 127
2, 236831, Note_on_c, 0, 64, 0
2, 236831, Note_on_c, 0, 72, 0
2, 236832, Note_on_c, 0, 71, 127
2, 236832, Note_on_c, 0, 62, 127
2, 236927, Note_on_c, 0, 62, 0
2, 236927, Note_on_c, 0, 71, 0
2, 236928, Note_on_c, 0, 69, 127
2, 236928, Note_on_c, 0, 60, 127
2, 237023, Note_on_c, 0, 60, 0
2, 237023, Note_on_c, 0, 69, 0
2, 237024, Note_on_c, 0, 67, 127
2, 237024, Note_on_c, 0, 59, 127
2, 237119, Note_on_c, 0, 59, 0
2, 237120, Note_on_c, 0, 64, 127
2, 237120, Note_on_c, 0, 55, 127
2, 237214, Note_on_c, 0, 67, 0
2, 237215, Note_on_c, 0, 55, 0
2, 237215, Note_on_c, 0, 64, 0
2, 237216, Note_on_c, 0, 62, 127
2, 237216, Note_on_c, 0, 54, 127
2, 237311, Note_on_c, 0, 54, 0
2, 237311, Note_on_c, 0, 62, 0
2, 237312, Note_on_c, 0, 60, 127
2, 237312, Note_on_c, 0, 52, 127
2, 237407, Note_on_c, 0, 52, 0
2, 237407, Note_on_c, 0, 60, 0
2, 237408, Note_on_c, 0, 59, 127
2, 237408, Note_on_c, 0, 50, 127
2, 237503, Note_on_c, 0, 50, 0
2, 237503, Note_on_c, 0, 59, 0
2, 237504, Note_on_c, 0, 57, 127
2, 237504, Note_on_c, 0, 48, 127
2, 237599, Note_on_c, 0, 48, 0
2, 237599, Note_on_c, 0, 57, 0
2, 237600, Note_on_c, 0, 55, 127
2, 237600, Note_on_c, 0, 47, 127
2, 237695, Note_on_c, 0, 47, 0
2, 237696, Note_on_c, 0, 52, 127
2, 237790, Note_on_c, 0, 55, 0
2, 237791, Note_on_c, 0, 52, 0
2, 237792, Note_on_c, 0, 50, 127
2, 237887, Note_on_c, 0, 50, 0
2, 237888, Note_on_c, 0, 48, 127
2, 237983, Note_on_c, 0, 48, 0
2, 237984, Note_on_c, 0, 47, 127
2, 238079, Note_on_c, 0, 47, 0
2, 238080, Note_on_c, 0, 45, 127
2, 238175, Note_on_c, 0, 45, 0
2, 238176, Note_on_c, 0, 43, 127
2, 239326, Note_on_c, 0, 43, 0
2, 239326, End_track
3, 0, Start_track
3, 0, MIDI_port, 0
3, 0, Title_t, "Toccata Bwv.916"
3, 0, End_track
0, 0, End_of_file
