0, 0, Header, 1, 8, 384
1, 0, Start_track
1, 0, Time_signature, 6, 2, 96, 8
1, 0, Sequencer_specific, 3, 0, 0, 65
1, 0, Sequencer_specific, 5, 0, 0, 119, 14, 0
1, 0, Tempo, 500000
1, 2304, Tempo, 1153846
1, 2340, Tempo, 1463414
1, 2380, Tempo, 1428571
1, 2416, Tempo, 1395348
1, 2456, Tempo, 1363636
1, 2496, Tempo, 1333333
1, 2520, Tempo, 1224489
1, 2576, Tempo, 1200000
1, 2632, Tempo, 1176470
1, 2688, Tempo, 1153846
1, 3456, Tempo, 1333333
1, 3536, Tempo, 1304347
1, 3620, Tempo, 1276595
1, 3700, Tempo, 1250000
1, 3784, Tempo, 1224489
1, 3864, Tempo, 1200000
1, 3948, Tempo, 1176470
1, 4032, Tempo, 1153846
1, 4608, Tempo, 1224489
1, 4660, Tempo, 1304347
1, 4716, Tempo, 1276595
1, 4772, Tempo, 1250000
1, 4824, Tempo, 1224489
1, 4880, Tempo, 1200000
1, 4936, Tempo, 1176470
1, 4992, Tempo, 1153846
1, 5184, Tempo, 1153846
1, 5328, Tempo, 1176470
1, 5376, Tempo, 1153846
1, 5472, Tempo, 1176470
1, 5568, Tempo, 1200000
1, 5664, Tempo, 1224489
1, 5760, Tempo, 1250000
1, 5904, Tempo, 1224489
1, 6048, Tempo, 1200000
1, 6192, Tempo, 1176470
1, 6336, Tempo, 1153846
1, 6720, Tempo, 1153846
1, 6912, Tempo, 1153846
1, 6952, Tempo, 1304347
1, 6992, Tempo, 1276595
1, 7032, Tempo, 1250000
1, 7076, Tempo, 1224489
1, 7116, Tempo, 1200000
1, 7156, Tempo, 1176470
1, 7200, Tempo, 1153846
1, 7680, Tempo, 1153846
1, 7776, Tempo, 1176470
1, 7872, Tempo, 1200000
1, 7968, Tempo, 1224489
1, 8064, Tempo, 1250000
1, 8100, Tempo, 1250000
1, 8236, Tempo, 1224489
1, 8368, Tempo, 1200000
1, 8504, Tempo, 1176470
1, 8640, Tempo, 1153846
1, 9216, Tempo, 1250000
1, 9312, Tempo, 1224489
1, 9408, Tempo, 1200000
1, 9504, Tempo, 1176470
1, 9600, Tempo, 1153846
1, 10944, Tempo, 1153846
1, 11024, Tempo, 1176470
1, 11108, Tempo, 1200000
1, 11188, Tempo, 1224489
1, 11272, Tempo, 1250000
1, 11352, Tempo, 1276595
1, 11436, Tempo, 1304347
1, 11520, Tempo, 1153846
1, 11556, Tempo, 1463414
1, 11596, Tempo, 1428571
1, 11632, Tempo, 1395348
1, 11672, Tempo, 1363636
1, 11712, Tempo, 1333333
1, 11736, Tempo, 1224489
1, 11792, Tempo, 1200000
1, 11848, Tempo, 1176470
1, 11904, Tempo, 1153846
1, 12672, Tempo, 1250000
1, 12744, Tempo, 1224489
1, 12816, Tempo, 1200000
1, 12888, Tempo, 1176470
1, 12960, Tempo, 1153846
1, 13824, Tempo, 1333333
1, 13876, Tempo, 1304347
1, 13932, Tempo, 1276595
1, 13988, Tempo, 1250000
1, 14040, Tempo, 1224489
1, 14096, Tempo, 1200000
1, 14152, Tempo, 1176470
1, 14208, Tempo, 1153846
1, 14592, Tempo, 1153846
1, 14688, Tempo, 1176470
1, 14784, Tempo, 1200000
1, 14880, Tempo, 1224489
1, 14976, Tempo, 1250000
1, 15072, Tempo, 1224489
1, 15168, Tempo, 1200000
1, 15264, Tempo, 1176470
1, 15360, Tempo, 1153846
1, 15744, Tempo, 1153846
1, 15796, Tempo, 1176470
1, 15852, Tempo, 1200000
1, 15908, Tempo, 1224489
1, 15960, Tempo, 1250000
1, 16016, Tempo, 1276595
1, 16072, Tempo, 1304347
1, 16128, Tempo, 1176470
1, 16180, Tempo, 1304347
1, 16236, Tempo, 1276595
1, 16292, Tempo, 1250000
1, 16344, Tempo, 1224489
1, 16400, Tempo, 1200000
1, 16456, Tempo, 1176470
1, 16512, Tempo, 1153846
1, 16704, Tempo, 1176470
1, 17280, Tempo, 1250000
1, 17376, Tempo, 1224489
1, 17472, Tempo, 1200000
1, 17568, Tempo, 1176470
1, 17664, Tempo, 1153846
1, 18336, Tempo, 1153846
1, 18428, Tempo, 1333333
1, 18432, Tempo, 1153846
1, 18484, Tempo, 1304347
1, 18540, Tempo, 1276595
1, 18596, Tempo, 1250000
1, 18648, Tempo, 1224489
1, 18704, Tempo, 1200000
1, 18760, Tempo, 1176470
1, 18816, Tempo, 1153846
1, 19776, Tempo, 1250000
1, 19872, Tempo, 1224489
1, 19968, Tempo, 1200000
1, 20064, Tempo, 1176470
1, 20160, Tempo, 1153846
1, 20352, Tempo, 1153846
1, 20404, Tempo, 1176470
1, 20460, Tempo, 1200000
1, 20516, Tempo, 1224489
1, 20568, Tempo, 1250000
1, 20624, Tempo, 1276595
1, 20680, Tempo, 1304347
1, 20736, Tempo, 1333333
1, 20788, Tempo, 1304347
1, 20844, Tempo, 1276595
1, 20900, Tempo, 1250000
1, 20952, Tempo, 1224489
1, 21008, Tempo, 1200000
1, 21064, Tempo, 1176470
1, 21120, Tempo, 1153846
1, 21888, Tempo, 1250000
1, 22032, Tempo, 1224489
1, 22176, Tempo, 1200000
1, 22320, Tempo, 1176470
1, 22464, Tempo, 1153846
1, 23040, Tempo, 1333333
1, 23136, Tempo, 1224489
1, 23232, Tempo, 1200000
1, 23328, Tempo, 1176470
1, 23424, Tempo, 1153846
1, 23616, Tempo, 1153846
1, 23696, Tempo, 1176470
1, 23780, Tempo, 1200000
1, 23860, Tempo, 1224489
1, 23944, Tempo, 1250000
1, 24024, Tempo, 1276595
1, 24108, Tempo, 1304347
1, 24192, Tempo, 1333333
1, 24288, Tempo, 1333333
1, 24384, Tempo, 1304347
1, 24480, Tempo, 1276595
1, 24576, Tempo, 1250000
1, 24672, Tempo, 1224489
1, 24768, Tempo, 1200000
1, 24864, Tempo, 1176470
1, 24960, Tempo, 1153846
1, 25344, Tempo, 1250000
1, 25480, Tempo, 1304347
1, 25616, Tempo, 1276595
1, 25752, Tempo, 1250000
1, 25892, Tempo, 1224489
1, 26028, Tempo, 1200000
1, 26164, Tempo, 1176470
1, 26208, Tempo, 1153846
1, 26264, Tempo, 1176470
1, 26320, Tempo, 1200000
1, 26380, Tempo, 1224489
1, 26436, Tempo, 1250000
1, 26496, Tempo, 1333333
1, 26548, Tempo, 1304347
1, 26604, Tempo, 1276595
1, 26660, Tempo, 1250000
1, 26712, Tempo, 1224489
1, 26768, Tempo, 1200000
1, 26824, Tempo, 1176470
1, 26880, Tempo, 1153846
1, 27072, Tempo, 1153846
1, 27152, Tempo, 1176470
1, 27236, Tempo, 1200000
1, 27316, Tempo, 1224489
1, 27400, Tempo, 1250000
1, 27480, Tempo, 1276595
1, 27564, Tempo, 1304347
1, 27648, Tempo, 1153846
1, 27700, Tempo, 1304347
1, 27756, Tempo, 1276595
1, 27812, Tempo, 1250000
1, 27864, Tempo, 1224489
1, 27920, Tempo, 1200000
1, 27976, Tempo, 1176470
1, 28032, Tempo, 1153846
1, 28800, Tempo, 1250000
1, 28872, Tempo, 1224489
1, 28944, Tempo, 1200000
1, 29016, Tempo, 1176470
1, 29088, Tempo, 1153846
1, 29568, Tempo, 1153846
1, 29620, Tempo, 1176470
1, 29676, Tempo, 1200000
1, 29732, Tempo, 1224489
1, 29784, Tempo, 1250000
1, 29840, Tempo, 1276595
1, 29896, Tempo, 1304347
1, 29952, Tempo, 1333333
1, 30004, Tempo, 1304347
1, 30060, Tempo, 1276595
1, 30116, Tempo, 1250000
1, 30168, Tempo, 1224489
1, 30224, Tempo, 1200000
1, 30280, Tempo, 1176470
1, 30336, Tempo, 1153846
1, 31104, Tempo, 1250000
1, 31200, Tempo, 1224489
1, 31296, Tempo, 1200000
1, 31392, Tempo, 1176470
1, 31488, Tempo, 1153846
1, 31680, Tempo, 1176470
1, 31872, Tempo, 1200000
1, 32064, Tempo, 1224489
1, 32256, Tempo, 1153846
1, 32336, Tempo, 1304347
1, 32420, Tempo, 1276595
1, 32500, Tempo, 1250000
1, 32584, Tempo, 1224489
1, 32664, Tempo, 1200000
1, 32748, Tempo, 1176470
1, 32832, Tempo, 1153846
1, 33792, Tempo, 1153846
1, 33980, Tempo, 1176470
1, 34172, Tempo, 1200000
1, 34364, Tempo, 1224489
1, 34556, Tempo, 1250000
1, 34560, Tempo, 1153846
1, 34612, Tempo, 1304347
1, 34668, Tempo, 1276595
1, 34724, Tempo, 1250000
1, 34776, Tempo, 1224489
1, 34832, Tempo, 1200000
1, 34888, Tempo, 1176470
1, 34944, Tempo, 1153846
1, 35712, Tempo, 1333333
1, 35764, Tempo, 1304347
1, 35820, Tempo, 1276595
1, 35876, Tempo, 1250000
1, 35928, Tempo, 1224489
1, 35984, Tempo, 1200000
1, 36040, Tempo, 1176470
1, 36096, Tempo, 1153846
1, 36160, Tempo, 1176470
1, 36224, Tempo, 1200000
1, 36288, Tempo, 1224489
1, 36352, Tempo, 1250000
1, 36416, Tempo, 1276595
1, 36480, Tempo, 1304347
1, 36544, Tempo, 1333333
1, 36608, Tempo, 1363636
1, 36672, Tempo, 1395348
1, 36736, Tempo, 1428571
1, 36800, Tempo, 1463414
1, 36864, Tempo, 1538461
1, 37056, Tempo, 1500000
1, 37080, Tempo, 1224489
1, 37136, Tempo, 1200000
1, 37192, Tempo, 1176470
1, 37248, Tempo, 1153846
1, 37296, Tempo, 1176470
1, 37440, Tempo, 1153846
1, 38208, Tempo, 1333333
1, 38260, Tempo, 1304347
1, 38316, Tempo, 1276595
1, 38372, Tempo, 1250000
1, 38424, Tempo, 1224489
1, 38480, Tempo, 1200000
1, 38536, Tempo, 1176470
1, 38592, Tempo, 1153846
1, 39168, Tempo, 1153846
1, 39220, Tempo, 1304347
1, 39276, Tempo, 1276595
1, 39332, Tempo, 1250000
1, 39384, Tempo, 1224489
1, 39440, Tempo, 1200000
1, 39496, Tempo, 1176470
1, 39552, Tempo, 1153846
1, 40320, Tempo, 1250000
1, 40416, Tempo, 1224489
1, 40512, Tempo, 1200000
1, 40608, Tempo, 1176470
1, 40704, Tempo, 1153846
1, 41472, Tempo, 1250000
1, 41664, Tempo, 1153846
1, 41744, Tempo, 1176470
1, 41828, Tempo, 1200000
1, 41908, Tempo, 1224489
1, 41992, Tempo, 1250000
1, 42072, Tempo, 1276595
1, 42156, Tempo, 1304347
1, 42240, Tempo, 1333333
1, 42624, Tempo, 1250000
1, 43008, Tempo, 1333333
1, 43060, Tempo, 1304347
1, 43116, Tempo, 1276595
1, 43172, Tempo, 1250000
1, 43224, Tempo, 1224489
1, 43280, Tempo, 1200000
1, 43336, Tempo, 1176470
1, 43392, Tempo, 1153846
1, 43444, Tempo, 1176470
1, 43776, Tempo, 1363636
1, 43828, Tempo, 1304347
1, 43884, Tempo, 1276595
1, 43940, Tempo, 1250000
1, 43992, Tempo, 1224489
1, 44048, Tempo, 1200000
1, 44104, Tempo, 1176470
1, 44160, Tempo, 1153846
1, 44324, Tempo, 1224489
1, 44760, Tempo, 1250000
1, 44928, Tempo, 1333333
1, 45004, Tempo, 1304347
1, 45080, Tempo, 1276595
1, 45156, Tempo, 1250000
1, 45232, Tempo, 1224489
1, 45312, Tempo, 1153846
1, 45376, Tempo, 1176470
1, 45440, Tempo, 1200000
1, 45504, Tempo, 1224489
1, 45568, Tempo, 1250000
1, 45632, Tempo, 1276595
1, 45696, Tempo, 1304347
1, 45760, Tempo, 1333333
1, 45824, Tempo, 1363636
1, 45888, Tempo, 1714285
1, 46076, Tempo, 1666666
1, 46080, Tempo, 1538461
1, 46272, Tempo, 1500000
1, 46324, Tempo, 1250000
1, 46408, Tempo, 1224489
1, 46488, Tempo, 1200000
1, 46572, Tempo, 1176470
1, 46656, Tempo, 1153846
1, 47040, Tempo, 1200000
1, 47424, Tempo, 1333333
1, 47476, Tempo, 1304347
1, 47532, Tempo, 1276595
1, 47588, Tempo, 1250000
1, 47640, Tempo, 1224489
1, 47696, Tempo, 1200000
1, 47752, Tempo, 1176470
1, 47808, Tempo, 1153846
1, 48000, Tempo, 1153846
1, 48384, Tempo, 1153846
1, 48420, Tempo, 1463414
1, 48460, Tempo, 1428571
1, 48496, Tempo, 1395348
1, 48536, Tempo, 1363636
1, 48576, Tempo, 1333333
1, 48600, Tempo, 1224489
1, 48656, Tempo, 1200000
1, 48712, Tempo, 1176470
1, 48768, Tempo, 1153846
1, 49536, Tempo, 1250000
1, 49632, Tempo, 1224489
1, 49728, Tempo, 1200000
1, 49824, Tempo, 1176470
1, 49920, Tempo, 1153846
1, 50112, Tempo, 1153846
1, 50256, Tempo, 1176470
1, 50400, Tempo, 1200000
1, 50544, Tempo, 1224489
1, 50688, Tempo, 1153846
1, 50740, Tempo, 1304347
1, 50796, Tempo, 1276595
1, 50852, Tempo, 1250000
1, 50904, Tempo, 1224489
1, 50960, Tempo, 1200000
1, 51016, Tempo, 1176470
1, 51072, Tempo, 1153846
1, 51840, Tempo, 1250000
1, 51936, Tempo, 1224489
1, 52032, Tempo, 1200000
1, 52128, Tempo, 1176470
1, 52224, Tempo, 1153846
1, 52332, Tempo, 1176470
1, 52440, Tempo, 1200000
1, 52552, Tempo, 1224489
1, 52660, Tempo, 1250000
1, 52772, Tempo, 1276595
1, 52880, Tempo, 1304347
1, 52992, Tempo, 1333333
1, 53044, Tempo, 1304347
1, 53100, Tempo, 1276595
1, 53156, Tempo, 1250000
1, 53208, Tempo, 1224489
1, 53264, Tempo, 1200000
1, 53320, Tempo, 1176470
1, 53376, Tempo, 1153846
1, 54144, Tempo, 1250000
1, 54240, Tempo, 1224489
1, 54336, Tempo, 1200000
1, 54432, Tempo, 1176470
1, 54528, Tempo, 1153846
1, 54720, Tempo, 1153846
1, 54800, Tempo, 1176470
1, 54884, Tempo, 1200000
1, 54964, Tempo, 1224489
1, 55048, Tempo, 1250000
1, 55128, Tempo, 1276595
1, 55212, Tempo, 1304347
1, 55296, Tempo, 1153846
1, 55348, Tempo, 1304347
1, 55404, Tempo, 1276595
1, 55460, Tempo, 1250000
1, 55512, Tempo, 1224489
1, 55568, Tempo, 1200000
1, 55624, Tempo, 1176470
1, 55680, Tempo, 1153846
1, 56448, Tempo, 1250000
1, 56544, Tempo, 1224489
1, 56640, Tempo, 1200000
1, 56736, Tempo, 1176470
1, 56832, Tempo, 1153846
1, 57024, Tempo, 1153846
1, 57104, Tempo, 1176470
1, 57188, Tempo, 1200000
1, 57268, Tempo, 1224489
1, 57352, Tempo, 1250000
1, 57432, Tempo, 1276595
1, 57516, Tempo, 1304347
1, 57600, Tempo, 1333333
1, 57652, Tempo, 1304347
1, 57708, Tempo, 1276595
1, 57764, Tempo, 1250000
1, 57816, Tempo, 1224489
1, 57872, Tempo, 1200000
1, 57928, Tempo, 1176470
1, 57984, Tempo, 1153846
1, 58032, Tempo, 1176470
1, 58176, Tempo, 1153846
1, 58752, Tempo, 1250000
1, 58824, Tempo, 1224489
1, 58896, Tempo, 1200000
1, 58968, Tempo, 1176470
1, 59040, Tempo, 1153846
1, 59328, Tempo, 1153846
1, 59440, Tempo, 1176470
1, 59556, Tempo, 1200000
1, 59672, Tempo, 1224489
1, 59788, Tempo, 1250000
1, 59904, Tempo, 1153846
1, 59980, Tempo, 1250000
1, 60056, Tempo, 1224489
1, 60132, Tempo, 1200000
1, 60208, Tempo, 1176470
1, 60288, Tempo, 1153846
1, 61056, Tempo, 1250000
1, 61152, Tempo, 1224489
1, 61248, Tempo, 1200000
1, 61344, Tempo, 1176470
1, 61440, Tempo, 1153846
1, 61632, Tempo, 1153846
1, 61680, Tempo, 1176470
1, 61728, Tempo, 1200000
1, 61776, Tempo, 1224489
1, 61824, Tempo, 1250000
1, 61872, Tempo, 1276595
1, 61920, Tempo, 1304347
1, 61968, Tempo, 1333333
1, 62016, Tempo, 1363636
1, 62064, Tempo, 1395348
1, 62112, Tempo, 1428571
1, 62160, Tempo, 1463414
1, 62208, Tempo, 1538461
1, 62400, Tempo, 1500000
1, 62424, Tempo, 1224489
1, 62480, Tempo, 1200000
1, 62536, Tempo, 1176470
1, 62592, Tempo, 1153846
1, 62640, Tempo, 1176470
1, 62784, Tempo, 1153846
1, 63552, Tempo, 1333333
1, 63604, Tempo, 1304347
1, 63660, Tempo, 1276595
1, 63716, Tempo, 1250000
1, 63768, Tempo, 1224489
1, 63824, Tempo, 1200000
1, 63880, Tempo, 1176470
1, 63936, Tempo, 1153846
1, 64128, Tempo, 1153846
1, 64180, Tempo, 1176470
1, 64236, Tempo, 1200000
1, 64292, Tempo, 1224489
1, 64344, Tempo, 1250000
1, 64400, Tempo, 1276595
1, 64456, Tempo, 1304347
1, 64512, Tempo, 1153846
1, 64592, Tempo, 1304347
1, 64676, Tempo, 1276595
1, 64756, Tempo, 1250000
1, 64840, Tempo, 1224489
1, 64920, Tempo, 1200000
1, 65004, Tempo, 1176470
1, 65088, Tempo, 1153846
1, 65664, Tempo, 1250000
1, 65760, Tempo, 1224489
1, 65856, Tempo, 1200000
1, 65952, Tempo, 1176470
1, 66048, Tempo, 1153846
1, 66816, Tempo, 1176470
1, 66912, Tempo, 1224489
1, 67008, Tempo, 1200000
1, 67104, Tempo, 1176470
1, 67200, Tempo, 1153846
1, 67252, Tempo, 1176470
1, 67308, Tempo, 1200000
1, 67364, Tempo, 1224489
1, 67416, Tempo, 1250000
1, 67472, Tempo, 1276595
1, 67528, Tempo, 1304347
1, 67584, Tempo, 1333333
1, 67680, Tempo, 1200000
1, 67824, Tempo, 1224489
1, 67968, Tempo, 1333333
1, 68048, Tempo, 1304347
1, 68132, Tempo, 1276595
1, 68212, Tempo, 1250000
1, 68296, Tempo, 1224489
1, 68376, Tempo, 1200000
1, 68460, Tempo, 1176470
1, 68544, Tempo, 1153846
1, 68928, Tempo, 1250000
1, 69120, Tempo, 1333333
1, 69172, Tempo, 1304347
1, 69228, Tempo, 1276595
1, 69284, Tempo, 1250000
1, 69336, Tempo, 1224489
1, 69392, Tempo, 1200000
1, 69448, Tempo, 1176470
1, 69504, Tempo, 1153846
1, 69744, Tempo, 1276595
1, 69984, Tempo, 1304347
1, 70224, Tempo, 1333333
1, 70464, Tempo, 1363636
1, 70704, Tempo, 1395348
1, 70944, Tempo, 1428571
1, 71184, Tempo, 1463414
1, 71424, Tempo, 1153846
1, 71476, Tempo, 1304347
1, 71532, Tempo, 1276595
1, 71588, Tempo, 1250000
1, 71640, Tempo, 1224489
1, 71696, Tempo, 1200000
1, 71752, Tempo, 1176470
1, 71808, Tempo, 1153846
1, 72000, Tempo, 1153846
1, 72576, Tempo, 1250000
1, 72672, Tempo, 1224489
1, 72768, Tempo, 1200000
1, 72864, Tempo, 1176470
1, 72960, Tempo, 1153846
1, 73056, Tempo, 1153846
1, 73344, Tempo, 1153846
1, 73440, Tempo, 1176470
1, 73536, Tempo, 1200000
1, 73632, Tempo, 1224489
1, 73728, Tempo, 1153846
1, 73780, Tempo, 1304347
1, 73836, Tempo, 1276595
1, 73892, Tempo, 1250000
1, 73944, Tempo, 1224489
1, 74000, Tempo, 1200000
1, 74056, Tempo, 1176470
1, 74112, Tempo, 1153846
1, 74496, Tempo, 1153846
1, 74572, Tempo, 1176470
1, 74648, Tempo, 1200000
1, 74724, Tempo, 1224489
1, 74800, Tempo, 1250000
1, 74880, Tempo, 1276595
1, 74960, Tempo, 1304347
1, 75044, Tempo, 1276595
1, 75124, Tempo, 1250000
1, 75208, Tempo, 1224489
1, 75288, Tempo, 1200000
1, 75372, Tempo, 1176470
1, 75456, Tempo, 1153846
1, 75588, Tempo, 1276595
1, 75648, Tempo, 1276595
1, 75700, Tempo, 1304347
1, 75756, Tempo, 1333333
1, 75812, Tempo, 1363636
1, 75864, Tempo, 1395348
1, 75920, Tempo, 1428571
1, 75976, Tempo, 1463414
1, 76032, Tempo, 2400000
1, 76224, Tempo, 2307692
1, 76256, Tempo, 1463414
1, 76288, Tempo, 1428571
1, 76320, Tempo, 1395348
1, 76352, Tempo, 1363636
1, 76384, Tempo, 1333333
1, 76416, Tempo, 1304347
1, 76800, Tempo, 1276595
1, 76896, Tempo, 1276595
1, 76992, Tempo, 1250000
1, 77088, Tempo, 1224489
1, 77184, Tempo, 1200000
1, 77280, Tempo, 1176470
1, 77376, Tempo, 1153846
1, 77568, Tempo, 1200000
1, 77644, Tempo, 1176470
1, 77720, Tempo, 1153846
1, 77796, Tempo, 1132075
1, 77872, Tempo, 1111111
1, 77948, Tempo, 1090909
1, 77952, Tempo, 1000000
1, 77988, Tempo, 1016949
1, 78024, Tempo, 1034482
1, 78064, Tempo, 1052631
1, 78100, Tempo, 1071428
1, 78140, Tempo, 1090909
1, 78176, Tempo, 1111111
1, 78212, Tempo, 1132075
1, 78252, Tempo, 1153846
1, 78288, Tempo, 1176470
1, 78328, Tempo, 1200000
1, 78336, Tempo, 2400000
1, 78432, Tempo, 2307692
1, 78448, Tempo, 1500000
1, 78468, Tempo, 1463414
1, 78492, Tempo, 1428571
1, 78516, Tempo, 1395348
1, 78536, Tempo, 1363636
1, 78560, Tempo, 1333333
1, 78584, Tempo, 1304347
1, 78604, Tempo, 1276595
1, 78628, Tempo, 1250000
1, 78652, Tempo, 1224489
1, 78672, Tempo, 1200000
1, 78696, Tempo, 1176470
1, 78720, Tempo, 1000000
1, 78728, Tempo, 983606
1, 78736, Tempo, 967741
1, 78748, Tempo, 952380
1, 78756, Tempo, 937500
1, 78768, Tempo, 923076
1, 78776, Tempo, 909090
1, 78784, Tempo, 895522
1, 78796, Tempo, 882352
1, 78804, Tempo, 869565
1, 78816, Tempo, 857142
1, 78824, Tempo, 845070
1, 78832, Tempo, 833333
1, 78844, Tempo, 821917
1, 78852, Tempo, 810810
1, 78864, Tempo, 800000
1, 78872, Tempo, 789473
1, 78880, Tempo, 779220
1, 78892, Tempo, 769230
1, 78900, Tempo, 759493
1, 78912, Tempo, 750000
1, 78920, Tempo, 740740
1, 78928, Tempo, 731707
1, 78940, Tempo, 722891
1, 78948, Tempo, 714285
1, 78960, Tempo, 705882
1, 78968, Tempo, 697674
1, 78976, Tempo, 689655
1, 78988, Tempo, 681818
1, 78996, Tempo, 674157
1, 79008, Tempo, 666666
1, 79016, Tempo, 659340
1, 79024, Tempo, 652173
1, 79036, Tempo, 645161
1, 79044, Tempo, 638297
1, 79056, Tempo, 631578
1, 79064, Tempo, 625000
1, 79072, Tempo, 618556
1, 79084, Tempo, 612244
1, 79092, Tempo, 606060
1, 79104, Tempo, 504201
1, 79108, Tempo, 508474
1, 79112, Tempo, 517241
1, 79116, Tempo, 521739
1, 79120, Tempo, 530973
1, 79124, Tempo, 535714
1, 79128, Tempo, 545454
1, 79132, Tempo, 550458
1, 79136, Tempo, 560747
1, 79140, Tempo, 566037
1, 79144, Tempo, 576923
1, 79148, Tempo, 582524
1, 79152, Tempo, 588235
1, 79156, Tempo, 600000
1, 79160, Tempo, 606060
1, 79164, Tempo, 618556
1, 79168, Tempo, 625000
1, 79172, Tempo, 638297
1, 79176, Tempo, 645161
1, 79180, Tempo, 659340
1, 79184, Tempo, 666666
1, 79188, Tempo, 681818
1, 79192, Tempo, 689655
1, 79196, Tempo, 697674
1, 79200, Tempo, 714285
1, 79204, Tempo, 722891
1, 79208, Tempo, 740740
1, 79212, Tempo, 750000
1, 79216, Tempo, 769230
1, 79220, Tempo, 779220
1, 79224, Tempo, 800000
1, 79228, Tempo, 810810
1, 79232, Tempo, 833333
1, 79236, Tempo, 845070
1, 79240, Tempo, 869565
1, 79244, Tempo, 882352
1, 79248, Tempo, 895522
1, 79252, Tempo, 923076
1, 79256, Tempo, 937500
1, 79260, Tempo, 967741
1, 79264, Tempo, 983606
1, 79268, Tempo, 1016949
1, 79272, Tempo, 1034482
1, 79276, Tempo, 1071428
1, 79280, Tempo, 1090909
1, 79284, Tempo, 1132075
1, 79288, Tempo, 1153846
1, 79292, Tempo, 1176470
1, 79296, Tempo, 1200000
1, 79304, Tempo, 1176470
1, 79312, Tempo, 1153846
1, 79324, Tempo, 1132075
1, 79332, Tempo, 1111111
1, 79344, Tempo, 1090909
1, 79352, Tempo, 1071428
1, 79360, Tempo, 1052631
1, 79372, Tempo, 1034482
1, 79380, Tempo, 1016949
1, 79392, Tempo, 1000000
1, 79400, Tempo, 983606
1, 79408, Tempo, 967741
1, 79420, Tempo, 952380
1, 79428, Tempo, 937500
1, 79440, Tempo, 923076
1, 79448, Tempo, 909090
1, 79456, Tempo, 895522
1, 79468, Tempo, 882352
1, 79476, Tempo, 869565
1, 79488, Tempo, 1500000
1, 79584, Tempo, 1463414
1, 80256, Tempo, 895522
1, 80640, Tempo, 1333333
1, 80716, Tempo, 1463414
1, 80792, Tempo, 1428571
1, 80868, Tempo, 1395348
1, 80944, Tempo, 1363636
1, 81024, Tempo, 1333333
1, 81408, Tempo, 1500000
1, 81484, Tempo, 1463414
1, 81560, Tempo, 1428571
1, 81636, Tempo, 1395348
1, 81712, Tempo, 1363636
1, 81792, Tempo, 1333333
1, 82176, Tempo, 1714285
1, 82200, Tempo, 1666666
1, 82224, Tempo, 1621621
1, 82248, Tempo, 1578947
1, 82272, Tempo, 1538461
1, 82296, Tempo, 1500000
1, 82320, Tempo, 1463414
1, 82344, Tempo, 1428571
1, 82368, Tempo, 1395348
1, 82380, Tempo, 1463414
1, 82432, Tempo, 1500000
1, 82480, Tempo, 1538461
1, 82532, Tempo, 1578947
1, 82584, Tempo, 1621621
1, 82636, Tempo, 1666666
1, 82688, Tempo, 1714285
1, 82736, Tempo, 1764705
1, 82788, Tempo, 1818181
1, 82840, Tempo, 1875000
1, 82892, Tempo, 1935483
1, 82944, Tempo, 1578947
1, 82996, Tempo, 1304347
1, 83052, Tempo, 1276595
1, 83108, Tempo, 1250000
1, 83160, Tempo, 1224489
1, 83216, Tempo, 1200000
1, 83272, Tempo, 1176470
1, 83328, Tempo, 1153846
1, 83380, Tempo, 1224489
1, 83492, Tempo, 1200000
1, 83520, Tempo, 1153846
1, 83544, Tempo, 1176470
1, 83572, Tempo, 1200000
1, 83596, Tempo, 1224489
1, 83624, Tempo, 1250000
1, 83648, Tempo, 1276595
1, 83676, Tempo, 1304347
1, 83700, Tempo, 1333333
1, 83728, Tempo, 1363636
1, 83752, Tempo, 1395348
1, 83780, Tempo, 1428571
1, 83808, Tempo, 1463414
1, 83832, Tempo, 1500000
1, 83860, Tempo, 1538461
1, 83884, Tempo, 1578947
1, 83904, Tempo, 2400000
1, 84096, Tempo, 857142
1, 84096, End_track
2, 0, Start_track
2, 0, Title_t, "Johann Sebastian Bach"
2, 0, Control_c, 0, 0, 0
2, 0, Program_c, 0, 71
2, 0, Control_c, 0, 7, 127
2, 0, Control_c, 0, 10, 29
2, 0, Control_c, 0, 91, 63
2, 0, Key_signature, 2, "minor"
2, 11528, Note_on_c, 0, 78, 100
2, 15448, Note_off_c, 0, 78, 64
2, 15456, Note_on_c, 0, 79, 100
2, 15548, Note_off_c, 0, 79, 100
2, 15552, Note_on_c, 0, 81, 100
2, 15644, Note_off_c, 0, 81, 100
2, 15648, Note_on_c, 0, 79, 100
2, 15740, Note_off_c, 0, 79, 100
2, 15744, Note_on_c, 0, 78, 100
2, 15836, Note_off_c, 0, 78, 100
2, 15840, Note_on_c, 0, 76, 100
2, 15932, Note_off_c, 0, 76, 100
2, 15936, Note_on_c, 0, 75, 100
2, 16028, Note_off_c, 0, 75, 100
2, 16032, Note_on_c, 0, 76, 100
2, 16076, Note_off_c, 0, 76, 100
2, 16080, Note_on_c, 0, 73, 100
2, 16124, Note_off_c, 0, 73, 100
2, 16128, Note_on_c, 0, 71, 100
2, 16384, Note_off_c, 0, 71, 100
2, 16508, Note_on_c, 0, 83, 100
2, 20064, Note_on_c, 0, 85, 100
2, 20072, Note_off_c, 0, 83, 64
2, 20156, Note_off_c, 0, 85, 100
2, 20160, Note_on_c, 0, 86, 100
2, 20252, Note_off_c, 0, 86, 100
2, 20256, Note_on_c, 0, 85, 100
2, 20348, Note_off_c, 0, 85, 100
2, 20352, Note_on_c, 0, 83, 100
2, 20444, Note_off_c, 0, 83, 100
2, 20448, Note_on_c, 0, 81, 100
2, 20540, Note_off_c, 0, 81, 100
2, 20544, Note_on_c, 0, 79, 100
2, 20636, Note_off_c, 0, 79, 100
2, 20640, Note_on_c, 0, 81, 100
2, 20684, Note_off_c, 0, 81, 100
2, 20688, Note_on_c, 0, 78, 100
2, 20732, Note_off_c, 0, 78, 100
2, 20736, Note_on_c, 0, 76, 100
2, 24284, Note_off_c, 0, 76, 100
2, 24288, Note_on_c, 0, 74, 100
2, 24380, Note_off_c, 0, 74, 100
2, 24384, Note_on_c, 0, 73, 100
2, 24476, Note_off_c, 0, 73, 100
2, 24480, Note_on_c, 0, 74, 100
2, 24572, Note_off_c, 0, 74, 100
2, 24576, Note_on_c, 0, 76, 100
2, 24668, Note_off_c, 0, 76, 100
2, 24672, Note_on_c, 0, 74, 100
2, 24764, Note_off_c, 0, 74, 100
2, 24768, Note_on_c, 0, 76, 100
2, 24860, Note_off_c, 0, 76, 100
2, 24864, Note_on_c, 0, 78, 100
2, 24908, Note_off_c, 0, 78, 100
2, 24912, Note_on_c, 0, 79, 100
2, 24956, Note_off_c, 0, 79, 100
2, 24960, Note_on_c, 0, 79, 100
2, 24980, Note_off_c, 0, 79, 100
2, 24984, Note_on_c, 0, 78, 100
2, 25004, Note_off_c, 0, 78, 100
2, 25008, Note_on_c, 0, 79, 100
2, 25028, Note_off_c, 0, 79, 100
2, 25032, Note_on_c, 0, 78, 100
2, 25052, Note_off_c, 0, 78, 100
2, 25056, Note_on_c, 0, 79, 100
2, 25076, Note_off_c, 0, 79, 100
2, 25080, Note_on_c, 0, 78, 100
2, 25100, Note_off_c, 0, 78, 100
2, 25104, Note_on_c, 0, 79, 100
2, 25124, Note_off_c, 0, 79, 100
2, 25128, Note_on_c, 0, 78, 100
2, 25148, Note_off_c, 0, 78, 100
2, 25152, Note_on_c, 0, 79, 100
2, 25244, Note_off_c, 0, 79, 100
2, 25248, Note_on_c, 0, 76, 100
2, 25340, Note_off_c, 0, 76, 100
2, 25344, Note_on_c, 0, 74, 100
2, 25364, Note_off_c, 0, 74, 100
2, 25368, Note_on_c, 0, 76, 100
2, 25388, Note_off_c, 0, 76, 100
2, 25392, Note_on_c, 0, 74, 100
2, 25412, Note_off_c, 0, 74, 100
2, 25416, Note_on_c, 0, 76, 100
2, 25436, Note_off_c, 0, 76, 100
2, 25440, Note_on_c, 0, 74, 100
2, 25460, Note_off_c, 0, 74, 100
2, 25464, Note_on_c, 0, 76, 100
2, 25484, Note_off_c, 0, 76, 100
2, 25488, Note_on_c, 0, 74, 100
2, 25508, Note_off_c, 0, 74, 100
2, 25512, Note_on_c, 0, 76, 100
2, 25532, Note_off_c, 0, 76, 100
2, 25536, Note_on_c, 0, 74, 100
2, 25556, Note_off_c, 0, 74, 100
2, 25560, Note_on_c, 0, 76, 100
2, 25580, Note_off_c, 0, 76, 100
2, 25584, Note_on_c, 0, 74, 100
2, 25604, Note_off_c, 0, 74, 100
2, 25608, Note_on_c, 0, 76, 100
2, 25628, Note_off_c, 0, 76, 100
2, 25632, Note_on_c, 0, 74, 100
2, 25652, Note_off_c, 0, 74, 100
2, 25656, Note_on_c, 0, 76, 100
2, 25676, Note_off_c, 0, 76, 100
2, 25680, Note_on_c, 0, 74, 100
2, 25700, Note_off_c, 0, 74, 100
2, 25704, Note_on_c, 0, 76, 100
2, 25724, Note_off_c, 0, 76, 100
2, 25728, Note_on_c, 0, 74, 100
2, 25916, Note_off_c, 0, 74, 100
2, 25920, Note_on_c, 0, 73, 100
2, 26048, Note_off_c, 0, 73, 100
2, 26112, Note_on_c, 0, 71, 100
2, 26204, Note_off_c, 0, 71, 100
2, 26208, Note_on_c, 0, 70, 100
2, 26300, Note_off_c, 0, 70, 100
2, 26304, Note_on_c, 0, 71, 100
2, 26432, Note_off_c, 0, 71, 100
2, 26496, Note_on_c, 0, 71, 100
2, 27644, Note_off_c, 0, 71, 100
2, 27656, Note_on_c, 0, 83, 100
2, 29368, Note_off_c, 0, 83, 100
2, 29376, Note_on_c, 0, 81, 100
2, 29504, Note_off_c, 0, 81, 100
2, 29568, Note_on_c, 0, 81, 100
2, 29588, Note_off_c, 0, 81, 100
2, 29592, Note_on_c, 0, 80, 100
2, 29612, Note_off_c, 0, 80, 100
2, 29616, Note_on_c, 0, 81, 100
2, 29636, Note_off_c, 0, 81, 100
2, 29640, Note_on_c, 0, 80, 100
2, 29660, Note_off_c, 0, 80, 100
2, 29664, Note_on_c, 0, 81, 100
2, 29684, Note_off_c, 0, 81, 100
2, 29688, Note_on_c, 0, 80, 100
2, 29708, Note_off_c, 0, 80, 100
2, 29712, Note_on_c, 0, 81, 100
2, 29732, Note_off_c, 0, 81, 100
2, 29736, Note_on_c, 0, 80, 100
2, 29756, Note_off_c, 0, 80, 100
2, 29760, Note_on_c, 0, 81, 100
2, 29780, Note_off_c, 0, 81, 100
2, 29784, Note_on_c, 0, 80, 100
2, 29804, Note_off_c, 0, 80, 100
2, 29808, Note_on_c, 0, 81, 100
2, 29828, Note_off_c, 0, 81, 100
2, 29832, Note_on_c, 0, 80, 100
2, 29852, Note_off_c, 0, 80, 100
2, 29856, Note_on_c, 0, 78, 100
2, 29900, Note_off_c, 0, 78, 100
2, 29904, Note_on_c, 0, 80, 100
2, 29948, Note_off_c, 0, 80, 100
2, 29952, Note_on_c, 0, 81, 100
2, 32444, Note_off_c, 0, 81, 100
2, 32448, Note_on_c, 0, 80, 100
2, 32636, Note_off_c, 0, 80, 100
2, 32640, Note_on_c, 0, 77, 100
2, 32828, Note_off_c, 0, 77, 100
2, 32832, Note_on_c, 0, 78, 100
2, 33020, Note_off_c, 0, 78, 100
2, 33024, Note_on_c, 0, 86, 100
2, 33568, Note_off_c, 0, 86, 100
2, 33600, Note_on_c, 0, 85, 100
2, 33788, Note_off_c, 0, 85, 100
2, 33792, Note_on_c, 0, 83, 100
2, 33980, Note_off_c, 0, 83, 100
2, 33984, Note_on_c, 0, 81, 100
2, 34172, Note_off_c, 0, 81, 100
2, 34176, Note_on_c, 0, 80, 100
2, 34364, Note_off_c, 0, 80, 100
2, 34368, Note_on_c, 0, 78, 100
2, 34556, Note_off_c, 0, 78, 100
2, 34560, Note_on_c, 0, 77, 100
2, 34580, Note_off_c, 0, 77, 100
2, 34584, Note_on_c, 0, 78, 100
2, 34604, Note_off_c, 0, 78, 100
2, 34608, Note_on_c, 0, 77, 100
2, 34628, Note_off_c, 0, 77, 100
2, 34632, Note_on_c, 0, 78, 100
2, 34652, Note_off_c, 0, 78, 100
2, 34656, Note_on_c, 0, 77, 100
2, 34676, Note_off_c, 0, 77, 100
2, 34680, Note_on_c, 0, 78, 100
2, 34700, Note_off_c, 0, 78, 100
2, 34704, Note_on_c, 0, 77, 100
2, 34724, Note_off_c, 0, 77, 100
2, 34728, Note_on_c, 0, 78, 100
2, 34748, Note_off_c, 0, 78, 100
2, 34752, Note_on_c, 0, 77, 100
2, 34772, Note_off_c, 0, 77, 100
2, 34776, Note_on_c, 0, 78, 100
2, 34796, Note_off_c, 0, 78, 100
2, 34800, Note_on_c, 0, 77, 100
2, 34820, Note_off_c, 0, 77, 100
2, 34824, Note_on_c, 0, 78, 100
2, 34844, Note_off_c, 0, 78, 100
2, 34848, Note_on_c, 0, 77, 100
2, 34868, Note_off_c, 0, 77, 100
2, 34872, Note_on_c, 0, 78, 100
2, 34892, Note_off_c, 0, 78, 100
2, 34896, Note_on_c, 0, 77, 100
2, 34916, Note_off_c, 0, 77, 100
2, 34920, Note_on_c, 0, 78, 100
2, 34940, Note_off_c, 0, 78, 100
2, 34944, Note_on_c, 0, 77, 100
2, 35132, Note_off_c, 0, 77, 100
2, 35136, Note_on_c, 0, 75, 100
2, 35324, Note_off_c, 0, 75, 100
2, 35328, Note_on_c, 0, 73, 100
2, 35584, Note_off_c, 0, 73, 100
2, 35640, Note_on_c, 0, 74, 100
2, 35660, Note_off_c, 0, 74, 100
2, 35664, Note_on_c, 0, 73, 100
2, 35684, Note_off_c, 0, 73, 100
2, 35688, Note_on_c, 0, 74, 100
2, 35708, Note_off_c, 0, 74, 100
2, 35712, Note_on_c, 0, 73, 100
2, 37024, Note_off_c, 0, 73, 64
2, 37056, Note_on_c, 0, 73, 100
2, 37056, Note_on_c, 0, 81, 100
2, 37184, Note_off_c, 0, 73, 100
2, 37184, Note_off_c, 0, 81, 100
2, 37248, Note_on_c, 0, 73, 100
2, 37248, Note_on_c, 0, 81, 100
2, 37436, Note_off_c, 0, 73, 100
2, 37436, Note_off_c, 0, 81, 100
2, 37440, Note_on_c, 0, 71, 100
2, 37440, Note_on_c, 0, 80, 100
2, 37568, Note_off_c, 0, 71, 100
2, 37568, Note_off_c, 0, 80, 100
2, 37632, Note_on_c, 0, 71, 100
2, 37632, Note_on_c, 0, 80, 100
2, 37820, Note_off_c, 0, 71, 100
2, 37820, Note_off_c, 0, 80, 100
2, 37824, Note_on_c, 0, 69, 100
2, 37824, Note_on_c, 0, 78, 100
2, 37952, Note_off_c, 0, 69, 100
2, 37952, Note_off_c, 0, 78, 100
2, 38016, Note_on_c, 0, 69, 100
2, 38016, Note_on_c, 0, 78, 100
2, 39328, Note_off_c, 0, 69, 64
2, 39328, Note_off_c, 0, 78, 64
2, 39360, Note_on_c, 0, 74, 100
2, 39360, Note_on_c, 0, 83, 100
2, 39488, Note_off_c, 0, 74, 100
2, 39488, Note_off_c, 0, 83, 100
2, 39552, Note_on_c, 0, 74, 100
2, 39552, Note_on_c, 0, 83, 100
2, 39740, Note_off_c, 0, 74, 100
2, 39740, Note_off_c, 0, 83, 100
2, 39744, Note_on_c, 0, 73, 100
2, 39744, Note_on_c, 0, 81, 100
2, 39872, Note_off_c, 0, 73, 100
2, 39872, Note_off_c, 0, 81, 100
2, 39936, Note_on_c, 0, 73, 100
2, 39936, Note_on_c, 0, 81, 100
2, 40124, Note_off_c, 0, 73, 100
2, 40124, Note_off_c, 0, 81, 100
2, 40128, Note_on_c, 0, 71, 100
2, 40128, Note_on_c, 0, 80, 100
2, 40256, Note_off_c, 0, 71, 100
2, 40256, Note_off_c, 0, 80, 100
2, 40320, Note_on_c, 0, 71, 100
2, 40320, Note_on_c, 0, 80, 100
2, 40508, Note_off_c, 0, 71, 100
2, 40508, Note_off_c, 0, 80, 100
2, 40512, Note_on_c, 0, 74, 100
2, 40512, Note_on_c, 0, 83, 100
2, 40640, Note_off_c, 0, 74, 100
2, 40640, Note_off_c, 0, 83, 100
2, 40704, Note_on_c, 0, 74, 100
2, 40704, Note_on_c, 0, 83, 100
2, 40892, Note_off_c, 0, 74, 100
2, 40892, Note_off_c, 0, 83, 100
2, 40896, Note_on_c, 0, 68, 100
2, 40896, Note_on_c, 0, 77, 100
2, 41024, Note_off_c, 0, 68, 100
2, 41024, Note_off_c, 0, 77, 100
2, 41088, Note_on_c, 0, 68, 100
2, 41088, Note_on_c, 0, 77, 100
2, 41276, Note_off_c, 0, 68, 100
2, 41276, Note_off_c, 0, 77, 100
2, 41280, Note_on_c, 0, 71, 100
2, 41280, Note_on_c, 0, 80, 100
2, 41408, Note_off_c, 0, 71, 100
2, 41408, Note_off_c, 0, 80, 100
2, 41472, Note_on_c, 0, 71, 100
2, 41472, Note_on_c, 0, 80, 100
2, 41660, Note_off_c, 0, 71, 100
2, 41660, Note_off_c, 0, 80, 100
2, 41664, Note_on_c, 0, 65, 100
2, 41664, Note_on_c, 0, 71, 100
2, 41792, Note_off_c, 0, 65, 100
2, 41792, Note_off_c, 0, 71, 100
2, 41856, Note_on_c, 0, 65, 100
2, 41856, Note_on_c, 0, 71, 100
2, 42044, Note_off_c, 0, 65, 100
2, 42044, Note_off_c, 0, 71, 100
2, 42048, Note_on_c, 0, 65, 100
2, 42048, Note_on_c, 0, 74, 100
2, 42176, Note_off_c, 0, 65, 100
2, 42176, Note_off_c, 0, 74, 100
2, 42240, Note_on_c, 0, 65, 100
2, 42240, Note_on_c, 0, 74, 100
2, 43004, Note_off_c, 0, 65, 100
2, 43004, Note_off_c, 0, 74, 100
2, 43008, Note_on_c, 0, 73, 100
2, 43196, Note_off_c, 0, 73, 100
2, 43200, Note_on_c, 0, 71, 100
2, 43388, Note_off_c, 0, 71, 100
2, 43392, Note_on_c, 0, 69, 100
2, 43580, Note_off_c, 0, 69, 100
2, 43584, Note_on_c, 0, 68, 100
2, 43772, Note_off_c, 0, 68, 100
2, 43776, Note_on_c, 0, 69, 100
2, 43964, Note_off_c, 0, 69, 100
2, 43968, Note_on_c, 0, 73, 100
2, 44156, Note_off_c, 0, 73, 100
2, 44160, Note_on_c, 0, 80, 100
2, 44348, Note_off_c, 0, 80, 100
2, 44352, Note_on_c, 0, 77, 100
2, 44540, Note_off_c, 0, 77, 100
2, 44544, Note_on_c, 0, 78, 100
2, 45112, Note_off_c, 0, 78, 100
2, 45120, Note_on_c, 0, 83, 100
2, 45308, Note_off_c, 0, 83, 100
2, 45312, Note_on_c, 0, 81, 100
2, 45356, Note_off_c, 0, 81, 100
2, 45360, Note_on_c, 0, 80, 100
2, 45380, Note_off_c, 0, 80, 100
2, 45384, Note_on_c, 0, 81, 100
2, 45404, Note_off_c, 0, 81, 100
2, 45408, Note_on_c, 0, 80, 100
2, 45428, Note_off_c, 0, 80, 100
2, 45432, Note_on_c, 0, 81, 100
2, 45452, Note_off_c, 0, 81, 100
2, 45456, Note_on_c, 0, 80, 100
2, 45476, Note_off_c, 0, 80, 100
2, 45480, Note_on_c, 0, 81, 100
2, 45500, Note_off_c, 0, 81, 100
2, 45504, Note_on_c, 0, 80, 100
2, 45524, Note_off_c, 0, 80, 100
2, 45528, Note_on_c, 0, 81, 100
2, 45548, Note_off_c, 0, 81, 100
2, 45552, Note_on_c, 0, 80, 100
2, 45572, Note_off_c, 0, 80, 100
2, 45576, Note_on_c, 0, 81, 100
2, 45596, Note_off_c, 0, 81, 100
2, 45600, Note_on_c, 0, 80, 100
2, 45620, Note_off_c, 0, 80, 100
2, 45624, Note_on_c, 0, 81, 100
2, 45644, Note_off_c, 0, 81, 100
2, 45648, Note_on_c, 0, 80, 100
2, 45668, Note_off_c, 0, 80, 100
2, 45672, Note_on_c, 0, 81, 100
2, 45692, Note_off_c, 0, 81, 100
2, 45696, Note_on_c, 0, 80, 100
2, 45884, Note_off_c, 0, 80, 100
2, 45888, Note_on_c, 0, 78, 100
2, 46016, Note_off_c, 0, 78, 100
2, 46080, Note_on_c, 0, 78, 100
2, 47360, Note_off_c, 0, 78, 100
2, 48388, Note_on_c, 0, 72, 100
2, 48392, Note_on_c, 0, 81, 100
2, 49716, Note_off_c, 0, 72, 100
2, 49716, Note_off_c, 0, 81, 100
2, 49728, Note_on_c, 0, 71, 100
2, 49728, Note_on_c, 0, 79, 100
2, 49856, Note_off_c, 0, 71, 100
2, 49856, Note_off_c, 0, 79, 100
2, 49920, Note_on_c, 0, 71, 100
2, 49920, Note_on_c, 0, 79, 100
2, 50108, Note_off_c, 0, 71, 100
2, 50108, Note_off_c, 0, 79, 100
2, 50112, Note_on_c, 0, 69, 100
2, 50112, Note_on_c, 0, 78, 100
2, 50240, Note_off_c, 0, 69, 100
2, 50240, Note_off_c, 0, 78, 100
2, 50304, Note_on_c, 0, 69, 100
2, 50304, Note_on_c, 0, 78, 100
2, 50492, Note_off_c, 0, 69, 100
2, 50492, Note_off_c, 0, 78, 100
2, 50496, Note_on_c, 0, 71, 100
2, 50496, Note_on_c, 0, 79, 100
2, 50624, Note_off_c, 0, 71, 100
2, 50624, Note_off_c, 0, 79, 100
2, 50688, Note_on_c, 0, 71, 100
2, 50688, Note_on_c, 0, 79, 100
2, 51836, Note_off_c, 0, 71, 100
2, 51840, Note_on_c, 0, 76, 100
2, 53180, Note_off_c, 0, 76, 100
2, 53180, Note_off_c, 0, 79, 100
2, 53184, Note_on_c, 0, 74, 100
2, 53184, Note_on_c, 0, 78, 100
2, 53312, Note_off_c, 0, 74, 100
2, 53312, Note_off_c, 0, 78, 100
2, 53376, Note_on_c, 0, 74, 100
2, 53376, Note_on_c, 0, 78, 100
2, 53564, Note_off_c, 0, 74, 100
2, 53564, Note_off_c, 0, 78, 100
2, 53568, Note_on_c, 0, 73, 100
2, 53568, Note_on_c, 0, 76, 100
2, 53696, Note_off_c, 0, 73, 100
2, 53696, Note_off_c, 0, 76, 100
2, 53760, Note_on_c, 0, 73, 100
2, 53760, Note_on_c, 0, 76, 100
2, 53948, Note_off_c, 0, 73, 100
2, 53948, Note_off_c, 0, 76, 100
2, 53952, Note_on_c, 0, 76, 100
2, 53952, Note_on_c, 0, 79, 100
2, 54080, Note_off_c, 0, 76, 100
2, 54080, Note_off_c, 0, 79, 100
2, 54144, Note_on_c, 0, 76, 100
2, 54144, Note_on_c, 0, 79, 100
2, 54332, Note_off_c, 0, 76, 100
2, 54332, Note_off_c, 0, 79, 100
2, 54336, Note_on_c, 0, 74, 100
2, 54336, Note_on_c, 0, 78, 100
2, 54464, Note_off_c, 0, 74, 100
2, 54464, Note_off_c, 0, 78, 100
2, 54528, Note_on_c, 0, 74, 100
2, 54528, Note_on_c, 0, 78, 100
2, 54716, Note_off_c, 0, 74, 100
2, 54716, Note_off_c, 0, 78, 100
2, 54720, Note_on_c, 0, 73, 100
2, 54720, Note_on_c, 0, 76, 100
2, 54848, Note_off_c, 0, 73, 100
2, 54848, Note_off_c, 0, 76, 100
2, 54912, Note_on_c, 0, 73, 100
2, 54912, Note_on_c, 0, 76, 100
2, 55100, Note_off_c, 0, 73, 100
2, 55100, Note_off_c, 0, 76, 100
2, 55104, Note_on_c, 0, 66, 100
2, 55104, Note_on_c, 0, 74, 100
2, 55232, Note_off_c, 0, 66, 100
2, 55232, Note_off_c, 0, 74, 100
2, 55296, Note_on_c, 0, 66, 100
2, 55296, Note_on_c, 0, 74, 100
2, 57760, Note_off_c, 0, 66, 64
2, 57760, Note_off_c, 0, 74, 64
2, 57792, Note_on_c, 0, 73, 100
2, 57792, Note_on_c, 0, 64, 100
2, 57980, Note_off_c, 0, 73, 100
2, 57980, Note_off_c, 0, 64, 100
2, 57984, Note_on_c, 0, 67, 100
2, 57984, Note_on_c, 0, 76, 100
2, 58172, Note_off_c, 0, 67, 100
2, 58172, Note_off_c, 0, 76, 100
2, 58176, Note_on_c, 0, 66, 100
2, 58176, Note_on_c, 0, 74, 100
2, 58364, Note_off_c, 0, 66, 100
2, 58364, Note_off_c, 0, 74, 100
2, 58368, Note_on_c, 0, 71, 100
2, 58368, Note_on_c, 0, 79, 100
2, 58556, Note_off_c, 0, 71, 100
2, 58556, Note_off_c, 0, 79, 100
2, 58560, Note_on_c, 0, 69, 100
2, 58560, Note_on_c, 0, 78, 100
2, 58748, Note_off_c, 0, 69, 100
2, 58748, Note_off_c, 0, 78, 100
2, 58752, Note_on_c, 0, 67, 100
2, 58752, Note_on_c, 0, 76, 100
2, 58940, Note_off_c, 0, 67, 100
2, 58940, Note_off_c, 0, 76, 100
2, 58944, Note_on_c, 0, 66, 100
2, 58944, Note_on_c, 0, 74, 100
2, 59132, Note_off_c, 0, 66, 100
2, 59132, Note_off_c, 0, 74, 100
2, 59136, Note_on_c, 0, 64, 100
2, 59136, Note_on_c, 0, 73, 100
2, 59324, Note_off_c, 0, 73, 100
2, 59328, Note_on_c, 0, 76, 100
2, 59516, Note_off_c, 0, 64, 100
2, 59516, Note_off_c, 0, 76, 100
2, 59520, Note_on_c, 0, 70, 100
2, 59708, Note_off_c, 0, 70, 100
2, 59712, Note_on_c, 0, 71, 100
2, 59900, Note_off_c, 0, 71, 100
2, 59904, Note_on_c, 0, 71, 100
2, 59948, Note_off_c, 0, 71, 100
2, 59952, Note_on_c, 0, 70, 100
2, 59972, Note_off_c, 0, 70, 100
2, 59976, Note_on_c, 0, 71, 100
2, 59996, Note_off_c, 0, 71, 100
2, 60000, Note_on_c, 0, 70, 100
2, 60020, Note_off_c, 0, 70, 100
2, 60024, Note_on_c, 0, 71, 100
2, 60044, Note_off_c, 0, 71, 100
2, 60048, Note_on_c, 0, 70, 100
2, 60068, Note_off_c, 0, 70, 100
2, 60072, Note_on_c, 0, 71, 100
2, 60092, Note_off_c, 0, 71, 100
2, 60096, Note_on_c, 0, 70, 100
2, 60116, Note_off_c, 0, 70, 100
2, 60120, Note_on_c, 0, 71, 100
2, 60140, Note_off_c, 0, 71, 100
2, 60144, Note_on_c, 0, 70, 100
2, 60164, Note_off_c, 0, 70, 100
2, 60168, Note_on_c, 0, 71, 100
2, 60188, Note_off_c, 0, 71, 100
2, 60192, Note_on_c, 0, 70, 100
2, 60212, Note_off_c, 0, 70, 100
2, 60216, Note_on_c, 0, 71, 100
2, 60236, Note_off_c, 0, 71, 100
2, 60240, Note_on_c, 0, 70, 100
2, 60260, Note_off_c, 0, 70, 100
2, 60264, Note_on_c, 0, 71, 100
2, 60284, Note_off_c, 0, 71, 100
2, 60288, Note_on_c, 0, 70, 100
2, 60476, Note_off_c, 0, 70, 100
2, 60480, Note_on_c, 0, 68, 100
2, 60668, Note_off_c, 0, 68, 100
2, 60672, Note_on_c, 0, 66, 100
2, 60928, Note_off_c, 0, 66, 100
2, 61056, Note_on_c, 0, 66, 100
2, 62368, Note_off_c, 0, 66, 64
2, 62400, Note_on_c, 0, 74, 100
2, 62400, Note_on_c, 0, 66, 100
2, 62528, Note_off_c, 0, 74, 100
2, 62528, Note_off_c, 0, 66, 100
2, 62592, Note_on_c, 0, 66, 100
2, 62592, Note_on_c, 0, 74, 100
2, 62780, Note_off_c, 0, 66, 100
2, 62780, Note_off_c, 0, 74, 100
2, 62784, Note_on_c, 0, 64, 100
2, 62784, Note_on_c, 0, 73, 100
2, 62912, Note_off_c, 0, 64, 100
2, 62912, Note_off_c, 0, 73, 100
2, 62976, Note_on_c, 0, 64, 100
2, 62976, Note_on_c, 0, 73, 100
2, 63164, Note_off_c, 0, 64, 100
2, 63164, Note_off_c, 0, 73, 100
2, 63168, Note_on_c, 0, 62, 100
2, 63168, Note_on_c, 0, 71, 100
2, 63296, Note_off_c, 0, 62, 100
2, 63296, Note_off_c, 0, 71, 100
2, 63360, Note_on_c, 0, 62, 100
2, 63360, Note_on_c, 0, 71, 100
2, 64672, Note_off_c, 0, 62, 64
2, 64672, Note_off_c, 0, 71, 64
2, 64704, Note_on_c, 0, 76, 100
2, 64704, Note_on_c, 0, 67, 100
2, 64832, Note_off_c, 0, 76, 100
2, 64832, Note_off_c, 0, 67, 100
2, 64896, Note_on_c, 0, 67, 100
2, 64896, Note_on_c, 0, 76, 100
2, 65084, Note_off_c, 0, 67, 100
2, 65084, Note_off_c, 0, 76, 100
2, 65088, Note_on_c, 0, 66, 100
2, 65088, Note_on_c, 0, 74, 100
2, 65216, Note_off_c, 0, 66, 100
2, 65216, Note_off_c, 0, 74, 100
2, 65280, Note_on_c, 0, 66, 100
2, 65280, Note_on_c, 0, 74, 100
2, 65468, Note_off_c, 0, 66, 100
2, 65468, Note_off_c, 0, 74, 100
2, 65472, Note_on_c, 0, 64, 100
2, 65472, Note_on_c, 0, 73, 100
2, 65600, Note_off_c, 0, 64, 100
2, 65600, Note_off_c, 0, 73, 100
2, 65664, Note_on_c, 0, 64, 100
2, 65664, Note_on_c, 0, 73, 100
2, 65852, Note_off_c, 0, 64, 100
2, 65852, Note_off_c, 0, 73, 100
2, 65856, Note_on_c, 0, 67, 100
2, 65856, Note_on_c, 0, 76, 100
2, 65984, Note_off_c, 0, 67, 100
2, 65984, Note_off_c, 0, 76, 100
2, 66048, Note_on_c, 0, 76, 100
2, 66048, Note_on_c, 0, 67, 100
2, 66236, Note_off_c, 0, 76, 100
2, 66236, Note_off_c, 0, 67, 100
2, 66240, Note_on_c, 0, 61, 100
2, 66240, Note_on_c, 0, 70, 100
2, 66368, Note_off_c, 0, 61, 100
2, 66368, Note_off_c, 0, 70, 100
2, 66432, Note_on_c, 0, 61, 100
2, 66432, Note_on_c, 0, 70, 100
2, 66620, Note_off_c, 0, 61, 100
2, 66620, Note_off_c, 0, 70, 100
2, 66624, Note_on_c, 0, 64, 100
2, 66624, Note_on_c, 0, 73, 100
2, 66752, Note_off_c, 0, 64, 100
2, 66752, Note_off_c, 0, 73, 100
2, 66816, Note_on_c, 0, 64, 100
2, 66816, Note_on_c, 0, 73, 100
2, 67004, Note_off_c, 0, 64, 100
2, 67004, Note_off_c, 0, 73, 100
2, 67008, Note_on_c, 0, 58, 100
2, 67008, Note_on_c, 0, 64, 100
2, 67136, Note_off_c, 0, 58, 100
2, 67136, Note_off_c, 0, 64, 100
2, 67200, Note_on_c, 0, 58, 100
2, 67200, Note_on_c, 0, 64, 100
2, 67388, Note_off_c, 0, 58, 100
2, 67388, Note_off_c, 0, 64, 100
2, 67392, Note_on_c, 0, 67, 100
2, 67392, Note_on_c, 0, 58, 100
2, 67520, Note_off_c, 0, 67, 100
2, 67520, Note_off_c, 0, 58, 100
2, 67584, Note_on_c, 0, 58, 100
2, 67584, Note_on_c, 0, 67, 100
2, 68348, Note_off_c, 0, 58, 100
2, 68348, Note_off_c, 0, 67, 100
2, 68352, Note_on_c, 0, 66, 100
2, 68540, Note_off_c, 0, 66, 100
2, 68544, Note_on_c, 0, 64, 100
2, 68732, Note_off_c, 0, 64, 100
2, 68736, Note_on_c, 0, 62, 100
2, 68924, Note_off_c, 0, 62, 100
2, 68928, Note_on_c, 0, 61, 100
2, 69116, Note_off_c, 0, 61, 100
2, 69120, Note_on_c, 0, 62, 100
2, 69308, Note_off_c, 0, 62, 100
2, 69312, Note_on_c, 0, 66, 100
2, 69500, Note_off_c, 0, 66, 100
2, 69504, Note_on_c, 0, 73, 100
2, 69692, Note_off_c, 0, 73, 100
2, 69696, Note_on_c, 0, 70, 100
2, 69884, Note_off_c, 0, 70, 100
2, 69888, Note_on_c, 0, 71, 100
2, 70460, Note_off_c, 0, 71, 100
2, 70464, Note_on_c, 0, 76, 100
2, 70652, Note_off_c, 0, 76, 100
2, 70656, Note_on_c, 0, 74, 100
2, 70700, Note_off_c, 0, 74, 100
2, 70704, Note_on_c, 0, 73, 100
2, 70748, Note_off_c, 0, 73, 100
2, 70752, Note_on_c, 0, 74, 100
2, 70780, Note_off_c, 0, 74, 100
2, 70784, Note_on_c, 0, 73, 100
2, 70812, Note_off_c, 0, 73, 100
2, 70816, Note_on_c, 0, 74, 100
2, 70844, Note_off_c, 0, 74, 100
2, 70848, Note_on_c, 0, 73, 100
2, 70868, Note_off_c, 0, 73, 100
2, 70872, Note_on_c, 0, 74, 100
2, 70892, Note_off_c, 0, 74, 100
2, 70896, Note_on_c, 0, 73, 100
2, 70916, Note_off_c, 0, 73, 100
2, 70920, Note_on_c, 0, 74, 100
2, 70940, Note_off_c, 0, 74, 100
2, 70944, Note_on_c, 0, 73, 100
2, 70956, Note_off_c, 0, 73, 100
2, 70960, Note_on_c, 0, 74, 100
2, 70972, Note_off_c, 0, 74, 100
2, 70976, Note_on_c, 0, 73, 100
2, 70988, Note_off_c, 0, 73, 100
2, 70992, Note_on_c, 0, 74, 100
2, 71004, Note_off_c, 0, 74, 100
2, 71008, Note_on_c, 0, 73, 100
2, 71020, Note_off_c, 0, 73, 100
2, 71024, Note_on_c, 0, 74, 100
2, 71036, Note_off_c, 0, 74, 100
2, 71040, Note_on_c, 0, 73, 100
2, 71228, Note_off_c, 0, 73, 100
2, 71232, Note_on_c, 0, 71, 100
2, 71360, Note_off_c, 0, 71, 100
2, 71424, Note_on_c, 0, 71, 100
2, 73040, Note_off_c, 0, 71, 100
2, 73056, Note_on_c, 0, 69, 100
2, 73148, Note_off_c, 0, 69, 100
2, 73152, Note_on_c, 0, 67, 100
2, 73244, Note_off_c, 0, 67, 100
2, 73248, Note_on_c, 0, 66, 100
2, 73340, Note_off_c, 0, 66, 100
2, 73344, Note_on_c, 0, 64, 100
2, 73532, Note_off_c, 0, 64, 100
2, 73536, Note_on_c, 0, 66, 100
2, 73628, Note_off_c, 0, 66, 100
2, 73632, Note_on_c, 0, 63, 100
2, 73724, Note_off_c, 0, 63, 100
2, 73728, Note_on_c, 0, 64, 100
2, 75344, Note_off_c, 0, 64, 100
2, 75360, Note_on_c, 0, 66, 100
2, 75452, Note_off_c, 0, 66, 100
2, 75456, Note_on_c, 0, 67, 100
2, 75548, Note_off_c, 0, 67, 100
2, 75552, Note_on_c, 0, 66, 100
2, 75644, Note_off_c, 0, 66, 100
2, 75648, Note_on_c, 0, 64, 100
2, 75740, Note_off_c, 0, 64, 100
2, 75744, Note_on_c, 0, 62, 100
2, 75836, Note_off_c, 0, 62, 100
2, 75840, Note_on_c, 0, 60, 100
2, 75932, Note_off_c, 0, 60, 100
2, 75936, Note_on_c, 0, 62, 100
2, 75980, Note_off_c, 0, 62, 100
2, 75984, Note_on_c, 0, 59, 100
2, 76028, Note_off_c, 0, 59, 100
2, 76032, Note_on_c, 0, 60, 100
2, 76192, Note_off_c, 0, 60, 100
2, 76224, Note_on_c, 0, 64, 100
2, 76224, Note_on_c, 0, 55, 100
2, 76352, Note_off_c, 0, 64, 100
2, 76352, Note_off_c, 0, 55, 100
2, 76416, Note_on_c, 0, 64, 100
2, 76416, Note_on_c, 0, 55, 100
2, 76604, Note_off_c, 0, 64, 100
2, 76604, Note_off_c, 0, 55, 100
2, 76608, Note_on_c, 0, 67, 100
2, 76608, Note_on_c, 0, 60, 100
2, 76736, Note_off_c, 0, 67, 100
2, 76736, Note_off_c, 0, 60, 100
2, 76800, Note_on_c, 0, 67, 100
2, 76800, Note_on_c, 0, 60, 100
2, 76988, Note_off_c, 0, 67, 100
2, 76988, Note_off_c, 0, 60, 100
2, 76992, Note_on_c, 0, 72, 100
2, 76992, Note_on_c, 0, 64, 100
2, 77120, Note_off_c, 0, 72, 100
2, 77120, Note_off_c, 0, 64, 100
2, 77184, Note_on_c, 0, 72, 100
2, 77184, Note_on_c, 0, 64, 100
2, 77372, Note_off_c, 0, 72, 100
2, 77372, Note_off_c, 0, 64, 100
2, 77376, Note_on_c, 0, 67, 100
2, 77376, Note_on_c, 0, 76, 100
2, 77504, Note_off_c, 0, 67, 100
2, 77504, Note_off_c, 0, 76, 100
2, 77568, Note_on_c, 0, 67, 100
2, 77568, Note_on_c, 0, 76, 100
2, 77756, Note_off_c, 0, 67, 100
2, 77756, Note_off_c, 0, 76, 100
2, 77760, Note_on_c, 0, 71, 100
2, 77760, Note_on_c, 0, 79, 100
2, 77888, Note_off_c, 0, 71, 100
2, 77888, Note_off_c, 0, 79, 100
2, 77952, Note_on_c, 0, 71, 100
2, 77952, Note_on_c, 0, 79, 100
2, 78140, Note_off_c, 0, 71, 100
2, 78140, Note_off_c, 0, 79, 100
2, 78144, Note_on_c, 0, 73, 100
2, 78144, Note_on_c, 0, 82, 100
2, 78272, Note_off_c, 0, 73, 100
2, 78272, Note_off_c, 0, 82, 100
2, 78336, Note_on_c, 0, 73, 100
2, 78336, Note_on_c, 0, 82, 100
2, 78428, Note_off_c, 0, 73, 100
2, 78428, Note_off_c, 0, 82, 100
2, 78432, Note_on_c, 0, 79, 100
2, 78524, Note_off_c, 0, 79, 100
2, 78528, Note_on_c, 0, 78, 100
2, 78620, Note_off_c, 0, 78, 100
2, 78624, Note_on_c, 0, 76, 100
2, 78716, Note_off_c, 0, 76, 100
2, 78720, Note_on_c, 0, 74, 100
2, 78812, Note_off_c, 0, 74, 100
2, 78816, Note_on_c, 0, 73, 100
2, 78908, Note_off_c, 0, 73, 100
2, 78912, Note_on_c, 0, 76, 100
2, 79004, Note_off_c, 0, 76, 100
2, 79008, Note_on_c, 0, 74, 100
2, 79100, Note_off_c, 0, 74, 100
2, 79104, Note_on_c, 0, 73, 100
2, 79196, Note_off_c, 0, 73, 100
2, 79200, Note_on_c, 0, 71, 100
2, 79292, Note_off_c, 0, 71, 100
2, 79296, Note_on_c, 0, 70, 100
2, 79388, Note_off_c, 0, 70, 100
2, 79392, Note_on_c, 0, 73, 100
2, 79484, Note_off_c, 0, 73, 100
2, 79488, Note_on_c, 0, 70, 100
2, 79488, Note_on_c, 0, 64, 100
2, 79580, Note_off_c, 0, 64, 100
2, 79584, Note_on_c, 0, 79, 100
2, 79868, Note_off_c, 0, 70, 100
2, 79868, Note_off_c, 0, 79, 100
2, 80592, Note_on_c, 0, 71, 100
2, 80592, Note_on_c, 0, 62, 100
2, 80636, Note_off_c, 0, 62, 100
2, 80640, Note_on_c, 0, 78, 100
2, 80768, Note_off_c, 0, 71, 100
2, 80768, Note_off_c, 0, 78, 100
2, 80832, Note_on_c, 0, 74, 100
2, 81020, Note_off_c, 0, 74, 100
2, 81024, Note_on_c, 0, 73, 100
2, 81212, Note_off_c, 0, 73, 100
2, 81216, Note_on_c, 0, 76, 100
2, 81404, Note_off_c, 0, 76, 100
2, 81408, Note_on_c, 0, 70, 100
2, 81596, Note_off_c, 0, 70, 100
2, 81600, Note_on_c, 0, 71, 100
2, 81788, Note_off_c, 0, 71, 100
2, 81792, Note_on_c, 0, 67, 100
2, 81980, Note_off_c, 0, 67, 100
2, 81984, Note_on_c, 0, 66, 100
2, 82172, Note_off_c, 0, 66, 100
2, 82176, Note_on_c, 0, 74, 100
2, 82364, Note_off_c, 0, 74, 100
2, 82368, Note_on_c, 0, 73, 100
2, 82556, Note_off_c, 0, 73, 100
2, 82560, Note_on_c, 0, 71, 100
2, 82748, Note_off_c, 0, 71, 100
2, 82752, Note_on_c, 0, 70, 100
2, 82940, Note_off_c, 0, 70, 100
2, 82944, Note_on_c, 0, 71, 100
2, 85244, Note_off_c, 0, 71, 100
2, 85244, End_track
3, 0, Start_track
3, 0, Title_t, "Hps. and vl. sonata in B-"
3, 0, Control_c, 1, 0, 0
3, 0, Program_c, 1, 6
3, 0, Control_c, 1, 7, 127
3, 0, Control_c, 1, 10, 93
3, 0, Control_c, 1, 91, 63
3, 0, Key_signature, 2, "minor"
3, 2304, Note_on_c, 1, 74, 100
3, 2304, Note_on_c, 1, 78, 100
3, 3256, Note_off_c, 1, 74, 100
3, 3256, Note_off_c, 1, 78, 100
3, 3648, Note_on_c, 1, 76, 100
3, 3648, Note_on_c, 1, 79, 100
3, 3776, Note_off_c, 1, 76, 100
3, 3776, Note_off_c, 1, 79, 100
3, 3840, Note_on_c, 1, 76, 100
3, 3840, Note_on_c, 1, 79, 100
3, 4028, Note_off_c, 1, 76, 100
3, 4028, Note_off_c, 1, 79, 100
3, 4032, Note_on_c, 1, 74, 100
3, 4032, Note_on_c, 1, 78, 100
3, 4160, Note_off_c, 1, 74, 100
3, 4160, Note_off_c, 1, 78, 100
3, 4224, Note_on_c, 1, 74, 100
3, 4224, Note_on_c, 1, 78, 100
3, 4412, Note_off_c, 1, 74, 100
3, 4412, Note_off_c, 1, 78, 100
3, 4416, Note_on_c, 1, 73, 100
3, 4416, Note_on_c, 1, 76, 100
3, 4544, Note_off_c, 1, 73, 100
3, 4544, Note_off_c, 1, 76, 100
3, 4608, Note_on_c, 1, 73, 100
3, 4608, Note_on_c, 1, 76, 100
3, 5560, Note_off_c, 1, 73, 100
3, 5560, Note_off_c, 1, 76, 100
3, 5952, Note_on_c, 1, 78, 100
3, 5952, Note_on_c, 1, 74, 100
3, 6080, Note_off_c, 1, 78, 100
3, 6080, Note_off_c, 1, 74, 100
3, 6144, Note_on_c, 1, 74, 100
3, 6144, Note_on_c, 1, 78, 100
3, 6332, Note_off_c, 1, 74, 100
3, 6332, Note_off_c, 1, 78, 100
3, 6336, Note_on_c, 1, 73, 100
3, 6336, Note_on_c, 1, 76, 100
3, 6464, Note_off_c, 1, 73, 100
3, 6464, Note_off_c, 1, 76, 100
3, 6528, Note_on_c, 1, 73, 100
3, 6528, Note_on_c, 1, 76, 100
3, 6716, Note_off_c, 1, 73, 100
3, 6716, Note_off_c, 1, 76, 100
3, 6720, Note_on_c, 1, 74, 100
3, 6720, Note_on_c, 1, 71, 100
3, 6848, Note_off_c, 1, 74, 100
3, 6848, Note_off_c, 1, 71, 100
3, 6912, Note_on_c, 1, 71, 100
3, 6912, Note_on_c, 1, 74, 100
3, 7864, Note_off_c, 1, 71, 100
3, 7864, Note_off_c, 1, 74, 100
3, 8256, Note_on_c, 1, 83, 100
3, 8256, Note_on_c, 1, 73, 100
3, 8384, Note_off_c, 1, 83, 100
3, 8384, Note_off_c, 1, 73, 100
3, 8448, Note_on_c, 1, 73, 100
3, 8448, Note_on_c, 1, 83, 100
3, 8636, Note_off_c, 1, 73, 100
3, 8636, Note_off_c, 1, 83, 100
3, 8640, Note_on_c, 1, 75, 100
3, 8640, Note_on_c, 1, 81, 100
3, 8768, Note_off_c, 1, 75, 100
3, 8768, Note_off_c, 1, 81, 100
3, 8832, Note_on_c, 1, 75, 100
3, 8832, Note_on_c, 1, 81, 100
3, 9020, Note_off_c, 1, 75, 100
3, 9020, Note_off_c, 1, 81, 100
3, 9024, Note_on_c, 1, 79, 100
3, 9024, Note_on_c, 1, 76, 100
3, 9152, Note_off_c, 1, 79, 100
3, 9152, Note_off_c, 1, 76, 100
3, 9216, Note_on_c, 1, 76, 100
3, 9216, Note_on_c, 1, 79, 100
3, 9404, Note_off_c, 1, 76, 100
3, 9404, Note_off_c, 1, 79, 100
3, 9408, Note_on_c, 1, 74, 100
3, 9408, Note_on_c, 1, 78, 100
3, 9536, Note_off_c, 1, 74, 100
3, 9536, Note_off_c, 1, 78, 100
3, 9600, Note_on_c, 1, 74, 100
3, 9600, Note_on_c, 1, 78, 100
3, 9788, Note_off_c, 1, 74, 100
3, 9788, Note_off_c, 1, 78, 100
3, 9792, Note_on_c, 1, 73, 100
3, 9792, Note_on_c, 1, 76, 100
3, 9920, Note_off_c, 1, 73, 100
3, 9920, Note_off_c, 1, 76, 100
3, 9984, Note_on_c, 1, 76, 100
3, 9984, Note_on_c, 1, 73, 100
3, 10172, Note_off_c, 1, 76, 100
3, 10172, Note_off_c, 1, 73, 100
3, 10176, Note_on_c, 1, 71, 100
3, 10176, Note_on_c, 1, 74, 100
3, 10304, Note_off_c, 1, 71, 100
3, 10304, Note_off_c, 1, 74, 100
3, 10368, Note_on_c, 1, 66, 100
3, 10368, Note_on_c, 1, 74, 100
3, 10556, Note_off_c, 1, 66, 100
3, 10556, Note_off_c, 1, 74, 100
3, 10560, Note_on_c, 1, 64, 100
3, 10560, Note_on_c, 1, 73, 100
3, 10688, Note_off_c, 1, 64, 100
3, 10688, Note_off_c, 1, 73, 100
3, 10752, Note_on_c, 1, 64, 100
3, 10752, Note_on_c, 1, 73, 100
3, 10940, Note_off_c, 1, 64, 100
3, 10940, Note_off_c, 1, 73, 100
3, 10944, Note_on_c, 1, 62, 100
3, 10944, Note_on_c, 1, 71, 100
3, 11072, Note_off_c, 1, 62, 100
3, 11072, Note_off_c, 1, 71, 100
3, 11136, Note_on_c, 1, 62, 100
3, 11136, Note_on_c, 1, 71, 100
3, 11324, Note_off_c, 1, 62, 100
3, 11324, Note_off_c, 1, 71, 100
3, 11328, Note_on_c, 1, 61, 100
3, 11328, Note_on_c, 1, 70, 100
3, 11456, Note_off_c, 1, 61, 100
3, 11456, Note_off_c, 1, 70, 100
3, 11520, Note_on_c, 1, 61, 100
3, 11520, Note_on_c, 1, 70, 100
3, 11708, Note_off_c, 1, 61, 100
3, 11708, Note_off_c, 1, 70, 100
3, 11712, Note_on_c, 1, 59, 100
3, 11712, Note_on_c, 1, 68, 100
3, 11840, Note_off_c, 1, 59, 100
3, 11840, Note_off_c, 1, 68, 100
3, 11904, Note_on_c, 1, 59, 100
3, 11904, Note_on_c, 1, 68, 100
3, 12092, Note_off_c, 1, 59, 100
3, 12092, Note_off_c, 1, 68, 100
3, 12096, Note_on_c, 1, 61, 100
3, 12096, Note_on_c, 1, 70, 100
3, 12224, Note_off_c, 1, 61, 100
3, 12224, Note_off_c, 1, 70, 100
3, 12288, Note_on_c, 1, 61, 100
3, 12288, Note_on_c, 1, 70, 100
3, 12476, Note_off_c, 1, 61, 100
3, 12476, Note_off_c, 1, 70, 100
3, 12480, Note_on_c, 1, 62, 100
3, 12480, Note_on_c, 1, 71, 100
3, 12608, Note_off_c, 1, 62, 100
3, 12608, Note_off_c, 1, 71, 100
3, 12672, Note_on_c, 1, 62, 100
3, 12672, Note_on_c, 1, 71, 100
3, 12860, Note_off_c, 1, 62, 100
3, 12860, Note_off_c, 1, 71, 100
3, 12864, Note_on_c, 1, 61, 100
3, 12864, Note_on_c, 1, 70, 100
3, 12992, Note_off_c, 1, 61, 100
3, 12992, Note_off_c, 1, 70, 100
3, 13056, Note_on_c, 1, 61, 100
3, 13056, Note_on_c, 1, 70, 100
3, 13244, Note_off_c, 1, 61, 100
3, 13244, Note_off_c, 1, 70, 100
3, 13248, Note_on_c, 1, 62, 100
3, 13248, Note_on_c, 1, 71, 100
3, 13376, Note_off_c, 1, 62, 100
3, 13376, Note_off_c, 1, 71, 100
3, 13440, Note_on_c, 1, 62, 100
3, 13440, Note_on_c, 1, 71, 100
3, 13628, Note_off_c, 1, 62, 100
3, 13628, Note_off_c, 1, 71, 100
3, 13632, Note_on_c, 1, 64, 100
3, 13632, Note_on_c, 1, 73, 100
3, 13760, Note_off_c, 1, 64, 100
3, 13760, Note_off_c, 1, 73, 100
3, 13824, Note_on_c, 1, 73, 100
3, 13824, Note_on_c, 1, 64, 100
3, 14972, Note_off_c, 1, 73, 100
3, 14972, Note_off_c, 1, 64, 100
3, 14976, Note_on_c, 1, 71, 100
3, 14976, Note_on_c, 1, 63, 100
3, 15164, Note_off_c, 1, 71, 100
3, 15164, Note_off_c, 1, 63, 100
3, 15168, Note_on_c, 1, 64, 100
3, 15168, Note_on_c, 1, 73, 100
3, 15296, Note_off_c, 1, 64, 100
3, 15296, Note_off_c, 1, 73, 100
3, 15360, Note_on_c, 1, 64, 100
3, 15360, Note_on_c, 1, 73, 100
3, 15548, Note_off_c, 1, 64, 100
3, 15548, Note_off_c, 1, 73, 100
3, 15552, Note_on_c, 1, 66, 100
3, 15552, Note_on_c, 1, 75, 100
3, 15680, Note_off_c, 1, 66, 100
3, 15680, Note_off_c, 1, 75, 100
3, 15744, Note_on_c, 1, 66, 100
3, 15744, Note_on_c, 1, 75, 100
3, 15932, Note_off_c, 1, 66, 100
3, 15932, Note_off_c, 1, 75, 100
3, 15936, Note_on_c, 1, 67, 100
3, 15936, Note_on_c, 1, 76, 100
3, 16064, Note_off_c, 1, 67, 100
3, 16064, Note_off_c, 1, 76, 100
3, 16128, Note_on_c, 1, 67, 100
3, 16128, Note_on_c, 1, 76, 100
3, 16700, Note_off_c, 1, 67, 100
3, 16700, Note_off_c, 1, 76, 100
3, 16704, Note_on_c, 1, 64, 100
3, 16704, Note_on_c, 1, 71, 100
3, 16892, Note_off_c, 1, 64, 100
3, 16892, Note_off_c, 1, 71, 100
3, 16896, Note_on_c, 1, 71, 100
3, 16896, Note_on_c, 1, 74, 100
3, 17084, Note_off_c, 1, 71, 100
3, 17084, Note_off_c, 1, 74, 100
3, 17088, Note_on_c, 1, 70, 100
3, 17088, Note_on_c, 1, 73, 100
3, 17276, Note_off_c, 1, 70, 100
3, 17276, Note_off_c, 1, 73, 100
3, 17280, Note_on_c, 1, 71, 100
3, 17280, Note_on_c, 1, 74, 100
3, 17468, Note_off_c, 1, 71, 100
3, 17468, Note_off_c, 1, 74, 100
3, 17472, Note_on_c, 1, 73, 100
3, 17472, Note_on_c, 1, 76, 100
3, 17600, Note_off_c, 1, 73, 100
3, 17600, Note_off_c, 1, 76, 100
3, 17664, Note_on_c, 1, 73, 100
3, 17664, Note_on_c, 1, 76, 100
3, 17852, Note_off_c, 1, 73, 100
3, 17852, Note_off_c, 1, 76, 100
3, 17856, Note_on_c, 1, 74, 100
3, 17856, Note_on_c, 1, 78, 100
3, 17984, Note_off_c, 1, 74, 100
3, 17984, Note_off_c, 1, 78, 100
3, 18048, Note_on_c, 1, 74, 100
3, 18048, Note_on_c, 1, 78, 100
3, 18236, Note_off_c, 1, 74, 100
3, 18236, Note_off_c, 1, 78, 100
3, 18240, Note_on_c, 1, 76, 100
3, 18240, Note_on_c, 1, 79, 100
3, 18368, Note_off_c, 1, 76, 100
3, 18368, Note_off_c, 1, 79, 100
3, 18432, Note_on_c, 1, 76, 100
3, 18432, Note_on_c, 1, 79, 100
3, 19384, Note_off_c, 1, 76, 100
3, 19384, Note_off_c, 1, 79, 100
3, 19776, Note_on_c, 1, 71, 100
3, 19776, Note_on_c, 1, 78, 100
3, 19904, Note_off_c, 1, 71, 100
3, 19904, Note_off_c, 1, 78, 100
3, 19968, Note_on_c, 1, 71, 100
3, 19968, Note_on_c, 1, 78, 100
3, 20156, Note_off_c, 1, 71, 100
3, 20156, Note_off_c, 1, 78, 100
3, 20160, Note_on_c, 1, 76, 100
3, 20160, Note_on_c, 1, 80, 100
3, 20288, Note_off_c, 1, 76, 100
3, 20288, Note_off_c, 1, 80, 100
3, 20352, Note_on_c, 1, 76, 100
3, 20352, Note_on_c, 1, 80, 100
3, 20540, Note_off_c, 1, 76, 100
3, 20540, Note_off_c, 1, 80, 100
3, 20544, Note_on_c, 1, 73, 100
3, 20544, Note_on_c, 1, 82, 100
3, 20672, Note_off_c, 1, 73, 100
3, 20672, Note_off_c, 1, 82, 100
3, 20736, Note_on_c, 1, 73, 100
3, 20736, Note_on_c, 1, 82, 100
3, 21688, Note_off_c, 1, 73, 100
3, 21688, Note_off_c, 1, 82, 100
3, 22080, Note_on_c, 1, 80, 100
3, 22080, Note_on_c, 1, 71, 100
3, 22268, Note_off_c, 1, 80, 100
3, 22268, Note_off_c, 1, 71, 100
3, 22272, Note_on_c, 1, 73, 100
3, 22272, Note_on_c, 1, 82, 100
3, 22460, Note_off_c, 1, 73, 100
3, 22460, Note_off_c, 1, 82, 100
3, 22464, Note_on_c, 1, 83, 100
3, 22464, Note_on_c, 1, 74, 100
3, 22652, Note_off_c, 1, 83, 100
3, 22652, Note_off_c, 1, 74, 100
3, 22656, Note_on_c, 1, 73, 100
3, 22656, Note_on_c, 1, 82, 100
3, 22844, Note_off_c, 1, 73, 100
3, 22844, Note_off_c, 1, 82, 100
3, 22848, Note_on_c, 1, 83, 100
3, 22848, Note_on_c, 1, 74, 100
3, 23036, Note_off_c, 1, 83, 100
3, 23036, Note_off_c, 1, 74, 100
3, 23040, Note_on_c, 1, 85, 100
3, 23612, Note_off_c, 1, 85, 100
3, 23616, Note_on_c, 1, 83, 100
3, 23804, Note_off_c, 1, 83, 100
3, 23808, Note_on_c, 1, 82, 100
3, 23996, Note_off_c, 1, 82, 100
3, 24000, Note_on_c, 1, 83, 100
3, 24188, Note_off_c, 1, 83, 100
3, 24192, Note_on_c, 1, 83, 100
3, 24236, Note_off_c, 1, 83, 100
3, 24240, Note_on_c, 1, 82, 100
3, 24284, Note_off_c, 1, 82, 100
3, 24288, Note_on_c, 1, 83, 100
3, 24316, Note_off_c, 1, 83, 100
3, 24320, Note_on_c, 1, 82, 100
3, 24348, Note_off_c, 1, 82, 100
3, 24352, Note_on_c, 1, 83, 100
3, 24380, Note_off_c, 1, 83, 100
3, 24384, Note_on_c, 1, 82, 100
3, 24404, Note_off_c, 1, 82, 100
3, 24408, Note_on_c, 1, 83, 100
3, 24428, Note_off_c, 1, 83, 100
3, 24432, Note_on_c, 1, 82, 100
3, 24452, Note_off_c, 1, 82, 100
3, 24456, Note_on_c, 1, 83, 100
3, 24476, Note_off_c, 1, 83, 100
3, 24480, Note_on_c, 1, 82, 100
3, 24500, Note_off_c, 1, 82, 100
3, 24504, Note_on_c, 1, 83, 100
3, 24524, Note_off_c, 1, 83, 100
3, 24528, Note_on_c, 1, 82, 100
3, 24548, Note_off_c, 1, 82, 100
3, 24552, Note_on_c, 1, 80, 100
3, 24592, Note_on_c, 1, 82, 100
3, 24596, Note_off_c, 1, 80, 100
3, 24972, Note_off_c, 1, 82, 100
3, 25344, Note_on_c, 1, 78, 100
3, 25344, Note_on_c, 1, 74, 100
3, 25344, Note_on_c, 1, 71, 100
3, 25344, Note_on_c, 1, 83, 100
3, 25532, Note_off_c, 1, 78, 100
3, 25532, Note_off_c, 1, 74, 100
3, 25532, Note_off_c, 1, 71, 100
3, 25532, Note_off_c, 1, 83, 100
3, 25536, Note_on_c, 1, 74, 100
3, 25536, Note_on_c, 1, 78, 100
3, 25664, Note_off_c, 1, 74, 100
3, 25664, Note_off_c, 1, 78, 100
3, 25728, Note_on_c, 1, 74, 100
3, 25728, Note_on_c, 1, 78, 100
3, 25916, Note_off_c, 1, 74, 100
3, 25916, Note_off_c, 1, 78, 100
3, 25920, Note_on_c, 1, 70, 100
3, 25920, Note_on_c, 1, 76, 100
3, 26048, Note_off_c, 1, 70, 100
3, 26048, Note_off_c, 1, 76, 100
3, 26112, Note_on_c, 1, 73, 100
3, 26112, Note_on_c, 1, 76, 100
3, 26300, Note_off_c, 1, 73, 100
3, 26300, Note_off_c, 1, 76, 100
3, 26304, Note_on_c, 1, 66, 100
3, 26304, Note_on_c, 1, 74, 100
3, 26432, Note_off_c, 1, 66, 100
3, 26432, Note_off_c, 1, 74, 100
3, 26496, Note_on_c, 1, 66, 100
3, 27068, Note_off_c, 1, 66, 100
3, 27072, Note_on_c, 1, 68, 100
3, 27260, Note_off_c, 1, 68, 100
3, 27264, Note_on_c, 1, 66, 100
3, 27452, Note_off_c, 1, 66, 100
3, 27456, Note_on_c, 1, 68, 100
3, 27644, Note_off_c, 1, 68, 100
3, 27648, Note_on_c, 1, 65, 100
3, 28028, Note_off_c, 1, 65, 100
3, 28128, Note_on_c, 1, 66, 100
3, 28220, Note_off_c, 1, 66, 100
3, 28224, Note_on_c, 1, 65, 100
3, 28316, Note_off_c, 1, 65, 100
3, 28320, Note_on_c, 1, 66, 100
3, 28412, Note_off_c, 1, 66, 100
3, 28416, Note_on_c, 1, 65, 100
3, 28460, Note_off_c, 1, 65, 100
3, 28464, Note_on_c, 1, 66, 100
3, 28508, Note_off_c, 1, 66, 100
3, 28512, Note_on_c, 1, 68, 100
3, 28540, Note_off_c, 1, 68, 100
3, 28544, Note_on_c, 1, 66, 100
3, 28572, Note_off_c, 1, 66, 100
3, 28576, Note_on_c, 1, 68, 100
3, 28604, Note_off_c, 1, 68, 100
3, 28608, Note_on_c, 1, 66, 100
3, 28636, Note_off_c, 1, 66, 100
3, 28640, Note_on_c, 1, 68, 100
3, 28668, Note_off_c, 1, 68, 100
3, 28672, Note_on_c, 1, 66, 100
3, 28700, Note_off_c, 1, 66, 100
3, 28704, Note_on_c, 1, 65, 100
3, 28748, Note_off_c, 1, 65, 100
3, 28752, Note_on_c, 1, 66, 100
3, 28796, Note_off_c, 1, 66, 100
3, 28800, Note_on_c, 1, 68, 100
3, 28988, Note_off_c, 1, 68, 100
3, 28992, Note_on_c, 1, 73, 100
3, 28992, Note_on_c, 1, 65, 100
3, 29120, Note_off_c, 1, 73, 100
3, 29120, Note_off_c, 1, 65, 100
3, 29184, Note_on_c, 1, 65, 100
3, 29184, Note_on_c, 1, 73, 100
3, 29372, Note_off_c, 1, 65, 100
3, 29372, Note_off_c, 1, 73, 100
3, 29376, Note_on_c, 1, 61, 100
3, 29376, Note_on_c, 1, 71, 100
3, 29504, Note_off_c, 1, 61, 100
3, 29504, Note_off_c, 1, 71, 100
3, 29568, Note_on_c, 1, 61, 100
3, 29568, Note_on_c, 1, 71, 100
3, 29756, Note_off_c, 1, 61, 100
3, 29756, Note_off_c, 1, 71, 100
3, 29760, Note_on_c, 1, 66, 100
3, 29760, Note_on_c, 1, 69, 100
3, 29888, Note_off_c, 1, 66, 100
3, 29888, Note_off_c, 1, 69, 100
3, 29952, Note_on_c, 1, 66, 100
3, 30524, Note_off_c, 1, 66, 100
3, 30528, Note_on_c, 1, 69, 100
3, 30716, Note_off_c, 1, 69, 100
3, 30720, Note_on_c, 1, 68, 100
3, 30908, Note_off_c, 1, 68, 100
3, 30912, Note_on_c, 1, 69, 100
3, 31100, Note_off_c, 1, 69, 100
3, 31104, Note_on_c, 1, 66, 100
3, 32252, Note_off_c, 1, 66, 100
3, 32256, Note_on_c, 1, 66, 100
3, 32828, Note_off_c, 1, 66, 100
3, 32832, Note_on_c, 1, 69, 100
3, 33020, Note_off_c, 1, 69, 100
3, 33024, Note_on_c, 1, 68, 100
3, 33212, Note_off_c, 1, 68, 100
3, 33216, Note_on_c, 1, 69, 100
3, 33404, Note_off_c, 1, 69, 100
3, 33408, Note_on_c, 1, 71, 100
3, 33788, Note_off_c, 1, 71, 100
3, 33792, Note_on_c, 1, 66, 100
3, 34556, Note_off_c, 1, 66, 100
3, 34752, Note_on_c, 1, 56, 100
3, 34940, Note_off_c, 1, 56, 100
3, 34944, Note_on_c, 1, 61, 100
3, 35132, Note_off_c, 1, 61, 100
3, 35136, Note_on_c, 1, 63, 100
3, 35324, Note_off_c, 1, 63, 100
3, 35328, Note_on_c, 1, 66, 100
3, 35516, Note_off_c, 1, 66, 100
3, 35520, Note_on_c, 1, 65, 100
3, 35708, Note_off_c, 1, 65, 100
3, 35712, Note_on_c, 1, 66, 100
3, 36664, Note_off_c, 1, 66, 100
3, 36672, Note_on_c, 1, 68, 100
3, 36860, Note_off_c, 1, 68, 100
3, 36864, Note_on_c, 1, 78, 100
3, 36864, Note_on_c, 1, 69, 100
3, 37244, Note_off_c, 1, 78, 100
3, 37244, Note_off_c, 1, 69, 100
3, 38208, Note_on_c, 1, 69, 100
3, 38208, Note_on_c, 1, 78, 100
3, 38336, Note_off_c, 1, 69, 100
3, 38336, Note_off_c, 1, 78, 100
3, 38400, Note_on_c, 1, 69, 100
3, 38400, Note_on_c, 1, 78, 100
3, 38588, Note_off_c, 1, 69, 100
3, 38588, Note_off_c, 1, 78, 100
3, 38592, Note_on_c, 1, 73, 100
3, 38592, Note_on_c, 1, 76, 100
3, 38720, Note_off_c, 1, 73, 100
3, 38720, Note_off_c, 1, 76, 100
3, 38784, Note_on_c, 1, 73, 100
3, 38784, Note_on_c, 1, 76, 100
3, 38972, Note_off_c, 1, 73, 100
3, 38972, Note_off_c, 1, 76, 100
3, 38976, Note_on_c, 1, 66, 100
3, 38976, Note_on_c, 1, 74, 100
3, 39104, Note_off_c, 1, 66, 100
3, 39104, Note_off_c, 1, 74, 100
3, 39168, Note_on_c, 1, 74, 100
3, 39548, Note_off_c, 1, 74, 100
3, 39552, Note_on_c, 1, 78, 100
3, 39740, Note_off_c, 1, 78, 100
3, 39744, Note_on_c, 1, 77, 100
3, 39932, Note_off_c, 1, 77, 100
3, 39936, Note_on_c, 1, 78, 100
3, 40124, Note_off_c, 1, 78, 100
3, 40320, Note_on_c, 1, 78, 100
3, 40700, Note_off_c, 1, 78, 100
3, 40704, Note_on_c, 1, 74, 100
3, 41084, Note_off_c, 1, 74, 100
3, 41088, Note_on_c, 1, 71, 100
3, 41468, Note_off_c, 1, 71, 100
3, 41472, Note_on_c, 1, 68, 100
3, 41852, Note_off_c, 1, 68, 100
3, 41856, Note_on_c, 1, 71, 100
3, 42620, Note_off_c, 1, 71, 100
3, 42624, Note_on_c, 1, 71, 100
3, 43004, Note_off_c, 1, 71, 100
3, 43008, Note_on_c, 1, 69, 100
3, 43196, Note_off_c, 1, 69, 100
3, 43200, Note_on_c, 1, 68, 100
3, 43388, Note_off_c, 1, 68, 100
3, 43392, Note_on_c, 1, 73, 100
3, 43964, Note_off_c, 1, 73, 100
3, 43968, Note_on_c, 1, 78, 100
3, 44156, Note_off_c, 1, 78, 100
3, 44160, Note_on_c, 1, 77, 100
3, 44348, Note_off_c, 1, 77, 100
3, 44352, Note_on_c, 1, 80, 100
3, 44540, Note_off_c, 1, 80, 100
3, 44544, Note_on_c, 1, 78, 100
3, 45016, Note_off_c, 1, 78, 100
3, 45024, Note_on_c, 1, 77, 100
3, 45116, Note_off_c, 1, 77, 100
3, 45120, Note_on_c, 1, 78, 100
3, 45212, Note_off_c, 1, 78, 100
3, 45216, Note_on_c, 1, 80, 100
3, 45308, Note_off_c, 1, 80, 100
3, 45312, Note_on_c, 1, 78, 100
3, 45356, Note_off_c, 1, 78, 100
3, 45360, Note_on_c, 1, 77, 100
3, 45380, Note_off_c, 1, 77, 100
3, 45384, Note_on_c, 1, 78, 100
3, 45404, Note_off_c, 1, 78, 100
3, 45408, Note_on_c, 1, 77, 100
3, 45428, Note_off_c, 1, 77, 100
3, 45432, Note_on_c, 1, 78, 100
3, 45452, Note_off_c, 1, 78, 100
3, 45456, Note_on_c, 1, 77, 100
3, 45476, Note_off_c, 1, 77, 100
3, 45480, Note_on_c, 1, 78, 100
3, 45500, Note_off_c, 1, 78, 100
3, 45504, Note_on_c, 1, 77, 100
3, 45524, Note_off_c, 1, 77, 100
3, 45528, Note_on_c, 1, 78, 100
3, 45548, Note_off_c, 1, 78, 100
3, 45552, Note_on_c, 1, 77, 100
3, 45572, Note_off_c, 1, 77, 100
3, 45576, Note_on_c, 1, 78, 100
3, 45596, Note_off_c, 1, 78, 100
3, 45600, Note_on_c, 1, 77, 100
3, 45620, Note_off_c, 1, 77, 100
3, 45624, Note_on_c, 1, 78, 100
3, 45644, Note_off_c, 1, 78, 100
3, 45648, Note_on_c, 1, 77, 100
3, 45668, Note_off_c, 1, 77, 100
3, 45672, Note_on_c, 1, 78, 100
3, 45692, Note_off_c, 1, 78, 100
3, 45696, Note_on_c, 1, 77, 100
3, 45884, Note_off_c, 1, 77, 100
3, 45888, Note_on_c, 1, 78, 100
3, 46016, Note_off_c, 1, 78, 100
3, 46080, Note_on_c, 1, 69, 100
3, 46080, Note_on_c, 1, 78, 100
3, 47228, Note_off_c, 1, 69, 100
3, 47228, Note_off_c, 1, 78, 100
3, 47424, Note_on_c, 1, 72, 100
3, 47424, Note_on_c, 1, 81, 100
3, 47552, Note_off_c, 1, 72, 100
3, 47552, Note_off_c, 1, 81, 100
3, 47616, Note_on_c, 1, 72, 100
3, 47616, Note_on_c, 1, 81, 100
3, 47804, Note_off_c, 1, 72, 100
3, 47804, Note_off_c, 1, 81, 100
3, 47808, Note_on_c, 1, 71, 100
3, 47808, Note_on_c, 1, 79, 100
3, 47936, Note_off_c, 1, 71, 100
3, 47936, Note_off_c, 1, 79, 100
3, 48000, Note_on_c, 1, 71, 100
3, 48000, Note_on_c, 1, 79, 100
3, 48188, Note_off_c, 1, 71, 100
3, 48188, Note_off_c, 1, 79, 100
3, 48192, Note_on_c, 1, 69, 100
3, 48192, Note_on_c, 1, 78, 100
3, 48320, Note_off_c, 1, 69, 100
3, 48320, Note_off_c, 1, 78, 100
3, 48384, Note_on_c, 1, 78, 100
3, 48956, Note_off_c, 1, 78, 100
3, 48960, Note_on_c, 1, 78, 100
3, 49148, Note_off_c, 1, 78, 100
3, 49152, Note_on_c, 1, 76, 100
3, 49340, Note_off_c, 1, 76, 100
3, 49344, Note_on_c, 1, 78, 100
3, 49532, Note_off_c, 1, 78, 100
3, 49536, Note_on_c, 1, 75, 100
3, 49916, Note_off_c, 1, 75, 100
3, 49920, Note_on_c, 1, 76, 100
3, 50300, Note_off_c, 1, 76, 100
3, 50304, Note_on_c, 1, 78, 100
3, 50396, Note_off_c, 1, 78, 100
3, 50400, Note_on_c, 1, 75, 100
3, 50492, Note_off_c, 1, 75, 100
3, 50496, Note_on_c, 1, 76, 100
3, 50684, Note_off_c, 1, 76, 100
3, 50688, Note_on_c, 1, 76, 100
3, 51260, Note_off_c, 1, 76, 100
3, 51264, Note_on_c, 1, 79, 100
3, 51452, Note_off_c, 1, 79, 100
3, 51456, Note_on_c, 1, 78, 100
3, 51644, Note_off_c, 1, 78, 100
3, 51648, Note_on_c, 1, 79, 100
3, 51836, Note_off_c, 1, 79, 100
3, 51840, Note_on_c, 1, 76, 100
3, 52028, Note_off_c, 1, 76, 100
3, 52032, Note_on_c, 1, 74, 100
3, 52220, Note_off_c, 1, 74, 100
3, 52224, Note_on_c, 1, 73, 100
3, 53372, Note_off_c, 1, 73, 100
3, 53376, Note_on_c, 1, 62, 100
3, 53376, Note_on_c, 1, 71, 100
3, 53756, Note_off_c, 1, 62, 100
3, 53756, Note_off_c, 1, 71, 100
3, 53760, Note_on_c, 1, 64, 100
3, 53760, Note_on_c, 1, 73, 100
3, 54140, Note_off_c, 1, 64, 100
3, 54140, Note_off_c, 1, 73, 100
3, 54144, Note_on_c, 1, 61, 100
3, 54144, Note_on_c, 1, 70, 100
3, 54524, Note_off_c, 1, 61, 100
3, 54524, Note_off_c, 1, 70, 100
3, 54528, Note_on_c, 1, 62, 100
3, 54528, Note_on_c, 1, 71, 100
3, 54908, Note_off_c, 1, 62, 100
3, 54908, Note_off_c, 1, 71, 100
3, 54912, Note_on_c, 1, 64, 100
3, 54912, Note_on_c, 1, 73, 100
3, 55292, Note_off_c, 1, 64, 100
3, 55292, Note_off_c, 1, 73, 100
3, 55296, Note_on_c, 1, 74, 100
3, 55676, Note_off_c, 1, 74, 100
3, 57024, Note_on_c, 1, 83, 100
3, 57212, Note_off_c, 1, 83, 100
3, 57216, Note_on_c, 1, 81, 100
3, 57404, Note_off_c, 1, 81, 100
3, 57408, Note_on_c, 1, 83, 100
3, 57596, Note_off_c, 1, 83, 100
3, 57600, Note_on_c, 1, 79, 100
3, 57980, Note_off_c, 1, 79, 100
3, 57984, Note_on_c, 1, 78, 100
3, 58004, Note_off_c, 1, 78, 100
3, 58008, Note_on_c, 1, 76, 100
3, 58028, Note_off_c, 1, 76, 100
3, 58032, Note_on_c, 1, 78, 100
3, 58052, Note_off_c, 1, 78, 100
3, 58056, Note_on_c, 1, 76, 100
3, 58076, Note_off_c, 1, 76, 100
3, 58080, Note_on_c, 1, 78, 100
3, 58100, Note_off_c, 1, 78, 100
3, 58104, Note_on_c, 1, 76, 100
3, 58124, Note_off_c, 1, 76, 100
3, 58128, Note_on_c, 1, 78, 100
3, 58148, Note_off_c, 1, 78, 100
3, 58152, Note_on_c, 1, 76, 100
3, 58172, Note_off_c, 1, 76, 100
3, 58176, Note_on_c, 1, 78, 100
3, 58196, Note_off_c, 1, 78, 100
3, 58200, Note_on_c, 1, 76, 100
3, 58220, Note_off_c, 1, 76, 100
3, 58224, Note_on_c, 1, 78, 100
3, 58244, Note_off_c, 1, 78, 100
3, 58248, Note_on_c, 1, 76, 100
3, 58268, Note_off_c, 1, 76, 100
3, 58272, Note_on_c, 1, 78, 100
3, 58292, Note_off_c, 1, 78, 100
3, 58296, Note_on_c, 1, 76, 100
3, 58320, Note_off_c, 1, 76, 100
3, 58320, Note_on_c, 1, 78, 100
3, 58340, Note_off_c, 1, 78, 100
3, 58344, Note_on_c, 1, 76, 100
3, 58536, Note_off_c, 1, 76, 100
3, 58560, Note_on_c, 1, 74, 100
3, 58748, Note_off_c, 1, 74, 100
3, 58752, Note_on_c, 1, 73, 100
3, 58940, Note_off_c, 1, 73, 100
3, 58944, Note_on_c, 1, 71, 100
3, 59132, Note_off_c, 1, 71, 100
3, 59136, Note_on_c, 1, 70, 100
3, 59324, Note_off_c, 1, 70, 100
3, 59328, Note_on_c, 1, 71, 100
3, 59516, Note_off_c, 1, 71, 100
3, 59520, Note_on_c, 1, 73, 100
3, 59708, Note_off_c, 1, 73, 100
3, 59712, Note_on_c, 1, 74, 100
3, 59900, Note_off_c, 1, 74, 100
3, 59904, Note_on_c, 1, 76, 100
3, 60476, Note_off_c, 1, 76, 100
3, 60480, Note_on_c, 1, 74, 100
3, 60668, Note_off_c, 1, 74, 100
3, 60672, Note_on_c, 1, 76, 100
3, 60860, Note_off_c, 1, 76, 100
3, 60864, Note_on_c, 1, 73, 100
3, 61052, Note_off_c, 1, 73, 100
3, 61056, Note_on_c, 1, 78, 100
3, 61628, Note_off_c, 1, 78, 100
3, 61632, Note_on_c, 1, 78, 100
3, 61820, Note_off_c, 1, 78, 100
3, 61824, Note_on_c, 1, 76, 100
3, 62012, Note_off_c, 1, 76, 100
3, 62016, Note_on_c, 1, 78, 100
3, 62204, Note_off_c, 1, 78, 100
3, 62208, Note_on_c, 1, 74, 100
3, 62588, Note_off_c, 1, 74, 100
3, 63552, Note_on_c, 1, 71, 100
3, 63552, Note_on_c, 1, 62, 100
3, 63680, Note_off_c, 1, 71, 100
3, 63680, Note_off_c, 1, 62, 100
3, 63744, Note_on_c, 1, 71, 100
3, 63744, Note_on_c, 1, 62, 100
3, 63932, Note_off_c, 1, 71, 100
3, 63932, Note_off_c, 1, 62, 100
3, 63936, Note_on_c, 1, 66, 100
3, 63936, Note_on_c, 1, 69, 100
3, 64064, Note_off_c, 1, 66, 100
3, 64064, Note_off_c, 1, 69, 100
3, 64128, Note_on_c, 1, 69, 100
3, 64128, Note_on_c, 1, 66, 100
3, 64316, Note_off_c, 1, 69, 100
3, 64316, Note_off_c, 1, 66, 100
3, 64320, Note_on_c, 1, 59, 100
3, 64320, Note_on_c, 1, 67, 100
3, 64448, Note_off_c, 1, 59, 100
3, 64448, Note_off_c, 1, 67, 100
3, 64512, Note_on_c, 1, 67, 100
3, 64892, Note_off_c, 1, 67, 100
3, 64896, Note_on_c, 1, 71, 100
3, 65084, Note_off_c, 1, 71, 100
3, 65088, Note_on_c, 1, 70, 100
3, 65276, Note_off_c, 1, 70, 100
3, 65280, Note_on_c, 1, 71, 100
3, 65660, Note_off_c, 1, 71, 100
3, 65664, Note_on_c, 1, 71, 100
3, 66044, Note_off_c, 1, 71, 100
3, 66048, Note_on_c, 1, 67, 100
3, 66428, Note_off_c, 1, 67, 100
3, 66432, Note_on_c, 1, 64, 100
3, 66812, Note_off_c, 1, 64, 100
3, 66816, Note_on_c, 1, 61, 100
3, 67196, Note_off_c, 1, 61, 100
3, 67200, Note_on_c, 1, 64, 100
3, 68348, Note_off_c, 1, 64, 100
3, 68352, Note_on_c, 1, 62, 100
3, 68540, Note_off_c, 1, 62, 100
3, 68544, Note_on_c, 1, 61, 100
3, 68732, Note_off_c, 1, 61, 100
3, 68736, Note_on_c, 1, 66, 100
3, 69308, Note_off_c, 1, 66, 100
3, 69312, Note_on_c, 1, 71, 100
3, 69500, Note_off_c, 1, 71, 100
3, 69504, Note_on_c, 1, 70, 100
3, 69692, Note_off_c, 1, 70, 100
3, 69696, Note_on_c, 1, 73, 100
3, 69884, Note_off_c, 1, 73, 100
3, 69888, Note_on_c, 1, 71, 100
3, 70360, Note_off_c, 1, 71, 100
3, 70368, Note_on_c, 1, 70, 100
3, 70460, Note_off_c, 1, 70, 100
3, 70464, Note_on_c, 1, 71, 100
3, 70556, Note_off_c, 1, 71, 100
3, 70560, Note_on_c, 1, 73, 100
3, 70652, Note_off_c, 1, 73, 100
3, 70656, Note_on_c, 1, 71, 100
3, 70700, Note_off_c, 1, 71, 100
3, 70704, Note_on_c, 1, 70, 100
3, 70748, Note_off_c, 1, 70, 100
3, 70752, Note_on_c, 1, 71, 100
3, 70780, Note_off_c, 1, 71, 99
3, 70784, Note_on_c, 1, 70, 100
3, 70812, Note_off_c, 1, 70, 100
3, 70816, Note_on_c, 1, 71, 100
3, 70844, Note_off_c, 1, 71, 100
3, 70848, Note_on_c, 1, 70, 100
3, 70868, Note_off_c, 1, 70, 100
3, 70872, Note_on_c, 1, 71, 100
3, 70892, Note_off_c, 1, 71, 100
3, 70896, Note_on_c, 1, 70, 100
3, 70916, Note_off_c, 1, 70, 100
3, 70920, Note_on_c, 1, 71, 100
3, 70940, Note_off_c, 1, 71, 100
3, 70944, Note_on_c, 1, 70, 100
3, 70956, Note_off_c, 1, 70, 100
3, 70960, Note_on_c, 1, 71, 100
3, 70972, Note_off_c, 1, 71, 100
3, 70976, Note_on_c, 1, 70, 100
3, 70988, Note_off_c, 1, 70, 100
3, 70992, Note_on_c, 1, 71, 100
3, 71004, Note_off_c, 1, 71, 100
3, 71008, Note_on_c, 1, 70, 100
3, 71020, Note_off_c, 1, 70, 100
3, 71024, Note_on_c, 1, 71, 100
3, 71036, Note_off_c, 1, 71, 100
3, 71040, Note_on_c, 1, 70, 100
3, 71228, Note_off_c, 1, 70, 100
3, 71232, Note_on_c, 1, 71, 100
3, 71420, Note_off_c, 1, 71, 100
3, 71424, Note_on_c, 1, 71, 100
3, 71996, Note_off_c, 1, 71, 100
3, 72000, Note_on_c, 1, 74, 100
3, 72188, Note_off_c, 1, 74, 100
3, 72192, Note_on_c, 1, 73, 100
3, 72380, Note_off_c, 1, 73, 100
3, 72384, Note_on_c, 1, 76, 100
3, 72476, Note_off_c, 1, 76, 100
3, 72480, Note_on_c, 1, 75, 100
3, 72572, Note_off_c, 1, 75, 100
3, 72576, Note_on_c, 1, 66, 100
3, 72576, Note_on_c, 1, 75, 100
3, 72764, Note_off_c, 1, 66, 100
3, 72764, Note_off_c, 1, 75, 100
3, 72768, Note_on_c, 1, 67, 100
3, 72768, Note_on_c, 1, 76, 100
3, 72896, Note_off_c, 1, 67, 100
3, 72896, Note_off_c, 1, 76, 100
3, 72960, Note_on_c, 1, 67, 100
3, 72960, Note_on_c, 1, 76, 100
3, 73148, Note_off_c, 1, 67, 100
3, 73148, Note_off_c, 1, 76, 100
3, 73152, Note_on_c, 1, 78, 100
3, 73152, Note_on_c, 1, 69, 100
3, 73280, Note_off_c, 1, 78, 100
3, 73280, Note_off_c, 1, 69, 100
3, 73344, Note_on_c, 1, 69, 100
3, 73344, Note_on_c, 1, 78, 100
3, 73532, Note_off_c, 1, 69, 100
3, 73532, Note_off_c, 1, 78, 100
3, 73536, Note_on_c, 1, 71, 100
3, 73536, Note_on_c, 1, 79, 100
3, 73664, Note_off_c, 1, 71, 100
3, 73664, Note_off_c, 1, 79, 100
3, 73728, Note_on_c, 1, 79, 100
3, 74300, Note_off_c, 1, 79, 100
3, 74304, Note_on_c, 1, 76, 100
3, 74492, Note_off_c, 1, 76, 100
3, 74496, Note_on_c, 1, 75, 100
3, 74684, Note_off_c, 1, 75, 100
3, 74688, Note_on_c, 1, 76, 100
3, 74876, Note_off_c, 1, 76, 100
3, 74880, Note_on_c, 1, 72, 100
3, 74880, Note_on_c, 1, 81, 100
3, 75068, Note_off_c, 1, 72, 100
3, 75068, Note_off_c, 1, 81, 100
3, 75072, Note_on_c, 1, 71, 100
3, 75072, Note_on_c, 1, 79, 100
3, 75260, Note_off_c, 1, 71, 100
3, 75260, Note_off_c, 1, 79, 100
3, 75264, Note_on_c, 1, 69, 100
3, 75264, Note_on_c, 1, 78, 100
3, 75452, Note_off_c, 1, 78, 100
3, 75456, Note_on_c, 1, 76, 100
3, 75644, Note_off_c, 1, 76, 100
3, 75648, Note_on_c, 1, 78, 100
3, 75836, Note_off_c, 1, 78, 100
3, 75840, Note_on_c, 1, 75, 100
3, 76028, Note_off_c, 1, 69, 100
3, 76028, Note_off_c, 1, 75, 100
3, 76032, Note_on_c, 1, 67, 100
3, 76032, Note_on_c, 1, 76, 100
3, 78716, Note_off_c, 1, 67, 100
3, 78716, Note_off_c, 1, 76, 100
3, 80640, Note_on_c, 1, 71, 100
3, 81020, Note_off_c, 1, 71, 100
3, 81024, Note_on_c, 1, 70, 100
3, 81212, Note_off_c, 1, 70, 100
3, 81216, Note_on_c, 1, 71, 100
3, 81404, Note_off_c, 1, 71, 100
3, 81408, Note_on_c, 1, 73, 100
3, 81596, Note_off_c, 1, 73, 100
3, 81600, Note_on_c, 1, 74, 100
3, 81692, Note_off_c, 1, 74, 100
3, 81696, Note_on_c, 1, 76, 100
3, 81788, Note_off_c, 1, 76, 100
3, 81792, Note_on_c, 1, 74, 100
3, 82364, Note_off_c, 1, 74, 100
3, 82368, Note_on_c, 1, 76, 100
3, 82556, Note_off_c, 1, 76, 100
3, 82560, Note_on_c, 1, 73, 100
3, 82940, Note_off_c, 1, 73, 100
3, 82944, Note_on_c, 1, 62, 100
3, 82980, Note_on_c, 1, 66, 100
3, 83016, Note_on_c, 1, 71, 100
3, 84960, Note_off_c, 1, 71, 100
3, 85240, Note_off_c, 1, 66, 100
3, 85244, Note_off_c, 1, 62, 100
3, 85244, End_track
4, 0, Start_track
4, 0, Title_t, "BWV 1014 - 1. Adagio"
4, 0, Control_c, 1, 0, 0
4, 0, Program_c, 1, 6
4, 0, Control_c, 1, 7, 127
4, 0, Control_c, 1, 10, 93
4, 0, Control_c, 1, 91, 63
4, 0, Key_signature, 2, "minor"
4, 23040, Note_on_c, 1, 76, 100
4, 24188, Note_off_c, 1, 76, 100
4, 24192, Note_on_c, 1, 73, 100
4, 24956, Note_off_c, 1, 73, 100
4, 26496, Note_on_c, 1, 74, 100
4, 28796, Note_off_c, 1, 74, 100
4, 29952, Note_on_c, 1, 69, 100
4, 30332, Note_off_c, 1, 69, 100
4, 31680, Note_on_c, 1, 78, 100
4, 31868, Note_off_c, 1, 78, 100
4, 31872, Note_on_c, 1, 76, 100
4, 32060, Note_off_c, 1, 76, 100
4, 32064, Note_on_c, 1, 78, 100
4, 32252, Note_off_c, 1, 78, 100
4, 32256, Note_on_c, 1, 76, 100
4, 32348, Note_off_c, 1, 76, 100
4, 32352, Note_on_c, 1, 74, 100
4, 32824, Note_off_c, 1, 74, 100
4, 32832, Note_on_c, 1, 73, 100
4, 33020, Note_off_c, 1, 73, 100
4, 33024, Note_on_c, 1, 78, 100
4, 33596, Note_off_c, 1, 78, 100
4, 33600, Note_on_c, 1, 76, 100
4, 33788, Note_off_c, 1, 76, 100
4, 33792, Note_on_c, 1, 74, 100
4, 33980, Note_off_c, 1, 74, 100
4, 33984, Note_on_c, 1, 73, 100
4, 34172, Note_off_c, 1, 73, 100
4, 34176, Note_on_c, 1, 71, 100
4, 34364, Note_off_c, 1, 71, 100
4, 34368, Note_on_c, 1, 69, 100
4, 34556, Note_off_c, 1, 69, 100
4, 34560, Note_on_c, 1, 68, 100
4, 35708, Note_off_c, 1, 68, 100
4, 35712, Note_on_c, 1, 69, 100
4, 36284, Note_off_c, 1, 69, 100
4, 36288, Note_on_c, 1, 73, 100
4, 36476, Note_off_c, 1, 73, 100
4, 36480, Note_on_c, 1, 78, 100
4, 36668, Note_off_c, 1, 78, 100
4, 36672, Note_on_c, 1, 77, 100
4, 36860, Note_off_c, 1, 77, 100
4, 39168, Note_on_c, 1, 66, 100
4, 39932, Note_off_c, 1, 66, 100
4, 39936, Note_on_c, 1, 69, 100
4, 40316, Note_off_c, 1, 69, 100
4, 40320, Note_on_c, 1, 71, 100
4, 40700, Note_off_c, 1, 71, 100
4, 40704, Note_on_c, 1, 65, 100
4, 41084, Note_off_c, 1, 65, 100
4, 41088, Note_on_c, 1, 68, 100
4, 41468, Note_off_c, 1, 68, 100
4, 41472, Note_on_c, 1, 61, 100
4, 42044, Note_off_c, 1, 61, 100
4, 42048, Note_on_c, 1, 68, 100
4, 42236, Note_off_c, 1, 68, 100
4, 42240, Note_on_c, 1, 66, 100
4, 42428, Note_off_c, 1, 66, 100
4, 42432, Note_on_c, 1, 68, 100
4, 42620, Note_off_c, 1, 68, 100
4, 42624, Note_on_c, 1, 65, 100
4, 43388, Note_off_c, 1, 65, 100
4, 43584, Note_on_c, 1, 71, 100
4, 43772, Note_off_c, 1, 71, 100
4, 43776, Note_on_c, 1, 69, 100
4, 44156, Note_off_c, 1, 69, 100
4, 44160, Note_on_c, 1, 71, 100
4, 44540, Note_off_c, 1, 71, 100
4, 44736, Note_on_c, 1, 74, 100
4, 44924, Note_off_c, 1, 74, 100
4, 44928, Note_on_c, 1, 73, 100
4, 45692, Note_off_c, 1, 73, 100
4, 45696, Note_on_c, 1, 71, 100
4, 46076, Note_off_c, 1, 71, 100
4, 48384, Note_on_c, 1, 69, 100
4, 48764, Note_off_c, 1, 69, 100
4, 48768, Note_on_c, 1, 66, 100
4, 49532, Note_off_c, 1, 66, 100
4, 49536, Note_on_c, 1, 66, 100
4, 49916, Note_off_c, 1, 66, 100
4, 49920, Note_on_c, 1, 67, 100
4, 50300, Note_off_c, 1, 67, 100
4, 50304, Note_on_c, 1, 69, 100
4, 50684, Note_off_c, 1, 69, 100
4, 50688, Note_on_c, 1, 67, 100
4, 52408, Note_off_c, 1, 67, 100
4, 52416, Note_on_c, 1, 64, 100
4, 52604, Note_off_c, 1, 64, 100
4, 52608, Note_on_c, 1, 62, 100
4, 52796, Note_off_c, 1, 62, 100
4, 52800, Note_on_c, 1, 64, 100
4, 52988, Note_off_c, 1, 64, 100
4, 52992, Note_on_c, 1, 61, 100
4, 53372, Note_off_c, 1, 61, 100
4, 55296, Note_on_c, 1, 66, 100
4, 55868, Note_off_c, 1, 66, 100
4, 55872, Note_on_c, 1, 74, 100
4, 56060, Note_off_c, 1, 74, 100
4, 56064, Note_on_c, 1, 73, 100
4, 56252, Note_off_c, 1, 73, 100
4, 56256, Note_on_c, 1, 74, 100
4, 56444, Note_off_c, 1, 74, 100
4, 56448, Note_on_c, 1, 71, 100
4, 57980, Note_off_c, 1, 71, 100
4, 58752, Note_on_c, 1, 61, 100
4, 58940, Note_off_c, 1, 61, 100
4, 58944, Note_on_c, 1, 62, 100
4, 59132, Note_off_c, 1, 62, 100
4, 59136, Note_on_c, 1, 64, 100
4, 59516, Note_off_c, 1, 64, 100
4, 59520, Note_on_c, 1, 73, 100
4, 60092, Note_off_c, 1, 73, 100
4, 60096, Note_on_c, 1, 71, 100
4, 60284, Note_off_c, 1, 71, 100
4, 60288, Note_on_c, 1, 70, 100
4, 61052, Note_off_c, 1, 70, 100
4, 61056, Note_on_c, 1, 71, 100
4, 61244, Note_off_c, 1, 71, 100
4, 61248, Note_on_c, 1, 73, 100
4, 61436, Note_off_c, 1, 73, 100
4, 61440, Note_on_c, 1, 74, 100
4, 61820, Note_off_c, 1, 74, 100
4, 61824, Note_on_c, 1, 70, 100
4, 62204, Note_off_c, 1, 70, 100
4, 62208, Note_on_c, 1, 71, 100
4, 62588, Note_off_c, 1, 71, 100
4, 64512, Note_on_c, 1, 59, 100
4, 65276, Note_off_c, 1, 59, 100
4, 65280, Note_on_c, 1, 62, 100
4, 65660, Note_off_c, 1, 62, 100
4, 65664, Note_on_c, 1, 64, 100
4, 66044, Note_off_c, 1, 64, 100
4, 66816, Note_on_c, 1, 54, 100
4, 67388, Note_off_c, 1, 54, 100
4, 67392, Note_on_c, 1, 61, 100
4, 67580, Note_off_c, 1, 61, 100
4, 67584, Note_on_c, 1, 59, 100
4, 67772, Note_off_c, 1, 59, 100
4, 67776, Note_on_c, 1, 61, 100
4, 67964, Note_off_c, 1, 61, 100
4, 67968, Note_on_c, 1, 58, 100
4, 68732, Note_off_c, 1, 58, 100
4, 68928, Note_on_c, 1, 64, 100
4, 69116, Note_off_c, 1, 64, 100
4, 69120, Note_on_c, 1, 62, 100
4, 69500, Note_off_c, 1, 62, 100
4, 69504, Note_on_c, 1, 64, 100
4, 69884, Note_off_c, 1, 64, 100
4, 70080, Note_on_c, 1, 67, 100
4, 70268, Note_off_c, 1, 67, 100
4, 70272, Note_on_c, 1, 66, 100
4, 71036, Note_off_c, 1, 66, 100
4, 71040, Note_on_c, 1, 64, 100
4, 71420, Note_off_c, 1, 64, 100
4, 71424, Note_on_c, 1, 62, 100
4, 72188, Note_off_c, 1, 62, 100
4, 72192, Note_on_c, 1, 64, 100
4, 72572, Note_off_c, 1, 64, 100
4, 80640, Note_on_c, 1, 66, 100
4, 81020, Note_off_c, 1, 66, 100
4, 81024, Note_on_c, 1, 64, 100
4, 81404, Note_off_c, 1, 64, 100
4, 81408, Note_on_c, 1, 67, 100
4, 81788, Note_off_c, 1, 67, 100
4, 81792, Note_on_c, 1, 66, 100
4, 81980, Note_off_c, 1, 66, 100
4, 81984, Note_on_c, 1, 70, 100
4, 82172, Note_off_c, 1, 70, 100
4, 82176, Note_on_c, 1, 71, 100
4, 82556, Note_off_c, 1, 71, 100
4, 82560, Note_on_c, 1, 64, 100
4, 82940, Note_off_c, 1, 64, 100
4, 82940, End_track
5, 0, Start_track
5, 0, Title_t, "Bruno de Giusti"
5, 0, Control_c, 1, 0, 0
5, 0, Program_c, 1, 6
5, 0, Control_c, 1, 7, 127
5, 0, Control_c, 1, 10, 93
5, 0, Control_c, 1, 91, 63
5, 0, Key_signature, 2, "minor"
5, 2304, Note_on_c, 1, 47, 100
5, 2492, Note_off_c, 1, 47, 100
5, 2496, Note_on_c, 1, 50, 100
5, 2684, Note_off_c, 1, 50, 100
5, 2688, Note_on_c, 1, 54, 100
5, 2876, Note_off_c, 1, 54, 100
5, 2880, Note_on_c, 1, 59, 100
5, 3068, Note_off_c, 1, 59, 100
5, 3072, Note_on_c, 1, 58, 100
5, 3260, Note_off_c, 1, 58, 100
5, 3264, Note_on_c, 1, 59, 100
5, 3452, Note_off_c, 1, 59, 100
5, 3456, Note_on_c, 1, 47, 100
5, 3836, Note_off_c, 1, 47, 100
5, 4608, Note_on_c, 1, 49, 100
5, 4796, Note_off_c, 1, 49, 100
5, 4800, Note_on_c, 1, 52, 100
5, 4988, Note_off_c, 1, 52, 100
5, 4992, Note_on_c, 1, 55, 100
5, 5180, Note_off_c, 1, 55, 100
5, 5184, Note_on_c, 1, 59, 100
5, 5372, Note_off_c, 1, 59, 100
5, 5376, Note_on_c, 1, 58, 100
5, 5564, Note_off_c, 1, 58, 100
5, 5568, Note_on_c, 1, 59, 100
5, 5756, Note_off_c, 1, 59, 100
5, 5760, Note_on_c, 1, 42, 100
5, 6140, Note_off_c, 1, 42, 100
5, 6912, Note_on_c, 1, 47, 100
5, 7100, Note_off_c, 1, 47, 100
5, 7104, Note_on_c, 1, 59, 100
5, 7232, Note_off_c, 1, 59, 100
5, 7296, Note_on_c, 1, 59, 100
5, 7484, Note_off_c, 1, 59, 100
5, 7488, Note_on_c, 1, 57, 100
5, 7616, Note_off_c, 1, 57, 100
5, 7680, Note_on_c, 1, 57, 100
5, 7868, Note_off_c, 1, 57, 100
5, 7872, Note_on_c, 1, 55, 100
5, 8000, Note_off_c, 1, 55, 100
5, 8064, Note_on_c, 1, 55, 100
5, 8444, Note_off_c, 1, 55, 100
5, 8448, Note_on_c, 1, 43, 100
5, 8828, Note_off_c, 1, 43, 100
5, 8832, Note_on_c, 1, 42, 100
5, 9212, Note_off_c, 1, 42, 100
5, 9216, Note_on_c, 1, 40, 100
5, 9596, Note_off_c, 1, 40, 100
5, 9600, Note_on_c, 1, 52, 100
5, 9980, Note_off_c, 1, 52, 100
5, 9984, Note_on_c, 1, 54, 100
5, 10364, Note_off_c, 1, 54, 100
5, 10368, Note_on_c, 1, 56, 100
5, 10748, Note_off_c, 1, 56, 100
5, 10752, Note_on_c, 1, 58, 100
5, 11132, Note_off_c, 1, 58, 100
5, 11136, Note_on_c, 1, 59, 100
5, 11516, Note_off_c, 1, 59, 100
5, 11520, Note_on_c, 1, 52, 100
5, 11900, Note_off_c, 1, 52, 100
5, 12672, Note_on_c, 1, 50, 100
5, 13052, Note_off_c, 1, 50, 100
5, 13824, Note_on_c, 1, 46, 100
5, 14012, Note_off_c, 1, 46, 100
5, 14016, Note_on_c, 1, 49, 100
5, 14204, Note_off_c, 1, 49, 100
5, 14208, Note_on_c, 1, 54, 100
5, 14396, Note_off_c, 1, 54, 100
5, 14400, Note_on_c, 1, 58, 100
5, 14588, Note_off_c, 1, 58, 100
5, 14592, Note_on_c, 1, 56, 100
5, 14780, Note_off_c, 1, 56, 100
5, 14784, Note_on_c, 1, 58, 100
5, 14972, Note_off_c, 1, 58, 100
5, 14976, Note_on_c, 1, 45, 100
5, 15356, Note_off_c, 1, 45, 100
5, 16128, Note_on_c, 1, 43, 100
5, 16316, Note_off_c, 1, 43, 100
5, 16320, Note_on_c, 1, 47, 100
5, 16508, Note_off_c, 1, 47, 100
5, 16512, Note_on_c, 1, 52, 100
5, 16700, Note_off_c, 1, 52, 100
5, 16704, Note_on_c, 1, 55, 100
5, 16892, Note_off_c, 1, 55, 100
5, 16896, Note_on_c, 1, 54, 100
5, 17084, Note_off_c, 1, 54, 100
5, 17088, Note_on_c, 1, 55, 100
5, 17276, Note_off_c, 1, 55, 100
5, 17280, Note_on_c, 1, 42, 100
5, 17660, Note_off_c, 1, 42, 100
5, 18432, Note_on_c, 1, 40, 100
5, 18620, Note_off_c, 1, 40, 100
5, 18624, Note_on_c, 1, 43, 100
5, 18812, Note_off_c, 1, 43, 100
5, 18816, Note_on_c, 1, 47, 100
5, 19004, Note_off_c, 1, 47, 100
5, 19008, Note_on_c, 1, 52, 100
5, 19196, Note_off_c, 1, 52, 100
5, 19200, Note_on_c, 1, 50, 100
5, 19388, Note_off_c, 1, 50, 100
5, 19392, Note_on_c, 1, 52, 100
5, 19580, Note_off_c, 1, 52, 100
5, 19584, Note_on_c, 1, 38, 100
5, 19964, Note_off_c, 1, 38, 100
5, 20736, Note_on_c, 1, 49, 100
5, 20924, Note_off_c, 1, 49, 100
5, 20928, Note_on_c, 1, 52, 100
5, 21116, Note_off_c, 1, 52, 100
5, 21120, Note_on_c, 1, 55, 100
5, 21308, Note_off_c, 1, 55, 100
5, 21312, Note_on_c, 1, 59, 100
5, 21500, Note_off_c, 1, 59, 100
5, 21504, Note_on_c, 1, 58, 100
5, 21692, Note_off_c, 1, 58, 100
5, 21696, Note_on_c, 1, 59, 100
5, 21884, Note_off_c, 1, 59, 100
5, 21888, Note_on_c, 1, 47, 100
5, 22268, Note_off_c, 1, 47, 100
5, 23040, Note_on_c, 1, 46, 100
5, 23228, Note_off_c, 1, 46, 100
5, 23232, Note_on_c, 1, 49, 100
5, 23420, Note_off_c, 1, 49, 100
5, 23424, Note_on_c, 1, 52, 100
5, 23612, Note_off_c, 1, 52, 100
5, 23616, Note_on_c, 1, 55, 100
5, 23804, Note_off_c, 1, 55, 100
5, 23808, Note_on_c, 1, 54, 100
5, 23996, Note_off_c, 1, 54, 100
5, 24000, Note_on_c, 1, 55, 100
5, 24188, Note_off_c, 1, 55, 100
5, 24192, Note_on_c, 1, 42, 100
5, 24956, Note_off_c, 1, 42, 100
5, 25344, Note_on_c, 1, 35, 100
5, 25344, Note_on_c, 1, 47, 100
5, 26108, Note_off_c, 1, 35, 100
5, 26108, Note_off_c, 1, 47, 100
5, 26496, Note_on_c, 1, 47, 100
5, 26684, Note_off_c, 1, 47, 100
5, 26688, Note_on_c, 1, 50, 100
5, 26876, Note_off_c, 1, 50, 100
5, 26880, Note_on_c, 1, 54, 100
5, 27068, Note_off_c, 1, 54, 100
5, 27072, Note_on_c, 1, 59, 100
5, 27260, Note_off_c, 1, 59, 100
5, 27264, Note_on_c, 1, 57, 100
5, 27452, Note_off_c, 1, 57, 100
5, 27456, Note_on_c, 1, 59, 100
5, 27644, Note_off_c, 1, 59, 100
5, 27648, Note_on_c, 1, 44, 100
5, 27836, Note_off_c, 1, 44, 100
5, 27840, Note_on_c, 1, 47, 100
5, 28028, Note_off_c, 1, 47, 100
5, 28032, Note_on_c, 1, 50, 100
5, 28220, Note_off_c, 1, 50, 100
5, 28224, Note_on_c, 1, 56, 100
5, 28412, Note_off_c, 1, 56, 100
5, 28416, Note_on_c, 1, 54, 100
5, 28604, Note_off_c, 1, 54, 100
5, 28608, Note_on_c, 1, 56, 100
5, 28796, Note_off_c, 1, 56, 100
5, 28800, Note_on_c, 1, 41, 100
5, 29180, Note_off_c, 1, 41, 100
5, 29952, Note_on_c, 1, 54, 100
5, 30140, Note_off_c, 1, 54, 100
5, 30144, Note_on_c, 1, 57, 100
5, 30332, Note_off_c, 1, 57, 100
5, 30336, Note_on_c, 1, 61, 100
5, 30524, Note_off_c, 1, 61, 100
5, 30528, Note_on_c, 1, 66, 100
5, 30716, Note_off_c, 1, 66, 100
5, 30720, Note_on_c, 1, 65, 100
5, 30908, Note_off_c, 1, 65, 100
5, 30912, Note_on_c, 1, 66, 100
5, 31100, Note_off_c, 1, 66, 100
5, 31104, Note_on_c, 1, 50, 100
5, 31292, Note_off_c, 1, 50, 100
5, 31296, Note_on_c, 1, 54, 100
5, 31484, Note_off_c, 1, 54, 100
5, 31488, Note_on_c, 1, 57, 100
5, 31676, Note_off_c, 1, 57, 100
5, 31680, Note_on_c, 1, 62, 100
5, 31868, Note_off_c, 1, 62, 100
5, 31872, Note_on_c, 1, 61, 100
5, 32060, Note_off_c, 1, 61, 100
5, 32064, Note_on_c, 1, 62, 100
5, 32252, Note_off_c, 1, 62, 100
5, 32256, Note_on_c, 1, 47, 100
5, 32636, Note_off_c, 1, 47, 100
5, 33408, Note_on_c, 1, 44, 100
5, 33788, Note_off_c, 1, 44, 100
5, 33792, Note_on_c, 1, 45, 100
5, 34172, Note_off_c, 1, 45, 100
5, 34176, Note_on_c, 1, 47, 100
5, 34556, Note_off_c, 1, 47, 100
5, 34560, Note_on_c, 1, 49, 100
5, 34748, Note_off_c, 1, 49, 100
5, 34752, Note_on_c, 1, 53, 100
5, 34940, Note_off_c, 1, 53, 100
5, 34944, Note_on_c, 1, 56, 100
5, 35132, Note_off_c, 1, 56, 100
5, 35136, Note_on_c, 1, 61, 100
5, 35324, Note_off_c, 1, 61, 100
5, 35328, Note_on_c, 1, 59, 100
5, 35516, Note_off_c, 1, 59, 100
5, 35520, Note_on_c, 1, 61, 100
5, 35708, Note_off_c, 1, 61, 100
5, 35712, Note_on_c, 1, 45, 100
5, 35900, Note_off_c, 1, 45, 100
5, 35904, Note_on_c, 1, 49, 100
5, 36092, Note_off_c, 1, 49, 100
5, 36096, Note_on_c, 1, 54, 100
5, 36284, Note_off_c, 1, 54, 100
5, 36288, Note_on_c, 1, 57, 100
5, 36476, Note_off_c, 1, 57, 100
5, 36480, Note_on_c, 1, 56, 100
5, 36668, Note_off_c, 1, 56, 100
5, 36672, Note_on_c, 1, 57, 100
5, 36860, Note_off_c, 1, 57, 100
5, 36864, Note_on_c, 1, 42, 100
5, 37244, Note_off_c, 1, 42, 100
5, 38208, Note_on_c, 1, 62, 100
5, 38336, Note_off_c, 1, 62, 100
5, 38400, Note_on_c, 1, 62, 100
5, 38588, Note_off_c, 1, 62, 100
5, 38592, Note_on_c, 1, 61, 100
5, 38720, Note_off_c, 1, 61, 100
5, 38784, Note_on_c, 1, 61, 100
5, 38972, Note_off_c, 1, 61, 100
5, 38976, Note_on_c, 1, 59, 100
5, 39104, Note_off_c, 1, 59, 100
5, 39168, Note_on_c, 1, 59, 100
5, 39932, Note_off_c, 1, 59, 100
5, 39936, Note_on_c, 1, 61, 100
5, 40316, Note_off_c, 1, 61, 100
5, 40320, Note_on_c, 1, 62, 100
5, 40700, Note_off_c, 1, 62, 100
5, 40704, Note_on_c, 1, 56, 100
5, 41084, Note_off_c, 1, 56, 100
5, 41088, Note_on_c, 1, 59, 100
5, 41468, Note_off_c, 1, 59, 100
5, 41472, Note_on_c, 1, 53, 100
5, 41660, Note_off_c, 1, 53, 100
5, 41664, Note_on_c, 1, 54, 100
5, 41852, Note_off_c, 1, 54, 100
5, 41856, Note_on_c, 1, 56, 100
5, 42044, Note_off_c, 1, 56, 100
5, 42048, Note_on_c, 1, 59, 100
5, 42236, Note_off_c, 1, 59, 100
5, 42240, Note_on_c, 1, 57, 100
5, 42428, Note_off_c, 1, 57, 100
5, 42432, Note_on_c, 1, 59, 100
5, 42620, Note_off_c, 1, 59, 100
5, 42624, Note_on_c, 1, 49, 100
5, 43004, Note_off_c, 1, 49, 100
5, 43392, Note_on_c, 1, 53, 100
5, 43772, Note_off_c, 1, 53, 100
5, 43776, Note_on_c, 1, 54, 100
5, 44156, Note_off_c, 1, 54, 100
5, 44160, Note_on_c, 1, 50, 100
5, 44540, Note_off_c, 1, 50, 100
5, 44544, Note_on_c, 1, 47, 100
5, 44924, Note_off_c, 1, 47, 100
5, 44928, Note_on_c, 1, 49, 100
5, 45692, Note_off_c, 1, 49, 100
5, 45696, Note_on_c, 1, 37, 100
5, 46076, Note_off_c, 1, 37, 100
5, 46080, Note_on_c, 1, 42, 100
5, 46268, Note_off_c, 1, 42, 100
5, 46272, Note_on_c, 1, 45, 100
5, 46460, Note_off_c, 1, 45, 100
5, 46464, Note_on_c, 1, 49, 100
5, 46652, Note_off_c, 1, 49, 100
5, 46656, Note_on_c, 1, 54, 100
5, 46844, Note_off_c, 1, 54, 100
5, 46848, Note_on_c, 1, 52, 100
5, 47036, Note_off_c, 1, 52, 100
5, 47040, Note_on_c, 1, 54, 100
5, 47228, Note_off_c, 1, 54, 100
5, 47232, Note_on_c, 1, 40, 100
5, 47612, Note_off_c, 1, 40, 100
5, 48384, Note_on_c, 1, 39, 100
5, 48572, Note_off_c, 1, 39, 100
5, 48576, Note_on_c, 1, 42, 100
5, 48764, Note_off_c, 1, 42, 100
5, 48768, Note_on_c, 1, 47, 100
5, 48956, Note_off_c, 1, 47, 100
5, 48960, Note_on_c, 1, 51, 100
5, 49148, Note_off_c, 1, 51, 100
5, 49152, Note_on_c, 1, 49, 100
5, 49340, Note_off_c, 1, 49, 100
5, 49344, Note_on_c, 1, 51, 100
5, 49532, Note_off_c, 1, 51, 100
5, 49536, Note_on_c, 1, 35, 100
5, 49916, Note_off_c, 1, 35, 100
5, 50688, Note_on_c, 1, 52, 100
5, 50876, Note_off_c, 1, 52, 100
5, 50880, Note_on_c, 1, 55, 100
5, 51068, Note_off_c, 1, 55, 100
5, 51072, Note_on_c, 1, 59, 100
5, 51260, Note_off_c, 1, 59, 100
5, 51264, Note_on_c, 1, 64, 100
5, 51452, Note_off_c, 1, 64, 100
5, 51456, Note_on_c, 1, 62, 100
5, 51644, Note_off_c, 1, 62, 100
5, 51648, Note_on_c, 1, 64, 100
5, 51836, Note_off_c, 1, 64, 100
5, 51840, Note_on_c, 1, 49, 100
5, 52028, Note_off_c, 1, 49, 100
5, 52032, Note_on_c, 1, 52, 100
5, 52220, Note_off_c, 1, 52, 100
5, 52224, Note_on_c, 1, 58, 100
5, 52412, Note_off_c, 1, 58, 100
5, 52416, Note_on_c, 1, 61, 100
5, 52604, Note_off_c, 1, 61, 100
5, 52608, Note_on_c, 1, 59, 100
5, 52796, Note_off_c, 1, 59, 100
5, 52800, Note_on_c, 1, 61, 100
5, 52988, Note_off_c, 1, 61, 100
5, 52992, Note_on_c, 1, 46, 100
5, 53372, Note_off_c, 1, 46, 100
5, 54144, Note_on_c, 1, 42, 100
5, 54524, Note_off_c, 1, 42, 100
5, 55296, Note_on_c, 1, 47, 100
5, 55484, Note_off_c, 1, 47, 100
5, 55488, Note_on_c, 1, 50, 100
5, 55676, Note_off_c, 1, 50, 100
5, 55680, Note_on_c, 1, 54, 100
5, 55868, Note_off_c, 1, 54, 100
5, 55872, Note_on_c, 1, 59, 100
5, 56060, Note_off_c, 1, 59, 100
5, 56064, Note_on_c, 1, 57, 100
5, 56252, Note_off_c, 1, 57, 100
5, 56256, Note_on_c, 1, 59, 100
5, 56444, Note_off_c, 1, 59, 100
5, 56448, Note_on_c, 1, 43, 100
5, 56636, Note_off_c, 1, 43, 100
5, 56640, Note_on_c, 1, 47, 100
5, 56828, Note_off_c, 1, 47, 100
5, 56832, Note_on_c, 1, 50, 100
5, 57020, Note_off_c, 1, 50, 100
5, 57024, Note_on_c, 1, 55, 100
5, 57212, Note_off_c, 1, 55, 100
5, 57216, Note_on_c, 1, 54, 100
5, 57404, Note_off_c, 1, 54, 100
5, 57408, Note_on_c, 1, 55, 100
5, 57596, Note_off_c, 1, 55, 100
5, 57600, Note_on_c, 1, 40, 100
5, 57980, Note_off_c, 1, 40, 100
5, 58752, Note_on_c, 1, 52, 100
5, 58940, Note_off_c, 1, 52, 100
5, 58944, Note_on_c, 1, 54, 100
5, 59072, Note_off_c, 1, 54, 100
5, 59136, Note_on_c, 1, 54, 100
5, 59324, Note_off_c, 1, 54, 100
5, 59328, Note_on_c, 1, 55, 100
5, 59456, Note_off_c, 1, 55, 100
5, 59520, Note_on_c, 1, 55, 100
5, 59708, Note_off_c, 1, 55, 100
5, 59712, Note_on_c, 1, 54, 100
5, 59840, Note_off_c, 1, 54, 100
5, 59904, Note_on_c, 1, 54, 100
5, 60092, Note_off_c, 1, 54, 100
5, 60096, Note_on_c, 1, 58, 100
5, 60284, Note_off_c, 1, 58, 100
5, 60288, Note_on_c, 1, 61, 100
5, 60476, Note_off_c, 1, 61, 100
5, 60480, Note_on_c, 1, 66, 100
5, 60668, Note_off_c, 1, 66, 100
5, 60672, Note_on_c, 1, 64, 100
5, 60860, Note_off_c, 1, 64, 100
5, 60864, Note_on_c, 1, 66, 100
5, 61052, Note_off_c, 1, 66, 100
5, 61056, Note_on_c, 1, 50, 100
5, 61244, Note_off_c, 1, 50, 100
5, 61248, Note_on_c, 1, 54, 100
5, 61436, Note_off_c, 1, 54, 100
5, 61440, Note_on_c, 1, 59, 100
5, 61628, Note_off_c, 1, 59, 100
5, 61632, Note_on_c, 1, 62, 100
5, 61820, Note_off_c, 1, 62, 100
5, 61824, Note_on_c, 1, 61, 100
5, 62012, Note_off_c, 1, 61, 100
5, 62016, Note_on_c, 1, 62, 100
5, 62204, Note_off_c, 1, 62, 100
5, 62208, Note_on_c, 1, 47, 100
5, 62588, Note_off_c, 1, 47, 100
5, 63552, Note_on_c, 1, 55, 100
5, 63680, Note_off_c, 1, 55, 100
5, 63744, Note_on_c, 1, 55, 100
5, 63932, Note_off_c, 1, 55, 100
5, 63936, Note_on_c, 1, 54, 100
5, 64064, Note_off_c, 1, 54, 100
5, 64128, Note_on_c, 1, 54, 100
5, 64316, Note_off_c, 1, 54, 100
5, 64320, Note_on_c, 1, 52, 100
5, 64448, Note_off_c, 1, 52, 100
5, 64512, Note_on_c, 1, 52, 100
5, 65276, Note_off_c, 1, 52, 100
5, 65280, Note_on_c, 1, 54, 100
5, 65660, Note_off_c, 1, 54, 100
5, 65664, Note_on_c, 1, 55, 100
5, 66044, Note_off_c, 1, 55, 100
5, 66048, Note_on_c, 1, 58, 100
5, 66048, Note_on_c, 1, 49, 100
5, 66428, Note_off_c, 1, 58, 100
5, 66428, Note_off_c, 1, 49, 100
5, 66432, Note_on_c, 1, 61, 100
5, 66432, Note_on_c, 1, 52, 100
5, 66812, Note_off_c, 1, 61, 100
5, 66812, Note_off_c, 1, 52, 100
5, 66816, Note_on_c, 1, 46, 100
5, 67004, Note_off_c, 1, 46, 100
5, 67008, Note_on_c, 1, 47, 100
5, 67196, Note_off_c, 1, 47, 100
5, 67200, Note_on_c, 1, 49, 100
5, 67388, Note_off_c, 1, 49, 100
5, 67392, Note_on_c, 1, 52, 100
5, 67580, Note_off_c, 1, 52, 100
5, 67584, Note_on_c, 1, 50, 100
5, 67772, Note_off_c, 1, 50, 100
5, 67776, Note_on_c, 1, 52, 100
5, 67964, Note_off_c, 1, 52, 100
5, 67968, Note_on_c, 1, 42, 100
5, 68348, Note_off_c, 1, 42, 100
5, 68736, Note_on_c, 1, 46, 100
5, 69116, Note_off_c, 1, 46, 100
5, 69120, Note_on_c, 1, 47, 100
5, 69500, Note_off_c, 1, 47, 100
5, 69504, Note_on_c, 1, 43, 100
5, 69884, Note_off_c, 1, 43, 100
5, 69888, Note_on_c, 1, 40, 100
5, 70268, Note_off_c, 1, 40, 100
5, 70272, Note_on_c, 1, 42, 100
5, 71036, Note_off_c, 1, 42, 100
5, 71040, Note_on_c, 1, 54, 100
5, 71420, Note_off_c, 1, 54, 100
5, 71424, Note_on_c, 1, 47, 100
5, 71612, Note_off_c, 1, 47, 100
5, 71616, Note_on_c, 1, 50, 100
5, 71804, Note_off_c, 1, 50, 100
5, 71808, Note_on_c, 1, 54, 100
5, 71996, Note_off_c, 1, 54, 100
5, 72000, Note_on_c, 1, 59, 100
5, 72188, Note_off_c, 1, 59, 100
5, 72192, Note_on_c, 1, 58, 100
5, 72380, Note_off_c, 1, 58, 100
5, 72384, Note_on_c, 1, 59, 100
5, 72572, Note_off_c, 1, 59, 100
5, 72576, Note_on_c, 1, 45, 100
5, 72956, Note_off_c, 1, 45, 100
5, 73728, Note_on_c, 1, 43, 100
5, 73916, Note_off_c, 1, 43, 100
5, 73920, Note_on_c, 1, 47, 100
5, 74108, Note_off_c, 1, 47, 100
5, 74112, Note_on_c, 1, 52, 100
5, 74300, Note_off_c, 1, 52, 100
5, 74304, Note_on_c, 1, 55, 100
5, 74492, Note_off_c, 1, 55, 100
5, 74496, Note_on_c, 1, 54, 100
5, 74684, Note_off_c, 1, 54, 100
5, 74688, Note_on_c, 1, 55, 100
5, 74876, Note_off_c, 1, 55, 100
5, 74880, Note_on_c, 1, 42, 100
5, 75260, Note_off_c, 1, 42, 100
5, 76032, Note_on_c, 1, 40, 100
5, 78716, Note_off_c, 1, 40, 100
5, 80640, Note_on_c, 1, 38, 100
5, 81020, Note_off_c, 1, 38, 100
5, 81024, Note_on_c, 1, 43, 100
5, 81404, Note_off_c, 1, 43, 100
5, 81408, Note_on_c, 1, 40, 100
5, 81788, Note_off_c, 1, 40, 100
5, 81792, Note_on_c, 1, 42, 100
5, 82556, Note_off_c, 1, 42, 100
5, 82560, Note_on_c, 1, 42, 100
5, 82940, Note_off_c, 1, 42, 100
5, 82944, Note_on_c, 1, 47, 100
5, 83132, Note_off_c, 1, 47, 100
5, 83136, Note_on_c, 1, 50, 100
5, 83324, Note_off_c, 1, 50, 100
5, 83328, Note_on_c, 1, 54, 100
5, 83516, Note_off_c, 1, 54, 100
5, 83520, Note_on_c, 1, 59, 100
5, 83708, Note_off_c, 1, 59, 100
5, 83712, Note_on_c, 1, 58, 100
5, 83900, Note_off_c, 1, 58, 100
5, 83904, Note_on_c, 1, 59, 100
5, 84092, Note_off_c, 1, 59, 100
5, 84096, Note_on_c, 1, 35, 100
5, 85244, Note_off_c, 1, 35, 100
5, 85244, End_track
6, 0, Start_track
6, 0, Title_t, "bdg@bruno-de-giusti.net"
6, 0, Control_c, 2, 0, 0
6, 0, Program_c, 2, 6
6, 0, Control_c, 2, 7, 0
6, 0, Control_c, 2, 10, 93
6, 0, Control_c, 2, 91, 63
6, 0, Key_signature, 2, "minor"
6, 84096, Note_on_c, 2, 35, 1
6, 86096, Note_off_c, 2, 35, 100
6, 86096, End_track
7, 0, Start_track
7, 0, Title_t, "www.bruno-de-giusti.net"
7, 0, Key_signature, 2, "minor"
7, 0, Control_c, 2, 7, 100
7, 0, End_track
8, 0, Start_track
8, 0, Title_t, "All rights reserved"
8, 0, Key_signature, 2, "minor"
8, 0, Control_c, 2, 7, 100
8, 0, End_track
0, 0, End_of_file
