0, 0, Header, 1, 20, 480
1, 0, Start_track
1, 0, Text_t, "By J. S. Bach  arr. Pollen\015\012"
1, 0, Title_t, "PREALUDIUM"
1, 0, Copyright_t, "All Rights Reserved "
1, 0, Tempo, 461538
1, 0, Time_signature, 3, 2, 24, 8
1, 0, Key_signature, 4, "major"
1, 38880, Tempo, 487804
1, 40320, Tempo, 461538
1, 44880, Tempo, 487804
1, 45120, Tempo, 508474
1, 46560, Tempo, 480000
1, 47520, Tempo, 461538
1, 55200, Tempo, 480000
1, 55680, Tempo, 461538
1, 56640, Tempo, 480000
1, 57120, Tempo, 461538
1, 58080, Tempo, 480000
1, 59040, Tempo, 508474
1, 59520, Tempo, 530973
1, 60000, Tempo, 550458
1, 60480, Tempo, 461538
1, 66240, Tempo, 483870
1, 72000, Tempo, 461538
1, 73440, Tempo, 472440
1, 73920, Tempo, 500000
1, 74400, Tempo, 526315
1, 74880, Tempo, 472440
1, 77760, Tempo, 461538
1, 80640, Tempo, 468750
1, 82080, Tempo, 483870
1, 82560, Tempo, 508474
1, 83040, Tempo, 526315
1, 83520, Tempo, 461538
1, 92160, Tempo, 476190
1, 95040, Tempo, 461538
1, 108000, Tempo, 476190
1, 109440, Tempo, 504201
1, 110880, Tempo, 535714
1, 111360, Tempo, 555555
1, 111840, Tempo, 576923
1, 112320, Tempo, 468750
1, 115200, Tempo, 461538
1, 116640, Tempo, 483870
1, 117600, Tempo, 500000
1, 118080, Tempo, 461538
1, 123360, Tempo, 500000
1, 123840, Tempo, 461538
1, 128160, Tempo, 461538
1, 129600, Tempo, 483870
1, 131040, Tempo, 517241
1, 132480, Tempo, 500000
1, 132960, Tempo, 483870
1, 133440, Tempo, 468750
1, 133920, Tempo, 461538
1, 139680, Tempo, 480000
1, 140160, Tempo, 500000
1, 140640, Tempo, 545454
1, 141120, Tempo, 491803
1, 141600, Tempo, 476190
1, 142080, Tempo, 468750
1, 142560, Tempo, 461538
1, 152640, Tempo, 483870
1, 154080, Tempo, 500000
1, 154560, Tempo, 545454
1, 155040, Tempo, 612244
1, 155280, Tempo, 638297
1, 155640, Tempo, 500000
1, 159840, Tempo, 483870
1, 160320, Tempo, 476190
1, 160800, Tempo, 468750
1, 161280, Tempo, 461538
1, 168600, Tempo, 480000
1, 168720, Tempo, 500000
1, 168960, Tempo, 526315
1, 169200, Tempo, 550458
1, 169440, Tempo, 618556
1, 169680, Tempo, 666666
1, 169920, Tempo, 500000
1, 170400, Tempo, 480000
1, 170880, Tempo, 461538
1, 175680, Tempo, 697674
1, 175800, Tempo, 500000
1, 176160, Tempo, 483870
1, 176640, Tempo, 468750
1, 177120, Tempo, 461538
1, 184320, Tempo, 600000
1, 184800, Tempo, 666666
1, 185280, Tempo, 750000
1, 185520, Tempo, 857142
1, 185880, Tempo, 545454
1, 187200, Tempo, 600000
1, 188640, Tempo, 666666
1, 190560, Tempo, 750000
1, 191040, Tempo, 857142
1, 191520, Tempo, 1000000
1, 192960, Tempo, 1200000
1, 194400, Tempo, 666666
1, 195840, Tempo, 750000
1, 197280, Tempo, 857142
1, 197280, End_track
2, 0, Start_track
2, 0, Title_t, "PRELUDIUM"
2, 0, MIDI_port, 0
2, 0, Channel_prefix, 0
2, 0, Control_c, 0, 7, 99
2, 0, Control_c, 0, 10, 60
2, 0, Control_c, 0, 91, 51
2, 0, Program_c, 0, 73
2, 240, Note_on_c, 0, 88, 92
2, 360, Note_off_c, 0, 88, 64
2, 360, Note_on_c, 0, 87, 92
2, 480, Note_off_c, 0, 87, 64
2, 480, Note_on_c, 0, 88, 92
2, 560, Note_off_c, 0, 88, 64
2, 720, Note_on_c, 0, 83, 92
2, 800, Note_off_c, 0, 83, 64
2, 960, Note_on_c, 0, 80, 92
2, 1040, Note_off_c, 0, 80, 64
2, 1200, Note_on_c, 0, 83, 92
2, 1280, Note_off_c, 0, 83, 64
2, 1440, Note_on_c, 0, 76, 92
2, 1560, Note_off_c, 0, 76, 64
2, 1560, Note_on_c, 0, 78, 92
2, 1680, Note_off_c, 0, 78, 64
2, 1680, Note_on_c, 0, 76, 92
2, 1800, Note_off_c, 0, 76, 64
2, 1800, Note_on_c, 0, 75, 92
2, 1920, Note_off_c, 0, 75, 64
2, 1920, Note_on_c, 0, 76, 92
2, 2000, Note_off_c, 0, 76, 64
2, 2160, Note_on_c, 0, 71, 92
2, 2240, Note_off_c, 0, 71, 64
2, 2400, Note_on_c, 0, 68, 92
2, 2480, Note_off_c, 0, 68, 64
2, 2640, Note_on_c, 0, 71, 92
2, 2720, Note_off_c, 0, 71, 64
2, 40560, Note_on_c, 0, 88, 92
2, 40680, Note_off_c, 0, 88, 64
2, 40680, Note_on_c, 0, 87, 92
2, 40800, Note_off_c, 0, 87, 64
2, 40800, Note_on_c, 0, 88, 92
2, 40880, Note_off_c, 0, 88, 64
2, 41040, Note_on_c, 0, 83, 92
2, 41120, Note_off_c, 0, 83, 64
2, 41280, Note_on_c, 0, 80, 92
2, 41360, Note_off_c, 0, 80, 64
2, 41520, Note_on_c, 0, 83, 92
2, 41600, Note_off_c, 0, 83, 64
2, 41760, Note_on_c, 0, 76, 92
2, 41840, Note_off_c, 0, 76, 64
2, 46320, Note_on_c, 0, 85, 75
2, 46440, Note_off_c, 0, 85, 64
2, 46440, Note_on_c, 0, 84, 75
2, 46560, Note_off_c, 0, 84, 64
2, 46560, Note_on_c, 0, 85, 75
2, 46640, Note_off_c, 0, 85, 64
2, 46800, Note_on_c, 0, 80, 75
2, 46880, Note_off_c, 0, 80, 64
2, 47040, Note_on_c, 0, 77, 75
2, 47120, Note_off_c, 0, 77, 64
2, 47280, Note_on_c, 0, 80, 75
2, 47360, Note_off_c, 0, 80, 64
2, 47520, Note_on_c, 0, 73, 75
2, 47600, Note_off_c, 0, 73, 64
2, 54960, Note_on_c, 0, 92, 108
2, 55080, Note_off_c, 0, 92, 64
2, 55080, Note_on_c, 0, 91, 108
2, 55200, Note_off_c, 0, 91, 64
2, 55200, Note_on_c, 0, 92, 108
2, 55280, Note_off_c, 0, 92, 64
2, 55440, Note_on_c, 0, 87, 108
2, 55520, Note_off_c, 0, 87, 64
2, 55680, Note_on_c, 0, 84, 108
2, 55760, Note_off_c, 0, 84, 64
2, 55920, Note_on_c, 0, 87, 108
2, 56000, Note_off_c, 0, 87, 64
2, 56160, Note_on_c, 0, 80, 108
2, 56240, Note_off_c, 0, 80, 64
2, 60720, Note_on_c, 0, 92, 92
2, 60840, Note_off_c, 0, 92, 64
2, 60840, Note_on_c, 0, 91, 92
2, 60960, Note_off_c, 0, 91, 64
2, 60960, Note_on_c, 0, 92, 92
2, 61040, Note_off_c, 0, 92, 64
2, 61200, Note_on_c, 0, 87, 92
2, 61280, Note_off_c, 0, 87, 64
2, 61440, Note_on_c, 0, 84, 92
2, 61520, Note_off_c, 0, 84, 64
2, 61680, Note_on_c, 0, 87, 92
2, 61760, Note_off_c, 0, 87, 64
2, 61920, Note_on_c, 0, 85, 92
2, 62000, Note_off_c, 0, 85, 64
2, 63600, Note_on_c, 0, 92, 60
2, 63720, Note_off_c, 0, 92, 64
2, 63720, Note_on_c, 0, 91, 60
2, 63840, Note_off_c, 0, 91, 64
2, 63840, Note_on_c, 0, 92, 60
2, 63920, Note_off_c, 0, 92, 64
2, 64080, Note_on_c, 0, 87, 60
2, 64160, Note_off_c, 0, 87, 64
2, 64320, Note_on_c, 0, 84, 60
2, 64400, Note_off_c, 0, 84, 64
2, 64560, Note_on_c, 0, 87, 60
2, 64640, Note_off_c, 0, 87, 64
2, 64800, Note_on_c, 0, 85, 60
2, 64880, Note_off_c, 0, 85, 64
2, 66480, Note_on_c, 0, 91, 92
2, 66600, Note_off_c, 0, 91, 64
2, 66600, Note_on_c, 0, 90, 92
2, 66720, Note_off_c, 0, 90, 64
2, 66720, Note_on_c, 0, 91, 92
2, 66800, Note_off_c, 0, 91, 64
2, 66960, Note_on_c, 0, 85, 92
2, 67040, Note_off_c, 0, 85, 64
2, 67200, Note_on_c, 0, 82, 92
2, 67280, Note_off_c, 0, 82, 64
2, 67440, Note_on_c, 0, 85, 92
2, 67520, Note_off_c, 0, 85, 64
2, 67680, Note_on_c, 0, 79, 92
2, 67800, Note_off_c, 0, 79, 64
2, 69360, Note_on_c, 0, 92, 92
2, 69480, Note_off_c, 0, 92, 64
2, 69480, Note_on_c, 0, 91, 92
2, 69600, Note_off_c, 0, 91, 64
2, 69600, Note_on_c, 0, 92, 92
2, 69680, Note_off_c, 0, 92, 64
2, 69840, Note_on_c, 0, 85, 92
2, 69920, Note_off_c, 0, 85, 64
2, 70080, Note_on_c, 0, 80, 92
2, 70160, Note_off_c, 0, 80, 64
2, 70320, Note_on_c, 0, 85, 92
2, 70400, Note_off_c, 0, 85, 64
2, 70560, Note_on_c, 0, 80, 92
2, 70680, Note_off_c, 0, 80, 64
2, 75120, Note_on_c, 0, 90, 108
2, 75240, Note_off_c, 0, 90, 64
2, 75240, Note_on_c, 0, 89, 108
2, 75360, Note_off_c, 0, 89, 64
2, 75360, Note_on_c, 0, 90, 108
2, 75440, Note_off_c, 0, 90, 64
2, 75600, Note_on_c, 0, 85, 108
2, 75680, Note_off_c, 0, 85, 64
2, 75840, Note_on_c, 0, 82, 108
2, 75920, Note_off_c, 0, 82, 64
2, 76080, Note_on_c, 0, 85, 108
2, 76160, Note_off_c, 0, 85, 64
2, 76320, Note_on_c, 0, 78, 108
2, 76440, Note_off_c, 0, 78, 64
2, 80880, Note_on_c, 0, 88, 108
2, 81000, Note_off_c, 0, 88, 64
2, 81000, Note_on_c, 0, 87, 108
2, 81120, Note_off_c, 0, 87, 64
2, 81120, Note_on_c, 0, 88, 108
2, 81200, Note_off_c, 0, 88, 64
2, 81360, Note_on_c, 0, 83, 108
2, 81440, Note_off_c, 0, 83, 64
2, 81600, Note_on_c, 0, 80, 108
2, 81680, Note_off_c, 0, 80, 64
2, 81840, Note_on_c, 0, 83, 108
2, 81920, Note_off_c, 0, 83, 64
2, 82080, Note_on_c, 0, 76, 108
2, 82160, Note_off_c, 0, 76, 64
2, 90960, Note_on_c, 0, 85, 108
2, 91200, Note_off_c, 0, 85, 64
2, 91200, Note_on_c, 0, 83, 108
2, 91440, Note_off_c, 0, 83, 64
2, 91440, Note_on_c, 0, 85, 108
2, 91680, Note_off_c, 0, 85, 64
2, 91680, Note_on_c, 0, 86, 108
2, 91920, Note_off_c, 0, 86, 64
2, 91920, Note_on_c, 0, 83, 108
2, 92160, Note_off_c, 0, 83, 64
2, 92160, Note_on_c, 0, 85, 108
2, 92280, Note_off_c, 0, 85, 64
2, 93840, Note_on_c, 0, 85, 60
2, 94080, Note_off_c, 0, 85, 64
2, 94080, Note_on_c, 0, 83, 60
2, 94320, Note_off_c, 0, 83, 64
2, 94320, Note_on_c, 0, 85, 60
2, 94560, Note_off_c, 0, 85, 64
2, 94560, Note_on_c, 0, 86, 60
2, 94800, Note_off_c, 0, 86, 64
2, 94800, Note_on_c, 0, 83, 60
2, 95040, Note_off_c, 0, 83, 64
2, 95040, Note_on_c, 0, 85, 60
2, 95160, Note_off_c, 0, 85, 64
2, 112560, Note_on_c, 0, 93, 60
2, 112680, Note_off_c, 0, 93, 64
2, 112680, Note_on_c, 0, 92, 60
2, 112800, Note_off_c, 0, 92, 64
2, 112800, Note_on_c, 0, 93, 60
2, 112880, Note_off_c, 0, 93, 64
2, 113040, Note_on_c, 0, 88, 60
2, 113120, Note_off_c, 0, 88, 64
2, 113280, Note_on_c, 0, 85, 60
2, 113360, Note_off_c, 0, 85, 64
2, 113520, Note_on_c, 0, 88, 60
2, 113600, Note_off_c, 0, 88, 64
2, 113760, Note_on_c, 0, 81, 60
2, 113840, Note_off_c, 0, 81, 64
2, 118320, Note_on_c, 0, 95, 60
2, 118440, Note_off_c, 0, 95, 64
2, 118440, Note_on_c, 0, 94, 60
2, 118560, Note_off_c, 0, 94, 64
2, 118560, Note_on_c, 0, 95, 60
2, 118640, Note_off_c, 0, 95, 64
2, 118800, Note_on_c, 0, 90, 60
2, 118880, Note_off_c, 0, 90, 64
2, 119040, Note_on_c, 0, 86, 60
2, 119120, Note_off_c, 0, 86, 64
2, 119280, Note_on_c, 0, 90, 60
2, 119360, Note_off_c, 0, 90, 64
2, 119520, Note_on_c, 0, 83, 60
2, 119600, Note_off_c, 0, 83, 64
2, 119760, Note_on_c, 0, 83, 75
2, 119880, Note_off_c, 0, 83, 64
2, 119880, Note_on_c, 0, 82, 75
2, 120000, Note_off_c, 0, 82, 64
2, 120000, Note_on_c, 0, 83, 75
2, 120080, Note_off_c, 0, 83, 64
2, 120240, Note_on_c, 0, 78, 75
2, 120320, Note_off_c, 0, 78, 64
2, 120480, Note_on_c, 0, 74, 75
2, 120560, Note_off_c, 0, 74, 64
2, 120720, Note_on_c, 0, 78, 75
2, 120800, Note_off_c, 0, 78, 64
2, 120960, Note_on_c, 0, 71, 75
2, 121040, Note_off_c, 0, 71, 64
2, 155520, Note_on_c, 0, 90, 45
2, 155760, Note_off_c, 0, 90, 64
2, 155760, Note_on_c, 0, 92, 45
2, 156000, Note_off_c, 0, 92, 64
2, 156000, Note_on_c, 0, 93, 45
2, 156240, Note_off_c, 0, 93, 64
2, 156240, Note_on_c, 0, 92, 45
2, 156480, Note_off_c, 0, 92, 64
2, 156480, Note_on_c, 0, 90, 45
2, 156720, Note_off_c, 0, 90, 64
2, 156720, Note_on_c, 0, 88, 45
2, 156960, Note_off_c, 0, 88, 64
2, 156960, Note_on_c, 0, 87, 45
2, 157200, Note_off_c, 0, 87, 64
2, 157200, Note_on_c, 0, 88, 45
2, 157440, Note_off_c, 0, 88, 64
2, 157440, Note_on_c, 0, 90, 45
2, 157680, Note_off_c, 0, 90, 64
2, 157680, Note_on_c, 0, 92, 45
2, 157920, Note_off_c, 0, 92, 64
2, 157920, Note_on_c, 0, 93, 45
2, 158160, Note_off_c, 0, 93, 64
2, 158160, Note_on_c, 0, 90, 45
2, 158400, Note_off_c, 0, 90, 64
2, 158400, Note_on_c, 0, 92, 45
2, 158880, Note_off_c, 0, 92, 64
2, 158880, Note_on_c, 0, 88, 45
2, 159120, Note_off_c, 0, 88, 64
2, 159120, Note_on_c, 0, 87, 45
2, 159360, Note_off_c, 0, 87, 64
2, 159360, Note_on_c, 0, 85, 45
2, 159600, Note_off_c, 0, 85, 64
2, 159600, Note_on_c, 0, 83, 45
2, 159840, Note_off_c, 0, 83, 64
2, 159840, Note_on_c, 0, 82, 45
2, 160080, Note_off_c, 0, 82, 64
2, 160080, Note_on_c, 0, 83, 45
2, 160320, Note_off_c, 0, 83, 64
2, 160320, Note_on_c, 0, 85, 45
2, 160560, Note_off_c, 0, 85, 64
2, 160560, Note_on_c, 0, 87, 45
2, 160800, Note_off_c, 0, 87, 64
2, 160800, Note_on_c, 0, 88, 45
2, 161040, Note_off_c, 0, 88, 64
2, 161040, Note_on_c, 0, 85, 45
2, 161280, Note_off_c, 0, 85, 64
2, 161280, Note_on_c, 0, 87, 45
2, 162600, Note_off_c, 0, 87, 64
2, 162720, Note_on_c, 0, 80, 45
2, 162720, Note_on_c, 0, 83, 45
2, 162960, Note_off_c, 0, 83, 64
2, 162960, Note_off_c, 0, 80, 64
2, 162960, Note_on_c, 0, 78, 45
2, 162960, Note_on_c, 0, 81, 45
2, 163200, Note_off_c, 0, 81, 64
2, 163200, Note_off_c, 0, 78, 64
2, 163200, Note_on_c, 0, 76, 45
2, 163200, Note_on_c, 0, 80, 45
2, 163440, Note_off_c, 0, 80, 64
2, 163440, Note_off_c, 0, 76, 64
2, 163440, Note_on_c, 0, 74, 45
2, 163440, Note_on_c, 0, 78, 45
2, 163680, Note_off_c, 0, 78, 64
2, 163680, Note_off_c, 0, 74, 64
2, 163680, Note_on_c, 0, 73, 45
2, 163680, Note_on_c, 0, 76, 45
2, 163920, Note_off_c, 0, 76, 64
2, 163920, Note_off_c, 0, 73, 64
2, 163920, Note_on_c, 0, 71, 45
2, 163920, Note_on_c, 0, 74, 45
2, 164160, Note_off_c, 0, 74, 64
2, 164160, Note_off_c, 0, 71, 64
2, 164160, Note_on_c, 0, 69, 45
2, 164160, Note_on_c, 0, 73, 45
2, 165480, Note_off_c, 0, 73, 64
2, 165480, Note_off_c, 0, 69, 64
2, 165600, Note_on_c, 0, 78, 45
2, 165600, Note_on_c, 0, 81, 45
2, 165840, Note_off_c, 0, 81, 64
2, 165840, Note_off_c, 0, 78, 64
2, 165840, Note_on_c, 0, 76, 45
2, 165840, Note_on_c, 0, 80, 45
2, 166080, Note_off_c, 0, 80, 64
2, 166080, Note_off_c, 0, 76, 64
2, 166080, Note_on_c, 0, 75, 45
2, 166080, Note_on_c, 0, 78, 45
2, 166320, Note_off_c, 0, 78, 64
2, 166320, Note_off_c, 0, 75, 64
2, 166320, Note_on_c, 0, 73, 45
2, 166320, Note_on_c, 0, 76, 45
2, 166560, Note_off_c, 0, 76, 64
2, 166560, Note_off_c, 0, 73, 64
2, 166560, Note_on_c, 0, 71, 45
2, 166560, Note_on_c, 0, 75, 45
2, 166800, Note_off_c, 0, 75, 64
2, 166800, Note_off_c, 0, 71, 64
2, 166800, Note_on_c, 0, 69, 45
2, 166800, Note_on_c, 0, 73, 45
2, 167040, Note_off_c, 0, 73, 64
2, 167040, Note_off_c, 0, 69, 64
2, 167040, Note_on_c, 0, 66, 45
2, 167040, Note_on_c, 0, 71, 45
2, 168360, Note_off_c, 0, 71, 64
2, 168360, Note_off_c, 0, 66, 64
2, 168480, Note_on_c, 0, 85, 60
2, 168480, Note_on_c, 0, 88, 60
2, 168720, Note_off_c, 0, 88, 64
2, 168720, Note_off_c, 0, 85, 64
2, 168720, Note_on_c, 0, 83, 45
2, 168720, Note_on_c, 0, 86, 45
2, 168960, Note_off_c, 0, 86, 64
2, 168960, Note_off_c, 0, 83, 64
2, 168960, Note_on_c, 0, 81, 45
2, 168960, Note_on_c, 0, 85, 45
2, 169200, Note_off_c, 0, 85, 64
2, 169200, Note_off_c, 0, 81, 64
2, 169200, Note_on_c, 0, 80, 45
2, 169200, Note_on_c, 0, 83, 45
2, 169440, Note_off_c, 0, 83, 64
2, 169440, Note_off_c, 0, 80, 64
2, 169440, Note_on_c, 0, 78, 45
2, 169440, Note_on_c, 0, 81, 45
2, 169680, Note_off_c, 0, 81, 64
2, 169680, Note_off_c, 0, 78, 64
2, 169680, Note_on_c, 0, 76, 45
2, 169680, Note_on_c, 0, 80, 45
2, 169920, Note_off_c, 0, 80, 64
2, 169920, Note_off_c, 0, 76, 64
2, 169920, Note_on_c, 0, 76, 45
2, 169920, Note_on_c, 0, 81, 45
2, 170320, Note_off_c, 0, 81, 64
2, 170320, Note_off_c, 0, 76, 64
2, 170400, Note_on_c, 0, 81, 46
2, 170400, Note_on_c, 0, 85, 46
2, 170800, Note_off_c, 0, 85, 64
2, 170800, Note_off_c, 0, 81, 64
2, 170880, Note_on_c, 0, 85, 47
2, 170880, Note_on_c, 0, 88, 47
2, 171280, Note_off_c, 0, 88, 64
2, 171280, Note_off_c, 0, 85, 64
2, 171360, Note_on_c, 0, 87, 48
2, 171360, Note_on_c, 0, 90, 48
2, 171760, Note_off_c, 0, 90, 64
2, 171760, Note_off_c, 0, 87, 64
2, 171840, Note_on_c, 0, 83, 49
2, 171840, Note_on_c, 0, 87, 49
2, 172240, Note_off_c, 0, 87, 64
2, 172240, Note_off_c, 0, 83, 64
2, 172320, Note_on_c, 0, 78, 50
2, 172320, Note_on_c, 0, 83, 50
2, 172720, Note_off_c, 0, 83, 64
2, 172720, Note_off_c, 0, 78, 64
2, 172800, Note_on_c, 0, 83, 51
2, 172800, Note_on_c, 0, 88, 51
2, 173200, Note_off_c, 0, 88, 64
2, 173200, Note_off_c, 0, 83, 64
2, 173280, Note_on_c, 0, 80, 52
2, 173280, Note_on_c, 0, 83, 52
2, 173680, Note_off_c, 0, 83, 64
2, 173680, Note_off_c, 0, 80, 64
2, 173760, Note_on_c, 0, 76, 53
2, 173760, Note_on_c, 0, 80, 53
2, 174160, Note_off_c, 0, 80, 64
2, 174160, Note_off_c, 0, 76, 64
2, 174240, Note_on_c, 0, 85, 54
2, 174240, Note_on_c, 0, 90, 54
2, 174640, Note_off_c, 0, 90, 64
2, 174640, Note_off_c, 0, 85, 64
2, 174720, Note_on_c, 0, 82, 56
2, 174720, Note_on_c, 0, 85, 56
2, 175120, Note_off_c, 0, 85, 64
2, 175120, Note_off_c, 0, 82, 64
2, 175200, Note_on_c, 0, 78, 58
2, 175200, Note_on_c, 0, 82, 58
2, 175600, Note_off_c, 0, 82, 64
2, 175600, Note_off_c, 0, 78, 64
2, 175680, Note_on_c, 0, 78, 60
2, 175680, Note_on_c, 0, 83, 60
2, 176080, Note_off_c, 0, 83, 64
2, 176080, Note_off_c, 0, 78, 64
2, 176160, Note_on_c, 0, 83, 60
2, 176160, Note_on_c, 0, 87, 60
2, 176560, Note_off_c, 0, 87, 64
2, 176560, Note_off_c, 0, 83, 64
2, 176640, Note_on_c, 0, 87, 60
2, 176640, Note_on_c, 0, 90, 60
2, 177040, Note_off_c, 0, 90, 64
2, 177040, Note_off_c, 0, 87, 64
2, 177120, Note_on_c, 0, 90, 60
2, 177120, Note_on_c, 0, 93, 60
2, 177520, Note_off_c, 0, 93, 64
2, 177520, Note_off_c, 0, 90, 64
2, 177600, Note_on_c, 0, 87, 60
2, 177600, Note_on_c, 0, 90, 60
2, 178000, Note_off_c, 0, 90, 64
2, 178000, Note_off_c, 0, 87, 64
2, 178080, Note_on_c, 0, 83, 60
2, 178080, Note_on_c, 0, 87, 60
2, 178480, Note_off_c, 0, 87, 64
2, 178480, Note_off_c, 0, 83, 64
2, 178560, Note_on_c, 0, 78, 60
2, 178560, Note_on_c, 0, 83, 60
2, 178960, Note_off_c, 0, 83, 64
2, 178960, Note_off_c, 0, 78, 64
2, 179040, Note_on_c, 0, 83, 60
2, 179040, Note_on_c, 0, 87, 60
2, 179440, Note_off_c, 0, 87, 64
2, 179440, Note_off_c, 0, 83, 64
2, 179520, Note_on_c, 0, 87, 60
2, 179520, Note_on_c, 0, 90, 60
2, 179920, Note_off_c, 0, 90, 64
2, 179920, Note_off_c, 0, 87, 64
2, 180000, Note_on_c, 0, 80, 60
2, 180000, Note_on_c, 0, 81, 60
2, 180400, Note_off_c, 0, 81, 64
2, 180400, Note_off_c, 0, 80, 64
2, 180480, Note_on_c, 0, 81, 60
2, 180480, Note_on_c, 0, 85, 60
2, 180880, Note_off_c, 0, 85, 64
2, 180880, Note_off_c, 0, 81, 64
2, 180960, Note_on_c, 0, 85, 60
2, 180960, Note_on_c, 0, 88, 60
2, 181360, Note_off_c, 0, 88, 64
2, 181360, Note_off_c, 0, 85, 64
2, 181440, Note_on_c, 0, 80, 60
2, 181440, Note_on_c, 0, 83, 60
2, 181840, Note_off_c, 0, 83, 64
2, 181840, Note_off_c, 0, 80, 64
2, 181920, Note_on_c, 0, 83, 60
2, 181920, Note_on_c, 0, 87, 60
2, 182320, Note_off_c, 0, 87, 64
2, 182320, Note_off_c, 0, 83, 64
2, 182400, Note_on_c, 0, 87, 60
2, 182400, Note_on_c, 0, 92, 60
2, 182800, Note_off_c, 0, 92, 64
2, 182800, Note_off_c, 0, 87, 64
2, 182880, Note_on_c, 0, 78, 60
2, 182880, Note_on_c, 0, 81, 60
2, 183280, Note_off_c, 0, 81, 64
2, 183280, Note_off_c, 0, 78, 64
2, 183360, Note_on_c, 0, 81, 69
2, 183360, Note_on_c, 0, 87, 69
2, 183760, Note_off_c, 0, 87, 64
2, 183760, Note_off_c, 0, 81, 64
2, 183840, Note_on_c, 0, 87, 78
2, 183840, Note_on_c, 0, 90, 78
2, 184240, Note_off_c, 0, 90, 64
2, 184240, Note_off_c, 0, 87, 64
2, 184320, Note_on_c, 0, 80, 88
2, 184320, Note_on_c, 0, 83, 88
2, 184720, Note_off_c, 0, 83, 64
2, 184720, Note_off_c, 0, 80, 64
2, 184800, Note_on_c, 0, 80, 98
2, 184800, Note_on_c, 0, 88, 98
2, 185040, Note_off_c, 0, 88, 64
2, 185040, Note_off_c, 0, 80, 64
2, 185040, Note_on_c, 0, 81, 103
2, 185040, Note_on_c, 0, 90, 103
2, 185280, Note_off_c, 0, 90, 64
2, 185280, Note_off_c, 0, 81, 64
2, 185280, Note_on_c, 0, 90, 108
2, 185280, Note_on_c, 0, 93, 108
2, 185680, Note_off_c, 0, 93, 64
2, 185680, Note_off_c, 0, 90, 64
2, 185760, Note_on_c, 0, 88, 105
2, 186160, Note_off_c, 0, 88, 64
2, 186240, Note_on_c, 0, 86, 105
2, 186475, Note_off_c, 0, 86, 64
2, 186480, Note_on_c, 0, 85, 105
2, 186715, Note_off_c, 0, 85, 64
2, 186720, Note_on_c, 0, 86, 105
2, 186955, Note_off_c, 0, 86, 64
2, 186960, Note_on_c, 0, 83, 105
2, 187195, Note_off_c, 0, 83, 64
2, 187200, Note_on_c, 0, 85, 105
2, 187600, Note_off_c, 0, 85, 64
2, 187680, Note_on_c, 0, 85, 105
2, 187915, Note_off_c, 0, 85, 64
2, 187920, Note_on_c, 0, 83, 105
2, 188155, Note_off_c, 0, 83, 64
2, 188160, Note_on_c, 0, 85, 105
2, 188395, Note_off_c, 0, 85, 64
2, 188400, Note_on_c, 0, 81, 105
2, 188635, Note_off_c, 0, 81, 64
2, 188640, Note_on_c, 0, 83, 105
2, 189040, Note_off_c, 0, 83, 64
2, 189120, Note_on_c, 0, 83, 105
2, 189355, Note_off_c, 0, 83, 64
2, 189360, Note_on_c, 0, 81, 105
2, 189595, Note_off_c, 0, 81, 64
2, 189600, Note_on_c, 0, 83, 105
2, 189835, Note_off_c, 0, 83, 64
2, 189840, Note_on_c, 0, 80, 105
2, 190075, Note_off_c, 0, 80, 64
2, 190080, Note_on_c, 0, 81, 105
2, 190480, Note_off_c, 0, 81, 64
2, 190560, Note_on_c, 0, 87, 112
2, 190795, Note_off_c, 0, 87, 64
2, 190800, Note_on_c, 0, 88, 116
2, 191035, Note_off_c, 0, 88, 64
2, 191040, Note_on_c, 0, 90, 120
2, 191275, Note_off_c, 0, 90, 64
2, 191280, Note_on_c, 0, 92, 124
2, 191515, Note_off_c, 0, 92, 64
2, 191520, Note_on_c, 0, 93, 127
2, 192160, Note_off_c, 0, 93, 64
2, 192240, Note_on_c, 0, 95, 127
2, 192475, Note_off_c, 0, 95, 64
2, 192480, Note_on_c, 0, 92, 127
2, 192880, Note_off_c, 0, 92, 64
2, 192960, Note_on_c, 0, 93, 92
2, 193195, Note_off_c, 0, 93, 64
2, 193200, Note_on_c, 0, 90, 92
2, 193435, Note_off_c, 0, 90, 64
2, 193440, Note_on_c, 0, 90, 92
2, 194080, Note_off_c, 0, 90, 64
2, 194160, Note_on_c, 0, 88, 92
2, 194395, Note_off_c, 0, 88, 64
2, 194400, Note_on_c, 0, 88, 92
2, 194800, Note_off_c, 0, 88, 64
2, 194880, Note_on_c, 0, 92, 94
2, 195115, Note_off_c, 0, 92, 64
2, 195120, Note_on_c, 0, 93, 95
2, 195355, Note_off_c, 0, 93, 64
2, 195360, Note_on_c, 0, 92, 96
2, 195595, Note_off_c, 0, 92, 64
2, 195600, Note_on_c, 0, 90, 97
2, 195835, Note_off_c, 0, 90, 64
2, 195840, Note_on_c, 0, 88, 98
2, 196240, Note_off_c, 0, 88, 64
2, 196320, Note_on_c, 0, 92, 101
2, 196555, Note_off_c, 0, 92, 64
2, 196560, Note_on_c, 0, 90, 102
2, 196795, Note_off_c, 0, 90, 64
2, 196800, Note_on_c, 0, 88, 104
2, 197035, Note_off_c, 0, 88, 64
2, 197040, Note_on_c, 0, 87, 106
2, 197275, Note_off_c, 0, 87, 64
2, 197280, Note_on_c, 0, 88, 108
2, 199195, Note_off_c, 0, 88, 64
2, 199195, End_track
3, 0, Start_track
3, 0, Title_t, "from Sonata No.6 in E major"
3, 0, MIDI_port, 0
3, 0, Channel_prefix, 1
3, 0, Control_c, 1, 7, 101
3, 0, Control_c, 1, 10, 80
3, 0, Control_c, 1, 91, 55
3, 0, Program_c, 1, 68
3, 240, Note_on_c, 1, 76, 92
3, 360, Note_off_c, 1, 76, 64
3, 360, Note_on_c, 1, 75, 92
3, 480, Note_off_c, 1, 75, 64
3, 480, Note_on_c, 1, 76, 92
3, 560, Note_off_c, 1, 76, 64
3, 720, Note_on_c, 1, 71, 92
3, 800, Note_off_c, 1, 71, 64
3, 960, Note_on_c, 1, 68, 92
3, 1040, Note_off_c, 1, 68, 64
3, 1200, Note_on_c, 1, 71, 92
3, 1280, Note_off_c, 1, 71, 64
3, 1440, Note_on_c, 1, 76, 92
3, 1560, Note_off_c, 1, 76, 64
3, 1560, Note_on_c, 1, 78, 92
3, 1680, Note_off_c, 1, 78, 64
3, 1680, Note_on_c, 1, 76, 92
3, 1800, Note_off_c, 1, 76, 64
3, 1800, Note_on_c, 1, 75, 92
3, 1920, Note_off_c, 1, 75, 64
3, 1920, Note_on_c, 1, 76, 92
3, 2000, Note_off_c, 1, 76, 64
3, 2160, Note_on_c, 1, 71, 92
3, 2240, Note_off_c, 1, 71, 64
3, 2400, Note_on_c, 1, 68, 92
3, 2480, Note_off_c, 1, 68, 64
3, 2640, Note_on_c, 1, 71, 92
3, 2720, Note_off_c, 1, 71, 64
3, 40560, Note_on_c, 1, 76, 92
3, 40680, Note_off_c, 1, 76, 64
3, 40680, Note_on_c, 1, 75, 92
3, 40800, Note_off_c, 1, 75, 64
3, 40800, Note_on_c, 1, 76, 92
3, 40880, Note_off_c, 1, 76, 64
3, 41040, Note_on_c, 1, 71, 92
3, 41120, Note_off_c, 1, 71, 64
3, 41280, Note_on_c, 1, 68, 92
3, 41360, Note_off_c, 1, 68, 64
3, 41520, Note_on_c, 1, 71, 92
3, 41600, Note_off_c, 1, 71, 64
3, 41760, Note_on_c, 1, 64, 92
3, 41840, Note_off_c, 1, 64, 64
3, 46320, Note_on_c, 1, 73, 75
3, 46440, Note_off_c, 1, 73, 64
3, 46440, Note_on_c, 1, 72, 75
3, 46560, Note_off_c, 1, 72, 64
3, 46560, Note_on_c, 1, 73, 75
3, 46640, Note_off_c, 1, 73, 64
3, 46800, Note_on_c, 1, 68, 75
3, 46880, Note_off_c, 1, 68, 64
3, 47040, Note_on_c, 1, 65, 75
3, 47120, Note_off_c, 1, 65, 64
3, 47280, Note_on_c, 1, 68, 75
3, 47360, Note_off_c, 1, 68, 64
3, 47520, Note_on_c, 1, 61, 75
3, 47600, Note_off_c, 1, 61, 64
3, 54960, Note_on_c, 1, 80, 108
3, 55080, Note_off_c, 1, 80, 64
3, 55080, Note_on_c, 1, 79, 108
3, 55200, Note_off_c, 1, 79, 64
3, 55200, Note_on_c, 1, 80, 108
3, 55280, Note_off_c, 1, 80, 64
3, 55440, Note_on_c, 1, 75, 108
3, 55520, Note_off_c, 1, 75, 64
3, 55680, Note_on_c, 1, 72, 108
3, 55760, Note_off_c, 1, 72, 64
3, 55920, Note_on_c, 1, 75, 108
3, 56000, Note_off_c, 1, 75, 64
3, 56160, Note_on_c, 1, 68, 108
3, 56240, Note_off_c, 1, 68, 64
3, 60720, Note_on_c, 1, 80, 92
3, 60840, Note_off_c, 1, 80, 64
3, 60840, Note_on_c, 1, 79, 92
3, 60960, Note_off_c, 1, 79, 64
3, 60960, Note_on_c, 1, 80, 92
3, 61040, Note_off_c, 1, 80, 64
3, 61200, Note_on_c, 1, 75, 92
3, 61280, Note_off_c, 1, 75, 64
3, 61440, Note_on_c, 1, 72, 92
3, 61520, Note_off_c, 1, 72, 64
3, 61680, Note_on_c, 1, 75, 92
3, 61760, Note_off_c, 1, 75, 64
3, 61920, Note_on_c, 1, 73, 92
3, 62000, Note_off_c, 1, 73, 64
3, 63600, Note_on_c, 1, 80, 60
3, 63720, Note_off_c, 1, 80, 64
3, 63720, Note_on_c, 1, 79, 60
3, 63840, Note_off_c, 1, 79, 64
3, 63840, Note_on_c, 1, 80, 60
3, 63920, Note_off_c, 1, 80, 64
3, 64080, Note_on_c, 1, 75, 60
3, 64160, Note_off_c, 1, 75, 64
3, 64320, Note_on_c, 1, 72, 60
3, 64400, Note_off_c, 1, 72, 64
3, 64560, Note_on_c, 1, 75, 60
3, 64640, Note_off_c, 1, 75, 64
3, 64800, Note_on_c, 1, 73, 60
3, 64880, Note_off_c, 1, 73, 64
3, 66480, Note_on_c, 1, 79, 92
3, 66600, Note_off_c, 1, 79, 64
3, 66600, Note_on_c, 1, 78, 92
3, 66720, Note_off_c, 1, 78, 64
3, 66720, Note_on_c, 1, 79, 92
3, 66800, Note_off_c, 1, 79, 64
3, 66960, Note_on_c, 1, 73, 92
3, 67040, Note_off_c, 1, 73, 64
3, 67200, Note_on_c, 1, 70, 92
3, 67280, Note_off_c, 1, 70, 64
3, 67440, Note_on_c, 1, 73, 92
3, 67520, Note_off_c, 1, 73, 64
3, 67680, Note_on_c, 1, 67, 92
3, 67800, Note_off_c, 1, 67, 64
3, 69360, Note_on_c, 1, 80, 92
3, 69480, Note_off_c, 1, 80, 64
3, 69480, Note_on_c, 1, 79, 92
3, 69600, Note_off_c, 1, 79, 64
3, 69600, Note_on_c, 1, 80, 92
3, 69680, Note_off_c, 1, 80, 64
3, 69840, Note_on_c, 1, 73, 92
3, 69920, Note_off_c, 1, 73, 64
3, 70080, Note_on_c, 1, 68, 92
3, 70160, Note_off_c, 1, 68, 64
3, 70320, Note_on_c, 1, 73, 92
3, 70400, Note_off_c, 1, 73, 64
3, 70560, Note_on_c, 1, 68, 92
3, 70680, Note_off_c, 1, 68, 64
3, 75120, Note_on_c, 1, 78, 108
3, 75240, Note_off_c, 1, 78, 64
3, 75240, Note_on_c, 1, 77, 108
3, 75360, Note_off_c, 1, 77, 64
3, 75360, Note_on_c, 1, 78, 108
3, 75440, Note_off_c, 1, 78, 64
3, 75600, Note_on_c, 1, 73, 108
3, 75680, Note_off_c, 1, 73, 64
3, 75840, Note_on_c, 1, 70, 108
3, 75920, Note_off_c, 1, 70, 64
3, 76080, Note_on_c, 1, 73, 108
3, 76160, Note_off_c, 1, 73, 64
3, 76320, Note_on_c, 1, 66, 108
3, 76440, Note_off_c, 1, 66, 64
3, 80880, Note_on_c, 1, 76, 108
3, 81000, Note_off_c, 1, 76, 64
3, 81000, Note_on_c, 1, 75, 108
3, 81120, Note_off_c, 1, 75, 64
3, 81120, Note_on_c, 1, 76, 108
3, 81200, Note_off_c, 1, 76, 64
3, 81360, Note_on_c, 1, 71, 108
3, 81440, Note_off_c, 1, 71, 64
3, 81600, Note_on_c, 1, 68, 108
3, 81680, Note_off_c, 1, 68, 64
3, 81840, Note_on_c, 1, 71, 108
3, 81920, Note_off_c, 1, 71, 64
3, 82080, Note_on_c, 1, 64, 108
3, 82160, Note_off_c, 1, 64, 64
3, 90960, Note_on_c, 1, 73, 108
3, 91200, Note_off_c, 1, 73, 64
3, 91200, Note_on_c, 1, 71, 108
3, 91440, Note_off_c, 1, 71, 64
3, 91440, Note_on_c, 1, 73, 108
3, 91680, Note_off_c, 1, 73, 64
3, 91680, Note_on_c, 1, 74, 108
3, 91920, Note_off_c, 1, 74, 64
3, 91920, Note_on_c, 1, 71, 108
3, 92160, Note_off_c, 1, 71, 64
3, 92160, Note_on_c, 1, 73, 108
3, 92280, Note_off_c, 1, 73, 64
3, 93840, Note_on_c, 1, 73, 60
3, 94080, Note_off_c, 1, 73, 64
3, 94080, Note_on_c, 1, 71, 60
3, 94320, Note_off_c, 1, 71, 64
3, 94320, Note_on_c, 1, 73, 60
3, 94560, Note_off_c, 1, 73, 64
3, 94560, Note_on_c, 1, 74, 60
3, 94800, Note_off_c, 1, 74, 64
3, 94800, Note_on_c, 1, 71, 60
3, 95040, Note_off_c, 1, 71, 64
3, 95040, Note_on_c, 1, 73, 60
3, 95160, Note_off_c, 1, 73, 64
3, 112560, Note_on_c, 1, 81, 60
3, 112680, Note_off_c, 1, 81, 64
3, 112680, Note_on_c, 1, 80, 60
3, 112800, Note_off_c, 1, 80, 64
3, 112800, Note_on_c, 1, 81, 60
3, 112880, Note_off_c, 1, 81, 64
3, 113040, Note_on_c, 1, 76, 60
3, 113120, Note_off_c, 1, 76, 64
3, 113280, Note_on_c, 1, 73, 60
3, 113360, Note_off_c, 1, 73, 64
3, 113520, Note_on_c, 1, 76, 60
3, 113600, Note_off_c, 1, 76, 64
3, 113760, Note_on_c, 1, 69, 60
3, 113840, Note_off_c, 1, 69, 64
3, 114000, Note_on_c, 1, 69, 92
3, 114120, Note_off_c, 1, 69, 64
3, 114120, Note_on_c, 1, 68, 92
3, 114240, Note_off_c, 1, 68, 64
3, 114240, Note_on_c, 1, 69, 92
3, 114320, Note_off_c, 1, 69, 64
3, 114480, Note_on_c, 1, 64, 92
3, 114560, Note_off_c, 1, 64, 64
3, 114720, Note_on_c, 1, 61, 92
3, 114800, Note_off_c, 1, 61, 64
3, 114960, Note_on_c, 1, 64, 92
3, 115040, Note_off_c, 1, 64, 64
3, 115200, Note_on_c, 1, 69, 92
3, 115280, Note_off_c, 1, 69, 64
3, 118320, Note_on_c, 1, 83, 60
3, 118440, Note_off_c, 1, 83, 64
3, 118440, Note_on_c, 1, 82, 60
3, 118560, Note_off_c, 1, 82, 64
3, 118560, Note_on_c, 1, 83, 60
3, 118640, Note_off_c, 1, 83, 64
3, 118800, Note_on_c, 1, 78, 60
3, 118880, Note_off_c, 1, 78, 64
3, 119040, Note_on_c, 1, 74, 60
3, 119120, Note_off_c, 1, 74, 64
3, 119280, Note_on_c, 1, 78, 60
3, 119360, Note_off_c, 1, 78, 64
3, 119520, Note_on_c, 1, 71, 60
3, 119600, Note_off_c, 1, 71, 64
3, 155520, Note_on_c, 1, 78, 45
3, 155760, Note_off_c, 1, 78, 64
3, 155760, Note_on_c, 1, 80, 45
3, 156000, Note_off_c, 1, 80, 64
3, 156000, Note_on_c, 1, 81, 45
3, 156240, Note_off_c, 1, 81, 64
3, 156240, Note_on_c, 1, 80, 45
3, 156480, Note_off_c, 1, 80, 64
3, 156480, Note_on_c, 1, 78, 45
3, 156720, Note_off_c, 1, 78, 64
3, 156720, Note_on_c, 1, 76, 45
3, 156960, Note_off_c, 1, 76, 64
3, 156960, Note_on_c, 1, 75, 45
3, 157200, Note_off_c, 1, 75, 64
3, 157200, Note_on_c, 1, 76, 45
3, 157440, Note_off_c, 1, 76, 64
3, 157440, Note_on_c, 1, 78, 45
3, 157680, Note_off_c, 1, 78, 64
3, 157680, Note_on_c, 1, 80, 45
3, 157920, Note_off_c, 1, 80, 64
3, 157920, Note_on_c, 1, 81, 45
3, 158160, Note_off_c, 1, 81, 64
3, 158160, Note_on_c, 1, 78, 45
3, 158400, Note_off_c, 1, 78, 64
3, 158400, Note_on_c, 1, 80, 45
3, 158880, Note_off_c, 1, 80, 64
3, 158880, Note_on_c, 1, 76, 45
3, 159120, Note_off_c, 1, 76, 64
3, 159120, Note_on_c, 1, 75, 45
3, 159360, Note_off_c, 1, 75, 64
3, 159360, Note_on_c, 1, 73, 45
3, 159600, Note_off_c, 1, 73, 64
3, 159600, Note_on_c, 1, 71, 45
3, 159840, Note_off_c, 1, 71, 64
3, 159840, Note_on_c, 1, 70, 45
3, 160080, Note_off_c, 1, 70, 64
3, 160080, Note_on_c, 1, 71, 45
3, 160320, Note_off_c, 1, 71, 64
3, 160320, Note_on_c, 1, 73, 45
3, 160560, Note_off_c, 1, 73, 64
3, 160560, Note_on_c, 1, 75, 45
3, 160800, Note_off_c, 1, 75, 64
3, 160800, Note_on_c, 1, 76, 45
3, 161040, Note_off_c, 1, 76, 64
3, 161040, Note_on_c, 1, 73, 45
3, 161280, Note_off_c, 1, 73, 64
3, 161280, Note_on_c, 1, 75, 45
3, 162600, Note_off_c, 1, 75, 64
3, 162720, Note_on_c, 1, 80, 45
3, 162720, Note_on_c, 1, 83, 45
3, 162960, Note_off_c, 1, 83, 64
3, 162960, Note_off_c, 1, 80, 64
3, 162960, Note_on_c, 1, 78, 45
3, 162960, Note_on_c, 1, 81, 45
3, 163200, Note_off_c, 1, 81, 64
3, 163200, Note_off_c, 1, 78, 64
3, 163200, Note_on_c, 1, 76, 45
3, 163200, Note_on_c, 1, 80, 45
3, 163440, Note_off_c, 1, 80, 64
3, 163440, Note_off_c, 1, 76, 64
3, 163440, Note_on_c, 1, 74, 45
3, 163440, Note_on_c, 1, 78, 45
3, 163680, Note_off_c, 1, 78, 64
3, 163680, Note_off_c, 1, 74, 64
3, 163680, Note_on_c, 1, 73, 45
3, 163680, Note_on_c, 1, 76, 45
3, 163920, Note_off_c, 1, 76, 64
3, 163920, Note_off_c, 1, 73, 64
3, 163920, Note_on_c, 1, 71, 45
3, 163920, Note_on_c, 1, 74, 45
3, 164160, Note_off_c, 1, 74, 64
3, 164160, Note_off_c, 1, 71, 64
3, 164160, Note_on_c, 1, 69, 45
3, 164160, Note_on_c, 1, 73, 45
3, 165480, Note_off_c, 1, 73, 64
3, 165480, Note_off_c, 1, 69, 64
3, 165600, Note_on_c, 1, 78, 45
3, 165600, Note_on_c, 1, 81, 45
3, 165840, Note_off_c, 1, 81, 64
3, 165840, Note_off_c, 1, 78, 64
3, 165840, Note_on_c, 1, 76, 45
3, 165840, Note_on_c, 1, 80, 45
3, 166080, Note_off_c, 1, 80, 64
3, 166080, Note_off_c, 1, 76, 64
3, 166080, Note_on_c, 1, 75, 45
3, 166080, Note_on_c, 1, 78, 45
3, 166320, Note_off_c, 1, 78, 64
3, 166320, Note_off_c, 1, 75, 64
3, 166320, Note_on_c, 1, 73, 45
3, 166320, Note_on_c, 1, 76, 45
3, 166560, Note_off_c, 1, 76, 64
3, 166560, Note_off_c, 1, 73, 64
3, 166560, Note_on_c, 1, 71, 45
3, 166560, Note_on_c, 1, 75, 45
3, 166800, Note_off_c, 1, 75, 64
3, 166800, Note_off_c, 1, 71, 64
3, 166800, Note_on_c, 1, 69, 45
3, 166800, Note_on_c, 1, 73, 45
3, 167040, Note_off_c, 1, 73, 64
3, 167040, Note_off_c, 1, 69, 64
3, 167040, Note_on_c, 1, 66, 45
3, 167040, Note_on_c, 1, 71, 45
3, 168360, Note_off_c, 1, 71, 64
3, 168360, Note_off_c, 1, 66, 64
3, 168480, Note_on_c, 1, 73, 60
3, 168480, Note_on_c, 1, 76, 60
3, 168720, Note_off_c, 1, 76, 64
3, 168720, Note_off_c, 1, 73, 64
3, 168720, Note_on_c, 1, 71, 45
3, 168720, Note_on_c, 1, 74, 45
3, 168960, Note_off_c, 1, 74, 64
3, 168960, Note_off_c, 1, 71, 64
3, 168960, Note_on_c, 1, 69, 45
3, 168960, Note_on_c, 1, 73, 45
3, 169200, Note_off_c, 1, 73, 64
3, 169200, Note_off_c, 1, 69, 64
3, 169200, Note_on_c, 1, 68, 45
3, 169200, Note_on_c, 1, 71, 45
3, 169440, Note_off_c, 1, 71, 64
3, 169440, Note_off_c, 1, 68, 64
3, 169440, Note_on_c, 1, 66, 45
3, 169440, Note_on_c, 1, 69, 45
3, 169680, Note_off_c, 1, 69, 64
3, 169680, Note_off_c, 1, 66, 64
3, 169680, Note_on_c, 1, 64, 45
3, 169680, Note_on_c, 1, 68, 45
3, 169920, Note_off_c, 1, 68, 64
3, 169920, Note_off_c, 1, 64, 64
3, 169920, Note_on_c, 1, 64, 45
3, 169920, Note_on_c, 1, 69, 45
3, 170320, Note_off_c, 1, 69, 64
3, 170320, Note_off_c, 1, 64, 64
3, 170400, Note_on_c, 1, 69, 46
3, 170400, Note_on_c, 1, 73, 46
3, 170800, Note_off_c, 1, 73, 64
3, 170800, Note_off_c, 1, 69, 64
3, 170880, Note_on_c, 1, 73, 47
3, 170880, Note_on_c, 1, 76, 47
3, 171280, Note_off_c, 1, 76, 64
3, 171280, Note_off_c, 1, 73, 64
3, 171360, Note_on_c, 1, 75, 48
3, 171360, Note_on_c, 1, 78, 48
3, 171760, Note_off_c, 1, 78, 64
3, 171760, Note_off_c, 1, 75, 64
3, 171840, Note_on_c, 1, 71, 49
3, 171840, Note_on_c, 1, 75, 49
3, 172240, Note_off_c, 1, 75, 64
3, 172240, Note_off_c, 1, 71, 64
3, 172320, Note_on_c, 1, 66, 50
3, 172320, Note_on_c, 1, 71, 50
3, 172720, Note_off_c, 1, 71, 64
3, 172720, Note_off_c, 1, 66, 64
3, 172800, Note_on_c, 1, 71, 51
3, 172800, Note_on_c, 1, 76, 51
3, 173200, Note_off_c, 1, 76, 64
3, 173200, Note_off_c, 1, 71, 64
3, 173280, Note_on_c, 1, 68, 52
3, 173280, Note_on_c, 1, 71, 52
3, 173680, Note_off_c, 1, 71, 64
3, 173680, Note_off_c, 1, 68, 64
3, 173760, Note_on_c, 1, 64, 53
3, 173760, Note_on_c, 1, 68, 53
3, 174160, Note_off_c, 1, 68, 64
3, 174160, Note_off_c, 1, 64, 64
3, 174240, Note_on_c, 1, 73, 54
3, 174240, Note_on_c, 1, 78, 54
3, 174640, Note_off_c, 1, 78, 64
3, 174640, Note_off_c, 1, 73, 64
3, 174720, Note_on_c, 1, 70, 56
3, 174720, Note_on_c, 1, 73, 56
3, 175120, Note_off_c, 1, 73, 64
3, 175120, Note_off_c, 1, 70, 64
3, 175200, Note_on_c, 1, 66, 58
3, 175200, Note_on_c, 1, 70, 58
3, 175600, Note_off_c, 1, 70, 64
3, 175600, Note_off_c, 1, 66, 64
3, 175680, Note_on_c, 1, 66, 60
3, 175680, Note_on_c, 1, 71, 60
3, 176080, Note_off_c, 1, 71, 64
3, 176080, Note_off_c, 1, 66, 64
3, 176160, Note_on_c, 1, 71, 60
3, 176160, Note_on_c, 1, 75, 60
3, 176560, Note_off_c, 1, 75, 64
3, 176560, Note_off_c, 1, 71, 64
3, 176640, Note_on_c, 1, 75, 60
3, 176640, Note_on_c, 1, 78, 60
3, 177040, Note_off_c, 1, 78, 64
3, 177040, Note_off_c, 1, 75, 64
3, 177120, Note_on_c, 1, 78, 60
3, 177120, Note_on_c, 1, 81, 60
3, 177520, Note_off_c, 1, 81, 64
3, 177520, Note_off_c, 1, 78, 64
3, 177600, Note_on_c, 1, 75, 60
3, 177600, Note_on_c, 1, 78, 60
3, 178000, Note_off_c, 1, 78, 64
3, 178000, Note_off_c, 1, 75, 64
3, 178080, Note_on_c, 1, 71, 60
3, 178080, Note_on_c, 1, 75, 60
3, 178480, Note_off_c, 1, 75, 64
3, 178480, Note_off_c, 1, 71, 64
3, 178560, Note_on_c, 1, 66, 60
3, 178560, Note_on_c, 1, 71, 60
3, 178960, Note_off_c, 1, 71, 64
3, 178960, Note_off_c, 1, 66, 64
3, 179040, Note_on_c, 1, 71, 60
3, 179040, Note_on_c, 1, 75, 60
3, 179440, Note_off_c, 1, 75, 64
3, 179440, Note_off_c, 1, 71, 64
3, 179520, Note_on_c, 1, 75, 60
3, 179520, Note_on_c, 1, 78, 60
3, 179920, Note_off_c, 1, 78, 64
3, 179920, Note_off_c, 1, 75, 64
3, 180000, Note_on_c, 1, 68, 60
3, 180000, Note_on_c, 1, 69, 60
3, 180400, Note_off_c, 1, 69, 64
3, 180400, Note_off_c, 1, 68, 64
3, 180480, Note_on_c, 1, 69, 60
3, 180480, Note_on_c, 1, 73, 60
3, 180880, Note_off_c, 1, 73, 64
3, 180880, Note_off_c, 1, 69, 64
3, 180960, Note_on_c, 1, 73, 60
3, 180960, Note_on_c, 1, 76, 60
3, 181360, Note_off_c, 1, 76, 64
3, 181360, Note_off_c, 1, 73, 64
3, 181440, Note_on_c, 1, 68, 60
3, 181440, Note_on_c, 1, 71, 60
3, 181840, Note_off_c, 1, 71, 64
3, 181840, Note_off_c, 1, 68, 64
3, 181920, Note_on_c, 1, 71, 60
3, 181920, Note_on_c, 1, 75, 60
3, 182320, Note_off_c, 1, 75, 64
3, 182320, Note_off_c, 1, 71, 64
3, 182400, Note_on_c, 1, 75, 60
3, 182400, Note_on_c, 1, 80, 60
3, 182800, Note_off_c, 1, 80, 64
3, 182800, Note_off_c, 1, 75, 64
3, 182880, Note_on_c, 1, 66, 60
3, 182880, Note_on_c, 1, 69, 60
3, 183280, Note_off_c, 1, 69, 64
3, 183280, Note_off_c, 1, 66, 64
3, 183360, Note_on_c, 1, 69, 69
3, 183360, Note_on_c, 1, 75, 69
3, 183760, Note_off_c, 1, 75, 64
3, 183760, Note_off_c, 1, 69, 64
3, 183840, Note_on_c, 1, 75, 78
3, 183840, Note_on_c, 1, 78, 78
3, 184240, Note_off_c, 1, 78, 64
3, 184240, Note_off_c, 1, 75, 64
3, 184320, Note_on_c, 1, 68, 88
3, 184320, Note_on_c, 1, 71, 88
3, 184720, Note_off_c, 1, 71, 64
3, 184720, Note_off_c, 1, 68, 64
3, 184800, Note_on_c, 1, 68, 98
3, 184800, Note_on_c, 1, 76, 98
3, 185040, Note_off_c, 1, 76, 64
3, 185040, Note_off_c, 1, 68, 64
3, 185040, Note_on_c, 1, 69, 103
3, 185040, Note_on_c, 1, 78, 103
3, 185280, Note_off_c, 1, 78, 64
3, 185280, Note_off_c, 1, 69, 64
3, 185280, Note_on_c, 1, 71, 108
3, 185280, Note_on_c, 1, 81, 108
3, 185680, Note_off_c, 1, 81, 64
3, 185680, Note_off_c, 1, 71, 64
3, 185760, Note_on_c, 1, 76, 105
3, 186160, Note_off_c, 1, 76, 64
3, 186240, Note_on_c, 1, 74, 105
3, 186475, Note_off_c, 1, 74, 64
3, 186480, Note_on_c, 1, 73, 105
3, 186715, Note_off_c, 1, 73, 64
3, 186720, Note_on_c, 1, 74, 105
3, 186955, Note_off_c, 1, 74, 64
3, 186960, Note_on_c, 1, 71, 105
3, 187195, Note_off_c, 1, 71, 64
3, 187200, Note_on_c, 1, 73, 105
3, 187600, Note_off_c, 1, 73, 64
3, 187680, Note_on_c, 1, 73, 105
3, 187915, Note_off_c, 1, 73, 64
3, 187920, Note_on_c, 1, 71, 105
3, 188155, Note_off_c, 1, 71, 64
3, 188160, Note_on_c, 1, 73, 105
3, 188395, Note_off_c, 1, 73, 64
3, 188400, Note_on_c, 1, 69, 105
3, 188635, Note_off_c, 1, 69, 64
3, 188640, Note_on_c, 1, 71, 105
3, 189040, Note_off_c, 1, 71, 64
3, 189120, Note_on_c, 1, 71, 105
3, 189355, Note_off_c, 1, 71, 64
3, 189360, Note_on_c, 1, 69, 105
3, 189595, Note_off_c, 1, 69, 64
3, 189600, Note_on_c, 1, 71, 105
3, 189835, Note_off_c, 1, 71, 64
3, 189840, Note_on_c, 1, 68, 105
3, 190075, Note_off_c, 1, 68, 64
3, 190080, Note_on_c, 1, 69, 105
3, 190480, Note_off_c, 1, 69, 64
3, 190560, Note_on_c, 1, 75, 112
3, 190795, Note_off_c, 1, 75, 64
3, 190800, Note_on_c, 1, 76, 116
3, 191035, Note_off_c, 1, 76, 64
3, 191040, Note_on_c, 1, 78, 120
3, 191275, Note_off_c, 1, 78, 64
3, 191280, Note_on_c, 1, 80, 124
3, 191515, Note_off_c, 1, 80, 64
3, 191520, Note_on_c, 1, 81, 127
3, 192160, Note_off_c, 1, 81, 64
3, 192240, Note_on_c, 1, 83, 127
3, 192475, Note_off_c, 1, 83, 64
3, 192480, Note_on_c, 1, 80, 127
3, 192880, Note_off_c, 1, 80, 64
3, 192960, Note_on_c, 1, 81, 92
3, 193195, Note_off_c, 1, 81, 64
3, 193200, Note_on_c, 1, 78, 92
3, 193435, Note_off_c, 1, 78, 64
3, 193440, Note_on_c, 1, 78, 92
3, 194080, Note_off_c, 1, 78, 64
3, 194160, Note_on_c, 1, 76, 92
3, 194395, Note_off_c, 1, 76, 64
3, 194400, Note_on_c, 1, 76, 92
3, 194800, Note_off_c, 1, 76, 64
3, 194880, Note_on_c, 1, 80, 94
3, 195115, Note_off_c, 1, 80, 64
3, 195120, Note_on_c, 1, 81, 95
3, 195355, Note_off_c, 1, 81, 64
3, 195360, Note_on_c, 1, 80, 96
3, 195595, Note_off_c, 1, 80, 64
3, 195600, Note_on_c, 1, 78, 97
3, 195835, Note_off_c, 1, 78, 64
3, 195840, Note_on_c, 1, 76, 98
3, 196240, Note_off_c, 1, 76, 64
3, 196320, Note_on_c, 1, 80, 101
3, 196555, Note_off_c, 1, 80, 64
3, 196560, Note_on_c, 1, 78, 102
3, 196795, Note_off_c, 1, 78, 64
3, 196800, Note_on_c, 1, 76, 104
3, 197035, Note_off_c, 1, 76, 64
3, 197040, Note_on_c, 1, 75, 106
3, 197275, Note_off_c, 1, 75, 64
3, 197280, Note_on_c, 1, 76, 108
3, 199195, Note_off_c, 1, 76, 64
3, 199195, End_track
4, 0, Start_track
4, 0, Title_t, "by Bach"
4, 0, MIDI_port, 0
4, 0, Channel_prefix, 2
4, 0, Control_c, 2, 7, 99
4, 0, Control_c, 2, 10, 50
4, 0, Control_c, 2, 91, 45
4, 0, Program_c, 2, 71
4, 0, Note_on_c, 2, 68, 92
4, 400, Note_off_c, 2, 68, 64
4, 1440, Note_on_c, 2, 68, 92
4, 1840, Note_off_c, 2, 68, 64
4, 2880, Note_on_c, 2, 68, 92
4, 3595, Note_off_c, 2, 68, 64
4, 3600, Note_on_c, 2, 69, 92
4, 3840, Note_off_c, 2, 69, 64
4, 3840, Note_on_c, 2, 68, 92
4, 4080, Note_off_c, 2, 68, 64
4, 4080, Note_on_c, 2, 66, 92
4, 4320, Note_off_c, 2, 66, 64
4, 4320, Note_on_c, 2, 68, 92
4, 5280, Note_off_c, 2, 68, 64
4, 5280, Note_on_c, 2, 66, 92
4, 5680, Note_off_c, 2, 66, 64
4, 5760, Note_on_c, 2, 68, 60
4, 6475, Note_off_c, 2, 68, 64
4, 6480, Note_on_c, 2, 69, 60
4, 6720, Note_off_c, 2, 69, 64
4, 6720, Note_on_c, 2, 68, 60
4, 6960, Note_off_c, 2, 68, 64
4, 6960, Note_on_c, 2, 66, 60
4, 7200, Note_off_c, 2, 66, 64
4, 7200, Note_on_c, 2, 68, 60
4, 8160, Note_off_c, 2, 68, 64
4, 8160, Note_on_c, 2, 66, 60
4, 8560, Note_off_c, 2, 66, 64
4, 8640, Note_on_c, 2, 68, 45
4, 9600, Note_off_c, 2, 68, 64
4, 9600, Note_on_c, 2, 69, 60
4, 10080, Note_off_c, 2, 69, 64
4, 10080, Note_on_c, 2, 68, 68
4, 11040, Note_off_c, 2, 68, 64
4, 11040, Note_on_c, 2, 66, 84
4, 11440, Note_off_c, 2, 66, 64
4, 11520, Note_on_c, 2, 68, 92
4, 12235, Note_off_c, 2, 68, 64
4, 12240, Note_on_c, 2, 69, 92
4, 12480, Note_off_c, 2, 69, 64
4, 12480, Note_on_c, 2, 68, 92
4, 12720, Note_off_c, 2, 68, 64
4, 12720, Note_on_c, 2, 66, 92
4, 12960, Note_off_c, 2, 66, 64
4, 12960, Note_on_c, 2, 68, 92
4, 13920, Note_off_c, 2, 68, 64
4, 13920, Note_on_c, 2, 66, 92
4, 14320, Note_off_c, 2, 66, 64
4, 14400, Note_on_c, 2, 68, 45
4, 15115, Note_off_c, 2, 68, 64
4, 15120, Note_on_c, 2, 69, 45
4, 15360, Note_off_c, 2, 69, 64
4, 15360, Note_on_c, 2, 68, 45
4, 15600, Note_off_c, 2, 68, 64
4, 15600, Note_on_c, 2, 66, 45
4, 15840, Note_off_c, 2, 66, 64
4, 15840, Note_on_c, 2, 68, 45
4, 16800, Note_off_c, 2, 68, 64
4, 16800, Note_on_c, 2, 66, 45
4, 17200, Note_off_c, 2, 66, 64
4, 17280, Note_on_c, 2, 68, 75
4, 17360, Note_off_c, 2, 68, 64
4, 17520, Note_on_c, 2, 68, 75
4, 17920, Note_off_c, 2, 68, 64
4, 18000, Note_on_c, 2, 68, 75
4, 18400, Note_off_c, 2, 68, 64
4, 18480, Note_on_c, 2, 68, 75
4, 18955, Note_off_c, 2, 68, 64
4, 18960, Note_on_c, 2, 68, 92
4, 19200, Note_off_c, 2, 68, 64
4, 19200, Note_on_c, 2, 66, 92
4, 19440, Note_off_c, 2, 66, 64
4, 19440, Note_on_c, 2, 68, 92
4, 19680, Note_off_c, 2, 68, 64
4, 19680, Note_on_c, 2, 64, 92
4, 19920, Note_off_c, 2, 64, 64
4, 19920, Note_on_c, 2, 66, 92
4, 20155, Note_off_c, 2, 66, 64
4, 20160, Note_on_c, 2, 68, 45
4, 20240, Note_off_c, 2, 68, 64
4, 20400, Note_on_c, 2, 68, 45
4, 20800, Note_off_c, 2, 68, 64
4, 20880, Note_on_c, 2, 68, 45
4, 21280, Note_off_c, 2, 68, 64
4, 21360, Note_on_c, 2, 68, 45
4, 21835, Note_off_c, 2, 68, 64
4, 21840, Note_on_c, 2, 68, 75
4, 22080, Note_off_c, 2, 68, 64
4, 22080, Note_on_c, 2, 66, 75
4, 22320, Note_off_c, 2, 66, 64
4, 22320, Note_on_c, 2, 68, 75
4, 22560, Note_off_c, 2, 68, 64
4, 22560, Note_on_c, 2, 64, 75
4, 22800, Note_off_c, 2, 64, 64
4, 22800, Note_on_c, 2, 66, 75
4, 23035, Note_off_c, 2, 66, 64
4, 23040, Note_on_c, 2, 68, 60
4, 23120, Note_off_c, 2, 68, 64
4, 23280, Note_on_c, 2, 68, 60
4, 23680, Note_off_c, 2, 68, 64
4, 23760, Note_on_c, 2, 68, 60
4, 24160, Note_off_c, 2, 68, 64
4, 24240, Note_on_c, 2, 68, 60
4, 24320, Note_off_c, 2, 68, 64
4, 24480, Note_on_c, 2, 68, 60
4, 24560, Note_off_c, 2, 68, 64
4, 24720, Note_on_c, 2, 68, 60
4, 25120, Note_off_c, 2, 68, 64
4, 25200, Note_on_c, 2, 68, 60
4, 25600, Note_off_c, 2, 68, 64
4, 25680, Note_on_c, 2, 68, 60
4, 25760, Note_off_c, 2, 68, 64
4, 25920, Note_on_c, 2, 68, 60
4, 26000, Note_off_c, 2, 68, 64
4, 26160, Note_on_c, 2, 68, 60
4, 26560, Note_off_c, 2, 68, 64
4, 26640, Note_on_c, 2, 68, 60
4, 27040, Note_off_c, 2, 68, 64
4, 27120, Note_on_c, 2, 68, 60
4, 27200, Note_off_c, 2, 68, 64
4, 27360, Note_on_c, 2, 69, 60
4, 27440, Note_off_c, 2, 69, 64
4, 27600, Note_on_c, 2, 69, 62
4, 28000, Note_off_c, 2, 69, 64
4, 28080, Note_on_c, 2, 69, 67
4, 28480, Note_off_c, 2, 69, 64
4, 28560, Note_on_c, 2, 69, 72
4, 28640, Note_off_c, 2, 69, 64
4, 28800, Note_on_c, 2, 68, 75
4, 28880, Note_off_c, 2, 68, 64
4, 29040, Note_on_c, 2, 68, 75
4, 29440, Note_off_c, 2, 68, 64
4, 29520, Note_on_c, 2, 68, 75
4, 29920, Note_off_c, 2, 68, 64
4, 30000, Note_on_c, 2, 68, 75
4, 30080, Note_off_c, 2, 68, 64
4, 30240, Note_on_c, 2, 68, 75
4, 30320, Note_off_c, 2, 68, 64
4, 30480, Note_on_c, 2, 68, 70
4, 30880, Note_off_c, 2, 68, 64
4, 30960, Note_on_c, 2, 68, 60
4, 31360, Note_off_c, 2, 68, 64
4, 31440, Note_on_c, 2, 68, 50
4, 31520, Note_off_c, 2, 68, 64
4, 31680, Note_on_c, 2, 69, 45
4, 31760, Note_off_c, 2, 69, 64
4, 31920, Note_on_c, 2, 69, 45
4, 32320, Note_off_c, 2, 69, 64
4, 32400, Note_on_c, 2, 69, 45
4, 32800, Note_off_c, 2, 69, 64
4, 32880, Note_on_c, 2, 69, 45
4, 32960, Note_off_c, 2, 69, 64
4, 33120, Note_on_c, 2, 69, 45
4, 33200, Note_off_c, 2, 69, 64
4, 33360, Note_on_c, 2, 69, 45
4, 33760, Note_off_c, 2, 69, 64
4, 33840, Note_on_c, 2, 69, 45
4, 34240, Note_off_c, 2, 69, 64
4, 34320, Note_on_c, 2, 69, 45
4, 34400, Note_off_c, 2, 69, 64
4, 34560, Note_on_c, 2, 68, 45
4, 34640, Note_off_c, 2, 68, 64
4, 34800, Note_on_c, 2, 68, 45
4, 35200, Note_off_c, 2, 68, 64
4, 35280, Note_on_c, 2, 68, 45
4, 35680, Note_off_c, 2, 68, 64
4, 35760, Note_on_c, 2, 68, 45
4, 35840, Note_off_c, 2, 68, 64
4, 36000, Note_on_c, 2, 68, 45
4, 36080, Note_off_c, 2, 68, 64
4, 36240, Note_on_c, 2, 68, 45
4, 36640, Note_off_c, 2, 68, 64
4, 36720, Note_on_c, 2, 68, 45
4, 37120, Note_off_c, 2, 68, 64
4, 37200, Note_on_c, 2, 68, 45
4, 37280, Note_off_c, 2, 68, 64
4, 37440, Note_on_c, 2, 71, 45
4, 37520, Note_off_c, 2, 71, 64
4, 37680, Note_on_c, 2, 71, 45
4, 38080, Note_off_c, 2, 71, 64
4, 38160, Note_on_c, 2, 71, 45
4, 38560, Note_off_c, 2, 71, 64
4, 38640, Note_on_c, 2, 71, 45
4, 38720, Note_off_c, 2, 71, 64
4, 38880, Note_on_c, 2, 71, 45
4, 38960, Note_off_c, 2, 71, 64
4, 39120, Note_on_c, 2, 71, 45
4, 39520, Note_off_c, 2, 71, 64
4, 39600, Note_on_c, 2, 71, 45
4, 40000, Note_off_c, 2, 71, 64
4, 40080, Note_on_c, 2, 71, 45
4, 40160, Note_off_c, 2, 71, 64
4, 40320, Note_on_c, 2, 71, 75
4, 40555, Note_off_c, 2, 71, 64
4, 40560, Note_on_c, 2, 76, 92
4, 40680, Note_off_c, 2, 76, 64
4, 40680, Note_on_c, 2, 75, 92
4, 40800, Note_off_c, 2, 75, 64
4, 40800, Note_on_c, 2, 76, 92
4, 40880, Note_off_c, 2, 76, 64
4, 41040, Note_on_c, 2, 71, 92
4, 41120, Note_off_c, 2, 71, 64
4, 41280, Note_on_c, 2, 68, 92
4, 41360, Note_off_c, 2, 68, 64
4, 41520, Note_on_c, 2, 71, 92
4, 41600, Note_off_c, 2, 71, 64
4, 41760, Note_on_c, 2, 64, 92
4, 41840, Note_off_c, 2, 64, 64
4, 42000, Note_on_c, 2, 76, 92
4, 42120, Note_off_c, 2, 76, 64
4, 42120, Note_on_c, 2, 75, 92
4, 42240, Note_off_c, 2, 75, 64
4, 42240, Note_on_c, 2, 76, 92
4, 42320, Note_off_c, 2, 76, 64
4, 42480, Note_on_c, 2, 71, 92
4, 42560, Note_off_c, 2, 71, 64
4, 42720, Note_on_c, 2, 68, 92
4, 42800, Note_off_c, 2, 68, 64
4, 42960, Note_on_c, 2, 71, 92
4, 43040, Note_off_c, 2, 71, 64
4, 43200, Note_on_c, 2, 64, 92
4, 43280, Note_off_c, 2, 64, 64
4, 46320, Note_on_c, 2, 73, 75
4, 46440, Note_off_c, 2, 73, 64
4, 46440, Note_on_c, 2, 72, 75
4, 46560, Note_off_c, 2, 72, 64
4, 46560, Note_on_c, 2, 73, 75
4, 46640, Note_off_c, 2, 73, 64
4, 46800, Note_on_c, 2, 68, 75
4, 46880, Note_off_c, 2, 68, 64
4, 47040, Note_on_c, 2, 65, 75
4, 47120, Note_off_c, 2, 65, 64
4, 47280, Note_on_c, 2, 68, 75
4, 47360, Note_off_c, 2, 68, 64
4, 47520, Note_on_c, 2, 61, 75
4, 47600, Note_off_c, 2, 61, 64
4, 47760, Note_on_c, 2, 73, 75
4, 47880, Note_off_c, 2, 73, 64
4, 47880, Note_on_c, 2, 72, 75
4, 48000, Note_off_c, 2, 72, 64
4, 48000, Note_on_c, 2, 73, 75
4, 48080, Note_off_c, 2, 73, 64
4, 48240, Note_on_c, 2, 68, 75
4, 48320, Note_off_c, 2, 68, 64
4, 48480, Note_on_c, 2, 65, 75
4, 48560, Note_off_c, 2, 65, 64
4, 48720, Note_on_c, 2, 68, 75
4, 48800, Note_off_c, 2, 68, 64
4, 48960, Note_on_c, 2, 61, 75
4, 49040, Note_off_c, 2, 61, 64
4, 54960, Note_on_c, 2, 80, 108
4, 55080, Note_off_c, 2, 80, 64
4, 55080, Note_on_c, 2, 79, 108
4, 55200, Note_off_c, 2, 79, 64
4, 55200, Note_on_c, 2, 80, 108
4, 55280, Note_off_c, 2, 80, 64
4, 55440, Note_on_c, 2, 75, 108
4, 55520, Note_off_c, 2, 75, 64
4, 55680, Note_on_c, 2, 72, 108
4, 55760, Note_off_c, 2, 72, 64
4, 55920, Note_on_c, 2, 75, 108
4, 56000, Note_off_c, 2, 75, 64
4, 56160, Note_on_c, 2, 68, 108
4, 56240, Note_off_c, 2, 68, 64
4, 60720, Note_on_c, 2, 80, 92
4, 60840, Note_off_c, 2, 80, 64
4, 60840, Note_on_c, 2, 79, 92
4, 60960, Note_off_c, 2, 79, 64
4, 60960, Note_on_c, 2, 80, 92
4, 61040, Note_off_c, 2, 80, 64
4, 61200, Note_on_c, 2, 75, 92
4, 61280, Note_off_c, 2, 75, 64
4, 61440, Note_on_c, 2, 72, 92
4, 61520, Note_off_c, 2, 72, 64
4, 61680, Note_on_c, 2, 75, 92
4, 61760, Note_off_c, 2, 75, 64
4, 61920, Note_on_c, 2, 73, 92
4, 62000, Note_off_c, 2, 73, 64
4, 63600, Note_on_c, 2, 80, 60
4, 63720, Note_off_c, 2, 80, 64
4, 63720, Note_on_c, 2, 79, 60
4, 63840, Note_off_c, 2, 79, 64
4, 63840, Note_on_c, 2, 80, 60
4, 63920, Note_off_c, 2, 80, 64
4, 64080, Note_on_c, 2, 75, 60
4, 64160, Note_off_c, 2, 75, 64
4, 64320, Note_on_c, 2, 72, 60
4, 64400, Note_off_c, 2, 72, 64
4, 64560, Note_on_c, 2, 75, 60
4, 64640, Note_off_c, 2, 75, 64
4, 64800, Note_on_c, 2, 73, 60
4, 64880, Note_off_c, 2, 73, 64
4, 66480, Note_on_c, 2, 79, 92
4, 66600, Note_off_c, 2, 79, 64
4, 66600, Note_on_c, 2, 79, 92
4, 66720, Note_off_c, 2, 79, 64
4, 66720, Note_on_c, 2, 79, 92
4, 66800, Note_off_c, 2, 79, 64
4, 66960, Note_on_c, 2, 73, 92
4, 67040, Note_off_c, 2, 73, 64
4, 67200, Note_on_c, 2, 70, 92
4, 67280, Note_off_c, 2, 70, 64
4, 67440, Note_on_c, 2, 73, 92
4, 67520, Note_off_c, 2, 73, 64
4, 67680, Note_on_c, 2, 67, 92
4, 67800, Note_off_c, 2, 67, 64
4, 69360, Note_on_c, 2, 80, 92
4, 69480, Note_off_c, 2, 80, 64
4, 69480, Note_on_c, 2, 79, 92
4, 69600, Note_off_c, 2, 79, 64
4, 69600, Note_on_c, 2, 80, 92
4, 69680, Note_off_c, 2, 80, 64
4, 69840, Note_on_c, 2, 73, 92
4, 69920, Note_off_c, 2, 73, 64
4, 70080, Note_on_c, 2, 68, 92
4, 70160, Note_off_c, 2, 68, 64
4, 70320, Note_on_c, 2, 73, 92
4, 70400, Note_off_c, 2, 73, 64
4, 70560, Note_on_c, 2, 68, 92
4, 70680, Note_off_c, 2, 68, 64
4, 75120, Note_on_c, 2, 78, 108
4, 75240, Note_off_c, 2, 78, 64
4, 75240, Note_on_c, 2, 77, 108
4, 75360, Note_off_c, 2, 77, 64
4, 75360, Note_on_c, 2, 78, 108
4, 75440, Note_off_c, 2, 78, 64
4, 75600, Note_on_c, 2, 73, 108
4, 75680, Note_off_c, 2, 73, 64
4, 75840, Note_on_c, 2, 70, 108
4, 75920, Note_off_c, 2, 70, 64
4, 76080, Note_on_c, 2, 73, 108
4, 76160, Note_off_c, 2, 73, 64
4, 76320, Note_on_c, 2, 66, 108
4, 76440, Note_off_c, 2, 66, 64
4, 80880, Note_on_c, 2, 76, 108
4, 81000, Note_off_c, 2, 76, 64
4, 81000, Note_on_c, 2, 75, 108
4, 81120, Note_off_c, 2, 75, 64
4, 81120, Note_on_c, 2, 76, 108
4, 81200, Note_off_c, 2, 76, 64
4, 81360, Note_on_c, 2, 71, 108
4, 81440, Note_off_c, 2, 71, 64
4, 81600, Note_on_c, 2, 68, 108
4, 81680, Note_off_c, 2, 68, 64
4, 81840, Note_on_c, 2, 71, 108
4, 81920, Note_off_c, 2, 71, 64
4, 82080, Note_on_c, 2, 64, 108
4, 82160, Note_off_c, 2, 64, 64
4, 90960, Note_on_c, 2, 73, 108
4, 91200, Note_off_c, 2, 73, 64
4, 91200, Note_on_c, 2, 71, 108
4, 91440, Note_off_c, 2, 71, 64
4, 91440, Note_on_c, 2, 73, 108
4, 91680, Note_off_c, 2, 73, 64
4, 91680, Note_on_c, 2, 74, 108
4, 91920, Note_off_c, 2, 74, 64
4, 91920, Note_on_c, 2, 71, 108
4, 92160, Note_off_c, 2, 71, 64
4, 92160, Note_on_c, 2, 73, 108
4, 92560, Note_off_c, 2, 73, 64
4, 93840, Note_on_c, 2, 73, 60
4, 94080, Note_off_c, 2, 73, 64
4, 94080, Note_on_c, 2, 71, 60
4, 94320, Note_off_c, 2, 71, 64
4, 94320, Note_on_c, 2, 73, 60
4, 94560, Note_off_c, 2, 73, 64
4, 94560, Note_on_c, 2, 74, 60
4, 94800, Note_off_c, 2, 74, 64
4, 94800, Note_on_c, 2, 71, 60
4, 95040, Note_off_c, 2, 71, 64
4, 95040, Note_on_c, 2, 69, 108
4, 95120, Note_off_c, 2, 69, 64
4, 95280, Note_on_c, 2, 69, 108
4, 95680, Note_off_c, 2, 69, 64
4, 95760, Note_on_c, 2, 69, 108
4, 96160, Note_off_c, 2, 69, 64
4, 96240, Note_on_c, 2, 69, 108
4, 96320, Note_off_c, 2, 69, 64
4, 96480, Note_on_c, 2, 68, 108
4, 96560, Note_off_c, 2, 68, 64
4, 96720, Note_on_c, 2, 68, 108
4, 97120, Note_off_c, 2, 68, 64
4, 97200, Note_on_c, 2, 68, 108
4, 97600, Note_off_c, 2, 68, 64
4, 97680, Note_on_c, 2, 68, 108
4, 97760, Note_off_c, 2, 68, 64
4, 97920, Note_on_c, 2, 67, 108
4, 98000, Note_off_c, 2, 67, 64
4, 98160, Note_on_c, 2, 67, 108
4, 98560, Note_off_c, 2, 67, 64
4, 98640, Note_on_c, 2, 67, 108
4, 99040, Note_off_c, 2, 67, 64
4, 99120, Note_on_c, 2, 67, 108
4, 99200, Note_off_c, 2, 67, 64
4, 99360, Note_on_c, 2, 69, 108
4, 99440, Note_off_c, 2, 69, 64
4, 99600, Note_on_c, 2, 69, 108
4, 100000, Note_off_c, 2, 69, 64
4, 100080, Note_on_c, 2, 69, 108
4, 100480, Note_off_c, 2, 69, 64
4, 100560, Note_on_c, 2, 69, 108
4, 100640, Note_off_c, 2, 69, 64
4, 100800, Note_on_c, 2, 69, 108
4, 100880, Note_off_c, 2, 69, 64
4, 101040, Note_on_c, 2, 69, 108
4, 101440, Note_off_c, 2, 69, 64
4, 101520, Note_on_c, 2, 69, 108
4, 101920, Note_off_c, 2, 69, 64
4, 102000, Note_on_c, 2, 69, 108
4, 102080, Note_off_c, 2, 69, 64
4, 102240, Note_on_c, 2, 69, 92
4, 102320, Note_off_c, 2, 69, 64
4, 102480, Note_on_c, 2, 69, 92
4, 102880, Note_off_c, 2, 69, 64
4, 102960, Note_on_c, 2, 69, 92
4, 103360, Note_off_c, 2, 69, 64
4, 103440, Note_on_c, 2, 69, 92
4, 103520, Note_off_c, 2, 69, 64
4, 103680, Note_on_c, 2, 69, 92
4, 103760, Note_off_c, 2, 69, 64
4, 103920, Note_on_c, 2, 69, 92
4, 104320, Note_off_c, 2, 69, 64
4, 104400, Note_on_c, 2, 69, 92
4, 104800, Note_off_c, 2, 69, 64
4, 104880, Note_on_c, 2, 69, 92
4, 104960, Note_off_c, 2, 69, 64
4, 105120, Note_on_c, 2, 69, 92
4, 105200, Note_off_c, 2, 69, 64
4, 105360, Note_on_c, 2, 69, 90
4, 105760, Note_off_c, 2, 69, 64
4, 105840, Note_on_c, 2, 69, 85
4, 106240, Note_off_c, 2, 69, 64
4, 106320, Note_on_c, 2, 69, 80
4, 106400, Note_off_c, 2, 69, 64
4, 106560, Note_on_c, 2, 69, 78
4, 106640, Note_off_c, 2, 69, 64
4, 106800, Note_on_c, 2, 69, 75
4, 107200, Note_off_c, 2, 69, 64
4, 107280, Note_on_c, 2, 69, 69
4, 107680, Note_off_c, 2, 69, 64
4, 107760, Note_on_c, 2, 69, 63
4, 107840, Note_off_c, 2, 69, 64
4, 108000, Note_on_c, 2, 69, 60
4, 108080, Note_off_c, 2, 69, 64
4, 108240, Note_on_c, 2, 69, 60
4, 108640, Note_off_c, 2, 69, 64
4, 108720, Note_on_c, 2, 69, 60
4, 109120, Note_off_c, 2, 69, 64
4, 109200, Note_on_c, 2, 69, 60
4, 109280, Note_off_c, 2, 69, 64
4, 109440, Note_on_c, 2, 69, 60
4, 109520, Note_off_c, 2, 69, 64
4, 109680, Note_on_c, 2, 69, 60
4, 110080, Note_off_c, 2, 69, 64
4, 110160, Note_on_c, 2, 69, 60
4, 110560, Note_off_c, 2, 69, 64
4, 110640, Note_on_c, 2, 69, 60
4, 110720, Note_off_c, 2, 69, 64
4, 110880, Note_on_c, 2, 68, 45
4, 110960, Note_off_c, 2, 68, 64
4, 111120, Note_on_c, 2, 68, 45
4, 111520, Note_off_c, 2, 68, 64
4, 111600, Note_on_c, 2, 68, 45
4, 112000, Note_off_c, 2, 68, 64
4, 112080, Note_on_c, 2, 68, 45
4, 112160, Note_off_c, 2, 68, 64
4, 112320, Note_on_c, 2, 69, 60
4, 112555, Note_off_c, 2, 69, 64
4, 112560, Note_on_c, 2, 81, 60
4, 112680, Note_off_c, 2, 81, 64
4, 112680, Note_on_c, 2, 80, 60
4, 112800, Note_off_c, 2, 80, 64
4, 112800, Note_on_c, 2, 81, 60
4, 112880, Note_off_c, 2, 81, 64
4, 113040, Note_on_c, 2, 76, 60
4, 113120, Note_off_c, 2, 76, 64
4, 113280, Note_on_c, 2, 73, 60
4, 113360, Note_off_c, 2, 73, 64
4, 113520, Note_on_c, 2, 76, 60
4, 113600, Note_off_c, 2, 76, 64
4, 113760, Note_on_c, 2, 69, 60
4, 113840, Note_off_c, 2, 69, 64
4, 114000, Note_on_c, 2, 69, 92
4, 114120, Note_off_c, 2, 69, 64
4, 114120, Note_on_c, 2, 68, 92
4, 114240, Note_off_c, 2, 68, 64
4, 114240, Note_on_c, 2, 69, 92
4, 114320, Note_off_c, 2, 69, 64
4, 114480, Note_on_c, 2, 64, 92
4, 114560, Note_off_c, 2, 64, 64
4, 114720, Note_on_c, 2, 61, 92
4, 114800, Note_off_c, 2, 61, 64
4, 114960, Note_on_c, 2, 64, 92
4, 115040, Note_off_c, 2, 64, 64
4, 115200, Note_on_c, 2, 57, 92
4, 115280, Note_off_c, 2, 57, 64
4, 118320, Note_on_c, 2, 83, 60
4, 118440, Note_off_c, 2, 83, 64
4, 118440, Note_on_c, 2, 83, 60
4, 118560, Note_off_c, 2, 83, 64
4, 118560, Note_on_c, 2, 83, 60
4, 118640, Note_off_c, 2, 83, 64
4, 118800, Note_on_c, 2, 78, 60
4, 118880, Note_off_c, 2, 78, 64
4, 119040, Note_on_c, 2, 74, 60
4, 119120, Note_off_c, 2, 74, 64
4, 119280, Note_on_c, 2, 78, 60
4, 119360, Note_off_c, 2, 78, 64
4, 119520, Note_on_c, 2, 71, 60
4, 119600, Note_off_c, 2, 71, 64
4, 119760, Note_on_c, 2, 71, 75
4, 119880, Note_off_c, 2, 71, 64
4, 119880, Note_on_c, 2, 71, 75
4, 120000, Note_off_c, 2, 71, 64
4, 120000, Note_on_c, 2, 71, 75
4, 120080, Note_off_c, 2, 71, 64
4, 120240, Note_on_c, 2, 66, 75
4, 120320, Note_off_c, 2, 66, 64
4, 120480, Note_on_c, 2, 62, 75
4, 120560, Note_off_c, 2, 62, 64
4, 120720, Note_on_c, 2, 66, 75
4, 120800, Note_off_c, 2, 66, 64
4, 120960, Note_on_c, 2, 59, 75
4, 121040, Note_off_c, 2, 59, 64
4, 123360, Note_on_c, 2, 68, 92
4, 123840, Note_off_c, 2, 68, 64
4, 123840, Note_on_c, 2, 68, 92
4, 125280, Note_off_c, 2, 68, 64
4, 125280, Note_on_c, 2, 69, 92
4, 126720, Note_off_c, 2, 69, 64
4, 126720, Note_on_c, 2, 71, 92
4, 128040, Note_off_c, 2, 71, 64
4, 128160, Note_on_c, 2, 68, 45
4, 128240, Note_off_c, 2, 68, 64
4, 128400, Note_on_c, 2, 68, 45
4, 128800, Note_off_c, 2, 68, 64
4, 128880, Note_on_c, 2, 68, 45
4, 129280, Note_off_c, 2, 68, 64
4, 129360, Note_on_c, 2, 68, 45
4, 129440, Note_off_c, 2, 68, 64
4, 129600, Note_on_c, 2, 68, 45
4, 129680, Note_off_c, 2, 68, 64
4, 129840, Note_on_c, 2, 68, 47
4, 130240, Note_off_c, 2, 68, 64
4, 130320, Note_on_c, 2, 68, 52
4, 130720, Note_off_c, 2, 68, 64
4, 130800, Note_on_c, 2, 68, 57
4, 130880, Note_off_c, 2, 68, 64
4, 131040, Note_on_c, 2, 68, 59
4, 131120, Note_off_c, 2, 68, 64
4, 131280, Note_on_c, 2, 68, 61
4, 131680, Note_off_c, 2, 68, 64
4, 131760, Note_on_c, 2, 68, 66
4, 132160, Note_off_c, 2, 68, 64
4, 132240, Note_on_c, 2, 68, 72
4, 132320, Note_off_c, 2, 68, 64
4, 132480, Note_on_c, 2, 68, 75
4, 132560, Note_off_c, 2, 68, 64
4, 132720, Note_on_c, 2, 68, 75
4, 133120, Note_off_c, 2, 68, 64
4, 133200, Note_on_c, 2, 68, 75
4, 133600, Note_off_c, 2, 68, 64
4, 133680, Note_on_c, 2, 68, 75
4, 133760, Note_off_c, 2, 68, 64
4, 133920, Note_on_c, 2, 69, 75
4, 134000, Note_off_c, 2, 69, 64
4, 134160, Note_on_c, 2, 69, 75
4, 134560, Note_off_c, 2, 69, 64
4, 134640, Note_on_c, 2, 69, 75
4, 135040, Note_off_c, 2, 69, 64
4, 135120, Note_on_c, 2, 69, 75
4, 135355, Note_off_c, 2, 69, 64
4, 135360, Note_on_c, 2, 71, 60
4, 135760, Note_off_c, 2, 71, 64
4, 135840, Note_on_c, 2, 71, 60
4, 136240, Note_off_c, 2, 71, 64
4, 136320, Note_on_c, 2, 70, 60
4, 136720, Note_off_c, 2, 70, 64
4, 136800, Note_on_c, 2, 71, 60
4, 137200, Note_off_c, 2, 71, 64
4, 137280, Note_on_c, 2, 71, 60
4, 137680, Note_off_c, 2, 71, 64
4, 137760, Note_on_c, 2, 69, 60
4, 138160, Note_off_c, 2, 69, 64
4, 138240, Note_on_c, 2, 68, 60
4, 138960, Note_off_c, 2, 68, 64
4, 138960, Note_on_c, 2, 69, 60
4, 139200, Note_off_c, 2, 69, 64
4, 139200, Note_on_c, 2, 68, 60
4, 139440, Note_off_c, 2, 68, 64
4, 139440, Note_on_c, 2, 66, 60
4, 139680, Note_off_c, 2, 66, 64
4, 139680, Note_on_c, 2, 68, 45
4, 141000, Note_off_c, 2, 68, 64
4, 141120, Note_on_c, 2, 69, 45
4, 141200, Note_off_c, 2, 69, 64
4, 141360, Note_on_c, 2, 69, 45
4, 141760, Note_off_c, 2, 69, 64
4, 141840, Note_on_c, 2, 69, 45
4, 142240, Note_off_c, 2, 69, 64
4, 142320, Note_on_c, 2, 69, 45
4, 142400, Note_off_c, 2, 69, 64
4, 142560, Note_on_c, 2, 68, 45
4, 142640, Note_off_c, 2, 68, 64
4, 142800, Note_on_c, 2, 68, 48
4, 143200, Note_off_c, 2, 68, 64
4, 143280, Note_on_c, 2, 68, 56
4, 143680, Note_off_c, 2, 68, 64
4, 143760, Note_on_c, 2, 68, 64
4, 143840, Note_off_c, 2, 68, 64
4, 144000, Note_on_c, 2, 69, 68
4, 144080, Note_off_c, 2, 69, 64
4, 144240, Note_on_c, 2, 69, 72
4, 144640, Note_off_c, 2, 69, 64
4, 144720, Note_on_c, 2, 69, 80
4, 145120, Note_off_c, 2, 69, 64
4, 145200, Note_on_c, 2, 69, 88
4, 145280, Note_off_c, 2, 69, 64
4, 145440, Note_on_c, 2, 68, 92
4, 150160, Note_off_c, 2, 68, 64
4, 150240, Note_on_c, 2, 73, 108
4, 150480, Note_off_c, 2, 73, 64
4, 150480, Note_on_c, 2, 75, 108
4, 150720, Note_off_c, 2, 75, 64
4, 150720, Note_on_c, 2, 77, 108
4, 151200, Note_off_c, 2, 77, 64
4, 151200, Note_on_c, 2, 73, 108
4, 151600, Note_off_c, 2, 73, 64
4, 151680, Note_on_c, 2, 69, 108
4, 151920, Note_off_c, 2, 69, 64
4, 151920, Note_on_c, 2, 71, 108
4, 152160, Note_off_c, 2, 71, 64
4, 152160, Note_on_c, 2, 73, 108
4, 152560, Note_off_c, 2, 73, 64
4, 152640, Note_on_c, 2, 74, 60
4, 153040, Note_off_c, 2, 74, 64
4, 153120, Note_on_c, 2, 77, 60
4, 153520, Note_off_c, 2, 77, 64
4, 153600, Note_on_c, 2, 78, 60
4, 154000, Note_off_c, 2, 78, 64
4, 154080, Note_on_c, 2, 78, 60
4, 154480, Note_off_c, 2, 78, 64
4, 154560, Note_on_c, 2, 78, 60
4, 154960, Note_off_c, 2, 78, 64
4, 155040, Note_on_c, 2, 77, 60
4, 155440, Note_off_c, 2, 77, 64
4, 155520, Note_on_c, 2, 78, 45
4, 155760, Note_off_c, 2, 78, 64
4, 155760, Note_on_c, 2, 80, 45
4, 156000, Note_off_c, 2, 80, 64
4, 156000, Note_on_c, 2, 81, 45
4, 156240, Note_off_c, 2, 81, 64
4, 156240, Note_on_c, 2, 80, 45
4, 156480, Note_off_c, 2, 80, 64
4, 156480, Note_on_c, 2, 78, 45
4, 156720, Note_off_c, 2, 78, 64
4, 156720, Note_on_c, 2, 76, 45
4, 156960, Note_off_c, 2, 76, 64
4, 156960, Note_on_c, 2, 75, 45
4, 157200, Note_off_c, 2, 75, 64
4, 157200, Note_on_c, 2, 76, 45
4, 157440, Note_off_c, 2, 76, 64
4, 157440, Note_on_c, 2, 78, 45
4, 157680, Note_off_c, 2, 78, 64
4, 157680, Note_on_c, 2, 80, 45
4, 157920, Note_off_c, 2, 80, 64
4, 157920, Note_on_c, 2, 81, 45
4, 158160, Note_off_c, 2, 81, 64
4, 158160, Note_on_c, 2, 78, 45
4, 158400, Note_off_c, 2, 78, 64
4, 158400, Note_on_c, 2, 80, 45
4, 158880, Note_off_c, 2, 80, 64
4, 158880, Note_on_c, 2, 76, 45
4, 159120, Note_off_c, 2, 76, 64
4, 159120, Note_on_c, 2, 75, 45
4, 159360, Note_off_c, 2, 75, 64
4, 159360, Note_on_c, 2, 73, 45
4, 159600, Note_off_c, 2, 73, 64
4, 159600, Note_on_c, 2, 71, 45
4, 159840, Note_off_c, 2, 71, 64
4, 159840, Note_on_c, 2, 70, 45
4, 160080, Note_off_c, 2, 70, 64
4, 160080, Note_on_c, 2, 71, 45
4, 160320, Note_off_c, 2, 71, 64
4, 160320, Note_on_c, 2, 73, 45
4, 160560, Note_off_c, 2, 73, 64
4, 160560, Note_on_c, 2, 75, 45
4, 160800, Note_off_c, 2, 75, 64
4, 160800, Note_on_c, 2, 76, 45
4, 161040, Note_off_c, 2, 76, 64
4, 161040, Note_on_c, 2, 73, 45
4, 161280, Note_off_c, 2, 73, 64
4, 161280, Note_on_c, 2, 75, 45
4, 162600, Note_off_c, 2, 75, 64
4, 162720, Note_on_c, 2, 80, 45
4, 162960, Note_off_c, 2, 80, 64
4, 162960, Note_on_c, 2, 78, 45
4, 163200, Note_off_c, 2, 78, 64
4, 163200, Note_on_c, 2, 76, 45
4, 163440, Note_off_c, 2, 76, 64
4, 163440, Note_on_c, 2, 74, 45
4, 163680, Note_off_c, 2, 74, 64
4, 163680, Note_on_c, 2, 73, 45
4, 163920, Note_off_c, 2, 73, 64
4, 163920, Note_on_c, 2, 71, 45
4, 164160, Note_off_c, 2, 71, 64
4, 164160, Note_on_c, 2, 73, 45
4, 165480, Note_off_c, 2, 73, 64
4, 165600, Note_on_c, 2, 78, 45
4, 165840, Note_off_c, 2, 78, 64
4, 165840, Note_on_c, 2, 76, 45
4, 166080, Note_off_c, 2, 76, 64
4, 166080, Note_on_c, 2, 75, 45
4, 166320, Note_off_c, 2, 75, 64
4, 166320, Note_on_c, 2, 73, 45
4, 166560, Note_off_c, 2, 73, 64
4, 166560, Note_on_c, 2, 71, 45
4, 166800, Note_off_c, 2, 71, 64
4, 166800, Note_on_c, 2, 69, 45
4, 167040, Note_off_c, 2, 69, 64
4, 167040, Note_on_c, 2, 71, 45
4, 168360, Note_off_c, 2, 71, 64
4, 168480, Note_on_c, 2, 76, 60
4, 168720, Note_off_c, 2, 76, 64
4, 168720, Note_on_c, 2, 74, 45
4, 168960, Note_off_c, 2, 74, 64
4, 168960, Note_on_c, 2, 73, 45
4, 169200, Note_off_c, 2, 73, 64
4, 169200, Note_on_c, 2, 71, 45
4, 169440, Note_off_c, 2, 71, 64
4, 169440, Note_on_c, 2, 69, 45
4, 169680, Note_off_c, 2, 69, 64
4, 169680, Note_on_c, 2, 68, 45
4, 169920, Note_off_c, 2, 68, 64
4, 169920, Note_on_c, 2, 69, 45
4, 170320, Note_off_c, 2, 69, 64
4, 170400, Note_on_c, 2, 73, 46
4, 170800, Note_off_c, 2, 73, 64
4, 170880, Note_on_c, 2, 76, 47
4, 171280, Note_off_c, 2, 76, 64
4, 171360, Note_on_c, 2, 78, 48
4, 171760, Note_off_c, 2, 78, 64
4, 171840, Note_on_c, 2, 75, 49
4, 172240, Note_off_c, 2, 75, 64
4, 172320, Note_on_c, 2, 71, 50
4, 172720, Note_off_c, 2, 71, 64
4, 172800, Note_on_c, 2, 76, 51
4, 173200, Note_off_c, 2, 76, 64
4, 173280, Note_on_c, 2, 71, 52
4, 173680, Note_off_c, 2, 71, 64
4, 173760, Note_on_c, 2, 68, 53
4, 174160, Note_off_c, 2, 68, 64
4, 174240, Note_on_c, 2, 78, 54
4, 174640, Note_off_c, 2, 78, 64
4, 174720, Note_on_c, 2, 73, 56
4, 175120, Note_off_c, 2, 73, 64
4, 175200, Note_on_c, 2, 70, 58
4, 175600, Note_off_c, 2, 70, 64
4, 175680, Note_on_c, 2, 71, 60
4, 176080, Note_off_c, 2, 71, 64
4, 176160, Note_on_c, 2, 75, 60
4, 176560, Note_off_c, 2, 75, 64
4, 176640, Note_on_c, 2, 78, 60
4, 177040, Note_off_c, 2, 78, 64
4, 177120, Note_on_c, 2, 81, 60
4, 177520, Note_off_c, 2, 81, 64
4, 177600, Note_on_c, 2, 78, 60
4, 178000, Note_off_c, 2, 78, 64
4, 178080, Note_on_c, 2, 75, 60
4, 178480, Note_off_c, 2, 75, 64
4, 178560, Note_on_c, 2, 71, 60
4, 178960, Note_off_c, 2, 71, 64
4, 179040, Note_on_c, 2, 75, 60
4, 179440, Note_off_c, 2, 75, 64
4, 179520, Note_on_c, 2, 78, 60
4, 179920, Note_off_c, 2, 78, 64
4, 180000, Note_on_c, 2, 69, 60
4, 180400, Note_off_c, 2, 69, 64
4, 180480, Note_on_c, 2, 73, 60
4, 180880, Note_off_c, 2, 73, 64
4, 180960, Note_on_c, 2, 76, 60
4, 181360, Note_off_c, 2, 76, 64
4, 181440, Note_on_c, 2, 71, 60
4, 181840, Note_off_c, 2, 71, 64
4, 181920, Note_on_c, 2, 75, 60
4, 182320, Note_off_c, 2, 75, 64
4, 182400, Note_on_c, 2, 80, 60
4, 182800, Note_off_c, 2, 80, 64
4, 182880, Note_on_c, 2, 71, 60
4, 183280, Note_off_c, 2, 71, 64
4, 183360, Note_on_c, 2, 75, 69
4, 183760, Note_off_c, 2, 75, 64
4, 183840, Note_on_c, 2, 78, 78
4, 184240, Note_off_c, 2, 78, 64
4, 184320, Note_on_c, 2, 71, 88
4, 184720, Note_off_c, 2, 71, 64
4, 184800, Note_on_c, 2, 76, 98
4, 185040, Note_off_c, 2, 76, 64
4, 185040, Note_on_c, 2, 78, 103
4, 185280, Note_off_c, 2, 78, 64
4, 185280, Note_on_c, 2, 81, 108
4, 185680, Note_off_c, 2, 81, 64
4, 185760, Note_on_c, 2, 76, 105
4, 186160, Note_off_c, 2, 76, 64
4, 186240, Note_on_c, 2, 74, 105
4, 186320, Note_off_c, 2, 74, 64
4, 186480, Note_on_c, 2, 73, 105
4, 186560, Note_off_c, 2, 73, 64
4, 186720, Note_on_c, 2, 74, 105
4, 186800, Note_off_c, 2, 74, 64
4, 186960, Note_on_c, 2, 71, 105
4, 187040, Note_off_c, 2, 71, 64
4, 187200, Note_on_c, 2, 73, 105
4, 187600, Note_off_c, 2, 73, 64
4, 187680, Note_on_c, 2, 73, 105
4, 187760, Note_off_c, 2, 73, 64
4, 187920, Note_on_c, 2, 71, 105
4, 188000, Note_off_c, 2, 71, 64
4, 188160, Note_on_c, 2, 73, 105
4, 188240, Note_off_c, 2, 73, 64
4, 188400, Note_on_c, 2, 69, 105
4, 188480, Note_off_c, 2, 69, 64
4, 188640, Note_on_c, 2, 71, 105
4, 189040, Note_off_c, 2, 71, 64
4, 189120, Note_on_c, 2, 71, 105
4, 189200, Note_off_c, 2, 71, 64
4, 189360, Note_on_c, 2, 69, 105
4, 189440, Note_off_c, 2, 69, 64
4, 189600, Note_on_c, 2, 71, 105
4, 189680, Note_off_c, 2, 71, 64
4, 189840, Note_on_c, 2, 68, 105
4, 189920, Note_off_c, 2, 68, 64
4, 190080, Note_on_c, 2, 69, 105
4, 190480, Note_off_c, 2, 69, 64
4, 190560, Note_on_c, 2, 75, 112
4, 190640, Note_off_c, 2, 75, 64
4, 190800, Note_on_c, 2, 76, 116
4, 190880, Note_off_c, 2, 76, 64
4, 191040, Note_on_c, 2, 78, 120
4, 191120, Note_off_c, 2, 78, 64
4, 191280, Note_on_c, 2, 80, 124
4, 191360, Note_off_c, 2, 80, 64
4, 191520, Note_on_c, 2, 81, 127
4, 192160, Note_off_c, 2, 81, 64
4, 192240, Note_on_c, 2, 83, 127
4, 192475, Note_off_c, 2, 83, 64
4, 192480, Note_on_c, 2, 80, 127
4, 192880, Note_off_c, 2, 80, 64
4, 192960, Note_on_c, 2, 81, 92
4, 193195, Note_off_c, 2, 81, 64
4, 193200, Note_on_c, 2, 78, 92
4, 193435, Note_off_c, 2, 78, 64
4, 193440, Note_on_c, 2, 78, 92
4, 194080, Note_off_c, 2, 78, 64
4, 194160, Note_on_c, 2, 76, 92
4, 194395, Note_off_c, 2, 76, 64
4, 194400, Note_on_c, 2, 76, 92
4, 194800, Note_off_c, 2, 76, 64
4, 194880, Note_on_c, 2, 80, 94
4, 195115, Note_off_c, 2, 80, 64
4, 195120, Note_on_c, 2, 81, 95
4, 195355, Note_off_c, 2, 81, 64
4, 195360, Note_on_c, 2, 80, 96
4, 195595, Note_off_c, 2, 80, 64
4, 195600, Note_on_c, 2, 78, 97
4, 195835, Note_off_c, 2, 78, 64
4, 195840, Note_on_c, 2, 76, 98
4, 196240, Note_off_c, 2, 76, 64
4, 196320, Note_on_c, 2, 80, 101
4, 196555, Note_off_c, 2, 80, 64
4, 196560, Note_on_c, 2, 78, 102
4, 196795, Note_off_c, 2, 78, 64
4, 196800, Note_on_c, 2, 76, 104
4, 197035, Note_off_c, 2, 76, 64
4, 197040, Note_on_c, 2, 75, 106
4, 197275, Note_off_c, 2, 75, 64
4, 197280, Note_on_c, 2, 76, 108
4, 199195, Note_off_c, 2, 76, 64
4, 199195, End_track
5, 0, Start_track
5, 0, MIDI_port, 0
5, 0, Channel_prefix, 2
5, 0, Control_c, 2, 7, 99
5, 0, Control_c, 2, 10, 50
5, 0, Control_c, 2, 91, 45
5, 0, Program_c, 2, 71
5, 0, Note_on_c, 2, 64, 92
5, 400, Note_off_c, 2, 64, 64
5, 1440, Note_on_c, 2, 64, 92
5, 1840, Note_off_c, 2, 64, 64
5, 2880, Note_on_c, 2, 64, 92
5, 3595, Note_off_c, 2, 64, 64
5, 3600, Note_on_c, 2, 66, 92
5, 3840, Note_off_c, 2, 66, 64
5, 3840, Note_on_c, 2, 64, 92
5, 4080, Note_off_c, 2, 64, 64
5, 4080, Note_on_c, 2, 63, 92
5, 4320, Note_off_c, 2, 63, 64
5, 4320, Note_on_c, 2, 64, 92
5, 5280, Note_off_c, 2, 64, 64
5, 5280, Note_on_c, 2, 63, 92
5, 5680, Note_off_c, 2, 63, 64
5, 5760, Note_on_c, 2, 64, 60
5, 6475, Note_off_c, 2, 64, 64
5, 6480, Note_on_c, 2, 66, 60
5, 6720, Note_off_c, 2, 66, 64
5, 6720, Note_on_c, 2, 64, 60
5, 6960, Note_off_c, 2, 64, 64
5, 6960, Note_on_c, 2, 63, 60
5, 7200, Note_off_c, 2, 63, 64
5, 7200, Note_on_c, 2, 64, 60
5, 8160, Note_off_c, 2, 64, 64
5, 8160, Note_on_c, 2, 63, 60
5, 8560, Note_off_c, 2, 63, 64
5, 8640, Note_on_c, 2, 68, 45
5, 9600, Note_off_c, 2, 68, 64
5, 9600, Note_on_c, 2, 69, 60
5, 10080, Note_off_c, 2, 69, 64
5, 10080, Note_on_c, 2, 68, 68
5, 11040, Note_off_c, 2, 68, 64
5, 11040, Note_on_c, 2, 66, 84
5, 11440, Note_off_c, 2, 66, 64
5, 11520, Note_on_c, 2, 64, 92
5, 12235, Note_off_c, 2, 64, 64
5, 12240, Note_on_c, 2, 66, 92
5, 12480, Note_off_c, 2, 66, 64
5, 12480, Note_on_c, 2, 64, 92
5, 12720, Note_off_c, 2, 64, 64
5, 12720, Note_on_c, 2, 63, 92
5, 12960, Note_off_c, 2, 63, 64
5, 12960, Note_on_c, 2, 64, 92
5, 13920, Note_off_c, 2, 64, 64
5, 13920, Note_on_c, 2, 63, 92
5, 14320, Note_off_c, 2, 63, 64
5, 14400, Note_on_c, 2, 64, 45
5, 15115, Note_off_c, 2, 64, 64
5, 15120, Note_on_c, 2, 66, 45
5, 15360, Note_off_c, 2, 66, 64
5, 15360, Note_on_c, 2, 64, 45
5, 15600, Note_off_c, 2, 64, 64
5, 15600, Note_on_c, 2, 63, 45
5, 15840, Note_off_c, 2, 63, 64
5, 15840, Note_on_c, 2, 64, 45
5, 16800, Note_off_c, 2, 64, 64
5, 16800, Note_on_c, 2, 63, 65
5, 17200, Note_off_c, 2, 63, 64
5, 17280, Note_on_c, 2, 64, 75
5, 17360, Note_off_c, 2, 64, 64
5, 17520, Note_on_c, 2, 64, 75
5, 17920, Note_off_c, 2, 64, 64
5, 18000, Note_on_c, 2, 64, 75
5, 18400, Note_off_c, 2, 64, 64
5, 18480, Note_on_c, 2, 64, 75
5, 18955, Note_off_c, 2, 64, 64
5, 18960, Note_on_c, 2, 64, 92
5, 19200, Note_off_c, 2, 64, 64
5, 19200, Note_on_c, 2, 63, 92
5, 19440, Note_off_c, 2, 63, 64
5, 19440, Note_on_c, 2, 64, 92
5, 19680, Note_off_c, 2, 64, 64
5, 19680, Note_on_c, 2, 61, 92
5, 19920, Note_off_c, 2, 61, 64
5, 19920, Note_on_c, 2, 63, 92
5, 20155, Note_off_c, 2, 63, 64
5, 20160, Note_on_c, 2, 64, 45
5, 20240, Note_off_c, 2, 64, 64
5, 20400, Note_on_c, 2, 64, 45
5, 20800, Note_off_c, 2, 64, 64
5, 20880, Note_on_c, 2, 64, 45
5, 21280, Note_off_c, 2, 64, 64
5, 21360, Note_on_c, 2, 64, 45
5, 21835, Note_off_c, 2, 64, 64
5, 21840, Note_on_c, 2, 64, 75
5, 22080, Note_off_c, 2, 64, 64
5, 22080, Note_on_c, 2, 63, 75
5, 22320, Note_off_c, 2, 63, 64
5, 22320, Note_on_c, 2, 64, 75
5, 22560, Note_off_c, 2, 64, 64
5, 22560, Note_on_c, 2, 61, 75
5, 22800, Note_off_c, 2, 61, 64
5, 22800, Note_on_c, 2, 63, 75
5, 23035, Note_off_c, 2, 63, 64
5, 23040, Note_on_c, 2, 64, 60
5, 23120, Note_off_c, 2, 64, 64
5, 23280, Note_on_c, 2, 64, 60
5, 23680, Note_off_c, 2, 64, 64
5, 23760, Note_on_c, 2, 64, 60
5, 24160, Note_off_c, 2, 64, 64
5, 24240, Note_on_c, 2, 64, 60
5, 24320, Note_off_c, 2, 64, 64
5, 24480, Note_on_c, 2, 64, 60
5, 24560, Note_off_c, 2, 64, 64
5, 24720, Note_on_c, 2, 64, 60
5, 25120, Note_off_c, 2, 64, 64
5, 25200, Note_on_c, 2, 64, 60
5, 25600, Note_off_c, 2, 64, 64
5, 25680, Note_on_c, 2, 64, 60
5, 25760, Note_off_c, 2, 64, 64
5, 25920, Note_on_c, 2, 64, 60
5, 26000, Note_off_c, 2, 64, 64
5, 26160, Note_on_c, 2, 64, 60
5, 26560, Note_off_c, 2, 64, 64
5, 26640, Note_on_c, 2, 64, 60
5, 27040, Note_off_c, 2, 64, 64
5, 27120, Note_on_c, 2, 64, 60
5, 27200, Note_off_c, 2, 64, 64
5, 27360, Note_on_c, 2, 64, 60
5, 27440, Note_off_c, 2, 64, 64
5, 27600, Note_on_c, 2, 64, 62
5, 28000, Note_off_c, 2, 64, 64
5, 28080, Note_on_c, 2, 64, 67
5, 28480, Note_off_c, 2, 64, 64
5, 28560, Note_on_c, 2, 64, 72
5, 28640, Note_off_c, 2, 64, 64
5, 28800, Note_on_c, 2, 64, 75
5, 28880, Note_off_c, 2, 64, 64
5, 29040, Note_on_c, 2, 64, 75
5, 29440, Note_off_c, 2, 64, 64
5, 29520, Note_on_c, 2, 64, 75
5, 29920, Note_off_c, 2, 64, 64
5, 30000, Note_on_c, 2, 64, 75
5, 30080, Note_off_c, 2, 64, 64
5, 30240, Note_on_c, 2, 64, 75
5, 30320, Note_off_c, 2, 64, 64
5, 30480, Note_on_c, 2, 64, 70
5, 30880, Note_off_c, 2, 64, 64
5, 30960, Note_on_c, 2, 64, 60
5, 31360, Note_off_c, 2, 64, 64
5, 31440, Note_on_c, 2, 64, 50
5, 31520, Note_off_c, 2, 64, 64
5, 31680, Note_on_c, 2, 64, 45
5, 31760, Note_off_c, 2, 64, 64
5, 31920, Note_on_c, 2, 64, 45
5, 32320, Note_off_c, 2, 64, 64
5, 32400, Note_on_c, 2, 64, 45
5, 32800, Note_off_c, 2, 64, 64
5, 32880, Note_on_c, 2, 64, 45
5, 32960, Note_off_c, 2, 64, 64
5, 33120, Note_on_c, 2, 66, 45
5, 33200, Note_off_c, 2, 66, 64
5, 33360, Note_on_c, 2, 66, 45
5, 33760, Note_off_c, 2, 66, 64
5, 33840, Note_on_c, 2, 66, 45
5, 34240, Note_off_c, 2, 66, 64
5, 34320, Note_on_c, 2, 66, 45
5, 34400, Note_off_c, 2, 66, 64
5, 34560, Note_on_c, 2, 64, 45
5, 34640, Note_off_c, 2, 64, 64
5, 34800, Note_on_c, 2, 64, 45
5, 35200, Note_off_c, 2, 64, 64
5, 35280, Note_on_c, 2, 64, 45
5, 35680, Note_off_c, 2, 64, 64
5, 35760, Note_on_c, 2, 64, 45
5, 35840, Note_off_c, 2, 64, 64
5, 36000, Note_on_c, 2, 64, 45
5, 36080, Note_off_c, 2, 64, 64
5, 36240, Note_on_c, 2, 64, 45
5, 36640, Note_off_c, 2, 64, 64
5, 36720, Note_on_c, 2, 64, 45
5, 37120, Note_off_c, 2, 64, 64
5, 37200, Note_on_c, 2, 64, 45
5, 37280, Note_off_c, 2, 64, 64
5, 37440, Note_on_c, 2, 64, 45
5, 37520, Note_off_c, 2, 64, 64
5, 37680, Note_on_c, 2, 64, 45
5, 38080, Note_off_c, 2, 64, 64
5, 38160, Note_on_c, 2, 64, 45
5, 38560, Note_off_c, 2, 64, 64
5, 38640, Note_on_c, 2, 64, 45
5, 38720, Note_off_c, 2, 64, 64
5, 38880, Note_on_c, 2, 66, 45
5, 38960, Note_off_c, 2, 66, 64
5, 39120, Note_on_c, 2, 66, 45
5, 39520, Note_off_c, 2, 66, 64
5, 39600, Note_on_c, 2, 66, 45
5, 40000, Note_off_c, 2, 66, 64
5, 40080, Note_on_c, 2, 66, 45
5, 40160, Note_off_c, 2, 66, 64
5, 40320, Note_on_c, 2, 64, 75
5, 40555, Note_off_c, 2, 64, 64
5, 42000, Note_on_c, 2, 64, 92
5, 42120, Note_off_c, 2, 64, 64
5, 42120, Note_on_c, 2, 63, 92
5, 42240, Note_off_c, 2, 63, 64
5, 42240, Note_on_c, 2, 64, 92
5, 42320, Note_off_c, 2, 64, 64
5, 42480, Note_on_c, 2, 59, 92
5, 42560, Note_off_c, 2, 59, 64
5, 42720, Note_on_c, 2, 56, 92
5, 42800, Note_off_c, 2, 56, 64
5, 42960, Note_on_c, 2, 59, 92
5, 43040, Note_off_c, 2, 59, 64
5, 43200, Note_on_c, 2, 52, 92
5, 43280, Note_off_c, 2, 52, 64
5, 43440, Note_on_c, 2, 64, 92
5, 43560, Note_off_c, 2, 64, 64
5, 43560, Note_on_c, 2, 63, 92
5, 43680, Note_off_c, 2, 63, 64
5, 43680, Note_on_c, 2, 64, 92
5, 43760, Note_off_c, 2, 64, 64
5, 43920, Note_on_c, 2, 59, 92
5, 44000, Note_off_c, 2, 59, 64
5, 44160, Note_on_c, 2, 56, 92
5, 44240, Note_off_c, 2, 56, 64
5, 44400, Note_on_c, 2, 59, 92
5, 44480, Note_off_c, 2, 59, 64
5, 44640, Note_on_c, 2, 52, 92
5, 44720, Note_off_c, 2, 52, 64
5, 47760, Note_on_c, 2, 61, 75
5, 47880, Note_off_c, 2, 61, 64
5, 47880, Note_on_c, 2, 60, 75
5, 48000, Note_off_c, 2, 60, 64
5, 48000, Note_on_c, 2, 61, 75
5, 48080, Note_off_c, 2, 61, 64
5, 48240, Note_on_c, 2, 56, 75
5, 48320, Note_off_c, 2, 56, 64
5, 48480, Note_on_c, 2, 53, 75
5, 48560, Note_off_c, 2, 53, 64
5, 48720, Note_on_c, 2, 56, 77
5, 48800, Note_off_c, 2, 56, 64
5, 48960, Note_on_c, 2, 49, 79
5, 49040, Note_off_c, 2, 49, 64
5, 49200, Note_on_c, 2, 61, 81
5, 49320, Note_off_c, 2, 61, 64
5, 49320, Note_on_c, 2, 60, 82
5, 49440, Note_off_c, 2, 60, 64
5, 49440, Note_on_c, 2, 61, 83
5, 49520, Note_off_c, 2, 61, 64
5, 49680, Note_on_c, 2, 56, 85
5, 49760, Note_off_c, 2, 56, 64
5, 49920, Note_on_c, 2, 53, 87
5, 50000, Note_off_c, 2, 53, 64
5, 50160, Note_on_c, 2, 56, 89
5, 50240, Note_off_c, 2, 56, 64
5, 50400, Note_on_c, 2, 49, 92
5, 50480, Note_off_c, 2, 49, 64
5, 54960, Note_on_c, 2, 68, 108
5, 55080, Note_off_c, 2, 68, 64
5, 55080, Note_on_c, 2, 67, 108
5, 55200, Note_off_c, 2, 67, 64
5, 55200, Note_on_c, 2, 68, 108
5, 55280, Note_off_c, 2, 68, 64
5, 55440, Note_on_c, 2, 63, 108
5, 55520, Note_off_c, 2, 63, 64
5, 55680, Note_on_c, 2, 60, 108
5, 55760, Note_off_c, 2, 60, 64
5, 55920, Note_on_c, 2, 63, 108
5, 56000, Note_off_c, 2, 63, 64
5, 56160, Note_on_c, 2, 56, 108
5, 56240, Note_off_c, 2, 56, 64
5, 57840, Note_on_c, 2, 68, 108
5, 57960, Note_off_c, 2, 68, 64
5, 57960, Note_on_c, 2, 67, 108
5, 58080, Note_off_c, 2, 67, 64
5, 58080, Note_on_c, 2, 68, 108
5, 58160, Note_off_c, 2, 68, 64
5, 58320, Note_on_c, 2, 63, 108
5, 58400, Note_off_c, 2, 63, 64
5, 58560, Note_on_c, 2, 60, 108
5, 58640, Note_off_c, 2, 60, 64
5, 58800, Note_on_c, 2, 63, 108
5, 58880, Note_off_c, 2, 63, 64
5, 59040, Note_on_c, 2, 56, 108
5, 59120, Note_off_c, 2, 56, 64
5, 60720, Note_on_c, 2, 68, 92
5, 60840, Note_off_c, 2, 68, 64
5, 60840, Note_on_c, 2, 67, 92
5, 60960, Note_off_c, 2, 67, 64
5, 60960, Note_on_c, 2, 68, 92
5, 61040, Note_off_c, 2, 68, 64
5, 61200, Note_on_c, 2, 63, 92
5, 61280, Note_off_c, 2, 63, 64
5, 61440, Note_on_c, 2, 60, 92
5, 61520, Note_off_c, 2, 60, 64
5, 61680, Note_on_c, 2, 63, 92
5, 61760, Note_off_c, 2, 63, 64
5, 61920, Note_on_c, 2, 61, 92
5, 62000, Note_off_c, 2, 61, 64
5, 63600, Note_on_c, 2, 68, 60
5, 63720, Note_off_c, 2, 68, 64
5, 63720, Note_on_c, 2, 67, 60
5, 63840, Note_off_c, 2, 67, 64
5, 63840, Note_on_c, 2, 68, 60
5, 63920, Note_off_c, 2, 68, 64
5, 64080, Note_on_c, 2, 63, 60
5, 64160, Note_off_c, 2, 63, 64
5, 64320, Note_on_c, 2, 60, 60
5, 64400, Note_off_c, 2, 60, 64
5, 64560, Note_on_c, 2, 63, 60
5, 64640, Note_off_c, 2, 63, 64
5, 64800, Note_on_c, 2, 61, 60
5, 64880, Note_off_c, 2, 61, 64
5, 66480, Note_on_c, 2, 67, 92
5, 66600, Note_off_c, 2, 67, 64
5, 66600, Note_on_c, 2, 67, 92
5, 66720, Note_off_c, 2, 67, 64
5, 66720, Note_on_c, 2, 67, 92
5, 66800, Note_off_c, 2, 67, 64
5, 66960, Note_on_c, 2, 61, 92
5, 67040, Note_off_c, 2, 61, 64
5, 67200, Note_on_c, 2, 58, 92
5, 67280, Note_off_c, 2, 58, 64
5, 67440, Note_on_c, 2, 61, 92
5, 67520, Note_off_c, 2, 61, 64
5, 67680, Note_on_c, 2, 55, 92
5, 67800, Note_off_c, 2, 55, 64
5, 69360, Note_on_c, 2, 68, 92
5, 69480, Note_off_c, 2, 68, 64
5, 69480, Note_on_c, 2, 67, 92
5, 69600, Note_off_c, 2, 67, 64
5, 69600, Note_on_c, 2, 68, 92
5, 69680, Note_off_c, 2, 68, 64
5, 69840, Note_on_c, 2, 61, 92
5, 69920, Note_off_c, 2, 61, 64
5, 70080, Note_on_c, 2, 56, 92
5, 70160, Note_off_c, 2, 56, 64
5, 70320, Note_on_c, 2, 61, 92
5, 70400, Note_off_c, 2, 61, 64
5, 70560, Note_on_c, 2, 56, 92
5, 70680, Note_off_c, 2, 56, 64
5, 75120, Note_on_c, 2, 66, 108
5, 75240, Note_off_c, 2, 66, 64
5, 75240, Note_on_c, 2, 65, 108
5, 75360, Note_off_c, 2, 65, 64
5, 75360, Note_on_c, 2, 66, 108
5, 75440, Note_off_c, 2, 66, 64
5, 75600, Note_on_c, 2, 61, 108
5, 75680, Note_off_c, 2, 61, 64
5, 75840, Note_on_c, 2, 58, 108
5, 75920, Note_off_c, 2, 58, 64
5, 76080, Note_on_c, 2, 61, 108
5, 76160, Note_off_c, 2, 61, 64
5, 76320, Note_on_c, 2, 54, 108
5, 76440, Note_off_c, 2, 54, 64
5, 80880, Note_on_c, 2, 64, 108
5, 81000, Note_off_c, 2, 64, 64
5, 81000, Note_on_c, 2, 63, 108
5, 81120, Note_off_c, 2, 63, 64
5, 81120, Note_on_c, 2, 64, 108
5, 81200, Note_off_c, 2, 64, 64
5, 81360, Note_on_c, 2, 59, 108
5, 81440, Note_off_c, 2, 59, 64
5, 81600, Note_on_c, 2, 56, 108
5, 81680, Note_off_c, 2, 56, 64
5, 81840, Note_on_c, 2, 59, 108
5, 81920, Note_off_c, 2, 59, 64
5, 82080, Note_on_c, 2, 52, 108
5, 82160, Note_off_c, 2, 52, 64
5, 95040, Note_on_c, 2, 64, 108
5, 95120, Note_off_c, 2, 64, 64
5, 95280, Note_on_c, 2, 64, 108
5, 95680, Note_off_c, 2, 64, 64
5, 95760, Note_on_c, 2, 64, 108
5, 96160, Note_off_c, 2, 64, 64
5, 96240, Note_on_c, 2, 64, 108
5, 96320, Note_off_c, 2, 64, 64
5, 96480, Note_on_c, 2, 64, 108
5, 96560, Note_off_c, 2, 64, 64
5, 96720, Note_on_c, 2, 64, 108
5, 97120, Note_off_c, 2, 64, 64
5, 97200, Note_on_c, 2, 64, 108
5, 97600, Note_off_c, 2, 64, 64
5, 97680, Note_on_c, 2, 64, 108
5, 97760, Note_off_c, 2, 64, 64
5, 97920, Note_on_c, 2, 64, 108
5, 98000, Note_off_c, 2, 64, 64
5, 98160, Note_on_c, 2, 64, 108
5, 98560, Note_off_c, 2, 64, 64
5, 98640, Note_on_c, 2, 64, 108
5, 99040, Note_off_c, 2, 64, 64
5, 99120, Note_on_c, 2, 64, 108
5, 99200, Note_off_c, 2, 64, 64
5, 99360, Note_on_c, 2, 66, 108
5, 99440, Note_off_c, 2, 66, 64
5, 99600, Note_on_c, 2, 66, 108
5, 100000, Note_off_c, 2, 66, 64
5, 100080, Note_on_c, 2, 66, 108
5, 100480, Note_off_c, 2, 66, 64
5, 100560, Note_on_c, 2, 66, 108
5, 100640, Note_off_c, 2, 66, 64
5, 100800, Note_on_c, 2, 64, 108
5, 100880, Note_off_c, 2, 64, 64
5, 101040, Note_on_c, 2, 64, 108
5, 101440, Note_off_c, 2, 64, 64
5, 101520, Note_on_c, 2, 64, 108
5, 101920, Note_off_c, 2, 64, 64
5, 102000, Note_on_c, 2, 64, 108
5, 102080, Note_off_c, 2, 64, 64
5, 102240, Note_on_c, 2, 64, 92
5, 102320, Note_off_c, 2, 64, 64
5, 102480, Note_on_c, 2, 64, 92
5, 102880, Note_off_c, 2, 64, 64
5, 102960, Note_on_c, 2, 64, 92
5, 103360, Note_off_c, 2, 64, 64
5, 103440, Note_on_c, 2, 64, 92
5, 103520, Note_off_c, 2, 64, 64
5, 103680, Note_on_c, 2, 66, 92
5, 103760, Note_off_c, 2, 66, 64
5, 103920, Note_on_c, 2, 66, 92
5, 104320, Note_off_c, 2, 66, 64
5, 104400, Note_on_c, 2, 66, 92
5, 104800, Note_off_c, 2, 66, 64
5, 104880, Note_on_c, 2, 66, 92
5, 104960, Note_off_c, 2, 66, 64
5, 105120, Note_on_c, 2, 66, 92
5, 105200, Note_off_c, 2, 66, 64
5, 105360, Note_on_c, 2, 66, 90
5, 105760, Note_off_c, 2, 66, 64
5, 105840, Note_on_c, 2, 66, 85
5, 106240, Note_off_c, 2, 66, 64
5, 106320, Note_on_c, 2, 66, 80
5, 106400, Note_off_c, 2, 66, 64
5, 106560, Note_on_c, 2, 64, 78
5, 106640, Note_off_c, 2, 64, 64
5, 106800, Note_on_c, 2, 64, 75
5, 107200, Note_off_c, 2, 64, 64
5, 107280, Note_on_c, 2, 64, 69
5, 107680, Note_off_c, 2, 64, 64
5, 107760, Note_on_c, 2, 64, 63
5, 107840, Note_off_c, 2, 64, 64
5, 108000, Note_on_c, 2, 64, 60
5, 108080, Note_off_c, 2, 64, 64
5, 108240, Note_on_c, 2, 64, 60
5, 108640, Note_off_c, 2, 64, 64
5, 108720, Note_on_c, 2, 64, 60
5, 109120, Note_off_c, 2, 64, 64
5, 109200, Note_on_c, 2, 64, 60
5, 109280, Note_off_c, 2, 64, 64
5, 109440, Note_on_c, 2, 64, 60
5, 109520, Note_off_c, 2, 64, 64
5, 109680, Note_on_c, 2, 64, 60
5, 110080, Note_off_c, 2, 64, 64
5, 110160, Note_on_c, 2, 64, 60
5, 110560, Note_off_c, 2, 64, 64
5, 110640, Note_on_c, 2, 64, 60
5, 110720, Note_off_c, 2, 64, 64
5, 110880, Note_on_c, 2, 64, 45
5, 110960, Note_off_c, 2, 64, 64
5, 111120, Note_on_c, 2, 64, 45
5, 111520, Note_off_c, 2, 64, 64
5, 111600, Note_on_c, 2, 64, 45
5, 112000, Note_off_c, 2, 64, 64
5, 112080, Note_on_c, 2, 64, 45
5, 112160, Note_off_c, 2, 64, 64
5, 112320, Note_on_c, 2, 64, 60
5, 112555, Note_off_c, 2, 64, 64
5, 112560, Note_on_c, 2, 69, 60
5, 112680, Note_off_c, 2, 69, 64
5, 112680, Note_on_c, 2, 68, 60
5, 112800, Note_off_c, 2, 68, 64
5, 112800, Note_on_c, 2, 69, 60
5, 112880, Note_off_c, 2, 69, 64
5, 113040, Note_on_c, 2, 64, 60
5, 113120, Note_off_c, 2, 64, 64
5, 113280, Note_on_c, 2, 61, 60
5, 113360, Note_off_c, 2, 61, 64
5, 113520, Note_on_c, 2, 64, 60
5, 113600, Note_off_c, 2, 64, 64
5, 113760, Note_on_c, 2, 57, 60
5, 113840, Note_off_c, 2, 57, 64
5, 115200, Note_on_c, 2, 69, 60
5, 115280, Note_off_c, 2, 69, 64
5, 115440, Note_on_c, 2, 69, 92
5, 115560, Note_off_c, 2, 69, 64
5, 115560, Note_on_c, 2, 68, 92
5, 115680, Note_off_c, 2, 68, 64
5, 115680, Note_on_c, 2, 69, 92
5, 115760, Note_off_c, 2, 69, 64
5, 115920, Note_on_c, 2, 64, 92
5, 116000, Note_off_c, 2, 64, 64
5, 116160, Note_on_c, 2, 61, 92
5, 116240, Note_off_c, 2, 61, 64
5, 116400, Note_on_c, 2, 64, 92
5, 116480, Note_off_c, 2, 64, 64
5, 118320, Note_on_c, 2, 71, 60
5, 118440, Note_off_c, 2, 71, 64
5, 118440, Note_on_c, 2, 71, 60
5, 118560, Note_off_c, 2, 71, 64
5, 118560, Note_on_c, 2, 71, 60
5, 118640, Note_off_c, 2, 71, 64
5, 118800, Note_on_c, 2, 66, 60
5, 118880, Note_off_c, 2, 66, 64
5, 119040, Note_on_c, 2, 62, 60
5, 119120, Note_off_c, 2, 62, 64
5, 119280, Note_on_c, 2, 66, 60
5, 119360, Note_off_c, 2, 66, 64
5, 119520, Note_on_c, 2, 59, 60
5, 119600, Note_off_c, 2, 59, 64
5, 119760, Note_on_c, 2, 59, 75
5, 119880, Note_off_c, 2, 59, 64
5, 119880, Note_on_c, 2, 59, 75
5, 120000, Note_off_c, 2, 59, 64
5, 120000, Note_on_c, 2, 59, 75
5, 120080, Note_off_c, 2, 59, 64
5, 120240, Note_on_c, 2, 54, 75
5, 120320, Note_off_c, 2, 54, 64
5, 120480, Note_on_c, 2, 50, 75
5, 120560, Note_off_c, 2, 50, 64
5, 120720, Note_on_c, 2, 54, 75
5, 120800, Note_off_c, 2, 54, 64
5, 120960, Note_on_c, 2, 59, 75
5, 121040, Note_off_c, 2, 59, 64
5, 121200, Note_on_c, 2, 59, 92
5, 121320, Note_off_c, 2, 59, 64
5, 121320, Note_on_c, 2, 59, 92
5, 121440, Note_off_c, 2, 59, 64
5, 121440, Note_on_c, 2, 59, 92
5, 121520, Note_off_c, 2, 59, 64
5, 121680, Note_on_c, 2, 54, 92
5, 121760, Note_off_c, 2, 54, 64
5, 121920, Note_on_c, 2, 51, 92
5, 122000, Note_off_c, 2, 51, 64
5, 122160, Note_on_c, 2, 54, 92
5, 122240, Note_off_c, 2, 54, 64
5, 122400, Note_on_c, 2, 59, 92
5, 122480, Note_off_c, 2, 59, 64
5, 123360, Note_on_c, 2, 63, 92
5, 123840, Note_off_c, 2, 63, 64
5, 123840, Note_on_c, 2, 65, 92
5, 125280, Note_off_c, 2, 65, 64
5, 125280, Note_on_c, 2, 66, 92
5, 126720, Note_off_c, 2, 66, 64
5, 126720, Note_on_c, 2, 66, 92
5, 128040, Note_off_c, 2, 66, 64
5, 128160, Note_on_c, 2, 65, 45
5, 128240, Note_off_c, 2, 65, 64
5, 128400, Note_on_c, 2, 65, 45
5, 128800, Note_off_c, 2, 65, 64
5, 128880, Note_on_c, 2, 65, 45
5, 129280, Note_off_c, 2, 65, 64
5, 129360, Note_on_c, 2, 65, 45
5, 129440, Note_off_c, 2, 65, 64
5, 129600, Note_on_c, 2, 65, 45
5, 129680, Note_off_c, 2, 65, 64
5, 129840, Note_on_c, 2, 65, 47
5, 130240, Note_off_c, 2, 65, 64
5, 130320, Note_on_c, 2, 65, 52
5, 130720, Note_off_c, 2, 65, 64
5, 130800, Note_on_c, 2, 65, 57
5, 130880, Note_off_c, 2, 65, 64
5, 131040, Note_on_c, 2, 65, 59
5, 131120, Note_off_c, 2, 65, 64
5, 131280, Note_on_c, 2, 65, 61
5, 131680, Note_off_c, 2, 65, 64
5, 131760, Note_on_c, 2, 65, 66
5, 132160, Note_off_c, 2, 65, 64
5, 132240, Note_on_c, 2, 65, 72
5, 132320, Note_off_c, 2, 65, 64
5, 132480, Note_on_c, 2, 65, 75
5, 132560, Note_off_c, 2, 65, 64
5, 132720, Note_on_c, 2, 65, 75
5, 133120, Note_off_c, 2, 65, 64
5, 133200, Note_on_c, 2, 65, 75
5, 133600, Note_off_c, 2, 65, 64
5, 133680, Note_on_c, 2, 65, 75
5, 133760, Note_off_c, 2, 65, 64
5, 133920, Note_on_c, 2, 66, 75
5, 134000, Note_off_c, 2, 66, 64
5, 134160, Note_on_c, 2, 66, 75
5, 134560, Note_off_c, 2, 66, 64
5, 134640, Note_on_c, 2, 66, 75
5, 135040, Note_off_c, 2, 66, 64
5, 135120, Note_on_c, 2, 66, 75
5, 135355, Note_off_c, 2, 66, 64
5, 135360, Note_on_c, 2, 62, 60
5, 135760, Note_off_c, 2, 62, 64
5, 135840, Note_on_c, 2, 62, 60
5, 136240, Note_off_c, 2, 62, 64
5, 136320, Note_on_c, 2, 61, 60
5, 136720, Note_off_c, 2, 61, 64
5, 136800, Note_on_c, 2, 68, 60
5, 137200, Note_off_c, 2, 68, 64
5, 137280, Note_on_c, 2, 68, 60
5, 137680, Note_off_c, 2, 68, 64
5, 137760, Note_on_c, 2, 66, 60
5, 138160, Note_off_c, 2, 66, 64
5, 138240, Note_on_c, 2, 65, 60
5, 138960, Note_off_c, 2, 65, 64
5, 138960, Note_on_c, 2, 66, 60
5, 139200, Note_off_c, 2, 66, 64
5, 139200, Note_on_c, 2, 65, 60
5, 139440, Note_off_c, 2, 65, 64
5, 139440, Note_on_c, 2, 63, 60
5, 139680, Note_off_c, 2, 63, 64
5, 139680, Note_on_c, 2, 65, 45
5, 141000, Note_off_c, 2, 65, 64
5, 141120, Note_on_c, 2, 66, 45
5, 141200, Note_off_c, 2, 66, 64
5, 141360, Note_on_c, 2, 66, 45
5, 141760, Note_off_c, 2, 66, 64
5, 141840, Note_on_c, 2, 66, 45
5, 142240, Note_off_c, 2, 66, 64
5, 142320, Note_on_c, 2, 66, 45
5, 142400, Note_off_c, 2, 66, 64
5, 142560, Note_on_c, 2, 65, 45
5, 142640, Note_off_c, 2, 65, 64
5, 142800, Note_on_c, 2, 65, 48
5, 143200, Note_off_c, 2, 65, 64
5, 143280, Note_on_c, 2, 65, 56
5, 143680, Note_off_c, 2, 65, 64
5, 143760, Note_on_c, 2, 65, 64
5, 143840, Note_off_c, 2, 65, 64
5, 144000, Note_on_c, 2, 66, 68
5, 144080, Note_off_c, 2, 66, 64
5, 144240, Note_on_c, 2, 66, 72
5, 144640, Note_off_c, 2, 66, 64
5, 144720, Note_on_c, 2, 66, 80
5, 145120, Note_off_c, 2, 66, 64
5, 145200, Note_on_c, 2, 66, 88
5, 145280, Note_off_c, 2, 66, 64
5, 145440, Note_on_c, 2, 65, 92
5, 150160, Note_off_c, 2, 65, 64
5, 150240, Note_on_c, 2, 65, 108
5, 150480, Note_off_c, 2, 65, 64
5, 150480, Note_on_c, 2, 66, 108
5, 150720, Note_off_c, 2, 66, 64
5, 150720, Note_on_c, 2, 68, 108
5, 151200, Note_off_c, 2, 68, 64
5, 151200, Note_on_c, 2, 69, 108
5, 151600, Note_off_c, 2, 69, 64
5, 151680, Note_on_c, 2, 66, 108
5, 151920, Note_off_c, 2, 66, 64
5, 151920, Note_on_c, 2, 68, 108
5, 152160, Note_off_c, 2, 68, 64
5, 152160, Note_on_c, 2, 69, 108
5, 152560, Note_off_c, 2, 69, 64
5, 152640, Note_on_c, 2, 65, 60
5, 153040, Note_off_c, 2, 65, 64
5, 153120, Note_on_c, 2, 68, 60
5, 153520, Note_off_c, 2, 68, 64
5, 153600, Note_on_c, 2, 69, 60
5, 154000, Note_off_c, 2, 69, 64
5, 154080, Note_on_c, 2, 69, 60
5, 154480, Note_off_c, 2, 69, 64
5, 154560, Note_on_c, 2, 68, 60
5, 154960, Note_off_c, 2, 68, 64
5, 155040, Note_on_c, 2, 68, 60
5, 155440, Note_off_c, 2, 68, 64
5, 155520, Note_on_c, 2, 66, 45
5, 155760, Note_off_c, 2, 66, 64
5, 155760, Note_on_c, 2, 68, 45
5, 156000, Note_off_c, 2, 68, 64
5, 156000, Note_on_c, 2, 69, 45
5, 156240, Note_off_c, 2, 69, 64
5, 156240, Note_on_c, 2, 68, 45
5, 156480, Note_off_c, 2, 68, 64
5, 156480, Note_on_c, 2, 66, 45
5, 156720, Note_off_c, 2, 66, 64
5, 156720, Note_on_c, 2, 64, 45
5, 156960, Note_off_c, 2, 64, 64
5, 156960, Note_on_c, 2, 63, 45
5, 157200, Note_off_c, 2, 63, 64
5, 157200, Note_on_c, 2, 64, 45
5, 157440, Note_off_c, 2, 64, 64
5, 157440, Note_on_c, 2, 66, 45
5, 157680, Note_off_c, 2, 66, 64
5, 157680, Note_on_c, 2, 68, 45
5, 157920, Note_off_c, 2, 68, 64
5, 157920, Note_on_c, 2, 69, 45
5, 158160, Note_off_c, 2, 69, 64
5, 158160, Note_on_c, 2, 66, 45
5, 158400, Note_off_c, 2, 66, 64
5, 158400, Note_on_c, 2, 68, 45
5, 158880, Note_off_c, 2, 68, 64
5, 158880, Note_on_c, 2, 64, 45
5, 159120, Note_off_c, 2, 64, 64
5, 159120, Note_on_c, 2, 63, 45
5, 159360, Note_off_c, 2, 63, 64
5, 159360, Note_on_c, 2, 61, 45
5, 159600, Note_off_c, 2, 61, 64
5, 159600, Note_on_c, 2, 59, 45
5, 159840, Note_off_c, 2, 59, 64
5, 159840, Note_on_c, 2, 58, 45
5, 160080, Note_off_c, 2, 58, 64
5, 160080, Note_on_c, 2, 59, 45
5, 160320, Note_off_c, 2, 59, 64
5, 160320, Note_on_c, 2, 61, 45
5, 160560, Note_off_c, 2, 61, 64
5, 160560, Note_on_c, 2, 63, 45
5, 160800, Note_off_c, 2, 63, 64
5, 160800, Note_on_c, 2, 64, 45
5, 161040, Note_off_c, 2, 64, 64
5, 161040, Note_on_c, 2, 61, 45
5, 161280, Note_off_c, 2, 61, 64
5, 161280, Note_on_c, 2, 63, 45
5, 162600, Note_off_c, 2, 63, 64
5, 162720, Note_on_c, 2, 71, 45
5, 162960, Note_off_c, 2, 71, 64
5, 162960, Note_on_c, 2, 69, 45
5, 163200, Note_off_c, 2, 69, 64
5, 163200, Note_on_c, 2, 68, 45
5, 163440, Note_off_c, 2, 68, 64
5, 163440, Note_on_c, 2, 66, 45
5, 163680, Note_off_c, 2, 66, 64
5, 163680, Note_on_c, 2, 64, 45
5, 163920, Note_off_c, 2, 64, 64
5, 163920, Note_on_c, 2, 62, 45
5, 164160, Note_off_c, 2, 62, 64
5, 164160, Note_on_c, 2, 64, 45
5, 165480, Note_off_c, 2, 64, 64
5, 165600, Note_on_c, 2, 69, 45
5, 165840, Note_off_c, 2, 69, 64
5, 165840, Note_on_c, 2, 68, 45
5, 166080, Note_off_c, 2, 68, 64
5, 166080, Note_on_c, 2, 66, 45
5, 166320, Note_off_c, 2, 66, 64
5, 166320, Note_on_c, 2, 64, 45
5, 166560, Note_off_c, 2, 64, 64
5, 166560, Note_on_c, 2, 63, 45
5, 166800, Note_off_c, 2, 63, 64
5, 166800, Note_on_c, 2, 61, 45
5, 167040, Note_off_c, 2, 61, 64
5, 167040, Note_on_c, 2, 63, 45
5, 168360, Note_off_c, 2, 63, 64
5, 168480, Note_on_c, 2, 73, 60
5, 168720, Note_off_c, 2, 73, 64
5, 168720, Note_on_c, 2, 71, 45
5, 168960, Note_off_c, 2, 71, 64
5, 168960, Note_on_c, 2, 69, 45
5, 169200, Note_off_c, 2, 69, 64
5, 169200, Note_on_c, 2, 68, 45
5, 169440, Note_off_c, 2, 68, 64
5, 169440, Note_on_c, 2, 66, 45
5, 169680, Note_off_c, 2, 66, 64
5, 169680, Note_on_c, 2, 64, 45
5, 169920, Note_off_c, 2, 64, 64
5, 169920, Note_on_c, 2, 64, 45
5, 170320, Note_off_c, 2, 64, 64
5, 170400, Note_on_c, 2, 69, 46
5, 170800, Note_off_c, 2, 69, 64
5, 170880, Note_on_c, 2, 73, 47
5, 171280, Note_off_c, 2, 73, 64
5, 171360, Note_on_c, 2, 75, 48
5, 171760, Note_off_c, 2, 75, 64
5, 171840, Note_on_c, 2, 71, 49
5, 172240, Note_off_c, 2, 71, 64
5, 172320, Note_on_c, 2, 66, 50
5, 172720, Note_off_c, 2, 66, 64
5, 172800, Note_on_c, 2, 71, 51
5, 173200, Note_off_c, 2, 71, 64
5, 173280, Note_on_c, 2, 68, 52
5, 173680, Note_off_c, 2, 68, 64
5, 173760, Note_on_c, 2, 64, 53
5, 174160, Note_off_c, 2, 64, 64
5, 174240, Note_on_c, 2, 73, 54
5, 174640, Note_off_c, 2, 73, 64
5, 174720, Note_on_c, 2, 70, 56
5, 175120, Note_off_c, 2, 70, 64
5, 175200, Note_on_c, 2, 66, 58
5, 175600, Note_off_c, 2, 66, 64
5, 175680, Note_on_c, 2, 66, 60
5, 176080, Note_off_c, 2, 66, 64
5, 176160, Note_on_c, 2, 71, 60
5, 176560, Note_off_c, 2, 71, 64
5, 176640, Note_on_c, 2, 75, 60
5, 177040, Note_off_c, 2, 75, 64
5, 177120, Note_on_c, 2, 78, 60
5, 177520, Note_off_c, 2, 78, 64
5, 177600, Note_on_c, 2, 75, 60
5, 178000, Note_off_c, 2, 75, 64
5, 178080, Note_on_c, 2, 71, 60
5, 178480, Note_off_c, 2, 71, 64
5, 178560, Note_on_c, 2, 66, 60
5, 178960, Note_off_c, 2, 66, 64
5, 179040, Note_on_c, 2, 71, 60
5, 179440, Note_off_c, 2, 71, 64
5, 179520, Note_on_c, 2, 75, 60
5, 179920, Note_off_c, 2, 75, 64
5, 180000, Note_on_c, 2, 64, 60
5, 180400, Note_off_c, 2, 64, 64
5, 180480, Note_on_c, 2, 69, 60
5, 180880, Note_off_c, 2, 69, 64
5, 180960, Note_on_c, 2, 73, 60
5, 181360, Note_off_c, 2, 73, 64
5, 181440, Note_on_c, 2, 68, 60
5, 181840, Note_off_c, 2, 68, 64
5, 181920, Note_on_c, 2, 71, 60
5, 182320, Note_off_c, 2, 71, 64
5, 182400, Note_on_c, 2, 75, 60
5, 182800, Note_off_c, 2, 75, 64
5, 182880, Note_on_c, 2, 63, 60
5, 183280, Note_off_c, 2, 63, 64
5, 183360, Note_on_c, 2, 66, 69
5, 183760, Note_off_c, 2, 66, 64
5, 183840, Note_on_c, 2, 69, 78
5, 184240, Note_off_c, 2, 69, 64
5, 184320, Note_on_c, 2, 64, 88
5, 184720, Note_off_c, 2, 64, 64
5, 184800, Note_on_c, 2, 68, 98
5, 185040, Note_off_c, 2, 68, 64
5, 185040, Note_on_c, 2, 69, 103
5, 185280, Note_off_c, 2, 69, 64
5, 185280, Note_on_c, 2, 71, 108
5, 185680, Note_off_c, 2, 71, 64
5, 185760, Note_on_c, 2, 64, 105
5, 186160, Note_off_c, 2, 64, 64
5, 186240, Note_on_c, 2, 62, 105
5, 186320, Note_off_c, 2, 62, 64
5, 186480, Note_on_c, 2, 61, 105
5, 186560, Note_off_c, 2, 61, 64
5, 186720, Note_on_c, 2, 62, 105
5, 186800, Note_off_c, 2, 62, 64
5, 186960, Note_on_c, 2, 59, 105
5, 187040, Note_off_c, 2, 59, 64
5, 187200, Note_on_c, 2, 61, 105
5, 187600, Note_off_c, 2, 61, 64
5, 187680, Note_on_c, 2, 61, 105
5, 187760, Note_off_c, 2, 61, 64
5, 187920, Note_on_c, 2, 59, 105
5, 188000, Note_off_c, 2, 59, 64
5, 188160, Note_on_c, 2, 61, 105
5, 188240, Note_off_c, 2, 61, 64
5, 188400, Note_on_c, 2, 57, 105
5, 188480, Note_off_c, 2, 57, 64
5, 188640, Note_on_c, 2, 59, 105
5, 189040, Note_off_c, 2, 59, 64
5, 189120, Note_on_c, 2, 59, 105
5, 189200, Note_off_c, 2, 59, 64
5, 189360, Note_on_c, 2, 57, 105
5, 189440, Note_off_c, 2, 57, 64
5, 189600, Note_on_c, 2, 59, 105
5, 189680, Note_off_c, 2, 59, 64
5, 189840, Note_on_c, 2, 56, 105
5, 189920, Note_off_c, 2, 56, 64
5, 190080, Note_on_c, 2, 57, 105
5, 190480, Note_off_c, 2, 57, 64
5, 190560, Note_on_c, 2, 63, 112
5, 190640, Note_off_c, 2, 63, 64
5, 190800, Note_on_c, 2, 64, 116
5, 190880, Note_off_c, 2, 64, 64
5, 191040, Note_on_c, 2, 66, 120
5, 191120, Note_off_c, 2, 66, 64
5, 191280, Note_on_c, 2, 68, 124
5, 191360, Note_off_c, 2, 68, 64
5, 191520, Note_on_c, 2, 75, 92
5, 192480, Note_off_c, 2, 75, 64
5, 192480, Note_on_c, 2, 71, 92
5, 192880, Note_off_c, 2, 71, 64
5, 192960, Note_on_c, 2, 73, 92
5, 193440, Note_off_c, 2, 73, 64
5, 193440, Note_on_c, 2, 75, 92
5, 194280, Note_off_c, 2, 75, 64
5, 194400, Note_on_c, 2, 64, 92
5, 194800, Note_off_c, 2, 64, 64
5, 194880, Note_on_c, 2, 68, 94
5, 195115, Note_off_c, 2, 68, 64
5, 195120, Note_on_c, 2, 69, 95
5, 195355, Note_off_c, 2, 69, 64
5, 195360, Note_on_c, 2, 68, 96
5, 195595, Note_off_c, 2, 68, 64
5, 195600, Note_on_c, 2, 66, 97
5, 195835, Note_off_c, 2, 66, 64
5, 195840, Note_on_c, 2, 64, 98
5, 196240, Note_off_c, 2, 64, 64
5, 196320, Note_on_c, 2, 68, 101
5, 196555, Note_off_c, 2, 68, 64
5, 196560, Note_on_c, 2, 66, 102
5, 196795, Note_off_c, 2, 66, 64
5, 196800, Note_on_c, 2, 64, 104
5, 197035, Note_off_c, 2, 64, 64
5, 197040, Note_on_c, 2, 63, 106
5, 197275, Note_off_c, 2, 63, 64
5, 197280, Note_on_c, 2, 68, 108
5, 199195, Note_off_c, 2, 68, 64
5, 199195, End_track
6, 0, Start_track
6, 0, Title_t, "arr : G. Pollen (1999)"
6, 0, MIDI_port, 0
6, 0, Channel_prefix, 3
6, 0, Control_c, 3, 7, 99
6, 0, Control_c, 3, 10, 70
6, 0, Control_c, 3, 91, 52
6, 0, Program_c, 3, 70
6, 0, Note_on_c, 3, 40, 92
6, 0, Note_on_c, 3, 47, 92
6, 400, Note_off_c, 3, 47, 64
6, 400, Note_off_c, 3, 40, 64
6, 1440, Note_on_c, 3, 40, 92
6, 1440, Note_on_c, 3, 47, 92
6, 1840, Note_off_c, 3, 47, 64
6, 1840, Note_off_c, 3, 40, 64
6, 2880, Note_on_c, 3, 40, 92
6, 2880, Note_on_c, 3, 47, 92
6, 4720, Note_off_c, 3, 47, 64
6, 4720, Note_off_c, 3, 40, 64
6, 4800, Note_on_c, 3, 44, 92
6, 5200, Note_off_c, 3, 44, 64
6, 5280, Note_on_c, 3, 47, 92
6, 5680, Note_off_c, 3, 47, 64
6, 5760, Note_on_c, 3, 40, 45
6, 5760, Note_on_c, 3, 47, 45
6, 7600, Note_off_c, 3, 47, 64
6, 7600, Note_off_c, 3, 40, 64
6, 7680, Note_on_c, 3, 44, 45
6, 8080, Note_off_c, 3, 44, 64
6, 8160, Note_on_c, 3, 47, 45
6, 8560, Note_off_c, 3, 47, 64
6, 8640, Note_on_c, 3, 40, 45
6, 8640, Note_on_c, 3, 47, 45
6, 9600, Note_off_c, 3, 47, 64
6, 9600, Note_on_c, 3, 49, 53
6, 10080, Note_off_c, 3, 49, 64
6, 10080, Note_on_c, 3, 47, 57
6, 11040, Note_off_c, 3, 47, 64
6, 11040, Note_on_c, 3, 47, 65
6, 11520, Note_off_c, 3, 47, 64
6, 11520, Note_on_c, 3, 47, 69
6, 13800, Note_off_c, 3, 40, 64
6, 13800, Note_off_c, 3, 47, 64
6, 13920, Note_on_c, 3, 47, 92
6, 14320, Note_off_c, 3, 47, 64
6, 14400, Note_on_c, 3, 40, 45
6, 14400, Note_on_c, 3, 47, 45
6, 16680, Note_off_c, 3, 47, 64
6, 16680, Note_off_c, 3, 40, 64
6, 16800, Note_on_c, 3, 47, 45
6, 17200, Note_off_c, 3, 47, 64
6, 17280, Note_on_c, 3, 40, 75
6, 17280, Note_on_c, 3, 47, 75
6, 18955, Note_off_c, 3, 47, 64
6, 18955, Note_off_c, 3, 40, 64
6, 18960, Note_on_c, 3, 52, 92
6, 19200, Note_off_c, 3, 52, 64
6, 19200, Note_on_c, 3, 51, 92
6, 19440, Note_off_c, 3, 51, 64
6, 19440, Note_on_c, 3, 52, 92
6, 19680, Note_off_c, 3, 52, 64
6, 19680, Note_on_c, 3, 49, 92
6, 19920, Note_off_c, 3, 49, 64
6, 19920, Note_on_c, 3, 51, 92
6, 20155, Note_off_c, 3, 51, 64
6, 20160, Note_on_c, 3, 40, 60
6, 20160, Note_on_c, 3, 47, 60
6, 21835, Note_off_c, 3, 47, 64
6, 21835, Note_off_c, 3, 40, 64
6, 21840, Note_on_c, 3, 52, 75
6, 22080, Note_off_c, 3, 52, 64
6, 22080, Note_on_c, 3, 51, 75
6, 22320, Note_off_c, 3, 51, 64
6, 22320, Note_on_c, 3, 52, 75
6, 22560, Note_off_c, 3, 52, 64
6, 22560, Note_on_c, 3, 49, 75
6, 22800, Note_off_c, 3, 49, 64
6, 22800, Note_on_c, 3, 51, 75
6, 23035, Note_off_c, 3, 51, 64
6, 23040, Note_on_c, 3, 40, 60
6, 23040, Note_on_c, 3, 47, 60
6, 27360, Note_off_c, 3, 47, 64
6, 27360, Note_on_c, 3, 49, 60
6, 28680, Note_off_c, 3, 40, 64
6, 28680, Note_off_c, 3, 49, 64
6, 28800, Note_on_c, 3, 40, 75
6, 28800, Note_on_c, 3, 47, 75
6, 30240, Note_off_c, 3, 47, 64
6, 30240, Note_off_c, 3, 40, 64
6, 30240, Note_on_c, 3, 40, 75
6, 30240, Note_on_c, 3, 47, 75
6, 31560, Note_off_c, 3, 47, 64
6, 31560, Note_off_c, 3, 40, 64
6, 31680, Note_on_c, 3, 40, 45
6, 31680, Note_on_c, 3, 49, 45
6, 33120, Note_off_c, 3, 49, 64
6, 33120, Note_off_c, 3, 40, 64
6, 33120, Note_on_c, 3, 42, 45
6, 33120, Note_on_c, 3, 49, 45
6, 34560, Note_off_c, 3, 49, 64
6, 34560, Note_off_c, 3, 42, 64
6, 34560, Note_on_c, 3, 40, 45
6, 34560, Note_on_c, 3, 47, 45
6, 37440, Note_off_c, 3, 47, 64
6, 37440, Note_off_c, 3, 40, 64
6, 37440, Note_on_c, 3, 47, 45
6, 37440, Note_on_c, 3, 54, 45
6, 38880, Note_off_c, 3, 54, 64
6, 38880, Note_off_c, 3, 47, 64
6, 38880, Note_on_c, 3, 47, 45
6, 38880, Note_on_c, 3, 54, 45
6, 39280, Note_off_c, 3, 47, 64
6, 39360, Note_on_c, 3, 51, 45
6, 39760, Note_off_c, 3, 51, 64
6, 39840, Note_on_c, 3, 54, 45
6, 40200, Note_off_c, 3, 54, 64
6, 40240, Note_off_c, 3, 54, 64
6, 40320, Note_on_c, 3, 40, 75
6, 40720, Note_off_c, 3, 40, 64
6, 41760, Note_on_c, 3, 40, 81
6, 42160, Note_off_c, 3, 40, 64
6, 43200, Note_on_c, 3, 40, 90
6, 43280, Note_off_c, 3, 40, 64
6, 43440, Note_on_c, 3, 52, 92
6, 43560, Note_off_c, 3, 52, 64
6, 43560, Note_on_c, 3, 51, 92
6, 43680, Note_off_c, 3, 51, 64
6, 43680, Note_on_c, 3, 52, 92
6, 43760, Note_off_c, 3, 52, 64
6, 43920, Note_on_c, 3, 47, 92
6, 44000, Note_off_c, 3, 47, 64
6, 44160, Note_on_c, 3, 44, 92
6, 44240, Note_off_c, 3, 44, 64
6, 44400, Note_on_c, 3, 47, 92
6, 44480, Note_off_c, 3, 47, 64
6, 44640, Note_on_c, 3, 40, 92
6, 44720, Note_off_c, 3, 40, 64
6, 45600, Note_on_c, 3, 37, 92
6, 46080, Note_off_c, 3, 37, 64
6, 46080, Note_on_c, 3, 37, 45
6, 46480, Note_off_c, 3, 37, 64
6, 47520, Note_on_c, 3, 37, 45
6, 47920, Note_off_c, 3, 37, 64
6, 48960, Note_on_c, 3, 37, 70
6, 49040, Note_off_c, 3, 37, 64
6, 49200, Note_on_c, 3, 49, 75
6, 49320, Note_off_c, 3, 49, 64
6, 49320, Note_on_c, 3, 48, 75
6, 49440, Note_off_c, 3, 48, 64
6, 49440, Note_on_c, 3, 49, 75
6, 49520, Note_off_c, 3, 49, 64
6, 49680, Note_on_c, 3, 44, 75
6, 49760, Note_off_c, 3, 44, 64
6, 49920, Note_on_c, 3, 41, 75
6, 50000, Note_off_c, 3, 41, 64
6, 50160, Note_on_c, 3, 44, 77
6, 50240, Note_off_c, 3, 44, 64
6, 50400, Note_on_c, 3, 37, 80
6, 50480, Note_off_c, 3, 37, 64
6, 51360, Note_on_c, 3, 37, 92
6, 51840, Note_off_c, 3, 37, 64
6, 51840, Note_on_c, 3, 42, 92
6, 52240, Note_off_c, 3, 42, 64
6, 52800, Note_on_c, 3, 44, 92
6, 53280, Note_off_c, 3, 44, 64
6, 53280, Note_on_c, 3, 37, 92
6, 54600, Note_off_c, 3, 37, 64
6, 54720, Note_on_c, 3, 44, 92
6, 57480, Note_off_c, 3, 44, 64
6, 57840, Note_on_c, 3, 56, 108
6, 57960, Note_off_c, 3, 56, 64
6, 57960, Note_on_c, 3, 55, 108
6, 58080, Note_off_c, 3, 55, 64
6, 58080, Note_on_c, 3, 56, 108
6, 58160, Note_off_c, 3, 56, 64
6, 58320, Note_on_c, 3, 51, 108
6, 58400, Note_off_c, 3, 51, 64
6, 58560, Note_on_c, 3, 48, 108
6, 58640, Note_off_c, 3, 48, 64
6, 58800, Note_on_c, 3, 51, 108
6, 58880, Note_off_c, 3, 51, 64
6, 59040, Note_on_c, 3, 44, 108
6, 59120, Note_off_c, 3, 44, 64
6, 60480, Note_on_c, 3, 44, 60
6, 61920, Note_off_c, 3, 44, 64
6, 61920, Note_on_c, 3, 49, 60
6, 63240, Note_off_c, 3, 49, 64
6, 63360, Note_on_c, 3, 44, 45
6, 64800, Note_off_c, 3, 44, 64
6, 64800, Note_on_c, 3, 37, 45
6, 66120, Note_off_c, 3, 37, 64
6, 66240, Note_on_c, 3, 37, 60
6, 67680, Note_off_c, 3, 37, 64
6, 67680, Note_on_c, 3, 37, 45
6, 69120, Note_off_c, 3, 37, 64
6, 69120, Note_on_c, 3, 37, 75
6, 70560, Note_off_c, 3, 37, 64
6, 70560, Note_on_c, 3, 44, 45
6, 70960, Note_off_c, 3, 44, 64
6, 71040, Note_on_c, 3, 51, 45
6, 71440, Note_off_c, 3, 51, 64
6, 71520, Note_on_c, 3, 48, 45
6, 71920, Note_off_c, 3, 48, 64
6, 72000, Note_on_c, 3, 37, 92
6, 72000, Note_on_c, 3, 49, 92
6, 72400, Note_off_c, 3, 49, 64
6, 72400, Note_off_c, 3, 37, 64
6, 73440, Note_on_c, 3, 37, 92
6, 73840, Note_off_c, 3, 37, 64
6, 74880, Note_on_c, 3, 42, 92
6, 76320, Note_off_c, 3, 42, 64
6, 76320, Note_on_c, 3, 42, 60
6, 76720, Note_off_c, 3, 42, 64
6, 76800, Note_on_c, 3, 49, 60
6, 77200, Note_off_c, 3, 49, 64
6, 77280, Note_on_c, 3, 46, 60
6, 77680, Note_off_c, 3, 46, 64
6, 77760, Note_on_c, 3, 47, 92
6, 78160, Note_off_c, 3, 47, 64
6, 79200, Note_on_c, 3, 47, 75
6, 79600, Note_off_c, 3, 47, 64
6, 80640, Note_on_c, 3, 40, 92
6, 82080, Note_off_c, 3, 40, 64
6, 82080, Note_on_c, 3, 52, 45
6, 83400, Note_off_c, 3, 52, 64
6, 83520, Note_on_c, 3, 45, 92
6, 83520, Note_on_c, 3, 52, 92
6, 85360, Note_off_c, 3, 52, 64
6, 85360, Note_off_c, 3, 45, 64
6, 85440, Note_on_c, 3, 49, 92
6, 85840, Note_off_c, 3, 49, 64
6, 85920, Note_on_c, 3, 52, 92
6, 86320, Note_off_c, 3, 52, 64
6, 86400, Note_on_c, 3, 45, 60
6, 86400, Note_on_c, 3, 52, 60
6, 88240, Note_off_c, 3, 52, 64
6, 88240, Note_off_c, 3, 45, 64
6, 88320, Note_on_c, 3, 49, 60
6, 88720, Note_off_c, 3, 49, 64
6, 88800, Note_on_c, 3, 52, 60
6, 89200, Note_off_c, 3, 52, 64
6, 89280, Note_on_c, 3, 45, 92
6, 90720, Note_off_c, 3, 45, 64
6, 90720, Note_on_c, 3, 45, 92
6, 91560, Note_off_c, 3, 45, 64
6, 91680, Note_on_c, 3, 52, 92
6, 92080, Note_off_c, 3, 52, 64
6, 92160, Note_on_c, 3, 45, 60
6, 94440, Note_off_c, 3, 45, 64
6, 94560, Note_on_c, 3, 40, 60
6, 94960, Note_off_c, 3, 40, 64
6, 95040, Note_on_c, 3, 45, 108
6, 96480, Note_off_c, 3, 45, 64
6, 96480, Note_on_c, 3, 44, 108
6, 97920, Note_off_c, 3, 44, 64
6, 97920, Note_on_c, 3, 43, 108
6, 99360, Note_off_c, 3, 43, 64
6, 99360, Note_on_c, 3, 42, 108
6, 100800, Note_off_c, 3, 42, 64
6, 100800, Note_on_c, 3, 40, 108
6, 102120, Note_off_c, 3, 40, 64
6, 102240, Note_on_c, 3, 45, 92
6, 103680, Note_off_c, 3, 45, 64
6, 103680, Note_on_c, 3, 38, 92
6, 105120, Note_off_c, 3, 38, 64
6, 105120, Note_on_c, 3, 38, 92
6, 106560, Note_off_c, 3, 38, 64
6, 106560, Note_on_c, 3, 40, 76
6, 108000, Note_off_c, 3, 40, 64
6, 108000, Note_on_c, 3, 45, 60
6, 109440, Note_off_c, 3, 45, 64
6, 109440, Note_on_c, 3, 47, 60
6, 110880, Note_off_c, 3, 47, 64
6, 110880, Note_on_c, 3, 40, 45
6, 112200, Note_off_c, 3, 40, 64
6, 112320, Note_on_c, 3, 45, 60
6, 112720, Note_off_c, 3, 45, 64
6, 113760, Note_on_c, 3, 45, 74
6, 114160, Note_off_c, 3, 45, 64
6, 115200, Note_on_c, 3, 45, 89
6, 115435, Note_off_c, 3, 45, 64
6, 115440, Note_on_c, 3, 57, 92
6, 115560, Note_off_c, 3, 57, 64
6, 115560, Note_on_c, 3, 56, 92
6, 115680, Note_off_c, 3, 56, 64
6, 115680, Note_on_c, 3, 57, 92
6, 115760, Note_off_c, 3, 57, 64
6, 115920, Note_on_c, 3, 52, 92
6, 116000, Note_off_c, 3, 52, 64
6, 116160, Note_on_c, 3, 49, 92
6, 116240, Note_off_c, 3, 49, 64
6, 116400, Note_on_c, 3, 52, 92
6, 116480, Note_off_c, 3, 52, 64
6, 116640, Note_on_c, 3, 45, 92
6, 116720, Note_off_c, 3, 45, 64
6, 117600, Note_on_c, 3, 42, 92
6, 118080, Note_off_c, 3, 42, 64
6, 118080, Note_on_c, 3, 47, 45
6, 118480, Note_off_c, 3, 47, 64
6, 119520, Note_on_c, 3, 47, 66
6, 119920, Note_off_c, 3, 47, 64
6, 120960, Note_on_c, 3, 47, 88
6, 121040, Note_off_c, 3, 47, 64
6, 121200, Note_on_c, 3, 59, 92
6, 121320, Note_off_c, 3, 59, 64
6, 121320, Note_on_c, 3, 58, 92
6, 121440, Note_off_c, 3, 58, 64
6, 121440, Note_on_c, 3, 59, 92
6, 121520, Note_off_c, 3, 59, 64
6, 121680, Note_on_c, 3, 54, 92
6, 121760, Note_off_c, 3, 54, 64
6, 121920, Note_on_c, 3, 51, 92
6, 122000, Note_off_c, 3, 51, 64
6, 122160, Note_on_c, 3, 54, 92
6, 122240, Note_off_c, 3, 54, 64
6, 122400, Note_on_c, 3, 47, 92
6, 122480, Note_off_c, 3, 47, 64
6, 123360, Note_on_c, 3, 44, 92
6, 123840, Note_off_c, 3, 44, 64
6, 123840, Note_on_c, 3, 41, 92
6, 124240, Note_off_c, 3, 41, 64
6, 124320, Note_on_c, 3, 44, 92
6, 124720, Note_off_c, 3, 44, 64
6, 124800, Note_on_c, 3, 47, 92
6, 125200, Note_off_c, 3, 47, 64
6, 125280, Note_on_c, 3, 42, 92
6, 125680, Note_off_c, 3, 42, 64
6, 125760, Note_on_c, 3, 45, 92
6, 126160, Note_off_c, 3, 45, 64
6, 126240, Note_on_c, 3, 49, 92
6, 126640, Note_off_c, 3, 49, 64
6, 126720, Note_on_c, 3, 47, 92
6, 128040, Note_off_c, 3, 47, 64
6, 128160, Note_on_c, 3, 37, 45
6, 129600, Note_off_c, 3, 37, 64
6, 129600, Note_on_c, 3, 37, 45
6, 131040, Note_off_c, 3, 37, 64
6, 131040, Note_on_c, 3, 37, 60
6, 132360, Note_off_c, 3, 37, 64
6, 132480, Note_on_c, 3, 37, 75
6, 133320, Note_off_c, 3, 37, 64
6, 133440, Note_on_c, 3, 37, 92
6, 133840, Note_off_c, 3, 37, 64
6, 133920, Note_on_c, 3, 42, 92
6, 134320, Note_off_c, 3, 42, 64
6, 134400, Note_on_c, 3, 45, 92
6, 134800, Note_off_c, 3, 45, 64
6, 134880, Note_on_c, 3, 49, 92
6, 135280, Note_off_c, 3, 49, 64
6, 135360, Note_on_c, 3, 47, 60
6, 135760, Note_off_c, 3, 47, 64
6, 135840, Note_on_c, 3, 56, 60
6, 136240, Note_off_c, 3, 56, 64
6, 136320, Note_on_c, 3, 54, 60
6, 136720, Note_off_c, 3, 54, 64
6, 136800, Note_on_c, 3, 56, 60
6, 137200, Note_off_c, 3, 56, 64
6, 137280, Note_on_c, 3, 53, 60
6, 137680, Note_off_c, 3, 53, 64
6, 137760, Note_on_c, 3, 54, 60
6, 138160, Note_off_c, 3, 54, 64
6, 138240, Note_on_c, 3, 49, 45
6, 139560, Note_off_c, 3, 49, 64
6, 139680, Note_on_c, 3, 49, 45
6, 141000, Note_off_c, 3, 49, 64
6, 141120, Note_on_c, 3, 54, 45
6, 142560, Note_off_c, 3, 54, 64
6, 142560, Note_on_c, 3, 49, 45
6, 144000, Note_off_c, 3, 49, 64
6, 144000, Note_on_c, 3, 54, 68
6, 145320, Note_off_c, 3, 54, 64
6, 145440, Note_on_c, 3, 49, 92
6, 150160, Note_off_c, 3, 49, 64
6, 150240, Note_on_c, 3, 49, 108
6, 150480, Note_off_c, 3, 49, 64
6, 150480, Note_on_c, 3, 51, 108
6, 150720, Note_off_c, 3, 51, 64
6, 150720, Note_on_c, 3, 53, 108
6, 151120, Note_off_c, 3, 53, 64
6, 151200, Note_on_c, 3, 54, 108
6, 151600, Note_off_c, 3, 54, 64
6, 151680, Note_on_c, 3, 42, 108
6, 151920, Note_off_c, 3, 42, 64
6, 151920, Note_on_c, 3, 44, 108
6, 152160, Note_off_c, 3, 44, 64
6, 152160, Note_on_c, 3, 45, 108
6, 152560, Note_off_c, 3, 45, 64
6, 152640, Note_on_c, 3, 53, 60
6, 153040, Note_off_c, 3, 53, 64
6, 153120, Note_on_c, 3, 49, 60
6, 153520, Note_off_c, 3, 49, 64
6, 153600, Note_on_c, 3, 54, 60
6, 154000, Note_off_c, 3, 54, 64
6, 154080, Note_on_c, 3, 54, 60
6, 154480, Note_off_c, 3, 54, 64
6, 154560, Note_on_c, 3, 49, 60
6, 154960, Note_off_c, 3, 49, 64
6, 155040, Note_on_c, 3, 49, 60
6, 155440, Note_off_c, 3, 49, 64
6, 155520, Note_on_c, 3, 54, 45
6, 158400, Note_off_c, 3, 54, 64
6, 158400, Note_on_c, 3, 52, 45
6, 159840, Note_off_c, 3, 52, 64
6, 159840, Note_on_c, 3, 54, 45
6, 161280, Note_off_c, 3, 54, 64
6, 161280, Note_on_c, 3, 47, 45
6, 162600, Note_off_c, 3, 47, 64
6, 162720, Note_on_c, 3, 47, 45
6, 164160, Note_off_c, 3, 47, 64
6, 164160, Note_on_c, 3, 45, 45
6, 164560, Note_off_c, 3, 45, 64
6, 164640, Note_on_c, 3, 49, 45
6, 165040, Note_off_c, 3, 49, 64
6, 165120, Note_on_c, 3, 52, 45
6, 165520, Note_off_c, 3, 52, 64
6, 165600, Note_on_c, 3, 45, 45
6, 167040, Note_off_c, 3, 45, 64
6, 167040, Note_on_c, 3, 47, 45
6, 167440, Note_off_c, 3, 47, 64
6, 167520, Note_on_c, 3, 51, 45
6, 167920, Note_off_c, 3, 51, 64
6, 168000, Note_on_c, 3, 54, 45
6, 168400, Note_off_c, 3, 54, 64
6, 168480, Note_on_c, 3, 52, 45
6, 169800, Note_off_c, 3, 52, 64
6, 169920, Note_on_c, 3, 57, 45
6, 171240, Note_off_c, 3, 57, 64
6, 171360, Note_on_c, 3, 59, 48
6, 172680, Note_off_c, 3, 59, 64
6, 172800, Note_on_c, 3, 52, 52
6, 174120, Note_off_c, 3, 52, 64
6, 174240, Note_on_c, 3, 54, 56
6, 175560, Note_off_c, 3, 54, 64
6, 175680, Note_on_c, 3, 47, 60
6, 176080, Note_off_c, 3, 47, 64
6, 176160, Note_on_c, 3, 51, 60
6, 176560, Note_off_c, 3, 51, 64
6, 176640, Note_on_c, 3, 54, 60
6, 177040, Note_off_c, 3, 54, 64
6, 177120, Note_on_c, 3, 51, 60
6, 177520, Note_off_c, 3, 51, 64
6, 177600, Note_on_c, 3, 54, 60
6, 178000, Note_off_c, 3, 54, 64
6, 178080, Note_on_c, 3, 59, 60
6, 178480, Note_off_c, 3, 59, 64
6, 178560, Note_on_c, 3, 47, 60
6, 179400, Note_off_c, 3, 47, 64
6, 179520, Note_on_c, 3, 45, 60
6, 179920, Note_off_c, 3, 45, 64
6, 180000, Note_on_c, 3, 45, 60
6, 180400, Note_off_c, 3, 45, 64
6, 180480, Note_on_c, 3, 49, 60
6, 180880, Note_off_c, 3, 49, 64
6, 180960, Note_on_c, 3, 52, 60
6, 181360, Note_off_c, 3, 52, 64
6, 181440, Note_on_c, 3, 52, 60
6, 181840, Note_off_c, 3, 52, 64
6, 181920, Note_on_c, 3, 47, 60
6, 182320, Note_off_c, 3, 47, 64
6, 182400, Note_on_c, 3, 44, 60
6, 182800, Note_off_c, 3, 44, 64
6, 182880, Note_on_c, 3, 47, 60
6, 183280, Note_off_c, 3, 47, 64
6, 183360, Note_on_c, 3, 51, 69
6, 183760, Note_off_c, 3, 51, 64
6, 183840, Note_on_c, 3, 54, 78
6, 184240, Note_off_c, 3, 54, 64
6, 184320, Note_on_c, 3, 56, 88
6, 184720, Note_off_c, 3, 56, 64
6, 184800, Note_on_c, 3, 52, 98
6, 185200, Note_off_c, 3, 52, 64
6, 185280, Note_on_c, 3, 47, 108
6, 185680, Note_off_c, 3, 47, 64
6, 185760, Note_on_c, 3, 52, 75
6, 187080, Note_off_c, 3, 52, 64
6, 187200, Note_on_c, 3, 57, 75
6, 188520, Note_off_c, 3, 57, 64
6, 188640, Note_on_c, 3, 52, 75
6, 189960, Note_off_c, 3, 52, 64
6, 190080, Note_on_c, 3, 45, 75
6, 190480, Note_off_c, 3, 45, 64
6, 190560, Note_on_c, 3, 54, 80
6, 190795, Note_off_c, 3, 54, 64
6, 190800, Note_on_c, 3, 52, 83
6, 191035, Note_off_c, 3, 52, 64
6, 191040, Note_on_c, 3, 51, 86
6, 191275, Note_off_c, 3, 51, 64
6, 191280, Note_on_c, 3, 49, 89
6, 191515, Note_off_c, 3, 49, 64
6, 191520, Note_on_c, 3, 47, 92
6, 192480, Note_off_c, 3, 47, 64
6, 192480, Note_on_c, 3, 52, 92
6, 192880, Note_off_c, 3, 52, 64
6, 192960, Note_on_c, 3, 45, 92
6, 193440, Note_off_c, 3, 45, 64
6, 193440, Note_on_c, 3, 47, 92
6, 193840, Note_off_c, 3, 47, 64
6, 193920, Note_on_c, 3, 47, 92
6, 194320, Note_off_c, 3, 47, 64
6, 194400, Note_on_c, 3, 40, 92
6, 194800, Note_off_c, 3, 40, 64
6, 194880, Note_on_c, 3, 44, 94
6, 195120, Note_off_c, 3, 44, 64
6, 195120, Note_on_c, 3, 45, 95
6, 195360, Note_off_c, 3, 45, 64
6, 195360, Note_on_c, 3, 47, 96
6, 195760, Note_off_c, 3, 47, 64
6, 195840, Note_on_c, 3, 52, 99
6, 196240, Note_off_c, 3, 52, 64
6, 196320, Note_on_c, 3, 56, 102
6, 196560, Note_off_c, 3, 56, 64
6, 196560, Note_on_c, 3, 57, 103
6, 196800, Note_off_c, 3, 57, 64
6, 196800, Note_on_c, 3, 59, 104
6, 197200, Note_off_c, 3, 59, 64
6, 197280, Note_on_c, 3, 52, 108
6, 199195, Note_off_c, 3, 52, 64
6, 199195, End_track
7, 0, Start_track
7, 0, MIDI_port, 0
7, 0, Channel_prefix, 4
7, 0, Control_c, 4, 7, 101
7, 0, Control_c, 4, 10, 35
7, 0, Control_c, 4, 91, 45
7, 0, Program_c, 4, 60
7, 0, Note_on_c, 4, 59, 92
7, 0, Note_on_c, 4, 64, 92
7, 400, Note_off_c, 4, 64, 64
7, 400, Note_off_c, 4, 59, 64
7, 1440, Note_on_c, 4, 59, 92
7, 1440, Note_on_c, 4, 64, 92
7, 1840, Note_off_c, 4, 64, 64
7, 1840, Note_off_c, 4, 59, 64
7, 2880, Note_on_c, 4, 68, 92
7, 3595, Note_off_c, 4, 68, 64
7, 3600, Note_on_c, 4, 69, 92
7, 3840, Note_off_c, 4, 69, 64
7, 3840, Note_on_c, 4, 68, 92
7, 4080, Note_off_c, 4, 68, 64
7, 4080, Note_on_c, 4, 66, 92
7, 4320, Note_off_c, 4, 66, 64
7, 4320, Note_on_c, 4, 56, 92
7, 4320, Note_on_c, 4, 64, 92
7, 5280, Note_off_c, 4, 64, 64
7, 5280, Note_off_c, 4, 56, 64
7, 5280, Note_on_c, 4, 54, 92
7, 5280, Note_on_c, 4, 66, 92
7, 5680, Note_off_c, 4, 66, 64
7, 5680, Note_off_c, 4, 54, 64
7, 5760, Note_on_c, 4, 68, 60
7, 6475, Note_off_c, 4, 68, 64
7, 6480, Note_on_c, 4, 69, 60
7, 6720, Note_off_c, 4, 69, 64
7, 6720, Note_on_c, 4, 68, 60
7, 6960, Note_off_c, 4, 68, 64
7, 6960, Note_on_c, 4, 66, 60
7, 7200, Note_off_c, 4, 66, 64
7, 7200, Note_on_c, 4, 56, 60
7, 7200, Note_on_c, 4, 64, 60
7, 8160, Note_off_c, 4, 64, 64
7, 8160, Note_off_c, 4, 56, 64
7, 8160, Note_on_c, 4, 54, 60
7, 8160, Note_on_c, 4, 66, 60
7, 8560, Note_off_c, 4, 66, 64
7, 8560, Note_off_c, 4, 54, 64
7, 8640, Note_on_c, 4, 64, 45
7, 8640, Note_on_c, 4, 68, 45
7, 9600, Note_off_c, 4, 68, 64
7, 9600, Note_off_c, 4, 64, 64
7, 9600, Note_on_c, 4, 64, 60
7, 9600, Note_on_c, 4, 69, 60
7, 10080, Note_off_c, 4, 69, 64
7, 10080, Note_off_c, 4, 64, 64
7, 10080, Note_on_c, 4, 64, 68
7, 10080, Note_on_c, 4, 68, 68
7, 11040, Note_off_c, 4, 68, 64
7, 11040, Note_off_c, 4, 64, 64
7, 11040, Note_on_c, 4, 61, 84
7, 11040, Note_on_c, 4, 66, 84
7, 11440, Note_off_c, 4, 66, 64
7, 11440, Note_off_c, 4, 61, 64
7, 11520, Note_on_c, 4, 68, 92
7, 12235, Note_off_c, 4, 68, 64
7, 12240, Note_on_c, 4, 69, 92
7, 12480, Note_off_c, 4, 69, 64
7, 12480, Note_on_c, 4, 68, 92
7, 12720, Note_off_c, 4, 68, 64
7, 12720, Note_on_c, 4, 66, 92
7, 12960, Note_off_c, 4, 66, 64
7, 12960, Note_on_c, 4, 56, 92
7, 12960, Note_on_c, 4, 64, 92
7, 13920, Note_off_c, 4, 64, 64
7, 13920, Note_off_c, 4, 56, 64
7, 13920, Note_on_c, 4, 54, 92
7, 13920, Note_on_c, 4, 66, 92
7, 14320, Note_off_c, 4, 66, 64
7, 14320, Note_off_c, 4, 54, 64
7, 14400, Note_on_c, 4, 68, 60
7, 15115, Note_off_c, 4, 68, 64
7, 15120, Note_on_c, 4, 69, 60
7, 15360, Note_off_c, 4, 69, 64
7, 15360, Note_on_c, 4, 68, 60
7, 15600, Note_off_c, 4, 68, 64
7, 15600, Note_on_c, 4, 66, 60
7, 15840, Note_off_c, 4, 66, 64
7, 15840, Note_on_c, 4, 56, 60
7, 15840, Note_on_c, 4, 64, 60
7, 16800, Note_off_c, 4, 64, 64
7, 16800, Note_off_c, 4, 56, 64
7, 16800, Note_on_c, 4, 54, 70
7, 16800, Note_on_c, 4, 66, 70
7, 17200, Note_off_c, 4, 66, 64
7, 17200, Note_off_c, 4, 54, 64
7, 17280, Note_on_c, 4, 59, 75
7, 17280, Note_on_c, 4, 68, 75
7, 17360, Note_off_c, 4, 68, 64
7, 17360, Note_off_c, 4, 59, 64
7, 17520, Note_on_c, 4, 59, 75
7, 17520, Note_on_c, 4, 68, 75
7, 17920, Note_off_c, 4, 68, 64
7, 17920, Note_off_c, 4, 59, 64
7, 18000, Note_on_c, 4, 59, 75
7, 18000, Note_on_c, 4, 68, 75
7, 18400, Note_off_c, 4, 68, 64
7, 18400, Note_off_c, 4, 59, 64
7, 18480, Note_on_c, 4, 59, 75
7, 18480, Note_on_c, 4, 68, 75
7, 18955, Note_off_c, 4, 68, 64
7, 18955, Note_off_c, 4, 59, 64
7, 18960, Note_on_c, 4, 68, 92
7, 19200, Note_off_c, 4, 68, 64
7, 19200, Note_on_c, 4, 66, 92
7, 19440, Note_off_c, 4, 66, 64
7, 19440, Note_on_c, 4, 68, 92
7, 19680, Note_off_c, 4, 68, 64
7, 19680, Note_on_c, 4, 64, 92
7, 19920, Note_off_c, 4, 64, 64
7, 19920, Note_on_c, 4, 66, 92
7, 20155, Note_off_c, 4, 66, 64
7, 20160, Note_on_c, 4, 59, 60
7, 20160, Note_on_c, 4, 68, 60
7, 20240, Note_off_c, 4, 68, 64
7, 20240, Note_off_c, 4, 59, 64
7, 20400, Note_on_c, 4, 59, 60
7, 20400, Note_on_c, 4, 68, 60
7, 20800, Note_off_c, 4, 68, 64
7, 20800, Note_off_c, 4, 59, 64
7, 20880, Note_on_c, 4, 59, 60
7, 20880, Note_on_c, 4, 68, 60
7, 21280, Note_off_c, 4, 68, 64
7, 21280, Note_off_c, 4, 59, 64
7, 21360, Note_on_c, 4, 59, 60
7, 21360, Note_on_c, 4, 68, 60
7, 21835, Note_off_c, 4, 68, 64
7, 21835, Note_off_c, 4, 59, 64
7, 21840, Note_on_c, 4, 68, 75
7, 22080, Note_off_c, 4, 68, 64
7, 22080, Note_on_c, 4, 66, 75
7, 22320, Note_off_c, 4, 66, 64
7, 22320, Note_on_c, 4, 68, 75
7, 22560, Note_off_c, 4, 68, 64
7, 22560, Note_on_c, 4, 64, 75
7, 22800, Note_off_c, 4, 64, 64
7, 22800, Note_on_c, 4, 66, 75
7, 23035, Note_off_c, 4, 66, 64
7, 23040, Note_on_c, 4, 76, 60
7, 24480, Note_off_c, 4, 76, 64
7, 24480, Note_on_c, 4, 75, 60
7, 25920, Note_off_c, 4, 75, 64
7, 25920, Note_on_c, 4, 74, 60
7, 27360, Note_off_c, 4, 74, 64
7, 27360, Note_on_c, 4, 73, 60
7, 28680, Note_off_c, 4, 73, 64
7, 28800, Note_on_c, 4, 64, 75
7, 28800, Note_on_c, 4, 71, 75
7, 30240, Note_off_c, 4, 71, 64
7, 30240, Note_off_c, 4, 64, 64
7, 30240, Note_on_c, 4, 64, 75
7, 30240, Note_on_c, 4, 71, 75
7, 31560, Note_off_c, 4, 71, 64
7, 31560, Note_off_c, 4, 64, 64
7, 31680, Note_on_c, 4, 64, 60
7, 31680, Note_on_c, 4, 73, 60
7, 33120, Note_off_c, 4, 73, 64
7, 33120, Note_off_c, 4, 64, 64
7, 33120, Note_on_c, 4, 66, 60
7, 33120, Note_on_c, 4, 75, 60
7, 34560, Note_off_c, 4, 75, 64
7, 34560, Note_off_c, 4, 66, 64
7, 34560, Note_on_c, 4, 64, 60
7, 34560, Note_on_c, 4, 75, 60
7, 36000, Note_off_c, 4, 75, 64
7, 36000, Note_off_c, 4, 64, 64
7, 36000, Note_on_c, 4, 64, 60
7, 36000, Note_on_c, 4, 73, 60
7, 38880, Note_off_c, 4, 73, 64
7, 38880, Note_off_c, 4, 64, 64
7, 38880, Note_on_c, 4, 66, 60
7, 38880, Note_on_c, 4, 71, 60
7, 40200, Note_off_c, 4, 71, 64
7, 40200, Note_off_c, 4, 66, 64
7, 40320, Note_on_c, 4, 59, 75
7, 40320, Note_on_c, 4, 64, 75
7, 40720, Note_off_c, 4, 64, 64
7, 40720, Note_off_c, 4, 59, 64
7, 41760, Note_on_c, 4, 59, 78
7, 41760, Note_on_c, 4, 63, 78
7, 42160, Note_off_c, 4, 63, 64
7, 42160, Note_off_c, 4, 59, 64
7, 43200, Note_on_c, 4, 59, 82
7, 43200, Note_on_c, 4, 62, 82
7, 43600, Note_off_c, 4, 62, 64
7, 43600, Note_off_c, 4, 59, 64
7, 45600, Note_on_c, 4, 59, 92
7, 45600, Note_on_c, 4, 64, 92
7, 46080, Note_off_c, 4, 64, 64
7, 46080, Note_off_c, 4, 59, 64
7, 46080, Note_on_c, 4, 61, 45
7, 46080, Note_on_c, 4, 65, 45
7, 46480, Note_off_c, 4, 65, 64
7, 46480, Note_off_c, 4, 61, 64
7, 47520, Note_on_c, 4, 61, 45
7, 47520, Note_on_c, 4, 65, 45
7, 47920, Note_off_c, 4, 65, 64
7, 47920, Note_off_c, 4, 61, 64
7, 48960, Note_on_c, 4, 61, 68
7, 48960, Note_on_c, 4, 65, 68
7, 49360, Note_off_c, 4, 65, 64
7, 49360, Note_off_c, 4, 61, 64
7, 51360, Note_on_c, 4, 61, 108
7, 51360, Note_on_c, 4, 65, 108
7, 51840, Note_off_c, 4, 65, 64
7, 51840, Note_off_c, 4, 61, 64
7, 51840, Note_on_c, 4, 66, 108
7, 52080, Note_off_c, 4, 66, 64
7, 52080, Note_on_c, 4, 68, 108
7, 52320, Note_off_c, 4, 68, 64
7, 52320, Note_on_c, 4, 69, 108
7, 52560, Note_off_c, 4, 69, 64
7, 52560, Note_on_c, 4, 66, 108
7, 52800, Note_off_c, 4, 66, 64
7, 52800, Note_on_c, 4, 68, 108
7, 53200, Note_off_c, 4, 68, 64
7, 53280, Note_on_c, 4, 64, 108
7, 53520, Note_off_c, 4, 64, 64
7, 53520, Note_on_c, 4, 66, 108
7, 53760, Note_off_c, 4, 66, 64
7, 53760, Note_on_c, 4, 68, 108
7, 54000, Note_off_c, 4, 68, 64
7, 54000, Note_on_c, 4, 64, 108
7, 54240, Note_off_c, 4, 64, 64
7, 54240, Note_on_c, 4, 66, 108
7, 54640, Note_off_c, 4, 66, 64
7, 54720, Note_on_c, 4, 63, 92
7, 54720, Note_on_c, 4, 68, 92
7, 57480, Note_off_c, 4, 68, 64
7, 57480, Note_off_c, 4, 63, 64
7, 57600, Note_on_c, 4, 63, 75
7, 57600, Note_on_c, 4, 68, 75
7, 60360, Note_off_c, 4, 68, 64
7, 60360, Note_off_c, 4, 63, 64
7, 60480, Note_on_c, 4, 63, 60
7, 60480, Note_on_c, 4, 66, 60
7, 61920, Note_off_c, 4, 66, 64
7, 61920, Note_off_c, 4, 63, 64
7, 61920, Note_on_c, 4, 56, 60
7, 61920, Note_on_c, 4, 64, 60
7, 63240, Note_off_c, 4, 64, 64
7, 63240, Note_off_c, 4, 56, 64
7, 63360, Note_on_c, 4, 63, 45
7, 63360, Note_on_c, 4, 66, 45
7, 64800, Note_off_c, 4, 66, 64
7, 64800, Note_off_c, 4, 63, 64
7, 64800, Note_on_c, 4, 56, 45
7, 64800, Note_on_c, 4, 64, 45
7, 66120, Note_off_c, 4, 64, 64
7, 66120, Note_off_c, 4, 56, 64
7, 66240, Note_on_c, 4, 61, 60
7, 66240, Note_on_c, 4, 67, 60
7, 67680, Note_off_c, 4, 67, 64
7, 67680, Note_off_c, 4, 61, 64
7, 67680, Note_on_c, 4, 61, 45
7, 67680, Note_on_c, 4, 67, 45
7, 69120, Note_off_c, 4, 67, 64
7, 69120, Note_off_c, 4, 61, 64
7, 69120, Note_on_c, 4, 64, 75
7, 69120, Note_on_c, 4, 68, 75
7, 70560, Note_off_c, 4, 68, 64
7, 70560, Note_off_c, 4, 64, 64
7, 70560, Note_on_c, 4, 63, 45
7, 70560, Note_on_c, 4, 68, 45
7, 72000, Note_off_c, 4, 68, 64
7, 72000, Note_off_c, 4, 63, 64
7, 72000, Note_on_c, 4, 64, 92
7, 72000, Note_on_c, 4, 68, 92
7, 72400, Note_off_c, 4, 68, 64
7, 72400, Note_off_c, 4, 64, 64
7, 73440, Note_on_c, 4, 64, 92
7, 73440, Note_on_c, 4, 68, 92
7, 73840, Note_off_c, 4, 68, 64
7, 73840, Note_off_c, 4, 64, 64
7, 74880, Note_on_c, 4, 58, 92
7, 74880, Note_on_c, 4, 66, 92
7, 76320, Note_off_c, 4, 66, 64
7, 76320, Note_off_c, 4, 58, 64
7, 76320, Note_on_c, 4, 58, 60
7, 76320, Note_on_c, 4, 66, 60
7, 77640, Note_off_c, 4, 66, 64
7, 77640, Note_off_c, 4, 58, 64
7, 77760, Note_on_c, 4, 59, 92
7, 77760, Note_on_c, 4, 66, 92
7, 78160, Note_off_c, 4, 66, 64
7, 78160, Note_off_c, 4, 59, 64
7, 79200, Note_on_c, 4, 59, 75
7, 79200, Note_on_c, 4, 66, 75
7, 79600, Note_off_c, 4, 66, 64
7, 79600, Note_off_c, 4, 59, 64
7, 80640, Note_on_c, 4, 62, 92
7, 80640, Note_on_c, 4, 68, 92
7, 82080, Note_off_c, 4, 68, 64
7, 82080, Note_off_c, 4, 62, 64
7, 82080, Note_on_c, 4, 62, 45
7, 82080, Note_on_c, 4, 68, 45
7, 82315, Note_off_c, 4, 68, 64
7, 82315, Note_off_c, 4, 62, 64
7, 82320, Note_on_c, 4, 68, 75
7, 82400, Note_off_c, 4, 68, 64
7, 82440, Note_on_c, 4, 66, 75
7, 82520, Note_off_c, 4, 66, 64
7, 82560, Note_on_c, 4, 68, 75
7, 82640, Note_off_c, 4, 68, 64
7, 82800, Note_on_c, 4, 66, 75
7, 82880, Note_off_c, 4, 66, 64
7, 83040, Note_on_c, 4, 68, 75
7, 83120, Note_off_c, 4, 68, 64
7, 83280, Note_on_c, 4, 64, 75
7, 83360, Note_off_c, 4, 64, 64
7, 83520, Note_on_c, 4, 73, 92
7, 84235, Note_off_c, 4, 73, 64
7, 84240, Note_on_c, 4, 74, 92
7, 84480, Note_off_c, 4, 74, 64
7, 84480, Note_on_c, 4, 73, 92
7, 84720, Note_off_c, 4, 73, 64
7, 84720, Note_on_c, 4, 71, 92
7, 84960, Note_off_c, 4, 71, 64
7, 84960, Note_on_c, 4, 61, 92
7, 84960, Note_on_c, 4, 69, 92
7, 85920, Note_off_c, 4, 69, 64
7, 85920, Note_off_c, 4, 61, 64
7, 85920, Note_on_c, 4, 64, 92
7, 85920, Note_on_c, 4, 71, 92
7, 86320, Note_off_c, 4, 71, 64
7, 86320, Note_off_c, 4, 64, 64
7, 86400, Note_on_c, 4, 73, 60
7, 87115, Note_off_c, 4, 73, 64
7, 87120, Note_on_c, 4, 74, 60
7, 87360, Note_off_c, 4, 74, 64
7, 87360, Note_on_c, 4, 73, 60
7, 87600, Note_off_c, 4, 73, 64
7, 87600, Note_on_c, 4, 71, 60
7, 87840, Note_off_c, 4, 71, 64
7, 87840, Note_on_c, 4, 61, 60
7, 87840, Note_on_c, 4, 69, 60
7, 88800, Note_off_c, 4, 69, 64
7, 88800, Note_off_c, 4, 61, 64
7, 88800, Note_on_c, 4, 64, 60
7, 88800, Note_on_c, 4, 71, 60
7, 89200, Note_off_c, 4, 71, 64
7, 89200, Note_off_c, 4, 64, 64
7, 89280, Note_on_c, 4, 69, 92
7, 89280, Note_on_c, 4, 73, 92
7, 90240, Note_off_c, 4, 73, 64
7, 90240, Note_off_c, 4, 69, 64
7, 90240, Note_on_c, 4, 69, 92
7, 90240, Note_on_c, 4, 74, 92
7, 90720, Note_off_c, 4, 74, 64
7, 90720, Note_off_c, 4, 69, 64
7, 90720, Note_on_c, 4, 69, 92
7, 90720, Note_on_c, 4, 73, 92
7, 90955, Note_off_c, 4, 73, 64
7, 90955, Note_off_c, 4, 69, 64
7, 90960, Note_on_c, 4, 73, 92
7, 91200, Note_off_c, 4, 73, 64
7, 91200, Note_on_c, 4, 71, 92
7, 91440, Note_off_c, 4, 71, 64
7, 91440, Note_on_c, 4, 73, 92
7, 91680, Note_off_c, 4, 73, 64
7, 91680, Note_on_c, 4, 74, 92
7, 91920, Note_off_c, 4, 74, 64
7, 91920, Note_on_c, 4, 71, 92
7, 92155, Note_off_c, 4, 71, 64
7, 92160, Note_on_c, 4, 73, 75
7, 92875, Note_off_c, 4, 73, 64
7, 92880, Note_on_c, 4, 74, 75
7, 93120, Note_off_c, 4, 74, 64
7, 93120, Note_on_c, 4, 73, 75
7, 93360, Note_off_c, 4, 73, 64
7, 93360, Note_on_c, 4, 71, 75
7, 93600, Note_off_c, 4, 71, 64
7, 93600, Note_on_c, 4, 73, 75
7, 93835, Note_off_c, 4, 73, 64
7, 93840, Note_on_c, 4, 73, 75
7, 94080, Note_off_c, 4, 73, 64
7, 94080, Note_on_c, 4, 71, 75
7, 94320, Note_off_c, 4, 71, 64
7, 94320, Note_on_c, 4, 73, 75
7, 94560, Note_off_c, 4, 73, 64
7, 94560, Note_on_c, 4, 74, 75
7, 94800, Note_off_c, 4, 74, 64
7, 94800, Note_on_c, 4, 71, 75
7, 95035, Note_off_c, 4, 71, 64
7, 95040, Note_on_c, 4, 57, 108
7, 95040, Note_on_c, 4, 69, 108
7, 96360, Note_off_c, 4, 69, 64
7, 96360, Note_off_c, 4, 57, 64
7, 96480, Note_on_c, 4, 56, 108
7, 96480, Note_on_c, 4, 68, 108
7, 97920, Note_off_c, 4, 68, 64
7, 97920, Note_off_c, 4, 56, 64
7, 97920, Note_on_c, 4, 55, 108
7, 97920, Note_on_c, 4, 67, 108
7, 99360, Note_off_c, 4, 67, 64
7, 99360, Note_off_c, 4, 55, 64
7, 99360, Note_on_c, 4, 54, 108
7, 99360, Note_on_c, 4, 66, 108
7, 100800, Note_off_c, 4, 66, 64
7, 100800, Note_off_c, 4, 54, 64
7, 100800, Note_on_c, 4, 52, 108
7, 100800, Note_on_c, 4, 64, 108
7, 102120, Note_off_c, 4, 64, 64
7, 102120, Note_off_c, 4, 52, 64
7, 102240, Note_on_c, 4, 61, 92
7, 102240, Note_on_c, 4, 64, 92
7, 103680, Note_off_c, 4, 64, 64
7, 103680, Note_off_c, 4, 61, 64
7, 103680, Note_on_c, 4, 62, 92
7, 103680, Note_on_c, 4, 66, 92
7, 105120, Note_off_c, 4, 66, 64
7, 105120, Note_off_c, 4, 62, 64
7, 105120, Note_on_c, 4, 62, 92
7, 105120, Note_on_c, 4, 66, 92
7, 106560, Note_off_c, 4, 66, 64
7, 106560, Note_off_c, 4, 62, 64
7, 106560, Note_on_c, 4, 57, 76
7, 106560, Note_on_c, 4, 61, 76
7, 106560, Note_on_c, 4, 64, 76
7, 108000, Note_off_c, 4, 64, 64
7, 108000, Note_off_c, 4, 61, 64
7, 108000, Note_off_c, 4, 57, 64
7, 108000, Note_on_c, 4, 57, 60
7, 108000, Note_on_c, 4, 61, 60
7, 108000, Note_on_c, 4, 64, 60
7, 109440, Note_off_c, 4, 64, 64
7, 109440, Note_off_c, 4, 61, 64
7, 109440, Note_off_c, 4, 57, 64
7, 109440, Note_on_c, 4, 57, 60
7, 109440, Note_on_c, 4, 62, 60
7, 110880, Note_off_c, 4, 62, 64
7, 110880, Note_off_c, 4, 57, 64
7, 110880, Note_on_c, 4, 59, 45
7, 110880, Note_on_c, 4, 62, 45
7, 112320, Note_off_c, 4, 62, 64
7, 112320, Note_off_c, 4, 59, 64
7, 112320, Note_on_c, 4, 64, 60
7, 112320, Note_on_c, 4, 69, 60
7, 112800, Note_off_c, 4, 69, 64
7, 112800, Note_off_c, 4, 64, 64
7, 113760, Note_on_c, 4, 64, 68
7, 113760, Note_on_c, 4, 68, 68
7, 114240, Note_off_c, 4, 68, 64
7, 114240, Note_off_c, 4, 64, 64
7, 115200, Note_on_c, 4, 64, 77
7, 115200, Note_on_c, 4, 67, 77
7, 115600, Note_off_c, 4, 67, 64
7, 115600, Note_off_c, 4, 64, 64
7, 117600, Note_on_c, 4, 61, 92
7, 117600, Note_on_c, 4, 66, 92
7, 118080, Note_off_c, 4, 66, 64
7, 118080, Note_off_c, 4, 61, 64
7, 118080, Note_on_c, 4, 66, 45
7, 118080, Note_on_c, 4, 71, 45
7, 118480, Note_off_c, 4, 71, 64
7, 118480, Note_off_c, 4, 66, 64
7, 119520, Note_on_c, 4, 66, 57
7, 119520, Note_on_c, 4, 71, 57
7, 119920, Note_off_c, 4, 71, 64
7, 119920, Note_off_c, 4, 66, 64
7, 120960, Note_on_c, 4, 66, 69
7, 120960, Note_on_c, 4, 71, 69
7, 121360, Note_off_c, 4, 71, 64
7, 121360, Note_off_c, 4, 66, 64
7, 123360, Note_on_c, 4, 63, 92
7, 123360, Note_on_c, 4, 68, 92
7, 123840, Note_off_c, 4, 68, 64
7, 123840, Note_off_c, 4, 63, 64
7, 123840, Note_on_c, 4, 65, 92
7, 123840, Note_on_c, 4, 68, 92
7, 125280, Note_off_c, 4, 68, 64
7, 125280, Note_off_c, 4, 65, 64
7, 125280, Note_on_c, 4, 61, 92
7, 125280, Note_on_c, 4, 66, 92
7, 126720, Note_off_c, 4, 66, 64
7, 126720, Note_off_c, 4, 61, 64
7, 126720, Note_on_c, 4, 62, 92
7, 126720, Note_on_c, 4, 66, 92
7, 128040, Note_off_c, 4, 66, 64
7, 128040, Note_off_c, 4, 62, 64
7, 128160, Note_on_c, 4, 65, 45
7, 128160, Note_on_c, 4, 68, 45
7, 129600, Note_off_c, 4, 68, 64
7, 129600, Note_off_c, 4, 65, 64
7, 129600, Note_on_c, 4, 65, 45
7, 129600, Note_on_c, 4, 68, 45
7, 131040, Note_off_c, 4, 68, 64
7, 131040, Note_off_c, 4, 65, 64
7, 131040, Note_on_c, 4, 65, 60
7, 131040, Note_on_c, 4, 68, 60
7, 132360, Note_off_c, 4, 68, 64
7, 132360, Note_off_c, 4, 65, 64
7, 132480, Note_on_c, 4, 65, 75
7, 132480, Note_on_c, 4, 71, 75
7, 133800, Note_off_c, 4, 71, 64
7, 133800, Note_off_c, 4, 65, 64
7, 133920, Note_on_c, 4, 61, 75
7, 133920, Note_on_c, 4, 69, 75
7, 134760, Note_off_c, 4, 69, 64
7, 134760, Note_off_c, 4, 61, 64
7, 134880, Note_on_c, 4, 65, 75
7, 134880, Note_on_c, 4, 68, 75
7, 135280, Note_off_c, 4, 68, 64
7, 135280, Note_off_c, 4, 65, 64
7, 135360, Note_on_c, 4, 59, 60
7, 135360, Note_on_c, 4, 66, 60
7, 135760, Note_off_c, 4, 66, 64
7, 135760, Note_off_c, 4, 59, 64
7, 135840, Note_on_c, 4, 59, 60
7, 135840, Note_on_c, 4, 66, 60
7, 136240, Note_off_c, 4, 66, 64
7, 136240, Note_off_c, 4, 59, 64
7, 136320, Note_on_c, 4, 61, 60
7, 136320, Note_on_c, 4, 64, 60
7, 136720, Note_off_c, 4, 64, 64
7, 136720, Note_off_c, 4, 61, 64
7, 136800, Note_on_c, 4, 59, 60
7, 136800, Note_on_c, 4, 62, 60
7, 137200, Note_off_c, 4, 62, 64
7, 137200, Note_off_c, 4, 59, 64
7, 137280, Note_on_c, 4, 59, 60
7, 137280, Note_on_c, 4, 62, 60
7, 137680, Note_off_c, 4, 62, 64
7, 137680, Note_off_c, 4, 59, 64
7, 137760, Note_on_c, 4, 61, 60
7, 137760, Note_on_c, 4, 66, 60
7, 138160, Note_off_c, 4, 66, 64
7, 138160, Note_off_c, 4, 61, 64
7, 138240, Note_on_c, 4, 61, 60
7, 138240, Note_on_c, 4, 68, 60
7, 138960, Note_off_c, 4, 68, 64
7, 138960, Note_off_c, 4, 61, 64
7, 138960, Note_on_c, 4, 69, 60
7, 139200, Note_off_c, 4, 69, 64
7, 139200, Note_on_c, 4, 68, 60
7, 139440, Note_off_c, 4, 68, 64
7, 139440, Note_on_c, 4, 66, 60
7, 139680, Note_off_c, 4, 66, 64
7, 139680, Note_on_c, 4, 61, 45
7, 139680, Note_on_c, 4, 68, 45
7, 141000, Note_off_c, 4, 68, 64
7, 141000, Note_off_c, 4, 61, 64
7, 141120, Note_on_c, 4, 54, 45
7, 141120, Note_on_c, 4, 66, 45
7, 142560, Note_off_c, 4, 66, 64
7, 142560, Note_off_c, 4, 54, 64
7, 142560, Note_on_c, 4, 53, 45
7, 142560, Note_on_c, 4, 65, 45
7, 144000, Note_off_c, 4, 65, 64
7, 144000, Note_off_c, 4, 53, 64
7, 144000, Note_on_c, 4, 54, 68
7, 144000, Note_on_c, 4, 66, 68
7, 145320, Note_off_c, 4, 66, 64
7, 145320, Note_off_c, 4, 54, 64
7, 145440, Note_on_c, 4, 65, 92
7, 145440, Note_on_c, 4, 68, 92
7, 150160, Note_off_c, 4, 68, 64
7, 150160, Note_off_c, 4, 65, 64
7, 150240, Note_on_c, 4, 65, 108
7, 150480, Note_off_c, 4, 65, 64
7, 150480, Note_on_c, 4, 66, 108
7, 150720, Note_off_c, 4, 66, 64
7, 150720, Note_on_c, 4, 68, 108
7, 151200, Note_off_c, 4, 68, 64
7, 151200, Note_on_c, 4, 66, 108
7, 151600, Note_off_c, 4, 66, 64
7, 151680, Note_on_c, 4, 66, 108
7, 151920, Note_off_c, 4, 66, 64
7, 151920, Note_on_c, 4, 68, 108
7, 152160, Note_off_c, 4, 68, 64
7, 152160, Note_on_c, 4, 69, 108
7, 152640, Note_off_c, 4, 69, 64
7, 152640, Note_on_c, 4, 62, 60
7, 152640, Note_on_c, 4, 67, 60
7, 153040, Note_off_c, 4, 67, 64
7, 153040, Note_off_c, 4, 62, 64
7, 153120, Note_on_c, 4, 65, 60
7, 153120, Note_on_c, 4, 67, 60
7, 153520, Note_off_c, 4, 67, 64
7, 153520, Note_off_c, 4, 65, 64
7, 153600, Note_on_c, 4, 66, 60
7, 153600, Note_on_c, 4, 69, 60
7, 154000, Note_off_c, 4, 69, 64
7, 154000, Note_off_c, 4, 66, 64
7, 154080, Note_on_c, 4, 66, 60
7, 154080, Note_on_c, 4, 69, 60
7, 154480, Note_off_c, 4, 69, 64
7, 154480, Note_off_c, 4, 66, 64
7, 154560, Note_on_c, 4, 66, 60
7, 154560, Note_on_c, 4, 68, 60
7, 154960, Note_off_c, 4, 68, 64
7, 154960, Note_off_c, 4, 66, 64
7, 155040, Note_on_c, 4, 65, 60
7, 155040, Note_on_c, 4, 68, 60
7, 155440, Note_off_c, 4, 68, 64
7, 155440, Note_off_c, 4, 65, 64
7, 155520, Note_on_c, 4, 66, 45
7, 155760, Note_off_c, 4, 66, 64
7, 155760, Note_on_c, 4, 68, 45
7, 156000, Note_off_c, 4, 68, 64
7, 156000, Note_on_c, 4, 69, 45
7, 156240, Note_off_c, 4, 69, 64
7, 156240, Note_on_c, 4, 68, 45
7, 156480, Note_off_c, 4, 68, 64
7, 156480, Note_on_c, 4, 66, 45
7, 156720, Note_off_c, 4, 66, 64
7, 156720, Note_on_c, 4, 64, 45
7, 156960, Note_off_c, 4, 64, 64
7, 156960, Note_on_c, 4, 63, 45
7, 157200, Note_off_c, 4, 63, 64
7, 157200, Note_on_c, 4, 64, 45
7, 157440, Note_off_c, 4, 64, 64
7, 157440, Note_on_c, 4, 66, 45
7, 157680, Note_off_c, 4, 66, 64
7, 157680, Note_on_c, 4, 68, 45
7, 157920, Note_off_c, 4, 68, 64
7, 157920, Note_on_c, 4, 69, 45
7, 158160, Note_off_c, 4, 69, 64
7, 158160, Note_on_c, 4, 66, 45
7, 158400, Note_off_c, 4, 66, 64
7, 158400, Note_on_c, 4, 68, 45
7, 158800, Note_off_c, 4, 68, 64
7, 158880, Note_on_c, 4, 64, 45
7, 159120, Note_off_c, 4, 64, 64
7, 159120, Note_on_c, 4, 63, 45
7, 159360, Note_off_c, 4, 63, 64
7, 159360, Note_on_c, 4, 61, 45
7, 159600, Note_off_c, 4, 61, 64
7, 159600, Note_on_c, 4, 59, 45
7, 159840, Note_off_c, 4, 59, 64
7, 159840, Note_on_c, 4, 58, 45
7, 160080, Note_off_c, 4, 58, 64
7, 160080, Note_on_c, 4, 59, 45
7, 160320, Note_off_c, 4, 59, 64
7, 160320, Note_on_c, 4, 61, 45
7, 160560, Note_off_c, 4, 61, 64
7, 160560, Note_on_c, 4, 63, 45
7, 160800, Note_off_c, 4, 63, 64
7, 160800, Note_on_c, 4, 64, 45
7, 161040, Note_off_c, 4, 64, 64
7, 161040, Note_on_c, 4, 61, 45
7, 161280, Note_off_c, 4, 61, 64
7, 161280, Note_on_c, 4, 63, 45
7, 162600, Note_off_c, 4, 63, 64
7, 162720, Note_on_c, 4, 71, 45
7, 162960, Note_off_c, 4, 71, 64
7, 162960, Note_on_c, 4, 69, 45
7, 163200, Note_off_c, 4, 69, 64
7, 163200, Note_on_c, 4, 68, 45
7, 163440, Note_off_c, 4, 68, 64
7, 163440, Note_on_c, 4, 66, 45
7, 163680, Note_off_c, 4, 66, 64
7, 163680, Note_on_c, 4, 64, 45
7, 163920, Note_off_c, 4, 64, 64
7, 163920, Note_on_c, 4, 62, 45
7, 164160, Note_off_c, 4, 62, 64
7, 164160, Note_on_c, 4, 61, 45
7, 164160, Note_on_c, 4, 64, 45
7, 165480, Note_off_c, 4, 64, 64
7, 165480, Note_off_c, 4, 61, 64
7, 165600, Note_on_c, 4, 69, 45
7, 165840, Note_off_c, 4, 69, 64
7, 165840, Note_on_c, 4, 68, 45
7, 166080, Note_off_c, 4, 68, 64
7, 166080, Note_on_c, 4, 66, 45
7, 166320, Note_off_c, 4, 66, 64
7, 166320, Note_on_c, 4, 64, 45
7, 166560, Note_off_c, 4, 64, 64
7, 166560, Note_on_c, 4, 63, 45
7, 166800, Note_off_c, 4, 63, 64
7, 166800, Note_on_c, 4, 61, 45
7, 167040, Note_off_c, 4, 61, 64
7, 167040, Note_on_c, 4, 59, 45
7, 167040, Note_on_c, 4, 63, 45
7, 168360, Note_off_c, 4, 63, 64
7, 168360, Note_off_c, 4, 59, 64
7, 168480, Note_on_c, 4, 64, 60
7, 168720, Note_off_c, 4, 64, 64
7, 168720, Note_on_c, 4, 62, 45
7, 168960, Note_off_c, 4, 62, 64
7, 168960, Note_on_c, 4, 61, 45
7, 169200, Note_off_c, 4, 61, 64
7, 169200, Note_on_c, 4, 59, 45
7, 169440, Note_off_c, 4, 59, 64
7, 169440, Note_on_c, 4, 57, 45
7, 169680, Note_off_c, 4, 57, 64
7, 169680, Note_on_c, 4, 56, 45
7, 169920, Note_off_c, 4, 56, 64
7, 169920, Note_on_c, 4, 57, 45
7, 169920, Note_on_c, 4, 61, 45
7, 170320, Note_off_c, 4, 61, 64
7, 170320, Note_off_c, 4, 57, 64
7, 170400, Note_on_c, 4, 61, 46
7, 170400, Note_on_c, 4, 64, 46
7, 170800, Note_off_c, 4, 64, 64
7, 170800, Note_off_c, 4, 61, 64
7, 170880, Note_on_c, 4, 64, 47
7, 170880, Note_on_c, 4, 69, 47
7, 171280, Note_off_c, 4, 69, 64
7, 171280, Note_off_c, 4, 64, 64
7, 171360, Note_on_c, 4, 66, 48
7, 171360, Note_on_c, 4, 71, 48
7, 172680, Note_off_c, 4, 71, 64
7, 172680, Note_off_c, 4, 66, 64
7, 172800, Note_on_c, 4, 68, 52
7, 172800, Note_on_c, 4, 71, 52
7, 174120, Note_off_c, 4, 71, 64
7, 174120, Note_off_c, 4, 68, 64
7, 174240, Note_on_c, 4, 66, 56
7, 174240, Note_on_c, 4, 70, 56
7, 175560, Note_off_c, 4, 70, 64
7, 175560, Note_off_c, 4, 66, 64
7, 175680, Note_on_c, 4, 71, 60
7, 177120, Note_off_c, 4, 71, 64
7, 177120, Note_on_c, 4, 69, 60
7, 178560, Note_off_c, 4, 69, 64
7, 178560, Note_on_c, 4, 69, 60
7, 179520, Note_off_c, 4, 69, 64
7, 179520, Note_on_c, 4, 69, 60
7, 180000, Note_off_c, 4, 69, 64
7, 180000, Note_on_c, 4, 68, 60
7, 181320, Note_off_c, 4, 68, 64
7, 181440, Note_on_c, 4, 56, 60
7, 181440, Note_on_c, 4, 68, 60
7, 181840, Note_off_c, 4, 68, 64
7, 181840, Note_off_c, 4, 56, 64
7, 181920, Note_on_c, 4, 59, 60
7, 181920, Note_on_c, 4, 71, 60
7, 182320, Note_off_c, 4, 71, 64
7, 182320, Note_off_c, 4, 59, 64
7, 182400, Note_on_c, 4, 56, 60
7, 182400, Note_on_c, 4, 68, 60
7, 182800, Note_off_c, 4, 68, 64
7, 182800, Note_off_c, 4, 56, 64
7, 182880, Note_on_c, 4, 54, 60
7, 182880, Note_on_c, 4, 66, 60
7, 183280, Note_off_c, 4, 66, 64
7, 183280, Note_off_c, 4, 54, 64
7, 183360, Note_on_c, 4, 57, 69
7, 183360, Note_on_c, 4, 69, 69
7, 183760, Note_off_c, 4, 69, 64
7, 183760, Note_off_c, 4, 57, 64
7, 183840, Note_on_c, 4, 54, 78
7, 183840, Note_on_c, 4, 66, 78
7, 184240, Note_off_c, 4, 66, 64
7, 184240, Note_off_c, 4, 54, 64
7, 184320, Note_on_c, 4, 59, 88
7, 184320, Note_on_c, 4, 68, 88
7, 184720, Note_off_c, 4, 68, 64
7, 184720, Note_off_c, 4, 59, 64
7, 184800, Note_on_c, 4, 68, 98
7, 185040, Note_off_c, 4, 68, 64
7, 185040, Note_on_c, 4, 69, 103
7, 185280, Note_off_c, 4, 69, 64
7, 185280, Note_on_c, 4, 63, 108
7, 185280, Note_on_c, 4, 71, 108
7, 185680, Note_off_c, 4, 71, 64
7, 185680, Note_off_c, 4, 63, 64
7, 185760, Note_on_c, 4, 62, 75
7, 185760, Note_on_c, 4, 68, 75
7, 187080, Note_off_c, 4, 68, 64
7, 187080, Note_off_c, 4, 62, 64
7, 187200, Note_on_c, 4, 61, 75
7, 187200, Note_on_c, 4, 69, 75
7, 188520, Note_off_c, 4, 69, 64
7, 188520, Note_off_c, 4, 61, 64
7, 188640, Note_on_c, 4, 59, 75
7, 188640, Note_on_c, 4, 71, 75
7, 189960, Note_off_c, 4, 71, 64
7, 189960, Note_off_c, 4, 59, 64
7, 190080, Note_on_c, 4, 61, 75
7, 190080, Note_on_c, 4, 73, 75
7, 190480, Note_off_c, 4, 73, 64
7, 190480, Note_off_c, 4, 61, 64
7, 190560, Note_on_c, 4, 66, 112
7, 190795, Note_off_c, 4, 66, 64
7, 190800, Note_on_c, 4, 64, 116
7, 191035, Note_off_c, 4, 64, 64
7, 191040, Note_on_c, 4, 63, 120
7, 191275, Note_off_c, 4, 63, 64
7, 191280, Note_on_c, 4, 61, 124
7, 191515, Note_off_c, 4, 61, 64
7, 191520, Note_on_c, 4, 57, 92
7, 191520, Note_on_c, 4, 63, 92
7, 192480, Note_off_c, 4, 63, 64
7, 192480, Note_off_c, 4, 57, 64
7, 192480, Note_on_c, 4, 56, 92
7, 192480, Note_on_c, 4, 64, 92
7, 192880, Note_off_c, 4, 64, 64
7, 192880, Note_off_c, 4, 56, 64
7, 192960, Note_on_c, 4, 57, 92
7, 192960, Note_on_c, 4, 64, 92
7, 193440, Note_off_c, 4, 64, 64
7, 193440, Note_off_c, 4, 57, 64
7, 193440, Note_on_c, 4, 59, 92
7, 193440, Note_on_c, 4, 71, 92
7, 193840, Note_off_c, 4, 71, 64
7, 193840, Note_off_c, 4, 59, 64
7, 193920, Note_on_c, 4, 57, 127
7, 193920, Note_on_c, 4, 69, 127
7, 194320, Note_off_c, 4, 69, 64
7, 194320, Note_off_c, 4, 57, 64
7, 194400, Note_on_c, 4, 68, 92
7, 195040, Note_off_c, 4, 68, 64
7, 195120, Note_on_c, 4, 69, 96
7, 195360, Note_off_c, 4, 69, 64
7, 195360, Note_on_c, 4, 68, 97
7, 195600, Note_off_c, 4, 68, 64
7, 195600, Note_on_c, 4, 66, 98
7, 195835, Note_off_c, 4, 66, 64
7, 195840, Note_on_c, 4, 64, 99
7, 196480, Note_off_c, 4, 64, 64
7, 196560, Note_on_c, 4, 66, 103
7, 196800, Note_off_c, 4, 66, 64
7, 196800, Note_on_c, 4, 64, 104
7, 197040, Note_off_c, 4, 64, 64
7, 197040, Note_on_c, 4, 63, 106
7, 197275, Note_off_c, 4, 63, 64
7, 197280, Note_on_c, 4, 56, 108
7, 197280, Note_on_c, 4, 64, 108
7, 199195, Note_off_c, 4, 64, 64
7, 199195, Note_off_c, 4, 56, 64
7, 199195, End_track
8, 0, Start_track
8, 0, MIDI_port, 0
8, 0, Channel_prefix, 4
8, 0, Control_c, 4, 7, 101
8, 0, Control_c, 4, 10, 35
8, 0, Control_c, 4, 91, 45
8, 0, Program_c, 4, 60
8, 0, Note_on_c, 4, 52, 92
8, 0, Note_on_c, 4, 56, 92
8, 400, Note_off_c, 4, 56, 64
8, 400, Note_off_c, 4, 52, 64
8, 1440, Note_on_c, 4, 52, 92
8, 1440, Note_on_c, 4, 56, 92
8, 1840, Note_off_c, 4, 56, 64
8, 1840, Note_off_c, 4, 52, 64
8, 2880, Note_on_c, 4, 64, 92
8, 3595, Note_off_c, 4, 64, 64
8, 3600, Note_on_c, 4, 66, 92
8, 3840, Note_off_c, 4, 66, 64
8, 3840, Note_on_c, 4, 64, 92
8, 4080, Note_off_c, 4, 64, 64
8, 4080, Note_on_c, 4, 63, 92
8, 4320, Note_off_c, 4, 63, 64
8, 4320, Note_on_c, 4, 52, 92
8, 4320, Note_on_c, 4, 59, 92
8, 5280, Note_off_c, 4, 59, 64
8, 5280, Note_off_c, 4, 52, 64
8, 5280, Note_on_c, 4, 51, 92
8, 5280, Note_on_c, 4, 59, 92
8, 5680, Note_off_c, 4, 59, 64
8, 5680, Note_off_c, 4, 51, 64
8, 5760, Note_on_c, 4, 64, 60
8, 6475, Note_off_c, 4, 64, 64
8, 6480, Note_on_c, 4, 66, 60
8, 6720, Note_off_c, 4, 66, 64
8, 6720, Note_on_c, 4, 64, 60
8, 6960, Note_off_c, 4, 64, 64
8, 6960, Note_on_c, 4, 63, 60
8, 7200, Note_off_c, 4, 63, 64
8, 7200, Note_on_c, 4, 52, 60
8, 7200, Note_on_c, 4, 59, 60
8, 8160, Note_off_c, 4, 59, 64
8, 8160, Note_off_c, 4, 52, 64
8, 8160, Note_on_c, 4, 51, 60
8, 8160, Note_on_c, 4, 59, 60
8, 8560, Note_off_c, 4, 59, 64
8, 8560, Note_off_c, 4, 51, 64
8, 8640, Note_on_c, 4, 56, 45
8, 8640, Note_on_c, 4, 59, 45
8, 9600, Note_off_c, 4, 59, 64
8, 9600, Note_off_c, 4, 56, 64
8, 9600, Note_on_c, 4, 57, 60
8, 9600, Note_on_c, 4, 61, 60
8, 10080, Note_off_c, 4, 61, 64
8, 10080, Note_off_c, 4, 57, 64
8, 10080, Note_on_c, 4, 56, 68
8, 10080, Note_on_c, 4, 59, 68
8, 11040, Note_off_c, 4, 59, 64
8, 11040, Note_off_c, 4, 56, 64
8, 11040, Note_on_c, 4, 54, 84
8, 11040, Note_on_c, 4, 59, 84
8, 11440, Note_off_c, 4, 59, 64
8, 11440, Note_off_c, 4, 54, 64
8, 11520, Note_on_c, 4, 64, 92
8, 12235, Note_off_c, 4, 64, 64
8, 12240, Note_on_c, 4, 66, 92
8, 12480, Note_off_c, 4, 66, 64
8, 12480, Note_on_c, 4, 64, 92
8, 12720, Note_off_c, 4, 64, 64
8, 12720, Note_on_c, 4, 63, 92
8, 12960, Note_off_c, 4, 63, 64
8, 12960, Note_on_c, 4, 52, 92
8, 12960, Note_on_c, 4, 59, 92
8, 13920, Note_off_c, 4, 59, 64
8, 13920, Note_off_c, 4, 52, 64
8, 13920, Note_on_c, 4, 51, 92
8, 13920, Note_on_c, 4, 59, 92
8, 14320, Note_off_c, 4, 59, 64
8, 14320, Note_off_c, 4, 51, 64
8, 14400, Note_on_c, 4, 64, 60
8, 15115, Note_off_c, 4, 64, 64
8, 15120, Note_on_c, 4, 66, 60
8, 15360, Note_off_c, 4, 66, 64
8, 15360, Note_on_c, 4, 64, 60
8, 15600, Note_off_c, 4, 64, 64
8, 15600, Note_on_c, 4, 63, 60
8, 15840, Note_off_c, 4, 63, 64
8, 15840, Note_on_c, 4, 52, 60
8, 15840, Note_on_c, 4, 59, 60
8, 16800, Note_off_c, 4, 59, 64
8, 16800, Note_off_c, 4, 52, 64
8, 16800, Note_on_c, 4, 51, 70
8, 16800, Note_on_c, 4, 59, 70
8, 17200, Note_off_c, 4, 59, 64
8, 17200, Note_off_c, 4, 51, 64
8, 17280, Note_on_c, 4, 56, 75
8, 17280, Note_on_c, 4, 64, 75
8, 17360, Note_off_c, 4, 64, 64
8, 17360, Note_off_c, 4, 56, 64
8, 17520, Note_on_c, 4, 56, 75
8, 17520, Note_on_c, 4, 64, 75
8, 17920, Note_off_c, 4, 64, 64
8, 17920, Note_off_c, 4, 56, 64
8, 18000, Note_on_c, 4, 56, 75
8, 18000, Note_on_c, 4, 64, 75
8, 18400, Note_off_c, 4, 64, 64
8, 18400, Note_off_c, 4, 56, 64
8, 18480, Note_on_c, 4, 56, 75
8, 18480, Note_on_c, 4, 64, 75
8, 18955, Note_off_c, 4, 64, 64
8, 18955, Note_off_c, 4, 56, 64
8, 18960, Note_on_c, 4, 56, 92
8, 18960, Note_on_c, 4, 64, 92
8, 19200, Note_off_c, 4, 64, 64
8, 19200, Note_off_c, 4, 56, 64
8, 19200, Note_on_c, 4, 63, 92
8, 19440, Note_off_c, 4, 63, 64
8, 19440, Note_on_c, 4, 64, 92
8, 19680, Note_off_c, 4, 64, 64
8, 19680, Note_on_c, 4, 61, 92
8, 19920, Note_off_c, 4, 61, 64
8, 19920, Note_on_c, 4, 63, 92
8, 20155, Note_off_c, 4, 63, 64
8, 20160, Note_on_c, 4, 56, 60
8, 20160, Note_on_c, 4, 64, 60
8, 20240, Note_off_c, 4, 64, 64
8, 20240, Note_off_c, 4, 56, 64
8, 20400, Note_on_c, 4, 56, 60
8, 20400, Note_on_c, 4, 64, 60
8, 20800, Note_off_c, 4, 64, 64
8, 20800, Note_off_c, 4, 56, 64
8, 20880, Note_on_c, 4, 56, 60
8, 20880, Note_on_c, 4, 64, 60
8, 21280, Note_off_c, 4, 64, 64
8, 21280, Note_off_c, 4, 56, 64
8, 21360, Note_on_c, 4, 56, 60
8, 21360, Note_on_c, 4, 64, 60
8, 21835, Note_off_c, 4, 64, 64
8, 21835, Note_off_c, 4, 56, 64
8, 21840, Note_on_c, 4, 56, 75
8, 21840, Note_on_c, 4, 64, 75
8, 22080, Note_off_c, 4, 64, 64
8, 22080, Note_off_c, 4, 56, 64
8, 22080, Note_on_c, 4, 54, 75
8, 22080, Note_on_c, 4, 63, 75
8, 22320, Note_off_c, 4, 63, 64
8, 22320, Note_off_c, 4, 54, 64
8, 22320, Note_on_c, 4, 56, 75
8, 22320, Note_on_c, 4, 64, 75
8, 22560, Note_off_c, 4, 64, 64
8, 22560, Note_off_c, 4, 56, 64
8, 22560, Note_on_c, 4, 52, 75
8, 22560, Note_on_c, 4, 61, 75
8, 22800, Note_off_c, 4, 61, 64
8, 22800, Note_off_c, 4, 52, 64
8, 22800, Note_on_c, 4, 54, 75
8, 22800, Note_on_c, 4, 63, 75
8, 23035, Note_off_c, 4, 63, 64
8, 23035, Note_off_c, 4, 54, 64
8, 23040, Note_on_c, 4, 56, 60
8, 23040, Note_on_c, 4, 59, 60
8, 23040, Note_on_c, 4, 64, 60
8, 24480, Note_off_c, 4, 64, 64
8, 24480, Note_off_c, 4, 59, 64
8, 24480, Note_off_c, 4, 56, 64
8, 24480, Note_on_c, 4, 56, 60
8, 24480, Note_on_c, 4, 59, 60
8, 24480, Note_on_c, 4, 63, 60
8, 25920, Note_off_c, 4, 63, 64
8, 25920, Note_off_c, 4, 59, 64
8, 25920, Note_off_c, 4, 56, 64
8, 25920, Note_on_c, 4, 56, 60
8, 25920, Note_on_c, 4, 59, 60
8, 25920, Note_on_c, 4, 62, 60
8, 27360, Note_off_c, 4, 62, 64
8, 27360, Note_off_c, 4, 59, 64
8, 27360, Note_off_c, 4, 56, 64
8, 27360, Note_on_c, 4, 57, 60
8, 27360, Note_on_c, 4, 61, 60
8, 27360, Note_on_c, 4, 64, 60
8, 28680, Note_off_c, 4, 64, 64
8, 28680, Note_off_c, 4, 61, 64
8, 28680, Note_off_c, 4, 57, 64
8, 28800, Note_on_c, 4, 56, 75
8, 28800, Note_on_c, 4, 59, 75
8, 30240, Note_off_c, 4, 59, 64
8, 30240, Note_off_c, 4, 56, 64
8, 30240, Note_on_c, 4, 56, 75
8, 30240, Note_on_c, 4, 59, 75
8, 31560, Note_off_c, 4, 59, 64
8, 31560, Note_off_c, 4, 56, 64
8, 31680, Note_on_c, 4, 61, 60
8, 31680, Note_on_c, 4, 69, 60
8, 33120, Note_off_c, 4, 69, 64
8, 33120, Note_off_c, 4, 61, 64
8, 33120, Note_on_c, 4, 61, 60
8, 33120, Note_on_c, 4, 69, 60
8, 34560, Note_off_c, 4, 69, 64
8, 34560, Note_off_c, 4, 61, 64
8, 34560, Note_on_c, 4, 59, 60
8, 34560, Note_on_c, 4, 69, 60
8, 36000, Note_off_c, 4, 69, 64
8, 36000, Note_off_c, 4, 59, 64
8, 36000, Note_on_c, 4, 61, 60
8, 36000, Note_on_c, 4, 68, 60
8, 37440, Note_off_c, 4, 68, 64
8, 37440, Note_off_c, 4, 61, 64
8, 37440, Note_on_c, 4, 61, 60
8, 37440, Note_on_c, 4, 66, 60
8, 38880, Note_off_c, 4, 66, 64
8, 38880, Note_off_c, 4, 61, 64
8, 38880, Note_on_c, 4, 59, 60
8, 38880, Note_on_c, 4, 63, 60
8, 40200, Note_off_c, 4, 63, 64
8, 40200, Note_off_c, 4, 59, 64
8, 40320, Note_on_c, 4, 52, 75
8, 40320, Note_on_c, 4, 56, 75
8, 40720, Note_off_c, 4, 56, 64
8, 40720, Note_off_c, 4, 52, 64
8, 41760, Note_on_c, 4, 52, 78
8, 41760, Note_on_c, 4, 56, 78
8, 42160, Note_off_c, 4, 56, 64
8, 42160, Note_off_c, 4, 52, 64
8, 43200, Note_on_c, 4, 52, 82
8, 43200, Note_on_c, 4, 56, 82
8, 43600, Note_off_c, 4, 56, 64
8, 43600, Note_off_c, 4, 52, 64
8, 45600, Note_on_c, 4, 52, 92
8, 45600, Note_on_c, 4, 56, 92
8, 46080, Note_off_c, 4, 56, 64
8, 46080, Note_off_c, 4, 52, 64
8, 46080, Note_on_c, 4, 53, 45
8, 46080, Note_on_c, 4, 56, 45
8, 46480, Note_off_c, 4, 56, 64
8, 46480, Note_off_c, 4, 53, 64
8, 47520, Note_on_c, 4, 53, 45
8, 47520, Note_on_c, 4, 56, 45
8, 47920, Note_off_c, 4, 56, 64
8, 47920, Note_off_c, 4, 53, 64
8, 48960, Note_on_c, 4, 53, 62
8, 48960, Note_on_c, 4, 56, 62
8, 49360, Note_off_c, 4, 56, 64
8, 49360, Note_off_c, 4, 53, 64
8, 51360, Note_on_c, 4, 53, 92
8, 51360, Note_on_c, 4, 56, 92
8, 51840, Note_off_c, 4, 56, 64
8, 51840, Note_off_c, 4, 53, 64
8, 51840, Note_on_c, 4, 57, 92
8, 52080, Note_off_c, 4, 57, 64
8, 52080, Note_on_c, 4, 59, 92
8, 52320, Note_off_c, 4, 59, 64
8, 52320, Note_on_c, 4, 61, 92
8, 52560, Note_off_c, 4, 61, 64
8, 52560, Note_on_c, 4, 57, 92
8, 52800, Note_off_c, 4, 57, 64
8, 52800, Note_on_c, 4, 60, 92
8, 53200, Note_off_c, 4, 60, 64
8, 53280, Note_on_c, 4, 56, 92
8, 53520, Note_off_c, 4, 56, 64
8, 53520, Note_on_c, 4, 57, 92
8, 53760, Note_off_c, 4, 57, 64
8, 53760, Note_on_c, 4, 59, 92
8, 54000, Note_off_c, 4, 59, 64
8, 54000, Note_on_c, 4, 56, 92
8, 54240, Note_off_c, 4, 56, 64
8, 54240, Note_on_c, 4, 57, 92
8, 54640, Note_off_c, 4, 57, 64
8, 54720, Note_on_c, 4, 56, 92
8, 54720, Note_on_c, 4, 60, 92
8, 57480, Note_off_c, 4, 60, 64
8, 57480, Note_off_c, 4, 56, 64
8, 57600, Note_on_c, 4, 56, 75
8, 57600, Note_on_c, 4, 60, 75
8, 60360, Note_off_c, 4, 60, 64
8, 60360, Note_off_c, 4, 56, 64
8, 60480, Note_on_c, 4, 56, 60
8, 60480, Note_on_c, 4, 60, 60
8, 61920, Note_off_c, 4, 60, 64
8, 61920, Note_off_c, 4, 56, 64
8, 61920, Note_on_c, 4, 52, 60
8, 61920, Note_on_c, 4, 61, 60
8, 63240, Note_off_c, 4, 61, 64
8, 63240, Note_off_c, 4, 52, 64
8, 63360, Note_on_c, 4, 56, 45
8, 63360, Note_on_c, 4, 60, 45
8, 64800, Note_off_c, 4, 60, 64
8, 64800, Note_off_c, 4, 56, 64
8, 64800, Note_on_c, 4, 52, 45
8, 64800, Note_on_c, 4, 61, 45
8, 66120, Note_off_c, 4, 61, 64
8, 66120, Note_off_c, 4, 52, 64
8, 66240, Note_on_c, 4, 55, 60
8, 66240, Note_on_c, 4, 58, 60
8, 67680, Note_off_c, 4, 58, 64
8, 67680, Note_off_c, 4, 55, 64
8, 67680, Note_on_c, 4, 55, 45
8, 67680, Note_on_c, 4, 58, 45
8, 69120, Note_off_c, 4, 58, 64
8, 69120, Note_off_c, 4, 55, 64
8, 69120, Note_on_c, 4, 56, 75
8, 69120, Note_on_c, 4, 61, 75
8, 70560, Note_off_c, 4, 61, 64
8, 70560, Note_off_c, 4, 56, 64
8, 70560, Note_on_c, 4, 56, 45
8, 70560, Note_on_c, 4, 60, 45
8, 72000, Note_off_c, 4, 60, 64
8, 72000, Note_off_c, 4, 56, 64
8, 72000, Note_on_c, 4, 56, 92
8, 72000, Note_on_c, 4, 61, 92
8, 72400, Note_off_c, 4, 61, 64
8, 72400, Note_off_c, 4, 56, 64
8, 73440, Note_on_c, 4, 56, 92
8, 73440, Note_on_c, 4, 61, 92
8, 73840, Note_off_c, 4, 61, 64
8, 73840, Note_off_c, 4, 56, 64
8, 74880, Note_on_c, 4, 54, 92
8, 74880, Note_on_c, 4, 61, 92
8, 76320, Note_off_c, 4, 61, 64
8, 76320, Note_off_c, 4, 54, 64
8, 76320, Note_on_c, 4, 54, 60
8, 76320, Note_on_c, 4, 61, 60
8, 77640, Note_off_c, 4, 61, 64
8, 77640, Note_off_c, 4, 54, 64
8, 77760, Note_on_c, 4, 54, 92
8, 77760, Note_on_c, 4, 63, 92
8, 78160, Note_off_c, 4, 63, 64
8, 78160, Note_off_c, 4, 54, 64
8, 79200, Note_on_c, 4, 54, 75
8, 79200, Note_on_c, 4, 63, 75
8, 79600, Note_off_c, 4, 63, 64
8, 79600, Note_off_c, 4, 54, 64
8, 80640, Note_on_c, 4, 56, 92
8, 80640, Note_on_c, 4, 59, 92
8, 82080, Note_off_c, 4, 59, 64
8, 82080, Note_off_c, 4, 56, 64
8, 82080, Note_on_c, 4, 56, 45
8, 82080, Note_on_c, 4, 59, 45
8, 82315, Note_off_c, 4, 59, 64
8, 82315, Note_off_c, 4, 56, 64
8, 82320, Note_on_c, 4, 64, 75
8, 82400, Note_off_c, 4, 64, 64
8, 82440, Note_on_c, 4, 62, 75
8, 82520, Note_off_c, 4, 62, 64
8, 82560, Note_on_c, 4, 64, 75
8, 82640, Note_off_c, 4, 64, 64
8, 82800, Note_on_c, 4, 62, 75
8, 82880, Note_off_c, 4, 62, 64
8, 83040, Note_on_c, 4, 64, 75
8, 83120, Note_off_c, 4, 64, 64
8, 83280, Note_on_c, 4, 61, 75
8, 83360, Note_off_c, 4, 61, 64
8, 83520, Note_on_c, 4, 69, 92
8, 84235, Note_off_c, 4, 69, 64
8, 84240, Note_on_c, 4, 71, 92
8, 84480, Note_off_c, 4, 71, 64
8, 84480, Note_on_c, 4, 69, 92
8, 84720, Note_off_c, 4, 69, 64
8, 84720, Note_on_c, 4, 68, 92
8, 84960, Note_off_c, 4, 68, 64
8, 84960, Note_on_c, 4, 57, 92
8, 84960, Note_on_c, 4, 64, 92
8, 85920, Note_off_c, 4, 64, 64
8, 85920, Note_off_c, 4, 57, 64
8, 85920, Note_on_c, 4, 59, 92
8, 85920, Note_on_c, 4, 64, 92
8, 86320, Note_off_c, 4, 64, 64
8, 86320, Note_off_c, 4, 59, 64
8, 86400, Note_on_c, 4, 69, 60
8, 87115, Note_off_c, 4, 69, 64
8, 87120, Note_on_c, 4, 71, 60
8, 87360, Note_off_c, 4, 71, 64
8, 87360, Note_on_c, 4, 69, 60
8, 87600, Note_off_c, 4, 69, 64
8, 87600, Note_on_c, 4, 68, 60
8, 87840, Note_off_c, 4, 68, 64
8, 87840, Note_on_c, 4, 57, 60
8, 87840, Note_on_c, 4, 64, 60
8, 88800, Note_off_c, 4, 64, 64
8, 88800, Note_off_c, 4, 57, 64
8, 88800, Note_on_c, 4, 59, 60
8, 88800, Note_on_c, 4, 64, 60
8, 89200, Note_off_c, 4, 64, 64
8, 89200, Note_off_c, 4, 59, 64
8, 89280, Note_on_c, 4, 61, 92
8, 89280, Note_on_c, 4, 64, 92
8, 90240, Note_off_c, 4, 64, 64
8, 90240, Note_off_c, 4, 61, 64
8, 90240, Note_on_c, 4, 62, 92
8, 90240, Note_on_c, 4, 64, 92
8, 90720, Note_off_c, 4, 64, 64
8, 90720, Note_off_c, 4, 62, 64
8, 90720, Note_on_c, 4, 61, 92
8, 90720, Note_on_c, 4, 64, 92
8, 90955, Note_off_c, 4, 64, 64
8, 90955, Note_off_c, 4, 61, 64
8, 90960, Note_on_c, 4, 64, 92
8, 91200, Note_off_c, 4, 64, 64
8, 91200, Note_on_c, 4, 62, 92
8, 91440, Note_off_c, 4, 62, 64
8, 91440, Note_on_c, 4, 64, 92
8, 91680, Note_off_c, 4, 64, 64
8, 91680, Note_on_c, 4, 66, 92
8, 91920, Note_off_c, 4, 66, 64
8, 91920, Note_on_c, 4, 62, 92
8, 92155, Note_off_c, 4, 62, 64
8, 92160, Note_on_c, 4, 61, 75
8, 92160, Note_on_c, 4, 64, 75
8, 93120, Note_off_c, 4, 64, 64
8, 93120, Note_off_c, 4, 61, 64
8, 93120, Note_on_c, 4, 62, 75
8, 93120, Note_on_c, 4, 64, 75
8, 93600, Note_off_c, 4, 64, 64
8, 93600, Note_off_c, 4, 62, 64
8, 93600, Note_on_c, 4, 69, 75
8, 93835, Note_off_c, 4, 69, 64
8, 93840, Note_on_c, 4, 69, 75
8, 94080, Note_off_c, 4, 69, 64
8, 94080, Note_on_c, 4, 68, 75
8, 94320, Note_off_c, 4, 68, 64
8, 94320, Note_on_c, 4, 69, 75
8, 94560, Note_off_c, 4, 69, 64
8, 94560, Note_on_c, 4, 71, 75
8, 94800, Note_off_c, 4, 71, 64
8, 94800, Note_on_c, 4, 68, 75
8, 95035, Note_off_c, 4, 68, 64
8, 95040, Note_on_c, 4, 61, 108
8, 95040, Note_on_c, 4, 64, 108
8, 96360, Note_off_c, 4, 64, 64
8, 96360, Note_off_c, 4, 61, 64
8, 96480, Note_on_c, 4, 61, 108
8, 96480, Note_on_c, 4, 64, 108
8, 97920, Note_off_c, 4, 64, 64
8, 97920, Note_off_c, 4, 61, 64
8, 97920, Note_on_c, 4, 61, 108
8, 97920, Note_on_c, 4, 64, 108
8, 99360, Note_off_c, 4, 64, 64
8, 99360, Note_off_c, 4, 61, 64
8, 99360, Note_on_c, 4, 62, 108
8, 99360, Note_on_c, 4, 66, 108
8, 100800, Note_off_c, 4, 66, 64
8, 100800, Note_off_c, 4, 62, 64
8, 100800, Note_on_c, 4, 57, 108
8, 100800, Note_on_c, 4, 62, 108
8, 102120, Note_off_c, 4, 62, 64
8, 102120, Note_off_c, 4, 57, 64
8, 102240, Note_on_c, 4, 73, 92
8, 103680, Note_off_c, 4, 73, 64
8, 103680, Note_on_c, 4, 74, 92
8, 105120, Note_off_c, 4, 74, 64
8, 105120, Note_on_c, 4, 74, 92
8, 106560, Note_off_c, 4, 74, 64
8, 106560, Note_on_c, 4, 73, 76
8, 108000, Note_off_c, 4, 73, 64
8, 108000, Note_on_c, 4, 73, 60
8, 109440, Note_off_c, 4, 73, 64
8, 109440, Note_on_c, 4, 71, 60
8, 110880, Note_off_c, 4, 71, 64
8, 110880, Note_on_c, 4, 71, 45
8, 112320, Note_off_c, 4, 71, 64
8, 112320, Note_on_c, 4, 57, 60
8, 112320, Note_on_c, 4, 61, 60
8, 112720, Note_off_c, 4, 61, 64
8, 112720, Note_off_c, 4, 57, 64
8, 113760, Note_on_c, 4, 57, 68
8, 113760, Note_on_c, 4, 61, 68
8, 114160, Note_off_c, 4, 61, 64
8, 114160, Note_off_c, 4, 57, 64
8, 115200, Note_on_c, 4, 57, 77
8, 115200, Note_on_c, 4, 61, 77
8, 115600, Note_off_c, 4, 61, 64
8, 115600, Note_off_c, 4, 57, 64
8, 117600, Note_on_c, 4, 58, 92
8, 117600, Note_on_c, 4, 64, 92
8, 118080, Note_off_c, 4, 64, 64
8, 118080, Note_off_c, 4, 58, 64
8, 118080, Note_on_c, 4, 59, 45
8, 118080, Note_on_c, 4, 62, 45
8, 118480, Note_off_c, 4, 62, 64
8, 118480, Note_off_c, 4, 59, 64
8, 119520, Note_on_c, 4, 59, 57
8, 119520, Note_on_c, 4, 62, 57
8, 119920, Note_off_c, 4, 62, 64
8, 119920, Note_off_c, 4, 59, 64
8, 120960, Note_on_c, 4, 59, 69
8, 120960, Note_on_c, 4, 63, 69
8, 121360, Note_off_c, 4, 63, 64
8, 121360, Note_off_c, 4, 59, 64
8, 123360, Note_on_c, 4, 56, 92
8, 123360, Note_on_c, 4, 60, 92
8, 123840, Note_off_c, 4, 60, 64
8, 123840, Note_off_c, 4, 56, 64
8, 123840, Note_on_c, 4, 56, 92
8, 123840, Note_on_c, 4, 61, 92
8, 125280, Note_off_c, 4, 61, 64
8, 125280, Note_off_c, 4, 56, 64
8, 125280, Note_on_c, 4, 54, 92
8, 125280, Note_on_c, 4, 57, 92
8, 126720, Note_off_c, 4, 57, 64
8, 126720, Note_off_c, 4, 54, 64
8, 126720, Note_on_c, 4, 54, 92
8, 126720, Note_on_c, 4, 59, 92
8, 128040, Note_off_c, 4, 59, 64
8, 128040, Note_off_c, 4, 54, 64
8, 128160, Note_on_c, 4, 56, 45
8, 128160, Note_on_c, 4, 61, 45
8, 129600, Note_off_c, 4, 61, 64
8, 129600, Note_off_c, 4, 56, 64
8, 129600, Note_on_c, 4, 56, 45
8, 129600, Note_on_c, 4, 61, 45
8, 131040, Note_off_c, 4, 61, 64
8, 131040, Note_off_c, 4, 56, 64
8, 131040, Note_on_c, 4, 56, 60
8, 131040, Note_on_c, 4, 61, 60
8, 132360, Note_off_c, 4, 61, 64
8, 132360, Note_off_c, 4, 56, 64
8, 132480, Note_on_c, 4, 59, 75
8, 132480, Note_on_c, 4, 61, 75
8, 133800, Note_off_c, 4, 61, 64
8, 133800, Note_off_c, 4, 59, 64
8, 133920, Note_on_c, 4, 57, 75
8, 133920, Note_on_c, 4, 66, 75
8, 134760, Note_off_c, 4, 66, 64
8, 134760, Note_off_c, 4, 57, 64
8, 134880, Note_on_c, 4, 61, 75
8, 134880, Note_on_c, 4, 65, 75
8, 135280, Note_off_c, 4, 65, 64
8, 135280, Note_off_c, 4, 61, 64
8, 135360, Note_on_c, 4, 54, 60
8, 135360, Note_on_c, 4, 62, 60
8, 135760, Note_off_c, 4, 62, 64
8, 135760, Note_off_c, 4, 54, 64
8, 135840, Note_on_c, 4, 54, 60
8, 135840, Note_on_c, 4, 62, 60
8, 136240, Note_off_c, 4, 62, 64
8, 136240, Note_off_c, 4, 54, 64
8, 136320, Note_on_c, 4, 58, 60
8, 136320, Note_on_c, 4, 61, 60
8, 136720, Note_off_c, 4, 61, 64
8, 136720, Note_off_c, 4, 58, 64
8, 136800, Note_on_c, 4, 56, 60
8, 136800, Note_on_c, 4, 59, 60
8, 137200, Note_off_c, 4, 59, 64
8, 137200, Note_off_c, 4, 56, 64
8, 137280, Note_on_c, 4, 56, 60
8, 137280, Note_on_c, 4, 59, 60
8, 137680, Note_off_c, 4, 59, 64
8, 137680, Note_off_c, 4, 56, 64
8, 137760, Note_on_c, 4, 54, 60
8, 137760, Note_on_c, 4, 57, 60
8, 138160, Note_off_c, 4, 57, 64
8, 138160, Note_off_c, 4, 54, 64
8, 138240, Note_on_c, 4, 56, 60
8, 138240, Note_on_c, 4, 65, 60
8, 138960, Note_off_c, 4, 65, 64
8, 138960, Note_off_c, 4, 56, 64
8, 138960, Note_on_c, 4, 66, 60
8, 139200, Note_off_c, 4, 66, 64
8, 139200, Note_on_c, 4, 65, 60
8, 139440, Note_off_c, 4, 65, 64
8, 139440, Note_on_c, 4, 63, 60
8, 139680, Note_off_c, 4, 63, 64
8, 139680, Note_on_c, 4, 56, 45
8, 139680, Note_on_c, 4, 65, 45
8, 141000, Note_off_c, 4, 65, 64
8, 141000, Note_off_c, 4, 56, 64
8, 141120, Note_on_c, 4, 57, 45
8, 141120, Note_on_c, 4, 61, 45
8, 142560, Note_off_c, 4, 61, 64
8, 142560, Note_off_c, 4, 57, 64
8, 142560, Note_on_c, 4, 56, 45
8, 142560, Note_on_c, 4, 59, 45
8, 144000, Note_off_c, 4, 59, 64
8, 144000, Note_off_c, 4, 56, 64
8, 144000, Note_on_c, 4, 57, 68
8, 144000, Note_on_c, 4, 61, 68
8, 145320, Note_off_c, 4, 61, 64
8, 145320, Note_off_c, 4, 57, 64
8, 145440, Note_on_c, 4, 56, 92
8, 145440, Note_on_c, 4, 59, 92
8, 150160, Note_off_c, 4, 59, 64
8, 150160, Note_off_c, 4, 56, 64
8, 150240, Note_on_c, 4, 61, 108
8, 150480, Note_off_c, 4, 61, 64
8, 150480, Note_on_c, 4, 63, 108
8, 150720, Note_off_c, 4, 63, 64
8, 150720, Note_on_c, 4, 65, 108
8, 151200, Note_off_c, 4, 65, 64
8, 151200, Note_on_c, 4, 61, 108
8, 151600, Note_off_c, 4, 61, 64
8, 151680, Note_on_c, 4, 57, 108
8, 151920, Note_off_c, 4, 57, 64
8, 151920, Note_on_c, 4, 59, 108
8, 152160, Note_off_c, 4, 59, 64
8, 152160, Note_on_c, 4, 61, 108
8, 152640, Note_off_c, 4, 61, 64
8, 152640, Note_on_c, 4, 59, 60
8, 153040, Note_off_c, 4, 59, 64
8, 153120, Note_on_c, 4, 56, 60
8, 153120, Note_on_c, 4, 61, 60
8, 153520, Note_off_c, 4, 61, 64
8, 153520, Note_off_c, 4, 56, 64
8, 153600, Note_on_c, 4, 57, 60
8, 153600, Note_on_c, 4, 61, 60
8, 154000, Note_off_c, 4, 61, 64
8, 154000, Note_off_c, 4, 57, 64
8, 154080, Note_on_c, 4, 57, 60
8, 154080, Note_on_c, 4, 61, 60
8, 154480, Note_off_c, 4, 61, 64
8, 154480, Note_off_c, 4, 57, 64
8, 154560, Note_on_c, 4, 56, 60
8, 154560, Note_on_c, 4, 61, 60
8, 154960, Note_off_c, 4, 61, 64
8, 154960, Note_off_c, 4, 56, 64
8, 155040, Note_on_c, 4, 56, 60
8, 155040, Note_on_c, 4, 61, 60
8, 155440, Note_off_c, 4, 61, 64
8, 155440, Note_off_c, 4, 56, 64
8, 155520, Note_on_c, 4, 57, 45
8, 155520, Note_on_c, 4, 61, 45
8, 156960, Note_off_c, 4, 61, 64
8, 156960, Note_off_c, 4, 57, 64
8, 156960, Note_on_c, 4, 54, 45
8, 156960, Note_on_c, 4, 57, 45
8, 158400, Note_off_c, 4, 57, 64
8, 158400, Note_off_c, 4, 54, 64
8, 158400, Note_on_c, 4, 52, 45
8, 158400, Note_on_c, 4, 56, 45
8, 159840, Note_off_c, 4, 56, 64
8, 159840, Note_off_c, 4, 52, 64
8, 159840, Note_on_c, 4, 54, 45
8, 159840, Note_on_c, 4, 70, 45
8, 161280, Note_off_c, 4, 70, 64
8, 161280, Note_off_c, 4, 54, 64
8, 161280, Note_on_c, 4, 59, 45
8, 161280, Note_on_c, 4, 66, 45
8, 162600, Note_off_c, 4, 66, 64
8, 162600, Note_off_c, 4, 59, 64
8, 162720, Note_on_c, 4, 68, 45
8, 162960, Note_off_c, 4, 68, 64
8, 162960, Note_on_c, 4, 66, 45
8, 163200, Note_off_c, 4, 66, 64
8, 163200, Note_on_c, 4, 64, 45
8, 163440, Note_off_c, 4, 64, 64
8, 163440, Note_on_c, 4, 62, 45
8, 163680, Note_off_c, 4, 62, 64
8, 163680, Note_on_c, 4, 61, 45
8, 163920, Note_off_c, 4, 61, 64
8, 163920, Note_on_c, 4, 59, 45
8, 164160, Note_off_c, 4, 59, 64
8, 164160, Note_on_c, 4, 52, 45
8, 164160, Note_on_c, 4, 57, 45
8, 165480, Note_off_c, 4, 57, 64
8, 165480, Note_off_c, 4, 52, 64
8, 165600, Note_on_c, 4, 66, 45
8, 165840, Note_off_c, 4, 66, 64
8, 165840, Note_on_c, 4, 64, 45
8, 166080, Note_off_c, 4, 64, 64
8, 166080, Note_on_c, 4, 63, 45
8, 166320, Note_off_c, 4, 63, 64
8, 166320, Note_on_c, 4, 61, 45
8, 166560, Note_off_c, 4, 61, 64
8, 166560, Note_on_c, 4, 59, 45
8, 166800, Note_off_c, 4, 59, 64
8, 166800, Note_on_c, 4, 57, 45
8, 167040, Note_off_c, 4, 57, 64
8, 167040, Note_on_c, 4, 51, 45
8, 167040, Note_on_c, 4, 54, 45
8, 168360, Note_off_c, 4, 54, 64
8, 168360, Note_off_c, 4, 51, 64
8, 168480, Note_on_c, 4, 61, 60
8, 168720, Note_off_c, 4, 61, 64
8, 168720, Note_on_c, 4, 59, 45
8, 168960, Note_off_c, 4, 59, 64
8, 168960, Note_on_c, 4, 57, 45
8, 169200, Note_off_c, 4, 57, 64
8, 169200, Note_on_c, 4, 56, 45
8, 169440, Note_off_c, 4, 56, 64
8, 169440, Note_on_c, 4, 54, 45
8, 169680, Note_off_c, 4, 54, 64
8, 169680, Note_on_c, 4, 52, 45
8, 169920, Note_off_c, 4, 52, 64
8, 169920, Note_on_c, 4, 49, 45
8, 169920, Note_on_c, 4, 52, 45
8, 170320, Note_off_c, 4, 52, 64
8, 170320, Note_off_c, 4, 49, 64
8, 170400, Note_on_c, 4, 52, 46
8, 170400, Note_on_c, 4, 57, 46
8, 170800, Note_off_c, 4, 57, 64
8, 170800, Note_off_c, 4, 52, 64
8, 170880, Note_on_c, 4, 57, 47
8, 170880, Note_on_c, 4, 61, 47
8, 171280, Note_off_c, 4, 61, 64
8, 171280, Note_off_c, 4, 57, 64
8, 171360, Note_on_c, 4, 59, 48
8, 171360, Note_on_c, 4, 63, 48
8, 172680, Note_off_c, 4, 63, 64
8, 172680, Note_off_c, 4, 59, 64
8, 172800, Note_on_c, 4, 59, 52
8, 172800, Note_on_c, 4, 64, 52
8, 174120, Note_off_c, 4, 64, 64
8, 174120, Note_off_c, 4, 59, 64
8, 174240, Note_on_c, 4, 58, 56
8, 174240, Note_on_c, 4, 61, 56
8, 175560, Note_off_c, 4, 61, 64
8, 175560, Note_off_c, 4, 58, 64
8, 175680, Note_on_c, 4, 63, 60
8, 175680, Note_on_c, 4, 66, 60
8, 177120, Note_off_c, 4, 66, 64
8, 177120, Note_off_c, 4, 63, 64
8, 177120, Note_on_c, 4, 63, 60
8, 177120, Note_on_c, 4, 66, 60
8, 178560, Note_off_c, 4, 66, 64
8, 178560, Note_off_c, 4, 63, 64
8, 178560, Note_on_c, 4, 63, 60
8, 178560, Note_on_c, 4, 66, 60
8, 179520, Note_off_c, 4, 66, 64
8, 179520, Note_off_c, 4, 63, 64
8, 179520, Note_on_c, 4, 61, 60
8, 179520, Note_on_c, 4, 64, 60
8, 180000, Note_off_c, 4, 64, 64
8, 180000, Note_off_c, 4, 61, 64
8, 180000, Note_on_c, 4, 61, 60
8, 180000, Note_on_c, 4, 64, 60
8, 181320, Note_off_c, 4, 64, 64
8, 181320, Note_off_c, 4, 61, 64
8, 181440, Note_on_c, 4, 59, 60
8, 181440, Note_on_c, 4, 64, 60
8, 181840, Note_off_c, 4, 64, 64
8, 181840, Note_off_c, 4, 59, 64
8, 181920, Note_on_c, 4, 64, 60
8, 181920, Note_on_c, 4, 68, 60
8, 182320, Note_off_c, 4, 68, 64
8, 182320, Note_off_c, 4, 64, 64
8, 182400, Note_on_c, 4, 59, 60
8, 182400, Note_on_c, 4, 64, 60
8, 182800, Note_off_c, 4, 64, 64
8, 182800, Note_off_c, 4, 59, 64
8, 182880, Note_on_c, 4, 59, 60
8, 182880, Note_on_c, 4, 63, 60
8, 183280, Note_off_c, 4, 63, 64
8, 183280, Note_off_c, 4, 59, 64
8, 183360, Note_on_c, 4, 63, 69
8, 183360, Note_on_c, 4, 66, 69
8, 183760, Note_off_c, 4, 66, 64
8, 183760, Note_off_c, 4, 63, 64
8, 183840, Note_on_c, 4, 59, 78
8, 183840, Note_on_c, 4, 63, 78
8, 184240, Note_off_c, 4, 63, 64
8, 184240, Note_off_c, 4, 59, 64
8, 184320, Note_on_c, 4, 56, 88
8, 184320, Note_on_c, 4, 64, 88
8, 184720, Note_off_c, 4, 64, 64
8, 184720, Note_off_c, 4, 56, 64
8, 184800, Note_on_c, 4, 56, 98
8, 184800, Note_on_c, 4, 64, 98
8, 185040, Note_off_c, 4, 64, 64
8, 185040, Note_off_c, 4, 56, 64
8, 185040, Note_on_c, 4, 57, 103
8, 185040, Note_on_c, 4, 66, 103
8, 185280, Note_off_c, 4, 66, 64
8, 185280, Note_off_c, 4, 57, 64
8, 185280, Note_on_c, 4, 59, 108
8, 185280, Note_on_c, 4, 66, 108
8, 185680, Note_off_c, 4, 66, 64
8, 185680, Note_off_c, 4, 59, 64
8, 185760, Note_on_c, 4, 56, 75
8, 185760, Note_on_c, 4, 64, 75
8, 187080, Note_off_c, 4, 64, 64
8, 187080, Note_off_c, 4, 56, 64
8, 187200, Note_on_c, 4, 57, 75
8, 187200, Note_on_c, 4, 64, 75
8, 188520, Note_off_c, 4, 64, 64
8, 188520, Note_off_c, 4, 57, 64
8, 188640, Note_on_c, 4, 56, 75
8, 188640, Note_on_c, 4, 64, 75
8, 189960, Note_off_c, 4, 64, 64
8, 189960, Note_off_c, 4, 56, 64
8, 190080, Note_on_c, 4, 61, 75
8, 190080, Note_on_c, 4, 69, 75
8, 190480, Note_off_c, 4, 69, 64
8, 190480, Note_off_c, 4, 61, 64
8, 190560, Note_on_c, 4, 66, 80
8, 190795, Note_off_c, 4, 66, 64
8, 190800, Note_on_c, 4, 64, 83
8, 191035, Note_off_c, 4, 64, 64
8, 191040, Note_on_c, 4, 63, 86
8, 191275, Note_off_c, 4, 63, 64
8, 191280, Note_on_c, 4, 61, 89
8, 191515, Note_off_c, 4, 61, 64
8, 191520, Note_on_c, 4, 54, 92
8, 191520, Note_on_c, 4, 59, 92
8, 192480, Note_off_c, 4, 59, 64
8, 192480, Note_off_c, 4, 54, 64
8, 192480, Note_on_c, 4, 52, 92
8, 192480, Note_on_c, 4, 59, 92
8, 192880, Note_off_c, 4, 59, 64
8, 192880, Note_off_c, 4, 52, 64
8, 192960, Note_on_c, 4, 54, 92
8, 192960, Note_on_c, 4, 57, 92
8, 192960, Note_on_c, 4, 61, 92
8, 193440, Note_off_c, 4, 61, 64
8, 193440, Note_off_c, 4, 57, 64
8, 193440, Note_off_c, 4, 54, 64
8, 193440, Note_on_c, 4, 54, 92
8, 193440, Note_on_c, 4, 59, 92
8, 193440, Note_on_c, 4, 63, 92
8, 194280, Note_off_c, 4, 63, 64
8, 194280, Note_off_c, 4, 59, 64
8, 194280, Note_off_c, 4, 54, 64
8, 194400, Note_on_c, 4, 64, 92
8, 195040, Note_off_c, 4, 64, 64
8, 195120, Note_on_c, 4, 66, 96
8, 195360, Note_off_c, 4, 66, 64
8, 195360, Note_on_c, 4, 64, 97
8, 195600, Note_off_c, 4, 64, 64
8, 195600, Note_on_c, 4, 63, 98
8, 195835, Note_off_c, 4, 63, 64
8, 195840, Note_on_c, 4, 59, 99
8, 196480, Note_off_c, 4, 59, 64
8, 196560, Note_on_c, 4, 57, 103
8, 196800, Note_off_c, 4, 57, 64
8, 196800, Note_on_c, 4, 56, 104
8, 197040, Note_off_c, 4, 56, 64
8, 197040, Note_on_c, 4, 54, 106
8, 197275, Note_off_c, 4, 54, 64
8, 197280, Note_on_c, 4, 52, 108
8, 197280, Note_on_c, 4, 59, 108
8, 199195, Note_off_c, 4, 59, 64
8, 199195, Note_off_c, 4, 52, 64
8, 199195, End_track
9, 0, Start_track
9, 0, MIDI_port, 0
9, 0, Channel_prefix, 5
9, 0, Control_c, 5, 7, 99
9, 0, Control_c, 5, 10, 64
9, 0, Control_c, 5, 91, 52
9, 0, Program_c, 5, 56
9, 0, Note_on_c, 5, 59, 92
9, 0, Note_on_c, 5, 64, 92
9, 400, Note_off_c, 5, 64, 64
9, 400, Note_off_c, 5, 59, 64
9, 1440, Note_on_c, 5, 59, 92
9, 1440, Note_on_c, 5, 64, 92
9, 1840, Note_off_c, 5, 64, 64
9, 1840, Note_off_c, 5, 59, 64
9, 2880, Note_on_c, 5, 64, 92
9, 2880, Note_on_c, 5, 68, 92
9, 3595, Note_off_c, 5, 68, 64
9, 3595, Note_off_c, 5, 64, 64
9, 3600, Note_on_c, 5, 66, 92
9, 3600, Note_on_c, 5, 69, 92
9, 3840, Note_off_c, 5, 69, 64
9, 3840, Note_off_c, 5, 66, 64
9, 3840, Note_on_c, 5, 64, 92
9, 3840, Note_on_c, 5, 68, 92
9, 4080, Note_off_c, 5, 68, 64
9, 4080, Note_off_c, 5, 64, 64
9, 4080, Note_on_c, 5, 63, 92
9, 4080, Note_on_c, 5, 66, 92
9, 4320, Note_off_c, 5, 66, 64
9, 4320, Note_off_c, 5, 63, 64
9, 4320, Note_on_c, 5, 64, 92
9, 4320, Note_on_c, 5, 68, 92
9, 5280, Note_off_c, 5, 68, 64
9, 5280, Note_off_c, 5, 64, 64
9, 5280, Note_on_c, 5, 63, 92
9, 5280, Note_on_c, 5, 66, 92
9, 5680, Note_off_c, 5, 66, 64
9, 5680, Note_off_c, 5, 63, 64
9, 5760, Note_on_c, 5, 64, 60
9, 5760, Note_on_c, 5, 68, 60
9, 6475, Note_off_c, 5, 68, 64
9, 6475, Note_off_c, 5, 64, 64
9, 6480, Note_on_c, 5, 66, 60
9, 6480, Note_on_c, 5, 69, 60
9, 6720, Note_off_c, 5, 69, 64
9, 6720, Note_off_c, 5, 66, 64
9, 6720, Note_on_c, 5, 64, 60
9, 6720, Note_on_c, 5, 68, 60
9, 6960, Note_off_c, 5, 68, 64
9, 6960, Note_off_c, 5, 64, 64
9, 6960, Note_on_c, 5, 63, 60
9, 6960, Note_on_c, 5, 66, 60
9, 7200, Note_off_c, 5, 66, 64
9, 7200, Note_off_c, 5, 63, 64
9, 7200, Note_on_c, 5, 64, 60
9, 7200, Note_on_c, 5, 68, 60
9, 8160, Note_off_c, 5, 68, 64
9, 8160, Note_off_c, 5, 64, 64
9, 8160, Note_on_c, 5, 63, 60
9, 8160, Note_on_c, 5, 66, 60
9, 8560, Note_off_c, 5, 66, 64
9, 8560, Note_off_c, 5, 63, 64
9, 8640, Note_on_c, 5, 68, 45
9, 9600, Note_off_c, 5, 68, 64
9, 9600, Note_on_c, 5, 69, 60
9, 10080, Note_off_c, 5, 69, 64
9, 10080, Note_on_c, 5, 68, 68
9, 11040, Note_off_c, 5, 68, 64
9, 11040, Note_on_c, 5, 66, 84
9, 11440, Note_off_c, 5, 66, 64
9, 11520, Note_on_c, 5, 64, 92
9, 11520, Note_on_c, 5, 68, 92
9, 12235, Note_off_c, 5, 68, 64
9, 12235, Note_off_c, 5, 64, 64
9, 12240, Note_on_c, 5, 66, 92
9, 12240, Note_on_c, 5, 69, 92
9, 12480, Note_off_c, 5, 69, 64
9, 12480, Note_off_c, 5, 66, 64
9, 12480, Note_on_c, 5, 64, 92
9, 12480, Note_on_c, 5, 68, 92
9, 12720, Note_off_c, 5, 68, 64
9, 12720, Note_off_c, 5, 64, 64
9, 12720, Note_on_c, 5, 63, 92
9, 12720, Note_on_c, 5, 66, 92
9, 12960, Note_off_c, 5, 66, 64
9, 12960, Note_off_c, 5, 63, 64
9, 12960, Note_on_c, 5, 64, 92
9, 12960, Note_on_c, 5, 68, 92
9, 13920, Note_off_c, 5, 68, 64
9, 13920, Note_off_c, 5, 64, 64
9, 13920, Note_on_c, 5, 63, 92
9, 13920, Note_on_c, 5, 66, 92
9, 14320, Note_off_c, 5, 66, 64
9, 14320, Note_off_c, 5, 63, 64
9, 14400, Note_on_c, 5, 64, 45
9, 14400, Note_on_c, 5, 68, 45
9, 15115, Note_off_c, 5, 68, 64
9, 15115, Note_off_c, 5, 64, 64
9, 15120, Note_on_c, 5, 66, 45
9, 15120, Note_on_c, 5, 69, 45
9, 15360, Note_off_c, 5, 69, 64
9, 15360, Note_off_c, 5, 66, 64
9, 15360, Note_on_c, 5, 64, 45
9, 15360, Note_on_c, 5, 68, 45
9, 15600, Note_off_c, 5, 68, 64
9, 15600, Note_off_c, 5, 64, 64
9, 15600, Note_on_c, 5, 63, 45
9, 15600, Note_on_c, 5, 66, 45
9, 15840, Note_off_c, 5, 66, 64
9, 15840, Note_off_c, 5, 63, 64
9, 15840, Note_on_c, 5, 64, 45
9, 15840, Note_on_c, 5, 68, 45
9, 16800, Note_off_c, 5, 68, 64
9, 16800, Note_off_c, 5, 64, 64
9, 16800, Note_on_c, 5, 63, 65
9, 16800, Note_on_c, 5, 66, 65
9, 17200, Note_off_c, 5, 66, 64
9, 17200, Note_off_c, 5, 63, 64
9, 17280, Note_on_c, 5, 64, 75
9, 17280, Note_on_c, 5, 68, 75
9, 17360, Note_off_c, 5, 68, 64
9, 17360, Note_off_c, 5, 64, 64
9, 17520, Note_on_c, 5, 64, 75
9, 17520, Note_on_c, 5, 68, 75
9, 17920, Note_off_c, 5, 68, 64
9, 17920, Note_off_c, 5, 64, 64
9, 18000, Note_on_c, 5, 64, 75
9, 18000, Note_on_c, 5, 68, 75
9, 18400, Note_off_c, 5, 68, 64
9, 18400, Note_off_c, 5, 64, 64
9, 18480, Note_on_c, 5, 64, 75
9, 18480, Note_on_c, 5, 68, 75
9, 18955, Note_off_c, 5, 68, 64
9, 18955, Note_off_c, 5, 64, 64
9, 18960, Note_on_c, 5, 64, 92
9, 18960, Note_on_c, 5, 68, 92
9, 19200, Note_off_c, 5, 68, 64
9, 19200, Note_off_c, 5, 64, 64
9, 19200, Note_on_c, 5, 63, 92
9, 19200, Note_on_c, 5, 66, 92
9, 19440, Note_off_c, 5, 66, 64
9, 19440, Note_off_c, 5, 63, 64
9, 19440, Note_on_c, 5, 64, 92
9, 19440, Note_on_c, 5, 68, 92
9, 19680, Note_off_c, 5, 68, 64
9, 19680, Note_off_c, 5, 64, 64
9, 19680, Note_on_c, 5, 61, 92
9, 19680, Note_on_c, 5, 64, 92
9, 19920, Note_off_c, 5, 64, 64
9, 19920, Note_off_c, 5, 61, 64
9, 19920, Note_on_c, 5, 63, 92
9, 19920, Note_on_c, 5, 66, 92
9, 20155, Note_off_c, 5, 66, 64
9, 20155, Note_off_c, 5, 63, 64
9, 40320, Note_on_c, 5, 64, 75
9, 40320, Note_on_c, 5, 68, 75
9, 40720, Note_off_c, 5, 68, 64
9, 40720, Note_off_c, 5, 64, 64
9, 41760, Note_on_c, 5, 63, 78
9, 41760, Note_on_c, 5, 68, 78
9, 42160, Note_off_c, 5, 68, 64
9, 42160, Note_off_c, 5, 63, 64
9, 43200, Note_on_c, 5, 62, 82
9, 43200, Note_on_c, 5, 68, 82
9, 43600, Note_off_c, 5, 68, 64
9, 43600, Note_off_c, 5, 62, 64
9, 45600, Note_on_c, 5, 68, 92
9, 45600, Note_on_c, 5, 71, 92
9, 46080, Note_off_c, 5, 71, 64
9, 46080, Note_off_c, 5, 68, 64
9, 46080, Note_on_c, 5, 68, 45
9, 46080, Note_on_c, 5, 73, 45
9, 46480, Note_off_c, 5, 73, 64
9, 46480, Note_off_c, 5, 68, 64
9, 47520, Note_on_c, 5, 68, 45
9, 47520, Note_on_c, 5, 73, 45
9, 47920, Note_off_c, 5, 73, 64
9, 47920, Note_off_c, 5, 68, 64
9, 48960, Note_on_c, 5, 68, 62
9, 48960, Note_on_c, 5, 73, 62
9, 49360, Note_off_c, 5, 73, 64
9, 49360, Note_off_c, 5, 68, 64
9, 51360, Note_on_c, 5, 68, 92
9, 51360, Note_on_c, 5, 73, 92
9, 51840, Note_off_c, 5, 73, 64
9, 51840, Note_off_c, 5, 68, 64
9, 51840, Note_on_c, 5, 69, 92
9, 51840, Note_on_c, 5, 73, 92
9, 52240, Note_off_c, 5, 73, 64
9, 52240, Note_off_c, 5, 69, 64
9, 52800, Note_on_c, 5, 68, 92
9, 52800, Note_on_c, 5, 72, 92
9, 53280, Note_off_c, 5, 72, 64
9, 53280, Note_off_c, 5, 68, 64
9, 53280, Note_on_c, 5, 68, 92
9, 53280, Note_on_c, 5, 73, 92
9, 54600, Note_off_c, 5, 73, 64
9, 54600, Note_off_c, 5, 68, 64
9, 54720, Note_on_c, 5, 68, 92
9, 54720, Note_on_c, 5, 72, 92
9, 54800, Note_off_c, 5, 72, 64
9, 54800, Note_off_c, 5, 68, 64
9, 54960, Note_on_c, 5, 68, 92
9, 54960, Note_on_c, 5, 72, 92
9, 55360, Note_off_c, 5, 72, 64
9, 55360, Note_off_c, 5, 68, 64
9, 55440, Note_on_c, 5, 68, 92
9, 55440, Note_on_c, 5, 72, 92
9, 55840, Note_off_c, 5, 72, 64
9, 55840, Note_off_c, 5, 68, 64
9, 55920, Note_on_c, 5, 68, 92
9, 55920, Note_on_c, 5, 72, 92
9, 56000, Note_off_c, 5, 72, 64
9, 56000, Note_off_c, 5, 68, 64
9, 56160, Note_on_c, 5, 68, 92
9, 56160, Note_on_c, 5, 72, 92
9, 56240, Note_off_c, 5, 72, 64
9, 56240, Note_off_c, 5, 68, 64
9, 56400, Note_on_c, 5, 68, 92
9, 56400, Note_on_c, 5, 72, 92
9, 56800, Note_off_c, 5, 72, 64
9, 56800, Note_off_c, 5, 68, 64
9, 56880, Note_on_c, 5, 68, 92
9, 56880, Note_on_c, 5, 72, 92
9, 57280, Note_off_c, 5, 72, 64
9, 57280, Note_off_c, 5, 68, 64
9, 57360, Note_on_c, 5, 68, 92
9, 57360, Note_on_c, 5, 72, 92
9, 57440, Note_off_c, 5, 72, 64
9, 57440, Note_off_c, 5, 68, 64
9, 57600, Note_on_c, 5, 68, 75
9, 57600, Note_on_c, 5, 72, 75
9, 57680, Note_off_c, 5, 72, 64
9, 57680, Note_off_c, 5, 68, 64
9, 57840, Note_on_c, 5, 68, 75
9, 57840, Note_on_c, 5, 72, 75
9, 58240, Note_off_c, 5, 72, 64
9, 58240, Note_off_c, 5, 68, 64
9, 58320, Note_on_c, 5, 68, 75
9, 58320, Note_on_c, 5, 72, 75
9, 58720, Note_off_c, 5, 72, 64
9, 58720, Note_off_c, 5, 68, 64
9, 58800, Note_on_c, 5, 68, 75
9, 58800, Note_on_c, 5, 72, 75
9, 58880, Note_off_c, 5, 72, 64
9, 58880, Note_off_c, 5, 68, 64
9, 59040, Note_on_c, 5, 68, 75
9, 59040, Note_on_c, 5, 72, 75
9, 59120, Note_off_c, 5, 72, 64
9, 59120, Note_off_c, 5, 68, 64
9, 59280, Note_on_c, 5, 68, 75
9, 59280, Note_on_c, 5, 72, 75
9, 59680, Note_off_c, 5, 72, 64
9, 59680, Note_off_c, 5, 68, 64
9, 59760, Note_on_c, 5, 68, 75
9, 59760, Note_on_c, 5, 72, 75
9, 60160, Note_off_c, 5, 72, 64
9, 60160, Note_off_c, 5, 68, 64
9, 60240, Note_on_c, 5, 68, 75
9, 60240, Note_on_c, 5, 72, 75
9, 60320, Note_off_c, 5, 72, 64
9, 60320, Note_off_c, 5, 68, 64
9, 60480, Note_on_c, 5, 68, 60
9, 60480, Note_on_c, 5, 72, 60
9, 60560, Note_off_c, 5, 72, 64
9, 60560, Note_off_c, 5, 68, 64
9, 60720, Note_on_c, 5, 68, 60
9, 60720, Note_on_c, 5, 72, 60
9, 61120, Note_off_c, 5, 72, 64
9, 61120, Note_off_c, 5, 68, 64
9, 61200, Note_on_c, 5, 68, 60
9, 61200, Note_on_c, 5, 72, 60
9, 61600, Note_off_c, 5, 72, 64
9, 61600, Note_off_c, 5, 68, 64
9, 61680, Note_on_c, 5, 68, 60
9, 61680, Note_on_c, 5, 72, 60
9, 61760, Note_off_c, 5, 72, 64
9, 61760, Note_off_c, 5, 68, 64
9, 61920, Note_on_c, 5, 68, 60
9, 61920, Note_on_c, 5, 73, 60
9, 62000, Note_off_c, 5, 73, 64
9, 62000, Note_off_c, 5, 68, 64
9, 62160, Note_on_c, 5, 68, 60
9, 62160, Note_on_c, 5, 73, 60
9, 62560, Note_off_c, 5, 73, 64
9, 62560, Note_off_c, 5, 68, 64
9, 62640, Note_on_c, 5, 68, 60
9, 62640, Note_on_c, 5, 73, 60
9, 63040, Note_off_c, 5, 73, 64
9, 63040, Note_off_c, 5, 68, 64
9, 63120, Note_on_c, 5, 68, 60
9, 63120, Note_on_c, 5, 73, 60
9, 63200, Note_off_c, 5, 73, 64
9, 63200, Note_off_c, 5, 68, 64
9, 63360, Note_on_c, 5, 68, 45
9, 63360, Note_on_c, 5, 72, 45
9, 63440, Note_off_c, 5, 72, 64
9, 63440, Note_off_c, 5, 68, 64
9, 63600, Note_on_c, 5, 68, 45
9, 63600, Note_on_c, 5, 72, 45
9, 64000, Note_off_c, 5, 72, 64
9, 64000, Note_off_c, 5, 68, 64
9, 64080, Note_on_c, 5, 68, 45
9, 64080, Note_on_c, 5, 72, 45
9, 64480, Note_off_c, 5, 72, 64
9, 64480, Note_off_c, 5, 68, 64
9, 64560, Note_on_c, 5, 68, 45
9, 64560, Note_on_c, 5, 72, 45
9, 64640, Note_off_c, 5, 72, 64
9, 64640, Note_off_c, 5, 68, 64
9, 64800, Note_on_c, 5, 68, 45
9, 64800, Note_on_c, 5, 73, 45
9, 64880, Note_off_c, 5, 73, 64
9, 64880, Note_off_c, 5, 68, 64
9, 65040, Note_on_c, 5, 68, 45
9, 65040, Note_on_c, 5, 73, 45
9, 65440, Note_off_c, 5, 73, 64
9, 65440, Note_off_c, 5, 68, 64
9, 65520, Note_on_c, 5, 68, 45
9, 65520, Note_on_c, 5, 73, 45
9, 65920, Note_off_c, 5, 73, 64
9, 65920, Note_off_c, 5, 68, 64
9, 66000, Note_on_c, 5, 68, 45
9, 66000, Note_on_c, 5, 73, 45
9, 66080, Note_off_c, 5, 73, 64
9, 66080, Note_off_c, 5, 68, 64
9, 66240, Note_on_c, 5, 67, 60
9, 66240, Note_on_c, 5, 70, 60
9, 66320, Note_off_c, 5, 70, 64
9, 66320, Note_off_c, 5, 67, 64
9, 66480, Note_on_c, 5, 67, 60
9, 66480, Note_on_c, 5, 70, 60
9, 66880, Note_off_c, 5, 70, 64
9, 66880, Note_off_c, 5, 67, 64
9, 66960, Note_on_c, 5, 67, 60
9, 66960, Note_on_c, 5, 70, 60
9, 67360, Note_off_c, 5, 70, 64
9, 67360, Note_off_c, 5, 67, 64
9, 67440, Note_on_c, 5, 67, 60
9, 67440, Note_on_c, 5, 70, 60
9, 67520, Note_off_c, 5, 70, 64
9, 67520, Note_off_c, 5, 67, 64
9, 67680, Note_on_c, 5, 67, 45
9, 67680, Note_on_c, 5, 70, 45
9, 67760, Note_off_c, 5, 70, 64
9, 67760, Note_off_c, 5, 67, 64
9, 67920, Note_on_c, 5, 67, 45
9, 67920, Note_on_c, 5, 70, 45
9, 68320, Note_off_c, 5, 70, 64
9, 68320, Note_off_c, 5, 67, 64
9, 68400, Note_on_c, 5, 67, 45
9, 68400, Note_on_c, 5, 70, 45
9, 68800, Note_off_c, 5, 70, 64
9, 68800, Note_off_c, 5, 67, 64
9, 68880, Note_on_c, 5, 67, 45
9, 68880, Note_on_c, 5, 70, 45
9, 68960, Note_off_c, 5, 70, 64
9, 68960, Note_off_c, 5, 67, 64
9, 69120, Note_on_c, 5, 68, 75
9, 69120, Note_on_c, 5, 73, 75
9, 69200, Note_off_c, 5, 73, 64
9, 69200, Note_off_c, 5, 68, 64
9, 69360, Note_on_c, 5, 68, 75
9, 69360, Note_on_c, 5, 73, 75
9, 69760, Note_off_c, 5, 73, 64
9, 69760, Note_off_c, 5, 68, 64
9, 69840, Note_on_c, 5, 68, 75
9, 69840, Note_on_c, 5, 73, 75
9, 70240, Note_off_c, 5, 73, 64
9, 70240, Note_off_c, 5, 68, 64
9, 70320, Note_on_c, 5, 68, 75
9, 70320, Note_on_c, 5, 73, 75
9, 70400, Note_off_c, 5, 73, 64
9, 70400, Note_off_c, 5, 68, 64
9, 70560, Note_on_c, 5, 68, 45
9, 70560, Note_on_c, 5, 72, 45
9, 70640, Note_off_c, 5, 72, 64
9, 70640, Note_off_c, 5, 68, 64
9, 70800, Note_on_c, 5, 68, 45
9, 70800, Note_on_c, 5, 72, 45
9, 71200, Note_off_c, 5, 72, 64
9, 71200, Note_off_c, 5, 68, 64
9, 71280, Note_on_c, 5, 68, 45
9, 71280, Note_on_c, 5, 72, 45
9, 71680, Note_off_c, 5, 72, 64
9, 71680, Note_off_c, 5, 68, 64
9, 71760, Note_on_c, 5, 68, 45
9, 71760, Note_on_c, 5, 72, 45
9, 71840, Note_off_c, 5, 72, 64
9, 71840, Note_off_c, 5, 68, 64
9, 72000, Note_on_c, 5, 68, 92
9, 72000, Note_on_c, 5, 73, 92
9, 72400, Note_off_c, 5, 73, 64
9, 72400, Note_off_c, 5, 68, 64
9, 73440, Note_on_c, 5, 68, 92
9, 73440, Note_on_c, 5, 73, 92
9, 73840, Note_off_c, 5, 73, 64
9, 73840, Note_off_c, 5, 68, 64
9, 74880, Note_on_c, 5, 70, 92
9, 74880, Note_on_c, 5, 73, 92
9, 74960, Note_off_c, 5, 73, 64
9, 74960, Note_off_c, 5, 70, 64
9, 75120, Note_on_c, 5, 70, 92
9, 75120, Note_on_c, 5, 73, 92
9, 75520, Note_off_c, 5, 73, 64
9, 75520, Note_off_c, 5, 70, 64
9, 75600, Note_on_c, 5, 70, 92
9, 75600, Note_on_c, 5, 73, 92
9, 76000, Note_off_c, 5, 73, 64
9, 76000, Note_off_c, 5, 70, 64
9, 76080, Note_on_c, 5, 70, 92
9, 76080, Note_on_c, 5, 73, 92
9, 76160, Note_off_c, 5, 73, 64
9, 76160, Note_off_c, 5, 70, 64
9, 76320, Note_on_c, 5, 70, 60
9, 76320, Note_on_c, 5, 73, 60
9, 76400, Note_off_c, 5, 73, 64
9, 76400, Note_off_c, 5, 70, 64
9, 76560, Note_on_c, 5, 70, 60
9, 76560, Note_on_c, 5, 73, 60
9, 76960, Note_off_c, 5, 73, 64
9, 76960, Note_off_c, 5, 70, 64
9, 77040, Note_on_c, 5, 70, 60
9, 77040, Note_on_c, 5, 73, 60
9, 77440, Note_off_c, 5, 73, 64
9, 77440, Note_off_c, 5, 70, 64
9, 77520, Note_on_c, 5, 70, 60
9, 77520, Note_on_c, 5, 73, 60
9, 77600, Note_off_c, 5, 73, 64
9, 77600, Note_off_c, 5, 70, 64
9, 77760, Note_on_c, 5, 68, 92
9, 77760, Note_on_c, 5, 71, 92
9, 78160, Note_off_c, 5, 71, 64
9, 78160, Note_off_c, 5, 68, 64
9, 79200, Note_on_c, 5, 71, 60
9, 79200, Note_on_c, 5, 75, 60
9, 79600, Note_off_c, 5, 75, 64
9, 79600, Note_off_c, 5, 71, 64
9, 80640, Note_on_c, 5, 71, 92
9, 80640, Note_on_c, 5, 74, 92
9, 82080, Note_off_c, 5, 74, 64
9, 82080, Note_off_c, 5, 71, 64
9, 82080, Note_on_c, 5, 68, 45
9, 82080, Note_on_c, 5, 76, 45
9, 82315, Note_off_c, 5, 76, 64
9, 82315, Note_off_c, 5, 68, 64
9, 82320, Note_on_c, 5, 68, 75
9, 82320, Note_on_c, 5, 76, 75
9, 82400, Note_off_c, 5, 76, 64
9, 82400, Note_off_c, 5, 68, 64
9, 82440, Note_on_c, 5, 66, 75
9, 82440, Note_on_c, 5, 74, 75
9, 82520, Note_off_c, 5, 74, 64
9, 82520, Note_off_c, 5, 66, 64
9, 82560, Note_on_c, 5, 68, 75
9, 82560, Note_on_c, 5, 76, 75
9, 82640, Note_off_c, 5, 76, 64
9, 82640, Note_off_c, 5, 68, 64
9, 82800, Note_on_c, 5, 66, 75
9, 82800, Note_on_c, 5, 74, 75
9, 82880, Note_off_c, 5, 74, 64
9, 82880, Note_off_c, 5, 66, 64
9, 83040, Note_on_c, 5, 68, 75
9, 83040, Note_on_c, 5, 76, 75
9, 83120, Note_off_c, 5, 76, 64
9, 83120, Note_off_c, 5, 68, 64
9, 83280, Note_on_c, 5, 64, 75
9, 83280, Note_on_c, 5, 73, 75
9, 83360, Note_off_c, 5, 73, 64
9, 83360, Note_off_c, 5, 64, 64
9, 83520, Note_on_c, 5, 69, 92
9, 83520, Note_on_c, 5, 73, 92
9, 84235, Note_off_c, 5, 73, 64
9, 84235, Note_off_c, 5, 69, 64
9, 84240, Note_on_c, 5, 71, 92
9, 84240, Note_on_c, 5, 74, 92
9, 84480, Note_off_c, 5, 74, 64
9, 84480, Note_off_c, 5, 71, 64
9, 84480, Note_on_c, 5, 69, 92
9, 84480, Note_on_c, 5, 73, 92
9, 84720, Note_off_c, 5, 73, 64
9, 84720, Note_off_c, 5, 69, 64
9, 84720, Note_on_c, 5, 68, 92
9, 84720, Note_on_c, 5, 71, 92
9, 84960, Note_off_c, 5, 71, 64
9, 84960, Note_off_c, 5, 68, 64
9, 84960, Note_on_c, 5, 69, 92
9, 84960, Note_on_c, 5, 73, 92
9, 85920, Note_off_c, 5, 73, 64
9, 85920, Note_off_c, 5, 69, 64
9, 85920, Note_on_c, 5, 71, 92
9, 85920, Note_on_c, 5, 75, 92
9, 86320, Note_off_c, 5, 75, 64
9, 86320, Note_off_c, 5, 71, 64
9, 86400, Note_on_c, 5, 69, 60
9, 86400, Note_on_c, 5, 73, 60
9, 87115, Note_off_c, 5, 73, 64
9, 87115, Note_off_c, 5, 69, 64
9, 87120, Note_on_c, 5, 71, 60
9, 87120, Note_on_c, 5, 74, 60
9, 87360, Note_off_c, 5, 74, 64
9, 87360, Note_off_c, 5, 71, 64
9, 87360, Note_on_c, 5, 69, 60
9, 87360, Note_on_c, 5, 73, 60
9, 87600, Note_off_c, 5, 73, 64
9, 87600, Note_off_c, 5, 69, 64
9, 87600, Note_on_c, 5, 68, 60
9, 87600, Note_on_c, 5, 71, 60
9, 87840, Note_off_c, 5, 71, 64
9, 87840, Note_off_c, 5, 68, 64
9, 87840, Note_on_c, 5, 69, 60
9, 87840, Note_on_c, 5, 73, 60
9, 88800, Note_off_c, 5, 73, 64
9, 88800, Note_off_c, 5, 69, 64
9, 88800, Note_on_c, 5, 71, 60
9, 88800, Note_on_c, 5, 75, 60
9, 89200, Note_off_c, 5, 75, 64
9, 89200, Note_off_c, 5, 71, 64
9, 89280, Note_on_c, 5, 69, 92
9, 89280, Note_on_c, 5, 73, 92
9, 90240, Note_off_c, 5, 73, 64
9, 90240, Note_off_c, 5, 69, 64
9, 90240, Note_on_c, 5, 69, 92
9, 90240, Note_on_c, 5, 74, 92
9, 90720, Note_off_c, 5, 74, 64
9, 90720, Note_off_c, 5, 69, 64
9, 90720, Note_on_c, 5, 64, 92
9, 90720, Note_on_c, 5, 73, 92
9, 90955, Note_off_c, 5, 73, 64
9, 90955, Note_off_c, 5, 64, 64
9, 90960, Note_on_c, 5, 64, 92
9, 90960, Note_on_c, 5, 73, 92
9, 91200, Note_off_c, 5, 73, 64
9, 91200, Note_off_c, 5, 64, 64
9, 91200, Note_on_c, 5, 62, 92
9, 91200, Note_on_c, 5, 71, 92
9, 91440, Note_off_c, 5, 71, 64
9, 91440, Note_off_c, 5, 62, 64
9, 91440, Note_on_c, 5, 64, 92
9, 91440, Note_on_c, 5, 73, 92
9, 91680, Note_off_c, 5, 73, 64
9, 91680, Note_off_c, 5, 64, 64
9, 91680, Note_on_c, 5, 66, 92
9, 91680, Note_on_c, 5, 74, 92
9, 91920, Note_off_c, 5, 74, 64
9, 91920, Note_off_c, 5, 66, 64
9, 91920, Note_on_c, 5, 62, 92
9, 91920, Note_on_c, 5, 71, 92
9, 92155, Note_off_c, 5, 71, 64
9, 92155, Note_off_c, 5, 62, 64
9, 92160, Note_on_c, 5, 69, 75
9, 92160, Note_on_c, 5, 73, 75
9, 92875, Note_off_c, 5, 73, 64
9, 92875, Note_off_c, 5, 69, 64
9, 92880, Note_on_c, 5, 71, 75
9, 92880, Note_on_c, 5, 74, 75
9, 93120, Note_off_c, 5, 74, 64
9, 93120, Note_off_c, 5, 71, 64
9, 93120, Note_on_c, 5, 69, 75
9, 93120, Note_on_c, 5, 73, 75
9, 93360, Note_off_c, 5, 73, 64
9, 93360, Note_off_c, 5, 69, 64
9, 93360, Note_on_c, 5, 68, 75
9, 93360, Note_on_c, 5, 71, 75
9, 93600, Note_off_c, 5, 71, 64
9, 93600, Note_off_c, 5, 68, 64
9, 93600, Note_on_c, 5, 64, 75
9, 93600, Note_on_c, 5, 73, 75
9, 93835, Note_off_c, 5, 73, 64
9, 93835, Note_off_c, 5, 64, 64
9, 93840, Note_on_c, 5, 64, 75
9, 93840, Note_on_c, 5, 73, 75
9, 94080, Note_off_c, 5, 73, 64
9, 94080, Note_off_c, 5, 64, 64
9, 94080, Note_on_c, 5, 62, 75
9, 94080, Note_on_c, 5, 71, 75
9, 94320, Note_off_c, 5, 71, 64
9, 94320, Note_off_c, 5, 62, 64
9, 94320, Note_on_c, 5, 64, 75
9, 94320, Note_on_c, 5, 73, 75
9, 94560, Note_off_c, 5, 73, 64
9, 94560, Note_off_c, 5, 64, 64
9, 94560, Note_on_c, 5, 66, 75
9, 94560, Note_on_c, 5, 74, 75
9, 94800, Note_off_c, 5, 74, 64
9, 94800, Note_off_c, 5, 66, 64
9, 94800, Note_on_c, 5, 62, 75
9, 94800, Note_on_c, 5, 71, 75
9, 95035, Note_off_c, 5, 71, 64
9, 95035, Note_off_c, 5, 62, 64
9, 95040, Note_on_c, 5, 64, 108
9, 95040, Note_on_c, 5, 69, 108
9, 96360, Note_off_c, 5, 69, 64
9, 96360, Note_off_c, 5, 64, 64
9, 96480, Note_on_c, 5, 64, 108
9, 96480, Note_on_c, 5, 68, 108
9, 97800, Note_off_c, 5, 68, 64
9, 97800, Note_off_c, 5, 64, 64
9, 97920, Note_on_c, 5, 64, 108
9, 97920, Note_on_c, 5, 67, 108
9, 99240, Note_off_c, 5, 67, 64
9, 99240, Note_off_c, 5, 64, 64
9, 99360, Note_on_c, 5, 66, 108
9, 99360, Note_on_c, 5, 69, 108
9, 100680, Note_off_c, 5, 69, 64
9, 100680, Note_off_c, 5, 66, 64
9, 100800, Note_on_c, 5, 64, 108
9, 100800, Note_on_c, 5, 69, 108
9, 102120, Note_off_c, 5, 69, 64
9, 102120, Note_off_c, 5, 64, 64
9, 102240, Note_on_c, 5, 64, 92
9, 102240, Note_on_c, 5, 69, 92
9, 103560, Note_off_c, 5, 69, 64
9, 103560, Note_off_c, 5, 64, 64
9, 103680, Note_on_c, 5, 66, 92
9, 103680, Note_on_c, 5, 69, 92
9, 105000, Note_off_c, 5, 69, 64
9, 105000, Note_off_c, 5, 66, 64
9, 105120, Note_on_c, 5, 66, 92
9, 105120, Note_on_c, 5, 69, 92
9, 106440, Note_off_c, 5, 69, 64
9, 106440, Note_off_c, 5, 66, 64
9, 106560, Note_on_c, 5, 64, 76
9, 106560, Note_on_c, 5, 69, 76
9, 107880, Note_off_c, 5, 69, 64
9, 107880, Note_off_c, 5, 64, 64
9, 108000, Note_on_c, 5, 64, 60
9, 108000, Note_on_c, 5, 69, 60
9, 109320, Note_off_c, 5, 69, 64
9, 109320, Note_off_c, 5, 64, 64
9, 109440, Note_on_c, 5, 64, 60
9, 109440, Note_on_c, 5, 69, 60
9, 110760, Note_off_c, 5, 69, 64
9, 110760, Note_off_c, 5, 64, 64
9, 110880, Note_on_c, 5, 64, 45
9, 110880, Note_on_c, 5, 68, 45
9, 112200, Note_off_c, 5, 68, 64
9, 112200, Note_off_c, 5, 64, 64
9, 112320, Note_on_c, 5, 64, 60
9, 112320, Note_on_c, 5, 69, 60
9, 112720, Note_off_c, 5, 69, 64
9, 112720, Note_off_c, 5, 64, 64
9, 113760, Note_on_c, 5, 64, 68
9, 113760, Note_on_c, 5, 68, 68
9, 114160, Note_off_c, 5, 68, 64
9, 114160, Note_off_c, 5, 64, 64
9, 115200, Note_on_c, 5, 64, 77
9, 115200, Note_on_c, 5, 68, 77
9, 115600, Note_off_c, 5, 68, 64
9, 115600, Note_off_c, 5, 64, 64
9, 117600, Note_on_c, 5, 64, 92
9, 117600, Note_on_c, 5, 68, 92
9, 118080, Note_off_c, 5, 68, 64
9, 118080, Note_off_c, 5, 64, 64
9, 118080, Note_on_c, 5, 62, 45
9, 118080, Note_on_c, 5, 66, 45
9, 118480, Note_off_c, 5, 66, 64
9, 118480, Note_off_c, 5, 62, 64
9, 119520, Note_on_c, 5, 62, 57
9, 119520, Note_on_c, 5, 66, 57
9, 119920, Note_off_c, 5, 66, 64
9, 119920, Note_off_c, 5, 62, 64
9, 120960, Note_on_c, 5, 63, 69
9, 120960, Note_on_c, 5, 66, 69
9, 121360, Note_off_c, 5, 66, 64
9, 121360, Note_off_c, 5, 63, 64
9, 123360, Note_on_c, 5, 63, 92
9, 123360, Note_on_c, 5, 68, 92
9, 123840, Note_off_c, 5, 68, 64
9, 123840, Note_off_c, 5, 63, 64
9, 123840, Note_on_c, 5, 65, 92
9, 123840, Note_on_c, 5, 68, 92
9, 125280, Note_off_c, 5, 68, 64
9, 125280, Note_off_c, 5, 65, 64
9, 125280, Note_on_c, 5, 66, 92
9, 125280, Note_on_c, 5, 69, 92
9, 126720, Note_off_c, 5, 69, 64
9, 126720, Note_off_c, 5, 66, 64
9, 126720, Note_on_c, 5, 66, 92
9, 126720, Note_on_c, 5, 71, 92
9, 128040, Note_off_c, 5, 71, 64
9, 128040, Note_off_c, 5, 66, 64
9, 138240, Note_on_c, 5, 65, 60
9, 138240, Note_on_c, 5, 68, 60
9, 138960, Note_off_c, 5, 68, 64
9, 138960, Note_off_c, 5, 65, 64
9, 138960, Note_on_c, 5, 66, 60
9, 138960, Note_on_c, 5, 69, 60
9, 139200, Note_off_c, 5, 69, 64
9, 139200, Note_off_c, 5, 66, 64
9, 139200, Note_on_c, 5, 65, 60
9, 139200, Note_on_c, 5, 68, 60
9, 139440, Note_off_c, 5, 68, 64
9, 139440, Note_off_c, 5, 65, 64
9, 139440, Note_on_c, 5, 63, 60
9, 139440, Note_on_c, 5, 66, 60
9, 139680, Note_off_c, 5, 66, 64
9, 139680, Note_off_c, 5, 63, 64
9, 139680, Note_on_c, 5, 65, 45
9, 139680, Note_on_c, 5, 68, 45
9, 141000, Note_off_c, 5, 68, 64
9, 141000, Note_off_c, 5, 65, 64
9, 145440, Note_on_c, 5, 65, 92
9, 145440, Note_on_c, 5, 68, 92
9, 150160, Note_off_c, 5, 68, 64
9, 150160, Note_off_c, 5, 65, 64
9, 150240, Note_on_c, 5, 65, 108
9, 150240, Note_on_c, 5, 73, 108
9, 150480, Note_off_c, 5, 73, 64
9, 150480, Note_off_c, 5, 65, 64
9, 150480, Note_on_c, 5, 66, 108
9, 150480, Note_on_c, 5, 75, 108
9, 150720, Note_off_c, 5, 75, 64
9, 150720, Note_off_c, 5, 66, 64
9, 150720, Note_on_c, 5, 68, 108
9, 150720, Note_on_c, 5, 77, 108
9, 151200, Note_off_c, 5, 77, 64
9, 151200, Note_off_c, 5, 68, 64
9, 151200, Note_on_c, 5, 69, 108
9, 151200, Note_on_c, 5, 73, 108
9, 151600, Note_off_c, 5, 73, 64
9, 151600, Note_off_c, 5, 69, 64
9, 151680, Note_on_c, 5, 66, 108
9, 151680, Note_on_c, 5, 69, 108
9, 151920, Note_off_c, 5, 69, 64
9, 151920, Note_off_c, 5, 66, 64
9, 151920, Note_on_c, 5, 68, 108
9, 151920, Note_on_c, 5, 71, 108
9, 152160, Note_off_c, 5, 71, 64
9, 152160, Note_off_c, 5, 68, 64
9, 152160, Note_on_c, 5, 69, 108
9, 152160, Note_on_c, 5, 73, 108
9, 152560, Note_off_c, 5, 73, 64
9, 152560, Note_off_c, 5, 69, 64
9, 152640, Note_on_c, 5, 65, 60
9, 152640, Note_on_c, 5, 74, 60
9, 153040, Note_off_c, 5, 74, 64
9, 153040, Note_off_c, 5, 65, 64
9, 153120, Note_on_c, 5, 68, 60
9, 153120, Note_on_c, 5, 77, 60
9, 153520, Note_off_c, 5, 77, 64
9, 153520, Note_off_c, 5, 68, 64
9, 153600, Note_on_c, 5, 69, 60
9, 153600, Note_on_c, 5, 77, 60
9, 154000, Note_off_c, 5, 77, 64
9, 154000, Note_off_c, 5, 69, 64
9, 154080, Note_on_c, 5, 69, 60
9, 154080, Note_on_c, 5, 78, 60
9, 154480, Note_off_c, 5, 78, 64
9, 154480, Note_off_c, 5, 69, 64
9, 154560, Note_on_c, 5, 68, 60
9, 154560, Note_on_c, 5, 78, 60
9, 154960, Note_off_c, 5, 78, 64
9, 154960, Note_off_c, 5, 68, 64
9, 155040, Note_on_c, 5, 68, 60
9, 155040, Note_on_c, 5, 77, 60
9, 155440, Note_off_c, 5, 77, 64
9, 155440, Note_off_c, 5, 68, 64
9, 155520, Note_on_c, 5, 66, 45
9, 155520, Note_on_c, 5, 69, 45
9, 156960, Note_off_c, 5, 69, 64
9, 156960, Note_off_c, 5, 66, 64
9, 156960, Note_on_c, 5, 64, 45
9, 156960, Note_on_c, 5, 69, 45
9, 158400, Note_off_c, 5, 69, 64
9, 158400, Note_off_c, 5, 64, 64
9, 158400, Note_on_c, 5, 64, 45
9, 158400, Note_on_c, 5, 68, 45
9, 159840, Note_off_c, 5, 68, 64
9, 159840, Note_off_c, 5, 64, 64
9, 159840, Note_on_c, 5, 66, 45
9, 159840, Note_on_c, 5, 70, 45
9, 161280, Note_off_c, 5, 70, 64
9, 161280, Note_off_c, 5, 66, 64
9, 161280, Note_on_c, 5, 63, 45
9, 161280, Note_on_c, 5, 71, 45
9, 162600, Note_off_c, 5, 71, 64
9, 162600, Note_off_c, 5, 63, 64
9, 162720, Note_on_c, 5, 71, 45
9, 162720, Note_on_c, 5, 80, 45
9, 162960, Note_off_c, 5, 80, 64
9, 162960, Note_off_c, 5, 71, 64
9, 162960, Note_on_c, 5, 69, 45
9, 162960, Note_on_c, 5, 78, 45
9, 163200, Note_off_c, 5, 78, 64
9, 163200, Note_off_c, 5, 69, 64
9, 163200, Note_on_c, 5, 68, 45
9, 163200, Note_on_c, 5, 76, 45
9, 163440, Note_off_c, 5, 76, 64
9, 163440, Note_off_c, 5, 68, 64
9, 163440, Note_on_c, 5, 66, 45
9, 163440, Note_on_c, 5, 74, 45
9, 163680, Note_off_c, 5, 74, 64
9, 163680, Note_off_c, 5, 66, 64
9, 163680, Note_on_c, 5, 64, 45
9, 163680, Note_on_c, 5, 73, 45
9, 163920, Note_off_c, 5, 73, 64
9, 163920, Note_off_c, 5, 64, 64
9, 163920, Note_on_c, 5, 62, 45
9, 163920, Note_on_c, 5, 71, 45
9, 164160, Note_off_c, 5, 71, 64
9, 164160, Note_off_c, 5, 62, 64
9, 164160, Note_on_c, 5, 61, 45
9, 164160, Note_on_c, 5, 69, 45
9, 165480, Note_off_c, 5, 69, 64
9, 165480, Note_off_c, 5, 61, 64
9, 165600, Note_on_c, 5, 69, 45
9, 165600, Note_on_c, 5, 78, 45
9, 165840, Note_off_c, 5, 78, 64
9, 165840, Note_off_c, 5, 69, 64
9, 165840, Note_on_c, 5, 68, 45
9, 165840, Note_on_c, 5, 76, 45
9, 166080, Note_off_c, 5, 76, 64
9, 166080, Note_off_c, 5, 68, 64
9, 166080, Note_on_c, 5, 66, 45
9, 166080, Note_on_c, 5, 75, 45
9, 166320, Note_off_c, 5, 75, 64
9, 166320, Note_off_c, 5, 66, 64
9, 166320, Note_on_c, 5, 64, 45
9, 166320, Note_on_c, 5, 73, 45
9, 166560, Note_off_c, 5, 73, 64
9, 166560, Note_off_c, 5, 64, 64
9, 166560, Note_on_c, 5, 63, 45
9, 166560, Note_on_c, 5, 71, 45
9, 166800, Note_off_c, 5, 71, 64
9, 166800, Note_off_c, 5, 63, 64
9, 166800, Note_on_c, 5, 61, 45
9, 166800, Note_on_c, 5, 69, 45
9, 167040, Note_off_c, 5, 69, 64
9, 167040, Note_off_c, 5, 61, 64
9, 167040, Note_on_c, 5, 63, 45
9, 167040, Note_on_c, 5, 71, 45
9, 168360, Note_off_c, 5, 71, 64
9, 168360, Note_off_c, 5, 63, 64
9, 168480, Note_on_c, 5, 73, 60
9, 168480, Note_on_c, 5, 76, 60
9, 168720, Note_off_c, 5, 76, 64
9, 168720, Note_off_c, 5, 73, 64
9, 168720, Note_on_c, 5, 71, 45
9, 168720, Note_on_c, 5, 74, 45
9, 168960, Note_off_c, 5, 74, 64
9, 168960, Note_off_c, 5, 71, 64
9, 168960, Note_on_c, 5, 69, 45
9, 168960, Note_on_c, 5, 73, 45
9, 169200, Note_off_c, 5, 73, 64
9, 169200, Note_off_c, 5, 69, 64
9, 169200, Note_on_c, 5, 68, 45
9, 169200, Note_on_c, 5, 71, 45
9, 169440, Note_off_c, 5, 71, 64
9, 169440, Note_off_c, 5, 68, 64
9, 169440, Note_on_c, 5, 66, 45
9, 169440, Note_on_c, 5, 69, 45
9, 169680, Note_off_c, 5, 69, 64
9, 169680, Note_off_c, 5, 66, 64
9, 169680, Note_on_c, 5, 64, 45
9, 169680, Note_on_c, 5, 68, 45
9, 169920, Note_off_c, 5, 68, 64
9, 169920, Note_off_c, 5, 64, 64
9, 169920, Note_on_c, 5, 64, 45
9, 169920, Note_on_c, 5, 69, 45
9, 170320, Note_off_c, 5, 69, 64
9, 170320, Note_off_c, 5, 64, 64
9, 170400, Note_on_c, 5, 69, 46
9, 170400, Note_on_c, 5, 73, 46
9, 170800, Note_off_c, 5, 73, 64
9, 170800, Note_off_c, 5, 69, 64
9, 170880, Note_on_c, 5, 73, 47
9, 170880, Note_on_c, 5, 76, 47
9, 171280, Note_off_c, 5, 76, 64
9, 171280, Note_off_c, 5, 73, 64
9, 171360, Note_on_c, 5, 66, 48
9, 171360, Note_on_c, 5, 75, 48
9, 172680, Note_off_c, 5, 75, 64
9, 172680, Note_off_c, 5, 66, 64
9, 172800, Note_on_c, 5, 68, 52
9, 172800, Note_on_c, 5, 76, 52
9, 174120, Note_off_c, 5, 76, 64
9, 174120, Note_off_c, 5, 68, 64
9, 174240, Note_on_c, 5, 66, 56
9, 174240, Note_on_c, 5, 73, 56
9, 175560, Note_off_c, 5, 73, 64
9, 175560, Note_off_c, 5, 66, 64
9, 175680, Note_on_c, 5, 70, 60
9, 175680, Note_on_c, 5, 71, 60
9, 177120, Note_off_c, 5, 71, 64
9, 177120, Note_off_c, 5, 70, 64
9, 177120, Note_on_c, 5, 71, 60
9, 177120, Note_on_c, 5, 75, 60
9, 178560, Note_off_c, 5, 75, 64
9, 178560, Note_off_c, 5, 71, 64
9, 178560, Note_on_c, 5, 71, 60
9, 178560, Note_on_c, 5, 75, 60
9, 179520, Note_off_c, 5, 75, 64
9, 179520, Note_off_c, 5, 71, 64
9, 179520, Note_on_c, 5, 69, 60
9, 179520, Note_on_c, 5, 73, 60
9, 180000, Note_off_c, 5, 73, 64
9, 180000, Note_off_c, 5, 69, 64
9, 180000, Note_on_c, 5, 69, 60
9, 180000, Note_on_c, 5, 73, 60
9, 181320, Note_off_c, 5, 73, 64
9, 181320, Note_off_c, 5, 69, 64
9, 181440, Note_on_c, 5, 71, 60
9, 181440, Note_on_c, 5, 76, 60
9, 181840, Note_off_c, 5, 76, 64
9, 181840, Note_off_c, 5, 71, 64
9, 181920, Note_on_c, 5, 76, 60
9, 181920, Note_on_c, 5, 80, 60
9, 182320, Note_off_c, 5, 80, 64
9, 182320, Note_off_c, 5, 76, 64
9, 182400, Note_on_c, 5, 71, 60
9, 182400, Note_on_c, 5, 76, 60
9, 182800, Note_off_c, 5, 76, 64
9, 182800, Note_off_c, 5, 71, 64
9, 182880, Note_on_c, 5, 71, 60
9, 182880, Note_on_c, 5, 75, 60
9, 183280, Note_off_c, 5, 75, 64
9, 183280, Note_off_c, 5, 71, 64
9, 183360, Note_on_c, 5, 75, 69
9, 183360, Note_on_c, 5, 78, 69
9, 183760, Note_off_c, 5, 78, 64
9, 183760, Note_off_c, 5, 75, 64
9, 183840, Note_on_c, 5, 71, 78
9, 183840, Note_on_c, 5, 75, 78
9, 184240, Note_off_c, 5, 75, 64
9, 184240, Note_off_c, 5, 71, 64
9, 184320, Note_on_c, 5, 68, 88
9, 184320, Note_on_c, 5, 76, 88
9, 184720, Note_off_c, 5, 76, 64
9, 184720, Note_off_c, 5, 68, 64
9, 184800, Note_on_c, 5, 68, 98
9, 184800, Note_on_c, 5, 76, 98
9, 185040, Note_off_c, 5, 76, 64
9, 185040, Note_off_c, 5, 68, 64
9, 185040, Note_on_c, 5, 69, 103
9, 185040, Note_on_c, 5, 78, 103
9, 185280, Note_off_c, 5, 78, 64
9, 185280, Note_off_c, 5, 69, 64
9, 185280, Note_on_c, 5, 71, 108
9, 185280, Note_on_c, 5, 80, 108
9, 185680, Note_off_c, 5, 80, 64
9, 185680, Note_off_c, 5, 71, 64
9, 185760, Note_on_c, 5, 68, 75
9, 185760, Note_on_c, 5, 76, 75
9, 186160, Note_off_c, 5, 76, 64
9, 186160, Note_off_c, 5, 68, 64
9, 186240, Note_on_c, 5, 74, 127
9, 186320, Note_off_c, 5, 74, 64
9, 186480, Note_on_c, 5, 73, 127
9, 186560, Note_off_c, 5, 73, 64
9, 186720, Note_on_c, 5, 74, 127
9, 186800, Note_off_c, 5, 74, 64
9, 186960, Note_on_c, 5, 71, 127
9, 187040, Note_off_c, 5, 71, 64
9, 187200, Note_on_c, 5, 73, 127
9, 187600, Note_off_c, 5, 73, 64
9, 187680, Note_on_c, 5, 73, 127
9, 187760, Note_off_c, 5, 73, 64
9, 187920, Note_on_c, 5, 71, 127
9, 188000, Note_off_c, 5, 71, 64
9, 188160, Note_on_c, 5, 73, 127
9, 188240, Note_off_c, 5, 73, 64
9, 188400, Note_on_c, 5, 69, 127
9, 188480, Note_off_c, 5, 69, 64
9, 188640, Note_on_c, 5, 71, 127
9, 189040, Note_off_c, 5, 71, 64
9, 189120, Note_on_c, 5, 71, 127
9, 189200, Note_off_c, 5, 71, 64
9, 189360, Note_on_c, 5, 69, 127
9, 189440, Note_off_c, 5, 69, 64
9, 189600, Note_on_c, 5, 71, 127
9, 189680, Note_off_c, 5, 71, 64
9, 189840, Note_on_c, 5, 68, 127
9, 189920, Note_off_c, 5, 68, 64
9, 190080, Note_on_c, 5, 61, 127
9, 190080, Note_on_c, 5, 69, 127
9, 190480, Note_off_c, 5, 69, 64
9, 190480, Note_off_c, 5, 61, 64
9, 190560, Note_on_c, 5, 63, 127
9, 190560, Note_on_c, 5, 75, 127
9, 190640, Note_off_c, 5, 75, 64
9, 190640, Note_off_c, 5, 63, 64
9, 190800, Note_on_c, 5, 64, 127
9, 190800, Note_on_c, 5, 76, 127
9, 190880, Note_off_c, 5, 76, 64
9, 190880, Note_off_c, 5, 64, 64
9, 191040, Note_on_c, 5, 66, 127
9, 191040, Note_on_c, 5, 78, 127
9, 191120, Note_off_c, 5, 78, 64
9, 191120, Note_off_c, 5, 66, 64
9, 191280, Note_on_c, 5, 68, 127
9, 191280, Note_on_c, 5, 80, 127
9, 191360, Note_off_c, 5, 80, 64
9, 191360, Note_off_c, 5, 68, 64
9, 191520, Note_on_c, 5, 69, 127
9, 191520, Note_on_c, 5, 81, 127
9, 192160, Note_off_c, 5, 81, 64
9, 192160, Note_off_c, 5, 69, 64
9, 192240, Note_on_c, 5, 71, 127
9, 192240, Note_on_c, 5, 83, 127
9, 192475, Note_off_c, 5, 83, 64
9, 192475, Note_off_c, 5, 71, 64
9, 192480, Note_on_c, 5, 68, 127
9, 192480, Note_on_c, 5, 80, 127
9, 192880, Note_off_c, 5, 80, 64
9, 192880, Note_off_c, 5, 68, 64
9, 192960, Note_on_c, 5, 69, 127
9, 192960, Note_on_c, 5, 81, 127
9, 193195, Note_off_c, 5, 81, 64
9, 193195, Note_off_c, 5, 69, 64
9, 193200, Note_on_c, 5, 66, 127
9, 193200, Note_on_c, 5, 78, 127
9, 193435, Note_off_c, 5, 78, 64
9, 193435, Note_off_c, 5, 66, 64
9, 193440, Note_on_c, 5, 66, 127
9, 193440, Note_on_c, 5, 78, 127
9, 194080, Note_off_c, 5, 78, 64
9, 194080, Note_off_c, 5, 66, 64
9, 194160, Note_on_c, 5, 64, 127
9, 194160, Note_on_c, 5, 76, 127
9, 194395, Note_off_c, 5, 76, 64
9, 194395, Note_off_c, 5, 64, 64
9, 194400, Note_on_c, 5, 64, 127
9, 194400, Note_on_c, 5, 76, 127
9, 194800, Note_off_c, 5, 76, 64
9, 194800, Note_off_c, 5, 64, 64
9, 194880, Note_on_c, 5, 68, 127
9, 194880, Note_on_c, 5, 80, 127
9, 195115, Note_off_c, 5, 80, 64
9, 195115, Note_off_c, 5, 68, 64
9, 195120, Note_on_c, 5, 69, 127
9, 195120, Note_on_c, 5, 81, 127
9, 195355, Note_off_c, 5, 81, 64
9, 195355, Note_off_c, 5, 69, 64
9, 195360, Note_on_c, 5, 68, 127
9, 195360, Note_on_c, 5, 80, 127
9, 195595, Note_off_c, 5, 80, 64
9, 195595, Note_off_c, 5, 68, 64
9, 195600, Note_on_c, 5, 66, 127
9, 195600, Note_on_c, 5, 78, 127
9, 195835, Note_off_c, 5, 78, 64
9, 195835, Note_off_c, 5, 66, 64
9, 195840, Note_on_c, 5, 64, 127
9, 195840, Note_on_c, 5, 76, 127
9, 196240, Note_off_c, 5, 76, 64
9, 196240, Note_off_c, 5, 64, 64
9, 196320, Note_on_c, 5, 68, 127
9, 196320, Note_on_c, 5, 71, 127
9, 196555, Note_off_c, 5, 71, 64
9, 196555, Note_off_c, 5, 68, 64
9, 196560, Note_on_c, 5, 66, 127
9, 196560, Note_on_c, 5, 69, 127
9, 196795, Note_off_c, 5, 69, 64
9, 196795, Note_off_c, 5, 66, 64
9, 196800, Note_on_c, 5, 64, 127
9, 196800, Note_on_c, 5, 68, 127
9, 197035, Note_off_c, 5, 68, 64
9, 197035, Note_off_c, 5, 64, 64
9, 197040, Note_on_c, 5, 63, 127
9, 197040, Note_on_c, 5, 66, 127
9, 197275, Note_off_c, 5, 66, 64
9, 197275, Note_off_c, 5, 63, 64
9, 197280, Note_on_c, 5, 64, 127
9, 197280, Note_on_c, 5, 71, 127
9, 197680, Note_off_c, 5, 71, 64
9, 197680, Note_off_c, 5, 64, 64
9, 197760, Note_on_c, 5, 68, 127
9, 197760, Note_on_c, 5, 71, 127
9, 197995, Note_off_c, 5, 71, 64
9, 197995, Note_off_c, 5, 68, 64
9, 198000, Note_on_c, 5, 68, 127
9, 198000, Note_on_c, 5, 71, 127
9, 198235, Note_off_c, 5, 71, 64
9, 198235, Note_off_c, 5, 68, 64
9, 198240, Note_on_c, 5, 68, 127
9, 198240, Note_on_c, 5, 71, 127
9, 198475, Note_off_c, 5, 71, 64
9, 198475, Note_off_c, 5, 68, 64
9, 198480, Note_on_c, 5, 68, 108
9, 198480, Note_on_c, 5, 71, 108
9, 199120, Note_off_c, 5, 71, 64
9, 199120, Note_off_c, 5, 68, 64
9, 199120, End_track
10, 0, Start_track
10, 0, MIDI_port, 0
10, 0, Channel_prefix, 6
10, 0, Control_c, 6, 7, 99
10, 0, Control_c, 6, 10, 85
10, 0, Control_c, 6, 91, 53
10, 0, Program_c, 6, 57
10, 0, Note_on_c, 6, 56, 92
10, 0, Note_on_c, 6, 59, 92
10, 400, Note_off_c, 6, 59, 64
10, 400, Note_off_c, 6, 56, 64
10, 1440, Note_on_c, 6, 56, 92
10, 1440, Note_on_c, 6, 59, 92
10, 1840, Note_off_c, 6, 59, 64
10, 1840, Note_off_c, 6, 56, 64
10, 2880, Note_on_c, 6, 59, 92
10, 2880, Note_on_c, 6, 64, 92
10, 3595, Note_off_c, 6, 64, 64
10, 3595, Note_off_c, 6, 59, 64
10, 3600, Note_on_c, 6, 57, 92
10, 3600, Note_on_c, 6, 66, 92
10, 3840, Note_off_c, 6, 66, 64
10, 3840, Note_off_c, 6, 57, 64
10, 3840, Note_on_c, 6, 59, 92
10, 3840, Note_on_c, 6, 64, 92
10, 4080, Note_off_c, 6, 64, 64
10, 4080, Note_off_c, 6, 59, 64
10, 4080, Note_on_c, 6, 57, 92
10, 4080, Note_on_c, 6, 63, 92
10, 4320, Note_off_c, 6, 63, 64
10, 4320, Note_off_c, 6, 57, 64
10, 4320, Note_on_c, 6, 59, 92
10, 4320, Note_on_c, 6, 64, 92
10, 5280, Note_off_c, 6, 64, 64
10, 5280, Note_off_c, 6, 59, 64
10, 5280, Note_on_c, 6, 59, 92
10, 5280, Note_on_c, 6, 63, 92
10, 5680, Note_off_c, 6, 63, 64
10, 5680, Note_off_c, 6, 59, 64
10, 5760, Note_on_c, 6, 59, 60
10, 5760, Note_on_c, 6, 64, 60
10, 6475, Note_off_c, 6, 64, 64
10, 6475, Note_off_c, 6, 59, 64
10, 6480, Note_on_c, 6, 57, 60
10, 6480, Note_on_c, 6, 66, 60
10, 6720, Note_off_c, 6, 66, 64
10, 6720, Note_off_c, 6, 57, 64
10, 6720, Note_on_c, 6, 59, 60
10, 6720, Note_on_c, 6, 64, 60
10, 6960, Note_off_c, 6, 64, 64
10, 6960, Note_off_c, 6, 59, 64
10, 6960, Note_on_c, 6, 57, 60
10, 6960, Note_on_c, 6, 63, 60
10, 7200, Note_off_c, 6, 63, 64
10, 7200, Note_off_c, 6, 57, 64
10, 7200, Note_on_c, 6, 59, 60
10, 7200, Note_on_c, 6, 64, 60
10, 8160, Note_off_c, 6, 64, 64
10, 8160, Note_off_c, 6, 59, 64
10, 8160, Note_on_c, 6, 59, 60
10, 8160, Note_on_c, 6, 63, 60
10, 8560, Note_off_c, 6, 63, 64
10, 8560, Note_off_c, 6, 59, 64
10, 8640, Note_on_c, 6, 59, 45
10, 8640, Note_on_c, 6, 64, 45
10, 9600, Note_off_c, 6, 64, 64
10, 9600, Note_off_c, 6, 59, 64
10, 9600, Note_on_c, 6, 61, 60
10, 9600, Note_on_c, 6, 64, 60
10, 10080, Note_off_c, 6, 64, 64
10, 10080, Note_off_c, 6, 61, 64
10, 10080, Note_on_c, 6, 59, 68
10, 10080, Note_on_c, 6, 64, 68
10, 11040, Note_off_c, 6, 64, 64
10, 11040, Note_off_c, 6, 59, 64
10, 11040, Note_on_c, 6, 59, 84
10, 11040, Note_on_c, 6, 64, 84
10, 11440, Note_off_c, 6, 64, 64
10, 11440, Note_off_c, 6, 59, 64
10, 11520, Note_on_c, 6, 59, 92
10, 11520, Note_on_c, 6, 64, 92
10, 12235, Note_off_c, 6, 64, 64
10, 12235, Note_off_c, 6, 59, 64
10, 12240, Note_on_c, 6, 57, 92
10, 12240, Note_on_c, 6, 66, 92
10, 12480, Note_off_c, 6, 66, 64
10, 12480, Note_off_c, 6, 57, 64
10, 12480, Note_on_c, 6, 59, 92
10, 12480, Note_on_c, 6, 64, 92
10, 12720, Note_off_c, 6, 64, 64
10, 12720, Note_off_c, 6, 59, 64
10, 12720, Note_on_c, 6, 57, 92
10, 12720, Note_on_c, 6, 63, 92
10, 12960, Note_off_c, 6, 63, 64
10, 12960, Note_off_c, 6, 57, 64
10, 12960, Note_on_c, 6, 59, 92
10, 12960, Note_on_c, 6, 64, 92
10, 13920, Note_off_c, 6, 64, 64
10, 13920, Note_off_c, 6, 59, 64
10, 13920, Note_on_c, 6, 59, 92
10, 13920, Note_on_c, 6, 63, 92
10, 14320, Note_off_c, 6, 63, 64
10, 14320, Note_off_c, 6, 59, 64
10, 14400, Note_on_c, 6, 59, 60
10, 14400, Note_on_c, 6, 64, 60
10, 15115, Note_off_c, 6, 64, 64
10, 15115, Note_off_c, 6, 59, 64
10, 15120, Note_on_c, 6, 57, 60
10, 15120, Note_on_c, 6, 66, 60
10, 15360, Note_off_c, 6, 66, 64
10, 15360, Note_off_c, 6, 57, 64
10, 15360, Note_on_c, 6, 59, 60
10, 15360, Note_on_c, 6, 64, 60
10, 15600, Note_off_c, 6, 64, 64
10, 15600, Note_off_c, 6, 59, 64
10, 15600, Note_on_c, 6, 57, 60
10, 15600, Note_on_c, 6, 63, 60
10, 15840, Note_off_c, 6, 63, 64
10, 15840, Note_off_c, 6, 57, 64
10, 15840, Note_on_c, 6, 59, 60
10, 15840, Note_on_c, 6, 64, 60
10, 16800, Note_off_c, 6, 64, 64
10, 16800, Note_off_c, 6, 59, 64
10, 16800, Note_on_c, 6, 59, 70
10, 16800, Note_on_c, 6, 63, 70
10, 17200, Note_off_c, 6, 63, 64
10, 17200, Note_off_c, 6, 59, 64
10, 17280, Note_on_c, 6, 59, 75
10, 17280, Note_on_c, 6, 64, 75
10, 17360, Note_off_c, 6, 64, 64
10, 17360, Note_off_c, 6, 59, 64
10, 17520, Note_on_c, 6, 59, 75
10, 17520, Note_on_c, 6, 64, 75
10, 17920, Note_off_c, 6, 64, 64
10, 17920, Note_off_c, 6, 59, 64
10, 18000, Note_on_c, 6, 59, 75
10, 18000, Note_on_c, 6, 64, 75
10, 18400, Note_off_c, 6, 64, 64
10, 18400, Note_off_c, 6, 59, 64
10, 18480, Note_on_c, 6, 59, 75
10, 18480, Note_on_c, 6, 64, 75
10, 18955, Note_off_c, 6, 64, 64
10, 18955, Note_off_c, 6, 59, 64
10, 18960, Note_on_c, 6, 59, 92
10, 18960, Note_on_c, 6, 64, 92
10, 19200, Note_off_c, 6, 64, 64
10, 19200, Note_off_c, 6, 59, 64
10, 19200, Note_on_c, 6, 59, 92
10, 19200, Note_on_c, 6, 63, 92
10, 19440, Note_off_c, 6, 63, 64
10, 19440, Note_off_c, 6, 59, 64
10, 19440, Note_on_c, 6, 59, 92
10, 19440, Note_on_c, 6, 64, 92
10, 19680, Note_off_c, 6, 64, 64
10, 19680, Note_off_c, 6, 59, 64
10, 19680, Note_on_c, 6, 59, 92
10, 19680, Note_on_c, 6, 61, 92
10, 19920, Note_off_c, 6, 61, 64
10, 19920, Note_off_c, 6, 59, 64
10, 19920, Note_on_c, 6, 59, 92
10, 19920, Note_on_c, 6, 63, 92
10, 20155, Note_off_c, 6, 63, 64
10, 20155, Note_off_c, 6, 59, 64
10, 23040, Note_on_c, 6, 59, 60
10, 23040, Note_on_c, 6, 64, 60
10, 23120, Note_off_c, 6, 64, 64
10, 23120, Note_off_c, 6, 59, 64
10, 23280, Note_on_c, 6, 59, 60
10, 23280, Note_on_c, 6, 64, 60
10, 23680, Note_off_c, 6, 64, 64
10, 23680, Note_off_c, 6, 59, 64
10, 23760, Note_on_c, 6, 59, 60
10, 23760, Note_on_c, 6, 64, 60
10, 24160, Note_off_c, 6, 64, 64
10, 24160, Note_off_c, 6, 59, 64
10, 24240, Note_on_c, 6, 59, 60
10, 24240, Note_on_c, 6, 64, 60
10, 24320, Note_off_c, 6, 64, 64
10, 24320, Note_off_c, 6, 59, 64
10, 24480, Note_on_c, 6, 59, 60
10, 24480, Note_on_c, 6, 63, 60
10, 24560, Note_off_c, 6, 63, 64
10, 24560, Note_off_c, 6, 59, 64
10, 24720, Note_on_c, 6, 59, 60
10, 24720, Note_on_c, 6, 63, 60
10, 25120, Note_off_c, 6, 63, 64
10, 25120, Note_off_c, 6, 59, 64
10, 25200, Note_on_c, 6, 59, 60
10, 25200, Note_on_c, 6, 63, 60
10, 25600, Note_off_c, 6, 63, 64
10, 25600, Note_off_c, 6, 59, 64
10, 25680, Note_on_c, 6, 59, 60
10, 25680, Note_on_c, 6, 63, 60
10, 25760, Note_off_c, 6, 63, 64
10, 25760, Note_off_c, 6, 59, 64
10, 25920, Note_on_c, 6, 59, 60
10, 25920, Note_on_c, 6, 62, 60
10, 26000, Note_off_c, 6, 62, 64
10, 26000, Note_off_c, 6, 59, 64
10, 26160, Note_on_c, 6, 59, 60
10, 26160, Note_on_c, 6, 62, 60
10, 26560, Note_off_c, 6, 62, 64
10, 26560, Note_off_c, 6, 59, 64
10, 26640, Note_on_c, 6, 59, 60
10, 26640, Note_on_c, 6, 62, 60
10, 27040, Note_off_c, 6, 62, 64
10, 27040, Note_off_c, 6, 59, 64
10, 27120, Note_on_c, 6, 59, 60
10, 27120, Note_on_c, 6, 62, 60
10, 27200, Note_off_c, 6, 62, 64
10, 27200, Note_off_c, 6, 59, 64
10, 27360, Note_on_c, 6, 61, 60
10, 27360, Note_on_c, 6, 64, 60
10, 27440, Note_off_c, 6, 64, 64
10, 27440, Note_off_c, 6, 61, 64
10, 27600, Note_on_c, 6, 61, 62
10, 27600, Note_on_c, 6, 64, 62
10, 28000, Note_off_c, 6, 64, 64
10, 28000, Note_off_c, 6, 61, 64
10, 28080, Note_on_c, 6, 61, 67
10, 28080, Note_on_c, 6, 64, 67
10, 28480, Note_off_c, 6, 64, 64
10, 28480, Note_off_c, 6, 61, 64
10, 28560, Note_on_c, 6, 61, 72
10, 28560, Note_on_c, 6, 64, 72
10, 28640, Note_off_c, 6, 64, 64
10, 28640, Note_off_c, 6, 61, 64
10, 28800, Note_on_c, 6, 59, 75
10, 28800, Note_on_c, 6, 64, 75
10, 28880, Note_off_c, 6, 64, 64
10, 28880, Note_off_c, 6, 59, 64
10, 29040, Note_on_c, 6, 59, 75
10, 29040, Note_on_c, 6, 64, 75
10, 29440, Note_off_c, 6, 64, 64
10, 29440, Note_off_c, 6, 59, 64
10, 29520, Note_on_c, 6, 59, 75
10, 29520, Note_on_c, 6, 64, 75
10, 29920, Note_off_c, 6, 64, 64
10, 29920, Note_off_c, 6, 59, 64
10, 30000, Note_on_c, 6, 59, 75
10, 30000, Note_on_c, 6, 64, 75
10, 30080, Note_off_c, 6, 64, 64
10, 30080, Note_off_c, 6, 59, 64
10, 30240, Note_on_c, 6, 59, 75
10, 30240, Note_on_c, 6, 64, 75
10, 30320, Note_off_c, 6, 64, 64
10, 30320, Note_off_c, 6, 59, 64
10, 30480, Note_on_c, 6, 59, 70
10, 30480, Note_on_c, 6, 64, 70
10, 30880, Note_off_c, 6, 64, 64
10, 30880, Note_off_c, 6, 59, 64
10, 30960, Note_on_c, 6, 59, 60
10, 30960, Note_on_c, 6, 64, 60
10, 31360, Note_off_c, 6, 64, 64
10, 31360, Note_off_c, 6, 59, 64
10, 31440, Note_on_c, 6, 59, 50
10, 31440, Note_on_c, 6, 64, 50
10, 31520, Note_off_c, 6, 64, 64
10, 31520, Note_off_c, 6, 59, 64
10, 31680, Note_on_c, 6, 61, 45
10, 31680, Note_on_c, 6, 64, 45
10, 31760, Note_off_c, 6, 64, 64
10, 31760, Note_off_c, 6, 61, 64
10, 31920, Note_on_c, 6, 61, 45
10, 31920, Note_on_c, 6, 64, 45
10, 32320, Note_off_c, 6, 64, 64
10, 32320, Note_off_c, 6, 61, 64
10, 32400, Note_on_c, 6, 61, 45
10, 32400, Note_on_c, 6, 64, 45
10, 32800, Note_off_c, 6, 64, 64
10, 32800, Note_off_c, 6, 61, 64
10, 32880, Note_on_c, 6, 61, 45
10, 32880, Note_on_c, 6, 64, 45
10, 32960, Note_off_c, 6, 64, 64
10, 32960, Note_off_c, 6, 61, 64
10, 33120, Note_on_c, 6, 61, 45
10, 33120, Note_on_c, 6, 66, 45
10, 33200, Note_off_c, 6, 66, 64
10, 33200, Note_off_c, 6, 61, 64
10, 33360, Note_on_c, 6, 61, 45
10, 33360, Note_on_c, 6, 66, 45
10, 33760, Note_off_c, 6, 66, 64
10, 33760, Note_off_c, 6, 61, 64
10, 33840, Note_on_c, 6, 61, 45
10, 33840, Note_on_c, 6, 66, 45
10, 34240, Note_off_c, 6, 66, 64
10, 34240, Note_off_c, 6, 61, 64
10, 34320, Note_on_c, 6, 61, 45
10, 34320, Note_on_c, 6, 66, 45
10, 34400, Note_off_c, 6, 66, 64
10, 34400, Note_off_c, 6, 61, 64
10, 34560, Note_on_c, 6, 59, 45
10, 34560, Note_on_c, 6, 66, 45
10, 34640, Note_off_c, 6, 66, 64
10, 34640, Note_off_c, 6, 59, 64
10, 34800, Note_on_c, 6, 59, 45
10, 34800, Note_on_c, 6, 66, 45
10, 35200, Note_off_c, 6, 66, 64
10, 35200, Note_off_c, 6, 59, 64
10, 35280, Note_on_c, 6, 59, 45
10, 35280, Note_on_c, 6, 66, 45
10, 35680, Note_off_c, 6, 66, 64
10, 35680, Note_off_c, 6, 59, 64
10, 35760, Note_on_c, 6, 59, 45
10, 35760, Note_on_c, 6, 66, 45
10, 35840, Note_off_c, 6, 66, 64
10, 35840, Note_off_c, 6, 59, 64
10, 36000, Note_on_c, 6, 59, 45
10, 36000, Note_on_c, 6, 64, 45
10, 36080, Note_off_c, 6, 64, 64
10, 36080, Note_off_c, 6, 59, 64
10, 36240, Note_on_c, 6, 59, 45
10, 36240, Note_on_c, 6, 64, 45
10, 36640, Note_off_c, 6, 64, 64
10, 36640, Note_off_c, 6, 59, 64
10, 36720, Note_on_c, 6, 59, 45
10, 36720, Note_on_c, 6, 64, 45
10, 37120, Note_off_c, 6, 64, 64
10, 37120, Note_off_c, 6, 59, 64
10, 37200, Note_on_c, 6, 59, 45
10, 37200, Note_on_c, 6, 64, 45
10, 37280, Note_off_c, 6, 64, 64
10, 37280, Note_off_c, 6, 59, 64
10, 37440, Note_on_c, 6, 64, 45
10, 37440, Note_on_c, 6, 66, 45
10, 37520, Note_off_c, 6, 66, 64
10, 37520, Note_off_c, 6, 64, 64
10, 37680, Note_on_c, 6, 64, 45
10, 37680, Note_on_c, 6, 66, 45
10, 38080, Note_off_c, 6, 66, 64
10, 38080, Note_off_c, 6, 64, 64
10, 38160, Note_on_c, 6, 64, 45
10, 38160, Note_on_c, 6, 66, 45
10, 38560, Note_off_c, 6, 66, 64
10, 38560, Note_off_c, 6, 64, 64
10, 38640, Note_on_c, 6, 64, 45
10, 38640, Note_on_c, 6, 66, 45
10, 38720, Note_off_c, 6, 66, 64
10, 38720, Note_off_c, 6, 64, 64
10, 38880, Note_on_c, 6, 63, 45
10, 38880, Note_on_c, 6, 66, 45
10, 38960, Note_off_c, 6, 66, 64
10, 38960, Note_off_c, 6, 63, 64
10, 39120, Note_on_c, 6, 63, 45
10, 39120, Note_on_c, 6, 66, 45
10, 39520, Note_off_c, 6, 66, 64
10, 39520, Note_off_c, 6, 63, 64
10, 39600, Note_on_c, 6, 63, 45
10, 39600, Note_on_c, 6, 66, 45
10, 40000, Note_off_c, 6, 66, 64
10, 40000, Note_off_c, 6, 63, 64
10, 40080, Note_on_c, 6, 63, 45
10, 40080, Note_on_c, 6, 66, 45
10, 40160, Note_off_c, 6, 66, 64
10, 40160, Note_off_c, 6, 63, 64
10, 40320, Note_on_c, 6, 64, 75
10, 40320, Note_on_c, 6, 68, 75
10, 40720, Note_off_c, 6, 68, 64
10, 40720, Note_off_c, 6, 64, 64
10, 41760, Note_on_c, 6, 63, 78
10, 41760, Note_on_c, 6, 68, 78
10, 42160, Note_off_c, 6, 68, 64
10, 42160, Note_off_c, 6, 63, 64
10, 43200, Note_on_c, 6, 62, 82
10, 43200, Note_on_c, 6, 68, 82
10, 43600, Note_off_c, 6, 68, 64
10, 43600, Note_off_c, 6, 62, 64
10, 45600, Note_on_c, 6, 62, 92
10, 45600, Note_on_c, 6, 68, 92
10, 46080, Note_off_c, 6, 68, 64
10, 46080, Note_off_c, 6, 62, 64
10, 46080, Note_on_c, 6, 65, 45
10, 46080, Note_on_c, 6, 68, 45
10, 46480, Note_off_c, 6, 68, 64
10, 46480, Note_off_c, 6, 65, 64
10, 47520, Note_on_c, 6, 65, 45
10, 47520, Note_on_c, 6, 68, 45
10, 47920, Note_off_c, 6, 68, 64
10, 47920, Note_off_c, 6, 65, 64
10, 48960, Note_on_c, 6, 65, 62
10, 48960, Note_on_c, 6, 68, 62
10, 49360, Note_off_c, 6, 68, 64
10, 49360, Note_off_c, 6, 65, 64
10, 51360, Note_on_c, 6, 65, 92
10, 51360, Note_on_c, 6, 68, 92
10, 51840, Note_off_c, 6, 68, 64
10, 51840, Note_off_c, 6, 65, 64
10, 51840, Note_on_c, 6, 57, 92
10, 51840, Note_on_c, 6, 66, 92
10, 52080, Note_off_c, 6, 66, 64
10, 52080, Note_off_c, 6, 57, 64
10, 52080, Note_on_c, 6, 59, 92
10, 52080, Note_on_c, 6, 68, 92
10, 52320, Note_off_c, 6, 68, 64
10, 52320, Note_off_c, 6, 59, 64
10, 52320, Note_on_c, 6, 61, 92
10, 52320, Note_on_c, 6, 69, 92
10, 52560, Note_off_c, 6, 69, 64
10, 52560, Note_off_c, 6, 61, 64
10, 52560, Note_on_c, 6, 57, 92
10, 52560, Note_on_c, 6, 66, 92
10, 52800, Note_off_c, 6, 66, 64
10, 52800, Note_off_c, 6, 57, 64
10, 52800, Note_on_c, 6, 60, 92
10, 52800, Note_on_c, 6, 68, 92
10, 53200, Note_off_c, 6, 68, 64
10, 53200, Note_off_c, 6, 60, 64
10, 53280, Note_on_c, 6, 56, 92
10, 53280, Note_on_c, 6, 64, 92
10, 53520, Note_off_c, 6, 64, 64
10, 53520, Note_off_c, 6, 56, 64
10, 53520, Note_on_c, 6, 57, 92
10, 53520, Note_on_c, 6, 66, 92
10, 53760, Note_off_c, 6, 66, 64
10, 53760, Note_off_c, 6, 57, 64
10, 53760, Note_on_c, 6, 59, 92
10, 53760, Note_on_c, 6, 68, 92
10, 54000, Note_off_c, 6, 68, 64
10, 54000, Note_off_c, 6, 59, 64
10, 54000, Note_on_c, 6, 56, 92
10, 54000, Note_on_c, 6, 64, 92
10, 54240, Note_off_c, 6, 64, 64
10, 54240, Note_off_c, 6, 56, 64
10, 54240, Note_on_c, 6, 57, 92
10, 54240, Note_on_c, 6, 66, 92
10, 54640, Note_off_c, 6, 66, 64
10, 54640, Note_off_c, 6, 57, 64
10, 54720, Note_on_c, 6, 60, 92
10, 54720, Note_on_c, 6, 63, 92
10, 54800, Note_off_c, 6, 63, 64
10, 54800, Note_off_c, 6, 60, 64
10, 54960, Note_on_c, 6, 60, 92
10, 54960, Note_on_c, 6, 63, 92
10, 55360, Note_off_c, 6, 63, 64
10, 55360, Note_off_c, 6, 60, 64
10, 55440, Note_on_c, 6, 60, 92
10, 55440, Note_on_c, 6, 63, 92
10, 55840, Note_off_c, 6, 63, 64
10, 55840, Note_off_c, 6, 60, 64
10, 55920, Note_on_c, 6, 60, 92
10, 55920, Note_on_c, 6, 63, 92
10, 56000, Note_off_c, 6, 63, 64
10, 56000, Note_off_c, 6, 60, 64
10, 56160, Note_on_c, 6, 60, 92
10, 56160, Note_on_c, 6, 63, 92
10, 56240, Note_off_c, 6, 63, 64
10, 56240, Note_off_c, 6, 60, 64
10, 56400, Note_on_c, 6, 60, 92
10, 56400, Note_on_c, 6, 63, 92
10, 56800, Note_off_c, 6, 63, 64
10, 56800, Note_off_c, 6, 60, 64
10, 56880, Note_on_c, 6, 60, 92
10, 56880, Note_on_c, 6, 63, 92
10, 57280, Note_off_c, 6, 63, 64
10, 57280, Note_off_c, 6, 60, 64
10, 57360, Note_on_c, 6, 60, 92
10, 57360, Note_on_c, 6, 63, 92
10, 57440, Note_off_c, 6, 63, 64
10, 57440, Note_off_c, 6, 60, 64
10, 57600, Note_on_c, 6, 60, 75
10, 57600, Note_on_c, 6, 63, 75
10, 57680, Note_off_c, 6, 63, 64
10, 57680, Note_off_c, 6, 60, 64
10, 57840, Note_on_c, 6, 60, 75
10, 57840, Note_on_c, 6, 63, 75
10, 58240, Note_off_c, 6, 63, 64
10, 58240, Note_off_c, 6, 60, 64
10, 58320, Note_on_c, 6, 60, 75
10, 58320, Note_on_c, 6, 63, 75
10, 58720, Note_off_c, 6, 63, 64
10, 58720, Note_off_c, 6, 60, 64
10, 58800, Note_on_c, 6, 60, 75
10, 58800, Note_on_c, 6, 63, 75
10, 58880, Note_off_c, 6, 63, 64
10, 58880, Note_off_c, 6, 60, 64
10, 59040, Note_on_c, 6, 60, 75
10, 59040, Note_on_c, 6, 63, 75
10, 59120, Note_off_c, 6, 63, 64
10, 59120, Note_off_c, 6, 60, 64
10, 59280, Note_on_c, 6, 60, 75
10, 59280, Note_on_c, 6, 63, 75
10, 59680, Note_off_c, 6, 63, 64
10, 59680, Note_off_c, 6, 60, 64
10, 59760, Note_on_c, 6, 60, 75
10, 59760, Note_on_c, 6, 63, 75
10, 60160, Note_off_c, 6, 63, 64
10, 60160, Note_off_c, 6, 60, 64
10, 60240, Note_on_c, 6, 60, 75
10, 60240, Note_on_c, 6, 63, 75
10, 60320, Note_off_c, 6, 63, 64
10, 60320, Note_off_c, 6, 60, 64
10, 60480, Note_on_c, 6, 60, 60
10, 60480, Note_on_c, 6, 63, 60
10, 60560, Note_off_c, 6, 63, 64
10, 60560, Note_off_c, 6, 60, 64
10, 60720, Note_on_c, 6, 60, 60
10, 60720, Note_on_c, 6, 63, 60
10, 61120, Note_off_c, 6, 63, 64
10, 61120, Note_off_c, 6, 60, 64
10, 61200, Note_on_c, 6, 60, 60
10, 61200, Note_on_c, 6, 63, 60
10, 61600, Note_off_c, 6, 63, 64
10, 61600, Note_off_c, 6, 60, 64
10, 61680, Note_on_c, 6, 60, 60
10, 61680, Note_on_c, 6, 63, 60
10, 61760, Note_off_c, 6, 63, 64
10, 61760, Note_off_c, 6, 60, 64
10, 61920, Note_on_c, 6, 61, 60
10, 61920, Note_on_c, 6, 64, 60
10, 62000, Note_off_c, 6, 64, 64
10, 62000, Note_off_c, 6, 61, 64
10, 62160, Note_on_c, 6, 61, 60
10, 62160, Note_on_c, 6, 64, 60
10, 62560, Note_off_c, 6, 64, 64
10, 62560, Note_off_c, 6, 61, 64
10, 62640, Note_on_c, 6, 61, 60
10, 62640, Note_on_c, 6, 64, 60
10, 63040, Note_off_c, 6, 64, 64
10, 63040, Note_off_c, 6, 61, 64
10, 63120, Note_on_c, 6, 61, 60
10, 63120, Note_on_c, 6, 64, 60
10, 63355, Note_off_c, 6, 64, 64
10, 63355, Note_off_c, 6, 61, 64
10, 63360, Note_on_c, 6, 60, 45
10, 63360, Note_on_c, 6, 63, 45
10, 63595, Note_off_c, 6, 63, 64
10, 63595, Note_off_c, 6, 60, 64
10, 63600, Note_on_c, 6, 60, 45
10, 63600, Note_on_c, 6, 63, 45
10, 64000, Note_off_c, 6, 63, 64
10, 64000, Note_off_c, 6, 60, 64
10, 64080, Note_on_c, 6, 60, 45
10, 64080, Note_on_c, 6, 63, 45
10, 64480, Note_off_c, 6, 63, 64
10, 64480, Note_off_c, 6, 60, 64
10, 64560, Note_on_c, 6, 60, 45
10, 64560, Note_on_c, 6, 63, 45
10, 64640, Note_off_c, 6, 63, 64
10, 64640, Note_off_c, 6, 60, 64
10, 64800, Note_on_c, 6, 61, 45
10, 64800, Note_on_c, 6, 64, 45
10, 64880, Note_off_c, 6, 64, 64
10, 64880, Note_off_c, 6, 61, 64
10, 65040, Note_on_c, 6, 61, 45
10, 65040, Note_on_c, 6, 64, 45
10, 65440, Note_off_c, 6, 64, 64
10, 65440, Note_off_c, 6, 61, 64
10, 65520, Note_on_c, 6, 61, 45
10, 65520, Note_on_c, 6, 64, 45
10, 65920, Note_off_c, 6, 64, 64
10, 65920, Note_off_c, 6, 61, 64
10, 66000, Note_on_c, 6, 61, 45
10, 66000, Note_on_c, 6, 64, 45
10, 66080, Note_off_c, 6, 64, 64
10, 66080, Note_off_c, 6, 61, 64
10, 66240, Note_on_c, 6, 61, 60
10, 66240, Note_on_c, 6, 64, 60
10, 66320, Note_off_c, 6, 64, 64
10, 66320, Note_off_c, 6, 61, 64
10, 66480, Note_on_c, 6, 61, 60
10, 66480, Note_on_c, 6, 64, 60
10, 66880, Note_off_c, 6, 64, 64
10, 66880, Note_off_c, 6, 61, 64
10, 66960, Note_on_c, 6, 61, 60
10, 66960, Note_on_c, 6, 64, 60
10, 67360, Note_off_c, 6, 64, 64
10, 67360, Note_off_c, 6, 61, 64
10, 67440, Note_on_c, 6, 61, 60
10, 67440, Note_on_c, 6, 64, 60
10, 67520, Note_off_c, 6, 64, 64
10, 67520, Note_off_c, 6, 61, 64
10, 67680, Note_on_c, 6, 58, 45
10, 67680, Note_on_c, 6, 64, 45
10, 67760, Note_off_c, 6, 64, 64
10, 67760, Note_off_c, 6, 58, 64
10, 67920, Note_on_c, 6, 58, 45
10, 67920, Note_on_c, 6, 64, 45
10, 68320, Note_off_c, 6, 64, 64
10, 68320, Note_off_c, 6, 58, 64
10, 68400, Note_on_c, 6, 58, 45
10, 68400, Note_on_c, 6, 64, 45
10, 68800, Note_off_c, 6, 64, 64
10, 68800, Note_off_c, 6, 58, 64
10, 68880, Note_on_c, 6, 58, 45
10, 68880, Note_on_c, 6, 64, 45
10, 69115, Note_off_c, 6, 64, 64
10, 69115, Note_off_c, 6, 58, 64
10, 69120, Note_on_c, 6, 61, 75
10, 69120, Note_on_c, 6, 64, 75
10, 69355, Note_off_c, 6, 64, 64
10, 69355, Note_off_c, 6, 61, 64
10, 69360, Note_on_c, 6, 61, 75
10, 69360, Note_on_c, 6, 64, 75
10, 69760, Note_off_c, 6, 64, 64
10, 69760, Note_off_c, 6, 61, 64
10, 69840, Note_on_c, 6, 61, 75
10, 69840, Note_on_c, 6, 64, 75
10, 70240, Note_off_c, 6, 64, 64
10, 70240, Note_off_c, 6, 61, 64
10, 70320, Note_on_c, 6, 61, 75
10, 70320, Note_on_c, 6, 64, 75
10, 70400, Note_off_c, 6, 64, 64
10, 70400, Note_off_c, 6, 61, 64
10, 70560, Note_on_c, 6, 60, 45
10, 70560, Note_on_c, 6, 63, 45
10, 70640, Note_off_c, 6, 63, 64
10, 70640, Note_off_c, 6, 60, 64
10, 70800, Note_on_c, 6, 60, 45
10, 70800, Note_on_c, 6, 63, 45
10, 71200, Note_off_c, 6, 63, 64
10, 71200, Note_off_c, 6, 60, 64
10, 71280, Note_on_c, 6, 60, 45
10, 71280, Note_on_c, 6, 63, 45
10, 71680, Note_off_c, 6, 63, 64
10, 71680, Note_off_c, 6, 60, 64
10, 71760, Note_on_c, 6, 60, 45
10, 71760, Note_on_c, 6, 63, 45
10, 71840, Note_off_c, 6, 63, 64
10, 71840, Note_off_c, 6, 60, 64
10, 72000, Note_on_c, 6, 61, 92
10, 72000, Note_on_c, 6, 64, 92
10, 72400, Note_off_c, 6, 64, 64
10, 72400, Note_off_c, 6, 61, 64
10, 73440, Note_on_c, 6, 61, 92
10, 73440, Note_on_c, 6, 64, 92
10, 73840, Note_off_c, 6, 64, 64
10, 73840, Note_off_c, 6, 61, 64
10, 74880, Note_on_c, 6, 61, 92
10, 74880, Note_on_c, 6, 66, 92
10, 74960, Note_off_c, 6, 66, 64
10, 74960, Note_off_c, 6, 61, 64
10, 75120, Note_on_c, 6, 61, 92
10, 75120, Note_on_c, 6, 66, 92
10, 75520, Note_off_c, 6, 66, 64
10, 75520, Note_off_c, 6, 61, 64
10, 75600, Note_on_c, 6, 61, 92
10, 75600, Note_on_c, 6, 66, 92
10, 76000, Note_off_c, 6, 66, 64
10, 76000, Note_off_c, 6, 61, 64
10, 76080, Note_on_c, 6, 61, 92
10, 76080, Note_on_c, 6, 66, 92
10, 76160, Note_off_c, 6, 66, 64
10, 76160, Note_off_c, 6, 61, 64
10, 76320, Note_on_c, 6, 61, 60
10, 76320, Note_on_c, 6, 66, 60
10, 76400, Note_off_c, 6, 66, 64
10, 76400, Note_off_c, 6, 61, 64
10, 76560, Note_on_c, 6, 61, 60
10, 76560, Note_on_c, 6, 66, 60
10, 76960, Note_off_c, 6, 66, 64
10, 76960, Note_off_c, 6, 61, 64
10, 77040, Note_on_c, 6, 61, 60
10, 77040, Note_on_c, 6, 66, 60
10, 77440, Note_off_c, 6, 66, 64
10, 77440, Note_off_c, 6, 61, 64
10, 77520, Note_on_c, 6, 61, 60
10, 77520, Note_on_c, 6, 66, 60
10, 77600, Note_off_c, 6, 66, 64
10, 77600, Note_off_c, 6, 61, 64
10, 77760, Note_on_c, 6, 63, 92
10, 77760, Note_on_c, 6, 66, 92
10, 78160, Note_off_c, 6, 66, 64
10, 78160, Note_off_c, 6, 63, 64
10, 79200, Note_on_c, 6, 63, 75
10, 79200, Note_on_c, 6, 66, 75
10, 79600, Note_off_c, 6, 66, 64
10, 79600, Note_off_c, 6, 63, 64
10, 80640, Note_on_c, 6, 62, 92
10, 80640, Note_on_c, 6, 64, 92
10, 82080, Note_off_c, 6, 64, 64
10, 82080, Note_off_c, 6, 62, 64
10, 82080, Note_on_c, 6, 64, 45
10, 82080, Note_on_c, 6, 68, 45
10, 82315, Note_off_c, 6, 68, 64
10, 82315, Note_off_c, 6, 64, 64
10, 82320, Note_on_c, 6, 64, 75
10, 82320, Note_on_c, 6, 68, 75
10, 82400, Note_off_c, 6, 68, 64
10, 82400, Note_off_c, 6, 64, 64
10, 82440, Note_on_c, 6, 62, 75
10, 82440, Note_on_c, 6, 66, 75
10, 82520, Note_off_c, 6, 66, 64
10, 82520, Note_off_c, 6, 62, 64
10, 82560, Note_on_c, 6, 64, 75
10, 82560, Note_on_c, 6, 68, 75
10, 82640, Note_off_c, 6, 68, 64
10, 82640, Note_off_c, 6, 64, 64
10, 82800, Note_on_c, 6, 62, 75
10, 82800, Note_on_c, 6, 66, 75
10, 82880, Note_off_c, 6, 66, 64
10, 82880, Note_off_c, 6, 62, 64
10, 83040, Note_on_c, 6, 64, 75
10, 83040, Note_on_c, 6, 68, 75
10, 83120, Note_off_c, 6, 68, 64
10, 83120, Note_off_c, 6, 64, 64
10, 83280, Note_on_c, 6, 61, 75
10, 83280, Note_on_c, 6, 64, 75
10, 83360, Note_off_c, 6, 64, 64
10, 83360, Note_off_c, 6, 61, 64
10, 83520, Note_on_c, 6, 64, 92
10, 83520, Note_on_c, 6, 69, 92
10, 84235, Note_off_c, 6, 69, 64
10, 84235, Note_off_c, 6, 64, 64
10, 84240, Note_on_c, 6, 62, 92
10, 84240, Note_on_c, 6, 71, 92
10, 84480, Note_off_c, 6, 71, 64
10, 84480, Note_off_c, 6, 62, 64
10, 84480, Note_on_c, 6, 64, 92
10, 84480, Note_on_c, 6, 69, 92
10, 84720, Note_off_c, 6, 69, 64
10, 84720, Note_off_c, 6, 64, 64
10, 84720, Note_on_c, 6, 62, 92
10, 84720, Note_on_c, 6, 68, 92
10, 84960, Note_off_c, 6, 68, 64
10, 84960, Note_off_c, 6, 62, 64
10, 84960, Note_on_c, 6, 64, 92
10, 84960, Note_on_c, 6, 69, 92
10, 85920, Note_off_c, 6, 69, 64
10, 85920, Note_off_c, 6, 64, 64
10, 85920, Note_on_c, 6, 64, 92
10, 85920, Note_on_c, 6, 68, 92
10, 86320, Note_off_c, 6, 68, 64
10, 86320, Note_off_c, 6, 64, 64
10, 86400, Note_on_c, 6, 64, 60
10, 86400, Note_on_c, 6, 69, 60
10, 87115, Note_off_c, 6, 69, 64
10, 87115, Note_off_c, 6, 64, 64
10, 87120, Note_on_c, 6, 62, 60
10, 87120, Note_on_c, 6, 71, 60
10, 87360, Note_off_c, 6, 71, 64
10, 87360, Note_off_c, 6, 62, 64
10, 87360, Note_on_c, 6, 64, 60
10, 87360, Note_on_c, 6, 69, 60
10, 87600, Note_off_c, 6, 69, 64
10, 87600, Note_off_c, 6, 64, 64
10, 87600, Note_on_c, 6, 62, 60
10, 87600, Note_on_c, 6, 68, 60
10, 87840, Note_off_c, 6, 68, 64
10, 87840, Note_off_c, 6, 62, 64
10, 87840, Note_on_c, 6, 64, 60
10, 87840, Note_on_c, 6, 69, 60
10, 88800, Note_off_c, 6, 69, 64
10, 88800, Note_off_c, 6, 64, 64
10, 88800, Note_on_c, 6, 64, 60
10, 88800, Note_on_c, 6, 68, 60
10, 89200, Note_off_c, 6, 68, 64
10, 89200, Note_off_c, 6, 64, 64
10, 89280, Note_on_c, 6, 64, 92
10, 89280, Note_on_c, 6, 69, 92
10, 90240, Note_off_c, 6, 69, 64
10, 90240, Note_off_c, 6, 64, 64
10, 90240, Note_on_c, 6, 66, 92
10, 90240, Note_on_c, 6, 69, 92
10, 90720, Note_off_c, 6, 69, 64
10, 90720, Note_off_c, 6, 66, 64
10, 90720, Note_on_c, 6, 61, 92
10, 90720, Note_on_c, 6, 64, 92
10, 90955, Note_off_c, 6, 64, 64
10, 90955, Note_off_c, 6, 61, 64
10, 90960, Note_on_c, 6, 61, 92
10, 90960, Note_on_c, 6, 64, 92
10, 91200, Note_off_c, 6, 64, 64
10, 91200, Note_off_c, 6, 61, 64
10, 91200, Note_on_c, 6, 59, 92
10, 91200, Note_on_c, 6, 62, 92
10, 91440, Note_off_c, 6, 62, 64
10, 91440, Note_off_c, 6, 59, 64
10, 91440, Note_on_c, 6, 61, 92
10, 91440, Note_on_c, 6, 64, 92
10, 91680, Note_off_c, 6, 64, 64
10, 91680, Note_off_c, 6, 61, 64
10, 91680, Note_on_c, 6, 62, 92
10, 91680, Note_on_c, 6, 66, 92
10, 91920, Note_off_c, 6, 66, 64
10, 91920, Note_off_c, 6, 62, 64
10, 91920, Note_on_c, 6, 59, 92
10, 91920, Note_on_c, 6, 62, 92
10, 92155, Note_off_c, 6, 62, 64
10, 92155, Note_off_c, 6, 59, 64
10, 92160, Note_on_c, 6, 64, 75
10, 92160, Note_on_c, 6, 69, 75
10, 92875, Note_off_c, 6, 69, 64
10, 92875, Note_off_c, 6, 64, 64
10, 92880, Note_on_c, 6, 62, 75
10, 92880, Note_on_c, 6, 71, 75
10, 93120, Note_off_c, 6, 71, 64
10, 93120, Note_off_c, 6, 62, 64
10, 93120, Note_on_c, 6, 64, 75
10, 93120, Note_on_c, 6, 69, 75
10, 93360, Note_off_c, 6, 69, 64
10, 93360, Note_off_c, 6, 64, 64
10, 93360, Note_on_c, 6, 64, 75
10, 93360, Note_on_c, 6, 68, 75
10, 93600, Note_off_c, 6, 68, 64
10, 93600, Note_off_c, 6, 64, 64
10, 93600, Note_on_c, 6, 61, 75
10, 93600, Note_on_c, 6, 64, 75
10, 93835, Note_off_c, 6, 64, 64
10, 93835, Note_off_c, 6, 61, 64
10, 93840, Note_on_c, 6, 61, 75
10, 93840, Note_on_c, 6, 64, 75
10, 94080, Note_off_c, 6, 64, 64
10, 94080, Note_off_c, 6, 61, 64
10, 94080, Note_on_c, 6, 59, 75
10, 94080, Note_on_c, 6, 63, 75
10, 94320, Note_off_c, 6, 63, 64
10, 94320, Note_off_c, 6, 59, 64
10, 94320, Note_on_c, 6, 61, 75
10, 94320, Note_on_c, 6, 64, 75
10, 94560, Note_off_c, 6, 64, 64
10, 94560, Note_off_c, 6, 61, 64
10, 94560, Note_on_c, 6, 62, 75
10, 94560, Note_on_c, 6, 66, 75
10, 94800, Note_off_c, 6, 66, 64
10, 94800, Note_off_c, 6, 62, 64
10, 94800, Note_on_c, 6, 59, 75
10, 94800, Note_on_c, 6, 62, 75
10, 95035, Note_off_c, 6, 62, 64
10, 95035, Note_off_c, 6, 59, 64
10, 95040, Note_on_c, 6, 61, 108
10, 95040, Note_on_c, 6, 64, 108
10, 95120, Note_off_c, 6, 64, 64
10, 95120, Note_off_c, 6, 61, 64
10, 95280, Note_on_c, 6, 61, 108
10, 95280, Note_on_c, 6, 64, 108
10, 95680, Note_off_c, 6, 64, 64
10, 95680, Note_off_c, 6, 61, 64
10, 95760, Note_on_c, 6, 61, 108
10, 95760, Note_on_c, 6, 64, 108
10, 96160, Note_off_c, 6, 64, 64
10, 96160, Note_off_c, 6, 61, 64
10, 96240, Note_on_c, 6, 61, 108
10, 96240, Note_on_c, 6, 64, 108
10, 96320, Note_off_c, 6, 64, 64
10, 96320, Note_off_c, 6, 61, 64
10, 96480, Note_on_c, 6, 61, 108
10, 96480, Note_on_c, 6, 64, 108
10, 96560, Note_off_c, 6, 64, 64
10, 96560, Note_off_c, 6, 61, 64
10, 96720, Note_on_c, 6, 61, 108
10, 96720, Note_on_c, 6, 64, 108
10, 97120, Note_off_c, 6, 64, 64
10, 97120, Note_off_c, 6, 61, 64
10, 97200, Note_on_c, 6, 61, 108
10, 97200, Note_on_c, 6, 64, 108
10, 97600, Note_off_c, 6, 64, 64
10, 97600, Note_off_c, 6, 61, 64
10, 97680, Note_on_c, 6, 61, 108
10, 97680, Note_on_c, 6, 64, 108
10, 97760, Note_off_c, 6, 64, 64
10, 97760, Note_off_c, 6, 61, 64
10, 97920, Note_on_c, 6, 64, 108
10, 97920, Note_on_c, 6, 67, 108
10, 98000, Note_off_c, 6, 67, 64
10, 98000, Note_off_c, 6, 64, 64
10, 98160, Note_on_c, 6, 64, 108
10, 98160, Note_on_c, 6, 67, 108
10, 98560, Note_off_c, 6, 67, 64
10, 98560, Note_off_c, 6, 64, 64
10, 98640, Note_on_c, 6, 64, 108
10, 98640, Note_on_c, 6, 67, 108
10, 99040, Note_off_c, 6, 67, 64
10, 99040, Note_off_c, 6, 64, 64
10, 99120, Note_on_c, 6, 64, 108
10, 99120, Note_on_c, 6, 67, 108
10, 99200, Note_off_c, 6, 67, 64
10, 99200, Note_off_c, 6, 64, 64
10, 99360, Note_on_c, 6, 66, 108
10, 99360, Note_on_c, 6, 69, 108
10, 99440, Note_off_c, 6, 69, 64
10, 99440, Note_off_c, 6, 66, 64
10, 99600, Note_on_c, 6, 66, 108
10, 99600, Note_on_c, 6, 69, 108
10, 100000, Note_off_c, 6, 69, 64
10, 100000, Note_off_c, 6, 66, 64
10, 100080, Note_on_c, 6, 66, 108
10, 100080, Note_on_c, 6, 69, 108
10, 100480, Note_off_c, 6, 69, 64
10, 100480, Note_off_c, 6, 66, 64
10, 100560, Note_on_c, 6, 66, 108
10, 100560, Note_on_c, 6, 69, 108
10, 100640, Note_off_c, 6, 69, 64
10, 100640, Note_off_c, 6, 66, 64
10, 100800, Note_on_c, 6, 64, 108
10, 100800, Note_on_c, 6, 69, 108
10, 100880, Note_off_c, 6, 69, 64
10, 100880, Note_off_c, 6, 64, 64
10, 101040, Note_on_c, 6, 64, 108
10, 101040, Note_on_c, 6, 69, 108
10, 101440, Note_off_c, 6, 69, 64
10, 101440, Note_off_c, 6, 64, 64
10, 101520, Note_on_c, 6, 64, 108
10, 101520, Note_on_c, 6, 69, 108
10, 101920, Note_off_c, 6, 69, 64
10, 101920, Note_off_c, 6, 64, 64
10, 102000, Note_on_c, 6, 64, 108
10, 102000, Note_on_c, 6, 69, 108
10, 102080, Note_off_c, 6, 69, 64
10, 102080, Note_off_c, 6, 64, 64
10, 102240, Note_on_c, 6, 64, 92
10, 102240, Note_on_c, 6, 69, 92
10, 102320, Note_off_c, 6, 69, 64
10, 102320, Note_off_c, 6, 64, 64
10, 102480, Note_on_c, 6, 64, 92
10, 102480, Note_on_c, 6, 69, 92
10, 102880, Note_off_c, 6, 69, 64
10, 102880, Note_off_c, 6, 64, 64
10, 102960, Note_on_c, 6, 64, 92
10, 102960, Note_on_c, 6, 69, 92
10, 103360, Note_off_c, 6, 69, 64
10, 103360, Note_off_c, 6, 64, 64
10, 103440, Note_on_c, 6, 64, 92
10, 103440, Note_on_c, 6, 69, 92
10, 103520, Note_off_c, 6, 69, 64
10, 103520, Note_off_c, 6, 64, 64
10, 103680, Note_on_c, 6, 66, 92
10, 103680, Note_on_c, 6, 69, 92
10, 103760, Note_off_c, 6, 69, 64
10, 103760, Note_off_c, 6, 66, 64
10, 103920, Note_on_c, 6, 66, 92
10, 103920, Note_on_c, 6, 69, 92
10, 104320, Note_off_c, 6, 69, 64
10, 104320, Note_off_c, 6, 66, 64
10, 104400, Note_on_c, 6, 66, 92
10, 104400, Note_on_c, 6, 69, 92
10, 104800, Note_off_c, 6, 69, 64
10, 104800, Note_off_c, 6, 66, 64
10, 104880, Note_on_c, 6, 66, 92
10, 104880, Note_on_c, 6, 69, 92
10, 104960, Note_off_c, 6, 69, 64
10, 104960, Note_off_c, 6, 66, 64
10, 105120, Note_on_c, 6, 66, 92
10, 105120, Note_on_c, 6, 71, 92
10, 105200, Note_off_c, 6, 71, 64
10, 105200, Note_off_c, 6, 66, 64
10, 105360, Note_on_c, 6, 66, 90
10, 105360, Note_on_c, 6, 71, 90
10, 105760, Note_off_c, 6, 71, 64
10, 105760, Note_off_c, 6, 66, 64
10, 105840, Note_on_c, 6, 66, 85
10, 105840, Note_on_c, 6, 71, 85
10, 106240, Note_off_c, 6, 71, 64
10, 106240, Note_off_c, 6, 66, 64
10, 106320, Note_on_c, 6, 66, 80
10, 106320, Note_on_c, 6, 71, 80
10, 106400, Note_off_c, 6, 71, 64
10, 106400, Note_off_c, 6, 66, 64
10, 106560, Note_on_c, 6, 64, 78
10, 106560, Note_on_c, 6, 71, 78
10, 106640, Note_off_c, 6, 71, 64
10, 106640, Note_off_c, 6, 64, 64
10, 106800, Note_on_c, 6, 64, 75
10, 106800, Note_on_c, 6, 71, 75
10, 107200, Note_off_c, 6, 71, 64
10, 107200, Note_off_c, 6, 64, 64
10, 107280, Note_on_c, 6, 64, 69
10, 107280, Note_on_c, 6, 71, 69
10, 107680, Note_off_c, 6, 71, 64
10, 107680, Note_off_c, 6, 64, 64
10, 107760, Note_on_c, 6, 64, 63
10, 107760, Note_on_c, 6, 71, 63
10, 107840, Note_off_c, 6, 71, 64
10, 107840, Note_off_c, 6, 64, 64
10, 108000, Note_on_c, 6, 64, 60
10, 108000, Note_on_c, 6, 69, 60
10, 108080, Note_off_c, 6, 69, 64
10, 108080, Note_off_c, 6, 64, 64
10, 108240, Note_on_c, 6, 64, 60
10, 108240, Note_on_c, 6, 69, 60
10, 108640, Note_off_c, 6, 69, 64
10, 108640, Note_off_c, 6, 64, 64
10, 108720, Note_on_c, 6, 64, 60
10, 108720, Note_on_c, 6, 69, 60
10, 109120, Note_off_c, 6, 69, 64
10, 109120, Note_off_c, 6, 64, 64
10, 109200, Note_on_c, 6, 64, 60
10, 109200, Note_on_c, 6, 69, 60
10, 109280, Note_off_c, 6, 69, 64
10, 109280, Note_off_c, 6, 64, 64
10, 109440, Note_on_c, 6, 69, 60
10, 109440, Note_on_c, 6, 71, 60
10, 109520, Note_off_c, 6, 71, 64
10, 109520, Note_off_c, 6, 69, 64
10, 109680, Note_on_c, 6, 69, 60
10, 109680, Note_on_c, 6, 71, 60
10, 110080, Note_off_c, 6, 71, 64
10, 110080, Note_off_c, 6, 69, 64
10, 110160, Note_on_c, 6, 69, 60
10, 110160, Note_on_c, 6, 71, 60
10, 110560, Note_off_c, 6, 71, 64
10, 110560, Note_off_c, 6, 69, 64
10, 110640, Note_on_c, 6, 69, 60
10, 110640, Note_on_c, 6, 71, 60
10, 110720, Note_off_c, 6, 71, 64
10, 110720, Note_off_c, 6, 69, 64
10, 110880, Note_on_c, 6, 68, 45
10, 110880, Note_on_c, 6, 71, 45
10, 110960, Note_off_c, 6, 71, 64
10, 110960, Note_off_c, 6, 68, 64
10, 111120, Note_on_c, 6, 68, 45
10, 111120, Note_on_c, 6, 71, 45
10, 111520, Note_off_c, 6, 71, 64
10, 111520, Note_off_c, 6, 68, 64
10, 111600, Note_on_c, 6, 68, 45
10, 111600, Note_on_c, 6, 71, 45
10, 112000, Note_off_c, 6, 71, 64
10, 112000, Note_off_c, 6, 68, 64
10, 112080, Note_on_c, 6, 68, 45
10, 112080, Note_on_c, 6, 71, 45
10, 112160, Note_off_c, 6, 71, 64
10, 112160, Note_off_c, 6, 68, 64
10, 112320, Note_on_c, 6, 61, 60
10, 112320, Note_on_c, 6, 64, 60
10, 112720, Note_off_c, 6, 64, 64
10, 112720, Note_off_c, 6, 61, 64
10, 113760, Note_on_c, 6, 61, 68
10, 113760, Note_on_c, 6, 64, 68
10, 114160, Note_off_c, 6, 64, 64
10, 114160, Note_off_c, 6, 61, 64
10, 115200, Note_on_c, 6, 61, 77
10, 115200, Note_on_c, 6, 64, 77
10, 115600, Note_off_c, 6, 64, 64
10, 115600, Note_off_c, 6, 61, 64
10, 117600, Note_on_c, 6, 61, 92
10, 117600, Note_on_c, 6, 64, 92
10, 118080, Note_off_c, 6, 64, 64
10, 118080, Note_off_c, 6, 61, 64
10, 118080, Note_on_c, 6, 59, 45
10, 118080, Note_on_c, 6, 62, 45
10, 118480, Note_off_c, 6, 62, 64
10, 118480, Note_off_c, 6, 59, 64
10, 119520, Note_on_c, 6, 59, 57
10, 119520, Note_on_c, 6, 62, 57
10, 119920, Note_off_c, 6, 62, 64
10, 119920, Note_off_c, 6, 59, 64
10, 120960, Note_on_c, 6, 57, 69
10, 120960, Note_on_c, 6, 59, 69
10, 121360, Note_off_c, 6, 59, 64
10, 121360, Note_off_c, 6, 57, 64
10, 123360, Note_on_c, 6, 60, 92
10, 123360, Note_on_c, 6, 63, 92
10, 123840, Note_off_c, 6, 63, 64
10, 123840, Note_off_c, 6, 60, 64
10, 123840, Note_on_c, 6, 56, 92
10, 123840, Note_on_c, 6, 61, 92
10, 125280, Note_off_c, 6, 61, 64
10, 125280, Note_off_c, 6, 56, 64
10, 125280, Note_on_c, 6, 57, 92
10, 125280, Note_on_c, 6, 61, 92
10, 126720, Note_off_c, 6, 61, 64
10, 126720, Note_off_c, 6, 57, 64
10, 126720, Note_on_c, 6, 59, 92
10, 126720, Note_on_c, 6, 62, 92
10, 128040, Note_off_c, 6, 62, 64
10, 128040, Note_off_c, 6, 59, 64
10, 128160, Note_on_c, 6, 61, 45
10, 128160, Note_on_c, 6, 65, 45
10, 128240, Note_off_c, 6, 65, 64
10, 128240, Note_off_c, 6, 61, 64
10, 128400, Note_on_c, 6, 61, 45
10, 128400, Note_on_c, 6, 65, 45
10, 128800, Note_off_c, 6, 65, 64
10, 128800, Note_off_c, 6, 61, 64
10, 128880, Note_on_c, 6, 61, 45
10, 128880, Note_on_c, 6, 65, 45
10, 129280, Note_off_c, 6, 65, 64
10, 129280, Note_off_c, 6, 61, 64
10, 129360, Note_on_c, 6, 61, 45
10, 129360, Note_on_c, 6, 65, 45
10, 129440, Note_off_c, 6, 65, 64
10, 129440, Note_off_c, 6, 61, 64
10, 129600, Note_on_c, 6, 61, 45
10, 129600, Note_on_c, 6, 65, 45
10, 129680, Note_off_c, 6, 65, 64
10, 129680, Note_off_c, 6, 61, 64
10, 129840, Note_on_c, 6, 61, 47
10, 129840, Note_on_c, 6, 65, 47
10, 130240, Note_off_c, 6, 65, 64
10, 130240, Note_off_c, 6, 61, 64
10, 130320, Note_on_c, 6, 61, 52
10, 130320, Note_on_c, 6, 65, 52
10, 130720, Note_off_c, 6, 65, 64
10, 130720, Note_off_c, 6, 61, 64
10, 130800, Note_on_c, 6, 61, 57
10, 130800, Note_on_c, 6, 65, 57
10, 130880, Note_off_c, 6, 65, 64
10, 130880, Note_off_c, 6, 61, 64
10, 131040, Note_on_c, 6, 61, 59
10, 131040, Note_on_c, 6, 65, 59
10, 131120, Note_off_c, 6, 65, 64
10, 131120, Note_off_c, 6, 61, 64
10, 131280, Note_on_c, 6, 61, 61
10, 131280, Note_on_c, 6, 65, 61
10, 131680, Note_off_c, 6, 65, 64
10, 131680, Note_off_c, 6, 61, 64
10, 131760, Note_on_c, 6, 61, 66
10, 131760, Note_on_c, 6, 65, 66
10, 132160, Note_off_c, 6, 65, 64
10, 132160, Note_off_c, 6, 61, 64
10, 132240, Note_on_c, 6, 61, 72
10, 132240, Note_on_c, 6, 65, 72
10, 132320, Note_off_c, 6, 65, 64
10, 132320, Note_off_c, 6, 61, 64
10, 132480, Note_on_c, 6, 61, 75
10, 132480, Note_on_c, 6, 65, 75
10, 132560, Note_off_c, 6, 65, 64
10, 132560, Note_off_c, 6, 61, 64
10, 132720, Note_on_c, 6, 61, 75
10, 132720, Note_on_c, 6, 65, 75
10, 133120, Note_off_c, 6, 65, 64
10, 133120, Note_off_c, 6, 61, 64
10, 133200, Note_on_c, 6, 61, 75
10, 133200, Note_on_c, 6, 65, 75
10, 133600, Note_off_c, 6, 65, 64
10, 133600, Note_off_c, 6, 61, 64
10, 133680, Note_on_c, 6, 61, 75
10, 133680, Note_on_c, 6, 65, 75
10, 133760, Note_off_c, 6, 65, 64
10, 133760, Note_off_c, 6, 61, 64
10, 133920, Note_on_c, 6, 61, 75
10, 133920, Note_on_c, 6, 66, 75
10, 134000, Note_off_c, 6, 66, 64
10, 134000, Note_off_c, 6, 61, 64
10, 134160, Note_on_c, 6, 61, 75
10, 134160, Note_on_c, 6, 66, 75
10, 134560, Note_off_c, 6, 66, 64
10, 134560, Note_off_c, 6, 61, 64
10, 134640, Note_on_c, 6, 61, 75
10, 134640, Note_on_c, 6, 66, 75
10, 135040, Note_off_c, 6, 66, 64
10, 135040, Note_off_c, 6, 61, 64
10, 135120, Note_on_c, 6, 61, 75
10, 135120, Note_on_c, 6, 66, 75
10, 135355, Note_off_c, 6, 66, 64
10, 135355, Note_off_c, 6, 61, 64
10, 135360, Note_on_c, 6, 62, 60
10, 135360, Note_on_c, 6, 66, 60
10, 135760, Note_off_c, 6, 66, 64
10, 135760, Note_off_c, 6, 62, 64
10, 135840, Note_on_c, 6, 62, 60
10, 135840, Note_on_c, 6, 66, 60
10, 136240, Note_off_c, 6, 66, 64
10, 136240, Note_off_c, 6, 62, 64
10, 136320, Note_on_c, 6, 61, 60
10, 136320, Note_on_c, 6, 64, 60
10, 136720, Note_off_c, 6, 64, 64
10, 136720, Note_off_c, 6, 61, 64
10, 136800, Note_on_c, 6, 59, 60
10, 136800, Note_on_c, 6, 62, 60
10, 137200, Note_off_c, 6, 62, 64
10, 137200, Note_off_c, 6, 59, 64
10, 137280, Note_on_c, 6, 59, 60
10, 137280, Note_on_c, 6, 62, 60
10, 137680, Note_off_c, 6, 62, 64
10, 137680, Note_off_c, 6, 59, 64
10, 137760, Note_on_c, 6, 57, 60
10, 137760, Note_on_c, 6, 61, 60
10, 138160, Note_off_c, 6, 61, 64
10, 138160, Note_off_c, 6, 57, 64
10, 138240, Note_on_c, 6, 56, 60
10, 138240, Note_on_c, 6, 65, 60
10, 138960, Note_off_c, 6, 65, 64
10, 138960, Note_off_c, 6, 56, 64
10, 138960, Note_on_c, 6, 57, 60
10, 138960, Note_on_c, 6, 66, 60
10, 139200, Note_off_c, 6, 66, 64
10, 139200, Note_off_c, 6, 57, 64
10, 139200, Note_on_c, 6, 56, 60
10, 139200, Note_on_c, 6, 65, 60
10, 139440, Note_off_c, 6, 65, 64
10, 139440, Note_off_c, 6, 56, 64
10, 139440, Note_on_c, 6, 54, 60
10, 139440, Note_on_c, 6, 63, 60
10, 139680, Note_off_c, 6, 63, 64
10, 139680, Note_off_c, 6, 54, 64
10, 139680, Note_on_c, 6, 56, 45
10, 139680, Note_on_c, 6, 65, 45
10, 141000, Note_off_c, 6, 65, 64
10, 141000, Note_off_c, 6, 56, 64
10, 141120, Note_on_c, 6, 57, 45
10, 141120, Note_on_c, 6, 61, 45
10, 141200, Note_off_c, 6, 61, 64
10, 141200, Note_off_c, 6, 57, 64
10, 141360, Note_on_c, 6, 57, 45
10, 141360, Note_on_c, 6, 61, 45
10, 141760, Note_off_c, 6, 61, 64
10, 141760, Note_off_c, 6, 57, 64
10, 141840, Note_on_c, 6, 57, 45
10, 141840, Note_on_c, 6, 61, 45
10, 142240, Note_off_c, 6, 61, 64
10, 142240, Note_off_c, 6, 57, 64
10, 142320, Note_on_c, 6, 57, 45
10, 142320, Note_on_c, 6, 61, 45
10, 142400, Note_off_c, 6, 61, 64
10, 142400, Note_off_c, 6, 57, 64
10, 142560, Note_on_c, 6, 61, 45
10, 142560, Note_on_c, 6, 65, 45
10, 142640, Note_off_c, 6, 65, 64
10, 142640, Note_off_c, 6, 61, 64
10, 142800, Note_on_c, 6, 61, 48
10, 142800, Note_on_c, 6, 65, 48
10, 143200, Note_off_c, 6, 65, 64
10, 143200, Note_off_c, 6, 61, 64
10, 143280, Note_on_c, 6, 61, 56
10, 143280, Note_on_c, 6, 65, 56
10, 143680, Note_off_c, 6, 65, 64
10, 143680, Note_off_c, 6, 61, 64
10, 143760, Note_on_c, 6, 61, 64
10, 143760, Note_on_c, 6, 65, 64
10, 143840, Note_off_c, 6, 65, 64
10, 143840, Note_off_c, 6, 61, 64
10, 144000, Note_on_c, 6, 61, 68
10, 144000, Note_on_c, 6, 66, 68
10, 144080, Note_off_c, 6, 66, 64
10, 144080, Note_off_c, 6, 61, 64
10, 144240, Note_on_c, 6, 61, 72
10, 144240, Note_on_c, 6, 66, 72
10, 144640, Note_off_c, 6, 66, 64
10, 144640, Note_off_c, 6, 61, 64
10, 144720, Note_on_c, 6, 61, 80
10, 144720, Note_on_c, 6, 66, 80
10, 145120, Note_off_c, 6, 66, 64
10, 145120, Note_off_c, 6, 61, 64
10, 145200, Note_on_c, 6, 61, 88
10, 145200, Note_on_c, 6, 66, 88
10, 145280, Note_off_c, 6, 66, 64
10, 145280, Note_off_c, 6, 61, 64
10, 145440, Note_on_c, 6, 61, 92
10, 145440, Note_on_c, 6, 65, 92
10, 150600, Note_off_c, 6, 65, 64
10, 150600, Note_off_c, 6, 61, 64
10, 150720, Note_on_c, 6, 61, 127
10, 150720, Note_on_c, 6, 65, 127
10, 151120, Note_off_c, 6, 65, 64
10, 151120, Note_off_c, 6, 61, 64
10, 151200, Note_on_c, 6, 61, 92
10, 151200, Note_on_c, 6, 66, 92
10, 152520, Note_off_c, 6, 66, 64
10, 152520, Note_off_c, 6, 61, 64
10, 152640, Note_on_c, 6, 59, 84
10, 152640, Note_on_c, 6, 62, 84
10, 153040, Note_off_c, 6, 62, 64
10, 153040, Note_off_c, 6, 59, 64
10, 153120, Note_on_c, 6, 61, 84
10, 153120, Note_on_c, 6, 65, 84
10, 153520, Note_off_c, 6, 65, 64
10, 153520, Note_off_c, 6, 61, 64
10, 153600, Note_on_c, 6, 57, 84
10, 153600, Note_on_c, 6, 61, 84
10, 154000, Note_off_c, 6, 61, 64
10, 154000, Note_off_c, 6, 57, 64
10, 154080, Note_on_c, 6, 57, 84
10, 154080, Note_on_c, 6, 61, 84
10, 154480, Note_off_c, 6, 61, 64
10, 154480, Note_off_c, 6, 57, 64
10, 154560, Note_on_c, 6, 56, 84
10, 154560, Note_on_c, 6, 57, 84
10, 154960, Note_off_c, 6, 57, 64
10, 154960, Note_off_c, 6, 56, 64
10, 155040, Note_on_c, 6, 56, 84
10, 155040, Note_on_c, 6, 65, 84
10, 155440, Note_off_c, 6, 65, 64
10, 155440, Note_off_c, 6, 56, 64
10, 155520, Note_on_c, 6, 57, 45
10, 155520, Note_on_c, 6, 61, 45
10, 156960, Note_off_c, 6, 61, 64
10, 156960, Note_off_c, 6, 57, 64
10, 156960, Note_on_c, 6, 57, 45
10, 156960, Note_on_c, 6, 61, 45
10, 158400, Note_off_c, 6, 61, 64
10, 158400, Note_off_c, 6, 57, 64
10, 158400, Note_on_c, 6, 56, 45
10, 158400, Note_on_c, 6, 59, 45
10, 159840, Note_off_c, 6, 59, 64
10, 159840, Note_off_c, 6, 56, 64
10, 159840, Note_on_c, 6, 58, 45
10, 159840, Note_on_c, 6, 61, 45
10, 161280, Note_off_c, 6, 61, 64
10, 161280, Note_off_c, 6, 58, 64
10, 161280, Note_on_c, 6, 59, 45
10, 161280, Note_on_c, 6, 63, 45
10, 162600, Note_off_c, 6, 63, 64
10, 162600, Note_off_c, 6, 59, 64
10, 162720, Note_on_c, 6, 59, 45
10, 162720, Note_on_c, 6, 68, 45
10, 162960, Note_off_c, 6, 68, 64
10, 162960, Note_off_c, 6, 59, 64
10, 162960, Note_on_c, 6, 57, 45
10, 162960, Note_on_c, 6, 66, 45
10, 163200, Note_off_c, 6, 66, 64
10, 163200, Note_off_c, 6, 57, 64
10, 163200, Note_on_c, 6, 56, 45
10, 163200, Note_on_c, 6, 64, 45
10, 163440, Note_off_c, 6, 64, 64
10, 163440, Note_off_c, 6, 56, 64
10, 163440, Note_on_c, 6, 54, 45
10, 163440, Note_on_c, 6, 62, 45
10, 163680, Note_off_c, 6, 62, 64
10, 163680, Note_off_c, 6, 54, 64
10, 163680, Note_on_c, 6, 52, 45
10, 163680, Note_on_c, 6, 61, 45
10, 163920, Note_off_c, 6, 61, 64
10, 163920, Note_off_c, 6, 52, 64
10, 163920, Note_on_c, 6, 50, 45
10, 163920, Note_on_c, 6, 59, 45
10, 164160, Note_off_c, 6, 59, 64
10, 164160, Note_off_c, 6, 50, 64
10, 164160, Note_on_c, 6, 49, 45
10, 164160, Note_on_c, 6, 57, 45
10, 165480, Note_off_c, 6, 57, 64
10, 165480, Note_off_c, 6, 49, 64
10, 165600, Note_on_c, 6, 57, 45
10, 165600, Note_on_c, 6, 66, 45
10, 165840, Note_off_c, 6, 66, 64
10, 165840, Note_off_c, 6, 57, 64
10, 165840, Note_on_c, 6, 56, 45
10, 165840, Note_on_c, 6, 64, 45
10, 166080, Note_off_c, 6, 64, 64
10, 166080, Note_off_c, 6, 56, 64
10, 166080, Note_on_c, 6, 54, 45
10, 166080, Note_on_c, 6, 63, 45
10, 166320, Note_off_c, 6, 63, 64
10, 166320, Note_off_c, 6, 54, 64
10, 166320, Note_on_c, 6, 52, 45
10, 166320, Note_on_c, 6, 61, 45
10, 166560, Note_off_c, 6, 61, 64
10, 166560, Note_off_c, 6, 52, 64
10, 166560, Note_on_c, 6, 51, 45
10, 166560, Note_on_c, 6, 59, 45
10, 166800, Note_off_c, 6, 59, 64
10, 166800, Note_off_c, 6, 51, 64
10, 166800, Note_on_c, 6, 49, 45
10, 166800, Note_on_c, 6, 57, 45
10, 167040, Note_off_c, 6, 57, 64
10, 167040, Note_off_c, 6, 49, 64
10, 167040, Note_on_c, 6, 51, 45
10, 167040, Note_on_c, 6, 59, 45
10, 168360, Note_off_c, 6, 59, 64
10, 168360, Note_off_c, 6, 51, 64
10, 168480, Note_on_c, 6, 61, 60
10, 168480, Note_on_c, 6, 64, 60
10, 168720, Note_off_c, 6, 64, 64
10, 168720, Note_off_c, 6, 61, 64
10, 168720, Note_on_c, 6, 59, 45
10, 168720, Note_on_c, 6, 62, 45
10, 168960, Note_off_c, 6, 62, 64
10, 168960, Note_off_c, 6, 59, 64
10, 168960, Note_on_c, 6, 57, 45
10, 168960, Note_on_c, 6, 61, 45
10, 169200, Note_off_c, 6, 61, 64
10, 169200, Note_off_c, 6, 57, 64
10, 169200, Note_on_c, 6, 56, 45
10, 169200, Note_on_c, 6, 59, 45
10, 169440, Note_off_c, 6, 59, 64
10, 169440, Note_off_c, 6, 56, 64
10, 169440, Note_on_c, 6, 54, 45
10, 169440, Note_on_c, 6, 57, 45
10, 169680, Note_off_c, 6, 57, 64
10, 169680, Note_off_c, 6, 54, 64
10, 169680, Note_on_c, 6, 52, 45
10, 169680, Note_on_c, 6, 56, 45
10, 169920, Note_off_c, 6, 56, 64
10, 169920, Note_off_c, 6, 52, 64
10, 169920, Note_on_c, 6, 52, 45
10, 169920, Note_on_c, 6, 57, 45
10, 170320, Note_off_c, 6, 57, 64
10, 170320, Note_off_c, 6, 52, 64
10, 170400, Note_on_c, 6, 57, 46
10, 170400, Note_on_c, 6, 61, 46
10, 170800, Note_off_c, 6, 61, 64
10, 170800, Note_off_c, 6, 57, 64
10, 170880, Note_on_c, 6, 61, 47
10, 170880, Note_on_c, 6, 64, 47
10, 171280, Note_off_c, 6, 64, 64
10, 171280, Note_off_c, 6, 61, 64
10, 171360, Note_on_c, 6, 63, 48
10, 171360, Note_on_c, 6, 66, 48
10, 172680, Note_off_c, 6, 66, 64
10, 172680, Note_off_c, 6, 63, 64
10, 172800, Note_on_c, 6, 64, 52
10, 172800, Note_on_c, 6, 68, 52
10, 174120, Note_off_c, 6, 68, 64
10, 174120, Note_off_c, 6, 64, 64
10, 174240, Note_on_c, 6, 58, 56
10, 174240, Note_on_c, 6, 61, 56
10, 175560, Note_off_c, 6, 61, 64
10, 175560, Note_off_c, 6, 58, 64
10, 175680, Note_on_c, 6, 58, 60
10, 175680, Note_on_c, 6, 59, 60
10, 177120, Note_off_c, 6, 59, 64
10, 177120, Note_off_c, 6, 58, 64
10, 177120, Note_on_c, 6, 59, 60
10, 177120, Note_on_c, 6, 63, 60
10, 178560, Note_off_c, 6, 63, 64
10, 178560, Note_off_c, 6, 59, 64
10, 178560, Note_on_c, 6, 59, 60
10, 178560, Note_on_c, 6, 63, 60
10, 179520, Note_off_c, 6, 63, 64
10, 179520, Note_off_c, 6, 59, 64
10, 179520, Note_on_c, 6, 61, 60
10, 179520, Note_on_c, 6, 64, 60
10, 180000, Note_off_c, 6, 64, 64
10, 180000, Note_off_c, 6, 61, 64
10, 180000, Note_on_c, 6, 61, 60
10, 180000, Note_on_c, 6, 64, 60
10, 181320, Note_off_c, 6, 64, 64
10, 181320, Note_off_c, 6, 61, 64
10, 181440, Note_on_c, 6, 59, 60
10, 181440, Note_on_c, 6, 64, 60
10, 181840, Note_off_c, 6, 64, 64
10, 181840, Note_off_c, 6, 59, 64
10, 181920, Note_on_c, 6, 64, 60
10, 181920, Note_on_c, 6, 68, 60
10, 182320, Note_off_c, 6, 68, 64
10, 182320, Note_off_c, 6, 64, 64
10, 182400, Note_on_c, 6, 59, 60
10, 182400, Note_on_c, 6, 64, 60
10, 182800, Note_off_c, 6, 64, 64
10, 182800, Note_off_c, 6, 59, 64
10, 182880, Note_on_c, 6, 59, 60
10, 182880, Note_on_c, 6, 63, 60
10, 183280, Note_off_c, 6, 63, 64
10, 183280, Note_off_c, 6, 59, 64
10, 183360, Note_on_c, 6, 63, 69
10, 183360, Note_on_c, 6, 66, 69
10, 183760, Note_off_c, 6, 66, 64
10, 183760, Note_off_c, 6, 63, 64
10, 183840, Note_on_c, 6, 59, 78
10, 183840, Note_on_c, 6, 63, 78
10, 184240, Note_off_c, 6, 63, 64
10, 184240, Note_off_c, 6, 59, 64
10, 184320, Note_on_c, 6, 56, 88
10, 184320, Note_on_c, 6, 64, 88
10, 184720, Note_off_c, 6, 64, 64
10, 184720, Note_off_c, 6, 56, 64
10, 184800, Note_on_c, 6, 56, 98
10, 184800, Note_on_c, 6, 64, 98
10, 185040, Note_off_c, 6, 64, 64
10, 185040, Note_off_c, 6, 56, 64
10, 185040, Note_on_c, 6, 57, 103
10, 185040, Note_on_c, 6, 66, 103
10, 185280, Note_off_c, 6, 66, 64
10, 185280, Note_off_c, 6, 57, 64
10, 185280, Note_on_c, 6, 59, 108
10, 185280, Note_on_c, 6, 63, 108
10, 185680, Note_off_c, 6, 63, 64
10, 185680, Note_off_c, 6, 59, 64
10, 185760, Note_on_c, 6, 59, 75
10, 185760, Note_on_c, 6, 64, 75
10, 186160, Note_off_c, 6, 64, 64
10, 186160, Note_off_c, 6, 59, 64
10, 186240, Note_on_c, 6, 50, 127
10, 186240, Note_on_c, 6, 62, 127
10, 186475, Note_off_c, 6, 62, 64
10, 186475, Note_off_c, 6, 50, 64
10, 186480, Note_on_c, 6, 49, 127
10, 186480, Note_on_c, 6, 61, 127
10, 186715, Note_off_c, 6, 61, 64
10, 186715, Note_off_c, 6, 49, 64
10, 186720, Note_on_c, 6, 50, 127
10, 186720, Note_on_c, 6, 62, 127
10, 186955, Note_off_c, 6, 62, 64
10, 186955, Note_off_c, 6, 50, 64
10, 186960, Note_on_c, 6, 47, 127
10, 186960, Note_on_c, 6, 59, 127
10, 187195, Note_off_c, 6, 59, 64
10, 187195, Note_off_c, 6, 47, 64
10, 187200, Note_on_c, 6, 49, 127
10, 187200, Note_on_c, 6, 61, 127
10, 187600, Note_off_c, 6, 61, 64
10, 187600, Note_off_c, 6, 49, 64
10, 187680, Note_on_c, 6, 49, 127
10, 187680, Note_on_c, 6, 61, 127
10, 187915, Note_off_c, 6, 61, 64
10, 187915, Note_off_c, 6, 49, 64
10, 187920, Note_on_c, 6, 47, 127
10, 187920, Note_on_c, 6, 59, 127
10, 188155, Note_off_c, 6, 59, 64
10, 188155, Note_off_c, 6, 47, 64
10, 188160, Note_on_c, 6, 49, 127
10, 188160, Note_on_c, 6, 61, 127
10, 188395, Note_off_c, 6, 61, 64
10, 188395, Note_off_c, 6, 49, 64
10, 188400, Note_on_c, 6, 45, 127
10, 188400, Note_on_c, 6, 57, 127
10, 188635, Note_off_c, 6, 57, 64
10, 188635, Note_off_c, 6, 45, 64
10, 188640, Note_on_c, 6, 47, 127
10, 188640, Note_on_c, 6, 59, 127
10, 189040, Note_off_c, 6, 59, 64
10, 189040, Note_off_c, 6, 47, 64
10, 189120, Note_on_c, 6, 47, 127
10, 189120, Note_on_c, 6, 59, 127
10, 189355, Note_off_c, 6, 59, 64
10, 189355, Note_off_c, 6, 47, 64
10, 189360, Note_on_c, 6, 45, 127
10, 189360, Note_on_c, 6, 57, 127
10, 189595, Note_off_c, 6, 57, 64
10, 189595, Note_off_c, 6, 45, 64
10, 189600, Note_on_c, 6, 47, 127
10, 189600, Note_on_c, 6, 59, 127
10, 189835, Note_off_c, 6, 59, 64
10, 189835, Note_off_c, 6, 47, 64
10, 189840, Note_on_c, 6, 44, 127
10, 189840, Note_on_c, 6, 56, 127
10, 190075, Note_off_c, 6, 56, 64
10, 190075, Note_off_c, 6, 44, 64
10, 190080, Note_on_c, 6, 45, 127
10, 190080, Note_on_c, 6, 57, 127
10, 190480, Note_off_c, 6, 57, 64
10, 190480, Note_off_c, 6, 45, 64
10, 190560, Note_on_c, 6, 51, 127
10, 190560, Note_on_c, 6, 63, 127
10, 190795, Note_off_c, 6, 63, 64
10, 190795, Note_off_c, 6, 51, 64
10, 190800, Note_on_c, 6, 52, 127
10, 190800, Note_on_c, 6, 64, 127
10, 191035, Note_off_c, 6, 64, 64
10, 191035, Note_off_c, 6, 52, 64
10, 191040, Note_on_c, 6, 54, 127
10, 191040, Note_on_c, 6, 66, 127
10, 191275, Note_off_c, 6, 66, 64
10, 191275, Note_off_c, 6, 54, 64
10, 191280, Note_on_c, 6, 56, 127
10, 191280, Note_on_c, 6, 68, 127
10, 191515, Note_off_c, 6, 68, 64
10, 191515, Note_off_c, 6, 56, 64
10, 191520, Note_on_c, 6, 57, 127
10, 191520, Note_on_c, 6, 69, 127
10, 192160, Note_off_c, 6, 69, 64
10, 192160, Note_off_c, 6, 57, 64
10, 192240, Note_on_c, 6, 59, 127
10, 192240, Note_on_c, 6, 71, 127
10, 192475, Note_off_c, 6, 71, 64
10, 192475, Note_off_c, 6, 59, 64
10, 192480, Note_on_c, 6, 56, 127
10, 192480, Note_on_c, 6, 68, 127
10, 192880, Note_off_c, 6, 68, 64
10, 192880, Note_off_c, 6, 56, 64
10, 192960, Note_on_c, 6, 57, 127
10, 192960, Note_on_c, 6, 69, 127
10, 193195, Note_off_c, 6, 69, 64
10, 193195, Note_off_c, 6, 57, 64
10, 193200, Note_on_c, 6, 54, 127
10, 193200, Note_on_c, 6, 66, 127
10, 193435, Note_off_c, 6, 66, 64
10, 193435, Note_off_c, 6, 54, 64
10, 193440, Note_on_c, 6, 54, 127
10, 193440, Note_on_c, 6, 66, 127
10, 194080, Note_off_c, 6, 66, 64
10, 194080, Note_off_c, 6, 54, 64
10, 194160, Note_on_c, 6, 52, 127
10, 194160, Note_on_c, 6, 64, 127
10, 194395, Note_off_c, 6, 64, 64
10, 194395, Note_off_c, 6, 52, 64
10, 194400, Note_on_c, 6, 52, 127
10, 194400, Note_on_c, 6, 64, 127
10, 194800, Note_off_c, 6, 64, 64
10, 194800, Note_off_c, 6, 52, 64
10, 194880, Note_on_c, 6, 64, 127
10, 194880, Note_on_c, 6, 68, 127
10, 195115, Note_off_c, 6, 68, 64
10, 195115, Note_off_c, 6, 64, 64
10, 195120, Note_on_c, 6, 66, 127
10, 195120, Note_on_c, 6, 69, 127
10, 195355, Note_off_c, 6, 69, 64
10, 195355, Note_off_c, 6, 66, 64
10, 195360, Note_on_c, 6, 64, 127
10, 195360, Note_on_c, 6, 68, 127
10, 195595, Note_off_c, 6, 68, 64
10, 195595, Note_off_c, 6, 64, 64
10, 195600, Note_on_c, 6, 63, 127
10, 195600, Note_on_c, 6, 66, 127
10, 195835, Note_off_c, 6, 66, 64
10, 195835, Note_off_c, 6, 63, 64
10, 195840, Note_on_c, 6, 59, 127
10, 195840, Note_on_c, 6, 64, 127
10, 196240, Note_off_c, 6, 64, 64
10, 196240, Note_off_c, 6, 59, 64
10, 196320, Note_on_c, 6, 56, 127
10, 196320, Note_on_c, 6, 59, 127
10, 196555, Note_off_c, 6, 59, 64
10, 196555, Note_off_c, 6, 56, 64
10, 196560, Note_on_c, 6, 54, 127
10, 196560, Note_on_c, 6, 57, 127
10, 196795, Note_off_c, 6, 57, 64
10, 196795, Note_off_c, 6, 54, 64
10, 196800, Note_on_c, 6, 52, 127
10, 196800, Note_on_c, 6, 56, 127
10, 197035, Note_off_c, 6, 56, 64
10, 197035, Note_off_c, 6, 52, 64
10, 197040, Note_on_c, 6, 51, 127
10, 197040, Note_on_c, 6, 54, 127
10, 197275, Note_off_c, 6, 54, 64
10, 197275, Note_off_c, 6, 51, 64
10, 197280, Note_on_c, 6, 52, 127
10, 197280, Note_on_c, 6, 56, 127
10, 197680, Note_off_c, 6, 56, 64
10, 197680, Note_off_c, 6, 52, 64
10, 197760, Note_on_c, 6, 59, 127
10, 197760, Note_on_c, 6, 64, 127
10, 197995, Note_off_c, 6, 64, 64
10, 197995, Note_off_c, 6, 59, 64
10, 198000, Note_on_c, 6, 59, 127
10, 198000, Note_on_c, 6, 64, 127
10, 198235, Note_off_c, 6, 64, 64
10, 198235, Note_off_c, 6, 59, 64
10, 198240, Note_on_c, 6, 59, 127
10, 198240, Note_on_c, 6, 64, 127
10, 198475, Note_off_c, 6, 64, 64
10, 198475, Note_off_c, 6, 59, 64
10, 198480, Note_on_c, 6, 59, 127
10, 198480, Note_on_c, 6, 64, 127
10, 199120, Note_off_c, 6, 64, 64
10, 199120, Note_off_c, 6, 59, 64
10, 199120, End_track
11, 0, Start_track
11, 0, MIDI_port, 0
11, 0, Channel_prefix, 6
11, 0, Control_c, 6, 7, 99
11, 0, Control_c, 6, 10, 85
11, 0, Control_c, 6, 91, 53
11, 0, Program_c, 6, 57
11, 0, Note_on_c, 6, 52, 92
11, 400, Note_off_c, 6, 52, 64
11, 1440, Note_on_c, 6, 52, 92
11, 1840, Note_off_c, 6, 52, 64
11, 2880, Note_on_c, 6, 56, 92
11, 3595, Note_off_c, 6, 56, 64
11, 3600, Note_on_c, 6, 57, 92
11, 3840, Note_off_c, 6, 57, 64
11, 3840, Note_on_c, 6, 56, 92
11, 4080, Note_off_c, 6, 56, 64
11, 4080, Note_on_c, 6, 54, 92
11, 4320, Note_off_c, 6, 54, 64
11, 4320, Note_on_c, 6, 56, 92
11, 5280, Note_off_c, 6, 56, 64
11, 5280, Note_on_c, 6, 54, 92
11, 5680, Note_off_c, 6, 54, 64
11, 5760, Note_on_c, 6, 56, 60
11, 6475, Note_off_c, 6, 56, 64
11, 6480, Note_on_c, 6, 57, 60
11, 6720, Note_off_c, 6, 57, 64
11, 6720, Note_on_c, 6, 56, 60
11, 6960, Note_off_c, 6, 56, 64
11, 6960, Note_on_c, 6, 54, 60
11, 7200, Note_off_c, 6, 54, 64
11, 7200, Note_on_c, 6, 56, 60
11, 8160, Note_off_c, 6, 56, 64
11, 8160, Note_on_c, 6, 54, 60
11, 8560, Note_off_c, 6, 54, 64
11, 8640, Note_on_c, 6, 56, 45
11, 9600, Note_off_c, 6, 56, 64
11, 9600, Note_on_c, 6, 57, 60
11, 10080, Note_off_c, 6, 57, 64
11, 10080, Note_on_c, 6, 56, 68
11, 11040, Note_off_c, 6, 56, 64
11, 11040, Note_on_c, 6, 54, 84
11, 11440, Note_off_c, 6, 54, 64
11, 11520, Note_on_c, 6, 56, 92
11, 12235, Note_off_c, 6, 56, 64
11, 12240, Note_on_c, 6, 57, 92
11, 12480, Note_off_c, 6, 57, 64
11, 12480, Note_on_c, 6, 56, 92
11, 12720, Note_off_c, 6, 56, 64
11, 12720, Note_on_c, 6, 54, 92
11, 12960, Note_off_c, 6, 54, 64
11, 12960, Note_on_c, 6, 56, 92
11, 13920, Note_off_c, 6, 56, 64
11, 13920, Note_on_c, 6, 54, 92
11, 14320, Note_off_c, 6, 54, 64
11, 14400, Note_on_c, 6, 56, 60
11, 15115, Note_off_c, 6, 56, 64
11, 15120, Note_on_c, 6, 57, 60
11, 15360, Note_off_c, 6, 57, 64
11, 15360, Note_on_c, 6, 56, 60
11, 15600, Note_off_c, 6, 56, 64
11, 15600, Note_on_c, 6, 54, 60
11, 15840, Note_off_c, 6, 54, 64
11, 15840, Note_on_c, 6, 56, 60
11, 16800, Note_off_c, 6, 56, 64
11, 16800, Note_on_c, 6, 54, 70
11, 17200, Note_off_c, 6, 54, 64
11, 17280, Note_on_c, 6, 56, 75
11, 17360, Note_off_c, 6, 56, 64
11, 17520, Note_on_c, 6, 56, 75
11, 17920, Note_off_c, 6, 56, 64
11, 18000, Note_on_c, 6, 56, 75
11, 18400, Note_off_c, 6, 56, 64
11, 18480, Note_on_c, 6, 56, 75
11, 18955, Note_off_c, 6, 56, 64
11, 18960, Note_on_c, 6, 56, 92
11, 19200, Note_off_c, 6, 56, 64
11, 19200, Note_on_c, 6, 54, 92
11, 19440, Note_off_c, 6, 54, 64
11, 19440, Note_on_c, 6, 56, 92
11, 19680, Note_off_c, 6, 56, 64
11, 19680, Note_on_c, 6, 52, 92
11, 19920, Note_off_c, 6, 52, 64
11, 19920, Note_on_c, 6, 54, 92
11, 20155, Note_off_c, 6, 54, 64
11, 23040, Note_on_c, 6, 56, 60
11, 23120, Note_off_c, 6, 56, 64
11, 23280, Note_on_c, 6, 56, 60
11, 23680, Note_off_c, 6, 56, 64
11, 23760, Note_on_c, 6, 56, 60
11, 24160, Note_off_c, 6, 56, 64
11, 24240, Note_on_c, 6, 56, 60
11, 24320, Note_off_c, 6, 56, 64
11, 24480, Note_on_c, 6, 56, 60
11, 24560, Note_off_c, 6, 56, 64
11, 24720, Note_on_c, 6, 56, 60
11, 25120, Note_off_c, 6, 56, 64
11, 25200, Note_on_c, 6, 56, 60
11, 25600, Note_off_c, 6, 56, 64
11, 25680, Note_on_c, 6, 56, 60
11, 25760, Note_off_c, 6, 56, 64
11, 25920, Note_on_c, 6, 56, 60
11, 26000, Note_off_c, 6, 56, 64
11, 26160, Note_on_c, 6, 56, 60
11, 26560, Note_off_c, 6, 56, 64
11, 26640, Note_on_c, 6, 56, 60
11, 27040, Note_off_c, 6, 56, 64
11, 27120, Note_on_c, 6, 56, 60
11, 27200, Note_off_c, 6, 56, 64
11, 27360, Note_on_c, 6, 57, 60
11, 27440, Note_off_c, 6, 57, 64
11, 27600, Note_on_c, 6, 57, 62
11, 28000, Note_off_c, 6, 57, 64
11, 28080, Note_on_c, 6, 57, 67
11, 28480, Note_off_c, 6, 57, 64
11, 28560, Note_on_c, 6, 57, 72
11, 28640, Note_off_c, 6, 57, 64
11, 28800, Note_on_c, 6, 56, 75
11, 28880, Note_off_c, 6, 56, 64
11, 29040, Note_on_c, 6, 56, 75
11, 29440, Note_off_c, 6, 56, 64
11, 29520, Note_on_c, 6, 56, 75
11, 29920, Note_off_c, 6, 56, 64
11, 30000, Note_on_c, 6, 56, 75
11, 30080, Note_off_c, 6, 56, 64
11, 30240, Note_on_c, 6, 56, 75
11, 30320, Note_off_c, 6, 56, 64
11, 30480, Note_on_c, 6, 56, 70
11, 30880, Note_off_c, 6, 56, 64
11, 30960, Note_on_c, 6, 56, 60
11, 31360, Note_off_c, 6, 56, 64
11, 31440, Note_on_c, 6, 56, 50
11, 31520, Note_off_c, 6, 56, 64
11, 31680, Note_on_c, 6, 57, 45
11, 31760, Note_off_c, 6, 57, 64
11, 31920, Note_on_c, 6, 57, 45
11, 32320, Note_off_c, 6, 57, 64
11, 32400, Note_on_c, 6, 57, 45
11, 32800, Note_off_c, 6, 57, 64
11, 32880, Note_on_c, 6, 57, 45
11, 32960, Note_off_c, 6, 57, 64
11, 33120, Note_on_c, 6, 57, 45
11, 33200, Note_off_c, 6, 57, 64
11, 33360, Note_on_c, 6, 57, 45
11, 33760, Note_off_c, 6, 57, 64
11, 33840, Note_on_c, 6, 57, 45
11, 34240, Note_off_c, 6, 57, 64
11, 34320, Note_on_c, 6, 57, 45
11, 34400, Note_off_c, 6, 57, 64
11, 34560, Note_on_c, 6, 56, 45
11, 34640, Note_off_c, 6, 56, 64
11, 34800, Note_on_c, 6, 56, 45
11, 35200, Note_off_c, 6, 56, 64
11, 35280, Note_on_c, 6, 56, 45
11, 35680, Note_off_c, 6, 56, 64
11, 35760, Note_on_c, 6, 56, 45
11, 35840, Note_off_c, 6, 56, 64
11, 36000, Note_on_c, 6, 56, 45
11, 36080, Note_off_c, 6, 56, 64
11, 36240, Note_on_c, 6, 56, 45
11, 36640, Note_off_c, 6, 56, 64
11, 36720, Note_on_c, 6, 56, 45
11, 37120, Note_off_c, 6, 56, 64
11, 37200, Note_on_c, 6, 56, 45
11, 37280, Note_off_c, 6, 56, 64
11, 37440, Note_on_c, 6, 59, 45
11, 37520, Note_off_c, 6, 59, 64
11, 37680, Note_on_c, 6, 59, 45
11, 38080, Note_off_c, 6, 59, 64
11, 38160, Note_on_c, 6, 59, 45
11, 38560, Note_off_c, 6, 59, 64
11, 38640, Note_on_c, 6, 59, 45
11, 38720, Note_off_c, 6, 59, 64
11, 38880, Note_on_c, 6, 59, 45
11, 38960, Note_off_c, 6, 59, 64
11, 39120, Note_on_c, 6, 59, 45
11, 39520, Note_off_c, 6, 59, 64
11, 39600, Note_on_c, 6, 59, 45
11, 40000, Note_off_c, 6, 59, 64
11, 40080, Note_on_c, 6, 59, 45
11, 40160, Note_off_c, 6, 59, 64
11, 40320, Note_on_c, 6, 59, 75
11, 40720, Note_off_c, 6, 59, 64
11, 41760, Note_on_c, 6, 59, 78
11, 42160, Note_off_c, 6, 59, 64
11, 43200, Note_on_c, 6, 59, 82
11, 43600, Note_off_c, 6, 59, 64
11, 45600, Note_on_c, 6, 59, 92
11, 46080, Note_off_c, 6, 59, 64
11, 46080, Note_on_c, 6, 61, 45
11, 46480, Note_off_c, 6, 61, 64
11, 47520, Note_on_c, 6, 61, 45
11, 47920, Note_off_c, 6, 61, 64
11, 48960, Note_on_c, 6, 61, 62
11, 49360, Note_off_c, 6, 61, 64
11, 51360, Note_on_c, 6, 61, 92
11, 52680, Note_off_c, 6, 61, 64
11, 52800, Note_on_c, 6, 63, 92
11, 53280, Note_off_c, 6, 63, 64
11, 53280, Note_on_c, 6, 61, 92
11, 54600, Note_off_c, 6, 61, 64
11, 54720, Note_on_c, 6, 56, 92
11, 54800, Note_off_c, 6, 56, 64
11, 54960, Note_on_c, 6, 56, 92
11, 55360, Note_off_c, 6, 56, 64
11, 55440, Note_on_c, 6, 56, 92
11, 55840, Note_off_c, 6, 56, 64
11, 55920, Note_on_c, 6, 56, 92
11, 56000, Note_off_c, 6, 56, 64
11, 56160, Note_on_c, 6, 56, 92
11, 56240, Note_off_c, 6, 56, 64
11, 56400, Note_on_c, 6, 56, 92
11, 56800, Note_off_c, 6, 56, 64
11, 56880, Note_on_c, 6, 56, 92
11, 57280, Note_off_c, 6, 56, 64
11, 57360, Note_on_c, 6, 56, 92
11, 57440, Note_off_c, 6, 56, 64
11, 57600, Note_on_c, 6, 54, 75
11, 57680, Note_off_c, 6, 54, 64
11, 57840, Note_on_c, 6, 54, 75
11, 58240, Note_off_c, 6, 54, 64
11, 58320, Note_on_c, 6, 54, 75
11, 58720, Note_off_c, 6, 54, 64
11, 58800, Note_on_c, 6, 54, 75
11, 58880, Note_off_c, 6, 54, 64
11, 59040, Note_on_c, 6, 54, 75
11, 59120, Note_off_c, 6, 54, 64
11, 59280, Note_on_c, 6, 54, 75
11, 59680, Note_off_c, 6, 54, 64
11, 59760, Note_on_c, 6, 54, 75
11, 60160, Note_off_c, 6, 54, 64
11, 60240, Note_on_c, 6, 54, 75
11, 60320, Note_off_c, 6, 54, 64
11, 60480, Note_on_c, 6, 54, 60
11, 60560, Note_off_c, 6, 54, 64
11, 60720, Note_on_c, 6, 54, 60
11, 61120, Note_off_c, 6, 54, 64
11, 61200, Note_on_c, 6, 54, 60
11, 61600, Note_off_c, 6, 54, 64
11, 61680, Note_on_c, 6, 54, 60
11, 61760, Note_off_c, 6, 54, 64
11, 61920, Note_on_c, 6, 56, 60
11, 62000, Note_off_c, 6, 56, 64
11, 62160, Note_on_c, 6, 56, 60
11, 62560, Note_off_c, 6, 56, 64
11, 62640, Note_on_c, 6, 56, 60
11, 63040, Note_off_c, 6, 56, 64
11, 63120, Note_on_c, 6, 56, 60
11, 63200, Note_off_c, 6, 56, 64
11, 63360, Note_on_c, 6, 54, 45
11, 63440, Note_off_c, 6, 54, 64
11, 63600, Note_on_c, 6, 54, 45
11, 64000, Note_off_c, 6, 54, 64
11, 64080, Note_on_c, 6, 54, 45
11, 64480, Note_off_c, 6, 54, 64
11, 64560, Note_on_c, 6, 54, 45
11, 64640, Note_off_c, 6, 54, 64
11, 64800, Note_on_c, 6, 56, 45
11, 64880, Note_off_c, 6, 56, 64
11, 65040, Note_on_c, 6, 56, 45
11, 65440, Note_off_c, 6, 56, 64
11, 65520, Note_on_c, 6, 56, 45
11, 65920, Note_off_c, 6, 56, 64
11, 66000, Note_on_c, 6, 56, 45
11, 66080, Note_off_c, 6, 56, 64
11, 66240, Note_on_c, 6, 55, 60
11, 66320, Note_off_c, 6, 55, 64
11, 66480, Note_on_c, 6, 55, 60
11, 66880, Note_off_c, 6, 55, 64
11, 66960, Note_on_c, 6, 55, 60
11, 67360, Note_off_c, 6, 55, 64
11, 67440, Note_on_c, 6, 55, 60
11, 67520, Note_off_c, 6, 55, 64
11, 67680, Note_on_c, 6, 55, 45
11, 67760, Note_off_c, 6, 55, 64
11, 67920, Note_on_c, 6, 55, 45
11, 68320, Note_off_c, 6, 55, 64
11, 68400, Note_on_c, 6, 55, 45
11, 68800, Note_off_c, 6, 55, 64
11, 68880, Note_on_c, 6, 55, 45
11, 68960, Note_off_c, 6, 55, 64
11, 69120, Note_on_c, 6, 56, 75
11, 69200, Note_off_c, 6, 56, 64
11, 69360, Note_on_c, 6, 56, 75
11, 69760, Note_off_c, 6, 56, 64
11, 69840, Note_on_c, 6, 56, 75
11, 70240, Note_off_c, 6, 56, 64
11, 70320, Note_on_c, 6, 56, 75
11, 70400, Note_off_c, 6, 56, 64
11, 70560, Note_on_c, 6, 54, 45
11, 70640, Note_off_c, 6, 54, 64
11, 70800, Note_on_c, 6, 54, 45
11, 71200, Note_off_c, 6, 54, 64
11, 71280, Note_on_c, 6, 54, 45
11, 71680, Note_off_c, 6, 54, 64
11, 71760, Note_on_c, 6, 54, 45
11, 71840, Note_off_c, 6, 54, 64
11, 72000, Note_on_c, 6, 56, 92
11, 72400, Note_off_c, 6, 56, 64
11, 73440, Note_on_c, 6, 56, 92
11, 73840, Note_off_c, 6, 56, 64
11, 74880, Note_on_c, 6, 58, 92
11, 74960, Note_off_c, 6, 58, 64
11, 75120, Note_on_c, 6, 58, 92
11, 75520, Note_off_c, 6, 58, 64
11, 75600, Note_on_c, 6, 58, 92
11, 76000, Note_off_c, 6, 58, 64
11, 76080, Note_on_c, 6, 58, 92
11, 76160, Note_off_c, 6, 58, 64
11, 76320, Note_on_c, 6, 58, 60
11, 76400, Note_off_c, 6, 58, 64
11, 76560, Note_on_c, 6, 58, 60
11, 76960, Note_off_c, 6, 58, 64
11, 77040, Note_on_c, 6, 58, 60
11, 77440, Note_off_c, 6, 58, 64
11, 77520, Note_on_c, 6, 58, 60
11, 77600, Note_off_c, 6, 58, 64
11, 77760, Note_on_c, 6, 59, 92
11, 78160, Note_off_c, 6, 59, 64
11, 79200, Note_on_c, 6, 59, 75
11, 79600, Note_off_c, 6, 59, 64
11, 80640, Note_on_c, 6, 59, 92
11, 82080, Note_off_c, 6, 59, 64
11, 82080, Note_on_c, 6, 59, 45
11, 83400, Note_off_c, 6, 59, 64
11, 83520, Note_on_c, 6, 61, 92
11, 84235, Note_off_c, 6, 61, 64
11, 84240, Note_on_c, 6, 59, 92
11, 84480, Note_off_c, 6, 59, 64
11, 84480, Note_on_c, 6, 61, 92
11, 84720, Note_off_c, 6, 61, 64
11, 84720, Note_on_c, 6, 59, 92
11, 84960, Note_off_c, 6, 59, 64
11, 84960, Note_on_c, 6, 61, 92
11, 85920, Note_off_c, 6, 61, 64
11, 85920, Note_on_c, 6, 59, 92
11, 86320, Note_off_c, 6, 59, 64
11, 86400, Note_on_c, 6, 61, 60
11, 87115, Note_off_c, 6, 61, 64
11, 87120, Note_on_c, 6, 59, 60
11, 87360, Note_off_c, 6, 59, 64
11, 87360, Note_on_c, 6, 61, 60
11, 87600, Note_off_c, 6, 61, 64
11, 87600, Note_on_c, 6, 59, 60
11, 87840, Note_off_c, 6, 59, 64
11, 87840, Note_on_c, 6, 61, 60
11, 88800, Note_off_c, 6, 61, 64
11, 88800, Note_on_c, 6, 59, 60
11, 89200, Note_off_c, 6, 59, 64
11, 89280, Note_on_c, 6, 61, 92
11, 90240, Note_off_c, 6, 61, 64
11, 90240, Note_on_c, 6, 62, 92
11, 90720, Note_off_c, 6, 62, 64
11, 90720, Note_on_c, 6, 57, 92
11, 91560, Note_off_c, 6, 57, 64
11, 91680, Note_on_c, 6, 56, 92
11, 92080, Note_off_c, 6, 56, 64
11, 92160, Note_on_c, 6, 61, 75
11, 92875, Note_off_c, 6, 61, 64
11, 92880, Note_on_c, 6, 59, 75
11, 93120, Note_off_c, 6, 59, 64
11, 93120, Note_on_c, 6, 61, 75
11, 93360, Note_off_c, 6, 61, 64
11, 93360, Note_on_c, 6, 59, 75
11, 93600, Note_off_c, 6, 59, 64
11, 93600, Note_on_c, 6, 57, 75
11, 94560, Note_off_c, 6, 57, 64
11, 94560, Note_on_c, 6, 56, 75
11, 94960, Note_off_c, 6, 56, 64
11, 95040, Note_on_c, 6, 57, 108
11, 95275, Note_off_c, 6, 57, 64
11, 95280, Note_on_c, 6, 57, 108
11, 95680, Note_off_c, 6, 57, 64
11, 95760, Note_on_c, 6, 57, 108
11, 96160, Note_off_c, 6, 57, 64
11, 96240, Note_on_c, 6, 57, 108
11, 96320, Note_off_c, 6, 57, 64
11, 96480, Note_on_c, 6, 57, 108
11, 96560, Note_off_c, 6, 57, 64
11, 96720, Note_on_c, 6, 57, 108
11, 97120, Note_off_c, 6, 57, 64
11, 97200, Note_on_c, 6, 57, 108
11, 97600, Note_off_c, 6, 57, 64
11, 97680, Note_on_c, 6, 57, 108
11, 97760, Note_off_c, 6, 57, 64
11, 97920, Note_on_c, 6, 61, 108
11, 98000, Note_off_c, 6, 61, 64
11, 98160, Note_on_c, 6, 61, 108
11, 98560, Note_off_c, 6, 61, 64
11, 98640, Note_on_c, 6, 61, 108
11, 99040, Note_off_c, 6, 61, 64
11, 99120, Note_on_c, 6, 61, 108
11, 99200, Note_off_c, 6, 61, 64
11, 99360, Note_on_c, 6, 62, 108
11, 99440, Note_off_c, 6, 62, 64
11, 99600, Note_on_c, 6, 62, 108
11, 100000, Note_off_c, 6, 62, 64
11, 100080, Note_on_c, 6, 62, 108
11, 100480, Note_off_c, 6, 62, 64
11, 100560, Note_on_c, 6, 62, 108
11, 100640, Note_off_c, 6, 62, 64
11, 100800, Note_on_c, 6, 62, 108
11, 100880, Note_off_c, 6, 62, 64
11, 101040, Note_on_c, 6, 62, 108
11, 101440, Note_off_c, 6, 62, 64
11, 101520, Note_on_c, 6, 62, 108
11, 101920, Note_off_c, 6, 62, 64
11, 102000, Note_on_c, 6, 62, 108
11, 102080, Note_off_c, 6, 62, 64
11, 102240, Note_on_c, 6, 61, 92
11, 102320, Note_off_c, 6, 61, 64
11, 102480, Note_on_c, 6, 61, 92
11, 102880, Note_off_c, 6, 61, 64
11, 102960, Note_on_c, 6, 61, 92
11, 103360, Note_off_c, 6, 61, 64
11, 103440, Note_on_c, 6, 61, 92
11, 103520, Note_off_c, 6, 61, 64
11, 103680, Note_on_c, 6, 62, 92
11, 103760, Note_off_c, 6, 62, 64
11, 103920, Note_on_c, 6, 62, 92
11, 104320, Note_off_c, 6, 62, 64
11, 104400, Note_on_c, 6, 62, 92
11, 104800, Note_off_c, 6, 62, 64
11, 104880, Note_on_c, 6, 62, 92
11, 104960, Note_off_c, 6, 62, 64
11, 105120, Note_on_c, 6, 62, 92
11, 105200, Note_off_c, 6, 62, 64
11, 105360, Note_on_c, 6, 62, 90
11, 105760, Note_off_c, 6, 62, 64
11, 105840, Note_on_c, 6, 62, 85
11, 106240, Note_off_c, 6, 62, 64
11, 106320, Note_on_c, 6, 62, 80
11, 106400, Note_off_c, 6, 62, 64
11, 106560, Note_on_c, 6, 61, 78
11, 106640, Note_off_c, 6, 61, 64
11, 106800, Note_on_c, 6, 61, 75
11, 107200, Note_off_c, 6, 61, 64
11, 107280, Note_on_c, 6, 61, 69
11, 107680, Note_off_c, 6, 61, 64
11, 107760, Note_on_c, 6, 61, 63
11, 107840, Note_off_c, 6, 61, 64
11, 108000, Note_on_c, 6, 61, 60
11, 108080, Note_off_c, 6, 61, 64
11, 108240, Note_on_c, 6, 61, 60
11, 108640, Note_off_c, 6, 61, 64
11, 108720, Note_on_c, 6, 61, 60
11, 109120, Note_off_c, 6, 61, 64
11, 109200, Note_on_c, 6, 61, 60
11, 109280, Note_off_c, 6, 61, 64
11, 109440, Note_on_c, 6, 62, 60
11, 109520, Note_off_c, 6, 62, 64
11, 109680, Note_on_c, 6, 62, 60
11, 110080, Note_off_c, 6, 62, 64
11, 110160, Note_on_c, 6, 62, 60
11, 110560, Note_off_c, 6, 62, 64
11, 110640, Note_on_c, 6, 62, 60
11, 110720, Note_off_c, 6, 62, 64
11, 110880, Note_on_c, 6, 64, 45
11, 110960, Note_off_c, 6, 64, 64
11, 111120, Note_on_c, 6, 64, 45
11, 111520, Note_off_c, 6, 64, 64
11, 111600, Note_on_c, 6, 64, 45
11, 112000, Note_off_c, 6, 64, 64
11, 112080, Note_on_c, 6, 64, 45
11, 112160, Note_off_c, 6, 64, 64
11, 112320, Note_on_c, 6, 57, 60
11, 112720, Note_off_c, 6, 57, 64
11, 113760, Note_on_c, 6, 57, 68
11, 114160, Note_off_c, 6, 57, 64
11, 115200, Note_on_c, 6, 57, 77
11, 115600, Note_off_c, 6, 57, 64
11, 117600, Note_on_c, 6, 54, 92
11, 118080, Note_off_c, 6, 54, 64
11, 118080, Note_on_c, 6, 47, 45
11, 118480, Note_off_c, 6, 47, 64
11, 119520, Note_on_c, 6, 47, 57
11, 119920, Note_off_c, 6, 47, 64
11, 120960, Note_on_c, 6, 47, 69
11, 121360, Note_off_c, 6, 47, 64
11, 123360, Note_on_c, 6, 44, 127
11, 123760, Note_off_c, 6, 44, 64
11, 123840, Note_on_c, 6, 41, 127
11, 124240, Note_off_c, 6, 41, 64
11, 124320, Note_on_c, 6, 44, 127
11, 124720, Note_off_c, 6, 44, 64
11, 124800, Note_on_c, 6, 47, 127
11, 125200, Note_off_c, 6, 47, 64
11, 125280, Note_on_c, 6, 42, 127
11, 125680, Note_off_c, 6, 42, 64
11, 125760, Note_on_c, 6, 45, 127
11, 126160, Note_off_c, 6, 45, 64
11, 126240, Note_on_c, 6, 49, 127
11, 126640, Note_off_c, 6, 49, 64
11, 126720, Note_on_c, 6, 47, 127
11, 128040, Note_off_c, 6, 47, 64
11, 128160, Note_on_c, 6, 56, 45
11, 128240, Note_off_c, 6, 56, 64
11, 128400, Note_on_c, 6, 56, 45
11, 128800, Note_off_c, 6, 56, 64
11, 128880, Note_on_c, 6, 56, 45
11, 129280, Note_off_c, 6, 56, 64
11, 129360, Note_on_c, 6, 56, 45
11, 129440, Note_off_c, 6, 56, 64
11, 129600, Note_on_c, 6, 56, 45
11, 129680, Note_off_c, 6, 56, 64
11, 129840, Note_on_c, 6, 56, 47
11, 130240, Note_off_c, 6, 56, 64
11, 130320, Note_on_c, 6, 56, 52
11, 130720, Note_off_c, 6, 56, 64
11, 130800, Note_on_c, 6, 56, 57
11, 130880, Note_off_c, 6, 56, 64
11, 131040, Note_on_c, 6, 56, 59
11, 131120, Note_off_c, 6, 56, 64
11, 131280, Note_on_c, 6, 56, 61
11, 131680, Note_off_c, 6, 56, 64
11, 131760, Note_on_c, 6, 56, 66
11, 132160, Note_off_c, 6, 56, 64
11, 132240, Note_on_c, 6, 56, 72
11, 132320, Note_off_c, 6, 56, 64
11, 132480, Note_on_c, 6, 56, 75
11, 132560, Note_off_c, 6, 56, 64
11, 132720, Note_on_c, 6, 56, 75
11, 133120, Note_off_c, 6, 56, 64
11, 133200, Note_on_c, 6, 56, 75
11, 133435, Note_off_c, 6, 56, 64
11, 133440, Note_on_c, 6, 49, 105
11, 133840, Note_off_c, 6, 49, 64
11, 133920, Note_on_c, 6, 42, 105
11, 134320, Note_off_c, 6, 42, 64
11, 134400, Note_on_c, 6, 45, 105
11, 134800, Note_off_c, 6, 45, 64
11, 134880, Note_on_c, 6, 49, 105
11, 135280, Note_off_c, 6, 49, 64
11, 135360, Note_on_c, 6, 47, 84
11, 135760, Note_off_c, 6, 47, 64
11, 135840, Note_on_c, 6, 44, 84
11, 136240, Note_off_c, 6, 44, 64
11, 136320, Note_on_c, 6, 42, 84
11, 136720, Note_off_c, 6, 42, 64
11, 136800, Note_on_c, 6, 44, 84
11, 137200, Note_off_c, 6, 44, 64
11, 137280, Note_on_c, 6, 41, 84
11, 137680, Note_off_c, 6, 41, 64
11, 137760, Note_on_c, 6, 42, 84
11, 138160, Note_off_c, 6, 42, 64
11, 138240, Note_on_c, 6, 49, 45
11, 139560, Note_off_c, 6, 49, 64
11, 139680, Note_on_c, 6, 49, 45
11, 141000, Note_off_c, 6, 49, 64
11, 141120, Note_on_c, 6, 54, 45
11, 141200, Note_off_c, 6, 54, 64
11, 141360, Note_on_c, 6, 54, 45
11, 141760, Note_off_c, 6, 54, 64
11, 141840, Note_on_c, 6, 54, 45
11, 142240, Note_off_c, 6, 54, 64
11, 142320, Note_on_c, 6, 54, 45
11, 142400, Note_off_c, 6, 54, 64
11, 142560, Note_on_c, 6, 56, 45
11, 142640, Note_off_c, 6, 56, 64
11, 142800, Note_on_c, 6, 56, 48
11, 143200, Note_off_c, 6, 56, 64
11, 143280, Note_on_c, 6, 56, 56
11, 143680, Note_off_c, 6, 56, 64
11, 143760, Note_on_c, 6, 56, 64
11, 143840, Note_off_c, 6, 56, 64
11, 144000, Note_on_c, 6, 57, 68
11, 144080, Note_off_c, 6, 57, 64
11, 144240, Note_on_c, 6, 57, 72
11, 144640, Note_off_c, 6, 57, 64
11, 144720, Note_on_c, 6, 57, 80
11, 145120, Note_off_c, 6, 57, 64
11, 145200, Note_on_c, 6, 57, 88
11, 145280, Note_off_c, 6, 57, 64
11, 145440, Note_on_c, 6, 56, 92
11, 150160, Note_off_c, 6, 56, 64
11, 150240, Note_on_c, 6, 49, 108
11, 150480, Note_off_c, 6, 49, 64
11, 150480, Note_on_c, 6, 51, 108
11, 150720, Note_off_c, 6, 51, 64
11, 150720, Note_on_c, 6, 53, 108
11, 151120, Note_off_c, 6, 53, 64
11, 151200, Note_on_c, 6, 54, 127
11, 151600, Note_off_c, 6, 54, 64
11, 151680, Note_on_c, 6, 42, 108
11, 151920, Note_off_c, 6, 42, 64
11, 151920, Note_on_c, 6, 44, 108
11, 152160, Note_off_c, 6, 44, 64
11, 152160, Note_on_c, 6, 45, 108
11, 152560, Note_off_c, 6, 45, 64
11, 152640, Note_on_c, 6, 53, 84
11, 153040, Note_off_c, 6, 53, 64
11, 153120, Note_on_c, 6, 49, 84
11, 153520, Note_off_c, 6, 49, 64
11, 153600, Note_on_c, 6, 54, 84
11, 154000, Note_off_c, 6, 54, 64
11, 154080, Note_on_c, 6, 54, 84
11, 154480, Note_off_c, 6, 54, 64
11, 154560, Note_on_c, 6, 49, 84
11, 154960, Note_off_c, 6, 49, 64
11, 155040, Note_on_c, 6, 49, 84
11, 155440, Note_off_c, 6, 49, 64
11, 155520, Note_on_c, 6, 42, 45
11, 158400, Note_off_c, 6, 42, 64
11, 158400, Note_on_c, 6, 40, 45
11, 159840, Note_off_c, 6, 40, 64
11, 159840, Note_on_c, 6, 42, 45
11, 161280, Note_off_c, 6, 42, 64
11, 161280, Note_on_c, 6, 47, 45
11, 162600, Note_off_c, 6, 47, 64
11, 162720, Note_on_c, 6, 47, 45
11, 164160, Note_off_c, 6, 47, 64
11, 164160, Note_on_c, 6, 45, 45
11, 164560, Note_off_c, 6, 45, 64
11, 164640, Note_on_c, 6, 49, 63
11, 165040, Note_off_c, 6, 49, 64
11, 165120, Note_on_c, 6, 52, 63
11, 165520, Note_off_c, 6, 52, 64
11, 165600, Note_on_c, 6, 45, 45
11, 167040, Note_off_c, 6, 45, 64
11, 167040, Note_on_c, 6, 47, 45
11, 167440, Note_off_c, 6, 47, 64
11, 167520, Note_on_c, 6, 51, 63
11, 167920, Note_off_c, 6, 51, 64
11, 168000, Note_on_c, 6, 54, 63
11, 168400, Note_off_c, 6, 54, 64
11, 168480, Note_on_c, 6, 52, 45
11, 169800, Note_off_c, 6, 52, 64
11, 169920, Note_on_c, 6, 57, 45
11, 171240, Note_off_c, 6, 57, 64
11, 171360, Note_on_c, 6, 59, 48
11, 172680, Note_off_c, 6, 59, 64
11, 172800, Note_on_c, 6, 52, 52
11, 174120, Note_off_c, 6, 52, 64
11, 174240, Note_on_c, 6, 54, 56
11, 175560, Note_off_c, 6, 54, 64
11, 175680, Note_on_c, 6, 47, 60
11, 176080, Note_off_c, 6, 47, 64
11, 176160, Note_on_c, 6, 51, 60
11, 176560, Note_off_c, 6, 51, 64
11, 176640, Note_on_c, 6, 42, 60
11, 177040, Note_off_c, 6, 42, 64
11, 177120, Note_on_c, 6, 51, 60
11, 177520, Note_off_c, 6, 51, 64
11, 177600, Note_on_c, 6, 54, 60
11, 178000, Note_off_c, 6, 54, 64
11, 178080, Note_on_c, 6, 47, 60
11, 178480, Note_off_c, 6, 47, 64
11, 178560, Note_on_c, 6, 47, 60
11, 179400, Note_off_c, 6, 47, 64
11, 179520, Note_on_c, 6, 45, 60
11, 179920, Note_off_c, 6, 45, 64
11, 180000, Note_on_c, 6, 45, 60
11, 180400, Note_off_c, 6, 45, 64
11, 180480, Note_on_c, 6, 49, 60
11, 180880, Note_off_c, 6, 49, 64
11, 180960, Note_on_c, 6, 52, 60
11, 181360, Note_off_c, 6, 52, 64
11, 181440, Note_on_c, 6, 52, 60
11, 181840, Note_off_c, 6, 52, 64
11, 181920, Note_on_c, 6, 47, 60
11, 182320, Note_off_c, 6, 47, 64
11, 182400, Note_on_c, 6, 44, 60
11, 182800, Note_off_c, 6, 44, 64
11, 182880, Note_on_c, 6, 47, 60
11, 183280, Note_off_c, 6, 47, 64
11, 183360, Note_on_c, 6, 51, 69
11, 183760, Note_off_c, 6, 51, 64
11, 183840, Note_on_c, 6, 42, 78
11, 184240, Note_off_c, 6, 42, 64
11, 184320, Note_on_c, 6, 44, 88
11, 184720, Note_off_c, 6, 44, 64
11, 184800, Note_on_c, 6, 44, 98
11, 185040, Note_off_c, 6, 44, 64
11, 185040, Note_on_c, 6, 45, 103
11, 185280, Note_off_c, 6, 45, 64
11, 185280, Note_on_c, 6, 47, 108
11, 185680, Note_off_c, 6, 47, 64
11, 185760, Note_on_c, 6, 40, 75
11, 187080, Note_off_c, 6, 40, 64
11, 187200, Note_on_c, 6, 45, 75
11, 188520, Note_off_c, 6, 45, 64
11, 188640, Note_on_c, 6, 40, 75
11, 189960, Note_off_c, 6, 40, 64
11, 190080, Note_on_c, 6, 45, 75
11, 190480, Note_off_c, 6, 45, 64
11, 190560, Note_on_c, 6, 54, 80
11, 190795, Note_off_c, 6, 54, 64
11, 190800, Note_on_c, 6, 52, 83
11, 191035, Note_off_c, 6, 52, 64
11, 191040, Note_on_c, 6, 51, 86
11, 191275, Note_off_c, 6, 51, 64
11, 191280, Note_on_c, 6, 49, 89
11, 191515, Note_off_c, 6, 49, 64
11, 191520, Note_on_c, 6, 47, 92
11, 192480, Note_off_c, 6, 47, 64
11, 192480, Note_on_c, 6, 40, 92
11, 192880, Note_off_c, 6, 40, 64
11, 192960, Note_on_c, 6, 45, 92
11, 193360, Note_off_c, 6, 45, 64
11, 193440, Note_on_c, 6, 47, 92
11, 193840, Note_off_c, 6, 47, 64
11, 193920, Note_on_c, 6, 35, 92
11, 194320, Note_off_c, 6, 35, 64
11, 194400, Note_on_c, 6, 40, 92
11, 194800, Note_off_c, 6, 40, 64
11, 194880, Note_on_c, 6, 44, 94
11, 195280, Note_off_c, 6, 44, 64
11, 195360, Note_on_c, 6, 47, 96
11, 195760, Note_off_c, 6, 47, 64
11, 195840, Note_on_c, 6, 40, 99
11, 196240, Note_off_c, 6, 40, 64
11, 196320, Note_on_c, 6, 44, 102
11, 196720, Note_off_c, 6, 44, 64
11, 196800, Note_on_c, 6, 47, 105
11, 197200, Note_off_c, 6, 47, 64
11, 197280, Note_on_c, 6, 40, 108
11, 199195, Note_off_c, 6, 40, 64
11, 199195, End_track
12, 0, Start_track
12, 0, MIDI_port, 0
12, 0, Channel_prefix, 7
12, 0, Control_c, 7, 7, 99
12, 0, Control_c, 7, 10, 127
12, 0, Control_c, 7, 91, 51
12, 0, Program_c, 7, 58
12, 0, Note_on_c, 7, 40, 92
12, 400, Note_off_c, 7, 40, 64
12, 1440, Note_on_c, 7, 40, 92
12, 1840, Note_off_c, 7, 40, 64
12, 2880, Note_on_c, 7, 40, 92
12, 4720, Note_off_c, 7, 40, 64
12, 4800, Note_on_c, 7, 44, 92
12, 5200, Note_off_c, 7, 44, 64
12, 5280, Note_on_c, 7, 47, 92
12, 5680, Note_off_c, 7, 47, 64
12, 5760, Note_on_c, 7, 40, 45
12, 7600, Note_off_c, 7, 40, 64
12, 7680, Note_on_c, 7, 44, 45
12, 8080, Note_off_c, 7, 44, 64
12, 8160, Note_on_c, 7, 47, 45
12, 8560, Note_off_c, 7, 47, 64
12, 8640, Note_on_c, 7, 40, 45
12, 13800, Note_off_c, 7, 40, 64
12, 13920, Note_on_c, 7, 47, 92
12, 14320, Note_off_c, 7, 47, 64
12, 14400, Note_on_c, 7, 40, 45
12, 16680, Note_off_c, 7, 40, 64
12, 16800, Note_on_c, 7, 47, 45
12, 17200, Note_off_c, 7, 47, 64
12, 17280, Note_on_c, 7, 40, 75
12, 20160, Note_off_c, 7, 40, 64
12, 20160, Note_on_c, 7, 40, 45
12, 23040, Note_off_c, 7, 40, 64
12, 23040, Note_on_c, 7, 40, 60
12, 27240, Note_off_c, 7, 40, 64
12, 27360, Note_on_c, 7, 33, 60
12, 28680, Note_off_c, 7, 33, 64
12, 28800, Note_on_c, 7, 40, 75
12, 30240, Note_off_c, 7, 40, 64
12, 30240, Note_on_c, 7, 40, 75
12, 31560, Note_off_c, 7, 40, 64
12, 31680, Note_on_c, 7, 40, 45
12, 33120, Note_off_c, 7, 40, 64
12, 33120, Note_on_c, 7, 42, 45
12, 34560, Note_off_c, 7, 42, 64
12, 34560, Note_on_c, 7, 40, 45
12, 37440, Note_off_c, 7, 40, 64
12, 37440, Note_on_c, 7, 42, 45
12, 38880, Note_off_c, 7, 42, 64
12, 38880, Note_on_c, 7, 35, 45
12, 39280, Note_off_c, 7, 35, 64
12, 39360, Note_on_c, 7, 39, 45
12, 39760, Note_off_c, 7, 39, 64
12, 39840, Note_on_c, 7, 42, 45
12, 40240, Note_off_c, 7, 42, 64
12, 40320, Note_on_c, 7, 40, 75
12, 40720, Note_off_c, 7, 40, 64
12, 41760, Note_on_c, 7, 40, 78
12, 42160, Note_off_c, 7, 40, 64
12, 43200, Note_on_c, 7, 40, 82
12, 43600, Note_off_c, 7, 40, 64
12, 45600, Note_on_c, 7, 37, 92
12, 46080, Note_off_c, 7, 37, 64
12, 46080, Note_on_c, 7, 37, 45
12, 46480, Note_off_c, 7, 37, 64
12, 47520, Note_on_c, 7, 37, 45
12, 47920, Note_off_c, 7, 37, 64
12, 48960, Note_on_c, 7, 37, 62
12, 49360, Note_off_c, 7, 37, 64
12, 51360, Note_on_c, 7, 37, 92
12, 51840, Note_off_c, 7, 37, 64
12, 51840, Note_on_c, 7, 42, 92
12, 52680, Note_off_c, 7, 42, 64
12, 52800, Note_on_c, 7, 44, 92
12, 53280, Note_off_c, 7, 44, 64
12, 53280, Note_on_c, 7, 37, 92
12, 54600, Note_off_c, 7, 37, 64
12, 54720, Note_on_c, 7, 32, 92
12, 57480, Note_off_c, 7, 32, 64
12, 57600, Note_on_c, 7, 32, 75
12, 59440, Note_off_c, 7, 32, 64
12, 59520, Note_on_c, 7, 36, 75
12, 59920, Note_off_c, 7, 36, 64
12, 60000, Note_on_c, 7, 39, 75
12, 60400, Note_off_c, 7, 39, 64
12, 60480, Note_on_c, 7, 32, 60
12, 61920, Note_off_c, 7, 32, 64
12, 61920, Note_on_c, 7, 37, 60
12, 63240, Note_off_c, 7, 37, 64
12, 63360, Note_on_c, 7, 32, 45
12, 64800, Note_off_c, 7, 32, 64
12, 64800, Note_on_c, 7, 37, 45
12, 66120, Note_off_c, 7, 37, 64
12, 66240, Note_on_c, 7, 37, 60
12, 67680, Note_off_c, 7, 37, 64
12, 67680, Note_on_c, 7, 37, 45
12, 69120, Note_off_c, 7, 37, 64
12, 69120, Note_on_c, 7, 37, 75
12, 70560, Note_off_c, 7, 37, 64
12, 70560, Note_on_c, 7, 32, 45
12, 70960, Note_off_c, 7, 32, 64
12, 71040, Note_on_c, 7, 39, 45
12, 71440, Note_off_c, 7, 39, 64
12, 71520, Note_on_c, 7, 36, 45
12, 71920, Note_off_c, 7, 36, 64
12, 72000, Note_on_c, 7, 37, 92
12, 72400, Note_off_c, 7, 37, 64
12, 73440, Note_on_c, 7, 37, 92
12, 73840, Note_off_c, 7, 37, 64
12, 74880, Note_on_c, 7, 42, 92
12, 76320, Note_off_c, 7, 42, 64
12, 76320, Note_on_c, 7, 42, 60
12, 76720, Note_off_c, 7, 42, 64
12, 76800, Note_on_c, 7, 49, 60
12, 77200, Note_off_c, 7, 49, 64
12, 77280, Note_on_c, 7, 46, 60
12, 77680, Note_off_c, 7, 46, 64
12, 77760, Note_on_c, 7, 35, 92
12, 78160, Note_off_c, 7, 35, 64
12, 79200, Note_on_c, 7, 35, 75
12, 79600, Note_off_c, 7, 35, 64
12, 80640, Note_on_c, 7, 28, 92
12, 82080, Note_off_c, 7, 28, 64
12, 82080, Note_on_c, 7, 40, 45
12, 83400, Note_off_c, 7, 40, 64
12, 83520, Note_on_c, 7, 33, 92
12, 85360, Note_off_c, 7, 33, 64
12, 85440, Note_on_c, 7, 37, 92
12, 85840, Note_off_c, 7, 37, 64
12, 85920, Note_on_c, 7, 40, 92
12, 86320, Note_off_c, 7, 40, 64
12, 86400, Note_on_c, 7, 33, 60
12, 88240, Note_off_c, 7, 33, 64
12, 88320, Note_on_c, 7, 37, 60
12, 88720, Note_off_c, 7, 37, 64
12, 88800, Note_on_c, 7, 40, 60
12, 89200, Note_off_c, 7, 40, 64
12, 89280, Note_on_c, 7, 33, 92
12, 91560, Note_off_c, 7, 33, 64
12, 91680, Note_on_c, 7, 40, 92
12, 92080, Note_off_c, 7, 40, 64
12, 92160, Note_on_c, 7, 33, 60
12, 94440, Note_off_c, 7, 33, 64
12, 94560, Note_on_c, 7, 40, 60
12, 94960, Note_off_c, 7, 40, 64
12, 95040, Note_on_c, 7, 45, 108
12, 96480, Note_off_c, 7, 45, 64
12, 96480, Note_on_c, 7, 44, 108
12, 97920, Note_off_c, 7, 44, 64
12, 97920, Note_on_c, 7, 43, 108
12, 99360, Note_off_c, 7, 43, 64
12, 99360, Note_on_c, 7, 42, 108
12, 100800, Note_off_c, 7, 42, 64
12, 100800, Note_on_c, 7, 40, 108
12, 102120, Note_off_c, 7, 40, 64
12, 102240, Note_on_c, 7, 45, 92
12, 103680, Note_off_c, 7, 45, 64
12, 103680, Note_on_c, 7, 38, 92
12, 105120, Note_off_c, 7, 38, 64
12, 105120, Note_on_c, 7, 38, 92
12, 106560, Note_off_c, 7, 38, 64
12, 106560, Note_on_c, 7, 40, 76
12, 108000, Note_off_c, 7, 40, 64
12, 108000, Note_on_c, 7, 45, 60
12, 109440, Note_off_c, 7, 45, 64
12, 109440, Note_on_c, 7, 47, 60
12, 110880, Note_off_c, 7, 47, 64
12, 110880, Note_on_c, 7, 40, 45
12, 112320, Note_off_c, 7, 40, 64
12, 112320, Note_on_c, 7, 33, 60
12, 112720, Note_off_c, 7, 33, 64
12, 113760, Note_on_c, 7, 33, 68
12, 114160, Note_off_c, 7, 33, 64
12, 115200, Note_on_c, 7, 33, 77
12, 115600, Note_off_c, 7, 33, 64
12, 117600, Note_on_c, 7, 30, 92
12, 118080, Note_off_c, 7, 30, 64
12, 118080, Note_on_c, 7, 35, 45
12, 118480, Note_off_c, 7, 35, 64
12, 119520, Note_on_c, 7, 47, 57
12, 119920, Note_off_c, 7, 47, 64
12, 120960, Note_on_c, 7, 47, 69
12, 121360, Note_off_c, 7, 47, 64
12, 123360, Note_on_c, 7, 32, 92
12, 123840, Note_off_c, 7, 32, 64
12, 123840, Note_on_c, 7, 29, 92
12, 124240, Note_off_c, 7, 29, 64
12, 124320, Note_on_c, 7, 32, 92
12, 124720, Note_off_c, 7, 32, 64
12, 124800, Note_on_c, 7, 35, 92
12, 125200, Note_off_c, 7, 35, 64
12, 125280, Note_on_c, 7, 30, 92
12, 125680, Note_off_c, 7, 30, 64
12, 125760, Note_on_c, 7, 33, 92
12, 126160, Note_off_c, 7, 33, 64
12, 126240, Note_on_c, 7, 37, 92
12, 126640, Note_off_c, 7, 37, 64
12, 126720, Note_on_c, 7, 35, 92
12, 128040, Note_off_c, 7, 35, 64
12, 128160, Note_on_c, 7, 37, 45
12, 129600, Note_off_c, 7, 37, 64
12, 129600, Note_on_c, 7, 37, 45
12, 131040, Note_off_c, 7, 37, 64
12, 131040, Note_on_c, 7, 37, 60
12, 132360, Note_off_c, 7, 37, 64
12, 132480, Note_on_c, 7, 37, 75
12, 133320, Note_off_c, 7, 37, 64
12, 133440, Note_on_c, 7, 37, 92
12, 133840, Note_off_c, 7, 37, 64
12, 133920, Note_on_c, 7, 42, 92
12, 134320, Note_off_c, 7, 42, 64
12, 134400, Note_on_c, 7, 45, 92
12, 134800, Note_off_c, 7, 45, 64
12, 134880, Note_on_c, 7, 49, 92
12, 135280, Note_off_c, 7, 49, 64
12, 135360, Note_on_c, 7, 35, 60
12, 135760, Note_off_c, 7, 35, 64
12, 135840, Note_on_c, 7, 44, 60
12, 136240, Note_off_c, 7, 44, 64
12, 136320, Note_on_c, 7, 42, 60
12, 136720, Note_off_c, 7, 42, 64
12, 136800, Note_on_c, 7, 44, 60
12, 137200, Note_off_c, 7, 44, 64
12, 137280, Note_on_c, 7, 41, 60
12, 137680, Note_off_c, 7, 41, 64
12, 137760, Note_on_c, 7, 42, 60
12, 138160, Note_off_c, 7, 42, 64
12, 138240, Note_on_c, 7, 37, 45
12, 139560, Note_off_c, 7, 37, 64
12, 139680, Note_on_c, 7, 37, 45
12, 141000, Note_off_c, 7, 37, 64
12, 141120, Note_on_c, 7, 42, 45
12, 142560, Note_off_c, 7, 42, 64
12, 142560, Note_on_c, 7, 37, 45
12, 144000, Note_off_c, 7, 37, 64
12, 144000, Note_on_c, 7, 42, 68
12, 145320, Note_off_c, 7, 42, 64
12, 145440, Note_on_c, 7, 37, 92
12, 150160, Note_off_c, 7, 37, 64
12, 150240, Note_on_c, 7, 37, 108
12, 150480, Note_off_c, 7, 37, 64
12, 150480, Note_on_c, 7, 39, 108
12, 150720, Note_off_c, 7, 39, 64
12, 150720, Note_on_c, 7, 41, 108
12, 151120, Note_off_c, 7, 41, 64
12, 151200, Note_on_c, 7, 42, 108
12, 151600, Note_off_c, 7, 42, 64
12, 151680, Note_on_c, 7, 30, 108
12, 151920, Note_off_c, 7, 30, 64
12, 151920, Note_on_c, 7, 32, 108
12, 152160, Note_off_c, 7, 32, 64
12, 152160, Note_on_c, 7, 33, 108
12, 152560, Note_off_c, 7, 33, 64
12, 152640, Note_on_c, 7, 41, 60
12, 153040, Note_off_c, 7, 41, 64
12, 153120, Note_on_c, 7, 37, 60
12, 153520, Note_off_c, 7, 37, 64
12, 153600, Note_on_c, 7, 42, 60
12, 154000, Note_off_c, 7, 42, 64
12, 154080, Note_on_c, 7, 42, 60
12, 154480, Note_off_c, 7, 42, 64
12, 154560, Note_on_c, 7, 37, 60
12, 154960, Note_off_c, 7, 37, 64
12, 155040, Note_on_c, 7, 37, 60
12, 155440, Note_off_c, 7, 37, 64
12, 155520, Note_on_c, 7, 42, 45
12, 158400, Note_off_c, 7, 42, 64
12, 158400, Note_on_c, 7, 40, 45
12, 159840, Note_off_c, 7, 40, 64
12, 159840, Note_on_c, 7, 42, 45
12, 161280, Note_off_c, 7, 42, 64
12, 161280, Note_on_c, 7, 35, 45
12, 162600, Note_off_c, 7, 35, 64
12, 162720, Note_on_c, 7, 35, 45
12, 164040, Note_off_c, 7, 35, 64
12, 164160, Note_on_c, 7, 33, 45
12, 164560, Note_off_c, 7, 33, 64
12, 164640, Note_on_c, 7, 37, 45
12, 165040, Note_off_c, 7, 37, 64
12, 165120, Note_on_c, 7, 40, 45
12, 165520, Note_off_c, 7, 40, 64
12, 165600, Note_on_c, 7, 33, 45
12, 167040, Note_off_c, 7, 33, 64
12, 167040, Note_on_c, 7, 35, 45
12, 167440, Note_off_c, 7, 35, 64
12, 167520, Note_on_c, 7, 39, 45
12, 167920, Note_off_c, 7, 39, 64
12, 168000, Note_on_c, 7, 42, 45
12, 168400, Note_off_c, 7, 42, 64
12, 168480, Note_on_c, 7, 40, 45
12, 169800, Note_off_c, 7, 40, 64
12, 169920, Note_on_c, 7, 45, 45
12, 171240, Note_off_c, 7, 45, 64
12, 171360, Note_on_c, 7, 47, 48
12, 172680, Note_off_c, 7, 47, 64
12, 172800, Note_on_c, 7, 40, 52
12, 174120, Note_off_c, 7, 40, 64
12, 174240, Note_on_c, 7, 42, 56
12, 175560, Note_off_c, 7, 42, 64
12, 175680, Note_on_c, 7, 35, 60
12, 176080, Note_off_c, 7, 35, 64
12, 176160, Note_on_c, 7, 39, 60
12, 176560, Note_off_c, 7, 39, 64
12, 176640, Note_on_c, 7, 42, 60
12, 177040, Note_off_c, 7, 42, 64
12, 177120, Note_on_c, 7, 39, 60
12, 177520, Note_off_c, 7, 39, 64
12, 177600, Note_on_c, 7, 42, 60
12, 178000, Note_off_c, 7, 42, 64
12, 178080, Note_on_c, 7, 47, 60
12, 178480, Note_off_c, 7, 47, 64
12, 178560, Note_on_c, 7, 35, 60
12, 179400, Note_off_c, 7, 35, 64
12, 179520, Note_on_c, 7, 33, 60
12, 179920, Note_off_c, 7, 33, 64
12, 180000, Note_on_c, 7, 33, 60
12, 180400, Note_off_c, 7, 33, 64
12, 180480, Note_on_c, 7, 37, 60
12, 180880, Note_off_c, 7, 37, 64
12, 180960, Note_on_c, 7, 40, 60
12, 181360, Note_off_c, 7, 40, 64
12, 181440, Note_on_c, 7, 40, 60
12, 181840, Note_off_c, 7, 40, 64
12, 181920, Note_on_c, 7, 35, 60
12, 182320, Note_off_c, 7, 35, 64
12, 182400, Note_on_c, 7, 32, 60
12, 182800, Note_off_c, 7, 32, 64
12, 182880, Note_on_c, 7, 35, 60
12, 183280, Note_off_c, 7, 35, 64
12, 183360, Note_on_c, 7, 39, 69
12, 183760, Note_off_c, 7, 39, 64
12, 183840, Note_on_c, 7, 42, 78
12, 184240, Note_off_c, 7, 42, 64
12, 184320, Note_on_c, 7, 44, 88
12, 184720, Note_off_c, 7, 44, 64
12, 184800, Note_on_c, 7, 32, 98
12, 185040, Note_off_c, 7, 32, 64
12, 185040, Note_on_c, 7, 33, 103
12, 185280, Note_off_c, 7, 33, 64
12, 185280, Note_on_c, 7, 35, 108
12, 185680, Note_off_c, 7, 35, 64
12, 185760, Note_on_c, 7, 40, 75
12, 187080, Note_off_c, 7, 40, 64
12, 187200, Note_on_c, 7, 45, 75
12, 188520, Note_off_c, 7, 45, 64
12, 188640, Note_on_c, 7, 40, 75
12, 189960, Note_off_c, 7, 40, 64
12, 190080, Note_on_c, 7, 33, 75
12, 190480, Note_off_c, 7, 33, 64
12, 190560, Note_on_c, 7, 42, 80
12, 190795, Note_off_c, 7, 42, 64
12, 190800, Note_on_c, 7, 40, 83
12, 191035, Note_off_c, 7, 40, 64
12, 191040, Note_on_c, 7, 39, 86
12, 191275, Note_off_c, 7, 39, 64
12, 191280, Note_on_c, 7, 37, 89
12, 191515, Note_off_c, 7, 37, 64
12, 191520, Note_on_c, 7, 35, 92
12, 191520, Note_on_c, 7, 47, 92
12, 192480, Note_off_c, 7, 47, 64
12, 192480, Note_off_c, 7, 35, 64
12, 192480, Note_on_c, 7, 40, 92
12, 192480, Note_on_c, 7, 52, 92
12, 192880, Note_off_c, 7, 52, 64
12, 192880, Note_off_c, 7, 40, 64
12, 192960, Note_on_c, 7, 45, 92
12, 193360, Note_off_c, 7, 45, 64
12, 193440, Note_on_c, 7, 47, 92
12, 193840, Note_off_c, 7, 47, 64
12, 193920, Note_on_c, 7, 35, 92
12, 194320, Note_off_c, 7, 35, 64
12, 194400, Note_on_c, 7, 28, 92
12, 194400, Note_on_c, 7, 40, 92
12, 194800, Note_off_c, 7, 40, 64
12, 194800, Note_off_c, 7, 28, 64
12, 194880, Note_on_c, 7, 32, 94
12, 194880, Note_on_c, 7, 44, 94
12, 195120, Note_off_c, 7, 44, 64
12, 195120, Note_off_c, 7, 32, 64
12, 195120, Note_on_c, 7, 33, 95
12, 195120, Note_on_c, 7, 45, 95
12, 195360, Note_off_c, 7, 45, 64
12, 195360, Note_off_c, 7, 33, 64
12, 195360, Note_on_c, 7, 35, 96
12, 195360, Note_on_c, 7, 47, 96
12, 195760, Note_off_c, 7, 47, 64
12, 195760, Note_off_c, 7, 35, 64
12, 195840, Note_on_c, 7, 40, 99
12, 196240, Note_off_c, 7, 40, 64
12, 196320, Note_on_c, 7, 44, 102
12, 196560, Note_off_c, 7, 44, 64
12, 196560, Note_on_c, 7, 45, 103
12, 196800, Note_off_c, 7, 45, 64
12, 196800, Note_on_c, 7, 47, 104
12, 197200, Note_off_c, 7, 47, 64
12, 197280, Note_on_c, 7, 40, 108
12, 199195, Note_off_c, 7, 40, 64
12, 199195, End_track
13, 0, Start_track
13, 0, MIDI_port, 0
13, 0, Channel_prefix, 8
13, 0, Control_c, 8, 7, 84
13, 0, Control_c, 8, 10, 127
13, 0, Control_c, 8, 91, 58
13, 0, Program_c, 8, 47
13, 0, Note_on_c, 8, 52, 92
13, 400, Note_off_c, 8, 52, 64
13, 1440, Note_on_c, 8, 52, 92
13, 1840, Note_off_c, 8, 52, 64
13, 5280, Note_on_c, 8, 47, 92
13, 5680, Note_off_c, 8, 47, 64
13, 5760, Note_on_c, 8, 52, 45
13, 6600, Note_off_c, 8, 52, 64
13, 8160, Note_on_c, 8, 47, 60
13, 8560, Note_off_c, 8, 47, 64
13, 8640, Note_on_c, 8, 52, 60
13, 9480, Note_off_c, 8, 52, 64
13, 13920, Note_on_c, 8, 47, 92
13, 14320, Note_off_c, 8, 47, 64
13, 14400, Note_on_c, 8, 52, 45
13, 15240, Note_off_c, 8, 52, 64
13, 16800, Note_on_c, 8, 47, 65
13, 17200, Note_off_c, 8, 47, 64
13, 17280, Note_on_c, 8, 52, 75
13, 18120, Note_off_c, 8, 52, 64
13, 20160, Note_on_c, 8, 52, 45
13, 20560, Note_off_c, 8, 52, 64
13, 39840, Note_on_c, 8, 47, 60
13, 40240, Note_off_c, 8, 47, 64
13, 40320, Note_on_c, 8, 52, 75
13, 40720, Note_off_c, 8, 52, 64
13, 41760, Note_on_c, 8, 52, 78
13, 42160, Note_off_c, 8, 52, 64
13, 43200, Note_on_c, 8, 52, 82
13, 43600, Note_off_c, 8, 52, 64
13, 45600, Note_on_c, 8, 52, 92
13, 46000, Note_off_c, 8, 52, 64
13, 46080, Note_on_c, 8, 49, 45
13, 46480, Note_off_c, 8, 49, 64
13, 47520, Note_on_c, 8, 49, 45
13, 47920, Note_off_c, 8, 49, 64
13, 48960, Note_on_c, 8, 49, 62
13, 49360, Note_off_c, 8, 49, 64
13, 51360, Note_on_c, 8, 49, 92
13, 51760, Note_off_c, 8, 49, 64
13, 51840, Note_on_c, 8, 54, 92
13, 52240, Note_off_c, 8, 54, 64
13, 54720, Note_on_c, 8, 44, 60
13, 54745, Note_off_c, 8, 44, 64
13, 54750, Note_on_c, 8, 44, 60
13, 54775, Note_off_c, 8, 44, 64
13, 54780, Note_on_c, 8, 44, 60
13, 54805, Note_off_c, 8, 44, 64
13, 54810, Note_on_c, 8, 44, 60
13, 54835, Note_off_c, 8, 44, 64
13, 54840, Note_on_c, 8, 44, 60
13, 54865, Note_off_c, 8, 44, 64
13, 54870, Note_on_c, 8, 44, 60
13, 54895, Note_off_c, 8, 44, 64
13, 54900, Note_on_c, 8, 44, 60
13, 54925, Note_off_c, 8, 44, 64
13, 54930, Note_on_c, 8, 44, 60
13, 54955, Note_off_c, 8, 44, 64
13, 54960, Note_on_c, 8, 44, 60
13, 54985, Note_off_c, 8, 44, 64
13, 54990, Note_on_c, 8, 44, 60
13, 55015, Note_off_c, 8, 44, 64
13, 55020, Note_on_c, 8, 44, 60
13, 55045, Note_off_c, 8, 44, 64
13, 55050, Note_on_c, 8, 44, 60
13, 55075, Note_off_c, 8, 44, 64
13, 55080, Note_on_c, 8, 44, 60
13, 55105, Note_off_c, 8, 44, 64
13, 55110, Note_on_c, 8, 44, 60
13, 55135, Note_off_c, 8, 44, 64
13, 55140, Note_on_c, 8, 44, 60
13, 55165, Note_off_c, 8, 44, 64
13, 55170, Note_on_c, 8, 44, 60
13, 55195, Note_off_c, 8, 44, 64
13, 55200, Note_on_c, 8, 44, 60
13, 55225, Note_off_c, 8, 44, 64
13, 55230, Note_on_c, 8, 44, 60
13, 55255, Note_off_c, 8, 44, 64
13, 55260, Note_on_c, 8, 44, 60
13, 55285, Note_off_c, 8, 44, 64
13, 55290, Note_on_c, 8, 44, 60
13, 55315, Note_off_c, 8, 44, 64
13, 55320, Note_on_c, 8, 44, 60
13, 55345, Note_off_c, 8, 44, 64
13, 55350, Note_on_c, 8, 44, 60
13, 55375, Note_off_c, 8, 44, 64
13, 55380, Note_on_c, 8, 44, 60
13, 55405, Note_off_c, 8, 44, 64
13, 55410, Note_on_c, 8, 44, 60
13, 55435, Note_off_c, 8, 44, 64
13, 55440, Note_on_c, 8, 44, 60
13, 55465, Note_off_c, 8, 44, 64
13, 55470, Note_on_c, 8, 44, 60
13, 55495, Note_off_c, 8, 44, 64
13, 55500, Note_on_c, 8, 44, 60
13, 55525, Note_off_c, 8, 44, 64
13, 55530, Note_on_c, 8, 44, 60
13, 55555, Note_off_c, 8, 44, 64
13, 55560, Note_on_c, 8, 44, 60
13, 55585, Note_off_c, 8, 44, 64
13, 55590, Note_on_c, 8, 44, 60
13, 55615, Note_off_c, 8, 44, 64
13, 55620, Note_on_c, 8, 44, 60
13, 55645, Note_off_c, 8, 44, 64
13, 55650, Note_on_c, 8, 44, 60
13, 55675, Note_off_c, 8, 44, 64
13, 55680, Note_on_c, 8, 44, 60
13, 55705, Note_off_c, 8, 44, 64
13, 55710, Note_on_c, 8, 44, 60
13, 55735, Note_off_c, 8, 44, 64
13, 55740, Note_on_c, 8, 44, 60
13, 55765, Note_off_c, 8, 44, 64
13, 55770, Note_on_c, 8, 44, 60
13, 55795, Note_off_c, 8, 44, 64
13, 55800, Note_on_c, 8, 44, 60
13, 55825, Note_off_c, 8, 44, 64
13, 55830, Note_on_c, 8, 44, 60
13, 55855, Note_off_c, 8, 44, 64
13, 55860, Note_on_c, 8, 44, 60
13, 55885, Note_off_c, 8, 44, 64
13, 55890, Note_on_c, 8, 44, 60
13, 55915, Note_off_c, 8, 44, 64
13, 55920, Note_on_c, 8, 44, 60
13, 55945, Note_off_c, 8, 44, 64
13, 55950, Note_on_c, 8, 44, 60
13, 55975, Note_off_c, 8, 44, 64
13, 55980, Note_on_c, 8, 44, 60
13, 56005, Note_off_c, 8, 44, 64
13, 56010, Note_on_c, 8, 44, 60
13, 56035, Note_off_c, 8, 44, 64
13, 56040, Note_on_c, 8, 44, 60
13, 56065, Note_off_c, 8, 44, 64
13, 56070, Note_on_c, 8, 44, 60
13, 56095, Note_off_c, 8, 44, 64
13, 56100, Note_on_c, 8, 44, 60
13, 56125, Note_off_c, 8, 44, 64
13, 56130, Note_on_c, 8, 44, 60
13, 56155, Note_off_c, 8, 44, 64
13, 56160, Note_on_c, 8, 44, 60
13, 56185, Note_off_c, 8, 44, 64
13, 56190, Note_on_c, 8, 44, 60
13, 56215, Note_off_c, 8, 44, 64
13, 56220, Note_on_c, 8, 44, 60
13, 56245, Note_off_c, 8, 44, 64
13, 56250, Note_on_c, 8, 44, 60
13, 56275, Note_off_c, 8, 44, 64
13, 56280, Note_on_c, 8, 44, 60
13, 56305, Note_off_c, 8, 44, 64
13, 56310, Note_on_c, 8, 44, 60
13, 56335, Note_off_c, 8, 44, 64
13, 56340, Note_on_c, 8, 44, 60
13, 56365, Note_off_c, 8, 44, 64
13, 56370, Note_on_c, 8, 44, 60
13, 56395, Note_off_c, 8, 44, 64
13, 56400, Note_on_c, 8, 44, 60
13, 56425, Note_off_c, 8, 44, 64
13, 56430, Note_on_c, 8, 44, 60
13, 56455, Note_off_c, 8, 44, 64
13, 56460, Note_on_c, 8, 44, 60
13, 56485, Note_off_c, 8, 44, 64
13, 56490, Note_on_c, 8, 44, 60
13, 56515, Note_off_c, 8, 44, 64
13, 56520, Note_on_c, 8, 44, 60
13, 56545, Note_off_c, 8, 44, 64
13, 56550, Note_on_c, 8, 44, 60
13, 56575, Note_off_c, 8, 44, 64
13, 56580, Note_on_c, 8, 44, 60
13, 56605, Note_off_c, 8, 44, 64
13, 56610, Note_on_c, 8, 44, 60
13, 56635, Note_off_c, 8, 44, 64
13, 56640, Note_on_c, 8, 44, 60
13, 56665, Note_off_c, 8, 44, 64
13, 56670, Note_on_c, 8, 44, 60
13, 56695, Note_off_c, 8, 44, 64
13, 56700, Note_on_c, 8, 44, 60
13, 56725, Note_off_c, 8, 44, 64
13, 56730, Note_on_c, 8, 44, 60
13, 56755, Note_off_c, 8, 44, 64
13, 56760, Note_on_c, 8, 44, 60
13, 56785, Note_off_c, 8, 44, 64
13, 56790, Note_on_c, 8, 44, 60
13, 56815, Note_off_c, 8, 44, 64
13, 56820, Note_on_c, 8, 44, 60
13, 56845, Note_off_c, 8, 44, 64
13, 56850, Note_on_c, 8, 44, 60
13, 56875, Note_off_c, 8, 44, 64
13, 56880, Note_on_c, 8, 44, 60
13, 56905, Note_off_c, 8, 44, 64
13, 56910, Note_on_c, 8, 44, 60
13, 56935, Note_off_c, 8, 44, 64
13, 56940, Note_on_c, 8, 44, 60
13, 56965, Note_off_c, 8, 44, 64
13, 56970, Note_on_c, 8, 44, 60
13, 56995, Note_off_c, 8, 44, 64
13, 57000, Note_on_c, 8, 44, 60
13, 57025, Note_off_c, 8, 44, 64
13, 57030, Note_on_c, 8, 44, 60
13, 57055, Note_off_c, 8, 44, 64
13, 57060, Note_on_c, 8, 44, 60
13, 57085, Note_off_c, 8, 44, 64
13, 57090, Note_on_c, 8, 44, 60
13, 57115, Note_off_c, 8, 44, 64
13, 57120, Note_on_c, 8, 44, 60
13, 57145, Note_off_c, 8, 44, 64
13, 57150, Note_on_c, 8, 44, 60
13, 57175, Note_off_c, 8, 44, 64
13, 57180, Note_on_c, 8, 44, 60
13, 57205, Note_off_c, 8, 44, 64
13, 57210, Note_on_c, 8, 44, 60
13, 57235, Note_off_c, 8, 44, 64
13, 57240, Note_on_c, 8, 44, 60
13, 57265, Note_off_c, 8, 44, 64
13, 57270, Note_on_c, 8, 44, 60
13, 57295, Note_off_c, 8, 44, 64
13, 57300, Note_on_c, 8, 44, 60
13, 57325, Note_off_c, 8, 44, 64
13, 57330, Note_on_c, 8, 44, 60
13, 57355, Note_off_c, 8, 44, 64
13, 57360, Note_on_c, 8, 44, 60
13, 57385, Note_off_c, 8, 44, 64
13, 57390, Note_on_c, 8, 44, 60
13, 57415, Note_off_c, 8, 44, 64
13, 57420, Note_on_c, 8, 44, 60
13, 57445, Note_off_c, 8, 44, 64
13, 57450, Note_on_c, 8, 44, 60
13, 57475, Note_off_c, 8, 44, 64
13, 57480, Note_on_c, 8, 44, 60
13, 57505, Note_off_c, 8, 44, 64
13, 57510, Note_on_c, 8, 44, 60
13, 57535, Note_off_c, 8, 44, 64
13, 57540, Note_on_c, 8, 44, 60
13, 57565, Note_off_c, 8, 44, 64
13, 57570, Note_on_c, 8, 44, 60
13, 57595, Note_off_c, 8, 44, 64
13, 57600, Note_on_c, 8, 44, 45
13, 57625, Note_off_c, 8, 44, 64
13, 57630, Note_on_c, 8, 44, 45
13, 57655, Note_off_c, 8, 44, 64
13, 57660, Note_on_c, 8, 44, 45
13, 57685, Note_off_c, 8, 44, 64
13, 57690, Note_on_c, 8, 44, 45
13, 57715, Note_off_c, 8, 44, 64
13, 57720, Note_on_c, 8, 44, 45
13, 57745, Note_off_c, 8, 44, 64
13, 57750, Note_on_c, 8, 44, 45
13, 57775, Note_off_c, 8, 44, 64
13, 57780, Note_on_c, 8, 44, 45
13, 57805, Note_off_c, 8, 44, 64
13, 57810, Note_on_c, 8, 44, 45
13, 57835, Note_off_c, 8, 44, 64
13, 57840, Note_on_c, 8, 44, 45
13, 57865, Note_off_c, 8, 44, 64
13, 57870, Note_on_c, 8, 44, 45
13, 57895, Note_off_c, 8, 44, 64
13, 57900, Note_on_c, 8, 44, 45
13, 57925, Note_off_c, 8, 44, 64
13, 57930, Note_on_c, 8, 44, 45
13, 57955, Note_off_c, 8, 44, 64
13, 57960, Note_on_c, 8, 44, 45
13, 57985, Note_off_c, 8, 44, 64
13, 57990, Note_on_c, 8, 44, 45
13, 58015, Note_off_c, 8, 44, 64
13, 58020, Note_on_c, 8, 44, 45
13, 58045, Note_off_c, 8, 44, 64
13, 58050, Note_on_c, 8, 44, 45
13, 58075, Note_off_c, 8, 44, 64
13, 58080, Note_on_c, 8, 44, 45
13, 58105, Note_off_c, 8, 44, 64
13, 58110, Note_on_c, 8, 44, 45
13, 58135, Note_off_c, 8, 44, 64
13, 58140, Note_on_c, 8, 44, 45
13, 58165, Note_off_c, 8, 44, 64
13, 58170, Note_on_c, 8, 44, 45
13, 58195, Note_off_c, 8, 44, 64
13, 58200, Note_on_c, 8, 44, 45
13, 58225, Note_off_c, 8, 44, 64
13, 58230, Note_on_c, 8, 44, 45
13, 58255, Note_off_c, 8, 44, 64
13, 58260, Note_on_c, 8, 44, 45
13, 58285, Note_off_c, 8, 44, 64
13, 58290, Note_on_c, 8, 44, 45
13, 58315, Note_off_c, 8, 44, 64
13, 58320, Note_on_c, 8, 44, 45
13, 58345, Note_off_c, 8, 44, 64
13, 58350, Note_on_c, 8, 44, 45
13, 58375, Note_off_c, 8, 44, 64
13, 58380, Note_on_c, 8, 44, 45
13, 58405, Note_off_c, 8, 44, 64
13, 58410, Note_on_c, 8, 44, 45
13, 58435, Note_off_c, 8, 44, 64
13, 58440, Note_on_c, 8, 44, 45
13, 58465, Note_off_c, 8, 44, 64
13, 58470, Note_on_c, 8, 44, 45
13, 58495, Note_off_c, 8, 44, 64
13, 58500, Note_on_c, 8, 44, 45
13, 58525, Note_off_c, 8, 44, 64
13, 58530, Note_on_c, 8, 44, 45
13, 58555, Note_off_c, 8, 44, 64
13, 58560, Note_on_c, 8, 44, 45
13, 58585, Note_off_c, 8, 44, 64
13, 58590, Note_on_c, 8, 44, 45
13, 58615, Note_off_c, 8, 44, 64
13, 58620, Note_on_c, 8, 44, 45
13, 58645, Note_off_c, 8, 44, 64
13, 58650, Note_on_c, 8, 44, 45
13, 58675, Note_off_c, 8, 44, 64
13, 58680, Note_on_c, 8, 44, 45
13, 58705, Note_off_c, 8, 44, 64
13, 58710, Note_on_c, 8, 44, 45
13, 58735, Note_off_c, 8, 44, 64
13, 58740, Note_on_c, 8, 44, 45
13, 58765, Note_off_c, 8, 44, 64
13, 58770, Note_on_c, 8, 44, 45
13, 58795, Note_off_c, 8, 44, 64
13, 58800, Note_on_c, 8, 44, 45
13, 58825, Note_off_c, 8, 44, 64
13, 58830, Note_on_c, 8, 44, 45
13, 58855, Note_off_c, 8, 44, 64
13, 58860, Note_on_c, 8, 44, 45
13, 58885, Note_off_c, 8, 44, 64
13, 58890, Note_on_c, 8, 44, 45
13, 58915, Note_off_c, 8, 44, 64
13, 58920, Note_on_c, 8, 44, 45
13, 58945, Note_off_c, 8, 44, 64
13, 58950, Note_on_c, 8, 44, 45
13, 58975, Note_off_c, 8, 44, 64
13, 58980, Note_on_c, 8, 44, 45
13, 59005, Note_off_c, 8, 44, 64
13, 59010, Note_on_c, 8, 44, 45
13, 59035, Note_off_c, 8, 44, 64
13, 59040, Note_on_c, 8, 44, 45
13, 59440, Note_off_c, 8, 44, 64
13, 71520, Note_on_c, 8, 44, 60
13, 71920, Note_off_c, 8, 44, 64
13, 72000, Note_on_c, 8, 49, 92
13, 72400, Note_off_c, 8, 49, 64
13, 73440, Note_on_c, 8, 49, 92
13, 73840, Note_off_c, 8, 49, 64
13, 74880, Note_on_c, 8, 54, 60
13, 75280, Note_off_c, 8, 54, 64
13, 76320, Note_on_c, 8, 54, 60
13, 76720, Note_off_c, 8, 54, 64
13, 77760, Note_on_c, 8, 47, 92
13, 78160, Note_off_c, 8, 47, 64
13, 79200, Note_on_c, 8, 47, 75
13, 79600, Note_off_c, 8, 47, 64
13, 80640, Note_on_c, 8, 52, 75
13, 81040, Note_off_c, 8, 52, 64
13, 85920, Note_on_c, 8, 52, 92
13, 86320, Note_off_c, 8, 52, 64
13, 86400, Note_on_c, 8, 45, 75
13, 86800, Note_off_c, 8, 45, 64
13, 88800, Note_on_c, 8, 52, 75
13, 89200, Note_off_c, 8, 52, 64
13, 89280, Note_on_c, 8, 45, 75
13, 89680, Note_off_c, 8, 45, 64
13, 95040, Note_on_c, 8, 45, 60
13, 95065, Note_off_c, 8, 45, 64
13, 95070, Note_on_c, 8, 45, 60
13, 95095, Note_off_c, 8, 45, 64
13, 95100, Note_on_c, 8, 45, 60
13, 95125, Note_off_c, 8, 45, 64
13, 95130, Note_on_c, 8, 45, 60
13, 95155, Note_off_c, 8, 45, 64
13, 95160, Note_on_c, 8, 45, 60
13, 95185, Note_off_c, 8, 45, 64
13, 95190, Note_on_c, 8, 45, 60
13, 95215, Note_off_c, 8, 45, 64
13, 95220, Note_on_c, 8, 45, 60
13, 95245, Note_off_c, 8, 45, 64
13, 95250, Note_on_c, 8, 45, 60
13, 95275, Note_off_c, 8, 45, 64
13, 95280, Note_on_c, 8, 45, 60
13, 95305, Note_off_c, 8, 45, 64
13, 95310, Note_on_c, 8, 45, 60
13, 95335, Note_off_c, 8, 45, 64
13, 95340, Note_on_c, 8, 45, 60
13, 95365, Note_off_c, 8, 45, 64
13, 95370, Note_on_c, 8, 45, 60
13, 95395, Note_off_c, 8, 45, 64
13, 95400, Note_on_c, 8, 45, 60
13, 95425, Note_off_c, 8, 45, 64
13, 95430, Note_on_c, 8, 45, 60
13, 95455, Note_off_c, 8, 45, 64
13, 95460, Note_on_c, 8, 45, 60
13, 95485, Note_off_c, 8, 45, 64
13, 95490, Note_on_c, 8, 45, 60
13, 95515, Note_off_c, 8, 45, 64
13, 95520, Note_on_c, 8, 45, 60
13, 95545, Note_off_c, 8, 45, 64
13, 95550, Note_on_c, 8, 45, 60
13, 95575, Note_off_c, 8, 45, 64
13, 95580, Note_on_c, 8, 45, 60
13, 95605, Note_off_c, 8, 45, 64
13, 95610, Note_on_c, 8, 45, 60
13, 95635, Note_off_c, 8, 45, 64
13, 95640, Note_on_c, 8, 45, 60
13, 95665, Note_off_c, 8, 45, 64
13, 95670, Note_on_c, 8, 45, 60
13, 95695, Note_off_c, 8, 45, 64
13, 95700, Note_on_c, 8, 45, 60
13, 95725, Note_off_c, 8, 45, 64
13, 95730, Note_on_c, 8, 45, 60
13, 95755, Note_off_c, 8, 45, 64
13, 95760, Note_on_c, 8, 45, 60
13, 95785, Note_off_c, 8, 45, 64
13, 95790, Note_on_c, 8, 45, 60
13, 95815, Note_off_c, 8, 45, 64
13, 95820, Note_on_c, 8, 45, 60
13, 95845, Note_off_c, 8, 45, 64
13, 95850, Note_on_c, 8, 45, 60
13, 95875, Note_off_c, 8, 45, 64
13, 95880, Note_on_c, 8, 45, 60
13, 95905, Note_off_c, 8, 45, 64
13, 95910, Note_on_c, 8, 45, 60
13, 95935, Note_off_c, 8, 45, 64
13, 95940, Note_on_c, 8, 45, 60
13, 95965, Note_off_c, 8, 45, 64
13, 95970, Note_on_c, 8, 45, 60
13, 95995, Note_off_c, 8, 45, 64
13, 96000, Note_on_c, 8, 45, 60
13, 96025, Note_off_c, 8, 45, 64
13, 96030, Note_on_c, 8, 45, 60
13, 96055, Note_off_c, 8, 45, 64
13, 96060, Note_on_c, 8, 45, 60
13, 96085, Note_off_c, 8, 45, 64
13, 96090, Note_on_c, 8, 45, 60
13, 96115, Note_off_c, 8, 45, 64
13, 96120, Note_on_c, 8, 45, 60
13, 96145, Note_off_c, 8, 45, 64
13, 96150, Note_on_c, 8, 45, 60
13, 96175, Note_off_c, 8, 45, 64
13, 96180, Note_on_c, 8, 45, 60
13, 96205, Note_off_c, 8, 45, 64
13, 96210, Note_on_c, 8, 45, 60
13, 96235, Note_off_c, 8, 45, 64
13, 96240, Note_on_c, 8, 45, 60
13, 96265, Note_off_c, 8, 45, 64
13, 96270, Note_on_c, 8, 45, 60
13, 96295, Note_off_c, 8, 45, 64
13, 96300, Note_on_c, 8, 45, 60
13, 96325, Note_off_c, 8, 45, 64
13, 96330, Note_on_c, 8, 45, 60
13, 96355, Note_off_c, 8, 45, 64
13, 96360, Note_on_c, 8, 45, 60
13, 96385, Note_off_c, 8, 45, 64
13, 96390, Note_on_c, 8, 45, 60
13, 96415, Note_off_c, 8, 45, 64
13, 96420, Note_on_c, 8, 45, 60
13, 96445, Note_off_c, 8, 45, 64
13, 96450, Note_on_c, 8, 45, 60
13, 96475, Note_off_c, 8, 45, 64
13, 96480, Note_on_c, 8, 45, 60
13, 96505, Note_off_c, 8, 45, 64
13, 96510, Note_on_c, 8, 45, 60
13, 96535, Note_off_c, 8, 45, 64
13, 96540, Note_on_c, 8, 45, 60
13, 96565, Note_off_c, 8, 45, 64
13, 96570, Note_on_c, 8, 45, 60
13, 96595, Note_off_c, 8, 45, 64
13, 96600, Note_on_c, 8, 45, 60
13, 96625, Note_off_c, 8, 45, 64
13, 96630, Note_on_c, 8, 45, 60
13, 96655, Note_off_c, 8, 45, 64
13, 96660, Note_on_c, 8, 45, 60
13, 96685, Note_off_c, 8, 45, 64
13, 96690, Note_on_c, 8, 45, 60
13, 96715, Note_off_c, 8, 45, 64
13, 96720, Note_on_c, 8, 45, 60
13, 96745, Note_off_c, 8, 45, 64
13, 96750, Note_on_c, 8, 45, 60
13, 96775, Note_off_c, 8, 45, 64
13, 96780, Note_on_c, 8, 45, 60
13, 96805, Note_off_c, 8, 45, 64
13, 96810, Note_on_c, 8, 45, 60
13, 96835, Note_off_c, 8, 45, 64
13, 96840, Note_on_c, 8, 45, 60
13, 96865, Note_off_c, 8, 45, 64
13, 96870, Note_on_c, 8, 45, 60
13, 96895, Note_off_c, 8, 45, 64
13, 96900, Note_on_c, 8, 45, 60
13, 96925, Note_off_c, 8, 45, 64
13, 96930, Note_on_c, 8, 45, 60
13, 96955, Note_off_c, 8, 45, 64
13, 96960, Note_on_c, 8, 45, 60
13, 96985, Note_off_c, 8, 45, 64
13, 96990, Note_on_c, 8, 45, 60
13, 97015, Note_off_c, 8, 45, 64
13, 97020, Note_on_c, 8, 45, 60
13, 97045, Note_off_c, 8, 45, 64
13, 97050, Note_on_c, 8, 45, 60
13, 97075, Note_off_c, 8, 45, 64
13, 97080, Note_on_c, 8, 45, 60
13, 97105, Note_off_c, 8, 45, 64
13, 97110, Note_on_c, 8, 45, 60
13, 97135, Note_off_c, 8, 45, 64
13, 97140, Note_on_c, 8, 45, 60
13, 97165, Note_off_c, 8, 45, 64
13, 97170, Note_on_c, 8, 45, 60
13, 97195, Note_off_c, 8, 45, 64
13, 97200, Note_on_c, 8, 45, 60
13, 97225, Note_off_c, 8, 45, 64
13, 97230, Note_on_c, 8, 45, 60
13, 97255, Note_off_c, 8, 45, 64
13, 97260, Note_on_c, 8, 45, 60
13, 97285, Note_off_c, 8, 45, 64
13, 97290, Note_on_c, 8, 45, 60
13, 97315, Note_off_c, 8, 45, 64
13, 97320, Note_on_c, 8, 45, 60
13, 97345, Note_off_c, 8, 45, 64
13, 97350, Note_on_c, 8, 45, 60
13, 97375, Note_off_c, 8, 45, 64
13, 97380, Note_on_c, 8, 45, 60
13, 97405, Note_off_c, 8, 45, 64
13, 97410, Note_on_c, 8, 45, 60
13, 97435, Note_off_c, 8, 45, 64
13, 97440, Note_on_c, 8, 45, 60
13, 97465, Note_off_c, 8, 45, 64
13, 97470, Note_on_c, 8, 45, 60
13, 97495, Note_off_c, 8, 45, 64
13, 97500, Note_on_c, 8, 45, 60
13, 97525, Note_off_c, 8, 45, 64
13, 97530, Note_on_c, 8, 45, 60
13, 97555, Note_off_c, 8, 45, 64
13, 97560, Note_on_c, 8, 45, 60
13, 97585, Note_off_c, 8, 45, 64
13, 97590, Note_on_c, 8, 45, 60
13, 97615, Note_off_c, 8, 45, 64
13, 97620, Note_on_c, 8, 45, 60
13, 97645, Note_off_c, 8, 45, 64
13, 97650, Note_on_c, 8, 45, 60
13, 97675, Note_off_c, 8, 45, 64
13, 97680, Note_on_c, 8, 45, 60
13, 97705, Note_off_c, 8, 45, 64
13, 97710, Note_on_c, 8, 45, 60
13, 97735, Note_off_c, 8, 45, 64
13, 97740, Note_on_c, 8, 45, 60
13, 97765, Note_off_c, 8, 45, 64
13, 97770, Note_on_c, 8, 45, 60
13, 97795, Note_off_c, 8, 45, 64
13, 97800, Note_on_c, 8, 45, 60
13, 97825, Note_off_c, 8, 45, 64
13, 97830, Note_on_c, 8, 45, 60
13, 97855, Note_off_c, 8, 45, 64
13, 97860, Note_on_c, 8, 45, 60
13, 97885, Note_off_c, 8, 45, 64
13, 97890, Note_on_c, 8, 45, 60
13, 97915, Note_off_c, 8, 45, 64
13, 97920, Note_on_c, 8, 45, 60
13, 97945, Note_off_c, 8, 45, 64
13, 97950, Note_on_c, 8, 45, 60
13, 97975, Note_off_c, 8, 45, 64
13, 97980, Note_on_c, 8, 45, 60
13, 98005, Note_off_c, 8, 45, 64
13, 98010, Note_on_c, 8, 45, 60
13, 98035, Note_off_c, 8, 45, 64
13, 98040, Note_on_c, 8, 45, 60
13, 98065, Note_off_c, 8, 45, 64
13, 98070, Note_on_c, 8, 45, 60
13, 98095, Note_off_c, 8, 45, 64
13, 98100, Note_on_c, 8, 45, 60
13, 98125, Note_off_c, 8, 45, 64
13, 98130, Note_on_c, 8, 45, 60
13, 98155, Note_off_c, 8, 45, 64
13, 98160, Note_on_c, 8, 45, 60
13, 98185, Note_off_c, 8, 45, 64
13, 98190, Note_on_c, 8, 45, 60
13, 98215, Note_off_c, 8, 45, 64
13, 98220, Note_on_c, 8, 45, 60
13, 98245, Note_off_c, 8, 45, 64
13, 98250, Note_on_c, 8, 45, 60
13, 98275, Note_off_c, 8, 45, 64
13, 98280, Note_on_c, 8, 45, 60
13, 98305, Note_off_c, 8, 45, 64
13, 98310, Note_on_c, 8, 45, 60
13, 98335, Note_off_c, 8, 45, 64
13, 98340, Note_on_c, 8, 45, 60
13, 98365, Note_off_c, 8, 45, 64
13, 98370, Note_on_c, 8, 45, 60
13, 98395, Note_off_c, 8, 45, 64
13, 98400, Note_on_c, 8, 45, 60
13, 98425, Note_off_c, 8, 45, 64
13, 98430, Note_on_c, 8, 45, 60
13, 98455, Note_off_c, 8, 45, 64
13, 98460, Note_on_c, 8, 45, 60
13, 98485, Note_off_c, 8, 45, 64
13, 98490, Note_on_c, 8, 45, 60
13, 98515, Note_off_c, 8, 45, 64
13, 98520, Note_on_c, 8, 45, 60
13, 98545, Note_off_c, 8, 45, 64
13, 98550, Note_on_c, 8, 45, 60
13, 98575, Note_off_c, 8, 45, 64
13, 98580, Note_on_c, 8, 45, 60
13, 98605, Note_off_c, 8, 45, 64
13, 98610, Note_on_c, 8, 45, 60
13, 98635, Note_off_c, 8, 45, 64
13, 98640, Note_on_c, 8, 45, 60
13, 98665, Note_off_c, 8, 45, 64
13, 98670, Note_on_c, 8, 45, 60
13, 98695, Note_off_c, 8, 45, 64
13, 98700, Note_on_c, 8, 45, 60
13, 98725, Note_off_c, 8, 45, 64
13, 98730, Note_on_c, 8, 45, 60
13, 98755, Note_off_c, 8, 45, 64
13, 98760, Note_on_c, 8, 45, 60
13, 98785, Note_off_c, 8, 45, 64
13, 98790, Note_on_c, 8, 45, 60
13, 98815, Note_off_c, 8, 45, 64
13, 98820, Note_on_c, 8, 45, 60
13, 98845, Note_off_c, 8, 45, 64
13, 98850, Note_on_c, 8, 45, 60
13, 98875, Note_off_c, 8, 45, 64
13, 98880, Note_on_c, 8, 45, 60
13, 98905, Note_off_c, 8, 45, 64
13, 98910, Note_on_c, 8, 45, 60
13, 98935, Note_off_c, 8, 45, 64
13, 98940, Note_on_c, 8, 45, 60
13, 98965, Note_off_c, 8, 45, 64
13, 98970, Note_on_c, 8, 45, 60
13, 98995, Note_off_c, 8, 45, 64
13, 99000, Note_on_c, 8, 45, 60
13, 99025, Note_off_c, 8, 45, 64
13, 99030, Note_on_c, 8, 45, 60
13, 99055, Note_off_c, 8, 45, 64
13, 99060, Note_on_c, 8, 45, 60
13, 99085, Note_off_c, 8, 45, 64
13, 99090, Note_on_c, 8, 45, 60
13, 99115, Note_off_c, 8, 45, 64
13, 99120, Note_on_c, 8, 45, 60
13, 99145, Note_off_c, 8, 45, 64
13, 99150, Note_on_c, 8, 45, 60
13, 99175, Note_off_c, 8, 45, 64
13, 99180, Note_on_c, 8, 45, 60
13, 99205, Note_off_c, 8, 45, 64
13, 99210, Note_on_c, 8, 45, 60
13, 99235, Note_off_c, 8, 45, 64
13, 99240, Note_on_c, 8, 45, 60
13, 99265, Note_off_c, 8, 45, 64
13, 99270, Note_on_c, 8, 45, 60
13, 99295, Note_off_c, 8, 45, 64
13, 99300, Note_on_c, 8, 45, 60
13, 99325, Note_off_c, 8, 45, 64
13, 99330, Note_on_c, 8, 45, 60
13, 99355, Note_off_c, 8, 45, 64
13, 111840, Note_on_c, 8, 52, 45
13, 112240, Note_off_c, 8, 52, 64
13, 112320, Note_on_c, 8, 45, 60
13, 112720, Note_off_c, 8, 45, 64
13, 113760, Note_on_c, 8, 45, 68
13, 114160, Note_off_c, 8, 45, 64
13, 115200, Note_on_c, 8, 45, 77
13, 115600, Note_off_c, 8, 45, 64
13, 117600, Note_on_c, 8, 42, 92
13, 118000, Note_off_c, 8, 42, 64
13, 118080, Note_on_c, 8, 47, 45
13, 118480, Note_off_c, 8, 47, 64
13, 119520, Note_on_c, 8, 47, 51
13, 119920, Note_off_c, 8, 47, 64
13, 120960, Note_on_c, 8, 47, 60
13, 121360, Note_off_c, 8, 47, 64
13, 123360, Note_on_c, 8, 44, 75
13, 123760, Note_off_c, 8, 44, 64
13, 123840, Note_on_c, 8, 53, 75
13, 124240, Note_off_c, 8, 53, 64
13, 145440, Note_on_c, 8, 49, 75
13, 145465, Note_off_c, 8, 49, 64
13, 145470, Note_on_c, 8, 49, 75
13, 145495, Note_off_c, 8, 49, 64
13, 145500, Note_on_c, 8, 49, 75
13, 145525, Note_off_c, 8, 49, 64
13, 145530, Note_on_c, 8, 49, 75
13, 145555, Note_off_c, 8, 49, 64
13, 145560, Note_on_c, 8, 49, 75
13, 145585, Note_off_c, 8, 49, 64
13, 145590, Note_on_c, 8, 49, 75
13, 145615, Note_off_c, 8, 49, 64
13, 145620, Note_on_c, 8, 49, 75
13, 145645, Note_off_c, 8, 49, 64
13, 145650, Note_on_c, 8, 49, 75
13, 145675, Note_off_c, 8, 49, 64
13, 145680, Note_on_c, 8, 49, 75
13, 145705, Note_off_c, 8, 49, 64
13, 145710, Note_on_c, 8, 49, 75
13, 145735, Note_off_c, 8, 49, 64
13, 145740, Note_on_c, 8, 49, 75
13, 145765, Note_off_c, 8, 49, 64
13, 145770, Note_on_c, 8, 49, 75
13, 145795, Note_off_c, 8, 49, 64
13, 145800, Note_on_c, 8, 49, 75
13, 145825, Note_off_c, 8, 49, 64
13, 145830, Note_on_c, 8, 49, 75
13, 145855, Note_off_c, 8, 49, 64
13, 145860, Note_on_c, 8, 49, 75
13, 145885, Note_off_c, 8, 49, 64
13, 145890, Note_on_c, 8, 49, 75
13, 145915, Note_off_c, 8, 49, 64
13, 145920, Note_on_c, 8, 49, 75
13, 145945, Note_off_c, 8, 49, 64
13, 145950, Note_on_c, 8, 49, 75
13, 145975, Note_off_c, 8, 49, 64
13, 145980, Note_on_c, 8, 49, 75
13, 146005, Note_off_c, 8, 49, 64
13, 146010, Note_on_c, 8, 49, 75
13, 146035, Note_off_c, 8, 49, 64
13, 146040, Note_on_c, 8, 49, 75
13, 146065, Note_off_c, 8, 49, 64
13, 146070, Note_on_c, 8, 49, 75
13, 146095, Note_off_c, 8, 49, 64
13, 146100, Note_on_c, 8, 49, 75
13, 146125, Note_off_c, 8, 49, 64
13, 146130, Note_on_c, 8, 49, 75
13, 146155, Note_off_c, 8, 49, 64
13, 146160, Note_on_c, 8, 49, 75
13, 146185, Note_off_c, 8, 49, 64
13, 146190, Note_on_c, 8, 49, 75
13, 146215, Note_off_c, 8, 49, 64
13, 146220, Note_on_c, 8, 49, 75
13, 146245, Note_off_c, 8, 49, 64
13, 146250, Note_on_c, 8, 49, 75
13, 146275, Note_off_c, 8, 49, 64
13, 146280, Note_on_c, 8, 49, 75
13, 146305, Note_off_c, 8, 49, 64
13, 146310, Note_on_c, 8, 49, 75
13, 146335, Note_off_c, 8, 49, 64
13, 146340, Note_on_c, 8, 49, 75
13, 146365, Note_off_c, 8, 49, 64
13, 146370, Note_on_c, 8, 49, 75
13, 146395, Note_off_c, 8, 49, 64
13, 146400, Note_on_c, 8, 49, 75
13, 146425, Note_off_c, 8, 49, 64
13, 146430, Note_on_c, 8, 49, 75
13, 146455, Note_off_c, 8, 49, 64
13, 146460, Note_on_c, 8, 49, 75
13, 146485, Note_off_c, 8, 49, 64
13, 146490, Note_on_c, 8, 49, 75
13, 146515, Note_off_c, 8, 49, 64
13, 146520, Note_on_c, 8, 49, 75
13, 146545, Note_off_c, 8, 49, 64
13, 146550, Note_on_c, 8, 49, 75
13, 146575, Note_off_c, 8, 49, 64
13, 146580, Note_on_c, 8, 49, 75
13, 146605, Note_off_c, 8, 49, 64
13, 146610, Note_on_c, 8, 49, 75
13, 146635, Note_off_c, 8, 49, 64
13, 146640, Note_on_c, 8, 49, 75
13, 146665, Note_off_c, 8, 49, 64
13, 146670, Note_on_c, 8, 49, 75
13, 146695, Note_off_c, 8, 49, 64
13, 146700, Note_on_c, 8, 49, 75
13, 146725, Note_off_c, 8, 49, 64
13, 146730, Note_on_c, 8, 49, 75
13, 146755, Note_off_c, 8, 49, 64
13, 146760, Note_on_c, 8, 49, 75
13, 146785, Note_off_c, 8, 49, 64
13, 146790, Note_on_c, 8, 49, 75
13, 146815, Note_off_c, 8, 49, 64
13, 146820, Note_on_c, 8, 49, 75
13, 146845, Note_off_c, 8, 49, 64
13, 146850, Note_on_c, 8, 49, 75
13, 146875, Note_off_c, 8, 49, 64
13, 146880, Note_on_c, 8, 49, 75
13, 146905, Note_off_c, 8, 49, 64
13, 146910, Note_on_c, 8, 49, 75
13, 146935, Note_off_c, 8, 49, 64
13, 146940, Note_on_c, 8, 49, 75
13, 146965, Note_off_c, 8, 49, 64
13, 146970, Note_on_c, 8, 49, 75
13, 146995, Note_off_c, 8, 49, 64
13, 147000, Note_on_c, 8, 49, 75
13, 147025, Note_off_c, 8, 49, 64
13, 147030, Note_on_c, 8, 49, 75
13, 147055, Note_off_c, 8, 49, 64
13, 147060, Note_on_c, 8, 49, 75
13, 147085, Note_off_c, 8, 49, 64
13, 147090, Note_on_c, 8, 49, 75
13, 147115, Note_off_c, 8, 49, 64
13, 147120, Note_on_c, 8, 49, 75
13, 147145, Note_off_c, 8, 49, 64
13, 147150, Note_on_c, 8, 49, 75
13, 147175, Note_off_c, 8, 49, 64
13, 147180, Note_on_c, 8, 49, 75
13, 147205, Note_off_c, 8, 49, 64
13, 147210, Note_on_c, 8, 49, 75
13, 147235, Note_off_c, 8, 49, 64
13, 147240, Note_on_c, 8, 49, 75
13, 147265, Note_off_c, 8, 49, 64
13, 147270, Note_on_c, 8, 49, 75
13, 147295, Note_off_c, 8, 49, 64
13, 147300, Note_on_c, 8, 49, 75
13, 147325, Note_off_c, 8, 49, 64
13, 147330, Note_on_c, 8, 49, 75
13, 147355, Note_off_c, 8, 49, 64
13, 147360, Note_on_c, 8, 49, 75
13, 147385, Note_off_c, 8, 49, 64
13, 147390, Note_on_c, 8, 49, 75
13, 147415, Note_off_c, 8, 49, 64
13, 147420, Note_on_c, 8, 49, 75
13, 147445, Note_off_c, 8, 49, 64
13, 147450, Note_on_c, 8, 49, 75
13, 147475, Note_off_c, 8, 49, 64
13, 147480, Note_on_c, 8, 49, 75
13, 147505, Note_off_c, 8, 49, 64
13, 147510, Note_on_c, 8, 49, 75
13, 147535, Note_off_c, 8, 49, 64
13, 147540, Note_on_c, 8, 49, 75
13, 147565, Note_off_c, 8, 49, 64
13, 147570, Note_on_c, 8, 49, 75
13, 147595, Note_off_c, 8, 49, 64
13, 147600, Note_on_c, 8, 49, 75
13, 147625, Note_off_c, 8, 49, 64
13, 147630, Note_on_c, 8, 49, 75
13, 147655, Note_off_c, 8, 49, 64
13, 147660, Note_on_c, 8, 49, 75
13, 147685, Note_off_c, 8, 49, 64
13, 147690, Note_on_c, 8, 49, 75
13, 147715, Note_off_c, 8, 49, 64
13, 147720, Note_on_c, 8, 49, 75
13, 147745, Note_off_c, 8, 49, 64
13, 147750, Note_on_c, 8, 49, 75
13, 147775, Note_off_c, 8, 49, 64
13, 147780, Note_on_c, 8, 49, 75
13, 147805, Note_off_c, 8, 49, 64
13, 147810, Note_on_c, 8, 49, 75
13, 147835, Note_off_c, 8, 49, 64
13, 147840, Note_on_c, 8, 49, 75
13, 147865, Note_off_c, 8, 49, 64
13, 147870, Note_on_c, 8, 49, 75
13, 147895, Note_off_c, 8, 49, 64
13, 147900, Note_on_c, 8, 49, 75
13, 147925, Note_off_c, 8, 49, 64
13, 147930, Note_on_c, 8, 49, 75
13, 147955, Note_off_c, 8, 49, 64
13, 147960, Note_on_c, 8, 49, 75
13, 147985, Note_off_c, 8, 49, 64
13, 147990, Note_on_c, 8, 49, 75
13, 148015, Note_off_c, 8, 49, 64
13, 148020, Note_on_c, 8, 49, 75
13, 148045, Note_off_c, 8, 49, 64
13, 148050, Note_on_c, 8, 49, 75
13, 148075, Note_off_c, 8, 49, 64
13, 148080, Note_on_c, 8, 49, 75
13, 148105, Note_off_c, 8, 49, 64
13, 148110, Note_on_c, 8, 49, 75
13, 148135, Note_off_c, 8, 49, 64
13, 148140, Note_on_c, 8, 49, 75
13, 148165, Note_off_c, 8, 49, 64
13, 148170, Note_on_c, 8, 49, 75
13, 148195, Note_off_c, 8, 49, 64
13, 148200, Note_on_c, 8, 49, 75
13, 148225, Note_off_c, 8, 49, 64
13, 148230, Note_on_c, 8, 49, 75
13, 148255, Note_off_c, 8, 49, 64
13, 148260, Note_on_c, 8, 49, 75
13, 148285, Note_off_c, 8, 49, 64
13, 148290, Note_on_c, 8, 49, 75
13, 148315, Note_off_c, 8, 49, 64
13, 148320, Note_on_c, 8, 49, 75
13, 148345, Note_off_c, 8, 49, 64
13, 148350, Note_on_c, 8, 49, 75
13, 148375, Note_off_c, 8, 49, 64
13, 148380, Note_on_c, 8, 49, 75
13, 148405, Note_off_c, 8, 49, 64
13, 148410, Note_on_c, 8, 49, 75
13, 148435, Note_off_c, 8, 49, 64
13, 148440, Note_on_c, 8, 49, 75
13, 148465, Note_off_c, 8, 49, 64
13, 148470, Note_on_c, 8, 49, 75
13, 148495, Note_off_c, 8, 49, 64
13, 148500, Note_on_c, 8, 49, 75
13, 148525, Note_off_c, 8, 49, 64
13, 148530, Note_on_c, 8, 49, 75
13, 148555, Note_off_c, 8, 49, 64
13, 148560, Note_on_c, 8, 49, 75
13, 148585, Note_off_c, 8, 49, 64
13, 148590, Note_on_c, 8, 49, 75
13, 148615, Note_off_c, 8, 49, 64
13, 148620, Note_on_c, 8, 49, 75
13, 148645, Note_off_c, 8, 49, 64
13, 148650, Note_on_c, 8, 49, 75
13, 148675, Note_off_c, 8, 49, 64
13, 148680, Note_on_c, 8, 49, 75
13, 148705, Note_off_c, 8, 49, 64
13, 148710, Note_on_c, 8, 49, 75
13, 148735, Note_off_c, 8, 49, 64
13, 148740, Note_on_c, 8, 49, 75
13, 148765, Note_off_c, 8, 49, 64
13, 148770, Note_on_c, 8, 49, 75
13, 148795, Note_off_c, 8, 49, 64
13, 148800, Note_on_c, 8, 49, 75
13, 148825, Note_off_c, 8, 49, 64
13, 148830, Note_on_c, 8, 49, 75
13, 148855, Note_off_c, 8, 49, 64
13, 148860, Note_on_c, 8, 49, 75
13, 148885, Note_off_c, 8, 49, 64
13, 148890, Note_on_c, 8, 49, 75
13, 148915, Note_off_c, 8, 49, 64
13, 148920, Note_on_c, 8, 49, 75
13, 148945, Note_off_c, 8, 49, 64
13, 148950, Note_on_c, 8, 49, 75
13, 148975, Note_off_c, 8, 49, 64
13, 148980, Note_on_c, 8, 49, 75
13, 149005, Note_off_c, 8, 49, 64
13, 149010, Note_on_c, 8, 49, 75
13, 149035, Note_off_c, 8, 49, 64
13, 149040, Note_on_c, 8, 49, 75
13, 149065, Note_off_c, 8, 49, 64
13, 149070, Note_on_c, 8, 49, 75
13, 149095, Note_off_c, 8, 49, 64
13, 149100, Note_on_c, 8, 49, 75
13, 149125, Note_off_c, 8, 49, 64
13, 149130, Note_on_c, 8, 49, 75
13, 149155, Note_off_c, 8, 49, 64
13, 149160, Note_on_c, 8, 49, 75
13, 149185, Note_off_c, 8, 49, 64
13, 149190, Note_on_c, 8, 49, 75
13, 149215, Note_off_c, 8, 49, 64
13, 149220, Note_on_c, 8, 49, 75
13, 149245, Note_off_c, 8, 49, 64
13, 149250, Note_on_c, 8, 49, 75
13, 149275, Note_off_c, 8, 49, 64
13, 149280, Note_on_c, 8, 49, 75
13, 149305, Note_off_c, 8, 49, 64
13, 149310, Note_on_c, 8, 49, 75
13, 149335, Note_off_c, 8, 49, 64
13, 149340, Note_on_c, 8, 49, 75
13, 149365, Note_off_c, 8, 49, 64
13, 149370, Note_on_c, 8, 49, 75
13, 149395, Note_off_c, 8, 49, 64
13, 149400, Note_on_c, 8, 49, 75
13, 149425, Note_off_c, 8, 49, 64
13, 149430, Note_on_c, 8, 49, 75
13, 149455, Note_off_c, 8, 49, 64
13, 149460, Note_on_c, 8, 49, 75
13, 149485, Note_off_c, 8, 49, 64
13, 149490, Note_on_c, 8, 49, 75
13, 149515, Note_off_c, 8, 49, 64
13, 149520, Note_on_c, 8, 49, 75
13, 149545, Note_off_c, 8, 49, 64
13, 149550, Note_on_c, 8, 49, 75
13, 149575, Note_off_c, 8, 49, 64
13, 149580, Note_on_c, 8, 49, 75
13, 149605, Note_off_c, 8, 49, 64
13, 149610, Note_on_c, 8, 49, 75
13, 149635, Note_off_c, 8, 49, 64
13, 149640, Note_on_c, 8, 49, 75
13, 149665, Note_off_c, 8, 49, 64
13, 149670, Note_on_c, 8, 49, 75
13, 149695, Note_off_c, 8, 49, 64
13, 149700, Note_on_c, 8, 49, 75
13, 149725, Note_off_c, 8, 49, 64
13, 149730, Note_on_c, 8, 49, 75
13, 149755, Note_off_c, 8, 49, 64
13, 149760, Note_on_c, 8, 49, 92
13, 150160, Note_off_c, 8, 49, 64
13, 151200, Note_on_c, 8, 54, 92
13, 151600, Note_off_c, 8, 54, 64
13, 191520, Note_on_c, 8, 47, 92
13, 191545, Note_off_c, 8, 47, 64
13, 191550, Note_on_c, 8, 47, 92
13, 191575, Note_off_c, 8, 47, 64
13, 191580, Note_on_c, 8, 47, 92
13, 191605, Note_off_c, 8, 47, 64
13, 191610, Note_on_c, 8, 47, 92
13, 191635, Note_off_c, 8, 47, 64
13, 191640, Note_on_c, 8, 47, 92
13, 191665, Note_off_c, 8, 47, 64
13, 191670, Note_on_c, 8, 47, 92
13, 191695, Note_off_c, 8, 47, 64
13, 191700, Note_on_c, 8, 47, 92
13, 191725, Note_off_c, 8, 47, 64
13, 191730, Note_on_c, 8, 47, 92
13, 191755, Note_off_c, 8, 47, 64
13, 191760, Note_on_c, 8, 47, 92
13, 191785, Note_off_c, 8, 47, 64
13, 191790, Note_on_c, 8, 47, 92
13, 191815, Note_off_c, 8, 47, 64
13, 191820, Note_on_c, 8, 47, 92
13, 191845, Note_off_c, 8, 47, 64
13, 191850, Note_on_c, 8, 47, 92
13, 191875, Note_off_c, 8, 47, 64
13, 191880, Note_on_c, 8, 47, 92
13, 191905, Note_off_c, 8, 47, 64
13, 191910, Note_on_c, 8, 47, 92
13, 191935, Note_off_c, 8, 47, 64
13, 191940, Note_on_c, 8, 47, 92
13, 191965, Note_off_c, 8, 47, 64
13, 191970, Note_on_c, 8, 47, 92
13, 191995, Note_off_c, 8, 47, 64
13, 192000, Note_on_c, 8, 47, 92
13, 192025, Note_off_c, 8, 47, 64
13, 192030, Note_on_c, 8, 47, 92
13, 192055, Note_off_c, 8, 47, 64
13, 192060, Note_on_c, 8, 47, 92
13, 192085, Note_off_c, 8, 47, 64
13, 192090, Note_on_c, 8, 47, 92
13, 192115, Note_off_c, 8, 47, 64
13, 192120, Note_on_c, 8, 47, 92
13, 192145, Note_off_c, 8, 47, 64
13, 192150, Note_on_c, 8, 47, 92
13, 192175, Note_off_c, 8, 47, 64
13, 192180, Note_on_c, 8, 47, 92
13, 192205, Note_off_c, 8, 47, 64
13, 192210, Note_on_c, 8, 47, 92
13, 192235, Note_off_c, 8, 47, 64
13, 192240, Note_on_c, 8, 47, 92
13, 192265, Note_off_c, 8, 47, 64
13, 192270, Note_on_c, 8, 47, 92
13, 192295, Note_off_c, 8, 47, 64
13, 192300, Note_on_c, 8, 47, 92
13, 192325, Note_off_c, 8, 47, 64
13, 192330, Note_on_c, 8, 47, 92
13, 192355, Note_off_c, 8, 47, 64
13, 192360, Note_on_c, 8, 47, 92
13, 192385, Note_off_c, 8, 47, 64
13, 192390, Note_on_c, 8, 47, 92
13, 192415, Note_off_c, 8, 47, 64
13, 192420, Note_on_c, 8, 47, 92
13, 192445, Note_off_c, 8, 47, 64
13, 192450, Note_on_c, 8, 47, 92
13, 192475, Note_off_c, 8, 47, 64
13, 192480, Note_on_c, 8, 52, 92
13, 192505, Note_off_c, 8, 52, 64
13, 192510, Note_on_c, 8, 52, 92
13, 192535, Note_off_c, 8, 52, 64
13, 192540, Note_on_c, 8, 52, 92
13, 192565, Note_off_c, 8, 52, 64
13, 192570, Note_on_c, 8, 52, 92
13, 192595, Note_off_c, 8, 52, 64
13, 192600, Note_on_c, 8, 52, 92
13, 192625, Note_off_c, 8, 52, 64
13, 192630, Note_on_c, 8, 52, 92
13, 192655, Note_off_c, 8, 52, 64
13, 192660, Note_on_c, 8, 52, 92
13, 192685, Note_off_c, 8, 52, 64
13, 192690, Note_on_c, 8, 52, 92
13, 192715, Note_off_c, 8, 52, 64
13, 192720, Note_on_c, 8, 52, 92
13, 192745, Note_off_c, 8, 52, 64
13, 192750, Note_on_c, 8, 52, 92
13, 192775, Note_off_c, 8, 52, 64
13, 192780, Note_on_c, 8, 52, 92
13, 192805, Note_off_c, 8, 52, 64
13, 192810, Note_on_c, 8, 52, 92
13, 192835, Note_off_c, 8, 52, 64
13, 192840, Note_on_c, 8, 52, 92
13, 192865, Note_off_c, 8, 52, 64
13, 192870, Note_on_c, 8, 52, 92
13, 192895, Note_off_c, 8, 52, 64
13, 192900, Note_on_c, 8, 52, 92
13, 192925, Note_off_c, 8, 52, 64
13, 192930, Note_on_c, 8, 52, 92
13, 192955, Note_off_c, 8, 52, 64
13, 192960, Note_on_c, 8, 45, 92
13, 192985, Note_off_c, 8, 45, 64
13, 192990, Note_on_c, 8, 45, 92
13, 193015, Note_off_c, 8, 45, 64
13, 193020, Note_on_c, 8, 45, 92
13, 193045, Note_off_c, 8, 45, 64
13, 193050, Note_on_c, 8, 45, 92
13, 193075, Note_off_c, 8, 45, 64
13, 193080, Note_on_c, 8, 45, 92
13, 193105, Note_off_c, 8, 45, 64
13, 193110, Note_on_c, 8, 45, 92
13, 193135, Note_off_c, 8, 45, 64
13, 193140, Note_on_c, 8, 45, 92
13, 193165, Note_off_c, 8, 45, 64
13, 193170, Note_on_c, 8, 45, 92
13, 193195, Note_off_c, 8, 45, 64
13, 193200, Note_on_c, 8, 45, 92
13, 193225, Note_off_c, 8, 45, 64
13, 193230, Note_on_c, 8, 45, 92
13, 193255, Note_off_c, 8, 45, 64
13, 193260, Note_on_c, 8, 45, 92
13, 193285, Note_off_c, 8, 45, 64
13, 193290, Note_on_c, 8, 45, 92
13, 193315, Note_off_c, 8, 45, 64
13, 193320, Note_on_c, 8, 45, 92
13, 193345, Note_off_c, 8, 45, 64
13, 193350, Note_on_c, 8, 45, 92
13, 193375, Note_off_c, 8, 45, 64
13, 193380, Note_on_c, 8, 45, 92
13, 193405, Note_off_c, 8, 45, 64
13, 193410, Note_on_c, 8, 45, 92
13, 193435, Note_off_c, 8, 45, 64
13, 193440, Note_on_c, 8, 47, 92
13, 193465, Note_off_c, 8, 47, 64
13, 193470, Note_on_c, 8, 47, 92
13, 193495, Note_off_c, 8, 47, 64
13, 193500, Note_on_c, 8, 47, 92
13, 193525, Note_off_c, 8, 47, 64
13, 193530, Note_on_c, 8, 47, 92
13, 193555, Note_off_c, 8, 47, 64
13, 193560, Note_on_c, 8, 47, 92
13, 193585, Note_off_c, 8, 47, 64
13, 193590, Note_on_c, 8, 47, 92
13, 193615, Note_off_c, 8, 47, 64
13, 193620, Note_on_c, 8, 47, 92
13, 193645, Note_off_c, 8, 47, 64
13, 193650, Note_on_c, 8, 47, 92
13, 193675, Note_off_c, 8, 47, 64
13, 193680, Note_on_c, 8, 47, 92
13, 193705, Note_off_c, 8, 47, 64
13, 193710, Note_on_c, 8, 47, 92
13, 193735, Note_off_c, 8, 47, 64
13, 193740, Note_on_c, 8, 47, 92
13, 193765, Note_off_c, 8, 47, 64
13, 193770, Note_on_c, 8, 47, 92
13, 193795, Note_off_c, 8, 47, 64
13, 193800, Note_on_c, 8, 47, 92
13, 193825, Note_off_c, 8, 47, 64
13, 193830, Note_on_c, 8, 47, 92
13, 193855, Note_off_c, 8, 47, 64
13, 193860, Note_on_c, 8, 47, 92
13, 193885, Note_off_c, 8, 47, 64
13, 193890, Note_on_c, 8, 47, 92
13, 193915, Note_off_c, 8, 47, 64
13, 193920, Note_on_c, 8, 47, 92
13, 193945, Note_off_c, 8, 47, 64
13, 193950, Note_on_c, 8, 47, 92
13, 193975, Note_off_c, 8, 47, 64
13, 193980, Note_on_c, 8, 47, 92
13, 194005, Note_off_c, 8, 47, 64
13, 194010, Note_on_c, 8, 47, 92
13, 194035, Note_off_c, 8, 47, 64
13, 194040, Note_on_c, 8, 47, 92
13, 194065, Note_off_c, 8, 47, 64
13, 194070, Note_on_c, 8, 47, 92
13, 194095, Note_off_c, 8, 47, 64
13, 194100, Note_on_c, 8, 47, 92
13, 194125, Note_off_c, 8, 47, 64
13, 194130, Note_on_c, 8, 47, 92
13, 194155, Note_off_c, 8, 47, 64
13, 194160, Note_on_c, 8, 47, 92
13, 194185, Note_off_c, 8, 47, 64
13, 194190, Note_on_c, 8, 47, 92
13, 194215, Note_off_c, 8, 47, 64
13, 194220, Note_on_c, 8, 47, 92
13, 194245, Note_off_c, 8, 47, 64
13, 194250, Note_on_c, 8, 47, 92
13, 194275, Note_off_c, 8, 47, 64
13, 194280, Note_on_c, 8, 47, 92
13, 194305, Note_off_c, 8, 47, 64
13, 194310, Note_on_c, 8, 47, 92
13, 194335, Note_off_c, 8, 47, 64
13, 194340, Note_on_c, 8, 47, 92
13, 194365, Note_off_c, 8, 47, 64
13, 194370, Note_on_c, 8, 47, 92
13, 194395, Note_off_c, 8, 47, 64
13, 194400, Note_on_c, 8, 52, 92
13, 195040, Note_off_c, 8, 52, 64
13, 195120, Note_on_c, 8, 52, 92
13, 195355, Note_off_c, 8, 52, 64
13, 195360, Note_on_c, 8, 52, 92
13, 195595, Note_off_c, 8, 52, 64
13, 195600, Note_on_c, 8, 47, 92
13, 195835, Note_off_c, 8, 47, 64
13, 195840, Note_on_c, 8, 52, 92
13, 196480, Note_off_c, 8, 52, 64
13, 196560, Note_on_c, 8, 52, 92
13, 196795, Note_off_c, 8, 52, 64
13, 196800, Note_on_c, 8, 52, 92
13, 197035, Note_off_c, 8, 52, 64
13, 197040, Note_on_c, 8, 47, 92
13, 197275, Note_off_c, 8, 47, 64
13, 197280, Note_on_c, 8, 52, 92
13, 197305, Note_off_c, 8, 52, 64
13, 197310, Note_on_c, 8, 52, 92
13, 197335, Note_off_c, 8, 52, 64
13, 197340, Note_on_c, 8, 52, 92
13, 197365, Note_off_c, 8, 52, 64
13, 197370, Note_on_c, 8, 52, 92
13, 197395, Note_off_c, 8, 52, 64
13, 197400, Note_on_c, 8, 52, 92
13, 197425, Note_off_c, 8, 52, 64
13, 197430, Note_on_c, 8, 52, 92
13, 197455, Note_off_c, 8, 52, 64
13, 197460, Note_on_c, 8, 52, 92
13, 197485, Note_off_c, 8, 52, 64
13, 197490, Note_on_c, 8, 52, 92
13, 197515, Note_off_c, 8, 52, 64
13, 197520, Note_on_c, 8, 52, 92
13, 197545, Note_off_c, 8, 52, 64
13, 197550, Note_on_c, 8, 52, 92
13, 197575, Note_off_c, 8, 52, 64
13, 197580, Note_on_c, 8, 52, 92
13, 197605, Note_off_c, 8, 52, 64
13, 197610, Note_on_c, 8, 52, 92
13, 197635, Note_off_c, 8, 52, 64
13, 197640, Note_on_c, 8, 52, 92
13, 197665, Note_off_c, 8, 52, 64
13, 197670, Note_on_c, 8, 52, 92
13, 197695, Note_off_c, 8, 52, 64
13, 197700, Note_on_c, 8, 52, 92
13, 197725, Note_off_c, 8, 52, 64
13, 197730, Note_on_c, 8, 52, 92
13, 197755, Note_off_c, 8, 52, 64
13, 197760, Note_on_c, 8, 52, 92
13, 197785, Note_off_c, 8, 52, 64
13, 197790, Note_on_c, 8, 52, 92
13, 197815, Note_off_c, 8, 52, 64
13, 197820, Note_on_c, 8, 52, 92
13, 197845, Note_off_c, 8, 52, 64
13, 197850, Note_on_c, 8, 52, 92
13, 197875, Note_off_c, 8, 52, 64
13, 197880, Note_on_c, 8, 52, 92
13, 197905, Note_off_c, 8, 52, 64
13, 197910, Note_on_c, 8, 52, 92
13, 197935, Note_off_c, 8, 52, 64
13, 197940, Note_on_c, 8, 52, 92
13, 197965, Note_off_c, 8, 52, 64
13, 197970, Note_on_c, 8, 52, 92
13, 197995, Note_off_c, 8, 52, 64
13, 198000, Note_on_c, 8, 52, 92
13, 198025, Note_off_c, 8, 52, 64
13, 198030, Note_on_c, 8, 52, 92
13, 198055, Note_off_c, 8, 52, 64
13, 198060, Note_on_c, 8, 52, 92
13, 198085, Note_off_c, 8, 52, 64
13, 198090, Note_on_c, 8, 52, 92
13, 198115, Note_off_c, 8, 52, 64
13, 198120, Note_on_c, 8, 52, 92
13, 198145, Note_off_c, 8, 52, 64
13, 198150, Note_on_c, 8, 52, 92
13, 198175, Note_off_c, 8, 52, 64
13, 198180, Note_on_c, 8, 52, 92
13, 198205, Note_off_c, 8, 52, 64
13, 198210, Note_on_c, 8, 52, 92
13, 198235, Note_off_c, 8, 52, 64
13, 198240, Note_on_c, 8, 52, 92
13, 198265, Note_off_c, 8, 52, 64
13, 198270, Note_on_c, 8, 52, 92
13, 198295, Note_off_c, 8, 52, 64
13, 198300, Note_on_c, 8, 52, 92
13, 198325, Note_off_c, 8, 52, 64
13, 198330, Note_on_c, 8, 52, 92
13, 198355, Note_off_c, 8, 52, 64
13, 198360, Note_on_c, 8, 52, 92
13, 198385, Note_off_c, 8, 52, 64
13, 198390, Note_on_c, 8, 52, 92
13, 198415, Note_off_c, 8, 52, 64
13, 198420, Note_on_c, 8, 52, 92
13, 198445, Note_off_c, 8, 52, 64
13, 198450, Note_on_c, 8, 52, 92
13, 198475, Note_off_c, 8, 52, 64
13, 198480, Note_on_c, 8, 52, 92
13, 198505, Note_off_c, 8, 52, 64
13, 198510, Note_on_c, 8, 52, 92
13, 198535, Note_off_c, 8, 52, 64
13, 198540, Note_on_c, 8, 52, 92
13, 198565, Note_off_c, 8, 52, 64
13, 198570, Note_on_c, 8, 52, 92
13, 198595, Note_off_c, 8, 52, 64
13, 198600, Note_on_c, 8, 52, 92
13, 198625, Note_off_c, 8, 52, 64
13, 198630, Note_on_c, 8, 52, 92
13, 198655, Note_off_c, 8, 52, 64
13, 198660, Note_on_c, 8, 52, 92
13, 198685, Note_off_c, 8, 52, 64
13, 198690, Note_on_c, 8, 52, 92
13, 198715, Note_off_c, 8, 52, 64
13, 198720, Note_on_c, 8, 52, 92
13, 198745, Note_off_c, 8, 52, 64
13, 198750, Note_on_c, 8, 52, 92
13, 198775, Note_off_c, 8, 52, 64
13, 198780, Note_on_c, 8, 52, 92
13, 198805, Note_off_c, 8, 52, 64
13, 198810, Note_on_c, 8, 52, 92
13, 198835, Note_off_c, 8, 52, 64
13, 198840, Note_on_c, 8, 52, 92
13, 198865, Note_off_c, 8, 52, 64
13, 198870, Note_on_c, 8, 52, 92
13, 198895, Note_off_c, 8, 52, 64
13, 198900, Note_on_c, 8, 52, 92
13, 198925, Note_off_c, 8, 52, 64
13, 198930, Note_on_c, 8, 52, 92
13, 198955, Note_off_c, 8, 52, 64
13, 198960, Note_on_c, 8, 52, 92
13, 199195, Note_off_c, 8, 52, 64
13, 199195, End_track
14, 0, Start_track
14, 0, MIDI_port, 0
14, 0, Channel_prefix, 10
14, 0, Control_c, 10, 7, 127
14, 0, Control_c, 10, 10, 55
14, 0, Control_c, 10, 91, 127
14, 0, Program_c, 10, 48
14, 240, Note_on_c, 10, 88, 108
14, 360, Note_off_c, 10, 88, 64
14, 360, Note_on_c, 10, 87, 108
14, 445, Note_off_c, 10, 87, 64
14, 480, Note_on_c, 10, 88, 108
14, 560, Note_off_c, 10, 88, 64
14, 720, Note_on_c, 10, 83, 108
14, 800, Note_off_c, 10, 83, 64
14, 960, Note_on_c, 10, 80, 108
14, 1040, Note_off_c, 10, 80, 64
14, 1200, Note_on_c, 10, 83, 108
14, 1280, Note_off_c, 10, 83, 64
14, 1440, Note_on_c, 10, 76, 108
14, 1560, Note_off_c, 10, 76, 64
14, 1560, Note_on_c, 10, 78, 108
14, 1680, Note_off_c, 10, 78, 64
14, 1680, Note_on_c, 10, 76, 108
14, 1800, Note_off_c, 10, 76, 64
14, 1800, Note_on_c, 10, 75, 108
14, 1920, Note_off_c, 10, 75, 64
14, 1920, Note_on_c, 10, 76, 108
14, 2000, Note_off_c, 10, 76, 64
14, 2160, Note_on_c, 10, 71, 108
14, 2240, Note_off_c, 10, 71, 64
14, 2400, Note_on_c, 10, 68, 108
14, 2480, Note_off_c, 10, 68, 64
14, 2640, Note_on_c, 10, 71, 108
14, 2720, Note_off_c, 10, 71, 64
14, 2880, Note_on_c, 10, 64, 108
14, 3000, Note_off_c, 10, 64, 64
14, 3000, Note_on_c, 10, 71, 108
14, 3115, Note_off_c, 10, 71, 64
14, 3120, Note_on_c, 10, 66, 108
14, 3240, Note_off_c, 10, 66, 64
14, 3240, Note_on_c, 10, 71, 108
14, 3355, Note_off_c, 10, 71, 64
14, 3360, Note_on_c, 10, 68, 108
14, 3480, Note_off_c, 10, 68, 64
14, 3480, Note_on_c, 10, 71, 108
14, 3595, Note_off_c, 10, 71, 64
14, 3600, Note_on_c, 10, 69, 108
14, 3720, Note_off_c, 10, 69, 64
14, 3720, Note_on_c, 10, 71, 108
14, 3835, Note_off_c, 10, 71, 64
14, 3840, Note_on_c, 10, 68, 108
14, 3960, Note_off_c, 10, 68, 64
14, 3960, Note_on_c, 10, 71, 108
14, 4075, Note_off_c, 10, 71, 64
14, 4080, Note_on_c, 10, 66, 108
14, 4200, Note_off_c, 10, 66, 64
14, 4200, Note_on_c, 10, 71, 108
14, 4315, Note_off_c, 10, 71, 64
14, 4320, Note_on_c, 10, 64, 108
14, 4440, Note_off_c, 10, 64, 64
14, 4440, Note_on_c, 10, 76, 108
14, 4555, Note_off_c, 10, 76, 64
14, 4560, Note_on_c, 10, 75, 108
14, 4675, Note_off_c, 10, 75, 64
14, 4680, Note_on_c, 10, 73, 108
14, 4795, Note_off_c, 10, 73, 64
14, 4800, Note_on_c, 10, 71, 108
14, 4920, Note_off_c, 10, 71, 64
14, 4920, Note_on_c, 10, 76, 108
14, 5035, Note_off_c, 10, 76, 64
14, 5040, Note_on_c, 10, 75, 108
14, 5155, Note_off_c, 10, 75, 64
14, 5160, Note_on_c, 10, 73, 108
14, 5275, Note_off_c, 10, 73, 64
14, 5280, Note_on_c, 10, 71, 108
14, 5395, Note_off_c, 10, 71, 64
14, 5400, Note_on_c, 10, 69, 108
14, 5515, Note_off_c, 10, 69, 64
14, 5520, Note_on_c, 10, 68, 108
14, 5635, Note_off_c, 10, 68, 64
14, 5640, Note_on_c, 10, 66, 108
14, 5755, Note_off_c, 10, 66, 64
14, 5760, Note_on_c, 10, 64, 75
14, 5880, Note_off_c, 10, 64, 64
14, 5880, Note_on_c, 10, 71, 75
14, 5995, Note_off_c, 10, 71, 64
14, 6000, Note_on_c, 10, 66, 75
14, 6120, Note_off_c, 10, 66, 64
14, 6120, Note_on_c, 10, 71, 75
14, 6235, Note_off_c, 10, 71, 64
14, 6240, Note_on_c, 10, 68, 75
14, 6360, Note_off_c, 10, 68, 64
14, 6360, Note_on_c, 10, 71, 75
14, 6475, Note_off_c, 10, 71, 64
14, 6480, Note_on_c, 10, 69, 75
14, 6600, Note_off_c, 10, 69, 64
14, 6600, Note_on_c, 10, 71, 75
14, 6715, Note_off_c, 10, 71, 64
14, 6720, Note_on_c, 10, 68, 75
14, 6840, Note_off_c, 10, 68, 64
14, 6840, Note_on_c, 10, 71, 75
14, 6955, Note_off_c, 10, 71, 64
14, 6960, Note_on_c, 10, 66, 75
14, 7080, Note_off_c, 10, 66, 64
14, 7080, Note_on_c, 10, 71, 75
14, 7195, Note_off_c, 10, 71, 64
14, 7200, Note_on_c, 10, 64, 75
14, 7280, Note_off_c, 10, 64, 64
14, 7320, Note_on_c, 10, 76, 75
14, 7400, Note_off_c, 10, 76, 64
14, 7440, Note_on_c, 10, 75, 75
14, 7520, Note_off_c, 10, 75, 64
14, 7560, Note_on_c, 10, 73, 75
14, 7640, Note_off_c, 10, 73, 64
14, 7680, Note_on_c, 10, 71, 75
14, 7760, Note_off_c, 10, 71, 64
14, 7800, Note_on_c, 10, 76, 75
14, 7880, Note_off_c, 10, 76, 64
14, 7920, Note_on_c, 10, 75, 75
14, 8000, Note_off_c, 10, 75, 64
14, 8040, Note_on_c, 10, 73, 75
14, 8120, Note_off_c, 10, 73, 64
14, 8160, Note_on_c, 10, 71, 75
14, 8240, Note_off_c, 10, 71, 64
14, 8280, Note_on_c, 10, 69, 75
14, 8360, Note_off_c, 10, 69, 64
14, 8400, Note_on_c, 10, 68, 75
14, 8480, Note_off_c, 10, 68, 64
14, 8520, Note_on_c, 10, 66, 75
14, 8600, Note_off_c, 10, 66, 64
14, 8640, Note_on_c, 10, 64, 75
14, 8760, Note_off_c, 10, 64, 64
14, 8760, Note_on_c, 10, 66, 76
14, 8880, Note_off_c, 10, 66, 64
14, 8880, Note_on_c, 10, 68, 77
14, 8960, Note_off_c, 10, 68, 64
14, 9000, Note_on_c, 10, 69, 78
14, 9080, Note_off_c, 10, 69, 64
14, 9120, Note_on_c, 10, 71, 79
14, 9200, Note_off_c, 10, 71, 64
14, 9240, Note_on_c, 10, 73, 80
14, 9320, Note_off_c, 10, 73, 64
14, 9360, Note_on_c, 10, 75, 81
14, 9440, Note_off_c, 10, 75, 64
14, 9480, Note_on_c, 10, 76, 82
14, 9560, Note_off_c, 10, 76, 64
14, 9600, Note_on_c, 10, 78, 83
14, 9680, Note_off_c, 10, 78, 64
14, 9720, Note_on_c, 10, 80, 84
14, 9800, Note_off_c, 10, 80, 64
14, 9840, Note_on_c, 10, 81, 85
14, 9920, Note_off_c, 10, 81, 64
14, 9960, Note_on_c, 10, 78, 86
14, 10040, Note_off_c, 10, 78, 64
14, 10080, Note_on_c, 10, 80, 87
14, 10200, Note_off_c, 10, 80, 64
14, 10200, Note_on_c, 10, 83, 88
14, 10280, Note_off_c, 10, 83, 64
14, 10320, Note_on_c, 10, 76, 89
14, 10400, Note_off_c, 10, 76, 64
14, 10440, Note_on_c, 10, 78, 90
14, 10520, Note_off_c, 10, 78, 64
14, 10560, Note_on_c, 10, 80, 92
14, 10640, Note_off_c, 10, 80, 64
14, 10680, Note_on_c, 10, 81, 94
14, 10760, Note_off_c, 10, 81, 64
14, 10800, Note_on_c, 10, 83, 96
14, 10880, Note_off_c, 10, 83, 64
14, 10920, Note_on_c, 10, 85, 98
14, 11000, Note_off_c, 10, 85, 64
14, 11040, Note_on_c, 10, 87, 100
14, 11160, Note_off_c, 10, 87, 64
14, 11160, Note_on_c, 10, 88, 102
14, 11240, Note_off_c, 10, 88, 64
14, 11280, Note_on_c, 10, 85, 104
14, 11360, Note_off_c, 10, 85, 64
14, 11400, Note_on_c, 10, 87, 106
14, 11480, Note_off_c, 10, 87, 64
14, 11520, Note_on_c, 10, 88, 108
14, 11635, Note_off_c, 10, 88, 64
14, 11640, Note_on_c, 10, 83, 108
14, 11755, Note_off_c, 10, 83, 64
14, 11760, Note_on_c, 10, 81, 108
14, 11880, Note_off_c, 10, 81, 64
14, 11880, Note_on_c, 10, 83, 108
14, 11995, Note_off_c, 10, 83, 64
14, 12000, Note_on_c, 10, 80, 108
14, 12120, Note_off_c, 10, 80, 64
14, 12120, Note_on_c, 10, 83, 108
14, 12235, Note_off_c, 10, 83, 64
14, 12240, Note_on_c, 10, 81, 108
14, 12360, Note_off_c, 10, 81, 64
14, 12360, Note_on_c, 10, 83, 108
14, 12475, Note_off_c, 10, 83, 64
14, 12480, Note_on_c, 10, 80, 108
14, 12600, Note_off_c, 10, 80, 64
14, 12600, Note_on_c, 10, 83, 108
14, 12715, Note_off_c, 10, 83, 64
14, 12720, Note_on_c, 10, 78, 108
14, 12840, Note_off_c, 10, 78, 64
14, 12840, Note_on_c, 10, 83, 108
14, 12955, Note_off_c, 10, 83, 64
14, 12960, Note_on_c, 10, 76, 108
14, 13075, Note_off_c, 10, 76, 64
14, 13080, Note_on_c, 10, 88, 108
14, 13200, Note_off_c, 10, 88, 64
14, 13200, Note_on_c, 10, 87, 108
14, 13320, Note_off_c, 10, 87, 64
14, 13320, Note_on_c, 10, 85, 108
14, 13435, Note_off_c, 10, 85, 64
14, 13440, Note_on_c, 10, 83, 108
14, 13555, Note_off_c, 10, 83, 64
14, 13560, Note_on_c, 10, 76, 108
14, 13680, Note_off_c, 10, 76, 64
14, 13680, Note_on_c, 10, 85, 108
14, 13795, Note_off_c, 10, 85, 64
14, 13800, Note_on_c, 10, 76, 108
14, 13920, Note_off_c, 10, 76, 64
14, 13920, Note_on_c, 10, 83, 108
14, 14035, Note_off_c, 10, 83, 64
14, 14040, Note_on_c, 10, 76, 108
14, 14160, Note_off_c, 10, 76, 64
14, 14160, Note_on_c, 10, 81, 108
14, 14275, Note_off_c, 10, 81, 64
14, 14280, Note_on_c, 10, 76, 108
14, 14395, Note_off_c, 10, 76, 64
14, 14400, Note_on_c, 10, 80, 60
14, 14520, Note_off_c, 10, 80, 64
14, 14520, Note_on_c, 10, 83, 60
14, 14635, Note_off_c, 10, 83, 64
14, 14640, Note_on_c, 10, 78, 60
14, 14760, Note_off_c, 10, 78, 64
14, 14760, Note_on_c, 10, 83, 60
14, 14875, Note_off_c, 10, 83, 64
14, 14880, Note_on_c, 10, 80, 60
14, 15000, Note_off_c, 10, 80, 64
14, 15000, Note_on_c, 10, 83, 60
14, 15115, Note_off_c, 10, 83, 64
14, 15120, Note_on_c, 10, 81, 60
14, 15240, Note_off_c, 10, 81, 64
14, 15240, Note_on_c, 10, 83, 60
14, 15355, Note_off_c, 10, 83, 64
14, 15360, Note_on_c, 10, 80, 60
14, 15480, Note_off_c, 10, 80, 64
14, 15480, Note_on_c, 10, 83, 60
14, 15595, Note_off_c, 10, 83, 64
14, 15600, Note_on_c, 10, 78, 60
14, 15720, Note_off_c, 10, 78, 64
14, 15720, Note_on_c, 10, 83, 60
14, 15835, Note_off_c, 10, 83, 64
14, 15840, Note_on_c, 10, 76, 60
14, 15955, Note_off_c, 10, 76, 64
14, 15960, Note_on_c, 10, 88, 62
14, 16080, Note_off_c, 10, 88, 64
14, 16080, Note_on_c, 10, 87, 64
14, 16200, Note_off_c, 10, 87, 64
14, 16200, Note_on_c, 10, 85, 66
14, 16315, Note_off_c, 10, 85, 64
14, 16320, Note_on_c, 10, 83, 68
14, 16435, Note_off_c, 10, 83, 64
14, 16440, Note_on_c, 10, 76, 71
14, 16560, Note_off_c, 10, 76, 64
14, 16560, Note_on_c, 10, 85, 74
14, 16675, Note_off_c, 10, 85, 64
14, 16680, Note_on_c, 10, 76, 77
14, 16800, Note_off_c, 10, 76, 64
14, 16800, Note_on_c, 10, 83, 80
14, 16915, Note_off_c, 10, 83, 64
14, 16920, Note_on_c, 10, 76, 83
14, 17040, Note_off_c, 10, 76, 64
14, 17040, Note_on_c, 10, 81, 86
14, 17155, Note_off_c, 10, 81, 64
14, 17160, Note_on_c, 10, 76, 89
14, 17275, Note_off_c, 10, 76, 64
14, 17280, Note_on_c, 10, 80, 92
14, 17400, Note_off_c, 10, 80, 64
14, 17400, Note_on_c, 10, 76, 92
14, 17515, Note_off_c, 10, 76, 64
14, 17520, Note_on_c, 10, 76, 92
14, 17635, Note_off_c, 10, 76, 64
14, 17640, Note_on_c, 10, 76, 92
14, 17755, Note_off_c, 10, 76, 64
14, 17760, Note_on_c, 10, 75, 92
14, 17880, Note_off_c, 10, 75, 64
14, 17880, Note_on_c, 10, 76, 92
14, 17995, Note_off_c, 10, 76, 64
14, 18000, Note_on_c, 10, 76, 92
14, 18115, Note_off_c, 10, 76, 64
14, 18120, Note_on_c, 10, 76, 92
14, 18235, Note_off_c, 10, 76, 64
14, 18240, Note_on_c, 10, 78, 92
14, 18360, Note_off_c, 10, 78, 64
14, 18360, Note_on_c, 10, 76, 92
14, 18480, Note_off_c, 10, 76, 64
14, 18480, Note_on_c, 10, 75, 92
14, 18600, Note_off_c, 10, 75, 64
14, 18600, Note_on_c, 10, 76, 92
14, 18715, Note_off_c, 10, 76, 64
14, 18720, Note_on_c, 10, 76, 92
14, 18835, Note_off_c, 10, 76, 64
14, 18840, Note_on_c, 10, 76, 92
14, 18955, Note_off_c, 10, 76, 64
14, 18960, Note_on_c, 10, 80, 92
14, 19075, Note_off_c, 10, 80, 64
14, 19080, Note_on_c, 10, 76, 92
14, 19195, Note_off_c, 10, 76, 64
14, 19200, Note_on_c, 10, 78, 92
14, 19315, Note_off_c, 10, 78, 64
14, 19320, Note_on_c, 10, 76, 92
14, 19435, Note_off_c, 10, 76, 64
14, 19440, Note_on_c, 10, 80, 92
14, 19555, Note_off_c, 10, 80, 64
14, 19560, Note_on_c, 10, 76, 92
14, 19675, Note_off_c, 10, 76, 64
14, 19680, Note_on_c, 10, 81, 92
14, 19795, Note_off_c, 10, 81, 64
14, 19800, Note_on_c, 10, 76, 92
14, 19915, Note_off_c, 10, 76, 64
14, 19920, Note_on_c, 10, 78, 92
14, 20035, Note_off_c, 10, 78, 64
14, 20040, Note_on_c, 10, 76, 92
14, 20155, Note_off_c, 10, 76, 64
14, 20160, Note_on_c, 10, 80, 92
14, 20280, Note_off_c, 10, 80, 64
14, 20280, Note_on_c, 10, 76, 60
14, 20360, Note_off_c, 10, 76, 64
14, 20400, Note_on_c, 10, 76, 60
14, 20480, Note_off_c, 10, 76, 64
14, 20520, Note_on_c, 10, 76, 60
14, 20600, Note_off_c, 10, 76, 64
14, 20640, Note_on_c, 10, 75, 60
14, 20760, Note_off_c, 10, 75, 64
14, 20760, Note_on_c, 10, 76, 60
14, 20840, Note_off_c, 10, 76, 64
14, 20880, Note_on_c, 10, 76, 60
14, 20960, Note_off_c, 10, 76, 64
14, 21000, Note_on_c, 10, 76, 60
14, 21080, Note_off_c, 10, 76, 64
14, 21120, Note_on_c, 10, 78, 60
14, 21240, Note_off_c, 10, 78, 64
14, 21240, Note_on_c, 10, 76, 60
14, 21360, Note_off_c, 10, 76, 64
14, 21360, Note_on_c, 10, 75, 60
14, 21480, Note_off_c, 10, 75, 64
14, 21480, Note_on_c, 10, 76, 60
14, 21595, Note_off_c, 10, 76, 64
14, 21600, Note_on_c, 10, 76, 60
14, 21680, Note_off_c, 10, 76, 64
14, 21720, Note_on_c, 10, 76, 60
14, 21800, Note_off_c, 10, 76, 64
14, 21840, Note_on_c, 10, 80, 60
14, 21920, Note_off_c, 10, 80, 64
14, 21960, Note_on_c, 10, 76, 60
14, 22040, Note_off_c, 10, 76, 64
14, 22080, Note_on_c, 10, 78, 60
14, 22160, Note_off_c, 10, 78, 64
14, 22200, Note_on_c, 10, 76, 60
14, 22280, Note_off_c, 10, 76, 64
14, 22320, Note_on_c, 10, 80, 60
14, 22400, Note_off_c, 10, 80, 64
14, 22440, Note_on_c, 10, 76, 60
14, 22520, Note_off_c, 10, 76, 64
14, 22560, Note_on_c, 10, 81, 60
14, 22640, Note_off_c, 10, 81, 64
14, 22680, Note_on_c, 10, 76, 60
14, 22760, Note_off_c, 10, 76, 64
14, 22800, Note_on_c, 10, 78, 60
14, 22880, Note_off_c, 10, 78, 64
14, 22920, Note_on_c, 10, 76, 60
14, 23000, Note_off_c, 10, 76, 64
14, 23040, Note_on_c, 10, 80, 75
14, 23160, Note_off_c, 10, 80, 64
14, 23160, Note_on_c, 10, 76, 75
14, 23280, Note_off_c, 10, 76, 64
14, 23280, Note_on_c, 10, 80, 75
14, 23395, Note_off_c, 10, 80, 64
14, 23400, Note_on_c, 10, 76, 75
14, 23515, Note_off_c, 10, 76, 64
14, 23520, Note_on_c, 10, 80, 75
14, 23640, Note_off_c, 10, 80, 64
14, 23640, Note_on_c, 10, 76, 75
14, 23760, Note_off_c, 10, 76, 64
14, 23760, Note_on_c, 10, 80, 75
14, 23875, Note_off_c, 10, 80, 64
14, 23880, Note_on_c, 10, 76, 75
14, 23995, Note_off_c, 10, 76, 64
14, 24000, Note_on_c, 10, 80, 75
14, 24120, Note_off_c, 10, 80, 64
14, 24120, Note_on_c, 10, 76, 75
14, 24240, Note_off_c, 10, 76, 64
14, 24240, Note_on_c, 10, 80, 75
14, 24355, Note_off_c, 10, 80, 64
14, 24360, Note_on_c, 10, 76, 75
14, 24475, Note_off_c, 10, 76, 64
14, 24480, Note_on_c, 10, 80, 75
14, 24600, Note_off_c, 10, 80, 64
14, 24600, Note_on_c, 10, 76, 75
14, 24720, Note_off_c, 10, 76, 64
14, 24720, Note_on_c, 10, 80, 75
14, 24835, Note_off_c, 10, 80, 64
14, 24840, Note_on_c, 10, 75, 75
14, 24955, Note_off_c, 10, 75, 64
14, 24960, Note_on_c, 10, 80, 75
14, 25080, Note_off_c, 10, 80, 64
14, 25080, Note_on_c, 10, 76, 75
14, 25200, Note_off_c, 10, 76, 64
14, 25200, Note_on_c, 10, 80, 75
14, 25315, Note_off_c, 10, 80, 64
14, 25320, Note_on_c, 10, 75, 75
14, 25435, Note_off_c, 10, 75, 64
14, 25440, Note_on_c, 10, 80, 75
14, 25560, Note_off_c, 10, 80, 64
14, 25560, Note_on_c, 10, 76, 75
14, 25680, Note_off_c, 10, 76, 64
14, 25680, Note_on_c, 10, 80, 75
14, 25795, Note_off_c, 10, 80, 64
14, 25800, Note_on_c, 10, 75, 75
14, 25915, Note_off_c, 10, 75, 64
14, 25920, Note_on_c, 10, 80, 75
14, 26040, Note_off_c, 10, 80, 64
14, 26040, Note_on_c, 10, 76, 75
14, 26160, Note_off_c, 10, 76, 64
14, 26160, Note_on_c, 10, 80, 75
14, 26275, Note_off_c, 10, 80, 64
14, 26280, Note_on_c, 10, 74, 75
14, 26395, Note_off_c, 10, 74, 64
14, 26400, Note_on_c, 10, 80, 75
14, 26520, Note_off_c, 10, 80, 64
14, 26520, Note_on_c, 10, 76, 75
14, 26640, Note_off_c, 10, 76, 64
14, 26640, Note_on_c, 10, 80, 75
14, 26755, Note_off_c, 10, 80, 64
14, 26760, Note_on_c, 10, 74, 75
14, 26875, Note_off_c, 10, 74, 64
14, 26880, Note_on_c, 10, 80, 75
14, 27000, Note_off_c, 10, 80, 64
14, 27000, Note_on_c, 10, 76, 75
14, 27120, Note_off_c, 10, 76, 64
14, 27120, Note_on_c, 10, 80, 75
14, 27235, Note_off_c, 10, 80, 64
14, 27240, Note_on_c, 10, 74, 75
14, 27355, Note_off_c, 10, 74, 64
14, 27360, Note_on_c, 10, 81, 75
14, 27480, Note_off_c, 10, 81, 64
14, 27480, Note_on_c, 10, 76, 76
14, 27600, Note_off_c, 10, 76, 64
14, 27600, Note_on_c, 10, 81, 77
14, 27715, Note_off_c, 10, 81, 64
14, 27720, Note_on_c, 10, 73, 78
14, 27835, Note_off_c, 10, 73, 64
14, 27840, Note_on_c, 10, 81, 79
14, 27960, Note_off_c, 10, 81, 64
14, 27960, Note_on_c, 10, 76, 80
14, 28080, Note_off_c, 10, 76, 64
14, 28080, Note_on_c, 10, 81, 81
14, 28195, Note_off_c, 10, 81, 64
14, 28200, Note_on_c, 10, 73, 82
14, 28315, Note_off_c, 10, 73, 64
14, 28320, Note_on_c, 10, 81, 84
14, 28440, Note_off_c, 10, 81, 64
14, 28440, Note_on_c, 10, 76, 86
14, 28555, Note_off_c, 10, 76, 64
14, 28560, Note_on_c, 10, 81, 88
14, 28675, Note_off_c, 10, 81, 64
14, 28680, Note_on_c, 10, 73, 90
14, 28795, Note_off_c, 10, 73, 64
14, 28800, Note_on_c, 10, 81, 92
14, 28920, Note_off_c, 10, 81, 64
14, 28920, Note_on_c, 10, 76, 92
14, 29040, Note_off_c, 10, 76, 64
14, 29040, Note_on_c, 10, 81, 92
14, 29155, Note_off_c, 10, 81, 64
14, 29160, Note_on_c, 10, 71, 92
14, 29275, Note_off_c, 10, 71, 64
14, 29280, Note_on_c, 10, 81, 92
14, 29400, Note_off_c, 10, 81, 64
14, 29400, Note_on_c, 10, 76, 92
14, 29520, Note_off_c, 10, 76, 64
14, 29520, Note_on_c, 10, 81, 92
14, 29635, Note_off_c, 10, 81, 64
14, 29640, Note_on_c, 10, 71, 92
14, 29755, Note_off_c, 10, 71, 64
14, 29760, Note_on_c, 10, 81, 92
14, 29880, Note_off_c, 10, 81, 64
14, 29880, Note_on_c, 10, 76, 92
14, 30000, Note_off_c, 10, 76, 64
14, 30000, Note_on_c, 10, 81, 92
14, 30115, Note_off_c, 10, 81, 64
14, 30120, Note_on_c, 10, 71, 92
14, 30235, Note_off_c, 10, 71, 64
14, 30240, Note_on_c, 10, 80, 92
14, 30360, Note_off_c, 10, 80, 64
14, 30360, Note_on_c, 10, 76, 90
14, 30480, Note_off_c, 10, 76, 64
14, 30480, Note_on_c, 10, 80, 88
14, 30595, Note_off_c, 10, 80, 64
14, 30600, Note_on_c, 10, 71, 86
14, 30715, Note_off_c, 10, 71, 64
14, 30720, Note_on_c, 10, 80, 84
14, 30840, Note_off_c, 10, 80, 64
14, 30840, Note_on_c, 10, 76, 81
14, 30960, Note_off_c, 10, 76, 64
14, 30960, Note_on_c, 10, 80, 78
14, 31075, Note_off_c, 10, 80, 64
14, 31080, Note_on_c, 10, 71, 75
14, 31195, Note_off_c, 10, 71, 64
14, 31200, Note_on_c, 10, 80, 72
14, 31320, Note_off_c, 10, 80, 64
14, 31320, Note_on_c, 10, 76, 69
14, 31440, Note_off_c, 10, 76, 64
14, 31440, Note_on_c, 10, 80, 66
14, 31555, Note_off_c, 10, 80, 64
14, 31560, Note_on_c, 10, 71, 63
14, 31675, Note_off_c, 10, 71, 64
14, 31680, Note_on_c, 10, 80, 60
14, 31800, Note_off_c, 10, 80, 64
14, 31800, Note_on_c, 10, 76, 60
14, 31920, Note_off_c, 10, 76, 64
14, 31920, Note_on_c, 10, 80, 60
14, 32035, Note_off_c, 10, 80, 64
14, 32040, Note_on_c, 10, 69, 60
14, 32155, Note_off_c, 10, 69, 64
14, 32160, Note_on_c, 10, 80, 60
14, 32280, Note_off_c, 10, 80, 64
14, 32280, Note_on_c, 10, 76, 60
14, 32400, Note_off_c, 10, 76, 64
14, 32400, Note_on_c, 10, 80, 60
14, 32515, Note_off_c, 10, 80, 64
14, 32520, Note_on_c, 10, 69, 60
14, 32635, Note_off_c, 10, 69, 64
14, 32640, Note_on_c, 10, 80, 60
14, 32760, Note_off_c, 10, 80, 64
14, 32760, Note_on_c, 10, 76, 60
14, 32880, Note_off_c, 10, 76, 64
14, 32880, Note_on_c, 10, 80, 60
14, 32995, Note_off_c, 10, 80, 64
14, 33000, Note_on_c, 10, 69, 60
14, 33115, Note_off_c, 10, 69, 64
14, 33120, Note_on_c, 10, 78, 60
14, 33240, Note_off_c, 10, 78, 64
14, 33240, Note_on_c, 10, 76, 60
14, 33360, Note_off_c, 10, 76, 64
14, 33360, Note_on_c, 10, 78, 60
14, 33475, Note_off_c, 10, 78, 64
14, 33480, Note_on_c, 10, 69, 60
14, 33595, Note_off_c, 10, 69, 64
14, 33600, Note_on_c, 10, 78, 60
14, 33720, Note_off_c, 10, 78, 64
14, 33720, Note_on_c, 10, 76, 60
14, 33840, Note_off_c, 10, 76, 64
14, 33840, Note_on_c, 10, 78, 60
14, 33955, Note_off_c, 10, 78, 64
14, 33960, Note_on_c, 10, 69, 60
14, 34075, Note_off_c, 10, 69, 64
14, 34080, Note_on_c, 10, 78, 60
14, 34200, Note_off_c, 10, 78, 64
14, 34200, Note_on_c, 10, 76, 60
14, 34320, Note_off_c, 10, 76, 64
14, 34320, Note_on_c, 10, 78, 60
14, 34435, Note_off_c, 10, 78, 64
14, 34440, Note_on_c, 10, 69, 60
14, 34555, Note_off_c, 10, 69, 64
14, 34560, Note_on_c, 10, 78, 60
14, 34680, Note_off_c, 10, 78, 64
14, 34680, Note_on_c, 10, 76, 60
14, 34800, Note_off_c, 10, 76, 64
14, 34800, Note_on_c, 10, 78, 60
14, 34915, Note_off_c, 10, 78, 64
14, 34920, Note_on_c, 10, 68, 60
14, 35035, Note_off_c, 10, 68, 64
14, 35040, Note_on_c, 10, 78, 60
14, 35160, Note_off_c, 10, 78, 64
14, 35160, Note_on_c, 10, 76, 60
14, 35280, Note_off_c, 10, 76, 64
14, 35280, Note_on_c, 10, 78, 60
14, 35395, Note_off_c, 10, 78, 64
14, 35400, Note_on_c, 10, 68, 60
14, 35515, Note_off_c, 10, 68, 64
14, 35520, Note_on_c, 10, 78, 60
14, 35640, Note_off_c, 10, 78, 64
14, 35640, Note_on_c, 10, 76, 60
14, 35760, Note_off_c, 10, 76, 64
14, 35760, Note_on_c, 10, 78, 60
14, 35875, Note_off_c, 10, 78, 64
14, 35880, Note_on_c, 10, 68, 60
14, 35995, Note_off_c, 10, 68, 64
14, 36000, Note_on_c, 10, 76, 60
14, 36120, Note_off_c, 10, 76, 64
14, 36120, Note_on_c, 10, 76, 60
14, 36240, Note_off_c, 10, 76, 64
14, 36240, Note_on_c, 10, 76, 60
14, 36355, Note_off_c, 10, 76, 64
14, 36360, Note_on_c, 10, 68, 60
14, 36475, Note_off_c, 10, 68, 64
14, 36480, Note_on_c, 10, 76, 60
14, 36600, Note_off_c, 10, 76, 64
14, 36600, Note_on_c, 10, 76, 60
14, 36720, Note_off_c, 10, 76, 64
14, 36720, Note_on_c, 10, 76, 60
14, 36835, Note_off_c, 10, 76, 64
14, 36840, Note_on_c, 10, 68, 60
14, 36955, Note_off_c, 10, 68, 64
14, 36960, Note_on_c, 10, 76, 60
14, 37080, Note_off_c, 10, 76, 64
14, 37080, Note_on_c, 10, 76, 60
14, 37200, Note_off_c, 10, 76, 64
14, 37200, Note_on_c, 10, 76, 60
14, 37315, Note_off_c, 10, 76, 64
14, 37320, Note_on_c, 10, 68, 60
14, 37435, Note_off_c, 10, 68, 64
14, 37440, Note_on_c, 10, 76, 60
14, 37560, Note_off_c, 10, 76, 64
14, 37560, Note_on_c, 10, 76, 60
14, 37680, Note_off_c, 10, 76, 64
14, 37680, Note_on_c, 10, 76, 60
14, 37795, Note_off_c, 10, 76, 64
14, 37800, Note_on_c, 10, 66, 60
14, 37915, Note_off_c, 10, 66, 64
14, 37920, Note_on_c, 10, 76, 60
14, 38040, Note_off_c, 10, 76, 64
14, 38040, Note_on_c, 10, 76, 60
14, 38160, Note_off_c, 10, 76, 64
14, 38160, Note_on_c, 10, 76, 60
14, 38275, Note_off_c, 10, 76, 64
14, 38280, Note_on_c, 10, 66, 60
14, 38395, Note_off_c, 10, 66, 64
14, 38400, Note_on_c, 10, 76, 60
14, 38520, Note_off_c, 10, 76, 64
14, 38520, Note_on_c, 10, 76, 60
14, 38640, Note_off_c, 10, 76, 64
14, 38640, Note_on_c, 10, 76, 60
14, 38755, Note_off_c, 10, 76, 64
14, 38760, Note_on_c, 10, 66, 60
14, 38875, Note_off_c, 10, 66, 64
14, 38880, Note_on_c, 10, 75, 60
14, 39000, Note_off_c, 10, 75, 64
14, 39000, Note_on_c, 10, 76, 60
14, 39120, Note_off_c, 10, 76, 64
14, 39120, Note_on_c, 10, 75, 60
14, 39200, Note_off_c, 10, 75, 64
14, 39240, Note_on_c, 10, 66, 60
14, 39320, Note_off_c, 10, 66, 64
14, 39360, Note_on_c, 10, 75, 60
14, 39480, Note_off_c, 10, 75, 64
14, 39480, Note_on_c, 10, 76, 60
14, 39600, Note_off_c, 10, 76, 64
14, 39600, Note_on_c, 10, 75, 60
14, 39680, Note_off_c, 10, 75, 64
14, 39720, Note_on_c, 10, 66, 60
14, 39800, Note_off_c, 10, 66, 64
14, 39840, Note_on_c, 10, 75, 60
14, 39960, Note_off_c, 10, 75, 64
14, 39960, Note_on_c, 10, 76, 60
14, 40080, Note_off_c, 10, 76, 64
14, 40080, Note_on_c, 10, 75, 60
14, 40160, Note_off_c, 10, 75, 64
14, 40200, Note_on_c, 10, 66, 60
14, 40280, Note_off_c, 10, 66, 64
14, 40320, Note_on_c, 10, 64, 92
14, 40435, Note_off_c, 10, 64, 64
14, 40440, Note_on_c, 10, 66, 92
14, 40555, Note_off_c, 10, 66, 64
14, 40560, Note_on_c, 10, 64, 92
14, 40675, Note_off_c, 10, 64, 64
14, 40680, Note_on_c, 10, 66, 92
14, 40800, Note_off_c, 10, 66, 64
14, 40800, Note_on_c, 10, 68, 92
14, 40920, Note_off_c, 10, 68, 64
14, 40920, Note_on_c, 10, 71, 92
14, 41035, Note_off_c, 10, 71, 64
14, 41040, Note_on_c, 10, 64, 92
14, 41155, Note_off_c, 10, 64, 64
14, 41160, Note_on_c, 10, 66, 92
14, 41280, Note_off_c, 10, 66, 64
14, 41280, Note_on_c, 10, 68, 92
14, 41400, Note_off_c, 10, 68, 64
14, 41400, Note_on_c, 10, 71, 92
14, 41515, Note_off_c, 10, 71, 64
14, 41520, Note_on_c, 10, 64, 92
14, 41635, Note_off_c, 10, 64, 64
14, 41640, Note_on_c, 10, 66, 92
14, 41755, Note_off_c, 10, 66, 64
14, 41760, Note_on_c, 10, 68, 92
14, 41875, Note_off_c, 10, 68, 64
14, 41880, Note_on_c, 10, 69, 92
14, 41995, Note_off_c, 10, 69, 64
14, 42000, Note_on_c, 10, 68, 92
14, 42120, Note_off_c, 10, 68, 64
14, 42120, Note_on_c, 10, 69, 92
14, 42240, Note_off_c, 10, 69, 64
14, 42240, Note_on_c, 10, 71, 92
14, 42355, Note_off_c, 10, 71, 64
14, 42360, Note_on_c, 10, 76, 92
14, 42475, Note_off_c, 10, 76, 64
14, 42480, Note_on_c, 10, 68, 92
14, 42600, Note_off_c, 10, 68, 64
14, 42600, Note_on_c, 10, 69, 92
14, 42720, Note_off_c, 10, 69, 64
14, 42720, Note_on_c, 10, 71, 92
14, 42835, Note_off_c, 10, 71, 64
14, 42840, Note_on_c, 10, 76, 93
14, 42955, Note_off_c, 10, 76, 64
14, 42960, Note_on_c, 10, 68, 94
14, 43075, Note_off_c, 10, 68, 64
14, 43080, Note_on_c, 10, 69, 95
14, 43195, Note_off_c, 10, 69, 64
14, 43200, Note_on_c, 10, 71, 96
14, 43315, Note_off_c, 10, 71, 64
14, 43320, Note_on_c, 10, 73, 97
14, 43435, Note_off_c, 10, 73, 64
14, 43440, Note_on_c, 10, 71, 98
14, 43560, Note_off_c, 10, 71, 64
14, 43560, Note_on_c, 10, 73, 99
14, 43680, Note_off_c, 10, 73, 64
14, 43680, Note_on_c, 10, 74, 100
14, 43795, Note_off_c, 10, 74, 64
14, 43800, Note_on_c, 10, 80, 101
14, 43915, Note_off_c, 10, 80, 64
14, 43920, Note_on_c, 10, 71, 102
14, 44040, Note_off_c, 10, 71, 64
14, 44040, Note_on_c, 10, 73, 103
14, 44160, Note_off_c, 10, 73, 64
14, 44160, Note_on_c, 10, 74, 104
14, 44275, Note_off_c, 10, 74, 64
14, 44280, Note_on_c, 10, 80, 105
14, 44395, Note_off_c, 10, 80, 64
14, 44400, Note_on_c, 10, 71, 106
14, 44515, Note_off_c, 10, 71, 64
14, 44520, Note_on_c, 10, 73, 107
14, 44635, Note_off_c, 10, 73, 64
14, 44640, Note_on_c, 10, 74, 108
14, 44755, Note_off_c, 10, 74, 64
14, 44760, Note_on_c, 10, 83, 108
14, 44875, Note_off_c, 10, 83, 64
14, 44880, Note_on_c, 10, 80, 108
14, 44995, Note_off_c, 10, 80, 64
14, 45000, Note_on_c, 10, 76, 108
14, 45115, Note_off_c, 10, 76, 64
14, 45120, Note_on_c, 10, 74, 108
14, 45235, Note_off_c, 10, 74, 64
14, 45240, Note_on_c, 10, 71, 108
14, 45355, Note_off_c, 10, 71, 64
14, 45360, Note_on_c, 10, 68, 108
14, 45475, Note_off_c, 10, 68, 64
14, 45480, Note_on_c, 10, 64, 108
14, 45595, Note_off_c, 10, 64, 64
14, 45600, Note_on_c, 10, 62, 108
14, 45715, Note_off_c, 10, 62, 64
14, 45720, Note_on_c, 10, 61, 108
14, 45835, Note_off_c, 10, 61, 64
14, 45840, Note_on_c, 10, 62, 108
14, 45955, Note_off_c, 10, 62, 64
14, 45960, Note_on_c, 10, 59, 108
14, 46075, Note_off_c, 10, 59, 64
14, 46080, Note_on_c, 10, 61, 60
14, 46200, Note_off_c, 10, 61, 64
14, 46200, Note_on_c, 10, 63, 60
14, 46320, Note_off_c, 10, 63, 64
14, 46320, Note_on_c, 10, 61, 60
14, 46435, Note_off_c, 10, 61, 64
14, 46440, Note_on_c, 10, 63, 60
14, 46555, Note_off_c, 10, 63, 64
14, 46560, Note_on_c, 10, 65, 60
14, 46680, Note_off_c, 10, 65, 64
14, 46680, Note_on_c, 10, 68, 60
14, 46795, Note_off_c, 10, 68, 64
14, 46800, Note_on_c, 10, 61, 60
14, 46915, Note_off_c, 10, 61, 64
14, 46920, Note_on_c, 10, 63, 60
14, 47035, Note_off_c, 10, 63, 64
14, 47040, Note_on_c, 10, 65, 60
14, 47160, Note_off_c, 10, 65, 64
14, 47160, Note_on_c, 10, 68, 60
14, 47275, Note_off_c, 10, 68, 64
14, 47280, Note_on_c, 10, 61, 60
14, 47395, Note_off_c, 10, 61, 64
14, 47400, Note_on_c, 10, 63, 60
14, 47515, Note_off_c, 10, 63, 64
14, 47520, Note_on_c, 10, 65, 60
14, 47640, Note_off_c, 10, 65, 64
14, 47640, Note_on_c, 10, 66, 62
14, 47760, Note_off_c, 10, 66, 64
14, 47760, Note_on_c, 10, 65, 64
14, 47875, Note_off_c, 10, 65, 64
14, 47880, Note_on_c, 10, 66, 66
14, 47995, Note_off_c, 10, 66, 64
14, 48000, Note_on_c, 10, 68, 68
14, 48120, Note_off_c, 10, 68, 64
14, 48120, Note_on_c, 10, 73, 70
14, 48235, Note_off_c, 10, 73, 64
14, 48240, Note_on_c, 10, 65, 72
14, 48355, Note_off_c, 10, 65, 64
14, 48360, Note_on_c, 10, 66, 74
14, 48475, Note_off_c, 10, 66, 64
14, 48480, Note_on_c, 10, 68, 76
14, 48600, Note_off_c, 10, 68, 64
14, 48600, Note_on_c, 10, 73, 78
14, 48715, Note_off_c, 10, 73, 64
14, 48720, Note_on_c, 10, 65, 80
14, 48835, Note_off_c, 10, 65, 64
14, 48840, Note_on_c, 10, 66, 82
14, 48955, Note_off_c, 10, 66, 64
14, 48960, Note_on_c, 10, 68, 84
14, 49080, Note_off_c, 10, 68, 64
14, 49080, Note_on_c, 10, 69, 86
14, 49200, Note_off_c, 10, 69, 64
14, 49200, Note_on_c, 10, 68, 88
14, 49315, Note_off_c, 10, 68, 64
14, 49320, Note_on_c, 10, 69, 90
14, 49435, Note_off_c, 10, 69, 64
14, 49440, Note_on_c, 10, 71, 92
14, 49560, Note_off_c, 10, 71, 64
14, 49560, Note_on_c, 10, 77, 94
14, 49675, Note_off_c, 10, 77, 64
14, 49680, Note_on_c, 10, 68, 96
14, 49795, Note_off_c, 10, 68, 64
14, 49800, Note_on_c, 10, 69, 98
14, 49915, Note_off_c, 10, 69, 64
14, 49920, Note_on_c, 10, 71, 100
14, 50040, Note_off_c, 10, 71, 64
14, 50040, Note_on_c, 10, 77, 102
14, 50155, Note_off_c, 10, 77, 64
14, 50160, Note_on_c, 10, 68, 104
14, 50275, Note_off_c, 10, 68, 64
14, 50280, Note_on_c, 10, 69, 106
14, 50395, Note_off_c, 10, 69, 64
14, 50400, Note_on_c, 10, 71, 108
14, 50515, Note_off_c, 10, 71, 64
14, 50520, Note_on_c, 10, 80, 108
14, 50640, Note_off_c, 10, 80, 64
14, 50640, Note_on_c, 10, 77, 108
14, 50760, Note_off_c, 10, 77, 64
14, 50760, Note_on_c, 10, 73, 108
14, 50875, Note_off_c, 10, 73, 64
14, 50880, Note_on_c, 10, 83, 108
14, 50995, Note_off_c, 10, 83, 64
14, 51000, Note_on_c, 10, 80, 108
14, 51120, Note_off_c, 10, 80, 64
14, 51120, Note_on_c, 10, 81, 108
14, 51240, Note_off_c, 10, 81, 64
14, 51240, Note_on_c, 10, 78, 108
14, 51355, Note_off_c, 10, 78, 64
14, 51360, Note_on_c, 10, 77, 108
14, 51480, Note_off_c, 10, 77, 64
14, 51480, Note_on_c, 10, 80, 108
14, 51600, Note_off_c, 10, 80, 64
14, 51600, Note_on_c, 10, 73, 108
14, 51715, Note_off_c, 10, 73, 64
14, 51720, Note_on_c, 10, 71, 108
14, 51835, Note_off_c, 10, 71, 64
14, 51840, Note_on_c, 10, 69, 108
14, 51960, Note_off_c, 10, 69, 64
14, 51960, Note_on_c, 10, 73, 108
14, 52080, Note_off_c, 10, 73, 64
14, 52080, Note_on_c, 10, 69, 108
14, 52195, Note_off_c, 10, 69, 64
14, 52200, Note_on_c, 10, 66, 108
14, 52315, Note_off_c, 10, 66, 64
14, 52320, Note_on_c, 10, 78, 108
14, 52435, Note_off_c, 10, 78, 64
14, 52440, Note_on_c, 10, 75, 108
14, 52560, Note_off_c, 10, 75, 64
14, 52560, Note_on_c, 10, 76, 108
14, 52680, Note_off_c, 10, 76, 64
14, 52680, Note_on_c, 10, 73, 108
14, 52795, Note_off_c, 10, 73, 64
14, 52800, Note_on_c, 10, 72, 108
14, 52915, Note_off_c, 10, 72, 64
14, 52920, Note_on_c, 10, 75, 108
14, 53040, Note_off_c, 10, 75, 64
14, 53040, Note_on_c, 10, 68, 108
14, 53160, Note_off_c, 10, 68, 64
14, 53160, Note_on_c, 10, 66, 108
14, 53275, Note_off_c, 10, 66, 64
14, 53280, Note_on_c, 10, 64, 108
14, 53400, Note_off_c, 10, 64, 64
14, 53400, Note_on_c, 10, 68, 108
14, 53520, Note_off_c, 10, 68, 64
14, 53520, Note_on_c, 10, 64, 108
14, 53635, Note_off_c, 10, 64, 64
14, 53640, Note_on_c, 10, 61, 108
14, 53755, Note_off_c, 10, 61, 64
14, 53760, Note_on_c, 10, 64, 108
14, 53875, Note_off_c, 10, 64, 64
14, 53880, Note_on_c, 10, 68, 108
14, 53995, Note_off_c, 10, 68, 64
14, 54000, Note_on_c, 10, 73, 108
14, 54115, Note_off_c, 10, 73, 64
14, 54120, Note_on_c, 10, 68, 108
14, 54235, Note_off_c, 10, 68, 64
14, 54240, Note_on_c, 10, 76, 108
14, 54355, Note_off_c, 10, 76, 64
14, 54360, Note_on_c, 10, 73, 108
14, 54475, Note_off_c, 10, 73, 64
14, 54480, Note_on_c, 10, 80, 108
14, 54595, Note_off_c, 10, 80, 64
14, 54600, Note_on_c, 10, 73, 108
14, 54715, Note_off_c, 10, 73, 64
14, 54720, Note_on_c, 10, 72, 108
14, 54840, Note_off_c, 10, 72, 64
14, 54840, Note_on_c, 10, 75, 108
14, 54960, Note_off_c, 10, 75, 64
14, 54960, Note_on_c, 10, 72, 108
14, 55075, Note_off_c, 10, 72, 64
14, 55080, Note_on_c, 10, 68, 108
14, 55195, Note_off_c, 10, 68, 64
14, 55200, Note_on_c, 10, 80, 108
14, 55320, Note_off_c, 10, 80, 64
14, 55320, Note_on_c, 10, 79, 108
14, 55435, Note_off_c, 10, 79, 64
14, 55440, Note_on_c, 10, 80, 108
14, 55560, Note_off_c, 10, 80, 64
14, 55560, Note_on_c, 10, 79, 108
14, 55675, Note_off_c, 10, 79, 64
14, 55680, Note_on_c, 10, 80, 108
14, 55800, Note_off_c, 10, 80, 64
14, 55800, Note_on_c, 10, 75, 108
14, 55920, Note_off_c, 10, 75, 64
14, 55920, Note_on_c, 10, 76, 108
14, 56035, Note_off_c, 10, 76, 64
14, 56040, Note_on_c, 10, 73, 108
14, 56155, Note_off_c, 10, 73, 64
14, 56160, Note_on_c, 10, 72, 108
14, 56280, Note_off_c, 10, 72, 64
14, 56280, Note_on_c, 10, 75, 108
14, 56400, Note_off_c, 10, 75, 64
14, 56400, Note_on_c, 10, 72, 108
14, 56515, Note_off_c, 10, 72, 64
14, 56520, Note_on_c, 10, 68, 108
14, 56635, Note_off_c, 10, 68, 64
14, 56640, Note_on_c, 10, 78, 108
14, 56760, Note_off_c, 10, 78, 64
14, 56760, Note_on_c, 10, 77, 108
14, 56880, Note_off_c, 10, 77, 64
14, 56880, Note_on_c, 10, 78, 108
14, 56995, Note_off_c, 10, 78, 64
14, 57000, Note_on_c, 10, 77, 108
14, 57115, Note_off_c, 10, 77, 64
14, 57120, Note_on_c, 10, 78, 108
14, 57240, Note_off_c, 10, 78, 64
14, 57240, Note_on_c, 10, 75, 108
14, 57360, Note_off_c, 10, 75, 64
14, 57360, Note_on_c, 10, 76, 108
14, 57475, Note_off_c, 10, 76, 64
14, 57480, Note_on_c, 10, 73, 108
14, 57595, Note_off_c, 10, 73, 64
14, 57600, Note_on_c, 10, 72, 92
14, 57720, Note_off_c, 10, 72, 64
14, 57720, Note_on_c, 10, 75, 92
14, 57840, Note_off_c, 10, 75, 64
14, 57840, Note_on_c, 10, 72, 92
14, 57955, Note_off_c, 10, 72, 64
14, 57960, Note_on_c, 10, 68, 92
14, 58075, Note_off_c, 10, 68, 64
14, 58080, Note_on_c, 10, 69, 92
14, 58200, Note_off_c, 10, 69, 64
14, 58200, Note_on_c, 10, 68, 92
14, 58320, Note_off_c, 10, 68, 64
14, 58320, Note_on_c, 10, 69, 92
14, 58435, Note_off_c, 10, 69, 64
14, 58440, Note_on_c, 10, 68, 92
14, 58555, Note_off_c, 10, 68, 64
14, 58560, Note_on_c, 10, 69, 92
14, 58675, Note_off_c, 10, 69, 64
14, 58680, Note_on_c, 10, 63, 92
14, 58800, Note_off_c, 10, 63, 64
14, 58800, Note_on_c, 10, 64, 92
14, 58915, Note_off_c, 10, 64, 64
14, 58920, Note_on_c, 10, 61, 92
14, 59035, Note_off_c, 10, 61, 64
14, 59040, Note_on_c, 10, 60, 92
14, 59160, Note_off_c, 10, 60, 64
14, 59160, Note_on_c, 10, 66, 92
14, 59275, Note_off_c, 10, 66, 64
14, 59280, Note_on_c, 10, 61, 92
14, 59400, Note_off_c, 10, 61, 64
14, 59400, Note_on_c, 10, 66, 92
14, 59515, Note_off_c, 10, 66, 64
14, 59520, Note_on_c, 10, 63, 92
14, 59640, Note_off_c, 10, 63, 64
14, 59640, Note_on_c, 10, 66, 92
14, 59755, Note_off_c, 10, 66, 64
14, 59760, Note_on_c, 10, 61, 92
14, 59880, Note_off_c, 10, 61, 64
14, 59880, Note_on_c, 10, 66, 92
14, 59995, Note_off_c, 10, 66, 64
14, 60000, Note_on_c, 10, 60, 92
14, 60120, Note_off_c, 10, 60, 64
14, 60120, Note_on_c, 10, 66, 92
14, 60235, Note_off_c, 10, 66, 64
14, 60240, Note_on_c, 10, 63, 92
14, 60360, Note_off_c, 10, 63, 64
14, 60360, Note_on_c, 10, 66, 92
14, 60475, Note_off_c, 10, 66, 64
14, 60480, Note_on_c, 10, 56, 75
14, 60600, Note_off_c, 10, 56, 64
14, 60600, Note_on_c, 10, 66, 75
14, 60720, Note_off_c, 10, 66, 64
14, 60720, Note_on_c, 10, 75, 75
14, 60840, Note_off_c, 10, 75, 64
14, 60840, Note_on_c, 10, 66, 75
14, 60955, Note_off_c, 10, 66, 64
14, 60960, Note_on_c, 10, 72, 75
14, 61080, Note_off_c, 10, 72, 64
14, 61080, Note_on_c, 10, 66, 75
14, 61195, Note_off_c, 10, 66, 64
14, 61200, Note_on_c, 10, 75, 75
14, 61320, Note_off_c, 10, 75, 64
14, 61320, Note_on_c, 10, 66, 75
14, 61435, Note_off_c, 10, 66, 64
14, 61440, Note_on_c, 10, 72, 75
14, 61560, Note_off_c, 10, 72, 64
14, 61560, Note_on_c, 10, 66, 75
14, 61675, Note_off_c, 10, 66, 64
14, 61680, Note_on_c, 10, 75, 75
14, 61800, Note_off_c, 10, 75, 64
14, 61800, Note_on_c, 10, 66, 75
14, 61915, Note_off_c, 10, 66, 64
14, 61920, Note_on_c, 10, 56, 75
14, 62040, Note_off_c, 10, 56, 64
14, 62040, Note_on_c, 10, 64, 75
14, 62160, Note_off_c, 10, 64, 64
14, 62160, Note_on_c, 10, 73, 75
14, 62280, Note_off_c, 10, 73, 64
14, 62280, Note_on_c, 10, 64, 75
14, 62395, Note_off_c, 10, 64, 64
14, 62400, Note_on_c, 10, 76, 75
14, 62520, Note_off_c, 10, 76, 64
14, 62520, Note_on_c, 10, 64, 75
14, 62635, Note_off_c, 10, 64, 64
14, 62640, Note_on_c, 10, 73, 75
14, 62760, Note_off_c, 10, 73, 64
14, 62760, Note_on_c, 10, 64, 75
14, 62875, Note_off_c, 10, 64, 64
14, 62880, Note_on_c, 10, 76, 75
14, 63000, Note_off_c, 10, 76, 64
14, 63000, Note_on_c, 10, 64, 75
14, 63115, Note_off_c, 10, 64, 64
14, 63120, Note_on_c, 10, 73, 75
14, 63240, Note_off_c, 10, 73, 64
14, 63240, Note_on_c, 10, 64, 75
14, 63355, Note_off_c, 10, 64, 64
14, 63360, Note_on_c, 10, 56, 60
14, 63480, Note_off_c, 10, 56, 64
14, 63480, Note_on_c, 10, 66, 60
14, 63600, Note_off_c, 10, 66, 64
14, 63600, Note_on_c, 10, 75, 60
14, 63720, Note_off_c, 10, 75, 64
14, 63720, Note_on_c, 10, 66, 60
14, 63835, Note_off_c, 10, 66, 64
14, 63840, Note_on_c, 10, 72, 60
14, 63960, Note_off_c, 10, 72, 64
14, 63960, Note_on_c, 10, 66, 60
14, 64075, Note_off_c, 10, 66, 64
14, 64080, Note_on_c, 10, 75, 60
14, 64200, Note_off_c, 10, 75, 64
14, 64200, Note_on_c, 10, 66, 60
14, 64315, Note_off_c, 10, 66, 64
14, 64320, Note_on_c, 10, 72, 60
14, 64440, Note_off_c, 10, 72, 64
14, 64440, Note_on_c, 10, 66, 60
14, 64555, Note_off_c, 10, 66, 64
14, 64560, Note_on_c, 10, 75, 60
14, 64680, Note_off_c, 10, 75, 64
14, 64680, Note_on_c, 10, 66, 60
14, 64795, Note_off_c, 10, 66, 64
14, 64800, Note_on_c, 10, 56, 60
14, 64920, Note_off_c, 10, 56, 64
14, 64920, Note_on_c, 10, 64, 60
14, 65040, Note_off_c, 10, 64, 64
14, 65040, Note_on_c, 10, 73, 60
14, 65160, Note_off_c, 10, 73, 64
14, 65160, Note_on_c, 10, 64, 60
14, 65275, Note_off_c, 10, 64, 64
14, 65280, Note_on_c, 10, 76, 60
14, 65400, Note_off_c, 10, 76, 64
14, 65400, Note_on_c, 10, 64, 60
14, 65515, Note_off_c, 10, 64, 64
14, 65520, Note_on_c, 10, 73, 60
14, 65640, Note_off_c, 10, 73, 64
14, 65640, Note_on_c, 10, 64, 60
14, 65755, Note_off_c, 10, 64, 64
14, 65760, Note_on_c, 10, 76, 60
14, 65880, Note_off_c, 10, 76, 64
14, 65880, Note_on_c, 10, 64, 60
14, 65995, Note_off_c, 10, 64, 64
14, 66000, Note_on_c, 10, 73, 60
14, 66120, Note_off_c, 10, 73, 64
14, 66120, Note_on_c, 10, 64, 60
14, 66235, Note_off_c, 10, 64, 64
14, 66240, Note_on_c, 10, 56, 75
14, 66355, Note_off_c, 10, 56, 64
14, 66360, Note_on_c, 10, 67, 75
14, 66480, Note_off_c, 10, 67, 64
14, 66480, Note_on_c, 10, 73, 75
14, 66600, Note_off_c, 10, 73, 64
14, 66600, Note_on_c, 10, 67, 75
14, 66715, Note_off_c, 10, 67, 64
14, 66720, Note_on_c, 10, 76, 75
14, 66840, Note_off_c, 10, 76, 64
14, 66840, Note_on_c, 10, 67, 75
14, 66955, Note_off_c, 10, 67, 64
14, 66960, Note_on_c, 10, 73, 75
14, 67080, Note_off_c, 10, 73, 64
14, 67080, Note_on_c, 10, 67, 75
14, 67195, Note_off_c, 10, 67, 64
14, 67200, Note_on_c, 10, 76, 75
14, 67320, Note_off_c, 10, 76, 64
14, 67320, Note_on_c, 10, 67, 75
14, 67435, Note_off_c, 10, 67, 64
14, 67440, Note_on_c, 10, 73, 75
14, 67560, Note_off_c, 10, 73, 64
14, 67560, Note_on_c, 10, 67, 75
14, 67675, Note_off_c, 10, 67, 64
14, 67680, Note_on_c, 10, 56, 60
14, 67800, Note_off_c, 10, 56, 64
14, 67800, Note_on_c, 10, 67, 60
14, 67920, Note_off_c, 10, 67, 64
14, 67920, Note_on_c, 10, 73, 60
14, 68040, Note_off_c, 10, 73, 64
14, 68040, Note_on_c, 10, 67, 60
14, 68155, Note_off_c, 10, 67, 64
14, 68160, Note_on_c, 10, 76, 60
14, 68280, Note_off_c, 10, 76, 64
14, 68280, Note_on_c, 10, 67, 60
14, 68395, Note_off_c, 10, 67, 64
14, 68400, Note_on_c, 10, 73, 60
14, 68520, Note_off_c, 10, 73, 64
14, 68520, Note_on_c, 10, 67, 60
14, 68635, Note_off_c, 10, 67, 64
14, 68640, Note_on_c, 10, 76, 60
14, 68760, Note_off_c, 10, 76, 64
14, 68760, Note_on_c, 10, 67, 60
14, 68875, Note_off_c, 10, 67, 64
14, 68880, Note_on_c, 10, 73, 60
14, 69000, Note_off_c, 10, 73, 64
14, 69000, Note_on_c, 10, 67, 60
14, 69115, Note_off_c, 10, 67, 64
14, 69120, Note_on_c, 10, 56, 92
14, 69240, Note_off_c, 10, 56, 64
14, 69240, Note_on_c, 10, 68, 92
14, 69360, Note_off_c, 10, 68, 64
14, 69360, Note_on_c, 10, 73, 92
14, 69480, Note_off_c, 10, 73, 64
14, 69480, Note_on_c, 10, 68, 92
14, 69595, Note_off_c, 10, 68, 64
14, 69600, Note_on_c, 10, 75, 92
14, 69720, Note_off_c, 10, 75, 64
14, 69720, Note_on_c, 10, 68, 92
14, 69835, Note_off_c, 10, 68, 64
14, 69840, Note_on_c, 10, 73, 92
14, 69960, Note_off_c, 10, 73, 64
14, 69960, Note_on_c, 10, 68, 92
14, 70075, Note_off_c, 10, 68, 64
14, 70080, Note_on_c, 10, 75, 92
14, 70200, Note_off_c, 10, 75, 64
14, 70200, Note_on_c, 10, 68, 92
14, 70315, Note_off_c, 10, 68, 64
14, 70320, Note_on_c, 10, 73, 92
14, 70440, Note_off_c, 10, 73, 64
14, 70440, Note_on_c, 10, 68, 92
14, 70555, Note_off_c, 10, 68, 64
14, 70560, Note_on_c, 10, 56, 60
14, 70680, Note_off_c, 10, 56, 64
14, 70680, Note_on_c, 10, 66, 60
14, 70800, Note_off_c, 10, 66, 64
14, 70800, Note_on_c, 10, 72, 60
14, 70920, Note_off_c, 10, 72, 64
14, 70920, Note_on_c, 10, 66, 60
14, 71035, Note_off_c, 10, 66, 64
14, 71040, Note_on_c, 10, 75, 60
14, 71160, Note_off_c, 10, 75, 64
14, 71160, Note_on_c, 10, 66, 60
14, 71275, Note_off_c, 10, 66, 64
14, 71280, Note_on_c, 10, 72, 60
14, 71400, Note_off_c, 10, 72, 64
14, 71400, Note_on_c, 10, 66, 60
14, 71515, Note_off_c, 10, 66, 64
14, 71520, Note_on_c, 10, 75, 60
14, 71640, Note_off_c, 10, 75, 64
14, 71640, Note_on_c, 10, 66, 60
14, 71755, Note_off_c, 10, 66, 64
14, 71760, Note_on_c, 10, 72, 60
14, 71880, Note_off_c, 10, 72, 64
14, 71880, Note_on_c, 10, 66, 60
14, 71995, Note_off_c, 10, 66, 64
14, 72000, Note_on_c, 10, 61, 108
14, 72115, Note_off_c, 10, 61, 64
14, 72120, Note_on_c, 10, 73, 108
14, 72235, Note_off_c, 10, 73, 64
14, 72240, Note_on_c, 10, 71, 108
14, 72355, Note_off_c, 10, 71, 64
14, 72360, Note_on_c, 10, 69, 108
14, 72475, Note_off_c, 10, 69, 64
14, 72480, Note_on_c, 10, 68, 108
14, 72595, Note_off_c, 10, 68, 64
14, 72600, Note_on_c, 10, 73, 108
14, 72715, Note_off_c, 10, 73, 64
14, 72720, Note_on_c, 10, 68, 108
14, 72835, Note_off_c, 10, 68, 64
14, 72840, Note_on_c, 10, 66, 108
14, 72955, Note_off_c, 10, 66, 64
14, 72960, Note_on_c, 10, 64, 108
14, 73075, Note_off_c, 10, 64, 64
14, 73080, Note_on_c, 10, 68, 108
14, 73195, Note_off_c, 10, 68, 64
14, 73200, Note_on_c, 10, 64, 108
14, 73315, Note_off_c, 10, 64, 64
14, 73320, Note_on_c, 10, 63, 108
14, 73435, Note_off_c, 10, 63, 64
14, 73440, Note_on_c, 10, 61, 108
14, 73555, Note_off_c, 10, 61, 64
14, 73560, Note_on_c, 10, 73, 108
14, 73675, Note_off_c, 10, 73, 64
14, 73680, Note_on_c, 10, 68, 108
14, 73795, Note_off_c, 10, 68, 64
14, 73800, Note_on_c, 10, 66, 108
14, 73915, Note_off_c, 10, 66, 64
14, 73920, Note_on_c, 10, 64, 108
14, 74035, Note_off_c, 10, 64, 64
14, 74040, Note_on_c, 10, 68, 108
14, 74155, Note_off_c, 10, 68, 64
14, 74160, Note_on_c, 10, 64, 108
14, 74275, Note_off_c, 10, 64, 64
14, 74280, Note_on_c, 10, 63, 108
14, 74395, Note_off_c, 10, 63, 64
14, 74400, Note_on_c, 10, 61, 108
14, 74515, Note_off_c, 10, 61, 64
14, 74520, Note_on_c, 10, 64, 108
14, 74635, Note_off_c, 10, 64, 64
14, 74640, Note_on_c, 10, 61, 108
14, 74755, Note_off_c, 10, 61, 64
14, 74760, Note_on_c, 10, 59, 108
14, 74875, Note_off_c, 10, 59, 64
14, 74880, Note_on_c, 10, 58, 108
14, 74995, Note_off_c, 10, 58, 64
14, 75000, Note_on_c, 10, 66, 108
14, 75120, Note_off_c, 10, 66, 64
14, 75120, Note_on_c, 10, 73, 108
14, 75240, Note_off_c, 10, 73, 64
14, 75240, Note_on_c, 10, 66, 108
14, 75355, Note_off_c, 10, 66, 64
14, 75360, Note_on_c, 10, 76, 108
14, 75480, Note_off_c, 10, 76, 64
14, 75480, Note_on_c, 10, 66, 108
14, 75595, Note_off_c, 10, 66, 64
14, 75600, Note_on_c, 10, 73, 108
14, 75720, Note_off_c, 10, 73, 64
14, 75720, Note_on_c, 10, 66, 108
14, 75835, Note_off_c, 10, 66, 64
14, 75840, Note_on_c, 10, 76, 108
14, 75960, Note_off_c, 10, 76, 64
14, 75960, Note_on_c, 10, 66, 108
14, 76075, Note_off_c, 10, 66, 64
14, 76080, Note_on_c, 10, 73, 108
14, 76200, Note_off_c, 10, 73, 64
14, 76200, Note_on_c, 10, 66, 108
14, 76315, Note_off_c, 10, 66, 64
14, 76320, Note_on_c, 10, 58, 75
14, 76440, Note_off_c, 10, 58, 64
14, 76440, Note_on_c, 10, 66, 75
14, 76560, Note_off_c, 10, 66, 64
14, 76560, Note_on_c, 10, 76, 75
14, 76680, Note_off_c, 10, 76, 64
14, 76680, Note_on_c, 10, 66, 75
14, 76795, Note_off_c, 10, 66, 64
14, 76800, Note_on_c, 10, 73, 75
14, 76920, Note_off_c, 10, 73, 64
14, 76920, Note_on_c, 10, 66, 75
14, 77035, Note_off_c, 10, 66, 64
14, 77040, Note_on_c, 10, 76, 75
14, 77160, Note_off_c, 10, 76, 64
14, 77160, Note_on_c, 10, 66, 75
14, 77275, Note_off_c, 10, 66, 64
14, 77280, Note_on_c, 10, 73, 75
14, 77400, Note_off_c, 10, 73, 64
14, 77400, Note_on_c, 10, 66, 75
14, 77515, Note_off_c, 10, 66, 64
14, 77520, Note_on_c, 10, 76, 75
14, 77640, Note_off_c, 10, 76, 64
14, 77640, Note_on_c, 10, 66, 75
14, 77755, Note_off_c, 10, 66, 64
14, 77760, Note_on_c, 10, 59, 108
14, 77875, Note_off_c, 10, 59, 64
14, 77880, Note_on_c, 10, 83, 108
14, 77995, Note_off_c, 10, 83, 64
14, 78000, Note_on_c, 10, 82, 108
14, 78115, Note_off_c, 10, 82, 64
14, 78120, Note_on_c, 10, 80, 108
14, 78235, Note_off_c, 10, 80, 64
14, 78240, Note_on_c, 10, 78, 108
14, 78355, Note_off_c, 10, 78, 64
14, 78360, Note_on_c, 10, 83, 108
14, 78475, Note_off_c, 10, 83, 64
14, 78480, Note_on_c, 10, 78, 108
14, 78595, Note_off_c, 10, 78, 64
14, 78600, Note_on_c, 10, 76, 108
14, 78715, Note_off_c, 10, 76, 64
14, 78720, Note_on_c, 10, 75, 108
14, 78835, Note_off_c, 10, 75, 64
14, 78840, Note_on_c, 10, 78, 108
14, 78955, Note_off_c, 10, 78, 64
14, 78960, Note_on_c, 10, 75, 108
14, 79075, Note_off_c, 10, 75, 64
14, 79080, Note_on_c, 10, 73, 108
14, 79195, Note_off_c, 10, 73, 64
14, 79200, Note_on_c, 10, 71, 92
14, 79315, Note_off_c, 10, 71, 64
14, 79320, Note_on_c, 10, 83, 92
14, 79435, Note_off_c, 10, 83, 64
14, 79440, Note_on_c, 10, 78, 92
14, 79555, Note_off_c, 10, 78, 64
14, 79560, Note_on_c, 10, 76, 92
14, 79675, Note_off_c, 10, 76, 64
14, 79680, Note_on_c, 10, 75, 92
14, 79795, Note_off_c, 10, 75, 64
14, 79800, Note_on_c, 10, 78, 92
14, 79915, Note_off_c, 10, 78, 64
14, 79920, Note_on_c, 10, 75, 92
14, 80035, Note_off_c, 10, 75, 64
14, 80040, Note_on_c, 10, 73, 92
14, 80155, Note_off_c, 10, 73, 64
14, 80160, Note_on_c, 10, 71, 92
14, 80275, Note_off_c, 10, 71, 64
14, 80280, Note_on_c, 10, 75, 92
14, 80395, Note_off_c, 10, 75, 64
14, 80400, Note_on_c, 10, 71, 92
14, 80515, Note_off_c, 10, 71, 64
14, 80520, Note_on_c, 10, 69, 92
14, 80635, Note_off_c, 10, 69, 64
14, 80640, Note_on_c, 10, 68, 108
14, 80760, Note_off_c, 10, 68, 64
14, 80760, Note_on_c, 10, 74, 108
14, 80880, Note_off_c, 10, 74, 64
14, 80880, Note_on_c, 10, 76, 108
14, 81000, Note_off_c, 10, 76, 64
14, 81000, Note_on_c, 10, 74, 108
14, 81115, Note_off_c, 10, 74, 64
14, 81120, Note_on_c, 10, 80, 108
14, 81240, Note_off_c, 10, 80, 64
14, 81240, Note_on_c, 10, 74, 108
14, 81355, Note_off_c, 10, 74, 64
14, 81360, Note_on_c, 10, 83, 108
14, 81480, Note_off_c, 10, 83, 64
14, 81480, Note_on_c, 10, 74, 108
14, 81595, Note_off_c, 10, 74, 64
14, 81600, Note_on_c, 10, 80, 108
14, 81720, Note_off_c, 10, 80, 64
14, 81720, Note_on_c, 10, 74, 108
14, 81835, Note_off_c, 10, 74, 64
14, 81840, Note_on_c, 10, 76, 108
14, 81960, Note_off_c, 10, 76, 64
14, 81960, Note_on_c, 10, 74, 108
14, 82075, Note_off_c, 10, 74, 64
14, 82080, Note_on_c, 10, 68, 60
14, 82200, Note_off_c, 10, 68, 64
14, 82200, Note_on_c, 10, 74, 60
14, 82320, Note_off_c, 10, 74, 64
14, 82320, Note_on_c, 10, 76, 60
14, 82440, Note_off_c, 10, 76, 64
14, 82440, Note_on_c, 10, 74, 60
14, 82555, Note_off_c, 10, 74, 64
14, 82560, Note_on_c, 10, 68, 60
14, 82640, Note_off_c, 10, 68, 64
14, 82680, Note_on_c, 10, 74, 60
14, 82760, Note_off_c, 10, 74, 64
14, 82800, Note_on_c, 10, 66, 60
14, 82880, Note_off_c, 10, 66, 64
14, 82920, Note_on_c, 10, 74, 60
14, 83000, Note_off_c, 10, 74, 64
14, 83040, Note_on_c, 10, 68, 60
14, 83120, Note_off_c, 10, 68, 64
14, 83160, Note_on_c, 10, 74, 60
14, 83240, Note_off_c, 10, 74, 64
14, 83280, Note_on_c, 10, 64, 60
14, 83360, Note_off_c, 10, 64, 64
14, 83400, Note_on_c, 10, 74, 60
14, 83480, Note_off_c, 10, 74, 64
14, 83520, Note_on_c, 10, 73, 108
14, 83640, Note_off_c, 10, 73, 64
14, 83640, Note_on_c, 10, 76, 108
14, 83760, Note_off_c, 10, 76, 64
14, 83760, Note_on_c, 10, 81, 108
14, 83880, Note_off_c, 10, 81, 64
14, 83880, Note_on_c, 10, 80, 108
14, 83995, Note_off_c, 10, 80, 64
14, 84000, Note_on_c, 10, 81, 108
14, 84115, Note_off_c, 10, 81, 64
14, 84120, Note_on_c, 10, 76, 108
14, 84235, Note_off_c, 10, 76, 64
14, 84240, Note_on_c, 10, 74, 108
14, 84355, Note_off_c, 10, 74, 64
14, 84360, Note_on_c, 10, 76, 108
14, 84475, Note_off_c, 10, 76, 64
14, 84480, Note_on_c, 10, 73, 108
14, 84595, Note_off_c, 10, 73, 64
14, 84600, Note_on_c, 10, 76, 108
14, 84715, Note_off_c, 10, 76, 64
14, 84720, Note_on_c, 10, 71, 108
14, 84835, Note_off_c, 10, 71, 64
14, 84840, Note_on_c, 10, 76, 108
14, 84955, Note_off_c, 10, 76, 64
14, 84960, Note_on_c, 10, 69, 108
14, 85075, Note_off_c, 10, 69, 64
14, 85080, Note_on_c, 10, 81, 108
14, 85200, Note_off_c, 10, 81, 64
14, 85200, Note_on_c, 10, 80, 108
14, 85320, Note_off_c, 10, 80, 64
14, 85320, Note_on_c, 10, 78, 108
14, 85435, Note_off_c, 10, 78, 64
14, 85440, Note_on_c, 10, 76, 108
14, 85555, Note_off_c, 10, 76, 64
14, 85560, Note_on_c, 10, 69, 108
14, 85675, Note_off_c, 10, 69, 64
14, 85680, Note_on_c, 10, 78, 108
14, 85795, Note_off_c, 10, 78, 64
14, 85800, Note_on_c, 10, 69, 108
14, 85915, Note_off_c, 10, 69, 64
14, 85920, Note_on_c, 10, 76, 108
14, 86035, Note_off_c, 10, 76, 64
14, 86040, Note_on_c, 10, 69, 108
14, 86155, Note_off_c, 10, 69, 64
14, 86160, Note_on_c, 10, 74, 108
14, 86275, Note_off_c, 10, 74, 64
14, 86280, Note_on_c, 10, 69, 108
14, 86395, Note_off_c, 10, 69, 64
14, 86400, Note_on_c, 10, 73, 75
14, 86480, Note_off_c, 10, 73, 64
14, 86520, Note_on_c, 10, 76, 75
14, 86600, Note_off_c, 10, 76, 64
14, 86640, Note_on_c, 10, 71, 75
14, 86720, Note_off_c, 10, 71, 64
14, 86760, Note_on_c, 10, 76, 75
14, 86840, Note_off_c, 10, 76, 64
14, 86880, Note_on_c, 10, 73, 75
14, 86960, Note_off_c, 10, 73, 64
14, 87000, Note_on_c, 10, 76, 75
14, 87080, Note_off_c, 10, 76, 64
14, 87120, Note_on_c, 10, 74, 75
14, 87200, Note_off_c, 10, 74, 64
14, 87240, Note_on_c, 10, 76, 75
14, 87320, Note_off_c, 10, 76, 64
14, 87360, Note_on_c, 10, 73, 75
14, 87440, Note_off_c, 10, 73, 64
14, 87480, Note_on_c, 10, 76, 75
14, 87560, Note_off_c, 10, 76, 64
14, 87600, Note_on_c, 10, 71, 75
14, 87680, Note_off_c, 10, 71, 64
14, 87720, Note_on_c, 10, 76, 75
14, 87800, Note_off_c, 10, 76, 64
14, 87840, Note_on_c, 10, 69, 75
14, 87920, Note_off_c, 10, 69, 64
14, 87960, Note_on_c, 10, 81, 75
14, 88080, Note_off_c, 10, 81, 64
14, 88080, Note_on_c, 10, 80, 75
14, 88165, Note_off_c, 10, 80, 64
14, 88200, Note_on_c, 10, 78, 75
14, 88280, Note_off_c, 10, 78, 64
14, 88320, Note_on_c, 10, 76, 75
14, 88400, Note_off_c, 10, 76, 64
14, 88440, Note_on_c, 10, 69, 75
14, 88520, Note_off_c, 10, 69, 64
14, 88560, Note_on_c, 10, 78, 75
14, 88640, Note_off_c, 10, 78, 64
14, 88680, Note_on_c, 10, 69, 75
14, 88760, Note_off_c, 10, 69, 64
14, 88800, Note_on_c, 10, 76, 75
14, 88880, Note_off_c, 10, 76, 64
14, 88920, Note_on_c, 10, 69, 75
14, 89000, Note_off_c, 10, 69, 64
14, 89040, Note_on_c, 10, 74, 75
14, 89120, Note_off_c, 10, 74, 64
14, 89160, Note_on_c, 10, 69, 75
14, 89240, Note_off_c, 10, 69, 64
14, 89280, Note_on_c, 10, 73, 108
14, 89395, Note_off_c, 10, 73, 64
14, 89400, Note_on_c, 10, 69, 108
14, 89520, Note_off_c, 10, 69, 64
14, 89520, Note_on_c, 10, 69, 108
14, 89640, Note_off_c, 10, 69, 64
14, 89640, Note_on_c, 10, 69, 108
14, 89755, Note_off_c, 10, 69, 64
14, 89760, Note_on_c, 10, 68, 108
14, 89880, Note_off_c, 10, 68, 64
14, 89880, Note_on_c, 10, 69, 108
14, 90000, Note_off_c, 10, 69, 64
14, 90000, Note_on_c, 10, 69, 108
14, 90115, Note_off_c, 10, 69, 64
14, 90120, Note_on_c, 10, 69, 108
14, 90235, Note_off_c, 10, 69, 64
14, 90240, Note_on_c, 10, 71, 108
14, 90360, Note_off_c, 10, 71, 64
14, 90360, Note_on_c, 10, 69, 108
14, 90480, Note_off_c, 10, 69, 64
14, 90480, Note_on_c, 10, 68, 108
14, 90600, Note_off_c, 10, 68, 64
14, 90600, Note_on_c, 10, 69, 108
14, 90715, Note_off_c, 10, 69, 64
14, 90720, Note_on_c, 10, 69, 108
14, 90835, Note_off_c, 10, 69, 64
14, 90840, Note_on_c, 10, 69, 108
14, 90960, Note_off_c, 10, 69, 64
14, 90960, Note_on_c, 10, 73, 108
14, 91080, Note_off_c, 10, 73, 64
14, 91080, Note_on_c, 10, 69, 108
14, 91195, Note_off_c, 10, 69, 64
14, 91200, Note_on_c, 10, 71, 108
14, 91320, Note_off_c, 10, 71, 64
14, 91320, Note_on_c, 10, 69, 108
14, 91435, Note_off_c, 10, 69, 64
14, 91440, Note_on_c, 10, 73, 108
14, 91560, Note_off_c, 10, 73, 64
14, 91560, Note_on_c, 10, 69, 108
14, 91675, Note_off_c, 10, 69, 64
14, 91680, Note_on_c, 10, 74, 108
14, 91800, Note_off_c, 10, 74, 64
14, 91800, Note_on_c, 10, 69, 108
14, 91915, Note_off_c, 10, 69, 64
14, 91920, Note_on_c, 10, 71, 108
14, 92040, Note_off_c, 10, 71, 64
14, 92040, Note_on_c, 10, 69, 108
14, 92155, Note_off_c, 10, 69, 64
14, 92160, Note_on_c, 10, 73, 75
14, 92240, Note_off_c, 10, 73, 64
14, 92280, Note_on_c, 10, 69, 75
14, 92360, Note_off_c, 10, 69, 64
14, 92400, Note_on_c, 10, 69, 75
14, 92480, Note_off_c, 10, 69, 64
14, 92520, Note_on_c, 10, 69, 75
14, 92600, Note_off_c, 10, 69, 64
14, 92640, Note_on_c, 10, 68, 75
14, 92720, Note_off_c, 10, 68, 64
14, 92760, Note_on_c, 10, 69, 75
14, 92840, Note_off_c, 10, 69, 64
14, 92880, Note_on_c, 10, 69, 75
14, 92960, Note_off_c, 10, 69, 64
14, 93000, Note_on_c, 10, 69, 75
14, 93080, Note_off_c, 10, 69, 64
14, 93120, Note_on_c, 10, 71, 75
14, 93200, Note_off_c, 10, 71, 64
14, 93240, Note_on_c, 10, 69, 75
14, 93320, Note_off_c, 10, 69, 64
14, 93360, Note_on_c, 10, 68, 75
14, 93440, Note_off_c, 10, 68, 64
14, 93480, Note_on_c, 10, 69, 75
14, 93560, Note_off_c, 10, 69, 64
14, 93600, Note_on_c, 10, 69, 75
14, 93680, Note_off_c, 10, 69, 64
14, 93720, Note_on_c, 10, 69, 75
14, 93800, Note_off_c, 10, 69, 64
14, 93840, Note_on_c, 10, 73, 75
14, 93920, Note_off_c, 10, 73, 64
14, 93960, Note_on_c, 10, 69, 75
14, 94040, Note_off_c, 10, 69, 64
14, 94080, Note_on_c, 10, 71, 75
14, 94160, Note_off_c, 10, 71, 64
14, 94200, Note_on_c, 10, 69, 75
14, 94280, Note_off_c, 10, 69, 64
14, 94320, Note_on_c, 10, 73, 75
14, 94400, Note_off_c, 10, 73, 64
14, 94440, Note_on_c, 10, 69, 75
14, 94520, Note_off_c, 10, 69, 64
14, 94560, Note_on_c, 10, 74, 75
14, 94640, Note_off_c, 10, 74, 64
14, 94680, Note_on_c, 10, 69, 75
14, 94760, Note_off_c, 10, 69, 64
14, 94800, Note_on_c, 10, 71, 75
14, 94880, Note_off_c, 10, 71, 64
14, 94920, Note_on_c, 10, 69, 75
14, 95000, Note_off_c, 10, 69, 64
14, 95040, Note_on_c, 10, 73, 127
14, 95160, Note_off_c, 10, 73, 64
14, 95160, Note_on_c, 10, 69, 127
14, 95280, Note_off_c, 10, 69, 64
14, 95280, Note_on_c, 10, 73, 127
14, 95395, Note_off_c, 10, 73, 64
14, 95400, Note_on_c, 10, 69, 127
14, 95515, Note_off_c, 10, 69, 64
14, 95520, Note_on_c, 10, 73, 127
14, 95640, Note_off_c, 10, 73, 64
14, 95640, Note_on_c, 10, 69, 127
14, 95760, Note_off_c, 10, 69, 64
14, 95760, Note_on_c, 10, 73, 127
14, 95875, Note_off_c, 10, 73, 64
14, 95880, Note_on_c, 10, 69, 127
14, 95995, Note_off_c, 10, 69, 64
14, 96000, Note_on_c, 10, 73, 127
14, 96120, Note_off_c, 10, 73, 64
14, 96120, Note_on_c, 10, 69, 127
14, 96240, Note_off_c, 10, 69, 64
14, 96240, Note_on_c, 10, 73, 127
14, 96355, Note_off_c, 10, 73, 64
14, 96360, Note_on_c, 10, 69, 127
14, 96475, Note_off_c, 10, 69, 64
14, 96480, Note_on_c, 10, 73, 127
14, 96600, Note_off_c, 10, 73, 64
14, 96600, Note_on_c, 10, 69, 127
14, 96720, Note_off_c, 10, 69, 64
14, 96720, Note_on_c, 10, 73, 127
14, 96835, Note_off_c, 10, 73, 64
14, 96840, Note_on_c, 10, 68, 127
14, 96955, Note_off_c, 10, 68, 64
14, 96960, Note_on_c, 10, 73, 127
14, 97080, Note_off_c, 10, 73, 64
14, 97080, Note_on_c, 10, 69, 127
14, 97200, Note_off_c, 10, 69, 64
14, 97200, Note_on_c, 10, 73, 127
14, 97315, Note_off_c, 10, 73, 64
14, 97320, Note_on_c, 10, 68, 127
14, 97435, Note_off_c, 10, 68, 64
14, 97440, Note_on_c, 10, 73, 127
14, 97560, Note_off_c, 10, 73, 64
14, 97560, Note_on_c, 10, 69, 127
14, 97680, Note_off_c, 10, 69, 64
14, 97680, Note_on_c, 10, 73, 127
14, 97795, Note_off_c, 10, 73, 64
14, 97800, Note_on_c, 10, 68, 127
14, 97915, Note_off_c, 10, 68, 64
14, 97920, Note_on_c, 10, 73, 127
14, 98040, Note_off_c, 10, 73, 64
14, 98040, Note_on_c, 10, 69, 127
14, 98160, Note_off_c, 10, 69, 64
14, 98160, Note_on_c, 10, 73, 127
14, 98275, Note_off_c, 10, 73, 64
14, 98280, Note_on_c, 10, 67, 127
14, 98395, Note_off_c, 10, 67, 64
14, 98400, Note_on_c, 10, 73, 127
14, 98520, Note_off_c, 10, 73, 64
14, 98520, Note_on_c, 10, 69, 127
14, 98640, Note_off_c, 10, 69, 64
14, 98640, Note_on_c, 10, 73, 127
14, 98755, Note_off_c, 10, 73, 64
14, 98760, Note_on_c, 10, 67, 127
14, 98875, Note_off_c, 10, 67, 64
14, 98880, Note_on_c, 10, 73, 127
14, 99000, Note_off_c, 10, 73, 64
14, 99000, Note_on_c, 10, 69, 127
14, 99120, Note_off_c, 10, 69, 64
14, 99120, Note_on_c, 10, 73, 127
14, 99235, Note_off_c, 10, 73, 64
14, 99240, Note_on_c, 10, 67, 127
14, 99355, Note_off_c, 10, 67, 64
14, 99360, Note_on_c, 10, 74, 127
14, 99480, Note_off_c, 10, 74, 64
14, 99480, Note_on_c, 10, 69, 127
14, 99600, Note_off_c, 10, 69, 64
14, 99600, Note_on_c, 10, 74, 127
14, 99715, Note_off_c, 10, 74, 64
14, 99720, Note_on_c, 10, 66, 127
14, 99835, Note_off_c, 10, 66, 64
14, 99840, Note_on_c, 10, 74, 127
14, 99960, Note_off_c, 10, 74, 64
14, 99960, Note_on_c, 10, 69, 127
14, 100080, Note_off_c, 10, 69, 64
14, 100080, Note_on_c, 10, 74, 127
14, 100195, Note_off_c, 10, 74, 64
14, 100200, Note_on_c, 10, 66, 127
14, 100315, Note_off_c, 10, 66, 64
14, 100320, Note_on_c, 10, 74, 127
14, 100440, Note_off_c, 10, 74, 64
14, 100440, Note_on_c, 10, 69, 127
14, 100560, Note_off_c, 10, 69, 64
14, 100560, Note_on_c, 10, 74, 127
14, 100675, Note_off_c, 10, 74, 64
14, 100680, Note_on_c, 10, 66, 127
14, 100795, Note_off_c, 10, 66, 64
14, 100800, Note_on_c, 10, 74, 127
14, 100920, Note_off_c, 10, 74, 64
14, 100920, Note_on_c, 10, 69, 127
14, 101040, Note_off_c, 10, 69, 64
14, 101040, Note_on_c, 10, 74, 127
14, 101155, Note_off_c, 10, 74, 64
14, 101160, Note_on_c, 10, 64, 127
14, 101275, Note_off_c, 10, 64, 64
14, 101280, Note_on_c, 10, 74, 127
14, 101400, Note_off_c, 10, 74, 64
14, 101400, Note_on_c, 10, 69, 127
14, 101520, Note_off_c, 10, 69, 64
14, 101520, Note_on_c, 10, 74, 127
14, 101635, Note_off_c, 10, 74, 64
14, 101640, Note_on_c, 10, 64, 127
14, 101755, Note_off_c, 10, 64, 64
14, 101760, Note_on_c, 10, 74, 127
14, 101880, Note_off_c, 10, 74, 64
14, 101880, Note_on_c, 10, 69, 127
14, 102000, Note_off_c, 10, 69, 64
14, 102000, Note_on_c, 10, 74, 127
14, 102115, Note_off_c, 10, 74, 64
14, 102120, Note_on_c, 10, 64, 127
14, 102235, Note_off_c, 10, 64, 64
14, 102240, Note_on_c, 10, 73, 108
14, 102360, Note_off_c, 10, 73, 64
14, 102360, Note_on_c, 10, 69, 108
14, 102480, Note_off_c, 10, 69, 64
14, 102480, Note_on_c, 10, 73, 108
14, 102595, Note_off_c, 10, 73, 64
14, 102600, Note_on_c, 10, 64, 108
14, 102715, Note_off_c, 10, 64, 64
14, 102720, Note_on_c, 10, 73, 108
14, 102840, Note_off_c, 10, 73, 64
14, 102840, Note_on_c, 10, 69, 108
14, 102960, Note_off_c, 10, 69, 64
14, 102960, Note_on_c, 10, 73, 108
14, 103075, Note_off_c, 10, 73, 64
14, 103080, Note_on_c, 10, 64, 108
14, 103195, Note_off_c, 10, 64, 64
14, 103200, Note_on_c, 10, 73, 108
14, 103320, Note_off_c, 10, 73, 64
14, 103320, Note_on_c, 10, 69, 108
14, 103440, Note_off_c, 10, 69, 64
14, 103440, Note_on_c, 10, 73, 108
14, 103555, Note_off_c, 10, 73, 64
14, 103560, Note_on_c, 10, 64, 108
14, 103675, Note_off_c, 10, 64, 64
14, 103680, Note_on_c, 10, 73, 108
14, 103800, Note_off_c, 10, 73, 64
14, 103800, Note_on_c, 10, 69, 108
14, 103920, Note_off_c, 10, 69, 64
14, 103920, Note_on_c, 10, 73, 108
14, 104035, Note_off_c, 10, 73, 64
14, 104040, Note_on_c, 10, 62, 108
14, 104155, Note_off_c, 10, 62, 64
14, 104160, Note_on_c, 10, 73, 108
14, 104280, Note_off_c, 10, 73, 64
14, 104280, Note_on_c, 10, 69, 108
14, 104400, Note_off_c, 10, 69, 64
14, 104400, Note_on_c, 10, 73, 108
14, 104515, Note_off_c, 10, 73, 64
14, 104520, Note_on_c, 10, 62, 108
14, 104635, Note_off_c, 10, 62, 64
14, 104640, Note_on_c, 10, 73, 108
14, 104760, Note_off_c, 10, 73, 64
14, 104760, Note_on_c, 10, 69, 108
14, 104880, Note_off_c, 10, 69, 64
14, 104880, Note_on_c, 10, 73, 108
14, 104995, Note_off_c, 10, 73, 64
14, 105000, Note_on_c, 10, 62, 108
14, 105115, Note_off_c, 10, 62, 64
14, 105120, Note_on_c, 10, 71, 108
14, 105240, Note_off_c, 10, 71, 64
14, 105240, Note_on_c, 10, 69, 107
14, 105360, Note_off_c, 10, 69, 64
14, 105360, Note_on_c, 10, 71, 106
14, 105475, Note_off_c, 10, 71, 64
14, 105480, Note_on_c, 10, 62, 105
14, 105595, Note_off_c, 10, 62, 64
14, 105600, Note_on_c, 10, 71, 104
14, 105720, Note_off_c, 10, 71, 64
14, 105720, Note_on_c, 10, 69, 103
14, 105840, Note_off_c, 10, 69, 64
14, 105840, Note_on_c, 10, 71, 102
14, 105955, Note_off_c, 10, 71, 64
14, 105960, Note_on_c, 10, 62, 101
14, 106075, Note_off_c, 10, 62, 64
14, 106080, Note_on_c, 10, 71, 100
14, 106200, Note_off_c, 10, 71, 64
14, 106200, Note_on_c, 10, 69, 99
14, 106320, Note_off_c, 10, 69, 64
14, 106320, Note_on_c, 10, 71, 98
14, 106435, Note_off_c, 10, 71, 64
14, 106440, Note_on_c, 10, 62, 97
14, 106555, Note_off_c, 10, 62, 64
14, 106560, Note_on_c, 10, 71, 96
14, 106680, Note_off_c, 10, 71, 64
14, 106680, Note_on_c, 10, 69, 95
14, 106800, Note_off_c, 10, 69, 64
14, 106800, Note_on_c, 10, 71, 94
14, 106915, Note_off_c, 10, 71, 64
14, 106920, Note_on_c, 10, 61, 93
14, 107035, Note_off_c, 10, 61, 64
14, 107040, Note_on_c, 10, 71, 91
14, 107160, Note_off_c, 10, 71, 64
14, 107160, Note_on_c, 10, 69, 89
14, 107280, Note_off_c, 10, 69, 64
14, 107280, Note_on_c, 10, 71, 87
14, 107395, Note_off_c, 10, 71, 64
14, 107400, Note_on_c, 10, 61, 85
14, 107515, Note_off_c, 10, 61, 64
14, 107520, Note_on_c, 10, 71, 83
14, 107640, Note_off_c, 10, 71, 64
14, 107640, Note_on_c, 10, 69, 81
14, 107760, Note_off_c, 10, 69, 64
14, 107760, Note_on_c, 10, 71, 79
14, 107875, Note_off_c, 10, 71, 64
14, 107880, Note_on_c, 10, 61, 77
14, 107995, Note_off_c, 10, 61, 64
14, 108000, Note_on_c, 10, 69, 75
14, 108120, Note_off_c, 10, 69, 64
14, 108120, Note_on_c, 10, 69, 75
14, 108240, Note_off_c, 10, 69, 64
14, 108240, Note_on_c, 10, 69, 75
14, 108355, Note_off_c, 10, 69, 64
14, 108360, Note_on_c, 10, 61, 75
14, 108475, Note_off_c, 10, 61, 64
14, 108480, Note_on_c, 10, 69, 75
14, 108600, Note_off_c, 10, 69, 64
14, 108600, Note_on_c, 10, 69, 75
14, 108720, Note_off_c, 10, 69, 64
14, 108720, Note_on_c, 10, 69, 75
14, 108835, Note_off_c, 10, 69, 64
14, 108840, Note_on_c, 10, 61, 75
14, 108955, Note_off_c, 10, 61, 64
14, 108960, Note_on_c, 10, 69, 75
14, 109080, Note_off_c, 10, 69, 64
14, 109080, Note_on_c, 10, 69, 75
14, 109200, Note_off_c, 10, 69, 64
14, 109200, Note_on_c, 10, 69, 75
14, 109315, Note_off_c, 10, 69, 64
14, 109320, Note_on_c, 10, 61, 75
14, 109435, Note_off_c, 10, 61, 64
14, 109440, Note_on_c, 10, 69, 75
14, 109560, Note_off_c, 10, 69, 64
14, 109560, Note_on_c, 10, 69, 75
14, 109680, Note_off_c, 10, 69, 64
14, 109680, Note_on_c, 10, 69, 75
14, 109795, Note_off_c, 10, 69, 64
14, 109800, Note_on_c, 10, 59, 75
14, 109915, Note_off_c, 10, 59, 64
14, 109920, Note_on_c, 10, 69, 75
14, 110040, Note_off_c, 10, 69, 64
14, 110040, Note_on_c, 10, 69, 75
14, 110160, Note_off_c, 10, 69, 64
14, 110160, Note_on_c, 10, 69, 75
14, 110275, Note_off_c, 10, 69, 64
14, 110280, Note_on_c, 10, 59, 75
14, 110395, Note_off_c, 10, 59, 64
14, 110400, Note_on_c, 10, 69, 75
14, 110520, Note_off_c, 10, 69, 64
14, 110520, Note_on_c, 10, 69, 75
14, 110640, Note_off_c, 10, 69, 64
14, 110640, Note_on_c, 10, 69, 75
14, 110755, Note_off_c, 10, 69, 64
14, 110760, Note_on_c, 10, 59, 75
14, 110875, Note_off_c, 10, 59, 64
14, 110880, Note_on_c, 10, 68, 60
14, 110960, Note_off_c, 10, 68, 64
14, 111000, Note_on_c, 10, 69, 60
14, 111080, Note_off_c, 10, 69, 64
14, 111120, Note_on_c, 10, 68, 60
14, 111200, Note_off_c, 10, 68, 64
14, 111240, Note_on_c, 10, 59, 60
14, 111320, Note_off_c, 10, 59, 64
14, 111360, Note_on_c, 10, 68, 60
14, 111440, Note_off_c, 10, 68, 64
14, 111480, Note_on_c, 10, 69, 60
14, 111560, Note_off_c, 10, 69, 64
14, 111600, Note_on_c, 10, 68, 60
14, 111680, Note_off_c, 10, 68, 64
14, 111720, Note_on_c, 10, 59, 60
14, 111800, Note_off_c, 10, 59, 64
14, 111840, Note_on_c, 10, 68, 60
14, 111920, Note_off_c, 10, 68, 64
14, 111960, Note_on_c, 10, 69, 60
14, 112040, Note_off_c, 10, 69, 64
14, 112080, Note_on_c, 10, 68, 60
14, 112160, Note_off_c, 10, 68, 64
14, 112200, Note_on_c, 10, 59, 60
14, 112280, Note_off_c, 10, 59, 64
14, 112320, Note_on_c, 10, 57, 75
14, 112435, Note_off_c, 10, 57, 64
14, 112440, Note_on_c, 10, 59, 75
14, 112555, Note_off_c, 10, 59, 64
14, 112560, Note_on_c, 10, 57, 75
14, 112675, Note_off_c, 10, 57, 64
14, 112680, Note_on_c, 10, 59, 75
14, 112795, Note_off_c, 10, 59, 64
14, 112800, Note_on_c, 10, 61, 76
14, 112920, Note_off_c, 10, 61, 64
14, 112920, Note_on_c, 10, 64, 77
14, 113035, Note_off_c, 10, 64, 64
14, 113040, Note_on_c, 10, 57, 77
14, 113155, Note_off_c, 10, 57, 64
14, 113160, Note_on_c, 10, 59, 78
14, 113275, Note_off_c, 10, 59, 64
14, 113280, Note_on_c, 10, 61, 79
14, 113400, Note_off_c, 10, 61, 64
14, 113400, Note_on_c, 10, 64, 80
14, 113515, Note_off_c, 10, 64, 64
14, 113520, Note_on_c, 10, 57, 81
14, 113635, Note_off_c, 10, 57, 64
14, 113640, Note_on_c, 10, 59, 82
14, 113755, Note_off_c, 10, 59, 64
14, 113760, Note_on_c, 10, 61, 83
14, 113875, Note_off_c, 10, 61, 64
14, 113880, Note_on_c, 10, 62, 84
14, 113995, Note_off_c, 10, 62, 64
14, 114000, Note_on_c, 10, 61, 85
14, 114115, Note_off_c, 10, 61, 64
14, 114120, Note_on_c, 10, 62, 86
14, 114235, Note_off_c, 10, 62, 64
14, 114240, Note_on_c, 10, 64, 87
14, 114360, Note_off_c, 10, 64, 64
14, 114360, Note_on_c, 10, 69, 88
14, 114475, Note_off_c, 10, 69, 64
14, 114480, Note_on_c, 10, 61, 89
14, 114595, Note_off_c, 10, 61, 64
14, 114600, Note_on_c, 10, 62, 90
14, 114715, Note_off_c, 10, 62, 64
14, 114720, Note_on_c, 10, 64, 91
14, 114840, Note_off_c, 10, 64, 64
14, 114840, Note_on_c, 10, 69, 92
14, 114955, Note_off_c, 10, 69, 64
14, 114960, Note_on_c, 10, 61, 93
14, 115075, Note_off_c, 10, 61, 64
14, 115080, Note_on_c, 10, 62, 94
14, 115195, Note_off_c, 10, 62, 64
14, 115200, Note_on_c, 10, 64, 95
14, 115315, Note_off_c, 10, 64, 64
14, 115320, Note_on_c, 10, 66, 96
14, 115435, Note_off_c, 10, 66, 64
14, 115440, Note_on_c, 10, 64, 97
14, 115555, Note_off_c, 10, 64, 64
14, 115560, Note_on_c, 10, 66, 98
14, 115675, Note_off_c, 10, 66, 64
14, 115680, Note_on_c, 10, 67, 99
14, 115800, Note_off_c, 10, 67, 64
14, 115800, Note_on_c, 10, 73, 100
14, 115915, Note_off_c, 10, 73, 64
14, 115920, Note_on_c, 10, 64, 101
14, 116035, Note_off_c, 10, 64, 64
14, 116040, Note_on_c, 10, 66, 102
14, 116155, Note_off_c, 10, 66, 64
14, 116160, Note_on_c, 10, 67, 103
14, 116280, Note_off_c, 10, 67, 64
14, 116280, Note_on_c, 10, 73, 104
14, 116395, Note_off_c, 10, 73, 64
14, 116400, Note_on_c, 10, 64, 105
14, 116515, Note_off_c, 10, 64, 64
14, 116520, Note_on_c, 10, 66, 106
14, 116635, Note_off_c, 10, 66, 64
14, 116640, Note_on_c, 10, 67, 108
14, 116755, Note_off_c, 10, 67, 64
14, 116760, Note_on_c, 10, 76, 108
14, 116875, Note_off_c, 10, 76, 64
14, 116880, Note_on_c, 10, 73, 108
14, 117000, Note_off_c, 10, 73, 64
14, 117000, Note_on_c, 10, 74, 108
14, 117120, Note_off_c, 10, 74, 64
14, 117120, Note_on_c, 10, 76, 108
14, 117235, Note_off_c, 10, 76, 64
14, 117240, Note_on_c, 10, 73, 108
14, 117355, Note_off_c, 10, 73, 64
14, 117360, Note_on_c, 10, 70, 108
14, 117480, Note_off_c, 10, 70, 64
14, 117480, Note_on_c, 10, 71, 108
14, 117600, Note_off_c, 10, 71, 64
14, 117600, Note_on_c, 10, 73, 108
14, 117715, Note_off_c, 10, 73, 64
14, 117720, Note_on_c, 10, 70, 108
14, 117835, Note_off_c, 10, 70, 64
14, 117840, Note_on_c, 10, 66, 108
14, 117955, Note_off_c, 10, 66, 64
14, 117960, Note_on_c, 10, 64, 108
14, 118075, Note_off_c, 10, 64, 64
14, 118080, Note_on_c, 10, 62, 60
14, 118195, Note_off_c, 10, 62, 64
14, 118200, Note_on_c, 10, 61, 61
14, 118315, Note_off_c, 10, 61, 64
14, 118320, Note_on_c, 10, 59, 62
14, 118435, Note_off_c, 10, 59, 64
14, 118440, Note_on_c, 10, 61, 63
14, 118560, Note_off_c, 10, 61, 64
14, 118560, Note_on_c, 10, 62, 64
14, 118680, Note_off_c, 10, 62, 64
14, 118680, Note_on_c, 10, 66, 65
14, 118795, Note_off_c, 10, 66, 64
14, 118800, Note_on_c, 10, 59, 66
14, 118915, Note_off_c, 10, 59, 64
14, 118920, Note_on_c, 10, 61, 67
14, 119040, Note_off_c, 10, 61, 64
14, 119040, Note_on_c, 10, 62, 68
14, 119160, Note_off_c, 10, 62, 64
14, 119160, Note_on_c, 10, 66, 69
14, 119275, Note_off_c, 10, 66, 64
14, 119280, Note_on_c, 10, 59, 70
14, 119395, Note_off_c, 10, 59, 64
14, 119400, Note_on_c, 10, 61, 71
14, 119515, Note_off_c, 10, 61, 64
14, 119520, Note_on_c, 10, 62, 72
14, 119635, Note_off_c, 10, 62, 64
14, 119640, Note_on_c, 10, 64, 73
14, 119755, Note_off_c, 10, 64, 64
14, 119760, Note_on_c, 10, 62, 74
14, 119880, Note_off_c, 10, 62, 64
14, 119880, Note_on_c, 10, 64, 75
14, 120000, Note_off_c, 10, 64, 64
14, 120000, Note_on_c, 10, 66, 76
14, 120115, Note_off_c, 10, 66, 64
14, 120120, Note_on_c, 10, 71, 77
14, 120235, Note_off_c, 10, 71, 64
14, 120240, Note_on_c, 10, 62, 78
14, 120360, Note_off_c, 10, 62, 64
14, 120360, Note_on_c, 10, 64, 79
14, 120480, Note_off_c, 10, 64, 64
14, 120480, Note_on_c, 10, 66, 80
14, 120595, Note_off_c, 10, 66, 64
14, 120600, Note_on_c, 10, 71, 81
14, 120715, Note_off_c, 10, 71, 64
14, 120720, Note_on_c, 10, 62, 82
14, 120840, Note_off_c, 10, 62, 64
14, 120840, Note_on_c, 10, 64, 83
14, 120960, Note_off_c, 10, 64, 64
14, 120960, Note_on_c, 10, 66, 84
14, 121075, Note_off_c, 10, 66, 64
14, 121080, Note_on_c, 10, 68, 86
14, 121195, Note_off_c, 10, 68, 64
14, 121200, Note_on_c, 10, 66, 88
14, 121320, Note_off_c, 10, 66, 64
14, 121320, Note_on_c, 10, 68, 90
14, 121440, Note_off_c, 10, 68, 64
14, 121440, Note_on_c, 10, 69, 92
14, 121555, Note_off_c, 10, 69, 64
14, 121560, Note_on_c, 10, 75, 94
14, 121675, Note_off_c, 10, 75, 64
14, 121680, Note_on_c, 10, 66, 96
14, 121800, Note_off_c, 10, 66, 64
14, 121800, Note_on_c, 10, 68, 98
14, 121920, Note_off_c, 10, 68, 64
14, 121920, Note_on_c, 10, 69, 100
14, 122035, Note_off_c, 10, 69, 64
14, 122040, Note_on_c, 10, 75, 102
14, 122155, Note_off_c, 10, 75, 64
14, 122160, Note_on_c, 10, 66, 104
14, 122280, Note_off_c, 10, 66, 64
14, 122280, Note_on_c, 10, 68, 106
14, 122400, Note_off_c, 10, 68, 64
14, 122400, Note_on_c, 10, 69, 108
14, 122515, Note_off_c, 10, 69, 64
14, 122520, Note_on_c, 10, 78, 108
14, 122635, Note_off_c, 10, 78, 64
14, 122640, Note_on_c, 10, 75, 108
14, 122755, Note_off_c, 10, 75, 64
14, 122760, Note_on_c, 10, 76, 108
14, 122875, Note_off_c, 10, 76, 64
14, 122880, Note_on_c, 10, 78, 108
14, 122995, Note_off_c, 10, 78, 64
14, 123000, Note_on_c, 10, 75, 108
14, 123115, Note_off_c, 10, 75, 64
14, 123120, Note_on_c, 10, 72, 108
14, 123240, Note_off_c, 10, 72, 64
14, 123240, Note_on_c, 10, 73, 108
14, 123360, Note_off_c, 10, 73, 64
14, 123360, Note_on_c, 10, 75, 108
14, 123475, Note_off_c, 10, 75, 64
14, 123480, Note_on_c, 10, 72, 108
14, 123595, Note_off_c, 10, 72, 64
14, 123600, Note_on_c, 10, 68, 108
14, 123715, Note_off_c, 10, 68, 64
14, 123720, Note_on_c, 10, 66, 108
14, 123835, Note_off_c, 10, 66, 64
14, 123840, Note_on_c, 10, 65, 108
14, 123955, Note_off_c, 10, 65, 64
14, 123960, Note_on_c, 10, 83, 108
14, 124075, Note_off_c, 10, 83, 64
14, 124080, Note_on_c, 10, 80, 108
14, 124200, Note_off_c, 10, 80, 64
14, 124200, Note_on_c, 10, 81, 108
14, 124320, Note_off_c, 10, 81, 64
14, 124320, Note_on_c, 10, 83, 108
14, 124435, Note_off_c, 10, 83, 64
14, 124440, Note_on_c, 10, 80, 108
14, 124555, Note_off_c, 10, 80, 64
14, 124560, Note_on_c, 10, 77, 108
14, 124680, Note_off_c, 10, 77, 64
14, 124680, Note_on_c, 10, 78, 108
14, 124800, Note_off_c, 10, 78, 64
14, 124800, Note_on_c, 10, 80, 108
14, 124915, Note_off_c, 10, 80, 64
14, 124920, Note_on_c, 10, 77, 108
14, 125035, Note_off_c, 10, 77, 64
14, 125040, Note_on_c, 10, 73, 108
14, 125155, Note_off_c, 10, 73, 64
14, 125160, Note_on_c, 10, 71, 108
14, 125275, Note_off_c, 10, 71, 64
14, 125280, Note_on_c, 10, 69, 108
14, 125395, Note_off_c, 10, 69, 64
14, 125400, Note_on_c, 10, 85, 108
14, 125515, Note_off_c, 10, 85, 64
14, 125520, Note_on_c, 10, 81, 108
14, 125640, Note_off_c, 10, 81, 64
14, 125640, Note_on_c, 10, 83, 108
14, 125760, Note_off_c, 10, 83, 64
14, 125760, Note_on_c, 10, 85, 108
14, 125875, Note_off_c, 10, 85, 64
14, 125880, Note_on_c, 10, 81, 108
14, 125995, Note_off_c, 10, 81, 64
14, 126000, Note_on_c, 10, 78, 108
14, 126120, Note_off_c, 10, 78, 64
14, 126120, Note_on_c, 10, 80, 108
14, 126240, Note_off_c, 10, 80, 64
14, 126240, Note_on_c, 10, 81, 108
14, 126355, Note_off_c, 10, 81, 64
14, 126360, Note_on_c, 10, 78, 108
14, 126475, Note_off_c, 10, 78, 64
14, 126480, Note_on_c, 10, 74, 108
14, 126595, Note_off_c, 10, 74, 64
14, 126600, Note_on_c, 10, 73, 108
14, 126715, Note_off_c, 10, 73, 64
14, 126720, Note_on_c, 10, 71, 108
14, 126835, Note_off_c, 10, 71, 64
14, 126840, Note_on_c, 10, 86, 108
14, 126955, Note_off_c, 10, 86, 64
14, 126960, Note_on_c, 10, 83, 108
14, 127080, Note_off_c, 10, 83, 64
14, 127080, Note_on_c, 10, 85, 108
14, 127200, Note_off_c, 10, 85, 64
14, 127200, Note_on_c, 10, 86, 108
14, 127315, Note_off_c, 10, 86, 64
14, 127320, Note_on_c, 10, 83, 108
14, 127435, Note_off_c, 10, 83, 64
14, 127440, Note_on_c, 10, 80, 108
14, 127560, Note_off_c, 10, 80, 64
14, 127560, Note_on_c, 10, 81, 108
14, 127680, Note_off_c, 10, 81, 64
14, 127680, Note_on_c, 10, 83, 108
14, 127795, Note_off_c, 10, 83, 64
14, 127800, Note_on_c, 10, 80, 108
14, 127915, Note_off_c, 10, 80, 64
14, 127920, Note_on_c, 10, 77, 108
14, 128035, Note_off_c, 10, 77, 64
14, 128040, Note_on_c, 10, 80, 108
14, 128155, Note_off_c, 10, 80, 64
14, 128160, Note_on_c, 10, 73, 60
14, 128280, Note_off_c, 10, 73, 64
14, 128280, Note_on_c, 10, 75, 60
14, 128400, Note_off_c, 10, 75, 64
14, 128400, Note_on_c, 10, 73, 60
14, 128515, Note_off_c, 10, 73, 64
14, 128520, Note_on_c, 10, 75, 60
14, 128635, Note_off_c, 10, 75, 64
14, 128640, Note_on_c, 10, 77, 60
14, 128760, Note_off_c, 10, 77, 64
14, 128760, Note_on_c, 10, 80, 60
14, 128875, Note_off_c, 10, 80, 64
14, 128880, Note_on_c, 10, 73, 60
14, 128995, Note_off_c, 10, 73, 64
14, 129000, Note_on_c, 10, 75, 60
14, 129115, Note_off_c, 10, 75, 64
14, 129120, Note_on_c, 10, 77, 60
14, 129240, Note_off_c, 10, 77, 64
14, 129240, Note_on_c, 10, 80, 60
14, 129355, Note_off_c, 10, 80, 64
14, 129360, Note_on_c, 10, 73, 60
14, 129475, Note_off_c, 10, 73, 64
14, 129480, Note_on_c, 10, 75, 60
14, 129595, Note_off_c, 10, 75, 64
14, 129600, Note_on_c, 10, 77, 60
14, 129720, Note_off_c, 10, 77, 64
14, 129720, Note_on_c, 10, 78, 61
14, 129840, Note_off_c, 10, 78, 64
14, 129840, Note_on_c, 10, 77, 62
14, 129955, Note_off_c, 10, 77, 64
14, 129960, Note_on_c, 10, 78, 63
14, 130075, Note_off_c, 10, 78, 64
14, 130080, Note_on_c, 10, 80, 64
14, 130200, Note_off_c, 10, 80, 64
14, 130200, Note_on_c, 10, 83, 65
14, 130315, Note_off_c, 10, 83, 64
14, 130320, Note_on_c, 10, 77, 66
14, 130435, Note_off_c, 10, 77, 64
14, 130440, Note_on_c, 10, 78, 67
14, 130555, Note_off_c, 10, 78, 64
14, 130560, Note_on_c, 10, 80, 68
14, 130680, Note_off_c, 10, 80, 64
14, 130680, Note_on_c, 10, 83, 69
14, 130795, Note_off_c, 10, 83, 64
14, 130800, Note_on_c, 10, 77, 70
14, 130915, Note_off_c, 10, 77, 64
14, 130920, Note_on_c, 10, 78, 71
14, 131035, Note_off_c, 10, 78, 64
14, 131040, Note_on_c, 10, 80, 72
14, 131160, Note_off_c, 10, 80, 64
14, 131160, Note_on_c, 10, 81, 73
14, 131280, Note_off_c, 10, 81, 64
14, 131280, Note_on_c, 10, 80, 74
14, 131395, Note_off_c, 10, 80, 64
14, 131400, Note_on_c, 10, 81, 75
14, 131515, Note_off_c, 10, 81, 64
14, 131520, Note_on_c, 10, 83, 76
14, 131640, Note_off_c, 10, 83, 64
14, 131640, Note_on_c, 10, 86, 78
14, 131755, Note_off_c, 10, 86, 64
14, 131760, Note_on_c, 10, 80, 80
14, 131875, Note_off_c, 10, 80, 64
14, 131880, Note_on_c, 10, 81, 82
14, 131995, Note_off_c, 10, 81, 64
14, 132000, Note_on_c, 10, 83, 84
14, 132120, Note_off_c, 10, 83, 64
14, 132120, Note_on_c, 10, 86, 86
14, 132235, Note_off_c, 10, 86, 64
14, 132240, Note_on_c, 10, 80, 88
14, 132355, Note_off_c, 10, 80, 64
14, 132360, Note_on_c, 10, 81, 90
14, 132475, Note_off_c, 10, 81, 64
14, 132480, Note_on_c, 10, 83, 92
14, 132600, Note_off_c, 10, 83, 64
14, 132600, Note_on_c, 10, 86, 92
14, 132720, Note_off_c, 10, 86, 64
14, 132720, Note_on_c, 10, 83, 92
14, 132835, Note_off_c, 10, 83, 64
14, 132840, Note_on_c, 10, 80, 92
14, 132955, Note_off_c, 10, 80, 64
14, 132960, Note_on_c, 10, 77, 92
14, 133075, Note_off_c, 10, 77, 64
14, 133080, Note_on_c, 10, 83, 92
14, 133195, Note_off_c, 10, 83, 64
14, 133200, Note_on_c, 10, 80, 92
14, 133315, Note_off_c, 10, 80, 64
14, 133320, Note_on_c, 10, 77, 92
14, 133435, Note_off_c, 10, 77, 64
14, 133440, Note_on_c, 10, 73, 92
14, 133555, Note_off_c, 10, 73, 64
14, 133560, Note_on_c, 10, 83, 92
14, 133680, Note_off_c, 10, 83, 64
14, 133680, Note_on_c, 10, 81, 92
14, 133800, Note_off_c, 10, 81, 64
14, 133800, Note_on_c, 10, 80, 92
14, 133915, Note_off_c, 10, 80, 64
14, 133920, Note_on_c, 10, 78, 92
14, 134040, Note_off_c, 10, 78, 64
14, 134040, Note_on_c, 10, 80, 92
14, 134160, Note_off_c, 10, 80, 64
14, 134160, Note_on_c, 10, 81, 92
14, 134275, Note_off_c, 10, 81, 64
14, 134280, Note_on_c, 10, 78, 92
14, 134395, Note_off_c, 10, 78, 64
14, 134400, Note_on_c, 10, 71, 92
14, 134515, Note_off_c, 10, 71, 64
14, 134520, Note_on_c, 10, 81, 92
14, 134640, Note_off_c, 10, 81, 64
14, 134640, Note_on_c, 10, 80, 92
14, 134760, Note_off_c, 10, 80, 64
14, 134760, Note_on_c, 10, 78, 92
14, 134875, Note_off_c, 10, 78, 64
14, 134880, Note_on_c, 10, 73, 92
14, 134995, Note_off_c, 10, 73, 64
14, 135000, Note_on_c, 10, 80, 92
14, 135120, Note_off_c, 10, 80, 64
14, 135120, Note_on_c, 10, 78, 92
14, 135240, Note_off_c, 10, 78, 64
14, 135240, Note_on_c, 10, 77, 92
14, 135355, Note_off_c, 10, 77, 64
14, 135360, Note_on_c, 10, 74, 75
14, 135480, Note_off_c, 10, 74, 64
14, 135480, Note_on_c, 10, 76, 75
14, 135600, Note_off_c, 10, 76, 64
14, 135600, Note_on_c, 10, 78, 75
14, 135715, Note_off_c, 10, 78, 64
14, 135720, Note_on_c, 10, 74, 75
14, 135835, Note_off_c, 10, 74, 64
14, 135840, Note_on_c, 10, 68, 75
14, 135955, Note_off_c, 10, 68, 64
14, 135960, Note_on_c, 10, 78, 75
14, 136080, Note_off_c, 10, 78, 64
14, 136080, Note_on_c, 10, 76, 75
14, 136200, Note_off_c, 10, 76, 64
14, 136200, Note_on_c, 10, 74, 75
14, 136315, Note_off_c, 10, 74, 64
14, 136320, Note_on_c, 10, 70, 75
14, 136435, Note_off_c, 10, 70, 64
14, 136440, Note_on_c, 10, 76, 75
14, 136560, Note_off_c, 10, 76, 64
14, 136560, Note_on_c, 10, 74, 75
14, 136680, Note_off_c, 10, 74, 64
14, 136680, Note_on_c, 10, 73, 75
14, 136795, Note_off_c, 10, 73, 64
14, 136800, Note_on_c, 10, 71, 75
14, 136920, Note_off_c, 10, 71, 64
14, 136920, Note_on_c, 10, 73, 75
14, 137040, Note_off_c, 10, 73, 64
14, 137040, Note_on_c, 10, 74, 75
14, 137155, Note_off_c, 10, 74, 64
14, 137160, Note_on_c, 10, 71, 75
14, 137275, Note_off_c, 10, 71, 64
14, 137280, Note_on_c, 10, 65, 75
14, 137395, Note_off_c, 10, 65, 64
14, 137400, Note_on_c, 10, 74, 75
14, 137520, Note_off_c, 10, 74, 64
14, 137520, Note_on_c, 10, 73, 75
14, 137640, Note_off_c, 10, 73, 64
14, 137640, Note_on_c, 10, 71, 75
14, 137755, Note_off_c, 10, 71, 64
14, 137760, Note_on_c, 10, 66, 75
14, 137875, Note_off_c, 10, 66, 64
14, 137880, Note_on_c, 10, 73, 75
14, 138000, Note_off_c, 10, 73, 64
14, 138000, Note_on_c, 10, 71, 75
14, 138120, Note_off_c, 10, 71, 64
14, 138120, Note_on_c, 10, 69, 75
14, 138235, Note_off_c, 10, 69, 64
14, 138240, Note_on_c, 10, 68, 60
14, 138360, Note_off_c, 10, 68, 64
14, 138360, Note_on_c, 10, 69, 60
14, 138480, Note_off_c, 10, 69, 64
14, 138480, Note_on_c, 10, 71, 60
14, 138595, Note_off_c, 10, 71, 64
14, 138600, Note_on_c, 10, 69, 60
14, 138715, Note_off_c, 10, 69, 64
14, 138720, Note_on_c, 10, 68, 60
14, 138835, Note_off_c, 10, 68, 64
14, 138840, Note_on_c, 10, 71, 60
14, 138960, Note_off_c, 10, 71, 64
14, 138960, Note_on_c, 10, 69, 60
14, 139075, Note_off_c, 10, 69, 64
14, 139080, Note_on_c, 10, 71, 60
14, 139200, Note_off_c, 10, 71, 64
14, 139200, Note_on_c, 10, 68, 60
14, 139315, Note_off_c, 10, 68, 64
14, 139320, Note_on_c, 10, 71, 60
14, 139440, Note_off_c, 10, 71, 64
14, 139440, Note_on_c, 10, 66, 60
14, 139555, Note_off_c, 10, 66, 64
14, 139560, Note_on_c, 10, 71, 60
14, 139675, Note_off_c, 10, 71, 64
14, 139680, Note_on_c, 10, 65, 60
14, 139800, Note_off_c, 10, 65, 64
14, 139800, Note_on_c, 10, 66, 60
14, 139920, Note_off_c, 10, 66, 64
14, 139920, Note_on_c, 10, 68, 60
14, 140035, Note_off_c, 10, 68, 64
14, 140040, Note_on_c, 10, 69, 60
14, 140155, Note_off_c, 10, 69, 64
14, 140160, Note_on_c, 10, 71, 60
14, 140280, Note_off_c, 10, 71, 64
14, 140280, Note_on_c, 10, 65, 60
14, 140395, Note_off_c, 10, 65, 64
14, 140400, Note_on_c, 10, 74, 60
14, 140520, Note_off_c, 10, 74, 64
14, 140520, Note_on_c, 10, 65, 60
14, 140635, Note_off_c, 10, 65, 64
14, 140640, Note_on_c, 10, 73, 60
14, 140760, Note_off_c, 10, 73, 64
14, 140760, Note_on_c, 10, 65, 60
14, 140875, Note_off_c, 10, 65, 64
14, 140880, Note_on_c, 10, 71, 60
14, 141000, Note_off_c, 10, 71, 64
14, 141000, Note_on_c, 10, 65, 60
14, 141115, Note_off_c, 10, 65, 64
14, 141120, Note_on_c, 10, 66, 60
14, 141240, Note_off_c, 10, 66, 64
14, 141240, Note_on_c, 10, 69, 60
14, 141360, Note_off_c, 10, 69, 64
14, 141360, Note_on_c, 10, 66, 60
14, 141440, Note_off_c, 10, 66, 64
14, 141480, Note_on_c, 10, 61, 60
14, 141560, Note_off_c, 10, 61, 64
14, 141600, Note_on_c, 10, 57, 60
14, 141680, Note_off_c, 10, 57, 64
14, 141720, Note_on_c, 10, 61, 60
14, 141800, Note_off_c, 10, 61, 64
14, 141840, Note_on_c, 10, 66, 60
14, 141920, Note_off_c, 10, 66, 64
14, 141960, Note_on_c, 10, 61, 60
14, 142040, Note_off_c, 10, 61, 64
14, 142080, Note_on_c, 10, 69, 60
14, 142160, Note_off_c, 10, 69, 64
14, 142200, Note_on_c, 10, 61, 60
14, 142280, Note_off_c, 10, 61, 64
14, 142320, Note_on_c, 10, 66, 60
14, 142400, Note_off_c, 10, 66, 64
14, 142440, Note_on_c, 10, 61, 60
14, 142520, Note_off_c, 10, 61, 64
14, 142560, Note_on_c, 10, 65, 60
14, 142680, Note_off_c, 10, 65, 64
14, 142680, Note_on_c, 10, 68, 61
14, 142800, Note_off_c, 10, 68, 64
14, 142800, Note_on_c, 10, 65, 62
14, 142880, Note_off_c, 10, 65, 64
14, 142920, Note_on_c, 10, 61, 63
14, 143000, Note_off_c, 10, 61, 64
14, 143040, Note_on_c, 10, 65, 64
14, 143120, Note_off_c, 10, 65, 64
14, 143160, Note_on_c, 10, 68, 65
14, 143240, Note_off_c, 10, 68, 64
14, 143280, Note_on_c, 10, 73, 66
14, 143360, Note_off_c, 10, 73, 64
14, 143400, Note_on_c, 10, 68, 67
14, 143480, Note_off_c, 10, 68, 64
14, 143520, Note_on_c, 10, 77, 68
14, 143600, Note_off_c, 10, 77, 64
14, 143640, Note_on_c, 10, 73, 70
14, 143720, Note_off_c, 10, 73, 64
14, 143760, Note_on_c, 10, 80, 72
14, 143840, Note_off_c, 10, 80, 64
14, 143880, Note_on_c, 10, 71, 74
14, 143960, Note_off_c, 10, 71, 64
14, 144000, Note_on_c, 10, 69, 76
14, 144120, Note_off_c, 10, 69, 64
14, 144120, Note_on_c, 10, 73, 78
14, 144240, Note_off_c, 10, 73, 64
14, 144240, Note_on_c, 10, 69, 80
14, 144320, Note_off_c, 10, 69, 64
14, 144360, Note_on_c, 10, 66, 82
14, 144440, Note_off_c, 10, 66, 64
14, 144480, Note_on_c, 10, 69, 84
14, 144560, Note_off_c, 10, 69, 64
14, 144600, Note_on_c, 10, 73, 86
14, 144680, Note_off_c, 10, 73, 64
14, 144720, Note_on_c, 10, 78, 88
14, 144800, Note_off_c, 10, 78, 64
14, 144840, Note_on_c, 10, 73, 90
14, 144920, Note_off_c, 10, 73, 64
14, 144960, Note_on_c, 10, 81, 92
14, 145040, Note_off_c, 10, 81, 64
14, 145080, Note_on_c, 10, 78, 94
14, 145160, Note_off_c, 10, 78, 64
14, 145200, Note_on_c, 10, 85, 96
14, 145280, Note_off_c, 10, 85, 64
14, 145320, Note_on_c, 10, 78, 98
14, 145400, Note_off_c, 10, 78, 64
14, 145440, Note_on_c, 10, 77, 100
14, 145560, Note_off_c, 10, 77, 64
14, 145560, Note_on_c, 10, 80, 102
14, 145680, Note_off_c, 10, 80, 64
14, 145680, Note_on_c, 10, 77, 104
14, 145795, Note_off_c, 10, 77, 64
14, 145800, Note_on_c, 10, 73, 106
14, 145915, Note_off_c, 10, 73, 64
14, 145920, Note_on_c, 10, 85, 108
14, 146040, Note_off_c, 10, 85, 64
14, 146040, Note_on_c, 10, 84, 108
14, 146160, Note_off_c, 10, 84, 64
14, 146160, Note_on_c, 10, 85, 108
14, 146275, Note_off_c, 10, 85, 64
14, 146280, Note_on_c, 10, 84, 108
14, 146395, Note_off_c, 10, 84, 64
14, 146400, Note_on_c, 10, 85, 108
14, 146515, Note_off_c, 10, 85, 64
14, 146520, Note_on_c, 10, 80, 108
14, 146635, Note_off_c, 10, 80, 64
14, 146640, Note_on_c, 10, 81, 108
14, 146755, Note_off_c, 10, 81, 64
14, 146760, Note_on_c, 10, 78, 108
14, 146875, Note_off_c, 10, 78, 64
14, 146880, Note_on_c, 10, 77, 108
14, 147000, Note_off_c, 10, 77, 64
14, 147000, Note_on_c, 10, 80, 108
14, 147115, Note_off_c, 10, 80, 64
14, 147120, Note_on_c, 10, 77, 108
14, 147235, Note_off_c, 10, 77, 64
14, 147240, Note_on_c, 10, 73, 108
14, 147355, Note_off_c, 10, 73, 64
14, 147360, Note_on_c, 10, 83, 108
14, 147480, Note_off_c, 10, 83, 64
14, 147480, Note_on_c, 10, 82, 108
14, 147600, Note_off_c, 10, 82, 64
14, 147600, Note_on_c, 10, 83, 108
14, 147715, Note_off_c, 10, 83, 64
14, 147720, Note_on_c, 10, 82, 108
14, 147835, Note_off_c, 10, 82, 64
14, 147840, Note_on_c, 10, 83, 108
14, 147955, Note_off_c, 10, 83, 64
14, 147960, Note_on_c, 10, 80, 108
14, 148075, Note_off_c, 10, 80, 64
14, 148080, Note_on_c, 10, 81, 108
14, 148195, Note_off_c, 10, 81, 64
14, 148200, Note_on_c, 10, 78, 108
14, 148315, Note_off_c, 10, 78, 64
14, 148320, Note_on_c, 10, 77, 108
14, 148440, Note_off_c, 10, 77, 64
14, 148440, Note_on_c, 10, 80, 108
14, 148555, Note_off_c, 10, 80, 64
14, 148560, Note_on_c, 10, 77, 108
14, 148675, Note_off_c, 10, 77, 64
14, 148680, Note_on_c, 10, 73, 108
14, 148795, Note_off_c, 10, 73, 64
14, 148800, Note_on_c, 10, 74, 108
14, 148920, Note_off_c, 10, 74, 64
14, 148920, Note_on_c, 10, 73, 108
14, 149040, Note_off_c, 10, 73, 64
14, 149040, Note_on_c, 10, 74, 108
14, 149155, Note_off_c, 10, 74, 64
14, 149160, Note_on_c, 10, 73, 108
14, 149275, Note_off_c, 10, 73, 64
14, 149280, Note_on_c, 10, 74, 108
14, 149395, Note_off_c, 10, 74, 64
14, 149400, Note_on_c, 10, 68, 108
14, 149515, Note_off_c, 10, 68, 64
14, 149520, Note_on_c, 10, 69, 108
14, 149635, Note_off_c, 10, 69, 64
14, 149640, Note_on_c, 10, 66, 108
14, 149755, Note_off_c, 10, 66, 64
14, 149760, Note_on_c, 10, 65, 108
14, 149880, Note_off_c, 10, 65, 64
14, 149880, Note_on_c, 10, 68, 108
14, 150000, Note_off_c, 10, 68, 64
14, 150000, Note_on_c, 10, 73, 108
14, 150120, Note_off_c, 10, 73, 64
14, 150120, Note_on_c, 10, 83, 108
14, 150235, Note_off_c, 10, 83, 64
14, 150240, Note_on_c, 10, 83, 108
14, 150355, Note_off_c, 10, 83, 64
14, 150360, Note_on_c, 10, 80, 108
14, 150475, Note_off_c, 10, 80, 64
14, 150480, Note_on_c, 10, 81, 108
14, 150595, Note_off_c, 10, 81, 64
14, 150600, Note_on_c, 10, 78, 108
14, 150720, Note_off_c, 10, 78, 64
14, 150720, Note_on_c, 10, 77, 108
14, 150840, Note_off_c, 10, 77, 64
14, 150840, Note_on_c, 10, 80, 108
14, 150955, Note_off_c, 10, 80, 64
14, 150960, Note_on_c, 10, 73, 108
14, 151080, Note_off_c, 10, 73, 64
14, 151080, Note_on_c, 10, 71, 108
14, 151195, Note_off_c, 10, 71, 64
14, 151200, Note_on_c, 10, 69, 108
14, 151320, Note_off_c, 10, 69, 64
14, 151320, Note_on_c, 10, 73, 108
14, 151440, Note_off_c, 10, 73, 64
14, 151440, Note_on_c, 10, 78, 108
14, 151560, Note_off_c, 10, 78, 64
14, 151560, Note_on_c, 10, 85, 108
14, 151675, Note_off_c, 10, 85, 64
14, 151680, Note_on_c, 10, 85, 108
14, 151795, Note_off_c, 10, 85, 64
14, 151800, Note_on_c, 10, 81, 108
14, 151915, Note_off_c, 10, 81, 64
14, 151920, Note_on_c, 10, 83, 108
14, 152035, Note_off_c, 10, 83, 64
14, 152040, Note_on_c, 10, 80, 108
14, 152160, Note_off_c, 10, 80, 64
14, 152160, Note_on_c, 10, 78, 108
14, 152280, Note_off_c, 10, 78, 64
14, 152280, Note_on_c, 10, 81, 108
14, 152395, Note_off_c, 10, 81, 64
14, 152400, Note_on_c, 10, 74, 108
14, 152520, Note_off_c, 10, 74, 64
14, 152520, Note_on_c, 10, 73, 108
14, 152635, Note_off_c, 10, 73, 64
14, 152640, Note_on_c, 10, 71, 92
14, 152760, Note_off_c, 10, 71, 64
14, 152760, Note_on_c, 10, 74, 92
14, 152880, Note_off_c, 10, 74, 64
14, 152880, Note_on_c, 10, 67, 92
14, 152995, Note_off_c, 10, 67, 64
14, 153000, Note_on_c, 10, 66, 92
14, 153115, Note_off_c, 10, 66, 64
14, 153120, Note_on_c, 10, 65, 92
14, 153240, Note_off_c, 10, 65, 64
14, 153240, Note_on_c, 10, 68, 92
14, 153355, Note_off_c, 10, 68, 64
14, 153360, Note_on_c, 10, 61, 92
14, 153475, Note_off_c, 10, 61, 64
14, 153480, Note_on_c, 10, 59, 92
14, 153595, Note_off_c, 10, 59, 64
14, 153600, Note_on_c, 10, 57, 92
14, 153720, Note_off_c, 10, 57, 64
14, 153720, Note_on_c, 10, 61, 92
14, 153835, Note_off_c, 10, 61, 64
14, 153840, Note_on_c, 10, 66, 92
14, 153955, Note_off_c, 10, 66, 64
14, 153960, Note_on_c, 10, 68, 92
14, 154075, Note_off_c, 10, 68, 64
14, 154080, Note_on_c, 10, 69, 75
14, 154200, Note_off_c, 10, 69, 64
14, 154200, Note_on_c, 10, 66, 75
14, 154315, Note_off_c, 10, 66, 64
14, 154320, Note_on_c, 10, 71, 75
14, 154440, Note_off_c, 10, 71, 64
14, 154440, Note_on_c, 10, 66, 75
14, 154555, Note_off_c, 10, 66, 64
14, 154560, Note_on_c, 10, 73, 75
14, 154680, Note_off_c, 10, 73, 64
14, 154680, Note_on_c, 10, 66, 75
14, 154795, Note_off_c, 10, 66, 64
14, 154800, Note_on_c, 10, 74, 75
14, 154920, Note_off_c, 10, 74, 64
14, 154920, Note_on_c, 10, 66, 75
14, 155035, Note_off_c, 10, 66, 64
14, 155040, Note_on_c, 10, 61, 75
14, 155160, Note_off_c, 10, 61, 64
14, 155160, Note_on_c, 10, 66, 75
14, 155280, Note_off_c, 10, 66, 64
14, 155280, Note_on_c, 10, 68, 75
14, 155360, Note_off_c, 10, 68, 64
14, 155400, Note_on_c, 10, 65, 75
14, 155480, Note_off_c, 10, 65, 64
14, 155520, Note_on_c, 10, 66, 60
14, 155600, Note_off_c, 10, 66, 64
14, 155640, Note_on_c, 10, 69, 60
14, 155755, Note_off_c, 10, 69, 64
14, 155760, Note_on_c, 10, 68, 60
14, 155880, Note_off_c, 10, 68, 64
14, 155880, Note_on_c, 10, 69, 60
14, 155995, Note_off_c, 10, 69, 64
14, 156000, Note_on_c, 10, 69, 60
14, 156120, Note_off_c, 10, 69, 64
14, 156120, Note_on_c, 10, 69, 60
14, 156235, Note_off_c, 10, 69, 64
14, 156240, Note_on_c, 10, 68, 60
14, 156360, Note_off_c, 10, 68, 64
14, 156360, Note_on_c, 10, 69, 60
14, 156475, Note_off_c, 10, 69, 64
14, 156480, Note_on_c, 10, 66, 60
14, 156600, Note_off_c, 10, 66, 64
14, 156600, Note_on_c, 10, 69, 60
14, 156715, Note_off_c, 10, 69, 64
14, 156720, Note_on_c, 10, 64, 60
14, 156840, Note_off_c, 10, 64, 64
14, 156840, Note_on_c, 10, 69, 60
14, 156955, Note_off_c, 10, 69, 64
14, 156960, Note_on_c, 10, 63, 60
14, 157080, Note_off_c, 10, 63, 64
14, 157080, Note_on_c, 10, 69, 60
14, 157195, Note_off_c, 10, 69, 64
14, 157200, Note_on_c, 10, 64, 60
14, 157320, Note_off_c, 10, 64, 64
14, 157320, Note_on_c, 10, 69, 60
14, 157435, Note_off_c, 10, 69, 64
14, 157440, Note_on_c, 10, 66, 60
14, 157560, Note_off_c, 10, 66, 64
14, 157560, Note_on_c, 10, 69, 60
14, 157675, Note_off_c, 10, 69, 64
14, 157680, Note_on_c, 10, 68, 60
14, 157800, Note_off_c, 10, 68, 64
14, 157800, Note_on_c, 10, 69, 60
14, 157915, Note_off_c, 10, 69, 64
14, 157920, Note_on_c, 10, 69, 60
14, 158040, Note_off_c, 10, 69, 64
14, 158040, Note_on_c, 10, 69, 60
14, 158155, Note_off_c, 10, 69, 64
14, 158160, Note_on_c, 10, 66, 60
14, 158280, Note_off_c, 10, 66, 64
14, 158280, Note_on_c, 10, 69, 60
14, 158395, Note_off_c, 10, 69, 64
14, 158400, Note_on_c, 10, 68, 60
14, 158520, Note_off_c, 10, 68, 64
14, 158520, Note_on_c, 10, 69, 60
14, 158640, Note_off_c, 10, 69, 64
14, 158640, Note_on_c, 10, 68, 60
14, 158755, Note_off_c, 10, 68, 64
14, 158760, Note_on_c, 10, 66, 60
14, 158875, Note_off_c, 10, 66, 64
14, 158880, Note_on_c, 10, 64, 60
14, 159000, Note_off_c, 10, 64, 64
14, 159000, Note_on_c, 10, 76, 60
14, 159115, Note_off_c, 10, 76, 64
14, 159120, Note_on_c, 10, 75, 60
14, 159240, Note_off_c, 10, 75, 64
14, 159240, Note_on_c, 10, 76, 60
14, 159355, Note_off_c, 10, 76, 64
14, 159360, Note_on_c, 10, 73, 60
14, 159480, Note_off_c, 10, 73, 64
14, 159480, Note_on_c, 10, 76, 60
14, 159595, Note_off_c, 10, 76, 64
14, 159600, Note_on_c, 10, 71, 60
14, 159720, Note_off_c, 10, 71, 64
14, 159720, Note_on_c, 10, 76, 60
14, 159835, Note_off_c, 10, 76, 64
14, 159840, Note_on_c, 10, 70, 60
14, 159960, Note_off_c, 10, 70, 64
14, 159960, Note_on_c, 10, 76, 60
14, 160075, Note_off_c, 10, 76, 64
14, 160080, Note_on_c, 10, 71, 60
14, 160200, Note_off_c, 10, 71, 64
14, 160200, Note_on_c, 10, 76, 60
14, 160315, Note_off_c, 10, 76, 64
14, 160320, Note_on_c, 10, 73, 60
14, 160440, Note_off_c, 10, 73, 64
14, 160440, Note_on_c, 10, 76, 60
14, 160555, Note_off_c, 10, 76, 64
14, 160560, Note_on_c, 10, 75, 60
14, 160680, Note_off_c, 10, 75, 64
14, 160680, Note_on_c, 10, 76, 60
14, 160795, Note_off_c, 10, 76, 64
14, 160800, Note_on_c, 10, 76, 60
14, 160920, Note_off_c, 10, 76, 64
14, 160920, Note_on_c, 10, 76, 60
14, 161035, Note_off_c, 10, 76, 64
14, 161040, Note_on_c, 10, 73, 60
14, 161160, Note_off_c, 10, 73, 64
14, 161160, Note_on_c, 10, 76, 60
14, 161275, Note_off_c, 10, 76, 64
14, 161280, Note_on_c, 10, 75, 60
14, 161400, Note_off_c, 10, 75, 64
14, 161400, Note_on_c, 10, 76, 64
14, 161520, Note_off_c, 10, 76, 64
14, 161520, Note_on_c, 10, 75, 68
14, 161600, Note_off_c, 10, 75, 64
14, 161640, Note_on_c, 10, 73, 72
14, 161720, Note_off_c, 10, 73, 64
14, 161760, Note_on_c, 10, 71, 76
14, 161840, Note_off_c, 10, 71, 64
14, 161880, Note_on_c, 10, 73, 80
14, 161960, Note_off_c, 10, 73, 64
14, 162000, Note_on_c, 10, 75, 84
14, 162080, Note_off_c, 10, 75, 64
14, 162120, Note_on_c, 10, 76, 88
14, 162200, Note_off_c, 10, 76, 64
14, 162240, Note_on_c, 10, 78, 92
14, 162320, Note_off_c, 10, 78, 64
14, 162360, Note_on_c, 10, 80, 96
14, 162440, Note_off_c, 10, 80, 64
14, 162480, Note_on_c, 10, 81, 100
14, 162560, Note_off_c, 10, 81, 64
14, 162600, Note_on_c, 10, 78, 104
14, 162680, Note_off_c, 10, 78, 64
14, 162720, Note_on_c, 10, 83, 108
14, 162835, Note_off_c, 10, 83, 64
14, 162840, Note_on_c, 10, 71, 60
14, 162960, Note_off_c, 10, 71, 64
14, 162960, Note_on_c, 10, 69, 60
14, 163075, Note_off_c, 10, 69, 64
14, 163080, Note_on_c, 10, 71, 60
14, 163200, Note_off_c, 10, 71, 64
14, 163200, Note_on_c, 10, 68, 60
14, 163315, Note_off_c, 10, 68, 64
14, 163320, Note_on_c, 10, 71, 60
14, 163440, Note_off_c, 10, 71, 64
14, 163440, Note_on_c, 10, 66, 60
14, 163555, Note_off_c, 10, 66, 64
14, 163560, Note_on_c, 10, 71, 60
14, 163680, Note_off_c, 10, 71, 64
14, 163680, Note_on_c, 10, 64, 60
14, 163795, Note_off_c, 10, 64, 64
14, 163800, Note_on_c, 10, 71, 60
14, 163920, Note_off_c, 10, 71, 64
14, 163920, Note_on_c, 10, 62, 60
14, 164035, Note_off_c, 10, 62, 64
14, 164040, Note_on_c, 10, 71, 60
14, 164155, Note_off_c, 10, 71, 64
14, 164160, Note_on_c, 10, 61, 60
14, 164280, Note_off_c, 10, 61, 64
14, 164280, Note_on_c, 10, 64, 64
14, 164360, Note_off_c, 10, 64, 64
14, 164400, Note_on_c, 10, 66, 68
14, 164480, Note_off_c, 10, 66, 64
14, 164520, Note_on_c, 10, 68, 72
14, 164600, Note_off_c, 10, 68, 64
14, 164640, Note_on_c, 10, 69, 76
14, 164720, Note_off_c, 10, 69, 64
14, 164760, Note_on_c, 10, 71, 80
14, 164840, Note_off_c, 10, 71, 64
14, 164880, Note_on_c, 10, 73, 84
14, 164960, Note_off_c, 10, 73, 64
14, 165000, Note_on_c, 10, 74, 88
14, 165080, Note_off_c, 10, 74, 64
14, 165120, Note_on_c, 10, 76, 92
14, 165200, Note_off_c, 10, 76, 64
14, 165240, Note_on_c, 10, 78, 96
14, 165320, Note_off_c, 10, 78, 64
14, 165360, Note_on_c, 10, 80, 100
14, 165440, Note_off_c, 10, 80, 64
14, 165480, Note_on_c, 10, 76, 104
14, 165560, Note_off_c, 10, 76, 64
14, 165600, Note_on_c, 10, 81, 108
14, 165715, Note_off_c, 10, 81, 64
14, 165720, Note_on_c, 10, 69, 60
14, 165835, Note_off_c, 10, 69, 64
14, 165840, Note_on_c, 10, 68, 60
14, 165960, Note_off_c, 10, 68, 64
14, 165960, Note_on_c, 10, 69, 60
14, 166075, Note_off_c, 10, 69, 64
14, 166080, Note_on_c, 10, 66, 60
14, 166200, Note_off_c, 10, 66, 64
14, 166200, Note_on_c, 10, 69, 60
14, 166315, Note_off_c, 10, 69, 64
14, 166320, Note_on_c, 10, 64, 60
14, 166440, Note_off_c, 10, 64, 64
14, 166440, Note_on_c, 10, 69, 60
14, 166555, Note_off_c, 10, 69, 64
14, 166560, Note_on_c, 10, 63, 60
14, 166680, Note_off_c, 10, 63, 64
14, 166680, Note_on_c, 10, 69, 60
14, 166795, Note_off_c, 10, 69, 64
14, 166800, Note_on_c, 10, 61, 60
14, 166920, Note_off_c, 10, 61, 64
14, 166920, Note_on_c, 10, 69, 60
14, 167035, Note_off_c, 10, 69, 64
14, 167040, Note_on_c, 10, 59, 60
14, 167160, Note_off_c, 10, 59, 64
14, 167160, Note_on_c, 10, 63, 64
14, 167240, Note_off_c, 10, 63, 64
14, 167280, Note_on_c, 10, 64, 68
14, 167360, Note_off_c, 10, 64, 64
14, 167400, Note_on_c, 10, 66, 72
14, 167480, Note_off_c, 10, 66, 64
14, 167520, Note_on_c, 10, 68, 76
14, 167600, Note_off_c, 10, 68, 64
14, 167640, Note_on_c, 10, 69, 80
14, 167720, Note_off_c, 10, 69, 64
14, 167760, Note_on_c, 10, 71, 84
14, 167840, Note_off_c, 10, 71, 64
14, 167880, Note_on_c, 10, 73, 88
14, 167960, Note_off_c, 10, 73, 64
14, 168000, Note_on_c, 10, 75, 92
14, 168080, Note_off_c, 10, 75, 64
14, 168120, Note_on_c, 10, 76, 96
14, 168200, Note_off_c, 10, 76, 64
14, 168240, Note_on_c, 10, 78, 100
14, 168320, Note_off_c, 10, 78, 64
14, 168360, Note_on_c, 10, 75, 104
14, 168440, Note_off_c, 10, 75, 64
14, 168480, Note_on_c, 10, 80, 108
14, 168595, Note_off_c, 10, 80, 64
14, 168600, Note_on_c, 10, 64, 60
14, 168715, Note_off_c, 10, 64, 64
14, 168720, Note_on_c, 10, 62, 60
14, 168840, Note_off_c, 10, 62, 64
14, 168840, Note_on_c, 10, 64, 60
14, 168955, Note_off_c, 10, 64, 64
14, 168960, Note_on_c, 10, 61, 60
14, 169080, Note_off_c, 10, 61, 64
14, 169080, Note_on_c, 10, 64, 60
14, 169195, Note_off_c, 10, 64, 64
14, 169200, Note_on_c, 10, 59, 60
14, 169320, Note_off_c, 10, 59, 64
14, 169320, Note_on_c, 10, 64, 60
14, 169435, Note_off_c, 10, 64, 64
14, 169440, Note_on_c, 10, 57, 60
14, 169560, Note_off_c, 10, 57, 64
14, 169560, Note_on_c, 10, 64, 60
14, 169675, Note_off_c, 10, 64, 64
14, 169680, Note_on_c, 10, 56, 60
14, 169800, Note_off_c, 10, 56, 64
14, 169800, Note_on_c, 10, 64, 60
14, 169915, Note_off_c, 10, 64, 64
14, 169920, Note_on_c, 10, 57, 60
14, 170040, Note_off_c, 10, 57, 64
14, 170040, Note_on_c, 10, 64, 61
14, 170125, Note_off_c, 10, 64, 64
14, 170160, Note_on_c, 10, 73, 61
14, 170240, Note_off_c, 10, 73, 64
14, 170280, Note_on_c, 10, 71, 62
14, 170360, Note_off_c, 10, 71, 64
14, 170400, Note_on_c, 10, 73, 63
14, 170480, Note_off_c, 10, 73, 64
14, 170520, Note_on_c, 10, 76, 64
14, 170600, Note_off_c, 10, 76, 64
14, 170640, Note_on_c, 10, 81, 65
14, 170760, Note_off_c, 10, 81, 64
14, 170760, Note_on_c, 10, 80, 66
14, 170880, Note_off_c, 10, 80, 64
14, 170880, Note_on_c, 10, 81, 67
14, 170960, Note_off_c, 10, 81, 64
14, 171000, Note_on_c, 10, 78, 68
14, 171080, Note_off_c, 10, 78, 64
14, 171120, Note_on_c, 10, 73, 69
14, 171200, Note_off_c, 10, 73, 64
14, 171240, Note_on_c, 10, 76, 70
14, 171320, Note_off_c, 10, 76, 64
14, 171360, Note_on_c, 10, 59, 71
14, 171480, Note_off_c, 10, 59, 64
14, 171480, Note_on_c, 10, 66, 72
14, 171565, Note_off_c, 10, 66, 64
14, 171600, Note_on_c, 10, 75, 73
14, 171680, Note_off_c, 10, 75, 64
14, 171720, Note_on_c, 10, 73, 74
14, 171800, Note_off_c, 10, 73, 64
14, 171840, Note_on_c, 10, 75, 75
14, 171920, Note_off_c, 10, 75, 64
14, 171960, Note_on_c, 10, 78, 76
14, 172040, Note_off_c, 10, 78, 64
14, 172080, Note_on_c, 10, 81, 77
14, 172200, Note_off_c, 10, 81, 64
14, 172200, Note_on_c, 10, 80, 78
14, 172320, Note_off_c, 10, 80, 64
14, 172320, Note_on_c, 10, 81, 79
14, 172400, Note_off_c, 10, 81, 64
14, 172440, Note_on_c, 10, 78, 80
14, 172520, Note_off_c, 10, 78, 64
14, 172560, Note_on_c, 10, 75, 81
14, 172640, Note_off_c, 10, 75, 64
14, 172680, Note_on_c, 10, 78, 82
14, 172760, Note_off_c, 10, 78, 64
14, 172800, Note_on_c, 10, 59, 83
14, 172920, Note_off_c, 10, 59, 64
14, 172920, Note_on_c, 10, 68, 84
14, 173000, Note_off_c, 10, 68, 64
14, 173040, Note_on_c, 10, 71, 85
14, 173120, Note_off_c, 10, 71, 64
14, 173160, Note_on_c, 10, 69, 86
14, 173240, Note_off_c, 10, 69, 64
14, 173280, Note_on_c, 10, 71, 87
14, 173360, Note_off_c, 10, 71, 64
14, 173400, Note_on_c, 10, 76, 88
14, 173480, Note_off_c, 10, 76, 64
14, 173520, Note_on_c, 10, 80, 89
14, 173640, Note_off_c, 10, 80, 64
14, 173640, Note_on_c, 10, 78, 90
14, 173760, Note_off_c, 10, 78, 64
14, 173760, Note_on_c, 10, 80, 91
14, 173840, Note_off_c, 10, 80, 64
14, 173880, Note_on_c, 10, 76, 92
14, 173960, Note_off_c, 10, 76, 64
14, 174000, Note_on_c, 10, 71, 93
14, 174080, Note_off_c, 10, 71, 64
14, 174120, Note_on_c, 10, 76, 94
14, 174200, Note_off_c, 10, 76, 64
14, 174240, Note_on_c, 10, 59, 95
14, 174360, Note_off_c, 10, 59, 64
14, 174360, Note_on_c, 10, 70, 96
14, 174440, Note_off_c, 10, 70, 64
14, 174480, Note_on_c, 10, 73, 97
14, 174560, Note_off_c, 10, 73, 64
14, 174600, Note_on_c, 10, 71, 98
14, 174680, Note_off_c, 10, 71, 64
14, 174720, Note_on_c, 10, 73, 99
14, 174800, Note_off_c, 10, 73, 64
14, 174840, Note_on_c, 10, 76, 100
14, 174920, Note_off_c, 10, 76, 64
14, 174960, Note_on_c, 10, 82, 101
14, 175080, Note_off_c, 10, 82, 64
14, 175080, Note_on_c, 10, 80, 102
14, 175200, Note_off_c, 10, 80, 64
14, 175200, Note_on_c, 10, 82, 103
14, 175280, Note_off_c, 10, 82, 64
14, 175320, Note_on_c, 10, 76, 104
14, 175400, Note_off_c, 10, 76, 64
14, 175440, Note_on_c, 10, 73, 105
14, 175520, Note_off_c, 10, 73, 64
14, 175560, Note_on_c, 10, 76, 106
14, 175640, Note_off_c, 10, 76, 64
14, 175680, Note_on_c, 10, 75, 108
14, 175795, Note_off_c, 10, 75, 64
14, 175800, Note_on_c, 10, 83, 108
14, 175915, Note_off_c, 10, 83, 64
14, 175920, Note_on_c, 10, 82, 108
14, 176035, Note_off_c, 10, 82, 64
14, 176040, Note_on_c, 10, 80, 108
14, 176155, Note_off_c, 10, 80, 64
14, 176160, Note_on_c, 10, 78, 108
14, 176280, Note_off_c, 10, 78, 64
14, 176280, Note_on_c, 10, 83, 108
14, 176395, Note_off_c, 10, 83, 64
14, 176400, Note_on_c, 10, 78, 108
14, 176515, Note_off_c, 10, 78, 64
14, 176520, Note_on_c, 10, 76, 108
14, 176635, Note_off_c, 10, 76, 64
14, 176640, Note_on_c, 10, 75, 108
14, 176760, Note_off_c, 10, 75, 64
14, 176760, Note_on_c, 10, 78, 108
14, 176875, Note_off_c, 10, 78, 64
14, 176880, Note_on_c, 10, 75, 108
14, 176995, Note_off_c, 10, 75, 64
14, 177000, Note_on_c, 10, 73, 108
14, 177115, Note_off_c, 10, 73, 64
14, 177120, Note_on_c, 10, 71, 108
14, 177235, Note_off_c, 10, 71, 64
14, 177240, Note_on_c, 10, 83, 108
14, 177355, Note_off_c, 10, 83, 64
14, 177360, Note_on_c, 10, 81, 108
14, 177475, Note_off_c, 10, 81, 64
14, 177480, Note_on_c, 10, 80, 108
14, 177595, Note_off_c, 10, 80, 64
14, 177600, Note_on_c, 10, 78, 108
14, 177720, Note_off_c, 10, 78, 64
14, 177720, Note_on_c, 10, 81, 108
14, 177835, Note_off_c, 10, 81, 64
14, 177840, Note_on_c, 10, 78, 108
14, 177955, Note_off_c, 10, 78, 64
14, 177960, Note_on_c, 10, 76, 108
14, 178075, Note_off_c, 10, 76, 64
14, 178080, Note_on_c, 10, 75, 108
14, 178200, Note_off_c, 10, 75, 64
14, 178200, Note_on_c, 10, 78, 108
14, 178315, Note_off_c, 10, 78, 64
14, 178320, Note_on_c, 10, 75, 108
14, 178435, Note_off_c, 10, 75, 64
14, 178440, Note_on_c, 10, 73, 108
14, 178555, Note_off_c, 10, 73, 64
14, 178560, Note_on_c, 10, 71, 108
14, 178675, Note_off_c, 10, 71, 64
14, 178680, Note_on_c, 10, 81, 108
14, 178795, Note_off_c, 10, 81, 64
14, 178800, Note_on_c, 10, 80, 108
14, 178915, Note_off_c, 10, 80, 64
14, 178920, Note_on_c, 10, 78, 108
14, 179035, Note_off_c, 10, 78, 64
14, 179040, Note_on_c, 10, 76, 108
14, 179160, Note_off_c, 10, 76, 64
14, 179160, Note_on_c, 10, 80, 108
14, 179275, Note_off_c, 10, 80, 64
14, 179280, Note_on_c, 10, 76, 108
14, 179395, Note_off_c, 10, 76, 64
14, 179400, Note_on_c, 10, 75, 108
14, 179515, Note_off_c, 10, 75, 64
14, 179520, Note_on_c, 10, 73, 108
14, 179640, Note_off_c, 10, 73, 64
14, 179640, Note_on_c, 10, 76, 108
14, 179755, Note_off_c, 10, 76, 64
14, 179760, Note_on_c, 10, 73, 108
14, 179875, Note_off_c, 10, 73, 64
14, 179880, Note_on_c, 10, 71, 108
14, 179995, Note_off_c, 10, 71, 64
14, 180000, Note_on_c, 10, 69, 108
14, 180115, Note_off_c, 10, 69, 64
14, 180120, Note_on_c, 10, 80, 108
14, 180235, Note_off_c, 10, 80, 64
14, 180240, Note_on_c, 10, 78, 108
14, 180355, Note_off_c, 10, 78, 64
14, 180360, Note_on_c, 10, 76, 108
14, 180475, Note_off_c, 10, 76, 64
14, 180480, Note_on_c, 10, 75, 108
14, 180600, Note_off_c, 10, 75, 64
14, 180600, Note_on_c, 10, 78, 108
14, 180715, Note_off_c, 10, 78, 64
14, 180720, Note_on_c, 10, 75, 108
14, 180835, Note_off_c, 10, 75, 64
14, 180840, Note_on_c, 10, 73, 108
14, 180955, Note_off_c, 10, 73, 64
14, 180960, Note_on_c, 10, 71, 108
14, 181080, Note_off_c, 10, 71, 64
14, 181080, Note_on_c, 10, 75, 108
14, 181195, Note_off_c, 10, 75, 64
14, 181200, Note_on_c, 10, 71, 108
14, 181315, Note_off_c, 10, 71, 64
14, 181320, Note_on_c, 10, 69, 108
14, 181435, Note_off_c, 10, 69, 64
14, 181440, Note_on_c, 10, 68, 108
14, 181555, Note_off_c, 10, 68, 64
14, 181560, Note_on_c, 10, 76, 108
14, 181675, Note_off_c, 10, 76, 64
14, 181680, Note_on_c, 10, 73, 108
14, 181795, Note_off_c, 10, 73, 64
14, 181800, Note_on_c, 10, 71, 108
14, 181915, Note_off_c, 10, 71, 64
14, 181920, Note_on_c, 10, 69, 108
14, 182040, Note_off_c, 10, 69, 64
14, 182040, Note_on_c, 10, 73, 108
14, 182155, Note_off_c, 10, 73, 64
14, 182160, Note_on_c, 10, 69, 108
14, 182275, Note_off_c, 10, 69, 64
14, 182280, Note_on_c, 10, 68, 108
14, 182395, Note_off_c, 10, 68, 64
14, 182400, Note_on_c, 10, 66, 108
14, 182520, Note_off_c, 10, 66, 64
14, 182520, Note_on_c, 10, 69, 108
14, 182635, Note_off_c, 10, 69, 64
14, 182640, Note_on_c, 10, 66, 108
14, 182755, Note_off_c, 10, 66, 64
14, 182760, Note_on_c, 10, 64, 108
14, 182875, Note_off_c, 10, 64, 64
14, 182880, Note_on_c, 10, 63, 108
14, 183000, Note_off_c, 10, 63, 64
14, 183000, Note_on_c, 10, 66, 108
14, 183120, Note_off_c, 10, 66, 64
14, 183120, Note_on_c, 10, 69, 108
14, 183235, Note_off_c, 10, 69, 64
14, 183240, Note_on_c, 10, 73, 108
14, 183355, Note_off_c, 10, 73, 64
14, 183360, Note_on_c, 10, 71, 109
14, 183480, Note_off_c, 10, 71, 64
14, 183480, Note_on_c, 10, 75, 110
14, 183600, Note_off_c, 10, 75, 64
14, 183600, Note_on_c, 10, 78, 111
14, 183715, Note_off_c, 10, 78, 64
14, 183720, Note_on_c, 10, 80, 112
14, 183835, Note_off_c, 10, 80, 64
14, 183840, Note_on_c, 10, 81, 113
14, 183960, Note_off_c, 10, 81, 64
14, 183960, Note_on_c, 10, 80, 114
14, 184080, Note_off_c, 10, 80, 64
14, 184080, Note_on_c, 10, 81, 115
14, 184195, Note_off_c, 10, 81, 64
14, 184200, Note_on_c, 10, 78, 116
14, 184315, Note_off_c, 10, 78, 64
14, 184320, Note_on_c, 10, 80, 117
14, 184440, Note_off_c, 10, 80, 64
14, 184440, Note_on_c, 10, 76, 118
14, 184560, Note_off_c, 10, 76, 64
14, 184560, Note_on_c, 10, 80, 119
14, 184675, Note_off_c, 10, 80, 64
14, 184680, Note_on_c, 10, 83, 120
14, 184795, Note_off_c, 10, 83, 64
14, 184800, Note_on_c, 10, 88, 121
14, 184920, Note_off_c, 10, 88, 64
14, 184920, Note_on_c, 10, 83, 122
14, 185040, Note_off_c, 10, 83, 64
14, 185040, Note_on_c, 10, 80, 123
14, 185155, Note_off_c, 10, 80, 64
14, 185160, Note_on_c, 10, 76, 124
14, 185275, Note_off_c, 10, 76, 64
14, 185280, Note_on_c, 10, 71, 125
14, 185400, Note_off_c, 10, 71, 64
14, 185400, Note_on_c, 10, 78, 126
14, 185515, Note_off_c, 10, 78, 64
14, 185520, Note_on_c, 10, 88, 127
14, 185640, Note_off_c, 10, 88, 64
14, 185640, Note_on_c, 10, 87, 127
14, 185755, Note_off_c, 10, 87, 64
14, 185760, Note_on_c, 10, 88, 127
14, 185875, Note_off_c, 10, 88, 64
14, 185880, Note_on_c, 10, 83, 92
14, 186000, Note_off_c, 10, 83, 64
14, 186000, Note_on_c, 10, 80, 92
14, 186120, Note_off_c, 10, 80, 64
14, 186120, Note_on_c, 10, 76, 92
14, 186235, Note_off_c, 10, 76, 64
14, 186240, Note_on_c, 10, 74, 92
14, 186360, Note_off_c, 10, 74, 64
14, 186360, Note_on_c, 10, 76, 92
14, 186475, Note_off_c, 10, 76, 64
14, 186480, Note_on_c, 10, 73, 92
14, 186600, Note_off_c, 10, 73, 64
14, 186600, Note_on_c, 10, 76, 92
14, 186715, Note_off_c, 10, 76, 64
14, 186720, Note_on_c, 10, 74, 92
14, 186840, Note_off_c, 10, 74, 64
14, 186840, Note_on_c, 10, 76, 92
14, 186955, Note_off_c, 10, 76, 64
14, 186960, Note_on_c, 10, 71, 92
14, 187080, Note_off_c, 10, 71, 64
14, 187080, Note_on_c, 10, 76, 92
14, 187195, Note_off_c, 10, 76, 64
14, 187200, Note_on_c, 10, 73, 92
14, 187320, Note_off_c, 10, 73, 64
14, 187320, Note_on_c, 10, 76, 92
14, 187440, Note_off_c, 10, 76, 64
14, 187440, Note_on_c, 10, 81, 92
14, 187555, Note_off_c, 10, 81, 64
14, 187560, Note_on_c, 10, 76, 92
14, 187675, Note_off_c, 10, 76, 64
14, 187680, Note_on_c, 10, 73, 92
14, 187800, Note_off_c, 10, 73, 64
14, 187800, Note_on_c, 10, 76, 92
14, 187915, Note_off_c, 10, 76, 64
14, 187920, Note_on_c, 10, 71, 92
14, 188040, Note_off_c, 10, 71, 64
14, 188040, Note_on_c, 10, 76, 92
14, 188155, Note_off_c, 10, 76, 64
14, 188160, Note_on_c, 10, 73, 92
14, 188280, Note_off_c, 10, 73, 64
14, 188280, Note_on_c, 10, 76, 92
14, 188395, Note_off_c, 10, 76, 64
14, 188400, Note_on_c, 10, 69, 92
14, 188520, Note_off_c, 10, 69, 64
14, 188520, Note_on_c, 10, 76, 92
14, 188635, Note_off_c, 10, 76, 64
14, 188640, Note_on_c, 10, 71, 92
14, 188760, Note_off_c, 10, 71, 64
14, 188760, Note_on_c, 10, 76, 92
14, 188880, Note_off_c, 10, 76, 64
14, 188880, Note_on_c, 10, 80, 92
14, 188995, Note_off_c, 10, 80, 64
14, 189000, Note_on_c, 10, 76, 92
14, 189115, Note_off_c, 10, 76, 64
14, 189120, Note_on_c, 10, 71, 92
14, 189240, Note_off_c, 10, 71, 64
14, 189240, Note_on_c, 10, 76, 92
14, 189355, Note_off_c, 10, 76, 64
14, 189360, Note_on_c, 10, 69, 92
14, 189480, Note_off_c, 10, 69, 64
14, 189480, Note_on_c, 10, 76, 92
14, 189595, Note_off_c, 10, 76, 64
14, 189600, Note_on_c, 10, 71, 92
14, 189720, Note_off_c, 10, 71, 64
14, 189720, Note_on_c, 10, 76, 92
14, 189835, Note_off_c, 10, 76, 64
14, 189840, Note_on_c, 10, 68, 92
14, 189960, Note_off_c, 10, 68, 64
14, 189960, Note_on_c, 10, 76, 92
14, 190075, Note_off_c, 10, 76, 64
14, 190080, Note_on_c, 10, 69, 92
14, 190200, Note_off_c, 10, 69, 64
14, 190200, Note_on_c, 10, 76, 93
14, 190320, Note_off_c, 10, 76, 64
14, 190320, Note_on_c, 10, 78, 94
14, 190435, Note_off_c, 10, 78, 64
14, 190440, Note_on_c, 10, 76, 95
14, 190555, Note_off_c, 10, 76, 64
14, 190560, Note_on_c, 10, 75, 96
14, 190680, Note_off_c, 10, 75, 64
14, 190680, Note_on_c, 10, 76, 97
14, 190795, Note_off_c, 10, 76, 64
14, 190800, Note_on_c, 10, 76, 98
14, 190915, Note_off_c, 10, 76, 64
14, 190920, Note_on_c, 10, 76, 99
14, 191035, Note_off_c, 10, 76, 64
14, 191040, Note_on_c, 10, 78, 100
14, 191160, Note_off_c, 10, 78, 64
14, 191160, Note_on_c, 10, 76, 102
14, 191275, Note_off_c, 10, 76, 64
14, 191280, Note_on_c, 10, 80, 104
14, 191400, Note_off_c, 10, 80, 64
14, 191400, Note_on_c, 10, 76, 106
14, 191515, Note_off_c, 10, 76, 64
14, 191520, Note_on_c, 10, 75, 108
14, 191520, Note_on_c, 10, 81, 108
14, 192160, Note_off_c, 10, 81, 64
14, 192160, Note_off_c, 10, 75, 64
14, 192240, Note_on_c, 10, 83, 108
14, 192475, Note_off_c, 10, 83, 64
14, 192480, Note_on_c, 10, 71, 108
14, 192480, Note_on_c, 10, 80, 108
14, 192880, Note_off_c, 10, 80, 64
14, 192880, Note_off_c, 10, 71, 64
14, 192960, Note_on_c, 10, 57, 108
14, 193075, Note_off_c, 10, 57, 64
14, 193080, Note_on_c, 10, 81, 108
14, 193200, Note_off_c, 10, 81, 64
14, 193200, Note_on_c, 10, 80, 108
14, 193320, Note_off_c, 10, 80, 64
14, 193320, Note_on_c, 10, 81, 108
14, 193380, Note_off_c, 10, 81, 64
14, 193380, Note_on_c, 10, 78, 108
14, 193435, Note_off_c, 10, 78, 64
14, 193440, Note_on_c, 10, 78, 108
14, 193470, Note_off_c, 10, 78, 64
14, 193470, Note_on_c, 10, 80, 108
14, 193500, Note_off_c, 10, 80, 64
14, 193500, Note_on_c, 10, 78, 108
14, 193530, Note_off_c, 10, 78, 64
14, 193530, Note_on_c, 10, 80, 108
14, 193560, Note_off_c, 10, 80, 64
14, 193560, Note_on_c, 10, 78, 108
14, 193590, Note_off_c, 10, 78, 64
14, 193590, Note_on_c, 10, 80, 108
14, 193620, Note_off_c, 10, 80, 64
14, 193620, Note_on_c, 10, 78, 108
14, 193650, Note_off_c, 10, 78, 64
14, 193650, Note_on_c, 10, 80, 108
14, 193680, Note_off_c, 10, 80, 64
14, 193680, Note_on_c, 10, 78, 108
14, 193710, Note_off_c, 10, 78, 64
14, 193710, Note_on_c, 10, 80, 108
14, 193740, Note_off_c, 10, 80, 64
14, 193740, Note_on_c, 10, 78, 108
14, 193770, Note_off_c, 10, 78, 64
14, 193770, Note_on_c, 10, 80, 108
14, 193800, Note_off_c, 10, 80, 64
14, 193800, Note_on_c, 10, 78, 108
14, 193830, Note_off_c, 10, 78, 64
14, 193830, Note_on_c, 10, 80, 108
14, 193860, Note_off_c, 10, 80, 64
14, 193860, Note_on_c, 10, 78, 108
14, 193890, Note_off_c, 10, 78, 64
14, 193890, Note_on_c, 10, 80, 108
14, 193920, Note_off_c, 10, 80, 64
14, 193920, Note_on_c, 10, 78, 108
14, 193950, Note_off_c, 10, 78, 64
14, 193950, Note_on_c, 10, 80, 108
14, 193980, Note_off_c, 10, 80, 64
14, 193980, Note_on_c, 10, 78, 108
14, 194010, Note_off_c, 10, 78, 64
14, 194010, Note_on_c, 10, 80, 108
14, 194040, Note_off_c, 10, 80, 64
14, 194040, Note_on_c, 10, 78, 108
14, 194070, Note_off_c, 10, 78, 64
14, 194070, Note_on_c, 10, 80, 108
14, 194100, Note_off_c, 10, 80, 64
14, 194100, Note_on_c, 10, 78, 108
14, 194130, Note_off_c, 10, 78, 64
14, 194130, Note_on_c, 10, 80, 108
14, 194160, Note_off_c, 10, 80, 64
14, 194160, Note_on_c, 10, 76, 108
14, 194395, Note_off_c, 10, 76, 64
14, 194400, Note_on_c, 10, 76, 108
14, 194515, Note_off_c, 10, 76, 64
14, 194520, Note_on_c, 10, 88, 108
14, 194635, Note_off_c, 10, 88, 64
14, 194640, Note_on_c, 10, 87, 108
14, 194755, Note_off_c, 10, 87, 64
14, 194760, Note_on_c, 10, 85, 108
14, 194875, Note_off_c, 10, 85, 64
14, 194880, Note_on_c, 10, 83, 108
14, 195000, Note_off_c, 10, 83, 64
14, 195000, Note_on_c, 10, 88, 108
14, 195115, Note_off_c, 10, 88, 64
14, 195120, Note_on_c, 10, 81, 109
14, 195240, Note_off_c, 10, 81, 64
14, 195240, Note_on_c, 10, 88, 110
14, 195355, Note_off_c, 10, 88, 64
14, 195360, Note_on_c, 10, 80, 111
14, 195480, Note_off_c, 10, 80, 64
14, 195480, Note_on_c, 10, 88, 112
14, 195595, Note_off_c, 10, 88, 64
14, 195600, Note_on_c, 10, 78, 113
14, 195720, Note_off_c, 10, 78, 64
14, 195720, Note_on_c, 10, 88, 114
14, 195835, Note_off_c, 10, 88, 64
14, 195840, Note_on_c, 10, 76, 115
14, 195955, Note_off_c, 10, 76, 64
14, 195960, Note_on_c, 10, 76, 116
14, 196075, Note_off_c, 10, 76, 64
14, 196080, Note_on_c, 10, 75, 117
14, 196195, Note_off_c, 10, 75, 64
14, 196200, Note_on_c, 10, 73, 118
14, 196315, Note_off_c, 10, 73, 64
14, 196320, Note_on_c, 10, 71, 119
14, 196440, Note_off_c, 10, 71, 64
14, 196440, Note_on_c, 10, 76, 120
14, 196555, Note_off_c, 10, 76, 64
14, 196560, Note_on_c, 10, 69, 121
14, 196680, Note_off_c, 10, 69, 64
14, 196680, Note_on_c, 10, 76, 122
14, 196795, Note_off_c, 10, 76, 64
14, 196800, Note_on_c, 10, 68, 123
14, 196920, Note_off_c, 10, 68, 64
14, 196920, Note_on_c, 10, 76, 124
14, 197035, Note_off_c, 10, 76, 64
14, 197040, Note_on_c, 10, 66, 125
14, 197160, Note_off_c, 10, 66, 64
14, 197160, Note_on_c, 10, 76, 126
14, 197275, Note_off_c, 10, 76, 64
14, 197280, Note_on_c, 10, 64, 127
14, 197400, Note_off_c, 10, 64, 64
14, 197400, Note_on_c, 10, 68, 127
14, 197520, Note_off_c, 10, 68, 64
14, 197520, Note_on_c, 10, 71, 127
14, 197635, Note_off_c, 10, 71, 64
14, 197640, Note_on_c, 10, 75, 127
14, 197755, Note_off_c, 10, 75, 64
14, 197760, Note_on_c, 10, 76, 127
14, 197880, Note_off_c, 10, 76, 64
14, 197880, Note_on_c, 10, 80, 127
14, 198000, Note_off_c, 10, 80, 64
14, 198000, Note_on_c, 10, 83, 127
14, 198115, Note_off_c, 10, 83, 64
14, 198120, Note_on_c, 10, 87, 127
14, 198235, Note_off_c, 10, 87, 64
14, 198240, Note_on_c, 10, 88, 127
14, 199195, Note_off_c, 10, 88, 64
14, 199195, End_track
15, 0, Start_track
15, 0, MIDI_port, 0
15, 0, Channel_prefix, 11
15, 0, Control_c, 11, 7, 111
15, 0, Control_c, 11, 10, 40
15, 0, Control_c, 11, 91, 52
15, 0, Program_c, 11, 40
15, 240, Note_on_c, 11, 88, 108
15, 360, Note_off_c, 11, 88, 64
15, 360, Note_on_c, 11, 87, 108
15, 480, Note_off_c, 11, 87, 64
15, 480, Note_on_c, 11, 88, 108
15, 560, Note_off_c, 11, 88, 64
15, 720, Note_on_c, 11, 83, 108
15, 800, Note_off_c, 11, 83, 64
15, 960, Note_on_c, 11, 80, 108
15, 1040, Note_off_c, 11, 80, 64
15, 1200, Note_on_c, 11, 83, 108
15, 1280, Note_off_c, 11, 83, 64
15, 1440, Note_on_c, 11, 76, 108
15, 1560, Note_off_c, 11, 76, 64
15, 1560, Note_on_c, 11, 78, 108
15, 1680, Note_off_c, 11, 78, 64
15, 1680, Note_on_c, 11, 76, 108
15, 1800, Note_off_c, 11, 76, 64
15, 1800, Note_on_c, 11, 75, 108
15, 1920, Note_off_c, 11, 75, 64
15, 1920, Note_on_c, 11, 76, 108
15, 2000, Note_off_c, 11, 76, 64
15, 2160, Note_on_c, 11, 71, 108
15, 2240, Note_off_c, 11, 71, 64
15, 2400, Note_on_c, 11, 68, 108
15, 2480, Note_off_c, 11, 68, 64
15, 2640, Note_on_c, 11, 71, 108
15, 2720, Note_off_c, 11, 71, 64
15, 2880, Note_on_c, 11, 64, 108
15, 3000, Note_off_c, 11, 64, 64
15, 3000, Note_on_c, 11, 71, 108
15, 3115, Note_off_c, 11, 71, 64
15, 3120, Note_on_c, 11, 66, 108
15, 3240, Note_off_c, 11, 66, 64
15, 3240, Note_on_c, 11, 71, 108
15, 3355, Note_off_c, 11, 71, 64
15, 3360, Note_on_c, 11, 68, 108
15, 3480, Note_off_c, 11, 68, 64
15, 3480, Note_on_c, 11, 71, 108
15, 3595, Note_off_c, 11, 71, 64
15, 3600, Note_on_c, 11, 69, 108
15, 3720, Note_off_c, 11, 69, 64
15, 3720, Note_on_c, 11, 71, 108
15, 3835, Note_off_c, 11, 71, 64
15, 3840, Note_on_c, 11, 68, 108
15, 3960, Note_off_c, 11, 68, 64
15, 3960, Note_on_c, 11, 71, 108
15, 4075, Note_off_c, 11, 71, 64
15, 4080, Note_on_c, 11, 66, 108
15, 4200, Note_off_c, 11, 66, 64
15, 4200, Note_on_c, 11, 71, 108
15, 4315, Note_off_c, 11, 71, 64
15, 4320, Note_on_c, 11, 64, 108
15, 4440, Note_off_c, 11, 64, 64
15, 4440, Note_on_c, 11, 76, 108
15, 4555, Note_off_c, 11, 76, 64
15, 4560, Note_on_c, 11, 75, 108
15, 4675, Note_off_c, 11, 75, 64
15, 4680, Note_on_c, 11, 73, 108
15, 4795, Note_off_c, 11, 73, 64
15, 4800, Note_on_c, 11, 71, 108
15, 4920, Note_off_c, 11, 71, 64
15, 4920, Note_on_c, 11, 76, 108
15, 5035, Note_off_c, 11, 76, 64
15, 5040, Note_on_c, 11, 75, 108
15, 5155, Note_off_c, 11, 75, 64
15, 5160, Note_on_c, 11, 73, 108
15, 5275, Note_off_c, 11, 73, 64
15, 5280, Note_on_c, 11, 71, 108
15, 5395, Note_off_c, 11, 71, 64
15, 5400, Note_on_c, 11, 69, 108
15, 5515, Note_off_c, 11, 69, 64
15, 5520, Note_on_c, 11, 68, 108
15, 5635, Note_off_c, 11, 68, 64
15, 5640, Note_on_c, 11, 66, 108
15, 5755, Note_off_c, 11, 66, 64
15, 5760, Note_on_c, 11, 64, 75
15, 5880, Note_off_c, 11, 64, 64
15, 5880, Note_on_c, 11, 71, 75
15, 5995, Note_off_c, 11, 71, 64
15, 6000, Note_on_c, 11, 66, 75
15, 6120, Note_off_c, 11, 66, 64
15, 6120, Note_on_c, 11, 71, 75
15, 6235, Note_off_c, 11, 71, 64
15, 6240, Note_on_c, 11, 68, 75
15, 6360, Note_off_c, 11, 68, 64
15, 6360, Note_on_c, 11, 71, 75
15, 6475, Note_off_c, 11, 71, 64
15, 6480, Note_on_c, 11, 69, 75
15, 6600, Note_off_c, 11, 69, 64
15, 6600, Note_on_c, 11, 71, 75
15, 6715, Note_off_c, 11, 71, 64
15, 6720, Note_on_c, 11, 68, 75
15, 6840, Note_off_c, 11, 68, 64
15, 6840, Note_on_c, 11, 71, 75
15, 6955, Note_off_c, 11, 71, 64
15, 6960, Note_on_c, 11, 66, 75
15, 7080, Note_off_c, 11, 66, 64
15, 7080, Note_on_c, 11, 71, 75
15, 7195, Note_off_c, 11, 71, 64
15, 7200, Note_on_c, 11, 64, 75
15, 7280, Note_off_c, 11, 64, 64
15, 7320, Note_on_c, 11, 76, 75
15, 7400, Note_off_c, 11, 76, 64
15, 7440, Note_on_c, 11, 75, 75
15, 7520, Note_off_c, 11, 75, 64
15, 7560, Note_on_c, 11, 73, 75
15, 7640, Note_off_c, 11, 73, 64
15, 7680, Note_on_c, 11, 71, 75
15, 7760, Note_off_c, 11, 71, 64
15, 7800, Note_on_c, 11, 76, 75
15, 7880, Note_off_c, 11, 76, 64
15, 7920, Note_on_c, 11, 75, 75
15, 8000, Note_off_c, 11, 75, 64
15, 8040, Note_on_c, 11, 73, 75
15, 8120, Note_off_c, 11, 73, 64
15, 8160, Note_on_c, 11, 71, 75
15, 8240, Note_off_c, 11, 71, 64
15, 8280, Note_on_c, 11, 69, 75
15, 8360, Note_off_c, 11, 69, 64
15, 8400, Note_on_c, 11, 68, 75
15, 8480, Note_off_c, 11, 68, 64
15, 8520, Note_on_c, 11, 66, 75
15, 8600, Note_off_c, 11, 66, 64
15, 8640, Note_on_c, 11, 64, 75
15, 8760, Note_off_c, 11, 64, 64
15, 8760, Note_on_c, 11, 66, 76
15, 8845, Note_off_c, 11, 66, 64
15, 8880, Note_on_c, 11, 68, 77
15, 8960, Note_off_c, 11, 68, 64
15, 9000, Note_on_c, 11, 69, 78
15, 9080, Note_off_c, 11, 69, 64
15, 9120, Note_on_c, 11, 71, 79
15, 9200, Note_off_c, 11, 71, 64
15, 9240, Note_on_c, 11, 73, 80
15, 9320, Note_off_c, 11, 73, 64
15, 9360, Note_on_c, 11, 75, 81
15, 9440, Note_off_c, 11, 75, 64
15, 9480, Note_on_c, 11, 76, 82
15, 9560, Note_off_c, 11, 76, 64
15, 9600, Note_on_c, 11, 78, 83
15, 9680, Note_off_c, 11, 78, 64
15, 9720, Note_on_c, 11, 80, 84
15, 9800, Note_off_c, 11, 80, 64
15, 9840, Note_on_c, 11, 81, 85
15, 9920, Note_off_c, 11, 81, 64
15, 9960, Note_on_c, 11, 78, 86
15, 10040, Note_off_c, 11, 78, 64
15, 10080, Note_on_c, 11, 80, 87
15, 10200, Note_off_c, 11, 80, 64
15, 10200, Note_on_c, 11, 83, 88
15, 10280, Note_off_c, 11, 83, 64
15, 10320, Note_on_c, 11, 76, 89
15, 10400, Note_off_c, 11, 76, 64
15, 10440, Note_on_c, 11, 78, 90
15, 10520, Note_off_c, 11, 78, 64
15, 10560, Note_on_c, 11, 80, 92
15, 10640, Note_off_c, 11, 80, 64
15, 10680, Note_on_c, 11, 81, 94
15, 10760, Note_off_c, 11, 81, 64
15, 10800, Note_on_c, 11, 83, 96
15, 10880, Note_off_c, 11, 83, 64
15, 10920, Note_on_c, 11, 85, 98
15, 11000, Note_off_c, 11, 85, 64
15, 11040, Note_on_c, 11, 87, 100
15, 11160, Note_off_c, 11, 87, 64
15, 11160, Note_on_c, 11, 88, 102
15, 11240, Note_off_c, 11, 88, 64
15, 11280, Note_on_c, 11, 85, 104
15, 11360, Note_off_c, 11, 85, 64
15, 11400, Note_on_c, 11, 87, 106
15, 11480, Note_off_c, 11, 87, 64
15, 11520, Note_on_c, 11, 88, 108
15, 11635, Note_off_c, 11, 88, 64
15, 11640, Note_on_c, 11, 83, 108
15, 11755, Note_off_c, 11, 83, 64
15, 11760, Note_on_c, 11, 81, 108
15, 11880, Note_off_c, 11, 81, 64
15, 11880, Note_on_c, 11, 83, 108
15, 11995, Note_off_c, 11, 83, 64
15, 12000, Note_on_c, 11, 80, 108
15, 12120, Note_off_c, 11, 80, 64
15, 12120, Note_on_c, 11, 83, 108
15, 12235, Note_off_c, 11, 83, 64
15, 12240, Note_on_c, 11, 81, 108
15, 12360, Note_off_c, 11, 81, 64
15, 12360, Note_on_c, 11, 83, 108
15, 12475, Note_off_c, 11, 83, 64
15, 12480, Note_on_c, 11, 80, 108
15, 12600, Note_off_c, 11, 80, 64
15, 12600, Note_on_c, 11, 83, 108
15, 12715, Note_off_c, 11, 83, 64
15, 12720, Note_on_c, 11, 78, 108
15, 12840, Note_off_c, 11, 78, 64
15, 12840, Note_on_c, 11, 83, 108
15, 12955, Note_off_c, 11, 83, 64
15, 12960, Note_on_c, 11, 76, 108
15, 13075, Note_off_c, 11, 76, 64
15, 13080, Note_on_c, 11, 88, 108
15, 13200, Note_off_c, 11, 88, 64
15, 13200, Note_on_c, 11, 87, 108
15, 13320, Note_off_c, 11, 87, 64
15, 13320, Note_on_c, 11, 85, 108
15, 13435, Note_off_c, 11, 85, 64
15, 13440, Note_on_c, 11, 83, 108
15, 13555, Note_off_c, 11, 83, 64
15, 13560, Note_on_c, 11, 76, 108
15, 13680, Note_off_c, 11, 76, 64
15, 13680, Note_on_c, 11, 85, 108
15, 13795, Note_off_c, 11, 85, 64
15, 13800, Note_on_c, 11, 76, 108
15, 13920, Note_off_c, 11, 76, 64
15, 13920, Note_on_c, 11, 83, 108
15, 14035, Note_off_c, 11, 83, 64
15, 14040, Note_on_c, 11, 76, 108
15, 14160, Note_off_c, 11, 76, 64
15, 14160, Note_on_c, 11, 81, 108
15, 14275, Note_off_c, 11, 81, 64
15, 14280, Note_on_c, 11, 76, 108
15, 14395, Note_off_c, 11, 76, 64
15, 14400, Note_on_c, 11, 80, 60
15, 14520, Note_off_c, 11, 80, 64
15, 14520, Note_on_c, 11, 83, 60
15, 14635, Note_off_c, 11, 83, 64
15, 14640, Note_on_c, 11, 78, 60
15, 14760, Note_off_c, 11, 78, 64
15, 14760, Note_on_c, 11, 83, 60
15, 14875, Note_off_c, 11, 83, 64
15, 14880, Note_on_c, 11, 80, 60
15, 15000, Note_off_c, 11, 80, 64
15, 15000, Note_on_c, 11, 83, 60
15, 15115, Note_off_c, 11, 83, 64
15, 15120, Note_on_c, 11, 81, 60
15, 15240, Note_off_c, 11, 81, 64
15, 15240, Note_on_c, 11, 83, 60
15, 15355, Note_off_c, 11, 83, 64
15, 15360, Note_on_c, 11, 80, 60
15, 15480, Note_off_c, 11, 80, 64
15, 15480, Note_on_c, 11, 83, 60
15, 15595, Note_off_c, 11, 83, 64
15, 15600, Note_on_c, 11, 78, 60
15, 15720, Note_off_c, 11, 78, 64
15, 15720, Note_on_c, 11, 83, 60
15, 15835, Note_off_c, 11, 83, 64
15, 15840, Note_on_c, 11, 76, 60
15, 15955, Note_off_c, 11, 76, 64
15, 15960, Note_on_c, 11, 88, 62
15, 16080, Note_off_c, 11, 88, 64
15, 16080, Note_on_c, 11, 87, 64
15, 16200, Note_off_c, 11, 87, 64
15, 16200, Note_on_c, 11, 85, 66
15, 16315, Note_off_c, 11, 85, 64
15, 16320, Note_on_c, 11, 83, 68
15, 16435, Note_off_c, 11, 83, 64
15, 16440, Note_on_c, 11, 76, 71
15, 16560, Note_off_c, 11, 76, 64
15, 16560, Note_on_c, 11, 85, 74
15, 16675, Note_off_c, 11, 85, 64
15, 16680, Note_on_c, 11, 76, 77
15, 16800, Note_off_c, 11, 76, 64
15, 16800, Note_on_c, 11, 83, 80
15, 16915, Note_off_c, 11, 83, 64
15, 16920, Note_on_c, 11, 76, 83
15, 17040, Note_off_c, 11, 76, 64
15, 17040, Note_on_c, 11, 81, 86
15, 17155, Note_off_c, 11, 81, 64
15, 17160, Note_on_c, 11, 76, 89
15, 17275, Note_off_c, 11, 76, 64
15, 17280, Note_on_c, 11, 80, 92
15, 17400, Note_off_c, 11, 80, 64
15, 17400, Note_on_c, 11, 76, 92
15, 17515, Note_off_c, 11, 76, 64
15, 17520, Note_on_c, 11, 76, 92
15, 17635, Note_off_c, 11, 76, 64
15, 17640, Note_on_c, 11, 76, 92
15, 17755, Note_off_c, 11, 76, 64
15, 17760, Note_on_c, 11, 75, 92
15, 17880, Note_off_c, 11, 75, 64
15, 17880, Note_on_c, 11, 76, 92
15, 17995, Note_off_c, 11, 76, 64
15, 18000, Note_on_c, 11, 76, 92
15, 18115, Note_off_c, 11, 76, 64
15, 18120, Note_on_c, 11, 76, 92
15, 18235, Note_off_c, 11, 76, 64
15, 18240, Note_on_c, 11, 78, 92
15, 18360, Note_off_c, 11, 78, 64
15, 18360, Note_on_c, 11, 76, 92
15, 18480, Note_off_c, 11, 76, 64
15, 18480, Note_on_c, 11, 75, 92
15, 18600, Note_off_c, 11, 75, 64
15, 18600, Note_on_c, 11, 76, 92
15, 18715, Note_off_c, 11, 76, 64
15, 18720, Note_on_c, 11, 76, 92
15, 18835, Note_off_c, 11, 76, 64
15, 18840, Note_on_c, 11, 76, 92
15, 18955, Note_off_c, 11, 76, 64
15, 18960, Note_on_c, 11, 80, 92
15, 19075, Note_off_c, 11, 80, 64
15, 19080, Note_on_c, 11, 76, 92
15, 19195, Note_off_c, 11, 76, 64
15, 19200, Note_on_c, 11, 78, 92
15, 19315, Note_off_c, 11, 78, 64
15, 19320, Note_on_c, 11, 76, 92
15, 19435, Note_off_c, 11, 76, 64
15, 19440, Note_on_c, 11, 80, 92
15, 19555, Note_off_c, 11, 80, 64
15, 19560, Note_on_c, 11, 76, 92
15, 19675, Note_off_c, 11, 76, 64
15, 19680, Note_on_c, 11, 81, 92
15, 19795, Note_off_c, 11, 81, 64
15, 19800, Note_on_c, 11, 76, 92
15, 19915, Note_off_c, 11, 76, 64
15, 19920, Note_on_c, 11, 78, 92
15, 20035, Note_off_c, 11, 78, 64
15, 20040, Note_on_c, 11, 76, 92
15, 20155, Note_off_c, 11, 76, 64
15, 20160, Note_on_c, 11, 80, 92
15, 20280, Note_off_c, 11, 80, 64
15, 20280, Note_on_c, 11, 76, 60
15, 20360, Note_off_c, 11, 76, 64
15, 20400, Note_on_c, 11, 76, 60
15, 20480, Note_off_c, 11, 76, 64
15, 20520, Note_on_c, 11, 76, 60
15, 20600, Note_off_c, 11, 76, 64
15, 20640, Note_on_c, 11, 75, 60
15, 20760, Note_off_c, 11, 75, 64
15, 20760, Note_on_c, 11, 76, 60
15, 20840, Note_off_c, 11, 76, 64
15, 20880, Note_on_c, 11, 76, 60
15, 20960, Note_off_c, 11, 76, 64
15, 21000, Note_on_c, 11, 76, 60
15, 21080, Note_off_c, 11, 76, 64
15, 21120, Note_on_c, 11, 78, 60
15, 21240, Note_off_c, 11, 78, 64
15, 21240, Note_on_c, 11, 76, 60
15, 21360, Note_off_c, 11, 76, 64
15, 21360, Note_on_c, 11, 75, 60
15, 21480, Note_off_c, 11, 75, 64
15, 21480, Note_on_c, 11, 76, 60
15, 21595, Note_off_c, 11, 76, 64
15, 21600, Note_on_c, 11, 76, 60
15, 21680, Note_off_c, 11, 76, 64
15, 21720, Note_on_c, 11, 76, 60
15, 21800, Note_off_c, 11, 76, 64
15, 21840, Note_on_c, 11, 80, 60
15, 21920, Note_off_c, 11, 80, 64
15, 21960, Note_on_c, 11, 76, 60
15, 22040, Note_off_c, 11, 76, 64
15, 22080, Note_on_c, 11, 78, 60
15, 22160, Note_off_c, 11, 78, 64
15, 22200, Note_on_c, 11, 76, 60
15, 22280, Note_off_c, 11, 76, 64
15, 22320, Note_on_c, 11, 80, 60
15, 22400, Note_off_c, 11, 80, 64
15, 22440, Note_on_c, 11, 76, 60
15, 22520, Note_off_c, 11, 76, 64
15, 22560, Note_on_c, 11, 81, 60
15, 22640, Note_off_c, 11, 81, 64
15, 22680, Note_on_c, 11, 76, 60
15, 22760, Note_off_c, 11, 76, 64
15, 22800, Note_on_c, 11, 78, 60
15, 22880, Note_off_c, 11, 78, 64
15, 22920, Note_on_c, 11, 76, 60
15, 23000, Note_off_c, 11, 76, 64
15, 23040, Note_on_c, 11, 80, 75
15, 23160, Note_off_c, 11, 80, 64
15, 23160, Note_on_c, 11, 76, 75
15, 23280, Note_off_c, 11, 76, 64
15, 23280, Note_on_c, 11, 80, 75
15, 23395, Note_off_c, 11, 80, 64
15, 23400, Note_on_c, 11, 76, 75
15, 23515, Note_off_c, 11, 76, 64
15, 23520, Note_on_c, 11, 80, 75
15, 23640, Note_off_c, 11, 80, 64
15, 23640, Note_on_c, 11, 76, 75
15, 23760, Note_off_c, 11, 76, 64
15, 23760, Note_on_c, 11, 80, 75
15, 23875, Note_off_c, 11, 80, 64
15, 23880, Note_on_c, 11, 76, 75
15, 23995, Note_off_c, 11, 76, 64
15, 24000, Note_on_c, 11, 80, 75
15, 24120, Note_off_c, 11, 80, 64
15, 24120, Note_on_c, 11, 76, 75
15, 24240, Note_off_c, 11, 76, 64
15, 24240, Note_on_c, 11, 80, 75
15, 24355, Note_off_c, 11, 80, 64
15, 24360, Note_on_c, 11, 76, 75
15, 24475, Note_off_c, 11, 76, 64
15, 24480, Note_on_c, 11, 80, 75
15, 24600, Note_off_c, 11, 80, 64
15, 24600, Note_on_c, 11, 76, 75
15, 24720, Note_off_c, 11, 76, 64
15, 24720, Note_on_c, 11, 80, 75
15, 24835, Note_off_c, 11, 80, 64
15, 24840, Note_on_c, 11, 75, 75
15, 24955, Note_off_c, 11, 75, 64
15, 24960, Note_on_c, 11, 80, 75
15, 25080, Note_off_c, 11, 80, 64
15, 25080, Note_on_c, 11, 76, 75
15, 25200, Note_off_c, 11, 76, 64
15, 25200, Note_on_c, 11, 80, 75
15, 25315, Note_off_c, 11, 80, 64
15, 25320, Note_on_c, 11, 75, 75
15, 25435, Note_off_c, 11, 75, 64
15, 25440, Note_on_c, 11, 80, 75
15, 25560, Note_off_c, 11, 80, 64
15, 25560, Note_on_c, 11, 76, 75
15, 25680, Note_off_c, 11, 76, 64
15, 25680, Note_on_c, 11, 80, 75
15, 25795, Note_off_c, 11, 80, 64
15, 25800, Note_on_c, 11, 75, 75
15, 25915, Note_off_c, 11, 75, 64
15, 25920, Note_on_c, 11, 80, 75
15, 26040, Note_off_c, 11, 80, 64
15, 26040, Note_on_c, 11, 76, 75
15, 26160, Note_off_c, 11, 76, 64
15, 26160, Note_on_c, 11, 80, 75
15, 26275, Note_off_c, 11, 80, 64
15, 26280, Note_on_c, 11, 74, 75
15, 26395, Note_off_c, 11, 74, 64
15, 26400, Note_on_c, 11, 80, 75
15, 26520, Note_off_c, 11, 80, 64
15, 26520, Note_on_c, 11, 76, 75
15, 26640, Note_off_c, 11, 76, 64
15, 26640, Note_on_c, 11, 80, 75
15, 26755, Note_off_c, 11, 80, 64
15, 26760, Note_on_c, 11, 74, 75
15, 26875, Note_off_c, 11, 74, 64
15, 26880, Note_on_c, 11, 80, 75
15, 27000, Note_off_c, 11, 80, 64
15, 27000, Note_on_c, 11, 76, 75
15, 27120, Note_off_c, 11, 76, 64
15, 27120, Note_on_c, 11, 80, 75
15, 27235, Note_off_c, 11, 80, 64
15, 27240, Note_on_c, 11, 74, 75
15, 27355, Note_off_c, 11, 74, 64
15, 27360, Note_on_c, 11, 81, 75
15, 27480, Note_off_c, 11, 81, 64
15, 27480, Note_on_c, 11, 76, 76
15, 27600, Note_off_c, 11, 76, 64
15, 27600, Note_on_c, 11, 81, 77
15, 27715, Note_off_c, 11, 81, 64
15, 27720, Note_on_c, 11, 73, 78
15, 27835, Note_off_c, 11, 73, 64
15, 27840, Note_on_c, 11, 81, 79
15, 27960, Note_off_c, 11, 81, 64
15, 27960, Note_on_c, 11, 76, 80
15, 28080, Note_off_c, 11, 76, 64
15, 28080, Note_on_c, 11, 81, 81
15, 28195, Note_off_c, 11, 81, 64
15, 28200, Note_on_c, 11, 73, 82
15, 28315, Note_off_c, 11, 73, 64
15, 28320, Note_on_c, 11, 81, 84
15, 28440, Note_off_c, 11, 81, 64
15, 28440, Note_on_c, 11, 76, 86
15, 28555, Note_off_c, 11, 76, 64
15, 28560, Note_on_c, 11, 81, 88
15, 28675, Note_off_c, 11, 81, 64
15, 28680, Note_on_c, 11, 73, 90
15, 28795, Note_off_c, 11, 73, 64
15, 28800, Note_on_c, 11, 81, 92
15, 28920, Note_off_c, 11, 81, 64
15, 28920, Note_on_c, 11, 76, 92
15, 29040, Note_off_c, 11, 76, 64
15, 29040, Note_on_c, 11, 81, 92
15, 29155, Note_off_c, 11, 81, 64
15, 29160, Note_on_c, 11, 71, 92
15, 29275, Note_off_c, 11, 71, 64
15, 29280, Note_on_c, 11, 81, 92
15, 29400, Note_off_c, 11, 81, 64
15, 29400, Note_on_c, 11, 76, 92
15, 29520, Note_off_c, 11, 76, 64
15, 29520, Note_on_c, 11, 81, 92
15, 29635, Note_off_c, 11, 81, 64
15, 29640, Note_on_c, 11, 71, 92
15, 29755, Note_off_c, 11, 71, 64
15, 29760, Note_on_c, 11, 81, 92
15, 29880, Note_off_c, 11, 81, 64
15, 29880, Note_on_c, 11, 76, 92
15, 30000, Note_off_c, 11, 76, 64
15, 30000, Note_on_c, 11, 81, 92
15, 30115, Note_off_c, 11, 81, 64
15, 30120, Note_on_c, 11, 71, 92
15, 30235, Note_off_c, 11, 71, 64
15, 30240, Note_on_c, 11, 80, 92
15, 30360, Note_off_c, 11, 80, 64
15, 30360, Note_on_c, 11, 76, 90
15, 30480, Note_off_c, 11, 76, 64
15, 30480, Note_on_c, 11, 80, 88
15, 30595, Note_off_c, 11, 80, 64
15, 30600, Note_on_c, 11, 71, 86
15, 30715, Note_off_c, 11, 71, 64
15, 30720, Note_on_c, 11, 80, 84
15, 30840, Note_off_c, 11, 80, 64
15, 30840, Note_on_c, 11, 76, 81
15, 30960, Note_off_c, 11, 76, 64
15, 30960, Note_on_c, 11, 80, 78
15, 31075, Note_off_c, 11, 80, 64
15, 31080, Note_on_c, 11, 71, 75
15, 31195, Note_off_c, 11, 71, 64
15, 31200, Note_on_c, 11, 80, 72
15, 31320, Note_off_c, 11, 80, 64
15, 31320, Note_on_c, 11, 76, 69
15, 31440, Note_off_c, 11, 76, 64
15, 31440, Note_on_c, 11, 80, 66
15, 31555, Note_off_c, 11, 80, 64
15, 31560, Note_on_c, 11, 71, 63
15, 31675, Note_off_c, 11, 71, 64
15, 31680, Note_on_c, 11, 80, 60
15, 31800, Note_off_c, 11, 80, 64
15, 31800, Note_on_c, 11, 76, 60
15, 31920, Note_off_c, 11, 76, 64
15, 31920, Note_on_c, 11, 80, 60
15, 32035, Note_off_c, 11, 80, 64
15, 32040, Note_on_c, 11, 69, 60
15, 32155, Note_off_c, 11, 69, 64
15, 32160, Note_on_c, 11, 80, 60
15, 32280, Note_off_c, 11, 80, 64
15, 32280, Note_on_c, 11, 76, 60
15, 32400, Note_off_c, 11, 76, 64
15, 32400, Note_on_c, 11, 80, 60
15, 32515, Note_off_c, 11, 80, 64
15, 32520, Note_on_c, 11, 69, 60
15, 32635, Note_off_c, 11, 69, 64
15, 32640, Note_on_c, 11, 80, 60
15, 32760, Note_off_c, 11, 80, 64
15, 32760, Note_on_c, 11, 76, 60
15, 32880, Note_off_c, 11, 76, 64
15, 32880, Note_on_c, 11, 80, 60
15, 32995, Note_off_c, 11, 80, 64
15, 33000, Note_on_c, 11, 69, 60
15, 33115, Note_off_c, 11, 69, 64
15, 33120, Note_on_c, 11, 78, 60
15, 33240, Note_off_c, 11, 78, 64
15, 33240, Note_on_c, 11, 76, 60
15, 33360, Note_off_c, 11, 76, 64
15, 33360, Note_on_c, 11, 78, 60
15, 33475, Note_off_c, 11, 78, 64
15, 33480, Note_on_c, 11, 69, 60
15, 33595, Note_off_c, 11, 69, 64
15, 33600, Note_on_c, 11, 78, 60
15, 33720, Note_off_c, 11, 78, 64
15, 33720, Note_on_c, 11, 76, 60
15, 33840, Note_off_c, 11, 76, 64
15, 33840, Note_on_c, 11, 78, 60
15, 33955, Note_off_c, 11, 78, 64
15, 33960, Note_on_c, 11, 69, 60
15, 34075, Note_off_c, 11, 69, 64
15, 34080, Note_on_c, 11, 78, 60
15, 34200, Note_off_c, 11, 78, 64
15, 34200, Note_on_c, 11, 76, 60
15, 34320, Note_off_c, 11, 76, 64
15, 34320, Note_on_c, 11, 78, 60
15, 34435, Note_off_c, 11, 78, 64
15, 34440, Note_on_c, 11, 69, 60
15, 34555, Note_off_c, 11, 69, 64
15, 34560, Note_on_c, 11, 78, 60
15, 34680, Note_off_c, 11, 78, 64
15, 34680, Note_on_c, 11, 76, 60
15, 34800, Note_off_c, 11, 76, 64
15, 34800, Note_on_c, 11, 78, 60
15, 34915, Note_off_c, 11, 78, 64
15, 34920, Note_on_c, 11, 68, 60
15, 35035, Note_off_c, 11, 68, 64
15, 35040, Note_on_c, 11, 78, 60
15, 35160, Note_off_c, 11, 78, 64
15, 35160, Note_on_c, 11, 76, 60
15, 35280, Note_off_c, 11, 76, 64
15, 35280, Note_on_c, 11, 78, 60
15, 35395, Note_off_c, 11, 78, 64
15, 35400, Note_on_c, 11, 68, 60
15, 35515, Note_off_c, 11, 68, 64
15, 35520, Note_on_c, 11, 78, 60
15, 35640, Note_off_c, 11, 78, 64
15, 35640, Note_on_c, 11, 76, 60
15, 35760, Note_off_c, 11, 76, 64
15, 35760, Note_on_c, 11, 78, 60
15, 35875, Note_off_c, 11, 78, 64
15, 35880, Note_on_c, 11, 68, 60
15, 35995, Note_off_c, 11, 68, 64
15, 36000, Note_on_c, 11, 76, 60
15, 36120, Note_off_c, 11, 76, 64
15, 36120, Note_on_c, 11, 76, 60
15, 36240, Note_off_c, 11, 76, 64
15, 36240, Note_on_c, 11, 76, 60
15, 36355, Note_off_c, 11, 76, 64
15, 36360, Note_on_c, 11, 68, 60
15, 36475, Note_off_c, 11, 68, 64
15, 36480, Note_on_c, 11, 76, 60
15, 36600, Note_off_c, 11, 76, 64
15, 36600, Note_on_c, 11, 76, 60
15, 36720, Note_off_c, 11, 76, 64
15, 36720, Note_on_c, 11, 76, 60
15, 36835, Note_off_c, 11, 76, 64
15, 36840, Note_on_c, 11, 68, 60
15, 36955, Note_off_c, 11, 68, 64
15, 36960, Note_on_c, 11, 76, 60
15, 37080, Note_off_c, 11, 76, 64
15, 37080, Note_on_c, 11, 76, 60
15, 37200, Note_off_c, 11, 76, 64
15, 37200, Note_on_c, 11, 76, 60
15, 37315, Note_off_c, 11, 76, 64
15, 37320, Note_on_c, 11, 68, 60
15, 37435, Note_off_c, 11, 68, 64
15, 37440, Note_on_c, 11, 76, 60
15, 37560, Note_off_c, 11, 76, 64
15, 37560, Note_on_c, 11, 76, 60
15, 37680, Note_off_c, 11, 76, 64
15, 37680, Note_on_c, 11, 76, 60
15, 37795, Note_off_c, 11, 76, 64
15, 37800, Note_on_c, 11, 66, 60
15, 37915, Note_off_c, 11, 66, 64
15, 37920, Note_on_c, 11, 76, 60
15, 38040, Note_off_c, 11, 76, 64
15, 38040, Note_on_c, 11, 76, 60
15, 38160, Note_off_c, 11, 76, 64
15, 38160, Note_on_c, 11, 76, 60
15, 38275, Note_off_c, 11, 76, 64
15, 38280, Note_on_c, 11, 66, 60
15, 38395, Note_off_c, 11, 66, 64
15, 38400, Note_on_c, 11, 76, 60
15, 38520, Note_off_c, 11, 76, 64
15, 38520, Note_on_c, 11, 76, 60
15, 38640, Note_off_c, 11, 76, 64
15, 38640, Note_on_c, 11, 76, 60
15, 38755, Note_off_c, 11, 76, 64
15, 38760, Note_on_c, 11, 66, 60
15, 38875, Note_off_c, 11, 66, 64
15, 38880, Note_on_c, 11, 75, 60
15, 39000, Note_off_c, 11, 75, 64
15, 39000, Note_on_c, 11, 76, 60
15, 39120, Note_off_c, 11, 76, 64
15, 39120, Note_on_c, 11, 75, 60
15, 39200, Note_off_c, 11, 75, 64
15, 39240, Note_on_c, 11, 66, 60
15, 39320, Note_off_c, 11, 66, 64
15, 39360, Note_on_c, 11, 75, 60
15, 39480, Note_off_c, 11, 75, 64
15, 39480, Note_on_c, 11, 76, 60
15, 39600, Note_off_c, 11, 76, 64
15, 39600, Note_on_c, 11, 75, 60
15, 39680, Note_off_c, 11, 75, 64
15, 39720, Note_on_c, 11, 66, 60
15, 39800, Note_off_c, 11, 66, 64
15, 39840, Note_on_c, 11, 75, 60
15, 39960, Note_off_c, 11, 75, 64
15, 39960, Note_on_c, 11, 76, 60
15, 40080, Note_off_c, 11, 76, 64
15, 40080, Note_on_c, 11, 75, 60
15, 40160, Note_off_c, 11, 75, 64
15, 40200, Note_on_c, 11, 66, 60
15, 40280, Note_off_c, 11, 66, 64
15, 40320, Note_on_c, 11, 64, 92
15, 40435, Note_off_c, 11, 64, 64
15, 40440, Note_on_c, 11, 66, 92
15, 40555, Note_off_c, 11, 66, 64
15, 40560, Note_on_c, 11, 64, 92
15, 40675, Note_off_c, 11, 64, 64
15, 40680, Note_on_c, 11, 66, 92
15, 40800, Note_off_c, 11, 66, 64
15, 40800, Note_on_c, 11, 68, 92
15, 40920, Note_off_c, 11, 68, 64
15, 40920, Note_on_c, 11, 71, 92
15, 41035, Note_off_c, 11, 71, 64
15, 41040, Note_on_c, 11, 64, 92
15, 41155, Note_off_c, 11, 64, 64
15, 41160, Note_on_c, 11, 66, 92
15, 41280, Note_off_c, 11, 66, 64
15, 41280, Note_on_c, 11, 68, 92
15, 41400, Note_off_c, 11, 68, 64
15, 41400, Note_on_c, 11, 71, 92
15, 41515, Note_off_c, 11, 71, 64
15, 41520, Note_on_c, 11, 64, 92
15, 41635, Note_off_c, 11, 64, 64
15, 41640, Note_on_c, 11, 66, 92
15, 41755, Note_off_c, 11, 66, 64
15, 41760, Note_on_c, 11, 68, 92
15, 41875, Note_off_c, 11, 68, 64
15, 41880, Note_on_c, 11, 69, 92
15, 41995, Note_off_c, 11, 69, 64
15, 42000, Note_on_c, 11, 68, 92
15, 42120, Note_off_c, 11, 68, 64
15, 42120, Note_on_c, 11, 69, 92
15, 42240, Note_off_c, 11, 69, 64
15, 42240, Note_on_c, 11, 71, 92
15, 42355, Note_off_c, 11, 71, 64
15, 42360, Note_on_c, 11, 76, 92
15, 42475, Note_off_c, 11, 76, 64
15, 42480, Note_on_c, 11, 68, 92
15, 42600, Note_off_c, 11, 68, 64
15, 42600, Note_on_c, 11, 69, 92
15, 42720, Note_off_c, 11, 69, 64
15, 42720, Note_on_c, 11, 71, 92
15, 42835, Note_off_c, 11, 71, 64
15, 42840, Note_on_c, 11, 76, 93
15, 42955, Note_off_c, 11, 76, 64
15, 42960, Note_on_c, 11, 68, 94
15, 43075, Note_off_c, 11, 68, 64
15, 43080, Note_on_c, 11, 69, 95
15, 43195, Note_off_c, 11, 69, 64
15, 43200, Note_on_c, 11, 71, 96
15, 43315, Note_off_c, 11, 71, 64
15, 43320, Note_on_c, 11, 73, 97
15, 43435, Note_off_c, 11, 73, 64
15, 43440, Note_on_c, 11, 71, 98
15, 43560, Note_off_c, 11, 71, 64
15, 43560, Note_on_c, 11, 73, 99
15, 43680, Note_off_c, 11, 73, 64
15, 43680, Note_on_c, 11, 74, 100
15, 43795, Note_off_c, 11, 74, 64
15, 43800, Note_on_c, 11, 80, 101
15, 43915, Note_off_c, 11, 80, 64
15, 43920, Note_on_c, 11, 71, 102
15, 44040, Note_off_c, 11, 71, 64
15, 44040, Note_on_c, 11, 73, 103
15, 44160, Note_off_c, 11, 73, 64
15, 44160, Note_on_c, 11, 74, 104
15, 44275, Note_off_c, 11, 74, 64
15, 44280, Note_on_c, 11, 80, 105
15, 44395, Note_off_c, 11, 80, 64
15, 44400, Note_on_c, 11, 71, 106
15, 44515, Note_off_c, 11, 71, 64
15, 44520, Note_on_c, 11, 73, 107
15, 44635, Note_off_c, 11, 73, 64
15, 44640, Note_on_c, 11, 74, 108
15, 44755, Note_off_c, 11, 74, 64
15, 44760, Note_on_c, 11, 83, 108
15, 44875, Note_off_c, 11, 83, 64
15, 44880, Note_on_c, 11, 80, 108
15, 44995, Note_off_c, 11, 80, 64
15, 45000, Note_on_c, 11, 76, 108
15, 45115, Note_off_c, 11, 76, 64
15, 45120, Note_on_c, 11, 74, 108
15, 45235, Note_off_c, 11, 74, 64
15, 45240, Note_on_c, 11, 71, 108
15, 45355, Note_off_c, 11, 71, 64
15, 45360, Note_on_c, 11, 68, 108
15, 45475, Note_off_c, 11, 68, 64
15, 45480, Note_on_c, 11, 64, 108
15, 45595, Note_off_c, 11, 64, 64
15, 45600, Note_on_c, 11, 62, 108
15, 45715, Note_off_c, 11, 62, 64
15, 45720, Note_on_c, 11, 61, 108
15, 45835, Note_off_c, 11, 61, 64
15, 45840, Note_on_c, 11, 62, 108
15, 45955, Note_off_c, 11, 62, 64
15, 45960, Note_on_c, 11, 59, 108
15, 46075, Note_off_c, 11, 59, 64
15, 46080, Note_on_c, 11, 61, 60
15, 46200, Note_off_c, 11, 61, 64
15, 46200, Note_on_c, 11, 63, 60
15, 46320, Note_off_c, 11, 63, 64
15, 46320, Note_on_c, 11, 61, 60
15, 46435, Note_off_c, 11, 61, 64
15, 46440, Note_on_c, 11, 63, 60
15, 46555, Note_off_c, 11, 63, 64
15, 46560, Note_on_c, 11, 65, 60
15, 46680, Note_off_c, 11, 65, 64
15, 46680, Note_on_c, 11, 68, 60
15, 46795, Note_off_c, 11, 68, 64
15, 46800, Note_on_c, 11, 61, 60
15, 46915, Note_off_c, 11, 61, 64
15, 46920, Note_on_c, 11, 63, 60
15, 47035, Note_off_c, 11, 63, 64
15, 47040, Note_on_c, 11, 65, 60
15, 47160, Note_off_c, 11, 65, 64
15, 47160, Note_on_c, 11, 68, 60
15, 47275, Note_off_c, 11, 68, 64
15, 47280, Note_on_c, 11, 61, 60
15, 47395, Note_off_c, 11, 61, 64
15, 47400, Note_on_c, 11, 63, 60
15, 47515, Note_off_c, 11, 63, 64
15, 47520, Note_on_c, 11, 65, 60
15, 47640, Note_off_c, 11, 65, 64
15, 47640, Note_on_c, 11, 66, 62
15, 47760, Note_off_c, 11, 66, 64
15, 47760, Note_on_c, 11, 65, 64
15, 47875, Note_off_c, 11, 65, 64
15, 47880, Note_on_c, 11, 66, 66
15, 47995, Note_off_c, 11, 66, 64
15, 48000, Note_on_c, 11, 68, 68
15, 48120, Note_off_c, 11, 68, 64
15, 48120, Note_on_c, 11, 73, 70
15, 48235, Note_off_c, 11, 73, 64
15, 48240, Note_on_c, 11, 65, 72
15, 48355, Note_off_c, 11, 65, 64
15, 48360, Note_on_c, 11, 66, 74
15, 48475, Note_off_c, 11, 66, 64
15, 48480, Note_on_c, 11, 68, 76
15, 48600, Note_off_c, 11, 68, 64
15, 48600, Note_on_c, 11, 73, 78
15, 48715, Note_off_c, 11, 73, 64
15, 48720, Note_on_c, 11, 65, 80
15, 48835, Note_off_c, 11, 65, 64
15, 48840, Note_on_c, 11, 66, 82
15, 48955, Note_off_c, 11, 66, 64
15, 48960, Note_on_c, 11, 68, 84
15, 49080, Note_off_c, 11, 68, 64
15, 49080, Note_on_c, 11, 69, 86
15, 49200, Note_off_c, 11, 69, 64
15, 49200, Note_on_c, 11, 68, 88
15, 49315, Note_off_c, 11, 68, 64
15, 49320, Note_on_c, 11, 69, 90
15, 49435, Note_off_c, 11, 69, 64
15, 49440, Note_on_c, 11, 71, 92
15, 49560, Note_off_c, 11, 71, 64
15, 49560, Note_on_c, 11, 77, 94
15, 49675, Note_off_c, 11, 77, 64
15, 49680, Note_on_c, 11, 68, 96
15, 49795, Note_off_c, 11, 68, 64
15, 49800, Note_on_c, 11, 69, 98
15, 49915, Note_off_c, 11, 69, 64
15, 49920, Note_on_c, 11, 71, 100
15, 50040, Note_off_c, 11, 71, 64
15, 50040, Note_on_c, 11, 77, 102
15, 50155, Note_off_c, 11, 77, 64
15, 50160, Note_on_c, 11, 68, 104
15, 50275, Note_off_c, 11, 68, 64
15, 50280, Note_on_c, 11, 69, 106
15, 50395, Note_off_c, 11, 69, 64
15, 50400, Note_on_c, 11, 71, 108
15, 50515, Note_off_c, 11, 71, 64
15, 50520, Note_on_c, 11, 80, 108
15, 50640, Note_off_c, 11, 80, 64
15, 50640, Note_on_c, 11, 77, 108
15, 50760, Note_off_c, 11, 77, 64
15, 50760, Note_on_c, 11, 73, 108
15, 50875, Note_off_c, 11, 73, 64
15, 50880, Note_on_c, 11, 83, 108
15, 50995, Note_off_c, 11, 83, 64
15, 51000, Note_on_c, 11, 80, 108
15, 51120, Note_off_c, 11, 80, 64
15, 51120, Note_on_c, 11, 81, 108
15, 51240, Note_off_c, 11, 81, 64
15, 51240, Note_on_c, 11, 78, 108
15, 51355, Note_off_c, 11, 78, 64
15, 51360, Note_on_c, 11, 77, 108
15, 51480, Note_off_c, 11, 77, 64
15, 51480, Note_on_c, 11, 80, 108
15, 51600, Note_off_c, 11, 80, 64
15, 51600, Note_on_c, 11, 73, 108
15, 51715, Note_off_c, 11, 73, 64
15, 51720, Note_on_c, 11, 71, 108
15, 51835, Note_off_c, 11, 71, 64
15, 51840, Note_on_c, 11, 69, 108
15, 51960, Note_off_c, 11, 69, 64
15, 51960, Note_on_c, 11, 73, 108
15, 52080, Note_off_c, 11, 73, 64
15, 52080, Note_on_c, 11, 69, 108
15, 52195, Note_off_c, 11, 69, 64
15, 52200, Note_on_c, 11, 66, 108
15, 52315, Note_off_c, 11, 66, 64
15, 52320, Note_on_c, 11, 78, 108
15, 52435, Note_off_c, 11, 78, 64
15, 52440, Note_on_c, 11, 75, 108
15, 52560, Note_off_c, 11, 75, 64
15, 52560, Note_on_c, 11, 76, 108
15, 52680, Note_off_c, 11, 76, 64
15, 52680, Note_on_c, 11, 73, 108
15, 52795, Note_off_c, 11, 73, 64
15, 52800, Note_on_c, 11, 72, 108
15, 52915, Note_off_c, 11, 72, 64
15, 52920, Note_on_c, 11, 75, 108
15, 53040, Note_off_c, 11, 75, 64
15, 53040, Note_on_c, 11, 68, 108
15, 53160, Note_off_c, 11, 68, 64
15, 53160, Note_on_c, 11, 66, 108
15, 53275, Note_off_c, 11, 66, 64
15, 53280, Note_on_c, 11, 64, 108
15, 53400, Note_off_c, 11, 64, 64
15, 53400, Note_on_c, 11, 68, 108
15, 53520, Note_off_c, 11, 68, 64
15, 53520, Note_on_c, 11, 64, 108
15, 53635, Note_off_c, 11, 64, 64
15, 53640, Note_on_c, 11, 61, 108
15, 53755, Note_off_c, 11, 61, 64
15, 53760, Note_on_c, 11, 64, 108
15, 53875, Note_off_c, 11, 64, 64
15, 53880, Note_on_c, 11, 68, 108
15, 53995, Note_off_c, 11, 68, 64
15, 54000, Note_on_c, 11, 73, 108
15, 54115, Note_off_c, 11, 73, 64
15, 54120, Note_on_c, 11, 68, 108
15, 54235, Note_off_c, 11, 68, 64
15, 54240, Note_on_c, 11, 76, 108
15, 54355, Note_off_c, 11, 76, 64
15, 54360, Note_on_c, 11, 73, 108
15, 54475, Note_off_c, 11, 73, 64
15, 54480, Note_on_c, 11, 80, 108
15, 54595, Note_off_c, 11, 80, 64
15, 54600, Note_on_c, 11, 73, 108
15, 54715, Note_off_c, 11, 73, 64
15, 54720, Note_on_c, 11, 72, 108
15, 54840, Note_off_c, 11, 72, 64
15, 54840, Note_on_c, 11, 75, 108
15, 54960, Note_off_c, 11, 75, 64
15, 54960, Note_on_c, 11, 72, 108
15, 55075, Note_off_c, 11, 72, 64
15, 55080, Note_on_c, 11, 68, 108
15, 55195, Note_off_c, 11, 68, 64
15, 55200, Note_on_c, 11, 80, 108
15, 55320, Note_off_c, 11, 80, 64
15, 55320, Note_on_c, 11, 79, 108
15, 55435, Note_off_c, 11, 79, 64
15, 55440, Note_on_c, 11, 80, 108
15, 55560, Note_off_c, 11, 80, 64
15, 55560, Note_on_c, 11, 79, 108
15, 55675, Note_off_c, 11, 79, 64
15, 55680, Note_on_c, 11, 80, 108
15, 55800, Note_off_c, 11, 80, 64
15, 55800, Note_on_c, 11, 75, 108
15, 55920, Note_off_c, 11, 75, 64
15, 55920, Note_on_c, 11, 76, 108
15, 56035, Note_off_c, 11, 76, 64
15, 56040, Note_on_c, 11, 73, 108
15, 56155, Note_off_c, 11, 73, 64
15, 56160, Note_on_c, 11, 72, 108
15, 56280, Note_off_c, 11, 72, 64
15, 56280, Note_on_c, 11, 75, 108
15, 56400, Note_off_c, 11, 75, 64
15, 56400, Note_on_c, 11, 72, 108
15, 56515, Note_off_c, 11, 72, 64
15, 56520, Note_on_c, 11, 68, 108
15, 56635, Note_off_c, 11, 68, 64
15, 56640, Note_on_c, 11, 78, 108
15, 56760, Note_off_c, 11, 78, 64
15, 56760, Note_on_c, 11, 77, 108
15, 56880, Note_off_c, 11, 77, 64
15, 56880, Note_on_c, 11, 78, 108
15, 56995, Note_off_c, 11, 78, 64
15, 57000, Note_on_c, 11, 77, 108
15, 57115, Note_off_c, 11, 77, 64
15, 57120, Note_on_c, 11, 78, 108
15, 57240, Note_off_c, 11, 78, 64
15, 57240, Note_on_c, 11, 75, 108
15, 57360, Note_off_c, 11, 75, 64
15, 57360, Note_on_c, 11, 76, 108
15, 57475, Note_off_c, 11, 76, 64
15, 57480, Note_on_c, 11, 73, 108
15, 57595, Note_off_c, 11, 73, 64
15, 57600, Note_on_c, 11, 72, 92
15, 57720, Note_off_c, 11, 72, 64
15, 57720, Note_on_c, 11, 75, 92
15, 57840, Note_off_c, 11, 75, 64
15, 57840, Note_on_c, 11, 72, 92
15, 57955, Note_off_c, 11, 72, 64
15, 57960, Note_on_c, 11, 68, 92
15, 58075, Note_off_c, 11, 68, 64
15, 58080, Note_on_c, 11, 69, 92
15, 58200, Note_off_c, 11, 69, 64
15, 58200, Note_on_c, 11, 68, 92
15, 58320, Note_off_c, 11, 68, 64
15, 58320, Note_on_c, 11, 69, 92
15, 58435, Note_off_c, 11, 69, 64
15, 58440, Note_on_c, 11, 68, 92
15, 58555, Note_off_c, 11, 68, 64
15, 58560, Note_on_c, 11, 69, 92
15, 58675, Note_off_c, 11, 69, 64
15, 58680, Note_on_c, 11, 63, 92
15, 58800, Note_off_c, 11, 63, 64
15, 58800, Note_on_c, 11, 64, 92
15, 58915, Note_off_c, 11, 64, 64
15, 58920, Note_on_c, 11, 61, 92
15, 59035, Note_off_c, 11, 61, 64
15, 59040, Note_on_c, 11, 60, 92
15, 59160, Note_off_c, 11, 60, 64
15, 59160, Note_on_c, 11, 66, 92
15, 59275, Note_off_c, 11, 66, 64
15, 59280, Note_on_c, 11, 61, 92
15, 59400, Note_off_c, 11, 61, 64
15, 59400, Note_on_c, 11, 66, 92
15, 59515, Note_off_c, 11, 66, 64
15, 59520, Note_on_c, 11, 63, 92
15, 59640, Note_off_c, 11, 63, 64
15, 59640, Note_on_c, 11, 66, 92
15, 59755, Note_off_c, 11, 66, 64
15, 59760, Note_on_c, 11, 61, 92
15, 59880, Note_off_c, 11, 61, 64
15, 59880, Note_on_c, 11, 66, 92
15, 59995, Note_off_c, 11, 66, 64
15, 60000, Note_on_c, 11, 60, 92
15, 60120, Note_off_c, 11, 60, 64
15, 60120, Note_on_c, 11, 66, 92
15, 60235, Note_off_c, 11, 66, 64
15, 60240, Note_on_c, 11, 63, 92
15, 60360, Note_off_c, 11, 63, 64
15, 60360, Note_on_c, 11, 66, 92
15, 60475, Note_off_c, 11, 66, 64
15, 60480, Note_on_c, 11, 56, 75
15, 60600, Note_off_c, 11, 56, 64
15, 60600, Note_on_c, 11, 66, 75
15, 60720, Note_off_c, 11, 66, 64
15, 60720, Note_on_c, 11, 75, 75
15, 60840, Note_off_c, 11, 75, 64
15, 60840, Note_on_c, 11, 66, 75
15, 60955, Note_off_c, 11, 66, 64
15, 60960, Note_on_c, 11, 72, 75
15, 61080, Note_off_c, 11, 72, 64
15, 61080, Note_on_c, 11, 66, 75
15, 61195, Note_off_c, 11, 66, 64
15, 61200, Note_on_c, 11, 75, 75
15, 61320, Note_off_c, 11, 75, 64
15, 61320, Note_on_c, 11, 66, 75
15, 61435, Note_off_c, 11, 66, 64
15, 61440, Note_on_c, 11, 72, 75
15, 61560, Note_off_c, 11, 72, 64
15, 61560, Note_on_c, 11, 66, 75
15, 61675, Note_off_c, 11, 66, 64
15, 61680, Note_on_c, 11, 75, 75
15, 61800, Note_off_c, 11, 75, 64
15, 61800, Note_on_c, 11, 66, 75
15, 61915, Note_off_c, 11, 66, 64
15, 61920, Note_on_c, 11, 56, 75
15, 62040, Note_off_c, 11, 56, 64
15, 62040, Note_on_c, 11, 64, 75
15, 62160, Note_off_c, 11, 64, 64
15, 62160, Note_on_c, 11, 73, 75
15, 62280, Note_off_c, 11, 73, 64
15, 62280, Note_on_c, 11, 64, 75
15, 62395, Note_off_c, 11, 64, 64
15, 62400, Note_on_c, 11, 76, 75
15, 62520, Note_off_c, 11, 76, 64
15, 62520, Note_on_c, 11, 64, 75
15, 62635, Note_off_c, 11, 64, 64
15, 62640, Note_on_c, 11, 73, 75
15, 62760, Note_off_c, 11, 73, 64
15, 62760, Note_on_c, 11, 64, 75
15, 62875, Note_off_c, 11, 64, 64
15, 62880, Note_on_c, 11, 76, 75
15, 63000, Note_off_c, 11, 76, 64
15, 63000, Note_on_c, 11, 64, 75
15, 63115, Note_off_c, 11, 64, 64
15, 63120, Note_on_c, 11, 73, 75
15, 63240, Note_off_c, 11, 73, 64
15, 63240, Note_on_c, 11, 64, 75
15, 63355, Note_off_c, 11, 64, 64
15, 63360, Note_on_c, 11, 56, 60
15, 63480, Note_off_c, 11, 56, 64
15, 63480, Note_on_c, 11, 66, 60
15, 63600, Note_off_c, 11, 66, 64
15, 63600, Note_on_c, 11, 75, 60
15, 63720, Note_off_c, 11, 75, 64
15, 63720, Note_on_c, 11, 66, 60
15, 63835, Note_off_c, 11, 66, 64
15, 63840, Note_on_c, 11, 72, 60
15, 63960, Note_off_c, 11, 72, 64
15, 63960, Note_on_c, 11, 66, 60
15, 64075, Note_off_c, 11, 66, 64
15, 64080, Note_on_c, 11, 75, 60
15, 64200, Note_off_c, 11, 75, 64
15, 64200, Note_on_c, 11, 66, 60
15, 64315, Note_off_c, 11, 66, 64
15, 64320, Note_on_c, 11, 72, 60
15, 64440, Note_off_c, 11, 72, 64
15, 64440, Note_on_c, 11, 66, 60
15, 64555, Note_off_c, 11, 66, 64
15, 64560, Note_on_c, 11, 75, 60
15, 64680, Note_off_c, 11, 75, 64
15, 64680, Note_on_c, 11, 66, 60
15, 64795, Note_off_c, 11, 66, 64
15, 64800, Note_on_c, 11, 56, 60
15, 64920, Note_off_c, 11, 56, 64
15, 64920, Note_on_c, 11, 64, 60
15, 65040, Note_off_c, 11, 64, 64
15, 65040, Note_on_c, 11, 73, 60
15, 65160, Note_off_c, 11, 73, 64
15, 65160, Note_on_c, 11, 64, 60
15, 65275, Note_off_c, 11, 64, 64
15, 65280, Note_on_c, 11, 76, 60
15, 65400, Note_off_c, 11, 76, 64
15, 65400, Note_on_c, 11, 64, 60
15, 65515, Note_off_c, 11, 64, 64
15, 65520, Note_on_c, 11, 73, 60
15, 65640, Note_off_c, 11, 73, 64
15, 65640, Note_on_c, 11, 64, 60
15, 65755, Note_off_c, 11, 64, 64
15, 65760, Note_on_c, 11, 76, 60
15, 65880, Note_off_c, 11, 76, 64
15, 65880, Note_on_c, 11, 64, 60
15, 65995, Note_off_c, 11, 64, 64
15, 66000, Note_on_c, 11, 73, 60
15, 66120, Note_off_c, 11, 73, 64
15, 66120, Note_on_c, 11, 64, 60
15, 66235, Note_off_c, 11, 64, 64
15, 66240, Note_on_c, 11, 56, 75
15, 66355, Note_off_c, 11, 56, 64
15, 66360, Note_on_c, 11, 67, 75
15, 66480, Note_off_c, 11, 67, 64
15, 66480, Note_on_c, 11, 73, 75
15, 66600, Note_off_c, 11, 73, 64
15, 66600, Note_on_c, 11, 67, 75
15, 66715, Note_off_c, 11, 67, 64
15, 66720, Note_on_c, 11, 76, 75
15, 66840, Note_off_c, 11, 76, 64
15, 66840, Note_on_c, 11, 67, 75
15, 66955, Note_off_c, 11, 67, 64
15, 66960, Note_on_c, 11, 73, 75
15, 67080, Note_off_c, 11, 73, 64
15, 67080, Note_on_c, 11, 67, 75
15, 67195, Note_off_c, 11, 67, 64
15, 67200, Note_on_c, 11, 76, 75
15, 67320, Note_off_c, 11, 76, 64
15, 67320, Note_on_c, 11, 67, 75
15, 67435, Note_off_c, 11, 67, 64
15, 67440, Note_on_c, 11, 73, 75
15, 67560, Note_off_c, 11, 73, 64
15, 67560, Note_on_c, 11, 67, 75
15, 67675, Note_off_c, 11, 67, 64
15, 67680, Note_on_c, 11, 56, 60
15, 67800, Note_off_c, 11, 56, 64
15, 67800, Note_on_c, 11, 67, 60
15, 67920, Note_off_c, 11, 67, 64
15, 67920, Note_on_c, 11, 73, 60
15, 68040, Note_off_c, 11, 73, 64
15, 68040, Note_on_c, 11, 67, 60
15, 68155, Note_off_c, 11, 67, 64
15, 68160, Note_on_c, 11, 76, 60
15, 68280, Note_off_c, 11, 76, 64
15, 68280, Note_on_c, 11, 67, 60
15, 68395, Note_off_c, 11, 67, 64
15, 68400, Note_on_c, 11, 73, 60
15, 68520, Note_off_c, 11, 73, 64
15, 68520, Note_on_c, 11, 67, 60
15, 68635, Note_off_c, 11, 67, 64
15, 68640, Note_on_c, 11, 76, 60
15, 68760, Note_off_c, 11, 76, 64
15, 68760, Note_on_c, 11, 67, 60
15, 68875, Note_off_c, 11, 67, 64
15, 68880, Note_on_c, 11, 73, 60
15, 69000, Note_off_c, 11, 73, 64
15, 69000, Note_on_c, 11, 67, 60
15, 69115, Note_off_c, 11, 67, 64
15, 69120, Note_on_c, 11, 56, 92
15, 69240, Note_off_c, 11, 56, 64
15, 69240, Note_on_c, 11, 68, 92
15, 69360, Note_off_c, 11, 68, 64
15, 69360, Note_on_c, 11, 73, 92
15, 69480, Note_off_c, 11, 73, 64
15, 69480, Note_on_c, 11, 68, 92
15, 69595, Note_off_c, 11, 68, 64
15, 69600, Note_on_c, 11, 75, 92
15, 69720, Note_off_c, 11, 75, 64
15, 69720, Note_on_c, 11, 68, 92
15, 69835, Note_off_c, 11, 68, 64
15, 69840, Note_on_c, 11, 73, 92
15, 69960, Note_off_c, 11, 73, 64
15, 69960, Note_on_c, 11, 68, 92
15, 70075, Note_off_c, 11, 68, 64
15, 70080, Note_on_c, 11, 75, 92
15, 70200, Note_off_c, 11, 75, 64
15, 70200, Note_on_c, 11, 68, 92
15, 70315, Note_off_c, 11, 68, 64
15, 70320, Note_on_c, 11, 73, 92
15, 70440, Note_off_c, 11, 73, 64
15, 70440, Note_on_c, 11, 68, 92
15, 70555, Note_off_c, 11, 68, 64
15, 70560, Note_on_c, 11, 56, 60
15, 70680, Note_off_c, 11, 56, 64
15, 70680, Note_on_c, 11, 66, 60
15, 70800, Note_off_c, 11, 66, 64
15, 70800, Note_on_c, 11, 72, 60
15, 70920, Note_off_c, 11, 72, 64
15, 70920, Note_on_c, 11, 66, 60
15, 71035, Note_off_c, 11, 66, 64
15, 71040, Note_on_c, 11, 75, 60
15, 71160, Note_off_c, 11, 75, 64
15, 71160, Note_on_c, 11, 66, 60
15, 71275, Note_off_c, 11, 66, 64
15, 71280, Note_on_c, 11, 72, 60
15, 71400, Note_off_c, 11, 72, 64
15, 71400, Note_on_c, 11, 66, 60
15, 71515, Note_off_c, 11, 66, 64
15, 71520, Note_on_c, 11, 75, 60
15, 71640, Note_off_c, 11, 75, 64
15, 71640, Note_on_c, 11, 66, 60
15, 71755, Note_off_c, 11, 66, 64
15, 71760, Note_on_c, 11, 72, 60
15, 71880, Note_off_c, 11, 72, 64
15, 71880, Note_on_c, 11, 66, 60
15, 71995, Note_off_c, 11, 66, 64
15, 72000, Note_on_c, 11, 61, 108
15, 72115, Note_off_c, 11, 61, 64
15, 72120, Note_on_c, 11, 73, 108
15, 72235, Note_off_c, 11, 73, 64
15, 72240, Note_on_c, 11, 71, 108
15, 72355, Note_off_c, 11, 71, 64
15, 72360, Note_on_c, 11, 69, 108
15, 72475, Note_off_c, 11, 69, 64
15, 72480, Note_on_c, 11, 68, 108
15, 72595, Note_off_c, 11, 68, 64
15, 72600, Note_on_c, 11, 73, 108
15, 72715, Note_off_c, 11, 73, 64
15, 72720, Note_on_c, 11, 68, 108
15, 72835, Note_off_c, 11, 68, 64
15, 72840, Note_on_c, 11, 66, 108
15, 72955, Note_off_c, 11, 66, 64
15, 72960, Note_on_c, 11, 64, 108
15, 73075, Note_off_c, 11, 64, 64
15, 73080, Note_on_c, 11, 68, 108
15, 73195, Note_off_c, 11, 68, 64
15, 73200, Note_on_c, 11, 64, 108
15, 73315, Note_off_c, 11, 64, 64
15, 73320, Note_on_c, 11, 63, 108
15, 73435, Note_off_c, 11, 63, 64
15, 73440, Note_on_c, 11, 61, 108
15, 73555, Note_off_c, 11, 61, 64
15, 73560, Note_on_c, 11, 73, 108
15, 73675, Note_off_c, 11, 73, 64
15, 73680, Note_on_c, 11, 68, 108
15, 73795, Note_off_c, 11, 68, 64
15, 73800, Note_on_c, 11, 66, 108
15, 73915, Note_off_c, 11, 66, 64
15, 73920, Note_on_c, 11, 64, 108
15, 74035, Note_off_c, 11, 64, 64
15, 74040, Note_on_c, 11, 68, 108
15, 74155, Note_off_c, 11, 68, 64
15, 74160, Note_on_c, 11, 64, 108
15, 74275, Note_off_c, 11, 64, 64
15, 74280, Note_on_c, 11, 63, 108
15, 74395, Note_off_c, 11, 63, 64
15, 74400, Note_on_c, 11, 61, 108
15, 74515, Note_off_c, 11, 61, 64
15, 74520, Note_on_c, 11, 64, 108
15, 74635, Note_off_c, 11, 64, 64
15, 74640, Note_on_c, 11, 61, 108
15, 74755, Note_off_c, 11, 61, 64
15, 74760, Note_on_c, 11, 59, 108
15, 74875, Note_off_c, 11, 59, 64
15, 74880, Note_on_c, 11, 58, 108
15, 74995, Note_off_c, 11, 58, 64
15, 75000, Note_on_c, 11, 66, 108
15, 75120, Note_off_c, 11, 66, 64
15, 75120, Note_on_c, 11, 73, 108
15, 75240, Note_off_c, 11, 73, 64
15, 75240, Note_on_c, 11, 66, 108
15, 75355, Note_off_c, 11, 66, 64
15, 75360, Note_on_c, 11, 76, 108
15, 75480, Note_off_c, 11, 76, 64
15, 75480, Note_on_c, 11, 66, 108
15, 75595, Note_off_c, 11, 66, 64
15, 75600, Note_on_c, 11, 73, 108
15, 75720, Note_off_c, 11, 73, 64
15, 75720, Note_on_c, 11, 66, 108
15, 75835, Note_off_c, 11, 66, 64
15, 75840, Note_on_c, 11, 76, 108
15, 75960, Note_off_c, 11, 76, 64
15, 75960, Note_on_c, 11, 66, 108
15, 76075, Note_off_c, 11, 66, 64
15, 76080, Note_on_c, 11, 73, 108
15, 76200, Note_off_c, 11, 73, 64
15, 76200, Note_on_c, 11, 66, 108
15, 76315, Note_off_c, 11, 66, 64
15, 76320, Note_on_c, 11, 58, 75
15, 76440, Note_off_c, 11, 58, 64
15, 76440, Note_on_c, 11, 66, 75
15, 76560, Note_off_c, 11, 66, 64
15, 76560, Note_on_c, 11, 76, 75
15, 76680, Note_off_c, 11, 76, 64
15, 76680, Note_on_c, 11, 66, 75
15, 76795, Note_off_c, 11, 66, 64
15, 76800, Note_on_c, 11, 73, 75
15, 76920, Note_off_c, 11, 73, 64
15, 76920, Note_on_c, 11, 66, 75
15, 77035, Note_off_c, 11, 66, 64
15, 77040, Note_on_c, 11, 76, 75
15, 77160, Note_off_c, 11, 76, 64
15, 77160, Note_on_c, 11, 66, 75
15, 77275, Note_off_c, 11, 66, 64
15, 77280, Note_on_c, 11, 73, 75
15, 77400, Note_off_c, 11, 73, 64
15, 77400, Note_on_c, 11, 66, 75
15, 77515, Note_off_c, 11, 66, 64
15, 77520, Note_on_c, 11, 76, 75
15, 77640, Note_off_c, 11, 76, 64
15, 77640, Note_on_c, 11, 66, 75
15, 77755, Note_off_c, 11, 66, 64
15, 77760, Note_on_c, 11, 59, 108
15, 77875, Note_off_c, 11, 59, 64
15, 77880, Note_on_c, 11, 83, 108
15, 77995, Note_off_c, 11, 83, 64
15, 78000, Note_on_c, 11, 82, 108
15, 78115, Note_off_c, 11, 82, 64
15, 78120, Note_on_c, 11, 80, 108
15, 78235, Note_off_c, 11, 80, 64
15, 78240, Note_on_c, 11, 78, 108
15, 78355, Note_off_c, 11, 78, 64
15, 78360, Note_on_c, 11, 83, 108
15, 78475, Note_off_c, 11, 83, 64
15, 78480, Note_on_c, 11, 78, 108
15, 78595, Note_off_c, 11, 78, 64
15, 78600, Note_on_c, 11, 76, 108
15, 78715, Note_off_c, 11, 76, 64
15, 78720, Note_on_c, 11, 75, 108
15, 78835, Note_off_c, 11, 75, 64
15, 78840, Note_on_c, 11, 78, 108
15, 78955, Note_off_c, 11, 78, 64
15, 78960, Note_on_c, 11, 75, 108
15, 79075, Note_off_c, 11, 75, 64
15, 79080, Note_on_c, 11, 73, 108
15, 79195, Note_off_c, 11, 73, 64
15, 79200, Note_on_c, 11, 71, 92
15, 79315, Note_off_c, 11, 71, 64
15, 79320, Note_on_c, 11, 83, 92
15, 79435, Note_off_c, 11, 83, 64
15, 79440, Note_on_c, 11, 78, 92
15, 79555, Note_off_c, 11, 78, 64
15, 79560, Note_on_c, 11, 76, 92
15, 79675, Note_off_c, 11, 76, 64
15, 79680, Note_on_c, 11, 75, 92
15, 79795, Note_off_c, 11, 75, 64
15, 79800, Note_on_c, 11, 78, 92
15, 79915, Note_off_c, 11, 78, 64
15, 79920, Note_on_c, 11, 75, 92
15, 80035, Note_off_c, 11, 75, 64
15, 80040, Note_on_c, 11, 73, 92
15, 80155, Note_off_c, 11, 73, 64
15, 80160, Note_on_c, 11, 71, 92
15, 80275, Note_off_c, 11, 71, 64
15, 80280, Note_on_c, 11, 75, 92
15, 80395, Note_off_c, 11, 75, 64
15, 80400, Note_on_c, 11, 71, 92
15, 80515, Note_off_c, 11, 71, 64
15, 80520, Note_on_c, 11, 69, 92
15, 80635, Note_off_c, 11, 69, 64
15, 80640, Note_on_c, 11, 68, 108
15, 80760, Note_off_c, 11, 68, 64
15, 80760, Note_on_c, 11, 74, 108
15, 80880, Note_off_c, 11, 74, 64
15, 80880, Note_on_c, 11, 76, 108
15, 81000, Note_off_c, 11, 76, 64
15, 81000, Note_on_c, 11, 74, 108
15, 81115, Note_off_c, 11, 74, 64
15, 81120, Note_on_c, 11, 80, 108
15, 81240, Note_off_c, 11, 80, 64
15, 81240, Note_on_c, 11, 74, 108
15, 81355, Note_off_c, 11, 74, 64
15, 81360, Note_on_c, 11, 83, 108
15, 81480, Note_off_c, 11, 83, 64
15, 81480, Note_on_c, 11, 74, 108
15, 81595, Note_off_c, 11, 74, 64
15, 81600, Note_on_c, 11, 80, 108
15, 81720, Note_off_c, 11, 80, 64
15, 81720, Note_on_c, 11, 74, 108
15, 81835, Note_off_c, 11, 74, 64
15, 81840, Note_on_c, 11, 76, 108
15, 81960, Note_off_c, 11, 76, 64
15, 81960, Note_on_c, 11, 74, 108
15, 82075, Note_off_c, 11, 74, 64
15, 82080, Note_on_c, 11, 68, 60
15, 82200, Note_off_c, 11, 68, 64
15, 82200, Note_on_c, 11, 74, 60
15, 82320, Note_off_c, 11, 74, 64
15, 82320, Note_on_c, 11, 76, 60
15, 82440, Note_off_c, 11, 76, 64
15, 82440, Note_on_c, 11, 74, 60
15, 82555, Note_off_c, 11, 74, 64
15, 82560, Note_on_c, 11, 68, 60
15, 82640, Note_off_c, 11, 68, 64
15, 82680, Note_on_c, 11, 74, 60
15, 82760, Note_off_c, 11, 74, 64
15, 82800, Note_on_c, 11, 66, 60
15, 82880, Note_off_c, 11, 66, 64
15, 82920, Note_on_c, 11, 74, 60
15, 83000, Note_off_c, 11, 74, 64
15, 83040, Note_on_c, 11, 68, 60
15, 83120, Note_off_c, 11, 68, 64
15, 83160, Note_on_c, 11, 74, 60
15, 83240, Note_off_c, 11, 74, 64
15, 83280, Note_on_c, 11, 64, 60
15, 83360, Note_off_c, 11, 64, 64
15, 83400, Note_on_c, 11, 74, 60
15, 83480, Note_off_c, 11, 74, 64
15, 83520, Note_on_c, 11, 73, 108
15, 83640, Note_off_c, 11, 73, 64
15, 83640, Note_on_c, 11, 76, 108
15, 83760, Note_off_c, 11, 76, 64
15, 83760, Note_on_c, 11, 81, 108
15, 83880, Note_off_c, 11, 81, 64
15, 83880, Note_on_c, 11, 80, 108
15, 83995, Note_off_c, 11, 80, 64
15, 84000, Note_on_c, 11, 81, 108
15, 84115, Note_off_c, 11, 81, 64
15, 84120, Note_on_c, 11, 76, 108
15, 84235, Note_off_c, 11, 76, 64
15, 84240, Note_on_c, 11, 74, 108
15, 84355, Note_off_c, 11, 74, 64
15, 84360, Note_on_c, 11, 76, 108
15, 84475, Note_off_c, 11, 76, 64
15, 84480, Note_on_c, 11, 73, 108
15, 84595, Note_off_c, 11, 73, 64
15, 84600, Note_on_c, 11, 76, 108
15, 84715, Note_off_c, 11, 76, 64
15, 84720, Note_on_c, 11, 71, 108
15, 84835, Note_off_c, 11, 71, 64
15, 84840, Note_on_c, 11, 76, 108
15, 84955, Note_off_c, 11, 76, 64
15, 84960, Note_on_c, 11, 69, 108
15, 85075, Note_off_c, 11, 69, 64
15, 85080, Note_on_c, 11, 81, 108
15, 85200, Note_off_c, 11, 81, 64
15, 85200, Note_on_c, 11, 80, 108
15, 85320, Note_off_c, 11, 80, 64
15, 85320, Note_on_c, 11, 78, 108
15, 85435, Note_off_c, 11, 78, 64
15, 85440, Note_on_c, 11, 76, 108
15, 85555, Note_off_c, 11, 76, 64
15, 85560, Note_on_c, 11, 69, 108
15, 85675, Note_off_c, 11, 69, 64
15, 85680, Note_on_c, 11, 78, 108
15, 85795, Note_off_c, 11, 78, 64
15, 85800, Note_on_c, 11, 69, 108
15, 85915, Note_off_c, 11, 69, 64
15, 85920, Note_on_c, 11, 76, 108
15, 86035, Note_off_c, 11, 76, 64
15, 86040, Note_on_c, 11, 69, 108
15, 86155, Note_off_c, 11, 69, 64
15, 86160, Note_on_c, 11, 74, 108
15, 86275, Note_off_c, 11, 74, 64
15, 86280, Note_on_c, 11, 69, 108
15, 86395, Note_off_c, 11, 69, 64
15, 86400, Note_on_c, 11, 73, 75
15, 86480, Note_off_c, 11, 73, 64
15, 86520, Note_on_c, 11, 76, 75
15, 86600, Note_off_c, 11, 76, 64
15, 86640, Note_on_c, 11, 71, 75
15, 86720, Note_off_c, 11, 71, 64
15, 86760, Note_on_c, 11, 76, 75
15, 86840, Note_off_c, 11, 76, 64
15, 86880, Note_on_c, 11, 73, 75
15, 86960, Note_off_c, 11, 73, 64
15, 87000, Note_on_c, 11, 76, 75
15, 87080, Note_off_c, 11, 76, 64
15, 87120, Note_on_c, 11, 74, 75
15, 87200, Note_off_c, 11, 74, 64
15, 87240, Note_on_c, 11, 76, 75
15, 87320, Note_off_c, 11, 76, 64
15, 87360, Note_on_c, 11, 73, 75
15, 87440, Note_off_c, 11, 73, 64
15, 87480, Note_on_c, 11, 76, 75
15, 87560, Note_off_c, 11, 76, 64
15, 87600, Note_on_c, 11, 71, 75
15, 87680, Note_off_c, 11, 71, 64
15, 87720, Note_on_c, 11, 76, 75
15, 87800, Note_off_c, 11, 76, 64
15, 87840, Note_on_c, 11, 69, 75
15, 87920, Note_off_c, 11, 69, 64
15, 87960, Note_on_c, 11, 81, 75
15, 88080, Note_off_c, 11, 81, 64
15, 88080, Note_on_c, 11, 80, 75
15, 88165, Note_off_c, 11, 80, 64
15, 88200, Note_on_c, 11, 78, 75
15, 88280, Note_off_c, 11, 78, 64
15, 88320, Note_on_c, 11, 76, 75
15, 88400, Note_off_c, 11, 76, 64
15, 88440, Note_on_c, 11, 69, 75
15, 88520, Note_off_c, 11, 69, 64
15, 88560, Note_on_c, 11, 78, 75
15, 88640, Note_off_c, 11, 78, 64
15, 88680, Note_on_c, 11, 69, 75
15, 88760, Note_off_c, 11, 69, 64
15, 88800, Note_on_c, 11, 76, 75
15, 88880, Note_off_c, 11, 76, 64
15, 88920, Note_on_c, 11, 69, 75
15, 89000, Note_off_c, 11, 69, 64
15, 89040, Note_on_c, 11, 74, 75
15, 89120, Note_off_c, 11, 74, 64
15, 89160, Note_on_c, 11, 69, 75
15, 89240, Note_off_c, 11, 69, 64
15, 89280, Note_on_c, 11, 73, 108
15, 89395, Note_off_c, 11, 73, 64
15, 89400, Note_on_c, 11, 69, 108
15, 89520, Note_off_c, 11, 69, 64
15, 89520, Note_on_c, 11, 69, 108
15, 89640, Note_off_c, 11, 69, 64
15, 89640, Note_on_c, 11, 69, 108
15, 89755, Note_off_c, 11, 69, 64
15, 89760, Note_on_c, 11, 68, 108
15, 89880, Note_off_c, 11, 68, 64
15, 89880, Note_on_c, 11, 69, 108
15, 90000, Note_off_c, 11, 69, 64
15, 90000, Note_on_c, 11, 69, 108
15, 90115, Note_off_c, 11, 69, 64
15, 90120, Note_on_c, 11, 69, 108
15, 90235, Note_off_c, 11, 69, 64
15, 90240, Note_on_c, 11, 71, 108
15, 90360, Note_off_c, 11, 71, 64
15, 90360, Note_on_c, 11, 69, 108
15, 90480, Note_off_c, 11, 69, 64
15, 90480, Note_on_c, 11, 68, 108
15, 90600, Note_off_c, 11, 68, 64
15, 90600, Note_on_c, 11, 69, 108
15, 90715, Note_off_c, 11, 69, 64
15, 90720, Note_on_c, 11, 69, 108
15, 90835, Note_off_c, 11, 69, 64
15, 90840, Note_on_c, 11, 69, 108
15, 90960, Note_off_c, 11, 69, 64
15, 90960, Note_on_c, 11, 73, 108
15, 91080, Note_off_c, 11, 73, 64
15, 91080, Note_on_c, 11, 69, 108
15, 91195, Note_off_c, 11, 69, 64
15, 91200, Note_on_c, 11, 71, 108
15, 91320, Note_off_c, 11, 71, 64
15, 91320, Note_on_c, 11, 69, 108
15, 91435, Note_off_c, 11, 69, 64
15, 91440, Note_on_c, 11, 73, 108
15, 91560, Note_off_c, 11, 73, 64
15, 91560, Note_on_c, 11, 69, 108
15, 91675, Note_off_c, 11, 69, 64
15, 91680, Note_on_c, 11, 74, 108
15, 91800, Note_off_c, 11, 74, 64
15, 91800, Note_on_c, 11, 69, 108
15, 91915, Note_off_c, 11, 69, 64
15, 91920, Note_on_c, 11, 71, 108
15, 92040, Note_off_c, 11, 71, 64
15, 92040, Note_on_c, 11, 69, 108
15, 92155, Note_off_c, 11, 69, 64
15, 92160, Note_on_c, 11, 73, 75
15, 92240, Note_off_c, 11, 73, 64
15, 92280, Note_on_c, 11, 69, 75
15, 92360, Note_off_c, 11, 69, 64
15, 92400, Note_on_c, 11, 69, 75
15, 92480, Note_off_c, 11, 69, 64
15, 92520, Note_on_c, 11, 69, 75
15, 92600, Note_off_c, 11, 69, 64
15, 92640, Note_on_c, 11, 68, 75
15, 92720, Note_off_c, 11, 68, 64
15, 92760, Note_on_c, 11, 69, 75
15, 92840, Note_off_c, 11, 69, 64
15, 92880, Note_on_c, 11, 69, 75
15, 92960, Note_off_c, 11, 69, 64
15, 93000, Note_on_c, 11, 69, 75
15, 93080, Note_off_c, 11, 69, 64
15, 93120, Note_on_c, 11, 71, 75
15, 93200, Note_off_c, 11, 71, 64
15, 93240, Note_on_c, 11, 69, 75
15, 93320, Note_off_c, 11, 69, 64
15, 93360, Note_on_c, 11, 68, 75
15, 93440, Note_off_c, 11, 68, 64
15, 93480, Note_on_c, 11, 69, 75
15, 93560, Note_off_c, 11, 69, 64
15, 93600, Note_on_c, 11, 69, 75
15, 93680, Note_off_c, 11, 69, 64
15, 93720, Note_on_c, 11, 69, 75
15, 93800, Note_off_c, 11, 69, 64
15, 93840, Note_on_c, 11, 73, 75
15, 93920, Note_off_c, 11, 73, 64
15, 93960, Note_on_c, 11, 69, 75
15, 94040, Note_off_c, 11, 69, 64
15, 94080, Note_on_c, 11, 71, 75
15, 94160, Note_off_c, 11, 71, 64
15, 94200, Note_on_c, 11, 69, 75
15, 94280, Note_off_c, 11, 69, 64
15, 94320, Note_on_c, 11, 73, 75
15, 94400, Note_off_c, 11, 73, 64
15, 94440, Note_on_c, 11, 69, 75
15, 94520, Note_off_c, 11, 69, 64
15, 94560, Note_on_c, 11, 74, 75
15, 94640, Note_off_c, 11, 74, 64
15, 94680, Note_on_c, 11, 69, 75
15, 94760, Note_off_c, 11, 69, 64
15, 94800, Note_on_c, 11, 71, 75
15, 94880, Note_off_c, 11, 71, 64
15, 94920, Note_on_c, 11, 69, 75
15, 95000, Note_off_c, 11, 69, 64
15, 95040, Note_on_c, 11, 73, 127
15, 95160, Note_off_c, 11, 73, 64
15, 95160, Note_on_c, 11, 69, 127
15, 95280, Note_off_c, 11, 69, 64
15, 95280, Note_on_c, 11, 73, 127
15, 95395, Note_off_c, 11, 73, 64
15, 95400, Note_on_c, 11, 69, 127
15, 95515, Note_off_c, 11, 69, 64
15, 95520, Note_on_c, 11, 73, 127
15, 95640, Note_off_c, 11, 73, 64
15, 95640, Note_on_c, 11, 69, 127
15, 95760, Note_off_c, 11, 69, 64
15, 95760, Note_on_c, 11, 73, 127
15, 95875, Note_off_c, 11, 73, 64
15, 95880, Note_on_c, 11, 69, 127
15, 95995, Note_off_c, 11, 69, 64
15, 96000, Note_on_c, 11, 73, 127
15, 96120, Note_off_c, 11, 73, 64
15, 96120, Note_on_c, 11, 69, 127
15, 96240, Note_off_c, 11, 69, 64
15, 96240, Note_on_c, 11, 73, 127
15, 96355, Note_off_c, 11, 73, 64
15, 96360, Note_on_c, 11, 69, 127
15, 96475, Note_off_c, 11, 69, 64
15, 96480, Note_on_c, 11, 73, 127
15, 96600, Note_off_c, 11, 73, 64
15, 96600, Note_on_c, 11, 69, 127
15, 96720, Note_off_c, 11, 69, 64
15, 96720, Note_on_c, 11, 73, 127
15, 96835, Note_off_c, 11, 73, 64
15, 96840, Note_on_c, 11, 68, 127
15, 96955, Note_off_c, 11, 68, 64
15, 96960, Note_on_c, 11, 73, 127
15, 97080, Note_off_c, 11, 73, 64
15, 97080, Note_on_c, 11, 69, 127
15, 97200, Note_off_c, 11, 69, 64
15, 97200, Note_on_c, 11, 73, 127
15, 97315, Note_off_c, 11, 73, 64
15, 97320, Note_on_c, 11, 68, 127
15, 97435, Note_off_c, 11, 68, 64
15, 97440, Note_on_c, 11, 73, 127
15, 97560, Note_off_c, 11, 73, 64
15, 97560, Note_on_c, 11, 69, 127
15, 97680, Note_off_c, 11, 69, 64
15, 97680, Note_on_c, 11, 73, 127
15, 97795, Note_off_c, 11, 73, 64
15, 97800, Note_on_c, 11, 68, 127
15, 97915, Note_off_c, 11, 68, 64
15, 97920, Note_on_c, 11, 73, 127
15, 98040, Note_off_c, 11, 73, 64
15, 98040, Note_on_c, 11, 69, 127
15, 98160, Note_off_c, 11, 69, 64
15, 98160, Note_on_c, 11, 73, 127
15, 98275, Note_off_c, 11, 73, 64
15, 98280, Note_on_c, 11, 67, 127
15, 98395, Note_off_c, 11, 67, 64
15, 98400, Note_on_c, 11, 73, 127
15, 98520, Note_off_c, 11, 73, 64
15, 98520, Note_on_c, 11, 69, 127
15, 98640, Note_off_c, 11, 69, 64
15, 98640, Note_on_c, 11, 73, 127
15, 98755, Note_off_c, 11, 73, 64
15, 98760, Note_on_c, 11, 67, 127
15, 98875, Note_off_c, 11, 67, 64
15, 98880, Note_on_c, 11, 73, 127
15, 99000, Note_off_c, 11, 73, 64
15, 99000, Note_on_c, 11, 69, 127
15, 99120, Note_off_c, 11, 69, 64
15, 99120, Note_on_c, 11, 73, 127
15, 99235, Note_off_c, 11, 73, 64
15, 99240, Note_on_c, 11, 67, 127
15, 99355, Note_off_c, 11, 67, 64
15, 99360, Note_on_c, 11, 74, 127
15, 99480, Note_off_c, 11, 74, 64
15, 99480, Note_on_c, 11, 69, 127
15, 99600, Note_off_c, 11, 69, 64
15, 99600, Note_on_c, 11, 74, 127
15, 99715, Note_off_c, 11, 74, 64
15, 99720, Note_on_c, 11, 66, 127
15, 99835, Note_off_c, 11, 66, 64
15, 99840, Note_on_c, 11, 74, 127
15, 99960, Note_off_c, 11, 74, 64
15, 99960, Note_on_c, 11, 69, 127
15, 100080, Note_off_c, 11, 69, 64
15, 100080, Note_on_c, 11, 74, 127
15, 100195, Note_off_c, 11, 74, 64
15, 100200, Note_on_c, 11, 66, 127
15, 100315, Note_off_c, 11, 66, 64
15, 100320, Note_on_c, 11, 74, 127
15, 100440, Note_off_c, 11, 74, 64
15, 100440, Note_on_c, 11, 69, 127
15, 100560, Note_off_c, 11, 69, 64
15, 100560, Note_on_c, 11, 74, 127
15, 100675, Note_off_c, 11, 74, 64
15, 100680, Note_on_c, 11, 66, 127
15, 100795, Note_off_c, 11, 66, 64
15, 100800, Note_on_c, 11, 74, 127
15, 100920, Note_off_c, 11, 74, 64
15, 100920, Note_on_c, 11, 69, 127
15, 101040, Note_off_c, 11, 69, 64
15, 101040, Note_on_c, 11, 74, 127
15, 101155, Note_off_c, 11, 74, 64
15, 101160, Note_on_c, 11, 64, 127
15, 101275, Note_off_c, 11, 64, 64
15, 101280, Note_on_c, 11, 74, 127
15, 101400, Note_off_c, 11, 74, 64
15, 101400, Note_on_c, 11, 69, 127
15, 101520, Note_off_c, 11, 69, 64
15, 101520, Note_on_c, 11, 74, 127
15, 101635, Note_off_c, 11, 74, 64
15, 101640, Note_on_c, 11, 64, 127
15, 101755, Note_off_c, 11, 64, 64
15, 101760, Note_on_c, 11, 74, 127
15, 101880, Note_off_c, 11, 74, 64
15, 101880, Note_on_c, 11, 69, 127
15, 102000, Note_off_c, 11, 69, 64
15, 102000, Note_on_c, 11, 74, 127
15, 102115, Note_off_c, 11, 74, 64
15, 102120, Note_on_c, 11, 64, 127
15, 102235, Note_off_c, 11, 64, 64
15, 102240, Note_on_c, 11, 73, 108
15, 102360, Note_off_c, 11, 73, 64
15, 102360, Note_on_c, 11, 69, 108
15, 102480, Note_off_c, 11, 69, 64
15, 102480, Note_on_c, 11, 73, 108
15, 102595, Note_off_c, 11, 73, 64
15, 102600, Note_on_c, 11, 64, 108
15, 102715, Note_off_c, 11, 64, 64
15, 102720, Note_on_c, 11, 73, 108
15, 102840, Note_off_c, 11, 73, 64
15, 102840, Note_on_c, 11, 69, 108
15, 102960, Note_off_c, 11, 69, 64
15, 102960, Note_on_c, 11, 73, 108
15, 103075, Note_off_c, 11, 73, 64
15, 103080, Note_on_c, 11, 64, 108
15, 103195, Note_off_c, 11, 64, 64
15, 103200, Note_on_c, 11, 73, 108
15, 103320, Note_off_c, 11, 73, 64
15, 103320, Note_on_c, 11, 69, 108
15, 103440, Note_off_c, 11, 69, 64
15, 103440, Note_on_c, 11, 73, 108
15, 103555, Note_off_c, 11, 73, 64
15, 103560, Note_on_c, 11, 64, 108
15, 103675, Note_off_c, 11, 64, 64
15, 103680, Note_on_c, 11, 73, 108
15, 103800, Note_off_c, 11, 73, 64
15, 103800, Note_on_c, 11, 69, 108
15, 103920, Note_off_c, 11, 69, 64
15, 103920, Note_on_c, 11, 73, 108
15, 104035, Note_off_c, 11, 73, 64
15, 104040, Note_on_c, 11, 62, 108
15, 104155, Note_off_c, 11, 62, 64
15, 104160, Note_on_c, 11, 73, 108
15, 104280, Note_off_c, 11, 73, 64
15, 104280, Note_on_c, 11, 69, 108
15, 104400, Note_off_c, 11, 69, 64
15, 104400, Note_on_c, 11, 73, 108
15, 104515, Note_off_c, 11, 73, 64
15, 104520, Note_on_c, 11, 62, 108
15, 104635, Note_off_c, 11, 62, 64
15, 104640, Note_on_c, 11, 73, 108
15, 104760, Note_off_c, 11, 73, 64
15, 104760, Note_on_c, 11, 69, 108
15, 104880, Note_off_c, 11, 69, 64
15, 104880, Note_on_c, 11, 73, 108
15, 104995, Note_off_c, 11, 73, 64
15, 105000, Note_on_c, 11, 62, 108
15, 105115, Note_off_c, 11, 62, 64
15, 105120, Note_on_c, 11, 71, 108
15, 105240, Note_off_c, 11, 71, 64
15, 105240, Note_on_c, 11, 69, 107
15, 105360, Note_off_c, 11, 69, 64
15, 105360, Note_on_c, 11, 71, 106
15, 105475, Note_off_c, 11, 71, 64
15, 105480, Note_on_c, 11, 62, 105
15, 105595, Note_off_c, 11, 62, 64
15, 105600, Note_on_c, 11, 71, 104
15, 105720, Note_off_c, 11, 71, 64
15, 105720, Note_on_c, 11, 69, 103
15, 105840, Note_off_c, 11, 69, 64
15, 105840, Note_on_c, 11, 71, 102
15, 105955, Note_off_c, 11, 71, 64
15, 105960, Note_on_c, 11, 62, 101
15, 106075, Note_off_c, 11, 62, 64
15, 106080, Note_on_c, 11, 71, 100
15, 106200, Note_off_c, 11, 71, 64
15, 106200, Note_on_c, 11, 69, 99
15, 106320, Note_off_c, 11, 69, 64
15, 106320, Note_on_c, 11, 71, 98
15, 106435, Note_off_c, 11, 71, 64
15, 106440, Note_on_c, 11, 62, 97
15, 106555, Note_off_c, 11, 62, 64
15, 106560, Note_on_c, 11, 71, 96
15, 106680, Note_off_c, 11, 71, 64
15, 106680, Note_on_c, 11, 69, 95
15, 106800, Note_off_c, 11, 69, 64
15, 106800, Note_on_c, 11, 71, 94
15, 106915, Note_off_c, 11, 71, 64
15, 106920, Note_on_c, 11, 61, 93
15, 107035, Note_off_c, 11, 61, 64
15, 107040, Note_on_c, 11, 71, 91
15, 107160, Note_off_c, 11, 71, 64
15, 107160, Note_on_c, 11, 69, 89
15, 107280, Note_off_c, 11, 69, 64
15, 107280, Note_on_c, 11, 71, 87
15, 107395, Note_off_c, 11, 71, 64
15, 107400, Note_on_c, 11, 61, 85
15, 107515, Note_off_c, 11, 61, 64
15, 107520, Note_on_c, 11, 71, 83
15, 107640, Note_off_c, 11, 71, 64
15, 107640, Note_on_c, 11, 69, 81
15, 107760, Note_off_c, 11, 69, 64
15, 107760, Note_on_c, 11, 71, 79
15, 107875, Note_off_c, 11, 71, 64
15, 107880, Note_on_c, 11, 61, 77
15, 107995, Note_off_c, 11, 61, 64
15, 108000, Note_on_c, 11, 69, 75
15, 108120, Note_off_c, 11, 69, 64
15, 108120, Note_on_c, 11, 69, 75
15, 108240, Note_off_c, 11, 69, 64
15, 108240, Note_on_c, 11, 69, 75
15, 108355, Note_off_c, 11, 69, 64
15, 108360, Note_on_c, 11, 61, 75
15, 108475, Note_off_c, 11, 61, 64
15, 108480, Note_on_c, 11, 69, 75
15, 108600, Note_off_c, 11, 69, 64
15, 108600, Note_on_c, 11, 69, 75
15, 108720, Note_off_c, 11, 69, 64
15, 108720, Note_on_c, 11, 69, 75
15, 108835, Note_off_c, 11, 69, 64
15, 108840, Note_on_c, 11, 61, 75
15, 108955, Note_off_c, 11, 61, 64
15, 108960, Note_on_c, 11, 69, 75
15, 109080, Note_off_c, 11, 69, 64
15, 109080, Note_on_c, 11, 69, 75
15, 109200, Note_off_c, 11, 69, 64
15, 109200, Note_on_c, 11, 69, 75
15, 109315, Note_off_c, 11, 69, 64
15, 109320, Note_on_c, 11, 61, 75
15, 109435, Note_off_c, 11, 61, 64
15, 109440, Note_on_c, 11, 69, 75
15, 109560, Note_off_c, 11, 69, 64
15, 109560, Note_on_c, 11, 69, 75
15, 109680, Note_off_c, 11, 69, 64
15, 109680, Note_on_c, 11, 69, 75
15, 109795, Note_off_c, 11, 69, 64
15, 109800, Note_on_c, 11, 59, 75
15, 109915, Note_off_c, 11, 59, 64
15, 109920, Note_on_c, 11, 69, 75
15, 110040, Note_off_c, 11, 69, 64
15, 110040, Note_on_c, 11, 69, 75
15, 110160, Note_off_c, 11, 69, 64
15, 110160, Note_on_c, 11, 69, 75
15, 110275, Note_off_c, 11, 69, 64
15, 110280, Note_on_c, 11, 59, 75
15, 110395, Note_off_c, 11, 59, 64
15, 110400, Note_on_c, 11, 69, 75
15, 110520, Note_off_c, 11, 69, 64
15, 110520, Note_on_c, 11, 69, 75
15, 110640, Note_off_c, 11, 69, 64
15, 110640, Note_on_c, 11, 69, 75
15, 110755, Note_off_c, 11, 69, 64
15, 110760, Note_on_c, 11, 59, 75
15, 110875, Note_off_c, 11, 59, 64
15, 110880, Note_on_c, 11, 68, 60
15, 110960, Note_off_c, 11, 68, 64
15, 111000, Note_on_c, 11, 69, 60
15, 111080, Note_off_c, 11, 69, 64
15, 111120, Note_on_c, 11, 68, 60
15, 111200, Note_off_c, 11, 68, 64
15, 111240, Note_on_c, 11, 59, 60
15, 111320, Note_off_c, 11, 59, 64
15, 111360, Note_on_c, 11, 68, 60
15, 111440, Note_off_c, 11, 68, 64
15, 111480, Note_on_c, 11, 69, 60
15, 111560, Note_off_c, 11, 69, 64
15, 111600, Note_on_c, 11, 68, 60
15, 111680, Note_off_c, 11, 68, 64
15, 111720, Note_on_c, 11, 59, 60
15, 111800, Note_off_c, 11, 59, 64
15, 111840, Note_on_c, 11, 68, 60
15, 111920, Note_off_c, 11, 68, 64
15, 111960, Note_on_c, 11, 69, 60
15, 112040, Note_off_c, 11, 69, 64
15, 112080, Note_on_c, 11, 68, 60
15, 112160, Note_off_c, 11, 68, 64
15, 112200, Note_on_c, 11, 59, 60
15, 112280, Note_off_c, 11, 59, 64
15, 112320, Note_on_c, 11, 57, 75
15, 112435, Note_off_c, 11, 57, 64
15, 112440, Note_on_c, 11, 59, 75
15, 112555, Note_off_c, 11, 59, 64
15, 112560, Note_on_c, 11, 57, 75
15, 112675, Note_off_c, 11, 57, 64
15, 112680, Note_on_c, 11, 59, 75
15, 112795, Note_off_c, 11, 59, 64
15, 112800, Note_on_c, 11, 61, 76
15, 112920, Note_off_c, 11, 61, 64
15, 112920, Note_on_c, 11, 64, 77
15, 113035, Note_off_c, 11, 64, 64
15, 113040, Note_on_c, 11, 57, 77
15, 113155, Note_off_c, 11, 57, 64
15, 113160, Note_on_c, 11, 59, 78
15, 113275, Note_off_c, 11, 59, 64
15, 113280, Note_on_c, 11, 61, 79
15, 113400, Note_off_c, 11, 61, 64
15, 113400, Note_on_c, 11, 64, 80
15, 113515, Note_off_c, 11, 64, 64
15, 113520, Note_on_c, 11, 57, 81
15, 113635, Note_off_c, 11, 57, 64
15, 113640, Note_on_c, 11, 59, 82
15, 113755, Note_off_c, 11, 59, 64
15, 113760, Note_on_c, 11, 61, 83
15, 113875, Note_off_c, 11, 61, 64
15, 113880, Note_on_c, 11, 62, 84
15, 113995, Note_off_c, 11, 62, 64
15, 114000, Note_on_c, 11, 61, 85
15, 114115, Note_off_c, 11, 61, 64
15, 114120, Note_on_c, 11, 62, 86
15, 114235, Note_off_c, 11, 62, 64
15, 114240, Note_on_c, 11, 64, 87
15, 114360, Note_off_c, 11, 64, 64
15, 114360, Note_on_c, 11, 69, 88
15, 114475, Note_off_c, 11, 69, 64
15, 114480, Note_on_c, 11, 61, 89
15, 114595, Note_off_c, 11, 61, 64
15, 114600, Note_on_c, 11, 62, 90
15, 114715, Note_off_c, 11, 62, 64
15, 114720, Note_on_c, 11, 64, 91
15, 114840, Note_off_c, 11, 64, 64
15, 114840, Note_on_c, 11, 69, 92
15, 114955, Note_off_c, 11, 69, 64
15, 114960, Note_on_c, 11, 61, 93
15, 115075, Note_off_c, 11, 61, 64
15, 115080, Note_on_c, 11, 62, 94
15, 115195, Note_off_c, 11, 62, 64
15, 115200, Note_on_c, 11, 64, 95
15, 115315, Note_off_c, 11, 64, 64
15, 115320, Note_on_c, 11, 66, 96
15, 115435, Note_off_c, 11, 66, 64
15, 115440, Note_on_c, 11, 64, 97
15, 115555, Note_off_c, 11, 64, 64
15, 115560, Note_on_c, 11, 66, 98
15, 115675, Note_off_c, 11, 66, 64
15, 115680, Note_on_c, 11, 67, 99
15, 115800, Note_off_c, 11, 67, 64
15, 115800, Note_on_c, 11, 73, 100
15, 115915, Note_off_c, 11, 73, 64
15, 115920, Note_on_c, 11, 64, 101
15, 116035, Note_off_c, 11, 64, 64
15, 116040, Note_on_c, 11, 66, 102
15, 116155, Note_off_c, 11, 66, 64
15, 116160, Note_on_c, 11, 67, 103
15, 116280, Note_off_c, 11, 67, 64
15, 116280, Note_on_c, 11, 73, 104
15, 116395, Note_off_c, 11, 73, 64
15, 116400, Note_on_c, 11, 64, 105
15, 116515, Note_off_c, 11, 64, 64
15, 116520, Note_on_c, 11, 66, 106
15, 116635, Note_off_c, 11, 66, 64
15, 116640, Note_on_c, 11, 67, 108
15, 116755, Note_off_c, 11, 67, 64
15, 116760, Note_on_c, 11, 76, 108
15, 116875, Note_off_c, 11, 76, 64
15, 116880, Note_on_c, 11, 73, 108
15, 117000, Note_off_c, 11, 73, 64
15, 117000, Note_on_c, 11, 74, 108
15, 117120, Note_off_c, 11, 74, 64
15, 117120, Note_on_c, 11, 76, 108
15, 117235, Note_off_c, 11, 76, 64
15, 117240, Note_on_c, 11, 73, 108
15, 117355, Note_off_c, 11, 73, 64
15, 117360, Note_on_c, 11, 70, 108
15, 117480, Note_off_c, 11, 70, 64
15, 117480, Note_on_c, 11, 71, 108
15, 117600, Note_off_c, 11, 71, 64
15, 117600, Note_on_c, 11, 73, 108
15, 117715, Note_off_c, 11, 73, 64
15, 117720, Note_on_c, 11, 70, 108
15, 117835, Note_off_c, 11, 70, 64
15, 117840, Note_on_c, 11, 66, 108
15, 117955, Note_off_c, 11, 66, 64
15, 117960, Note_on_c, 11, 64, 108
15, 118075, Note_off_c, 11, 64, 64
15, 118080, Note_on_c, 11, 62, 60
15, 118195, Note_off_c, 11, 62, 64
15, 118200, Note_on_c, 11, 61, 61
15, 118315, Note_off_c, 11, 61, 64
15, 118320, Note_on_c, 11, 59, 62
15, 118435, Note_off_c, 11, 59, 64
15, 118440, Note_on_c, 11, 61, 63
15, 118560, Note_off_c, 11, 61, 64
15, 118560, Note_on_c, 11, 62, 64
15, 118680, Note_off_c, 11, 62, 64
15, 118680, Note_on_c, 11, 66, 65
15, 118795, Note_off_c, 11, 66, 64
15, 118800, Note_on_c, 11, 59, 66
15, 118915, Note_off_c, 11, 59, 64
15, 118920, Note_on_c, 11, 61, 67
15, 119040, Note_off_c, 11, 61, 64
15, 119040, Note_on_c, 11, 62, 68
15, 119160, Note_off_c, 11, 62, 64
15, 119160, Note_on_c, 11, 66, 69
15, 119275, Note_off_c, 11, 66, 64
15, 119280, Note_on_c, 11, 59, 70
15, 119395, Note_off_c, 11, 59, 64
15, 119400, Note_on_c, 11, 61, 71
15, 119515, Note_off_c, 11, 61, 64
15, 119520, Note_on_c, 11, 62, 72
15, 119635, Note_off_c, 11, 62, 64
15, 119640, Note_on_c, 11, 64, 73
15, 119755, Note_off_c, 11, 64, 64
15, 119760, Note_on_c, 11, 62, 74
15, 119880, Note_off_c, 11, 62, 64
15, 119880, Note_on_c, 11, 64, 75
15, 120000, Note_off_c, 11, 64, 64
15, 120000, Note_on_c, 11, 66, 76
15, 120115, Note_off_c, 11, 66, 64
15, 120120, Note_on_c, 11, 71, 77
15, 120235, Note_off_c, 11, 71, 64
15, 120240, Note_on_c, 11, 62, 78
15, 120360, Note_off_c, 11, 62, 64
15, 120360, Note_on_c, 11, 64, 79
15, 120480, Note_off_c, 11, 64, 64
15, 120480, Note_on_c, 11, 66, 80
15, 120595, Note_off_c, 11, 66, 64
15, 120600, Note_on_c, 11, 71, 81
15, 120715, Note_off_c, 11, 71, 64
15, 120720, Note_on_c, 11, 62, 82
15, 120840, Note_off_c, 11, 62, 64
15, 120840, Note_on_c, 11, 64, 83
15, 120960, Note_off_c, 11, 64, 64
15, 120960, Note_on_c, 11, 66, 84
15, 121075, Note_off_c, 11, 66, 64
15, 121080, Note_on_c, 11, 68, 86
15, 121195, Note_off_c, 11, 68, 64
15, 121200, Note_on_c, 11, 66, 88
15, 121320, Note_off_c, 11, 66, 64
15, 121320, Note_on_c, 11, 68, 90
15, 121440, Note_off_c, 11, 68, 64
15, 121440, Note_on_c, 11, 69, 92
15, 121555, Note_off_c, 11, 69, 64
15, 121560, Note_on_c, 11, 75, 94
15, 121675, Note_off_c, 11, 75, 64
15, 121680, Note_on_c, 11, 66, 96
15, 121800, Note_off_c, 11, 66, 64
15, 121800, Note_on_c, 11, 68, 98
15, 121920, Note_off_c, 11, 68, 64
15, 121920, Note_on_c, 11, 69, 100
15, 122035, Note_off_c, 11, 69, 64
15, 122040, Note_on_c, 11, 75, 102
15, 122155, Note_off_c, 11, 75, 64
15, 122160, Note_on_c, 11, 66, 104
15, 122280, Note_off_c, 11, 66, 64
15, 122280, Note_on_c, 11, 68, 106
15, 122400, Note_off_c, 11, 68, 64
15, 122400, Note_on_c, 11, 69, 108
15, 122515, Note_off_c, 11, 69, 64
15, 122520, Note_on_c, 11, 78, 108
15, 122635, Note_off_c, 11, 78, 64
15, 122640, Note_on_c, 11, 75, 108
15, 122755, Note_off_c, 11, 75, 64
15, 122760, Note_on_c, 11, 76, 108
15, 122875, Note_off_c, 11, 76, 64
15, 122880, Note_on_c, 11, 78, 108
15, 122995, Note_off_c, 11, 78, 64
15, 123000, Note_on_c, 11, 75, 108
15, 123115, Note_off_c, 11, 75, 64
15, 123120, Note_on_c, 11, 72, 108
15, 123240, Note_off_c, 11, 72, 64
15, 123240, Note_on_c, 11, 73, 108
15, 123360, Note_off_c, 11, 73, 64
15, 123360, Note_on_c, 11, 75, 108
15, 123475, Note_off_c, 11, 75, 64
15, 123480, Note_on_c, 11, 72, 108
15, 123595, Note_off_c, 11, 72, 64
15, 123600, Note_on_c, 11, 68, 108
15, 123715, Note_off_c, 11, 68, 64
15, 123720, Note_on_c, 11, 66, 108
15, 123835, Note_off_c, 11, 66, 64
15, 123840, Note_on_c, 11, 65, 108
15, 123955, Note_off_c, 11, 65, 64
15, 123960, Note_on_c, 11, 83, 108
15, 124075, Note_off_c, 11, 83, 64
15, 124080, Note_on_c, 11, 80, 108
15, 124200, Note_off_c, 11, 80, 64
15, 124200, Note_on_c, 11, 81, 108
15, 124320, Note_off_c, 11, 81, 64
15, 124320, Note_on_c, 11, 83, 108
15, 124435, Note_off_c, 11, 83, 64
15, 124440, Note_on_c, 11, 80, 108
15, 124555, Note_off_c, 11, 80, 64
15, 124560, Note_on_c, 11, 77, 108
15, 124680, Note_off_c, 11, 77, 64
15, 124680, Note_on_c, 11, 78, 108
15, 124800, Note_off_c, 11, 78, 64
15, 124800, Note_on_c, 11, 80, 108
15, 124915, Note_off_c, 11, 80, 64
15, 124920, Note_on_c, 11, 77, 108
15, 125035, Note_off_c, 11, 77, 64
15, 125040, Note_on_c, 11, 73, 108
15, 125155, Note_off_c, 11, 73, 64
15, 125160, Note_on_c, 11, 71, 108
15, 125275, Note_off_c, 11, 71, 64
15, 125280, Note_on_c, 11, 69, 108
15, 125395, Note_off_c, 11, 69, 64
15, 125400, Note_on_c, 11, 85, 108
15, 125515, Note_off_c, 11, 85, 64
15, 125520, Note_on_c, 11, 81, 108
15, 125640, Note_off_c, 11, 81, 64
15, 125640, Note_on_c, 11, 83, 108
15, 125760, Note_off_c, 11, 83, 64
15, 125760, Note_on_c, 11, 85, 108
15, 125875, Note_off_c, 11, 85, 64
15, 125880, Note_on_c, 11, 81, 108
15, 125995, Note_off_c, 11, 81, 64
15, 126000, Note_on_c, 11, 78, 108
15, 126120, Note_off_c, 11, 78, 64
15, 126120, Note_on_c, 11, 80, 108
15, 126240, Note_off_c, 11, 80, 64
15, 126240, Note_on_c, 11, 81, 108
15, 126355, Note_off_c, 11, 81, 64
15, 126360, Note_on_c, 11, 78, 108
15, 126475, Note_off_c, 11, 78, 64
15, 126480, Note_on_c, 11, 74, 108
15, 126595, Note_off_c, 11, 74, 64
15, 126600, Note_on_c, 11, 73, 108
15, 126715, Note_off_c, 11, 73, 64
15, 126720, Note_on_c, 11, 71, 108
15, 126835, Note_off_c, 11, 71, 64
15, 126840, Note_on_c, 11, 86, 108
15, 126955, Note_off_c, 11, 86, 64
15, 126960, Note_on_c, 11, 83, 108
15, 127080, Note_off_c, 11, 83, 64
15, 127080, Note_on_c, 11, 85, 108
15, 127200, Note_off_c, 11, 85, 64
15, 127200, Note_on_c, 11, 86, 108
15, 127315, Note_off_c, 11, 86, 64
15, 127320, Note_on_c, 11, 83, 108
15, 127435, Note_off_c, 11, 83, 64
15, 127440, Note_on_c, 11, 80, 108
15, 127560, Note_off_c, 11, 80, 64
15, 127560, Note_on_c, 11, 81, 108
15, 127680, Note_off_c, 11, 81, 64
15, 127680, Note_on_c, 11, 83, 108
15, 127795, Note_off_c, 11, 83, 64
15, 127800, Note_on_c, 11, 80, 108
15, 127915, Note_off_c, 11, 80, 64
15, 127920, Note_on_c, 11, 77, 108
15, 128035, Note_off_c, 11, 77, 64
15, 128040, Note_on_c, 11, 80, 108
15, 128155, Note_off_c, 11, 80, 64
15, 128160, Note_on_c, 11, 73, 60
15, 128280, Note_off_c, 11, 73, 64
15, 128280, Note_on_c, 11, 75, 60
15, 128400, Note_off_c, 11, 75, 64
15, 128400, Note_on_c, 11, 73, 60
15, 128515, Note_off_c, 11, 73, 64
15, 128520, Note_on_c, 11, 75, 60
15, 128635, Note_off_c, 11, 75, 64
15, 128640, Note_on_c, 11, 77, 60
15, 128760, Note_off_c, 11, 77, 64
15, 128760, Note_on_c, 11, 80, 60
15, 128875, Note_off_c, 11, 80, 64
15, 128880, Note_on_c, 11, 73, 60
15, 128995, Note_off_c, 11, 73, 64
15, 129000, Note_on_c, 11, 75, 60
15, 129115, Note_off_c, 11, 75, 64
15, 129120, Note_on_c, 11, 77, 60
15, 129240, Note_off_c, 11, 77, 64
15, 129240, Note_on_c, 11, 80, 60
15, 129355, Note_off_c, 11, 80, 64
15, 129360, Note_on_c, 11, 73, 60
15, 129475, Note_off_c, 11, 73, 64
15, 129480, Note_on_c, 11, 75, 60
15, 129595, Note_off_c, 11, 75, 64
15, 129600, Note_on_c, 11, 77, 60
15, 129720, Note_off_c, 11, 77, 64
15, 129720, Note_on_c, 11, 78, 61
15, 129840, Note_off_c, 11, 78, 64
15, 129840, Note_on_c, 11, 77, 62
15, 129955, Note_off_c, 11, 77, 64
15, 129960, Note_on_c, 11, 78, 63
15, 130075, Note_off_c, 11, 78, 64
15, 130080, Note_on_c, 11, 80, 64
15, 130200, Note_off_c, 11, 80, 64
15, 130200, Note_on_c, 11, 83, 65
15, 130315, Note_off_c, 11, 83, 64
15, 130320, Note_on_c, 11, 77, 66
15, 130435, Note_off_c, 11, 77, 64
15, 130440, Note_on_c, 11, 78, 67
15, 130555, Note_off_c, 11, 78, 64
15, 130560, Note_on_c, 11, 80, 68
15, 130680, Note_off_c, 11, 80, 64
15, 130680, Note_on_c, 11, 83, 69
15, 130795, Note_off_c, 11, 83, 64
15, 130800, Note_on_c, 11, 77, 70
15, 130915, Note_off_c, 11, 77, 64
15, 130920, Note_on_c, 11, 78, 71
15, 131035, Note_off_c, 11, 78, 64
15, 131040, Note_on_c, 11, 80, 72
15, 131160, Note_off_c, 11, 80, 64
15, 131160, Note_on_c, 11, 81, 73
15, 131280, Note_off_c, 11, 81, 64
15, 131280, Note_on_c, 11, 80, 74
15, 131395, Note_off_c, 11, 80, 64
15, 131400, Note_on_c, 11, 81, 75
15, 131515, Note_off_c, 11, 81, 64
15, 131520, Note_on_c, 11, 83, 76
15, 131640, Note_off_c, 11, 83, 64
15, 131640, Note_on_c, 11, 86, 78
15, 131755, Note_off_c, 11, 86, 64
15, 131760, Note_on_c, 11, 80, 80
15, 131875, Note_off_c, 11, 80, 64
15, 131880, Note_on_c, 11, 81, 82
15, 131995, Note_off_c, 11, 81, 64
15, 132000, Note_on_c, 11, 83, 84
15, 132120, Note_off_c, 11, 83, 64
15, 132120, Note_on_c, 11, 86, 86
15, 132235, Note_off_c, 11, 86, 64
15, 132240, Note_on_c, 11, 80, 88
15, 132355, Note_off_c, 11, 80, 64
15, 132360, Note_on_c, 11, 81, 90
15, 132475, Note_off_c, 11, 81, 64
15, 132480, Note_on_c, 11, 83, 92
15, 132600, Note_off_c, 11, 83, 64
15, 132600, Note_on_c, 11, 86, 92
15, 132720, Note_off_c, 11, 86, 64
15, 132720, Note_on_c, 11, 83, 92
15, 132835, Note_off_c, 11, 83, 64
15, 132840, Note_on_c, 11, 80, 92
15, 132955, Note_off_c, 11, 80, 64
15, 132960, Note_on_c, 11, 77, 92
15, 133075, Note_off_c, 11, 77, 64
15, 133080, Note_on_c, 11, 83, 92
15, 133195, Note_off_c, 11, 83, 64
15, 133200, Note_on_c, 11, 80, 92
15, 133315, Note_off_c, 11, 80, 64
15, 133320, Note_on_c, 11, 77, 92
15, 133435, Note_off_c, 11, 77, 64
15, 133440, Note_on_c, 11, 73, 92
15, 133555, Note_off_c, 11, 73, 64
15, 133560, Note_on_c, 11, 83, 92
15, 133680, Note_off_c, 11, 83, 64
15, 133680, Note_on_c, 11, 81, 92
15, 133800, Note_off_c, 11, 81, 64
15, 133800, Note_on_c, 11, 80, 92
15, 133915, Note_off_c, 11, 80, 64
15, 133920, Note_on_c, 11, 78, 92
15, 134040, Note_off_c, 11, 78, 64
15, 134040, Note_on_c, 11, 80, 92
15, 134160, Note_off_c, 11, 80, 64
15, 134160, Note_on_c, 11, 81, 92
15, 134275, Note_off_c, 11, 81, 64
15, 134280, Note_on_c, 11, 78, 92
15, 134395, Note_off_c, 11, 78, 64
15, 134400, Note_on_c, 11, 71, 92
15, 134515, Note_off_c, 11, 71, 64
15, 134520, Note_on_c, 11, 81, 92
15, 134640, Note_off_c, 11, 81, 64
15, 134640, Note_on_c, 11, 80, 92
15, 134760, Note_off_c, 11, 80, 64
15, 134760, Note_on_c, 11, 78, 92
15, 134875, Note_off_c, 11, 78, 64
15, 134880, Note_on_c, 11, 73, 92
15, 134995, Note_off_c, 11, 73, 64
15, 135000, Note_on_c, 11, 80, 92
15, 135120, Note_off_c, 11, 80, 64
15, 135120, Note_on_c, 11, 78, 92
15, 135240, Note_off_c, 11, 78, 64
15, 135240, Note_on_c, 11, 77, 92
15, 135355, Note_off_c, 11, 77, 64
15, 135360, Note_on_c, 11, 74, 75
15, 135480, Note_off_c, 11, 74, 64
15, 135480, Note_on_c, 11, 76, 75
15, 135600, Note_off_c, 11, 76, 64
15, 135600, Note_on_c, 11, 78, 75
15, 135715, Note_off_c, 11, 78, 64
15, 135720, Note_on_c, 11, 74, 75
15, 135835, Note_off_c, 11, 74, 64
15, 135840, Note_on_c, 11, 68, 75
15, 135955, Note_off_c, 11, 68, 64
15, 135960, Note_on_c, 11, 78, 75
15, 136080, Note_off_c, 11, 78, 64
15, 136080, Note_on_c, 11, 76, 75
15, 136200, Note_off_c, 11, 76, 64
15, 136200, Note_on_c, 11, 74, 75
15, 136315, Note_off_c, 11, 74, 64
15, 136320, Note_on_c, 11, 70, 75
15, 136435, Note_off_c, 11, 70, 64
15, 136440, Note_on_c, 11, 76, 75
15, 136560, Note_off_c, 11, 76, 64
15, 136560, Note_on_c, 11, 74, 75
15, 136680, Note_off_c, 11, 74, 64
15, 136680, Note_on_c, 11, 73, 75
15, 136795, Note_off_c, 11, 73, 64
15, 136800, Note_on_c, 11, 71, 75
15, 136920, Note_off_c, 11, 71, 64
15, 136920, Note_on_c, 11, 73, 75
15, 137040, Note_off_c, 11, 73, 64
15, 137040, Note_on_c, 11, 74, 75
15, 137155, Note_off_c, 11, 74, 64
15, 137160, Note_on_c, 11, 71, 75
15, 137275, Note_off_c, 11, 71, 64
15, 137280, Note_on_c, 11, 65, 75
15, 137395, Note_off_c, 11, 65, 64
15, 137400, Note_on_c, 11, 74, 75
15, 137520, Note_off_c, 11, 74, 64
15, 137520, Note_on_c, 11, 73, 75
15, 137640, Note_off_c, 11, 73, 64
15, 137640, Note_on_c, 11, 71, 75
15, 137755, Note_off_c, 11, 71, 64
15, 137760, Note_on_c, 11, 66, 75
15, 137875, Note_off_c, 11, 66, 64
15, 137880, Note_on_c, 11, 73, 75
15, 138000, Note_off_c, 11, 73, 64
15, 138000, Note_on_c, 11, 71, 75
15, 138120, Note_off_c, 11, 71, 64
15, 138120, Note_on_c, 11, 69, 75
15, 138235, Note_off_c, 11, 69, 64
15, 138240, Note_on_c, 11, 68, 60
15, 138360, Note_off_c, 11, 68, 64
15, 138360, Note_on_c, 11, 69, 60
15, 138480, Note_off_c, 11, 69, 64
15, 138480, Note_on_c, 11, 71, 60
15, 138595, Note_off_c, 11, 71, 64
15, 138600, Note_on_c, 11, 69, 60
15, 138715, Note_off_c, 11, 69, 64
15, 138720, Note_on_c, 11, 68, 60
15, 138835, Note_off_c, 11, 68, 64
15, 138840, Note_on_c, 11, 71, 60
15, 138960, Note_off_c, 11, 71, 64
15, 138960, Note_on_c, 11, 69, 60
15, 139075, Note_off_c, 11, 69, 64
15, 139080, Note_on_c, 11, 71, 60
15, 139200, Note_off_c, 11, 71, 64
15, 139200, Note_on_c, 11, 68, 60
15, 139315, Note_off_c, 11, 68, 64
15, 139320, Note_on_c, 11, 71, 60
15, 139440, Note_off_c, 11, 71, 64
15, 139440, Note_on_c, 11, 66, 60
15, 139555, Note_off_c, 11, 66, 64
15, 139560, Note_on_c, 11, 71, 60
15, 139675, Note_off_c, 11, 71, 64
15, 139680, Note_on_c, 11, 65, 60
15, 139800, Note_off_c, 11, 65, 64
15, 139800, Note_on_c, 11, 66, 60
15, 139920, Note_off_c, 11, 66, 64
15, 139920, Note_on_c, 11, 68, 60
15, 140035, Note_off_c, 11, 68, 64
15, 140040, Note_on_c, 11, 69, 60
15, 140155, Note_off_c, 11, 69, 64
15, 140160, Note_on_c, 11, 71, 60
15, 140280, Note_off_c, 11, 71, 64
15, 140280, Note_on_c, 11, 65, 60
15, 140395, Note_off_c, 11, 65, 64
15, 140400, Note_on_c, 11, 74, 60
15, 140520, Note_off_c, 11, 74, 64
15, 140520, Note_on_c, 11, 65, 60
15, 140635, Note_off_c, 11, 65, 64
15, 140640, Note_on_c, 11, 73, 60
15, 140760, Note_off_c, 11, 73, 64
15, 140760, Note_on_c, 11, 65, 60
15, 140875, Note_off_c, 11, 65, 64
15, 140880, Note_on_c, 11, 71, 60
15, 141000, Note_off_c, 11, 71, 64
15, 141000, Note_on_c, 11, 65, 60
15, 141115, Note_off_c, 11, 65, 64
15, 141120, Note_on_c, 11, 66, 60
15, 141240, Note_off_c, 11, 66, 64
15, 141240, Note_on_c, 11, 69, 60
15, 141360, Note_off_c, 11, 69, 64
15, 141360, Note_on_c, 11, 66, 60
15, 141440, Note_off_c, 11, 66, 64
15, 141480, Note_on_c, 11, 61, 60
15, 141560, Note_off_c, 11, 61, 64
15, 141600, Note_on_c, 11, 57, 60
15, 141680, Note_off_c, 11, 57, 64
15, 141720, Note_on_c, 11, 61, 60
15, 141800, Note_off_c, 11, 61, 64
15, 141840, Note_on_c, 11, 66, 60
15, 141920, Note_off_c, 11, 66, 64
15, 141960, Note_on_c, 11, 61, 60
15, 142040, Note_off_c, 11, 61, 64
15, 142080, Note_on_c, 11, 69, 60
15, 142160, Note_off_c, 11, 69, 64
15, 142200, Note_on_c, 11, 61, 60
15, 142280, Note_off_c, 11, 61, 64
15, 142320, Note_on_c, 11, 66, 60
15, 142400, Note_off_c, 11, 66, 64
15, 142440, Note_on_c, 11, 61, 60
15, 142520, Note_off_c, 11, 61, 64
15, 142560, Note_on_c, 11, 65, 60
15, 142680, Note_off_c, 11, 65, 64
15, 142680, Note_on_c, 11, 68, 61
15, 142800, Note_off_c, 11, 68, 64
15, 142800, Note_on_c, 11, 65, 62
15, 142880, Note_off_c, 11, 65, 64
15, 142920, Note_on_c, 11, 61, 63
15, 143000, Note_off_c, 11, 61, 64
15, 143040, Note_on_c, 11, 65, 64
15, 143120, Note_off_c, 11, 65, 64
15, 143160, Note_on_c, 11, 68, 65
15, 143240, Note_off_c, 11, 68, 64
15, 143280, Note_on_c, 11, 73, 66
15, 143360, Note_off_c, 11, 73, 64
15, 143400, Note_on_c, 11, 68, 67
15, 143480, Note_off_c, 11, 68, 64
15, 143520, Note_on_c, 11, 77, 68
15, 143600, Note_off_c, 11, 77, 64
15, 143640, Note_on_c, 11, 73, 70
15, 143720, Note_off_c, 11, 73, 64
15, 143760, Note_on_c, 11, 80, 72
15, 143840, Note_off_c, 11, 80, 64
15, 143880, Note_on_c, 11, 71, 74
15, 143960, Note_off_c, 11, 71, 64
15, 144000, Note_on_c, 11, 69, 76
15, 144120, Note_off_c, 11, 69, 64
15, 144120, Note_on_c, 11, 73, 78
15, 144240, Note_off_c, 11, 73, 64
15, 144240, Note_on_c, 11, 69, 80
15, 144320, Note_off_c, 11, 69, 64
15, 144360, Note_on_c, 11, 66, 82
15, 144440, Note_off_c, 11, 66, 64
15, 144480, Note_on_c, 11, 69, 84
15, 144560, Note_off_c, 11, 69, 64
15, 144600, Note_on_c, 11, 73, 86
15, 144680, Note_off_c, 11, 73, 64
15, 144720, Note_on_c, 11, 78, 88
15, 144800, Note_off_c, 11, 78, 64
15, 144840, Note_on_c, 11, 73, 90
15, 144920, Note_off_c, 11, 73, 64
15, 144960, Note_on_c, 11, 81, 92
15, 145040, Note_off_c, 11, 81, 64
15, 145080, Note_on_c, 11, 78, 94
15, 145160, Note_off_c, 11, 78, 64
15, 145200, Note_on_c, 11, 85, 96
15, 145280, Note_off_c, 11, 85, 64
15, 145320, Note_on_c, 11, 78, 98
15, 145400, Note_off_c, 11, 78, 64
15, 145440, Note_on_c, 11, 77, 100
15, 145560, Note_off_c, 11, 77, 64
15, 145560, Note_on_c, 11, 80, 102
15, 145680, Note_off_c, 11, 80, 64
15, 145680, Note_on_c, 11, 77, 104
15, 145795, Note_off_c, 11, 77, 64
15, 145800, Note_on_c, 11, 73, 106
15, 145915, Note_off_c, 11, 73, 64
15, 145920, Note_on_c, 11, 85, 108
15, 146040, Note_off_c, 11, 85, 64
15, 146040, Note_on_c, 11, 84, 108
15, 146160, Note_off_c, 11, 84, 64
15, 146160, Note_on_c, 11, 85, 108
15, 146275, Note_off_c, 11, 85, 64
15, 146280, Note_on_c, 11, 84, 108
15, 146395, Note_off_c, 11, 84, 64
15, 146400, Note_on_c, 11, 85, 108
15, 146515, Note_off_c, 11, 85, 64
15, 146520, Note_on_c, 11, 80, 108
15, 146635, Note_off_c, 11, 80, 64
15, 146640, Note_on_c, 11, 81, 108
15, 146755, Note_off_c, 11, 81, 64
15, 146760, Note_on_c, 11, 78, 108
15, 146875, Note_off_c, 11, 78, 64
15, 146880, Note_on_c, 11, 77, 108
15, 147000, Note_off_c, 11, 77, 64
15, 147000, Note_on_c, 11, 80, 108
15, 147115, Note_off_c, 11, 80, 64
15, 147120, Note_on_c, 11, 77, 108
15, 147235, Note_off_c, 11, 77, 64
15, 147240, Note_on_c, 11, 73, 108
15, 147355, Note_off_c, 11, 73, 64
15, 147360, Note_on_c, 11, 83, 108
15, 147480, Note_off_c, 11, 83, 64
15, 147480, Note_on_c, 11, 82, 108
15, 147600, Note_off_c, 11, 82, 64
15, 147600, Note_on_c, 11, 83, 108
15, 147715, Note_off_c, 11, 83, 64
15, 147720, Note_on_c, 11, 82, 108
15, 147835, Note_off_c, 11, 82, 64
15, 147840, Note_on_c, 11, 83, 108
15, 147955, Note_off_c, 11, 83, 64
15, 147960, Note_on_c, 11, 80, 108
15, 148075, Note_off_c, 11, 80, 64
15, 148080, Note_on_c, 11, 81, 108
15, 148195, Note_off_c, 11, 81, 64
15, 148200, Note_on_c, 11, 78, 108
15, 148315, Note_off_c, 11, 78, 64
15, 148320, Note_on_c, 11, 77, 108
15, 148440, Note_off_c, 11, 77, 64
15, 148440, Note_on_c, 11, 80, 108
15, 148555, Note_off_c, 11, 80, 64
15, 148560, Note_on_c, 11, 77, 108
15, 148675, Note_off_c, 11, 77, 64
15, 148680, Note_on_c, 11, 73, 108
15, 148795, Note_off_c, 11, 73, 64
15, 148800, Note_on_c, 11, 74, 108
15, 148920, Note_off_c, 11, 74, 64
15, 148920, Note_on_c, 11, 73, 108
15, 149040, Note_off_c, 11, 73, 64
15, 149040, Note_on_c, 11, 74, 108
15, 149155, Note_off_c, 11, 74, 64
15, 149160, Note_on_c, 11, 73, 108
15, 149275, Note_off_c, 11, 73, 64
15, 149280, Note_on_c, 11, 74, 108
15, 149395, Note_off_c, 11, 74, 64
15, 149400, Note_on_c, 11, 68, 108
15, 149515, Note_off_c, 11, 68, 64
15, 149520, Note_on_c, 11, 69, 108
15, 149635, Note_off_c, 11, 69, 64
15, 149640, Note_on_c, 11, 66, 108
15, 149755, Note_off_c, 11, 66, 64
15, 149760, Note_on_c, 11, 65, 108
15, 149880, Note_off_c, 11, 65, 64
15, 149880, Note_on_c, 11, 68, 108
15, 150000, Note_off_c, 11, 68, 64
15, 150000, Note_on_c, 11, 73, 108
15, 150120, Note_off_c, 11, 73, 64
15, 150120, Note_on_c, 11, 83, 108
15, 150235, Note_off_c, 11, 83, 64
15, 150240, Note_on_c, 11, 83, 108
15, 150355, Note_off_c, 11, 83, 64
15, 150360, Note_on_c, 11, 80, 108
15, 150475, Note_off_c, 11, 80, 64
15, 150480, Note_on_c, 11, 81, 108
15, 150595, Note_off_c, 11, 81, 64
15, 150600, Note_on_c, 11, 78, 108
15, 150720, Note_off_c, 11, 78, 64
15, 150720, Note_on_c, 11, 77, 108
15, 150840, Note_off_c, 11, 77, 64
15, 150840, Note_on_c, 11, 80, 108
15, 150955, Note_off_c, 11, 80, 64
15, 150960, Note_on_c, 11, 73, 108
15, 151080, Note_off_c, 11, 73, 64
15, 151080, Note_on_c, 11, 71, 108
15, 151195, Note_off_c, 11, 71, 64
15, 151200, Note_on_c, 11, 69, 108
15, 151320, Note_off_c, 11, 69, 64
15, 151320, Note_on_c, 11, 73, 108
15, 151440, Note_off_c, 11, 73, 64
15, 151440, Note_on_c, 11, 78, 108
15, 151560, Note_off_c, 11, 78, 64
15, 151560, Note_on_c, 11, 85, 108
15, 151675, Note_off_c, 11, 85, 64
15, 151680, Note_on_c, 11, 85, 108
15, 151795, Note_off_c, 11, 85, 64
15, 151800, Note_on_c, 11, 81, 108
15, 151915, Note_off_c, 11, 81, 64
15, 151920, Note_on_c, 11, 83, 108
15, 152035, Note_off_c, 11, 83, 64
15, 152040, Note_on_c, 11, 80, 108
15, 152160, Note_off_c, 11, 80, 64
15, 152160, Note_on_c, 11, 78, 108
15, 152280, Note_off_c, 11, 78, 64
15, 152280, Note_on_c, 11, 81, 108
15, 152395, Note_off_c, 11, 81, 64
15, 152400, Note_on_c, 11, 74, 108
15, 152520, Note_off_c, 11, 74, 64
15, 152520, Note_on_c, 11, 73, 108
15, 152635, Note_off_c, 11, 73, 64
15, 152640, Note_on_c, 11, 71, 92
15, 152760, Note_off_c, 11, 71, 64
15, 152760, Note_on_c, 11, 74, 92
15, 152880, Note_off_c, 11, 74, 64
15, 152880, Note_on_c, 11, 67, 92
15, 152995, Note_off_c, 11, 67, 64
15, 153000, Note_on_c, 11, 66, 92
15, 153115, Note_off_c, 11, 66, 64
15, 153120, Note_on_c, 11, 65, 92
15, 153240, Note_off_c, 11, 65, 64
15, 153240, Note_on_c, 11, 68, 92
15, 153355, Note_off_c, 11, 68, 64
15, 153360, Note_on_c, 11, 61, 92
15, 153475, Note_off_c, 11, 61, 64
15, 153480, Note_on_c, 11, 59, 92
15, 153595, Note_off_c, 11, 59, 64
15, 153600, Note_on_c, 11, 57, 92
15, 153720, Note_off_c, 11, 57, 64
15, 153720, Note_on_c, 11, 61, 92
15, 153835, Note_off_c, 11, 61, 64
15, 153840, Note_on_c, 11, 66, 92
15, 153955, Note_off_c, 11, 66, 64
15, 153960, Note_on_c, 11, 68, 92
15, 154075, Note_off_c, 11, 68, 64
15, 154080, Note_on_c, 11, 69, 75
15, 154200, Note_off_c, 11, 69, 64
15, 154200, Note_on_c, 11, 66, 75
15, 154315, Note_off_c, 11, 66, 64
15, 154320, Note_on_c, 11, 71, 75
15, 154440, Note_off_c, 11, 71, 64
15, 154440, Note_on_c, 11, 66, 75
15, 154555, Note_off_c, 11, 66, 64
15, 154560, Note_on_c, 11, 73, 75
15, 154680, Note_off_c, 11, 73, 64
15, 154680, Note_on_c, 11, 66, 75
15, 154795, Note_off_c, 11, 66, 64
15, 154800, Note_on_c, 11, 74, 75
15, 154920, Note_off_c, 11, 74, 64
15, 154920, Note_on_c, 11, 66, 75
15, 155035, Note_off_c, 11, 66, 64
15, 155040, Note_on_c, 11, 61, 75
15, 155160, Note_off_c, 11, 61, 64
15, 155160, Note_on_c, 11, 66, 75
15, 155280, Note_off_c, 11, 66, 64
15, 155280, Note_on_c, 11, 68, 75
15, 155360, Note_off_c, 11, 68, 64
15, 155400, Note_on_c, 11, 65, 75
15, 155480, Note_off_c, 11, 65, 64
15, 155520, Note_on_c, 11, 66, 60
15, 155600, Note_off_c, 11, 66, 64
15, 155640, Note_on_c, 11, 69, 60
15, 155755, Note_off_c, 11, 69, 64
15, 155760, Note_on_c, 11, 68, 60
15, 155880, Note_off_c, 11, 68, 64
15, 155880, Note_on_c, 11, 69, 60
15, 155995, Note_off_c, 11, 69, 64
15, 156000, Note_on_c, 11, 69, 60
15, 156120, Note_off_c, 11, 69, 64
15, 156120, Note_on_c, 11, 69, 60
15, 156235, Note_off_c, 11, 69, 64
15, 156240, Note_on_c, 11, 68, 60
15, 156360, Note_off_c, 11, 68, 64
15, 156360, Note_on_c, 11, 69, 60
15, 156475, Note_off_c, 11, 69, 64
15, 156480, Note_on_c, 11, 66, 60
15, 156600, Note_off_c, 11, 66, 64
15, 156600, Note_on_c, 11, 69, 60
15, 156715, Note_off_c, 11, 69, 64
15, 156720, Note_on_c, 11, 64, 60
15, 156840, Note_off_c, 11, 64, 64
15, 156840, Note_on_c, 11, 69, 60
15, 156955, Note_off_c, 11, 69, 64
15, 156960, Note_on_c, 11, 63, 60
15, 157080, Note_off_c, 11, 63, 64
15, 157080, Note_on_c, 11, 69, 60
15, 157195, Note_off_c, 11, 69, 64
15, 157200, Note_on_c, 11, 64, 60
15, 157320, Note_off_c, 11, 64, 64
15, 157320, Note_on_c, 11, 69, 60
15, 157435, Note_off_c, 11, 69, 64
15, 157440, Note_on_c, 11, 66, 60
15, 157560, Note_off_c, 11, 66, 64
15, 157560, Note_on_c, 11, 69, 60
15, 157675, Note_off_c, 11, 69, 64
15, 157680, Note_on_c, 11, 68, 60
15, 157800, Note_off_c, 11, 68, 64
15, 157800, Note_on_c, 11, 69, 60
15, 157915, Note_off_c, 11, 69, 64
15, 157920, Note_on_c, 11, 69, 60
15, 158040, Note_off_c, 11, 69, 64
15, 158040, Note_on_c, 11, 69, 60
15, 158155, Note_off_c, 11, 69, 64
15, 158160, Note_on_c, 11, 66, 60
15, 158280, Note_off_c, 11, 66, 64
15, 158280, Note_on_c, 11, 69, 60
15, 158395, Note_off_c, 11, 69, 64
15, 158400, Note_on_c, 11, 68, 60
15, 158520, Note_off_c, 11, 68, 64
15, 158520, Note_on_c, 11, 69, 60
15, 158640, Note_off_c, 11, 69, 64
15, 158640, Note_on_c, 11, 68, 60
15, 158755, Note_off_c, 11, 68, 64
15, 158760, Note_on_c, 11, 66, 60
15, 158875, Note_off_c, 11, 66, 64
15, 158880, Note_on_c, 11, 64, 60
15, 159000, Note_off_c, 11, 64, 64
15, 159000, Note_on_c, 11, 76, 60
15, 159115, Note_off_c, 11, 76, 64
15, 159120, Note_on_c, 11, 75, 60
15, 159240, Note_off_c, 11, 75, 64
15, 159240, Note_on_c, 11, 76, 60
15, 159355, Note_off_c, 11, 76, 64
15, 159360, Note_on_c, 11, 73, 60
15, 159480, Note_off_c, 11, 73, 64
15, 159480, Note_on_c, 11, 76, 60
15, 159595, Note_off_c, 11, 76, 64
15, 159600, Note_on_c, 11, 71, 60
15, 159720, Note_off_c, 11, 71, 64
15, 159720, Note_on_c, 11, 76, 60
15, 159835, Note_off_c, 11, 76, 64
15, 159840, Note_on_c, 11, 70, 60
15, 159960, Note_off_c, 11, 70, 64
15, 159960, Note_on_c, 11, 76, 60
15, 160075, Note_off_c, 11, 76, 64
15, 160080, Note_on_c, 11, 71, 60
15, 160200, Note_off_c, 11, 71, 64
15, 160200, Note_on_c, 11, 76, 60
15, 160315, Note_off_c, 11, 76, 64
15, 160320, Note_on_c, 11, 73, 60
15, 160440, Note_off_c, 11, 73, 64
15, 160440, Note_on_c, 11, 76, 60
15, 160555, Note_off_c, 11, 76, 64
15, 160560, Note_on_c, 11, 75, 60
15, 160680, Note_off_c, 11, 75, 64
15, 160680, Note_on_c, 11, 76, 60
15, 160795, Note_off_c, 11, 76, 64
15, 160800, Note_on_c, 11, 76, 60
15, 160920, Note_off_c, 11, 76, 64
15, 160920, Note_on_c, 11, 76, 60
15, 161035, Note_off_c, 11, 76, 64
15, 161040, Note_on_c, 11, 73, 60
15, 161160, Note_off_c, 11, 73, 64
15, 161160, Note_on_c, 11, 76, 60
15, 161275, Note_off_c, 11, 76, 64
15, 161280, Note_on_c, 11, 75, 60
15, 161400, Note_off_c, 11, 75, 64
15, 161400, Note_on_c, 11, 76, 64
15, 161520, Note_off_c, 11, 76, 64
15, 161520, Note_on_c, 11, 75, 68
15, 161600, Note_off_c, 11, 75, 64
15, 161640, Note_on_c, 11, 73, 72
15, 161720, Note_off_c, 11, 73, 64
15, 161760, Note_on_c, 11, 71, 76
15, 161840, Note_off_c, 11, 71, 64
15, 161880, Note_on_c, 11, 73, 80
15, 161960, Note_off_c, 11, 73, 64
15, 162000, Note_on_c, 11, 75, 84
15, 162080, Note_off_c, 11, 75, 64
15, 162120, Note_on_c, 11, 76, 88
15, 162200, Note_off_c, 11, 76, 64
15, 162240, Note_on_c, 11, 78, 92
15, 162320, Note_off_c, 11, 78, 64
15, 162360, Note_on_c, 11, 80, 96
15, 162440, Note_off_c, 11, 80, 64
15, 162480, Note_on_c, 11, 81, 100
15, 162560, Note_off_c, 11, 81, 64
15, 162600, Note_on_c, 11, 78, 104
15, 162680, Note_off_c, 11, 78, 64
15, 162720, Note_on_c, 11, 83, 108
15, 162835, Note_off_c, 11, 83, 64
15, 162840, Note_on_c, 11, 71, 60
15, 162960, Note_off_c, 11, 71, 64
15, 162960, Note_on_c, 11, 69, 60
15, 163075, Note_off_c, 11, 69, 64
15, 163080, Note_on_c, 11, 71, 60
15, 163200, Note_off_c, 11, 71, 64
15, 163200, Note_on_c, 11, 68, 60
15, 163315, Note_off_c, 11, 68, 64
15, 163320, Note_on_c, 11, 71, 60
15, 163440, Note_off_c, 11, 71, 64
15, 163440, Note_on_c, 11, 66, 60
15, 163555, Note_off_c, 11, 66, 64
15, 163560, Note_on_c, 11, 71, 60
15, 163680, Note_off_c, 11, 71, 64
15, 163680, Note_on_c, 11, 64, 60
15, 163795, Note_off_c, 11, 64, 64
15, 163800, Note_on_c, 11, 71, 60
15, 163920, Note_off_c, 11, 71, 64
15, 163920, Note_on_c, 11, 62, 60
15, 164035, Note_off_c, 11, 62, 64
15, 164040, Note_on_c, 11, 71, 60
15, 164155, Note_off_c, 11, 71, 64
15, 164160, Note_on_c, 11, 61, 60
15, 164280, Note_off_c, 11, 61, 64
15, 164280, Note_on_c, 11, 64, 64
15, 164360, Note_off_c, 11, 64, 64
15, 164400, Note_on_c, 11, 66, 68
15, 164480, Note_off_c, 11, 66, 64
15, 164520, Note_on_c, 11, 68, 72
15, 164600, Note_off_c, 11, 68, 64
15, 164640, Note_on_c, 11, 69, 76
15, 164720, Note_off_c, 11, 69, 64
15, 164760, Note_on_c, 11, 71, 80
15, 164840, Note_off_c, 11, 71, 64
15, 164880, Note_on_c, 11, 73, 84
15, 164960, Note_off_c, 11, 73, 64
15, 165000, Note_on_c, 11, 74, 88
15, 165080, Note_off_c, 11, 74, 64
15, 165120, Note_on_c, 11, 76, 92
15, 165200, Note_off_c, 11, 76, 64
15, 165240, Note_on_c, 11, 78, 96
15, 165320, Note_off_c, 11, 78, 64
15, 165360, Note_on_c, 11, 80, 100
15, 165440, Note_off_c, 11, 80, 64
15, 165480, Note_on_c, 11, 76, 104
15, 165560, Note_off_c, 11, 76, 64
15, 165600, Note_on_c, 11, 81, 108
15, 165715, Note_off_c, 11, 81, 64
15, 165720, Note_on_c, 11, 69, 60
15, 165835, Note_off_c, 11, 69, 64
15, 165840, Note_on_c, 11, 68, 60
15, 165960, Note_off_c, 11, 68, 64
15, 165960, Note_on_c, 11, 69, 60
15, 166075, Note_off_c, 11, 69, 64
15, 166080, Note_on_c, 11, 66, 60
15, 166200, Note_off_c, 11, 66, 64
15, 166200, Note_on_c, 11, 69, 60
15, 166315, Note_off_c, 11, 69, 64
15, 166320, Note_on_c, 11, 64, 60
15, 166440, Note_off_c, 11, 64, 64
15, 166440, Note_on_c, 11, 69, 60
15, 166555, Note_off_c, 11, 69, 64
15, 166560, Note_on_c, 11, 63, 60
15, 166680, Note_off_c, 11, 63, 64
15, 166680, Note_on_c, 11, 69, 60
15, 166795, Note_off_c, 11, 69, 64
15, 166800, Note_on_c, 11, 61, 60
15, 166920, Note_off_c, 11, 61, 64
15, 166920, Note_on_c, 11, 69, 60
15, 167035, Note_off_c, 11, 69, 64
15, 167040, Note_on_c, 11, 59, 60
15, 167160, Note_off_c, 11, 59, 64
15, 167160, Note_on_c, 11, 63, 64
15, 167240, Note_off_c, 11, 63, 64
15, 167280, Note_on_c, 11, 64, 68
15, 167360, Note_off_c, 11, 64, 64
15, 167400, Note_on_c, 11, 66, 72
15, 167480, Note_off_c, 11, 66, 64
15, 167520, Note_on_c, 11, 68, 76
15, 167600, Note_off_c, 11, 68, 64
15, 167640, Note_on_c, 11, 69, 80
15, 167720, Note_off_c, 11, 69, 64
15, 167760, Note_on_c, 11, 71, 84
15, 167840, Note_off_c, 11, 71, 64
15, 167880, Note_on_c, 11, 73, 88
15, 167960, Note_off_c, 11, 73, 64
15, 168000, Note_on_c, 11, 75, 92
15, 168080, Note_off_c, 11, 75, 64
15, 168120, Note_on_c, 11, 76, 96
15, 168200, Note_off_c, 11, 76, 64
15, 168240, Note_on_c, 11, 78, 100
15, 168320, Note_off_c, 11, 78, 64
15, 168360, Note_on_c, 11, 75, 104
15, 168440, Note_off_c, 11, 75, 64
15, 168480, Note_on_c, 11, 80, 108
15, 168595, Note_off_c, 11, 80, 64
15, 168600, Note_on_c, 11, 64, 60
15, 168715, Note_off_c, 11, 64, 64
15, 168720, Note_on_c, 11, 62, 60
15, 168840, Note_off_c, 11, 62, 64
15, 168840, Note_on_c, 11, 64, 60
15, 168955, Note_off_c, 11, 64, 64
15, 168960, Note_on_c, 11, 61, 60
15, 169080, Note_off_c, 11, 61, 64
15, 169080, Note_on_c, 11, 64, 60
15, 169195, Note_off_c, 11, 64, 64
15, 169200, Note_on_c, 11, 59, 60
15, 169320, Note_off_c, 11, 59, 64
15, 169320, Note_on_c, 11, 64, 60
15, 169435, Note_off_c, 11, 64, 64
15, 169440, Note_on_c, 11, 57, 60
15, 169560, Note_off_c, 11, 57, 64
15, 169560, Note_on_c, 11, 64, 60
15, 169675, Note_off_c, 11, 64, 64
15, 169680, Note_on_c, 11, 56, 60
15, 169800, Note_off_c, 11, 56, 64
15, 169800, Note_on_c, 11, 64, 60
15, 169915, Note_off_c, 11, 64, 64
15, 169920, Note_on_c, 11, 57, 60
15, 170040, Note_off_c, 11, 57, 64
15, 170040, Note_on_c, 11, 64, 61
15, 170125, Note_off_c, 11, 64, 64
15, 170160, Note_on_c, 11, 73, 61
15, 170240, Note_off_c, 11, 73, 64
15, 170280, Note_on_c, 11, 71, 62
15, 170360, Note_off_c, 11, 71, 64
15, 170400, Note_on_c, 11, 73, 63
15, 170480, Note_off_c, 11, 73, 64
15, 170520, Note_on_c, 11, 76, 64
15, 170600, Note_off_c, 11, 76, 64
15, 170640, Note_on_c, 11, 81, 65
15, 170760, Note_off_c, 11, 81, 64
15, 170760, Note_on_c, 11, 80, 66
15, 170880, Note_off_c, 11, 80, 64
15, 170880, Note_on_c, 11, 81, 67
15, 170960, Note_off_c, 11, 81, 64
15, 171000, Note_on_c, 11, 78, 68
15, 171080, Note_off_c, 11, 78, 64
15, 171120, Note_on_c, 11, 73, 69
15, 171200, Note_off_c, 11, 73, 64
15, 171240, Note_on_c, 11, 76, 70
15, 171320, Note_off_c, 11, 76, 64
15, 171360, Note_on_c, 11, 59, 71
15, 171480, Note_off_c, 11, 59, 64
15, 171480, Note_on_c, 11, 66, 72
15, 171565, Note_off_c, 11, 66, 64
15, 171600, Note_on_c, 11, 75, 73
15, 171680, Note_off_c, 11, 75, 64
15, 171720, Note_on_c, 11, 73, 74
15, 171800, Note_off_c, 11, 73, 64
15, 171840, Note_on_c, 11, 75, 75
15, 171920, Note_off_c, 11, 75, 64
15, 171960, Note_on_c, 11, 78, 76
15, 172040, Note_off_c, 11, 78, 64
15, 172080, Note_on_c, 11, 81, 77
15, 172200, Note_off_c, 11, 81, 64
15, 172200, Note_on_c, 11, 80, 78
15, 172320, Note_off_c, 11, 80, 64
15, 172320, Note_on_c, 11, 81, 79
15, 172400, Note_off_c, 11, 81, 64
15, 172440, Note_on_c, 11, 78, 80
15, 172520, Note_off_c, 11, 78, 64
15, 172560, Note_on_c, 11, 75, 81
15, 172640, Note_off_c, 11, 75, 64
15, 172680, Note_on_c, 11, 78, 82
15, 172760, Note_off_c, 11, 78, 64
15, 172800, Note_on_c, 11, 59, 83
15, 172920, Note_off_c, 11, 59, 64
15, 172920, Note_on_c, 11, 68, 84
15, 173000, Note_off_c, 11, 68, 64
15, 173040, Note_on_c, 11, 71, 85
15, 173120, Note_off_c, 11, 71, 64
15, 173160, Note_on_c, 11, 69, 86
15, 173240, Note_off_c, 11, 69, 64
15, 173280, Note_on_c, 11, 71, 87
15, 173360, Note_off_c, 11, 71, 64
15, 173400, Note_on_c, 11, 76, 88
15, 173480, Note_off_c, 11, 76, 64
15, 173520, Note_on_c, 11, 80, 89
15, 173640, Note_off_c, 11, 80, 64
15, 173640, Note_on_c, 11, 78, 90
15, 173760, Note_off_c, 11, 78, 64
15, 173760, Note_on_c, 11, 80, 91
15, 173840, Note_off_c, 11, 80, 64
15, 173880, Note_on_c, 11, 76, 92
15, 173960, Note_off_c, 11, 76, 64
15, 174000, Note_on_c, 11, 71, 93
15, 174080, Note_off_c, 11, 71, 64
15, 174120, Note_on_c, 11, 76, 94
15, 174200, Note_off_c, 11, 76, 64
15, 174240, Note_on_c, 11, 59, 95
15, 174360, Note_off_c, 11, 59, 64
15, 174360, Note_on_c, 11, 70, 96
15, 174440, Note_off_c, 11, 70, 64
15, 174480, Note_on_c, 11, 73, 97
15, 174560, Note_off_c, 11, 73, 64
15, 174600, Note_on_c, 11, 71, 98
15, 174680, Note_off_c, 11, 71, 64
15, 174720, Note_on_c, 11, 73, 99
15, 174800, Note_off_c, 11, 73, 64
15, 174840, Note_on_c, 11, 76, 100
15, 174920, Note_off_c, 11, 76, 64
15, 174960, Note_on_c, 11, 82, 101
15, 175080, Note_off_c, 11, 82, 64
15, 175080, Note_on_c, 11, 80, 102
15, 175200, Note_off_c, 11, 80, 64
15, 175200, Note_on_c, 11, 82, 103
15, 175280, Note_off_c, 11, 82, 64
15, 175320, Note_on_c, 11, 76, 104
15, 175400, Note_off_c, 11, 76, 64
15, 175440, Note_on_c, 11, 73, 105
15, 175520, Note_off_c, 11, 73, 64
15, 175560, Note_on_c, 11, 76, 106
15, 175640, Note_off_c, 11, 76, 64
15, 175680, Note_on_c, 11, 75, 108
15, 175795, Note_off_c, 11, 75, 64
15, 175800, Note_on_c, 11, 83, 108
15, 175915, Note_off_c, 11, 83, 64
15, 175920, Note_on_c, 11, 82, 108
15, 176035, Note_off_c, 11, 82, 64
15, 176040, Note_on_c, 11, 80, 108
15, 176155, Note_off_c, 11, 80, 64
15, 176160, Note_on_c, 11, 78, 108
15, 176280, Note_off_c, 11, 78, 64
15, 176280, Note_on_c, 11, 83, 108
15, 176395, Note_off_c, 11, 83, 64
15, 176400, Note_on_c, 11, 78, 108
15, 176515, Note_off_c, 11, 78, 64
15, 176520, Note_on_c, 11, 76, 108
15, 176635, Note_off_c, 11, 76, 64
15, 176640, Note_on_c, 11, 75, 108
15, 176760, Note_off_c, 11, 75, 64
15, 176760, Note_on_c, 11, 78, 108
15, 176875, Note_off_c, 11, 78, 64
15, 176880, Note_on_c, 11, 75, 108
15, 176995, Note_off_c, 11, 75, 64
15, 177000, Note_on_c, 11, 73, 108
15, 177115, Note_off_c, 11, 73, 64
15, 177120, Note_on_c, 11, 71, 108
15, 177235, Note_off_c, 11, 71, 64
15, 177240, Note_on_c, 11, 83, 108
15, 177355, Note_off_c, 11, 83, 64
15, 177360, Note_on_c, 11, 81, 108
15, 177475, Note_off_c, 11, 81, 64
15, 177480, Note_on_c, 11, 80, 108
15, 177595, Note_off_c, 11, 80, 64
15, 177600, Note_on_c, 11, 78, 108
15, 177720, Note_off_c, 11, 78, 64
15, 177720, Note_on_c, 11, 81, 108
15, 177835, Note_off_c, 11, 81, 64
15, 177840, Note_on_c, 11, 78, 108
15, 177955, Note_off_c, 11, 78, 64
15, 177960, Note_on_c, 11, 76, 108
15, 178075, Note_off_c, 11, 76, 64
15, 178080, Note_on_c, 11, 75, 108
15, 178200, Note_off_c, 11, 75, 64
15, 178200, Note_on_c, 11, 78, 108
15, 178315, Note_off_c, 11, 78, 64
15, 178320, Note_on_c, 11, 75, 108
15, 178435, Note_off_c, 11, 75, 64
15, 178440, Note_on_c, 11, 73, 108
15, 178555, Note_off_c, 11, 73, 64
15, 178560, Note_on_c, 11, 71, 108
15, 178675, Note_off_c, 11, 71, 64
15, 178680, Note_on_c, 11, 81, 108
15, 178795, Note_off_c, 11, 81, 64
15, 178800, Note_on_c, 11, 80, 108
15, 178915, Note_off_c, 11, 80, 64
15, 178920, Note_on_c, 11, 78, 108
15, 179035, Note_off_c, 11, 78, 64
15, 179040, Note_on_c, 11, 76, 108
15, 179160, Note_off_c, 11, 76, 64
15, 179160, Note_on_c, 11, 80, 108
15, 179275, Note_off_c, 11, 80, 64
15, 179280, Note_on_c, 11, 76, 108
15, 179395, Note_off_c, 11, 76, 64
15, 179400, Note_on_c, 11, 75, 108
15, 179515, Note_off_c, 11, 75, 64
15, 179520, Note_on_c, 11, 73, 108
15, 179640, Note_off_c, 11, 73, 64
15, 179640, Note_on_c, 11, 76, 108
15, 179755, Note_off_c, 11, 76, 64
15, 179760, Note_on_c, 11, 73, 108
15, 179875, Note_off_c, 11, 73, 64
15, 179880, Note_on_c, 11, 71, 108
15, 179995, Note_off_c, 11, 71, 64
15, 180000, Note_on_c, 11, 69, 108
15, 180115, Note_off_c, 11, 69, 64
15, 180120, Note_on_c, 11, 80, 108
15, 180235, Note_off_c, 11, 80, 64
15, 180240, Note_on_c, 11, 78, 108
15, 180355, Note_off_c, 11, 78, 64
15, 180360, Note_on_c, 11, 76, 108
15, 180475, Note_off_c, 11, 76, 64
15, 180480, Note_on_c, 11, 75, 108
15, 180600, Note_off_c, 11, 75, 64
15, 180600, Note_on_c, 11, 78, 108
15, 180715, Note_off_c, 11, 78, 64
15, 180720, Note_on_c, 11, 75, 108
15, 180835, Note_off_c, 11, 75, 64
15, 180840, Note_on_c, 11, 73, 108
15, 180955, Note_off_c, 11, 73, 64
15, 180960, Note_on_c, 11, 71, 108
15, 181080, Note_off_c, 11, 71, 64
15, 181080, Note_on_c, 11, 75, 108
15, 181195, Note_off_c, 11, 75, 64
15, 181200, Note_on_c, 11, 71, 108
15, 181315, Note_off_c, 11, 71, 64
15, 181320, Note_on_c, 11, 69, 108
15, 181435, Note_off_c, 11, 69, 64
15, 181440, Note_on_c, 11, 68, 108
15, 181555, Note_off_c, 11, 68, 64
15, 181560, Note_on_c, 11, 76, 108
15, 181675, Note_off_c, 11, 76, 64
15, 181680, Note_on_c, 11, 73, 108
15, 181795, Note_off_c, 11, 73, 64
15, 181800, Note_on_c, 11, 71, 108
15, 181915, Note_off_c, 11, 71, 64
15, 181920, Note_on_c, 11, 69, 108
15, 182040, Note_off_c, 11, 69, 64
15, 182040, Note_on_c, 11, 73, 108
15, 182155, Note_off_c, 11, 73, 64
15, 182160, Note_on_c, 11, 69, 108
15, 182275, Note_off_c, 11, 69, 64
15, 182280, Note_on_c, 11, 68, 108
15, 182395, Note_off_c, 11, 68, 64
15, 182400, Note_on_c, 11, 66, 108
15, 182520, Note_off_c, 11, 66, 64
15, 182520, Note_on_c, 11, 69, 108
15, 182635, Note_off_c, 11, 69, 64
15, 182640, Note_on_c, 11, 66, 108
15, 182755, Note_off_c, 11, 66, 64
15, 182760, Note_on_c, 11, 64, 108
15, 182875, Note_off_c, 11, 64, 64
15, 182880, Note_on_c, 11, 63, 108
15, 183000, Note_off_c, 11, 63, 64
15, 183000, Note_on_c, 11, 66, 108
15, 183120, Note_off_c, 11, 66, 64
15, 183120, Note_on_c, 11, 69, 108
15, 183235, Note_off_c, 11, 69, 64
15, 183240, Note_on_c, 11, 73, 108
15, 183355, Note_off_c, 11, 73, 64
15, 183360, Note_on_c, 11, 71, 109
15, 183480, Note_off_c, 11, 71, 64
15, 183480, Note_on_c, 11, 75, 110
15, 183600, Note_off_c, 11, 75, 64
15, 183600, Note_on_c, 11, 78, 111
15, 183715, Note_off_c, 11, 78, 64
15, 183720, Note_on_c, 11, 80, 112
15, 183835, Note_off_c, 11, 80, 64
15, 183840, Note_on_c, 11, 81, 113
15, 183960, Note_off_c, 11, 81, 64
15, 183960, Note_on_c, 11, 80, 114
15, 184080, Note_off_c, 11, 80, 64
15, 184080, Note_on_c, 11, 81, 115
15, 184195, Note_off_c, 11, 81, 64
15, 184200, Note_on_c, 11, 78, 116
15, 184315, Note_off_c, 11, 78, 64
15, 184320, Note_on_c, 11, 80, 117
15, 184440, Note_off_c, 11, 80, 64
15, 184440, Note_on_c, 11, 76, 118
15, 184560, Note_off_c, 11, 76, 64
15, 184560, Note_on_c, 11, 80, 119
15, 184675, Note_off_c, 11, 80, 64
15, 184680, Note_on_c, 11, 83, 120
15, 184795, Note_off_c, 11, 83, 64
15, 184800, Note_on_c, 11, 88, 121
15, 184920, Note_off_c, 11, 88, 64
15, 184920, Note_on_c, 11, 83, 122
15, 185040, Note_off_c, 11, 83, 64
15, 185040, Note_on_c, 11, 80, 123
15, 185155, Note_off_c, 11, 80, 64
15, 185160, Note_on_c, 11, 76, 124
15, 185275, Note_off_c, 11, 76, 64
15, 185280, Note_on_c, 11, 71, 125
15, 185400, Note_off_c, 11, 71, 64
15, 185400, Note_on_c, 11, 78, 126
15, 185515, Note_off_c, 11, 78, 64
15, 185520, Note_on_c, 11, 88, 127
15, 185640, Note_off_c, 11, 88, 64
15, 185640, Note_on_c, 11, 87, 127
15, 185755, Note_off_c, 11, 87, 64
15, 185760, Note_on_c, 11, 88, 127
15, 185875, Note_off_c, 11, 88, 64
15, 185880, Note_on_c, 11, 83, 92
15, 186000, Note_off_c, 11, 83, 64
15, 186000, Note_on_c, 11, 80, 92
15, 186120, Note_off_c, 11, 80, 64
15, 186120, Note_on_c, 11, 76, 92
15, 186235, Note_off_c, 11, 76, 64
15, 186240, Note_on_c, 11, 74, 92
15, 186360, Note_off_c, 11, 74, 64
15, 186360, Note_on_c, 11, 76, 92
15, 186475, Note_off_c, 11, 76, 64
15, 186480, Note_on_c, 11, 73, 92
15, 186600, Note_off_c, 11, 73, 64
15, 186600, Note_on_c, 11, 76, 92
15, 186715, Note_off_c, 11, 76, 64
15, 186720, Note_on_c, 11, 74, 92
15, 186840, Note_off_c, 11, 74, 64
15, 186840, Note_on_c, 11, 76, 92
15, 186955, Note_off_c, 11, 76, 64
15, 186960, Note_on_c, 11, 71, 92
15, 187080, Note_off_c, 11, 71, 64
15, 187080, Note_on_c, 11, 76, 92
15, 187195, Note_off_c, 11, 76, 64
15, 187200, Note_on_c, 11, 73, 92
15, 187320, Note_off_c, 11, 73, 64
15, 187320, Note_on_c, 11, 76, 92
15, 187440, Note_off_c, 11, 76, 64
15, 187440, Note_on_c, 11, 81, 92
15, 187555, Note_off_c, 11, 81, 64
15, 187560, Note_on_c, 11, 76, 92
15, 187675, Note_off_c, 11, 76, 64
15, 187680, Note_on_c, 11, 73, 92
15, 187800, Note_off_c, 11, 73, 64
15, 187800, Note_on_c, 11, 76, 92
15, 187915, Note_off_c, 11, 76, 64
15, 187920, Note_on_c, 11, 71, 92
15, 188040, Note_off_c, 11, 71, 64
15, 188040, Note_on_c, 11, 76, 92
15, 188155, Note_off_c, 11, 76, 64
15, 188160, Note_on_c, 11, 73, 92
15, 188280, Note_off_c, 11, 73, 64
15, 188280, Note_on_c, 11, 76, 92
15, 188395, Note_off_c, 11, 76, 64
15, 188400, Note_on_c, 11, 69, 92
15, 188520, Note_off_c, 11, 69, 64
15, 188520, Note_on_c, 11, 76, 92
15, 188635, Note_off_c, 11, 76, 64
15, 188640, Note_on_c, 11, 71, 92
15, 188760, Note_off_c, 11, 71, 64
15, 188760, Note_on_c, 11, 76, 92
15, 188880, Note_off_c, 11, 76, 64
15, 188880, Note_on_c, 11, 80, 92
15, 188995, Note_off_c, 11, 80, 64
15, 189000, Note_on_c, 11, 76, 92
15, 189115, Note_off_c, 11, 76, 64
15, 189120, Note_on_c, 11, 71, 92
15, 189240, Note_off_c, 11, 71, 64
15, 189240, Note_on_c, 11, 76, 92
15, 189355, Note_off_c, 11, 76, 64
15, 189360, Note_on_c, 11, 69, 92
15, 189480, Note_off_c, 11, 69, 64
15, 189480, Note_on_c, 11, 76, 92
15, 189595, Note_off_c, 11, 76, 64
15, 189600, Note_on_c, 11, 71, 92
15, 189720, Note_off_c, 11, 71, 64
15, 189720, Note_on_c, 11, 76, 92
15, 189835, Note_off_c, 11, 76, 64
15, 189840, Note_on_c, 11, 68, 92
15, 189960, Note_off_c, 11, 68, 64
15, 189960, Note_on_c, 11, 76, 92
15, 190075, Note_off_c, 11, 76, 64
15, 190080, Note_on_c, 11, 69, 92
15, 190200, Note_off_c, 11, 69, 64
15, 190200, Note_on_c, 11, 76, 93
15, 190320, Note_off_c, 11, 76, 64
15, 190320, Note_on_c, 11, 78, 94
15, 190435, Note_off_c, 11, 78, 64
15, 190440, Note_on_c, 11, 76, 95
15, 190555, Note_off_c, 11, 76, 64
15, 190560, Note_on_c, 11, 75, 96
15, 190680, Note_off_c, 11, 75, 64
15, 190680, Note_on_c, 11, 76, 97
15, 190795, Note_off_c, 11, 76, 64
15, 190800, Note_on_c, 11, 76, 98
15, 190915, Note_off_c, 11, 76, 64
15, 190920, Note_on_c, 11, 76, 99
15, 191035, Note_off_c, 11, 76, 64
15, 191040, Note_on_c, 11, 78, 100
15, 191160, Note_off_c, 11, 78, 64
15, 191160, Note_on_c, 11, 76, 102
15, 191275, Note_off_c, 11, 76, 64
15, 191280, Note_on_c, 11, 80, 104
15, 191400, Note_off_c, 11, 80, 64
15, 191400, Note_on_c, 11, 76, 106
15, 191515, Note_off_c, 11, 76, 64
15, 191520, Note_on_c, 11, 75, 108
15, 191520, Note_on_c, 11, 81, 108
15, 192160, Note_off_c, 11, 81, 64
15, 192160, Note_off_c, 11, 75, 64
15, 192240, Note_on_c, 11, 83, 108
15, 192475, Note_off_c, 11, 83, 64
15, 192480, Note_on_c, 11, 71, 108
15, 192480, Note_on_c, 11, 80, 108
15, 192880, Note_off_c, 11, 80, 64
15, 192880, Note_off_c, 11, 71, 64
15, 192960, Note_on_c, 11, 57, 108
15, 193075, Note_off_c, 11, 57, 64
15, 193080, Note_on_c, 11, 81, 108
15, 193200, Note_off_c, 11, 81, 64
15, 193200, Note_on_c, 11, 80, 108
15, 193320, Note_off_c, 11, 80, 64
15, 193320, Note_on_c, 11, 81, 108
15, 193380, Note_off_c, 11, 81, 64
15, 193380, Note_on_c, 11, 78, 108
15, 193435, Note_off_c, 11, 78, 64
15, 193440, Note_on_c, 11, 78, 108
15, 193470, Note_off_c, 11, 78, 64
15, 193470, Note_on_c, 11, 80, 108
15, 193500, Note_off_c, 11, 80, 64
15, 193500, Note_on_c, 11, 78, 108
15, 193530, Note_off_c, 11, 78, 64
15, 193530, Note_on_c, 11, 80, 108
15, 193560, Note_off_c, 11, 80, 64
15, 193560, Note_on_c, 11, 78, 108
15, 193590, Note_off_c, 11, 78, 64
15, 193590, Note_on_c, 11, 80, 108
15, 193620, Note_off_c, 11, 80, 64
15, 193620, Note_on_c, 11, 78, 108
15, 193650, Note_off_c, 11, 78, 64
15, 193650, Note_on_c, 11, 80, 108
15, 193680, Note_off_c, 11, 80, 64
15, 193680, Note_on_c, 11, 78, 108
15, 193710, Note_off_c, 11, 78, 64
15, 193710, Note_on_c, 11, 80, 108
15, 193740, Note_off_c, 11, 80, 64
15, 193740, Note_on_c, 11, 78, 108
15, 193770, Note_off_c, 11, 78, 64
15, 193770, Note_on_c, 11, 80, 108
15, 193800, Note_off_c, 11, 80, 64
15, 193800, Note_on_c, 11, 78, 108
15, 193830, Note_off_c, 11, 78, 64
15, 193830, Note_on_c, 11, 80, 108
15, 193860, Note_off_c, 11, 80, 64
15, 193860, Note_on_c, 11, 78, 108
15, 193890, Note_off_c, 11, 78, 64
15, 193890, Note_on_c, 11, 80, 108
15, 193920, Note_off_c, 11, 80, 64
15, 193920, Note_on_c, 11, 78, 108
15, 193950, Note_off_c, 11, 78, 64
15, 193950, Note_on_c, 11, 80, 108
15, 193980, Note_off_c, 11, 80, 64
15, 193980, Note_on_c, 11, 78, 108
15, 194010, Note_off_c, 11, 78, 64
15, 194010, Note_on_c, 11, 80, 108
15, 194040, Note_off_c, 11, 80, 64
15, 194040, Note_on_c, 11, 78, 108
15, 194070, Note_off_c, 11, 78, 64
15, 194070, Note_on_c, 11, 80, 108
15, 194100, Note_off_c, 11, 80, 64
15, 194100, Note_on_c, 11, 78, 108
15, 194130, Note_off_c, 11, 78, 64
15, 194130, Note_on_c, 11, 80, 108
15, 194160, Note_off_c, 11, 80, 64
15, 194160, Note_on_c, 11, 76, 108
15, 194395, Note_off_c, 11, 76, 64
15, 194400, Note_on_c, 11, 76, 108
15, 194515, Note_off_c, 11, 76, 64
15, 194520, Note_on_c, 11, 88, 108
15, 194635, Note_off_c, 11, 88, 64
15, 194640, Note_on_c, 11, 87, 108
15, 194755, Note_off_c, 11, 87, 64
15, 194760, Note_on_c, 11, 85, 108
15, 194875, Note_off_c, 11, 85, 64
15, 194880, Note_on_c, 11, 83, 108
15, 195000, Note_off_c, 11, 83, 64
15, 195000, Note_on_c, 11, 88, 108
15, 195115, Note_off_c, 11, 88, 64
15, 195120, Note_on_c, 11, 81, 109
15, 195240, Note_off_c, 11, 81, 64
15, 195240, Note_on_c, 11, 88, 110
15, 195355, Note_off_c, 11, 88, 64
15, 195360, Note_on_c, 11, 80, 111
15, 195480, Note_off_c, 11, 80, 64
15, 195480, Note_on_c, 11, 88, 112
15, 195595, Note_off_c, 11, 88, 64
15, 195600, Note_on_c, 11, 78, 113
15, 195720, Note_off_c, 11, 78, 64
15, 195720, Note_on_c, 11, 88, 114
15, 195835, Note_off_c, 11, 88, 64
15, 195840, Note_on_c, 11, 76, 115
15, 195955, Note_off_c, 11, 76, 64
15, 195960, Note_on_c, 11, 76, 116
15, 196075, Note_off_c, 11, 76, 64
15, 196080, Note_on_c, 11, 75, 117
15, 196195, Note_off_c, 11, 75, 64
15, 196200, Note_on_c, 11, 73, 118
15, 196315, Note_off_c, 11, 73, 64
15, 196320, Note_on_c, 11, 71, 119
15, 196440, Note_off_c, 11, 71, 64
15, 196440, Note_on_c, 11, 76, 120
15, 196555, Note_off_c, 11, 76, 64
15, 196560, Note_on_c, 11, 69, 121
15, 196680, Note_off_c, 11, 69, 64
15, 196680, Note_on_c, 11, 76, 122
15, 196795, Note_off_c, 11, 76, 64
15, 196800, Note_on_c, 11, 68, 123
15, 196920, Note_off_c, 11, 68, 64
15, 196920, Note_on_c, 11, 76, 124
15, 197035, Note_off_c, 11, 76, 64
15, 197040, Note_on_c, 11, 66, 125
15, 197160, Note_off_c, 11, 66, 64
15, 197160, Note_on_c, 11, 76, 126
15, 197275, Note_off_c, 11, 76, 64
15, 197280, Note_on_c, 11, 64, 127
15, 197400, Note_off_c, 11, 64, 64
15, 197400, Note_on_c, 11, 68, 127
15, 197520, Note_off_c, 11, 68, 64
15, 197520, Note_on_c, 11, 71, 127
15, 197635, Note_off_c, 11, 71, 64
15, 197640, Note_on_c, 11, 75, 127
15, 197755, Note_off_c, 11, 75, 64
15, 197760, Note_on_c, 11, 76, 127
15, 197880, Note_off_c, 11, 76, 64
15, 197880, Note_on_c, 11, 80, 127
15, 198000, Note_off_c, 11, 80, 64
15, 198000, Note_on_c, 11, 83, 127
15, 198115, Note_off_c, 11, 83, 64
15, 198120, Note_on_c, 11, 87, 127
15, 198235, Note_off_c, 11, 87, 64
15, 198240, Note_on_c, 11, 88, 127
15, 199195, Note_off_c, 11, 88, 64
15, 199195, End_track
16, 0, Start_track
16, 0, MIDI_port, 0
16, 0, Channel_prefix, 12
16, 0, Control_c, 12, 7, 113
16, 0, Control_c, 12, 10, 15
16, 0, Control_c, 12, 91, 127
16, 0, Program_c, 12, 48
16, 0, Note_on_c, 12, 64, 92
16, 0, Note_on_c, 12, 71, 92
16, 400, Note_off_c, 12, 71, 64
16, 400, Note_off_c, 12, 64, 64
16, 1440, Note_on_c, 12, 64, 92
16, 1440, Note_on_c, 12, 71, 92
16, 1840, Note_off_c, 12, 71, 64
16, 1840, Note_off_c, 12, 64, 64
16, 2880, Note_on_c, 12, 59, 92
16, 3840, Note_off_c, 12, 59, 64
16, 3840, Note_on_c, 12, 59, 92
16, 4240, Note_off_c, 12, 59, 64
16, 4320, Note_on_c, 12, 59, 92
16, 5280, Note_off_c, 12, 59, 64
16, 5280, Note_on_c, 12, 59, 92
16, 5680, Note_off_c, 12, 59, 64
16, 5760, Note_on_c, 12, 59, 45
16, 6720, Note_off_c, 12, 59, 64
16, 6720, Note_on_c, 12, 59, 45
16, 7120, Note_off_c, 12, 59, 64
16, 7200, Note_on_c, 12, 59, 45
16, 8160, Note_off_c, 12, 59, 64
16, 8160, Note_on_c, 12, 59, 45
16, 8560, Note_off_c, 12, 59, 64
16, 8640, Note_on_c, 12, 59, 45
16, 9600, Note_off_c, 12, 59, 64
16, 9600, Note_on_c, 12, 64, 53
16, 9600, Note_on_c, 12, 73, 53
16, 10000, Note_off_c, 12, 73, 64
16, 10000, Note_off_c, 12, 64, 64
16, 10080, Note_on_c, 12, 64, 57
16, 10080, Note_on_c, 12, 71, 57
16, 11040, Note_off_c, 12, 71, 64
16, 11040, Note_off_c, 12, 64, 64
16, 11040, Note_on_c, 12, 64, 65
16, 11040, Note_on_c, 12, 71, 65
16, 11440, Note_off_c, 12, 71, 64
16, 11440, Note_off_c, 12, 64, 64
16, 11520, Note_on_c, 12, 64, 69
16, 11520, Note_on_c, 12, 71, 69
16, 12480, Note_off_c, 12, 71, 64
16, 12480, Note_off_c, 12, 64, 64
16, 12480, Note_on_c, 12, 64, 78
16, 12480, Note_on_c, 12, 71, 78
16, 12880, Note_off_c, 12, 71, 64
16, 12880, Note_off_c, 12, 64, 64
16, 12960, Note_on_c, 12, 64, 82
16, 12960, Note_on_c, 12, 71, 82
16, 13920, Note_off_c, 12, 71, 64
16, 13920, Note_off_c, 12, 64, 64
16, 13920, Note_on_c, 12, 63, 92
16, 13920, Note_on_c, 12, 71, 92
16, 14320, Note_off_c, 12, 71, 64
16, 14320, Note_off_c, 12, 63, 64
16, 14400, Note_on_c, 12, 64, 45
16, 14400, Note_on_c, 12, 71, 45
16, 15360, Note_off_c, 12, 71, 64
16, 15360, Note_off_c, 12, 64, 64
16, 15360, Note_on_c, 12, 64, 45
16, 15360, Note_on_c, 12, 71, 45
16, 15760, Note_off_c, 12, 71, 64
16, 15760, Note_off_c, 12, 64, 64
16, 15840, Note_on_c, 12, 64, 45
16, 15840, Note_on_c, 12, 71, 45
16, 16800, Note_off_c, 12, 71, 64
16, 16800, Note_off_c, 12, 64, 64
16, 16800, Note_on_c, 12, 63, 65
16, 16800, Note_on_c, 12, 71, 65
16, 17200, Note_off_c, 12, 71, 64
16, 17200, Note_off_c, 12, 63, 64
16, 17280, Note_on_c, 12, 64, 75
16, 17280, Note_on_c, 12, 71, 75
16, 18600, Note_off_c, 12, 71, 64
16, 18600, Note_off_c, 12, 64, 64
16, 18720, Note_on_c, 12, 71, 75
16, 19680, Note_off_c, 12, 71, 64
16, 19680, Note_on_c, 12, 71, 75
16, 20080, Note_off_c, 12, 71, 64
16, 20160, Note_on_c, 12, 64, 45
16, 20160, Note_on_c, 12, 71, 45
16, 21480, Note_off_c, 12, 71, 64
16, 21480, Note_off_c, 12, 64, 64
16, 21600, Note_on_c, 12, 71, 45
16, 22440, Note_off_c, 12, 71, 64
16, 22560, Note_on_c, 12, 71, 45
16, 22960, Note_off_c, 12, 71, 64
16, 23040, Note_on_c, 12, 64, 60
16, 23040, Note_on_c, 12, 71, 60
16, 27240, Note_off_c, 12, 71, 64
16, 27240, Note_off_c, 12, 64, 64
16, 27360, Note_on_c, 12, 64, 60
16, 27360, Note_on_c, 12, 69, 60
16, 28680, Note_off_c, 12, 69, 64
16, 28680, Note_off_c, 12, 64, 64
16, 28800, Note_on_c, 12, 59, 75
16, 28800, Note_on_c, 12, 64, 75
16, 30240, Note_off_c, 12, 64, 64
16, 30240, Note_off_c, 12, 59, 64
16, 30240, Note_on_c, 12, 59, 75
16, 30240, Note_on_c, 12, 64, 75
16, 31560, Note_off_c, 12, 64, 64
16, 31560, Note_off_c, 12, 59, 64
16, 31680, Note_on_c, 12, 61, 45
16, 31680, Note_on_c, 12, 64, 45
16, 33120, Note_off_c, 12, 64, 64
16, 33120, Note_off_c, 12, 61, 64
16, 33120, Note_on_c, 12, 57, 45
16, 33120, Note_on_c, 12, 61, 45
16, 34440, Note_off_c, 12, 61, 64
16, 34440, Note_off_c, 12, 57, 64
16, 34560, Note_on_c, 12, 59, 45
16, 34560, Note_on_c, 12, 64, 45
16, 37320, Note_off_c, 12, 64, 64
16, 37320, Note_off_c, 12, 59, 64
16, 37440, Note_on_c, 12, 59, 45
16, 40200, Note_off_c, 12, 59, 64
16, 40320, Note_on_c, 12, 59, 75
16, 40720, Note_off_c, 12, 59, 64
16, 41760, Note_on_c, 12, 59, 78
16, 41760, Note_on_c, 12, 64, 78
16, 42160, Note_off_c, 12, 64, 64
16, 42160, Note_off_c, 12, 59, 64
16, 43200, Note_on_c, 12, 64, 82
16, 43200, Note_on_c, 12, 68, 82
16, 43600, Note_off_c, 12, 68, 64
16, 43600, Note_off_c, 12, 64, 64
16, 45600, Note_on_c, 12, 59, 92
16, 45600, Note_on_c, 12, 64, 92
16, 46080, Note_off_c, 12, 64, 64
16, 46080, Note_off_c, 12, 59, 64
16, 46080, Note_on_c, 12, 61, 45
16, 46080, Note_on_c, 12, 65, 45
16, 46480, Note_off_c, 12, 65, 64
16, 46480, Note_off_c, 12, 61, 64
16, 47520, Note_on_c, 12, 61, 45
16, 47520, Note_on_c, 12, 68, 45
16, 47920, Note_off_c, 12, 68, 64
16, 47920, Note_off_c, 12, 61, 64
16, 48960, Note_on_c, 12, 56, 62
16, 48960, Note_on_c, 12, 65, 62
16, 49360, Note_off_c, 12, 65, 64
16, 49360, Note_off_c, 12, 56, 64
16, 51360, Note_on_c, 12, 61, 92
16, 51360, Note_on_c, 12, 68, 92
16, 51840, Note_off_c, 12, 68, 64
16, 51840, Note_off_c, 12, 61, 64
16, 51840, Note_on_c, 12, 66, 92
16, 51840, Note_on_c, 12, 73, 92
16, 52240, Note_off_c, 12, 73, 64
16, 52240, Note_off_c, 12, 66, 64
16, 52800, Note_on_c, 12, 68, 92
16, 52800, Note_on_c, 12, 75, 92
16, 53280, Note_off_c, 12, 75, 64
16, 53280, Note_off_c, 12, 68, 64
16, 53280, Note_on_c, 12, 61, 92
16, 53680, Note_off_c, 12, 61, 64
16, 53760, Note_on_c, 12, 64, 92
16, 54240, Note_off_c, 12, 64, 64
16, 54240, Note_on_c, 12, 68, 92
16, 54640, Note_off_c, 12, 68, 64
16, 54720, Note_on_c, 12, 63, 92
16, 57480, Note_off_c, 12, 63, 64
16, 57600, Note_on_c, 12, 60, 75
16, 60360, Note_off_c, 12, 60, 64
16, 60480, Note_on_c, 12, 63, 60
16, 61920, Note_off_c, 12, 63, 64
16, 61920, Note_on_c, 12, 61, 60
16, 63240, Note_off_c, 12, 61, 64
16, 63360, Note_on_c, 12, 63, 45
16, 64800, Note_off_c, 12, 63, 64
16, 64800, Note_on_c, 12, 61, 45
16, 66120, Note_off_c, 12, 61, 64
16, 66240, Note_on_c, 12, 64, 60
16, 67680, Note_off_c, 12, 64, 64
16, 67680, Note_on_c, 12, 64, 45
16, 69120, Note_off_c, 12, 64, 64
16, 69120, Note_on_c, 12, 64, 75
16, 70560, Note_off_c, 12, 64, 64
16, 70560, Note_on_c, 12, 63, 45
16, 72000, Note_off_c, 12, 63, 64
16, 72000, Note_on_c, 12, 64, 92
16, 72400, Note_off_c, 12, 64, 64
16, 73440, Note_on_c, 12, 64, 92
16, 73840, Note_off_c, 12, 64, 64
16, 74880, Note_on_c, 12, 61, 92
16, 76320, Note_off_c, 12, 61, 64
16, 76320, Note_on_c, 12, 61, 60
16, 77640, Note_off_c, 12, 61, 64
16, 77760, Note_on_c, 12, 63, 92
16, 77760, Note_on_c, 12, 71, 92
16, 78160, Note_off_c, 12, 71, 64
16, 78160, Note_off_c, 12, 63, 64
16, 79200, Note_on_c, 12, 59, 75
16, 79200, Note_on_c, 12, 66, 75
16, 79600, Note_off_c, 12, 66, 64
16, 79600, Note_off_c, 12, 59, 64
16, 80640, Note_on_c, 12, 59, 92
16, 80640, Note_on_c, 12, 66, 92
16, 82080, Note_off_c, 12, 66, 64
16, 82080, Note_off_c, 12, 59, 64
16, 82080, Note_on_c, 12, 59, 45
16, 82080, Note_on_c, 12, 66, 45
16, 83400, Note_off_c, 12, 66, 64
16, 83400, Note_off_c, 12, 59, 64
16, 83520, Note_on_c, 12, 61, 92
16, 83520, Note_on_c, 12, 69, 92
16, 84480, Note_off_c, 12, 61, 64
16, 84480, Note_on_c, 12, 62, 92
16, 84840, Note_off_c, 12, 69, 64
16, 84960, Note_off_c, 12, 62, 64
16, 84960, Note_on_c, 12, 61, 92
16, 84960, Note_on_c, 12, 69, 92
16, 85800, Note_off_c, 12, 69, 64
16, 85800, Note_off_c, 12, 61, 64
16, 85920, Note_on_c, 12, 59, 92
16, 85920, Note_on_c, 12, 68, 92
16, 86320, Note_off_c, 12, 68, 64
16, 86320, Note_off_c, 12, 59, 64
16, 86400, Note_on_c, 12, 61, 60
16, 86400, Note_on_c, 12, 69, 60
16, 87360, Note_off_c, 12, 61, 64
16, 87360, Note_on_c, 12, 62, 60
16, 87720, Note_off_c, 12, 69, 64
16, 87840, Note_off_c, 12, 62, 64
16, 87840, Note_on_c, 12, 61, 60
16, 87840, Note_on_c, 12, 64, 60
16, 88800, Note_off_c, 12, 64, 64
16, 88800, Note_off_c, 12, 61, 64
16, 88800, Note_on_c, 12, 56, 60
16, 88800, Note_on_c, 12, 64, 60
16, 89200, Note_off_c, 12, 64, 64
16, 89200, Note_off_c, 12, 56, 64
16, 89280, Note_on_c, 12, 61, 92
16, 89280, Note_on_c, 12, 64, 92
16, 91680, Note_off_c, 12, 64, 64
16, 91680, Note_off_c, 12, 61, 64
16, 91680, Note_on_c, 12, 59, 92
16, 91680, Note_on_c, 12, 64, 92
16, 92080, Note_off_c, 12, 64, 64
16, 92080, Note_off_c, 12, 59, 64
16, 92160, Note_on_c, 12, 61, 60
16, 92160, Note_on_c, 12, 64, 60
16, 93120, Note_off_c, 12, 64, 64
16, 93120, Note_off_c, 12, 61, 64
16, 93120, Note_on_c, 12, 62, 60
16, 93120, Note_on_c, 12, 64, 60
16, 93600, Note_off_c, 12, 64, 64
16, 93600, Note_off_c, 12, 62, 64
16, 93600, Note_on_c, 12, 61, 60
16, 93600, Note_on_c, 12, 64, 60
16, 94560, Note_off_c, 12, 64, 64
16, 94560, Note_off_c, 12, 61, 64
16, 94560, Note_on_c, 12, 59, 60
16, 94560, Note_on_c, 12, 64, 60
16, 94960, Note_off_c, 12, 64, 64
16, 94960, Note_off_c, 12, 59, 64
16, 95040, Note_on_c, 12, 61, 108
16, 95040, Note_on_c, 12, 64, 108
16, 99360, Note_off_c, 12, 64, 64
16, 99360, Note_off_c, 12, 61, 64
16, 99360, Note_on_c, 12, 57, 108
16, 99360, Note_on_c, 12, 62, 108
16, 100800, Note_off_c, 12, 62, 64
16, 100800, Note_off_c, 12, 57, 64
16, 100800, Note_on_c, 12, 62, 108
16, 100800, Note_on_c, 12, 64, 108
16, 102120, Note_off_c, 12, 64, 64
16, 102120, Note_off_c, 12, 62, 64
16, 102240, Note_on_c, 12, 57, 92
16, 102240, Note_on_c, 12, 64, 92
16, 103680, Note_off_c, 12, 64, 64
16, 103680, Note_off_c, 12, 57, 64
16, 103680, Note_on_c, 12, 57, 92
16, 103680, Note_on_c, 12, 66, 92
16, 105120, Note_off_c, 12, 66, 64
16, 105120, Note_off_c, 12, 57, 64
16, 105120, Note_on_c, 12, 59, 92
16, 105120, Note_on_c, 12, 66, 92
16, 106560, Note_off_c, 12, 66, 64
16, 106560, Note_off_c, 12, 59, 64
16, 106560, Note_on_c, 12, 57, 76
16, 106560, Note_on_c, 12, 64, 76
16, 108000, Note_off_c, 12, 64, 64
16, 108000, Note_off_c, 12, 57, 64
16, 108000, Note_on_c, 12, 57, 60
16, 108000, Note_on_c, 12, 64, 60
16, 109440, Note_off_c, 12, 64, 64
16, 109440, Note_off_c, 12, 57, 64
16, 109440, Note_on_c, 12, 57, 60
16, 109440, Note_on_c, 12, 62, 60
16, 110880, Note_off_c, 12, 62, 64
16, 110880, Note_off_c, 12, 57, 64
16, 110880, Note_on_c, 12, 59, 45
16, 110880, Note_on_c, 12, 62, 45
16, 112200, Note_off_c, 12, 62, 64
16, 112200, Note_off_c, 12, 59, 64
16, 112320, Note_on_c, 12, 64, 60
16, 112720, Note_off_c, 12, 64, 64
16, 113760, Note_on_c, 12, 64, 68
16, 114160, Note_off_c, 12, 64, 64
16, 115200, Note_on_c, 12, 61, 77
16, 115600, Note_off_c, 12, 61, 64
16, 117600, Note_on_c, 12, 58, 92
16, 117600, Note_on_c, 12, 66, 92
16, 118080, Note_off_c, 12, 66, 64
16, 118080, Note_off_c, 12, 58, 64
16, 118080, Note_on_c, 12, 59, 45
16, 118080, Note_on_c, 12, 66, 45
16, 118480, Note_off_c, 12, 66, 64
16, 118480, Note_off_c, 12, 59, 64
16, 119520, Note_on_c, 12, 59, 57
16, 119520, Note_on_c, 12, 66, 57
16, 119920, Note_off_c, 12, 66, 64
16, 119920, Note_off_c, 12, 59, 64
16, 120960, Note_on_c, 12, 59, 69
16, 120960, Note_on_c, 12, 63, 69
16, 121360, Note_off_c, 12, 63, 64
16, 121360, Note_off_c, 12, 59, 64
16, 123360, Note_on_c, 12, 60, 92
16, 123360, Note_on_c, 12, 68, 92
16, 123840, Note_off_c, 12, 68, 64
16, 123840, Note_off_c, 12, 60, 64
16, 123840, Note_on_c, 12, 59, 92
16, 123840, Note_on_c, 12, 68, 92
16, 125280, Note_off_c, 12, 68, 64
16, 125280, Note_off_c, 12, 59, 64
16, 125280, Note_on_c, 12, 57, 92
16, 125280, Note_on_c, 12, 66, 92
16, 126720, Note_off_c, 12, 66, 64
16, 126720, Note_off_c, 12, 57, 64
16, 126720, Note_on_c, 12, 59, 92
16, 126720, Note_on_c, 12, 66, 92
16, 128040, Note_off_c, 12, 66, 64
16, 128040, Note_off_c, 12, 59, 64
16, 128160, Note_on_c, 12, 61, 45
16, 128160, Note_on_c, 12, 68, 45
16, 129600, Note_off_c, 12, 68, 64
16, 129600, Note_off_c, 12, 61, 64
16, 129600, Note_on_c, 12, 61, 45
16, 129600, Note_on_c, 12, 68, 45
16, 131040, Note_off_c, 12, 68, 64
16, 131040, Note_off_c, 12, 61, 64
16, 131040, Note_on_c, 12, 61, 60
16, 131040, Note_on_c, 12, 68, 60
16, 132360, Note_off_c, 12, 68, 64
16, 132360, Note_off_c, 12, 61, 64
16, 132480, Note_on_c, 12, 65, 75
16, 132480, Note_on_c, 12, 73, 75
16, 133800, Note_off_c, 12, 73, 64
16, 133800, Note_off_c, 12, 65, 64
16, 133920, Note_on_c, 12, 66, 75
16, 133920, Note_on_c, 12, 69, 75
16, 134760, Note_off_c, 12, 69, 64
16, 134760, Note_off_c, 12, 66, 64
16, 134880, Note_on_c, 12, 61, 105
16, 134880, Note_on_c, 12, 69, 105
16, 135280, Note_off_c, 12, 69, 64
16, 135280, Note_off_c, 12, 61, 64
16, 135360, Note_on_c, 12, 59, 84
16, 135360, Note_on_c, 12, 66, 84
16, 135760, Note_off_c, 12, 66, 64
16, 135760, Note_off_c, 12, 59, 64
16, 135840, Note_on_c, 12, 59, 84
16, 135840, Note_on_c, 12, 62, 84
16, 136240, Note_off_c, 12, 62, 64
16, 136240, Note_off_c, 12, 59, 64
16, 136320, Note_on_c, 12, 61, 84
16, 136320, Note_on_c, 12, 64, 84
16, 136720, Note_off_c, 12, 64, 64
16, 136720, Note_off_c, 12, 61, 64
16, 136800, Note_on_c, 12, 59, 84
16, 136800, Note_on_c, 12, 68, 84
16, 137200, Note_off_c, 12, 68, 64
16, 137200, Note_off_c, 12, 59, 64
16, 137280, Note_on_c, 12, 59, 84
16, 137280, Note_on_c, 12, 68, 84
16, 137680, Note_off_c, 12, 68, 64
16, 137680, Note_off_c, 12, 59, 64
16, 137760, Note_on_c, 12, 61, 84
16, 137760, Note_on_c, 12, 69, 84
16, 138160, Note_off_c, 12, 69, 64
16, 138160, Note_off_c, 12, 61, 64
16, 138240, Note_on_c, 12, 61, 45
16, 138240, Note_on_c, 12, 65, 45
16, 139560, Note_off_c, 12, 65, 64
16, 139560, Note_off_c, 12, 61, 64
16, 139680, Note_on_c, 12, 61, 45
16, 139680, Note_on_c, 12, 68, 45
16, 141000, Note_off_c, 12, 68, 64
16, 141000, Note_off_c, 12, 61, 64
16, 141120, Note_on_c, 12, 61, 45
16, 142560, Note_off_c, 12, 61, 64
16, 142560, Note_on_c, 12, 61, 45
16, 144000, Note_off_c, 12, 61, 64
16, 144000, Note_on_c, 12, 61, 68
16, 145320, Note_off_c, 12, 61, 64
16, 145440, Note_on_c, 12, 61, 92
16, 145440, Note_on_c, 12, 68, 92
16, 151080, Note_off_c, 12, 68, 64
16, 151080, Note_off_c, 12, 61, 64
16, 151200, Note_on_c, 12, 61, 92
16, 151200, Note_on_c, 12, 66, 92
16, 151600, Note_off_c, 12, 66, 64
16, 151600, Note_off_c, 12, 61, 64
16, 151680, Note_on_c, 12, 66, 92
16, 151920, Note_off_c, 12, 66, 64
16, 151920, Note_on_c, 12, 68, 92
16, 152160, Note_off_c, 12, 68, 64
16, 152160, Note_on_c, 12, 69, 92
16, 152560, Note_off_c, 12, 69, 64
16, 152640, Note_on_c, 12, 59, 84
16, 152640, Note_on_c, 12, 67, 84
16, 153040, Note_off_c, 12, 67, 64
16, 153040, Note_off_c, 12, 59, 64
16, 153120, Note_on_c, 12, 61, 84
16, 153120, Note_on_c, 12, 67, 84
16, 153520, Note_off_c, 12, 67, 64
16, 153520, Note_off_c, 12, 61, 64
16, 153600, Note_on_c, 12, 61, 84
16, 153600, Note_on_c, 12, 66, 84
16, 154000, Note_off_c, 12, 66, 64
16, 154000, Note_off_c, 12, 61, 64
16, 154080, Note_on_c, 12, 61, 84
16, 154080, Note_on_c, 12, 66, 84
16, 154480, Note_off_c, 12, 66, 64
16, 154480, Note_off_c, 12, 61, 64
16, 154560, Note_on_c, 12, 61, 84
16, 154560, Note_on_c, 12, 66, 84
16, 154960, Note_off_c, 12, 66, 64
16, 154960, Note_off_c, 12, 61, 64
16, 155040, Note_on_c, 12, 56, 84
16, 155040, Note_on_c, 12, 65, 84
16, 155440, Note_off_c, 12, 65, 64
16, 155440, Note_off_c, 12, 56, 64
16, 155520, Note_on_c, 12, 61, 45
16, 158400, Note_off_c, 12, 61, 64
16, 158400, Note_on_c, 12, 59, 45
16, 159840, Note_off_c, 12, 59, 64
16, 159840, Note_on_c, 12, 64, 45
16, 161280, Note_off_c, 12, 64, 64
16, 161280, Note_on_c, 12, 66, 45
16, 162600, Note_off_c, 12, 66, 64
16, 162720, Note_on_c, 12, 66, 45
16, 163200, Note_off_c, 12, 66, 64
16, 163200, Note_on_c, 12, 59, 45
16, 164160, Note_off_c, 12, 59, 64
16, 164160, Note_on_c, 12, 57, 45
16, 164560, Note_off_c, 12, 57, 64
16, 164640, Note_on_c, 12, 61, 63
16, 165040, Note_off_c, 12, 61, 64
16, 165120, Note_on_c, 12, 64, 63
16, 165520, Note_off_c, 12, 64, 64
16, 165600, Note_on_c, 12, 69, 45
16, 166000, Note_off_c, 12, 69, 64
16, 166080, Note_on_c, 12, 57, 45
16, 167040, Note_off_c, 12, 57, 64
16, 167040, Note_on_c, 12, 59, 45
16, 167440, Note_off_c, 12, 59, 64
16, 167520, Note_on_c, 12, 63, 84
16, 167920, Note_off_c, 12, 63, 64
16, 168000, Note_on_c, 12, 66, 106
16, 168400, Note_off_c, 12, 66, 64
16, 168480, Note_on_c, 12, 71, 92
16, 168880, Note_off_c, 12, 71, 64
16, 168960, Note_on_c, 12, 56, 45
16, 169800, Note_off_c, 12, 56, 64
16, 169920, Note_on_c, 12, 61, 45
16, 171240, Note_off_c, 12, 61, 64
16, 171360, Note_on_c, 12, 63, 48
16, 172680, Note_off_c, 12, 63, 64
16, 172800, Note_on_c, 12, 64, 52
16, 174120, Note_off_c, 12, 64, 64
16, 174240, Note_on_c, 12, 66, 56
16, 175560, Note_off_c, 12, 66, 64
16, 175680, Note_on_c, 12, 71, 60
16, 176080, Note_off_c, 12, 71, 64
16, 176160, Note_on_c, 12, 71, 60
16, 176560, Note_off_c, 12, 71, 64
16, 176640, Note_on_c, 12, 71, 60
16, 177040, Note_off_c, 12, 71, 64
16, 177120, Note_on_c, 12, 66, 60
16, 177520, Note_off_c, 12, 66, 64
16, 177600, Note_on_c, 12, 69, 60
16, 178000, Note_off_c, 12, 69, 64
16, 178080, Note_on_c, 12, 66, 60
16, 178480, Note_off_c, 12, 66, 64
16, 178560, Note_on_c, 12, 66, 60
16, 178960, Note_off_c, 12, 66, 64
16, 179040, Note_on_c, 12, 69, 60
16, 179440, Note_off_c, 12, 69, 64
16, 179520, Note_on_c, 12, 64, 60
16, 179920, Note_off_c, 12, 64, 64
16, 180000, Note_on_c, 12, 64, 60
16, 180400, Note_off_c, 12, 64, 64
16, 180480, Note_on_c, 12, 68, 60
16, 180880, Note_off_c, 12, 68, 64
16, 180960, Note_on_c, 12, 64, 60
16, 181360, Note_off_c, 12, 64, 64
16, 181440, Note_on_c, 12, 64, 60
16, 181840, Note_off_c, 12, 64, 64
16, 181920, Note_on_c, 12, 68, 60
16, 182320, Note_off_c, 12, 68, 64
16, 182400, Note_on_c, 12, 64, 60
16, 182800, Note_off_c, 12, 64, 64
16, 182880, Note_on_c, 12, 59, 60
16, 183280, Note_off_c, 12, 59, 64
16, 183360, Note_on_c, 12, 63, 69
16, 183760, Note_off_c, 12, 63, 64
16, 183840, Note_on_c, 12, 66, 78
16, 184240, Note_off_c, 12, 66, 64
16, 184320, Note_on_c, 12, 68, 88
16, 184720, Note_off_c, 12, 68, 64
16, 184800, Note_on_c, 12, 68, 98
16, 185040, Note_off_c, 12, 68, 64
16, 185040, Note_on_c, 12, 69, 103
16, 185280, Note_off_c, 12, 69, 64
16, 185280, Note_on_c, 12, 66, 108
16, 185680, Note_off_c, 12, 66, 64
16, 185760, Note_on_c, 12, 68, 75
16, 187080, Note_off_c, 12, 68, 64
16, 187200, Note_on_c, 12, 69, 75
16, 188520, Note_off_c, 12, 69, 64
16, 188640, Note_on_c, 12, 68, 75
16, 189960, Note_off_c, 12, 68, 64
16, 190080, Note_on_c, 12, 64, 75
16, 190480, Note_off_c, 12, 64, 64
16, 190560, Note_on_c, 12, 69, 80
16, 190960, Note_off_c, 12, 69, 64
16, 191040, Note_on_c, 12, 75, 86
16, 191275, Note_off_c, 12, 75, 64
16, 191280, Note_on_c, 12, 73, 89
16, 191515, Note_off_c, 12, 73, 64
16, 191520, Note_on_c, 12, 59, 92
16, 191520, Note_on_c, 12, 66, 92
16, 192360, Note_off_c, 12, 66, 64
16, 192360, Note_off_c, 12, 59, 64
16, 192480, Note_on_c, 12, 59, 92
16, 192480, Note_on_c, 12, 64, 92
16, 192880, Note_off_c, 12, 64, 64
16, 192880, Note_off_c, 12, 59, 64
16, 192960, Note_on_c, 12, 57, 92
16, 192960, Note_on_c, 12, 64, 92
16, 193440, Note_off_c, 12, 64, 64
16, 193440, Note_off_c, 12, 57, 64
16, 193440, Note_on_c, 12, 59, 92
16, 193440, Note_on_c, 12, 66, 92
16, 194280, Note_off_c, 12, 66, 64
16, 194280, Note_off_c, 12, 59, 64
16, 194400, Note_on_c, 12, 68, 92
16, 195040, Note_off_c, 12, 68, 64
16, 195120, Note_on_c, 12, 69, 96
16, 195360, Note_off_c, 12, 69, 64
16, 195360, Note_on_c, 12, 68, 97
16, 195600, Note_off_c, 12, 68, 64
16, 195600, Note_on_c, 12, 66, 98
16, 195835, Note_off_c, 12, 66, 64
16, 195840, Note_on_c, 12, 68, 99
16, 196480, Note_off_c, 12, 68, 64
16, 196560, Note_on_c, 12, 69, 103
16, 196800, Note_off_c, 12, 69, 64
16, 196800, Note_on_c, 12, 68, 104
16, 197040, Note_off_c, 12, 68, 64
16, 197040, Note_on_c, 12, 66, 106
16, 197275, Note_off_c, 12, 66, 64
16, 197280, Note_on_c, 12, 68, 108
16, 199195, Note_off_c, 12, 68, 64
16, 199195, End_track
17, 0, Start_track
17, 0, MIDI_port, 0
17, 0, Channel_prefix, 13
17, 0, Control_c, 13, 7, 111
17, 0, Control_c, 13, 10, 75
17, 0, Control_c, 13, 91, 127
17, 0, Program_c, 13, 48
17, 0, Note_on_c, 13, 56, 92
17, 400, Note_off_c, 13, 56, 64
17, 1440, Note_on_c, 13, 56, 92
17, 1840, Note_off_c, 13, 56, 64
17, 2880, Note_on_c, 13, 52, 92
17, 2880, Note_on_c, 13, 56, 92
17, 3840, Note_off_c, 13, 56, 64
17, 3840, Note_off_c, 13, 52, 64
17, 3840, Note_on_c, 13, 52, 92
17, 3840, Note_on_c, 13, 57, 92
17, 4240, Note_off_c, 13, 57, 64
17, 4240, Note_off_c, 13, 52, 64
17, 4320, Note_on_c, 13, 52, 92
17, 4320, Note_on_c, 13, 56, 92
17, 5280, Note_off_c, 13, 56, 64
17, 5280, Note_off_c, 13, 52, 64
17, 5280, Note_on_c, 13, 54, 92
17, 5680, Note_off_c, 13, 54, 64
17, 5760, Note_on_c, 13, 52, 45
17, 5760, Note_on_c, 13, 56, 45
17, 6720, Note_off_c, 13, 56, 64
17, 6720, Note_off_c, 13, 52, 64
17, 6720, Note_on_c, 13, 52, 45
17, 6720, Note_on_c, 13, 57, 45
17, 7120, Note_off_c, 13, 57, 64
17, 7120, Note_off_c, 13, 52, 64
17, 7200, Note_on_c, 13, 52, 45
17, 7200, Note_on_c, 13, 56, 45
17, 8160, Note_off_c, 13, 56, 64
17, 8160, Note_off_c, 13, 52, 64
17, 8160, Note_on_c, 13, 54, 45
17, 8560, Note_off_c, 13, 54, 64
17, 8640, Note_on_c, 13, 56, 45
17, 9600, Note_off_c, 13, 56, 64
17, 9600, Note_on_c, 13, 69, 53
17, 10000, Note_off_c, 13, 69, 64
17, 10080, Note_on_c, 13, 68, 57
17, 11040, Note_off_c, 13, 68, 64
17, 11040, Note_on_c, 13, 66, 65
17, 11440, Note_off_c, 13, 66, 64
17, 11520, Note_on_c, 13, 68, 69
17, 12480, Note_off_c, 13, 68, 64
17, 12480, Note_on_c, 13, 69, 78
17, 12880, Note_off_c, 13, 69, 64
17, 12960, Note_on_c, 13, 68, 82
17, 13920, Note_off_c, 13, 68, 64
17, 13920, Note_on_c, 13, 66, 92
17, 14320, Note_off_c, 13, 66, 64
17, 14400, Note_on_c, 13, 68, 45
17, 15360, Note_off_c, 13, 68, 64
17, 15360, Note_on_c, 13, 69, 45
17, 15760, Note_off_c, 13, 69, 64
17, 15840, Note_on_c, 13, 68, 45
17, 16800, Note_off_c, 13, 68, 64
17, 16800, Note_on_c, 13, 66, 65
17, 17200, Note_off_c, 13, 66, 64
17, 17280, Note_on_c, 13, 68, 75
17, 18955, Note_off_c, 13, 68, 64
17, 18960, Note_on_c, 13, 68, 92
17, 19200, Note_off_c, 13, 68, 64
17, 19200, Note_on_c, 13, 66, 92
17, 19440, Note_off_c, 13, 66, 64
17, 19440, Note_on_c, 13, 68, 92
17, 19680, Note_off_c, 13, 68, 64
17, 19680, Note_on_c, 13, 64, 92
17, 19920, Note_off_c, 13, 64, 64
17, 19920, Note_on_c, 13, 66, 92
17, 20155, Note_off_c, 13, 66, 64
17, 20160, Note_on_c, 13, 68, 60
17, 21835, Note_off_c, 13, 68, 64
17, 21840, Note_on_c, 13, 68, 92
17, 22080, Note_off_c, 13, 68, 64
17, 22080, Note_on_c, 13, 66, 92
17, 22320, Note_off_c, 13, 66, 64
17, 22320, Note_on_c, 13, 68, 92
17, 22560, Note_off_c, 13, 68, 64
17, 22560, Note_on_c, 13, 64, 92
17, 22800, Note_off_c, 13, 64, 64
17, 22800, Note_on_c, 13, 66, 92
17, 23035, Note_off_c, 13, 66, 64
17, 23040, Note_on_c, 13, 68, 60
17, 27240, Note_off_c, 13, 68, 64
17, 27360, Note_on_c, 13, 64, 60
17, 28680, Note_off_c, 13, 64, 64
17, 28800, Note_on_c, 13, 56, 75
17, 30240, Note_off_c, 13, 56, 64
17, 30240, Note_on_c, 13, 56, 75
17, 31560, Note_off_c, 13, 56, 64
17, 31680, Note_on_c, 13, 57, 45
17, 33120, Note_off_c, 13, 57, 64
17, 33120, Note_on_c, 13, 54, 45
17, 34440, Note_off_c, 13, 54, 64
17, 34560, Note_on_c, 13, 56, 45
17, 37320, Note_off_c, 13, 56, 64
17, 37440, Note_on_c, 13, 52, 45
17, 38880, Note_off_c, 13, 52, 64
17, 38880, Note_on_c, 13, 51, 45
17, 40200, Note_off_c, 13, 51, 64
17, 40320, Note_on_c, 13, 52, 75
17, 40720, Note_off_c, 13, 52, 64
17, 41760, Note_on_c, 13, 56, 78
17, 42160, Note_off_c, 13, 56, 64
17, 43200, Note_on_c, 13, 59, 82
17, 43600, Note_off_c, 13, 59, 64
17, 45600, Note_on_c, 13, 56, 92
17, 46080, Note_off_c, 13, 56, 64
17, 46080, Note_on_c, 13, 56, 45
17, 46480, Note_off_c, 13, 56, 64
17, 47520, Note_on_c, 13, 56, 45
17, 47920, Note_off_c, 13, 56, 64
17, 48960, Note_on_c, 13, 61, 62
17, 49360, Note_off_c, 13, 61, 64
17, 51360, Note_on_c, 13, 53, 92
17, 51840, Note_off_c, 13, 53, 64
17, 51840, Note_on_c, 13, 57, 92
17, 52240, Note_off_c, 13, 57, 64
17, 52800, Note_on_c, 13, 60, 92
17, 53280, Note_off_c, 13, 60, 64
17, 53280, Note_on_c, 13, 56, 92
17, 53680, Note_off_c, 13, 56, 64
17, 53760, Note_on_c, 13, 61, 92
17, 54240, Note_off_c, 13, 61, 64
17, 54240, Note_on_c, 13, 64, 92
17, 54640, Note_off_c, 13, 64, 64
17, 54720, Note_on_c, 13, 60, 92
17, 57480, Note_off_c, 13, 60, 64
17, 57600, Note_on_c, 13, 60, 75
17, 60360, Note_off_c, 13, 60, 64
17, 60480, Note_on_c, 13, 60, 60
17, 61920, Note_off_c, 13, 60, 64
17, 61920, Note_on_c, 13, 56, 60
17, 63240, Note_off_c, 13, 56, 64
17, 63360, Note_on_c, 13, 60, 45
17, 64800, Note_off_c, 13, 60, 64
17, 64800, Note_on_c, 13, 56, 45
17, 66120, Note_off_c, 13, 56, 64
17, 66240, Note_on_c, 13, 55, 60
17, 67680, Note_off_c, 13, 55, 64
17, 67680, Note_on_c, 13, 55, 45
17, 69120, Note_off_c, 13, 55, 64
17, 69120, Note_on_c, 13, 56, 75
17, 70560, Note_off_c, 13, 56, 64
17, 70560, Note_on_c, 13, 56, 45
17, 72000, Note_off_c, 13, 56, 64
17, 72000, Note_on_c, 13, 56, 92
17, 72400, Note_off_c, 13, 56, 64
17, 73440, Note_on_c, 13, 56, 92
17, 73840, Note_off_c, 13, 56, 64
17, 74880, Note_on_c, 13, 58, 92
17, 76320, Note_off_c, 13, 58, 64
17, 76320, Note_on_c, 13, 58, 60
17, 77640, Note_off_c, 13, 58, 64
17, 77760, Note_on_c, 13, 54, 92
17, 78160, Note_off_c, 13, 54, 64
17, 79200, Note_on_c, 13, 63, 75
17, 79600, Note_off_c, 13, 63, 64
17, 80640, Note_on_c, 13, 62, 92
17, 82080, Note_off_c, 13, 62, 64
17, 82080, Note_on_c, 13, 62, 45
17, 83400, Note_off_c, 13, 62, 64
17, 83520, Note_on_c, 13, 57, 92
17, 83520, Note_on_c, 13, 61, 92
17, 84480, Note_off_c, 13, 61, 64
17, 84480, Note_off_c, 13, 57, 64
17, 84480, Note_on_c, 13, 57, 92
17, 84480, Note_on_c, 13, 62, 92
17, 84880, Note_off_c, 13, 62, 64
17, 84880, Note_off_c, 13, 57, 64
17, 84960, Note_on_c, 13, 57, 92
17, 84960, Note_on_c, 13, 61, 92
17, 85920, Note_off_c, 13, 61, 64
17, 85920, Note_off_c, 13, 57, 64
17, 85920, Note_on_c, 13, 59, 92
17, 86320, Note_off_c, 13, 59, 64
17, 86400, Note_on_c, 13, 57, 60
17, 86400, Note_on_c, 13, 61, 60
17, 87360, Note_off_c, 13, 61, 64
17, 87360, Note_off_c, 13, 57, 64
17, 87360, Note_on_c, 13, 57, 60
17, 87360, Note_on_c, 13, 62, 60
17, 87760, Note_off_c, 13, 62, 64
17, 87760, Note_off_c, 13, 57, 64
17, 87840, Note_on_c, 13, 57, 60
17, 87840, Note_on_c, 13, 61, 60
17, 88800, Note_off_c, 13, 61, 64
17, 88800, Note_off_c, 13, 57, 64
17, 88800, Note_on_c, 13, 59, 60
17, 89200, Note_off_c, 13, 59, 64
17, 89280, Note_on_c, 13, 57, 92
17, 91680, Note_off_c, 13, 57, 64
17, 91680, Note_on_c, 13, 56, 92
17, 92080, Note_off_c, 13, 56, 64
17, 92160, Note_on_c, 13, 57, 60
17, 94560, Note_off_c, 13, 57, 64
17, 94560, Note_on_c, 13, 56, 60
17, 94960, Note_off_c, 13, 56, 64
17, 95040, Note_on_c, 13, 57, 108
17, 99240, Note_off_c, 13, 57, 64
17, 99360, Note_on_c, 13, 54, 108
17, 100800, Note_off_c, 13, 54, 64
17, 100800, Note_on_c, 13, 57, 108
17, 102120, Note_off_c, 13, 57, 64
17, 102240, Note_on_c, 13, 61, 92
17, 103680, Note_off_c, 13, 61, 64
17, 103680, Note_on_c, 13, 61, 92
17, 105120, Note_off_c, 13, 61, 64
17, 105120, Note_on_c, 13, 62, 92
17, 106560, Note_off_c, 13, 62, 64
17, 106560, Note_on_c, 13, 61, 76
17, 108000, Note_off_c, 13, 61, 64
17, 108000, Note_on_c, 13, 61, 60
17, 109440, Note_off_c, 13, 61, 64
17, 109440, Note_on_c, 13, 57, 60
17, 110880, Note_off_c, 13, 57, 64
17, 110880, Note_on_c, 13, 56, 45
17, 112200, Note_off_c, 13, 56, 64
17, 112320, Note_on_c, 13, 61, 60
17, 112720, Note_off_c, 13, 61, 64
17, 113760, Note_on_c, 13, 61, 68
17, 114160, Note_off_c, 13, 61, 64
17, 115200, Note_on_c, 13, 52, 77
17, 115600, Note_off_c, 13, 52, 64
17, 117600, Note_on_c, 13, 61, 92
17, 118080, Note_off_c, 13, 61, 64
17, 118080, Note_on_c, 13, 62, 45
17, 118480, Note_off_c, 13, 62, 64
17, 119520, Note_on_c, 13, 62, 57
17, 119920, Note_off_c, 13, 62, 64
17, 120960, Note_on_c, 13, 57, 69
17, 121360, Note_off_c, 13, 57, 64
17, 123360, Note_on_c, 13, 63, 92
17, 123840, Note_off_c, 13, 63, 64
17, 123840, Note_on_c, 13, 65, 92
17, 125280, Note_off_c, 13, 65, 64
17, 125280, Note_on_c, 13, 61, 92
17, 126720, Note_off_c, 13, 61, 64
17, 126720, Note_on_c, 13, 62, 92
17, 128040, Note_off_c, 13, 62, 64
17, 128160, Note_on_c, 13, 65, 45
17, 129600, Note_off_c, 13, 65, 64
17, 129600, Note_on_c, 13, 65, 45
17, 131040, Note_off_c, 13, 65, 64
17, 131040, Note_on_c, 13, 65, 60
17, 132360, Note_off_c, 13, 65, 64
17, 132480, Note_on_c, 13, 68, 75
17, 133800, Note_off_c, 13, 68, 64
17, 133920, Note_on_c, 13, 61, 75
17, 134760, Note_off_c, 13, 61, 64
17, 134880, Note_on_c, 13, 65, 105
17, 135280, Note_off_c, 13, 65, 64
17, 135360, Note_on_c, 13, 62, 84
17, 135760, Note_off_c, 13, 62, 64
17, 135840, Note_on_c, 13, 59, 84
17, 136240, Note_off_c, 13, 59, 64
17, 136320, Note_on_c, 13, 58, 84
17, 136720, Note_off_c, 13, 58, 64
17, 136800, Note_on_c, 13, 62, 84
17, 137200, Note_off_c, 13, 62, 64
17, 137280, Note_on_c, 13, 65, 84
17, 137680, Note_off_c, 13, 65, 64
17, 137760, Note_on_c, 13, 66, 84
17, 138160, Note_off_c, 13, 66, 64
17, 138240, Note_on_c, 13, 65, 60
17, 138240, Note_on_c, 13, 68, 60
17, 138960, Note_off_c, 13, 68, 64
17, 138960, Note_off_c, 13, 65, 64
17, 138960, Note_on_c, 13, 66, 60
17, 138960, Note_on_c, 13, 69, 60
17, 139200, Note_off_c, 13, 69, 64
17, 139200, Note_off_c, 13, 66, 64
17, 139200, Note_on_c, 13, 65, 60
17, 139200, Note_on_c, 13, 68, 60
17, 139440, Note_off_c, 13, 68, 64
17, 139440, Note_off_c, 13, 65, 64
17, 139440, Note_on_c, 13, 63, 60
17, 139440, Note_on_c, 13, 66, 60
17, 139680, Note_off_c, 13, 66, 64
17, 139680, Note_off_c, 13, 63, 64
17, 139680, Note_on_c, 13, 61, 45
17, 139680, Note_on_c, 13, 65, 45
17, 141000, Note_off_c, 13, 65, 64
17, 141000, Note_off_c, 13, 61, 64
17, 141120, Note_on_c, 13, 57, 45
17, 142560, Note_off_c, 13, 57, 64
17, 142560, Note_on_c, 13, 56, 45
17, 144000, Note_off_c, 13, 56, 64
17, 144000, Note_on_c, 13, 57, 68
17, 145320, Note_off_c, 13, 57, 64
17, 145440, Note_on_c, 13, 65, 92
17, 150160, Note_off_c, 13, 65, 64
17, 150240, Note_on_c, 13, 65, 108
17, 150480, Note_off_c, 13, 65, 64
17, 150480, Note_on_c, 13, 66, 108
17, 150720, Note_off_c, 13, 66, 64
17, 150720, Note_on_c, 13, 65, 108
17, 151120, Note_off_c, 13, 65, 64
17, 151200, Note_on_c, 13, 66, 108
17, 151600, Note_off_c, 13, 66, 64
17, 151680, Note_on_c, 13, 57, 108
17, 151920, Note_off_c, 13, 57, 64
17, 151920, Note_on_c, 13, 59, 108
17, 152160, Note_off_c, 13, 59, 64
17, 152160, Note_on_c, 13, 61, 108
17, 152560, Note_off_c, 13, 61, 64
17, 152640, Note_on_c, 13, 62, 84
17, 153040, Note_off_c, 13, 62, 64
17, 153120, Note_on_c, 13, 65, 84
17, 153520, Note_off_c, 13, 65, 64
17, 153600, Note_on_c, 13, 57, 84
17, 154000, Note_off_c, 13, 57, 64
17, 154080, Note_on_c, 13, 57, 84
17, 154480, Note_off_c, 13, 57, 64
17, 154560, Note_on_c, 13, 68, 84
17, 154960, Note_off_c, 13, 68, 64
17, 155040, Note_on_c, 13, 68, 84
17, 155440, Note_off_c, 13, 68, 64
17, 155520, Note_on_c, 13, 54, 45
17, 155520, Note_on_c, 13, 57, 45
17, 158400, Note_off_c, 13, 57, 64
17, 158400, Note_off_c, 13, 54, 64
17, 158400, Note_on_c, 13, 52, 45
17, 158400, Note_on_c, 13, 56, 45
17, 159840, Note_off_c, 13, 56, 64
17, 159840, Note_off_c, 13, 52, 64
17, 159840, Note_on_c, 13, 58, 45
17, 159840, Note_on_c, 13, 61, 45
17, 161280, Note_off_c, 13, 61, 64
17, 161280, Note_off_c, 13, 58, 64
17, 161280, Note_on_c, 13, 59, 45
17, 161280, Note_on_c, 13, 63, 45
17, 162600, Note_off_c, 13, 63, 64
17, 162600, Note_off_c, 13, 59, 64
17, 162720, Note_on_c, 13, 59, 45
17, 162720, Note_on_c, 13, 63, 45
17, 163200, Note_off_c, 13, 63, 64
17, 163200, Note_off_c, 13, 59, 64
17, 163200, Note_on_c, 13, 51, 45
17, 163200, Note_on_c, 13, 54, 45
17, 163680, Note_off_c, 13, 54, 64
17, 163680, Note_off_c, 13, 51, 64
17, 163680, Note_on_c, 13, 51, 45
17, 163680, Note_on_c, 13, 53, 45
17, 164160, Note_off_c, 13, 53, 64
17, 164160, Note_off_c, 13, 51, 64
17, 164160, Note_on_c, 13, 52, 45
17, 164560, Note_off_c, 13, 52, 64
17, 164640, Note_on_c, 13, 57, 63
17, 165040, Note_off_c, 13, 57, 64
17, 165120, Note_on_c, 13, 61, 63
17, 165520, Note_off_c, 13, 61, 64
17, 165600, Note_on_c, 13, 61, 45
17, 165600, Note_on_c, 13, 64, 45
17, 166000, Note_off_c, 13, 64, 64
17, 166000, Note_off_c, 13, 61, 64
17, 166080, Note_on_c, 13, 49, 45
17, 166080, Note_on_c, 13, 52, 45
17, 167040, Note_off_c, 13, 52, 64
17, 167040, Note_off_c, 13, 49, 64
17, 167040, Note_on_c, 13, 54, 45
17, 167440, Note_off_c, 13, 54, 64
17, 167520, Note_on_c, 13, 59, 84
17, 167920, Note_off_c, 13, 59, 64
17, 168000, Note_on_c, 13, 63, 106
17, 168400, Note_off_c, 13, 63, 64
17, 168480, Note_on_c, 13, 62, 92
17, 168480, Note_on_c, 13, 66, 92
17, 168880, Note_off_c, 13, 66, 64
17, 168880, Note_off_c, 13, 62, 64
17, 168960, Note_on_c, 13, 52, 45
17, 168960, Note_on_c, 13, 62, 45
17, 169800, Note_off_c, 13, 62, 64
17, 169800, Note_off_c, 13, 52, 64
17, 169920, Note_on_c, 13, 64, 45
17, 171240, Note_off_c, 13, 64, 64
17, 171360, Note_on_c, 13, 66, 48
17, 172680, Note_off_c, 13, 66, 64
17, 172800, Note_on_c, 13, 59, 52
17, 174120, Note_off_c, 13, 59, 64
17, 174240, Note_on_c, 13, 58, 56
17, 175560, Note_off_c, 13, 58, 64
17, 175680, Note_on_c, 13, 66, 60
17, 176080, Note_off_c, 13, 66, 64
17, 176160, Note_on_c, 13, 66, 60
17, 176560, Note_off_c, 13, 66, 64
17, 176640, Note_on_c, 13, 66, 60
17, 177040, Note_off_c, 13, 66, 64
17, 177120, Note_on_c, 13, 63, 60
17, 177520, Note_off_c, 13, 63, 64
17, 177600, Note_on_c, 13, 66, 60
17, 178000, Note_off_c, 13, 66, 64
17, 178080, Note_on_c, 13, 63, 60
17, 178480, Note_off_c, 13, 63, 64
17, 178560, Note_on_c, 13, 63, 60
17, 178960, Note_off_c, 13, 63, 64
17, 179040, Note_on_c, 13, 64, 60
17, 179440, Note_off_c, 13, 64, 64
17, 179520, Note_on_c, 13, 61, 60
17, 179920, Note_off_c, 13, 61, 64
17, 180000, Note_on_c, 13, 61, 60
17, 180400, Note_off_c, 13, 61, 64
17, 180480, Note_on_c, 13, 64, 60
17, 180880, Note_off_c, 13, 64, 64
17, 180960, Note_on_c, 13, 61, 60
17, 181360, Note_off_c, 13, 61, 64
17, 181440, Note_on_c, 13, 59, 60
17, 181840, Note_off_c, 13, 59, 64
17, 181920, Note_on_c, 13, 63, 60
17, 182320, Note_off_c, 13, 63, 64
17, 182400, Note_on_c, 13, 59, 60
17, 182800, Note_off_c, 13, 59, 64
17, 182880, Note_on_c, 13, 51, 60
17, 183280, Note_off_c, 13, 51, 64
17, 183360, Note_on_c, 13, 54, 69
17, 183760, Note_off_c, 13, 54, 64
17, 183840, Note_on_c, 13, 57, 78
17, 184240, Note_off_c, 13, 57, 64
17, 184320, Note_on_c, 13, 59, 88
17, 184720, Note_off_c, 13, 59, 64
17, 184800, Note_on_c, 13, 59, 98
17, 185040, Note_off_c, 13, 59, 64
17, 185040, Note_on_c, 13, 61, 103
17, 185280, Note_off_c, 13, 61, 64
17, 185280, Note_on_c, 13, 63, 108
17, 185680, Note_off_c, 13, 63, 64
17, 185760, Note_on_c, 13, 64, 75
17, 187080, Note_off_c, 13, 64, 64
17, 187200, Note_on_c, 13, 61, 75
17, 188520, Note_off_c, 13, 61, 64
17, 188640, Note_on_c, 13, 59, 75
17, 189960, Note_off_c, 13, 59, 64
17, 190080, Note_on_c, 13, 61, 75
17, 190480, Note_off_c, 13, 61, 64
17, 190560, Note_on_c, 13, 63, 80
17, 190795, Note_off_c, 13, 63, 64
17, 190800, Note_on_c, 13, 64, 83
17, 191035, Note_off_c, 13, 64, 64
17, 191040, Note_on_c, 13, 69, 86
17, 191440, Note_off_c, 13, 69, 64
17, 191520, Note_on_c, 13, 63, 92
17, 192480, Note_off_c, 13, 63, 64
17, 192480, Note_on_c, 13, 64, 92
17, 192880, Note_off_c, 13, 64, 64
17, 192960, Note_on_c, 13, 61, 92
17, 193440, Note_off_c, 13, 61, 64
17, 193440, Note_on_c, 13, 63, 92
17, 194280, Note_off_c, 13, 63, 64
17, 194400, Note_on_c, 13, 64, 92
17, 195040, Note_off_c, 13, 64, 64
17, 195120, Note_on_c, 13, 66, 96
17, 195360, Note_off_c, 13, 66, 64
17, 195360, Note_on_c, 13, 64, 97
17, 195600, Note_off_c, 13, 64, 64
17, 195600, Note_on_c, 13, 63, 98
17, 195835, Note_off_c, 13, 63, 64
17, 195840, Note_on_c, 13, 64, 99
17, 196480, Note_off_c, 13, 64, 64
17, 196560, Note_on_c, 13, 66, 103
17, 196800, Note_off_c, 13, 66, 64
17, 196800, Note_on_c, 13, 64, 104
17, 197040, Note_off_c, 13, 64, 64
17, 197040, Note_on_c, 13, 63, 106
17, 197275, Note_off_c, 13, 63, 64
17, 197280, Note_on_c, 13, 59, 108
17, 199195, Note_off_c, 13, 59, 64
17, 199195, End_track
18, 0, Start_track
18, 0, MIDI_port, 0
18, 0, Channel_prefix, 14
18, 0, Control_c, 14, 7, 111
18, 0, Control_c, 14, 10, 100
18, 0, Control_c, 14, 91, 127
18, 0, Program_c, 14, 48
18, 0, Note_on_c, 14, 40, 92
18, 0, Note_on_c, 14, 47, 92
18, 400, Note_off_c, 14, 47, 64
18, 400, Note_off_c, 14, 40, 64
18, 1440, Note_on_c, 14, 40, 92
18, 1440, Note_on_c, 14, 47, 92
18, 1840, Note_off_c, 14, 47, 64
18, 1840, Note_off_c, 14, 40, 64
18, 2880, Note_on_c, 14, 40, 92
18, 2880, Note_on_c, 14, 47, 92
18, 4720, Note_off_c, 14, 47, 64
18, 4720, Note_off_c, 14, 40, 64
18, 4800, Note_on_c, 14, 44, 92
18, 5200, Note_off_c, 14, 44, 64
18, 5280, Note_on_c, 14, 47, 92
18, 5680, Note_off_c, 14, 47, 64
18, 5760, Note_on_c, 14, 40, 45
18, 5760, Note_on_c, 14, 47, 45
18, 7600, Note_off_c, 14, 47, 64
18, 7600, Note_off_c, 14, 40, 64
18, 7680, Note_on_c, 14, 44, 45
18, 8080, Note_off_c, 14, 44, 64
18, 8160, Note_on_c, 14, 47, 45
18, 8560, Note_off_c, 14, 47, 64
18, 8640, Note_on_c, 14, 40, 45
18, 8640, Note_on_c, 14, 47, 45
18, 9600, Note_off_c, 14, 47, 64
18, 9600, Note_on_c, 14, 49, 53
18, 10080, Note_off_c, 14, 49, 64
18, 10080, Note_on_c, 14, 47, 57
18, 11040, Note_off_c, 14, 47, 64
18, 11040, Note_on_c, 14, 47, 65
18, 11520, Note_off_c, 14, 47, 64
18, 11520, Note_on_c, 14, 47, 69
18, 13800, Note_off_c, 14, 40, 64
18, 13800, Note_off_c, 14, 47, 64
18, 13920, Note_on_c, 14, 47, 92
18, 14320, Note_off_c, 14, 47, 64
18, 14400, Note_on_c, 14, 40, 45
18, 14400, Note_on_c, 14, 47, 45
18, 16680, Note_off_c, 14, 47, 64
18, 16680, Note_off_c, 14, 40, 64
18, 16800, Note_on_c, 14, 47, 45
18, 17200, Note_off_c, 14, 47, 64
18, 17280, Note_on_c, 14, 40, 75
18, 17280, Note_on_c, 14, 47, 75
18, 18955, Note_off_c, 14, 47, 64
18, 18955, Note_off_c, 14, 40, 64
18, 18960, Note_on_c, 14, 52, 92
18, 19200, Note_off_c, 14, 52, 64
18, 19200, Note_on_c, 14, 51, 92
18, 19440, Note_off_c, 14, 51, 64
18, 19440, Note_on_c, 14, 52, 92
18, 19680, Note_off_c, 14, 52, 64
18, 19680, Note_on_c, 14, 49, 92
18, 19920, Note_off_c, 14, 49, 64
18, 19920, Note_on_c, 14, 51, 92
18, 20155, Note_off_c, 14, 51, 64
18, 20160, Note_on_c, 14, 40, 60
18, 20160, Note_on_c, 14, 47, 60
18, 21835, Note_off_c, 14, 47, 64
18, 21835, Note_off_c, 14, 40, 64
18, 21840, Note_on_c, 14, 52, 92
18, 22080, Note_off_c, 14, 52, 64
18, 22080, Note_on_c, 14, 51, 92
18, 22320, Note_off_c, 14, 51, 64
18, 22320, Note_on_c, 14, 52, 92
18, 22560, Note_off_c, 14, 52, 64
18, 22560, Note_on_c, 14, 49, 92
18, 22800, Note_off_c, 14, 49, 64
18, 22800, Note_on_c, 14, 51, 92
18, 23035, Note_off_c, 14, 51, 64
18, 23040, Note_on_c, 14, 40, 60
18, 23040, Note_on_c, 14, 47, 60
18, 27360, Note_off_c, 14, 47, 64
18, 27360, Note_on_c, 14, 49, 60
18, 28680, Note_off_c, 14, 40, 64
18, 28680, Note_off_c, 14, 49, 64
18, 28800, Note_on_c, 14, 40, 75
18, 28800, Note_on_c, 14, 47, 75
18, 30240, Note_off_c, 14, 47, 64
18, 30240, Note_off_c, 14, 40, 64
18, 30240, Note_on_c, 14, 40, 75
18, 30240, Note_on_c, 14, 47, 75
18, 31560, Note_off_c, 14, 47, 64
18, 31560, Note_off_c, 14, 40, 64
18, 31680, Note_on_c, 14, 40, 45
18, 31680, Note_on_c, 14, 49, 45
18, 33120, Note_off_c, 14, 49, 64
18, 33120, Note_off_c, 14, 40, 64
18, 33120, Note_on_c, 14, 42, 45
18, 33120, Note_on_c, 14, 49, 45
18, 34560, Note_off_c, 14, 49, 64
18, 34560, Note_off_c, 14, 42, 64
18, 34560, Note_on_c, 14, 40, 45
18, 34560, Note_on_c, 14, 47, 45
18, 37440, Note_off_c, 14, 47, 64
18, 37440, Note_off_c, 14, 40, 64
18, 37440, Note_on_c, 14, 47, 45
18, 37440, Note_on_c, 14, 54, 45
18, 38880, Note_off_c, 14, 54, 64
18, 38880, Note_off_c, 14, 47, 64
18, 38880, Note_on_c, 14, 47, 45
18, 38880, Note_on_c, 14, 54, 45
18, 39280, Note_off_c, 14, 47, 64
18, 39360, Note_on_c, 14, 51, 45
18, 39760, Note_off_c, 14, 51, 64
18, 39840, Note_on_c, 14, 54, 45
18, 40200, Note_off_c, 14, 54, 64
18, 40240, Note_off_c, 14, 54, 64
18, 40320, Note_on_c, 14, 40, 75
18, 40320, Note_on_c, 14, 47, 75
18, 40720, Note_off_c, 14, 47, 64
18, 40720, Note_off_c, 14, 40, 64
18, 41760, Note_on_c, 14, 40, 78
18, 41760, Note_on_c, 14, 47, 78
18, 42160, Note_off_c, 14, 47, 64
18, 42160, Note_off_c, 14, 40, 64
18, 43200, Note_on_c, 14, 40, 82
18, 43200, Note_on_c, 14, 47, 82
18, 43600, Note_off_c, 14, 47, 64
18, 43600, Note_off_c, 14, 40, 64
18, 45600, Note_on_c, 14, 37, 92
18, 45600, Note_on_c, 14, 44, 92
18, 46080, Note_off_c, 14, 44, 64
18, 46080, Note_off_c, 14, 37, 64
18, 46080, Note_on_c, 14, 37, 45
18, 46080, Note_on_c, 14, 44, 45
18, 46480, Note_off_c, 14, 44, 64
18, 46480, Note_off_c, 14, 37, 64
18, 47520, Note_on_c, 14, 37, 45
18, 47520, Note_on_c, 14, 44, 45
18, 47920, Note_off_c, 14, 44, 64
18, 47920, Note_off_c, 14, 37, 64
18, 48960, Note_on_c, 14, 37, 62
18, 48960, Note_on_c, 14, 44, 62
18, 49360, Note_off_c, 14, 44, 64
18, 49360, Note_off_c, 14, 37, 64
18, 51360, Note_on_c, 14, 37, 92
18, 51360, Note_on_c, 14, 44, 92
18, 51840, Note_off_c, 14, 44, 64
18, 51840, Note_off_c, 14, 37, 64
18, 51840, Note_on_c, 14, 42, 92
18, 51840, Note_on_c, 14, 49, 92
18, 52240, Note_off_c, 14, 49, 64
18, 52240, Note_off_c, 14, 42, 64
18, 52800, Note_on_c, 14, 44, 92
18, 52800, Note_on_c, 14, 51, 92
18, 52800, Note_on_c, 14, 56, 92
18, 53280, Note_off_c, 14, 56, 64
18, 53280, Note_off_c, 14, 51, 64
18, 53280, Note_off_c, 14, 44, 64
18, 53280, Note_on_c, 14, 37, 92
18, 53280, Note_on_c, 14, 44, 92
18, 53280, Note_on_c, 14, 49, 92
18, 53280, Note_on_c, 14, 56, 92
18, 54600, Note_off_c, 14, 56, 64
18, 54600, Note_off_c, 14, 49, 64
18, 54600, Note_off_c, 14, 44, 64
18, 54600, Note_off_c, 14, 37, 64
18, 54720, Note_on_c, 14, 44, 92
18, 54720, Note_on_c, 14, 51, 92
18, 57480, Note_off_c, 14, 51, 64
18, 57480, Note_off_c, 14, 44, 64
18, 57600, Note_on_c, 14, 44, 75
18, 57600, Note_on_c, 14, 51, 75
18, 59440, Note_off_c, 14, 51, 64
18, 59440, Note_off_c, 14, 44, 64
18, 59520, Note_on_c, 14, 48, 75
18, 59920, Note_off_c, 14, 48, 64
18, 60000, Note_on_c, 14, 51, 75
18, 60400, Note_off_c, 14, 51, 64
18, 60480, Note_on_c, 14, 44, 60
18, 60480, Note_on_c, 14, 51, 60
18, 61920, Note_off_c, 14, 51, 64
18, 61920, Note_off_c, 14, 44, 64
18, 61920, Note_on_c, 14, 44, 60
18, 61920, Note_on_c, 14, 49, 60
18, 63240, Note_off_c, 14, 49, 64
18, 63240, Note_off_c, 14, 44, 64
18, 63360, Note_on_c, 14, 44, 45
18, 63360, Note_on_c, 14, 51, 45
18, 64800, Note_off_c, 14, 51, 64
18, 64800, Note_off_c, 14, 44, 64
18, 64800, Note_on_c, 14, 37, 45
18, 64800, Note_on_c, 14, 44, 45
18, 64800, Note_on_c, 14, 49, 45
18, 66120, Note_off_c, 14, 49, 64
18, 66120, Note_off_c, 14, 44, 64
18, 66120, Note_off_c, 14, 37, 64
18, 66240, Note_on_c, 14, 37, 60
18, 66240, Note_on_c, 14, 46, 60
18, 67680, Note_off_c, 14, 46, 64
18, 67680, Note_off_c, 14, 37, 64
18, 67680, Note_on_c, 14, 37, 45
18, 67680, Note_on_c, 14, 46, 45
18, 69120, Note_off_c, 14, 46, 64
18, 69120, Note_off_c, 14, 37, 64
18, 69120, Note_on_c, 14, 37, 75
18, 69120, Note_on_c, 14, 44, 75
18, 70560, Note_off_c, 14, 44, 64
18, 70560, Note_off_c, 14, 37, 64
18, 70560, Note_on_c, 14, 44, 45
18, 70560, Note_on_c, 14, 51, 45
18, 70960, Note_off_c, 14, 51, 64
18, 70960, Note_off_c, 14, 44, 64
18, 71040, Note_on_c, 14, 51, 45
18, 71040, Note_on_c, 14, 56, 45
18, 71440, Note_off_c, 14, 56, 64
18, 71440, Note_off_c, 14, 51, 64
18, 71520, Note_on_c, 14, 48, 45
18, 71520, Note_on_c, 14, 54, 45
18, 71920, Note_off_c, 14, 54, 64
18, 71920, Note_off_c, 14, 48, 64
18, 72000, Note_on_c, 14, 37, 92
18, 72000, Note_on_c, 14, 44, 92
18, 72000, Note_on_c, 14, 49, 92
18, 72400, Note_off_c, 14, 49, 64
18, 72400, Note_off_c, 14, 44, 64
18, 72400, Note_off_c, 14, 37, 64
18, 73440, Note_on_c, 14, 37, 92
18, 73440, Note_on_c, 14, 44, 92
18, 73440, Note_on_c, 14, 49, 92
18, 73840, Note_off_c, 14, 49, 64
18, 73840, Note_off_c, 14, 44, 64
18, 73840, Note_off_c, 14, 37, 64
18, 74880, Note_on_c, 14, 42, 92
18, 74880, Note_on_c, 14, 49, 92
18, 76320, Note_off_c, 14, 42, 64
18, 76320, Note_on_c, 14, 42, 60
18, 76720, Note_off_c, 14, 49, 64
18, 76720, Note_off_c, 14, 42, 64
18, 76800, Note_on_c, 14, 49, 60
18, 76800, Note_on_c, 14, 54, 60
18, 77200, Note_off_c, 14, 54, 64
18, 77200, Note_off_c, 14, 49, 64
18, 77280, Note_on_c, 14, 46, 60
18, 77280, Note_on_c, 14, 54, 60
18, 77680, Note_off_c, 14, 54, 64
18, 77680, Note_off_c, 14, 46, 64
18, 77760, Note_on_c, 14, 47, 92
18, 77760, Note_on_c, 14, 54, 92
18, 78160, Note_off_c, 14, 54, 64
18, 78160, Note_off_c, 14, 47, 64
18, 79200, Note_on_c, 14, 47, 75
18, 79200, Note_on_c, 14, 54, 75
18, 79600, Note_off_c, 14, 54, 64
18, 79600, Note_off_c, 14, 47, 64
18, 80640, Note_on_c, 14, 40, 92
18, 80640, Note_on_c, 14, 47, 92
18, 80640, Note_on_c, 14, 52, 92
18, 82080, Note_off_c, 14, 52, 64
18, 82080, Note_off_c, 14, 47, 64
18, 82080, Note_off_c, 14, 40, 64
18, 82080, Note_on_c, 14, 47, 45
18, 82080, Note_on_c, 14, 52, 45
18, 83400, Note_off_c, 14, 52, 64
18, 83400, Note_off_c, 14, 47, 64
18, 83520, Note_on_c, 14, 45, 92
18, 83520, Note_on_c, 14, 52, 92
18, 85360, Note_off_c, 14, 52, 64
18, 85360, Note_off_c, 14, 45, 64
18, 85440, Note_on_c, 14, 49, 92
18, 85840, Note_off_c, 14, 49, 64
18, 85920, Note_on_c, 14, 52, 92
18, 86320, Note_off_c, 14, 52, 64
18, 86400, Note_on_c, 14, 45, 60
18, 86400, Note_on_c, 14, 52, 60
18, 88240, Note_off_c, 14, 52, 64
18, 88240, Note_off_c, 14, 45, 64
18, 88320, Note_on_c, 14, 49, 60
18, 88720, Note_off_c, 14, 49, 64
18, 88800, Note_on_c, 14, 52, 60
18, 89200, Note_off_c, 14, 52, 64
18, 89280, Note_on_c, 14, 45, 92
18, 89280, Note_on_c, 14, 52, 92
18, 90720, Note_off_c, 14, 45, 64
18, 90720, Note_on_c, 14, 45, 92
18, 91560, Note_off_c, 14, 52, 64
18, 91560, Note_off_c, 14, 45, 64
18, 91680, Note_on_c, 14, 52, 92
18, 92080, Note_off_c, 14, 52, 64
18, 92160, Note_on_c, 14, 45, 60
18, 92160, Note_on_c, 14, 52, 60
18, 94440, Note_off_c, 14, 52, 64
18, 94440, Note_off_c, 14, 45, 64
18, 94560, Note_on_c, 14, 40, 60
18, 94960, Note_off_c, 14, 40, 64
18, 95040, Note_on_c, 14, 45, 108
18, 95040, Note_on_c, 14, 52, 108
18, 96480, Note_off_c, 14, 45, 64
18, 96480, Note_on_c, 14, 44, 108
18, 97920, Note_off_c, 14, 44, 64
18, 97920, Note_on_c, 14, 43, 108
18, 99360, Note_off_c, 14, 52, 64
18, 99360, Note_off_c, 14, 43, 64
18, 99360, Note_on_c, 14, 42, 108
18, 99360, Note_on_c, 14, 49, 108
18, 100800, Note_off_c, 14, 49, 64
18, 100800, Note_off_c, 14, 42, 64
18, 100800, Note_on_c, 14, 40, 108
18, 100800, Note_on_c, 14, 52, 108
18, 102120, Note_off_c, 14, 52, 64
18, 102120, Note_off_c, 14, 40, 64
18, 102240, Note_on_c, 14, 45, 92
18, 102240, Note_on_c, 14, 52, 92
18, 103680, Note_off_c, 14, 52, 64
18, 103680, Note_off_c, 14, 45, 64
18, 103680, Note_on_c, 14, 38, 92
18, 103680, Note_on_c, 14, 45, 92
18, 103680, Note_on_c, 14, 52, 92
18, 105120, Note_off_c, 14, 52, 64
18, 105120, Note_off_c, 14, 45, 64
18, 105120, Note_off_c, 14, 38, 64
18, 105120, Note_on_c, 14, 38, 92
18, 105120, Note_on_c, 14, 45, 92
18, 105120, Note_on_c, 14, 50, 92
18, 106560, Note_off_c, 14, 50, 64
18, 106560, Note_off_c, 14, 45, 64
18, 106560, Note_off_c, 14, 38, 64
18, 106560, Note_on_c, 14, 40, 76
18, 106560, Note_on_c, 14, 45, 76
18, 106560, Note_on_c, 14, 52, 76
18, 108000, Note_off_c, 14, 52, 64
18, 108000, Note_off_c, 14, 45, 64
18, 108000, Note_off_c, 14, 40, 64
18, 108000, Note_on_c, 14, 45, 60
18, 108000, Note_on_c, 14, 52, 60
18, 109440, Note_off_c, 14, 52, 64
18, 109440, Note_off_c, 14, 45, 64
18, 109440, Note_on_c, 14, 47, 60
18, 109440, Note_on_c, 14, 52, 60
18, 110880, Note_off_c, 14, 52, 64
18, 110880, Note_off_c, 14, 47, 64
18, 110880, Note_on_c, 14, 40, 45
18, 110880, Note_on_c, 14, 47, 45
18, 110880, Note_on_c, 14, 52, 45
18, 112200, Note_off_c, 14, 52, 64
18, 112200, Note_off_c, 14, 47, 64
18, 112200, Note_off_c, 14, 40, 64
18, 112320, Note_on_c, 14, 45, 60
18, 112320, Note_on_c, 14, 52, 60
18, 112720, Note_off_c, 14, 52, 64
18, 112720, Note_off_c, 14, 45, 64
18, 113760, Note_on_c, 14, 45, 68
18, 113760, Note_on_c, 14, 52, 68
18, 114160, Note_off_c, 14, 52, 64
18, 114160, Note_off_c, 14, 45, 64
18, 115200, Note_on_c, 14, 45, 77
18, 115200, Note_on_c, 14, 52, 77
18, 115600, Note_off_c, 14, 52, 64
18, 115600, Note_off_c, 14, 45, 64
18, 117600, Note_on_c, 14, 42, 92
18, 117600, Note_on_c, 14, 52, 92
18, 118080, Note_off_c, 14, 52, 64
18, 118080, Note_off_c, 14, 42, 64
18, 118080, Note_on_c, 14, 47, 45
18, 118080, Note_on_c, 14, 54, 45
18, 118480, Note_off_c, 14, 54, 64
18, 118480, Note_off_c, 14, 47, 64
18, 119520, Note_on_c, 14, 47, 57
18, 119520, Note_on_c, 14, 54, 57
18, 119920, Note_off_c, 14, 54, 64
18, 119920, Note_off_c, 14, 47, 64
18, 120960, Note_on_c, 14, 47, 69
18, 120960, Note_on_c, 14, 54, 69
18, 121360, Note_off_c, 14, 54, 64
18, 121360, Note_off_c, 14, 47, 64
18, 123360, Note_on_c, 14, 44, 92
18, 123360, Note_on_c, 14, 51, 92
18, 123360, Note_on_c, 14, 56, 92
18, 123840, Note_off_c, 14, 56, 64
18, 123840, Note_off_c, 14, 51, 64
18, 123840, Note_off_c, 14, 44, 64
18, 123840, Note_on_c, 14, 41, 92
18, 123840, Note_on_c, 14, 47, 92
18, 123840, Note_on_c, 14, 53, 92
18, 124240, Note_off_c, 14, 53, 64
18, 124240, Note_off_c, 14, 47, 64
18, 124240, Note_off_c, 14, 41, 64
18, 124320, Note_on_c, 14, 44, 92
18, 124720, Note_off_c, 14, 44, 64
18, 124800, Note_on_c, 14, 47, 92
18, 125200, Note_off_c, 14, 47, 64
18, 125280, Note_on_c, 14, 42, 92
18, 125280, Note_on_c, 14, 49, 92
18, 125680, Note_off_c, 14, 49, 64
18, 125680, Note_off_c, 14, 42, 64
18, 125760, Note_on_c, 14, 45, 92
18, 126160, Note_off_c, 14, 45, 64
18, 126240, Note_on_c, 14, 49, 92
18, 126640, Note_off_c, 14, 49, 64
18, 126720, Note_on_c, 14, 47, 92
18, 126720, Note_on_c, 14, 54, 92
18, 128040, Note_off_c, 14, 54, 64
18, 128040, Note_off_c, 14, 47, 64
18, 128160, Note_on_c, 14, 37, 45
18, 128160, Note_on_c, 14, 49, 45
18, 128160, Note_on_c, 14, 56, 45
18, 129600, Note_off_c, 14, 56, 64
18, 129600, Note_off_c, 14, 49, 64
18, 129600, Note_off_c, 14, 37, 64
18, 129600, Note_on_c, 14, 37, 45
18, 129600, Note_on_c, 14, 49, 45
18, 129600, Note_on_c, 14, 56, 45
18, 131040, Note_off_c, 14, 56, 64
18, 131040, Note_off_c, 14, 49, 64
18, 131040, Note_off_c, 14, 37, 64
18, 131040, Note_on_c, 14, 37, 60
18, 131040, Note_on_c, 14, 49, 60
18, 131040, Note_on_c, 14, 56, 60
18, 132360, Note_off_c, 14, 56, 64
18, 132360, Note_off_c, 14, 49, 64
18, 132360, Note_off_c, 14, 37, 64
18, 132480, Note_on_c, 14, 37, 75
18, 132480, Note_on_c, 14, 49, 75
18, 132480, Note_on_c, 14, 56, 75
18, 133320, Note_off_c, 14, 56, 64
18, 133320, Note_off_c, 14, 49, 64
18, 133320, Note_off_c, 14, 37, 64
18, 133440, Note_on_c, 14, 37, 92
18, 133440, Note_on_c, 14, 49, 92
18, 133840, Note_off_c, 14, 49, 64
18, 133840, Note_off_c, 14, 37, 64
18, 133920, Note_on_c, 14, 42, 92
18, 133920, Note_on_c, 14, 49, 92
18, 134320, Note_off_c, 14, 49, 64
18, 134320, Note_off_c, 14, 42, 64
18, 134400, Note_on_c, 14, 45, 92
18, 134400, Note_on_c, 14, 54, 92
18, 134800, Note_off_c, 14, 54, 64
18, 134800, Note_off_c, 14, 45, 64
18, 134880, Note_on_c, 14, 49, 92
18, 134880, Note_on_c, 14, 56, 92
18, 135280, Note_off_c, 14, 56, 64
18, 135280, Note_off_c, 14, 49, 64
18, 135360, Note_on_c, 14, 47, 60
18, 135360, Note_on_c, 14, 54, 60
18, 135760, Note_off_c, 14, 54, 64
18, 135760, Note_off_c, 14, 47, 64
18, 135840, Note_on_c, 14, 51, 60
18, 135840, Note_on_c, 14, 56, 60
18, 136240, Note_off_c, 14, 56, 64
18, 136240, Note_off_c, 14, 51, 64
18, 136320, Note_on_c, 14, 46, 60
18, 136320, Note_on_c, 14, 54, 60
18, 136720, Note_off_c, 14, 54, 64
18, 136720, Note_off_c, 14, 46, 64
18, 136800, Note_on_c, 14, 47, 60
18, 136800, Note_on_c, 14, 56, 60
18, 137200, Note_off_c, 14, 56, 64
18, 137200, Note_off_c, 14, 47, 64
18, 137280, Note_on_c, 14, 44, 60
18, 137280, Note_on_c, 14, 53, 60
18, 137680, Note_off_c, 14, 53, 64
18, 137680, Note_off_c, 14, 44, 64
18, 137760, Note_on_c, 14, 45, 60
18, 137760, Note_on_c, 14, 54, 60
18, 138160, Note_off_c, 14, 54, 64
18, 138160, Note_off_c, 14, 45, 64
18, 138240, Note_on_c, 14, 37, 45
18, 138240, Note_on_c, 14, 53, 45
18, 139560, Note_off_c, 14, 53, 64
18, 139560, Note_off_c, 14, 37, 64
18, 139680, Note_on_c, 14, 37, 45
18, 139680, Note_on_c, 14, 53, 45
18, 141000, Note_off_c, 14, 53, 64
18, 141000, Note_off_c, 14, 37, 64
18, 141120, Note_on_c, 14, 45, 45
18, 141120, Note_on_c, 14, 54, 45
18, 142560, Note_off_c, 14, 54, 64
18, 142560, Note_off_c, 14, 45, 64
18, 142560, Note_on_c, 14, 44, 45
18, 142560, Note_on_c, 14, 49, 45
18, 144000, Note_off_c, 14, 49, 64
18, 144000, Note_off_c, 14, 44, 64
18, 144000, Note_on_c, 14, 45, 68
18, 144000, Note_on_c, 14, 54, 68
18, 145320, Note_off_c, 14, 54, 64
18, 145320, Note_off_c, 14, 45, 64
18, 145440, Note_on_c, 14, 44, 92
18, 145440, Note_on_c, 14, 49, 92
18, 150160, Note_off_c, 14, 49, 64
18, 150160, Note_off_c, 14, 44, 64
18, 150240, Note_on_c, 14, 41, 108
18, 150240, Note_on_c, 14, 49, 108
18, 150480, Note_off_c, 14, 49, 64
18, 150480, Note_off_c, 14, 41, 64
18, 150480, Note_on_c, 14, 42, 108
18, 150480, Note_on_c, 14, 51, 108
18, 150720, Note_off_c, 14, 51, 64
18, 150720, Note_off_c, 14, 42, 64
18, 150720, Note_on_c, 14, 44, 108
18, 150720, Note_on_c, 14, 53, 108
18, 151120, Note_off_c, 14, 53, 64
18, 151120, Note_off_c, 14, 44, 64
18, 151200, Note_on_c, 14, 45, 108
18, 151200, Note_on_c, 14, 54, 108
18, 151600, Note_off_c, 14, 54, 64
18, 151600, Note_off_c, 14, 45, 64
18, 151680, Note_on_c, 14, 45, 108
18, 151680, Note_on_c, 14, 54, 108
18, 151920, Note_off_c, 14, 54, 64
18, 151920, Note_off_c, 14, 45, 64
18, 151920, Note_on_c, 14, 47, 108
18, 151920, Note_on_c, 14, 56, 108
18, 152160, Note_off_c, 14, 56, 64
18, 152160, Note_off_c, 14, 47, 64
18, 152160, Note_on_c, 14, 49, 108
18, 152160, Note_on_c, 14, 57, 108
18, 152560, Note_off_c, 14, 57, 64
18, 152560, Note_off_c, 14, 49, 64
18, 152640, Note_on_c, 14, 53, 60
18, 152640, Note_on_c, 14, 59, 60
18, 153040, Note_off_c, 14, 59, 64
18, 153040, Note_off_c, 14, 53, 64
18, 153120, Note_on_c, 14, 49, 60
18, 153120, Note_on_c, 14, 56, 60
18, 153520, Note_off_c, 14, 56, 64
18, 153520, Note_off_c, 14, 49, 64
18, 153600, Note_on_c, 14, 45, 60
18, 153600, Note_on_c, 14, 54, 60
18, 154000, Note_off_c, 14, 54, 64
18, 154000, Note_off_c, 14, 45, 64
18, 154080, Note_on_c, 14, 45, 60
18, 154080, Note_on_c, 14, 54, 60
18, 154480, Note_off_c, 14, 54, 64
18, 154480, Note_off_c, 14, 45, 64
18, 154560, Note_on_c, 14, 44, 60
18, 154560, Note_on_c, 14, 49, 60
18, 154960, Note_off_c, 14, 49, 64
18, 154960, Note_off_c, 14, 44, 64
18, 155040, Note_on_c, 14, 44, 60
18, 155040, Note_on_c, 14, 49, 60
18, 155440, Note_off_c, 14, 49, 64
18, 155440, Note_off_c, 14, 44, 64
18, 155520, Note_on_c, 14, 45, 45
18, 155520, Note_on_c, 14, 54, 45
18, 158400, Note_off_c, 14, 54, 64
18, 158400, Note_off_c, 14, 45, 64
18, 158400, Note_on_c, 14, 47, 45
18, 158400, Note_on_c, 14, 52, 45
18, 159840, Note_off_c, 14, 52, 64
18, 159840, Note_off_c, 14, 47, 64
18, 159840, Note_on_c, 14, 45, 45
18, 159840, Note_on_c, 14, 54, 45
18, 161280, Note_off_c, 14, 54, 64
18, 161280, Note_off_c, 14, 45, 64
18, 161280, Note_on_c, 14, 47, 45
18, 161280, Note_on_c, 14, 54, 45
18, 162600, Note_off_c, 14, 54, 64
18, 162600, Note_off_c, 14, 47, 64
18, 162720, Note_on_c, 14, 47, 45
18, 162720, Note_on_c, 14, 54, 45
18, 164160, Note_off_c, 14, 54, 64
18, 164160, Note_off_c, 14, 47, 64
18, 164160, Note_on_c, 14, 45, 45
18, 164160, Note_on_c, 14, 52, 45
18, 164560, Note_off_c, 14, 52, 64
18, 164560, Note_off_c, 14, 45, 64
18, 164640, Note_on_c, 14, 49, 45
18, 165040, Note_off_c, 14, 49, 64
18, 165120, Note_on_c, 14, 52, 45
18, 165520, Note_off_c, 14, 52, 64
18, 165600, Note_on_c, 14, 45, 45
18, 165600, Note_on_c, 14, 52, 45
18, 167040, Note_off_c, 14, 52, 64
18, 167040, Note_off_c, 14, 45, 64
18, 167040, Note_on_c, 14, 47, 45
18, 167040, Note_on_c, 14, 54, 45
18, 167440, Note_off_c, 14, 54, 64
18, 167440, Note_off_c, 14, 47, 64
18, 167520, Note_on_c, 14, 51, 45
18, 167920, Note_off_c, 14, 51, 64
18, 168000, Note_on_c, 14, 54, 45
18, 168400, Note_off_c, 14, 54, 64
18, 168480, Note_on_c, 14, 52, 45
18, 168480, Note_on_c, 14, 59, 45
18, 169800, Note_off_c, 14, 59, 64
18, 169800, Note_off_c, 14, 52, 64
18, 169920, Note_on_c, 14, 52, 45
18, 169920, Note_on_c, 14, 57, 45
18, 171240, Note_off_c, 14, 57, 64
18, 171240, Note_off_c, 14, 52, 64
18, 171360, Note_on_c, 14, 51, 48
18, 171360, Note_on_c, 14, 59, 48
18, 172680, Note_off_c, 14, 59, 64
18, 172680, Note_off_c, 14, 51, 64
18, 172800, Note_on_c, 14, 47, 52
18, 172800, Note_on_c, 14, 52, 52
18, 174120, Note_off_c, 14, 52, 64
18, 174120, Note_off_c, 14, 47, 64
18, 174240, Note_on_c, 14, 49, 56
18, 174240, Note_on_c, 14, 54, 56
18, 175560, Note_off_c, 14, 54, 64
18, 175560, Note_off_c, 14, 49, 64
18, 175680, Note_on_c, 14, 47, 60
18, 175680, Note_on_c, 14, 54, 60
18, 176080, Note_off_c, 14, 54, 64
18, 176080, Note_off_c, 14, 47, 64
18, 176160, Note_on_c, 14, 51, 60
18, 176560, Note_off_c, 14, 51, 64
18, 176640, Note_on_c, 14, 54, 60
18, 177040, Note_off_c, 14, 54, 64
18, 177120, Note_on_c, 14, 51, 60
18, 177120, Note_on_c, 14, 59, 60
18, 177520, Note_off_c, 14, 59, 64
18, 177520, Note_off_c, 14, 51, 64
18, 177600, Note_on_c, 14, 54, 60
18, 178000, Note_off_c, 14, 54, 64
18, 178080, Note_on_c, 14, 59, 60
18, 178480, Note_off_c, 14, 59, 64
18, 178560, Note_on_c, 14, 47, 60
18, 178560, Note_on_c, 14, 54, 60
18, 179400, Note_off_c, 14, 54, 64
18, 179400, Note_off_c, 14, 47, 64
18, 179520, Note_on_c, 14, 45, 60
18, 179520, Note_on_c, 14, 52, 60
18, 179920, Note_off_c, 14, 52, 64
18, 179920, Note_off_c, 14, 45, 64
18, 180000, Note_on_c, 14, 45, 60
18, 180000, Note_on_c, 14, 52, 60
18, 180400, Note_off_c, 14, 52, 64
18, 180400, Note_off_c, 14, 45, 64
18, 180480, Note_on_c, 14, 49, 60
18, 180880, Note_off_c, 14, 49, 64
18, 180960, Note_on_c, 14, 52, 60
18, 181360, Note_off_c, 14, 52, 64
18, 181440, Note_on_c, 14, 52, 60
18, 181840, Note_off_c, 14, 52, 64
18, 181920, Note_on_c, 14, 47, 60
18, 182320, Note_off_c, 14, 47, 64
18, 182400, Note_on_c, 14, 44, 60
18, 182800, Note_off_c, 14, 44, 64
18, 182880, Note_on_c, 14, 47, 60
18, 183280, Note_off_c, 14, 47, 64
18, 183360, Note_on_c, 14, 51, 69
18, 183760, Note_off_c, 14, 51, 64
18, 183840, Note_on_c, 14, 54, 78
18, 184240, Note_off_c, 14, 54, 64
18, 184320, Note_on_c, 14, 56, 88
18, 184720, Note_off_c, 14, 56, 64
18, 184800, Note_on_c, 14, 47, 98
18, 184800, Note_on_c, 14, 56, 98
18, 185040, Note_off_c, 14, 56, 64
18, 185040, Note_off_c, 14, 47, 64
18, 185040, Note_on_c, 14, 49, 103
18, 185040, Note_on_c, 14, 57, 103
18, 185280, Note_off_c, 14, 57, 64
18, 185280, Note_off_c, 14, 49, 64
18, 185280, Note_on_c, 14, 51, 108
18, 185280, Note_on_c, 14, 59, 108
18, 185680, Note_off_c, 14, 59, 64
18, 185680, Note_off_c, 14, 51, 64
18, 185760, Note_on_c, 14, 47, 75
18, 185760, Note_on_c, 14, 52, 75
18, 187080, Note_off_c, 14, 52, 64
18, 187080, Note_off_c, 14, 47, 64
18, 187200, Note_on_c, 14, 49, 75
18, 187200, Note_on_c, 14, 57, 75
18, 188520, Note_off_c, 14, 57, 64
18, 188520, Note_off_c, 14, 49, 64
18, 188640, Note_on_c, 14, 47, 75
18, 188640, Note_on_c, 14, 52, 75
18, 189960, Note_off_c, 14, 52, 64
18, 189960, Note_off_c, 14, 47, 64
18, 190080, Note_on_c, 14, 45, 75
18, 190080, Note_on_c, 14, 52, 75
18, 190480, Note_off_c, 14, 52, 64
18, 190480, Note_off_c, 14, 45, 64
18, 190560, Note_on_c, 14, 42, 80
18, 190560, Note_on_c, 14, 54, 80
18, 190795, Note_off_c, 14, 54, 64
18, 190795, Note_off_c, 14, 42, 64
18, 190800, Note_on_c, 14, 40, 83
18, 190800, Note_on_c, 14, 52, 83
18, 191035, Note_off_c, 14, 52, 64
18, 191035, Note_off_c, 14, 40, 64
18, 191040, Note_on_c, 14, 39, 86
18, 191040, Note_on_c, 14, 51, 86
18, 191275, Note_off_c, 14, 51, 64
18, 191275, Note_off_c, 14, 39, 64
18, 191280, Note_on_c, 14, 37, 89
18, 191280, Note_on_c, 14, 49, 89
18, 191515, Note_off_c, 14, 49, 64
18, 191515, Note_off_c, 14, 37, 64
18, 191520, Note_on_c, 14, 42, 92
18, 191520, Note_on_c, 14, 47, 92
18, 192480, Note_off_c, 14, 47, 64
18, 192480, Note_off_c, 14, 42, 64
18, 192480, Note_on_c, 14, 44, 92
18, 192480, Note_on_c, 14, 52, 92
18, 192880, Note_off_c, 14, 52, 64
18, 192880, Note_off_c, 14, 44, 64
18, 192960, Note_on_c, 14, 45, 92
18, 192960, Note_on_c, 14, 52, 92
18, 193440, Note_off_c, 14, 52, 64
18, 193440, Note_off_c, 14, 45, 64
18, 193440, Note_on_c, 14, 47, 92
18, 193440, Note_on_c, 14, 54, 92
18, 193840, Note_off_c, 14, 54, 64
18, 193840, Note_off_c, 14, 47, 64
18, 193920, Note_on_c, 14, 47, 92
18, 193920, Note_on_c, 14, 54, 92
18, 194320, Note_off_c, 14, 54, 64
18, 194320, Note_off_c, 14, 47, 64
18, 194400, Note_on_c, 14, 40, 92
18, 194400, Note_on_c, 14, 47, 92
18, 194400, Note_on_c, 14, 52, 92
18, 194800, Note_off_c, 14, 52, 64
18, 194800, Note_off_c, 14, 47, 64
18, 194800, Note_off_c, 14, 40, 64
18, 194880, Note_on_c, 14, 44, 94
18, 194880, Note_on_c, 14, 56, 94
18, 195120, Note_off_c, 14, 56, 64
18, 195120, Note_off_c, 14, 44, 64
18, 195120, Note_on_c, 14, 45, 95
18, 195120, Note_on_c, 14, 57, 95
18, 195360, Note_off_c, 14, 57, 64
18, 195360, Note_off_c, 14, 45, 64
18, 195360, Note_on_c, 14, 47, 96
18, 195360, Note_on_c, 14, 59, 96
18, 195760, Note_off_c, 14, 59, 64
18, 195760, Note_off_c, 14, 47, 64
18, 195840, Note_on_c, 14, 40, 99
18, 195840, Note_on_c, 14, 47, 99
18, 195840, Note_on_c, 14, 52, 99
18, 196240, Note_off_c, 14, 52, 64
18, 196240, Note_off_c, 14, 47, 64
18, 196240, Note_off_c, 14, 40, 64
18, 196320, Note_on_c, 14, 56, 102
18, 196560, Note_off_c, 14, 56, 64
18, 196560, Note_on_c, 14, 57, 103
18, 196800, Note_off_c, 14, 57, 64
18, 196800, Note_on_c, 14, 59, 104
18, 197200, Note_off_c, 14, 59, 64
18, 197280, Note_on_c, 14, 40, 108
18, 197280, Note_on_c, 14, 47, 108
18, 197280, Note_on_c, 14, 52, 108
18, 199195, Note_off_c, 14, 52, 64
18, 199195, Note_off_c, 14, 47, 64
18, 199195, Note_off_c, 14, 40, 64
18, 199195, End_track
19, 0, Start_track
19, 0, MIDI_port, 0
19, 0, Channel_prefix, 15
19, 0, Control_c, 15, 7, 107
19, 0, Control_c, 15, 10, 120
19, 0, Control_c, 15, 91, 127
19, 0, Program_c, 15, 48
19, 0, Note_on_c, 15, 40, 92
19, 400, Note_off_c, 15, 40, 64
19, 1440, Note_on_c, 15, 40, 92
19, 1840, Note_off_c, 15, 40, 64
19, 2880, Note_on_c, 15, 40, 92
19, 4720, Note_off_c, 15, 40, 64
19, 4800, Note_on_c, 15, 44, 92
19, 5200, Note_off_c, 15, 44, 64
19, 5280, Note_on_c, 15, 47, 92
19, 5680, Note_off_c, 15, 47, 64
19, 5760, Note_on_c, 15, 40, 45
19, 7600, Note_off_c, 15, 40, 64
19, 7680, Note_on_c, 15, 44, 45
19, 8080, Note_off_c, 15, 44, 64
19, 8160, Note_on_c, 15, 47, 45
19, 8560, Note_off_c, 15, 47, 64
19, 8640, Note_on_c, 15, 40, 45
19, 13800, Note_off_c, 15, 40, 64
19, 13920, Note_on_c, 15, 35, 92
19, 14320, Note_off_c, 15, 35, 64
19, 14400, Note_on_c, 15, 40, 45
19, 16680, Note_off_c, 15, 40, 64
19, 16800, Note_on_c, 15, 35, 45
19, 17200, Note_off_c, 15, 35, 64
19, 17280, Note_on_c, 15, 40, 75
19, 20160, Note_off_c, 15, 40, 64
19, 20160, Note_on_c, 15, 40, 45
19, 23040, Note_off_c, 15, 40, 64
19, 23040, Note_on_c, 15, 40, 60
19, 27240, Note_off_c, 15, 40, 64
19, 27360, Note_on_c, 15, 33, 60
19, 28680, Note_off_c, 15, 33, 64
19, 28800, Note_on_c, 15, 40, 75
19, 30240, Note_off_c, 15, 40, 64
19, 30240, Note_on_c, 15, 40, 75
19, 31560, Note_off_c, 15, 40, 64
19, 31680, Note_on_c, 15, 33, 45
19, 33000, Note_off_c, 15, 33, 64
19, 33120, Note_on_c, 15, 42, 45
19, 34440, Note_off_c, 15, 42, 64
19, 34560, Note_on_c, 15, 35, 45
19, 35880, Note_off_c, 15, 35, 64
19, 36000, Note_on_c, 15, 40, 45
19, 37440, Note_off_c, 15, 40, 64
19, 37440, Note_on_c, 15, 42, 45
19, 38880, Note_off_c, 15, 42, 64
19, 38880, Note_on_c, 15, 35, 45
19, 39280, Note_off_c, 15, 35, 64
19, 39360, Note_on_c, 15, 39, 45
19, 39760, Note_off_c, 15, 39, 64
19, 39840, Note_on_c, 15, 42, 45
19, 40240, Note_off_c, 15, 42, 64
19, 40320, Note_on_c, 15, 40, 75
19, 40720, Note_off_c, 15, 40, 64
19, 41760, Note_on_c, 15, 40, 78
19, 42160, Note_off_c, 15, 40, 64
19, 43200, Note_on_c, 15, 40, 82
19, 43600, Note_off_c, 15, 40, 64
19, 45600, Note_on_c, 15, 37, 92
19, 46080, Note_off_c, 15, 37, 64
19, 46080, Note_on_c, 15, 37, 45
19, 46480, Note_off_c, 15, 37, 64
19, 47520, Note_on_c, 15, 37, 45
19, 47920, Note_off_c, 15, 37, 64
19, 48960, Note_on_c, 15, 37, 62
19, 49360, Note_off_c, 15, 37, 64
19, 51360, Note_on_c, 15, 37, 92
19, 51840, Note_off_c, 15, 37, 64
19, 51840, Note_on_c, 15, 42, 92
19, 52240, Note_off_c, 15, 42, 64
19, 52800, Note_on_c, 15, 44, 92
19, 53280, Note_off_c, 15, 44, 64
19, 53280, Note_on_c, 15, 37, 92
19, 54600, Note_off_c, 15, 37, 64
19, 54720, Note_on_c, 15, 32, 92
19, 57480, Note_off_c, 15, 32, 64
19, 57600, Note_on_c, 15, 32, 75
19, 59440, Note_off_c, 15, 32, 64
19, 59520, Note_on_c, 15, 36, 75
19, 59920, Note_off_c, 15, 36, 64
19, 60000, Note_on_c, 15, 39, 75
19, 60400, Note_off_c, 15, 39, 64
19, 60480, Note_on_c, 15, 32, 60
19, 61920, Note_off_c, 15, 32, 64
19, 61920, Note_on_c, 15, 37, 60
19, 63240, Note_off_c, 15, 37, 64
19, 63360, Note_on_c, 15, 32, 45
19, 64800, Note_off_c, 15, 32, 64
19, 64800, Note_on_c, 15, 37, 45
19, 66120, Note_off_c, 15, 37, 64
19, 66240, Note_on_c, 15, 37, 60
19, 67680, Note_off_c, 15, 37, 64
19, 67680, Note_on_c, 15, 37, 45
19, 69120, Note_off_c, 15, 37, 64
19, 69120, Note_on_c, 15, 37, 75
19, 70560, Note_off_c, 15, 37, 64
19, 70560, Note_on_c, 15, 32, 45
19, 70960, Note_off_c, 15, 32, 64
19, 71040, Note_on_c, 15, 39, 45
19, 71440, Note_off_c, 15, 39, 64
19, 71520, Note_on_c, 15, 36, 45
19, 71920, Note_off_c, 15, 36, 64
19, 72000, Note_on_c, 15, 37, 92
19, 72400, Note_off_c, 15, 37, 64
19, 73440, Note_on_c, 15, 37, 92
19, 73840, Note_off_c, 15, 37, 64
19, 74880, Note_on_c, 15, 42, 92
19, 76320, Note_off_c, 15, 42, 64
19, 76320, Note_on_c, 15, 42, 60
19, 76720, Note_off_c, 15, 42, 64
19, 76800, Note_on_c, 15, 49, 60
19, 77200, Note_off_c, 15, 49, 64
19, 77280, Note_on_c, 15, 46, 60
19, 77680, Note_off_c, 15, 46, 64
19, 77760, Note_on_c, 15, 35, 92
19, 78160, Note_off_c, 15, 35, 64
19, 79200, Note_on_c, 15, 35, 75
19, 79600, Note_off_c, 15, 35, 64
19, 80640, Note_on_c, 15, 28, 92
19, 82080, Note_off_c, 15, 28, 64
19, 82080, Note_on_c, 15, 40, 45
19, 83400, Note_off_c, 15, 40, 64
19, 83520, Note_on_c, 15, 33, 92
19, 85360, Note_off_c, 15, 33, 64
19, 85440, Note_on_c, 15, 37, 92
19, 85840, Note_off_c, 15, 37, 64
19, 85920, Note_on_c, 15, 40, 92
19, 86320, Note_off_c, 15, 40, 64
19, 86400, Note_on_c, 15, 33, 60
19, 88240, Note_off_c, 15, 33, 64
19, 88320, Note_on_c, 15, 37, 60
19, 88720, Note_off_c, 15, 37, 64
19, 88800, Note_on_c, 15, 40, 60
19, 89200, Note_off_c, 15, 40, 64
19, 89280, Note_on_c, 15, 33, 92
19, 91560, Note_off_c, 15, 33, 64
19, 91680, Note_on_c, 15, 40, 92
19, 92080, Note_off_c, 15, 40, 64
19, 92160, Note_on_c, 15, 33, 60
19, 94440, Note_off_c, 15, 33, 64
19, 94560, Note_on_c, 15, 40, 60
19, 94960, Note_off_c, 15, 40, 64
19, 95040, Note_on_c, 15, 45, 108
19, 96480, Note_off_c, 15, 45, 64
19, 96480, Note_on_c, 15, 44, 108
19, 97920, Note_off_c, 15, 44, 64
19, 97920, Note_on_c, 15, 43, 108
19, 99360, Note_off_c, 15, 43, 64
19, 99360, Note_on_c, 15, 42, 108
19, 100800, Note_off_c, 15, 42, 64
19, 100800, Note_on_c, 15, 40, 108
19, 102120, Note_off_c, 15, 40, 64
19, 102240, Note_on_c, 15, 45, 92
19, 103680, Note_off_c, 15, 45, 64
19, 103680, Note_on_c, 15, 38, 92
19, 105120, Note_off_c, 15, 38, 64
19, 105120, Note_on_c, 15, 38, 92
19, 106560, Note_off_c, 15, 38, 64
19, 106560, Note_on_c, 15, 40, 76
19, 108000, Note_off_c, 15, 40, 64
19, 108000, Note_on_c, 15, 45, 60
19, 109440, Note_off_c, 15, 45, 64
19, 109440, Note_on_c, 15, 47, 60
19, 110880, Note_off_c, 15, 47, 64
19, 110880, Note_on_c, 15, 40, 45
19, 112320, Note_off_c, 15, 40, 64
19, 112320, Note_on_c, 15, 33, 60
19, 112720, Note_off_c, 15, 33, 64
19, 113760, Note_on_c, 15, 33, 68
19, 114160, Note_off_c, 15, 33, 64
19, 115200, Note_on_c, 15, 33, 77
19, 115600, Note_off_c, 15, 33, 64
19, 117600, Note_on_c, 15, 30, 92
19, 118080, Note_off_c, 15, 30, 64
19, 118080, Note_on_c, 15, 35, 45
19, 118480, Note_off_c, 15, 35, 64
19, 119520, Note_on_c, 15, 47, 57
19, 119920, Note_off_c, 15, 47, 64
19, 120960, Note_on_c, 15, 47, 69
19, 121360, Note_off_c, 15, 47, 64
19, 123360, Note_on_c, 15, 32, 92
19, 123840, Note_off_c, 15, 32, 64
19, 123840, Note_on_c, 15, 29, 92
19, 124240, Note_off_c, 15, 29, 64
19, 124320, Note_on_c, 15, 32, 92
19, 124720, Note_off_c, 15, 32, 64
19, 124800, Note_on_c, 15, 35, 92
19, 125200, Note_off_c, 15, 35, 64
19, 125280, Note_on_c, 15, 30, 92
19, 125680, Note_off_c, 15, 30, 64
19, 125760, Note_on_c, 15, 33, 92
19, 126160, Note_off_c, 15, 33, 64
19, 126240, Note_on_c, 15, 37, 92
19, 126640, Note_off_c, 15, 37, 64
19, 126720, Note_on_c, 15, 35, 92
19, 128040, Note_off_c, 15, 35, 64
19, 128160, Note_on_c, 15, 37, 45
19, 129600, Note_off_c, 15, 37, 64
19, 129600, Note_on_c, 15, 37, 45
19, 131040, Note_off_c, 15, 37, 64
19, 131040, Note_on_c, 15, 37, 60
19, 132360, Note_off_c, 15, 37, 64
19, 132480, Note_on_c, 15, 37, 75
19, 133320, Note_off_c, 15, 37, 64
19, 133440, Note_on_c, 15, 37, 92
19, 133840, Note_off_c, 15, 37, 64
19, 133920, Note_on_c, 15, 42, 92
19, 134320, Note_off_c, 15, 42, 64
19, 134400, Note_on_c, 15, 45, 92
19, 134800, Note_off_c, 15, 45, 64
19, 134880, Note_on_c, 15, 49, 92
19, 135280, Note_off_c, 15, 49, 64
19, 135360, Note_on_c, 15, 35, 60
19, 135760, Note_off_c, 15, 35, 64
19, 135840, Note_on_c, 15, 44, 60
19, 136240, Note_off_c, 15, 44, 64
19, 136320, Note_on_c, 15, 42, 60
19, 136720, Note_off_c, 15, 42, 64
19, 136800, Note_on_c, 15, 44, 60
19, 137200, Note_off_c, 15, 44, 64
19, 137280, Note_on_c, 15, 41, 60
19, 137680, Note_off_c, 15, 41, 64
19, 137760, Note_on_c, 15, 42, 60
19, 138160, Note_off_c, 15, 42, 64
19, 138240, Note_on_c, 15, 37, 45
19, 139560, Note_off_c, 15, 37, 64
19, 139680, Note_on_c, 15, 37, 45
19, 141000, Note_off_c, 15, 37, 64
19, 141120, Note_on_c, 15, 42, 45
19, 142560, Note_off_c, 15, 42, 64
19, 142560, Note_on_c, 15, 37, 45
19, 144000, Note_off_c, 15, 37, 64
19, 144000, Note_on_c, 15, 42, 68
19, 145320, Note_off_c, 15, 42, 64
19, 145440, Note_on_c, 15, 37, 92
19, 150160, Note_off_c, 15, 37, 64
19, 150240, Note_on_c, 15, 37, 108
19, 150480, Note_off_c, 15, 37, 64
19, 150480, Note_on_c, 15, 39, 108
19, 150720, Note_off_c, 15, 39, 64
19, 150720, Note_on_c, 15, 41, 108
19, 151120, Note_off_c, 15, 41, 64
19, 151200, Note_on_c, 15, 42, 108
19, 151600, Note_off_c, 15, 42, 64
19, 151680, Note_on_c, 15, 30, 108
19, 151920, Note_off_c, 15, 30, 64
19, 151920, Note_on_c, 15, 32, 108
19, 152160, Note_off_c, 15, 32, 64
19, 152160, Note_on_c, 15, 33, 108
19, 152560, Note_off_c, 15, 33, 64
19, 152640, Note_on_c, 15, 41, 60
19, 153040, Note_off_c, 15, 41, 64
19, 153120, Note_on_c, 15, 37, 60
19, 153520, Note_off_c, 15, 37, 64
19, 153600, Note_on_c, 15, 42, 60
19, 154000, Note_off_c, 15, 42, 64
19, 154080, Note_on_c, 15, 42, 60
19, 154480, Note_off_c, 15, 42, 64
19, 154560, Note_on_c, 15, 37, 60
19, 154960, Note_off_c, 15, 37, 64
19, 155040, Note_on_c, 15, 37, 60
19, 155440, Note_off_c, 15, 37, 64
19, 155520, Note_on_c, 15, 42, 45
19, 158400, Note_off_c, 15, 42, 64
19, 158400, Note_on_c, 15, 40, 45
19, 159840, Note_off_c, 15, 40, 64
19, 159840, Note_on_c, 15, 42, 45
19, 161280, Note_off_c, 15, 42, 64
19, 161280, Note_on_c, 15, 35, 45
19, 162600, Note_off_c, 15, 35, 64
19, 162720, Note_on_c, 15, 35, 45
19, 164160, Note_off_c, 15, 35, 64
19, 164160, Note_on_c, 15, 33, 45
19, 164560, Note_off_c, 15, 33, 64
19, 164640, Note_on_c, 15, 37, 45
19, 165040, Note_off_c, 15, 37, 64
19, 165120, Note_on_c, 15, 40, 45
19, 165520, Note_off_c, 15, 40, 64
19, 165600, Note_on_c, 15, 33, 45
19, 167040, Note_off_c, 15, 33, 64
19, 167040, Note_on_c, 15, 35, 45
19, 167440, Note_off_c, 15, 35, 64
19, 167520, Note_on_c, 15, 39, 45
19, 167920, Note_off_c, 15, 39, 64
19, 168000, Note_on_c, 15, 42, 45
19, 168400, Note_off_c, 15, 42, 64
19, 168480, Note_on_c, 15, 40, 45
19, 169800, Note_off_c, 15, 40, 64
19, 169920, Note_on_c, 15, 45, 45
19, 171240, Note_off_c, 15, 45, 64
19, 171360, Note_on_c, 15, 47, 48
19, 172680, Note_off_c, 15, 47, 64
19, 172800, Note_on_c, 15, 40, 52
19, 174120, Note_off_c, 15, 40, 64
19, 174240, Note_on_c, 15, 42, 56
19, 175560, Note_off_c, 15, 42, 64
19, 175680, Note_on_c, 15, 35, 60
19, 176080, Note_off_c, 15, 35, 64
19, 176160, Note_on_c, 15, 39, 60
19, 176560, Note_off_c, 15, 39, 64
19, 176640, Note_on_c, 15, 42, 60
19, 177040, Note_off_c, 15, 42, 64
19, 177120, Note_on_c, 15, 39, 60
19, 177520, Note_off_c, 15, 39, 64
19, 177600, Note_on_c, 15, 42, 60
19, 178000, Note_off_c, 15, 42, 64
19, 178080, Note_on_c, 15, 47, 60
19, 178480, Note_off_c, 15, 47, 64
19, 178560, Note_on_c, 15, 35, 60
19, 179400, Note_off_c, 15, 35, 64
19, 179520, Note_on_c, 15, 33, 60
19, 179920, Note_off_c, 15, 33, 64
19, 180000, Note_on_c, 15, 33, 60
19, 180400, Note_off_c, 15, 33, 64
19, 180480, Note_on_c, 15, 37, 60
19, 180880, Note_off_c, 15, 37, 64
19, 180960, Note_on_c, 15, 40, 60
19, 181360, Note_off_c, 15, 40, 64
19, 181440, Note_on_c, 15, 40, 60
19, 181840, Note_off_c, 15, 40, 64
19, 181920, Note_on_c, 15, 35, 60
19, 182320, Note_off_c, 15, 35, 64
19, 182400, Note_on_c, 15, 32, 60
19, 182800, Note_off_c, 15, 32, 64
19, 182880, Note_on_c, 15, 35, 60
19, 183280, Note_off_c, 15, 35, 64
19, 183360, Note_on_c, 15, 39, 62
19, 183760, Note_off_c, 15, 39, 64
19, 183840, Note_on_c, 15, 42, 64
19, 184240, Note_off_c, 15, 42, 64
19, 184320, Note_on_c, 15, 44, 66
19, 184720, Note_off_c, 15, 44, 64
19, 184800, Note_on_c, 15, 32, 69
19, 185040, Note_off_c, 15, 32, 64
19, 185040, Note_on_c, 15, 33, 70
19, 185280, Note_off_c, 15, 33, 64
19, 185280, Note_on_c, 15, 35, 71
19, 185680, Note_off_c, 15, 35, 64
19, 185760, Note_on_c, 15, 40, 75
19, 187080, Note_off_c, 15, 40, 64
19, 187200, Note_on_c, 15, 45, 75
19, 188520, Note_off_c, 15, 45, 64
19, 188640, Note_on_c, 15, 40, 75
19, 189960, Note_off_c, 15, 40, 64
19, 190080, Note_on_c, 15, 33, 75
19, 190480, Note_off_c, 15, 33, 64
19, 190560, Note_on_c, 15, 42, 80
19, 190795, Note_off_c, 15, 42, 64
19, 190800, Note_on_c, 15, 40, 83
19, 191035, Note_off_c, 15, 40, 64
19, 191040, Note_on_c, 15, 39, 86
19, 191275, Note_off_c, 15, 39, 64
19, 191280, Note_on_c, 15, 37, 89
19, 191515, Note_off_c, 15, 37, 64
19, 191520, Note_on_c, 15, 35, 92
19, 192480, Note_off_c, 15, 35, 64
19, 192480, Note_on_c, 15, 40, 92
19, 192880, Note_off_c, 15, 40, 64
19, 192960, Note_on_c, 15, 33, 92
19, 193440, Note_off_c, 15, 33, 64
19, 193440, Note_on_c, 15, 35, 92
19, 193840, Note_off_c, 15, 35, 64
19, 193920, Note_on_c, 15, 35, 92
19, 194320, Note_off_c, 15, 35, 64
19, 194400, Note_on_c, 15, 28, 92
19, 194800, Note_off_c, 15, 28, 64
19, 194880, Note_on_c, 15, 32, 94
19, 195120, Note_off_c, 15, 32, 64
19, 195120, Note_on_c, 15, 33, 95
19, 195360, Note_off_c, 15, 33, 64
19, 195360, Note_on_c, 15, 35, 96
19, 195760, Note_off_c, 15, 35, 64
19, 195840, Note_on_c, 15, 40, 99
19, 196240, Note_off_c, 15, 40, 64
19, 196320, Note_on_c, 15, 44, 102
19, 196560, Note_off_c, 15, 44, 64
19, 196560, Note_on_c, 15, 45, 103
19, 196800, Note_off_c, 15, 45, 64
19, 196800, Note_on_c, 15, 47, 104
19, 197200, Note_off_c, 15, 47, 64
19, 197280, Note_on_c, 15, 40, 108
19, 199195, Note_off_c, 15, 40, 64
19, 199195, End_track
20, 0, Start_track
20, 0, MIDI_port, 0
20, 0, Channel_prefix, 9
20, 0, Control_c, 9, 10, 64
20, 0, Control_c, 9, 91, 47
20, 0, End_track
0, 0, End_of_file
