0, 0, Header, 1, 4, 240
1, 0, Start_track
1, 0, Time_signature, 6, 3, 12, 8
1, 0, Key_signature, 0, "major"
1, 0, Tempo, 576923
1, 60480, Tempo, 600000
1, 60840, Tempo, 625000
1, 61200, Tempo, 659340
1, 61320, Tempo, 705882
1, 61440, Tempo, 800000
1, 61496, Tempo, 967741
1, 61560, Tempo, 1052631
1, 61560, End_track
2, 0, Start_track
2, 0, MIDI_port, 0
2, 0, Title_t, "RH H"
2, 0, Program_c, 0, 6
2, 0, Note_on_c, 0, 67, 64
2, 120, Note_on_c, 0, 67, 0
2, 120, Note_on_c, 0, 69, 64
2, 180, Note_on_c, 0, 69, 0
2, 180, Note_on_c, 0, 67, 64
2, 240, Note_on_c, 0, 67, 0
2, 240, Note_on_c, 0, 66, 64
2, 300, Note_on_c, 0, 66, 0
2, 300, Note_on_c, 0, 67, 64
2, 360, Note_on_c, 0, 67, 0
2, 360, Note_on_c, 0, 69, 64
2, 480, Note_on_c, 0, 69, 0
2, 480, Note_on_c, 0, 71, 64
2, 540, Note_on_c, 0, 71, 0
2, 540, Note_on_c, 0, 69, 64
2, 600, Note_on_c, 0, 69, 0
2, 600, Note_on_c, 0, 67, 64
2, 660, Note_on_c, 0, 67, 0
2, 660, Note_on_c, 0, 69, 64
2, 720, Note_on_c, 0, 69, 0
2, 720, Note_on_c, 0, 71, 64
2, 840, Note_on_c, 0, 71, 0
2, 840, Note_on_c, 0, 69, 64
2, 960, Note_on_c, 0, 69, 0
2, 960, Note_on_c, 0, 67, 64
2, 1080, Note_on_c, 0, 67, 0
2, 1080, Note_on_c, 0, 62, 64
2, 1200, Note_on_c, 0, 62, 0
2, 1200, Note_on_c, 0, 72, 64
2, 1440, Note_on_c, 0, 72, 0
2, 1440, Note_on_c, 0, 71, 64
2, 1560, Note_on_c, 0, 71, 0
2, 1560, Note_on_c, 0, 69, 64
2, 1680, Note_on_c, 0, 69, 0
2, 1680, Note_on_c, 0, 67, 64
2, 1800, Note_on_c, 0, 67, 0
2, 1800, Note_on_c, 0, 66, 64
2, 1920, Note_on_c, 0, 66, 0
2, 1920, Note_on_c, 0, 76, 64
2, 2160, Note_on_c, 0, 76, 0
2, 2160, Note_on_c, 0, 74, 64
2, 2280, Note_on_c, 0, 74, 0
2, 2280, Note_on_c, 0, 76, 64
2, 2340, Note_on_c, 0, 76, 0
2, 2340, Note_on_c, 0, 74, 64
2, 2400, Note_on_c, 0, 74, 0
2, 2400, Note_on_c, 0, 72, 64
2, 2460, Note_on_c, 0, 72, 0
2, 2460, Note_on_c, 0, 71, 64
2, 2520, Note_on_c, 0, 71, 0
2, 2520, Note_on_c, 0, 69, 64
2, 2640, Note_on_c, 0, 69, 0
2, 2640, Note_on_c, 0, 72, 64
2, 2700, Note_on_c, 0, 72, 0
2, 2700, Note_on_c, 0, 71, 64
2, 2760, Note_on_c, 0, 71, 0
2, 2760, Note_on_c, 0, 69, 64
2, 2820, Note_on_c, 0, 69, 0
2, 2820, Note_on_c, 0, 67, 64
2, 2880, Note_on_c, 0, 67, 0
2, 2880, Note_on_c, 0, 66, 64
2, 3000, Note_on_c, 0, 66, 0
2, 3000, Note_on_c, 0, 67, 64
2, 3120, Note_on_c, 0, 67, 0
2, 3120, Note_on_c, 0, 69, 64
2, 3240, Note_on_c, 0, 69, 0
2, 3240, Note_on_c, 0, 67, 64
2, 3360, Note_on_c, 0, 67, 0
2, 3360, Note_on_c, 0, 69, 64
2, 3480, Note_on_c, 0, 69, 0
2, 3480, Note_on_c, 0, 71, 64
2, 3600, Note_on_c, 0, 71, 0
2, 3600, Note_on_c, 0, 69, 64
2, 3720, Note_on_c, 0, 69, 0
2, 3720, Note_on_c, 0, 71, 64
2, 3780, Note_on_c, 0, 71, 0
2, 3780, Note_on_c, 0, 73, 64
2, 3840, Note_on_c, 0, 73, 0
2, 3840, Note_on_c, 0, 74, 64
2, 3900, Note_on_c, 0, 74, 0
2, 3900, Note_on_c, 0, 71, 64
2, 3960, Note_on_c, 0, 71, 0
2, 3960, Note_on_c, 0, 73, 64
2, 4020, Note_on_c, 0, 73, 0
2, 4020, Note_on_c, 0, 71, 64
2, 4080, Note_on_c, 0, 71, 0
2, 4080, Note_on_c, 0, 73, 64
2, 4140, Note_on_c, 0, 73, 0
2, 4140, Note_on_c, 0, 74, 64
2, 4200, Note_on_c, 0, 74, 0
2, 4200, Note_on_c, 0, 76, 64
2, 4260, Note_on_c, 0, 76, 0
2, 4260, Note_on_c, 0, 73, 64
2, 4320, Note_on_c, 0, 73, 0
2, 4320, Note_on_c, 0, 74, 64
2, 4380, Note_on_c, 0, 74, 0
2, 4380, Note_on_c, 0, 73, 64
2, 4440, Note_on_c, 0, 73, 0
2, 4440, Note_on_c, 0, 74, 64
2, 4500, Note_on_c, 0, 74, 0
2, 4500, Note_on_c, 0, 76, 64
2, 4560, Note_on_c, 0, 76, 0
2, 4560, Note_on_c, 0, 78, 64
2, 4620, Note_on_c, 0, 78, 0
2, 4620, Note_on_c, 0, 74, 64
2, 4680, Note_on_c, 0, 74, 0
2, 4680, Note_on_c, 0, 76, 64
2, 4740, Note_on_c, 0, 76, 0
2, 4740, Note_on_c, 0, 74, 64
2, 4800, Note_on_c, 0, 74, 0
2, 4800, Note_on_c, 0, 76, 64
2, 4860, Note_on_c, 0, 76, 0
2, 4860, Note_on_c, 0, 78, 64
2, 4920, Note_on_c, 0, 78, 0
2, 4920, Note_on_c, 0, 79, 64
2, 4980, Note_on_c, 0, 79, 0
2, 4980, Note_on_c, 0, 76, 64
2, 5040, Note_on_c, 0, 76, 0
2, 5040, Note_on_c, 0, 78, 64
2, 5160, Note_on_c, 0, 78, 0
2, 5160, Note_on_c, 0, 79, 64
2, 5220, Note_on_c, 0, 79, 0
2, 5220, Note_on_c, 0, 78, 64
2, 5280, Note_on_c, 0, 78, 0
2, 5280, Note_on_c, 0, 76, 64
2, 5340, Note_on_c, 0, 76, 0
2, 5340, Note_on_c, 0, 74, 64
2, 5400, Note_on_c, 0, 74, 0
2, 5400, Note_on_c, 0, 79, 64
2, 5820, Note_on_c, 0, 79, 0
2, 5820, Note_on_c, 0, 78, 64
2, 5880, Note_on_c, 0, 78, 0
2, 5880, Note_on_c, 0, 76, 64
2, 5940, Note_on_c, 0, 76, 0
2, 5940, Note_on_c, 0, 79, 64
2, 6000, Note_on_c, 0, 79, 0
2, 6000, Note_on_c, 0, 74, 64
2, 6060, Note_on_c, 0, 74, 0
2, 6060, Note_on_c, 0, 79, 64
2, 6120, Note_on_c, 0, 79, 0
2, 6120, Note_on_c, 0, 73, 64
2, 6180, Note_on_c, 0, 73, 0
2, 6180, Note_on_c, 0, 79, 64
2, 6240, Note_on_c, 0, 79, 0
2, 6240, Note_on_c, 0, 71, 64
2, 6300, Note_on_c, 0, 71, 0
2, 6300, Note_on_c, 0, 79, 64
2, 6360, Note_on_c, 0, 79, 0
2, 6360, Note_on_c, 0, 69, 64
2, 6420, Note_on_c, 0, 69, 0
2, 6420, Note_on_c, 0, 79, 64
2, 6480, Note_on_c, 0, 79, 0
2, 6480, Note_on_c, 0, 78, 64
2, 6600, Note_on_c, 0, 78, 0
2, 6600, Note_on_c, 0, 74, 64
2, 6720, Note_on_c, 0, 74, 0
2, 6720, Note_on_c, 0, 76, 64
2, 6840, Note_on_c, 0, 76, 0
2, 6840, Note_on_c, 0, 78, 64
2, 6960, Note_on_c, 0, 78, 0
2, 6960, Note_on_c, 0, 79, 64
2, 7080, Note_on_c, 0, 79, 0
2, 7080, Note_on_c, 0, 81, 64
2, 7320, Note_on_c, 0, 81, 0
2, 7320, Note_on_c, 0, 74, 64
2, 7440, Note_on_c, 0, 74, 0
2, 7440, Note_on_c, 0, 79, 64
2, 7680, Note_on_c, 0, 79, 0
2, 7680, Note_on_c, 0, 78, 64
2, 7800, Note_on_c, 0, 78, 0
2, 7800, Note_on_c, 0, 76, 64
2, 7920, Note_on_c, 0, 76, 0
2, 7920, Note_on_c, 0, 74, 64
2, 8040, Note_on_c, 0, 74, 0
2, 8040, Note_on_c, 0, 72, 64
2, 8160, Note_on_c, 0, 72, 0
2, 8160, Note_on_c, 0, 71, 64
2, 8280, Note_on_c, 0, 71, 0
2, 8280, Note_on_c, 0, 69, 64
2, 8520, Note_on_c, 0, 69, 0
2, 8880, Note_on_c, 0, 74, 64
2, 9120, Note_on_c, 0, 74, 0
2, 9120, Note_on_c, 0, 72, 64
2, 9240, Note_on_c, 0, 72, 0
2, 9240, Note_on_c, 0, 81, 64
2, 9480, Note_on_c, 0, 81, 0
2, 9480, Note_on_c, 0, 79, 64
2, 9840, Note_on_c, 0, 79, 0
2, 9840, Note_on_c, 0, 81, 64
2, 9900, Note_on_c, 0, 81, 0
2, 9900, Note_on_c, 0, 79, 64
2, 9960, Note_on_c, 0, 79, 0
2, 9960, Note_on_c, 0, 78, 64
2, 10020, Note_on_c, 0, 78, 0
2, 10020, Note_on_c, 0, 76, 64
2, 10080, Note_on_c, 0, 76, 0
2, 10080, Note_on_c, 0, 74, 64
2, 10910, Note_on_c, 0, 74, 0
2, 10920, Note_on_c, 0, 74, 64
2, 11040, Note_on_c, 0, 74, 0
2, 11040, Note_on_c, 0, 72, 64
2, 11160, Note_on_c, 0, 72, 0
2, 11160, Note_on_c, 0, 71, 64
2, 11280, Note_on_c, 0, 71, 0
2, 11280, Note_on_c, 0, 69, 64
2, 11400, Note_on_c, 0, 69, 0
2, 11400, Note_on_c, 0, 67, 64
2, 11520, Note_on_c, 0, 67, 0
2, 11520, Note_on_c, 0, 72, 64
2, 11580, Note_on_c, 0, 72, 0
2, 11580, Note_on_c, 0, 74, 64
2, 11640, Note_on_c, 0, 74, 0
2, 11640, Note_on_c, 0, 76, 64
2, 11940, Note_on_c, 0, 76, 0
2, 11940, Note_on_c, 0, 74, 64
2, 12000, Note_on_c, 0, 74, 0
2, 12000, Note_on_c, 0, 72, 64
2, 12060, Note_on_c, 0, 72, 0
2, 12060, Note_on_c, 0, 71, 64
2, 12120, Note_on_c, 0, 71, 0
2, 12120, Note_on_c, 0, 69, 64
2, 12180, Note_on_c, 0, 69, 0
2, 12180, Note_on_c, 0, 72, 64
2, 12240, Note_on_c, 0, 72, 0
2, 12240, Note_on_c, 0, 71, 64
2, 12300, Note_on_c, 0, 71, 0
2, 12300, Note_on_c, 0, 72, 64
2, 12360, Note_on_c, 0, 72, 0
2, 12360, Note_on_c, 0, 74, 64
2, 12660, Note_on_c, 0, 74, 0
2, 12660, Note_on_c, 0, 72, 64
2, 12720, Note_on_c, 0, 72, 0
2, 12720, Note_on_c, 0, 71, 64
2, 12780, Note_on_c, 0, 71, 0
2, 12780, Note_on_c, 0, 69, 64
2, 12840, Note_on_c, 0, 69, 0
2, 12840, Note_on_c, 0, 67, 64
2, 12900, Note_on_c, 0, 67, 0
2, 12900, Note_on_c, 0, 71, 64
2, 12960, Note_on_c, 0, 71, 0
2, 12960, Note_on_c, 0, 69, 64
2, 13020, Note_on_c, 0, 69, 0
2, 13020, Note_on_c, 0, 71, 64
2, 13080, Note_on_c, 0, 71, 0
2, 13080, Note_on_c, 0, 72, 64
2, 13380, Note_on_c, 0, 72, 0
2, 13380, Note_on_c, 0, 71, 64
2, 13440, Note_on_c, 0, 71, 0
2, 13440, Note_on_c, 0, 69, 64
2, 13500, Note_on_c, 0, 69, 0
2, 13500, Note_on_c, 0, 67, 64
2, 13560, Note_on_c, 0, 67, 0
2, 13560, Note_on_c, 0, 66, 64
2, 13620, Note_on_c, 0, 66, 0
2, 13620, Note_on_c, 0, 69, 64
2, 13680, Note_on_c, 0, 69, 0
2, 13680, Note_on_c, 0, 67, 64
2, 13740, Note_on_c, 0, 67, 0
2, 13740, Note_on_c, 0, 69, 64
2, 13800, Note_on_c, 0, 69, 0
2, 13800, Note_on_c, 0, 71, 64
2, 14160, Note_on_c, 0, 71, 0
2, 14160, Note_on_c, 0, 64, 64
2, 14280, Note_on_c, 0, 64, 0
2, 14280, Note_on_c, 0, 69, 64
2, 14460, Note_on_c, 0, 69, 0
2, 14460, Note_on_c, 0, 67, 64
2, 14520, Note_on_c, 0, 67, 0
2, 14520, Note_on_c, 0, 69, 64
2, 14640, Note_on_c, 0, 69, 0
2, 14640, Note_on_c, 0, 71, 64
2, 14760, Note_on_c, 0, 71, 0
2, 14760, Note_on_c, 0, 72, 64
2, 14820, Note_on_c, 0, 72, 0
2, 14820, Note_on_c, 0, 74, 64
2, 14880, Note_on_c, 0, 74, 0
2, 14880, Note_on_c, 0, 72, 64
2, 14940, Note_on_c, 0, 72, 0
2, 14940, Note_on_c, 0, 71, 64
2, 15000, Note_on_c, 0, 71, 0
2, 15000, Note_on_c, 0, 69, 64
2, 15060, Note_on_c, 0, 69, 0
2, 15060, Note_on_c, 0, 67, 64
2, 15110, Note_on_c, 0, 67, 0
2, 15120, Note_on_c, 0, 67, 72
2, 15142, Note_on_c, 0, 67, 0
2, 15142, Note_on_c, 0, 66, 50
2, 15164, Note_on_c, 0, 66, 0
2, 15164, Note_on_c, 0, 67, 52
2, 15186, Note_on_c, 0, 67, 0
2, 15186, Note_on_c, 0, 66, 54
2, 15208, Note_on_c, 0, 66, 0
2, 15208, Note_on_c, 0, 67, 57
2, 15230, Note_on_c, 0, 67, 0
2, 15230, Note_on_c, 0, 66, 59
2, 15252, Note_on_c, 0, 66, 0
2, 15252, Note_on_c, 0, 67, 61
2, 15274, Note_on_c, 0, 67, 0
2, 15274, Note_on_c, 0, 66, 63
2, 15296, Note_on_c, 0, 66, 0
2, 15300, Note_on_c, 0, 64, 68
2, 15330, Note_on_c, 0, 64, 0
2, 15330, Note_on_c, 0, 66, 64
2, 15360, Note_on_c, 0, 66, 0
2, 15360, Note_on_c, 0, 67, 64
2, 15540, Note_on_c, 0, 67, 0
2, 15540, Note_on_c, 0, 71, 64
2, 15600, Note_on_c, 0, 71, 0
2, 15600, Note_on_c, 0, 69, 64
2, 15660, Note_on_c, 0, 69, 0
2, 15660, Note_on_c, 0, 67, 64
2, 15720, Note_on_c, 0, 67, 0
2, 15720, Note_on_c, 0, 66, 64
2, 15780, Note_on_c, 0, 66, 0
2, 15780, Note_on_c, 0, 64, 64
2, 15840, Note_on_c, 0, 64, 0
2, 15840, Note_on_c, 0, 62, 64
2, 15960, Note_on_c, 0, 62, 0
2, 16560, Note_on_c, 0, 69, 64
2, 16680, Note_on_c, 0, 69, 0
2, 16680, Note_on_c, 0, 67, 64
2, 16740, Note_on_c, 0, 67, 0
2, 16740, Note_on_c, 0, 69, 64
2, 16800, Note_on_c, 0, 69, 0
2, 16800, Note_on_c, 0, 71, 64
2, 16860, Note_on_c, 0, 71, 0
2, 16860, Note_on_c, 0, 69, 64
2, 16920, Note_on_c, 0, 69, 0
2, 16920, Note_on_c, 0, 67, 64
2, 17040, Note_on_c, 0, 67, 0
2, 17040, Note_on_c, 0, 66, 64
2, 17100, Note_on_c, 0, 66, 0
2, 17100, Note_on_c, 0, 67, 64
2, 17160, Note_on_c, 0, 67, 0
2, 17160, Note_on_c, 0, 69, 64
2, 17220, Note_on_c, 0, 69, 0
2, 17220, Note_on_c, 0, 66, 64
2, 17280, Note_on_c, 0, 66, 0
2, 17280, Note_on_c, 0, 67, 64
2, 17400, Note_on_c, 0, 67, 0
2, 17400, Note_on_c, 0, 69, 64
2, 17520, Note_on_c, 0, 69, 0
2, 17520, Note_on_c, 0, 71, 64
2, 17640, Note_on_c, 0, 71, 0
2, 17640, Note_on_c, 0, 74, 64
2, 17760, Note_on_c, 0, 74, 0
2, 17760, Note_on_c, 0, 66, 72
2, 17782, Note_on_c, 0, 66, 0
2, 17782, Note_on_c, 0, 64, 50
2, 17804, Note_on_c, 0, 64, 0
2, 17804, Note_on_c, 0, 66, 51
2, 17826, Note_on_c, 0, 66, 0
2, 17826, Note_on_c, 0, 64, 53
2, 17848, Note_on_c, 0, 64, 0
2, 17848, Note_on_c, 0, 66, 54
2, 17870, Note_on_c, 0, 66, 0
2, 17870, Note_on_c, 0, 64, 56
2, 17892, Note_on_c, 0, 64, 0
2, 17892, Note_on_c, 0, 66, 58
2, 17914, Note_on_c, 0, 66, 0
2, 17914, Note_on_c, 0, 64, 59
2, 17936, Note_on_c, 0, 64, 0
2, 17936, Note_on_c, 0, 66, 61
2, 17958, Note_on_c, 0, 66, 0
2, 17958, Note_on_c, 0, 64, 62
2, 17998, Note_on_c, 0, 64, 0
2, 18000, Note_on_c, 0, 66, 68
2, 18120, Note_on_c, 0, 66, 0
2, 18120, Note_on_c, 0, 67, 64
2, 18240, Note_on_c, 0, 67, 0
2, 18240, Note_on_c, 0, 69, 64
2, 18360, Note_on_c, 0, 69, 0
2, 18360, Note_on_c, 0, 71, 64
2, 18480, Note_on_c, 0, 71, 0
2, 18480, Note_on_c, 0, 62, 72
2, 18502, Note_on_c, 0, 62, 0
2, 18502, Note_on_c, 0, 61, 50
2, 18524, Note_on_c, 0, 61, 0
2, 18524, Note_on_c, 0, 62, 51
2, 18546, Note_on_c, 0, 62, 0
2, 18546, Note_on_c, 0, 61, 53
2, 18568, Note_on_c, 0, 61, 0
2, 18568, Note_on_c, 0, 62, 54
2, 18590, Note_on_c, 0, 62, 0
2, 18590, Note_on_c, 0, 61, 56
2, 18612, Note_on_c, 0, 61, 0
2, 18612, Note_on_c, 0, 62, 58
2, 18634, Note_on_c, 0, 62, 0
2, 18634, Note_on_c, 0, 61, 59
2, 18656, Note_on_c, 0, 61, 0
2, 18656, Note_on_c, 0, 62, 61
2, 18678, Note_on_c, 0, 62, 0
2, 18678, Note_on_c, 0, 61, 62
2, 18718, Note_on_c, 0, 61, 0
2, 18720, Note_on_c, 0, 62, 68
2, 18830, Note_on_c, 0, 62, 0
2, 18840, Note_on_c, 0, 62, 64
2, 18900, Note_on_c, 0, 62, 0
2, 18900, Note_on_c, 0, 64, 64
2, 18960, Note_on_c, 0, 64, 0
2, 18960, Note_on_c, 0, 66, 64
2, 19020, Note_on_c, 0, 66, 0
2, 19020, Note_on_c, 0, 67, 64
2, 19080, Note_on_c, 0, 67, 0
2, 19080, Note_on_c, 0, 69, 64
2, 19200, Note_on_c, 0, 69, 0
2, 19200, Note_on_c, 0, 66, 64
2, 19260, Note_on_c, 0, 66, 0
2, 19260, Note_on_c, 0, 67, 64
2, 19320, Note_on_c, 0, 67, 0
2, 19320, Note_on_c, 0, 69, 64
2, 19380, Note_on_c, 0, 69, 0
2, 19380, Note_on_c, 0, 71, 64
2, 19440, Note_on_c, 0, 71, 0
2, 19440, Note_on_c, 0, 72, 64
2, 19680, Note_on_c, 0, 72, 0
2, 19680, Note_on_c, 0, 71, 64
2, 19800, Note_on_c, 0, 71, 0
2, 19800, Note_on_c, 0, 69, 64
2, 20160, Note_on_c, 0, 69, 0
2, 20220, Note_on_c, 0, 79, 64
2, 20280, Note_on_c, 0, 79, 0
2, 20280, Note_on_c, 0, 78, 64
2, 20340, Note_on_c, 0, 78, 0
2, 20340, Note_on_c, 0, 76, 64
2, 20400, Note_on_c, 0, 76, 0
2, 20400, Note_on_c, 0, 74, 64
2, 20460, Note_on_c, 0, 74, 0
2, 20460, Note_on_c, 0, 78, 64
2, 20520, Note_on_c, 0, 78, 0
2, 20520, Note_on_c, 0, 76, 64
2, 20580, Note_on_c, 0, 76, 0
2, 20580, Note_on_c, 0, 78, 64
2, 20640, Note_on_c, 0, 78, 0
2, 20640, Note_on_c, 0, 76, 64
2, 20700, Note_on_c, 0, 76, 0
2, 20700, Note_on_c, 0, 74, 64
2, 20760, Note_on_c, 0, 74, 0
2, 20760, Note_on_c, 0, 72, 64
2, 20820, Note_on_c, 0, 72, 0
2, 20820, Note_on_c, 0, 76, 64
2, 20880, Note_on_c, 0, 76, 0
2, 20880, Note_on_c, 0, 74, 64
2, 20940, Note_on_c, 0, 74, 0
2, 20940, Note_on_c, 0, 76, 64
2, 21000, Note_on_c, 0, 76, 0
2, 21000, Note_on_c, 0, 74, 64
2, 21060, Note_on_c, 0, 74, 0
2, 21060, Note_on_c, 0, 72, 64
2, 21120, Note_on_c, 0, 72, 0
2, 21120, Note_on_c, 0, 71, 64
2, 21180, Note_on_c, 0, 71, 0
2, 21180, Note_on_c, 0, 74, 64
2, 21240, Note_on_c, 0, 74, 0
2, 21240, Note_on_c, 0, 72, 64
2, 21300, Note_on_c, 0, 72, 0
2, 21300, Note_on_c, 0, 74, 64
2, 21360, Note_on_c, 0, 74, 0
2, 21360, Note_on_c, 0, 72, 64
2, 21420, Note_on_c, 0, 72, 0
2, 21420, Note_on_c, 0, 71, 64
2, 21480, Note_on_c, 0, 71, 0
2, 21480, Note_on_c, 0, 69, 64
2, 21540, Note_on_c, 0, 69, 0
2, 21540, Note_on_c, 0, 72, 64
2, 21600, Note_on_c, 0, 72, 0
2, 21600, Note_on_c, 0, 71, 64
2, 21660, Note_on_c, 0, 71, 0
2, 21660, Note_on_c, 0, 69, 64
2, 21720, Note_on_c, 0, 69, 0
2, 21720, Note_on_c, 0, 67, 64
2, 21780, Note_on_c, 0, 67, 0
2, 21780, Note_on_c, 0, 71, 64
2, 21840, Note_on_c, 0, 71, 0
2, 21840, Note_on_c, 0, 66, 64
2, 21900, Note_on_c, 0, 66, 0
2, 21900, Note_on_c, 0, 71, 64
2, 21960, Note_on_c, 0, 71, 0
2, 21960, Note_on_c, 0, 64, 64
2, 22020, Note_on_c, 0, 64, 0
2, 22020, Note_on_c, 0, 71, 64
2, 22080, Note_on_c, 0, 71, 0
2, 22080, Note_on_c, 0, 62, 64
2, 22140, Note_on_c, 0, 62, 0
2, 22140, Note_on_c, 0, 71, 64
2, 22200, Note_on_c, 0, 71, 0
2, 22200, Note_on_c, 0, 61, 64
2, 22260, Note_on_c, 0, 61, 0
2, 22260, Note_on_c, 0, 71, 64
2, 22320, Note_on_c, 0, 71, 0
2, 22320, Note_on_c, 0, 69, 64
2, 22380, Note_on_c, 0, 69, 0
2, 22380, Note_on_c, 0, 67, 64
2, 22440, Note_on_c, 0, 67, 0
2, 22440, Note_on_c, 0, 66, 64
2, 22500, Note_on_c, 0, 66, 0
2, 22500, Note_on_c, 0, 69, 64
2, 22560, Note_on_c, 0, 69, 0
2, 22560, Note_on_c, 0, 64, 64
2, 22620, Note_on_c, 0, 64, 0
2, 22620, Note_on_c, 0, 69, 64
2, 22680, Note_on_c, 0, 69, 0
2, 22680, Note_on_c, 0, 62, 64
2, 22740, Note_on_c, 0, 62, 0
2, 22740, Note_on_c, 0, 69, 64
2, 22800, Note_on_c, 0, 69, 0
2, 22800, Note_on_c, 0, 61, 64
2, 22860, Note_on_c, 0, 61, 0
2, 22860, Note_on_c, 0, 69, 64
2, 22920, Note_on_c, 0, 69, 0
2, 22920, Note_on_c, 0, 59, 64
2, 22980, Note_on_c, 0, 59, 0
2, 22980, Note_on_c, 0, 69, 64
2, 23040, Note_on_c, 0, 69, 0
2, 23040, Note_on_c, 0, 67, 64
2, 23100, Note_on_c, 0, 67, 0
2, 23100, Note_on_c, 0, 66, 64
2, 23160, Note_on_c, 0, 66, 0
2, 23160, Note_on_c, 0, 64, 64
2, 23220, Note_on_c, 0, 64, 0
2, 23220, Note_on_c, 0, 67, 64
2, 23280, Note_on_c, 0, 67, 0
2, 23280, Note_on_c, 0, 62, 64
2, 23340, Note_on_c, 0, 62, 0
2, 23340, Note_on_c, 0, 67, 64
2, 23400, Note_on_c, 0, 67, 0
2, 23400, Note_on_c, 0, 61, 64
2, 23460, Note_on_c, 0, 61, 0
2, 23460, Note_on_c, 0, 67, 64
2, 23520, Note_on_c, 0, 67, 0
2, 23520, Note_on_c, 0, 59, 64
2, 23580, Note_on_c, 0, 59, 0
2, 23580, Note_on_c, 0, 67, 64
2, 23640, Note_on_c, 0, 67, 0
2, 23640, Note_on_c, 0, 57, 64
2, 23700, Note_on_c, 0, 57, 0
2, 23700, Note_on_c, 0, 67, 64
2, 23760, Note_on_c, 0, 67, 0
2, 23760, Note_on_c, 0, 66, 64
2, 23820, Note_on_c, 0, 66, 0
2, 23820, Note_on_c, 0, 74, 64
2, 23880, Note_on_c, 0, 74, 0
2, 23880, Note_on_c, 0, 72, 64
2, 23940, Note_on_c, 0, 72, 0
2, 23940, Note_on_c, 0, 71, 64
2, 24000, Note_on_c, 0, 71, 0
2, 24000, Note_on_c, 0, 69, 64
2, 24060, Note_on_c, 0, 69, 0
2, 24060, Note_on_c, 0, 67, 64
2, 24120, Note_on_c, 0, 67, 0
2, 24120, Note_on_c, 0, 66, 64
2, 24180, Note_on_c, 0, 66, 0
2, 24180, Note_on_c, 0, 64, 64
2, 24240, Note_on_c, 0, 64, 0
2, 24240, Note_on_c, 0, 62, 64
2, 24300, Note_on_c, 0, 62, 0
2, 24300, Note_on_c, 0, 60, 64
2, 24360, Note_on_c, 0, 60, 0
2, 24360, Note_on_c, 0, 59, 64
2, 24420, Note_on_c, 0, 59, 0
2, 24420, Note_on_c, 0, 57, 64
2, 24480, Note_on_c, 0, 57, 0
2, 24480, Note_on_c, 0, 55, 64
2, 24540, Note_on_c, 0, 55, 0
2, 24540, Note_on_c, 0, 57, 64
2, 24600, Note_on_c, 0, 57, 0
2, 24600, Note_on_c, 0, 59, 64
2, 24660, Note_on_c, 0, 59, 0
2, 24660, Note_on_c, 0, 55, 64
2, 24720, Note_on_c, 0, 55, 0
2, 24720, Note_on_c, 0, 60, 64
2, 24780, Note_on_c, 0, 60, 0
2, 24780, Note_on_c, 0, 55, 64
2, 24840, Note_on_c, 0, 55, 0
2, 24840, Note_on_c, 0, 62, 64
2, 24900, Note_on_c, 0, 62, 0
2, 24900, Note_on_c, 0, 55, 64
2, 24960, Note_on_c, 0, 55, 0
2, 24960, Note_on_c, 0, 64, 64
2, 25020, Note_on_c, 0, 64, 0
2, 25020, Note_on_c, 0, 55, 64
2, 25080, Note_on_c, 0, 55, 0
2, 25080, Note_on_c, 0, 65, 64
2, 25140, Note_on_c, 0, 65, 0
2, 25140, Note_on_c, 0, 55, 64
2, 25200, Note_on_c, 0, 55, 0
2, 25200, Note_on_c, 0, 64, 64
2, 25260, Note_on_c, 0, 64, 0
2, 25260, Note_on_c, 0, 72, 64
2, 25320, Note_on_c, 0, 72, 0
2, 25320, Note_on_c, 0, 71, 64
2, 25380, Note_on_c, 0, 71, 0
2, 25380, Note_on_c, 0, 74, 64
2, 25440, Note_on_c, 0, 74, 0
2, 25440, Note_on_c, 0, 69, 64
2, 25500, Note_on_c, 0, 69, 0
2, 25500, Note_on_c, 0, 74, 64
2, 25560, Note_on_c, 0, 74, 0
2, 25560, Note_on_c, 0, 68, 64
2, 25620, Note_on_c, 0, 68, 0
2, 25620, Note_on_c, 0, 74, 64
2, 25680, Note_on_c, 0, 74, 0
2, 25680, Note_on_c, 0, 66, 64
2, 25740, Note_on_c, 0, 66, 0
2, 25740, Note_on_c, 0, 74, 64
2, 25800, Note_on_c, 0, 74, 0
2, 25800, Note_on_c, 0, 64, 64
2, 25860, Note_on_c, 0, 64, 0
2, 25860, Note_on_c, 0, 74, 64
2, 25920, Note_on_c, 0, 74, 0
2, 25920, Note_on_c, 0, 72, 64
2, 25980, Note_on_c, 0, 72, 0
2, 25980, Note_on_c, 0, 69, 64
2, 26040, Note_on_c, 0, 69, 0
2, 26040, Note_on_c, 0, 71, 64
2, 26100, Note_on_c, 0, 71, 0
2, 26100, Note_on_c, 0, 73, 64
2, 26160, Note_on_c, 0, 73, 0
2, 26160, Note_on_c, 0, 75, 64
2, 26220, Note_on_c, 0, 75, 0
2, 26220, Note_on_c, 0, 76, 64
2, 26280, Note_on_c, 0, 76, 0
2, 26280, Note_on_c, 0, 78, 64
2, 26340, Note_on_c, 0, 78, 0
2, 26340, Note_on_c, 0, 79, 64
2, 26400, Note_on_c, 0, 79, 0
2, 26400, Note_on_c, 0, 81, 64
2, 26460, Note_on_c, 0, 81, 0
2, 26460, Note_on_c, 0, 83, 64
2, 26520, Note_on_c, 0, 83, 0
2, 26520, Note_on_c, 0, 84, 64
2, 26580, Note_on_c, 0, 84, 0
2, 26580, Note_on_c, 0, 75, 64
2, 26640, Note_on_c, 0, 75, 0
2, 26640, Note_on_c, 0, 76, 64
2, 26760, Note_on_c, 0, 76, 0
2, 26760, Note_on_c, 0, 78, 64
2, 26820, Note_on_c, 0, 78, 0
2, 26820, Note_on_c, 0, 76, 64
2, 26880, Note_on_c, 0, 76, 0
2, 26880, Note_on_c, 0, 75, 64
2, 26940, Note_on_c, 0, 75, 0
2, 26940, Note_on_c, 0, 76, 64
2, 27000, Note_on_c, 0, 76, 0
2, 27000, Note_on_c, 0, 78, 64
2, 27120, Note_on_c, 0, 78, 0
2, 27120, Note_on_c, 0, 79, 64
2, 27180, Note_on_c, 0, 79, 0
2, 27180, Note_on_c, 0, 78, 64
2, 27240, Note_on_c, 0, 78, 0
2, 27240, Note_on_c, 0, 76, 64
2, 27300, Note_on_c, 0, 76, 0
2, 27300, Note_on_c, 0, 78, 64
2, 27360, Note_on_c, 0, 78, 0
2, 27360, Note_on_c, 0, 79, 64
2, 27480, Note_on_c, 0, 79, 0
2, 27480, Note_on_c, 0, 78, 64
2, 27600, Note_on_c, 0, 78, 0
2, 27600, Note_on_c, 0, 76, 64
2, 27720, Note_on_c, 0, 76, 0
2, 27720, Note_on_c, 0, 71, 64
2, 27840, Note_on_c, 0, 71, 0
2, 27840, Note_on_c, 0, 81, 64
2, 28080, Note_on_c, 0, 81, 0
2, 28080, Note_on_c, 0, 79, 64
2, 28200, Note_on_c, 0, 79, 0
2, 28200, Note_on_c, 0, 78, 64
2, 28320, Note_on_c, 0, 78, 0
2, 28320, Note_on_c, 0, 76, 64
2, 28440, Note_on_c, 0, 76, 0
2, 28440, Note_on_c, 0, 75, 64
2, 28560, Note_on_c, 0, 75, 0
2, 28560, Note_on_c, 0, 84, 64
2, 28800, Note_on_c, 0, 84, 0
2, 28800, Note_on_c, 0, 83, 64
2, 28920, Note_on_c, 0, 83, 0
2, 28920, Note_on_c, 0, 84, 64
2, 28980, Note_on_c, 0, 84, 0
2, 28980, Note_on_c, 0, 83, 64
2, 29040, Note_on_c, 0, 83, 0
2, 29040, Note_on_c, 0, 81, 64
2, 29100, Note_on_c, 0, 81, 0
2, 29100, Note_on_c, 0, 79, 64
2, 29160, Note_on_c, 0, 79, 0
2, 29160, Note_on_c, 0, 78, 64
2, 29280, Note_on_c, 0, 78, 0
2, 29280, Note_on_c, 0, 81, 64
2, 29340, Note_on_c, 0, 81, 0
2, 29340, Note_on_c, 0, 79, 64
2, 29400, Note_on_c, 0, 79, 0
2, 29400, Note_on_c, 0, 78, 64
2, 29460, Note_on_c, 0, 78, 0
2, 29460, Note_on_c, 0, 76, 64
2, 29520, Note_on_c, 0, 76, 0
2, 29520, Note_on_c, 0, 75, 64
2, 29640, Note_on_c, 0, 75, 0
2, 29640, Note_on_c, 0, 81, 64
2, 29760, Note_on_c, 0, 81, 0
2, 29760, Note_on_c, 0, 79, 64
2, 29880, Note_on_c, 0, 79, 0
2, 29880, Note_on_c, 0, 78, 64
2, 30000, Note_on_c, 0, 78, 0
2, 30000, Note_on_c, 0, 76, 64
2, 30120, Note_on_c, 0, 76, 0
2, 30120, Note_on_c, 0, 75, 64
2, 30240, Note_on_c, 0, 75, 0
2, 30240, Note_on_c, 0, 76, 64
2, 30360, Note_on_c, 0, 76, 0
2, 30360, Note_on_c, 0, 74, 64
2, 30480, Note_on_c, 0, 74, 0
2, 30480, Note_on_c, 0, 72, 64
2, 30600, Note_on_c, 0, 72, 0
2, 30600, Note_on_c, 0, 74, 64
2, 30720, Note_on_c, 0, 74, 0
2, 30720, Note_on_c, 0, 72, 64
2, 30840, Note_on_c, 0, 72, 0
2, 30840, Note_on_c, 0, 71, 64
2, 30960, Note_on_c, 0, 71, 0
2, 30960, Note_on_c, 0, 72, 64
2, 31020, Note_on_c, 0, 72, 0
2, 31020, Note_on_c, 0, 84, 64
2, 31080, Note_on_c, 0, 84, 0
2, 31080, Note_on_c, 0, 83, 64
2, 31140, Note_on_c, 0, 83, 0
2, 31140, Note_on_c, 0, 81, 64
2, 31200, Note_on_c, 0, 81, 0
2, 31200, Note_on_c, 0, 79, 64
2, 31260, Note_on_c, 0, 79, 0
2, 31260, Note_on_c, 0, 83, 64
2, 31320, Note_on_c, 0, 83, 0
2, 31320, Note_on_c, 0, 81, 64
2, 31380, Note_on_c, 0, 81, 0
2, 31380, Note_on_c, 0, 83, 64
2, 31440, Note_on_c, 0, 83, 0
2, 31440, Note_on_c, 0, 81, 64
2, 31500, Note_on_c, 0, 81, 0
2, 31500, Note_on_c, 0, 79, 64
2, 31560, Note_on_c, 0, 79, 0
2, 31560, Note_on_c, 0, 78, 64
2, 31620, Note_on_c, 0, 78, 0
2, 31620, Note_on_c, 0, 81, 64
2, 31680, Note_on_c, 0, 81, 0
2, 31680, Note_on_c, 0, 79, 64
2, 31740, Note_on_c, 0, 79, 0
2, 31740, Note_on_c, 0, 81, 64
2, 31800, Note_on_c, 0, 81, 0
2, 31800, Note_on_c, 0, 79, 64
2, 31860, Note_on_c, 0, 79, 0
2, 31860, Note_on_c, 0, 78, 64
2, 31920, Note_on_c, 0, 78, 0
2, 31920, Note_on_c, 0, 76, 64
2, 31980, Note_on_c, 0, 76, 0
2, 31980, Note_on_c, 0, 79, 64
2, 32040, Note_on_c, 0, 79, 0
2, 32040, Note_on_c, 0, 78, 64
2, 32100, Note_on_c, 0, 78, 0
2, 32100, Note_on_c, 0, 79, 64
2, 32160, Note_on_c, 0, 79, 0
2, 32160, Note_on_c, 0, 78, 64
2, 32220, Note_on_c, 0, 78, 0
2, 32220, Note_on_c, 0, 76, 64
2, 32280, Note_on_c, 0, 76, 0
2, 32280, Note_on_c, 0, 75, 64
2, 32340, Note_on_c, 0, 75, 0
2, 32340, Note_on_c, 0, 78, 64
2, 32400, Note_on_c, 0, 78, 0
2, 32400, Note_on_c, 0, 76, 64
2, 32520, Note_on_c, 0, 76, 0
2, 32520, Note_on_c, 0, 78, 64
2, 32580, Note_on_c, 0, 78, 0
2, 32580, Note_on_c, 0, 79, 64
2, 32640, Note_on_c, 0, 79, 0
2, 32640, Note_on_c, 0, 81, 64
2, 32880, Note_on_c, 0, 81, 0
2, 32880, Note_on_c, 0, 79, 64
2, 32940, Note_on_c, 0, 79, 0
2, 32940, Note_on_c, 0, 81, 64
2, 33000, Note_on_c, 0, 81, 0
2, 33000, Note_on_c, 0, 83, 64
2, 33240, Note_on_c, 0, 83, 0
2, 33240, Note_on_c, 0, 81, 64
2, 33360, Note_on_c, 0, 81, 0
2, 33360, Note_on_c, 0, 79, 64
2, 33480, Note_on_c, 0, 79, 0
2, 33480, Note_on_c, 0, 78, 64
2, 33540, Note_on_c, 0, 78, 0
2, 33540, Note_on_c, 0, 79, 64
2, 33600, Note_on_c, 0, 79, 0
2, 33600, Note_on_c, 0, 81, 64
2, 33720, Note_on_c, 0, 81, 0
2, 33720, Note_on_c, 0, 75, 64
2, 33840, Note_on_c, 0, 75, 0
2, 33840, Note_on_c, 0, 76, 64
2, 34080, Note_on_c, 0, 76, 0
2, 34080, Note_on_c, 0, 71, 64
2, 34200, Note_on_c, 0, 71, 0
2, 34200, Note_on_c, 0, 69, 64
2, 34790, Note_on_c, 0, 69, 0
2, 34800, Note_on_c, 0, 69, 64
2, 34920, Note_on_c, 0, 69, 0
2, 34920, Note_on_c, 0, 67, 64
2, 35510, Note_on_c, 0, 67, 0
2, 35520, Note_on_c, 0, 67, 64
2, 35640, Note_on_c, 0, 67, 0
2, 35640, Note_on_c, 0, 66, 64
2, 36060, Note_on_c, 0, 66, 0
2, 36060, Note_on_c, 0, 71, 64
2, 36120, Note_on_c, 0, 71, 0
2, 36120, Note_on_c, 0, 73, 64
2, 36180, Note_on_c, 0, 73, 0
2, 36180, Note_on_c, 0, 71, 64
2, 36240, Note_on_c, 0, 71, 0
2, 36240, Note_on_c, 0, 70, 64
2, 36300, Note_on_c, 0, 70, 0
2, 36300, Note_on_c, 0, 71, 64
2, 36360, Note_on_c, 0, 71, 0
2, 36360, Note_on_c, 0, 73, 64
2, 36480, Note_on_c, 0, 73, 0
2, 36480, Note_on_c, 0, 74, 64
2, 36540, Note_on_c, 0, 74, 0
2, 36540, Note_on_c, 0, 73, 64
2, 36600, Note_on_c, 0, 73, 0
2, 36600, Note_on_c, 0, 71, 64
2, 36660, Note_on_c, 0, 71, 0
2, 36660, Note_on_c, 0, 73, 64
2, 36720, Note_on_c, 0, 73, 0
2, 36720, Note_on_c, 0, 74, 64
2, 36840, Note_on_c, 0, 74, 0
2, 36840, Note_on_c, 0, 73, 64
2, 36960, Note_on_c, 0, 73, 0
2, 36960, Note_on_c, 0, 71, 64
2, 37080, Note_on_c, 0, 71, 0
2, 37080, Note_on_c, 0, 70, 64
2, 37200, Note_on_c, 0, 70, 0
2, 37200, Note_on_c, 0, 79, 64
2, 37440, Note_on_c, 0, 79, 0
2, 37440, Note_on_c, 0, 78, 64
2, 37560, Note_on_c, 0, 78, 0
2, 37560, Note_on_c, 0, 79, 64
2, 37620, Note_on_c, 0, 79, 0
2, 37620, Note_on_c, 0, 78, 64
2, 37680, Note_on_c, 0, 78, 0
2, 37680, Note_on_c, 0, 76, 64
2, 37740, Note_on_c, 0, 76, 0
2, 37740, Note_on_c, 0, 74, 64
2, 37800, Note_on_c, 0, 74, 0
2, 37800, Note_on_c, 0, 73, 64
2, 37920, Note_on_c, 0, 73, 0
2, 37920, Note_on_c, 0, 76, 64
2, 37980, Note_on_c, 0, 76, 0
2, 37980, Note_on_c, 0, 74, 64
2, 38040, Note_on_c, 0, 74, 0
2, 38040, Note_on_c, 0, 73, 64
2, 38100, Note_on_c, 0, 73, 0
2, 38100, Note_on_c, 0, 71, 64
2, 38160, Note_on_c, 0, 71, 0
2, 38160, Note_on_c, 0, 70, 64
2, 38220, Note_on_c, 0, 70, 0
2, 38220, Note_on_c, 0, 71, 64
2, 38280, Note_on_c, 0, 71, 0
2, 38280, Note_on_c, 0, 73, 64
2, 38340, Note_on_c, 0, 73, 0
2, 38340, Note_on_c, 0, 70, 64
2, 38400, Note_on_c, 0, 70, 0
2, 38400, Note_on_c, 0, 74, 64
2, 38460, Note_on_c, 0, 74, 0
2, 38460, Note_on_c, 0, 70, 64
2, 38520, Note_on_c, 0, 70, 0
2, 38520, Note_on_c, 0, 76, 64
2, 38580, Note_on_c, 0, 76, 0
2, 38580, Note_on_c, 0, 70, 64
2, 38640, Note_on_c, 0, 70, 0
2, 38640, Note_on_c, 0, 78, 64
2, 38700, Note_on_c, 0, 78, 0
2, 38700, Note_on_c, 0, 70, 64
2, 38760, Note_on_c, 0, 70, 0
2, 38760, Note_on_c, 0, 79, 64
2, 38820, Note_on_c, 0, 79, 0
2, 38820, Note_on_c, 0, 70, 64
2, 38880, Note_on_c, 0, 70, 0
2, 38880, Note_on_c, 0, 78, 64
2, 38940, Note_on_c, 0, 78, 0
2, 38940, Note_on_c, 0, 70, 64
2, 39000, Note_on_c, 0, 70, 0
2, 39000, Note_on_c, 0, 71, 64
2, 39060, Note_on_c, 0, 71, 0
2, 39060, Note_on_c, 0, 78, 64
2, 39120, Note_on_c, 0, 78, 0
2, 39120, Note_on_c, 0, 76, 64
2, 39150, Note_on_c, 0, 76, 0
2, 39150, Note_on_c, 0, 74, 64
2, 39180, Note_on_c, 0, 74, 0
2, 39180, Note_on_c, 0, 73, 64
2, 39210, Note_on_c, 0, 73, 0
2, 39210, Note_on_c, 0, 74, 64
2, 39240, Note_on_c, 0, 74, 0
2, 39240, Note_on_c, 0, 76, 64
2, 39300, Note_on_c, 0, 76, 0
2, 39300, Note_on_c, 0, 68, 64
2, 39360, Note_on_c, 0, 68, 0
2, 39360, Note_on_c, 0, 69, 64
2, 39420, Note_on_c, 0, 69, 0
2, 39420, Note_on_c, 0, 76, 64
2, 39480, Note_on_c, 0, 76, 0
2, 39480, Note_on_c, 0, 74, 64
2, 39510, Note_on_c, 0, 74, 0
2, 39510, Note_on_c, 0, 73, 64
2, 39540, Note_on_c, 0, 73, 0
2, 39540, Note_on_c, 0, 71, 64
2, 39570, Note_on_c, 0, 71, 0
2, 39570, Note_on_c, 0, 73, 64
2, 39600, Note_on_c, 0, 73, 0
2, 39600, Note_on_c, 0, 74, 64
2, 41100, Note_on_c, 0, 74, 0
2, 41100, Note_on_c, 0, 66, 68
2, 41130, Note_on_c, 0, 66, 0
2, 41130, Note_on_c, 0, 68, 64
2, 41160, Note_on_c, 0, 68, 0
2, 41160, Note_on_c, 0, 69, 64
2, 41220, Note_on_c, 0, 69, 0
2, 41220, Note_on_c, 0, 64, 64
2, 41280, Note_on_c, 0, 64, 0
2, 41280, Note_on_c, 0, 71, 64
2, 41340, Note_on_c, 0, 71, 0
2, 41340, Note_on_c, 0, 64, 64
2, 41400, Note_on_c, 0, 64, 0
2, 41400, Note_on_c, 0, 73, 64
2, 41460, Note_on_c, 0, 73, 0
2, 41460, Note_on_c, 0, 64, 64
2, 41520, Note_on_c, 0, 64, 0
2, 41520, Note_on_c, 0, 74, 64
2, 41580, Note_on_c, 0, 74, 0
2, 41580, Note_on_c, 0, 66, 64
2, 41640, Note_on_c, 0, 66, 0
2, 41640, Note_on_c, 0, 76, 64
2, 41700, Note_on_c, 0, 76, 0
2, 41700, Note_on_c, 0, 67, 64
2, 41760, Note_on_c, 0, 67, 0
2, 41760, Note_on_c, 0, 66, 64
2, 41820, Note_on_c, 0, 66, 0
2, 41820, Note_on_c, 0, 67, 64
2, 41850, Note_on_c, 0, 67, 0
2, 41850, Note_on_c, 0, 69, 64
2, 41880, Note_on_c, 0, 69, 0
2, 41880, Note_on_c, 0, 71, 64
2, 41940, Note_on_c, 0, 71, 0
2, 41940, Note_on_c, 0, 66, 64
2, 42000, Note_on_c, 0, 66, 0
2, 42000, Note_on_c, 0, 73, 64
2, 42060, Note_on_c, 0, 73, 0
2, 42060, Note_on_c, 0, 66, 64
2, 42120, Note_on_c, 0, 66, 0
2, 42120, Note_on_c, 0, 74, 64
2, 42180, Note_on_c, 0, 74, 0
2, 42180, Note_on_c, 0, 66, 64
2, 42240, Note_on_c, 0, 66, 0
2, 42240, Note_on_c, 0, 76, 64
2, 42300, Note_on_c, 0, 76, 0
2, 42300, Note_on_c, 0, 67, 64
2, 42360, Note_on_c, 0, 67, 0
2, 42360, Note_on_c, 0, 78, 64
2, 42420, Note_on_c, 0, 78, 0
2, 42420, Note_on_c, 0, 69, 64
2, 42480, Note_on_c, 0, 69, 0
2, 42480, Note_on_c, 0, 67, 64
2, 42540, Note_on_c, 0, 67, 0
2, 42540, Note_on_c, 0, 66, 64
2, 42600, Note_on_c, 0, 66, 0
2, 42600, Note_on_c, 0, 67, 64
2, 42660, Note_on_c, 0, 67, 0
2, 42660, Note_on_c, 0, 71, 64
2, 42720, Note_on_c, 0, 71, 0
2, 42720, Note_on_c, 0, 76, 64
2, 42780, Note_on_c, 0, 76, 0
2, 42780, Note_on_c, 0, 67, 64
2, 42840, Note_on_c, 0, 67, 0
2, 42840, Note_on_c, 0, 66, 64
2, 42900, Note_on_c, 0, 66, 0
2, 42900, Note_on_c, 0, 71, 64
2, 42960, Note_on_c, 0, 71, 0
2, 42960, Note_on_c, 0, 69, 64
2, 43020, Note_on_c, 0, 69, 0
2, 43020, Note_on_c, 0, 73, 64
2, 43080, Note_on_c, 0, 73, 0
2, 43080, Note_on_c, 0, 74, 64
2, 43320, Note_on_c, 0, 74, 0
2, 43320, Note_on_c, 0, 73, 64
2, 43560, Note_on_c, 0, 73, 0
2, 43560, Note_on_c, 0, 74, 64
2, 43680, Note_on_c, 0, 74, 0
2, 43680, Note_on_c, 0, 76, 64
2, 43740, Note_on_c, 0, 76, 0
2, 43740, Note_on_c, 0, 74, 64
2, 43800, Note_on_c, 0, 74, 0
2, 43800, Note_on_c, 0, 73, 64
2, 43860, Note_on_c, 0, 73, 0
2, 43860, Note_on_c, 0, 74, 64
2, 43920, Note_on_c, 0, 74, 0
2, 43920, Note_on_c, 0, 76, 64
2, 44040, Note_on_c, 0, 76, 0
2, 44040, Note_on_c, 0, 78, 64
2, 44100, Note_on_c, 0, 78, 0
2, 44100, Note_on_c, 0, 76, 64
2, 44160, Note_on_c, 0, 76, 0
2, 44160, Note_on_c, 0, 74, 64
2, 44220, Note_on_c, 0, 74, 0
2, 44220, Note_on_c, 0, 76, 64
2, 44280, Note_on_c, 0, 76, 0
2, 44280, Note_on_c, 0, 78, 64
2, 44400, Note_on_c, 0, 78, 0
2, 44400, Note_on_c, 0, 79, 64
2, 44460, Note_on_c, 0, 79, 0
2, 44460, Note_on_c, 0, 78, 64
2, 44520, Note_on_c, 0, 78, 0
2, 44520, Note_on_c, 0, 76, 64
2, 44580, Note_on_c, 0, 76, 0
2, 44580, Note_on_c, 0, 74, 64
2, 44640, Note_on_c, 0, 74, 0
2, 44640, Note_on_c, 0, 73, 64
2, 44760, Note_on_c, 0, 73, 0
2, 44760, Note_on_c, 0, 83, 64
2, 45060, Note_on_c, 0, 83, 0
2, 45060, Note_on_c, 0, 81, 64
2, 45120, Note_on_c, 0, 81, 0
2, 45120, Note_on_c, 0, 83, 64
2, 45180, Note_on_c, 0, 83, 0
2, 45180, Note_on_c, 0, 81, 64
2, 45240, Note_on_c, 0, 81, 0
2, 45240, Note_on_c, 0, 79, 64
2, 45300, Note_on_c, 0, 79, 0
2, 45300, Note_on_c, 0, 78, 64
2, 45360, Note_on_c, 0, 78, 0
2, 45360, Note_on_c, 0, 78, 72
2, 45382, Note_on_c, 0, 78, 0
2, 45382, Note_on_c, 0, 76, 46
2, 45404, Note_on_c, 0, 76, 0
2, 45404, Note_on_c, 0, 78, 46
2, 45426, Note_on_c, 0, 78, 0
2, 45426, Note_on_c, 0, 76, 47
2, 45448, Note_on_c, 0, 76, 0
2, 45448, Note_on_c, 0, 78, 47
2, 45470, Note_on_c, 0, 78, 0
2, 45470, Note_on_c, 0, 76, 48
2, 45492, Note_on_c, 0, 76, 0
2, 45492, Note_on_c, 0, 78, 48
2, 45514, Note_on_c, 0, 78, 0
2, 45514, Note_on_c, 0, 76, 49
2, 45536, Note_on_c, 0, 76, 0
2, 45536, Note_on_c, 0, 78, 50
2, 45558, Note_on_c, 0, 78, 0
2, 45558, Note_on_c, 0, 76, 50
2, 45580, Note_on_c, 0, 76, 0
2, 45580, Note_on_c, 0, 78, 51
2, 45602, Note_on_c, 0, 78, 0
2, 45602, Note_on_c, 0, 76, 51
2, 45624, Note_on_c, 0, 76, 0
2, 45624, Note_on_c, 0, 78, 52
2, 45646, Note_on_c, 0, 78, 0
2, 45646, Note_on_c, 0, 76, 52
2, 45668, Note_on_c, 0, 76, 0
2, 45668, Note_on_c, 0, 78, 53
2, 45690, Note_on_c, 0, 78, 0
2, 45690, Note_on_c, 0, 76, 54
2, 45712, Note_on_c, 0, 76, 0
2, 45712, Note_on_c, 0, 78, 54
2, 45734, Note_on_c, 0, 78, 0
2, 45734, Note_on_c, 0, 76, 55
2, 45756, Note_on_c, 0, 76, 0
2, 45756, Note_on_c, 0, 78, 55
2, 45778, Note_on_c, 0, 78, 0
2, 45778, Note_on_c, 0, 76, 56
2, 45800, Note_on_c, 0, 76, 0
2, 45800, Note_on_c, 0, 78, 57
2, 45822, Note_on_c, 0, 78, 0
2, 45822, Note_on_c, 0, 76, 57
2, 45844, Note_on_c, 0, 76, 0
2, 45844, Note_on_c, 0, 78, 58
2, 45866, Note_on_c, 0, 78, 0
2, 45866, Note_on_c, 0, 76, 58
2, 45888, Note_on_c, 0, 76, 0
2, 45888, Note_on_c, 0, 78, 59
2, 45910, Note_on_c, 0, 78, 0
2, 45910, Note_on_c, 0, 76, 59
2, 45932, Note_on_c, 0, 76, 0
2, 45932, Note_on_c, 0, 78, 60
2, 45954, Note_on_c, 0, 78, 0
2, 45954, Note_on_c, 0, 76, 61
2, 45976, Note_on_c, 0, 76, 0
2, 45976, Note_on_c, 0, 78, 61
2, 45998, Note_on_c, 0, 78, 0
2, 45998, Note_on_c, 0, 76, 62
2, 46020, Note_on_c, 0, 76, 0
2, 46020, Note_on_c, 0, 78, 62
2, 46042, Note_on_c, 0, 78, 0
2, 46042, Note_on_c, 0, 76, 63
2, 46064, Note_on_c, 0, 76, 0
2, 46064, Note_on_c, 0, 78, 63
2, 46086, Note_on_c, 0, 78, 0
2, 46086, Note_on_c, 0, 76, 50
2, 46140, Note_on_c, 0, 81, 68
2, 46146, Note_on_c, 0, 76, 0
2, 46170, Note_on_c, 0, 81, 0
2, 46170, Note_on_c, 0, 79, 64
2, 46200, Note_on_c, 0, 79, 0
2, 46200, Note_on_c, 0, 78, 64
2, 46260, Note_on_c, 0, 78, 0
2, 46260, Note_on_c, 0, 81, 64
2, 46320, Note_on_c, 0, 81, 0
2, 46320, Note_on_c, 0, 76, 64
2, 46380, Note_on_c, 0, 76, 0
2, 46380, Note_on_c, 0, 81, 64
2, 46440, Note_on_c, 0, 81, 0
2, 46440, Note_on_c, 0, 74, 64
2, 46500, Note_on_c, 0, 74, 0
2, 46500, Note_on_c, 0, 81, 64
2, 46560, Note_on_c, 0, 81, 0
2, 46560, Note_on_c, 0, 73, 64
2, 46620, Note_on_c, 0, 73, 0
2, 46620, Note_on_c, 0, 81, 64
2, 46680, Note_on_c, 0, 81, 0
2, 46680, Note_on_c, 0, 71, 64
2, 46740, Note_on_c, 0, 71, 0
2, 46740, Note_on_c, 0, 81, 64
2, 46800, Note_on_c, 0, 81, 0
2, 46800, Note_on_c, 0, 79, 64
2, 46860, Note_on_c, 0, 79, 0
2, 46860, Note_on_c, 0, 78, 64
2, 46920, Note_on_c, 0, 78, 0
2, 46920, Note_on_c, 0, 76, 64
2, 46980, Note_on_c, 0, 76, 0
2, 46980, Note_on_c, 0, 79, 64
2, 47040, Note_on_c, 0, 79, 0
2, 47040, Note_on_c, 0, 74, 64
2, 47100, Note_on_c, 0, 74, 0
2, 47100, Note_on_c, 0, 79, 64
2, 47160, Note_on_c, 0, 79, 0
2, 47160, Note_on_c, 0, 73, 64
2, 47220, Note_on_c, 0, 73, 0
2, 47220, Note_on_c, 0, 79, 64
2, 47280, Note_on_c, 0, 79, 0
2, 47280, Note_on_c, 0, 71, 64
2, 47340, Note_on_c, 0, 71, 0
2, 47340, Note_on_c, 0, 79, 64
2, 47400, Note_on_c, 0, 79, 0
2, 47400, Note_on_c, 0, 69, 64
2, 47460, Note_on_c, 0, 69, 0
2, 47460, Note_on_c, 0, 79, 64
2, 47520, Note_on_c, 0, 79, 0
2, 47520, Note_on_c, 0, 78, 64
2, 47580, Note_on_c, 0, 78, 0
2, 47580, Note_on_c, 0, 76, 64
2, 47640, Note_on_c, 0, 76, 0
2, 47640, Note_on_c, 0, 74, 64
2, 47700, Note_on_c, 0, 74, 0
2, 47700, Note_on_c, 0, 78, 64
2, 47760, Note_on_c, 0, 78, 0
2, 47760, Note_on_c, 0, 72, 64
2, 47820, Note_on_c, 0, 72, 0
2, 47820, Note_on_c, 0, 78, 64
2, 47880, Note_on_c, 0, 78, 0
2, 47880, Note_on_c, 0, 71, 64
2, 47940, Note_on_c, 0, 71, 0
2, 47940, Note_on_c, 0, 78, 64
2, 48000, Note_on_c, 0, 78, 0
2, 48000, Note_on_c, 0, 69, 64
2, 48060, Note_on_c, 0, 69, 0
2, 48060, Note_on_c, 0, 78, 64
2, 48120, Note_on_c, 0, 78, 0
2, 48120, Note_on_c, 0, 67, 64
2, 48180, Note_on_c, 0, 67, 0
2, 48180, Note_on_c, 0, 78, 64
2, 48240, Note_on_c, 0, 78, 0
2, 48240, Note_on_c, 0, 76, 64
2, 48300, Note_on_c, 0, 76, 0
2, 48300, Note_on_c, 0, 74, 64
2, 48360, Note_on_c, 0, 74, 0
2, 48360, Note_on_c, 0, 73, 64
2, 48420, Note_on_c, 0, 73, 0
2, 48420, Note_on_c, 0, 76, 64
2, 48480, Note_on_c, 0, 76, 0
2, 48480, Note_on_c, 0, 71, 64
2, 48540, Note_on_c, 0, 71, 0
2, 48540, Note_on_c, 0, 76, 64
2, 48600, Note_on_c, 0, 76, 0
2, 48600, Note_on_c, 0, 69, 64
2, 48660, Note_on_c, 0, 69, 0
2, 48660, Note_on_c, 0, 76, 64
2, 48720, Note_on_c, 0, 76, 0
2, 48720, Note_on_c, 0, 67, 64
2, 48780, Note_on_c, 0, 67, 0
2, 48780, Note_on_c, 0, 76, 64
2, 48840, Note_on_c, 0, 76, 0
2, 48840, Note_on_c, 0, 66, 64
2, 48900, Note_on_c, 0, 66, 0
2, 48900, Note_on_c, 0, 76, 64
2, 48960, Note_on_c, 0, 76, 0
2, 48960, Note_on_c, 0, 74, 64
2, 49020, Note_on_c, 0, 74, 0
2, 49020, Note_on_c, 0, 66, 64
2, 49080, Note_on_c, 0, 66, 0
2, 49080, Note_on_c, 0, 64, 64
2, 49140, Note_on_c, 0, 64, 0
2, 49140, Note_on_c, 0, 67, 64
2, 49200, Note_on_c, 0, 67, 0
2, 49200, Note_on_c, 0, 74, 64
2, 49260, Note_on_c, 0, 74, 0
2, 49260, Note_on_c, 0, 73, 64
2, 49320, Note_on_c, 0, 73, 0
2, 49320, Note_on_c, 0, 76, 72
2, 49342, Note_on_c, 0, 76, 0
2, 49342, Note_on_c, 0, 74, 46
2, 49364, Note_on_c, 0, 74, 0
2, 49364, Note_on_c, 0, 76, 46
2, 49386, Note_on_c, 0, 76, 0
2, 49386, Note_on_c, 0, 74, 46
2, 49408, Note_on_c, 0, 74, 0
2, 49408, Note_on_c, 0, 76, 47
2, 49430, Note_on_c, 0, 76, 0
2, 49430, Note_on_c, 0, 74, 47
2, 49452, Note_on_c, 0, 74, 0
2, 49452, Note_on_c, 0, 76, 47
2, 49474, Note_on_c, 0, 76, 0
2, 49474, Note_on_c, 0, 74, 48
2, 49496, Note_on_c, 0, 74, 0
2, 49496, Note_on_c, 0, 76, 48
2, 49518, Note_on_c, 0, 76, 0
2, 49518, Note_on_c, 0, 74, 49
2, 49540, Note_on_c, 0, 74, 0
2, 49540, Note_on_c, 0, 76, 49
2, 49562, Note_on_c, 0, 76, 0
2, 49562, Note_on_c, 0, 74, 49
2, 49584, Note_on_c, 0, 74, 0
2, 49584, Note_on_c, 0, 76, 50
2, 49606, Note_on_c, 0, 76, 0
2, 49606, Note_on_c, 0, 74, 50
2, 49628, Note_on_c, 0, 74, 0
2, 49628, Note_on_c, 0, 76, 50
2, 49650, Note_on_c, 0, 76, 0
2, 49650, Note_on_c, 0, 74, 51
2, 49672, Note_on_c, 0, 74, 0
2, 49672, Note_on_c, 0, 76, 51
2, 49694, Note_on_c, 0, 76, 0
2, 49694, Note_on_c, 0, 74, 51
2, 49716, Note_on_c, 0, 74, 0
2, 49716, Note_on_c, 0, 76, 52
2, 49738, Note_on_c, 0, 76, 0
2, 49738, Note_on_c, 0, 74, 52
2, 49760, Note_on_c, 0, 74, 0
2, 49760, Note_on_c, 0, 76, 52
2, 49782, Note_on_c, 0, 76, 0
2, 49782, Note_on_c, 0, 74, 53
2, 49804, Note_on_c, 0, 74, 0
2, 49804, Note_on_c, 0, 76, 53
2, 49826, Note_on_c, 0, 76, 0
2, 49826, Note_on_c, 0, 74, 54
2, 49848, Note_on_c, 0, 74, 0
2, 49848, Note_on_c, 0, 76, 54
2, 49870, Note_on_c, 0, 76, 0
2, 49870, Note_on_c, 0, 74, 54
2, 49892, Note_on_c, 0, 74, 0
2, 49892, Note_on_c, 0, 76, 55
2, 49914, Note_on_c, 0, 76, 0
2, 49914, Note_on_c, 0, 74, 55
2, 49936, Note_on_c, 0, 74, 0
2, 49936, Note_on_c, 0, 76, 55
2, 49958, Note_on_c, 0, 76, 0
2, 49958, Note_on_c, 0, 74, 56
2, 49980, Note_on_c, 0, 74, 0
2, 49980, Note_on_c, 0, 76, 56
2, 50002, Note_on_c, 0, 76, 0
2, 50002, Note_on_c, 0, 74, 56
2, 50024, Note_on_c, 0, 74, 0
2, 50024, Note_on_c, 0, 76, 57
2, 50046, Note_on_c, 0, 76, 0
2, 50046, Note_on_c, 0, 74, 57
2, 50068, Note_on_c, 0, 74, 0
2, 50068, Note_on_c, 0, 76, 58
2, 50090, Note_on_c, 0, 76, 0
2, 50090, Note_on_c, 0, 74, 58
2, 50112, Note_on_c, 0, 74, 0
2, 50112, Note_on_c, 0, 76, 58
2, 50134, Note_on_c, 0, 76, 0
2, 50134, Note_on_c, 0, 74, 59
2, 50156, Note_on_c, 0, 74, 0
2, 50156, Note_on_c, 0, 76, 59
2, 50178, Note_on_c, 0, 76, 0
2, 50178, Note_on_c, 0, 74, 59
2, 50200, Note_on_c, 0, 74, 0
2, 50200, Note_on_c, 0, 76, 60
2, 50222, Note_on_c, 0, 76, 0
2, 50222, Note_on_c, 0, 74, 60
2, 50244, Note_on_c, 0, 74, 0
2, 50244, Note_on_c, 0, 76, 60
2, 50266, Note_on_c, 0, 76, 0
2, 50266, Note_on_c, 0, 74, 61
2, 50288, Note_on_c, 0, 74, 0
2, 50288, Note_on_c, 0, 76, 61
2, 50310, Note_on_c, 0, 76, 0
2, 50310, Note_on_c, 0, 74, 62
2, 50332, Note_on_c, 0, 74, 0
2, 50332, Note_on_c, 0, 76, 62
2, 50354, Note_on_c, 0, 76, 0
2, 50354, Note_on_c, 0, 74, 62
2, 50376, Note_on_c, 0, 74, 0
2, 50376, Note_on_c, 0, 76, 63
2, 50398, Note_on_c, 0, 76, 0
2, 50398, Note_on_c, 0, 74, 63
2, 50420, Note_on_c, 0, 74, 0
2, 50420, Note_on_c, 0, 76, 63
2, 50442, Note_on_c, 0, 76, 0
2, 50442, Note_on_c, 0, 74, 62
2, 50502, Note_on_c, 0, 74, 0
2, 50520, Note_on_c, 0, 72, 64
2, 50880, Note_on_c, 0, 72, 0
2, 50880, Note_on_c, 0, 71, 64
2, 51240, Note_on_c, 0, 71, 0
2, 51240, Note_on_c, 0, 69, 64
2, 51480, Note_on_c, 0, 69, 0
2, 51540, Note_on_c, 0, 67, 64
2, 51600, Note_on_c, 0, 67, 0
2, 51600, Note_on_c, 0, 69, 64
2, 51660, Note_on_c, 0, 69, 0
2, 51660, Note_on_c, 0, 67, 64
2, 51720, Note_on_c, 0, 67, 0
2, 51720, Note_on_c, 0, 66, 64
2, 51780, Note_on_c, 0, 66, 0
2, 51780, Note_on_c, 0, 67, 64
2, 51840, Note_on_c, 0, 67, 0
2, 51840, Note_on_c, 0, 66, 64
2, 51900, Note_on_c, 0, 66, 0
2, 51900, Note_on_c, 0, 62, 64
2, 51930, Note_on_c, 0, 62, 0
2, 51930, Note_on_c, 0, 64, 64
2, 51960, Note_on_c, 0, 64, 0
2, 51960, Note_on_c, 0, 66, 64
2, 52020, Note_on_c, 0, 66, 0
2, 52020, Note_on_c, 0, 62, 64
2, 52080, Note_on_c, 0, 62, 0
2, 52080, Note_on_c, 0, 67, 64
2, 52140, Note_on_c, 0, 67, 0
2, 52140, Note_on_c, 0, 62, 64
2, 52200, Note_on_c, 0, 62, 0
2, 52200, Note_on_c, 0, 69, 64
2, 52260, Note_on_c, 0, 69, 0
2, 52260, Note_on_c, 0, 62, 64
2, 52320, Note_on_c, 0, 62, 0
2, 52320, Note_on_c, 0, 71, 64
2, 52380, Note_on_c, 0, 71, 0
2, 52380, Note_on_c, 0, 62, 64
2, 52440, Note_on_c, 0, 62, 0
2, 52440, Note_on_c, 0, 72, 64
2, 52500, Note_on_c, 0, 72, 0
2, 52500, Note_on_c, 0, 62, 64
2, 52560, Note_on_c, 0, 62, 0
2, 52560, Note_on_c, 0, 71, 64
2, 52620, Note_on_c, 0, 71, 0
2, 52620, Note_on_c, 0, 79, 64
2, 52680, Note_on_c, 0, 79, 0
2, 52680, Note_on_c, 0, 77, 64
2, 52740, Note_on_c, 0, 77, 0
2, 52740, Note_on_c, 0, 76, 64
2, 52800, Note_on_c, 0, 76, 0
2, 52800, Note_on_c, 0, 74, 64
2, 52860, Note_on_c, 0, 74, 0
2, 52860, Note_on_c, 0, 72, 64
2, 52920, Note_on_c, 0, 72, 0
2, 52920, Note_on_c, 0, 71, 64
2, 52980, Note_on_c, 0, 71, 0
2, 52980, Note_on_c, 0, 69, 64
2, 53040, Note_on_c, 0, 69, 0
2, 53040, Note_on_c, 0, 67, 64
2, 53100, Note_on_c, 0, 67, 0
2, 53100, Note_on_c, 0, 65, 64
2, 53160, Note_on_c, 0, 65, 0
2, 53160, Note_on_c, 0, 64, 64
2, 53220, Note_on_c, 0, 64, 0
2, 53220, Note_on_c, 0, 62, 64
2, 53280, Note_on_c, 0, 62, 0
2, 53280, Note_on_c, 0, 60, 64
2, 53340, Note_on_c, 0, 60, 0
2, 53340, Note_on_c, 0, 76, 64
2, 53400, Note_on_c, 0, 76, 0
2, 53400, Note_on_c, 0, 74, 64
2, 53460, Note_on_c, 0, 74, 0
2, 53460, Note_on_c, 0, 72, 64
2, 53520, Note_on_c, 0, 72, 0
2, 53520, Note_on_c, 0, 71, 64
2, 53580, Note_on_c, 0, 71, 0
2, 53580, Note_on_c, 0, 69, 64
2, 53640, Note_on_c, 0, 69, 0
2, 53640, Note_on_c, 0, 68, 64
2, 53700, Note_on_c, 0, 68, 0
2, 53700, Note_on_c, 0, 66, 64
2, 53760, Note_on_c, 0, 66, 0
2, 53760, Note_on_c, 0, 64, 64
2, 53820, Note_on_c, 0, 64, 0
2, 53820, Note_on_c, 0, 62, 64
2, 53880, Note_on_c, 0, 62, 0
2, 53880, Note_on_c, 0, 60, 64
2, 53940, Note_on_c, 0, 60, 0
2, 53940, Note_on_c, 0, 59, 64
2, 54000, Note_on_c, 0, 59, 0
2, 54000, Note_on_c, 0, 57, 64
2, 54060, Note_on_c, 0, 57, 0
2, 54060, Note_on_c, 0, 59, 64
2, 54120, Note_on_c, 0, 59, 0
2, 54120, Note_on_c, 0, 61, 64
2, 54180, Note_on_c, 0, 61, 0
2, 54180, Note_on_c, 0, 57, 64
2, 54240, Note_on_c, 0, 57, 0
2, 54240, Note_on_c, 0, 62, 64
2, 54300, Note_on_c, 0, 62, 0
2, 54300, Note_on_c, 0, 57, 64
2, 54360, Note_on_c, 0, 57, 0
2, 54360, Note_on_c, 0, 64, 64
2, 54420, Note_on_c, 0, 64, 0
2, 54420, Note_on_c, 0, 57, 64
2, 54480, Note_on_c, 0, 57, 0
2, 54480, Note_on_c, 0, 66, 64
2, 54540, Note_on_c, 0, 66, 0
2, 54540, Note_on_c, 0, 57, 64
2, 54600, Note_on_c, 0, 57, 0
2, 54600, Note_on_c, 0, 67, 64
2, 54660, Note_on_c, 0, 67, 0
2, 54660, Note_on_c, 0, 57, 64
2, 54720, Note_on_c, 0, 57, 0
2, 54720, Note_on_c, 0, 66, 64
2, 54840, Note_on_c, 0, 66, 0
2, 54840, Note_on_c, 0, 71, 64
2, 54960, Note_on_c, 0, 71, 0
2, 54960, Note_on_c, 0, 67, 64
2, 55080, Note_on_c, 0, 67, 0
2, 55080, Note_on_c, 0, 64, 64
2, 55200, Note_on_c, 0, 64, 0
2, 55200, Note_on_c, 0, 69, 64
2, 55320, Note_on_c, 0, 69, 0
2, 55320, Note_on_c, 0, 66, 64
2, 55440, Note_on_c, 0, 66, 0
2, 55440, Note_on_c, 0, 67, 64
2, 55860, Note_on_c, 0, 67, 0
2, 55860, Note_on_c, 0, 69, 64
2, 55910, Note_on_c, 0, 69, 0
2, 55912, Note_on_c, 0, 71, 72
2, 55934, Note_on_c, 0, 71, 0
2, 55934, Note_on_c, 0, 69, 48
2, 55956, Note_on_c, 0, 69, 0
2, 55956, Note_on_c, 0, 71, 53
2, 55978, Note_on_c, 0, 71, 0
2, 55978, Note_on_c, 0, 69, 58
2, 56000, Note_on_c, 0, 69, 0
2, 56000, Note_on_c, 0, 71, 63
2, 56022, Note_on_c, 0, 71, 0
2, 56022, Note_on_c, 0, 69, 79
2, 56100, Note_on_c, 0, 69, 0
2, 56100, Note_on_c, 0, 67, 68
2, 56130, Note_on_c, 0, 67, 0
2, 56130, Note_on_c, 0, 69, 64
2, 56160, Note_on_c, 0, 69, 0
2, 56160, Note_on_c, 0, 71, 64
2, 56280, Note_on_c, 0, 71, 0
2, 56280, Note_on_c, 0, 72, 64
2, 56340, Note_on_c, 0, 72, 0
2, 56340, Note_on_c, 0, 71, 64
2, 56400, Note_on_c, 0, 71, 0
2, 56400, Note_on_c, 0, 69, 64
2, 56460, Note_on_c, 0, 69, 0
2, 56460, Note_on_c, 0, 71, 64
2, 56520, Note_on_c, 0, 71, 0
2, 56520, Note_on_c, 0, 72, 64
2, 56640, Note_on_c, 0, 72, 0
2, 56640, Note_on_c, 0, 74, 64
2, 56700, Note_on_c, 0, 74, 0
2, 56700, Note_on_c, 0, 72, 64
2, 56760, Note_on_c, 0, 72, 0
2, 56760, Note_on_c, 0, 71, 64
2, 56820, Note_on_c, 0, 71, 0
2, 56820, Note_on_c, 0, 72, 64
2, 56880, Note_on_c, 0, 72, 0
2, 56880, Note_on_c, 0, 74, 64
2, 57000, Note_on_c, 0, 74, 0
2, 57000, Note_on_c, 0, 72, 64
2, 57120, Note_on_c, 0, 72, 0
2, 57120, Note_on_c, 0, 71, 64
2, 57240, Note_on_c, 0, 71, 0
2, 57240, Note_on_c, 0, 69, 64
2, 57360, Note_on_c, 0, 69, 0
2, 57360, Note_on_c, 0, 79, 64
2, 57600, Note_on_c, 0, 79, 0
2, 57600, Note_on_c, 0, 78, 64
2, 57720, Note_on_c, 0, 78, 0
2, 57720, Note_on_c, 0, 76, 64
2, 57840, Note_on_c, 0, 76, 0
2, 57840, Note_on_c, 0, 74, 64
2, 57960, Note_on_c, 0, 74, 0
2, 57960, Note_on_c, 0, 73, 64
2, 58080, Note_on_c, 0, 73, 0
2, 58080, Note_on_c, 0, 82, 64
2, 58320, Note_on_c, 0, 82, 0
2, 58320, Note_on_c, 0, 81, 64
2, 58380, Note_on_c, 0, 81, 0
2, 58380, Note_on_c, 0, 79, 64
2, 58440, Note_on_c, 0, 79, 0
2, 58440, Note_on_c, 0, 78, 64
2, 58500, Note_on_c, 0, 78, 0
2, 58500, Note_on_c, 0, 76, 64
2, 58560, Note_on_c, 0, 76, 0
2, 58560, Note_on_c, 0, 74, 64
2, 58680, Note_on_c, 0, 74, 0
2, 58740, Note_on_c, 0, 79, 64
2, 58860, Note_on_c, 0, 79, 0
2, 58860, Note_on_c, 0, 72, 64
2, 58920, Note_on_c, 0, 72, 0
2, 58920, Note_on_c, 0, 79, 64
2, 58980, Note_on_c, 0, 79, 0
2, 58980, Note_on_c, 0, 78, 64
2, 59040, Note_on_c, 0, 78, 0
2, 59040, Note_on_c, 0, 79, 64
2, 59100, Note_on_c, 0, 79, 0
2, 59100, Note_on_c, 0, 78, 64
2, 59130, Note_on_c, 0, 78, 0
2, 59130, Note_on_c, 0, 76, 64
2, 59160, Note_on_c, 0, 76, 0
2, 59160, Note_on_c, 0, 74, 64
2, 59220, Note_on_c, 0, 74, 0
2, 59220, Note_on_c, 0, 79, 64
2, 59280, Note_on_c, 0, 79, 0
2, 59280, Note_on_c, 0, 72, 64
2, 59340, Note_on_c, 0, 72, 0
2, 59340, Note_on_c, 0, 79, 64
2, 59400, Note_on_c, 0, 79, 0
2, 59400, Note_on_c, 0, 71, 64
2, 59520, Note_on_c, 0, 71, 0
2, 59520, Note_on_c, 0, 79, 64
2, 59640, Note_on_c, 0, 79, 0
2, 59640, Note_on_c, 0, 69, 64
2, 59760, Note_on_c, 0, 69, 0
2, 59760, Note_on_c, 0, 71, 64
2, 59820, Note_on_c, 0, 71, 0
2, 59820, Note_on_c, 0, 74, 64
2, 59850, Note_on_c, 0, 74, 0
2, 59850, Note_on_c, 0, 72, 64
2, 59880, Note_on_c, 0, 72, 0
2, 59880, Note_on_c, 0, 71, 64
2, 59940, Note_on_c, 0, 71, 0
2, 59940, Note_on_c, 0, 74, 64
2, 60000, Note_on_c, 0, 74, 0
2, 60000, Note_on_c, 0, 69, 64
2, 60060, Note_on_c, 0, 69, 0
2, 60060, Note_on_c, 0, 74, 64
2, 60120, Note_on_c, 0, 74, 0
2, 60120, Note_on_c, 0, 67, 64
2, 60240, Note_on_c, 0, 67, 0
2, 60240, Note_on_c, 0, 72, 64
2, 60510, Note_on_c, 0, 67, 64
2, 60540, Note_on_c, 0, 67, 0
2, 60540, Note_on_c, 0, 72, 0
2, 60540, Note_on_c, 0, 69, 64
2, 60570, Note_on_c, 0, 69, 0
2, 60570, Note_on_c, 0, 71, 64
2, 60600, Note_on_c, 0, 71, 0
2, 60600, Note_on_c, 0, 72, 64
2, 60660, Note_on_c, 0, 72, 0
2, 60660, Note_on_c, 0, 67, 64
2, 60720, Note_on_c, 0, 67, 0
2, 60720, Note_on_c, 0, 74, 64
2, 60780, Note_on_c, 0, 74, 0
2, 60780, Note_on_c, 0, 67, 64
2, 60840, Note_on_c, 0, 67, 0
2, 60840, Note_on_c, 0, 76, 64
2, 60870, Note_on_c, 0, 76, 0
2, 60870, Note_on_c, 0, 71, 64
2, 60900, Note_on_c, 0, 71, 0
2, 60900, Note_on_c, 0, 72, 64
2, 60930, Note_on_c, 0, 72, 0
2, 60930, Note_on_c, 0, 74, 64
2, 60960, Note_on_c, 0, 74, 0
2, 60960, Note_on_c, 0, 76, 64
2, 61020, Note_on_c, 0, 76, 0
2, 61020, Note_on_c, 0, 72, 64
2, 61080, Note_on_c, 0, 72, 0
2, 61080, Note_on_c, 0, 78, 64
2, 61140, Note_on_c, 0, 78, 0
2, 61140, Note_on_c, 0, 72, 64
2, 61200, Note_on_c, 0, 72, 0
2, 61200, Note_on_c, 0, 79, 64
2, 61500, Note_on_c, 0, 79, 0
2, 61500, Note_on_c, 0, 78, 64
2, 61560, Note_on_c, 0, 78, 0
2, 61560, Note_on_c, 0, 79, 64
2, 61920, Note_on_c, 0, 79, 0
2, 61920, End_track
3, 0, Start_track
3, 0, MIDI_port, 0
3, 0, Title_t, "RH L/ LH H"
3, 0, Program_c, 1, 6
3, 2880, Note_on_c, 1, 62, 64
3, 3000, Note_on_c, 1, 62, 0
3, 3000, Note_on_c, 1, 64, 64
3, 3060, Note_on_c, 1, 64, 0
3, 3060, Note_on_c, 1, 62, 64
3, 3120, Note_on_c, 1, 62, 0
3, 3120, Note_on_c, 1, 61, 64
3, 3180, Note_on_c, 1, 61, 0
3, 3180, Note_on_c, 1, 62, 64
3, 3240, Note_on_c, 1, 62, 0
3, 3240, Note_on_c, 1, 64, 64
3, 3360, Note_on_c, 1, 64, 0
3, 3360, Note_on_c, 1, 66, 64
3, 3420, Note_on_c, 1, 66, 0
3, 3420, Note_on_c, 1, 64, 64
3, 3480, Note_on_c, 1, 64, 0
3, 3480, Note_on_c, 1, 62, 64
3, 3540, Note_on_c, 1, 62, 0
3, 3540, Note_on_c, 1, 64, 64
3, 3600, Note_on_c, 1, 64, 0
3, 3600, Note_on_c, 1, 66, 64
3, 3720, Note_on_c, 1, 66, 0
3, 3720, Note_on_c, 1, 64, 64
3, 3840, Note_on_c, 1, 64, 0
3, 3840, Note_on_c, 1, 62, 64
3, 3960, Note_on_c, 1, 62, 0
3, 3960, Note_on_c, 1, 57, 64
3, 4080, Note_on_c, 1, 57, 0
3, 4080, Note_on_c, 1, 67, 64
3, 4320, Note_on_c, 1, 67, 0
3, 4320, Note_on_c, 1, 66, 64
3, 4440, Note_on_c, 1, 66, 0
3, 4440, Note_on_c, 1, 64, 64
3, 4560, Note_on_c, 1, 64, 0
3, 4560, Note_on_c, 1, 62, 64
3, 4680, Note_on_c, 1, 62, 0
3, 4680, Note_on_c, 1, 61, 64
3, 4800, Note_on_c, 1, 61, 0
3, 4800, Note_on_c, 1, 71, 64
3, 5040, Note_on_c, 1, 71, 0
3, 5040, Note_on_c, 1, 69, 64
3, 5160, Note_on_c, 1, 69, 0
3, 5160, Note_on_c, 1, 71, 64
3, 5220, Note_on_c, 1, 71, 0
3, 5220, Note_on_c, 1, 69, 64
3, 5280, Note_on_c, 1, 69, 0
3, 5280, Note_on_c, 1, 67, 64
3, 5340, Note_on_c, 1, 67, 0
3, 5340, Note_on_c, 1, 66, 64
3, 5400, Note_on_c, 1, 66, 0
3, 5400, Note_on_c, 1, 64, 64
3, 5520, Note_on_c, 1, 64, 0
3, 5520, Note_on_c, 1, 67, 64
3, 5580, Note_on_c, 1, 67, 0
3, 5580, Note_on_c, 1, 66, 64
3, 5640, Note_on_c, 1, 66, 0
3, 5640, Note_on_c, 1, 64, 64
3, 5700, Note_on_c, 1, 64, 0
3, 5700, Note_on_c, 1, 62, 64
3, 5760, Note_on_c, 1, 62, 0
3, 5760, Note_on_c, 1, 61, 64
3, 5880, Note_on_c, 1, 61, 0
3, 5880, Note_on_c, 1, 67, 64
3, 6000, Note_on_c, 1, 67, 0
3, 6000, Note_on_c, 1, 66, 64
3, 6120, Note_on_c, 1, 66, 0
3, 6120, Note_on_c, 1, 64, 64
3, 6240, Note_on_c, 1, 64, 0
3, 6240, Note_on_c, 1, 62, 64
3, 6360, Note_on_c, 1, 62, 0
3, 6360, Note_on_c, 1, 61, 64
3, 6480, Note_on_c, 1, 61, 0
3, 6480, Note_on_c, 1, 62, 64
3, 6540, Note_on_c, 1, 62, 0
3, 6540, Note_on_c, 1, 64, 64
3, 6600, Note_on_c, 1, 64, 0
3, 6600, Note_on_c, 1, 66, 64
3, 6660, Note_on_c, 1, 66, 0
3, 6660, Note_on_c, 1, 62, 64
3, 6720, Note_on_c, 1, 62, 0
3, 6720, Note_on_c, 1, 67, 64
3, 6780, Note_on_c, 1, 67, 0
3, 6780, Note_on_c, 1, 62, 64
3, 6840, Note_on_c, 1, 62, 0
3, 6840, Note_on_c, 1, 69, 64
3, 6900, Note_on_c, 1, 69, 0
3, 6900, Note_on_c, 1, 62, 64
3, 6960, Note_on_c, 1, 62, 0
3, 6960, Note_on_c, 1, 71, 64
3, 7020, Note_on_c, 1, 71, 0
3, 7020, Note_on_c, 1, 62, 64
3, 7080, Note_on_c, 1, 62, 0
3, 7080, Note_on_c, 1, 72, 64
3, 7140, Note_on_c, 1, 72, 0
3, 7140, Note_on_c, 1, 62, 64
3, 7200, Note_on_c, 1, 62, 0
3, 7200, Note_on_c, 1, 71, 64
3, 7560, Note_on_c, 1, 71, 0
3, 7560, Note_on_c, 1, 72, 64
3, 8040, Note_on_c, 1, 72, 0
3, 8040, Note_on_c, 1, 66, 64
3, 8160, Note_on_c, 1, 66, 0
3, 8160, Note_on_c, 1, 67, 64
3, 8400, Note_on_c, 1, 67, 0
3, 8400, Note_on_c, 1, 66, 64
3, 8460, Note_on_c, 1, 66, 0
3, 8460, Note_on_c, 1, 67, 64
3, 8520, Note_on_c, 1, 67, 0
3, 8520, Note_on_c, 1, 69, 64
3, 8580, Note_on_c, 1, 69, 0
3, 8580, Note_on_c, 1, 66, 64
3, 8640, Note_on_c, 1, 66, 0
3, 8640, Note_on_c, 1, 67, 64
3, 8700, Note_on_c, 1, 67, 0
3, 8700, Note_on_c, 1, 66, 64
3, 8760, Note_on_c, 1, 66, 0
3, 8760, Note_on_c, 1, 67, 64
3, 8820, Note_on_c, 1, 67, 0
3, 8820, Note_on_c, 1, 69, 64
3, 8880, Note_on_c, 1, 69, 0
3, 8880, Note_on_c, 1, 71, 64
3, 8940, Note_on_c, 1, 71, 0
3, 8940, Note_on_c, 1, 67, 64
3, 9000, Note_on_c, 1, 67, 0
3, 9000, Note_on_c, 1, 69, 64
3, 9060, Note_on_c, 1, 69, 0
3, 9060, Note_on_c, 1, 67, 64
3, 9120, Note_on_c, 1, 67, 0
3, 9120, Note_on_c, 1, 69, 64
3, 9180, Note_on_c, 1, 69, 0
3, 9180, Note_on_c, 1, 71, 64
3, 9240, Note_on_c, 1, 71, 0
3, 9240, Note_on_c, 1, 72, 64
3, 9300, Note_on_c, 1, 72, 0
3, 9300, Note_on_c, 1, 69, 64
3, 9360, Note_on_c, 1, 69, 0
3, 9360, Note_on_c, 1, 71, 64
3, 9480, Note_on_c, 1, 71, 0
3, 9480, Note_on_c, 1, 72, 64
3, 9540, Note_on_c, 1, 72, 0
3, 9540, Note_on_c, 1, 71, 64
3, 9600, Note_on_c, 1, 71, 0
3, 9600, Note_on_c, 1, 69, 64
3, 9660, Note_on_c, 1, 69, 0
3, 9660, Note_on_c, 1, 67, 64
3, 9720, Note_on_c, 1, 67, 0
3, 9720, Note_on_c, 1, 72, 64
3, 10140, Note_on_c, 1, 72, 0
3, 10140, Note_on_c, 1, 71, 64
3, 10200, Note_on_c, 1, 71, 0
3, 10200, Note_on_c, 1, 69, 64
3, 10260, Note_on_c, 1, 69, 0
3, 10260, Note_on_c, 1, 72, 64
3, 10320, Note_on_c, 1, 72, 0
3, 10320, Note_on_c, 1, 67, 64
3, 10380, Note_on_c, 1, 67, 0
3, 10380, Note_on_c, 1, 72, 64
3, 10440, Note_on_c, 1, 72, 0
3, 10440, Note_on_c, 1, 66, 64
3, 10500, Note_on_c, 1, 66, 0
3, 10500, Note_on_c, 1, 72, 64
3, 10560, Note_on_c, 1, 72, 0
3, 10560, Note_on_c, 1, 64, 64
3, 10620, Note_on_c, 1, 64, 0
3, 10620, Note_on_c, 1, 72, 64
3, 10680, Note_on_c, 1, 72, 0
3, 10680, Note_on_c, 1, 62, 64
3, 10740, Note_on_c, 1, 62, 0
3, 10740, Note_on_c, 1, 72, 64
3, 10800, Note_on_c, 1, 72, 0
3, 10800, Note_on_c, 1, 71, 64
3, 10920, Note_on_c, 1, 71, 0
3, 10920, Note_on_c, 1, 65, 64
3, 11040, Note_on_c, 1, 65, 0
3, 11040, Note_on_c, 1, 64, 64
3, 11160, Note_on_c, 1, 64, 0
3, 11160, Note_on_c, 1, 62, 64
3, 11280, Note_on_c, 1, 62, 0
3, 11280, Note_on_c, 1, 60, 64
3, 11400, Note_on_c, 1, 60, 0
3, 11400, Note_on_c, 1, 59, 64
3, 11520, Note_on_c, 1, 59, 0
3, 11760, Note_on_c, 1, 67, 64
3, 11880, Note_on_c, 1, 67, 0
3, 11880, Note_on_c, 1, 66, 64
3, 12470, Note_on_c, 1, 66, 0
3, 12480, Note_on_c, 1, 66, 64
3, 12600, Note_on_c, 1, 66, 0
3, 12600, Note_on_c, 1, 64, 64
3, 13190, Note_on_c, 1, 64, 0
3, 13200, Note_on_c, 1, 64, 64
3, 13320, Note_on_c, 1, 64, 0
3, 13320, Note_on_c, 1, 62, 64
3, 13680, Note_on_c, 1, 62, 0
3, 13680, Note_on_c, 1, 62, 64
3, 13800, Note_on_c, 1, 62, 0
3, 13800, Note_on_c, 1, 60, 64
3, 13860, Note_on_c, 1, 60, 0
3, 13860, Note_on_c, 1, 62, 64
3, 13920, Note_on_c, 1, 62, 0
3, 13920, Note_on_c, 1, 64, 64
3, 13980, Note_on_c, 1, 64, 0
3, 13980, Note_on_c, 1, 62, 64
3, 14040, Note_on_c, 1, 62, 0
3, 14040, Note_on_c, 1, 60, 64
3, 14160, Note_on_c, 1, 60, 0
3, 14160, Note_on_c, 1, 59, 64
3, 14220, Note_on_c, 1, 59, 0
3, 14220, Note_on_c, 1, 60, 64
3, 14280, Note_on_c, 1, 60, 0
3, 14280, Note_on_c, 1, 62, 64
3, 14340, Note_on_c, 1, 62, 0
3, 14340, Note_on_c, 1, 60, 64
3, 14400, Note_on_c, 1, 60, 0
3, 14400, Note_on_c, 1, 59, 64
3, 14520, Note_on_c, 1, 59, 0
3, 14520, Note_on_c, 1, 60, 64
3, 14640, Note_on_c, 1, 60, 0
3, 14640, Note_on_c, 1, 62, 64
3, 14760, Note_on_c, 1, 62, 0
3, 14760, Note_on_c, 1, 67, 64
3, 14880, Note_on_c, 1, 67, 0
3, 14880, Note_on_c, 1, 57, 64
3, 15120, Note_on_c, 1, 57, 0
3, 15120, Note_on_c, 1, 59, 64
3, 15240, Note_on_c, 1, 59, 0
3, 15240, Note_on_c, 1, 60, 64
3, 15360, Note_on_c, 1, 60, 0
3, 15360, Note_on_c, 1, 62, 64
3, 15480, Note_on_c, 1, 62, 0
3, 15480, Note_on_c, 1, 64, 64
3, 15600, Note_on_c, 1, 64, 0
3, 15600, Note_on_c, 1, 54, 64
3, 15840, Note_on_c, 1, 54, 0
3, 15840, Note_on_c, 1, 55, 64
3, 15950, Note_on_c, 1, 55, 0
3, 15960, Note_on_c, 1, 55, 64
3, 16020, Note_on_c, 1, 55, 0
3, 16020, Note_on_c, 1, 57, 64
3, 16080, Note_on_c, 1, 57, 0
3, 16080, Note_on_c, 1, 59, 64
3, 16140, Note_on_c, 1, 59, 0
3, 16140, Note_on_c, 1, 61, 64
3, 16200, Note_on_c, 1, 61, 0
3, 16200, Note_on_c, 1, 62, 64
3, 16320, Note_on_c, 1, 62, 0
3, 16320, Note_on_c, 1, 59, 64
3, 16380, Note_on_c, 1, 59, 0
3, 16380, Note_on_c, 1, 61, 64
3, 16440, Note_on_c, 1, 61, 0
3, 16440, Note_on_c, 1, 62, 64
3, 16500, Note_on_c, 1, 62, 0
3, 16500, Note_on_c, 1, 64, 64
3, 16560, Note_on_c, 1, 64, 0
3, 16560, Note_on_c, 1, 66, 64
3, 16680, Note_on_c, 1, 66, 0
3, 16680, Note_on_c, 1, 64, 64
3, 16800, Note_on_c, 1, 64, 0
3, 16800, Note_on_c, 1, 63, 64
3, 16920, Note_on_c, 1, 63, 0
3, 16920, Note_on_c, 1, 64, 64
3, 17040, Note_on_c, 1, 64, 0
3, 17040, Note_on_c, 1, 62, 64
3, 17160, Note_on_c, 1, 62, 0
3, 17160, Note_on_c, 1, 61, 64
3, 17280, Note_on_c, 1, 61, 0
3, 17280, Note_on_c, 1, 62, 64
3, 17400, Note_on_c, 1, 62, 0
3, 17400, Note_on_c, 1, 61, 64
3, 17460, Note_on_c, 1, 61, 0
3, 17460, Note_on_c, 1, 59, 64
3, 17520, Note_on_c, 1, 59, 0
3, 17520, Note_on_c, 1, 57, 64
3, 17580, Note_on_c, 1, 57, 0
3, 17580, Note_on_c, 1, 60, 64
3, 17640, Note_on_c, 1, 60, 0
3, 17640, Note_on_c, 1, 59, 64
3, 17700, Note_on_c, 1, 59, 0
3, 17700, Note_on_c, 1, 60, 64
3, 17760, Note_on_c, 1, 60, 0
3, 17760, Note_on_c, 1, 59, 64
3, 17820, Note_on_c, 1, 59, 0
3, 17820, Note_on_c, 1, 57, 64
3, 17880, Note_on_c, 1, 57, 0
3, 17880, Note_on_c, 1, 55, 64
3, 17940, Note_on_c, 1, 55, 0
3, 17940, Note_on_c, 1, 59, 64
3, 18000, Note_on_c, 1, 59, 0
3, 18000, Note_on_c, 1, 57, 64
3, 18060, Note_on_c, 1, 57, 0
3, 18060, Note_on_c, 1, 59, 64
3, 18120, Note_on_c, 1, 59, 0
3, 18120, Note_on_c, 1, 57, 64
3, 18180, Note_on_c, 1, 57, 0
3, 18180, Note_on_c, 1, 55, 64
3, 18240, Note_on_c, 1, 55, 0
3, 18240, Note_on_c, 1, 54, 64
3, 18300, Note_on_c, 1, 54, 0
3, 18300, Note_on_c, 1, 57, 64
3, 18360, Note_on_c, 1, 57, 0
3, 18360, Note_on_c, 1, 55, 64
3, 18420, Note_on_c, 1, 55, 0
3, 18420, Note_on_c, 1, 57, 64
3, 18480, Note_on_c, 1, 57, 0
3, 18480, Note_on_c, 1, 55, 64
3, 18540, Note_on_c, 1, 55, 0
3, 18540, Note_on_c, 1, 54, 64
3, 18600, Note_on_c, 1, 54, 0
3, 18600, Note_on_c, 1, 52, 64
3, 18660, Note_on_c, 1, 52, 0
3, 18660, Note_on_c, 1, 55, 64
3, 18720, Note_on_c, 1, 55, 0
3, 18720, Note_on_c, 1, 54, 64
3, 18780, Note_on_c, 1, 54, 0
3, 18780, Note_on_c, 1, 55, 64
3, 18840, Note_on_c, 1, 55, 0
3, 18840, Note_on_c, 1, 54, 64
3, 18900, Note_on_c, 1, 54, 0
3, 18900, Note_on_c, 1, 52, 64
3, 18960, Note_on_c, 1, 52, 0
3, 18960, Note_on_c, 1, 50, 64
3, 19020, Note_on_c, 1, 50, 0
3, 19020, Note_on_c, 1, 52, 64
3, 19080, Note_on_c, 1, 52, 0
3, 19080, Note_on_c, 1, 54, 64
3, 19140, Note_on_c, 1, 54, 0
3, 19140, Note_on_c, 1, 55, 64
3, 19200, Note_on_c, 1, 55, 0
3, 19200, Note_on_c, 1, 57, 64
3, 19260, Note_on_c, 1, 57, 0
3, 19260, Note_on_c, 1, 59, 64
3, 19320, Note_on_c, 1, 59, 0
3, 19320, Note_on_c, 1, 60, 64
3, 19380, Note_on_c, 1, 60, 0
3, 19380, Note_on_c, 1, 62, 64
3, 19440, Note_on_c, 1, 62, 0
3, 19440, Note_on_c, 1, 54, 64
3, 19560, Note_on_c, 1, 54, 0
3, 19560, Note_on_c, 1, 69, 64
3, 19680, Note_on_c, 1, 69, 0
3, 19680, Note_on_c, 1, 67, 64
3, 19920, Note_on_c, 1, 67, 0
3, 19920, Note_on_c, 1, 67, 64
3, 20040, Note_on_c, 1, 67, 0
3, 20040, Note_on_c, 1, 66, 64
3, 20160, Note_on_c, 1, 66, 0
3, 20160, Note_on_c, 1, 67, 64
3, 20280, Note_on_c, 1, 67, 0
3, 21840, Note_on_c, 1, 62, 64
3, 21960, Note_on_c, 1, 62, 0
3, 21960, Note_on_c, 1, 61, 64
3, 22080, Note_on_c, 1, 61, 0
3, 22560, Note_on_c, 1, 61, 64
3, 22680, Note_on_c, 1, 61, 0
3, 22680, Note_on_c, 1, 59, 64
3, 22800, Note_on_c, 1, 59, 0
3, 23280, Note_on_c, 1, 59, 64
3, 23400, Note_on_c, 1, 59, 0
3, 23400, Note_on_c, 1, 57, 64
3, 23520, Note_on_c, 1, 57, 0
3, 28140, Note_on_c, 1, 63, 64
3, 28200, Note_on_c, 1, 63, 0
3, 28200, Note_on_c, 1, 64, 64
3, 28260, Note_on_c, 1, 64, 0
3, 28260, Note_on_c, 1, 66, 64
3, 28320, Note_on_c, 1, 66, 0
3, 28320, Note_on_c, 1, 67, 64
3, 28380, Note_on_c, 1, 67, 0
3, 28380, Note_on_c, 1, 64, 64
3, 28440, Note_on_c, 1, 64, 0
3, 28440, Note_on_c, 1, 66, 64
3, 28500, Note_on_c, 1, 66, 0
3, 28500, Note_on_c, 1, 64, 64
3, 28560, Note_on_c, 1, 64, 0
3, 28560, Note_on_c, 1, 66, 64
3, 28620, Note_on_c, 1, 66, 0
3, 28620, Note_on_c, 1, 67, 64
3, 28680, Note_on_c, 1, 67, 0
3, 28680, Note_on_c, 1, 69, 64
3, 28740, Note_on_c, 1, 69, 0
3, 28740, Note_on_c, 1, 66, 64
3, 28800, Note_on_c, 1, 66, 0
3, 28800, Note_on_c, 1, 67, 64
3, 28920, Note_on_c, 1, 67, 0
3, 28920, Note_on_c, 1, 69, 64
3, 28980, Note_on_c, 1, 69, 0
3, 28980, Note_on_c, 1, 67, 64
3, 29040, Note_on_c, 1, 67, 0
3, 29040, Note_on_c, 1, 66, 64
3, 29100, Note_on_c, 1, 66, 0
3, 29100, Note_on_c, 1, 64, 64
3, 29160, Note_on_c, 1, 64, 0
3, 29160, Note_on_c, 1, 69, 64
3, 29580, Note_on_c, 1, 69, 0
3, 29580, Note_on_c, 1, 67, 64
3, 29640, Note_on_c, 1, 67, 0
3, 29640, Note_on_c, 1, 66, 64
3, 29700, Note_on_c, 1, 66, 0
3, 29700, Note_on_c, 1, 69, 64
3, 29760, Note_on_c, 1, 69, 0
3, 29760, Note_on_c, 1, 64, 64
3, 29820, Note_on_c, 1, 64, 0
3, 29820, Note_on_c, 1, 69, 64
3, 29880, Note_on_c, 1, 69, 0
3, 29880, Note_on_c, 1, 63, 64
3, 29940, Note_on_c, 1, 63, 0
3, 29940, Note_on_c, 1, 69, 64
3, 30000, Note_on_c, 1, 69, 0
3, 30000, Note_on_c, 1, 61, 64
3, 30060, Note_on_c, 1, 61, 0
3, 30060, Note_on_c, 1, 69, 64
3, 30120, Note_on_c, 1, 69, 0
3, 30120, Note_on_c, 1, 59, 64
3, 30180, Note_on_c, 1, 59, 0
3, 30180, Note_on_c, 1, 69, 64
3, 30240, Note_on_c, 1, 69, 0
3, 30240, Note_on_c, 1, 67, 64
3, 30360, Note_on_c, 1, 67, 0
3, 30360, Note_on_c, 1, 66, 64
3, 30420, Note_on_c, 1, 66, 0
3, 30420, Note_on_c, 1, 67, 64
3, 30480, Note_on_c, 1, 67, 0
3, 30480, Note_on_c, 1, 69, 64
3, 30540, Note_on_c, 1, 69, 0
3, 30540, Note_on_c, 1, 67, 64
3, 30600, Note_on_c, 1, 67, 0
3, 30600, Note_on_c, 1, 66, 64
3, 30720, Note_on_c, 1, 66, 0
3, 30720, Note_on_c, 1, 64, 64
3, 30780, Note_on_c, 1, 64, 0
3, 30780, Note_on_c, 1, 66, 64
3, 30840, Note_on_c, 1, 66, 0
3, 30840, Note_on_c, 1, 67, 64
3, 30900, Note_on_c, 1, 67, 0
3, 30900, Note_on_c, 1, 66, 64
3, 30960, Note_on_c, 1, 66, 0
3, 30960, Note_on_c, 1, 64, 64
3, 31080, Note_on_c, 1, 64, 0
3, 31080, Note_on_c, 1, 66, 64
3, 31200, Note_on_c, 1, 66, 0
3, 31200, Note_on_c, 1, 67, 64
3, 31320, Note_on_c, 1, 67, 0
3, 31320, Note_on_c, 1, 72, 64
3, 31440, Note_on_c, 1, 72, 0
3, 31440, Note_on_c, 1, 63, 64
3, 31680, Note_on_c, 1, 63, 0
3, 31680, Note_on_c, 1, 64, 64
3, 31800, Note_on_c, 1, 64, 0
3, 31800, Note_on_c, 1, 66, 64
3, 31920, Note_on_c, 1, 66, 0
3, 31920, Note_on_c, 1, 67, 64
3, 32040, Note_on_c, 1, 67, 0
3, 32040, Note_on_c, 1, 69, 64
3, 32160, Note_on_c, 1, 69, 0
3, 32160, Note_on_c, 1, 59, 64
3, 32400, Note_on_c, 1, 59, 0
3, 32400, Note_on_c, 1, 60, 64
3, 32460, Note_on_c, 1, 60, 0
3, 32460, Note_on_c, 1, 59, 64
3, 32520, Note_on_c, 1, 59, 0
3, 32520, Note_on_c, 1, 57, 64
3, 32580, Note_on_c, 1, 57, 0
3, 32580, Note_on_c, 1, 59, 64
3, 32640, Note_on_c, 1, 59, 0
3, 32640, Note_on_c, 1, 60, 64
3, 32700, Note_on_c, 1, 60, 0
3, 32700, Note_on_c, 1, 62, 64
3, 32760, Note_on_c, 1, 62, 0
3, 32760, Note_on_c, 1, 64, 64
3, 32820, Note_on_c, 1, 64, 0
3, 32820, Note_on_c, 1, 63, 64
3, 32880, Note_on_c, 1, 63, 0
3, 32880, Note_on_c, 1, 64, 64
3, 32940, Note_on_c, 1, 64, 0
3, 32940, Note_on_c, 1, 66, 64
3, 33000, Note_on_c, 1, 66, 0
3, 33000, Note_on_c, 1, 67, 64
3, 33060, Note_on_c, 1, 67, 0
3, 33060, Note_on_c, 1, 69, 64
3, 33120, Note_on_c, 1, 69, 0
3, 33120, Note_on_c, 1, 71, 64
3, 33600, Note_on_c, 1, 71, 0
3, 33600, Note_on_c, 1, 72, 64
3, 33720, Note_on_c, 1, 72, 0
3, 33720, Note_on_c, 1, 66, 64
3, 33840, Note_on_c, 1, 66, 0
3, 33840, Note_on_c, 1, 64, 64
3, 33900, Note_on_c, 1, 64, 0
3, 33900, Note_on_c, 1, 66, 64
3, 33960, Note_on_c, 1, 66, 0
3, 33960, Note_on_c, 1, 67, 64
3, 34260, Note_on_c, 1, 67, 0
3, 34260, Note_on_c, 1, 66, 64
3, 34320, Note_on_c, 1, 66, 0
3, 34320, Note_on_c, 1, 64, 64
3, 34380, Note_on_c, 1, 64, 0
3, 34380, Note_on_c, 1, 62, 64
3, 34440, Note_on_c, 1, 62, 0
3, 34440, Note_on_c, 1, 61, 64
3, 34500, Note_on_c, 1, 61, 0
3, 34500, Note_on_c, 1, 64, 64
3, 34560, Note_on_c, 1, 64, 0
3, 34560, Note_on_c, 1, 62, 64
3, 34620, Note_on_c, 1, 62, 0
3, 34620, Note_on_c, 1, 64, 64
3, 34680, Note_on_c, 1, 64, 0
3, 34680, Note_on_c, 1, 66, 64
3, 34980, Note_on_c, 1, 66, 0
3, 34980, Note_on_c, 1, 64, 64
3, 35040, Note_on_c, 1, 64, 0
3, 35040, Note_on_c, 1, 62, 64
3, 35100, Note_on_c, 1, 62, 0
3, 35100, Note_on_c, 1, 61, 64
3, 35160, Note_on_c, 1, 61, 0
3, 35160, Note_on_c, 1, 59, 64
3, 35220, Note_on_c, 1, 59, 0
3, 35220, Note_on_c, 1, 62, 64
3, 35280, Note_on_c, 1, 62, 0
3, 35280, Note_on_c, 1, 61, 64
3, 35340, Note_on_c, 1, 61, 0
3, 35340, Note_on_c, 1, 62, 64
3, 35400, Note_on_c, 1, 62, 0
3, 35400, Note_on_c, 1, 64, 64
3, 35700, Note_on_c, 1, 64, 0
3, 35700, Note_on_c, 1, 62, 64
3, 35760, Note_on_c, 1, 62, 0
3, 35760, Note_on_c, 1, 61, 64
3, 35820, Note_on_c, 1, 61, 0
3, 35820, Note_on_c, 1, 59, 64
3, 35880, Note_on_c, 1, 59, 0
3, 35880, Note_on_c, 1, 58, 64
3, 35940, Note_on_c, 1, 58, 0
3, 35940, Note_on_c, 1, 61, 64
3, 36000, Note_on_c, 1, 61, 0
3, 36000, Note_on_c, 1, 59, 64
3, 36120, Note_on_c, 1, 59, 0
3, 39660, Note_on_c, 1, 61, 64
3, 39720, Note_on_c, 1, 61, 0
3, 39720, Note_on_c, 1, 62, 64
3, 39780, Note_on_c, 1, 62, 0
3, 39780, Note_on_c, 1, 59, 64
3, 39840, Note_on_c, 1, 59, 0
3, 39840, Note_on_c, 1, 64, 64
3, 39900, Note_on_c, 1, 64, 0
3, 39900, Note_on_c, 1, 59, 64
3, 39960, Note_on_c, 1, 59, 0
3, 39960, Note_on_c, 1, 66, 64
3, 40020, Note_on_c, 1, 66, 0
3, 40020, Note_on_c, 1, 59, 64
3, 40080, Note_on_c, 1, 59, 0
3, 40080, Note_on_c, 1, 68, 64
3, 40140, Note_on_c, 1, 68, 0
3, 40140, Note_on_c, 1, 59, 64
3, 40200, Note_on_c, 1, 59, 0
3, 40200, Note_on_c, 1, 69, 64
3, 40260, Note_on_c, 1, 69, 0
3, 40260, Note_on_c, 1, 59, 64
3, 40320, Note_on_c, 1, 59, 0
3, 40320, Note_on_c, 1, 68, 64
3, 40440, Note_on_c, 1, 68, 0
3, 40440, Note_on_c, 1, 64, 64
3, 40560, Note_on_c, 1, 64, 0
3, 40560, Note_on_c, 1, 66, 64
3, 40680, Note_on_c, 1, 66, 0
3, 40680, Note_on_c, 1, 68, 64
3, 40800, Note_on_c, 1, 68, 0
3, 40800, Note_on_c, 1, 69, 64
3, 40920, Note_on_c, 1, 69, 0
3, 40920, Note_on_c, 1, 71, 64
3, 41040, Note_on_c, 1, 71, 0
3, 41040, Note_on_c, 1, 64, 64
3, 41220, Note_on_c, 1, 64, 0
3, 41220, Note_on_c, 1, 62, 64
3, 41280, Note_on_c, 1, 62, 0
3, 41280, Note_on_c, 1, 61, 64
3, 41340, Note_on_c, 1, 61, 0
3, 41340, Note_on_c, 1, 59, 64
3, 41400, Note_on_c, 1, 59, 0
3, 41400, Note_on_c, 1, 57, 64
3, 41460, Note_on_c, 1, 57, 0
3, 41460, Note_on_c, 1, 59, 64
3, 41520, Note_on_c, 1, 59, 0
3, 41520, Note_on_c, 1, 57, 64
3, 41580, Note_on_c, 1, 57, 0
3, 41580, Note_on_c, 1, 55, 64
3, 41640, Note_on_c, 1, 55, 0
3, 41640, Note_on_c, 1, 54, 64
3, 41700, Note_on_c, 1, 54, 0
3, 41700, Note_on_c, 1, 52, 64
3, 41760, Note_on_c, 1, 52, 0
3, 42960, Note_on_c, 1, 52, 64
3, 43020, Note_on_c, 1, 52, 0
3, 43020, Note_on_c, 1, 50, 64
3, 43080, Note_on_c, 1, 50, 0
3, 43080, Note_on_c, 1, 49, 64
3, 43140, Note_on_c, 1, 49, 0
3, 43140, Note_on_c, 1, 50, 64
3, 43200, Note_on_c, 1, 50, 0
3, 43200, Note_on_c, 1, 52, 64
3, 43320, Note_on_c, 1, 52, 0
3, 43320, Note_on_c, 1, 54, 64
3, 43380, Note_on_c, 1, 54, 0
3, 43380, Note_on_c, 1, 52, 64
3, 43440, Note_on_c, 1, 52, 0
3, 43440, Note_on_c, 1, 50, 64
3, 43500, Note_on_c, 1, 50, 0
3, 43500, Note_on_c, 1, 52, 64
3, 43560, Note_on_c, 1, 52, 0
3, 43560, Note_on_c, 1, 54, 64
3, 43680, Note_on_c, 1, 54, 0
3, 43680, Note_on_c, 1, 52, 64
3, 43800, Note_on_c, 1, 52, 0
3, 43800, Note_on_c, 1, 50, 64
3, 43920, Note_on_c, 1, 50, 0
3, 43920, Note_on_c, 1, 49, 64
3, 44040, Note_on_c, 1, 49, 0
3, 44040, Note_on_c, 1, 59, 64
3, 44280, Note_on_c, 1, 59, 0
3, 44280, Note_on_c, 1, 57, 64
3, 44400, Note_on_c, 1, 57, 0
3, 44400, Note_on_c, 1, 59, 64
3, 44460, Note_on_c, 1, 59, 0
3, 44460, Note_on_c, 1, 57, 64
3, 44520, Note_on_c, 1, 57, 0
3, 44520, Note_on_c, 1, 55, 64
3, 44580, Note_on_c, 1, 55, 0
3, 44580, Note_on_c, 1, 54, 64
3, 44640, Note_on_c, 1, 54, 0
3, 44640, Note_on_c, 1, 52, 64
3, 44760, Note_on_c, 1, 52, 0
3, 44760, Note_on_c, 1, 55, 64
3, 44820, Note_on_c, 1, 55, 0
3, 44820, Note_on_c, 1, 54, 64
3, 44880, Note_on_c, 1, 54, 0
3, 44880, Note_on_c, 1, 52, 64
3, 44940, Note_on_c, 1, 52, 0
3, 44940, Note_on_c, 1, 50, 64
3, 45000, Note_on_c, 1, 50, 0
3, 45000, Note_on_c, 1, 49, 64
3, 45240, Note_on_c, 1, 49, 0
3, 45240, Note_on_c, 1, 50, 64
3, 45420, Note_on_c, 1, 50, 0
3, 45420, Note_on_c, 1, 55, 64
3, 45450, Note_on_c, 1, 55, 0
3, 45450, Note_on_c, 1, 54, 64
3, 45480, Note_on_c, 1, 54, 0
3, 45480, Note_on_c, 1, 52, 64
3, 45540, Note_on_c, 1, 52, 0
3, 45540, Note_on_c, 1, 55, 64
3, 45600, Note_on_c, 1, 55, 0
3, 45600, Note_on_c, 1, 50, 64
3, 45660, Note_on_c, 1, 50, 0
3, 45660, Note_on_c, 1, 55, 64
3, 45720, Note_on_c, 1, 55, 0
3, 45720, Note_on_c, 1, 49, 64
3, 45780, Note_on_c, 1, 49, 0
3, 45780, Note_on_c, 1, 55, 64
3, 45840, Note_on_c, 1, 55, 0
3, 45840, Note_on_c, 1, 47, 64
3, 45900, Note_on_c, 1, 47, 0
3, 45900, Note_on_c, 1, 55, 64
3, 45960, Note_on_c, 1, 55, 0
3, 45960, Note_on_c, 1, 45, 64
3, 46020, Note_on_c, 1, 45, 0
3, 46020, Note_on_c, 1, 55, 64
3, 46080, Note_on_c, 1, 55, 0
3, 46080, Note_on_c, 1, 54, 64
3, 46140, Note_on_c, 1, 54, 0
3, 46140, Note_on_c, 1, 55, 64
3, 46200, Note_on_c, 1, 55, 0
3, 46200, Note_on_c, 1, 57, 64
3, 46500, Note_on_c, 1, 57, 0
3, 46500, Note_on_c, 1, 55, 64
3, 46560, Note_on_c, 1, 55, 0
3, 46560, Note_on_c, 1, 54, 64
3, 46620, Note_on_c, 1, 54, 0
3, 46620, Note_on_c, 1, 52, 64
3, 46680, Note_on_c, 1, 52, 0
3, 46680, Note_on_c, 1, 50, 64
3, 46740, Note_on_c, 1, 50, 0
3, 46740, Note_on_c, 1, 54, 64
3, 46800, Note_on_c, 1, 54, 0
3, 46800, Note_on_c, 1, 52, 64
3, 46860, Note_on_c, 1, 52, 0
3, 46860, Note_on_c, 1, 54, 64
3, 46920, Note_on_c, 1, 54, 0
3, 46920, Note_on_c, 1, 55, 64
3, 47220, Note_on_c, 1, 55, 0
3, 47220, Note_on_c, 1, 54, 64
3, 47280, Note_on_c, 1, 54, 0
3, 47280, Note_on_c, 1, 52, 64
3, 47340, Note_on_c, 1, 52, 0
3, 47340, Note_on_c, 1, 50, 64
3, 47400, Note_on_c, 1, 50, 0
3, 47400, Note_on_c, 1, 49, 64
3, 47460, Note_on_c, 1, 49, 0
3, 47460, Note_on_c, 1, 52, 64
3, 47520, Note_on_c, 1, 52, 0
3, 47520, Note_on_c, 1, 50, 64
3, 47580, Note_on_c, 1, 50, 0
3, 47580, Note_on_c, 1, 52, 64
3, 47640, Note_on_c, 1, 52, 0
3, 47640, Note_on_c, 1, 54, 64
3, 47940, Note_on_c, 1, 54, 0
3, 47940, Note_on_c, 1, 47, 64
3, 48000, Note_on_c, 1, 47, 0
3, 48000, Note_on_c, 1, 49, 64
3, 48060, Note_on_c, 1, 49, 0
3, 48060, Note_on_c, 1, 50, 64
3, 48120, Note_on_c, 1, 50, 0
3, 48120, Note_on_c, 1, 52, 64
3, 48180, Note_on_c, 1, 52, 0
3, 48180, Note_on_c, 1, 54, 64
3, 48240, Note_on_c, 1, 54, 0
3, 48240, Note_on_c, 1, 55, 64
3, 48300, Note_on_c, 1, 55, 0
3, 48300, Note_on_c, 1, 57, 64
3, 48360, Note_on_c, 1, 57, 0
3, 48360, Note_on_c, 1, 55, 64
3, 48420, Note_on_c, 1, 55, 0
3, 48420, Note_on_c, 1, 54, 64
3, 48480, Note_on_c, 1, 54, 0
3, 48480, Note_on_c, 1, 52, 64
3, 48540, Note_on_c, 1, 52, 0
3, 48540, Note_on_c, 1, 50, 64
3, 48600, Note_on_c, 1, 50, 0
3, 48600, Note_on_c, 1, 49, 64
3, 48720, Note_on_c, 1, 49, 0
3, 50100, Note_on_c, 1, 67, 64
3, 50160, Note_on_c, 1, 67, 0
3, 50160, Note_on_c, 1, 65, 64
3, 50220, Note_on_c, 1, 65, 0
3, 50220, Note_on_c, 1, 64, 64
3, 50280, Note_on_c, 1, 64, 0
3, 50280, Note_on_c, 1, 62, 64
3, 50340, Note_on_c, 1, 62, 0
3, 50340, Note_on_c, 1, 65, 64
3, 50400, Note_on_c, 1, 65, 0
3, 50400, Note_on_c, 1, 64, 64
3, 50460, Note_on_c, 1, 64, 0
3, 50460, Note_on_c, 1, 65, 64
3, 50520, Note_on_c, 1, 65, 0
3, 50520, Note_on_c, 1, 64, 64
3, 50580, Note_on_c, 1, 64, 0
3, 50580, Note_on_c, 1, 62, 64
3, 50640, Note_on_c, 1, 62, 0
3, 50640, Note_on_c, 1, 60, 64
3, 50700, Note_on_c, 1, 60, 0
3, 50700, Note_on_c, 1, 64, 64
3, 50760, Note_on_c, 1, 64, 0
3, 50760, Note_on_c, 1, 62, 64
3, 50820, Note_on_c, 1, 62, 0
3, 50820, Note_on_c, 1, 64, 64
3, 50880, Note_on_c, 1, 64, 0
3, 50880, Note_on_c, 1, 62, 64
3, 50940, Note_on_c, 1, 62, 0
3, 50940, Note_on_c, 1, 60, 64
3, 51000, Note_on_c, 1, 60, 0
3, 51000, Note_on_c, 1, 59, 64
3, 51060, Note_on_c, 1, 59, 0
3, 51060, Note_on_c, 1, 62, 64
3, 51120, Note_on_c, 1, 62, 0
3, 51120, Note_on_c, 1, 60, 64
3, 51180, Note_on_c, 1, 60, 0
3, 51180, Note_on_c, 1, 62, 64
3, 51240, Note_on_c, 1, 62, 0
3, 51240, Note_on_c, 1, 60, 64
3, 51300, Note_on_c, 1, 60, 0
3, 51300, Note_on_c, 1, 59, 64
3, 51360, Note_on_c, 1, 59, 0
3, 51360, Note_on_c, 1, 57, 64
3, 51420, Note_on_c, 1, 57, 0
3, 51420, Note_on_c, 1, 60, 64
3, 51480, Note_on_c, 1, 60, 0
3, 51480, Note_on_c, 1, 59, 64
3, 51840, Note_on_c, 1, 59, 0
3, 51840, Note_on_c, 1, 57, 64
3, 51960, Note_on_c, 1, 57, 0
3, 54720, Note_on_c, 1, 62, 64
3, 54840, Note_on_c, 1, 62, 0
3, 54840, Note_on_c, 1, 60, 64
3, 54900, Note_on_c, 1, 60, 0
3, 54900, Note_on_c, 1, 62, 64
3, 54960, Note_on_c, 1, 62, 0
3, 54960, Note_on_c, 1, 64, 64
3, 55020, Note_on_c, 1, 64, 0
3, 55020, Note_on_c, 1, 62, 64
3, 55080, Note_on_c, 1, 62, 0
3, 55080, Note_on_c, 1, 60, 64
3, 55200, Note_on_c, 1, 60, 0
3, 55200, Note_on_c, 1, 59, 64
3, 55260, Note_on_c, 1, 59, 0
3, 55260, Note_on_c, 1, 60, 64
3, 55320, Note_on_c, 1, 60, 0
3, 55320, Note_on_c, 1, 62, 64
3, 55380, Note_on_c, 1, 62, 0
3, 55380, Note_on_c, 1, 60, 64
3, 55440, Note_on_c, 1, 60, 0
3, 55440, Note_on_c, 1, 59, 64
3, 55560, Note_on_c, 1, 59, 0
3, 55560, Note_on_c, 1, 60, 64
3, 55680, Note_on_c, 1, 60, 0
3, 55680, Note_on_c, 1, 62, 64
3, 55800, Note_on_c, 1, 62, 0
3, 55800, Note_on_c, 1, 64, 64
3, 55920, Note_on_c, 1, 64, 0
3, 55920, Note_on_c, 1, 54, 64
3, 56160, Note_on_c, 1, 54, 0
3, 56160, Note_on_c, 1, 55, 64
3, 56280, Note_on_c, 1, 55, 0
3, 56280, Note_on_c, 1, 69, 64
3, 56340, Note_on_c, 1, 69, 0
3, 56340, Note_on_c, 1, 67, 64
3, 56400, Note_on_c, 1, 67, 0
3, 56400, Note_on_c, 1, 66, 64
3, 56460, Note_on_c, 1, 66, 0
3, 56460, Note_on_c, 1, 67, 64
3, 56520, Note_on_c, 1, 67, 0
3, 56520, Note_on_c, 1, 69, 64
3, 56640, Note_on_c, 1, 69, 0
3, 56640, Note_on_c, 1, 71, 64
3, 56700, Note_on_c, 1, 71, 0
3, 56700, Note_on_c, 1, 69, 64
3, 56760, Note_on_c, 1, 69, 0
3, 56760, Note_on_c, 1, 67, 64
3, 56820, Note_on_c, 1, 67, 0
3, 56820, Note_on_c, 1, 69, 64
3, 56880, Note_on_c, 1, 69, 0
3, 56880, Note_on_c, 1, 71, 64
3, 57000, Note_on_c, 1, 71, 0
3, 57000, Note_on_c, 1, 69, 64
3, 57120, Note_on_c, 1, 69, 0
3, 57120, Note_on_c, 1, 67, 64
3, 57360, Note_on_c, 1, 67, 0
3, 57360, Note_on_c, 1, 74, 64
3, 57480, Note_on_c, 1, 74, 0
3, 57480, Note_on_c, 1, 73, 64
3, 57600, Note_on_c, 1, 73, 0
3, 57600, Note_on_c, 1, 74, 64
3, 57720, Note_on_c, 1, 74, 0
3, 57720, Note_on_c, 1, 67, 64
3, 57840, Note_on_c, 1, 67, 0
3, 57840, Note_on_c, 1, 66, 64
3, 57960, Note_on_c, 1, 66, 0
3, 57960, Note_on_c, 1, 64, 64
3, 58080, Note_on_c, 1, 64, 0
3, 58080, Note_on_c, 1, 73, 64
3, 58320, Note_on_c, 1, 73, 0
3, 58320, Note_on_c, 1, 72, 64
3, 58560, Note_on_c, 1, 72, 0
3, 58620, Note_on_c, 1, 71, 64
3, 58650, Note_on_c, 1, 71, 0
3, 58650, Note_on_c, 1, 69, 64
3, 58680, Note_on_c, 1, 69, 0
3, 58680, Note_on_c, 1, 71, 64
3, 58800, Note_on_c, 1, 71, 0
3, 58800, Note_on_c, 1, 69, 64
3, 59040, Note_on_c, 1, 69, 0
3, 59040, Note_on_c, 1, 71, 64
3, 59160, Note_on_c, 1, 71, 0
3, 59160, Note_on_c, 1, 71, 64
3, 59280, Note_on_c, 1, 71, 0
3, 59280, Note_on_c, 1, 69, 64
3, 59400, Note_on_c, 1, 69, 0
3, 59400, Note_on_c, 1, 67, 64
3, 59640, Note_on_c, 1, 67, 0
3, 59640, Note_on_c, 1, 66, 64
3, 59760, Note_on_c, 1, 66, 0
3, 59760, Note_on_c, 1, 67, 64
3, 59880, Note_on_c, 1, 67, 0
3, 59880, Note_on_c, 1, 67, 64
3, 60000, Note_on_c, 1, 67, 0
3, 60000, Note_on_c, 1, 65, 64
3, 60120, Note_on_c, 1, 65, 0
3, 60120, Note_on_c, 1, 64, 64
3, 60360, Note_on_c, 1, 64, 0
3, 60360, Note_on_c, 1, 63, 64
3, 60480, Note_on_c, 1, 63, 0
3, 60480, Note_on_c, 1, 62, 64
3, 60600, Note_on_c, 1, 62, 0
3, 60600, Note_on_c, 1, 64, 64
3, 60720, Note_on_c, 1, 64, 0
3, 60720, Note_on_c, 1, 65, 64
3, 60720, Note_on_c, 1, 71, 64
3, 60840, Note_on_c, 1, 71, 0
3, 60840, Note_on_c, 1, 65, 0
3, 60840, Note_on_c, 1, 72, 64
3, 60840, Note_on_c, 1, 67, 64
3, 60960, Note_on_c, 1, 67, 0
3, 60960, Note_on_c, 1, 72, 0
3, 60960, Note_on_c, 1, 67, 64
3, 61080, Note_on_c, 1, 67, 0
3, 61080, Note_on_c, 1, 69, 64
3, 61200, Note_on_c, 1, 69, 0
3, 61200, Note_on_c, 1, 71, 64
3, 61260, Note_on_c, 1, 74, 64
3, 61320, Note_on_c, 1, 74, 0
3, 61320, Note_on_c, 1, 76, 64
3, 61380, Note_on_c, 1, 76, 0
3, 61380, Note_on_c, 1, 72, 64
3, 61440, Note_on_c, 1, 71, 0
3, 61440, Note_on_c, 1, 69, 64
3, 61560, Note_on_c, 1, 69, 0
3, 61560, Note_on_c, 1, 72, 0
3, 61560, Note_on_c, 1, 74, 64
3, 61560, Note_on_c, 1, 71, 64
3, 61920, Note_on_c, 1, 71, 0
3, 61920, Note_on_c, 1, 74, 0
3, 61920, End_track
4, 0, Start_track
4, 0, MIDI_port, 0
4, 0, Title_t, "LH L"
4, 0, Program_c, 2, 6
4, 7200, Note_on_c, 2, 55, 64
4, 7320, Note_on_c, 2, 55, 0
4, 7320, Note_on_c, 2, 57, 64
4, 7380, Note_on_c, 2, 57, 0
4, 7380, Note_on_c, 2, 55, 64
4, 7440, Note_on_c, 2, 55, 0
4, 7440, Note_on_c, 2, 54, 64
4, 7500, Note_on_c, 2, 54, 0
4, 7500, Note_on_c, 2, 55, 64
4, 7560, Note_on_c, 2, 55, 0
4, 7560, Note_on_c, 2, 57, 64
4, 7680, Note_on_c, 2, 57, 0
4, 7680, Note_on_c, 2, 59, 64
4, 7740, Note_on_c, 2, 59, 0
4, 7740, Note_on_c, 2, 57, 64
4, 7800, Note_on_c, 2, 57, 0
4, 7800, Note_on_c, 2, 55, 64
4, 7860, Note_on_c, 2, 55, 0
4, 7860, Note_on_c, 2, 57, 64
4, 7920, Note_on_c, 2, 57, 0
4, 7920, Note_on_c, 2, 59, 64
4, 8040, Note_on_c, 2, 59, 0
4, 8040, Note_on_c, 2, 57, 64
4, 8160, Note_on_c, 2, 57, 0
4, 8160, Note_on_c, 2, 55, 64
4, 8280, Note_on_c, 2, 55, 0
4, 8280, Note_on_c, 2, 50, 64
4, 8400, Note_on_c, 2, 50, 0
4, 8400, Note_on_c, 2, 60, 64
4, 8640, Note_on_c, 2, 60, 0
4, 8640, Note_on_c, 2, 59, 64
4, 8760, Note_on_c, 2, 59, 0
4, 8760, Note_on_c, 2, 57, 64
4, 8880, Note_on_c, 2, 57, 0
4, 8880, Note_on_c, 2, 55, 64
4, 9000, Note_on_c, 2, 55, 0
4, 9000, Note_on_c, 2, 54, 64
4, 9120, Note_on_c, 2, 54, 0
4, 9120, Note_on_c, 2, 64, 64
4, 9360, Note_on_c, 2, 64, 0
4, 9360, Note_on_c, 2, 62, 64
4, 9480, Note_on_c, 2, 62, 0
4, 9480, Note_on_c, 2, 64, 64
4, 9540, Note_on_c, 2, 64, 0
4, 9540, Note_on_c, 2, 62, 64
4, 9600, Note_on_c, 2, 62, 0
4, 9600, Note_on_c, 2, 60, 64
4, 9660, Note_on_c, 2, 60, 0
4, 9660, Note_on_c, 2, 59, 64
4, 9720, Note_on_c, 2, 59, 0
4, 9720, Note_on_c, 2, 57, 64
4, 9840, Note_on_c, 2, 57, 0
4, 9840, Note_on_c, 2, 60, 64
4, 9900, Note_on_c, 2, 60, 0
4, 9900, Note_on_c, 2, 59, 64
4, 9960, Note_on_c, 2, 59, 0
4, 9960, Note_on_c, 2, 57, 64
4, 10020, Note_on_c, 2, 57, 0
4, 10020, Note_on_c, 2, 55, 64
4, 10080, Note_on_c, 2, 55, 0
4, 10080, Note_on_c, 2, 54, 64
4, 10320, Note_on_c, 2, 54, 0
4, 10320, Note_on_c, 2, 52, 64
4, 10440, Note_on_c, 2, 52, 0
4, 10440, Note_on_c, 2, 50, 64
4, 10500, Note_on_c, 2, 50, 0
4, 10500, Note_on_c, 2, 52, 64
4, 10560, Note_on_c, 2, 52, 0
4, 10560, Note_on_c, 2, 50, 64
4, 10620, Note_on_c, 2, 50, 0
4, 10620, Note_on_c, 2, 48, 64
4, 10680, Note_on_c, 2, 48, 0
4, 10680, Note_on_c, 2, 47, 64
4, 10740, Note_on_c, 2, 47, 0
4, 10740, Note_on_c, 2, 45, 64
4, 10800, Note_on_c, 2, 45, 0
4, 10800, Note_on_c, 2, 43, 64
4, 10860, Note_on_c, 2, 43, 0
4, 10860, Note_on_c, 2, 45, 64
4, 10920, Note_on_c, 2, 45, 0
4, 10920, Note_on_c, 2, 47, 64
4, 10980, Note_on_c, 2, 47, 0
4, 10980, Note_on_c, 2, 43, 64
4, 11040, Note_on_c, 2, 43, 0
4, 11040, Note_on_c, 2, 48, 64
4, 11100, Note_on_c, 2, 48, 0
4, 11100, Note_on_c, 2, 43, 64
4, 11160, Note_on_c, 2, 43, 0
4, 11160, Note_on_c, 2, 50, 64
4, 11220, Note_on_c, 2, 50, 0
4, 11220, Note_on_c, 2, 43, 64
4, 11280, Note_on_c, 2, 43, 0
4, 11280, Note_on_c, 2, 52, 64
4, 11340, Note_on_c, 2, 52, 0
4, 11340, Note_on_c, 2, 43, 64
4, 11400, Note_on_c, 2, 43, 0
4, 11400, Note_on_c, 2, 53, 64
4, 11460, Note_on_c, 2, 53, 0
4, 11460, Note_on_c, 2, 43, 64
4, 11520, Note_on_c, 2, 43, 0
4, 11520, Note_on_c, 2, 52, 64
4, 11580, Note_on_c, 2, 52, 0
4, 11580, Note_on_c, 2, 50, 64
4, 11640, Note_on_c, 2, 50, 0
4, 11640, Note_on_c, 2, 48, 64
4, 11700, Note_on_c, 2, 48, 0
4, 11700, Note_on_c, 2, 52, 64
4, 11760, Note_on_c, 2, 52, 0
4, 11760, Note_on_c, 2, 47, 64
4, 11820, Note_on_c, 2, 47, 0
4, 11820, Note_on_c, 2, 52, 64
4, 11880, Note_on_c, 2, 52, 0
4, 11880, Note_on_c, 2, 45, 64
4, 11940, Note_on_c, 2, 45, 0
4, 11940, Note_on_c, 2, 52, 64
4, 12000, Note_on_c, 2, 52, 0
4, 12000, Note_on_c, 2, 43, 64
4, 12060, Note_on_c, 2, 43, 0
4, 12060, Note_on_c, 2, 52, 64
4, 12120, Note_on_c, 2, 52, 0
4, 12120, Note_on_c, 2, 42, 64
4, 12180, Note_on_c, 2, 42, 0
4, 12180, Note_on_c, 2, 52, 64
4, 12240, Note_on_c, 2, 52, 0
4, 12240, Note_on_c, 2, 50, 64
4, 12300, Note_on_c, 2, 50, 0
4, 12300, Note_on_c, 2, 48, 64
4, 12360, Note_on_c, 2, 48, 0
4, 12360, Note_on_c, 2, 47, 64
4, 12420, Note_on_c, 2, 47, 0
4, 12420, Note_on_c, 2, 50, 64
4, 12480, Note_on_c, 2, 50, 0
4, 12480, Note_on_c, 2, 45, 64
4, 12540, Note_on_c, 2, 45, 0
4, 12540, Note_on_c, 2, 50, 64
4, 12600, Note_on_c, 2, 50, 0
4, 12600, Note_on_c, 2, 43, 64
4, 12660, Note_on_c, 2, 43, 0
4, 12660, Note_on_c, 2, 50, 64
4, 12720, Note_on_c, 2, 50, 0
4, 12720, Note_on_c, 2, 42, 64
4, 12780, Note_on_c, 2, 42, 0
4, 12780, Note_on_c, 2, 50, 64
4, 12840, Note_on_c, 2, 50, 0
4, 12840, Note_on_c, 2, 40, 64
4, 12900, Note_on_c, 2, 40, 0
4, 12900, Note_on_c, 2, 50, 64
4, 12960, Note_on_c, 2, 50, 0
4, 12960, Note_on_c, 2, 48, 64
4, 13020, Note_on_c, 2, 48, 0
4, 13020, Note_on_c, 2, 47, 64
4, 13080, Note_on_c, 2, 47, 0
4, 13080, Note_on_c, 2, 45, 64
4, 13140, Note_on_c, 2, 45, 0
4, 13140, Note_on_c, 2, 48, 64
4, 13200, Note_on_c, 2, 48, 0
4, 13200, Note_on_c, 2, 43, 64
4, 13260, Note_on_c, 2, 43, 0
4, 13260, Note_on_c, 2, 48, 64
4, 13320, Note_on_c, 2, 48, 0
4, 13320, Note_on_c, 2, 42, 64
4, 13380, Note_on_c, 2, 42, 0
4, 13380, Note_on_c, 2, 48, 64
4, 13440, Note_on_c, 2, 48, 0
4, 13440, Note_on_c, 2, 40, 64
4, 13500, Note_on_c, 2, 40, 0
4, 13500, Note_on_c, 2, 48, 64
4, 13560, Note_on_c, 2, 48, 0
4, 13560, Note_on_c, 2, 38, 64
4, 13620, Note_on_c, 2, 38, 0
4, 13620, Note_on_c, 2, 48, 64
4, 13680, Note_on_c, 2, 48, 0
4, 13680, Note_on_c, 2, 47, 64
4, 13800, Note_on_c, 2, 47, 0
4, 13800, Note_on_c, 2, 45, 64
4, 13920, Note_on_c, 2, 45, 0
4, 13920, Note_on_c, 2, 43, 64
4, 14040, Note_on_c, 2, 43, 0
4, 14040, Note_on_c, 2, 45, 64
4, 14160, Note_on_c, 2, 45, 0
4, 14160, Note_on_c, 2, 43, 64
4, 14280, Note_on_c, 2, 43, 0
4, 14280, Note_on_c, 2, 42, 64
4, 14400, Note_on_c, 2, 42, 0
4, 14400, Note_on_c, 2, 43, 64
4, 14460, Note_on_c, 2, 43, 0
4, 14460, Note_on_c, 2, 55, 64
4, 14520, Note_on_c, 2, 55, 0
4, 14520, Note_on_c, 2, 53, 64
4, 14580, Note_on_c, 2, 53, 0
4, 14580, Note_on_c, 2, 52, 64
4, 14640, Note_on_c, 2, 52, 0
4, 14640, Note_on_c, 2, 50, 64
4, 14700, Note_on_c, 2, 50, 0
4, 14700, Note_on_c, 2, 53, 64
4, 14760, Note_on_c, 2, 53, 0
4, 14760, Note_on_c, 2, 52, 64
4, 14820, Note_on_c, 2, 52, 0
4, 14820, Note_on_c, 2, 53, 64
4, 14880, Note_on_c, 2, 53, 0
4, 14880, Note_on_c, 2, 52, 64
4, 14940, Note_on_c, 2, 52, 0
4, 14940, Note_on_c, 2, 50, 64
4, 15000, Note_on_c, 2, 50, 0
4, 15000, Note_on_c, 2, 48, 64
4, 15060, Note_on_c, 2, 48, 0
4, 15060, Note_on_c, 2, 52, 64
4, 15120, Note_on_c, 2, 52, 0
4, 15120, Note_on_c, 2, 50, 64
4, 15180, Note_on_c, 2, 50, 0
4, 15180, Note_on_c, 2, 52, 64
4, 15240, Note_on_c, 2, 52, 0
4, 15240, Note_on_c, 2, 50, 64
4, 15300, Note_on_c, 2, 50, 0
4, 15300, Note_on_c, 2, 48, 64
4, 15360, Note_on_c, 2, 48, 0
4, 15360, Note_on_c, 2, 47, 64
4, 15420, Note_on_c, 2, 47, 0
4, 15420, Note_on_c, 2, 50, 64
4, 15480, Note_on_c, 2, 50, 0
4, 15480, Note_on_c, 2, 48, 64
4, 15540, Note_on_c, 2, 48, 0
4, 15540, Note_on_c, 2, 50, 64
4, 15600, Note_on_c, 2, 50, 0
4, 15600, Note_on_c, 2, 48, 64
4, 15660, Note_on_c, 2, 48, 0
4, 15660, Note_on_c, 2, 47, 64
4, 15720, Note_on_c, 2, 47, 0
4, 15720, Note_on_c, 2, 45, 64
4, 15780, Note_on_c, 2, 45, 0
4, 15780, Note_on_c, 2, 48, 64
4, 15840, Note_on_c, 2, 48, 0
4, 15840, Note_on_c, 2, 47, 64
4, 15900, Note_on_c, 2, 47, 0
4, 15900, Note_on_c, 2, 48, 64
4, 15960, Note_on_c, 2, 48, 0
4, 15960, Note_on_c, 2, 47, 64
4, 16020, Note_on_c, 2, 47, 0
4, 16020, Note_on_c, 2, 45, 64
4, 16080, Note_on_c, 2, 45, 0
4, 16080, Note_on_c, 2, 43, 64
4, 16140, Note_on_c, 2, 43, 0
4, 16140, Note_on_c, 2, 45, 64
4, 16200, Note_on_c, 2, 45, 0
4, 16200, Note_on_c, 2, 47, 64
4, 16260, Note_on_c, 2, 47, 0
4, 16260, Note_on_c, 2, 49, 64
4, 16320, Note_on_c, 2, 49, 0
4, 16320, Note_on_c, 2, 50, 64
4, 16380, Note_on_c, 2, 50, 0
4, 16380, Note_on_c, 2, 52, 64
4, 16440, Note_on_c, 2, 52, 0
4, 16440, Note_on_c, 2, 54, 64
4, 16500, Note_on_c, 2, 54, 0
4, 16500, Note_on_c, 2, 55, 64
4, 16560, Note_on_c, 2, 55, 0
4, 16560, Note_on_c, 2, 54, 64
4, 16680, Note_on_c, 2, 54, 0
4, 16680, Note_on_c, 2, 59, 64
4, 16800, Note_on_c, 2, 59, 0
4, 16800, Note_on_c, 2, 47, 64
4, 16920, Note_on_c, 2, 47, 0
4, 16920, Note_on_c, 2, 52, 64
4, 17040, Note_on_c, 2, 52, 0
4, 17040, Note_on_c, 2, 57, 64
4, 17160, Note_on_c, 2, 57, 0
4, 17160, Note_on_c, 2, 45, 64
4, 17280, Note_on_c, 2, 45, 0
4, 17280, Note_on_c, 2, 50, 64
4, 17400, Note_on_c, 2, 50, 0
4, 17400, Note_on_c, 2, 52, 64
4, 17520, Note_on_c, 2, 52, 0
4, 17520, Note_on_c, 2, 54, 64
4, 17760, Note_on_c, 2, 54, 0
4, 17760, Note_on_c, 2, 55, 64
4, 17880, Note_on_c, 2, 55, 0
4, 17880, Note_on_c, 2, 49, 64
4, 18000, Note_on_c, 2, 49, 0
4, 18000, Note_on_c, 2, 50, 64
4, 18120, Note_on_c, 2, 50, 0
4, 19440, Note_on_c, 2, 50, 64
4, 19560, Note_on_c, 2, 50, 0
4, 19560, Note_on_c, 2, 48, 64
4, 19620, Note_on_c, 2, 48, 0
4, 19620, Note_on_c, 2, 50, 64
4, 19680, Note_on_c, 2, 50, 0
4, 19680, Note_on_c, 2, 52, 64
4, 19740, Note_on_c, 2, 52, 0
4, 19740, Note_on_c, 2, 50, 64
4, 19800, Note_on_c, 2, 50, 0
4, 19800, Note_on_c, 2, 48, 64
4, 19920, Note_on_c, 2, 48, 0
4, 19920, Note_on_c, 2, 47, 64
4, 19980, Note_on_c, 2, 47, 0
4, 19980, Note_on_c, 2, 48, 64
4, 20040, Note_on_c, 2, 48, 0
4, 20040, Note_on_c, 2, 50, 64
4, 20100, Note_on_c, 2, 50, 0
4, 20100, Note_on_c, 2, 48, 64
4, 20160, Note_on_c, 2, 48, 0
4, 20160, Note_on_c, 2, 47, 64
4, 20280, Note_on_c, 2, 47, 0
4, 20280, Note_on_c, 2, 48, 64
4, 20400, Note_on_c, 2, 48, 0
4, 20400, Note_on_c, 2, 50, 64
4, 20520, Note_on_c, 2, 50, 0
4, 20520, Note_on_c, 2, 55, 64
4, 20640, Note_on_c, 2, 55, 0
4, 20640, Note_on_c, 2, 45, 64
4, 20880, Note_on_c, 2, 45, 0
4, 20880, Note_on_c, 2, 47, 64
4, 21000, Note_on_c, 2, 47, 0
4, 21000, Note_on_c, 2, 48, 64
4, 21120, Note_on_c, 2, 48, 0
4, 21120, Note_on_c, 2, 50, 64
4, 21240, Note_on_c, 2, 50, 0
4, 21240, Note_on_c, 2, 52, 64
4, 21360, Note_on_c, 2, 52, 0
4, 21360, Note_on_c, 2, 42, 64
4, 21600, Note_on_c, 2, 42, 0
4, 21600, Note_on_c, 2, 43, 64
4, 21660, Note_on_c, 2, 43, 0
4, 21660, Note_on_c, 2, 45, 64
4, 21720, Note_on_c, 2, 45, 0
4, 21720, Note_on_c, 2, 47, 64
4, 22020, Note_on_c, 2, 47, 0
4, 22020, Note_on_c, 2, 45, 64
4, 22080, Note_on_c, 2, 45, 0
4, 22080, Note_on_c, 2, 43, 64
4, 22140, Note_on_c, 2, 43, 0
4, 22140, Note_on_c, 2, 42, 64
4, 22200, Note_on_c, 2, 42, 0
4, 22200, Note_on_c, 2, 40, 64
4, 22260, Note_on_c, 2, 40, 0
4, 22260, Note_on_c, 2, 43, 64
4, 22320, Note_on_c, 2, 43, 0
4, 22320, Note_on_c, 2, 42, 64
4, 22380, Note_on_c, 2, 42, 0
4, 22380, Note_on_c, 2, 43, 64
4, 22440, Note_on_c, 2, 43, 0
4, 22440, Note_on_c, 2, 45, 64
4, 22740, Note_on_c, 2, 45, 0
4, 22740, Note_on_c, 2, 43, 64
4, 22800, Note_on_c, 2, 43, 0
4, 22800, Note_on_c, 2, 42, 64
4, 22860, Note_on_c, 2, 42, 0
4, 22860, Note_on_c, 2, 40, 64
4, 22920, Note_on_c, 2, 40, 0
4, 22920, Note_on_c, 2, 38, 64
4, 22980, Note_on_c, 2, 38, 0
4, 22980, Note_on_c, 2, 42, 64
4, 23040, Note_on_c, 2, 42, 0
4, 23040, Note_on_c, 2, 40, 64
4, 23100, Note_on_c, 2, 40, 0
4, 23100, Note_on_c, 2, 42, 64
4, 23160, Note_on_c, 2, 42, 0
4, 23160, Note_on_c, 2, 43, 64
4, 23460, Note_on_c, 2, 43, 0
4, 23460, Note_on_c, 2, 42, 64
4, 23520, Note_on_c, 2, 42, 0
4, 23520, Note_on_c, 2, 40, 64
4, 23580, Note_on_c, 2, 40, 0
4, 23580, Note_on_c, 2, 38, 64
4, 23640, Note_on_c, 2, 38, 0
4, 23640, Note_on_c, 2, 37, 64
4, 23700, Note_on_c, 2, 37, 0
4, 23700, Note_on_c, 2, 40, 64
4, 23760, Note_on_c, 2, 40, 0
4, 23760, Note_on_c, 2, 38, 64
4, 23820, Note_on_c, 2, 38, 0
4, 23820, Note_on_c, 2, 40, 64
4, 23880, Note_on_c, 2, 40, 0
4, 23880, Note_on_c, 2, 42, 64
4, 23940, Note_on_c, 2, 42, 0
4, 23940, Note_on_c, 2, 38, 64
4, 24000, Note_on_c, 2, 38, 0
4, 24000, Note_on_c, 2, 43, 64
4, 24060, Note_on_c, 2, 43, 0
4, 24060, Note_on_c, 2, 38, 64
4, 24120, Note_on_c, 2, 38, 0
4, 24120, Note_on_c, 2, 45, 64
4, 24180, Note_on_c, 2, 45, 0
4, 24180, Note_on_c, 2, 38, 64
4, 24240, Note_on_c, 2, 38, 0
4, 24240, Note_on_c, 2, 47, 64
4, 24300, Note_on_c, 2, 47, 0
4, 24300, Note_on_c, 2, 38, 64
4, 24360, Note_on_c, 2, 38, 0
4, 24360, Note_on_c, 2, 48, 64
4, 24420, Note_on_c, 2, 48, 0
4, 24420, Note_on_c, 2, 38, 64
4, 24480, Note_on_c, 2, 38, 0
4, 24480, Note_on_c, 2, 47, 64
4, 24540, Note_on_c, 2, 47, 0
4, 24540, Note_on_c, 2, 55, 64
4, 24600, Note_on_c, 2, 55, 0
4, 24600, Note_on_c, 2, 53, 64
4, 24660, Note_on_c, 2, 53, 0
4, 24660, Note_on_c, 2, 52, 64
4, 24720, Note_on_c, 2, 52, 0
4, 24720, Note_on_c, 2, 50, 64
4, 24780, Note_on_c, 2, 50, 0
4, 24780, Note_on_c, 2, 48, 64
4, 24840, Note_on_c, 2, 48, 0
4, 24840, Note_on_c, 2, 47, 64
4, 24900, Note_on_c, 2, 47, 0
4, 24900, Note_on_c, 2, 45, 64
4, 24960, Note_on_c, 2, 45, 0
4, 24960, Note_on_c, 2, 43, 64
4, 25020, Note_on_c, 2, 43, 0
4, 25020, Note_on_c, 2, 41, 64
4, 25080, Note_on_c, 2, 41, 0
4, 25080, Note_on_c, 2, 40, 64
4, 25140, Note_on_c, 2, 40, 0
4, 25140, Note_on_c, 2, 38, 64
4, 25200, Note_on_c, 2, 38, 0
4, 25200, Note_on_c, 2, 36, 64
4, 25260, Note_on_c, 2, 36, 0
4, 25260, Note_on_c, 2, 38, 64
4, 25320, Note_on_c, 2, 38, 0
4, 25320, Note_on_c, 2, 40, 64
4, 25380, Note_on_c, 2, 40, 0
4, 25380, Note_on_c, 2, 42, 64
4, 25440, Note_on_c, 2, 42, 0
4, 25440, Note_on_c, 2, 44, 64
4, 25500, Note_on_c, 2, 44, 0
4, 25500, Note_on_c, 2, 45, 64
4, 25560, Note_on_c, 2, 45, 0
4, 25560, Note_on_c, 2, 47, 64
4, 25620, Note_on_c, 2, 47, 0
4, 25620, Note_on_c, 2, 48, 64
4, 25680, Note_on_c, 2, 48, 0
4, 25680, Note_on_c, 2, 50, 64
4, 25740, Note_on_c, 2, 50, 0
4, 25740, Note_on_c, 2, 52, 64
4, 25800, Note_on_c, 2, 52, 0
4, 25800, Note_on_c, 2, 54, 64
4, 25860, Note_on_c, 2, 54, 0
4, 25860, Note_on_c, 2, 56, 64
4, 25920, Note_on_c, 2, 56, 0
4, 25920, Note_on_c, 2, 57, 64
4, 25980, Note_on_c, 2, 57, 0
4, 25980, Note_on_c, 2, 55, 64
4, 26040, Note_on_c, 2, 55, 0
4, 26040, Note_on_c, 2, 54, 64
4, 26100, Note_on_c, 2, 54, 0
4, 26100, Note_on_c, 2, 57, 64
4, 26160, Note_on_c, 2, 57, 0
4, 26160, Note_on_c, 2, 52, 64
4, 26220, Note_on_c, 2, 52, 0
4, 26220, Note_on_c, 2, 57, 64
4, 26280, Note_on_c, 2, 57, 0
4, 26280, Note_on_c, 2, 51, 64
4, 26340, Note_on_c, 2, 51, 0
4, 26340, Note_on_c, 2, 57, 64
4, 26400, Note_on_c, 2, 57, 0
4, 26400, Note_on_c, 2, 49, 64
4, 26460, Note_on_c, 2, 49, 0
4, 26460, Note_on_c, 2, 57, 64
4, 26520, Note_on_c, 2, 57, 0
4, 26520, Note_on_c, 2, 47, 64
4, 26580, Note_on_c, 2, 47, 0
4, 26580, Note_on_c, 2, 57, 64
4, 26640, Note_on_c, 2, 57, 0
4, 26640, Note_on_c, 2, 55, 64
4, 26760, Note_on_c, 2, 55, 0
4, 26760, Note_on_c, 2, 60, 64
4, 26880, Note_on_c, 2, 60, 0
4, 26880, Note_on_c, 2, 59, 64
4, 27000, Note_on_c, 2, 59, 0
4, 27000, Note_on_c, 2, 57, 64
4, 27120, Note_on_c, 2, 57, 0
4, 27120, Note_on_c, 2, 59, 64
4, 27240, Note_on_c, 2, 59, 0
4, 27240, Note_on_c, 2, 47, 64
4, 27360, Note_on_c, 2, 47, 0
4, 27360, Note_on_c, 2, 52, 64
4, 27420, Note_on_c, 2, 52, 0
4, 27420, Note_on_c, 2, 54, 64
4, 27480, Note_on_c, 2, 54, 0
4, 27480, Note_on_c, 2, 55, 64
4, 27540, Note_on_c, 2, 55, 0
4, 27540, Note_on_c, 2, 52, 64
4, 27600, Note_on_c, 2, 52, 0
4, 27600, Note_on_c, 2, 57, 64
4, 27660, Note_on_c, 2, 57, 0
4, 27660, Note_on_c, 2, 52, 64
4, 27720, Note_on_c, 2, 52, 0
4, 27720, Note_on_c, 2, 59, 64
4, 27780, Note_on_c, 2, 59, 0
4, 27780, Note_on_c, 2, 52, 64
4, 27840, Note_on_c, 2, 52, 0
4, 27840, Note_on_c, 2, 61, 64
4, 27900, Note_on_c, 2, 61, 0
4, 27900, Note_on_c, 2, 52, 64
4, 27960, Note_on_c, 2, 52, 0
4, 27960, Note_on_c, 2, 63, 64
4, 28020, Note_on_c, 2, 63, 0
4, 28020, Note_on_c, 2, 52, 64
4, 28080, Note_on_c, 2, 52, 0
4, 28080, Note_on_c, 2, 64, 64
4, 28200, Note_on_c, 2, 64, 0
4, 33180, Note_on_c, 2, 47, 64
4, 33210, Note_on_c, 2, 47, 0
4, 33210, Note_on_c, 2, 49, 64
4, 33240, Note_on_c, 2, 49, 0
4, 33240, Note_on_c, 2, 51, 64
4, 33300, Note_on_c, 2, 51, 0
4, 33300, Note_on_c, 2, 47, 64
4, 33360, Note_on_c, 2, 47, 0
4, 33360, Note_on_c, 2, 52, 64
4, 33420, Note_on_c, 2, 52, 0
4, 33420, Note_on_c, 2, 47, 64
4, 33480, Note_on_c, 2, 47, 0
4, 33480, Note_on_c, 2, 54, 64
4, 33540, Note_on_c, 2, 54, 0
4, 33540, Note_on_c, 2, 47, 64
4, 33600, Note_on_c, 2, 47, 0
4, 33600, Note_on_c, 2, 55, 64
4, 33660, Note_on_c, 2, 55, 0
4, 33660, Note_on_c, 2, 47, 64
4, 33720, Note_on_c, 2, 47, 0
4, 33720, Note_on_c, 2, 57, 64
4, 33780, Note_on_c, 2, 57, 0
4, 33780, Note_on_c, 2, 47, 64
4, 33840, Note_on_c, 2, 47, 0
4, 33840, Note_on_c, 2, 55, 64
4, 33900, Note_on_c, 2, 55, 0
4, 33900, Note_on_c, 2, 54, 64
4, 33960, Note_on_c, 2, 54, 0
4, 33960, Note_on_c, 2, 52, 64
4, 34020, Note_on_c, 2, 52, 0
4, 34020, Note_on_c, 2, 55, 64
4, 34080, Note_on_c, 2, 55, 0
4, 34080, Note_on_c, 2, 50, 64
4, 34140, Note_on_c, 2, 50, 0
4, 34140, Note_on_c, 2, 55, 64
4, 34200, Note_on_c, 2, 55, 0
4, 34200, Note_on_c, 2, 49, 64
4, 34260, Note_on_c, 2, 49, 0
4, 34260, Note_on_c, 2, 55, 64
4, 34320, Note_on_c, 2, 55, 0
4, 34320, Note_on_c, 2, 47, 64
4, 34380, Note_on_c, 2, 47, 0
4, 34380, Note_on_c, 2, 55, 64
4, 34440, Note_on_c, 2, 55, 0
4, 34440, Note_on_c, 2, 45, 64
4, 34500, Note_on_c, 2, 45, 0
4, 34500, Note_on_c, 2, 55, 64
4, 34560, Note_on_c, 2, 55, 0
4, 34560, Note_on_c, 2, 54, 64
4, 34620, Note_on_c, 2, 54, 0
4, 34620, Note_on_c, 2, 52, 64
4, 34680, Note_on_c, 2, 52, 0
4, 34680, Note_on_c, 2, 50, 64
4, 34740, Note_on_c, 2, 50, 0
4, 34740, Note_on_c, 2, 54, 64
4, 34800, Note_on_c, 2, 54, 0
4, 34800, Note_on_c, 2, 49, 64
4, 34860, Note_on_c, 2, 49, 0
4, 34860, Note_on_c, 2, 54, 64
4, 34920, Note_on_c, 2, 54, 0
4, 34920, Note_on_c, 2, 47, 64
4, 34980, Note_on_c, 2, 47, 0
4, 34980, Note_on_c, 2, 54, 64
4, 35040, Note_on_c, 2, 54, 0
4, 35040, Note_on_c, 2, 45, 64
4, 35100, Note_on_c, 2, 45, 0
4, 35100, Note_on_c, 2, 54, 64
4, 35160, Note_on_c, 2, 54, 0
4, 35160, Note_on_c, 2, 43, 64
4, 35220, Note_on_c, 2, 43, 0
4, 35220, Note_on_c, 2, 54, 64
4, 35280, Note_on_c, 2, 54, 0
4, 35280, Note_on_c, 2, 52, 64
4, 35340, Note_on_c, 2, 52, 0
4, 35340, Note_on_c, 2, 50, 64
4, 35400, Note_on_c, 2, 50, 0
4, 35400, Note_on_c, 2, 49, 64
4, 35460, Note_on_c, 2, 49, 0
4, 35460, Note_on_c, 2, 52, 64
4, 35520, Note_on_c, 2, 52, 0
4, 35520, Note_on_c, 2, 47, 64
4, 35580, Note_on_c, 2, 47, 0
4, 35580, Note_on_c, 2, 52, 64
4, 35640, Note_on_c, 2, 52, 0
4, 35640, Note_on_c, 2, 46, 64
4, 35700, Note_on_c, 2, 46, 0
4, 35700, Note_on_c, 2, 52, 64
4, 35760, Note_on_c, 2, 52, 0
4, 35760, Note_on_c, 2, 44, 64
4, 35820, Note_on_c, 2, 44, 0
4, 35820, Note_on_c, 2, 52, 64
4, 35880, Note_on_c, 2, 52, 0
4, 35880, Note_on_c, 2, 42, 64
4, 35940, Note_on_c, 2, 42, 0
4, 35940, Note_on_c, 2, 52, 64
4, 36000, Note_on_c, 2, 52, 0
4, 36000, Note_on_c, 2, 50, 64
4, 36060, Note_on_c, 2, 50, 0
4, 36060, Note_on_c, 2, 54, 64
4, 36120, Note_on_c, 2, 54, 0
4, 36120, Note_on_c, 2, 52, 64
4, 36180, Note_on_c, 2, 52, 0
4, 36180, Note_on_c, 2, 50, 64
4, 36240, Note_on_c, 2, 50, 0
4, 36240, Note_on_c, 2, 49, 64
4, 36300, Note_on_c, 2, 49, 0
4, 36300, Note_on_c, 2, 47, 64
4, 36360, Note_on_c, 2, 47, 0
4, 36360, Note_on_c, 2, 46, 64
4, 36420, Note_on_c, 2, 46, 0
4, 36420, Note_on_c, 2, 49, 64
4, 36480, Note_on_c, 2, 49, 0
4, 36480, Note_on_c, 2, 47, 64
4, 36540, Note_on_c, 2, 47, 0
4, 36540, Note_on_c, 2, 46, 64
4, 36600, Note_on_c, 2, 46, 0
4, 36600, Note_on_c, 2, 44, 64
4, 36660, Note_on_c, 2, 44, 0
4, 36660, Note_on_c, 2, 42, 64
4, 36720, Note_on_c, 2, 42, 0
4, 36720, Note_on_c, 2, 47, 64
4, 36840, Note_on_c, 2, 47, 0
4, 36840, Note_on_c, 2, 49, 64
4, 36900, Note_on_c, 2, 49, 0
4, 36900, Note_on_c, 2, 47, 64
4, 36960, Note_on_c, 2, 47, 0
4, 36960, Note_on_c, 2, 46, 64
4, 37020, Note_on_c, 2, 46, 0
4, 37020, Note_on_c, 2, 47, 64
4, 37080, Note_on_c, 2, 47, 0
4, 37080, Note_on_c, 2, 49, 64
4, 37200, Note_on_c, 2, 49, 0
4, 37200, Note_on_c, 2, 50, 64
4, 37260, Note_on_c, 2, 50, 0
4, 37260, Note_on_c, 2, 49, 64
4, 37320, Note_on_c, 2, 49, 0
4, 37320, Note_on_c, 2, 47, 64
4, 37380, Note_on_c, 2, 47, 0
4, 37380, Note_on_c, 2, 49, 64
4, 37440, Note_on_c, 2, 49, 0
4, 37440, Note_on_c, 2, 50, 64
4, 37560, Note_on_c, 2, 50, 0
4, 37560, Note_on_c, 2, 49, 64
4, 37680, Note_on_c, 2, 49, 0
4, 37680, Note_on_c, 2, 47, 64
4, 37800, Note_on_c, 2, 47, 0
4, 37800, Note_on_c, 2, 46, 64
4, 37920, Note_on_c, 2, 46, 0
4, 37920, Note_on_c, 2, 55, 64
4, 38160, Note_on_c, 2, 55, 0
4, 38160, Note_on_c, 2, 54, 64
4, 38220, Note_on_c, 2, 54, 0
4, 38220, Note_on_c, 2, 56, 64
4, 38280, Note_on_c, 2, 56, 0
4, 38280, Note_on_c, 2, 58, 64
4, 38340, Note_on_c, 2, 58, 0
4, 38340, Note_on_c, 2, 54, 64
4, 38400, Note_on_c, 2, 54, 0
4, 38400, Note_on_c, 2, 59, 64
4, 38460, Note_on_c, 2, 59, 0
4, 38460, Note_on_c, 2, 54, 64
4, 38520, Note_on_c, 2, 54, 0
4, 38520, Note_on_c, 2, 61, 64
4, 38580, Note_on_c, 2, 61, 0
4, 38580, Note_on_c, 2, 54, 64
4, 38640, Note_on_c, 2, 54, 0
4, 38640, Note_on_c, 2, 62, 64
4, 38700, Note_on_c, 2, 62, 0
4, 38700, Note_on_c, 2, 54, 64
4, 38760, Note_on_c, 2, 54, 0
4, 38760, Note_on_c, 2, 64, 64
4, 38820, Note_on_c, 2, 64, 0
4, 38820, Note_on_c, 2, 54, 64
4, 38880, Note_on_c, 2, 54, 0
4, 38880, Note_on_c, 2, 62, 64
4, 38940, Note_on_c, 2, 62, 0
4, 38940, Note_on_c, 2, 54, 64
4, 39000, Note_on_c, 2, 54, 0
4, 39000, Note_on_c, 2, 55, 64
4, 39060, Note_on_c, 2, 55, 0
4, 39060, Note_on_c, 2, 62, 64
4, 39120, Note_on_c, 2, 62, 0
4, 39120, Note_on_c, 2, 61, 64
4, 39150, Note_on_c, 2, 61, 0
4, 39150, Note_on_c, 2, 59, 64
4, 39180, Note_on_c, 2, 59, 0
4, 39180, Note_on_c, 2, 58, 64
4, 39210, Note_on_c, 2, 58, 0
4, 39210, Note_on_c, 2, 59, 64
4, 39240, Note_on_c, 2, 59, 0
4, 39240, Note_on_c, 2, 61, 64
4, 39300, Note_on_c, 2, 61, 0
4, 39300, Note_on_c, 2, 52, 64
4, 39360, Note_on_c, 2, 52, 0
4, 39360, Note_on_c, 2, 54, 64
4, 39420, Note_on_c, 2, 54, 0
4, 39420, Note_on_c, 2, 61, 64
4, 39480, Note_on_c, 2, 61, 0
4, 39480, Note_on_c, 2, 59, 64
4, 39510, Note_on_c, 2, 59, 0
4, 39510, Note_on_c, 2, 57, 64
4, 39540, Note_on_c, 2, 57, 0
4, 39540, Note_on_c, 2, 56, 64
4, 39570, Note_on_c, 2, 56, 0
4, 39570, Note_on_c, 2, 57, 64
4, 39600, Note_on_c, 2, 57, 0
4, 39600, Note_on_c, 2, 59, 64
4, 39720, Note_on_c, 2, 59, 0
4, 40200, Note_on_c, 2, 47, 64
4, 40320, Note_on_c, 2, 47, 0
4, 40320, Note_on_c, 2, 52, 64
4, 40380, Note_on_c, 2, 52, 0
4, 40380, Note_on_c, 2, 54, 64
4, 40440, Note_on_c, 2, 54, 0
4, 40440, Note_on_c, 2, 56, 64
4, 40500, Note_on_c, 2, 56, 0
4, 40500, Note_on_c, 2, 52, 64
4, 40560, Note_on_c, 2, 52, 0
4, 40560, Note_on_c, 2, 57, 64
4, 40620, Note_on_c, 2, 57, 0
4, 40620, Note_on_c, 2, 52, 64
4, 40680, Note_on_c, 2, 52, 0
4, 40680, Note_on_c, 2, 59, 64
4, 40740, Note_on_c, 2, 59, 0
4, 40740, Note_on_c, 2, 52, 64
4, 40800, Note_on_c, 2, 52, 0
4, 40800, Note_on_c, 2, 61, 64
4, 40860, Note_on_c, 2, 61, 0
4, 40860, Note_on_c, 2, 52, 64
4, 40920, Note_on_c, 2, 52, 0
4, 40920, Note_on_c, 2, 62, 64
4, 40980, Note_on_c, 2, 62, 0
4, 40980, Note_on_c, 2, 52, 64
4, 41040, Note_on_c, 2, 52, 0
4, 41040, Note_on_c, 2, 61, 64
4, 41160, Note_on_c, 2, 61, 0
4, 41640, Note_on_c, 2, 49, 64
4, 41760, Note_on_c, 2, 49, 0
4, 41760, Note_on_c, 2, 50, 64
4, 41940, Note_on_c, 2, 50, 0
4, 41940, Note_on_c, 2, 52, 64
4, 42000, Note_on_c, 2, 52, 0
4, 42000, Note_on_c, 2, 50, 64
4, 42060, Note_on_c, 2, 50, 0
4, 42060, Note_on_c, 2, 49, 64
4, 42120, Note_on_c, 2, 49, 0
4, 42120, Note_on_c, 2, 47, 64
4, 42180, Note_on_c, 2, 47, 0
4, 42180, Note_on_c, 2, 49, 64
4, 42240, Note_on_c, 2, 49, 0
4, 42240, Note_on_c, 2, 47, 64
4, 42300, Note_on_c, 2, 47, 0
4, 42300, Note_on_c, 2, 45, 64
4, 42360, Note_on_c, 2, 45, 0
4, 42360, Note_on_c, 2, 43, 64
4, 42420, Note_on_c, 2, 43, 0
4, 42420, Note_on_c, 2, 42, 64
4, 42480, Note_on_c, 2, 42, 0
4, 42480, Note_on_c, 2, 40, 64
4, 42600, Note_on_c, 2, 40, 0
4, 42600, Note_on_c, 2, 50, 64
4, 42720, Note_on_c, 2, 50, 0
4, 42720, Note_on_c, 2, 49, 64
4, 42840, Note_on_c, 2, 49, 0
4, 42840, Note_on_c, 2, 50, 64
4, 42960, Note_on_c, 2, 50, 0
4, 43080, Note_on_c, 2, 47, 64
4, 43200, Note_on_c, 2, 47, 0
4, 43200, Note_on_c, 2, 43, 64
4, 43320, Note_on_c, 2, 43, 0
4, 43320, Note_on_c, 2, 45, 64
4, 43560, Note_on_c, 2, 45, 0
4, 43560, Note_on_c, 2, 50, 64
4, 43680, Note_on_c, 2, 50, 0
4, 43680, Note_on_c, 2, 49, 64
4, 43800, Note_on_c, 2, 49, 0
4, 43800, Note_on_c, 2, 47, 64
4, 43920, Note_on_c, 2, 47, 0
4, 43920, Note_on_c, 2, 45, 64
4, 45960, Note_on_c, 2, 45, 0
4, 46260, Note_on_c, 2, 52, 64
4, 46320, Note_on_c, 2, 52, 0
4, 46320, Note_on_c, 2, 50, 64
4, 46380, Note_on_c, 2, 50, 0
4, 46380, Note_on_c, 2, 49, 64
4, 46440, Note_on_c, 2, 49, 0
4, 46440, Note_on_c, 2, 47, 64
4, 46680, Note_on_c, 2, 47, 0
4, 46980, Note_on_c, 2, 50, 64
4, 47040, Note_on_c, 2, 50, 0
4, 47040, Note_on_c, 2, 49, 64
4, 47100, Note_on_c, 2, 49, 0
4, 47100, Note_on_c, 2, 47, 64
4, 47160, Note_on_c, 2, 47, 0
4, 47160, Note_on_c, 2, 45, 64
4, 47400, Note_on_c, 2, 45, 0
4, 47700, Note_on_c, 2, 48, 64
4, 47760, Note_on_c, 2, 48, 0
4, 47760, Note_on_c, 2, 47, 64
4, 47820, Note_on_c, 2, 47, 0
4, 47820, Note_on_c, 2, 45, 64
4, 47880, Note_on_c, 2, 45, 0
4, 47880, Note_on_c, 2, 43, 64
4, 48000, Note_on_c, 2, 43, 0
4, 48660, Note_on_c, 2, 45, 64
4, 48720, Note_on_c, 2, 45, 0
4, 48720, Note_on_c, 2, 47, 64
4, 48780, Note_on_c, 2, 47, 0
4, 48780, Note_on_c, 2, 49, 64
4, 48840, Note_on_c, 2, 49, 0
4, 48840, Note_on_c, 2, 50, 64
4, 48900, Note_on_c, 2, 50, 0
4, 48900, Note_on_c, 2, 52, 64
4, 48960, Note_on_c, 2, 52, 0
4, 48960, Note_on_c, 2, 54, 64
4, 49020, Note_on_c, 2, 54, 0
4, 49020, Note_on_c, 2, 55, 64
4, 49080, Note_on_c, 2, 55, 0
4, 49080, Note_on_c, 2, 57, 64
4, 49200, Note_on_c, 2, 57, 0
4, 49200, Note_on_c, 2, 45, 64
4, 49320, Note_on_c, 2, 45, 0
4, 49320, Note_on_c, 2, 50, 64
4, 49440, Note_on_c, 2, 50, 0
4, 49440, Note_on_c, 2, 48, 64
4, 49500, Note_on_c, 2, 48, 0
4, 49500, Note_on_c, 2, 50, 64
4, 49560, Note_on_c, 2, 50, 0
4, 49560, Note_on_c, 2, 52, 64
4, 49620, Note_on_c, 2, 52, 0
4, 49620, Note_on_c, 2, 50, 64
4, 49680, Note_on_c, 2, 50, 0
4, 49680, Note_on_c, 2, 48, 64
4, 49800, Note_on_c, 2, 48, 0
4, 49800, Note_on_c, 2, 47, 64
4, 49860, Note_on_c, 2, 47, 0
4, 49860, Note_on_c, 2, 48, 64
4, 49920, Note_on_c, 2, 48, 0
4, 49920, Note_on_c, 2, 50, 64
4, 49980, Note_on_c, 2, 50, 0
4, 49980, Note_on_c, 2, 48, 64
4, 50040, Note_on_c, 2, 48, 0
4, 50040, Note_on_c, 2, 47, 64
4, 50160, Note_on_c, 2, 47, 0
4, 50160, Note_on_c, 2, 48, 64
4, 50280, Note_on_c, 2, 48, 0
4, 50280, Note_on_c, 2, 50, 64
4, 50400, Note_on_c, 2, 50, 0
4, 50400, Note_on_c, 2, 55, 64
4, 50520, Note_on_c, 2, 55, 0
4, 50520, Note_on_c, 2, 45, 64
4, 50760, Note_on_c, 2, 45, 0
4, 50760, Note_on_c, 2, 47, 64
4, 50880, Note_on_c, 2, 47, 0
4, 50880, Note_on_c, 2, 48, 64
4, 51000, Note_on_c, 2, 48, 0
4, 51000, Note_on_c, 2, 50, 64
4, 51120, Note_on_c, 2, 50, 0
4, 51120, Note_on_c, 2, 52, 64
4, 51240, Note_on_c, 2, 52, 0
4, 51240, Note_on_c, 2, 42, 64
4, 51480, Note_on_c, 2, 42, 0
4, 51480, Note_on_c, 2, 43, 64
4, 51600, Note_on_c, 2, 43, 0
4, 51600, Note_on_c, 2, 42, 64
4, 51660, Note_on_c, 2, 42, 0
4, 51660, Note_on_c, 2, 43, 64
4, 51720, Note_on_c, 2, 43, 0
4, 51720, Note_on_c, 2, 45, 64
4, 51780, Note_on_c, 2, 45, 0
4, 51780, Note_on_c, 2, 47, 64
4, 51840, Note_on_c, 2, 47, 0
4, 51840, Note_on_c, 2, 36, 64
4, 51960, Note_on_c, 2, 36, 0
4, 51960, Note_on_c, 2, 60, 64
4, 52020, Note_on_c, 2, 60, 0
4, 52020, Note_on_c, 2, 59, 64
4, 52080, Note_on_c, 2, 59, 0
4, 52080, Note_on_c, 2, 57, 64
4, 52140, Note_on_c, 2, 57, 0
4, 52140, Note_on_c, 2, 55, 64
4, 52200, Note_on_c, 2, 55, 0
4, 52200, Note_on_c, 2, 54, 64
4, 52260, Note_on_c, 2, 54, 0
4, 52260, Note_on_c, 2, 52, 64
4, 52320, Note_on_c, 2, 52, 0
4, 52320, Note_on_c, 2, 50, 64
4, 52380, Note_on_c, 2, 50, 0
4, 52380, Note_on_c, 2, 48, 64
4, 52440, Note_on_c, 2, 48, 0
4, 52440, Note_on_c, 2, 47, 64
4, 52500, Note_on_c, 2, 47, 0
4, 52500, Note_on_c, 2, 45, 64
4, 52560, Note_on_c, 2, 45, 0
4, 52560, Note_on_c, 2, 43, 64
4, 52620, Note_on_c, 2, 43, 0
4, 52620, Note_on_c, 2, 45, 64
4, 52680, Note_on_c, 2, 45, 0
4, 52680, Note_on_c, 2, 47, 64
4, 52740, Note_on_c, 2, 47, 0
4, 52740, Note_on_c, 2, 43, 64
4, 52800, Note_on_c, 2, 43, 0
4, 52800, Note_on_c, 2, 48, 64
4, 52860, Note_on_c, 2, 48, 0
4, 52860, Note_on_c, 2, 43, 64
4, 52920, Note_on_c, 2, 43, 0
4, 52920, Note_on_c, 2, 50, 64
4, 52980, Note_on_c, 2, 50, 0
4, 52980, Note_on_c, 2, 43, 64
4, 53040, Note_on_c, 2, 43, 0
4, 53040, Note_on_c, 2, 52, 64
4, 53100, Note_on_c, 2, 52, 0
4, 53100, Note_on_c, 2, 43, 64
4, 53160, Note_on_c, 2, 43, 0
4, 53160, Note_on_c, 2, 53, 64
4, 53220, Note_on_c, 2, 53, 0
4, 53220, Note_on_c, 2, 43, 64
4, 53280, Note_on_c, 2, 43, 0
4, 53280, Note_on_c, 2, 52, 64
4, 53340, Note_on_c, 2, 52, 0
4, 53340, Note_on_c, 2, 40, 64
4, 53370, Note_on_c, 2, 40, 0
4, 53370, Note_on_c, 2, 42, 64
4, 53400, Note_on_c, 2, 42, 0
4, 53400, Note_on_c, 2, 44, 64
4, 53460, Note_on_c, 2, 44, 0
4, 53460, Note_on_c, 2, 40, 64
4, 53520, Note_on_c, 2, 40, 0
4, 53520, Note_on_c, 2, 45, 64
4, 53580, Note_on_c, 2, 45, 0
4, 53580, Note_on_c, 2, 40, 64
4, 53640, Note_on_c, 2, 40, 0
4, 53640, Note_on_c, 2, 47, 64
4, 53700, Note_on_c, 2, 47, 0
4, 53700, Note_on_c, 2, 40, 64
4, 53760, Note_on_c, 2, 40, 0
4, 53760, Note_on_c, 2, 48, 64
4, 53820, Note_on_c, 2, 48, 0
4, 53820, Note_on_c, 2, 40, 64
4, 53880, Note_on_c, 2, 40, 0
4, 53880, Note_on_c, 2, 50, 64
4, 53940, Note_on_c, 2, 50, 0
4, 53940, Note_on_c, 2, 40, 64
4, 54000, Note_on_c, 2, 40, 0
4, 54000, Note_on_c, 2, 49, 64
4, 54060, Note_on_c, 2, 49, 0
4, 54060, Note_on_c, 2, 57, 64
4, 54120, Note_on_c, 2, 57, 0
4, 54120, Note_on_c, 2, 55, 64
4, 54180, Note_on_c, 2, 55, 0
4, 54180, Note_on_c, 2, 54, 64
4, 54240, Note_on_c, 2, 54, 0
4, 54240, Note_on_c, 2, 52, 64
4, 54300, Note_on_c, 2, 52, 0
4, 54300, Note_on_c, 2, 50, 64
4, 54360, Note_on_c, 2, 50, 0
4, 54360, Note_on_c, 2, 49, 64
4, 54420, Note_on_c, 2, 49, 0
4, 54420, Note_on_c, 2, 47, 64
4, 54480, Note_on_c, 2, 47, 0
4, 54480, Note_on_c, 2, 45, 64
4, 54540, Note_on_c, 2, 45, 0
4, 54540, Note_on_c, 2, 43, 64
4, 54600, Note_on_c, 2, 43, 0
4, 54600, Note_on_c, 2, 42, 64
4, 54660, Note_on_c, 2, 42, 0
4, 54660, Note_on_c, 2, 40, 64
4, 54720, Note_on_c, 2, 40, 0
4, 54720, Note_on_c, 2, 38, 64
4, 55500, Note_on_c, 2, 38, 0
4, 55500, Note_on_c, 2, 50, 64
4, 55560, Note_on_c, 2, 50, 0
4, 55560, Note_on_c, 2, 48, 64
4, 55620, Note_on_c, 2, 48, 0
4, 55620, Note_on_c, 2, 50, 64
4, 55680, Note_on_c, 2, 50, 0
4, 55680, Note_on_c, 2, 52, 64
4, 55740, Note_on_c, 2, 52, 0
4, 55740, Note_on_c, 2, 50, 64
4, 55800, Note_on_c, 2, 50, 0
4, 55800, Note_on_c, 2, 48, 64
4, 55920, Note_on_c, 2, 48, 0
4, 55920, Note_on_c, 2, 47, 64
4, 55980, Note_on_c, 2, 47, 0
4, 55980, Note_on_c, 2, 48, 64
4, 56040, Note_on_c, 2, 48, 0
4, 56040, Note_on_c, 2, 50, 64
4, 56100, Note_on_c, 2, 50, 0
4, 56100, Note_on_c, 2, 48, 64
4, 56160, Note_on_c, 2, 48, 0
4, 56160, Note_on_c, 2, 47, 64
4, 56280, Note_on_c, 2, 47, 0
4, 56280, Note_on_c, 2, 45, 64
4, 56340, Note_on_c, 2, 45, 0
4, 56340, Note_on_c, 2, 47, 64
4, 56400, Note_on_c, 2, 47, 0
4, 56400, Note_on_c, 2, 48, 64
4, 56460, Note_on_c, 2, 48, 0
4, 56460, Note_on_c, 2, 47, 64
4, 56520, Note_on_c, 2, 47, 0
4, 56520, Note_on_c, 2, 45, 64
4, 56640, Note_on_c, 2, 45, 0
4, 56640, Note_on_c, 2, 43, 64
4, 56700, Note_on_c, 2, 43, 0
4, 56700, Note_on_c, 2, 45, 64
4, 56760, Note_on_c, 2, 45, 0
4, 56760, Note_on_c, 2, 47, 64
4, 56820, Note_on_c, 2, 47, 0
4, 56820, Note_on_c, 2, 45, 64
4, 56880, Note_on_c, 2, 45, 0
4, 56880, Note_on_c, 2, 43, 64
4, 56940, Note_on_c, 2, 43, 0
4, 56940, Note_on_c, 2, 55, 64
4, 56970, Note_on_c, 2, 55, 0
4, 56970, Note_on_c, 2, 54, 64
4, 57000, Note_on_c, 2, 54, 0
4, 57000, Note_on_c, 2, 52, 64
4, 57060, Note_on_c, 2, 52, 0
4, 57060, Note_on_c, 2, 55, 64
4, 57120, Note_on_c, 2, 55, 0
4, 57120, Note_on_c, 2, 50, 64
4, 57180, Note_on_c, 2, 50, 0
4, 57180, Note_on_c, 2, 55, 64
4, 57240, Note_on_c, 2, 55, 0
4, 57240, Note_on_c, 2, 49, 64
4, 57300, Note_on_c, 2, 49, 0
4, 57300, Note_on_c, 2, 55, 64
4, 57360, Note_on_c, 2, 55, 0
4, 57360, Note_on_c, 2, 47, 64
4, 57420, Note_on_c, 2, 47, 0
4, 57420, Note_on_c, 2, 55, 64
4, 57480, Note_on_c, 2, 55, 0
4, 57480, Note_on_c, 2, 45, 64
4, 57540, Note_on_c, 2, 45, 0
4, 57540, Note_on_c, 2, 55, 64
4, 57600, Note_on_c, 2, 55, 0
4, 57600, Note_on_c, 2, 50, 64
4, 57660, Note_on_c, 2, 50, 0
4, 57660, Note_on_c, 2, 48, 64
4, 57720, Note_on_c, 2, 48, 0
4, 57720, Note_on_c, 2, 46, 64
4, 57780, Note_on_c, 2, 46, 0
4, 57780, Note_on_c, 2, 50, 64
4, 57840, Note_on_c, 2, 50, 0
4, 57840, Note_on_c, 2, 45, 64
4, 57900, Note_on_c, 2, 45, 0
4, 57900, Note_on_c, 2, 50, 64
4, 57960, Note_on_c, 2, 50, 0
4, 57960, Note_on_c, 2, 43, 64
4, 58020, Note_on_c, 2, 43, 0
4, 58020, Note_on_c, 2, 52, 64
4, 58080, Note_on_c, 2, 52, 0
4, 58080, Note_on_c, 2, 42, 64
4, 58140, Note_on_c, 2, 42, 0
4, 58140, Note_on_c, 2, 52, 64
4, 58200, Note_on_c, 2, 52, 0
4, 58200, Note_on_c, 2, 40, 64
4, 58260, Note_on_c, 2, 40, 0
4, 58260, Note_on_c, 2, 52, 64
4, 58320, Note_on_c, 2, 52, 0
4, 58320, Note_on_c, 2, 42, 64
4, 58440, Note_on_c, 2, 42, 0
4, 58440, Note_on_c, 2, 38, 64
4, 58560, Note_on_c, 2, 38, 0
4, 58560, Note_on_c, 2, 43, 64
4, 58680, Note_on_c, 2, 43, 0
4, 58680, Note_on_c, 2, 40, 64
4, 58800, Note_on_c, 2, 40, 0
4, 58800, Note_on_c, 2, 36, 64
4, 58920, Note_on_c, 2, 36, 0
4, 58920, Note_on_c, 2, 38, 64
4, 59040, Note_on_c, 2, 38, 0
4, 59040, Note_on_c, 2, 43, 64
4, 59400, Note_on_c, 2, 43, 0
4, 59460, Note_on_c, 2, 43, 64
4, 59490, Note_on_c, 2, 43, 0
4, 59490, Note_on_c, 2, 45, 64
4, 59520, Note_on_c, 2, 45, 0
4, 59520, Note_on_c, 2, 47, 64
4, 59580, Note_on_c, 2, 47, 0
4, 59580, Note_on_c, 2, 43, 64
4, 59640, Note_on_c, 2, 43, 0
4, 59640, Note_on_c, 2, 48, 64
4, 59700, Note_on_c, 2, 48, 0
4, 59700, Note_on_c, 2, 43, 64
4, 59760, Note_on_c, 2, 50, 64
4, 59870, Note_on_c, 2, 43, 0
4, 59880, Note_on_c, 2, 50, 0
4, 59880, Note_on_c, 2, 43, 64
4, 60000, Note_on_c, 2, 47, 64
4, 60120, Note_on_c, 2, 47, 0
4, 60120, Note_on_c, 2, 48, 64
4, 60150, Note_on_c, 2, 48, 0
4, 60150, Note_on_c, 2, 47, 64
4, 60180, Note_on_c, 2, 47, 0
4, 60180, Note_on_c, 2, 48, 64
4, 60210, Note_on_c, 2, 48, 0
4, 60210, Note_on_c, 2, 50, 64
4, 60240, Note_on_c, 2, 50, 0
4, 60240, Note_on_c, 2, 52, 64
4, 60300, Note_on_c, 2, 52, 0
4, 60300, Note_on_c, 2, 48, 64
4, 60360, Note_on_c, 2, 48, 0
4, 60360, Note_on_c, 2, 54, 64
4, 60420, Note_on_c, 2, 54, 0
4, 60420, Note_on_c, 2, 48, 64
4, 60480, Note_on_c, 2, 48, 0
4, 60480, Note_on_c, 2, 55, 64
4, 61920, Note_on_c, 2, 55, 0
4, 61920, Note_on_c, 2, 43, 0
4, 61920, End_track
0, 0, End_of_file
