0, 0, Header, 1, 7, 1024
1, 0, Start_track
1, 0, Time_signature, 4, 2, 24, 8
1, 0, Key_signature, 1, "major"
1, 0, Tempo, 833333
1, 300032, End_track
2, 0, Start_track
2, 0, Title_t, "Instrument 1"
2, 512, Note_on_c, 0, 67, 96
2, 768, Note_off_c, 0, 67, 0
2, 768, Note_on_c, 0, 69, 96
2, 1024, Note_off_c, 0, 69, 0
2, 1024, Note_on_c, 0, 71, 96
2, 1280, Note_off_c, 0, 71, 0
2, 1280, Note_on_c, 0, 72, 96
2, 1536, Note_off_c, 0, 72, 0
2, 1536, Note_on_c, 0, 74, 96
2, 1792, Note_off_c, 0, 74, 0
2, 1792, Note_on_c, 0, 72, 96
2, 2048, Note_off_c, 0, 72, 0
2, 2048, Note_on_c, 0, 71, 96
2, 2560, Note_off_c, 0, 71, 0
2, 2560, Note_on_c, 0, 74, 96
2, 3072, Note_off_c, 0, 74, 0
2, 3072, Note_on_c, 0, 79, 96
2, 3584, Note_off_c, 0, 79, 0
2, 3584, Note_on_c, 0, 78, 96
2, 4096, Note_off_c, 0, 78, 0
2, 4096, Note_on_c, 0, 79, 96
2, 4608, Note_off_c, 0, 79, 0
2, 4608, Note_on_c, 0, 71, 96
2, 4864, Note_off_c, 0, 71, 0
2, 4864, Note_on_c, 0, 72, 96
2, 5120, Note_off_c, 0, 72, 0
2, 5120, Note_on_c, 0, 74, 96
2, 5376, Note_off_c, 0, 74, 0
2, 5376, Note_on_c, 0, 76, 96
2, 5632, Note_off_c, 0, 76, 0
2, 5632, Note_on_c, 0, 74, 96
2, 5888, Note_off_c, 0, 74, 0
2, 5888, Note_on_c, 0, 76, 96
2, 6144, Note_off_c, 0, 76, 0
2, 6144, Note_on_c, 0, 74, 96
2, 6400, Note_off_c, 0, 74, 0
2, 6400, Note_on_c, 0, 72, 96
2, 6656, Note_off_c, 0, 72, 0
2, 6656, Note_on_c, 0, 74, 96
2, 6912, Note_off_c, 0, 74, 0
2, 6912, Note_on_c, 0, 79, 96
2, 7168, Note_off_c, 0, 79, 0
2, 7168, Note_on_c, 0, 78, 96
2, 7424, Note_off_c, 0, 78, 0
2, 7424, Note_on_c, 0, 76, 96
2, 7680, Note_off_c, 0, 76, 0
2, 7680, Note_on_c, 0, 74, 96
2, 7936, Note_off_c, 0, 74, 0
2, 7936, Note_on_c, 0, 72, 96
2, 8192, Note_off_c, 0, 72, 0
2, 8192, Note_on_c, 0, 71, 96
2, 8704, Note_off_c, 0, 71, 0
2, 8704, Note_on_c, 0, 74, 96
2, 9216, Note_off_c, 0, 74, 0
2, 9216, Note_on_c, 0, 79, 96
2, 9728, Note_off_c, 0, 79, 0
2, 9728, Note_on_c, 0, 78, 96
2, 10240, Note_off_c, 0, 78, 0
2, 10240, Note_on_c, 0, 79, 96
2, 10752, Note_off_c, 0, 79, 0
2, 10752, Note_on_c, 0, 83, 96
2, 11264, Note_off_c, 0, 83, 0
2, 11264, Note_on_c, 0, 81, 96
2, 11776, Note_off_c, 0, 81, 0
2, 11776, Note_on_c, 0, 78, 96
2, 12288, Note_off_c, 0, 78, 0
2, 12288, Note_on_c, 0, 79, 96
2, 12544, Note_off_c, 0, 79, 0
2, 12544, Note_on_c, 0, 81, 96
2, 12800, Note_off_c, 0, 81, 0
2, 12800, Note_on_c, 0, 83, 96
2, 13056, Note_off_c, 0, 83, 0
2, 13056, Note_on_c, 0, 79, 96
2, 13312, Note_off_c, 0, 79, 0
2, 13312, Note_on_c, 0, 76, 96
2, 13568, Note_off_c, 0, 76, 0
2, 13568, Note_on_c, 0, 79, 96
2, 13824, Note_off_c, 0, 79, 0
2, 13824, Note_on_c, 0, 78, 96
2, 14080, Note_off_c, 0, 78, 0
2, 14080, Note_on_c, 0, 76, 96
2, 14336, Note_off_c, 0, 76, 0
2, 14336, Note_on_c, 0, 81, 96
2, 14592, Note_off_c, 0, 81, 0
2, 14592, Note_on_c, 0, 76, 96
2, 14848, Note_off_c, 0, 76, 0
2, 14848, Note_on_c, 0, 78, 96
2, 15104, Note_off_c, 0, 78, 0
2, 15104, Note_on_c, 0, 79, 96
2, 15360, Note_off_c, 0, 79, 0
2, 15360, Note_on_c, 0, 81, 96
2, 15616, Note_off_c, 0, 81, 0
2, 15616, Note_on_c, 0, 76, 96
2, 15872, Note_off_c, 0, 76, 0
2, 15872, Note_on_c, 0, 78, 96
2, 16128, Note_off_c, 0, 78, 0
2, 16128, Note_on_c, 0, 74, 96
2, 16384, Note_off_c, 0, 74, 0
2, 16384, Note_on_c, 0, 79, 96
2, 16640, Note_off_c, 0, 79, 0
2, 16640, Note_on_c, 0, 78, 96
2, 16896, Note_off_c, 0, 78, 0
2, 16896, Note_on_c, 0, 79, 96
2, 17664, Note_off_c, 0, 79, 0
2, 17664, Note_on_c, 0, 83, 96
2, 17920, Note_off_c, 0, 83, 0
2, 17920, Note_on_c, 0, 81, 96
2, 18176, Note_off_c, 0, 81, 0
2, 18176, Note_on_c, 0, 79, 96
2, 18432, Note_off_c, 0, 79, 0
2, 18432, Note_on_c, 0, 78, 96
2, 18688, Note_off_c, 0, 78, 0
2, 18688, Note_on_c, 0, 76, 96
2, 18944, Note_off_c, 0, 76, 0
2, 18944, Note_on_c, 0, 74, 96
2, 19200, Note_off_c, 0, 74, 0
2, 19200, Note_on_c, 0, 73, 96
2, 19456, Note_off_c, 0, 73, 0
2, 19456, Note_on_c, 0, 71, 96
2, 19712, Note_off_c, 0, 71, 0
2, 19712, Note_on_c, 0, 74, 96
2, 19968, Note_off_c, 0, 74, 0
2, 19968, Note_on_c, 0, 73, 96
2, 20224, Note_off_c, 0, 73, 0
2, 20224, Note_on_c, 0, 76, 96
2, 20480, Note_off_c, 0, 76, 0
2, 20480, Note_on_c, 0, 74, 96
2, 22784, Note_off_c, 0, 74, 0
2, 22784, Note_on_c, 0, 78, 96
2, 23040, Note_off_c, 0, 78, 0
2, 23040, Note_on_c, 0, 76, 96
2, 23296, Note_off_c, 0, 76, 0
2, 23296, Note_on_c, 0, 74, 96
2, 23552, Note_off_c, 0, 74, 0
2, 23552, Note_on_c, 0, 73, 96
2, 24320, Note_off_c, 0, 73, 0
2, 24320, Note_on_c, 0, 74, 96
2, 24576, Note_off_c, 0, 74, 0
2, 24576, Note_on_c, 0, 74, 96
2, 25088, Note_off_c, 0, 74, 0
2, 27136, Note_on_c, 0, 62, 96
2, 27392, Note_off_c, 0, 62, 0
2, 27392, Note_on_c, 0, 64, 96
2, 27648, Note_off_c, 0, 64, 0
2, 27648, Note_on_c, 0, 66, 96
2, 27904, Note_off_c, 0, 66, 0
2, 27904, Note_on_c, 0, 67, 96
2, 28160, Note_off_c, 0, 67, 0
2, 28160, Note_on_c, 0, 69, 96
2, 28416, Note_off_c, 0, 69, 0
2, 28416, Note_on_c, 0, 67, 96
2, 28672, Note_off_c, 0, 67, 0
2, 28672, Note_on_c, 0, 66, 96
2, 29184, Note_off_c, 0, 66, 0
2, 29184, Note_on_c, 0, 69, 96
2, 29696, Note_off_c, 0, 69, 0
2, 29696, Note_on_c, 0, 74, 96
2, 30208, Note_off_c, 0, 74, 0
2, 30208, Note_on_c, 0, 73, 96
2, 30720, Note_off_c, 0, 73, 0
2, 30720, Note_on_c, 0, 74, 96
2, 31232, Note_off_c, 0, 74, 0
2, 31232, Note_on_c, 0, 78, 96
2, 31744, Note_off_c, 0, 78, 0
2, 31744, Note_on_c, 0, 76, 96
2, 32256, Note_off_c, 0, 76, 0
2, 32256, Note_on_c, 0, 73, 96
2, 32768, Note_off_c, 0, 73, 0
2, 32768, Note_on_c, 0, 74, 96
2, 33024, Note_off_c, 0, 74, 0
2, 33024, Note_on_c, 0, 76, 96
2, 33280, Note_off_c, 0, 76, 0
2, 33280, Note_on_c, 0, 78, 96
2, 33536, Note_off_c, 0, 78, 0
2, 33536, Note_on_c, 0, 79, 96
2, 33792, Note_off_c, 0, 79, 0
2, 33792, Note_on_c, 0, 81, 96
2, 34048, Note_off_c, 0, 81, 0
2, 34048, Note_on_c, 0, 83, 96
2, 34304, Note_off_c, 0, 83, 0
2, 34304, Note_on_c, 0, 81, 96
2, 34560, Note_off_c, 0, 81, 0
2, 34560, Note_on_c, 0, 83, 96
2, 34816, Note_off_c, 0, 83, 0
2, 34816, Note_on_c, 0, 81, 96
2, 35072, Note_off_c, 0, 81, 0
2, 35072, Note_on_c, 0, 79, 96
2, 35328, Note_off_c, 0, 79, 0
2, 35328, Note_on_c, 0, 81, 96
2, 35584, Note_off_c, 0, 81, 0
2, 35584, Note_on_c, 0, 83, 96
2, 35840, Note_off_c, 0, 83, 0
2, 35840, Note_on_c, 0, 73, 96
2, 36096, Note_off_c, 0, 73, 0
2, 36096, Note_on_c, 0, 83, 96
2, 36352, Note_off_c, 0, 83, 0
2, 36352, Note_on_c, 0, 81, 96
2, 36608, Note_off_c, 0, 81, 0
2, 36608, Note_on_c, 0, 79, 96
2, 36864, Note_off_c, 0, 79, 0
2, 36864, Note_on_c, 0, 78, 96
2, 37376, Note_off_c, 0, 78, 0
2, 37376, Note_on_c, 0, 83, 96
2, 37632, Note_off_c, 0, 83, 0
2, 37632, Note_on_c, 0, 82, 96
2, 37888, Note_off_c, 0, 82, 0
2, 37888, Note_on_c, 0, 83, 96
2, 39424, Note_off_c, 0, 83, 0
2, 39424, Note_on_c, 0, 76, 96
2, 39936, Note_off_c, 0, 76, 0
2, 39936, Note_on_c, 0, 81, 96
2, 41728, Note_off_c, 0, 81, 0
2, 41728, Note_on_c, 0, 83, 96
2, 41984, Note_off_c, 0, 83, 0
2, 41984, Note_on_c, 0, 79, 96
2, 42752, Note_off_c, 0, 79, 0
2, 42752, Note_on_c, 0, 81, 96
2, 43008, Note_off_c, 0, 81, 0
2, 43008, Note_on_c, 0, 81, 96
2, 43264, Note_off_c, 0, 81, 0
2, 43264, Note_on_c, 0, 76, 96
2, 43520, Note_off_c, 0, 76, 0
2, 43520, Note_on_c, 0, 69, 96
2, 43776, Note_off_c, 0, 69, 0
2, 43776, Note_on_c, 0, 71, 96
2, 44032, Note_off_c, 0, 71, 0
2, 44032, Note_on_c, 0, 73, 96
2, 44288, Note_off_c, 0, 73, 0
2, 44288, Note_on_c, 0, 74, 96
2, 44544, Note_off_c, 0, 74, 0
2, 44544, Note_on_c, 0, 76, 96
2, 44800, Note_off_c, 0, 76, 0
2, 44800, Note_on_c, 0, 78, 96
2, 45056, Note_off_c, 0, 78, 0
2, 45056, Note_on_c, 0, 79, 96
2, 45568, Note_off_c, 0, 79, 0
2, 45568, Note_on_c, 0, 71, 96
2, 46080, Note_off_c, 0, 71, 0
2, 46080, Note_on_c, 0, 76, 96
2, 46592, Note_off_c, 0, 76, 0
2, 46592, Note_on_c, 0, 79, 96
2, 47104, Note_off_c, 0, 79, 0
2, 47104, Note_on_c, 0, 78, 96
2, 47360, Note_off_c, 0, 78, 0
2, 47360, Note_on_c, 0, 74, 96
2, 47616, Note_off_c, 0, 74, 0
2, 47616, Note_on_c, 0, 71, 96
2, 47872, Note_off_c, 0, 71, 0
2, 47872, Note_on_c, 0, 73, 96
2, 48128, Note_off_c, 0, 73, 0
2, 48128, Note_on_c, 0, 74, 96
2, 48384, Note_off_c, 0, 74, 0
2, 48384, Note_on_c, 0, 76, 96
2, 48640, Note_off_c, 0, 76, 0
2, 48640, Note_on_c, 0, 78, 96
2, 48896, Note_off_c, 0, 78, 0
2, 48896, Note_on_c, 0, 79, 96
2, 49152, Note_off_c, 0, 79, 0
2, 49152, Note_on_c, 0, 81, 96
2, 49408, Note_off_c, 0, 81, 0
2, 49408, Note_on_c, 0, 79, 96
2, 49664, Note_off_c, 0, 79, 0
2, 49664, Note_on_c, 0, 78, 96
2, 49920, Note_off_c, 0, 78, 0
2, 49920, Note_on_c, 0, 76, 96
2, 50176, Note_off_c, 0, 76, 0
2, 50176, Note_on_c, 0, 74, 96
2, 50432, Note_off_c, 0, 74, 0
2, 50432, Note_on_c, 0, 73, 96
2, 50688, Note_off_c, 0, 73, 0
2, 50688, Note_on_c, 0, 71, 96
2, 50944, Note_off_c, 0, 71, 0
2, 50944, Note_on_c, 0, 81, 96
2, 51200, Note_off_c, 0, 81, 0
2, 51200, Note_on_c, 0, 79, 96
2, 51456, Note_off_c, 0, 79, 0
2, 51456, Note_on_c, 0, 78, 96
2, 51712, Note_off_c, 0, 78, 0
2, 51712, Note_on_c, 0, 76, 96
2, 51968, Note_off_c, 0, 76, 0
2, 51968, Note_on_c, 0, 74, 96
2, 52224, Note_off_c, 0, 74, 0
2, 52224, Note_on_c, 0, 73, 96
2, 52480, Note_off_c, 0, 73, 0
2, 52480, Note_on_c, 0, 71, 96
2, 52736, Note_off_c, 0, 71, 0
2, 52736, Note_on_c, 0, 69, 96
2, 52992, Note_off_c, 0, 69, 0
2, 52992, Note_on_c, 0, 79, 96
2, 53248, Note_off_c, 0, 79, 0
2, 53248, Note_on_c, 0, 78, 96
2, 53504, Note_off_c, 0, 78, 0
2, 53504, Note_on_c, 0, 76, 96
2, 53760, Note_off_c, 0, 76, 0
2, 53760, Note_on_c, 0, 74, 96
2, 54016, Note_off_c, 0, 74, 0
2, 54016, Note_on_c, 0, 73, 96
2, 54272, Note_off_c, 0, 73, 0
2, 54272, Note_on_c, 0, 71, 96
2, 54528, Note_off_c, 0, 71, 0
2, 54528, Note_on_c, 0, 69, 96
2, 54784, Note_off_c, 0, 69, 0
2, 54784, Note_on_c, 0, 67, 96
2, 55040, Note_off_c, 0, 67, 0
2, 55040, Note_on_c, 0, 66, 96
2, 55296, Note_off_c, 0, 66, 0
2, 55296, Note_on_c, 0, 64, 96
2, 55552, Note_off_c, 0, 64, 0
2, 55552, Note_on_c, 0, 73, 96
2, 55808, Note_off_c, 0, 73, 0
2, 55808, Note_on_c, 0, 74, 96
2, 56064, Note_off_c, 0, 74, 0
2, 56064, Note_on_c, 0, 76, 96
2, 56320, Note_off_c, 0, 76, 0
2, 56320, Note_on_c, 0, 73, 96
2, 57088, Note_off_c, 0, 73, 0
2, 57088, Note_on_c, 0, 74, 96
2, 57344, Note_off_c, 0, 74, 0
2, 57344, Note_on_c, 0, 74, 96
2, 57856, Note_off_c, 0, 74, 0
2, 57856, Note_on_c, 0, 69, 96
2, 58368, Note_off_c, 0, 69, 0
2, 58368, Note_on_c, 0, 74, 96
2, 58880, Note_off_c, 0, 74, 0
2, 58880, Note_on_c, 0, 73, 96
2, 59392, Note_off_c, 0, 73, 0
2, 59392, Note_on_c, 0, 74, 96
2, 59648, Note_off_c, 0, 74, 0
2, 59648, Note_on_c, 0, 69, 96
2, 59904, Note_off_c, 0, 69, 0
2, 59904, Note_on_c, 0, 62, 96
2, 60160, Note_off_c, 0, 62, 0
2, 60160, Note_on_c, 0, 64, 96
2, 60416, Note_off_c, 0, 64, 0
2, 60416, Note_on_c, 0, 66, 96
2, 60672, Note_off_c, 0, 66, 0
2, 60672, Note_on_c, 0, 68, 96
2, 60928, Note_off_c, 0, 68, 0
2, 60928, Note_on_c, 0, 69, 96
2, 61184, Note_off_c, 0, 69, 0
2, 61184, Note_on_c, 0, 71, 96
2, 61440, Note_off_c, 0, 71, 0
2, 61440, Note_on_c, 0, 72, 96
2, 61696, Note_off_c, 0, 72, 0
2, 61696, Note_on_c, 0, 71, 96
2, 61952, Note_off_c, 0, 71, 0
2, 61952, Note_on_c, 0, 69, 96
2, 62208, Note_off_c, 0, 69, 0
2, 62208, Note_on_c, 0, 71, 96
2, 62464, Note_off_c, 0, 71, 0
2, 62464, Note_on_c, 0, 72, 96
2, 62720, Note_off_c, 0, 72, 0
2, 62720, Note_on_c, 0, 74, 96
2, 62976, Note_off_c, 0, 74, 0
2, 62976, Note_on_c, 0, 76, 96
2, 63232, Note_off_c, 0, 76, 0
2, 63232, Note_on_c, 0, 74, 96
2, 63488, Note_off_c, 0, 74, 0
2, 63488, Note_on_c, 0, 72, 96
2, 64000, Note_off_c, 0, 72, 0
2, 64000, Note_on_c, 0, 76, 96
2, 64512, Note_off_c, 0, 76, 0
2, 64512, Note_on_c, 0, 81, 96
2, 65024, Note_off_c, 0, 81, 0
2, 65024, Note_on_c, 0, 75, 96
2, 65536, Note_off_c, 0, 75, 0
2, 65536, Note_on_c, 0, 76, 96
2, 65792, Note_off_c, 0, 76, 0
2, 65792, Note_on_c, 0, 71, 96
2, 66048, Note_off_c, 0, 71, 0
2, 66048, Note_on_c, 0, 76, 96
2, 66304, Note_off_c, 0, 76, 0
2, 66304, Note_on_c, 0, 78, 96
2, 66560, Note_off_c, 0, 78, 0
2, 66560, Note_on_c, 0, 79, 96
2, 66816, Note_off_c, 0, 79, 0
2, 66816, Note_on_c, 0, 81, 96
2, 67072, Note_off_c, 0, 81, 0
2, 67072, Note_on_c, 0, 83, 96
2, 67328, Note_off_c, 0, 83, 0
2, 67328, Note_on_c, 0, 81, 96
2, 67584, Note_off_c, 0, 81, 0
2, 67584, Note_on_c, 0, 79, 96
2, 68096, Note_off_c, 0, 79, 0
2, 68096, Note_on_c, 0, 71, 96
2, 68608, Note_off_c, 0, 71, 0
2, 68608, Note_on_c, 0, 76, 96
2, 69120, Note_off_c, 0, 76, 0
2, 69120, Note_on_c, 0, 75, 96
2, 69632, Note_off_c, 0, 75, 0
2, 69632, Note_on_c, 0, 76, 96
2, 69888, Note_off_c, 0, 76, 0
2, 69888, Note_on_c, 0, 78, 96
2, 70144, Note_off_c, 0, 78, 0
2, 70144, Note_on_c, 0, 79, 96
2, 70400, Note_off_c, 0, 79, 0
2, 70400, Note_on_c, 0, 81, 96
2, 70656, Note_off_c, 0, 81, 0
2, 70656, Note_on_c, 0, 83, 96
2, 70912, Note_off_c, 0, 83, 0
2, 70912, Note_on_c, 0, 84, 96
2, 71168, Note_off_c, 0, 84, 0
2, 71168, Note_on_c, 0, 83, 96
2, 71424, Note_off_c, 0, 83, 0
2, 71424, Note_on_c, 0, 84, 96
2, 71680, Note_off_c, 0, 84, 0
2, 71680, Note_on_c, 0, 83, 96
2, 71936, Note_off_c, 0, 83, 0
2, 71936, Note_on_c, 0, 81, 96
2, 72192, Note_off_c, 0, 81, 0
2, 72192, Note_on_c, 0, 83, 96
2, 72448, Note_off_c, 0, 83, 0
2, 72448, Note_on_c, 0, 84, 96
2, 72704, Note_off_c, 0, 84, 0
2, 72704, Note_on_c, 0, 75, 96
2, 72960, Note_off_c, 0, 75, 0
2, 72960, Note_on_c, 0, 84, 96
2, 73216, Note_off_c, 0, 84, 0
2, 73216, Note_on_c, 0, 83, 96
2, 73472, Note_off_c, 0, 83, 0
2, 73472, Note_on_c, 0, 81, 96
2, 73728, Note_off_c, 0, 81, 0
2, 73728, Note_on_c, 0, 79, 96
2, 74240, Note_off_c, 0, 79, 0
2, 74240, Note_on_c, 0, 71, 96
2, 74752, Note_off_c, 0, 71, 0
2, 74752, Note_on_c, 0, 76, 96
2, 75264, Note_off_c, 0, 76, 0
2, 75264, Note_on_c, 0, 75, 96
2, 75776, Note_off_c, 0, 75, 0
2, 75776, Note_on_c, 0, 76, 96
2, 76288, Note_off_c, 0, 76, 0
2, 76288, Note_on_c, 0, 79, 96
2, 76800, Note_off_c, 0, 79, 0
2, 76800, Note_on_c, 0, 78, 96
2, 77312, Note_off_c, 0, 78, 0
2, 77312, Note_on_c, 0, 75, 96
2, 77824, Note_off_c, 0, 75, 0
2, 77824, Note_on_c, 0, 76, 96
2, 78080, Note_off_c, 0, 76, 0
2, 78080, Note_on_c, 0, 71, 96
2, 78336, Note_off_c, 0, 71, 0
2, 78336, Note_on_c, 0, 76, 96
2, 78592, Note_off_c, 0, 76, 0
2, 78592, Note_on_c, 0, 78, 96
2, 78848, Note_off_c, 0, 78, 0
2, 78848, Note_on_c, 0, 79, 96
2, 79104, Note_off_c, 0, 79, 0
2, 79104, Note_on_c, 0, 81, 96
2, 79360, Note_off_c, 0, 81, 0
2, 79360, Note_on_c, 0, 79, 96
2, 79616, Note_off_c, 0, 79, 0
2, 79616, Note_on_c, 0, 81, 96
2, 79872, Note_off_c, 0, 81, 0
2, 79872, Note_on_c, 0, 73, 96
2, 80128, Note_off_c, 0, 73, 0
2, 80128, Note_on_c, 0, 74, 96
2, 80384, Note_off_c, 0, 74, 0
2, 80384, Note_on_c, 0, 73, 96
2, 80640, Note_off_c, 0, 73, 0
2, 80640, Note_on_c, 0, 76, 96
2, 80896, Note_off_c, 0, 76, 0
2, 80896, Note_on_c, 0, 78, 96
2, 81152, Note_off_c, 0, 78, 0
2, 81152, Note_on_c, 0, 79, 96
2, 81408, Note_off_c, 0, 79, 0
2, 81408, Note_on_c, 0, 78, 96
2, 81664, Note_off_c, 0, 78, 0
2, 81664, Note_on_c, 0, 79, 96
2, 81920, Note_off_c, 0, 79, 0
2, 81920, Note_on_c, 0, 71, 96
2, 82176, Note_off_c, 0, 71, 0
2, 82176, Note_on_c, 0, 72, 96
2, 82432, Note_off_c, 0, 72, 0
2, 82432, Note_on_c, 0, 71, 96
2, 82688, Note_off_c, 0, 71, 0
2, 82688, Note_on_c, 0, 75, 96
2, 82944, Note_off_c, 0, 75, 0
2, 82944, Note_on_c, 0, 76, 96
2, 84224, Note_off_c, 0, 76, 0
2, 84224, Note_on_c, 0, 79, 96
2, 84480, Note_off_c, 0, 79, 0
2, 84480, Note_on_c, 0, 78, 96
2, 84736, Note_off_c, 0, 78, 0
2, 84736, Note_on_c, 0, 76, 96
2, 84992, Note_off_c, 0, 76, 0
2, 84992, Note_on_c, 0, 75, 96
2, 85760, Note_off_c, 0, 75, 0
2, 85760, Note_on_c, 0, 76, 96
2, 86016, Note_off_c, 0, 76, 0
2, 86016, Note_on_c, 0, 76, 96
2, 86528, Note_off_c, 0, 76, 0
2, 86528, Note_on_c, 0, 79, 96
2, 86784, Note_off_c, 0, 79, 0
2, 86784, Note_on_c, 0, 78, 96
2, 87040, Note_off_c, 0, 78, 0
2, 87040, Note_on_c, 0, 76, 96
2, 87296, Note_off_c, 0, 76, 0
2, 87296, Note_on_c, 0, 74, 96
2, 87552, Note_off_c, 0, 74, 0
2, 87552, Note_on_c, 0, 73, 96
2, 87808, Note_off_c, 0, 73, 0
2, 87808, Note_on_c, 0, 71, 96
2, 88064, Note_off_c, 0, 71, 0
2, 88064, Note_on_c, 0, 69, 96
2, 88576, Note_off_c, 0, 69, 0
2, 88576, Note_on_c, 0, 76, 96
2, 89088, Note_off_c, 0, 76, 0
2, 89088, Note_on_c, 0, 73, 96
2, 89600, Note_off_c, 0, 73, 0
2, 89600, Note_on_c, 0, 69, 96
2, 90112, Note_off_c, 0, 69, 0
2, 90624, Note_on_c, 0, 78, 96
2, 90880, Note_off_c, 0, 78, 0
2, 90880, Note_on_c, 0, 76, 96
2, 91136, Note_off_c, 0, 76, 0
2, 91136, Note_on_c, 0, 74, 96
2, 91392, Note_off_c, 0, 74, 0
2, 91392, Note_on_c, 0, 73, 96
2, 91648, Note_off_c, 0, 73, 0
2, 91648, Note_on_c, 0, 71, 96
2, 91904, Note_off_c, 0, 71, 0
2, 91904, Note_on_c, 0, 69, 96
2, 92160, Note_off_c, 0, 69, 0
2, 92160, Note_on_c, 0, 67, 96
2, 92672, Note_off_c, 0, 67, 0
2, 92672, Note_on_c, 0, 74, 96
2, 93184, Note_off_c, 0, 74, 0
2, 93184, Note_on_c, 0, 71, 96
2, 93696, Note_off_c, 0, 71, 0
2, 93696, Note_on_c, 0, 67, 96
2, 94208, Note_off_c, 0, 67, 0
2, 94720, Note_on_c, 0, 76, 96
2, 94976, Note_off_c, 0, 76, 0
2, 94976, Note_on_c, 0, 74, 96
2, 95232, Note_off_c, 0, 74, 0
2, 95232, Note_on_c, 0, 73, 96
2, 95488, Note_off_c, 0, 73, 0
2, 95488, Note_on_c, 0, 71, 96
2, 95744, Note_off_c, 0, 71, 0
2, 95744, Note_on_c, 0, 70, 96
2, 96000, Note_off_c, 0, 70, 0
2, 96000, Note_on_c, 0, 68, 96
2, 96256, Note_off_c, 0, 68, 0
2, 96256, Note_on_c, 0, 66, 96
2, 96768, Note_off_c, 0, 66, 0
2, 96768, Note_on_c, 0, 73, 96
2, 97280, Note_off_c, 0, 73, 0
2, 97280, Note_on_c, 0, 70, 96
2, 97792, Note_off_c, 0, 70, 0
2, 97792, Note_on_c, 0, 78, 96
2, 98560, Note_off_c, 0, 78, 0
2, 98560, Note_on_c, 0, 76, 96
2, 98816, Note_off_c, 0, 76, 0
2, 98816, Note_on_c, 0, 74, 96
2, 99072, Note_off_c, 0, 74, 0
2, 99072, Note_on_c, 0, 73, 96
2, 99328, Note_off_c, 0, 73, 0
2, 99328, Note_on_c, 0, 71, 96
2, 99584, Note_off_c, 0, 71, 0
2, 99584, Note_on_c, 0, 69, 96
2, 99840, Note_off_c, 0, 69, 0
2, 99840, Note_on_c, 0, 67, 96
2, 100096, Note_off_c, 0, 67, 0
2, 100096, Note_on_c, 0, 78, 96
2, 100352, Note_off_c, 0, 78, 0
2, 100352, Note_on_c, 0, 76, 96
2, 100608, Note_off_c, 0, 76, 0
2, 100608, Note_on_c, 0, 74, 96
2, 100864, Note_off_c, 0, 74, 0
2, 100864, Note_on_c, 0, 73, 96
2, 101120, Note_off_c, 0, 73, 0
2, 101120, Note_on_c, 0, 71, 96
2, 101376, Note_off_c, 0, 71, 0
2, 101376, Note_on_c, 0, 70, 96
2, 101632, Note_off_c, 0, 70, 0
2, 101632, Note_on_c, 0, 68, 96
2, 101888, Note_off_c, 0, 68, 0
2, 101888, Note_on_c, 0, 66, 96
2, 102144, Note_off_c, 0, 66, 0
2, 102144, Note_on_c, 0, 76, 96
2, 102400, Note_off_c, 0, 76, 0
2, 102400, Note_on_c, 0, 74, 96
2, 102656, Note_off_c, 0, 74, 0
2, 102656, Note_on_c, 0, 73, 96
2, 102912, Note_off_c, 0, 73, 0
2, 102912, Note_on_c, 0, 71, 96
2, 103168, Note_off_c, 0, 71, 0
2, 103168, Note_on_c, 0, 69, 96
2, 103424, Note_off_c, 0, 69, 0
2, 103424, Note_on_c, 0, 67, 96
2, 103680, Note_off_c, 0, 67, 0
2, 103680, Note_on_c, 0, 66, 96
2, 103936, Note_off_c, 0, 66, 0
2, 103936, Note_on_c, 0, 64, 96
2, 104192, Note_off_c, 0, 64, 0
2, 104192, Note_on_c, 0, 62, 96
2, 104448, Note_off_c, 0, 62, 0
2, 104448, Note_on_c, 0, 61, 96
2, 104704, Note_off_c, 0, 61, 0
2, 104704, Note_on_c, 0, 70, 96
2, 104960, Note_off_c, 0, 70, 0
2, 104960, Note_on_c, 0, 71, 96
2, 105216, Note_off_c, 0, 71, 0
2, 105216, Note_on_c, 0, 73, 96
2, 105472, Note_off_c, 0, 73, 0
2, 105472, Note_on_c, 0, 70, 96
2, 106240, Note_off_c, 0, 70, 0
2, 106240, Note_on_c, 0, 71, 96
2, 106496, Note_off_c, 0, 71, 0
2, 106496, Note_on_c, 0, 71, 96
2, 107008, Note_off_c, 0, 71, 0
2, 107008, Note_on_c, 0, 71, 96
2, 107264, Note_off_c, 0, 71, 0
2, 107264, Note_on_c, 0, 73, 96
2, 107520, Note_off_c, 0, 73, 0
2, 107520, Note_on_c, 0, 74, 96
2, 107776, Note_off_c, 0, 74, 0
2, 107776, Note_on_c, 0, 76, 96
2, 108032, Note_off_c, 0, 76, 0
2, 108032, Note_on_c, 0, 78, 96
2, 108288, Note_off_c, 0, 78, 0
2, 108288, Note_on_c, 0, 76, 96
2, 108544, Note_off_c, 0, 76, 0
2, 108544, Note_on_c, 0, 74, 96
2, 109056, Note_off_c, 0, 74, 0
2, 109056, Note_on_c, 0, 78, 96
2, 109568, Note_off_c, 0, 78, 0
2, 109568, Note_on_c, 0, 83, 96
2, 110080, Note_off_c, 0, 83, 0
2, 110080, Note_on_c, 0, 82, 96
2, 110592, Note_off_c, 0, 82, 0
2, 110592, Note_on_c, 0, 83, 96
2, 110848, Note_off_c, 0, 83, 0
2, 110848, Note_on_c, 0, 71, 96
2, 111104, Note_off_c, 0, 71, 0
2, 111104, Note_on_c, 0, 74, 96
2, 111360, Note_off_c, 0, 74, 0
2, 111360, Note_on_c, 0, 76, 96
2, 111616, Note_off_c, 0, 76, 0
2, 111616, Note_on_c, 0, 78, 96
2, 111872, Note_off_c, 0, 78, 0
2, 111872, Note_on_c, 0, 79, 96
2, 112128, Note_off_c, 0, 79, 0
2, 112128, Note_on_c, 0, 78, 96
2, 112384, Note_off_c, 0, 78, 0
2, 112384, Note_on_c, 0, 79, 96
2, 112640, Note_off_c, 0, 79, 0
2, 112640, Note_on_c, 0, 78, 96
2, 112896, Note_off_c, 0, 78, 0
2, 112896, Note_on_c, 0, 76, 96
2, 113152, Note_off_c, 0, 76, 0
2, 113152, Note_on_c, 0, 78, 96
2, 113408, Note_off_c, 0, 78, 0
2, 113408, Note_on_c, 0, 83, 96
2, 113664, Note_off_c, 0, 83, 0
2, 113664, Note_on_c, 0, 82, 96
2, 113920, Note_off_c, 0, 82, 0
2, 113920, Note_on_c, 0, 80, 96
2, 114176, Note_off_c, 0, 80, 0
2, 114176, Note_on_c, 0, 78, 96
2, 114432, Note_off_c, 0, 78, 0
2, 114432, Note_on_c, 0, 76, 96
2, 114688, Note_off_c, 0, 76, 0
2, 114688, Note_on_c, 0, 74, 96
2, 115200, Note_off_c, 0, 74, 0
2, 115200, Note_on_c, 0, 66, 96
2, 115712, Note_off_c, 0, 66, 0
2, 115712, Note_on_c, 0, 71, 96
2, 116224, Note_off_c, 0, 71, 0
2, 116224, Note_on_c, 0, 70, 96
2, 116736, Note_off_c, 0, 70, 0
2, 116736, Note_on_c, 0, 71, 96
2, 117248, Note_off_c, 0, 71, 0
2, 117248, Note_on_c, 0, 74, 96
2, 117760, Note_off_c, 0, 74, 0
2, 117760, Note_on_c, 0, 73, 96
2, 118272, Note_off_c, 0, 73, 0
2, 118272, Note_on_c, 0, 70, 96
2, 118784, Note_off_c, 0, 70, 0
2, 118784, Note_on_c, 0, 71, 96
2, 119040, Note_off_c, 0, 71, 0
2, 119040, Note_on_c, 0, 74, 96
2, 119296, Note_off_c, 0, 74, 0
2, 119296, Note_on_c, 0, 73, 96
2, 119552, Note_off_c, 0, 73, 0
2, 119552, Note_on_c, 0, 71, 96
2, 119808, Note_off_c, 0, 71, 0
2, 119808, Note_on_c, 0, 78, 96
2, 121088, Note_off_c, 0, 78, 0
2, 121088, Note_on_c, 0, 74, 96
2, 121344, Note_off_c, 0, 74, 0
2, 121344, Note_on_c, 0, 73, 96
2, 121600, Note_off_c, 0, 73, 0
2, 121600, Note_on_c, 0, 71, 96
2, 121856, Note_off_c, 0, 71, 0
2, 121856, Note_on_c, 0, 76, 96
2, 123136, Note_off_c, 0, 76, 0
2, 123136, Note_on_c, 0, 69, 96
2, 123392, Note_off_c, 0, 69, 0
2, 123392, Note_on_c, 0, 71, 96
2, 123648, Note_off_c, 0, 71, 0
2, 123648, Note_on_c, 0, 73, 96
2, 123904, Note_off_c, 0, 73, 0
2, 123904, Note_on_c, 0, 74, 96
2, 125184, Note_off_c, 0, 74, 0
2, 125184, Note_on_c, 0, 67, 96
2, 125440, Note_off_c, 0, 67, 0
2, 125440, Note_on_c, 0, 66, 96
2, 125696, Note_off_c, 0, 66, 0
2, 125696, Note_on_c, 0, 64, 96
2, 125952, Note_off_c, 0, 64, 0
2, 125952, Note_on_c, 0, 73, 96
2, 127232, Note_off_c, 0, 73, 0
2, 127232, Note_on_c, 0, 76, 96
2, 127488, Note_off_c, 0, 76, 0
2, 127488, Note_on_c, 0, 74, 96
2, 127744, Note_off_c, 0, 74, 0
2, 127744, Note_on_c, 0, 73, 96
2, 128000, Note_off_c, 0, 73, 0
2, 128000, Note_on_c, 0, 71, 96
2, 128256, Note_off_c, 0, 71, 0
2, 128256, Note_on_c, 0, 69, 96
2, 128512, Note_off_c, 0, 69, 0
2, 128512, Note_on_c, 0, 67, 96
2, 128768, Note_off_c, 0, 67, 0
2, 128768, Note_on_c, 0, 66, 96
2, 129024, Note_off_c, 0, 66, 0
2, 129024, Note_on_c, 0, 64, 96
2, 130048, Note_off_c, 0, 64, 0
2, 130048, Note_on_c, 0, 76, 96
2, 131328, Note_off_c, 0, 76, 0
2, 131328, Note_on_c, 0, 79, 96
2, 131584, Note_off_c, 0, 79, 0
2, 131584, Note_on_c, 0, 78, 96
2, 131840, Note_off_c, 0, 78, 0
2, 131840, Note_on_c, 0, 76, 96
2, 132096, Note_off_c, 0, 76, 0
2, 132096, Note_on_c, 0, 74, 96
2, 132352, Note_off_c, 0, 74, 0
2, 132352, Note_on_c, 0, 73, 96
2, 132608, Note_off_c, 0, 73, 0
2, 132608, Note_on_c, 0, 71, 96
2, 132864, Note_off_c, 0, 71, 0
2, 132864, Note_on_c, 0, 69, 96
2, 133120, Note_off_c, 0, 69, 0
2, 133120, Note_on_c, 0, 67, 96
2, 134144, Note_off_c, 0, 67, 0
2, 134144, Note_on_c, 0, 79, 96
2, 135424, Note_off_c, 0, 79, 0
2, 135424, Note_on_c, 0, 83, 96
2, 135680, Note_off_c, 0, 83, 0
2, 135680, Note_on_c, 0, 81, 96
2, 135936, Note_off_c, 0, 81, 0
2, 135936, Note_on_c, 0, 79, 96
2, 136192, Note_off_c, 0, 79, 0
2, 136192, Note_on_c, 0, 78, 96
2, 136448, Note_off_c, 0, 78, 0
2, 136448, Note_on_c, 0, 76, 96
2, 136704, Note_off_c, 0, 76, 0
2, 136704, Note_on_c, 0, 74, 96
2, 136960, Note_off_c, 0, 74, 0
2, 136960, Note_on_c, 0, 73, 96
2, 137216, Note_off_c, 0, 73, 0
2, 137216, Note_on_c, 0, 71, 96
2, 138240, Note_off_c, 0, 71, 0
2, 138240, Note_on_c, 0, 83, 96
2, 139520, Note_off_c, 0, 83, 0
2, 139520, Note_on_c, 0, 76, 96
2, 139776, Note_off_c, 0, 76, 0
2, 139776, Note_on_c, 0, 78, 96
2, 140032, Note_off_c, 0, 78, 0
2, 140032, Note_on_c, 0, 79, 96
2, 140288, Note_off_c, 0, 79, 0
2, 140288, Note_on_c, 0, 81, 96
2, 140544, Note_off_c, 0, 81, 0
2, 140544, Note_on_c, 0, 83, 96
2, 140800, Note_off_c, 0, 83, 0
2, 140800, Note_on_c, 0, 81, 96
2, 141056, Note_off_c, 0, 81, 0
2, 141056, Note_on_c, 0, 79, 96
2, 141312, Note_off_c, 0, 79, 0
2, 141312, Note_on_c, 0, 78, 96
2, 143616, Note_off_c, 0, 78, 0
2, 143616, Note_on_c, 0, 74, 96
2, 143872, Note_off_c, 0, 74, 0
2, 143872, Note_on_c, 0, 76, 96
2, 144128, Note_off_c, 0, 76, 0
2, 144128, Note_on_c, 0, 78, 96
2, 144384, Note_off_c, 0, 78, 0
2, 144384, Note_on_c, 0, 79, 96
2, 144640, Note_off_c, 0, 79, 0
2, 144640, Note_on_c, 0, 78, 96
2, 144896, Note_off_c, 0, 78, 0
2, 144896, Note_on_c, 0, 76, 96
2, 145152, Note_off_c, 0, 76, 0
2, 145152, Note_on_c, 0, 74, 96
2, 145408, Note_off_c, 0, 74, 0
2, 145408, Note_on_c, 0, 73, 96
2, 146432, Note_off_c, 0, 73, 0
2, 146944, Note_on_c, 0, 73, 96
2, 147456, Note_off_c, 0, 73, 0
2, 147456, Note_on_c, 0, 74, 96
2, 147712, Note_off_c, 0, 74, 0
2, 147712, Note_on_c, 0, 73, 96
2, 147968, Note_off_c, 0, 73, 0
2, 147968, Note_on_c, 0, 71, 96
2, 148224, Note_off_c, 0, 71, 0
2, 148224, Note_on_c, 0, 69, 96
2, 148480, Note_off_c, 0, 69, 0
2, 148480, Note_on_c, 0, 67, 96
2, 148736, Note_off_c, 0, 67, 0
2, 148736, Note_on_c, 0, 71, 96
2, 148992, Note_off_c, 0, 71, 0
2, 148992, Note_on_c, 0, 69, 96
2, 149248, Note_off_c, 0, 69, 0
2, 149248, Note_on_c, 0, 72, 96
2, 149504, Note_off_c, 0, 72, 0
2, 149504, Note_on_c, 0, 71, 96
2, 149760, Note_off_c, 0, 71, 0
2, 149760, Note_on_c, 0, 69, 96
2, 150016, Note_off_c, 0, 69, 0
2, 150016, Note_on_c, 0, 67, 96
2, 150272, Note_off_c, 0, 67, 0
2, 150272, Note_on_c, 0, 66, 96
2, 150528, Note_off_c, 0, 66, 0
2, 150528, Note_on_c, 0, 64, 96
2, 150784, Note_off_c, 0, 64, 0
2, 150784, Note_on_c, 0, 67, 96
2, 151040, Note_off_c, 0, 67, 0
2, 151040, Note_on_c, 0, 66, 96
2, 151296, Note_off_c, 0, 66, 0
2, 151296, Note_on_c, 0, 69, 96
2, 151552, Note_off_c, 0, 69, 0
2, 151552, Note_on_c, 0, 67, 96
2, 151808, Note_off_c, 0, 67, 0
2, 151808, Note_on_c, 0, 71, 96
2, 152064, Note_off_c, 0, 71, 0
2, 152064, Note_on_c, 0, 69, 96
2, 152320, Note_off_c, 0, 69, 0
2, 152320, Note_on_c, 0, 72, 96
2, 152576, Note_off_c, 0, 72, 0
2, 152576, Note_on_c, 0, 71, 96
2, 152832, Note_off_c, 0, 71, 0
2, 152832, Note_on_c, 0, 74, 96
2, 153088, Note_off_c, 0, 74, 0
2, 153088, Note_on_c, 0, 73, 96
2, 153344, Note_off_c, 0, 73, 0
2, 153344, Note_on_c, 0, 76, 96
2, 153600, Note_off_c, 0, 76, 0
2, 153600, Note_on_c, 0, 66, 96
2, 154368, Note_off_c, 0, 66, 0
2, 154368, Note_on_c, 0, 67, 96
2, 154624, Note_off_c, 0, 67, 0
2, 154624, Note_on_c, 0, 64, 96
2, 155392, Note_off_c, 0, 64, 0
2, 155392, Note_on_c, 0, 62, 96
2, 155648, Note_off_c, 0, 62, 0
2, 155648, Note_on_c, 0, 62, 96
2, 156160, Note_off_c, 0, 62, 0
2, 156160, Note_on_c, 0, 69, 96
2, 156672, Note_off_c, 0, 69, 0
2, 156672, Note_on_c, 0, 74, 96
2, 157184, Note_off_c, 0, 74, 0
2, 157184, Note_on_c, 0, 73, 96
2, 157696, Note_off_c, 0, 73, 0
2, 157696, Note_on_c, 0, 74, 96
2, 157952, Note_off_c, 0, 74, 0
2, 157952, Note_on_c, 0, 73, 96
2, 158208, Note_off_c, 0, 73, 0
2, 158208, Note_on_c, 0, 74, 96
2, 158464, Note_off_c, 0, 74, 0
2, 158464, Note_on_c, 0, 76, 96
2, 158720, Note_off_c, 0, 76, 0
2, 158720, Note_on_c, 0, 78, 96
2, 158976, Note_off_c, 0, 78, 0
2, 158976, Note_on_c, 0, 79, 96
2, 159232, Note_off_c, 0, 79, 0
2, 159232, Note_on_c, 0, 81, 96
2, 159488, Note_off_c, 0, 81, 0
2, 159488, Note_on_c, 0, 79, 96
2, 159744, Note_off_c, 0, 79, 0
2, 159744, Note_on_c, 0, 78, 96
2, 160256, Note_off_c, 0, 78, 0
2, 160256, Note_on_c, 0, 66, 96
2, 160512, Note_off_c, 0, 66, 0
2, 160512, Note_on_c, 0, 67, 96
2, 160768, Note_off_c, 0, 67, 0
2, 160768, Note_on_c, 0, 69, 96
2, 161024, Note_off_c, 0, 69, 0
2, 161024, Note_on_c, 0, 71, 96
2, 161280, Note_off_c, 0, 71, 0
2, 161280, Note_on_c, 0, 72, 96
2, 161536, Note_off_c, 0, 72, 0
2, 161536, Note_on_c, 0, 74, 96
2, 161792, Note_off_c, 0, 74, 0
2, 161792, Note_on_c, 0, 76, 96
2, 162048, Note_off_c, 0, 76, 0
2, 162048, Note_on_c, 0, 79, 96
2, 162304, Note_off_c, 0, 79, 0
2, 162304, Note_on_c, 0, 78, 96
2, 162560, Note_off_c, 0, 78, 0
2, 162560, Note_on_c, 0, 79, 96
2, 162816, Note_off_c, 0, 79, 0
2, 162816, Note_on_c, 0, 81, 96
2, 163072, Note_off_c, 0, 81, 0
2, 163072, Note_on_c, 0, 79, 96
2, 163328, Note_off_c, 0, 79, 0
2, 163328, Note_on_c, 0, 78, 96
2, 163584, Note_off_c, 0, 78, 0
2, 163584, Note_on_c, 0, 76, 96
2, 163840, Note_off_c, 0, 76, 0
2, 163840, Note_on_c, 0, 74, 96
2, 164352, Note_off_c, 0, 74, 0
2, 164352, Note_on_c, 0, 67, 96
2, 164608, Note_off_c, 0, 67, 0
2, 164608, Note_on_c, 0, 69, 96
2, 164864, Note_off_c, 0, 69, 0
2, 164864, Note_on_c, 0, 71, 96
2, 165120, Note_off_c, 0, 71, 0
2, 165120, Note_on_c, 0, 72, 96
2, 165376, Note_off_c, 0, 72, 0
2, 165376, Note_on_c, 0, 74, 96
2, 165632, Note_off_c, 0, 74, 0
2, 165632, Note_on_c, 0, 72, 96
2, 165888, Note_off_c, 0, 72, 0
2, 165888, Note_on_c, 0, 71, 96
2, 166400, Note_off_c, 0, 71, 0
2, 166400, Note_on_c, 0, 74, 96
2, 166912, Note_off_c, 0, 74, 0
2, 166912, Note_on_c, 0, 79, 96
2, 167424, Note_off_c, 0, 79, 0
2, 167424, Note_on_c, 0, 78, 96
2, 167936, Note_off_c, 0, 78, 0
2, 167936, Note_on_c, 0, 79, 96
2, 168448, Note_off_c, 0, 79, 0
2, 168448, Note_on_c, 0, 67, 96
2, 168704, Note_off_c, 0, 67, 0
2, 168704, Note_on_c, 0, 69, 96
2, 168960, Note_off_c, 0, 69, 0
2, 168960, Note_on_c, 0, 71, 96
2, 169216, Note_off_c, 0, 71, 0
2, 169216, Note_on_c, 0, 72, 96
2, 169472, Note_off_c, 0, 72, 0
2, 169472, Note_on_c, 0, 74, 96
2, 169728, Note_off_c, 0, 74, 0
2, 169728, Note_on_c, 0, 76, 96
2, 169984, Note_off_c, 0, 76, 0
2, 169984, Note_on_c, 0, 77, 96
2, 170240, Note_off_c, 0, 77, 0
2, 170240, Note_on_c, 0, 76, 96
2, 170496, Note_off_c, 0, 76, 0
2, 170496, Note_on_c, 0, 74, 96
2, 170752, Note_off_c, 0, 74, 0
2, 170752, Note_on_c, 0, 76, 96
2, 171008, Note_off_c, 0, 76, 0
2, 171008, Note_on_c, 0, 77, 96
2, 171264, Note_off_c, 0, 77, 0
2, 171264, Note_on_c, 0, 81, 96
2, 171520, Note_off_c, 0, 81, 0
2, 171520, Note_on_c, 0, 79, 96
2, 171776, Note_off_c, 0, 79, 0
2, 171776, Note_on_c, 0, 77, 96
2, 172032, Note_off_c, 0, 77, 0
2, 172032, Note_on_c, 0, 76, 96
2, 172288, Note_off_c, 0, 76, 0
2, 172288, Note_on_c, 0, 74, 96
2, 172544, Note_off_c, 0, 74, 0
2, 172544, Note_on_c, 0, 76, 96
2, 172800, Note_off_c, 0, 76, 0
2, 172800, Note_on_c, 0, 77, 96
2, 173056, Note_off_c, 0, 77, 0
2, 173056, Note_on_c, 0, 79, 96
2, 173312, Note_off_c, 0, 79, 0
2, 173312, Note_on_c, 0, 81, 96
2, 173568, Note_off_c, 0, 81, 0
2, 173568, Note_on_c, 0, 79, 96
2, 173824, Note_off_c, 0, 79, 0
2, 173824, Note_on_c, 0, 81, 96
2, 174080, Note_off_c, 0, 81, 0
2, 174080, Note_on_c, 0, 79, 96
2, 174336, Note_off_c, 0, 79, 0
2, 174336, Note_on_c, 0, 77, 96
2, 174592, Note_off_c, 0, 77, 0
2, 174592, Note_on_c, 0, 79, 96
2, 174848, Note_off_c, 0, 79, 0
2, 174848, Note_on_c, 0, 84, 96
2, 175104, Note_off_c, 0, 84, 0
2, 175104, Note_on_c, 0, 83, 96
2, 175360, Note_off_c, 0, 83, 0
2, 175360, Note_on_c, 0, 81, 96
2, 175616, Note_off_c, 0, 81, 0
2, 175616, Note_on_c, 0, 79, 96
2, 175872, Note_off_c, 0, 79, 0
2, 175872, Note_on_c, 0, 77, 96
2, 176128, Note_off_c, 0, 77, 0
2, 176128, Note_on_c, 0, 76, 96
2, 176640, Note_off_c, 0, 76, 0
2, 176640, Note_on_c, 0, 67, 96
2, 177152, Note_off_c, 0, 67, 0
2, 177152, Note_on_c, 0, 72, 96
2, 177664, Note_off_c, 0, 72, 0
2, 177664, Note_on_c, 0, 71, 96
2, 178176, Note_off_c, 0, 71, 0
2, 178176, Note_on_c, 0, 72, 96
2, 178688, Note_off_c, 0, 72, 0
2, 178688, Note_on_c, 0, 76, 96
2, 179200, Note_off_c, 0, 76, 0
2, 179200, Note_on_c, 0, 74, 96
2, 179712, Note_off_c, 0, 74, 0
2, 179712, Note_on_c, 0, 71, 96
2, 180224, Note_off_c, 0, 71, 0
2, 180224, Note_on_c, 0, 72, 96
2, 180480, Note_off_c, 0, 72, 0
2, 180480, Note_on_c, 0, 74, 96
2, 180736, Note_off_c, 0, 74, 0
2, 180736, Note_on_c, 0, 76, 96
2, 180992, Note_off_c, 0, 76, 0
2, 180992, Note_on_c, 0, 72, 96
2, 181248, Note_off_c, 0, 72, 0
2, 181248, Note_on_c, 0, 69, 96
2, 181504, Note_off_c, 0, 69, 0
2, 181504, Note_on_c, 0, 72, 96
2, 181760, Note_off_c, 0, 72, 0
2, 181760, Note_on_c, 0, 71, 96
2, 182016, Note_off_c, 0, 71, 0
2, 182016, Note_on_c, 0, 69, 96
2, 182272, Note_off_c, 0, 69, 0
2, 182272, Note_on_c, 0, 74, 96
2, 182528, Note_off_c, 0, 74, 0
2, 182528, Note_on_c, 0, 72, 96
2, 182784, Note_off_c, 0, 72, 0
2, 182784, Note_on_c, 0, 71, 96
2, 183040, Note_off_c, 0, 71, 0
2, 183040, Note_on_c, 0, 72, 96
2, 183296, Note_off_c, 0, 72, 0
2, 183296, Note_on_c, 0, 74, 96
2, 183552, Note_off_c, 0, 74, 0
2, 183552, Note_on_c, 0, 69, 96
2, 183808, Note_off_c, 0, 69, 0
2, 183808, Note_on_c, 0, 71, 96
2, 184064, Note_off_c, 0, 71, 0
2, 184064, Note_on_c, 0, 67, 96
2, 184320, Note_off_c, 0, 67, 0
2, 184320, Note_on_c, 0, 72, 96
2, 184576, Note_off_c, 0, 72, 0
2, 184576, Note_on_c, 0, 71, 96
2, 184832, Note_off_c, 0, 71, 0
2, 184832, Note_on_c, 0, 72, 96
2, 185600, Note_off_c, 0, 72, 0
2, 185600, Note_on_c, 0, 76, 96
2, 185856, Note_off_c, 0, 76, 0
2, 185856, Note_on_c, 0, 74, 96
2, 186112, Note_off_c, 0, 74, 0
2, 186112, Note_on_c, 0, 72, 96
2, 186368, Note_off_c, 0, 72, 0
2, 186368, Note_on_c, 0, 71, 96
2, 186880, Note_off_c, 0, 71, 0
2, 186880, Note_on_c, 0, 76, 96
2, 187136, Note_off_c, 0, 76, 0
2, 187136, Note_on_c, 0, 75, 96
2, 187392, Note_off_c, 0, 75, 0
2, 187392, Note_on_c, 0, 76, 96
2, 188928, Note_off_c, 0, 76, 0
2, 188928, Note_on_c, 0, 69, 96
2, 189440, Note_off_c, 0, 69, 0
2, 189440, Note_on_c, 0, 74, 96
2, 191232, Note_off_c, 0, 74, 0
2, 191232, Note_on_c, 0, 76, 96
2, 191488, Note_off_c, 0, 76, 0
2, 191488, Note_on_c, 0, 73, 96
2, 192256, Note_off_c, 0, 73, 0
2, 192256, Note_on_c, 0, 74, 96
2, 192512, Note_off_c, 0, 74, 0
2, 192512, Note_on_c, 0, 74, 96
2, 193024, Note_off_c, 0, 74, 0
2, 193024, Note_on_c, 0, 62, 96
2, 193280, Note_off_c, 0, 62, 0
2, 193280, Note_on_c, 0, 64, 96
2, 193536, Note_off_c, 0, 64, 0
2, 193536, Note_on_c, 0, 66, 96
2, 193792, Note_off_c, 0, 66, 0
2, 193792, Note_on_c, 0, 67, 96
2, 194048, Note_off_c, 0, 67, 0
2, 194048, Note_on_c, 0, 69, 96
2, 194304, Note_off_c, 0, 69, 0
2, 194304, Note_on_c, 0, 71, 96
2, 194560, Note_off_c, 0, 71, 0
2, 194560, Note_on_c, 0, 72, 96
2, 195072, Note_off_c, 0, 72, 0
2, 195072, Note_on_c, 0, 64, 96
2, 195584, Note_off_c, 0, 64, 0
2, 195584, Note_on_c, 0, 69, 96
2, 196096, Note_off_c, 0, 69, 0
2, 196096, Note_on_c, 0, 72, 96
2, 196608, Note_off_c, 0, 72, 0
2, 196608, Note_on_c, 0, 71, 96
2, 196864, Note_off_c, 0, 71, 0
2, 196864, Note_on_c, 0, 67, 96
2, 197120, Note_off_c, 0, 67, 0
2, 197120, Note_on_c, 0, 64, 96
2, 197376, Note_off_c, 0, 64, 0
2, 197376, Note_on_c, 0, 66, 96
2, 197632, Note_off_c, 0, 66, 0
2, 197632, Note_on_c, 0, 67, 96
2, 197888, Note_off_c, 0, 67, 0
2, 197888, Note_on_c, 0, 69, 96
2, 198144, Note_off_c, 0, 69, 0
2, 198144, Note_on_c, 0, 71, 96
2, 198400, Note_off_c, 0, 71, 0
2, 198400, Note_on_c, 0, 72, 96
2, 198656, Note_off_c, 0, 72, 0
2, 198656, Note_on_c, 0, 74, 96
2, 198912, Note_off_c, 0, 74, 0
2, 198912, Note_on_c, 0, 72, 96
2, 199168, Note_off_c, 0, 72, 0
2, 199168, Note_on_c, 0, 71, 96
2, 199424, Note_off_c, 0, 71, 0
2, 199424, Note_on_c, 0, 69, 96
2, 199680, Note_off_c, 0, 69, 0
2, 199680, Note_on_c, 0, 67, 96
2, 199936, Note_off_c, 0, 67, 0
2, 199936, Note_on_c, 0, 66, 96
2, 200192, Note_off_c, 0, 66, 0
2, 200192, Note_on_c, 0, 64, 96
2, 200448, Note_off_c, 0, 64, 0
2, 200448, Note_on_c, 0, 74, 96
2, 200704, Note_off_c, 0, 74, 0
2, 200704, Note_on_c, 0, 72, 96
2, 200960, Note_off_c, 0, 72, 0
2, 200960, Note_on_c, 0, 71, 96
2, 201216, Note_off_c, 0, 71, 0
2, 201216, Note_on_c, 0, 69, 96
2, 201472, Note_off_c, 0, 69, 0
2, 201472, Note_on_c, 0, 67, 96
2, 201728, Note_off_c, 0, 67, 0
2, 201728, Note_on_c, 0, 66, 96
2, 201984, Note_off_c, 0, 66, 0
2, 201984, Note_on_c, 0, 64, 96
2, 202240, Note_off_c, 0, 64, 0
2, 202240, Note_on_c, 0, 62, 96
2, 202496, Note_off_c, 0, 62, 0
2, 202496, Note_on_c, 0, 72, 96
2, 202752, Note_off_c, 0, 72, 0
2, 202752, Note_on_c, 0, 71, 96
2, 203008, Note_off_c, 0, 71, 0
2, 203008, Note_on_c, 0, 69, 96
2, 203264, Note_off_c, 0, 69, 0
2, 203264, Note_on_c, 0, 67, 96
2, 203520, Note_off_c, 0, 67, 0
2, 203520, Note_on_c, 0, 66, 96
2, 203776, Note_off_c, 0, 66, 0
2, 203776, Note_on_c, 0, 64, 96
2, 204032, Note_off_c, 0, 64, 0
2, 204032, Note_on_c, 0, 62, 96
2, 204288, Note_off_c, 0, 62, 0
2, 204288, Note_on_c, 0, 60, 96
2, 205056, Note_off_c, 0, 60, 0
2, 205056, Note_on_c, 0, 62, 96
2, 205184, Note_off_c, 0, 62, 0
2, 205184, Note_on_c, 0, 60, 96
2, 205312, Note_off_c, 0, 60, 0
2, 205312, Note_on_c, 0, 59, 96
2, 205568, Note_off_c, 0, 59, 0
2, 205568, Note_on_c, 0, 60, 96
2, 205696, Note_off_c, 0, 60, 0
2, 205696, Note_on_c, 0, 62, 96
2, 205824, Note_off_c, 0, 62, 0
2, 205824, Note_on_c, 0, 57, 96
2, 206592, Note_off_c, 0, 57, 0
2, 206592, Note_on_c, 0, 55, 96
2, 206848, Note_off_c, 0, 55, 0
2, 206848, Note_on_c, 0, 55, 96
2, 207360, Note_off_c, 0, 55, 0
2, 209408, Note_on_c, 0, 67, 96
2, 209664, Note_off_c, 0, 67, 0
2, 209664, Note_on_c, 0, 69, 96
2, 209920, Note_off_c, 0, 69, 0
2, 209920, Note_on_c, 0, 71, 96
2, 210176, Note_off_c, 0, 71, 0
2, 210176, Note_on_c, 0, 72, 96
2, 210432, Note_off_c, 0, 72, 0
2, 210432, Note_on_c, 0, 74, 96
2, 210688, Note_off_c, 0, 74, 0
2, 210688, Note_on_c, 0, 72, 96
2, 210944, Note_off_c, 0, 72, 0
2, 210944, Note_on_c, 0, 71, 96
2, 211456, Note_off_c, 0, 71, 0
2, 211456, Note_on_c, 0, 74, 96
2, 211968, Note_off_c, 0, 74, 0
2, 211968, Note_on_c, 0, 79, 96
2, 212480, Note_off_c, 0, 79, 0
2, 212480, Note_on_c, 0, 78, 96
2, 212992, Note_off_c, 0, 78, 0
2, 212992, Note_on_c, 0, 79, 96
2, 213248, Note_off_c, 0, 79, 0
2, 213248, Note_on_c, 0, 74, 96
2, 213504, Note_off_c, 0, 74, 0
2, 213504, Note_on_c, 0, 67, 96
2, 213760, Note_off_c, 0, 67, 0
2, 213760, Note_on_c, 0, 69, 96
2, 214016, Note_off_c, 0, 69, 0
2, 214016, Note_on_c, 0, 71, 96
2, 214272, Note_off_c, 0, 71, 0
2, 214272, Note_on_c, 0, 72, 96
2, 214528, Note_off_c, 0, 72, 0
2, 214528, Note_on_c, 0, 74, 96
2, 214784, Note_off_c, 0, 74, 0
2, 214784, Note_on_c, 0, 76, 96
2, 215040, Note_off_c, 0, 76, 0
2, 215040, Note_on_c, 0, 74, 96
2, 215296, Note_off_c, 0, 74, 0
2, 215296, Note_on_c, 0, 76, 96
2, 215552, Note_off_c, 0, 76, 0
2, 215552, Note_on_c, 0, 74, 96
2, 215808, Note_off_c, 0, 74, 0
2, 215808, Note_on_c, 0, 76, 96
2, 216064, Note_off_c, 0, 76, 0
2, 216064, Note_on_c, 0, 74, 96
2, 216320, Note_off_c, 0, 74, 0
2, 216320, Note_on_c, 0, 72, 96
2, 216576, Note_off_c, 0, 72, 0
2, 216576, Note_on_c, 0, 74, 96
2, 216832, Note_off_c, 0, 74, 0
2, 216832, Note_on_c, 0, 76, 96
2, 217088, Note_off_c, 0, 76, 0
2, 217088, Note_on_c, 0, 74, 96
2, 217344, Note_off_c, 0, 74, 0
2, 217344, Note_on_c, 0, 76, 96
2, 217600, Note_off_c, 0, 76, 0
2, 217600, Note_on_c, 0, 78, 96
2, 217856, Note_off_c, 0, 78, 0
2, 217856, Note_on_c, 0, 79, 96
2, 218112, Note_off_c, 0, 79, 0
2, 218112, Note_on_c, 0, 81, 96
2, 218368, Note_off_c, 0, 81, 0
2, 218368, Note_on_c, 0, 83, 96
2, 218624, Note_off_c, 0, 83, 0
2, 218624, Note_on_c, 0, 81, 96
2, 218880, Note_off_c, 0, 81, 0
2, 218880, Note_on_c, 0, 79, 96
2, 219136, Note_off_c, 0, 79, 0
2, 219136, Note_on_c, 0, 78, 96
2, 219648, Note_off_c, 0, 78, 0
2, 219648, Note_on_c, 0, 69, 96
2, 220160, Note_off_c, 0, 69, 0
2, 220160, Note_on_c, 0, 74, 96
2, 220672, Note_off_c, 0, 74, 0
2, 220672, Note_on_c, 0, 73, 96
2, 221184, Note_off_c, 0, 73, 0
2, 221184, Note_on_c, 0, 74, 96
2, 221440, Note_off_c, 0, 74, 0
2, 221440, Note_on_c, 0, 69, 96
2, 221696, Note_off_c, 0, 69, 0
2, 221696, Note_on_c, 0, 62, 96
2, 221952, Note_off_c, 0, 62, 0
2, 221952, Note_on_c, 0, 64, 96
2, 222208, Note_off_c, 0, 64, 0
2, 222208, Note_on_c, 0, 66, 96
2, 222464, Note_off_c, 0, 66, 0
2, 222464, Note_on_c, 0, 67, 96
2, 222720, Note_off_c, 0, 67, 0
2, 222720, Note_on_c, 0, 69, 96
2, 222976, Note_off_c, 0, 69, 0
2, 222976, Note_on_c, 0, 67, 96
2, 223232, Note_off_c, 0, 67, 0
2, 223232, Note_on_c, 0, 66, 96
2, 223744, Note_off_c, 0, 66, 0
2, 223744, Note_on_c, 0, 74, 96
2, 224256, Note_off_c, 0, 74, 0
2, 224256, Note_on_c, 0, 79, 96
2, 224768, Note_off_c, 0, 79, 0
2, 224768, Note_on_c, 0, 78, 96
2, 225280, Note_off_c, 0, 78, 0
2, 225280, Note_on_c, 0, 79, 96
2, 225536, Note_off_c, 0, 79, 0
2, 225536, Note_on_c, 0, 74, 96
2, 225792, Note_off_c, 0, 74, 0
2, 225792, Note_on_c, 0, 67, 96
2, 226048, Note_off_c, 0, 67, 0
2, 226048, Note_on_c, 0, 69, 96
2, 226304, Note_off_c, 0, 69, 0
2, 226304, Note_on_c, 0, 71, 96
2, 226560, Note_off_c, 0, 71, 0
2, 226560, Note_on_c, 0, 72, 96
2, 226816, Note_off_c, 0, 72, 0
2, 226816, Note_on_c, 0, 74, 96
2, 227072, Note_off_c, 0, 74, 0
2, 227072, Note_on_c, 0, 72, 96
2, 227328, Note_off_c, 0, 72, 0
2, 227328, Note_on_c, 0, 71, 96
2, 227584, Note_off_c, 0, 71, 0
2, 227584, Note_on_c, 0, 67, 96
2, 227840, Note_off_c, 0, 67, 0
2, 227840, Note_on_c, 0, 69, 96
2, 228096, Note_off_c, 0, 69, 0
2, 228096, Note_on_c, 0, 71, 96
2, 228352, Note_off_c, 0, 71, 0
2, 228352, Note_on_c, 0, 72, 96
2, 229632, Note_off_c, 0, 72, 0
2, 229632, Note_on_c, 0, 69, 96
2, 229888, Note_off_c, 0, 69, 0
2, 229888, Note_on_c, 0, 71, 96
2, 230144, Note_off_c, 0, 71, 0
2, 230144, Note_on_c, 0, 72, 96
2, 230400, Note_off_c, 0, 72, 0
2, 230400, Note_on_c, 0, 74, 96
2, 230656, Note_off_c, 0, 74, 0
2, 230656, Note_on_c, 0, 72, 96
2, 230912, Note_off_c, 0, 72, 0
2, 230912, Note_on_c, 0, 74, 96
2, 231168, Note_off_c, 0, 74, 0
2, 231168, Note_on_c, 0, 76, 96
2, 231424, Note_off_c, 0, 76, 0
2, 231424, Note_on_c, 0, 78, 96
2, 231680, Note_off_c, 0, 78, 0
2, 231680, Note_on_c, 0, 79, 96
2, 231936, Note_off_c, 0, 79, 0
2, 231936, Note_on_c, 0, 81, 96
2, 232192, Note_off_c, 0, 81, 0
2, 232192, Note_on_c, 0, 78, 96
2, 232448, Note_off_c, 0, 78, 0
2, 232448, Note_on_c, 0, 74, 96
2, 232704, Note_off_c, 0, 74, 0
2, 232704, Note_on_c, 0, 79, 96
2, 232960, Note_off_c, 0, 79, 0
2, 232960, Note_on_c, 0, 81, 96
2, 233216, Note_off_c, 0, 81, 0
2, 233216, Note_on_c, 0, 83, 96
2, 233472, Note_off_c, 0, 83, 0
2, 233472, Note_on_c, 0, 72, 96
2, 233728, Note_off_c, 0, 72, 0
2, 233728, Note_on_c, 0, 71, 96
2, 233984, Note_off_c, 0, 71, 0
2, 233984, Note_on_c, 0, 69, 96
2, 234240, Note_off_c, 0, 69, 0
2, 234240, Note_on_c, 0, 71, 96
2, 234496, Note_off_c, 0, 71, 0
2, 234496, Note_on_c, 0, 72, 96
2, 234752, Note_off_c, 0, 72, 0
2, 234752, Note_on_c, 0, 74, 96
2, 235008, Note_off_c, 0, 74, 0
2, 235008, Note_on_c, 0, 76, 96
2, 235264, Note_off_c, 0, 76, 0
2, 235264, Note_on_c, 0, 74, 96
2, 235520, Note_off_c, 0, 74, 0
2, 235520, Note_on_c, 0, 72, 96
2, 235776, Note_off_c, 0, 72, 0
2, 235776, Note_on_c, 0, 71, 96
2, 236032, Note_off_c, 0, 71, 0
2, 236032, Note_on_c, 0, 69, 96
2, 236288, Note_off_c, 0, 69, 0
2, 236288, Note_on_c, 0, 67, 96
2, 236544, Note_off_c, 0, 67, 0
2, 236544, Note_on_c, 0, 74, 96
2, 238080, Note_off_c, 0, 74, 0
2, 238080, Note_on_c, 0, 67, 96
2, 238592, Note_off_c, 0, 67, 0
2, 238592, Note_on_c, 0, 72, 96
2, 239104, Note_off_c, 0, 72, 0
2, 239104, Note_on_c, 0, 71, 96
2, 239616, Note_off_c, 0, 71, 0
2, 239616, Note_on_c, 0, 72, 96
2, 240128, Note_off_c, 0, 72, 0
2, 240128, Note_on_c, 0, 67, 96
2, 240384, Note_off_c, 0, 67, 0
2, 240384, Note_on_c, 0, 69, 96
2, 240640, Note_off_c, 0, 69, 0
2, 240640, Note_on_c, 0, 71, 96
2, 240896, Note_off_c, 0, 71, 0
2, 240896, Note_on_c, 0, 72, 96
2, 241152, Note_off_c, 0, 72, 0
2, 241152, Note_on_c, 0, 74, 96
2, 241408, Note_off_c, 0, 74, 0
2, 241408, Note_on_c, 0, 72, 96
2, 241664, Note_off_c, 0, 72, 0
2, 241664, Note_on_c, 0, 71, 96
2, 241920, Note_off_c, 0, 71, 0
2, 241920, Note_on_c, 0, 69, 96
2, 242176, Note_off_c, 0, 69, 0
2, 242176, Note_on_c, 0, 71, 96
2, 242432, Note_off_c, 0, 71, 0
2, 242432, Note_on_c, 0, 73, 96
2, 242688, Note_off_c, 0, 73, 0
2, 242688, Note_on_c, 0, 74, 96
2, 243200, Note_off_c, 0, 74, 0
2, 243200, Note_on_c, 0, 73, 96
2, 243712, Note_off_c, 0, 73, 0
2, 243712, Note_on_c, 0, 74, 96
2, 244224, Note_off_c, 0, 74, 0
2, 244224, Note_on_c, 0, 69, 96
2, 244480, Note_off_c, 0, 69, 0
2, 244480, Note_on_c, 0, 71, 96
2, 244736, Note_off_c, 0, 71, 0
2, 244736, Note_on_c, 0, 72, 96
2, 244992, Note_off_c, 0, 72, 0
2, 244992, Note_on_c, 0, 74, 96
2, 245248, Note_off_c, 0, 74, 0
2, 245248, Note_on_c, 0, 76, 96
2, 245504, Note_off_c, 0, 76, 0
2, 245504, Note_on_c, 0, 74, 96
2, 245760, Note_off_c, 0, 74, 0
2, 245760, Note_on_c, 0, 72, 96
2, 246016, Note_off_c, 0, 72, 0
2, 246016, Note_on_c, 0, 71, 96
2, 246272, Note_off_c, 0, 71, 0
2, 246272, Note_on_c, 0, 73, 96
2, 246528, Note_off_c, 0, 73, 0
2, 246528, Note_on_c, 0, 75, 96
2, 246784, Note_off_c, 0, 75, 0
2, 246784, Note_on_c, 0, 76, 96
2, 247296, Note_off_c, 0, 76, 0
2, 247296, Note_on_c, 0, 75, 96
2, 247808, Note_off_c, 0, 75, 0
2, 247808, Note_on_c, 0, 76, 96
2, 248064, Note_off_c, 0, 76, 0
2, 248064, Note_on_c, 0, 78, 96
2, 248320, Note_off_c, 0, 78, 0
2, 248320, Note_on_c, 0, 79, 96
2, 248576, Note_off_c, 0, 79, 0
2, 248576, Note_on_c, 0, 78, 96
2, 248832, Note_off_c, 0, 78, 0
2, 248832, Note_on_c, 0, 76, 96
2, 249088, Note_off_c, 0, 76, 0
2, 249088, Note_on_c, 0, 74, 96
2, 249344, Note_off_c, 0, 74, 0
2, 249344, Note_on_c, 0, 73, 96
2, 249600, Note_off_c, 0, 73, 0
2, 249600, Note_on_c, 0, 71, 96
2, 249856, Note_off_c, 0, 71, 0
2, 249856, Note_on_c, 0, 69, 96
2, 250112, Note_off_c, 0, 69, 0
2, 250112, Note_on_c, 0, 73, 96
2, 250368, Note_off_c, 0, 73, 0
2, 250368, Note_on_c, 0, 74, 96
2, 250624, Note_off_c, 0, 74, 0
2, 250624, Note_on_c, 0, 76, 96
2, 250880, Note_off_c, 0, 76, 0
2, 250880, Note_on_c, 0, 78, 96
2, 251136, Note_off_c, 0, 78, 0
2, 251136, Note_on_c, 0, 79, 96
2, 251392, Note_off_c, 0, 79, 0
2, 251392, Note_on_c, 0, 81, 96
2, 251648, Note_off_c, 0, 81, 0
2, 251648, Note_on_c, 0, 79, 96
2, 251904, Note_off_c, 0, 79, 0
2, 251904, Note_on_c, 0, 78, 96
2, 252160, Note_off_c, 0, 78, 0
2, 252160, Note_on_c, 0, 79, 96
2, 252416, Note_off_c, 0, 79, 0
2, 252416, Note_on_c, 0, 78, 96
2, 252672, Note_off_c, 0, 78, 0
2, 252672, Note_on_c, 0, 76, 96
2, 252928, Note_off_c, 0, 76, 0
2, 252928, Note_on_c, 0, 76, 96
2, 253696, Note_off_c, 0, 76, 0
2, 253696, Note_on_c, 0, 74, 96
2, 253952, Note_off_c, 0, 74, 0
2, 253952, Note_on_c, 0, 74, 96
2, 255232, Note_off_c, 0, 74, 0
2, 255232, Note_on_c, 0, 71, 96
2, 255488, Note_off_c, 0, 71, 0
2, 255488, Note_on_c, 0, 67, 96
2, 255744, Note_off_c, 0, 67, 0
2, 255744, Note_on_c, 0, 64, 96
2, 256000, Note_off_c, 0, 64, 0
2, 256000, Note_on_c, 0, 73, 96
2, 257280, Note_off_c, 0, 73, 0
2, 257280, Note_on_c, 0, 69, 96
2, 257536, Note_off_c, 0, 69, 0
2, 257536, Note_on_c, 0, 74, 96
2, 257792, Note_off_c, 0, 74, 0
2, 257792, Note_on_c, 0, 78, 96
2, 258048, Note_off_c, 0, 78, 0
2, 258048, Note_on_c, 0, 79, 96
2, 258304, Note_off_c, 0, 79, 0
2, 258304, Note_on_c, 0, 78, 96
2, 258560, Note_off_c, 0, 78, 0
2, 258560, Note_on_c, 0, 76, 96
2, 258816, Note_off_c, 0, 76, 0
2, 258816, Note_on_c, 0, 78, 96
2, 259072, Note_off_c, 0, 78, 0
2, 259072, Note_on_c, 0, 79, 96
2, 259328, Note_off_c, 0, 79, 0
2, 259328, Note_on_c, 0, 81, 96
2, 259584, Note_off_c, 0, 81, 0
2, 259584, Note_on_c, 0, 83, 96
2, 259840, Note_off_c, 0, 83, 0
2, 259840, Note_on_c, 0, 81, 96
2, 260096, Note_off_c, 0, 81, 0
2, 260096, Note_on_c, 0, 79, 96
2, 260352, Note_off_c, 0, 79, 0
2, 260352, Note_on_c, 0, 78, 96
2, 260608, Note_off_c, 0, 78, 0
2, 260608, Note_on_c, 0, 76, 96
2, 260864, Note_off_c, 0, 76, 0
2, 260864, Note_on_c, 0, 74, 96
2, 261120, Note_off_c, 0, 74, 0
2, 261120, Note_on_c, 0, 81, 96
2, 262656, Note_off_c, 0, 81, 0
2, 262656, Note_on_c, 0, 74, 96
2, 263168, Note_off_c, 0, 74, 0
2, 263168, Note_on_c, 0, 79, 96
2, 263680, Note_off_c, 0, 79, 0
2, 263680, Note_on_c, 0, 78, 96
2, 264192, Note_off_c, 0, 78, 0
2, 264192, Note_on_c, 0, 79, 96
2, 264704, Note_off_c, 0, 79, 0
2, 264704, Note_on_c, 0, 74, 96
2, 264960, Note_off_c, 0, 74, 0
2, 264960, Note_on_c, 0, 76, 96
2, 265216, Note_off_c, 0, 76, 0
2, 265216, Note_on_c, 0, 78, 96
2, 265472, Note_off_c, 0, 78, 0
2, 265472, Note_on_c, 0, 79, 96
2, 265728, Note_off_c, 0, 79, 0
2, 265728, Note_on_c, 0, 81, 96
2, 265984, Note_off_c, 0, 81, 0
2, 265984, Note_on_c, 0, 79, 96
2, 266240, Note_off_c, 0, 79, 0
2, 266240, Note_on_c, 0, 78, 96
2, 266496, Note_off_c, 0, 78, 0
2, 266496, Note_on_c, 0, 76, 96
2, 266752, Note_off_c, 0, 76, 0
2, 266752, Note_on_c, 0, 78, 96
2, 267008, Note_off_c, 0, 78, 0
2, 267008, Note_on_c, 0, 80, 96
2, 267264, Note_off_c, 0, 80, 0
2, 267264, Note_on_c, 0, 81, 96
2, 267776, Note_off_c, 0, 81, 0
2, 267776, Note_on_c, 0, 80, 96
2, 268288, Note_off_c, 0, 80, 0
2, 268288, Note_on_c, 0, 81, 96
2, 268800, Note_off_c, 0, 81, 0
2, 268800, Note_on_c, 0, 76, 96
2, 269056, Note_off_c, 0, 76, 0
2, 269056, Note_on_c, 0, 78, 96
2, 269312, Note_off_c, 0, 78, 0
2, 269312, Note_on_c, 0, 79, 96
2, 269568, Note_off_c, 0, 79, 0
2, 269568, Note_on_c, 0, 81, 96
2, 269824, Note_off_c, 0, 81, 0
2, 269824, Note_on_c, 0, 83, 96
2, 270080, Note_off_c, 0, 83, 0
2, 270080, Note_on_c, 0, 81, 96
2, 270336, Note_off_c, 0, 81, 0
2, 270336, Note_on_c, 0, 79, 96
2, 270592, Note_off_c, 0, 79, 0
2, 270592, Note_on_c, 0, 78, 96
2, 270848, Note_off_c, 0, 78, 0
2, 270848, Note_on_c, 0, 79, 96
2, 271104, Note_off_c, 0, 79, 0
2, 271104, Note_on_c, 0, 81, 96
2, 271360, Note_off_c, 0, 81, 0
2, 271360, Note_on_c, 0, 83, 96
2, 271872, Note_off_c, 0, 83, 0
2, 271872, Note_on_c, 0, 81, 96
2, 272640, Note_off_c, 0, 81, 0
2, 272640, Note_on_c, 0, 78, 96
2, 272896, Note_off_c, 0, 78, 0
2, 272896, Note_on_c, 0, 79, 96
2, 273152, Note_off_c, 0, 79, 0
2, 273152, Note_on_c, 0, 76, 96
2, 273408, Note_off_c, 0, 76, 0
2, 273408, Note_on_c, 0, 74, 96
2, 274176, Note_off_c, 0, 74, 0
2, 274176, Note_on_c, 0, 76, 96
2, 274432, Note_off_c, 0, 76, 0
2, 274432, Note_on_c, 0, 76, 96
2, 274688, Note_off_c, 0, 76, 0
2, 274688, Note_on_c, 0, 66, 96
2, 274944, Note_off_c, 0, 66, 0
2, 274944, Note_on_c, 0, 67, 96
2, 275200, Note_off_c, 0, 67, 0
2, 275200, Note_on_c, 0, 69, 96
2, 275456, Note_off_c, 0, 69, 0
2, 275456, Note_on_c, 0, 71, 96
2, 275712, Note_off_c, 0, 71, 0
2, 275712, Note_on_c, 0, 72, 96
2, 275968, Note_off_c, 0, 72, 0
2, 275968, Note_on_c, 0, 74, 96
2, 276224, Note_off_c, 0, 74, 0
2, 276224, Note_on_c, 0, 76, 96
2, 276480, Note_off_c, 0, 76, 0
2, 276480, Note_on_c, 0, 78, 96
2, 276736, Note_off_c, 0, 78, 0
2, 276736, Note_on_c, 0, 79, 96
2, 276992, Note_off_c, 0, 79, 0
2, 276992, Note_on_c, 0, 81, 96
2, 277248, Note_off_c, 0, 81, 0
2, 277248, Note_on_c, 0, 78, 96
2, 277504, Note_off_c, 0, 78, 0
2, 277504, Note_on_c, 0, 74, 96
2, 277760, Note_off_c, 0, 74, 0
2, 277760, Note_on_c, 0, 79, 96
2, 278016, Note_off_c, 0, 79, 0
2, 278016, Note_on_c, 0, 81, 96
2, 278272, Note_off_c, 0, 81, 0
2, 278272, Note_on_c, 0, 83, 96
2, 278528, Note_off_c, 0, 83, 0
2, 278528, Note_on_c, 0, 72, 96
2, 278784, Note_off_c, 0, 72, 0
2, 278784, Note_on_c, 0, 71, 96
2, 279040, Note_off_c, 0, 71, 0
2, 279040, Note_on_c, 0, 69, 96
2, 279296, Note_off_c, 0, 69, 0
2, 279296, Note_on_c, 0, 71, 96
2, 279552, Note_off_c, 0, 71, 0
2, 279552, Note_on_c, 0, 72, 96
2, 279808, Note_off_c, 0, 72, 0
2, 279808, Note_on_c, 0, 74, 96
2, 280064, Note_off_c, 0, 74, 0
2, 280064, Note_on_c, 0, 76, 96
2, 280320, Note_off_c, 0, 76, 0
2, 280320, Note_on_c, 0, 74, 96
2, 280576, Note_off_c, 0, 74, 0
2, 280576, Note_on_c, 0, 72, 96
2, 280832, Note_off_c, 0, 72, 0
2, 280832, Note_on_c, 0, 71, 96
2, 281088, Note_off_c, 0, 71, 0
2, 281088, Note_on_c, 0, 69, 96
2, 281344, Note_off_c, 0, 69, 0
2, 281344, Note_on_c, 0, 67, 96
2, 281600, Note_off_c, 0, 67, 0
2, 281600, Note_on_c, 0, 74, 96
2, 283136, Note_off_c, 0, 74, 0
2, 283136, Note_on_c, 0, 67, 96
2, 283648, Note_off_c, 0, 67, 0
2, 283648, Note_on_c, 0, 72, 96
2, 284160, Note_off_c, 0, 72, 0
2, 284160, Note_on_c, 0, 71, 96
2, 284672, Note_off_c, 0, 71, 0
2, 284672, Note_on_c, 0, 72, 96
2, 284928, Note_off_c, 0, 72, 0
2, 284928, Note_on_c, 0, 71, 96
2, 285184, Note_off_c, 0, 71, 0
2, 285184, Note_on_c, 0, 72, 96
2, 285440, Note_off_c, 0, 72, 0
2, 285440, Note_on_c, 0, 74, 96
2, 285696, Note_off_c, 0, 74, 0
2, 285696, Note_on_c, 0, 76, 96
2, 285952, Note_off_c, 0, 76, 0
2, 285952, Note_on_c, 0, 77, 96
2, 286208, Note_off_c, 0, 77, 0
2, 286208, Note_on_c, 0, 79, 96
2, 286464, Note_off_c, 0, 79, 0
2, 286464, Note_on_c, 0, 78, 96
2, 286720, Note_off_c, 0, 78, 0
2, 286720, Note_on_c, 0, 76, 96
2, 287232, Note_off_c, 0, 76, 0
2, 287232, Note_on_c, 0, 79, 96
2, 287744, Note_off_c, 0, 79, 0
2, 287744, Note_on_c, 0, 84, 96
2, 288256, Note_off_c, 0, 84, 0
2, 288256, Note_on_c, 0, 83, 96
2, 288768, Note_off_c, 0, 83, 0
2, 288768, Note_on_c, 0, 84, 96
2, 289280, Note_off_c, 0, 84, 0
2, 289280, Note_on_c, 0, 79, 96
2, 289792, Note_off_c, 0, 79, 0
2, 290304, Note_on_c, 0, 71, 96
2, 290816, Note_off_c, 0, 71, 0
2, 290816, Note_on_c, 0, 72, 96
2, 291328, Note_off_c, 0, 72, 0
2, 291328, Note_on_c, 0, 76, 96
2, 291840, Note_off_c, 0, 76, 0
2, 291840, Note_on_c, 0, 74, 96
2, 292352, Note_off_c, 0, 74, 0
2, 292352, Note_on_c, 0, 71, 96
2, 292864, Note_off_c, 0, 71, 0
2, 292864, Note_on_c, 0, 72, 96
2, 293120, Note_off_c, 0, 72, 0
2, 293120, Note_on_c, 0, 74, 96
2, 293376, Note_off_c, 0, 74, 0
2, 293376, Note_on_c, 0, 76, 96
2, 293632, Note_off_c, 0, 76, 0
2, 293632, Note_on_c, 0, 77, 96
2, 293888, Note_off_c, 0, 77, 0
2, 293888, Note_on_c, 0, 79, 96
2, 294144, Note_off_c, 0, 79, 0
2, 294144, Note_on_c, 0, 81, 96
2, 294400, Note_off_c, 0, 81, 0
2, 294400, Note_on_c, 0, 79, 96
2, 294656, Note_off_c, 0, 79, 0
2, 294656, Note_on_c, 0, 81, 96
2, 294912, Note_off_c, 0, 81, 0
2, 294912, Note_on_c, 0, 79, 96
2, 295168, Note_off_c, 0, 79, 0
2, 295168, Note_on_c, 0, 77, 96
2, 295424, Note_off_c, 0, 77, 0
2, 295424, Note_on_c, 0, 79, 96
2, 295680, Note_off_c, 0, 79, 0
2, 295680, Note_on_c, 0, 84, 96
2, 295936, Note_off_c, 0, 84, 0
2, 295936, Note_on_c, 0, 83, 96
2, 296192, Note_off_c, 0, 83, 0
2, 296192, Note_on_c, 0, 81, 96
2, 296448, Note_off_c, 0, 81, 0
2, 296448, Note_on_c, 0, 79, 96
2, 296704, Note_off_c, 0, 79, 0
2, 296704, Note_on_c, 0, 78, 96
2, 296960, Note_off_c, 0, 78, 0
2, 296960, Note_on_c, 0, 79, 96
2, 300032, Note_off_c, 0, 79, 0
2, 300032, End_track
3, 0, Start_track
3, 0, Title_t, "Instrument 2"
3, 2560, Note_on_c, 1, 67, 96
3, 2816, Note_off_c, 1, 67, 0
3, 2816, Note_on_c, 1, 69, 96
3, 3072, Note_off_c, 1, 69, 0
3, 3072, Note_on_c, 1, 71, 96
3, 3328, Note_off_c, 1, 71, 0
3, 3328, Note_on_c, 1, 72, 96
3, 3584, Note_off_c, 1, 72, 0
3, 3584, Note_on_c, 1, 74, 96
3, 3840, Note_off_c, 1, 74, 0
3, 3840, Note_on_c, 1, 72, 96
3, 4096, Note_off_c, 1, 72, 0
3, 4096, Note_on_c, 1, 71, 96
3, 4608, Note_off_c, 1, 71, 0
3, 4608, Note_on_c, 1, 74, 96
3, 5120, Note_off_c, 1, 74, 0
3, 5120, Note_on_c, 1, 79, 96
3, 5632, Note_off_c, 1, 79, 0
3, 5632, Note_on_c, 1, 78, 96
3, 6144, Note_off_c, 1, 78, 0
3, 6144, Note_on_c, 1, 79, 96
3, 6656, Note_off_c, 1, 79, 0
3, 6656, Note_on_c, 1, 83, 96
3, 7168, Note_off_c, 1, 83, 0
3, 7168, Note_on_c, 1, 81, 96
3, 7680, Note_off_c, 1, 81, 0
3, 7680, Note_on_c, 1, 78, 96
3, 8192, Note_off_c, 1, 78, 0
3, 8192, Note_on_c, 1, 79, 96
3, 8704, Note_off_c, 1, 79, 0
3, 8704, Note_on_c, 1, 71, 96
3, 8960, Note_off_c, 1, 71, 0
3, 8960, Note_on_c, 1, 72, 96
3, 9216, Note_off_c, 1, 72, 0
3, 9216, Note_on_c, 1, 74, 96
3, 9472, Note_off_c, 1, 74, 0
3, 9472, Note_on_c, 1, 76, 96
3, 9728, Note_off_c, 1, 76, 0
3, 9728, Note_on_c, 1, 74, 96
3, 9984, Note_off_c, 1, 74, 0
3, 9984, Note_on_c, 1, 76, 96
3, 10240, Note_off_c, 1, 76, 0
3, 10240, Note_on_c, 1, 74, 96
3, 10496, Note_off_c, 1, 74, 0
3, 10496, Note_on_c, 1, 72, 96
3, 10752, Note_off_c, 1, 72, 0
3, 10752, Note_on_c, 1, 74, 96
3, 11008, Note_off_c, 1, 74, 0
3, 11008, Note_on_c, 1, 79, 96
3, 11264, Note_off_c, 1, 79, 0
3, 11264, Note_on_c, 1, 78, 96
3, 11520, Note_off_c, 1, 78, 0
3, 11520, Note_on_c, 1, 76, 96
3, 11776, Note_off_c, 1, 76, 0
3, 11776, Note_on_c, 1, 74, 96
3, 12032, Note_off_c, 1, 74, 0
3, 12032, Note_on_c, 1, 72, 96
3, 12288, Note_off_c, 1, 72, 0
3, 12288, Note_on_c, 1, 71, 96
3, 12800, Note_off_c, 1, 71, 0
3, 12800, Note_on_c, 1, 76, 96
3, 13056, Note_off_c, 1, 76, 0
3, 13056, Note_on_c, 1, 75, 96
3, 13312, Note_off_c, 1, 75, 0
3, 13312, Note_on_c, 1, 76, 96
3, 14848, Note_off_c, 1, 76, 0
3, 14848, Note_on_c, 1, 69, 96
3, 15360, Note_off_c, 1, 69, 0
3, 15360, Note_on_c, 1, 74, 96
3, 17152, Note_off_c, 1, 74, 0
3, 17152, Note_on_c, 1, 76, 96
3, 17408, Note_off_c, 1, 76, 0
3, 17408, Note_on_c, 1, 73, 96
3, 18176, Note_off_c, 1, 73, 0
3, 18176, Note_on_c, 1, 74, 96
3, 18432, Note_off_c, 1, 74, 0
3, 18432, Note_on_c, 1, 74, 96
3, 20736, Note_off_c, 1, 74, 0
3, 20736, Note_on_c, 1, 72, 96
3, 20992, Note_off_c, 1, 72, 0
3, 20992, Note_on_c, 1, 71, 96
3, 21248, Note_off_c, 1, 71, 0
3, 21248, Note_on_c, 1, 69, 96
3, 21504, Note_off_c, 1, 69, 0
3, 21504, Note_on_c, 1, 67, 96
3, 21760, Note_off_c, 1, 67, 0
3, 21760, Note_on_c, 1, 71, 96
3, 22016, Note_off_c, 1, 71, 0
3, 22016, Note_on_c, 1, 69, 96
3, 22272, Note_off_c, 1, 69, 0
3, 22272, Note_on_c, 1, 72, 96
3, 22528, Note_off_c, 1, 72, 0
3, 22528, Note_on_c, 1, 71, 96
3, 22784, Note_off_c, 1, 71, 0
3, 22784, Note_on_c, 1, 69, 96
3, 23040, Note_off_c, 1, 69, 0
3, 23040, Note_on_c, 1, 67, 96
3, 23296, Note_off_c, 1, 67, 0
3, 23296, Note_on_c, 1, 66, 96
3, 23552, Note_off_c, 1, 66, 0
3, 23552, Note_on_c, 1, 64, 96
3, 23808, Note_off_c, 1, 64, 0
3, 23808, Note_on_c, 1, 69, 96
3, 24064, Note_off_c, 1, 69, 0
3, 24064, Note_on_c, 1, 67, 96
3, 24320, Note_off_c, 1, 67, 0
3, 24320, Note_on_c, 1, 69, 96
3, 24576, Note_off_c, 1, 69, 0
3, 24576, Note_on_c, 1, 66, 96
3, 25088, Note_off_c, 1, 66, 0
3, 25088, Note_on_c, 1, 62, 96
3, 25344, Note_off_c, 1, 62, 0
3, 25344, Note_on_c, 1, 64, 96
3, 25600, Note_off_c, 1, 64, 0
3, 25600, Note_on_c, 1, 66, 96
3, 25856, Note_off_c, 1, 66, 0
3, 25856, Note_on_c, 1, 67, 96
3, 26112, Note_off_c, 1, 67, 0
3, 26112, Note_on_c, 1, 69, 96
3, 26368, Note_off_c, 1, 69, 0
3, 26368, Note_on_c, 1, 67, 96
3, 26624, Note_off_c, 1, 67, 0
3, 26624, Note_on_c, 1, 66, 96
3, 27136, Note_off_c, 1, 66, 0
3, 27136, Note_on_c, 1, 69, 96
3, 27648, Note_off_c, 1, 69, 0
3, 27648, Note_on_c, 1, 74, 96
3, 28160, Note_off_c, 1, 74, 0
3, 28160, Note_on_c, 1, 73, 96
3, 28672, Note_off_c, 1, 73, 0
3, 28672, Note_on_c, 1, 74, 96
3, 29184, Note_off_c, 1, 74, 0
3, 29184, Note_on_c, 1, 66, 96
3, 29440, Note_off_c, 1, 66, 0
3, 29440, Note_on_c, 1, 67, 96
3, 29696, Note_off_c, 1, 67, 0
3, 29696, Note_on_c, 1, 69, 96
3, 29952, Note_off_c, 1, 69, 0
3, 29952, Note_on_c, 1, 71, 96
3, 30208, Note_off_c, 1, 71, 0
3, 30208, Note_on_c, 1, 69, 96
3, 30464, Note_off_c, 1, 69, 0
3, 30464, Note_on_c, 1, 71, 96
3, 30720, Note_off_c, 1, 71, 0
3, 30720, Note_on_c, 1, 69, 96
3, 30976, Note_off_c, 1, 69, 0
3, 30976, Note_on_c, 1, 67, 96
3, 31232, Note_off_c, 1, 67, 0
3, 31232, Note_on_c, 1, 69, 96
3, 31488, Note_off_c, 1, 69, 0
3, 31488, Note_on_c, 1, 74, 96
3, 31744, Note_off_c, 1, 74, 0
3, 31744, Note_on_c, 1, 73, 96
3, 32000, Note_off_c, 1, 73, 0
3, 32000, Note_on_c, 1, 71, 96
3, 32256, Note_off_c, 1, 71, 0
3, 32256, Note_on_c, 1, 69, 96
3, 32512, Note_off_c, 1, 69, 0
3, 32512, Note_on_c, 1, 67, 96
3, 32768, Note_off_c, 1, 67, 0
3, 32768, Note_on_c, 1, 66, 96
3, 33280, Note_off_c, 1, 66, 0
3, 33280, Note_on_c, 1, 69, 96
3, 33792, Note_off_c, 1, 69, 0
3, 33792, Note_on_c, 1, 74, 96
3, 34304, Note_off_c, 1, 74, 0
3, 34304, Note_on_c, 1, 73, 96
3, 34816, Note_off_c, 1, 73, 0
3, 34816, Note_on_c, 1, 74, 96
3, 35328, Note_off_c, 1, 74, 0
3, 35328, Note_on_c, 1, 78, 96
3, 35840, Note_off_c, 1, 78, 0
3, 35840, Note_on_c, 1, 76, 96
3, 36352, Note_off_c, 1, 76, 0
3, 36352, Note_on_c, 1, 73, 96
3, 36864, Note_off_c, 1, 73, 0
3, 36864, Note_on_c, 1, 74, 96
3, 37120, Note_off_c, 1, 74, 0
3, 37120, Note_on_c, 1, 76, 96
3, 37376, Note_off_c, 1, 76, 0
3, 37376, Note_on_c, 1, 78, 96
3, 37632, Note_off_c, 1, 78, 0
3, 37632, Note_on_c, 1, 74, 96
3, 37888, Note_off_c, 1, 74, 0
3, 37888, Note_on_c, 1, 71, 96
3, 38144, Note_off_c, 1, 71, 0
3, 38144, Note_on_c, 1, 74, 96
3, 38400, Note_off_c, 1, 74, 0
3, 38400, Note_on_c, 1, 73, 96
3, 38656, Note_off_c, 1, 73, 0
3, 38656, Note_on_c, 1, 71, 96
3, 38912, Note_off_c, 1, 71, 0
3, 38912, Note_on_c, 1, 76, 96
3, 39168, Note_off_c, 1, 76, 0
3, 39168, Note_on_c, 1, 74, 96
3, 39424, Note_off_c, 1, 74, 0
3, 39424, Note_on_c, 1, 73, 96
3, 39680, Note_off_c, 1, 73, 0
3, 39680, Note_on_c, 1, 74, 96
3, 39936, Note_off_c, 1, 74, 0
3, 39936, Note_on_c, 1, 76, 96
3, 40192, Note_off_c, 1, 76, 0
3, 40192, Note_on_c, 1, 71, 96
3, 40448, Note_off_c, 1, 71, 0
3, 40448, Note_on_c, 1, 73, 96
3, 40704, Note_off_c, 1, 73, 0
3, 40704, Note_on_c, 1, 69, 96
3, 40960, Note_off_c, 1, 69, 0
3, 40960, Note_on_c, 1, 74, 96
3, 41216, Note_off_c, 1, 74, 0
3, 41216, Note_on_c, 1, 73, 96
3, 41472, Note_off_c, 1, 73, 0
3, 41472, Note_on_c, 1, 74, 96
3, 42240, Note_off_c, 1, 74, 0
3, 42240, Note_on_c, 1, 78, 96
3, 42496, Note_off_c, 1, 78, 0
3, 42496, Note_on_c, 1, 76, 96
3, 42752, Note_off_c, 1, 76, 0
3, 42752, Note_on_c, 1, 74, 96
3, 43008, Note_off_c, 1, 74, 0
3, 43008, Note_on_c, 1, 73, 96
3, 43520, Note_off_c, 1, 73, 0
3, 43520, Note_on_c, 1, 64, 96
3, 44032, Note_off_c, 1, 64, 0
3, 44032, Note_on_c, 1, 69, 96
3, 44544, Note_off_c, 1, 69, 0
3, 44544, Note_on_c, 1, 73, 96
3, 45056, Note_off_c, 1, 73, 0
3, 45056, Note_on_c, 1, 71, 96
3, 45312, Note_off_c, 1, 71, 0
3, 45312, Note_on_c, 1, 67, 96
3, 45568, Note_off_c, 1, 67, 0
3, 45568, Note_on_c, 1, 64, 96
3, 45824, Note_off_c, 1, 64, 0
3, 45824, Note_on_c, 1, 66, 96
3, 46080, Note_off_c, 1, 66, 0
3, 46080, Note_on_c, 1, 67, 96
3, 46336, Note_off_c, 1, 67, 0
3, 46336, Note_on_c, 1, 69, 96
3, 46592, Note_off_c, 1, 69, 0
3, 46592, Note_on_c, 1, 71, 96
3, 46848, Note_off_c, 1, 71, 0
3, 46848, Note_on_c, 1, 73, 96
3, 47104, Note_off_c, 1, 73, 0
3, 47104, Note_on_c, 1, 74, 96
3, 47616, Note_off_c, 1, 74, 0
3, 47616, Note_on_c, 1, 66, 96
3, 48128, Note_off_c, 1, 66, 0
3, 48128, Note_on_c, 1, 71, 96
3, 48640, Note_off_c, 1, 71, 0
3, 48640, Note_on_c, 1, 74, 96
3, 49152, Note_off_c, 1, 74, 0
3, 49152, Note_on_c, 1, 73, 96
3, 49664, Note_off_c, 1, 73, 0
3, 49664, Note_on_c, 1, 69, 96
3, 50176, Note_off_c, 1, 69, 0
3, 50176, Note_on_c, 1, 66, 96
3, 50688, Note_off_c, 1, 66, 0
3, 50688, Note_on_c, 1, 74, 96
3, 51200, Note_off_c, 1, 74, 0
3, 51200, Note_on_c, 1, 71, 96
3, 51712, Note_off_c, 1, 71, 0
3, 51712, Note_on_c, 1, 67, 96
3, 52224, Note_off_c, 1, 67, 0
3, 52224, Note_on_c, 1, 64, 96
3, 52736, Note_off_c, 1, 64, 0
3, 52736, Note_on_c, 1, 73, 96
3, 53248, Note_off_c, 1, 73, 0
3, 53248, Note_on_c, 1, 69, 96
3, 53760, Note_off_c, 1, 69, 0
3, 53760, Note_on_c, 1, 66, 96
3, 54272, Note_off_c, 1, 66, 0
3, 54272, Note_on_c, 1, 62, 96
3, 54784, Note_off_c, 1, 62, 0
3, 54784, Note_on_c, 1, 71, 96
3, 55296, Note_off_c, 1, 71, 0
3, 55296, Note_on_c, 1, 69, 96
3, 56064, Note_off_c, 1, 69, 0
3, 56064, Note_on_c, 1, 67, 96
3, 56320, Note_off_c, 1, 67, 0
3, 56320, Note_on_c, 1, 66, 96
3, 56832, Note_off_c, 1, 66, 0
3, 56832, Note_on_c, 1, 64, 96
3, 57088, Note_off_c, 1, 64, 0
3, 57088, Note_on_c, 1, 62, 96
3, 57344, Note_off_c, 1, 62, 0
3, 57344, Note_on_c, 1, 62, 96
3, 57600, Note_off_c, 1, 62, 0
3, 57600, Note_on_c, 1, 57, 96
3, 57856, Note_off_c, 1, 57, 0
3, 57856, Note_on_c, 1, 62, 96
3, 58112, Note_off_c, 1, 62, 0
3, 58112, Note_on_c, 1, 64, 96
3, 58368, Note_off_c, 1, 64, 0
3, 58368, Note_on_c, 1, 66, 96
3, 58624, Note_off_c, 1, 66, 0
3, 58624, Note_on_c, 1, 67, 96
3, 58880, Note_off_c, 1, 67, 0
3, 58880, Note_on_c, 1, 69, 96
3, 59136, Note_off_c, 1, 69, 0
3, 59136, Note_on_c, 1, 67, 96
3, 59392, Note_off_c, 1, 67, 0
3, 59392, Note_on_c, 1, 66, 96
3, 59904, Note_off_c, 1, 66, 0
3, 59904, Note_on_c, 1, 69, 96
3, 60416, Note_off_c, 1, 69, 0
3, 60416, Note_on_c, 1, 74, 96
3, 60928, Note_off_c, 1, 74, 0
3, 60928, Note_on_c, 1, 68, 96
3, 61440, Note_off_c, 1, 68, 0
3, 61440, Note_on_c, 1, 69, 96
3, 61952, Note_off_c, 1, 69, 0
3, 61952, Note_on_c, 1, 64, 96
3, 62464, Note_off_c, 1, 64, 0
3, 62464, Note_on_c, 1, 69, 96
3, 62976, Note_off_c, 1, 69, 0
3, 62976, Note_on_c, 1, 68, 96
3, 63488, Note_off_c, 1, 68, 0
3, 63488, Note_on_c, 1, 69, 96
3, 63744, Note_off_c, 1, 69, 0
3, 63744, Note_on_c, 1, 64, 96
3, 64000, Note_off_c, 1, 64, 0
3, 64000, Note_on_c, 1, 57, 96
3, 64256, Note_off_c, 1, 57, 0
3, 64256, Note_on_c, 1, 59, 96
3, 64512, Note_off_c, 1, 59, 0
3, 64512, Note_on_c, 1, 61, 96
3, 64768, Note_off_c, 1, 61, 0
3, 64768, Note_on_c, 1, 63, 96
3, 65024, Note_off_c, 1, 63, 0
3, 65024, Note_on_c, 1, 64, 96
3, 65280, Note_off_c, 1, 64, 0
3, 65280, Note_on_c, 1, 66, 96
3, 65536, Note_off_c, 1, 66, 0
3, 65536, Note_on_c, 1, 67, 96
3, 66048, Note_off_c, 1, 67, 0
3, 66048, Note_on_c, 1, 59, 96
3, 66560, Note_off_c, 1, 59, 0
3, 66560, Note_on_c, 1, 64, 96
3, 67072, Note_off_c, 1, 64, 0
3, 67072, Note_on_c, 1, 63, 96
3, 67584, Note_off_c, 1, 63, 0
3, 67584, Note_on_c, 1, 64, 96
3, 67840, Note_off_c, 1, 64, 0
3, 67840, Note_on_c, 1, 59, 96
3, 68096, Note_off_c, 1, 59, 0
3, 68096, Note_on_c, 1, 64, 96
3, 68352, Note_off_c, 1, 64, 0
3, 68352, Note_on_c, 1, 66, 96
3, 68608, Note_off_c, 1, 66, 0
3, 68608, Note_on_c, 1, 67, 96
3, 68864, Note_off_c, 1, 67, 0
3, 68864, Note_on_c, 1, 69, 96
3, 69120, Note_off_c, 1, 69, 0
3, 69120, Note_on_c, 1, 71, 96
3, 69376, Note_off_c, 1, 71, 0
3, 69376, Note_on_c, 1, 69, 96
3, 69632, Note_off_c, 1, 69, 0
3, 69632, Note_on_c, 1, 67, 96
3, 70144, Note_off_c, 1, 67, 0
3, 70144, Note_on_c, 1, 71, 96
3, 70656, Note_off_c, 1, 71, 0
3, 70656, Note_on_c, 1, 76, 96
3, 71168, Note_off_c, 1, 76, 0
3, 71168, Note_on_c, 1, 75, 96
3, 71680, Note_off_c, 1, 75, 0
3, 71680, Note_on_c, 1, 76, 96
3, 72192, Note_off_c, 1, 76, 0
3, 72192, Note_on_c, 1, 79, 96
3, 72704, Note_off_c, 1, 79, 0
3, 72704, Note_on_c, 1, 78, 96
3, 73216, Note_off_c, 1, 78, 0
3, 73216, Note_on_c, 1, 75, 96
3, 73728, Note_off_c, 1, 75, 0
3, 73728, Note_on_c, 1, 76, 96
3, 73984, Note_off_c, 1, 76, 0
3, 73984, Note_on_c, 1, 66, 96
3, 74240, Note_off_c, 1, 66, 0
3, 74240, Note_on_c, 1, 67, 96
3, 74496, Note_off_c, 1, 67, 0
3, 74496, Note_on_c, 1, 69, 96
3, 74752, Note_off_c, 1, 69, 0
3, 74752, Note_on_c, 1, 71, 96
3, 75008, Note_off_c, 1, 71, 0
3, 75008, Note_on_c, 1, 72, 96
3, 75264, Note_off_c, 1, 72, 0
3, 75264, Note_on_c, 1, 71, 96
3, 75520, Note_off_c, 1, 71, 0
3, 75520, Note_on_c, 1, 72, 96
3, 75776, Note_off_c, 1, 72, 0
3, 75776, Note_on_c, 1, 71, 96
3, 76032, Note_off_c, 1, 71, 0
3, 76032, Note_on_c, 1, 69, 96
3, 76288, Note_off_c, 1, 69, 0
3, 76288, Note_on_c, 1, 71, 96
3, 76544, Note_off_c, 1, 71, 0
3, 76544, Note_on_c, 1, 76, 96
3, 76800, Note_off_c, 1, 76, 0
3, 76800, Note_on_c, 1, 75, 96
3, 77056, Note_off_c, 1, 75, 0
3, 77056, Note_on_c, 1, 73, 96
3, 77312, Note_off_c, 1, 73, 0
3, 77312, Note_on_c, 1, 71, 96
3, 77568, Note_off_c, 1, 71, 0
3, 77568, Note_on_c, 1, 69, 96
3, 77824, Note_off_c, 1, 69, 0
3, 77824, Note_on_c, 1, 67, 96
3, 78336, Note_off_c, 1, 67, 0
3, 78336, Note_on_c, 1, 64, 96
3, 78848, Note_off_c, 1, 64, 0
3, 78848, Note_on_c, 1, 71, 96
3, 80384, Note_off_c, 1, 71, 0
3, 80384, Note_on_c, 1, 69, 96
3, 80640, Note_off_c, 1, 69, 0
3, 80640, Note_on_c, 1, 67, 96
3, 80896, Note_off_c, 1, 67, 0
3, 80896, Note_on_c, 1, 69, 96
3, 82432, Note_off_c, 1, 69, 0
3, 82432, Note_on_c, 1, 67, 96
3, 82688, Note_off_c, 1, 67, 0
3, 82688, Note_on_c, 1, 66, 96
3, 82944, Note_off_c, 1, 66, 0
3, 82944, Note_on_c, 1, 67, 96
3, 83200, Note_off_c, 1, 67, 0
3, 83200, Note_on_c, 1, 69, 96
3, 83456, Note_off_c, 1, 69, 0
3, 83456, Note_on_c, 1, 67, 96
3, 83712, Note_off_c, 1, 67, 0
3, 83712, Note_on_c, 1, 71, 96
3, 83968, Note_off_c, 1, 71, 0
3, 83968, Note_on_c, 1, 72, 96
3, 84224, Note_off_c, 1, 72, 0
3, 84224, Note_on_c, 1, 69, 96
3, 84480, Note_off_c, 1, 69, 0
3, 84480, Note_on_c, 1, 71, 96
3, 84736, Note_off_c, 1, 71, 0
3, 84736, Note_on_c, 1, 72, 96
3, 84992, Note_off_c, 1, 72, 0
3, 84992, Note_on_c, 1, 66, 96
3, 85248, Note_off_c, 1, 66, 0
3, 85248, Note_on_c, 1, 71, 96
3, 85504, Note_off_c, 1, 71, 0
3, 85504, Note_on_c, 1, 69, 96
3, 85760, Note_off_c, 1, 69, 0
3, 85760, Note_on_c, 1, 71, 96
3, 86016, Note_off_c, 1, 71, 0
3, 86016, Note_on_c, 1, 67, 96
3, 86528, Note_off_c, 1, 67, 0
3, 86528, Note_on_c, 1, 64, 96
3, 87040, Note_off_c, 1, 64, 0
3, 88576, Note_on_c, 1, 73, 96
3, 88832, Note_off_c, 1, 73, 0
3, 88832, Note_on_c, 1, 71, 96
3, 89088, Note_off_c, 1, 71, 0
3, 89088, Note_on_c, 1, 69, 96
3, 89344, Note_off_c, 1, 69, 0
3, 89344, Note_on_c, 1, 67, 96
3, 89600, Note_off_c, 1, 67, 0
3, 89600, Note_on_c, 1, 66, 96
3, 89856, Note_off_c, 1, 66, 0
3, 89856, Note_on_c, 1, 64, 96
3, 90112, Note_off_c, 1, 64, 0
3, 90112, Note_on_c, 1, 62, 96
3, 90624, Note_off_c, 1, 62, 0
3, 90624, Note_on_c, 1, 69, 96
3, 91136, Note_off_c, 1, 69, 0
3, 91136, Note_on_c, 1, 66, 96
3, 91648, Note_off_c, 1, 66, 0
3, 91648, Note_on_c, 1, 62, 96
3, 92160, Note_off_c, 1, 62, 0
3, 92672, Note_on_c, 1, 71, 96
3, 92928, Note_off_c, 1, 71, 0
3, 92928, Note_on_c, 1, 69, 96
3, 93184, Note_off_c, 1, 69, 0
3, 93184, Note_on_c, 1, 67, 96
3, 93440, Note_off_c, 1, 67, 0
3, 93440, Note_on_c, 1, 66, 96
3, 93696, Note_off_c, 1, 66, 0
3, 93696, Note_on_c, 1, 64, 96
3, 93952, Note_off_c, 1, 64, 0
3, 93952, Note_on_c, 1, 62, 96
3, 94208, Note_off_c, 1, 62, 0
3, 94208, Note_on_c, 1, 61, 96
3, 94720, Note_off_c, 1, 61, 0
3, 94720, Note_on_c, 1, 67, 96
3, 95232, Note_off_c, 1, 67, 0
3, 95232, Note_on_c, 1, 64, 96
3, 95744, Note_off_c, 1, 64, 0
3, 95744, Note_on_c, 1, 61, 96
3, 96256, Note_off_c, 1, 61, 0
3, 96768, Note_on_c, 1, 70, 96
3, 97024, Note_off_c, 1, 70, 0
3, 97024, Note_on_c, 1, 68, 96
3, 97280, Note_off_c, 1, 68, 0
3, 97280, Note_on_c, 1, 66, 96
3, 97536, Note_off_c, 1, 66, 0
3, 97536, Note_on_c, 1, 64, 96
3, 97792, Note_off_c, 1, 64, 0
3, 97792, Note_on_c, 1, 62, 96
3, 98048, Note_off_c, 1, 62, 0
3, 98048, Note_on_c, 1, 60, 96
3, 98304, Note_off_c, 1, 60, 0
3, 98304, Note_on_c, 1, 59, 96
3, 98816, Note_off_c, 1, 59, 0
3, 98816, Note_on_c, 1, 66, 96
3, 99328, Note_off_c, 1, 66, 0
3, 99328, Note_on_c, 1, 62, 96
3, 99840, Note_off_c, 1, 62, 0
3, 99840, Note_on_c, 1, 71, 96
3, 100352, Note_off_c, 1, 71, 0
3, 100352, Note_on_c, 1, 67, 96
3, 100864, Note_off_c, 1, 67, 0
3, 100864, Note_on_c, 1, 64, 96
3, 101376, Note_off_c, 1, 64, 0
3, 101376, Note_on_c, 1, 61, 96
3, 101888, Note_off_c, 1, 61, 0
3, 101888, Note_on_c, 1, 70, 96
3, 102400, Note_off_c, 1, 70, 0
3, 102400, Note_on_c, 1, 66, 96
3, 102912, Note_off_c, 1, 66, 0
3, 102912, Note_on_c, 1, 62, 96
3, 103424, Note_off_c, 1, 62, 0
3, 103424, Note_on_c, 1, 59, 96
3, 103936, Note_off_c, 1, 59, 0
3, 103936, Note_on_c, 1, 67, 96
3, 104448, Note_off_c, 1, 67, 0
3, 104448, Note_on_c, 1, 66, 96
3, 105216, Note_off_c, 1, 66, 0
3, 105216, Note_on_c, 1, 64, 96
3, 105472, Note_off_c, 1, 64, 0
3, 105472, Note_on_c, 1, 62, 96
3, 105984, Note_off_c, 1, 62, 0
3, 105984, Note_on_c, 1, 61, 96
3, 106240, Note_off_c, 1, 61, 0
3, 106240, Note_on_c, 1, 59, 96
3, 106496, Note_off_c, 1, 59, 0
3, 106496, Note_on_c, 1, 59, 96
3, 107008, Note_off_c, 1, 59, 0
3, 107008, Note_on_c, 1, 66, 96
3, 107520, Note_off_c, 1, 66, 0
3, 107520, Note_on_c, 1, 71, 96
3, 108032, Note_off_c, 1, 71, 0
3, 108032, Note_on_c, 1, 70, 96
3, 108544, Note_off_c, 1, 70, 0
3, 108544, Note_on_c, 1, 71, 96
3, 108800, Note_off_c, 1, 71, 0
3, 108800, Note_on_c, 1, 59, 96
3, 109056, Note_off_c, 1, 59, 0
3, 109056, Note_on_c, 1, 71, 96
3, 109312, Note_off_c, 1, 71, 0
3, 109312, Note_on_c, 1, 73, 96
3, 109568, Note_off_c, 1, 73, 0
3, 109568, Note_on_c, 1, 74, 96
3, 109824, Note_off_c, 1, 74, 0
3, 109824, Note_on_c, 1, 76, 96
3, 110080, Note_off_c, 1, 76, 0
3, 110080, Note_on_c, 1, 78, 96
3, 110336, Note_off_c, 1, 78, 0
3, 110336, Note_on_c, 1, 76, 96
3, 110592, Note_off_c, 1, 76, 0
3, 110592, Note_on_c, 1, 74, 96
3, 111104, Note_off_c, 1, 74, 0
3, 111104, Note_on_c, 1, 66, 96
3, 111616, Note_off_c, 1, 66, 0
3, 111616, Note_on_c, 1, 71, 96
3, 112128, Note_off_c, 1, 71, 0
3, 112128, Note_on_c, 1, 70, 96
3, 112640, Note_off_c, 1, 70, 0
3, 112640, Note_on_c, 1, 71, 96
3, 113152, Note_off_c, 1, 71, 0
3, 113152, Note_on_c, 1, 74, 96
3, 113664, Note_off_c, 1, 74, 0
3, 113664, Note_on_c, 1, 73, 96
3, 114176, Note_off_c, 1, 73, 0
3, 114176, Note_on_c, 1, 70, 96
3, 114688, Note_off_c, 1, 70, 0
3, 114688, Note_on_c, 1, 71, 96
3, 114944, Note_off_c, 1, 71, 0
3, 114944, Note_on_c, 1, 66, 96
3, 115200, Note_off_c, 1, 66, 0
3, 115200, Note_on_c, 1, 62, 96
3, 115456, Note_off_c, 1, 62, 0
3, 115456, Note_on_c, 1, 64, 96
3, 115712, Note_off_c, 1, 64, 0
3, 115712, Note_on_c, 1, 66, 96
3, 115968, Note_off_c, 1, 66, 0
3, 115968, Note_on_c, 1, 67, 96
3, 116224, Note_off_c, 1, 67, 0
3, 116224, Note_on_c, 1, 66, 96
3, 116480, Note_off_c, 1, 66, 0
3, 116480, Note_on_c, 1, 67, 96
3, 116736, Note_off_c, 1, 67, 0
3, 116736, Note_on_c, 1, 66, 96
3, 116992, Note_off_c, 1, 66, 0
3, 116992, Note_on_c, 1, 64, 96
3, 117248, Note_off_c, 1, 64, 0
3, 117248, Note_on_c, 1, 66, 96
3, 117504, Note_off_c, 1, 66, 0
3, 117504, Note_on_c, 1, 71, 96
3, 117760, Note_off_c, 1, 71, 0
3, 117760, Note_on_c, 1, 70, 96
3, 118016, Note_off_c, 1, 70, 0
3, 118016, Note_on_c, 1, 68, 96
3, 118272, Note_off_c, 1, 68, 0
3, 118272, Note_on_c, 1, 66, 96
3, 118528, Note_off_c, 1, 66, 0
3, 118528, Note_on_c, 1, 64, 96
3, 118784, Note_off_c, 1, 64, 0
3, 118784, Note_on_c, 1, 62, 96
3, 120064, Note_off_c, 1, 62, 0
3, 120064, Note_on_c, 1, 62, 96
3, 120320, Note_off_c, 1, 62, 0
3, 120320, Note_on_c, 1, 61, 96
3, 120576, Note_off_c, 1, 61, 0
3, 120576, Note_on_c, 1, 59, 96
3, 120832, Note_off_c, 1, 59, 0
3, 120832, Note_on_c, 1, 67, 96
3, 122112, Note_off_c, 1, 67, 0
3, 122112, Note_on_c, 1, 64, 96
3, 122368, Note_off_c, 1, 64, 0
3, 122368, Note_on_c, 1, 62, 96
3, 122624, Note_off_c, 1, 62, 0
3, 122624, Note_on_c, 1, 61, 96
3, 122880, Note_off_c, 1, 61, 0
3, 122880, Note_on_c, 1, 66, 96
3, 124160, Note_off_c, 1, 66, 0
3, 124160, Note_on_c, 1, 59, 96
3, 124416, Note_off_c, 1, 59, 0
3, 124416, Note_on_c, 1, 61, 96
3, 124672, Note_off_c, 1, 61, 0
3, 124672, Note_on_c, 1, 62, 96
3, 124928, Note_off_c, 1, 62, 0
3, 124928, Note_on_c, 1, 64, 96
3, 126208, Note_off_c, 1, 64, 0
3, 126208, Note_on_c, 1, 58, 96
3, 126464, Note_off_c, 1, 58, 0
3, 126464, Note_on_c, 1, 56, 96
3, 126720, Note_off_c, 1, 56, 0
3, 126720, Note_on_c, 1, 54, 96
3, 126976, Note_off_c, 1, 54, 0
3, 126976, Note_on_c, 1, 62, 96
3, 129280, Note_off_c, 1, 62, 0
3, 129280, Note_on_c, 1, 66, 96
3, 129536, Note_off_c, 1, 66, 0
3, 129536, Note_on_c, 1, 64, 96
3, 129792, Note_off_c, 1, 64, 0
3, 129792, Note_on_c, 1, 62, 96
3, 130048, Note_off_c, 1, 62, 0
3, 130048, Note_on_c, 1, 61, 96
3, 130304, Note_off_c, 1, 61, 0
3, 130304, Note_on_c, 1, 59, 96
3, 130560, Note_off_c, 1, 59, 0
3, 130560, Note_on_c, 1, 57, 96
3, 130816, Note_off_c, 1, 57, 0
3, 130816, Note_on_c, 1, 55, 96
3, 131072, Note_off_c, 1, 55, 0
3, 131072, Note_on_c, 1, 54, 96
3, 132096, Note_off_c, 1, 54, 0
3, 132096, Note_on_c, 1, 66, 96
3, 133376, Note_off_c, 1, 66, 0
3, 133376, Note_on_c, 1, 69, 96
3, 133632, Note_off_c, 1, 69, 0
3, 133632, Note_on_c, 1, 67, 96
3, 133888, Note_off_c, 1, 67, 0
3, 133888, Note_on_c, 1, 66, 96
3, 134144, Note_off_c, 1, 66, 0
3, 134144, Note_on_c, 1, 64, 96
3, 134400, Note_off_c, 1, 64, 0
3, 134400, Note_on_c, 1, 62, 96
3, 134656, Note_off_c, 1, 62, 0
3, 134656, Note_on_c, 1, 61, 96
3, 134912, Note_off_c, 1, 61, 0
3, 134912, Note_on_c, 1, 59, 96
3, 135168, Note_off_c, 1, 59, 0
3, 135168, Note_on_c, 1, 57, 96
3, 136192, Note_off_c, 1, 57, 0
3, 136192, Note_on_c, 1, 69, 96
3, 137472, Note_off_c, 1, 69, 0
3, 137472, Note_on_c, 1, 72, 96
3, 137728, Note_off_c, 1, 72, 0
3, 137728, Note_on_c, 1, 71, 96
3, 137984, Note_off_c, 1, 71, 0
3, 137984, Note_on_c, 1, 69, 96
3, 138240, Note_off_c, 1, 69, 0
3, 138240, Note_on_c, 1, 67, 96
3, 138496, Note_off_c, 1, 67, 0
3, 138496, Note_on_c, 1, 66, 96
3, 138752, Note_off_c, 1, 66, 0
3, 138752, Note_on_c, 1, 64, 96
3, 139008, Note_off_c, 1, 64, 0
3, 139008, Note_on_c, 1, 62, 96
3, 139264, Note_off_c, 1, 62, 0
3, 139264, Note_on_c, 1, 61, 96
3, 140288, Note_off_c, 1, 61, 0
3, 141568, Note_on_c, 1, 69, 96
3, 141824, Note_off_c, 1, 69, 0
3, 141824, Note_on_c, 1, 71, 96
3, 142080, Note_off_c, 1, 71, 0
3, 142080, Note_on_c, 1, 73, 96
3, 142336, Note_off_c, 1, 73, 0
3, 142336, Note_on_c, 1, 74, 96
3, 142592, Note_off_c, 1, 74, 0
3, 142592, Note_on_c, 1, 76, 96
3, 142848, Note_off_c, 1, 76, 0
3, 142848, Note_on_c, 1, 74, 96
3, 143104, Note_off_c, 1, 74, 0
3, 143104, Note_on_c, 1, 73, 96
3, 143360, Note_off_c, 1, 73, 0
3, 143360, Note_on_c, 1, 71, 96
3, 145664, Note_off_c, 1, 71, 0
3, 145664, Note_on_c, 1, 64, 96
3, 145920, Note_off_c, 1, 64, 0
3, 145920, Note_on_c, 1, 66, 96
3, 146176, Note_off_c, 1, 66, 0
3, 146176, Note_on_c, 1, 67, 96
3, 146432, Note_off_c, 1, 67, 0
3, 146432, Note_on_c, 1, 69, 96
3, 146688, Note_off_c, 1, 69, 0
3, 146688, Note_on_c, 1, 67, 96
3, 146944, Note_off_c, 1, 67, 0
3, 146944, Note_on_c, 1, 66, 96
3, 147200, Note_off_c, 1, 66, 0
3, 147200, Note_on_c, 1, 64, 96
3, 147456, Note_off_c, 1, 64, 0
3, 147456, Note_on_c, 1, 62, 96
3, 153856, Note_off_c, 1, 62, 0
3, 153856, Note_on_c, 1, 71, 96
3, 154112, Note_off_c, 1, 71, 0
3, 154112, Note_on_c, 1, 69, 96
3, 154368, Note_off_c, 1, 69, 0
3, 154368, Note_on_c, 1, 71, 96
3, 154624, Note_off_c, 1, 71, 0
3, 154624, Note_on_c, 1, 61, 96
3, 155392, Note_off_c, 1, 61, 0
3, 155392, Note_on_c, 1, 62, 96
3, 155648, Note_off_c, 1, 62, 0
3, 155648, Note_on_c, 1, 62, 96
3, 155904, Note_off_c, 1, 62, 0
3, 155904, Note_on_c, 1, 61, 96
3, 156160, Note_off_c, 1, 61, 0
3, 156160, Note_on_c, 1, 62, 96
3, 156416, Note_off_c, 1, 62, 0
3, 156416, Note_on_c, 1, 64, 96
3, 156672, Note_off_c, 1, 64, 0
3, 156672, Note_on_c, 1, 66, 96
3, 156928, Note_off_c, 1, 66, 0
3, 156928, Note_on_c, 1, 67, 96
3, 157184, Note_off_c, 1, 67, 0
3, 157184, Note_on_c, 1, 69, 96
3, 157440, Note_off_c, 1, 69, 0
3, 157440, Note_on_c, 1, 67, 96
3, 157696, Note_off_c, 1, 67, 0
3, 157696, Note_on_c, 1, 66, 96
3, 158208, Note_off_c, 1, 66, 0
3, 158208, Note_on_c, 1, 69, 96
3, 158720, Note_off_c, 1, 69, 0
3, 158720, Note_on_c, 1, 74, 96
3, 159232, Note_off_c, 1, 74, 0
3, 159232, Note_on_c, 1, 73, 96
3, 159744, Note_off_c, 1, 73, 0
3, 159744, Note_on_c, 1, 74, 96
3, 160256, Note_off_c, 1, 74, 0
3, 160256, Note_on_c, 1, 62, 96
3, 160512, Note_off_c, 1, 62, 0
3, 160512, Note_on_c, 1, 64, 96
3, 160768, Note_off_c, 1, 64, 0
3, 160768, Note_on_c, 1, 66, 96
3, 161024, Note_off_c, 1, 66, 0
3, 161024, Note_on_c, 1, 67, 96
3, 161280, Note_off_c, 1, 67, 0
3, 161280, Note_on_c, 1, 69, 96
3, 161536, Note_off_c, 1, 69, 0
3, 161536, Note_on_c, 1, 71, 96
3, 161792, Note_off_c, 1, 71, 0
3, 161792, Note_on_c, 1, 72, 96
3, 162048, Note_off_c, 1, 72, 0
3, 162048, Note_on_c, 1, 71, 96
3, 162304, Note_off_c, 1, 71, 0
3, 162304, Note_on_c, 1, 69, 96
3, 162560, Note_off_c, 1, 69, 0
3, 162560, Note_on_c, 1, 71, 96
3, 162816, Note_off_c, 1, 71, 0
3, 162816, Note_on_c, 1, 72, 96
3, 163072, Note_off_c, 1, 72, 0
3, 163072, Note_on_c, 1, 76, 96
3, 163328, Note_off_c, 1, 76, 0
3, 163328, Note_on_c, 1, 74, 96
3, 163584, Note_off_c, 1, 74, 0
3, 163584, Note_on_c, 1, 72, 96
3, 163840, Note_off_c, 1, 72, 0
3, 163840, Note_on_c, 1, 71, 96
3, 164096, Note_off_c, 1, 71, 0
3, 164096, Note_on_c, 1, 72, 96
3, 164352, Note_off_c, 1, 72, 0
3, 164352, Note_on_c, 1, 71, 96
3, 164608, Note_off_c, 1, 71, 0
3, 164608, Note_on_c, 1, 69, 96
3, 164864, Note_off_c, 1, 69, 0
3, 164864, Note_on_c, 1, 67, 96
3, 165376, Note_off_c, 1, 67, 0
3, 165376, Note_on_c, 1, 66, 96
3, 165888, Note_off_c, 1, 66, 0
3, 165888, Note_on_c, 1, 67, 96
3, 166144, Note_off_c, 1, 67, 0
3, 166144, Note_on_c, 1, 66, 96
3, 166400, Note_off_c, 1, 66, 0
3, 166400, Note_on_c, 1, 67, 96
3, 166656, Note_off_c, 1, 67, 0
3, 166656, Note_on_c, 1, 69, 96
3, 166912, Note_off_c, 1, 69, 0
3, 166912, Note_on_c, 1, 71, 96
3, 167168, Note_off_c, 1, 71, 0
3, 167168, Note_on_c, 1, 72, 96
3, 167424, Note_off_c, 1, 72, 0
3, 167424, Note_on_c, 1, 74, 96
3, 167680, Note_off_c, 1, 74, 0
3, 167680, Note_on_c, 1, 72, 96
3, 167936, Note_off_c, 1, 72, 0
3, 167936, Note_on_c, 1, 71, 96
3, 168448, Note_off_c, 1, 71, 0
3, 168448, Note_on_c, 1, 59, 96
3, 168704, Note_off_c, 1, 59, 0
3, 168704, Note_on_c, 1, 60, 96
3, 168960, Note_off_c, 1, 60, 0
3, 168960, Note_on_c, 1, 62, 96
3, 169216, Note_off_c, 1, 62, 0
3, 169216, Note_on_c, 1, 64, 96
3, 169472, Note_off_c, 1, 64, 0
3, 169472, Note_on_c, 1, 65, 96
3, 169728, Note_off_c, 1, 65, 0
3, 169728, Note_on_c, 1, 67, 96
3, 169984, Note_off_c, 1, 67, 0
3, 169984, Note_on_c, 1, 69, 96
3, 170240, Note_off_c, 1, 69, 0
3, 170240, Note_on_c, 1, 72, 96
3, 170496, Note_off_c, 1, 72, 0
3, 170496, Note_on_c, 1, 71, 96
3, 170752, Note_off_c, 1, 71, 0
3, 170752, Note_on_c, 1, 72, 96
3, 171008, Note_off_c, 1, 72, 0
3, 171008, Note_on_c, 1, 74, 96
3, 171264, Note_off_c, 1, 74, 0
3, 171264, Note_on_c, 1, 72, 96
3, 171520, Note_off_c, 1, 72, 0
3, 171520, Note_on_c, 1, 71, 96
3, 171776, Note_off_c, 1, 71, 0
3, 171776, Note_on_c, 1, 69, 96
3, 172032, Note_off_c, 1, 69, 0
3, 172032, Note_on_c, 1, 67, 96
3, 172544, Note_off_c, 1, 67, 0
3, 172544, Note_on_c, 1, 67, 96
3, 173056, Note_off_c, 1, 67, 0
3, 173056, Note_on_c, 1, 72, 96
3, 173568, Note_off_c, 1, 72, 0
3, 173568, Note_on_c, 1, 71, 96
3, 174080, Note_off_c, 1, 71, 0
3, 174080, Note_on_c, 1, 72, 96
3, 174592, Note_off_c, 1, 72, 0
3, 174592, Note_on_c, 1, 76, 96
3, 175104, Note_off_c, 1, 76, 0
3, 175104, Note_on_c, 1, 74, 96
3, 175616, Note_off_c, 1, 74, 0
3, 175616, Note_on_c, 1, 71, 96
3, 176128, Note_off_c, 1, 71, 0
3, 176128, Note_on_c, 1, 72, 96
3, 176384, Note_off_c, 1, 72, 0
3, 176384, Note_on_c, 1, 74, 96
3, 176640, Note_off_c, 1, 74, 0
3, 176640, Note_on_c, 1, 76, 96
3, 176896, Note_off_c, 1, 76, 0
3, 176896, Note_on_c, 1, 77, 96
3, 177152, Note_off_c, 1, 77, 0
3, 177152, Note_on_c, 1, 79, 96
3, 177408, Note_off_c, 1, 79, 0
3, 177408, Note_on_c, 1, 81, 96
3, 177664, Note_off_c, 1, 81, 0
3, 177664, Note_on_c, 1, 79, 96
3, 177920, Note_off_c, 1, 79, 0
3, 177920, Note_on_c, 1, 81, 96
3, 178176, Note_off_c, 1, 81, 0
3, 178176, Note_on_c, 1, 79, 96
3, 178432, Note_off_c, 1, 79, 0
3, 178432, Note_on_c, 1, 77, 96
3, 178688, Note_off_c, 1, 77, 0
3, 178688, Note_on_c, 1, 79, 96
3, 178944, Note_off_c, 1, 79, 0
3, 178944, Note_on_c, 1, 84, 96
3, 179200, Note_off_c, 1, 84, 0
3, 179200, Note_on_c, 1, 83, 96
3, 179456, Note_off_c, 1, 83, 0
3, 179456, Note_on_c, 1, 81, 96
3, 179712, Note_off_c, 1, 81, 0
3, 179712, Note_on_c, 1, 79, 96
3, 179968, Note_off_c, 1, 79, 0
3, 179968, Note_on_c, 1, 77, 96
3, 180224, Note_off_c, 1, 77, 0
3, 180224, Note_on_c, 1, 76, 96
3, 180736, Note_off_c, 1, 76, 0
3, 180736, Note_on_c, 1, 81, 96
3, 180992, Note_off_c, 1, 81, 0
3, 180992, Note_on_c, 1, 80, 96
3, 181248, Note_off_c, 1, 80, 0
3, 181248, Note_on_c, 1, 81, 96
3, 182784, Note_off_c, 1, 81, 0
3, 182784, Note_on_c, 1, 74, 96
3, 183296, Note_off_c, 1, 74, 0
3, 183296, Note_on_c, 1, 79, 96
3, 185088, Note_off_c, 1, 79, 0
3, 185088, Note_on_c, 1, 81, 96
3, 185344, Note_off_c, 1, 81, 0
3, 185344, Note_on_c, 1, 78, 96
3, 186112, Note_off_c, 1, 78, 0
3, 186112, Note_on_c, 1, 79, 96
3, 186368, Note_off_c, 1, 79, 0
3, 186368, Note_on_c, 1, 79, 96
3, 186624, Note_off_c, 1, 79, 0
3, 186624, Note_on_c, 1, 81, 96
3, 186880, Note_off_c, 1, 81, 0
3, 186880, Note_on_c, 1, 83, 96
3, 187136, Note_off_c, 1, 83, 0
3, 187136, Note_on_c, 1, 79, 96
3, 187392, Note_off_c, 1, 79, 0
3, 187392, Note_on_c, 1, 76, 96
3, 187648, Note_off_c, 1, 76, 0
3, 187648, Note_on_c, 1, 79, 96
3, 187904, Note_off_c, 1, 79, 0
3, 187904, Note_on_c, 1, 78, 96
3, 188160, Note_off_c, 1, 78, 0
3, 188160, Note_on_c, 1, 76, 96
3, 188416, Note_off_c, 1, 76, 0
3, 188416, Note_on_c, 1, 81, 96
3, 188672, Note_off_c, 1, 81, 0
3, 188672, Note_on_c, 1, 79, 96
3, 188928, Note_off_c, 1, 79, 0
3, 188928, Note_on_c, 1, 78, 96
3, 189184, Note_off_c, 1, 78, 0
3, 189184, Note_on_c, 1, 79, 96
3, 189440, Note_off_c, 1, 79, 0
3, 189440, Note_on_c, 1, 81, 96
3, 189696, Note_off_c, 1, 81, 0
3, 189696, Note_on_c, 1, 76, 96
3, 189952, Note_off_c, 1, 76, 0
3, 189952, Note_on_c, 1, 78, 96
3, 190208, Note_off_c, 1, 78, 0
3, 190208, Note_on_c, 1, 74, 96
3, 190464, Note_off_c, 1, 74, 0
3, 190464, Note_on_c, 1, 79, 96
3, 190720, Note_off_c, 1, 79, 0
3, 190720, Note_on_c, 1, 78, 96
3, 190976, Note_off_c, 1, 78, 0
3, 190976, Note_on_c, 1, 79, 96
3, 191744, Note_off_c, 1, 79, 0
3, 191744, Note_on_c, 1, 83, 96
3, 192000, Note_off_c, 1, 83, 0
3, 192000, Note_on_c, 1, 81, 96
3, 192256, Note_off_c, 1, 81, 0
3, 192256, Note_on_c, 1, 79, 96
3, 192512, Note_off_c, 1, 79, 0
3, 192512, Note_on_c, 1, 78, 96
3, 193536, Note_off_c, 1, 78, 0
3, 195072, Note_on_c, 1, 57, 96
3, 195328, Note_off_c, 1, 57, 0
3, 195328, Note_on_c, 1, 59, 96
3, 195584, Note_off_c, 1, 59, 0
3, 195584, Note_on_c, 1, 60, 96
3, 195840, Note_off_c, 1, 60, 0
3, 195840, Note_on_c, 1, 62, 96
3, 196096, Note_off_c, 1, 62, 0
3, 196096, Note_on_c, 1, 64, 96
3, 196352, Note_off_c, 1, 64, 0
3, 196352, Note_on_c, 1, 66, 96
3, 196608, Note_off_c, 1, 66, 0
3, 196608, Note_on_c, 1, 67, 96
3, 197120, Note_off_c, 1, 67, 0
3, 197120, Note_on_c, 1, 59, 96
3, 197632, Note_off_c, 1, 59, 0
3, 197632, Note_on_c, 1, 64, 96
3, 198144, Note_off_c, 1, 64, 0
3, 198144, Note_on_c, 1, 67, 96
3, 198656, Note_off_c, 1, 67, 0
3, 198656, Note_on_c, 1, 66, 96
3, 199168, Note_off_c, 1, 66, 0
3, 199168, Note_on_c, 1, 74, 96
3, 199424, Note_off_c, 1, 74, 0
3, 199424, Note_on_c, 1, 72, 96
3, 199680, Note_off_c, 1, 72, 0
3, 199680, Note_on_c, 1, 71, 96
3, 199936, Note_off_c, 1, 71, 0
3, 199936, Note_on_c, 1, 69, 96
3, 200192, Note_off_c, 1, 69, 0
3, 200192, Note_on_c, 1, 67, 96
3, 200448, Note_off_c, 1, 67, 0
3, 200448, Note_on_c, 1, 66, 96
3, 200704, Note_off_c, 1, 66, 0
3, 200704, Note_on_c, 1, 64, 96
3, 200960, Note_off_c, 1, 64, 0
3, 200960, Note_on_c, 1, 74, 96
3, 201216, Note_off_c, 1, 74, 0
3, 201216, Note_on_c, 1, 72, 96
3, 201472, Note_off_c, 1, 72, 0
3, 201472, Note_on_c, 1, 71, 96
3, 201728, Note_off_c, 1, 71, 0
3, 201728, Note_on_c, 1, 69, 96
3, 201984, Note_off_c, 1, 69, 0
3, 201984, Note_on_c, 1, 67, 96
3, 202240, Note_off_c, 1, 67, 0
3, 202240, Note_on_c, 1, 66, 96
3, 202496, Note_off_c, 1, 66, 0
3, 202496, Note_on_c, 1, 64, 96
3, 202752, Note_off_c, 1, 64, 0
3, 202752, Note_on_c, 1, 62, 96
3, 203264, Note_off_c, 1, 62, 0
3, 203264, Note_on_c, 1, 71, 96
3, 204288, Note_off_c, 1, 71, 0
3, 204288, Note_on_c, 1, 69, 96
3, 204544, Note_off_c, 1, 69, 0
3, 204544, Note_on_c, 1, 67, 96
3, 204800, Note_off_c, 1, 67, 0
3, 204800, Note_on_c, 1, 66, 96
3, 205312, Note_off_c, 1, 66, 0
3, 205312, Note_on_c, 1, 67, 96
3, 205568, Note_off_c, 1, 67, 0
3, 205568, Note_on_c, 1, 69, 96
3, 205824, Note_off_c, 1, 69, 0
3, 205824, Note_on_c, 1, 66, 96
3, 206592, Note_off_c, 1, 66, 0
3, 206592, Note_on_c, 1, 67, 96
3, 206848, Note_off_c, 1, 67, 0
3, 206848, Note_on_c, 1, 67, 96
3, 207360, Note_off_c, 1, 67, 0
3, 207360, Note_on_c, 1, 55, 96
3, 207616, Note_off_c, 1, 55, 0
3, 207616, Note_on_c, 1, 57, 96
3, 207872, Note_off_c, 1, 57, 0
3, 207872, Note_on_c, 1, 59, 96
3, 208128, Note_off_c, 1, 59, 0
3, 208128, Note_on_c, 1, 60, 96
3, 208384, Note_off_c, 1, 60, 0
3, 208384, Note_on_c, 1, 62, 96
3, 208640, Note_off_c, 1, 62, 0
3, 208640, Note_on_c, 1, 60, 96
3, 208896, Note_off_c, 1, 60, 0
3, 208896, Note_on_c, 1, 59, 96
3, 209408, Note_off_c, 1, 59, 0
3, 209408, Note_on_c, 1, 62, 96
3, 209920, Note_off_c, 1, 62, 0
3, 209920, Note_on_c, 1, 67, 96
3, 210432, Note_off_c, 1, 67, 0
3, 210432, Note_on_c, 1, 66, 96
3, 210944, Note_off_c, 1, 66, 0
3, 210944, Note_on_c, 1, 67, 96
3, 211200, Note_off_c, 1, 67, 0
3, 211200, Note_on_c, 1, 66, 96
3, 211456, Note_off_c, 1, 66, 0
3, 211456, Note_on_c, 1, 67, 96
3, 211712, Note_off_c, 1, 67, 0
3, 211712, Note_on_c, 1, 69, 96
3, 211968, Note_off_c, 1, 69, 0
3, 211968, Note_on_c, 1, 71, 96
3, 212224, Note_off_c, 1, 71, 0
3, 212224, Note_on_c, 1, 72, 96
3, 212480, Note_off_c, 1, 72, 0
3, 212480, Note_on_c, 1, 74, 96
3, 212736, Note_off_c, 1, 74, 0
3, 212736, Note_on_c, 1, 76, 96
3, 212992, Note_off_c, 1, 76, 0
3, 212992, Note_on_c, 1, 74, 96
3, 213504, Note_off_c, 1, 74, 0
3, 213504, Note_on_c, 1, 62, 96
3, 214016, Note_off_c, 1, 62, 0
3, 214016, Note_on_c, 1, 67, 96
3, 214528, Note_off_c, 1, 67, 0
3, 214528, Note_on_c, 1, 66, 96
3, 215040, Note_off_c, 1, 66, 0
3, 215040, Note_on_c, 1, 67, 96
3, 215552, Note_off_c, 1, 67, 0
3, 215552, Note_on_c, 1, 74, 96
3, 216064, Note_off_c, 1, 74, 0
3, 216064, Note_on_c, 1, 79, 96
3, 216576, Note_off_c, 1, 79, 0
3, 216576, Note_on_c, 1, 78, 96
3, 217088, Note_off_c, 1, 78, 0
3, 217088, Note_on_c, 1, 79, 96
3, 217600, Note_off_c, 1, 79, 0
3, 217600, Note_on_c, 1, 74, 96
3, 218112, Note_off_c, 1, 74, 0
3, 218112, Note_on_c, 1, 76, 96
3, 218624, Note_off_c, 1, 76, 0
3, 218624, Note_on_c, 1, 64, 96
3, 219392, Note_off_c, 1, 64, 0
3, 219392, Note_on_c, 1, 69, 96
3, 219648, Note_off_c, 1, 69, 0
3, 219648, Note_on_c, 1, 62, 96
3, 219904, Note_off_c, 1, 62, 0
3, 219904, Note_on_c, 1, 64, 96
3, 220160, Note_off_c, 1, 64, 0
3, 220160, Note_on_c, 1, 66, 96
3, 220416, Note_off_c, 1, 66, 0
3, 220416, Note_on_c, 1, 67, 96
3, 220672, Note_off_c, 1, 67, 0
3, 220672, Note_on_c, 1, 69, 96
3, 220928, Note_off_c, 1, 69, 0
3, 220928, Note_on_c, 1, 67, 96
3, 221184, Note_off_c, 1, 67, 0
3, 221184, Note_on_c, 1, 66, 96
3, 221696, Note_off_c, 1, 66, 0
3, 221696, Note_on_c, 1, 69, 96
3, 222208, Note_off_c, 1, 69, 0
3, 222208, Note_on_c, 1, 74, 96
3, 222720, Note_off_c, 1, 74, 0
3, 222720, Note_on_c, 1, 72, 96
3, 223488, Note_off_c, 1, 72, 0
3, 223488, Note_on_c, 1, 62, 96
3, 223744, Note_off_c, 1, 62, 0
3, 223744, Note_on_c, 1, 55, 96
3, 224000, Note_off_c, 1, 55, 0
3, 224000, Note_on_c, 1, 57, 96
3, 224256, Note_off_c, 1, 57, 0
3, 224256, Note_on_c, 1, 59, 96
3, 224512, Note_off_c, 1, 59, 0
3, 224512, Note_on_c, 1, 60, 96
3, 224768, Note_off_c, 1, 60, 0
3, 224768, Note_on_c, 1, 62, 96
3, 225024, Note_off_c, 1, 62, 0
3, 225024, Note_on_c, 1, 60, 96
3, 225280, Note_off_c, 1, 60, 0
3, 225280, Note_on_c, 1, 59, 96
3, 225792, Note_off_c, 1, 59, 0
3, 225792, Note_on_c, 1, 62, 96
3, 226304, Note_off_c, 1, 62, 0
3, 226304, Note_on_c, 1, 67, 96
3, 226816, Note_off_c, 1, 67, 0
3, 226816, Note_on_c, 1, 66, 96
3, 227328, Note_off_c, 1, 66, 0
3, 227328, Note_on_c, 1, 67, 96
3, 227584, Note_off_c, 1, 67, 0
3, 227584, Note_on_c, 1, 64, 96
3, 227840, Note_off_c, 1, 64, 0
3, 227840, Note_on_c, 1, 66, 96
3, 228096, Note_off_c, 1, 66, 0
3, 228096, Note_on_c, 1, 67, 96
3, 228352, Note_off_c, 1, 67, 0
3, 228352, Note_on_c, 1, 69, 96
3, 228608, Note_off_c, 1, 69, 0
3, 228608, Note_on_c, 1, 71, 96
3, 228864, Note_off_c, 1, 71, 0
3, 228864, Note_on_c, 1, 69, 96
3, 229120, Note_off_c, 1, 69, 0
3, 229120, Note_on_c, 1, 67, 96
3, 229376, Note_off_c, 1, 67, 0
3, 229376, Note_on_c, 1, 66, 96
3, 230656, Note_off_c, 1, 66, 0
3, 230656, Note_on_c, 1, 64, 96
3, 230912, Note_off_c, 1, 64, 0
3, 230912, Note_on_c, 1, 66, 96
3, 231168, Note_off_c, 1, 66, 0
3, 231168, Note_on_c, 1, 67, 96
3, 231424, Note_off_c, 1, 67, 0
3, 231424, Note_on_c, 1, 69, 96
3, 231680, Note_off_c, 1, 69, 0
3, 231680, Note_on_c, 1, 71, 96
3, 231936, Note_off_c, 1, 71, 0
3, 231936, Note_on_c, 1, 72, 96
3, 232960, Note_off_c, 1, 72, 0
3, 232960, Note_on_c, 1, 71, 96
3, 233472, Note_off_c, 1, 71, 0
3, 233472, Note_on_c, 1, 69, 96
3, 233984, Note_off_c, 1, 69, 0
3, 233984, Note_on_c, 1, 64, 96
3, 234496, Note_off_c, 1, 64, 0
3, 234496, Note_on_c, 1, 69, 96
3, 236032, Note_off_c, 1, 69, 0
3, 236032, Note_on_c, 1, 62, 96
3, 236544, Note_off_c, 1, 62, 0
3, 236544, Note_on_c, 1, 67, 96
3, 236800, Note_off_c, 1, 67, 0
3, 236800, Note_on_c, 1, 65, 96
3, 237056, Note_off_c, 1, 65, 0
3, 237056, Note_on_c, 1, 64, 96
3, 237312, Note_off_c, 1, 64, 0
3, 237312, Note_on_c, 1, 62, 96
3, 237568, Note_off_c, 1, 62, 0
3, 237568, Note_on_c, 1, 64, 96
3, 237824, Note_off_c, 1, 64, 0
3, 237824, Note_on_c, 1, 62, 96
3, 238080, Note_off_c, 1, 62, 0
3, 238080, Note_on_c, 1, 60, 96
3, 238336, Note_off_c, 1, 60, 0
3, 238336, Note_on_c, 1, 62, 96
3, 238592, Note_off_c, 1, 62, 0
3, 238592, Note_on_c, 1, 64, 96
3, 238848, Note_off_c, 1, 64, 0
3, 238848, Note_on_c, 1, 65, 96
3, 239104, Note_off_c, 1, 65, 0
3, 239104, Note_on_c, 1, 67, 96
3, 239360, Note_off_c, 1, 67, 0
3, 239360, Note_on_c, 1, 65, 96
3, 239616, Note_off_c, 1, 65, 0
3, 239616, Note_on_c, 1, 64, 96
3, 239872, Note_off_c, 1, 64, 0
3, 239872, Note_on_c, 1, 62, 96
3, 240128, Note_off_c, 1, 62, 0
3, 240128, Note_on_c, 1, 64, 96
3, 240384, Note_off_c, 1, 64, 0
3, 240384, Note_on_c, 1, 66, 96
3, 240640, Note_off_c, 1, 66, 0
3, 240640, Note_on_c, 1, 67, 96
3, 241152, Note_off_c, 1, 67, 0
3, 241152, Note_on_c, 1, 66, 96
3, 241664, Note_off_c, 1, 66, 0
3, 241664, Note_on_c, 1, 67, 96
3, 242176, Note_off_c, 1, 67, 0
3, 242176, Note_on_c, 1, 62, 96
3, 242432, Note_off_c, 1, 62, 0
3, 242432, Note_on_c, 1, 64, 96
3, 242688, Note_off_c, 1, 64, 0
3, 242688, Note_on_c, 1, 66, 96
3, 242944, Note_off_c, 1, 66, 0
3, 242944, Note_on_c, 1, 67, 96
3, 243200, Note_off_c, 1, 67, 0
3, 243200, Note_on_c, 1, 69, 96
3, 243456, Note_off_c, 1, 69, 0
3, 243456, Note_on_c, 1, 67, 96
3, 243712, Note_off_c, 1, 67, 0
3, 243712, Note_on_c, 1, 66, 96
3, 243968, Note_off_c, 1, 66, 0
3, 243968, Note_on_c, 1, 64, 96
3, 244224, Note_off_c, 1, 64, 0
3, 244224, Note_on_c, 1, 66, 96
3, 244480, Note_off_c, 1, 66, 0
3, 244480, Note_on_c, 1, 68, 96
3, 244736, Note_off_c, 1, 68, 0
3, 244736, Note_on_c, 1, 69, 96
3, 245248, Note_off_c, 1, 69, 0
3, 245248, Note_on_c, 1, 68, 96
3, 245760, Note_off_c, 1, 68, 0
3, 245760, Note_on_c, 1, 69, 96
3, 246272, Note_off_c, 1, 69, 0
3, 246272, Note_on_c, 1, 64, 96
3, 246528, Note_off_c, 1, 64, 0
3, 246528, Note_on_c, 1, 66, 96
3, 246784, Note_off_c, 1, 66, 0
3, 246784, Note_on_c, 1, 67, 96
3, 247040, Note_off_c, 1, 67, 0
3, 247040, Note_on_c, 1, 69, 96
3, 247296, Note_off_c, 1, 69, 0
3, 247296, Note_on_c, 1, 71, 96
3, 247552, Note_off_c, 1, 71, 0
3, 247552, Note_on_c, 1, 69, 96
3, 247808, Note_off_c, 1, 69, 0
3, 247808, Note_on_c, 1, 67, 96
3, 250368, Note_off_c, 1, 67, 0
3, 250368, Note_on_c, 1, 66, 96
3, 250624, Note_off_c, 1, 66, 0
3, 250624, Note_on_c, 1, 67, 96
3, 250880, Note_off_c, 1, 67, 0
3, 250880, Note_on_c, 1, 69, 96
3, 251136, Note_off_c, 1, 69, 0
3, 251136, Note_on_c, 1, 71, 96
3, 251392, Note_off_c, 1, 71, 0
3, 251392, Note_on_c, 1, 73, 96
3, 251648, Note_off_c, 1, 73, 0
3, 251648, Note_on_c, 1, 69, 96
3, 251904, Note_off_c, 1, 69, 0
3, 251904, Note_on_c, 1, 74, 96
3, 252160, Note_off_c, 1, 74, 0
3, 252160, Note_on_c, 1, 69, 96
3, 252416, Note_off_c, 1, 69, 0
3, 252416, Note_on_c, 1, 74, 96
3, 253440, Note_off_c, 1, 74, 0
3, 253440, Note_on_c, 1, 73, 96
3, 253952, Note_off_c, 1, 73, 0
3, 253952, Note_on_c, 1, 74, 96
3, 254208, Note_off_c, 1, 74, 0
3, 254208, Note_on_c, 1, 69, 96
3, 254464, Note_off_c, 1, 69, 0
3, 254464, Note_on_c, 1, 66, 96
3, 254720, Note_off_c, 1, 66, 0
3, 254720, Note_on_c, 1, 62, 96
3, 254976, Note_off_c, 1, 62, 0
3, 254976, Note_on_c, 1, 67, 96
3, 256256, Note_off_c, 1, 67, 0
3, 256256, Note_on_c, 1, 64, 96
3, 256512, Note_off_c, 1, 64, 0
3, 256512, Note_on_c, 1, 61, 96
3, 256768, Note_off_c, 1, 61, 0
3, 256768, Note_on_c, 1, 57, 96
3, 257024, Note_off_c, 1, 57, 0
3, 257024, Note_on_c, 1, 66, 96
3, 258048, Note_off_c, 1, 66, 0
3, 258048, Note_on_c, 1, 64, 96
3, 259072, Note_off_c, 1, 64, 0
3, 259072, Note_on_c, 1, 76, 96
3, 260608, Note_off_c, 1, 76, 0
3, 260608, Note_on_c, 1, 69, 96
3, 261120, Note_off_c, 1, 69, 0
3, 261120, Note_on_c, 1, 74, 96
3, 261376, Note_off_c, 1, 74, 0
3, 261376, Note_on_c, 1, 72, 96
3, 261632, Note_off_c, 1, 72, 0
3, 261632, Note_on_c, 1, 71, 96
3, 261888, Note_off_c, 1, 71, 0
3, 261888, Note_on_c, 1, 69, 96
3, 262144, Note_off_c, 1, 69, 0
3, 262144, Note_on_c, 1, 71, 96
3, 262400, Note_off_c, 1, 71, 0
3, 262400, Note_on_c, 1, 69, 96
3, 262656, Note_off_c, 1, 69, 0
3, 262656, Note_on_c, 1, 67, 96
3, 262912, Note_off_c, 1, 67, 0
3, 262912, Note_on_c, 1, 69, 96
3, 263168, Note_off_c, 1, 69, 0
3, 263168, Note_on_c, 1, 71, 96
3, 263424, Note_off_c, 1, 71, 0
3, 263424, Note_on_c, 1, 72, 96
3, 263680, Note_off_c, 1, 72, 0
3, 263680, Note_on_c, 1, 74, 96
3, 263936, Note_off_c, 1, 74, 0
3, 263936, Note_on_c, 1, 72, 96
3, 264192, Note_off_c, 1, 72, 0
3, 264192, Note_on_c, 1, 71, 96
3, 264448, Note_off_c, 1, 71, 0
3, 264448, Note_on_c, 1, 69, 96
3, 264704, Note_off_c, 1, 69, 0
3, 264704, Note_on_c, 1, 71, 96
3, 264960, Note_off_c, 1, 71, 0
3, 264960, Note_on_c, 1, 73, 96
3, 265216, Note_off_c, 1, 73, 0
3, 265216, Note_on_c, 1, 74, 96
3, 265728, Note_off_c, 1, 74, 0
3, 265728, Note_on_c, 1, 73, 96
3, 266240, Note_off_c, 1, 73, 0
3, 266240, Note_on_c, 1, 74, 96
3, 266752, Note_off_c, 1, 74, 0
3, 266752, Note_on_c, 1, 69, 96
3, 267008, Note_off_c, 1, 69, 0
3, 267008, Note_on_c, 1, 71, 96
3, 267264, Note_off_c, 1, 71, 0
3, 267264, Note_on_c, 1, 72, 96
3, 267520, Note_off_c, 1, 72, 0
3, 267520, Note_on_c, 1, 74, 96
3, 267776, Note_off_c, 1, 74, 0
3, 267776, Note_on_c, 1, 76, 96
3, 268032, Note_off_c, 1, 76, 0
3, 268032, Note_on_c, 1, 74, 96
3, 268288, Note_off_c, 1, 74, 0
3, 268288, Note_on_c, 1, 72, 96
3, 268544, Note_off_c, 1, 72, 0
3, 268544, Note_on_c, 1, 71, 96
3, 268800, Note_off_c, 1, 71, 0
3, 268800, Note_on_c, 1, 73, 96
3, 269056, Note_off_c, 1, 73, 0
3, 269056, Note_on_c, 1, 75, 96
3, 269312, Note_off_c, 1, 75, 0
3, 269312, Note_on_c, 1, 76, 96
3, 269824, Note_off_c, 1, 76, 0
3, 269824, Note_on_c, 1, 75, 96
3, 270336, Note_off_c, 1, 75, 0
3, 270336, Note_on_c, 1, 76, 96
3, 270848, Note_off_c, 1, 76, 0
3, 270848, Note_on_c, 1, 71, 96
3, 271104, Note_off_c, 1, 71, 0
3, 271104, Note_on_c, 1, 73, 96
3, 271360, Note_off_c, 1, 73, 0
3, 271360, Note_on_c, 1, 74, 96
3, 271616, Note_off_c, 1, 74, 0
3, 271616, Note_on_c, 1, 76, 96
3, 271872, Note_off_c, 1, 76, 0
3, 271872, Note_on_c, 1, 78, 96
3, 272128, Note_off_c, 1, 78, 0
3, 272128, Note_on_c, 1, 76, 96
3, 272384, Note_off_c, 1, 76, 0
3, 272384, Note_on_c, 1, 75, 96
3, 272896, Note_off_c, 1, 75, 0
3, 272896, Note_on_c, 1, 64, 96
3, 273152, Note_off_c, 1, 64, 0
3, 273152, Note_on_c, 1, 66, 96
3, 273408, Note_off_c, 1, 66, 0
3, 273408, Note_on_c, 1, 67, 96
3, 273664, Note_off_c, 1, 67, 0
3, 273664, Note_on_c, 1, 69, 96
3, 273920, Note_off_c, 1, 69, 0
3, 273920, Note_on_c, 1, 71, 96
3, 274176, Note_off_c, 1, 71, 0
3, 274176, Note_on_c, 1, 69, 96
3, 274432, Note_off_c, 1, 69, 0
3, 274432, Note_on_c, 1, 67, 96
3, 274944, Note_off_c, 1, 67, 0
3, 274944, Note_on_c, 1, 76, 96
3, 275968, Note_off_c, 1, 76, 0
3, 275968, Note_on_c, 1, 74, 96
3, 276992, Note_off_c, 1, 74, 0
3, 276992, Note_on_c, 1, 72, 96
3, 278016, Note_off_c, 1, 72, 0
3, 278016, Note_on_c, 1, 71, 96
3, 278528, Note_off_c, 1, 71, 0
3, 278528, Note_on_c, 1, 69, 96
3, 279040, Note_off_c, 1, 69, 0
3, 279040, Note_on_c, 1, 64, 96
3, 279552, Note_off_c, 1, 64, 0
3, 279552, Note_on_c, 1, 69, 96
3, 281088, Note_off_c, 1, 69, 0
3, 281088, Note_on_c, 1, 62, 96
3, 281600, Note_off_c, 1, 62, 0
3, 281600, Note_on_c, 1, 67, 96
3, 281856, Note_off_c, 1, 67, 0
3, 281856, Note_on_c, 1, 65, 96
3, 282112, Note_off_c, 1, 65, 0
3, 282112, Note_on_c, 1, 64, 96
3, 282368, Note_off_c, 1, 64, 0
3, 282368, Note_on_c, 1, 62, 96
3, 282624, Note_off_c, 1, 62, 0
3, 282624, Note_on_c, 1, 64, 96
3, 282880, Note_off_c, 1, 64, 0
3, 282880, Note_on_c, 1, 62, 96
3, 283136, Note_off_c, 1, 62, 0
3, 283136, Note_on_c, 1, 60, 96
3, 283392, Note_off_c, 1, 60, 0
3, 283392, Note_on_c, 1, 62, 96
3, 283648, Note_off_c, 1, 62, 0
3, 283648, Note_on_c, 1, 64, 96
3, 283904, Note_off_c, 1, 64, 0
3, 283904, Note_on_c, 1, 65, 96
3, 284160, Note_off_c, 1, 65, 0
3, 284160, Note_on_c, 1, 67, 96
3, 284416, Note_off_c, 1, 67, 0
3, 284416, Note_on_c, 1, 65, 96
3, 284672, Note_off_c, 1, 65, 0
3, 284672, Note_on_c, 1, 64, 96
3, 285184, Note_off_c, 1, 64, 0
3, 285184, Note_on_c, 1, 67, 96
3, 285696, Note_off_c, 1, 67, 0
3, 285696, Note_on_c, 1, 72, 96
3, 286208, Note_off_c, 1, 72, 0
3, 286208, Note_on_c, 1, 71, 96
3, 286720, Note_off_c, 1, 71, 0
3, 286720, Note_on_c, 1, 72, 96
3, 286976, Note_off_c, 1, 72, 0
3, 286976, Note_on_c, 1, 71, 96
3, 287232, Note_off_c, 1, 71, 0
3, 287232, Note_on_c, 1, 72, 96
3, 287488, Note_off_c, 1, 72, 0
3, 287488, Note_on_c, 1, 74, 96
3, 287744, Note_off_c, 1, 74, 0
3, 287744, Note_on_c, 1, 76, 96
3, 288000, Note_off_c, 1, 76, 0
3, 288000, Note_on_c, 1, 77, 96
3, 288256, Note_off_c, 1, 77, 0
3, 288256, Note_on_c, 1, 79, 96
3, 288512, Note_off_c, 1, 79, 0
3, 288512, Note_on_c, 1, 77, 96
3, 288768, Note_off_c, 1, 77, 0
3, 288768, Note_on_c, 1, 76, 96
3, 289024, Note_off_c, 1, 76, 0
3, 289024, Note_on_c, 1, 74, 96
3, 289280, Note_off_c, 1, 74, 0
3, 289280, Note_on_c, 1, 76, 96
3, 289536, Note_off_c, 1, 76, 0
3, 289536, Note_on_c, 1, 77, 96
3, 289792, Note_off_c, 1, 77, 0
3, 289792, Note_on_c, 1, 79, 96
3, 290048, Note_off_c, 1, 79, 0
3, 290048, Note_on_c, 1, 81, 96
3, 290304, Note_off_c, 1, 81, 0
3, 290304, Note_on_c, 1, 79, 96
3, 290560, Note_off_c, 1, 79, 0
3, 290560, Note_on_c, 1, 81, 96
3, 290816, Note_off_c, 1, 81, 0
3, 290816, Note_on_c, 1, 79, 96
3, 291072, Note_off_c, 1, 79, 0
3, 291072, Note_on_c, 1, 77, 96
3, 291328, Note_off_c, 1, 77, 0
3, 291328, Note_on_c, 1, 79, 96
3, 291584, Note_off_c, 1, 79, 0
3, 291584, Note_on_c, 1, 84, 96
3, 291840, Note_off_c, 1, 84, 0
3, 291840, Note_on_c, 1, 83, 96
3, 292096, Note_off_c, 1, 83, 0
3, 292096, Note_on_c, 1, 81, 96
3, 292352, Note_off_c, 1, 81, 0
3, 292352, Note_on_c, 1, 79, 96
3, 292608, Note_off_c, 1, 79, 0
3, 292608, Note_on_c, 1, 77, 96
3, 292864, Note_off_c, 1, 77, 0
3, 292864, Note_on_c, 1, 76, 96
3, 293376, Note_off_c, 1, 76, 0
3, 293376, Note_on_c, 1, 72, 96
3, 293888, Note_off_c, 1, 72, 0
3, 294400, Note_on_c, 1, 71, 96
3, 294912, Note_off_c, 1, 71, 0
3, 294912, Note_on_c, 1, 72, 96
3, 295424, Note_off_c, 1, 72, 0
3, 295424, Note_on_c, 1, 76, 96
3, 295424, Note_on_c, 1, 67, 96
3, 295936, Note_off_c, 1, 76, 0
3, 295936, Note_on_c, 1, 74, 96
3, 296192, Note_off_c, 1, 67, 0
3, 296192, Note_on_c, 1, 72, 96
3, 296448, Note_off_c, 1, 72, 0
3, 296448, Note_on_c, 1, 71, 96
3, 296704, Note_off_c, 1, 74, 0
3, 296704, Note_on_c, 1, 72, 96
3, 296704, Note_off_c, 1, 71, 0
3, 296704, Note_on_c, 1, 69, 96
3, 296960, Note_off_c, 1, 72, 0
3, 296960, Note_on_c, 1, 74, 96
3, 296960, Note_off_c, 1, 69, 0
3, 296960, Note_on_c, 1, 71, 96
3, 300032, Note_off_c, 1, 74, 0
3, 300032, Note_off_c, 1, 71, 0
3, 300032, End_track
4, 0, Start_track
4, 0, Title_t, "Instrument 3"
4, 4608, Note_on_c, 2, 43, 96
4, 5120, Note_off_c, 2, 43, 0
4, 5120, Note_on_c, 2, 47, 96
4, 5632, Note_off_c, 2, 47, 0
4, 5632, Note_on_c, 2, 50, 96
4, 6144, Note_off_c, 2, 50, 0
4, 6144, Note_on_c, 2, 47, 96
4, 6656, Note_off_c, 2, 47, 0
4, 6656, Note_on_c, 2, 43, 96
4, 7168, Note_off_c, 2, 43, 0
4, 7168, Note_on_c, 2, 50, 96
4, 7680, Note_off_c, 2, 50, 0
4, 8704, Note_on_c, 2, 43, 96
4, 9216, Note_off_c, 2, 43, 0
4, 9216, Note_on_c, 2, 47, 96
4, 9728, Note_off_c, 2, 47, 0
4, 9728, Note_on_c, 2, 50, 96
4, 10240, Note_off_c, 2, 50, 0
4, 10240, Note_on_c, 2, 47, 96
4, 10752, Note_off_c, 2, 47, 0
4, 10752, Note_on_c, 2, 43, 96
4, 11264, Note_off_c, 2, 43, 0
4, 11264, Note_on_c, 2, 50, 96
4, 11776, Note_off_c, 2, 50, 0
4, 11776, Note_on_c, 2, 38, 96
4, 12288, Note_off_c, 2, 38, 0
4, 12288, Note_on_c, 2, 43, 96
4, 13312, Note_off_c, 2, 43, 0
4, 13824, Note_on_c, 2, 55, 96
4, 14336, Note_off_c, 2, 55, 0
4, 14336, Note_on_c, 2, 54, 96
4, 15360, Note_off_c, 2, 54, 0
4, 15872, Note_on_c, 2, 59, 96
4, 16384, Note_off_c, 2, 59, 0
4, 16384, Note_on_c, 2, 52, 96
4, 17408, Note_off_c, 2, 52, 0
4, 17920, Note_on_c, 2, 57, 96
4, 18432, Note_off_c, 2, 57, 0
4, 18432, Note_on_c, 2, 50, 96
4, 18944, Note_off_c, 2, 50, 0
4, 18944, Note_on_c, 2, 54, 96
4, 19456, Note_off_c, 2, 54, 0
4, 19456, Note_on_c, 2, 55, 96
4, 19968, Note_off_c, 2, 55, 0
4, 19968, Note_on_c, 2, 57, 96
4, 20480, Note_off_c, 2, 57, 0
4, 20480, Note_on_c, 2, 59, 96
4, 21504, Note_off_c, 2, 59, 0
4, 22016, Note_on_c, 2, 54, 96
4, 22528, Note_off_c, 2, 54, 0
4, 22528, Note_on_c, 2, 55, 96
4, 23040, Note_off_c, 2, 55, 0
4, 23040, Note_on_c, 2, 52, 96
4, 23552, Note_off_c, 2, 52, 0
4, 23552, Note_on_c, 2, 57, 96
4, 24064, Note_off_c, 2, 57, 0
4, 24064, Note_on_c, 2, 45, 96
4, 24576, Note_off_c, 2, 45, 0
4, 24576, Note_on_c, 2, 50, 96
4, 25088, Note_off_c, 2, 50, 0
4, 25088, Note_on_c, 2, 38, 96
4, 25600, Note_off_c, 2, 38, 0
4, 29184, Note_on_c, 2, 50, 96
4, 29696, Note_off_c, 2, 50, 0
4, 29696, Note_on_c, 2, 54, 96
4, 30208, Note_off_c, 2, 54, 0
4, 30208, Note_on_c, 2, 57, 96
4, 30720, Note_off_c, 2, 57, 0
4, 30720, Note_on_c, 2, 54, 96
4, 31232, Note_off_c, 2, 54, 0
4, 31232, Note_on_c, 2, 50, 96
4, 31744, Note_off_c, 2, 50, 0
4, 31744, Note_on_c, 2, 57, 96
4, 32256, Note_off_c, 2, 57, 0
4, 33280, Note_on_c, 2, 50, 96
4, 33792, Note_off_c, 2, 50, 0
4, 33792, Note_on_c, 2, 54, 96
4, 34304, Note_off_c, 2, 54, 0
4, 34304, Note_on_c, 2, 57, 96
4, 34816, Note_off_c, 2, 57, 0
4, 34816, Note_on_c, 2, 54, 96
4, 35328, Note_off_c, 2, 54, 0
4, 35328, Note_on_c, 2, 50, 96
4, 35840, Note_off_c, 2, 50, 0
4, 35840, Note_on_c, 2, 57, 96
4, 36352, Note_off_c, 2, 57, 0
4, 36352, Note_on_c, 2, 45, 96
4, 36864, Note_off_c, 2, 45, 0
4, 36864, Note_on_c, 2, 50, 96
4, 37888, Note_off_c, 2, 50, 0
4, 38400, Note_on_c, 2, 50, 96
4, 38912, Note_off_c, 2, 50, 0
4, 38912, Note_on_c, 2, 49, 96
4, 39936, Note_off_c, 2, 49, 0
4, 40448, Note_on_c, 2, 54, 96
4, 40960, Note_off_c, 2, 54, 0
4, 40960, Note_on_c, 2, 47, 96
4, 41984, Note_off_c, 2, 47, 0
4, 42496, Note_on_c, 2, 52, 96
4, 43008, Note_off_c, 2, 52, 0
4, 43008, Note_on_c, 2, 45, 96
4, 44032, Note_off_c, 2, 45, 0
4, 45056, Note_on_c, 2, 52, 96
4, 46080, Note_off_c, 2, 52, 0
4, 47104, Note_on_c, 2, 47, 96
4, 48128, Note_off_c, 2, 47, 0
4, 49152, Note_on_c, 2, 54, 96
4, 50176, Note_off_c, 2, 54, 0
4, 50688, Note_on_c, 2, 47, 96
4, 51200, Note_off_c, 2, 47, 0
4, 51200, Note_on_c, 2, 52, 96
4, 52224, Note_off_c, 2, 52, 0
4, 52736, Note_on_c, 2, 45, 96
4, 53248, Note_off_c, 2, 45, 0
4, 53248, Note_on_c, 2, 50, 96
4, 54272, Note_off_c, 2, 50, 0
4, 54784, Note_on_c, 2, 55, 96
4, 55808, Note_off_c, 2, 55, 0
4, 55808, Note_on_c, 2, 54, 96
4, 56064, Note_off_c, 2, 54, 0
4, 56064, Note_on_c, 2, 55, 96
4, 56320, Note_off_c, 2, 55, 0
4, 56320, Note_on_c, 2, 57, 96
4, 56832, Note_off_c, 2, 57, 0
4, 56832, Note_on_c, 2, 45, 96
4, 57344, Note_off_c, 2, 45, 0
4, 57344, Note_on_c, 2, 50, 96
4, 58368, Note_off_c, 2, 50, 0
4, 59904, Note_on_c, 2, 50, 96
4, 60416, Note_off_c, 2, 50, 0
4, 60416, Note_on_c, 2, 48, 96
4, 60928, Note_off_c, 2, 48, 0
4, 60928, Note_on_c, 2, 47, 96
4, 61440, Note_off_c, 2, 47, 0
4, 61440, Note_on_c, 2, 45, 96
4, 62464, Note_off_c, 2, 45, 0
4, 64000, Note_on_c, 2, 57, 96
4, 64512, Note_off_c, 2, 57, 0
4, 64512, Note_on_c, 2, 55, 96
4, 65024, Note_off_c, 2, 55, 0
4, 65024, Note_on_c, 2, 54, 96
4, 65536, Note_off_c, 2, 54, 0
4, 65536, Note_on_c, 2, 52, 96
4, 66560, Note_off_c, 2, 52, 0
4, 70144, Note_on_c, 2, 52, 96
4, 70656, Note_off_c, 2, 52, 0
4, 70656, Note_on_c, 2, 55, 96
4, 71168, Note_off_c, 2, 55, 0
4, 71168, Note_on_c, 2, 59, 96
4, 71680, Note_off_c, 2, 59, 0
4, 71680, Note_on_c, 2, 55, 96
4, 72192, Note_off_c, 2, 55, 0
4, 72192, Note_on_c, 2, 52, 96
4, 72704, Note_off_c, 2, 52, 0
4, 72704, Note_on_c, 2, 59, 96
4, 73216, Note_off_c, 2, 59, 0
4, 74240, Note_on_c, 2, 52, 96
4, 74752, Note_off_c, 2, 52, 0
4, 74752, Note_on_c, 2, 55, 96
4, 75264, Note_off_c, 2, 55, 0
4, 75264, Note_on_c, 2, 59, 96
4, 75776, Note_off_c, 2, 59, 0
4, 75776, Note_on_c, 2, 55, 96
4, 76288, Note_off_c, 2, 55, 0
4, 76288, Note_on_c, 2, 52, 96
4, 76800, Note_off_c, 2, 52, 0
4, 76800, Note_on_c, 2, 59, 96
4, 77312, Note_off_c, 2, 59, 0
4, 77312, Note_on_c, 2, 47, 96
4, 77824, Note_off_c, 2, 47, 0
4, 77824, Note_on_c, 2, 52, 96
4, 78848, Note_off_c, 2, 52, 0
4, 79360, Note_on_c, 2, 52, 96
4, 79872, Note_off_c, 2, 52, 0
4, 79872, Note_on_c, 2, 54, 96
4, 80896, Note_off_c, 2, 54, 0
4, 81408, Note_on_c, 2, 54, 96
4, 81920, Note_off_c, 2, 54, 0
4, 81920, Note_on_c, 2, 55, 96
4, 82944, Note_off_c, 2, 55, 0
4, 83456, Note_on_c, 2, 60, 96
4, 83968, Note_off_c, 2, 60, 0
4, 83968, Note_on_c, 2, 57, 96
4, 84480, Note_off_c, 2, 57, 0
4, 84480, Note_on_c, 2, 54, 96
4, 84992, Note_off_c, 2, 54, 0
4, 84992, Note_on_c, 2, 59, 96
4, 85504, Note_off_c, 2, 59, 0
4, 85504, Note_on_c, 2, 47, 96
4, 86016, Note_off_c, 2, 47, 0
4, 86016, Note_on_c, 2, 52, 96
4, 86528, Note_off_c, 2, 52, 0
4, 86528, Note_on_c, 2, 59, 96
4, 87040, Note_off_c, 2, 59, 0
4, 87040, Note_on_c, 2, 55, 96
4, 87552, Note_off_c, 2, 55, 0
4, 87552, Note_on_c, 2, 52, 96
4, 88064, Note_off_c, 2, 52, 0
4, 88064, Note_on_c, 2, 49, 96
4, 88576, Note_off_c, 2, 49, 0
4, 88576, Note_on_c, 2, 45, 96
4, 89088, Note_off_c, 2, 45, 0
4, 89088, Note_on_c, 2, 55, 96
4, 90112, Note_off_c, 2, 55, 0
4, 90112, Note_on_c, 2, 54, 96
4, 91136, Note_off_c, 2, 54, 0
4, 91136, Note_on_c, 2, 42, 96
4, 93184, Note_off_c, 2, 42, 0
4, 93184, Note_on_c, 2, 54, 96
4, 94208, Note_off_c, 2, 54, 0
4, 94208, Note_on_c, 2, 52, 96
4, 95232, Note_off_c, 2, 52, 0
4, 95232, Note_on_c, 2, 40, 96
4, 97280, Note_off_c, 2, 40, 0
4, 97280, Note_on_c, 2, 54, 96
4, 98304, Note_off_c, 2, 54, 0
4, 98304, Note_on_c, 2, 50, 96
4, 99328, Note_off_c, 2, 50, 0
4, 99328, Note_on_c, 2, 55, 96
4, 100352, Note_off_c, 2, 55, 0
4, 100352, Note_on_c, 2, 49, 96
4, 101376, Note_off_c, 2, 49, 0
4, 101376, Note_on_c, 2, 54, 96
4, 102400, Note_off_c, 2, 54, 0
4, 102400, Note_on_c, 2, 47, 96
4, 103424, Note_off_c, 2, 47, 0
4, 103424, Note_on_c, 2, 52, 96
4, 104960, Note_off_c, 2, 52, 0
4, 104960, Note_on_c, 2, 50, 96
4, 105216, Note_off_c, 2, 50, 0
4, 105216, Note_on_c, 2, 52, 96
4, 105472, Note_off_c, 2, 52, 0
4, 105472, Note_on_c, 2, 54, 96
4, 105984, Note_off_c, 2, 54, 0
4, 105984, Note_on_c, 2, 42, 96
4, 106496, Note_off_c, 2, 42, 0
4, 106496, Note_on_c, 2, 47, 96
4, 107520, Note_off_c, 2, 47, 0
4, 111104, Note_on_c, 2, 47, 96
4, 111616, Note_off_c, 2, 47, 0
4, 111616, Note_on_c, 2, 50, 96
4, 112128, Note_off_c, 2, 50, 0
4, 112128, Note_on_c, 2, 54, 96
4, 112640, Note_off_c, 2, 54, 0
4, 112640, Note_on_c, 2, 50, 96
4, 113152, Note_off_c, 2, 50, 0
4, 113152, Note_on_c, 2, 47, 96
4, 113664, Note_off_c, 2, 47, 0
4, 113664, Note_on_c, 2, 54, 96
4, 114176, Note_off_c, 2, 54, 0
4, 115200, Note_on_c, 2, 47, 96
4, 115712, Note_off_c, 2, 47, 0
4, 115712, Note_on_c, 2, 50, 96
4, 116224, Note_off_c, 2, 50, 0
4, 116224, Note_on_c, 2, 54, 96
4, 116736, Note_off_c, 2, 54, 0
4, 116736, Note_on_c, 2, 50, 96
4, 117248, Note_off_c, 2, 50, 0
4, 117248, Note_on_c, 2, 47, 96
4, 117760, Note_off_c, 2, 47, 0
4, 117760, Note_on_c, 2, 54, 96
4, 118272, Note_off_c, 2, 54, 0
4, 118272, Note_on_c, 2, 42, 96
4, 118784, Note_off_c, 2, 42, 0
4, 118784, Note_on_c, 2, 47, 96
4, 119808, Note_off_c, 2, 47, 0
4, 120320, Note_on_c, 2, 47, 96
4, 120832, Note_off_c, 2, 47, 0
4, 120832, Note_on_c, 2, 52, 96
4, 121344, Note_off_c, 2, 52, 0
4, 121344, Note_on_c, 2, 50, 96
4, 121856, Note_off_c, 2, 50, 0
4, 121856, Note_on_c, 2, 49, 96
4, 122368, Note_off_c, 2, 49, 0
4, 122368, Note_on_c, 2, 45, 96
4, 122880, Note_off_c, 2, 45, 0
4, 122880, Note_on_c, 2, 50, 96
4, 123392, Note_off_c, 2, 50, 0
4, 123392, Note_on_c, 2, 49, 96
4, 123904, Note_off_c, 2, 49, 0
4, 123904, Note_on_c, 2, 47, 96
4, 124416, Note_off_c, 2, 47, 0
4, 124416, Note_on_c, 2, 59, 96
4, 124928, Note_off_c, 2, 59, 0
4, 124928, Note_on_c, 2, 61, 96
4, 125440, Note_off_c, 2, 61, 0
4, 125440, Note_on_c, 2, 58, 96
4, 125952, Note_off_c, 2, 58, 0
4, 125952, Note_on_c, 2, 54, 96
4, 126464, Note_off_c, 2, 54, 0
4, 126464, Note_on_c, 2, 58, 96
4, 126976, Note_off_c, 2, 58, 0
4, 126976, Note_on_c, 2, 59, 96
4, 127488, Note_off_c, 2, 59, 0
4, 127488, Note_on_c, 2, 54, 96
4, 128000, Note_off_c, 2, 54, 0
4, 128000, Note_on_c, 2, 50, 96
4, 128512, Note_off_c, 2, 50, 0
4, 128512, Note_on_c, 2, 47, 96
4, 129024, Note_off_c, 2, 47, 0
4, 129024, Note_on_c, 2, 49, 96
4, 129536, Note_off_c, 2, 49, 0
4, 129536, Note_on_c, 2, 47, 96
4, 130048, Note_off_c, 2, 47, 0
4, 130048, Note_on_c, 2, 45, 96
4, 130560, Note_off_c, 2, 45, 0
4, 130560, Note_on_c, 2, 49, 96
4, 131072, Note_off_c, 2, 49, 0
4, 131072, Note_on_c, 2, 50, 96
4, 131584, Note_off_c, 2, 50, 0
4, 131584, Note_on_c, 2, 49, 96
4, 132096, Note_off_c, 2, 49, 0
4, 132096, Note_on_c, 2, 47, 96
4, 132608, Note_off_c, 2, 47, 0
4, 132608, Note_on_c, 2, 50, 96
4, 133120, Note_off_c, 2, 50, 0
4, 133120, Note_on_c, 2, 52, 96
4, 133632, Note_off_c, 2, 52, 0
4, 133632, Note_on_c, 2, 50, 96
4, 134144, Note_off_c, 2, 50, 0
4, 134144, Note_on_c, 2, 49, 96
4, 134656, Note_off_c, 2, 49, 0
4, 134656, Note_on_c, 2, 52, 96
4, 135168, Note_off_c, 2, 52, 0
4, 135168, Note_on_c, 2, 54, 96
4, 135680, Note_off_c, 2, 54, 0
4, 135680, Note_on_c, 2, 52, 96
4, 136192, Note_off_c, 2, 52, 0
4, 136192, Note_on_c, 2, 50, 96
4, 136704, Note_off_c, 2, 50, 0
4, 136704, Note_on_c, 2, 54, 96
4, 137216, Note_off_c, 2, 54, 0
4, 137216, Note_on_c, 2, 55, 96
4, 137728, Note_off_c, 2, 55, 0
4, 137728, Note_on_c, 2, 54, 96
4, 138240, Note_off_c, 2, 54, 0
4, 138240, Note_on_c, 2, 52, 96
4, 138752, Note_off_c, 2, 52, 0
4, 138752, Note_on_c, 2, 55, 96
4, 139264, Note_off_c, 2, 55, 0
4, 139264, Note_on_c, 2, 57, 96
4, 139776, Note_off_c, 2, 57, 0
4, 139776, Note_on_c, 2, 55, 96
4, 140288, Note_off_c, 2, 55, 0
4, 140288, Note_on_c, 2, 54, 96
4, 140800, Note_off_c, 2, 54, 0
4, 140800, Note_on_c, 2, 52, 96
4, 141312, Note_off_c, 2, 52, 0
4, 141312, Note_on_c, 2, 50, 96
4, 141824, Note_off_c, 2, 50, 0
4, 141824, Note_on_c, 2, 49, 96
4, 142336, Note_off_c, 2, 49, 0
4, 142336, Note_on_c, 2, 47, 96
4, 142848, Note_off_c, 2, 47, 0
4, 142848, Note_on_c, 2, 45, 96
4, 143360, Note_off_c, 2, 45, 0
4, 143360, Note_on_c, 2, 43, 96
4, 143872, Note_off_c, 2, 43, 0
4, 143872, Note_on_c, 2, 42, 96
4, 144384, Note_off_c, 2, 42, 0
4, 144384, Note_on_c, 2, 40, 96
4, 144896, Note_off_c, 2, 40, 0
4, 144896, Note_on_c, 2, 43, 96
4, 145408, Note_off_c, 2, 43, 0
4, 145408, Note_on_c, 2, 45, 96
4, 145920, Note_off_c, 2, 45, 0
4, 145920, Note_on_c, 2, 43, 96
4, 146432, Note_off_c, 2, 43, 0
4, 146432, Note_on_c, 2, 42, 96
4, 146944, Note_off_c, 2, 42, 0
4, 146944, Note_on_c, 2, 45, 96
4, 147456, Note_off_c, 2, 45, 0
4, 147456, Note_on_c, 2, 47, 96
4, 147968, Note_off_c, 2, 47, 0
4, 147968, Note_on_c, 2, 50, 96
4, 148480, Note_off_c, 2, 50, 0
4, 148480, Note_on_c, 2, 52, 96
4, 148992, Note_off_c, 2, 52, 0
4, 148992, Note_on_c, 2, 54, 96
4, 149504, Note_off_c, 2, 54, 0
4, 149504, Note_on_c, 2, 55, 96
4, 150016, Note_off_c, 2, 55, 0
4, 150016, Note_on_c, 2, 54, 96
4, 150528, Note_off_c, 2, 54, 0
4, 150528, Note_on_c, 2, 55, 96
4, 151040, Note_off_c, 2, 55, 0
4, 151040, Note_on_c, 2, 57, 96
4, 151552, Note_off_c, 2, 57, 0
4, 151552, Note_on_c, 2, 59, 96
4, 152064, Note_off_c, 2, 59, 0
4, 152064, Note_on_c, 2, 54, 96
4, 152576, Note_off_c, 2, 54, 0
4, 152576, Note_on_c, 2, 55, 96
4, 153088, Note_off_c, 2, 55, 0
4, 153088, Note_on_c, 2, 57, 96
4, 153600, Note_off_c, 2, 57, 0
4, 153600, Note_on_c, 2, 59, 96
4, 154112, Note_off_c, 2, 59, 0
4, 154112, Note_on_c, 2, 55, 96
4, 154624, Note_off_c, 2, 55, 0
4, 154624, Note_on_c, 2, 57, 96
4, 155136, Note_off_c, 2, 57, 0
4, 155136, Note_on_c, 2, 45, 96
4, 155648, Note_off_c, 2, 45, 0
4, 155648, Note_on_c, 2, 50, 96
4, 156672, Note_off_c, 2, 50, 0
4, 160256, Note_on_c, 2, 62, 96
4, 160768, Note_off_c, 2, 62, 0
4, 160768, Note_on_c, 2, 60, 96
4, 161280, Note_off_c, 2, 60, 0
4, 161280, Note_on_c, 2, 59, 96
4, 161792, Note_off_c, 2, 59, 0
4, 161792, Note_on_c, 2, 57, 96
4, 162304, Note_off_c, 2, 57, 0
4, 162304, Note_on_c, 2, 55, 96
4, 162816, Note_off_c, 2, 55, 0
4, 162816, Note_on_c, 2, 54, 96
4, 163328, Note_off_c, 2, 54, 0
4, 163328, Note_on_c, 2, 50, 96
4, 163840, Note_off_c, 2, 50, 0
4, 163840, Note_on_c, 2, 55, 96
4, 164864, Note_off_c, 2, 55, 0
4, 168448, Note_on_c, 2, 55, 96
4, 168960, Note_off_c, 2, 55, 0
4, 168960, Note_on_c, 2, 53, 96
4, 169472, Note_off_c, 2, 53, 0
4, 169472, Note_on_c, 2, 52, 96
4, 169984, Note_off_c, 2, 52, 0
4, 169984, Note_on_c, 2, 50, 96
4, 170496, Note_off_c, 2, 50, 0
4, 170496, Note_on_c, 2, 48, 96
4, 171008, Note_off_c, 2, 48, 0
4, 171008, Note_on_c, 2, 47, 96
4, 171520, Note_off_c, 2, 47, 0
4, 171520, Note_on_c, 2, 43, 96
4, 172032, Note_off_c, 2, 43, 0
4, 172032, Note_on_c, 2, 48, 96
4, 172544, Note_off_c, 2, 48, 0
4, 172544, Note_on_c, 2, 48, 96
4, 173056, Note_off_c, 2, 48, 0
4, 173056, Note_on_c, 2, 52, 96
4, 173568, Note_off_c, 2, 52, 0
4, 173568, Note_on_c, 2, 55, 96
4, 174080, Note_off_c, 2, 55, 0
4, 174080, Note_on_c, 2, 52, 96
4, 174592, Note_off_c, 2, 52, 0
4, 174592, Note_on_c, 2, 48, 96
4, 175104, Note_off_c, 2, 48, 0
4, 175104, Note_on_c, 2, 55, 96
4, 175616, Note_off_c, 2, 55, 0
4, 176640, Note_on_c, 2, 48, 96
4, 177152, Note_off_c, 2, 48, 0
4, 177152, Note_on_c, 2, 52, 96
4, 177664, Note_off_c, 2, 52, 0
4, 177664, Note_on_c, 2, 55, 96
4, 178176, Note_off_c, 2, 55, 0
4, 178176, Note_on_c, 2, 52, 96
4, 178688, Note_off_c, 2, 52, 0
4, 178688, Note_on_c, 2, 48, 96
4, 179200, Note_off_c, 2, 48, 0
4, 179200, Note_on_c, 2, 55, 96
4, 179712, Note_off_c, 2, 55, 0
4, 179712, Note_on_c, 2, 43, 96
4, 180224, Note_off_c, 2, 43, 0
4, 180224, Note_on_c, 2, 48, 96
4, 181248, Note_off_c, 2, 48, 0
4, 181760, Note_on_c, 2, 60, 96
4, 182272, Note_off_c, 2, 60, 0
4, 182272, Note_on_c, 2, 59, 96
4, 183296, Note_off_c, 2, 59, 0
4, 183808, Note_on_c, 2, 52, 96
4, 184320, Note_off_c, 2, 52, 0
4, 184320, Note_on_c, 2, 57, 96
4, 185344, Note_off_c, 2, 57, 0
4, 185856, Note_on_c, 2, 50, 96
4, 186368, Note_off_c, 2, 50, 0
4, 186368, Note_on_c, 2, 55, 96
4, 187392, Note_off_c, 2, 55, 0
4, 187904, Note_on_c, 2, 55, 96
4, 188416, Note_off_c, 2, 55, 0
4, 188416, Note_on_c, 2, 54, 96
4, 189440, Note_off_c, 2, 54, 0
4, 189952, Note_on_c, 2, 59, 96
4, 190464, Note_off_c, 2, 59, 0
4, 190464, Note_on_c, 2, 52, 96
4, 191488, Note_off_c, 2, 52, 0
4, 192000, Note_on_c, 2, 57, 96
4, 192512, Note_off_c, 2, 57, 0
4, 192512, Note_on_c, 2, 50, 96
4, 193536, Note_off_c, 2, 50, 0
4, 194560, Note_on_c, 2, 45, 96
4, 195584, Note_off_c, 2, 45, 0
4, 196608, Note_on_c, 2, 52, 96
4, 197632, Note_off_c, 2, 52, 0
4, 198656, Note_on_c, 2, 47, 96
4, 199680, Note_off_c, 2, 47, 0
4, 200192, Note_on_c, 2, 52, 96
4, 200704, Note_off_c, 2, 52, 0
4, 200704, Note_on_c, 2, 57, 96
4, 201728, Note_off_c, 2, 57, 0
4, 202240, Note_on_c, 2, 50, 96
4, 202752, Note_off_c, 2, 50, 0
4, 202752, Note_on_c, 2, 55, 96
4, 203776, Note_off_c, 2, 55, 0
4, 203776, Note_on_c, 2, 48, 96
4, 204800, Note_off_c, 2, 48, 0
4, 204800, Note_on_c, 2, 50, 96
4, 205312, Note_off_c, 2, 50, 0
4, 205312, Note_on_c, 2, 43, 96
4, 205824, Note_off_c, 2, 43, 0
4, 205824, Note_on_c, 2, 50, 96
4, 206336, Note_off_c, 2, 50, 0
4, 206336, Note_on_c, 2, 38, 96
4, 206848, Note_off_c, 2, 38, 0
4, 206848, Note_on_c, 2, 43, 96
4, 207360, Note_off_c, 2, 43, 0
4, 210944, Note_on_c, 2, 43, 96
4, 212992, Note_off_c, 2, 43, 0
4, 212992, Note_on_c, 2, 47, 96
4, 214016, Note_off_c, 2, 47, 0
4, 214016, Note_on_c, 2, 50, 96
4, 215040, Note_off_c, 2, 50, 0
4, 215040, Note_on_c, 2, 47, 96
4, 216576, Note_off_c, 2, 47, 0
4, 216576, Note_on_c, 2, 45, 96
4, 217088, Note_off_c, 2, 45, 0
4, 217088, Note_on_c, 2, 47, 96
4, 218112, Note_off_c, 2, 47, 0
4, 218112, Note_on_c, 2, 49, 96
4, 219136, Note_off_c, 2, 49, 0
4, 219136, Note_on_c, 2, 50, 96
4, 223232, Note_off_c, 2, 50, 0
4, 227328, Note_on_c, 2, 52, 96
4, 229376, Note_off_c, 2, 52, 0
4, 229376, Note_on_c, 2, 50, 96
4, 229888, Note_off_c, 2, 50, 0
4, 229888, Note_on_c, 2, 48, 96
4, 230400, Note_off_c, 2, 48, 0
4, 230400, Note_on_c, 2, 47, 96
4, 231424, Note_off_c, 2, 47, 0
4, 231424, Note_on_c, 2, 45, 96
4, 232448, Note_off_c, 2, 45, 0
4, 232448, Note_on_c, 2, 43, 96
4, 234496, Note_off_c, 2, 43, 0
4, 234496, Note_on_c, 2, 42, 96
4, 235520, Note_off_c, 2, 42, 0
4, 235520, Note_on_c, 2, 43, 96
4, 239616, Note_off_c, 2, 43, 0
4, 251904, Note_on_c, 2, 45, 96
4, 253952, Note_off_c, 2, 45, 0
4, 253952, Note_on_c, 2, 47, 96
4, 254976, Note_off_c, 2, 47, 0
4, 254976, Note_on_c, 2, 47, 96
4, 256000, Note_off_c, 2, 47, 0
4, 256000, Note_on_c, 2, 45, 96
4, 257024, Note_off_c, 2, 45, 0
4, 257024, Note_on_c, 2, 50, 96
4, 259072, Note_off_c, 2, 50, 0
4, 259072, Note_on_c, 2, 49, 96
4, 260096, Note_off_c, 2, 49, 0
4, 260096, Note_on_c, 2, 50, 96
4, 264192, Note_off_c, 2, 50, 0
4, 272384, Note_on_c, 2, 47, 96
4, 274432, Note_off_c, 2, 47, 0
4, 274432, Note_on_c, 2, 48, 96
4, 275456, Note_off_c, 2, 48, 0
4, 275456, Note_on_c, 2, 47, 96
4, 276480, Note_off_c, 2, 47, 0
4, 276480, Note_on_c, 2, 45, 96
4, 277504, Note_off_c, 2, 45, 0
4, 277504, Note_on_c, 2, 43, 96
4, 279552, Note_off_c, 2, 43, 0
4, 279552, Note_on_c, 2, 42, 96
4, 280576, Note_off_c, 2, 42, 0
4, 280576, Note_on_c, 2, 43, 96
4, 287232, Note_off_c, 2, 43, 0
4, 287232, Note_on_c, 2, 41, 96
4, 287744, Note_off_c, 2, 41, 0
4, 287744, Note_on_c, 2, 40, 96
4, 288256, Note_off_c, 2, 40, 0
4, 288256, Note_on_c, 2, 38, 96
4, 288768, Note_off_c, 2, 38, 0
4, 288768, Note_on_c, 2, 36, 96
4, 289280, Note_off_c, 2, 36, 0
4, 289280, Note_on_c, 2, 48, 96
4, 289792, Note_off_c, 2, 48, 0
4, 289792, Note_on_c, 2, 52, 96
4, 290304, Note_off_c, 2, 52, 0
4, 290304, Note_on_c, 2, 55, 96
4, 290816, Note_off_c, 2, 55, 0
4, 290816, Note_on_c, 2, 52, 96
4, 291328, Note_off_c, 2, 52, 0
4, 291328, Note_on_c, 2, 48, 96
4, 291840, Note_off_c, 2, 48, 0
4, 291840, Note_on_c, 2, 55, 96
4, 292864, Note_off_c, 2, 55, 0
4, 293376, Note_on_c, 2, 48, 96
4, 293888, Note_off_c, 2, 48, 0
4, 293888, Note_on_c, 2, 52, 96
4, 294400, Note_off_c, 2, 52, 0
4, 294400, Note_on_c, 2, 55, 96
4, 294912, Note_off_c, 2, 55, 0
4, 294912, Note_on_c, 2, 52, 96
4, 295424, Note_off_c, 2, 52, 0
4, 295424, Note_on_c, 2, 48, 96
4, 295936, Note_off_c, 2, 48, 0
4, 295936, Note_on_c, 2, 55, 96
4, 296960, Note_off_c, 2, 55, 0
4, 296960, Note_on_c, 2, 43, 96
4, 300032, Note_off_c, 2, 43, 0
4, 300032, End_track
5, 0, Start_track
5, 0, Title_t, "Instrument 4"
5, 4608, Note_on_c, 3, 31, 96
5, 5120, Note_off_c, 3, 31, 0
5, 5120, Note_on_c, 3, 35, 96
5, 5632, Note_off_c, 3, 35, 0
5, 5632, Note_on_c, 3, 38, 96
5, 6144, Note_off_c, 3, 38, 0
5, 6144, Note_on_c, 3, 35, 96
5, 6656, Note_off_c, 3, 35, 0
5, 6656, Note_on_c, 3, 31, 96
5, 7168, Note_off_c, 3, 31, 0
5, 7168, Note_on_c, 3, 38, 96
5, 7680, Note_off_c, 3, 38, 0
5, 8704, Note_on_c, 3, 31, 96
5, 9216, Note_off_c, 3, 31, 0
5, 9216, Note_on_c, 3, 35, 96
5, 9728, Note_off_c, 3, 35, 0
5, 9728, Note_on_c, 3, 38, 96
5, 10240, Note_off_c, 3, 38, 0
5, 10240, Note_on_c, 3, 35, 96
5, 10752, Note_off_c, 3, 35, 0
5, 10752, Note_on_c, 3, 31, 96
5, 11264, Note_off_c, 3, 31, 0
5, 11264, Note_on_c, 3, 38, 96
5, 11776, Note_off_c, 3, 38, 0
5, 11776, Note_on_c, 3, 26, 96
5, 12288, Note_off_c, 3, 26, 0
5, 12288, Note_on_c, 3, 31, 96
5, 13312, Note_off_c, 3, 31, 0
5, 13824, Note_on_c, 3, 43, 96
5, 14336, Note_off_c, 3, 43, 0
5, 14336, Note_on_c, 3, 42, 96
5, 15360, Note_off_c, 3, 42, 0
5, 15872, Note_on_c, 3, 47, 96
5, 16384, Note_off_c, 3, 47, 0
5, 16384, Note_on_c, 3, 40, 96
5, 17408, Note_off_c, 3, 40, 0
5, 17920, Note_on_c, 3, 45, 96
5, 18432, Note_off_c, 3, 45, 0
5, 18432, Note_on_c, 3, 38, 96
5, 18944, Note_off_c, 3, 38, 0
5, 18944, Note_on_c, 3, 42, 96
5, 19456, Note_off_c, 3, 42, 0
5, 19456, Note_on_c, 3, 43, 96
5, 19968, Note_off_c, 3, 43, 0
5, 19968, Note_on_c, 3, 45, 96
5, 20480, Note_off_c, 3, 45, 0
5, 20480, Note_on_c, 3, 47, 96
5, 21504, Note_off_c, 3, 47, 0
5, 22016, Note_on_c, 3, 42, 96
5, 22528, Note_off_c, 3, 42, 0
5, 22528, Note_on_c, 3, 43, 96
5, 23040, Note_off_c, 3, 43, 0
5, 23040, Note_on_c, 3, 40, 96
5, 23552, Note_off_c, 3, 40, 0
5, 23552, Note_on_c, 3, 45, 96
5, 24064, Note_off_c, 3, 45, 0
5, 24064, Note_on_c, 3, 33, 96
5, 24576, Note_off_c, 3, 33, 0
5, 24576, Note_on_c, 3, 38, 96
5, 25088, Note_off_c, 3, 38, 0
5, 25088, Note_on_c, 3, 26, 96
5, 25600, Note_off_c, 3, 26, 0
5, 29184, Note_on_c, 3, 38, 96
5, 29696, Note_off_c, 3, 38, 0
5, 29696, Note_on_c, 3, 42, 96
5, 30208, Note_off_c, 3, 42, 0
5, 30208, Note_on_c, 3, 45, 96
5, 30720, Note_off_c, 3, 45, 0
5, 30720, Note_on_c, 3, 42, 96
5, 31232, Note_off_c, 3, 42, 0
5, 31232, Note_on_c, 3, 38, 96
5, 31744, Note_off_c, 3, 38, 0
5, 31744, Note_on_c, 3, 45, 96
5, 32256, Note_off_c, 3, 45, 0
5, 33280, Note_on_c, 3, 38, 96
5, 33792, Note_off_c, 3, 38, 0
5, 33792, Note_on_c, 3, 42, 96
5, 34304, Note_off_c, 3, 42, 0
5, 34304, Note_on_c, 3, 45, 96
5, 34816, Note_off_c, 3, 45, 0
5, 34816, Note_on_c, 3, 42, 96
5, 35328, Note_off_c, 3, 42, 0
5, 35328, Note_on_c, 3, 38, 96
5, 35840, Note_off_c, 3, 38, 0
5, 35840, Note_on_c, 3, 45, 96
5, 36352, Note_off_c, 3, 45, 0
5, 36352, Note_on_c, 3, 33, 96
5, 36864, Note_off_c, 3, 33, 0
5, 36864, Note_on_c, 3, 38, 96
5, 37888, Note_off_c, 3, 38, 0
5, 38400, Note_on_c, 3, 38, 96
5, 38912, Note_off_c, 3, 38, 0
5, 38912, Note_on_c, 3, 37, 96
5, 39936, Note_off_c, 3, 37, 0
5, 40448, Note_on_c, 3, 42, 96
5, 40960, Note_off_c, 3, 42, 0
5, 40960, Note_on_c, 3, 35, 96
5, 41984, Note_off_c, 3, 35, 0
5, 42496, Note_on_c, 3, 40, 96
5, 43008, Note_off_c, 3, 40, 0
5, 43008, Note_on_c, 3, 33, 96
5, 44032, Note_off_c, 3, 33, 0
5, 45056, Note_on_c, 3, 40, 96
5, 46080, Note_off_c, 3, 40, 0
5, 47104, Note_on_c, 3, 35, 96
5, 48128, Note_off_c, 3, 35, 0
5, 49152, Note_on_c, 3, 42, 96
5, 50176, Note_off_c, 3, 42, 0
5, 50688, Note_on_c, 3, 35, 96
5, 51200, Note_off_c, 3, 35, 0
5, 51200, Note_on_c, 3, 40, 96
5, 52224, Note_off_c, 3, 40, 0
5, 52736, Note_on_c, 3, 33, 96
5, 53248, Note_off_c, 3, 33, 0
5, 53248, Note_on_c, 3, 38, 96
5, 54272, Note_off_c, 3, 38, 0
5, 54784, Note_on_c, 3, 43, 96
5, 55808, Note_off_c, 3, 43, 0
5, 55808, Note_on_c, 3, 42, 96
5, 56064, Note_off_c, 3, 42, 0
5, 56064, Note_on_c, 3, 43, 96
5, 56320, Note_off_c, 3, 43, 0
5, 56320, Note_on_c, 3, 45, 96
5, 56832, Note_off_c, 3, 45, 0
5, 56832, Note_on_c, 3, 33, 96
5, 57344, Note_off_c, 3, 33, 0
5, 57344, Note_on_c, 3, 38, 96
5, 58368, Note_off_c, 3, 38, 0
5, 59904, Note_on_c, 3, 38, 96
5, 60416, Note_off_c, 3, 38, 0
5, 60416, Note_on_c, 3, 36, 96
5, 60928, Note_off_c, 3, 36, 0
5, 60928, Note_on_c, 3, 35, 96
5, 61440, Note_off_c, 3, 35, 0
5, 61440, Note_on_c, 3, 33, 96
5, 62464, Note_off_c, 3, 33, 0
5, 64000, Note_on_c, 3, 45, 96
5, 64512, Note_off_c, 3, 45, 0
5, 64512, Note_on_c, 3, 43, 96
5, 65024, Note_off_c, 3, 43, 0
5, 65024, Note_on_c, 3, 42, 96
5, 65536, Note_off_c, 3, 42, 0
5, 65536, Note_on_c, 3, 40, 96
5, 66560, Note_off_c, 3, 40, 0
5, 70144, Note_on_c, 3, 40, 96
5, 70656, Note_off_c, 3, 40, 0
5, 70656, Note_on_c, 3, 43, 96
5, 71168, Note_off_c, 3, 43, 0
5, 71168, Note_on_c, 3, 47, 96
5, 71680, Note_off_c, 3, 47, 0
5, 71680, Note_on_c, 3, 43, 96
5, 72192, Note_off_c, 3, 43, 0
5, 72192, Note_on_c, 3, 40, 96
5, 72704, Note_off_c, 3, 40, 0
5, 72704, Note_on_c, 3, 47, 96
5, 73216, Note_off_c, 3, 47, 0
5, 74240, Note_on_c, 3, 40, 96
5, 74752, Note_off_c, 3, 40, 0
5, 74752, Note_on_c, 3, 43, 96
5, 75264, Note_off_c, 3, 43, 0
5, 75264, Note_on_c, 3, 47, 96
5, 75776, Note_off_c, 3, 47, 0
5, 75776, Note_on_c, 3, 43, 96
5, 76288, Note_off_c, 3, 43, 0
5, 76288, Note_on_c, 3, 40, 96
5, 76800, Note_off_c, 3, 40, 0
5, 76800, Note_on_c, 3, 47, 96
5, 77312, Note_off_c, 3, 47, 0
5, 77312, Note_on_c, 3, 35, 96
5, 77824, Note_off_c, 3, 35, 0
5, 77824, Note_on_c, 3, 40, 96
5, 78848, Note_off_c, 3, 40, 0
5, 79360, Note_on_c, 3, 40, 96
5, 79872, Note_off_c, 3, 40, 0
5, 79872, Note_on_c, 3, 42, 96
5, 80896, Note_off_c, 3, 42, 0
5, 81408, Note_on_c, 3, 42, 96
5, 81920, Note_off_c, 3, 42, 0
5, 81920, Note_on_c, 3, 43, 96
5, 82944, Note_off_c, 3, 43, 0
5, 83456, Note_on_c, 3, 48, 96
5, 83968, Note_off_c, 3, 48, 0
5, 83968, Note_on_c, 3, 45, 96
5, 84480, Note_off_c, 3, 45, 0
5, 84480, Note_on_c, 3, 42, 96
5, 84992, Note_off_c, 3, 42, 0
5, 84992, Note_on_c, 3, 47, 96
5, 85504, Note_off_c, 3, 47, 0
5, 85504, Note_on_c, 3, 35, 96
5, 86016, Note_off_c, 3, 35, 0
5, 86016, Note_on_c, 3, 40, 96
5, 86528, Note_off_c, 3, 40, 0
5, 86528, Note_on_c, 3, 47, 96
5, 87040, Note_off_c, 3, 47, 0
5, 87040, Note_on_c, 3, 43, 96
5, 87552, Note_off_c, 3, 43, 0
5, 87552, Note_on_c, 3, 40, 96
5, 88064, Note_off_c, 3, 40, 0
5, 88064, Note_on_c, 3, 37, 96
5, 88576, Note_off_c, 3, 37, 0
5, 88576, Note_on_c, 3, 33, 96
5, 89088, Note_off_c, 3, 33, 0
5, 89088, Note_on_c, 3, 43, 96
5, 90112, Note_off_c, 3, 43, 0
5, 90112, Note_on_c, 3, 42, 96
5, 91136, Note_off_c, 3, 42, 0
5, 91136, Note_on_c, 3, 30, 96
5, 93184, Note_off_c, 3, 30, 0
5, 93184, Note_on_c, 3, 42, 96
5, 94208, Note_off_c, 3, 42, 0
5, 94208, Note_on_c, 3, 40, 96
5, 95232, Note_off_c, 3, 40, 0
5, 95232, Note_on_c, 3, 28, 96
5, 97280, Note_off_c, 3, 28, 0
5, 97280, Note_on_c, 3, 42, 96
5, 98304, Note_off_c, 3, 42, 0
5, 98304, Note_on_c, 3, 38, 96
5, 99328, Note_off_c, 3, 38, 0
5, 99328, Note_on_c, 3, 43, 96
5, 100352, Note_off_c, 3, 43, 0
5, 100352, Note_on_c, 3, 37, 96
5, 101376, Note_off_c, 3, 37, 0
5, 101376, Note_on_c, 3, 42, 96
5, 102400, Note_off_c, 3, 42, 0
5, 102400, Note_on_c, 3, 35, 96
5, 103424, Note_off_c, 3, 35, 0
5, 103424, Note_on_c, 3, 40, 96
5, 104960, Note_off_c, 3, 40, 0
5, 104960, Note_on_c, 3, 38, 96
5, 105216, Note_off_c, 3, 38, 0
5, 105216, Note_on_c, 3, 40, 96
5, 105472, Note_off_c, 3, 40, 0
5, 105472, Note_on_c, 3, 42, 96
5, 105984, Note_off_c, 3, 42, 0
5, 105984, Note_on_c, 3, 30, 96
5, 106496, Note_off_c, 3, 30, 0
5, 106496, Note_on_c, 3, 35, 96
5, 107520, Note_off_c, 3, 35, 0
5, 111104, Note_on_c, 3, 35, 96
5, 111616, Note_off_c, 3, 35, 0
5, 111616, Note_on_c, 3, 38, 96
5, 112128, Note_off_c, 3, 38, 0
5, 112128, Note_on_c, 3, 42, 96
5, 112640, Note_off_c, 3, 42, 0
5, 112640, Note_on_c, 3, 38, 96
5, 113152, Note_off_c, 3, 38, 0
5, 113152, Note_on_c, 3, 35, 96
5, 113664, Note_off_c, 3, 35, 0
5, 113664, Note_on_c, 3, 42, 96
5, 114176, Note_off_c, 3, 42, 0
5, 115200, Note_on_c, 3, 35, 96
5, 115712, Note_off_c, 3, 35, 0
5, 115712, Note_on_c, 3, 38, 96
5, 116224, Note_off_c, 3, 38, 0
5, 116224, Note_on_c, 3, 42, 96
5, 116736, Note_off_c, 3, 42, 0
5, 116736, Note_on_c, 3, 38, 96
5, 117248, Note_off_c, 3, 38, 0
5, 117248, Note_on_c, 3, 35, 96
5, 117760, Note_off_c, 3, 35, 0
5, 117760, Note_on_c, 3, 42, 96
5, 118272, Note_off_c, 3, 42, 0
5, 118272, Note_on_c, 3, 30, 96
5, 118784, Note_off_c, 3, 30, 0
5, 118784, Note_on_c, 3, 35, 96
5, 119808, Note_off_c, 3, 35, 0
5, 120320, Note_on_c, 3, 35, 96
5, 120832, Note_off_c, 3, 35, 0
5, 120832, Note_on_c, 3, 40, 96
5, 121344, Note_off_c, 3, 40, 0
5, 121344, Note_on_c, 3, 38, 96
5, 121856, Note_off_c, 3, 38, 0
5, 121856, Note_on_c, 3, 37, 96
5, 122368, Note_off_c, 3, 37, 0
5, 122368, Note_on_c, 3, 33, 96
5, 122880, Note_off_c, 3, 33, 0
5, 122880, Note_on_c, 3, 38, 96
5, 123392, Note_off_c, 3, 38, 0
5, 123392, Note_on_c, 3, 37, 96
5, 123904, Note_off_c, 3, 37, 0
5, 123904, Note_on_c, 3, 35, 96
5, 124416, Note_off_c, 3, 35, 0
5, 124416, Note_on_c, 3, 47, 96
5, 124928, Note_off_c, 3, 47, 0
5, 124928, Note_on_c, 3, 49, 96
5, 125440, Note_off_c, 3, 49, 0
5, 125440, Note_on_c, 3, 46, 96
5, 125952, Note_off_c, 3, 46, 0
5, 125952, Note_on_c, 3, 42, 96
5, 126464, Note_off_c, 3, 42, 0
5, 126464, Note_on_c, 3, 46, 96
5, 126976, Note_off_c, 3, 46, 0
5, 126976, Note_on_c, 3, 47, 96
5, 127488, Note_off_c, 3, 47, 0
5, 127488, Note_on_c, 3, 42, 96
5, 128000, Note_off_c, 3, 42, 0
5, 128000, Note_on_c, 3, 38, 96
5, 128512, Note_off_c, 3, 38, 0
5, 128512, Note_on_c, 3, 35, 96
5, 129024, Note_off_c, 3, 35, 0
5, 129024, Note_on_c, 3, 37, 96
5, 129536, Note_off_c, 3, 37, 0
5, 129536, Note_on_c, 3, 35, 96
5, 130048, Note_off_c, 3, 35, 0
5, 130048, Note_on_c, 3, 33, 96
5, 130560, Note_off_c, 3, 33, 0
5, 130560, Note_on_c, 3, 37, 96
5, 131072, Note_off_c, 3, 37, 0
5, 131072, Note_on_c, 3, 38, 96
5, 131584, Note_off_c, 3, 38, 0
5, 131584, Note_on_c, 3, 37, 96
5, 132096, Note_off_c, 3, 37, 0
5, 132096, Note_on_c, 3, 35, 96
5, 132608, Note_off_c, 3, 35, 0
5, 132608, Note_on_c, 3, 38, 96
5, 133120, Note_off_c, 3, 38, 0
5, 133120, Note_on_c, 3, 40, 96
5, 133632, Note_off_c, 3, 40, 0
5, 133632, Note_on_c, 3, 38, 96
5, 134144, Note_off_c, 3, 38, 0
5, 134144, Note_on_c, 3, 37, 96
5, 134656, Note_off_c, 3, 37, 0
5, 134656, Note_on_c, 3, 40, 96
5, 135168, Note_off_c, 3, 40, 0
5, 135168, Note_on_c, 3, 42, 96
5, 135680, Note_off_c, 3, 42, 0
5, 135680, Note_on_c, 3, 40, 96
5, 136192, Note_off_c, 3, 40, 0
5, 136192, Note_on_c, 3, 38, 96
5, 136704, Note_off_c, 3, 38, 0
5, 136704, Note_on_c, 3, 42, 96
5, 137216, Note_off_c, 3, 42, 0
5, 137216, Note_on_c, 3, 43, 96
5, 137728, Note_off_c, 3, 43, 0
5, 137728, Note_on_c, 3, 42, 96
5, 138240, Note_off_c, 3, 42, 0
5, 138240, Note_on_c, 3, 40, 96
5, 138752, Note_off_c, 3, 40, 0
5, 138752, Note_on_c, 3, 43, 96
5, 139264, Note_off_c, 3, 43, 0
5, 139264, Note_on_c, 3, 45, 96
5, 139776, Note_off_c, 3, 45, 0
5, 139776, Note_on_c, 3, 43, 96
5, 140288, Note_off_c, 3, 43, 0
5, 140288, Note_on_c, 3, 42, 96
5, 140800, Note_off_c, 3, 42, 0
5, 140800, Note_on_c, 3, 40, 96
5, 141312, Note_off_c, 3, 40, 0
5, 141312, Note_on_c, 3, 38, 96
5, 141824, Note_off_c, 3, 38, 0
5, 141824, Note_on_c, 3, 37, 96
5, 142336, Note_off_c, 3, 37, 0
5, 142336, Note_on_c, 3, 35, 96
5, 142848, Note_off_c, 3, 35, 0
5, 142848, Note_on_c, 3, 33, 96
5, 143360, Note_off_c, 3, 33, 0
5, 143360, Note_on_c, 3, 31, 96
5, 143872, Note_off_c, 3, 31, 0
5, 143872, Note_on_c, 3, 30, 96
5, 144384, Note_off_c, 3, 30, 0
5, 144384, Note_on_c, 3, 28, 96
5, 144896, Note_off_c, 3, 28, 0
5, 144896, Note_on_c, 3, 31, 96
5, 145408, Note_off_c, 3, 31, 0
5, 145408, Note_on_c, 3, 33, 96
5, 145920, Note_off_c, 3, 33, 0
5, 145920, Note_on_c, 3, 31, 96
5, 146432, Note_off_c, 3, 31, 0
5, 146432, Note_on_c, 3, 30, 96
5, 146944, Note_off_c, 3, 30, 0
5, 146944, Note_on_c, 3, 33, 96
5, 147456, Note_off_c, 3, 33, 0
5, 147456, Note_on_c, 3, 35, 96
5, 147968, Note_off_c, 3, 35, 0
5, 147968, Note_on_c, 3, 38, 96
5, 148480, Note_off_c, 3, 38, 0
5, 148480, Note_on_c, 3, 40, 96
5, 148992, Note_off_c, 3, 40, 0
5, 148992, Note_on_c, 3, 42, 96
5, 149504, Note_off_c, 3, 42, 0
5, 149504, Note_on_c, 3, 43, 96
5, 150016, Note_off_c, 3, 43, 0
5, 150016, Note_on_c, 3, 42, 96
5, 150528, Note_off_c, 3, 42, 0
5, 150528, Note_on_c, 3, 43, 96
5, 151040, Note_off_c, 3, 43, 0
5, 151040, Note_on_c, 3, 45, 96
5, 151552, Note_off_c, 3, 45, 0
5, 151552, Note_on_c, 3, 47, 96
5, 152064, Note_off_c, 3, 47, 0
5, 152064, Note_on_c, 3, 42, 96
5, 152576, Note_off_c, 3, 42, 0
5, 152576, Note_on_c, 3, 43, 96
5, 153088, Note_off_c, 3, 43, 0
5, 153088, Note_on_c, 3, 45, 96
5, 153600, Note_off_c, 3, 45, 0
5, 153600, Note_on_c, 3, 47, 96
5, 154112, Note_off_c, 3, 47, 0
5, 154112, Note_on_c, 3, 43, 96
5, 154624, Note_off_c, 3, 43, 0
5, 154624, Note_on_c, 3, 45, 96
5, 155136, Note_off_c, 3, 45, 0
5, 155136, Note_on_c, 3, 33, 96
5, 155648, Note_off_c, 3, 33, 0
5, 155648, Note_on_c, 3, 38, 96
5, 156672, Note_off_c, 3, 38, 0
5, 160256, Note_on_c, 3, 50, 96
5, 160768, Note_off_c, 3, 50, 0
5, 160768, Note_on_c, 3, 48, 96
5, 161280, Note_off_c, 3, 48, 0
5, 161280, Note_on_c, 3, 47, 96
5, 161792, Note_off_c, 3, 47, 0
5, 161792, Note_on_c, 3, 45, 96
5, 162304, Note_off_c, 3, 45, 0
5, 162304, Note_on_c, 3, 43, 96
5, 162816, Note_off_c, 3, 43, 0
5, 162816, Note_on_c, 3, 42, 96
5, 163328, Note_off_c, 3, 42, 0
5, 163328, Note_on_c, 3, 38, 96
5, 163840, Note_off_c, 3, 38, 0
5, 163840, Note_on_c, 3, 43, 96
5, 164864, Note_off_c, 3, 43, 0
5, 168448, Note_on_c, 3, 43, 96
5, 168960, Note_off_c, 3, 43, 0
5, 168960, Note_on_c, 3, 41, 96
5, 169472, Note_off_c, 3, 41, 0
5, 169472, Note_on_c, 3, 40, 96
5, 169984, Note_off_c, 3, 40, 0
5, 169984, Note_on_c, 3, 38, 96
5, 170496, Note_off_c, 3, 38, 0
5, 170496, Note_on_c, 3, 36, 96
5, 171008, Note_off_c, 3, 36, 0
5, 171008, Note_on_c, 3, 35, 96
5, 171520, Note_off_c, 3, 35, 0
5, 171520, Note_on_c, 3, 31, 96
5, 172032, Note_off_c, 3, 31, 0
5, 172032, Note_on_c, 3, 36, 96
5, 172544, Note_off_c, 3, 36, 0
5, 172544, Note_on_c, 3, 36, 96
5, 173056, Note_off_c, 3, 36, 0
5, 173056, Note_on_c, 3, 40, 96
5, 173568, Note_off_c, 3, 40, 0
5, 173568, Note_on_c, 3, 43, 96
5, 174080, Note_off_c, 3, 43, 0
5, 174080, Note_on_c, 3, 40, 96
5, 174592, Note_off_c, 3, 40, 0
5, 174592, Note_on_c, 3, 36, 96
5, 175104, Note_off_c, 3, 36, 0
5, 175104, Note_on_c, 3, 43, 96
5, 175616, Note_off_c, 3, 43, 0
5, 176640, Note_on_c, 3, 36, 96
5, 177152, Note_off_c, 3, 36, 0
5, 177152, Note_on_c, 3, 40, 96
5, 177664, Note_off_c, 3, 40, 0
5, 177664, Note_on_c, 3, 43, 96
5, 178176, Note_off_c, 3, 43, 0
5, 178176, Note_on_c, 3, 40, 96
5, 178688, Note_off_c, 3, 40, 0
5, 178688, Note_on_c, 3, 36, 96
5, 179200, Note_off_c, 3, 36, 0
5, 179200, Note_on_c, 3, 43, 96
5, 179712, Note_off_c, 3, 43, 0
5, 179712, Note_on_c, 3, 31, 96
5, 180224, Note_off_c, 3, 31, 0
5, 180224, Note_on_c, 3, 36, 96
5, 181248, Note_off_c, 3, 36, 0
5, 181760, Note_on_c, 3, 48, 96
5, 182272, Note_off_c, 3, 48, 0
5, 182272, Note_on_c, 3, 47, 96
5, 183296, Note_off_c, 3, 47, 0
5, 183808, Note_on_c, 3, 40, 96
5, 184320, Note_off_c, 3, 40, 0
5, 184320, Note_on_c, 3, 45, 96
5, 185344, Note_off_c, 3, 45, 0
5, 185856, Note_on_c, 3, 38, 96
5, 186368, Note_off_c, 3, 38, 0
5, 186368, Note_on_c, 3, 43, 96
5, 187392, Note_off_c, 3, 43, 0
5, 187904, Note_on_c, 3, 43, 96
5, 188416, Note_off_c, 3, 43, 0
5, 188416, Note_on_c, 3, 42, 96
5, 189440, Note_off_c, 3, 42, 0
5, 189952, Note_on_c, 3, 47, 96
5, 190464, Note_off_c, 3, 47, 0
5, 190464, Note_on_c, 3, 40, 96
5, 191488, Note_off_c, 3, 40, 0
5, 192000, Note_on_c, 3, 45, 96
5, 192512, Note_off_c, 3, 45, 0
5, 192512, Note_on_c, 3, 38, 96
5, 193536, Note_off_c, 3, 38, 0
5, 194560, Note_on_c, 3, 33, 96
5, 195584, Note_off_c, 3, 33, 0
5, 196608, Note_on_c, 3, 40, 96
5, 197632, Note_off_c, 3, 40, 0
5, 198656, Note_on_c, 3, 35, 96
5, 199680, Note_off_c, 3, 35, 0
5, 200192, Note_on_c, 3, 40, 96
5, 200704, Note_off_c, 3, 40, 0
5, 200704, Note_on_c, 3, 45, 96
5, 201728, Note_off_c, 3, 45, 0
5, 202240, Note_on_c, 3, 38, 96
5, 202752, Note_off_c, 3, 38, 0
5, 202752, Note_on_c, 3, 43, 96
5, 203776, Note_off_c, 3, 43, 0
5, 203776, Note_on_c, 3, 36, 96
5, 204800, Note_off_c, 3, 36, 0
5, 204800, Note_on_c, 3, 38, 96
5, 205312, Note_off_c, 3, 38, 0
5, 205312, Note_on_c, 3, 31, 96
5, 205824, Note_off_c, 3, 31, 0
5, 205824, Note_on_c, 3, 38, 96
5, 206336, Note_off_c, 3, 38, 0
5, 206336, Note_on_c, 3, 26, 96
5, 206848, Note_off_c, 3, 26, 0
5, 206848, Note_on_c, 3, 31, 96
5, 207360, Note_off_c, 3, 31, 0
5, 210944, Note_on_c, 3, 31, 96
5, 212992, Note_off_c, 3, 31, 0
5, 212992, Note_on_c, 3, 35, 96
5, 214016, Note_off_c, 3, 35, 0
5, 214016, Note_on_c, 3, 38, 96
5, 215040, Note_off_c, 3, 38, 0
5, 215040, Note_on_c, 3, 35, 96
5, 216576, Note_off_c, 3, 35, 0
5, 216576, Note_on_c, 3, 33, 96
5, 217088, Note_off_c, 3, 33, 0
5, 217088, Note_on_c, 3, 35, 96
5, 218112, Note_off_c, 3, 35, 0
5, 218112, Note_on_c, 3, 37, 96
5, 219136, Note_off_c, 3, 37, 0
5, 219136, Note_on_c, 3, 38, 96
5, 223232, Note_off_c, 3, 38, 0
5, 227328, Note_on_c, 3, 40, 96
5, 229376, Note_off_c, 3, 40, 0
5, 229376, Note_on_c, 3, 38, 96
5, 229888, Note_off_c, 3, 38, 0
5, 229888, Note_on_c, 3, 36, 96
5, 230400, Note_off_c, 3, 36, 0
5, 230400, Note_on_c, 3, 35, 96
5, 231424, Note_off_c, 3, 35, 0
5, 231424, Note_on_c, 3, 33, 96
5, 232448, Note_off_c, 3, 33, 0
5, 232448, Note_on_c, 3, 31, 96
5, 234496, Note_off_c, 3, 31, 0
5, 234496, Note_on_c, 3, 30, 96
5, 235520, Note_off_c, 3, 30, 0
5, 235520, Note_on_c, 3, 31, 96
5, 239616, Note_off_c, 3, 31, 0
5, 251904, Note_on_c, 3, 33, 96
5, 253952, Note_off_c, 3, 33, 0
5, 253952, Note_on_c, 3, 35, 96
5, 254976, Note_off_c, 3, 35, 0
5, 254976, Note_on_c, 3, 35, 96
5, 256000, Note_off_c, 3, 35, 0
5, 256000, Note_on_c, 3, 33, 96
5, 257024, Note_off_c, 3, 33, 0
5, 257024, Note_on_c, 3, 38, 96
5, 259072, Note_off_c, 3, 38, 0
5, 259072, Note_on_c, 3, 37, 96
5, 260096, Note_off_c, 3, 37, 0
5, 260096, Note_on_c, 3, 38, 96
5, 264192, Note_off_c, 3, 38, 0
5, 272384, Note_on_c, 3, 35, 96
5, 274432, Note_off_c, 3, 35, 0
5, 274432, Note_on_c, 3, 36, 96
5, 275456, Note_off_c, 3, 36, 0
5, 275456, Note_on_c, 3, 35, 96
5, 276480, Note_off_c, 3, 35, 0
5, 276480, Note_on_c, 3, 33, 96
5, 277504, Note_off_c, 3, 33, 0
5, 277504, Note_on_c, 3, 31, 96
5, 279552, Note_off_c, 3, 31, 0
5, 279552, Note_on_c, 3, 30, 96
5, 280576, Note_off_c, 3, 30, 0
5, 280576, Note_on_c, 3, 31, 96
5, 287232, Note_off_c, 3, 31, 0
5, 287232, Note_on_c, 3, 29, 96
5, 287744, Note_off_c, 3, 29, 0
5, 287744, Note_on_c, 3, 28, 96
5, 288256, Note_off_c, 3, 28, 0
5, 288256, Note_on_c, 3, 26, 96
5, 288768, Note_off_c, 3, 26, 0
5, 288768, Note_on_c, 3, 24, 96
5, 289280, Note_off_c, 3, 24, 0
5, 289280, Note_on_c, 3, 36, 96
5, 289792, Note_off_c, 3, 36, 0
5, 289792, Note_on_c, 3, 40, 96
5, 290304, Note_off_c, 3, 40, 0
5, 290304, Note_on_c, 3, 43, 96
5, 290816, Note_off_c, 3, 43, 0
5, 290816, Note_on_c, 3, 40, 96
5, 291328, Note_off_c, 3, 40, 0
5, 291328, Note_on_c, 3, 36, 96
5, 291840, Note_off_c, 3, 36, 0
5, 291840, Note_on_c, 3, 43, 96
5, 292864, Note_off_c, 3, 43, 0
5, 293376, Note_on_c, 3, 36, 96
5, 293888, Note_off_c, 3, 36, 0
5, 293888, Note_on_c, 3, 40, 96
5, 294400, Note_off_c, 3, 40, 0
5, 294400, Note_on_c, 3, 43, 96
5, 294912, Note_off_c, 3, 43, 0
5, 294912, Note_on_c, 3, 40, 96
5, 295424, Note_off_c, 3, 40, 0
5, 295424, Note_on_c, 3, 36, 96
5, 295936, Note_off_c, 3, 36, 0
5, 295936, Note_on_c, 3, 43, 96
5, 296960, Note_off_c, 3, 43, 0
5, 296960, Note_on_c, 3, 31, 96
5, 300032, Note_off_c, 3, 31, 0
5, 300032, End_track
6, 0, Start_track
6, 0, Title_t, "Instrument 5"
6, 210944, Note_on_c, 4, 43, 96
6, 212992, Note_off_c, 4, 43, 0
6, 212992, Note_on_c, 4, 47, 96
6, 214016, Note_off_c, 4, 47, 0
6, 214016, Note_on_c, 4, 50, 96
6, 215040, Note_off_c, 4, 50, 0
6, 215040, Note_on_c, 4, 47, 96
6, 216576, Note_off_c, 4, 47, 0
6, 216576, Note_on_c, 4, 45, 96
6, 217088, Note_off_c, 4, 45, 0
6, 217088, Note_on_c, 4, 47, 96
6, 218112, Note_off_c, 4, 47, 0
6, 218112, Note_on_c, 4, 49, 96
6, 219136, Note_off_c, 4, 49, 0
6, 219136, Note_on_c, 4, 50, 96
6, 223232, Note_off_c, 4, 50, 0
6, 227328, Note_on_c, 4, 52, 96
6, 229376, Note_off_c, 4, 52, 0
6, 229376, Note_on_c, 4, 50, 96
6, 229888, Note_off_c, 4, 50, 0
6, 229888, Note_on_c, 4, 48, 96
6, 230400, Note_off_c, 4, 48, 0
6, 230400, Note_on_c, 4, 47, 96
6, 231424, Note_off_c, 4, 47, 0
6, 231424, Note_on_c, 4, 45, 96
6, 232448, Note_off_c, 4, 45, 0
6, 232448, Note_on_c, 4, 43, 96
6, 234496, Note_off_c, 4, 43, 0
6, 234496, Note_on_c, 4, 42, 96
6, 235520, Note_off_c, 4, 42, 0
6, 235520, Note_on_c, 4, 43, 96
6, 239616, Note_off_c, 4, 43, 0
6, 251904, Note_on_c, 4, 45, 96
6, 253952, Note_off_c, 4, 45, 0
6, 253952, Note_on_c, 4, 47, 96
6, 254976, Note_off_c, 4, 47, 0
6, 254976, Note_on_c, 4, 47, 96
6, 256000, Note_off_c, 4, 47, 0
6, 256000, Note_on_c, 4, 45, 96
6, 257024, Note_off_c, 4, 45, 0
6, 257024, Note_on_c, 4, 50, 96
6, 259072, Note_off_c, 4, 50, 0
6, 259072, Note_on_c, 4, 49, 96
6, 260096, Note_off_c, 4, 49, 0
6, 260096, Note_on_c, 4, 50, 96
6, 264192, Note_off_c, 4, 50, 0
6, 272384, Note_on_c, 4, 47, 96
6, 274432, Note_off_c, 4, 47, 0
6, 274432, Note_on_c, 4, 48, 96
6, 275456, Note_off_c, 4, 48, 0
6, 275456, Note_on_c, 4, 47, 96
6, 276480, Note_off_c, 4, 47, 0
6, 276480, Note_on_c, 4, 45, 96
6, 277504, Note_off_c, 4, 45, 0
6, 277504, Note_on_c, 4, 43, 96
6, 279552, Note_off_c, 4, 43, 0
6, 279552, Note_on_c, 4, 42, 96
6, 280576, Note_off_c, 4, 42, 0
6, 280576, Note_on_c, 4, 43, 96
6, 287232, Note_off_c, 4, 43, 0
6, 300032, End_track
7, 0, Start_track
7, 0, Title_t, "Instrument 6"
7, 210944, Note_on_c, 5, 31, 96
7, 212992, Note_off_c, 5, 31, 0
7, 212992, Note_on_c, 5, 35, 96
7, 214016, Note_off_c, 5, 35, 0
7, 214016, Note_on_c, 5, 38, 96
7, 215040, Note_off_c, 5, 38, 0
7, 215040, Note_on_c, 5, 35, 96
7, 216576, Note_off_c, 5, 35, 0
7, 216576, Note_on_c, 5, 33, 96
7, 217088, Note_off_c, 5, 33, 0
7, 217088, Note_on_c, 5, 35, 96
7, 218112, Note_off_c, 5, 35, 0
7, 218112, Note_on_c, 5, 37, 96
7, 219136, Note_off_c, 5, 37, 0
7, 219136, Note_on_c, 5, 38, 96
7, 223232, Note_off_c, 5, 38, 0
7, 227328, Note_on_c, 5, 40, 96
7, 229376, Note_off_c, 5, 40, 0
7, 229376, Note_on_c, 5, 38, 96
7, 229888, Note_off_c, 5, 38, 0
7, 229888, Note_on_c, 5, 36, 96
7, 230400, Note_off_c, 5, 36, 0
7, 230400, Note_on_c, 5, 35, 96
7, 231424, Note_off_c, 5, 35, 0
7, 231424, Note_on_c, 5, 33, 96
7, 232448, Note_off_c, 5, 33, 0
7, 232448, Note_on_c, 5, 31, 96
7, 234496, Note_off_c, 5, 31, 0
7, 234496, Note_on_c, 5, 30, 96
7, 235520, Note_off_c, 5, 30, 0
7, 235520, Note_on_c, 5, 31, 96
7, 239616, Note_off_c, 5, 31, 0
7, 251904, Note_on_c, 5, 33, 96
7, 253952, Note_off_c, 5, 33, 0
7, 253952, Note_on_c, 5, 35, 96
7, 254976, Note_off_c, 5, 35, 0
7, 254976, Note_on_c, 5, 35, 96
7, 256000, Note_off_c, 5, 35, 0
7, 256000, Note_on_c, 5, 33, 96
7, 257024, Note_off_c, 5, 33, 0
7, 257024, Note_on_c, 5, 38, 96
7, 259072, Note_off_c, 5, 38, 0
7, 259072, Note_on_c, 5, 37, 96
7, 260096, Note_off_c, 5, 37, 0
7, 260096, Note_on_c, 5, 38, 96
7, 264192, Note_off_c, 5, 38, 0
7, 272384, Note_on_c, 5, 35, 96
7, 274432, Note_off_c, 5, 35, 0
7, 274432, Note_on_c, 5, 36, 96
7, 275456, Note_off_c, 5, 36, 0
7, 275456, Note_on_c, 5, 35, 96
7, 276480, Note_off_c, 5, 35, 0
7, 276480, Note_on_c, 5, 33, 96
7, 277504, Note_off_c, 5, 33, 0
7, 277504, Note_on_c, 5, 31, 96
7, 279552, Note_off_c, 5, 31, 0
7, 279552, Note_on_c, 5, 30, 96
7, 280576, Note_off_c, 5, 30, 0
7, 280576, Note_on_c, 5, 31, 96
7, 287232, Note_off_c, 5, 31, 0
7, 300032, End_track
0, 0, End_of_file
