0, 0, Header, 1, 5, 240
1, 0, Start_track
1, 0, Title_t, "untitled"
1, 0, Time_signature, 9, 3, 12, 8
1, 0, Key_signature, 0, "major"
1, 0, Tempo, 674157
1, 28080, Tempo, 689655
1, 28440, Tempo, 722892
1, 28800, Tempo, 769231
1, 28920, Tempo, 869565
1, 29040, Tempo, 1132075
1, 29096, Tempo, 1363636
1, 29160, Tempo, 821918
1, 29160, End_track
2, 0, Start_track
2, 0, Title_t, "RH B"
2, 0, Program_c, 1, 0
2, 0, Note_on_c, 1, 69, 64
2, 60, Note_on_c, 1, 69, 0
2, 60, Note_on_c, 1, 71, 64
2, 120, Note_on_c, 1, 71, 0
2, 120, Note_on_c, 1, 72, 64
2, 240, Note_on_c, 1, 72, 0
2, 240, Note_on_c, 1, 76, 64
2, 360, Note_on_c, 1, 76, 0
2, 360, Note_on_c, 1, 72, 64
2, 480, Note_on_c, 1, 72, 0
2, 480, Note_on_c, 1, 69, 64
2, 600, Note_on_c, 1, 69, 0
2, 600, Note_on_c, 1, 64, 64
2, 720, Note_on_c, 1, 64, 0
2, 720, Note_on_c, 1, 69, 64
2, 840, Note_on_c, 1, 69, 0
2, 840, Note_on_c, 1, 72, 64
2, 960, Note_on_c, 1, 72, 0
2, 960, Note_on_c, 1, 76, 64
2, 1080, Note_on_c, 1, 76, 0
2, 1080, Note_on_c, 1, 71, 64
2, 1140, Note_on_c, 1, 71, 0
2, 1140, Note_on_c, 1, 72, 64
2, 1200, Note_on_c, 1, 72, 0
2, 1200, Note_on_c, 1, 74, 64
2, 1320, Note_on_c, 1, 74, 0
2, 1320, Note_on_c, 1, 77, 64
2, 1440, Note_on_c, 1, 77, 0
2, 1440, Note_on_c, 1, 74, 64
2, 1560, Note_on_c, 1, 74, 0
2, 1560, Note_on_c, 1, 71, 64
2, 1680, Note_on_c, 1, 71, 0
2, 1680, Note_on_c, 1, 68, 64
2, 1800, Note_on_c, 1, 68, 0
2, 1800, Note_on_c, 1, 71, 64
2, 1920, Note_on_c, 1, 71, 0
2, 1920, Note_on_c, 1, 74, 64
2, 2040, Note_on_c, 1, 74, 0
2, 2040, Note_on_c, 1, 77, 64
2, 2160, Note_on_c, 1, 77, 0
2, 2160, Note_on_c, 1, 74, 64
2, 2220, Note_on_c, 1, 74, 0
2, 2220, Note_on_c, 1, 76, 64
2, 2280, Note_on_c, 1, 76, 0
2, 2280, Note_on_c, 1, 77, 64
2, 2400, Note_on_c, 1, 77, 0
2, 2400, Note_on_c, 1, 80, 64
2, 2520, Note_on_c, 1, 80, 0
2, 2520, Note_on_c, 1, 77, 64
2, 2640, Note_on_c, 1, 77, 0
2, 2640, Note_on_c, 1, 74, 64
2, 2760, Note_on_c, 1, 74, 0
2, 2760, Note_on_c, 1, 71, 64
2, 2880, Note_on_c, 1, 71, 0
2, 2880, Note_on_c, 1, 74, 64
2, 3000, Note_on_c, 1, 74, 0
2, 3000, Note_on_c, 1, 77, 64
2, 3120, Note_on_c, 1, 77, 0
2, 3120, Note_on_c, 1, 80, 64
2, 3240, Note_on_c, 1, 80, 0
2, 3240, Note_on_c, 1, 81, 64
2, 3360, Note_on_c, 1, 81, 0
2, 3360, Note_on_c, 1, 79, 64
2, 3420, Note_on_c, 1, 79, 0
2, 3420, Note_on_c, 1, 77, 64
2, 3480, Note_on_c, 1, 77, 0
2, 3480, Note_on_c, 1, 76, 64
2, 3540, Note_on_c, 1, 76, 0
2, 3540, Note_on_c, 1, 74, 64
2, 3600, Note_on_c, 1, 74, 0
2, 3600, Note_on_c, 1, 72, 64
2, 3720, Note_on_c, 1, 72, 0
2, 4320, Note_on_c, 1, 71, 64
2, 4320, Note_on_c, 1, 76, 64
2, 4320, Note_on_c, 1, 79, 64
2, 4680, Note_on_c, 1, 79, 0
2, 4680, Note_on_c, 1, 76, 0
2, 4680, Note_on_c, 1, 71, 0
2, 4680, Note_on_c, 1, 76, 64
2, 4740, Note_on_c, 1, 76, 0
2, 4740, Note_on_c, 1, 75, 64
2, 4800, Note_on_c, 1, 75, 0
2, 4800, Note_on_c, 1, 76, 64
2, 4860, Note_on_c, 1, 76, 0
2, 4860, Note_on_c, 1, 75, 64
2, 4920, Note_on_c, 1, 75, 0
2, 4920, Note_on_c, 1, 76, 64
2, 4980, Note_on_c, 1, 76, 0
2, 4980, Note_on_c, 1, 75, 64
2, 5040, Note_on_c, 1, 75, 0
2, 5040, Note_on_c, 1, 76, 64
2, 5100, Note_on_c, 1, 76, 0
2, 5100, Note_on_c, 1, 71, 64
2, 5160, Note_on_c, 1, 71, 0
2, 5160, Note_on_c, 1, 69, 64
2, 5220, Note_on_c, 1, 69, 0
2, 5220, Note_on_c, 1, 67, 64
2, 5280, Note_on_c, 1, 67, 0
2, 5280, Note_on_c, 1, 66, 64
2, 5340, Note_on_c, 1, 66, 0
2, 5340, Note_on_c, 1, 64, 64
2, 5400, Note_on_c, 1, 72, 64
2, 5400, Note_on_c, 1, 69, 64
2, 5760, Note_on_c, 1, 69, 0
2, 5760, Note_on_c, 1, 64, 0
2, 5820, Note_on_c, 1, 72, 0
2, 5820, Note_on_c, 1, 71, 64
2, 5880, Note_on_c, 1, 71, 0
2, 5880, Note_on_c, 1, 72, 64
2, 5940, Note_on_c, 1, 72, 0
2, 5940, Note_on_c, 1, 71, 64
2, 6000, Note_on_c, 1, 71, 0
2, 6000, Note_on_c, 1, 72, 64
2, 6060, Note_on_c, 1, 72, 0
2, 6060, Note_on_c, 1, 71, 64
2, 6120, Note_on_c, 1, 71, 0
2, 6120, Note_on_c, 1, 72, 64
2, 6180, Note_on_c, 1, 72, 0
2, 6180, Note_on_c, 1, 79, 64
2, 6240, Note_on_c, 1, 79, 0
2, 6240, Note_on_c, 1, 78, 64
2, 6300, Note_on_c, 1, 78, 0
2, 6300, Note_on_c, 1, 76, 64
2, 6360, Note_on_c, 1, 76, 0
2, 6360, Note_on_c, 1, 75, 64
2, 6420, Note_on_c, 1, 75, 0
2, 6420, Note_on_c, 1, 76, 64
2, 6480, Note_on_c, 1, 76, 0
2, 6480, Note_on_c, 1, 75, 64
2, 6480, Note_on_c, 1, 66, 64
2, 6480, Note_on_c, 1, 72, 64
2, 6480, Note_on_c, 1, 69, 64
2, 6840, Note_on_c, 1, 69, 0
2, 6840, Note_on_c, 1, 72, 0
2, 6840, Note_on_c, 1, 66, 0
2, 6900, Note_on_c, 1, 75, 0
2, 6900, Note_on_c, 1, 76, 64
2, 6960, Note_on_c, 1, 76, 0
2, 6960, Note_on_c, 1, 78, 64
2, 7020, Note_on_c, 1, 78, 0
2, 7020, Note_on_c, 1, 76, 64
2, 7080, Note_on_c, 1, 76, 0
2, 7080, Note_on_c, 1, 78, 64
2, 7140, Note_on_c, 1, 78, 0
2, 7140, Note_on_c, 1, 76, 64
2, 7200, Note_on_c, 1, 76, 0
2, 7200, Note_on_c, 1, 78, 64
2, 7260, Note_on_c, 1, 78, 0
2, 7260, Note_on_c, 1, 76, 64
2, 7320, Note_on_c, 1, 76, 0
2, 7320, Note_on_c, 1, 75, 64
2, 7380, Note_on_c, 1, 75, 0
2, 7380, Note_on_c, 1, 78, 64
2, 7440, Note_on_c, 1, 78, 0
2, 7440, Note_on_c, 1, 71, 64
2, 7500, Note_on_c, 1, 71, 0
2, 7500, Note_on_c, 1, 69, 64
2, 7560, Note_on_c, 1, 69, 0
2, 7560, Note_on_c, 1, 67, 64
2, 8040, Note_on_c, 1, 67, 0
2, 8040, Note_on_c, 1, 64, 64
2, 8160, Note_on_c, 1, 64, 0
2, 8160, Note_on_c, 1, 67, 64
2, 8280, Note_on_c, 1, 67, 0
2, 8280, Note_on_c, 1, 71, 64
2, 8400, Note_on_c, 1, 71, 0
2, 8400, Note_on_c, 1, 76, 64
2, 8520, Note_on_c, 1, 76, 0
2, 8520, Note_on_c, 1, 70, 64
2, 8640, Note_on_c, 1, 70, 0
2, 8640, Note_on_c, 1, 79, 64
2, 8640, Note_on_c, 1, 71, 64
2, 8640, Note_on_c, 1, 76, 64
2, 9000, Note_on_c, 1, 76, 0
2, 9000, Note_on_c, 1, 71, 0
2, 9060, Note_on_c, 1, 79, 0
2, 9060, Note_on_c, 1, 78, 64
2, 9120, Note_on_c, 1, 78, 0
2, 9120, Note_on_c, 1, 79, 64
2, 9180, Note_on_c, 1, 79, 0
2, 9180, Note_on_c, 1, 78, 64
2, 9240, Note_on_c, 1, 78, 0
2, 9240, Note_on_c, 1, 79, 64
2, 9300, Note_on_c, 1, 79, 0
2, 9300, Note_on_c, 1, 78, 64
2, 9360, Note_on_c, 1, 78, 0
2, 9360, Note_on_c, 1, 79, 64
2, 9420, Note_on_c, 1, 79, 0
2, 9420, Note_on_c, 1, 77, 64
2, 9480, Note_on_c, 1, 77, 0
2, 9480, Note_on_c, 1, 76, 64
2, 9540, Note_on_c, 1, 76, 0
2, 9540, Note_on_c, 1, 74, 64
2, 9600, Note_on_c, 1, 74, 0
2, 9600, Note_on_c, 1, 73, 64
2, 9660, Note_on_c, 1, 73, 0
2, 9660, Note_on_c, 1, 71, 64
2, 9720, Note_on_c, 1, 71, 0
2, 9720, Note_on_c, 1, 77, 64
2, 9720, Note_on_c, 1, 69, 64
2, 9720, Note_on_c, 1, 74, 64
2, 10080, Note_on_c, 1, 74, 0
2, 10080, Note_on_c, 1, 69, 0
2, 10140, Note_on_c, 1, 77, 0
2, 10140, Note_on_c, 1, 76, 64
2, 10200, Note_on_c, 1, 76, 0
2, 10200, Note_on_c, 1, 77, 64
2, 10260, Note_on_c, 1, 77, 0
2, 10260, Note_on_c, 1, 76, 64
2, 10320, Note_on_c, 1, 76, 0
2, 10320, Note_on_c, 1, 77, 64
2, 10380, Note_on_c, 1, 77, 0
2, 10380, Note_on_c, 1, 76, 64
2, 10440, Note_on_c, 1, 76, 0
2, 10440, Note_on_c, 1, 77, 64
2, 10500, Note_on_c, 1, 77, 0
2, 10500, Note_on_c, 1, 76, 64
2, 10560, Note_on_c, 1, 76, 0
2, 10560, Note_on_c, 1, 74, 64
2, 10620, Note_on_c, 1, 74, 0
2, 10620, Note_on_c, 1, 72, 64
2, 10680, Note_on_c, 1, 72, 0
2, 10680, Note_on_c, 1, 71, 64
2, 10740, Note_on_c, 1, 71, 0
2, 10740, Note_on_c, 1, 69, 64
2, 10800, Note_on_c, 1, 69, 0
2, 10800, Note_on_c, 1, 76, 64
2, 10800, Note_on_c, 1, 72, 64
2, 10800, Note_on_c, 1, 67, 64
2, 11160, Note_on_c, 1, 67, 0
2, 11160, Note_on_c, 1, 72, 0
2, 11220, Note_on_c, 1, 76, 0
2, 11220, Note_on_c, 1, 74, 64
2, 11280, Note_on_c, 1, 74, 0
2, 11280, Note_on_c, 1, 76, 64
2, 11340, Note_on_c, 1, 76, 0
2, 11340, Note_on_c, 1, 74, 64
2, 11400, Note_on_c, 1, 74, 0
2, 11400, Note_on_c, 1, 76, 64
2, 11460, Note_on_c, 1, 76, 0
2, 11460, Note_on_c, 1, 74, 64
2, 11520, Note_on_c, 1, 74, 0
2, 11520, Note_on_c, 1, 72, 64
2, 11580, Note_on_c, 1, 72, 0
2, 11580, Note_on_c, 1, 79, 64
2, 11640, Note_on_c, 1, 79, 0
2, 11640, Note_on_c, 1, 77, 64
2, 11700, Note_on_c, 1, 77, 0
2, 11700, Note_on_c, 1, 76, 64
2, 11760, Note_on_c, 1, 76, 0
2, 11760, Note_on_c, 1, 74, 64
2, 11820, Note_on_c, 1, 74, 0
2, 11820, Note_on_c, 1, 72, 64
2, 11880, Note_on_c, 1, 72, 0
2, 11880, Note_on_c, 1, 71, 64
2, 11940, Note_on_c, 1, 71, 0
2, 11940, Note_on_c, 1, 76, 64
2, 12000, Note_on_c, 1, 76, 0
2, 12000, Note_on_c, 1, 74, 64
2, 12060, Note_on_c, 1, 74, 0
2, 12060, Note_on_c, 1, 72, 64
2, 12120, Note_on_c, 1, 72, 0
2, 12120, Note_on_c, 1, 71, 64
2, 12180, Note_on_c, 1, 71, 0
2, 12180, Note_on_c, 1, 69, 64
2, 12240, Note_on_c, 1, 69, 0
2, 12240, Note_on_c, 1, 67, 64
2, 12300, Note_on_c, 1, 67, 0
2, 12300, Note_on_c, 1, 72, 64
2, 12360, Note_on_c, 1, 72, 0
2, 12360, Note_on_c, 1, 71, 64
2, 12420, Note_on_c, 1, 71, 0
2, 12420, Note_on_c, 1, 69, 64
2, 12480, Note_on_c, 1, 69, 0
2, 12480, Note_on_c, 1, 67, 64
2, 12540, Note_on_c, 1, 67, 0
2, 12540, Note_on_c, 1, 65, 64
2, 12600, Note_on_c, 1, 65, 0
2, 12600, Note_on_c, 1, 64, 64
2, 12660, Note_on_c, 1, 64, 0
2, 12660, Note_on_c, 1, 69, 64
2, 12720, Note_on_c, 1, 69, 0
2, 12720, Note_on_c, 1, 67, 64
2, 12780, Note_on_c, 1, 67, 0
2, 12780, Note_on_c, 1, 65, 64
2, 12840, Note_on_c, 1, 65, 0
2, 12840, Note_on_c, 1, 64, 64
2, 12900, Note_on_c, 1, 64, 0
2, 12900, Note_on_c, 1, 62, 64
2, 12960, Note_on_c, 1, 62, 0
2, 12960, Note_on_c, 1, 64, 64
2, 13020, Note_on_c, 1, 64, 0
2, 13020, Note_on_c, 1, 65, 64
2, 13080, Note_on_c, 1, 65, 0
2, 13080, Note_on_c, 1, 67, 64
2, 13200, Note_on_c, 1, 67, 0
2, 13200, Note_on_c, 1, 72, 64
2, 13320, Note_on_c, 1, 72, 0
2, 13320, Note_on_c, 1, 67, 64
2, 13440, Note_on_c, 1, 67, 0
2, 13440, Note_on_c, 1, 64, 64
2, 13560, Note_on_c, 1, 64, 0
2, 13560, Note_on_c, 1, 60, 64
2, 13680, Note_on_c, 1, 60, 0
2, 13680, Note_on_c, 1, 64, 64
2, 13800, Note_on_c, 1, 64, 0
2, 13800, Note_on_c, 1, 67, 64
2, 13920, Note_on_c, 1, 67, 0
2, 13920, Note_on_c, 1, 72, 64
2, 14040, Note_on_c, 1, 72, 0
2, 14040, Note_on_c, 1, 65, 64
2, 14100, Note_on_c, 1, 65, 0
2, 14100, Note_on_c, 1, 67, 64
2, 14160, Note_on_c, 1, 67, 0
2, 14160, Note_on_c, 1, 69, 64
2, 14280, Note_on_c, 1, 69, 0
2, 14280, Note_on_c, 1, 72, 64
2, 14400, Note_on_c, 1, 72, 0
2, 14400, Note_on_c, 1, 69, 64
2, 14520, Note_on_c, 1, 69, 0
2, 14520, Note_on_c, 1, 65, 64
2, 14640, Note_on_c, 1, 65, 0
2, 14640, Note_on_c, 1, 60, 64
2, 14760, Note_on_c, 1, 60, 0
2, 14760, Note_on_c, 1, 65, 64
2, 14880, Note_on_c, 1, 65, 0
2, 14880, Note_on_c, 1, 69, 64
2, 15000, Note_on_c, 1, 69, 0
2, 15000, Note_on_c, 1, 72, 64
2, 15120, Note_on_c, 1, 72, 0
2, 15120, Note_on_c, 1, 71, 64
2, 15180, Note_on_c, 1, 71, 0
2, 15180, Note_on_c, 1, 72, 64
2, 15240, Note_on_c, 1, 72, 0
2, 15240, Note_on_c, 1, 74, 64
2, 15360, Note_on_c, 1, 74, 0
2, 15360, Note_on_c, 1, 77, 64
2, 15480, Note_on_c, 1, 77, 0
2, 15480, Note_on_c, 1, 74, 64
2, 15600, Note_on_c, 1, 74, 0
2, 15600, Note_on_c, 1, 71, 64
2, 15720, Note_on_c, 1, 71, 0
2, 15720, Note_on_c, 1, 67, 64
2, 15840, Note_on_c, 1, 67, 0
2, 15840, Note_on_c, 1, 71, 64
2, 15960, Note_on_c, 1, 71, 0
2, 15960, Note_on_c, 1, 74, 64
2, 16080, Note_on_c, 1, 74, 0
2, 16080, Note_on_c, 1, 77, 64
2, 16200, Note_on_c, 1, 77, 0
2, 16200, Note_on_c, 1, 76, 64
2, 16260, Note_on_c, 1, 74, 64
2, 16320, Note_on_c, 1, 74, 0
2, 16320, Note_on_c, 1, 72, 64
2, 16380, Note_on_c, 1, 72, 0
2, 16380, Note_on_c, 1, 71, 64
2, 16440, Note_on_c, 1, 71, 0
2, 16440, Note_on_c, 1, 72, 64
2, 16500, Note_on_c, 1, 67, 64
2, 17280, Note_on_c, 1, 67, 0
2, 17280, Note_on_c, 1, 72, 0
2, 17280, Note_on_c, 1, 76, 0
2, 17280, Note_on_c, 1, 75, 64
2, 17340, Note_on_c, 1, 69, 60
2, 17400, Note_on_c, 1, 69, 0
2, 17400, Note_on_c, 1, 70, 60
2, 17460, Note_on_c, 1, 70, 0
2, 17460, Note_on_c, 1, 72, 60
2, 17520, Note_on_c, 1, 72, 0
2, 17520, Note_on_c, 1, 70, 60
2, 17580, Note_on_c, 1, 70, 0
2, 17580, Note_on_c, 1, 69, 60
2, 17640, Note_on_c, 1, 69, 0
2, 17640, Note_on_c, 1, 75, 0
2, 17640, Note_on_c, 1, 74, 68
2, 17700, Note_on_c, 1, 69, 60
2, 17760, Note_on_c, 1, 69, 0
2, 17760, Note_on_c, 1, 70, 60
2, 17820, Note_on_c, 1, 70, 0
2, 17820, Note_on_c, 1, 72, 60
2, 17880, Note_on_c, 1, 72, 0
2, 17880, Note_on_c, 1, 70, 60
2, 17940, Note_on_c, 1, 70, 0
2, 17940, Note_on_c, 1, 69, 60
2, 18000, Note_on_c, 1, 69, 0
2, 18000, Note_on_c, 1, 74, 0
2, 18000, Note_on_c, 1, 81, 68
2, 18060, Note_on_c, 1, 69, 60
2, 18120, Note_on_c, 1, 69, 0
2, 18120, Note_on_c, 1, 81, 0
2, 18120, Note_on_c, 1, 70, 60
2, 18180, Note_on_c, 1, 70, 0
2, 18180, Note_on_c, 1, 72, 60
2, 18240, Note_on_c, 1, 72, 0
2, 18240, Note_on_c, 1, 70, 60
2, 18300, Note_on_c, 1, 70, 0
2, 18300, Note_on_c, 1, 69, 60
2, 18360, Note_on_c, 1, 69, 0
2, 18360, Note_on_c, 1, 70, 64
2, 18420, Note_on_c, 1, 69, 64
2, 18480, Note_on_c, 1, 69, 0
2, 18480, Note_on_c, 1, 67, 64
2, 18540, Note_on_c, 1, 67, 0
2, 18540, Note_on_c, 1, 66, 64
2, 18600, Note_on_c, 1, 66, 0
2, 18600, Note_on_c, 1, 67, 64
2, 18660, Note_on_c, 1, 62, 64
2, 19440, Note_on_c, 1, 62, 0
2, 19440, Note_on_c, 1, 67, 0
2, 19440, Note_on_c, 1, 70, 0
2, 19440, Note_on_c, 1, 70, 68
2, 19500, Note_on_c, 1, 64, 60
2, 19560, Note_on_c, 1, 64, 0
2, 19560, Note_on_c, 1, 65, 60
2, 19620, Note_on_c, 1, 65, 0
2, 19620, Note_on_c, 1, 67, 60
2, 19680, Note_on_c, 1, 67, 0
2, 19680, Note_on_c, 1, 65, 60
2, 19740, Note_on_c, 1, 65, 0
2, 19740, Note_on_c, 1, 64, 60
2, 19800, Note_on_c, 1, 64, 0
2, 19800, Note_on_c, 1, 70, 0
2, 19800, Note_on_c, 1, 69, 68
2, 19860, Note_on_c, 1, 64, 60
2, 19920, Note_on_c, 1, 64, 0
2, 19920, Note_on_c, 1, 65, 60
2, 19980, Note_on_c, 1, 65, 0
2, 19980, Note_on_c, 1, 67, 60
2, 20040, Note_on_c, 1, 67, 0
2, 20040, Note_on_c, 1, 65, 60
2, 20100, Note_on_c, 1, 65, 0
2, 20100, Note_on_c, 1, 64, 60
2, 20160, Note_on_c, 1, 64, 0
2, 20160, Note_on_c, 1, 69, 0
2, 20160, Note_on_c, 1, 76, 68
2, 20220, Note_on_c, 1, 64, 60
2, 20280, Note_on_c, 1, 64, 0
2, 20280, Note_on_c, 1, 76, 0
2, 20280, Note_on_c, 1, 65, 60
2, 20340, Note_on_c, 1, 65, 0
2, 20340, Note_on_c, 1, 67, 60
2, 20400, Note_on_c, 1, 67, 0
2, 20400, Note_on_c, 1, 65, 60
2, 20460, Note_on_c, 1, 65, 0
2, 20460, Note_on_c, 1, 64, 60
2, 20520, Note_on_c, 1, 64, 0
2, 20520, Note_on_c, 1, 65, 64
2, 20940, Note_on_c, 1, 65, 0
2, 20940, Note_on_c, 1, 64, 64
2, 21000, Note_on_c, 1, 64, 0
2, 21000, Note_on_c, 1, 65, 64
2, 21060, Note_on_c, 1, 65, 0
2, 21060, Note_on_c, 1, 69, 64
2, 21120, Note_on_c, 1, 69, 0
2, 21120, Note_on_c, 1, 74, 64
2, 21180, Note_on_c, 1, 74, 0
2, 21180, Note_on_c, 1, 69, 64
2, 21240, Note_on_c, 1, 69, 0
2, 21240, Note_on_c, 1, 77, 64
2, 21300, Note_on_c, 1, 77, 0
2, 21300, Note_on_c, 1, 76, 64
2, 21360, Note_on_c, 1, 76, 0
2, 21360, Note_on_c, 1, 74, 64
2, 21420, Note_on_c, 1, 74, 0
2, 21420, Note_on_c, 1, 72, 64
2, 21480, Note_on_c, 1, 72, 0
2, 21480, Note_on_c, 1, 71, 64
2, 21540, Note_on_c, 1, 71, 0
2, 21540, Note_on_c, 1, 69, 64
2, 21600, Note_on_c, 1, 69, 0
2, 21600, Note_on_c, 1, 80, 64
2, 22020, Note_on_c, 1, 80, 0
2, 22020, Note_on_c, 1, 81, 64
2, 22080, Note_on_c, 1, 81, 0
2, 22080, Note_on_c, 1, 83, 64
2, 22140, Note_on_c, 1, 83, 0
2, 22140, Note_on_c, 1, 81, 64
2, 22200, Note_on_c, 1, 81, 0
2, 22200, Note_on_c, 1, 80, 64
2, 22260, Note_on_c, 1, 80, 0
2, 22260, Note_on_c, 1, 78, 64
2, 22320, Note_on_c, 1, 78, 0
2, 22320, Note_on_c, 1, 76, 64
2, 22380, Note_on_c, 1, 76, 0
2, 22380, Note_on_c, 1, 77, 64
2, 22440, Note_on_c, 1, 77, 0
2, 22440, Note_on_c, 1, 76, 64
2, 22500, Note_on_c, 1, 76, 0
2, 22500, Note_on_c, 1, 74, 64
2, 22560, Note_on_c, 1, 74, 0
2, 22560, Note_on_c, 1, 72, 64
2, 22620, Note_on_c, 1, 72, 0
2, 22620, Note_on_c, 1, 71, 64
2, 22680, Note_on_c, 1, 71, 0
2, 22680, Note_on_c, 1, 69, 64
2, 22740, Note_on_c, 1, 69, 0
2, 22740, Note_on_c, 1, 71, 64
2, 22800, Note_on_c, 1, 71, 0
2, 22800, Note_on_c, 1, 72, 64
2, 22920, Note_on_c, 1, 72, 0
2, 22920, Note_on_c, 1, 76, 64
2, 23040, Note_on_c, 1, 76, 0
2, 23040, Note_on_c, 1, 72, 64
2, 23160, Note_on_c, 1, 72, 0
2, 23160, Note_on_c, 1, 69, 64
2, 23280, Note_on_c, 1, 69, 0
2, 23280, Note_on_c, 1, 64, 64
2, 23400, Note_on_c, 1, 64, 0
2, 23400, Note_on_c, 1, 76, 64
2, 23460, Note_on_c, 1, 76, 0
2, 23460, Note_on_c, 1, 74, 64
2, 23520, Note_on_c, 1, 74, 0
2, 23520, Note_on_c, 1, 72, 64
2, 23580, Note_on_c, 1, 72, 0
2, 23580, Note_on_c, 1, 71, 64
2, 23640, Note_on_c, 1, 71, 0
2, 23640, Note_on_c, 1, 69, 64
2, 23700, Note_on_c, 1, 69, 0
2, 23700, Note_on_c, 1, 68, 64
2, 23760, Note_on_c, 1, 68, 0
2, 23760, Note_on_c, 1, 69, 64
2, 23820, Note_on_c, 1, 69, 0
2, 23820, Note_on_c, 1, 71, 64
2, 23880, Note_on_c, 1, 71, 0
2, 23880, Note_on_c, 1, 72, 64
2, 24000, Note_on_c, 1, 72, 0
2, 24000, Note_on_c, 1, 81, 64
2, 24120, Note_on_c, 1, 81, 0
2, 24120, Note_on_c, 1, 76, 64
2, 24240, Note_on_c, 1, 76, 0
2, 24240, Note_on_c, 1, 72, 64
2, 24360, Note_on_c, 1, 72, 0
2, 24360, Note_on_c, 1, 69, 64
2, 24480, Note_on_c, 1, 69, 0
2, 24480, Note_on_c, 1, 81, 64
2, 24540, Note_on_c, 1, 81, 0
2, 24540, Note_on_c, 1, 79, 64
2, 24600, Note_on_c, 1, 79, 0
2, 24600, Note_on_c, 1, 77, 64
2, 24660, Note_on_c, 1, 77, 0
2, 24660, Note_on_c, 1, 76, 64
2, 24720, Note_on_c, 1, 76, 0
2, 24720, Note_on_c, 1, 74, 64
2, 24780, Note_on_c, 1, 74, 0
2, 24780, Note_on_c, 1, 72, 64
2, 24840, Note_on_c, 1, 72, 0
2, 24840, Note_on_c, 1, 77, 64
2, 24900, Note_on_c, 1, 77, 0
2, 24900, Note_on_c, 1, 76, 64
2, 24960, Note_on_c, 1, 76, 0
2, 24960, Note_on_c, 1, 74, 64
2, 25020, Note_on_c, 1, 74, 0
2, 25020, Note_on_c, 1, 72, 64
2, 25080, Note_on_c, 1, 72, 0
2, 25080, Note_on_c, 1, 71, 64
2, 25140, Note_on_c, 1, 71, 0
2, 25140, Note_on_c, 1, 69, 64
2, 25200, Note_on_c, 1, 69, 0
2, 25200, Note_on_c, 1, 74, 64
2, 25260, Note_on_c, 1, 74, 0
2, 25260, Note_on_c, 1, 72, 64
2, 25320, Note_on_c, 1, 72, 0
2, 25320, Note_on_c, 1, 71, 64
2, 25380, Note_on_c, 1, 71, 0
2, 25380, Note_on_c, 1, 69, 64
2, 25440, Note_on_c, 1, 69, 0
2, 25440, Note_on_c, 1, 68, 64
2, 25500, Note_on_c, 1, 68, 0
2, 25500, Note_on_c, 1, 66, 64
2, 25560, Note_on_c, 1, 66, 0
2, 25560, Note_on_c, 1, 71, 64
2, 25620, Note_on_c, 1, 71, 0
2, 25620, Note_on_c, 1, 69, 64
2, 25680, Note_on_c, 1, 69, 0
2, 25680, Note_on_c, 1, 68, 64
2, 25740, Note_on_c, 1, 68, 0
2, 25740, Note_on_c, 1, 66, 64
2, 25800, Note_on_c, 1, 66, 0
2, 25800, Note_on_c, 1, 64, 64
2, 25860, Note_on_c, 1, 64, 0
2, 25860, Note_on_c, 1, 62, 64
2, 25920, Note_on_c, 1, 62, 0
2, 25920, Note_on_c, 1, 64, 64
2, 25980, Note_on_c, 1, 64, 0
2, 25980, Note_on_c, 1, 69, 64
2, 26040, Note_on_c, 1, 69, 0
2, 26040, Note_on_c, 1, 67, 64
2, 26100, Note_on_c, 1, 67, 0
2, 26100, Note_on_c, 1, 65, 64
2, 26160, Note_on_c, 1, 65, 0
2, 26160, Note_on_c, 1, 64, 64
2, 26220, Note_on_c, 1, 64, 0
2, 26220, Note_on_c, 1, 62, 64
2, 26280, Note_on_c, 1, 62, 0
2, 26280, Note_on_c, 1, 60, 64
2, 26340, Note_on_c, 1, 60, 0
2, 26340, Note_on_c, 1, 65, 64
2, 26400, Note_on_c, 1, 65, 0
2, 26400, Note_on_c, 1, 64, 64
2, 26460, Note_on_c, 1, 64, 0
2, 26460, Note_on_c, 1, 62, 64
2, 26520, Note_on_c, 1, 62, 0
2, 26520, Note_on_c, 1, 60, 64
2, 26580, Note_on_c, 1, 60, 0
2, 26580, Note_on_c, 1, 59, 64
2, 26640, Note_on_c, 1, 59, 0
2, 26640, Note_on_c, 1, 57, 64
2, 26700, Note_on_c, 1, 57, 0
2, 26700, Note_on_c, 1, 62, 64
2, 26760, Note_on_c, 1, 62, 0
2, 26760, Note_on_c, 1, 60, 64
2, 26820, Note_on_c, 1, 60, 0
2, 26820, Note_on_c, 1, 59, 64
2, 26880, Note_on_c, 1, 59, 0
2, 26880, Note_on_c, 1, 57, 64
2, 26940, Note_on_c, 1, 57, 0
2, 26940, Note_on_c, 1, 56, 64
2, 27000, Note_on_c, 1, 56, 0
2, 27000, Note_on_c, 1, 57, 64
2, 27060, Note_on_c, 1, 57, 0
2, 27060, Note_on_c, 1, 59, 64
2, 27120, Note_on_c, 1, 59, 0
2, 27120, Note_on_c, 1, 61, 64
2, 27180, Note_on_c, 1, 61, 0
2, 27180, Note_on_c, 1, 62, 64
2, 27240, Note_on_c, 1, 62, 0
2, 27240, Note_on_c, 1, 64, 64
2, 27300, Note_on_c, 1, 64, 0
2, 27300, Note_on_c, 1, 65, 64
2, 27360, Note_on_c, 1, 65, 0
2, 27360, Note_on_c, 1, 67, 64
2, 27480, Note_on_c, 1, 67, 0
2, 27480, Note_on_c, 1, 64, 64
2, 27600, Note_on_c, 1, 64, 0
2, 27600, Note_on_c, 1, 61, 64
2, 27720, Note_on_c, 1, 61, 0
2, 27720, Note_on_c, 1, 70, 64
2, 27780, Note_on_c, 1, 70, 0
2, 27780, Note_on_c, 1, 61, 64
2, 27840, Note_on_c, 1, 61, 0
2, 27840, Note_on_c, 1, 69, 64
2, 27900, Note_on_c, 1, 69, 0
2, 27900, Note_on_c, 1, 61, 64
2, 27960, Note_on_c, 1, 61, 0
2, 27960, Note_on_c, 1, 67, 64
2, 28020, Note_on_c, 1, 67, 0
2, 28020, Note_on_c, 1, 61, 64
2, 28080, Note_on_c, 1, 61, 0
2, 28080, Note_on_c, 1, 65, 64
2, 28140, Note_on_c, 1, 65, 0
2, 28140, Note_on_c, 1, 67, 64
2, 28200, Note_on_c, 1, 67, 0
2, 28200, Note_on_c, 1, 69, 64
2, 28260, Note_on_c, 1, 69, 0
2, 28260, Note_on_c, 1, 71, 64
2, 28320, Note_on_c, 1, 71, 0
2, 28320, Note_on_c, 1, 73, 64
2, 28380, Note_on_c, 1, 73, 0
2, 28380, Note_on_c, 1, 74, 64
2, 28440, Note_on_c, 1, 74, 0
2, 28440, Note_on_c, 1, 77, 64
2, 28560, Note_on_c, 1, 77, 0
2, 28560, Note_on_c, 1, 74, 64
2, 28680, Note_on_c, 1, 74, 0
2, 28680, Note_on_c, 1, 71, 64
2, 28800, Note_on_c, 1, 81, 64
2, 28860, Note_on_c, 1, 81, 0
2, 28860, Note_on_c, 1, 80, 64
2, 28920, Note_on_c, 1, 80, 0
2, 28920, Note_on_c, 1, 81, 64
2, 28980, Note_on_c, 1, 81, 0
2, 28980, Note_on_c, 1, 80, 64
2, 29040, Note_on_c, 1, 80, 0
2, 29040, Note_on_c, 1, 81, 64
2, 29100, Note_on_c, 1, 81, 0
2, 29100, Note_on_c, 1, 80, 64
2, 29160, Note_on_c, 1, 80, 0
2, 29160, Note_on_c, 1, 71, 0
2, 29160, Note_on_c, 1, 81, 64
2, 29160, Note_on_c, 1, 76, 64
2, 29160, Note_on_c, 1, 73, 64
2, 30240, Note_on_c, 1, 73, 0
2, 30240, Note_on_c, 1, 76, 0
2, 30240, Note_on_c, 1, 81, 0
2, 30240, End_track
3, 0, Start_track
3, 0, Title_t, "LH B"
3, 0, Program_c, 1, 0
3, 0, Note_on_c, 1, 45, 64
3, 360, Note_on_c, 1, 45, 0
3, 360, Note_on_c, 1, 57, 64
3, 420, Note_on_c, 1, 57, 0
3, 420, Note_on_c, 1, 56, 64
3, 480, Note_on_c, 1, 56, 0
3, 480, Note_on_c, 1, 57, 64
3, 540, Note_on_c, 1, 57, 0
3, 540, Note_on_c, 1, 56, 64
3, 600, Note_on_c, 1, 56, 0
3, 600, Note_on_c, 1, 57, 64
3, 660, Note_on_c, 1, 57, 0
3, 660, Note_on_c, 1, 56, 64
3, 720, Note_on_c, 1, 56, 0
3, 720, Note_on_c, 1, 57, 64
3, 840, Note_on_c, 1, 57, 0
3, 840, Note_on_c, 1, 52, 64
3, 960, Note_on_c, 1, 52, 0
3, 960, Note_on_c, 1, 48, 64
3, 1080, Note_on_c, 1, 48, 0
3, 1080, Note_on_c, 1, 45, 64
3, 1440, Note_on_c, 1, 45, 0
3, 1440, Note_on_c, 1, 57, 64
3, 1500, Note_on_c, 1, 57, 0
3, 1500, Note_on_c, 1, 56, 64
3, 1560, Note_on_c, 1, 56, 0
3, 1560, Note_on_c, 1, 57, 64
3, 1620, Note_on_c, 1, 57, 0
3, 1620, Note_on_c, 1, 56, 64
3, 1680, Note_on_c, 1, 56, 0
3, 1680, Note_on_c, 1, 57, 64
3, 1740, Note_on_c, 1, 57, 0
3, 1740, Note_on_c, 1, 56, 64
3, 1800, Note_on_c, 1, 56, 0
3, 1800, Note_on_c, 1, 57, 64
3, 1920, Note_on_c, 1, 57, 0
3, 1920, Note_on_c, 1, 53, 64
3, 2040, Note_on_c, 1, 53, 0
3, 2040, Note_on_c, 1, 50, 64
3, 2160, Note_on_c, 1, 50, 0
3, 2160, Note_on_c, 1, 45, 64
3, 2520, Note_on_c, 1, 45, 0
3, 2520, Note_on_c, 1, 57, 64
3, 2580, Note_on_c, 1, 57, 0
3, 2580, Note_on_c, 1, 56, 64
3, 2640, Note_on_c, 1, 56, 0
3, 2640, Note_on_c, 1, 57, 64
3, 2700, Note_on_c, 1, 57, 0
3, 2700, Note_on_c, 1, 56, 64
3, 2760, Note_on_c, 1, 56, 0
3, 2760, Note_on_c, 1, 57, 64
3, 2820, Note_on_c, 1, 57, 0
3, 2820, Note_on_c, 1, 56, 64
3, 2880, Note_on_c, 1, 56, 0
3, 2880, Note_on_c, 1, 57, 64
3, 3000, Note_on_c, 1, 57, 0
3, 3000, Note_on_c, 1, 53, 64
3, 3120, Note_on_c, 1, 53, 0
3, 3120, Note_on_c, 1, 50, 64
3, 3240, Note_on_c, 1, 50, 0
3, 3240, Note_on_c, 1, 45, 64
3, 3600, Note_on_c, 1, 45, 0
3, 3720, Note_on_c, 1, 69, 64
3, 3840, Note_on_c, 1, 69, 0
3, 3840, Note_on_c, 1, 64, 64
3, 3960, Note_on_c, 1, 64, 0
3, 3960, Note_on_c, 1, 60, 64
3, 4080, Note_on_c, 1, 60, 0
3, 4080, Note_on_c, 1, 57, 64
3, 4200, Note_on_c, 1, 57, 0
3, 4200, Note_on_c, 1, 63, 64
3, 4320, Note_on_c, 1, 63, 0
3, 4320, Note_on_c, 1, 52, 64
3, 4380, Note_on_c, 1, 52, 0
3, 4380, Note_on_c, 1, 54, 64
3, 4440, Note_on_c, 1, 54, 0
3, 4440, Note_on_c, 1, 55, 64
3, 4560, Note_on_c, 1, 55, 0
3, 4560, Note_on_c, 1, 59, 64
3, 4680, Note_on_c, 1, 59, 0
3, 4680, Note_on_c, 1, 55, 64
3, 4800, Note_on_c, 1, 55, 0
3, 4800, Note_on_c, 1, 52, 64
3, 4920, Note_on_c, 1, 52, 0
3, 4920, Note_on_c, 1, 47, 64
3, 5040, Note_on_c, 1, 47, 0
3, 5040, Note_on_c, 1, 52, 64
3, 5160, Note_on_c, 1, 52, 0
3, 5160, Note_on_c, 1, 55, 64
3, 5280, Note_on_c, 1, 55, 0
3, 5280, Note_on_c, 1, 59, 64
3, 5400, Note_on_c, 1, 59, 0
3, 5400, Note_on_c, 1, 54, 64
3, 5460, Note_on_c, 1, 54, 0
3, 5460, Note_on_c, 1, 55, 64
3, 5520, Note_on_c, 1, 55, 0
3, 5520, Note_on_c, 1, 57, 64
3, 5640, Note_on_c, 1, 57, 0
3, 5640, Note_on_c, 1, 60, 64
3, 5760, Note_on_c, 1, 60, 0
3, 5760, Note_on_c, 1, 57, 64
3, 5880, Note_on_c, 1, 57, 0
3, 5880, Note_on_c, 1, 54, 64
3, 6000, Note_on_c, 1, 54, 0
3, 6000, Note_on_c, 1, 51, 64
3, 6120, Note_on_c, 1, 51, 0
3, 6120, Note_on_c, 1, 54, 64
3, 6240, Note_on_c, 1, 54, 0
3, 6240, Note_on_c, 1, 57, 64
3, 6360, Note_on_c, 1, 57, 0
3, 6360, Note_on_c, 1, 60, 64
3, 6480, Note_on_c, 1, 60, 0
3, 6480, Note_on_c, 1, 57, 64
3, 6540, Note_on_c, 1, 57, 0
3, 6540, Note_on_c, 1, 59, 64
3, 6600, Note_on_c, 1, 59, 0
3, 6600, Note_on_c, 1, 60, 64
3, 6720, Note_on_c, 1, 60, 0
3, 6720, Note_on_c, 1, 63, 64
3, 6840, Note_on_c, 1, 63, 0
3, 6840, Note_on_c, 1, 60, 64
3, 6960, Note_on_c, 1, 60, 0
3, 6960, Note_on_c, 1, 57, 64
3, 7080, Note_on_c, 1, 57, 0
3, 7080, Note_on_c, 1, 54, 64
3, 7200, Note_on_c, 1, 54, 0
3, 7200, Note_on_c, 1, 57, 64
3, 7320, Note_on_c, 1, 57, 0
3, 7320, Note_on_c, 1, 60, 64
3, 7440, Note_on_c, 1, 60, 0
3, 7440, Note_on_c, 1, 63, 64
3, 7560, Note_on_c, 1, 63, 0
3, 7560, Note_on_c, 1, 64, 64
3, 7680, Note_on_c, 1, 64, 0
3, 7680, Note_on_c, 1, 52, 64
3, 7740, Note_on_c, 1, 52, 0
3, 7740, Note_on_c, 1, 54, 64
3, 7800, Note_on_c, 1, 54, 0
3, 7800, Note_on_c, 1, 55, 64
3, 7860, Note_on_c, 1, 55, 0
3, 7860, Note_on_c, 1, 57, 64
3, 7920, Note_on_c, 1, 57, 0
3, 7920, Note_on_c, 1, 59, 64
3, 8040, Note_on_c, 1, 59, 0
3, 8640, Note_on_c, 1, 64, 64
3, 8700, Note_on_c, 1, 64, 0
3, 8700, Note_on_c, 1, 66, 64
3, 8760, Note_on_c, 1, 66, 0
3, 8760, Note_on_c, 1, 67, 64
3, 8880, Note_on_c, 1, 67, 0
3, 8880, Note_on_c, 1, 71, 64
3, 9000, Note_on_c, 1, 71, 0
3, 9000, Note_on_c, 1, 67, 64
3, 9120, Note_on_c, 1, 67, 0
3, 9120, Note_on_c, 1, 64, 64
3, 9240, Note_on_c, 1, 64, 0
3, 9240, Note_on_c, 1, 59, 64
3, 9360, Note_on_c, 1, 59, 0
3, 9360, Note_on_c, 1, 61, 64
3, 9480, Note_on_c, 1, 61, 0
3, 9480, Note_on_c, 1, 64, 64
3, 9600, Note_on_c, 1, 64, 0
3, 9600, Note_on_c, 1, 69, 64
3, 9720, Note_on_c, 1, 69, 0
3, 9720, Note_on_c, 1, 62, 64
3, 9780, Note_on_c, 1, 62, 0
3, 9780, Note_on_c, 1, 64, 64
3, 9840, Note_on_c, 1, 64, 0
3, 9840, Note_on_c, 1, 65, 64
3, 9960, Note_on_c, 1, 65, 0
3, 9960, Note_on_c, 1, 69, 64
3, 10080, Note_on_c, 1, 69, 0
3, 10080, Note_on_c, 1, 65, 64
3, 10200, Note_on_c, 1, 65, 0
3, 10200, Note_on_c, 1, 62, 64
3, 10320, Note_on_c, 1, 62, 0
3, 10320, Note_on_c, 1, 57, 64
3, 10440, Note_on_c, 1, 57, 0
3, 10440, Note_on_c, 1, 59, 64
3, 10560, Note_on_c, 1, 59, 0
3, 10560, Note_on_c, 1, 62, 64
3, 10680, Note_on_c, 1, 62, 0
3, 10680, Note_on_c, 1, 67, 64
3, 10800, Note_on_c, 1, 67, 0
3, 10800, Note_on_c, 1, 60, 64
3, 10860, Note_on_c, 1, 60, 0
3, 10860, Note_on_c, 1, 62, 64
3, 10920, Note_on_c, 1, 62, 0
3, 10920, Note_on_c, 1, 64, 64
3, 11040, Note_on_c, 1, 64, 0
3, 11040, Note_on_c, 1, 67, 64
3, 11160, Note_on_c, 1, 67, 0
3, 11160, Note_on_c, 1, 64, 64
3, 11280, Note_on_c, 1, 64, 0
3, 11280, Note_on_c, 1, 60, 64
3, 11400, Note_on_c, 1, 60, 0
3, 11400, Note_on_c, 1, 55, 64
3, 11520, Note_on_c, 1, 55, 0
3, 11520, Note_on_c, 1, 57, 64
3, 11640, Note_on_c, 1, 57, 0
3, 11640, Note_on_c, 1, 60, 64
3, 11760, Note_on_c, 1, 60, 0
3, 11760, Note_on_c, 1, 65, 64
3, 11880, Note_on_c, 1, 65, 0
3, 11880, Note_on_c, 1, 55, 64
3, 12000, Note_on_c, 1, 55, 0
3, 12000, Note_on_c, 1, 59, 64
3, 12120, Note_on_c, 1, 59, 0
3, 12120, Note_on_c, 1, 62, 64
3, 12240, Note_on_c, 1, 62, 0
3, 12240, Note_on_c, 1, 65, 64
3, 12360, Note_on_c, 1, 65, 0
3, 12360, Note_on_c, 1, 62, 64
3, 12480, Note_on_c, 1, 62, 0
3, 12480, Note_on_c, 1, 59, 64
3, 12600, Note_on_c, 1, 59, 0
3, 12600, Note_on_c, 1, 55, 64
3, 12720, Note_on_c, 1, 55, 0
3, 12720, Note_on_c, 1, 59, 64
3, 12840, Note_on_c, 1, 59, 0
3, 12840, Note_on_c, 1, 55, 64
3, 12960, Note_on_c, 1, 55, 0
3, 12960, Note_on_c, 1, 60, 64
3, 13380, Note_on_c, 1, 60, 0
3, 13380, Note_on_c, 1, 57, 64
3, 13440, Note_on_c, 1, 57, 0
3, 13440, Note_on_c, 1, 55, 64
3, 13500, Note_on_c, 1, 55, 0
3, 13500, Note_on_c, 1, 53, 64
3, 13560, Note_on_c, 1, 53, 0
3, 13560, Note_on_c, 1, 52, 64
3, 13620, Note_on_c, 1, 52, 0
3, 13620, Note_on_c, 1, 50, 64
3, 13680, Note_on_c, 1, 50, 0
3, 13740, Note_on_c, 1, 50, 64
3, 13800, Note_on_c, 1, 50, 0
3, 13800, Note_on_c, 1, 52, 64
3, 13860, Note_on_c, 1, 52, 0
3, 13860, Note_on_c, 1, 53, 64
3, 13920, Note_on_c, 1, 53, 0
3, 13920, Note_on_c, 1, 55, 64
3, 13980, Note_on_c, 1, 55, 0
3, 13980, Note_on_c, 1, 52, 64
3, 14040, Note_on_c, 1, 52, 0
3, 14040, Note_on_c, 1, 57, 64
3, 14460, Note_on_c, 1, 57, 0
3, 14460, Note_on_c, 1, 48, 64
3, 14520, Note_on_c, 1, 48, 0
3, 14520, Note_on_c, 1, 50, 64
3, 14580, Note_on_c, 1, 50, 0
3, 14580, Note_on_c, 1, 52, 64
3, 14640, Note_on_c, 1, 52, 0
3, 14640, Note_on_c, 1, 53, 64
3, 14700, Note_on_c, 1, 53, 0
3, 14700, Note_on_c, 1, 55, 64
3, 14760, Note_on_c, 1, 55, 0
3, 14760, Note_on_c, 1, 57, 64
3, 14820, Note_on_c, 1, 57, 0
3, 14820, Note_on_c, 1, 55, 64
3, 14880, Note_on_c, 1, 55, 0
3, 14880, Note_on_c, 1, 53, 64
3, 14940, Note_on_c, 1, 53, 0
3, 14940, Note_on_c, 1, 52, 64
3, 15000, Note_on_c, 1, 52, 0
3, 15000, Note_on_c, 1, 50, 64
3, 15060, Note_on_c, 1, 50, 0
3, 15060, Note_on_c, 1, 48, 64
3, 15120, Note_on_c, 1, 48, 0
3, 15120, Note_on_c, 1, 50, 64
3, 15480, Note_on_c, 1, 47, 64
3, 15540, Note_on_c, 1, 47, 0
3, 15540, Note_on_c, 1, 50, 0
3, 15540, Note_on_c, 1, 52, 64
3, 15600, Note_on_c, 1, 52, 0
3, 15600, Note_on_c, 1, 50, 64
3, 15660, Note_on_c, 1, 50, 0
3, 15660, Note_on_c, 1, 48, 64
3, 15720, Note_on_c, 1, 48, 0
3, 15720, Note_on_c, 1, 47, 64
3, 15780, Note_on_c, 1, 47, 0
3, 15780, Note_on_c, 1, 45, 64
3, 15840, Note_on_c, 1, 45, 0
3, 15840, Note_on_c, 1, 43, 64
3, 15900, Note_on_c, 1, 43, 0
3, 15900, Note_on_c, 1, 45, 64
3, 15960, Note_on_c, 1, 45, 0
3, 15960, Note_on_c, 1, 43, 64
3, 16020, Note_on_c, 1, 43, 0
3, 16020, Note_on_c, 1, 41, 64
3, 16080, Note_on_c, 1, 41, 0
3, 16080, Note_on_c, 1, 40, 64
3, 16140, Note_on_c, 1, 40, 0
3, 16140, Note_on_c, 1, 38, 64
3, 16200, Note_on_c, 1, 38, 0
3, 16200, Note_on_c, 1, 36, 64
3, 16320, Note_on_c, 1, 36, 0
3, 16560, Note_on_c, 1, 64, 64
3, 16620, Note_on_c, 1, 64, 0
3, 16620, Note_on_c, 1, 62, 64
3, 16680, Note_on_c, 1, 62, 0
3, 16680, Note_on_c, 1, 60, 64
3, 16740, Note_on_c, 1, 60, 0
3, 16740, Note_on_c, 1, 59, 64
3, 16800, Note_on_c, 1, 59, 0
3, 16800, Note_on_c, 1, 60, 64
3, 16860, Note_on_c, 1, 60, 0
3, 16860, Note_on_c, 1, 55, 64
3, 16920, Note_on_c, 1, 55, 0
3, 16920, Note_on_c, 1, 52, 64
3, 16980, Note_on_c, 1, 52, 0
3, 16980, Note_on_c, 1, 55, 64
3, 17040, Note_on_c, 1, 55, 0
3, 17040, Note_on_c, 1, 53, 64
3, 17100, Note_on_c, 1, 53, 0
3, 17100, Note_on_c, 1, 52, 64
3, 17160, Note_on_c, 1, 52, 0
3, 17160, Note_on_c, 1, 50, 64
3, 17220, Note_on_c, 1, 50, 0
3, 17220, Note_on_c, 1, 48, 64
3, 17280, Note_on_c, 1, 48, 0
3, 17280, Note_on_c, 1, 54, 64
3, 17400, Note_on_c, 1, 54, 0
3, 17400, Note_on_c, 1, 54, 60
3, 17520, Note_on_c, 1, 54, 0
3, 17520, Note_on_c, 1, 54, 60
3, 17640, Note_on_c, 1, 54, 0
3, 17640, Note_on_c, 1, 54, 60
3, 17760, Note_on_c, 1, 54, 0
3, 17760, Note_on_c, 1, 54, 60
3, 17880, Note_on_c, 1, 54, 0
3, 17880, Note_on_c, 1, 54, 60
3, 18000, Note_on_c, 1, 54, 0
3, 18000, Note_on_c, 1, 54, 60
3, 18120, Note_on_c, 1, 54, 0
3, 18120, Note_on_c, 1, 54, 60
3, 18240, Note_on_c, 1, 54, 0
3, 18240, Note_on_c, 1, 54, 60
3, 18360, Note_on_c, 1, 54, 0
3, 18360, Note_on_c, 1, 55, 64
3, 18480, Note_on_c, 1, 55, 0
3, 18720, Note_on_c, 1, 58, 64
3, 18780, Note_on_c, 1, 58, 0
3, 18780, Note_on_c, 1, 57, 64
3, 18840, Note_on_c, 1, 57, 0
3, 18840, Note_on_c, 1, 55, 64
3, 18900, Note_on_c, 1, 55, 0
3, 18900, Note_on_c, 1, 54, 64
3, 18960, Note_on_c, 1, 54, 0
3, 18960, Note_on_c, 1, 55, 64
3, 19020, Note_on_c, 1, 55, 0
3, 19020, Note_on_c, 1, 50, 64
3, 19080, Note_on_c, 1, 50, 0
3, 19080, Note_on_c, 1, 46, 64
3, 19140, Note_on_c, 1, 46, 0
3, 19140, Note_on_c, 1, 50, 64
3, 19200, Note_on_c, 1, 50, 0
3, 19200, Note_on_c, 1, 48, 64
3, 19260, Note_on_c, 1, 48, 0
3, 19260, Note_on_c, 1, 46, 64
3, 19320, Note_on_c, 1, 46, 0
3, 19320, Note_on_c, 1, 45, 64
3, 19380, Note_on_c, 1, 45, 0
3, 19380, Note_on_c, 1, 43, 64
3, 19440, Note_on_c, 1, 43, 0
3, 19440, Note_on_c, 1, 49, 64
3, 19560, Note_on_c, 1, 49, 0
3, 19560, Note_on_c, 1, 49, 60
3, 19680, Note_on_c, 1, 49, 0
3, 19680, Note_on_c, 1, 49, 60
3, 19800, Note_on_c, 1, 49, 0
3, 19800, Note_on_c, 1, 49, 60
3, 19920, Note_on_c, 1, 49, 0
3, 19920, Note_on_c, 1, 49, 60
3, 20040, Note_on_c, 1, 49, 0
3, 20040, Note_on_c, 1, 49, 60
3, 20160, Note_on_c, 1, 49, 0
3, 20160, Note_on_c, 1, 49, 60
3, 20280, Note_on_c, 1, 49, 0
3, 20280, Note_on_c, 1, 49, 60
3, 20400, Note_on_c, 1, 49, 0
3, 20400, Note_on_c, 1, 49, 60
3, 20520, Note_on_c, 1, 49, 0
3, 20520, Note_on_c, 1, 50, 64
3, 20580, Note_on_c, 1, 50, 0
3, 20580, Note_on_c, 1, 52, 64
3, 20640, Note_on_c, 1, 52, 0
3, 20640, Note_on_c, 1, 53, 64
3, 20760, Note_on_c, 1, 53, 0
3, 20760, Note_on_c, 1, 57, 64
3, 20880, Note_on_c, 1, 57, 0
3, 20880, Note_on_c, 1, 53, 64
3, 21000, Note_on_c, 1, 53, 0
3, 21000, Note_on_c, 1, 50, 64
3, 21120, Note_on_c, 1, 50, 0
3, 21120, Note_on_c, 1, 45, 64
3, 21240, Note_on_c, 1, 45, 0
3, 21240, Note_on_c, 1, 50, 64
3, 21360, Note_on_c, 1, 50, 0
3, 21360, Note_on_c, 1, 53, 64
3, 21480, Note_on_c, 1, 53, 0
3, 21480, Note_on_c, 1, 57, 64
3, 21600, Note_on_c, 1, 57, 0
3, 21600, Note_on_c, 1, 50, 64
3, 21660, Note_on_c, 1, 50, 0
3, 21660, Note_on_c, 1, 52, 64
3, 21720, Note_on_c, 1, 52, 0
3, 21720, Note_on_c, 1, 53, 64
3, 21840, Note_on_c, 1, 53, 0
3, 21840, Note_on_c, 1, 56, 64
3, 21960, Note_on_c, 1, 56, 0
3, 21960, Note_on_c, 1, 53, 64
3, 22080, Note_on_c, 1, 53, 0
3, 22080, Note_on_c, 1, 50, 64
3, 22200, Note_on_c, 1, 50, 0
3, 22200, Note_on_c, 1, 47, 64
3, 22320, Note_on_c, 1, 47, 0
3, 22320, Note_on_c, 1, 50, 64
3, 22440, Note_on_c, 1, 50, 0
3, 22440, Note_on_c, 1, 53, 64
3, 22560, Note_on_c, 1, 53, 0
3, 22560, Note_on_c, 1, 56, 64
3, 22680, Note_on_c, 1, 56, 0
3, 22680, Note_on_c, 1, 48, 64
3, 23040, Note_on_c, 1, 48, 0
3, 23040, Note_on_c, 1, 57, 64
3, 23100, Note_on_c, 1, 57, 0
3, 23100, Note_on_c, 1, 56, 64
3, 23160, Note_on_c, 1, 56, 0
3, 23160, Note_on_c, 1, 57, 64
3, 23220, Note_on_c, 1, 57, 0
3, 23220, Note_on_c, 1, 56, 64
3, 23280, Note_on_c, 1, 56, 0
3, 23280, Note_on_c, 1, 57, 64
3, 23340, Note_on_c, 1, 57, 0
3, 23340, Note_on_c, 1, 56, 64
3, 23400, Note_on_c, 1, 56, 0
3, 23400, Note_on_c, 1, 57, 64
3, 23520, Note_on_c, 1, 57, 0
3, 23520, Note_on_c, 1, 52, 64
3, 23640, Note_on_c, 1, 52, 0
3, 23640, Note_on_c, 1, 48, 64
3, 23760, Note_on_c, 1, 48, 0
3, 23760, Note_on_c, 1, 41, 64
3, 24120, Note_on_c, 1, 41, 0
3, 24120, Note_on_c, 1, 57, 64
3, 24180, Note_on_c, 1, 57, 0
3, 24180, Note_on_c, 1, 56, 64
3, 24240, Note_on_c, 1, 56, 0
3, 24240, Note_on_c, 1, 57, 64
3, 24300, Note_on_c, 1, 57, 0
3, 24300, Note_on_c, 1, 56, 64
3, 24360, Note_on_c, 1, 56, 0
3, 24360, Note_on_c, 1, 57, 64
3, 24420, Note_on_c, 1, 57, 0
3, 24420, Note_on_c, 1, 56, 64
3, 24480, Note_on_c, 1, 56, 0
3, 24480, Note_on_c, 1, 57, 64
3, 24600, Note_on_c, 1, 57, 0
3, 24600, Note_on_c, 1, 59, 64
3, 24720, Note_on_c, 1, 59, 0
3, 24720, Note_on_c, 1, 60, 64
3, 24840, Note_on_c, 1, 60, 0
3, 24840, Note_on_c, 1, 50, 64
3, 24960, Note_on_c, 1, 50, 0
3, 24960, Note_on_c, 1, 52, 64
3, 25080, Note_on_c, 1, 52, 0
3, 25080, Note_on_c, 1, 53, 64
3, 25200, Note_on_c, 1, 53, 0
3, 25200, Note_on_c, 1, 47, 64
3, 25320, Note_on_c, 1, 47, 0
3, 25320, Note_on_c, 1, 48, 64
3, 25440, Note_on_c, 1, 48, 0
3, 25440, Note_on_c, 1, 50, 64
3, 25560, Note_on_c, 1, 50, 0
3, 25560, Note_on_c, 1, 44, 64
3, 25680, Note_on_c, 1, 44, 0
3, 25680, Note_on_c, 1, 45, 64
3, 25800, Note_on_c, 1, 45, 0
3, 25800, Note_on_c, 1, 47, 64
3, 25920, Note_on_c, 1, 47, 0
3, 25920, Note_on_c, 1, 36, 64
3, 26400, Note_on_c, 1, 36, 0
3, 26400, Note_on_c, 1, 48, 64
3, 26520, Note_on_c, 1, 48, 0
3, 26520, Note_on_c, 1, 50, 64
3, 26640, Note_on_c, 1, 50, 0
3, 26640, Note_on_c, 1, 52, 64
3, 26760, Note_on_c, 1, 52, 0
3, 26760, Note_on_c, 1, 50, 64
3, 26880, Note_on_c, 1, 50, 0
3, 26880, Note_on_c, 1, 52, 64
3, 27000, Note_on_c, 1, 52, 0
3, 27420, Note_on_c, 1, 47, 64
3, 27480, Note_on_c, 1, 47, 0
3, 27480, Note_on_c, 1, 49, 64
3, 27540, Note_on_c, 1, 49, 0
3, 27540, Note_on_c, 1, 50, 64
3, 27600, Note_on_c, 1, 50, 0
3, 27600, Note_on_c, 1, 52, 64
3, 27660, Note_on_c, 1, 52, 0
3, 27660, Note_on_c, 1, 53, 64
3, 27720, Note_on_c, 1, 53, 0
3, 27720, Note_on_c, 1, 55, 64
3, 27840, Note_on_c, 1, 55, 0
3, 27840, Note_on_c, 1, 53, 64
3, 27960, Note_on_c, 1, 53, 0
3, 27960, Note_on_c, 1, 52, 64
3, 28080, Note_on_c, 1, 52, 0
3, 28080, Note_on_c, 1, 50, 64
3, 28500, Note_on_c, 1, 50, 0
3, 28560, Note_on_c, 1, 59, 64
3, 28620, Note_on_c, 1, 59, 0
3, 28620, Note_on_c, 1, 61, 64
3, 28680, Note_on_c, 1, 61, 0
3, 28680, Note_on_c, 1, 62, 64
3, 28740, Note_on_c, 1, 62, 0
3, 28740, Note_on_c, 1, 64, 64
3, 28800, Note_on_c, 1, 64, 0
3, 28800, Note_on_c, 1, 65, 64
3, 28920, Note_on_c, 1, 65, 0
3, 28920, Note_on_c, 1, 64, 64
3, 29040, Note_on_c, 1, 64, 0
3, 29040, Note_on_c, 1, 62, 64
3, 29160, Note_on_c, 1, 62, 0
3, 29160, Note_on_c, 1, 64, 64
3, 30240, Note_on_c, 1, 64, 0
3, 30240, End_track
4, 0, Start_track
4, 0, Title_t, "LH Pedal"
4, 0, Program_c, 2, 0
4, 13680, Note_on_c, 2, 48, 64
4, 15480, Note_on_c, 2, 48, 0
4, 27000, Note_on_c, 2, 45, 64
4, 28500, Note_on_c, 2, 45, 0
4, 28500, Note_on_c, 2, 57, 64
4, 30240, Note_on_c, 2, 57, 0
4, 30240, End_track
5, 0, Start_track
5, 0, End_track
0, 0, End_of_file
