0, 0, Header, 1, 17, 120
1, 0, Start_track
1, 0, Title_t, "untitled"
1, 0, SMPTE_offset, 96, 0, 3, 0, 0
1, 0, Time_signature, 12, 3, 12, 8
1, 0, Key_signature, -3, "major"
1, 0, Tempo, 545455
1, 28080, Tempo, 545455
1, 28082, Tempo, 552995
1, 28085, Tempo, 560748
1, 28087, Tempo, 571429
1, 28090, Tempo, 579710
1, 28092, Tempo, 588235
1, 28095, Tempo, 600000
1, 28097, Tempo, 609137
1, 28100, Tempo, 618557
1, 28102, Tempo, 631579
1, 28105, Tempo, 641711
1, 28107, Tempo, 652174
1, 28110, Tempo, 666667
1, 28112, Tempo, 677966
1, 28115, Tempo, 689655
1, 28117, Tempo, 705882
1, 28120, Tempo, 718563
1, 28122, Tempo, 731707
1, 28125, Tempo, 750000
1, 28127, Tempo, 764331
1, 28130, Tempo, 779221
1, 28132, Tempo, 800000
1, 28135, Tempo, 816327
1, 28137, Tempo, 833333
1, 28140, Tempo, 857143
1, 28142, Tempo, 875912
1, 28145, Tempo, 895522
1, 28147, Tempo, 923077
1, 28150, Tempo, 944882
1, 28152, Tempo, 967742
1, 28155, Tempo, 1000000
1, 28157, Tempo, 1025641
1, 28160, Tempo, 1052632
1, 28162, Tempo, 1090909
1, 28165, Tempo, 1121495
1, 28167, Tempo, 1153846
1, 28170, Tempo, 1200000
1, 28172, Tempo, 1237113
1, 28175, Tempo, 1276596
1, 28177, Tempo, 1333333
1, 28180, Tempo, 1379310
1, 28182, Tempo, 1428571
1, 28185, Tempo, 1500000
1, 28187, Tempo, 1558442
1, 28190, Tempo, 1621622
1, 28192, Tempo, 1714286
1, 28195, Tempo, 1791045
1, 28197, Tempo, 1875000
1, 28200, Tempo, 2000000
1, 28257, Tempo, 750000
1, 28262, Tempo, 745342
1, 28265, Tempo, 740741
1, 28267, Tempo, 736196
1, 28270, Tempo, 731707
1, 28275, Tempo, 727273
1, 28277, Tempo, 722892
1, 28280, Tempo, 718563
1, 28282, Tempo, 714286
1, 28285, Tempo, 710059
1, 28290, Tempo, 705882
1, 28292, Tempo, 701754
1, 28295, Tempo, 697674
1, 28297, Tempo, 693642
1, 28302, Tempo, 689655
1, 28305, Tempo, 685714
1, 28307, Tempo, 681818
1, 28310, Tempo, 677966
1, 28312, Tempo, 674157
1, 28317, Tempo, 670391
1, 28320, Tempo, 666667
1, 28322, Tempo, 662983
1, 28325, Tempo, 659341
1, 28327, Tempo, 655738
1, 28332, Tempo, 652174
1, 28335, Tempo, 648649
1, 28337, Tempo, 645161
1, 28340, Tempo, 641711
1, 28345, Tempo, 638298
1, 28347, Tempo, 634921
1, 28350, Tempo, 631579
1, 28352, Tempo, 628272
1, 28355, Tempo, 625000
1, 28360, Tempo, 621762
1, 28362, Tempo, 618557
1, 28365, Tempo, 615385
1, 28367, Tempo, 612245
1, 28372, Tempo, 609137
1, 28375, Tempo, 606061
1, 28377, Tempo, 603015
1, 28380, Tempo, 600000
1, 28382, Tempo, 597015
1, 28387, Tempo, 594059
1, 28390, Tempo, 591133
1, 28392, Tempo, 588235
1, 28395, Tempo, 585366
1, 28397, Tempo, 582524
1, 28402, Tempo, 579710
1, 28405, Tempo, 576923
1, 28407, Tempo, 574163
1, 28410, Tempo, 571429
1, 28415, Tempo, 568720
1, 28417, Tempo, 566038
1, 28420, Tempo, 563380
1, 28422, Tempo, 560748
1, 28425, Tempo, 558140
1, 28430, Tempo, 555556
1, 28432, Tempo, 552995
1, 28435, Tempo, 550459
1, 28437, Tempo, 547945
1, 28440, Tempo, 545455
1, 33840, Tempo, 545455
1, 33842, Tempo, 550459
1, 33845, Tempo, 555556
1, 33847, Tempo, 560748
1, 33850, Tempo, 566038
1, 33852, Tempo, 574163
1, 33855, Tempo, 579710
1, 33857, Tempo, 585366
1, 33860, Tempo, 591133
1, 33862, Tempo, 600000
1, 33865, Tempo, 606061
1, 33867, Tempo, 612245
1, 33870, Tempo, 618557
1, 33872, Tempo, 625000
1, 33875, Tempo, 634921
1, 33877, Tempo, 641711
1, 33880, Tempo, 648649
1, 33882, Tempo, 655738
1, 33885, Tempo, 666667
1, 33887, Tempo, 674157
1, 33890, Tempo, 681818
1, 33892, Tempo, 689655
1, 33895, Tempo, 701754
1, 33897, Tempo, 710059
1, 33900, Tempo, 718563
1, 33902, Tempo, 727273
1, 33905, Tempo, 736196
1, 33907, Tempo, 750000
1, 33910, Tempo, 759494
1, 33912, Tempo, 769231
1, 33915, Tempo, 779221
1, 33917, Tempo, 794702
1, 33920, Tempo, 805369
1, 33922, Tempo, 816327
1, 33925, Tempo, 827586
1, 33927, Tempo, 845070
1, 33930, Tempo, 857143
1, 33932, Tempo, 869565
1, 33935, Tempo, 882353
1, 33937, Tempo, 895522
1, 33940, Tempo, 916031
1, 33942, Tempo, 930233
1, 33945, Tempo, 944882
1, 33947, Tempo, 960000
1, 33950, Tempo, 983607
1, 33952, Tempo, 1000000
1, 33955, Tempo, 1016949
1, 33957, Tempo, 1034483
1, 33960, Tempo, 1061947
1, 33962, Tempo, 7500000
1, 33962, End_track
2, 0, Start_track
2, 0, MIDI_port, 0
2, 0, Title_t, "Solo Lute"
2, 0, Program_c, 0, 24
2, 0, Control_c, 0, 7, 100
2, 0, Control_c, 0, 10, 64
2, 60, Note_on_c, 0, 75, 100
2, 120, Note_on_c, 0, 75, 0
2, 120, Note_on_c, 0, 74, 100
2, 180, Note_on_c, 0, 74, 0
2, 180, Note_on_c, 0, 75, 100
2, 240, Note_on_c, 0, 75, 0
2, 240, Note_on_c, 0, 70, 100
2, 300, Note_on_c, 0, 70, 0
2, 300, Note_on_c, 0, 73, 100
2, 360, Note_on_c, 0, 73, 0
2, 360, Note_on_c, 0, 72, 100
2, 420, Note_on_c, 0, 72, 0
2, 420, Note_on_c, 0, 67, 100
2, 480, Note_on_c, 0, 67, 0
2, 480, Note_on_c, 0, 68, 100
2, 540, Note_on_c, 0, 68, 0
2, 540, Note_on_c, 0, 63, 100
2, 600, Note_on_c, 0, 63, 0
2, 600, Note_on_c, 0, 68, 100
2, 660, Note_on_c, 0, 68, 0
2, 660, Note_on_c, 0, 72, 100
2, 720, Note_on_c, 0, 72, 0
2, 780, Note_on_c, 0, 70, 100
2, 840, Note_on_c, 0, 70, 0
2, 840, Note_on_c, 0, 68, 100
2, 900, Note_on_c, 0, 68, 0
2, 900, Note_on_c, 0, 70, 100
2, 960, Note_on_c, 0, 70, 0
2, 960, Note_on_c, 0, 63, 100
2, 1020, Note_on_c, 0, 63, 0
2, 1020, Note_on_c, 0, 67, 100
2, 1080, Note_on_c, 0, 67, 0
2, 1080, Note_on_c, 0, 65, 100
2, 1140, Note_on_c, 0, 65, 0
2, 1140, Note_on_c, 0, 68, 100
2, 1200, Note_on_c, 0, 68, 0
2, 1200, Note_on_c, 0, 60, 100
2, 1260, Note_on_c, 0, 60, 0
2, 1260, Note_on_c, 0, 62, 100
2, 1320, Note_on_c, 0, 62, 0
2, 1320, Note_on_c, 0, 65, 100
2, 1380, Note_on_c, 0, 65, 0
2, 1380, Note_on_c, 0, 68, 100
2, 1440, Note_on_c, 0, 68, 0
2, 1500, Note_on_c, 0, 67, 100
2, 1560, Note_on_c, 0, 67, 0
2, 1560, Note_on_c, 0, 65, 100
2, 1620, Note_on_c, 0, 65, 0
2, 1620, Note_on_c, 0, 67, 100
2, 1680, Note_on_c, 0, 67, 0
2, 1680, Note_on_c, 0, 58, 100
2, 1740, Note_on_c, 0, 58, 0
2, 1740, Note_on_c, 0, 62, 100
2, 1800, Note_on_c, 0, 62, 0
2, 1800, Note_on_c, 0, 60, 100
2, 1860, Note_on_c, 0, 60, 0
2, 1860, Note_on_c, 0, 63, 100
2, 1920, Note_on_c, 0, 63, 0
2, 1920, Note_on_c, 0, 67, 100
2, 1980, Note_on_c, 0, 67, 0
2, 1980, Note_on_c, 0, 58, 100
2, 2040, Note_on_c, 0, 58, 0
2, 2040, Note_on_c, 0, 57, 100
2, 2100, Note_on_c, 0, 57, 0
2, 2100, Note_on_c, 0, 55, 100
2, 2160, Note_on_c, 0, 55, 0
2, 2160, Note_on_c, 0, 57, 100
2, 2220, Note_on_c, 0, 57, 0
2, 2220, Note_on_c, 0, 65, 100
2, 2280, Note_on_c, 0, 65, 0
2, 2280, Note_on_c, 0, 63, 100
2, 2340, Note_on_c, 0, 63, 0
2, 2340, Note_on_c, 0, 65, 100
2, 2400, Note_on_c, 0, 65, 0
2, 2400, Note_on_c, 0, 57, 100
2, 2460, Note_on_c, 0, 57, 0
2, 2460, Note_on_c, 0, 60, 100
2, 2520, Note_on_c, 0, 60, 0
2, 2520, Note_on_c, 0, 58, 100
2, 2580, Note_on_c, 0, 58, 0
2, 2580, Note_on_c, 0, 62, 100
2, 2640, Note_on_c, 0, 62, 0
2, 2640, Note_on_c, 0, 65, 100
2, 2700, Note_on_c, 0, 65, 0
2, 2700, Note_on_c, 0, 70, 100
2, 2760, Note_on_c, 0, 70, 0
2, 2760, Note_on_c, 0, 65, 100
2, 2820, Note_on_c, 0, 65, 0
2, 2820, Note_on_c, 0, 67, 100
2, 2880, Note_on_c, 0, 67, 0
2, 2880, Note_on_c, 0, 63, 100
2, 2940, Note_on_c, 0, 63, 0
2, 2940, Note_on_c, 0, 60, 100
2, 3000, Note_on_c, 0, 60, 0
2, 3000, Note_on_c, 0, 58, 100
2, 3060, Note_on_c, 0, 58, 0
2, 3060, Note_on_c, 0, 60, 100
2, 3120, Note_on_c, 0, 60, 0
2, 3120, Note_on_c, 0, 55, 100
2, 3180, Note_on_c, 0, 55, 0
2, 3180, Note_on_c, 0, 58, 100
2, 3240, Note_on_c, 0, 58, 0
2, 3240, Note_on_c, 0, 57, 100
2, 3300, Note_on_c, 0, 57, 0
2, 3300, Note_on_c, 0, 60, 100
2, 3360, Note_on_c, 0, 60, 0
2, 3360, Note_on_c, 0, 63, 100
2, 3420, Note_on_c, 0, 63, 0
2, 3420, Note_on_c, 0, 67, 100
2, 3480, Note_on_c, 0, 67, 0
2, 3480, Note_on_c, 0, 65, 100
2, 3540, Note_on_c, 0, 65, 0
2, 3540, Note_on_c, 0, 63, 100
2, 3600, Note_on_c, 0, 63, 0
2, 3600, Note_on_c, 0, 62, 100
2, 3660, Note_on_c, 0, 62, 0
2, 3660, Note_on_c, 0, 70, 100
2, 3720, Note_on_c, 0, 70, 0
2, 3720, Note_on_c, 0, 69, 100
2, 3780, Note_on_c, 0, 69, 0
2, 3780, Note_on_c, 0, 70, 100
2, 3840, Note_on_c, 0, 70, 0
2, 3840, Note_on_c, 0, 65, 100
2, 3900, Note_on_c, 0, 65, 0
2, 3900, Note_on_c, 0, 68, 100
2, 3960, Note_on_c, 0, 68, 0
2, 3960, Note_on_c, 0, 67, 100
2, 4020, Note_on_c, 0, 67, 0
2, 4020, Note_on_c, 0, 62, 100
2, 4080, Note_on_c, 0, 62, 0
2, 4080, Note_on_c, 0, 63, 100
2, 4140, Note_on_c, 0, 63, 0
2, 4140, Note_on_c, 0, 58, 100
2, 4200, Note_on_c, 0, 58, 0
2, 4200, Note_on_c, 0, 63, 100
2, 4260, Note_on_c, 0, 63, 0
2, 4260, Note_on_c, 0, 67, 100
2, 4320, Note_on_c, 0, 67, 0
2, 4380, Note_on_c, 0, 65, 100
2, 4440, Note_on_c, 0, 65, 0
2, 4440, Note_on_c, 0, 63, 100
2, 4500, Note_on_c, 0, 63, 0
2, 4500, Note_on_c, 0, 65, 100
2, 4560, Note_on_c, 0, 65, 0
2, 4560, Note_on_c, 0, 58, 100
2, 4620, Note_on_c, 0, 58, 0
2, 4620, Note_on_c, 0, 62, 100
2, 4680, Note_on_c, 0, 62, 0
2, 4680, Note_on_c, 0, 60, 100
2, 4740, Note_on_c, 0, 60, 0
2, 4740, Note_on_c, 0, 63, 100
2, 4800, Note_on_c, 0, 63, 0
2, 4800, Note_on_c, 0, 55, 100
2, 4860, Note_on_c, 0, 55, 0
2, 4860, Note_on_c, 0, 57, 100
2, 4920, Note_on_c, 0, 57, 0
2, 4920, Note_on_c, 0, 60, 100
2, 4980, Note_on_c, 0, 60, 0
2, 4980, Note_on_c, 0, 63, 100
2, 5040, Note_on_c, 0, 63, 0
2, 5100, Note_on_c, 0, 62, 100
2, 5160, Note_on_c, 0, 62, 0
2, 5160, Note_on_c, 0, 60, 100
2, 5220, Note_on_c, 0, 60, 0
2, 5220, Note_on_c, 0, 62, 100
2, 5280, Note_on_c, 0, 62, 0
2, 5280, Note_on_c, 0, 53, 100
2, 5340, Note_on_c, 0, 53, 0
2, 5340, Note_on_c, 0, 56, 100
2, 5400, Note_on_c, 0, 56, 0
2, 5400, Note_on_c, 0, 55, 100
2, 5460, Note_on_c, 0, 55, 0
2, 5460, Note_on_c, 0, 58, 100
2, 5520, Note_on_c, 0, 58, 0
2, 5520, Note_on_c, 0, 61, 100
2, 5580, Note_on_c, 0, 61, 0
2, 5580, Note_on_c, 0, 56, 100
2, 5640, Note_on_c, 0, 56, 0
2, 5640, Note_on_c, 0, 55, 100
2, 5700, Note_on_c, 0, 55, 0
2, 5700, Note_on_c, 0, 53, 100
2, 5760, Note_on_c, 0, 53, 0
2, 5760, Note_on_c, 0, 52, 100
2, 5820, Note_on_c, 0, 52, 0
2, 5820, Note_on_c, 0, 55, 100
2, 5880, Note_on_c, 0, 55, 0
2, 5880, Note_on_c, 0, 58, 100
2, 5940, Note_on_c, 0, 58, 0
2, 5940, Note_on_c, 0, 61, 100
2, 6000, Note_on_c, 0, 61, 0
2, 6000, Note_on_c, 0, 60, 100
2, 6060, Note_on_c, 0, 60, 0
2, 6060, Note_on_c, 0, 64, 100
2, 6120, Note_on_c, 0, 64, 0
2, 6120, Note_on_c, 0, 65, 100
2, 6180, Note_on_c, 0, 65, 0
2, 6180, Note_on_c, 0, 60, 100
2, 6240, Note_on_c, 0, 60, 0
2, 6240, Note_on_c, 0, 56, 100
2, 6300, Note_on_c, 0, 56, 0
2, 6300, Note_on_c, 0, 53, 100
2, 6360, Note_on_c, 0, 53, 0
2, 6360, Note_on_c, 0, 55, 100
2, 6420, Note_on_c, 0, 55, 0
2, 6420, Note_on_c, 0, 56, 100
2, 6480, Note_on_c, 0, 56, 0
2, 6480, Note_on_c, 0, 58, 100
2, 6540, Note_on_c, 0, 58, 0
2, 6540, Note_on_c, 0, 61, 100
2, 6600, Note_on_c, 0, 61, 0
2, 6600, Note_on_c, 0, 65, 100
2, 6660, Note_on_c, 0, 65, 0
2, 6660, Note_on_c, 0, 68, 100
2, 6720, Note_on_c, 0, 68, 0
2, 6720, Note_on_c, 0, 67, 100
2, 6780, Note_on_c, 0, 67, 0
2, 6780, Note_on_c, 0, 70, 100
2, 6840, Note_on_c, 0, 70, 0
2, 6840, Note_on_c, 0, 64, 100
2, 6900, Note_on_c, 0, 64, 0
2, 6900, Note_on_c, 0, 67, 100
2, 6960, Note_on_c, 0, 67, 0
2, 6960, Note_on_c, 0, 58, 100
2, 7020, Note_on_c, 0, 58, 0
2, 7020, Note_on_c, 0, 61, 100
2, 7080, Note_on_c, 0, 61, 0
2, 7080, Note_on_c, 0, 60, 100
2, 7140, Note_on_c, 0, 60, 0
2, 7140, Note_on_c, 0, 58, 100
2, 7200, Note_on_c, 0, 58, 0
2, 7200, Note_on_c, 0, 56, 100
2, 7260, Note_on_c, 0, 56, 0
2, 7260, Note_on_c, 0, 65, 100
2, 7320, Note_on_c, 0, 65, 0
2, 7320, Note_on_c, 0, 64, 100
2, 7380, Note_on_c, 0, 64, 0
2, 7380, Note_on_c, 0, 65, 100
2, 7440, Note_on_c, 0, 65, 0
2, 7440, Note_on_c, 0, 60, 100
2, 7500, Note_on_c, 0, 60, 0
2, 7500, Note_on_c, 0, 63, 100
2, 7560, Note_on_c, 0, 63, 0
2, 7560, Note_on_c, 0, 62, 100
2, 7620, Note_on_c, 0, 62, 0
2, 7620, Note_on_c, 0, 58, 100
2, 7680, Note_on_c, 0, 58, 0
2, 7680, Note_on_c, 0, 62, 100
2, 7740, Note_on_c, 0, 62, 0
2, 7740, Note_on_c, 0, 65, 100
2, 7800, Note_on_c, 0, 65, 0
2, 7800, Note_on_c, 0, 67, 100
2, 7860, Note_on_c, 0, 67, 0
2, 7860, Note_on_c, 0, 68, 100
2, 7920, Note_on_c, 0, 68, 0
2, 7920, Note_on_c, 0, 67, 100
2, 7980, Note_on_c, 0, 67, 0
2, 7980, Note_on_c, 0, 63, 100
2, 8040, Note_on_c, 0, 63, 0
2, 8040, Note_on_c, 0, 62, 100
2, 8100, Note_on_c, 0, 62, 0
2, 8100, Note_on_c, 0, 63, 100
2, 8160, Note_on_c, 0, 63, 0
2, 8160, Note_on_c, 0, 59, 100
2, 8220, Note_on_c, 0, 59, 0
2, 8220, Note_on_c, 0, 62, 100
2, 8280, Note_on_c, 0, 62, 0
2, 8280, Note_on_c, 0, 60, 100
2, 8340, Note_on_c, 0, 60, 0
2, 8340, Note_on_c, 0, 56, 100
2, 8400, Note_on_c, 0, 56, 0
2, 8400, Note_on_c, 0, 60, 100
2, 8460, Note_on_c, 0, 60, 0
2, 8460, Note_on_c, 0, 63, 100
2, 8520, Note_on_c, 0, 63, 0
2, 8520, Note_on_c, 0, 65, 100
2, 8580, Note_on_c, 0, 65, 0
2, 8580, Note_on_c, 0, 67, 100
2, 8640, Note_on_c, 0, 67, 0
2, 8640, Note_on_c, 0, 65, 100
2, 8700, Note_on_c, 0, 65, 0
2, 8700, Note_on_c, 0, 62, 100
2, 8760, Note_on_c, 0, 62, 0
2, 8760, Note_on_c, 0, 60, 100
2, 8820, Note_on_c, 0, 60, 0
2, 8820, Note_on_c, 0, 62, 100
2, 8880, Note_on_c, 0, 62, 0
2, 8880, Note_on_c, 0, 57, 100
2, 8940, Note_on_c, 0, 57, 0
2, 8940, Note_on_c, 0, 60, 100
2, 9000, Note_on_c, 0, 60, 0
2, 9000, Note_on_c, 0, 59, 100
2, 9060, Note_on_c, 0, 59, 0
2, 9060, Note_on_c, 0, 55, 100
2, 9120, Note_on_c, 0, 55, 0
2, 9120, Note_on_c, 0, 59, 100
2, 9180, Note_on_c, 0, 59, 0
2, 9180, Note_on_c, 0, 62, 100
2, 9240, Note_on_c, 0, 62, 0
2, 9240, Note_on_c, 0, 63, 100
2, 9300, Note_on_c, 0, 63, 0
2, 9300, Note_on_c, 0, 65, 100
2, 9360, Note_on_c, 0, 65, 0
2, 9360, Note_on_c, 0, 63, 100
2, 9420, Note_on_c, 0, 63, 0
2, 9420, Note_on_c, 0, 72, 100
2, 9480, Note_on_c, 0, 72, 0
2, 9480, Note_on_c, 0, 71, 100
2, 9540, Note_on_c, 0, 71, 0
2, 9540, Note_on_c, 0, 72, 100
2, 9600, Note_on_c, 0, 72, 0
2, 9600, Note_on_c, 0, 67, 100
2, 9660, Note_on_c, 0, 67, 0
2, 9660, Note_on_c, 0, 70, 100
2, 9720, Note_on_c, 0, 70, 0
2, 9720, Note_on_c, 0, 68, 100
2, 9780, Note_on_c, 0, 68, 0
2, 9780, Note_on_c, 0, 64, 100
2, 9840, Note_on_c, 0, 64, 0
2, 9840, Note_on_c, 0, 65, 100
2, 9900, Note_on_c, 0, 65, 0
2, 9900, Note_on_c, 0, 60, 100
2, 9960, Note_on_c, 0, 60, 0
2, 9960, Note_on_c, 0, 65, 100
2, 10020, Note_on_c, 0, 65, 0
2, 10020, Note_on_c, 0, 68, 100
2, 10080, Note_on_c, 0, 68, 0
2, 10140, Note_on_c, 0, 67, 100
2, 10200, Note_on_c, 0, 67, 0
2, 10200, Note_on_c, 0, 65, 100
2, 10260, Note_on_c, 0, 65, 0
2, 10260, Note_on_c, 0, 67, 100
2, 10320, Note_on_c, 0, 67, 0
2, 10320, Note_on_c, 0, 60, 100
2, 10380, Note_on_c, 0, 60, 0
2, 10380, Note_on_c, 0, 63, 100
2, 10440, Note_on_c, 0, 63, 0
2, 10440, Note_on_c, 0, 62, 100
2, 10500, Note_on_c, 0, 62, 0
2, 10500, Note_on_c, 0, 65, 100
2, 10560, Note_on_c, 0, 65, 0
2, 10560, Note_on_c, 0, 60, 100
2, 10620, Note_on_c, 0, 60, 0
2, 10620, Note_on_c, 0, 59, 100
2, 10680, Note_on_c, 0, 59, 0
2, 10680, Note_on_c, 0, 62, 100
2, 10740, Note_on_c, 0, 62, 0
2, 10740, Note_on_c, 0, 65, 100
2, 10800, Note_on_c, 0, 65, 0
2, 10860, Note_on_c, 0, 63, 100
2, 10920, Note_on_c, 0, 63, 0
2, 10920, Note_on_c, 0, 62, 100
2, 10980, Note_on_c, 0, 62, 0
2, 10980, Note_on_c, 0, 63, 100
2, 11040, Note_on_c, 0, 63, 0
2, 11040, Note_on_c, 0, 55, 100
2, 11100, Note_on_c, 0, 55, 0
2, 11100, Note_on_c, 0, 58, 100
2, 11160, Note_on_c, 0, 58, 0
2, 11160, Note_on_c, 0, 56, 100
2, 11220, Note_on_c, 0, 56, 0
2, 11220, Note_on_c, 0, 60, 100
2, 11280, Note_on_c, 0, 60, 0
2, 11280, Note_on_c, 0, 63, 100
2, 11340, Note_on_c, 0, 63, 0
2, 11340, Note_on_c, 0, 58, 100
2, 11400, Note_on_c, 0, 58, 0
2, 11400, Note_on_c, 0, 56, 100
2, 11460, Note_on_c, 0, 56, 0
2, 11460, Note_on_c, 0, 55, 100
2, 11520, Note_on_c, 0, 55, 0
2, 11520, Note_on_c, 0, 54, 100
2, 11580, Note_on_c, 0, 54, 0
2, 11580, Note_on_c, 0, 62, 100
2, 11640, Note_on_c, 0, 62, 0
2, 11640, Note_on_c, 0, 60, 100
2, 11700, Note_on_c, 0, 60, 0
2, 11700, Note_on_c, 0, 62, 100
2, 11760, Note_on_c, 0, 62, 0
2, 11760, Note_on_c, 0, 54, 100
2, 11820, Note_on_c, 0, 54, 0
2, 11820, Note_on_c, 0, 57, 100
2, 11880, Note_on_c, 0, 57, 0
2, 11880, Note_on_c, 0, 55, 100
2, 11940, Note_on_c, 0, 55, 0
2, 11940, Note_on_c, 0, 58, 100
2, 12000, Note_on_c, 0, 58, 0
2, 12000, Note_on_c, 0, 62, 100
2, 12060, Note_on_c, 0, 62, 0
2, 12060, Note_on_c, 0, 67, 100
2, 12120, Note_on_c, 0, 67, 0
2, 12120, Note_on_c, 0, 62, 100
2, 12180, Note_on_c, 0, 62, 0
2, 12180, Note_on_c, 0, 63, 100
2, 12240, Note_on_c, 0, 63, 0
2, 12240, Note_on_c, 0, 60, 100
2, 12300, Note_on_c, 0, 60, 0
2, 12300, Note_on_c, 0, 55, 100
2, 12360, Note_on_c, 0, 55, 0
2, 12360, Note_on_c, 0, 54, 100
2, 12420, Note_on_c, 0, 54, 0
2, 12420, Note_on_c, 0, 55, 100
2, 12480, Note_on_c, 0, 55, 0
2, 12480, Note_on_c, 0, 60, 100
2, 12540, Note_on_c, 0, 60, 0
2, 12540, Note_on_c, 0, 57, 100
2, 12600, Note_on_c, 0, 57, 0
2, 12600, Note_on_c, 0, 54, 100
2, 12660, Note_on_c, 0, 54, 0
2, 12660, Note_on_c, 0, 57, 100
2, 12720, Note_on_c, 0, 57, 0
2, 12720, Note_on_c, 0, 60, 100
2, 12780, Note_on_c, 0, 60, 0
2, 12780, Note_on_c, 0, 63, 100
2, 12840, Note_on_c, 0, 63, 0
2, 12840, Note_on_c, 0, 62, 100
2, 12900, Note_on_c, 0, 62, 0
2, 12900, Note_on_c, 0, 60, 100
2, 12960, Note_on_c, 0, 60, 0
2, 12960, Note_on_c, 0, 58, 100
2, 13020, Note_on_c, 0, 58, 0
2, 13020, Note_on_c, 0, 55, 100
2, 13080, Note_on_c, 0, 55, 0
2, 13080, Note_on_c, 0, 58, 100
2, 13140, Note_on_c, 0, 58, 0
2, 13140, Note_on_c, 0, 62, 100
2, 13200, Note_on_c, 0, 62, 0
2, 13200, Note_on_c, 0, 67, 100
2, 13260, Note_on_c, 0, 67, 0
2, 13260, Note_on_c, 0, 66, 100
2, 13320, Note_on_c, 0, 66, 0
2, 13320, Note_on_c, 0, 67, 100
2, 13380, Note_on_c, 0, 67, 0
2, 13380, Note_on_c, 0, 70, 100
2, 13440, Note_on_c, 0, 70, 0
2, 13440, Note_on_c, 0, 67, 100
2, 13500, Note_on_c, 0, 67, 0
2, 13500, Note_on_c, 0, 62, 100
2, 13560, Note_on_c, 0, 62, 0
2, 13560, Note_on_c, 0, 64, 100
2, 13620, Note_on_c, 0, 64, 0
2, 13620, Note_on_c, 0, 65, 100
2, 13680, Note_on_c, 0, 65, 0
2, 13680, Note_on_c, 0, 64, 100
2, 13740, Note_on_c, 0, 64, 0
2, 13740, Note_on_c, 0, 60, 100
2, 13800, Note_on_c, 0, 60, 0
2, 13800, Note_on_c, 0, 64, 100
2, 13860, Note_on_c, 0, 64, 0
2, 13860, Note_on_c, 0, 67, 100
2, 13920, Note_on_c, 0, 67, 0
2, 13920, Note_on_c, 0, 70, 100
2, 13980, Note_on_c, 0, 70, 0
2, 13980, Note_on_c, 0, 68, 100
2, 14040, Note_on_c, 0, 68, 0
2, 14040, Note_on_c, 0, 70, 100
2, 14100, Note_on_c, 0, 70, 0
2, 14100, Note_on_c, 0, 73, 100
2, 14160, Note_on_c, 0, 73, 0
2, 14160, Note_on_c, 0, 72, 100
2, 14220, Note_on_c, 0, 72, 0
2, 14220, Note_on_c, 0, 70, 100
2, 14280, Note_on_c, 0, 70, 0
2, 14280, Note_on_c, 0, 68, 100
2, 14340, Note_on_c, 0, 68, 0
2, 14340, Note_on_c, 0, 67, 100
2, 14400, Note_on_c, 0, 67, 0
2, 14400, Note_on_c, 0, 68, 100
2, 14460, Note_on_c, 0, 68, 0
2, 14460, Note_on_c, 0, 53, 100
2, 14520, Note_on_c, 0, 53, 0
2, 14520, Note_on_c, 0, 56, 100
2, 14580, Note_on_c, 0, 56, 0
2, 14580, Note_on_c, 0, 60, 100
2, 14640, Note_on_c, 0, 60, 0
2, 14640, Note_on_c, 0, 65, 100
2, 14700, Note_on_c, 0, 65, 0
2, 14700, Note_on_c, 0, 64, 100
2, 14760, Note_on_c, 0, 64, 0
2, 14760, Note_on_c, 0, 65, 100
2, 14820, Note_on_c, 0, 65, 0
2, 14820, Note_on_c, 0, 68, 100
2, 14880, Note_on_c, 0, 68, 0
2, 14880, Note_on_c, 0, 60, 100
2, 14940, Note_on_c, 0, 60, 0
2, 14940, Note_on_c, 0, 63, 100
2, 15000, Note_on_c, 0, 63, 0
2, 15000, Note_on_c, 0, 62, 100
2, 15060, Note_on_c, 0, 62, 0
2, 15060, Note_on_c, 0, 60, 100
2, 15120, Note_on_c, 0, 60, 0
2, 15120, Note_on_c, 0, 62, 100
2, 15180, Note_on_c, 0, 62, 0
2, 15180, Note_on_c, 0, 58, 100
2, 15240, Note_on_c, 0, 58, 0
2, 15240, Note_on_c, 0, 62, 100
2, 15300, Note_on_c, 0, 62, 0
2, 15300, Note_on_c, 0, 65, 100
2, 15360, Note_on_c, 0, 65, 0
2, 15360, Note_on_c, 0, 68, 100
2, 15420, Note_on_c, 0, 68, 0
2, 15420, Note_on_c, 0, 67, 100
2, 15480, Note_on_c, 0, 67, 0
2, 15480, Note_on_c, 0, 68, 100
2, 15540, Note_on_c, 0, 68, 0
2, 15540, Note_on_c, 0, 72, 100
2, 15600, Note_on_c, 0, 72, 0
2, 15600, Note_on_c, 0, 70, 100
2, 15660, Note_on_c, 0, 70, 0
2, 15660, Note_on_c, 0, 68, 100
2, 15720, Note_on_c, 0, 68, 0
2, 15720, Note_on_c, 0, 67, 100
2, 15780, Note_on_c, 0, 67, 0
2, 15780, Note_on_c, 0, 65, 100
2, 15840, Note_on_c, 0, 65, 0
2, 15840, Note_on_c, 0, 67, 100
2, 15900, Note_on_c, 0, 67, 0
2, 15900, Note_on_c, 0, 63, 100
2, 15960, Note_on_c, 0, 63, 0
2, 15960, Note_on_c, 0, 62, 100
2, 16020, Note_on_c, 0, 62, 0
2, 16020, Note_on_c, 0, 63, 100
2, 16080, Note_on_c, 0, 63, 0
2, 16080, Note_on_c, 0, 58, 100
2, 16140, Note_on_c, 0, 58, 0
2, 16140, Note_on_c, 0, 55, 100
2, 16200, Note_on_c, 0, 55, 0
2, 16260, Note_on_c, 0, 55, 100
2, 16320, Note_on_c, 0, 55, 0
2, 16320, Note_on_c, 0, 58, 100
2, 16380, Note_on_c, 0, 58, 0
2, 16380, Note_on_c, 0, 63, 100
2, 16440, Note_on_c, 0, 63, 0
2, 16440, Note_on_c, 0, 65, 100
2, 16500, Note_on_c, 0, 65, 0
2, 16500, Note_on_c, 0, 67, 100
2, 16560, Note_on_c, 0, 67, 0
2, 16560, Note_on_c, 0, 68, 100
2, 16620, Note_on_c, 0, 68, 0
2, 16620, Note_on_c, 0, 63, 100
2, 16680, Note_on_c, 0, 63, 0
2, 16680, Note_on_c, 0, 62, 100
2, 16740, Note_on_c, 0, 62, 0
2, 16740, Note_on_c, 0, 63, 100
2, 16800, Note_on_c, 0, 63, 0
2, 16800, Note_on_c, 0, 68, 100
2, 16860, Note_on_c, 0, 68, 0
2, 16860, Note_on_c, 0, 72, 100
2, 16920, Note_on_c, 0, 72, 0
2, 16920, Note_on_c, 0, 73, 100
2, 16980, Note_on_c, 0, 73, 0
2, 16980, Note_on_c, 0, 63, 100
2, 17040, Note_on_c, 0, 63, 0
2, 17040, Note_on_c, 0, 62, 100
2, 17100, Note_on_c, 0, 62, 0
2, 17100, Note_on_c, 0, 63, 100
2, 17160, Note_on_c, 0, 63, 0
2, 17160, Note_on_c, 0, 67, 100
2, 17220, Note_on_c, 0, 67, 0
2, 17220, Note_on_c, 0, 70, 100
2, 17280, Note_on_c, 0, 70, 0
2, 17280, Note_on_c, 0, 72, 100
2, 17340, Note_on_c, 0, 72, 0
2, 17340, Note_on_c, 0, 68, 100
2, 17400, Note_on_c, 0, 68, 0
2, 17400, Note_on_c, 0, 67, 100
2, 17460, Note_on_c, 0, 67, 0
2, 17460, Note_on_c, 0, 68, 100
2, 17520, Note_on_c, 0, 68, 0
2, 17520, Note_on_c, 0, 63, 100
2, 17580, Note_on_c, 0, 63, 0
2, 17580, Note_on_c, 0, 66, 100
2, 17640, Note_on_c, 0, 66, 0
2, 17640, Note_on_c, 0, 65, 100
2, 17700, Note_on_c, 0, 65, 0
2, 17700, Note_on_c, 0, 60, 100
2, 17760, Note_on_c, 0, 60, 0
2, 17760, Note_on_c, 0, 61, 100
2, 17820, Note_on_c, 0, 61, 0
2, 17820, Note_on_c, 0, 56, 100
2, 17880, Note_on_c, 0, 56, 0
2, 17880, Note_on_c, 0, 61, 100
2, 17940, Note_on_c, 0, 61, 0
2, 17940, Note_on_c, 0, 65, 100
2, 18000, Note_on_c, 0, 65, 0
2, 18060, Note_on_c, 0, 63, 100
2, 18120, Note_on_c, 0, 63, 0
2, 18120, Note_on_c, 0, 61, 100
2, 18180, Note_on_c, 0, 61, 0
2, 18180, Note_on_c, 0, 63, 100
2, 18240, Note_on_c, 0, 63, 0
2, 18240, Note_on_c, 0, 56, 100
2, 18300, Note_on_c, 0, 56, 0
2, 18300, Note_on_c, 0, 60, 100
2, 18360, Note_on_c, 0, 60, 0
2, 18360, Note_on_c, 0, 58, 100
2, 18420, Note_on_c, 0, 58, 0
2, 18420, Note_on_c, 0, 61, 100
2, 18480, Note_on_c, 0, 61, 0
2, 18480, Note_on_c, 0, 56, 100
2, 18540, Note_on_c, 0, 56, 0
2, 18540, Note_on_c, 0, 55, 100
2, 18600, Note_on_c, 0, 55, 0
2, 18600, Note_on_c, 0, 58, 100
2, 18660, Note_on_c, 0, 58, 0
2, 18660, Note_on_c, 0, 61, 100
2, 18720, Note_on_c, 0, 61, 0
2, 18780, Note_on_c, 0, 60, 100
2, 18840, Note_on_c, 0, 60, 0
2, 18840, Note_on_c, 0, 58, 100
2, 18900, Note_on_c, 0, 58, 0
2, 18900, Note_on_c, 0, 60, 100
2, 18960, Note_on_c, 0, 60, 0
2, 18960, Note_on_c, 0, 56, 100
2, 19020, Note_on_c, 0, 56, 0
2, 19020, Note_on_c, 0, 55, 100
2, 19080, Note_on_c, 0, 55, 0
2, 19080, Note_on_c, 0, 56, 100
2, 19140, Note_on_c, 0, 56, 0
2, 19140, Note_on_c, 0, 53, 100
2, 19200, Note_on_c, 0, 53, 0
2, 19200, Note_on_c, 0, 52, 100
2, 19260, Note_on_c, 0, 52, 0
2, 19260, Note_on_c, 0, 53, 100
2, 19320, Note_on_c, 0, 53, 0
2, 19320, Note_on_c, 0, 60, 100
2, 19380, Note_on_c, 0, 60, 0
2, 19380, Note_on_c, 0, 63, 100
2, 19440, Note_on_c, 0, 63, 0
2, 19440, Note_on_c, 0, 62, 100
2, 19500, Note_on_c, 0, 62, 0
2, 19500, Note_on_c, 0, 58, 100
2, 19560, Note_on_c, 0, 58, 0
2, 19560, Note_on_c, 0, 57, 100
2, 19620, Note_on_c, 0, 57, 0
2, 19620, Note_on_c, 0, 58, 100
2, 19680, Note_on_c, 0, 58, 0
2, 19680, Note_on_c, 0, 60, 100
2, 19740, Note_on_c, 0, 60, 0
2, 19740, Note_on_c, 0, 62, 100
2, 19800, Note_on_c, 0, 62, 0
2, 19800, Note_on_c, 0, 63, 100
2, 19860, Note_on_c, 0, 63, 0
2, 19860, Note_on_c, 0, 58, 100
2, 19920, Note_on_c, 0, 58, 0
2, 19920, Note_on_c, 0, 57, 100
2, 19980, Note_on_c, 0, 57, 0
2, 19980, Note_on_c, 0, 58, 100
2, 20040, Note_on_c, 0, 58, 0
2, 20040, Note_on_c, 0, 62, 100
2, 20100, Note_on_c, 0, 62, 0
2, 20100, Note_on_c, 0, 63, 100
2, 20160, Note_on_c, 0, 63, 0
2, 20160, Note_on_c, 0, 65, 100
2, 20220, Note_on_c, 0, 65, 0
2, 20220, Note_on_c, 0, 58, 100
2, 20280, Note_on_c, 0, 58, 0
2, 20280, Note_on_c, 0, 57, 100
2, 20340, Note_on_c, 0, 57, 0
2, 20340, Note_on_c, 0, 58, 100
2, 20400, Note_on_c, 0, 58, 0
2, 20400, Note_on_c, 0, 62, 100
2, 20460, Note_on_c, 0, 62, 0
2, 20460, Note_on_c, 0, 65, 100
2, 20520, Note_on_c, 0, 65, 0
2, 20520, Note_on_c, 0, 68, 100
2, 20580, Note_on_c, 0, 68, 0
2, 20580, Note_on_c, 0, 72, 100
2, 20640, Note_on_c, 0, 72, 0
2, 20640, Note_on_c, 0, 70, 100
2, 20700, Note_on_c, 0, 70, 0
2, 20700, Note_on_c, 0, 68, 100
2, 20760, Note_on_c, 0, 68, 0
2, 20760, Note_on_c, 0, 67, 100
2, 20820, Note_on_c, 0, 67, 0
2, 20820, Note_on_c, 0, 65, 100
2, 20880, Note_on_c, 0, 65, 0
2, 20880, Note_on_c, 0, 67, 100
2, 20940, Note_on_c, 0, 67, 0
2, 20940, Note_on_c, 0, 63, 100
2, 21000, Note_on_c, 0, 63, 0
2, 21000, Note_on_c, 0, 62, 100
2, 21060, Note_on_c, 0, 62, 0
2, 21060, Note_on_c, 0, 63, 100
2, 21120, Note_on_c, 0, 63, 0
2, 21120, Note_on_c, 0, 67, 100
2, 21180, Note_on_c, 0, 67, 0
2, 21180, Note_on_c, 0, 61, 100
2, 21240, Note_on_c, 0, 61, 0
2, 21240, Note_on_c, 0, 60, 100
2, 21300, Note_on_c, 0, 60, 0
2, 21300, Note_on_c, 0, 67, 100
2, 21360, Note_on_c, 0, 67, 0
2, 21360, Note_on_c, 0, 58, 100
2, 21420, Note_on_c, 0, 58, 0
2, 21420, Note_on_c, 0, 56, 100
2, 21480, Note_on_c, 0, 56, 0
2, 21480, Note_on_c, 0, 63, 100
2, 21540, Note_on_c, 0, 63, 0
2, 21540, Note_on_c, 0, 67, 100
2, 21600, Note_on_c, 0, 67, 0
2, 21600, Note_on_c, 0, 65, 100
2, 21660, Note_on_c, 0, 65, 0
2, 21660, Note_on_c, 0, 62, 100
2, 21720, Note_on_c, 0, 62, 0
2, 21720, Note_on_c, 0, 60, 100
2, 21780, Note_on_c, 0, 60, 0
2, 21780, Note_on_c, 0, 62, 100
2, 21840, Note_on_c, 0, 62, 0
2, 21840, Note_on_c, 0, 65, 100
2, 21900, Note_on_c, 0, 65, 0
2, 21900, Note_on_c, 0, 60, 100
2, 21960, Note_on_c, 0, 60, 0
2, 21960, Note_on_c, 0, 58, 100
2, 22020, Note_on_c, 0, 58, 0
2, 22020, Note_on_c, 0, 65, 100
2, 22080, Note_on_c, 0, 65, 0
2, 22080, Note_on_c, 0, 56, 100
2, 22140, Note_on_c, 0, 56, 0
2, 22140, Note_on_c, 0, 55, 100
2, 22200, Note_on_c, 0, 55, 0
2, 22200, Note_on_c, 0, 62, 100
2, 22260, Note_on_c, 0, 62, 0
2, 22260, Note_on_c, 0, 65, 100
2, 22320, Note_on_c, 0, 65, 0
2, 22320, Note_on_c, 0, 63, 100
2, 22380, Note_on_c, 0, 63, 0
2, 22380, Note_on_c, 0, 60, 100
2, 22440, Note_on_c, 0, 60, 0
2, 22440, Note_on_c, 0, 58, 100
2, 22500, Note_on_c, 0, 58, 0
2, 22500, Note_on_c, 0, 60, 100
2, 22560, Note_on_c, 0, 60, 0
2, 22560, Note_on_c, 0, 63, 100
2, 22620, Note_on_c, 0, 63, 0
2, 22620, Note_on_c, 0, 58, 100
2, 22680, Note_on_c, 0, 58, 0
2, 22680, Note_on_c, 0, 56, 100
2, 22740, Note_on_c, 0, 56, 0
2, 22740, Note_on_c, 0, 63, 100
2, 22800, Note_on_c, 0, 63, 0
2, 22800, Note_on_c, 0, 55, 100
2, 22860, Note_on_c, 0, 55, 0
2, 22860, Note_on_c, 0, 53, 100
2, 22920, Note_on_c, 0, 53, 0
2, 22920, Note_on_c, 0, 60, 100
2, 22980, Note_on_c, 0, 60, 0
2, 22980, Note_on_c, 0, 63, 100
2, 23040, Note_on_c, 0, 63, 0
2, 23040, Note_on_c, 0, 62, 100
2, 23100, Note_on_c, 0, 62, 0
2, 23100, Note_on_c, 0, 56, 100
2, 23160, Note_on_c, 0, 56, 0
2, 23160, Note_on_c, 0, 55, 100
2, 23220, Note_on_c, 0, 55, 0
2, 23220, Note_on_c, 0, 56, 100
2, 23280, Note_on_c, 0, 56, 0
2, 23280, Note_on_c, 0, 62, 100
2, 23340, Note_on_c, 0, 62, 0
2, 23340, Note_on_c, 0, 65, 100
2, 23400, Note_on_c, 0, 65, 0
2, 23400, Note_on_c, 0, 70, 100
2, 23460, Note_on_c, 0, 70, 0
2, 23460, Note_on_c, 0, 56, 100
2, 23520, Note_on_c, 0, 56, 0
2, 23520, Note_on_c, 0, 55, 100
2, 23580, Note_on_c, 0, 55, 0
2, 23580, Note_on_c, 0, 56, 100
2, 23640, Note_on_c, 0, 56, 0
2, 23640, Note_on_c, 0, 62, 100
2, 23700, Note_on_c, 0, 62, 0
2, 23700, Note_on_c, 0, 65, 100
2, 23760, Note_on_c, 0, 65, 0
2, 23760, Note_on_c, 0, 70, 100
2, 23820, Note_on_c, 0, 70, 0
2, 23820, Note_on_c, 0, 55, 100
2, 23880, Note_on_c, 0, 55, 0
2, 23880, Note_on_c, 0, 53, 100
2, 23940, Note_on_c, 0, 53, 0
2, 23940, Note_on_c, 0, 55, 100
2, 24000, Note_on_c, 0, 55, 0
2, 24000, Note_on_c, 0, 58, 100
2, 24060, Note_on_c, 0, 58, 0
2, 24060, Note_on_c, 0, 63, 100
2, 24120, Note_on_c, 0, 63, 0
2, 24120, Note_on_c, 0, 70, 100
2, 24180, Note_on_c, 0, 70, 0
2, 24180, Note_on_c, 0, 55, 100
2, 24240, Note_on_c, 0, 55, 0
2, 24240, Note_on_c, 0, 53, 100
2, 24300, Note_on_c, 0, 53, 0
2, 24300, Note_on_c, 0, 55, 100
2, 24360, Note_on_c, 0, 55, 0
2, 24360, Note_on_c, 0, 58, 100
2, 24420, Note_on_c, 0, 58, 0
2, 24420, Note_on_c, 0, 63, 100
2, 24480, Note_on_c, 0, 63, 0
2, 24480, Note_on_c, 0, 70, 100
2, 24540, Note_on_c, 0, 70, 0
2, 24540, Note_on_c, 0, 53, 100
2, 24600, Note_on_c, 0, 53, 0
2, 24600, Note_on_c, 0, 51, 100
2, 24660, Note_on_c, 0, 51, 0
2, 24660, Note_on_c, 0, 53, 100
2, 24720, Note_on_c, 0, 53, 0
2, 24720, Note_on_c, 0, 58, 100
2, 24780, Note_on_c, 0, 58, 0
2, 24780, Note_on_c, 0, 62, 100
2, 24840, Note_on_c, 0, 62, 0
2, 24840, Note_on_c, 0, 68, 100
2, 24900, Note_on_c, 0, 68, 0
2, 24900, Note_on_c, 0, 53, 100
2, 24960, Note_on_c, 0, 53, 0
2, 24960, Note_on_c, 0, 51, 100
2, 25020, Note_on_c, 0, 51, 0
2, 25020, Note_on_c, 0, 53, 100
2, 25080, Note_on_c, 0, 53, 0
2, 25080, Note_on_c, 0, 58, 100
2, 25140, Note_on_c, 0, 58, 0
2, 25140, Note_on_c, 0, 62, 100
2, 25200, Note_on_c, 0, 62, 0
2, 25200, Note_on_c, 0, 67, 100
2, 25260, Note_on_c, 0, 67, 0
2, 25260, Note_on_c, 0, 58, 100
2, 25320, Note_on_c, 0, 58, 0
2, 25320, Note_on_c, 0, 63, 100
2, 25380, Note_on_c, 0, 63, 0
2, 25380, Note_on_c, 0, 63, 100
2, 25440, Note_on_c, 0, 63, 0
2, 25440, Note_on_c, 0, 58, 100
2, 25500, Note_on_c, 0, 58, 0
2, 25500, Note_on_c, 0, 63, 100
2, 25560, Note_on_c, 0, 63, 0
2, 25620, Note_on_c, 0, 58, 100
2, 25680, Note_on_c, 0, 58, 0
2, 25680, Note_on_c, 0, 63, 100
2, 25740, Note_on_c, 0, 63, 0
2, 25740, Note_on_c, 0, 63, 100
2, 25800, Note_on_c, 0, 63, 0
2, 25800, Note_on_c, 0, 58, 100
2, 25860, Note_on_c, 0, 58, 0
2, 25860, Note_on_c, 0, 63, 100
2, 25920, Note_on_c, 0, 63, 0
2, 25980, Note_on_c, 0, 56, 100
2, 26040, Note_on_c, 0, 56, 0
2, 26040, Note_on_c, 0, 63, 100
2, 26100, Note_on_c, 0, 63, 0
2, 26100, Note_on_c, 0, 63, 100
2, 26160, Note_on_c, 0, 63, 0
2, 26160, Note_on_c, 0, 56, 100
2, 26220, Note_on_c, 0, 56, 0
2, 26220, Note_on_c, 0, 63, 100
2, 26280, Note_on_c, 0, 63, 0
2, 26340, Note_on_c, 0, 55, 100
2, 26400, Note_on_c, 0, 55, 0
2, 26400, Note_on_c, 0, 61, 100
2, 26460, Note_on_c, 0, 61, 0
2, 26460, Note_on_c, 0, 61, 100
2, 26520, Note_on_c, 0, 61, 0
2, 26520, Note_on_c, 0, 55, 100
2, 26580, Note_on_c, 0, 55, 0
2, 26580, Note_on_c, 0, 61, 100
2, 26640, Note_on_c, 0, 61, 0
2, 26640, Note_on_c, 0, 71, 100
2, 26700, Note_on_c, 0, 71, 0
2, 26700, Note_on_c, 0, 68, 100
2, 26760, Note_on_c, 0, 68, 0
2, 26760, Note_on_c, 0, 67, 100
2, 26820, Note_on_c, 0, 67, 0
2, 26820, Note_on_c, 0, 68, 100
2, 26880, Note_on_c, 0, 68, 0
2, 26880, Note_on_c, 0, 63, 100
2, 26940, Note_on_c, 0, 63, 0
2, 26940, Note_on_c, 0, 61, 100
2, 27000, Note_on_c, 0, 61, 0
2, 27000, Note_on_c, 0, 63, 100
2, 27060, Note_on_c, 0, 63, 0
2, 27060, Note_on_c, 0, 59, 100
2, 27120, Note_on_c, 0, 59, 0
2, 27120, Note_on_c, 0, 58, 100
2, 27180, Note_on_c, 0, 58, 0
2, 27180, Note_on_c, 0, 59, 100
2, 27240, Note_on_c, 0, 59, 0
2, 27240, Note_on_c, 0, 56, 100
2, 27300, Note_on_c, 0, 56, 0
2, 27300, Note_on_c, 0, 55, 100
2, 27360, Note_on_c, 0, 55, 0
2, 27360, Note_on_c, 0, 56, 100
2, 27420, Note_on_c, 0, 56, 0
2, 27420, Note_on_c, 0, 52, 100
2, 27480, Note_on_c, 0, 52, 0
2, 27480, Note_on_c, 0, 51, 100
2, 27540, Note_on_c, 0, 51, 0
2, 27540, Note_on_c, 0, 52, 100
2, 27600, Note_on_c, 0, 52, 0
2, 27600, Note_on_c, 0, 56, 100
2, 27660, Note_on_c, 0, 56, 0
2, 27660, Note_on_c, 0, 59, 100
2, 27720, Note_on_c, 0, 59, 0
2, 27720, Note_on_c, 0, 64, 100
2, 27780, Note_on_c, 0, 64, 0
2, 27780, Note_on_c, 0, 59, 100
2, 27840, Note_on_c, 0, 59, 0
2, 27840, Note_on_c, 0, 56, 100
2, 27900, Note_on_c, 0, 56, 0
2, 27900, Note_on_c, 0, 59, 100
2, 27960, Note_on_c, 0, 59, 0
2, 27960, Note_on_c, 0, 64, 100
2, 28020, Note_on_c, 0, 64, 0
2, 28020, Note_on_c, 0, 68, 100
2, 28080, Note_on_c, 0, 68, 0
2, 28080, Note_on_c, 0, 70, 100
2, 28200, Note_on_c, 0, 70, 0
2, 28200, Note_on_c, 0, 69, 100
2, 28260, Note_on_c, 0, 69, 0
2, 28290, Note_on_c, 0, 67, 100
2, 28320, Note_on_c, 0, 67, 0
2, 28320, Note_on_c, 0, 70, 100
2, 28350, Note_on_c, 0, 70, 0
2, 28350, Note_on_c, 0, 69, 100
2, 28380, Note_on_c, 0, 69, 0
2, 28380, Note_on_c, 0, 67, 100
2, 28410, Note_on_c, 0, 67, 0
2, 28410, Note_on_c, 0, 65, 100
2, 28440, Note_on_c, 0, 65, 0
2, 28440, Note_on_c, 0, 70, 100
2, 28500, Note_on_c, 0, 70, 0
2, 28500, Note_on_c, 0, 65, 100
2, 28560, Note_on_c, 0, 65, 0
2, 28560, Note_on_c, 0, 62, 100
2, 28620, Note_on_c, 0, 62, 0
2, 28620, Note_on_c, 0, 58, 100
2, 28680, Note_on_c, 0, 58, 0
2, 28680, Note_on_c, 0, 65, 100
2, 28740, Note_on_c, 0, 65, 0
2, 28740, Note_on_c, 0, 68, 100
2, 28800, Note_on_c, 0, 68, 0
2, 28800, Note_on_c, 0, 67, 100
2, 28860, Note_on_c, 0, 67, 0
2, 28860, Note_on_c, 0, 65, 100
2, 28920, Note_on_c, 0, 65, 0
2, 28920, Note_on_c, 0, 63, 100
2, 28980, Note_on_c, 0, 63, 0
2, 28980, Note_on_c, 0, 65, 100
2, 29040, Note_on_c, 0, 65, 0
2, 29040, Note_on_c, 0, 60, 100
2, 29100, Note_on_c, 0, 60, 0
2, 29100, Note_on_c, 0, 63, 100
2, 29160, Note_on_c, 0, 63, 0
2, 29160, Note_on_c, 0, 53, 100
2, 29220, Note_on_c, 0, 53, 0
2, 29220, Note_on_c, 0, 56, 100
2, 29280, Note_on_c, 0, 56, 0
2, 29280, Note_on_c, 0, 55, 100
2, 29340, Note_on_c, 0, 55, 0
2, 29340, Note_on_c, 0, 56, 100
2, 29400, Note_on_c, 0, 56, 0
2, 29400, Note_on_c, 0, 63, 100
2, 29460, Note_on_c, 0, 63, 0
2, 29460, Note_on_c, 0, 62, 100
2, 29520, Note_on_c, 0, 62, 0
2, 29520, Note_on_c, 0, 63, 100
2, 29580, Note_on_c, 0, 63, 0
2, 29580, Note_on_c, 0, 75, 100
2, 29640, Note_on_c, 0, 75, 0
2, 29640, Note_on_c, 0, 74, 100
2, 29700, Note_on_c, 0, 74, 0
2, 29700, Note_on_c, 0, 75, 100
2, 29760, Note_on_c, 0, 75, 0
2, 29760, Note_on_c, 0, 70, 100
2, 29820, Note_on_c, 0, 70, 0
2, 29820, Note_on_c, 0, 73, 100
2, 29880, Note_on_c, 0, 73, 0
2, 29880, Note_on_c, 0, 72, 100
2, 29940, Note_on_c, 0, 72, 0
2, 29940, Note_on_c, 0, 67, 100
2, 30000, Note_on_c, 0, 67, 0
2, 30000, Note_on_c, 0, 68, 100
2, 30060, Note_on_c, 0, 68, 0
2, 30060, Note_on_c, 0, 63, 100
2, 30120, Note_on_c, 0, 63, 0
2, 30120, Note_on_c, 0, 68, 100
2, 30180, Note_on_c, 0, 68, 0
2, 30180, Note_on_c, 0, 72, 100
2, 30240, Note_on_c, 0, 72, 0
2, 30300, Note_on_c, 0, 70, 100
2, 30360, Note_on_c, 0, 70, 0
2, 30360, Note_on_c, 0, 68, 100
2, 30420, Note_on_c, 0, 68, 0
2, 30420, Note_on_c, 0, 70, 100
2, 30480, Note_on_c, 0, 70, 0
2, 30480, Note_on_c, 0, 63, 100
2, 30540, Note_on_c, 0, 63, 0
2, 30540, Note_on_c, 0, 67, 100
2, 30600, Note_on_c, 0, 67, 0
2, 30600, Note_on_c, 0, 65, 100
2, 30660, Note_on_c, 0, 65, 0
2, 30660, Note_on_c, 0, 68, 100
2, 30720, Note_on_c, 0, 68, 0
2, 30720, Note_on_c, 0, 60, 100
2, 30780, Note_on_c, 0, 60, 0
2, 30780, Note_on_c, 0, 62, 100
2, 30840, Note_on_c, 0, 62, 0
2, 30840, Note_on_c, 0, 65, 100
2, 30900, Note_on_c, 0, 65, 0
2, 30900, Note_on_c, 0, 68, 100
2, 30960, Note_on_c, 0, 68, 0
2, 31020, Note_on_c, 0, 67, 100
2, 31080, Note_on_c, 0, 67, 0
2, 31080, Note_on_c, 0, 65, 100
2, 31140, Note_on_c, 0, 65, 0
2, 31140, Note_on_c, 0, 67, 100
2, 31200, Note_on_c, 0, 67, 0
2, 31200, Note_on_c, 0, 58, 100
2, 31260, Note_on_c, 0, 58, 0
2, 31260, Note_on_c, 0, 61, 100
2, 31320, Note_on_c, 0, 61, 0
2, 31320, Note_on_c, 0, 60, 100
2, 31380, Note_on_c, 0, 60, 0
2, 31380, Note_on_c, 0, 63, 100
2, 31440, Note_on_c, 0, 63, 0
2, 31440, Note_on_c, 0, 68, 100
2, 31500, Note_on_c, 0, 68, 0
2, 31500, Note_on_c, 0, 60, 100
2, 31560, Note_on_c, 0, 60, 0
2, 31560, Note_on_c, 0, 58, 100
2, 31620, Note_on_c, 0, 58, 0
2, 31620, Note_on_c, 0, 56, 100
2, 31680, Note_on_c, 0, 56, 0
2, 31680, Note_on_c, 0, 58, 100
2, 31740, Note_on_c, 0, 58, 0
2, 31740, Note_on_c, 0, 63, 100
2, 31800, Note_on_c, 0, 63, 0
2, 31800, Note_on_c, 0, 67, 100
2, 31860, Note_on_c, 0, 67, 0
2, 31860, Note_on_c, 0, 58, 100
2, 31920, Note_on_c, 0, 58, 0
2, 31920, Note_on_c, 0, 56, 100
2, 31980, Note_on_c, 0, 56, 0
2, 31980, Note_on_c, 0, 55, 100
2, 32040, Note_on_c, 0, 55, 0
2, 32040, Note_on_c, 0, 56, 100
2, 32100, Note_on_c, 0, 56, 0
2, 32100, Note_on_c, 0, 62, 100
2, 32160, Note_on_c, 0, 62, 0
2, 32160, Note_on_c, 0, 65, 100
2, 32220, Note_on_c, 0, 65, 0
2, 32220, Note_on_c, 0, 56, 100
2, 32280, Note_on_c, 0, 56, 0
2, 32280, Note_on_c, 0, 55, 100
2, 32340, Note_on_c, 0, 55, 0
2, 32340, Note_on_c, 0, 53, 100
2, 32400, Note_on_c, 0, 53, 0
2, 32400, Note_on_c, 0, 55, 100
2, 32460, Note_on_c, 0, 55, 0
2, 32460, Note_on_c, 0, 58, 100
2, 32520, Note_on_c, 0, 58, 0
2, 32520, Note_on_c, 0, 63, 100
2, 32580, Note_on_c, 0, 63, 0
2, 32580, Note_on_c, 0, 67, 100
2, 32640, Note_on_c, 0, 67, 0
2, 32640, Note_on_c, 0, 70, 100
2, 32700, Note_on_c, 0, 70, 0
2, 32700, Note_on_c, 0, 73, 100
2, 32760, Note_on_c, 0, 73, 0
2, 32760, Note_on_c, 0, 72, 100
2, 32820, Note_on_c, 0, 72, 0
2, 32820, Note_on_c, 0, 68, 100
2, 32880, Note_on_c, 0, 68, 0
2, 32880, Note_on_c, 0, 65, 100
2, 32940, Note_on_c, 0, 65, 0
2, 32940, Note_on_c, 0, 62, 100
2, 33000, Note_on_c, 0, 62, 0
2, 33000, Note_on_c, 0, 65, 100
2, 33060, Note_on_c, 0, 65, 0
2, 33060, Note_on_c, 0, 68, 100
2, 33120, Note_on_c, 0, 68, 0
2, 33120, Note_on_c, 0, 67, 100
2, 33180, Note_on_c, 0, 67, 0
2, 33180, Note_on_c, 0, 63, 100
2, 33240, Note_on_c, 0, 63, 0
2, 33240, Note_on_c, 0, 58, 100
2, 33300, Note_on_c, 0, 58, 0
2, 33300, Note_on_c, 0, 55, 100
2, 33360, Note_on_c, 0, 55, 0
2, 33360, Note_on_c, 0, 58, 100
2, 33420, Note_on_c, 0, 58, 0
2, 33420, Note_on_c, 0, 61, 100
2, 33480, Note_on_c, 0, 61, 0
2, 33480, Note_on_c, 0, 60, 100
2, 33540, Note_on_c, 0, 60, 0
2, 33540, Note_on_c, 0, 56, 100
2, 33600, Note_on_c, 0, 56, 0
2, 33600, Note_on_c, 0, 53, 100
2, 33660, Note_on_c, 0, 53, 0
2, 33660, Note_on_c, 0, 50, 100
2, 33720, Note_on_c, 0, 50, 0
2, 33720, Note_on_c, 0, 53, 100
2, 33780, Note_on_c, 0, 53, 0
2, 33780, Note_on_c, 0, 56, 100
2, 33840, Note_on_c, 0, 56, 0
2, 33840, Note_on_c, 0, 56, 100
2, 33960, Note_on_c, 0, 56, 0
2, 33960, Note_on_c, 0, 55, 100
2, 34020, Note_on_c, 0, 55, 0
2, 34020, End_track
3, 0, Start_track
3, 0, MIDI_port, 0
3, 0, Title_t, "--------------------------------------"
3, 0, Program_c, 1, 24
3, 0, Control_c, 1, 7, 100
3, 0, Control_c, 1, 10, 84
3, 0, Note_on_c, 1, 39, 100
3, 120, Note_on_c, 1, 39, 0
3, 720, Note_on_c, 1, 39, 100
3, 840, Note_on_c, 1, 39, 0
3, 1440, Note_on_c, 1, 39, 100
3, 1560, Note_on_c, 1, 39, 0
3, 2160, Note_on_c, 1, 39, 100
3, 2280, Note_on_c, 1, 39, 0
3, 2520, Note_on_c, 1, 38, 100
3, 2640, Note_on_c, 1, 38, 0
3, 2880, Note_on_c, 1, 36, 100
3, 3000, Note_on_c, 1, 36, 0
3, 3240, Note_on_c, 1, 41, 100
3, 3360, Note_on_c, 1, 41, 0
3, 3600, Note_on_c, 1, 46, 100
3, 3720, Note_on_c, 1, 46, 0
3, 4320, Note_on_c, 1, 46, 100
3, 4440, Note_on_c, 1, 46, 0
3, 5040, Note_on_c, 1, 46, 100
3, 5160, Note_on_c, 1, 46, 0
3, 5760, Note_on_c, 1, 46, 100
3, 5880, Note_on_c, 1, 46, 0
3, 6120, Note_on_c, 1, 44, 100
3, 6240, Note_on_c, 1, 44, 0
3, 6480, Note_on_c, 1, 43, 100
3, 6600, Note_on_c, 1, 43, 0
3, 6840, Note_on_c, 1, 48, 100
3, 6960, Note_on_c, 1, 48, 0
3, 7200, Note_on_c, 1, 41, 100
3, 7320, Note_on_c, 1, 41, 0
3, 7380, Note_on_c, 1, 44, 100
3, 7500, Note_on_c, 1, 44, 0
3, 7560, Note_on_c, 1, 46, 100
3, 7680, Note_on_c, 1, 46, 0
3, 7740, Note_on_c, 1, 50, 100
3, 7860, Note_on_c, 1, 50, 0
3, 7920, Note_on_c, 1, 39, 100
3, 8040, Note_on_c, 1, 39, 0
3, 8100, Note_on_c, 1, 43, 100
3, 8220, Note_on_c, 1, 43, 0
3, 8280, Note_on_c, 1, 44, 100
3, 8400, Note_on_c, 1, 44, 0
3, 8460, Note_on_c, 1, 48, 100
3, 8580, Note_on_c, 1, 48, 0
3, 8640, Note_on_c, 1, 38, 100
3, 8760, Note_on_c, 1, 38, 0
3, 8820, Note_on_c, 1, 41, 100
3, 8940, Note_on_c, 1, 41, 0
3, 9000, Note_on_c, 1, 43, 100
3, 9120, Note_on_c, 1, 43, 0
3, 9180, Note_on_c, 1, 47, 100
3, 9300, Note_on_c, 1, 47, 0
3, 9360, Note_on_c, 1, 36, 100
3, 9480, Note_on_c, 1, 36, 0
3, 10080, Note_on_c, 1, 36, 100
3, 10200, Note_on_c, 1, 36, 0
3, 10800, Note_on_c, 1, 36, 100
3, 10920, Note_on_c, 1, 36, 0
3, 11520, Note_on_c, 1, 48, 100
3, 11640, Note_on_c, 1, 48, 0
3, 11880, Note_on_c, 1, 46, 100
3, 12000, Note_on_c, 1, 46, 0
3, 12240, Note_on_c, 1, 45, 100
3, 12360, Note_on_c, 1, 45, 0
3, 12600, Note_on_c, 1, 50, 100
3, 12720, Note_on_c, 1, 50, 0
3, 12960, Note_on_c, 1, 43, 100
3, 13080, Note_on_c, 1, 43, 0
3, 13320, Note_on_c, 1, 46, 100
3, 13440, Note_on_c, 1, 46, 0
3, 13680, Note_on_c, 1, 48, 100
3, 13800, Note_on_c, 1, 48, 0
3, 14040, Note_on_c, 1, 52, 100
3, 14160, Note_on_c, 1, 52, 0
3, 14400, Note_on_c, 1, 41, 100
3, 14520, Note_on_c, 1, 41, 0
3, 14760, Note_on_c, 1, 44, 100
3, 14880, Note_on_c, 1, 44, 0
3, 15120, Note_on_c, 1, 46, 100
3, 15240, Note_on_c, 1, 46, 0
3, 15480, Note_on_c, 1, 50, 100
3, 15600, Note_on_c, 1, 50, 0
3, 15840, Note_on_c, 1, 39, 100
3, 15960, Note_on_c, 1, 39, 0
3, 16200, Note_on_c, 1, 49, 100
3, 16320, Note_on_c, 1, 49, 0
3, 16560, Note_on_c, 1, 48, 100
3, 16680, Note_on_c, 1, 48, 0
3, 16920, Note_on_c, 1, 46, 100
3, 17040, Note_on_c, 1, 46, 0
3, 17280, Note_on_c, 1, 44, 100
3, 17400, Note_on_c, 1, 44, 0
3, 18000, Note_on_c, 1, 44, 100
3, 18120, Note_on_c, 1, 44, 0
3, 18720, Note_on_c, 1, 44, 100
3, 18840, Note_on_c, 1, 44, 0
3, 19440, Note_on_c, 1, 44, 100
3, 19560, Note_on_c, 1, 44, 0
3, 19800, Note_on_c, 1, 43, 100
3, 19920, Note_on_c, 1, 43, 0
3, 20160, Note_on_c, 1, 38, 100
3, 20280, Note_on_c, 1, 38, 0
3, 20520, Note_on_c, 1, 34, 100
3, 20640, Note_on_c, 1, 34, 0
3, 20880, Note_on_c, 1, 39, 100
3, 21000, Note_on_c, 1, 39, 0
3, 21060, Note_on_c, 1, 43, 100
3, 21180, Note_on_c, 1, 43, 0
3, 21240, Note_on_c, 1, 44, 100
3, 21360, Note_on_c, 1, 44, 0
3, 21420, Note_on_c, 1, 48, 100
3, 21540, Note_on_c, 1, 48, 0
3, 21600, Note_on_c, 1, 38, 100
3, 21720, Note_on_c, 1, 38, 0
3, 21780, Note_on_c, 1, 41, 100
3, 21900, Note_on_c, 1, 41, 0
3, 21960, Note_on_c, 1, 43, 100
3, 22080, Note_on_c, 1, 43, 0
3, 22140, Note_on_c, 1, 46, 100
3, 22260, Note_on_c, 1, 46, 0
3, 22320, Note_on_c, 1, 36, 100
3, 22440, Note_on_c, 1, 36, 0
3, 22500, Note_on_c, 1, 39, 100
3, 22620, Note_on_c, 1, 39, 0
3, 22680, Note_on_c, 1, 41, 100
3, 22800, Note_on_c, 1, 41, 0
3, 22860, Note_on_c, 1, 44, 100
3, 22980, Note_on_c, 1, 44, 0
3, 23040, Note_on_c, 1, 46, 100
3, 23160, Note_on_c, 1, 46, 0
3, 23760, Note_on_c, 1, 48, 100
3, 23880, Note_on_c, 1, 48, 0
3, 24480, Note_on_c, 1, 50, 100
3, 24600, Note_on_c, 1, 50, 0
3, 25200, Note_on_c, 1, 51, 100
3, 25320, Note_on_c, 1, 51, 0
3, 25560, Note_on_c, 1, 49, 100
3, 25680, Note_on_c, 1, 49, 0
3, 25920, Note_on_c, 1, 47, 100
3, 26040, Note_on_c, 1, 47, 0
3, 26280, Note_on_c, 1, 46, 100
3, 26400, Note_on_c, 1, 46, 0
3, 26640, Note_on_c, 1, 44, 100
3, 26760, Note_on_c, 1, 44, 0
3, 27360, Note_on_c, 1, 44, 100
3, 27480, Note_on_c, 1, 44, 0
3, 28080, Note_on_c, 1, 39, 100
3, 28260, Note_on_c, 1, 39, 0
3, 28440, Note_on_c, 1, 38, 100
3, 28560, Note_on_c, 1, 38, 0
3, 28800, Note_on_c, 1, 39, 100
3, 28920, Note_on_c, 1, 39, 0
3, 28980, Note_on_c, 1, 44, 100
3, 29100, Note_on_c, 1, 44, 0
3, 29160, Note_on_c, 1, 46, 100
3, 29280, Note_on_c, 1, 46, 0
3, 29340, Note_on_c, 1, 34, 100
3, 29460, Note_on_c, 1, 34, 0
3, 29520, Note_on_c, 1, 39, 100
3, 29640, Note_on_c, 1, 39, 0
3, 30240, Note_on_c, 1, 39, 100
3, 30360, Note_on_c, 1, 39, 0
3, 30960, Note_on_c, 1, 39, 100
3, 31080, Note_on_c, 1, 39, 0
3, 31320, Note_on_c, 1, 39, 100
3, 31440, Note_on_c, 1, 39, 0
3, 31680, Note_on_c, 1, 39, 100
3, 31800, Note_on_c, 1, 39, 0
3, 32040, Note_on_c, 1, 39, 100
3, 32160, Note_on_c, 1, 39, 0
3, 32400, Note_on_c, 1, 39, 100
3, 32520, Note_on_c, 1, 39, 0
3, 32700, Note_on_c, 1, 43, 100
3, 32760, Note_on_c, 1, 43, 0
3, 32760, Note_on_c, 1, 44, 100
3, 32880, Note_on_c, 1, 44, 0
3, 32940, Note_on_c, 1, 46, 100
3, 33060, Note_on_c, 1, 46, 0
3, 33120, Note_on_c, 1, 48, 100
3, 33240, Note_on_c, 1, 48, 0
3, 33420, Note_on_c, 1, 43, 100
3, 33480, Note_on_c, 1, 43, 0
3, 33480, Note_on_c, 1, 44, 100
3, 33600, Note_on_c, 1, 44, 0
3, 33660, Note_on_c, 1, 46, 100
3, 33780, Note_on_c, 1, 46, 0
3, 33840, Note_on_c, 1, 39, 100
3, 34020, Note_on_c, 1, 39, 0
3, 34020, End_track
4, 0, Start_track
4, 0, MIDI_port, 0
4, 0, Title_t, "Johann Sebastian Bach   (1685-1750)"
4, 0, Program_c, 2, 24
4, 0, Control_c, 2, 7, 100
4, 0, Control_c, 2, 10, 44
4, 3600, Note_on_c, 2, 34, 100
4, 3720, Note_on_c, 2, 34, 0
4, 25200, Note_on_c, 2, 67, 100
4, 25320, Note_on_c, 2, 67, 0
4, 25320, Note_on_c, 2, 67, 100
4, 25380, Note_on_c, 2, 67, 0
4, 25380, Note_on_c, 2, 67, 100
4, 25500, Note_on_c, 2, 67, 0
4, 25500, Note_on_c, 2, 67, 100
4, 25560, Note_on_c, 2, 67, 0
4, 25680, Note_on_c, 2, 67, 100
4, 25740, Note_on_c, 2, 67, 0
4, 25740, Note_on_c, 2, 67, 100
4, 25860, Note_on_c, 2, 67, 0
4, 25860, Note_on_c, 2, 67, 100
4, 25920, Note_on_c, 2, 67, 0
4, 26040, Note_on_c, 2, 68, 100
4, 26100, Note_on_c, 2, 68, 0
4, 26100, Note_on_c, 2, 68, 100
4, 26220, Note_on_c, 2, 68, 0
4, 26220, Note_on_c, 2, 68, 100
4, 26280, Note_on_c, 2, 68, 0
4, 26400, Note_on_c, 2, 70, 100
4, 26460, Note_on_c, 2, 70, 0
4, 26460, Note_on_c, 2, 70, 100
4, 26580, Note_on_c, 2, 70, 0
4, 26580, Note_on_c, 2, 70, 100
4, 26640, Note_on_c, 2, 70, 0
4, 26640, Note_on_c, 2, 63, 100
4, 26700, Note_on_c, 2, 63, 0
4, 28080, Note_on_c, 2, 65, 100
4, 28080, Note_on_c, 2, 60, 100
4, 28260, Note_on_c, 2, 60, 0
4, 28260, Note_on_c, 2, 65, 0
4, 32700, Note_on_c, 2, 51, 100
4, 32760, Note_on_c, 2, 51, 0
4, 32760, Note_on_c, 2, 51, 100
4, 32880, Note_on_c, 2, 51, 0
4, 32940, Note_on_c, 2, 53, 100
4, 33060, Note_on_c, 2, 53, 0
4, 33120, Note_on_c, 2, 51, 100
4, 33240, Note_on_c, 2, 51, 0
4, 33840, Note_on_c, 2, 46, 100
4, 33840, Note_on_c, 2, 51, 100
4, 34020, Note_on_c, 2, 51, 0
4, 34020, Note_on_c, 2, 46, 0
4, 34020, End_track
5, 0, Start_track
5, 0, MIDI_port, 0
5, 0, Title_t, "Prelude, Fugue, and Allegro - BWV 998"
5, 0, End_track
6, 0, Start_track
6, 0, MIDI_port, 0
6, 0, Title_t, "1. Prelude"
6, 0, End_track
7, 0, Start_track
7, 0, MIDI_port, 0
7, 0, Title_t, "--------------------------------------"
7, 0, End_track
8, 0, Start_track
8, 0, MIDI_port, 0
8, 0, Title_t, "Sequenced with Cakewalk Pro Audio by"
8, 0, End_track
9, 0, Start_track
9, 0, MIDI_port, 0
9, 0, Title_t, "David J. Grossman"
9, 0, End_track
10, 0, Start_track
10, 0, MIDI_port, 0
10, 0, Title_t, "( freely distributable )"
10, 0, End_track
11, 0, Start_track
11, 0, MIDI_port, 0
11, 0, Title_t, "--------------------------------------"
11, 0, End_track
12, 0, Start_track
12, 0, MIDI_port, 0
12, 0, Title_t, "e-mail: dave@unpronounceable.com"
12, 0, End_track
13, 0, Start_track
13, 0, MIDI_port, 0
13, 0, Title_t, "visit Dave's J.S. Bach Page at:"
13, 0, End_track
14, 0, Start_track
14, 0, MIDI_port, 0
14, 0, Title_t, "http://www.unpronounceable.com/bach"
14, 0, End_track
15, 0, Start_track
15, 0, MIDI_port, 0
15, 0, Title_t, "--------------------------------------"
15, 0, End_track
16, 0, Start_track
16, 0, MIDI_port, 0
16, 0, Title_t, "Original Filename: pfa-1pre.mid"
16, 0, End_track
17, 0, Start_track
17, 0, MIDI_port, 0
17, 0, Title_t, "Last Modified: 12-6-96"
17, 0, End_track
0, 0, End_of_file
