0, 0, Header, 1, 5, 1024
1, 0, Start_track
1, 0, Time_signature, 4, 2, 24, 8
1, 0, Key_signature, -2, "major"
1, 0, Tempo, 652173
1, 102400, End_track
2, 0, Start_track
2, 0, Title_t, "Instrument 1"
2, 3072, Note_on_c, 0, 77, 96
2, 4096, Note_off_c, 0, 77, 0
2, 4096, Note_on_c, 0, 79, 96
2, 5120, Note_off_c, 0, 79, 0
2, 5120, Note_on_c, 0, 77, 96
2, 5632, Note_off_c, 0, 77, 0
2, 5632, Note_on_c, 0, 75, 96
2, 6144, Note_off_c, 0, 75, 0
2, 6144, Note_on_c, 0, 74, 96
2, 6656, Note_off_c, 0, 74, 0
2, 6656, Note_on_c, 0, 75, 96
2, 7168, Note_off_c, 0, 75, 0
2, 7168, Note_on_c, 0, 77, 96
2, 8192, Note_off_c, 0, 77, 0
2, 8192, Note_on_c, 0, 72, 96
2, 10240, Note_off_c, 0, 72, 0
2, 10240, Note_on_c, 0, 74, 96
2, 11264, Note_off_c, 0, 74, 0
2, 11264, Note_on_c, 0, 76, 96
2, 12288, Note_off_c, 0, 76, 0
2, 12288, Note_on_c, 0, 77, 96
2, 14336, Note_off_c, 0, 77, 0
2, 15360, Note_on_c, 0, 77, 96
2, 16384, Note_off_c, 0, 77, 0
2, 16384, Note_on_c, 0, 79, 96
2, 17408, Note_off_c, 0, 79, 0
2, 17408, Note_on_c, 0, 77, 96
2, 18432, Note_off_c, 0, 77, 0
2, 18432, Note_on_c, 0, 72, 96
2, 18944, Note_off_c, 0, 72, 0
2, 18944, Note_on_c, 0, 74, 96
2, 19456, Note_off_c, 0, 74, 0
2, 19456, Note_on_c, 0, 75, 96
2, 20480, Note_off_c, 0, 75, 0
2, 20480, Note_on_c, 0, 74, 96
2, 21504, Note_off_c, 0, 74, 0
2, 21504, Note_on_c, 0, 72, 96
2, 22528, Note_off_c, 0, 72, 0
2, 22528, Note_on_c, 0, 70, 96
2, 23552, Note_off_c, 0, 70, 0
2, 23552, Note_on_c, 0, 70, 96
2, 24576, Note_off_c, 0, 70, 0
2, 24576, Note_on_c, 0, 72, 96
2, 25088, Note_off_c, 0, 72, 0
2, 25088, Note_on_c, 0, 74, 96
2, 25600, Note_off_c, 0, 74, 0
2, 25600, Note_on_c, 0, 75, 96
2, 26624, Note_off_c, 0, 75, 0
2, 26624, Note_on_c, 0, 74, 96
2, 27136, Note_off_c, 0, 74, 0
2, 27136, Note_on_c, 0, 75, 96
2, 27648, Note_off_c, 0, 75, 0
2, 27648, Note_on_c, 0, 77, 96
2, 29696, Note_off_c, 0, 77, 0
2, 29696, Note_on_c, 0, 72, 96
2, 30720, Note_off_c, 0, 72, 0
2, 30720, Note_on_c, 0, 70, 96
2, 31232, Note_off_c, 0, 70, 0
2, 31232, Note_on_c, 0, 69, 96
2, 31744, Note_off_c, 0, 69, 0
2, 31744, Note_on_c, 0, 67, 96
2, 32768, Note_off_c, 0, 67, 0
2, 32768, Note_on_c, 0, 65, 96
2, 34816, Note_off_c, 0, 65, 0
2, 35840, Note_on_c, 0, 65, 96
2, 36864, Note_off_c, 0, 65, 0
2, 36864, Note_on_c, 0, 70, 96
2, 37888, Note_off_c, 0, 70, 0
2, 37888, Note_on_c, 0, 72, 96
2, 38912, Note_off_c, 0, 72, 0
2, 38912, Note_on_c, 0, 74, 96
2, 39424, Note_off_c, 0, 74, 0
2, 39424, Note_on_c, 0, 75, 96
2, 39936, Note_off_c, 0, 75, 0
2, 39936, Note_on_c, 0, 77, 96
2, 41984, Note_off_c, 0, 77, 0
2, 41984, Note_on_c, 0, 75, 96
2, 43008, Note_off_c, 0, 75, 0
2, 43008, Note_on_c, 0, 74, 96
2, 44032, Note_off_c, 0, 74, 0
2, 44032, Note_on_c, 0, 72, 96
2, 45056, Note_off_c, 0, 72, 0
2, 45056, Note_on_c, 0, 74, 96
2, 47104, Note_off_c, 0, 74, 0
2, 48128, Note_on_c, 0, 74, 96
2, 48640, Note_off_c, 0, 74, 0
2, 48640, Note_on_c, 0, 75, 96
2, 49152, Note_off_c, 0, 75, 0
2, 49152, Note_on_c, 0, 77, 96
2, 50176, Note_off_c, 0, 77, 0
2, 50176, Note_on_c, 0, 79, 96
2, 51200, Note_off_c, 0, 79, 0
2, 51200, Note_on_c, 0, 77, 96
2, 52224, Note_off_c, 0, 77, 0
2, 52224, Note_on_c, 0, 72, 96
2, 53248, Note_off_c, 0, 72, 0
2, 53248, Note_on_c, 0, 74, 96
2, 54272, Note_off_c, 0, 74, 0
2, 54272, Note_on_c, 0, 76, 96
2, 55296, Note_off_c, 0, 76, 0
2, 55296, Note_on_c, 0, 77, 96
2, 56320, Note_off_c, 0, 77, 0
2, 56320, Note_on_c, 0, 77, 96
2, 57344, Note_off_c, 0, 77, 0
2, 57344, Note_on_c, 0, 79, 96
2, 58368, Note_off_c, 0, 79, 0
2, 58368, Note_on_c, 0, 77, 96
2, 59392, Note_off_c, 0, 77, 0
2, 59392, Note_on_c, 0, 72, 96
2, 59904, Note_off_c, 0, 72, 0
2, 59904, Note_on_c, 0, 74, 96
2, 60416, Note_off_c, 0, 74, 0
2, 60416, Note_on_c, 0, 75, 96
2, 61440, Note_off_c, 0, 75, 0
2, 61440, Note_on_c, 0, 74, 96
2, 62464, Note_off_c, 0, 74, 0
2, 62464, Note_on_c, 0, 72, 96
2, 63488, Note_off_c, 0, 72, 0
2, 63488, Note_on_c, 0, 70, 96
2, 64512, Note_off_c, 0, 70, 0
2, 64512, Note_on_c, 0, 70, 96
2, 65536, Note_off_c, 0, 70, 0
2, 65536, Note_on_c, 0, 72, 96
2, 66048, Note_off_c, 0, 72, 0
2, 66048, Note_on_c, 0, 74, 96
2, 66560, Note_off_c, 0, 74, 0
2, 66560, Note_on_c, 0, 75, 96
2, 67584, Note_off_c, 0, 75, 0
2, 67584, Note_on_c, 0, 74, 96
2, 68096, Note_off_c, 0, 74, 0
2, 68096, Note_on_c, 0, 75, 96
2, 68608, Note_off_c, 0, 75, 0
2, 68608, Note_on_c, 0, 77, 96
2, 70656, Note_off_c, 0, 77, 0
2, 70656, Note_on_c, 0, 72, 96
2, 71680, Note_off_c, 0, 72, 0
2, 71680, Note_on_c, 0, 70, 96
2, 72192, Note_off_c, 0, 70, 0
2, 72192, Note_on_c, 0, 69, 96
2, 72704, Note_off_c, 0, 69, 0
2, 72704, Note_on_c, 0, 67, 96
2, 73728, Note_off_c, 0, 67, 0
2, 73728, Note_on_c, 0, 65, 96
2, 75776, Note_off_c, 0, 65, 0
2, 76800, Note_on_c, 0, 65, 96
2, 77824, Note_off_c, 0, 65, 0
2, 77824, Note_on_c, 0, 70, 96
2, 78848, Note_off_c, 0, 70, 0
2, 78848, Note_on_c, 0, 72, 96
2, 79872, Note_off_c, 0, 72, 0
2, 79872, Note_on_c, 0, 74, 96
2, 80384, Note_off_c, 0, 74, 0
2, 80384, Note_on_c, 0, 75, 96
2, 80896, Note_off_c, 0, 75, 0
2, 80896, Note_on_c, 0, 77, 96
2, 82944, Note_off_c, 0, 77, 0
2, 82944, Note_on_c, 0, 75, 96
2, 83968, Note_off_c, 0, 75, 0
2, 83968, Note_on_c, 0, 74, 96
2, 84992, Note_off_c, 0, 74, 0
2, 84992, Note_on_c, 0, 72, 96
2, 86016, Note_off_c, 0, 72, 0
2, 86016, Note_on_c, 0, 67, 96
2, 87040, Note_off_c, 0, 67, 0
2, 87040, Note_on_c, 0, 69, 96
2, 88064, Note_off_c, 0, 69, 0
2, 88064, Note_on_c, 0, 70, 96
2, 89088, Note_off_c, 0, 70, 0
2, 89088, Note_on_c, 0, 72, 96
2, 90112, Note_off_c, 0, 72, 0
2, 90112, Note_on_c, 0, 74, 96
2, 91136, Note_off_c, 0, 74, 0
2, 91136, Note_on_c, 0, 70, 96
2, 92160, Note_off_c, 0, 70, 0
2, 92160, Note_on_c, 0, 67, 96
2, 94208, Note_off_c, 0, 67, 0
2, 94208, Note_on_c, 0, 65, 96
2, 95232, Note_off_c, 0, 65, 0
2, 95232, Note_on_c, 0, 72, 96
2, 95744, Note_off_c, 0, 72, 0
2, 95744, Note_on_c, 0, 74, 96
2, 96000, Note_off_c, 0, 74, 0
2, 96000, Note_on_c, 0, 75, 96
2, 96256, Note_off_c, 0, 75, 0
2, 96256, Note_on_c, 0, 74, 96
2, 98304, Note_off_c, 0, 74, 0
2, 98304, Note_on_c, 0, 72, 96
2, 100352, Note_off_c, 0, 72, 0
2, 100352, Note_on_c, 0, 70, 96
2, 102400, Note_off_c, 0, 70, 0
2, 102400, End_track
3, 0, Start_track
3, 0, Title_t, "Instrument 2"
3, 3072, Note_on_c, 1, 70, 96
3, 4096, Note_off_c, 1, 70, 0
3, 4096, Note_on_c, 1, 70, 96
3, 5120, Note_off_c, 1, 70, 0
3, 5120, Note_on_c, 1, 69, 96
3, 6144, Note_off_c, 1, 69, 0
3, 6144, Note_on_c, 1, 70, 96
3, 7168, Note_off_c, 1, 70, 0
3, 7168, Note_on_c, 1, 65, 96
3, 7680, Note_off_c, 1, 65, 0
3, 7680, Note_on_c, 1, 67, 96
3, 8192, Note_off_c, 1, 67, 0
3, 8192, Note_on_c, 1, 69, 96
3, 10240, Note_off_c, 1, 69, 0
3, 10240, Note_on_c, 1, 70, 96
3, 11264, Note_off_c, 1, 70, 0
3, 11264, Note_on_c, 1, 70, 96
3, 12288, Note_off_c, 1, 70, 0
3, 12288, Note_on_c, 1, 69, 96
3, 14336, Note_off_c, 1, 69, 0
3, 15360, Note_on_c, 1, 70, 96
3, 16384, Note_off_c, 1, 70, 0
3, 16384, Note_on_c, 1, 70, 96
3, 17408, Note_off_c, 1, 70, 0
3, 17408, Note_on_c, 1, 69, 96
3, 17920, Note_off_c, 1, 69, 0
3, 17920, Note_on_c, 1, 67, 96
3, 18432, Note_off_c, 1, 67, 0
3, 18432, Note_on_c, 1, 65, 96
3, 19456, Note_off_c, 1, 65, 0
3, 19456, Note_on_c, 1, 67, 96
3, 19968, Note_off_c, 1, 67, 0
3, 19968, Note_on_c, 1, 69, 96
3, 20480, Note_off_c, 1, 69, 0
3, 20480, Note_on_c, 1, 70, 96
3, 21504, Note_off_c, 1, 70, 0
3, 21504, Note_on_c, 1, 69, 96
3, 22528, Note_off_c, 1, 69, 0
3, 22528, Note_on_c, 1, 65, 96
3, 23552, Note_off_c, 1, 65, 0
3, 23552, Note_on_c, 1, 65, 96
3, 24576, Note_off_c, 1, 65, 0
3, 24576, Note_on_c, 1, 65, 96
3, 25600, Note_off_c, 1, 65, 0
3, 25600, Note_on_c, 1, 67, 96
3, 26624, Note_off_c, 1, 67, 0
3, 26624, Note_on_c, 1, 65, 96
3, 27136, Note_off_c, 1, 65, 0
3, 27136, Note_on_c, 1, 67, 96
3, 27648, Note_off_c, 1, 67, 0
3, 27648, Note_on_c, 1, 69, 96
3, 29184, Note_off_c, 1, 69, 0
3, 29184, Note_on_c, 1, 70, 96
3, 29696, Note_off_c, 1, 70, 0
3, 29696, Note_on_c, 1, 69, 96
3, 30208, Note_off_c, 1, 69, 0
3, 30208, Note_on_c, 1, 67, 96
3, 30720, Note_off_c, 1, 67, 0
3, 30720, Note_on_c, 1, 65, 96
3, 31232, Note_off_c, 1, 65, 0
3, 31232, Note_on_c, 1, 62, 96
3, 31744, Note_off_c, 1, 62, 0
3, 31744, Note_on_c, 1, 64, 96
3, 32768, Note_off_c, 1, 64, 0
3, 32768, Note_on_c, 1, 60, 96
3, 34816, Note_off_c, 1, 60, 0
3, 35840, Note_on_c, 1, 60, 96
3, 36864, Note_off_c, 1, 60, 0
3, 36864, Note_on_c, 1, 65, 96
3, 37376, Note_off_c, 1, 65, 0
3, 37376, Note_on_c, 1, 67, 96
3, 37888, Note_off_c, 1, 67, 0
3, 37888, Note_on_c, 1, 69, 96
3, 38912, Note_off_c, 1, 69, 0
3, 38912, Note_on_c, 1, 70, 96
3, 40448, Note_off_c, 1, 70, 0
3, 40448, Note_on_c, 1, 72, 96
3, 40960, Note_off_c, 1, 72, 0
3, 40960, Note_on_c, 1, 74, 96
3, 42496, Note_off_c, 1, 74, 0
3, 42496, Note_on_c, 1, 72, 96
3, 43008, Note_off_c, 1, 72, 0
3, 43008, Note_on_c, 1, 70, 96
3, 43520, Note_off_c, 1, 70, 0
3, 43520, Note_on_c, 1, 69, 96
3, 44032, Note_off_c, 1, 69, 0
3, 44032, Note_on_c, 1, 67, 96
3, 45056, Note_off_c, 1, 67, 0
3, 45056, Note_on_c, 1, 66, 96
3, 47104, Note_off_c, 1, 66, 0
3, 48128, Note_on_c, 1, 70, 96
3, 49152, Note_off_c, 1, 70, 0
3, 49152, Note_on_c, 1, 69, 96
3, 49664, Note_off_c, 1, 69, 0
3, 49664, Note_on_c, 1, 71, 96
3, 50176, Note_off_c, 1, 71, 0
3, 50176, Note_on_c, 1, 72, 96
3, 51200, Note_off_c, 1, 72, 0
3, 51200, Note_on_c, 1, 72, 96
3, 51712, Note_off_c, 1, 72, 0
3, 51712, Note_on_c, 1, 70, 96
3, 52224, Note_off_c, 1, 70, 0
3, 52224, Note_on_c, 1, 69, 96
3, 52736, Note_off_c, 1, 69, 0
3, 52736, Note_on_c, 1, 67, 96
3, 53248, Note_off_c, 1, 67, 0
3, 53248, Note_on_c, 1, 65, 96
3, 54272, Note_off_c, 1, 65, 0
3, 54272, Note_on_c, 1, 67, 96
3, 55296, Note_off_c, 1, 67, 0
3, 55296, Note_on_c, 1, 69, 96
3, 56320, Note_off_c, 1, 69, 0
3, 56320, Note_on_c, 1, 70, 96
3, 56832, Note_off_c, 1, 70, 0
3, 56832, Note_on_c, 1, 69, 96
3, 57344, Note_off_c, 1, 69, 0
3, 57344, Note_on_c, 1, 67, 96
3, 57856, Note_off_c, 1, 67, 0
3, 57856, Note_on_c, 1, 69, 96
3, 58368, Note_off_c, 1, 69, 0
3, 58368, Note_on_c, 1, 70, 96
3, 59392, Note_off_c, 1, 70, 0
3, 59392, Note_on_c, 1, 69, 96
3, 60416, Note_off_c, 1, 69, 0
3, 60416, Note_on_c, 1, 67, 96
3, 61440, Note_off_c, 1, 67, 0
3, 61440, Note_on_c, 1, 65, 96
3, 61952, Note_off_c, 1, 65, 0
3, 61952, Note_on_c, 1, 67, 96
3, 62464, Note_off_c, 1, 67, 0
3, 62464, Note_on_c, 1, 69, 96
3, 63488, Note_off_c, 1, 69, 0
3, 63488, Note_on_c, 1, 65, 96
3, 64512, Note_off_c, 1, 65, 0
3, 64512, Note_on_c, 1, 67, 96
3, 65536, Note_off_c, 1, 67, 0
3, 65536, Note_on_c, 1, 67, 96
3, 66560, Note_off_c, 1, 67, 0
3, 66560, Note_on_c, 1, 67, 96
3, 67072, Note_off_c, 1, 67, 0
3, 67072, Note_on_c, 1, 69, 96
3, 67584, Note_off_c, 1, 69, 0
3, 67584, Note_on_c, 1, 70, 96
3, 70656, Note_off_c, 1, 70, 0
3, 70656, Note_on_c, 1, 69, 96
3, 71680, Note_off_c, 1, 69, 0
3, 71680, Note_on_c, 1, 70, 96
3, 72192, Note_off_c, 1, 70, 0
3, 72192, Note_on_c, 1, 65, 96
3, 73216, Note_off_c, 1, 65, 0
3, 73216, Note_on_c, 1, 64, 96
3, 73728, Note_off_c, 1, 64, 0
3, 73728, Note_on_c, 1, 60, 96
3, 75776, Note_off_c, 1, 60, 0
3, 76800, Note_on_c, 1, 65, 96
3, 77312, Note_off_c, 1, 65, 0
3, 77312, Note_on_c, 1, 63, 96
3, 77824, Note_off_c, 1, 63, 0
3, 77824, Note_on_c, 1, 62, 96
3, 78336, Note_off_c, 1, 62, 0
3, 78336, Note_on_c, 1, 67, 96
3, 78848, Note_off_c, 1, 67, 0
3, 78848, Note_on_c, 1, 65, 96
3, 79360, Note_off_c, 1, 65, 0
3, 79360, Note_on_c, 1, 63, 96
3, 79872, Note_off_c, 1, 63, 0
3, 79872, Note_on_c, 1, 62, 96
3, 81408, Note_off_c, 1, 62, 0
3, 81408, Note_on_c, 1, 63, 96
3, 81664, Note_off_c, 1, 63, 0
3, 81664, Note_on_c, 1, 65, 96
3, 81920, Note_off_c, 1, 65, 0
3, 81920, Note_on_c, 1, 67, 96
3, 82944, Note_off_c, 1, 67, 0
3, 82944, Note_on_c, 1, 67, 96
3, 83968, Note_off_c, 1, 67, 0
3, 83968, Note_on_c, 1, 67, 96
3, 84992, Note_off_c, 1, 67, 0
3, 84992, Note_on_c, 1, 67, 96
3, 85504, Note_off_c, 1, 67, 0
3, 85504, Note_on_c, 1, 65, 96
3, 86016, Note_off_c, 1, 65, 0
3, 86016, Note_on_c, 1, 63, 96
3, 88064, Note_off_c, 1, 63, 0
3, 88064, Note_on_c, 1, 62, 96
3, 89088, Note_off_c, 1, 62, 0
3, 89088, Note_on_c, 1, 65, 96
3, 90112, Note_off_c, 1, 65, 0
3, 90112, Note_on_c, 1, 65, 96
3, 92672, Note_off_c, 1, 65, 0
3, 92672, Note_on_c, 1, 62, 96
3, 93184, Note_off_c, 1, 62, 0
3, 93184, Note_on_c, 1, 63, 96
3, 94208, Note_off_c, 1, 63, 0
3, 94208, Note_on_c, 1, 62, 96
3, 95232, Note_off_c, 1, 62, 0
3, 95232, Note_on_c, 1, 65, 96
3, 97280, Note_off_c, 1, 65, 0
3, 97280, Note_on_c, 1, 67, 96
3, 99328, Note_off_c, 1, 67, 0
3, 99328, Note_on_c, 1, 65, 96
3, 99840, Note_off_c, 1, 65, 0
3, 99840, Note_on_c, 1, 63, 96
3, 100352, Note_off_c, 1, 63, 0
3, 100352, Note_on_c, 1, 62, 96
3, 102400, Note_off_c, 1, 62, 0
3, 102400, End_track
4, 0, Start_track
4, 0, Title_t, "Instrument 3"
4, 3072, Note_on_c, 2, 62, 96
4, 4096, Note_off_c, 2, 62, 0
4, 4096, Note_on_c, 2, 63, 96
4, 4608, Note_off_c, 2, 63, 0
4, 4608, Note_on_c, 2, 62, 96
4, 5120, Note_off_c, 2, 62, 0
4, 5120, Note_on_c, 2, 60, 96
4, 6144, Note_off_c, 2, 60, 0
4, 6144, Note_on_c, 2, 58, 96
4, 7168, Note_off_c, 2, 58, 0
4, 7168, Note_on_c, 2, 58, 96
4, 8192, Note_off_c, 2, 58, 0
4, 8192, Note_on_c, 2, 65, 96
4, 10240, Note_off_c, 2, 65, 0
4, 10240, Note_on_c, 2, 65, 96
4, 11264, Note_off_c, 2, 65, 0
4, 11264, Note_on_c, 2, 58, 96
4, 12288, Note_off_c, 2, 58, 0
4, 12288, Note_on_c, 2, 60, 96
4, 14336, Note_off_c, 2, 60, 0
4, 15360, Note_on_c, 2, 58, 96
4, 16384, Note_off_c, 2, 58, 0
4, 16384, Note_on_c, 2, 63, 96
4, 16896, Note_off_c, 2, 63, 0
4, 16896, Note_on_c, 2, 62, 96
4, 17408, Note_off_c, 2, 62, 0
4, 17408, Note_on_c, 2, 60, 96
4, 17920, Note_off_c, 2, 60, 0
4, 17920, Note_on_c, 2, 58, 96
4, 18432, Note_off_c, 2, 58, 0
4, 18432, Note_on_c, 2, 57, 96
4, 18944, Note_off_c, 2, 57, 0
4, 18944, Note_on_c, 2, 58, 96
4, 19456, Note_off_c, 2, 58, 0
4, 19456, Note_on_c, 2, 51, 96
4, 20480, Note_off_c, 2, 51, 0
4, 20480, Note_on_c, 2, 53, 96
4, 21504, Note_off_c, 2, 53, 0
4, 21504, Note_on_c, 2, 65, 96
4, 22016, Note_off_c, 2, 65, 0
4, 22016, Note_on_c, 2, 63, 96
4, 22528, Note_off_c, 2, 63, 0
4, 22528, Note_on_c, 2, 62, 96
4, 23552, Note_off_c, 2, 62, 0
4, 23552, Note_on_c, 2, 62, 96
4, 24576, Note_off_c, 2, 62, 0
4, 24576, Note_on_c, 2, 60, 96
4, 25600, Note_off_c, 2, 60, 0
4, 25600, Note_on_c, 2, 58, 96
4, 26112, Note_off_c, 2, 58, 0
4, 26112, Note_on_c, 2, 60, 96
4, 26624, Note_off_c, 2, 60, 0
4, 26624, Note_on_c, 2, 62, 96
4, 27648, Note_off_c, 2, 62, 0
4, 27648, Note_on_c, 2, 60, 96
4, 28160, Note_off_c, 2, 60, 0
4, 28160, Note_on_c, 2, 58, 96
4, 28672, Note_off_c, 2, 58, 0
4, 28672, Note_on_c, 2, 60, 96
4, 29696, Note_off_c, 2, 60, 0
4, 29696, Note_on_c, 2, 65, 96
4, 30720, Note_off_c, 2, 65, 0
4, 30720, Note_on_c, 2, 65, 96
4, 31744, Note_off_c, 2, 65, 0
4, 31744, Note_on_c, 2, 60, 96
4, 32256, Note_off_c, 2, 60, 0
4, 32256, Note_on_c, 2, 58, 96
4, 32768, Note_off_c, 2, 58, 0
4, 32768, Note_on_c, 2, 57, 96
4, 34816, Note_off_c, 2, 57, 0
4, 35840, Note_on_c, 2, 57, 96
4, 36864, Note_off_c, 2, 57, 0
4, 36864, Note_on_c, 2, 58, 96
4, 37888, Note_off_c, 2, 58, 0
4, 37888, Note_on_c, 2, 63, 96
4, 38912, Note_off_c, 2, 63, 0
4, 38912, Note_on_c, 2, 65, 96
4, 39424, Note_off_c, 2, 65, 0
4, 39424, Note_on_c, 2, 63, 96
4, 39936, Note_off_c, 2, 63, 0
4, 39936, Note_on_c, 2, 62, 96
4, 40448, Note_off_c, 2, 62, 0
4, 40448, Note_on_c, 2, 60, 96
4, 40960, Note_off_c, 2, 60, 0
4, 40960, Note_on_c, 2, 59, 96
4, 41472, Note_off_c, 2, 59, 0
4, 41472, Note_on_c, 2, 57, 96
4, 41984, Note_off_c, 2, 57, 0
4, 41984, Note_on_c, 2, 55, 96
4, 43008, Note_off_c, 2, 55, 0
4, 43008, Note_on_c, 2, 54, 96
4, 44032, Note_off_c, 2, 54, 0
4, 44032, Note_on_c, 2, 55, 96
4, 45056, Note_off_c, 2, 55, 0
4, 45056, Note_on_c, 2, 57, 96
4, 47104, Note_off_c, 2, 57, 0
4, 48128, Note_on_c, 2, 58, 96
4, 48640, Note_off_c, 2, 58, 0
4, 48640, Note_on_c, 2, 60, 96
4, 49152, Note_off_c, 2, 60, 0
4, 49152, Note_on_c, 2, 62, 96
4, 50176, Note_off_c, 2, 62, 0
4, 50176, Note_on_c, 2, 64, 96
4, 51200, Note_off_c, 2, 64, 0
4, 51200, Note_on_c, 2, 65, 96
4, 52736, Note_off_c, 2, 65, 0
4, 52736, Note_on_c, 2, 63, 96
4, 53248, Note_off_c, 2, 63, 0
4, 53248, Note_on_c, 2, 62, 96
4, 53760, Note_off_c, 2, 62, 0
4, 53760, Note_on_c, 2, 60, 96
4, 54272, Note_off_c, 2, 60, 0
4, 54272, Note_on_c, 2, 58, 96
4, 55296, Note_off_c, 2, 58, 0
4, 55296, Note_on_c, 2, 60, 96
4, 56320, Note_off_c, 2, 60, 0
4, 56320, Note_on_c, 2, 62, 96
4, 57344, Note_off_c, 2, 62, 0
4, 57344, Note_on_c, 2, 63, 96
4, 58368, Note_off_c, 2, 63, 0
4, 58368, Note_on_c, 2, 65, 96
4, 59392, Note_off_c, 2, 65, 0
4, 59392, Note_on_c, 2, 65, 96
4, 60416, Note_off_c, 2, 65, 0
4, 60416, Note_on_c, 2, 58, 96
4, 60928, Note_off_c, 2, 58, 0
4, 60928, Note_on_c, 2, 60, 96
4, 61440, Note_off_c, 2, 60, 0
4, 61440, Note_on_c, 2, 62, 96
4, 61952, Note_off_c, 2, 62, 0
4, 61952, Note_on_c, 2, 58, 96
4, 62464, Note_off_c, 2, 58, 0
4, 62464, Note_on_c, 2, 65, 96
4, 62976, Note_off_c, 2, 65, 0
4, 62976, Note_on_c, 2, 63, 96
4, 63488, Note_off_c, 2, 63, 0
4, 63488, Note_on_c, 2, 62, 96
4, 64512, Note_off_c, 2, 62, 0
4, 64512, Note_on_c, 2, 63, 96
4, 65536, Note_off_c, 2, 63, 0
4, 65536, Note_on_c, 2, 63, 96
4, 66048, Note_off_c, 2, 63, 0
4, 66048, Note_on_c, 2, 62, 96
4, 66560, Note_off_c, 2, 62, 0
4, 66560, Note_on_c, 2, 60, 96
4, 67584, Note_off_c, 2, 60, 0
4, 67584, Note_on_c, 2, 62, 96
4, 68096, Note_off_c, 2, 62, 0
4, 68096, Note_on_c, 2, 60, 96
4, 68608, Note_off_c, 2, 60, 0
4, 68608, Note_on_c, 2, 58, 96
4, 69120, Note_off_c, 2, 58, 0
4, 69120, Note_on_c, 2, 60, 96
4, 69632, Note_off_c, 2, 60, 0
4, 69632, Note_on_c, 2, 62, 96
4, 70144, Note_off_c, 2, 62, 0
4, 70144, Note_on_c, 2, 64, 96
4, 70656, Note_off_c, 2, 64, 0
4, 70656, Note_on_c, 2, 65, 96
4, 72704, Note_off_c, 2, 65, 0
4, 72704, Note_on_c, 2, 60, 96
4, 73216, Note_off_c, 2, 60, 0
4, 73216, Note_on_c, 2, 58, 96
4, 73728, Note_off_c, 2, 58, 0
4, 73728, Note_on_c, 2, 57, 96
4, 75776, Note_off_c, 2, 57, 0
4, 76800, Note_on_c, 2, 57, 96
4, 77824, Note_off_c, 2, 57, 0
4, 77824, Note_on_c, 2, 58, 96
4, 78336, Note_off_c, 2, 58, 0
4, 78336, Note_on_c, 2, 63, 96
4, 78848, Note_off_c, 2, 63, 0
4, 78848, Note_on_c, 2, 62, 96
4, 79360, Note_off_c, 2, 62, 0
4, 79360, Note_on_c, 2, 60, 96
4, 79872, Note_off_c, 2, 60, 0
4, 79872, Note_on_c, 2, 58, 96
4, 81408, Note_off_c, 2, 58, 0
4, 81408, Note_on_c, 2, 60, 96
4, 81920, Note_off_c, 2, 60, 0
4, 81920, Note_on_c, 2, 62, 96
4, 83456, Note_off_c, 2, 62, 0
4, 83456, Note_on_c, 2, 60, 96
4, 83968, Note_off_c, 2, 60, 0
4, 83968, Note_on_c, 2, 58, 96
4, 84480, Note_off_c, 2, 58, 0
4, 84480, Note_on_c, 2, 57, 96
4, 84992, Note_off_c, 2, 57, 0
4, 84992, Note_on_c, 2, 55, 96
4, 86016, Note_off_c, 2, 55, 0
4, 86016, Note_on_c, 2, 60, 96
4, 88064, Note_off_c, 2, 60, 0
4, 88064, Note_on_c, 2, 58, 96
4, 89088, Note_off_c, 2, 58, 0
4, 89088, Note_on_c, 2, 57, 96
4, 90112, Note_off_c, 2, 57, 0
4, 90112, Note_on_c, 2, 58, 96
4, 93184, Note_off_c, 2, 58, 0
4, 93184, Note_on_c, 2, 58, 96
4, 93696, Note_off_c, 2, 58, 0
4, 93696, Note_on_c, 2, 57, 96
4, 94208, Note_off_c, 2, 57, 0
4, 94208, Note_on_c, 2, 58, 96
4, 95232, Note_off_c, 2, 58, 0
4, 95232, Note_on_c, 2, 60, 96
4, 97280, Note_off_c, 2, 60, 0
4, 97280, Note_on_c, 2, 58, 96
4, 99328, Note_off_c, 2, 58, 0
4, 99328, Note_on_c, 2, 57, 96
4, 99584, Note_off_c, 2, 57, 0
4, 99584, Note_on_c, 2, 55, 96
4, 99840, Note_off_c, 2, 55, 0
4, 99840, Note_on_c, 2, 57, 96
4, 100352, Note_off_c, 2, 57, 0
4, 100352, Note_on_c, 2, 53, 96
4, 102400, Note_off_c, 2, 53, 0
4, 102400, End_track
5, 0, Start_track
5, 0, Title_t, "Instrument 4"
5, 3072, Note_on_c, 3, 58, 96
5, 4096, Note_off_c, 3, 58, 0
5, 4096, Note_on_c, 3, 51, 96
5, 5120, Note_off_c, 3, 51, 0
5, 5120, Note_on_c, 3, 53, 96
5, 6144, Note_off_c, 3, 53, 0
5, 6144, Note_on_c, 3, 55, 96
5, 7168, Note_off_c, 3, 55, 0
5, 7168, Note_on_c, 3, 50, 96
5, 7680, Note_off_c, 3, 50, 0
5, 7680, Note_on_c, 3, 51, 96
5, 8192, Note_off_c, 3, 51, 0
5, 8192, Note_on_c, 3, 53, 96
5, 10240, Note_off_c, 3, 53, 0
5, 10240, Note_on_c, 3, 58, 96
5, 10752, Note_off_c, 3, 58, 0
5, 10752, Note_on_c, 3, 57, 96
5, 11264, Note_off_c, 3, 57, 0
5, 11264, Note_on_c, 3, 55, 96
5, 12288, Note_off_c, 3, 55, 0
5, 12288, Note_on_c, 3, 53, 96
5, 14336, Note_off_c, 3, 53, 0
5, 15360, Note_on_c, 3, 50, 96
5, 16384, Note_off_c, 3, 50, 0
5, 16384, Note_on_c, 3, 51, 96
5, 17408, Note_off_c, 3, 51, 0
5, 17408, Note_on_c, 3, 53, 96
5, 18432, Note_off_c, 3, 53, 0
5, 18432, Note_on_c, 3, 51, 96
5, 18944, Note_off_c, 3, 51, 0
5, 18944, Note_on_c, 3, 50, 96
5, 19456, Note_off_c, 3, 50, 0
5, 19456, Note_on_c, 3, 48, 96
5, 20480, Note_off_c, 3, 48, 0
5, 20480, Note_on_c, 3, 50, 96
5, 20992, Note_off_c, 3, 50, 0
5, 20992, Note_on_c, 3, 51, 96
5, 21504, Note_off_c, 3, 51, 0
5, 21504, Note_on_c, 3, 53, 96
5, 22528, Note_off_c, 3, 53, 0
5, 22528, Note_on_c, 3, 46, 96
5, 23552, Note_off_c, 3, 46, 0
5, 23552, Note_on_c, 3, 58, 96
5, 24576, Note_off_c, 3, 58, 0
5, 24576, Note_on_c, 3, 57, 96
5, 25600, Note_off_c, 3, 57, 0
5, 25600, Note_on_c, 3, 55, 96
5, 26112, Note_off_c, 3, 55, 0
5, 26112, Note_on_c, 3, 57, 96
5, 26624, Note_off_c, 3, 57, 0
5, 26624, Note_on_c, 3, 58, 96
5, 27648, Note_off_c, 3, 58, 0
5, 27648, Note_on_c, 3, 57, 96
5, 28160, Note_off_c, 3, 57, 0
5, 28160, Note_on_c, 3, 55, 96
5, 28672, Note_off_c, 3, 55, 0
5, 28672, Note_on_c, 3, 57, 96
5, 29184, Note_off_c, 3, 57, 0
5, 29184, Note_on_c, 3, 55, 96
5, 29696, Note_off_c, 3, 55, 0
5, 29696, Note_on_c, 3, 53, 96
5, 30208, Note_off_c, 3, 53, 0
5, 30208, Note_on_c, 3, 52, 96
5, 30720, Note_off_c, 3, 52, 0
5, 30720, Note_on_c, 3, 50, 96
5, 31232, Note_off_c, 3, 50, 0
5, 31232, Note_on_c, 3, 46, 96
5, 31744, Note_off_c, 3, 46, 0
5, 31744, Note_on_c, 3, 48, 96
5, 32768, Note_off_c, 3, 48, 0
5, 32768, Note_on_c, 3, 53, 96
5, 34816, Note_off_c, 3, 53, 0
5, 35840, Note_on_c, 3, 53, 96
5, 36352, Note_off_c, 3, 53, 0
5, 36352, Note_on_c, 3, 51, 96
5, 36864, Note_off_c, 3, 51, 0
5, 36864, Note_on_c, 3, 50, 96
5, 37376, Note_off_c, 3, 50, 0
5, 37376, Note_on_c, 3, 51, 96
5, 37888, Note_off_c, 3, 51, 0
5, 37888, Note_on_c, 3, 50, 96
5, 38400, Note_off_c, 3, 50, 0
5, 38400, Note_on_c, 3, 48, 96
5, 38912, Note_off_c, 3, 48, 0
5, 38912, Note_on_c, 3, 46, 96
5, 39936, Note_off_c, 3, 46, 0
5, 39936, Note_on_c, 3, 58, 96
5, 40448, Note_off_c, 3, 58, 0
5, 40448, Note_on_c, 3, 56, 96
5, 40960, Note_off_c, 3, 56, 0
5, 40960, Note_on_c, 3, 55, 96
5, 41984, Note_off_c, 3, 55, 0
5, 41984, Note_on_c, 3, 48, 96
5, 43008, Note_off_c, 3, 48, 0
5, 43008, Note_on_c, 3, 50, 96
5, 44032, Note_off_c, 3, 50, 0
5, 44032, Note_on_c, 3, 51, 96
5, 45056, Note_off_c, 3, 51, 0
5, 45056, Note_on_c, 3, 50, 96
5, 47104, Note_off_c, 3, 50, 0
5, 48128, Note_on_c, 3, 55, 96
5, 49152, Note_off_c, 3, 55, 0
5, 49152, Note_on_c, 3, 62, 96
5, 50176, Note_off_c, 3, 62, 0
5, 50176, Note_on_c, 3, 60, 96
5, 50688, Note_off_c, 3, 60, 0
5, 50688, Note_on_c, 3, 58, 96
5, 51200, Note_off_c, 3, 58, 0
5, 51200, Note_on_c, 3, 57, 96
5, 51712, Note_off_c, 3, 57, 0
5, 51712, Note_on_c, 3, 55, 96
5, 52224, Note_off_c, 3, 55, 0
5, 52224, Note_on_c, 3, 53, 96
5, 53248, Note_off_c, 3, 53, 0
5, 53248, Note_on_c, 3, 58, 96
5, 53760, Note_off_c, 3, 58, 0
5, 53760, Note_on_c, 3, 57, 96
5, 54272, Note_off_c, 3, 57, 0
5, 54272, Note_on_c, 3, 55, 96
5, 55296, Note_off_c, 3, 55, 0
5, 55296, Note_on_c, 3, 53, 96
5, 56320, Note_off_c, 3, 53, 0
5, 56320, Note_on_c, 3, 58, 96
5, 57344, Note_off_c, 3, 58, 0
5, 57344, Note_on_c, 3, 51, 96
5, 58368, Note_off_c, 3, 51, 0
5, 58368, Note_on_c, 3, 50, 96
5, 58880, Note_off_c, 3, 50, 0
5, 58880, Note_on_c, 3, 51, 96
5, 59392, Note_off_c, 3, 51, 0
5, 59392, Note_on_c, 3, 53, 96
5, 60416, Note_off_c, 3, 53, 0
5, 60416, Note_on_c, 3, 55, 96
5, 60928, Note_off_c, 3, 55, 0
5, 60928, Note_on_c, 3, 57, 96
5, 61440, Note_off_c, 3, 57, 0
5, 61440, Note_on_c, 3, 58, 96
5, 61952, Note_off_c, 3, 58, 0
5, 61952, Note_on_c, 3, 51, 96
5, 62464, Note_off_c, 3, 51, 0
5, 62464, Note_on_c, 3, 53, 96
5, 63488, Note_off_c, 3, 53, 0
5, 63488, Note_on_c, 3, 46, 96
5, 64512, Note_off_c, 3, 46, 0
5, 64512, Note_on_c, 3, 51, 96
5, 65024, Note_off_c, 3, 51, 0
5, 65024, Note_on_c, 3, 50, 96
5, 65536, Note_off_c, 3, 50, 0
5, 65536, Note_on_c, 3, 48, 96
5, 66560, Note_off_c, 3, 48, 0
5, 66560, Note_on_c, 3, 60, 96
5, 67584, Note_off_c, 3, 60, 0
5, 67584, Note_on_c, 3, 55, 96
5, 68608, Note_off_c, 3, 55, 0
5, 68608, Note_on_c, 3, 50, 96
5, 69120, Note_off_c, 3, 50, 0
5, 69120, Note_on_c, 3, 51, 96
5, 69632, Note_off_c, 3, 51, 0
5, 69632, Note_on_c, 3, 53, 96
5, 70144, Note_off_c, 3, 53, 0
5, 70144, Note_on_c, 3, 55, 96
5, 70656, Note_off_c, 3, 55, 0
5, 70656, Note_on_c, 3, 57, 96
5, 71168, Note_off_c, 3, 57, 0
5, 71168, Note_on_c, 3, 53, 96
5, 71680, Note_off_c, 3, 53, 0
5, 71680, Note_on_c, 3, 62, 96
5, 72192, Note_off_c, 3, 62, 0
5, 72192, Note_on_c, 3, 58, 96
5, 72704, Note_off_c, 3, 58, 0
5, 72704, Note_on_c, 3, 60, 96
5, 73728, Note_off_c, 3, 60, 0
5, 73728, Note_on_c, 3, 53, 96
5, 75776, Note_off_c, 3, 53, 0
5, 76800, Note_on_c, 3, 50, 96
5, 77824, Note_off_c, 3, 50, 0
5, 77824, Note_on_c, 3, 55, 96
5, 78848, Note_off_c, 3, 55, 0
5, 78848, Note_on_c, 3, 57, 96
5, 79872, Note_off_c, 3, 57, 0
5, 79872, Note_on_c, 3, 58, 96
5, 80384, Note_off_c, 3, 58, 0
5, 80384, Note_on_c, 3, 60, 96
5, 80896, Note_off_c, 3, 60, 0
5, 80896, Note_on_c, 3, 62, 96
5, 81408, Note_off_c, 3, 62, 0
5, 81408, Note_on_c, 3, 60, 96
5, 81920, Note_off_c, 3, 60, 0
5, 81920, Note_on_c, 3, 59, 96
5, 82432, Note_off_c, 3, 59, 0
5, 82432, Note_on_c, 3, 55, 96
5, 82944, Note_off_c, 3, 55, 0
5, 82944, Note_on_c, 3, 60, 96
5, 83968, Note_off_c, 3, 60, 0
5, 83968, Note_on_c, 3, 55, 96
5, 84480, Note_off_c, 3, 55, 0
5, 84480, Note_on_c, 3, 53, 96
5, 84992, Note_off_c, 3, 53, 0
5, 84992, Note_on_c, 3, 51, 96
5, 85504, Note_off_c, 3, 51, 0
5, 85504, Note_on_c, 3, 50, 96
5, 86016, Note_off_c, 3, 50, 0
5, 86016, Note_on_c, 3, 51, 96
5, 86528, Note_off_c, 3, 51, 0
5, 86528, Note_on_c, 3, 48, 96
5, 87040, Note_off_c, 3, 48, 0
5, 87040, Note_on_c, 3, 53, 96
5, 88064, Note_off_c, 3, 53, 0
5, 88064, Note_on_c, 3, 46, 96
5, 89088, Note_off_c, 3, 46, 0
5, 89088, Note_on_c, 3, 53, 96
5, 90112, Note_off_c, 3, 53, 0
5, 90112, Note_on_c, 3, 46, 96
5, 90624, Note_off_c, 3, 46, 0
5, 90624, Note_on_c, 3, 48, 96
5, 91136, Note_off_c, 3, 48, 0
5, 91136, Note_on_c, 3, 50, 96
5, 92160, Note_off_c, 3, 50, 0
5, 92160, Note_on_c, 3, 51, 96
5, 94208, Note_off_c, 3, 51, 0
5, 94208, Note_on_c, 3, 58, 96
5, 95232, Note_off_c, 3, 58, 0
5, 95232, Note_on_c, 3, 57, 96
5, 96256, Note_off_c, 3, 57, 0
5, 96256, Note_on_c, 3, 58, 96
5, 96768, Note_off_c, 3, 58, 0
5, 96768, Note_on_c, 3, 57, 96
5, 97280, Note_off_c, 3, 57, 0
5, 97280, Note_on_c, 3, 55, 96
5, 97792, Note_off_c, 3, 55, 0
5, 97792, Note_on_c, 3, 53, 96
5, 98304, Note_off_c, 3, 53, 0
5, 98304, Note_on_c, 3, 51, 96
5, 98816, Note_off_c, 3, 51, 0
5, 98816, Note_on_c, 3, 48, 96
5, 99328, Note_off_c, 3, 48, 0
5, 99328, Note_on_c, 3, 53, 96
5, 100352, Note_off_c, 3, 53, 0
5, 100352, Note_on_c, 3, 46, 96
5, 102400, Note_off_c, 3, 46, 0
5, 102400, End_track
0, 0, End_of_file
