0, 0, Header, 1, 4, 384
1, 0, Start_track
1, 0, Tempo, 571420
1, 0, Time_signature, 4, 2, 24, 8
1, 136704, Tempo, 631570
1, 139776, Tempo, 705880
1, 140544, Tempo, 800000
1, 144384, Time_signature, 3, 2, 24, 8
1, 144384, Tempo, 1714280
1, 195072, Tempo, 923070
1, 197376, Tempo, 521730
1, 366720, Tempo, 857140
1, 367872, End_track
2, 0, Start_track
2, 0, Title_t, "Track 1"
2, 0, Program_c, 0, 19
2, 0, Note_on_c, 0, 76, 92
2, 0, Note_on_c, 0, 81, 92
2, 0, Note_on_c, 0, 72, 92
2, 384, Note_off_c, 0, 72, 64
2, 384, Note_off_c, 0, 81, 64
2, 384, Note_off_c, 0, 76, 64
2, 384, Note_on_c, 0, 76, 92
2, 384, Note_on_c, 0, 80, 92
2, 384, Note_on_c, 0, 71, 92
2, 768, Note_off_c, 0, 71, 64
2, 768, Note_off_c, 0, 80, 64
2, 768, Note_off_c, 0, 76, 64
2, 768, Note_on_c, 0, 72, 92
2, 768, Note_on_c, 0, 76, 92
2, 768, Note_on_c, 0, 81, 92
2, 864, Note_off_c, 0, 81, 64
2, 864, Note_off_c, 0, 76, 64
2, 864, Note_off_c, 0, 72, 64
2, 864, Note_on_c, 0, 79, 92
2, 960, Note_off_c, 0, 79, 64
2, 960, Note_on_c, 0, 77, 92
2, 1056, Note_off_c, 0, 77, 64
2, 1056, Note_on_c, 0, 76, 92
2, 1152, Note_off_c, 0, 76, 64
2, 1152, Note_on_c, 0, 74, 92
2, 1248, Note_off_c, 0, 74, 64
2, 1248, Note_on_c, 0, 72, 92
2, 1344, Note_off_c, 0, 72, 64
2, 1344, Note_on_c, 0, 64, 92
2, 1344, Note_on_c, 0, 71, 92
2, 1440, Note_off_c, 0, 71, 64
2, 1440, Note_on_c, 0, 69, 92
2, 1536, Note_off_c, 0, 69, 64
2, 1536, Note_on_c, 0, 76, 92
2, 1728, Note_off_c, 0, 76, 64
2, 1728, Note_off_c, 0, 64, 64
2, 1728, Note_on_c, 0, 64, 92
2, 1920, Note_off_c, 0, 64, 64
2, 1920, Note_on_c, 0, 64, 92
2, 2112, Note_on_c, 0, 66, 92
2, 2208, Note_off_c, 0, 66, 64
2, 2208, Note_on_c, 0, 68, 92
2, 2304, Note_off_c, 0, 68, 64
2, 2304, Note_on_c, 0, 69, 92
2, 2496, Note_off_c, 0, 69, 64
2, 2496, Note_on_c, 0, 69, 92
2, 2592, Note_off_c, 0, 69, 64
2, 2592, Note_on_c, 0, 71, 92
2, 2688, Note_off_c, 0, 71, 64
2, 2688, Note_off_c, 0, 64, 64
2, 2688, Note_on_c, 0, 69, 92
2, 2688, Note_on_c, 0, 72, 92
2, 2880, Note_off_c, 0, 72, 64
2, 2880, Note_off_c, 0, 69, 64
2, 2880, Note_on_c, 0, 72, 92
2, 2880, Note_on_c, 0, 64, 92
2, 2976, Note_off_c, 0, 72, 64
2, 2976, Note_on_c, 0, 74, 92
2, 3072, Note_off_c, 0, 74, 64
2, 3072, Note_on_c, 0, 76, 92
2, 3264, Note_off_c, 0, 76, 64
2, 3264, Note_off_c, 0, 64, 64
2, 3264, Note_on_c, 0, 64, 92
2, 3456, Note_off_c, 0, 64, 64
2, 3456, Note_on_c, 0, 64, 92
2, 3648, Note_on_c, 0, 66, 92
2, 3744, Note_off_c, 0, 66, 64
2, 3744, Note_on_c, 0, 68, 92
2, 3840, Note_off_c, 0, 68, 64
2, 3840, Note_on_c, 0, 69, 92
2, 4032, Note_off_c, 0, 69, 64
2, 4032, Note_on_c, 0, 69, 92
2, 4128, Note_off_c, 0, 69, 64
2, 4128, Note_on_c, 0, 71, 92
2, 4224, Note_off_c, 0, 71, 64
2, 4224, Note_off_c, 0, 64, 64
2, 4224, Note_on_c, 0, 72, 92
2, 4416, Note_off_c, 0, 72, 64
2, 4416, Note_on_c, 0, 72, 92
2, 4416, Note_on_c, 0, 69, 92
2, 4512, Note_off_c, 0, 72, 64
2, 4512, Note_on_c, 0, 74, 92
2, 4608, Note_off_c, 0, 74, 64
2, 4608, Note_off_c, 0, 69, 64
2, 4608, Note_on_c, 0, 71, 92
2, 4608, Note_on_c, 0, 76, 92
2, 4992, Note_off_c, 0, 76, 64
2, 4992, Note_off_c, 0, 71, 64
2, 5184, Note_on_c, 0, 76, 92
2, 5184, Note_on_c, 0, 71, 92
2, 5376, Note_off_c, 0, 71, 64
2, 5376, Note_off_c, 0, 76, 64
2, 5376, Note_on_c, 0, 76, 92
2, 5376, Note_on_c, 0, 72, 92
2, 5472, Note_off_c, 0, 76, 64
2, 5472, Note_on_c, 0, 77, 92
2, 5568, Note_off_c, 0, 77, 64
2, 5568, Note_off_c, 0, 72, 64
2, 5568, Note_on_c, 0, 76, 92
2, 5568, Note_on_c, 0, 72, 92
2, 5760, Note_off_c, 0, 72, 64
2, 5760, Note_off_c, 0, 76, 64
2, 5952, Note_on_c, 0, 76, 92
2, 5952, Note_on_c, 0, 72, 92
2, 6144, Note_off_c, 0, 72, 64
2, 6144, Note_off_c, 0, 76, 64
2, 6144, Note_on_c, 0, 76, 92
2, 6144, Note_on_c, 0, 71, 92
2, 6240, Note_off_c, 0, 76, 64
2, 6240, Note_on_c, 0, 77, 92
2, 6336, Note_off_c, 0, 77, 64
2, 6336, Note_off_c, 0, 71, 64
2, 6336, Note_on_c, 0, 76, 92
2, 6336, Note_on_c, 0, 71, 92
2, 6528, Note_off_c, 0, 71, 64
2, 6528, Note_off_c, 0, 76, 64
2, 6720, Note_on_c, 0, 76, 92
2, 6720, Note_on_c, 0, 71, 92
2, 6912, Note_off_c, 0, 71, 64
2, 6912, Note_off_c, 0, 76, 64
2, 6912, Note_on_c, 0, 76, 92
2, 6912, Note_on_c, 0, 72, 92
2, 7008, Note_off_c, 0, 76, 64
2, 7008, Note_on_c, 0, 77, 92
2, 7104, Note_off_c, 0, 77, 64
2, 7104, Note_off_c, 0, 72, 64
2, 7104, Note_on_c, 0, 76, 92
2, 7104, Note_on_c, 0, 72, 92
2, 7296, Note_off_c, 0, 72, 64
2, 7296, Note_off_c, 0, 76, 64
2, 7488, Note_on_c, 0, 76, 92
2, 7488, Note_on_c, 0, 72, 92
2, 7680, Note_off_c, 0, 72, 64
2, 7680, Note_off_c, 0, 76, 64
2, 7680, Note_on_c, 0, 74, 92
2, 7680, Note_on_c, 0, 77, 92
2, 7776, Note_off_c, 0, 77, 64
2, 7776, Note_on_c, 0, 79, 92
2, 7872, Note_off_c, 0, 79, 64
2, 7872, Note_off_c, 0, 74, 64
2, 7872, Note_on_c, 0, 74, 92
2, 7872, Note_on_c, 0, 77, 92
2, 7968, Note_off_c, 0, 77, 64
2, 7968, Note_on_c, 0, 79, 92
2, 8064, Note_off_c, 0, 79, 64
2, 8064, Note_off_c, 0, 74, 64
2, 8064, Note_on_c, 0, 74, 92
2, 8064, Note_on_c, 0, 77, 92
2, 8160, Note_off_c, 0, 77, 64
2, 8160, Note_on_c, 0, 79, 92
2, 8256, Note_off_c, 0, 79, 64
2, 8256, Note_off_c, 0, 74, 64
2, 8256, Note_on_c, 0, 74, 92
2, 8256, Note_on_c, 0, 77, 92
2, 8352, Note_off_c, 0, 77, 64
2, 8352, Note_on_c, 0, 79, 92
2, 8448, Note_off_c, 0, 79, 64
2, 8448, Note_off_c, 0, 74, 64
2, 8448, Note_on_c, 0, 77, 92
2, 8448, Note_on_c, 0, 74, 92
2, 8640, Note_off_c, 0, 74, 64
2, 8640, Note_off_c, 0, 77, 64
2, 8640, Note_on_c, 0, 77, 92
2, 8640, Note_on_c, 0, 74, 92
2, 8832, Note_off_c, 0, 74, 64
2, 8832, Note_off_c, 0, 77, 64
2, 8832, Note_on_c, 0, 71, 92
2, 8832, Note_on_c, 0, 74, 92
2, 9024, Note_off_c, 0, 74, 64
2, 9024, Note_off_c, 0, 71, 64
2, 9024, Note_on_c, 0, 67, 92
2, 9024, Note_on_c, 0, 71, 92
2, 9216, Note_off_c, 0, 71, 64
2, 9216, Note_off_c, 0, 67, 64
2, 9216, Note_on_c, 0, 67, 92
2, 9216, Note_on_c, 0, 76, 92
2, 9312, Note_off_c, 0, 76, 64
2, 9312, Note_on_c, 0, 77, 92
2, 9408, Note_off_c, 0, 77, 64
2, 9408, Note_off_c, 0, 67, 64
2, 9408, Note_on_c, 0, 72, 92
2, 9408, Note_on_c, 0, 76, 92
2, 9504, Note_off_c, 0, 76, 64
2, 9504, Note_on_c, 0, 77, 92
2, 9600, Note_off_c, 0, 77, 64
2, 9600, Note_off_c, 0, 72, 64
2, 9600, Note_on_c, 0, 72, 92
2, 9600, Note_on_c, 0, 76, 92
2, 9696, Note_off_c, 0, 76, 64
2, 9696, Note_on_c, 0, 77, 92
2, 9792, Note_off_c, 0, 77, 64
2, 9792, Note_off_c, 0, 72, 64
2, 9792, Note_on_c, 0, 72, 92
2, 9792, Note_on_c, 0, 76, 92
2, 9888, Note_off_c, 0, 76, 64
2, 9888, Note_on_c, 0, 77, 92
2, 9984, Note_off_c, 0, 77, 64
2, 9984, Note_off_c, 0, 72, 64
2, 9984, Note_on_c, 0, 76, 92
2, 9984, Note_on_c, 0, 72, 92
2, 10176, Note_off_c, 0, 72, 64
2, 10176, Note_off_c, 0, 76, 64
2, 10176, Note_on_c, 0, 76, 92
2, 10176, Note_on_c, 0, 72, 92
2, 10368, Note_off_c, 0, 72, 64
2, 10368, Note_off_c, 0, 76, 64
2, 10368, Note_on_c, 0, 69, 92
2, 10368, Note_on_c, 0, 72, 92
2, 10560, Note_off_c, 0, 72, 64
2, 10560, Note_off_c, 0, 69, 64
2, 10560, Note_on_c, 0, 65, 92
2, 10560, Note_on_c, 0, 69, 92
2, 10752, Note_off_c, 0, 69, 64
2, 10752, Note_off_c, 0, 65, 64
2, 10752, Note_on_c, 0, 65, 92
2, 10752, Note_on_c, 0, 74, 92
2, 10848, Note_off_c, 0, 74, 64
2, 10848, Note_on_c, 0, 76, 92
2, 10944, Note_off_c, 0, 76, 64
2, 10944, Note_off_c, 0, 65, 64
2, 10944, Note_on_c, 0, 71, 92
2, 10944, Note_on_c, 0, 74, 92
2, 11040, Note_off_c, 0, 74, 64
2, 11040, Note_on_c, 0, 76, 92
2, 11136, Note_off_c, 0, 76, 64
2, 11136, Note_off_c, 0, 71, 64
2, 11136, Note_on_c, 0, 71, 92
2, 11136, Note_on_c, 0, 74, 92
2, 11232, Note_off_c, 0, 74, 64
2, 11232, Note_on_c, 0, 76, 92
2, 11328, Note_off_c, 0, 76, 64
2, 11328, Note_off_c, 0, 71, 64
2, 11328, Note_on_c, 0, 71, 92
2, 11328, Note_on_c, 0, 74, 92
2, 11424, Note_off_c, 0, 74, 64
2, 11424, Note_on_c, 0, 76, 92
2, 11520, Note_off_c, 0, 76, 64
2, 11520, Note_off_c, 0, 71, 64
2, 11520, Note_on_c, 0, 74, 92
2, 11520, Note_on_c, 0, 71, 92
2, 11712, Note_off_c, 0, 71, 64
2, 11712, Note_off_c, 0, 74, 64
2, 11712, Note_on_c, 0, 74, 92
2, 11712, Note_on_c, 0, 71, 92
2, 11904, Note_off_c, 0, 71, 64
2, 11904, Note_off_c, 0, 74, 64
2, 11904, Note_on_c, 0, 68, 92
2, 11904, Note_on_c, 0, 71, 92
2, 12096, Note_off_c, 0, 71, 64
2, 12096, Note_off_c, 0, 68, 64
2, 12096, Note_on_c, 0, 64, 92
2, 12096, Note_on_c, 0, 68, 92
2, 12288, Note_off_c, 0, 68, 64
2, 12288, Note_off_c, 0, 64, 64
2, 12288, Note_on_c, 0, 64, 92
2, 12288, Note_on_c, 0, 72, 92
2, 12480, Note_off_c, 0, 72, 64
2, 12480, Note_on_c, 0, 69, 92
2, 12672, Note_off_c, 0, 69, 64
2, 12672, Note_off_c, 0, 64, 64
2, 12864, Note_on_c, 0, 76, 92
2, 12864, Note_on_c, 0, 69, 92
2, 13056, Note_off_c, 0, 69, 64
2, 13056, Note_off_c, 0, 76, 64
2, 13056, Note_on_c, 0, 76, 92
2, 13056, Note_on_c, 0, 71, 92
2, 13248, Note_off_c, 0, 76, 64
2, 13248, Note_on_c, 0, 74, 92
2, 13440, Note_off_c, 0, 74, 64
2, 13440, Note_on_c, 0, 80, 92
2, 13632, Note_off_c, 0, 80, 64
2, 13632, Note_on_c, 0, 74, 92
2, 13824, Note_off_c, 0, 74, 64
2, 13824, Note_on_c, 0, 83, 92
2, 14016, Note_off_c, 0, 83, 64
2, 14016, Note_on_c, 0, 74, 92
2, 14208, Note_off_c, 0, 74, 64
2, 14208, Note_on_c, 0, 77, 92
2, 14400, Note_off_c, 0, 77, 64
2, 14400, Note_on_c, 0, 74, 92
2, 14592, Note_off_c, 0, 74, 64
2, 14592, Note_on_c, 0, 76, 92
2, 14784, Note_off_c, 0, 76, 64
2, 14784, Note_on_c, 0, 74, 92
2, 14976, Note_off_c, 0, 74, 64
2, 14976, Note_on_c, 0, 77, 92
2, 15168, Note_off_c, 0, 77, 64
2, 15168, Note_on_c, 0, 74, 92
2, 15360, Note_off_c, 0, 74, 64
2, 15360, Note_on_c, 0, 80, 92
2, 15552, Note_off_c, 0, 80, 64
2, 15552, Note_on_c, 0, 74, 92
2, 15744, Note_off_c, 0, 74, 64
2, 15744, Note_on_c, 0, 83, 92
2, 15936, Note_off_c, 0, 83, 64
2, 15936, Note_on_c, 0, 74, 92
2, 16128, Note_off_c, 0, 74, 64
2, 16128, Note_on_c, 0, 76, 92
2, 16320, Note_off_c, 0, 76, 64
2, 16320, Note_on_c, 0, 74, 92
2, 16512, Note_off_c, 0, 74, 64
2, 16512, Note_on_c, 0, 83, 92
2, 16704, Note_off_c, 0, 83, 64
2, 16704, Note_on_c, 0, 74, 92
2, 16896, Note_off_c, 0, 74, 64
2, 16896, Note_on_c, 0, 76, 92
2, 17088, Note_off_c, 0, 76, 64
2, 17088, Note_on_c, 0, 74, 92
2, 17280, Note_off_c, 0, 74, 64
2, 17280, Note_on_c, 0, 77, 92
2, 17472, Note_off_c, 0, 77, 64
2, 17472, Note_on_c, 0, 74, 92
2, 17664, Note_off_c, 0, 74, 64
2, 17664, Note_on_c, 0, 80, 92
2, 17856, Note_off_c, 0, 80, 64
2, 17856, Note_on_c, 0, 76, 92
2, 18048, Note_off_c, 0, 76, 64
2, 18048, Note_off_c, 0, 71, 64
2, 18048, Note_on_c, 0, 81, 92
2, 18240, Note_off_c, 0, 81, 64
2, 18240, Note_on_c, 0, 72, 92
2, 18240, Note_on_c, 0, 76, 92
2, 18432, Note_off_c, 0, 76, 64
2, 18432, Note_off_c, 0, 72, 64
2, 18432, Note_on_c, 0, 71, 92
2, 18432, Note_on_c, 0, 74, 92
2, 18432, Note_on_c, 0, 77, 92
2, 18624, Note_off_c, 0, 77, 64
2, 18624, Note_on_c, 0, 81, 92
2, 18816, Note_off_c, 0, 81, 64
2, 18816, Note_off_c, 0, 74, 64
2, 18816, Note_off_c, 0, 71, 64
2, 18816, Note_on_c, 0, 71, 92
2, 18816, Note_on_c, 0, 74, 92
2, 18816, Note_on_c, 0, 76, 92
2, 19008, Note_off_c, 0, 76, 64
2, 19008, Note_on_c, 0, 80, 92
2, 19200, Note_off_c, 0, 80, 64
2, 19200, Note_off_c, 0, 74, 64
2, 19200, Note_off_c, 0, 71, 64
2, 19200, Note_on_c, 0, 81, 92
2, 19200, Note_on_c, 0, 76, 92
2, 19200, Note_on_c, 0, 72, 92
2, 19200, Note_on_c, 0, 69, 92
2, 19584, Note_off_c, 0, 69, 64
2, 19584, Note_off_c, 0, 72, 64
2, 19584, Note_off_c, 0, 76, 64
2, 19584, Note_off_c, 0, 81, 64
2, 19776, Note_on_c, 0, 64, 92
2, 19776, Note_on_c, 0, 76, 92
2, 19968, Note_off_c, 0, 76, 64
2, 19968, Note_off_c, 0, 64, 64
2, 19968, Note_on_c, 0, 62, 92
2, 19968, Note_on_c, 0, 77, 92
2, 20160, Note_off_c, 0, 77, 64
2, 20160, Note_on_c, 0, 70, 92
2, 20352, Note_off_c, 0, 70, 64
2, 20352, Note_on_c, 0, 77, 92
2, 20544, Note_off_c, 0, 77, 64
2, 20544, Note_on_c, 0, 70, 92
2, 20736, Note_off_c, 0, 70, 64
2, 20736, Note_off_c, 0, 62, 64
2, 20736, Note_on_c, 0, 64, 92
2, 20736, Note_on_c, 0, 76, 92
2, 20928, Note_off_c, 0, 76, 64
2, 20928, Note_on_c, 0, 70, 92
2, 21120, Note_off_c, 0, 70, 64
2, 21120, Note_on_c, 0, 76, 92
2, 21312, Note_off_c, 0, 76, 64
2, 21312, Note_on_c, 0, 70, 92
2, 21504, Note_off_c, 0, 70, 64
2, 21504, Note_off_c, 0, 64, 64
2, 21504, Note_on_c, 0, 64, 92
2, 21504, Note_on_c, 0, 76, 92
2, 21696, Note_off_c, 0, 76, 64
2, 21696, Note_on_c, 0, 69, 92
2, 21888, Note_off_c, 0, 69, 64
2, 21888, Note_on_c, 0, 76, 92
2, 22080, Note_off_c, 0, 76, 64
2, 22080, Note_off_c, 0, 64, 64
2, 22080, Note_on_c, 0, 65, 92
2, 22080, Note_on_c, 0, 69, 92
2, 22272, Note_off_c, 0, 69, 64
2, 22272, Note_off_c, 0, 65, 64
2, 22272, Note_on_c, 0, 64, 92
2, 22272, Note_on_c, 0, 68, 92
2, 22464, Note_off_c, 0, 68, 64
2, 22464, Note_off_c, 0, 64, 64
2, 22464, Note_on_c, 0, 64, 92
2, 22656, Note_off_c, 0, 64, 64
2, 22656, Note_on_c, 0, 69, 92
2, 22848, Note_off_c, 0, 69, 64
2, 22848, Note_on_c, 0, 64, 92
2, 23040, Note_off_c, 0, 64, 64
2, 23040, Note_on_c, 0, 62, 92
2, 23040, Note_on_c, 0, 65, 92
2, 23232, Note_off_c, 0, 65, 64
2, 23232, Note_on_c, 0, 69, 92
2, 23424, Note_off_c, 0, 69, 64
2, 23424, Note_off_c, 0, 62, 64
2, 23424, Note_on_c, 0, 62, 92
2, 23424, Note_on_c, 0, 64, 92
2, 23616, Note_off_c, 0, 64, 64
2, 23616, Note_on_c, 0, 68, 92
2, 23808, Note_off_c, 0, 68, 64
2, 23808, Note_off_c, 0, 62, 64
2, 23808, Note_on_c, 0, 60, 92
2, 23808, Note_on_c, 0, 64, 92
2, 23808, Note_on_c, 0, 69, 92
2, 24096, Note_on_c, 0, 71, 92
2, 24192, Note_off_c, 0, 71, 64
2, 24192, Note_off_c, 0, 69, 64
2, 24192, Note_off_c, 0, 64, 64
2, 24192, Note_off_c, 0, 60, 64
2, 24192, Note_on_c, 0, 72, 92
2, 24192, Note_on_c, 0, 69, 92
2, 24480, Note_off_c, 0, 69, 64
2, 24480, Note_off_c, 0, 72, 64
2, 24480, Note_on_c, 0, 71, 92
2, 24480, Note_on_c, 0, 74, 92
2, 24576, Note_off_c, 0, 74, 64
2, 24576, Note_off_c, 0, 71, 64
2, 24576, Note_on_c, 0, 76, 92
2, 24576, Note_on_c, 0, 72, 92
2, 24768, Note_off_c, 0, 76, 64
2, 24768, Note_on_c, 0, 69, 92
2, 24960, Note_off_c, 0, 69, 64
2, 24960, Note_on_c, 0, 69, 92
2, 25152, Note_off_c, 0, 69, 64
2, 25152, Note_off_c, 0, 72, 64
2, 25152, Note_on_c, 0, 76, 92
2, 25152, Note_on_c, 0, 72, 92
2, 25344, Note_off_c, 0, 72, 64
2, 25344, Note_off_c, 0, 76, 64
2, 25344, Note_on_c, 0, 74, 92
2, 25344, Note_on_c, 0, 77, 92
2, 25536, Note_off_c, 0, 77, 64
2, 25536, Note_off_c, 0, 74, 64
2, 25536, Note_on_c, 0, 74, 92
2, 25536, Note_on_c, 0, 77, 92
2, 25728, Note_off_c, 0, 77, 64
2, 25728, Note_off_c, 0, 74, 64
2, 25728, Note_on_c, 0, 74, 92
2, 25728, Note_on_c, 0, 77, 92
2, 25920, Note_off_c, 0, 77, 64
2, 25920, Note_off_c, 0, 74, 64
2, 25920, Note_on_c, 0, 72, 92
2, 25920, Note_on_c, 0, 76, 92
2, 26016, Note_off_c, 0, 76, 64
2, 26016, Note_off_c, 0, 72, 64
2, 26016, Note_on_c, 0, 71, 92
2, 26016, Note_on_c, 0, 74, 92
2, 26112, Note_off_c, 0, 74, 64
2, 26112, Note_off_c, 0, 71, 64
2, 26112, Note_on_c, 0, 76, 92
2, 26112, Note_on_c, 0, 72, 92
2, 26304, Note_off_c, 0, 76, 64
2, 26304, Note_on_c, 0, 69, 92
2, 26496, Note_off_c, 0, 69, 64
2, 26496, Note_on_c, 0, 69, 92
2, 26688, Note_off_c, 0, 69, 64
2, 26688, Note_off_c, 0, 72, 64
2, 26688, Note_on_c, 0, 76, 92
2, 26688, Note_on_c, 0, 72, 92
2, 26880, Note_off_c, 0, 72, 64
2, 26880, Note_off_c, 0, 76, 64
2, 26880, Note_on_c, 0, 74, 92
2, 26880, Note_on_c, 0, 77, 92
2, 27072, Note_off_c, 0, 77, 64
2, 27072, Note_off_c, 0, 74, 64
2, 27072, Note_on_c, 0, 74, 92
2, 27072, Note_on_c, 0, 77, 92
2, 27264, Note_off_c, 0, 77, 64
2, 27264, Note_off_c, 0, 74, 64
2, 27264, Note_on_c, 0, 74, 92
2, 27264, Note_on_c, 0, 77, 92
2, 27456, Note_off_c, 0, 77, 64
2, 27456, Note_off_c, 0, 74, 64
2, 27456, Note_on_c, 0, 77, 92
2, 27456, Note_on_c, 0, 72, 92
2, 27504, Note_off_c, 0, 77, 64
2, 27504, Note_on_c, 0, 76, 92
2, 27552, Note_off_c, 0, 76, 64
2, 27552, Note_off_c, 0, 72, 64
2, 27552, Note_on_c, 0, 71, 92
2, 27552, Note_on_c, 0, 74, 92
2, 27648, Note_off_c, 0, 74, 64
2, 27648, Note_off_c, 0, 71, 64
2, 27648, Note_on_c, 0, 76, 92
2, 27648, Note_on_c, 0, 72, 92
2, 27840, Note_off_c, 0, 76, 64
2, 27840, Note_on_c, 0, 69, 92
2, 28032, Note_off_c, 0, 69, 64
2, 28032, Note_off_c, 0, 72, 64
2, 28224, Note_on_c, 0, 72, 92
2, 28224, Note_on_c, 0, 76, 92
2, 28416, Note_off_c, 0, 76, 64
2, 28416, Note_off_c, 0, 72, 64
2, 28416, Note_on_c, 0, 77, 92
2, 28416, Note_on_c, 0, 69, 92
2, 28512, Note_off_c, 0, 77, 64
2, 28512, Note_on_c, 0, 76, 92
2, 28608, Note_off_c, 0, 76, 64
2, 28608, Note_on_c, 0, 77, 92
2, 28800, Note_off_c, 0, 77, 64
2, 28800, Note_off_c, 0, 69, 64
2, 28896, Note_on_c, 0, 74, 92
2, 28992, Note_on_c, 0, 79, 92
2, 29088, Note_off_c, 0, 79, 64
2, 29088, Note_on_c, 0, 77, 92
2, 29184, Note_off_c, 0, 77, 64
2, 29184, Note_off_c, 0, 74, 64
2, 29184, Note_on_c, 0, 67, 92
2, 29184, Note_on_c, 0, 76, 92
2, 29280, Note_off_c, 0, 76, 64
2, 29280, Note_on_c, 0, 74, 92
2, 29376, Note_off_c, 0, 74, 64
2, 29376, Note_on_c, 0, 76, 92
2, 29568, Note_off_c, 0, 76, 64
2, 29568, Note_off_c, 0, 67, 64
2, 29664, Note_on_c, 0, 72, 92
2, 29760, Note_on_c, 0, 77, 92
2, 29856, Note_off_c, 0, 77, 64
2, 29856, Note_on_c, 0, 76, 92
2, 29952, Note_off_c, 0, 76, 64
2, 29952, Note_off_c, 0, 72, 64
2, 29952, Note_on_c, 0, 65, 92
2, 29952, Note_on_c, 0, 74, 92
2, 30048, Note_off_c, 0, 74, 64
2, 30048, Note_on_c, 0, 72, 92
2, 30144, Note_off_c, 0, 72, 64
2, 30144, Note_on_c, 0, 74, 92
2, 30336, Note_off_c, 0, 74, 64
2, 30336, Note_off_c, 0, 65, 64
2, 30432, Note_on_c, 0, 71, 92
2, 30528, Note_on_c, 0, 76, 92
2, 30624, Note_off_c, 0, 76, 64
2, 30624, Note_on_c, 0, 74, 92
2, 30720, Note_off_c, 0, 74, 64
2, 30720, Note_off_c, 0, 71, 64
2, 30720, Note_on_c, 0, 64, 92
2, 30720, Note_on_c, 0, 72, 92
2, 30816, Note_off_c, 0, 72, 64
2, 30816, Note_on_c, 0, 71, 92
2, 30912, Note_off_c, 0, 71, 64
2, 30912, Note_on_c, 0, 69, 92
2, 31008, Note_off_c, 0, 69, 64
2, 31008, Note_on_c, 0, 71, 92
2, 31104, Note_off_c, 0, 71, 64
2, 31104, Note_off_c, 0, 64, 64
2, 31104, Note_on_c, 0, 72, 92
2, 31200, Note_off_c, 0, 72, 64
2, 31200, Note_on_c, 0, 74, 92
2, 31296, Note_off_c, 0, 74, 64
2, 31296, Note_on_c, 0, 59, 92
2, 31296, Note_on_c, 0, 76, 92
2, 31392, Note_off_c, 0, 76, 64
2, 31392, Note_on_c, 0, 74, 92
2, 31488, Note_off_c, 0, 74, 64
2, 31488, Note_off_c, 0, 59, 64
2, 31488, Note_on_c, 0, 64, 92
2, 31488, Note_on_c, 0, 72, 92
2, 31584, Note_off_c, 0, 72, 64
2, 31584, Note_on_c, 0, 71, 92
2, 31680, Note_off_c, 0, 71, 64
2, 31680, Note_on_c, 0, 69, 92
2, 31776, Note_off_c, 0, 69, 64
2, 31776, Note_on_c, 0, 71, 92
2, 31872, Note_off_c, 0, 71, 64
2, 31872, Note_off_c, 0, 64, 64
2, 31872, Note_on_c, 0, 72, 92
2, 31968, Note_off_c, 0, 72, 64
2, 31968, Note_on_c, 0, 74, 92
2, 32064, Note_off_c, 0, 74, 64
2, 32064, Note_on_c, 0, 59, 92
2, 32064, Note_on_c, 0, 76, 92
2, 32160, Note_off_c, 0, 76, 64
2, 32160, Note_on_c, 0, 74, 92
2, 32256, Note_off_c, 0, 74, 64
2, 32256, Note_off_c, 0, 59, 64
2, 32256, Note_on_c, 0, 64, 92
2, 32256, Note_on_c, 0, 72, 92
2, 32352, Note_off_c, 0, 72, 64
2, 32352, Note_on_c, 0, 71, 92
2, 32448, Note_off_c, 0, 71, 64
2, 32448, Note_on_c, 0, 69, 92
2, 32544, Note_off_c, 0, 69, 64
2, 32544, Note_on_c, 0, 71, 92
2, 32640, Note_off_c, 0, 71, 64
2, 32640, Note_off_c, 0, 64, 64
2, 32640, Note_on_c, 0, 72, 92
2, 32736, Note_off_c, 0, 72, 64
2, 32736, Note_on_c, 0, 74, 92
2, 32832, Note_off_c, 0, 74, 64
2, 32832, Note_on_c, 0, 59, 92
2, 32832, Note_on_c, 0, 76, 92
2, 32928, Note_off_c, 0, 76, 64
2, 32928, Note_on_c, 0, 74, 92
2, 33024, Note_off_c, 0, 74, 64
2, 33024, Note_off_c, 0, 59, 64
2, 33024, Note_on_c, 0, 72, 92
2, 33024, Note_on_c, 0, 64, 92
2, 33216, Note_off_c, 0, 72, 64
2, 33216, Note_on_c, 0, 69, 92
2, 33408, Note_off_c, 0, 69, 64
2, 33408, Note_off_c, 0, 64, 64
2, 33600, Note_on_c, 0, 64, 92
2, 33600, Note_on_c, 0, 76, 92
2, 33792, Note_off_c, 0, 76, 64
2, 33792, Note_off_c, 0, 64, 64
2, 33792, Note_on_c, 0, 62, 92
2, 33792, Note_on_c, 0, 77, 92
2, 33984, Note_off_c, 0, 77, 64
2, 33984, Note_on_c, 0, 70, 92
2, 34176, Note_off_c, 0, 70, 64
2, 34176, Note_on_c, 0, 77, 92
2, 34368, Note_off_c, 0, 77, 64
2, 34368, Note_on_c, 0, 70, 92
2, 34560, Note_off_c, 0, 70, 64
2, 34560, Note_off_c, 0, 62, 64
2, 34560, Note_on_c, 0, 64, 92
2, 34560, Note_on_c, 0, 76, 92
2, 34752, Note_off_c, 0, 76, 64
2, 34752, Note_on_c, 0, 70, 92
2, 34944, Note_off_c, 0, 70, 64
2, 34944, Note_on_c, 0, 76, 92
2, 35136, Note_off_c, 0, 76, 64
2, 35136, Note_on_c, 0, 70, 92
2, 35328, Note_off_c, 0, 70, 64
2, 35328, Note_off_c, 0, 64, 64
2, 35328, Note_on_c, 0, 64, 92
2, 35328, Note_on_c, 0, 76, 92
2, 35520, Note_off_c, 0, 76, 64
2, 35520, Note_on_c, 0, 69, 92
2, 35712, Note_off_c, 0, 69, 64
2, 35712, Note_on_c, 0, 76, 92
2, 35904, Note_off_c, 0, 76, 64
2, 35904, Note_off_c, 0, 64, 64
2, 35904, Note_on_c, 0, 65, 92
2, 35904, Note_on_c, 0, 69, 92
2, 36096, Note_off_c, 0, 69, 64
2, 36096, Note_off_c, 0, 65, 64
2, 36096, Note_on_c, 0, 64, 92
2, 36096, Note_on_c, 0, 68, 92
2, 36288, Note_off_c, 0, 68, 64
2, 36288, Note_off_c, 0, 64, 64
2, 36288, Note_on_c, 0, 64, 92
2, 36480, Note_off_c, 0, 64, 64
2, 36480, Note_on_c, 0, 69, 92
2, 36672, Note_off_c, 0, 69, 64
2, 36672, Note_on_c, 0, 64, 92
2, 36864, Note_off_c, 0, 64, 64
2, 36864, Note_on_c, 0, 62, 92
2, 36864, Note_on_c, 0, 65, 92
2, 37056, Note_off_c, 0, 65, 64
2, 37056, Note_on_c, 0, 69, 92
2, 37248, Note_off_c, 0, 69, 64
2, 37248, Note_off_c, 0, 62, 64
2, 37248, Note_on_c, 0, 62, 92
2, 37248, Note_on_c, 0, 64, 92
2, 37440, Note_off_c, 0, 64, 64
2, 37440, Note_on_c, 0, 68, 92
2, 37632, Note_off_c, 0, 68, 64
2, 37632, Note_off_c, 0, 62, 64
2, 37632, Note_on_c, 0, 60, 92
2, 37632, Note_on_c, 0, 64, 92
2, 37632, Note_on_c, 0, 69, 92
2, 38016, Note_off_c, 0, 69, 64
2, 38016, Note_off_c, 0, 64, 64
2, 38016, Note_off_c, 0, 60, 64
2, 38016, Note_on_c, 0, 60, 92
2, 38016, Note_on_c, 0, 69, 92
2, 38304, Note_off_c, 0, 69, 64
2, 38304, Note_off_c, 0, 60, 64
2, 38304, Note_on_c, 0, 62, 92
2, 38304, Note_on_c, 0, 71, 92
2, 38400, Note_off_c, 0, 71, 64
2, 38400, Note_off_c, 0, 62, 64
2, 38400, Note_on_c, 0, 72, 92
2, 38400, Note_on_c, 0, 64, 92
2, 38592, Note_off_c, 0, 64, 64
2, 38592, Note_on_c, 0, 57, 92
2, 38784, Note_off_c, 0, 57, 64
2, 38784, Note_off_c, 0, 72, 64
2, 38784, Note_on_c, 0, 57, 92
2, 38976, Note_off_c, 0, 57, 64
2, 38976, Note_on_c, 0, 72, 92
2, 38976, Note_on_c, 0, 64, 92
2, 39168, Note_off_c, 0, 64, 64
2, 39168, Note_off_c, 0, 72, 64
2, 39168, Note_on_c, 0, 65, 92
2, 39168, Note_on_c, 0, 74, 92
2, 39360, Note_off_c, 0, 74, 64
2, 39360, Note_off_c, 0, 65, 64
2, 39360, Note_on_c, 0, 65, 92
2, 39360, Note_on_c, 0, 74, 92
2, 39552, Note_off_c, 0, 74, 64
2, 39552, Note_off_c, 0, 65, 64
2, 39552, Note_on_c, 0, 65, 92
2, 39552, Note_on_c, 0, 74, 92
2, 39744, Note_off_c, 0, 74, 64
2, 39744, Note_off_c, 0, 65, 64
2, 39744, Note_on_c, 0, 64, 92
2, 39744, Note_on_c, 0, 72, 92
2, 39840, Note_off_c, 0, 72, 64
2, 39840, Note_off_c, 0, 64, 64
2, 39840, Note_on_c, 0, 62, 92
2, 39840, Note_on_c, 0, 71, 92
2, 39936, Note_off_c, 0, 71, 64
2, 39936, Note_off_c, 0, 62, 64
2, 39936, Note_on_c, 0, 64, 92
2, 39936, Note_on_c, 0, 72, 92
2, 40128, Note_off_c, 0, 64, 64
2, 40128, Note_on_c, 0, 57, 92
2, 40320, Note_off_c, 0, 57, 64
2, 40320, Note_off_c, 0, 72, 64
2, 40320, Note_on_c, 0, 57, 92
2, 40512, Note_off_c, 0, 57, 64
2, 40512, Note_on_c, 0, 64, 92
2, 40512, Note_on_c, 0, 72, 92
2, 40704, Note_off_c, 0, 72, 64
2, 40704, Note_off_c, 0, 64, 64
2, 40704, Note_on_c, 0, 65, 92
2, 40704, Note_on_c, 0, 74, 92
2, 40896, Note_off_c, 0, 74, 64
2, 40896, Note_off_c, 0, 65, 64
2, 40896, Note_on_c, 0, 65, 92
2, 40896, Note_on_c, 0, 74, 92
2, 41088, Note_off_c, 0, 74, 64
2, 41088, Note_off_c, 0, 65, 64
2, 41088, Note_on_c, 0, 65, 92
2, 41088, Note_on_c, 0, 74, 92
2, 41280, Note_off_c, 0, 74, 64
2, 41280, Note_off_c, 0, 65, 64
2, 41280, Note_on_c, 0, 64, 92
2, 41280, Note_on_c, 0, 72, 92
2, 41376, Note_off_c, 0, 72, 64
2, 41376, Note_off_c, 0, 64, 64
2, 41376, Note_on_c, 0, 62, 92
2, 41376, Note_on_c, 0, 71, 92
2, 41472, Note_off_c, 0, 71, 64
2, 41472, Note_off_c, 0, 62, 64
2, 41472, Note_on_c, 0, 64, 92
2, 41472, Note_on_c, 0, 72, 92
2, 41664, Note_off_c, 0, 64, 64
2, 41664, Note_on_c, 0, 57, 92
2, 41856, Note_off_c, 0, 57, 64
2, 41856, Note_off_c, 0, 72, 64
2, 41856, Note_on_c, 0, 72, 92
2, 42048, Note_on_c, 0, 64, 92
2, 42240, Note_off_c, 0, 64, 64
2, 42240, Note_on_c, 0, 65, 92
2, 42336, Note_off_c, 0, 65, 64
2, 42336, Note_on_c, 0, 64, 92
2, 42432, Note_off_c, 0, 64, 64
2, 42432, Note_on_c, 0, 62, 92
2, 42528, Note_off_c, 0, 62, 64
2, 42528, Note_on_c, 0, 64, 92
2, 42624, Note_off_c, 0, 64, 64
2, 42624, Note_off_c, 0, 72, 64
2, 42624, Note_on_c, 0, 65, 92
2, 42624, Note_on_c, 0, 71, 92
2, 42720, Note_off_c, 0, 65, 64
2, 42720, Note_on_c, 0, 69, 92
2, 42816, Note_off_c, 0, 69, 64
2, 42816, Note_on_c, 0, 67, 92
2, 42912, Note_off_c, 0, 67, 64
2, 42912, Note_on_c, 0, 65, 92
2, 43008, Note_off_c, 0, 65, 64
2, 43008, Note_on_c, 0, 64, 92
2, 43104, Note_off_c, 0, 64, 64
2, 43104, Note_on_c, 0, 62, 92
2, 43200, Note_off_c, 0, 62, 64
2, 43200, Note_on_c, 0, 60, 92
2, 43296, Note_off_c, 0, 60, 64
2, 43296, Note_on_c, 0, 62, 92
2, 43392, Note_off_c, 0, 62, 64
2, 43392, Note_off_c, 0, 71, 64
2, 43392, Note_on_c, 0, 64, 92
2, 43392, Note_on_c, 0, 69, 92
2, 43488, Note_off_c, 0, 64, 64
2, 43488, Note_on_c, 0, 67, 92
2, 43584, Note_off_c, 0, 67, 64
2, 43584, Note_on_c, 0, 65, 92
2, 43680, Note_off_c, 0, 65, 64
2, 43680, Note_on_c, 0, 64, 92
2, 43776, Note_off_c, 0, 64, 64
2, 43776, Note_on_c, 0, 62, 92
2, 43872, Note_off_c, 0, 62, 64
2, 43872, Note_on_c, 0, 60, 92
2, 43968, Note_off_c, 0, 60, 64
2, 43968, Note_on_c, 0, 59, 92
2, 44064, Note_off_c, 0, 59, 64
2, 44064, Note_on_c, 0, 60, 92
2, 44160, Note_off_c, 0, 60, 64
2, 44160, Note_off_c, 0, 69, 64
2, 44160, Note_on_c, 0, 62, 92
2, 44160, Note_on_c, 0, 68, 92
2, 44256, Note_off_c, 0, 62, 64
2, 44256, Note_on_c, 0, 65, 92
2, 44352, Note_off_c, 0, 65, 64
2, 44352, Note_on_c, 0, 64, 92
2, 44448, Note_off_c, 0, 64, 64
2, 44448, Note_on_c, 0, 62, 92
2, 44544, Note_off_c, 0, 62, 64
2, 44544, Note_off_c, 0, 68, 64
2, 44544, Note_on_c, 0, 60, 92
2, 44544, Note_on_c, 0, 69, 92
2, 44640, Note_off_c, 0, 60, 64
2, 44640, Note_on_c, 0, 59, 92
2, 44736, Note_off_c, 0, 59, 64
2, 44832, Note_off_c, 0, 69, 64
2, 44832, Note_on_c, 0, 76, 92
2, 44928, Note_off_c, 0, 76, 64
2, 44928, Note_on_c, 0, 81, 92
2, 45024, Note_off_c, 0, 81, 64
2, 45024, Note_on_c, 0, 72, 92
2, 45120, Note_off_c, 0, 72, 64
2, 45120, Note_on_c, 0, 81, 92
2, 45216, Note_off_c, 0, 81, 64
2, 45216, Note_on_c, 0, 72, 92
2, 45312, Note_off_c, 0, 72, 64
2, 45312, Note_on_c, 0, 74, 92
2, 45408, Note_off_c, 0, 74, 64
2, 45408, Note_on_c, 0, 72, 92
2, 45504, Note_off_c, 0, 72, 64
2, 45504, Note_on_c, 0, 71, 92
2, 45600, Note_off_c, 0, 71, 64
2, 45600, Note_on_c, 0, 74, 92
2, 45696, Note_off_c, 0, 74, 64
2, 45696, Note_on_c, 0, 79, 92
2, 45792, Note_off_c, 0, 79, 64
2, 45792, Note_on_c, 0, 71, 92
2, 45888, Note_off_c, 0, 71, 64
2, 45888, Note_on_c, 0, 79, 92
2, 45984, Note_off_c, 0, 79, 64
2, 45984, Note_on_c, 0, 71, 92
2, 46080, Note_off_c, 0, 71, 64
2, 46080, Note_on_c, 0, 72, 92
2, 46176, Note_off_c, 0, 72, 64
2, 46176, Note_on_c, 0, 71, 92
2, 46272, Note_off_c, 0, 71, 64
2, 46272, Note_on_c, 0, 69, 92
2, 46368, Note_off_c, 0, 69, 64
2, 46368, Note_on_c, 0, 72, 92
2, 46464, Note_off_c, 0, 72, 64
2, 46464, Note_on_c, 0, 77, 92
2, 46560, Note_off_c, 0, 77, 64
2, 46560, Note_on_c, 0, 69, 92
2, 46656, Note_off_c, 0, 69, 64
2, 46656, Note_on_c, 0, 77, 92
2, 46752, Note_off_c, 0, 77, 64
2, 46752, Note_on_c, 0, 69, 92
2, 46848, Note_off_c, 0, 69, 64
2, 46848, Note_on_c, 0, 71, 92
2, 46944, Note_off_c, 0, 71, 64
2, 46944, Note_on_c, 0, 69, 92
2, 47040, Note_off_c, 0, 69, 64
2, 47040, Note_on_c, 0, 67, 92
2, 47136, Note_off_c, 0, 67, 64
2, 47136, Note_on_c, 0, 71, 92
2, 47232, Note_off_c, 0, 71, 64
2, 47232, Note_on_c, 0, 76, 92
2, 47328, Note_off_c, 0, 76, 64
2, 47328, Note_on_c, 0, 67, 92
2, 47424, Note_off_c, 0, 67, 64
2, 47424, Note_on_c, 0, 76, 92
2, 47520, Note_off_c, 0, 76, 64
2, 47520, Note_on_c, 0, 67, 92
2, 47616, Note_off_c, 0, 67, 64
2, 47616, Note_on_c, 0, 69, 92
2, 47712, Note_off_c, 0, 69, 64
2, 47712, Note_on_c, 0, 67, 92
2, 47808, Note_off_c, 0, 67, 64
2, 47808, Note_on_c, 0, 65, 92
2, 47904, Note_off_c, 0, 65, 64
2, 47904, Note_on_c, 0, 69, 92
2, 48000, Note_off_c, 0, 69, 64
2, 48000, Note_on_c, 0, 74, 92
2, 48096, Note_off_c, 0, 74, 64
2, 48096, Note_on_c, 0, 76, 92
2, 48192, Note_off_c, 0, 76, 64
2, 48192, Note_on_c, 0, 74, 92
2, 48288, Note_off_c, 0, 74, 64
2, 48288, Note_on_c, 0, 72, 92
2, 48384, Note_off_c, 0, 72, 64
2, 48384, Note_on_c, 0, 71, 92
2, 48480, Note_off_c, 0, 71, 64
2, 48480, Note_on_c, 0, 69, 92
2, 48576, Note_off_c, 0, 69, 64
2, 48576, Note_on_c, 0, 67, 92
2, 48672, Note_off_c, 0, 67, 64
2, 48672, Note_on_c, 0, 74, 92
2, 48768, Note_off_c, 0, 74, 64
2, 48768, Note_on_c, 0, 79, 92
2, 48864, Note_off_c, 0, 79, 64
2, 48864, Note_on_c, 0, 81, 92
2, 48960, Note_off_c, 0, 81, 64
2, 48960, Note_on_c, 0, 79, 92
2, 49056, Note_off_c, 0, 79, 64
2, 49056, Note_on_c, 0, 77, 92
2, 49152, Note_off_c, 0, 77, 64
2, 49152, Note_on_c, 0, 76, 92
2, 49248, Note_off_c, 0, 76, 64
2, 49248, Note_on_c, 0, 74, 92
2, 49344, Note_off_c, 0, 74, 64
2, 49344, Note_on_c, 0, 60, 92
2, 49344, Note_on_c, 0, 72, 92
2, 49440, Note_off_c, 0, 72, 64
2, 49440, Note_off_c, 0, 60, 64
2, 49440, Note_on_c, 0, 62, 92
2, 49440, Note_on_c, 0, 67, 92
2, 49536, Note_off_c, 0, 67, 64
2, 49536, Note_off_c, 0, 62, 64
2, 49536, Note_on_c, 0, 64, 92
2, 49536, Note_on_c, 0, 72, 92
2, 49632, Note_off_c, 0, 72, 64
2, 49632, Note_off_c, 0, 64, 64
2, 49632, Note_on_c, 0, 62, 92
2, 49632, Note_on_c, 0, 74, 92
2, 49728, Note_off_c, 0, 74, 64
2, 49728, Note_off_c, 0, 62, 64
2, 49728, Note_on_c, 0, 64, 92
2, 49728, Note_on_c, 0, 72, 92
2, 49824, Note_off_c, 0, 72, 64
2, 49824, Note_off_c, 0, 64, 64
2, 49824, Note_on_c, 0, 60, 92
2, 49824, Note_on_c, 0, 71, 92
2, 49920, Note_off_c, 0, 71, 64
2, 49920, Note_off_c, 0, 60, 64
2, 49920, Note_on_c, 0, 65, 92
2, 49920, Note_on_c, 0, 69, 92
2, 50016, Note_off_c, 0, 69, 64
2, 50016, Note_off_c, 0, 65, 64
2, 50016, Note_on_c, 0, 64, 92
2, 50016, Note_on_c, 0, 67, 92
2, 50112, Note_off_c, 0, 67, 64
2, 50112, Note_off_c, 0, 64, 64
2, 50112, Note_on_c, 0, 62, 92
2, 50112, Note_on_c, 0, 65, 92
2, 50208, Note_off_c, 0, 65, 64
2, 50208, Note_off_c, 0, 62, 64
2, 50208, Note_on_c, 0, 64, 92
2, 50208, Note_on_c, 0, 69, 92
2, 50304, Note_off_c, 0, 69, 64
2, 50304, Note_off_c, 0, 64, 64
2, 50304, Note_on_c, 0, 66, 92
2, 50304, Note_on_c, 0, 74, 92
2, 50400, Note_off_c, 0, 74, 64
2, 50400, Note_off_c, 0, 66, 64
2, 50400, Note_on_c, 0, 64, 92
2, 50400, Note_on_c, 0, 76, 92
2, 50496, Note_off_c, 0, 76, 64
2, 50496, Note_off_c, 0, 64, 64
2, 50496, Note_on_c, 0, 66, 92
2, 50496, Note_on_c, 0, 74, 92
2, 50592, Note_off_c, 0, 74, 64
2, 50592, Note_off_c, 0, 66, 64
2, 50592, Note_on_c, 0, 62, 92
2, 50592, Note_on_c, 0, 72, 92
2, 50688, Note_off_c, 0, 72, 64
2, 50688, Note_off_c, 0, 62, 64
2, 50688, Note_on_c, 0, 67, 92
2, 50688, Note_on_c, 0, 71, 92
2, 50784, Note_off_c, 0, 71, 64
2, 50784, Note_off_c, 0, 67, 64
2, 50784, Note_on_c, 0, 65, 92
2, 50784, Note_on_c, 0, 69, 92
2, 50880, Note_off_c, 0, 69, 64
2, 50880, Note_off_c, 0, 65, 64
2, 50880, Note_on_c, 0, 64, 92
2, 50880, Note_on_c, 0, 67, 92
2, 50976, Note_off_c, 0, 67, 64
2, 50976, Note_off_c, 0, 64, 64
2, 50976, Note_on_c, 0, 62, 92
2, 50976, Note_on_c, 0, 71, 92
2, 51072, Note_off_c, 0, 71, 64
2, 51072, Note_off_c, 0, 62, 64
2, 51072, Note_on_c, 0, 60, 92
2, 51072, Note_on_c, 0, 64, 92
2, 51168, Note_off_c, 0, 64, 64
2, 51168, Note_on_c, 0, 72, 92
2, 51264, Note_off_c, 0, 72, 64
2, 51264, Note_off_c, 0, 60, 64
2, 51264, Note_on_c, 0, 60, 92
2, 51264, Note_on_c, 0, 64, 92
2, 51360, Note_off_c, 0, 64, 64
2, 51360, Note_on_c, 0, 72, 92
2, 51456, Note_off_c, 0, 72, 64
2, 51456, Note_off_c, 0, 60, 64
2, 51456, Note_on_c, 0, 62, 92
2, 51456, Note_on_c, 0, 65, 92
2, 51552, Note_off_c, 0, 65, 64
2, 51552, Note_on_c, 0, 72, 92
2, 51648, Note_off_c, 0, 72, 64
2, 51648, Note_off_c, 0, 62, 64
2, 51648, Note_on_c, 0, 62, 92
2, 51648, Note_on_c, 0, 65, 92
2, 51744, Note_off_c, 0, 65, 64
2, 51744, Note_on_c, 0, 72, 92
2, 51840, Note_off_c, 0, 72, 64
2, 51840, Note_off_c, 0, 62, 64
2, 51840, Note_on_c, 0, 64, 92
2, 51840, Note_on_c, 0, 67, 92
2, 51936, Note_off_c, 0, 67, 64
2, 51936, Note_on_c, 0, 72, 92
2, 52032, Note_off_c, 0, 72, 64
2, 52032, Note_off_c, 0, 64, 64
2, 52032, Note_on_c, 0, 64, 92
2, 52032, Note_on_c, 0, 67, 92
2, 52128, Note_off_c, 0, 67, 64
2, 52128, Note_on_c, 0, 72, 92
2, 52224, Note_off_c, 0, 72, 64
2, 52224, Note_off_c, 0, 64, 64
2, 52224, Note_on_c, 0, 65, 92
2, 52224, Note_on_c, 0, 69, 92
2, 52320, Note_off_c, 0, 69, 64
2, 52320, Note_on_c, 0, 72, 92
2, 52416, Note_off_c, 0, 72, 64
2, 52416, Note_off_c, 0, 65, 64
2, 52416, Note_on_c, 0, 65, 92
2, 52416, Note_on_c, 0, 69, 92
2, 52512, Note_off_c, 0, 69, 64
2, 52512, Note_on_c, 0, 72, 92
2, 52608, Note_off_c, 0, 72, 64
2, 52608, Note_off_c, 0, 65, 64
2, 52608, Note_on_c, 0, 60, 92
2, 52608, Note_on_c, 0, 64, 92
2, 52704, Note_off_c, 0, 64, 64
2, 52704, Note_on_c, 0, 72, 92
2, 52800, Note_off_c, 0, 72, 64
2, 52800, Note_off_c, 0, 60, 64
2, 52800, Note_on_c, 0, 60, 92
2, 52800, Note_on_c, 0, 64, 92
2, 52896, Note_off_c, 0, 64, 64
2, 52896, Note_on_c, 0, 72, 92
2, 52992, Note_off_c, 0, 72, 64
2, 52992, Note_off_c, 0, 60, 64
2, 52992, Note_on_c, 0, 62, 92
2, 52992, Note_on_c, 0, 65, 92
2, 53088, Note_off_c, 0, 65, 64
2, 53088, Note_on_c, 0, 72, 92
2, 53184, Note_off_c, 0, 72, 64
2, 53184, Note_off_c, 0, 62, 64
2, 53184, Note_on_c, 0, 62, 92
2, 53184, Note_on_c, 0, 65, 92
2, 53280, Note_off_c, 0, 65, 64
2, 53280, Note_on_c, 0, 72, 92
2, 53376, Note_off_c, 0, 72, 64
2, 53376, Note_off_c, 0, 62, 64
2, 53376, Note_on_c, 0, 64, 92
2, 53376, Note_on_c, 0, 67, 92
2, 53472, Note_off_c, 0, 67, 64
2, 53472, Note_on_c, 0, 72, 92
2, 53568, Note_off_c, 0, 72, 64
2, 53568, Note_off_c, 0, 64, 64
2, 53568, Note_on_c, 0, 64, 92
2, 53568, Note_on_c, 0, 67, 92
2, 53664, Note_off_c, 0, 67, 64
2, 53664, Note_on_c, 0, 72, 92
2, 53760, Note_off_c, 0, 72, 64
2, 53760, Note_off_c, 0, 64, 64
2, 53760, Note_on_c, 0, 65, 92
2, 53760, Note_on_c, 0, 69, 92
2, 53856, Note_off_c, 0, 69, 64
2, 53856, Note_on_c, 0, 72, 92
2, 53952, Note_off_c, 0, 72, 64
2, 53952, Note_off_c, 0, 65, 64
2, 53952, Note_on_c, 0, 65, 92
2, 53952, Note_on_c, 0, 69, 92
2, 54048, Note_off_c, 0, 69, 64
2, 54048, Note_on_c, 0, 72, 92
2, 54144, Note_off_c, 0, 72, 64
2, 54144, Note_off_c, 0, 65, 64
2, 54144, Note_on_c, 0, 60, 92
2, 54144, Note_on_c, 0, 64, 92
2, 54240, Note_off_c, 0, 64, 64
2, 54240, Note_on_c, 0, 72, 92
2, 54336, Note_off_c, 0, 72, 64
2, 54336, Note_off_c, 0, 60, 64
2, 54336, Note_on_c, 0, 60, 92
2, 54336, Note_on_c, 0, 64, 92
2, 54432, Note_off_c, 0, 64, 64
2, 54432, Note_on_c, 0, 72, 92
2, 54528, Note_off_c, 0, 72, 64
2, 54528, Note_off_c, 0, 60, 64
2, 54528, Note_on_c, 0, 62, 92
2, 54528, Note_on_c, 0, 65, 92
2, 54624, Note_off_c, 0, 65, 64
2, 54624, Note_on_c, 0, 72, 92
2, 54720, Note_off_c, 0, 72, 64
2, 54720, Note_off_c, 0, 62, 64
2, 54720, Note_on_c, 0, 62, 92
2, 54720, Note_on_c, 0, 65, 92
2, 54816, Note_off_c, 0, 65, 64
2, 54816, Note_on_c, 0, 72, 92
2, 54912, Note_off_c, 0, 72, 64
2, 54912, Note_off_c, 0, 62, 64
2, 54912, Note_on_c, 0, 67, 92
2, 55008, Note_off_c, 0, 67, 64
2, 55008, Note_on_c, 0, 71, 92
2, 55104, Note_off_c, 0, 71, 64
2, 55104, Note_on_c, 0, 67, 92
2, 55200, Note_off_c, 0, 67, 64
2, 55200, Note_on_c, 0, 71, 92
2, 55296, Note_off_c, 0, 71, 64
2, 55296, Note_on_c, 0, 72, 92
2, 55392, Note_off_c, 0, 72, 64
2, 55392, Note_on_c, 0, 79, 92
2, 55488, Note_off_c, 0, 79, 64
2, 55488, Note_on_c, 0, 72, 92
2, 55584, Note_off_c, 0, 72, 64
2, 55584, Note_on_c, 0, 79, 92
2, 55680, Note_off_c, 0, 79, 64
2, 55680, Note_on_c, 0, 72, 92
2, 55776, Note_off_c, 0, 72, 64
2, 55776, Note_on_c, 0, 79, 92
2, 55872, Note_off_c, 0, 79, 64
2, 55872, Note_on_c, 0, 72, 92
2, 55968, Note_off_c, 0, 72, 64
2, 55968, Note_on_c, 0, 79, 92
2, 56064, Note_off_c, 0, 79, 64
2, 56064, Note_on_c, 0, 72, 92
2, 56160, Note_off_c, 0, 72, 64
2, 56160, Note_on_c, 0, 81, 92
2, 56256, Note_off_c, 0, 81, 64
2, 56256, Note_on_c, 0, 72, 92
2, 56352, Note_off_c, 0, 72, 64
2, 56352, Note_on_c, 0, 81, 92
2, 56448, Note_off_c, 0, 81, 64
2, 56448, Note_on_c, 0, 72, 92
2, 56544, Note_off_c, 0, 72, 64
2, 56544, Note_on_c, 0, 81, 92
2, 56640, Note_off_c, 0, 81, 64
2, 56640, Note_on_c, 0, 72, 92
2, 56736, Note_off_c, 0, 72, 64
2, 56736, Note_on_c, 0, 81, 92
2, 56832, Note_off_c, 0, 81, 64
2, 56832, Note_on_c, 0, 72, 92
2, 56928, Note_off_c, 0, 72, 64
2, 56928, Note_on_c, 0, 79, 92
2, 57024, Note_off_c, 0, 79, 64
2, 57024, Note_on_c, 0, 72, 92
2, 57120, Note_off_c, 0, 72, 64
2, 57120, Note_on_c, 0, 79, 92
2, 57216, Note_off_c, 0, 79, 64
2, 57216, Note_on_c, 0, 72, 92
2, 57312, Note_off_c, 0, 72, 64
2, 57312, Note_on_c, 0, 79, 92
2, 57408, Note_off_c, 0, 79, 64
2, 57408, Note_on_c, 0, 72, 92
2, 57504, Note_off_c, 0, 72, 64
2, 57504, Note_on_c, 0, 79, 92
2, 57600, Note_off_c, 0, 79, 64
2, 57600, Note_on_c, 0, 72, 92
2, 57696, Note_off_c, 0, 72, 64
2, 57696, Note_on_c, 0, 81, 92
2, 57792, Note_off_c, 0, 81, 64
2, 57792, Note_on_c, 0, 72, 92
2, 57888, Note_off_c, 0, 72, 64
2, 57888, Note_on_c, 0, 81, 92
2, 57984, Note_off_c, 0, 81, 64
2, 57984, Note_on_c, 0, 72, 92
2, 58080, Note_off_c, 0, 72, 64
2, 58080, Note_on_c, 0, 81, 92
2, 58176, Note_off_c, 0, 81, 64
2, 58176, Note_on_c, 0, 72, 92
2, 58272, Note_off_c, 0, 72, 64
2, 58272, Note_on_c, 0, 81, 92
2, 58368, Note_off_c, 0, 81, 64
2, 58368, Note_on_c, 0, 79, 92
2, 58560, Note_off_c, 0, 79, 64
2, 58560, Note_on_c, 0, 72, 92
2, 58752, Note_off_c, 0, 72, 64
2, 58944, Note_on_c, 0, 76, 92
2, 58944, Note_on_c, 0, 79, 92
2, 59136, Note_off_c, 0, 79, 64
2, 59136, Note_off_c, 0, 76, 64
2, 59136, Note_on_c, 0, 77, 92
2, 59136, Note_on_c, 0, 81, 92
2, 59232, Note_off_c, 0, 81, 64
2, 59232, Note_on_c, 0, 83, 92
2, 59328, Note_off_c, 0, 83, 64
2, 59328, Note_off_c, 0, 77, 64
2, 59328, Note_on_c, 0, 77, 92
2, 59328, Note_on_c, 0, 81, 92
2, 59424, Note_off_c, 0, 81, 64
2, 59424, Note_on_c, 0, 83, 92
2, 59520, Note_off_c, 0, 83, 64
2, 59520, Note_off_c, 0, 77, 64
2, 59520, Note_on_c, 0, 77, 92
2, 59520, Note_on_c, 0, 81, 92
2, 59616, Note_off_c, 0, 81, 64
2, 59616, Note_on_c, 0, 83, 92
2, 59712, Note_off_c, 0, 83, 64
2, 59712, Note_off_c, 0, 77, 64
2, 59712, Note_on_c, 0, 77, 92
2, 59712, Note_on_c, 0, 81, 92
2, 59808, Note_off_c, 0, 81, 64
2, 59808, Note_on_c, 0, 83, 92
2, 59904, Note_off_c, 0, 83, 64
2, 59904, Note_off_c, 0, 77, 64
2, 59904, Note_on_c, 0, 77, 92
2, 59904, Note_on_c, 0, 81, 92
2, 60096, Note_off_c, 0, 81, 64
2, 60096, Note_off_c, 0, 77, 64
2, 60096, Note_on_c, 0, 77, 92
2, 60096, Note_on_c, 0, 81, 92
2, 60288, Note_off_c, 0, 81, 64
2, 60288, Note_off_c, 0, 77, 64
2, 60288, Note_on_c, 0, 74, 92
2, 60288, Note_on_c, 0, 77, 92
2, 60480, Note_off_c, 0, 77, 64
2, 60480, Note_off_c, 0, 74, 64
2, 60480, Note_on_c, 0, 71, 92
2, 60480, Note_on_c, 0, 74, 92
2, 60672, Note_off_c, 0, 74, 64
2, 60672, Note_off_c, 0, 71, 64
2, 60672, Note_on_c, 0, 76, 92
2, 60672, Note_on_c, 0, 79, 92
2, 60768, Note_off_c, 0, 79, 64
2, 60768, Note_on_c, 0, 81, 92
2, 60864, Note_off_c, 0, 81, 64
2, 60864, Note_off_c, 0, 76, 64
2, 60864, Note_on_c, 0, 76, 92
2, 60864, Note_on_c, 0, 79, 92
2, 60960, Note_off_c, 0, 79, 64
2, 60960, Note_on_c, 0, 81, 92
2, 61056, Note_off_c, 0, 81, 64
2, 61056, Note_off_c, 0, 76, 64
2, 61056, Note_on_c, 0, 76, 92
2, 61056, Note_on_c, 0, 79, 92
2, 61152, Note_off_c, 0, 79, 64
2, 61152, Note_on_c, 0, 81, 92
2, 61248, Note_off_c, 0, 81, 64
2, 61248, Note_off_c, 0, 76, 64
2, 61248, Note_on_c, 0, 76, 92
2, 61248, Note_on_c, 0, 79, 92
2, 61344, Note_off_c, 0, 79, 64
2, 61344, Note_on_c, 0, 81, 92
2, 61440, Note_off_c, 0, 81, 64
2, 61440, Note_off_c, 0, 76, 64
2, 61440, Note_on_c, 0, 76, 92
2, 61440, Note_on_c, 0, 79, 92
2, 61632, Note_off_c, 0, 79, 64
2, 61632, Note_off_c, 0, 76, 64
2, 61632, Note_on_c, 0, 76, 92
2, 61632, Note_on_c, 0, 79, 92
2, 61824, Note_off_c, 0, 79, 64
2, 61824, Note_off_c, 0, 76, 64
2, 61824, Note_on_c, 0, 72, 92
2, 61824, Note_on_c, 0, 76, 92
2, 62016, Note_off_c, 0, 76, 64
2, 62016, Note_off_c, 0, 72, 64
2, 62016, Note_on_c, 0, 69, 92
2, 62016, Note_on_c, 0, 72, 92
2, 62208, Note_off_c, 0, 72, 64
2, 62208, Note_off_c, 0, 69, 64
2, 62208, Note_on_c, 0, 77, 92
2, 62208, Note_on_c, 0, 74, 92
2, 62304, Note_off_c, 0, 77, 64
2, 62304, Note_on_c, 0, 79, 92
2, 62400, Note_off_c, 0, 79, 64
2, 62400, Note_off_c, 0, 74, 64
2, 62400, Note_on_c, 0, 77, 92
2, 62400, Note_on_c, 0, 74, 92
2, 62496, Note_off_c, 0, 77, 64
2, 62496, Note_on_c, 0, 79, 92
2, 62592, Note_off_c, 0, 79, 64
2, 62592, Note_off_c, 0, 74, 64
2, 62592, Note_on_c, 0, 77, 92
2, 62592, Note_on_c, 0, 74, 92
2, 62688, Note_off_c, 0, 77, 64
2, 62688, Note_on_c, 0, 79, 92
2, 62784, Note_off_c, 0, 79, 64
2, 62784, Note_off_c, 0, 74, 64
2, 62784, Note_on_c, 0, 77, 92
2, 62784, Note_on_c, 0, 74, 92
2, 62880, Note_off_c, 0, 77, 64
2, 62880, Note_on_c, 0, 79, 92
2, 62976, Note_off_c, 0, 79, 64
2, 62976, Note_off_c, 0, 74, 64
2, 62976, Note_on_c, 0, 74, 92
2, 62976, Note_on_c, 0, 77, 92
2, 63168, Note_off_c, 0, 77, 64
2, 63168, Note_off_c, 0, 74, 64
2, 63168, Note_on_c, 0, 74, 92
2, 63168, Note_on_c, 0, 77, 92
2, 63360, Note_off_c, 0, 77, 64
2, 63360, Note_off_c, 0, 74, 64
2, 63360, Note_on_c, 0, 71, 92
2, 63360, Note_on_c, 0, 74, 92
2, 63552, Note_off_c, 0, 74, 64
2, 63552, Note_off_c, 0, 71, 64
2, 63552, Note_on_c, 0, 67, 92
2, 63552, Note_on_c, 0, 71, 92
2, 63744, Note_off_c, 0, 71, 64
2, 63744, Note_off_c, 0, 67, 64
2, 63744, Note_on_c, 0, 67, 92
2, 63744, Note_on_c, 0, 76, 92
2, 63840, Note_off_c, 0, 76, 64
2, 63840, Note_off_c, 0, 67, 64
2, 63840, Note_on_c, 0, 65, 92
2, 63840, Note_on_c, 0, 74, 92
2, 63936, Note_off_c, 0, 74, 64
2, 63936, Note_off_c, 0, 65, 64
2, 63936, Note_on_c, 0, 64, 92
2, 63936, Note_on_c, 0, 72, 92
2, 64032, Note_off_c, 0, 72, 64
2, 64032, Note_off_c, 0, 64, 64
2, 64032, Note_on_c, 0, 62, 92
2, 64032, Note_on_c, 0, 71, 92
2, 64128, Note_off_c, 0, 71, 64
2, 64128, Note_off_c, 0, 62, 64
2, 64128, Note_on_c, 0, 60, 92
2, 64128, Note_on_c, 0, 69, 92
2, 64224, Note_off_c, 0, 69, 64
2, 64224, Note_off_c, 0, 60, 64
2, 64224, Note_on_c, 0, 67, 92
2, 64320, Note_off_c, 0, 67, 64
2, 64320, Note_on_c, 0, 65, 92
2, 64416, Note_off_c, 0, 65, 64
2, 64416, Note_on_c, 0, 64, 92
2, 64512, Note_off_c, 0, 64, 64
2, 64512, Note_on_c, 0, 79, 92
2, 64608, Note_off_c, 0, 79, 64
2, 64608, Note_on_c, 0, 77, 92
2, 64704, Note_off_c, 0, 77, 64
2, 64704, Note_on_c, 0, 76, 92
2, 64800, Note_off_c, 0, 76, 64
2, 64800, Note_on_c, 0, 74, 92
2, 64896, Note_off_c, 0, 74, 64
2, 64896, Note_on_c, 0, 72, 92
2, 64992, Note_off_c, 0, 72, 64
2, 64992, Note_on_c, 0, 71, 92
2, 65088, Note_off_c, 0, 71, 64
2, 65088, Note_on_c, 0, 69, 92
2, 65184, Note_off_c, 0, 69, 64
2, 65184, Note_on_c, 0, 67, 92
2, 65280, Note_off_c, 0, 67, 64
2, 65280, Note_on_c, 0, 81, 92
2, 65376, Note_off_c, 0, 81, 64
2, 65376, Note_on_c, 0, 79, 92
2, 65472, Note_off_c, 0, 79, 64
2, 65472, Note_on_c, 0, 77, 92
2, 65568, Note_off_c, 0, 77, 64
2, 65568, Note_on_c, 0, 76, 92
2, 65664, Note_off_c, 0, 76, 64
2, 65664, Note_on_c, 0, 74, 92
2, 65760, Note_off_c, 0, 74, 64
2, 65760, Note_on_c, 0, 72, 92
2, 65856, Note_off_c, 0, 72, 64
2, 65856, Note_on_c, 0, 71, 92
2, 65952, Note_off_c, 0, 71, 64
2, 65952, Note_on_c, 0, 69, 92
2, 66048, Note_off_c, 0, 69, 64
2, 66048, Note_on_c, 0, 84, 92
2, 66144, Note_off_c, 0, 84, 64
2, 66144, Note_on_c, 0, 83, 92
2, 66240, Note_off_c, 0, 83, 64
2, 66240, Note_on_c, 0, 81, 92
2, 66336, Note_off_c, 0, 81, 64
2, 66336, Note_on_c, 0, 79, 92
2, 66432, Note_off_c, 0, 79, 64
2, 66432, Note_on_c, 0, 78, 92
2, 66528, Note_off_c, 0, 78, 64
2, 66528, Note_on_c, 0, 79, 92
2, 66624, Note_off_c, 0, 79, 64
2, 66624, Note_on_c, 0, 78, 92
2, 66720, Note_off_c, 0, 78, 64
2, 66720, Note_on_c, 0, 79, 92
2, 66816, Note_off_c, 0, 79, 64
2, 66816, Note_on_c, 0, 81, 92
2, 66912, Note_off_c, 0, 81, 64
2, 66912, Note_on_c, 0, 84, 92
2, 67008, Note_off_c, 0, 84, 64
2, 67008, Note_on_c, 0, 84, 92
2, 67104, Note_off_c, 0, 84, 64
2, 67104, Note_on_c, 0, 78, 92
2, 67200, Note_off_c, 0, 78, 64
2, 67200, Note_on_c, 0, 78, 92
2, 67296, Note_off_c, 0, 78, 64
2, 67296, Note_on_c, 0, 72, 92
2, 67296, Note_on_c, 0, 81, 92
2, 67392, Note_off_c, 0, 81, 64
2, 67392, Note_off_c, 0, 72, 64
2, 67392, Note_on_c, 0, 72, 92
2, 67392, Note_on_c, 0, 81, 92
2, 67488, Note_off_c, 0, 81, 64
2, 67488, Note_off_c, 0, 72, 64
2, 67488, Note_on_c, 0, 66, 92
2, 67488, Note_on_c, 0, 75, 92
2, 67584, Note_off_c, 0, 75, 64
2, 67584, Note_off_c, 0, 66, 64
2, 67584, Note_on_c, 0, 66, 92
2, 67584, Note_on_c, 0, 75, 92
2, 67680, Note_off_c, 0, 75, 64
2, 67680, Note_off_c, 0, 66, 64
2, 67680, Note_on_c, 0, 78, 92
2, 67680, Note_on_c, 0, 69, 92
2, 67776, Note_off_c, 0, 69, 64
2, 67776, Note_off_c, 0, 78, 64
2, 67776, Note_on_c, 0, 78, 92
2, 67776, Note_on_c, 0, 69, 92
2, 67872, Note_off_c, 0, 69, 64
2, 67872, Note_off_c, 0, 78, 64
2, 67872, Note_on_c, 0, 63, 92
2, 67872, Note_on_c, 0, 69, 92
2, 67968, Note_off_c, 0, 69, 64
2, 67968, Note_off_c, 0, 63, 64
2, 67968, Note_on_c, 0, 63, 92
2, 67968, Note_on_c, 0, 69, 92
2, 68064, Note_off_c, 0, 69, 64
2, 68064, Note_off_c, 0, 63, 64
2, 68064, Note_on_c, 0, 66, 92
2, 68064, Note_on_c, 0, 72, 92
2, 68160, Note_off_c, 0, 72, 64
2, 68160, Note_off_c, 0, 66, 64
2, 68160, Note_on_c, 0, 66, 92
2, 68160, Note_on_c, 0, 72, 92
2, 68256, Note_off_c, 0, 72, 64
2, 68256, Note_off_c, 0, 66, 64
2, 68256, Note_on_c, 0, 66, 92
2, 68352, Note_off_c, 0, 66, 64
2, 68352, Note_on_c, 0, 66, 92
2, 68448, Note_off_c, 0, 66, 64
2, 68448, Note_on_c, 0, 69, 92
2, 68544, Note_off_c, 0, 69, 64
2, 68544, Note_on_c, 0, 69, 92
2, 68640, Note_off_c, 0, 69, 64
2, 68640, Note_on_c, 0, 63, 92
2, 68736, Note_off_c, 0, 63, 64
2, 68736, Note_on_c, 0, 63, 92
2, 68832, Note_off_c, 0, 63, 64
2, 68832, Note_on_c, 0, 66, 92
2, 68928, Note_off_c, 0, 66, 64
2, 68928, Note_on_c, 0, 66, 92
2, 69024, Note_off_c, 0, 66, 64
2, 69024, Note_on_c, 0, 59, 92
2, 69120, Note_off_c, 0, 59, 64
2, 69120, Note_on_c, 0, 59, 92
2, 69504, Note_off_c, 0, 59, 64
2, 69696, Note_on_c, 0, 83, 92
2, 69696, Note_on_c, 0, 78, 92
2, 69888, Note_off_c, 0, 78, 64
2, 69888, Note_off_c, 0, 83, 64
2, 69888, Note_on_c, 0, 83, 92
2, 69888, Note_on_c, 0, 79, 92
2, 70080, Note_off_c, 0, 79, 64
2, 70080, Note_off_c, 0, 83, 64
2, 70080, Note_on_c, 0, 78, 92
2, 70080, Note_on_c, 0, 81, 92
2, 70176, Note_off_c, 0, 81, 64
2, 70176, Note_off_c, 0, 78, 64
2, 70176, Note_on_c, 0, 76, 92
2, 70176, Note_on_c, 0, 79, 92
2, 70272, Note_off_c, 0, 79, 64
2, 70272, Note_off_c, 0, 76, 64
2, 70272, Note_on_c, 0, 75, 92
2, 70272, Note_on_c, 0, 78, 92
2, 70560, Note_off_c, 0, 78, 64
2, 70560, Note_off_c, 0, 75, 64
2, 70560, Note_on_c, 0, 76, 92
2, 70656, Note_off_c, 0, 76, 64
2, 70656, Note_on_c, 0, 76, 92
2, 70752, Note_on_c, 0, 74, 92
2, 70848, Note_off_c, 0, 74, 64
2, 70848, Note_on_c, 0, 73, 92
2, 70944, Note_off_c, 0, 73, 64
2, 70944, Note_on_c, 0, 71, 92
2, 71040, Note_off_c, 0, 71, 64
2, 71040, Note_off_c, 0, 76, 64
2, 71040, Note_on_c, 0, 69, 92
2, 71232, Note_off_c, 0, 69, 64
2, 71232, Note_on_c, 0, 81, 92
2, 71232, Note_on_c, 0, 76, 92
2, 71424, Note_off_c, 0, 76, 64
2, 71424, Note_off_c, 0, 81, 64
2, 71424, Note_on_c, 0, 77, 92
2, 71424, Note_on_c, 0, 81, 92
2, 71616, Note_off_c, 0, 81, 64
2, 71616, Note_off_c, 0, 77, 64
2, 71616, Note_on_c, 0, 76, 92
2, 71616, Note_on_c, 0, 79, 92
2, 71712, Note_off_c, 0, 79, 64
2, 71712, Note_off_c, 0, 76, 64
2, 71712, Note_on_c, 0, 74, 92
2, 71712, Note_on_c, 0, 77, 92
2, 71808, Note_off_c, 0, 77, 64
2, 71808, Note_off_c, 0, 74, 64
2, 71808, Note_on_c, 0, 76, 92
2, 71808, Note_on_c, 0, 73, 92
2, 71856, Note_off_c, 0, 76, 64
2, 71856, Note_on_c, 0, 77, 92
2, 71904, Note_off_c, 0, 77, 64
2, 71904, Note_on_c, 0, 76, 92
2, 72096, Note_off_c, 0, 76, 64
2, 72096, Note_off_c, 0, 73, 64
2, 72096, Note_on_c, 0, 74, 92
2, 72192, Note_off_c, 0, 74, 64
2, 72192, Note_on_c, 0, 74, 92
2, 72384, Note_off_c, 0, 74, 64
2, 72384, Note_on_c, 0, 74, 92
2, 72576, Note_off_c, 0, 74, 64
2, 72576, Note_on_c, 0, 74, 92
2, 72672, Note_off_c, 0, 74, 64
2, 72672, Note_on_c, 0, 76, 92
2, 72768, Note_off_c, 0, 76, 64
2, 72768, Note_on_c, 0, 74, 92
2, 72960, Note_off_c, 0, 74, 64
2, 73152, Note_on_c, 0, 76, 92
2, 73344, Note_off_c, 0, 76, 64
2, 73344, Note_on_c, 0, 76, 92
2, 73440, Note_off_c, 0, 76, 64
2, 73440, Note_on_c, 0, 77, 92
2, 73536, Note_off_c, 0, 77, 64
2, 73536, Note_on_c, 0, 76, 92
2, 73728, Note_off_c, 0, 76, 64
2, 73920, Note_on_c, 0, 77, 92
2, 74112, Note_off_c, 0, 77, 64
2, 74112, Note_on_c, 0, 77, 92
2, 74208, Note_off_c, 0, 77, 64
2, 74208, Note_on_c, 0, 79, 92
2, 74304, Note_off_c, 0, 79, 64
2, 74304, Note_on_c, 0, 77, 92
2, 74496, Note_off_c, 0, 77, 64
2, 74688, Note_on_c, 0, 79, 92
2, 74880, Note_off_c, 0, 79, 64
2, 74880, Note_on_c, 0, 79, 92
2, 74976, Note_off_c, 0, 79, 64
2, 74976, Note_on_c, 0, 81, 92
2, 75072, Note_off_c, 0, 81, 64
2, 75072, Note_on_c, 0, 79, 92
2, 75264, Note_off_c, 0, 79, 64
2, 75264, Note_on_c, 0, 81, 92
2, 75744, Note_off_c, 0, 81, 64
2, 75744, Note_on_c, 0, 79, 92
2, 75840, Note_off_c, 0, 79, 64
2, 75840, Note_on_c, 0, 81, 92
2, 75936, Note_off_c, 0, 81, 64
2, 75936, Note_on_c, 0, 82, 92
2, 76032, Note_off_c, 0, 82, 64
2, 76032, Note_on_c, 0, 79, 92
2, 76512, Note_off_c, 0, 79, 64
2, 76512, Note_on_c, 0, 77, 92
2, 76608, Note_off_c, 0, 77, 64
2, 76608, Note_on_c, 0, 79, 92
2, 76704, Note_off_c, 0, 79, 64
2, 76704, Note_on_c, 0, 81, 92
2, 76800, Note_off_c, 0, 81, 64
2, 76800, Note_on_c, 0, 77, 92
2, 76992, Note_off_c, 0, 77, 64
2, 76992, Note_on_c, 0, 76, 92
2, 77088, Note_off_c, 0, 76, 64
2, 77088, Note_on_c, 0, 74, 92
2, 77184, Note_off_c, 0, 74, 64
2, 77184, Note_on_c, 0, 73, 92
2, 77232, Note_off_c, 0, 73, 64
2, 77232, Note_on_c, 0, 74, 92
2, 77280, Note_off_c, 0, 74, 64
2, 77280, Note_on_c, 0, 73, 92
2, 77472, Note_off_c, 0, 73, 64
2, 77472, Note_on_c, 0, 74, 92
2, 77568, Note_off_c, 0, 74, 64
2, 77568, Note_on_c, 0, 74, 92
2, 77760, Note_off_c, 0, 74, 64
2, 77760, Note_on_c, 0, 62, 92
2, 77952, Note_off_c, 0, 62, 64
2, 77952, Note_on_c, 0, 65, 92
2, 78144, Note_off_c, 0, 65, 64
2, 78144, Note_on_c, 0, 69, 92
2, 78336, Note_off_c, 0, 69, 64
2, 78336, Note_on_c, 0, 74, 92
2, 78720, Note_off_c, 0, 74, 64
2, 78720, Note_on_c, 0, 73, 92
2, 79104, Note_off_c, 0, 73, 64
2, 79104, Note_on_c, 0, 74, 92
2, 79200, Note_off_c, 0, 74, 64
2, 79200, Note_on_c, 0, 72, 92
2, 79296, Note_off_c, 0, 72, 64
2, 79296, Note_on_c, 0, 70, 92
2, 79392, Note_off_c, 0, 70, 64
2, 79392, Note_on_c, 0, 69, 92
2, 79488, Note_off_c, 0, 69, 64
2, 79488, Note_on_c, 0, 67, 92
2, 79584, Note_off_c, 0, 67, 64
2, 79584, Note_on_c, 0, 65, 92
2, 79680, Note_off_c, 0, 65, 64
2, 79680, Note_on_c, 0, 64, 92
2, 79776, Note_off_c, 0, 64, 64
2, 79776, Note_on_c, 0, 62, 92
2, 79872, Note_off_c, 0, 62, 64
2, 79872, Note_on_c, 0, 69, 92
2, 80064, Note_off_c, 0, 69, 64
2, 80064, Note_on_c, 0, 57, 92
2, 80256, Note_off_c, 0, 57, 64
2, 80256, Note_on_c, 0, 57, 92
2, 80448, Note_off_c, 0, 57, 64
2, 80448, Note_on_c, 0, 59, 92
2, 80544, Note_off_c, 0, 59, 64
2, 80544, Note_on_c, 0, 61, 92
2, 80640, Note_off_c, 0, 61, 64
2, 80640, Note_on_c, 0, 62, 92
2, 80832, Note_off_c, 0, 62, 64
2, 80832, Note_on_c, 0, 62, 92
2, 80928, Note_off_c, 0, 62, 64
2, 80928, Note_on_c, 0, 64, 92
2, 81024, Note_off_c, 0, 64, 64
2, 81024, Note_on_c, 0, 65, 92
2, 81216, Note_off_c, 0, 65, 64
2, 81216, Note_on_c, 0, 65, 92
2, 81312, Note_off_c, 0, 65, 64
2, 81312, Note_on_c, 0, 67, 92
2, 81408, Note_off_c, 0, 67, 64
2, 81408, Note_on_c, 0, 69, 92
2, 81600, Note_off_c, 0, 69, 64
2, 81600, Note_on_c, 0, 57, 92
2, 81792, Note_off_c, 0, 57, 64
2, 81792, Note_on_c, 0, 57, 92
2, 81984, Note_off_c, 0, 57, 64
2, 81984, Note_on_c, 0, 59, 92
2, 82080, Note_off_c, 0, 59, 64
2, 82080, Note_on_c, 0, 61, 92
2, 82176, Note_off_c, 0, 61, 64
2, 82176, Note_on_c, 0, 62, 92
2, 82368, Note_off_c, 0, 62, 64
2, 82368, Note_on_c, 0, 62, 92
2, 82464, Note_off_c, 0, 62, 64
2, 82464, Note_on_c, 0, 64, 92
2, 82560, Note_off_c, 0, 64, 64
2, 82560, Note_on_c, 0, 65, 92
2, 82752, Note_off_c, 0, 65, 64
2, 82752, Note_on_c, 0, 65, 92
2, 82848, Note_off_c, 0, 65, 64
2, 82848, Note_on_c, 0, 67, 92
2, 82944, Note_off_c, 0, 67, 64
2, 82944, Note_on_c, 0, 69, 92
2, 83040, Note_off_c, 0, 69, 64
2, 84672, Note_on_c, 0, 81, 92
2, 84864, Note_off_c, 0, 81, 64
2, 84864, Note_on_c, 0, 81, 92
2, 84960, Note_off_c, 0, 81, 64
2, 84960, Note_on_c, 0, 82, 92
2, 85056, Note_off_c, 0, 82, 64
2, 85056, Note_on_c, 0, 81, 92
2, 85248, Note_off_c, 0, 81, 64
2, 85440, Note_on_c, 0, 77, 92
2, 85632, Note_off_c, 0, 77, 64
2, 85632, Note_on_c, 0, 77, 92
2, 85728, Note_off_c, 0, 77, 64
2, 85728, Note_on_c, 0, 79, 92
2, 85824, Note_off_c, 0, 79, 64
2, 85824, Note_on_c, 0, 77, 92
2, 86016, Note_off_c, 0, 77, 64
2, 86208, Note_on_c, 0, 74, 92
2, 86400, Note_off_c, 0, 74, 64
2, 86400, Note_on_c, 0, 74, 92
2, 86496, Note_off_c, 0, 74, 64
2, 86496, Note_on_c, 0, 76, 92
2, 86592, Note_off_c, 0, 76, 64
2, 86592, Note_on_c, 0, 74, 92
2, 86784, Note_off_c, 0, 74, 64
2, 86976, Note_on_c, 0, 70, 92
2, 87168, Note_off_c, 0, 70, 64
2, 87168, Note_on_c, 0, 70, 92
2, 87264, Note_off_c, 0, 70, 64
2, 87264, Note_on_c, 0, 72, 92
2, 87360, Note_off_c, 0, 72, 64
2, 87360, Note_on_c, 0, 70, 92
2, 87552, Note_off_c, 0, 70, 64
2, 87744, Note_on_c, 0, 79, 92
2, 87936, Note_off_c, 0, 79, 64
2, 87936, Note_on_c, 0, 79, 92
2, 88032, Note_off_c, 0, 79, 64
2, 88032, Note_on_c, 0, 81, 92
2, 88128, Note_off_c, 0, 81, 64
2, 88128, Note_on_c, 0, 79, 92
2, 88320, Note_off_c, 0, 79, 64
2, 88512, Note_on_c, 0, 76, 92
2, 88704, Note_off_c, 0, 76, 64
2, 88704, Note_on_c, 0, 76, 92
2, 88800, Note_off_c, 0, 76, 64
2, 88800, Note_on_c, 0, 77, 92
2, 88896, Note_off_c, 0, 77, 64
2, 88896, Note_on_c, 0, 76, 92
2, 89088, Note_off_c, 0, 76, 64
2, 89280, Note_on_c, 0, 72, 92
2, 89472, Note_off_c, 0, 72, 64
2, 89472, Note_on_c, 0, 72, 92
2, 89568, Note_off_c, 0, 72, 64
2, 89568, Note_on_c, 0, 74, 92
2, 89664, Note_off_c, 0, 74, 64
2, 89664, Note_on_c, 0, 72, 92
2, 89856, Note_off_c, 0, 72, 64
2, 90048, Note_on_c, 0, 69, 92
2, 90240, Note_off_c, 0, 69, 64
2, 90240, Note_on_c, 0, 69, 92
2, 90336, Note_off_c, 0, 69, 64
2, 90336, Note_on_c, 0, 70, 92
2, 90432, Note_off_c, 0, 70, 64
2, 90432, Note_on_c, 0, 69, 92
2, 90624, Note_off_c, 0, 69, 64
2, 90816, Note_on_c, 0, 81, 92
2, 91008, Note_off_c, 0, 81, 64
2, 91008, Note_on_c, 0, 81, 92
2, 91104, Note_off_c, 0, 81, 64
2, 91104, Note_on_c, 0, 82, 92
2, 91200, Note_off_c, 0, 82, 64
2, 91200, Note_on_c, 0, 81, 92
2, 91392, Note_off_c, 0, 81, 64
2, 91584, Note_on_c, 0, 77, 92
2, 91776, Note_off_c, 0, 77, 64
2, 91776, Note_on_c, 0, 77, 92
2, 91872, Note_off_c, 0, 77, 64
2, 91872, Note_on_c, 0, 79, 92
2, 91968, Note_off_c, 0, 79, 64
2, 91968, Note_on_c, 0, 77, 92
2, 92160, Note_off_c, 0, 77, 64
2, 92352, Note_on_c, 0, 74, 92
2, 92544, Note_off_c, 0, 74, 64
2, 92544, Note_on_c, 0, 74, 92
2, 92640, Note_off_c, 0, 74, 64
2, 92640, Note_on_c, 0, 76, 92
2, 92736, Note_off_c, 0, 76, 64
2, 92736, Note_on_c, 0, 74, 92
2, 92928, Note_off_c, 0, 74, 64
2, 93120, Note_on_c, 0, 70, 92
2, 93312, Note_off_c, 0, 70, 64
2, 93312, Note_on_c, 0, 70, 92
2, 93408, Note_off_c, 0, 70, 64
2, 93408, Note_on_c, 0, 72, 92
2, 93504, Note_off_c, 0, 72, 64
2, 93504, Note_on_c, 0, 70, 92
2, 93696, Note_off_c, 0, 70, 64
2, 93696, Note_on_c, 0, 69, 92
2, 94080, Note_off_c, 0, 69, 64
2, 94272, Note_on_c, 0, 69, 92
2, 94272, Note_on_c, 0, 76, 92
2, 94464, Note_off_c, 0, 76, 64
2, 94464, Note_off_c, 0, 69, 64
2, 94464, Note_on_c, 0, 71, 92
2, 94464, Note_on_c, 0, 76, 92
2, 94656, Note_off_c, 0, 76, 64
2, 94656, Note_on_c, 0, 74, 92
2, 94848, Note_off_c, 0, 74, 64
2, 94848, Note_on_c, 0, 80, 92
2, 95040, Note_off_c, 0, 80, 64
2, 95040, Note_on_c, 0, 74, 92
2, 95232, Note_off_c, 0, 74, 64
2, 95232, Note_on_c, 0, 83, 92
2, 95424, Note_off_c, 0, 83, 64
2, 95424, Note_on_c, 0, 74, 92
2, 95616, Note_off_c, 0, 74, 64
2, 95616, Note_on_c, 0, 77, 92
2, 95808, Note_off_c, 0, 77, 64
2, 95808, Note_on_c, 0, 74, 92
2, 96000, Note_off_c, 0, 74, 64
2, 96000, Note_on_c, 0, 76, 92
2, 96192, Note_off_c, 0, 76, 64
2, 96192, Note_on_c, 0, 74, 92
2, 96384, Note_off_c, 0, 74, 64
2, 96384, Note_on_c, 0, 83, 92
2, 96576, Note_off_c, 0, 83, 64
2, 96576, Note_on_c, 0, 74, 92
2, 96768, Note_off_c, 0, 74, 64
2, 96768, Note_on_c, 0, 76, 92
2, 96960, Note_off_c, 0, 76, 64
2, 96960, Note_on_c, 0, 74, 92
2, 97152, Note_off_c, 0, 74, 64
2, 97152, Note_on_c, 0, 83, 92
2, 97344, Note_off_c, 0, 83, 64
2, 97344, Note_on_c, 0, 74, 92
2, 97536, Note_off_c, 0, 74, 64
2, 97536, Note_on_c, 0, 80, 92
2, 97728, Note_off_c, 0, 80, 64
2, 97728, Note_on_c, 0, 76, 92
2, 97920, Note_off_c, 0, 76, 64
2, 97920, Note_off_c, 0, 71, 64
2, 97920, Note_on_c, 0, 81, 92
2, 98112, Note_off_c, 0, 81, 64
2, 98112, Note_on_c, 0, 69, 92
2, 98112, Note_on_c, 0, 72, 92
2, 98112, Note_on_c, 0, 76, 92
2, 98304, Note_off_c, 0, 76, 64
2, 98304, Note_off_c, 0, 72, 64
2, 98304, Note_off_c, 0, 69, 64
2, 98304, Note_on_c, 0, 71, 92
2, 98304, Note_on_c, 0, 74, 92
2, 98304, Note_on_c, 0, 77, 92
2, 98496, Note_off_c, 0, 77, 64
2, 98496, Note_on_c, 0, 81, 92
2, 98688, Note_off_c, 0, 81, 64
2, 98688, Note_off_c, 0, 74, 64
2, 98688, Note_off_c, 0, 71, 64
2, 98688, Note_on_c, 0, 71, 92
2, 98688, Note_on_c, 0, 74, 92
2, 98688, Note_on_c, 0, 76, 92
2, 98880, Note_off_c, 0, 76, 64
2, 98880, Note_on_c, 0, 80, 92
2, 99072, Note_off_c, 0, 80, 64
2, 99072, Note_off_c, 0, 74, 64
2, 99072, Note_off_c, 0, 71, 64
2, 99072, Note_on_c, 0, 69, 92
2, 99360, Note_on_c, 0, 71, 92
2, 99456, Note_off_c, 0, 71, 64
2, 99456, Note_off_c, 0, 69, 64
2, 99456, Note_on_c, 0, 72, 92
2, 99456, Note_on_c, 0, 69, 92
2, 99744, Note_off_c, 0, 69, 64
2, 99744, Note_off_c, 0, 72, 64
2, 99744, Note_on_c, 0, 71, 92
2, 99744, Note_on_c, 0, 74, 92
2, 99840, Note_off_c, 0, 74, 64
2, 99840, Note_off_c, 0, 71, 64
2, 99840, Note_on_c, 0, 72, 92
2, 99840, Note_on_c, 0, 76, 92
2, 100032, Note_off_c, 0, 76, 64
2, 100032, Note_on_c, 0, 69, 92
2, 100224, Note_off_c, 0, 69, 64
2, 100224, Note_off_c, 0, 72, 64
2, 100224, Note_on_c, 0, 69, 92
2, 100416, Note_off_c, 0, 69, 64
2, 100416, Note_on_c, 0, 72, 92
2, 100416, Note_on_c, 0, 76, 92
2, 100608, Note_off_c, 0, 76, 64
2, 100608, Note_off_c, 0, 72, 64
2, 100608, Note_on_c, 0, 74, 92
2, 100608, Note_on_c, 0, 77, 92
2, 100800, Note_off_c, 0, 77, 64
2, 100800, Note_off_c, 0, 74, 64
2, 100800, Note_on_c, 0, 74, 92
2, 100800, Note_on_c, 0, 77, 92
2, 100992, Note_off_c, 0, 77, 64
2, 100992, Note_off_c, 0, 74, 64
2, 100992, Note_on_c, 0, 74, 92
2, 100992, Note_on_c, 0, 77, 92
2, 101184, Note_off_c, 0, 77, 64
2, 101184, Note_off_c, 0, 74, 64
2, 101184, Note_on_c, 0, 72, 92
2, 101184, Note_on_c, 0, 76, 92
2, 101280, Note_off_c, 0, 76, 64
2, 101280, Note_off_c, 0, 72, 64
2, 101280, Note_on_c, 0, 71, 92
2, 101280, Note_on_c, 0, 74, 92
2, 101376, Note_off_c, 0, 74, 64
2, 101376, Note_off_c, 0, 71, 64
2, 101376, Note_on_c, 0, 72, 92
2, 101376, Note_on_c, 0, 76, 92
2, 101568, Note_off_c, 0, 76, 64
2, 101568, Note_on_c, 0, 69, 92
2, 101760, Note_off_c, 0, 69, 64
2, 101760, Note_off_c, 0, 72, 64
2, 101760, Note_on_c, 0, 69, 92
2, 101952, Note_off_c, 0, 69, 64
2, 101952, Note_on_c, 0, 72, 92
2, 101952, Note_on_c, 0, 76, 92
2, 102144, Note_off_c, 0, 76, 64
2, 102144, Note_off_c, 0, 72, 64
2, 102144, Note_on_c, 0, 77, 92
2, 102144, Note_on_c, 0, 74, 92
2, 102336, Note_off_c, 0, 74, 64
2, 102336, Note_off_c, 0, 77, 64
2, 102336, Note_on_c, 0, 77, 92
2, 102336, Note_on_c, 0, 74, 92
2, 102528, Note_off_c, 0, 74, 64
2, 102528, Note_off_c, 0, 77, 64
2, 102528, Note_on_c, 0, 77, 92
2, 102528, Note_on_c, 0, 74, 92
2, 102720, Note_off_c, 0, 74, 64
2, 102720, Note_off_c, 0, 77, 64
2, 102720, Note_on_c, 0, 72, 92
2, 102720, Note_on_c, 0, 76, 92
2, 102816, Note_off_c, 0, 76, 64
2, 102816, Note_off_c, 0, 72, 64
2, 102816, Note_on_c, 0, 71, 92
2, 102816, Note_on_c, 0, 74, 92
2, 102912, Note_off_c, 0, 74, 64
2, 102912, Note_off_c, 0, 71, 64
2, 102912, Note_on_c, 0, 72, 92
2, 102912, Note_on_c, 0, 76, 92
2, 103008, Note_off_c, 0, 76, 64
2, 103008, Note_off_c, 0, 72, 64
2, 103008, Note_on_c, 0, 69, 92
2, 103104, Note_off_c, 0, 69, 64
2, 103104, Note_on_c, 0, 71, 92
2, 103200, Note_off_c, 0, 71, 64
2, 103200, Note_on_c, 0, 72, 92
2, 103296, Note_off_c, 0, 72, 64
2, 103296, Note_on_c, 0, 74, 92
2, 103392, Note_off_c, 0, 74, 64
2, 103392, Note_on_c, 0, 76, 92
2, 103488, Note_off_c, 0, 76, 64
2, 103488, Note_on_c, 0, 78, 92
2, 103584, Note_off_c, 0, 78, 64
2, 103584, Note_on_c, 0, 80, 92
2, 103680, Note_off_c, 0, 80, 64
2, 103680, Note_on_c, 0, 72, 92
2, 103680, Note_on_c, 0, 76, 92
2, 103680, Note_on_c, 0, 81, 92
2, 104064, Note_off_c, 0, 81, 64
2, 104064, Note_off_c, 0, 76, 64
2, 104064, Note_off_c, 0, 72, 64
2, 104064, Note_on_c, 0, 71, 92
2, 104064, Note_on_c, 0, 76, 92
2, 104064, Note_on_c, 0, 80, 92
2, 104448, Note_off_c, 0, 80, 64
2, 104448, Note_off_c, 0, 76, 64
2, 104448, Note_off_c, 0, 71, 64
2, 104448, Note_on_c, 0, 72, 92
2, 104448, Note_on_c, 0, 76, 92
2, 104448, Note_on_c, 0, 81, 92
2, 104448, Note_on_c, 0, 64, 92
2, 104544, Note_off_c, 0, 81, 64
2, 104544, Note_off_c, 0, 76, 64
2, 104544, Note_off_c, 0, 72, 64
2, 104544, Note_on_c, 0, 79, 92
2, 104640, Note_off_c, 0, 79, 64
2, 104640, Note_on_c, 0, 77, 92
2, 104736, Note_off_c, 0, 77, 64
2, 104736, Note_on_c, 0, 76, 92
2, 104832, Note_off_c, 0, 76, 64
2, 104832, Note_off_c, 0, 64, 64
2, 104832, Note_on_c, 0, 74, 92
2, 104928, Note_off_c, 0, 74, 64
2, 104928, Note_on_c, 0, 72, 92
2, 105024, Note_off_c, 0, 72, 64
2, 105024, Note_on_c, 0, 64, 92
2, 105024, Note_on_c, 0, 71, 92
2, 105120, Note_off_c, 0, 71, 64
2, 105120, Note_on_c, 0, 69, 92
2, 105216, Note_off_c, 0, 69, 64
2, 105216, Note_on_c, 0, 76, 92
2, 105408, Note_off_c, 0, 76, 64
2, 105408, Note_off_c, 0, 64, 64
2, 105408, Note_on_c, 0, 64, 92
2, 105600, Note_off_c, 0, 64, 64
2, 105600, Note_on_c, 0, 64, 92
2, 105792, Note_on_c, 0, 66, 92
2, 105888, Note_off_c, 0, 66, 64
2, 105888, Note_on_c, 0, 68, 92
2, 105984, Note_off_c, 0, 68, 64
2, 105984, Note_on_c, 0, 69, 92
2, 106176, Note_off_c, 0, 69, 64
2, 106176, Note_on_c, 0, 69, 92
2, 106272, Note_off_c, 0, 69, 64
2, 106272, Note_on_c, 0, 71, 92
2, 106368, Note_off_c, 0, 71, 64
2, 106368, Note_off_c, 0, 64, 64
2, 106368, Note_on_c, 0, 69, 92
2, 106368, Note_on_c, 0, 72, 92
2, 106560, Note_off_c, 0, 72, 64
2, 106560, Note_off_c, 0, 69, 64
2, 106560, Note_on_c, 0, 72, 92
2, 106560, Note_on_c, 0, 64, 92
2, 106656, Note_off_c, 0, 72, 64
2, 106656, Note_on_c, 0, 74, 92
2, 106752, Note_off_c, 0, 74, 64
2, 106752, Note_on_c, 0, 76, 92
2, 106944, Note_off_c, 0, 76, 64
2, 106944, Note_off_c, 0, 64, 64
2, 106944, Note_on_c, 0, 64, 92
2, 107136, Note_off_c, 0, 64, 64
2, 107136, Note_on_c, 0, 64, 92
2, 107328, Note_on_c, 0, 66, 92
2, 107424, Note_off_c, 0, 66, 64
2, 107424, Note_on_c, 0, 68, 92
2, 107520, Note_off_c, 0, 68, 64
2, 107520, Note_on_c, 0, 69, 92
2, 107712, Note_off_c, 0, 69, 64
2, 107712, Note_on_c, 0, 60, 92
2, 107712, Note_on_c, 0, 69, 92
2, 107808, Note_off_c, 0, 69, 64
2, 107808, Note_off_c, 0, 60, 64
2, 107808, Note_on_c, 0, 62, 92
2, 107808, Note_on_c, 0, 71, 92
2, 107904, Note_off_c, 0, 71, 64
2, 107904, Note_off_c, 0, 62, 64
2, 107904, Note_off_c, 0, 64, 64
2, 107904, Note_on_c, 0, 69, 92
2, 107904, Note_on_c, 0, 72, 92
2, 107904, Note_on_c, 0, 64, 92
2, 108096, Note_off_c, 0, 64, 64
2, 108096, Note_off_c, 0, 72, 64
2, 108096, Note_off_c, 0, 69, 64
2, 108096, Note_on_c, 0, 72, 92
2, 108096, Note_on_c, 0, 69, 92
2, 108096, Note_on_c, 0, 64, 92
2, 108192, Note_off_c, 0, 72, 64
2, 108192, Note_on_c, 0, 74, 92
2, 108288, Note_off_c, 0, 74, 64
2, 108288, Note_off_c, 0, 64, 64
2, 108288, Note_off_c, 0, 69, 64
2, 108288, Note_on_c, 0, 64, 92
2, 108288, Note_on_c, 0, 71, 92
2, 108288, Note_on_c, 0, 76, 92
2, 108480, Note_off_c, 0, 76, 64
2, 108480, Note_off_c, 0, 71, 64
2, 108480, Note_off_c, 0, 64, 64
2, 108480, Note_on_c, 0, 83, 92
2, 108672, Note_off_c, 0, 83, 64
2, 108672, Note_on_c, 0, 83, 92
2, 108768, Note_off_c, 0, 83, 64
2, 108768, Note_on_c, 0, 84, 92
2, 108864, Note_off_c, 0, 84, 64
2, 108864, Note_on_c, 0, 83, 92
2, 109056, Note_off_c, 0, 83, 64
2, 109248, Note_on_c, 0, 80, 92
2, 109440, Note_off_c, 0, 80, 64
2, 109440, Note_on_c, 0, 80, 92
2, 109536, Note_off_c, 0, 80, 64
2, 109536, Note_on_c, 0, 81, 92
2, 109632, Note_off_c, 0, 81, 64
2, 109632, Note_on_c, 0, 80, 92
2, 109824, Note_off_c, 0, 80, 64
2, 110016, Note_on_c, 0, 76, 92
2, 110208, Note_off_c, 0, 76, 64
2, 110208, Note_on_c, 0, 76, 92
2, 110304, Note_off_c, 0, 76, 64
2, 110304, Note_on_c, 0, 77, 92
2, 110400, Note_off_c, 0, 77, 64
2, 110400, Note_on_c, 0, 76, 92
2, 110592, Note_off_c, 0, 76, 64
2, 110784, Note_on_c, 0, 72, 92
2, 110976, Note_off_c, 0, 72, 64
2, 110976, Note_on_c, 0, 72, 92
2, 111072, Note_off_c, 0, 72, 64
2, 111072, Note_on_c, 0, 74, 92
2, 111168, Note_off_c, 0, 74, 64
2, 111168, Note_on_c, 0, 72, 92
2, 111360, Note_off_c, 0, 72, 64
2, 111552, Note_on_c, 0, 81, 92
2, 111744, Note_off_c, 0, 81, 64
2, 111744, Note_on_c, 0, 81, 92
2, 111840, Note_off_c, 0, 81, 64
2, 111840, Note_on_c, 0, 83, 92
2, 111936, Note_off_c, 0, 83, 64
2, 111936, Note_on_c, 0, 81, 92
2, 112128, Note_off_c, 0, 81, 64
2, 112320, Note_on_c, 0, 77, 92
2, 112512, Note_off_c, 0, 77, 64
2, 112512, Note_on_c, 0, 77, 92
2, 112608, Note_off_c, 0, 77, 64
2, 112608, Note_on_c, 0, 79, 92
2, 112704, Note_off_c, 0, 79, 64
2, 112704, Note_on_c, 0, 77, 92
2, 112896, Note_off_c, 0, 77, 64
2, 113088, Note_on_c, 0, 74, 92
2, 113280, Note_off_c, 0, 74, 64
2, 113280, Note_on_c, 0, 74, 92
2, 113376, Note_off_c, 0, 74, 64
2, 113376, Note_on_c, 0, 76, 92
2, 113472, Note_off_c, 0, 76, 64
2, 113472, Note_on_c, 0, 74, 92
2, 113664, Note_off_c, 0, 74, 64
2, 113856, Note_on_c, 0, 71, 92
2, 114048, Note_off_c, 0, 71, 64
2, 114048, Note_on_c, 0, 71, 92
2, 114144, Note_off_c, 0, 71, 64
2, 114144, Note_on_c, 0, 72, 92
2, 114240, Note_off_c, 0, 72, 64
2, 114240, Note_on_c, 0, 71, 92
2, 114432, Note_off_c, 0, 71, 64
2, 114624, Note_on_c, 0, 79, 92
2, 114816, Note_off_c, 0, 79, 64
2, 114816, Note_on_c, 0, 79, 92
2, 114912, Note_off_c, 0, 79, 64
2, 114912, Note_on_c, 0, 81, 92
2, 115008, Note_off_c, 0, 81, 64
2, 115008, Note_on_c, 0, 79, 92
2, 115200, Note_off_c, 0, 79, 64
2, 115392, Note_on_c, 0, 76, 92
2, 115584, Note_off_c, 0, 76, 64
2, 115584, Note_on_c, 0, 76, 92
2, 115680, Note_off_c, 0, 76, 64
2, 115680, Note_on_c, 0, 77, 92
2, 115776, Note_off_c, 0, 77, 64
2, 115776, Note_on_c, 0, 76, 92
2, 115968, Note_off_c, 0, 76, 64
2, 116160, Note_on_c, 0, 72, 92
2, 116352, Note_off_c, 0, 72, 64
2, 116352, Note_on_c, 0, 72, 92
2, 116448, Note_off_c, 0, 72, 64
2, 116448, Note_on_c, 0, 74, 92
2, 116544, Note_off_c, 0, 74, 64
2, 116544, Note_on_c, 0, 72, 92
2, 116736, Note_off_c, 0, 72, 64
2, 116928, Note_on_c, 0, 69, 92
2, 117120, Note_off_c, 0, 69, 64
2, 117120, Note_on_c, 0, 69, 92
2, 117216, Note_off_c, 0, 69, 64
2, 117216, Note_on_c, 0, 71, 92
2, 117312, Note_off_c, 0, 71, 64
2, 117312, Note_on_c, 0, 69, 92
2, 117504, Note_off_c, 0, 69, 64
2, 117696, Note_on_c, 0, 77, 92
2, 117888, Note_off_c, 0, 77, 64
2, 117888, Note_on_c, 0, 77, 92
2, 117984, Note_off_c, 0, 77, 64
2, 117984, Note_on_c, 0, 79, 92
2, 118080, Note_off_c, 0, 79, 64
2, 118080, Note_on_c, 0, 77, 92
2, 118272, Note_off_c, 0, 77, 64
2, 118464, Note_on_c, 0, 74, 92
2, 118656, Note_off_c, 0, 74, 64
2, 118656, Note_on_c, 0, 74, 92
2, 118752, Note_off_c, 0, 74, 64
2, 118752, Note_on_c, 0, 76, 92
2, 118848, Note_off_c, 0, 76, 64
2, 118848, Note_on_c, 0, 74, 92
2, 119040, Note_off_c, 0, 74, 64
2, 119040, Note_on_c, 0, 71, 92
2, 119232, Note_off_c, 0, 71, 64
2, 119616, Note_on_c, 0, 76, 92
2, 119616, Note_on_c, 0, 71, 92
2, 119808, Note_off_c, 0, 71, 64
2, 119808, Note_off_c, 0, 76, 64
2, 119808, Note_on_c, 0, 76, 92
2, 119808, Note_on_c, 0, 72, 92
2, 119904, Note_off_c, 0, 76, 64
2, 119904, Note_on_c, 0, 77, 92
2, 120000, Note_off_c, 0, 77, 64
2, 120000, Note_off_c, 0, 72, 64
2, 120000, Note_on_c, 0, 76, 92
2, 120000, Note_on_c, 0, 72, 92
2, 120192, Note_off_c, 0, 72, 64
2, 120192, Note_off_c, 0, 76, 64
2, 120384, Note_on_c, 0, 76, 92
2, 120384, Note_on_c, 0, 72, 92
2, 120576, Note_off_c, 0, 72, 64
2, 120576, Note_off_c, 0, 76, 64
2, 120576, Note_on_c, 0, 76, 92
2, 120576, Note_on_c, 0, 71, 92
2, 120672, Note_off_c, 0, 76, 64
2, 120672, Note_on_c, 0, 77, 92
2, 120768, Note_off_c, 0, 77, 64
2, 120768, Note_off_c, 0, 71, 64
2, 120768, Note_on_c, 0, 76, 92
2, 120768, Note_on_c, 0, 71, 92
2, 120960, Note_off_c, 0, 71, 64
2, 120960, Note_off_c, 0, 76, 64
2, 121152, Note_on_c, 0, 76, 92
2, 121152, Note_on_c, 0, 71, 92
2, 121344, Note_off_c, 0, 71, 64
2, 121344, Note_off_c, 0, 76, 64
2, 121344, Note_on_c, 0, 76, 92
2, 121344, Note_on_c, 0, 72, 92
2, 121440, Note_off_c, 0, 76, 64
2, 121440, Note_on_c, 0, 77, 92
2, 121536, Note_off_c, 0, 77, 64
2, 121536, Note_off_c, 0, 72, 64
2, 121536, Note_on_c, 0, 76, 92
2, 121536, Note_on_c, 0, 72, 92
2, 121728, Note_off_c, 0, 72, 64
2, 121728, Note_off_c, 0, 76, 64
2, 121920, Note_on_c, 0, 76, 92
2, 121920, Note_on_c, 0, 72, 92
2, 122112, Note_off_c, 0, 72, 64
2, 122112, Note_off_c, 0, 76, 64
2, 122112, Note_on_c, 0, 74, 92
2, 122112, Note_on_c, 0, 77, 92
2, 122208, Note_off_c, 0, 77, 64
2, 122208, Note_on_c, 0, 79, 92
2, 122304, Note_off_c, 0, 79, 64
2, 122304, Note_off_c, 0, 74, 64
2, 122304, Note_on_c, 0, 74, 92
2, 122304, Note_on_c, 0, 77, 92
2, 122400, Note_off_c, 0, 77, 64
2, 122400, Note_on_c, 0, 79, 92
2, 122496, Note_off_c, 0, 79, 64
2, 122496, Note_off_c, 0, 74, 64
2, 122496, Note_on_c, 0, 74, 92
2, 122496, Note_on_c, 0, 77, 92
2, 122592, Note_off_c, 0, 77, 64
2, 122592, Note_on_c, 0, 79, 92
2, 122688, Note_off_c, 0, 79, 64
2, 122688, Note_off_c, 0, 74, 64
2, 122688, Note_on_c, 0, 74, 92
2, 122688, Note_on_c, 0, 77, 92
2, 122784, Note_off_c, 0, 77, 64
2, 122784, Note_on_c, 0, 79, 92
2, 122880, Note_off_c, 0, 79, 64
2, 122880, Note_off_c, 0, 74, 64
2, 122880, Note_on_c, 0, 77, 92
2, 122880, Note_on_c, 0, 74, 92
2, 123072, Note_off_c, 0, 74, 64
2, 123072, Note_off_c, 0, 77, 64
2, 123072, Note_on_c, 0, 77, 92
2, 123072, Note_on_c, 0, 74, 92
2, 123264, Note_off_c, 0, 74, 64
2, 123264, Note_off_c, 0, 77, 64
2, 123264, Note_on_c, 0, 71, 92
2, 123264, Note_on_c, 0, 74, 92
2, 123456, Note_off_c, 0, 74, 64
2, 123456, Note_off_c, 0, 71, 64
2, 123456, Note_on_c, 0, 67, 92
2, 123456, Note_on_c, 0, 71, 92
2, 123648, Note_off_c, 0, 71, 64
2, 123648, Note_off_c, 0, 67, 64
2, 123648, Note_on_c, 0, 67, 92
2, 123648, Note_on_c, 0, 76, 92
2, 123744, Note_off_c, 0, 76, 64
2, 123744, Note_on_c, 0, 77, 92
2, 123840, Note_off_c, 0, 77, 64
2, 123840, Note_off_c, 0, 67, 64
2, 123840, Note_on_c, 0, 72, 92
2, 123840, Note_on_c, 0, 76, 92
2, 123936, Note_off_c, 0, 76, 64
2, 123936, Note_on_c, 0, 77, 92
2, 124032, Note_off_c, 0, 77, 64
2, 124032, Note_off_c, 0, 72, 64
2, 124032, Note_on_c, 0, 72, 92
2, 124032, Note_on_c, 0, 76, 92
2, 124128, Note_off_c, 0, 76, 64
2, 124128, Note_on_c, 0, 77, 92
2, 124224, Note_off_c, 0, 77, 64
2, 124224, Note_off_c, 0, 72, 64
2, 124224, Note_on_c, 0, 72, 92
2, 124224, Note_on_c, 0, 76, 92
2, 124320, Note_off_c, 0, 76, 64
2, 124320, Note_on_c, 0, 77, 92
2, 124416, Note_off_c, 0, 77, 64
2, 124416, Note_off_c, 0, 72, 64
2, 124416, Note_on_c, 0, 76, 92
2, 124416, Note_on_c, 0, 72, 92
2, 124608, Note_off_c, 0, 72, 64
2, 124608, Note_off_c, 0, 76, 64
2, 124608, Note_on_c, 0, 76, 92
2, 124608, Note_on_c, 0, 72, 92
2, 124800, Note_off_c, 0, 72, 64
2, 124800, Note_off_c, 0, 76, 64
2, 124800, Note_on_c, 0, 69, 92
2, 124800, Note_on_c, 0, 72, 92
2, 124992, Note_off_c, 0, 72, 64
2, 124992, Note_off_c, 0, 69, 64
2, 124992, Note_on_c, 0, 65, 92
2, 124992, Note_on_c, 0, 69, 92
2, 125184, Note_off_c, 0, 69, 64
2, 125184, Note_off_c, 0, 65, 64
2, 125184, Note_on_c, 0, 65, 92
2, 125184, Note_on_c, 0, 74, 92
2, 125280, Note_off_c, 0, 74, 64
2, 125280, Note_on_c, 0, 76, 92
2, 125376, Note_off_c, 0, 76, 64
2, 125376, Note_off_c, 0, 65, 64
2, 125376, Note_on_c, 0, 71, 92
2, 125376, Note_on_c, 0, 74, 92
2, 125472, Note_off_c, 0, 74, 64
2, 125472, Note_on_c, 0, 76, 92
2, 125568, Note_off_c, 0, 76, 64
2, 125568, Note_off_c, 0, 71, 64
2, 125568, Note_on_c, 0, 71, 92
2, 125568, Note_on_c, 0, 74, 92
2, 125664, Note_off_c, 0, 74, 64
2, 125664, Note_on_c, 0, 76, 92
2, 125760, Note_off_c, 0, 76, 64
2, 125760, Note_off_c, 0, 71, 64
2, 125760, Note_on_c, 0, 71, 92
2, 125760, Note_on_c, 0, 74, 92
2, 125856, Note_off_c, 0, 74, 64
2, 125856, Note_on_c, 0, 76, 92
2, 125952, Note_off_c, 0, 76, 64
2, 125952, Note_off_c, 0, 71, 64
2, 125952, Note_on_c, 0, 74, 92
2, 125952, Note_on_c, 0, 71, 92
2, 126144, Note_off_c, 0, 71, 64
2, 126144, Note_off_c, 0, 74, 64
2, 126144, Note_on_c, 0, 74, 92
2, 126144, Note_on_c, 0, 71, 92
2, 126336, Note_off_c, 0, 71, 64
2, 126336, Note_off_c, 0, 74, 64
2, 126336, Note_on_c, 0, 68, 92
2, 126336, Note_on_c, 0, 71, 92
2, 126528, Note_off_c, 0, 71, 64
2, 126528, Note_off_c, 0, 68, 64
2, 126528, Note_on_c, 0, 64, 92
2, 126528, Note_on_c, 0, 68, 92
2, 126720, Note_off_c, 0, 68, 64
2, 126720, Note_off_c, 0, 64, 64
2, 126720, Note_on_c, 0, 64, 92
2, 126720, Note_on_c, 0, 72, 92
2, 127104, Note_off_c, 0, 72, 64
2, 127104, Note_off_c, 0, 64, 64
2, 127296, Note_on_c, 0, 64, 92
2, 127296, Note_on_c, 0, 76, 92
2, 127488, Note_off_c, 0, 76, 64
2, 127488, Note_off_c, 0, 64, 64
2, 127488, Note_on_c, 0, 62, 92
2, 127488, Note_on_c, 0, 77, 92
2, 127680, Note_off_c, 0, 77, 64
2, 127680, Note_on_c, 0, 70, 92
2, 127872, Note_off_c, 0, 70, 64
2, 127872, Note_on_c, 0, 77, 92
2, 128064, Note_off_c, 0, 77, 64
2, 128064, Note_on_c, 0, 70, 92
2, 128256, Note_off_c, 0, 70, 64
2, 128256, Note_off_c, 0, 62, 64
2, 128256, Note_on_c, 0, 64, 92
2, 128256, Note_on_c, 0, 76, 92
2, 128448, Note_off_c, 0, 76, 64
2, 128448, Note_on_c, 0, 70, 92
2, 128640, Note_off_c, 0, 70, 64
2, 128640, Note_on_c, 0, 76, 92
2, 128832, Note_off_c, 0, 76, 64
2, 128832, Note_on_c, 0, 70, 92
2, 129024, Note_off_c, 0, 70, 64
2, 129024, Note_off_c, 0, 64, 64
2, 129024, Note_on_c, 0, 64, 92
2, 129024, Note_on_c, 0, 76, 92
2, 129216, Note_off_c, 0, 76, 64
2, 129216, Note_on_c, 0, 69, 92
2, 129408, Note_off_c, 0, 69, 64
2, 129408, Note_on_c, 0, 76, 92
2, 129600, Note_off_c, 0, 76, 64
2, 129600, Note_off_c, 0, 64, 64
2, 129600, Note_on_c, 0, 65, 92
2, 129600, Note_on_c, 0, 69, 92
2, 129792, Note_off_c, 0, 69, 64
2, 129792, Note_off_c, 0, 65, 64
2, 129792, Note_on_c, 0, 64, 92
2, 129792, Note_on_c, 0, 68, 92
2, 129984, Note_off_c, 0, 68, 64
2, 129984, Note_off_c, 0, 64, 64
2, 129984, Note_on_c, 0, 64, 92
2, 130176, Note_off_c, 0, 64, 64
2, 130176, Note_on_c, 0, 69, 92
2, 130368, Note_off_c, 0, 69, 64
2, 130368, Note_on_c, 0, 64, 92
2, 130560, Note_off_c, 0, 64, 64
2, 130560, Note_on_c, 0, 62, 92
2, 130560, Note_on_c, 0, 65, 92
2, 130752, Note_off_c, 0, 65, 64
2, 130752, Note_on_c, 0, 69, 92
2, 130944, Note_off_c, 0, 69, 64
2, 130944, Note_off_c, 0, 62, 64
2, 130944, Note_on_c, 0, 62, 92
2, 130944, Note_on_c, 0, 64, 92
2, 131136, Note_off_c, 0, 64, 64
2, 131136, Note_on_c, 0, 68, 92
2, 131328, Note_off_c, 0, 68, 64
2, 131328, Note_off_c, 0, 62, 64
2, 131328, Note_on_c, 0, 60, 92
2, 131328, Note_on_c, 0, 64, 92
2, 131328, Note_on_c, 0, 69, 92
2, 131520, Note_off_c, 0, 69, 64
2, 131520, Note_off_c, 0, 64, 64
2, 131520, Note_off_c, 0, 60, 64
2, 131520, Note_on_c, 0, 69, 92
2, 131712, Note_off_c, 0, 69, 64
2, 131712, Note_on_c, 0, 69, 92
2, 131808, Note_off_c, 0, 69, 64
2, 131808, Note_on_c, 0, 71, 92
2, 131904, Note_off_c, 0, 71, 64
2, 131904, Note_on_c, 0, 69, 92
2, 132096, Note_off_c, 0, 69, 64
2, 132288, Note_on_c, 0, 71, 92
2, 132480, Note_off_c, 0, 71, 64
2, 132480, Note_on_c, 0, 71, 92
2, 132576, Note_off_c, 0, 71, 64
2, 132576, Note_on_c, 0, 72, 92
2, 132672, Note_off_c, 0, 72, 64
2, 132672, Note_on_c, 0, 71, 92
2, 132864, Note_off_c, 0, 71, 64
2, 133056, Note_on_c, 0, 72, 92
2, 133248, Note_off_c, 0, 72, 64
2, 133248, Note_on_c, 0, 72, 92
2, 133344, Note_off_c, 0, 72, 64
2, 133344, Note_on_c, 0, 74, 92
2, 133440, Note_off_c, 0, 74, 64
2, 133440, Note_on_c, 0, 72, 92
2, 133632, Note_off_c, 0, 72, 64
2, 133824, Note_on_c, 0, 74, 92
2, 134016, Note_off_c, 0, 74, 64
2, 134016, Note_on_c, 0, 74, 92
2, 134112, Note_off_c, 0, 74, 64
2, 134112, Note_on_c, 0, 76, 92
2, 134208, Note_off_c, 0, 76, 64
2, 134208, Note_on_c, 0, 74, 92
2, 134400, Note_off_c, 0, 74, 64
2, 134400, Note_on_c, 0, 76, 92
2, 134880, Note_off_c, 0, 76, 64
2, 134880, Note_on_c, 0, 74, 92
2, 134976, Note_off_c, 0, 74, 64
2, 134976, Note_on_c, 0, 76, 92
2, 135072, Note_off_c, 0, 76, 64
2, 135072, Note_on_c, 0, 77, 92
2, 135168, Note_off_c, 0, 77, 64
2, 135168, Note_on_c, 0, 74, 92
2, 135648, Note_off_c, 0, 74, 64
2, 135648, Note_on_c, 0, 72, 92
2, 135744, Note_off_c, 0, 72, 64
2, 135744, Note_on_c, 0, 74, 92
2, 135840, Note_off_c, 0, 74, 64
2, 135840, Note_on_c, 0, 76, 92
2, 135936, Note_off_c, 0, 76, 64
2, 135936, Note_on_c, 0, 72, 92
2, 136128, Note_off_c, 0, 72, 64
2, 136128, Note_on_c, 0, 71, 92
2, 136224, Note_off_c, 0, 71, 64
2, 136224, Note_on_c, 0, 69, 92
2, 136320, Note_off_c, 0, 69, 64
2, 136320, Note_on_c, 0, 68, 92
2, 136608, Note_off_c, 0, 68, 64
2, 136608, Note_on_c, 0, 69, 92
2, 136704, Note_off_c, 0, 69, 64
2, 136704, Note_on_c, 0, 69, 92
2, 137088, Note_off_c, 0, 69, 64
2, 137280, Note_on_c, 0, 64, 92
2, 137280, Note_on_c, 0, 76, 92
2, 137472, Note_off_c, 0, 76, 64
2, 137472, Note_off_c, 0, 64, 64
2, 137472, Note_on_c, 0, 62, 92
2, 137472, Note_on_c, 0, 77, 92
2, 137664, Note_off_c, 0, 77, 64
2, 137664, Note_on_c, 0, 70, 92
2, 137856, Note_off_c, 0, 70, 64
2, 137856, Note_on_c, 0, 77, 92
2, 138048, Note_off_c, 0, 77, 64
2, 138048, Note_on_c, 0, 70, 92
2, 138240, Note_off_c, 0, 70, 64
2, 138240, Note_off_c, 0, 62, 64
2, 138240, Note_on_c, 0, 64, 92
2, 138240, Note_on_c, 0, 76, 92
2, 138432, Note_off_c, 0, 76, 64
2, 138432, Note_on_c, 0, 70, 92
2, 138624, Note_off_c, 0, 70, 64
2, 138624, Note_on_c, 0, 76, 92
2, 138816, Note_off_c, 0, 76, 64
2, 138816, Note_on_c, 0, 70, 92
2, 139008, Note_off_c, 0, 70, 64
2, 139008, Note_off_c, 0, 64, 64
2, 139008, Note_on_c, 0, 64, 92
2, 139008, Note_on_c, 0, 76, 92
2, 139200, Note_off_c, 0, 76, 64
2, 139200, Note_on_c, 0, 69, 92
2, 139392, Note_off_c, 0, 69, 64
2, 139392, Note_on_c, 0, 76, 92
2, 139584, Note_off_c, 0, 76, 64
2, 139584, Note_off_c, 0, 64, 64
2, 139584, Note_on_c, 0, 65, 92
2, 139584, Note_on_c, 0, 69, 92
2, 139776, Note_off_c, 0, 69, 64
2, 139776, Note_off_c, 0, 65, 64
2, 139776, Note_on_c, 0, 68, 92
2, 139776, Note_on_c, 0, 64, 92
2, 139968, Note_off_c, 0, 64, 64
2, 139968, Note_off_c, 0, 68, 64
2, 139968, Note_on_c, 0, 64, 92
2, 140160, Note_off_c, 0, 64, 64
2, 140160, Note_on_c, 0, 69, 92
2, 140352, Note_off_c, 0, 69, 64
2, 140352, Note_on_c, 0, 64, 92
2, 140544, Note_off_c, 0, 64, 64
2, 140544, Note_on_c, 0, 62, 92
2, 140544, Note_on_c, 0, 65, 92
2, 140736, Note_off_c, 0, 65, 64
2, 140736, Note_on_c, 0, 69, 92
2, 140928, Note_off_c, 0, 69, 64
2, 140928, Note_off_c, 0, 62, 64
2, 140928, Note_on_c, 0, 62, 92
2, 140928, Note_on_c, 0, 64, 92
2, 141120, Note_off_c, 0, 64, 64
2, 141120, Note_on_c, 0, 68, 92
2, 141312, Note_off_c, 0, 68, 64
2, 141312, Note_off_c, 0, 62, 64
2, 141312, Note_on_c, 0, 60, 92
2, 141312, Note_on_c, 0, 64, 92
2, 141312, Note_on_c, 0, 69, 92
2, 142848, Note_off_c, 0, 69, 64
2, 142848, Note_off_c, 0, 64, 64
2, 142848, Note_off_c, 0, 60, 64
2, 144384, Note_on_c, 0, 74, 92
2, 144576, Note_off_c, 0, 74, 64
2, 144576, Note_on_c, 0, 62, 92
2, 144768, Note_off_c, 0, 62, 64
2, 144960, Note_on_c, 0, 74, 92
2, 145152, Note_off_c, 0, 74, 64
2, 145152, Note_on_c, 0, 74, 92
2, 145344, Note_off_c, 0, 74, 64
2, 145344, Note_on_c, 0, 72, 92
2, 145440, Note_off_c, 0, 72, 64
2, 145440, Note_on_c, 0, 70, 92
2, 145536, Note_off_c, 0, 70, 64
2, 145536, Note_on_c, 0, 72, 92
2, 145728, Note_off_c, 0, 72, 64
2, 145728, Note_on_c, 0, 60, 92
2, 145920, Note_off_c, 0, 60, 64
2, 146112, Note_on_c, 0, 72, 92
2, 146304, Note_off_c, 0, 72, 64
2, 146304, Note_on_c, 0, 72, 92
2, 146496, Note_off_c, 0, 72, 64
2, 146496, Note_on_c, 0, 70, 92
2, 146592, Note_off_c, 0, 70, 64
2, 146592, Note_on_c, 0, 69, 92
2, 146688, Note_off_c, 0, 69, 64
2, 146688, Note_on_c, 0, 70, 92
2, 146880, Note_off_c, 0, 70, 64
2, 146880, Note_on_c, 0, 58, 92
2, 147072, Note_off_c, 0, 58, 64
2, 147264, Note_on_c, 0, 70, 92
2, 147456, Note_off_c, 0, 70, 64
2, 147456, Note_on_c, 0, 70, 92
2, 147648, Note_off_c, 0, 70, 64
2, 147648, Note_on_c, 0, 69, 92
2, 147744, Note_off_c, 0, 69, 64
2, 147744, Note_on_c, 0, 67, 92
2, 147840, Note_off_c, 0, 67, 64
2, 147840, Note_on_c, 0, 69, 92
2, 148032, Note_off_c, 0, 69, 64
2, 148032, Note_on_c, 0, 57, 92
2, 148224, Note_off_c, 0, 57, 64
2, 148416, Note_on_c, 0, 69, 92
2, 148608, Note_off_c, 0, 69, 64
2, 148608, Note_on_c, 0, 69, 92
2, 148800, Note_off_c, 0, 69, 64
2, 148800, Note_on_c, 0, 57, 92
2, 148992, Note_off_c, 0, 57, 64
2, 148992, Note_on_c, 0, 74, 92
2, 149568, Note_off_c, 0, 74, 64
2, 149568, Note_on_c, 0, 74, 92
2, 149664, Note_off_c, 0, 74, 64
2, 149664, Note_on_c, 0, 76, 92
2, 149760, Note_off_c, 0, 76, 64
2, 149760, Note_on_c, 0, 77, 92
2, 149856, Note_off_c, 0, 77, 64
2, 149856, Note_on_c, 0, 74, 92
2, 149952, Note_off_c, 0, 74, 64
2, 149952, Note_on_c, 0, 76, 92
2, 150048, Note_off_c, 0, 76, 64
2, 150048, Note_on_c, 0, 77, 92
2, 150144, Note_off_c, 0, 77, 64
2, 150144, Note_on_c, 0, 76, 92
2, 150720, Note_off_c, 0, 76, 64
2, 150720, Note_on_c, 0, 76, 92
2, 150912, Note_off_c, 0, 76, 64
2, 150912, Note_on_c, 0, 77, 92
2, 151008, Note_off_c, 0, 77, 64
2, 151008, Note_on_c, 0, 76, 92
2, 151104, Note_off_c, 0, 76, 64
2, 151104, Note_on_c, 0, 74, 92
2, 151200, Note_off_c, 0, 74, 64
2, 151200, Note_on_c, 0, 73, 92
2, 151296, Note_off_c, 0, 73, 64
2, 151296, Note_on_c, 0, 74, 92
2, 151872, Note_off_c, 0, 74, 64
2, 151872, Note_on_c, 0, 76, 92
2, 151968, Note_off_c, 0, 76, 64
2, 151968, Note_on_c, 0, 77, 92
2, 152064, Note_off_c, 0, 77, 64
2, 152064, Note_on_c, 0, 79, 92
2, 152160, Note_off_c, 0, 79, 64
2, 152160, Note_on_c, 0, 76, 92
2, 152256, Note_off_c, 0, 76, 64
2, 152256, Note_on_c, 0, 77, 92
2, 152352, Note_off_c, 0, 77, 64
2, 152352, Note_on_c, 0, 74, 92
2, 152448, Note_off_c, 0, 74, 64
2, 152448, Note_on_c, 0, 73, 92
2, 152736, Note_off_c, 0, 73, 64
2, 152736, Note_on_c, 0, 71, 92
2, 152832, Note_off_c, 0, 71, 64
2, 152832, Note_on_c, 0, 69, 92
2, 153216, Note_off_c, 0, 69, 64
2, 153600, Note_on_c, 0, 62, 92
2, 154176, Note_off_c, 0, 62, 64
2, 154176, Note_on_c, 0, 62, 92
2, 154272, Note_off_c, 0, 62, 64
2, 154272, Note_on_c, 0, 64, 92
2, 154368, Note_off_c, 0, 64, 64
2, 154368, Note_on_c, 0, 65, 92
2, 154464, Note_off_c, 0, 65, 64
2, 154464, Note_on_c, 0, 62, 92
2, 154560, Note_off_c, 0, 62, 64
2, 154560, Note_on_c, 0, 64, 92
2, 154656, Note_off_c, 0, 64, 64
2, 154656, Note_on_c, 0, 65, 92
2, 154752, Note_off_c, 0, 65, 64
2, 154752, Note_on_c, 0, 64, 92
2, 155328, Note_off_c, 0, 64, 64
2, 155328, Note_on_c, 0, 64, 92
2, 155520, Note_off_c, 0, 64, 64
2, 155520, Note_on_c, 0, 65, 92
2, 155616, Note_off_c, 0, 65, 64
2, 155616, Note_on_c, 0, 64, 92
2, 155712, Note_off_c, 0, 64, 64
2, 155712, Note_on_c, 0, 62, 92
2, 155808, Note_off_c, 0, 62, 64
2, 155808, Note_on_c, 0, 61, 92
2, 155904, Note_off_c, 0, 61, 64
2, 155904, Note_on_c, 0, 62, 92
2, 156480, Note_off_c, 0, 62, 64
2, 156480, Note_on_c, 0, 64, 92
2, 156576, Note_off_c, 0, 64, 64
2, 156576, Note_on_c, 0, 65, 92
2, 156672, Note_off_c, 0, 65, 64
2, 156672, Note_on_c, 0, 67, 92
2, 156768, Note_off_c, 0, 67, 64
2, 156768, Note_on_c, 0, 64, 92
2, 156864, Note_off_c, 0, 64, 64
2, 156864, Note_on_c, 0, 65, 92
2, 156960, Note_off_c, 0, 65, 64
2, 156960, Note_on_c, 0, 62, 92
2, 157056, Note_off_c, 0, 62, 64
2, 157056, Note_on_c, 0, 61, 92
2, 157344, Note_off_c, 0, 61, 64
2, 157344, Note_on_c, 0, 59, 92
2, 157440, Note_off_c, 0, 59, 64
2, 157440, Note_on_c, 0, 57, 92
2, 157824, Note_off_c, 0, 57, 64
2, 158592, Note_on_c, 0, 77, 92
2, 159552, Note_off_c, 0, 77, 64
2, 159552, Note_on_c, 0, 76, 92
2, 159648, Note_off_c, 0, 76, 64
2, 159648, Note_on_c, 0, 77, 92
2, 159744, Note_off_c, 0, 77, 64
2, 159744, Note_on_c, 0, 82, 92
2, 159744, Note_on_c, 0, 79, 92
2, 159840, Note_off_c, 0, 79, 64
2, 159840, Note_on_c, 0, 77, 92
2, 159936, Note_off_c, 0, 77, 64
2, 159936, Note_on_c, 0, 76, 92
2, 160032, Note_off_c, 0, 76, 64
2, 160032, Note_on_c, 0, 74, 92
2, 160128, Note_off_c, 0, 74, 64
2, 160128, Note_on_c, 0, 79, 92
2, 160224, Note_off_c, 0, 79, 64
2, 160224, Note_on_c, 0, 77, 92
2, 160320, Note_off_c, 0, 77, 64
2, 160320, Note_on_c, 0, 76, 92
2, 160416, Note_off_c, 0, 76, 64
2, 160416, Note_on_c, 0, 74, 92
2, 160512, Note_off_c, 0, 74, 64
2, 160512, Note_on_c, 0, 76, 92
2, 160704, Note_off_c, 0, 82, 64
2, 160704, Note_on_c, 0, 81, 92
2, 160800, Note_off_c, 0, 81, 64
2, 160800, Note_on_c, 0, 82, 92
2, 160896, Note_off_c, 0, 82, 64
2, 160896, Note_on_c, 0, 84, 92
2, 160992, Note_off_c, 0, 84, 64
2, 160992, Note_on_c, 0, 82, 92
2, 161088, Note_off_c, 0, 82, 64
2, 161088, Note_on_c, 0, 81, 92
2, 161184, Note_off_c, 0, 81, 64
2, 161184, Note_on_c, 0, 79, 92
2, 161280, Note_off_c, 0, 79, 64
2, 161280, Note_on_c, 0, 84, 92
2, 161376, Note_off_c, 0, 84, 64
2, 161376, Note_on_c, 0, 82, 92
2, 161472, Note_off_c, 0, 82, 64
2, 161472, Note_on_c, 0, 81, 92
2, 161568, Note_off_c, 0, 81, 64
2, 161568, Note_on_c, 0, 79, 92
2, 161664, Note_off_c, 0, 79, 64
2, 161664, Note_on_c, 0, 81, 92
2, 161856, Note_off_c, 0, 76, 64
2, 161856, Note_on_c, 0, 74, 92
2, 161952, Note_off_c, 0, 74, 64
2, 161952, Note_on_c, 0, 76, 92
2, 162048, Note_off_c, 0, 76, 64
2, 162048, Note_on_c, 0, 77, 92
2, 162144, Note_off_c, 0, 77, 64
2, 162144, Note_on_c, 0, 76, 92
2, 162240, Note_off_c, 0, 76, 64
2, 162240, Note_on_c, 0, 79, 92
2, 162336, Note_off_c, 0, 79, 64
2, 162336, Note_on_c, 0, 76, 92
2, 162432, Note_off_c, 0, 76, 64
2, 162432, Note_on_c, 0, 77, 92
2, 162528, Note_off_c, 0, 77, 64
2, 162528, Note_on_c, 0, 74, 92
2, 162624, Note_off_c, 0, 74, 64
2, 162624, Note_on_c, 0, 76, 92
2, 162720, Note_off_c, 0, 76, 64
2, 162720, Note_on_c, 0, 73, 92
2, 162816, Note_off_c, 0, 73, 64
2, 162816, Note_on_c, 0, 74, 92
2, 163008, Note_off_c, 0, 81, 64
2, 163008, Note_on_c, 0, 79, 92
2, 163104, Note_off_c, 0, 79, 64
2, 163104, Note_on_c, 0, 81, 92
2, 163200, Note_off_c, 0, 81, 64
2, 163200, Note_on_c, 0, 82, 92
2, 163296, Note_off_c, 0, 82, 64
2, 163296, Note_on_c, 0, 81, 92
2, 163392, Note_off_c, 0, 81, 64
2, 163392, Note_on_c, 0, 84, 92
2, 163488, Note_off_c, 0, 84, 64
2, 163488, Note_on_c, 0, 81, 92
2, 163584, Note_off_c, 0, 81, 64
2, 163584, Note_on_c, 0, 82, 92
2, 163680, Note_off_c, 0, 82, 64
2, 163680, Note_on_c, 0, 79, 92
2, 163776, Note_off_c, 0, 79, 64
2, 163776, Note_on_c, 0, 81, 92
2, 163872, Note_off_c, 0, 81, 64
2, 163872, Note_on_c, 0, 78, 92
2, 163968, Note_off_c, 0, 78, 64
2, 163968, Note_on_c, 0, 79, 92
2, 164160, Note_off_c, 0, 74, 64
2, 164160, Note_on_c, 0, 76, 92
2, 164256, Note_off_c, 0, 76, 64
2, 164256, Note_off_c, 0, 79, 64
2, 164256, Note_on_c, 0, 81, 92
2, 164256, Note_on_c, 0, 77, 92
2, 164352, Note_off_c, 0, 77, 64
2, 164352, Note_off_c, 0, 81, 64
2, 164352, Note_on_c, 0, 82, 92
2, 164352, Note_on_c, 0, 79, 92
2, 164448, Note_off_c, 0, 79, 64
2, 164448, Note_off_c, 0, 82, 64
2, 164448, Note_on_c, 0, 81, 92
2, 164448, Note_on_c, 0, 84, 92
2, 164544, Note_off_c, 0, 84, 64
2, 164544, Note_off_c, 0, 81, 64
2, 164544, Note_on_c, 0, 82, 92
2, 164544, Note_on_c, 0, 79, 92
2, 164640, Note_off_c, 0, 79, 64
2, 164640, Note_off_c, 0, 82, 64
2, 164640, Note_on_c, 0, 77, 92
2, 164640, Note_on_c, 0, 81, 92
2, 164736, Note_off_c, 0, 81, 64
2, 164736, Note_off_c, 0, 77, 64
2, 164736, Note_on_c, 0, 76, 92
2, 164736, Note_on_c, 0, 79, 92
2, 164832, Note_off_c, 0, 79, 64
2, 164832, Note_off_c, 0, 76, 64
2, 164832, Note_on_c, 0, 77, 92
2, 164832, Note_on_c, 0, 81, 92
2, 164928, Note_off_c, 0, 81, 64
2, 164928, Note_off_c, 0, 77, 64
2, 164928, Note_on_c, 0, 76, 92
2, 164928, Note_on_c, 0, 79, 92
2, 165024, Note_off_c, 0, 79, 64
2, 165024, Note_off_c, 0, 76, 64
2, 165024, Note_on_c, 0, 74, 92
2, 165024, Note_on_c, 0, 77, 92
2, 165120, Note_off_c, 0, 77, 64
2, 165120, Note_off_c, 0, 74, 64
2, 165120, Note_on_c, 0, 73, 92
2, 165120, Note_on_c, 0, 76, 92
2, 165312, Note_off_c, 0, 76, 64
2, 165312, Note_off_c, 0, 73, 64
2, 165312, Note_on_c, 0, 76, 92
2, 165312, Note_on_c, 0, 79, 92
2, 165408, Note_off_c, 0, 79, 64
2, 165408, Note_off_c, 0, 76, 64
2, 165408, Note_on_c, 0, 74, 92
2, 165408, Note_on_c, 0, 77, 92
2, 165504, Note_off_c, 0, 77, 64
2, 165504, Note_off_c, 0, 74, 64
2, 165504, Note_on_c, 0, 73, 92
2, 165504, Note_on_c, 0, 76, 92
2, 165696, Note_off_c, 0, 76, 64
2, 165696, Note_off_c, 0, 73, 64
2, 165696, Note_on_c, 0, 73, 92
2, 165696, Note_on_c, 0, 76, 92
2, 165888, Note_off_c, 0, 76, 64
2, 165888, Note_off_c, 0, 73, 64
2, 165888, Note_on_c, 0, 73, 92
2, 165888, Note_on_c, 0, 76, 92
2, 166176, Note_off_c, 0, 76, 64
2, 166176, Note_on_c, 0, 74, 92
2, 166224, Note_off_c, 0, 74, 64
2, 166224, Note_on_c, 0, 76, 92
2, 166272, Note_off_c, 0, 76, 64
2, 166272, Note_off_c, 0, 73, 64
2, 166272, Note_on_c, 0, 74, 92
2, 166272, Note_on_c, 0, 77, 92
2, 166464, Note_off_c, 0, 77, 64
2, 166464, Note_on_c, 0, 81, 92
2, 166560, Note_off_c, 0, 81, 64
2, 166560, Note_on_c, 0, 79, 92
2, 166656, Note_off_c, 0, 79, 64
2, 166656, Note_off_c, 0, 74, 64
2, 166656, Note_on_c, 0, 79, 92
2, 166752, Note_off_c, 0, 79, 64
2, 166752, Note_on_c, 0, 77, 92
2, 166848, Note_off_c, 0, 77, 64
2, 166848, Note_on_c, 0, 76, 92
2, 166944, Note_off_c, 0, 76, 64
2, 166944, Note_on_c, 0, 74, 92
2, 167040, Note_off_c, 0, 74, 64
2, 167040, Note_on_c, 0, 82, 92
2, 167136, Note_off_c, 0, 82, 64
2, 167136, Note_on_c, 0, 81, 92
2, 167232, Note_off_c, 0, 81, 64
2, 167232, Note_on_c, 0, 80, 92
2, 167328, Note_off_c, 0, 80, 64
2, 167328, Note_on_c, 0, 81, 92
2, 167424, Note_off_c, 0, 81, 64
2, 167424, Note_on_c, 0, 81, 92
2, 167616, Note_off_c, 0, 81, 64
2, 167616, Note_on_c, 0, 80, 92
2, 168000, Note_off_c, 0, 80, 64
2, 168000, Note_on_c, 0, 81, 92
2, 168096, Note_off_c, 0, 81, 64
2, 168096, Note_on_c, 0, 80, 92
2, 168192, Note_off_c, 0, 80, 64
2, 168192, Note_on_c, 0, 78, 92
2, 168288, Note_off_c, 0, 78, 64
2, 168288, Note_on_c, 0, 76, 92
2, 168384, Note_off_c, 0, 76, 64
2, 168384, Note_on_c, 0, 78, 92
2, 168480, Note_off_c, 0, 78, 64
2, 168480, Note_on_c, 0, 80, 92
2, 168576, Note_off_c, 0, 80, 64
2, 168576, Note_on_c, 0, 81, 92
2, 168768, Note_off_c, 0, 81, 64
2, 168768, Note_on_c, 0, 72, 92
2, 168768, Note_on_c, 0, 76, 92
2, 168960, Note_off_c, 0, 76, 64
2, 168960, Note_off_c, 0, 72, 64
2, 168960, Note_on_c, 0, 72, 92
2, 168960, Note_on_c, 0, 76, 92
2, 169056, Note_off_c, 0, 76, 64
2, 169056, Note_off_c, 0, 72, 64
2, 169056, Note_on_c, 0, 74, 92
2, 169056, Note_on_c, 0, 77, 92
2, 169152, Note_off_c, 0, 77, 64
2, 169152, Note_off_c, 0, 74, 64
2, 169152, Note_on_c, 0, 72, 92
2, 169152, Note_on_c, 0, 76, 92
2, 169248, Note_off_c, 0, 76, 64
2, 169248, Note_off_c, 0, 72, 64
2, 169248, Note_on_c, 0, 74, 92
2, 169248, Note_on_c, 0, 77, 92
2, 169344, Note_off_c, 0, 77, 64
2, 169344, Note_off_c, 0, 74, 64
2, 169344, Note_on_c, 0, 72, 92
2, 169344, Note_on_c, 0, 76, 92
2, 169440, Note_off_c, 0, 76, 64
2, 169440, Note_off_c, 0, 72, 64
2, 169440, Note_on_c, 0, 74, 92
2, 169440, Note_on_c, 0, 77, 92
2, 169536, Note_off_c, 0, 77, 64
2, 169536, Note_off_c, 0, 74, 64
2, 169536, Note_on_c, 0, 72, 92
2, 169536, Note_on_c, 0, 76, 92
2, 169632, Note_off_c, 0, 76, 64
2, 169632, Note_off_c, 0, 72, 64
2, 169632, Note_on_c, 0, 74, 92
2, 169632, Note_on_c, 0, 77, 92
2, 169728, Note_off_c, 0, 77, 64
2, 169728, Note_off_c, 0, 74, 64
2, 169728, Note_on_c, 0, 72, 92
2, 169728, Note_on_c, 0, 76, 92
2, 169920, Note_off_c, 0, 76, 64
2, 169920, Note_off_c, 0, 72, 64
2, 169920, Note_on_c, 0, 71, 92
2, 169920, Note_on_c, 0, 74, 92
2, 170016, Note_off_c, 0, 74, 64
2, 170016, Note_off_c, 0, 71, 64
2, 170016, Note_on_c, 0, 69, 92
2, 170016, Note_on_c, 0, 72, 92
2, 170112, Note_off_c, 0, 72, 64
2, 170112, Note_off_c, 0, 69, 64
2, 170112, Note_on_c, 0, 69, 92
2, 170112, Note_on_c, 0, 72, 92
2, 170496, Note_off_c, 0, 72, 64
2, 170496, Note_off_c, 0, 69, 64
2, 170496, Note_on_c, 0, 71, 92
2, 170496, Note_on_c, 0, 68, 92
2, 170784, Note_off_c, 0, 71, 64
2, 170784, Note_on_c, 0, 69, 92
2, 170880, Note_off_c, 0, 69, 64
2, 170880, Note_off_c, 0, 68, 64
2, 170880, Note_on_c, 0, 69, 92
2, 171264, Note_off_c, 0, 69, 64
2, 172416, Note_on_c, 0, 77, 92
2, 173376, Note_off_c, 0, 77, 64
2, 173376, Note_on_c, 0, 76, 92
2, 173472, Note_off_c, 0, 76, 64
2, 173472, Note_on_c, 0, 77, 92
2, 173568, Note_off_c, 0, 77, 64
2, 173568, Note_on_c, 0, 79, 92
2, 173568, Note_on_c, 0, 70, 92
2, 173664, Note_off_c, 0, 79, 64
2, 173664, Note_on_c, 0, 77, 92
2, 173760, Note_off_c, 0, 77, 64
2, 173760, Note_on_c, 0, 76, 92
2, 173856, Note_off_c, 0, 76, 64
2, 173856, Note_on_c, 0, 74, 92
2, 173952, Note_off_c, 0, 74, 64
2, 173952, Note_on_c, 0, 79, 92
2, 174048, Note_off_c, 0, 79, 64
2, 174048, Note_on_c, 0, 77, 92
2, 174144, Note_off_c, 0, 77, 64
2, 174144, Note_on_c, 0, 76, 92
2, 174240, Note_off_c, 0, 76, 64
2, 174240, Note_on_c, 0, 74, 92
2, 174336, Note_off_c, 0, 74, 64
2, 174336, Note_on_c, 0, 76, 92
2, 174528, Note_off_c, 0, 70, 64
2, 174528, Note_on_c, 0, 69, 92
2, 174624, Note_off_c, 0, 69, 64
2, 174624, Note_on_c, 0, 70, 92
2, 174720, Note_off_c, 0, 70, 64
2, 174720, Note_on_c, 0, 72, 92
2, 174816, Note_off_c, 0, 72, 64
2, 174816, Note_on_c, 0, 70, 92
2, 174912, Note_off_c, 0, 70, 64
2, 174912, Note_on_c, 0, 69, 92
2, 175008, Note_off_c, 0, 69, 64
2, 175008, Note_on_c, 0, 67, 92
2, 175104, Note_off_c, 0, 67, 64
2, 175104, Note_on_c, 0, 72, 92
2, 175200, Note_off_c, 0, 72, 64
2, 175200, Note_on_c, 0, 70, 92
2, 175296, Note_off_c, 0, 70, 64
2, 175296, Note_on_c, 0, 69, 92
2, 175392, Note_off_c, 0, 69, 64
2, 175392, Note_on_c, 0, 67, 92
2, 175488, Note_off_c, 0, 67, 64
2, 175488, Note_on_c, 0, 69, 92
2, 175680, Note_off_c, 0, 76, 64
2, 175680, Note_on_c, 0, 74, 92
2, 175776, Note_off_c, 0, 74, 64
2, 175776, Note_on_c, 0, 76, 92
2, 175872, Note_off_c, 0, 76, 64
2, 175872, Note_on_c, 0, 77, 92
2, 175968, Note_off_c, 0, 77, 64
2, 175968, Note_on_c, 0, 79, 92
2, 176064, Note_off_c, 0, 79, 64
2, 176064, Note_on_c, 0, 81, 92
2, 176160, Note_off_c, 0, 81, 64
2, 176160, Note_on_c, 0, 79, 92
2, 176256, Note_off_c, 0, 79, 64
2, 176256, Note_on_c, 0, 77, 92
2, 176352, Note_off_c, 0, 77, 64
2, 176352, Note_on_c, 0, 76, 92
2, 176448, Note_off_c, 0, 76, 64
2, 176448, Note_on_c, 0, 74, 92
2, 176544, Note_off_c, 0, 74, 64
2, 176544, Note_on_c, 0, 73, 92
2, 176640, Note_off_c, 0, 73, 64
2, 176640, Note_on_c, 0, 74, 92
2, 176832, Note_off_c, 0, 69, 64
2, 176832, Note_on_c, 0, 67, 92
2, 176928, Note_off_c, 0, 67, 64
2, 176928, Note_on_c, 0, 69, 92
2, 177024, Note_off_c, 0, 69, 64
2, 177024, Note_on_c, 0, 70, 92
2, 177120, Note_off_c, 0, 70, 64
2, 177120, Note_on_c, 0, 72, 92
2, 177216, Note_off_c, 0, 72, 64
2, 177216, Note_off_c, 0, 74, 64
2, 177216, Note_on_c, 0, 74, 92
2, 177312, Note_on_c, 0, 72, 92
2, 177408, Note_off_c, 0, 72, 64
2, 177408, Note_on_c, 0, 70, 92
2, 177504, Note_off_c, 0, 70, 64
2, 177504, Note_on_c, 0, 69, 92
2, 177600, Note_off_c, 0, 69, 64
2, 177600, Note_on_c, 0, 67, 92
2, 177696, Note_off_c, 0, 67, 64
2, 177696, Note_on_c, 0, 66, 92
2, 177792, Note_off_c, 0, 66, 64
2, 177792, Note_on_c, 0, 67, 92
2, 177984, Note_off_c, 0, 74, 64
2, 177984, Note_on_c, 0, 76, 92
2, 178080, Note_off_c, 0, 76, 64
2, 178080, Note_off_c, 0, 67, 64
2, 178080, Note_on_c, 0, 69, 92
2, 178080, Note_on_c, 0, 77, 92
2, 178176, Note_off_c, 0, 77, 64
2, 178176, Note_off_c, 0, 69, 64
2, 178176, Note_on_c, 0, 70, 92
2, 178176, Note_on_c, 0, 79, 92
2, 178272, Note_off_c, 0, 79, 64
2, 178272, Note_off_c, 0, 70, 64
2, 178272, Note_on_c, 0, 72, 92
2, 178272, Note_on_c, 0, 81, 92
2, 178368, Note_off_c, 0, 81, 64
2, 178368, Note_off_c, 0, 72, 64
2, 178368, Note_on_c, 0, 70, 92
2, 178368, Note_on_c, 0, 79, 92
2, 178464, Note_off_c, 0, 79, 64
2, 178464, Note_off_c, 0, 70, 64
2, 178464, Note_on_c, 0, 69, 92
2, 178464, Note_on_c, 0, 77, 92
2, 178560, Note_off_c, 0, 77, 64
2, 178560, Note_off_c, 0, 69, 64
2, 178560, Note_on_c, 0, 67, 92
2, 178560, Note_on_c, 0, 76, 92
2, 178656, Note_off_c, 0, 76, 64
2, 178656, Note_off_c, 0, 67, 64
2, 178656, Note_on_c, 0, 69, 92
2, 178656, Note_on_c, 0, 77, 92
2, 178752, Note_off_c, 0, 77, 64
2, 178752, Note_off_c, 0, 69, 64
2, 178752, Note_on_c, 0, 67, 92
2, 178752, Note_on_c, 0, 76, 92
2, 178848, Note_off_c, 0, 76, 64
2, 178848, Note_off_c, 0, 67, 64
2, 178848, Note_on_c, 0, 65, 92
2, 178848, Note_on_c, 0, 74, 92
2, 178944, Note_off_c, 0, 74, 64
2, 178944, Note_off_c, 0, 65, 64
2, 178944, Note_on_c, 0, 74, 92
2, 178944, Note_on_c, 0, 64, 92
2, 179136, Note_off_c, 0, 74, 64
2, 179136, Note_on_c, 0, 73, 92
2, 179328, Note_off_c, 0, 73, 64
2, 179328, Note_off_c, 0, 64, 64
2, 179520, Note_on_c, 0, 73, 92
2, 179520, Note_on_c, 0, 76, 92
2, 179712, Note_off_c, 0, 76, 64
2, 179712, Note_off_c, 0, 73, 64
2, 179712, Note_on_c, 0, 74, 92
2, 179712, Note_on_c, 0, 77, 92
2, 179808, Note_off_c, 0, 77, 64
2, 179808, Note_off_c, 0, 74, 64
2, 179808, Note_on_c, 0, 73, 92
2, 179808, Note_on_c, 0, 76, 92
2, 179904, Note_off_c, 0, 76, 64
2, 179904, Note_off_c, 0, 73, 64
2, 179904, Note_on_c, 0, 74, 92
2, 179904, Note_on_c, 0, 77, 92
2, 180000, Note_off_c, 0, 77, 64
2, 180000, Note_off_c, 0, 74, 64
2, 180000, Note_on_c, 0, 76, 92
2, 180000, Note_on_c, 0, 79, 92
2, 180096, Note_off_c, 0, 79, 64
2, 180096, Note_off_c, 0, 76, 64
2, 180096, Note_on_c, 0, 73, 92
2, 180096, Note_on_c, 0, 76, 92
2, 180192, Note_off_c, 0, 76, 64
2, 180192, Note_off_c, 0, 73, 64
2, 180192, Note_on_c, 0, 71, 92
2, 180192, Note_on_c, 0, 74, 92
2, 180288, Note_off_c, 0, 74, 64
2, 180288, Note_off_c, 0, 71, 64
2, 180288, Note_on_c, 0, 73, 92
2, 180288, Note_on_c, 0, 76, 92
2, 180480, Note_off_c, 0, 76, 64
2, 180480, Note_off_c, 0, 73, 64
2, 180672, Note_on_c, 0, 64, 92
2, 180672, Note_on_c, 0, 73, 92
2, 180864, Note_off_c, 0, 73, 64
2, 180864, Note_off_c, 0, 64, 64
2, 180864, Note_on_c, 0, 65, 92
2, 180864, Note_on_c, 0, 74, 92
2, 180960, Note_off_c, 0, 74, 64
2, 180960, Note_off_c, 0, 65, 64
2, 180960, Note_on_c, 0, 64, 92
2, 180960, Note_on_c, 0, 73, 92
2, 181056, Note_off_c, 0, 73, 64
2, 181056, Note_off_c, 0, 64, 64
2, 181056, Note_on_c, 0, 65, 92
2, 181056, Note_on_c, 0, 74, 92
2, 181152, Note_off_c, 0, 74, 64
2, 181152, Note_off_c, 0, 65, 64
2, 181152, Note_on_c, 0, 67, 92
2, 181152, Note_on_c, 0, 76, 92
2, 181248, Note_off_c, 0, 76, 64
2, 181248, Note_off_c, 0, 67, 64
2, 181248, Note_on_c, 0, 73, 92
2, 181248, Note_on_c, 0, 64, 92
2, 181344, Note_off_c, 0, 64, 64
2, 181344, Note_off_c, 0, 73, 64
2, 181344, Note_on_c, 0, 71, 92
2, 181344, Note_on_c, 0, 62, 92
2, 181440, Note_off_c, 0, 62, 64
2, 181440, Note_off_c, 0, 71, 64
2, 181440, Note_on_c, 0, 64, 92
2, 181440, Note_on_c, 0, 73, 92
2, 181632, Note_off_c, 0, 73, 64
2, 181632, Note_off_c, 0, 64, 64
2, 181824, Note_on_c, 0, 73, 92
2, 181824, Note_on_c, 0, 76, 92
2, 182016, Note_off_c, 0, 76, 64
2, 182016, Note_off_c, 0, 73, 64
2, 182016, Note_on_c, 0, 77, 92
2, 182016, Note_on_c, 0, 74, 92
2, 182112, Note_off_c, 0, 74, 64
2, 182112, Note_off_c, 0, 77, 64
2, 182112, Note_on_c, 0, 76, 92
2, 182112, Note_on_c, 0, 73, 92
2, 182208, Note_off_c, 0, 73, 64
2, 182208, Note_off_c, 0, 76, 64
2, 182208, Note_on_c, 0, 77, 92
2, 182208, Note_on_c, 0, 74, 92
2, 182304, Note_off_c, 0, 74, 64
2, 182304, Note_off_c, 0, 77, 64
2, 182304, Note_on_c, 0, 79, 92
2, 182304, Note_on_c, 0, 76, 92
2, 182400, Note_off_c, 0, 76, 64
2, 182400, Note_off_c, 0, 79, 64
2, 182400, Note_on_c, 0, 73, 92
2, 182400, Note_on_c, 0, 76, 92
2, 182688, Note_off_c, 0, 76, 64
2, 182688, Note_off_c, 0, 73, 64
2, 182688, Note_on_c, 0, 74, 92
2, 182688, Note_on_c, 0, 77, 92
2, 182784, Note_off_c, 0, 77, 64
2, 182784, Note_off_c, 0, 74, 64
2, 182784, Note_on_c, 0, 73, 92
2, 182784, Note_on_c, 0, 76, 92
2, 183072, Note_off_c, 0, 76, 64
2, 183072, Note_off_c, 0, 73, 64
2, 183072, Note_on_c, 0, 74, 92
2, 183072, Note_on_c, 0, 77, 92
2, 183168, Note_off_c, 0, 77, 64
2, 183168, Note_off_c, 0, 74, 64
2, 183168, Note_on_c, 0, 73, 92
2, 183168, Note_on_c, 0, 76, 92
2, 183456, Note_off_c, 0, 76, 64
2, 183456, Note_off_c, 0, 73, 64
2, 183456, Note_on_c, 0, 74, 92
2, 183456, Note_on_c, 0, 77, 92
2, 183552, Note_off_c, 0, 77, 64
2, 183552, Note_off_c, 0, 74, 64
2, 183552, Note_on_c, 0, 76, 92
2, 183552, Note_on_c, 0, 79, 92
2, 184128, Note_off_c, 0, 79, 64
2, 184128, Note_off_c, 0, 76, 64
2, 184128, Note_on_c, 0, 77, 92
2, 184128, Note_on_c, 0, 81, 92
2, 184224, Note_off_c, 0, 81, 64
2, 184224, Note_off_c, 0, 77, 64
2, 184224, Note_on_c, 0, 76, 92
2, 184224, Note_on_c, 0, 79, 92
2, 184320, Note_off_c, 0, 79, 64
2, 184320, Note_off_c, 0, 76, 64
2, 184320, Note_on_c, 0, 77, 92
2, 184320, Note_on_c, 0, 81, 92
2, 184416, Note_off_c, 0, 81, 64
2, 184416, Note_off_c, 0, 77, 64
2, 184416, Note_on_c, 0, 76, 92
2, 184416, Note_on_c, 0, 79, 92
2, 184512, Note_off_c, 0, 79, 64
2, 184512, Note_off_c, 0, 76, 64
2, 184512, Note_on_c, 0, 74, 92
2, 184512, Note_on_c, 0, 77, 92
2, 184608, Note_off_c, 0, 77, 64
2, 184608, Note_off_c, 0, 74, 64
2, 184608, Note_on_c, 0, 73, 92
2, 184608, Note_on_c, 0, 76, 92
2, 184704, Note_off_c, 0, 76, 64
2, 184704, Note_off_c, 0, 73, 64
2, 184704, Note_on_c, 0, 74, 92
2, 184704, Note_on_c, 0, 77, 92
2, 184896, Note_off_c, 0, 77, 64
2, 184896, Note_off_c, 0, 74, 64
2, 184896, Note_on_c, 0, 76, 92
2, 184896, Note_on_c, 0, 79, 92
2, 184992, Note_off_c, 0, 79, 64
2, 184992, Note_off_c, 0, 76, 64
2, 184992, Note_on_c, 0, 77, 92
2, 184992, Note_on_c, 0, 81, 92
2, 185088, Note_off_c, 0, 81, 64
2, 185088, Note_off_c, 0, 77, 64
2, 185088, Note_on_c, 0, 74, 92
2, 185088, Note_on_c, 0, 77, 92
2, 185472, Note_off_c, 0, 77, 64
2, 185472, Note_off_c, 0, 74, 64
2, 185472, Note_on_c, 0, 76, 92
2, 185472, Note_on_c, 0, 73, 92
2, 185760, Note_off_c, 0, 76, 64
2, 185760, Note_on_c, 0, 74, 92
2, 185856, Note_off_c, 0, 74, 64
2, 185856, Note_off_c, 0, 73, 64
2, 185856, Note_on_c, 0, 74, 92
2, 186240, Note_off_c, 0, 74, 64
2, 186432, Note_on_c, 0, 64, 92
2, 186432, Note_on_c, 0, 73, 92
2, 186624, Note_off_c, 0, 73, 64
2, 186624, Note_off_c, 0, 64, 64
2, 186624, Note_on_c, 0, 65, 92
2, 186624, Note_on_c, 0, 74, 92
2, 186720, Note_off_c, 0, 74, 64
2, 186720, Note_off_c, 0, 65, 64
2, 186720, Note_on_c, 0, 64, 92
2, 186720, Note_on_c, 0, 73, 92
2, 186816, Note_off_c, 0, 73, 64
2, 186816, Note_off_c, 0, 64, 64
2, 186816, Note_on_c, 0, 65, 92
2, 186816, Note_on_c, 0, 74, 92
2, 186912, Note_off_c, 0, 74, 64
2, 186912, Note_off_c, 0, 65, 64
2, 186912, Note_on_c, 0, 67, 92
2, 186912, Note_on_c, 0, 76, 92
2, 187008, Note_off_c, 0, 76, 64
2, 187008, Note_off_c, 0, 67, 64
2, 187008, Note_on_c, 0, 64, 92
2, 187008, Note_on_c, 0, 73, 92
2, 187296, Note_off_c, 0, 73, 64
2, 187296, Note_off_c, 0, 64, 64
2, 187296, Note_on_c, 0, 65, 92
2, 187296, Note_on_c, 0, 74, 92
2, 187392, Note_off_c, 0, 74, 64
2, 187392, Note_off_c, 0, 65, 64
2, 187392, Note_on_c, 0, 64, 92
2, 187392, Note_on_c, 0, 73, 92
2, 187680, Note_off_c, 0, 73, 64
2, 187680, Note_off_c, 0, 64, 64
2, 187680, Note_on_c, 0, 65, 92
2, 187680, Note_on_c, 0, 74, 92
2, 187776, Note_off_c, 0, 74, 64
2, 187776, Note_off_c, 0, 65, 64
2, 187776, Note_on_c, 0, 64, 92
2, 187776, Note_on_c, 0, 73, 92
2, 188064, Note_off_c, 0, 73, 64
2, 188064, Note_off_c, 0, 64, 64
2, 188064, Note_on_c, 0, 65, 92
2, 188064, Note_on_c, 0, 74, 92
2, 188160, Note_off_c, 0, 74, 64
2, 188160, Note_off_c, 0, 65, 64
2, 188160, Note_on_c, 0, 67, 92
2, 188160, Note_on_c, 0, 76, 92
2, 188736, Note_off_c, 0, 76, 64
2, 188736, Note_off_c, 0, 67, 64
2, 188736, Note_on_c, 0, 69, 92
2, 188736, Note_on_c, 0, 77, 92
2, 188832, Note_off_c, 0, 77, 64
2, 188832, Note_off_c, 0, 69, 64
2, 188832, Note_on_c, 0, 67, 92
2, 188832, Note_on_c, 0, 76, 92
2, 188928, Note_off_c, 0, 76, 64
2, 188928, Note_off_c, 0, 67, 64
2, 188928, Note_on_c, 0, 69, 92
2, 188928, Note_on_c, 0, 77, 92
2, 189024, Note_off_c, 0, 77, 64
2, 189024, Note_off_c, 0, 69, 64
2, 189024, Note_on_c, 0, 67, 92
2, 189024, Note_on_c, 0, 76, 92
2, 189120, Note_off_c, 0, 76, 64
2, 189120, Note_off_c, 0, 67, 64
2, 189120, Note_on_c, 0, 65, 92
2, 189120, Note_on_c, 0, 74, 92
2, 189216, Note_off_c, 0, 74, 64
2, 189216, Note_off_c, 0, 65, 64
2, 189216, Note_on_c, 0, 64, 92
2, 189216, Note_on_c, 0, 73, 92
2, 189312, Note_off_c, 0, 73, 64
2, 189312, Note_off_c, 0, 64, 64
2, 189312, Note_on_c, 0, 65, 92
2, 189312, Note_on_c, 0, 74, 92
2, 189504, Note_off_c, 0, 74, 64
2, 189504, Note_off_c, 0, 65, 64
2, 189504, Note_on_c, 0, 67, 92
2, 189504, Note_on_c, 0, 76, 92
2, 189600, Note_off_c, 0, 76, 64
2, 189600, Note_off_c, 0, 67, 64
2, 189600, Note_on_c, 0, 69, 92
2, 189600, Note_on_c, 0, 77, 92
2, 189696, Note_off_c, 0, 77, 64
2, 189696, Note_off_c, 0, 69, 64
2, 189696, Note_on_c, 0, 65, 92
2, 189696, Note_on_c, 0, 74, 92
2, 190080, Note_off_c, 0, 74, 64
2, 190080, Note_off_c, 0, 65, 64
2, 190080, Note_on_c, 0, 64, 92
2, 190080, Note_on_c, 0, 73, 92
2, 190368, Note_off_c, 0, 64, 64
2, 190368, Note_on_c, 0, 62, 92
2, 190464, Note_off_c, 0, 62, 64
2, 190464, Note_off_c, 0, 73, 64
2, 190464, Note_on_c, 0, 62, 92
2, 190464, Note_on_c, 0, 74, 92
2, 190848, Note_off_c, 0, 74, 64
2, 190848, Note_off_c, 0, 62, 64
2, 191040, Note_on_c, 0, 74, 92
2, 191232, Note_off_c, 0, 74, 64
2, 191232, Note_on_c, 0, 74, 92
2, 191424, Note_off_c, 0, 74, 64
2, 191424, Note_on_c, 0, 72, 92
2, 191520, Note_off_c, 0, 72, 64
2, 191520, Note_on_c, 0, 70, 92
2, 191616, Note_off_c, 0, 70, 64
2, 191616, Note_on_c, 0, 72, 92
2, 191808, Note_off_c, 0, 72, 64
2, 191808, Note_on_c, 0, 60, 92
2, 192000, Note_off_c, 0, 60, 64
2, 192192, Note_on_c, 0, 72, 92
2, 192384, Note_off_c, 0, 72, 64
2, 192384, Note_on_c, 0, 72, 92
2, 192576, Note_off_c, 0, 72, 64
2, 192576, Note_on_c, 0, 70, 92
2, 192672, Note_off_c, 0, 70, 64
2, 192672, Note_on_c, 0, 69, 92
2, 192768, Note_off_c, 0, 69, 64
2, 192768, Note_on_c, 0, 70, 92
2, 192960, Note_off_c, 0, 70, 64
2, 192960, Note_on_c, 0, 58, 92
2, 193152, Note_off_c, 0, 58, 64
2, 193344, Note_on_c, 0, 70, 92
2, 193536, Note_off_c, 0, 70, 64
2, 193536, Note_on_c, 0, 70, 92
2, 193728, Note_off_c, 0, 70, 64
2, 193728, Note_on_c, 0, 69, 92
2, 193824, Note_off_c, 0, 69, 64
2, 193824, Note_on_c, 0, 67, 92
2, 193920, Note_off_c, 0, 67, 64
2, 193920, Note_on_c, 0, 69, 92
2, 194112, Note_off_c, 0, 69, 64
2, 194112, Note_on_c, 0, 57, 92
2, 194304, Note_off_c, 0, 57, 64
2, 194496, Note_on_c, 0, 69, 92
2, 194688, Note_off_c, 0, 69, 64
2, 194688, Note_on_c, 0, 69, 92
2, 194880, Note_off_c, 0, 69, 64
2, 194880, Note_on_c, 0, 57, 92
2, 195072, Note_off_c, 0, 57, 64
2, 195072, Note_on_c, 0, 62, 92
2, 196224, Note_off_c, 0, 62, 64
2, 197568, Note_on_c, 0, 69, 92
2, 197760, Note_off_c, 0, 69, 64
2, 197760, Note_on_c, 0, 67, 92
2, 197952, Note_off_c, 0, 67, 64
2, 197952, Note_on_c, 0, 65, 92
2, 198144, Note_off_c, 0, 65, 64
2, 198144, Note_on_c, 0, 64, 92
2, 198336, Note_off_c, 0, 64, 64
2, 198336, Note_on_c, 0, 62, 92
2, 198528, Note_off_c, 0, 62, 64
2, 198528, Note_on_c, 0, 60, 92
2, 198720, Note_off_c, 0, 60, 64
2, 198720, Note_on_c, 0, 65, 92
2, 198912, Note_off_c, 0, 65, 64
2, 198912, Note_on_c, 0, 64, 92
2, 199104, Note_off_c, 0, 64, 64
2, 199104, Note_on_c, 0, 62, 92
2, 199296, Note_off_c, 0, 62, 64
2, 199296, Note_on_c, 0, 60, 92
2, 199488, Note_off_c, 0, 60, 64
2, 199488, Note_on_c, 0, 59, 92
2, 199680, Note_off_c, 0, 59, 64
2, 199680, Note_on_c, 0, 57, 92
2, 199872, Note_off_c, 0, 57, 64
2, 199872, Note_on_c, 0, 69, 92
2, 199872, Note_on_c, 0, 72, 92
2, 200064, Note_off_c, 0, 72, 64
2, 200064, Note_off_c, 0, 69, 64
2, 200064, Note_on_c, 0, 67, 92
2, 200064, Note_on_c, 0, 71, 92
2, 200256, Note_off_c, 0, 71, 64
2, 200256, Note_off_c, 0, 67, 64
2, 200256, Note_on_c, 0, 65, 92
2, 200256, Note_on_c, 0, 69, 92
2, 200448, Note_off_c, 0, 69, 64
2, 200448, Note_off_c, 0, 65, 64
2, 200448, Note_on_c, 0, 64, 92
2, 200448, Note_on_c, 0, 67, 92
2, 200640, Note_off_c, 0, 67, 64
2, 200640, Note_off_c, 0, 64, 64
2, 200640, Note_on_c, 0, 62, 92
2, 200640, Note_on_c, 0, 65, 92
2, 200832, Note_off_c, 0, 65, 64
2, 200832, Note_off_c, 0, 62, 64
2, 200832, Note_on_c, 0, 64, 92
2, 200832, Note_on_c, 0, 60, 92
2, 201024, Note_off_c, 0, 60, 64
2, 201024, Note_off_c, 0, 64, 64
2, 201024, Note_on_c, 0, 65, 92
2, 201024, Note_on_c, 0, 69, 92
2, 201216, Note_off_c, 0, 69, 64
2, 201216, Note_off_c, 0, 65, 64
2, 201216, Note_on_c, 0, 64, 92
2, 201216, Note_on_c, 0, 67, 92
2, 201408, Note_off_c, 0, 67, 64
2, 201408, Note_off_c, 0, 64, 64
2, 201408, Note_on_c, 0, 62, 92
2, 201408, Note_on_c, 0, 65, 92
2, 201600, Note_off_c, 0, 65, 64
2, 201600, Note_off_c, 0, 62, 64
2, 201600, Note_on_c, 0, 60, 92
2, 201600, Note_on_c, 0, 64, 92
2, 201792, Note_off_c, 0, 64, 64
2, 201792, Note_off_c, 0, 60, 64
2, 201792, Note_on_c, 0, 59, 92
2, 201792, Note_on_c, 0, 62, 92
2, 201984, Note_off_c, 0, 62, 64
2, 201984, Note_off_c, 0, 59, 64
2, 201984, Note_on_c, 0, 57, 92
2, 201984, Note_on_c, 0, 60, 92
2, 202176, Note_off_c, 0, 60, 64
2, 202176, Note_off_c, 0, 57, 64
2, 202176, Note_on_c, 0, 72, 92
2, 202176, Note_on_c, 0, 81, 92
2, 202368, Note_off_c, 0, 81, 64
2, 202368, Note_off_c, 0, 72, 64
2, 202368, Note_on_c, 0, 71, 92
2, 202368, Note_on_c, 0, 81, 92
2, 202560, Note_off_c, 0, 81, 64
2, 202560, Note_off_c, 0, 71, 64
2, 202560, Note_on_c, 0, 69, 92
2, 202560, Note_on_c, 0, 81, 92
2, 202752, Note_off_c, 0, 81, 64
2, 202752, Note_off_c, 0, 69, 64
2, 202752, Note_on_c, 0, 67, 92
2, 202752, Note_on_c, 0, 81, 92
2, 202944, Note_off_c, 0, 81, 64
2, 202944, Note_off_c, 0, 67, 64
2, 202944, Note_on_c, 0, 65, 92
2, 202944, Note_on_c, 0, 81, 92
2, 203136, Note_off_c, 0, 81, 64
2, 203136, Note_off_c, 0, 65, 64
2, 203136, Note_on_c, 0, 64, 92
2, 203136, Note_on_c, 0, 81, 92
2, 203328, Note_off_c, 0, 81, 64
2, 203328, Note_off_c, 0, 64, 64
2, 203328, Note_on_c, 0, 69, 92
2, 203328, Note_on_c, 0, 81, 92
2, 203520, Note_off_c, 0, 81, 64
2, 203520, Note_off_c, 0, 69, 64
2, 203520, Note_on_c, 0, 67, 92
2, 203520, Note_on_c, 0, 81, 92
2, 203712, Note_off_c, 0, 81, 64
2, 203712, Note_off_c, 0, 67, 64
2, 203712, Note_on_c, 0, 65, 92
2, 203712, Note_on_c, 0, 81, 92
2, 203904, Note_off_c, 0, 81, 64
2, 203904, Note_off_c, 0, 65, 64
2, 203904, Note_on_c, 0, 64, 92
2, 203904, Note_on_c, 0, 81, 92
2, 204096, Note_off_c, 0, 81, 64
2, 204096, Note_off_c, 0, 64, 64
2, 204096, Note_on_c, 0, 62, 92
2, 204096, Note_on_c, 0, 81, 92
2, 204288, Note_off_c, 0, 81, 64
2, 204288, Note_off_c, 0, 62, 64
2, 204288, Note_on_c, 0, 60, 92
2, 204288, Note_on_c, 0, 81, 92
2, 204480, Note_off_c, 0, 81, 64
2, 204480, Note_off_c, 0, 60, 64
2, 204480, Note_on_c, 0, 84, 92
2, 204480, Note_on_c, 0, 81, 92
2, 204672, Note_off_c, 0, 81, 64
2, 204672, Note_off_c, 0, 84, 64
2, 204672, Note_on_c, 0, 84, 92
2, 204672, Note_on_c, 0, 81, 92
2, 204864, Note_off_c, 0, 81, 64
2, 204864, Note_off_c, 0, 84, 64
2, 204864, Note_on_c, 0, 84, 92
2, 204864, Note_on_c, 0, 81, 92
2, 205056, Note_off_c, 0, 81, 64
2, 205056, Note_off_c, 0, 84, 64
2, 205056, Note_on_c, 0, 84, 92
2, 205056, Note_on_c, 0, 81, 92
2, 205248, Note_off_c, 0, 81, 64
2, 205248, Note_off_c, 0, 84, 64
2, 205248, Note_on_c, 0, 84, 92
2, 205248, Note_on_c, 0, 81, 92
2, 205440, Note_off_c, 0, 81, 64
2, 205440, Note_off_c, 0, 84, 64
2, 205440, Note_on_c, 0, 84, 92
2, 205440, Note_on_c, 0, 81, 92
2, 205632, Note_off_c, 0, 81, 64
2, 205632, Note_off_c, 0, 84, 64
2, 205632, Note_on_c, 0, 84, 92
2, 205632, Note_on_c, 0, 81, 92
2, 205824, Note_off_c, 0, 81, 64
2, 205824, Note_off_c, 0, 84, 64
2, 205824, Note_on_c, 0, 84, 92
2, 205824, Note_on_c, 0, 81, 92
2, 206016, Note_off_c, 0, 81, 64
2, 206016, Note_off_c, 0, 84, 64
2, 206016, Note_on_c, 0, 84, 92
2, 206016, Note_on_c, 0, 81, 92
2, 206208, Note_off_c, 0, 81, 64
2, 206208, Note_off_c, 0, 84, 64
2, 206208, Note_on_c, 0, 84, 92
2, 206208, Note_on_c, 0, 81, 92
2, 206400, Note_off_c, 0, 81, 64
2, 206400, Note_off_c, 0, 84, 64
2, 206400, Note_on_c, 0, 84, 92
2, 206400, Note_on_c, 0, 81, 92
2, 206592, Note_off_c, 0, 81, 64
2, 206592, Note_off_c, 0, 84, 64
2, 206592, Note_on_c, 0, 84, 92
2, 206592, Note_on_c, 0, 81, 92
2, 206976, Note_off_c, 0, 81, 64
2, 206976, Note_off_c, 0, 84, 64
2, 206976, Note_on_c, 0, 72, 92
2, 207360, Note_off_c, 0, 72, 64
2, 207360, Note_on_c, 0, 72, 92
2, 207744, Note_off_c, 0, 72, 64
2, 207744, Note_on_c, 0, 74, 92
2, 208128, Note_off_c, 0, 74, 64
2, 208128, Note_on_c, 0, 76, 92
2, 208512, Note_off_c, 0, 76, 64
2, 208512, Note_on_c, 0, 76, 92
2, 208896, Note_off_c, 0, 76, 64
2, 208896, Note_on_c, 0, 69, 92
2, 209280, Note_off_c, 0, 69, 64
2, 209280, Note_on_c, 0, 60, 92
2, 209664, Note_off_c, 0, 60, 64
2, 209664, Note_on_c, 0, 60, 92
2, 210048, Note_off_c, 0, 60, 64
2, 210048, Note_on_c, 0, 62, 92
2, 210432, Note_off_c, 0, 62, 64
2, 210432, Note_on_c, 0, 64, 92
2, 210816, Note_off_c, 0, 64, 64
2, 210816, Note_on_c, 0, 64, 92
2, 211200, Note_off_c, 0, 64, 64
2, 211200, Note_on_c, 0, 57, 92
2, 211392, Note_off_c, 0, 57, 64
2, 211392, Note_on_c, 0, 69, 92
2, 211584, Note_off_c, 0, 69, 64
2, 211584, Note_on_c, 0, 69, 92
2, 211776, Note_off_c, 0, 69, 64
2, 211776, Note_on_c, 0, 71, 92
2, 211968, Note_off_c, 0, 71, 64
2, 211968, Note_on_c, 0, 72, 92
2, 212160, Note_off_c, 0, 72, 64
2, 212160, Note_on_c, 0, 72, 92
2, 212352, Note_off_c, 0, 72, 64
2, 212352, Note_on_c, 0, 72, 92
2, 212448, Note_off_c, 0, 72, 64
2, 212448, Note_on_c, 0, 74, 92
2, 212496, Note_off_c, 0, 74, 64
2, 212496, Note_on_c, 0, 72, 92
2, 212544, Note_off_c, 0, 72, 64
2, 212544, Note_on_c, 0, 71, 92
2, 212736, Note_off_c, 0, 71, 64
2, 212736, Note_on_c, 0, 71, 92
2, 212928, Note_off_c, 0, 71, 64
2, 212928, Note_on_c, 0, 72, 92
2, 213120, Note_off_c, 0, 72, 64
2, 213120, Note_on_c, 0, 74, 92
2, 213312, Note_off_c, 0, 74, 64
2, 213312, Note_on_c, 0, 74, 92
2, 213504, Note_off_c, 0, 74, 64
2, 213504, Note_on_c, 0, 74, 92
2, 213600, Note_off_c, 0, 74, 64
2, 213600, Note_on_c, 0, 76, 92
2, 213648, Note_off_c, 0, 76, 64
2, 213648, Note_on_c, 0, 74, 92
2, 213696, Note_off_c, 0, 74, 64
2, 213696, Note_on_c, 0, 69, 92
2, 213696, Note_on_c, 0, 72, 92
2, 213888, Note_off_c, 0, 72, 64
2, 213888, Note_off_c, 0, 69, 64
2, 213888, Note_on_c, 0, 69, 92
2, 213888, Note_on_c, 0, 72, 92
2, 214080, Note_off_c, 0, 72, 64
2, 214080, Note_off_c, 0, 69, 64
2, 214080, Note_on_c, 0, 71, 92
2, 214080, Note_on_c, 0, 74, 92
2, 214272, Note_off_c, 0, 74, 64
2, 214272, Note_off_c, 0, 71, 64
2, 214272, Note_on_c, 0, 72, 92
2, 214272, Note_on_c, 0, 76, 92
2, 214464, Note_off_c, 0, 76, 64
2, 214464, Note_off_c, 0, 72, 64
2, 214464, Note_on_c, 0, 72, 92
2, 214464, Note_on_c, 0, 76, 92
2, 214656, Note_off_c, 0, 76, 64
2, 214656, Note_off_c, 0, 72, 64
2, 214656, Note_on_c, 0, 76, 92
2, 214656, Note_on_c, 0, 72, 92
2, 214752, Note_off_c, 0, 76, 64
2, 214752, Note_on_c, 0, 77, 92
2, 214800, Note_off_c, 0, 77, 64
2, 214800, Note_on_c, 0, 76, 92
2, 214848, Note_off_c, 0, 76, 64
2, 214848, Note_off_c, 0, 72, 64
2, 214848, Note_on_c, 0, 74, 92
2, 214848, Note_on_c, 0, 71, 92
2, 215040, Note_off_c, 0, 71, 64
2, 215040, Note_off_c, 0, 74, 64
2, 215040, Note_on_c, 0, 74, 92
2, 215040, Note_on_c, 0, 71, 92
2, 215232, Note_off_c, 0, 71, 64
2, 215232, Note_off_c, 0, 74, 64
2, 215232, Note_on_c, 0, 76, 92
2, 215232, Note_on_c, 0, 72, 92
2, 215424, Note_off_c, 0, 72, 64
2, 215424, Note_off_c, 0, 76, 64
2, 215424, Note_on_c, 0, 77, 92
2, 215424, Note_on_c, 0, 74, 92
2, 215616, Note_off_c, 0, 74, 64
2, 215616, Note_off_c, 0, 77, 64
2, 215616, Note_on_c, 0, 77, 92
2, 215616, Note_on_c, 0, 74, 92
2, 215808, Note_off_c, 0, 74, 64
2, 215808, Note_off_c, 0, 77, 64
2, 215808, Note_on_c, 0, 72, 92
2, 215808, Note_on_c, 0, 76, 92
2, 216384, Note_off_c, 0, 76, 64
2, 216384, Note_off_c, 0, 72, 64
2, 216384, Note_on_c, 0, 71, 92
2, 216384, Note_on_c, 0, 74, 92
2, 216576, Note_off_c, 0, 74, 64
2, 216576, Note_off_c, 0, 71, 64
2, 216576, Note_on_c, 0, 69, 92
2, 216576, Note_on_c, 0, 72, 92
2, 216768, Note_off_c, 0, 72, 64
2, 216768, Note_off_c, 0, 69, 64
2, 216768, Note_on_c, 0, 68, 92
2, 216768, Note_on_c, 0, 71, 92
2, 216960, Note_off_c, 0, 71, 64
2, 216960, Note_off_c, 0, 68, 64
2, 216960, Note_on_c, 0, 72, 92
2, 216960, Note_on_c, 0, 69, 92
2, 217152, Note_off_c, 0, 69, 64
2, 217152, Note_off_c, 0, 72, 64
2, 217152, Note_on_c, 0, 74, 92
2, 217152, Note_on_c, 0, 71, 92
2, 217344, Note_off_c, 0, 71, 64
2, 217344, Note_off_c, 0, 74, 64
2, 217344, Note_on_c, 0, 68, 92
2, 217344, Note_on_c, 0, 71, 92
2, 217392, Note_off_c, 0, 71, 64
2, 217392, Note_on_c, 0, 72, 92
2, 217440, Note_off_c, 0, 72, 64
2, 217440, Note_on_c, 0, 71, 92
2, 217920, Note_off_c, 0, 71, 64
2, 217920, Note_off_c, 0, 68, 64
2, 217920, Note_on_c, 0, 69, 92
2, 218112, Note_off_c, 0, 69, 64
2, 218112, Note_on_c, 0, 69, 92
2, 218304, Note_on_c, 0, 57, 92
2, 218496, Note_off_c, 0, 57, 64
2, 218496, Note_off_c, 0, 69, 64
2, 218496, Note_on_c, 0, 57, 92
2, 218688, Note_off_c, 0, 57, 64
2, 218688, Note_on_c, 0, 59, 92
2, 218880, Note_off_c, 0, 59, 64
2, 218880, Note_on_c, 0, 60, 92
2, 219072, Note_off_c, 0, 60, 64
2, 219072, Note_on_c, 0, 60, 92
2, 219264, Note_off_c, 0, 60, 64
2, 219264, Note_on_c, 0, 60, 92
2, 219456, Note_off_c, 0, 60, 64
2, 219456, Note_on_c, 0, 59, 92
2, 219648, Note_off_c, 0, 59, 64
2, 219648, Note_on_c, 0, 59, 92
2, 219840, Note_off_c, 0, 59, 64
2, 219840, Note_on_c, 0, 60, 92
2, 220032, Note_off_c, 0, 60, 64
2, 220032, Note_on_c, 0, 62, 92
2, 220224, Note_off_c, 0, 62, 64
2, 220224, Note_on_c, 0, 62, 92
2, 220416, Note_off_c, 0, 62, 64
2, 220416, Note_on_c, 0, 62, 92
2, 220608, Note_off_c, 0, 62, 64
2, 220608, Note_on_c, 0, 69, 92
2, 220608, Note_on_c, 0, 60, 92
2, 220800, Note_off_c, 0, 60, 64
2, 220800, Note_off_c, 0, 69, 64
2, 220800, Note_on_c, 0, 69, 92
2, 220800, Note_on_c, 0, 60, 92
2, 220992, Note_off_c, 0, 60, 64
2, 220992, Note_off_c, 0, 69, 64
2, 220992, Note_on_c, 0, 71, 92
2, 220992, Note_on_c, 0, 62, 92
2, 221184, Note_off_c, 0, 62, 64
2, 221184, Note_off_c, 0, 71, 64
2, 221184, Note_on_c, 0, 72, 92
2, 221184, Note_on_c, 0, 64, 92
2, 221376, Note_off_c, 0, 64, 64
2, 221376, Note_off_c, 0, 72, 64
2, 221376, Note_on_c, 0, 72, 92
2, 221376, Note_on_c, 0, 64, 92
2, 221568, Note_off_c, 0, 64, 64
2, 221568, Note_off_c, 0, 72, 64
2, 221568, Note_on_c, 0, 64, 92
2, 221568, Note_on_c, 0, 72, 92
2, 221760, Note_off_c, 0, 72, 64
2, 221760, Note_off_c, 0, 64, 64
2, 221760, Note_on_c, 0, 62, 92
2, 221760, Note_on_c, 0, 71, 92
2, 221952, Note_off_c, 0, 71, 64
2, 221952, Note_off_c, 0, 62, 64
2, 221952, Note_on_c, 0, 62, 92
2, 221952, Note_on_c, 0, 71, 92
2, 222144, Note_off_c, 0, 71, 64
2, 222144, Note_off_c, 0, 62, 64
2, 222144, Note_on_c, 0, 64, 92
2, 222144, Note_on_c, 0, 72, 92
2, 222336, Note_off_c, 0, 72, 64
2, 222336, Note_off_c, 0, 64, 64
2, 222336, Note_on_c, 0, 65, 92
2, 222336, Note_on_c, 0, 74, 92
2, 222528, Note_off_c, 0, 74, 64
2, 222528, Note_off_c, 0, 65, 64
2, 222528, Note_on_c, 0, 65, 92
2, 222528, Note_on_c, 0, 74, 92
2, 222720, Note_off_c, 0, 74, 64
2, 222720, Note_off_c, 0, 65, 64
2, 222720, Note_on_c, 0, 64, 92
2, 222720, Note_on_c, 0, 72, 92
2, 223296, Note_off_c, 0, 72, 64
2, 223296, Note_off_c, 0, 64, 64
2, 223296, Note_on_c, 0, 62, 92
2, 223296, Note_on_c, 0, 71, 92
2, 223488, Note_off_c, 0, 71, 64
2, 223488, Note_off_c, 0, 62, 64
2, 223488, Note_on_c, 0, 60, 92
2, 223488, Note_on_c, 0, 69, 92
2, 223680, Note_off_c, 0, 69, 64
2, 223680, Note_off_c, 0, 60, 64
2, 223680, Note_on_c, 0, 59, 92
2, 223680, Note_on_c, 0, 68, 92
2, 223872, Note_off_c, 0, 68, 64
2, 223872, Note_off_c, 0, 59, 64
2, 223872, Note_on_c, 0, 69, 92
2, 223872, Note_on_c, 0, 60, 92
2, 224064, Note_off_c, 0, 60, 64
2, 224064, Note_off_c, 0, 69, 64
2, 224064, Note_on_c, 0, 71, 92
2, 224064, Note_on_c, 0, 62, 92
2, 224256, Note_off_c, 0, 62, 64
2, 224256, Note_off_c, 0, 71, 64
2, 224256, Note_on_c, 0, 68, 92
2, 224256, Note_on_c, 0, 59, 92
2, 224832, Note_off_c, 0, 59, 64
2, 224832, Note_off_c, 0, 68, 64
2, 224832, Note_on_c, 0, 57, 92
2, 224832, Note_on_c, 0, 69, 92
2, 225024, Note_off_c, 0, 69, 64
2, 225024, Note_off_c, 0, 57, 64
2, 225024, Note_on_c, 0, 57, 92
2, 225024, Note_on_c, 0, 69, 92
2, 225216, Note_off_c, 0, 69, 64
2, 225216, Note_off_c, 0, 57, 64
2, 225216, Note_on_c, 0, 69, 92
2, 225408, Note_off_c, 0, 69, 64
2, 225408, Note_on_c, 0, 67, 92
2, 225600, Note_off_c, 0, 67, 64
2, 225600, Note_on_c, 0, 65, 92
2, 225792, Note_off_c, 0, 65, 64
2, 225792, Note_on_c, 0, 64, 92
2, 225984, Note_off_c, 0, 64, 64
2, 225984, Note_on_c, 0, 62, 92
2, 226176, Note_off_c, 0, 62, 64
2, 226176, Note_on_c, 0, 60, 92
2, 226368, Note_off_c, 0, 60, 64
2, 226368, Note_on_c, 0, 65, 92
2, 226560, Note_off_c, 0, 65, 64
2, 226560, Note_on_c, 0, 64, 92
2, 226752, Note_off_c, 0, 64, 64
2, 226752, Note_on_c, 0, 62, 92
2, 226944, Note_off_c, 0, 62, 64
2, 226944, Note_on_c, 0, 60, 92
2, 227136, Note_off_c, 0, 60, 64
2, 227136, Note_on_c, 0, 59, 92
2, 227328, Note_off_c, 0, 59, 64
2, 227328, Note_on_c, 0, 57, 92
2, 227520, Note_off_c, 0, 57, 64
2, 227520, Note_on_c, 0, 69, 92
2, 227520, Note_on_c, 0, 72, 92
2, 227712, Note_off_c, 0, 72, 64
2, 227712, Note_off_c, 0, 69, 64
2, 227712, Note_on_c, 0, 67, 92
2, 227712, Note_on_c, 0, 71, 92
2, 227904, Note_off_c, 0, 71, 64
2, 227904, Note_off_c, 0, 67, 64
2, 227904, Note_on_c, 0, 65, 92
2, 227904, Note_on_c, 0, 69, 92
2, 228096, Note_off_c, 0, 69, 64
2, 228096, Note_off_c, 0, 65, 64
2, 228096, Note_on_c, 0, 64, 92
2, 228096, Note_on_c, 0, 67, 92
2, 228288, Note_off_c, 0, 67, 64
2, 228288, Note_off_c, 0, 64, 64
2, 228288, Note_on_c, 0, 62, 92
2, 228288, Note_on_c, 0, 65, 92
2, 228480, Note_off_c, 0, 65, 64
2, 228480, Note_off_c, 0, 62, 64
2, 228480, Note_on_c, 0, 64, 92
2, 228480, Note_on_c, 0, 60, 92
2, 228672, Note_off_c, 0, 60, 64
2, 228672, Note_off_c, 0, 64, 64
2, 228672, Note_on_c, 0, 65, 92
2, 228672, Note_on_c, 0, 69, 92
2, 228864, Note_off_c, 0, 69, 64
2, 228864, Note_off_c, 0, 65, 64
2, 228864, Note_on_c, 0, 64, 92
2, 228864, Note_on_c, 0, 67, 92
2, 229056, Note_off_c, 0, 67, 64
2, 229056, Note_off_c, 0, 64, 64
2, 229056, Note_on_c, 0, 62, 92
2, 229056, Note_on_c, 0, 65, 92
2, 229248, Note_off_c, 0, 65, 64
2, 229248, Note_off_c, 0, 62, 64
2, 229248, Note_on_c, 0, 60, 92
2, 229248, Note_on_c, 0, 64, 92
2, 229440, Note_off_c, 0, 64, 64
2, 229440, Note_off_c, 0, 60, 64
2, 229440, Note_on_c, 0, 59, 92
2, 229440, Note_on_c, 0, 62, 92
2, 229632, Note_off_c, 0, 62, 64
2, 229632, Note_off_c, 0, 59, 64
2, 229632, Note_on_c, 0, 57, 92
2, 229632, Note_on_c, 0, 60, 92
2, 229824, Note_off_c, 0, 60, 64
2, 229824, Note_off_c, 0, 57, 64
2, 229824, Note_on_c, 0, 72, 92
2, 229824, Note_on_c, 0, 81, 92
2, 230016, Note_off_c, 0, 81, 64
2, 230016, Note_off_c, 0, 72, 64
2, 230016, Note_on_c, 0, 71, 92
2, 230016, Note_on_c, 0, 81, 92
2, 230208, Note_off_c, 0, 81, 64
2, 230208, Note_off_c, 0, 71, 64
2, 230208, Note_on_c, 0, 69, 92
2, 230208, Note_on_c, 0, 81, 92
2, 230400, Note_off_c, 0, 81, 64
2, 230400, Note_off_c, 0, 69, 64
2, 230400, Note_on_c, 0, 67, 92
2, 230400, Note_on_c, 0, 81, 92
2, 230592, Note_off_c, 0, 81, 64
2, 230592, Note_off_c, 0, 67, 64
2, 230592, Note_on_c, 0, 65, 92
2, 230592, Note_on_c, 0, 81, 92
2, 230784, Note_off_c, 0, 81, 64
2, 230784, Note_off_c, 0, 65, 64
2, 230784, Note_on_c, 0, 64, 92
2, 230784, Note_on_c, 0, 81, 92
2, 230976, Note_off_c, 0, 81, 64
2, 230976, Note_off_c, 0, 64, 64
2, 230976, Note_on_c, 0, 69, 92
2, 230976, Note_on_c, 0, 81, 92
2, 231168, Note_off_c, 0, 81, 64
2, 231168, Note_off_c, 0, 69, 64
2, 231168, Note_on_c, 0, 67, 92
2, 231168, Note_on_c, 0, 81, 92
2, 231360, Note_off_c, 0, 81, 64
2, 231360, Note_off_c, 0, 67, 64
2, 231360, Note_on_c, 0, 65, 92
2, 231360, Note_on_c, 0, 81, 92
2, 231552, Note_off_c, 0, 81, 64
2, 231552, Note_off_c, 0, 65, 64
2, 231552, Note_on_c, 0, 64, 92
2, 231552, Note_on_c, 0, 81, 92
2, 231744, Note_off_c, 0, 81, 64
2, 231744, Note_off_c, 0, 64, 64
2, 231744, Note_on_c, 0, 62, 92
2, 231744, Note_on_c, 0, 81, 92
2, 231936, Note_off_c, 0, 81, 64
2, 231936, Note_off_c, 0, 62, 64
2, 231936, Note_on_c, 0, 60, 92
2, 231936, Note_on_c, 0, 81, 92
2, 232128, Note_off_c, 0, 81, 64
2, 232128, Note_off_c, 0, 60, 64
2, 232128, Note_on_c, 0, 84, 92
2, 232128, Note_on_c, 0, 81, 92
2, 232320, Note_off_c, 0, 81, 64
2, 232320, Note_off_c, 0, 84, 64
2, 232320, Note_on_c, 0, 84, 92
2, 232320, Note_on_c, 0, 81, 92
2, 232512, Note_off_c, 0, 81, 64
2, 232512, Note_off_c, 0, 84, 64
2, 232512, Note_on_c, 0, 84, 92
2, 232512, Note_on_c, 0, 81, 92
2, 232704, Note_off_c, 0, 81, 64
2, 232704, Note_off_c, 0, 84, 64
2, 232704, Note_on_c, 0, 84, 92
2, 232704, Note_on_c, 0, 81, 92
2, 232896, Note_off_c, 0, 81, 64
2, 232896, Note_off_c, 0, 84, 64
2, 232896, Note_on_c, 0, 84, 92
2, 232896, Note_on_c, 0, 81, 92
2, 233088, Note_off_c, 0, 81, 64
2, 233088, Note_off_c, 0, 84, 64
2, 233088, Note_on_c, 0, 84, 92
2, 233088, Note_on_c, 0, 81, 92
2, 233280, Note_off_c, 0, 81, 64
2, 233280, Note_off_c, 0, 84, 64
2, 233280, Note_on_c, 0, 84, 92
2, 233280, Note_on_c, 0, 81, 92
2, 233472, Note_off_c, 0, 81, 64
2, 233472, Note_off_c, 0, 84, 64
2, 233472, Note_on_c, 0, 84, 92
2, 233472, Note_on_c, 0, 81, 92
2, 233664, Note_off_c, 0, 81, 64
2, 233664, Note_off_c, 0, 84, 64
2, 233664, Note_on_c, 0, 84, 92
2, 233664, Note_on_c, 0, 81, 92
2, 233856, Note_off_c, 0, 81, 64
2, 233856, Note_off_c, 0, 84, 64
2, 233856, Note_on_c, 0, 84, 92
2, 233856, Note_on_c, 0, 81, 92
2, 234048, Note_off_c, 0, 81, 64
2, 234048, Note_off_c, 0, 84, 64
2, 234048, Note_on_c, 0, 84, 92
2, 234048, Note_on_c, 0, 81, 92
2, 234240, Note_off_c, 0, 81, 64
2, 234240, Note_off_c, 0, 84, 64
2, 234240, Note_on_c, 0, 84, 92
2, 234240, Note_on_c, 0, 81, 92
2, 234624, Note_off_c, 0, 81, 64
2, 234624, Note_off_c, 0, 84, 64
2, 234624, Note_on_c, 0, 72, 92
2, 235008, Note_off_c, 0, 72, 64
2, 235008, Note_on_c, 0, 72, 92
2, 235392, Note_off_c, 0, 72, 64
2, 235392, Note_on_c, 0, 74, 92
2, 235776, Note_off_c, 0, 74, 64
2, 235776, Note_on_c, 0, 76, 92
2, 236160, Note_off_c, 0, 76, 64
2, 236160, Note_on_c, 0, 76, 92
2, 236544, Note_off_c, 0, 76, 64
2, 236544, Note_on_c, 0, 69, 92
2, 236928, Note_off_c, 0, 69, 64
2, 236928, Note_on_c, 0, 60, 92
2, 237312, Note_off_c, 0, 60, 64
2, 237312, Note_on_c, 0, 60, 92
2, 237696, Note_off_c, 0, 60, 64
2, 237696, Note_on_c, 0, 62, 92
2, 238080, Note_off_c, 0, 62, 64
2, 238080, Note_on_c, 0, 64, 92
2, 238464, Note_off_c, 0, 64, 64
2, 238464, Note_on_c, 0, 64, 92
2, 238848, Note_off_c, 0, 64, 64
2, 239040, Note_on_c, 0, 76, 92
2, 239232, Note_off_c, 0, 76, 64
2, 239232, Note_on_c, 0, 76, 92
2, 239424, Note_off_c, 0, 76, 64
2, 239424, Note_on_c, 0, 76, 92
2, 239616, Note_off_c, 0, 76, 64
2, 239616, Note_on_c, 0, 81, 92
2, 239808, Note_off_c, 0, 81, 64
2, 239808, Note_on_c, 0, 76, 92
2, 240000, Note_off_c, 0, 76, 64
2, 240000, Note_on_c, 0, 76, 92
2, 240192, Note_off_c, 0, 76, 64
2, 240192, Note_on_c, 0, 76, 92
2, 240384, Note_off_c, 0, 76, 64
2, 240384, Note_on_c, 0, 76, 92
2, 240576, Note_off_c, 0, 76, 64
2, 240576, Note_on_c, 0, 76, 92
2, 240768, Note_off_c, 0, 76, 64
2, 240768, Note_on_c, 0, 83, 92
2, 240960, Note_off_c, 0, 83, 64
2, 240960, Note_on_c, 0, 76, 92
2, 241152, Note_off_c, 0, 76, 64
2, 241152, Note_on_c, 0, 76, 92
2, 241344, Note_off_c, 0, 76, 64
2, 241344, Note_on_c, 0, 76, 92
2, 241536, Note_off_c, 0, 76, 64
2, 241536, Note_on_c, 0, 76, 92
2, 241728, Note_off_c, 0, 76, 64
2, 241728, Note_on_c, 0, 76, 92
2, 241920, Note_off_c, 0, 76, 64
2, 241920, Note_on_c, 0, 81, 92
2, 242112, Note_off_c, 0, 81, 64
2, 242112, Note_on_c, 0, 76, 92
2, 242304, Note_off_c, 0, 76, 64
2, 242304, Note_on_c, 0, 76, 92
2, 242496, Note_off_c, 0, 76, 64
2, 242496, Note_on_c, 0, 76, 92
2, 242688, Note_off_c, 0, 76, 64
2, 242688, Note_on_c, 0, 76, 92
2, 242880, Note_off_c, 0, 76, 64
2, 242880, Note_on_c, 0, 76, 92
2, 243072, Note_off_c, 0, 76, 64
2, 243072, Note_on_c, 0, 83, 92
2, 243264, Note_off_c, 0, 83, 64
2, 243264, Note_on_c, 0, 76, 92
2, 243456, Note_off_c, 0, 76, 64
2, 243456, Note_on_c, 0, 76, 92
2, 243648, Note_off_c, 0, 76, 64
2, 243648, Note_on_c, 0, 76, 92
2, 243840, Note_off_c, 0, 76, 64
2, 243840, Note_on_c, 0, 76, 92
2, 244032, Note_off_c, 0, 76, 64
2, 244032, Note_on_c, 0, 76, 92
2, 244224, Note_off_c, 0, 76, 64
2, 244224, Note_on_c, 0, 81, 92
2, 244416, Note_off_c, 0, 81, 64
2, 244416, Note_on_c, 0, 69, 92
2, 244608, Note_off_c, 0, 69, 64
2, 244608, Note_on_c, 0, 69, 92
2, 244800, Note_off_c, 0, 69, 64
2, 244800, Note_on_c, 0, 69, 92
2, 244992, Note_off_c, 0, 69, 64
2, 244992, Note_on_c, 0, 69, 92
2, 245184, Note_off_c, 0, 69, 64
2, 245184, Note_on_c, 0, 69, 92
2, 245376, Note_off_c, 0, 69, 64
2, 245376, Note_on_c, 0, 79, 92
2, 245568, Note_off_c, 0, 79, 64
2, 245568, Note_on_c, 0, 69, 92
2, 245760, Note_off_c, 0, 69, 64
2, 245760, Note_on_c, 0, 69, 92
2, 245952, Note_off_c, 0, 69, 64
2, 245952, Note_on_c, 0, 69, 92
2, 246144, Note_off_c, 0, 69, 64
2, 246144, Note_on_c, 0, 69, 92
2, 246336, Note_off_c, 0, 69, 64
2, 246336, Note_on_c, 0, 69, 92
2, 246528, Note_off_c, 0, 69, 64
2, 246528, Note_on_c, 0, 77, 92
2, 246720, Note_off_c, 0, 77, 64
2, 246720, Note_on_c, 0, 69, 92
2, 246912, Note_off_c, 0, 69, 64
2, 246912, Note_on_c, 0, 69, 92
2, 247104, Note_off_c, 0, 69, 64
2, 247104, Note_on_c, 0, 69, 92
2, 247296, Note_off_c, 0, 69, 64
2, 247296, Note_on_c, 0, 69, 92
2, 247488, Note_off_c, 0, 69, 64
2, 247488, Note_on_c, 0, 69, 92
2, 247680, Note_off_c, 0, 69, 64
2, 247680, Note_on_c, 0, 76, 92
2, 247872, Note_off_c, 0, 76, 64
2, 247872, Note_on_c, 0, 69, 92
2, 248064, Note_off_c, 0, 69, 64
2, 248064, Note_on_c, 0, 69, 92
2, 248256, Note_off_c, 0, 69, 64
2, 248256, Note_on_c, 0, 69, 92
2, 248448, Note_off_c, 0, 69, 64
2, 248448, Note_on_c, 0, 69, 92
2, 248640, Note_off_c, 0, 69, 64
2, 248640, Note_on_c, 0, 69, 92
2, 248832, Note_off_c, 0, 69, 64
2, 248832, Note_on_c, 0, 81, 92
2, 249024, Note_off_c, 0, 81, 64
2, 249024, Note_on_c, 0, 69, 92
2, 249216, Note_off_c, 0, 69, 64
2, 249216, Note_on_c, 0, 75, 92
2, 249408, Note_off_c, 0, 75, 64
2, 249408, Note_on_c, 0, 71, 92
2, 249600, Note_off_c, 0, 71, 64
2, 249600, Note_on_c, 0, 71, 92
2, 249792, Note_off_c, 0, 71, 64
2, 249792, Note_on_c, 0, 71, 92
2, 249984, Note_off_c, 0, 71, 64
2, 249984, Note_on_c, 0, 81, 92
2, 250176, Note_off_c, 0, 81, 64
2, 250176, Note_on_c, 0, 71, 92
2, 250368, Note_off_c, 0, 71, 64
2, 250368, Note_on_c, 0, 71, 92
2, 250560, Note_off_c, 0, 71, 64
2, 250560, Note_on_c, 0, 71, 92
2, 250752, Note_off_c, 0, 71, 64
2, 250752, Note_on_c, 0, 71, 92
2, 250944, Note_off_c, 0, 71, 64
2, 250944, Note_on_c, 0, 71, 92
2, 251136, Note_off_c, 0, 71, 64
2, 251136, Note_on_c, 0, 79, 92
2, 251328, Note_off_c, 0, 79, 64
2, 251328, Note_on_c, 0, 71, 92
2, 251520, Note_off_c, 0, 71, 64
2, 251520, Note_on_c, 0, 71, 92
2, 251712, Note_off_c, 0, 71, 64
2, 251712, Note_on_c, 0, 71, 92
2, 251904, Note_off_c, 0, 71, 64
2, 251904, Note_on_c, 0, 71, 92
2, 252096, Note_off_c, 0, 71, 64
2, 252096, Note_on_c, 0, 71, 92
2, 252288, Note_off_c, 0, 71, 64
2, 252288, Note_on_c, 0, 79, 92
2, 252480, Note_off_c, 0, 79, 64
2, 252480, Note_on_c, 0, 71, 92
2, 252672, Note_off_c, 0, 71, 64
2, 252672, Note_on_c, 0, 71, 92
2, 252864, Note_off_c, 0, 71, 64
2, 252864, Note_on_c, 0, 71, 92
2, 253056, Note_off_c, 0, 71, 64
2, 253056, Note_on_c, 0, 71, 92
2, 253248, Note_off_c, 0, 71, 64
2, 253248, Note_on_c, 0, 71, 92
2, 253440, Note_off_c, 0, 71, 64
2, 253440, Note_on_c, 0, 78, 92
2, 253632, Note_off_c, 0, 78, 64
2, 253632, Note_on_c, 0, 71, 92
2, 253824, Note_off_c, 0, 71, 64
2, 253824, Note_on_c, 0, 71, 92
2, 254016, Note_off_c, 0, 71, 64
2, 254016, Note_on_c, 0, 71, 92
2, 254208, Note_off_c, 0, 71, 64
2, 254208, Note_on_c, 0, 71, 92
2, 254400, Note_off_c, 0, 71, 64
2, 254400, Note_on_c, 0, 71, 92
2, 254592, Note_off_c, 0, 71, 64
2, 254592, Note_on_c, 0, 78, 92
2, 254784, Note_off_c, 0, 78, 64
2, 254784, Note_on_c, 0, 71, 92
2, 254976, Note_off_c, 0, 71, 64
2, 254976, Note_on_c, 0, 76, 92
2, 254976, Note_on_c, 0, 71, 92
2, 255168, Note_off_c, 0, 76, 64
2, 255168, Note_on_c, 0, 83, 92
2, 255264, Note_off_c, 0, 83, 64
2, 255264, Note_on_c, 0, 81, 92
2, 255360, Note_off_c, 0, 81, 64
2, 255360, Note_on_c, 0, 79, 92
2, 255552, Note_off_c, 0, 79, 64
2, 255552, Note_on_c, 0, 83, 92
2, 255744, Note_off_c, 0, 83, 64
2, 255744, Note_off_c, 0, 71, 64
2, 255744, Note_on_c, 0, 79, 92
2, 255936, Note_off_c, 0, 79, 64
2, 255936, Note_on_c, 0, 83, 92
2, 256128, Note_off_c, 0, 83, 64
2, 256128, Note_on_c, 0, 81, 92
2, 256128, Note_on_c, 0, 75, 92
2, 256320, Note_off_c, 0, 81, 64
2, 256320, Note_on_c, 0, 78, 92
2, 256416, Note_off_c, 0, 78, 64
2, 256416, Note_on_c, 0, 79, 92
2, 256512, Note_off_c, 0, 79, 64
2, 256512, Note_on_c, 0, 81, 92
2, 256704, Note_off_c, 0, 81, 64
2, 256704, Note_on_c, 0, 78, 92
2, 256896, Note_off_c, 0, 78, 64
2, 256896, Note_off_c, 0, 75, 64
2, 256896, Note_on_c, 0, 75, 92
2, 257088, Note_off_c, 0, 75, 64
2, 257088, Note_on_c, 0, 78, 92
2, 257280, Note_off_c, 0, 78, 64
2, 257280, Note_on_c, 0, 79, 92
2, 257280, Note_on_c, 0, 71, 92
2, 257472, Note_off_c, 0, 79, 64
2, 257472, Note_on_c, 0, 83, 92
2, 257568, Note_off_c, 0, 83, 64
2, 257568, Note_on_c, 0, 81, 92
2, 257664, Note_off_c, 0, 81, 64
2, 257664, Note_on_c, 0, 79, 92
2, 257856, Note_off_c, 0, 79, 64
2, 257856, Note_on_c, 0, 83, 92
2, 258048, Note_off_c, 0, 83, 64
2, 258048, Note_off_c, 0, 71, 64
2, 258048, Note_on_c, 0, 79, 92
2, 258240, Note_off_c, 0, 79, 64
2, 258240, Note_on_c, 0, 83, 92
2, 258432, Note_off_c, 0, 83, 64
2, 258432, Note_on_c, 0, 79, 92
2, 258432, Note_on_c, 0, 73, 92
2, 258624, Note_off_c, 0, 79, 64
2, 258624, Note_on_c, 0, 76, 92
2, 258720, Note_off_c, 0, 76, 64
2, 258720, Note_on_c, 0, 77, 92
2, 258816, Note_off_c, 0, 77, 64
2, 258816, Note_on_c, 0, 79, 92
2, 259008, Note_off_c, 0, 79, 64
2, 259008, Note_on_c, 0, 76, 92
2, 259200, Note_off_c, 0, 76, 64
2, 259200, Note_off_c, 0, 73, 64
2, 259200, Note_on_c, 0, 73, 92
2, 259392, Note_off_c, 0, 73, 64
2, 259392, Note_on_c, 0, 76, 92
2, 259584, Note_off_c, 0, 76, 64
2, 259584, Note_on_c, 0, 77, 92
2, 259584, Note_on_c, 0, 69, 92
2, 259776, Note_off_c, 0, 77, 64
2, 259776, Note_on_c, 0, 81, 92
2, 259872, Note_off_c, 0, 81, 64
2, 259872, Note_on_c, 0, 79, 92
2, 259968, Note_off_c, 0, 79, 64
2, 259968, Note_on_c, 0, 77, 92
2, 260160, Note_off_c, 0, 77, 64
2, 260160, Note_on_c, 0, 81, 92
2, 260352, Note_off_c, 0, 81, 64
2, 260352, Note_off_c, 0, 69, 64
2, 260352, Note_on_c, 0, 77, 92
2, 260544, Note_off_c, 0, 77, 64
2, 260544, Note_on_c, 0, 81, 92
2, 260736, Note_off_c, 0, 81, 64
2, 260736, Note_on_c, 0, 77, 92
2, 260736, Note_on_c, 0, 71, 92
2, 260928, Note_off_c, 0, 77, 64
2, 260928, Note_on_c, 0, 74, 92
2, 261024, Note_off_c, 0, 74, 64
2, 261024, Note_on_c, 0, 76, 92
2, 261120, Note_off_c, 0, 76, 64
2, 261120, Note_on_c, 0, 77, 92
2, 261312, Note_off_c, 0, 77, 64
2, 261312, Note_on_c, 0, 74, 92
2, 261504, Note_off_c, 0, 74, 64
2, 261504, Note_off_c, 0, 71, 64
2, 261504, Note_on_c, 0, 71, 92
2, 261696, Note_off_c, 0, 71, 64
2, 261696, Note_on_c, 0, 74, 92
2, 261888, Note_off_c, 0, 74, 64
2, 261888, Note_on_c, 0, 76, 92
2, 261888, Note_on_c, 0, 67, 92
2, 262080, Note_off_c, 0, 76, 64
2, 262080, Note_on_c, 0, 79, 92
2, 262176, Note_off_c, 0, 79, 64
2, 262176, Note_on_c, 0, 77, 92
2, 262272, Note_off_c, 0, 77, 64
2, 262272, Note_on_c, 0, 76, 92
2, 262464, Note_off_c, 0, 76, 64
2, 262464, Note_on_c, 0, 79, 92
2, 262656, Note_off_c, 0, 79, 64
2, 262656, Note_off_c, 0, 67, 64
2, 262656, Note_on_c, 0, 76, 92
2, 262848, Note_off_c, 0, 76, 64
2, 262848, Note_on_c, 0, 79, 92
2, 263040, Note_off_c, 0, 79, 64
2, 263040, Note_on_c, 0, 77, 92
2, 263040, Note_on_c, 0, 71, 92
2, 263232, Note_off_c, 0, 77, 64
2, 263232, Note_on_c, 0, 74, 92
2, 263328, Note_off_c, 0, 74, 64
2, 263328, Note_on_c, 0, 76, 92
2, 263424, Note_off_c, 0, 76, 64
2, 263424, Note_on_c, 0, 77, 92
2, 263616, Note_off_c, 0, 77, 64
2, 263616, Note_on_c, 0, 74, 92
2, 263808, Note_off_c, 0, 74, 64
2, 263808, Note_off_c, 0, 71, 64
2, 263808, Note_on_c, 0, 71, 92
2, 264000, Note_off_c, 0, 71, 64
2, 264000, Note_on_c, 0, 74, 92
2, 264192, Note_off_c, 0, 74, 64
2, 264192, Note_on_c, 0, 67, 92
2, 264192, Note_on_c, 0, 76, 92
2, 264576, Note_off_c, 0, 76, 64
2, 264576, Note_off_c, 0, 67, 64
2, 265248, Note_on_c, 0, 69, 92
2, 265248, Note_on_c, 0, 73, 92
2, 265248, Note_on_c, 0, 79, 92
2, 265344, Note_off_c, 0, 79, 64
2, 265344, Note_off_c, 0, 73, 64
2, 265344, Note_off_c, 0, 69, 64
2, 265344, Note_on_c, 0, 69, 92
2, 265344, Note_on_c, 0, 73, 92
2, 265344, Note_on_c, 0, 79, 92
2, 265728, Note_off_c, 0, 79, 64
2, 265728, Note_off_c, 0, 73, 64
2, 265728, Note_off_c, 0, 69, 64
2, 266400, Note_on_c, 0, 69, 92
2, 266400, Note_on_c, 0, 74, 92
2, 266400, Note_on_c, 0, 78, 92
2, 266496, Note_off_c, 0, 78, 64
2, 266496, Note_off_c, 0, 74, 64
2, 266496, Note_off_c, 0, 69, 64
2, 266496, Note_on_c, 0, 69, 92
2, 266496, Note_on_c, 0, 74, 92
2, 266496, Note_on_c, 0, 78, 92
2, 266880, Note_off_c, 0, 78, 64
2, 266880, Note_off_c, 0, 74, 64
2, 266880, Note_off_c, 0, 69, 64
2, 267552, Note_on_c, 0, 71, 92
2, 267552, Note_on_c, 0, 75, 92
2, 267552, Note_on_c, 0, 81, 92
2, 267648, Note_off_c, 0, 81, 64
2, 267648, Note_off_c, 0, 75, 64
2, 267648, Note_off_c, 0, 71, 64
2, 267648, Note_on_c, 0, 71, 92
2, 267648, Note_on_c, 0, 75, 92
2, 267648, Note_on_c, 0, 81, 92
2, 268032, Note_off_c, 0, 81, 64
2, 268032, Note_off_c, 0, 75, 64
2, 268032, Note_off_c, 0, 71, 64
2, 268704, Note_on_c, 0, 71, 92
2, 268704, Note_on_c, 0, 76, 92
2, 268704, Note_on_c, 0, 80, 92
2, 268800, Note_off_c, 0, 80, 64
2, 268800, Note_off_c, 0, 76, 64
2, 268800, Note_off_c, 0, 71, 64
2, 268800, Note_on_c, 0, 71, 92
2, 268800, Note_on_c, 0, 76, 92
2, 268800, Note_on_c, 0, 80, 92
2, 269184, Note_off_c, 0, 80, 64
2, 269184, Note_off_c, 0, 76, 64
2, 269184, Note_off_c, 0, 71, 64
2, 269952, Note_on_c, 0, 81, 92
2, 270144, Note_off_c, 0, 81, 64
2, 270144, Note_on_c, 0, 79, 92
2, 270240, Note_off_c, 0, 79, 64
2, 270240, Note_on_c, 0, 77, 92
2, 270336, Note_off_c, 0, 77, 64
2, 270336, Note_on_c, 0, 76, 92
2, 270432, Note_off_c, 0, 76, 64
2, 270432, Note_on_c, 0, 81, 92
2, 270528, Note_off_c, 0, 81, 64
2, 270528, Note_on_c, 0, 79, 92
2, 270624, Note_off_c, 0, 79, 64
2, 270624, Note_on_c, 0, 77, 92
2, 270720, Note_off_c, 0, 77, 64
2, 270720, Note_on_c, 0, 76, 92
2, 270816, Note_off_c, 0, 76, 64
2, 270816, Note_on_c, 0, 74, 92
2, 270912, Note_off_c, 0, 74, 64
2, 270912, Note_on_c, 0, 72, 92
2, 271008, Note_off_c, 0, 72, 64
2, 271008, Note_on_c, 0, 71, 92
2, 271104, Note_off_c, 0, 71, 64
2, 271104, Note_on_c, 0, 69, 92
2, 271296, Note_off_c, 0, 69, 64
2, 271296, Note_on_c, 0, 67, 92
2, 271392, Note_off_c, 0, 67, 64
2, 271392, Note_on_c, 0, 65, 92
2, 271488, Note_off_c, 0, 65, 64
2, 271488, Note_on_c, 0, 64, 92
2, 271584, Note_off_c, 0, 64, 64
2, 271584, Note_on_c, 0, 69, 92
2, 271680, Note_off_c, 0, 69, 64
2, 271680, Note_on_c, 0, 67, 92
2, 271776, Note_off_c, 0, 67, 64
2, 271776, Note_on_c, 0, 65, 92
2, 271872, Note_off_c, 0, 65, 64
2, 271872, Note_on_c, 0, 64, 92
2, 271968, Note_off_c, 0, 64, 64
2, 271968, Note_on_c, 0, 62, 92
2, 272064, Note_off_c, 0, 62, 64
2, 272064, Note_on_c, 0, 60, 92
2, 272160, Note_off_c, 0, 60, 64
2, 272160, Note_on_c, 0, 59, 92
2, 272256, Note_off_c, 0, 59, 64
2, 272256, Note_on_c, 0, 57, 92
2, 272640, Note_off_c, 0, 57, 64
2, 272640, Note_on_c, 0, 76, 92
2, 272640, Note_on_c, 0, 81, 92
2, 273024, Note_off_c, 0, 76, 64
2, 273024, Note_on_c, 0, 75, 92
2, 273216, Note_off_c, 0, 75, 64
2, 273216, Note_on_c, 0, 76, 92
2, 273408, Note_off_c, 0, 76, 64
2, 273408, Note_off_c, 0, 81, 64
2, 273408, Note_on_c, 0, 78, 92
2, 273408, Note_on_c, 0, 81, 92
2, 273792, Note_off_c, 0, 81, 64
2, 273792, Note_off_c, 0, 78, 64
2, 274176, Note_on_c, 0, 71, 92
2, 274176, Note_on_c, 0, 76, 92
2, 274176, Note_on_c, 0, 79, 92
2, 274560, Note_off_c, 0, 79, 64
2, 274560, Note_off_c, 0, 76, 64
2, 274560, Note_off_c, 0, 71, 64
2, 274560, Note_on_c, 0, 72, 92
2, 274560, Note_on_c, 0, 76, 92
2, 274560, Note_on_c, 0, 79, 92
2, 274944, Note_off_c, 0, 79, 64
2, 274944, Note_off_c, 0, 76, 64
2, 274944, Note_off_c, 0, 72, 64
2, 274944, Note_on_c, 0, 72, 92
2, 274944, Note_on_c, 0, 76, 92
2, 274944, Note_on_c, 0, 78, 92
2, 275328, Note_off_c, 0, 78, 64
2, 275328, Note_off_c, 0, 76, 64
2, 275328, Note_off_c, 0, 72, 64
2, 275328, Note_on_c, 0, 71, 92
2, 275328, Note_on_c, 0, 75, 92
2, 275520, Note_on_c, 0, 78, 92
2, 275712, Note_off_c, 0, 78, 64
2, 275712, Note_off_c, 0, 75, 64
2, 275712, Note_off_c, 0, 71, 64
2, 275712, Note_on_c, 0, 76, 92
2, 275712, Note_on_c, 0, 71, 92
2, 275808, Note_off_c, 0, 76, 64
2, 275808, Note_on_c, 0, 79, 92
2, 275904, Note_off_c, 0, 79, 64
2, 275904, Note_on_c, 0, 77, 92
2, 276000, Note_off_c, 0, 77, 64
2, 276000, Note_on_c, 0, 79, 92
2, 276096, Note_off_c, 0, 79, 64
2, 276096, Note_off_c, 0, 71, 64
2, 276096, Note_on_c, 0, 76, 92
2, 276192, Note_off_c, 0, 76, 64
2, 276192, Note_on_c, 0, 77, 92
2, 276288, Note_off_c, 0, 77, 64
2, 276288, Note_on_c, 0, 74, 92
2, 276384, Note_off_c, 0, 74, 64
2, 276384, Note_on_c, 0, 76, 92
2, 276480, Note_off_c, 0, 76, 64
2, 276480, Note_on_c, 0, 73, 92
2, 276576, Note_off_c, 0, 73, 64
2, 276576, Note_on_c, 0, 74, 92
2, 276672, Note_off_c, 0, 74, 64
2, 276672, Note_on_c, 0, 71, 92
2, 276768, Note_off_c, 0, 71, 64
2, 276768, Note_on_c, 0, 73, 92
2, 276864, Note_off_c, 0, 73, 64
2, 276864, Note_on_c, 0, 69, 92
2, 277056, Note_off_c, 0, 69, 64
2, 277056, Note_on_c, 0, 77, 92
2, 277056, Note_on_c, 0, 74, 92
2, 277056, Note_on_c, 0, 69, 92
2, 277248, Note_off_c, 0, 69, 64
2, 277248, Note_off_c, 0, 74, 64
2, 277248, Note_off_c, 0, 77, 64
2, 277248, Note_on_c, 0, 77, 92
2, 277248, Note_on_c, 0, 74, 92
2, 277248, Note_on_c, 0, 69, 92
2, 277440, Note_off_c, 0, 69, 64
2, 277440, Note_off_c, 0, 74, 64
2, 277440, Note_off_c, 0, 77, 64
2, 277440, Note_on_c, 0, 77, 92
2, 277440, Note_on_c, 0, 74, 92
2, 277440, Note_on_c, 0, 69, 92
2, 277632, Note_off_c, 0, 69, 64
2, 277632, Note_off_c, 0, 74, 64
2, 277632, Note_off_c, 0, 77, 64
2, 277632, Note_on_c, 0, 77, 92
2, 277632, Note_on_c, 0, 74, 92
2, 277632, Note_on_c, 0, 70, 92
2, 277824, Note_off_c, 0, 70, 64
2, 277824, Note_off_c, 0, 74, 64
2, 277824, Note_off_c, 0, 77, 64
2, 277824, Note_on_c, 0, 77, 92
2, 277824, Note_on_c, 0, 74, 92
2, 277824, Note_on_c, 0, 70, 92
2, 278016, Note_off_c, 0, 70, 64
2, 278016, Note_off_c, 0, 74, 64
2, 278016, Note_off_c, 0, 77, 64
2, 278016, Note_on_c, 0, 76, 92
2, 278016, Note_on_c, 0, 74, 92
2, 278016, Note_on_c, 0, 70, 92
2, 278208, Note_off_c, 0, 70, 64
2, 278208, Note_off_c, 0, 74, 64
2, 278208, Note_off_c, 0, 76, 64
2, 278208, Note_on_c, 0, 76, 92
2, 278208, Note_on_c, 0, 74, 92
2, 278208, Note_on_c, 0, 70, 92
2, 278400, Note_off_c, 0, 70, 64
2, 278400, Note_off_c, 0, 74, 64
2, 278400, Note_off_c, 0, 76, 64
2, 278400, Note_on_c, 0, 76, 92
2, 278400, Note_on_c, 0, 74, 92
2, 278400, Note_on_c, 0, 70, 92
2, 278592, Note_off_c, 0, 70, 64
2, 278592, Note_off_c, 0, 74, 64
2, 278592, Note_off_c, 0, 76, 64
2, 278592, Note_on_c, 0, 76, 92
2, 278592, Note_on_c, 0, 74, 92
2, 278592, Note_on_c, 0, 70, 92
2, 278784, Note_off_c, 0, 70, 64
2, 278784, Note_off_c, 0, 74, 64
2, 278784, Note_off_c, 0, 76, 64
2, 278784, Note_on_c, 0, 76, 92
2, 278784, Note_on_c, 0, 73, 92
2, 278784, Note_on_c, 0, 69, 92
2, 278976, Note_off_c, 0, 69, 64
2, 278976, Note_off_c, 0, 73, 64
2, 278976, Note_off_c, 0, 76, 64
2, 278976, Note_on_c, 0, 76, 92
2, 278976, Note_on_c, 0, 73, 92
2, 278976, Note_on_c, 0, 69, 92
2, 279168, Note_off_c, 0, 69, 64
2, 279168, Note_off_c, 0, 73, 64
2, 279168, Note_off_c, 0, 76, 64
2, 279168, Note_on_c, 0, 69, 92
2, 279168, Note_on_c, 0, 74, 92
2, 279264, Note_off_c, 0, 74, 64
2, 279264, Note_off_c, 0, 69, 64
2, 279264, Note_on_c, 0, 77, 92
2, 279360, Note_off_c, 0, 77, 64
2, 279360, Note_on_c, 0, 76, 92
2, 279456, Note_off_c, 0, 76, 64
2, 279456, Note_on_c, 0, 77, 92
2, 279552, Note_off_c, 0, 77, 64
2, 279552, Note_on_c, 0, 74, 92
2, 279648, Note_off_c, 0, 74, 64
2, 279648, Note_on_c, 0, 76, 92
2, 279744, Note_off_c, 0, 76, 64
2, 279744, Note_on_c, 0, 72, 92
2, 279840, Note_off_c, 0, 72, 64
2, 279840, Note_on_c, 0, 74, 92
2, 279936, Note_off_c, 0, 74, 64
2, 279936, Note_on_c, 0, 71, 92
2, 280032, Note_off_c, 0, 71, 64
2, 280032, Note_on_c, 0, 72, 92
2, 280128, Note_off_c, 0, 72, 64
2, 280128, Note_on_c, 0, 69, 92
2, 280224, Note_off_c, 0, 69, 64
2, 280224, Note_on_c, 0, 71, 92
2, 280320, Note_off_c, 0, 71, 64
2, 280320, Note_on_c, 0, 67, 92
2, 280512, Note_off_c, 0, 67, 64
2, 280512, Note_on_c, 0, 76, 92
2, 280512, Note_on_c, 0, 72, 92
2, 280512, Note_on_c, 0, 67, 92
2, 280704, Note_off_c, 0, 67, 64
2, 280704, Note_off_c, 0, 72, 64
2, 280704, Note_off_c, 0, 76, 64
2, 280704, Note_on_c, 0, 76, 92
2, 280704, Note_on_c, 0, 72, 92
2, 280704, Note_on_c, 0, 67, 92
2, 280896, Note_off_c, 0, 67, 64
2, 280896, Note_off_c, 0, 72, 64
2, 280896, Note_off_c, 0, 76, 64
2, 280896, Note_on_c, 0, 76, 92
2, 280896, Note_on_c, 0, 72, 92
2, 280896, Note_on_c, 0, 67, 92
2, 281088, Note_off_c, 0, 67, 64
2, 281088, Note_off_c, 0, 72, 64
2, 281088, Note_off_c, 0, 76, 64
2, 281088, Note_on_c, 0, 76, 92
2, 281088, Note_on_c, 0, 72, 92
2, 281088, Note_on_c, 0, 67, 92
2, 281280, Note_off_c, 0, 67, 64
2, 281280, Note_off_c, 0, 72, 64
2, 281280, Note_off_c, 0, 76, 64
2, 281280, Note_on_c, 0, 76, 92
2, 281280, Note_on_c, 0, 72, 92
2, 281280, Note_on_c, 0, 67, 92
2, 281472, Note_off_c, 0, 67, 64
2, 281472, Note_off_c, 0, 72, 64
2, 281472, Note_off_c, 0, 76, 64
2, 281472, Note_on_c, 0, 74, 92
2, 281472, Note_on_c, 0, 72, 92
2, 281472, Note_on_c, 0, 69, 92
2, 281664, Note_off_c, 0, 69, 64
2, 281664, Note_off_c, 0, 72, 64
2, 281664, Note_off_c, 0, 74, 64
2, 281664, Note_on_c, 0, 74, 92
2, 281664, Note_on_c, 0, 72, 92
2, 281664, Note_on_c, 0, 69, 92
2, 281856, Note_off_c, 0, 69, 64
2, 281856, Note_off_c, 0, 72, 64
2, 281856, Note_off_c, 0, 74, 64
2, 281856, Note_on_c, 0, 74, 92
2, 281856, Note_on_c, 0, 72, 92
2, 281856, Note_on_c, 0, 69, 92
2, 282048, Note_off_c, 0, 69, 64
2, 282048, Note_off_c, 0, 72, 64
2, 282048, Note_off_c, 0, 74, 64
2, 282048, Note_on_c, 0, 74, 92
2, 282048, Note_on_c, 0, 72, 92
2, 282048, Note_on_c, 0, 69, 92
2, 282240, Note_off_c, 0, 69, 64
2, 282240, Note_off_c, 0, 72, 64
2, 282240, Note_off_c, 0, 74, 64
2, 282240, Note_on_c, 0, 74, 92
2, 282240, Note_on_c, 0, 71, 92
2, 282240, Note_on_c, 0, 67, 92
2, 282432, Note_off_c, 0, 67, 64
2, 282432, Note_off_c, 0, 71, 64
2, 282432, Note_off_c, 0, 74, 64
2, 282432, Note_on_c, 0, 74, 92
2, 282432, Note_on_c, 0, 71, 92
2, 282432, Note_on_c, 0, 67, 92
2, 282624, Note_off_c, 0, 67, 64
2, 282624, Note_off_c, 0, 71, 64
2, 282624, Note_off_c, 0, 74, 64
2, 282624, Note_on_c, 0, 67, 92
2, 282624, Note_on_c, 0, 72, 92
2, 282720, Note_off_c, 0, 72, 64
2, 282720, Note_off_c, 0, 67, 64
2, 282720, Note_on_c, 0, 71, 92
2, 282816, Note_off_c, 0, 71, 64
2, 282816, Note_on_c, 0, 72, 92
2, 282912, Note_off_c, 0, 72, 64
2, 282912, Note_on_c, 0, 74, 92
2, 283008, Note_off_c, 0, 74, 64
2, 283008, Note_on_c, 0, 72, 92
2, 283008, Note_on_c, 0, 76, 92
2, 283104, Note_off_c, 0, 76, 64
2, 283104, Note_off_c, 0, 72, 64
2, 283296, Note_on_c, 0, 72, 92
2, 283296, Note_on_c, 0, 76, 92
2, 283392, Note_off_c, 0, 76, 64
2, 283392, Note_off_c, 0, 72, 64
2, 283392, Note_on_c, 0, 72, 92
2, 283392, Note_on_c, 0, 76, 92
2, 283488, Note_off_c, 0, 76, 64
2, 283488, Note_off_c, 0, 72, 64
2, 283680, Note_on_c, 0, 72, 92
2, 283680, Note_on_c, 0, 76, 92
2, 283776, Note_off_c, 0, 76, 64
2, 283776, Note_off_c, 0, 72, 64
2, 283776, Note_on_c, 0, 74, 92
2, 283776, Note_on_c, 0, 77, 92
2, 283872, Note_off_c, 0, 77, 64
2, 283872, Note_off_c, 0, 74, 64
2, 284064, Note_on_c, 0, 74, 92
2, 284064, Note_on_c, 0, 77, 92
2, 284160, Note_off_c, 0, 77, 64
2, 284160, Note_off_c, 0, 74, 64
2, 284160, Note_on_c, 0, 74, 92
2, 284160, Note_on_c, 0, 77, 92
2, 284256, Note_off_c, 0, 77, 64
2, 284256, Note_off_c, 0, 74, 64
2, 284448, Note_on_c, 0, 74, 92
2, 284448, Note_on_c, 0, 77, 92
2, 284544, Note_off_c, 0, 77, 64
2, 284544, Note_off_c, 0, 74, 64
2, 284544, Note_on_c, 0, 74, 92
2, 284544, Note_on_c, 0, 77, 92
2, 284640, Note_off_c, 0, 77, 64
2, 284640, Note_off_c, 0, 74, 64
2, 284832, Note_on_c, 0, 74, 92
2, 284832, Note_on_c, 0, 77, 92
2, 284928, Note_off_c, 0, 77, 64
2, 284928, Note_off_c, 0, 74, 64
2, 284928, Note_on_c, 0, 71, 92
2, 284928, Note_on_c, 0, 74, 92
2, 285024, Note_off_c, 0, 74, 64
2, 285024, Note_off_c, 0, 71, 64
2, 285216, Note_on_c, 0, 71, 92
2, 285216, Note_on_c, 0, 74, 92
2, 285312, Note_off_c, 0, 74, 64
2, 285312, Note_off_c, 0, 71, 64
2, 285312, Note_on_c, 0, 71, 92
2, 285312, Note_on_c, 0, 74, 92
2, 285408, Note_off_c, 0, 74, 64
2, 285408, Note_off_c, 0, 71, 64
2, 285600, Note_on_c, 0, 71, 92
2, 285600, Note_on_c, 0, 74, 92
2, 285696, Note_off_c, 0, 74, 64
2, 285696, Note_off_c, 0, 71, 64
2, 285696, Note_on_c, 0, 71, 92
2, 285696, Note_on_c, 0, 74, 92
2, 285792, Note_off_c, 0, 74, 64
2, 285792, Note_off_c, 0, 71, 64
2, 285984, Note_on_c, 0, 71, 92
2, 285984, Note_on_c, 0, 74, 92
2, 286080, Note_off_c, 0, 74, 64
2, 286080, Note_off_c, 0, 71, 64
2, 286080, Note_on_c, 0, 72, 92
2, 286080, Note_on_c, 0, 76, 92
2, 286176, Note_off_c, 0, 76, 64
2, 286176, Note_off_c, 0, 72, 64
2, 286368, Note_on_c, 0, 72, 92
2, 286368, Note_on_c, 0, 76, 92
2, 286464, Note_off_c, 0, 76, 64
2, 286464, Note_off_c, 0, 72, 64
2, 286464, Note_on_c, 0, 72, 92
2, 286464, Note_on_c, 0, 76, 92
2, 286560, Note_off_c, 0, 76, 64
2, 286560, Note_off_c, 0, 72, 64
2, 286752, Note_on_c, 0, 72, 92
2, 286752, Note_on_c, 0, 76, 92
2, 286848, Note_off_c, 0, 76, 64
2, 286848, Note_off_c, 0, 72, 64
2, 286848, Note_on_c, 0, 76, 92
2, 286848, Note_on_c, 0, 72, 92
2, 286944, Note_off_c, 0, 72, 64
2, 286944, Note_off_c, 0, 76, 64
2, 287136, Note_on_c, 0, 72, 92
2, 287136, Note_on_c, 0, 76, 92
2, 287232, Note_off_c, 0, 76, 64
2, 287232, Note_off_c, 0, 72, 64
2, 287232, Note_on_c, 0, 69, 92
2, 287232, Note_on_c, 0, 72, 92
2, 287328, Note_off_c, 0, 72, 64
2, 287328, Note_off_c, 0, 69, 64
2, 287520, Note_on_c, 0, 69, 92
2, 287520, Note_on_c, 0, 72, 92
2, 287616, Note_off_c, 0, 72, 64
2, 287616, Note_off_c, 0, 69, 64
2, 287616, Note_on_c, 0, 69, 92
2, 287616, Note_on_c, 0, 72, 92
2, 287712, Note_off_c, 0, 72, 64
2, 287712, Note_off_c, 0, 69, 64
2, 287904, Note_on_c, 0, 69, 92
2, 287904, Note_on_c, 0, 72, 92
2, 288000, Note_off_c, 0, 72, 64
2, 288000, Note_off_c, 0, 69, 64
2, 288000, Note_on_c, 0, 69, 92
2, 288000, Note_on_c, 0, 72, 92
2, 288096, Note_off_c, 0, 72, 64
2, 288096, Note_off_c, 0, 69, 64
2, 288288, Note_on_c, 0, 69, 92
2, 288288, Note_on_c, 0, 72, 92
2, 288384, Note_off_c, 0, 72, 64
2, 288384, Note_off_c, 0, 69, 64
2, 288384, Note_on_c, 0, 71, 92
2, 288384, Note_on_c, 0, 74, 92
2, 288480, Note_off_c, 0, 74, 64
2, 288480, Note_off_c, 0, 71, 64
2, 288672, Note_on_c, 0, 71, 92
2, 288672, Note_on_c, 0, 74, 92
2, 288768, Note_off_c, 0, 74, 64
2, 288768, Note_off_c, 0, 71, 64
2, 288768, Note_on_c, 0, 74, 92
2, 288768, Note_on_c, 0, 71, 92
2, 288864, Note_off_c, 0, 71, 64
2, 288864, Note_off_c, 0, 74, 64
2, 289056, Note_on_c, 0, 71, 92
2, 289056, Note_on_c, 0, 74, 92
2, 289152, Note_off_c, 0, 74, 64
2, 289152, Note_off_c, 0, 71, 64
2, 289152, Note_on_c, 0, 71, 92
2, 289152, Note_on_c, 0, 74, 92
2, 289248, Note_off_c, 0, 74, 64
2, 289248, Note_off_c, 0, 71, 64
2, 289440, Note_on_c, 0, 71, 92
2, 289440, Note_on_c, 0, 74, 92
2, 289536, Note_off_c, 0, 74, 64
2, 289536, Note_off_c, 0, 71, 64
2, 289536, Note_on_c, 0, 68, 92
2, 289536, Note_on_c, 0, 71, 92
2, 289632, Note_off_c, 0, 71, 64
2, 289632, Note_off_c, 0, 68, 64
2, 289824, Note_on_c, 0, 68, 92
2, 289824, Note_on_c, 0, 71, 92
2, 289920, Note_off_c, 0, 71, 64
2, 289920, Note_off_c, 0, 68, 64
2, 289920, Note_on_c, 0, 71, 92
2, 289920, Note_on_c, 0, 68, 92
2, 290016, Note_off_c, 0, 68, 64
2, 290016, Note_off_c, 0, 71, 64
2, 290208, Note_on_c, 0, 68, 92
2, 290208, Note_on_c, 0, 71, 92
2, 290304, Note_off_c, 0, 71, 64
2, 290304, Note_off_c, 0, 68, 64
2, 290304, Note_on_c, 0, 68, 92
2, 290304, Note_on_c, 0, 71, 92
2, 290400, Note_off_c, 0, 71, 64
2, 290400, Note_off_c, 0, 68, 64
2, 290592, Note_on_c, 0, 68, 92
2, 290592, Note_on_c, 0, 71, 92
2, 290688, Note_off_c, 0, 71, 64
2, 290688, Note_off_c, 0, 68, 64
2, 290688, Note_on_c, 0, 69, 92
2, 290688, Note_on_c, 0, 72, 92
2, 290880, Note_off_c, 0, 72, 64
2, 290880, Note_off_c, 0, 69, 64
2, 290880, Note_on_c, 0, 72, 92
2, 291072, Note_off_c, 0, 72, 64
2, 291072, Note_on_c, 0, 71, 92
2, 291264, Note_off_c, 0, 71, 64
2, 291264, Note_on_c, 0, 69, 92
2, 291456, Note_off_c, 0, 69, 64
2, 291456, Note_on_c, 0, 67, 92
2, 291648, Note_off_c, 0, 67, 64
2, 291648, Note_on_c, 0, 65, 92
2, 291840, Note_off_c, 0, 65, 64
2, 291840, Note_on_c, 0, 64, 92
2, 292032, Note_off_c, 0, 64, 64
2, 292032, Note_on_c, 0, 69, 92
2, 292224, Note_off_c, 0, 69, 64
2, 292224, Note_on_c, 0, 67, 92
2, 292416, Note_off_c, 0, 67, 64
2, 292416, Note_on_c, 0, 65, 92
2, 292608, Note_off_c, 0, 65, 64
2, 292608, Note_on_c, 0, 64, 92
2, 292800, Note_off_c, 0, 64, 64
2, 292800, Note_on_c, 0, 62, 92
2, 292992, Note_off_c, 0, 62, 64
2, 292992, Note_on_c, 0, 60, 92
2, 293184, Note_off_c, 0, 60, 64
2, 293184, Note_on_c, 0, 69, 92
2, 293376, Note_off_c, 0, 69, 64
2, 293376, Note_on_c, 0, 67, 92
2, 293568, Note_off_c, 0, 67, 64
2, 293568, Note_on_c, 0, 65, 92
2, 293760, Note_off_c, 0, 65, 64
2, 293760, Note_on_c, 0, 64, 92
2, 293952, Note_off_c, 0, 64, 64
2, 293952, Note_on_c, 0, 62, 92
2, 294144, Note_off_c, 0, 62, 64
2, 294144, Note_on_c, 0, 60, 92
2, 294336, Note_off_c, 0, 60, 64
2, 294336, Note_on_c, 0, 65, 92
2, 294528, Note_off_c, 0, 65, 64
2, 294528, Note_on_c, 0, 64, 92
2, 294720, Note_off_c, 0, 64, 64
2, 294720, Note_on_c, 0, 62, 92
2, 294912, Note_off_c, 0, 62, 64
2, 294912, Note_on_c, 0, 60, 92
2, 295104, Note_off_c, 0, 60, 64
2, 295104, Note_on_c, 0, 59, 92
2, 295296, Note_off_c, 0, 59, 64
2, 295296, Note_on_c, 0, 57, 92
2, 295392, Note_off_c, 0, 57, 64
2, 296448, Note_on_c, 0, 76, 92
2, 296832, Note_off_c, 0, 76, 64
2, 296832, Note_on_c, 0, 81, 92
2, 297408, Note_off_c, 0, 81, 64
2, 297408, Note_on_c, 0, 84, 92
2, 297600, Note_off_c, 0, 84, 64
2, 297600, Note_on_c, 0, 74, 92
2, 299136, Note_off_c, 0, 74, 64
2, 299136, Note_on_c, 0, 83, 92
2, 299328, Note_off_c, 0, 83, 64
2, 299328, Note_on_c, 0, 80, 92
2, 299520, Note_off_c, 0, 80, 64
2, 299520, Note_on_c, 0, 81, 92
2, 299712, Note_off_c, 0, 81, 64
2, 299712, Note_on_c, 0, 83, 92
2, 299904, Note_off_c, 0, 83, 64
2, 299904, Note_on_c, 0, 74, 92
2, 301056, Note_off_c, 0, 74, 64
2, 301056, Note_on_c, 0, 83, 92
2, 301344, Note_off_c, 0, 83, 64
2, 301344, Note_on_c, 0, 81, 92
2, 301440, Note_off_c, 0, 81, 64
2, 301440, Note_on_c, 0, 80, 92
2, 301728, Note_off_c, 0, 80, 64
2, 301728, Note_on_c, 0, 78, 92
2, 301824, Note_off_c, 0, 78, 64
2, 301824, Note_on_c, 0, 76, 92
2, 302112, Note_off_c, 0, 76, 64
2, 302112, Note_on_c, 0, 74, 92
2, 302208, Note_off_c, 0, 74, 64
2, 302208, Note_on_c, 0, 72, 92
2, 302784, Note_off_c, 0, 72, 64
2, 302784, Note_on_c, 0, 71, 92
2, 302976, Note_off_c, 0, 71, 64
2, 302976, Note_on_c, 0, 69, 92
2, 303360, Note_off_c, 0, 69, 64
2, 303360, Note_on_c, 0, 72, 92
2, 303744, Note_off_c, 0, 72, 64
2, 303744, Note_on_c, 0, 76, 92
2, 304320, Note_off_c, 0, 76, 64
2, 304320, Note_on_c, 0, 81, 92
2, 304512, Note_off_c, 0, 81, 64
2, 304512, Note_on_c, 0, 71, 92
2, 305856, Note_off_c, 0, 71, 64
2, 305856, Note_on_c, 0, 76, 92
2, 306048, Note_off_c, 0, 76, 64
2, 306048, Note_on_c, 0, 76, 92
2, 306240, Note_off_c, 0, 76, 64
2, 306240, Note_on_c, 0, 79, 92
2, 306432, Note_off_c, 0, 79, 64
2, 306432, Note_on_c, 0, 79, 92
2, 306624, Note_off_c, 0, 79, 64
2, 306624, Note_on_c, 0, 71, 92
2, 306816, Note_off_c, 0, 71, 64
2, 306816, Note_on_c, 0, 69, 92
2, 307008, Note_off_c, 0, 69, 64
2, 307008, Note_on_c, 0, 73, 92
2, 307200, Note_off_c, 0, 73, 64
2, 307200, Note_on_c, 0, 73, 92
2, 307392, Note_off_c, 0, 73, 64
2, 307392, Note_on_c, 0, 76, 92
2, 307584, Note_off_c, 0, 76, 64
2, 307584, Note_on_c, 0, 76, 92
2, 307776, Note_off_c, 0, 76, 64
2, 307776, Note_on_c, 0, 79, 92
2, 307968, Note_off_c, 0, 79, 64
2, 307968, Note_on_c, 0, 79, 92
2, 308544, Note_off_c, 0, 79, 64
2, 308544, Note_on_c, 0, 81, 92
2, 308736, Note_off_c, 0, 81, 64
2, 308736, Note_on_c, 0, 77, 92
2, 308928, Note_off_c, 0, 77, 64
2, 308928, Note_on_c, 0, 76, 92
2, 309120, Note_off_c, 0, 76, 64
2, 309120, Note_on_c, 0, 77, 92
2, 309696, Note_off_c, 0, 77, 64
2, 309696, Note_on_c, 0, 76, 92
2, 309888, Note_off_c, 0, 76, 64
2, 309888, Note_on_c, 0, 74, 92
2, 310272, Note_off_c, 0, 74, 64
2, 311424, Note_on_c, 0, 69, 92
2, 311808, Note_off_c, 0, 69, 64
2, 311808, Note_on_c, 0, 72, 92
2, 312192, Note_off_c, 0, 72, 64
2, 312192, Note_on_c, 0, 76, 92
2, 312576, Note_off_c, 0, 76, 64
2, 312576, Note_on_c, 0, 81, 92
2, 313728, Note_off_c, 0, 81, 64
2, 313728, Note_on_c, 0, 72, 92
2, 314112, Note_off_c, 0, 72, 64
2, 314112, Note_on_c, 0, 78, 92
2, 314496, Note_off_c, 0, 78, 64
2, 314496, Note_on_c, 0, 81, 92
2, 314880, Note_off_c, 0, 81, 64
2, 314880, Note_on_c, 0, 84, 92
2, 315456, Note_off_c, 0, 84, 64
2, 315456, Note_on_c, 0, 74, 92
2, 315648, Note_off_c, 0, 74, 64
2, 315648, Note_on_c, 0, 78, 92
2, 315840, Note_off_c, 0, 78, 64
2, 315840, Note_on_c, 0, 81, 92
2, 315936, Note_off_c, 0, 81, 64
2, 315936, Note_on_c, 0, 79, 92
2, 316032, Note_off_c, 0, 79, 64
2, 316032, Note_on_c, 0, 81, 92
2, 316224, Note_off_c, 0, 81, 64
2, 316224, Note_on_c, 0, 82, 92
2, 316320, Note_off_c, 0, 82, 64
2, 316320, Note_on_c, 0, 84, 92
2, 316416, Note_off_c, 0, 84, 64
2, 316416, Note_on_c, 0, 74, 92
2, 316608, Note_off_c, 0, 74, 64
2, 316608, Note_on_c, 0, 84, 92
2, 316800, Note_off_c, 0, 84, 64
2, 316800, Note_on_c, 0, 82, 92
2, 316848, Note_off_c, 0, 82, 64
2, 316848, Note_on_c, 0, 84, 92
2, 316896, Note_off_c, 0, 84, 64
2, 316896, Note_on_c, 0, 81, 92
2, 316992, Note_off_c, 0, 81, 64
2, 316992, Note_on_c, 0, 82, 92
2, 317184, Note_off_c, 0, 82, 64
2, 317184, Note_on_c, 0, 82, 92
2, 318336, Note_off_c, 0, 82, 64
2, 319488, Note_on_c, 0, 74, 92
2, 319872, Note_off_c, 0, 74, 64
2, 319872, Note_on_c, 0, 78, 92
2, 320256, Note_off_c, 0, 78, 64
2, 320256, Note_on_c, 0, 81, 92
2, 320640, Note_off_c, 0, 81, 64
2, 320640, Note_on_c, 0, 84, 92
2, 321792, Note_off_c, 0, 84, 64
2, 321792, Note_on_c, 0, 71, 92
2, 322176, Note_off_c, 0, 71, 64
2, 322176, Note_on_c, 0, 74, 92
2, 322560, Note_off_c, 0, 74, 64
2, 322560, Note_on_c, 0, 79, 92
2, 322944, Note_off_c, 0, 79, 64
2, 322944, Note_on_c, 0, 83, 92
2, 323232, Note_off_c, 0, 83, 64
2, 323232, Note_on_c, 0, 81, 92
2, 323328, Note_off_c, 0, 81, 64
2, 323328, Note_on_c, 0, 79, 92
2, 323616, Note_off_c, 0, 79, 64
2, 323616, Note_on_c, 0, 77, 92
2, 323712, Note_off_c, 0, 77, 64
2, 323712, Note_on_c, 0, 76, 92
2, 323904, Note_off_c, 0, 76, 64
2, 323904, Note_on_c, 0, 77, 92
2, 324000, Note_off_c, 0, 77, 64
2, 324000, Note_on_c, 0, 74, 92
2, 324096, Note_off_c, 0, 74, 64
2, 324096, Note_on_c, 0, 76, 92
2, 324288, Note_off_c, 0, 76, 64
2, 324288, Note_on_c, 0, 72, 92
2, 324480, Note_off_c, 0, 72, 64
2, 324480, Note_on_c, 0, 76, 92
2, 324672, Note_off_c, 0, 76, 64
2, 324672, Note_on_c, 0, 79, 92
2, 324864, Note_off_c, 0, 79, 64
2, 324864, Note_on_c, 0, 84, 92
2, 325056, Note_off_c, 0, 84, 64
2, 325056, Note_on_c, 0, 79, 92
2, 325248, Note_off_c, 0, 79, 64
2, 325248, Note_on_c, 0, 81, 92
2, 325536, Note_off_c, 0, 81, 64
2, 325536, Note_on_c, 0, 79, 92
2, 325632, Note_off_c, 0, 79, 64
2, 325632, Note_on_c, 0, 77, 92
2, 325920, Note_off_c, 0, 77, 64
2, 325920, Note_on_c, 0, 76, 92
2, 326016, Note_off_c, 0, 76, 64
2, 326016, Note_on_c, 0, 74, 92
2, 326304, Note_off_c, 0, 74, 64
2, 326304, Note_on_c, 0, 72, 92
2, 326400, Note_off_c, 0, 72, 64
2, 326400, Note_on_c, 0, 71, 92
2, 326688, Note_off_c, 0, 71, 64
2, 326688, Note_on_c, 0, 79, 92
2, 326784, Note_off_c, 0, 79, 64
2, 326784, Note_on_c, 0, 79, 92
2, 326976, Note_off_c, 0, 79, 64
2, 326976, Note_on_c, 0, 79, 92
2, 327024, Note_off_c, 0, 79, 64
2, 327024, Note_on_c, 0, 77, 92
2, 327072, Note_off_c, 0, 77, 64
2, 327072, Note_on_c, 0, 76, 92
2, 327168, Note_off_c, 0, 76, 64
2, 327168, Note_on_c, 0, 74, 92
2, 327360, Note_off_c, 0, 74, 64
2, 327360, Note_on_c, 0, 76, 92
2, 327456, Note_off_c, 0, 76, 64
2, 327456, Note_on_c, 0, 77, 92
2, 327504, Note_off_c, 0, 77, 64
2, 327504, Note_on_c, 0, 79, 92
2, 327552, Note_off_c, 0, 79, 64
2, 327552, Note_on_c, 0, 76, 92
2, 327744, Note_off_c, 0, 76, 64
2, 327744, Note_on_c, 0, 72, 92
2, 327936, Note_off_c, 0, 72, 64
2, 327936, Note_on_c, 0, 71, 92
2, 328128, Note_off_c, 0, 71, 64
2, 328128, Note_on_c, 0, 69, 92
2, 328320, Note_off_c, 0, 69, 64
2, 328320, Note_on_c, 0, 67, 92
2, 328512, Note_off_c, 0, 67, 64
2, 328512, Note_on_c, 0, 65, 92
2, 328704, Note_off_c, 0, 65, 64
2, 328704, Note_on_c, 0, 64, 92
2, 328896, Note_off_c, 0, 64, 64
2, 328896, Note_on_c, 0, 69, 92
2, 329088, Note_off_c, 0, 69, 64
2, 329088, Note_on_c, 0, 67, 92
2, 329280, Note_off_c, 0, 67, 64
2, 329280, Note_on_c, 0, 65, 92
2, 329472, Note_off_c, 0, 65, 64
2, 329472, Note_on_c, 0, 64, 92
2, 329664, Note_off_c, 0, 64, 64
2, 329664, Note_on_c, 0, 62, 92
2, 329856, Note_off_c, 0, 62, 64
2, 329856, Note_on_c, 0, 60, 92
2, 330048, Note_off_c, 0, 60, 64
2, 330048, Note_on_c, 0, 69, 92
2, 330240, Note_off_c, 0, 69, 64
2, 330240, Note_on_c, 0, 67, 92
2, 330432, Note_off_c, 0, 67, 64
2, 330432, Note_on_c, 0, 65, 92
2, 330624, Note_off_c, 0, 65, 64
2, 330624, Note_on_c, 0, 64, 92
2, 330816, Note_off_c, 0, 64, 64
2, 330816, Note_on_c, 0, 62, 92
2, 331008, Note_off_c, 0, 62, 64
2, 331008, Note_on_c, 0, 60, 92
2, 331200, Note_off_c, 0, 60, 64
2, 331200, Note_on_c, 0, 65, 92
2, 331392, Note_off_c, 0, 65, 64
2, 331392, Note_on_c, 0, 64, 92
2, 331584, Note_off_c, 0, 64, 64
2, 331584, Note_on_c, 0, 62, 92
2, 331776, Note_off_c, 0, 62, 64
2, 331776, Note_on_c, 0, 60, 92
2, 331968, Note_off_c, 0, 60, 64
2, 332256, Note_on_c, 0, 71, 92
2, 332352, Note_off_c, 0, 71, 64
2, 332352, Note_on_c, 0, 72, 92
2, 332448, Note_off_c, 0, 72, 64
2, 332448, Note_on_c, 0, 74, 92
2, 332544, Note_off_c, 0, 74, 64
2, 332544, Note_on_c, 0, 72, 92
2, 332544, Note_on_c, 0, 76, 92
2, 332640, Note_off_c, 0, 76, 64
2, 332640, Note_off_c, 0, 72, 64
2, 332832, Note_on_c, 0, 72, 92
2, 332832, Note_on_c, 0, 76, 92
2, 332928, Note_off_c, 0, 76, 64
2, 332928, Note_off_c, 0, 72, 64
2, 332928, Note_on_c, 0, 72, 92
2, 332928, Note_on_c, 0, 76, 92
2, 333024, Note_off_c, 0, 76, 64
2, 333024, Note_off_c, 0, 72, 64
2, 333216, Note_on_c, 0, 72, 92
2, 333216, Note_on_c, 0, 76, 92
2, 333312, Note_off_c, 0, 76, 64
2, 333312, Note_off_c, 0, 72, 64
2, 333312, Note_on_c, 0, 74, 92
2, 333312, Note_on_c, 0, 77, 92
2, 333408, Note_off_c, 0, 77, 64
2, 333408, Note_off_c, 0, 74, 64
2, 333600, Note_on_c, 0, 74, 92
2, 333600, Note_on_c, 0, 77, 92
2, 333696, Note_off_c, 0, 77, 64
2, 333696, Note_off_c, 0, 74, 64
2, 333696, Note_on_c, 0, 74, 92
2, 333696, Note_on_c, 0, 77, 92
2, 333792, Note_off_c, 0, 77, 64
2, 333792, Note_off_c, 0, 74, 64
2, 333984, Note_on_c, 0, 74, 92
2, 333984, Note_on_c, 0, 77, 92
2, 334080, Note_off_c, 0, 77, 64
2, 334080, Note_off_c, 0, 74, 64
2, 334080, Note_on_c, 0, 74, 92
2, 334080, Note_on_c, 0, 77, 92
2, 334176, Note_off_c, 0, 77, 64
2, 334176, Note_off_c, 0, 74, 64
2, 334368, Note_on_c, 0, 74, 92
2, 334368, Note_on_c, 0, 77, 92
2, 334464, Note_off_c, 0, 77, 64
2, 334464, Note_off_c, 0, 74, 64
2, 334464, Note_on_c, 0, 71, 92
2, 334464, Note_on_c, 0, 74, 92
2, 334560, Note_off_c, 0, 74, 64
2, 334560, Note_off_c, 0, 71, 64
2, 334752, Note_on_c, 0, 71, 92
2, 334752, Note_on_c, 0, 74, 92
2, 334848, Note_off_c, 0, 74, 64
2, 334848, Note_off_c, 0, 71, 64
2, 334848, Note_on_c, 0, 71, 92
2, 334848, Note_on_c, 0, 74, 92
2, 334944, Note_off_c, 0, 74, 64
2, 334944, Note_off_c, 0, 71, 64
2, 335136, Note_on_c, 0, 71, 92
2, 335136, Note_on_c, 0, 74, 92
2, 335232, Note_off_c, 0, 74, 64
2, 335232, Note_off_c, 0, 71, 64
2, 335232, Note_on_c, 0, 71, 92
2, 335232, Note_on_c, 0, 74, 92
2, 335328, Note_off_c, 0, 74, 64
2, 335328, Note_off_c, 0, 71, 64
2, 335520, Note_on_c, 0, 71, 92
2, 335520, Note_on_c, 0, 74, 92
2, 335616, Note_off_c, 0, 74, 64
2, 335616, Note_off_c, 0, 71, 64
2, 335616, Note_on_c, 0, 72, 92
2, 335616, Note_on_c, 0, 76, 92
2, 335712, Note_off_c, 0, 76, 64
2, 335712, Note_off_c, 0, 72, 64
2, 335904, Note_on_c, 0, 72, 92
2, 335904, Note_on_c, 0, 76, 92
2, 336000, Note_off_c, 0, 76, 64
2, 336000, Note_off_c, 0, 72, 64
2, 336000, Note_on_c, 0, 72, 92
2, 336000, Note_on_c, 0, 76, 92
2, 336096, Note_off_c, 0, 76, 64
2, 336096, Note_off_c, 0, 72, 64
2, 336288, Note_on_c, 0, 72, 92
2, 336288, Note_on_c, 0, 76, 92
2, 336384, Note_off_c, 0, 76, 64
2, 336384, Note_off_c, 0, 72, 64
2, 336384, Note_on_c, 0, 76, 92
2, 336384, Note_on_c, 0, 72, 92
2, 336480, Note_off_c, 0, 72, 64
2, 336480, Note_off_c, 0, 76, 64
2, 336672, Note_on_c, 0, 72, 92
2, 336672, Note_on_c, 0, 76, 92
2, 336768, Note_off_c, 0, 76, 64
2, 336768, Note_off_c, 0, 72, 64
2, 336768, Note_on_c, 0, 69, 92
2, 336768, Note_on_c, 0, 72, 92
2, 336864, Note_off_c, 0, 72, 64
2, 336864, Note_off_c, 0, 69, 64
2, 337056, Note_on_c, 0, 69, 92
2, 337056, Note_on_c, 0, 72, 92
2, 337152, Note_off_c, 0, 72, 64
2, 337152, Note_off_c, 0, 69, 64
2, 337152, Note_on_c, 0, 69, 92
2, 337152, Note_on_c, 0, 72, 92
2, 337248, Note_off_c, 0, 72, 64
2, 337248, Note_off_c, 0, 69, 64
2, 337440, Note_on_c, 0, 69, 92
2, 337440, Note_on_c, 0, 72, 92
2, 337536, Note_off_c, 0, 72, 64
2, 337536, Note_off_c, 0, 69, 64
2, 337536, Note_on_c, 0, 69, 92
2, 337536, Note_on_c, 0, 72, 92
2, 337632, Note_off_c, 0, 72, 64
2, 337632, Note_off_c, 0, 69, 64
2, 337824, Note_on_c, 0, 69, 92
2, 337824, Note_on_c, 0, 72, 92
2, 337920, Note_off_c, 0, 72, 64
2, 337920, Note_off_c, 0, 69, 64
2, 337920, Note_on_c, 0, 71, 92
2, 337920, Note_on_c, 0, 74, 92
2, 338016, Note_off_c, 0, 74, 64
2, 338016, Note_off_c, 0, 71, 64
2, 338208, Note_on_c, 0, 71, 92
2, 338208, Note_on_c, 0, 74, 92
2, 338304, Note_off_c, 0, 74, 64
2, 338304, Note_off_c, 0, 71, 64
2, 338304, Note_on_c, 0, 74, 92
2, 338304, Note_on_c, 0, 71, 92
2, 338400, Note_off_c, 0, 71, 64
2, 338400, Note_off_c, 0, 74, 64
2, 338592, Note_on_c, 0, 71, 92
2, 338592, Note_on_c, 0, 74, 92
2, 338688, Note_off_c, 0, 74, 64
2, 338688, Note_off_c, 0, 71, 64
2, 338688, Note_on_c, 0, 71, 92
2, 338688, Note_on_c, 0, 74, 92
2, 338784, Note_off_c, 0, 74, 64
2, 338784, Note_off_c, 0, 71, 64
2, 338976, Note_on_c, 0, 71, 92
2, 338976, Note_on_c, 0, 74, 92
2, 339072, Note_off_c, 0, 74, 64
2, 339072, Note_off_c, 0, 71, 64
2, 339072, Note_on_c, 0, 68, 92
2, 339072, Note_on_c, 0, 71, 92
2, 339168, Note_off_c, 0, 71, 64
2, 339168, Note_off_c, 0, 68, 64
2, 339360, Note_on_c, 0, 68, 92
2, 339360, Note_on_c, 0, 71, 92
2, 339456, Note_off_c, 0, 71, 64
2, 339456, Note_off_c, 0, 68, 64
2, 339456, Note_on_c, 0, 71, 92
2, 339456, Note_on_c, 0, 68, 92
2, 339552, Note_off_c, 0, 68, 64
2, 339552, Note_off_c, 0, 71, 64
2, 339744, Note_on_c, 0, 68, 92
2, 339744, Note_on_c, 0, 71, 92
2, 339840, Note_off_c, 0, 71, 64
2, 339840, Note_off_c, 0, 68, 64
2, 339840, Note_on_c, 0, 68, 92
2, 339840, Note_on_c, 0, 71, 92
2, 339936, Note_off_c, 0, 71, 64
2, 339936, Note_off_c, 0, 68, 64
2, 340128, Note_on_c, 0, 68, 92
2, 340128, Note_on_c, 0, 71, 92
2, 340224, Note_off_c, 0, 71, 64
2, 340224, Note_off_c, 0, 68, 64
2, 340224, Note_on_c, 0, 69, 92
2, 340224, Note_on_c, 0, 72, 92
2, 340512, Note_off_c, 0, 72, 64
2, 340512, Note_off_c, 0, 69, 64
2, 340512, Note_on_c, 0, 71, 92
2, 340608, Note_off_c, 0, 71, 64
2, 340608, Note_on_c, 0, 72, 92
2, 340896, Note_off_c, 0, 72, 64
2, 340896, Note_on_c, 0, 74, 92
2, 340992, Note_off_c, 0, 74, 64
2, 340992, Note_on_c, 0, 76, 92
2, 341280, Note_off_c, 0, 76, 64
2, 341280, Note_on_c, 0, 77, 92
2, 341376, Note_off_c, 0, 77, 64
2, 341376, Note_on_c, 0, 76, 92
2, 341952, Note_off_c, 0, 76, 64
2, 341952, Note_on_c, 0, 74, 92
2, 342144, Note_off_c, 0, 74, 64
2, 342144, Note_on_c, 0, 72, 92
2, 342336, Note_off_c, 0, 72, 64
2, 342336, Note_on_c, 0, 71, 92
2, 342528, Note_off_c, 0, 71, 64
2, 342528, Note_on_c, 0, 72, 92
2, 342720, Note_off_c, 0, 72, 64
2, 342720, Note_on_c, 0, 74, 92
2, 342912, Note_off_c, 0, 74, 64
2, 342912, Note_on_c, 0, 71, 92
2, 343488, Note_off_c, 0, 71, 64
2, 343488, Note_on_c, 0, 69, 92
2, 343680, Note_off_c, 0, 69, 64
2, 343680, Note_on_c, 0, 69, 92
2, 343872, Note_off_c, 0, 69, 64
2, 343872, Note_on_c, 0, 76, 92
2, 344064, Note_off_c, 0, 76, 64
2, 344064, Note_on_c, 0, 81, 92
2, 344256, Note_off_c, 0, 81, 64
2, 344256, Note_on_c, 0, 76, 92
2, 344448, Note_off_c, 0, 76, 64
2, 344448, Note_on_c, 0, 83, 92
2, 344640, Note_off_c, 0, 83, 64
2, 344640, Note_on_c, 0, 76, 92
2, 344832, Note_off_c, 0, 76, 64
2, 344832, Note_on_c, 0, 84, 92
2, 345024, Note_off_c, 0, 84, 64
2, 345024, Note_on_c, 0, 76, 92
2, 345216, Note_off_c, 0, 76, 64
2, 345216, Note_on_c, 0, 81, 92
2, 345408, Note_off_c, 0, 81, 64
2, 345408, Note_on_c, 0, 76, 92
2, 345600, Note_off_c, 0, 76, 64
2, 345600, Note_on_c, 0, 83, 92
2, 345792, Note_off_c, 0, 83, 64
2, 345792, Note_on_c, 0, 76, 92
2, 345984, Note_off_c, 0, 76, 64
2, 345984, Note_on_c, 0, 84, 92
2, 346176, Note_off_c, 0, 84, 64
2, 346176, Note_on_c, 0, 76, 92
2, 346368, Note_off_c, 0, 76, 64
2, 346368, Note_on_c, 0, 81, 92
2, 346560, Note_off_c, 0, 81, 64
2, 346560, Note_on_c, 0, 79, 92
2, 346656, Note_off_c, 0, 79, 64
2, 346656, Note_on_c, 0, 77, 92
2, 346752, Note_off_c, 0, 77, 64
2, 346752, Note_on_c, 0, 76, 92
2, 346848, Note_off_c, 0, 76, 64
2, 346848, Note_on_c, 0, 74, 92
2, 346944, Note_off_c, 0, 74, 64
2, 346944, Note_on_c, 0, 72, 92
2, 347040, Note_off_c, 0, 72, 64
2, 347040, Note_on_c, 0, 71, 92
2, 347136, Note_off_c, 0, 71, 64
2, 347136, Note_on_c, 0, 69, 92
2, 347328, Note_off_c, 0, 69, 64
2, 347328, Note_on_c, 0, 64, 92
2, 347520, Note_off_c, 0, 64, 64
2, 347520, Note_on_c, 0, 69, 92
2, 347712, Note_off_c, 0, 69, 64
2, 347712, Note_on_c, 0, 67, 92
2, 347808, Note_off_c, 0, 67, 64
2, 347808, Note_on_c, 0, 65, 92
2, 347904, Note_off_c, 0, 65, 64
2, 347904, Note_on_c, 0, 64, 92
2, 348000, Note_off_c, 0, 64, 64
2, 348000, Note_on_c, 0, 62, 92
2, 348096, Note_off_c, 0, 62, 64
2, 348096, Note_on_c, 0, 60, 92
2, 348192, Note_off_c, 0, 60, 64
2, 348192, Note_on_c, 0, 59, 92
2, 348288, Note_off_c, 0, 59, 64
2, 348288, Note_on_c, 0, 57, 92
2, 348480, Note_off_c, 0, 57, 64
2, 348480, Note_on_c, 0, 76, 92
2, 348672, Note_off_c, 0, 76, 64
2, 348672, Note_on_c, 0, 76, 92
2, 348864, Note_off_c, 0, 76, 64
2, 348864, Note_on_c, 0, 76, 92
2, 349056, Note_off_c, 0, 76, 64
2, 349056, Note_on_c, 0, 81, 92
2, 349248, Note_off_c, 0, 81, 64
2, 349248, Note_on_c, 0, 76, 92
2, 349440, Note_off_c, 0, 76, 64
2, 349440, Note_on_c, 0, 76, 92
2, 349632, Note_off_c, 0, 76, 64
2, 349632, Note_on_c, 0, 76, 92
2, 349824, Note_off_c, 0, 76, 64
2, 349824, Note_on_c, 0, 76, 92
2, 350016, Note_off_c, 0, 76, 64
2, 350016, Note_on_c, 0, 76, 92
2, 350208, Note_off_c, 0, 76, 64
2, 350208, Note_on_c, 0, 83, 92
2, 350400, Note_off_c, 0, 83, 64
2, 350400, Note_on_c, 0, 76, 92
2, 350592, Note_off_c, 0, 76, 64
2, 350592, Note_on_c, 0, 76, 92
2, 350784, Note_off_c, 0, 76, 64
2, 350784, Note_on_c, 0, 76, 92
2, 350976, Note_off_c, 0, 76, 64
2, 350976, Note_on_c, 0, 76, 92
2, 351168, Note_off_c, 0, 76, 64
2, 351168, Note_on_c, 0, 76, 92
2, 351360, Note_off_c, 0, 76, 64
2, 351360, Note_on_c, 0, 81, 92
2, 351552, Note_off_c, 0, 81, 64
2, 351552, Note_on_c, 0, 69, 92
2, 351744, Note_off_c, 0, 69, 64
2, 351744, Note_on_c, 0, 69, 92
2, 351936, Note_off_c, 0, 69, 64
2, 351936, Note_on_c, 0, 69, 92
2, 352128, Note_off_c, 0, 69, 64
2, 352128, Note_on_c, 0, 69, 92
2, 352320, Note_off_c, 0, 69, 64
2, 352320, Note_on_c, 0, 69, 92
2, 352512, Note_off_c, 0, 69, 64
2, 352512, Note_on_c, 0, 79, 92
2, 352704, Note_off_c, 0, 79, 64
2, 352704, Note_on_c, 0, 69, 92
2, 352896, Note_off_c, 0, 69, 64
2, 352896, Note_on_c, 0, 69, 92
2, 353088, Note_off_c, 0, 69, 64
2, 353088, Note_on_c, 0, 69, 92
2, 353280, Note_off_c, 0, 69, 64
2, 353280, Note_on_c, 0, 69, 92
2, 353472, Note_off_c, 0, 69, 64
2, 353472, Note_on_c, 0, 69, 92
2, 353664, Note_off_c, 0, 69, 64
2, 353664, Note_on_c, 0, 77, 92
2, 353856, Note_off_c, 0, 77, 64
2, 353856, Note_on_c, 0, 69, 92
2, 354048, Note_off_c, 0, 69, 64
2, 354048, Note_on_c, 0, 77, 92
2, 354240, Note_off_c, 0, 77, 64
2, 354240, Note_on_c, 0, 74, 92
2, 354432, Note_off_c, 0, 74, 64
2, 354432, Note_on_c, 0, 74, 92
2, 354624, Note_off_c, 0, 74, 64
2, 354624, Note_on_c, 0, 74, 92
2, 354816, Note_off_c, 0, 74, 64
2, 354816, Note_on_c, 0, 82, 92
2, 355008, Note_off_c, 0, 82, 64
2, 355008, Note_on_c, 0, 74, 92
2, 355200, Note_off_c, 0, 74, 64
2, 355200, Note_on_c, 0, 76, 92
2, 355392, Note_off_c, 0, 76, 64
2, 355392, Note_on_c, 0, 74, 92
2, 355584, Note_off_c, 0, 74, 64
2, 355584, Note_on_c, 0, 74, 92
2, 355776, Note_off_c, 0, 74, 64
2, 355776, Note_on_c, 0, 74, 92
2, 355968, Note_off_c, 0, 74, 64
2, 355968, Note_on_c, 0, 80, 92
2, 356160, Note_off_c, 0, 80, 64
2, 356160, Note_on_c, 0, 74, 92
2, 356352, Note_off_c, 0, 74, 64
2, 356352, Note_on_c, 0, 76, 92
2, 356544, Note_off_c, 0, 76, 64
2, 356544, Note_on_c, 0, 72, 92
2, 356736, Note_off_c, 0, 72, 64
2, 356736, Note_on_c, 0, 72, 92
2, 356928, Note_off_c, 0, 72, 64
2, 356928, Note_on_c, 0, 72, 92
2, 357120, Note_off_c, 0, 72, 64
2, 357120, Note_on_c, 0, 81, 92
2, 357312, Note_off_c, 0, 81, 64
2, 357312, Note_on_c, 0, 72, 92
2, 357504, Note_off_c, 0, 72, 64
2, 357504, Note_on_c, 0, 74, 92
2, 357696, Note_off_c, 0, 74, 64
2, 357696, Note_on_c, 0, 71, 92
2, 357888, Note_off_c, 0, 71, 64
2, 357888, Note_on_c, 0, 71, 92
2, 358080, Note_off_c, 0, 71, 64
2, 358080, Note_on_c, 0, 71, 92
2, 358272, Note_off_c, 0, 71, 64
2, 358272, Note_on_c, 0, 81, 92
2, 358464, Note_off_c, 0, 81, 64
2, 358464, Note_on_c, 0, 71, 92
2, 358656, Note_off_c, 0, 71, 64
2, 358656, Note_on_c, 0, 74, 92
2, 358848, Note_off_c, 0, 74, 64
2, 358848, Note_on_c, 0, 71, 92
2, 359040, Note_off_c, 0, 71, 64
2, 359040, Note_on_c, 0, 71, 92
2, 359232, Note_off_c, 0, 71, 64
2, 359232, Note_on_c, 0, 71, 92
2, 359424, Note_off_c, 0, 71, 64
2, 359424, Note_on_c, 0, 80, 92
2, 359616, Note_off_c, 0, 80, 64
2, 359616, Note_on_c, 0, 71, 92
2, 359808, Note_off_c, 0, 71, 64
2, 359808, Note_on_c, 0, 69, 92
2, 360000, Note_off_c, 0, 69, 64
2, 360000, Note_on_c, 0, 65, 92
2, 360000, Note_on_c, 0, 69, 92
2, 360192, Note_off_c, 0, 69, 64
2, 360192, Note_off_c, 0, 65, 64
2, 360192, Note_on_c, 0, 64, 92
2, 360192, Note_on_c, 0, 67, 92
2, 360384, Note_off_c, 0, 67, 64
2, 360384, Note_off_c, 0, 64, 64
2, 360384, Note_on_c, 0, 62, 92
2, 360384, Note_on_c, 0, 65, 92
2, 360576, Note_off_c, 0, 65, 64
2, 360576, Note_off_c, 0, 62, 64
2, 360576, Note_on_c, 0, 60, 92
2, 360576, Note_on_c, 0, 64, 92
2, 360768, Note_off_c, 0, 64, 64
2, 360768, Note_off_c, 0, 60, 64
2, 360768, Note_on_c, 0, 59, 92
2, 360768, Note_on_c, 0, 62, 92
2, 360960, Note_off_c, 0, 62, 64
2, 360960, Note_off_c, 0, 59, 64
2, 360960, Note_on_c, 0, 57, 92
2, 360960, Note_on_c, 0, 60, 92
2, 361152, Note_off_c, 0, 60, 64
2, 361152, Note_off_c, 0, 57, 64
2, 361152, Note_on_c, 0, 62, 92
2, 361152, Note_on_c, 0, 65, 92
2, 361344, Note_off_c, 0, 65, 64
2, 361344, Note_off_c, 0, 62, 64
2, 361344, Note_on_c, 0, 60, 92
2, 361344, Note_on_c, 0, 64, 92
2, 361536, Note_off_c, 0, 64, 64
2, 361536, Note_off_c, 0, 60, 64
2, 361536, Note_on_c, 0, 59, 92
2, 361536, Note_on_c, 0, 62, 92
2, 361728, Note_off_c, 0, 62, 64
2, 361728, Note_off_c, 0, 59, 64
2, 361728, Note_on_c, 0, 57, 92
2, 361728, Note_on_c, 0, 60, 92
2, 361920, Note_off_c, 0, 60, 64
2, 361920, Note_off_c, 0, 57, 64
2, 361920, Note_on_c, 0, 56, 92
2, 361920, Note_on_c, 0, 59, 92
2, 362112, Note_off_c, 0, 59, 64
2, 362112, Note_off_c, 0, 56, 64
2, 362112, Note_on_c, 0, 57, 92
2, 362496, Note_off_c, 0, 57, 64
2, 362496, Note_on_c, 0, 72, 92
2, 362880, Note_off_c, 0, 72, 64
2, 362880, Note_on_c, 0, 72, 92
2, 363264, Note_off_c, 0, 72, 64
2, 363264, Note_on_c, 0, 74, 92
2, 363648, Note_off_c, 0, 74, 64
2, 363648, Note_on_c, 0, 76, 92
2, 364032, Note_off_c, 0, 76, 64
2, 364032, Note_on_c, 0, 76, 92
2, 364416, Note_off_c, 0, 76, 64
2, 364416, Note_on_c, 0, 69, 92
2, 364800, Note_off_c, 0, 69, 64
2, 364800, Note_on_c, 0, 60, 92
2, 365184, Note_off_c, 0, 60, 64
2, 365184, Note_on_c, 0, 60, 92
2, 365568, Note_off_c, 0, 60, 64
2, 365568, Note_on_c, 0, 62, 92
2, 365952, Note_off_c, 0, 62, 64
2, 365952, Note_on_c, 0, 64, 92
2, 366336, Note_off_c, 0, 64, 64
2, 366336, Note_on_c, 0, 64, 92
2, 366720, Note_off_c, 0, 64, 64
2, 366720, Note_on_c, 0, 57, 92
2, 367872, Note_off_c, 0, 57, 64
2, 367872, End_track
3, 0, Start_track
3, 0, Title_t, "Track 2"
3, 0, Program_c, 0, 19
3, 0, Note_on_c, 0, 64, 92
3, 0, Note_on_c, 0, 57, 92
3, 384, Note_off_c, 0, 57, 64
3, 384, Note_off_c, 0, 64, 64
3, 384, Note_on_c, 0, 64, 92
3, 384, Note_on_c, 0, 59, 92
3, 768, Note_off_c, 0, 59, 64
3, 768, Note_off_c, 0, 64, 64
3, 768, Note_on_c, 0, 64, 92
3, 768, Note_on_c, 0, 57, 92
3, 1152, Note_off_c, 0, 57, 64
3, 1152, Note_off_c, 0, 64, 64
3, 1344, Note_on_c, 0, 60, 92
3, 1536, Note_off_c, 0, 60, 64
3, 1536, Note_on_c, 0, 59, 92
3, 1824, Note_off_c, 0, 59, 64
3, 1824, Note_on_c, 0, 57, 92
3, 1920, Note_off_c, 0, 57, 64
3, 1920, Note_on_c, 0, 56, 92
3, 2112, Note_off_c, 0, 56, 64
3, 2112, Note_on_c, 0, 57, 92
3, 2208, Note_off_c, 0, 57, 64
3, 2208, Note_on_c, 0, 59, 92
3, 2304, Note_off_c, 0, 59, 64
3, 2304, Note_on_c, 0, 60, 92
3, 2496, Note_off_c, 0, 60, 64
3, 2496, Note_on_c, 0, 60, 92
3, 2592, Note_off_c, 0, 60, 64
3, 2592, Note_on_c, 0, 62, 92
3, 2688, Note_off_c, 0, 62, 64
3, 2688, Note_on_c, 0, 64, 92
3, 2880, Note_off_c, 0, 64, 64
3, 2880, Note_on_c, 0, 60, 92
3, 3072, Note_off_c, 0, 60, 64
3, 3072, Note_on_c, 0, 59, 92
3, 3360, Note_off_c, 0, 59, 64
3, 3360, Note_on_c, 0, 57, 92
3, 3456, Note_off_c, 0, 57, 64
3, 3456, Note_on_c, 0, 56, 92
3, 3648, Note_off_c, 0, 56, 64
3, 3648, Note_on_c, 0, 57, 92
3, 3744, Note_off_c, 0, 57, 64
3, 3744, Note_on_c, 0, 59, 92
3, 3840, Note_off_c, 0, 59, 64
3, 3840, Note_on_c, 0, 60, 92
3, 4032, Note_off_c, 0, 60, 64
3, 4032, Note_on_c, 0, 60, 92
3, 4128, Note_off_c, 0, 60, 64
3, 4128, Note_on_c, 0, 62, 92
3, 4224, Note_off_c, 0, 62, 64
3, 4224, Note_on_c, 0, 64, 92
3, 4416, Note_off_c, 0, 64, 64
3, 4416, Note_on_c, 0, 64, 92
3, 4416, Note_on_c, 0, 60, 92
3, 4608, Note_off_c, 0, 60, 64
3, 4608, Note_off_c, 0, 64, 64
3, 4608, Note_on_c, 0, 64, 92
3, 4608, Note_on_c, 0, 59, 92
3, 4800, Note_off_c, 0, 59, 64
3, 4800, Note_off_c, 0, 64, 64
3, 4800, Note_on_c, 0, 64, 92
3, 4800, Note_on_c, 0, 59, 92
3, 4992, Note_off_c, 0, 59, 64
3, 4992, Note_off_c, 0, 64, 64
3, 4992, Note_on_c, 0, 64, 92
3, 4992, Note_on_c, 0, 59, 92
3, 5088, Note_off_c, 0, 64, 64
3, 5088, Note_on_c, 0, 65, 92
3, 5184, Note_off_c, 0, 65, 64
3, 5184, Note_off_c, 0, 59, 64
3, 5184, Note_on_c, 0, 64, 92
3, 5184, Note_on_c, 0, 59, 92
3, 5376, Note_off_c, 0, 59, 64
3, 5376, Note_off_c, 0, 64, 64
3, 5568, Note_on_c, 0, 64, 92
3, 5568, Note_on_c, 0, 60, 92
3, 5760, Note_off_c, 0, 60, 64
3, 5760, Note_off_c, 0, 64, 64
3, 5760, Note_on_c, 0, 64, 92
3, 5760, Note_on_c, 0, 60, 92
3, 5856, Note_off_c, 0, 64, 64
3, 5856, Note_on_c, 0, 65, 92
3, 5952, Note_off_c, 0, 65, 64
3, 5952, Note_off_c, 0, 60, 64
3, 5952, Note_on_c, 0, 64, 92
3, 5952, Note_on_c, 0, 60, 92
3, 6144, Note_off_c, 0, 60, 64
3, 6144, Note_off_c, 0, 64, 64
3, 6336, Note_on_c, 0, 64, 92
3, 6336, Note_on_c, 0, 59, 92
3, 6528, Note_off_c, 0, 59, 64
3, 6528, Note_off_c, 0, 64, 64
3, 6528, Note_on_c, 0, 64, 92
3, 6528, Note_on_c, 0, 59, 92
3, 6624, Note_off_c, 0, 64, 64
3, 6624, Note_on_c, 0, 65, 92
3, 6720, Note_off_c, 0, 65, 64
3, 6720, Note_off_c, 0, 59, 64
3, 6720, Note_on_c, 0, 64, 92
3, 6720, Note_on_c, 0, 59, 92
3, 6912, Note_off_c, 0, 59, 64
3, 6912, Note_off_c, 0, 64, 64
3, 7104, Note_on_c, 0, 64, 92
3, 7104, Note_on_c, 0, 60, 92
3, 7296, Note_off_c, 0, 60, 64
3, 7296, Note_off_c, 0, 64, 64
3, 7296, Note_on_c, 0, 64, 92
3, 7296, Note_on_c, 0, 60, 92
3, 7392, Note_off_c, 0, 64, 64
3, 7392, Note_on_c, 0, 65, 92
3, 7488, Note_off_c, 0, 65, 64
3, 7488, Note_off_c, 0, 60, 64
3, 7488, Note_on_c, 0, 64, 92
3, 7488, Note_on_c, 0, 60, 92
3, 7680, Note_off_c, 0, 60, 64
3, 7680, Note_off_c, 0, 64, 64
3, 7680, Note_on_c, 0, 62, 92
3, 7680, Note_on_c, 0, 60, 92
3, 7872, Note_off_c, 0, 60, 64
3, 7872, Note_off_c, 0, 62, 64
3, 7872, Note_on_c, 0, 69, 92
3, 7872, Note_on_c, 0, 60, 92
3, 8064, Note_off_c, 0, 60, 64
3, 8064, Note_off_c, 0, 69, 64
3, 8064, Note_on_c, 0, 65, 92
3, 8064, Note_on_c, 0, 60, 92
3, 8256, Note_off_c, 0, 60, 64
3, 8256, Note_off_c, 0, 65, 64
3, 8256, Note_on_c, 0, 62, 92
3, 8256, Note_on_c, 0, 60, 92
3, 8448, Note_off_c, 0, 60, 64
3, 8448, Note_off_c, 0, 62, 64
3, 8448, Note_on_c, 0, 62, 92
3, 8448, Note_on_c, 0, 59, 92
3, 8544, Note_off_c, 0, 62, 64
3, 8544, Note_on_c, 0, 64, 92
3, 8640, Note_off_c, 0, 64, 64
3, 8640, Note_off_c, 0, 59, 64
3, 8640, Note_on_c, 0, 62, 92
3, 8640, Note_on_c, 0, 59, 92
3, 8736, Note_off_c, 0, 62, 64
3, 8736, Note_on_c, 0, 64, 92
3, 8832, Note_off_c, 0, 64, 64
3, 8832, Note_off_c, 0, 59, 64
3, 8832, Note_on_c, 0, 62, 92
3, 8832, Note_on_c, 0, 59, 92
3, 8928, Note_off_c, 0, 62, 64
3, 8928, Note_on_c, 0, 64, 92
3, 9024, Note_off_c, 0, 64, 64
3, 9024, Note_off_c, 0, 59, 64
3, 9024, Note_on_c, 0, 62, 92
3, 9024, Note_on_c, 0, 59, 92
3, 9120, Note_off_c, 0, 62, 64
3, 9120, Note_on_c, 0, 64, 92
3, 9216, Note_off_c, 0, 64, 64
3, 9216, Note_off_c, 0, 59, 64
3, 9216, Note_on_c, 0, 60, 92
3, 9216, Note_on_c, 0, 59, 92
3, 9408, Note_off_c, 0, 59, 64
3, 9408, Note_off_c, 0, 60, 64
3, 9408, Note_on_c, 0, 67, 92
3, 9408, Note_on_c, 0, 59, 92
3, 9600, Note_off_c, 0, 59, 64
3, 9600, Note_off_c, 0, 67, 64
3, 9600, Note_on_c, 0, 64, 92
3, 9600, Note_on_c, 0, 59, 92
3, 9792, Note_off_c, 0, 59, 64
3, 9792, Note_off_c, 0, 64, 64
3, 9792, Note_on_c, 0, 60, 92
3, 9792, Note_on_c, 0, 59, 92
3, 9984, Note_off_c, 0, 59, 64
3, 9984, Note_off_c, 0, 60, 64
3, 9984, Note_on_c, 0, 60, 92
3, 9984, Note_on_c, 0, 57, 92
3, 10080, Note_off_c, 0, 60, 64
3, 10080, Note_on_c, 0, 62, 92
3, 10176, Note_off_c, 0, 62, 64
3, 10176, Note_off_c, 0, 57, 64
3, 10176, Note_on_c, 0, 60, 92
3, 10176, Note_on_c, 0, 57, 92
3, 10272, Note_off_c, 0, 60, 64
3, 10272, Note_on_c, 0, 62, 92
3, 10368, Note_off_c, 0, 62, 64
3, 10368, Note_off_c, 0, 57, 64
3, 10368, Note_on_c, 0, 60, 92
3, 10368, Note_on_c, 0, 57, 92
3, 10464, Note_off_c, 0, 60, 64
3, 10464, Note_on_c, 0, 62, 92
3, 10560, Note_off_c, 0, 62, 64
3, 10560, Note_off_c, 0, 57, 64
3, 10560, Note_on_c, 0, 60, 92
3, 10560, Note_on_c, 0, 57, 92
3, 10656, Note_off_c, 0, 60, 64
3, 10656, Note_on_c, 0, 62, 92
3, 10752, Note_off_c, 0, 62, 64
3, 10752, Note_off_c, 0, 57, 64
3, 10752, Note_on_c, 0, 59, 92
3, 10752, Note_on_c, 0, 57, 92
3, 10944, Note_off_c, 0, 57, 64
3, 10944, Note_off_c, 0, 59, 64
3, 10944, Note_on_c, 0, 65, 92
3, 10944, Note_on_c, 0, 57, 92
3, 11136, Note_off_c, 0, 57, 64
3, 11136, Note_off_c, 0, 65, 64
3, 11136, Note_on_c, 0, 62, 92
3, 11136, Note_on_c, 0, 57, 92
3, 11328, Note_off_c, 0, 57, 64
3, 11328, Note_off_c, 0, 62, 64
3, 11328, Note_on_c, 0, 59, 92
3, 11328, Note_on_c, 0, 57, 92
3, 11520, Note_off_c, 0, 57, 64
3, 11520, Note_off_c, 0, 59, 64
3, 11520, Note_on_c, 0, 59, 92
3, 11520, Note_on_c, 0, 56, 92
3, 11616, Note_off_c, 0, 59, 64
3, 11616, Note_on_c, 0, 60, 92
3, 11712, Note_off_c, 0, 60, 64
3, 11712, Note_off_c, 0, 56, 64
3, 11712, Note_on_c, 0, 59, 92
3, 11712, Note_on_c, 0, 56, 92
3, 11808, Note_off_c, 0, 59, 64
3, 11808, Note_on_c, 0, 60, 92
3, 11904, Note_off_c, 0, 60, 64
3, 11904, Note_off_c, 0, 56, 64
3, 11904, Note_on_c, 0, 59, 92
3, 11904, Note_on_c, 0, 56, 92
3, 12000, Note_off_c, 0, 59, 64
3, 12000, Note_on_c, 0, 60, 92
3, 12096, Note_off_c, 0, 60, 64
3, 12096, Note_off_c, 0, 56, 64
3, 12096, Note_on_c, 0, 59, 92
3, 12096, Note_on_c, 0, 56, 92
3, 12192, Note_off_c, 0, 59, 64
3, 12192, Note_on_c, 0, 60, 92
3, 12288, Note_off_c, 0, 60, 64
3, 12288, Note_off_c, 0, 56, 64
3, 12288, Note_on_c, 0, 57, 92
3, 12480, Note_on_c, 0, 60, 92
3, 12576, Note_off_c, 0, 60, 64
3, 12576, Note_on_c, 0, 62, 92
3, 12672, Note_off_c, 0, 62, 64
3, 12672, Note_on_c, 0, 64, 92
3, 12864, Note_off_c, 0, 64, 64
3, 12864, Note_off_c, 0, 57, 64
3, 12864, Note_on_c, 0, 60, 92
3, 12864, Note_on_c, 0, 64, 92
3, 12864, Note_on_c, 0, 57, 92
3, 13056, Note_off_c, 0, 57, 64
3, 13056, Note_off_c, 0, 64, 64
3, 13056, Note_off_c, 0, 60, 64
3, 13056, Note_on_c, 0, 64, 92
3, 13056, Note_on_c, 0, 62, 92
3, 13056, Note_on_c, 0, 56, 92
3, 18048, Note_off_c, 0, 56, 64
3, 18048, Note_off_c, 0, 62, 64
3, 18048, Note_off_c, 0, 64, 64
3, 18240, Note_on_c, 0, 64, 92
3, 18240, Note_on_c, 0, 60, 92
3, 18240, Note_on_c, 0, 57, 92
3, 18432, Note_off_c, 0, 57, 64
3, 18432, Note_off_c, 0, 60, 64
3, 18432, Note_off_c, 0, 64, 64
3, 18432, Note_on_c, 0, 65, 92
3, 18432, Note_on_c, 0, 62, 92
3, 18432, Note_on_c, 0, 59, 92
3, 18816, Note_off_c, 0, 59, 64
3, 18816, Note_off_c, 0, 62, 64
3, 18816, Note_off_c, 0, 65, 64
3, 18816, Note_on_c, 0, 64, 92
3, 18816, Note_on_c, 0, 59, 92
3, 19200, Note_off_c, 0, 59, 64
3, 19200, Note_off_c, 0, 64, 64
3, 19200, Note_on_c, 0, 64, 92
3, 19200, Note_on_c, 0, 57, 92
3, 19584, Note_off_c, 0, 57, 64
3, 19584, Note_off_c, 0, 64, 64
3, 19776, Note_on_c, 0, 60, 92
3, 19776, Note_on_c, 0, 57, 92
3, 19968, Note_off_c, 0, 57, 64
3, 19968, Note_off_c, 0, 60, 64
3, 19968, Note_on_c, 0, 53, 92
3, 19968, Note_on_c, 0, 58, 92
3, 20736, Note_off_c, 0, 58, 64
3, 20736, Note_off_c, 0, 53, 64
3, 20736, Note_on_c, 0, 55, 92
3, 20736, Note_on_c, 0, 58, 92
3, 21504, Note_off_c, 0, 58, 64
3, 21504, Note_off_c, 0, 55, 64
3, 21504, Note_on_c, 0, 52, 92
3, 21504, Note_on_c, 0, 57, 92
3, 22080, Note_off_c, 0, 57, 64
3, 22080, Note_off_c, 0, 52, 64
3, 22080, Note_on_c, 0, 57, 92
3, 22080, Note_on_c, 0, 60, 92
3, 22272, Note_off_c, 0, 60, 64
3, 22272, Note_off_c, 0, 57, 64
3, 22272, Note_on_c, 0, 52, 92
3, 22272, Note_on_c, 0, 59, 92
3, 22656, Note_off_c, 0, 59, 64
3, 22656, Note_off_c, 0, 52, 64
3, 22848, Note_on_c, 0, 57, 92
3, 22848, Note_on_c, 0, 60, 92
3, 23040, Note_off_c, 0, 60, 64
3, 23040, Note_off_c, 0, 57, 64
3, 23040, Note_on_c, 0, 59, 92
3, 23040, Note_on_c, 0, 53, 92
3, 23232, Note_off_c, 0, 53, 64
3, 23232, Note_on_c, 0, 50, 92
3, 23424, Note_off_c, 0, 50, 64
3, 23424, Note_off_c, 0, 59, 64
3, 23424, Note_on_c, 0, 52, 92
3, 23424, Note_on_c, 0, 59, 92
3, 23808, Note_off_c, 0, 59, 64
3, 23808, Note_off_c, 0, 52, 64
3, 23808, Note_on_c, 0, 57, 92
3, 23808, Note_on_c, 0, 52, 92
3, 24192, Note_off_c, 0, 52, 64
3, 24192, Note_off_c, 0, 57, 64
3, 24576, Note_on_c, 0, 69, 82
3, 24960, Note_off_c, 0, 69, 64
3, 25152, Note_on_c, 0, 69, 82
3, 25344, Note_off_c, 0, 69, 64
3, 25344, Note_on_c, 0, 62, 82
3, 25728, Note_off_c, 0, 62, 64
3, 25920, Note_on_c, 0, 62, 82
3, 26112, Note_off_c, 0, 62, 64
3, 26112, Note_on_c, 0, 69, 82
3, 26496, Note_off_c, 0, 69, 64
3, 26688, Note_on_c, 0, 69, 82
3, 26880, Note_off_c, 0, 69, 64
3, 26880, Note_on_c, 0, 62, 82
3, 27264, Note_off_c, 0, 62, 64
3, 27456, Note_on_c, 0, 62, 82
3, 27648, Note_off_c, 0, 62, 64
3, 27648, Note_on_c, 0, 69, 92
3, 27840, Note_off_c, 0, 69, 64
3, 27840, Note_on_c, 0, 57, 92
3, 27936, Note_off_c, 0, 57, 64
3, 27936, Note_on_c, 0, 59, 92
3, 28032, Note_off_c, 0, 59, 64
3, 28032, Note_on_c, 0, 60, 92
3, 28224, Note_off_c, 0, 60, 64
3, 28224, Note_on_c, 0, 57, 92
3, 28416, Note_off_c, 0, 57, 64
3, 28416, Note_on_c, 0, 62, 92
3, 28704, Note_off_c, 0, 62, 64
3, 28704, Note_on_c, 0, 60, 92
3, 28800, Note_off_c, 0, 60, 64
3, 28800, Note_on_c, 0, 59, 92
3, 28896, Note_off_c, 0, 59, 64
3, 28896, Note_on_c, 0, 57, 92
3, 28992, Note_off_c, 0, 57, 64
3, 28992, Note_on_c, 0, 59, 92
3, 29184, Note_off_c, 0, 59, 64
3, 29184, Note_on_c, 0, 60, 92
3, 29472, Note_off_c, 0, 60, 64
3, 29472, Note_on_c, 0, 59, 92
3, 29568, Note_off_c, 0, 59, 64
3, 29568, Note_on_c, 0, 57, 92
3, 29664, Note_off_c, 0, 57, 64
3, 29664, Note_on_c, 0, 56, 92
3, 29760, Note_off_c, 0, 56, 64
3, 29760, Note_on_c, 0, 57, 92
3, 29952, Note_off_c, 0, 57, 64
3, 29952, Note_on_c, 0, 59, 92
3, 30240, Note_off_c, 0, 59, 64
3, 30240, Note_on_c, 0, 57, 92
3, 30336, Note_off_c, 0, 57, 64
3, 30336, Note_on_c, 0, 56, 92
3, 30432, Note_off_c, 0, 56, 64
3, 30432, Note_on_c, 0, 54, 92
3, 30528, Note_off_c, 0, 54, 64
3, 30528, Note_on_c, 0, 56, 92
3, 30720, Note_off_c, 0, 56, 64
3, 30720, Note_on_c, 0, 57, 92
3, 31104, Note_off_c, 0, 57, 64
3, 31296, Note_on_c, 0, 56, 92
3, 31488, Note_off_c, 0, 56, 64
3, 31488, Note_on_c, 0, 57, 92
3, 31872, Note_off_c, 0, 57, 64
3, 32064, Note_on_c, 0, 56, 92
3, 32256, Note_off_c, 0, 56, 64
3, 32256, Note_on_c, 0, 57, 92
3, 32640, Note_off_c, 0, 57, 64
3, 32832, Note_on_c, 0, 56, 92
3, 33024, Note_off_c, 0, 56, 64
3, 33024, Note_on_c, 0, 57, 92
3, 33408, Note_off_c, 0, 57, 64
3, 33600, Note_on_c, 0, 60, 92
3, 33600, Note_on_c, 0, 57, 92
3, 33792, Note_off_c, 0, 57, 64
3, 33792, Note_off_c, 0, 60, 64
3, 33792, Note_on_c, 0, 53, 92
3, 33792, Note_on_c, 0, 58, 92
3, 34560, Note_off_c, 0, 58, 64
3, 34560, Note_off_c, 0, 53, 64
3, 34560, Note_on_c, 0, 55, 92
3, 34560, Note_on_c, 0, 58, 92
3, 35328, Note_off_c, 0, 58, 64
3, 35328, Note_off_c, 0, 55, 64
3, 35328, Note_on_c, 0, 52, 92
3, 35328, Note_on_c, 0, 57, 92
3, 35904, Note_off_c, 0, 57, 64
3, 35904, Note_off_c, 0, 52, 64
3, 35904, Note_on_c, 0, 57, 92
3, 35904, Note_on_c, 0, 60, 92
3, 36096, Note_off_c, 0, 60, 64
3, 36096, Note_off_c, 0, 57, 64
3, 36096, Note_on_c, 0, 52, 92
3, 36096, Note_on_c, 0, 59, 92
3, 36480, Note_off_c, 0, 59, 64
3, 36480, Note_off_c, 0, 52, 64
3, 36672, Note_on_c, 0, 60, 92
3, 36672, Note_on_c, 0, 57, 92
3, 36864, Note_off_c, 0, 57, 64
3, 36864, Note_off_c, 0, 60, 64
3, 36864, Note_on_c, 0, 59, 92
3, 36864, Note_on_c, 0, 53, 92
3, 37056, Note_off_c, 0, 53, 64
3, 37056, Note_on_c, 0, 50, 92
3, 37248, Note_off_c, 0, 50, 64
3, 37248, Note_off_c, 0, 59, 64
3, 37248, Note_on_c, 0, 52, 92
3, 37248, Note_on_c, 0, 59, 92
3, 37632, Note_off_c, 0, 59, 64
3, 37632, Note_off_c, 0, 52, 64
3, 37632, Note_on_c, 0, 57, 92
3, 37920, Note_on_c, 0, 59, 92
3, 38016, Note_off_c, 0, 59, 64
3, 38016, Note_off_c, 0, 57, 64
3, 38400, Note_on_c, 0, 45, 92
3, 38784, Note_off_c, 0, 45, 64
3, 38976, Note_on_c, 0, 57, 92
3, 39168, Note_off_c, 0, 57, 64
3, 39168, Note_on_c, 0, 62, 92
3, 39552, Note_off_c, 0, 62, 64
3, 39744, Note_on_c, 0, 50, 92
3, 39936, Note_off_c, 0, 50, 64
3, 39936, Note_on_c, 0, 45, 92
3, 40320, Note_off_c, 0, 45, 64
3, 40512, Note_on_c, 0, 57, 92
3, 40704, Note_off_c, 0, 57, 64
3, 40704, Note_on_c, 0, 62, 92
3, 41088, Note_off_c, 0, 62, 64
3, 41280, Note_on_c, 0, 50, 92
3, 41472, Note_off_c, 0, 50, 64
3, 41472, Note_on_c, 0, 45, 92
3, 41760, Note_off_c, 0, 45, 64
3, 41760, Note_on_c, 0, 47, 92
3, 41856, Note_off_c, 0, 47, 64
3, 41856, Note_on_c, 0, 48, 92
3, 42048, Note_off_c, 0, 48, 64
3, 42048, Note_on_c, 0, 45, 92
3, 42240, Note_off_c, 0, 45, 64
3, 42240, Note_on_c, 0, 50, 92
3, 42624, Note_off_c, 0, 50, 64
3, 42816, Note_on_c, 0, 55, 92
3, 43008, Note_off_c, 0, 55, 64
3, 43008, Note_on_c, 0, 48, 92
3, 43392, Note_off_c, 0, 48, 64
3, 43584, Note_on_c, 0, 53, 92
3, 43776, Note_off_c, 0, 53, 64
3, 43776, Note_on_c, 0, 47, 92
3, 44160, Note_off_c, 0, 47, 64
3, 44352, Note_on_c, 0, 52, 92
3, 44544, Note_off_c, 0, 52, 64
3, 44544, Note_on_c, 0, 45, 92
3, 44736, Note_on_c, 0, 57, 92
3, 44928, Note_off_c, 0, 57, 64
3, 44928, Note_off_c, 0, 45, 64
3, 45024, Note_on_c, 0, 57, 92
3, 45120, Note_off_c, 0, 57, 64
3, 45120, Note_on_c, 0, 60, 92
3, 45216, Note_off_c, 0, 60, 64
3, 45216, Note_on_c, 0, 64, 92
3, 45312, Note_off_c, 0, 64, 64
3, 45312, Note_on_c, 0, 59, 92
3, 45408, Note_off_c, 0, 59, 64
3, 45408, Note_on_c, 0, 62, 92
3, 45504, Note_off_c, 0, 62, 64
3, 45504, Note_on_c, 0, 67, 92
3, 45696, Note_off_c, 0, 67, 64
3, 45792, Note_on_c, 0, 55, 92
3, 45888, Note_off_c, 0, 55, 64
3, 45888, Note_on_c, 0, 59, 92
3, 45984, Note_off_c, 0, 59, 64
3, 45984, Note_on_c, 0, 64, 92
3, 46080, Note_off_c, 0, 64, 64
3, 46080, Note_on_c, 0, 57, 92
3, 46176, Note_off_c, 0, 57, 64
3, 46176, Note_on_c, 0, 60, 92
3, 46272, Note_off_c, 0, 60, 64
3, 46272, Note_on_c, 0, 65, 92
3, 46464, Note_off_c, 0, 65, 64
3, 46560, Note_on_c, 0, 53, 92
3, 46656, Note_off_c, 0, 53, 64
3, 46656, Note_on_c, 0, 57, 92
3, 46752, Note_off_c, 0, 57, 64
3, 46752, Note_on_c, 0, 62, 92
3, 46848, Note_off_c, 0, 62, 64
3, 46848, Note_on_c, 0, 55, 92
3, 46944, Note_off_c, 0, 55, 64
3, 46944, Note_on_c, 0, 59, 92
3, 47040, Note_off_c, 0, 59, 64
3, 47040, Note_on_c, 0, 64, 92
3, 47232, Note_off_c, 0, 64, 64
3, 47328, Note_on_c, 0, 52, 92
3, 47424, Note_off_c, 0, 52, 64
3, 47424, Note_on_c, 0, 55, 92
3, 47520, Note_off_c, 0, 55, 64
3, 47520, Note_on_c, 0, 60, 92
3, 47616, Note_off_c, 0, 60, 64
3, 47616, Note_on_c, 0, 53, 92
3, 47712, Note_off_c, 0, 53, 64
3, 47712, Note_on_c, 0, 57, 92
3, 47808, Note_off_c, 0, 57, 64
3, 47808, Note_on_c, 0, 62, 92
3, 48000, Note_off_c, 0, 62, 64
3, 48096, Note_on_c, 0, 54, 92
3, 48192, Note_off_c, 0, 54, 64
3, 48192, Note_on_c, 0, 57, 92
3, 48288, Note_off_c, 0, 57, 64
3, 48288, Note_on_c, 0, 62, 92
3, 48384, Note_off_c, 0, 62, 64
3, 48384, Note_on_c, 0, 55, 92
3, 48480, Note_off_c, 0, 55, 64
3, 48480, Note_on_c, 0, 54, 92
3, 48576, Note_off_c, 0, 54, 64
3, 48576, Note_on_c, 0, 55, 92
3, 48672, Note_off_c, 0, 55, 64
3, 48672, Note_on_c, 0, 57, 92
3, 48768, Note_off_c, 0, 57, 64
3, 48768, Note_on_c, 0, 59, 92
3, 48864, Note_off_c, 0, 59, 64
3, 48864, Note_on_c, 0, 57, 92
3, 48960, Note_off_c, 0, 57, 64
3, 48960, Note_on_c, 0, 59, 92
3, 49056, Note_off_c, 0, 59, 64
3, 49056, Note_on_c, 0, 55, 92
3, 49152, Note_off_c, 0, 55, 64
3, 49152, Note_on_c, 0, 60, 92
3, 49248, Note_off_c, 0, 60, 64
3, 49248, Note_on_c, 0, 59, 92
3, 49344, Note_off_c, 0, 59, 64
3, 54912, Note_on_c, 0, 55, 92
3, 55104, Note_off_c, 0, 55, 64
3, 55104, Note_on_c, 0, 55, 92
3, 55296, Note_off_c, 0, 55, 64
3, 55296, Note_on_c, 0, 64, 92
3, 55296, Note_on_c, 0, 60, 92
3, 55488, Note_off_c, 0, 64, 64
3, 55488, Note_on_c, 0, 65, 92
3, 55680, Note_off_c, 0, 65, 64
3, 55680, Note_on_c, 0, 67, 92
3, 55872, Note_off_c, 0, 67, 64
3, 55872, Note_on_c, 0, 64, 92
3, 56064, Note_off_c, 0, 64, 64
3, 56064, Note_off_c, 0, 60, 64
3, 56064, Note_on_c, 0, 65, 92
3, 56064, Note_on_c, 0, 57, 92
3, 56256, Note_off_c, 0, 57, 64
3, 56256, Note_on_c, 0, 59, 92
3, 56448, Note_off_c, 0, 59, 64
3, 56448, Note_on_c, 0, 60, 92
3, 56640, Note_off_c, 0, 60, 64
3, 56640, Note_on_c, 0, 57, 92
3, 56832, Note_off_c, 0, 57, 64
3, 56832, Note_off_c, 0, 65, 64
3, 56832, Note_on_c, 0, 64, 92
3, 56832, Note_on_c, 0, 60, 92
3, 57024, Note_off_c, 0, 64, 64
3, 57024, Note_on_c, 0, 65, 92
3, 57216, Note_off_c, 0, 65, 64
3, 57216, Note_on_c, 0, 67, 92
3, 57408, Note_off_c, 0, 67, 64
3, 57408, Note_on_c, 0, 64, 92
3, 57600, Note_off_c, 0, 64, 64
3, 57600, Note_off_c, 0, 60, 64
3, 57600, Note_on_c, 0, 65, 92
3, 57600, Note_on_c, 0, 57, 92
3, 57792, Note_off_c, 0, 57, 64
3, 57792, Note_on_c, 0, 59, 92
3, 57984, Note_off_c, 0, 59, 64
3, 57984, Note_on_c, 0, 60, 92
3, 58176, Note_off_c, 0, 60, 64
3, 58176, Note_on_c, 0, 57, 92
3, 58368, Note_off_c, 0, 57, 64
3, 58368, Note_off_c, 0, 65, 64
3, 58368, Note_on_c, 0, 64, 92
3, 58368, Note_on_c, 0, 60, 92
3, 58560, Note_off_c, 0, 64, 64
3, 58560, Note_on_c, 0, 65, 92
3, 58752, Note_off_c, 0, 65, 64
3, 58752, Note_on_c, 0, 67, 92
3, 58944, Note_off_c, 0, 67, 64
3, 58944, Note_on_c, 0, 64, 92
3, 59136, Note_off_c, 0, 64, 64
3, 59136, Note_off_c, 0, 60, 64
3, 59136, Note_on_c, 0, 64, 92
3, 59136, Note_on_c, 0, 60, 92
3, 59520, Note_off_c, 0, 60, 64
3, 59520, Note_off_c, 0, 64, 64
3, 59904, Note_on_c, 0, 62, 92
3, 59904, Note_on_c, 0, 59, 92
3, 60000, Note_off_c, 0, 62, 64
3, 60000, Note_on_c, 0, 64, 92
3, 60096, Note_off_c, 0, 64, 64
3, 60096, Note_off_c, 0, 59, 64
3, 60096, Note_on_c, 0, 62, 92
3, 60096, Note_on_c, 0, 59, 92
3, 60192, Note_off_c, 0, 62, 64
3, 60192, Note_on_c, 0, 64, 92
3, 60288, Note_off_c, 0, 64, 64
3, 60288, Note_off_c, 0, 59, 64
3, 60288, Note_on_c, 0, 62, 92
3, 60288, Note_on_c, 0, 59, 92
3, 60384, Note_off_c, 0, 62, 64
3, 60384, Note_on_c, 0, 64, 92
3, 60480, Note_off_c, 0, 64, 64
3, 60480, Note_off_c, 0, 59, 64
3, 60480, Note_on_c, 0, 62, 92
3, 60480, Note_on_c, 0, 59, 92
3, 60576, Note_off_c, 0, 62, 64
3, 60576, Note_on_c, 0, 64, 92
3, 60672, Note_off_c, 0, 64, 64
3, 60672, Note_off_c, 0, 59, 64
3, 60672, Note_on_c, 0, 62, 92
3, 60672, Note_on_c, 0, 59, 92
3, 61056, Note_off_c, 0, 59, 64
3, 61056, Note_off_c, 0, 62, 64
3, 61440, Note_on_c, 0, 57, 92
3, 61440, Note_on_c, 0, 60, 92
3, 61536, Note_off_c, 0, 60, 64
3, 61536, Note_on_c, 0, 62, 92
3, 61632, Note_off_c, 0, 62, 64
3, 61632, Note_off_c, 0, 57, 64
3, 61632, Note_on_c, 0, 57, 92
3, 61632, Note_on_c, 0, 60, 92
3, 61728, Note_off_c, 0, 60, 64
3, 61728, Note_on_c, 0, 62, 92
3, 61824, Note_off_c, 0, 62, 64
3, 61824, Note_off_c, 0, 57, 64
3, 61824, Note_on_c, 0, 57, 92
3, 61824, Note_on_c, 0, 60, 92
3, 61920, Note_off_c, 0, 60, 64
3, 61920, Note_on_c, 0, 62, 92
3, 62016, Note_off_c, 0, 62, 64
3, 62016, Note_off_c, 0, 57, 64
3, 62016, Note_on_c, 0, 57, 92
3, 62016, Note_on_c, 0, 60, 92
3, 62112, Note_off_c, 0, 60, 64
3, 62112, Note_on_c, 0, 62, 92
3, 62208, Note_off_c, 0, 62, 64
3, 62208, Note_off_c, 0, 57, 64
3, 62208, Note_on_c, 0, 60, 92
3, 62208, Note_on_c, 0, 57, 92
3, 62592, Note_off_c, 0, 57, 64
3, 62592, Note_off_c, 0, 60, 64
3, 62976, Note_on_c, 0, 55, 92
3, 62976, Note_on_c, 0, 59, 92
3, 63072, Note_off_c, 0, 59, 64
3, 63072, Note_on_c, 0, 60, 92
3, 63168, Note_off_c, 0, 60, 64
3, 63168, Note_off_c, 0, 55, 64
3, 63168, Note_on_c, 0, 55, 92
3, 63168, Note_on_c, 0, 59, 92
3, 63264, Note_off_c, 0, 59, 64
3, 63264, Note_on_c, 0, 60, 92
3, 63360, Note_off_c, 0, 60, 64
3, 63360, Note_off_c, 0, 55, 64
3, 63360, Note_on_c, 0, 55, 92
3, 63360, Note_on_c, 0, 59, 92
3, 63456, Note_off_c, 0, 59, 64
3, 63456, Note_on_c, 0, 60, 92
3, 63552, Note_off_c, 0, 60, 64
3, 63552, Note_off_c, 0, 55, 64
3, 63552, Note_on_c, 0, 55, 92
3, 63552, Note_on_c, 0, 57, 92
3, 63648, Note_off_c, 0, 57, 64
3, 63648, Note_on_c, 0, 59, 92
3, 63744, Note_off_c, 0, 59, 64
3, 63744, Note_off_c, 0, 55, 64
3, 63744, Note_on_c, 0, 60, 92
3, 63744, Note_on_c, 0, 55, 92
3, 64128, Note_off_c, 0, 55, 64
3, 64128, Note_off_c, 0, 60, 64
3, 64224, Note_on_c, 0, 59, 92
3, 64320, Note_off_c, 0, 59, 64
3, 64320, Note_on_c, 0, 57, 92
3, 64416, Note_off_c, 0, 57, 64
3, 64416, Note_on_c, 0, 55, 92
3, 64512, Note_off_c, 0, 55, 64
3, 64512, Note_on_c, 0, 64, 92
3, 64608, Note_off_c, 0, 64, 64
3, 64608, Note_on_c, 0, 62, 92
3, 64704, Note_off_c, 0, 62, 64
3, 64704, Note_on_c, 0, 60, 92
3, 64800, Note_off_c, 0, 60, 64
3, 64800, Note_on_c, 0, 59, 92
3, 64896, Note_off_c, 0, 59, 64
3, 64896, Note_on_c, 0, 57, 92
3, 64992, Note_off_c, 0, 57, 64
3, 64992, Note_on_c, 0, 55, 92
3, 65088, Note_off_c, 0, 55, 64
3, 65088, Note_on_c, 0, 53, 92
3, 65184, Note_off_c, 0, 53, 64
3, 65184, Note_on_c, 0, 52, 92
3, 65280, Note_off_c, 0, 52, 64
3, 65280, Note_on_c, 0, 60, 92
3, 65376, Note_off_c, 0, 60, 64
3, 65376, Note_on_c, 0, 59, 92
3, 65472, Note_off_c, 0, 59, 64
3, 65472, Note_on_c, 0, 57, 92
3, 65568, Note_off_c, 0, 57, 64
3, 65568, Note_on_c, 0, 55, 92
3, 65664, Note_off_c, 0, 55, 64
3, 65664, Note_on_c, 0, 53, 92
3, 65760, Note_off_c, 0, 53, 64
3, 65760, Note_on_c, 0, 52, 92
3, 65856, Note_off_c, 0, 52, 64
3, 65856, Note_on_c, 0, 50, 92
3, 65952, Note_off_c, 0, 50, 64
3, 65952, Note_on_c, 0, 48, 92
3, 66048, Note_off_c, 0, 48, 64
3, 66048, Note_on_c, 0, 57, 92
3, 66144, Note_off_c, 0, 57, 64
3, 66144, Note_on_c, 0, 55, 92
3, 66240, Note_off_c, 0, 55, 64
3, 66240, Note_on_c, 0, 54, 92
3, 66336, Note_off_c, 0, 54, 64
3, 66336, Note_on_c, 0, 52, 92
3, 66432, Note_off_c, 0, 52, 64
3, 66432, Note_on_c, 0, 51, 92
3, 66528, Note_off_c, 0, 51, 64
3, 66528, Note_on_c, 0, 52, 92
3, 66624, Note_off_c, 0, 52, 64
3, 66624, Note_on_c, 0, 51, 92
3, 66720, Note_off_c, 0, 51, 64
3, 66720, Note_on_c, 0, 52, 92
3, 66816, Note_off_c, 0, 52, 64
3, 66816, Note_on_c, 0, 51, 92
3, 67200, Note_off_c, 0, 51, 64
3, 68256, Note_on_c, 0, 57, 92
3, 68352, Note_off_c, 0, 57, 64
3, 68352, Note_on_c, 0, 57, 92
3, 68448, Note_off_c, 0, 57, 64
3, 68448, Note_on_c, 0, 60, 92
3, 68544, Note_off_c, 0, 60, 64
3, 68544, Note_on_c, 0, 60, 92
3, 68640, Note_off_c, 0, 60, 64
3, 68640, Note_on_c, 0, 54, 92
3, 68736, Note_off_c, 0, 54, 64
3, 68736, Note_on_c, 0, 54, 92
3, 68832, Note_off_c, 0, 54, 64
3, 68832, Note_on_c, 0, 57, 92
3, 68928, Note_off_c, 0, 57, 64
3, 68928, Note_on_c, 0, 57, 92
3, 69024, Note_off_c, 0, 57, 64
3, 69024, Note_on_c, 0, 51, 92
3, 69120, Note_off_c, 0, 51, 64
3, 69120, Note_on_c, 0, 51, 92
3, 69216, Note_off_c, 0, 51, 64
3, 69216, Note_on_c, 0, 54, 92
3, 69312, Note_off_c, 0, 54, 64
3, 69312, Note_on_c, 0, 54, 92
3, 69408, Note_off_c, 0, 54, 64
3, 69408, Note_on_c, 0, 47, 92
3, 69504, Note_off_c, 0, 47, 64
3, 69504, Note_on_c, 0, 47, 92
3, 69696, Note_off_c, 0, 47, 64
3, 69696, Note_on_c, 0, 71, 92
3, 69696, Note_on_c, 0, 66, 92
3, 69888, Note_off_c, 0, 66, 64
3, 69888, Note_off_c, 0, 71, 64
3, 69888, Note_on_c, 0, 71, 92
3, 69888, Note_on_c, 0, 64, 92
3, 69984, Note_off_c, 0, 64, 64
3, 69984, Note_on_c, 0, 63, 92
3, 70080, Note_off_c, 0, 63, 64
3, 70080, Note_off_c, 0, 71, 64
3, 70080, Note_on_c, 0, 72, 92
3, 70080, Note_on_c, 0, 64, 92
3, 70272, Note_off_c, 0, 64, 64
3, 70272, Note_off_c, 0, 72, 64
3, 70272, Note_on_c, 0, 66, 92
3, 70272, Note_on_c, 0, 59, 92
3, 70464, Note_off_c, 0, 66, 64
3, 70464, Note_on_c, 0, 69, 92
3, 70656, Note_off_c, 0, 69, 64
3, 70656, Note_off_c, 0, 59, 64
3, 70656, Note_on_c, 0, 67, 92
3, 70656, Note_on_c, 0, 59, 92
3, 71040, Note_off_c, 0, 59, 64
3, 71040, Note_off_c, 0, 67, 64
3, 71136, Note_on_c, 0, 67, 92
3, 71232, Note_off_c, 0, 67, 64
3, 71232, Note_on_c, 0, 69, 92
3, 71232, Note_on_c, 0, 65, 92
3, 71328, Note_off_c, 0, 65, 64
3, 71328, Note_on_c, 0, 64, 92
3, 71424, Note_off_c, 0, 64, 64
3, 71424, Note_off_c, 0, 69, 64
3, 71424, Note_on_c, 0, 69, 92
3, 71424, Note_on_c, 0, 62, 92
3, 71520, Note_off_c, 0, 62, 64
3, 71520, Note_on_c, 0, 61, 92
3, 71616, Note_off_c, 0, 61, 64
3, 71616, Note_off_c, 0, 69, 64
3, 71616, Note_on_c, 0, 70, 92
3, 71616, Note_on_c, 0, 62, 92
3, 71808, Note_off_c, 0, 62, 64
3, 71808, Note_off_c, 0, 70, 64
3, 71808, Note_on_c, 0, 64, 92
3, 71808, Note_on_c, 0, 57, 92
3, 72000, Note_off_c, 0, 64, 64
3, 72000, Note_on_c, 0, 67, 92
3, 72192, Note_off_c, 0, 67, 64
3, 72192, Note_off_c, 0, 57, 64
3, 72192, Note_on_c, 0, 65, 92
3, 72192, Note_on_c, 0, 57, 82
3, 72384, Note_off_c, 0, 57, 64
3, 72384, Note_off_c, 0, 65, 64
3, 72384, Note_on_c, 0, 69, 82
3, 72480, Note_off_c, 0, 69, 64
3, 72480, Note_on_c, 0, 74, 82
3, 72576, Note_off_c, 0, 74, 64
3, 72576, Note_on_c, 0, 69, 82
3, 72672, Note_off_c, 0, 69, 64
3, 72672, Note_on_c, 0, 74, 82
3, 72768, Note_off_c, 0, 74, 64
3, 72768, Note_on_c, 0, 69, 82
3, 72864, Note_off_c, 0, 69, 64
3, 72864, Note_on_c, 0, 74, 82
3, 72960, Note_off_c, 0, 74, 64
3, 72960, Note_on_c, 0, 73, 82
3, 73056, Note_off_c, 0, 73, 64
3, 73056, Note_on_c, 0, 69, 82
3, 73152, Note_off_c, 0, 69, 64
3, 73152, Note_on_c, 0, 73, 82
3, 73248, Note_off_c, 0, 73, 64
3, 73248, Note_on_c, 0, 69, 82
3, 73344, Note_off_c, 0, 69, 64
3, 73344, Note_on_c, 0, 73, 82
3, 73440, Note_off_c, 0, 73, 64
3, 73440, Note_on_c, 0, 69, 82
3, 73536, Note_off_c, 0, 69, 64
3, 73536, Note_on_c, 0, 73, 82
3, 73632, Note_off_c, 0, 73, 64
3, 73632, Note_on_c, 0, 69, 82
3, 73728, Note_off_c, 0, 69, 64
3, 73728, Note_on_c, 0, 74, 82
3, 73824, Note_off_c, 0, 74, 64
3, 73824, Note_on_c, 0, 69, 82
3, 73920, Note_off_c, 0, 69, 64
3, 73920, Note_on_c, 0, 74, 82
3, 74016, Note_off_c, 0, 74, 64
3, 74016, Note_on_c, 0, 69, 82
3, 74112, Note_off_c, 0, 69, 64
3, 74112, Note_on_c, 0, 74, 82
3, 74208, Note_off_c, 0, 74, 64
3, 74208, Note_on_c, 0, 69, 82
3, 74304, Note_off_c, 0, 69, 64
3, 74304, Note_on_c, 0, 74, 82
3, 74400, Note_off_c, 0, 74, 64
3, 74400, Note_on_c, 0, 69, 82
3, 74496, Note_off_c, 0, 69, 64
3, 74496, Note_on_c, 0, 76, 82
3, 74592, Note_off_c, 0, 76, 64
3, 74592, Note_on_c, 0, 69, 82
3, 74688, Note_off_c, 0, 69, 64
3, 74688, Note_on_c, 0, 76, 82
3, 74784, Note_off_c, 0, 76, 64
3, 74784, Note_on_c, 0, 69, 82
3, 74880, Note_off_c, 0, 69, 64
3, 74880, Note_on_c, 0, 76, 82
3, 74976, Note_off_c, 0, 76, 64
3, 74976, Note_on_c, 0, 69, 82
3, 75072, Note_off_c, 0, 69, 64
3, 75072, Note_on_c, 0, 76, 82
3, 75168, Note_off_c, 0, 76, 64
3, 75168, Note_on_c, 0, 69, 82
3, 75264, Note_off_c, 0, 69, 64
3, 75264, Note_on_c, 0, 77, 82
3, 75360, Note_off_c, 0, 77, 64
3, 75360, Note_on_c, 0, 69, 82
3, 75456, Note_off_c, 0, 69, 64
3, 75456, Note_on_c, 0, 77, 82
3, 75552, Note_off_c, 0, 77, 64
3, 75552, Note_on_c, 0, 69, 82
3, 75648, Note_off_c, 0, 69, 64
3, 75648, Note_on_c, 0, 77, 82
3, 75744, Note_off_c, 0, 77, 64
3, 75744, Note_on_c, 0, 69, 82
3, 75840, Note_off_c, 0, 69, 64
3, 75840, Note_on_c, 0, 77, 82
3, 75936, Note_off_c, 0, 77, 64
3, 75936, Note_on_c, 0, 69, 82
3, 76032, Note_off_c, 0, 69, 64
3, 76032, Note_on_c, 0, 76, 82
3, 76128, Note_off_c, 0, 76, 64
3, 76128, Note_on_c, 0, 69, 82
3, 76224, Note_off_c, 0, 69, 64
3, 76224, Note_on_c, 0, 76, 82
3, 76320, Note_off_c, 0, 76, 64
3, 76320, Note_on_c, 0, 69, 82
3, 76416, Note_off_c, 0, 69, 64
3, 76416, Note_on_c, 0, 76, 82
3, 76512, Note_off_c, 0, 76, 64
3, 76512, Note_on_c, 0, 69, 82
3, 76608, Note_off_c, 0, 69, 64
3, 76608, Note_on_c, 0, 76, 82
3, 76704, Note_off_c, 0, 76, 64
3, 76704, Note_on_c, 0, 69, 82
3, 76800, Note_off_c, 0, 69, 64
3, 76800, Note_on_c, 0, 74, 82
3, 76896, Note_off_c, 0, 74, 64
3, 76896, Note_on_c, 0, 62, 82
3, 76992, Note_off_c, 0, 62, 64
3, 76992, Note_on_c, 0, 65, 82
3, 77088, Note_off_c, 0, 65, 64
3, 77088, Note_on_c, 0, 67, 82
3, 77184, Note_off_c, 0, 67, 64
3, 77184, Note_on_c, 0, 69, 82
3, 77280, Note_off_c, 0, 69, 64
3, 77280, Note_on_c, 0, 67, 82
3, 77376, Note_off_c, 0, 67, 64
3, 77376, Note_on_c, 0, 65, 82
3, 77472, Note_off_c, 0, 65, 64
3, 77472, Note_on_c, 0, 64, 82
3, 77568, Note_off_c, 0, 64, 64
3, 77568, Note_on_c, 0, 62, 92
3, 77760, Note_off_c, 0, 62, 64
3, 77760, Note_on_c, 0, 50, 92
3, 77952, Note_off_c, 0, 50, 64
3, 77952, Note_on_c, 0, 53, 92
3, 78144, Note_off_c, 0, 53, 64
3, 78144, Note_on_c, 0, 57, 92
3, 78336, Note_off_c, 0, 57, 64
3, 78336, Note_on_c, 0, 62, 92
3, 78720, Note_off_c, 0, 62, 64
3, 78720, Note_on_c, 0, 61, 92
3, 79104, Note_off_c, 0, 61, 64
3, 79104, Note_on_c, 0, 62, 92
3, 79200, Note_off_c, 0, 62, 64
3, 79200, Note_on_c, 0, 60, 92
3, 79296, Note_off_c, 0, 60, 64
3, 79296, Note_on_c, 0, 58, 92
3, 79392, Note_off_c, 0, 58, 64
3, 79392, Note_on_c, 0, 57, 92
3, 79488, Note_off_c, 0, 57, 64
3, 79488, Note_on_c, 0, 55, 92
3, 79584, Note_off_c, 0, 55, 64
3, 79584, Note_on_c, 0, 53, 92
3, 79680, Note_off_c, 0, 53, 64
3, 79680, Note_on_c, 0, 52, 92
3, 79776, Note_off_c, 0, 52, 64
3, 79776, Note_on_c, 0, 50, 92
3, 79872, Note_off_c, 0, 50, 64
3, 79872, Note_on_c, 0, 57, 92
3, 80064, Note_off_c, 0, 57, 64
3, 80064, Note_on_c, 0, 45, 92
3, 80256, Note_off_c, 0, 45, 64
3, 80256, Note_on_c, 0, 45, 92
3, 80448, Note_off_c, 0, 45, 64
3, 80448, Note_on_c, 0, 47, 92
3, 80544, Note_off_c, 0, 47, 64
3, 80544, Note_on_c, 0, 49, 92
3, 80640, Note_off_c, 0, 49, 64
3, 80640, Note_on_c, 0, 50, 92
3, 80832, Note_off_c, 0, 50, 64
3, 80832, Note_on_c, 0, 50, 92
3, 80928, Note_off_c, 0, 50, 64
3, 80928, Note_on_c, 0, 52, 92
3, 81024, Note_off_c, 0, 52, 64
3, 81024, Note_on_c, 0, 53, 92
3, 81216, Note_off_c, 0, 53, 64
3, 81216, Note_on_c, 0, 53, 92
3, 81312, Note_off_c, 0, 53, 64
3, 81312, Note_on_c, 0, 55, 92
3, 81408, Note_off_c, 0, 55, 64
3, 81408, Note_on_c, 0, 57, 92
3, 81600, Note_off_c, 0, 57, 64
3, 81600, Note_on_c, 0, 45, 92
3, 81792, Note_off_c, 0, 45, 64
3, 81792, Note_on_c, 0, 45, 92
3, 81984, Note_off_c, 0, 45, 64
3, 81984, Note_on_c, 0, 47, 92
3, 82080, Note_off_c, 0, 47, 64
3, 82080, Note_on_c, 0, 49, 92
3, 82176, Note_off_c, 0, 49, 64
3, 82176, Note_on_c, 0, 50, 92
3, 82368, Note_off_c, 0, 50, 64
3, 82368, Note_on_c, 0, 50, 92
3, 82464, Note_off_c, 0, 50, 64
3, 82464, Note_on_c, 0, 52, 92
3, 82560, Note_off_c, 0, 52, 64
3, 82560, Note_on_c, 0, 53, 92
3, 82752, Note_off_c, 0, 53, 64
3, 82752, Note_on_c, 0, 53, 92
3, 82848, Note_off_c, 0, 53, 64
3, 82848, Note_on_c, 0, 55, 92
3, 82944, Note_off_c, 0, 55, 64
3, 82944, Note_on_c, 0, 57, 82
3, 83040, Note_off_c, 0, 57, 64
3, 83040, Note_on_c, 0, 81, 82
3, 83136, Note_off_c, 0, 81, 64
3, 83136, Note_on_c, 0, 76, 82
3, 83232, Note_off_c, 0, 76, 64
3, 83232, Note_on_c, 0, 81, 82
3, 83328, Note_off_c, 0, 81, 64
3, 83328, Note_on_c, 0, 73, 82
3, 83424, Note_off_c, 0, 73, 64
3, 83424, Note_on_c, 0, 81, 82
3, 83520, Note_off_c, 0, 81, 64
3, 83520, Note_on_c, 0, 76, 82
3, 83616, Note_off_c, 0, 76, 64
3, 83616, Note_on_c, 0, 81, 82
3, 83712, Note_off_c, 0, 81, 64
3, 83712, Note_on_c, 0, 73, 82
3, 83808, Note_off_c, 0, 73, 64
3, 83808, Note_on_c, 0, 81, 82
3, 83904, Note_off_c, 0, 81, 64
3, 83904, Note_on_c, 0, 76, 82
3, 84000, Note_off_c, 0, 76, 64
3, 84000, Note_on_c, 0, 81, 82
3, 84096, Note_off_c, 0, 81, 64
3, 84096, Note_on_c, 0, 73, 82
3, 84192, Note_off_c, 0, 73, 64
3, 84192, Note_on_c, 0, 81, 82
3, 84288, Note_off_c, 0, 81, 64
3, 84288, Note_on_c, 0, 76, 82
3, 84384, Note_off_c, 0, 76, 64
3, 84384, Note_on_c, 0, 81, 82
3, 84480, Note_off_c, 0, 81, 64
3, 84480, Note_on_c, 0, 74, 82
3, 84576, Note_off_c, 0, 74, 64
3, 84576, Note_on_c, 0, 81, 82
3, 84672, Note_off_c, 0, 81, 64
3, 84672, Note_on_c, 0, 77, 82
3, 84768, Note_off_c, 0, 77, 64
3, 84768, Note_on_c, 0, 81, 82
3, 84864, Note_off_c, 0, 81, 64
3, 84864, Note_on_c, 0, 74, 82
3, 84960, Note_off_c, 0, 74, 64
3, 84960, Note_on_c, 0, 81, 82
3, 85056, Note_off_c, 0, 81, 64
3, 85056, Note_on_c, 0, 77, 82
3, 85152, Note_off_c, 0, 77, 64
3, 85152, Note_on_c, 0, 81, 82
3, 85248, Note_off_c, 0, 81, 64
3, 85248, Note_on_c, 0, 74, 82
3, 85344, Note_off_c, 0, 74, 64
3, 85344, Note_on_c, 0, 81, 82
3, 85440, Note_off_c, 0, 81, 64
3, 85440, Note_on_c, 0, 77, 82
3, 85536, Note_off_c, 0, 77, 64
3, 85536, Note_on_c, 0, 81, 82
3, 85632, Note_off_c, 0, 81, 64
3, 85632, Note_on_c, 0, 74, 82
3, 85728, Note_off_c, 0, 74, 64
3, 85728, Note_on_c, 0, 81, 82
3, 85824, Note_off_c, 0, 81, 64
3, 85824, Note_on_c, 0, 77, 82
3, 85920, Note_off_c, 0, 77, 64
3, 85920, Note_on_c, 0, 81, 82
3, 86016, Note_off_c, 0, 81, 64
3, 86016, Note_on_c, 0, 74, 82
3, 86112, Note_off_c, 0, 74, 64
3, 86112, Note_on_c, 0, 82, 82
3, 86208, Note_off_c, 0, 82, 64
3, 86208, Note_on_c, 0, 77, 82
3, 86304, Note_off_c, 0, 77, 64
3, 86304, Note_on_c, 0, 82, 82
3, 86400, Note_off_c, 0, 82, 64
3, 86400, Note_on_c, 0, 74, 82
3, 86496, Note_off_c, 0, 74, 64
3, 86496, Note_on_c, 0, 82, 82
3, 86592, Note_off_c, 0, 82, 64
3, 86592, Note_on_c, 0, 77, 82
3, 86688, Note_off_c, 0, 77, 64
3, 86688, Note_on_c, 0, 82, 82
3, 86784, Note_off_c, 0, 82, 64
3, 86784, Note_on_c, 0, 74, 82
3, 86880, Note_off_c, 0, 74, 64
3, 86880, Note_on_c, 0, 82, 82
3, 86976, Note_off_c, 0, 82, 64
3, 86976, Note_on_c, 0, 77, 82
3, 87072, Note_off_c, 0, 77, 64
3, 87072, Note_on_c, 0, 82, 82
3, 87168, Note_off_c, 0, 82, 64
3, 87168, Note_on_c, 0, 74, 82
3, 87264, Note_off_c, 0, 74, 64
3, 87264, Note_on_c, 0, 82, 82
3, 87360, Note_off_c, 0, 82, 64
3, 87360, Note_on_c, 0, 77, 82
3, 87456, Note_off_c, 0, 77, 64
3, 87456, Note_on_c, 0, 82, 82
3, 87552, Note_off_c, 0, 82, 64
3, 87552, Note_on_c, 0, 72, 82
3, 87648, Note_off_c, 0, 72, 64
3, 87648, Note_on_c, 0, 82, 82
3, 87744, Note_off_c, 0, 82, 64
3, 87744, Note_on_c, 0, 76, 82
3, 87840, Note_off_c, 0, 76, 64
3, 87840, Note_on_c, 0, 82, 82
3, 87936, Note_off_c, 0, 82, 64
3, 87936, Note_on_c, 0, 72, 82
3, 88032, Note_off_c, 0, 72, 64
3, 88032, Note_on_c, 0, 82, 82
3, 88128, Note_off_c, 0, 82, 64
3, 88128, Note_on_c, 0, 76, 82
3, 88224, Note_off_c, 0, 76, 64
3, 88224, Note_on_c, 0, 82, 82
3, 88320, Note_off_c, 0, 82, 64
3, 88320, Note_on_c, 0, 72, 82
3, 88416, Note_off_c, 0, 72, 64
3, 88416, Note_on_c, 0, 82, 82
3, 88512, Note_off_c, 0, 82, 64
3, 88512, Note_on_c, 0, 76, 82
3, 88608, Note_off_c, 0, 76, 64
3, 88608, Note_on_c, 0, 82, 82
3, 88704, Note_off_c, 0, 82, 64
3, 88704, Note_on_c, 0, 72, 82
3, 88800, Note_off_c, 0, 72, 64
3, 88800, Note_on_c, 0, 82, 82
3, 88896, Note_off_c, 0, 82, 64
3, 88896, Note_on_c, 0, 76, 82
3, 88992, Note_off_c, 0, 76, 64
3, 88992, Note_on_c, 0, 82, 82
3, 89088, Note_off_c, 0, 82, 64
3, 89088, Note_on_c, 0, 72, 82
3, 89184, Note_off_c, 0, 72, 64
3, 89184, Note_on_c, 0, 81, 82
3, 89280, Note_off_c, 0, 81, 64
3, 89280, Note_on_c, 0, 77, 82
3, 89376, Note_off_c, 0, 77, 64
3, 89376, Note_on_c, 0, 81, 82
3, 89472, Note_off_c, 0, 81, 64
3, 89472, Note_on_c, 0, 72, 82
3, 89568, Note_off_c, 0, 72, 64
3, 89568, Note_on_c, 0, 81, 82
3, 89664, Note_off_c, 0, 81, 64
3, 89664, Note_on_c, 0, 77, 82
3, 89760, Note_off_c, 0, 77, 64
3, 89760, Note_on_c, 0, 81, 82
3, 89856, Note_off_c, 0, 81, 64
3, 89856, Note_on_c, 0, 72, 82
3, 89952, Note_off_c, 0, 72, 64
3, 89952, Note_on_c, 0, 81, 82
3, 90048, Note_off_c, 0, 81, 64
3, 90048, Note_on_c, 0, 77, 82
3, 90144, Note_off_c, 0, 77, 64
3, 90144, Note_on_c, 0, 81, 82
3, 90240, Note_off_c, 0, 81, 64
3, 90240, Note_on_c, 0, 72, 82
3, 90336, Note_off_c, 0, 72, 64
3, 90336, Note_on_c, 0, 81, 82
3, 90432, Note_off_c, 0, 81, 64
3, 90432, Note_on_c, 0, 77, 82
3, 90528, Note_off_c, 0, 77, 64
3, 90528, Note_on_c, 0, 81, 82
3, 90624, Note_off_c, 0, 81, 64
3, 90624, Note_on_c, 0, 70, 82
3, 90720, Note_off_c, 0, 70, 64
3, 90720, Note_on_c, 0, 81, 82
3, 90816, Note_off_c, 0, 81, 64
3, 90816, Note_on_c, 0, 77, 82
3, 90912, Note_off_c, 0, 77, 64
3, 90912, Note_on_c, 0, 81, 82
3, 91008, Note_off_c, 0, 81, 64
3, 91008, Note_on_c, 0, 70, 82
3, 91104, Note_off_c, 0, 70, 64
3, 91104, Note_on_c, 0, 81, 82
3, 91200, Note_off_c, 0, 81, 64
3, 91200, Note_on_c, 0, 77, 82
3, 91296, Note_off_c, 0, 77, 64
3, 91296, Note_on_c, 0, 81, 82
3, 91392, Note_off_c, 0, 81, 64
3, 91392, Note_on_c, 0, 70, 82
3, 91488, Note_off_c, 0, 70, 64
3, 91488, Note_on_c, 0, 81, 82
3, 91584, Note_off_c, 0, 81, 64
3, 91584, Note_on_c, 0, 77, 82
3, 91680, Note_off_c, 0, 77, 64
3, 91680, Note_on_c, 0, 81, 82
3, 91776, Note_off_c, 0, 81, 64
3, 91776, Note_on_c, 0, 70, 82
3, 91872, Note_off_c, 0, 70, 64
3, 91872, Note_on_c, 0, 81, 82
3, 91968, Note_off_c, 0, 81, 64
3, 91968, Note_on_c, 0, 77, 82
3, 92064, Note_off_c, 0, 77, 64
3, 92064, Note_on_c, 0, 81, 82
3, 92160, Note_off_c, 0, 81, 64
3, 92160, Note_on_c, 0, 70, 82
3, 92256, Note_off_c, 0, 70, 64
3, 92256, Note_on_c, 0, 79, 82
3, 92352, Note_off_c, 0, 79, 64
3, 92352, Note_on_c, 0, 74, 82
3, 92448, Note_off_c, 0, 74, 64
3, 92448, Note_on_c, 0, 79, 82
3, 92544, Note_off_c, 0, 79, 64
3, 92544, Note_on_c, 0, 70, 82
3, 92640, Note_off_c, 0, 70, 64
3, 92640, Note_on_c, 0, 79, 82
3, 92736, Note_off_c, 0, 79, 64
3, 92736, Note_on_c, 0, 74, 82
3, 92832, Note_off_c, 0, 74, 64
3, 92832, Note_on_c, 0, 79, 82
3, 92928, Note_off_c, 0, 79, 64
3, 92928, Note_on_c, 0, 70, 82
3, 93024, Note_off_c, 0, 70, 64
3, 93024, Note_on_c, 0, 79, 82
3, 93120, Note_off_c, 0, 79, 64
3, 93120, Note_on_c, 0, 74, 82
3, 93216, Note_off_c, 0, 74, 64
3, 93216, Note_on_c, 0, 79, 82
3, 93312, Note_off_c, 0, 79, 64
3, 93312, Note_on_c, 0, 70, 82
3, 93408, Note_off_c, 0, 70, 64
3, 93408, Note_on_c, 0, 79, 82
3, 93504, Note_off_c, 0, 79, 64
3, 93504, Note_on_c, 0, 74, 82
3, 93600, Note_off_c, 0, 74, 64
3, 93600, Note_on_c, 0, 79, 82
3, 93696, Note_off_c, 0, 79, 64
3, 93696, Note_on_c, 0, 73, 82
3, 93888, Note_off_c, 0, 73, 64
3, 93888, Note_on_c, 0, 69, 82
3, 94080, Note_off_c, 0, 69, 64
3, 94272, Note_on_c, 0, 64, 92
3, 94272, Note_on_c, 0, 61, 92
3, 94272, Note_on_c, 0, 57, 92
3, 94464, Note_off_c, 0, 57, 64
3, 94464, Note_off_c, 0, 61, 64
3, 94464, Note_off_c, 0, 64, 64
3, 94464, Note_on_c, 0, 64, 92
3, 94464, Note_on_c, 0, 56, 92
3, 94464, Note_on_c, 0, 62, 92
3, 97920, Note_off_c, 0, 62, 64
3, 97920, Note_off_c, 0, 56, 64
3, 97920, Note_off_c, 0, 64, 64
3, 98112, Note_on_c, 0, 57, 92
3, 98112, Note_on_c, 0, 60, 92
3, 98112, Note_on_c, 0, 64, 92
3, 98304, Note_off_c, 0, 64, 64
3, 98304, Note_off_c, 0, 60, 64
3, 98304, Note_off_c, 0, 57, 64
3, 98304, Note_on_c, 0, 65, 92
3, 98304, Note_on_c, 0, 62, 92
3, 98304, Note_on_c, 0, 59, 92
3, 98688, Note_off_c, 0, 59, 64
3, 98688, Note_off_c, 0, 62, 64
3, 98688, Note_off_c, 0, 65, 64
3, 98688, Note_on_c, 0, 59, 92
3, 98688, Note_on_c, 0, 64, 92
3, 99072, Note_off_c, 0, 64, 64
3, 99072, Note_off_c, 0, 59, 64
3, 99072, Note_on_c, 0, 52, 92
3, 99072, Note_on_c, 0, 57, 92
3, 99072, Note_on_c, 0, 60, 92
3, 99072, Note_on_c, 0, 64, 92
3, 99456, Note_off_c, 0, 64, 64
3, 99456, Note_off_c, 0, 60, 64
3, 99456, Note_off_c, 0, 57, 64
3, 99456, Note_off_c, 0, 52, 64
3, 99840, Note_on_c, 0, 69, 82
3, 100224, Note_off_c, 0, 69, 64
3, 100416, Note_on_c, 0, 69, 82
3, 100608, Note_off_c, 0, 69, 64
3, 100608, Note_on_c, 0, 62, 82
3, 100992, Note_off_c, 0, 62, 64
3, 101184, Note_on_c, 0, 62, 82
3, 101376, Note_off_c, 0, 62, 64
3, 101376, Note_on_c, 0, 69, 82
3, 101760, Note_off_c, 0, 69, 64
3, 101952, Note_on_c, 0, 69, 82
3, 102144, Note_off_c, 0, 69, 64
3, 102144, Note_on_c, 0, 62, 82
3, 102528, Note_off_c, 0, 62, 64
3, 102720, Note_on_c, 0, 62, 82
3, 102912, Note_off_c, 0, 62, 64
3, 102912, Note_on_c, 0, 69, 82
3, 103008, Note_off_c, 0, 69, 64
3, 103680, Note_on_c, 0, 64, 92
3, 103680, Note_on_c, 0, 57, 82
3, 104064, Note_off_c, 0, 57, 64
3, 104064, Note_off_c, 0, 64, 64
3, 104064, Note_on_c, 0, 64, 92
3, 104064, Note_on_c, 0, 59, 82
3, 104448, Note_off_c, 0, 59, 64
3, 104448, Note_off_c, 0, 64, 64
3, 104448, Note_on_c, 0, 64, 92
3, 104448, Note_on_c, 0, 57, 92
3, 104832, Note_off_c, 0, 57, 64
3, 104832, Note_off_c, 0, 64, 64
3, 105024, Note_on_c, 0, 60, 92
3, 105216, Note_off_c, 0, 60, 64
3, 105216, Note_on_c, 0, 59, 92
3, 105504, Note_off_c, 0, 59, 64
3, 105504, Note_on_c, 0, 57, 92
3, 105600, Note_off_c, 0, 57, 64
3, 105600, Note_on_c, 0, 56, 92
3, 105792, Note_off_c, 0, 56, 64
3, 105792, Note_on_c, 0, 57, 92
3, 105888, Note_off_c, 0, 57, 64
3, 105888, Note_on_c, 0, 59, 92
3, 105984, Note_off_c, 0, 59, 64
3, 105984, Note_on_c, 0, 60, 92
3, 106176, Note_off_c, 0, 60, 64
3, 106176, Note_on_c, 0, 60, 92
3, 106272, Note_off_c, 0, 60, 64
3, 106272, Note_on_c, 0, 62, 92
3, 106368, Note_off_c, 0, 62, 64
3, 106368, Note_on_c, 0, 64, 92
3, 106560, Note_off_c, 0, 64, 64
3, 106560, Note_on_c, 0, 60, 92
3, 106752, Note_off_c, 0, 60, 64
3, 106752, Note_on_c, 0, 59, 92
3, 107040, Note_off_c, 0, 59, 64
3, 107040, Note_on_c, 0, 57, 92
3, 107136, Note_off_c, 0, 57, 64
3, 107136, Note_on_c, 0, 56, 92
3, 107328, Note_off_c, 0, 56, 64
3, 107328, Note_on_c, 0, 57, 92
3, 107424, Note_off_c, 0, 57, 64
3, 107424, Note_on_c, 0, 59, 92
3, 107520, Note_off_c, 0, 59, 64
3, 107520, Note_on_c, 0, 60, 92
3, 107712, Note_off_c, 0, 60, 64
3, 108288, Note_on_c, 0, 76, 82
3, 108384, Note_off_c, 0, 76, 64
3, 108384, Note_on_c, 0, 75, 82
3, 108480, Note_off_c, 0, 75, 64
3, 108480, Note_on_c, 0, 76, 82
3, 108576, Note_off_c, 0, 76, 64
3, 108576, Note_on_c, 0, 71, 82
3, 108672, Note_off_c, 0, 71, 64
3, 108672, Note_on_c, 0, 76, 82
3, 108768, Note_off_c, 0, 76, 64
3, 108768, Note_on_c, 0, 75, 82
3, 108864, Note_off_c, 0, 75, 64
3, 108864, Note_on_c, 0, 76, 82
3, 108960, Note_off_c, 0, 76, 64
3, 108960, Note_on_c, 0, 71, 82
3, 109056, Note_off_c, 0, 71, 64
3, 109056, Note_on_c, 0, 76, 82
3, 109152, Note_off_c, 0, 76, 64
3, 109152, Note_on_c, 0, 75, 82
3, 109248, Note_off_c, 0, 75, 64
3, 109248, Note_on_c, 0, 76, 82
3, 109344, Note_off_c, 0, 76, 64
3, 109344, Note_on_c, 0, 71, 82
3, 109440, Note_off_c, 0, 71, 64
3, 109440, Note_on_c, 0, 76, 82
3, 109536, Note_off_c, 0, 76, 64
3, 109536, Note_on_c, 0, 75, 82
3, 109632, Note_off_c, 0, 75, 64
3, 109632, Note_on_c, 0, 76, 82
3, 109728, Note_off_c, 0, 76, 64
3, 109728, Note_on_c, 0, 71, 82
3, 109824, Note_off_c, 0, 71, 64
3, 109824, Note_on_c, 0, 76, 82
3, 109920, Note_off_c, 0, 76, 64
3, 109920, Note_on_c, 0, 74, 82
3, 110016, Note_off_c, 0, 74, 64
3, 110016, Note_on_c, 0, 76, 82
3, 110112, Note_off_c, 0, 76, 64
3, 110112, Note_on_c, 0, 72, 82
3, 110208, Note_off_c, 0, 72, 64
3, 110208, Note_on_c, 0, 76, 82
3, 110304, Note_off_c, 0, 76, 64
3, 110304, Note_on_c, 0, 74, 82
3, 110400, Note_off_c, 0, 74, 64
3, 110400, Note_on_c, 0, 76, 82
3, 110496, Note_off_c, 0, 76, 64
3, 110496, Note_on_c, 0, 72, 82
3, 110592, Note_off_c, 0, 72, 64
3, 110592, Note_on_c, 0, 76, 82
3, 110688, Note_off_c, 0, 76, 64
3, 110688, Note_on_c, 0, 74, 82
3, 110784, Note_off_c, 0, 74, 64
3, 110784, Note_on_c, 0, 76, 82
3, 110880, Note_off_c, 0, 76, 64
3, 110880, Note_on_c, 0, 72, 82
3, 110976, Note_off_c, 0, 72, 64
3, 110976, Note_on_c, 0, 76, 82
3, 111072, Note_off_c, 0, 76, 64
3, 111072, Note_on_c, 0, 74, 82
3, 111168, Note_off_c, 0, 74, 64
3, 111168, Note_on_c, 0, 76, 82
3, 111264, Note_off_c, 0, 76, 64
3, 111264, Note_on_c, 0, 72, 82
3, 111360, Note_off_c, 0, 72, 64
3, 111360, Note_on_c, 0, 77, 82
3, 111456, Note_off_c, 0, 77, 64
3, 111456, Note_on_c, 0, 76, 82
3, 111552, Note_off_c, 0, 76, 64
3, 111552, Note_on_c, 0, 77, 82
3, 111648, Note_off_c, 0, 77, 64
3, 111648, Note_on_c, 0, 72, 82
3, 111744, Note_off_c, 0, 72, 64
3, 111744, Note_on_c, 0, 77, 82
3, 111840, Note_off_c, 0, 77, 64
3, 111840, Note_on_c, 0, 76, 82
3, 111936, Note_off_c, 0, 76, 64
3, 111936, Note_on_c, 0, 77, 82
3, 112032, Note_off_c, 0, 77, 64
3, 112032, Note_on_c, 0, 72, 82
3, 112128, Note_off_c, 0, 72, 64
3, 112128, Note_on_c, 0, 77, 82
3, 112224, Note_off_c, 0, 77, 64
3, 112224, Note_on_c, 0, 76, 82
3, 112320, Note_off_c, 0, 76, 64
3, 112320, Note_on_c, 0, 77, 82
3, 112416, Note_off_c, 0, 77, 64
3, 112416, Note_on_c, 0, 72, 82
3, 112512, Note_off_c, 0, 72, 64
3, 112512, Note_on_c, 0, 77, 82
3, 112608, Note_off_c, 0, 77, 64
3, 112608, Note_on_c, 0, 76, 82
3, 112704, Note_off_c, 0, 76, 64
3, 112704, Note_on_c, 0, 77, 82
3, 112800, Note_off_c, 0, 77, 64
3, 112800, Note_on_c, 0, 72, 82
3, 112896, Note_off_c, 0, 72, 64
3, 112896, Note_on_c, 0, 77, 82
3, 112992, Note_off_c, 0, 77, 64
3, 112992, Note_on_c, 0, 76, 82
3, 113088, Note_off_c, 0, 76, 64
3, 113088, Note_on_c, 0, 77, 82
3, 113184, Note_off_c, 0, 77, 64
3, 113184, Note_on_c, 0, 71, 82
3, 113280, Note_off_c, 0, 71, 64
3, 113280, Note_on_c, 0, 77, 82
3, 113376, Note_off_c, 0, 77, 64
3, 113376, Note_on_c, 0, 76, 82
3, 113472, Note_off_c, 0, 76, 64
3, 113472, Note_on_c, 0, 77, 82
3, 113568, Note_off_c, 0, 77, 64
3, 113568, Note_on_c, 0, 71, 82
3, 113664, Note_off_c, 0, 71, 64
3, 113664, Note_on_c, 0, 77, 82
3, 113760, Note_off_c, 0, 77, 64
3, 113760, Note_on_c, 0, 76, 82
3, 113856, Note_off_c, 0, 76, 64
3, 113856, Note_on_c, 0, 77, 82
3, 113952, Note_off_c, 0, 77, 64
3, 113952, Note_on_c, 0, 71, 82
3, 114048, Note_off_c, 0, 71, 64
3, 114048, Note_on_c, 0, 77, 82
3, 114144, Note_off_c, 0, 77, 64
3, 114144, Note_on_c, 0, 76, 82
3, 114240, Note_off_c, 0, 76, 64
3, 114240, Note_on_c, 0, 77, 82
3, 114336, Note_off_c, 0, 77, 64
3, 114336, Note_on_c, 0, 71, 82
3, 114432, Note_off_c, 0, 71, 64
3, 114432, Note_on_c, 0, 76, 82
3, 114528, Note_off_c, 0, 76, 64
3, 114528, Note_on_c, 0, 74, 82
3, 114624, Note_off_c, 0, 74, 64
3, 114624, Note_on_c, 0, 76, 82
3, 114720, Note_off_c, 0, 76, 64
3, 114720, Note_on_c, 0, 71, 82
3, 114816, Note_off_c, 0, 71, 64
3, 114816, Note_on_c, 0, 76, 82
3, 114912, Note_off_c, 0, 76, 64
3, 114912, Note_on_c, 0, 74, 82
3, 115008, Note_off_c, 0, 74, 64
3, 115008, Note_on_c, 0, 76, 82
3, 115104, Note_off_c, 0, 76, 64
3, 115104, Note_on_c, 0, 71, 82
3, 115200, Note_off_c, 0, 71, 64
3, 115200, Note_on_c, 0, 76, 82
3, 115296, Note_off_c, 0, 76, 64
3, 115296, Note_on_c, 0, 74, 82
3, 115392, Note_off_c, 0, 74, 64
3, 115392, Note_on_c, 0, 76, 82
3, 115488, Note_off_c, 0, 76, 64
3, 115488, Note_on_c, 0, 71, 82
3, 115584, Note_off_c, 0, 71, 64
3, 115584, Note_on_c, 0, 76, 82
3, 115680, Note_off_c, 0, 76, 64
3, 115680, Note_on_c, 0, 74, 82
3, 115776, Note_off_c, 0, 74, 64
3, 115776, Note_on_c, 0, 76, 82
3, 115872, Note_off_c, 0, 76, 64
3, 115872, Note_on_c, 0, 71, 82
3, 115968, Note_off_c, 0, 71, 64
3, 115968, Note_on_c, 0, 76, 82
3, 116064, Note_off_c, 0, 76, 64
3, 116064, Note_on_c, 0, 74, 82
3, 116160, Note_off_c, 0, 74, 64
3, 116160, Note_on_c, 0, 76, 82
3, 116256, Note_off_c, 0, 76, 64
3, 116256, Note_on_c, 0, 69, 82
3, 116352, Note_off_c, 0, 69, 64
3, 116352, Note_on_c, 0, 76, 82
3, 116448, Note_off_c, 0, 76, 64
3, 116448, Note_on_c, 0, 74, 82
3, 116544, Note_off_c, 0, 74, 64
3, 116544, Note_on_c, 0, 76, 82
3, 116640, Note_off_c, 0, 76, 64
3, 116640, Note_on_c, 0, 69, 82
3, 116736, Note_off_c, 0, 69, 64
3, 116736, Note_on_c, 0, 76, 82
3, 116832, Note_off_c, 0, 76, 64
3, 116832, Note_on_c, 0, 74, 82
3, 116928, Note_off_c, 0, 74, 64
3, 116928, Note_on_c, 0, 76, 82
3, 117024, Note_off_c, 0, 76, 64
3, 117024, Note_on_c, 0, 69, 82
3, 117120, Note_off_c, 0, 69, 64
3, 117120, Note_on_c, 0, 76, 82
3, 117216, Note_off_c, 0, 76, 64
3, 117216, Note_on_c, 0, 74, 82
3, 117312, Note_off_c, 0, 74, 64
3, 117312, Note_on_c, 0, 76, 82
3, 117408, Note_off_c, 0, 76, 64
3, 117408, Note_on_c, 0, 69, 82
3, 117504, Note_off_c, 0, 69, 64
3, 117504, Note_on_c, 0, 74, 82
3, 117600, Note_off_c, 0, 74, 64
3, 117600, Note_on_c, 0, 72, 82
3, 117696, Note_off_c, 0, 72, 64
3, 117696, Note_on_c, 0, 74, 82
3, 117792, Note_off_c, 0, 74, 64
3, 117792, Note_on_c, 0, 69, 82
3, 117888, Note_off_c, 0, 69, 64
3, 117888, Note_on_c, 0, 74, 82
3, 117984, Note_off_c, 0, 74, 64
3, 117984, Note_on_c, 0, 72, 82
3, 118080, Note_off_c, 0, 72, 64
3, 118080, Note_on_c, 0, 74, 82
3, 118176, Note_off_c, 0, 74, 64
3, 118176, Note_on_c, 0, 69, 82
3, 118272, Note_off_c, 0, 69, 64
3, 118272, Note_on_c, 0, 74, 82
3, 118368, Note_off_c, 0, 74, 64
3, 118368, Note_on_c, 0, 72, 82
3, 118464, Note_off_c, 0, 72, 64
3, 118464, Note_on_c, 0, 74, 82
3, 118560, Note_off_c, 0, 74, 64
3, 118560, Note_on_c, 0, 69, 82
3, 118656, Note_off_c, 0, 69, 64
3, 118656, Note_on_c, 0, 74, 82
3, 118752, Note_off_c, 0, 74, 64
3, 118752, Note_on_c, 0, 72, 82
3, 118848, Note_off_c, 0, 72, 64
3, 118848, Note_on_c, 0, 74, 82
3, 118944, Note_off_c, 0, 74, 64
3, 118944, Note_on_c, 0, 69, 82
3, 119040, Note_off_c, 0, 69, 64
3, 119040, Note_on_c, 0, 71, 92
3, 119232, Note_off_c, 0, 71, 64
3, 119232, Note_on_c, 0, 64, 92
3, 119232, Note_on_c, 0, 59, 92
3, 119424, Note_off_c, 0, 59, 64
3, 119424, Note_off_c, 0, 64, 64
3, 119424, Note_on_c, 0, 64, 92
3, 119424, Note_on_c, 0, 59, 92
3, 119520, Note_off_c, 0, 64, 64
3, 119520, Note_on_c, 0, 65, 92
3, 119616, Note_off_c, 0, 65, 64
3, 119616, Note_off_c, 0, 59, 64
3, 119616, Note_on_c, 0, 64, 92
3, 119616, Note_on_c, 0, 59, 92
3, 119808, Note_off_c, 0, 59, 64
3, 119808, Note_off_c, 0, 64, 64
3, 120000, Note_on_c, 0, 64, 92
3, 120000, Note_on_c, 0, 60, 92
3, 120192, Note_off_c, 0, 60, 64
3, 120192, Note_off_c, 0, 64, 64
3, 120192, Note_on_c, 0, 64, 92
3, 120192, Note_on_c, 0, 60, 92
3, 120288, Note_off_c, 0, 64, 64
3, 120288, Note_on_c, 0, 65, 92
3, 120384, Note_off_c, 0, 65, 64
3, 120384, Note_off_c, 0, 60, 64
3, 120384, Note_on_c, 0, 64, 92
3, 120384, Note_on_c, 0, 60, 92
3, 120576, Note_off_c, 0, 60, 64
3, 120576, Note_off_c, 0, 64, 64
3, 120768, Note_on_c, 0, 64, 92
3, 120768, Note_on_c, 0, 59, 92
3, 120960, Note_off_c, 0, 59, 64
3, 120960, Note_off_c, 0, 64, 64
3, 120960, Note_on_c, 0, 64, 92
3, 120960, Note_on_c, 0, 59, 92
3, 121056, Note_off_c, 0, 64, 64
3, 121056, Note_on_c, 0, 65, 92
3, 121152, Note_off_c, 0, 65, 64
3, 121152, Note_off_c, 0, 59, 64
3, 121152, Note_on_c, 0, 64, 92
3, 121152, Note_on_c, 0, 59, 92
3, 121344, Note_off_c, 0, 59, 64
3, 121344, Note_off_c, 0, 64, 64
3, 121536, Note_on_c, 0, 64, 92
3, 121536, Note_on_c, 0, 60, 92
3, 121728, Note_off_c, 0, 60, 64
3, 121728, Note_off_c, 0, 64, 64
3, 121728, Note_on_c, 0, 64, 92
3, 121728, Note_on_c, 0, 60, 92
3, 121824, Note_off_c, 0, 64, 64
3, 121824, Note_on_c, 0, 65, 92
3, 121920, Note_off_c, 0, 65, 64
3, 121920, Note_off_c, 0, 60, 64
3, 121920, Note_on_c, 0, 64, 92
3, 121920, Note_on_c, 0, 60, 92
3, 122112, Note_off_c, 0, 60, 64
3, 122112, Note_off_c, 0, 64, 64
3, 122112, Note_on_c, 0, 62, 92
3, 122112, Note_on_c, 0, 60, 92
3, 122304, Note_off_c, 0, 60, 64
3, 122304, Note_off_c, 0, 62, 64
3, 122304, Note_on_c, 0, 69, 92
3, 122304, Note_on_c, 0, 60, 92
3, 122496, Note_off_c, 0, 60, 64
3, 122496, Note_off_c, 0, 69, 64
3, 122496, Note_on_c, 0, 65, 92
3, 122496, Note_on_c, 0, 60, 92
3, 122688, Note_off_c, 0, 60, 64
3, 122688, Note_off_c, 0, 65, 64
3, 122688, Note_on_c, 0, 62, 92
3, 122688, Note_on_c, 0, 60, 92
3, 122880, Note_off_c, 0, 60, 64
3, 122880, Note_off_c, 0, 62, 64
3, 122880, Note_on_c, 0, 62, 92
3, 122880, Note_on_c, 0, 59, 92
3, 122976, Note_off_c, 0, 62, 64
3, 122976, Note_on_c, 0, 64, 92
3, 123072, Note_off_c, 0, 64, 64
3, 123072, Note_off_c, 0, 59, 64
3, 123072, Note_on_c, 0, 62, 92
3, 123072, Note_on_c, 0, 59, 92
3, 123168, Note_off_c, 0, 62, 64
3, 123168, Note_on_c, 0, 64, 92
3, 123264, Note_off_c, 0, 64, 64
3, 123264, Note_off_c, 0, 59, 64
3, 123264, Note_on_c, 0, 62, 92
3, 123264, Note_on_c, 0, 59, 92
3, 123360, Note_off_c, 0, 62, 64
3, 123360, Note_on_c, 0, 64, 92
3, 123456, Note_off_c, 0, 64, 64
3, 123456, Note_off_c, 0, 59, 64
3, 123456, Note_on_c, 0, 62, 92
3, 123456, Note_on_c, 0, 59, 92
3, 123552, Note_off_c, 0, 62, 64
3, 123552, Note_on_c, 0, 64, 92
3, 123648, Note_off_c, 0, 64, 64
3, 123648, Note_off_c, 0, 59, 64
3, 123648, Note_on_c, 0, 60, 92
3, 123648, Note_on_c, 0, 59, 92
3, 123840, Note_off_c, 0, 59, 64
3, 123840, Note_off_c, 0, 60, 64
3, 123840, Note_on_c, 0, 67, 92
3, 123840, Note_on_c, 0, 59, 92
3, 124032, Note_off_c, 0, 59, 64
3, 124032, Note_off_c, 0, 67, 64
3, 124032, Note_on_c, 0, 64, 92
3, 124032, Note_on_c, 0, 59, 92
3, 124224, Note_off_c, 0, 59, 64
3, 124224, Note_off_c, 0, 64, 64
3, 124224, Note_on_c, 0, 60, 92
3, 124224, Note_on_c, 0, 59, 92
3, 124416, Note_off_c, 0, 59, 64
3, 124416, Note_off_c, 0, 60, 64
3, 124416, Note_on_c, 0, 60, 92
3, 124416, Note_on_c, 0, 57, 92
3, 124512, Note_off_c, 0, 60, 64
3, 124512, Note_on_c, 0, 62, 92
3, 124608, Note_off_c, 0, 62, 64
3, 124608, Note_off_c, 0, 57, 64
3, 124608, Note_on_c, 0, 60, 92
3, 124608, Note_on_c, 0, 57, 92
3, 124704, Note_off_c, 0, 60, 64
3, 124704, Note_on_c, 0, 62, 92
3, 124800, Note_off_c, 0, 62, 64
3, 124800, Note_off_c, 0, 57, 64
3, 124800, Note_on_c, 0, 60, 92
3, 124800, Note_on_c, 0, 57, 92
3, 124896, Note_off_c, 0, 60, 64
3, 124896, Note_on_c, 0, 62, 92
3, 124992, Note_off_c, 0, 62, 64
3, 124992, Note_off_c, 0, 57, 64
3, 124992, Note_on_c, 0, 60, 92
3, 124992, Note_on_c, 0, 57, 92
3, 125088, Note_off_c, 0, 60, 64
3, 125088, Note_on_c, 0, 62, 92
3, 125184, Note_off_c, 0, 62, 64
3, 125184, Note_off_c, 0, 57, 64
3, 125184, Note_on_c, 0, 59, 92
3, 125184, Note_on_c, 0, 57, 92
3, 125376, Note_off_c, 0, 57, 64
3, 125376, Note_off_c, 0, 59, 64
3, 125376, Note_on_c, 0, 65, 92
3, 125376, Note_on_c, 0, 57, 92
3, 125568, Note_off_c, 0, 57, 64
3, 125568, Note_off_c, 0, 65, 64
3, 125568, Note_on_c, 0, 62, 92
3, 125568, Note_on_c, 0, 57, 92
3, 125760, Note_off_c, 0, 57, 64
3, 125760, Note_off_c, 0, 62, 64
3, 125760, Note_on_c, 0, 59, 92
3, 125760, Note_on_c, 0, 57, 92
3, 125952, Note_off_c, 0, 57, 64
3, 125952, Note_off_c, 0, 59, 64
3, 125952, Note_on_c, 0, 59, 92
3, 125952, Note_on_c, 0, 56, 92
3, 126048, Note_off_c, 0, 59, 64
3, 126048, Note_on_c, 0, 60, 92
3, 126144, Note_off_c, 0, 60, 64
3, 126144, Note_off_c, 0, 56, 64
3, 126144, Note_on_c, 0, 59, 92
3, 126144, Note_on_c, 0, 56, 92
3, 126240, Note_off_c, 0, 59, 64
3, 126240, Note_on_c, 0, 60, 92
3, 126336, Note_off_c, 0, 60, 64
3, 126336, Note_off_c, 0, 56, 64
3, 126336, Note_on_c, 0, 59, 92
3, 126336, Note_on_c, 0, 56, 92
3, 126432, Note_off_c, 0, 59, 64
3, 126432, Note_on_c, 0, 60, 92
3, 126528, Note_off_c, 0, 60, 64
3, 126528, Note_off_c, 0, 56, 64
3, 126528, Note_on_c, 0, 59, 92
3, 126528, Note_on_c, 0, 56, 92
3, 126624, Note_off_c, 0, 59, 64
3, 126624, Note_on_c, 0, 60, 92
3, 126720, Note_off_c, 0, 60, 64
3, 126720, Note_off_c, 0, 56, 64
3, 126720, Note_on_c, 0, 57, 92
3, 126720, Note_on_c, 0, 60, 92
3, 127104, Note_off_c, 0, 60, 64
3, 127104, Note_off_c, 0, 57, 64
3, 127296, Note_on_c, 0, 57, 92
3, 127296, Note_on_c, 0, 60, 92
3, 127488, Note_off_c, 0, 60, 64
3, 127488, Note_off_c, 0, 57, 64
3, 127488, Note_on_c, 0, 53, 92
3, 127488, Note_on_c, 0, 58, 92
3, 128256, Note_off_c, 0, 58, 64
3, 128256, Note_off_c, 0, 53, 64
3, 128256, Note_on_c, 0, 55, 92
3, 128256, Note_on_c, 0, 58, 92
3, 129024, Note_off_c, 0, 58, 64
3, 129024, Note_off_c, 0, 55, 64
3, 129024, Note_on_c, 0, 52, 92
3, 129024, Note_on_c, 0, 57, 92
3, 129600, Note_off_c, 0, 57, 64
3, 129600, Note_off_c, 0, 52, 64
3, 129600, Note_on_c, 0, 57, 92
3, 129600, Note_on_c, 0, 60, 92
3, 129792, Note_off_c, 0, 60, 64
3, 129792, Note_off_c, 0, 57, 64
3, 129792, Note_on_c, 0, 52, 92
3, 129792, Note_on_c, 0, 59, 92
3, 130176, Note_off_c, 0, 59, 64
3, 130176, Note_off_c, 0, 52, 64
3, 130368, Note_on_c, 0, 60, 92
3, 130368, Note_on_c, 0, 57, 92
3, 130560, Note_off_c, 0, 57, 64
3, 130560, Note_off_c, 0, 60, 64
3, 130560, Note_on_c, 0, 59, 92
3, 130560, Note_on_c, 0, 53, 92
3, 130752, Note_off_c, 0, 53, 64
3, 130752, Note_on_c, 0, 50, 92
3, 130944, Note_off_c, 0, 50, 64
3, 130944, Note_off_c, 0, 59, 64
3, 130944, Note_on_c, 0, 52, 92
3, 130944, Note_on_c, 0, 59, 92
3, 131328, Note_off_c, 0, 59, 64
3, 131328, Note_off_c, 0, 52, 64
3, 131328, Note_on_c, 0, 57, 92
3, 131424, Note_on_c, 0, 64, 92
3, 131520, Note_off_c, 0, 64, 64
3, 131520, Note_off_c, 0, 57, 64
3, 131520, Note_on_c, 0, 69, 92
3, 131616, Note_off_c, 0, 69, 64
3, 131616, Note_on_c, 0, 64, 92
3, 131712, Note_off_c, 0, 64, 64
3, 131712, Note_on_c, 0, 69, 92
3, 131808, Note_off_c, 0, 69, 64
3, 131808, Note_on_c, 0, 64, 92
3, 131904, Note_off_c, 0, 64, 64
3, 131904, Note_on_c, 0, 69, 92
3, 132000, Note_off_c, 0, 69, 64
3, 132000, Note_on_c, 0, 64, 92
3, 132096, Note_off_c, 0, 64, 64
3, 132096, Note_on_c, 0, 68, 92
3, 132192, Note_off_c, 0, 68, 64
3, 132192, Note_on_c, 0, 64, 92
3, 132288, Note_off_c, 0, 64, 64
3, 132288, Note_on_c, 0, 68, 92
3, 132384, Note_off_c, 0, 68, 64
3, 132384, Note_on_c, 0, 64, 92
3, 132480, Note_off_c, 0, 64, 64
3, 132480, Note_on_c, 0, 68, 92
3, 132576, Note_off_c, 0, 68, 64
3, 132576, Note_on_c, 0, 64, 92
3, 132672, Note_off_c, 0, 64, 64
3, 132672, Note_on_c, 0, 68, 92
3, 132768, Note_off_c, 0, 68, 64
3, 132768, Note_on_c, 0, 64, 92
3, 132864, Note_off_c, 0, 64, 64
3, 132864, Note_on_c, 0, 69, 92
3, 132960, Note_off_c, 0, 69, 64
3, 132960, Note_on_c, 0, 64, 92
3, 133056, Note_off_c, 0, 64, 64
3, 133056, Note_on_c, 0, 69, 92
3, 133152, Note_off_c, 0, 69, 64
3, 133152, Note_on_c, 0, 64, 92
3, 133248, Note_off_c, 0, 64, 64
3, 133248, Note_on_c, 0, 69, 92
3, 133344, Note_off_c, 0, 69, 64
3, 133344, Note_on_c, 0, 64, 92
3, 133440, Note_off_c, 0, 64, 64
3, 133440, Note_on_c, 0, 69, 92
3, 133536, Note_off_c, 0, 69, 64
3, 133536, Note_on_c, 0, 64, 92
3, 133632, Note_off_c, 0, 64, 64
3, 133632, Note_on_c, 0, 71, 92
3, 133728, Note_off_c, 0, 71, 64
3, 133728, Note_on_c, 0, 64, 92
3, 133824, Note_off_c, 0, 64, 64
3, 133824, Note_on_c, 0, 71, 92
3, 133920, Note_off_c, 0, 71, 64
3, 133920, Note_on_c, 0, 64, 92
3, 134016, Note_off_c, 0, 64, 64
3, 134016, Note_on_c, 0, 71, 92
3, 134112, Note_off_c, 0, 71, 64
3, 134112, Note_on_c, 0, 64, 92
3, 134208, Note_off_c, 0, 64, 64
3, 134208, Note_on_c, 0, 71, 92
3, 134304, Note_off_c, 0, 71, 64
3, 134304, Note_on_c, 0, 64, 92
3, 134400, Note_off_c, 0, 64, 64
3, 134400, Note_on_c, 0, 72, 92
3, 134496, Note_off_c, 0, 72, 64
3, 134496, Note_on_c, 0, 64, 92
3, 134592, Note_off_c, 0, 64, 64
3, 134592, Note_on_c, 0, 72, 92
3, 134688, Note_off_c, 0, 72, 64
3, 134688, Note_on_c, 0, 64, 92
3, 134784, Note_off_c, 0, 64, 64
3, 134784, Note_on_c, 0, 72, 92
3, 134880, Note_off_c, 0, 72, 64
3, 134880, Note_on_c, 0, 64, 92
3, 134976, Note_off_c, 0, 64, 64
3, 134976, Note_on_c, 0, 72, 92
3, 135072, Note_off_c, 0, 72, 64
3, 135072, Note_on_c, 0, 64, 92
3, 135168, Note_off_c, 0, 64, 64
3, 135168, Note_on_c, 0, 71, 92
3, 135264, Note_off_c, 0, 71, 64
3, 135264, Note_on_c, 0, 64, 92
3, 135360, Note_off_c, 0, 64, 64
3, 135360, Note_on_c, 0, 71, 92
3, 135456, Note_off_c, 0, 71, 64
3, 135456, Note_on_c, 0, 64, 92
3, 135552, Note_off_c, 0, 64, 64
3, 135552, Note_on_c, 0, 71, 92
3, 135648, Note_off_c, 0, 71, 64
3, 135648, Note_on_c, 0, 64, 92
3, 135744, Note_off_c, 0, 64, 64
3, 135744, Note_on_c, 0, 71, 92
3, 135840, Note_off_c, 0, 71, 64
3, 135840, Note_on_c, 0, 64, 92
3, 135936, Note_off_c, 0, 64, 64
3, 135936, Note_on_c, 0, 69, 92
3, 136032, Note_off_c, 0, 69, 64
3, 136032, Note_on_c, 0, 57, 92
3, 136128, Note_off_c, 0, 57, 64
3, 136128, Note_on_c, 0, 60, 92
3, 136224, Note_off_c, 0, 60, 64
3, 136224, Note_on_c, 0, 62, 92
3, 136320, Note_off_c, 0, 62, 64
3, 136320, Note_on_c, 0, 64, 92
3, 136416, Note_off_c, 0, 64, 64
3, 136416, Note_on_c, 0, 62, 92
3, 136512, Note_off_c, 0, 62, 64
3, 136512, Note_on_c, 0, 60, 92
3, 136608, Note_off_c, 0, 60, 64
3, 136608, Note_on_c, 0, 59, 92
3, 136704, Note_off_c, 0, 59, 64
3, 136704, Note_on_c, 0, 57, 92
3, 137088, Note_off_c, 0, 57, 64
3, 137280, Note_on_c, 0, 57, 92
3, 137280, Note_on_c, 0, 60, 92
3, 137472, Note_off_c, 0, 60, 64
3, 137472, Note_off_c, 0, 57, 64
3, 137472, Note_on_c, 0, 53, 92
3, 137472, Note_on_c, 0, 58, 92
3, 138240, Note_off_c, 0, 58, 64
3, 138240, Note_off_c, 0, 53, 64
3, 138240, Note_on_c, 0, 55, 92
3, 138240, Note_on_c, 0, 58, 92
3, 139008, Note_off_c, 0, 58, 64
3, 139008, Note_off_c, 0, 55, 64
3, 139008, Note_on_c, 0, 52, 92
3, 139008, Note_on_c, 0, 57, 92
3, 139584, Note_off_c, 0, 57, 64
3, 139584, Note_off_c, 0, 52, 64
3, 139584, Note_on_c, 0, 57, 92
3, 139584, Note_on_c, 0, 60, 92
3, 139776, Note_off_c, 0, 60, 64
3, 139776, Note_off_c, 0, 57, 64
3, 139776, Note_on_c, 0, 52, 92
3, 139776, Note_on_c, 0, 59, 92
3, 140160, Note_off_c, 0, 59, 64
3, 140160, Note_off_c, 0, 52, 64
3, 140352, Note_on_c, 0, 60, 92
3, 140352, Note_on_c, 0, 57, 92
3, 140544, Note_off_c, 0, 57, 64
3, 140544, Note_off_c, 0, 60, 64
3, 140544, Note_on_c, 0, 59, 92
3, 140544, Note_on_c, 0, 53, 92
3, 140736, Note_off_c, 0, 53, 64
3, 140736, Note_on_c, 0, 50, 92
3, 140928, Note_off_c, 0, 50, 64
3, 140928, Note_off_c, 0, 59, 64
3, 140928, Note_on_c, 0, 59, 92
3, 140928, Note_on_c, 0, 52, 92
3, 141312, Note_off_c, 0, 52, 64
3, 141312, Note_off_c, 0, 59, 64
3, 141312, Note_on_c, 0, 57, 92
3, 141312, Note_on_c, 0, 52, 92
3, 142848, Note_off_c, 0, 52, 64
3, 142848, Note_off_c, 0, 57, 64
3, 144384, Note_on_c, 0, 62, 92
3, 144576, Note_off_c, 0, 62, 64
3, 144576, Note_on_c, 0, 50, 92
3, 144768, Note_off_c, 0, 50, 64
3, 144960, Note_on_c, 0, 62, 92
3, 145152, Note_off_c, 0, 62, 64
3, 145152, Note_on_c, 0, 62, 92
3, 145344, Note_off_c, 0, 62, 64
3, 145344, Note_on_c, 0, 60, 92
3, 145440, Note_off_c, 0, 60, 64
3, 145440, Note_on_c, 0, 58, 92
3, 145536, Note_off_c, 0, 58, 64
3, 145536, Note_on_c, 0, 60, 92
3, 145728, Note_off_c, 0, 60, 64
3, 145728, Note_on_c, 0, 48, 92
3, 145920, Note_off_c, 0, 48, 64
3, 146112, Note_on_c, 0, 60, 92
3, 146304, Note_off_c, 0, 60, 64
3, 146304, Note_on_c, 0, 60, 92
3, 146496, Note_off_c, 0, 60, 64
3, 146496, Note_on_c, 0, 58, 92
3, 146592, Note_off_c, 0, 58, 64
3, 146592, Note_on_c, 0, 57, 92
3, 146688, Note_off_c, 0, 57, 64
3, 146688, Note_on_c, 0, 58, 92
3, 146880, Note_off_c, 0, 58, 64
3, 146880, Note_on_c, 0, 46, 92
3, 147072, Note_off_c, 0, 46, 64
3, 147264, Note_on_c, 0, 58, 92
3, 147456, Note_off_c, 0, 58, 64
3, 147456, Note_on_c, 0, 58, 92
3, 147648, Note_off_c, 0, 58, 64
3, 147648, Note_on_c, 0, 57, 92
3, 147744, Note_off_c, 0, 57, 64
3, 147744, Note_on_c, 0, 55, 92
3, 147840, Note_off_c, 0, 55, 64
3, 147840, Note_on_c, 0, 57, 92
3, 148032, Note_off_c, 0, 57, 64
3, 148032, Note_on_c, 0, 45, 92
3, 148224, Note_off_c, 0, 45, 64
3, 148416, Note_on_c, 0, 57, 92
3, 148608, Note_off_c, 0, 57, 64
3, 148608, Note_on_c, 0, 57, 92
3, 148800, Note_off_c, 0, 57, 64
3, 148800, Note_on_c, 0, 45, 92
3, 148992, Note_off_c, 0, 45, 64
3, 148992, Note_on_c, 0, 50, 92
3, 149184, Note_off_c, 0, 50, 64
3, 149184, Note_on_c, 0, 38, 92
3, 149376, Note_off_c, 0, 38, 64
3, 149568, Note_on_c, 0, 74, 92
3, 149760, Note_off_c, 0, 74, 64
3, 149760, Note_on_c, 0, 74, 92
3, 149952, Note_off_c, 0, 74, 64
3, 149952, Note_on_c, 0, 72, 92
3, 150048, Note_off_c, 0, 72, 64
3, 150048, Note_on_c, 0, 70, 92
3, 150144, Note_off_c, 0, 70, 64
3, 150144, Note_on_c, 0, 72, 92
3, 150336, Note_off_c, 0, 72, 64
3, 150336, Note_on_c, 0, 60, 92
3, 150528, Note_off_c, 0, 60, 64
3, 150720, Note_on_c, 0, 72, 92
3, 150912, Note_off_c, 0, 72, 64
3, 150912, Note_on_c, 0, 72, 92
3, 151104, Note_off_c, 0, 72, 64
3, 151104, Note_on_c, 0, 70, 92
3, 151200, Note_off_c, 0, 70, 64
3, 151200, Note_on_c, 0, 69, 92
3, 151296, Note_off_c, 0, 69, 64
3, 151296, Note_on_c, 0, 70, 92
3, 151488, Note_off_c, 0, 70, 64
3, 151488, Note_on_c, 0, 58, 92
3, 151680, Note_off_c, 0, 58, 64
3, 151872, Note_on_c, 0, 70, 92
3, 152064, Note_off_c, 0, 70, 64
3, 152064, Note_on_c, 0, 70, 92
3, 152256, Note_off_c, 0, 70, 64
3, 152256, Note_on_c, 0, 69, 92
3, 152352, Note_off_c, 0, 69, 64
3, 152352, Note_on_c, 0, 67, 92
3, 152448, Note_off_c, 0, 67, 64
3, 152448, Note_on_c, 0, 69, 92
3, 152640, Note_off_c, 0, 69, 64
3, 152640, Note_on_c, 0, 57, 92
3, 152832, Note_off_c, 0, 57, 64
3, 153024, Note_on_c, 0, 69, 92
3, 153216, Note_off_c, 0, 69, 64
3, 153216, Note_on_c, 0, 69, 92
3, 153408, Note_off_c, 0, 69, 64
3, 153408, Note_on_c, 0, 57, 92
3, 153600, Note_off_c, 0, 57, 64
3, 153600, Note_on_c, 0, 62, 92
3, 153792, Note_off_c, 0, 62, 64
3, 153792, Note_on_c, 0, 50, 92
3, 153984, Note_off_c, 0, 50, 64
3, 154176, Note_on_c, 0, 62, 92
3, 154368, Note_off_c, 0, 62, 64
3, 154368, Note_on_c, 0, 62, 92
3, 154560, Note_off_c, 0, 62, 64
3, 154560, Note_on_c, 0, 60, 92
3, 154656, Note_off_c, 0, 60, 64
3, 154656, Note_on_c, 0, 58, 92
3, 154752, Note_off_c, 0, 58, 64
3, 154752, Note_on_c, 0, 60, 92
3, 154944, Note_off_c, 0, 60, 64
3, 154944, Note_on_c, 0, 48, 92
3, 155136, Note_off_c, 0, 48, 64
3, 155328, Note_on_c, 0, 60, 92
3, 155520, Note_off_c, 0, 60, 64
3, 155520, Note_on_c, 0, 60, 92
3, 155712, Note_off_c, 0, 60, 64
3, 155712, Note_on_c, 0, 58, 92
3, 155808, Note_off_c, 0, 58, 64
3, 155808, Note_on_c, 0, 57, 92
3, 155904, Note_off_c, 0, 57, 64
3, 155904, Note_on_c, 0, 58, 92
3, 156096, Note_off_c, 0, 58, 64
3, 156096, Note_on_c, 0, 46, 92
3, 156288, Note_off_c, 0, 46, 64
3, 156480, Note_on_c, 0, 58, 92
3, 156672, Note_off_c, 0, 58, 64
3, 156672, Note_on_c, 0, 58, 92
3, 156864, Note_off_c, 0, 58, 64
3, 156864, Note_on_c, 0, 57, 92
3, 156960, Note_off_c, 0, 57, 64
3, 156960, Note_on_c, 0, 55, 92
3, 157056, Note_off_c, 0, 55, 64
3, 157056, Note_on_c, 0, 57, 92
3, 157248, Note_off_c, 0, 57, 64
3, 157248, Note_on_c, 0, 45, 92
3, 157440, Note_off_c, 0, 45, 64
3, 157632, Note_on_c, 0, 57, 92
3, 157824, Note_off_c, 0, 57, 64
3, 157824, Note_on_c, 0, 57, 92
3, 158016, Note_off_c, 0, 57, 64
3, 158016, Note_on_c, 0, 45, 92
3, 158208, Note_off_c, 0, 45, 64
3, 158208, Note_on_c, 0, 50, 92
3, 158400, Note_off_c, 0, 50, 64
3, 158400, Note_on_c, 0, 38, 92
3, 158592, Note_off_c, 0, 38, 64
3, 158784, Note_on_c, 0, 74, 92
3, 158976, Note_off_c, 0, 74, 64
3, 158976, Note_on_c, 0, 74, 92
3, 159168, Note_off_c, 0, 74, 64
3, 159168, Note_on_c, 0, 72, 92
3, 159264, Note_off_c, 0, 72, 64
3, 159264, Note_on_c, 0, 74, 92
3, 159360, Note_off_c, 0, 74, 64
3, 159360, Note_on_c, 0, 67, 92
3, 159552, Note_off_c, 0, 67, 64
3, 159552, Note_on_c, 0, 55, 92
3, 159744, Note_off_c, 0, 55, 64
3, 159936, Note_on_c, 0, 67, 92
3, 160128, Note_off_c, 0, 67, 64
3, 160128, Note_on_c, 0, 67, 92
3, 160320, Note_off_c, 0, 67, 64
3, 160320, Note_on_c, 0, 69, 92
3, 160416, Note_off_c, 0, 69, 64
3, 160416, Note_on_c, 0, 70, 92
3, 160512, Note_off_c, 0, 70, 64
3, 160512, Note_on_c, 0, 72, 92
3, 160704, Note_off_c, 0, 72, 64
3, 160704, Note_on_c, 0, 60, 92
3, 160896, Note_off_c, 0, 60, 64
3, 161088, Note_on_c, 0, 72, 92
3, 161280, Note_off_c, 0, 72, 64
3, 161280, Note_on_c, 0, 72, 92
3, 161472, Note_off_c, 0, 72, 64
3, 161472, Note_on_c, 0, 70, 92
3, 161568, Note_off_c, 0, 70, 64
3, 161568, Note_on_c, 0, 72, 92
3, 161664, Note_off_c, 0, 72, 64
3, 161664, Note_on_c, 0, 65, 92
3, 161856, Note_off_c, 0, 65, 64
3, 161856, Note_on_c, 0, 53, 92
3, 162048, Note_off_c, 0, 53, 64
3, 162240, Note_on_c, 0, 65, 92
3, 162432, Note_off_c, 0, 65, 64
3, 162432, Note_on_c, 0, 65, 92
3, 162624, Note_off_c, 0, 65, 64
3, 162624, Note_on_c, 0, 67, 92
3, 162720, Note_off_c, 0, 67, 64
3, 162720, Note_on_c, 0, 69, 92
3, 162816, Note_off_c, 0, 69, 64
3, 162816, Note_on_c, 0, 70, 92
3, 163008, Note_off_c, 0, 70, 64
3, 163008, Note_on_c, 0, 58, 92
3, 163200, Note_off_c, 0, 58, 64
3, 163392, Note_on_c, 0, 70, 92
3, 163584, Note_off_c, 0, 70, 64
3, 163584, Note_on_c, 0, 70, 92
3, 163776, Note_off_c, 0, 70, 64
3, 163776, Note_on_c, 0, 69, 92
3, 163872, Note_off_c, 0, 69, 64
3, 163872, Note_on_c, 0, 70, 92
3, 163968, Note_off_c, 0, 70, 64
3, 163968, Note_on_c, 0, 64, 92
3, 164160, Note_off_c, 0, 64, 64
3, 164160, Note_on_c, 0, 52, 92
3, 164352, Note_off_c, 0, 52, 64
3, 164544, Note_on_c, 0, 64, 92
3, 164736, Note_off_c, 0, 64, 64
3, 164736, Note_on_c, 0, 64, 92
3, 164928, Note_off_c, 0, 64, 64
3, 164928, Note_on_c, 0, 65, 92
3, 165024, Note_off_c, 0, 65, 64
3, 165024, Note_on_c, 0, 67, 92
3, 165120, Note_off_c, 0, 67, 64
3, 165120, Note_on_c, 0, 69, 92
3, 165312, Note_off_c, 0, 69, 64
3, 165312, Note_on_c, 0, 57, 92
3, 165504, Note_off_c, 0, 57, 64
3, 165696, Note_on_c, 0, 69, 92
3, 165888, Note_off_c, 0, 69, 64
3, 165888, Note_on_c, 0, 69, 92
3, 166080, Note_off_c, 0, 69, 64
3, 166080, Note_on_c, 0, 57, 92
3, 166272, Note_off_c, 0, 57, 64
3, 166272, Note_on_c, 0, 74, 92
3, 166464, Note_off_c, 0, 74, 64
3, 166464, Note_on_c, 0, 62, 92
3, 166656, Note_off_c, 0, 62, 64
3, 166848, Note_on_c, 0, 74, 92
3, 167040, Note_off_c, 0, 74, 64
3, 167040, Note_on_c, 0, 74, 92
3, 167232, Note_off_c, 0, 74, 64
3, 167232, Note_on_c, 0, 76, 92
3, 167328, Note_off_c, 0, 76, 64
3, 167328, Note_on_c, 0, 77, 92
3, 167424, Note_off_c, 0, 77, 64
3, 167424, Note_on_c, 0, 74, 92
3, 167616, Note_off_c, 0, 74, 64
3, 167616, Note_on_c, 0, 62, 92
3, 167808, Note_off_c, 0, 62, 64
3, 168000, Note_on_c, 0, 74, 92
3, 168192, Note_off_c, 0, 74, 64
3, 168192, Note_on_c, 0, 74, 92
3, 168384, Note_off_c, 0, 74, 64
3, 168384, Note_on_c, 0, 72, 92
3, 168480, Note_off_c, 0, 72, 64
3, 168480, Note_on_c, 0, 71, 92
3, 168576, Note_off_c, 0, 71, 64
3, 168576, Note_on_c, 0, 72, 92
3, 168768, Note_off_c, 0, 72, 64
3, 168768, Note_on_c, 0, 60, 92
3, 168960, Note_off_c, 0, 60, 64
3, 169152, Note_on_c, 0, 69, 92
3, 169344, Note_off_c, 0, 69, 64
3, 169344, Note_on_c, 0, 69, 92
3, 169536, Note_off_c, 0, 69, 64
3, 169536, Note_on_c, 0, 57, 92
3, 169728, Note_off_c, 0, 57, 64
3, 169728, Note_on_c, 0, 57, 92
3, 169920, Note_off_c, 0, 57, 64
3, 169920, Note_on_c, 0, 62, 92
3, 170112, Note_off_c, 0, 62, 64
3, 170112, Note_on_c, 0, 64, 92
3, 170496, Note_off_c, 0, 64, 64
3, 170496, Note_on_c, 0, 52, 92
3, 170880, Note_off_c, 0, 52, 64
3, 170880, Note_on_c, 0, 57, 92
3, 171072, Note_off_c, 0, 57, 64
3, 171072, Note_on_c, 0, 45, 92
3, 171264, Note_off_c, 0, 45, 64
3, 171456, Note_on_c, 0, 57, 92
3, 171648, Note_off_c, 0, 57, 64
3, 171648, Note_on_c, 0, 57, 92
3, 171840, Note_off_c, 0, 57, 64
3, 171840, Note_on_c, 0, 59, 92
3, 171936, Note_off_c, 0, 59, 64
3, 171936, Note_on_c, 0, 61, 92
3, 172032, Note_off_c, 0, 61, 64
3, 172032, Note_on_c, 0, 62, 92
3, 172224, Note_off_c, 0, 62, 64
3, 172224, Note_on_c, 0, 50, 92
3, 172416, Note_off_c, 0, 50, 64
3, 172608, Note_on_c, 0, 62, 92
3, 172800, Note_off_c, 0, 62, 64
3, 172800, Note_on_c, 0, 62, 92
3, 172992, Note_off_c, 0, 62, 64
3, 172992, Note_on_c, 0, 60, 92
3, 173088, Note_off_c, 0, 60, 64
3, 173088, Note_on_c, 0, 62, 92
3, 173184, Note_off_c, 0, 62, 64
3, 173184, Note_on_c, 0, 55, 92
3, 173376, Note_off_c, 0, 55, 64
3, 173376, Note_on_c, 0, 43, 92
3, 173568, Note_off_c, 0, 43, 64
3, 173760, Note_on_c, 0, 55, 92
3, 173952, Note_off_c, 0, 55, 64
3, 173952, Note_on_c, 0, 55, 92
3, 174144, Note_off_c, 0, 55, 64
3, 174144, Note_on_c, 0, 57, 92
3, 174240, Note_off_c, 0, 57, 64
3, 174240, Note_on_c, 0, 58, 92
3, 174336, Note_off_c, 0, 58, 64
3, 174336, Note_on_c, 0, 60, 92
3, 174528, Note_off_c, 0, 60, 64
3, 174528, Note_on_c, 0, 48, 92
3, 174720, Note_off_c, 0, 48, 64
3, 174912, Note_on_c, 0, 60, 92
3, 175104, Note_off_c, 0, 60, 64
3, 175104, Note_on_c, 0, 60, 92
3, 175296, Note_off_c, 0, 60, 64
3, 175296, Note_on_c, 0, 58, 92
3, 175392, Note_off_c, 0, 58, 64
3, 175392, Note_on_c, 0, 60, 92
3, 175488, Note_off_c, 0, 60, 64
3, 175488, Note_on_c, 0, 53, 92
3, 175680, Note_off_c, 0, 53, 64
3, 175680, Note_on_c, 0, 41, 92
3, 175872, Note_off_c, 0, 41, 64
3, 176064, Note_on_c, 0, 53, 92
3, 176256, Note_off_c, 0, 53, 64
3, 176256, Note_on_c, 0, 53, 92
3, 176448, Note_off_c, 0, 53, 64
3, 176448, Note_on_c, 0, 55, 92
3, 176544, Note_off_c, 0, 55, 64
3, 176544, Note_on_c, 0, 57, 92
3, 176640, Note_off_c, 0, 57, 64
3, 176640, Note_on_c, 0, 58, 92
3, 176832, Note_off_c, 0, 58, 64
3, 176832, Note_on_c, 0, 46, 92
3, 177024, Note_off_c, 0, 46, 64
3, 177216, Note_on_c, 0, 58, 92
3, 177408, Note_off_c, 0, 58, 64
3, 177408, Note_on_c, 0, 58, 92
3, 177600, Note_off_c, 0, 58, 64
3, 177600, Note_on_c, 0, 57, 92
3, 177696, Note_off_c, 0, 57, 64
3, 177696, Note_on_c, 0, 58, 92
3, 177792, Note_off_c, 0, 58, 64
3, 177792, Note_on_c, 0, 52, 92
3, 177984, Note_off_c, 0, 52, 64
3, 177984, Note_on_c, 0, 40, 92
3, 178176, Note_off_c, 0, 40, 64
3, 178368, Note_on_c, 0, 52, 92
3, 178560, Note_off_c, 0, 52, 64
3, 178560, Note_on_c, 0, 52, 92
3, 178752, Note_off_c, 0, 52, 64
3, 178752, Note_on_c, 0, 53, 92
3, 178848, Note_off_c, 0, 53, 64
3, 178848, Note_on_c, 0, 55, 92
3, 178944, Note_off_c, 0, 55, 64
3, 178944, Note_on_c, 0, 57, 92
3, 179136, Note_off_c, 0, 57, 64
3, 179136, Note_on_c, 0, 45, 92
3, 179328, Note_off_c, 0, 45, 64
3, 179520, Note_on_c, 0, 69, 92
3, 179712, Note_off_c, 0, 69, 64
3, 179712, Note_on_c, 0, 74, 92
3, 179904, Note_off_c, 0, 74, 64
3, 179904, Note_on_c, 0, 62, 92
3, 180096, Note_off_c, 0, 62, 64
3, 180096, Note_on_c, 0, 69, 92
3, 180288, Note_off_c, 0, 69, 64
3, 180288, Note_on_c, 0, 57, 92
3, 180480, Note_off_c, 0, 57, 64
3, 180672, Note_on_c, 0, 57, 92
3, 180864, Note_off_c, 0, 57, 64
3, 180864, Note_on_c, 0, 62, 92
3, 181056, Note_off_c, 0, 62, 64
3, 181056, Note_on_c, 0, 50, 92
3, 181248, Note_off_c, 0, 50, 64
3, 181248, Note_on_c, 0, 57, 92
3, 181440, Note_off_c, 0, 57, 64
3, 181440, Note_on_c, 0, 45, 92
3, 181632, Note_off_c, 0, 45, 64
3, 181824, Note_on_c, 0, 69, 92
3, 182016, Note_off_c, 0, 69, 64
3, 182016, Note_on_c, 0, 74, 92
3, 182208, Note_off_c, 0, 74, 64
3, 182208, Note_on_c, 0, 62, 92
3, 182400, Note_off_c, 0, 62, 64
3, 182400, Note_on_c, 0, 69, 92
3, 182592, Note_off_c, 0, 69, 64
3, 182592, Note_on_c, 0, 57, 92
3, 182784, Note_off_c, 0, 57, 64
3, 182976, Note_on_c, 0, 69, 92
3, 183168, Note_off_c, 0, 69, 64
3, 183168, Note_on_c, 0, 69, 92
3, 183360, Note_off_c, 0, 69, 64
3, 183360, Note_on_c, 0, 57, 92
3, 183552, Note_off_c, 0, 57, 64
3, 183552, Note_on_c, 0, 69, 92
3, 183744, Note_off_c, 0, 69, 64
3, 183744, Note_on_c, 0, 57, 92
3, 183936, Note_off_c, 0, 57, 64
3, 184128, Note_on_c, 0, 69, 92
3, 184320, Note_off_c, 0, 69, 64
3, 184320, Note_on_c, 0, 69, 92
3, 184512, Note_off_c, 0, 69, 64
3, 184512, Note_on_c, 0, 57, 92
3, 184704, Note_off_c, 0, 57, 64
3, 184704, Note_on_c, 0, 74, 92
3, 184896, Note_off_c, 0, 74, 64
3, 184896, Note_on_c, 0, 62, 92
3, 185088, Note_off_c, 0, 62, 64
3, 185280, Note_on_c, 0, 67, 92
3, 185472, Note_off_c, 0, 67, 64
3, 185472, Note_on_c, 0, 69, 92
3, 185664, Note_off_c, 0, 69, 64
3, 185664, Note_on_c, 0, 57, 92
3, 185856, Note_off_c, 0, 57, 64
3, 185856, Note_on_c, 0, 62, 92
3, 186048, Note_off_c, 0, 62, 64
3, 186048, Note_on_c, 0, 50, 92
3, 186240, Note_off_c, 0, 50, 64
3, 186432, Note_on_c, 0, 57, 92
3, 186624, Note_off_c, 0, 57, 64
3, 186624, Note_on_c, 0, 62, 92
3, 186816, Note_off_c, 0, 62, 64
3, 186816, Note_on_c, 0, 50, 92
3, 187008, Note_off_c, 0, 50, 64
3, 187008, Note_on_c, 0, 57, 92
3, 187200, Note_off_c, 0, 57, 64
3, 187200, Note_on_c, 0, 45, 92
3, 187392, Note_off_c, 0, 45, 64
3, 187584, Note_on_c, 0, 57, 92
3, 187776, Note_off_c, 0, 57, 64
3, 187776, Note_on_c, 0, 57, 92
3, 187968, Note_off_c, 0, 57, 64
3, 187968, Note_on_c, 0, 45, 92
3, 188160, Note_off_c, 0, 45, 64
3, 188160, Note_on_c, 0, 57, 92
3, 188352, Note_off_c, 0, 57, 64
3, 188352, Note_on_c, 0, 45, 92
3, 188544, Note_off_c, 0, 45, 64
3, 188736, Note_on_c, 0, 57, 92
3, 188928, Note_off_c, 0, 57, 64
3, 188928, Note_on_c, 0, 57, 92
3, 189120, Note_off_c, 0, 57, 64
3, 189120, Note_on_c, 0, 45, 92
3, 189312, Note_off_c, 0, 45, 64
3, 189312, Note_on_c, 0, 62, 92
3, 189504, Note_off_c, 0, 62, 64
3, 189504, Note_on_c, 0, 50, 92
3, 189696, Note_off_c, 0, 50, 64
3, 189888, Note_on_c, 0, 55, 92
3, 190080, Note_off_c, 0, 55, 64
3, 190080, Note_on_c, 0, 57, 92
3, 190272, Note_off_c, 0, 57, 64
3, 190272, Note_on_c, 0, 45, 92
3, 190464, Note_off_c, 0, 45, 64
3, 190464, Note_on_c, 0, 62, 92
3, 190656, Note_off_c, 0, 62, 64
3, 190656, Note_on_c, 0, 50, 92
3, 190848, Note_off_c, 0, 50, 64
3, 191040, Note_on_c, 0, 62, 92
3, 191232, Note_off_c, 0, 62, 64
3, 191232, Note_on_c, 0, 62, 92
3, 191424, Note_off_c, 0, 62, 64
3, 191424, Note_on_c, 0, 60, 92
3, 191520, Note_off_c, 0, 60, 64
3, 191520, Note_on_c, 0, 58, 92
3, 191616, Note_off_c, 0, 58, 64
3, 191616, Note_on_c, 0, 60, 92
3, 191808, Note_off_c, 0, 60, 64
3, 191808, Note_on_c, 0, 48, 92
3, 192000, Note_off_c, 0, 48, 64
3, 192192, Note_on_c, 0, 60, 92
3, 192384, Note_off_c, 0, 60, 64
3, 192384, Note_on_c, 0, 60, 92
3, 192576, Note_off_c, 0, 60, 64
3, 192576, Note_on_c, 0, 58, 92
3, 192672, Note_off_c, 0, 58, 64
3, 192672, Note_on_c, 0, 57, 92
3, 192768, Note_off_c, 0, 57, 64
3, 192768, Note_on_c, 0, 58, 92
3, 192960, Note_off_c, 0, 58, 64
3, 192960, Note_on_c, 0, 46, 92
3, 193152, Note_off_c, 0, 46, 64
3, 193344, Note_on_c, 0, 58, 92
3, 193536, Note_off_c, 0, 58, 64
3, 193536, Note_on_c, 0, 58, 92
3, 193728, Note_off_c, 0, 58, 64
3, 193728, Note_on_c, 0, 57, 92
3, 193824, Note_off_c, 0, 57, 64
3, 193824, Note_on_c, 0, 55, 92
3, 193920, Note_off_c, 0, 55, 64
3, 193920, Note_on_c, 0, 57, 92
3, 194112, Note_off_c, 0, 57, 64
3, 194112, Note_on_c, 0, 45, 92
3, 194304, Note_off_c, 0, 45, 64
3, 194496, Note_on_c, 0, 57, 92
3, 194688, Note_off_c, 0, 57, 64
3, 194688, Note_on_c, 0, 57, 92
3, 194880, Note_off_c, 0, 57, 64
3, 194880, Note_on_c, 0, 45, 92
3, 195072, Note_off_c, 0, 45, 64
3, 195072, Note_on_c, 0, 38, 92
3, 195072, Note_on_c, 0, 50, 92
3, 196224, Note_off_c, 0, 50, 64
3, 196224, Note_off_c, 0, 38, 64
3, 202176, Note_on_c, 0, 69, 92
3, 202368, Note_off_c, 0, 69, 64
3, 202368, Note_on_c, 0, 67, 92
3, 202560, Note_off_c, 0, 67, 64
3, 202560, Note_on_c, 0, 65, 92
3, 202752, Note_off_c, 0, 65, 64
3, 202752, Note_on_c, 0, 64, 92
3, 202944, Note_off_c, 0, 64, 64
3, 202944, Note_on_c, 0, 62, 92
3, 203136, Note_off_c, 0, 62, 64
3, 203136, Note_on_c, 0, 60, 92
3, 203328, Note_off_c, 0, 60, 64
3, 203328, Note_on_c, 0, 65, 92
3, 203520, Note_off_c, 0, 65, 64
3, 203520, Note_on_c, 0, 64, 92
3, 203712, Note_off_c, 0, 64, 64
3, 203712, Note_on_c, 0, 62, 92
3, 203904, Note_off_c, 0, 62, 64
3, 203904, Note_on_c, 0, 60, 92
3, 204096, Note_off_c, 0, 60, 64
3, 204096, Note_on_c, 0, 59, 92
3, 204288, Note_off_c, 0, 59, 64
3, 204288, Note_on_c, 0, 57, 92
3, 204480, Note_off_c, 0, 57, 64
3, 204480, Note_on_c, 0, 72, 92
3, 204672, Note_off_c, 0, 72, 64
3, 204672, Note_on_c, 0, 71, 92
3, 204864, Note_off_c, 0, 71, 64
3, 204864, Note_on_c, 0, 69, 92
3, 205056, Note_off_c, 0, 69, 64
3, 205056, Note_on_c, 0, 67, 92
3, 205248, Note_off_c, 0, 67, 64
3, 205248, Note_on_c, 0, 65, 92
3, 205440, Note_off_c, 0, 65, 64
3, 205440, Note_on_c, 0, 64, 92
3, 205632, Note_off_c, 0, 64, 64
3, 205632, Note_on_c, 0, 69, 92
3, 205824, Note_off_c, 0, 69, 64
3, 205824, Note_on_c, 0, 67, 92
3, 206016, Note_off_c, 0, 67, 64
3, 206016, Note_on_c, 0, 65, 92
3, 206208, Note_off_c, 0, 65, 64
3, 206208, Note_on_c, 0, 64, 92
3, 206400, Note_off_c, 0, 64, 64
3, 206400, Note_on_c, 0, 62, 92
3, 206592, Note_off_c, 0, 62, 64
3, 206592, Note_on_c, 0, 60, 92
3, 206976, Note_off_c, 0, 60, 64
3, 206976, Note_on_c, 0, 60, 92
3, 207360, Note_off_c, 0, 60, 64
3, 207360, Note_on_c, 0, 60, 92
3, 207744, Note_off_c, 0, 60, 64
3, 207744, Note_on_c, 0, 62, 92
3, 208128, Note_off_c, 0, 62, 64
3, 208128, Note_on_c, 0, 64, 92
3, 208512, Note_off_c, 0, 64, 64
3, 208512, Note_on_c, 0, 64, 92
3, 208896, Note_off_c, 0, 64, 64
3, 208896, Note_on_c, 0, 57, 92
3, 209280, Note_off_c, 0, 57, 64
3, 209280, Note_on_c, 0, 48, 92
3, 209664, Note_off_c, 0, 48, 64
3, 209664, Note_on_c, 0, 48, 92
3, 210048, Note_off_c, 0, 48, 64
3, 210048, Note_on_c, 0, 50, 92
3, 210432, Note_off_c, 0, 50, 64
3, 210432, Note_on_c, 0, 52, 92
3, 210816, Note_off_c, 0, 52, 64
3, 210816, Note_on_c, 0, 52, 92
3, 211200, Note_off_c, 0, 52, 64
3, 211200, Note_on_c, 0, 45, 92
3, 211584, Note_off_c, 0, 45, 64
3, 211968, Note_on_c, 0, 57, 92
3, 212352, Note_off_c, 0, 57, 64
3, 212352, Note_on_c, 0, 64, 92
3, 213120, Note_off_c, 0, 64, 64
3, 213120, Note_on_c, 0, 56, 92
3, 213504, Note_off_c, 0, 56, 64
3, 213504, Note_on_c, 0, 57, 92
3, 214272, Note_off_c, 0, 57, 64
3, 214272, Note_on_c, 0, 45, 92
3, 214656, Note_off_c, 0, 45, 64
3, 214656, Note_on_c, 0, 52, 92
3, 215040, Note_off_c, 0, 52, 64
3, 215040, Note_on_c, 0, 45, 92
3, 215136, Note_off_c, 0, 45, 64
3, 215136, Note_on_c, 0, 44, 92
3, 215232, Note_off_c, 0, 44, 64
3, 215232, Note_on_c, 0, 45, 92
3, 215328, Note_off_c, 0, 45, 64
3, 215328, Note_on_c, 0, 44, 92
3, 215424, Note_off_c, 0, 44, 64
3, 215424, Note_on_c, 0, 45, 92
3, 215520, Note_off_c, 0, 45, 64
3, 215520, Note_on_c, 0, 44, 92
3, 215616, Note_off_c, 0, 44, 64
3, 215616, Note_on_c, 0, 45, 92
3, 215712, Note_off_c, 0, 45, 64
3, 215712, Note_on_c, 0, 44, 92
3, 215808, Note_off_c, 0, 44, 64
3, 215808, Note_on_c, 0, 45, 92
3, 216192, Note_off_c, 0, 45, 64
3, 216192, Note_on_c, 0, 52, 92
3, 216576, Note_off_c, 0, 52, 64
3, 216576, Note_on_c, 0, 57, 92
3, 216960, Note_off_c, 0, 57, 64
3, 216960, Note_on_c, 0, 50, 92
3, 217344, Note_off_c, 0, 50, 64
3, 217344, Note_on_c, 0, 52, 92
3, 217728, Note_off_c, 0, 52, 64
3, 217728, Note_on_c, 0, 40, 92
3, 218112, Note_off_c, 0, 40, 64
3, 218112, Note_on_c, 0, 45, 92
3, 218880, Note_off_c, 0, 45, 64
3, 218880, Note_on_c, 0, 45, 92
3, 219264, Note_off_c, 0, 45, 64
3, 219264, Note_on_c, 0, 52, 92
3, 220032, Note_off_c, 0, 52, 64
3, 220032, Note_on_c, 0, 56, 92
3, 220416, Note_off_c, 0, 56, 64
3, 220416, Note_on_c, 0, 57, 92
3, 221184, Note_off_c, 0, 57, 64
3, 221184, Note_on_c, 0, 45, 92
3, 221568, Note_off_c, 0, 45, 64
3, 221568, Note_on_c, 0, 52, 92
3, 221952, Note_off_c, 0, 52, 64
3, 221952, Note_on_c, 0, 45, 92
3, 222048, Note_off_c, 0, 45, 64
3, 222048, Note_on_c, 0, 44, 92
3, 222144, Note_off_c, 0, 44, 64
3, 222144, Note_on_c, 0, 45, 92
3, 222240, Note_off_c, 0, 45, 64
3, 222240, Note_on_c, 0, 44, 92
3, 222336, Note_off_c, 0, 44, 64
3, 222336, Note_on_c, 0, 45, 92
3, 222432, Note_off_c, 0, 45, 64
3, 222432, Note_on_c, 0, 44, 92
3, 222528, Note_off_c, 0, 44, 64
3, 222528, Note_on_c, 0, 45, 92
3, 222624, Note_off_c, 0, 45, 64
3, 222624, Note_on_c, 0, 44, 92
3, 222720, Note_off_c, 0, 44, 64
3, 222720, Note_on_c, 0, 45, 92
3, 223104, Note_off_c, 0, 45, 64
3, 223104, Note_on_c, 0, 52, 92
3, 223488, Note_off_c, 0, 52, 64
3, 223488, Note_on_c, 0, 57, 92
3, 223872, Note_off_c, 0, 57, 64
3, 223872, Note_on_c, 0, 50, 92
3, 224256, Note_off_c, 0, 50, 64
3, 224256, Note_on_c, 0, 52, 92
3, 224640, Note_off_c, 0, 52, 64
3, 224640, Note_on_c, 0, 40, 92
3, 225024, Note_off_c, 0, 40, 64
3, 225024, Note_on_c, 0, 45, 92
3, 225408, Note_off_c, 0, 45, 64
3, 229824, Note_on_c, 0, 69, 92
3, 230016, Note_off_c, 0, 69, 64
3, 230016, Note_on_c, 0, 67, 92
3, 230208, Note_off_c, 0, 67, 64
3, 230208, Note_on_c, 0, 65, 92
3, 230400, Note_off_c, 0, 65, 64
3, 230400, Note_on_c, 0, 64, 92
3, 230592, Note_off_c, 0, 64, 64
3, 230592, Note_on_c, 0, 62, 92
3, 230784, Note_off_c, 0, 62, 64
3, 230784, Note_on_c, 0, 60, 92
3, 230976, Note_off_c, 0, 60, 64
3, 230976, Note_on_c, 0, 65, 92
3, 231168, Note_off_c, 0, 65, 64
3, 231168, Note_on_c, 0, 64, 92
3, 231360, Note_off_c, 0, 64, 64
3, 231360, Note_on_c, 0, 62, 92
3, 231552, Note_off_c, 0, 62, 64
3, 231552, Note_on_c, 0, 60, 92
3, 231744, Note_off_c, 0, 60, 64
3, 231744, Note_on_c, 0, 59, 92
3, 231936, Note_off_c, 0, 59, 64
3, 231936, Note_on_c, 0, 57, 92
3, 232128, Note_off_c, 0, 57, 64
3, 232128, Note_on_c, 0, 72, 92
3, 232320, Note_off_c, 0, 72, 64
3, 232320, Note_on_c, 0, 71, 92
3, 232512, Note_off_c, 0, 71, 64
3, 232512, Note_on_c, 0, 69, 92
3, 232704, Note_off_c, 0, 69, 64
3, 232704, Note_on_c, 0, 67, 92
3, 232896, Note_off_c, 0, 67, 64
3, 232896, Note_on_c, 0, 65, 92
3, 233088, Note_off_c, 0, 65, 64
3, 233088, Note_on_c, 0, 64, 92
3, 233280, Note_off_c, 0, 64, 64
3, 233280, Note_on_c, 0, 69, 92
3, 233472, Note_off_c, 0, 69, 64
3, 233472, Note_on_c, 0, 67, 92
3, 233664, Note_off_c, 0, 67, 64
3, 233664, Note_on_c, 0, 65, 92
3, 233856, Note_off_c, 0, 65, 64
3, 233856, Note_on_c, 0, 64, 92
3, 234048, Note_off_c, 0, 64, 64
3, 234048, Note_on_c, 0, 62, 92
3, 234240, Note_off_c, 0, 62, 64
3, 234240, Note_on_c, 0, 60, 92
3, 234624, Note_off_c, 0, 60, 64
3, 234624, Note_on_c, 0, 60, 92
3, 235008, Note_off_c, 0, 60, 64
3, 235008, Note_on_c, 0, 60, 92
3, 235392, Note_off_c, 0, 60, 64
3, 235392, Note_on_c, 0, 62, 92
3, 235776, Note_off_c, 0, 62, 64
3, 235776, Note_on_c, 0, 64, 92
3, 236160, Note_off_c, 0, 64, 64
3, 236160, Note_on_c, 0, 64, 92
3, 236544, Note_off_c, 0, 64, 64
3, 236544, Note_on_c, 0, 57, 92
3, 236928, Note_off_c, 0, 57, 64
3, 236928, Note_on_c, 0, 48, 92
3, 237312, Note_off_c, 0, 48, 64
3, 237312, Note_on_c, 0, 48, 92
3, 237696, Note_off_c, 0, 48, 64
3, 237696, Note_on_c, 0, 50, 92
3, 238080, Note_off_c, 0, 50, 64
3, 238080, Note_on_c, 0, 52, 92
3, 238464, Note_off_c, 0, 52, 64
3, 238464, Note_on_c, 0, 52, 92
3, 238848, Note_off_c, 0, 52, 64
3, 238848, Note_on_c, 0, 69, 92
3, 238944, Note_off_c, 0, 69, 64
3, 238944, Note_on_c, 0, 72, 92
3, 239040, Note_off_c, 0, 72, 64
3, 239040, Note_on_c, 0, 76, 92
3, 239136, Note_off_c, 0, 76, 64
3, 239136, Note_on_c, 0, 72, 92
3, 239232, Note_off_c, 0, 72, 64
3, 239232, Note_on_c, 0, 69, 92
3, 239328, Note_off_c, 0, 69, 64
3, 239328, Note_on_c, 0, 72, 92
3, 239424, Note_off_c, 0, 72, 64
3, 239424, Note_on_c, 0, 76, 92
3, 239520, Note_off_c, 0, 76, 64
3, 239520, Note_on_c, 0, 72, 92
3, 239616, Note_off_c, 0, 72, 64
3, 239616, Note_on_c, 0, 69, 92
3, 239712, Note_off_c, 0, 69, 64
3, 239712, Note_on_c, 0, 72, 92
3, 239808, Note_off_c, 0, 72, 64
3, 239808, Note_on_c, 0, 76, 92
3, 239904, Note_off_c, 0, 76, 64
3, 239904, Note_on_c, 0, 72, 92
3, 240000, Note_off_c, 0, 72, 64
3, 240000, Note_on_c, 0, 68, 92
3, 240096, Note_off_c, 0, 68, 64
3, 240096, Note_on_c, 0, 71, 92
3, 240192, Note_off_c, 0, 71, 64
3, 240192, Note_on_c, 0, 76, 92
3, 240288, Note_off_c, 0, 76, 64
3, 240288, Note_on_c, 0, 71, 92
3, 240384, Note_off_c, 0, 71, 64
3, 240384, Note_on_c, 0, 68, 92
3, 240480, Note_off_c, 0, 68, 64
3, 240480, Note_on_c, 0, 71, 92
3, 240576, Note_off_c, 0, 71, 64
3, 240576, Note_on_c, 0, 76, 92
3, 240672, Note_off_c, 0, 76, 64
3, 240672, Note_on_c, 0, 71, 92
3, 240768, Note_off_c, 0, 71, 64
3, 240768, Note_on_c, 0, 68, 92
3, 240864, Note_off_c, 0, 68, 64
3, 240864, Note_on_c, 0, 71, 92
3, 240960, Note_off_c, 0, 71, 64
3, 240960, Note_on_c, 0, 76, 92
3, 241056, Note_off_c, 0, 76, 64
3, 241056, Note_on_c, 0, 71, 92
3, 241152, Note_off_c, 0, 71, 64
3, 241152, Note_on_c, 0, 69, 92
3, 241248, Note_off_c, 0, 69, 64
3, 241248, Note_on_c, 0, 72, 92
3, 241344, Note_off_c, 0, 72, 64
3, 241344, Note_on_c, 0, 76, 92
3, 241440, Note_off_c, 0, 76, 64
3, 241440, Note_on_c, 0, 72, 92
3, 241536, Note_off_c, 0, 72, 64
3, 241536, Note_on_c, 0, 69, 92
3, 241632, Note_off_c, 0, 69, 64
3, 241632, Note_on_c, 0, 72, 92
3, 241728, Note_off_c, 0, 72, 64
3, 241728, Note_on_c, 0, 76, 92
3, 241824, Note_off_c, 0, 76, 64
3, 241824, Note_on_c, 0, 72, 92
3, 241920, Note_off_c, 0, 72, 64
3, 241920, Note_on_c, 0, 69, 92
3, 242016, Note_off_c, 0, 69, 64
3, 242016, Note_on_c, 0, 72, 92
3, 242112, Note_off_c, 0, 72, 64
3, 242112, Note_on_c, 0, 76, 92
3, 242208, Note_off_c, 0, 76, 64
3, 242208, Note_on_c, 0, 72, 92
3, 242304, Note_off_c, 0, 72, 64
3, 242304, Note_on_c, 0, 68, 92
3, 242400, Note_off_c, 0, 68, 64
3, 242400, Note_on_c, 0, 71, 92
3, 242496, Note_off_c, 0, 71, 64
3, 242496, Note_on_c, 0, 76, 92
3, 242592, Note_off_c, 0, 76, 64
3, 242592, Note_on_c, 0, 71, 92
3, 242688, Note_off_c, 0, 71, 64
3, 242688, Note_on_c, 0, 68, 92
3, 242784, Note_off_c, 0, 68, 64
3, 242784, Note_on_c, 0, 71, 92
3, 242880, Note_off_c, 0, 71, 64
3, 242880, Note_on_c, 0, 76, 92
3, 242976, Note_off_c, 0, 76, 64
3, 242976, Note_on_c, 0, 71, 92
3, 243072, Note_off_c, 0, 71, 64
3, 243072, Note_on_c, 0, 68, 92
3, 243168, Note_off_c, 0, 68, 64
3, 243168, Note_on_c, 0, 71, 92
3, 243264, Note_off_c, 0, 71, 64
3, 243264, Note_on_c, 0, 76, 92
3, 243360, Note_off_c, 0, 76, 64
3, 243360, Note_on_c, 0, 71, 92
3, 243456, Note_off_c, 0, 71, 64
3, 243456, Note_on_c, 0, 69, 92
3, 243552, Note_off_c, 0, 69, 64
3, 243552, Note_on_c, 0, 72, 92
3, 243648, Note_off_c, 0, 72, 64
3, 243648, Note_on_c, 0, 76, 92
3, 243744, Note_off_c, 0, 76, 64
3, 243744, Note_on_c, 0, 72, 92
3, 243840, Note_off_c, 0, 72, 64
3, 243840, Note_on_c, 0, 69, 92
3, 243936, Note_off_c, 0, 69, 64
3, 243936, Note_on_c, 0, 72, 92
3, 244032, Note_off_c, 0, 72, 64
3, 244032, Note_on_c, 0, 76, 92
3, 244128, Note_off_c, 0, 76, 64
3, 244128, Note_on_c, 0, 72, 92
3, 244224, Note_off_c, 0, 72, 64
3, 244224, Note_on_c, 0, 69, 92
3, 244320, Note_off_c, 0, 69, 64
3, 244320, Note_on_c, 0, 72, 92
3, 244416, Note_off_c, 0, 72, 64
3, 244416, Note_on_c, 0, 76, 92
3, 244512, Note_off_c, 0, 76, 64
3, 244512, Note_on_c, 0, 72, 92
3, 244608, Note_off_c, 0, 72, 64
3, 244608, Note_on_c, 0, 76, 92
3, 244704, Note_off_c, 0, 76, 64
3, 244704, Note_on_c, 0, 79, 92
3, 244800, Note_off_c, 0, 79, 64
3, 244800, Note_on_c, 0, 76, 92
3, 244896, Note_off_c, 0, 76, 64
3, 244896, Note_on_c, 0, 73, 92
3, 244992, Note_off_c, 0, 73, 64
3, 244992, Note_on_c, 0, 76, 92
3, 245088, Note_off_c, 0, 76, 64
3, 245088, Note_on_c, 0, 79, 92
3, 245184, Note_off_c, 0, 79, 64
3, 245184, Note_on_c, 0, 76, 92
3, 245280, Note_off_c, 0, 76, 64
3, 245280, Note_on_c, 0, 73, 92
3, 245376, Note_off_c, 0, 73, 64
3, 245376, Note_on_c, 0, 76, 92
3, 245472, Note_off_c, 0, 76, 64
3, 245472, Note_on_c, 0, 79, 92
3, 245568, Note_off_c, 0, 79, 64
3, 245568, Note_on_c, 0, 76, 92
3, 245664, Note_off_c, 0, 76, 64
3, 245664, Note_on_c, 0, 73, 92
3, 245760, Note_off_c, 0, 73, 64
3, 245760, Note_on_c, 0, 74, 92
3, 245856, Note_off_c, 0, 74, 64
3, 245856, Note_on_c, 0, 77, 92
3, 245952, Note_off_c, 0, 77, 64
3, 245952, Note_on_c, 0, 74, 92
3, 246048, Note_off_c, 0, 74, 64
3, 246048, Note_on_c, 0, 69, 92
3, 246144, Note_off_c, 0, 69, 64
3, 246144, Note_on_c, 0, 74, 92
3, 246240, Note_off_c, 0, 74, 64
3, 246240, Note_on_c, 0, 77, 92
3, 246336, Note_off_c, 0, 77, 64
3, 246336, Note_on_c, 0, 74, 92
3, 246432, Note_off_c, 0, 74, 64
3, 246432, Note_on_c, 0, 69, 92
3, 246528, Note_off_c, 0, 69, 64
3, 246528, Note_on_c, 0, 74, 92
3, 246624, Note_off_c, 0, 74, 64
3, 246624, Note_on_c, 0, 77, 92
3, 246720, Note_off_c, 0, 77, 64
3, 246720, Note_on_c, 0, 74, 92
3, 246816, Note_off_c, 0, 74, 64
3, 246816, Note_on_c, 0, 69, 92
3, 246912, Note_off_c, 0, 69, 64
3, 246912, Note_on_c, 0, 74, 92
3, 247008, Note_off_c, 0, 74, 64
3, 247008, Note_on_c, 0, 76, 92
3, 247104, Note_off_c, 0, 76, 64
3, 247104, Note_on_c, 0, 74, 92
3, 247200, Note_off_c, 0, 74, 64
3, 247200, Note_on_c, 0, 69, 92
3, 247296, Note_off_c, 0, 69, 64
3, 247296, Note_on_c, 0, 74, 92
3, 247392, Note_off_c, 0, 74, 64
3, 247392, Note_on_c, 0, 76, 92
3, 247488, Note_off_c, 0, 76, 64
3, 247488, Note_on_c, 0, 74, 92
3, 247584, Note_off_c, 0, 74, 64
3, 247584, Note_on_c, 0, 69, 92
3, 247680, Note_off_c, 0, 69, 64
3, 247680, Note_on_c, 0, 74, 92
3, 247776, Note_off_c, 0, 74, 64
3, 247776, Note_on_c, 0, 76, 92
3, 247872, Note_off_c, 0, 76, 64
3, 247872, Note_on_c, 0, 74, 92
3, 247968, Note_off_c, 0, 74, 64
3, 247968, Note_on_c, 0, 69, 92
3, 248064, Note_off_c, 0, 69, 64
3, 248064, Note_on_c, 0, 72, 92
3, 248160, Note_off_c, 0, 72, 64
3, 248160, Note_on_c, 0, 76, 92
3, 248256, Note_off_c, 0, 76, 64
3, 248256, Note_on_c, 0, 72, 92
3, 248352, Note_off_c, 0, 72, 64
3, 248352, Note_on_c, 0, 69, 92
3, 248448, Note_off_c, 0, 69, 64
3, 248448, Note_on_c, 0, 72, 92
3, 248544, Note_off_c, 0, 72, 64
3, 248544, Note_on_c, 0, 76, 92
3, 248640, Note_off_c, 0, 76, 64
3, 248640, Note_on_c, 0, 72, 92
3, 248736, Note_off_c, 0, 72, 64
3, 248736, Note_on_c, 0, 69, 92
3, 248832, Note_off_c, 0, 69, 64
3, 248832, Note_on_c, 0, 72, 92
3, 248928, Note_off_c, 0, 72, 64
3, 248928, Note_on_c, 0, 76, 92
3, 249024, Note_off_c, 0, 76, 64
3, 249024, Note_on_c, 0, 72, 92
3, 249120, Note_off_c, 0, 72, 64
3, 249120, Note_on_c, 0, 69, 92
3, 249216, Note_off_c, 0, 69, 64
3, 249216, Note_on_c, 0, 78, 92
3, 249312, Note_off_c, 0, 78, 64
3, 249312, Note_on_c, 0, 81, 92
3, 249408, Note_off_c, 0, 81, 64
3, 249408, Note_on_c, 0, 78, 92
3, 249504, Note_off_c, 0, 78, 64
3, 249504, Note_on_c, 0, 75, 92
3, 249600, Note_off_c, 0, 75, 64
3, 249600, Note_on_c, 0, 78, 92
3, 249696, Note_off_c, 0, 78, 64
3, 249696, Note_on_c, 0, 81, 92
3, 249792, Note_off_c, 0, 81, 64
3, 249792, Note_on_c, 0, 78, 92
3, 249888, Note_off_c, 0, 78, 64
3, 249888, Note_on_c, 0, 75, 92
3, 249984, Note_off_c, 0, 75, 64
3, 249984, Note_on_c, 0, 78, 92
3, 250080, Note_off_c, 0, 78, 64
3, 250080, Note_on_c, 0, 81, 92
3, 250176, Note_off_c, 0, 81, 64
3, 250176, Note_on_c, 0, 78, 92
3, 250272, Note_off_c, 0, 78, 64
3, 250272, Note_on_c, 0, 75, 92
3, 250368, Note_off_c, 0, 75, 64
3, 250368, Note_on_c, 0, 76, 92
3, 250464, Note_off_c, 0, 76, 64
3, 250464, Note_on_c, 0, 79, 92
3, 250560, Note_off_c, 0, 79, 64
3, 250560, Note_on_c, 0, 76, 92
3, 250656, Note_off_c, 0, 76, 64
3, 250656, Note_on_c, 0, 71, 92
3, 250752, Note_off_c, 0, 71, 64
3, 250752, Note_on_c, 0, 76, 92
3, 250848, Note_off_c, 0, 76, 64
3, 250848, Note_on_c, 0, 79, 92
3, 250944, Note_off_c, 0, 79, 64
3, 250944, Note_on_c, 0, 76, 92
3, 251040, Note_off_c, 0, 76, 64
3, 251040, Note_on_c, 0, 71, 92
3, 251136, Note_off_c, 0, 71, 64
3, 251136, Note_on_c, 0, 76, 92
3, 251232, Note_off_c, 0, 76, 64
3, 251232, Note_on_c, 0, 79, 92
3, 251328, Note_off_c, 0, 79, 64
3, 251328, Note_on_c, 0, 76, 92
3, 251424, Note_off_c, 0, 76, 64
3, 251424, Note_on_c, 0, 71, 92
3, 251520, Note_off_c, 0, 71, 64
3, 251520, Note_on_c, 0, 76, 92
3, 251616, Note_off_c, 0, 76, 64
3, 251616, Note_on_c, 0, 79, 92
3, 251712, Note_off_c, 0, 79, 64
3, 251712, Note_on_c, 0, 76, 92
3, 251808, Note_off_c, 0, 76, 64
3, 251808, Note_on_c, 0, 71, 92
3, 251904, Note_off_c, 0, 71, 64
3, 251904, Note_on_c, 0, 76, 92
3, 252000, Note_off_c, 0, 76, 64
3, 252000, Note_on_c, 0, 79, 92
3, 252096, Note_off_c, 0, 79, 64
3, 252096, Note_on_c, 0, 76, 92
3, 252192, Note_off_c, 0, 76, 64
3, 252192, Note_on_c, 0, 71, 92
3, 252288, Note_off_c, 0, 71, 64
3, 252288, Note_on_c, 0, 76, 92
3, 252384, Note_off_c, 0, 76, 64
3, 252384, Note_on_c, 0, 79, 92
3, 252480, Note_off_c, 0, 79, 64
3, 252480, Note_on_c, 0, 76, 92
3, 252576, Note_off_c, 0, 76, 64
3, 252576, Note_on_c, 0, 71, 92
3, 252672, Note_off_c, 0, 71, 64
3, 252672, Note_on_c, 0, 76, 92
3, 252768, Note_off_c, 0, 76, 64
3, 252768, Note_on_c, 0, 78, 92
3, 252864, Note_off_c, 0, 78, 64
3, 252864, Note_on_c, 0, 76, 92
3, 252960, Note_off_c, 0, 76, 64
3, 252960, Note_on_c, 0, 71, 92
3, 253056, Note_off_c, 0, 71, 64
3, 253056, Note_on_c, 0, 76, 92
3, 253152, Note_off_c, 0, 76, 64
3, 253152, Note_on_c, 0, 78, 92
3, 253248, Note_off_c, 0, 78, 64
3, 253248, Note_on_c, 0, 76, 92
3, 253344, Note_off_c, 0, 76, 64
3, 253344, Note_on_c, 0, 71, 92
3, 253440, Note_off_c, 0, 71, 64
3, 253440, Note_on_c, 0, 76, 92
3, 253536, Note_off_c, 0, 76, 64
3, 253536, Note_on_c, 0, 78, 92
3, 253632, Note_off_c, 0, 78, 64
3, 253632, Note_on_c, 0, 76, 92
3, 253728, Note_off_c, 0, 76, 64
3, 253728, Note_on_c, 0, 71, 92
3, 253824, Note_off_c, 0, 71, 64
3, 253824, Note_on_c, 0, 75, 92
3, 253920, Note_off_c, 0, 75, 64
3, 253920, Note_on_c, 0, 78, 92
3, 254016, Note_off_c, 0, 78, 64
3, 254016, Note_on_c, 0, 75, 92
3, 254112, Note_off_c, 0, 75, 64
3, 254112, Note_on_c, 0, 69, 92
3, 254208, Note_off_c, 0, 69, 64
3, 254208, Note_on_c, 0, 75, 92
3, 254304, Note_off_c, 0, 75, 64
3, 254304, Note_on_c, 0, 78, 92
3, 254400, Note_off_c, 0, 78, 64
3, 254400, Note_on_c, 0, 75, 92
3, 254496, Note_off_c, 0, 75, 64
3, 254496, Note_on_c, 0, 69, 92
3, 254592, Note_off_c, 0, 69, 64
3, 254592, Note_on_c, 0, 75, 92
3, 254688, Note_off_c, 0, 75, 64
3, 254688, Note_on_c, 0, 78, 92
3, 254784, Note_off_c, 0, 78, 64
3, 254784, Note_on_c, 0, 75, 92
3, 254880, Note_off_c, 0, 75, 64
3, 254880, Note_on_c, 0, 69, 92
3, 254976, Note_off_c, 0, 69, 64
3, 254976, Note_on_c, 0, 67, 92
3, 255168, Note_off_c, 0, 67, 64
3, 255168, Note_on_c, 0, 67, 92
3, 255264, Note_off_c, 0, 67, 64
3, 255264, Note_on_c, 0, 66, 92
3, 255360, Note_off_c, 0, 66, 64
3, 255360, Note_on_c, 0, 64, 92
3, 255552, Note_off_c, 0, 64, 64
3, 255552, Note_on_c, 0, 67, 92
3, 255744, Note_off_c, 0, 67, 64
3, 255744, Note_on_c, 0, 64, 92
3, 255936, Note_off_c, 0, 64, 64
3, 255936, Note_on_c, 0, 67, 92
3, 256128, Note_off_c, 0, 67, 64
3, 256128, Note_on_c, 0, 66, 92
3, 256320, Note_off_c, 0, 66, 64
3, 256320, Note_on_c, 0, 63, 92
3, 256416, Note_off_c, 0, 63, 64
3, 256416, Note_on_c, 0, 64, 92
3, 256512, Note_off_c, 0, 64, 64
3, 256512, Note_on_c, 0, 66, 92
3, 256704, Note_off_c, 0, 66, 64
3, 256704, Note_on_c, 0, 63, 92
3, 256896, Note_off_c, 0, 63, 64
3, 256896, Note_on_c, 0, 59, 92
3, 257088, Note_off_c, 0, 59, 64
3, 257088, Note_on_c, 0, 63, 92
3, 257280, Note_off_c, 0, 63, 64
3, 257280, Note_on_c, 0, 64, 92
3, 257472, Note_off_c, 0, 64, 64
3, 257472, Note_on_c, 0, 67, 92
3, 257568, Note_off_c, 0, 67, 64
3, 257568, Note_on_c, 0, 66, 92
3, 257664, Note_off_c, 0, 66, 64
3, 257664, Note_on_c, 0, 64, 92
3, 257856, Note_off_c, 0, 64, 64
3, 257856, Note_on_c, 0, 67, 92
3, 258048, Note_off_c, 0, 67, 64
3, 258048, Note_on_c, 0, 64, 92
3, 258240, Note_off_c, 0, 64, 64
3, 258240, Note_on_c, 0, 67, 92
3, 258432, Note_off_c, 0, 67, 64
3, 258432, Note_on_c, 0, 64, 92
3, 258624, Note_off_c, 0, 64, 64
3, 258624, Note_on_c, 0, 61, 92
3, 258720, Note_off_c, 0, 61, 64
3, 258720, Note_on_c, 0, 62, 92
3, 258816, Note_off_c, 0, 62, 64
3, 258816, Note_on_c, 0, 64, 92
3, 259008, Note_off_c, 0, 64, 64
3, 259008, Note_on_c, 0, 61, 92
3, 259200, Note_off_c, 0, 61, 64
3, 259200, Note_on_c, 0, 57, 92
3, 259392, Note_off_c, 0, 57, 64
3, 259392, Note_on_c, 0, 61, 92
3, 259584, Note_off_c, 0, 61, 64
3, 259584, Note_on_c, 0, 62, 92
3, 259776, Note_off_c, 0, 62, 64
3, 259776, Note_on_c, 0, 65, 92
3, 259872, Note_off_c, 0, 65, 64
3, 259872, Note_on_c, 0, 64, 92
3, 259968, Note_off_c, 0, 64, 64
3, 259968, Note_on_c, 0, 62, 92
3, 260160, Note_off_c, 0, 62, 64
3, 260160, Note_on_c, 0, 65, 92
3, 260352, Note_off_c, 0, 65, 64
3, 260352, Note_on_c, 0, 62, 92
3, 260544, Note_off_c, 0, 62, 64
3, 260544, Note_on_c, 0, 65, 92
3, 260736, Note_off_c, 0, 65, 64
3, 260736, Note_on_c, 0, 62, 92
3, 260928, Note_off_c, 0, 62, 64
3, 260928, Note_on_c, 0, 59, 92
3, 261024, Note_off_c, 0, 59, 64
3, 261024, Note_on_c, 0, 60, 92
3, 261120, Note_off_c, 0, 60, 64
3, 261120, Note_on_c, 0, 62, 92
3, 261312, Note_off_c, 0, 62, 64
3, 261312, Note_on_c, 0, 59, 92
3, 261504, Note_off_c, 0, 59, 64
3, 261504, Note_on_c, 0, 55, 92
3, 261696, Note_off_c, 0, 55, 64
3, 261696, Note_on_c, 0, 59, 92
3, 261888, Note_off_c, 0, 59, 64
3, 261888, Note_on_c, 0, 60, 92
3, 262080, Note_off_c, 0, 60, 64
3, 262080, Note_on_c, 0, 64, 92
3, 262176, Note_off_c, 0, 64, 64
3, 262176, Note_on_c, 0, 62, 92
3, 262272, Note_off_c, 0, 62, 64
3, 262272, Note_on_c, 0, 60, 92
3, 262464, Note_off_c, 0, 60, 64
3, 262464, Note_on_c, 0, 64, 92
3, 262656, Note_off_c, 0, 64, 64
3, 262656, Note_on_c, 0, 60, 92
3, 262848, Note_off_c, 0, 60, 64
3, 262848, Note_on_c, 0, 64, 92
3, 263040, Note_off_c, 0, 64, 64
3, 263040, Note_on_c, 0, 62, 92
3, 263232, Note_off_c, 0, 62, 64
3, 263232, Note_on_c, 0, 59, 92
3, 263328, Note_off_c, 0, 59, 64
3, 263328, Note_on_c, 0, 60, 92
3, 263424, Note_off_c, 0, 60, 64
3, 263424, Note_on_c, 0, 62, 92
3, 263616, Note_off_c, 0, 62, 64
3, 263616, Note_on_c, 0, 59, 92
3, 263808, Note_off_c, 0, 59, 64
3, 263808, Note_on_c, 0, 55, 92
3, 264000, Note_off_c, 0, 55, 64
3, 264000, Note_on_c, 0, 59, 92
3, 264192, Note_off_c, 0, 59, 64
3, 264192, Note_on_c, 0, 60, 92
3, 264576, Note_off_c, 0, 60, 64
3, 265248, Note_on_c, 0, 57, 92
3, 265248, Note_on_c, 0, 64, 92
3, 265344, Note_off_c, 0, 64, 64
3, 265344, Note_off_c, 0, 57, 64
3, 265344, Note_on_c, 0, 57, 92
3, 265344, Note_on_c, 0, 64, 92
3, 265728, Note_off_c, 0, 64, 64
3, 265728, Note_off_c, 0, 57, 64
3, 266400, Note_on_c, 0, 62, 92
3, 266400, Note_on_c, 0, 66, 92
3, 266496, Note_off_c, 0, 66, 64
3, 266496, Note_off_c, 0, 62, 64
3, 266496, Note_on_c, 0, 62, 92
3, 266496, Note_on_c, 0, 66, 92
3, 266880, Note_off_c, 0, 66, 64
3, 266880, Note_off_c, 0, 62, 64
3, 267552, Note_on_c, 0, 59, 92
3, 267552, Note_on_c, 0, 66, 92
3, 267648, Note_off_c, 0, 66, 64
3, 267648, Note_off_c, 0, 59, 64
3, 267648, Note_on_c, 0, 59, 92
3, 267648, Note_on_c, 0, 66, 92
3, 268032, Note_off_c, 0, 66, 64
3, 268032, Note_off_c, 0, 59, 64
3, 268704, Note_on_c, 0, 64, 92
3, 268704, Note_on_c, 0, 68, 92
3, 268800, Note_off_c, 0, 68, 64
3, 268800, Note_off_c, 0, 64, 64
3, 268800, Note_on_c, 0, 64, 92
3, 268800, Note_on_c, 0, 68, 92
3, 269184, Note_off_c, 0, 68, 64
3, 269184, Note_off_c, 0, 64, 64
3, 269952, Note_on_c, 0, 69, 92
3, 270144, Note_off_c, 0, 69, 64
3, 270144, Note_on_c, 0, 67, 92
3, 270240, Note_off_c, 0, 67, 64
3, 270240, Note_on_c, 0, 65, 92
3, 270336, Note_off_c, 0, 65, 64
3, 270336, Note_on_c, 0, 64, 92
3, 270432, Note_off_c, 0, 64, 64
3, 270432, Note_on_c, 0, 69, 92
3, 270528, Note_off_c, 0, 69, 64
3, 270528, Note_on_c, 0, 67, 92
3, 270624, Note_off_c, 0, 67, 64
3, 270624, Note_on_c, 0, 65, 92
3, 270720, Note_off_c, 0, 65, 64
3, 270720, Note_on_c, 0, 64, 92
3, 270816, Note_off_c, 0, 64, 64
3, 270816, Note_on_c, 0, 62, 92
3, 270912, Note_off_c, 0, 62, 64
3, 270912, Note_on_c, 0, 60, 92
3, 271008, Note_off_c, 0, 60, 64
3, 271008, Note_on_c, 0, 59, 92
3, 271104, Note_off_c, 0, 59, 64
3, 271104, Note_on_c, 0, 57, 92
3, 271296, Note_off_c, 0, 57, 64
3, 271296, Note_on_c, 0, 55, 92
3, 271392, Note_off_c, 0, 55, 64
3, 271392, Note_on_c, 0, 53, 92
3, 271488, Note_off_c, 0, 53, 64
3, 271488, Note_on_c, 0, 52, 92
3, 271584, Note_off_c, 0, 52, 64
3, 271584, Note_on_c, 0, 57, 92
3, 271680, Note_off_c, 0, 57, 64
3, 271680, Note_on_c, 0, 55, 92
3, 271776, Note_off_c, 0, 55, 64
3, 271776, Note_on_c, 0, 53, 92
3, 271872, Note_off_c, 0, 53, 64
3, 271872, Note_on_c, 0, 52, 92
3, 271968, Note_off_c, 0, 52, 64
3, 271968, Note_on_c, 0, 50, 92
3, 272064, Note_off_c, 0, 50, 64
3, 272064, Note_on_c, 0, 48, 92
3, 272160, Note_off_c, 0, 48, 64
3, 272160, Note_on_c, 0, 47, 92
3, 272256, Note_off_c, 0, 47, 64
3, 272256, Note_on_c, 0, 45, 92
3, 272640, Note_off_c, 0, 45, 64
3, 272640, Note_on_c, 0, 72, 92
3, 273408, Note_off_c, 0, 72, 64
3, 273504, Note_on_c, 0, 71, 92
3, 273600, Note_off_c, 0, 71, 64
3, 273600, Note_on_c, 0, 69, 92
3, 273696, Note_off_c, 0, 69, 64
3, 273696, Note_on_c, 0, 71, 92
3, 273792, Note_off_c, 0, 71, 64
3, 273792, Note_on_c, 0, 67, 92
3, 273888, Note_off_c, 0, 67, 64
3, 273888, Note_on_c, 0, 69, 92
3, 273984, Note_off_c, 0, 69, 64
3, 273984, Note_on_c, 0, 66, 92
3, 274080, Note_off_c, 0, 66, 64
3, 274080, Note_on_c, 0, 67, 92
3, 274176, Note_off_c, 0, 67, 64
3, 274176, Note_on_c, 0, 64, 92
3, 274272, Note_off_c, 0, 64, 64
3, 274272, Note_on_c, 0, 66, 92
3, 274368, Note_off_c, 0, 66, 64
3, 274368, Note_on_c, 0, 62, 92
3, 274464, Note_off_c, 0, 62, 64
3, 274464, Note_on_c, 0, 64, 92
3, 274560, Note_off_c, 0, 64, 64
3, 274560, Note_on_c, 0, 60, 92
3, 274656, Note_off_c, 0, 60, 64
3, 274656, Note_on_c, 0, 62, 92
3, 274752, Note_off_c, 0, 62, 64
3, 274752, Note_on_c, 0, 59, 92
3, 274848, Note_off_c, 0, 59, 64
3, 274848, Note_on_c, 0, 60, 92
3, 274944, Note_off_c, 0, 60, 64
3, 274944, Note_on_c, 0, 57, 92
3, 275040, Note_off_c, 0, 57, 64
3, 275040, Note_on_c, 0, 69, 92
3, 275136, Note_off_c, 0, 69, 64
3, 275136, Note_on_c, 0, 67, 92
3, 275232, Note_off_c, 0, 67, 64
3, 275232, Note_on_c, 0, 69, 92
3, 275328, Note_off_c, 0, 69, 64
3, 275328, Note_on_c, 0, 59, 92
3, 275424, Note_on_c, 0, 69, 92
3, 275520, Note_off_c, 0, 69, 64
3, 275520, Note_on_c, 0, 67, 92
3, 275616, Note_off_c, 0, 67, 64
3, 275616, Note_on_c, 0, 66, 92
3, 275712, Note_off_c, 0, 66, 64
3, 275712, Note_on_c, 0, 67, 92
3, 276096, Note_off_c, 0, 67, 64
3, 276096, Note_off_c, 0, 59, 64
3, 276960, Note_on_c, 0, 65, 92
3, 277056, Note_off_c, 0, 65, 64
3, 277056, Note_on_c, 0, 64, 92
3, 277152, Note_off_c, 0, 64, 64
3, 277152, Note_on_c, 0, 65, 92
3, 277248, Note_off_c, 0, 65, 64
3, 277248, Note_on_c, 0, 62, 92
3, 277344, Note_off_c, 0, 62, 64
3, 277344, Note_on_c, 0, 64, 92
3, 277440, Note_off_c, 0, 64, 64
3, 277440, Note_on_c, 0, 60, 92
3, 277536, Note_off_c, 0, 60, 64
3, 277536, Note_on_c, 0, 62, 92
3, 277632, Note_off_c, 0, 62, 64
3, 277632, Note_on_c, 0, 58, 92
3, 277728, Note_off_c, 0, 58, 64
3, 277728, Note_on_c, 0, 60, 92
3, 277824, Note_off_c, 0, 60, 64
3, 277824, Note_on_c, 0, 57, 92
3, 277920, Note_off_c, 0, 57, 64
3, 277920, Note_on_c, 0, 58, 92
3, 278016, Note_off_c, 0, 58, 64
3, 278016, Note_on_c, 0, 55, 92
3, 278112, Note_off_c, 0, 55, 64
3, 278112, Note_on_c, 0, 57, 92
3, 278208, Note_off_c, 0, 57, 64
3, 278208, Note_on_c, 0, 53, 92
3, 278304, Note_off_c, 0, 53, 64
3, 278304, Note_on_c, 0, 55, 92
3, 278400, Note_off_c, 0, 55, 64
3, 278400, Note_on_c, 0, 52, 92
3, 278496, Note_off_c, 0, 52, 64
3, 278496, Note_on_c, 0, 55, 92
3, 278592, Note_off_c, 0, 55, 64
3, 278592, Note_on_c, 0, 53, 92
3, 278688, Note_off_c, 0, 53, 64
3, 278688, Note_on_c, 0, 52, 92
3, 278784, Note_off_c, 0, 52, 64
3, 278784, Note_on_c, 0, 45, 92
3, 278880, Note_off_c, 0, 45, 64
3, 278880, Note_on_c, 0, 55, 92
3, 278976, Note_off_c, 0, 55, 64
3, 278976, Note_on_c, 0, 53, 92
3, 279072, Note_off_c, 0, 53, 64
3, 279072, Note_on_c, 0, 52, 92
3, 279168, Note_off_c, 0, 52, 64
3, 279168, Note_on_c, 0, 50, 92
3, 279168, Note_on_c, 0, 53, 92
3, 279552, Note_off_c, 0, 53, 64
3, 279552, Note_off_c, 0, 50, 64
3, 280416, Note_on_c, 0, 64, 92
3, 280512, Note_off_c, 0, 64, 64
3, 280512, Note_on_c, 0, 62, 92
3, 280608, Note_off_c, 0, 62, 64
3, 280608, Note_on_c, 0, 64, 92
3, 280704, Note_off_c, 0, 64, 64
3, 280704, Note_on_c, 0, 60, 92
3, 280800, Note_off_c, 0, 60, 64
3, 280800, Note_on_c, 0, 62, 92
3, 280896, Note_off_c, 0, 62, 64
3, 280896, Note_on_c, 0, 59, 92
3, 280992, Note_off_c, 0, 59, 64
3, 280992, Note_on_c, 0, 60, 92
3, 281088, Note_off_c, 0, 60, 64
3, 281088, Note_on_c, 0, 57, 92
3, 281184, Note_off_c, 0, 57, 64
3, 281184, Note_on_c, 0, 59, 92
3, 281280, Note_off_c, 0, 59, 64
3, 281280, Note_on_c, 0, 55, 92
3, 281376, Note_off_c, 0, 55, 64
3, 281376, Note_on_c, 0, 57, 92
3, 281472, Note_off_c, 0, 57, 64
3, 281472, Note_on_c, 0, 53, 92
3, 281568, Note_off_c, 0, 53, 64
3, 281568, Note_on_c, 0, 55, 92
3, 281664, Note_off_c, 0, 55, 64
3, 281664, Note_on_c, 0, 52, 92
3, 281760, Note_off_c, 0, 52, 64
3, 281760, Note_on_c, 0, 53, 92
3, 281856, Note_off_c, 0, 53, 64
3, 281856, Note_on_c, 0, 50, 92
3, 281952, Note_off_c, 0, 50, 64
3, 281952, Note_on_c, 0, 53, 92
3, 282048, Note_off_c, 0, 53, 64
3, 282048, Note_on_c, 0, 52, 92
3, 282144, Note_off_c, 0, 52, 64
3, 282144, Note_on_c, 0, 50, 92
3, 282240, Note_off_c, 0, 50, 64
3, 282240, Note_on_c, 0, 43, 92
3, 282336, Note_off_c, 0, 43, 64
3, 282336, Note_on_c, 0, 53, 92
3, 282432, Note_off_c, 0, 53, 64
3, 282432, Note_on_c, 0, 52, 92
3, 282528, Note_off_c, 0, 52, 64
3, 282528, Note_on_c, 0, 50, 92
3, 282624, Note_off_c, 0, 50, 64
3, 282624, Note_on_c, 0, 48, 92
3, 282624, Note_on_c, 0, 52, 92
3, 283008, Note_off_c, 0, 52, 64
3, 283008, Note_off_c, 0, 48, 64
3, 283104, Note_on_c, 0, 67, 92
3, 283104, Note_on_c, 0, 72, 92
3, 283200, Note_off_c, 0, 72, 64
3, 283200, Note_off_c, 0, 67, 64
3, 283200, Note_on_c, 0, 67, 92
3, 283200, Note_on_c, 0, 72, 92
3, 283296, Note_off_c, 0, 72, 64
3, 283296, Note_off_c, 0, 67, 64
3, 283488, Note_on_c, 0, 67, 92
3, 283488, Note_on_c, 0, 72, 92
3, 283584, Note_off_c, 0, 72, 64
3, 283584, Note_off_c, 0, 67, 64
3, 283584, Note_on_c, 0, 67, 92
3, 283584, Note_on_c, 0, 72, 92
3, 283680, Note_off_c, 0, 72, 64
3, 283680, Note_off_c, 0, 67, 64
3, 283872, Note_on_c, 0, 71, 92
3, 283872, Note_on_c, 0, 74, 92
3, 283968, Note_off_c, 0, 74, 64
3, 283968, Note_off_c, 0, 71, 64
3, 283968, Note_on_c, 0, 71, 92
3, 283968, Note_on_c, 0, 74, 92
3, 284064, Note_off_c, 0, 74, 64
3, 284064, Note_off_c, 0, 71, 64
3, 284256, Note_on_c, 0, 71, 92
3, 284256, Note_on_c, 0, 74, 92
3, 284352, Note_off_c, 0, 74, 64
3, 284352, Note_off_c, 0, 71, 64
3, 284352, Note_on_c, 0, 71, 92
3, 284352, Note_on_c, 0, 74, 92
3, 284448, Note_off_c, 0, 74, 64
3, 284448, Note_off_c, 0, 71, 64
3, 284640, Note_on_c, 0, 71, 92
3, 284640, Note_on_c, 0, 74, 92
3, 284736, Note_off_c, 0, 74, 64
3, 284736, Note_off_c, 0, 71, 64
3, 284736, Note_on_c, 0, 71, 92
3, 284736, Note_on_c, 0, 74, 92
3, 284832, Note_off_c, 0, 74, 64
3, 284832, Note_off_c, 0, 71, 64
3, 285024, Note_on_c, 0, 67, 92
3, 285024, Note_on_c, 0, 71, 92
3, 285120, Note_off_c, 0, 71, 64
3, 285120, Note_off_c, 0, 67, 64
3, 285120, Note_on_c, 0, 67, 92
3, 285120, Note_on_c, 0, 71, 92
3, 285216, Note_off_c, 0, 71, 64
3, 285216, Note_off_c, 0, 67, 64
3, 285408, Note_on_c, 0, 67, 92
3, 285408, Note_on_c, 0, 71, 92
3, 285504, Note_off_c, 0, 71, 64
3, 285504, Note_off_c, 0, 67, 64
3, 285504, Note_on_c, 0, 67, 92
3, 285504, Note_on_c, 0, 71, 92
3, 285600, Note_off_c, 0, 71, 64
3, 285600, Note_off_c, 0, 67, 64
3, 285792, Note_on_c, 0, 67, 92
3, 285792, Note_on_c, 0, 71, 92
3, 285888, Note_off_c, 0, 71, 64
3, 285888, Note_off_c, 0, 67, 64
3, 285888, Note_on_c, 0, 67, 92
3, 285888, Note_on_c, 0, 71, 92
3, 285984, Note_off_c, 0, 71, 64
3, 285984, Note_off_c, 0, 67, 64
3, 286176, Note_on_c, 0, 67, 92
3, 286176, Note_on_c, 0, 72, 92
3, 286272, Note_off_c, 0, 72, 64
3, 286272, Note_off_c, 0, 67, 64
3, 286272, Note_on_c, 0, 67, 92
3, 286272, Note_on_c, 0, 72, 92
3, 286368, Note_off_c, 0, 72, 64
3, 286368, Note_off_c, 0, 67, 64
3, 286560, Note_on_c, 0, 67, 92
3, 286560, Note_on_c, 0, 72, 92
3, 286656, Note_off_c, 0, 72, 64
3, 286656, Note_off_c, 0, 67, 64
3, 286656, Note_on_c, 0, 67, 92
3, 286656, Note_on_c, 0, 72, 92
3, 286752, Note_off_c, 0, 72, 64
3, 286752, Note_off_c, 0, 67, 64
3, 286944, Note_on_c, 0, 67, 92
3, 286944, Note_on_c, 0, 72, 92
3, 287040, Note_off_c, 0, 72, 64
3, 287040, Note_off_c, 0, 67, 64
3, 287040, Note_on_c, 0, 67, 92
3, 287040, Note_on_c, 0, 72, 92
3, 287136, Note_off_c, 0, 72, 64
3, 287136, Note_off_c, 0, 67, 64
3, 287328, Note_on_c, 0, 65, 92
3, 287328, Note_on_c, 0, 69, 92
3, 287424, Note_off_c, 0, 69, 64
3, 287424, Note_off_c, 0, 65, 64
3, 287424, Note_on_c, 0, 65, 92
3, 287424, Note_on_c, 0, 69, 92
3, 287520, Note_off_c, 0, 69, 64
3, 287520, Note_off_c, 0, 65, 64
3, 287712, Note_on_c, 0, 65, 92
3, 287712, Note_on_c, 0, 69, 92
3, 287808, Note_off_c, 0, 69, 64
3, 287808, Note_off_c, 0, 65, 64
3, 287808, Note_on_c, 0, 65, 92
3, 287808, Note_on_c, 0, 69, 92
3, 287904, Note_off_c, 0, 69, 64
3, 287904, Note_off_c, 0, 65, 64
3, 288096, Note_on_c, 0, 65, 92
3, 288096, Note_on_c, 0, 69, 92
3, 288192, Note_off_c, 0, 69, 64
3, 288192, Note_off_c, 0, 65, 64
3, 288192, Note_on_c, 0, 65, 92
3, 288192, Note_on_c, 0, 69, 92
3, 288288, Note_off_c, 0, 69, 64
3, 288288, Note_off_c, 0, 65, 64
3, 288480, Note_on_c, 0, 65, 92
3, 288480, Note_on_c, 0, 71, 92
3, 288576, Note_off_c, 0, 71, 64
3, 288576, Note_off_c, 0, 65, 64
3, 288576, Note_on_c, 0, 65, 92
3, 288576, Note_on_c, 0, 71, 92
3, 288672, Note_off_c, 0, 71, 64
3, 288672, Note_off_c, 0, 65, 64
3, 288864, Note_on_c, 0, 65, 92
3, 288864, Note_on_c, 0, 71, 92
3, 288960, Note_off_c, 0, 71, 64
3, 288960, Note_off_c, 0, 65, 64
3, 288960, Note_on_c, 0, 65, 92
3, 288960, Note_on_c, 0, 71, 92
3, 289056, Note_off_c, 0, 71, 64
3, 289056, Note_off_c, 0, 65, 64
3, 289248, Note_on_c, 0, 65, 92
3, 289248, Note_on_c, 0, 71, 92
3, 289344, Note_off_c, 0, 71, 64
3, 289344, Note_off_c, 0, 65, 64
3, 289344, Note_on_c, 0, 65, 92
3, 289344, Note_on_c, 0, 71, 92
3, 289440, Note_off_c, 0, 71, 64
3, 289440, Note_off_c, 0, 65, 64
3, 289632, Note_on_c, 0, 64, 92
3, 289632, Note_on_c, 0, 68, 92
3, 289728, Note_off_c, 0, 68, 64
3, 289728, Note_off_c, 0, 64, 64
3, 289728, Note_on_c, 0, 64, 92
3, 289728, Note_on_c, 0, 68, 92
3, 289824, Note_off_c, 0, 68, 64
3, 289824, Note_off_c, 0, 64, 64
3, 290016, Note_on_c, 0, 64, 92
3, 290016, Note_on_c, 0, 68, 92
3, 290112, Note_off_c, 0, 68, 64
3, 290112, Note_off_c, 0, 64, 64
3, 290112, Note_on_c, 0, 64, 92
3, 290112, Note_on_c, 0, 68, 92
3, 290208, Note_off_c, 0, 68, 64
3, 290208, Note_off_c, 0, 64, 64
3, 290400, Note_on_c, 0, 64, 92
3, 290400, Note_on_c, 0, 68, 92
3, 290496, Note_off_c, 0, 68, 64
3, 290496, Note_off_c, 0, 64, 64
3, 290496, Note_on_c, 0, 64, 92
3, 290496, Note_on_c, 0, 68, 92
3, 290592, Note_off_c, 0, 68, 64
3, 290592, Note_off_c, 0, 64, 64
3, 290880, Note_on_c, 0, 60, 92
3, 291072, Note_off_c, 0, 60, 64
3, 291072, Note_on_c, 0, 59, 92
3, 291264, Note_off_c, 0, 59, 64
3, 291264, Note_on_c, 0, 57, 92
3, 291456, Note_off_c, 0, 57, 64
3, 291456, Note_on_c, 0, 55, 92
3, 291648, Note_off_c, 0, 55, 64
3, 291648, Note_on_c, 0, 53, 92
3, 291840, Note_off_c, 0, 53, 64
3, 291840, Note_on_c, 0, 52, 92
3, 292032, Note_off_c, 0, 52, 64
3, 292032, Note_on_c, 0, 57, 92
3, 292224, Note_off_c, 0, 57, 64
3, 292224, Note_on_c, 0, 55, 92
3, 292320, Note_off_c, 0, 55, 64
3, 292320, Note_on_c, 0, 57, 92
3, 292416, Note_off_c, 0, 57, 64
3, 292416, Note_on_c, 0, 53, 92
3, 292512, Note_off_c, 0, 53, 64
3, 292512, Note_on_c, 0, 55, 92
3, 292608, Note_off_c, 0, 55, 64
3, 292608, Note_on_c, 0, 52, 92
3, 292704, Note_off_c, 0, 52, 64
3, 292704, Note_on_c, 0, 53, 92
3, 292800, Note_off_c, 0, 53, 64
3, 292800, Note_on_c, 0, 50, 92
3, 292896, Note_off_c, 0, 50, 64
3, 292896, Note_on_c, 0, 52, 92
3, 292992, Note_off_c, 0, 52, 64
3, 292992, Note_on_c, 0, 48, 92
3, 293184, Note_off_c, 0, 48, 64
3, 293184, Note_on_c, 0, 57, 92
3, 293376, Note_off_c, 0, 57, 64
3, 293376, Note_on_c, 0, 55, 92
3, 293568, Note_off_c, 0, 55, 64
3, 293568, Note_on_c, 0, 53, 92
3, 293760, Note_off_c, 0, 53, 64
3, 293760, Note_on_c, 0, 52, 92
3, 293952, Note_off_c, 0, 52, 64
3, 293952, Note_on_c, 0, 50, 92
3, 294144, Note_off_c, 0, 50, 64
3, 294144, Note_on_c, 0, 48, 92
3, 294336, Note_off_c, 0, 48, 64
3, 294336, Note_on_c, 0, 53, 92
3, 294528, Note_off_c, 0, 53, 64
3, 294528, Note_on_c, 0, 52, 92
3, 294624, Note_off_c, 0, 52, 64
3, 294624, Note_on_c, 0, 53, 92
3, 294720, Note_off_c, 0, 53, 64
3, 294720, Note_on_c, 0, 50, 92
3, 294816, Note_off_c, 0, 50, 64
3, 294816, Note_on_c, 0, 52, 92
3, 294912, Note_off_c, 0, 52, 64
3, 294912, Note_on_c, 0, 48, 92
3, 295008, Note_off_c, 0, 48, 64
3, 295008, Note_on_c, 0, 50, 92
3, 295104, Note_off_c, 0, 50, 64
3, 295104, Note_on_c, 0, 47, 92
3, 295200, Note_off_c, 0, 47, 64
3, 295200, Note_on_c, 0, 48, 92
3, 295296, Note_off_c, 0, 48, 64
3, 295296, Note_on_c, 0, 45, 92
3, 295392, Note_off_c, 0, 45, 64
3, 295392, Note_on_c, 0, 84, 92
3, 295488, Note_off_c, 0, 84, 64
3, 295488, Note_on_c, 0, 81, 92
3, 295584, Note_off_c, 0, 81, 64
3, 295584, Note_on_c, 0, 84, 92
3, 295680, Note_off_c, 0, 84, 64
3, 295680, Note_on_c, 0, 81, 92
3, 295776, Note_off_c, 0, 81, 64
3, 295776, Note_on_c, 0, 84, 92
3, 295872, Note_off_c, 0, 84, 64
3, 295872, Note_on_c, 0, 81, 92
3, 295968, Note_off_c, 0, 81, 64
3, 295968, Note_on_c, 0, 84, 92
3, 296064, Note_off_c, 0, 84, 64
3, 296064, Note_on_c, 0, 81, 92
3, 296160, Note_off_c, 0, 81, 64
3, 296160, Note_on_c, 0, 84, 92
3, 296256, Note_off_c, 0, 84, 64
3, 296256, Note_on_c, 0, 81, 92
3, 296352, Note_off_c, 0, 81, 64
3, 296352, Note_on_c, 0, 84, 92
3, 296448, Note_off_c, 0, 84, 64
3, 296448, Note_on_c, 0, 81, 92
3, 296544, Note_off_c, 0, 81, 64
3, 296544, Note_on_c, 0, 84, 92
3, 296640, Note_off_c, 0, 84, 64
3, 296640, Note_on_c, 0, 81, 92
3, 296736, Note_off_c, 0, 81, 64
3, 296736, Note_on_c, 0, 84, 92
3, 296832, Note_off_c, 0, 84, 64
3, 296832, Note_on_c, 0, 81, 92
3, 296928, Note_off_c, 0, 81, 64
3, 296928, Note_on_c, 0, 84, 92
3, 297024, Note_off_c, 0, 84, 64
3, 297024, Note_on_c, 0, 81, 92
3, 297120, Note_off_c, 0, 81, 64
3, 297120, Note_on_c, 0, 84, 92
3, 297216, Note_off_c, 0, 84, 64
3, 297216, Note_on_c, 0, 81, 92
3, 297312, Note_off_c, 0, 81, 64
3, 297312, Note_on_c, 0, 84, 92
3, 297408, Note_off_c, 0, 84, 64
3, 297408, Note_on_c, 0, 81, 92
3, 297504, Note_off_c, 0, 81, 64
3, 297504, Note_on_c, 0, 84, 92
3, 297600, Note_off_c, 0, 84, 64
3, 297600, Note_on_c, 0, 80, 92
3, 297696, Note_off_c, 0, 80, 64
3, 297696, Note_on_c, 0, 83, 92
3, 297792, Note_off_c, 0, 83, 64
3, 297792, Note_on_c, 0, 80, 92
3, 297888, Note_off_c, 0, 80, 64
3, 297888, Note_on_c, 0, 83, 92
3, 297984, Note_off_c, 0, 83, 64
3, 297984, Note_on_c, 0, 80, 92
3, 298080, Note_off_c, 0, 80, 64
3, 298080, Note_on_c, 0, 83, 92
3, 298176, Note_off_c, 0, 83, 64
3, 298176, Note_on_c, 0, 80, 92
3, 298272, Note_off_c, 0, 80, 64
3, 298272, Note_on_c, 0, 83, 92
3, 298368, Note_off_c, 0, 83, 64
3, 298368, Note_on_c, 0, 80, 92
3, 298464, Note_off_c, 0, 80, 64
3, 298464, Note_on_c, 0, 83, 92
3, 298560, Note_off_c, 0, 83, 64
3, 298560, Note_on_c, 0, 80, 92
3, 298656, Note_off_c, 0, 80, 64
3, 298656, Note_on_c, 0, 83, 92
3, 298752, Note_off_c, 0, 83, 64
3, 298752, Note_on_c, 0, 76, 92
3, 298848, Note_off_c, 0, 76, 64
3, 298848, Note_on_c, 0, 83, 92
3, 298944, Note_off_c, 0, 83, 64
3, 298944, Note_on_c, 0, 76, 92
3, 299040, Note_off_c, 0, 76, 64
3, 299040, Note_on_c, 0, 83, 92
3, 299136, Note_off_c, 0, 83, 64
3, 299136, Note_on_c, 0, 76, 92
3, 299232, Note_off_c, 0, 76, 64
3, 299232, Note_on_c, 0, 83, 92
3, 299328, Note_off_c, 0, 83, 64
3, 299328, Note_on_c, 0, 76, 92
3, 299424, Note_off_c, 0, 76, 64
3, 299424, Note_on_c, 0, 83, 92
3, 299520, Note_off_c, 0, 83, 64
3, 299520, Note_on_c, 0, 76, 92
3, 299616, Note_off_c, 0, 76, 64
3, 299616, Note_on_c, 0, 83, 92
3, 299712, Note_off_c, 0, 83, 64
3, 299712, Note_on_c, 0, 76, 92
3, 299808, Note_off_c, 0, 76, 64
3, 299808, Note_on_c, 0, 83, 92
3, 299904, Note_off_c, 0, 83, 64
3, 299904, Note_on_c, 0, 74, 92
3, 300000, Note_off_c, 0, 74, 64
3, 300000, Note_on_c, 0, 83, 92
3, 300096, Note_off_c, 0, 83, 64
3, 300096, Note_on_c, 0, 74, 92
3, 300192, Note_off_c, 0, 74, 64
3, 300192, Note_on_c, 0, 83, 92
3, 300288, Note_off_c, 0, 83, 64
3, 300288, Note_on_c, 0, 74, 92
3, 300384, Note_off_c, 0, 74, 64
3, 300384, Note_on_c, 0, 83, 92
3, 300480, Note_off_c, 0, 83, 64
3, 300480, Note_on_c, 0, 74, 92
3, 300576, Note_off_c, 0, 74, 64
3, 300576, Note_on_c, 0, 83, 92
3, 300672, Note_off_c, 0, 83, 64
3, 300672, Note_on_c, 0, 74, 92
3, 300768, Note_off_c, 0, 74, 64
3, 300768, Note_on_c, 0, 83, 92
3, 300864, Note_off_c, 0, 83, 64
3, 300864, Note_on_c, 0, 74, 92
3, 300960, Note_off_c, 0, 74, 64
3, 300960, Note_on_c, 0, 83, 92
3, 301056, Note_off_c, 0, 83, 64
3, 301056, Note_on_c, 0, 74, 92
3, 301152, Note_off_c, 0, 74, 64
3, 301152, Note_on_c, 0, 76, 92
3, 301248, Note_off_c, 0, 76, 64
3, 301248, Note_on_c, 0, 74, 92
3, 301344, Note_off_c, 0, 74, 64
3, 301344, Note_on_c, 0, 76, 92
3, 301440, Note_off_c, 0, 76, 64
3, 301440, Note_on_c, 0, 74, 92
3, 301536, Note_off_c, 0, 74, 64
3, 301536, Note_on_c, 0, 76, 92
3, 301632, Note_off_c, 0, 76, 64
3, 301632, Note_on_c, 0, 74, 92
3, 301728, Note_off_c, 0, 74, 64
3, 301728, Note_on_c, 0, 76, 92
3, 301824, Note_off_c, 0, 76, 64
3, 301824, Note_on_c, 0, 74, 92
3, 301920, Note_off_c, 0, 74, 64
3, 301920, Note_on_c, 0, 76, 92
3, 302016, Note_off_c, 0, 76, 64
3, 302016, Note_on_c, 0, 74, 92
3, 302112, Note_off_c, 0, 74, 64
3, 302112, Note_on_c, 0, 76, 92
3, 302208, Note_off_c, 0, 76, 64
3, 302208, Note_on_c, 0, 72, 92
3, 302304, Note_off_c, 0, 72, 64
3, 302304, Note_on_c, 0, 76, 92
3, 302400, Note_off_c, 0, 76, 64
3, 302400, Note_on_c, 0, 72, 92
3, 302496, Note_off_c, 0, 72, 64
3, 302496, Note_on_c, 0, 76, 92
3, 302592, Note_off_c, 0, 76, 64
3, 302592, Note_on_c, 0, 72, 92
3, 302688, Note_off_c, 0, 72, 64
3, 302688, Note_on_c, 0, 76, 92
3, 302784, Note_off_c, 0, 76, 64
3, 302784, Note_on_c, 0, 72, 92
3, 302880, Note_off_c, 0, 72, 64
3, 302880, Note_on_c, 0, 76, 92
3, 302976, Note_off_c, 0, 76, 64
3, 302976, Note_on_c, 0, 72, 92
3, 303072, Note_off_c, 0, 72, 64
3, 303072, Note_on_c, 0, 76, 92
3, 303168, Note_off_c, 0, 76, 64
3, 303168, Note_on_c, 0, 72, 92
3, 303264, Note_off_c, 0, 72, 64
3, 303264, Note_on_c, 0, 76, 92
3, 303360, Note_off_c, 0, 76, 64
3, 303360, Note_on_c, 0, 72, 92
3, 303456, Note_off_c, 0, 72, 64
3, 303456, Note_on_c, 0, 81, 92
3, 303552, Note_off_c, 0, 81, 64
3, 303552, Note_on_c, 0, 72, 92
3, 303648, Note_off_c, 0, 72, 64
3, 303648, Note_on_c, 0, 81, 92
3, 303744, Note_off_c, 0, 81, 64
3, 303744, Note_on_c, 0, 72, 92
3, 303840, Note_off_c, 0, 72, 64
3, 303840, Note_on_c, 0, 81, 92
3, 303936, Note_off_c, 0, 81, 64
3, 303936, Note_on_c, 0, 72, 92
3, 304032, Note_off_c, 0, 72, 64
3, 304032, Note_on_c, 0, 81, 92
3, 304128, Note_off_c, 0, 81, 64
3, 304128, Note_on_c, 0, 72, 92
3, 304224, Note_off_c, 0, 72, 64
3, 304224, Note_on_c, 0, 81, 92
3, 304320, Note_off_c, 0, 81, 64
3, 304320, Note_on_c, 0, 72, 92
3, 304416, Note_off_c, 0, 72, 64
3, 304416, Note_on_c, 0, 81, 92
3, 304512, Note_off_c, 0, 81, 64
3, 304512, Note_on_c, 0, 71, 92
3, 304608, Note_off_c, 0, 71, 64
3, 304608, Note_on_c, 0, 81, 92
3, 304704, Note_off_c, 0, 81, 64
3, 304704, Note_on_c, 0, 71, 92
3, 304800, Note_off_c, 0, 71, 64
3, 304800, Note_on_c, 0, 81, 92
3, 304896, Note_off_c, 0, 81, 64
3, 304896, Note_on_c, 0, 71, 92
3, 304992, Note_off_c, 0, 71, 64
3, 304992, Note_on_c, 0, 81, 92
3, 305088, Note_off_c, 0, 81, 64
3, 305088, Note_on_c, 0, 71, 92
3, 305184, Note_off_c, 0, 71, 64
3, 305184, Note_on_c, 0, 81, 92
3, 305280, Note_off_c, 0, 81, 64
3, 305280, Note_on_c, 0, 71, 92
3, 305376, Note_off_c, 0, 71, 64
3, 305376, Note_on_c, 0, 81, 92
3, 305472, Note_off_c, 0, 81, 64
3, 305472, Note_on_c, 0, 71, 92
3, 305568, Note_off_c, 0, 71, 64
3, 305568, Note_on_c, 0, 81, 92
3, 305664, Note_off_c, 0, 81, 64
3, 305664, Note_on_c, 0, 71, 92
3, 305760, Note_off_c, 0, 71, 64
3, 305760, Note_on_c, 0, 79, 92
3, 305856, Note_off_c, 0, 79, 64
3, 305856, Note_on_c, 0, 71, 92
3, 305952, Note_off_c, 0, 71, 64
3, 305952, Note_on_c, 0, 79, 92
3, 306048, Note_off_c, 0, 79, 64
3, 306048, Note_on_c, 0, 71, 92
3, 306144, Note_off_c, 0, 71, 64
3, 306144, Note_on_c, 0, 79, 92
3, 306240, Note_off_c, 0, 79, 64
3, 306240, Note_on_c, 0, 71, 92
3, 306336, Note_off_c, 0, 71, 64
3, 306336, Note_on_c, 0, 79, 92
3, 306432, Note_off_c, 0, 79, 64
3, 306432, Note_on_c, 0, 71, 92
3, 306528, Note_off_c, 0, 71, 64
3, 306528, Note_on_c, 0, 79, 92
3, 306624, Note_off_c, 0, 79, 64
3, 306624, Note_on_c, 0, 71, 92
3, 306720, Note_off_c, 0, 71, 64
3, 306720, Note_on_c, 0, 79, 92
3, 306816, Note_off_c, 0, 79, 64
3, 306816, Note_on_c, 0, 73, 92
3, 306912, Note_off_c, 0, 73, 64
3, 306912, Note_on_c, 0, 79, 92
3, 307008, Note_off_c, 0, 79, 64
3, 307008, Note_on_c, 0, 73, 92
3, 307104, Note_off_c, 0, 73, 64
3, 307104, Note_on_c, 0, 79, 92
3, 307200, Note_off_c, 0, 79, 64
3, 307200, Note_on_c, 0, 73, 92
3, 307296, Note_off_c, 0, 73, 64
3, 307296, Note_on_c, 0, 79, 92
3, 307392, Note_off_c, 0, 79, 64
3, 307392, Note_on_c, 0, 73, 92
3, 307488, Note_off_c, 0, 73, 64
3, 307488, Note_on_c, 0, 79, 92
3, 307584, Note_off_c, 0, 79, 64
3, 307584, Note_on_c, 0, 73, 92
3, 307680, Note_off_c, 0, 73, 64
3, 307680, Note_on_c, 0, 79, 92
3, 307776, Note_off_c, 0, 79, 64
3, 307776, Note_on_c, 0, 73, 92
3, 307872, Note_off_c, 0, 73, 64
3, 307872, Note_on_c, 0, 79, 92
3, 307968, Note_off_c, 0, 79, 64
3, 307968, Note_on_c, 0, 69, 92
3, 308064, Note_off_c, 0, 69, 64
3, 308064, Note_on_c, 0, 79, 92
3, 308160, Note_off_c, 0, 79, 64
3, 308160, Note_on_c, 0, 69, 92
3, 308256, Note_off_c, 0, 69, 64
3, 308256, Note_on_c, 0, 79, 92
3, 308352, Note_off_c, 0, 79, 64
3, 308352, Note_on_c, 0, 69, 92
3, 308448, Note_off_c, 0, 69, 64
3, 308448, Note_on_c, 0, 79, 92
3, 308544, Note_off_c, 0, 79, 64
3, 308544, Note_on_c, 0, 69, 92
3, 308640, Note_off_c, 0, 69, 64
3, 308640, Note_on_c, 0, 79, 92
3, 308736, Note_off_c, 0, 79, 64
3, 308736, Note_on_c, 0, 69, 92
3, 308832, Note_off_c, 0, 69, 64
3, 308832, Note_on_c, 0, 79, 92
3, 308928, Note_off_c, 0, 79, 64
3, 308928, Note_on_c, 0, 69, 92
3, 309024, Note_off_c, 0, 69, 64
3, 309024, Note_on_c, 0, 79, 92
3, 309120, Note_off_c, 0, 79, 64
3, 309120, Note_on_c, 0, 74, 92
3, 309216, Note_off_c, 0, 74, 64
3, 309216, Note_on_c, 0, 77, 92
3, 309312, Note_off_c, 0, 77, 64
3, 309312, Note_on_c, 0, 74, 92
3, 309408, Note_off_c, 0, 74, 64
3, 309408, Note_on_c, 0, 77, 92
3, 309504, Note_off_c, 0, 77, 64
3, 309504, Note_on_c, 0, 74, 92
3, 309600, Note_off_c, 0, 74, 64
3, 309600, Note_on_c, 0, 77, 92
3, 309696, Note_off_c, 0, 77, 64
3, 309696, Note_on_c, 0, 74, 92
3, 309792, Note_off_c, 0, 74, 64
3, 309792, Note_on_c, 0, 77, 92
3, 309888, Note_off_c, 0, 77, 64
3, 309888, Note_on_c, 0, 74, 92
3, 309984, Note_off_c, 0, 74, 64
3, 309984, Note_on_c, 0, 77, 92
3, 310080, Note_off_c, 0, 77, 64
3, 310080, Note_on_c, 0, 74, 92
3, 310176, Note_off_c, 0, 74, 64
3, 310176, Note_on_c, 0, 77, 92
3, 310272, Note_off_c, 0, 77, 64
3, 310272, Note_on_c, 0, 74, 92
3, 310368, Note_off_c, 0, 74, 64
3, 310368, Note_on_c, 0, 76, 92
3, 310464, Note_off_c, 0, 76, 64
3, 310464, Note_on_c, 0, 74, 92
3, 310560, Note_off_c, 0, 74, 64
3, 310560, Note_on_c, 0, 76, 92
3, 310656, Note_off_c, 0, 76, 64
3, 310656, Note_on_c, 0, 74, 92
3, 310752, Note_off_c, 0, 74, 64
3, 310752, Note_on_c, 0, 76, 92
3, 310848, Note_off_c, 0, 76, 64
3, 310848, Note_on_c, 0, 74, 92
3, 310944, Note_off_c, 0, 74, 64
3, 310944, Note_on_c, 0, 76, 92
3, 311040, Note_off_c, 0, 76, 64
3, 311040, Note_on_c, 0, 74, 92
3, 311136, Note_off_c, 0, 74, 64
3, 311136, Note_on_c, 0, 76, 92
3, 311232, Note_off_c, 0, 76, 64
3, 311232, Note_on_c, 0, 74, 92
3, 311328, Note_off_c, 0, 74, 64
3, 311328, Note_on_c, 0, 76, 92
3, 311424, Note_off_c, 0, 76, 64
3, 311424, Note_on_c, 0, 72, 92
3, 311520, Note_off_c, 0, 72, 64
3, 311520, Note_on_c, 0, 76, 92
3, 311616, Note_off_c, 0, 76, 64
3, 311616, Note_on_c, 0, 72, 92
3, 311712, Note_off_c, 0, 72, 64
3, 311712, Note_on_c, 0, 76, 92
3, 311808, Note_off_c, 0, 76, 64
3, 311808, Note_on_c, 0, 72, 92
3, 311904, Note_off_c, 0, 72, 64
3, 311904, Note_on_c, 0, 76, 92
3, 312000, Note_off_c, 0, 76, 64
3, 312000, Note_on_c, 0, 72, 92
3, 312096, Note_off_c, 0, 72, 64
3, 312096, Note_on_c, 0, 76, 92
3, 312192, Note_off_c, 0, 76, 64
3, 312192, Note_on_c, 0, 72, 92
3, 312288, Note_off_c, 0, 72, 64
3, 312288, Note_on_c, 0, 76, 92
3, 312384, Note_off_c, 0, 76, 64
3, 312384, Note_on_c, 0, 72, 92
3, 312480, Note_off_c, 0, 72, 64
3, 312480, Note_on_c, 0, 76, 92
3, 312576, Note_off_c, 0, 76, 64
3, 312576, Note_on_c, 0, 72, 92
3, 312672, Note_off_c, 0, 72, 64
3, 312672, Note_on_c, 0, 81, 92
3, 312768, Note_off_c, 0, 81, 64
3, 312768, Note_on_c, 0, 72, 92
3, 312864, Note_off_c, 0, 72, 64
3, 312864, Note_on_c, 0, 81, 92
3, 312960, Note_off_c, 0, 81, 64
3, 312960, Note_on_c, 0, 72, 92
3, 313056, Note_off_c, 0, 72, 64
3, 313056, Note_on_c, 0, 81, 92
3, 313152, Note_off_c, 0, 81, 64
3, 313152, Note_on_c, 0, 72, 92
3, 313248, Note_off_c, 0, 72, 64
3, 313248, Note_on_c, 0, 81, 92
3, 313344, Note_off_c, 0, 81, 64
3, 313344, Note_on_c, 0, 72, 92
3, 313440, Note_off_c, 0, 72, 64
3, 313440, Note_on_c, 0, 81, 92
3, 313536, Note_off_c, 0, 81, 64
3, 313536, Note_on_c, 0, 72, 92
3, 313632, Note_off_c, 0, 72, 64
3, 313632, Note_on_c, 0, 81, 92
3, 313728, Note_off_c, 0, 81, 64
3, 313728, Note_on_c, 0, 72, 92
3, 313824, Note_off_c, 0, 72, 64
3, 313824, Note_on_c, 0, 78, 92
3, 313920, Note_off_c, 0, 78, 64
3, 313920, Note_on_c, 0, 72, 92
3, 314016, Note_off_c, 0, 72, 64
3, 314016, Note_on_c, 0, 78, 92
3, 314112, Note_off_c, 0, 78, 64
3, 314112, Note_on_c, 0, 72, 92
3, 314208, Note_off_c, 0, 72, 64
3, 314208, Note_on_c, 0, 78, 92
3, 314304, Note_off_c, 0, 78, 64
3, 314304, Note_on_c, 0, 72, 92
3, 314400, Note_off_c, 0, 72, 64
3, 314400, Note_on_c, 0, 78, 92
3, 314496, Note_off_c, 0, 78, 64
3, 314496, Note_on_c, 0, 72, 92
3, 314592, Note_off_c, 0, 72, 64
3, 314592, Note_on_c, 0, 78, 92
3, 314688, Note_off_c, 0, 78, 64
3, 314688, Note_on_c, 0, 72, 92
3, 314784, Note_off_c, 0, 72, 64
3, 314784, Note_on_c, 0, 78, 92
3, 314880, Note_off_c, 0, 78, 64
3, 314880, Note_on_c, 0, 72, 92
3, 314976, Note_off_c, 0, 72, 64
3, 314976, Note_on_c, 0, 81, 92
3, 315072, Note_off_c, 0, 81, 64
3, 315072, Note_on_c, 0, 72, 92
3, 315168, Note_off_c, 0, 72, 64
3, 315168, Note_on_c, 0, 81, 92
3, 315264, Note_off_c, 0, 81, 64
3, 315264, Note_on_c, 0, 72, 92
3, 315360, Note_off_c, 0, 72, 64
3, 315360, Note_on_c, 0, 81, 92
3, 315456, Note_off_c, 0, 81, 64
3, 315456, Note_on_c, 0, 72, 92
3, 315552, Note_off_c, 0, 72, 64
3, 315552, Note_on_c, 0, 81, 92
3, 315648, Note_off_c, 0, 81, 64
3, 315648, Note_on_c, 0, 72, 92
3, 315744, Note_off_c, 0, 72, 64
3, 315744, Note_on_c, 0, 81, 92
3, 315840, Note_off_c, 0, 81, 64
3, 315840, Note_on_c, 0, 72, 92
3, 315936, Note_off_c, 0, 72, 64
3, 315936, Note_on_c, 0, 81, 92
3, 316032, Note_off_c, 0, 81, 64
3, 316032, Note_on_c, 0, 70, 92
3, 316128, Note_off_c, 0, 70, 64
3, 316128, Note_on_c, 0, 81, 92
3, 316224, Note_off_c, 0, 81, 64
3, 316224, Note_on_c, 0, 70, 92
3, 316320, Note_off_c, 0, 70, 64
3, 316320, Note_on_c, 0, 81, 92
3, 316416, Note_off_c, 0, 81, 64
3, 316416, Note_on_c, 0, 70, 92
3, 316512, Note_off_c, 0, 70, 64
3, 316512, Note_on_c, 0, 81, 92
3, 316608, Note_off_c, 0, 81, 64
3, 316608, Note_on_c, 0, 70, 92
3, 316704, Note_off_c, 0, 70, 64
3, 316704, Note_on_c, 0, 81, 92
3, 316800, Note_off_c, 0, 81, 64
3, 316800, Note_on_c, 0, 70, 92
3, 316896, Note_off_c, 0, 70, 64
3, 316896, Note_on_c, 0, 81, 92
3, 316992, Note_off_c, 0, 81, 64
3, 316992, Note_on_c, 0, 70, 92
3, 317088, Note_off_c, 0, 70, 64
3, 317088, Note_on_c, 0, 81, 92
3, 317184, Note_off_c, 0, 81, 64
3, 317184, Note_on_c, 0, 70, 92
3, 317280, Note_off_c, 0, 70, 64
3, 317280, Note_on_c, 0, 79, 92
3, 317376, Note_off_c, 0, 79, 64
3, 317376, Note_on_c, 0, 70, 92
3, 317472, Note_off_c, 0, 70, 64
3, 317472, Note_on_c, 0, 79, 92
3, 317568, Note_off_c, 0, 79, 64
3, 317568, Note_on_c, 0, 70, 92
3, 317664, Note_off_c, 0, 70, 64
3, 317664, Note_on_c, 0, 79, 92
3, 317760, Note_off_c, 0, 79, 64
3, 317760, Note_on_c, 0, 70, 92
3, 317856, Note_off_c, 0, 70, 64
3, 317856, Note_on_c, 0, 79, 92
3, 317952, Note_off_c, 0, 79, 64
3, 317952, Note_on_c, 0, 70, 92
3, 318048, Note_off_c, 0, 70, 64
3, 318048, Note_on_c, 0, 79, 92
3, 318144, Note_off_c, 0, 79, 64
3, 318144, Note_on_c, 0, 70, 92
3, 318240, Note_off_c, 0, 70, 64
3, 318240, Note_on_c, 0, 79, 92
3, 318336, Note_off_c, 0, 79, 64
3, 318336, Note_on_c, 0, 69, 92
3, 318432, Note_off_c, 0, 69, 64
3, 318432, Note_on_c, 0, 84, 92
3, 318528, Note_off_c, 0, 84, 64
3, 318528, Note_on_c, 0, 82, 92
3, 318624, Note_off_c, 0, 82, 64
3, 318624, Note_on_c, 0, 84, 92
3, 318720, Note_off_c, 0, 84, 64
3, 318720, Note_on_c, 0, 81, 92
3, 318816, Note_off_c, 0, 81, 64
3, 318816, Note_on_c, 0, 84, 92
3, 318912, Note_off_c, 0, 84, 64
3, 318912, Note_on_c, 0, 79, 92
3, 319008, Note_off_c, 0, 79, 64
3, 319008, Note_on_c, 0, 84, 92
3, 319104, Note_off_c, 0, 84, 64
3, 319104, Note_on_c, 0, 78, 92
3, 319200, Note_off_c, 0, 78, 64
3, 319200, Note_on_c, 0, 84, 92
3, 319296, Note_off_c, 0, 84, 64
3, 319296, Note_on_c, 0, 76, 92
3, 319392, Note_off_c, 0, 76, 64
3, 319392, Note_on_c, 0, 84, 92
3, 319488, Note_off_c, 0, 84, 64
3, 319488, Note_on_c, 0, 78, 92
3, 319584, Note_off_c, 0, 78, 64
3, 319584, Note_on_c, 0, 84, 92
3, 319680, Note_off_c, 0, 84, 64
3, 319680, Note_on_c, 0, 78, 92
3, 319776, Note_off_c, 0, 78, 64
3, 319776, Note_on_c, 0, 84, 92
3, 319872, Note_off_c, 0, 84, 64
3, 319872, Note_on_c, 0, 78, 92
3, 319968, Note_off_c, 0, 78, 64
3, 319968, Note_on_c, 0, 84, 92
3, 320064, Note_off_c, 0, 84, 64
3, 320064, Note_on_c, 0, 78, 92
3, 320160, Note_off_c, 0, 78, 64
3, 320160, Note_on_c, 0, 84, 92
3, 320256, Note_off_c, 0, 84, 64
3, 320256, Note_on_c, 0, 78, 92
3, 320352, Note_off_c, 0, 78, 64
3, 320352, Note_on_c, 0, 84, 92
3, 320448, Note_off_c, 0, 84, 64
3, 320448, Note_on_c, 0, 78, 92
3, 320544, Note_off_c, 0, 78, 64
3, 320544, Note_on_c, 0, 84, 92
3, 320640, Note_off_c, 0, 84, 64
3, 320640, Note_on_c, 0, 79, 92
3, 320736, Note_off_c, 0, 79, 64
3, 320736, Note_on_c, 0, 84, 92
3, 320832, Note_off_c, 0, 84, 64
3, 320832, Note_on_c, 0, 79, 92
3, 320928, Note_off_c, 0, 79, 64
3, 320928, Note_on_c, 0, 84, 92
3, 321024, Note_off_c, 0, 84, 64
3, 321024, Note_on_c, 0, 79, 92
3, 321120, Note_off_c, 0, 79, 64
3, 321120, Note_on_c, 0, 84, 92
3, 321216, Note_off_c, 0, 84, 64
3, 321216, Note_on_c, 0, 79, 92
3, 321312, Note_off_c, 0, 79, 64
3, 321312, Note_on_c, 0, 84, 92
3, 321408, Note_off_c, 0, 84, 64
3, 321408, Note_on_c, 0, 79, 92
3, 321504, Note_off_c, 0, 79, 64
3, 321504, Note_on_c, 0, 84, 92
3, 321600, Note_off_c, 0, 84, 64
3, 321600, Note_on_c, 0, 79, 92
3, 321696, Note_off_c, 0, 79, 64
3, 321696, Note_on_c, 0, 84, 92
3, 321792, Note_off_c, 0, 84, 64
3, 321792, Note_on_c, 0, 79, 92
3, 321888, Note_off_c, 0, 79, 64
3, 321888, Note_on_c, 0, 83, 92
3, 321984, Note_off_c, 0, 83, 64
3, 321984, Note_on_c, 0, 79, 92
3, 322080, Note_off_c, 0, 79, 64
3, 322080, Note_on_c, 0, 83, 92
3, 322176, Note_off_c, 0, 83, 64
3, 322176, Note_on_c, 0, 79, 92
3, 322272, Note_off_c, 0, 79, 64
3, 322272, Note_on_c, 0, 83, 92
3, 322368, Note_off_c, 0, 83, 64
3, 322368, Note_on_c, 0, 79, 92
3, 322464, Note_off_c, 0, 79, 64
3, 322464, Note_on_c, 0, 83, 92
3, 322560, Note_off_c, 0, 83, 64
3, 322560, Note_on_c, 0, 79, 92
3, 322656, Note_off_c, 0, 79, 64
3, 322656, Note_on_c, 0, 83, 92
3, 322752, Note_off_c, 0, 83, 64
3, 322752, Note_on_c, 0, 79, 92
3, 322848, Note_off_c, 0, 79, 64
3, 322848, Note_on_c, 0, 83, 92
3, 322944, Note_off_c, 0, 83, 64
3, 322944, Note_on_c, 0, 77, 92
3, 323040, Note_off_c, 0, 77, 64
3, 323040, Note_on_c, 0, 83, 92
3, 323136, Note_off_c, 0, 83, 64
3, 323136, Note_on_c, 0, 77, 92
3, 323232, Note_off_c, 0, 77, 64
3, 323232, Note_on_c, 0, 83, 92
3, 323328, Note_off_c, 0, 83, 64
3, 323328, Note_on_c, 0, 77, 92
3, 323424, Note_off_c, 0, 77, 64
3, 323424, Note_on_c, 0, 83, 92
3, 323520, Note_off_c, 0, 83, 64
3, 323520, Note_on_c, 0, 77, 92
3, 323616, Note_off_c, 0, 77, 64
3, 323616, Note_on_c, 0, 83, 92
3, 323712, Note_off_c, 0, 83, 64
3, 323712, Note_on_c, 0, 77, 92
3, 323808, Note_off_c, 0, 77, 64
3, 323808, Note_on_c, 0, 83, 92
3, 323904, Note_off_c, 0, 83, 64
3, 323904, Note_on_c, 0, 77, 92
3, 324000, Note_off_c, 0, 77, 64
3, 324000, Note_on_c, 0, 83, 92
3, 324096, Note_off_c, 0, 83, 64
3, 324096, Note_on_c, 0, 76, 92
3, 324192, Note_off_c, 0, 76, 64
3, 324192, Note_on_c, 0, 84, 92
3, 324288, Note_off_c, 0, 84, 64
3, 324288, Note_on_c, 0, 76, 92
3, 324384, Note_off_c, 0, 76, 64
3, 324384, Note_on_c, 0, 84, 92
3, 324480, Note_off_c, 0, 84, 64
3, 324480, Note_on_c, 0, 76, 92
3, 324576, Note_off_c, 0, 76, 64
3, 324576, Note_on_c, 0, 84, 92
3, 324672, Note_off_c, 0, 84, 64
3, 324672, Note_on_c, 0, 76, 92
3, 324768, Note_off_c, 0, 76, 64
3, 324768, Note_on_c, 0, 84, 92
3, 324864, Note_off_c, 0, 84, 64
3, 324864, Note_on_c, 0, 76, 92
3, 324960, Note_off_c, 0, 76, 64
3, 324960, Note_on_c, 0, 84, 92
3, 325056, Note_off_c, 0, 84, 64
3, 325056, Note_on_c, 0, 76, 92
3, 325152, Note_off_c, 0, 76, 64
3, 325152, Note_on_c, 0, 84, 92
3, 325248, Note_off_c, 0, 84, 64
3, 325248, Note_on_c, 0, 74, 92
3, 325344, Note_off_c, 0, 74, 64
3, 325344, Note_on_c, 0, 84, 92
3, 325440, Note_off_c, 0, 84, 64
3, 325440, Note_on_c, 0, 74, 92
3, 325536, Note_off_c, 0, 74, 64
3, 325536, Note_on_c, 0, 84, 92
3, 325632, Note_off_c, 0, 84, 64
3, 325632, Note_on_c, 0, 74, 92
3, 325728, Note_off_c, 0, 74, 64
3, 325728, Note_on_c, 0, 84, 92
3, 325824, Note_off_c, 0, 84, 64
3, 325824, Note_on_c, 0, 74, 92
3, 325920, Note_off_c, 0, 74, 64
3, 325920, Note_on_c, 0, 84, 92
3, 326016, Note_off_c, 0, 84, 64
3, 326016, Note_on_c, 0, 74, 92
3, 326112, Note_off_c, 0, 74, 64
3, 326112, Note_on_c, 0, 84, 92
3, 326208, Note_off_c, 0, 84, 64
3, 326208, Note_on_c, 0, 74, 92
3, 326304, Note_off_c, 0, 74, 64
3, 326304, Note_on_c, 0, 84, 92
3, 326400, Note_off_c, 0, 84, 64
3, 326400, Note_on_c, 0, 74, 92
3, 326496, Note_off_c, 0, 74, 64
3, 326496, Note_on_c, 0, 83, 92
3, 326592, Note_off_c, 0, 83, 64
3, 326592, Note_on_c, 0, 74, 92
3, 326688, Note_off_c, 0, 74, 64
3, 326688, Note_on_c, 0, 83, 92
3, 326784, Note_off_c, 0, 83, 64
3, 326784, Note_on_c, 0, 74, 92
3, 326880, Note_off_c, 0, 74, 64
3, 326880, Note_on_c, 0, 83, 92
3, 326976, Note_off_c, 0, 83, 64
3, 326976, Note_on_c, 0, 74, 92
3, 327072, Note_off_c, 0, 74, 64
3, 327072, Note_on_c, 0, 83, 92
3, 327168, Note_off_c, 0, 83, 64
3, 327168, Note_on_c, 0, 74, 92
3, 327264, Note_off_c, 0, 74, 64
3, 327264, Note_on_c, 0, 83, 92
3, 327360, Note_off_c, 0, 83, 64
3, 327360, Note_on_c, 0, 74, 92
3, 327456, Note_off_c, 0, 74, 64
3, 327456, Note_on_c, 0, 83, 92
3, 327552, Note_off_c, 0, 83, 64
3, 327552, Note_on_c, 0, 72, 92
3, 327744, Note_off_c, 0, 72, 64
3, 327744, Note_on_c, 0, 60, 92
3, 327936, Note_off_c, 0, 60, 64
3, 327936, Note_on_c, 0, 59, 92
3, 328128, Note_off_c, 0, 59, 64
3, 328128, Note_on_c, 0, 57, 92
3, 328320, Note_off_c, 0, 57, 64
3, 328320, Note_on_c, 0, 55, 92
3, 328512, Note_off_c, 0, 55, 64
3, 328512, Note_on_c, 0, 53, 92
3, 328704, Note_off_c, 0, 53, 64
3, 328704, Note_on_c, 0, 52, 92
3, 328896, Note_off_c, 0, 52, 64
3, 328896, Note_on_c, 0, 57, 92
3, 329088, Note_off_c, 0, 57, 64
3, 329088, Note_on_c, 0, 55, 92
3, 329184, Note_off_c, 0, 55, 64
3, 329184, Note_on_c, 0, 57, 92
3, 329280, Note_off_c, 0, 57, 64
3, 329280, Note_on_c, 0, 53, 92
3, 329376, Note_off_c, 0, 53, 64
3, 329376, Note_on_c, 0, 55, 92
3, 329472, Note_off_c, 0, 55, 64
3, 329472, Note_on_c, 0, 52, 92
3, 329568, Note_off_c, 0, 52, 64
3, 329568, Note_on_c, 0, 53, 92
3, 329664, Note_off_c, 0, 53, 64
3, 329664, Note_on_c, 0, 50, 92
3, 329760, Note_off_c, 0, 50, 64
3, 329760, Note_on_c, 0, 52, 92
3, 329856, Note_off_c, 0, 52, 64
3, 329856, Note_on_c, 0, 52, 92
3, 330048, Note_off_c, 0, 52, 64
3, 330048, Note_on_c, 0, 57, 92
3, 330240, Note_off_c, 0, 57, 64
3, 330240, Note_on_c, 0, 55, 92
3, 330432, Note_off_c, 0, 55, 64
3, 330432, Note_on_c, 0, 53, 92
3, 330624, Note_off_c, 0, 53, 64
3, 330624, Note_on_c, 0, 52, 92
3, 330816, Note_off_c, 0, 52, 64
3, 330816, Note_on_c, 0, 50, 92
3, 331008, Note_off_c, 0, 50, 64
3, 331008, Note_on_c, 0, 48, 92
3, 331200, Note_off_c, 0, 48, 64
3, 331200, Note_on_c, 0, 53, 92
3, 331392, Note_off_c, 0, 53, 64
3, 331392, Note_on_c, 0, 52, 92
3, 331488, Note_off_c, 0, 52, 64
3, 331488, Note_on_c, 0, 53, 92
3, 331584, Note_off_c, 0, 53, 64
3, 331584, Note_on_c, 0, 50, 92
3, 331680, Note_off_c, 0, 50, 64
3, 331680, Note_on_c, 0, 52, 92
3, 331776, Note_off_c, 0, 52, 64
3, 331776, Note_on_c, 0, 48, 92
3, 331872, Note_off_c, 0, 48, 64
3, 331872, Note_on_c, 0, 50, 92
3, 331968, Note_off_c, 0, 50, 64
3, 331968, Note_on_c, 0, 59, 92
3, 331968, Note_on_c, 0, 47, 92
3, 332064, Note_off_c, 0, 47, 64
3, 332064, Note_on_c, 0, 48, 92
3, 332160, Note_off_c, 0, 48, 64
3, 332160, Note_off_c, 0, 59, 64
3, 332160, Note_on_c, 0, 57, 92
3, 332160, Note_on_c, 0, 45, 92
3, 332544, Note_off_c, 0, 45, 64
3, 332544, Note_off_c, 0, 57, 64
3, 332640, Note_on_c, 0, 69, 92
3, 332640, Note_on_c, 0, 72, 92
3, 332736, Note_off_c, 0, 72, 64
3, 332736, Note_off_c, 0, 69, 64
3, 332736, Note_on_c, 0, 69, 92
3, 332736, Note_on_c, 0, 72, 92
3, 332832, Note_off_c, 0, 72, 64
3, 332832, Note_off_c, 0, 69, 64
3, 333024, Note_on_c, 0, 69, 92
3, 333024, Note_on_c, 0, 72, 92
3, 333120, Note_off_c, 0, 72, 64
3, 333120, Note_off_c, 0, 69, 64
3, 333120, Note_on_c, 0, 69, 92
3, 333120, Note_on_c, 0, 72, 92
3, 333216, Note_off_c, 0, 72, 64
3, 333216, Note_off_c, 0, 69, 64
3, 333408, Note_on_c, 0, 69, 92
3, 333408, Note_on_c, 0, 74, 92
3, 333504, Note_off_c, 0, 74, 64
3, 333504, Note_off_c, 0, 69, 64
3, 333504, Note_on_c, 0, 69, 92
3, 333504, Note_on_c, 0, 74, 92
3, 333600, Note_off_c, 0, 74, 64
3, 333600, Note_off_c, 0, 69, 64
3, 333792, Note_on_c, 0, 69, 92
3, 333792, Note_on_c, 0, 74, 92
3, 333888, Note_off_c, 0, 74, 64
3, 333888, Note_off_c, 0, 69, 64
3, 333888, Note_on_c, 0, 69, 92
3, 333888, Note_on_c, 0, 74, 92
3, 333984, Note_off_c, 0, 74, 64
3, 333984, Note_off_c, 0, 69, 64
3, 334176, Note_on_c, 0, 69, 92
3, 334176, Note_on_c, 0, 74, 92
3, 334272, Note_off_c, 0, 74, 64
3, 334272, Note_off_c, 0, 69, 64
3, 334272, Note_on_c, 0, 69, 92
3, 334272, Note_on_c, 0, 74, 92
3, 334368, Note_off_c, 0, 74, 64
3, 334368, Note_off_c, 0, 69, 64
3, 334560, Note_on_c, 0, 67, 92
3, 334560, Note_on_c, 0, 71, 92
3, 334656, Note_off_c, 0, 71, 64
3, 334656, Note_off_c, 0, 67, 64
3, 334656, Note_on_c, 0, 67, 92
3, 334656, Note_on_c, 0, 71, 92
3, 334752, Note_off_c, 0, 71, 64
3, 334752, Note_off_c, 0, 67, 64
3, 334944, Note_on_c, 0, 67, 92
3, 334944, Note_on_c, 0, 71, 92
3, 335040, Note_off_c, 0, 71, 64
3, 335040, Note_off_c, 0, 67, 64
3, 335040, Note_on_c, 0, 67, 92
3, 335040, Note_on_c, 0, 71, 92
3, 335136, Note_off_c, 0, 71, 64
3, 335136, Note_off_c, 0, 67, 64
3, 335328, Note_on_c, 0, 67, 92
3, 335328, Note_on_c, 0, 71, 92
3, 335424, Note_off_c, 0, 71, 64
3, 335424, Note_off_c, 0, 67, 64
3, 335424, Note_on_c, 0, 67, 92
3, 335424, Note_on_c, 0, 71, 92
3, 335520, Note_off_c, 0, 71, 64
3, 335520, Note_off_c, 0, 67, 64
3, 335712, Note_on_c, 0, 67, 92
3, 335712, Note_on_c, 0, 72, 92
3, 335808, Note_off_c, 0, 72, 64
3, 335808, Note_off_c, 0, 67, 64
3, 335808, Note_on_c, 0, 67, 92
3, 335808, Note_on_c, 0, 72, 92
3, 335904, Note_off_c, 0, 72, 64
3, 335904, Note_off_c, 0, 67, 64
3, 336096, Note_on_c, 0, 67, 92
3, 336096, Note_on_c, 0, 72, 92
3, 336192, Note_off_c, 0, 72, 64
3, 336192, Note_off_c, 0, 67, 64
3, 336192, Note_on_c, 0, 67, 92
3, 336192, Note_on_c, 0, 72, 92
3, 336288, Note_off_c, 0, 72, 64
3, 336288, Note_off_c, 0, 67, 64
3, 336480, Note_on_c, 0, 67, 92
3, 336480, Note_on_c, 0, 72, 92
3, 336576, Note_off_c, 0, 72, 64
3, 336576, Note_off_c, 0, 67, 64
3, 336576, Note_on_c, 0, 67, 92
3, 336576, Note_on_c, 0, 72, 92
3, 336672, Note_off_c, 0, 72, 64
3, 336672, Note_off_c, 0, 67, 64
3, 336864, Note_on_c, 0, 65, 92
3, 336864, Note_on_c, 0, 69, 92
3, 336960, Note_off_c, 0, 69, 64
3, 336960, Note_off_c, 0, 65, 64
3, 336960, Note_on_c, 0, 65, 92
3, 336960, Note_on_c, 0, 69, 92
3, 337056, Note_off_c, 0, 69, 64
3, 337056, Note_off_c, 0, 65, 64
3, 337248, Note_on_c, 0, 65, 92
3, 337248, Note_on_c, 0, 69, 92
3, 337344, Note_off_c, 0, 69, 64
3, 337344, Note_off_c, 0, 65, 64
3, 337344, Note_on_c, 0, 65, 92
3, 337344, Note_on_c, 0, 69, 92
3, 337440, Note_off_c, 0, 69, 64
3, 337440, Note_off_c, 0, 65, 64
3, 337632, Note_on_c, 0, 65, 92
3, 337632, Note_on_c, 0, 69, 92
3, 337728, Note_off_c, 0, 69, 64
3, 337728, Note_off_c, 0, 65, 64
3, 337728, Note_on_c, 0, 65, 92
3, 337728, Note_on_c, 0, 69, 92
3, 337824, Note_off_c, 0, 69, 64
3, 337824, Note_off_c, 0, 65, 64
3, 338016, Note_on_c, 0, 65, 92
3, 338016, Note_on_c, 0, 71, 92
3, 338112, Note_off_c, 0, 71, 64
3, 338112, Note_off_c, 0, 65, 64
3, 338112, Note_on_c, 0, 65, 92
3, 338112, Note_on_c, 0, 71, 92
3, 338208, Note_off_c, 0, 71, 64
3, 338208, Note_off_c, 0, 65, 64
3, 338400, Note_on_c, 0, 65, 92
3, 338400, Note_on_c, 0, 71, 92
3, 338496, Note_off_c, 0, 71, 64
3, 338496, Note_off_c, 0, 65, 64
3, 338496, Note_on_c, 0, 65, 92
3, 338496, Note_on_c, 0, 71, 92
3, 338592, Note_off_c, 0, 71, 64
3, 338592, Note_off_c, 0, 65, 64
3, 338784, Note_on_c, 0, 65, 92
3, 338784, Note_on_c, 0, 71, 92
3, 338880, Note_off_c, 0, 71, 64
3, 338880, Note_off_c, 0, 65, 64
3, 338880, Note_on_c, 0, 65, 92
3, 338880, Note_on_c, 0, 71, 92
3, 338976, Note_off_c, 0, 71, 64
3, 338976, Note_off_c, 0, 65, 64
3, 339168, Note_on_c, 0, 64, 92
3, 339168, Note_on_c, 0, 68, 92
3, 339264, Note_off_c, 0, 68, 64
3, 339264, Note_off_c, 0, 64, 64
3, 339264, Note_on_c, 0, 64, 92
3, 339264, Note_on_c, 0, 68, 92
3, 339360, Note_off_c, 0, 68, 64
3, 339360, Note_off_c, 0, 64, 64
3, 339552, Note_on_c, 0, 64, 92
3, 339552, Note_on_c, 0, 68, 92
3, 339648, Note_off_c, 0, 68, 64
3, 339648, Note_off_c, 0, 64, 64
3, 339648, Note_on_c, 0, 64, 92
3, 339648, Note_on_c, 0, 68, 92
3, 339744, Note_off_c, 0, 68, 64
3, 339744, Note_off_c, 0, 64, 64
3, 339936, Note_on_c, 0, 64, 92
3, 339936, Note_on_c, 0, 68, 92
3, 340032, Note_off_c, 0, 68, 64
3, 340032, Note_off_c, 0, 64, 64
3, 340032, Note_on_c, 0, 64, 92
3, 340032, Note_on_c, 0, 68, 92
3, 340128, Note_off_c, 0, 68, 64
3, 340128, Note_off_c, 0, 64, 64
3, 340512, Note_on_c, 0, 68, 92
3, 340608, Note_off_c, 0, 68, 64
3, 340608, Note_on_c, 0, 69, 92
3, 340896, Note_off_c, 0, 69, 64
3, 340896, Note_on_c, 0, 71, 92
3, 340992, Note_off_c, 0, 71, 64
3, 340992, Note_on_c, 0, 72, 92
3, 341280, Note_off_c, 0, 72, 64
3, 341280, Note_on_c, 0, 74, 92
3, 341376, Note_off_c, 0, 74, 64
3, 341376, Note_on_c, 0, 72, 92
3, 341952, Note_off_c, 0, 72, 64
3, 341952, Note_on_c, 0, 71, 92
3, 342144, Note_off_c, 0, 71, 64
3, 342144, Note_on_c, 0, 69, 92
3, 342336, Note_off_c, 0, 69, 64
3, 342336, Note_on_c, 0, 68, 92
3, 342528, Note_off_c, 0, 68, 64
3, 342528, Note_on_c, 0, 69, 92
3, 342720, Note_off_c, 0, 69, 64
3, 342720, Note_on_c, 0, 71, 92
3, 342912, Note_off_c, 0, 71, 64
3, 342912, Note_on_c, 0, 68, 92
3, 343488, Note_off_c, 0, 68, 64
3, 343488, Note_on_c, 0, 69, 92
3, 343680, Note_off_c, 0, 69, 64
3, 343776, Note_on_c, 0, 69, 92
3, 343872, Note_off_c, 0, 69, 64
3, 343872, Note_on_c, 0, 68, 92
3, 343968, Note_off_c, 0, 68, 64
3, 343968, Note_on_c, 0, 69, 92
3, 344064, Note_off_c, 0, 69, 64
3, 344064, Note_on_c, 0, 72, 92
3, 344160, Note_off_c, 0, 72, 64
3, 344160, Note_on_c, 0, 69, 92
3, 344256, Note_off_c, 0, 69, 64
3, 344256, Note_on_c, 0, 68, 92
3, 344352, Note_off_c, 0, 68, 64
3, 344352, Note_on_c, 0, 69, 92
3, 344448, Note_off_c, 0, 69, 64
3, 344448, Note_on_c, 0, 64, 92
3, 344544, Note_off_c, 0, 64, 64
3, 344544, Note_on_c, 0, 71, 92
3, 344640, Note_off_c, 0, 71, 64
3, 344640, Note_on_c, 0, 69, 92
3, 344736, Note_off_c, 0, 69, 64
3, 344736, Note_on_c, 0, 71, 92
3, 344832, Note_off_c, 0, 71, 64
3, 344832, Note_on_c, 0, 64, 92
3, 344928, Note_off_c, 0, 64, 64
3, 344928, Note_on_c, 0, 69, 92
3, 345024, Note_off_c, 0, 69, 64
3, 345024, Note_on_c, 0, 68, 92
3, 345120, Note_off_c, 0, 68, 64
3, 345120, Note_on_c, 0, 69, 92
3, 345216, Note_off_c, 0, 69, 64
3, 345216, Note_on_c, 0, 72, 92
3, 345312, Note_off_c, 0, 72, 64
3, 345312, Note_on_c, 0, 69, 92
3, 345408, Note_off_c, 0, 69, 64
3, 345408, Note_on_c, 0, 68, 92
3, 345504, Note_off_c, 0, 68, 64
3, 345504, Note_on_c, 0, 69, 92
3, 345600, Note_off_c, 0, 69, 64
3, 345600, Note_on_c, 0, 64, 92
3, 345696, Note_off_c, 0, 64, 64
3, 345696, Note_on_c, 0, 71, 92
3, 345792, Note_off_c, 0, 71, 64
3, 345792, Note_on_c, 0, 69, 92
3, 345888, Note_off_c, 0, 69, 64
3, 345888, Note_on_c, 0, 71, 92
3, 345984, Note_off_c, 0, 71, 64
3, 345984, Note_on_c, 0, 64, 92
3, 346176, Note_off_c, 0, 64, 64
3, 346176, Note_on_c, 0, 64, 92
3, 346368, Note_off_c, 0, 64, 64
3, 346368, Note_on_c, 0, 69, 92
3, 346560, Note_off_c, 0, 69, 64
3, 346560, Note_on_c, 0, 67, 92
3, 346656, Note_off_c, 0, 67, 64
3, 346656, Note_on_c, 0, 65, 92
3, 346752, Note_off_c, 0, 65, 64
3, 346752, Note_on_c, 0, 64, 92
3, 346848, Note_off_c, 0, 64, 64
3, 346848, Note_on_c, 0, 62, 92
3, 346944, Note_off_c, 0, 62, 64
3, 346944, Note_on_c, 0, 60, 92
3, 347040, Note_off_c, 0, 60, 64
3, 347040, Note_on_c, 0, 59, 92
3, 347136, Note_off_c, 0, 59, 64
3, 347136, Note_on_c, 0, 57, 92
3, 347328, Note_off_c, 0, 57, 64
3, 347328, Note_on_c, 0, 52, 92
3, 347520, Note_off_c, 0, 52, 64
3, 347520, Note_on_c, 0, 57, 92
3, 347712, Note_off_c, 0, 57, 64
3, 347712, Note_on_c, 0, 55, 92
3, 347808, Note_off_c, 0, 55, 64
3, 347808, Note_on_c, 0, 53, 92
3, 347904, Note_off_c, 0, 53, 64
3, 347904, Note_on_c, 0, 52, 92
3, 348000, Note_off_c, 0, 52, 64
3, 348000, Note_on_c, 0, 50, 92
3, 348096, Note_off_c, 0, 50, 64
3, 348096, Note_on_c, 0, 48, 92
3, 348192, Note_off_c, 0, 48, 64
3, 348192, Note_on_c, 0, 47, 92
3, 348288, Note_off_c, 0, 47, 64
3, 348288, Note_on_c, 0, 45, 92
3, 348480, Note_off_c, 0, 45, 64
3, 348768, Note_on_c, 0, 72, 92
3, 348864, Note_off_c, 0, 72, 64
3, 348864, Note_on_c, 0, 71, 92
3, 348960, Note_off_c, 0, 71, 64
3, 348960, Note_on_c, 0, 72, 92
3, 349056, Note_off_c, 0, 72, 64
3, 349056, Note_on_c, 0, 69, 92
3, 349152, Note_off_c, 0, 69, 64
3, 349152, Note_on_c, 0, 72, 92
3, 349248, Note_off_c, 0, 72, 64
3, 349248, Note_on_c, 0, 71, 92
3, 349344, Note_off_c, 0, 71, 64
3, 349344, Note_on_c, 0, 72, 92
3, 349440, Note_off_c, 0, 72, 64
3, 349440, Note_on_c, 0, 68, 92
3, 349536, Note_off_c, 0, 68, 64
3, 349536, Note_on_c, 0, 71, 92
3, 349632, Note_off_c, 0, 71, 64
3, 349632, Note_on_c, 0, 69, 92
3, 349728, Note_off_c, 0, 69, 64
3, 349728, Note_on_c, 0, 71, 92
3, 349824, Note_off_c, 0, 71, 64
3, 349824, Note_on_c, 0, 76, 92
3, 349920, Note_off_c, 0, 76, 64
3, 349920, Note_on_c, 0, 71, 92
3, 350016, Note_off_c, 0, 71, 64
3, 350016, Note_on_c, 0, 69, 92
3, 350112, Note_off_c, 0, 69, 64
3, 350112, Note_on_c, 0, 71, 92
3, 350208, Note_off_c, 0, 71, 64
3, 350208, Note_on_c, 0, 68, 92
3, 350304, Note_off_c, 0, 68, 64
3, 350304, Note_on_c, 0, 71, 92
3, 350400, Note_off_c, 0, 71, 64
3, 350400, Note_on_c, 0, 69, 92
3, 350496, Note_off_c, 0, 69, 64
3, 350496, Note_on_c, 0, 71, 92
3, 350592, Note_off_c, 0, 71, 64
3, 350592, Note_on_c, 0, 69, 92
3, 350688, Note_off_c, 0, 69, 64
3, 350688, Note_on_c, 0, 72, 92
3, 350784, Note_off_c, 0, 72, 64
3, 350784, Note_on_c, 0, 71, 92
3, 350880, Note_off_c, 0, 71, 64
3, 350880, Note_on_c, 0, 72, 92
3, 350976, Note_off_c, 0, 72, 64
3, 350976, Note_on_c, 0, 76, 92
3, 351072, Note_off_c, 0, 76, 64
3, 351072, Note_on_c, 0, 72, 92
3, 351168, Note_off_c, 0, 72, 64
3, 351168, Note_on_c, 0, 71, 92
3, 351264, Note_off_c, 0, 71, 64
3, 351264, Note_on_c, 0, 72, 92
3, 351360, Note_off_c, 0, 72, 64
3, 351360, Note_on_c, 0, 69, 92
3, 351456, Note_off_c, 0, 69, 64
3, 351456, Note_on_c, 0, 76, 92
3, 351552, Note_off_c, 0, 76, 64
3, 351552, Note_on_c, 0, 74, 92
3, 351648, Note_off_c, 0, 74, 64
3, 351648, Note_on_c, 0, 76, 92
3, 351744, Note_off_c, 0, 76, 64
3, 351744, Note_on_c, 0, 73, 92
3, 351840, Note_off_c, 0, 73, 64
3, 351840, Note_on_c, 0, 76, 92
3, 351936, Note_off_c, 0, 76, 64
3, 351936, Note_on_c, 0, 74, 92
3, 352032, Note_off_c, 0, 74, 64
3, 352032, Note_on_c, 0, 76, 92
3, 352128, Note_off_c, 0, 76, 64
3, 352128, Note_on_c, 0, 79, 92
3, 352224, Note_off_c, 0, 79, 64
3, 352224, Note_on_c, 0, 76, 92
3, 352320, Note_off_c, 0, 76, 64
3, 352320, Note_on_c, 0, 74, 92
3, 352416, Note_off_c, 0, 74, 64
3, 352416, Note_on_c, 0, 76, 92
3, 352512, Note_off_c, 0, 76, 64
3, 352512, Note_on_c, 0, 73, 92
3, 352608, Note_off_c, 0, 73, 64
3, 352608, Note_on_c, 0, 76, 92
3, 352704, Note_off_c, 0, 76, 64
3, 352704, Note_on_c, 0, 74, 92
3, 352800, Note_off_c, 0, 74, 64
3, 352800, Note_on_c, 0, 76, 92
3, 352896, Note_off_c, 0, 76, 64
3, 352896, Note_on_c, 0, 74, 92
3, 352992, Note_off_c, 0, 74, 64
3, 352992, Note_on_c, 0, 77, 92
3, 353088, Note_off_c, 0, 77, 64
3, 353088, Note_on_c, 0, 76, 92
3, 353184, Note_off_c, 0, 76, 64
3, 353184, Note_on_c, 0, 77, 92
3, 353280, Note_off_c, 0, 77, 64
3, 353280, Note_on_c, 0, 81, 92
3, 353376, Note_off_c, 0, 81, 64
3, 353376, Note_on_c, 0, 77, 92
3, 353472, Note_off_c, 0, 77, 64
3, 353472, Note_on_c, 0, 76, 92
3, 353568, Note_off_c, 0, 76, 64
3, 353568, Note_on_c, 0, 77, 92
3, 353664, Note_off_c, 0, 77, 64
3, 353664, Note_on_c, 0, 74, 92
3, 353760, Note_off_c, 0, 74, 64
3, 353760, Note_on_c, 0, 77, 92
3, 353856, Note_off_c, 0, 77, 64
3, 353856, Note_on_c, 0, 76, 92
3, 353952, Note_off_c, 0, 76, 64
3, 353952, Note_on_c, 0, 77, 92
3, 354048, Note_off_c, 0, 77, 64
3, 354048, Note_on_c, 0, 74, 92
3, 354144, Note_off_c, 0, 74, 64
3, 354144, Note_on_c, 0, 77, 92
3, 354240, Note_off_c, 0, 77, 64
3, 354240, Note_on_c, 0, 76, 92
3, 354336, Note_off_c, 0, 76, 64
3, 354336, Note_on_c, 0, 77, 92
3, 354432, Note_off_c, 0, 77, 64
3, 354432, Note_on_c, 0, 82, 92
3, 354528, Note_off_c, 0, 82, 64
3, 354528, Note_on_c, 0, 77, 92
3, 354624, Note_off_c, 0, 77, 64
3, 354624, Note_on_c, 0, 76, 92
3, 354720, Note_off_c, 0, 76, 64
3, 354720, Note_on_c, 0, 77, 92
3, 354816, Note_off_c, 0, 77, 64
3, 354816, Note_on_c, 0, 74, 92
3, 354912, Note_off_c, 0, 74, 64
3, 354912, Note_on_c, 0, 77, 92
3, 355008, Note_off_c, 0, 77, 64
3, 355008, Note_on_c, 0, 76, 92
3, 355104, Note_off_c, 0, 76, 64
3, 355104, Note_on_c, 0, 77, 92
3, 355200, Note_off_c, 0, 77, 64
3, 355200, Note_on_c, 0, 71, 92
3, 355296, Note_off_c, 0, 71, 64
3, 355296, Note_on_c, 0, 74, 92
3, 355392, Note_off_c, 0, 74, 64
3, 355392, Note_on_c, 0, 72, 92
3, 355488, Note_off_c, 0, 72, 64
3, 355488, Note_on_c, 0, 74, 92
3, 355584, Note_off_c, 0, 74, 64
3, 355584, Note_on_c, 0, 80, 92
3, 355680, Note_off_c, 0, 80, 64
3, 355680, Note_on_c, 0, 74, 92
3, 355776, Note_off_c, 0, 74, 64
3, 355776, Note_on_c, 0, 72, 92
3, 355872, Note_off_c, 0, 72, 64
3, 355872, Note_on_c, 0, 74, 92
3, 355968, Note_off_c, 0, 74, 64
3, 355968, Note_on_c, 0, 71, 92
3, 356064, Note_off_c, 0, 71, 64
3, 356064, Note_on_c, 0, 74, 92
3, 356160, Note_off_c, 0, 74, 64
3, 356160, Note_on_c, 0, 72, 92
3, 356256, Note_off_c, 0, 72, 64
3, 356256, Note_on_c, 0, 74, 92
3, 356352, Note_off_c, 0, 74, 64
3, 356352, Note_on_c, 0, 72, 92
3, 356448, Note_off_c, 0, 72, 64
3, 356448, Note_on_c, 0, 76, 92
3, 356544, Note_off_c, 0, 76, 64
3, 356544, Note_on_c, 0, 74, 92
3, 356640, Note_off_c, 0, 74, 64
3, 356640, Note_on_c, 0, 76, 92
3, 356736, Note_off_c, 0, 76, 64
3, 356736, Note_on_c, 0, 81, 92
3, 356832, Note_off_c, 0, 81, 64
3, 356832, Note_on_c, 0, 76, 92
3, 356928, Note_off_c, 0, 76, 64
3, 356928, Note_on_c, 0, 74, 92
3, 357024, Note_off_c, 0, 74, 64
3, 357024, Note_on_c, 0, 76, 92
3, 357120, Note_off_c, 0, 76, 64
3, 357120, Note_on_c, 0, 72, 92
3, 357216, Note_off_c, 0, 72, 64
3, 357216, Note_on_c, 0, 76, 92
3, 357312, Note_off_c, 0, 76, 64
3, 357312, Note_on_c, 0, 74, 92
3, 357408, Note_off_c, 0, 74, 64
3, 357408, Note_on_c, 0, 76, 92
3, 357504, Note_off_c, 0, 76, 64
3, 357504, Note_on_c, 0, 71, 92
3, 357600, Note_off_c, 0, 71, 64
3, 357600, Note_on_c, 0, 74, 92
3, 357696, Note_off_c, 0, 74, 64
3, 357696, Note_on_c, 0, 72, 92
3, 357792, Note_off_c, 0, 72, 64
3, 357792, Note_on_c, 0, 74, 92
3, 357888, Note_off_c, 0, 74, 64
3, 357888, Note_on_c, 0, 81, 92
3, 357984, Note_off_c, 0, 81, 64
3, 357984, Note_on_c, 0, 74, 92
3, 358080, Note_off_c, 0, 74, 64
3, 358080, Note_on_c, 0, 72, 92
3, 358176, Note_off_c, 0, 72, 64
3, 358176, Note_on_c, 0, 74, 92
3, 358272, Note_off_c, 0, 74, 64
3, 358272, Note_on_c, 0, 71, 92
3, 358368, Note_off_c, 0, 71, 64
3, 358368, Note_on_c, 0, 74, 92
3, 358464, Note_off_c, 0, 74, 64
3, 358464, Note_on_c, 0, 72, 92
3, 358560, Note_off_c, 0, 72, 64
3, 358560, Note_on_c, 0, 74, 92
3, 358656, Note_off_c, 0, 74, 64
3, 358656, Note_on_c, 0, 71, 92
3, 358752, Note_off_c, 0, 71, 64
3, 358752, Note_on_c, 0, 74, 92
3, 358848, Note_off_c, 0, 74, 64
3, 358848, Note_on_c, 0, 72, 92
3, 358944, Note_off_c, 0, 72, 64
3, 358944, Note_on_c, 0, 74, 92
3, 359040, Note_off_c, 0, 74, 64
3, 359040, Note_on_c, 0, 80, 92
3, 359136, Note_off_c, 0, 80, 64
3, 359136, Note_on_c, 0, 74, 92
3, 359232, Note_off_c, 0, 74, 64
3, 359232, Note_on_c, 0, 72, 92
3, 359328, Note_off_c, 0, 72, 64
3, 359328, Note_on_c, 0, 74, 92
3, 359424, Note_off_c, 0, 74, 64
3, 359424, Note_on_c, 0, 71, 92
3, 359520, Note_off_c, 0, 71, 64
3, 359520, Note_on_c, 0, 74, 92
3, 359616, Note_off_c, 0, 74, 64
3, 359616, Note_on_c, 0, 72, 92
3, 359712, Note_off_c, 0, 72, 64
3, 359712, Note_on_c, 0, 74, 92
3, 359808, Note_off_c, 0, 74, 64
3, 359808, Note_on_c, 0, 72, 92
3, 360000, Note_off_c, 0, 72, 64
3, 360000, Note_on_c, 0, 57, 92
3, 360000, Note_on_c, 0, 60, 92
3, 360192, Note_off_c, 0, 60, 64
3, 360192, Note_off_c, 0, 57, 64
3, 360192, Note_on_c, 0, 55, 92
3, 360192, Note_on_c, 0, 59, 92
3, 360384, Note_off_c, 0, 59, 64
3, 360384, Note_off_c, 0, 55, 64
3, 360384, Note_on_c, 0, 53, 92
3, 360384, Note_on_c, 0, 57, 92
3, 360576, Note_off_c, 0, 57, 64
3, 360576, Note_off_c, 0, 53, 64
3, 360576, Note_on_c, 0, 52, 92
3, 360576, Note_on_c, 0, 55, 92
3, 360768, Note_off_c, 0, 55, 64
3, 360768, Note_off_c, 0, 52, 64
3, 360768, Note_on_c, 0, 50, 92
3, 360768, Note_on_c, 0, 53, 92
3, 360960, Note_off_c, 0, 53, 64
3, 360960, Note_off_c, 0, 50, 64
3, 360960, Note_on_c, 0, 48, 92
3, 360960, Note_on_c, 0, 52, 92
3, 361152, Note_off_c, 0, 52, 64
3, 361152, Note_off_c, 0, 48, 64
3, 361152, Note_on_c, 0, 53, 92
3, 361152, Note_on_c, 0, 57, 92
3, 361344, Note_off_c, 0, 57, 64
3, 361344, Note_off_c, 0, 53, 64
3, 361344, Note_on_c, 0, 52, 92
3, 361344, Note_on_c, 0, 55, 92
3, 361536, Note_off_c, 0, 55, 64
3, 361536, Note_off_c, 0, 52, 64
3, 361536, Note_on_c, 0, 50, 92
3, 361536, Note_on_c, 0, 53, 92
3, 361728, Note_off_c, 0, 53, 64
3, 361728, Note_off_c, 0, 50, 64
3, 361728, Note_on_c, 0, 48, 92
3, 361728, Note_on_c, 0, 52, 92
3, 361920, Note_off_c, 0, 52, 64
3, 361920, Note_off_c, 0, 48, 64
3, 361920, Note_on_c, 0, 47, 92
3, 361920, Note_on_c, 0, 50, 92
3, 362112, Note_off_c, 0, 50, 64
3, 362112, Note_off_c, 0, 47, 64
3, 362112, Note_on_c, 0, 45, 92
3, 362112, Note_on_c, 0, 48, 92
3, 362112, Note_on_c, 0, 52, 92
3, 362496, Note_off_c, 0, 52, 64
3, 362496, Note_off_c, 0, 48, 64
3, 362496, Note_off_c, 0, 45, 64
3, 362496, Note_on_c, 0, 60, 92
3, 362880, Note_off_c, 0, 60, 64
3, 362880, Note_on_c, 0, 60, 92
3, 363264, Note_off_c, 0, 60, 64
3, 363264, Note_on_c, 0, 62, 92
3, 363648, Note_off_c, 0, 62, 64
3, 363648, Note_on_c, 0, 64, 92
3, 364032, Note_off_c, 0, 64, 64
3, 364032, Note_on_c, 0, 64, 92
3, 364416, Note_off_c, 0, 64, 64
3, 364416, Note_on_c, 0, 57, 92
3, 364800, Note_off_c, 0, 57, 64
3, 364800, Note_on_c, 0, 48, 92
3, 365184, Note_off_c, 0, 48, 64
3, 365184, Note_on_c, 0, 48, 92
3, 365568, Note_off_c, 0, 48, 64
3, 365568, Note_on_c, 0, 50, 92
3, 365952, Note_off_c, 0, 50, 64
3, 365952, Note_on_c, 0, 52, 92
3, 366336, Note_off_c, 0, 52, 64
3, 366336, Note_on_c, 0, 52, 92
3, 366720, Note_off_c, 0, 52, 64
3, 366720, Note_on_c, 0, 45, 92
3, 367872, Note_off_c, 0, 45, 64
3, 367872, End_track
4, 0, Start_track
4, 0, Title_t, "Track 3"
4, 0, Note_on_c, 0, 45, 102
4, 384, Note_off_c, 0, 45, 64
4, 384, Note_on_c, 0, 52, 102
4, 768, Note_off_c, 0, 52, 64
4, 768, Note_on_c, 0, 45, 102
4, 1152, Note_off_c, 0, 45, 64
4, 1344, Note_on_c, 0, 57, 102
4, 1536, Note_off_c, 0, 57, 64
4, 1536, Note_on_c, 0, 56, 102
4, 1824, Note_off_c, 0, 56, 64
4, 1824, Note_on_c, 0, 54, 102
4, 1920, Note_off_c, 0, 54, 64
4, 1920, Note_on_c, 0, 52, 102
4, 2112, Note_off_c, 0, 52, 64
4, 2112, Note_on_c, 0, 50, 102
4, 2304, Note_off_c, 0, 50, 64
4, 2304, Note_on_c, 0, 48, 102
4, 2592, Note_off_c, 0, 48, 64
4, 2592, Note_on_c, 0, 47, 102
4, 2688, Note_off_c, 0, 47, 64
4, 2688, Note_on_c, 0, 45, 102
4, 2880, Note_off_c, 0, 45, 64
4, 2880, Note_on_c, 0, 57, 102
4, 3072, Note_off_c, 0, 57, 64
4, 3072, Note_on_c, 0, 56, 102
4, 3360, Note_off_c, 0, 56, 64
4, 3360, Note_on_c, 0, 54, 102
4, 3456, Note_off_c, 0, 54, 64
4, 3456, Note_on_c, 0, 52, 102
4, 3648, Note_off_c, 0, 52, 64
4, 3648, Note_on_c, 0, 50, 102
4, 3840, Note_off_c, 0, 50, 64
4, 3840, Note_on_c, 0, 48, 102
4, 4128, Note_off_c, 0, 48, 64
4, 4128, Note_on_c, 0, 47, 102
4, 4224, Note_off_c, 0, 47, 64
4, 4224, Note_on_c, 0, 45, 102
4, 4416, Note_off_c, 0, 45, 64
4, 4416, Note_on_c, 0, 57, 102
4, 4608, Note_off_c, 0, 57, 64
4, 4608, Note_on_c, 0, 56, 102
4, 4800, Note_off_c, 0, 56, 64
4, 4800, Note_on_c, 0, 52, 102
4, 4992, Note_off_c, 0, 52, 64
4, 4992, Note_on_c, 0, 56, 102
4, 5184, Note_off_c, 0, 56, 64
4, 5184, Note_on_c, 0, 52, 102
4, 5376, Note_off_c, 0, 52, 64
4, 5376, Note_on_c, 0, 57, 102
4, 5568, Note_off_c, 0, 57, 64
4, 5568, Note_on_c, 0, 45, 102
4, 5760, Note_off_c, 0, 45, 64
4, 5760, Note_on_c, 0, 48, 102
4, 5952, Note_off_c, 0, 48, 64
4, 5952, Note_on_c, 0, 45, 102
4, 6144, Note_off_c, 0, 45, 64
4, 6144, Note_on_c, 0, 52, 102
4, 6336, Note_off_c, 0, 52, 64
4, 6336, Note_on_c, 0, 52, 102
4, 6528, Note_off_c, 0, 52, 64
4, 6528, Note_on_c, 0, 56, 102
4, 6720, Note_off_c, 0, 56, 64
4, 6720, Note_on_c, 0, 52, 102
4, 6912, Note_off_c, 0, 52, 64
4, 6912, Note_on_c, 0, 57, 102
4, 7104, Note_off_c, 0, 57, 64
4, 7104, Note_on_c, 0, 45, 102
4, 7296, Note_off_c, 0, 45, 64
4, 7296, Note_on_c, 0, 48, 102
4, 7488, Note_off_c, 0, 48, 64
4, 7488, Note_on_c, 0, 45, 102
4, 7680, Note_off_c, 0, 45, 64
4, 7680, Note_on_c, 0, 50, 102
4, 8064, Note_off_c, 0, 50, 64
4, 8064, Note_on_c, 0, 50, 102
4, 8448, Note_off_c, 0, 50, 64
4, 8448, Note_on_c, 0, 55, 102
4, 8832, Note_off_c, 0, 55, 64
4, 8832, Note_on_c, 0, 43, 102
4, 9216, Note_off_c, 0, 43, 64
4, 9216, Note_on_c, 0, 48, 102
4, 9600, Note_off_c, 0, 48, 64
4, 9600, Note_on_c, 0, 48, 102
4, 9984, Note_off_c, 0, 48, 64
4, 9984, Note_on_c, 0, 53, 102
4, 10368, Note_off_c, 0, 53, 64
4, 10368, Note_on_c, 0, 41, 102
4, 10752, Note_off_c, 0, 41, 64
4, 10752, Note_on_c, 0, 47, 102
4, 11136, Note_off_c, 0, 47, 64
4, 11136, Note_on_c, 0, 47, 102
4, 11520, Note_off_c, 0, 47, 64
4, 11520, Note_on_c, 0, 52, 102
4, 11904, Note_off_c, 0, 52, 64
4, 11904, Note_on_c, 0, 40, 102
4, 12288, Note_off_c, 0, 40, 64
4, 12480, Note_on_c, 0, 45, 102
4, 12672, Note_off_c, 0, 45, 64
4, 12672, Note_on_c, 0, 48, 102
4, 12864, Note_off_c, 0, 48, 64
4, 12864, Note_on_c, 0, 45, 102
4, 13056, Note_off_c, 0, 45, 64
4, 13056, Note_on_c, 0, 52, 102
4, 18048, Note_off_c, 0, 52, 64
4, 18240, Note_on_c, 0, 57, 102
4, 18432, Note_off_c, 0, 57, 64
4, 18432, Note_on_c, 0, 50, 102
4, 18816, Note_off_c, 0, 50, 64
4, 18816, Note_on_c, 0, 52, 102
4, 19200, Note_off_c, 0, 52, 64
4, 19200, Note_on_c, 0, 45, 102
4, 19392, Note_off_c, 0, 45, 64
4, 19392, Note_on_c, 0, 47, 102
4, 19584, Note_off_c, 0, 47, 64
4, 19584, Note_on_c, 0, 48, 102
4, 19776, Note_off_c, 0, 48, 64
4, 19776, Note_on_c, 0, 45, 102
4, 19968, Note_off_c, 0, 45, 64
4, 19968, Note_on_c, 0, 50, 102
4, 20736, Note_off_c, 0, 50, 64
4, 20736, Note_on_c, 0, 49, 102
4, 21504, Note_off_c, 0, 49, 64
4, 21504, Note_on_c, 0, 48, 102
4, 22080, Note_off_c, 0, 48, 64
4, 22080, Note_on_c, 0, 50, 102
4, 22272, Note_off_c, 0, 50, 64
4, 22272, Note_on_c, 0, 52, 102
4, 22464, Note_off_c, 0, 52, 64
4, 22464, Note_on_c, 0, 50, 102
4, 22656, Note_off_c, 0, 50, 64
4, 22656, Note_on_c, 0, 48, 102
4, 22848, Note_off_c, 0, 48, 64
4, 22848, Note_on_c, 0, 45, 102
4, 23040, Note_off_c, 0, 45, 64
4, 23040, Note_on_c, 0, 50, 102
4, 23232, Note_off_c, 0, 50, 64
4, 23232, Note_on_c, 0, 47, 102
4, 23424, Note_off_c, 0, 47, 64
4, 23424, Note_on_c, 0, 52, 102
4, 23616, Note_off_c, 0, 52, 64
4, 23616, Note_on_c, 0, 40, 102
4, 23808, Note_off_c, 0, 40, 64
4, 23808, Note_on_c, 0, 45, 102
4, 24192, Note_off_c, 0, 45, 64
4, 33024, Note_on_c, 0, 45, 102
4, 33216, Note_off_c, 0, 45, 64
4, 33216, Note_on_c, 0, 47, 102
4, 33408, Note_off_c, 0, 47, 64
4, 33408, Note_on_c, 0, 48, 102
4, 33600, Note_off_c, 0, 48, 64
4, 33600, Note_on_c, 0, 45, 102
4, 33792, Note_off_c, 0, 45, 64
4, 33792, Note_on_c, 0, 50, 102
4, 34560, Note_off_c, 0, 50, 64
4, 34560, Note_on_c, 0, 49, 102
4, 35328, Note_off_c, 0, 49, 64
4, 35328, Note_on_c, 0, 48, 102
4, 35904, Note_off_c, 0, 48, 64
4, 35904, Note_on_c, 0, 50, 102
4, 36096, Note_off_c, 0, 50, 64
4, 36096, Note_on_c, 0, 52, 102
4, 36288, Note_off_c, 0, 52, 64
4, 36288, Note_on_c, 0, 50, 102
4, 36480, Note_off_c, 0, 50, 64
4, 36480, Note_on_c, 0, 48, 102
4, 36672, Note_off_c, 0, 48, 64
4, 36672, Note_on_c, 0, 45, 102
4, 36864, Note_off_c, 0, 45, 64
4, 36864, Note_on_c, 0, 50, 102
4, 37056, Note_off_c, 0, 50, 64
4, 37056, Note_on_c, 0, 47, 102
4, 37248, Note_off_c, 0, 47, 64
4, 37248, Note_on_c, 0, 52, 102
4, 37440, Note_off_c, 0, 52, 64
4, 37440, Note_on_c, 0, 40, 102
4, 37632, Note_off_c, 0, 40, 64
4, 37632, Note_on_c, 0, 45, 102
4, 38016, Note_off_c, 0, 45, 64
4, 55296, Note_on_c, 0, 48, 102
4, 55488, Note_off_c, 0, 48, 64
4, 55488, Note_on_c, 0, 50, 102
4, 55680, Note_off_c, 0, 50, 64
4, 55680, Note_on_c, 0, 52, 102
4, 55872, Note_off_c, 0, 52, 64
4, 55872, Note_on_c, 0, 48, 102
4, 56064, Note_off_c, 0, 48, 64
4, 56064, Note_on_c, 0, 53, 102
4, 56256, Note_off_c, 0, 53, 64
4, 56256, Note_on_c, 0, 55, 102
4, 56448, Note_off_c, 0, 55, 64
4, 56448, Note_on_c, 0, 57, 102
4, 56640, Note_off_c, 0, 57, 64
4, 56640, Note_on_c, 0, 53, 102
4, 56832, Note_off_c, 0, 53, 64
4, 56832, Note_on_c, 0, 48, 102
4, 57024, Note_off_c, 0, 48, 64
4, 57024, Note_on_c, 0, 50, 102
4, 57216, Note_off_c, 0, 50, 64
4, 57216, Note_on_c, 0, 52, 102
4, 57408, Note_off_c, 0, 52, 64
4, 57408, Note_on_c, 0, 48, 102
4, 57600, Note_off_c, 0, 48, 64
4, 57600, Note_on_c, 0, 53, 102
4, 57792, Note_off_c, 0, 53, 64
4, 57792, Note_on_c, 0, 55, 102
4, 57984, Note_off_c, 0, 55, 64
4, 57984, Note_on_c, 0, 57, 102
4, 58176, Note_off_c, 0, 57, 64
4, 58176, Note_on_c, 0, 53, 102
4, 58368, Note_off_c, 0, 53, 64
4, 58368, Note_on_c, 0, 48, 102
4, 58560, Note_off_c, 0, 48, 64
4, 58560, Note_on_c, 0, 50, 102
4, 58752, Note_off_c, 0, 50, 64
4, 58752, Note_on_c, 0, 52, 102
4, 58944, Note_off_c, 0, 52, 64
4, 58944, Note_on_c, 0, 48, 102
4, 59136, Note_off_c, 0, 48, 64
4, 59136, Note_on_c, 0, 53, 102
4, 59520, Note_off_c, 0, 53, 64
4, 59904, Note_on_c, 0, 47, 102
4, 60288, Note_off_c, 0, 47, 64
4, 60288, Note_on_c, 0, 59, 102
4, 60672, Note_off_c, 0, 59, 64
4, 60672, Note_on_c, 0, 52, 102
4, 61056, Note_off_c, 0, 52, 64
4, 61440, Note_on_c, 0, 45, 102
4, 61824, Note_off_c, 0, 45, 64
4, 61824, Note_on_c, 0, 57, 102
4, 62208, Note_off_c, 0, 57, 64
4, 62208, Note_on_c, 0, 50, 102
4, 62592, Note_off_c, 0, 50, 64
4, 62976, Note_on_c, 0, 43, 102
4, 63360, Note_off_c, 0, 43, 64
4, 63360, Note_on_c, 0, 55, 102
4, 63744, Note_off_c, 0, 55, 64
4, 63744, Note_on_c, 0, 48, 102
4, 64128, Note_off_c, 0, 48, 64
4, 64512, Note_on_c, 0, 60, 102
4, 64704, Note_off_c, 0, 60, 64
4, 64704, Note_on_c, 0, 48, 102
4, 64896, Note_off_c, 0, 48, 64
4, 65088, Note_on_c, 0, 48, 102
4, 65280, Note_off_c, 0, 48, 64
4, 65280, Note_on_c, 0, 60, 102
4, 65472, Note_off_c, 0, 60, 64
4, 65472, Note_on_c, 0, 48, 102
4, 65664, Note_off_c, 0, 48, 64
4, 65856, Note_on_c, 0, 48, 102
4, 66048, Note_off_c, 0, 48, 64
4, 66048, Note_on_c, 0, 60, 102
4, 66240, Note_off_c, 0, 60, 64
4, 66240, Note_on_c, 0, 48, 102
4, 66432, Note_off_c, 0, 48, 64
4, 66624, Note_on_c, 0, 48, 102
4, 66816, Note_off_c, 0, 48, 64
4, 66816, Note_on_c, 0, 59, 102
4, 67008, Note_off_c, 0, 59, 64
4, 67008, Note_on_c, 0, 47, 102
4, 67200, Note_off_c, 0, 47, 64
4, 67392, Note_on_c, 0, 47, 102
4, 67584, Note_off_c, 0, 47, 64
4, 67584, Note_on_c, 0, 59, 102
4, 67776, Note_off_c, 0, 59, 64
4, 67776, Note_on_c, 0, 47, 102
4, 67968, Note_off_c, 0, 47, 64
4, 68160, Note_on_c, 0, 47, 102
4, 68352, Note_off_c, 0, 47, 64
4, 68352, Note_on_c, 0, 59, 102
4, 68544, Note_off_c, 0, 59, 64
4, 68544, Note_on_c, 0, 47, 102
4, 68736, Note_off_c, 0, 47, 64
4, 68928, Note_on_c, 0, 47, 102
4, 69120, Note_off_c, 0, 47, 64
4, 69120, Note_on_c, 0, 59, 102
4, 69312, Note_off_c, 0, 59, 64
4, 69312, Note_on_c, 0, 47, 102
4, 69504, Note_off_c, 0, 47, 64
4, 69696, Note_on_c, 0, 51, 102
4, 69888, Note_off_c, 0, 51, 64
4, 69888, Note_on_c, 0, 52, 102
4, 70080, Note_off_c, 0, 52, 64
4, 70080, Note_on_c, 0, 57, 102
4, 70272, Note_off_c, 0, 57, 64
4, 70272, Note_on_c, 0, 59, 102
4, 70464, Note_off_c, 0, 59, 64
4, 70464, Note_on_c, 0, 47, 102
4, 70656, Note_off_c, 0, 47, 64
4, 70656, Note_on_c, 0, 52, 102
4, 71040, Note_off_c, 0, 52, 64
4, 71232, Note_on_c, 0, 49, 102
4, 71424, Note_off_c, 0, 49, 64
4, 71424, Note_on_c, 0, 50, 102
4, 71616, Note_off_c, 0, 50, 64
4, 71616, Note_on_c, 0, 55, 102
4, 71808, Note_off_c, 0, 55, 64
4, 71808, Note_on_c, 0, 57, 102
4, 72000, Note_off_c, 0, 57, 64
4, 72000, Note_on_c, 0, 45, 102
4, 72192, Note_off_c, 0, 45, 64
4, 72192, Note_on_c, 0, 50, 102
4, 72576, Note_off_c, 0, 50, 64
4, 83136, Note_on_c, 0, 57, 102
4, 83328, Note_off_c, 0, 57, 64
4, 83328, Note_on_c, 0, 57, 102
4, 83520, Note_off_c, 0, 57, 64
4, 83520, Note_on_c, 0, 57, 102
4, 83712, Note_off_c, 0, 57, 64
4, 83712, Note_on_c, 0, 57, 102
4, 83904, Note_off_c, 0, 57, 64
4, 83904, Note_on_c, 0, 57, 102
4, 84096, Note_off_c, 0, 57, 64
4, 84096, Note_on_c, 0, 57, 102
4, 84288, Note_off_c, 0, 57, 64
4, 84288, Note_on_c, 0, 57, 102
4, 84480, Note_off_c, 0, 57, 64
4, 84480, Note_on_c, 0, 62, 102
4, 84672, Note_off_c, 0, 62, 64
4, 84672, Note_on_c, 0, 62, 102
4, 84864, Note_off_c, 0, 62, 64
4, 84864, Note_on_c, 0, 62, 102
4, 85056, Note_off_c, 0, 62, 64
4, 85056, Note_on_c, 0, 62, 102
4, 85248, Note_off_c, 0, 62, 64
4, 85248, Note_on_c, 0, 62, 102
4, 85440, Note_off_c, 0, 62, 64
4, 85440, Note_on_c, 0, 62, 102
4, 85632, Note_off_c, 0, 62, 64
4, 85632, Note_on_c, 0, 62, 102
4, 85824, Note_off_c, 0, 62, 64
4, 85824, Note_on_c, 0, 62, 102
4, 86016, Note_off_c, 0, 62, 64
4, 86016, Note_on_c, 0, 58, 102
4, 86208, Note_off_c, 0, 58, 64
4, 86208, Note_on_c, 0, 58, 102
4, 86400, Note_off_c, 0, 58, 64
4, 86400, Note_on_c, 0, 58, 102
4, 86592, Note_off_c, 0, 58, 64
4, 86592, Note_on_c, 0, 58, 102
4, 86784, Note_off_c, 0, 58, 64
4, 86784, Note_on_c, 0, 58, 102
4, 86976, Note_off_c, 0, 58, 64
4, 86976, Note_on_c, 0, 58, 102
4, 87168, Note_off_c, 0, 58, 64
4, 87168, Note_on_c, 0, 58, 102
4, 87360, Note_off_c, 0, 58, 64
4, 87360, Note_on_c, 0, 58, 102
4, 87552, Note_off_c, 0, 58, 64
4, 87552, Note_on_c, 0, 60, 102
4, 87744, Note_off_c, 0, 60, 64
4, 87744, Note_on_c, 0, 60, 102
4, 87936, Note_off_c, 0, 60, 64
4, 87936, Note_on_c, 0, 60, 102
4, 88128, Note_off_c, 0, 60, 64
4, 88128, Note_on_c, 0, 60, 102
4, 88320, Note_off_c, 0, 60, 64
4, 88320, Note_on_c, 0, 60, 102
4, 88512, Note_off_c, 0, 60, 64
4, 88512, Note_on_c, 0, 60, 102
4, 88704, Note_off_c, 0, 60, 64
4, 88704, Note_on_c, 0, 60, 102
4, 88896, Note_off_c, 0, 60, 64
4, 88896, Note_on_c, 0, 60, 102
4, 89088, Note_off_c, 0, 60, 64
4, 89088, Note_on_c, 0, 53, 102
4, 89280, Note_off_c, 0, 53, 64
4, 89280, Note_on_c, 0, 53, 102
4, 89472, Note_off_c, 0, 53, 64
4, 89472, Note_on_c, 0, 53, 102
4, 89664, Note_off_c, 0, 53, 64
4, 89664, Note_on_c, 0, 53, 102
4, 89856, Note_off_c, 0, 53, 64
4, 89856, Note_on_c, 0, 53, 102
4, 90048, Note_off_c, 0, 53, 64
4, 90048, Note_on_c, 0, 53, 102
4, 90240, Note_off_c, 0, 53, 64
4, 90240, Note_on_c, 0, 53, 102
4, 90432, Note_off_c, 0, 53, 64
4, 90432, Note_on_c, 0, 53, 102
4, 90624, Note_off_c, 0, 53, 64
4, 90624, Note_on_c, 0, 62, 102
4, 90816, Note_off_c, 0, 62, 64
4, 90816, Note_on_c, 0, 62, 102
4, 91008, Note_off_c, 0, 62, 64
4, 91008, Note_on_c, 0, 62, 102
4, 91200, Note_off_c, 0, 62, 64
4, 91200, Note_on_c, 0, 62, 102
4, 91392, Note_off_c, 0, 62, 64
4, 91392, Note_on_c, 0, 62, 102
4, 91584, Note_off_c, 0, 62, 64
4, 91584, Note_on_c, 0, 62, 102
4, 91776, Note_off_c, 0, 62, 64
4, 91776, Note_on_c, 0, 62, 102
4, 91968, Note_off_c, 0, 62, 64
4, 91968, Note_on_c, 0, 62, 102
4, 92160, Note_off_c, 0, 62, 64
4, 92160, Note_on_c, 0, 55, 102
4, 92352, Note_off_c, 0, 55, 64
4, 92352, Note_on_c, 0, 55, 102
4, 92544, Note_off_c, 0, 55, 64
4, 92544, Note_on_c, 0, 55, 102
4, 92736, Note_off_c, 0, 55, 64
4, 92736, Note_on_c, 0, 55, 102
4, 92928, Note_off_c, 0, 55, 64
4, 92928, Note_on_c, 0, 55, 102
4, 93120, Note_off_c, 0, 55, 64
4, 93120, Note_on_c, 0, 55, 102
4, 93312, Note_off_c, 0, 55, 64
4, 93312, Note_on_c, 0, 55, 102
4, 93504, Note_off_c, 0, 55, 64
4, 93504, Note_on_c, 0, 55, 102
4, 93696, Note_off_c, 0, 55, 64
4, 93696, Note_on_c, 0, 57, 102
4, 93888, Note_off_c, 0, 57, 64
4, 93888, Note_on_c, 0, 45, 102
4, 94080, Note_off_c, 0, 45, 64
4, 94080, Note_on_c, 0, 49, 102
4, 94272, Note_off_c, 0, 49, 64
4, 94272, Note_on_c, 0, 45, 102
4, 94464, Note_off_c, 0, 45, 64
4, 94464, Note_on_c, 0, 52, 102
4, 97920, Note_off_c, 0, 52, 64
4, 98112, Note_on_c, 0, 57, 102
4, 98304, Note_off_c, 0, 57, 64
4, 98304, Note_on_c, 0, 50, 102
4, 98688, Note_off_c, 0, 50, 64
4, 98688, Note_on_c, 0, 52, 102
4, 99072, Note_off_c, 0, 52, 64
4, 99072, Note_on_c, 0, 45, 102
4, 99456, Note_off_c, 0, 45, 64
4, 103680, Note_on_c, 0, 45, 102
4, 104064, Note_off_c, 0, 45, 64
4, 104064, Note_on_c, 0, 52, 102
4, 104448, Note_off_c, 0, 52, 64
4, 104448, Note_on_c, 0, 45, 102
4, 104832, Note_off_c, 0, 45, 64
4, 105024, Note_on_c, 0, 57, 102
4, 105216, Note_off_c, 0, 57, 64
4, 105216, Note_on_c, 0, 56, 102
4, 105504, Note_off_c, 0, 56, 64
4, 105504, Note_on_c, 0, 54, 102
4, 105600, Note_off_c, 0, 54, 64
4, 105600, Note_on_c, 0, 52, 102
4, 105792, Note_off_c, 0, 52, 64
4, 105792, Note_on_c, 0, 50, 102
4, 105984, Note_off_c, 0, 50, 64
4, 105984, Note_on_c, 0, 48, 102
4, 106272, Note_off_c, 0, 48, 64
4, 106272, Note_on_c, 0, 47, 102
4, 106368, Note_off_c, 0, 47, 64
4, 106368, Note_on_c, 0, 45, 102
4, 106560, Note_off_c, 0, 45, 64
4, 106560, Note_on_c, 0, 57, 102
4, 106752, Note_off_c, 0, 57, 64
4, 106752, Note_on_c, 0, 56, 102
4, 107040, Note_off_c, 0, 56, 64
4, 107040, Note_on_c, 0, 54, 102
4, 107136, Note_off_c, 0, 54, 64
4, 107136, Note_on_c, 0, 52, 102
4, 107328, Note_off_c, 0, 52, 64
4, 107328, Note_on_c, 0, 50, 102
4, 107520, Note_off_c, 0, 50, 64
4, 107520, Note_on_c, 0, 48, 102
4, 107808, Note_off_c, 0, 48, 64
4, 107808, Note_on_c, 0, 47, 102
4, 107904, Note_off_c, 0, 47, 64
4, 107904, Note_on_c, 0, 45, 102
4, 108096, Note_off_c, 0, 45, 64
4, 108096, Note_on_c, 0, 57, 102
4, 108288, Note_off_c, 0, 57, 64
4, 108288, Note_on_c, 0, 56, 102
4, 108480, Note_off_c, 0, 56, 64
4, 108480, Note_on_c, 0, 56, 102
4, 108672, Note_off_c, 0, 56, 64
4, 108672, Note_on_c, 0, 56, 102
4, 108864, Note_off_c, 0, 56, 64
4, 108864, Note_on_c, 0, 56, 102
4, 109056, Note_off_c, 0, 56, 64
4, 109056, Note_on_c, 0, 52, 102
4, 109248, Note_off_c, 0, 52, 64
4, 109248, Note_on_c, 0, 52, 102
4, 109440, Note_off_c, 0, 52, 64
4, 109440, Note_on_c, 0, 52, 102
4, 109632, Note_off_c, 0, 52, 64
4, 109632, Note_on_c, 0, 52, 102
4, 109824, Note_off_c, 0, 52, 64
4, 109824, Note_on_c, 0, 57, 102
4, 110016, Note_off_c, 0, 57, 64
4, 110016, Note_on_c, 0, 57, 102
4, 110208, Note_off_c, 0, 57, 64
4, 110208, Note_on_c, 0, 57, 102
4, 110400, Note_off_c, 0, 57, 64
4, 110400, Note_on_c, 0, 57, 102
4, 110592, Note_off_c, 0, 57, 64
4, 110592, Note_on_c, 0, 57, 102
4, 110784, Note_off_c, 0, 57, 64
4, 110784, Note_on_c, 0, 57, 102
4, 110976, Note_off_c, 0, 57, 64
4, 110976, Note_on_c, 0, 57, 102
4, 111168, Note_off_c, 0, 57, 64
4, 111168, Note_on_c, 0, 57, 102
4, 111360, Note_off_c, 0, 57, 64
4, 111360, Note_on_c, 0, 57, 102
4, 111552, Note_off_c, 0, 57, 64
4, 111552, Note_on_c, 0, 57, 102
4, 111744, Note_off_c, 0, 57, 64
4, 111744, Note_on_c, 0, 57, 102
4, 111936, Note_off_c, 0, 57, 64
4, 111936, Note_on_c, 0, 57, 102
4, 112128, Note_off_c, 0, 57, 64
4, 112128, Note_on_c, 0, 57, 102
4, 112320, Note_off_c, 0, 57, 64
4, 112320, Note_on_c, 0, 57, 102
4, 112512, Note_off_c, 0, 57, 64
4, 112512, Note_on_c, 0, 57, 102
4, 112704, Note_off_c, 0, 57, 64
4, 112704, Note_on_c, 0, 57, 102
4, 112896, Note_off_c, 0, 57, 64
4, 112896, Note_on_c, 0, 55, 102
4, 113088, Note_off_c, 0, 55, 64
4, 113088, Note_on_c, 0, 55, 102
4, 113280, Note_off_c, 0, 55, 64
4, 113280, Note_on_c, 0, 55, 102
4, 113472, Note_off_c, 0, 55, 64
4, 113472, Note_on_c, 0, 55, 102
4, 113664, Note_off_c, 0, 55, 64
4, 113664, Note_on_c, 0, 55, 102
4, 113856, Note_off_c, 0, 55, 64
4, 113856, Note_on_c, 0, 55, 102
4, 114048, Note_off_c, 0, 55, 64
4, 114048, Note_on_c, 0, 55, 102
4, 114240, Note_off_c, 0, 55, 64
4, 114240, Note_on_c, 0, 55, 102
4, 114432, Note_off_c, 0, 55, 64
4, 114432, Note_on_c, 0, 55, 102
4, 114624, Note_off_c, 0, 55, 64
4, 114624, Note_on_c, 0, 55, 102
4, 114816, Note_off_c, 0, 55, 64
4, 114816, Note_on_c, 0, 55, 102
4, 115008, Note_off_c, 0, 55, 64
4, 115008, Note_on_c, 0, 55, 102
4, 115200, Note_off_c, 0, 55, 64
4, 115200, Note_on_c, 0, 55, 102
4, 115392, Note_off_c, 0, 55, 64
4, 115392, Note_on_c, 0, 55, 102
4, 115584, Note_off_c, 0, 55, 64
4, 115584, Note_on_c, 0, 55, 102
4, 115776, Note_off_c, 0, 55, 64
4, 115776, Note_on_c, 0, 55, 102
4, 115968, Note_off_c, 0, 55, 64
4, 115968, Note_on_c, 0, 53, 102
4, 116160, Note_off_c, 0, 53, 64
4, 116160, Note_on_c, 0, 53, 102
4, 116352, Note_off_c, 0, 53, 64
4, 116352, Note_on_c, 0, 53, 102
4, 116544, Note_off_c, 0, 53, 64
4, 116544, Note_on_c, 0, 53, 102
4, 116736, Note_off_c, 0, 53, 64
4, 116736, Note_on_c, 0, 53, 102
4, 116928, Note_off_c, 0, 53, 64
4, 116928, Note_on_c, 0, 53, 102
4, 117120, Note_off_c, 0, 53, 64
4, 117120, Note_on_c, 0, 53, 102
4, 117312, Note_off_c, 0, 53, 64
4, 117312, Note_on_c, 0, 53, 102
4, 117504, Note_off_c, 0, 53, 64
4, 117504, Note_on_c, 0, 53, 102
4, 117696, Note_off_c, 0, 53, 64
4, 117696, Note_on_c, 0, 53, 102
4, 117888, Note_off_c, 0, 53, 64
4, 117888, Note_on_c, 0, 53, 102
4, 118080, Note_off_c, 0, 53, 64
4, 118080, Note_on_c, 0, 53, 102
4, 118272, Note_off_c, 0, 53, 64
4, 118272, Note_on_c, 0, 53, 102
4, 118464, Note_off_c, 0, 53, 64
4, 118464, Note_on_c, 0, 53, 102
4, 118656, Note_off_c, 0, 53, 64
4, 118656, Note_on_c, 0, 53, 102
4, 118848, Note_off_c, 0, 53, 64
4, 118848, Note_on_c, 0, 53, 102
4, 119040, Note_off_c, 0, 53, 64
4, 119040, Note_on_c, 0, 52, 102
4, 119232, Note_off_c, 0, 52, 64
4, 119232, Note_on_c, 0, 52, 102
4, 119424, Note_off_c, 0, 52, 64
4, 119424, Note_on_c, 0, 56, 102
4, 119616, Note_off_c, 0, 56, 64
4, 119616, Note_on_c, 0, 52, 102
4, 119808, Note_off_c, 0, 52, 64
4, 119808, Note_on_c, 0, 57, 102
4, 120000, Note_off_c, 0, 57, 64
4, 120000, Note_on_c, 0, 45, 102
4, 120192, Note_off_c, 0, 45, 64
4, 120192, Note_on_c, 0, 48, 102
4, 120384, Note_off_c, 0, 48, 64
4, 120384, Note_on_c, 0, 45, 102
4, 120576, Note_off_c, 0, 45, 64
4, 120576, Note_on_c, 0, 52, 102
4, 120768, Note_off_c, 0, 52, 64
4, 120768, Note_on_c, 0, 52, 102
4, 120960, Note_off_c, 0, 52, 64
4, 120960, Note_on_c, 0, 56, 102
4, 121152, Note_off_c, 0, 56, 64
4, 121152, Note_on_c, 0, 52, 102
4, 121344, Note_off_c, 0, 52, 64
4, 121344, Note_on_c, 0, 57, 102
4, 121536, Note_off_c, 0, 57, 64
4, 121536, Note_on_c, 0, 45, 102
4, 121728, Note_off_c, 0, 45, 64
4, 121728, Note_on_c, 0, 48, 102
4, 121920, Note_off_c, 0, 48, 64
4, 121920, Note_on_c, 0, 45, 102
4, 122112, Note_off_c, 0, 45, 64
4, 122112, Note_on_c, 0, 50, 102
4, 122496, Note_off_c, 0, 50, 64
4, 122496, Note_on_c, 0, 50, 102
4, 122880, Note_off_c, 0, 50, 64
4, 122880, Note_on_c, 0, 55, 102
4, 123264, Note_off_c, 0, 55, 64
4, 123264, Note_on_c, 0, 43, 102
4, 123648, Note_off_c, 0, 43, 64
4, 123648, Note_on_c, 0, 48, 102
4, 124032, Note_off_c, 0, 48, 64
4, 124032, Note_on_c, 0, 48, 102
4, 124416, Note_off_c, 0, 48, 64
4, 124416, Note_on_c, 0, 53, 102
4, 124800, Note_off_c, 0, 53, 64
4, 124800, Note_on_c, 0, 41, 102
4, 125184, Note_off_c, 0, 41, 64
4, 125184, Note_on_c, 0, 47, 102
4, 125568, Note_off_c, 0, 47, 64
4, 125568, Note_on_c, 0, 47, 102
4, 125952, Note_off_c, 0, 47, 64
4, 125952, Note_on_c, 0, 52, 102
4, 126336, Note_off_c, 0, 52, 64
4, 126336, Note_on_c, 0, 40, 102
4, 126720, Note_off_c, 0, 40, 64
4, 126720, Note_on_c, 0, 57, 102
4, 126912, Note_off_c, 0, 57, 64
4, 126912, Note_on_c, 0, 45, 102
4, 127104, Note_off_c, 0, 45, 64
4, 127104, Note_on_c, 0, 48, 102
4, 127296, Note_off_c, 0, 48, 64
4, 127296, Note_on_c, 0, 45, 102
4, 127488, Note_off_c, 0, 45, 64
4, 127488, Note_on_c, 0, 50, 102
4, 128256, Note_off_c, 0, 50, 64
4, 128256, Note_on_c, 0, 49, 102
4, 129024, Note_off_c, 0, 49, 64
4, 129024, Note_on_c, 0, 48, 102
4, 129600, Note_off_c, 0, 48, 64
4, 129600, Note_on_c, 0, 50, 102
4, 129792, Note_off_c, 0, 50, 64
4, 129792, Note_on_c, 0, 52, 102
4, 129984, Note_off_c, 0, 52, 64
4, 129984, Note_on_c, 0, 50, 102
4, 130176, Note_off_c, 0, 50, 64
4, 130176, Note_on_c, 0, 48, 102
4, 130368, Note_off_c, 0, 48, 64
4, 130368, Note_on_c, 0, 45, 102
4, 130560, Note_off_c, 0, 45, 64
4, 130560, Note_on_c, 0, 50, 102
4, 130752, Note_off_c, 0, 50, 64
4, 130752, Note_on_c, 0, 47, 102
4, 130944, Note_off_c, 0, 47, 64
4, 130944, Note_on_c, 0, 52, 102
4, 131136, Note_off_c, 0, 52, 64
4, 131136, Note_on_c, 0, 40, 102
4, 131328, Note_off_c, 0, 40, 64
4, 131328, Note_on_c, 0, 45, 102
4, 131520, Note_off_c, 0, 45, 64
4, 136704, Note_on_c, 0, 45, 102
4, 136896, Note_off_c, 0, 45, 64
4, 136896, Note_on_c, 0, 47, 102
4, 137088, Note_off_c, 0, 47, 64
4, 137088, Note_on_c, 0, 48, 102
4, 137280, Note_off_c, 0, 48, 64
4, 137280, Note_on_c, 0, 45, 102
4, 137472, Note_off_c, 0, 45, 64
4, 137472, Note_on_c, 0, 50, 102
4, 138240, Note_off_c, 0, 50, 64
4, 138240, Note_on_c, 0, 49, 102
4, 139008, Note_off_c, 0, 49, 64
4, 139008, Note_on_c, 0, 48, 102
4, 139584, Note_off_c, 0, 48, 64
4, 139584, Note_on_c, 0, 50, 102
4, 139776, Note_off_c, 0, 50, 64
4, 139776, Note_on_c, 0, 52, 102
4, 139968, Note_off_c, 0, 52, 64
4, 139968, Note_on_c, 0, 50, 102
4, 140160, Note_off_c, 0, 50, 64
4, 140160, Note_on_c, 0, 48, 102
4, 140352, Note_off_c, 0, 48, 64
4, 140352, Note_on_c, 0, 45, 102
4, 140544, Note_off_c, 0, 45, 64
4, 140544, Note_on_c, 0, 50, 102
4, 140736, Note_off_c, 0, 50, 64
4, 140736, Note_on_c, 0, 47, 102
4, 140928, Note_off_c, 0, 47, 64
4, 140928, Note_on_c, 0, 52, 102
4, 141120, Note_off_c, 0, 52, 64
4, 141120, Note_on_c, 0, 40, 102
4, 141312, Note_off_c, 0, 40, 64
4, 141312, Note_on_c, 0, 45, 102
4, 142848, Note_off_c, 0, 45, 64
4, 204480, Note_on_c, 0, 57, 102
4, 204672, Note_off_c, 0, 57, 64
4, 204672, Note_on_c, 0, 55, 102
4, 204864, Note_off_c, 0, 55, 64
4, 204864, Note_on_c, 0, 53, 102
4, 205056, Note_off_c, 0, 53, 64
4, 205056, Note_on_c, 0, 52, 102
4, 205248, Note_off_c, 0, 52, 64
4, 205248, Note_on_c, 0, 50, 102
4, 205440, Note_off_c, 0, 50, 64
4, 205440, Note_on_c, 0, 48, 102
4, 205632, Note_off_c, 0, 48, 64
4, 205632, Note_on_c, 0, 53, 102
4, 205824, Note_off_c, 0, 53, 64
4, 205824, Note_on_c, 0, 52, 102
4, 206016, Note_off_c, 0, 52, 64
4, 206016, Note_on_c, 0, 50, 102
4, 206208, Note_off_c, 0, 50, 64
4, 206208, Note_on_c, 0, 48, 102
4, 206400, Note_off_c, 0, 48, 64
4, 206400, Note_on_c, 0, 47, 102
4, 206592, Note_off_c, 0, 47, 64
4, 206592, Note_on_c, 0, 45, 102
4, 206976, Note_off_c, 0, 45, 64
4, 209280, Note_on_c, 0, 48, 102
4, 209664, Note_off_c, 0, 48, 64
4, 209664, Note_on_c, 0, 48, 102
4, 210048, Note_off_c, 0, 48, 64
4, 210048, Note_on_c, 0, 50, 102
4, 210432, Note_off_c, 0, 50, 64
4, 210432, Note_on_c, 0, 52, 102
4, 210816, Note_off_c, 0, 52, 64
4, 210816, Note_on_c, 0, 52, 102
4, 211200, Note_off_c, 0, 52, 64
4, 211200, Note_on_c, 0, 45, 102
4, 211584, Note_off_c, 0, 45, 64
4, 225024, Note_on_c, 0, 45, 102
4, 225408, Note_off_c, 0, 45, 64
4, 226176, Note_on_c, 0, 45, 102
4, 226560, Note_off_c, 0, 45, 64
4, 227328, Note_on_c, 0, 45, 102
4, 227712, Note_off_c, 0, 45, 64
4, 228480, Note_on_c, 0, 45, 102
4, 228864, Note_off_c, 0, 45, 64
4, 229632, Note_on_c, 0, 45, 102
4, 230016, Note_off_c, 0, 45, 64
4, 230784, Note_on_c, 0, 45, 102
4, 231168, Note_off_c, 0, 45, 64
4, 231936, Note_on_c, 0, 45, 102
4, 232128, Note_off_c, 0, 45, 64
4, 232128, Note_on_c, 0, 57, 102
4, 232320, Note_off_c, 0, 57, 64
4, 232320, Note_on_c, 0, 55, 102
4, 232512, Note_off_c, 0, 55, 64
4, 232512, Note_on_c, 0, 53, 102
4, 232704, Note_off_c, 0, 53, 64
4, 232704, Note_on_c, 0, 52, 102
4, 232896, Note_off_c, 0, 52, 64
4, 232896, Note_on_c, 0, 50, 102
4, 233088, Note_off_c, 0, 50, 64
4, 233088, Note_on_c, 0, 48, 102
4, 233280, Note_off_c, 0, 48, 64
4, 233280, Note_on_c, 0, 53, 102
4, 233472, Note_off_c, 0, 53, 64
4, 233472, Note_on_c, 0, 52, 102
4, 233664, Note_off_c, 0, 52, 64
4, 233664, Note_on_c, 0, 50, 102
4, 233856, Note_off_c, 0, 50, 64
4, 233856, Note_on_c, 0, 48, 102
4, 234048, Note_off_c, 0, 48, 64
4, 234048, Note_on_c, 0, 47, 102
4, 234240, Note_off_c, 0, 47, 64
4, 234240, Note_on_c, 0, 45, 102
4, 234624, Note_off_c, 0, 45, 64
4, 236928, Note_on_c, 0, 48, 102
4, 237312, Note_off_c, 0, 48, 64
4, 237312, Note_on_c, 0, 48, 102
4, 237696, Note_off_c, 0, 48, 64
4, 237696, Note_on_c, 0, 50, 102
4, 238080, Note_off_c, 0, 50, 64
4, 238080, Note_on_c, 0, 52, 102
4, 238464, Note_off_c, 0, 52, 64
4, 238464, Note_on_c, 0, 52, 102
4, 238848, Note_off_c, 0, 52, 64
4, 238848, Note_on_c, 0, 45, 102
4, 239232, Note_off_c, 0, 45, 64
4, 254976, Note_on_c, 0, 52, 102
4, 255360, Note_off_c, 0, 52, 64
4, 255360, Note_on_c, 0, 52, 102
4, 255744, Note_off_c, 0, 52, 64
4, 255744, Note_on_c, 0, 52, 102
4, 256128, Note_off_c, 0, 52, 64
4, 256128, Note_on_c, 0, 59, 102
4, 256512, Note_off_c, 0, 59, 64
4, 256512, Note_on_c, 0, 47, 102
4, 256896, Note_off_c, 0, 47, 64
4, 256896, Note_on_c, 0, 59, 102
4, 257280, Note_off_c, 0, 59, 64
4, 257280, Note_on_c, 0, 52, 102
4, 257664, Note_off_c, 0, 52, 64
4, 257664, Note_on_c, 0, 52, 102
4, 258048, Note_off_c, 0, 52, 64
4, 258048, Note_on_c, 0, 52, 102
4, 258432, Note_off_c, 0, 52, 64
4, 258432, Note_on_c, 0, 57, 102
4, 258816, Note_off_c, 0, 57, 64
4, 258816, Note_on_c, 0, 45, 102
4, 259200, Note_off_c, 0, 45, 64
4, 259200, Note_on_c, 0, 57, 102
4, 259584, Note_off_c, 0, 57, 64
4, 259584, Note_on_c, 0, 50, 102
4, 259968, Note_off_c, 0, 50, 64
4, 259968, Note_on_c, 0, 50, 102
4, 260352, Note_off_c, 0, 50, 64
4, 260352, Note_on_c, 0, 50, 102
4, 260736, Note_off_c, 0, 50, 64
4, 260736, Note_on_c, 0, 55, 102
4, 261120, Note_off_c, 0, 55, 64
4, 261120, Note_on_c, 0, 43, 102
4, 261504, Note_off_c, 0, 43, 64
4, 261504, Note_on_c, 0, 55, 102
4, 261888, Note_off_c, 0, 55, 64
4, 261888, Note_on_c, 0, 48, 102
4, 262272, Note_off_c, 0, 48, 64
4, 262272, Note_on_c, 0, 48, 102
4, 262656, Note_off_c, 0, 48, 64
4, 262656, Note_on_c, 0, 48, 102
4, 263040, Note_off_c, 0, 48, 64
4, 263040, Note_on_c, 0, 55, 102
4, 263424, Note_off_c, 0, 55, 64
4, 263424, Note_on_c, 0, 43, 102
4, 263808, Note_off_c, 0, 43, 64
4, 263808, Note_on_c, 0, 55, 102
4, 264192, Note_off_c, 0, 55, 64
4, 264288, Note_on_c, 0, 55, 102
4, 264384, Note_off_c, 0, 55, 64
4, 264384, Note_on_c, 0, 53, 102
4, 264480, Note_off_c, 0, 53, 64
4, 264480, Note_on_c, 0, 55, 102
4, 264576, Note_off_c, 0, 55, 64
4, 264576, Note_on_c, 0, 52, 102
4, 264672, Note_off_c, 0, 52, 64
4, 264672, Note_on_c, 0, 53, 102
4, 264768, Note_off_c, 0, 53, 64
4, 264768, Note_on_c, 0, 50, 102
4, 264864, Note_off_c, 0, 50, 64
4, 264864, Note_on_c, 0, 52, 102
4, 264960, Note_off_c, 0, 52, 64
4, 264960, Note_on_c, 0, 48, 102
4, 265152, Note_off_c, 0, 48, 64
4, 265440, Note_on_c, 0, 52, 102
4, 265536, Note_off_c, 0, 52, 64
4, 265536, Note_on_c, 0, 50, 102
4, 265632, Note_off_c, 0, 50, 64
4, 265632, Note_on_c, 0, 52, 102
4, 265728, Note_off_c, 0, 52, 64
4, 265728, Note_on_c, 0, 49, 102
4, 265824, Note_off_c, 0, 49, 64
4, 265824, Note_on_c, 0, 50, 102
4, 265920, Note_off_c, 0, 50, 64
4, 265920, Note_on_c, 0, 47, 102
4, 266016, Note_off_c, 0, 47, 64
4, 266016, Note_on_c, 0, 49, 102
4, 266112, Note_off_c, 0, 49, 64
4, 266112, Note_on_c, 0, 45, 102
4, 266304, Note_off_c, 0, 45, 64
4, 266592, Note_on_c, 0, 57, 102
4, 266688, Note_off_c, 0, 57, 64
4, 266688, Note_on_c, 0, 55, 102
4, 266784, Note_off_c, 0, 55, 64
4, 266784, Note_on_c, 0, 57, 102
4, 266880, Note_off_c, 0, 57, 64
4, 266880, Note_on_c, 0, 54, 102
4, 266976, Note_off_c, 0, 54, 64
4, 266976, Note_on_c, 0, 55, 102
4, 267072, Note_off_c, 0, 55, 64
4, 267072, Note_on_c, 0, 52, 102
4, 267168, Note_off_c, 0, 52, 64
4, 267168, Note_on_c, 0, 54, 102
4, 267264, Note_off_c, 0, 54, 64
4, 267264, Note_on_c, 0, 50, 102
4, 267456, Note_off_c, 0, 50, 64
4, 267744, Note_on_c, 0, 54, 102
4, 267840, Note_off_c, 0, 54, 64
4, 267840, Note_on_c, 0, 52, 102
4, 267936, Note_off_c, 0, 52, 64
4, 267936, Note_on_c, 0, 54, 102
4, 268032, Note_off_c, 0, 54, 64
4, 268032, Note_on_c, 0, 51, 102
4, 268128, Note_off_c, 0, 51, 64
4, 268128, Note_on_c, 0, 52, 102
4, 268224, Note_off_c, 0, 52, 64
4, 268224, Note_on_c, 0, 49, 102
4, 268320, Note_off_c, 0, 49, 64
4, 268320, Note_on_c, 0, 51, 102
4, 268416, Note_off_c, 0, 51, 64
4, 268416, Note_on_c, 0, 47, 102
4, 268608, Note_off_c, 0, 47, 64
4, 268896, Note_on_c, 0, 59, 102
4, 268992, Note_off_c, 0, 59, 64
4, 268992, Note_on_c, 0, 57, 102
4, 269088, Note_off_c, 0, 57, 64
4, 269088, Note_on_c, 0, 59, 102
4, 269184, Note_off_c, 0, 59, 64
4, 269184, Note_on_c, 0, 56, 102
4, 269280, Note_off_c, 0, 56, 64
4, 269280, Note_on_c, 0, 57, 102
4, 269376, Note_off_c, 0, 57, 64
4, 269376, Note_on_c, 0, 54, 102
4, 269472, Note_off_c, 0, 54, 64
4, 269472, Note_on_c, 0, 56, 102
4, 269568, Note_off_c, 0, 56, 64
4, 269568, Note_on_c, 0, 52, 102
4, 269664, Note_off_c, 0, 52, 64
4, 269664, Note_on_c, 0, 53, 102
4, 269760, Note_off_c, 0, 53, 64
4, 269760, Note_on_c, 0, 50, 102
4, 269856, Note_off_c, 0, 50, 64
4, 269856, Note_on_c, 0, 52, 102
4, 269952, Note_off_c, 0, 52, 64
4, 269952, Note_on_c, 0, 48, 102
4, 270336, Note_off_c, 0, 48, 64
4, 271104, Note_on_c, 0, 48, 102
4, 271488, Note_off_c, 0, 48, 64
4, 272352, Note_on_c, 0, 60, 102
4, 272448, Note_off_c, 0, 60, 64
4, 272448, Note_on_c, 0, 59, 102
4, 272544, Note_off_c, 0, 59, 64
4, 272544, Note_on_c, 0, 60, 102
4, 272640, Note_off_c, 0, 60, 64
4, 272640, Note_on_c, 0, 57, 102
4, 272736, Note_off_c, 0, 57, 64
4, 272736, Note_on_c, 0, 59, 102
4, 272832, Note_off_c, 0, 59, 64
4, 272832, Note_on_c, 0, 55, 102
4, 272928, Note_off_c, 0, 55, 64
4, 272928, Note_on_c, 0, 57, 102
4, 273024, Note_off_c, 0, 57, 64
4, 273024, Note_on_c, 0, 54, 102
4, 273120, Note_off_c, 0, 54, 64
4, 273120, Note_on_c, 0, 55, 102
4, 273216, Note_off_c, 0, 55, 64
4, 273216, Note_on_c, 0, 52, 102
4, 273312, Note_off_c, 0, 52, 64
4, 273312, Note_on_c, 0, 54, 102
4, 273408, Note_off_c, 0, 54, 64
4, 273408, Note_on_c, 0, 51, 102
4, 273792, Note_off_c, 0, 51, 64
4, 274176, Note_on_c, 0, 52, 102
4, 274560, Note_off_c, 0, 52, 64
4, 274560, Note_on_c, 0, 45, 102
4, 274944, Note_off_c, 0, 45, 64
4, 274944, Note_on_c, 0, 42, 102
4, 275328, Note_off_c, 0, 42, 64
4, 275328, Note_on_c, 0, 47, 102
4, 275712, Note_off_c, 0, 47, 64
4, 275712, Note_on_c, 0, 40, 102
4, 276096, Note_off_c, 0, 40, 64
4, 278784, Note_on_c, 0, 45, 102
4, 279168, Note_off_c, 0, 45, 64
4, 279168, Note_on_c, 0, 38, 102
4, 279552, Note_off_c, 0, 38, 64
4, 282240, Note_on_c, 0, 43, 102
4, 282624, Note_off_c, 0, 43, 64
4, 282624, Note_on_c, 0, 36, 102
4, 283008, Note_off_c, 0, 36, 64
4, 283776, Note_on_c, 0, 43, 102
4, 284160, Note_off_c, 0, 43, 64
4, 284928, Note_on_c, 0, 55, 102
4, 285312, Note_off_c, 0, 55, 64
4, 286080, Note_on_c, 0, 48, 102
4, 286464, Note_off_c, 0, 48, 64
4, 287232, Note_on_c, 0, 53, 102
4, 287616, Note_off_c, 0, 53, 64
4, 288384, Note_on_c, 0, 47, 102
4, 288768, Note_off_c, 0, 47, 64
4, 289536, Note_on_c, 0, 52, 102
4, 289920, Note_off_c, 0, 52, 64
4, 290688, Note_on_c, 0, 45, 102
4, 291072, Note_off_c, 0, 45, 64
4, 292032, Note_on_c, 0, 57, 102
4, 292224, Note_off_c, 0, 57, 64
4, 292224, Note_on_c, 0, 55, 102
4, 292416, Note_off_c, 0, 55, 64
4, 292416, Note_on_c, 0, 53, 102
4, 292608, Note_off_c, 0, 53, 64
4, 292608, Note_on_c, 0, 52, 102
4, 292800, Note_off_c, 0, 52, 64
4, 292800, Note_on_c, 0, 50, 102
4, 292992, Note_off_c, 0, 50, 64
4, 292992, Note_on_c, 0, 48, 102
4, 293184, Note_off_c, 0, 48, 64
4, 294336, Note_on_c, 0, 53, 102
4, 294528, Note_off_c, 0, 53, 64
4, 294528, Note_on_c, 0, 52, 102
4, 294720, Note_off_c, 0, 52, 64
4, 294720, Note_on_c, 0, 50, 102
4, 294912, Note_off_c, 0, 50, 64
4, 294912, Note_on_c, 0, 48, 102
4, 295104, Note_off_c, 0, 48, 64
4, 295104, Note_on_c, 0, 47, 102
4, 295296, Note_off_c, 0, 47, 64
4, 295296, Note_on_c, 0, 45, 102
4, 295488, Note_on_c, 0, 64, 102
4, 295680, Note_off_c, 0, 64, 64
4, 295680, Note_off_c, 0, 45, 64
4, 295680, Note_on_c, 0, 64, 102
4, 295872, Note_off_c, 0, 64, 64
4, 295872, Note_on_c, 0, 64, 102
4, 296064, Note_off_c, 0, 64, 64
4, 296064, Note_on_c, 0, 64, 102
4, 296256, Note_off_c, 0, 64, 64
4, 296256, Note_on_c, 0, 64, 102
4, 296448, Note_off_c, 0, 64, 64
4, 296448, Note_on_c, 0, 64, 102
4, 296448, Note_on_c, 0, 52, 102
4, 296640, Note_off_c, 0, 64, 64
4, 296640, Note_on_c, 0, 64, 102
4, 296832, Note_off_c, 0, 64, 64
4, 296832, Note_off_c, 0, 52, 64
4, 296832, Note_on_c, 0, 64, 102
4, 297024, Note_off_c, 0, 64, 64
4, 297024, Note_on_c, 0, 64, 102
4, 297216, Note_off_c, 0, 64, 64
4, 297216, Note_on_c, 0, 64, 102
4, 297408, Note_off_c, 0, 64, 64
4, 297408, Note_on_c, 0, 64, 102
4, 297600, Note_off_c, 0, 64, 64
4, 297600, Note_on_c, 0, 64, 102
4, 297600, Note_on_c, 0, 52, 102
4, 297792, Note_off_c, 0, 64, 64
4, 297792, Note_on_c, 0, 64, 102
4, 297984, Note_off_c, 0, 64, 64
4, 297984, Note_off_c, 0, 52, 64
4, 297984, Note_on_c, 0, 64, 102
4, 298176, Note_off_c, 0, 64, 64
4, 298176, Note_on_c, 0, 64, 102
4, 298368, Note_off_c, 0, 64, 64
4, 298368, Note_on_c, 0, 64, 102
4, 298560, Note_off_c, 0, 64, 64
4, 298560, Note_on_c, 0, 64, 102
4, 298752, Note_off_c, 0, 64, 64
4, 298752, Note_on_c, 0, 64, 102
4, 298752, Note_on_c, 0, 56, 102
4, 298944, Note_off_c, 0, 64, 64
4, 298944, Note_on_c, 0, 64, 102
4, 299136, Note_off_c, 0, 64, 64
4, 299136, Note_off_c, 0, 56, 64
4, 299136, Note_on_c, 0, 64, 102
4, 299328, Note_off_c, 0, 64, 64
4, 299328, Note_on_c, 0, 64, 102
4, 299520, Note_off_c, 0, 64, 64
4, 299520, Note_on_c, 0, 64, 102
4, 299712, Note_off_c, 0, 64, 64
4, 299712, Note_on_c, 0, 64, 102
4, 299904, Note_off_c, 0, 64, 64
4, 299904, Note_on_c, 0, 64, 102
4, 299904, Note_on_c, 0, 56, 102
4, 300096, Note_off_c, 0, 64, 64
4, 300096, Note_on_c, 0, 64, 102
4, 300288, Note_off_c, 0, 64, 64
4, 300288, Note_off_c, 0, 56, 64
4, 300288, Note_on_c, 0, 64, 102
4, 300480, Note_off_c, 0, 64, 64
4, 300480, Note_on_c, 0, 64, 102
4, 300672, Note_off_c, 0, 64, 64
4, 300672, Note_on_c, 0, 64, 102
4, 300864, Note_off_c, 0, 64, 64
4, 300864, Note_on_c, 0, 64, 102
4, 301056, Note_off_c, 0, 64, 64
4, 301056, Note_on_c, 0, 64, 102
4, 301056, Note_on_c, 0, 44, 102
4, 301248, Note_off_c, 0, 64, 64
4, 301248, Note_on_c, 0, 64, 102
4, 301440, Note_off_c, 0, 64, 64
4, 301440, Note_off_c, 0, 44, 64
4, 301440, Note_on_c, 0, 64, 102
4, 301632, Note_off_c, 0, 64, 64
4, 301632, Note_on_c, 0, 64, 102
4, 301824, Note_off_c, 0, 64, 64
4, 301824, Note_on_c, 0, 64, 102
4, 302016, Note_off_c, 0, 64, 64
4, 302016, Note_on_c, 0, 64, 102
4, 302208, Note_off_c, 0, 64, 64
4, 302208, Note_on_c, 0, 64, 102
4, 302208, Note_on_c, 0, 45, 102
4, 302400, Note_off_c, 0, 64, 64
4, 302400, Note_on_c, 0, 64, 102
4, 302592, Note_off_c, 0, 64, 64
4, 302592, Note_off_c, 0, 45, 64
4, 302592, Note_on_c, 0, 64, 102
4, 302784, Note_off_c, 0, 64, 64
4, 302784, Note_on_c, 0, 64, 102
4, 302976, Note_off_c, 0, 64, 64
4, 302976, Note_on_c, 0, 64, 102
4, 303168, Note_off_c, 0, 64, 64
4, 303168, Note_on_c, 0, 64, 102
4, 303360, Note_off_c, 0, 64, 64
4, 303360, Note_on_c, 0, 64, 102
4, 303360, Note_on_c, 0, 45, 102
4, 303552, Note_off_c, 0, 64, 64
4, 303552, Note_on_c, 0, 64, 102
4, 303744, Note_off_c, 0, 64, 64
4, 303744, Note_off_c, 0, 45, 64
4, 303744, Note_on_c, 0, 64, 102
4, 303936, Note_off_c, 0, 64, 64
4, 303936, Note_on_c, 0, 64, 102
4, 304128, Note_off_c, 0, 64, 64
4, 304128, Note_on_c, 0, 64, 102
4, 304320, Note_off_c, 0, 64, 64
4, 304320, Note_on_c, 0, 64, 102
4, 304512, Note_off_c, 0, 64, 64
4, 304512, Note_on_c, 0, 64, 102
4, 304512, Note_on_c, 0, 52, 102
4, 304704, Note_off_c, 0, 64, 64
4, 304704, Note_on_c, 0, 64, 102
4, 304896, Note_off_c, 0, 64, 64
4, 304896, Note_off_c, 0, 52, 64
4, 304896, Note_on_c, 0, 64, 102
4, 305088, Note_off_c, 0, 64, 64
4, 305088, Note_on_c, 0, 64, 102
4, 305280, Note_off_c, 0, 64, 64
4, 305280, Note_on_c, 0, 64, 102
4, 305472, Note_off_c, 0, 64, 64
4, 305472, Note_on_c, 0, 64, 102
4, 305664, Note_off_c, 0, 64, 64
4, 305664, Note_on_c, 0, 64, 102
4, 305664, Note_on_c, 0, 40, 102
4, 305856, Note_off_c, 0, 64, 64
4, 305856, Note_on_c, 0, 64, 102
4, 306048, Note_off_c, 0, 64, 64
4, 306048, Note_off_c, 0, 40, 64
4, 306048, Note_on_c, 0, 64, 102
4, 306240, Note_off_c, 0, 64, 64
4, 306240, Note_on_c, 0, 64, 102
4, 306432, Note_off_c, 0, 64, 64
4, 306432, Note_on_c, 0, 64, 102
4, 306624, Note_off_c, 0, 64, 64
4, 306624, Note_on_c, 0, 64, 102
4, 306816, Note_off_c, 0, 64, 64
4, 306816, Note_on_c, 0, 64, 102
4, 306816, Note_on_c, 0, 45, 102
4, 307008, Note_off_c, 0, 64, 64
4, 307008, Note_on_c, 0, 64, 102
4, 307200, Note_off_c, 0, 64, 64
4, 307200, Note_off_c, 0, 45, 64
4, 307200, Note_on_c, 0, 64, 102
4, 307392, Note_off_c, 0, 64, 64
4, 307392, Note_on_c, 0, 64, 102
4, 307584, Note_off_c, 0, 64, 64
4, 307584, Note_on_c, 0, 64, 102
4, 307776, Note_off_c, 0, 64, 64
4, 307776, Note_on_c, 0, 64, 102
4, 307968, Note_off_c, 0, 64, 64
4, 307968, Note_on_c, 0, 64, 102
4, 307968, Note_on_c, 0, 49, 102
4, 308160, Note_off_c, 0, 64, 64
4, 308160, Note_on_c, 0, 64, 102
4, 308352, Note_off_c, 0, 64, 64
4, 308352, Note_off_c, 0, 49, 64
4, 308352, Note_on_c, 0, 64, 102
4, 308544, Note_off_c, 0, 64, 64
4, 308544, Note_on_c, 0, 64, 102
4, 308736, Note_off_c, 0, 64, 64
4, 308736, Note_on_c, 0, 64, 102
4, 308928, Note_off_c, 0, 64, 64
4, 308928, Note_on_c, 0, 64, 102
4, 309120, Note_off_c, 0, 64, 64
4, 309120, Note_on_c, 0, 57, 102
4, 309120, Note_on_c, 0, 50, 102
4, 309312, Note_off_c, 0, 57, 64
4, 309312, Note_on_c, 0, 57, 102
4, 309504, Note_off_c, 0, 57, 64
4, 309504, Note_off_c, 0, 50, 64
4, 309504, Note_on_c, 0, 57, 102
4, 309696, Note_off_c, 0, 57, 64
4, 309696, Note_on_c, 0, 57, 102
4, 309888, Note_off_c, 0, 57, 64
4, 309888, Note_on_c, 0, 57, 102
4, 310080, Note_off_c, 0, 57, 64
4, 310080, Note_on_c, 0, 57, 102
4, 310272, Note_off_c, 0, 57, 64
4, 310272, Note_on_c, 0, 57, 102
4, 310272, Note_on_c, 0, 45, 102
4, 310464, Note_off_c, 0, 57, 64
4, 310464, Note_on_c, 0, 57, 102
4, 310656, Note_off_c, 0, 57, 64
4, 310656, Note_off_c, 0, 45, 64
4, 310656, Note_on_c, 0, 57, 102
4, 310848, Note_off_c, 0, 57, 64
4, 310848, Note_on_c, 0, 57, 102
4, 311040, Note_off_c, 0, 57, 64
4, 311040, Note_on_c, 0, 57, 102
4, 311232, Note_off_c, 0, 57, 64
4, 311232, Note_on_c, 0, 57, 102
4, 311424, Note_off_c, 0, 57, 64
4, 311424, Note_on_c, 0, 57, 102
4, 311424, Note_on_c, 0, 45, 102
4, 311616, Note_off_c, 0, 57, 64
4, 311616, Note_on_c, 0, 57, 102
4, 311808, Note_off_c, 0, 57, 64
4, 311808, Note_off_c, 0, 45, 64
4, 311808, Note_on_c, 0, 57, 102
4, 312000, Note_off_c, 0, 57, 64
4, 312000, Note_on_c, 0, 57, 102
4, 312192, Note_off_c, 0, 57, 64
4, 312192, Note_on_c, 0, 57, 102
4, 312384, Note_off_c, 0, 57, 64
4, 312384, Note_on_c, 0, 57, 102
4, 312576, Note_off_c, 0, 57, 64
4, 312576, Note_on_c, 0, 57, 102
4, 312576, Note_on_c, 0, 45, 102
4, 312768, Note_off_c, 0, 57, 64
4, 312768, Note_on_c, 0, 57, 102
4, 312960, Note_off_c, 0, 57, 64
4, 312960, Note_off_c, 0, 45, 64
4, 312960, Note_on_c, 0, 57, 102
4, 313152, Note_off_c, 0, 57, 64
4, 313152, Note_on_c, 0, 57, 102
4, 313344, Note_off_c, 0, 57, 64
4, 313344, Note_on_c, 0, 57, 102
4, 313536, Note_off_c, 0, 57, 64
4, 313536, Note_on_c, 0, 57, 102
4, 313728, Note_off_c, 0, 57, 64
4, 313728, Note_on_c, 0, 57, 102
4, 313728, Note_on_c, 0, 50, 102
4, 313920, Note_off_c, 0, 57, 64
4, 313920, Note_on_c, 0, 57, 102
4, 314112, Note_off_c, 0, 57, 64
4, 314112, Note_off_c, 0, 50, 64
4, 314112, Note_on_c, 0, 57, 102
4, 314304, Note_off_c, 0, 57, 64
4, 314304, Note_on_c, 0, 57, 102
4, 314496, Note_off_c, 0, 57, 64
4, 314496, Note_on_c, 0, 57, 102
4, 314688, Note_off_c, 0, 57, 64
4, 314688, Note_on_c, 0, 57, 102
4, 314880, Note_off_c, 0, 57, 64
4, 314880, Note_on_c, 0, 57, 102
4, 314880, Note_on_c, 0, 54, 102
4, 315072, Note_off_c, 0, 57, 64
4, 315072, Note_on_c, 0, 57, 102
4, 315264, Note_off_c, 0, 57, 64
4, 315264, Note_off_c, 0, 54, 64
4, 315264, Note_on_c, 0, 57, 102
4, 315456, Note_off_c, 0, 57, 64
4, 315456, Note_on_c, 0, 57, 102
4, 315648, Note_off_c, 0, 57, 64
4, 315648, Note_on_c, 0, 57, 102
4, 315840, Note_off_c, 0, 57, 64
4, 315840, Note_on_c, 0, 57, 102
4, 316032, Note_off_c, 0, 57, 64
4, 316032, Note_on_c, 0, 62, 102
4, 316032, Note_on_c, 0, 55, 102
4, 316224, Note_off_c, 0, 62, 64
4, 316224, Note_on_c, 0, 62, 102
4, 316416, Note_off_c, 0, 62, 64
4, 316416, Note_off_c, 0, 55, 64
4, 316416, Note_on_c, 0, 62, 102
4, 316608, Note_off_c, 0, 62, 64
4, 316608, Note_on_c, 0, 62, 102
4, 316800, Note_off_c, 0, 62, 64
4, 316800, Note_on_c, 0, 62, 102
4, 316992, Note_off_c, 0, 62, 64
4, 316992, Note_on_c, 0, 62, 102
4, 317184, Note_off_c, 0, 62, 64
4, 317184, Note_on_c, 0, 62, 102
4, 317184, Note_on_c, 0, 43, 102
4, 317376, Note_off_c, 0, 62, 64
4, 317376, Note_on_c, 0, 62, 102
4, 317568, Note_off_c, 0, 62, 64
4, 317568, Note_off_c, 0, 43, 64
4, 317568, Note_on_c, 0, 62, 102
4, 317760, Note_off_c, 0, 62, 64
4, 317760, Note_on_c, 0, 62, 102
4, 317952, Note_off_c, 0, 62, 64
4, 317952, Note_on_c, 0, 62, 102
4, 318144, Note_off_c, 0, 62, 64
4, 318144, Note_on_c, 0, 62, 102
4, 318336, Note_off_c, 0, 62, 64
4, 318336, Note_on_c, 0, 62, 102
4, 318336, Note_on_c, 0, 54, 102
4, 318528, Note_off_c, 0, 62, 64
4, 318528, Note_on_c, 0, 62, 102
4, 318720, Note_off_c, 0, 62, 64
4, 318720, Note_off_c, 0, 54, 64
4, 318720, Note_on_c, 0, 62, 102
4, 318912, Note_off_c, 0, 62, 64
4, 318912, Note_on_c, 0, 62, 102
4, 319104, Note_off_c, 0, 62, 64
4, 319104, Note_on_c, 0, 62, 102
4, 319296, Note_off_c, 0, 62, 64
4, 319296, Note_on_c, 0, 62, 102
4, 319488, Note_off_c, 0, 62, 64
4, 319488, Note_on_c, 0, 62, 102
4, 319488, Note_on_c, 0, 50, 102
4, 319680, Note_off_c, 0, 62, 64
4, 319680, Note_on_c, 0, 62, 102
4, 319872, Note_off_c, 0, 62, 64
4, 319872, Note_off_c, 0, 50, 64
4, 319872, Note_on_c, 0, 62, 102
4, 320064, Note_off_c, 0, 62, 64
4, 320064, Note_on_c, 0, 62, 102
4, 320256, Note_off_c, 0, 62, 64
4, 320256, Note_on_c, 0, 62, 102
4, 320448, Note_off_c, 0, 62, 64
4, 320448, Note_on_c, 0, 62, 102
4, 320640, Note_off_c, 0, 62, 64
4, 320640, Note_on_c, 0, 62, 102
4, 320640, Note_on_c, 0, 55, 102
4, 320832, Note_off_c, 0, 62, 64
4, 320832, Note_on_c, 0, 62, 102
4, 321024, Note_off_c, 0, 62, 64
4, 321024, Note_off_c, 0, 55, 64
4, 321024, Note_on_c, 0, 62, 102
4, 321216, Note_off_c, 0, 62, 64
4, 321216, Note_on_c, 0, 62, 102
4, 321408, Note_off_c, 0, 62, 64
4, 321408, Note_on_c, 0, 62, 102
4, 321600, Note_off_c, 0, 62, 64
4, 321600, Note_on_c, 0, 62, 102
4, 321792, Note_off_c, 0, 62, 64
4, 321792, Note_on_c, 0, 62, 102
4, 321792, Note_on_c, 0, 43, 102
4, 321984, Note_off_c, 0, 62, 64
4, 321984, Note_on_c, 0, 62, 102
4, 322176, Note_off_c, 0, 62, 64
4, 322176, Note_off_c, 0, 43, 64
4, 322176, Note_on_c, 0, 62, 102
4, 322368, Note_off_c, 0, 62, 64
4, 322368, Note_on_c, 0, 62, 102
4, 322560, Note_off_c, 0, 62, 64
4, 322560, Note_on_c, 0, 62, 102
4, 322752, Note_off_c, 0, 62, 64
4, 322752, Note_on_c, 0, 62, 102
4, 322944, Note_off_c, 0, 62, 64
4, 322944, Note_on_c, 0, 55, 102
4, 322944, Note_on_c, 0, 43, 102
4, 323136, Note_off_c, 0, 55, 64
4, 323136, Note_on_c, 0, 55, 102
4, 323328, Note_off_c, 0, 55, 64
4, 323328, Note_off_c, 0, 43, 64
4, 323328, Note_on_c, 0, 55, 102
4, 323520, Note_off_c, 0, 55, 64
4, 323520, Note_on_c, 0, 55, 102
4, 323712, Note_off_c, 0, 55, 64
4, 323712, Note_on_c, 0, 55, 102
4, 323904, Note_off_c, 0, 55, 64
4, 323904, Note_on_c, 0, 55, 102
4, 324096, Note_off_c, 0, 55, 64
4, 324096, Note_on_c, 0, 55, 102
4, 324096, Note_on_c, 0, 48, 102
4, 324288, Note_off_c, 0, 55, 64
4, 324288, Note_on_c, 0, 55, 102
4, 324480, Note_off_c, 0, 55, 64
4, 324480, Note_off_c, 0, 48, 64
4, 324480, Note_on_c, 0, 55, 102
4, 324672, Note_off_c, 0, 55, 64
4, 324672, Note_on_c, 0, 55, 102
4, 324864, Note_off_c, 0, 55, 64
4, 324864, Note_on_c, 0, 55, 102
4, 325056, Note_off_c, 0, 55, 64
4, 325056, Note_on_c, 0, 55, 102
4, 325248, Note_off_c, 0, 55, 64
4, 325248, Note_on_c, 0, 55, 102
4, 325248, Note_on_c, 0, 43, 102
4, 325440, Note_off_c, 0, 55, 64
4, 325440, Note_on_c, 0, 55, 102
4, 325632, Note_off_c, 0, 55, 64
4, 325632, Note_off_c, 0, 43, 64
4, 325632, Note_on_c, 0, 55, 102
4, 325824, Note_off_c, 0, 55, 64
4, 325824, Note_on_c, 0, 55, 102
4, 326016, Note_off_c, 0, 55, 64
4, 326016, Note_on_c, 0, 55, 102
4, 326208, Note_off_c, 0, 55, 64
4, 326208, Note_on_c, 0, 55, 102
4, 326400, Note_off_c, 0, 55, 64
4, 326400, Note_on_c, 0, 55, 102
4, 326400, Note_on_c, 0, 43, 102
4, 326592, Note_off_c, 0, 55, 64
4, 326592, Note_on_c, 0, 55, 102
4, 326784, Note_off_c, 0, 55, 64
4, 326784, Note_off_c, 0, 43, 64
4, 326784, Note_on_c, 0, 55, 102
4, 326976, Note_off_c, 0, 55, 64
4, 326976, Note_on_c, 0, 55, 102
4, 327168, Note_off_c, 0, 55, 64
4, 327168, Note_on_c, 0, 55, 102
4, 327360, Note_off_c, 0, 55, 64
4, 327360, Note_on_c, 0, 55, 102
4, 327552, Note_off_c, 0, 55, 64
4, 327552, Note_on_c, 0, 48, 102
4, 327552, Note_on_c, 0, 55, 102
4, 327744, Note_off_c, 0, 55, 64
4, 327744, Note_off_c, 0, 48, 64
4, 328896, Note_on_c, 0, 57, 102
4, 329088, Note_off_c, 0, 57, 64
4, 329088, Note_on_c, 0, 55, 102
4, 329280, Note_off_c, 0, 55, 64
4, 329280, Note_on_c, 0, 53, 102
4, 329472, Note_off_c, 0, 53, 64
4, 329472, Note_on_c, 0, 52, 102
4, 329664, Note_off_c, 0, 52, 64
4, 329664, Note_on_c, 0, 50, 102
4, 329856, Note_off_c, 0, 50, 64
4, 329856, Note_on_c, 0, 48, 102
4, 330048, Note_off_c, 0, 48, 64
4, 331200, Note_on_c, 0, 53, 102
4, 331392, Note_off_c, 0, 53, 64
4, 331392, Note_on_c, 0, 52, 102
4, 331584, Note_off_c, 0, 52, 64
4, 331584, Note_on_c, 0, 50, 102
4, 331776, Note_off_c, 0, 50, 64
4, 331776, Note_on_c, 0, 48, 102
4, 331968, Note_off_c, 0, 48, 64
4, 331968, Note_on_c, 0, 47, 102
4, 332160, Note_off_c, 0, 47, 64
4, 332160, Note_on_c, 0, 45, 102
4, 332544, Note_off_c, 0, 45, 64
4, 332544, Note_on_c, 0, 57, 102
4, 332928, Note_off_c, 0, 57, 64
4, 332928, Note_on_c, 0, 57, 102
4, 333312, Note_off_c, 0, 57, 64
4, 333312, Note_on_c, 0, 50, 102
4, 333696, Note_off_c, 0, 50, 64
4, 333696, Note_on_c, 0, 50, 102
4, 334080, Note_off_c, 0, 50, 64
4, 334080, Note_on_c, 0, 50, 102
4, 334464, Note_off_c, 0, 50, 64
4, 334464, Note_on_c, 0, 55, 102
4, 334848, Note_off_c, 0, 55, 64
4, 334848, Note_on_c, 0, 55, 102
4, 335232, Note_off_c, 0, 55, 64
4, 335232, Note_on_c, 0, 55, 102
4, 335616, Note_off_c, 0, 55, 64
4, 335616, Note_on_c, 0, 48, 102
4, 336000, Note_off_c, 0, 48, 64
4, 336000, Note_on_c, 0, 48, 102
4, 336384, Note_off_c, 0, 48, 64
4, 336384, Note_on_c, 0, 48, 102
4, 336768, Note_off_c, 0, 48, 64
4, 336768, Note_on_c, 0, 53, 102
4, 337152, Note_off_c, 0, 53, 64
4, 337152, Note_on_c, 0, 53, 102
4, 337536, Note_off_c, 0, 53, 64
4, 337536, Note_on_c, 0, 53, 102
4, 337920, Note_off_c, 0, 53, 64
4, 337920, Note_on_c, 0, 47, 102
4, 338304, Note_off_c, 0, 47, 64
4, 338304, Note_on_c, 0, 47, 102
4, 338688, Note_off_c, 0, 47, 64
4, 338688, Note_on_c, 0, 47, 102
4, 339072, Note_off_c, 0, 47, 64
4, 339072, Note_on_c, 0, 52, 102
4, 339456, Note_off_c, 0, 52, 64
4, 339456, Note_on_c, 0, 52, 102
4, 339840, Note_off_c, 0, 52, 64
4, 339840, Note_on_c, 0, 52, 102
4, 340224, Note_off_c, 0, 52, 64
4, 340224, Note_on_c, 0, 45, 102
4, 340608, Note_off_c, 0, 45, 64
4, 340608, Note_on_c, 0, 45, 102
4, 340992, Note_off_c, 0, 45, 64
4, 340992, Note_on_c, 0, 45, 102
4, 341376, Note_off_c, 0, 45, 64
4, 341376, Note_on_c, 0, 57, 102
4, 341760, Note_off_c, 0, 57, 64
4, 341760, Note_on_c, 0, 57, 102
4, 342144, Note_off_c, 0, 57, 64
4, 342144, Note_on_c, 0, 57, 102
4, 342528, Note_off_c, 0, 57, 64
4, 342528, Note_on_c, 0, 62, 102
4, 342912, Note_off_c, 0, 62, 64
4, 342912, Note_on_c, 0, 64, 102
4, 343296, Note_off_c, 0, 64, 64
4, 343296, Note_on_c, 0, 52, 102
4, 343680, Note_off_c, 0, 52, 64
4, 343680, Note_on_c, 0, 57, 102
4, 344064, Note_off_c, 0, 57, 64
4, 344448, Note_on_c, 0, 56, 102
4, 344832, Note_off_c, 0, 56, 64
4, 344832, Note_on_c, 0, 57, 102
4, 345216, Note_off_c, 0, 57, 64
4, 345600, Note_on_c, 0, 56, 102
4, 345984, Note_off_c, 0, 56, 64
4, 345984, Note_on_c, 0, 57, 102
4, 346368, Note_off_c, 0, 57, 64
4, 347136, Note_on_c, 0, 57, 102
4, 347520, Note_off_c, 0, 57, 64
4, 348288, Note_on_c, 0, 57, 102
4, 348672, Note_off_c, 0, 57, 64
4, 349440, Note_on_c, 0, 64, 102
4, 349824, Note_off_c, 0, 64, 64
4, 350592, Note_on_c, 0, 57, 102
4, 350976, Note_off_c, 0, 57, 64
4, 351744, Note_on_c, 0, 57, 102
4, 352128, Note_off_c, 0, 57, 64
4, 352896, Note_on_c, 0, 62, 102
4, 353280, Note_off_c, 0, 62, 64
4, 354048, Note_on_c, 0, 62, 102
4, 354432, Note_off_c, 0, 62, 64
4, 355200, Note_on_c, 0, 64, 102
4, 355584, Note_off_c, 0, 64, 64
4, 356352, Note_on_c, 0, 57, 102
4, 356736, Note_off_c, 0, 57, 64
4, 357504, Note_on_c, 0, 64, 102
4, 357888, Note_off_c, 0, 64, 64
4, 358656, Note_on_c, 0, 64, 102
4, 359040, Note_off_c, 0, 64, 64
4, 359808, Note_on_c, 0, 57, 102
4, 360000, Note_off_c, 0, 57, 64
4, 360000, Note_on_c, 0, 57, 102
4, 360192, Note_off_c, 0, 57, 64
4, 360192, Note_on_c, 0, 55, 102
4, 360384, Note_off_c, 0, 55, 64
4, 360384, Note_on_c, 0, 53, 102
4, 360576, Note_off_c, 0, 53, 64
4, 360576, Note_on_c, 0, 52, 102
4, 360768, Note_off_c, 0, 52, 64
4, 360768, Note_on_c, 0, 50, 102
4, 360960, Note_off_c, 0, 50, 64
4, 360960, Note_on_c, 0, 48, 102
4, 361152, Note_off_c, 0, 48, 64
4, 361152, Note_on_c, 0, 53, 102
4, 361344, Note_off_c, 0, 53, 64
4, 361344, Note_on_c, 0, 52, 102
4, 361536, Note_off_c, 0, 52, 64
4, 361536, Note_on_c, 0, 50, 102
4, 361728, Note_off_c, 0, 50, 64
4, 361728, Note_on_c, 0, 48, 102
4, 361920, Note_off_c, 0, 48, 64
4, 361920, Note_on_c, 0, 47, 102
4, 362112, Note_off_c, 0, 47, 64
4, 362112, Note_on_c, 0, 45, 102
4, 362496, Note_off_c, 0, 45, 64
4, 364800, Note_on_c, 0, 48, 102
4, 365184, Note_off_c, 0, 48, 64
4, 365184, Note_on_c, 0, 48, 102
4, 365568, Note_off_c, 0, 48, 64
4, 365568, Note_on_c, 0, 50, 102
4, 365952, Note_off_c, 0, 50, 64
4, 365952, Note_on_c, 0, 52, 102
4, 366336, Note_off_c, 0, 52, 64
4, 366336, Note_on_c, 0, 52, 102
4, 366720, Note_off_c, 0, 52, 64
4, 366720, Note_on_c, 0, 45, 102
4, 367872, Note_off_c, 0, 45, 64
4, 367872, End_track
0, 0, End_of_file
