0, 0, Header, 1, 6, 1024
1, 0, Start_track
1, 0, Time_signature, 4, 2, 24, 8
1, 0, Key_signature, -2, "minor"
1, 0, Tempo, 625000
1, 90112, End_track
2, 0, Start_track
2, 0, Title_t, "Instrument 1"
2, 1024, Note_on_c, 0, 72, 96
2, 3072, Note_off_c, 0, 72, 0
2, 3072, Note_on_c, 0, 67, 96
2, 4096, Note_off_c, 0, 67, 0
2, 4096, Note_on_c, 0, 72, 96
2, 5120, Note_off_c, 0, 72, 0
2, 5120, Note_on_c, 0, 72, 96
2, 6144, Note_off_c, 0, 72, 0
2, 6144, Note_on_c, 0, 70, 96
2, 7168, Note_off_c, 0, 70, 0
2, 7168, Note_on_c, 0, 70, 96
2, 7680, Note_off_c, 0, 70, 0
2, 7680, Note_on_c, 0, 69, 96
2, 8192, Note_off_c, 0, 69, 0
2, 8192, Note_on_c, 0, 69, 96
2, 10240, Note_off_c, 0, 69, 0
2, 10240, Note_on_c, 0, 67, 96
2, 12288, Note_off_c, 0, 67, 0
2, 13312, Note_on_c, 0, 63, 96
2, 15360, Note_off_c, 0, 63, 0
2, 15360, Note_on_c, 0, 67, 96
2, 16384, Note_off_c, 0, 67, 0
2, 16384, Note_on_c, 0, 65, 96
2, 17408, Note_off_c, 0, 65, 0
2, 17408, Note_on_c, 0, 63, 96
2, 17920, Note_off_c, 0, 63, 0
2, 17920, Note_on_c, 0, 62, 96
2, 18432, Note_off_c, 0, 62, 0
2, 18432, Note_on_c, 0, 63, 96
2, 19456, Note_off_c, 0, 63, 0
2, 19456, Note_on_c, 0, 62, 96
2, 20480, Note_off_c, 0, 62, 0
2, 20480, Note_on_c, 0, 60, 96
2, 24576, Note_off_c, 0, 60, 0
2, 25600, Note_on_c, 0, 72, 96
2, 27648, Note_off_c, 0, 72, 0
2, 27648, Note_on_c, 0, 67, 96
2, 28672, Note_off_c, 0, 67, 0
2, 28672, Note_on_c, 0, 72, 96
2, 29696, Note_off_c, 0, 72, 0
2, 29696, Note_on_c, 0, 72, 96
2, 30720, Note_off_c, 0, 72, 0
2, 30720, Note_on_c, 0, 70, 96
2, 31744, Note_off_c, 0, 70, 0
2, 31744, Note_on_c, 0, 70, 96
2, 32256, Note_off_c, 0, 70, 0
2, 32256, Note_on_c, 0, 69, 96
2, 32768, Note_off_c, 0, 69, 0
2, 32768, Note_on_c, 0, 69, 96
2, 34816, Note_off_c, 0, 69, 0
2, 34816, Note_on_c, 0, 67, 96
2, 36864, Note_off_c, 0, 67, 0
2, 37888, Note_on_c, 0, 63, 96
2, 39936, Note_off_c, 0, 63, 0
2, 39936, Note_on_c, 0, 67, 96
2, 40960, Note_off_c, 0, 67, 0
2, 40960, Note_on_c, 0, 65, 96
2, 41984, Note_off_c, 0, 65, 0
2, 41984, Note_on_c, 0, 63, 96
2, 42496, Note_off_c, 0, 63, 0
2, 42496, Note_on_c, 0, 62, 96
2, 43008, Note_off_c, 0, 62, 0
2, 43008, Note_on_c, 0, 63, 96
2, 44032, Note_off_c, 0, 63, 0
2, 44032, Note_on_c, 0, 62, 96
2, 45056, Note_off_c, 0, 62, 0
2, 45056, Note_on_c, 0, 60, 96
2, 49152, Note_off_c, 0, 60, 0
2, 49152, Note_on_c, 0, 63, 96
2, 51200, Note_off_c, 0, 63, 0
2, 51200, Note_on_c, 0, 65, 96
2, 52224, Note_off_c, 0, 65, 0
2, 52224, Note_on_c, 0, 67, 96
2, 53248, Note_off_c, 0, 67, 0
2, 53248, Note_on_c, 0, 68, 96
2, 54272, Note_off_c, 0, 68, 0
2, 54272, Note_on_c, 0, 68, 96
2, 55296, Note_off_c, 0, 68, 0
2, 55296, Note_on_c, 0, 67, 96
2, 56320, Note_off_c, 0, 67, 0
2, 56320, Note_on_c, 0, 67, 96
2, 57344, Note_off_c, 0, 67, 0
2, 57344, Note_on_c, 0, 65, 96
2, 59392, Note_off_c, 0, 65, 0
2, 59392, Note_on_c, 0, 63, 96
2, 61440, Note_off_c, 0, 63, 0
2, 61440, Note_on_c, 0, 63, 96
2, 63488, Note_off_c, 0, 63, 0
2, 63488, Note_on_c, 0, 65, 96
2, 64512, Note_off_c, 0, 65, 0
2, 64512, Note_on_c, 0, 67, 96
2, 65536, Note_off_c, 0, 67, 0
2, 65536, Note_on_c, 0, 68, 96
2, 66560, Note_off_c, 0, 68, 0
2, 66560, Note_on_c, 0, 68, 96
2, 67584, Note_off_c, 0, 68, 0
2, 67584, Note_on_c, 0, 67, 96
2, 68608, Note_off_c, 0, 67, 0
2, 68608, Note_on_c, 0, 67, 96
2, 69632, Note_off_c, 0, 67, 0
2, 69632, Note_on_c, 0, 65, 96
2, 71680, Note_off_c, 0, 65, 0
2, 71680, Note_on_c, 0, 63, 96
2, 73728, Note_off_c, 0, 63, 0
2, 73728, Note_on_c, 0, 67, 96
2, 74752, Note_off_c, 0, 67, 0
2, 74752, Note_on_c, 0, 69, 96
2, 75776, Note_off_c, 0, 69, 0
2, 75776, Note_on_c, 0, 70, 96
2, 76800, Note_off_c, 0, 70, 0
2, 76800, Note_on_c, 0, 67, 96
2, 77824, Note_off_c, 0, 67, 0
2, 77824, Note_on_c, 0, 72, 96
2, 78848, Note_off_c, 0, 72, 0
2, 78848, Note_on_c, 0, 72, 96
2, 79872, Note_off_c, 0, 72, 0
2, 79872, Note_on_c, 0, 71, 96
2, 81920, Note_off_c, 0, 71, 0
2, 81920, Note_on_c, 0, 72, 96
2, 82944, Note_off_c, 0, 72, 0
2, 82944, Note_on_c, 0, 75, 96
2, 83968, Note_off_c, 0, 75, 0
2, 83968, Note_on_c, 0, 74, 96
2, 84992, Note_off_c, 0, 74, 0
2, 84992, Note_on_c, 0, 72, 96
2, 86016, Note_off_c, 0, 72, 0
2, 86016, Note_on_c, 0, 72, 96
2, 87040, Note_off_c, 0, 72, 0
2, 87040, Note_on_c, 0, 71, 96
2, 88064, Note_off_c, 0, 71, 0
2, 88064, Note_on_c, 0, 72, 96
2, 90112, Note_off_c, 0, 72, 0
2, 90112, End_track
3, 0, Start_track
3, 0, Title_t, "Instrument 2"
3, 1024, Note_on_c, 1, 63, 96
3, 3072, Note_off_c, 1, 63, 0
3, 3072, Note_on_c, 1, 62, 96
3, 4096, Note_off_c, 1, 62, 0
3, 4096, Note_on_c, 1, 66, 96
3, 4608, Note_off_c, 1, 66, 0
3, 4608, Note_on_c, 1, 67, 96
3, 5120, Note_off_c, 1, 67, 0
3, 5120, Note_on_c, 1, 69, 96
3, 6144, Note_off_c, 1, 69, 0
3, 6144, Note_on_c, 1, 69, 96
3, 6656, Note_off_c, 1, 69, 0
3, 6656, Note_on_c, 1, 67, 96
3, 7168, Note_off_c, 1, 67, 0
3, 7168, Note_on_c, 1, 67, 96
3, 8192, Note_off_c, 1, 67, 0
3, 8192, Note_on_c, 1, 67, 96
3, 9216, Note_off_c, 1, 67, 0
3, 9216, Note_on_c, 1, 66, 96
3, 10240, Note_off_c, 1, 66, 0
3, 10240, Note_on_c, 1, 62, 96
3, 12288, Note_off_c, 1, 62, 0
3, 13312, Note_on_c, 1, 60, 96
3, 15360, Note_off_c, 1, 60, 0
3, 15360, Note_on_c, 1, 60, 96
3, 16384, Note_off_c, 1, 60, 0
3, 16384, Note_on_c, 1, 62, 96
3, 16896, Note_off_c, 1, 62, 0
3, 16896, Note_on_c, 1, 59, 96
3, 17408, Note_off_c, 1, 59, 0
3, 17408, Note_on_c, 1, 60, 96
3, 18432, Note_off_c, 1, 60, 0
3, 18432, Note_on_c, 1, 60, 96
3, 19456, Note_off_c, 1, 60, 0
3, 19456, Note_on_c, 1, 59, 96
3, 20480, Note_off_c, 1, 59, 0
3, 20480, Note_on_c, 1, 55, 96
3, 24576, Note_off_c, 1, 55, 0
3, 25600, Note_on_c, 1, 63, 96
3, 27648, Note_off_c, 1, 63, 0
3, 27648, Note_on_c, 1, 62, 96
3, 28672, Note_off_c, 1, 62, 0
3, 28672, Note_on_c, 1, 66, 96
3, 29184, Note_off_c, 1, 66, 0
3, 29184, Note_on_c, 1, 67, 96
3, 29696, Note_off_c, 1, 67, 0
3, 29696, Note_on_c, 1, 69, 96
3, 30720, Note_off_c, 1, 69, 0
3, 30720, Note_on_c, 1, 69, 96
3, 31232, Note_off_c, 1, 69, 0
3, 31232, Note_on_c, 1, 67, 96
3, 31744, Note_off_c, 1, 67, 0
3, 31744, Note_on_c, 1, 67, 96
3, 32768, Note_off_c, 1, 67, 0
3, 32768, Note_on_c, 1, 67, 96
3, 33792, Note_off_c, 1, 67, 0
3, 33792, Note_on_c, 1, 66, 96
3, 34816, Note_off_c, 1, 66, 0
3, 34816, Note_on_c, 1, 62, 96
3, 36864, Note_off_c, 1, 62, 0
3, 37888, Note_on_c, 1, 60, 96
3, 39936, Note_off_c, 1, 60, 0
3, 39936, Note_on_c, 1, 60, 96
3, 40960, Note_off_c, 1, 60, 0
3, 40960, Note_on_c, 1, 62, 96
3, 41472, Note_off_c, 1, 62, 0
3, 41472, Note_on_c, 1, 59, 96
3, 41984, Note_off_c, 1, 59, 0
3, 41984, Note_on_c, 1, 60, 96
3, 43008, Note_off_c, 1, 60, 0
3, 43008, Note_on_c, 1, 60, 96
3, 44032, Note_off_c, 1, 60, 0
3, 44032, Note_on_c, 1, 59, 96
3, 45056, Note_off_c, 1, 59, 0
3, 45056, Note_on_c, 1, 55, 96
3, 49152, Note_off_c, 1, 55, 0
3, 49152, Note_on_c, 1, 60, 96
3, 51200, Note_off_c, 1, 60, 0
3, 51200, Note_on_c, 1, 62, 96
3, 52224, Note_off_c, 1, 62, 0
3, 52224, Note_on_c, 1, 63, 96
3, 53248, Note_off_c, 1, 63, 0
3, 53248, Note_on_c, 1, 65, 96
3, 54272, Note_off_c, 1, 65, 0
3, 54272, Note_on_c, 1, 65, 96
3, 55296, Note_off_c, 1, 65, 0
3, 55296, Note_on_c, 1, 65, 96
3, 55808, Note_off_c, 1, 65, 0
3, 55808, Note_on_c, 1, 62, 96
3, 56320, Note_off_c, 1, 62, 0
3, 56320, Note_on_c, 1, 63, 96
3, 57344, Note_off_c, 1, 63, 0
3, 57344, Note_on_c, 1, 63, 96
3, 58368, Note_off_c, 1, 63, 0
3, 58368, Note_on_c, 1, 62, 96
3, 59392, Note_off_c, 1, 62, 0
3, 59392, Note_on_c, 1, 58, 96
3, 61440, Note_off_c, 1, 58, 0
3, 61440, Note_on_c, 1, 60, 96
3, 63488, Note_off_c, 1, 60, 0
3, 63488, Note_on_c, 1, 62, 96
3, 64512, Note_off_c, 1, 62, 0
3, 64512, Note_on_c, 1, 63, 96
3, 65536, Note_off_c, 1, 63, 0
3, 65536, Note_on_c, 1, 65, 96
3, 66560, Note_off_c, 1, 65, 0
3, 66560, Note_on_c, 1, 65, 96
3, 67584, Note_off_c, 1, 65, 0
3, 67584, Note_on_c, 1, 65, 96
3, 68096, Note_off_c, 1, 65, 0
3, 68096, Note_on_c, 1, 62, 96
3, 68608, Note_off_c, 1, 62, 0
3, 68608, Note_on_c, 1, 63, 96
3, 69632, Note_off_c, 1, 63, 0
3, 69632, Note_on_c, 1, 63, 96
3, 70656, Note_off_c, 1, 63, 0
3, 70656, Note_on_c, 1, 62, 96
3, 71680, Note_off_c, 1, 62, 0
3, 71680, Note_on_c, 1, 58, 96
3, 73728, Note_off_c, 1, 58, 0
3, 73728, Note_on_c, 1, 63, 96
3, 74752, Note_off_c, 1, 63, 0
3, 74752, Note_on_c, 1, 63, 96
3, 75776, Note_off_c, 1, 63, 0
3, 75776, Note_on_c, 1, 65, 96
3, 76800, Note_off_c, 1, 65, 0
3, 76800, Note_on_c, 1, 63, 96
3, 77824, Note_off_c, 1, 63, 0
3, 77824, Note_on_c, 1, 63, 96
3, 78848, Note_off_c, 1, 63, 0
3, 78848, Note_on_c, 1, 63, 96
3, 79360, Note_off_c, 1, 63, 0
3, 79360, Note_on_c, 1, 62, 96
3, 79872, Note_off_c, 1, 62, 0
3, 79872, Note_on_c, 1, 62, 96
3, 81920, Note_off_c, 1, 62, 0
3, 81920, Note_on_c, 1, 67, 96
3, 82944, Note_off_c, 1, 67, 0
3, 82944, Note_on_c, 1, 67, 96
3, 83968, Note_off_c, 1, 67, 0
3, 83968, Note_on_c, 1, 68, 96
3, 84480, Note_off_c, 1, 68, 0
3, 84480, Note_on_c, 1, 67, 96
3, 85504, Note_off_c, 1, 67, 0
3, 85504, Note_on_c, 1, 65, 96
3, 86016, Note_off_c, 1, 65, 0
3, 86016, Note_on_c, 1, 67, 96
3, 87040, Note_off_c, 1, 67, 0
3, 87040, Note_on_c, 1, 67, 96
3, 88064, Note_off_c, 1, 67, 0
3, 88064, Note_on_c, 1, 67, 96
3, 90112, Note_off_c, 1, 67, 0
3, 90112, End_track
4, 0, Start_track
4, 0, Title_t, "Instrument 3"
4, 1024, Note_on_c, 2, 55, 96
4, 3072, Note_off_c, 2, 55, 0
4, 3072, Note_on_c, 2, 58, 96
4, 4096, Note_off_c, 2, 58, 0
4, 4096, Note_on_c, 2, 60, 96
4, 5120, Note_off_c, 2, 60, 0
4, 5120, Note_on_c, 2, 63, 96
4, 5632, Note_off_c, 2, 63, 0
4, 5632, Note_on_c, 2, 62, 96
4, 6144, Note_off_c, 2, 62, 0
4, 6144, Note_on_c, 2, 62, 96
4, 7168, Note_off_c, 2, 62, 0
4, 7168, Note_on_c, 2, 63, 96
4, 8192, Note_off_c, 2, 63, 0
4, 8192, Note_on_c, 2, 62, 96
4, 9728, Note_off_c, 2, 62, 0
4, 9728, Note_on_c, 2, 60, 96
4, 10240, Note_off_c, 2, 60, 0
4, 10240, Note_on_c, 2, 59, 96
4, 12288, Note_off_c, 2, 59, 0
4, 13312, Note_on_c, 2, 60, 96
4, 15360, Note_off_c, 2, 60, 0
4, 15360, Note_on_c, 2, 55, 96
4, 16384, Note_off_c, 2, 55, 0
4, 16384, Note_on_c, 2, 56, 96
4, 17408, Note_off_c, 2, 56, 0
4, 17408, Note_on_c, 2, 57, 96
4, 18432, Note_off_c, 2, 57, 0
4, 18432, Note_on_c, 2, 55, 96
4, 19456, Note_off_c, 2, 55, 0
4, 19456, Note_on_c, 2, 55, 96
4, 19968, Note_off_c, 2, 55, 0
4, 19968, Note_on_c, 2, 53, 96
4, 20480, Note_off_c, 2, 53, 0
4, 20480, Note_on_c, 2, 51, 96
4, 24576, Note_off_c, 2, 51, 0
4, 25600, Note_on_c, 2, 55, 96
4, 27648, Note_off_c, 2, 55, 0
4, 27648, Note_on_c, 2, 58, 96
4, 28672, Note_off_c, 2, 58, 0
4, 28672, Note_on_c, 2, 60, 96
4, 29696, Note_off_c, 2, 60, 0
4, 29696, Note_on_c, 2, 63, 96
4, 30208, Note_off_c, 2, 63, 0
4, 30208, Note_on_c, 2, 62, 96
4, 30720, Note_off_c, 2, 62, 0
4, 30720, Note_on_c, 2, 62, 96
4, 31744, Note_off_c, 2, 62, 0
4, 31744, Note_on_c, 2, 63, 96
4, 32768, Note_off_c, 2, 63, 0
4, 32768, Note_on_c, 2, 62, 96
4, 34304, Note_off_c, 2, 62, 0
4, 34304, Note_on_c, 2, 60, 96
4, 34816, Note_off_c, 2, 60, 0
4, 34816, Note_on_c, 2, 59, 96
4, 36864, Note_off_c, 2, 59, 0
4, 37888, Note_on_c, 2, 60, 96
4, 39936, Note_off_c, 2, 60, 0
4, 39936, Note_on_c, 2, 55, 96
4, 40960, Note_off_c, 2, 55, 0
4, 40960, Note_on_c, 2, 56, 96
4, 41984, Note_off_c, 2, 56, 0
4, 41984, Note_on_c, 2, 57, 96
4, 43008, Note_off_c, 2, 57, 0
4, 43008, Note_on_c, 2, 55, 96
4, 44032, Note_off_c, 2, 55, 0
4, 44032, Note_on_c, 2, 55, 96
4, 44544, Note_off_c, 2, 55, 0
4, 44544, Note_on_c, 2, 53, 96
4, 45056, Note_off_c, 2, 53, 0
4, 45056, Note_on_c, 2, 51, 96
4, 49152, Note_off_c, 2, 51, 0
4, 49152, Note_on_c, 2, 55, 96
4, 51200, Note_off_c, 2, 55, 0
4, 51200, Note_on_c, 2, 58, 96
4, 53248, Note_off_c, 2, 58, 0
4, 53248, Note_on_c, 2, 60, 96
4, 54272, Note_off_c, 2, 60, 0
4, 54272, Note_on_c, 2, 58, 96
4, 55296, Note_off_c, 2, 58, 0
4, 55296, Note_on_c, 2, 58, 96
4, 56320, Note_off_c, 2, 58, 0
4, 56320, Note_on_c, 2, 60, 96
4, 57344, Note_off_c, 2, 60, 0
4, 57344, Note_on_c, 2, 60, 96
4, 58368, Note_off_c, 2, 60, 0
4, 58368, Note_on_c, 2, 58, 96
4, 58880, Note_off_c, 2, 58, 0
4, 58880, Note_on_c, 2, 56, 96
4, 59392, Note_off_c, 2, 56, 0
4, 59392, Note_on_c, 2, 55, 96
4, 61440, Note_off_c, 2, 55, 0
4, 61440, Note_on_c, 2, 55, 96
4, 63488, Note_off_c, 2, 55, 0
4, 63488, Note_on_c, 2, 58, 96
4, 65536, Note_off_c, 2, 58, 0
4, 65536, Note_on_c, 2, 60, 96
4, 66560, Note_off_c, 2, 60, 0
4, 66560, Note_on_c, 2, 58, 96
4, 67584, Note_off_c, 2, 58, 0
4, 67584, Note_on_c, 2, 58, 96
4, 68608, Note_off_c, 2, 58, 0
4, 68608, Note_on_c, 2, 60, 96
4, 69632, Note_off_c, 2, 60, 0
4, 69632, Note_on_c, 2, 60, 96
4, 70656, Note_off_c, 2, 60, 0
4, 70656, Note_on_c, 2, 58, 96
4, 71168, Note_off_c, 2, 58, 0
4, 71168, Note_on_c, 2, 56, 96
4, 71680, Note_off_c, 2, 56, 0
4, 71680, Note_on_c, 2, 55, 96
4, 73728, Note_off_c, 2, 55, 0
4, 73728, Note_on_c, 2, 58, 96
4, 74752, Note_off_c, 2, 58, 0
4, 74752, Note_on_c, 2, 60, 96
4, 75776, Note_off_c, 2, 60, 0
4, 75776, Note_on_c, 2, 58, 96
4, 76800, Note_off_c, 2, 58, 0
4, 76800, Note_on_c, 2, 58, 96
4, 77824, Note_off_c, 2, 58, 0
4, 77824, Note_on_c, 2, 60, 96
4, 78336, Note_off_c, 2, 60, 0
4, 78336, Note_on_c, 2, 58, 96
4, 78848, Note_off_c, 2, 58, 0
4, 78848, Note_on_c, 2, 57, 96
4, 79872, Note_off_c, 2, 57, 0
4, 79872, Note_on_c, 2, 55, 96
4, 81920, Note_off_c, 2, 55, 0
4, 81920, Note_on_c, 2, 55, 96
4, 82944, Note_off_c, 2, 55, 0
4, 82944, Note_on_c, 2, 60, 96
4, 83968, Note_off_c, 2, 60, 0
4, 83968, Note_on_c, 2, 60, 96
4, 84480, Note_off_c, 2, 60, 0
4, 84480, Note_on_c, 2, 59, 96
4, 84992, Note_off_c, 2, 59, 0
4, 84992, Note_on_c, 2, 60, 96
4, 85504, Note_off_c, 2, 60, 0
4, 85504, Note_on_c, 2, 62, 96
4, 86016, Note_off_c, 2, 62, 0
4, 86016, Note_on_c, 2, 63, 96
4, 87040, Note_off_c, 2, 63, 0
4, 87040, Note_on_c, 2, 62, 96
4, 88064, Note_off_c, 2, 62, 0
4, 88064, Note_on_c, 2, 64, 96
4, 90112, Note_off_c, 2, 64, 0
4, 90112, End_track
5, 0, Start_track
5, 0, Title_t, "Instrument 4"
5, 1024, Note_on_c, 3, 48, 96
5, 3072, Note_off_c, 3, 48, 0
5, 3072, Note_on_c, 3, 46, 96
5, 4096, Note_off_c, 3, 46, 0
5, 4096, Note_on_c, 3, 45, 96
5, 5120, Note_off_c, 3, 45, 0
5, 5120, Note_on_c, 3, 54, 96
5, 6144, Note_off_c, 3, 54, 0
5, 6144, Note_on_c, 3, 55, 96
5, 7168, Note_off_c, 3, 55, 0
5, 7168, Note_on_c, 3, 48, 96
5, 8192, Note_off_c, 3, 48, 0
5, 8192, Note_on_c, 3, 50, 96
5, 10240, Note_off_c, 3, 50, 0
5, 10240, Note_on_c, 3, 43, 96
5, 12288, Note_off_c, 3, 43, 0
5, 13312, Note_on_c, 3, 56, 96
5, 15360, Note_off_c, 3, 56, 0
5, 15360, Note_on_c, 3, 51, 96
5, 16384, Note_off_c, 3, 51, 0
5, 16384, Note_on_c, 3, 53, 96
5, 17408, Note_off_c, 3, 53, 0
5, 17408, Note_on_c, 3, 54, 96
5, 18432, Note_off_c, 3, 54, 0
5, 18432, Note_on_c, 3, 55, 96
5, 19456, Note_off_c, 3, 55, 0
5, 19456, Note_on_c, 3, 43, 96
5, 20480, Note_off_c, 3, 43, 0
5, 20480, Note_on_c, 3, 48, 96
5, 24576, Note_off_c, 3, 48, 0
5, 25600, Note_on_c, 3, 48, 96
5, 27648, Note_off_c, 3, 48, 0
5, 27648, Note_on_c, 3, 46, 96
5, 28672, Note_off_c, 3, 46, 0
5, 28672, Note_on_c, 3, 45, 96
5, 29696, Note_off_c, 3, 45, 0
5, 29696, Note_on_c, 3, 54, 96
5, 30720, Note_off_c, 3, 54, 0
5, 30720, Note_on_c, 3, 55, 96
5, 31744, Note_off_c, 3, 55, 0
5, 31744, Note_on_c, 3, 48, 96
5, 32768, Note_off_c, 3, 48, 0
5, 32768, Note_on_c, 3, 50, 96
5, 34816, Note_off_c, 3, 50, 0
5, 34816, Note_on_c, 3, 43, 96
5, 36864, Note_off_c, 3, 43, 0
5, 37888, Note_on_c, 3, 56, 96
5, 39936, Note_off_c, 3, 56, 0
5, 39936, Note_on_c, 3, 51, 96
5, 40960, Note_off_c, 3, 51, 0
5, 40960, Note_on_c, 3, 53, 96
5, 41984, Note_off_c, 3, 53, 0
5, 41984, Note_on_c, 3, 54, 96
5, 43008, Note_off_c, 3, 54, 0
5, 43008, Note_on_c, 3, 55, 96
5, 44032, Note_off_c, 3, 55, 0
5, 44032, Note_on_c, 3, 43, 96
5, 45056, Note_off_c, 3, 43, 0
5, 45056, Note_on_c, 3, 48, 96
5, 49152, Note_off_c, 3, 48, 0
5, 49152, Note_on_c, 3, 60, 96
5, 50176, Note_off_c, 3, 60, 0
5, 50176, Note_on_c, 3, 58, 96
5, 51200, Note_off_c, 3, 58, 0
5, 51200, Note_on_c, 3, 56, 96
5, 52224, Note_off_c, 3, 56, 0
5, 52224, Note_on_c, 3, 55, 96
5, 53248, Note_off_c, 3, 55, 0
5, 53248, Note_on_c, 3, 53, 96
5, 54272, Note_off_c, 3, 53, 0
5, 54272, Note_on_c, 3, 50, 96
5, 55296, Note_off_c, 3, 50, 0
5, 55296, Note_on_c, 3, 51, 96
5, 56320, Note_off_c, 3, 51, 0
5, 56320, Note_on_c, 3, 48, 96
5, 57344, Note_off_c, 3, 48, 0
5, 57344, Note_on_c, 3, 44, 96
5, 58368, Note_off_c, 3, 44, 0
5, 58368, Note_on_c, 3, 46, 96
5, 59392, Note_off_c, 3, 46, 0
5, 59392, Note_on_c, 3, 51, 96
5, 61440, Note_off_c, 3, 51, 0
5, 61440, Note_on_c, 3, 60, 96
5, 62464, Note_off_c, 3, 60, 0
5, 62464, Note_on_c, 3, 58, 96
5, 63488, Note_off_c, 3, 58, 0
5, 63488, Note_on_c, 3, 56, 96
5, 64512, Note_off_c, 3, 56, 0
5, 64512, Note_on_c, 3, 55, 96
5, 65536, Note_off_c, 3, 55, 0
5, 65536, Note_on_c, 3, 53, 96
5, 66560, Note_off_c, 3, 53, 0
5, 66560, Note_on_c, 3, 50, 96
5, 67584, Note_off_c, 3, 50, 0
5, 67584, Note_on_c, 3, 51, 96
5, 68608, Note_off_c, 3, 51, 0
5, 68608, Note_on_c, 3, 48, 96
5, 69632, Note_off_c, 3, 48, 0
5, 69632, Note_on_c, 3, 44, 96
5, 70656, Note_off_c, 3, 44, 0
5, 70656, Note_on_c, 3, 46, 96
5, 71680, Note_off_c, 3, 46, 0
5, 71680, Note_on_c, 3, 51, 96
5, 73728, Note_off_c, 3, 51, 0
5, 73728, Note_on_c, 3, 51, 96
5, 74752, Note_off_c, 3, 51, 0
5, 74752, Note_on_c, 3, 48, 96
5, 75776, Note_off_c, 3, 48, 0
5, 75776, Note_on_c, 3, 50, 96
5, 76800, Note_off_c, 3, 50, 0
5, 76800, Note_on_c, 3, 51, 96
5, 77824, Note_off_c, 3, 51, 0
5, 77824, Note_on_c, 3, 56, 96
5, 78336, Note_off_c, 3, 56, 0
5, 78336, Note_on_c, 3, 55, 96
5, 78848, Note_off_c, 3, 55, 0
5, 78848, Note_on_c, 3, 54, 96
5, 79872, Note_off_c, 3, 54, 0
5, 79872, Note_on_c, 3, 55, 96
5, 81920, Note_off_c, 3, 55, 0
5, 81920, Note_on_c, 3, 51, 96
5, 82432, Note_off_c, 3, 51, 0
5, 82432, Note_on_c, 3, 50, 96
5, 82944, Note_off_c, 3, 50, 0
5, 82944, Note_on_c, 3, 48, 96
5, 83968, Note_off_c, 3, 48, 0
5, 83968, Note_on_c, 3, 53, 96
5, 84480, Note_off_c, 3, 53, 0
5, 84480, Note_on_c, 3, 55, 96
5, 84992, Note_off_c, 3, 55, 0
5, 84992, Note_on_c, 3, 56, 96
5, 86016, Note_off_c, 3, 56, 0
5, 86016, Note_on_c, 3, 55, 96
5, 87040, Note_off_c, 3, 55, 0
5, 87040, Note_on_c, 3, 43, 96
5, 88064, Note_off_c, 3, 43, 0
5, 88064, Note_on_c, 3, 48, 96
5, 90112, Note_off_c, 3, 48, 0
5, 90112, End_track
6, 0, Start_track
6, 0, Title_t, "Instrument 5"
6, 1024, Note_on_c, 4, 48, 96
6, 3072, Note_off_c, 4, 48, 0
6, 3072, Note_on_c, 4, 46, 96
6, 4096, Note_off_c, 4, 46, 0
6, 4096, Note_on_c, 4, 45, 96
6, 5120, Note_off_c, 4, 45, 0
6, 5120, Note_on_c, 4, 54, 96
6, 6144, Note_off_c, 4, 54, 0
6, 6144, Note_on_c, 4, 55, 96
6, 7168, Note_off_c, 4, 55, 0
6, 7168, Note_on_c, 4, 48, 96
6, 8192, Note_off_c, 4, 48, 0
6, 8192, Note_on_c, 4, 50, 96
6, 10240, Note_off_c, 4, 50, 0
6, 10240, Note_on_c, 4, 43, 96
6, 12288, Note_off_c, 4, 43, 0
6, 13312, Note_on_c, 4, 44, 96
6, 15360, Note_off_c, 4, 44, 0
6, 15360, Note_on_c, 4, 51, 96
6, 16384, Note_off_c, 4, 51, 0
6, 16384, Note_on_c, 4, 53, 96
6, 17408, Note_off_c, 4, 53, 0
6, 17408, Note_on_c, 4, 54, 96
6, 18432, Note_off_c, 4, 54, 0
6, 18432, Note_on_c, 4, 55, 96
6, 19456, Note_off_c, 4, 55, 0
6, 19456, Note_on_c, 4, 43, 96
6, 20480, Note_off_c, 4, 43, 0
6, 20480, Note_on_c, 4, 48, 96
6, 24576, Note_off_c, 4, 48, 0
6, 25600, Note_on_c, 4, 48, 96
6, 27648, Note_off_c, 4, 48, 0
6, 27648, Note_on_c, 4, 46, 96
6, 28672, Note_off_c, 4, 46, 0
6, 28672, Note_on_c, 4, 45, 96
6, 29696, Note_off_c, 4, 45, 0
6, 29696, Note_on_c, 4, 54, 96
6, 30720, Note_off_c, 4, 54, 0
6, 30720, Note_on_c, 4, 55, 96
6, 31744, Note_off_c, 4, 55, 0
6, 31744, Note_on_c, 4, 48, 96
6, 32768, Note_off_c, 4, 48, 0
6, 32768, Note_on_c, 4, 50, 96
6, 34816, Note_off_c, 4, 50, 0
6, 34816, Note_on_c, 4, 43, 96
6, 36864, Note_off_c, 4, 43, 0
6, 37888, Note_on_c, 4, 44, 96
6, 39936, Note_off_c, 4, 44, 0
6, 39936, Note_on_c, 4, 51, 96
6, 40960, Note_off_c, 4, 51, 0
6, 40960, Note_on_c, 4, 53, 96
6, 41984, Note_off_c, 4, 53, 0
6, 41984, Note_on_c, 4, 54, 96
6, 43008, Note_off_c, 4, 54, 0
6, 43008, Note_on_c, 4, 55, 96
6, 44032, Note_off_c, 4, 55, 0
6, 44032, Note_on_c, 4, 43, 96
6, 45056, Note_off_c, 4, 43, 0
6, 45056, Note_on_c, 4, 48, 96
6, 49152, Note_off_c, 4, 48, 0
6, 49152, Note_on_c, 4, 48, 96
6, 50176, Note_off_c, 4, 48, 0
6, 50176, Note_on_c, 4, 46, 96
6, 51200, Note_off_c, 4, 46, 0
6, 51200, Note_on_c, 4, 44, 96
6, 52224, Note_off_c, 4, 44, 0
6, 52224, Note_on_c, 4, 43, 96
6, 53248, Note_off_c, 4, 43, 0
6, 53248, Note_on_c, 4, 41, 96
6, 54272, Note_off_c, 4, 41, 0
6, 54272, Note_on_c, 4, 50, 96
6, 55296, Note_off_c, 4, 50, 0
6, 55296, Note_on_c, 4, 51, 96
6, 56320, Note_off_c, 4, 51, 0
6, 56320, Note_on_c, 4, 48, 96
6, 57344, Note_off_c, 4, 48, 0
6, 57344, Note_on_c, 4, 44, 96
6, 58368, Note_off_c, 4, 44, 0
6, 58368, Note_on_c, 4, 46, 96
6, 59392, Note_off_c, 4, 46, 0
6, 59392, Note_on_c, 4, 39, 96
6, 61440, Note_off_c, 4, 39, 0
6, 61440, Note_on_c, 4, 48, 96
6, 62464, Note_off_c, 4, 48, 0
6, 62464, Note_on_c, 4, 46, 96
6, 63488, Note_off_c, 4, 46, 0
6, 63488, Note_on_c, 4, 44, 96
6, 64512, Note_off_c, 4, 44, 0
6, 64512, Note_on_c, 4, 43, 96
6, 65536, Note_off_c, 4, 43, 0
6, 65536, Note_on_c, 4, 41, 96
6, 66560, Note_off_c, 4, 41, 0
6, 66560, Note_on_c, 4, 50, 96
6, 67584, Note_off_c, 4, 50, 0
6, 67584, Note_on_c, 4, 51, 96
6, 68608, Note_off_c, 4, 51, 0
6, 68608, Note_on_c, 4, 48, 96
6, 69632, Note_off_c, 4, 48, 0
6, 69632, Note_on_c, 4, 44, 96
6, 70656, Note_off_c, 4, 44, 0
6, 70656, Note_on_c, 4, 46, 96
6, 71680, Note_off_c, 4, 46, 0
6, 71680, Note_on_c, 4, 39, 96
6, 73728, Note_off_c, 4, 39, 0
6, 73728, Note_on_c, 4, 51, 96
6, 74752, Note_off_c, 4, 51, 0
6, 74752, Note_on_c, 4, 48, 96
6, 75776, Note_off_c, 4, 48, 0
6, 75776, Note_on_c, 4, 50, 96
6, 76800, Note_off_c, 4, 50, 0
6, 76800, Note_on_c, 4, 51, 96
6, 77824, Note_off_c, 4, 51, 0
6, 77824, Note_on_c, 4, 44, 96
6, 78336, Note_off_c, 4, 44, 0
6, 78336, Note_on_c, 4, 43, 96
6, 78848, Note_off_c, 4, 43, 0
6, 78848, Note_on_c, 4, 42, 96
6, 79872, Note_off_c, 4, 42, 0
6, 79872, Note_on_c, 4, 43, 96
6, 81920, Note_off_c, 4, 43, 0
6, 81920, Note_on_c, 4, 51, 96
6, 82432, Note_off_c, 4, 51, 0
6, 82432, Note_on_c, 4, 50, 96
6, 82944, Note_off_c, 4, 50, 0
6, 82944, Note_on_c, 4, 48, 96
6, 83968, Note_off_c, 4, 48, 0
6, 83968, Note_on_c, 4, 53, 96
6, 84480, Note_off_c, 4, 53, 0
6, 84480, Note_on_c, 4, 55, 96
6, 84992, Note_off_c, 4, 55, 0
6, 84992, Note_on_c, 4, 56, 96
6, 86016, Note_off_c, 4, 56, 0
6, 86016, Note_on_c, 4, 55, 96
6, 87040, Note_off_c, 4, 55, 0
6, 87040, Note_on_c, 4, 43, 96
6, 88064, Note_off_c, 4, 43, 0
6, 88064, Note_on_c, 4, 36, 96
6, 90112, Note_off_c, 4, 36, 0
6, 90112, End_track
0, 0, End_of_file
