0, 0, Header, 1, 4, 480
1, 0, Start_track
1, 0, Title_t, "Track 1"
1, 0, Tempo, 800000
1, 0, Time_signature, 3, 2, 24, 8
1, 220320, Tempo, 857142
1, 220800, Tempo, 923076
1, 221760, Tempo, 2000000
1, 222240, Tempo, 500000
1, 224640, Tempo, 1714285
1, 224640, Time_signature, 6, 3, 24, 8
1, 303840, Tempo, 800000
1, 303840, Time_signature, 2, 2, 24, 8
1, 456480, Tempo, 857142
1, 459360, Tempo, 1333333
1, 460320, End_track
2, 0, Start_track
2, 0, Title_t, "Track 1"
2, 0, Program_c, 0, 19
2, 120, Note_on_c, 0, 72, 92
2, 240, Note_off_c, 0, 72, 64
2, 240, Note_on_c, 0, 71, 92
2, 360, Note_off_c, 0, 71, 64
2, 360, Note_on_c, 0, 72, 92
2, 480, Note_off_c, 0, 72, 64
2, 480, Note_on_c, 0, 76, 92
2, 600, Note_off_c, 0, 76, 64
2, 600, Note_on_c, 0, 72, 92
2, 720, Note_off_c, 0, 72, 64
2, 720, Note_on_c, 0, 71, 92
2, 840, Note_off_c, 0, 71, 64
2, 840, Note_on_c, 0, 72, 92
2, 960, Note_off_c, 0, 72, 64
2, 960, Note_on_c, 0, 67, 92
2, 1080, Note_off_c, 0, 67, 64
2, 1080, Note_on_c, 0, 72, 92
2, 1200, Note_off_c, 0, 72, 64
2, 1200, Note_on_c, 0, 64, 92
2, 1320, Note_off_c, 0, 64, 64
2, 1320, Note_on_c, 0, 67, 92
2, 1440, Note_off_c, 0, 67, 64
2, 1440, Note_on_c, 0, 60, 92
2, 1680, Note_off_c, 0, 60, 64
2, 1680, Note_on_c, 0, 79, 92
2, 1920, Note_off_c, 0, 79, 64
2, 1920, Note_on_c, 0, 76, 92
2, 2160, Note_off_c, 0, 76, 64
2, 2160, Note_on_c, 0, 79, 92
2, 2400, Note_off_c, 0, 79, 64
2, 2400, Note_on_c, 0, 81, 92
2, 2640, Note_off_c, 0, 81, 64
2, 2640, Note_on_c, 0, 79, 92
2, 2760, Note_off_c, 0, 79, 64
2, 2760, Note_on_c, 0, 77, 92
2, 2880, Note_off_c, 0, 77, 64
2, 2880, Note_on_c, 0, 79, 92
2, 3360, Note_off_c, 0, 79, 64
2, 4560, Note_on_c, 0, 76, 92
2, 4800, Note_off_c, 0, 76, 64
2, 4800, Note_on_c, 0, 72, 92
2, 5040, Note_off_c, 0, 72, 64
2, 5040, Note_on_c, 0, 76, 92
2, 5280, Note_off_c, 0, 76, 64
2, 5280, Note_on_c, 0, 77, 92
2, 5520, Note_off_c, 0, 77, 64
2, 5520, Note_on_c, 0, 76, 92
2, 5640, Note_off_c, 0, 76, 64
2, 5640, Note_on_c, 0, 74, 92
2, 5760, Note_off_c, 0, 74, 64
2, 5760, Note_on_c, 0, 76, 92
2, 6000, Note_off_c, 0, 76, 64
2, 6000, Note_on_c, 0, 79, 92
2, 6240, Note_off_c, 0, 79, 64
2, 6240, Note_on_c, 0, 72, 92
2, 6480, Note_off_c, 0, 72, 64
2, 6480, Note_on_c, 0, 76, 92
2, 6720, Note_off_c, 0, 76, 64
2, 6720, Note_on_c, 0, 69, 92
2, 6840, Note_off_c, 0, 69, 64
2, 6840, Note_on_c, 0, 72, 92
2, 6960, Note_off_c, 0, 72, 64
2, 6960, Note_on_c, 0, 74, 92
2, 7080, Note_off_c, 0, 74, 64
2, 7080, Note_on_c, 0, 76, 92
2, 7200, Note_off_c, 0, 76, 64
2, 7200, Note_on_c, 0, 77, 92
2, 7440, Note_off_c, 0, 77, 64
2, 7440, Note_on_c, 0, 81, 92
2, 7680, Note_off_c, 0, 81, 64
2, 7680, Note_on_c, 0, 74, 92
2, 7920, Note_off_c, 0, 74, 64
2, 7920, Note_on_c, 0, 77, 92
2, 8160, Note_off_c, 0, 77, 64
2, 8160, Note_on_c, 0, 71, 92
2, 8280, Note_off_c, 0, 71, 64
2, 8280, Note_on_c, 0, 74, 92
2, 8400, Note_off_c, 0, 74, 64
2, 8400, Note_on_c, 0, 76, 92
2, 8520, Note_off_c, 0, 76, 64
2, 8520, Note_on_c, 0, 77, 92
2, 8640, Note_off_c, 0, 77, 64
2, 8640, Note_on_c, 0, 79, 92
2, 8880, Note_off_c, 0, 79, 64
2, 8880, Note_on_c, 0, 84, 92
2, 9000, Note_off_c, 0, 84, 64
2, 9000, Note_on_c, 0, 79, 92
2, 9120, Note_off_c, 0, 79, 64
2, 9120, Note_on_c, 0, 76, 92
2, 9360, Note_off_c, 0, 76, 64
2, 9360, Note_on_c, 0, 79, 92
2, 9480, Note_off_c, 0, 79, 64
2, 9480, Note_on_c, 0, 76, 92
2, 9600, Note_off_c, 0, 76, 64
2, 9600, Note_on_c, 0, 72, 92
2, 9720, Note_off_c, 0, 72, 64
2, 9720, Note_on_c, 0, 76, 92
2, 9840, Note_off_c, 0, 76, 64
2, 9840, Note_on_c, 0, 77, 92
2, 9960, Note_off_c, 0, 77, 64
2, 9960, Note_on_c, 0, 79, 92
2, 10080, Note_off_c, 0, 79, 64
2, 10080, Note_on_c, 0, 81, 92
2, 10200, Note_off_c, 0, 81, 64
2, 10200, Note_on_c, 0, 79, 92
2, 10320, Note_off_c, 0, 79, 64
2, 10320, Note_on_c, 0, 81, 92
2, 10440, Note_off_c, 0, 81, 64
2, 10440, Note_on_c, 0, 82, 92
2, 10560, Note_off_c, 0, 82, 64
2, 10560, Note_on_c, 0, 81, 92
2, 10680, Note_off_c, 0, 81, 64
2, 10680, Note_on_c, 0, 79, 92
2, 10800, Note_off_c, 0, 79, 64
2, 10800, Note_on_c, 0, 77, 92
2, 10920, Note_off_c, 0, 77, 64
2, 10920, Note_on_c, 0, 76, 92
2, 11040, Note_off_c, 0, 76, 64
2, 11040, Note_on_c, 0, 74, 92
2, 11160, Note_off_c, 0, 74, 64
2, 11160, Note_on_c, 0, 72, 92
2, 11280, Note_off_c, 0, 72, 64
2, 11280, Note_on_c, 0, 71, 92
2, 11400, Note_off_c, 0, 71, 64
2, 11400, Note_on_c, 0, 69, 92
2, 11520, Note_off_c, 0, 69, 64
2, 11520, Note_on_c, 0, 71, 92
2, 11640, Note_off_c, 0, 71, 64
2, 11640, Note_on_c, 0, 72, 92
2, 11760, Note_off_c, 0, 72, 64
2, 11760, Note_on_c, 0, 71, 92
2, 11880, Note_off_c, 0, 71, 64
2, 11880, Note_on_c, 0, 67, 92
2, 12000, Note_off_c, 0, 67, 64
2, 12000, Note_on_c, 0, 74, 92
2, 12120, Note_off_c, 0, 74, 64
2, 12120, Note_on_c, 0, 76, 92
2, 12240, Note_off_c, 0, 76, 64
2, 12240, Note_on_c, 0, 74, 92
2, 12360, Note_off_c, 0, 74, 64
2, 12360, Note_on_c, 0, 71, 92
2, 12480, Note_off_c, 0, 71, 64
2, 12480, Note_on_c, 0, 77, 92
2, 12600, Note_off_c, 0, 77, 64
2, 12600, Note_on_c, 0, 79, 92
2, 12720, Note_off_c, 0, 79, 64
2, 12720, Note_on_c, 0, 77, 92
2, 12840, Note_off_c, 0, 77, 64
2, 12840, Note_on_c, 0, 74, 92
2, 12960, Note_off_c, 0, 74, 64
2, 12960, Note_on_c, 0, 75, 92
2, 13200, Note_off_c, 0, 75, 64
2, 13200, Note_on_c, 0, 72, 92
2, 13440, Note_off_c, 0, 72, 64
2, 13440, Note_on_c, 0, 79, 92
2, 13680, Note_off_c, 0, 79, 64
2, 13680, Note_on_c, 0, 75, 92
2, 13920, Note_off_c, 0, 75, 64
2, 13920, Note_on_c, 0, 84, 92
2, 14520, Note_off_c, 0, 84, 64
2, 14520, Note_on_c, 0, 82, 92
2, 14640, Note_off_c, 0, 82, 64
2, 14640, Note_on_c, 0, 81, 92
2, 14760, Note_off_c, 0, 81, 64
2, 14760, Note_on_c, 0, 79, 92
2, 14880, Note_off_c, 0, 79, 64
2, 14880, Note_on_c, 0, 78, 92
2, 15000, Note_off_c, 0, 78, 64
2, 15000, Note_on_c, 0, 81, 92
2, 15120, Note_off_c, 0, 81, 64
2, 15120, Note_on_c, 0, 75, 92
2, 15240, Note_off_c, 0, 75, 64
2, 15240, Note_on_c, 0, 74, 92
2, 15360, Note_off_c, 0, 74, 64
2, 15360, Note_on_c, 0, 75, 92
2, 15480, Note_off_c, 0, 75, 64
2, 15480, Note_on_c, 0, 72, 92
2, 15600, Note_off_c, 0, 72, 64
2, 15600, Note_on_c, 0, 79, 92
2, 15720, Note_off_c, 0, 79, 64
2, 15720, Note_on_c, 0, 78, 92
2, 15840, Note_off_c, 0, 78, 64
2, 15840, Note_on_c, 0, 79, 92
2, 15960, Note_off_c, 0, 79, 64
2, 15960, Note_on_c, 0, 74, 92
2, 16080, Note_off_c, 0, 74, 64
2, 16080, Note_on_c, 0, 72, 92
2, 16200, Note_off_c, 0, 72, 64
2, 16200, Note_on_c, 0, 74, 92
2, 16320, Note_off_c, 0, 74, 64
2, 16320, Note_on_c, 0, 83, 92
2, 17400, Note_off_c, 0, 83, 64
2, 17400, Note_on_c, 0, 72, 92
2, 17520, Note_off_c, 0, 72, 64
2, 17520, Note_on_c, 0, 71, 92
2, 17640, Note_off_c, 0, 71, 64
2, 17640, Note_on_c, 0, 72, 92
2, 17760, Note_off_c, 0, 72, 64
2, 17760, Note_on_c, 0, 81, 92
2, 18840, Note_off_c, 0, 81, 64
2, 18840, Note_on_c, 0, 71, 92
2, 18960, Note_off_c, 0, 71, 64
2, 18960, Note_on_c, 0, 69, 92
2, 19080, Note_off_c, 0, 69, 64
2, 19080, Note_on_c, 0, 71, 92
2, 19200, Note_off_c, 0, 71, 64
2, 19200, Note_on_c, 0, 79, 92
2, 20280, Note_off_c, 0, 79, 64
2, 20280, Note_on_c, 0, 78, 92
2, 20400, Note_off_c, 0, 78, 64
2, 20400, Note_on_c, 0, 76, 92
2, 20520, Note_off_c, 0, 76, 64
2, 20520, Note_on_c, 0, 74, 92
2, 20640, Note_off_c, 0, 74, 64
2, 20640, Note_on_c, 0, 72, 92
2, 20760, Note_off_c, 0, 72, 64
2, 20760, Note_on_c, 0, 71, 92
2, 20880, Note_off_c, 0, 71, 64
2, 20880, Note_on_c, 0, 69, 92
2, 21000, Note_off_c, 0, 69, 64
2, 21000, Note_on_c, 0, 67, 92
2, 21120, Note_off_c, 0, 67, 64
2, 21120, Note_on_c, 0, 66, 92
2, 21240, Note_off_c, 0, 66, 64
2, 21240, Note_on_c, 0, 64, 92
2, 21360, Note_off_c, 0, 64, 64
2, 21360, Note_on_c, 0, 62, 92
2, 21480, Note_off_c, 0, 62, 64
2, 21480, Note_on_c, 0, 60, 92
2, 21600, Note_off_c, 0, 60, 64
2, 21600, Note_on_c, 0, 62, 92
2, 21840, Note_off_c, 0, 62, 64
2, 21840, Note_on_c, 0, 72, 92
2, 22080, Note_off_c, 0, 72, 64
2, 22080, Note_on_c, 0, 71, 92
2, 22320, Note_off_c, 0, 71, 64
2, 22320, Note_on_c, 0, 76, 92
2, 22440, Note_off_c, 0, 76, 64
2, 22440, Note_on_c, 0, 74, 92
2, 22560, Note_off_c, 0, 74, 64
2, 22560, Note_on_c, 0, 72, 92
2, 22680, Note_off_c, 0, 72, 64
2, 22680, Note_on_c, 0, 71, 92
2, 22800, Note_off_c, 0, 71, 64
2, 22800, Note_on_c, 0, 69, 92
2, 22920, Note_off_c, 0, 69, 64
2, 22920, Note_on_c, 0, 67, 92
2, 23040, Note_off_c, 0, 67, 64
2, 23040, Note_on_c, 0, 67, 92
2, 23520, Note_off_c, 0, 67, 64
2, 24720, Note_on_c, 0, 83, 92
2, 24960, Note_off_c, 0, 83, 64
2, 24960, Note_on_c, 0, 79, 92
2, 25200, Note_off_c, 0, 79, 64
2, 25200, Note_on_c, 0, 83, 92
2, 25440, Note_off_c, 0, 83, 64
2, 25440, Note_on_c, 0, 84, 92
2, 25680, Note_off_c, 0, 84, 64
2, 25680, Note_on_c, 0, 83, 92
2, 25800, Note_off_c, 0, 83, 64
2, 25800, Note_on_c, 0, 81, 92
2, 25920, Note_off_c, 0, 81, 64
2, 25920, Note_on_c, 0, 83, 92
2, 26040, Note_off_c, 0, 83, 64
2, 26040, Note_on_c, 0, 79, 92
2, 26160, Note_off_c, 0, 79, 64
2, 26160, Note_on_c, 0, 78, 92
2, 26280, Note_off_c, 0, 78, 64
2, 26280, Note_on_c, 0, 79, 92
2, 26400, Note_off_c, 0, 79, 64
2, 26400, Note_on_c, 0, 83, 92
2, 26520, Note_off_c, 0, 83, 64
2, 26520, Note_on_c, 0, 79, 92
2, 26640, Note_off_c, 0, 79, 64
2, 26640, Note_on_c, 0, 78, 92
2, 26760, Note_off_c, 0, 78, 64
2, 26760, Note_on_c, 0, 79, 92
2, 26880, Note_off_c, 0, 79, 64
2, 26880, Note_on_c, 0, 74, 92
2, 27000, Note_off_c, 0, 74, 64
2, 27000, Note_on_c, 0, 79, 92
2, 27120, Note_off_c, 0, 79, 64
2, 27120, Note_on_c, 0, 71, 92
2, 27240, Note_off_c, 0, 71, 64
2, 27240, Note_on_c, 0, 74, 92
2, 27360, Note_off_c, 0, 74, 64
2, 27360, Note_on_c, 0, 67, 92
2, 27600, Note_off_c, 0, 67, 64
2, 27600, Note_on_c, 0, 74, 92
2, 27840, Note_off_c, 0, 74, 64
2, 27840, Note_on_c, 0, 71, 92
2, 28080, Note_off_c, 0, 71, 64
2, 28080, Note_on_c, 0, 74, 92
2, 28320, Note_off_c, 0, 74, 64
2, 28320, Note_on_c, 0, 76, 92
2, 28560, Note_off_c, 0, 76, 64
2, 28560, Note_on_c, 0, 74, 92
2, 28680, Note_off_c, 0, 74, 64
2, 28680, Note_on_c, 0, 72, 92
2, 28800, Note_off_c, 0, 72, 64
2, 28800, Note_on_c, 0, 74, 92
2, 28920, Note_off_c, 0, 74, 64
2, 28920, Note_on_c, 0, 71, 92
2, 29040, Note_off_c, 0, 71, 64
2, 29040, Note_on_c, 0, 67, 92
2, 29160, Note_off_c, 0, 67, 64
2, 29160, Note_on_c, 0, 71, 92
2, 29280, Note_off_c, 0, 71, 64
2, 29280, Note_on_c, 0, 76, 92
2, 29400, Note_off_c, 0, 76, 64
2, 29400, Note_on_c, 0, 71, 92
2, 29520, Note_off_c, 0, 71, 64
2, 29520, Note_on_c, 0, 67, 92
2, 29640, Note_off_c, 0, 67, 64
2, 29640, Note_on_c, 0, 71, 92
2, 29760, Note_off_c, 0, 71, 64
2, 29760, Note_on_c, 0, 79, 92
2, 30360, Note_off_c, 0, 79, 64
2, 30360, Note_on_c, 0, 72, 92
2, 30480, Note_off_c, 0, 72, 64
2, 30480, Note_on_c, 0, 69, 92
2, 30600, Note_off_c, 0, 69, 64
2, 30600, Note_on_c, 0, 72, 92
2, 30720, Note_off_c, 0, 72, 64
2, 30720, Note_on_c, 0, 78, 92
2, 30840, Note_off_c, 0, 78, 64
2, 30840, Note_on_c, 0, 72, 92
2, 30960, Note_off_c, 0, 72, 64
2, 30960, Note_on_c, 0, 69, 92
2, 31080, Note_off_c, 0, 69, 64
2, 31080, Note_on_c, 0, 72, 92
2, 31200, Note_off_c, 0, 72, 64
2, 31200, Note_on_c, 0, 81, 92
2, 31800, Note_off_c, 0, 81, 64
2, 31800, Note_on_c, 0, 74, 92
2, 31920, Note_off_c, 0, 74, 64
2, 31920, Note_on_c, 0, 71, 92
2, 32040, Note_off_c, 0, 71, 64
2, 32040, Note_on_c, 0, 74, 92
2, 32160, Note_off_c, 0, 74, 64
2, 32160, Note_on_c, 0, 79, 92
2, 32280, Note_off_c, 0, 79, 64
2, 32280, Note_on_c, 0, 74, 92
2, 32400, Note_off_c, 0, 74, 64
2, 32400, Note_on_c, 0, 71, 92
2, 32520, Note_off_c, 0, 71, 64
2, 32520, Note_on_c, 0, 74, 92
2, 32640, Note_off_c, 0, 74, 64
2, 32640, Note_on_c, 0, 83, 92
2, 33360, Note_off_c, 0, 83, 64
2, 33360, Note_on_c, 0, 81, 92
2, 33480, Note_off_c, 0, 81, 64
2, 33480, Note_on_c, 0, 80, 92
2, 33600, Note_off_c, 0, 80, 64
2, 33600, Note_on_c, 0, 81, 92
2, 33840, Note_off_c, 0, 81, 64
2, 33840, Note_on_c, 0, 76, 92
2, 34080, Note_off_c, 0, 76, 64
2, 34080, Note_on_c, 0, 84, 92
2, 34800, Note_off_c, 0, 84, 64
2, 34800, Note_on_c, 0, 81, 92
2, 35040, Note_off_c, 0, 81, 64
2, 35040, Note_on_c, 0, 78, 92
2, 35280, Note_off_c, 0, 78, 64
2, 35280, Note_on_c, 0, 81, 92
2, 35520, Note_off_c, 0, 81, 64
2, 35520, Note_on_c, 0, 74, 92
2, 35760, Note_off_c, 0, 74, 64
2, 35760, Note_on_c, 0, 78, 92
2, 36000, Note_off_c, 0, 78, 64
2, 36000, Note_on_c, 0, 79, 92
2, 36120, Note_off_c, 0, 79, 64
2, 36120, Note_on_c, 0, 81, 92
2, 36240, Note_off_c, 0, 81, 64
2, 36240, Note_on_c, 0, 82, 92
2, 36360, Note_off_c, 0, 82, 64
2, 36360, Note_on_c, 0, 84, 92
2, 36480, Note_off_c, 0, 84, 64
2, 36480, Note_on_c, 0, 82, 92
2, 36600, Note_off_c, 0, 82, 64
2, 36600, Note_on_c, 0, 81, 92
2, 36720, Note_off_c, 0, 81, 64
2, 36720, Note_on_c, 0, 79, 92
2, 36840, Note_off_c, 0, 79, 64
2, 36840, Note_on_c, 0, 77, 92
2, 36960, Note_off_c, 0, 77, 64
2, 36960, Note_on_c, 0, 76, 92
2, 37080, Note_off_c, 0, 76, 64
2, 37080, Note_on_c, 0, 74, 92
2, 37200, Note_off_c, 0, 74, 64
2, 37200, Note_on_c, 0, 73, 92
2, 37320, Note_off_c, 0, 73, 64
2, 37320, Note_on_c, 0, 71, 92
2, 37440, Note_off_c, 0, 71, 64
2, 37440, Note_on_c, 0, 73, 92
2, 37680, Note_off_c, 0, 73, 64
2, 37680, Note_on_c, 0, 67, 92
2, 37920, Note_off_c, 0, 67, 64
2, 37920, Note_on_c, 0, 76, 92
2, 38160, Note_off_c, 0, 76, 64
2, 38160, Note_on_c, 0, 73, 92
2, 38400, Note_off_c, 0, 73, 64
2, 38400, Note_on_c, 0, 79, 92
2, 39000, Note_off_c, 0, 79, 64
2, 39000, Note_on_c, 0, 78, 92
2, 39120, Note_off_c, 0, 78, 64
2, 39120, Note_on_c, 0, 76, 92
2, 39240, Note_off_c, 0, 76, 64
2, 39240, Note_on_c, 0, 74, 92
2, 39360, Note_off_c, 0, 74, 64
2, 39360, Note_on_c, 0, 83, 92
2, 39960, Note_off_c, 0, 83, 64
2, 39960, Note_on_c, 0, 84, 92
2, 40080, Note_off_c, 0, 84, 64
2, 40080, Note_on_c, 0, 83, 92
2, 40200, Note_off_c, 0, 83, 64
2, 40200, Note_on_c, 0, 81, 92
2, 40320, Note_off_c, 0, 81, 64
2, 40320, Note_on_c, 0, 79, 92
2, 41040, Note_off_c, 0, 79, 64
2, 41040, Note_on_c, 0, 78, 92
2, 41160, Note_off_c, 0, 78, 64
2, 41160, Note_on_c, 0, 76, 92
2, 41280, Note_off_c, 0, 76, 64
2, 41280, Note_on_c, 0, 74, 92
2, 41400, Note_off_c, 0, 74, 64
2, 41400, Note_on_c, 0, 72, 92
2, 41520, Note_off_c, 0, 72, 64
2, 41520, Note_on_c, 0, 71, 92
2, 41640, Note_off_c, 0, 71, 64
2, 41640, Note_on_c, 0, 69, 92
2, 41760, Note_off_c, 0, 69, 64
2, 41760, Note_on_c, 0, 67, 92
2, 42360, Note_off_c, 0, 67, 64
2, 42360, Note_on_c, 0, 76, 92
2, 42480, Note_off_c, 0, 76, 64
2, 42480, Note_on_c, 0, 74, 92
2, 42600, Note_off_c, 0, 74, 64
2, 42600, Note_on_c, 0, 72, 92
2, 42720, Note_off_c, 0, 72, 64
2, 42720, Note_on_c, 0, 79, 92
2, 43320, Note_off_c, 0, 79, 64
2, 43320, Note_on_c, 0, 76, 92
2, 43440, Note_off_c, 0, 76, 64
2, 43440, Note_on_c, 0, 81, 92
2, 43560, Note_off_c, 0, 81, 64
2, 43560, Note_on_c, 0, 79, 92
2, 43680, Note_off_c, 0, 79, 64
2, 43680, Note_on_c, 0, 77, 92
2, 43800, Note_off_c, 0, 77, 64
2, 43800, Note_on_c, 0, 76, 92
2, 43920, Note_off_c, 0, 76, 64
2, 43920, Note_on_c, 0, 74, 92
2, 44040, Note_off_c, 0, 74, 64
2, 44040, Note_on_c, 0, 72, 92
2, 44160, Note_off_c, 0, 72, 64
2, 44160, Note_on_c, 0, 71, 92
2, 44400, Note_off_c, 0, 71, 64
2, 44400, Note_on_c, 0, 77, 92
2, 44760, Note_off_c, 0, 77, 64
2, 44760, Note_on_c, 0, 76, 92
2, 44880, Note_off_c, 0, 76, 64
2, 44880, Note_on_c, 0, 74, 92
2, 45000, Note_off_c, 0, 74, 64
2, 45000, Note_on_c, 0, 76, 92
2, 45120, Note_off_c, 0, 76, 64
2, 45120, Note_on_c, 0, 79, 92
2, 45240, Note_off_c, 0, 79, 64
2, 45240, Note_on_c, 0, 76, 92
2, 45360, Note_off_c, 0, 76, 64
2, 45360, Note_on_c, 0, 74, 92
2, 45480, Note_off_c, 0, 74, 64
2, 45480, Note_on_c, 0, 76, 92
2, 45600, Note_off_c, 0, 76, 64
2, 45600, Note_on_c, 0, 72, 92
2, 45720, Note_off_c, 0, 72, 64
2, 45720, Note_on_c, 0, 76, 92
2, 45840, Note_off_c, 0, 76, 64
2, 45840, Note_on_c, 0, 69, 92
2, 45960, Note_off_c, 0, 69, 64
2, 45960, Note_on_c, 0, 72, 92
2, 46080, Note_off_c, 0, 72, 64
2, 46080, Note_on_c, 0, 65, 92
2, 46320, Note_off_c, 0, 65, 64
2, 46320, Note_on_c, 0, 81, 92
2, 46560, Note_off_c, 0, 81, 64
2, 46560, Note_on_c, 0, 77, 92
2, 46800, Note_off_c, 0, 77, 64
2, 46800, Note_on_c, 0, 81, 92
2, 47040, Note_off_c, 0, 81, 64
2, 47040, Note_on_c, 0, 82, 92
2, 47640, Note_off_c, 0, 82, 64
2, 47640, Note_on_c, 0, 79, 92
2, 47760, Note_off_c, 0, 79, 64
2, 47760, Note_on_c, 0, 77, 92
2, 47880, Note_off_c, 0, 77, 64
2, 47880, Note_on_c, 0, 79, 92
2, 48000, Note_off_c, 0, 79, 64
2, 48000, Note_on_c, 0, 82, 92
2, 48120, Note_off_c, 0, 82, 64
2, 48120, Note_on_c, 0, 79, 92
2, 48240, Note_off_c, 0, 79, 64
2, 48240, Note_on_c, 0, 77, 92
2, 48360, Note_off_c, 0, 77, 64
2, 48360, Note_on_c, 0, 79, 92
2, 48480, Note_off_c, 0, 79, 64
2, 48480, Note_on_c, 0, 76, 92
2, 48600, Note_off_c, 0, 76, 64
2, 48600, Note_on_c, 0, 79, 92
2, 48720, Note_off_c, 0, 79, 64
2, 48720, Note_on_c, 0, 72, 92
2, 48840, Note_off_c, 0, 72, 64
2, 48840, Note_on_c, 0, 76, 92
2, 48960, Note_off_c, 0, 76, 64
2, 48960, Note_on_c, 0, 69, 92
2, 49080, Note_off_c, 0, 69, 64
2, 49080, Note_on_c, 0, 81, 92
2, 49200, Note_off_c, 0, 81, 64
2, 49200, Note_on_c, 0, 79, 92
2, 49320, Note_off_c, 0, 79, 64
2, 49320, Note_on_c, 0, 81, 92
2, 49440, Note_off_c, 0, 81, 64
2, 49440, Note_on_c, 0, 84, 92
2, 49560, Note_off_c, 0, 84, 64
2, 49560, Note_on_c, 0, 81, 92
2, 49680, Note_off_c, 0, 81, 64
2, 49680, Note_on_c, 0, 79, 92
2, 49800, Note_off_c, 0, 79, 64
2, 49800, Note_on_c, 0, 81, 92
2, 49920, Note_off_c, 0, 81, 64
2, 49920, Note_on_c, 0, 77, 92
2, 50040, Note_off_c, 0, 77, 64
2, 50040, Note_on_c, 0, 81, 92
2, 50160, Note_off_c, 0, 81, 64
2, 50160, Note_on_c, 0, 84, 92
2, 50520, Note_off_c, 0, 84, 64
2, 50520, Note_on_c, 0, 82, 92
2, 50640, Note_off_c, 0, 82, 64
2, 50640, Note_on_c, 0, 81, 92
2, 50760, Note_off_c, 0, 81, 64
2, 50760, Note_on_c, 0, 82, 92
2, 50880, Note_off_c, 0, 82, 64
2, 50880, Note_on_c, 0, 84, 92
2, 51000, Note_off_c, 0, 84, 64
2, 51000, Note_on_c, 0, 82, 92
2, 51120, Note_off_c, 0, 82, 64
2, 51120, Note_on_c, 0, 81, 92
2, 51240, Note_off_c, 0, 81, 64
2, 51240, Note_on_c, 0, 82, 92
2, 51360, Note_off_c, 0, 82, 64
2, 51360, Note_on_c, 0, 77, 92
2, 51480, Note_off_c, 0, 77, 64
2, 51480, Note_on_c, 0, 81, 92
2, 51600, Note_off_c, 0, 81, 64
2, 51600, Note_on_c, 0, 82, 92
2, 51960, Note_off_c, 0, 82, 64
2, 51960, Note_on_c, 0, 81, 92
2, 52080, Note_off_c, 0, 81, 64
2, 52080, Note_on_c, 0, 79, 92
2, 52200, Note_off_c, 0, 79, 64
2, 52200, Note_on_c, 0, 81, 92
2, 52320, Note_off_c, 0, 81, 64
2, 52320, Note_on_c, 0, 82, 92
2, 52440, Note_off_c, 0, 82, 64
2, 52440, Note_on_c, 0, 81, 92
2, 52560, Note_off_c, 0, 81, 64
2, 52560, Note_on_c, 0, 79, 92
2, 52680, Note_off_c, 0, 79, 64
2, 52680, Note_on_c, 0, 81, 92
2, 52800, Note_off_c, 0, 81, 64
2, 52800, Note_on_c, 0, 77, 92
2, 52920, Note_off_c, 0, 77, 64
2, 52920, Note_on_c, 0, 79, 92
2, 53040, Note_off_c, 0, 79, 64
2, 53040, Note_on_c, 0, 81, 92
2, 53400, Note_off_c, 0, 81, 64
2, 53400, Note_on_c, 0, 79, 92
2, 53520, Note_off_c, 0, 79, 64
2, 53520, Note_on_c, 0, 77, 92
2, 53640, Note_off_c, 0, 77, 64
2, 53640, Note_on_c, 0, 79, 92
2, 53760, Note_off_c, 0, 79, 64
2, 53760, Note_on_c, 0, 82, 92
2, 53880, Note_off_c, 0, 82, 64
2, 53880, Note_on_c, 0, 79, 92
2, 54000, Note_off_c, 0, 79, 64
2, 54000, Note_on_c, 0, 77, 92
2, 54120, Note_off_c, 0, 77, 64
2, 54120, Note_on_c, 0, 79, 92
2, 54240, Note_off_c, 0, 79, 64
2, 54240, Note_on_c, 0, 76, 92
2, 54360, Note_off_c, 0, 76, 64
2, 54360, Note_on_c, 0, 77, 92
2, 54480, Note_off_c, 0, 77, 64
2, 54480, Note_on_c, 0, 79, 92
2, 54960, Note_off_c, 0, 79, 64
2, 54960, Note_on_c, 0, 72, 92
2, 55200, Note_off_c, 0, 72, 64
2, 55200, Note_on_c, 0, 77, 92
2, 55440, Note_off_c, 0, 77, 64
2, 55440, Note_on_c, 0, 81, 92
2, 55920, Note_off_c, 0, 81, 64
2, 55920, Note_on_c, 0, 74, 92
2, 56400, Note_off_c, 0, 74, 64
2, 56400, Note_on_c, 0, 71, 92
2, 56640, Note_off_c, 0, 71, 64
2, 56640, Note_on_c, 0, 76, 92
2, 56880, Note_off_c, 0, 76, 64
2, 56880, Note_on_c, 0, 79, 92
2, 57360, Note_off_c, 0, 79, 64
2, 57360, Note_on_c, 0, 72, 92
2, 57840, Note_off_c, 0, 72, 64
2, 57840, Note_on_c, 0, 69, 92
2, 58080, Note_off_c, 0, 69, 64
2, 58080, Note_on_c, 0, 74, 92
2, 58320, Note_off_c, 0, 74, 64
2, 58320, Note_on_c, 0, 77, 92
2, 58800, Note_off_c, 0, 77, 64
2, 58800, Note_on_c, 0, 71, 92
2, 59040, Note_off_c, 0, 71, 64
2, 59280, Note_on_c, 0, 72, 92
2, 59520, Note_off_c, 0, 72, 64
2, 59520, Note_on_c, 0, 76, 92
2, 59760, Note_off_c, 0, 76, 64
2, 59760, Note_on_c, 0, 79, 92
2, 60000, Note_off_c, 0, 79, 64
2, 60000, Note_on_c, 0, 82, 92
2, 60240, Note_off_c, 0, 82, 64
2, 60240, Note_on_c, 0, 81, 92
2, 60360, Note_off_c, 0, 81, 64
2, 60360, Note_on_c, 0, 79, 92
2, 60480, Note_off_c, 0, 79, 64
2, 60480, Note_on_c, 0, 81, 92
2, 60720, Note_off_c, 0, 81, 64
2, 60720, Note_on_c, 0, 77, 92
2, 60960, Note_off_c, 0, 77, 64
2, 60960, Note_on_c, 0, 72, 92
2, 61200, Note_off_c, 0, 72, 64
2, 61200, Note_on_c, 0, 77, 92
2, 61440, Note_off_c, 0, 77, 64
2, 61440, Note_on_c, 0, 81, 92
2, 61680, Note_off_c, 0, 81, 64
2, 61680, Note_on_c, 0, 79, 92
2, 61800, Note_off_c, 0, 79, 64
2, 61800, Note_on_c, 0, 77, 92
2, 61920, Note_off_c, 0, 77, 64
2, 61920, Note_on_c, 0, 79, 92
2, 62160, Note_off_c, 0, 79, 64
2, 62160, Note_on_c, 0, 76, 92
2, 62400, Note_off_c, 0, 76, 64
2, 62400, Note_on_c, 0, 72, 92
2, 62640, Note_off_c, 0, 72, 64
2, 62640, Note_on_c, 0, 76, 92
2, 62880, Note_off_c, 0, 76, 64
2, 62880, Note_on_c, 0, 79, 92
2, 63120, Note_off_c, 0, 79, 64
2, 63120, Note_on_c, 0, 77, 92
2, 63240, Note_off_c, 0, 77, 64
2, 63240, Note_on_c, 0, 76, 92
2, 63360, Note_off_c, 0, 76, 64
2, 63360, Note_on_c, 0, 77, 92
2, 63600, Note_off_c, 0, 77, 64
2, 63600, Note_on_c, 0, 74, 92
2, 63840, Note_off_c, 0, 74, 64
2, 63840, Note_on_c, 0, 71, 92
2, 64080, Note_off_c, 0, 71, 64
2, 64080, Note_on_c, 0, 74, 92
2, 64320, Note_off_c, 0, 74, 64
2, 64320, Note_on_c, 0, 77, 92
2, 64440, Note_off_c, 0, 77, 64
2, 64440, Note_on_c, 0, 76, 92
2, 64560, Note_off_c, 0, 76, 64
2, 64560, Note_on_c, 0, 74, 92
2, 64680, Note_off_c, 0, 74, 64
2, 64680, Note_on_c, 0, 76, 92
2, 64800, Note_off_c, 0, 76, 64
2, 64800, Note_on_c, 0, 77, 92
2, 64920, Note_off_c, 0, 77, 64
2, 64920, Note_on_c, 0, 76, 92
2, 65040, Note_off_c, 0, 76, 64
2, 65040, Note_on_c, 0, 74, 92
2, 65160, Note_off_c, 0, 74, 64
2, 65160, Note_on_c, 0, 76, 92
2, 65280, Note_off_c, 0, 76, 64
2, 65280, Note_on_c, 0, 72, 92
2, 65400, Note_off_c, 0, 72, 64
2, 65400, Note_on_c, 0, 81, 92
2, 65520, Note_off_c, 0, 81, 64
2, 65520, Note_on_c, 0, 79, 92
2, 65640, Note_off_c, 0, 79, 64
2, 65640, Note_on_c, 0, 77, 92
2, 65760, Note_off_c, 0, 77, 64
2, 65760, Note_on_c, 0, 76, 92
2, 65880, Note_off_c, 0, 76, 64
2, 65880, Note_on_c, 0, 74, 92
2, 66000, Note_off_c, 0, 74, 64
2, 66000, Note_on_c, 0, 72, 92
2, 66120, Note_off_c, 0, 72, 64
2, 66120, Note_on_c, 0, 70, 92
2, 66240, Note_off_c, 0, 70, 64
2, 66240, Note_on_c, 0, 69, 92
2, 66360, Note_off_c, 0, 69, 64
2, 66360, Note_on_c, 0, 70, 92
2, 66480, Note_off_c, 0, 70, 64
2, 66480, Note_on_c, 0, 67, 92
2, 66600, Note_off_c, 0, 67, 64
2, 66600, Note_on_c, 0, 69, 92
2, 66720, Note_off_c, 0, 69, 64
2, 66720, Note_on_c, 0, 65, 92
2, 66840, Note_off_c, 0, 65, 64
2, 66840, Note_on_c, 0, 79, 92
2, 66960, Note_off_c, 0, 79, 64
2, 66960, Note_on_c, 0, 77, 92
2, 67080, Note_off_c, 0, 77, 64
2, 67080, Note_on_c, 0, 76, 92
2, 67200, Note_off_c, 0, 76, 64
2, 67200, Note_on_c, 0, 74, 92
2, 67320, Note_off_c, 0, 74, 64
2, 67320, Note_on_c, 0, 72, 92
2, 67440, Note_off_c, 0, 72, 64
2, 67440, Note_on_c, 0, 71, 92
2, 67560, Note_off_c, 0, 71, 64
2, 67560, Note_on_c, 0, 69, 92
2, 67680, Note_off_c, 0, 69, 64
2, 67680, Note_on_c, 0, 67, 92
2, 67800, Note_off_c, 0, 67, 64
2, 67800, Note_on_c, 0, 69, 92
2, 67920, Note_off_c, 0, 69, 64
2, 67920, Note_on_c, 0, 65, 92
2, 68040, Note_off_c, 0, 65, 64
2, 68040, Note_on_c, 0, 67, 92
2, 68160, Note_off_c, 0, 67, 64
2, 68160, Note_on_c, 0, 64, 92
2, 68280, Note_off_c, 0, 64, 64
2, 68280, Note_on_c, 0, 77, 92
2, 68400, Note_off_c, 0, 77, 64
2, 68400, Note_on_c, 0, 76, 92
2, 68520, Note_off_c, 0, 76, 64
2, 68520, Note_on_c, 0, 74, 92
2, 68640, Note_off_c, 0, 74, 64
2, 68640, Note_on_c, 0, 72, 92
2, 68760, Note_off_c, 0, 72, 64
2, 68760, Note_on_c, 0, 71, 92
2, 68880, Note_off_c, 0, 71, 64
2, 68880, Note_on_c, 0, 69, 92
2, 69000, Note_off_c, 0, 69, 64
2, 69000, Note_on_c, 0, 67, 92
2, 69120, Note_off_c, 0, 67, 64
2, 69120, Note_on_c, 0, 65, 92
2, 69360, Note_off_c, 0, 65, 64
2, 69360, Note_on_c, 0, 69, 92
2, 69840, Note_off_c, 0, 69, 64
2, 69840, Note_on_c, 0, 74, 92
2, 70320, Note_off_c, 0, 74, 64
2, 70320, Note_on_c, 0, 77, 92
2, 70680, Note_off_c, 0, 77, 64
2, 70680, Note_on_c, 0, 72, 92
2, 70800, Note_off_c, 0, 72, 64
2, 70800, Note_on_c, 0, 74, 92
2, 70920, Note_off_c, 0, 74, 64
2, 70920, Note_on_c, 0, 71, 92
2, 71040, Note_off_c, 0, 71, 64
2, 71040, Note_on_c, 0, 72, 92
2, 71280, Note_off_c, 0, 72, 64
2, 71280, Note_on_c, 0, 74, 92
2, 71520, Note_off_c, 0, 74, 64
2, 71520, Note_on_c, 0, 67, 92
2, 71760, Note_off_c, 0, 67, 64
2, 71760, Note_on_c, 0, 71, 92
2, 72000, Note_off_c, 0, 71, 64
2, 72000, Note_on_c, 0, 72, 92
2, 72120, Note_off_c, 0, 72, 64
2, 72120, Note_on_c, 0, 67, 92
2, 72240, Note_off_c, 0, 67, 64
2, 72240, Note_on_c, 0, 69, 92
2, 72360, Note_off_c, 0, 69, 64
2, 72360, Note_on_c, 0, 71, 92
2, 72480, Note_off_c, 0, 71, 64
2, 72480, Note_on_c, 0, 72, 92
2, 72600, Note_off_c, 0, 72, 64
2, 72600, Note_on_c, 0, 71, 92
2, 72720, Note_off_c, 0, 71, 64
2, 72720, Note_on_c, 0, 72, 92
2, 72840, Note_off_c, 0, 72, 64
2, 72840, Note_on_c, 0, 76, 92
2, 72960, Note_off_c, 0, 76, 64
2, 72960, Note_on_c, 0, 74, 92
2, 73080, Note_off_c, 0, 74, 64
2, 73080, Note_on_c, 0, 72, 92
2, 73200, Note_off_c, 0, 72, 64
2, 73200, Note_on_c, 0, 71, 92
2, 73320, Note_off_c, 0, 71, 64
2, 73320, Note_on_c, 0, 69, 92
2, 73440, Note_off_c, 0, 69, 64
2, 73440, Note_on_c, 0, 67, 92
2, 73560, Note_off_c, 0, 67, 64
2, 73560, Note_on_c, 0, 69, 92
2, 73680, Note_off_c, 0, 69, 64
2, 73680, Note_on_c, 0, 71, 92
2, 73800, Note_off_c, 0, 71, 64
2, 73800, Note_on_c, 0, 72, 92
2, 73920, Note_off_c, 0, 72, 64
2, 73920, Note_on_c, 0, 74, 92
2, 74040, Note_off_c, 0, 74, 64
2, 74040, Note_on_c, 0, 77, 92
2, 74160, Note_off_c, 0, 77, 64
2, 74160, Note_on_c, 0, 76, 92
2, 74280, Note_off_c, 0, 76, 64
2, 74280, Note_on_c, 0, 74, 92
2, 74400, Note_off_c, 0, 74, 64
2, 74400, Note_on_c, 0, 79, 92
2, 74520, Note_off_c, 0, 79, 64
2, 74520, Note_on_c, 0, 77, 92
2, 74640, Note_off_c, 0, 77, 64
2, 74640, Note_on_c, 0, 76, 92
2, 74760, Note_off_c, 0, 76, 64
2, 74760, Note_on_c, 0, 74, 92
2, 74880, Note_off_c, 0, 74, 64
2, 74880, Note_on_c, 0, 76, 92
2, 75120, Note_off_c, 0, 76, 64
2, 75120, Note_on_c, 0, 79, 92
2, 75360, Note_off_c, 0, 79, 64
2, 75360, Note_on_c, 0, 74, 92
2, 75600, Note_off_c, 0, 74, 64
2, 75600, Note_on_c, 0, 79, 92
2, 75840, Note_off_c, 0, 79, 64
2, 75840, Note_on_c, 0, 72, 92
2, 76080, Note_off_c, 0, 72, 64
2, 76080, Note_on_c, 0, 84, 92
2, 76440, Note_off_c, 0, 84, 64
2, 76440, Note_on_c, 0, 83, 92
2, 76560, Note_off_c, 0, 83, 64
2, 76560, Note_on_c, 0, 81, 92
2, 76680, Note_off_c, 0, 81, 64
2, 76680, Note_on_c, 0, 79, 92
2, 76800, Note_off_c, 0, 79, 64
2, 76800, Note_on_c, 0, 78, 92
2, 76920, Note_off_c, 0, 78, 64
2, 76920, Note_on_c, 0, 76, 92
2, 77040, Note_off_c, 0, 76, 64
2, 77040, Note_on_c, 0, 74, 92
2, 77160, Note_off_c, 0, 74, 64
2, 77160, Note_on_c, 0, 72, 92
2, 77280, Note_off_c, 0, 72, 64
2, 77280, Note_on_c, 0, 71, 92
2, 77400, Note_off_c, 0, 71, 64
2, 77400, Note_on_c, 0, 69, 92
2, 77520, Note_off_c, 0, 69, 64
2, 77520, Note_on_c, 0, 67, 92
2, 77640, Note_off_c, 0, 67, 64
2, 77640, Note_on_c, 0, 66, 92
2, 77760, Note_off_c, 0, 66, 64
2, 77760, Note_on_c, 0, 67, 92
2, 78240, Note_off_c, 0, 67, 64
2, 78480, Note_on_c, 0, 67, 92
2, 78720, Note_off_c, 0, 67, 64
2, 78720, Note_on_c, 0, 72, 92
2, 78840, Note_off_c, 0, 72, 64
2, 78840, Note_on_c, 0, 71, 92
2, 78960, Note_off_c, 0, 71, 64
2, 78960, Note_on_c, 0, 72, 92
2, 79080, Note_off_c, 0, 72, 64
2, 79080, Note_on_c, 0, 74, 92
2, 79200, Note_off_c, 0, 74, 64
2, 79200, Note_on_c, 0, 76, 92
2, 79320, Note_off_c, 0, 76, 64
2, 79320, Note_on_c, 0, 72, 92
2, 79440, Note_off_c, 0, 72, 64
2, 79440, Note_on_c, 0, 71, 92
2, 79560, Note_off_c, 0, 71, 64
2, 79560, Note_on_c, 0, 69, 92
2, 79680, Note_off_c, 0, 69, 64
2, 79680, Note_on_c, 0, 67, 92
2, 79800, Note_off_c, 0, 67, 64
2, 79800, Note_on_c, 0, 65, 92
2, 79920, Note_off_c, 0, 65, 64
2, 79920, Note_on_c, 0, 64, 92
2, 80040, Note_off_c, 0, 64, 64
2, 80040, Note_on_c, 0, 62, 92
2, 80160, Note_off_c, 0, 62, 64
2, 80160, Note_on_c, 0, 60, 92
2, 81120, Note_off_c, 0, 60, 64
2, 81360, Note_on_c, 0, 69, 92
2, 81600, Note_off_c, 0, 69, 64
2, 81600, Note_on_c, 0, 74, 92
2, 81720, Note_off_c, 0, 74, 64
2, 81720, Note_on_c, 0, 73, 92
2, 81840, Note_off_c, 0, 73, 64
2, 81840, Note_on_c, 0, 74, 92
2, 81960, Note_off_c, 0, 74, 64
2, 81960, Note_on_c, 0, 76, 92
2, 82080, Note_off_c, 0, 76, 64
2, 82080, Note_on_c, 0, 77, 92
2, 82200, Note_off_c, 0, 77, 64
2, 82200, Note_on_c, 0, 74, 92
2, 82320, Note_off_c, 0, 74, 64
2, 82320, Note_on_c, 0, 72, 92
2, 82440, Note_off_c, 0, 72, 64
2, 82440, Note_on_c, 0, 70, 92
2, 82560, Note_off_c, 0, 70, 64
2, 82560, Note_on_c, 0, 69, 92
2, 82680, Note_off_c, 0, 69, 64
2, 82680, Note_on_c, 0, 67, 92
2, 82800, Note_off_c, 0, 67, 64
2, 82800, Note_on_c, 0, 65, 92
2, 82920, Note_off_c, 0, 65, 64
2, 82920, Note_on_c, 0, 64, 92
2, 83040, Note_off_c, 0, 64, 64
2, 83040, Note_on_c, 0, 62, 92
2, 83640, Note_off_c, 0, 62, 64
2, 83640, Note_on_c, 0, 71, 92
2, 83760, Note_off_c, 0, 71, 64
2, 83760, Note_on_c, 0, 62, 92
2, 83880, Note_off_c, 0, 62, 64
2, 83880, Note_on_c, 0, 71, 92
2, 84000, Note_off_c, 0, 71, 64
2, 84000, Note_on_c, 0, 60, 92
2, 84120, Note_off_c, 0, 60, 64
2, 84120, Note_on_c, 0, 69, 92
2, 84240, Note_off_c, 0, 69, 64
2, 84240, Note_on_c, 0, 60, 92
2, 84360, Note_off_c, 0, 60, 64
2, 84360, Note_on_c, 0, 69, 92
2, 84480, Note_off_c, 0, 69, 64
2, 84480, Note_on_c, 0, 59, 92
2, 84600, Note_off_c, 0, 59, 64
2, 84600, Note_on_c, 0, 69, 92
2, 84720, Note_off_c, 0, 69, 64
2, 84720, Note_on_c, 0, 57, 92
2, 84840, Note_off_c, 0, 57, 64
2, 84840, Note_on_c, 0, 69, 92
2, 84960, Note_off_c, 0, 69, 64
2, 84960, Note_on_c, 0, 68, 92
2, 85080, Note_off_c, 0, 68, 64
2, 85080, Note_on_c, 0, 64, 92
2, 85200, Note_off_c, 0, 64, 64
2, 85200, Note_on_c, 0, 66, 92
2, 85320, Note_off_c, 0, 66, 64
2, 85320, Note_on_c, 0, 68, 92
2, 85440, Note_off_c, 0, 68, 64
2, 85440, Note_on_c, 0, 69, 92
2, 85560, Note_off_c, 0, 69, 64
2, 85560, Note_on_c, 0, 68, 92
2, 85680, Note_off_c, 0, 68, 64
2, 85680, Note_on_c, 0, 69, 92
2, 85800, Note_off_c, 0, 69, 64
2, 85800, Note_on_c, 0, 72, 92
2, 85920, Note_off_c, 0, 72, 64
2, 85920, Note_on_c, 0, 71, 92
2, 86040, Note_off_c, 0, 71, 64
2, 86040, Note_on_c, 0, 69, 92
2, 86160, Note_off_c, 0, 69, 64
2, 86160, Note_on_c, 0, 68, 92
2, 86280, Note_off_c, 0, 68, 64
2, 86280, Note_on_c, 0, 66, 92
2, 86400, Note_off_c, 0, 66, 64
2, 86400, Note_on_c, 0, 64, 92
2, 86520, Note_off_c, 0, 64, 64
2, 86520, Note_on_c, 0, 66, 92
2, 86640, Note_off_c, 0, 66, 64
2, 86640, Note_on_c, 0, 67, 92
2, 86760, Note_off_c, 0, 67, 64
2, 86760, Note_on_c, 0, 69, 92
2, 86880, Note_off_c, 0, 69, 64
2, 86880, Note_on_c, 0, 71, 92
2, 87000, Note_off_c, 0, 71, 64
2, 87000, Note_on_c, 0, 74, 92
2, 87120, Note_off_c, 0, 74, 64
2, 87120, Note_on_c, 0, 72, 92
2, 87240, Note_off_c, 0, 72, 64
2, 87240, Note_on_c, 0, 71, 92
2, 87360, Note_off_c, 0, 71, 64
2, 87360, Note_on_c, 0, 76, 92
2, 87480, Note_off_c, 0, 76, 64
2, 87480, Note_on_c, 0, 74, 92
2, 87600, Note_off_c, 0, 74, 64
2, 87600, Note_on_c, 0, 72, 92
2, 87720, Note_off_c, 0, 72, 64
2, 87720, Note_on_c, 0, 71, 92
2, 87840, Note_off_c, 0, 71, 64
2, 87840, Note_on_c, 0, 72, 92
2, 90840, Note_off_c, 0, 72, 64
2, 90840, Note_on_c, 0, 69, 92
2, 90960, Note_off_c, 0, 69, 64
2, 90960, Note_on_c, 0, 71, 92
2, 91080, Note_off_c, 0, 71, 64
2, 91080, Note_on_c, 0, 73, 92
2, 91200, Note_off_c, 0, 73, 64
2, 91200, Note_on_c, 0, 74, 92
2, 91320, Note_off_c, 0, 74, 64
2, 91320, Note_on_c, 0, 73, 92
2, 91440, Note_off_c, 0, 73, 64
2, 91440, Note_on_c, 0, 74, 92
2, 91560, Note_off_c, 0, 74, 64
2, 91560, Note_on_c, 0, 77, 92
2, 91680, Note_off_c, 0, 77, 64
2, 91680, Note_on_c, 0, 76, 92
2, 91800, Note_off_c, 0, 76, 64
2, 91800, Note_on_c, 0, 74, 92
2, 91920, Note_off_c, 0, 74, 64
2, 91920, Note_on_c, 0, 73, 92
2, 92040, Note_off_c, 0, 73, 64
2, 92040, Note_on_c, 0, 71, 92
2, 92160, Note_off_c, 0, 71, 64
2, 92160, Note_on_c, 0, 69, 92
2, 92280, Note_off_c, 0, 69, 64
2, 92280, Note_on_c, 0, 71, 92
2, 92400, Note_off_c, 0, 71, 64
2, 92400, Note_on_c, 0, 72, 92
2, 92520, Note_off_c, 0, 72, 64
2, 92520, Note_on_c, 0, 74, 92
2, 92640, Note_off_c, 0, 74, 64
2, 92640, Note_on_c, 0, 76, 92
2, 92760, Note_off_c, 0, 76, 64
2, 92760, Note_on_c, 0, 79, 92
2, 92880, Note_off_c, 0, 79, 64
2, 92880, Note_on_c, 0, 77, 92
2, 93000, Note_off_c, 0, 77, 64
2, 93000, Note_on_c, 0, 76, 92
2, 93120, Note_off_c, 0, 76, 64
2, 93120, Note_on_c, 0, 81, 92
2, 93240, Note_off_c, 0, 81, 64
2, 93240, Note_on_c, 0, 79, 92
2, 93360, Note_off_c, 0, 79, 64
2, 93360, Note_on_c, 0, 77, 92
2, 93480, Note_off_c, 0, 77, 64
2, 93480, Note_on_c, 0, 76, 92
2, 93600, Note_off_c, 0, 76, 64
2, 93600, Note_on_c, 0, 77, 92
2, 93720, Note_off_c, 0, 77, 64
2, 93720, Note_on_c, 0, 76, 92
2, 93840, Note_off_c, 0, 76, 64
2, 93840, Note_on_c, 0, 74, 92
2, 93960, Note_off_c, 0, 74, 64
2, 93960, Note_on_c, 0, 76, 92
2, 94080, Note_off_c, 0, 76, 64
2, 94080, Note_on_c, 0, 77, 92
2, 94200, Note_off_c, 0, 77, 64
2, 94200, Note_on_c, 0, 76, 92
2, 94320, Note_off_c, 0, 76, 64
2, 94320, Note_on_c, 0, 77, 92
2, 94440, Note_off_c, 0, 77, 64
2, 94440, Note_on_c, 0, 81, 92
2, 94560, Note_off_c, 0, 81, 64
2, 94560, Note_on_c, 0, 79, 92
2, 94680, Note_off_c, 0, 79, 64
2, 94680, Note_on_c, 0, 77, 92
2, 94800, Note_off_c, 0, 77, 64
2, 94800, Note_on_c, 0, 76, 92
2, 94920, Note_off_c, 0, 76, 64
2, 94920, Note_on_c, 0, 74, 92
2, 95040, Note_off_c, 0, 74, 64
2, 95040, Note_on_c, 0, 76, 92
2, 95280, Note_off_c, 0, 76, 64
2, 95280, Note_on_c, 0, 69, 92
2, 95520, Note_off_c, 0, 69, 64
2, 96600, Note_on_c, 0, 74, 92
2, 96720, Note_off_c, 0, 74, 64
2, 96720, Note_on_c, 0, 73, 92
2, 96840, Note_off_c, 0, 73, 64
2, 96840, Note_on_c, 0, 74, 92
2, 96960, Note_off_c, 0, 74, 64
2, 96960, Note_on_c, 0, 77, 92
2, 97080, Note_off_c, 0, 77, 64
2, 97080, Note_on_c, 0, 74, 92
2, 97200, Note_off_c, 0, 74, 64
2, 97200, Note_on_c, 0, 73, 92
2, 97320, Note_off_c, 0, 73, 64
2, 97320, Note_on_c, 0, 74, 92
2, 97440, Note_off_c, 0, 74, 64
2, 97440, Note_on_c, 0, 69, 92
2, 97560, Note_off_c, 0, 69, 64
2, 97560, Note_on_c, 0, 74, 92
2, 97680, Note_off_c, 0, 74, 64
2, 97680, Note_on_c, 0, 65, 92
2, 97800, Note_off_c, 0, 65, 64
2, 97800, Note_on_c, 0, 69, 92
2, 97920, Note_off_c, 0, 69, 64
2, 97920, Note_on_c, 0, 62, 92
2, 98160, Note_off_c, 0, 62, 64
2, 99480, Note_on_c, 0, 72, 92
2, 99600, Note_off_c, 0, 72, 64
2, 99600, Note_on_c, 0, 71, 92
2, 99720, Note_off_c, 0, 71, 64
2, 99720, Note_on_c, 0, 72, 92
2, 99840, Note_off_c, 0, 72, 64
2, 99840, Note_on_c, 0, 76, 92
2, 99960, Note_off_c, 0, 76, 64
2, 99960, Note_on_c, 0, 72, 92
2, 100080, Note_off_c, 0, 72, 64
2, 100080, Note_on_c, 0, 71, 92
2, 100200, Note_off_c, 0, 71, 64
2, 100200, Note_on_c, 0, 72, 92
2, 100320, Note_off_c, 0, 72, 64
2, 100320, Note_on_c, 0, 67, 92
2, 100440, Note_off_c, 0, 67, 64
2, 100440, Note_on_c, 0, 72, 92
2, 100560, Note_off_c, 0, 72, 64
2, 100560, Note_on_c, 0, 64, 92
2, 100680, Note_off_c, 0, 64, 64
2, 100680, Note_on_c, 0, 67, 92
2, 100800, Note_off_c, 0, 67, 64
2, 100800, Note_on_c, 0, 60, 92
2, 101040, Note_off_c, 0, 60, 64
2, 102360, Note_on_c, 0, 77, 92
2, 102480, Note_off_c, 0, 77, 64
2, 102480, Note_on_c, 0, 76, 92
2, 102600, Note_off_c, 0, 76, 64
2, 102600, Note_on_c, 0, 77, 92
2, 102720, Note_off_c, 0, 77, 64
2, 102720, Note_on_c, 0, 81, 92
2, 102840, Note_off_c, 0, 81, 64
2, 102840, Note_on_c, 0, 77, 92
2, 102960, Note_off_c, 0, 77, 64
2, 102960, Note_on_c, 0, 76, 92
2, 103080, Note_off_c, 0, 76, 64
2, 103080, Note_on_c, 0, 77, 92
2, 103200, Note_off_c, 0, 77, 64
2, 103200, Note_on_c, 0, 72, 92
2, 103320, Note_off_c, 0, 72, 64
2, 103320, Note_on_c, 0, 77, 92
2, 103440, Note_off_c, 0, 77, 64
2, 103440, Note_on_c, 0, 69, 92
2, 103560, Note_off_c, 0, 69, 64
2, 103560, Note_on_c, 0, 72, 92
2, 103680, Note_off_c, 0, 72, 64
2, 103680, Note_on_c, 0, 65, 92
2, 103920, Note_off_c, 0, 65, 64
2, 103920, Note_on_c, 0, 81, 92
2, 104160, Note_off_c, 0, 81, 64
2, 104160, Note_on_c, 0, 77, 92
2, 104400, Note_off_c, 0, 77, 64
2, 104400, Note_on_c, 0, 81, 92
2, 104640, Note_off_c, 0, 81, 64
2, 104640, Note_on_c, 0, 82, 92
2, 104880, Note_off_c, 0, 82, 64
2, 104880, Note_on_c, 0, 81, 92
2, 105000, Note_off_c, 0, 81, 64
2, 105000, Note_on_c, 0, 79, 92
2, 105120, Note_off_c, 0, 79, 64
2, 105120, Note_on_c, 0, 81, 92
2, 105600, Note_off_c, 0, 81, 64
2, 106800, Note_on_c, 0, 72, 92
2, 107040, Note_off_c, 0, 72, 64
2, 107040, Note_on_c, 0, 69, 92
2, 107280, Note_off_c, 0, 69, 64
2, 107280, Note_on_c, 0, 72, 92
2, 107520, Note_off_c, 0, 72, 64
2, 107520, Note_on_c, 0, 74, 92
2, 107760, Note_off_c, 0, 74, 64
2, 107760, Note_on_c, 0, 72, 92
2, 107880, Note_off_c, 0, 72, 64
2, 107880, Note_on_c, 0, 70, 92
2, 108000, Note_off_c, 0, 70, 64
2, 108000, Note_on_c, 0, 72, 92
2, 108240, Note_off_c, 0, 72, 64
2, 108240, Note_on_c, 0, 65, 92
2, 108360, Note_off_c, 0, 65, 64
2, 108360, Note_on_c, 0, 67, 92
2, 108480, Note_off_c, 0, 67, 64
2, 108480, Note_on_c, 0, 69, 92
2, 108720, Note_off_c, 0, 69, 64
2, 108720, Note_on_c, 0, 60, 92
2, 108960, Note_off_c, 0, 60, 64
2, 108960, Note_on_c, 0, 64, 92
2, 109200, Note_off_c, 0, 64, 64
2, 109200, Note_on_c, 0, 71, 92
2, 109440, Note_off_c, 0, 71, 64
2, 109440, Note_on_c, 0, 72, 92
2, 109560, Note_off_c, 0, 72, 64
2, 109560, Note_on_c, 0, 67, 92
2, 109680, Note_off_c, 0, 67, 64
2, 109680, Note_on_c, 0, 69, 92
2, 109800, Note_off_c, 0, 69, 64
2, 109800, Note_on_c, 0, 71, 92
2, 109920, Note_off_c, 0, 71, 64
2, 109920, Note_on_c, 0, 72, 92
2, 110040, Note_off_c, 0, 72, 64
2, 110040, Note_on_c, 0, 71, 92
2, 110160, Note_off_c, 0, 71, 64
2, 110160, Note_on_c, 0, 72, 92
2, 110280, Note_off_c, 0, 72, 64
2, 110280, Note_on_c, 0, 76, 92
2, 110400, Note_off_c, 0, 76, 64
2, 110400, Note_on_c, 0, 74, 92
2, 110520, Note_off_c, 0, 74, 64
2, 110520, Note_on_c, 0, 72, 92
2, 110640, Note_off_c, 0, 72, 64
2, 110640, Note_on_c, 0, 71, 92
2, 110760, Note_off_c, 0, 71, 64
2, 110760, Note_on_c, 0, 69, 92
2, 110880, Note_off_c, 0, 69, 64
2, 110880, Note_on_c, 0, 71, 92
2, 111120, Note_off_c, 0, 71, 64
2, 111120, Note_on_c, 0, 67, 92
2, 111240, Note_off_c, 0, 67, 64
2, 111240, Note_on_c, 0, 69, 92
2, 111360, Note_off_c, 0, 69, 64
2, 111360, Note_on_c, 0, 71, 92
2, 111600, Note_off_c, 0, 71, 64
2, 111600, Note_on_c, 0, 62, 92
2, 111840, Note_off_c, 0, 62, 64
2, 111840, Note_on_c, 0, 64, 92
2, 112080, Note_off_c, 0, 64, 64
2, 112080, Note_on_c, 0, 73, 92
2, 112320, Note_off_c, 0, 73, 64
2, 112320, Note_on_c, 0, 74, 92
2, 112440, Note_off_c, 0, 74, 64
2, 112440, Note_on_c, 0, 69, 92
2, 112560, Note_off_c, 0, 69, 64
2, 112560, Note_on_c, 0, 71, 92
2, 112680, Note_off_c, 0, 71, 64
2, 112680, Note_on_c, 0, 72, 92
2, 112800, Note_off_c, 0, 72, 64
2, 112800, Note_on_c, 0, 74, 92
2, 112920, Note_off_c, 0, 74, 64
2, 112920, Note_on_c, 0, 72, 92
2, 113040, Note_off_c, 0, 72, 64
2, 113040, Note_on_c, 0, 74, 92
2, 113160, Note_off_c, 0, 74, 64
2, 113160, Note_on_c, 0, 77, 92
2, 113280, Note_off_c, 0, 77, 64
2, 113280, Note_on_c, 0, 76, 92
2, 113400, Note_off_c, 0, 76, 64
2, 113400, Note_on_c, 0, 74, 92
2, 113520, Note_off_c, 0, 74, 64
2, 113520, Note_on_c, 0, 72, 92
2, 113640, Note_off_c, 0, 72, 64
2, 113640, Note_on_c, 0, 71, 92
2, 113760, Note_off_c, 0, 71, 64
2, 113760, Note_on_c, 0, 72, 92
2, 114240, Note_off_c, 0, 72, 64
2, 115440, Note_on_c, 0, 76, 92
2, 115680, Note_off_c, 0, 76, 64
2, 115680, Note_on_c, 0, 72, 92
2, 115920, Note_off_c, 0, 72, 64
2, 115920, Note_on_c, 0, 76, 92
2, 116160, Note_off_c, 0, 76, 64
2, 116160, Note_on_c, 0, 77, 92
2, 116400, Note_off_c, 0, 77, 64
2, 116400, Note_on_c, 0, 76, 92
2, 116520, Note_off_c, 0, 76, 64
2, 116520, Note_on_c, 0, 74, 92
2, 116640, Note_off_c, 0, 74, 64
2, 116640, Note_on_c, 0, 76, 92
2, 116760, Note_off_c, 0, 76, 64
2, 116760, Note_on_c, 0, 81, 92
2, 116880, Note_off_c, 0, 81, 64
2, 116880, Note_on_c, 0, 80, 92
2, 117000, Note_off_c, 0, 80, 64
2, 117000, Note_on_c, 0, 81, 92
2, 117120, Note_off_c, 0, 81, 64
2, 117120, Note_on_c, 0, 84, 92
2, 117240, Note_off_c, 0, 84, 64
2, 117240, Note_on_c, 0, 81, 92
2, 117360, Note_off_c, 0, 81, 64
2, 117360, Note_on_c, 0, 80, 92
2, 117480, Note_off_c, 0, 80, 64
2, 117480, Note_on_c, 0, 81, 92
2, 117600, Note_off_c, 0, 81, 64
2, 117600, Note_on_c, 0, 76, 92
2, 117720, Note_off_c, 0, 76, 64
2, 117720, Note_on_c, 0, 81, 92
2, 117840, Note_off_c, 0, 81, 64
2, 117840, Note_on_c, 0, 72, 92
2, 117960, Note_off_c, 0, 72, 64
2, 117960, Note_on_c, 0, 76, 92
2, 118080, Note_off_c, 0, 76, 64
2, 118080, Note_on_c, 0, 69, 92
2, 118320, Note_off_c, 0, 69, 64
2, 118320, Note_on_c, 0, 72, 92
2, 118560, Note_off_c, 0, 72, 64
2, 118560, Note_on_c, 0, 69, 92
2, 118800, Note_off_c, 0, 69, 64
2, 118800, Note_on_c, 0, 72, 92
2, 119040, Note_off_c, 0, 72, 64
2, 119040, Note_on_c, 0, 74, 92
2, 119280, Note_off_c, 0, 74, 64
2, 119280, Note_on_c, 0, 72, 92
2, 119400, Note_off_c, 0, 72, 64
2, 119400, Note_on_c, 0, 71, 92
2, 119520, Note_off_c, 0, 71, 64
2, 119520, Note_on_c, 0, 72, 92
2, 120000, Note_off_c, 0, 72, 64
2, 122520, Note_on_c, 0, 69, 92
2, 122640, Note_off_c, 0, 69, 64
2, 122640, Note_on_c, 0, 71, 92
2, 122760, Note_off_c, 0, 71, 64
2, 122760, Note_on_c, 0, 73, 92
2, 122880, Note_off_c, 0, 73, 64
2, 122880, Note_on_c, 0, 74, 92
2, 123000, Note_off_c, 0, 74, 64
2, 123000, Note_on_c, 0, 73, 92
2, 123120, Note_off_c, 0, 73, 64
2, 123120, Note_on_c, 0, 74, 92
2, 123240, Note_off_c, 0, 74, 64
2, 123240, Note_on_c, 0, 77, 92
2, 123360, Note_off_c, 0, 77, 64
2, 123360, Note_on_c, 0, 76, 92
2, 123480, Note_off_c, 0, 76, 64
2, 123480, Note_on_c, 0, 74, 92
2, 123600, Note_off_c, 0, 74, 64
2, 123600, Note_on_c, 0, 73, 92
2, 123720, Note_off_c, 0, 73, 64
2, 123720, Note_on_c, 0, 71, 92
2, 123840, Note_off_c, 0, 71, 64
2, 123840, Note_on_c, 0, 69, 92
2, 123960, Note_off_c, 0, 69, 64
2, 123960, Note_on_c, 0, 71, 92
2, 124080, Note_off_c, 0, 71, 64
2, 124080, Note_on_c, 0, 73, 92
2, 124200, Note_off_c, 0, 73, 64
2, 124200, Note_on_c, 0, 74, 92
2, 124320, Note_off_c, 0, 74, 64
2, 124320, Note_on_c, 0, 76, 92
2, 124440, Note_off_c, 0, 76, 64
2, 124440, Note_on_c, 0, 79, 92
2, 124560, Note_off_c, 0, 79, 64
2, 124560, Note_on_c, 0, 77, 92
2, 124680, Note_off_c, 0, 77, 64
2, 124680, Note_on_c, 0, 76, 92
2, 124800, Note_off_c, 0, 76, 64
2, 124800, Note_on_c, 0, 81, 92
2, 124920, Note_off_c, 0, 81, 64
2, 124920, Note_on_c, 0, 79, 92
2, 125040, Note_off_c, 0, 79, 64
2, 125040, Note_on_c, 0, 77, 92
2, 125160, Note_off_c, 0, 77, 64
2, 125160, Note_on_c, 0, 76, 92
2, 125280, Note_off_c, 0, 76, 64
2, 125280, Note_on_c, 0, 77, 92
2, 125400, Note_off_c, 0, 77, 64
2, 125400, Note_on_c, 0, 74, 92
2, 125520, Note_off_c, 0, 74, 64
2, 125520, Note_on_c, 0, 73, 92
2, 125640, Note_off_c, 0, 73, 64
2, 125640, Note_on_c, 0, 71, 92
2, 125760, Note_off_c, 0, 71, 64
2, 125760, Note_on_c, 0, 69, 92
2, 125880, Note_off_c, 0, 69, 64
2, 125880, Note_on_c, 0, 67, 92
2, 126000, Note_off_c, 0, 67, 64
2, 126000, Note_on_c, 0, 65, 92
2, 126120, Note_off_c, 0, 65, 64
2, 126120, Note_on_c, 0, 64, 92
2, 126240, Note_off_c, 0, 64, 64
2, 126240, Note_on_c, 0, 62, 92
2, 127200, Note_off_c, 0, 62, 64
2, 127440, Note_on_c, 0, 67, 92
2, 127680, Note_off_c, 0, 67, 64
2, 127680, Note_on_c, 0, 72, 92
2, 127800, Note_off_c, 0, 72, 64
2, 127800, Note_on_c, 0, 71, 92
2, 127920, Note_off_c, 0, 71, 64
2, 127920, Note_on_c, 0, 72, 92
2, 128040, Note_off_c, 0, 72, 64
2, 128040, Note_on_c, 0, 74, 92
2, 128160, Note_off_c, 0, 74, 64
2, 128160, Note_on_c, 0, 76, 92
2, 128280, Note_off_c, 0, 76, 64
2, 128280, Note_on_c, 0, 76, 92
2, 128400, Note_off_c, 0, 76, 64
2, 128400, Note_on_c, 0, 74, 92
2, 128520, Note_off_c, 0, 74, 64
2, 128520, Note_on_c, 0, 72, 92
2, 128640, Note_off_c, 0, 72, 64
2, 128640, Note_on_c, 0, 71, 92
2, 128760, Note_off_c, 0, 71, 64
2, 128760, Note_on_c, 0, 69, 92
2, 128880, Note_off_c, 0, 69, 64
2, 128880, Note_on_c, 0, 68, 92
2, 129000, Note_off_c, 0, 68, 64
2, 129000, Note_on_c, 0, 66, 92
2, 129120, Note_off_c, 0, 66, 64
2, 129120, Note_on_c, 0, 64, 92
2, 130080, Note_off_c, 0, 64, 64
2, 130320, Note_on_c, 0, 69, 92
2, 130560, Note_off_c, 0, 69, 64
2, 130560, Note_on_c, 0, 75, 92
2, 130680, Note_off_c, 0, 75, 64
2, 130680, Note_on_c, 0, 73, 92
2, 130800, Note_off_c, 0, 73, 64
2, 130800, Note_on_c, 0, 75, 92
2, 130920, Note_off_c, 0, 75, 64
2, 130920, Note_on_c, 0, 76, 92
2, 131040, Note_off_c, 0, 76, 64
2, 131040, Note_on_c, 0, 78, 92
2, 131280, Note_off_c, 0, 78, 64
2, 131280, Note_on_c, 0, 71, 92
2, 131760, Note_off_c, 0, 71, 64
2, 131760, Note_on_c, 0, 76, 92
2, 132240, Note_off_c, 0, 76, 64
2, 132240, Note_on_c, 0, 69, 92
2, 132480, Note_off_c, 0, 69, 64
2, 132480, Note_on_c, 0, 71, 92
2, 135480, Note_off_c, 0, 71, 64
2, 135480, Note_on_c, 0, 67, 92
2, 135600, Note_off_c, 0, 67, 64
2, 135600, Note_on_c, 0, 69, 92
2, 135720, Note_off_c, 0, 69, 64
2, 135720, Note_on_c, 0, 71, 92
2, 135840, Note_off_c, 0, 71, 64
2, 135840, Note_on_c, 0, 72, 92
2, 135960, Note_off_c, 0, 72, 64
2, 135960, Note_on_c, 0, 71, 92
2, 136080, Note_off_c, 0, 71, 64
2, 136080, Note_on_c, 0, 72, 92
2, 136200, Note_off_c, 0, 72, 64
2, 136200, Note_on_c, 0, 76, 92
2, 136320, Note_off_c, 0, 76, 64
2, 136320, Note_on_c, 0, 74, 92
2, 136440, Note_off_c, 0, 74, 64
2, 136440, Note_on_c, 0, 72, 92
2, 136560, Note_off_c, 0, 72, 64
2, 136560, Note_on_c, 0, 71, 92
2, 136680, Note_off_c, 0, 71, 64
2, 136680, Note_on_c, 0, 69, 92
2, 136800, Note_off_c, 0, 69, 64
2, 136800, Note_on_c, 0, 67, 92
2, 136920, Note_off_c, 0, 67, 64
2, 136920, Note_on_c, 0, 69, 92
2, 137040, Note_off_c, 0, 69, 64
2, 137040, Note_on_c, 0, 71, 92
2, 137160, Note_off_c, 0, 71, 64
2, 137160, Note_on_c, 0, 72, 92
2, 137280, Note_off_c, 0, 72, 64
2, 137280, Note_on_c, 0, 74, 92
2, 137400, Note_off_c, 0, 74, 64
2, 137400, Note_on_c, 0, 77, 92
2, 137520, Note_off_c, 0, 77, 64
2, 137520, Note_on_c, 0, 76, 92
2, 137640, Note_off_c, 0, 76, 64
2, 137640, Note_on_c, 0, 74, 92
2, 137760, Note_off_c, 0, 74, 64
2, 137760, Note_on_c, 0, 79, 92
2, 137880, Note_off_c, 0, 79, 64
2, 137880, Note_on_c, 0, 77, 92
2, 138000, Note_off_c, 0, 77, 64
2, 138000, Note_on_c, 0, 76, 92
2, 138120, Note_off_c, 0, 76, 64
2, 138120, Note_on_c, 0, 74, 92
2, 138240, Note_off_c, 0, 74, 64
2, 138240, Note_on_c, 0, 76, 92
2, 141240, Note_off_c, 0, 76, 64
2, 141240, Note_on_c, 0, 64, 92
2, 141360, Note_off_c, 0, 64, 64
2, 141360, Note_on_c, 0, 66, 92
2, 141480, Note_off_c, 0, 66, 64
2, 141480, Note_on_c, 0, 68, 92
2, 141600, Note_off_c, 0, 68, 64
2, 141600, Note_on_c, 0, 69, 92
2, 141720, Note_off_c, 0, 69, 64
2, 141720, Note_on_c, 0, 68, 92
2, 141840, Note_off_c, 0, 68, 64
2, 141840, Note_on_c, 0, 69, 92
2, 141960, Note_off_c, 0, 69, 64
2, 141960, Note_on_c, 0, 72, 92
2, 142080, Note_off_c, 0, 72, 64
2, 142080, Note_on_c, 0, 71, 92
2, 142200, Note_off_c, 0, 71, 64
2, 142200, Note_on_c, 0, 69, 92
2, 142320, Note_off_c, 0, 69, 64
2, 142320, Note_on_c, 0, 68, 92
2, 142440, Note_off_c, 0, 68, 64
2, 142440, Note_on_c, 0, 66, 92
2, 142560, Note_off_c, 0, 66, 64
2, 142560, Note_on_c, 0, 64, 92
2, 142680, Note_off_c, 0, 64, 64
2, 142680, Note_on_c, 0, 66, 92
2, 142800, Note_off_c, 0, 66, 64
2, 142800, Note_on_c, 0, 68, 92
2, 142920, Note_off_c, 0, 68, 64
2, 142920, Note_on_c, 0, 69, 92
2, 143040, Note_off_c, 0, 69, 64
2, 143040, Note_on_c, 0, 71, 92
2, 143160, Note_off_c, 0, 71, 64
2, 143160, Note_on_c, 0, 74, 92
2, 143280, Note_off_c, 0, 74, 64
2, 143280, Note_on_c, 0, 72, 92
2, 143400, Note_off_c, 0, 72, 64
2, 143400, Note_on_c, 0, 71, 92
2, 143520, Note_off_c, 0, 71, 64
2, 143520, Note_on_c, 0, 76, 92
2, 143640, Note_off_c, 0, 76, 64
2, 143640, Note_on_c, 0, 74, 92
2, 143760, Note_off_c, 0, 74, 64
2, 143760, Note_on_c, 0, 72, 92
2, 143880, Note_off_c, 0, 72, 64
2, 143880, Note_on_c, 0, 71, 92
2, 144000, Note_off_c, 0, 71, 64
2, 144000, Note_on_c, 0, 72, 92
2, 145560, Note_off_c, 0, 72, 64
2, 145560, Note_on_c, 0, 71, 92
2, 145680, Note_off_c, 0, 71, 64
2, 145680, Note_on_c, 0, 69, 92
2, 145800, Note_off_c, 0, 69, 64
2, 145800, Note_on_c, 0, 71, 92
2, 145920, Note_off_c, 0, 71, 64
2, 145920, Note_on_c, 0, 72, 92
2, 146040, Note_off_c, 0, 72, 64
2, 146040, Note_on_c, 0, 76, 92
2, 146160, Note_off_c, 0, 76, 64
2, 146160, Note_on_c, 0, 74, 92
2, 146280, Note_off_c, 0, 74, 64
2, 146280, Note_on_c, 0, 72, 92
2, 146400, Note_off_c, 0, 72, 64
2, 146400, Note_on_c, 0, 77, 92
2, 146520, Note_off_c, 0, 77, 64
2, 146520, Note_on_c, 0, 76, 92
2, 146640, Note_off_c, 0, 76, 64
2, 146640, Note_on_c, 0, 74, 92
2, 146760, Note_off_c, 0, 74, 64
2, 146760, Note_on_c, 0, 72, 92
2, 146880, Note_off_c, 0, 72, 64
2, 146880, Note_on_c, 0, 74, 92
2, 148440, Note_off_c, 0, 74, 64
2, 148440, Note_on_c, 0, 72, 92
2, 148560, Note_off_c, 0, 72, 64
2, 148560, Note_on_c, 0, 71, 92
2, 148680, Note_off_c, 0, 71, 64
2, 148680, Note_on_c, 0, 72, 92
2, 148800, Note_off_c, 0, 72, 64
2, 148800, Note_on_c, 0, 74, 92
2, 148920, Note_off_c, 0, 74, 64
2, 148920, Note_on_c, 0, 77, 92
2, 149040, Note_off_c, 0, 77, 64
2, 149040, Note_on_c, 0, 76, 92
2, 149160, Note_off_c, 0, 76, 64
2, 149160, Note_on_c, 0, 74, 92
2, 149280, Note_off_c, 0, 74, 64
2, 149280, Note_on_c, 0, 79, 92
2, 149400, Note_off_c, 0, 79, 64
2, 149400, Note_on_c, 0, 77, 92
2, 149520, Note_off_c, 0, 77, 64
2, 149520, Note_on_c, 0, 76, 92
2, 149640, Note_off_c, 0, 76, 64
2, 149640, Note_on_c, 0, 74, 92
2, 149760, Note_off_c, 0, 74, 64
2, 149760, Note_on_c, 0, 76, 92
2, 149880, Note_off_c, 0, 76, 64
2, 149880, Note_on_c, 0, 72, 92
2, 150000, Note_off_c, 0, 72, 64
2, 150000, Note_on_c, 0, 71, 92
2, 150120, Note_off_c, 0, 71, 64
2, 150120, Note_on_c, 0, 72, 92
2, 150240, Note_off_c, 0, 72, 64
2, 150240, Note_on_c, 0, 76, 92
2, 150360, Note_off_c, 0, 76, 64
2, 150360, Note_on_c, 0, 72, 92
2, 150480, Note_off_c, 0, 72, 64
2, 150480, Note_on_c, 0, 71, 92
2, 150600, Note_off_c, 0, 71, 64
2, 150600, Note_on_c, 0, 72, 92
2, 150720, Note_off_c, 0, 72, 64
2, 150720, Note_on_c, 0, 67, 92
2, 150840, Note_off_c, 0, 67, 64
2, 150840, Note_on_c, 0, 72, 92
2, 150960, Note_off_c, 0, 72, 64
2, 150960, Note_on_c, 0, 64, 92
2, 151080, Note_off_c, 0, 64, 64
2, 151080, Note_on_c, 0, 67, 92
2, 151200, Note_off_c, 0, 67, 64
2, 151200, Note_on_c, 0, 60, 92
2, 151440, Note_off_c, 0, 60, 64
2, 151440, Note_on_c, 0, 79, 92
2, 151680, Note_off_c, 0, 79, 64
2, 151680, Note_on_c, 0, 76, 92
2, 151920, Note_off_c, 0, 76, 64
2, 151920, Note_on_c, 0, 79, 92
2, 152160, Note_off_c, 0, 79, 64
2, 152160, Note_on_c, 0, 81, 92
2, 152400, Note_off_c, 0, 81, 64
2, 152400, Note_on_c, 0, 79, 92
2, 152520, Note_off_c, 0, 79, 64
2, 152520, Note_on_c, 0, 77, 92
2, 152640, Note_off_c, 0, 77, 64
2, 152640, Note_on_c, 0, 79, 92
2, 153120, Note_off_c, 0, 79, 64
2, 154320, Note_on_c, 0, 76, 92
2, 154560, Note_off_c, 0, 76, 64
2, 154560, Note_on_c, 0, 72, 92
2, 154800, Note_off_c, 0, 72, 64
2, 154800, Note_on_c, 0, 76, 92
2, 155040, Note_off_c, 0, 76, 64
2, 155040, Note_on_c, 0, 77, 92
2, 155280, Note_off_c, 0, 77, 64
2, 155280, Note_on_c, 0, 76, 92
2, 155400, Note_off_c, 0, 76, 64
2, 155400, Note_on_c, 0, 74, 92
2, 155520, Note_off_c, 0, 74, 64
2, 155520, Note_on_c, 0, 76, 92
2, 155760, Note_off_c, 0, 76, 64
2, 155760, Note_on_c, 0, 79, 92
2, 156000, Note_off_c, 0, 79, 64
2, 156000, Note_on_c, 0, 72, 92
2, 156240, Note_off_c, 0, 72, 64
2, 156240, Note_on_c, 0, 76, 92
2, 156480, Note_off_c, 0, 76, 64
2, 156480, Note_on_c, 0, 69, 92
2, 156600, Note_off_c, 0, 69, 64
2, 156600, Note_on_c, 0, 72, 92
2, 156720, Note_off_c, 0, 72, 64
2, 156720, Note_on_c, 0, 74, 92
2, 156840, Note_off_c, 0, 74, 64
2, 156840, Note_on_c, 0, 76, 92
2, 156960, Note_off_c, 0, 76, 64
2, 156960, Note_on_c, 0, 77, 92
2, 157200, Note_off_c, 0, 77, 64
2, 157200, Note_on_c, 0, 81, 92
2, 157440, Note_off_c, 0, 81, 64
2, 157440, Note_on_c, 0, 74, 92
2, 157680, Note_off_c, 0, 74, 64
2, 157680, Note_on_c, 0, 77, 92
2, 157920, Note_off_c, 0, 77, 64
2, 157920, Note_on_c, 0, 71, 92
2, 158040, Note_off_c, 0, 71, 64
2, 158040, Note_on_c, 0, 74, 92
2, 158160, Note_off_c, 0, 74, 64
2, 158160, Note_on_c, 0, 76, 92
2, 158280, Note_off_c, 0, 76, 64
2, 158280, Note_on_c, 0, 77, 92
2, 158400, Note_off_c, 0, 77, 64
2, 158400, Note_on_c, 0, 79, 92
2, 158640, Note_off_c, 0, 79, 64
2, 158640, Note_on_c, 0, 84, 92
2, 158760, Note_off_c, 0, 84, 64
2, 158760, Note_on_c, 0, 79, 92
2, 158880, Note_off_c, 0, 79, 64
2, 158880, Note_on_c, 0, 76, 92
2, 159120, Note_off_c, 0, 76, 64
2, 159120, Note_on_c, 0, 79, 92
2, 159240, Note_off_c, 0, 79, 64
2, 159240, Note_on_c, 0, 76, 92
2, 159360, Note_off_c, 0, 76, 64
2, 159360, Note_on_c, 0, 72, 92
2, 159480, Note_off_c, 0, 72, 64
2, 159480, Note_on_c, 0, 76, 92
2, 159600, Note_off_c, 0, 76, 64
2, 159600, Note_on_c, 0, 77, 92
2, 159720, Note_off_c, 0, 77, 64
2, 159720, Note_on_c, 0, 79, 92
2, 159840, Note_off_c, 0, 79, 64
2, 159840, Note_on_c, 0, 81, 92
2, 159960, Note_off_c, 0, 81, 64
2, 159960, Note_on_c, 0, 79, 92
2, 160080, Note_off_c, 0, 79, 64
2, 160080, Note_on_c, 0, 81, 92
2, 160200, Note_off_c, 0, 81, 64
2, 160200, Note_on_c, 0, 82, 92
2, 160320, Note_off_c, 0, 82, 64
2, 160320, Note_on_c, 0, 81, 92
2, 160440, Note_off_c, 0, 81, 64
2, 160440, Note_on_c, 0, 79, 92
2, 160560, Note_off_c, 0, 79, 64
2, 160560, Note_on_c, 0, 77, 92
2, 160680, Note_off_c, 0, 77, 64
2, 160680, Note_on_c, 0, 76, 92
2, 160800, Note_off_c, 0, 76, 64
2, 160800, Note_on_c, 0, 74, 92
2, 160920, Note_off_c, 0, 74, 64
2, 160920, Note_on_c, 0, 72, 92
2, 161040, Note_off_c, 0, 72, 64
2, 161040, Note_on_c, 0, 71, 92
2, 161160, Note_off_c, 0, 71, 64
2, 161160, Note_on_c, 0, 69, 92
2, 161280, Note_off_c, 0, 69, 64
2, 161280, Note_on_c, 0, 71, 92
2, 161400, Note_off_c, 0, 71, 64
2, 161400, Note_on_c, 0, 72, 92
2, 161520, Note_off_c, 0, 72, 64
2, 161520, Note_on_c, 0, 71, 92
2, 161640, Note_off_c, 0, 71, 64
2, 161640, Note_on_c, 0, 67, 92
2, 161760, Note_off_c, 0, 67, 64
2, 161760, Note_on_c, 0, 74, 92
2, 161880, Note_off_c, 0, 74, 64
2, 161880, Note_on_c, 0, 76, 92
2, 162000, Note_off_c, 0, 76, 64
2, 162000, Note_on_c, 0, 74, 92
2, 162120, Note_off_c, 0, 74, 64
2, 162120, Note_on_c, 0, 71, 92
2, 162240, Note_off_c, 0, 71, 64
2, 162240, Note_on_c, 0, 77, 92
2, 162360, Note_off_c, 0, 77, 64
2, 162360, Note_on_c, 0, 79, 92
2, 162480, Note_off_c, 0, 79, 64
2, 162480, Note_on_c, 0, 77, 92
2, 162600, Note_off_c, 0, 77, 64
2, 162600, Note_on_c, 0, 74, 92
2, 162720, Note_off_c, 0, 74, 64
2, 162720, Note_on_c, 0, 75, 92
2, 162960, Note_off_c, 0, 75, 64
2, 162960, Note_on_c, 0, 72, 92
2, 163200, Note_off_c, 0, 72, 64
2, 163200, Note_on_c, 0, 79, 92
2, 163440, Note_off_c, 0, 79, 64
2, 163440, Note_on_c, 0, 75, 92
2, 163680, Note_off_c, 0, 75, 64
2, 163680, Note_on_c, 0, 84, 92
2, 164280, Note_off_c, 0, 84, 64
2, 164280, Note_on_c, 0, 82, 92
2, 164400, Note_off_c, 0, 82, 64
2, 164400, Note_on_c, 0, 81, 92
2, 164520, Note_off_c, 0, 81, 64
2, 164520, Note_on_c, 0, 79, 92
2, 164640, Note_off_c, 0, 79, 64
2, 164640, Note_on_c, 0, 78, 92
2, 164760, Note_off_c, 0, 78, 64
2, 164760, Note_on_c, 0, 81, 92
2, 164880, Note_off_c, 0, 81, 64
2, 164880, Note_on_c, 0, 75, 92
2, 165000, Note_off_c, 0, 75, 64
2, 165000, Note_on_c, 0, 74, 92
2, 165120, Note_off_c, 0, 74, 64
2, 165120, Note_on_c, 0, 75, 92
2, 165240, Note_off_c, 0, 75, 64
2, 165240, Note_on_c, 0, 72, 92
2, 165360, Note_off_c, 0, 72, 64
2, 165360, Note_on_c, 0, 79, 92
2, 165480, Note_off_c, 0, 79, 64
2, 165480, Note_on_c, 0, 78, 92
2, 165600, Note_off_c, 0, 78, 64
2, 165600, Note_on_c, 0, 79, 92
2, 165720, Note_off_c, 0, 79, 64
2, 165720, Note_on_c, 0, 74, 92
2, 165840, Note_off_c, 0, 74, 64
2, 165840, Note_on_c, 0, 72, 92
2, 165960, Note_off_c, 0, 72, 64
2, 165960, Note_on_c, 0, 74, 92
2, 166080, Note_off_c, 0, 74, 64
2, 166080, Note_on_c, 0, 83, 92
2, 167160, Note_off_c, 0, 83, 64
2, 167160, Note_on_c, 0, 72, 92
2, 167280, Note_off_c, 0, 72, 64
2, 167280, Note_on_c, 0, 71, 92
2, 167400, Note_off_c, 0, 71, 64
2, 167400, Note_on_c, 0, 72, 92
2, 167520, Note_off_c, 0, 72, 64
2, 167520, Note_on_c, 0, 81, 92
2, 168600, Note_off_c, 0, 81, 64
2, 168600, Note_on_c, 0, 71, 92
2, 168720, Note_off_c, 0, 71, 64
2, 168720, Note_on_c, 0, 69, 92
2, 168840, Note_off_c, 0, 69, 64
2, 168840, Note_on_c, 0, 71, 92
2, 168960, Note_off_c, 0, 71, 64
2, 168960, Note_on_c, 0, 79, 92
2, 170040, Note_off_c, 0, 79, 64
2, 170040, Note_on_c, 0, 78, 92
2, 170160, Note_off_c, 0, 78, 64
2, 170160, Note_on_c, 0, 76, 92
2, 170280, Note_off_c, 0, 76, 64
2, 170280, Note_on_c, 0, 74, 92
2, 170400, Note_off_c, 0, 74, 64
2, 170400, Note_on_c, 0, 72, 92
2, 170520, Note_off_c, 0, 72, 64
2, 170520, Note_on_c, 0, 71, 92
2, 170640, Note_off_c, 0, 71, 64
2, 170640, Note_on_c, 0, 69, 92
2, 170760, Note_off_c, 0, 69, 64
2, 170760, Note_on_c, 0, 67, 92
2, 170880, Note_off_c, 0, 67, 64
2, 170880, Note_on_c, 0, 66, 92
2, 171000, Note_off_c, 0, 66, 64
2, 171000, Note_on_c, 0, 64, 92
2, 171120, Note_off_c, 0, 64, 64
2, 171120, Note_on_c, 0, 62, 92
2, 171240, Note_off_c, 0, 62, 64
2, 171240, Note_on_c, 0, 60, 92
2, 171360, Note_off_c, 0, 60, 64
2, 171360, Note_on_c, 0, 62, 92
2, 171600, Note_off_c, 0, 62, 64
2, 171600, Note_on_c, 0, 72, 92
2, 171840, Note_off_c, 0, 72, 64
2, 171840, Note_on_c, 0, 71, 92
2, 172080, Note_off_c, 0, 71, 64
2, 172080, Note_on_c, 0, 76, 92
2, 172200, Note_off_c, 0, 76, 64
2, 172200, Note_on_c, 0, 74, 92
2, 172320, Note_off_c, 0, 74, 64
2, 172320, Note_on_c, 0, 72, 92
2, 172440, Note_off_c, 0, 72, 64
2, 172440, Note_on_c, 0, 71, 92
2, 172560, Note_off_c, 0, 71, 64
2, 172560, Note_on_c, 0, 69, 92
2, 172680, Note_off_c, 0, 69, 64
2, 172680, Note_on_c, 0, 67, 92
2, 172800, Note_off_c, 0, 67, 64
2, 172800, Note_on_c, 0, 67, 92
2, 173280, Note_off_c, 0, 67, 64
2, 174480, Note_on_c, 0, 83, 92
2, 174720, Note_off_c, 0, 83, 64
2, 174720, Note_on_c, 0, 79, 92
2, 174960, Note_off_c, 0, 79, 64
2, 174960, Note_on_c, 0, 83, 92
2, 175200, Note_off_c, 0, 83, 64
2, 175200, Note_on_c, 0, 84, 92
2, 175440, Note_off_c, 0, 84, 64
2, 175440, Note_on_c, 0, 83, 92
2, 175560, Note_off_c, 0, 83, 64
2, 175560, Note_on_c, 0, 81, 92
2, 175680, Note_off_c, 0, 81, 64
2, 175680, Note_on_c, 0, 83, 92
2, 175800, Note_off_c, 0, 83, 64
2, 175800, Note_on_c, 0, 79, 92
2, 175920, Note_off_c, 0, 79, 64
2, 175920, Note_on_c, 0, 78, 92
2, 176040, Note_off_c, 0, 78, 64
2, 176040, Note_on_c, 0, 79, 92
2, 176160, Note_off_c, 0, 79, 64
2, 176160, Note_on_c, 0, 83, 92
2, 176280, Note_off_c, 0, 83, 64
2, 176280, Note_on_c, 0, 79, 92
2, 176400, Note_off_c, 0, 79, 64
2, 176400, Note_on_c, 0, 78, 92
2, 176520, Note_off_c, 0, 78, 64
2, 176520, Note_on_c, 0, 79, 92
2, 176640, Note_off_c, 0, 79, 64
2, 176640, Note_on_c, 0, 74, 92
2, 176760, Note_off_c, 0, 74, 64
2, 176760, Note_on_c, 0, 79, 92
2, 176880, Note_off_c, 0, 79, 64
2, 176880, Note_on_c, 0, 71, 92
2, 177000, Note_off_c, 0, 71, 64
2, 177000, Note_on_c, 0, 74, 92
2, 177120, Note_off_c, 0, 74, 64
2, 177120, Note_on_c, 0, 67, 92
2, 177360, Note_off_c, 0, 67, 64
2, 177360, Note_on_c, 0, 74, 92
2, 177600, Note_off_c, 0, 74, 64
2, 177600, Note_on_c, 0, 71, 92
2, 177840, Note_off_c, 0, 71, 64
2, 177840, Note_on_c, 0, 74, 92
2, 178080, Note_off_c, 0, 74, 64
2, 178080, Note_on_c, 0, 76, 92
2, 178320, Note_off_c, 0, 76, 64
2, 178320, Note_on_c, 0, 74, 92
2, 178440, Note_off_c, 0, 74, 64
2, 178440, Note_on_c, 0, 72, 92
2, 178560, Note_off_c, 0, 72, 64
2, 178560, Note_on_c, 0, 74, 92
2, 178680, Note_off_c, 0, 74, 64
2, 178680, Note_on_c, 0, 71, 92
2, 178800, Note_off_c, 0, 71, 64
2, 178800, Note_on_c, 0, 67, 92
2, 178920, Note_off_c, 0, 67, 64
2, 178920, Note_on_c, 0, 71, 92
2, 179040, Note_off_c, 0, 71, 64
2, 179040, Note_on_c, 0, 76, 92
2, 179160, Note_off_c, 0, 76, 64
2, 179160, Note_on_c, 0, 71, 92
2, 179280, Note_off_c, 0, 71, 64
2, 179280, Note_on_c, 0, 67, 92
2, 179400, Note_off_c, 0, 67, 64
2, 179400, Note_on_c, 0, 71, 92
2, 179520, Note_off_c, 0, 71, 64
2, 179520, Note_on_c, 0, 79, 92
2, 180120, Note_off_c, 0, 79, 64
2, 180120, Note_on_c, 0, 72, 92
2, 180240, Note_off_c, 0, 72, 64
2, 180240, Note_on_c, 0, 69, 92
2, 180360, Note_off_c, 0, 69, 64
2, 180360, Note_on_c, 0, 72, 92
2, 180480, Note_off_c, 0, 72, 64
2, 180480, Note_on_c, 0, 78, 92
2, 180600, Note_off_c, 0, 78, 64
2, 180600, Note_on_c, 0, 72, 92
2, 180720, Note_off_c, 0, 72, 64
2, 180720, Note_on_c, 0, 69, 92
2, 180840, Note_off_c, 0, 69, 64
2, 180840, Note_on_c, 0, 72, 92
2, 180960, Note_off_c, 0, 72, 64
2, 180960, Note_on_c, 0, 81, 92
2, 181560, Note_off_c, 0, 81, 64
2, 181560, Note_on_c, 0, 74, 92
2, 181680, Note_off_c, 0, 74, 64
2, 181680, Note_on_c, 0, 71, 92
2, 181800, Note_off_c, 0, 71, 64
2, 181800, Note_on_c, 0, 74, 92
2, 181920, Note_off_c, 0, 74, 64
2, 181920, Note_on_c, 0, 79, 92
2, 182040, Note_off_c, 0, 79, 64
2, 182040, Note_on_c, 0, 74, 92
2, 182160, Note_off_c, 0, 74, 64
2, 182160, Note_on_c, 0, 71, 92
2, 182280, Note_off_c, 0, 71, 64
2, 182280, Note_on_c, 0, 74, 92
2, 182400, Note_off_c, 0, 74, 64
2, 182400, Note_on_c, 0, 83, 92
2, 183120, Note_off_c, 0, 83, 64
2, 183120, Note_on_c, 0, 81, 92
2, 183240, Note_off_c, 0, 81, 64
2, 183240, Note_on_c, 0, 80, 92
2, 183360, Note_off_c, 0, 80, 64
2, 183360, Note_on_c, 0, 81, 92
2, 183600, Note_off_c, 0, 81, 64
2, 183600, Note_on_c, 0, 76, 92
2, 183840, Note_off_c, 0, 76, 64
2, 183840, Note_on_c, 0, 84, 92
2, 184560, Note_off_c, 0, 84, 64
2, 184560, Note_on_c, 0, 81, 92
2, 184800, Note_off_c, 0, 81, 64
2, 184800, Note_on_c, 0, 78, 92
2, 185040, Note_off_c, 0, 78, 64
2, 185040, Note_on_c, 0, 81, 92
2, 185280, Note_off_c, 0, 81, 64
2, 185280, Note_on_c, 0, 74, 92
2, 185520, Note_off_c, 0, 74, 64
2, 185520, Note_on_c, 0, 78, 92
2, 185760, Note_off_c, 0, 78, 64
2, 185760, Note_on_c, 0, 79, 92
2, 185880, Note_off_c, 0, 79, 64
2, 185880, Note_on_c, 0, 81, 92
2, 186000, Note_off_c, 0, 81, 64
2, 186000, Note_on_c, 0, 82, 92
2, 186120, Note_off_c, 0, 82, 64
2, 186120, Note_on_c, 0, 84, 92
2, 186240, Note_off_c, 0, 84, 64
2, 186240, Note_on_c, 0, 82, 92
2, 186360, Note_off_c, 0, 82, 64
2, 186360, Note_on_c, 0, 81, 92
2, 186480, Note_off_c, 0, 81, 64
2, 186480, Note_on_c, 0, 79, 92
2, 186600, Note_off_c, 0, 79, 64
2, 186600, Note_on_c, 0, 77, 92
2, 186720, Note_off_c, 0, 77, 64
2, 186720, Note_on_c, 0, 76, 92
2, 186840, Note_off_c, 0, 76, 64
2, 186840, Note_on_c, 0, 74, 92
2, 186960, Note_off_c, 0, 74, 64
2, 186960, Note_on_c, 0, 73, 92
2, 187080, Note_off_c, 0, 73, 64
2, 187080, Note_on_c, 0, 71, 92
2, 187200, Note_off_c, 0, 71, 64
2, 187200, Note_on_c, 0, 73, 92
2, 187440, Note_off_c, 0, 73, 64
2, 187440, Note_on_c, 0, 67, 92
2, 187680, Note_off_c, 0, 67, 64
2, 187680, Note_on_c, 0, 76, 92
2, 187920, Note_off_c, 0, 76, 64
2, 187920, Note_on_c, 0, 73, 92
2, 188160, Note_off_c, 0, 73, 64
2, 188160, Note_on_c, 0, 79, 92
2, 188760, Note_off_c, 0, 79, 64
2, 188760, Note_on_c, 0, 78, 92
2, 188880, Note_off_c, 0, 78, 64
2, 188880, Note_on_c, 0, 76, 92
2, 189000, Note_off_c, 0, 76, 64
2, 189000, Note_on_c, 0, 74, 92
2, 189120, Note_off_c, 0, 74, 64
2, 189120, Note_on_c, 0, 83, 92
2, 189720, Note_off_c, 0, 83, 64
2, 189720, Note_on_c, 0, 84, 92
2, 189840, Note_off_c, 0, 84, 64
2, 189840, Note_on_c, 0, 83, 92
2, 189960, Note_off_c, 0, 83, 64
2, 189960, Note_on_c, 0, 81, 92
2, 190080, Note_off_c, 0, 81, 64
2, 190080, Note_on_c, 0, 79, 92
2, 190800, Note_off_c, 0, 79, 64
2, 190800, Note_on_c, 0, 78, 92
2, 190920, Note_off_c, 0, 78, 64
2, 190920, Note_on_c, 0, 76, 92
2, 191040, Note_off_c, 0, 76, 64
2, 191040, Note_on_c, 0, 74, 92
2, 191160, Note_off_c, 0, 74, 64
2, 191160, Note_on_c, 0, 72, 92
2, 191280, Note_off_c, 0, 72, 64
2, 191280, Note_on_c, 0, 71, 92
2, 191400, Note_off_c, 0, 71, 64
2, 191400, Note_on_c, 0, 69, 92
2, 191520, Note_off_c, 0, 69, 64
2, 191520, Note_on_c, 0, 67, 92
2, 192120, Note_off_c, 0, 67, 64
2, 192120, Note_on_c, 0, 76, 92
2, 192240, Note_off_c, 0, 76, 64
2, 192240, Note_on_c, 0, 74, 92
2, 192360, Note_off_c, 0, 74, 64
2, 192360, Note_on_c, 0, 72, 92
2, 192480, Note_off_c, 0, 72, 64
2, 192480, Note_on_c, 0, 79, 92
2, 193080, Note_off_c, 0, 79, 64
2, 193080, Note_on_c, 0, 76, 92
2, 193200, Note_off_c, 0, 76, 64
2, 193200, Note_on_c, 0, 81, 92
2, 193320, Note_off_c, 0, 81, 64
2, 193320, Note_on_c, 0, 79, 92
2, 193440, Note_off_c, 0, 79, 64
2, 193440, Note_on_c, 0, 77, 92
2, 193560, Note_off_c, 0, 77, 64
2, 193560, Note_on_c, 0, 76, 92
2, 193680, Note_off_c, 0, 76, 64
2, 193680, Note_on_c, 0, 74, 92
2, 193800, Note_off_c, 0, 74, 64
2, 193800, Note_on_c, 0, 72, 92
2, 193920, Note_off_c, 0, 72, 64
2, 193920, Note_on_c, 0, 71, 92
2, 194160, Note_off_c, 0, 71, 64
2, 194160, Note_on_c, 0, 77, 92
2, 194520, Note_off_c, 0, 77, 64
2, 194520, Note_on_c, 0, 76, 92
2, 194640, Note_off_c, 0, 76, 64
2, 194640, Note_on_c, 0, 74, 92
2, 194760, Note_off_c, 0, 74, 64
2, 194760, Note_on_c, 0, 76, 92
2, 194880, Note_off_c, 0, 76, 64
2, 194880, Note_on_c, 0, 79, 92
2, 195000, Note_off_c, 0, 79, 64
2, 195000, Note_on_c, 0, 76, 92
2, 195120, Note_off_c, 0, 76, 64
2, 195120, Note_on_c, 0, 74, 92
2, 195240, Note_off_c, 0, 74, 64
2, 195240, Note_on_c, 0, 76, 92
2, 195360, Note_off_c, 0, 76, 64
2, 195360, Note_on_c, 0, 72, 92
2, 195480, Note_off_c, 0, 72, 64
2, 195480, Note_on_c, 0, 76, 92
2, 195600, Note_off_c, 0, 76, 64
2, 195600, Note_on_c, 0, 69, 92
2, 195720, Note_off_c, 0, 69, 64
2, 195720, Note_on_c, 0, 72, 92
2, 195840, Note_off_c, 0, 72, 64
2, 195840, Note_on_c, 0, 65, 92
2, 196080, Note_off_c, 0, 65, 64
2, 196080, Note_on_c, 0, 81, 92
2, 196320, Note_off_c, 0, 81, 64
2, 196320, Note_on_c, 0, 77, 92
2, 196560, Note_off_c, 0, 77, 64
2, 196560, Note_on_c, 0, 81, 92
2, 196800, Note_off_c, 0, 81, 64
2, 196800, Note_on_c, 0, 82, 92
2, 197400, Note_off_c, 0, 82, 64
2, 197400, Note_on_c, 0, 79, 92
2, 197520, Note_off_c, 0, 79, 64
2, 197520, Note_on_c, 0, 77, 92
2, 197640, Note_off_c, 0, 77, 64
2, 197640, Note_on_c, 0, 79, 92
2, 197760, Note_off_c, 0, 79, 64
2, 197760, Note_on_c, 0, 82, 92
2, 197880, Note_off_c, 0, 82, 64
2, 197880, Note_on_c, 0, 79, 92
2, 198000, Note_off_c, 0, 79, 64
2, 198000, Note_on_c, 0, 77, 92
2, 198120, Note_off_c, 0, 77, 64
2, 198120, Note_on_c, 0, 79, 92
2, 198240, Note_off_c, 0, 79, 64
2, 198240, Note_on_c, 0, 76, 92
2, 198360, Note_off_c, 0, 76, 64
2, 198360, Note_on_c, 0, 79, 92
2, 198480, Note_off_c, 0, 79, 64
2, 198480, Note_on_c, 0, 72, 92
2, 198600, Note_off_c, 0, 72, 64
2, 198600, Note_on_c, 0, 76, 92
2, 198720, Note_off_c, 0, 76, 64
2, 198720, Note_on_c, 0, 69, 92
2, 198840, Note_off_c, 0, 69, 64
2, 198840, Note_on_c, 0, 81, 92
2, 198960, Note_off_c, 0, 81, 64
2, 198960, Note_on_c, 0, 79, 92
2, 199080, Note_off_c, 0, 79, 64
2, 199080, Note_on_c, 0, 81, 92
2, 199200, Note_off_c, 0, 81, 64
2, 199200, Note_on_c, 0, 84, 92
2, 199320, Note_off_c, 0, 84, 64
2, 199320, Note_on_c, 0, 81, 92
2, 199440, Note_off_c, 0, 81, 64
2, 199440, Note_on_c, 0, 79, 92
2, 199560, Note_off_c, 0, 79, 64
2, 199560, Note_on_c, 0, 81, 92
2, 199680, Note_off_c, 0, 81, 64
2, 199680, Note_on_c, 0, 77, 92
2, 199800, Note_off_c, 0, 77, 64
2, 199800, Note_on_c, 0, 81, 92
2, 199920, Note_off_c, 0, 81, 64
2, 199920, Note_on_c, 0, 84, 92
2, 200280, Note_off_c, 0, 84, 64
2, 200280, Note_on_c, 0, 82, 92
2, 200400, Note_off_c, 0, 82, 64
2, 200400, Note_on_c, 0, 81, 92
2, 200520, Note_off_c, 0, 81, 64
2, 200520, Note_on_c, 0, 82, 92
2, 200640, Note_off_c, 0, 82, 64
2, 200640, Note_on_c, 0, 84, 92
2, 200760, Note_off_c, 0, 84, 64
2, 200760, Note_on_c, 0, 82, 92
2, 200880, Note_off_c, 0, 82, 64
2, 200880, Note_on_c, 0, 81, 92
2, 201000, Note_off_c, 0, 81, 64
2, 201000, Note_on_c, 0, 82, 92
2, 201120, Note_off_c, 0, 82, 64
2, 201120, Note_on_c, 0, 77, 92
2, 201240, Note_off_c, 0, 77, 64
2, 201240, Note_on_c, 0, 81, 92
2, 201360, Note_off_c, 0, 81, 64
2, 201360, Note_on_c, 0, 82, 92
2, 201720, Note_off_c, 0, 82, 64
2, 201720, Note_on_c, 0, 81, 92
2, 201840, Note_off_c, 0, 81, 64
2, 201840, Note_on_c, 0, 79, 92
2, 201960, Note_off_c, 0, 79, 64
2, 201960, Note_on_c, 0, 81, 92
2, 202080, Note_off_c, 0, 81, 64
2, 202080, Note_on_c, 0, 82, 92
2, 202200, Note_off_c, 0, 82, 64
2, 202200, Note_on_c, 0, 81, 92
2, 202320, Note_off_c, 0, 81, 64
2, 202320, Note_on_c, 0, 79, 92
2, 202440, Note_off_c, 0, 79, 64
2, 202440, Note_on_c, 0, 81, 92
2, 202560, Note_off_c, 0, 81, 64
2, 202560, Note_on_c, 0, 77, 92
2, 202680, Note_off_c, 0, 77, 64
2, 202680, Note_on_c, 0, 79, 92
2, 202800, Note_off_c, 0, 79, 64
2, 202800, Note_on_c, 0, 81, 92
2, 203160, Note_off_c, 0, 81, 64
2, 203160, Note_on_c, 0, 79, 92
2, 203280, Note_off_c, 0, 79, 64
2, 203280, Note_on_c, 0, 77, 92
2, 203400, Note_off_c, 0, 77, 64
2, 203400, Note_on_c, 0, 79, 92
2, 203520, Note_off_c, 0, 79, 64
2, 203520, Note_on_c, 0, 82, 92
2, 203640, Note_off_c, 0, 82, 64
2, 203640, Note_on_c, 0, 79, 92
2, 203760, Note_off_c, 0, 79, 64
2, 203760, Note_on_c, 0, 77, 92
2, 203880, Note_off_c, 0, 77, 64
2, 203880, Note_on_c, 0, 79, 92
2, 204000, Note_off_c, 0, 79, 64
2, 204000, Note_on_c, 0, 76, 92
2, 204120, Note_off_c, 0, 76, 64
2, 204120, Note_on_c, 0, 77, 92
2, 204240, Note_off_c, 0, 77, 64
2, 204240, Note_on_c, 0, 79, 92
2, 204720, Note_off_c, 0, 79, 64
2, 204720, Note_on_c, 0, 72, 92
2, 204960, Note_off_c, 0, 72, 64
2, 204960, Note_on_c, 0, 77, 92
2, 205200, Note_off_c, 0, 77, 64
2, 205200, Note_on_c, 0, 81, 92
2, 205680, Note_off_c, 0, 81, 64
2, 205680, Note_on_c, 0, 74, 92
2, 206160, Note_off_c, 0, 74, 64
2, 206160, Note_on_c, 0, 71, 92
2, 206400, Note_off_c, 0, 71, 64
2, 206400, Note_on_c, 0, 76, 92
2, 206640, Note_off_c, 0, 76, 64
2, 206640, Note_on_c, 0, 79, 92
2, 207120, Note_off_c, 0, 79, 64
2, 207120, Note_on_c, 0, 72, 92
2, 207600, Note_off_c, 0, 72, 64
2, 207600, Note_on_c, 0, 69, 92
2, 207840, Note_off_c, 0, 69, 64
2, 207840, Note_on_c, 0, 74, 92
2, 208080, Note_off_c, 0, 74, 64
2, 208080, Note_on_c, 0, 77, 92
2, 208560, Note_off_c, 0, 77, 64
2, 208560, Note_on_c, 0, 71, 92
2, 208800, Note_off_c, 0, 71, 64
2, 209040, Note_on_c, 0, 72, 92
2, 209280, Note_off_c, 0, 72, 64
2, 209280, Note_on_c, 0, 76, 92
2, 209520, Note_off_c, 0, 76, 64
2, 209520, Note_on_c, 0, 79, 92
2, 209760, Note_off_c, 0, 79, 64
2, 209760, Note_on_c, 0, 82, 92
2, 210000, Note_off_c, 0, 82, 64
2, 210000, Note_on_c, 0, 81, 92
2, 210120, Note_off_c, 0, 81, 64
2, 210120, Note_on_c, 0, 79, 92
2, 210240, Note_off_c, 0, 79, 64
2, 210240, Note_on_c, 0, 81, 92
2, 210480, Note_off_c, 0, 81, 64
2, 210480, Note_on_c, 0, 77, 92
2, 210720, Note_off_c, 0, 77, 64
2, 210720, Note_on_c, 0, 72, 92
2, 210960, Note_off_c, 0, 72, 64
2, 210960, Note_on_c, 0, 77, 92
2, 211200, Note_off_c, 0, 77, 64
2, 211200, Note_on_c, 0, 81, 92
2, 211440, Note_off_c, 0, 81, 64
2, 211440, Note_on_c, 0, 79, 92
2, 211560, Note_off_c, 0, 79, 64
2, 211560, Note_on_c, 0, 77, 92
2, 211680, Note_off_c, 0, 77, 64
2, 211680, Note_on_c, 0, 79, 92
2, 211920, Note_off_c, 0, 79, 64
2, 211920, Note_on_c, 0, 76, 92
2, 212160, Note_off_c, 0, 76, 64
2, 212160, Note_on_c, 0, 72, 92
2, 212400, Note_off_c, 0, 72, 64
2, 212400, Note_on_c, 0, 76, 92
2, 212640, Note_off_c, 0, 76, 64
2, 212640, Note_on_c, 0, 79, 92
2, 212880, Note_off_c, 0, 79, 64
2, 212880, Note_on_c, 0, 77, 92
2, 213000, Note_off_c, 0, 77, 64
2, 213000, Note_on_c, 0, 76, 92
2, 213120, Note_off_c, 0, 76, 64
2, 213120, Note_on_c, 0, 77, 92
2, 213360, Note_off_c, 0, 77, 64
2, 213360, Note_on_c, 0, 74, 92
2, 213600, Note_off_c, 0, 74, 64
2, 213600, Note_on_c, 0, 71, 92
2, 213840, Note_off_c, 0, 71, 64
2, 213840, Note_on_c, 0, 74, 92
2, 214080, Note_off_c, 0, 74, 64
2, 214080, Note_on_c, 0, 77, 92
2, 214200, Note_off_c, 0, 77, 64
2, 214200, Note_on_c, 0, 76, 92
2, 214320, Note_off_c, 0, 76, 64
2, 214320, Note_on_c, 0, 74, 92
2, 214440, Note_off_c, 0, 74, 64
2, 214440, Note_on_c, 0, 76, 92
2, 214560, Note_off_c, 0, 76, 64
2, 214560, Note_on_c, 0, 77, 92
2, 214680, Note_off_c, 0, 77, 64
2, 214680, Note_on_c, 0, 76, 92
2, 214800, Note_off_c, 0, 76, 64
2, 214800, Note_on_c, 0, 74, 92
2, 214920, Note_off_c, 0, 74, 64
2, 214920, Note_on_c, 0, 76, 92
2, 215040, Note_off_c, 0, 76, 64
2, 215040, Note_on_c, 0, 72, 92
2, 215160, Note_off_c, 0, 72, 64
2, 215160, Note_on_c, 0, 81, 92
2, 215280, Note_off_c, 0, 81, 64
2, 215280, Note_on_c, 0, 79, 92
2, 215400, Note_off_c, 0, 79, 64
2, 215400, Note_on_c, 0, 77, 92
2, 215520, Note_off_c, 0, 77, 64
2, 215520, Note_on_c, 0, 76, 92
2, 215640, Note_off_c, 0, 76, 64
2, 215640, Note_on_c, 0, 74, 92
2, 215760, Note_off_c, 0, 74, 64
2, 215760, Note_on_c, 0, 72, 92
2, 215880, Note_off_c, 0, 72, 64
2, 215880, Note_on_c, 0, 70, 92
2, 216000, Note_off_c, 0, 70, 64
2, 216000, Note_on_c, 0, 69, 92
2, 216120, Note_off_c, 0, 69, 64
2, 216120, Note_on_c, 0, 70, 92
2, 216240, Note_off_c, 0, 70, 64
2, 216240, Note_on_c, 0, 67, 92
2, 216360, Note_off_c, 0, 67, 64
2, 216360, Note_on_c, 0, 69, 92
2, 216480, Note_off_c, 0, 69, 64
2, 216480, Note_on_c, 0, 65, 92
2, 216600, Note_off_c, 0, 65, 64
2, 216600, Note_on_c, 0, 79, 92
2, 216720, Note_off_c, 0, 79, 64
2, 216720, Note_on_c, 0, 77, 92
2, 216840, Note_off_c, 0, 77, 64
2, 216840, Note_on_c, 0, 76, 92
2, 216960, Note_off_c, 0, 76, 64
2, 216960, Note_on_c, 0, 74, 92
2, 217080, Note_off_c, 0, 74, 64
2, 217080, Note_on_c, 0, 72, 92
2, 217200, Note_off_c, 0, 72, 64
2, 217200, Note_on_c, 0, 71, 92
2, 217320, Note_off_c, 0, 71, 64
2, 217320, Note_on_c, 0, 69, 92
2, 217440, Note_off_c, 0, 69, 64
2, 217440, Note_on_c, 0, 67, 92
2, 217560, Note_off_c, 0, 67, 64
2, 217560, Note_on_c, 0, 69, 92
2, 217680, Note_off_c, 0, 69, 64
2, 217680, Note_on_c, 0, 65, 92
2, 217800, Note_off_c, 0, 65, 64
2, 217800, Note_on_c, 0, 67, 92
2, 217920, Note_off_c, 0, 67, 64
2, 217920, Note_on_c, 0, 64, 92
2, 218040, Note_off_c, 0, 64, 64
2, 218040, Note_on_c, 0, 77, 92
2, 218160, Note_off_c, 0, 77, 64
2, 218160, Note_on_c, 0, 76, 92
2, 218280, Note_off_c, 0, 76, 64
2, 218280, Note_on_c, 0, 74, 92
2, 218400, Note_off_c, 0, 74, 64
2, 218400, Note_on_c, 0, 72, 92
2, 218520, Note_off_c, 0, 72, 64
2, 218520, Note_on_c, 0, 71, 92
2, 218640, Note_off_c, 0, 71, 64
2, 218640, Note_on_c, 0, 69, 92
2, 218760, Note_off_c, 0, 69, 64
2, 218760, Note_on_c, 0, 67, 92
2, 218880, Note_off_c, 0, 67, 64
2, 218880, Note_on_c, 0, 65, 92
2, 219120, Note_off_c, 0, 65, 64
2, 219120, Note_on_c, 0, 69, 92
2, 219600, Note_off_c, 0, 69, 64
2, 219600, Note_on_c, 0, 74, 92
2, 220080, Note_off_c, 0, 74, 64
2, 220080, Note_on_c, 0, 77, 92
2, 220440, Note_off_c, 0, 77, 64
2, 220440, Note_on_c, 0, 72, 92
2, 220560, Note_off_c, 0, 72, 64
2, 220560, Note_on_c, 0, 74, 92
2, 220680, Note_off_c, 0, 74, 64
2, 220680, Note_on_c, 0, 71, 92
2, 220800, Note_off_c, 0, 71, 64
2, 220800, Note_on_c, 0, 72, 92
2, 221040, Note_off_c, 0, 72, 64
2, 221040, Note_on_c, 0, 74, 92
2, 221280, Note_off_c, 0, 74, 64
2, 221280, Note_on_c, 0, 67, 92
2, 221520, Note_off_c, 0, 67, 64
2, 221520, Note_on_c, 0, 71, 92
2, 221760, Note_off_c, 0, 71, 64
2, 221760, Note_on_c, 0, 72, 92
2, 222240, Note_off_c, 0, 72, 64
2, 224642, Note_on_c, 0, 69, 92
2, 224762, Note_on_c, 0, 72, 92
2, 224765, Note_off_c, 0, 69, 64
2, 224822, Note_on_c, 0, 76, 92
2, 224825, Note_off_c, 0, 72, 64
2, 224882, Note_on_c, 0, 77, 92
2, 224885, Note_off_c, 0, 76, 64
2, 225125, Note_off_c, 0, 77, 64
2, 225362, Note_on_c, 0, 69, 92
2, 225602, Note_on_c, 0, 68, 92
2, 225605, Note_off_c, 0, 69, 64
2, 225845, Note_off_c, 0, 68, 64
2, 226082, Note_on_c, 0, 69, 92
2, 226202, Note_on_c, 0, 72, 92
2, 226205, Note_off_c, 0, 69, 64
2, 226262, Note_on_c, 0, 76, 92
2, 226265, Note_off_c, 0, 72, 64
2, 226322, Note_on_c, 0, 81, 92
2, 226325, Note_off_c, 0, 76, 64
2, 226442, Note_on_c, 0, 81, 92
2, 226445, Note_off_c, 0, 81, 64
2, 226562, Note_on_c, 0, 81, 92
2, 226565, Note_off_c, 0, 81, 64
2, 226682, Note_on_c, 0, 81, 92
2, 226685, Note_off_c, 0, 81, 64
2, 226922, Note_on_c, 0, 79, 92
2, 226925, Note_off_c, 0, 81, 64
2, 226982, Note_on_c, 0, 77, 92
2, 226985, Note_off_c, 0, 79, 64
2, 227042, Note_on_c, 0, 79, 92
2, 227045, Note_off_c, 0, 77, 64
2, 227162, Note_on_c, 0, 70, 92
2, 227165, Note_off_c, 0, 79, 64
2, 227282, Note_on_c, 0, 69, 92
2, 227285, Note_off_c, 0, 70, 64
2, 227402, Note_on_c, 0, 79, 92
2, 227405, Note_off_c, 0, 69, 64
2, 227642, Note_on_c, 0, 77, 92
2, 227645, Note_off_c, 0, 79, 64
2, 227702, Note_on_c, 0, 76, 92
2, 227705, Note_off_c, 0, 77, 64
2, 227762, Note_on_c, 0, 77, 92
2, 227765, Note_off_c, 0, 76, 64
2, 227882, Note_on_c, 0, 69, 92
2, 227885, Note_off_c, 0, 77, 64
2, 228002, Note_on_c, 0, 68, 92
2, 228005, Note_off_c, 0, 69, 64
2, 228122, Note_on_c, 0, 77, 92
2, 228125, Note_off_c, 0, 68, 64
2, 228242, Note_on_c, 0, 76, 92
2, 228245, Note_off_c, 0, 77, 64
2, 228302, Note_on_c, 0, 74, 92
2, 228305, Note_off_c, 0, 76, 64
2, 228362, Note_on_c, 0, 77, 92
2, 228365, Note_off_c, 0, 74, 64
2, 228422, Note_on_c, 0, 76, 92
2, 228425, Note_off_c, 0, 77, 64
2, 228482, Note_on_c, 0, 74, 92
2, 228485, Note_off_c, 0, 76, 64
2, 228542, Note_on_c, 0, 72, 92
2, 228545, Note_off_c, 0, 74, 64
2, 228602, Note_on_c, 0, 71, 92
2, 228605, Note_off_c, 0, 72, 64
2, 228662, Note_on_c, 0, 69, 92
2, 228665, Note_off_c, 0, 71, 64
2, 228722, Note_on_c, 0, 68, 92
2, 228725, Note_off_c, 0, 69, 64
2, 228782, Note_on_c, 0, 74, 92
2, 228785, Note_off_c, 0, 68, 64
2, 228842, Note_on_c, 0, 72, 92
2, 228845, Note_off_c, 0, 74, 64
2, 228902, Note_on_c, 0, 71, 92
2, 228905, Note_off_c, 0, 72, 64
2, 228962, Note_on_c, 0, 72, 92
2, 228965, Note_off_c, 0, 71, 64
2, 229022, Note_on_c, 0, 71, 92
2, 229025, Note_off_c, 0, 72, 64
2, 229082, Note_on_c, 0, 69, 92
2, 229085, Note_off_c, 0, 71, 64
2, 229322, Note_on_c, 0, 71, 92
2, 229325, Note_off_c, 0, 69, 64
2, 229442, Note_on_c, 0, 72, 92
2, 229445, Note_off_c, 0, 71, 64
2, 229562, Note_on_c, 0, 73, 92
2, 229565, Note_off_c, 0, 72, 64
2, 229682, Note_on_c, 0, 74, 92
2, 229685, Note_off_c, 0, 73, 64
2, 229802, Note_on_c, 0, 75, 92
2, 229805, Note_off_c, 0, 74, 64
2, 229982, Note_on_c, 0, 76, 92
2, 229985, Note_off_c, 0, 75, 64
2, 230042, Note_on_c, 0, 78, 92
2, 230045, Note_off_c, 0, 76, 64
2, 230102, Note_on_c, 0, 79, 92
2, 230105, Note_off_c, 0, 78, 64
2, 230162, Note_on_c, 0, 81, 92
2, 230165, Note_off_c, 0, 79, 64
2, 230222, Note_on_c, 0, 79, 92
2, 230225, Note_off_c, 0, 81, 64
2, 230282, Note_on_c, 0, 78, 92
2, 230285, Note_off_c, 0, 79, 64
2, 230342, Note_on_c, 0, 81, 92
2, 230345, Note_off_c, 0, 78, 64
2, 230402, Note_on_c, 0, 79, 92
2, 230405, Note_off_c, 0, 81, 64
2, 230702, Note_on_c, 0, 78, 92
2, 230705, Note_off_c, 0, 79, 64
2, 230762, Note_on_c, 0, 76, 92
2, 230765, Note_off_c, 0, 78, 64
2, 230822, Note_on_c, 0, 78, 92
2, 230825, Note_off_c, 0, 76, 64
2, 230882, Note_on_c, 0, 79, 92
2, 230885, Note_off_c, 0, 78, 64
2, 231002, Note_on_c, 0, 80, 92
2, 231005, Note_off_c, 0, 79, 64
2, 231122, Note_on_c, 0, 81, 92
2, 231125, Note_off_c, 0, 80, 64
2, 231422, Note_on_c, 0, 79, 92
2, 231425, Note_off_c, 0, 81, 64
2, 231482, Note_on_c, 0, 78, 92
2, 231485, Note_off_c, 0, 79, 64
2, 231542, Note_on_c, 0, 79, 92
2, 231545, Note_off_c, 0, 78, 64
2, 231602, Note_on_c, 0, 81, 92
2, 231605, Note_off_c, 0, 79, 64
2, 231722, Note_on_c, 0, 82, 92
2, 231725, Note_off_c, 0, 81, 64
2, 231842, Note_on_c, 0, 83, 92
2, 231845, Note_off_c, 0, 82, 64
2, 232142, Note_on_c, 0, 81, 92
2, 232145, Note_off_c, 0, 83, 64
2, 232202, Note_on_c, 0, 84, 92
2, 232205, Note_off_c, 0, 81, 64
2, 232262, Note_on_c, 0, 83, 92
2, 232265, Note_off_c, 0, 84, 64
2, 232322, Note_on_c, 0, 81, 92
2, 232325, Note_off_c, 0, 83, 64
2, 232382, Note_on_c, 0, 79, 92
2, 232385, Note_off_c, 0, 81, 64
2, 232442, Note_on_c, 0, 78, 92
2, 232445, Note_off_c, 0, 79, 64
2, 232502, Note_on_c, 0, 76, 92
2, 232505, Note_off_c, 0, 78, 64
2, 232562, Note_on_c, 0, 79, 92
2, 232565, Note_off_c, 0, 76, 64
2, 232682, Note_on_c, 0, 78, 92
2, 232685, Note_off_c, 0, 79, 64
2, 232805, Note_off_c, 0, 78, 64
2, 233042, Note_on_c, 0, 83, 92
2, 233282, Note_on_c, 0, 76, 92
2, 233285, Note_off_c, 0, 83, 64
2, 233525, Note_off_c, 0, 76, 64
2, 233762, Note_on_c, 0, 81, 92
2, 234122, Note_on_c, 0, 79, 92
2, 234125, Note_off_c, 0, 81, 64
2, 234242, Note_on_c, 0, 78, 92
2, 234245, Note_off_c, 0, 79, 64
2, 234302, Note_on_c, 0, 79, 92
2, 234305, Note_off_c, 0, 78, 64
2, 234362, Note_on_c, 0, 81, 92
2, 234365, Note_off_c, 0, 79, 64
2, 234602, Note_on_c, 0, 75, 92
2, 234605, Note_off_c, 0, 81, 64
2, 234722, Note_on_c, 0, 76, 92
2, 234725, Note_off_c, 0, 75, 64
2, 234782, Note_on_c, 0, 78, 92
2, 234785, Note_off_c, 0, 76, 64
2, 234842, Note_on_c, 0, 79, 92
2, 234845, Note_off_c, 0, 78, 64
2, 234902, Note_on_c, 0, 81, 92
2, 234905, Note_off_c, 0, 79, 64
2, 234962, Note_on_c, 0, 82, 92
2, 234965, Note_off_c, 0, 81, 64
2, 235205, Note_off_c, 0, 82, 64
2, 235322, Note_on_c, 0, 73, 92
2, 235442, Note_on_c, 0, 74, 92
2, 235445, Note_off_c, 0, 73, 64
2, 235502, Note_on_c, 0, 76, 92
2, 235505, Note_off_c, 0, 74, 64
2, 235562, Note_on_c, 0, 77, 92
2, 235565, Note_off_c, 0, 76, 64
2, 235622, Note_on_c, 0, 79, 92
2, 235625, Note_off_c, 0, 77, 64
2, 235682, Note_on_c, 0, 80, 92
2, 235685, Note_off_c, 0, 79, 64
2, 235925, Note_off_c, 0, 80, 64
2, 236042, Note_on_c, 0, 71, 92
2, 236162, Note_on_c, 0, 72, 92
2, 236165, Note_off_c, 0, 71, 64
2, 236282, Note_on_c, 0, 76, 92
2, 236285, Note_off_c, 0, 72, 64
2, 236342, Note_on_c, 0, 79, 92
2, 236345, Note_off_c, 0, 76, 64
2, 236402, Note_on_c, 0, 84, 92
2, 236405, Note_off_c, 0, 79, 64
2, 236645, Note_off_c, 0, 84, 64
2, 236702, Note_on_c, 0, 72, 92
2, 236762, Note_on_c, 0, 74, 92
2, 236765, Note_off_c, 0, 72, 64
2, 236822, Note_on_c, 0, 76, 92
2, 236825, Note_off_c, 0, 74, 64
2, 236882, Note_on_c, 0, 74, 92
2, 236885, Note_off_c, 0, 76, 64
2, 236942, Note_on_c, 0, 72, 92
2, 236945, Note_off_c, 0, 74, 64
2, 237002, Note_on_c, 0, 71, 92
2, 237005, Note_off_c, 0, 72, 64
2, 237062, Note_on_c, 0, 74, 92
2, 237065, Note_off_c, 0, 71, 64
2, 237122, Note_on_c, 0, 83, 92
2, 237125, Note_off_c, 0, 74, 64
2, 237662, Note_on_c, 0, 76, 92
2, 237665, Note_off_c, 0, 83, 64
2, 237722, Note_on_c, 0, 74, 92
2, 237725, Note_off_c, 0, 76, 64
2, 237782, Note_on_c, 0, 76, 92
2, 237785, Note_off_c, 0, 74, 64
2, 237842, Note_on_c, 0, 81, 92
2, 237845, Note_off_c, 0, 76, 64
2, 237962, Note_on_c, 0, 79, 92
2, 237965, Note_off_c, 0, 81, 64
2, 238142, Note_on_c, 0, 77, 92
2, 238145, Note_off_c, 0, 79, 64
2, 238202, Note_on_c, 0, 76, 92
2, 238205, Note_off_c, 0, 77, 64
2, 238262, Note_on_c, 0, 79, 92
2, 238265, Note_off_c, 0, 76, 64
2, 238322, Note_on_c, 0, 77, 92
2, 238325, Note_off_c, 0, 79, 64
2, 238565, Note_off_c, 0, 77, 64
2, 238802, Note_on_c, 0, 81, 92
2, 239102, Note_on_c, 0, 74, 92
2, 239105, Note_off_c, 0, 81, 64
2, 239162, Note_on_c, 0, 73, 92
2, 239165, Note_off_c, 0, 74, 64
2, 239222, Note_on_c, 0, 74, 92
2, 239225, Note_off_c, 0, 73, 64
2, 239282, Note_on_c, 0, 79, 92
2, 239285, Note_off_c, 0, 74, 64
2, 239402, Note_on_c, 0, 77, 92
2, 239405, Note_off_c, 0, 79, 64
2, 239582, Note_on_c, 0, 76, 92
2, 239585, Note_off_c, 0, 77, 64
2, 239642, Note_on_c, 0, 74, 92
2, 239645, Note_off_c, 0, 76, 64
2, 239702, Note_on_c, 0, 77, 92
2, 239705, Note_off_c, 0, 74, 64
2, 239762, Note_on_c, 0, 71, 92
2, 239765, Note_off_c, 0, 77, 64
2, 239822, Note_on_c, 0, 77, 92
2, 239825, Note_off_c, 0, 71, 64
2, 239882, Note_on_c, 0, 76, 92
2, 239885, Note_off_c, 0, 77, 64
2, 239942, Note_on_c, 0, 71, 92
2, 239945, Note_off_c, 0, 76, 64
2, 240002, Note_on_c, 0, 72, 92
2, 240005, Note_off_c, 0, 71, 64
2, 240062, Note_on_c, 0, 77, 92
2, 240065, Note_off_c, 0, 72, 64
2, 240122, Note_on_c, 0, 76, 92
2, 240125, Note_off_c, 0, 77, 64
2, 240182, Note_on_c, 0, 72, 92
2, 240185, Note_off_c, 0, 76, 64
2, 240242, Note_on_c, 0, 74, 92
2, 240245, Note_off_c, 0, 72, 64
2, 240302, Note_on_c, 0, 77, 92
2, 240305, Note_off_c, 0, 74, 64
2, 240362, Note_on_c, 0, 76, 92
2, 240365, Note_off_c, 0, 77, 64
2, 240422, Note_on_c, 0, 74, 92
2, 240425, Note_off_c, 0, 76, 64
2, 240482, Note_on_c, 0, 72, 92
2, 240485, Note_off_c, 0, 74, 64
2, 240542, Note_on_c, 0, 71, 92
2, 240545, Note_off_c, 0, 72, 64
2, 240602, Note_on_c, 0, 69, 92
2, 240605, Note_off_c, 0, 71, 64
2, 240662, Note_on_c, 0, 71, 92
2, 240665, Note_off_c, 0, 69, 64
2, 240722, Note_on_c, 0, 72, 92
2, 240725, Note_off_c, 0, 71, 64
2, 240842, Note_on_c, 0, 73, 92
2, 240845, Note_off_c, 0, 72, 64
2, 240962, Note_on_c, 0, 74, 92
2, 240965, Note_off_c, 0, 73, 64
2, 241082, Note_on_c, 0, 75, 92
2, 241085, Note_off_c, 0, 74, 64
2, 241202, Note_on_c, 0, 76, 92
2, 241205, Note_off_c, 0, 75, 64
2, 241262, Note_on_c, 0, 74, 92
2, 241265, Note_off_c, 0, 76, 64
2, 241322, Note_on_c, 0, 76, 92
2, 241325, Note_off_c, 0, 74, 64
2, 241382, Note_on_c, 0, 77, 92
2, 241385, Note_off_c, 0, 76, 64
2, 241442, Note_on_c, 0, 71, 92
2, 241445, Note_off_c, 0, 77, 64
2, 241472, Note_on_c, 0, 72, 92
2, 241475, Note_off_c, 0, 71, 64
2, 241502, Note_on_c, 0, 71, 92
2, 241505, Note_off_c, 0, 72, 64
2, 241802, Note_on_c, 0, 69, 92
2, 241805, Note_off_c, 0, 71, 64
2, 241922, Note_on_c, 0, 69, 92
2, 241925, Note_off_c, 0, 69, 64
2, 241982, Note_on_c, 0, 71, 92
2, 241985, Note_off_c, 0, 69, 64
2, 242042, Note_on_c, 0, 72, 92
2, 242045, Note_off_c, 0, 71, 64
2, 242102, Note_on_c, 0, 69, 92
2, 242105, Note_off_c, 0, 72, 64
2, 242162, Note_on_c, 0, 68, 92
2, 242165, Note_off_c, 0, 69, 64
2, 242222, Note_on_c, 0, 69, 92
2, 242225, Note_off_c, 0, 68, 64
2, 242282, Note_on_c, 0, 74, 92
2, 242285, Note_off_c, 0, 69, 64
2, 242342, Note_on_c, 0, 69, 92
2, 242345, Note_off_c, 0, 74, 64
2, 242402, Note_on_c, 0, 68, 92
2, 242405, Note_off_c, 0, 69, 64
2, 242462, Note_on_c, 0, 69, 92
2, 242465, Note_off_c, 0, 68, 64
2, 242522, Note_on_c, 0, 76, 92
2, 242525, Note_off_c, 0, 69, 64
2, 242582, Note_on_c, 0, 69, 92
2, 242585, Note_off_c, 0, 76, 64
2, 242642, Note_on_c, 0, 68, 92
2, 242645, Note_off_c, 0, 69, 64
2, 242702, Note_on_c, 0, 69, 92
2, 242705, Note_off_c, 0, 68, 64
2, 242762, Note_on_c, 0, 77, 92
2, 242765, Note_off_c, 0, 69, 64
2, 242822, Note_on_c, 0, 69, 92
2, 242825, Note_off_c, 0, 77, 64
2, 242882, Note_on_c, 0, 68, 92
2, 242885, Note_off_c, 0, 69, 64
2, 242942, Note_on_c, 0, 69, 92
2, 242945, Note_off_c, 0, 68, 64
2, 243002, Note_on_c, 0, 76, 92
2, 243005, Note_off_c, 0, 69, 64
2, 243062, Note_on_c, 0, 69, 92
2, 243065, Note_off_c, 0, 76, 64
2, 243122, Note_on_c, 0, 68, 92
2, 243125, Note_off_c, 0, 69, 64
2, 243182, Note_on_c, 0, 69, 92
2, 243185, Note_off_c, 0, 68, 64
2, 243242, Note_on_c, 0, 74, 92
2, 243245, Note_off_c, 0, 69, 64
2, 243302, Note_on_c, 0, 71, 92
2, 243305, Note_off_c, 0, 74, 64
2, 243362, Note_on_c, 0, 72, 92
2, 243365, Note_off_c, 0, 71, 64
2, 243482, Note_on_c, 0, 81, 92
2, 243485, Note_off_c, 0, 72, 64
2, 243602, Note_on_c, 0, 71, 92
2, 243605, Note_off_c, 0, 81, 64
2, 243722, Note_on_c, 0, 81, 92
2, 243725, Note_off_c, 0, 71, 64
2, 243842, Note_on_c, 0, 72, 92
2, 243845, Note_off_c, 0, 81, 64
2, 243962, Note_on_c, 0, 81, 92
2, 243965, Note_off_c, 0, 72, 64
2, 244082, Note_on_c, 0, 74, 92
2, 244085, Note_off_c, 0, 81, 64
2, 244202, Note_on_c, 0, 81, 92
2, 244205, Note_off_c, 0, 74, 64
2, 244322, Note_on_c, 0, 72, 92
2, 244325, Note_off_c, 0, 81, 64
2, 244442, Note_on_c, 0, 81, 92
2, 244445, Note_off_c, 0, 72, 64
2, 244562, Note_on_c, 0, 71, 92
2, 244565, Note_off_c, 0, 81, 64
2, 244682, Note_on_c, 0, 81, 92
2, 244685, Note_off_c, 0, 71, 64
2, 244802, Note_on_c, 0, 69, 92
2, 244805, Note_off_c, 0, 81, 64
2, 244922, Note_on_c, 0, 76, 92
2, 244925, Note_off_c, 0, 69, 64
2, 245102, Note_on_c, 0, 74, 92
2, 245105, Note_off_c, 0, 76, 64
2, 245162, Note_on_c, 0, 72, 92
2, 245165, Note_off_c, 0, 74, 64
2, 245222, Note_on_c, 0, 71, 92
2, 245225, Note_off_c, 0, 72, 64
2, 245282, Note_on_c, 0, 69, 92
2, 245285, Note_off_c, 0, 71, 64
2, 245342, Note_on_c, 0, 67, 92
2, 245345, Note_off_c, 0, 69, 64
2, 245402, Note_on_c, 0, 66, 92
2, 245405, Note_off_c, 0, 67, 64
2, 245462, Note_on_c, 0, 64, 92
2, 245465, Note_off_c, 0, 66, 64
2, 245522, Note_on_c, 0, 66, 92
2, 245525, Note_off_c, 0, 64, 64
2, 245762, Note_on_c, 0, 72, 92
2, 245765, Note_off_c, 0, 66, 64
2, 246005, Note_off_c, 0, 72, 64
2, 246362, Note_on_c, 0, 74, 92
2, 246542, Note_on_c, 0, 72, 92
2, 246545, Note_off_c, 0, 74, 64
2, 246602, Note_on_c, 0, 71, 92
2, 246605, Note_off_c, 0, 72, 64
2, 246662, Note_on_c, 0, 69, 92
2, 246665, Note_off_c, 0, 71, 64
2, 246722, Note_on_c, 0, 67, 92
2, 246725, Note_off_c, 0, 69, 64
2, 246782, Note_on_c, 0, 65, 92
2, 246785, Note_off_c, 0, 67, 64
2, 246842, Note_on_c, 0, 64, 92
2, 246845, Note_off_c, 0, 65, 64
2, 246902, Note_on_c, 0, 62, 92
2, 246905, Note_off_c, 0, 64, 64
2, 246962, Note_on_c, 0, 64, 92
2, 246965, Note_off_c, 0, 62, 64
2, 247202, Note_on_c, 0, 70, 92
2, 247205, Note_off_c, 0, 64, 64
2, 247445, Note_off_c, 0, 70, 64
2, 247742, Note_on_c, 0, 69, 92
2, 247802, Note_on_c, 0, 67, 92
2, 247805, Note_off_c, 0, 69, 64
2, 247862, Note_on_c, 0, 69, 92
2, 247865, Note_off_c, 0, 67, 64
2, 247922, Note_on_c, 0, 74, 92
2, 247925, Note_off_c, 0, 69, 64
2, 248042, Note_on_c, 0, 72, 92
2, 248045, Note_off_c, 0, 74, 64
2, 248222, Note_on_c, 0, 71, 92
2, 248225, Note_off_c, 0, 72, 64
2, 248282, Note_on_c, 0, 69, 92
2, 248285, Note_off_c, 0, 71, 64
2, 248342, Note_on_c, 0, 72, 92
2, 248345, Note_off_c, 0, 69, 64
2, 248402, Note_on_c, 0, 71, 92
2, 248405, Note_off_c, 0, 72, 64
2, 248645, Note_off_c, 0, 71, 64
2, 248702, Note_on_c, 0, 67, 92
2, 248762, Note_on_c, 0, 66, 92
2, 248765, Note_off_c, 0, 67, 64
2, 248822, Note_on_c, 0, 67, 92
2, 248825, Note_off_c, 0, 66, 64
2, 248882, Note_on_c, 0, 71, 92
2, 248885, Note_off_c, 0, 67, 64
2, 249002, Note_on_c, 0, 76, 92
2, 249005, Note_off_c, 0, 71, 64
2, 249182, Note_on_c, 0, 72, 92
2, 249185, Note_off_c, 0, 76, 64
2, 249242, Note_on_c, 0, 71, 92
2, 249245, Note_off_c, 0, 72, 64
2, 249302, Note_on_c, 0, 72, 92
2, 249305, Note_off_c, 0, 71, 64
2, 249362, Note_on_c, 0, 77, 92
2, 249365, Note_off_c, 0, 72, 64
2, 249482, Note_on_c, 0, 76, 92
2, 249485, Note_off_c, 0, 77, 64
2, 249662, Note_on_c, 0, 74, 92
2, 249665, Note_off_c, 0, 76, 64
2, 249722, Note_on_c, 0, 72, 92
2, 249725, Note_off_c, 0, 74, 64
2, 249782, Note_on_c, 0, 76, 92
2, 249785, Note_off_c, 0, 72, 64
2, 249842, Note_on_c, 0, 74, 92
2, 249845, Note_off_c, 0, 76, 64
2, 250085, Note_off_c, 0, 74, 64
2, 250142, Note_on_c, 0, 71, 92
2, 250202, Note_on_c, 0, 69, 92
2, 250205, Note_off_c, 0, 71, 64
2, 250262, Note_on_c, 0, 71, 92
2, 250265, Note_off_c, 0, 69, 64
2, 250322, Note_on_c, 0, 74, 92
2, 250325, Note_off_c, 0, 71, 64
2, 250442, Note_on_c, 0, 79, 92
2, 250445, Note_off_c, 0, 74, 64
2, 250682, Note_on_c, 0, 84, 92
2, 250685, Note_off_c, 0, 79, 64
2, 250802, Note_on_c, 0, 74, 92
2, 250805, Note_off_c, 0, 84, 64
2, 250922, Note_on_c, 0, 84, 92
2, 250925, Note_off_c, 0, 74, 64
2, 251042, Note_on_c, 0, 76, 92
2, 251045, Note_off_c, 0, 84, 64
2, 251162, Note_on_c, 0, 84, 92
2, 251165, Note_off_c, 0, 76, 64
2, 251282, Note_on_c, 0, 77, 92
2, 251285, Note_off_c, 0, 84, 64
2, 251402, Note_on_c, 0, 84, 92
2, 251405, Note_off_c, 0, 77, 64
2, 251522, Note_on_c, 0, 76, 92
2, 251525, Note_off_c, 0, 84, 64
2, 251642, Note_on_c, 0, 84, 92
2, 251645, Note_off_c, 0, 76, 64
2, 251762, Note_on_c, 0, 74, 92
2, 251765, Note_off_c, 0, 84, 64
2, 251882, Note_on_c, 0, 84, 92
2, 251885, Note_off_c, 0, 74, 64
2, 252002, Note_on_c, 0, 72, 92
2, 252005, Note_off_c, 0, 84, 64
2, 252062, Note_on_c, 0, 74, 92
2, 252065, Note_off_c, 0, 72, 64
2, 252122, Note_on_c, 0, 76, 92
2, 252125, Note_off_c, 0, 74, 64
2, 252182, Note_on_c, 0, 72, 92
2, 252185, Note_off_c, 0, 76, 64
2, 252242, Note_on_c, 0, 71, 92
2, 252245, Note_off_c, 0, 72, 64
2, 252302, Note_on_c, 0, 72, 92
2, 252305, Note_off_c, 0, 71, 64
2, 252362, Note_on_c, 0, 77, 92
2, 252365, Note_off_c, 0, 72, 64
2, 252422, Note_on_c, 0, 72, 92
2, 252425, Note_off_c, 0, 77, 64
2, 252482, Note_on_c, 0, 71, 92
2, 252485, Note_off_c, 0, 72, 64
2, 252542, Note_on_c, 0, 72, 92
2, 252545, Note_off_c, 0, 71, 64
2, 252602, Note_on_c, 0, 79, 92
2, 252605, Note_off_c, 0, 72, 64
2, 252662, Note_on_c, 0, 72, 92
2, 252665, Note_off_c, 0, 79, 64
2, 252722, Note_on_c, 0, 71, 92
2, 252725, Note_off_c, 0, 72, 64
2, 252782, Note_on_c, 0, 72, 92
2, 252785, Note_off_c, 0, 71, 64
2, 252842, Note_on_c, 0, 81, 92
2, 252845, Note_off_c, 0, 72, 64
2, 252902, Note_on_c, 0, 72, 92
2, 252905, Note_off_c, 0, 81, 64
2, 252962, Note_on_c, 0, 71, 92
2, 252965, Note_off_c, 0, 72, 64
2, 253022, Note_on_c, 0, 72, 92
2, 253025, Note_off_c, 0, 71, 64
2, 253082, Note_on_c, 0, 79, 92
2, 253085, Note_off_c, 0, 72, 64
2, 253142, Note_on_c, 0, 72, 92
2, 253145, Note_off_c, 0, 79, 64
2, 253202, Note_on_c, 0, 71, 92
2, 253205, Note_off_c, 0, 72, 64
2, 253262, Note_on_c, 0, 72, 92
2, 253265, Note_off_c, 0, 71, 64
2, 253322, Note_on_c, 0, 77, 92
2, 253325, Note_off_c, 0, 72, 64
2, 253382, Note_on_c, 0, 74, 92
2, 253385, Note_off_c, 0, 77, 64
2, 253442, Note_on_c, 0, 76, 92
2, 253445, Note_off_c, 0, 74, 64
2, 253742, Note_on_c, 0, 74, 92
2, 253745, Note_off_c, 0, 76, 64
2, 253802, Note_on_c, 0, 72, 92
2, 253805, Note_off_c, 0, 74, 64
2, 253862, Note_on_c, 0, 74, 92
2, 253865, Note_off_c, 0, 72, 64
2, 253922, Note_on_c, 0, 76, 92
2, 253925, Note_off_c, 0, 74, 64
2, 253982, Note_on_c, 0, 77, 92
2, 253985, Note_off_c, 0, 76, 64
2, 254042, Note_on_c, 0, 79, 92
2, 254045, Note_off_c, 0, 77, 64
2, 254102, Note_on_c, 0, 81, 92
2, 254105, Note_off_c, 0, 79, 64
2, 254162, Note_on_c, 0, 77, 92
2, 254165, Note_off_c, 0, 81, 64
2, 254462, Note_on_c, 0, 76, 92
2, 254465, Note_off_c, 0, 77, 64
2, 254522, Note_on_c, 0, 74, 92
2, 254525, Note_off_c, 0, 76, 64
2, 254582, Note_on_c, 0, 76, 92
2, 254585, Note_off_c, 0, 74, 64
2, 254642, Note_on_c, 0, 77, 92
2, 254645, Note_off_c, 0, 76, 64
2, 254702, Note_on_c, 0, 79, 92
2, 254705, Note_off_c, 0, 77, 64
2, 254762, Note_on_c, 0, 81, 92
2, 254765, Note_off_c, 0, 79, 64
2, 254822, Note_on_c, 0, 83, 92
2, 254825, Note_off_c, 0, 81, 64
2, 254882, Note_on_c, 0, 79, 92
2, 254885, Note_off_c, 0, 83, 64
2, 255182, Note_on_c, 0, 77, 92
2, 255185, Note_off_c, 0, 79, 64
2, 255242, Note_on_c, 0, 81, 92
2, 255245, Note_off_c, 0, 77, 64
2, 255302, Note_on_c, 0, 79, 92
2, 255305, Note_off_c, 0, 81, 64
2, 255362, Note_on_c, 0, 77, 92
2, 255365, Note_off_c, 0, 79, 64
2, 255422, Note_on_c, 0, 76, 92
2, 255425, Note_off_c, 0, 77, 64
2, 255482, Note_on_c, 0, 74, 92
2, 255485, Note_off_c, 0, 76, 64
2, 255542, Note_on_c, 0, 72, 92
2, 255545, Note_off_c, 0, 74, 64
2, 255602, Note_on_c, 0, 76, 92
2, 255605, Note_off_c, 0, 72, 64
2, 255722, Note_on_c, 0, 74, 92
2, 255725, Note_off_c, 0, 76, 64
2, 255845, Note_off_c, 0, 74, 64
2, 256082, Note_on_c, 0, 79, 92
2, 256322, Note_on_c, 0, 72, 92
2, 256325, Note_off_c, 0, 79, 64
2, 256565, Note_off_c, 0, 72, 64
2, 256802, Note_on_c, 0, 77, 92
2, 257162, Note_on_c, 0, 76, 92
2, 257165, Note_off_c, 0, 77, 64
2, 257282, Note_on_c, 0, 74, 92
2, 257285, Note_off_c, 0, 76, 64
2, 257342, Note_on_c, 0, 76, 92
2, 257345, Note_off_c, 0, 74, 64
2, 257402, Note_on_c, 0, 77, 92
2, 257405, Note_off_c, 0, 76, 64
2, 257642, Note_on_c, 0, 71, 92
2, 257645, Note_off_c, 0, 77, 64
2, 257762, Note_on_c, 0, 72, 92
2, 257765, Note_off_c, 0, 71, 64
2, 258005, Note_off_c, 0, 72, 64
2, 259202, Note_on_c, 0, 67, 92
2, 259322, Note_on_c, 0, 71, 92
2, 259325, Note_off_c, 0, 67, 64
2, 259382, Note_on_c, 0, 74, 92
2, 259385, Note_off_c, 0, 71, 64
2, 259442, Note_on_c, 0, 76, 92
2, 259445, Note_off_c, 0, 74, 64
2, 259685, Note_off_c, 0, 76, 64
2, 259922, Note_on_c, 0, 67, 92
2, 260162, Note_on_c, 0, 66, 92
2, 260165, Note_off_c, 0, 67, 64
2, 260405, Note_off_c, 0, 66, 64
2, 260642, Note_on_c, 0, 67, 92
2, 260762, Note_on_c, 0, 71, 92
2, 260765, Note_off_c, 0, 67, 64
2, 260822, Note_on_c, 0, 74, 92
2, 260825, Note_off_c, 0, 71, 64
2, 260882, Note_on_c, 0, 79, 92
2, 260885, Note_off_c, 0, 74, 64
2, 261002, Note_on_c, 0, 79, 92
2, 261005, Note_off_c, 0, 79, 64
2, 261122, Note_on_c, 0, 79, 92
2, 261125, Note_off_c, 0, 79, 64
2, 261242, Note_on_c, 0, 79, 92
2, 261245, Note_off_c, 0, 79, 64
2, 261482, Note_on_c, 0, 78, 92
2, 261485, Note_off_c, 0, 79, 64
2, 261542, Note_on_c, 0, 76, 92
2, 261545, Note_off_c, 0, 78, 64
2, 261602, Note_on_c, 0, 78, 92
2, 261605, Note_off_c, 0, 76, 64
2, 261722, Note_on_c, 0, 69, 92
2, 261725, Note_off_c, 0, 78, 64
2, 261842, Note_on_c, 0, 67, 92
2, 261845, Note_off_c, 0, 69, 64
2, 261962, Note_on_c, 0, 77, 92
2, 261965, Note_off_c, 0, 67, 64
2, 262202, Note_on_c, 0, 76, 92
2, 262205, Note_off_c, 0, 77, 64
2, 262262, Note_on_c, 0, 74, 92
2, 262265, Note_off_c, 0, 76, 64
2, 262322, Note_on_c, 0, 76, 92
2, 262325, Note_off_c, 0, 74, 64
2, 262442, Note_on_c, 0, 67, 92
2, 262445, Note_off_c, 0, 76, 64
2, 262562, Note_on_c, 0, 66, 92
2, 262565, Note_off_c, 0, 67, 64
2, 262682, Note_on_c, 0, 76, 92
2, 262685, Note_off_c, 0, 66, 64
2, 262802, Note_on_c, 0, 74, 92
2, 262805, Note_off_c, 0, 76, 64
2, 262862, Note_on_c, 0, 72, 92
2, 262865, Note_off_c, 0, 74, 64
2, 262922, Note_on_c, 0, 76, 92
2, 262925, Note_off_c, 0, 72, 64
2, 262982, Note_on_c, 0, 74, 92
2, 262985, Note_off_c, 0, 76, 64
2, 263042, Note_on_c, 0, 72, 92
2, 263045, Note_off_c, 0, 74, 64
2, 263102, Note_on_c, 0, 71, 92
2, 263105, Note_off_c, 0, 72, 64
2, 263162, Note_on_c, 0, 69, 92
2, 263165, Note_off_c, 0, 71, 64
2, 263222, Note_on_c, 0, 67, 92
2, 263225, Note_off_c, 0, 69, 64
2, 263282, Note_on_c, 0, 66, 92
2, 263285, Note_off_c, 0, 67, 64
2, 263342, Note_on_c, 0, 72, 92
2, 263345, Note_off_c, 0, 66, 64
2, 263402, Note_on_c, 0, 71, 92
2, 263405, Note_off_c, 0, 72, 64
2, 263462, Note_on_c, 0, 69, 92
2, 263465, Note_off_c, 0, 71, 64
2, 263522, Note_on_c, 0, 71, 92
2, 263525, Note_off_c, 0, 69, 64
2, 263582, Note_on_c, 0, 69, 92
2, 263585, Note_off_c, 0, 71, 64
2, 263642, Note_on_c, 0, 67, 92
2, 263645, Note_off_c, 0, 69, 64
2, 263882, Note_on_c, 0, 69, 92
2, 263885, Note_off_c, 0, 67, 64
2, 264002, Note_on_c, 0, 70, 92
2, 264005, Note_off_c, 0, 69, 64
2, 264122, Note_on_c, 0, 71, 92
2, 264125, Note_off_c, 0, 70, 64
2, 264242, Note_on_c, 0, 72, 92
2, 264245, Note_off_c, 0, 71, 64
2, 264362, Note_on_c, 0, 73, 92
2, 264365, Note_off_c, 0, 72, 64
2, 264542, Note_on_c, 0, 74, 92
2, 264545, Note_off_c, 0, 73, 64
2, 264602, Note_on_c, 0, 76, 92
2, 264605, Note_off_c, 0, 74, 64
2, 264662, Note_on_c, 0, 77, 92
2, 264665, Note_off_c, 0, 76, 64
2, 264722, Note_on_c, 0, 79, 92
2, 264725, Note_off_c, 0, 77, 64
2, 264782, Note_on_c, 0, 77, 92
2, 264785, Note_off_c, 0, 79, 64
2, 264842, Note_on_c, 0, 76, 92
2, 264845, Note_off_c, 0, 77, 64
2, 264902, Note_on_c, 0, 79, 92
2, 264905, Note_off_c, 0, 76, 64
2, 264962, Note_on_c, 0, 77, 92
2, 264965, Note_off_c, 0, 79, 64
2, 265022, Note_on_c, 0, 62, 92
2, 265025, Note_off_c, 0, 77, 64
2, 265082, Note_on_c, 0, 64, 92
2, 265085, Note_off_c, 0, 62, 64
2, 265142, Note_on_c, 0, 65, 92
2, 265145, Note_off_c, 0, 64, 64
2, 265202, Note_on_c, 0, 67, 92
2, 265205, Note_off_c, 0, 65, 64
2, 265262, Note_on_c, 0, 69, 92
2, 265265, Note_off_c, 0, 67, 64
2, 265322, Note_on_c, 0, 71, 92
2, 265325, Note_off_c, 0, 69, 64
2, 265382, Note_on_c, 0, 73, 92
2, 265385, Note_off_c, 0, 71, 64
2, 265442, Note_on_c, 0, 74, 92
2, 265445, Note_off_c, 0, 73, 64
2, 265742, Note_on_c, 0, 72, 92
2, 265745, Note_off_c, 0, 74, 64
2, 265802, Note_on_c, 0, 70, 92
2, 265805, Note_off_c, 0, 72, 64
2, 265862, Note_on_c, 0, 69, 92
2, 265865, Note_off_c, 0, 70, 64
2, 265922, Note_on_c, 0, 70, 92
2, 265925, Note_off_c, 0, 69, 64
2, 265982, Note_on_c, 0, 74, 92
2, 265985, Note_off_c, 0, 70, 64
2, 266042, Note_on_c, 0, 67, 92
2, 266045, Note_off_c, 0, 74, 64
2, 266102, Note_on_c, 0, 70, 92
2, 266105, Note_off_c, 0, 67, 64
2, 266162, Note_on_c, 0, 62, 92
2, 266165, Note_off_c, 0, 70, 64
2, 266222, Note_on_c, 0, 65, 92
2, 266225, Note_off_c, 0, 62, 64
2, 266282, Note_on_c, 0, 64, 92
2, 266285, Note_off_c, 0, 65, 64
2, 266342, Note_on_c, 0, 62, 92
2, 266345, Note_off_c, 0, 64, 64
2, 266402, Note_on_c, 0, 64, 92
2, 266405, Note_off_c, 0, 62, 64
2, 266462, Note_on_c, 0, 60, 92
2, 266465, Note_off_c, 0, 64, 64
2, 266522, Note_on_c, 0, 62, 92
2, 266525, Note_off_c, 0, 60, 64
2, 266582, Note_on_c, 0, 64, 92
2, 266585, Note_off_c, 0, 62, 64
2, 266642, Note_on_c, 0, 65, 92
2, 266645, Note_off_c, 0, 64, 64
2, 266702, Note_on_c, 0, 67, 92
2, 266705, Note_off_c, 0, 65, 64
2, 266762, Note_on_c, 0, 69, 92
2, 266765, Note_off_c, 0, 67, 64
2, 266822, Note_on_c, 0, 71, 92
2, 266825, Note_off_c, 0, 69, 64
2, 266882, Note_on_c, 0, 72, 92
2, 266885, Note_off_c, 0, 71, 64
2, 267182, Note_on_c, 0, 70, 92
2, 267185, Note_off_c, 0, 72, 64
2, 267242, Note_on_c, 0, 69, 92
2, 267245, Note_off_c, 0, 70, 64
2, 267302, Note_on_c, 0, 67, 92
2, 267305, Note_off_c, 0, 69, 64
2, 267362, Note_on_c, 0, 69, 92
2, 267365, Note_off_c, 0, 67, 64
2, 267422, Note_on_c, 0, 72, 92
2, 267425, Note_off_c, 0, 69, 64
2, 267482, Note_on_c, 0, 65, 92
2, 267485, Note_off_c, 0, 72, 64
2, 267542, Note_on_c, 0, 69, 92
2, 267545, Note_off_c, 0, 65, 64
2, 267602, Note_on_c, 0, 60, 92
2, 267605, Note_off_c, 0, 69, 64
2, 267662, Note_on_c, 0, 63, 92
2, 267665, Note_off_c, 0, 60, 64
2, 267722, Note_on_c, 0, 62, 92
2, 267725, Note_off_c, 0, 63, 64
2, 267782, Note_on_c, 0, 60, 92
2, 267785, Note_off_c, 0, 62, 64
2, 267842, Note_on_c, 0, 62, 92
2, 267845, Note_off_c, 0, 60, 64
2, 268085, Note_off_c, 0, 62, 64
2, 268142, Note_on_c, 0, 70, 92
2, 268202, Note_on_c, 0, 69, 92
2, 268205, Note_off_c, 0, 70, 64
2, 268262, Note_on_c, 0, 70, 92
2, 268265, Note_off_c, 0, 69, 64
2, 268322, Note_on_c, 0, 74, 92
2, 268325, Note_off_c, 0, 70, 64
2, 268442, Note_on_c, 0, 79, 92
2, 268445, Note_off_c, 0, 74, 64
2, 268622, Note_on_c, 0, 76, 92
2, 268625, Note_off_c, 0, 79, 64
2, 268682, Note_on_c, 0, 74, 92
2, 268685, Note_off_c, 0, 76, 64
2, 268742, Note_on_c, 0, 76, 92
2, 268745, Note_off_c, 0, 74, 64
2, 268802, Note_on_c, 0, 81, 92
2, 268805, Note_off_c, 0, 76, 64
2, 268922, Note_on_c, 0, 79, 92
2, 268925, Note_off_c, 0, 81, 64
2, 269102, Note_on_c, 0, 77, 92
2, 269105, Note_off_c, 0, 79, 64
2, 269162, Note_on_c, 0, 76, 92
2, 269165, Note_off_c, 0, 77, 64
2, 269222, Note_on_c, 0, 79, 92
2, 269225, Note_off_c, 0, 76, 64
2, 269282, Note_on_c, 0, 77, 92
2, 269285, Note_off_c, 0, 79, 64
2, 270062, Note_on_c, 0, 74, 92
2, 270065, Note_off_c, 0, 77, 64
2, 270122, Note_on_c, 0, 73, 92
2, 270125, Note_off_c, 0, 74, 64
2, 270182, Note_on_c, 0, 74, 92
2, 270185, Note_off_c, 0, 73, 64
2, 270242, Note_on_c, 0, 79, 92
2, 270245, Note_off_c, 0, 74, 64
2, 270362, Note_on_c, 0, 77, 92
2, 270365, Note_off_c, 0, 79, 64
2, 270542, Note_on_c, 0, 76, 92
2, 270545, Note_off_c, 0, 77, 64
2, 270602, Note_on_c, 0, 74, 92
2, 270605, Note_off_c, 0, 76, 64
2, 270662, Note_on_c, 0, 76, 92
2, 270665, Note_off_c, 0, 74, 64
2, 270722, Note_on_c, 0, 73, 92
2, 270725, Note_off_c, 0, 76, 64
2, 270842, Note_on_c, 0, 81, 92
2, 270845, Note_off_c, 0, 73, 64
2, 270962, Note_on_c, 0, 74, 92
2, 270965, Note_off_c, 0, 81, 64
2, 271082, Note_on_c, 0, 81, 92
2, 271085, Note_off_c, 0, 74, 64
2, 271202, Note_on_c, 0, 76, 92
2, 271205, Note_off_c, 0, 81, 64
2, 271322, Note_on_c, 0, 81, 92
2, 271325, Note_off_c, 0, 76, 64
2, 271442, Note_on_c, 0, 77, 92
2, 271445, Note_off_c, 0, 81, 64
2, 271562, Note_on_c, 0, 81, 92
2, 271565, Note_off_c, 0, 77, 64
2, 271682, Note_on_c, 0, 79, 92
2, 271685, Note_off_c, 0, 81, 64
2, 271802, Note_on_c, 0, 81, 92
2, 271805, Note_off_c, 0, 79, 64
2, 271922, Note_on_c, 0, 77, 92
2, 271925, Note_off_c, 0, 81, 64
2, 272042, Note_on_c, 0, 81, 92
2, 272045, Note_off_c, 0, 77, 64
2, 272162, Note_on_c, 0, 76, 92
2, 272165, Note_off_c, 0, 81, 64
2, 272222, Note_on_c, 0, 81, 92
2, 272225, Note_off_c, 0, 76, 64
2, 272282, Note_on_c, 0, 79, 92
2, 272285, Note_off_c, 0, 81, 64
2, 272342, Note_on_c, 0, 76, 92
2, 272345, Note_off_c, 0, 79, 64
2, 272402, Note_on_c, 0, 77, 92
2, 272405, Note_off_c, 0, 76, 64
2, 272462, Note_on_c, 0, 81, 92
2, 272465, Note_off_c, 0, 77, 64
2, 272522, Note_on_c, 0, 77, 92
2, 272525, Note_off_c, 0, 81, 64
2, 272582, Note_on_c, 0, 74, 92
2, 272585, Note_off_c, 0, 77, 64
2, 272642, Note_on_c, 0, 73, 92
2, 272645, Note_off_c, 0, 74, 64
2, 272702, Note_on_c, 0, 76, 92
2, 272705, Note_off_c, 0, 73, 64
2, 272762, Note_on_c, 0, 73, 92
2, 272765, Note_off_c, 0, 76, 64
2, 272822, Note_on_c, 0, 69, 92
2, 272825, Note_off_c, 0, 73, 64
2, 272882, Note_on_c, 0, 74, 92
2, 272885, Note_off_c, 0, 69, 64
2, 272942, Note_on_c, 0, 76, 92
2, 272945, Note_off_c, 0, 74, 64
2, 273002, Note_on_c, 0, 74, 92
2, 273005, Note_off_c, 0, 76, 64
2, 273062, Note_on_c, 0, 69, 92
2, 273065, Note_off_c, 0, 74, 64
2, 273122, Note_on_c, 0, 76, 92
2, 273125, Note_off_c, 0, 69, 64
2, 273182, Note_on_c, 0, 77, 92
2, 273185, Note_off_c, 0, 76, 64
2, 273242, Note_on_c, 0, 76, 92
2, 273245, Note_off_c, 0, 77, 64
2, 273302, Note_on_c, 0, 69, 92
2, 273305, Note_off_c, 0, 76, 64
2, 273362, Note_on_c, 0, 74, 92
2, 273365, Note_off_c, 0, 69, 64
2, 273422, Note_on_c, 0, 76, 92
2, 273425, Note_off_c, 0, 74, 64
2, 273482, Note_on_c, 0, 74, 92
2, 273485, Note_off_c, 0, 76, 64
2, 273542, Note_on_c, 0, 69, 92
2, 273545, Note_off_c, 0, 74, 64
2, 273602, Note_on_c, 0, 73, 92
2, 273605, Note_off_c, 0, 69, 64
2, 273662, Note_on_c, 0, 71, 92
2, 273665, Note_off_c, 0, 73, 64
2, 273722, Note_on_c, 0, 69, 92
2, 273725, Note_off_c, 0, 71, 64
2, 274142, Note_on_c, 0, 67, 92
2, 274145, Note_off_c, 0, 69, 64
2, 274202, Note_on_c, 0, 69, 92
2, 274205, Note_off_c, 0, 67, 64
2, 274262, Note_on_c, 0, 71, 92
2, 274265, Note_off_c, 0, 69, 64
2, 274322, Note_on_c, 0, 72, 92
2, 274325, Note_off_c, 0, 71, 64
2, 274442, Note_on_c, 0, 73, 92
2, 274445, Note_off_c, 0, 72, 64
2, 274622, Note_on_c, 0, 74, 92
2, 274625, Note_off_c, 0, 73, 64
2, 274682, Note_on_c, 0, 76, 92
2, 274685, Note_off_c, 0, 74, 64
2, 274742, Note_on_c, 0, 77, 92
2, 274745, Note_off_c, 0, 76, 64
2, 274802, Note_on_c, 0, 79, 92
2, 274805, Note_off_c, 0, 77, 64
2, 274862, Note_on_c, 0, 77, 92
2, 274865, Note_off_c, 0, 79, 64
2, 274922, Note_on_c, 0, 76, 92
2, 274925, Note_off_c, 0, 77, 64
2, 274982, Note_on_c, 0, 79, 92
2, 274985, Note_off_c, 0, 76, 64
2, 275042, Note_on_c, 0, 77, 92
2, 275045, Note_off_c, 0, 79, 64
2, 275285, Note_off_c, 0, 77, 64
2, 275522, Note_on_c, 0, 81, 92
2, 275822, Note_on_c, 0, 74, 92
2, 275825, Note_off_c, 0, 81, 64
2, 275882, Note_on_c, 0, 73, 92
2, 275885, Note_off_c, 0, 74, 64
2, 275942, Note_on_c, 0, 74, 92
2, 275945, Note_off_c, 0, 73, 64
2, 276002, Note_on_c, 0, 79, 92
2, 276005, Note_off_c, 0, 74, 64
2, 276122, Note_on_c, 0, 77, 92
2, 276125, Note_off_c, 0, 79, 64
2, 276302, Note_on_c, 0, 75, 92
2, 276305, Note_off_c, 0, 77, 64
2, 276362, Note_on_c, 0, 74, 92
2, 276365, Note_off_c, 0, 75, 64
2, 276422, Note_on_c, 0, 77, 92
2, 276425, Note_off_c, 0, 74, 64
2, 276482, Note_on_c, 0, 75, 92
2, 276485, Note_off_c, 0, 77, 64
2, 276725, Note_off_c, 0, 75, 64
2, 276962, Note_on_c, 0, 74, 92
2, 277202, Note_on_c, 0, 73, 92
2, 277205, Note_off_c, 0, 74, 64
2, 277442, Note_on_c, 0, 74, 92
2, 277445, Note_off_c, 0, 73, 64
2, 277472, Note_on_c, 0, 76, 92
2, 277475, Note_off_c, 0, 74, 64
2, 277502, Note_on_c, 0, 74, 92
2, 277505, Note_off_c, 0, 76, 64
2, 277682, Note_on_c, 0, 76, 92
2, 277685, Note_off_c, 0, 74, 64
2, 277922, Note_on_c, 0, 69, 92
2, 277925, Note_off_c, 0, 76, 64
2, 278222, Note_on_c, 0, 67, 92
2, 278225, Note_off_c, 0, 69, 64
2, 278282, Note_on_c, 0, 69, 92
2, 278285, Note_off_c, 0, 67, 64
2, 278342, Note_on_c, 0, 74, 92
2, 278345, Note_off_c, 0, 69, 64
2, 278402, Note_on_c, 0, 62, 92
2, 278405, Note_off_c, 0, 74, 64
2, 278942, Note_on_c, 0, 61, 92
2, 278945, Note_off_c, 0, 62, 64
2, 279002, Note_on_c, 0, 59, 92
2, 279005, Note_off_c, 0, 61, 64
2, 279062, Note_on_c, 0, 61, 92
2, 279065, Note_off_c, 0, 59, 64
2, 279122, Note_on_c, 0, 61, 92
2, 279125, Note_off_c, 0, 61, 64
2, 279152, Note_on_c, 0, 62, 92
2, 279155, Note_off_c, 0, 61, 64
2, 279182, Note_on_c, 0, 61, 92
2, 279185, Note_off_c, 0, 62, 64
2, 279302, Note_on_c, 0, 62, 92
2, 279305, Note_off_c, 0, 61, 64
2, 279362, Note_on_c, 0, 62, 92
2, 279365, Note_off_c, 0, 62, 64
2, 279482, Note_on_c, 0, 77, 92
2, 279485, Note_off_c, 0, 62, 64
2, 279662, Note_on_c, 0, 76, 92
2, 279665, Note_off_c, 0, 77, 64
2, 279722, Note_on_c, 0, 74, 92
2, 279725, Note_off_c, 0, 76, 64
2, 279782, Note_on_c, 0, 72, 92
2, 279785, Note_off_c, 0, 74, 64
2, 279842, Note_on_c, 0, 71, 92
2, 279845, Note_off_c, 0, 72, 64
2, 279902, Note_on_c, 0, 69, 92
2, 279905, Note_off_c, 0, 71, 64
2, 279962, Note_on_c, 0, 71, 92
2, 279965, Note_off_c, 0, 69, 64
2, 280022, Note_on_c, 0, 74, 92
2, 280025, Note_off_c, 0, 71, 64
2, 280082, Note_on_c, 0, 68, 92
2, 280085, Note_off_c, 0, 74, 64
2, 280322, Note_on_c, 0, 69, 92
2, 280325, Note_off_c, 0, 68, 64
2, 280442, Note_on_c, 0, 71, 92
2, 280445, Note_off_c, 0, 69, 64
2, 280562, Note_on_c, 0, 72, 92
2, 280565, Note_off_c, 0, 71, 64
2, 280682, Note_on_c, 0, 69, 92
2, 280685, Note_off_c, 0, 72, 64
2, 280802, Note_on_c, 0, 74, 92
2, 280805, Note_off_c, 0, 69, 64
2, 281582, Note_on_c, 0, 81, 92
2, 281585, Note_off_c, 0, 74, 64
2, 281642, Note_on_c, 0, 83, 92
2, 281645, Note_off_c, 0, 81, 64
2, 281702, Note_on_c, 0, 84, 92
2, 281705, Note_off_c, 0, 83, 64
2, 281762, Note_on_c, 0, 83, 92
2, 281765, Note_off_c, 0, 84, 64
2, 281822, Note_on_c, 0, 81, 92
2, 281825, Note_off_c, 0, 83, 64
2, 281882, Note_on_c, 0, 80, 92
2, 281885, Note_off_c, 0, 81, 64
2, 281942, Note_on_c, 0, 78, 92
2, 281945, Note_off_c, 0, 80, 64
2, 282002, Note_on_c, 0, 76, 92
2, 282005, Note_off_c, 0, 78, 64
2, 282062, Note_on_c, 0, 74, 92
2, 282065, Note_off_c, 0, 76, 64
2, 282122, Note_on_c, 0, 72, 92
2, 282125, Note_off_c, 0, 74, 64
2, 282182, Note_on_c, 0, 71, 92
2, 282185, Note_off_c, 0, 72, 64
2, 282242, Note_on_c, 0, 72, 92
2, 282245, Note_off_c, 0, 71, 64
2, 282302, Note_on_c, 0, 69, 92
2, 282305, Note_off_c, 0, 72, 64
2, 282362, Note_on_c, 0, 72, 92
2, 282365, Note_off_c, 0, 69, 64
2, 282422, Note_on_c, 0, 76, 92
2, 282425, Note_off_c, 0, 72, 64
2, 282482, Note_on_c, 0, 77, 92
2, 282485, Note_off_c, 0, 76, 64
2, 282725, Note_off_c, 0, 77, 64
2, 282962, Note_on_c, 0, 69, 92
2, 283202, Note_on_c, 0, 68, 92
2, 283205, Note_off_c, 0, 69, 64
2, 283445, Note_off_c, 0, 68, 64
2, 283682, Note_on_c, 0, 69, 92
2, 283802, Note_on_c, 0, 72, 92
2, 283805, Note_off_c, 0, 69, 64
2, 283862, Note_on_c, 0, 76, 92
2, 283865, Note_off_c, 0, 72, 64
2, 283922, Note_on_c, 0, 81, 92
2, 283925, Note_off_c, 0, 76, 64
2, 284042, Note_on_c, 0, 81, 92
2, 284045, Note_off_c, 0, 81, 64
2, 284162, Note_on_c, 0, 81, 92
2, 284165, Note_off_c, 0, 81, 64
2, 284282, Note_on_c, 0, 81, 92
2, 284285, Note_off_c, 0, 81, 64
2, 284522, Note_on_c, 0, 79, 92
2, 284525, Note_off_c, 0, 81, 64
2, 284582, Note_on_c, 0, 77, 92
2, 284585, Note_off_c, 0, 79, 64
2, 284642, Note_on_c, 0, 79, 92
2, 284645, Note_off_c, 0, 77, 64
2, 284762, Note_on_c, 0, 70, 92
2, 284765, Note_off_c, 0, 79, 64
2, 284882, Note_on_c, 0, 69, 92
2, 284885, Note_off_c, 0, 70, 64
2, 285002, Note_on_c, 0, 79, 92
2, 285005, Note_off_c, 0, 69, 64
2, 285242, Note_on_c, 0, 77, 92
2, 285245, Note_off_c, 0, 79, 64
2, 285302, Note_on_c, 0, 76, 92
2, 285305, Note_off_c, 0, 77, 64
2, 285362, Note_on_c, 0, 77, 92
2, 285365, Note_off_c, 0, 76, 64
2, 285482, Note_on_c, 0, 69, 92
2, 285485, Note_off_c, 0, 77, 64
2, 285602, Note_on_c, 0, 68, 92
2, 285605, Note_off_c, 0, 69, 64
2, 285722, Note_on_c, 0, 77, 92
2, 285725, Note_off_c, 0, 68, 64
2, 285842, Note_on_c, 0, 76, 92
2, 285845, Note_off_c, 0, 77, 64
2, 285902, Note_on_c, 0, 74, 92
2, 285905, Note_off_c, 0, 76, 64
2, 285962, Note_on_c, 0, 77, 92
2, 285965, Note_off_c, 0, 74, 64
2, 286022, Note_on_c, 0, 76, 92
2, 286025, Note_off_c, 0, 77, 64
2, 286082, Note_on_c, 0, 74, 92
2, 286085, Note_off_c, 0, 76, 64
2, 286142, Note_on_c, 0, 72, 92
2, 286145, Note_off_c, 0, 74, 64
2, 286202, Note_on_c, 0, 71, 92
2, 286205, Note_off_c, 0, 72, 64
2, 286262, Note_on_c, 0, 69, 92
2, 286265, Note_off_c, 0, 71, 64
2, 286322, Note_on_c, 0, 68, 92
2, 286325, Note_off_c, 0, 69, 64
2, 286382, Note_on_c, 0, 74, 92
2, 286385, Note_off_c, 0, 68, 64
2, 286442, Note_on_c, 0, 72, 92
2, 286445, Note_off_c, 0, 74, 64
2, 286502, Note_on_c, 0, 71, 92
2, 286505, Note_off_c, 0, 72, 64
2, 286562, Note_on_c, 0, 72, 92
2, 286565, Note_off_c, 0, 71, 64
2, 286622, Note_on_c, 0, 71, 92
2, 286625, Note_off_c, 0, 72, 64
2, 286682, Note_on_c, 0, 69, 92
2, 286685, Note_off_c, 0, 71, 64
2, 286922, Note_on_c, 0, 71, 92
2, 286925, Note_off_c, 0, 69, 64
2, 287042, Note_on_c, 0, 72, 92
2, 287045, Note_off_c, 0, 71, 64
2, 287162, Note_on_c, 0, 73, 92
2, 287165, Note_off_c, 0, 72, 64
2, 287282, Note_on_c, 0, 74, 92
2, 287285, Note_off_c, 0, 73, 64
2, 287402, Note_on_c, 0, 75, 92
2, 287405, Note_off_c, 0, 74, 64
2, 287582, Note_on_c, 0, 76, 92
2, 287585, Note_off_c, 0, 75, 64
2, 287642, Note_on_c, 0, 78, 92
2, 287645, Note_off_c, 0, 76, 64
2, 287702, Note_on_c, 0, 79, 92
2, 287705, Note_off_c, 0, 78, 64
2, 287762, Note_on_c, 0, 81, 92
2, 287765, Note_off_c, 0, 79, 64
2, 287822, Note_on_c, 0, 79, 92
2, 287825, Note_off_c, 0, 81, 64
2, 287882, Note_on_c, 0, 78, 92
2, 287885, Note_off_c, 0, 79, 64
2, 287942, Note_on_c, 0, 81, 92
2, 287945, Note_off_c, 0, 78, 64
2, 288002, Note_on_c, 0, 79, 92
2, 288005, Note_off_c, 0, 81, 64
2, 288302, Note_on_c, 0, 78, 92
2, 288305, Note_off_c, 0, 79, 64
2, 288362, Note_on_c, 0, 76, 92
2, 288365, Note_off_c, 0, 78, 64
2, 288422, Note_on_c, 0, 78, 92
2, 288425, Note_off_c, 0, 76, 64
2, 288482, Note_on_c, 0, 79, 92
2, 288485, Note_off_c, 0, 78, 64
2, 288602, Note_on_c, 0, 80, 92
2, 288605, Note_off_c, 0, 79, 64
2, 288722, Note_on_c, 0, 81, 92
2, 288725, Note_off_c, 0, 80, 64
2, 289022, Note_on_c, 0, 79, 92
2, 289025, Note_off_c, 0, 81, 64
2, 289082, Note_on_c, 0, 78, 92
2, 289085, Note_off_c, 0, 79, 64
2, 289142, Note_on_c, 0, 79, 92
2, 289145, Note_off_c, 0, 78, 64
2, 289202, Note_on_c, 0, 81, 92
2, 289205, Note_off_c, 0, 79, 64
2, 289322, Note_on_c, 0, 82, 92
2, 289325, Note_off_c, 0, 81, 64
2, 289442, Note_on_c, 0, 83, 92
2, 289445, Note_off_c, 0, 82, 64
2, 289742, Note_on_c, 0, 81, 92
2, 289745, Note_off_c, 0, 83, 64
2, 289802, Note_on_c, 0, 84, 92
2, 289805, Note_off_c, 0, 81, 64
2, 289862, Note_on_c, 0, 83, 92
2, 289865, Note_off_c, 0, 84, 64
2, 289922, Note_on_c, 0, 81, 92
2, 289925, Note_off_c, 0, 83, 64
2, 289982, Note_on_c, 0, 79, 92
2, 289985, Note_off_c, 0, 81, 64
2, 290042, Note_on_c, 0, 78, 92
2, 290045, Note_off_c, 0, 79, 64
2, 290102, Note_on_c, 0, 76, 92
2, 290105, Note_off_c, 0, 78, 64
2, 290162, Note_on_c, 0, 79, 92
2, 290165, Note_off_c, 0, 76, 64
2, 290282, Note_on_c, 0, 78, 92
2, 290285, Note_off_c, 0, 79, 64
2, 290405, Note_off_c, 0, 78, 64
2, 290642, Note_on_c, 0, 83, 92
2, 290882, Note_on_c, 0, 76, 92
2, 290885, Note_off_c, 0, 83, 64
2, 291125, Note_off_c, 0, 76, 64
2, 291362, Note_on_c, 0, 81, 92
2, 291722, Note_on_c, 0, 79, 92
2, 291725, Note_off_c, 0, 81, 64
2, 291842, Note_on_c, 0, 78, 92
2, 291845, Note_off_c, 0, 79, 64
2, 291902, Note_on_c, 0, 79, 92
2, 291905, Note_off_c, 0, 78, 64
2, 291962, Note_on_c, 0, 81, 92
2, 291965, Note_off_c, 0, 79, 64
2, 292202, Note_on_c, 0, 75, 92
2, 292205, Note_off_c, 0, 81, 64
2, 292322, Note_on_c, 0, 76, 92
2, 292325, Note_off_c, 0, 75, 64
2, 292382, Note_on_c, 0, 78, 92
2, 292385, Note_off_c, 0, 76, 64
2, 292442, Note_on_c, 0, 79, 92
2, 292445, Note_off_c, 0, 78, 64
2, 292502, Note_on_c, 0, 81, 92
2, 292505, Note_off_c, 0, 79, 64
2, 292562, Note_on_c, 0, 82, 92
2, 292565, Note_off_c, 0, 81, 64
2, 292805, Note_off_c, 0, 82, 64
2, 292922, Note_on_c, 0, 73, 92
2, 293042, Note_on_c, 0, 74, 92
2, 293045, Note_off_c, 0, 73, 64
2, 293102, Note_on_c, 0, 76, 92
2, 293105, Note_off_c, 0, 74, 64
2, 293162, Note_on_c, 0, 77, 92
2, 293165, Note_off_c, 0, 76, 64
2, 293222, Note_on_c, 0, 79, 92
2, 293225, Note_off_c, 0, 77, 64
2, 293282, Note_on_c, 0, 80, 92
2, 293285, Note_off_c, 0, 79, 64
2, 293525, Note_off_c, 0, 80, 64
2, 293642, Note_on_c, 0, 71, 92
2, 293762, Note_on_c, 0, 72, 92
2, 293765, Note_off_c, 0, 71, 64
2, 293882, Note_on_c, 0, 76, 92
2, 293885, Note_off_c, 0, 72, 64
2, 293942, Note_on_c, 0, 79, 92
2, 293945, Note_off_c, 0, 76, 64
2, 294002, Note_on_c, 0, 84, 92
2, 294005, Note_off_c, 0, 79, 64
2, 294245, Note_off_c, 0, 84, 64
2, 294302, Note_on_c, 0, 72, 92
2, 294362, Note_on_c, 0, 74, 92
2, 294365, Note_off_c, 0, 72, 64
2, 294422, Note_on_c, 0, 76, 92
2, 294425, Note_off_c, 0, 74, 64
2, 294482, Note_on_c, 0, 74, 92
2, 294485, Note_off_c, 0, 76, 64
2, 294542, Note_on_c, 0, 72, 92
2, 294545, Note_off_c, 0, 74, 64
2, 294602, Note_on_c, 0, 71, 92
2, 294605, Note_off_c, 0, 72, 64
2, 294662, Note_on_c, 0, 74, 92
2, 294665, Note_off_c, 0, 71, 64
2, 294722, Note_on_c, 0, 83, 92
2, 294725, Note_off_c, 0, 74, 64
2, 295262, Note_on_c, 0, 76, 92
2, 295265, Note_off_c, 0, 83, 64
2, 295322, Note_on_c, 0, 74, 92
2, 295325, Note_off_c, 0, 76, 64
2, 295382, Note_on_c, 0, 76, 92
2, 295385, Note_off_c, 0, 74, 64
2, 295442, Note_on_c, 0, 81, 92
2, 295445, Note_off_c, 0, 76, 64
2, 295562, Note_on_c, 0, 79, 92
2, 295565, Note_off_c, 0, 81, 64
2, 295742, Note_on_c, 0, 77, 92
2, 295745, Note_off_c, 0, 79, 64
2, 295802, Note_on_c, 0, 76, 92
2, 295805, Note_off_c, 0, 77, 64
2, 295862, Note_on_c, 0, 79, 92
2, 295865, Note_off_c, 0, 76, 64
2, 295922, Note_on_c, 0, 77, 92
2, 295925, Note_off_c, 0, 79, 64
2, 296165, Note_off_c, 0, 77, 64
2, 296402, Note_on_c, 0, 81, 92
2, 296702, Note_on_c, 0, 74, 92
2, 296705, Note_off_c, 0, 81, 64
2, 296762, Note_on_c, 0, 73, 92
2, 296765, Note_off_c, 0, 74, 64
2, 296822, Note_on_c, 0, 74, 92
2, 296825, Note_off_c, 0, 73, 64
2, 296882, Note_on_c, 0, 79, 92
2, 296885, Note_off_c, 0, 74, 64
2, 297002, Note_on_c, 0, 77, 92
2, 297005, Note_off_c, 0, 79, 64
2, 297182, Note_on_c, 0, 76, 92
2, 297185, Note_off_c, 0, 77, 64
2, 297242, Note_on_c, 0, 74, 92
2, 297245, Note_off_c, 0, 76, 64
2, 297302, Note_on_c, 0, 77, 92
2, 297305, Note_off_c, 0, 74, 64
2, 297362, Note_on_c, 0, 71, 92
2, 297365, Note_off_c, 0, 77, 64
2, 297422, Note_on_c, 0, 77, 92
2, 297425, Note_off_c, 0, 71, 64
2, 297482, Note_on_c, 0, 76, 92
2, 297485, Note_off_c, 0, 77, 64
2, 297542, Note_on_c, 0, 71, 92
2, 297545, Note_off_c, 0, 76, 64
2, 297602, Note_on_c, 0, 72, 92
2, 297605, Note_off_c, 0, 71, 64
2, 297662, Note_on_c, 0, 77, 92
2, 297665, Note_off_c, 0, 72, 64
2, 297722, Note_on_c, 0, 76, 92
2, 297725, Note_off_c, 0, 77, 64
2, 297782, Note_on_c, 0, 72, 92
2, 297785, Note_off_c, 0, 76, 64
2, 297842, Note_on_c, 0, 74, 92
2, 297845, Note_off_c, 0, 72, 64
2, 297902, Note_on_c, 0, 77, 92
2, 297905, Note_off_c, 0, 74, 64
2, 297962, Note_on_c, 0, 76, 92
2, 297965, Note_off_c, 0, 77, 64
2, 298022, Note_on_c, 0, 74, 92
2, 298025, Note_off_c, 0, 76, 64
2, 298082, Note_on_c, 0, 72, 92
2, 298085, Note_off_c, 0, 74, 64
2, 298142, Note_on_c, 0, 71, 92
2, 298145, Note_off_c, 0, 72, 64
2, 298202, Note_on_c, 0, 69, 92
2, 298205, Note_off_c, 0, 71, 64
2, 298262, Note_on_c, 0, 71, 92
2, 298265, Note_off_c, 0, 69, 64
2, 298322, Note_on_c, 0, 72, 92
2, 298325, Note_off_c, 0, 71, 64
2, 298442, Note_on_c, 0, 73, 92
2, 298445, Note_off_c, 0, 72, 64
2, 298562, Note_on_c, 0, 74, 92
2, 298565, Note_off_c, 0, 73, 64
2, 298682, Note_on_c, 0, 75, 92
2, 298685, Note_off_c, 0, 74, 64
2, 298802, Note_on_c, 0, 76, 92
2, 298805, Note_off_c, 0, 75, 64
2, 298862, Note_on_c, 0, 74, 92
2, 298865, Note_off_c, 0, 76, 64
2, 298922, Note_on_c, 0, 76, 92
2, 298925, Note_off_c, 0, 74, 64
2, 298982, Note_on_c, 0, 77, 92
2, 298985, Note_off_c, 0, 76, 64
2, 299042, Note_on_c, 0, 71, 92
2, 299045, Note_off_c, 0, 77, 64
2, 299072, Note_on_c, 0, 72, 92
2, 299075, Note_off_c, 0, 71, 64
2, 299102, Note_on_c, 0, 71, 92
2, 299105, Note_off_c, 0, 72, 64
2, 299402, Note_on_c, 0, 69, 92
2, 299405, Note_off_c, 0, 71, 64
2, 299522, Note_on_c, 0, 69, 92
2, 299525, Note_off_c, 0, 69, 64
2, 299642, Note_on_c, 0, 77, 92
2, 299645, Note_off_c, 0, 69, 64
2, 299882, Note_on_c, 0, 75, 92
2, 299885, Note_off_c, 0, 77, 64
2, 300122, Note_on_c, 0, 76, 92
2, 300125, Note_off_c, 0, 75, 64
2, 300302, Note_on_c, 0, 74, 92
2, 300305, Note_off_c, 0, 76, 64
2, 300362, Note_on_c, 0, 72, 92
2, 300365, Note_off_c, 0, 74, 64
2, 300422, Note_on_c, 0, 71, 92
2, 300425, Note_off_c, 0, 72, 64
2, 300482, Note_on_c, 0, 74, 92
2, 300485, Note_off_c, 0, 71, 64
2, 300602, Note_on_c, 0, 72, 92
2, 300605, Note_off_c, 0, 74, 64
2, 300782, Note_on_c, 0, 71, 92
2, 300785, Note_off_c, 0, 72, 64
2, 300842, Note_on_c, 0, 72, 92
2, 300845, Note_off_c, 0, 71, 64
2, 300902, Note_on_c, 0, 69, 92
2, 300905, Note_off_c, 0, 72, 64
2, 300962, Note_on_c, 0, 69, 92
2, 300965, Note_off_c, 0, 69, 64
2, 301202, Note_on_c, 0, 68, 92
2, 301205, Note_off_c, 0, 69, 64
2, 302405, Note_off_c, 0, 68, 64
2, 304080, Note_on_c, 0, 79, 92
2, 304320, Note_off_c, 0, 79, 64
2, 304320, Note_on_c, 0, 76, 92
2, 304560, Note_off_c, 0, 76, 64
2, 304560, Note_on_c, 0, 81, 92
2, 304800, Note_off_c, 0, 81, 64
2, 304800, Note_on_c, 0, 77, 92
2, 305040, Note_off_c, 0, 77, 64
2, 305040, Note_on_c, 0, 74, 92
2, 305280, Note_off_c, 0, 74, 64
2, 305280, Note_on_c, 0, 79, 92
2, 305880, Note_off_c, 0, 79, 64
2, 305880, Note_on_c, 0, 72, 92
2, 306000, Note_off_c, 0, 72, 64
2, 306000, Note_on_c, 0, 74, 92
2, 306120, Note_off_c, 0, 74, 64
2, 306120, Note_on_c, 0, 76, 92
2, 306240, Note_off_c, 0, 76, 64
2, 306240, Note_on_c, 0, 77, 92
2, 306480, Note_off_c, 0, 77, 64
2, 306480, Note_on_c, 0, 69, 92
2, 306720, Note_off_c, 0, 69, 64
2, 306720, Note_on_c, 0, 67, 92
2, 306960, Note_off_c, 0, 67, 64
2, 306960, Note_on_c, 0, 77, 92
2, 307200, Note_off_c, 0, 77, 64
2, 307200, Note_on_c, 0, 76, 92
2, 307230, Note_off_c, 0, 76, 64
2, 307230, Note_on_c, 0, 77, 92
2, 307260, Note_off_c, 0, 77, 64
2, 307260, Note_on_c, 0, 76, 92
2, 307320, Note_off_c, 0, 76, 64
2, 307320, Note_on_c, 0, 74, 92
2, 307440, Note_off_c, 0, 74, 64
2, 307440, Note_on_c, 0, 76, 92
2, 307560, Note_off_c, 0, 76, 64
2, 307560, Note_on_c, 0, 77, 92
2, 307680, Note_off_c, 0, 77, 64
2, 307680, Note_on_c, 0, 74, 92
2, 307920, Note_off_c, 0, 74, 64
2, 307920, Note_on_c, 0, 76, 92
2, 308040, Note_off_c, 0, 76, 64
2, 308040, Note_on_c, 0, 78, 92
2, 308160, Note_off_c, 0, 78, 64
2, 308160, Note_on_c, 0, 79, 92
2, 308280, Note_off_c, 0, 79, 64
2, 308280, Note_on_c, 0, 81, 92
2, 308400, Note_off_c, 0, 81, 64
2, 308400, Note_on_c, 0, 83, 92
2, 308520, Note_off_c, 0, 83, 64
2, 308520, Note_on_c, 0, 79, 92
2, 308640, Note_off_c, 0, 79, 64
2, 308640, Note_on_c, 0, 81, 92
2, 308760, Note_off_c, 0, 81, 64
2, 308760, Note_on_c, 0, 79, 92
2, 308880, Note_off_c, 0, 79, 64
2, 308880, Note_on_c, 0, 81, 92
2, 309000, Note_off_c, 0, 81, 64
2, 309000, Note_on_c, 0, 83, 92
2, 309120, Note_off_c, 0, 83, 64
2, 309120, Note_on_c, 0, 81, 92
2, 309240, Note_off_c, 0, 81, 64
2, 309240, Note_on_c, 0, 84, 92
2, 309360, Note_off_c, 0, 84, 64
2, 309360, Note_on_c, 0, 83, 92
2, 309480, Note_off_c, 0, 83, 64
2, 309480, Note_on_c, 0, 81, 92
2, 309600, Note_off_c, 0, 81, 64
2, 309600, Note_on_c, 0, 79, 92
2, 310200, Note_off_c, 0, 79, 64
2, 310200, Note_on_c, 0, 76, 92
2, 310320, Note_off_c, 0, 76, 64
2, 310320, Note_on_c, 0, 74, 92
2, 310440, Note_off_c, 0, 74, 64
2, 310440, Note_on_c, 0, 72, 92
2, 310560, Note_off_c, 0, 72, 64
2, 310560, Note_on_c, 0, 81, 92
2, 310680, Note_off_c, 0, 81, 64
2, 310680, Note_on_c, 0, 79, 92
2, 310800, Note_off_c, 0, 79, 64
2, 310800, Note_on_c, 0, 78, 92
2, 310920, Note_off_c, 0, 78, 64
2, 310920, Note_on_c, 0, 76, 92
2, 311040, Note_off_c, 0, 76, 64
2, 311040, Note_on_c, 0, 74, 92
2, 311280, Note_off_c, 0, 74, 64
2, 311280, Note_on_c, 0, 79, 92
2, 311640, Note_off_c, 0, 79, 64
2, 311640, Note_on_c, 0, 78, 92
2, 311760, Note_off_c, 0, 78, 64
2, 311760, Note_on_c, 0, 79, 92
2, 311880, Note_off_c, 0, 79, 64
2, 311880, Note_on_c, 0, 76, 92
2, 312000, Note_off_c, 0, 76, 64
2, 312000, Note_on_c, 0, 78, 92
2, 312240, Note_off_c, 0, 78, 64
2, 312240, Note_on_c, 0, 83, 92
2, 312480, Note_off_c, 0, 83, 64
2, 312480, Note_on_c, 0, 79, 92
2, 312720, Note_off_c, 0, 79, 64
2, 312720, Note_on_c, 0, 76, 92
2, 312960, Note_off_c, 0, 76, 64
2, 312960, Note_on_c, 0, 81, 92
2, 313560, Note_off_c, 0, 81, 64
2, 313560, Note_on_c, 0, 74, 92
2, 313680, Note_off_c, 0, 74, 64
2, 313680, Note_on_c, 0, 76, 92
2, 313800, Note_off_c, 0, 76, 64
2, 313800, Note_on_c, 0, 78, 92
2, 313920, Note_off_c, 0, 78, 64
2, 313920, Note_on_c, 0, 79, 92
2, 314880, Note_off_c, 0, 79, 64
2, 314880, Note_on_c, 0, 78, 92
2, 314910, Note_off_c, 0, 78, 64
2, 314910, Note_on_c, 0, 79, 92
2, 314940, Note_off_c, 0, 79, 64
2, 314940, Note_on_c, 0, 78, 92
2, 315240, Note_off_c, 0, 78, 64
2, 315240, Note_on_c, 0, 76, 92
2, 315300, Note_off_c, 0, 76, 64
2, 315300, Note_on_c, 0, 78, 92
2, 315360, Note_off_c, 0, 78, 64
2, 315360, Note_on_c, 0, 79, 92
2, 315840, Note_off_c, 0, 79, 64
2, 315960, Note_on_c, 0, 79, 92
2, 316080, Note_off_c, 0, 79, 64
2, 316080, Note_on_c, 0, 74, 92
2, 316200, Note_off_c, 0, 74, 64
2, 316200, Note_on_c, 0, 77, 92
2, 316320, Note_off_c, 0, 77, 64
2, 316320, Note_on_c, 0, 76, 92
2, 316440, Note_off_c, 0, 76, 64
2, 316440, Note_on_c, 0, 79, 92
2, 316560, Note_off_c, 0, 79, 64
2, 316560, Note_on_c, 0, 71, 92
2, 316680, Note_off_c, 0, 71, 64
2, 316680, Note_on_c, 0, 74, 92
2, 316800, Note_off_c, 0, 74, 64
2, 316800, Note_on_c, 0, 72, 92
2, 316920, Note_off_c, 0, 72, 64
2, 316920, Note_on_c, 0, 76, 92
2, 317040, Note_off_c, 0, 76, 64
2, 317040, Note_on_c, 0, 74, 92
2, 317160, Note_off_c, 0, 74, 64
2, 317160, Note_on_c, 0, 72, 92
2, 317280, Note_off_c, 0, 72, 64
2, 317280, Note_on_c, 0, 71, 92
2, 317400, Note_off_c, 0, 71, 64
2, 317400, Note_on_c, 0, 67, 92
2, 317520, Note_off_c, 0, 67, 64
2, 317520, Note_on_c, 0, 71, 92
2, 317640, Note_off_c, 0, 71, 64
2, 317640, Note_on_c, 0, 74, 92
2, 317760, Note_off_c, 0, 74, 64
2, 317760, Note_on_c, 0, 79, 92
2, 319680, Note_off_c, 0, 79, 64
2, 319800, Note_on_c, 0, 76, 92
2, 319920, Note_off_c, 0, 76, 64
2, 319920, Note_on_c, 0, 71, 92
2, 320040, Note_off_c, 0, 71, 64
2, 320040, Note_on_c, 0, 74, 92
2, 320160, Note_off_c, 0, 74, 64
2, 320160, Note_on_c, 0, 72, 92
2, 320400, Note_off_c, 0, 72, 64
2, 320400, Note_on_c, 0, 81, 92
2, 320640, Note_off_c, 0, 81, 64
2, 320760, Note_on_c, 0, 74, 92
2, 320880, Note_off_c, 0, 74, 64
2, 320880, Note_on_c, 0, 69, 92
2, 321000, Note_off_c, 0, 69, 64
2, 321000, Note_on_c, 0, 72, 92
2, 321120, Note_off_c, 0, 72, 64
2, 321120, Note_on_c, 0, 71, 92
2, 321360, Note_off_c, 0, 71, 64
2, 321360, Note_on_c, 0, 79, 92
2, 321600, Note_off_c, 0, 79, 64
2, 321720, Note_on_c, 0, 72, 92
2, 321840, Note_off_c, 0, 72, 64
2, 321840, Note_on_c, 0, 67, 92
2, 321960, Note_off_c, 0, 67, 64
2, 321960, Note_on_c, 0, 70, 92
2, 322080, Note_off_c, 0, 70, 64
2, 322080, Note_on_c, 0, 69, 92
2, 322320, Note_off_c, 0, 69, 64
2, 322320, Note_on_c, 0, 81, 92
2, 322440, Note_off_c, 0, 81, 64
2, 322440, Note_on_c, 0, 79, 92
2, 322560, Note_off_c, 0, 79, 64
2, 322560, Note_on_c, 0, 77, 92
2, 322680, Note_off_c, 0, 77, 64
2, 322680, Note_on_c, 0, 76, 92
2, 322800, Note_off_c, 0, 76, 64
2, 322800, Note_on_c, 0, 74, 92
2, 322920, Note_off_c, 0, 74, 64
2, 322920, Note_on_c, 0, 72, 92
2, 323040, Note_off_c, 0, 72, 64
2, 323040, Note_on_c, 0, 71, 92
2, 323280, Note_off_c, 0, 71, 64
2, 323280, Note_on_c, 0, 67, 92
2, 323520, Note_off_c, 0, 67, 64
2, 323640, Note_on_c, 0, 79, 92
2, 323760, Note_off_c, 0, 79, 64
2, 323760, Note_on_c, 0, 76, 92
2, 323880, Note_off_c, 0, 76, 64
2, 323880, Note_on_c, 0, 72, 92
2, 324000, Note_off_c, 0, 72, 64
2, 324000, Note_on_c, 0, 74, 92
2, 324120, Note_off_c, 0, 74, 64
2, 324120, Note_on_c, 0, 72, 92
2, 324240, Note_off_c, 0, 72, 64
2, 324240, Note_on_c, 0, 74, 92
2, 324360, Note_off_c, 0, 74, 64
2, 324360, Note_on_c, 0, 76, 92
2, 324480, Note_off_c, 0, 76, 64
2, 324480, Note_on_c, 0, 74, 92
2, 324600, Note_off_c, 0, 74, 64
2, 324600, Note_on_c, 0, 79, 92
2, 324720, Note_off_c, 0, 79, 64
2, 324720, Note_on_c, 0, 74, 92
2, 324840, Note_off_c, 0, 74, 64
2, 324840, Note_on_c, 0, 71, 92
2, 324960, Note_off_c, 0, 71, 64
2, 324960, Note_on_c, 0, 72, 92
2, 325080, Note_off_c, 0, 72, 64
2, 325080, Note_on_c, 0, 71, 92
2, 325200, Note_off_c, 0, 71, 64
2, 325200, Note_on_c, 0, 72, 92
2, 325320, Note_off_c, 0, 72, 64
2, 325320, Note_on_c, 0, 74, 92
2, 325440, Note_off_c, 0, 74, 64
2, 325440, Note_on_c, 0, 72, 92
2, 325560, Note_off_c, 0, 72, 64
2, 325560, Note_on_c, 0, 76, 92
2, 325680, Note_off_c, 0, 76, 64
2, 325680, Note_on_c, 0, 72, 92
2, 325800, Note_off_c, 0, 72, 64
2, 325800, Note_on_c, 0, 69, 92
2, 325920, Note_off_c, 0, 69, 64
2, 325920, Note_on_c, 0, 71, 92
2, 326040, Note_off_c, 0, 71, 64
2, 326040, Note_on_c, 0, 69, 92
2, 326160, Note_off_c, 0, 69, 64
2, 326160, Note_on_c, 0, 71, 92
2, 326280, Note_off_c, 0, 71, 64
2, 326280, Note_on_c, 0, 72, 92
2, 326400, Note_off_c, 0, 72, 64
2, 326400, Note_on_c, 0, 71, 92
2, 326520, Note_off_c, 0, 71, 64
2, 326520, Note_on_c, 0, 76, 92
2, 326640, Note_off_c, 0, 76, 64
2, 326640, Note_on_c, 0, 71, 92
2, 326760, Note_off_c, 0, 71, 64
2, 326760, Note_on_c, 0, 67, 92
2, 326880, Note_off_c, 0, 67, 64
2, 326880, Note_on_c, 0, 69, 92
2, 327000, Note_off_c, 0, 69, 64
2, 327000, Note_on_c, 0, 67, 92
2, 327120, Note_off_c, 0, 67, 64
2, 327120, Note_on_c, 0, 69, 92
2, 327240, Note_off_c, 0, 69, 64
2, 327240, Note_on_c, 0, 71, 92
2, 327360, Note_off_c, 0, 71, 64
2, 327360, Note_on_c, 0, 69, 92
2, 327480, Note_off_c, 0, 69, 64
2, 327480, Note_on_c, 0, 72, 92
2, 327600, Note_off_c, 0, 72, 64
2, 327600, Note_on_c, 0, 69, 92
2, 327720, Note_off_c, 0, 69, 64
2, 327720, Note_on_c, 0, 65, 92
2, 327840, Note_off_c, 0, 65, 64
2, 327840, Note_on_c, 0, 67, 92
2, 328440, Note_off_c, 0, 67, 64
2, 328440, Note_on_c, 0, 76, 92
2, 328560, Note_off_c, 0, 76, 64
2, 328560, Note_on_c, 0, 72, 92
2, 328680, Note_off_c, 0, 72, 64
2, 328680, Note_on_c, 0, 69, 92
2, 328800, Note_off_c, 0, 69, 64
2, 328800, Note_on_c, 0, 65, 92
2, 329040, Note_off_c, 0, 65, 64
2, 329040, Note_on_c, 0, 69, 92
2, 329520, Note_off_c, 0, 69, 64
2, 329520, Note_on_c, 0, 67, 92
2, 329640, Note_off_c, 0, 67, 64
2, 329640, Note_on_c, 0, 65, 92
2, 329760, Note_off_c, 0, 65, 64
2, 329760, Note_on_c, 0, 64, 92
2, 330000, Note_off_c, 0, 64, 64
2, 330000, Note_on_c, 0, 72, 92
2, 330240, Note_off_c, 0, 72, 64
2, 330240, Note_on_c, 0, 62, 92
2, 330480, Note_off_c, 0, 62, 64
2, 330480, Note_on_c, 0, 71, 92
2, 330720, Note_off_c, 0, 71, 64
2, 330720, Note_on_c, 0, 60, 92
2, 330840, Note_off_c, 0, 60, 64
2, 330840, Note_on_c, 0, 62, 92
2, 330960, Note_off_c, 0, 62, 64
2, 330960, Note_on_c, 0, 60, 92
2, 331080, Note_off_c, 0, 60, 64
2, 331080, Note_on_c, 0, 62, 92
2, 331200, Note_off_c, 0, 62, 64
2, 331200, Note_on_c, 0, 64, 92
2, 331320, Note_off_c, 0, 64, 64
2, 331320, Note_on_c, 0, 65, 92
2, 331440, Note_off_c, 0, 65, 64
2, 331440, Note_on_c, 0, 64, 92
2, 331560, Note_off_c, 0, 64, 64
2, 331560, Note_on_c, 0, 65, 92
2, 331680, Note_off_c, 0, 65, 64
2, 331680, Note_on_c, 0, 62, 92
2, 331800, Note_off_c, 0, 62, 64
2, 331800, Note_on_c, 0, 64, 92
2, 331920, Note_off_c, 0, 64, 64
2, 331920, Note_on_c, 0, 62, 92
2, 332040, Note_off_c, 0, 62, 64
2, 332040, Note_on_c, 0, 64, 92
2, 332160, Note_off_c, 0, 64, 64
2, 332160, Note_on_c, 0, 65, 92
2, 332280, Note_off_c, 0, 65, 64
2, 332280, Note_on_c, 0, 67, 92
2, 332400, Note_off_c, 0, 67, 64
2, 332400, Note_on_c, 0, 65, 92
2, 332520, Note_off_c, 0, 65, 64
2, 332520, Note_on_c, 0, 67, 92
2, 332640, Note_off_c, 0, 67, 64
2, 332640, Note_on_c, 0, 64, 92
2, 332880, Note_off_c, 0, 64, 64
2, 332880, Note_on_c, 0, 72, 92
2, 333120, Note_off_c, 0, 72, 64
2, 333120, Note_on_c, 0, 60, 92
2, 333360, Note_off_c, 0, 60, 64
2, 333360, Note_on_c, 0, 72, 92
2, 333600, Note_off_c, 0, 72, 64
2, 333600, Note_on_c, 0, 65, 92
2, 333840, Note_off_c, 0, 65, 64
2, 333840, Note_on_c, 0, 72, 92
2, 334080, Note_off_c, 0, 72, 64
2, 334080, Note_on_c, 0, 62, 92
2, 334320, Note_off_c, 0, 62, 64
2, 334320, Note_on_c, 0, 71, 92
2, 334560, Note_off_c, 0, 71, 64
2, 334560, Note_on_c, 0, 72, 92
2, 334800, Note_off_c, 0, 72, 64
2, 335040, Note_on_c, 0, 79, 92
2, 335280, Note_off_c, 0, 79, 64
2, 335520, Note_on_c, 0, 81, 92
2, 335760, Note_off_c, 0, 81, 64
2, 336000, Note_on_c, 0, 83, 92
2, 336240, Note_off_c, 0, 83, 64
2, 336720, Note_on_c, 0, 84, 92
2, 336840, Note_off_c, 0, 84, 64
2, 336840, Note_on_c, 0, 83, 92
2, 336960, Note_off_c, 0, 83, 64
2, 336960, Note_on_c, 0, 81, 92
2, 337080, Note_off_c, 0, 81, 64
2, 337080, Note_on_c, 0, 79, 92
2, 337200, Note_off_c, 0, 79, 64
2, 337200, Note_on_c, 0, 77, 92
2, 337320, Note_off_c, 0, 77, 64
2, 337320, Note_on_c, 0, 76, 92
2, 337440, Note_off_c, 0, 76, 64
2, 337440, Note_on_c, 0, 74, 92
2, 337560, Note_off_c, 0, 74, 64
2, 337560, Note_on_c, 0, 76, 92
2, 337680, Note_off_c, 0, 76, 64
2, 337680, Note_on_c, 0, 74, 92
2, 337800, Note_off_c, 0, 74, 64
2, 337800, Note_on_c, 0, 76, 92
2, 337920, Note_off_c, 0, 76, 64
2, 337920, Note_on_c, 0, 77, 92
2, 338040, Note_off_c, 0, 77, 64
2, 338040, Note_on_c, 0, 79, 92
2, 338160, Note_off_c, 0, 79, 64
2, 338160, Note_on_c, 0, 77, 92
2, 338280, Note_off_c, 0, 77, 64
2, 338280, Note_on_c, 0, 79, 92
2, 338400, Note_off_c, 0, 79, 64
2, 338400, Note_on_c, 0, 72, 92
2, 338520, Note_off_c, 0, 72, 64
2, 338520, Note_on_c, 0, 74, 92
2, 338640, Note_off_c, 0, 74, 64
2, 338640, Note_on_c, 0, 72, 92
2, 338760, Note_off_c, 0, 72, 64
2, 338760, Note_on_c, 0, 74, 92
2, 338880, Note_off_c, 0, 74, 64
2, 338880, Note_on_c, 0, 76, 92
2, 339000, Note_off_c, 0, 76, 64
2, 339000, Note_on_c, 0, 77, 92
2, 339120, Note_off_c, 0, 77, 64
2, 339120, Note_on_c, 0, 76, 92
2, 339240, Note_off_c, 0, 76, 64
2, 339240, Note_on_c, 0, 77, 92
2, 339360, Note_off_c, 0, 77, 64
2, 339360, Note_on_c, 0, 71, 92
2, 339480, Note_off_c, 0, 71, 64
2, 339480, Note_on_c, 0, 72, 92
2, 339600, Note_off_c, 0, 72, 64
2, 339600, Note_on_c, 0, 71, 92
2, 339720, Note_off_c, 0, 71, 64
2, 339720, Note_on_c, 0, 72, 92
2, 339840, Note_off_c, 0, 72, 64
2, 339840, Note_on_c, 0, 74, 92
2, 339960, Note_off_c, 0, 74, 64
2, 339960, Note_on_c, 0, 76, 92
2, 340080, Note_off_c, 0, 76, 64
2, 340080, Note_on_c, 0, 74, 92
2, 340200, Note_off_c, 0, 74, 64
2, 340200, Note_on_c, 0, 76, 92
2, 340320, Note_off_c, 0, 76, 64
2, 340320, Note_on_c, 0, 72, 92
2, 340560, Note_off_c, 0, 72, 64
2, 340560, Note_on_c, 0, 76, 92
2, 340800, Note_off_c, 0, 76, 64
2, 340800, Note_on_c, 0, 69, 92
2, 341040, Note_off_c, 0, 69, 64
2, 341040, Note_on_c, 0, 81, 92
2, 341280, Note_off_c, 0, 81, 64
2, 341280, Note_on_c, 0, 77, 92
2, 341520, Note_off_c, 0, 77, 64
2, 341520, Note_on_c, 0, 81, 92
2, 341760, Note_off_c, 0, 81, 64
2, 341760, Note_on_c, 0, 71, 92
2, 342000, Note_off_c, 0, 71, 64
2, 342000, Note_on_c, 0, 80, 92
2, 342240, Note_off_c, 0, 80, 64
2, 342240, Note_on_c, 0, 69, 92
2, 342360, Note_off_c, 0, 69, 64
2, 342360, Note_on_c, 0, 71, 92
2, 342480, Note_off_c, 0, 71, 64
2, 342480, Note_on_c, 0, 69, 92
2, 342600, Note_off_c, 0, 69, 64
2, 342600, Note_on_c, 0, 71, 92
2, 342720, Note_off_c, 0, 71, 64
2, 342720, Note_on_c, 0, 72, 92
2, 342840, Note_off_c, 0, 72, 64
2, 342840, Note_on_c, 0, 74, 92
2, 342960, Note_off_c, 0, 74, 64
2, 342960, Note_on_c, 0, 72, 92
2, 343080, Note_off_c, 0, 72, 64
2, 343080, Note_on_c, 0, 74, 92
2, 343200, Note_off_c, 0, 74, 64
2, 343200, Note_on_c, 0, 71, 92
2, 343320, Note_off_c, 0, 71, 64
2, 343320, Note_on_c, 0, 72, 92
2, 343440, Note_off_c, 0, 72, 64
2, 343440, Note_on_c, 0, 71, 92
2, 343560, Note_off_c, 0, 71, 64
2, 343560, Note_on_c, 0, 72, 92
2, 343680, Note_off_c, 0, 72, 64
2, 343680, Note_on_c, 0, 74, 92
2, 343800, Note_off_c, 0, 74, 64
2, 343800, Note_on_c, 0, 76, 92
2, 343920, Note_off_c, 0, 76, 64
2, 343920, Note_on_c, 0, 74, 92
2, 344040, Note_off_c, 0, 74, 64
2, 344040, Note_on_c, 0, 76, 92
2, 344160, Note_off_c, 0, 76, 64
2, 344160, Note_on_c, 0, 72, 92
2, 344280, Note_off_c, 0, 72, 64
2, 344280, Note_on_c, 0, 71, 92
2, 344400, Note_off_c, 0, 71, 64
2, 344400, Note_on_c, 0, 72, 92
2, 344520, Note_off_c, 0, 72, 64
2, 344520, Note_on_c, 0, 76, 92
2, 344640, Note_off_c, 0, 76, 64
2, 344640, Note_on_c, 0, 81, 92
2, 345360, Note_off_c, 0, 81, 64
2, 345360, Note_on_c, 0, 79, 92
2, 345480, Note_off_c, 0, 79, 64
2, 345480, Note_on_c, 0, 77, 92
2, 345600, Note_off_c, 0, 77, 64
2, 345600, Note_on_c, 0, 79, 92
2, 345720, Note_off_c, 0, 79, 64
2, 345720, Note_on_c, 0, 76, 92
2, 345840, Note_off_c, 0, 76, 64
2, 345840, Note_on_c, 0, 69, 92
2, 345960, Note_off_c, 0, 69, 64
2, 345960, Note_on_c, 0, 79, 92
2, 346080, Note_off_c, 0, 79, 64
2, 346080, Note_on_c, 0, 77, 92
2, 346680, Note_off_c, 0, 77, 64
2, 346680, Note_on_c, 0, 74, 92
2, 346800, Note_off_c, 0, 74, 64
2, 346800, Note_on_c, 0, 71, 92
2, 346920, Note_off_c, 0, 71, 64
2, 346920, Note_on_c, 0, 74, 92
2, 347040, Note_off_c, 0, 74, 64
2, 347040, Note_on_c, 0, 68, 92
2, 347160, Note_off_c, 0, 68, 64
2, 347160, Note_on_c, 0, 69, 92
2, 347280, Note_off_c, 0, 69, 64
2, 347280, Note_on_c, 0, 71, 92
2, 347400, Note_off_c, 0, 71, 64
2, 347400, Note_on_c, 0, 68, 92
2, 347520, Note_off_c, 0, 68, 64
2, 347520, Note_on_c, 0, 64, 92
2, 347760, Note_off_c, 0, 64, 64
2, 347760, Note_on_c, 0, 81, 92
2, 348120, Note_off_c, 0, 81, 64
2, 348120, Note_on_c, 0, 79, 92
2, 348240, Note_off_c, 0, 79, 64
2, 348240, Note_on_c, 0, 81, 92
2, 348360, Note_off_c, 0, 81, 64
2, 348360, Note_on_c, 0, 78, 92
2, 348480, Note_off_c, 0, 78, 64
2, 348480, Note_on_c, 0, 79, 92
2, 348720, Note_off_c, 0, 79, 64
2, 348720, Note_on_c, 0, 84, 92
2, 348960, Note_off_c, 0, 84, 64
2, 348960, Note_on_c, 0, 81, 92
2, 349200, Note_off_c, 0, 81, 64
2, 349200, Note_on_c, 0, 78, 92
2, 349440, Note_off_c, 0, 78, 64
2, 349440, Note_on_c, 0, 83, 92
2, 350040, Note_off_c, 0, 83, 64
2, 350040, Note_on_c, 0, 76, 92
2, 350160, Note_off_c, 0, 76, 64
2, 350160, Note_on_c, 0, 78, 92
2, 350280, Note_off_c, 0, 78, 64
2, 350280, Note_on_c, 0, 79, 92
2, 350400, Note_off_c, 0, 79, 64
2, 350400, Note_on_c, 0, 81, 92
2, 350640, Note_off_c, 0, 81, 64
2, 350640, Note_on_c, 0, 72, 92
2, 350880, Note_off_c, 0, 72, 64
2, 350880, Note_on_c, 0, 71, 92
2, 351120, Note_off_c, 0, 71, 64
2, 351120, Note_on_c, 0, 81, 92
2, 351360, Note_off_c, 0, 81, 64
2, 351360, Note_on_c, 0, 79, 92
2, 351480, Note_off_c, 0, 79, 64
2, 351480, Note_on_c, 0, 78, 92
2, 351600, Note_off_c, 0, 78, 64
2, 351600, Note_on_c, 0, 79, 92
2, 351720, Note_off_c, 0, 79, 64
2, 351720, Note_on_c, 0, 81, 92
2, 351840, Note_off_c, 0, 81, 64
2, 351840, Note_on_c, 0, 78, 92
2, 352320, Note_off_c, 0, 78, 64
2, 352440, Note_on_c, 0, 83, 92
2, 352560, Note_off_c, 0, 83, 64
2, 352560, Note_on_c, 0, 81, 92
2, 352680, Note_off_c, 0, 81, 64
2, 352680, Note_on_c, 0, 79, 92
2, 352800, Note_off_c, 0, 79, 64
2, 352800, Note_on_c, 0, 78, 92
2, 352920, Note_off_c, 0, 78, 64
2, 352920, Note_on_c, 0, 79, 92
2, 353040, Note_off_c, 0, 79, 64
2, 353040, Note_on_c, 0, 78, 92
2, 353160, Note_off_c, 0, 78, 64
2, 353160, Note_on_c, 0, 79, 92
2, 353280, Note_off_c, 0, 79, 64
2, 353280, Note_on_c, 0, 81, 92
2, 353400, Note_off_c, 0, 81, 64
2, 353400, Note_on_c, 0, 83, 92
2, 353520, Note_off_c, 0, 83, 64
2, 353520, Note_on_c, 0, 81, 92
2, 353640, Note_off_c, 0, 81, 64
2, 353640, Note_on_c, 0, 83, 92
2, 353760, Note_off_c, 0, 83, 64
2, 353760, Note_on_c, 0, 81, 92
2, 353880, Note_off_c, 0, 81, 64
2, 353880, Note_on_c, 0, 80, 92
2, 354000, Note_off_c, 0, 80, 64
2, 354000, Note_on_c, 0, 78, 92
2, 354120, Note_off_c, 0, 78, 64
2, 354120, Note_on_c, 0, 76, 92
2, 354240, Note_off_c, 0, 76, 64
2, 354240, Note_on_c, 0, 81, 92
2, 355200, Note_off_c, 0, 81, 64
2, 355200, Note_on_c, 0, 79, 92
2, 356160, Note_off_c, 0, 79, 64
2, 356280, Note_on_c, 0, 81, 92
2, 356400, Note_off_c, 0, 81, 64
2, 356400, Note_on_c, 0, 79, 92
2, 356520, Note_off_c, 0, 79, 64
2, 356520, Note_on_c, 0, 77, 92
2, 356640, Note_off_c, 0, 77, 64
2, 356640, Note_on_c, 0, 76, 92
2, 356760, Note_off_c, 0, 76, 64
2, 356760, Note_on_c, 0, 77, 92
2, 356880, Note_off_c, 0, 77, 64
2, 356880, Note_on_c, 0, 76, 92
2, 357000, Note_off_c, 0, 76, 64
2, 357000, Note_on_c, 0, 77, 92
2, 357120, Note_off_c, 0, 77, 64
2, 357120, Note_on_c, 0, 79, 92
2, 357240, Note_off_c, 0, 79, 64
2, 357240, Note_on_c, 0, 81, 92
2, 357360, Note_off_c, 0, 81, 64
2, 357360, Note_on_c, 0, 79, 92
2, 357480, Note_off_c, 0, 79, 64
2, 357480, Note_on_c, 0, 81, 92
2, 357600, Note_off_c, 0, 81, 64
2, 357600, Note_on_c, 0, 79, 92
2, 357720, Note_off_c, 0, 79, 64
2, 357720, Note_on_c, 0, 78, 92
2, 357840, Note_off_c, 0, 78, 64
2, 357840, Note_on_c, 0, 76, 92
2, 357960, Note_off_c, 0, 76, 64
2, 357960, Note_on_c, 0, 74, 92
2, 358080, Note_off_c, 0, 74, 64
2, 358080, Note_on_c, 0, 79, 92
2, 359040, Note_off_c, 0, 79, 64
2, 359040, Note_on_c, 0, 78, 92
2, 359520, Note_off_c, 0, 78, 64
2, 359520, Note_on_c, 0, 79, 92
2, 359760, Note_off_c, 0, 79, 64
2, 359760, Note_on_c, 0, 74, 92
2, 360000, Note_off_c, 0, 74, 64
2, 360000, Note_on_c, 0, 71, 92
2, 360240, Note_off_c, 0, 71, 64
2, 360240, Note_on_c, 0, 76, 92
2, 360480, Note_off_c, 0, 76, 64
2, 360480, Note_on_c, 0, 72, 92
2, 360720, Note_off_c, 0, 72, 64
2, 360720, Note_on_c, 0, 69, 92
2, 360960, Note_off_c, 0, 69, 64
2, 360960, Note_on_c, 0, 74, 92
2, 361560, Note_off_c, 0, 74, 64
2, 361560, Note_on_c, 0, 67, 92
2, 361680, Note_off_c, 0, 67, 64
2, 361680, Note_on_c, 0, 69, 92
2, 361800, Note_off_c, 0, 69, 64
2, 361800, Note_on_c, 0, 71, 92
2, 361920, Note_off_c, 0, 71, 64
2, 361920, Note_on_c, 0, 72, 92
2, 362520, Note_off_c, 0, 72, 64
2, 362520, Note_on_c, 0, 66, 92
2, 362640, Note_off_c, 0, 66, 64
2, 362640, Note_on_c, 0, 67, 92
2, 362760, Note_off_c, 0, 67, 64
2, 362760, Note_on_c, 0, 69, 92
2, 362880, Note_off_c, 0, 69, 64
2, 362880, Note_on_c, 0, 71, 92
2, 363000, Note_off_c, 0, 71, 64
2, 363000, Note_on_c, 0, 69, 92
2, 363120, Note_off_c, 0, 69, 64
2, 363120, Note_on_c, 0, 71, 92
2, 363240, Note_off_c, 0, 71, 64
2, 363240, Note_on_c, 0, 72, 92
2, 363360, Note_off_c, 0, 72, 64
2, 363360, Note_on_c, 0, 69, 92
2, 363480, Note_off_c, 0, 69, 64
2, 363480, Note_on_c, 0, 62, 92
2, 363600, Note_off_c, 0, 62, 64
2, 363600, Note_on_c, 0, 66, 92
2, 363720, Note_off_c, 0, 66, 64
2, 363720, Note_on_c, 0, 69, 92
2, 363840, Note_off_c, 0, 69, 64
2, 363840, Note_on_c, 0, 74, 92
2, 365760, Note_off_c, 0, 74, 64
2, 365880, Note_on_c, 0, 74, 92
2, 366000, Note_off_c, 0, 74, 64
2, 366000, Note_on_c, 0, 69, 92
2, 366120, Note_off_c, 0, 69, 64
2, 366120, Note_on_c, 0, 72, 92
2, 366240, Note_off_c, 0, 72, 64
2, 366240, Note_on_c, 0, 71, 92
2, 366360, Note_off_c, 0, 71, 64
2, 366360, Note_on_c, 0, 74, 92
2, 366480, Note_off_c, 0, 74, 64
2, 366480, Note_on_c, 0, 66, 92
2, 366600, Note_off_c, 0, 66, 64
2, 366600, Note_on_c, 0, 69, 92
2, 366720, Note_off_c, 0, 69, 64
2, 366720, Note_on_c, 0, 67, 92
2, 366840, Note_off_c, 0, 67, 64
2, 366840, Note_on_c, 0, 71, 92
2, 366960, Note_off_c, 0, 71, 64
2, 366960, Note_on_c, 0, 69, 92
2, 367080, Note_off_c, 0, 69, 64
2, 367080, Note_on_c, 0, 67, 92
2, 367200, Note_off_c, 0, 67, 64
2, 367200, Note_on_c, 0, 66, 92
2, 367320, Note_off_c, 0, 66, 64
2, 367320, Note_on_c, 0, 62, 92
2, 367440, Note_off_c, 0, 62, 64
2, 367440, Note_on_c, 0, 66, 92
2, 367560, Note_off_c, 0, 66, 64
2, 367560, Note_on_c, 0, 69, 92
2, 367680, Note_off_c, 0, 69, 64
2, 367680, Note_on_c, 0, 74, 92
2, 368280, Note_off_c, 0, 74, 64
2, 368280, Note_on_c, 0, 72, 92
2, 368400, Note_off_c, 0, 72, 64
2, 368400, Note_on_c, 0, 71, 92
2, 368520, Note_off_c, 0, 71, 64
2, 368520, Note_on_c, 0, 74, 92
2, 368640, Note_off_c, 0, 74, 64
2, 368640, Note_on_c, 0, 72, 92
2, 369240, Note_off_c, 0, 72, 64
2, 369240, Note_on_c, 0, 62, 92
2, 369360, Note_off_c, 0, 62, 64
2, 369360, Note_on_c, 0, 66, 92
2, 369480, Note_off_c, 0, 66, 64
2, 369480, Note_on_c, 0, 69, 92
2, 369600, Note_off_c, 0, 69, 64
2, 369600, Note_on_c, 0, 71, 92
2, 370200, Note_off_c, 0, 71, 64
2, 370200, Note_on_c, 0, 69, 92
2, 370320, Note_off_c, 0, 69, 64
2, 370320, Note_on_c, 0, 67, 92
2, 370440, Note_off_c, 0, 67, 64
2, 370440, Note_on_c, 0, 71, 92
2, 370560, Note_off_c, 0, 71, 64
2, 370560, Note_on_c, 0, 69, 92
2, 371160, Note_off_c, 0, 69, 64
2, 371160, Note_on_c, 0, 67, 92
2, 371280, Note_off_c, 0, 67, 64
2, 371280, Note_on_c, 0, 66, 92
2, 371400, Note_off_c, 0, 66, 64
2, 371400, Note_on_c, 0, 69, 92
2, 371520, Note_off_c, 0, 69, 64
2, 371520, Note_on_c, 0, 67, 92
2, 372480, Note_off_c, 0, 67, 64
2, 372480, Note_on_c, 0, 66, 92
2, 372510, Note_off_c, 0, 66, 64
2, 372510, Note_on_c, 0, 67, 92
2, 372540, Note_off_c, 0, 67, 64
2, 372540, Note_on_c, 0, 66, 92
2, 372960, Note_off_c, 0, 66, 64
2, 372960, Note_on_c, 0, 67, 92
2, 373200, Note_off_c, 0, 67, 64
2, 373200, Note_on_c, 0, 74, 92
2, 373440, Note_off_c, 0, 74, 64
2, 373440, Note_on_c, 0, 71, 92
2, 373680, Note_off_c, 0, 71, 64
2, 373680, Note_on_c, 0, 76, 92
2, 373920, Note_off_c, 0, 76, 64
2, 373920, Note_on_c, 0, 73, 92
2, 374160, Note_off_c, 0, 73, 64
2, 374160, Note_on_c, 0, 69, 92
2, 374400, Note_off_c, 0, 69, 64
2, 374400, Note_on_c, 0, 74, 92
2, 375000, Note_off_c, 0, 74, 64
2, 375000, Note_on_c, 0, 79, 92
2, 375120, Note_off_c, 0, 79, 64
2, 375120, Note_on_c, 0, 81, 92
2, 375240, Note_off_c, 0, 81, 64
2, 375240, Note_on_c, 0, 82, 92
2, 375360, Note_off_c, 0, 82, 64
2, 375360, Note_on_c, 0, 73, 92
2, 375480, Note_off_c, 0, 73, 64
2, 375480, Note_on_c, 0, 82, 92
2, 375600, Note_off_c, 0, 82, 64
2, 375600, Note_on_c, 0, 81, 92
2, 375720, Note_off_c, 0, 81, 64
2, 375720, Note_on_c, 0, 79, 92
2, 375840, Note_off_c, 0, 79, 64
2, 375840, Note_on_c, 0, 77, 92
2, 375960, Note_off_c, 0, 77, 64
2, 375960, Note_on_c, 0, 79, 92
2, 376080, Note_off_c, 0, 79, 64
2, 376080, Note_on_c, 0, 77, 92
2, 376200, Note_off_c, 0, 77, 64
2, 376200, Note_on_c, 0, 76, 92
2, 376320, Note_off_c, 0, 76, 64
2, 376320, Note_on_c, 0, 74, 92
2, 376440, Note_off_c, 0, 74, 64
2, 376440, Note_on_c, 0, 76, 92
2, 376560, Note_off_c, 0, 76, 64
2, 376560, Note_on_c, 0, 77, 92
2, 376680, Note_off_c, 0, 77, 64
2, 376680, Note_on_c, 0, 74, 92
2, 376800, Note_off_c, 0, 74, 64
2, 376800, Note_on_c, 0, 76, 92
2, 376920, Note_off_c, 0, 76, 64
2, 376920, Note_on_c, 0, 77, 92
2, 377040, Note_off_c, 0, 77, 64
2, 377040, Note_on_c, 0, 76, 92
2, 377160, Note_off_c, 0, 76, 64
2, 377160, Note_on_c, 0, 74, 92
2, 377280, Note_off_c, 0, 74, 64
2, 377280, Note_on_c, 0, 72, 92
2, 377400, Note_off_c, 0, 72, 64
2, 377400, Note_on_c, 0, 74, 92
2, 377520, Note_off_c, 0, 74, 64
2, 377520, Note_on_c, 0, 76, 92
2, 377640, Note_off_c, 0, 76, 64
2, 377640, Note_on_c, 0, 72, 92
2, 377760, Note_off_c, 0, 72, 64
2, 377760, Note_on_c, 0, 74, 92
2, 378000, Note_off_c, 0, 74, 64
2, 378000, Note_on_c, 0, 71, 92
2, 378240, Note_off_c, 0, 71, 64
2, 378240, Note_on_c, 0, 83, 92
2, 378960, Note_off_c, 0, 83, 64
2, 378960, Note_on_c, 0, 81, 92
2, 379080, Note_off_c, 0, 81, 64
2, 379080, Note_on_c, 0, 80, 92
2, 379200, Note_off_c, 0, 80, 64
2, 379200, Note_on_c, 0, 81, 92
2, 379920, Note_off_c, 0, 81, 64
2, 379920, Note_on_c, 0, 79, 92
2, 380040, Note_off_c, 0, 79, 64
2, 380040, Note_on_c, 0, 78, 92
2, 380160, Note_off_c, 0, 78, 64
2, 380160, Note_on_c, 0, 79, 92
2, 380280, Note_off_c, 0, 79, 64
2, 380280, Note_on_c, 0, 78, 92
2, 380400, Note_off_c, 0, 78, 64
2, 380400, Note_on_c, 0, 76, 92
2, 380520, Note_off_c, 0, 76, 64
2, 380520, Note_on_c, 0, 74, 92
2, 380640, Note_off_c, 0, 74, 64
2, 380640, Note_on_c, 0, 72, 92
2, 380760, Note_off_c, 0, 72, 64
2, 380760, Note_on_c, 0, 71, 92
2, 380880, Note_off_c, 0, 71, 64
2, 380880, Note_on_c, 0, 69, 92
2, 381000, Note_off_c, 0, 69, 64
2, 381000, Note_on_c, 0, 67, 92
2, 381120, Note_off_c, 0, 67, 64
2, 381120, Note_on_c, 0, 66, 92
2, 381240, Note_off_c, 0, 66, 64
2, 381240, Note_on_c, 0, 64, 92
2, 381360, Note_off_c, 0, 64, 64
2, 381360, Note_on_c, 0, 63, 92
2, 381480, Note_off_c, 0, 63, 64
2, 381480, Note_on_c, 0, 61, 92
2, 381600, Note_off_c, 0, 61, 64
2, 381600, Note_on_c, 0, 59, 92
2, 381840, Note_off_c, 0, 59, 64
2, 382800, Note_on_c, 0, 78, 92
2, 383040, Note_off_c, 0, 78, 64
2, 383040, Note_on_c, 0, 74, 92
2, 383280, Note_off_c, 0, 74, 64
2, 383280, Note_on_c, 0, 79, 92
2, 383520, Note_off_c, 0, 79, 64
2, 383520, Note_on_c, 0, 76, 92
2, 383760, Note_off_c, 0, 76, 64
2, 383760, Note_on_c, 0, 73, 92
2, 384000, Note_off_c, 0, 73, 64
2, 384000, Note_on_c, 0, 78, 92
2, 384240, Note_off_c, 0, 78, 64
2, 384240, Note_on_c, 0, 81, 92
2, 384480, Note_off_c, 0, 81, 64
2, 384480, Note_on_c, 0, 75, 92
2, 384720, Note_off_c, 0, 75, 64
2, 384720, Note_on_c, 0, 71, 92
2, 384960, Note_off_c, 0, 71, 64
2, 384960, Note_on_c, 0, 76, 92
2, 385680, Note_off_c, 0, 76, 64
2, 385680, Note_on_c, 0, 74, 92
2, 385800, Note_off_c, 0, 74, 64
2, 385800, Note_on_c, 0, 72, 92
2, 385920, Note_off_c, 0, 72, 64
2, 385920, Note_on_c, 0, 74, 92
2, 386520, Note_off_c, 0, 74, 64
2, 386520, Note_on_c, 0, 71, 92
2, 386640, Note_off_c, 0, 71, 64
2, 386640, Note_on_c, 0, 68, 92
2, 386760, Note_off_c, 0, 68, 64
2, 386760, Note_on_c, 0, 71, 92
2, 386880, Note_off_c, 0, 71, 64
2, 386880, Note_on_c, 0, 72, 92
2, 387000, Note_off_c, 0, 72, 64
2, 387000, Note_on_c, 0, 76, 92
2, 387120, Note_off_c, 0, 76, 64
2, 387120, Note_on_c, 0, 69, 92
2, 387240, Note_off_c, 0, 69, 64
2, 387240, Note_on_c, 0, 72, 92
2, 387360, Note_off_c, 0, 72, 64
2, 387360, Note_on_c, 0, 77, 92
2, 387480, Note_off_c, 0, 77, 64
2, 387480, Note_on_c, 0, 74, 92
2, 387600, Note_off_c, 0, 74, 64
2, 387600, Note_on_c, 0, 76, 92
2, 387720, Note_off_c, 0, 76, 64
2, 387720, Note_on_c, 0, 77, 92
2, 387840, Note_off_c, 0, 77, 64
2, 387840, Note_on_c, 0, 76, 92
2, 387960, Note_off_c, 0, 76, 64
2, 387960, Note_on_c, 0, 74, 92
2, 388080, Note_off_c, 0, 74, 64
2, 388080, Note_on_c, 0, 73, 92
2, 388200, Note_off_c, 0, 73, 64
2, 388200, Note_on_c, 0, 71, 92
2, 388320, Note_off_c, 0, 71, 64
2, 388320, Note_on_c, 0, 69, 92
2, 388560, Note_off_c, 0, 69, 64
2, 388560, Note_on_c, 0, 81, 92
2, 388800, Note_off_c, 0, 81, 64
2, 388800, Note_on_c, 0, 77, 92
2, 389040, Note_off_c, 0, 77, 64
2, 389040, Note_on_c, 0, 82, 92
2, 389280, Note_off_c, 0, 82, 64
2, 389280, Note_on_c, 0, 79, 92
2, 389520, Note_off_c, 0, 79, 64
2, 389520, Note_on_c, 0, 76, 92
2, 389760, Note_off_c, 0, 76, 64
2, 389760, Note_on_c, 0, 81, 92
2, 390360, Note_off_c, 0, 81, 64
2, 390360, Note_on_c, 0, 74, 92
2, 390480, Note_off_c, 0, 74, 64
2, 390480, Note_on_c, 0, 76, 92
2, 390600, Note_off_c, 0, 76, 64
2, 390600, Note_on_c, 0, 77, 92
2, 390720, Note_off_c, 0, 77, 64
2, 390720, Note_on_c, 0, 79, 92
2, 390960, Note_off_c, 0, 79, 64
2, 390960, Note_on_c, 0, 70, 92
2, 391200, Note_off_c, 0, 70, 64
2, 391200, Note_on_c, 0, 69, 92
2, 391440, Note_off_c, 0, 69, 64
2, 391440, Note_on_c, 0, 79, 92
2, 391680, Note_off_c, 0, 79, 64
2, 391680, Note_on_c, 0, 77, 92
2, 391710, Note_off_c, 0, 77, 64
2, 391710, Note_on_c, 0, 79, 92
2, 391740, Note_off_c, 0, 79, 64
2, 391740, Note_on_c, 0, 77, 92
2, 391800, Note_off_c, 0, 77, 64
2, 391800, Note_on_c, 0, 76, 92
2, 391920, Note_off_c, 0, 76, 64
2, 391920, Note_on_c, 0, 77, 92
2, 392040, Note_off_c, 0, 77, 64
2, 392040, Note_on_c, 0, 79, 92
2, 392160, Note_off_c, 0, 79, 64
2, 392160, Note_on_c, 0, 76, 92
2, 392280, Note_off_c, 0, 76, 64
2, 392280, Note_on_c, 0, 74, 92
2, 392400, Note_off_c, 0, 74, 64
2, 392400, Note_on_c, 0, 76, 92
2, 392520, Note_off_c, 0, 76, 64
2, 392520, Note_on_c, 0, 77, 92
2, 392640, Note_off_c, 0, 77, 64
2, 392640, Note_on_c, 0, 76, 92
2, 392760, Note_off_c, 0, 76, 64
2, 392760, Note_on_c, 0, 74, 92
2, 392880, Note_off_c, 0, 74, 64
2, 392880, Note_on_c, 0, 73, 92
2, 393000, Note_off_c, 0, 73, 64
2, 393000, Note_on_c, 0, 74, 92
2, 393120, Note_off_c, 0, 74, 64
2, 393120, Note_on_c, 0, 82, 92
2, 393240, Note_off_c, 0, 82, 64
2, 393240, Note_on_c, 0, 73, 92
2, 393360, Note_off_c, 0, 73, 64
2, 393360, Note_on_c, 0, 74, 92
2, 393480, Note_off_c, 0, 74, 64
2, 393480, Note_on_c, 0, 76, 92
2, 393600, Note_off_c, 0, 76, 64
2, 393600, Note_on_c, 0, 74, 92
2, 393720, Note_off_c, 0, 74, 64
2, 393720, Note_on_c, 0, 73, 92
2, 393840, Note_off_c, 0, 73, 64
2, 393840, Note_on_c, 0, 71, 92
2, 393960, Note_off_c, 0, 71, 64
2, 393960, Note_on_c, 0, 73, 92
2, 394080, Note_off_c, 0, 73, 64
2, 394080, Note_on_c, 0, 74, 92
2, 394200, Note_off_c, 0, 74, 64
2, 394200, Note_on_c, 0, 72, 92
2, 394320, Note_off_c, 0, 72, 64
2, 394320, Note_on_c, 0, 70, 92
2, 394440, Note_off_c, 0, 70, 64
2, 394440, Note_on_c, 0, 69, 92
2, 394560, Note_off_c, 0, 69, 64
2, 394560, Note_on_c, 0, 70, 92
2, 394680, Note_off_c, 0, 70, 64
2, 394680, Note_on_c, 0, 74, 92
2, 394800, Note_off_c, 0, 74, 64
2, 394800, Note_on_c, 0, 79, 92
2, 394920, Note_off_c, 0, 79, 64
2, 394920, Note_on_c, 0, 76, 92
2, 395040, Note_off_c, 0, 76, 64
2, 395040, Note_on_c, 0, 74, 92
2, 395160, Note_off_c, 0, 74, 64
2, 395160, Note_on_c, 0, 73, 92
2, 395280, Note_off_c, 0, 73, 64
2, 395280, Note_on_c, 0, 71, 92
2, 395400, Note_off_c, 0, 71, 64
2, 395400, Note_on_c, 0, 69, 92
2, 395520, Note_off_c, 0, 69, 64
2, 395520, Note_on_c, 0, 81, 92
2, 395760, Note_off_c, 0, 81, 64
2, 395760, Note_on_c, 0, 74, 92
2, 396120, Note_off_c, 0, 74, 64
2, 396120, Note_on_c, 0, 73, 92
2, 396240, Note_off_c, 0, 73, 64
2, 396240, Note_on_c, 0, 71, 92
2, 396360, Note_off_c, 0, 71, 64
2, 396360, Note_on_c, 0, 73, 92
2, 396480, Note_off_c, 0, 73, 64
2, 396480, Note_on_c, 0, 74, 92
2, 396600, Note_off_c, 0, 74, 64
2, 396600, Note_on_c, 0, 69, 92
2, 396720, Note_off_c, 0, 69, 64
2, 396720, Note_on_c, 0, 74, 92
2, 397200, Note_off_c, 0, 74, 64
2, 397200, Note_on_c, 0, 72, 92
2, 397320, Note_off_c, 0, 72, 64
2, 397320, Note_on_c, 0, 71, 92
2, 397440, Note_off_c, 0, 71, 64
2, 397440, Note_on_c, 0, 72, 92
2, 398400, Note_off_c, 0, 72, 64
2, 398400, Note_on_c, 0, 70, 92
2, 399120, Note_off_c, 0, 70, 64
2, 399120, Note_on_c, 0, 69, 92
2, 399240, Note_off_c, 0, 69, 64
2, 399240, Note_on_c, 0, 67, 92
2, 399360, Note_off_c, 0, 67, 64
2, 399360, Note_on_c, 0, 69, 92
2, 400320, Note_off_c, 0, 69, 64
2, 400320, Note_on_c, 0, 67, 92
2, 400920, Note_off_c, 0, 67, 64
2, 400920, Note_on_c, 0, 64, 92
2, 401040, Note_off_c, 0, 64, 64
2, 401040, Note_on_c, 0, 65, 92
2, 401160, Note_off_c, 0, 65, 64
2, 401160, Note_on_c, 0, 67, 92
2, 401280, Note_off_c, 0, 67, 64
2, 401280, Note_on_c, 0, 65, 92
2, 401400, Note_off_c, 0, 65, 64
2, 401400, Note_on_c, 0, 69, 92
2, 401520, Note_off_c, 0, 69, 64
2, 401520, Note_on_c, 0, 65, 92
2, 401640, Note_off_c, 0, 65, 64
2, 401640, Note_on_c, 0, 62, 92
2, 401760, Note_off_c, 0, 62, 64
2, 401760, Note_on_c, 0, 64, 92
2, 401880, Note_off_c, 0, 64, 64
2, 401880, Note_on_c, 0, 62, 92
2, 402000, Note_off_c, 0, 62, 64
2, 402000, Note_on_c, 0, 64, 92
2, 402120, Note_off_c, 0, 64, 64
2, 402120, Note_on_c, 0, 65, 92
2, 402240, Note_off_c, 0, 65, 64
2, 402240, Note_on_c, 0, 64, 92
2, 402360, Note_off_c, 0, 64, 64
2, 402360, Note_on_c, 0, 67, 92
2, 402480, Note_off_c, 0, 67, 64
2, 402480, Note_on_c, 0, 64, 92
2, 402600, Note_off_c, 0, 64, 64
2, 402600, Note_on_c, 0, 61, 92
2, 402720, Note_off_c, 0, 61, 64
2, 402720, Note_on_c, 0, 69, 92
2, 402960, Note_off_c, 0, 69, 64
2, 402960, Note_on_c, 0, 67, 92
2, 403080, Note_off_c, 0, 67, 64
2, 403080, Note_on_c, 0, 65, 92
2, 403200, Note_off_c, 0, 65, 64
2, 403200, Note_on_c, 0, 67, 92
2, 403320, Note_off_c, 0, 67, 64
2, 403320, Note_on_c, 0, 65, 92
2, 403440, Note_off_c, 0, 65, 64
2, 403440, Note_on_c, 0, 64, 92
2, 403560, Note_off_c, 0, 64, 64
2, 403560, Note_on_c, 0, 67, 92
2, 403680, Note_off_c, 0, 67, 64
2, 403680, Note_on_c, 0, 65, 92
2, 403800, Note_off_c, 0, 65, 64
2, 403800, Note_on_c, 0, 62, 92
2, 403920, Note_off_c, 0, 62, 64
2, 403920, Note_on_c, 0, 65, 92
2, 404040, Note_off_c, 0, 65, 64
2, 404040, Note_on_c, 0, 69, 92
2, 404160, Note_off_c, 0, 69, 64
2, 404160, Note_on_c, 0, 74, 92
2, 404760, Note_off_c, 0, 74, 64
2, 404760, Note_on_c, 0, 70, 92
2, 404880, Note_off_c, 0, 70, 64
2, 404880, Note_on_c, 0, 74, 92
2, 405000, Note_off_c, 0, 74, 64
2, 405000, Note_on_c, 0, 79, 92
2, 405120, Note_off_c, 0, 79, 64
2, 405120, Note_on_c, 0, 67, 92
2, 405240, Note_off_c, 0, 67, 64
2, 405240, Note_on_c, 0, 74, 92
2, 405360, Note_off_c, 0, 74, 64
2, 405360, Note_on_c, 0, 70, 92
2, 405480, Note_off_c, 0, 70, 64
2, 405480, Note_on_c, 0, 67, 92
2, 405600, Note_off_c, 0, 67, 64
2, 405600, Note_on_c, 0, 76, 92
2, 405720, Note_off_c, 0, 76, 64
2, 405720, Note_on_c, 0, 60, 92
2, 405840, Note_off_c, 0, 60, 64
2, 405840, Note_on_c, 0, 64, 92
2, 405960, Note_off_c, 0, 64, 64
2, 405960, Note_on_c, 0, 67, 92
2, 406080, Note_off_c, 0, 67, 64
2, 406080, Note_on_c, 0, 72, 92
2, 406680, Note_off_c, 0, 72, 64
2, 406680, Note_on_c, 0, 69, 92
2, 406800, Note_off_c, 0, 69, 64
2, 406800, Note_on_c, 0, 72, 92
2, 406920, Note_off_c, 0, 72, 64
2, 406920, Note_on_c, 0, 77, 92
2, 407040, Note_off_c, 0, 77, 64
2, 407040, Note_on_c, 0, 65, 92
2, 407160, Note_off_c, 0, 65, 64
2, 407160, Note_on_c, 0, 72, 92
2, 407280, Note_off_c, 0, 72, 64
2, 407280, Note_on_c, 0, 69, 92
2, 407400, Note_off_c, 0, 69, 64
2, 407400, Note_on_c, 0, 65, 92
2, 407520, Note_off_c, 0, 65, 64
2, 407520, Note_on_c, 0, 74, 92
2, 407640, Note_off_c, 0, 74, 64
2, 407640, Note_on_c, 0, 70, 92
2, 407760, Note_off_c, 0, 70, 64
2, 407760, Note_on_c, 0, 74, 92
2, 407880, Note_off_c, 0, 74, 64
2, 407880, Note_on_c, 0, 77, 92
2, 408000, Note_off_c, 0, 77, 64
2, 408000, Note_on_c, 0, 82, 92
2, 408600, Note_off_c, 0, 82, 64
2, 408600, Note_on_c, 0, 79, 92
2, 408720, Note_off_c, 0, 79, 64
2, 408720, Note_on_c, 0, 76, 92
2, 408840, Note_off_c, 0, 76, 64
2, 408840, Note_on_c, 0, 72, 92
2, 408960, Note_off_c, 0, 72, 64
2, 408960, Note_on_c, 0, 81, 92
2, 409320, Note_off_c, 0, 81, 64
2, 409320, Note_on_c, 0, 77, 92
2, 409440, Note_off_c, 0, 77, 64
2, 409440, Note_on_c, 0, 70, 92
2, 409560, Note_off_c, 0, 70, 64
2, 409560, Note_on_c, 0, 74, 92
2, 409680, Note_off_c, 0, 74, 64
2, 409680, Note_on_c, 0, 72, 92
2, 409800, Note_off_c, 0, 72, 64
2, 409800, Note_on_c, 0, 70, 92
2, 409920, Note_off_c, 0, 70, 64
2, 409920, Note_on_c, 0, 69, 92
2, 410160, Note_off_c, 0, 69, 64
2, 410160, Note_on_c, 0, 74, 92
2, 410400, Note_off_c, 0, 74, 64
2, 410400, Note_on_c, 0, 70, 92
2, 410640, Note_off_c, 0, 70, 64
2, 410640, Note_on_c, 0, 67, 92
2, 410880, Note_off_c, 0, 67, 64
2, 410880, Note_on_c, 0, 72, 92
2, 411480, Note_off_c, 0, 72, 64
2, 411480, Note_on_c, 0, 65, 92
2, 411600, Note_off_c, 0, 65, 64
2, 411600, Note_on_c, 0, 67, 92
2, 411720, Note_off_c, 0, 67, 64
2, 411720, Note_on_c, 0, 69, 92
2, 411840, Note_off_c, 0, 69, 64
2, 411840, Note_on_c, 0, 70, 92
2, 412080, Note_off_c, 0, 70, 64
2, 412080, Note_on_c, 0, 62, 92
2, 412320, Note_off_c, 0, 62, 64
2, 412320, Note_on_c, 0, 60, 92
2, 412560, Note_off_c, 0, 60, 64
2, 412560, Note_on_c, 0, 70, 92
2, 412800, Note_off_c, 0, 70, 64
2, 412800, Note_on_c, 0, 69, 92
2, 412920, Note_off_c, 0, 69, 64
2, 412920, Note_on_c, 0, 67, 92
2, 413040, Note_off_c, 0, 67, 64
2, 413040, Note_on_c, 0, 69, 92
2, 413160, Note_off_c, 0, 69, 64
2, 413160, Note_on_c, 0, 70, 92
2, 413280, Note_off_c, 0, 70, 64
2, 413280, Note_on_c, 0, 67, 92
2, 413520, Note_off_c, 0, 67, 64
2, 413520, Note_on_c, 0, 69, 92
2, 413640, Note_off_c, 0, 69, 64
2, 413640, Note_on_c, 0, 70, 92
2, 413760, Note_off_c, 0, 70, 64
2, 413760, Note_on_c, 0, 72, 92
2, 413880, Note_off_c, 0, 72, 64
2, 413880, Note_on_c, 0, 74, 92
2, 414000, Note_off_c, 0, 74, 64
2, 414000, Note_on_c, 0, 76, 92
2, 414120, Note_off_c, 0, 76, 64
2, 414120, Note_on_c, 0, 72, 92
2, 414240, Note_off_c, 0, 72, 64
2, 414240, Note_on_c, 0, 74, 92
2, 414360, Note_off_c, 0, 74, 64
2, 414360, Note_on_c, 0, 72, 92
2, 414480, Note_off_c, 0, 72, 64
2, 414480, Note_on_c, 0, 74, 92
2, 414600, Note_off_c, 0, 74, 64
2, 414600, Note_on_c, 0, 76, 92
2, 414720, Note_off_c, 0, 76, 64
2, 414720, Note_on_c, 0, 74, 92
2, 414840, Note_off_c, 0, 74, 64
2, 414840, Note_on_c, 0, 77, 92
2, 414960, Note_off_c, 0, 77, 64
2, 414960, Note_on_c, 0, 76, 92
2, 415080, Note_off_c, 0, 76, 64
2, 415080, Note_on_c, 0, 74, 92
2, 415200, Note_off_c, 0, 74, 64
2, 415200, Note_on_c, 0, 72, 92
2, 415800, Note_off_c, 0, 72, 64
2, 415800, Note_on_c, 0, 69, 92
2, 415920, Note_off_c, 0, 69, 64
2, 415920, Note_on_c, 0, 67, 92
2, 416040, Note_off_c, 0, 67, 64
2, 416040, Note_on_c, 0, 65, 92
2, 416160, Note_off_c, 0, 65, 64
2, 416160, Note_on_c, 0, 74, 92
2, 416280, Note_off_c, 0, 74, 64
2, 416280, Note_on_c, 0, 72, 92
2, 416400, Note_off_c, 0, 72, 64
2, 416400, Note_on_c, 0, 70, 92
2, 416520, Note_off_c, 0, 70, 64
2, 416520, Note_on_c, 0, 69, 92
2, 416640, Note_off_c, 0, 69, 64
2, 416640, Note_on_c, 0, 67, 92
2, 416760, Note_off_c, 0, 67, 64
2, 416760, Note_on_c, 0, 72, 92
2, 416880, Note_off_c, 0, 72, 64
2, 416880, Note_on_c, 0, 70, 92
2, 417000, Note_off_c, 0, 70, 64
2, 417000, Note_on_c, 0, 72, 92
2, 417120, Note_off_c, 0, 72, 64
2, 417120, Note_on_c, 0, 69, 92
2, 417360, Note_off_c, 0, 69, 64
2, 417360, Note_on_c, 0, 77, 92
2, 417600, Note_off_c, 0, 77, 64
2, 417600, Note_on_c, 0, 65, 92
2, 417840, Note_off_c, 0, 65, 64
2, 417840, Note_on_c, 0, 77, 92
2, 418080, Note_off_c, 0, 77, 64
2, 418080, Note_on_c, 0, 70, 92
2, 418320, Note_off_c, 0, 70, 64
2, 418320, Note_on_c, 0, 77, 92
2, 418560, Note_off_c, 0, 77, 64
2, 418560, Note_on_c, 0, 67, 92
2, 418800, Note_off_c, 0, 67, 64
2, 418800, Note_on_c, 0, 76, 92
2, 419040, Note_off_c, 0, 76, 64
2, 419040, Note_on_c, 0, 77, 92
2, 419160, Note_off_c, 0, 77, 64
2, 419160, Note_on_c, 0, 79, 92
2, 419280, Note_off_c, 0, 79, 64
2, 419280, Note_on_c, 0, 77, 92
2, 419400, Note_off_c, 0, 77, 64
2, 419400, Note_on_c, 0, 79, 92
2, 419520, Note_off_c, 0, 79, 64
2, 419520, Note_on_c, 0, 81, 92
2, 419640, Note_off_c, 0, 81, 64
2, 419640, Note_on_c, 0, 82, 92
2, 419760, Note_off_c, 0, 82, 64
2, 419760, Note_on_c, 0, 81, 92
2, 419880, Note_off_c, 0, 81, 64
2, 419880, Note_on_c, 0, 82, 92
2, 420000, Note_off_c, 0, 82, 64
2, 420000, Note_on_c, 0, 79, 92
2, 420120, Note_off_c, 0, 79, 64
2, 420120, Note_on_c, 0, 81, 92
2, 420240, Note_off_c, 0, 81, 64
2, 420240, Note_on_c, 0, 79, 92
2, 420360, Note_off_c, 0, 79, 64
2, 420360, Note_on_c, 0, 81, 92
2, 420480, Note_off_c, 0, 81, 64
2, 420480, Note_on_c, 0, 82, 92
2, 420600, Note_off_c, 0, 82, 64
2, 420600, Note_on_c, 0, 84, 92
2, 420720, Note_off_c, 0, 84, 64
2, 420720, Note_on_c, 0, 82, 92
2, 420840, Note_off_c, 0, 82, 64
2, 420840, Note_on_c, 0, 84, 92
2, 420960, Note_off_c, 0, 84, 64
2, 420960, Note_on_c, 0, 81, 92
2, 421200, Note_off_c, 0, 81, 64
2, 421200, Note_on_c, 0, 77, 92
2, 421440, Note_off_c, 0, 77, 64
2, 421440, Note_on_c, 0, 65, 92
2, 421680, Note_off_c, 0, 65, 64
2, 421680, Note_on_c, 0, 77, 92
2, 421920, Note_off_c, 0, 77, 64
2, 421920, Note_on_c, 0, 70, 92
2, 422160, Note_off_c, 0, 70, 64
2, 422160, Note_on_c, 0, 77, 92
2, 422400, Note_off_c, 0, 77, 64
2, 422400, Note_on_c, 0, 67, 92
2, 422640, Note_off_c, 0, 67, 64
2, 422640, Note_on_c, 0, 76, 92
2, 422880, Note_off_c, 0, 76, 64
2, 422880, Note_on_c, 0, 77, 92
2, 423120, Note_off_c, 0, 77, 64
2, 423120, Note_on_c, 0, 72, 92
2, 423360, Note_off_c, 0, 72, 64
2, 423360, Note_on_c, 0, 77, 92
2, 424320, Note_off_c, 0, 77, 64
2, 424320, Note_on_c, 0, 76, 92
2, 425280, Note_off_c, 0, 76, 64
2, 425280, Note_on_c, 0, 74, 92
2, 426240, Note_off_c, 0, 74, 64
2, 426240, Note_on_c, 0, 73, 92
2, 426480, Note_off_c, 0, 73, 64
2, 426480, Note_on_c, 0, 81, 92
2, 426720, Note_off_c, 0, 81, 64
2, 426720, Note_on_c, 0, 74, 92
2, 426840, Note_off_c, 0, 74, 64
2, 426840, Note_on_c, 0, 76, 92
2, 426960, Note_off_c, 0, 76, 64
2, 426960, Note_on_c, 0, 74, 92
2, 427080, Note_off_c, 0, 74, 64
2, 427080, Note_on_c, 0, 76, 92
2, 427200, Note_off_c, 0, 76, 64
2, 427200, Note_on_c, 0, 77, 92
2, 427320, Note_off_c, 0, 77, 64
2, 427320, Note_on_c, 0, 79, 92
2, 427440, Note_off_c, 0, 79, 64
2, 427440, Note_on_c, 0, 77, 92
2, 427560, Note_off_c, 0, 77, 64
2, 427560, Note_on_c, 0, 79, 92
2, 427680, Note_off_c, 0, 79, 64
2, 427680, Note_on_c, 0, 76, 92
2, 427800, Note_off_c, 0, 76, 64
2, 427800, Note_on_c, 0, 77, 92
2, 427920, Note_off_c, 0, 77, 64
2, 427920, Note_on_c, 0, 76, 92
2, 428040, Note_off_c, 0, 76, 64
2, 428040, Note_on_c, 0, 77, 92
2, 428160, Note_off_c, 0, 77, 64
2, 428160, Note_on_c, 0, 79, 92
2, 428280, Note_off_c, 0, 79, 64
2, 428280, Note_on_c, 0, 81, 92
2, 428400, Note_off_c, 0, 81, 64
2, 428400, Note_on_c, 0, 79, 92
2, 428520, Note_off_c, 0, 79, 64
2, 428520, Note_on_c, 0, 81, 92
2, 428640, Note_off_c, 0, 81, 64
2, 428640, Note_on_c, 0, 77, 92
2, 428760, Note_off_c, 0, 77, 64
2, 428760, Note_on_c, 0, 79, 92
2, 428880, Note_off_c, 0, 79, 64
2, 428880, Note_on_c, 0, 77, 92
2, 429000, Note_off_c, 0, 77, 64
2, 429000, Note_on_c, 0, 79, 92
2, 429120, Note_off_c, 0, 79, 64
2, 429120, Note_on_c, 0, 81, 92
2, 429240, Note_off_c, 0, 81, 64
2, 429240, Note_on_c, 0, 82, 92
2, 429360, Note_off_c, 0, 82, 64
2, 429360, Note_on_c, 0, 81, 92
2, 429480, Note_off_c, 0, 81, 64
2, 429480, Note_on_c, 0, 82, 92
2, 429600, Note_off_c, 0, 82, 64
2, 429600, Note_on_c, 0, 79, 92
2, 429720, Note_off_c, 0, 79, 64
2, 429720, Note_on_c, 0, 81, 92
2, 429840, Note_off_c, 0, 81, 64
2, 429840, Note_on_c, 0, 79, 92
2, 429960, Note_off_c, 0, 79, 64
2, 429960, Note_on_c, 0, 77, 92
2, 430080, Note_off_c, 0, 77, 64
2, 430080, Note_on_c, 0, 76, 92
2, 430800, Note_off_c, 0, 76, 64
2, 430800, Note_on_c, 0, 81, 92
2, 431040, Note_off_c, 0, 81, 64
2, 431040, Note_on_c, 0, 77, 92
2, 431280, Note_off_c, 0, 77, 64
2, 431280, Note_on_c, 0, 82, 92
2, 431520, Note_off_c, 0, 82, 64
2, 431520, Note_on_c, 0, 81, 92
2, 431760, Note_off_c, 0, 81, 64
2, 431760, Note_on_c, 0, 76, 92
2, 432000, Note_off_c, 0, 76, 64
2, 432000, Note_on_c, 0, 81, 92
2, 432600, Note_off_c, 0, 81, 64
2, 432600, Note_on_c, 0, 74, 92
2, 432720, Note_off_c, 0, 74, 64
2, 432720, Note_on_c, 0, 76, 92
2, 432840, Note_off_c, 0, 76, 64
2, 432840, Note_on_c, 0, 77, 92
2, 432960, Note_off_c, 0, 77, 64
2, 432960, Note_on_c, 0, 79, 92
2, 433200, Note_off_c, 0, 79, 64
2, 433200, Note_on_c, 0, 70, 92
2, 433440, Note_off_c, 0, 70, 64
2, 433440, Note_on_c, 0, 69, 92
2, 433680, Note_off_c, 0, 69, 64
2, 433680, Note_on_c, 0, 79, 92
2, 433920, Note_off_c, 0, 79, 64
2, 433920, Note_on_c, 0, 77, 92
2, 433950, Note_off_c, 0, 77, 64
2, 433950, Note_on_c, 0, 79, 92
2, 433980, Note_off_c, 0, 79, 64
2, 433980, Note_on_c, 0, 77, 92
2, 434040, Note_off_c, 0, 77, 64
2, 434040, Note_on_c, 0, 76, 92
2, 434160, Note_off_c, 0, 76, 64
2, 434160, Note_on_c, 0, 77, 92
2, 434280, Note_off_c, 0, 77, 64
2, 434280, Note_on_c, 0, 79, 92
2, 434400, Note_off_c, 0, 79, 64
2, 434400, Note_on_c, 0, 76, 92
2, 434640, Note_off_c, 0, 76, 64
2, 434640, Note_on_c, 0, 78, 92
2, 434760, Note_off_c, 0, 78, 64
2, 434760, Note_on_c, 0, 80, 92
2, 434880, Note_off_c, 0, 80, 64
2, 434880, Note_on_c, 0, 81, 92
2, 435000, Note_off_c, 0, 81, 64
2, 435000, Note_on_c, 0, 83, 92
2, 435120, Note_off_c, 0, 83, 64
2, 435120, Note_on_c, 0, 84, 92
2, 435240, Note_off_c, 0, 84, 64
2, 435240, Note_on_c, 0, 81, 92
2, 435360, Note_off_c, 0, 81, 64
2, 435360, Note_on_c, 0, 83, 92
2, 435480, Note_off_c, 0, 83, 64
2, 435480, Note_on_c, 0, 81, 92
2, 435600, Note_off_c, 0, 81, 64
2, 435600, Note_on_c, 0, 83, 92
2, 435720, Note_off_c, 0, 83, 64
2, 435720, Note_on_c, 0, 84, 92
2, 435840, Note_off_c, 0, 84, 64
2, 435840, Note_on_c, 0, 83, 92
2, 435960, Note_off_c, 0, 83, 64
2, 435960, Note_on_c, 0, 76, 92
2, 436080, Note_off_c, 0, 76, 64
2, 436080, Note_on_c, 0, 78, 92
2, 436200, Note_off_c, 0, 78, 64
2, 436200, Note_on_c, 0, 80, 92
2, 436320, Note_off_c, 0, 80, 64
2, 436320, Note_on_c, 0, 81, 92
2, 436920, Note_off_c, 0, 81, 64
2, 436920, Note_on_c, 0, 77, 92
2, 437040, Note_off_c, 0, 77, 64
2, 437040, Note_on_c, 0, 76, 92
2, 437160, Note_off_c, 0, 76, 64
2, 437160, Note_on_c, 0, 74, 92
2, 437280, Note_off_c, 0, 74, 64
2, 437280, Note_on_c, 0, 83, 92
2, 437400, Note_off_c, 0, 83, 64
2, 437400, Note_on_c, 0, 81, 92
2, 437520, Note_off_c, 0, 81, 64
2, 437520, Note_on_c, 0, 80, 92
2, 437640, Note_off_c, 0, 80, 64
2, 437640, Note_on_c, 0, 78, 92
2, 437760, Note_off_c, 0, 78, 64
2, 437760, Note_on_c, 0, 76, 92
2, 438000, Note_off_c, 0, 76, 64
2, 438000, Note_on_c, 0, 81, 92
2, 438360, Note_off_c, 0, 81, 64
2, 438360, Note_on_c, 0, 80, 92
2, 438480, Note_off_c, 0, 80, 64
2, 438480, Note_on_c, 0, 78, 92
2, 438600, Note_off_c, 0, 78, 64
2, 438600, Note_on_c, 0, 80, 92
2, 438720, Note_off_c, 0, 80, 64
2, 438720, Note_on_c, 0, 81, 92
2, 439680, Note_off_c, 0, 81, 64
2, 439680, Note_on_c, 0, 79, 92
2, 440640, Note_off_c, 0, 79, 64
2, 440760, Note_on_c, 0, 81, 92
2, 440880, Note_off_c, 0, 81, 64
2, 440880, Note_on_c, 0, 79, 92
2, 441000, Note_off_c, 0, 79, 64
2, 441000, Note_on_c, 0, 77, 92
2, 441120, Note_off_c, 0, 77, 64
2, 441120, Note_on_c, 0, 76, 92
2, 441240, Note_off_c, 0, 76, 64
2, 441240, Note_on_c, 0, 77, 92
2, 441360, Note_off_c, 0, 77, 64
2, 441360, Note_on_c, 0, 76, 92
2, 441480, Note_off_c, 0, 76, 64
2, 441480, Note_on_c, 0, 77, 92
2, 441600, Note_off_c, 0, 77, 64
2, 441600, Note_on_c, 0, 79, 92
2, 441720, Note_off_c, 0, 79, 64
2, 441720, Note_on_c, 0, 81, 92
2, 441840, Note_off_c, 0, 81, 64
2, 441840, Note_on_c, 0, 79, 92
2, 441960, Note_off_c, 0, 79, 64
2, 441960, Note_on_c, 0, 81, 92
2, 442080, Note_off_c, 0, 81, 64
2, 442080, Note_on_c, 0, 79, 92
2, 442200, Note_off_c, 0, 79, 64
2, 442200, Note_on_c, 0, 78, 92
2, 442320, Note_off_c, 0, 78, 64
2, 442320, Note_on_c, 0, 76, 92
2, 442440, Note_off_c, 0, 76, 64
2, 442440, Note_on_c, 0, 74, 92
2, 442560, Note_off_c, 0, 74, 64
2, 442560, Note_on_c, 0, 79, 92
2, 443520, Note_off_c, 0, 79, 64
2, 443520, Note_on_c, 0, 77, 92
2, 444480, Note_off_c, 0, 77, 64
2, 444600, Note_on_c, 0, 79, 92
2, 444720, Note_off_c, 0, 79, 64
2, 444720, Note_on_c, 0, 77, 92
2, 444840, Note_off_c, 0, 77, 64
2, 444840, Note_on_c, 0, 76, 92
2, 444960, Note_off_c, 0, 76, 64
2, 444960, Note_on_c, 0, 74, 92
2, 445080, Note_off_c, 0, 74, 64
2, 445080, Note_on_c, 0, 76, 92
2, 445200, Note_off_c, 0, 76, 64
2, 445200, Note_on_c, 0, 74, 92
2, 445320, Note_off_c, 0, 74, 64
2, 445320, Note_on_c, 0, 76, 92
2, 445440, Note_off_c, 0, 76, 64
2, 445440, Note_on_c, 0, 77, 92
2, 445560, Note_off_c, 0, 77, 64
2, 445560, Note_on_c, 0, 79, 92
2, 445680, Note_off_c, 0, 79, 64
2, 445680, Note_on_c, 0, 77, 92
2, 445800, Note_off_c, 0, 77, 64
2, 445800, Note_on_c, 0, 79, 92
2, 445920, Note_off_c, 0, 79, 64
2, 445920, Note_on_c, 0, 76, 92
2, 446400, Note_off_c, 0, 76, 64
2, 446640, Note_on_c, 0, 72, 92
2, 446880, Note_off_c, 0, 72, 64
2, 446880, Note_on_c, 0, 69, 92
2, 447120, Note_off_c, 0, 69, 64
2, 447120, Note_on_c, 0, 74, 92
2, 447360, Note_off_c, 0, 74, 64
2, 447360, Note_on_c, 0, 71, 92
2, 447600, Note_off_c, 0, 71, 64
2, 447600, Note_on_c, 0, 67, 92
2, 447840, Note_off_c, 0, 67, 64
2, 447840, Note_on_c, 0, 72, 92
2, 448440, Note_off_c, 0, 72, 64
2, 448440, Note_on_c, 0, 77, 92
2, 448560, Note_off_c, 0, 77, 64
2, 448560, Note_on_c, 0, 79, 92
2, 448680, Note_off_c, 0, 79, 64
2, 448680, Note_on_c, 0, 81, 92
2, 448800, Note_off_c, 0, 81, 64
2, 448800, Note_on_c, 0, 71, 92
2, 448920, Note_off_c, 0, 71, 64
2, 448920, Note_on_c, 0, 74, 92
2, 449040, Note_off_c, 0, 74, 64
2, 449040, Note_on_c, 0, 76, 92
2, 449160, Note_off_c, 0, 76, 64
2, 449160, Note_on_c, 0, 77, 92
2, 449280, Note_off_c, 0, 77, 64
2, 449280, Note_on_c, 0, 67, 92
2, 449400, Note_off_c, 0, 67, 64
2, 449400, Note_on_c, 0, 71, 92
2, 449520, Note_off_c, 0, 71, 64
2, 449520, Note_on_c, 0, 72, 92
2, 449640, Note_off_c, 0, 72, 64
2, 449640, Note_on_c, 0, 74, 92
2, 449760, Note_off_c, 0, 74, 64
2, 449760, Note_on_c, 0, 71, 92
2, 450240, Note_off_c, 0, 71, 64
2, 450360, Note_on_c, 0, 79, 92
2, 450480, Note_off_c, 0, 79, 64
2, 450480, Note_on_c, 0, 74, 92
2, 450600, Note_off_c, 0, 74, 64
2, 450600, Note_on_c, 0, 77, 92
2, 450720, Note_off_c, 0, 77, 64
2, 450720, Note_on_c, 0, 76, 92
2, 450840, Note_off_c, 0, 76, 64
2, 450840, Note_on_c, 0, 79, 92
2, 450960, Note_off_c, 0, 79, 64
2, 450960, Note_on_c, 0, 71, 92
2, 451080, Note_off_c, 0, 71, 64
2, 451080, Note_on_c, 0, 74, 92
2, 451200, Note_off_c, 0, 74, 64
2, 451200, Note_on_c, 0, 72, 92
2, 451320, Note_off_c, 0, 72, 64
2, 451320, Note_on_c, 0, 76, 92
2, 451440, Note_off_c, 0, 76, 64
2, 451440, Note_on_c, 0, 74, 92
2, 451560, Note_off_c, 0, 74, 64
2, 451560, Note_on_c, 0, 72, 92
2, 451680, Note_off_c, 0, 72, 64
2, 451680, Note_on_c, 0, 71, 92
2, 451800, Note_off_c, 0, 71, 64
2, 451800, Note_on_c, 0, 67, 92
2, 451920, Note_off_c, 0, 67, 64
2, 451920, Note_on_c, 0, 71, 92
2, 452040, Note_off_c, 0, 71, 64
2, 452040, Note_on_c, 0, 74, 92
2, 452160, Note_off_c, 0, 74, 64
2, 452160, Note_on_c, 0, 79, 92
2, 454080, Note_off_c, 0, 79, 64
2, 454200, Note_on_c, 0, 76, 92
2, 454320, Note_off_c, 0, 76, 64
2, 454320, Note_on_c, 0, 71, 92
2, 454440, Note_off_c, 0, 71, 64
2, 454440, Note_on_c, 0, 74, 92
2, 454560, Note_off_c, 0, 74, 64
2, 454560, Note_on_c, 0, 72, 92
2, 454800, Note_off_c, 0, 72, 64
2, 454800, Note_on_c, 0, 81, 92
2, 455040, Note_off_c, 0, 81, 64
2, 455160, Note_on_c, 0, 74, 92
2, 455280, Note_off_c, 0, 74, 64
2, 455280, Note_on_c, 0, 69, 92
2, 455400, Note_off_c, 0, 69, 64
2, 455400, Note_on_c, 0, 72, 92
2, 455520, Note_off_c, 0, 72, 64
2, 455520, Note_on_c, 0, 71, 92
2, 455760, Note_off_c, 0, 71, 64
2, 455760, Note_on_c, 0, 79, 92
2, 456000, Note_off_c, 0, 79, 64
2, 456120, Note_on_c, 0, 72, 92
2, 456240, Note_off_c, 0, 72, 64
2, 456240, Note_on_c, 0, 67, 92
2, 456360, Note_off_c, 0, 67, 64
2, 456360, Note_on_c, 0, 70, 92
2, 456480, Note_off_c, 0, 70, 64
2, 456480, Note_on_c, 0, 69, 92
2, 456720, Note_off_c, 0, 69, 64
2, 456720, Note_on_c, 0, 81, 92
2, 456840, Note_off_c, 0, 81, 64
2, 456840, Note_on_c, 0, 79, 92
2, 456960, Note_off_c, 0, 79, 64
2, 456960, Note_on_c, 0, 77, 92
2, 457080, Note_off_c, 0, 77, 64
2, 457080, Note_on_c, 0, 76, 92
2, 457200, Note_off_c, 0, 76, 64
2, 457200, Note_on_c, 0, 74, 92
2, 457320, Note_off_c, 0, 74, 64
2, 457320, Note_on_c, 0, 72, 92
2, 457440, Note_off_c, 0, 72, 64
2, 457440, Note_on_c, 0, 71, 92
2, 457680, Note_off_c, 0, 71, 64
2, 457680, Note_on_c, 0, 67, 92
2, 457920, Note_off_c, 0, 67, 64
2, 457920, Note_on_c, 0, 72, 92
2, 458880, Note_off_c, 0, 72, 64
2, 458880, Note_on_c, 0, 71, 92
2, 459360, Note_off_c, 0, 71, 64
2, 459360, Note_on_c, 0, 72, 92
2, 460320, Note_off_c, 0, 72, 64
2, 460320, End_track
3, 0, Start_track
3, 0, Title_t, "Track 2"
3, 1680, Note_on_c, 0, 64, 97
3, 1920, Note_off_c, 0, 64, 64
3, 1920, Note_on_c, 0, 60, 97
3, 2160, Note_off_c, 0, 60, 64
3, 2160, Note_on_c, 0, 64, 97
3, 2400, Note_off_c, 0, 64, 64
3, 2400, Note_on_c, 0, 65, 97
3, 2640, Note_off_c, 0, 65, 64
3, 2640, Note_on_c, 0, 64, 97
3, 2760, Note_off_c, 0, 64, 64
3, 2760, Note_on_c, 0, 62, 97
3, 2880, Note_off_c, 0, 62, 64
3, 2880, Note_on_c, 0, 64, 97
3, 3000, Note_off_c, 0, 64, 64
3, 3000, Note_on_c, 0, 60, 97
3, 3120, Note_off_c, 0, 60, 64
3, 3120, Note_on_c, 0, 59, 97
3, 3240, Note_off_c, 0, 59, 64
3, 3240, Note_on_c, 0, 60, 97
3, 3360, Note_off_c, 0, 60, 64
3, 3360, Note_on_c, 0, 64, 97
3, 3480, Note_off_c, 0, 64, 64
3, 3480, Note_on_c, 0, 60, 97
3, 3600, Note_off_c, 0, 60, 64
3, 3600, Note_on_c, 0, 59, 97
3, 3720, Note_off_c, 0, 59, 64
3, 3720, Note_on_c, 0, 60, 97
3, 3840, Note_off_c, 0, 60, 64
3, 3840, Note_on_c, 0, 55, 97
3, 3960, Note_off_c, 0, 55, 64
3, 3960, Note_on_c, 0, 60, 97
3, 4080, Note_off_c, 0, 60, 64
3, 4080, Note_on_c, 0, 52, 97
3, 4200, Note_off_c, 0, 52, 64
3, 4200, Note_on_c, 0, 55, 97
3, 4320, Note_off_c, 0, 55, 64
3, 4320, Note_on_c, 0, 48, 97
3, 4560, Note_off_c, 0, 48, 64
3, 4560, Note_on_c, 0, 67, 97
3, 4800, Note_off_c, 0, 67, 64
3, 4800, Note_on_c, 0, 64, 97
3, 5040, Note_off_c, 0, 64, 64
3, 5040, Note_on_c, 0, 67, 97
3, 5280, Note_off_c, 0, 67, 64
3, 5280, Note_on_c, 0, 69, 97
3, 5520, Note_off_c, 0, 69, 64
3, 5520, Note_on_c, 0, 67, 97
3, 5640, Note_off_c, 0, 67, 64
3, 5640, Note_on_c, 0, 65, 97
3, 5760, Note_off_c, 0, 65, 64
3, 5760, Note_on_c, 0, 67, 97
3, 5880, Note_off_c, 0, 67, 64
3, 5880, Note_on_c, 0, 64, 97
3, 6000, Note_off_c, 0, 64, 64
3, 6000, Note_on_c, 0, 60, 97
3, 6120, Note_off_c, 0, 60, 64
3, 6120, Note_on_c, 0, 64, 97
3, 6240, Note_off_c, 0, 64, 64
3, 6240, Note_on_c, 0, 69, 97
3, 6360, Note_off_c, 0, 69, 64
3, 6360, Note_on_c, 0, 64, 97
3, 6480, Note_off_c, 0, 64, 64
3, 6480, Note_on_c, 0, 60, 97
3, 6600, Note_off_c, 0, 60, 64
3, 6600, Note_on_c, 0, 64, 97
3, 6720, Note_off_c, 0, 64, 64
3, 6720, Note_on_c, 0, 72, 97
3, 7320, Note_off_c, 0, 72, 64
3, 7320, Note_on_c, 0, 65, 97
3, 7440, Note_off_c, 0, 65, 64
3, 7440, Note_on_c, 0, 62, 97
3, 7560, Note_off_c, 0, 62, 64
3, 7560, Note_on_c, 0, 65, 97
3, 7680, Note_off_c, 0, 65, 64
3, 7680, Note_on_c, 0, 71, 97
3, 7800, Note_off_c, 0, 71, 64
3, 7800, Note_on_c, 0, 65, 97
3, 7920, Note_off_c, 0, 65, 64
3, 7920, Note_on_c, 0, 62, 97
3, 8040, Note_off_c, 0, 62, 64
3, 8040, Note_on_c, 0, 65, 97
3, 8160, Note_off_c, 0, 65, 64
3, 8160, Note_on_c, 0, 74, 97
3, 8760, Note_off_c, 0, 74, 64
3, 8760, Note_on_c, 0, 67, 97
3, 8880, Note_off_c, 0, 67, 64
3, 8880, Note_on_c, 0, 64, 97
3, 9000, Note_off_c, 0, 64, 64
3, 9000, Note_on_c, 0, 67, 97
3, 9120, Note_off_c, 0, 67, 64
3, 9120, Note_on_c, 0, 72, 97
3, 9240, Note_off_c, 0, 72, 64
3, 9240, Note_on_c, 0, 67, 97
3, 9360, Note_off_c, 0, 67, 64
3, 9360, Note_on_c, 0, 64, 97
3, 9480, Note_off_c, 0, 64, 64
3, 9480, Note_on_c, 0, 67, 97
3, 9600, Note_off_c, 0, 67, 64
3, 9600, Note_on_c, 0, 76, 97
3, 10320, Note_off_c, 0, 76, 64
3, 10320, Note_on_c, 0, 74, 97
3, 10440, Note_off_c, 0, 74, 64
3, 10440, Note_on_c, 0, 72, 97
3, 10560, Note_off_c, 0, 72, 64
3, 10560, Note_on_c, 0, 74, 97
3, 10800, Note_off_c, 0, 74, 64
3, 10800, Note_on_c, 0, 69, 97
3, 11040, Note_off_c, 0, 69, 64
3, 11040, Note_on_c, 0, 77, 97
3, 11760, Note_off_c, 0, 77, 64
3, 11760, Note_on_c, 0, 74, 97
3, 12000, Note_off_c, 0, 74, 64
3, 12000, Note_on_c, 0, 71, 97
3, 12240, Note_off_c, 0, 71, 64
3, 12240, Note_on_c, 0, 74, 97
3, 12480, Note_off_c, 0, 74, 64
3, 12480, Note_on_c, 0, 67, 97
3, 12720, Note_off_c, 0, 67, 64
3, 12720, Note_on_c, 0, 71, 97
3, 12960, Note_off_c, 0, 71, 64
3, 12960, Note_on_c, 0, 72, 97
3, 13080, Note_off_c, 0, 72, 64
3, 13080, Note_on_c, 0, 74, 97
3, 13200, Note_off_c, 0, 74, 64
3, 13200, Note_on_c, 0, 75, 97
3, 13320, Note_off_c, 0, 75, 64
3, 13320, Note_on_c, 0, 77, 97
3, 13440, Note_off_c, 0, 77, 64
3, 13440, Note_on_c, 0, 75, 97
3, 13560, Note_off_c, 0, 75, 64
3, 13560, Note_on_c, 0, 74, 97
3, 13680, Note_off_c, 0, 74, 64
3, 13680, Note_on_c, 0, 72, 97
3, 13800, Note_off_c, 0, 72, 64
3, 13800, Note_on_c, 0, 70, 97
3, 13920, Note_off_c, 0, 70, 64
3, 13920, Note_on_c, 0, 69, 97
3, 14040, Note_off_c, 0, 69, 64
3, 14040, Note_on_c, 0, 67, 97
3, 14160, Note_off_c, 0, 67, 64
3, 14160, Note_on_c, 0, 66, 97
3, 14280, Note_off_c, 0, 66, 64
3, 14280, Note_on_c, 0, 64, 97
3, 14400, Note_off_c, 0, 64, 64
3, 14400, Note_on_c, 0, 66, 97
3, 14640, Note_off_c, 0, 66, 64
3, 14640, Note_on_c, 0, 60, 97
3, 14880, Note_off_c, 0, 60, 64
3, 14880, Note_on_c, 0, 69, 97
3, 15120, Note_off_c, 0, 69, 64
3, 15120, Note_on_c, 0, 66, 97
3, 15360, Note_off_c, 0, 66, 64
3, 15360, Note_on_c, 0, 72, 97
3, 15960, Note_off_c, 0, 72, 64
3, 15960, Note_on_c, 0, 71, 97
3, 16080, Note_off_c, 0, 71, 64
3, 16080, Note_on_c, 0, 69, 97
3, 16200, Note_off_c, 0, 69, 64
3, 16200, Note_on_c, 0, 71, 97
3, 16320, Note_off_c, 0, 71, 64
3, 16320, Note_on_c, 0, 67, 97
3, 16440, Note_off_c, 0, 67, 64
3, 16440, Note_on_c, 0, 76, 97
3, 16560, Note_off_c, 0, 76, 64
3, 16560, Note_on_c, 0, 74, 97
3, 16680, Note_off_c, 0, 74, 64
3, 16680, Note_on_c, 0, 72, 97
3, 16800, Note_off_c, 0, 72, 64
3, 16800, Note_on_c, 0, 71, 97
3, 16920, Note_off_c, 0, 71, 64
3, 16920, Note_on_c, 0, 69, 97
3, 17040, Note_off_c, 0, 69, 64
3, 17040, Note_on_c, 0, 67, 97
3, 17160, Note_off_c, 0, 67, 64
3, 17160, Note_on_c, 0, 66, 97
3, 17280, Note_off_c, 0, 66, 64
3, 17280, Note_on_c, 0, 64, 97
3, 17400, Note_off_c, 0, 64, 64
3, 17400, Note_on_c, 0, 66, 97
3, 17520, Note_off_c, 0, 66, 64
3, 17520, Note_on_c, 0, 62, 97
3, 17640, Note_off_c, 0, 62, 64
3, 17640, Note_on_c, 0, 64, 97
3, 17760, Note_off_c, 0, 64, 64
3, 17760, Note_on_c, 0, 60, 97
3, 17880, Note_off_c, 0, 60, 64
3, 17880, Note_on_c, 0, 74, 97
3, 18000, Note_off_c, 0, 74, 64
3, 18000, Note_on_c, 0, 72, 97
3, 18120, Note_off_c, 0, 72, 64
3, 18120, Note_on_c, 0, 71, 97
3, 18240, Note_off_c, 0, 71, 64
3, 18240, Note_on_c, 0, 69, 97
3, 18360, Note_off_c, 0, 69, 64
3, 18360, Note_on_c, 0, 67, 97
3, 18480, Note_off_c, 0, 67, 64
3, 18480, Note_on_c, 0, 66, 97
3, 18600, Note_off_c, 0, 66, 64
3, 18600, Note_on_c, 0, 64, 97
3, 18720, Note_off_c, 0, 64, 64
3, 18720, Note_on_c, 0, 62, 97
3, 18840, Note_off_c, 0, 62, 64
3, 18840, Note_on_c, 0, 64, 97
3, 18960, Note_off_c, 0, 64, 64
3, 18960, Note_on_c, 0, 60, 97
3, 19080, Note_off_c, 0, 60, 64
3, 19080, Note_on_c, 0, 62, 97
3, 19200, Note_off_c, 0, 62, 64
3, 19200, Note_on_c, 0, 59, 97
3, 19320, Note_off_c, 0, 59, 64
3, 19320, Note_on_c, 0, 72, 97
3, 19440, Note_off_c, 0, 72, 64
3, 19440, Note_on_c, 0, 71, 97
3, 19560, Note_off_c, 0, 71, 64
3, 19560, Note_on_c, 0, 69, 97
3, 19680, Note_off_c, 0, 69, 64
3, 19680, Note_on_c, 0, 67, 97
3, 19800, Note_off_c, 0, 67, 64
3, 19800, Note_on_c, 0, 66, 97
3, 19920, Note_off_c, 0, 66, 64
3, 19920, Note_on_c, 0, 64, 97
3, 20040, Note_off_c, 0, 64, 64
3, 20040, Note_on_c, 0, 62, 97
3, 20160, Note_off_c, 0, 62, 64
3, 20160, Note_on_c, 0, 60, 97
3, 20400, Note_off_c, 0, 60, 64
3, 20400, Note_on_c, 0, 64, 97
3, 20880, Note_off_c, 0, 64, 64
3, 20880, Note_on_c, 0, 69, 97
3, 21360, Note_off_c, 0, 69, 64
3, 21360, Note_on_c, 0, 72, 97
3, 21720, Note_off_c, 0, 72, 64
3, 21720, Note_on_c, 0, 67, 97
3, 21840, Note_off_c, 0, 67, 64
3, 21840, Note_on_c, 0, 69, 97
3, 21960, Note_off_c, 0, 69, 64
3, 21960, Note_on_c, 0, 66, 97
3, 22080, Note_off_c, 0, 66, 64
3, 22080, Note_on_c, 0, 67, 97
3, 22320, Note_off_c, 0, 67, 64
3, 22320, Note_on_c, 0, 69, 97
3, 22560, Note_off_c, 0, 69, 64
3, 22560, Note_on_c, 0, 62, 97
3, 22800, Note_off_c, 0, 62, 64
3, 22800, Note_on_c, 0, 66, 97
3, 23040, Note_off_c, 0, 66, 64
3, 23160, Note_on_c, 0, 67, 97
3, 23280, Note_off_c, 0, 67, 64
3, 23280, Note_on_c, 0, 66, 97
3, 23400, Note_off_c, 0, 66, 64
3, 23400, Note_on_c, 0, 67, 97
3, 23520, Note_off_c, 0, 67, 64
3, 23520, Note_on_c, 0, 71, 97
3, 23640, Note_off_c, 0, 71, 64
3, 23640, Note_on_c, 0, 67, 97
3, 23760, Note_off_c, 0, 67, 64
3, 23760, Note_on_c, 0, 66, 97
3, 23880, Note_off_c, 0, 66, 64
3, 23880, Note_on_c, 0, 67, 97
3, 24000, Note_off_c, 0, 67, 64
3, 24000, Note_on_c, 0, 62, 97
3, 24120, Note_off_c, 0, 62, 64
3, 24120, Note_on_c, 0, 67, 97
3, 24240, Note_off_c, 0, 67, 64
3, 24240, Note_on_c, 0, 59, 97
3, 24360, Note_off_c, 0, 59, 64
3, 24360, Note_on_c, 0, 62, 97
3, 24480, Note_off_c, 0, 62, 64
3, 24480, Note_on_c, 0, 55, 97
3, 24720, Note_off_c, 0, 55, 64
3, 24720, Note_on_c, 0, 74, 97
3, 24960, Note_off_c, 0, 74, 64
3, 24960, Note_on_c, 0, 71, 97
3, 25200, Note_off_c, 0, 71, 64
3, 25200, Note_on_c, 0, 74, 97
3, 25440, Note_off_c, 0, 74, 64
3, 25440, Note_on_c, 0, 76, 97
3, 25680, Note_off_c, 0, 76, 64
3, 25680, Note_on_c, 0, 74, 97
3, 25800, Note_off_c, 0, 74, 64
3, 25800, Note_on_c, 0, 72, 97
3, 25920, Note_off_c, 0, 72, 64
3, 25920, Note_on_c, 0, 74, 97
3, 26400, Note_off_c, 0, 74, 64
3, 27600, Note_on_c, 0, 59, 97
3, 27840, Note_off_c, 0, 59, 64
3, 27840, Note_on_c, 0, 55, 97
3, 28080, Note_off_c, 0, 55, 64
3, 28080, Note_on_c, 0, 59, 97
3, 28320, Note_off_c, 0, 59, 64
3, 28320, Note_on_c, 0, 60, 97
3, 28560, Note_off_c, 0, 60, 64
3, 28560, Note_on_c, 0, 59, 97
3, 28680, Note_off_c, 0, 59, 64
3, 28680, Note_on_c, 0, 57, 97
3, 28800, Note_off_c, 0, 57, 64
3, 28800, Note_on_c, 0, 59, 97
3, 29040, Note_off_c, 0, 59, 64
3, 29040, Note_on_c, 0, 62, 97
3, 29280, Note_off_c, 0, 62, 64
3, 29280, Note_on_c, 0, 55, 97
3, 29520, Note_off_c, 0, 55, 64
3, 29520, Note_on_c, 0, 59, 97
3, 29760, Note_off_c, 0, 59, 64
3, 29760, Note_on_c, 0, 52, 97
3, 29880, Note_off_c, 0, 52, 64
3, 29880, Note_on_c, 0, 55, 97
3, 30000, Note_off_c, 0, 55, 64
3, 30000, Note_on_c, 0, 57, 97
3, 30120, Note_off_c, 0, 57, 64
3, 30120, Note_on_c, 0, 59, 97
3, 30240, Note_off_c, 0, 59, 64
3, 30240, Note_on_c, 0, 60, 97
3, 30480, Note_off_c, 0, 60, 64
3, 30480, Note_on_c, 0, 64, 97
3, 30720, Note_off_c, 0, 64, 64
3, 30720, Note_on_c, 0, 57, 97
3, 30960, Note_off_c, 0, 57, 64
3, 30960, Note_on_c, 0, 60, 97
3, 31200, Note_off_c, 0, 60, 64
3, 31200, Note_on_c, 0, 54, 97
3, 31320, Note_off_c, 0, 54, 64
3, 31320, Note_on_c, 0, 57, 97
3, 31440, Note_off_c, 0, 57, 64
3, 31440, Note_on_c, 0, 59, 97
3, 31560, Note_off_c, 0, 59, 64
3, 31560, Note_on_c, 0, 60, 97
3, 31680, Note_off_c, 0, 60, 64
3, 31680, Note_on_c, 0, 62, 97
3, 31920, Note_off_c, 0, 62, 64
3, 31920, Note_on_c, 0, 67, 97
3, 32040, Note_off_c, 0, 67, 64
3, 32040, Note_on_c, 0, 62, 97
3, 32160, Note_off_c, 0, 62, 64
3, 32160, Note_on_c, 0, 59, 97
3, 32400, Note_off_c, 0, 59, 64
3, 32400, Note_on_c, 0, 62, 97
3, 32520, Note_off_c, 0, 62, 64
3, 32520, Note_on_c, 0, 59, 97
3, 32640, Note_off_c, 0, 59, 64
3, 32640, Note_on_c, 0, 55, 97
3, 32760, Note_off_c, 0, 55, 64
3, 32760, Note_on_c, 0, 59, 97
3, 32880, Note_off_c, 0, 59, 64
3, 32880, Note_on_c, 0, 60, 97
3, 33000, Note_off_c, 0, 60, 64
3, 33000, Note_on_c, 0, 62, 97
3, 33120, Note_off_c, 0, 62, 64
3, 33120, Note_on_c, 0, 64, 97
3, 33240, Note_off_c, 0, 64, 64
3, 33240, Note_on_c, 0, 62, 97
3, 33360, Note_off_c, 0, 62, 64
3, 33360, Note_on_c, 0, 64, 97
3, 33480, Note_off_c, 0, 64, 64
3, 33480, Note_on_c, 0, 65, 97
3, 33600, Note_off_c, 0, 65, 64
3, 33600, Note_on_c, 0, 64, 97
3, 33720, Note_off_c, 0, 64, 64
3, 33720, Note_on_c, 0, 62, 97
3, 33840, Note_off_c, 0, 62, 64
3, 33840, Note_on_c, 0, 60, 97
3, 33960, Note_off_c, 0, 60, 64
3, 33960, Note_on_c, 0, 59, 97
3, 34080, Note_off_c, 0, 59, 64
3, 34080, Note_on_c, 0, 57, 97
3, 34200, Note_off_c, 0, 57, 64
3, 34200, Note_on_c, 0, 55, 97
3, 34320, Note_off_c, 0, 55, 64
3, 34320, Note_on_c, 0, 54, 97
3, 34440, Note_off_c, 0, 54, 64
3, 34440, Note_on_c, 0, 52, 97
3, 34560, Note_off_c, 0, 52, 64
3, 34560, Note_on_c, 0, 54, 97
3, 34680, Note_off_c, 0, 54, 64
3, 34680, Note_on_c, 0, 55, 97
3, 34800, Note_off_c, 0, 55, 64
3, 34800, Note_on_c, 0, 54, 97
3, 34920, Note_off_c, 0, 54, 64
3, 34920, Note_on_c, 0, 50, 97
3, 35040, Note_off_c, 0, 50, 64
3, 35040, Note_on_c, 0, 57, 97
3, 35160, Note_off_c, 0, 57, 64
3, 35160, Note_on_c, 0, 59, 97
3, 35280, Note_off_c, 0, 59, 64
3, 35280, Note_on_c, 0, 57, 97
3, 35400, Note_off_c, 0, 57, 64
3, 35400, Note_on_c, 0, 54, 97
3, 35520, Note_off_c, 0, 54, 64
3, 35520, Note_on_c, 0, 60, 97
3, 35640, Note_off_c, 0, 60, 64
3, 35640, Note_on_c, 0, 62, 97
3, 35760, Note_off_c, 0, 62, 64
3, 35760, Note_on_c, 0, 60, 97
3, 35880, Note_off_c, 0, 60, 64
3, 35880, Note_on_c, 0, 57, 97
3, 36000, Note_off_c, 0, 57, 64
3, 36000, Note_on_c, 0, 58, 97
3, 36240, Note_off_c, 0, 58, 64
3, 36240, Note_on_c, 0, 55, 97
3, 36480, Note_off_c, 0, 55, 64
3, 36480, Note_on_c, 0, 62, 97
3, 36720, Note_off_c, 0, 62, 64
3, 36720, Note_on_c, 0, 58, 97
3, 36960, Note_off_c, 0, 58, 64
3, 36960, Note_on_c, 0, 67, 97
3, 37560, Note_off_c, 0, 67, 64
3, 37560, Note_on_c, 0, 65, 97
3, 37680, Note_off_c, 0, 65, 64
3, 37680, Note_on_c, 0, 64, 97
3, 37800, Note_off_c, 0, 64, 64
3, 37800, Note_on_c, 0, 62, 97
3, 37920, Note_off_c, 0, 62, 64
3, 37920, Note_on_c, 0, 61, 97
3, 38040, Note_off_c, 0, 61, 64
3, 38040, Note_on_c, 0, 64, 97
3, 38160, Note_off_c, 0, 64, 64
3, 38160, Note_on_c, 0, 58, 97
3, 38280, Note_off_c, 0, 58, 64
3, 38280, Note_on_c, 0, 57, 97
3, 38400, Note_off_c, 0, 57, 64
3, 38400, Note_on_c, 0, 58, 97
3, 38520, Note_off_c, 0, 58, 64
3, 38520, Note_on_c, 0, 55, 97
3, 38640, Note_off_c, 0, 55, 64
3, 38640, Note_on_c, 0, 62, 97
3, 38760, Note_off_c, 0, 62, 64
3, 38760, Note_on_c, 0, 61, 97
3, 38880, Note_off_c, 0, 61, 64
3, 38880, Note_on_c, 0, 62, 97
3, 39480, Note_off_c, 0, 62, 64
3, 39480, Note_on_c, 0, 71, 97
3, 39600, Note_off_c, 0, 71, 64
3, 39600, Note_on_c, 0, 69, 97
3, 39720, Note_off_c, 0, 69, 64
3, 39720, Note_on_c, 0, 67, 97
3, 39840, Note_off_c, 0, 67, 64
3, 39840, Note_on_c, 0, 74, 97
3, 40440, Note_off_c, 0, 74, 64
3, 40440, Note_on_c, 0, 71, 97
3, 40560, Note_off_c, 0, 71, 64
3, 40560, Note_on_c, 0, 76, 97
3, 40680, Note_off_c, 0, 76, 64
3, 40680, Note_on_c, 0, 74, 97
3, 40800, Note_off_c, 0, 74, 64
3, 40800, Note_on_c, 0, 72, 97
3, 40920, Note_off_c, 0, 72, 64
3, 40920, Note_on_c, 0, 71, 97
3, 41040, Note_off_c, 0, 71, 64
3, 41040, Note_on_c, 0, 69, 97
3, 41160, Note_off_c, 0, 69, 64
3, 41160, Note_on_c, 0, 67, 97
3, 41280, Note_off_c, 0, 67, 64
3, 41280, Note_on_c, 0, 66, 97
3, 41520, Note_off_c, 0, 66, 64
3, 41520, Note_on_c, 0, 72, 97
3, 41880, Note_off_c, 0, 72, 64
3, 41880, Note_on_c, 0, 71, 97
3, 42000, Note_off_c, 0, 71, 64
3, 42000, Note_on_c, 0, 69, 97
3, 42120, Note_off_c, 0, 69, 64
3, 42120, Note_on_c, 0, 67, 97
3, 42240, Note_off_c, 0, 67, 64
3, 42240, Note_on_c, 0, 76, 97
3, 42840, Note_off_c, 0, 76, 64
3, 42840, Note_on_c, 0, 77, 97
3, 42960, Note_off_c, 0, 77, 64
3, 42960, Note_on_c, 0, 76, 97
3, 43080, Note_off_c, 0, 76, 64
3, 43080, Note_on_c, 0, 74, 97
3, 43200, Note_off_c, 0, 74, 64
3, 43200, Note_on_c, 0, 72, 97
3, 43920, Note_off_c, 0, 72, 64
3, 43920, Note_on_c, 0, 71, 97
3, 44040, Note_off_c, 0, 71, 64
3, 44040, Note_on_c, 0, 69, 97
3, 44160, Note_off_c, 0, 69, 64
3, 44160, Note_on_c, 0, 67, 97
3, 44280, Note_off_c, 0, 67, 64
3, 44280, Note_on_c, 0, 65, 97
3, 44400, Note_off_c, 0, 65, 64
3, 44400, Note_on_c, 0, 64, 97
3, 44520, Note_off_c, 0, 64, 64
3, 44520, Note_on_c, 0, 62, 97
3, 44640, Note_off_c, 0, 62, 64
3, 44640, Note_on_c, 0, 60, 97
3, 44880, Note_off_c, 0, 60, 64
3, 44880, Note_on_c, 0, 67, 97
3, 45120, Note_off_c, 0, 67, 64
3, 45120, Note_on_c, 0, 64, 97
3, 45360, Note_off_c, 0, 64, 64
3, 45360, Note_on_c, 0, 67, 97
3, 45600, Note_off_c, 0, 67, 64
3, 45600, Note_on_c, 0, 69, 97
3, 46200, Note_off_c, 0, 69, 64
3, 46200, Note_on_c, 0, 65, 97
3, 46320, Note_off_c, 0, 65, 64
3, 46320, Note_on_c, 0, 64, 97
3, 46440, Note_off_c, 0, 64, 64
3, 46440, Note_on_c, 0, 65, 97
3, 46560, Note_off_c, 0, 65, 64
3, 46560, Note_on_c, 0, 69, 97
3, 46680, Note_off_c, 0, 69, 64
3, 46680, Note_on_c, 0, 65, 97
3, 46800, Note_off_c, 0, 65, 64
3, 46800, Note_on_c, 0, 64, 97
3, 46920, Note_off_c, 0, 64, 64
3, 46920, Note_on_c, 0, 65, 97
3, 47040, Note_off_c, 0, 65, 64
3, 47040, Note_on_c, 0, 62, 97
3, 47160, Note_off_c, 0, 62, 64
3, 47160, Note_on_c, 0, 65, 97
3, 47280, Note_off_c, 0, 65, 64
3, 47280, Note_on_c, 0, 58, 97
3, 47400, Note_off_c, 0, 58, 64
3, 47400, Note_on_c, 0, 62, 97
3, 47520, Note_off_c, 0, 62, 64
3, 47520, Note_on_c, 0, 55, 97
3, 47760, Note_off_c, 0, 55, 64
3, 47760, Note_on_c, 0, 70, 97
3, 48000, Note_off_c, 0, 70, 64
3, 48000, Note_on_c, 0, 67, 97
3, 48240, Note_off_c, 0, 67, 64
3, 48240, Note_on_c, 0, 70, 97
3, 48480, Note_off_c, 0, 70, 64
3, 48480, Note_on_c, 0, 72, 97
3, 49200, Note_off_c, 0, 72, 64
3, 49200, Note_on_c, 0, 65, 97
3, 49440, Note_off_c, 0, 65, 64
3, 49440, Note_on_c, 0, 69, 97
3, 49680, Note_off_c, 0, 69, 64
3, 49680, Note_on_c, 0, 72, 97
3, 49920, Note_off_c, 0, 72, 64
3, 49920, Note_on_c, 0, 75, 97
3, 50160, Note_off_c, 0, 75, 64
3, 50160, Note_on_c, 0, 74, 97
3, 50280, Note_off_c, 0, 74, 64
3, 50280, Note_on_c, 0, 72, 97
3, 50400, Note_off_c, 0, 72, 64
3, 50400, Note_on_c, 0, 74, 97
3, 50640, Note_off_c, 0, 74, 64
3, 50640, Note_on_c, 0, 70, 97
3, 50880, Note_off_c, 0, 70, 64
3, 50880, Note_on_c, 0, 65, 97
3, 51120, Note_off_c, 0, 65, 64
3, 51120, Note_on_c, 0, 70, 97
3, 51360, Note_off_c, 0, 70, 64
3, 51360, Note_on_c, 0, 74, 97
3, 51600, Note_off_c, 0, 74, 64
3, 51600, Note_on_c, 0, 72, 97
3, 51720, Note_off_c, 0, 72, 64
3, 51720, Note_on_c, 0, 70, 97
3, 51840, Note_off_c, 0, 70, 64
3, 51840, Note_on_c, 0, 72, 97
3, 52080, Note_off_c, 0, 72, 64
3, 52080, Note_on_c, 0, 69, 97
3, 52320, Note_off_c, 0, 69, 64
3, 52320, Note_on_c, 0, 65, 97
3, 52560, Note_off_c, 0, 65, 64
3, 52560, Note_on_c, 0, 69, 97
3, 52800, Note_off_c, 0, 69, 64
3, 52800, Note_on_c, 0, 72, 97
3, 53040, Note_off_c, 0, 72, 64
3, 53040, Note_on_c, 0, 70, 97
3, 53160, Note_off_c, 0, 70, 64
3, 53160, Note_on_c, 0, 69, 97
3, 53280, Note_off_c, 0, 69, 64
3, 53280, Note_on_c, 0, 70, 97
3, 53520, Note_off_c, 0, 70, 64
3, 53520, Note_on_c, 0, 67, 97
3, 53760, Note_off_c, 0, 67, 64
3, 53760, Note_on_c, 0, 64, 97
3, 54000, Note_off_c, 0, 64, 64
3, 54000, Note_on_c, 0, 67, 97
3, 54240, Note_off_c, 0, 67, 64
3, 54240, Note_on_c, 0, 70, 97
3, 54480, Note_off_c, 0, 70, 64
3, 54480, Note_on_c, 0, 69, 97
3, 54600, Note_off_c, 0, 69, 64
3, 54600, Note_on_c, 0, 67, 97
3, 54720, Note_off_c, 0, 67, 64
3, 54720, Note_on_c, 0, 69, 97
3, 54840, Note_off_c, 0, 69, 64
3, 54840, Note_on_c, 0, 65, 97
3, 54960, Note_off_c, 0, 65, 64
3, 54960, Note_on_c, 0, 64, 97
3, 55080, Note_off_c, 0, 64, 64
3, 55080, Note_on_c, 0, 65, 97
3, 55200, Note_off_c, 0, 65, 64
3, 55200, Note_on_c, 0, 69, 97
3, 55320, Note_off_c, 0, 69, 64
3, 55320, Note_on_c, 0, 65, 97
3, 55440, Note_off_c, 0, 65, 64
3, 55440, Note_on_c, 0, 64, 97
3, 55560, Note_off_c, 0, 64, 64
3, 55560, Note_on_c, 0, 65, 97
3, 55680, Note_off_c, 0, 65, 64
3, 55680, Note_on_c, 0, 62, 97
3, 55800, Note_off_c, 0, 62, 64
3, 55800, Note_on_c, 0, 65, 97
3, 55920, Note_off_c, 0, 65, 64
3, 55920, Note_on_c, 0, 59, 97
3, 56040, Note_off_c, 0, 59, 64
3, 56040, Note_on_c, 0, 62, 97
3, 56160, Note_off_c, 0, 62, 64
3, 56160, Note_on_c, 0, 55, 97
3, 56280, Note_off_c, 0, 55, 64
3, 56280, Note_on_c, 0, 64, 97
3, 56400, Note_off_c, 0, 64, 64
3, 56400, Note_on_c, 0, 62, 97
3, 56520, Note_off_c, 0, 62, 64
3, 56520, Note_on_c, 0, 64, 97
3, 56640, Note_off_c, 0, 64, 64
3, 56640, Note_on_c, 0, 67, 97
3, 56760, Note_off_c, 0, 67, 64
3, 56760, Note_on_c, 0, 64, 97
3, 56880, Note_off_c, 0, 64, 64
3, 56880, Note_on_c, 0, 62, 97
3, 57000, Note_off_c, 0, 62, 64
3, 57000, Note_on_c, 0, 64, 97
3, 57120, Note_off_c, 0, 64, 64
3, 57120, Note_on_c, 0, 60, 97
3, 57240, Note_off_c, 0, 60, 64
3, 57240, Note_on_c, 0, 64, 97
3, 57360, Note_off_c, 0, 64, 64
3, 57360, Note_on_c, 0, 57, 97
3, 57480, Note_off_c, 0, 57, 64
3, 57480, Note_on_c, 0, 60, 97
3, 57600, Note_off_c, 0, 60, 64
3, 57600, Note_on_c, 0, 53, 97
3, 57720, Note_off_c, 0, 53, 64
3, 57720, Note_on_c, 0, 62, 97
3, 57840, Note_off_c, 0, 62, 64
3, 57840, Note_on_c, 0, 60, 97
3, 57960, Note_off_c, 0, 60, 64
3, 57960, Note_on_c, 0, 62, 97
3, 58080, Note_off_c, 0, 62, 64
3, 58080, Note_on_c, 0, 65, 97
3, 58200, Note_off_c, 0, 65, 64
3, 58200, Note_on_c, 0, 62, 97
3, 58320, Note_off_c, 0, 62, 64
3, 58320, Note_on_c, 0, 60, 97
3, 58440, Note_off_c, 0, 60, 64
3, 58440, Note_on_c, 0, 62, 97
3, 58560, Note_off_c, 0, 62, 64
3, 58560, Note_on_c, 0, 59, 97
3, 58680, Note_off_c, 0, 59, 64
3, 58680, Note_on_c, 0, 62, 97
3, 58800, Note_off_c, 0, 62, 64
3, 58800, Note_on_c, 0, 55, 97
3, 58920, Note_off_c, 0, 55, 64
3, 58920, Note_on_c, 0, 59, 97
3, 59040, Note_off_c, 0, 59, 64
3, 59040, Note_on_c, 0, 52, 97
3, 59160, Note_off_c, 0, 52, 64
3, 59160, Note_on_c, 0, 64, 97
3, 59280, Note_off_c, 0, 64, 64
3, 59280, Note_on_c, 0, 62, 97
3, 59400, Note_off_c, 0, 62, 64
3, 59400, Note_on_c, 0, 64, 97
3, 59520, Note_off_c, 0, 64, 64
3, 59520, Note_on_c, 0, 67, 97
3, 59640, Note_off_c, 0, 67, 64
3, 59640, Note_on_c, 0, 64, 97
3, 59760, Note_off_c, 0, 64, 64
3, 59760, Note_on_c, 0, 62, 97
3, 59880, Note_off_c, 0, 62, 64
3, 59880, Note_on_c, 0, 64, 97
3, 60000, Note_off_c, 0, 64, 64
3, 60000, Note_on_c, 0, 60, 97
3, 60120, Note_off_c, 0, 60, 64
3, 60120, Note_on_c, 0, 64, 97
3, 60240, Note_off_c, 0, 64, 64
3, 60240, Note_on_c, 0, 67, 97
3, 60600, Note_off_c, 0, 67, 64
3, 60600, Note_on_c, 0, 65, 97
3, 60720, Note_off_c, 0, 65, 64
3, 60720, Note_on_c, 0, 64, 97
3, 60840, Note_off_c, 0, 64, 64
3, 60840, Note_on_c, 0, 65, 97
3, 60960, Note_off_c, 0, 65, 64
3, 60960, Note_on_c, 0, 67, 97
3, 61080, Note_off_c, 0, 67, 64
3, 61080, Note_on_c, 0, 65, 97
3, 61200, Note_off_c, 0, 65, 64
3, 61200, Note_on_c, 0, 64, 97
3, 61320, Note_off_c, 0, 64, 64
3, 61320, Note_on_c, 0, 65, 97
3, 61440, Note_off_c, 0, 65, 64
3, 61440, Note_on_c, 0, 60, 97
3, 61560, Note_off_c, 0, 60, 64
3, 61560, Note_on_c, 0, 64, 97
3, 61680, Note_off_c, 0, 64, 64
3, 61680, Note_on_c, 0, 65, 97
3, 62040, Note_off_c, 0, 65, 64
3, 62040, Note_on_c, 0, 64, 97
3, 62160, Note_off_c, 0, 64, 64
3, 62160, Note_on_c, 0, 62, 97
3, 62280, Note_off_c, 0, 62, 64
3, 62280, Note_on_c, 0, 64, 97
3, 62400, Note_off_c, 0, 64, 64
3, 62400, Note_on_c, 0, 65, 97
3, 62520, Note_off_c, 0, 65, 64
3, 62520, Note_on_c, 0, 64, 97
3, 62640, Note_off_c, 0, 64, 64
3, 62640, Note_on_c, 0, 62, 97
3, 62760, Note_off_c, 0, 62, 64
3, 62760, Note_on_c, 0, 64, 97
3, 62880, Note_off_c, 0, 64, 64
3, 62880, Note_on_c, 0, 60, 97
3, 63000, Note_off_c, 0, 60, 64
3, 63000, Note_on_c, 0, 62, 97
3, 63120, Note_off_c, 0, 62, 64
3, 63120, Note_on_c, 0, 64, 97
3, 63480, Note_off_c, 0, 64, 64
3, 63480, Note_on_c, 0, 62, 97
3, 63600, Note_off_c, 0, 62, 64
3, 63600, Note_on_c, 0, 60, 97
3, 63720, Note_off_c, 0, 60, 64
3, 63720, Note_on_c, 0, 62, 97
3, 63840, Note_off_c, 0, 62, 64
3, 63840, Note_on_c, 0, 65, 97
3, 63960, Note_off_c, 0, 65, 64
3, 63960, Note_on_c, 0, 62, 97
3, 64080, Note_off_c, 0, 62, 64
3, 64080, Note_on_c, 0, 60, 97
3, 64200, Note_off_c, 0, 60, 64
3, 64200, Note_on_c, 0, 62, 97
3, 64320, Note_off_c, 0, 62, 64
3, 64320, Note_on_c, 0, 59, 97
3, 64560, Note_off_c, 0, 59, 64
3, 64560, Note_on_c, 0, 71, 97
3, 64800, Note_off_c, 0, 71, 64
3, 64800, Note_on_c, 0, 72, 97
3, 64920, Note_off_c, 0, 72, 64
3, 64920, Note_on_c, 0, 67, 97
3, 65040, Note_off_c, 0, 67, 64
3, 65040, Note_on_c, 0, 65, 97
3, 65160, Note_off_c, 0, 65, 64
3, 65160, Note_on_c, 0, 67, 97
3, 65280, Note_off_c, 0, 67, 64
3, 65280, Note_on_c, 0, 76, 97
3, 66360, Note_off_c, 0, 76, 64
3, 66360, Note_on_c, 0, 65, 97
3, 66480, Note_off_c, 0, 65, 64
3, 66480, Note_on_c, 0, 64, 97
3, 66600, Note_off_c, 0, 64, 64
3, 66600, Note_on_c, 0, 65, 97
3, 66720, Note_off_c, 0, 65, 64
3, 66720, Note_on_c, 0, 74, 97
3, 67800, Note_off_c, 0, 74, 64
3, 67800, Note_on_c, 0, 64, 97
3, 67920, Note_off_c, 0, 64, 64
3, 67920, Note_on_c, 0, 62, 97
3, 68040, Note_off_c, 0, 62, 64
3, 68040, Note_on_c, 0, 64, 97
3, 68160, Note_off_c, 0, 64, 64
3, 68160, Note_on_c, 0, 72, 97
3, 69240, Note_off_c, 0, 72, 64
3, 69240, Note_on_c, 0, 71, 97
3, 69360, Note_off_c, 0, 71, 64
3, 69360, Note_on_c, 0, 69, 97
3, 69480, Note_off_c, 0, 69, 64
3, 69480, Note_on_c, 0, 67, 97
3, 69600, Note_off_c, 0, 67, 64
3, 69600, Note_on_c, 0, 65, 97
3, 69720, Note_off_c, 0, 65, 64
3, 69720, Note_on_c, 0, 64, 97
3, 69840, Note_off_c, 0, 64, 64
3, 69840, Note_on_c, 0, 62, 97
3, 69960, Note_off_c, 0, 62, 64
3, 69960, Note_on_c, 0, 60, 97
3, 70080, Note_off_c, 0, 60, 64
3, 70080, Note_on_c, 0, 59, 97
3, 70200, Note_off_c, 0, 59, 64
3, 70200, Note_on_c, 0, 57, 97
3, 70320, Note_off_c, 0, 57, 64
3, 70320, Note_on_c, 0, 55, 97
3, 70440, Note_off_c, 0, 55, 64
3, 70440, Note_on_c, 0, 53, 97
3, 70560, Note_off_c, 0, 53, 64
3, 70560, Note_on_c, 0, 55, 97
3, 70800, Note_off_c, 0, 55, 64
3, 70800, Note_on_c, 0, 65, 97
3, 71040, Note_off_c, 0, 65, 64
3, 71040, Note_on_c, 0, 64, 97
3, 71280, Note_off_c, 0, 64, 64
3, 71280, Note_on_c, 0, 69, 97
3, 71400, Note_off_c, 0, 69, 64
3, 71400, Note_on_c, 0, 67, 97
3, 71520, Note_off_c, 0, 67, 64
3, 71520, Note_on_c, 0, 65, 97
3, 71640, Note_off_c, 0, 65, 64
3, 71640, Note_on_c, 0, 64, 97
3, 71760, Note_off_c, 0, 64, 64
3, 71760, Note_on_c, 0, 62, 97
3, 71880, Note_off_c, 0, 62, 64
3, 71880, Note_on_c, 0, 60, 97
3, 72000, Note_off_c, 0, 60, 64
3, 72000, Note_on_c, 0, 60, 97
3, 72480, Note_off_c, 0, 60, 64
3, 75000, Note_on_c, 0, 60, 97
3, 75120, Note_off_c, 0, 60, 64
3, 75120, Note_on_c, 0, 64, 97
3, 75240, Note_off_c, 0, 64, 64
3, 75240, Note_on_c, 0, 66, 97
3, 75360, Note_off_c, 0, 66, 64
3, 75360, Note_on_c, 0, 67, 97
3, 75480, Note_off_c, 0, 67, 64
3, 75480, Note_on_c, 0, 66, 97
3, 75600, Note_off_c, 0, 66, 64
3, 75600, Note_on_c, 0, 67, 97
3, 75720, Note_off_c, 0, 67, 64
3, 75720, Note_on_c, 0, 71, 97
3, 75840, Note_off_c, 0, 71, 64
3, 75840, Note_on_c, 0, 69, 97
3, 75960, Note_off_c, 0, 69, 64
3, 75960, Note_on_c, 0, 67, 97
3, 76080, Note_off_c, 0, 67, 64
3, 76080, Note_on_c, 0, 66, 97
3, 76200, Note_off_c, 0, 66, 64
3, 76200, Note_on_c, 0, 64, 97
3, 76320, Note_off_c, 0, 64, 64
3, 76320, Note_on_c, 0, 62, 97
3, 76440, Note_off_c, 0, 62, 64
3, 76440, Note_on_c, 0, 64, 97
3, 76560, Note_off_c, 0, 64, 64
3, 76560, Note_on_c, 0, 66, 97
3, 76680, Note_off_c, 0, 66, 64
3, 76680, Note_on_c, 0, 67, 97
3, 76800, Note_off_c, 0, 67, 64
3, 76800, Note_on_c, 0, 69, 97
3, 76920, Note_off_c, 0, 69, 64
3, 76920, Note_on_c, 0, 72, 97
3, 77040, Note_off_c, 0, 72, 64
3, 77040, Note_on_c, 0, 71, 97
3, 77160, Note_off_c, 0, 71, 64
3, 77160, Note_on_c, 0, 69, 97
3, 77280, Note_off_c, 0, 69, 64
3, 77280, Note_on_c, 0, 74, 97
3, 77400, Note_off_c, 0, 74, 64
3, 77400, Note_on_c, 0, 72, 97
3, 77520, Note_off_c, 0, 72, 64
3, 77520, Note_on_c, 0, 71, 97
3, 77640, Note_off_c, 0, 71, 64
3, 77640, Note_on_c, 0, 69, 97
3, 77760, Note_off_c, 0, 69, 64
3, 77760, Note_on_c, 0, 71, 97
3, 77880, Note_off_c, 0, 71, 64
3, 77880, Note_on_c, 0, 67, 97
3, 78000, Note_off_c, 0, 67, 64
3, 78000, Note_on_c, 0, 65, 97
3, 78120, Note_off_c, 0, 65, 64
3, 78120, Note_on_c, 0, 64, 97
3, 78240, Note_off_c, 0, 64, 64
3, 78240, Note_on_c, 0, 62, 97
3, 78360, Note_off_c, 0, 62, 64
3, 78360, Note_on_c, 0, 60, 97
3, 78480, Note_off_c, 0, 60, 64
3, 78480, Note_on_c, 0, 59, 97
3, 78600, Note_off_c, 0, 59, 64
3, 78600, Note_on_c, 0, 57, 97
3, 78720, Note_off_c, 0, 57, 64
3, 78720, Note_on_c, 0, 55, 97
3, 79680, Note_off_c, 0, 55, 64
3, 79920, Note_on_c, 0, 60, 97
3, 80160, Note_off_c, 0, 60, 64
3, 80160, Note_on_c, 0, 65, 97
3, 80280, Note_off_c, 0, 65, 64
3, 80280, Note_on_c, 0, 64, 97
3, 80400, Note_off_c, 0, 64, 64
3, 80400, Note_on_c, 0, 65, 97
3, 80520, Note_off_c, 0, 65, 64
3, 80520, Note_on_c, 0, 67, 97
3, 80640, Note_off_c, 0, 67, 64
3, 80640, Note_on_c, 0, 69, 97
3, 80760, Note_off_c, 0, 69, 64
3, 80760, Note_on_c, 0, 69, 97
3, 80880, Note_off_c, 0, 69, 64
3, 80880, Note_on_c, 0, 67, 97
3, 81000, Note_off_c, 0, 67, 64
3, 81000, Note_on_c, 0, 65, 97
3, 81120, Note_off_c, 0, 65, 64
3, 81120, Note_on_c, 0, 64, 97
3, 81240, Note_off_c, 0, 64, 64
3, 81240, Note_on_c, 0, 62, 97
3, 81360, Note_off_c, 0, 62, 64
3, 81360, Note_on_c, 0, 61, 97
3, 81480, Note_off_c, 0, 61, 64
3, 81480, Note_on_c, 0, 59, 97
3, 81600, Note_off_c, 0, 59, 64
3, 81600, Note_on_c, 0, 57, 97
3, 82560, Note_off_c, 0, 57, 64
3, 82800, Note_on_c, 0, 62, 97
3, 83040, Note_off_c, 0, 62, 64
3, 83040, Note_on_c, 0, 68, 97
3, 83160, Note_off_c, 0, 68, 64
3, 83160, Note_on_c, 0, 66, 97
3, 83280, Note_off_c, 0, 66, 64
3, 83280, Note_on_c, 0, 68, 97
3, 83400, Note_off_c, 0, 68, 64
3, 83400, Note_on_c, 0, 69, 97
3, 83520, Note_off_c, 0, 69, 64
3, 83520, Note_on_c, 0, 71, 97
3, 83760, Note_off_c, 0, 71, 64
3, 83760, Note_on_c, 0, 64, 97
3, 84240, Note_off_c, 0, 64, 64
3, 84240, Note_on_c, 0, 69, 97
3, 84720, Note_off_c, 0, 69, 64
3, 84720, Note_on_c, 0, 62, 97
3, 84960, Note_off_c, 0, 62, 64
3, 84960, Note_on_c, 0, 64, 97
3, 87960, Note_off_c, 0, 64, 64
3, 87960, Note_on_c, 0, 60, 97
3, 88080, Note_off_c, 0, 60, 64
3, 88080, Note_on_c, 0, 62, 97
3, 88200, Note_off_c, 0, 62, 64
3, 88200, Note_on_c, 0, 64, 97
3, 88320, Note_off_c, 0, 64, 64
3, 88320, Note_on_c, 0, 65, 97
3, 88440, Note_off_c, 0, 65, 64
3, 88440, Note_on_c, 0, 64, 97
3, 88560, Note_off_c, 0, 64, 64
3, 88560, Note_on_c, 0, 65, 97
3, 88680, Note_off_c, 0, 65, 64
3, 88680, Note_on_c, 0, 69, 97
3, 88800, Note_off_c, 0, 69, 64
3, 88800, Note_on_c, 0, 67, 97
3, 88920, Note_off_c, 0, 67, 64
3, 88920, Note_on_c, 0, 65, 97
3, 89040, Note_off_c, 0, 65, 64
3, 89040, Note_on_c, 0, 64, 97
3, 89160, Note_off_c, 0, 64, 64
3, 89160, Note_on_c, 0, 62, 97
3, 89280, Note_off_c, 0, 62, 64
3, 89280, Note_on_c, 0, 60, 97
3, 89400, Note_off_c, 0, 60, 64
3, 89400, Note_on_c, 0, 62, 97
3, 89520, Note_off_c, 0, 62, 64
3, 89520, Note_on_c, 0, 64, 97
3, 89640, Note_off_c, 0, 64, 64
3, 89640, Note_on_c, 0, 65, 97
3, 89760, Note_off_c, 0, 65, 64
3, 89760, Note_on_c, 0, 67, 97
3, 89880, Note_off_c, 0, 67, 64
3, 89880, Note_on_c, 0, 70, 97
3, 90000, Note_off_c, 0, 70, 64
3, 90000, Note_on_c, 0, 69, 97
3, 90120, Note_off_c, 0, 69, 64
3, 90120, Note_on_c, 0, 67, 97
3, 90240, Note_off_c, 0, 67, 64
3, 90240, Note_on_c, 0, 72, 97
3, 90360, Note_off_c, 0, 72, 64
3, 90360, Note_on_c, 0, 70, 97
3, 90480, Note_off_c, 0, 70, 64
3, 90480, Note_on_c, 0, 69, 97
3, 90600, Note_off_c, 0, 69, 64
3, 90600, Note_on_c, 0, 67, 97
3, 90720, Note_off_c, 0, 67, 64
3, 90720, Note_on_c, 0, 69, 97
3, 93720, Note_off_c, 0, 69, 64
3, 93720, Note_on_c, 0, 57, 97
3, 93840, Note_off_c, 0, 57, 64
3, 93840, Note_on_c, 0, 59, 97
3, 93960, Note_off_c, 0, 59, 64
3, 93960, Note_on_c, 0, 61, 97
3, 94080, Note_off_c, 0, 61, 64
3, 94080, Note_on_c, 0, 62, 97
3, 94200, Note_off_c, 0, 62, 64
3, 94200, Note_on_c, 0, 61, 97
3, 94320, Note_off_c, 0, 61, 64
3, 94320, Note_on_c, 0, 62, 97
3, 94440, Note_off_c, 0, 62, 64
3, 94440, Note_on_c, 0, 65, 97
3, 94560, Note_off_c, 0, 65, 64
3, 94560, Note_on_c, 0, 64, 97
3, 94680, Note_off_c, 0, 64, 64
3, 94680, Note_on_c, 0, 62, 97
3, 94800, Note_off_c, 0, 62, 64
3, 94800, Note_on_c, 0, 61, 97
3, 94920, Note_off_c, 0, 61, 64
3, 94920, Note_on_c, 0, 59, 97
3, 95040, Note_off_c, 0, 59, 64
3, 95040, Note_on_c, 0, 57, 97
3, 95160, Note_off_c, 0, 57, 64
3, 95160, Note_on_c, 0, 59, 97
3, 95280, Note_off_c, 0, 59, 64
3, 95280, Note_on_c, 0, 61, 97
3, 95400, Note_off_c, 0, 61, 64
3, 95400, Note_on_c, 0, 62, 97
3, 95520, Note_off_c, 0, 62, 64
3, 95520, Note_on_c, 0, 64, 97
3, 95640, Note_off_c, 0, 64, 64
3, 95640, Note_on_c, 0, 67, 97
3, 95760, Note_off_c, 0, 67, 64
3, 95760, Note_on_c, 0, 65, 97
3, 95880, Note_off_c, 0, 65, 64
3, 95880, Note_on_c, 0, 64, 97
3, 96000, Note_off_c, 0, 64, 64
3, 96000, Note_on_c, 0, 69, 97
3, 96120, Note_off_c, 0, 69, 64
3, 96120, Note_on_c, 0, 67, 97
3, 96240, Note_off_c, 0, 67, 64
3, 96240, Note_on_c, 0, 65, 97
3, 96360, Note_off_c, 0, 65, 64
3, 96360, Note_on_c, 0, 64, 97
3, 96480, Note_off_c, 0, 64, 64
3, 96480, Note_on_c, 0, 65, 97
3, 98040, Note_off_c, 0, 65, 64
3, 98040, Note_on_c, 0, 64, 97
3, 98160, Note_off_c, 0, 64, 64
3, 98160, Note_on_c, 0, 62, 97
3, 98280, Note_off_c, 0, 62, 64
3, 98280, Note_on_c, 0, 64, 97
3, 98400, Note_off_c, 0, 64, 64
3, 98400, Note_on_c, 0, 65, 97
3, 98520, Note_off_c, 0, 65, 64
3, 98520, Note_on_c, 0, 69, 97
3, 98640, Note_off_c, 0, 69, 64
3, 98640, Note_on_c, 0, 67, 97
3, 98760, Note_off_c, 0, 67, 64
3, 98760, Note_on_c, 0, 65, 97
3, 98880, Note_off_c, 0, 65, 64
3, 98880, Note_on_c, 0, 70, 97
3, 99000, Note_off_c, 0, 70, 64
3, 99000, Note_on_c, 0, 69, 97
3, 99120, Note_off_c, 0, 69, 64
3, 99120, Note_on_c, 0, 67, 97
3, 99240, Note_off_c, 0, 67, 64
3, 99240, Note_on_c, 0, 65, 97
3, 99360, Note_off_c, 0, 65, 64
3, 99360, Note_on_c, 0, 67, 97
3, 100920, Note_off_c, 0, 67, 64
3, 100920, Note_on_c, 0, 65, 97
3, 101040, Note_off_c, 0, 65, 64
3, 101040, Note_on_c, 0, 64, 97
3, 101160, Note_off_c, 0, 64, 64
3, 101160, Note_on_c, 0, 65, 97
3, 101280, Note_off_c, 0, 65, 64
3, 101280, Note_on_c, 0, 67, 97
3, 101400, Note_off_c, 0, 67, 64
3, 101400, Note_on_c, 0, 70, 97
3, 101520, Note_off_c, 0, 70, 64
3, 101520, Note_on_c, 0, 69, 97
3, 101640, Note_off_c, 0, 69, 64
3, 101640, Note_on_c, 0, 67, 97
3, 101760, Note_off_c, 0, 67, 64
3, 101760, Note_on_c, 0, 72, 97
3, 101880, Note_off_c, 0, 72, 64
3, 101880, Note_on_c, 0, 70, 97
3, 102000, Note_off_c, 0, 70, 64
3, 102000, Note_on_c, 0, 69, 97
3, 102120, Note_off_c, 0, 69, 64
3, 102120, Note_on_c, 0, 67, 97
3, 102240, Note_off_c, 0, 67, 64
3, 102240, Note_on_c, 0, 69, 97
3, 102720, Note_off_c, 0, 69, 64
3, 103920, Note_on_c, 0, 60, 97
3, 104160, Note_off_c, 0, 60, 64
3, 104160, Note_on_c, 0, 57, 97
3, 104400, Note_off_c, 0, 57, 64
3, 104400, Note_on_c, 0, 60, 97
3, 104640, Note_off_c, 0, 60, 64
3, 104640, Note_on_c, 0, 62, 97
3, 104880, Note_off_c, 0, 62, 64
3, 104880, Note_on_c, 0, 60, 97
3, 105000, Note_off_c, 0, 60, 64
3, 105000, Note_on_c, 0, 58, 127
3, 105120, Note_off_c, 0, 58, 64
3, 105120, Note_on_c, 0, 60, 97
3, 105240, Note_off_c, 0, 60, 64
3, 105240, Note_on_c, 0, 65, 97
3, 105360, Note_off_c, 0, 65, 64
3, 105360, Note_on_c, 0, 64, 97
3, 105480, Note_off_c, 0, 64, 64
3, 105480, Note_on_c, 0, 65, 97
3, 105600, Note_off_c, 0, 65, 64
3, 105600, Note_on_c, 0, 69, 97
3, 105720, Note_off_c, 0, 69, 64
3, 105720, Note_on_c, 0, 65, 97
3, 105840, Note_off_c, 0, 65, 64
3, 105840, Note_on_c, 0, 64, 97
3, 105960, Note_off_c, 0, 64, 64
3, 105960, Note_on_c, 0, 65, 97
3, 106080, Note_off_c, 0, 65, 64
3, 106080, Note_on_c, 0, 60, 97
3, 106200, Note_off_c, 0, 60, 64
3, 106200, Note_on_c, 0, 65, 97
3, 106320, Note_off_c, 0, 65, 64
3, 106320, Note_on_c, 0, 57, 97
3, 106440, Note_off_c, 0, 57, 64
3, 106440, Note_on_c, 0, 60, 97
3, 106560, Note_off_c, 0, 60, 64
3, 106560, Note_on_c, 0, 53, 97
3, 106800, Note_off_c, 0, 53, 64
3, 106800, Note_on_c, 0, 69, 97
3, 107040, Note_off_c, 0, 69, 64
3, 107040, Note_on_c, 0, 65, 97
3, 107280, Note_off_c, 0, 65, 64
3, 107280, Note_on_c, 0, 69, 97
3, 107520, Note_off_c, 0, 69, 64
3, 107520, Note_on_c, 0, 70, 97
3, 107760, Note_off_c, 0, 70, 64
3, 107760, Note_on_c, 0, 69, 97
3, 107880, Note_off_c, 0, 69, 64
3, 107880, Note_on_c, 0, 67, 97
3, 108000, Note_off_c, 0, 67, 64
3, 108000, Note_on_c, 0, 69, 97
3, 108120, Note_off_c, 0, 69, 64
3, 108120, Note_on_c, 0, 60, 97
3, 108240, Note_off_c, 0, 60, 64
3, 108240, Note_on_c, 0, 62, 97
3, 108360, Note_off_c, 0, 62, 64
3, 108360, Note_on_c, 0, 64, 97
3, 108480, Note_off_c, 0, 64, 64
3, 108480, Note_on_c, 0, 65, 97
3, 108600, Note_off_c, 0, 65, 64
3, 108600, Note_on_c, 0, 64, 97
3, 108720, Note_off_c, 0, 64, 64
3, 108720, Note_on_c, 0, 65, 97
3, 108840, Note_off_c, 0, 65, 64
3, 108840, Note_on_c, 0, 69, 97
3, 108960, Note_off_c, 0, 69, 64
3, 108960, Note_on_c, 0, 67, 97
3, 109080, Note_off_c, 0, 67, 64
3, 109080, Note_on_c, 0, 65, 97
3, 109200, Note_off_c, 0, 65, 64
3, 109200, Note_on_c, 0, 64, 97
3, 109320, Note_off_c, 0, 64, 64
3, 109320, Note_on_c, 0, 62, 97
3, 109440, Note_off_c, 0, 62, 64
3, 109440, Note_on_c, 0, 64, 97
3, 109680, Note_off_c, 0, 64, 64
3, 109680, Note_on_c, 0, 60, 97
3, 109800, Note_off_c, 0, 60, 64
3, 109800, Note_on_c, 0, 62, 97
3, 109920, Note_off_c, 0, 62, 64
3, 109920, Note_on_c, 0, 64, 97
3, 110160, Note_off_c, 0, 64, 64
3, 110160, Note_on_c, 0, 55, 97
3, 110400, Note_off_c, 0, 55, 64
3, 110400, Note_on_c, 0, 57, 97
3, 110640, Note_off_c, 0, 57, 64
3, 110640, Note_on_c, 0, 66, 97
3, 110880, Note_off_c, 0, 66, 64
3, 110880, Note_on_c, 0, 67, 97
3, 111000, Note_off_c, 0, 67, 64
3, 111000, Note_on_c, 0, 62, 97
3, 111120, Note_off_c, 0, 62, 64
3, 111120, Note_on_c, 0, 64, 97
3, 111240, Note_off_c, 0, 64, 64
3, 111240, Note_on_c, 0, 65, 97
3, 111360, Note_off_c, 0, 65, 64
3, 111360, Note_on_c, 0, 67, 97
3, 111480, Note_off_c, 0, 67, 64
3, 111480, Note_on_c, 0, 65, 97
3, 111600, Note_off_c, 0, 65, 64
3, 111600, Note_on_c, 0, 67, 97
3, 111720, Note_off_c, 0, 67, 64
3, 111720, Note_on_c, 0, 70, 97
3, 111840, Note_off_c, 0, 70, 64
3, 111840, Note_on_c, 0, 69, 97
3, 111960, Note_off_c, 0, 69, 64
3, 111960, Note_on_c, 0, 67, 97
3, 112080, Note_off_c, 0, 67, 64
3, 112080, Note_on_c, 0, 65, 97
3, 112200, Note_off_c, 0, 65, 64
3, 112200, Note_on_c, 0, 64, 97
3, 112320, Note_off_c, 0, 64, 64
3, 112320, Note_on_c, 0, 65, 97
3, 112560, Note_off_c, 0, 65, 64
3, 112560, Note_on_c, 0, 62, 97
3, 112680, Note_off_c, 0, 62, 64
3, 112680, Note_on_c, 0, 64, 97
3, 112800, Note_off_c, 0, 64, 64
3, 112800, Note_on_c, 0, 66, 97
3, 113040, Note_off_c, 0, 66, 64
3, 113040, Note_on_c, 0, 57, 97
3, 113280, Note_off_c, 0, 57, 64
3, 113280, Note_on_c, 0, 59, 97
3, 113520, Note_off_c, 0, 59, 64
3, 113520, Note_on_c, 0, 68, 97
3, 113760, Note_off_c, 0, 68, 64
3, 113880, Note_on_c, 0, 69, 97
3, 114000, Note_off_c, 0, 69, 64
3, 114000, Note_on_c, 0, 68, 97
3, 114120, Note_off_c, 0, 68, 64
3, 114120, Note_on_c, 0, 69, 97
3, 114240, Note_off_c, 0, 69, 64
3, 114240, Note_on_c, 0, 72, 97
3, 114360, Note_off_c, 0, 72, 64
3, 114360, Note_on_c, 0, 69, 97
3, 114480, Note_off_c, 0, 69, 64
3, 114480, Note_on_c, 0, 68, 97
3, 114600, Note_off_c, 0, 68, 64
3, 114600, Note_on_c, 0, 69, 97
3, 114720, Note_off_c, 0, 69, 64
3, 114720, Note_on_c, 0, 64, 97
3, 114840, Note_off_c, 0, 64, 64
3, 114840, Note_on_c, 0, 69, 97
3, 114960, Note_off_c, 0, 69, 64
3, 114960, Note_on_c, 0, 60, 97
3, 115080, Note_off_c, 0, 60, 64
3, 115080, Note_on_c, 0, 64, 97
3, 115200, Note_off_c, 0, 64, 64
3, 115200, Note_on_c, 0, 57, 97
3, 115440, Note_off_c, 0, 57, 64
3, 115440, Note_on_c, 0, 72, 97
3, 115680, Note_off_c, 0, 72, 64
3, 115680, Note_on_c, 0, 69, 97
3, 115920, Note_off_c, 0, 69, 64
3, 115920, Note_on_c, 0, 72, 97
3, 116160, Note_off_c, 0, 72, 64
3, 116160, Note_on_c, 0, 74, 97
3, 116400, Note_off_c, 0, 74, 64
3, 116400, Note_on_c, 0, 72, 97
3, 116520, Note_off_c, 0, 72, 64
3, 116520, Note_on_c, 0, 71, 97
3, 116640, Note_off_c, 0, 71, 64
3, 116640, Note_on_c, 0, 72, 97
3, 117120, Note_off_c, 0, 72, 64
3, 118320, Note_on_c, 0, 64, 97
3, 118560, Note_off_c, 0, 64, 64
3, 118560, Note_on_c, 0, 60, 97
3, 118800, Note_off_c, 0, 60, 64
3, 118800, Note_on_c, 0, 64, 97
3, 119040, Note_off_c, 0, 64, 64
3, 119040, Note_on_c, 0, 65, 97
3, 119280, Note_off_c, 0, 65, 64
3, 119280, Note_on_c, 0, 64, 97
3, 119400, Note_off_c, 0, 64, 64
3, 119400, Note_on_c, 0, 62, 97
3, 119520, Note_off_c, 0, 62, 64
3, 119520, Note_on_c, 0, 64, 97
3, 119640, Note_off_c, 0, 64, 64
3, 119640, Note_on_c, 0, 52, 97
3, 119760, Note_off_c, 0, 52, 64
3, 119760, Note_on_c, 0, 54, 97
3, 119880, Note_off_c, 0, 54, 64
3, 119880, Note_on_c, 0, 56, 97
3, 120000, Note_off_c, 0, 56, 64
3, 120000, Note_on_c, 0, 57, 97
3, 120120, Note_off_c, 0, 57, 64
3, 120120, Note_on_c, 0, 56, 97
3, 120240, Note_off_c, 0, 56, 64
3, 120240, Note_on_c, 0, 57, 97
3, 120360, Note_off_c, 0, 57, 64
3, 120360, Note_on_c, 0, 60, 97
3, 120480, Note_off_c, 0, 60, 64
3, 120480, Note_on_c, 0, 59, 97
3, 120600, Note_off_c, 0, 59, 64
3, 120600, Note_on_c, 0, 57, 97
3, 120720, Note_off_c, 0, 57, 64
3, 120720, Note_on_c, 0, 56, 97
3, 120840, Note_off_c, 0, 56, 64
3, 120840, Note_on_c, 0, 54, 97
3, 120960, Note_off_c, 0, 54, 64
3, 120960, Note_on_c, 0, 52, 97
3, 121080, Note_off_c, 0, 52, 64
3, 121080, Note_on_c, 0, 54, 97
3, 121200, Note_off_c, 0, 54, 64
3, 121200, Note_on_c, 0, 56, 97
3, 121320, Note_off_c, 0, 56, 64
3, 121320, Note_on_c, 0, 57, 97
3, 121440, Note_off_c, 0, 57, 64
3, 121440, Note_on_c, 0, 59, 97
3, 121560, Note_off_c, 0, 59, 64
3, 121560, Note_on_c, 0, 62, 97
3, 121680, Note_off_c, 0, 62, 64
3, 121680, Note_on_c, 0, 60, 97
3, 121800, Note_off_c, 0, 60, 64
3, 121800, Note_on_c, 0, 59, 97
3, 121920, Note_off_c, 0, 59, 64
3, 121920, Note_on_c, 0, 64, 97
3, 122040, Note_off_c, 0, 64, 64
3, 122040, Note_on_c, 0, 62, 97
3, 122160, Note_off_c, 0, 62, 64
3, 122160, Note_on_c, 0, 61, 97
3, 122280, Note_off_c, 0, 61, 64
3, 122280, Note_on_c, 0, 59, 97
3, 122400, Note_off_c, 0, 59, 64
3, 122400, Note_on_c, 0, 61, 97
3, 122640, Note_off_c, 0, 61, 64
3, 122640, Note_on_c, 0, 64, 97
3, 122880, Note_off_c, 0, 64, 64
3, 122880, Note_on_c, 0, 57, 97
3, 123120, Note_off_c, 0, 57, 64
3, 123120, Note_on_c, 0, 62, 97
3, 123360, Note_off_c, 0, 62, 64
3, 123360, Note_on_c, 0, 55, 97
3, 123600, Note_off_c, 0, 55, 64
3, 123600, Note_on_c, 0, 67, 97
3, 123960, Note_off_c, 0, 67, 64
3, 123960, Note_on_c, 0, 65, 97
3, 124080, Note_off_c, 0, 65, 64
3, 124080, Note_on_c, 0, 64, 97
3, 124200, Note_off_c, 0, 64, 64
3, 124200, Note_on_c, 0, 62, 97
3, 124320, Note_off_c, 0, 62, 64
3, 124320, Note_on_c, 0, 61, 97
3, 124440, Note_off_c, 0, 61, 64
3, 124440, Note_on_c, 0, 59, 97
3, 124560, Note_off_c, 0, 59, 64
3, 124560, Note_on_c, 0, 57, 97
3, 124680, Note_off_c, 0, 57, 64
3, 124680, Note_on_c, 0, 55, 97
3, 124800, Note_off_c, 0, 55, 64
3, 124800, Note_on_c, 0, 53, 97
3, 124920, Note_off_c, 0, 53, 64
3, 124920, Note_on_c, 0, 52, 97
3, 125040, Note_off_c, 0, 52, 64
3, 125040, Note_on_c, 0, 50, 97
3, 125160, Note_off_c, 0, 50, 64
3, 125160, Note_on_c, 0, 49, 97
3, 125280, Note_off_c, 0, 49, 64
3, 125280, Note_on_c, 0, 50, 97
3, 125760, Note_off_c, 0, 50, 64
3, 126000, Note_on_c, 0, 62, 97
3, 126240, Note_off_c, 0, 62, 64
3, 126240, Note_on_c, 0, 67, 97
3, 126360, Note_off_c, 0, 67, 64
3, 126360, Note_on_c, 0, 66, 97
3, 126480, Note_off_c, 0, 66, 64
3, 126480, Note_on_c, 0, 67, 97
3, 126600, Note_off_c, 0, 67, 64
3, 126600, Note_on_c, 0, 69, 97
3, 126720, Note_off_c, 0, 69, 64
3, 126720, Note_on_c, 0, 71, 97
3, 126840, Note_off_c, 0, 71, 64
3, 126840, Note_on_c, 0, 67, 97
3, 126960, Note_off_c, 0, 67, 64
3, 126960, Note_on_c, 0, 66, 97
3, 127080, Note_off_c, 0, 66, 64
3, 127080, Note_on_c, 0, 64, 97
3, 127200, Note_off_c, 0, 64, 64
3, 127200, Note_on_c, 0, 62, 97
3, 127320, Note_off_c, 0, 62, 64
3, 127320, Note_on_c, 0, 60, 97
3, 127440, Note_off_c, 0, 60, 64
3, 127440, Note_on_c, 0, 59, 97
3, 127560, Note_off_c, 0, 59, 64
3, 127560, Note_on_c, 0, 57, 97
3, 127680, Note_off_c, 0, 57, 64
3, 127680, Note_on_c, 0, 55, 97
3, 128640, Note_off_c, 0, 55, 64
3, 128880, Note_on_c, 0, 64, 97
3, 129120, Note_off_c, 0, 64, 64
3, 129120, Note_on_c, 0, 69, 97
3, 129240, Note_off_c, 0, 69, 64
3, 129240, Note_on_c, 0, 68, 97
3, 129360, Note_off_c, 0, 68, 64
3, 129360, Note_on_c, 0, 69, 97
3, 129480, Note_off_c, 0, 69, 64
3, 129480, Note_on_c, 0, 71, 97
3, 129600, Note_off_c, 0, 71, 64
3, 129600, Note_on_c, 0, 72, 97
3, 129720, Note_off_c, 0, 72, 64
3, 129720, Note_on_c, 0, 69, 97
3, 129840, Note_off_c, 0, 69, 64
3, 129840, Note_on_c, 0, 67, 97
3, 129960, Note_off_c, 0, 67, 64
3, 129960, Note_on_c, 0, 65, 97
3, 130080, Note_off_c, 0, 65, 64
3, 130080, Note_on_c, 0, 64, 97
3, 130200, Note_off_c, 0, 64, 64
3, 130200, Note_on_c, 0, 62, 97
3, 130320, Note_off_c, 0, 62, 64
3, 130320, Note_on_c, 0, 60, 97
3, 130440, Note_off_c, 0, 60, 64
3, 130440, Note_on_c, 0, 59, 97
3, 130560, Note_off_c, 0, 59, 64
3, 130560, Note_on_c, 0, 57, 97
3, 131160, Note_off_c, 0, 57, 64
3, 131160, Note_on_c, 0, 66, 97
3, 131280, Note_off_c, 0, 66, 64
3, 131280, Note_on_c, 0, 57, 97
3, 131400, Note_off_c, 0, 57, 64
3, 131400, Note_on_c, 0, 66, 97
3, 131520, Note_off_c, 0, 66, 64
3, 131520, Note_on_c, 0, 55, 97
3, 131640, Note_off_c, 0, 55, 64
3, 131640, Note_on_c, 0, 64, 97
3, 131760, Note_off_c, 0, 64, 64
3, 131760, Note_on_c, 0, 55, 97
3, 131880, Note_off_c, 0, 55, 64
3, 131880, Note_on_c, 0, 64, 97
3, 132000, Note_off_c, 0, 64, 64
3, 132000, Note_on_c, 0, 54, 97
3, 132120, Note_off_c, 0, 54, 64
3, 132120, Note_on_c, 0, 64, 97
3, 132240, Note_off_c, 0, 64, 64
3, 132240, Note_on_c, 0, 52, 97
3, 132360, Note_off_c, 0, 52, 64
3, 132360, Note_on_c, 0, 64, 97
3, 132480, Note_off_c, 0, 64, 64
3, 132480, Note_on_c, 0, 63, 97
3, 132600, Note_off_c, 0, 63, 64
3, 132600, Note_on_c, 0, 59, 97
3, 132720, Note_off_c, 0, 59, 64
3, 132720, Note_on_c, 0, 61, 97
3, 132840, Note_off_c, 0, 61, 64
3, 132840, Note_on_c, 0, 63, 97
3, 132960, Note_off_c, 0, 63, 64
3, 132960, Note_on_c, 0, 64, 97
3, 133080, Note_off_c, 0, 64, 64
3, 133080, Note_on_c, 0, 63, 97
3, 133200, Note_off_c, 0, 63, 64
3, 133200, Note_on_c, 0, 64, 97
3, 133320, Note_off_c, 0, 64, 64
3, 133320, Note_on_c, 0, 67, 97
3, 133440, Note_off_c, 0, 67, 64
3, 133440, Note_on_c, 0, 66, 97
3, 133560, Note_off_c, 0, 66, 64
3, 133560, Note_on_c, 0, 64, 97
3, 133680, Note_off_c, 0, 64, 64
3, 133680, Note_on_c, 0, 63, 97
3, 133800, Note_off_c, 0, 63, 64
3, 133800, Note_on_c, 0, 61, 97
3, 133920, Note_off_c, 0, 61, 64
3, 133920, Note_on_c, 0, 59, 97
3, 134040, Note_off_c, 0, 59, 64
3, 134040, Note_on_c, 0, 61, 97
3, 134160, Note_off_c, 0, 61, 64
3, 134160, Note_on_c, 0, 62, 97
3, 134280, Note_off_c, 0, 62, 64
3, 134280, Note_on_c, 0, 64, 97
3, 134400, Note_off_c, 0, 64, 64
3, 134400, Note_on_c, 0, 66, 97
3, 134520, Note_off_c, 0, 66, 64
3, 134520, Note_on_c, 0, 69, 97
3, 134640, Note_off_c, 0, 69, 64
3, 134640, Note_on_c, 0, 67, 97
3, 134760, Note_off_c, 0, 67, 64
3, 134760, Note_on_c, 0, 66, 97
3, 134880, Note_off_c, 0, 66, 64
3, 134880, Note_on_c, 0, 71, 97
3, 135000, Note_off_c, 0, 71, 64
3, 135000, Note_on_c, 0, 69, 97
3, 135120, Note_off_c, 0, 69, 64
3, 135120, Note_on_c, 0, 67, 97
3, 135240, Note_off_c, 0, 67, 64
3, 135240, Note_on_c, 0, 66, 97
3, 135360, Note_off_c, 0, 66, 64
3, 135360, Note_on_c, 0, 67, 97
3, 138360, Note_off_c, 0, 67, 64
3, 138360, Note_on_c, 0, 64, 97
3, 138480, Note_off_c, 0, 64, 64
3, 138480, Note_on_c, 0, 66, 97
3, 138600, Note_off_c, 0, 66, 64
3, 138600, Note_on_c, 0, 68, 97
3, 138720, Note_off_c, 0, 68, 64
3, 138720, Note_on_c, 0, 69, 97
3, 138840, Note_off_c, 0, 69, 64
3, 138840, Note_on_c, 0, 68, 97
3, 138960, Note_off_c, 0, 68, 64
3, 138960, Note_on_c, 0, 69, 97
3, 139080, Note_off_c, 0, 69, 64
3, 139080, Note_on_c, 0, 72, 97
3, 139200, Note_off_c, 0, 72, 64
3, 139200, Note_on_c, 0, 71, 97
3, 139320, Note_off_c, 0, 71, 64
3, 139320, Note_on_c, 0, 69, 97
3, 139440, Note_off_c, 0, 69, 64
3, 139440, Note_on_c, 0, 68, 97
3, 139560, Note_off_c, 0, 68, 64
3, 139560, Note_on_c, 0, 66, 97
3, 139680, Note_off_c, 0, 66, 64
3, 139680, Note_on_c, 0, 64, 97
3, 139800, Note_off_c, 0, 64, 64
3, 139800, Note_on_c, 0, 66, 97
3, 139920, Note_off_c, 0, 66, 64
3, 139920, Note_on_c, 0, 68, 97
3, 140040, Note_off_c, 0, 68, 64
3, 140040, Note_on_c, 0, 69, 97
3, 140160, Note_off_c, 0, 69, 64
3, 140160, Note_on_c, 0, 71, 97
3, 140280, Note_off_c, 0, 71, 64
3, 140280, Note_on_c, 0, 74, 97
3, 140400, Note_off_c, 0, 74, 64
3, 140400, Note_on_c, 0, 72, 97
3, 140520, Note_off_c, 0, 72, 64
3, 140520, Note_on_c, 0, 71, 97
3, 140640, Note_off_c, 0, 71, 64
3, 140640, Note_on_c, 0, 76, 97
3, 140760, Note_off_c, 0, 76, 64
3, 140760, Note_on_c, 0, 74, 97
3, 140880, Note_off_c, 0, 74, 64
3, 140880, Note_on_c, 0, 72, 97
3, 141000, Note_off_c, 0, 72, 64
3, 141000, Note_on_c, 0, 71, 97
3, 141120, Note_off_c, 0, 71, 64
3, 141120, Note_on_c, 0, 72, 97
3, 141240, Note_off_c, 0, 72, 64
3, 141240, Note_on_c, 0, 71, 97
3, 141360, Note_off_c, 0, 71, 64
3, 141360, Note_on_c, 0, 69, 97
3, 141480, Note_off_c, 0, 69, 64
3, 141480, Note_on_c, 0, 71, 97
3, 141600, Note_off_c, 0, 71, 64
3, 141600, Note_on_c, 0, 72, 97
3, 141720, Note_off_c, 0, 72, 64
3, 141720, Note_on_c, 0, 71, 97
3, 141840, Note_off_c, 0, 71, 64
3, 141840, Note_on_c, 0, 72, 97
3, 141960, Note_off_c, 0, 72, 64
3, 141960, Note_on_c, 0, 76, 97
3, 142080, Note_off_c, 0, 76, 64
3, 142080, Note_on_c, 0, 74, 97
3, 142200, Note_off_c, 0, 74, 64
3, 142200, Note_on_c, 0, 72, 97
3, 142320, Note_off_c, 0, 72, 64
3, 142320, Note_on_c, 0, 71, 97
3, 142440, Note_off_c, 0, 71, 64
3, 142440, Note_on_c, 0, 69, 97
3, 142560, Note_off_c, 0, 69, 64
3, 142560, Note_on_c, 0, 71, 97
3, 142800, Note_off_c, 0, 71, 64
3, 142800, Note_on_c, 0, 64, 97
3, 143040, Note_off_c, 0, 64, 64
3, 144120, Note_on_c, 0, 69, 97
3, 144240, Note_off_c, 0, 69, 64
3, 144240, Note_on_c, 0, 68, 97
3, 144360, Note_off_c, 0, 68, 64
3, 144360, Note_on_c, 0, 69, 97
3, 144480, Note_off_c, 0, 69, 64
3, 144480, Note_on_c, 0, 72, 97
3, 144600, Note_off_c, 0, 72, 64
3, 144600, Note_on_c, 0, 69, 97
3, 144720, Note_off_c, 0, 69, 64
3, 144720, Note_on_c, 0, 68, 97
3, 144840, Note_off_c, 0, 68, 64
3, 144840, Note_on_c, 0, 69, 97
3, 144960, Note_off_c, 0, 69, 64
3, 144960, Note_on_c, 0, 64, 97
3, 145080, Note_off_c, 0, 64, 64
3, 145080, Note_on_c, 0, 69, 97
3, 145200, Note_off_c, 0, 69, 64
3, 145200, Note_on_c, 0, 60, 97
3, 145320, Note_off_c, 0, 60, 64
3, 145320, Note_on_c, 0, 64, 97
3, 145440, Note_off_c, 0, 64, 64
3, 145440, Note_on_c, 0, 57, 97
3, 145680, Note_off_c, 0, 57, 64
3, 147000, Note_on_c, 0, 67, 97
3, 147120, Note_off_c, 0, 67, 64
3, 147120, Note_on_c, 0, 66, 97
3, 147240, Note_off_c, 0, 66, 64
3, 147240, Note_on_c, 0, 67, 97
3, 147360, Note_off_c, 0, 67, 64
3, 147360, Note_on_c, 0, 71, 97
3, 147480, Note_off_c, 0, 71, 64
3, 147480, Note_on_c, 0, 67, 97
3, 147600, Note_off_c, 0, 67, 64
3, 147600, Note_on_c, 0, 66, 97
3, 147720, Note_off_c, 0, 66, 64
3, 147720, Note_on_c, 0, 67, 97
3, 147840, Note_off_c, 0, 67, 64
3, 147840, Note_on_c, 0, 62, 97
3, 147960, Note_off_c, 0, 62, 64
3, 147960, Note_on_c, 0, 67, 97
3, 148080, Note_off_c, 0, 67, 64
3, 148080, Note_on_c, 0, 59, 97
3, 148200, Note_off_c, 0, 59, 64
3, 148200, Note_on_c, 0, 62, 97
3, 148320, Note_off_c, 0, 62, 64
3, 148320, Note_on_c, 0, 55, 97
3, 148560, Note_off_c, 0, 55, 64
3, 151440, Note_on_c, 0, 64, 97
3, 151680, Note_off_c, 0, 64, 64
3, 151680, Note_on_c, 0, 60, 97
3, 151920, Note_off_c, 0, 60, 64
3, 151920, Note_on_c, 0, 64, 97
3, 152160, Note_off_c, 0, 64, 64
3, 152160, Note_on_c, 0, 65, 97
3, 152400, Note_off_c, 0, 65, 64
3, 152400, Note_on_c, 0, 64, 97
3, 152520, Note_off_c, 0, 64, 64
3, 152520, Note_on_c, 0, 62, 97
3, 152640, Note_off_c, 0, 62, 64
3, 152640, Note_on_c, 0, 64, 97
3, 152760, Note_off_c, 0, 64, 64
3, 152760, Note_on_c, 0, 60, 97
3, 152880, Note_off_c, 0, 60, 64
3, 152880, Note_on_c, 0, 59, 97
3, 153000, Note_off_c, 0, 59, 64
3, 153000, Note_on_c, 0, 60, 97
3, 153120, Note_off_c, 0, 60, 64
3, 153120, Note_on_c, 0, 64, 97
3, 153240, Note_off_c, 0, 64, 64
3, 153240, Note_on_c, 0, 60, 97
3, 153360, Note_off_c, 0, 60, 64
3, 153360, Note_on_c, 0, 59, 97
3, 153480, Note_off_c, 0, 59, 64
3, 153480, Note_on_c, 0, 60, 97
3, 153600, Note_off_c, 0, 60, 64
3, 153600, Note_on_c, 0, 55, 97
3, 153720, Note_off_c, 0, 55, 64
3, 153720, Note_on_c, 0, 60, 97
3, 153840, Note_off_c, 0, 60, 64
3, 153840, Note_on_c, 0, 52, 97
3, 153960, Note_off_c, 0, 52, 64
3, 153960, Note_on_c, 0, 55, 97
3, 154080, Note_off_c, 0, 55, 64
3, 154080, Note_on_c, 0, 48, 97
3, 154320, Note_off_c, 0, 48, 64
3, 154320, Note_on_c, 0, 67, 97
3, 154560, Note_off_c, 0, 67, 64
3, 154560, Note_on_c, 0, 64, 97
3, 154800, Note_off_c, 0, 64, 64
3, 154800, Note_on_c, 0, 67, 97
3, 155040, Note_off_c, 0, 67, 64
3, 155040, Note_on_c, 0, 69, 97
3, 155280, Note_off_c, 0, 69, 64
3, 155280, Note_on_c, 0, 67, 97
3, 155400, Note_off_c, 0, 67, 64
3, 155400, Note_on_c, 0, 65, 97
3, 155520, Note_off_c, 0, 65, 64
3, 155520, Note_on_c, 0, 67, 97
3, 155640, Note_off_c, 0, 67, 64
3, 155640, Note_on_c, 0, 64, 97
3, 155760, Note_off_c, 0, 64, 64
3, 155760, Note_on_c, 0, 60, 97
3, 155880, Note_off_c, 0, 60, 64
3, 155880, Note_on_c, 0, 64, 97
3, 156000, Note_off_c, 0, 64, 64
3, 156000, Note_on_c, 0, 69, 97
3, 156120, Note_off_c, 0, 69, 64
3, 156120, Note_on_c, 0, 64, 97
3, 156240, Note_off_c, 0, 64, 64
3, 156240, Note_on_c, 0, 60, 97
3, 156360, Note_off_c, 0, 60, 64
3, 156360, Note_on_c, 0, 64, 97
3, 156480, Note_off_c, 0, 64, 64
3, 156480, Note_on_c, 0, 72, 97
3, 157080, Note_off_c, 0, 72, 64
3, 157080, Note_on_c, 0, 65, 97
3, 157200, Note_off_c, 0, 65, 64
3, 157200, Note_on_c, 0, 62, 97
3, 157320, Note_off_c, 0, 62, 64
3, 157320, Note_on_c, 0, 65, 97
3, 157440, Note_off_c, 0, 65, 64
3, 157440, Note_on_c, 0, 71, 97
3, 157560, Note_off_c, 0, 71, 64
3, 157560, Note_on_c, 0, 65, 97
3, 157680, Note_off_c, 0, 65, 64
3, 157680, Note_on_c, 0, 62, 97
3, 157800, Note_off_c, 0, 62, 64
3, 157800, Note_on_c, 0, 65, 97
3, 157920, Note_off_c, 0, 65, 64
3, 157920, Note_on_c, 0, 74, 97
3, 158520, Note_off_c, 0, 74, 64
3, 158520, Note_on_c, 0, 67, 97
3, 158640, Note_off_c, 0, 67, 64
3, 158640, Note_on_c, 0, 64, 97
3, 158760, Note_off_c, 0, 64, 64
3, 158760, Note_on_c, 0, 67, 97
3, 158880, Note_off_c, 0, 67, 64
3, 158880, Note_on_c, 0, 72, 97
3, 159000, Note_off_c, 0, 72, 64
3, 159000, Note_on_c, 0, 67, 97
3, 159120, Note_off_c, 0, 67, 64
3, 159120, Note_on_c, 0, 64, 97
3, 159240, Note_off_c, 0, 64, 64
3, 159240, Note_on_c, 0, 67, 97
3, 159360, Note_off_c, 0, 67, 64
3, 159360, Note_on_c, 0, 76, 97
3, 160080, Note_off_c, 0, 76, 64
3, 160080, Note_on_c, 0, 74, 97
3, 160200, Note_off_c, 0, 74, 64
3, 160200, Note_on_c, 0, 72, 97
3, 160320, Note_off_c, 0, 72, 64
3, 160320, Note_on_c, 0, 74, 97
3, 160560, Note_off_c, 0, 74, 64
3, 160560, Note_on_c, 0, 69, 97
3, 160800, Note_off_c, 0, 69, 64
3, 160800, Note_on_c, 0, 77, 97
3, 161520, Note_off_c, 0, 77, 64
3, 161520, Note_on_c, 0, 74, 97
3, 161760, Note_off_c, 0, 74, 64
3, 161760, Note_on_c, 0, 71, 97
3, 162000, Note_off_c, 0, 71, 64
3, 162000, Note_on_c, 0, 74, 97
3, 162240, Note_off_c, 0, 74, 64
3, 162240, Note_on_c, 0, 67, 97
3, 162480, Note_off_c, 0, 67, 64
3, 162480, Note_on_c, 0, 71, 97
3, 162720, Note_off_c, 0, 71, 64
3, 162720, Note_on_c, 0, 72, 97
3, 162840, Note_off_c, 0, 72, 64
3, 162840, Note_on_c, 0, 74, 97
3, 162960, Note_off_c, 0, 74, 64
3, 162960, Note_on_c, 0, 75, 97
3, 163080, Note_off_c, 0, 75, 64
3, 163080, Note_on_c, 0, 77, 97
3, 163200, Note_off_c, 0, 77, 64
3, 163200, Note_on_c, 0, 75, 97
3, 163320, Note_off_c, 0, 75, 64
3, 163320, Note_on_c, 0, 74, 97
3, 163440, Note_off_c, 0, 74, 64
3, 163440, Note_on_c, 0, 72, 97
3, 163560, Note_off_c, 0, 72, 64
3, 163560, Note_on_c, 0, 70, 97
3, 163680, Note_off_c, 0, 70, 64
3, 163680, Note_on_c, 0, 69, 97
3, 163800, Note_off_c, 0, 69, 64
3, 163800, Note_on_c, 0, 67, 97
3, 163920, Note_off_c, 0, 67, 64
3, 163920, Note_on_c, 0, 66, 97
3, 164040, Note_off_c, 0, 66, 64
3, 164040, Note_on_c, 0, 64, 97
3, 164160, Note_off_c, 0, 64, 64
3, 164160, Note_on_c, 0, 66, 97
3, 164400, Note_off_c, 0, 66, 64
3, 164400, Note_on_c, 0, 60, 97
3, 164640, Note_off_c, 0, 60, 64
3, 164640, Note_on_c, 0, 69, 97
3, 164880, Note_off_c, 0, 69, 64
3, 164880, Note_on_c, 0, 66, 97
3, 165120, Note_off_c, 0, 66, 64
3, 165120, Note_on_c, 0, 72, 97
3, 165720, Note_off_c, 0, 72, 64
3, 165720, Note_on_c, 0, 71, 97
3, 165840, Note_off_c, 0, 71, 64
3, 165840, Note_on_c, 0, 69, 97
3, 165960, Note_off_c, 0, 69, 64
3, 165960, Note_on_c, 0, 71, 97
3, 166080, Note_off_c, 0, 71, 64
3, 166080, Note_on_c, 0, 67, 97
3, 166200, Note_off_c, 0, 67, 64
3, 166200, Note_on_c, 0, 76, 97
3, 166320, Note_off_c, 0, 76, 64
3, 166320, Note_on_c, 0, 74, 97
3, 166440, Note_off_c, 0, 74, 64
3, 166440, Note_on_c, 0, 72, 97
3, 166560, Note_off_c, 0, 72, 64
3, 166560, Note_on_c, 0, 71, 97
3, 166680, Note_off_c, 0, 71, 64
3, 166680, Note_on_c, 0, 69, 97
3, 166800, Note_off_c, 0, 69, 64
3, 166800, Note_on_c, 0, 67, 97
3, 166920, Note_off_c, 0, 67, 64
3, 166920, Note_on_c, 0, 66, 97
3, 167040, Note_off_c, 0, 66, 64
3, 167040, Note_on_c, 0, 64, 97
3, 167160, Note_off_c, 0, 64, 64
3, 167160, Note_on_c, 0, 66, 97
3, 167280, Note_off_c, 0, 66, 64
3, 167280, Note_on_c, 0, 62, 97
3, 167400, Note_off_c, 0, 62, 64
3, 167400, Note_on_c, 0, 64, 97
3, 167520, Note_off_c, 0, 64, 64
3, 167520, Note_on_c, 0, 60, 97
3, 167640, Note_off_c, 0, 60, 64
3, 167640, Note_on_c, 0, 74, 97
3, 167760, Note_off_c, 0, 74, 64
3, 167760, Note_on_c, 0, 72, 97
3, 167880, Note_off_c, 0, 72, 64
3, 167880, Note_on_c, 0, 71, 97
3, 168000, Note_off_c, 0, 71, 64
3, 168000, Note_on_c, 0, 69, 97
3, 168120, Note_off_c, 0, 69, 64
3, 168120, Note_on_c, 0, 67, 97
3, 168240, Note_off_c, 0, 67, 64
3, 168240, Note_on_c, 0, 66, 97
3, 168360, Note_off_c, 0, 66, 64
3, 168360, Note_on_c, 0, 64, 97
3, 168480, Note_off_c, 0, 64, 64
3, 168480, Note_on_c, 0, 62, 97
3, 168600, Note_off_c, 0, 62, 64
3, 168600, Note_on_c, 0, 64, 97
3, 168720, Note_off_c, 0, 64, 64
3, 168720, Note_on_c, 0, 60, 97
3, 168840, Note_off_c, 0, 60, 64
3, 168840, Note_on_c, 0, 62, 97
3, 168960, Note_off_c, 0, 62, 64
3, 168960, Note_on_c, 0, 59, 97
3, 169080, Note_off_c, 0, 59, 64
3, 169080, Note_on_c, 0, 72, 97
3, 169200, Note_off_c, 0, 72, 64
3, 169200, Note_on_c, 0, 71, 97
3, 169320, Note_off_c, 0, 71, 64
3, 169320, Note_on_c, 0, 69, 97
3, 169440, Note_off_c, 0, 69, 64
3, 169440, Note_on_c, 0, 67, 97
3, 169560, Note_off_c, 0, 67, 64
3, 169560, Note_on_c, 0, 66, 97
3, 169680, Note_off_c, 0, 66, 64
3, 169680, Note_on_c, 0, 64, 97
3, 169800, Note_off_c, 0, 64, 64
3, 169800, Note_on_c, 0, 62, 97
3, 169920, Note_off_c, 0, 62, 64
3, 169920, Note_on_c, 0, 60, 97
3, 170160, Note_off_c, 0, 60, 64
3, 170160, Note_on_c, 0, 64, 97
3, 170640, Note_off_c, 0, 64, 64
3, 170640, Note_on_c, 0, 69, 97
3, 171120, Note_off_c, 0, 69, 64
3, 171120, Note_on_c, 0, 72, 97
3, 171480, Note_off_c, 0, 72, 64
3, 171480, Note_on_c, 0, 67, 97
3, 171600, Note_off_c, 0, 67, 64
3, 171600, Note_on_c, 0, 69, 97
3, 171720, Note_off_c, 0, 69, 64
3, 171720, Note_on_c, 0, 66, 97
3, 171840, Note_off_c, 0, 66, 64
3, 171840, Note_on_c, 0, 67, 97
3, 172080, Note_off_c, 0, 67, 64
3, 172080, Note_on_c, 0, 69, 97
3, 172320, Note_off_c, 0, 69, 64
3, 172320, Note_on_c, 0, 62, 97
3, 172560, Note_off_c, 0, 62, 64
3, 172560, Note_on_c, 0, 66, 97
3, 172800, Note_off_c, 0, 66, 64
3, 172920, Note_on_c, 0, 67, 97
3, 173040, Note_off_c, 0, 67, 64
3, 173040, Note_on_c, 0, 66, 97
3, 173160, Note_off_c, 0, 66, 64
3, 173160, Note_on_c, 0, 67, 97
3, 173280, Note_off_c, 0, 67, 64
3, 173280, Note_on_c, 0, 71, 97
3, 173400, Note_off_c, 0, 71, 64
3, 173400, Note_on_c, 0, 67, 97
3, 173520, Note_off_c, 0, 67, 64
3, 173520, Note_on_c, 0, 66, 97
3, 173640, Note_off_c, 0, 66, 64
3, 173640, Note_on_c, 0, 67, 97
3, 173760, Note_off_c, 0, 67, 64
3, 173760, Note_on_c, 0, 62, 97
3, 173880, Note_off_c, 0, 62, 64
3, 173880, Note_on_c, 0, 67, 97
3, 174000, Note_off_c, 0, 67, 64
3, 174000, Note_on_c, 0, 59, 97
3, 174120, Note_off_c, 0, 59, 64
3, 174120, Note_on_c, 0, 62, 97
3, 174240, Note_off_c, 0, 62, 64
3, 174240, Note_on_c, 0, 55, 97
3, 174480, Note_off_c, 0, 55, 64
3, 174480, Note_on_c, 0, 74, 97
3, 174720, Note_off_c, 0, 74, 64
3, 174720, Note_on_c, 0, 71, 97
3, 174960, Note_off_c, 0, 71, 64
3, 174960, Note_on_c, 0, 74, 97
3, 175200, Note_off_c, 0, 74, 64
3, 175200, Note_on_c, 0, 76, 97
3, 175440, Note_off_c, 0, 76, 64
3, 175440, Note_on_c, 0, 74, 97
3, 175560, Note_off_c, 0, 74, 64
3, 175560, Note_on_c, 0, 72, 97
3, 175680, Note_off_c, 0, 72, 64
3, 175680, Note_on_c, 0, 74, 97
3, 176160, Note_off_c, 0, 74, 64
3, 177360, Note_on_c, 0, 59, 97
3, 177600, Note_off_c, 0, 59, 64
3, 177600, Note_on_c, 0, 55, 97
3, 177840, Note_off_c, 0, 55, 64
3, 177840, Note_on_c, 0, 59, 97
3, 178080, Note_off_c, 0, 59, 64
3, 178080, Note_on_c, 0, 60, 97
3, 178320, Note_off_c, 0, 60, 64
3, 178320, Note_on_c, 0, 59, 97
3, 178440, Note_off_c, 0, 59, 64
3, 178440, Note_on_c, 0, 57, 97
3, 178560, Note_off_c, 0, 57, 64
3, 178560, Note_on_c, 0, 59, 97
3, 178800, Note_off_c, 0, 59, 64
3, 178800, Note_on_c, 0, 62, 97
3, 179040, Note_off_c, 0, 62, 64
3, 179040, Note_on_c, 0, 55, 97
3, 179280, Note_off_c, 0, 55, 64
3, 179280, Note_on_c, 0, 59, 97
3, 179520, Note_off_c, 0, 59, 64
3, 179520, Note_on_c, 0, 52, 97
3, 179640, Note_off_c, 0, 52, 64
3, 179640, Note_on_c, 0, 55, 97
3, 179760, Note_off_c, 0, 55, 64
3, 179760, Note_on_c, 0, 57, 97
3, 179880, Note_off_c, 0, 57, 64
3, 179880, Note_on_c, 0, 59, 97
3, 180000, Note_off_c, 0, 59, 64
3, 180000, Note_on_c, 0, 60, 97
3, 180240, Note_off_c, 0, 60, 64
3, 180240, Note_on_c, 0, 64, 97
3, 180480, Note_off_c, 0, 64, 64
3, 180480, Note_on_c, 0, 57, 97
3, 180720, Note_off_c, 0, 57, 64
3, 180720, Note_on_c, 0, 60, 97
3, 180960, Note_off_c, 0, 60, 64
3, 180960, Note_on_c, 0, 54, 97
3, 181080, Note_off_c, 0, 54, 64
3, 181080, Note_on_c, 0, 57, 97
3, 181200, Note_off_c, 0, 57, 64
3, 181200, Note_on_c, 0, 59, 97
3, 181320, Note_off_c, 0, 59, 64
3, 181320, Note_on_c, 0, 60, 97
3, 181440, Note_off_c, 0, 60, 64
3, 181440, Note_on_c, 0, 62, 97
3, 181680, Note_off_c, 0, 62, 64
3, 181680, Note_on_c, 0, 67, 97
3, 181800, Note_off_c, 0, 67, 64
3, 181800, Note_on_c, 0, 62, 97
3, 181920, Note_off_c, 0, 62, 64
3, 181920, Note_on_c, 0, 59, 97
3, 182160, Note_off_c, 0, 59, 64
3, 182160, Note_on_c, 0, 62, 97
3, 182280, Note_off_c, 0, 62, 64
3, 182280, Note_on_c, 0, 59, 97
3, 182400, Note_off_c, 0, 59, 64
3, 182400, Note_on_c, 0, 55, 97
3, 182520, Note_off_c, 0, 55, 64
3, 182520, Note_on_c, 0, 59, 97
3, 182640, Note_off_c, 0, 59, 64
3, 182640, Note_on_c, 0, 60, 97
3, 182760, Note_off_c, 0, 60, 64
3, 182760, Note_on_c, 0, 62, 97
3, 182880, Note_off_c, 0, 62, 64
3, 182880, Note_on_c, 0, 64, 97
3, 183000, Note_off_c, 0, 64, 64
3, 183000, Note_on_c, 0, 62, 97
3, 183120, Note_off_c, 0, 62, 64
3, 183120, Note_on_c, 0, 64, 97
3, 183240, Note_off_c, 0, 64, 64
3, 183240, Note_on_c, 0, 65, 97
3, 183360, Note_off_c, 0, 65, 64
3, 183360, Note_on_c, 0, 64, 97
3, 183480, Note_off_c, 0, 64, 64
3, 183480, Note_on_c, 0, 62, 97
3, 183600, Note_off_c, 0, 62, 64
3, 183600, Note_on_c, 0, 60, 97
3, 183720, Note_off_c, 0, 60, 64
3, 183720, Note_on_c, 0, 59, 97
3, 183840, Note_off_c, 0, 59, 64
3, 183840, Note_on_c, 0, 57, 97
3, 183960, Note_off_c, 0, 57, 64
3, 183960, Note_on_c, 0, 55, 97
3, 184080, Note_off_c, 0, 55, 64
3, 184080, Note_on_c, 0, 54, 97
3, 184200, Note_off_c, 0, 54, 64
3, 184200, Note_on_c, 0, 52, 97
3, 184320, Note_off_c, 0, 52, 64
3, 184320, Note_on_c, 0, 54, 97
3, 184440, Note_off_c, 0, 54, 64
3, 184440, Note_on_c, 0, 55, 97
3, 184560, Note_off_c, 0, 55, 64
3, 184560, Note_on_c, 0, 54, 97
3, 184680, Note_off_c, 0, 54, 64
3, 184680, Note_on_c, 0, 50, 97
3, 184800, Note_off_c, 0, 50, 64
3, 184800, Note_on_c, 0, 57, 97
3, 184920, Note_off_c, 0, 57, 64
3, 184920, Note_on_c, 0, 59, 97
3, 185040, Note_off_c, 0, 59, 64
3, 185040, Note_on_c, 0, 57, 97
3, 185160, Note_off_c, 0, 57, 64
3, 185160, Note_on_c, 0, 54, 97
3, 185280, Note_off_c, 0, 54, 64
3, 185280, Note_on_c, 0, 60, 97
3, 185400, Note_off_c, 0, 60, 64
3, 185400, Note_on_c, 0, 62, 97
3, 185520, Note_off_c, 0, 62, 64
3, 185520, Note_on_c, 0, 60, 97
3, 185640, Note_off_c, 0, 60, 64
3, 185640, Note_on_c, 0, 57, 97
3, 185760, Note_off_c, 0, 57, 64
3, 185760, Note_on_c, 0, 58, 97
3, 186000, Note_off_c, 0, 58, 64
3, 186000, Note_on_c, 0, 55, 97
3, 186240, Note_off_c, 0, 55, 64
3, 186240, Note_on_c, 0, 62, 97
3, 186480, Note_off_c, 0, 62, 64
3, 186480, Note_on_c, 0, 58, 97
3, 186720, Note_off_c, 0, 58, 64
3, 186720, Note_on_c, 0, 67, 97
3, 187320, Note_off_c, 0, 67, 64
3, 187320, Note_on_c, 0, 65, 97
3, 187440, Note_off_c, 0, 65, 64
3, 187440, Note_on_c, 0, 64, 97
3, 187560, Note_off_c, 0, 64, 64
3, 187560, Note_on_c, 0, 62, 97
3, 187680, Note_off_c, 0, 62, 64
3, 187680, Note_on_c, 0, 61, 97
3, 187800, Note_off_c, 0, 61, 64
3, 187800, Note_on_c, 0, 64, 97
3, 187920, Note_off_c, 0, 64, 64
3, 187920, Note_on_c, 0, 58, 97
3, 188040, Note_off_c, 0, 58, 64
3, 188040, Note_on_c, 0, 57, 97
3, 188160, Note_off_c, 0, 57, 64
3, 188160, Note_on_c, 0, 58, 97
3, 188280, Note_off_c, 0, 58, 64
3, 188280, Note_on_c, 0, 55, 97
3, 188400, Note_off_c, 0, 55, 64
3, 188400, Note_on_c, 0, 62, 97
3, 188520, Note_off_c, 0, 62, 64
3, 188520, Note_on_c, 0, 60, 97
3, 188640, Note_off_c, 0, 60, 64
3, 188640, Note_on_c, 0, 62, 97
3, 189240, Note_off_c, 0, 62, 64
3, 189240, Note_on_c, 0, 71, 97
3, 189360, Note_off_c, 0, 71, 64
3, 189360, Note_on_c, 0, 69, 97
3, 189480, Note_off_c, 0, 69, 64
3, 189480, Note_on_c, 0, 67, 97
3, 189600, Note_off_c, 0, 67, 64
3, 189600, Note_on_c, 0, 74, 97
3, 190200, Note_off_c, 0, 74, 64
3, 190200, Note_on_c, 0, 71, 97
3, 190320, Note_off_c, 0, 71, 64
3, 190320, Note_on_c, 0, 76, 97
3, 190440, Note_off_c, 0, 76, 64
3, 190440, Note_on_c, 0, 74, 97
3, 190560, Note_off_c, 0, 74, 64
3, 190560, Note_on_c, 0, 72, 97
3, 190680, Note_off_c, 0, 72, 64
3, 190680, Note_on_c, 0, 71, 97
3, 190800, Note_off_c, 0, 71, 64
3, 190800, Note_on_c, 0, 69, 97
3, 190920, Note_off_c, 0, 69, 64
3, 190920, Note_on_c, 0, 67, 97
3, 191040, Note_off_c, 0, 67, 64
3, 191040, Note_on_c, 0, 66, 97
3, 191280, Note_off_c, 0, 66, 64
3, 191280, Note_on_c, 0, 72, 97
3, 191640, Note_off_c, 0, 72, 64
3, 191640, Note_on_c, 0, 71, 97
3, 191760, Note_off_c, 0, 71, 64
3, 191760, Note_on_c, 0, 69, 97
3, 191880, Note_off_c, 0, 69, 64
3, 191880, Note_on_c, 0, 67, 97
3, 192000, Note_off_c, 0, 67, 64
3, 192000, Note_on_c, 0, 76, 97
3, 192600, Note_off_c, 0, 76, 64
3, 192600, Note_on_c, 0, 77, 97
3, 192720, Note_off_c, 0, 77, 64
3, 192720, Note_on_c, 0, 76, 97
3, 192840, Note_off_c, 0, 76, 64
3, 192840, Note_on_c, 0, 74, 97
3, 192960, Note_off_c, 0, 74, 64
3, 192960, Note_on_c, 0, 72, 97
3, 193680, Note_off_c, 0, 72, 64
3, 193680, Note_on_c, 0, 71, 97
3, 193800, Note_off_c, 0, 71, 64
3, 193800, Note_on_c, 0, 69, 97
3, 193920, Note_off_c, 0, 69, 64
3, 193920, Note_on_c, 0, 67, 97
3, 194040, Note_off_c, 0, 67, 64
3, 194040, Note_on_c, 0, 65, 97
3, 194160, Note_off_c, 0, 65, 64
3, 194160, Note_on_c, 0, 64, 97
3, 194280, Note_off_c, 0, 64, 64
3, 194280, Note_on_c, 0, 62, 97
3, 194400, Note_off_c, 0, 62, 64
3, 194400, Note_on_c, 0, 60, 97
3, 194640, Note_off_c, 0, 60, 64
3, 194640, Note_on_c, 0, 67, 97
3, 194880, Note_off_c, 0, 67, 64
3, 194880, Note_on_c, 0, 64, 97
3, 195120, Note_off_c, 0, 64, 64
3, 195120, Note_on_c, 0, 67, 97
3, 195360, Note_off_c, 0, 67, 64
3, 195360, Note_on_c, 0, 69, 97
3, 195960, Note_off_c, 0, 69, 64
3, 195960, Note_on_c, 0, 65, 97
3, 196080, Note_off_c, 0, 65, 64
3, 196080, Note_on_c, 0, 64, 97
3, 196200, Note_off_c, 0, 64, 64
3, 196200, Note_on_c, 0, 65, 97
3, 196320, Note_off_c, 0, 65, 64
3, 196320, Note_on_c, 0, 69, 97
3, 196440, Note_off_c, 0, 69, 64
3, 196440, Note_on_c, 0, 65, 97
3, 196560, Note_off_c, 0, 65, 64
3, 196560, Note_on_c, 0, 64, 97
3, 196680, Note_off_c, 0, 64, 64
3, 196680, Note_on_c, 0, 65, 97
3, 196800, Note_off_c, 0, 65, 64
3, 196800, Note_on_c, 0, 62, 97
3, 196920, Note_off_c, 0, 62, 64
3, 196920, Note_on_c, 0, 65, 97
3, 197040, Note_off_c, 0, 65, 64
3, 197040, Note_on_c, 0, 58, 97
3, 197160, Note_off_c, 0, 58, 64
3, 197160, Note_on_c, 0, 62, 97
3, 197280, Note_off_c, 0, 62, 64
3, 197280, Note_on_c, 0, 55, 97
3, 197520, Note_off_c, 0, 55, 64
3, 197520, Note_on_c, 0, 70, 97
3, 197760, Note_off_c, 0, 70, 64
3, 197760, Note_on_c, 0, 67, 97
3, 198000, Note_off_c, 0, 67, 64
3, 198000, Note_on_c, 0, 70, 97
3, 198240, Note_off_c, 0, 70, 64
3, 198240, Note_on_c, 0, 72, 97
3, 198960, Note_off_c, 0, 72, 64
3, 198960, Note_on_c, 0, 65, 97
3, 199200, Note_off_c, 0, 65, 64
3, 199200, Note_on_c, 0, 69, 97
3, 199440, Note_off_c, 0, 69, 64
3, 199440, Note_on_c, 0, 72, 97
3, 199680, Note_off_c, 0, 72, 64
3, 199680, Note_on_c, 0, 75, 97
3, 199920, Note_off_c, 0, 75, 64
3, 199920, Note_on_c, 0, 74, 97
3, 200040, Note_off_c, 0, 74, 64
3, 200040, Note_on_c, 0, 72, 97
3, 200160, Note_off_c, 0, 72, 64
3, 200160, Note_on_c, 0, 74, 97
3, 200400, Note_off_c, 0, 74, 64
3, 200400, Note_on_c, 0, 70, 97
3, 200640, Note_off_c, 0, 70, 64
3, 200640, Note_on_c, 0, 65, 97
3, 200880, Note_off_c, 0, 65, 64
3, 200880, Note_on_c, 0, 70, 97
3, 201120, Note_off_c, 0, 70, 64
3, 201120, Note_on_c, 0, 74, 97
3, 201360, Note_off_c, 0, 74, 64
3, 201360, Note_on_c, 0, 72, 97
3, 201480, Note_off_c, 0, 72, 64
3, 201480, Note_on_c, 0, 70, 97
3, 201600, Note_off_c, 0, 70, 64
3, 201600, Note_on_c, 0, 72, 97
3, 201840, Note_off_c, 0, 72, 64
3, 201840, Note_on_c, 0, 69, 97
3, 202080, Note_off_c, 0, 69, 64
3, 202080, Note_on_c, 0, 65, 97
3, 202320, Note_off_c, 0, 65, 64
3, 202320, Note_on_c, 0, 69, 97
3, 202560, Note_off_c, 0, 69, 64
3, 202560, Note_on_c, 0, 72, 97
3, 202800, Note_off_c, 0, 72, 64
3, 202800, Note_on_c, 0, 70, 97
3, 202920, Note_off_c, 0, 70, 64
3, 202920, Note_on_c, 0, 69, 97
3, 203040, Note_off_c, 0, 69, 64
3, 203040, Note_on_c, 0, 70, 97
3, 203280, Note_off_c, 0, 70, 64
3, 203280, Note_on_c, 0, 67, 97
3, 203520, Note_off_c, 0, 67, 64
3, 203520, Note_on_c, 0, 64, 97
3, 203760, Note_off_c, 0, 64, 64
3, 203760, Note_on_c, 0, 67, 97
3, 204000, Note_off_c, 0, 67, 64
3, 204000, Note_on_c, 0, 70, 97
3, 204240, Note_off_c, 0, 70, 64
3, 204240, Note_on_c, 0, 69, 97
3, 204360, Note_off_c, 0, 69, 64
3, 204360, Note_on_c, 0, 67, 97
3, 204480, Note_off_c, 0, 67, 64
3, 204480, Note_on_c, 0, 69, 97
3, 204600, Note_off_c, 0, 69, 64
3, 204600, Note_on_c, 0, 65, 97
3, 204720, Note_off_c, 0, 65, 64
3, 204720, Note_on_c, 0, 64, 97
3, 204840, Note_off_c, 0, 64, 64
3, 204840, Note_on_c, 0, 65, 97
3, 204960, Note_off_c, 0, 65, 64
3, 204960, Note_on_c, 0, 69, 97
3, 205080, Note_off_c, 0, 69, 64
3, 205080, Note_on_c, 0, 65, 97
3, 205200, Note_off_c, 0, 65, 64
3, 205200, Note_on_c, 0, 64, 97
3, 205320, Note_off_c, 0, 64, 64
3, 205320, Note_on_c, 0, 65, 97
3, 205440, Note_off_c, 0, 65, 64
3, 205440, Note_on_c, 0, 62, 97
3, 205560, Note_off_c, 0, 62, 64
3, 205560, Note_on_c, 0, 65, 97
3, 205680, Note_off_c, 0, 65, 64
3, 205680, Note_on_c, 0, 59, 97
3, 205800, Note_off_c, 0, 59, 64
3, 205800, Note_on_c, 0, 62, 97
3, 205920, Note_off_c, 0, 62, 64
3, 205920, Note_on_c, 0, 55, 97
3, 206040, Note_off_c, 0, 55, 64
3, 206040, Note_on_c, 0, 64, 97
3, 206160, Note_off_c, 0, 64, 64
3, 206160, Note_on_c, 0, 62, 97
3, 206280, Note_off_c, 0, 62, 64
3, 206280, Note_on_c, 0, 64, 97
3, 206400, Note_off_c, 0, 64, 64
3, 206400, Note_on_c, 0, 67, 97
3, 206520, Note_off_c, 0, 67, 64
3, 206520, Note_on_c, 0, 64, 97
3, 206640, Note_off_c, 0, 64, 64
3, 206640, Note_on_c, 0, 62, 97
3, 206760, Note_off_c, 0, 62, 64
3, 206760, Note_on_c, 0, 64, 97
3, 206880, Note_off_c, 0, 64, 64
3, 206880, Note_on_c, 0, 60, 97
3, 207000, Note_off_c, 0, 60, 64
3, 207000, Note_on_c, 0, 64, 97
3, 207120, Note_off_c, 0, 64, 64
3, 207120, Note_on_c, 0, 57, 97
3, 207240, Note_off_c, 0, 57, 64
3, 207240, Note_on_c, 0, 60, 97
3, 207360, Note_off_c, 0, 60, 64
3, 207360, Note_on_c, 0, 53, 97
3, 207480, Note_off_c, 0, 53, 64
3, 207480, Note_on_c, 0, 62, 97
3, 207600, Note_off_c, 0, 62, 64
3, 207600, Note_on_c, 0, 60, 97
3, 207720, Note_off_c, 0, 60, 64
3, 207720, Note_on_c, 0, 62, 97
3, 207840, Note_off_c, 0, 62, 64
3, 207840, Note_on_c, 0, 65, 97
3, 207960, Note_off_c, 0, 65, 64
3, 207960, Note_on_c, 0, 62, 97
3, 208080, Note_off_c, 0, 62, 64
3, 208080, Note_on_c, 0, 60, 97
3, 208200, Note_off_c, 0, 60, 64
3, 208200, Note_on_c, 0, 62, 97
3, 208320, Note_off_c, 0, 62, 64
3, 208320, Note_on_c, 0, 59, 97
3, 208440, Note_off_c, 0, 59, 64
3, 208440, Note_on_c, 0, 62, 97
3, 208560, Note_off_c, 0, 62, 64
3, 208560, Note_on_c, 0, 55, 97
3, 208680, Note_off_c, 0, 55, 64
3, 208680, Note_on_c, 0, 59, 97
3, 208800, Note_off_c, 0, 59, 64
3, 208800, Note_on_c, 0, 52, 97
3, 208920, Note_off_c, 0, 52, 64
3, 208920, Note_on_c, 0, 64, 97
3, 209040, Note_off_c, 0, 64, 64
3, 209040, Note_on_c, 0, 62, 97
3, 209160, Note_off_c, 0, 62, 64
3, 209160, Note_on_c, 0, 64, 97
3, 209280, Note_off_c, 0, 64, 64
3, 209280, Note_on_c, 0, 67, 97
3, 209400, Note_off_c, 0, 67, 64
3, 209400, Note_on_c, 0, 64, 97
3, 209520, Note_off_c, 0, 64, 64
3, 209520, Note_on_c, 0, 62, 97
3, 209640, Note_off_c, 0, 62, 64
3, 209640, Note_on_c, 0, 64, 97
3, 209760, Note_off_c, 0, 64, 64
3, 209760, Note_on_c, 0, 60, 97
3, 209880, Note_off_c, 0, 60, 64
3, 209880, Note_on_c, 0, 64, 97
3, 210000, Note_off_c, 0, 64, 64
3, 210000, Note_on_c, 0, 67, 97
3, 210360, Note_off_c, 0, 67, 64
3, 210360, Note_on_c, 0, 65, 97
3, 210480, Note_off_c, 0, 65, 64
3, 210480, Note_on_c, 0, 64, 97
3, 210600, Note_off_c, 0, 64, 64
3, 210600, Note_on_c, 0, 65, 97
3, 210720, Note_off_c, 0, 65, 64
3, 210720, Note_on_c, 0, 67, 97
3, 210840, Note_off_c, 0, 67, 64
3, 210840, Note_on_c, 0, 65, 97
3, 210960, Note_off_c, 0, 65, 64
3, 210960, Note_on_c, 0, 64, 97
3, 211080, Note_off_c, 0, 64, 64
3, 211080, Note_on_c, 0, 65, 97
3, 211200, Note_off_c, 0, 65, 64
3, 211200, Note_on_c, 0, 60, 97
3, 211320, Note_off_c, 0, 60, 64
3, 211320, Note_on_c, 0, 64, 97
3, 211440, Note_off_c, 0, 64, 64
3, 211440, Note_on_c, 0, 65, 97
3, 211800, Note_off_c, 0, 65, 64
3, 211800, Note_on_c, 0, 64, 97
3, 211920, Note_off_c, 0, 64, 64
3, 211920, Note_on_c, 0, 62, 97
3, 212040, Note_off_c, 0, 62, 64
3, 212040, Note_on_c, 0, 64, 97
3, 212160, Note_off_c, 0, 64, 64
3, 212160, Note_on_c, 0, 65, 97
3, 212280, Note_off_c, 0, 65, 64
3, 212280, Note_on_c, 0, 64, 97
3, 212400, Note_off_c, 0, 64, 64
3, 212400, Note_on_c, 0, 62, 97
3, 212520, Note_off_c, 0, 62, 64
3, 212520, Note_on_c, 0, 64, 97
3, 212640, Note_off_c, 0, 64, 64
3, 212640, Note_on_c, 0, 60, 97
3, 212760, Note_off_c, 0, 60, 64
3, 212760, Note_on_c, 0, 62, 97
3, 212880, Note_off_c, 0, 62, 64
3, 212880, Note_on_c, 0, 64, 97
3, 213240, Note_off_c, 0, 64, 64
3, 213240, Note_on_c, 0, 62, 97
3, 213360, Note_off_c, 0, 62, 64
3, 213360, Note_on_c, 0, 60, 97
3, 213480, Note_off_c, 0, 60, 64
3, 213480, Note_on_c, 0, 62, 97
3, 213600, Note_off_c, 0, 62, 64
3, 213600, Note_on_c, 0, 65, 97
3, 213720, Note_off_c, 0, 65, 64
3, 213720, Note_on_c, 0, 62, 97
3, 213840, Note_off_c, 0, 62, 64
3, 213840, Note_on_c, 0, 60, 97
3, 213960, Note_off_c, 0, 60, 64
3, 213960, Note_on_c, 0, 62, 97
3, 214080, Note_off_c, 0, 62, 64
3, 214080, Note_on_c, 0, 59, 97
3, 214320, Note_off_c, 0, 59, 64
3, 214320, Note_on_c, 0, 71, 97
3, 214560, Note_off_c, 0, 71, 64
3, 214560, Note_on_c, 0, 72, 97
3, 214680, Note_off_c, 0, 72, 64
3, 214680, Note_on_c, 0, 67, 97
3, 214800, Note_off_c, 0, 67, 64
3, 214800, Note_on_c, 0, 65, 97
3, 214920, Note_off_c, 0, 65, 64
3, 214920, Note_on_c, 0, 67, 97
3, 215040, Note_off_c, 0, 67, 64
3, 215040, Note_on_c, 0, 76, 97
3, 216120, Note_off_c, 0, 76, 64
3, 216120, Note_on_c, 0, 65, 97
3, 216240, Note_off_c, 0, 65, 64
3, 216240, Note_on_c, 0, 64, 97
3, 216360, Note_off_c, 0, 64, 64
3, 216360, Note_on_c, 0, 65, 97
3, 216480, Note_off_c, 0, 65, 64
3, 216480, Note_on_c, 0, 74, 97
3, 217560, Note_off_c, 0, 74, 64
3, 217560, Note_on_c, 0, 64, 97
3, 217680, Note_off_c, 0, 64, 64
3, 217680, Note_on_c, 0, 62, 97
3, 217800, Note_off_c, 0, 62, 64
3, 217800, Note_on_c, 0, 64, 97
3, 217920, Note_off_c, 0, 64, 64
3, 217920, Note_on_c, 0, 72, 97
3, 219000, Note_off_c, 0, 72, 64
3, 219000, Note_on_c, 0, 71, 97
3, 219120, Note_off_c, 0, 71, 64
3, 219120, Note_on_c, 0, 69, 97
3, 219240, Note_off_c, 0, 69, 64
3, 219240, Note_on_c, 0, 67, 97
3, 219360, Note_off_c, 0, 67, 64
3, 219360, Note_on_c, 0, 65, 97
3, 219480, Note_off_c, 0, 65, 64
3, 219480, Note_on_c, 0, 64, 97
3, 219600, Note_off_c, 0, 64, 64
3, 219600, Note_on_c, 0, 62, 97
3, 219720, Note_off_c, 0, 62, 64
3, 219720, Note_on_c, 0, 60, 97
3, 219840, Note_off_c, 0, 60, 64
3, 219840, Note_on_c, 0, 59, 97
3, 219960, Note_off_c, 0, 59, 64
3, 219960, Note_on_c, 0, 57, 97
3, 220080, Note_off_c, 0, 57, 64
3, 220080, Note_on_c, 0, 55, 97
3, 220200, Note_off_c, 0, 55, 64
3, 220200, Note_on_c, 0, 53, 97
3, 220320, Note_off_c, 0, 53, 64
3, 220320, Note_on_c, 0, 55, 97
3, 220560, Note_off_c, 0, 55, 64
3, 220560, Note_on_c, 0, 65, 97
3, 220800, Note_off_c, 0, 65, 64
3, 220800, Note_on_c, 0, 64, 97
3, 221040, Note_off_c, 0, 64, 64
3, 221040, Note_on_c, 0, 69, 97
3, 221160, Note_off_c, 0, 69, 64
3, 221160, Note_on_c, 0, 67, 97
3, 221280, Note_off_c, 0, 67, 64
3, 221280, Note_on_c, 0, 65, 97
3, 221400, Note_off_c, 0, 65, 64
3, 221400, Note_on_c, 0, 64, 97
3, 221520, Note_off_c, 0, 64, 64
3, 221520, Note_on_c, 0, 62, 97
3, 221640, Note_off_c, 0, 62, 64
3, 221640, Note_on_c, 0, 60, 97
3, 221760, Note_off_c, 0, 60, 64
3, 221760, Note_on_c, 0, 60, 97
3, 222240, Note_off_c, 0, 60, 64
3, 230402, Note_on_c, 0, 64, 97
3, 230522, Note_on_c, 0, 67, 97
3, 230525, Note_off_c, 0, 64, 64
3, 230582, Note_on_c, 0, 71, 97
3, 230585, Note_off_c, 0, 67, 64
3, 230642, Note_on_c, 0, 72, 97
3, 230645, Note_off_c, 0, 71, 64
3, 230885, Note_off_c, 0, 72, 64
3, 231122, Note_on_c, 0, 64, 97
3, 231362, Note_on_c, 0, 63, 97
3, 231365, Note_off_c, 0, 64, 64
3, 231605, Note_off_c, 0, 63, 64
3, 231842, Note_on_c, 0, 64, 97
3, 231962, Note_on_c, 0, 67, 97
3, 231965, Note_off_c, 0, 64, 64
3, 232022, Note_on_c, 0, 71, 97
3, 232025, Note_off_c, 0, 67, 64
3, 232082, Note_on_c, 0, 76, 97
3, 232085, Note_off_c, 0, 71, 64
3, 232202, Note_on_c, 0, 76, 97
3, 232205, Note_off_c, 0, 76, 64
3, 232322, Note_on_c, 0, 76, 97
3, 232325, Note_off_c, 0, 76, 64
3, 232442, Note_on_c, 0, 76, 97
3, 232445, Note_off_c, 0, 76, 64
3, 232682, Note_on_c, 0, 74, 97
3, 232685, Note_off_c, 0, 76, 64
3, 232742, Note_on_c, 0, 72, 97
3, 232745, Note_off_c, 0, 74, 64
3, 232802, Note_on_c, 0, 74, 97
3, 232805, Note_off_c, 0, 72, 64
3, 232922, Note_on_c, 0, 65, 97
3, 232925, Note_off_c, 0, 74, 64
3, 233042, Note_on_c, 0, 64, 97
3, 233045, Note_off_c, 0, 65, 64
3, 233162, Note_on_c, 0, 74, 97
3, 233165, Note_off_c, 0, 64, 64
3, 233402, Note_on_c, 0, 72, 97
3, 233405, Note_off_c, 0, 74, 64
3, 233462, Note_on_c, 0, 71, 97
3, 233465, Note_off_c, 0, 72, 64
3, 233522, Note_on_c, 0, 72, 97
3, 233525, Note_off_c, 0, 71, 64
3, 233642, Note_on_c, 0, 64, 97
3, 233645, Note_off_c, 0, 72, 64
3, 233762, Note_on_c, 0, 63, 97
3, 233765, Note_off_c, 0, 64, 64
3, 233882, Note_on_c, 0, 72, 97
3, 233885, Note_off_c, 0, 63, 64
3, 234002, Note_on_c, 0, 71, 97
3, 234005, Note_off_c, 0, 72, 64
3, 234062, Note_on_c, 0, 69, 97
3, 234065, Note_off_c, 0, 71, 64
3, 234122, Note_on_c, 0, 72, 97
3, 234125, Note_off_c, 0, 69, 64
3, 234182, Note_on_c, 0, 71, 97
3, 234185, Note_off_c, 0, 72, 64
3, 234242, Note_on_c, 0, 69, 97
3, 234245, Note_off_c, 0, 71, 64
3, 234302, Note_on_c, 0, 67, 97
3, 234305, Note_off_c, 0, 69, 64
3, 234362, Note_on_c, 0, 66, 97
3, 234365, Note_off_c, 0, 67, 64
3, 234422, Note_on_c, 0, 64, 97
3, 234425, Note_off_c, 0, 66, 64
3, 234482, Note_on_c, 0, 63, 97
3, 234485, Note_off_c, 0, 64, 64
3, 234542, Note_on_c, 0, 69, 97
3, 234545, Note_off_c, 0, 63, 64
3, 234602, Note_on_c, 0, 67, 97
3, 234605, Note_off_c, 0, 69, 64
3, 234662, Note_on_c, 0, 66, 97
3, 234665, Note_off_c, 0, 67, 64
3, 234722, Note_on_c, 0, 67, 97
3, 234725, Note_off_c, 0, 66, 64
3, 234782, Note_on_c, 0, 66, 97
3, 234785, Note_off_c, 0, 67, 64
3, 234842, Note_on_c, 0, 64, 97
3, 234845, Note_off_c, 0, 66, 64
3, 235082, Note_on_c, 0, 62, 97
3, 235085, Note_off_c, 0, 64, 64
3, 235202, Note_on_c, 0, 61, 97
3, 235205, Note_off_c, 0, 62, 64
3, 235322, Note_on_c, 0, 67, 97
3, 235325, Note_off_c, 0, 61, 64
3, 235442, Note_on_c, 0, 65, 97
3, 235445, Note_off_c, 0, 67, 64
3, 235502, Note_on_c, 0, 64, 97
3, 235505, Note_off_c, 0, 65, 64
3, 235562, Note_on_c, 0, 62, 97
3, 235565, Note_off_c, 0, 64, 64
3, 235802, Note_on_c, 0, 60, 97
3, 235805, Note_off_c, 0, 62, 64
3, 235922, Note_on_c, 0, 59, 97
3, 235925, Note_off_c, 0, 60, 64
3, 236042, Note_on_c, 0, 65, 97
3, 236045, Note_off_c, 0, 59, 64
3, 236162, Note_on_c, 0, 64, 97
3, 236165, Note_off_c, 0, 65, 64
3, 236222, Note_on_c, 0, 62, 97
3, 236225, Note_off_c, 0, 64, 64
3, 236282, Note_on_c, 0, 60, 97
3, 236285, Note_off_c, 0, 62, 64
3, 236522, Note_on_c, 0, 62, 97
3, 236525, Note_off_c, 0, 60, 64
3, 236582, Note_on_c, 0, 64, 97
3, 236585, Note_off_c, 0, 62, 64
3, 236642, Note_on_c, 0, 65, 97
3, 236645, Note_off_c, 0, 64, 64
3, 236762, Note_on_c, 0, 66, 97
3, 236765, Note_off_c, 0, 65, 64
3, 236882, Note_on_c, 0, 67, 97
3, 236885, Note_off_c, 0, 66, 64
3, 237002, Note_on_c, 0, 68, 97
3, 237005, Note_off_c, 0, 67, 64
3, 237182, Note_on_c, 0, 69, 97
3, 237185, Note_off_c, 0, 68, 64
3, 237242, Note_on_c, 0, 71, 97
3, 237245, Note_off_c, 0, 69, 64
3, 237302, Note_on_c, 0, 72, 97
3, 237305, Note_off_c, 0, 71, 64
3, 237362, Note_on_c, 0, 74, 97
3, 237365, Note_off_c, 0, 72, 64
3, 237422, Note_on_c, 0, 72, 97
3, 237425, Note_off_c, 0, 74, 64
3, 237482, Note_on_c, 0, 71, 97
3, 237485, Note_off_c, 0, 72, 64
3, 237542, Note_on_c, 0, 74, 97
3, 237545, Note_off_c, 0, 71, 64
3, 237602, Note_on_c, 0, 72, 97
3, 237605, Note_off_c, 0, 74, 64
3, 237845, Note_off_c, 0, 72, 64
3, 238082, Note_on_c, 0, 76, 97
3, 238382, Note_on_c, 0, 69, 97
3, 238385, Note_off_c, 0, 76, 64
3, 238442, Note_on_c, 0, 67, 97
3, 238445, Note_off_c, 0, 69, 64
3, 238502, Note_on_c, 0, 69, 97
3, 238505, Note_off_c, 0, 67, 64
3, 238562, Note_on_c, 0, 74, 97
3, 238565, Note_off_c, 0, 69, 64
3, 238682, Note_on_c, 0, 72, 97
3, 238685, Note_off_c, 0, 74, 64
3, 238862, Note_on_c, 0, 70, 97
3, 238865, Note_off_c, 0, 72, 64
3, 238922, Note_on_c, 0, 69, 97
3, 238925, Note_off_c, 0, 70, 64
3, 238982, Note_on_c, 0, 72, 97
3, 238985, Note_off_c, 0, 69, 64
3, 239042, Note_on_c, 0, 70, 97
3, 239045, Note_off_c, 0, 72, 64
3, 239285, Note_off_c, 0, 70, 64
3, 239522, Note_on_c, 0, 69, 97
3, 239762, Note_on_c, 0, 68, 97
3, 239765, Note_off_c, 0, 69, 64
3, 240002, Note_on_c, 0, 69, 97
3, 240005, Note_off_c, 0, 68, 64
3, 240242, Note_on_c, 0, 71, 97
3, 240245, Note_off_c, 0, 69, 64
3, 240482, Note_on_c, 0, 64, 97
3, 240485, Note_off_c, 0, 71, 64
3, 240782, Note_on_c, 0, 62, 97
3, 240785, Note_off_c, 0, 64, 64
3, 240842, Note_on_c, 0, 64, 97
3, 240845, Note_off_c, 0, 62, 64
3, 240902, Note_on_c, 0, 69, 97
3, 240905, Note_off_c, 0, 64, 64
3, 240962, Note_on_c, 0, 57, 97
3, 240965, Note_off_c, 0, 69, 64
3, 241502, Note_on_c, 0, 56, 97
3, 241505, Note_off_c, 0, 57, 64
3, 241562, Note_on_c, 0, 54, 97
3, 241565, Note_off_c, 0, 56, 64
3, 241622, Note_on_c, 0, 56, 97
3, 241625, Note_off_c, 0, 54, 64
3, 241682, Note_on_c, 0, 56, 97
3, 241685, Note_off_c, 0, 56, 64
3, 241712, Note_on_c, 0, 57, 97
3, 241715, Note_off_c, 0, 56, 64
3, 241742, Note_on_c, 0, 56, 97
3, 241745, Note_off_c, 0, 57, 64
3, 241862, Note_on_c, 0, 57, 97
3, 241865, Note_off_c, 0, 56, 64
3, 241922, Note_on_c, 0, 57, 97
3, 241925, Note_off_c, 0, 57, 64
3, 242042, Note_on_c, 0, 69, 97
3, 242045, Note_off_c, 0, 57, 64
3, 242162, Note_on_c, 0, 59, 97
3, 242165, Note_off_c, 0, 69, 64
3, 242282, Note_on_c, 0, 69, 97
3, 242285, Note_off_c, 0, 59, 64
3, 242402, Note_on_c, 0, 60, 97
3, 242405, Note_off_c, 0, 69, 64
3, 242522, Note_on_c, 0, 69, 97
3, 242525, Note_off_c, 0, 60, 64
3, 242642, Note_on_c, 0, 62, 97
3, 242645, Note_off_c, 0, 69, 64
3, 242762, Note_on_c, 0, 69, 97
3, 242765, Note_off_c, 0, 62, 64
3, 242882, Note_on_c, 0, 60, 97
3, 242885, Note_off_c, 0, 69, 64
3, 243002, Note_on_c, 0, 69, 97
3, 243005, Note_off_c, 0, 60, 64
3, 243122, Note_on_c, 0, 59, 97
3, 243125, Note_off_c, 0, 69, 64
3, 243242, Note_on_c, 0, 69, 97
3, 243245, Note_off_c, 0, 59, 64
3, 243362, Note_on_c, 0, 57, 97
3, 243365, Note_off_c, 0, 69, 64
3, 243422, Note_on_c, 0, 59, 97
3, 243425, Note_off_c, 0, 57, 64
3, 243482, Note_on_c, 0, 60, 97
3, 243485, Note_off_c, 0, 59, 64
3, 243542, Note_on_c, 0, 57, 97
3, 243545, Note_off_c, 0, 60, 64
3, 243602, Note_on_c, 0, 56, 97
3, 243605, Note_off_c, 0, 57, 64
3, 243662, Note_on_c, 0, 57, 97
3, 243665, Note_off_c, 0, 56, 64
3, 243722, Note_on_c, 0, 62, 97
3, 243725, Note_off_c, 0, 57, 64
3, 243782, Note_on_c, 0, 57, 97
3, 243785, Note_off_c, 0, 62, 64
3, 243842, Note_on_c, 0, 56, 97
3, 243845, Note_off_c, 0, 57, 64
3, 243902, Note_on_c, 0, 57, 97
3, 243905, Note_off_c, 0, 56, 64
3, 243962, Note_on_c, 0, 64, 97
3, 243965, Note_off_c, 0, 57, 64
3, 244022, Note_on_c, 0, 57, 97
3, 244025, Note_off_c, 0, 64, 64
3, 244082, Note_on_c, 0, 56, 97
3, 244085, Note_off_c, 0, 57, 64
3, 244142, Note_on_c, 0, 57, 97
3, 244145, Note_off_c, 0, 56, 64
3, 244202, Note_on_c, 0, 65, 97
3, 244205, Note_off_c, 0, 57, 64
3, 244262, Note_on_c, 0, 57, 97
3, 244265, Note_off_c, 0, 65, 64
3, 244322, Note_on_c, 0, 56, 97
3, 244325, Note_off_c, 0, 57, 64
3, 244382, Note_on_c, 0, 57, 97
3, 244385, Note_off_c, 0, 56, 64
3, 244442, Note_on_c, 0, 64, 97
3, 244445, Note_off_c, 0, 57, 64
3, 244502, Note_on_c, 0, 57, 97
3, 244505, Note_off_c, 0, 64, 64
3, 244562, Note_on_c, 0, 56, 97
3, 244565, Note_off_c, 0, 57, 64
3, 244622, Note_on_c, 0, 57, 97
3, 244625, Note_off_c, 0, 56, 64
3, 244682, Note_on_c, 0, 62, 97
3, 244685, Note_off_c, 0, 57, 64
3, 244742, Note_on_c, 0, 59, 97
3, 244745, Note_off_c, 0, 62, 64
3, 244802, Note_on_c, 0, 60, 97
3, 244805, Note_off_c, 0, 59, 64
3, 244862, Note_on_c, 0, 57, 97
3, 244865, Note_off_c, 0, 60, 64
3, 244922, Note_on_c, 0, 59, 97
3, 244925, Note_off_c, 0, 57, 64
3, 244982, Note_on_c, 0, 60, 97
3, 244985, Note_off_c, 0, 59, 64
3, 245042, Note_on_c, 0, 62, 97
3, 245045, Note_off_c, 0, 60, 64
3, 245102, Note_on_c, 0, 64, 97
3, 245105, Note_off_c, 0, 62, 64
3, 245162, Note_on_c, 0, 66, 97
3, 245165, Note_off_c, 0, 64, 64
3, 245222, Note_on_c, 0, 68, 97
3, 245225, Note_off_c, 0, 66, 64
3, 245282, Note_on_c, 0, 69, 97
3, 245285, Note_off_c, 0, 68, 64
3, 245582, Note_on_c, 0, 67, 97
3, 245585, Note_off_c, 0, 69, 64
3, 245642, Note_on_c, 0, 66, 97
3, 245645, Note_off_c, 0, 67, 64
3, 245702, Note_on_c, 0, 64, 97
3, 245705, Note_off_c, 0, 66, 64
3, 245762, Note_on_c, 0, 66, 97
3, 245765, Note_off_c, 0, 64, 64
3, 245822, Note_on_c, 0, 69, 97
3, 245825, Note_off_c, 0, 66, 64
3, 245882, Note_on_c, 0, 62, 97
3, 245885, Note_off_c, 0, 69, 64
3, 245942, Note_on_c, 0, 66, 97
3, 245945, Note_off_c, 0, 62, 64
3, 246002, Note_on_c, 0, 57, 97
3, 246005, Note_off_c, 0, 66, 64
3, 246062, Note_on_c, 0, 60, 97
3, 246065, Note_off_c, 0, 57, 64
3, 246122, Note_on_c, 0, 59, 97
3, 246125, Note_off_c, 0, 60, 64
3, 246182, Note_on_c, 0, 57, 97
3, 246185, Note_off_c, 0, 59, 64
3, 246242, Note_on_c, 0, 59, 97
3, 246245, Note_off_c, 0, 57, 64
3, 246302, Note_on_c, 0, 55, 97
3, 246305, Note_off_c, 0, 59, 64
3, 246362, Note_on_c, 0, 57, 97
3, 246365, Note_off_c, 0, 55, 64
3, 246422, Note_on_c, 0, 59, 97
3, 246425, Note_off_c, 0, 57, 64
3, 246482, Note_on_c, 0, 60, 97
3, 246485, Note_off_c, 0, 59, 64
3, 246542, Note_on_c, 0, 62, 97
3, 246545, Note_off_c, 0, 60, 64
3, 246602, Note_on_c, 0, 64, 97
3, 246605, Note_off_c, 0, 62, 64
3, 246662, Note_on_c, 0, 65, 97
3, 246665, Note_off_c, 0, 64, 64
3, 246722, Note_on_c, 0, 67, 97
3, 246725, Note_off_c, 0, 65, 64
3, 247022, Note_on_c, 0, 65, 97
3, 247025, Note_off_c, 0, 67, 64
3, 247082, Note_on_c, 0, 64, 97
3, 247085, Note_off_c, 0, 65, 64
3, 247142, Note_on_c, 0, 62, 97
3, 247145, Note_off_c, 0, 64, 64
3, 247202, Note_on_c, 0, 64, 97
3, 247205, Note_off_c, 0, 62, 64
3, 247262, Note_on_c, 0, 67, 97
3, 247265, Note_off_c, 0, 64, 64
3, 247322, Note_on_c, 0, 60, 97
3, 247325, Note_off_c, 0, 67, 64
3, 247382, Note_on_c, 0, 64, 97
3, 247385, Note_off_c, 0, 60, 64
3, 247442, Note_on_c, 0, 55, 97
3, 247445, Note_off_c, 0, 64, 64
3, 247502, Note_on_c, 0, 58, 97
3, 247505, Note_off_c, 0, 55, 64
3, 247562, Note_on_c, 0, 57, 97
3, 247565, Note_off_c, 0, 58, 64
3, 247622, Note_on_c, 0, 55, 97
3, 247625, Note_off_c, 0, 57, 64
3, 247682, Note_on_c, 0, 57, 97
3, 247685, Note_off_c, 0, 55, 64
3, 247925, Note_off_c, 0, 57, 64
3, 247982, Note_on_c, 0, 53, 97
3, 248042, Note_on_c, 0, 52, 97
3, 248045, Note_off_c, 0, 53, 64
3, 248102, Note_on_c, 0, 53, 97
3, 248105, Note_off_c, 0, 52, 64
3, 248162, Note_on_c, 0, 57, 97
3, 248165, Note_off_c, 0, 53, 64
3, 248282, Note_on_c, 0, 62, 97
3, 248285, Note_off_c, 0, 57, 64
3, 248462, Note_on_c, 0, 59, 97
3, 248465, Note_off_c, 0, 62, 64
3, 248522, Note_on_c, 0, 57, 97
3, 248525, Note_off_c, 0, 59, 64
3, 248582, Note_on_c, 0, 59, 97
3, 248585, Note_off_c, 0, 57, 64
3, 248642, Note_on_c, 0, 64, 97
3, 248645, Note_off_c, 0, 59, 64
3, 248762, Note_on_c, 0, 62, 97
3, 248765, Note_off_c, 0, 64, 64
3, 248942, Note_on_c, 0, 60, 97
3, 248945, Note_off_c, 0, 62, 64
3, 249002, Note_on_c, 0, 59, 97
3, 249005, Note_off_c, 0, 60, 64
3, 249062, Note_on_c, 0, 62, 97
3, 249065, Note_off_c, 0, 59, 64
3, 249122, Note_on_c, 0, 60, 97
3, 249125, Note_off_c, 0, 62, 64
3, 249365, Note_off_c, 0, 60, 64
3, 249422, Note_on_c, 0, 57, 97
3, 249482, Note_on_c, 0, 55, 97
3, 249485, Note_off_c, 0, 57, 64
3, 249542, Note_on_c, 0, 57, 97
3, 249545, Note_off_c, 0, 55, 64
3, 249602, Note_on_c, 0, 60, 97
3, 249605, Note_off_c, 0, 57, 64
3, 249722, Note_on_c, 0, 65, 97
3, 249725, Note_off_c, 0, 60, 64
3, 249902, Note_on_c, 0, 62, 97
3, 249905, Note_off_c, 0, 65, 64
3, 249962, Note_on_c, 0, 60, 97
3, 249965, Note_off_c, 0, 62, 64
3, 250022, Note_on_c, 0, 62, 97
3, 250025, Note_off_c, 0, 60, 64
3, 250082, Note_on_c, 0, 69, 97
3, 250085, Note_off_c, 0, 62, 64
3, 250202, Note_on_c, 0, 65, 97
3, 250205, Note_off_c, 0, 69, 64
3, 250382, Note_on_c, 0, 64, 97
3, 250385, Note_off_c, 0, 65, 64
3, 250442, Note_on_c, 0, 62, 97
3, 250445, Note_off_c, 0, 64, 64
3, 250502, Note_on_c, 0, 65, 97
3, 250505, Note_off_c, 0, 62, 64
3, 250562, Note_on_c, 0, 64, 97
3, 250565, Note_off_c, 0, 65, 64
3, 250622, Note_on_c, 0, 62, 97
3, 250625, Note_off_c, 0, 64, 64
3, 250682, Note_on_c, 0, 64, 97
3, 250685, Note_off_c, 0, 62, 64
3, 250742, Note_on_c, 0, 60, 97
3, 250745, Note_off_c, 0, 64, 64
3, 250802, Note_on_c, 0, 59, 97
3, 250805, Note_off_c, 0, 60, 64
3, 250862, Note_on_c, 0, 60, 97
3, 250865, Note_off_c, 0, 59, 64
3, 250922, Note_on_c, 0, 65, 97
3, 250925, Note_off_c, 0, 60, 64
3, 250982, Note_on_c, 0, 60, 97
3, 250985, Note_off_c, 0, 65, 64
3, 251042, Note_on_c, 0, 59, 97
3, 251045, Note_off_c, 0, 60, 64
3, 251102, Note_on_c, 0, 60, 97
3, 251105, Note_off_c, 0, 59, 64
3, 251162, Note_on_c, 0, 67, 97
3, 251165, Note_off_c, 0, 60, 64
3, 251222, Note_on_c, 0, 60, 97
3, 251225, Note_off_c, 0, 67, 64
3, 251282, Note_on_c, 0, 59, 97
3, 251285, Note_off_c, 0, 60, 64
3, 251342, Note_on_c, 0, 60, 97
3, 251345, Note_off_c, 0, 59, 64
3, 251402, Note_on_c, 0, 69, 97
3, 251405, Note_off_c, 0, 60, 64
3, 251462, Note_on_c, 0, 60, 97
3, 251465, Note_off_c, 0, 69, 64
3, 251522, Note_on_c, 0, 59, 97
3, 251525, Note_off_c, 0, 60, 64
3, 251582, Note_on_c, 0, 60, 97
3, 251585, Note_off_c, 0, 59, 64
3, 251642, Note_on_c, 0, 67, 97
3, 251645, Note_off_c, 0, 60, 64
3, 251702, Note_on_c, 0, 60, 97
3, 251705, Note_off_c, 0, 67, 64
3, 251762, Note_on_c, 0, 59, 97
3, 251765, Note_off_c, 0, 60, 64
3, 251822, Note_on_c, 0, 60, 97
3, 251825, Note_off_c, 0, 59, 64
3, 251882, Note_on_c, 0, 65, 97
3, 251885, Note_off_c, 0, 60, 64
3, 251942, Note_on_c, 0, 62, 97
3, 251945, Note_off_c, 0, 65, 64
3, 252002, Note_on_c, 0, 64, 97
3, 252005, Note_off_c, 0, 62, 64
3, 252122, Note_on_c, 0, 72, 97
3, 252125, Note_off_c, 0, 64, 64
3, 252242, Note_on_c, 0, 62, 97
3, 252245, Note_off_c, 0, 72, 64
3, 252362, Note_on_c, 0, 72, 97
3, 252365, Note_off_c, 0, 62, 64
3, 252482, Note_on_c, 0, 64, 97
3, 252485, Note_off_c, 0, 72, 64
3, 252602, Note_on_c, 0, 72, 97
3, 252605, Note_off_c, 0, 64, 64
3, 252722, Note_on_c, 0, 65, 97
3, 252725, Note_off_c, 0, 72, 64
3, 252842, Note_on_c, 0, 72, 97
3, 252845, Note_off_c, 0, 65, 64
3, 252962, Note_on_c, 0, 64, 97
3, 252965, Note_off_c, 0, 72, 64
3, 253082, Note_on_c, 0, 72, 97
3, 253085, Note_off_c, 0, 64, 64
3, 253202, Note_on_c, 0, 62, 97
3, 253205, Note_off_c, 0, 72, 64
3, 253322, Note_on_c, 0, 72, 97
3, 253325, Note_off_c, 0, 62, 64
3, 253442, Note_on_c, 0, 60, 97
3, 253445, Note_off_c, 0, 72, 64
3, 253562, Note_on_c, 0, 64, 97
3, 253565, Note_off_c, 0, 60, 64
3, 253622, Note_on_c, 0, 67, 97
3, 253625, Note_off_c, 0, 64, 64
3, 253682, Note_on_c, 0, 69, 97
3, 253685, Note_off_c, 0, 67, 64
3, 253925, Note_off_c, 0, 69, 64
3, 254162, Note_on_c, 0, 60, 97
3, 254402, Note_on_c, 0, 59, 97
3, 254405, Note_off_c, 0, 60, 64
3, 254645, Note_off_c, 0, 59, 64
3, 254882, Note_on_c, 0, 60, 97
3, 255002, Note_on_c, 0, 64, 97
3, 255005, Note_off_c, 0, 60, 64
3, 255062, Note_on_c, 0, 67, 97
3, 255065, Note_off_c, 0, 64, 64
3, 255122, Note_on_c, 0, 72, 97
3, 255125, Note_off_c, 0, 67, 64
3, 255242, Note_on_c, 0, 72, 97
3, 255245, Note_off_c, 0, 72, 64
3, 255362, Note_on_c, 0, 72, 97
3, 255365, Note_off_c, 0, 72, 64
3, 255482, Note_on_c, 0, 72, 97
3, 255485, Note_off_c, 0, 72, 64
3, 255722, Note_on_c, 0, 71, 97
3, 255725, Note_off_c, 0, 72, 64
3, 255782, Note_on_c, 0, 69, 97
3, 255785, Note_off_c, 0, 71, 64
3, 255842, Note_on_c, 0, 71, 97
3, 255845, Note_off_c, 0, 69, 64
3, 255962, Note_on_c, 0, 62, 97
3, 255965, Note_off_c, 0, 71, 64
3, 256082, Note_on_c, 0, 60, 97
3, 256085, Note_off_c, 0, 62, 64
3, 256202, Note_on_c, 0, 70, 97
3, 256205, Note_off_c, 0, 60, 64
3, 256442, Note_on_c, 0, 69, 97
3, 256445, Note_off_c, 0, 70, 64
3, 256502, Note_on_c, 0, 67, 97
3, 256505, Note_off_c, 0, 69, 64
3, 256562, Note_on_c, 0, 69, 97
3, 256565, Note_off_c, 0, 67, 64
3, 256682, Note_on_c, 0, 60, 97
3, 256685, Note_off_c, 0, 69, 64
3, 256802, Note_on_c, 0, 59, 97
3, 256805, Note_off_c, 0, 60, 64
3, 256922, Note_on_c, 0, 69, 97
3, 256925, Note_off_c, 0, 59, 64
3, 257042, Note_on_c, 0, 67, 97
3, 257045, Note_off_c, 0, 69, 64
3, 257102, Note_on_c, 0, 65, 97
3, 257105, Note_off_c, 0, 67, 64
3, 257162, Note_on_c, 0, 69, 97
3, 257165, Note_off_c, 0, 65, 64
3, 257222, Note_on_c, 0, 67, 97
3, 257225, Note_off_c, 0, 69, 64
3, 257282, Note_on_c, 0, 65, 97
3, 257285, Note_off_c, 0, 67, 64
3, 257342, Note_on_c, 0, 64, 97
3, 257345, Note_off_c, 0, 65, 64
3, 257402, Note_on_c, 0, 62, 97
3, 257405, Note_off_c, 0, 64, 64
3, 257462, Note_on_c, 0, 60, 97
3, 257465, Note_off_c, 0, 62, 64
3, 257522, Note_on_c, 0, 59, 97
3, 257525, Note_off_c, 0, 60, 64
3, 257582, Note_on_c, 0, 65, 97
3, 257585, Note_off_c, 0, 59, 64
3, 257642, Note_on_c, 0, 64, 97
3, 257645, Note_off_c, 0, 65, 64
3, 257702, Note_on_c, 0, 62, 97
3, 257705, Note_off_c, 0, 64, 64
3, 257762, Note_on_c, 0, 64, 97
3, 257765, Note_off_c, 0, 62, 64
3, 257822, Note_on_c, 0, 62, 97
3, 257825, Note_off_c, 0, 64, 64
3, 257882, Note_on_c, 0, 60, 97
3, 257885, Note_off_c, 0, 62, 64
3, 258122, Note_on_c, 0, 62, 97
3, 258125, Note_off_c, 0, 60, 64
3, 258242, Note_on_c, 0, 63, 97
3, 258245, Note_off_c, 0, 62, 64
3, 258362, Note_on_c, 0, 64, 97
3, 258365, Note_off_c, 0, 63, 64
3, 258482, Note_on_c, 0, 65, 97
3, 258485, Note_off_c, 0, 64, 64
3, 258602, Note_on_c, 0, 66, 97
3, 258605, Note_off_c, 0, 65, 64
3, 258782, Note_on_c, 0, 67, 97
3, 258785, Note_off_c, 0, 66, 64
3, 258842, Note_on_c, 0, 69, 97
3, 258845, Note_off_c, 0, 67, 64
3, 258902, Note_on_c, 0, 71, 97
3, 258905, Note_off_c, 0, 69, 64
3, 258962, Note_on_c, 0, 72, 97
3, 258965, Note_off_c, 0, 71, 64
3, 259022, Note_on_c, 0, 71, 97
3, 259025, Note_off_c, 0, 72, 64
3, 259082, Note_on_c, 0, 69, 97
3, 259085, Note_off_c, 0, 71, 64
3, 259142, Note_on_c, 0, 72, 97
3, 259145, Note_off_c, 0, 69, 64
3, 259202, Note_on_c, 0, 71, 97
3, 259205, Note_off_c, 0, 72, 64
3, 259502, Note_on_c, 0, 69, 97
3, 259505, Note_off_c, 0, 71, 64
3, 259562, Note_on_c, 0, 67, 97
3, 259565, Note_off_c, 0, 69, 64
3, 259622, Note_on_c, 0, 69, 97
3, 259625, Note_off_c, 0, 67, 64
3, 259682, Note_on_c, 0, 71, 97
3, 259685, Note_off_c, 0, 69, 64
3, 259742, Note_on_c, 0, 72, 97
3, 259745, Note_off_c, 0, 71, 64
3, 259802, Note_on_c, 0, 74, 97
3, 259805, Note_off_c, 0, 72, 64
3, 259862, Note_on_c, 0, 76, 97
3, 259865, Note_off_c, 0, 74, 64
3, 259922, Note_on_c, 0, 72, 97
3, 259925, Note_off_c, 0, 76, 64
3, 260222, Note_on_c, 0, 71, 97
3, 260225, Note_off_c, 0, 72, 64
3, 260282, Note_on_c, 0, 69, 97
3, 260285, Note_off_c, 0, 71, 64
3, 260342, Note_on_c, 0, 71, 97
3, 260345, Note_off_c, 0, 69, 64
3, 260402, Note_on_c, 0, 72, 97
3, 260405, Note_off_c, 0, 71, 64
3, 260462, Note_on_c, 0, 74, 97
3, 260465, Note_off_c, 0, 72, 64
3, 260522, Note_on_c, 0, 76, 97
3, 260525, Note_off_c, 0, 74, 64
3, 260582, Note_on_c, 0, 78, 97
3, 260585, Note_off_c, 0, 76, 64
3, 260642, Note_on_c, 0, 74, 97
3, 260645, Note_off_c, 0, 78, 64
3, 260882, Note_on_c, 0, 74, 97
3, 260885, Note_off_c, 0, 74, 64
3, 260942, Note_on_c, 0, 72, 97
3, 260945, Note_off_c, 0, 74, 64
3, 261002, Note_on_c, 0, 76, 97
3, 261005, Note_off_c, 0, 72, 64
3, 261062, Note_on_c, 0, 74, 97
3, 261065, Note_off_c, 0, 76, 64
3, 261122, Note_on_c, 0, 72, 97
3, 261125, Note_off_c, 0, 74, 64
3, 261182, Note_on_c, 0, 71, 97
3, 261185, Note_off_c, 0, 72, 64
3, 261242, Note_on_c, 0, 69, 97
3, 261245, Note_off_c, 0, 71, 64
3, 261302, Note_on_c, 0, 67, 97
3, 261305, Note_off_c, 0, 69, 64
3, 261362, Note_on_c, 0, 71, 97
3, 261365, Note_off_c, 0, 67, 64
3, 261482, Note_on_c, 0, 69, 97
3, 261485, Note_off_c, 0, 71, 64
3, 261605, Note_off_c, 0, 69, 64
3, 261842, Note_on_c, 0, 74, 97
3, 262082, Note_on_c, 0, 67, 97
3, 262085, Note_off_c, 0, 74, 64
3, 262325, Note_off_c, 0, 67, 64
3, 262562, Note_on_c, 0, 72, 97
3, 262922, Note_on_c, 0, 71, 97
3, 262925, Note_off_c, 0, 72, 64
3, 263042, Note_on_c, 0, 69, 97
3, 263045, Note_off_c, 0, 71, 64
3, 263102, Note_on_c, 0, 71, 97
3, 263105, Note_off_c, 0, 69, 64
3, 263162, Note_on_c, 0, 72, 97
3, 263165, Note_off_c, 0, 71, 64
3, 263402, Note_on_c, 0, 66, 97
3, 263405, Note_off_c, 0, 72, 64
3, 263522, Note_on_c, 0, 67, 97
3, 263525, Note_off_c, 0, 66, 64
3, 263765, Note_off_c, 0, 67, 64
3, 265082, Note_on_c, 0, 69, 97
3, 265262, Note_on_c, 0, 67, 97
3, 265265, Note_off_c, 0, 69, 64
3, 265322, Note_on_c, 0, 65, 97
3, 265325, Note_off_c, 0, 67, 64
3, 265382, Note_on_c, 0, 64, 97
3, 265385, Note_off_c, 0, 65, 64
3, 265442, Note_on_c, 0, 62, 97
3, 265445, Note_off_c, 0, 64, 64
3, 265502, Note_on_c, 0, 60, 97
3, 265505, Note_off_c, 0, 62, 64
3, 265562, Note_on_c, 0, 58, 97
3, 265565, Note_off_c, 0, 60, 64
3, 265622, Note_on_c, 0, 57, 97
3, 265625, Note_off_c, 0, 58, 64
3, 265682, Note_on_c, 0, 58, 97
3, 265685, Note_off_c, 0, 57, 64
3, 265922, Note_on_c, 0, 65, 97
3, 265925, Note_off_c, 0, 58, 64
3, 266165, Note_off_c, 0, 65, 64
3, 266522, Note_on_c, 0, 67, 97
3, 266702, Note_on_c, 0, 65, 97
3, 266705, Note_off_c, 0, 67, 64
3, 266762, Note_on_c, 0, 64, 97
3, 266765, Note_off_c, 0, 65, 64
3, 266822, Note_on_c, 0, 62, 97
3, 266825, Note_off_c, 0, 64, 64
3, 266882, Note_on_c, 0, 60, 97
3, 266885, Note_off_c, 0, 62, 64
3, 266942, Note_on_c, 0, 58, 97
3, 266945, Note_off_c, 0, 60, 64
3, 267002, Note_on_c, 0, 57, 97
3, 267005, Note_off_c, 0, 58, 64
3, 267062, Note_on_c, 0, 55, 97
3, 267065, Note_off_c, 0, 57, 64
3, 267122, Note_on_c, 0, 57, 97
3, 267125, Note_off_c, 0, 55, 64
3, 267362, Note_on_c, 0, 63, 97
3, 267365, Note_off_c, 0, 57, 64
3, 267605, Note_off_c, 0, 63, 64
3, 267902, Note_on_c, 0, 62, 97
3, 267962, Note_on_c, 0, 60, 97
3, 267965, Note_off_c, 0, 62, 64
3, 268022, Note_on_c, 0, 62, 97
3, 268025, Note_off_c, 0, 60, 64
3, 268082, Note_on_c, 0, 67, 97
3, 268085, Note_off_c, 0, 62, 64
3, 268202, Note_on_c, 0, 65, 97
3, 268205, Note_off_c, 0, 67, 64
3, 268382, Note_on_c, 0, 64, 97
3, 268385, Note_off_c, 0, 65, 64
3, 268442, Note_on_c, 0, 62, 97
3, 268445, Note_off_c, 0, 64, 64
3, 268502, Note_on_c, 0, 65, 97
3, 268505, Note_off_c, 0, 62, 64
3, 268562, Note_on_c, 0, 64, 97
3, 268565, Note_off_c, 0, 65, 64
3, 268805, Note_off_c, 0, 64, 64
3, 268862, Note_on_c, 0, 60, 97
3, 268922, Note_on_c, 0, 59, 97
3, 268925, Note_off_c, 0, 60, 64
3, 268982, Note_on_c, 0, 60, 97
3, 268985, Note_off_c, 0, 59, 64
3, 269042, Note_on_c, 0, 64, 97
3, 269045, Note_off_c, 0, 60, 64
3, 269162, Note_on_c, 0, 69, 97
3, 269165, Note_off_c, 0, 64, 64
3, 269342, Note_on_c, 0, 65, 97
3, 269345, Note_off_c, 0, 69, 64
3, 269402, Note_on_c, 0, 64, 97
3, 269405, Note_off_c, 0, 65, 64
3, 269462, Note_on_c, 0, 65, 97
3, 269465, Note_off_c, 0, 64, 64
3, 269522, Note_on_c, 0, 70, 97
3, 269525, Note_off_c, 0, 65, 64
3, 269642, Note_on_c, 0, 69, 97
3, 269645, Note_off_c, 0, 70, 64
3, 269822, Note_on_c, 0, 67, 97
3, 269825, Note_off_c, 0, 69, 64
3, 269882, Note_on_c, 0, 65, 97
3, 269885, Note_off_c, 0, 67, 64
3, 269942, Note_on_c, 0, 69, 97
3, 269945, Note_off_c, 0, 65, 64
3, 270002, Note_on_c, 0, 67, 97
3, 270005, Note_off_c, 0, 69, 64
3, 270782, Note_on_c, 0, 69, 97
3, 270785, Note_off_c, 0, 67, 64
3, 270842, Note_on_c, 0, 67, 97
3, 270845, Note_off_c, 0, 69, 64
3, 270902, Note_on_c, 0, 64, 97
3, 270905, Note_off_c, 0, 67, 64
3, 270962, Note_on_c, 0, 65, 97
3, 270965, Note_off_c, 0, 64, 64
3, 271022, Note_on_c, 0, 69, 97
3, 271025, Note_off_c, 0, 65, 64
3, 271082, Note_on_c, 0, 67, 97
3, 271085, Note_off_c, 0, 69, 64
3, 271142, Note_on_c, 0, 62, 97
3, 271145, Note_off_c, 0, 67, 64
3, 271202, Note_on_c, 0, 61, 97
3, 271205, Note_off_c, 0, 62, 64
3, 271262, Note_on_c, 0, 64, 97
3, 271265, Note_off_c, 0, 61, 64
3, 271322, Note_on_c, 0, 61, 97
3, 271325, Note_off_c, 0, 64, 64
3, 271382, Note_on_c, 0, 57, 97
3, 271385, Note_off_c, 0, 61, 64
3, 271442, Note_on_c, 0, 62, 97
3, 271445, Note_off_c, 0, 57, 64
3, 271502, Note_on_c, 0, 64, 97
3, 271505, Note_off_c, 0, 62, 64
3, 271562, Note_on_c, 0, 62, 97
3, 271565, Note_off_c, 0, 64, 64
3, 271622, Note_on_c, 0, 57, 97
3, 271625, Note_off_c, 0, 62, 64
3, 271682, Note_on_c, 0, 64, 97
3, 271685, Note_off_c, 0, 57, 64
3, 271742, Note_on_c, 0, 65, 97
3, 271745, Note_off_c, 0, 64, 64
3, 271802, Note_on_c, 0, 64, 97
3, 271805, Note_off_c, 0, 65, 64
3, 271862, Note_on_c, 0, 57, 97
3, 271865, Note_off_c, 0, 64, 64
3, 271922, Note_on_c, 0, 62, 97
3, 271925, Note_off_c, 0, 57, 64
3, 271982, Note_on_c, 0, 64, 97
3, 271985, Note_off_c, 0, 62, 64
3, 272042, Note_on_c, 0, 62, 97
3, 272045, Note_off_c, 0, 64, 64
3, 272102, Note_on_c, 0, 57, 97
3, 272105, Note_off_c, 0, 62, 64
3, 272162, Note_on_c, 0, 61, 97
3, 272165, Note_off_c, 0, 57, 64
3, 272282, Note_on_c, 0, 69, 97
3, 272285, Note_off_c, 0, 61, 64
3, 272402, Note_on_c, 0, 62, 97
3, 272405, Note_off_c, 0, 69, 64
3, 272522, Note_on_c, 0, 69, 97
3, 272525, Note_off_c, 0, 62, 64
3, 272642, Note_on_c, 0, 64, 97
3, 272645, Note_off_c, 0, 69, 64
3, 272762, Note_on_c, 0, 69, 97
3, 272765, Note_off_c, 0, 64, 64
3, 272882, Note_on_c, 0, 65, 97
3, 272885, Note_off_c, 0, 69, 64
3, 273002, Note_on_c, 0, 69, 97
3, 273005, Note_off_c, 0, 65, 64
3, 273122, Note_on_c, 0, 67, 97
3, 273125, Note_off_c, 0, 69, 64
3, 273242, Note_on_c, 0, 69, 97
3, 273245, Note_off_c, 0, 67, 64
3, 273362, Note_on_c, 0, 65, 97
3, 273365, Note_off_c, 0, 69, 64
3, 273482, Note_on_c, 0, 69, 97
3, 273485, Note_off_c, 0, 65, 64
3, 273602, Note_on_c, 0, 64, 97
3, 273605, Note_off_c, 0, 69, 64
3, 273782, Note_on_c, 0, 65, 97
3, 273785, Note_off_c, 0, 64, 64
3, 273842, Note_on_c, 0, 64, 97
3, 273845, Note_off_c, 0, 65, 64
3, 273902, Note_on_c, 0, 62, 97
3, 273905, Note_off_c, 0, 64, 64
3, 273962, Note_on_c, 0, 61, 97
3, 273965, Note_off_c, 0, 62, 64
3, 274022, Note_on_c, 0, 59, 97
3, 274025, Note_off_c, 0, 61, 64
3, 274082, Note_on_c, 0, 57, 97
3, 274085, Note_off_c, 0, 59, 64
3, 274325, Note_off_c, 0, 57, 64
3, 274562, Note_on_c, 0, 64, 97
3, 275102, Note_on_c, 0, 57, 97
3, 275105, Note_off_c, 0, 64, 64
3, 275162, Note_on_c, 0, 55, 97
3, 275165, Note_off_c, 0, 57, 64
3, 275222, Note_on_c, 0, 57, 97
3, 275225, Note_off_c, 0, 55, 64
3, 275282, Note_on_c, 0, 62, 97
3, 275285, Note_off_c, 0, 57, 64
3, 275402, Note_on_c, 0, 60, 97
3, 275405, Note_off_c, 0, 62, 64
3, 275582, Note_on_c, 0, 58, 97
3, 275585, Note_off_c, 0, 60, 64
3, 275642, Note_on_c, 0, 57, 97
3, 275645, Note_off_c, 0, 58, 64
3, 275702, Note_on_c, 0, 60, 97
3, 275705, Note_off_c, 0, 57, 64
3, 275762, Note_on_c, 0, 58, 97
3, 275765, Note_off_c, 0, 60, 64
3, 276005, Note_off_c, 0, 58, 64
3, 276242, Note_on_c, 0, 62, 97
3, 276542, Note_on_c, 0, 55, 97
3, 276545, Note_off_c, 0, 62, 64
3, 276602, Note_on_c, 0, 54, 97
3, 276605, Note_off_c, 0, 55, 64
3, 276662, Note_on_c, 0, 55, 97
3, 276665, Note_off_c, 0, 54, 64
3, 276722, Note_on_c, 0, 60, 97
3, 276725, Note_off_c, 0, 55, 64
3, 276842, Note_on_c, 0, 58, 97
3, 276845, Note_off_c, 0, 60, 64
3, 277022, Note_on_c, 0, 57, 97
3, 277025, Note_off_c, 0, 58, 64
3, 277082, Note_on_c, 0, 55, 97
3, 277085, Note_off_c, 0, 57, 64
3, 277142, Note_on_c, 0, 58, 97
3, 277145, Note_off_c, 0, 55, 64
3, 277202, Note_on_c, 0, 52, 97
3, 277205, Note_off_c, 0, 58, 64
3, 277262, Note_on_c, 0, 58, 97
3, 277265, Note_off_c, 0, 52, 64
3, 277322, Note_on_c, 0, 57, 97
3, 277325, Note_off_c, 0, 58, 64
3, 277382, Note_on_c, 0, 52, 97
3, 277385, Note_off_c, 0, 57, 64
3, 277442, Note_on_c, 0, 53, 97
3, 277445, Note_off_c, 0, 52, 64
3, 277502, Note_on_c, 0, 58, 97
3, 277505, Note_off_c, 0, 53, 64
3, 277562, Note_on_c, 0, 57, 97
3, 277565, Note_off_c, 0, 58, 64
3, 277622, Note_on_c, 0, 53, 97
3, 277625, Note_off_c, 0, 57, 64
3, 277682, Note_on_c, 0, 55, 97
3, 277685, Note_off_c, 0, 53, 64
3, 277742, Note_on_c, 0, 58, 97
3, 277745, Note_off_c, 0, 55, 64
3, 277802, Note_on_c, 0, 57, 97
3, 277805, Note_off_c, 0, 58, 64
3, 277862, Note_on_c, 0, 55, 97
3, 277865, Note_off_c, 0, 57, 64
3, 277922, Note_on_c, 0, 53, 97
3, 277925, Note_off_c, 0, 55, 64
3, 277982, Note_on_c, 0, 52, 97
3, 277985, Note_off_c, 0, 53, 64
3, 278042, Note_on_c, 0, 50, 97
3, 278045, Note_off_c, 0, 52, 64
3, 278102, Note_on_c, 0, 52, 97
3, 278105, Note_off_c, 0, 50, 64
3, 278162, Note_on_c, 0, 53, 97
3, 278165, Note_off_c, 0, 52, 64
3, 278282, Note_on_c, 0, 54, 97
3, 278285, Note_off_c, 0, 53, 64
3, 278402, Note_on_c, 0, 55, 97
3, 278405, Note_off_c, 0, 54, 64
3, 278522, Note_on_c, 0, 56, 97
3, 278525, Note_off_c, 0, 55, 64
3, 278642, Note_on_c, 0, 57, 97
3, 278645, Note_off_c, 0, 56, 64
3, 278702, Note_on_c, 0, 55, 97
3, 278705, Note_off_c, 0, 57, 64
3, 278762, Note_on_c, 0, 57, 97
3, 278765, Note_off_c, 0, 55, 64
3, 278822, Note_on_c, 0, 58, 97
3, 278825, Note_off_c, 0, 57, 64
3, 278882, Note_on_c, 0, 52, 97
3, 278885, Note_off_c, 0, 58, 64
3, 278912, Note_on_c, 0, 50, 97
3, 278915, Note_off_c, 0, 52, 64
3, 278942, Note_on_c, 0, 52, 97
3, 278945, Note_off_c, 0, 50, 64
3, 279242, Note_on_c, 0, 50, 97
3, 279245, Note_off_c, 0, 52, 64
3, 279362, Note_on_c, 0, 50, 97
3, 279365, Note_off_c, 0, 50, 64
3, 279605, Note_off_c, 0, 50, 64
3, 279842, Note_on_c, 0, 65, 97
3, 280082, Note_on_c, 0, 59, 97
3, 280085, Note_off_c, 0, 65, 64
3, 280202, Note_on_c, 0, 64, 97
3, 280205, Note_off_c, 0, 59, 64
3, 280382, Note_on_c, 0, 62, 97
3, 280385, Note_off_c, 0, 64, 64
3, 280442, Note_on_c, 0, 60, 97
3, 280445, Note_off_c, 0, 62, 64
3, 280502, Note_on_c, 0, 59, 97
3, 280505, Note_off_c, 0, 60, 64
3, 280562, Note_on_c, 0, 57, 97
3, 280565, Note_off_c, 0, 59, 64
3, 280622, Note_on_c, 0, 56, 97
3, 280625, Note_off_c, 0, 57, 64
3, 280682, Note_on_c, 0, 57, 97
3, 280685, Note_off_c, 0, 56, 64
3, 280742, Note_on_c, 0, 60, 97
3, 280745, Note_off_c, 0, 57, 64
3, 280802, Note_on_c, 0, 54, 97
3, 280805, Note_off_c, 0, 60, 64
3, 280862, Note_on_c, 0, 57, 97
3, 280865, Note_off_c, 0, 54, 64
3, 280922, Note_on_c, 0, 56, 97
3, 280925, Note_off_c, 0, 57, 64
3, 280982, Note_on_c, 0, 54, 97
3, 280985, Note_off_c, 0, 56, 64
3, 281042, Note_on_c, 0, 56, 97
3, 281045, Note_off_c, 0, 54, 64
3, 281102, Note_on_c, 0, 57, 97
3, 281105, Note_off_c, 0, 56, 64
3, 281162, Note_on_c, 0, 59, 97
3, 281165, Note_off_c, 0, 57, 64
3, 281222, Note_on_c, 0, 60, 97
3, 281225, Note_off_c, 0, 59, 64
3, 281282, Note_on_c, 0, 62, 97
3, 281285, Note_off_c, 0, 60, 64
3, 281342, Note_on_c, 0, 64, 97
3, 281345, Note_off_c, 0, 62, 64
3, 281402, Note_on_c, 0, 65, 97
3, 281405, Note_off_c, 0, 64, 64
3, 281462, Note_on_c, 0, 62, 97
3, 281465, Note_off_c, 0, 65, 64
3, 281522, Note_on_c, 0, 64, 97
3, 281525, Note_off_c, 0, 62, 64
3, 282542, Note_on_c, 0, 56, 97
3, 282545, Note_off_c, 0, 64, 64
3, 282602, Note_on_c, 0, 57, 97
3, 282605, Note_off_c, 0, 56, 64
3, 282662, Note_on_c, 0, 59, 97
3, 282665, Note_off_c, 0, 57, 64
3, 282722, Note_on_c, 0, 60, 97
3, 282725, Note_off_c, 0, 59, 64
3, 282842, Note_on_c, 0, 61, 97
3, 282845, Note_off_c, 0, 60, 64
3, 282962, Note_on_c, 0, 62, 97
3, 282965, Note_off_c, 0, 61, 64
3, 283262, Note_on_c, 0, 60, 97
3, 283265, Note_off_c, 0, 62, 64
3, 283322, Note_on_c, 0, 59, 97
3, 283325, Note_off_c, 0, 60, 64
3, 283382, Note_on_c, 0, 60, 97
3, 283385, Note_off_c, 0, 59, 64
3, 283442, Note_on_c, 0, 62, 97
3, 283445, Note_off_c, 0, 60, 64
3, 283562, Note_on_c, 0, 63, 97
3, 283565, Note_off_c, 0, 62, 64
3, 283682, Note_on_c, 0, 64, 97
3, 283685, Note_off_c, 0, 63, 64
3, 283982, Note_on_c, 0, 62, 97
3, 283985, Note_off_c, 0, 64, 64
3, 284042, Note_on_c, 0, 65, 97
3, 284045, Note_off_c, 0, 62, 64
3, 284102, Note_on_c, 0, 64, 97
3, 284105, Note_off_c, 0, 65, 64
3, 284162, Note_on_c, 0, 62, 97
3, 284165, Note_off_c, 0, 64, 64
3, 284222, Note_on_c, 0, 60, 97
3, 284225, Note_off_c, 0, 62, 64
3, 284282, Note_on_c, 0, 59, 97
3, 284285, Note_off_c, 0, 60, 64
3, 284342, Note_on_c, 0, 57, 97
3, 284345, Note_off_c, 0, 59, 64
3, 284402, Note_on_c, 0, 60, 97
3, 284405, Note_off_c, 0, 57, 64
3, 284522, Note_on_c, 0, 59, 97
3, 284525, Note_off_c, 0, 60, 64
3, 284645, Note_off_c, 0, 59, 64
3, 284882, Note_on_c, 0, 64, 97
3, 285122, Note_on_c, 0, 57, 97
3, 285125, Note_off_c, 0, 64, 64
3, 285365, Note_off_c, 0, 57, 64
3, 285602, Note_on_c, 0, 62, 97
3, 285962, Note_on_c, 0, 60, 97
3, 285965, Note_off_c, 0, 62, 64
3, 286082, Note_on_c, 0, 59, 97
3, 286085, Note_off_c, 0, 60, 64
3, 286142, Note_on_c, 0, 60, 97
3, 286145, Note_off_c, 0, 59, 64
3, 286202, Note_on_c, 0, 62, 97
3, 286205, Note_off_c, 0, 60, 64
3, 286442, Note_on_c, 0, 56, 97
3, 286445, Note_off_c, 0, 62, 64
3, 286562, Note_on_c, 0, 57, 97
3, 286565, Note_off_c, 0, 56, 64
3, 286805, Note_off_c, 0, 57, 64
3, 288002, Note_on_c, 0, 64, 97
3, 288122, Note_on_c, 0, 67, 97
3, 288125, Note_off_c, 0, 64, 64
3, 288182, Note_on_c, 0, 71, 97
3, 288185, Note_off_c, 0, 67, 64
3, 288242, Note_on_c, 0, 72, 97
3, 288245, Note_off_c, 0, 71, 64
3, 288485, Note_off_c, 0, 72, 64
3, 288722, Note_on_c, 0, 64, 97
3, 288962, Note_on_c, 0, 63, 97
3, 288965, Note_off_c, 0, 64, 64
3, 289205, Note_off_c, 0, 63, 64
3, 289442, Note_on_c, 0, 64, 97
3, 289562, Note_on_c, 0, 67, 97
3, 289565, Note_off_c, 0, 64, 64
3, 289622, Note_on_c, 0, 71, 97
3, 289625, Note_off_c, 0, 67, 64
3, 289682, Note_on_c, 0, 76, 97
3, 289685, Note_off_c, 0, 71, 64
3, 289802, Note_on_c, 0, 76, 97
3, 289805, Note_off_c, 0, 76, 64
3, 289922, Note_on_c, 0, 76, 97
3, 289925, Note_off_c, 0, 76, 64
3, 290042, Note_on_c, 0, 76, 97
3, 290045, Note_off_c, 0, 76, 64
3, 290282, Note_on_c, 0, 74, 97
3, 290285, Note_off_c, 0, 76, 64
3, 290342, Note_on_c, 0, 72, 97
3, 290345, Note_off_c, 0, 74, 64
3, 290402, Note_on_c, 0, 74, 97
3, 290405, Note_off_c, 0, 72, 64
3, 290522, Note_on_c, 0, 65, 97
3, 290525, Note_off_c, 0, 74, 64
3, 290642, Note_on_c, 0, 64, 97
3, 290645, Note_off_c, 0, 65, 64
3, 290762, Note_on_c, 0, 74, 97
3, 290765, Note_off_c, 0, 64, 64
3, 291002, Note_on_c, 0, 72, 97
3, 291005, Note_off_c, 0, 74, 64
3, 291062, Note_on_c, 0, 71, 97
3, 291065, Note_off_c, 0, 72, 64
3, 291122, Note_on_c, 0, 72, 97
3, 291125, Note_off_c, 0, 71, 64
3, 291242, Note_on_c, 0, 64, 97
3, 291245, Note_off_c, 0, 72, 64
3, 291362, Note_on_c, 0, 63, 97
3, 291365, Note_off_c, 0, 64, 64
3, 291482, Note_on_c, 0, 72, 97
3, 291485, Note_off_c, 0, 63, 64
3, 291602, Note_on_c, 0, 71, 97
3, 291605, Note_off_c, 0, 72, 64
3, 291662, Note_on_c, 0, 69, 97
3, 291665, Note_off_c, 0, 71, 64
3, 291722, Note_on_c, 0, 72, 97
3, 291725, Note_off_c, 0, 69, 64
3, 291782, Note_on_c, 0, 71, 97
3, 291785, Note_off_c, 0, 72, 64
3, 291842, Note_on_c, 0, 69, 97
3, 291845, Note_off_c, 0, 71, 64
3, 291902, Note_on_c, 0, 67, 97
3, 291905, Note_off_c, 0, 69, 64
3, 291962, Note_on_c, 0, 66, 97
3, 291965, Note_off_c, 0, 67, 64
3, 292022, Note_on_c, 0, 64, 97
3, 292025, Note_off_c, 0, 66, 64
3, 292082, Note_on_c, 0, 63, 97
3, 292085, Note_off_c, 0, 64, 64
3, 292142, Note_on_c, 0, 69, 97
3, 292145, Note_off_c, 0, 63, 64
3, 292202, Note_on_c, 0, 67, 97
3, 292205, Note_off_c, 0, 69, 64
3, 292262, Note_on_c, 0, 66, 97
3, 292265, Note_off_c, 0, 67, 64
3, 292322, Note_on_c, 0, 67, 97
3, 292325, Note_off_c, 0, 66, 64
3, 292382, Note_on_c, 0, 66, 97
3, 292385, Note_off_c, 0, 67, 64
3, 292442, Note_on_c, 0, 64, 97
3, 292445, Note_off_c, 0, 66, 64
3, 292682, Note_on_c, 0, 62, 97
3, 292685, Note_off_c, 0, 64, 64
3, 292802, Note_on_c, 0, 61, 97
3, 292805, Note_off_c, 0, 62, 64
3, 292922, Note_on_c, 0, 67, 97
3, 292925, Note_off_c, 0, 61, 64
3, 293042, Note_on_c, 0, 65, 97
3, 293045, Note_off_c, 0, 67, 64
3, 293102, Note_on_c, 0, 64, 97
3, 293105, Note_off_c, 0, 65, 64
3, 293162, Note_on_c, 0, 62, 97
3, 293165, Note_off_c, 0, 64, 64
3, 293402, Note_on_c, 0, 60, 97
3, 293405, Note_off_c, 0, 62, 64
3, 293522, Note_on_c, 0, 59, 97
3, 293525, Note_off_c, 0, 60, 64
3, 293642, Note_on_c, 0, 65, 97
3, 293645, Note_off_c, 0, 59, 64
3, 293762, Note_on_c, 0, 64, 97
3, 293765, Note_off_c, 0, 65, 64
3, 293822, Note_on_c, 0, 62, 97
3, 293825, Note_off_c, 0, 64, 64
3, 293882, Note_on_c, 0, 60, 97
3, 293885, Note_off_c, 0, 62, 64
3, 294122, Note_on_c, 0, 62, 97
3, 294125, Note_off_c, 0, 60, 64
3, 294182, Note_on_c, 0, 64, 97
3, 294185, Note_off_c, 0, 62, 64
3, 294242, Note_on_c, 0, 65, 97
3, 294245, Note_off_c, 0, 64, 64
3, 294362, Note_on_c, 0, 66, 97
3, 294365, Note_off_c, 0, 65, 64
3, 294482, Note_on_c, 0, 67, 97
3, 294485, Note_off_c, 0, 66, 64
3, 294602, Note_on_c, 0, 68, 97
3, 294605, Note_off_c, 0, 67, 64
3, 294782, Note_on_c, 0, 69, 97
3, 294785, Note_off_c, 0, 68, 64
3, 294842, Note_on_c, 0, 71, 97
3, 294845, Note_off_c, 0, 69, 64
3, 294902, Note_on_c, 0, 72, 97
3, 294905, Note_off_c, 0, 71, 64
3, 294962, Note_on_c, 0, 74, 97
3, 294965, Note_off_c, 0, 72, 64
3, 295022, Note_on_c, 0, 72, 97
3, 295025, Note_off_c, 0, 74, 64
3, 295082, Note_on_c, 0, 71, 97
3, 295085, Note_off_c, 0, 72, 64
3, 295142, Note_on_c, 0, 74, 97
3, 295145, Note_off_c, 0, 71, 64
3, 295202, Note_on_c, 0, 72, 97
3, 295205, Note_off_c, 0, 74, 64
3, 295445, Note_off_c, 0, 72, 64
3, 295682, Note_on_c, 0, 76, 97
3, 295982, Note_on_c, 0, 69, 97
3, 295985, Note_off_c, 0, 76, 64
3, 296042, Note_on_c, 0, 67, 97
3, 296045, Note_off_c, 0, 69, 64
3, 296102, Note_on_c, 0, 69, 97
3, 296105, Note_off_c, 0, 67, 64
3, 296162, Note_on_c, 0, 74, 97
3, 296165, Note_off_c, 0, 69, 64
3, 296282, Note_on_c, 0, 72, 97
3, 296285, Note_off_c, 0, 74, 64
3, 296462, Note_on_c, 0, 70, 97
3, 296465, Note_off_c, 0, 72, 64
3, 296522, Note_on_c, 0, 69, 97
3, 296525, Note_off_c, 0, 70, 64
3, 296582, Note_on_c, 0, 72, 97
3, 296585, Note_off_c, 0, 69, 64
3, 296642, Note_on_c, 0, 70, 97
3, 296645, Note_off_c, 0, 72, 64
3, 296885, Note_off_c, 0, 70, 64
3, 297122, Note_on_c, 0, 69, 97
3, 297362, Note_on_c, 0, 68, 97
3, 297365, Note_off_c, 0, 69, 64
3, 297602, Note_on_c, 0, 69, 97
3, 297605, Note_off_c, 0, 68, 64
3, 297842, Note_on_c, 0, 71, 97
3, 297845, Note_off_c, 0, 69, 64
3, 298082, Note_on_c, 0, 64, 97
3, 298085, Note_off_c, 0, 71, 64
3, 298382, Note_on_c, 0, 62, 97
3, 298385, Note_off_c, 0, 64, 64
3, 298442, Note_on_c, 0, 64, 97
3, 298445, Note_off_c, 0, 62, 64
3, 298502, Note_on_c, 0, 69, 97
3, 298505, Note_off_c, 0, 64, 64
3, 298562, Note_on_c, 0, 57, 97
3, 298565, Note_off_c, 0, 69, 64
3, 299102, Note_on_c, 0, 56, 97
3, 299105, Note_off_c, 0, 57, 64
3, 299162, Note_on_c, 0, 54, 97
3, 299165, Note_off_c, 0, 56, 64
3, 299222, Note_on_c, 0, 56, 97
3, 299225, Note_off_c, 0, 54, 64
3, 299282, Note_on_c, 0, 56, 97
3, 299285, Note_off_c, 0, 56, 64
3, 299312, Note_on_c, 0, 57, 97
3, 299315, Note_off_c, 0, 56, 64
3, 299342, Note_on_c, 0, 56, 97
3, 299345, Note_off_c, 0, 57, 64
3, 299462, Note_on_c, 0, 57, 97
3, 299465, Note_off_c, 0, 56, 64
3, 299522, Note_on_c, 0, 57, 97
3, 299525, Note_off_c, 0, 57, 64
3, 299762, Note_on_c, 0, 60, 97
3, 299765, Note_off_c, 0, 57, 64
3, 300002, Note_on_c, 0, 59, 97
3, 300005, Note_off_c, 0, 60, 64
3, 300242, Note_on_c, 0, 60, 97
3, 300245, Note_off_c, 0, 59, 64
3, 300362, Note_on_c, 0, 57, 97
3, 300365, Note_off_c, 0, 60, 64
3, 300482, Note_on_c, 0, 64, 97
3, 300485, Note_off_c, 0, 57, 64
3, 300722, Note_on_c, 0, 63, 97
3, 300725, Note_off_c, 0, 64, 64
3, 300752, Note_on_c, 0, 64, 97
3, 300755, Note_off_c, 0, 63, 64
3, 300782, Note_on_c, 0, 63, 97
3, 300785, Note_off_c, 0, 64, 64
3, 300962, Note_on_c, 0, 63, 97
3, 300965, Note_off_c, 0, 63, 64
3, 301202, Note_on_c, 0, 64, 97
3, 301205, Note_off_c, 0, 63, 64
3, 302405, Note_off_c, 0, 64, 64
3, 307920, Note_on_c, 0, 72, 97
3, 308160, Note_off_c, 0, 72, 64
3, 308160, Note_on_c, 0, 71, 97
3, 308400, Note_off_c, 0, 71, 64
3, 308400, Note_on_c, 0, 76, 97
3, 308640, Note_off_c, 0, 76, 64
3, 308640, Note_on_c, 0, 72, 97
3, 308880, Note_off_c, 0, 72, 64
3, 308880, Note_on_c, 0, 69, 97
3, 309120, Note_off_c, 0, 69, 64
3, 309120, Note_on_c, 0, 74, 97
3, 309720, Note_off_c, 0, 74, 64
3, 309720, Note_on_c, 0, 67, 97
3, 309840, Note_off_c, 0, 67, 64
3, 309840, Note_on_c, 0, 69, 97
3, 309960, Note_off_c, 0, 69, 64
3, 309960, Note_on_c, 0, 71, 97
3, 310080, Note_off_c, 0, 71, 64
3, 310080, Note_on_c, 0, 72, 97
3, 310320, Note_off_c, 0, 72, 64
3, 310320, Note_on_c, 0, 64, 97
3, 310560, Note_off_c, 0, 64, 64
3, 310560, Note_on_c, 0, 62, 97
3, 310800, Note_off_c, 0, 62, 64
3, 310800, Note_on_c, 0, 72, 97
3, 311040, Note_off_c, 0, 72, 64
3, 311040, Note_on_c, 0, 71, 97
3, 311070, Note_off_c, 0, 71, 64
3, 311070, Note_on_c, 0, 72, 97
3, 311100, Note_off_c, 0, 72, 64
3, 311100, Note_on_c, 0, 71, 97
3, 311160, Note_off_c, 0, 71, 64
3, 311160, Note_on_c, 0, 69, 97
3, 311280, Note_off_c, 0, 69, 64
3, 311280, Note_on_c, 0, 71, 97
3, 311400, Note_off_c, 0, 71, 64
3, 311400, Note_on_c, 0, 72, 97
3, 311520, Note_off_c, 0, 72, 64
3, 311520, Note_on_c, 0, 69, 97
3, 311760, Note_off_c, 0, 69, 64
3, 311760, Note_on_c, 0, 71, 97
3, 311880, Note_off_c, 0, 71, 64
3, 311880, Note_on_c, 0, 72, 97
3, 312000, Note_off_c, 0, 72, 64
3, 312000, Note_on_c, 0, 74, 97
3, 312120, Note_off_c, 0, 74, 64
3, 312120, Note_on_c, 0, 76, 97
3, 312240, Note_off_c, 0, 76, 64
3, 312240, Note_on_c, 0, 78, 97
3, 312360, Note_off_c, 0, 78, 64
3, 312360, Note_on_c, 0, 74, 97
3, 312480, Note_off_c, 0, 74, 64
3, 312480, Note_on_c, 0, 76, 97
3, 312600, Note_off_c, 0, 76, 64
3, 312600, Note_on_c, 0, 74, 97
3, 312720, Note_off_c, 0, 74, 64
3, 312720, Note_on_c, 0, 76, 97
3, 312840, Note_off_c, 0, 76, 64
3, 312840, Note_on_c, 0, 78, 97
3, 312960, Note_off_c, 0, 78, 64
3, 312960, Note_on_c, 0, 76, 97
3, 313080, Note_off_c, 0, 76, 64
3, 313080, Note_on_c, 0, 79, 97
3, 313200, Note_off_c, 0, 79, 64
3, 313200, Note_on_c, 0, 78, 97
3, 313320, Note_off_c, 0, 78, 64
3, 313320, Note_on_c, 0, 76, 97
3, 313440, Note_off_c, 0, 76, 64
3, 313440, Note_on_c, 0, 74, 97
3, 314040, Note_off_c, 0, 74, 64
3, 314040, Note_on_c, 0, 71, 97
3, 314160, Note_off_c, 0, 71, 64
3, 314160, Note_on_c, 0, 69, 97
3, 314280, Note_off_c, 0, 69, 64
3, 314280, Note_on_c, 0, 67, 97
3, 314400, Note_off_c, 0, 67, 64
3, 314400, Note_on_c, 0, 76, 97
3, 314520, Note_off_c, 0, 76, 64
3, 314520, Note_on_c, 0, 74, 97
3, 314640, Note_off_c, 0, 74, 64
3, 314640, Note_on_c, 0, 72, 97
3, 314760, Note_off_c, 0, 72, 64
3, 314760, Note_on_c, 0, 71, 97
3, 314880, Note_off_c, 0, 71, 64
3, 314880, Note_on_c, 0, 69, 97
3, 315120, Note_off_c, 0, 69, 64
3, 315120, Note_on_c, 0, 74, 97
3, 315360, Note_off_c, 0, 74, 64
3, 315360, Note_on_c, 0, 71, 97
3, 315480, Note_off_c, 0, 71, 64
3, 315480, Note_on_c, 0, 67, 97
3, 315600, Note_off_c, 0, 67, 64
3, 315600, Note_on_c, 0, 71, 97
3, 315720, Note_off_c, 0, 71, 64
3, 315720, Note_on_c, 0, 74, 97
3, 315840, Note_off_c, 0, 74, 64
3, 315840, Note_on_c, 0, 79, 97
3, 317760, Note_off_c, 0, 79, 64
3, 317880, Note_on_c, 0, 79, 97
3, 318000, Note_off_c, 0, 79, 64
3, 318000, Note_on_c, 0, 74, 97
3, 318120, Note_off_c, 0, 74, 64
3, 318120, Note_on_c, 0, 77, 97
3, 318240, Note_off_c, 0, 77, 64
3, 318240, Note_on_c, 0, 76, 97
3, 318360, Note_off_c, 0, 76, 64
3, 318360, Note_on_c, 0, 79, 97
3, 318480, Note_off_c, 0, 79, 64
3, 318480, Note_on_c, 0, 71, 97
3, 318600, Note_off_c, 0, 71, 64
3, 318600, Note_on_c, 0, 74, 97
3, 318720, Note_off_c, 0, 74, 64
3, 318720, Note_on_c, 0, 72, 97
3, 318840, Note_off_c, 0, 72, 64
3, 318840, Note_on_c, 0, 76, 97
3, 318960, Note_off_c, 0, 76, 64
3, 318960, Note_on_c, 0, 74, 97
3, 319080, Note_off_c, 0, 74, 64
3, 319080, Note_on_c, 0, 72, 97
3, 319200, Note_off_c, 0, 72, 64
3, 319200, Note_on_c, 0, 71, 97
3, 319320, Note_off_c, 0, 71, 64
3, 319320, Note_on_c, 0, 67, 97
3, 319440, Note_off_c, 0, 67, 64
3, 319440, Note_on_c, 0, 71, 97
3, 319560, Note_off_c, 0, 71, 64
3, 319560, Note_on_c, 0, 74, 97
3, 319680, Note_off_c, 0, 74, 64
3, 319680, Note_on_c, 0, 79, 97
3, 320280, Note_off_c, 0, 79, 64
3, 320280, Note_on_c, 0, 77, 97
3, 320400, Note_off_c, 0, 77, 64
3, 320400, Note_on_c, 0, 76, 97
3, 320520, Note_off_c, 0, 76, 64
3, 320520, Note_on_c, 0, 79, 97
3, 320640, Note_off_c, 0, 79, 64
3, 320640, Note_on_c, 0, 77, 97
3, 321240, Note_off_c, 0, 77, 64
3, 321240, Note_on_c, 0, 67, 97
3, 321360, Note_off_c, 0, 67, 64
3, 321360, Note_on_c, 0, 71, 97
3, 321480, Note_off_c, 0, 71, 64
3, 321480, Note_on_c, 0, 74, 97
3, 321600, Note_off_c, 0, 74, 64
3, 321600, Note_on_c, 0, 76, 97
3, 322200, Note_off_c, 0, 76, 64
3, 322200, Note_on_c, 0, 74, 97
3, 322320, Note_off_c, 0, 74, 64
3, 322320, Note_on_c, 0, 72, 97
3, 322440, Note_off_c, 0, 72, 64
3, 322440, Note_on_c, 0, 76, 97
3, 322560, Note_off_c, 0, 76, 64
3, 322560, Note_on_c, 0, 74, 97
3, 323160, Note_off_c, 0, 74, 64
3, 323160, Note_on_c, 0, 72, 97
3, 323280, Note_off_c, 0, 72, 64
3, 323280, Note_on_c, 0, 71, 97
3, 323400, Note_off_c, 0, 71, 64
3, 323400, Note_on_c, 0, 74, 97
3, 323520, Note_off_c, 0, 74, 64
3, 323520, Note_on_c, 0, 72, 97
3, 324240, Note_off_c, 0, 72, 64
3, 324240, Note_on_c, 0, 71, 97
3, 324360, Note_off_c, 0, 71, 64
3, 324360, Note_on_c, 0, 69, 97
3, 324480, Note_off_c, 0, 69, 64
3, 324480, Note_on_c, 0, 71, 97
3, 325440, Note_off_c, 0, 71, 64
3, 325440, Note_on_c, 0, 69, 97
3, 326160, Note_off_c, 0, 69, 64
3, 326160, Note_on_c, 0, 67, 97
3, 326280, Note_off_c, 0, 67, 64
3, 326280, Note_on_c, 0, 65, 97
3, 326400, Note_off_c, 0, 65, 64
3, 326400, Note_on_c, 0, 67, 97
3, 327360, Note_off_c, 0, 67, 64
3, 327360, Note_on_c, 0, 65, 97
3, 327960, Note_off_c, 0, 65, 64
3, 327960, Note_on_c, 0, 62, 97
3, 328080, Note_off_c, 0, 62, 64
3, 328080, Note_on_c, 0, 64, 97
3, 328200, Note_off_c, 0, 64, 64
3, 328200, Note_on_c, 0, 65, 97
3, 328320, Note_off_c, 0, 65, 64
3, 328320, Note_on_c, 0, 64, 97
3, 328440, Note_off_c, 0, 64, 64
3, 328440, Note_on_c, 0, 67, 97
3, 328560, Note_off_c, 0, 67, 64
3, 328560, Note_on_c, 0, 64, 97
3, 328680, Note_off_c, 0, 64, 64
3, 328680, Note_on_c, 0, 60, 97
3, 328800, Note_off_c, 0, 60, 64
3, 328800, Note_on_c, 0, 62, 97
3, 328920, Note_off_c, 0, 62, 64
3, 328920, Note_on_c, 0, 60, 97
3, 329040, Note_off_c, 0, 60, 64
3, 329040, Note_on_c, 0, 62, 97
3, 329160, Note_off_c, 0, 62, 64
3, 329160, Note_on_c, 0, 64, 97
3, 329280, Note_off_c, 0, 64, 64
3, 329280, Note_on_c, 0, 62, 97
3, 329400, Note_off_c, 0, 62, 64
3, 329400, Note_on_c, 0, 65, 97
3, 329520, Note_off_c, 0, 65, 64
3, 329520, Note_on_c, 0, 62, 97
3, 329640, Note_off_c, 0, 62, 64
3, 329640, Note_on_c, 0, 59, 97
3, 329760, Note_off_c, 0, 59, 64
3, 329760, Note_on_c, 0, 67, 97
3, 330000, Note_off_c, 0, 67, 64
3, 330000, Note_on_c, 0, 65, 97
3, 330120, Note_off_c, 0, 65, 64
3, 330120, Note_on_c, 0, 64, 97
3, 330240, Note_off_c, 0, 64, 64
3, 330240, Note_on_c, 0, 65, 97
3, 330360, Note_off_c, 0, 65, 64
3, 330360, Note_on_c, 0, 64, 97
3, 330480, Note_off_c, 0, 64, 64
3, 330480, Note_on_c, 0, 62, 97
3, 330600, Note_off_c, 0, 62, 64
3, 330600, Note_on_c, 0, 64, 97
3, 330720, Note_off_c, 0, 64, 64
3, 330720, Note_on_c, 0, 60, 97
3, 330960, Note_off_c, 0, 60, 64
3, 332640, Note_on_c, 0, 60, 97
3, 332760, Note_off_c, 0, 60, 64
3, 332760, Note_on_c, 0, 62, 97
3, 332880, Note_off_c, 0, 62, 64
3, 332880, Note_on_c, 0, 60, 97
3, 333000, Note_off_c, 0, 60, 64
3, 333000, Note_on_c, 0, 62, 97
3, 333120, Note_off_c, 0, 62, 64
3, 333120, Note_on_c, 0, 64, 97
3, 333240, Note_off_c, 0, 64, 64
3, 333240, Note_on_c, 0, 65, 97
3, 333360, Note_off_c, 0, 65, 64
3, 333360, Note_on_c, 0, 64, 97
3, 333480, Note_off_c, 0, 64, 64
3, 333480, Note_on_c, 0, 65, 97
3, 333600, Note_off_c, 0, 65, 64
3, 333600, Note_on_c, 0, 62, 97
3, 333720, Note_off_c, 0, 62, 64
3, 333720, Note_on_c, 0, 64, 97
3, 333840, Note_off_c, 0, 64, 64
3, 333840, Note_on_c, 0, 62, 97
3, 333960, Note_off_c, 0, 62, 64
3, 333960, Note_on_c, 0, 64, 97
3, 334080, Note_off_c, 0, 64, 64
3, 334080, Note_on_c, 0, 65, 97
3, 334200, Note_off_c, 0, 65, 64
3, 334200, Note_on_c, 0, 67, 97
3, 334320, Note_off_c, 0, 67, 64
3, 334320, Note_on_c, 0, 65, 97
3, 334440, Note_off_c, 0, 65, 64
3, 334440, Note_on_c, 0, 67, 97
3, 334560, Note_off_c, 0, 67, 64
3, 334560, Note_on_c, 0, 64, 97
3, 334800, Note_off_c, 0, 64, 64
3, 334800, Note_on_c, 0, 72, 97
3, 335040, Note_off_c, 0, 72, 64
3, 335040, Note_on_c, 0, 60, 97
3, 335280, Note_off_c, 0, 60, 64
3, 335280, Note_on_c, 0, 72, 97
3, 335520, Note_off_c, 0, 72, 64
3, 335520, Note_on_c, 0, 65, 97
3, 335760, Note_off_c, 0, 65, 64
3, 335760, Note_on_c, 0, 72, 97
3, 336000, Note_off_c, 0, 72, 64
3, 336000, Note_on_c, 0, 62, 97
3, 336240, Note_off_c, 0, 62, 64
3, 336240, Note_on_c, 0, 71, 97
3, 336480, Note_off_c, 0, 71, 64
3, 336480, Note_on_c, 0, 72, 97
3, 336720, Note_off_c, 0, 72, 64
3, 336720, Note_on_c, 0, 67, 97
3, 336960, Note_off_c, 0, 67, 64
3, 336960, Note_on_c, 0, 72, 97
3, 337920, Note_off_c, 0, 72, 64
3, 337920, Note_on_c, 0, 71, 97
3, 338880, Note_off_c, 0, 71, 64
3, 338880, Note_on_c, 0, 69, 97
3, 339840, Note_off_c, 0, 69, 64
3, 339840, Note_on_c, 0, 68, 97
3, 340080, Note_off_c, 0, 68, 64
3, 340080, Note_on_c, 0, 64, 97
3, 340320, Note_off_c, 0, 64, 64
3, 340320, Note_on_c, 0, 69, 97
3, 340440, Note_off_c, 0, 69, 64
3, 340440, Note_on_c, 0, 71, 97
3, 340560, Note_off_c, 0, 71, 64
3, 340560, Note_on_c, 0, 69, 97
3, 340680, Note_off_c, 0, 69, 64
3, 340680, Note_on_c, 0, 71, 97
3, 340800, Note_off_c, 0, 71, 64
3, 340800, Note_on_c, 0, 72, 97
3, 340920, Note_off_c, 0, 72, 64
3, 340920, Note_on_c, 0, 74, 97
3, 341040, Note_off_c, 0, 74, 64
3, 341040, Note_on_c, 0, 72, 97
3, 341160, Note_off_c, 0, 72, 64
3, 341160, Note_on_c, 0, 74, 97
3, 341280, Note_off_c, 0, 74, 64
3, 341280, Note_on_c, 0, 71, 97
3, 341400, Note_off_c, 0, 71, 64
3, 341400, Note_on_c, 0, 72, 97
3, 341520, Note_off_c, 0, 72, 64
3, 341520, Note_on_c, 0, 71, 97
3, 341640, Note_off_c, 0, 71, 64
3, 341640, Note_on_c, 0, 72, 97
3, 341760, Note_off_c, 0, 72, 64
3, 341760, Note_on_c, 0, 74, 97
3, 341880, Note_off_c, 0, 74, 64
3, 341880, Note_on_c, 0, 76, 97
3, 342000, Note_off_c, 0, 76, 64
3, 342000, Note_on_c, 0, 74, 97
3, 342120, Note_off_c, 0, 74, 64
3, 342120, Note_on_c, 0, 76, 97
3, 342240, Note_off_c, 0, 76, 64
3, 342240, Note_on_c, 0, 72, 97
3, 342360, Note_off_c, 0, 72, 64
3, 342360, Note_on_c, 0, 74, 97
3, 342480, Note_off_c, 0, 74, 64
3, 342480, Note_on_c, 0, 72, 97
3, 342600, Note_off_c, 0, 72, 64
3, 342600, Note_on_c, 0, 74, 97
3, 342720, Note_off_c, 0, 74, 64
3, 342720, Note_on_c, 0, 76, 97
3, 342840, Note_off_c, 0, 76, 64
3, 342840, Note_on_c, 0, 77, 97
3, 342960, Note_off_c, 0, 77, 64
3, 342960, Note_on_c, 0, 76, 97
3, 343080, Note_off_c, 0, 76, 64
3, 343080, Note_on_c, 0, 77, 97
3, 343200, Note_off_c, 0, 77, 64
3, 343200, Note_on_c, 0, 74, 97
3, 343320, Note_off_c, 0, 74, 64
3, 343320, Note_on_c, 0, 76, 97
3, 343440, Note_off_c, 0, 76, 64
3, 343440, Note_on_c, 0, 74, 97
3, 343560, Note_off_c, 0, 74, 64
3, 343560, Note_on_c, 0, 72, 97
3, 343680, Note_off_c, 0, 72, 64
3, 343680, Note_on_c, 0, 71, 97
3, 344400, Note_off_c, 0, 71, 64
3, 344400, Note_on_c, 0, 76, 97
3, 344640, Note_off_c, 0, 76, 64
3, 344640, Note_on_c, 0, 72, 97
3, 344880, Note_off_c, 0, 72, 64
3, 344880, Note_on_c, 0, 77, 97
3, 345120, Note_off_c, 0, 77, 64
3, 345120, Note_on_c, 0, 74, 97
3, 345360, Note_off_c, 0, 74, 64
3, 345360, Note_on_c, 0, 71, 97
3, 345600, Note_off_c, 0, 71, 64
3, 345600, Note_on_c, 0, 76, 97
3, 346200, Note_off_c, 0, 76, 64
3, 346200, Note_on_c, 0, 69, 97
3, 346320, Note_off_c, 0, 69, 64
3, 346320, Note_on_c, 0, 71, 97
3, 346440, Note_off_c, 0, 71, 64
3, 346440, Note_on_c, 0, 72, 97
3, 346560, Note_off_c, 0, 72, 64
3, 346560, Note_on_c, 0, 74, 97
3, 346800, Note_off_c, 0, 74, 64
3, 346800, Note_on_c, 0, 65, 97
3, 347040, Note_off_c, 0, 65, 64
3, 347040, Note_on_c, 0, 64, 97
3, 347280, Note_off_c, 0, 64, 64
3, 347280, Note_on_c, 0, 74, 97
3, 347520, Note_off_c, 0, 74, 64
3, 347520, Note_on_c, 0, 72, 97
3, 347550, Note_off_c, 0, 72, 64
3, 347550, Note_on_c, 0, 74, 97
3, 347580, Note_off_c, 0, 74, 64
3, 347580, Note_on_c, 0, 72, 97
3, 347640, Note_off_c, 0, 72, 64
3, 347640, Note_on_c, 0, 71, 97
3, 347760, Note_off_c, 0, 71, 64
3, 347760, Note_on_c, 0, 72, 97
3, 347880, Note_off_c, 0, 72, 64
3, 347880, Note_on_c, 0, 74, 97
3, 348000, Note_off_c, 0, 74, 64
3, 348000, Note_on_c, 0, 71, 97
3, 348240, Note_off_c, 0, 71, 64
3, 348240, Note_on_c, 0, 73, 97
3, 348360, Note_off_c, 0, 73, 64
3, 348360, Note_on_c, 0, 75, 97
3, 348480, Note_off_c, 0, 75, 64
3, 348480, Note_on_c, 0, 76, 97
3, 348600, Note_off_c, 0, 76, 64
3, 348600, Note_on_c, 0, 78, 97
3, 348720, Note_off_c, 0, 78, 64
3, 348720, Note_on_c, 0, 79, 97
3, 348840, Note_off_c, 0, 79, 64
3, 348840, Note_on_c, 0, 76, 97
3, 348960, Note_off_c, 0, 76, 64
3, 348960, Note_on_c, 0, 78, 97
3, 349080, Note_off_c, 0, 78, 64
3, 349080, Note_on_c, 0, 76, 97
3, 349200, Note_off_c, 0, 76, 64
3, 349200, Note_on_c, 0, 78, 97
3, 349320, Note_off_c, 0, 78, 64
3, 349320, Note_on_c, 0, 79, 97
3, 349440, Note_off_c, 0, 79, 64
3, 349440, Note_on_c, 0, 78, 97
3, 349560, Note_off_c, 0, 78, 64
3, 349560, Note_on_c, 0, 81, 97
3, 349680, Note_off_c, 0, 81, 64
3, 349680, Note_on_c, 0, 79, 97
3, 349800, Note_off_c, 0, 79, 64
3, 349800, Note_on_c, 0, 78, 97
3, 349920, Note_off_c, 0, 78, 64
3, 349920, Note_on_c, 0, 76, 97
3, 350520, Note_off_c, 0, 76, 64
3, 350520, Note_on_c, 0, 72, 97
3, 350640, Note_off_c, 0, 72, 64
3, 350640, Note_on_c, 0, 71, 97
3, 350760, Note_off_c, 0, 71, 64
3, 350760, Note_on_c, 0, 69, 97
3, 350880, Note_off_c, 0, 69, 64
3, 350880, Note_on_c, 0, 78, 97
3, 351000, Note_off_c, 0, 78, 64
3, 351000, Note_on_c, 0, 76, 97
3, 351120, Note_off_c, 0, 76, 64
3, 351120, Note_on_c, 0, 75, 97
3, 351240, Note_off_c, 0, 75, 64
3, 351240, Note_on_c, 0, 73, 97
3, 351360, Note_off_c, 0, 73, 64
3, 351360, Note_on_c, 0, 71, 97
3, 351600, Note_off_c, 0, 71, 64
3, 351600, Note_on_c, 0, 76, 97
3, 351960, Note_off_c, 0, 76, 64
3, 351960, Note_on_c, 0, 75, 97
3, 352080, Note_off_c, 0, 75, 64
3, 352080, Note_on_c, 0, 73, 97
3, 352200, Note_off_c, 0, 73, 64
3, 352200, Note_on_c, 0, 75, 97
3, 352320, Note_off_c, 0, 75, 64
3, 352320, Note_on_c, 0, 76, 97
3, 353280, Note_off_c, 0, 76, 64
3, 353280, Note_on_c, 0, 74, 97
3, 354240, Note_off_c, 0, 74, 64
3, 354360, Note_on_c, 0, 76, 97
3, 354480, Note_off_c, 0, 76, 64
3, 354480, Note_on_c, 0, 74, 97
3, 354600, Note_off_c, 0, 74, 64
3, 354600, Note_on_c, 0, 72, 97
3, 354720, Note_off_c, 0, 72, 64
3, 354720, Note_on_c, 0, 71, 97
3, 354840, Note_off_c, 0, 71, 64
3, 354840, Note_on_c, 0, 72, 97
3, 354960, Note_off_c, 0, 72, 64
3, 354960, Note_on_c, 0, 71, 97
3, 355080, Note_off_c, 0, 71, 64
3, 355080, Note_on_c, 0, 72, 97
3, 355200, Note_off_c, 0, 72, 64
3, 355200, Note_on_c, 0, 74, 97
3, 355320, Note_off_c, 0, 74, 64
3, 355320, Note_on_c, 0, 76, 97
3, 355440, Note_off_c, 0, 76, 64
3, 355440, Note_on_c, 0, 74, 97
3, 355560, Note_off_c, 0, 74, 64
3, 355560, Note_on_c, 0, 76, 97
3, 355680, Note_off_c, 0, 76, 64
3, 355680, Note_on_c, 0, 74, 97
3, 355800, Note_off_c, 0, 74, 64
3, 355800, Note_on_c, 0, 73, 97
3, 355920, Note_off_c, 0, 73, 64
3, 355920, Note_on_c, 0, 71, 97
3, 356040, Note_off_c, 0, 71, 64
3, 356040, Note_on_c, 0, 69, 97
3, 356160, Note_off_c, 0, 69, 64
3, 356160, Note_on_c, 0, 74, 97
3, 357120, Note_off_c, 0, 74, 64
3, 357120, Note_on_c, 0, 72, 97
3, 358080, Note_off_c, 0, 72, 64
3, 358200, Note_on_c, 0, 74, 97
3, 358320, Note_off_c, 0, 74, 64
3, 358320, Note_on_c, 0, 72, 97
3, 358440, Note_off_c, 0, 72, 64
3, 358440, Note_on_c, 0, 71, 97
3, 358560, Note_off_c, 0, 71, 64
3, 358560, Note_on_c, 0, 69, 97
3, 358680, Note_off_c, 0, 69, 64
3, 358680, Note_on_c, 0, 71, 97
3, 358800, Note_off_c, 0, 71, 64
3, 358800, Note_on_c, 0, 69, 97
3, 358920, Note_off_c, 0, 69, 64
3, 358920, Note_on_c, 0, 71, 97
3, 359040, Note_off_c, 0, 71, 64
3, 359040, Note_on_c, 0, 72, 97
3, 359160, Note_off_c, 0, 72, 64
3, 359160, Note_on_c, 0, 74, 97
3, 359280, Note_off_c, 0, 74, 64
3, 359280, Note_on_c, 0, 72, 97
3, 359400, Note_off_c, 0, 72, 64
3, 359400, Note_on_c, 0, 74, 97
3, 359520, Note_off_c, 0, 74, 64
3, 359520, Note_on_c, 0, 71, 97
3, 360000, Note_off_c, 0, 71, 64
3, 360240, Note_on_c, 0, 67, 97
3, 360480, Note_off_c, 0, 67, 64
3, 360480, Note_on_c, 0, 64, 97
3, 360720, Note_off_c, 0, 64, 64
3, 360720, Note_on_c, 0, 69, 97
3, 360960, Note_off_c, 0, 69, 64
3, 360960, Note_on_c, 0, 66, 97
3, 361200, Note_off_c, 0, 66, 64
3, 361200, Note_on_c, 0, 62, 97
3, 361440, Note_off_c, 0, 62, 64
3, 361440, Note_on_c, 0, 67, 97
3, 362040, Note_off_c, 0, 67, 64
3, 362040, Note_on_c, 0, 72, 97
3, 362160, Note_off_c, 0, 72, 64
3, 362160, Note_on_c, 0, 74, 97
3, 362280, Note_off_c, 0, 74, 64
3, 362280, Note_on_c, 0, 76, 97
3, 362400, Note_off_c, 0, 76, 64
3, 362400, Note_on_c, 0, 66, 97
3, 362520, Note_off_c, 0, 66, 64
3, 362520, Note_on_c, 0, 69, 97
3, 362640, Note_off_c, 0, 69, 64
3, 362640, Note_on_c, 0, 71, 97
3, 362760, Note_off_c, 0, 71, 64
3, 362760, Note_on_c, 0, 72, 97
3, 362880, Note_off_c, 0, 72, 64
3, 362880, Note_on_c, 0, 62, 97
3, 363000, Note_off_c, 0, 62, 64
3, 363000, Note_on_c, 0, 66, 97
3, 363120, Note_off_c, 0, 66, 64
3, 363120, Note_on_c, 0, 67, 97
3, 363240, Note_off_c, 0, 67, 64
3, 363240, Note_on_c, 0, 69, 97
3, 363360, Note_off_c, 0, 69, 64
3, 363360, Note_on_c, 0, 66, 97
3, 363840, Note_off_c, 0, 66, 64
3, 363960, Note_on_c, 0, 74, 97
3, 364080, Note_off_c, 0, 74, 64
3, 364080, Note_on_c, 0, 69, 97
3, 364200, Note_off_c, 0, 69, 64
3, 364200, Note_on_c, 0, 72, 97
3, 364320, Note_off_c, 0, 72, 64
3, 364320, Note_on_c, 0, 71, 97
3, 364440, Note_off_c, 0, 71, 64
3, 364440, Note_on_c, 0, 74, 97
3, 364560, Note_off_c, 0, 74, 64
3, 364560, Note_on_c, 0, 66, 97
3, 364680, Note_off_c, 0, 66, 64
3, 364680, Note_on_c, 0, 69, 97
3, 364800, Note_off_c, 0, 69, 64
3, 364800, Note_on_c, 0, 67, 97
3, 364920, Note_off_c, 0, 67, 64
3, 364920, Note_on_c, 0, 71, 97
3, 365040, Note_off_c, 0, 71, 64
3, 365040, Note_on_c, 0, 69, 97
3, 365160, Note_off_c, 0, 69, 64
3, 365160, Note_on_c, 0, 67, 97
3, 365280, Note_off_c, 0, 67, 64
3, 365280, Note_on_c, 0, 66, 97
3, 365400, Note_off_c, 0, 66, 64
3, 365400, Note_on_c, 0, 62, 97
3, 365520, Note_off_c, 0, 62, 64
3, 365520, Note_on_c, 0, 66, 97
3, 365640, Note_off_c, 0, 66, 64
3, 365640, Note_on_c, 0, 69, 97
3, 365760, Note_off_c, 0, 69, 64
3, 365760, Note_on_c, 0, 74, 97
3, 367680, Note_off_c, 0, 74, 64
3, 367800, Note_on_c, 0, 71, 97
3, 367920, Note_off_c, 0, 71, 64
3, 367920, Note_on_c, 0, 66, 97
3, 368040, Note_off_c, 0, 66, 64
3, 368040, Note_on_c, 0, 69, 97
3, 368160, Note_off_c, 0, 69, 64
3, 368160, Note_on_c, 0, 67, 97
3, 368400, Note_off_c, 0, 67, 64
3, 368400, Note_on_c, 0, 76, 97
3, 368640, Note_off_c, 0, 76, 64
3, 368760, Note_on_c, 0, 69, 97
3, 368880, Note_off_c, 0, 69, 64
3, 368880, Note_on_c, 0, 64, 97
3, 369000, Note_off_c, 0, 64, 64
3, 369000, Note_on_c, 0, 67, 97
3, 369120, Note_off_c, 0, 67, 64
3, 369120, Note_on_c, 0, 66, 97
3, 369360, Note_off_c, 0, 66, 64
3, 369360, Note_on_c, 0, 74, 97
3, 369600, Note_off_c, 0, 74, 64
3, 369720, Note_on_c, 0, 67, 97
3, 369840, Note_off_c, 0, 67, 64
3, 369840, Note_on_c, 0, 62, 97
3, 369960, Note_off_c, 0, 62, 64
3, 369960, Note_on_c, 0, 65, 97
3, 370080, Note_off_c, 0, 65, 64
3, 370080, Note_on_c, 0, 64, 97
3, 370320, Note_off_c, 0, 64, 64
3, 370320, Note_on_c, 0, 76, 97
3, 370440, Note_off_c, 0, 76, 64
3, 370440, Note_on_c, 0, 74, 97
3, 370560, Note_off_c, 0, 74, 64
3, 370560, Note_on_c, 0, 72, 97
3, 370680, Note_off_c, 0, 72, 64
3, 370680, Note_on_c, 0, 71, 97
3, 370800, Note_off_c, 0, 71, 64
3, 370800, Note_on_c, 0, 69, 97
3, 370920, Note_off_c, 0, 69, 64
3, 370920, Note_on_c, 0, 67, 97
3, 371040, Note_off_c, 0, 67, 64
3, 371040, Note_on_c, 0, 66, 97
3, 371280, Note_off_c, 0, 66, 64
3, 371280, Note_on_c, 0, 62, 97
3, 371520, Note_off_c, 0, 62, 64
3, 371640, Note_on_c, 0, 62, 97
3, 371760, Note_off_c, 0, 62, 64
3, 371760, Note_on_c, 0, 60, 97
3, 371880, Note_off_c, 0, 60, 64
3, 371880, Note_on_c, 0, 59, 97
3, 372000, Note_off_c, 0, 59, 64
3, 372000, Note_on_c, 0, 64, 97
3, 372120, Note_off_c, 0, 64, 64
3, 372120, Note_on_c, 0, 62, 97
3, 372240, Note_off_c, 0, 62, 64
3, 372240, Note_on_c, 0, 60, 97
3, 372360, Note_off_c, 0, 60, 64
3, 372360, Note_on_c, 0, 59, 97
3, 372480, Note_off_c, 0, 59, 64
3, 372480, Note_on_c, 0, 57, 97
3, 372600, Note_off_c, 0, 57, 64
3, 372600, Note_on_c, 0, 59, 97
3, 372720, Note_off_c, 0, 59, 64
3, 372720, Note_on_c, 0, 60, 97
3, 372840, Note_off_c, 0, 60, 64
3, 372840, Note_on_c, 0, 57, 97
3, 372960, Note_off_c, 0, 57, 64
3, 372960, Note_on_c, 0, 59, 97
3, 373440, Note_off_c, 0, 59, 64
3, 376080, Note_on_c, 0, 69, 97
3, 376320, Note_off_c, 0, 69, 64
3, 376320, Note_on_c, 0, 65, 97
3, 376560, Note_off_c, 0, 65, 64
3, 376560, Note_on_c, 0, 70, 97
3, 376800, Note_off_c, 0, 70, 64
3, 376800, Note_on_c, 0, 68, 97
3, 377040, Note_off_c, 0, 68, 64
3, 377040, Note_on_c, 0, 64, 97
3, 377280, Note_off_c, 0, 64, 64
3, 377280, Note_on_c, 0, 69, 97
3, 377880, Note_off_c, 0, 69, 64
3, 377880, Note_on_c, 0, 74, 97
3, 378000, Note_off_c, 0, 74, 64
3, 378000, Note_on_c, 0, 76, 97
3, 378120, Note_off_c, 0, 76, 64
3, 378120, Note_on_c, 0, 77, 97
3, 378240, Note_off_c, 0, 77, 64
3, 378240, Note_on_c, 0, 68, 97
3, 378360, Note_off_c, 0, 68, 64
3, 378360, Note_on_c, 0, 77, 97
3, 378480, Note_off_c, 0, 77, 64
3, 378480, Note_on_c, 0, 76, 97
3, 378600, Note_off_c, 0, 76, 64
3, 378600, Note_on_c, 0, 74, 97
3, 378720, Note_off_c, 0, 74, 64
3, 378720, Note_on_c, 0, 72, 97
3, 378840, Note_off_c, 0, 72, 64
3, 378840, Note_on_c, 0, 74, 97
3, 378960, Note_off_c, 0, 74, 64
3, 378960, Note_on_c, 0, 72, 97
3, 379080, Note_off_c, 0, 72, 64
3, 379080, Note_on_c, 0, 71, 97
3, 379200, Note_off_c, 0, 71, 64
3, 379200, Note_on_c, 0, 69, 97
3, 379320, Note_off_c, 0, 69, 64
3, 379320, Note_on_c, 0, 71, 97
3, 379440, Note_off_c, 0, 71, 64
3, 379440, Note_on_c, 0, 72, 97
3, 379560, Note_off_c, 0, 72, 64
3, 379560, Note_on_c, 0, 69, 97
3, 379680, Note_off_c, 0, 69, 64
3, 379680, Note_on_c, 0, 71, 97
3, 379800, Note_off_c, 0, 71, 64
3, 379800, Note_on_c, 0, 72, 97
3, 379920, Note_off_c, 0, 72, 64
3, 379920, Note_on_c, 0, 71, 97
3, 380040, Note_off_c, 0, 71, 64
3, 380040, Note_on_c, 0, 69, 97
3, 380160, Note_off_c, 0, 69, 64
3, 380160, Note_on_c, 0, 67, 97
3, 380280, Note_off_c, 0, 67, 64
3, 380280, Note_on_c, 0, 69, 97
3, 380400, Note_off_c, 0, 69, 64
3, 380400, Note_on_c, 0, 71, 97
3, 380520, Note_off_c, 0, 71, 64
3, 380520, Note_on_c, 0, 67, 97
3, 380640, Note_off_c, 0, 67, 64
3, 380640, Note_on_c, 0, 69, 97
3, 380880, Note_off_c, 0, 69, 64
3, 380880, Note_on_c, 0, 66, 97
3, 381120, Note_off_c, 0, 66, 64
3, 381120, Note_on_c, 0, 78, 97
3, 381840, Note_off_c, 0, 78, 64
3, 381840, Note_on_c, 0, 76, 97
3, 381960, Note_off_c, 0, 76, 64
3, 381960, Note_on_c, 0, 75, 97
3, 382080, Note_off_c, 0, 75, 64
3, 382080, Note_on_c, 0, 76, 97
3, 382800, Note_off_c, 0, 76, 64
3, 382800, Note_on_c, 0, 74, 97
3, 382920, Note_off_c, 0, 74, 64
3, 382920, Note_on_c, 0, 73, 97
3, 383040, Note_off_c, 0, 73, 64
3, 383040, Note_on_c, 0, 74, 97
3, 383160, Note_off_c, 0, 74, 64
3, 383160, Note_on_c, 0, 72, 97
3, 383280, Note_off_c, 0, 72, 64
3, 383280, Note_on_c, 0, 71, 97
3, 383400, Note_off_c, 0, 71, 64
3, 383400, Note_on_c, 0, 69, 97
3, 383520, Note_off_c, 0, 69, 64
3, 383520, Note_on_c, 0, 67, 97
3, 383640, Note_off_c, 0, 67, 64
3, 383640, Note_on_c, 0, 66, 97
3, 383760, Note_off_c, 0, 66, 64
3, 383760, Note_on_c, 0, 64, 97
3, 383880, Note_off_c, 0, 64, 64
3, 383880, Note_on_c, 0, 62, 97
3, 384000, Note_off_c, 0, 62, 64
3, 384000, Note_on_c, 0, 60, 97
3, 384120, Note_off_c, 0, 60, 64
3, 384120, Note_on_c, 0, 59, 97
3, 384240, Note_off_c, 0, 59, 64
3, 384240, Note_on_c, 0, 57, 97
3, 384360, Note_off_c, 0, 57, 64
3, 384360, Note_on_c, 0, 55, 97
3, 384480, Note_off_c, 0, 55, 64
3, 384480, Note_on_c, 0, 54, 97
3, 384720, Note_off_c, 0, 54, 64
3, 384720, Note_on_c, 0, 71, 97
3, 384960, Note_off_c, 0, 71, 64
3, 384960, Note_on_c, 0, 67, 97
3, 385200, Note_off_c, 0, 67, 64
3, 385200, Note_on_c, 0, 72, 97
3, 385440, Note_off_c, 0, 72, 64
3, 385440, Note_on_c, 0, 69, 97
3, 385680, Note_off_c, 0, 69, 64
3, 385680, Note_on_c, 0, 66, 97
3, 385920, Note_off_c, 0, 66, 64
3, 385920, Note_on_c, 0, 71, 97
3, 386160, Note_off_c, 0, 71, 64
3, 386160, Note_on_c, 0, 74, 97
3, 386400, Note_off_c, 0, 74, 64
3, 386400, Note_on_c, 0, 68, 97
3, 386640, Note_off_c, 0, 68, 64
3, 386640, Note_on_c, 0, 64, 97
3, 386880, Note_off_c, 0, 64, 64
3, 386880, Note_on_c, 0, 69, 97
3, 387600, Note_off_c, 0, 69, 64
3, 387600, Note_on_c, 0, 67, 97
3, 387720, Note_off_c, 0, 67, 64
3, 387720, Note_on_c, 0, 65, 97
3, 387840, Note_off_c, 0, 65, 64
3, 387840, Note_on_c, 0, 67, 97
3, 388440, Note_off_c, 0, 67, 64
3, 388440, Note_on_c, 0, 64, 97
3, 388560, Note_off_c, 0, 64, 64
3, 388560, Note_on_c, 0, 61, 97
3, 388680, Note_off_c, 0, 61, 64
3, 388680, Note_on_c, 0, 64, 97
3, 388800, Note_off_c, 0, 64, 64
3, 388800, Note_on_c, 0, 65, 97
3, 388920, Note_off_c, 0, 65, 64
3, 388920, Note_on_c, 0, 69, 97
3, 389040, Note_off_c, 0, 69, 64
3, 389040, Note_on_c, 0, 62, 97
3, 389160, Note_off_c, 0, 62, 64
3, 389160, Note_on_c, 0, 65, 97
3, 389280, Note_off_c, 0, 65, 64
3, 389280, Note_on_c, 0, 70, 97
3, 389400, Note_off_c, 0, 70, 64
3, 389400, Note_on_c, 0, 67, 97
3, 389520, Note_off_c, 0, 67, 64
3, 389520, Note_on_c, 0, 69, 97
3, 389640, Note_off_c, 0, 69, 64
3, 389640, Note_on_c, 0, 70, 97
3, 389760, Note_off_c, 0, 70, 64
3, 389760, Note_on_c, 0, 64, 97
3, 389880, Note_off_c, 0, 64, 64
3, 389880, Note_on_c, 0, 67, 97
3, 390000, Note_off_c, 0, 67, 64
3, 390000, Note_on_c, 0, 65, 97
3, 390120, Note_off_c, 0, 65, 64
3, 390120, Note_on_c, 0, 64, 97
3, 390240, Note_off_c, 0, 64, 64
3, 390240, Note_on_c, 0, 62, 97
3, 390720, Note_off_c, 0, 62, 64
3, 392400, Note_on_c, 0, 69, 97
3, 392640, Note_off_c, 0, 69, 64
3, 392640, Note_on_c, 0, 65, 97
3, 392880, Note_off_c, 0, 65, 64
3, 392880, Note_on_c, 0, 70, 97
3, 393120, Note_off_c, 0, 70, 64
3, 393120, Note_on_c, 0, 67, 97
3, 393360, Note_off_c, 0, 67, 64
3, 393360, Note_on_c, 0, 64, 97
3, 393600, Note_off_c, 0, 64, 64
3, 393600, Note_on_c, 0, 69, 97
3, 394200, Note_off_c, 0, 69, 64
3, 394200, Note_on_c, 0, 62, 97
3, 394320, Note_off_c, 0, 62, 64
3, 394320, Note_on_c, 0, 64, 97
3, 394440, Note_off_c, 0, 64, 64
3, 394440, Note_on_c, 0, 65, 97
3, 394560, Note_off_c, 0, 65, 64
3, 394560, Note_on_c, 0, 67, 97
3, 394800, Note_off_c, 0, 67, 64
3, 394800, Note_on_c, 0, 58, 97
3, 395040, Note_off_c, 0, 58, 64
3, 395040, Note_on_c, 0, 57, 97
3, 395280, Note_off_c, 0, 57, 64
3, 395280, Note_on_c, 0, 67, 97
3, 395520, Note_off_c, 0, 67, 64
3, 395520, Note_on_c, 0, 65, 97
3, 395550, Note_off_c, 0, 65, 64
3, 395550, Note_on_c, 0, 67, 97
3, 395580, Note_off_c, 0, 67, 64
3, 395580, Note_on_c, 0, 65, 97
3, 395640, Note_off_c, 0, 65, 64
3, 395640, Note_on_c, 0, 64, 97
3, 395760, Note_off_c, 0, 64, 64
3, 395760, Note_on_c, 0, 65, 97
3, 395880, Note_off_c, 0, 65, 64
3, 395880, Note_on_c, 0, 67, 97
3, 396000, Note_off_c, 0, 67, 64
3, 396000, Note_on_c, 0, 64, 97
3, 396480, Note_off_c, 0, 64, 64
3, 396600, Note_on_c, 0, 69, 97
3, 396720, Note_off_c, 0, 69, 64
3, 396720, Note_on_c, 0, 65, 97
3, 396840, Note_off_c, 0, 65, 64
3, 396840, Note_on_c, 0, 62, 97
3, 396960, Note_off_c, 0, 62, 64
3, 396960, Note_on_c, 0, 64, 97
3, 397080, Note_off_c, 0, 64, 64
3, 397080, Note_on_c, 0, 62, 97
3, 397200, Note_off_c, 0, 62, 64
3, 397200, Note_on_c, 0, 64, 97
3, 397320, Note_off_c, 0, 64, 64
3, 397320, Note_on_c, 0, 65, 97
3, 397440, Note_off_c, 0, 65, 64
3, 397440, Note_on_c, 0, 64, 97
3, 397560, Note_off_c, 0, 64, 64
3, 397560, Note_on_c, 0, 69, 97
3, 397680, Note_off_c, 0, 69, 64
3, 397680, Note_on_c, 0, 64, 97
3, 397800, Note_off_c, 0, 64, 64
3, 397800, Note_on_c, 0, 60, 97
3, 397920, Note_off_c, 0, 60, 64
3, 397920, Note_on_c, 0, 62, 97
3, 398040, Note_off_c, 0, 62, 64
3, 398040, Note_on_c, 0, 60, 97
3, 398160, Note_off_c, 0, 60, 64
3, 398160, Note_on_c, 0, 62, 97
3, 398280, Note_off_c, 0, 62, 64
3, 398280, Note_on_c, 0, 64, 97
3, 398400, Note_off_c, 0, 64, 64
3, 398400, Note_on_c, 0, 62, 97
3, 398520, Note_off_c, 0, 62, 64
3, 398520, Note_on_c, 0, 65, 97
3, 398640, Note_off_c, 0, 65, 64
3, 398640, Note_on_c, 0, 62, 97
3, 398760, Note_off_c, 0, 62, 64
3, 398760, Note_on_c, 0, 58, 97
3, 398880, Note_off_c, 0, 58, 64
3, 398880, Note_on_c, 0, 60, 97
3, 399000, Note_off_c, 0, 60, 64
3, 399000, Note_on_c, 0, 58, 97
3, 399120, Note_off_c, 0, 58, 64
3, 399120, Note_on_c, 0, 60, 97
3, 399240, Note_off_c, 0, 60, 64
3, 399240, Note_on_c, 0, 62, 97
3, 399360, Note_off_c, 0, 62, 64
3, 399360, Note_on_c, 0, 60, 97
3, 399480, Note_off_c, 0, 60, 64
3, 399480, Note_on_c, 0, 65, 97
3, 399600, Note_off_c, 0, 65, 64
3, 399600, Note_on_c, 0, 60, 97
3, 399720, Note_off_c, 0, 60, 64
3, 399720, Note_on_c, 0, 57, 97
3, 399840, Note_off_c, 0, 57, 64
3, 399840, Note_on_c, 0, 58, 97
3, 399960, Note_off_c, 0, 58, 64
3, 399960, Note_on_c, 0, 57, 97
3, 400080, Note_off_c, 0, 57, 64
3, 400080, Note_on_c, 0, 58, 97
3, 400200, Note_off_c, 0, 58, 64
3, 400200, Note_on_c, 0, 60, 97
3, 400320, Note_off_c, 0, 60, 64
3, 400320, Note_on_c, 0, 58, 97
3, 400440, Note_off_c, 0, 58, 64
3, 400440, Note_on_c, 0, 62, 97
3, 400560, Note_off_c, 0, 62, 64
3, 400560, Note_on_c, 0, 60, 97
3, 400680, Note_off_c, 0, 60, 64
3, 400680, Note_on_c, 0, 58, 97
3, 400800, Note_off_c, 0, 58, 64
3, 400800, Note_on_c, 0, 57, 97
3, 401400, Note_off_c, 0, 57, 64
3, 401400, Note_on_c, 0, 65, 97
3, 401520, Note_off_c, 0, 65, 64
3, 401520, Note_on_c, 0, 62, 97
3, 401640, Note_off_c, 0, 62, 64
3, 401640, Note_on_c, 0, 58, 97
3, 401760, Note_off_c, 0, 58, 64
3, 401760, Note_on_c, 0, 67, 97
3, 402000, Note_off_c, 0, 67, 64
3, 402000, Note_on_c, 0, 58, 97
3, 402480, Note_off_c, 0, 58, 64
3, 402480, Note_on_c, 0, 57, 97
3, 402600, Note_off_c, 0, 57, 64
3, 402600, Note_on_c, 0, 55, 97
3, 402720, Note_off_c, 0, 55, 64
3, 402720, Note_on_c, 0, 53, 97
3, 402960, Note_off_c, 0, 53, 64
3, 402960, Note_on_c, 0, 62, 97
3, 403200, Note_off_c, 0, 62, 64
3, 403200, Note_on_c, 0, 52, 97
3, 403440, Note_off_c, 0, 52, 64
3, 403440, Note_on_c, 0, 61, 97
3, 403680, Note_off_c, 0, 61, 64
3, 403680, Note_on_c, 0, 62, 97
3, 404160, Note_off_c, 0, 62, 64
3, 404280, Note_on_c, 0, 57, 97
3, 404400, Note_off_c, 0, 57, 64
3, 404400, Note_on_c, 0, 53, 97
3, 404520, Note_off_c, 0, 53, 64
3, 404520, Note_on_c, 0, 50, 97
3, 404640, Note_off_c, 0, 50, 64
3, 404640, Note_on_c, 0, 58, 97
3, 404760, Note_off_c, 0, 58, 64
3, 404760, Note_on_c, 0, 55, 97
3, 404880, Note_off_c, 0, 55, 64
3, 404880, Note_on_c, 0, 58, 97
3, 405000, Note_off_c, 0, 58, 64
3, 405000, Note_on_c, 0, 62, 97
3, 405120, Note_off_c, 0, 62, 64
3, 405120, Note_on_c, 0, 67, 97
3, 405720, Note_off_c, 0, 67, 64
3, 405720, Note_on_c, 0, 64, 97
3, 405840, Note_off_c, 0, 64, 64
3, 405840, Note_on_c, 0, 67, 97
3, 405960, Note_off_c, 0, 67, 64
3, 405960, Note_on_c, 0, 72, 97
3, 406080, Note_off_c, 0, 72, 64
3, 406080, Note_on_c, 0, 60, 97
3, 406200, Note_off_c, 0, 60, 64
3, 406200, Note_on_c, 0, 67, 97
3, 406320, Note_off_c, 0, 67, 64
3, 406320, Note_on_c, 0, 64, 97
3, 406440, Note_off_c, 0, 64, 64
3, 406440, Note_on_c, 0, 60, 97
3, 406560, Note_off_c, 0, 60, 64
3, 406560, Note_on_c, 0, 69, 97
3, 406680, Note_off_c, 0, 69, 64
3, 406680, Note_on_c, 0, 53, 97
3, 406800, Note_off_c, 0, 53, 64
3, 406800, Note_on_c, 0, 57, 97
3, 406920, Note_off_c, 0, 57, 64
3, 406920, Note_on_c, 0, 60, 97
3, 407040, Note_off_c, 0, 60, 64
3, 407040, Note_on_c, 0, 65, 97
3, 407640, Note_off_c, 0, 65, 64
3, 407640, Note_on_c, 0, 62, 97
3, 407760, Note_off_c, 0, 62, 64
3, 407760, Note_on_c, 0, 65, 97
3, 407880, Note_off_c, 0, 65, 64
3, 407880, Note_on_c, 0, 70, 97
3, 408000, Note_off_c, 0, 70, 64
3, 408000, Note_on_c, 0, 58, 97
3, 408120, Note_off_c, 0, 58, 64
3, 408120, Note_on_c, 0, 65, 97
3, 408240, Note_off_c, 0, 65, 64
3, 408240, Note_on_c, 0, 62, 97
3, 408360, Note_off_c, 0, 62, 64
3, 408360, Note_on_c, 0, 58, 97
3, 408480, Note_off_c, 0, 58, 64
3, 408480, Note_on_c, 0, 67, 97
3, 409080, Note_off_c, 0, 67, 64
3, 409080, Note_on_c, 0, 60, 97
3, 409200, Note_off_c, 0, 60, 64
3, 409200, Note_on_c, 0, 65, 97
3, 409560, Note_off_c, 0, 65, 64
3, 409560, Note_on_c, 0, 58, 97
3, 409680, Note_off_c, 0, 58, 64
3, 409680, Note_on_c, 0, 57, 97
3, 409800, Note_off_c, 0, 57, 64
3, 409800, Note_on_c, 0, 55, 97
3, 409920, Note_off_c, 0, 55, 64
3, 409920, Note_on_c, 0, 53, 97
3, 410040, Note_off_c, 0, 53, 64
3, 410040, Note_on_c, 0, 62, 97
3, 410160, Note_off_c, 0, 62, 64
3, 410160, Note_on_c, 0, 64, 97
3, 410280, Note_off_c, 0, 64, 64
3, 410280, Note_on_c, 0, 65, 97
3, 410400, Note_off_c, 0, 65, 64
3, 410400, Note_on_c, 0, 67, 97
3, 410520, Note_off_c, 0, 67, 64
3, 410520, Note_on_c, 0, 65, 97
3, 410640, Note_off_c, 0, 65, 64
3, 410640, Note_on_c, 0, 67, 97
3, 410760, Note_off_c, 0, 67, 64
3, 410760, Note_on_c, 0, 69, 97
3, 410880, Note_off_c, 0, 69, 64
3, 410880, Note_on_c, 0, 67, 97
3, 411000, Note_off_c, 0, 67, 64
3, 411000, Note_on_c, 0, 70, 97
3, 411120, Note_off_c, 0, 70, 64
3, 411120, Note_on_c, 0, 69, 97
3, 411240, Note_off_c, 0, 69, 64
3, 411240, Note_on_c, 0, 67, 97
3, 411360, Note_off_c, 0, 67, 64
3, 411360, Note_on_c, 0, 65, 97
3, 411960, Note_off_c, 0, 65, 64
3, 411960, Note_on_c, 0, 62, 97
3, 412080, Note_off_c, 0, 62, 64
3, 412080, Note_on_c, 0, 60, 97
3, 412200, Note_off_c, 0, 60, 64
3, 412200, Note_on_c, 0, 58, 97
3, 412320, Note_off_c, 0, 58, 64
3, 412320, Note_on_c, 0, 67, 97
3, 412440, Note_off_c, 0, 67, 64
3, 412440, Note_on_c, 0, 65, 97
3, 412560, Note_off_c, 0, 65, 64
3, 412560, Note_on_c, 0, 64, 97
3, 412680, Note_off_c, 0, 64, 64
3, 412680, Note_on_c, 0, 62, 97
3, 412800, Note_off_c, 0, 62, 64
3, 412800, Note_on_c, 0, 60, 97
3, 413040, Note_off_c, 0, 60, 64
3, 413040, Note_on_c, 0, 65, 97
3, 413400, Note_off_c, 0, 65, 64
3, 413400, Note_on_c, 0, 64, 97
3, 413520, Note_off_c, 0, 64, 64
3, 413520, Note_on_c, 0, 65, 97
3, 413640, Note_off_c, 0, 65, 64
3, 413640, Note_on_c, 0, 62, 97
3, 413760, Note_off_c, 0, 62, 64
3, 413760, Note_on_c, 0, 64, 97
3, 414000, Note_off_c, 0, 64, 64
3, 414000, Note_on_c, 0, 69, 97
3, 414240, Note_off_c, 0, 69, 64
3, 414240, Note_on_c, 0, 65, 97
3, 414480, Note_off_c, 0, 65, 64
3, 414480, Note_on_c, 0, 62, 97
3, 414720, Note_off_c, 0, 62, 64
3, 414720, Note_on_c, 0, 67, 97
3, 415320, Note_off_c, 0, 67, 64
3, 415320, Note_on_c, 0, 60, 97
3, 415440, Note_off_c, 0, 60, 64
3, 415440, Note_on_c, 0, 62, 97
3, 415560, Note_off_c, 0, 62, 64
3, 415560, Note_on_c, 0, 64, 97
3, 415680, Note_off_c, 0, 64, 64
3, 415680, Note_on_c, 0, 65, 97
3, 416640, Note_off_c, 0, 65, 64
3, 416640, Note_on_c, 0, 64, 97
3, 416670, Note_off_c, 0, 64, 64
3, 416670, Note_on_c, 0, 65, 97
3, 416700, Note_off_c, 0, 65, 64
3, 416700, Note_on_c, 0, 64, 97
3, 417000, Note_off_c, 0, 64, 64
3, 417000, Note_on_c, 0, 62, 97
3, 417060, Note_off_c, 0, 62, 64
3, 417060, Note_on_c, 0, 64, 97
3, 417120, Note_off_c, 0, 64, 64
3, 417120, Note_on_c, 0, 65, 97
3, 417240, Note_off_c, 0, 65, 64
3, 417240, Note_on_c, 0, 67, 97
3, 417360, Note_off_c, 0, 67, 64
3, 417360, Note_on_c, 0, 65, 97
3, 417480, Note_off_c, 0, 65, 64
3, 417480, Note_on_c, 0, 67, 97
3, 417600, Note_off_c, 0, 67, 64
3, 417600, Note_on_c, 0, 69, 97
3, 417720, Note_off_c, 0, 69, 64
3, 417720, Note_on_c, 0, 70, 97
3, 417840, Note_off_c, 0, 70, 64
3, 417840, Note_on_c, 0, 69, 97
3, 417960, Note_off_c, 0, 69, 64
3, 417960, Note_on_c, 0, 70, 97
3, 418080, Note_off_c, 0, 70, 64
3, 418080, Note_on_c, 0, 67, 97
3, 418200, Note_off_c, 0, 67, 64
3, 418200, Note_on_c, 0, 69, 97
3, 418320, Note_off_c, 0, 69, 64
3, 418320, Note_on_c, 0, 67, 97
3, 418440, Note_off_c, 0, 67, 64
3, 418440, Note_on_c, 0, 69, 97
3, 418560, Note_off_c, 0, 69, 64
3, 418560, Note_on_c, 0, 70, 97
3, 418680, Note_off_c, 0, 70, 64
3, 418680, Note_on_c, 0, 72, 97
3, 418800, Note_off_c, 0, 72, 64
3, 418800, Note_on_c, 0, 70, 97
3, 418920, Note_off_c, 0, 70, 64
3, 418920, Note_on_c, 0, 72, 97
3, 419040, Note_off_c, 0, 72, 64
3, 419040, Note_on_c, 0, 69, 97
3, 419280, Note_off_c, 0, 69, 64
3, 419280, Note_on_c, 0, 65, 97
3, 419520, Note_off_c, 0, 65, 64
3, 419520, Note_on_c, 0, 53, 97
3, 419760, Note_off_c, 0, 53, 64
3, 419760, Note_on_c, 0, 65, 97
3, 420000, Note_off_c, 0, 65, 64
3, 420000, Note_on_c, 0, 58, 97
3, 420240, Note_off_c, 0, 58, 64
3, 420240, Note_on_c, 0, 65, 97
3, 420480, Note_off_c, 0, 65, 64
3, 420480, Note_on_c, 0, 55, 97
3, 420720, Note_off_c, 0, 55, 64
3, 420720, Note_on_c, 0, 64, 97
3, 420960, Note_off_c, 0, 64, 64
3, 420960, Note_on_c, 0, 65, 97
3, 421200, Note_off_c, 0, 65, 64
3, 421440, Note_on_c, 0, 72, 97
3, 421680, Note_off_c, 0, 72, 64
3, 421920, Note_on_c, 0, 74, 97
3, 422160, Note_off_c, 0, 74, 64
3, 422400, Note_on_c, 0, 76, 97
3, 422640, Note_off_c, 0, 76, 64
3, 423120, Note_on_c, 0, 77, 97
3, 423240, Note_off_c, 0, 77, 64
3, 423240, Note_on_c, 0, 76, 97
3, 423360, Note_off_c, 0, 76, 64
3, 423360, Note_on_c, 0, 74, 97
3, 423480, Note_off_c, 0, 74, 64
3, 423480, Note_on_c, 0, 72, 97
3, 423600, Note_off_c, 0, 72, 64
3, 423600, Note_on_c, 0, 70, 97
3, 423720, Note_off_c, 0, 70, 64
3, 423720, Note_on_c, 0, 69, 97
3, 423840, Note_off_c, 0, 69, 64
3, 423840, Note_on_c, 0, 67, 97
3, 423960, Note_off_c, 0, 67, 64
3, 423960, Note_on_c, 0, 69, 97
3, 424080, Note_off_c, 0, 69, 64
3, 424080, Note_on_c, 0, 67, 97
3, 424200, Note_off_c, 0, 67, 64
3, 424200, Note_on_c, 0, 69, 97
3, 424320, Note_off_c, 0, 69, 64
3, 424320, Note_on_c, 0, 70, 97
3, 424440, Note_off_c, 0, 70, 64
3, 424440, Note_on_c, 0, 72, 97
3, 424560, Note_off_c, 0, 72, 64
3, 424560, Note_on_c, 0, 70, 97
3, 424680, Note_off_c, 0, 70, 64
3, 424680, Note_on_c, 0, 72, 97
3, 424800, Note_off_c, 0, 72, 64
3, 424800, Note_on_c, 0, 65, 97
3, 424920, Note_off_c, 0, 65, 64
3, 424920, Note_on_c, 0, 67, 97
3, 425040, Note_off_c, 0, 67, 64
3, 425040, Note_on_c, 0, 65, 97
3, 425160, Note_off_c, 0, 65, 64
3, 425160, Note_on_c, 0, 67, 97
3, 425280, Note_off_c, 0, 67, 64
3, 425280, Note_on_c, 0, 69, 97
3, 425400, Note_off_c, 0, 69, 64
3, 425400, Note_on_c, 0, 70, 97
3, 425520, Note_off_c, 0, 70, 64
3, 425520, Note_on_c, 0, 69, 97
3, 425640, Note_off_c, 0, 69, 64
3, 425640, Note_on_c, 0, 70, 97
3, 425760, Note_off_c, 0, 70, 64
3, 425760, Note_on_c, 0, 64, 97
3, 425880, Note_off_c, 0, 64, 64
3, 425880, Note_on_c, 0, 65, 97
3, 426000, Note_off_c, 0, 65, 64
3, 426000, Note_on_c, 0, 64, 97
3, 426120, Note_off_c, 0, 64, 64
3, 426120, Note_on_c, 0, 65, 97
3, 426240, Note_off_c, 0, 65, 64
3, 426240, Note_on_c, 0, 67, 97
3, 426360, Note_off_c, 0, 67, 64
3, 426360, Note_on_c, 0, 69, 97
3, 426480, Note_off_c, 0, 69, 64
3, 426480, Note_on_c, 0, 67, 97
3, 426600, Note_off_c, 0, 67, 64
3, 426600, Note_on_c, 0, 69, 97
3, 426720, Note_off_c, 0, 69, 64
3, 426720, Note_on_c, 0, 65, 97
3, 426960, Note_off_c, 0, 65, 64
3, 426960, Note_on_c, 0, 69, 97
3, 427200, Note_off_c, 0, 69, 64
3, 427200, Note_on_c, 0, 62, 97
3, 427440, Note_off_c, 0, 62, 64
3, 427440, Note_on_c, 0, 74, 97
3, 427680, Note_off_c, 0, 74, 64
3, 427680, Note_on_c, 0, 70, 97
3, 427920, Note_off_c, 0, 70, 64
3, 427920, Note_on_c, 0, 74, 97
3, 428160, Note_off_c, 0, 74, 64
3, 428160, Note_on_c, 0, 64, 97
3, 428400, Note_off_c, 0, 64, 64
3, 428400, Note_on_c, 0, 73, 97
3, 428640, Note_off_c, 0, 73, 64
3, 428640, Note_on_c, 0, 62, 97
3, 428760, Note_off_c, 0, 62, 64
3, 428760, Note_on_c, 0, 64, 97
3, 428880, Note_off_c, 0, 64, 64
3, 428880, Note_on_c, 0, 62, 97
3, 429000, Note_off_c, 0, 62, 64
3, 429000, Note_on_c, 0, 64, 97
3, 429120, Note_off_c, 0, 64, 64
3, 429120, Note_on_c, 0, 65, 97
3, 429240, Note_off_c, 0, 65, 64
3, 429240, Note_on_c, 0, 67, 97
3, 429360, Note_off_c, 0, 67, 64
3, 429360, Note_on_c, 0, 65, 97
3, 429480, Note_off_c, 0, 65, 64
3, 429480, Note_on_c, 0, 67, 97
3, 429600, Note_off_c, 0, 67, 64
3, 429600, Note_on_c, 0, 64, 97
3, 429720, Note_off_c, 0, 64, 64
3, 429720, Note_on_c, 0, 65, 97
3, 429840, Note_off_c, 0, 65, 64
3, 429840, Note_on_c, 0, 64, 97
3, 429960, Note_off_c, 0, 64, 64
3, 429960, Note_on_c, 0, 65, 97
3, 430080, Note_off_c, 0, 65, 64
3, 430080, Note_on_c, 0, 67, 97
3, 430200, Note_off_c, 0, 67, 64
3, 430200, Note_on_c, 0, 69, 97
3, 430320, Note_off_c, 0, 69, 64
3, 430320, Note_on_c, 0, 67, 97
3, 430440, Note_off_c, 0, 67, 64
3, 430440, Note_on_c, 0, 69, 97
3, 430560, Note_off_c, 0, 69, 64
3, 430560, Note_on_c, 0, 65, 97
3, 430680, Note_off_c, 0, 65, 64
3, 430680, Note_on_c, 0, 64, 97
3, 430800, Note_off_c, 0, 64, 64
3, 430800, Note_on_c, 0, 65, 97
3, 430920, Note_off_c, 0, 65, 64
3, 430920, Note_on_c, 0, 69, 97
3, 431040, Note_off_c, 0, 69, 64
3, 431040, Note_on_c, 0, 74, 97
3, 431760, Note_off_c, 0, 74, 64
3, 431760, Note_on_c, 0, 72, 97
3, 431880, Note_off_c, 0, 72, 64
3, 431880, Note_on_c, 0, 70, 97
3, 432000, Note_off_c, 0, 70, 64
3, 432000, Note_on_c, 0, 72, 97
3, 432120, Note_off_c, 0, 72, 64
3, 432120, Note_on_c, 0, 69, 97
3, 432240, Note_off_c, 0, 69, 64
3, 432240, Note_on_c, 0, 62, 97
3, 432360, Note_off_c, 0, 62, 64
3, 432360, Note_on_c, 0, 72, 97
3, 432480, Note_off_c, 0, 72, 64
3, 432480, Note_on_c, 0, 70, 97
3, 433080, Note_off_c, 0, 70, 64
3, 433080, Note_on_c, 0, 67, 97
3, 433200, Note_off_c, 0, 67, 64
3, 433200, Note_on_c, 0, 64, 97
3, 433320, Note_off_c, 0, 64, 64
3, 433320, Note_on_c, 0, 67, 97
3, 433440, Note_off_c, 0, 67, 64
3, 433440, Note_on_c, 0, 61, 97
3, 433560, Note_off_c, 0, 61, 64
3, 433560, Note_on_c, 0, 62, 97
3, 433680, Note_off_c, 0, 62, 64
3, 433680, Note_on_c, 0, 64, 97
3, 433800, Note_off_c, 0, 64, 64
3, 433800, Note_on_c, 0, 61, 97
3, 433920, Note_off_c, 0, 61, 64
3, 433920, Note_on_c, 0, 57, 97
3, 434160, Note_off_c, 0, 57, 64
3, 434160, Note_on_c, 0, 74, 97
3, 434520, Note_off_c, 0, 74, 64
3, 434520, Note_on_c, 0, 72, 97
3, 434640, Note_off_c, 0, 72, 64
3, 434640, Note_on_c, 0, 74, 97
3, 434760, Note_off_c, 0, 74, 64
3, 434760, Note_on_c, 0, 71, 97
3, 434880, Note_off_c, 0, 71, 64
3, 434880, Note_on_c, 0, 72, 97
3, 435120, Note_off_c, 0, 72, 64
3, 435120, Note_on_c, 0, 77, 97
3, 435360, Note_off_c, 0, 77, 64
3, 435360, Note_on_c, 0, 74, 97
3, 435600, Note_off_c, 0, 74, 64
3, 435600, Note_on_c, 0, 71, 97
3, 435840, Note_off_c, 0, 71, 64
3, 435840, Note_on_c, 0, 76, 97
3, 436440, Note_off_c, 0, 76, 64
3, 436440, Note_on_c, 0, 69, 97
3, 436560, Note_off_c, 0, 69, 64
3, 436560, Note_on_c, 0, 71, 97
3, 436680, Note_off_c, 0, 71, 64
3, 436680, Note_on_c, 0, 72, 97
3, 436800, Note_off_c, 0, 72, 64
3, 436800, Note_on_c, 0, 74, 97
3, 437040, Note_off_c, 0, 74, 64
3, 437040, Note_on_c, 0, 65, 97
3, 437280, Note_off_c, 0, 65, 64
3, 437280, Note_on_c, 0, 64, 97
3, 437520, Note_off_c, 0, 64, 64
3, 437520, Note_on_c, 0, 74, 97
3, 437760, Note_off_c, 0, 74, 64
3, 437760, Note_on_c, 0, 72, 97
3, 437790, Note_off_c, 0, 72, 64
3, 437790, Note_on_c, 0, 74, 97
3, 437820, Note_off_c, 0, 74, 64
3, 437820, Note_on_c, 0, 72, 97
3, 437880, Note_off_c, 0, 72, 64
3, 437880, Note_on_c, 0, 71, 97
3, 438000, Note_off_c, 0, 71, 64
3, 438000, Note_on_c, 0, 72, 97
3, 438120, Note_off_c, 0, 72, 64
3, 438120, Note_on_c, 0, 74, 97
3, 438240, Note_off_c, 0, 74, 64
3, 438240, Note_on_c, 0, 71, 97
3, 438720, Note_off_c, 0, 71, 64
3, 438840, Note_on_c, 0, 76, 97
3, 438960, Note_off_c, 0, 76, 64
3, 438960, Note_on_c, 0, 74, 97
3, 439080, Note_off_c, 0, 74, 64
3, 439080, Note_on_c, 0, 72, 97
3, 439200, Note_off_c, 0, 72, 64
3, 439200, Note_on_c, 0, 71, 97
3, 439320, Note_off_c, 0, 71, 64
3, 439320, Note_on_c, 0, 72, 97
3, 439440, Note_off_c, 0, 72, 64
3, 439440, Note_on_c, 0, 71, 97
3, 439560, Note_off_c, 0, 71, 64
3, 439560, Note_on_c, 0, 72, 97
3, 439680, Note_off_c, 0, 72, 64
3, 439680, Note_on_c, 0, 74, 97
3, 439800, Note_off_c, 0, 74, 64
3, 439800, Note_on_c, 0, 76, 97
3, 439920, Note_off_c, 0, 76, 64
3, 439920, Note_on_c, 0, 74, 97
3, 440040, Note_off_c, 0, 74, 64
3, 440040, Note_on_c, 0, 76, 97
3, 440160, Note_off_c, 0, 76, 64
3, 440160, Note_on_c, 0, 74, 97
3, 440280, Note_off_c, 0, 74, 64
3, 440280, Note_on_c, 0, 73, 97
3, 440400, Note_off_c, 0, 73, 64
3, 440400, Note_on_c, 0, 71, 97
3, 440520, Note_off_c, 0, 71, 64
3, 440520, Note_on_c, 0, 69, 97
3, 440640, Note_off_c, 0, 69, 64
3, 440640, Note_on_c, 0, 74, 97
3, 441600, Note_off_c, 0, 74, 64
3, 441600, Note_on_c, 0, 72, 97
3, 442560, Note_off_c, 0, 72, 64
3, 442680, Note_on_c, 0, 74, 97
3, 442800, Note_off_c, 0, 74, 64
3, 442800, Note_on_c, 0, 72, 97
3, 442920, Note_off_c, 0, 72, 64
3, 442920, Note_on_c, 0, 71, 97
3, 443040, Note_off_c, 0, 71, 64
3, 443040, Note_on_c, 0, 69, 97
3, 443160, Note_off_c, 0, 69, 64
3, 443160, Note_on_c, 0, 71, 97
3, 443280, Note_off_c, 0, 71, 64
3, 443280, Note_on_c, 0, 69, 97
3, 443400, Note_off_c, 0, 69, 64
3, 443400, Note_on_c, 0, 71, 97
3, 443520, Note_off_c, 0, 71, 64
3, 443520, Note_on_c, 0, 72, 97
3, 443640, Note_off_c, 0, 72, 64
3, 443640, Note_on_c, 0, 74, 97
3, 443760, Note_off_c, 0, 74, 64
3, 443760, Note_on_c, 0, 72, 97
3, 443880, Note_off_c, 0, 72, 64
3, 443880, Note_on_c, 0, 74, 97
3, 444000, Note_off_c, 0, 74, 64
3, 444000, Note_on_c, 0, 72, 97
3, 444120, Note_off_c, 0, 72, 64
3, 444120, Note_on_c, 0, 71, 97
3, 444240, Note_off_c, 0, 71, 64
3, 444240, Note_on_c, 0, 69, 97
3, 444360, Note_off_c, 0, 69, 64
3, 444360, Note_on_c, 0, 67, 97
3, 444480, Note_off_c, 0, 67, 64
3, 444480, Note_on_c, 0, 72, 97
3, 445440, Note_off_c, 0, 72, 64
3, 445440, Note_on_c, 0, 71, 97
3, 445920, Note_off_c, 0, 71, 64
3, 445920, Note_on_c, 0, 72, 97
3, 446160, Note_off_c, 0, 72, 64
3, 446160, Note_on_c, 0, 67, 97
3, 446400, Note_off_c, 0, 67, 64
3, 446400, Note_on_c, 0, 64, 97
3, 446640, Note_off_c, 0, 64, 64
3, 446640, Note_on_c, 0, 69, 97
3, 446880, Note_off_c, 0, 69, 64
3, 446880, Note_on_c, 0, 65, 97
3, 447120, Note_off_c, 0, 65, 64
3, 447120, Note_on_c, 0, 62, 97
3, 447360, Note_off_c, 0, 62, 64
3, 447360, Note_on_c, 0, 67, 97
3, 447960, Note_off_c, 0, 67, 64
3, 447960, Note_on_c, 0, 60, 97
3, 448080, Note_off_c, 0, 60, 64
3, 448080, Note_on_c, 0, 62, 97
3, 448200, Note_off_c, 0, 62, 64
3, 448200, Note_on_c, 0, 64, 97
3, 448320, Note_off_c, 0, 64, 64
3, 448320, Note_on_c, 0, 65, 97
3, 448920, Note_off_c, 0, 65, 64
3, 448920, Note_on_c, 0, 59, 97
3, 449040, Note_off_c, 0, 59, 64
3, 449040, Note_on_c, 0, 60, 97
3, 449160, Note_off_c, 0, 60, 64
3, 449160, Note_on_c, 0, 62, 97
3, 449280, Note_off_c, 0, 62, 64
3, 449280, Note_on_c, 0, 64, 97
3, 449400, Note_off_c, 0, 64, 64
3, 449400, Note_on_c, 0, 62, 97
3, 449520, Note_off_c, 0, 62, 64
3, 449520, Note_on_c, 0, 64, 97
3, 449640, Note_off_c, 0, 64, 64
3, 449640, Note_on_c, 0, 65, 97
3, 449760, Note_off_c, 0, 65, 64
3, 449760, Note_on_c, 0, 62, 97
3, 449880, Note_off_c, 0, 62, 64
3, 449880, Note_on_c, 0, 55, 97
3, 450000, Note_off_c, 0, 55, 64
3, 450000, Note_on_c, 0, 59, 97
3, 450120, Note_off_c, 0, 59, 64
3, 450120, Note_on_c, 0, 62, 97
3, 450240, Note_off_c, 0, 62, 64
3, 450240, Note_on_c, 0, 67, 97
3, 452160, Note_off_c, 0, 67, 64
3, 452280, Note_on_c, 0, 67, 97
3, 452400, Note_off_c, 0, 67, 64
3, 452400, Note_on_c, 0, 62, 97
3, 452520, Note_off_c, 0, 62, 64
3, 452520, Note_on_c, 0, 65, 97
3, 452640, Note_off_c, 0, 65, 64
3, 452640, Note_on_c, 0, 64, 97
3, 452760, Note_off_c, 0, 64, 64
3, 452760, Note_on_c, 0, 67, 97
3, 452880, Note_off_c, 0, 67, 64
3, 452880, Note_on_c, 0, 59, 97
3, 453000, Note_off_c, 0, 59, 64
3, 453000, Note_on_c, 0, 62, 97
3, 453120, Note_off_c, 0, 62, 64
3, 453120, Note_on_c, 0, 60, 97
3, 453240, Note_off_c, 0, 60, 64
3, 453240, Note_on_c, 0, 64, 97
3, 453360, Note_off_c, 0, 64, 64
3, 453360, Note_on_c, 0, 62, 97
3, 453480, Note_off_c, 0, 62, 64
3, 453480, Note_on_c, 0, 60, 97
3, 453600, Note_off_c, 0, 60, 64
3, 453600, Note_on_c, 0, 59, 97
3, 453720, Note_off_c, 0, 59, 64
3, 453720, Note_on_c, 0, 55, 97
3, 453840, Note_off_c, 0, 55, 64
3, 453840, Note_on_c, 0, 59, 97
3, 453960, Note_off_c, 0, 59, 64
3, 453960, Note_on_c, 0, 62, 97
3, 454080, Note_off_c, 0, 62, 64
3, 454080, Note_on_c, 0, 67, 97
3, 454680, Note_off_c, 0, 67, 64
3, 454680, Note_on_c, 0, 65, 97
3, 454800, Note_off_c, 0, 65, 64
3, 454800, Note_on_c, 0, 64, 97
3, 454920, Note_off_c, 0, 64, 64
3, 454920, Note_on_c, 0, 67, 97
3, 455040, Note_off_c, 0, 67, 64
3, 455040, Note_on_c, 0, 65, 97
3, 455640, Note_off_c, 0, 65, 64
3, 455640, Note_on_c, 0, 55, 97
3, 455760, Note_off_c, 0, 55, 64
3, 455760, Note_on_c, 0, 59, 97
3, 455880, Note_off_c, 0, 59, 64
3, 455880, Note_on_c, 0, 62, 97
3, 456000, Note_off_c, 0, 62, 64
3, 456000, Note_on_c, 0, 64, 97
3, 456600, Note_off_c, 0, 64, 64
3, 456600, Note_on_c, 0, 62, 97
3, 456720, Note_off_c, 0, 62, 64
3, 456720, Note_on_c, 0, 60, 97
3, 456840, Note_off_c, 0, 60, 64
3, 456840, Note_on_c, 0, 64, 97
3, 456960, Note_off_c, 0, 64, 64
3, 456960, Note_on_c, 0, 62, 97
3, 457560, Note_off_c, 0, 62, 64
3, 457560, Note_on_c, 0, 72, 97
3, 457680, Note_off_c, 0, 72, 64
3, 457680, Note_on_c, 0, 71, 97
3, 457800, Note_off_c, 0, 71, 64
3, 457800, Note_on_c, 0, 69, 97
3, 457920, Note_off_c, 0, 69, 64
3, 457920, Note_on_c, 0, 67, 97
3, 458040, Note_off_c, 0, 67, 64
3, 458040, Note_on_c, 0, 65, 97
3, 458160, Note_off_c, 0, 65, 64
3, 458160, Note_on_c, 0, 64, 97
3, 458280, Note_off_c, 0, 64, 64
3, 458280, Note_on_c, 0, 65, 97
3, 458400, Note_off_c, 0, 65, 64
3, 458400, Note_on_c, 0, 64, 97
3, 458520, Note_off_c, 0, 64, 64
3, 458520, Note_on_c, 0, 62, 97
3, 458640, Note_off_c, 0, 62, 64
3, 458640, Note_on_c, 0, 69, 97
3, 458760, Note_off_c, 0, 69, 64
3, 458760, Note_on_c, 0, 67, 97
3, 458880, Note_off_c, 0, 67, 64
3, 458880, Note_on_c, 0, 65, 97
3, 459000, Note_off_c, 0, 65, 64
3, 459000, Note_on_c, 0, 64, 97
3, 459120, Note_off_c, 0, 64, 64
3, 459120, Note_on_c, 0, 62, 97
3, 459240, Note_off_c, 0, 62, 64
3, 459240, Note_on_c, 0, 65, 97
3, 459360, Note_off_c, 0, 65, 64
3, 459360, Note_on_c, 0, 64, 97
3, 460320, Note_off_c, 0, 64, 64
3, 460320, End_track
4, 0, Start_track
4, 0, Title_t, "Track 3"
4, 0, Note_on_c, 0, 48, 102
4, 480, Note_off_c, 0, 48, 64
4, 1680, Note_on_c, 0, 60, 102
4, 1920, Note_off_c, 0, 60, 64
4, 1920, Note_on_c, 0, 48, 102
4, 2160, Note_off_c, 0, 48, 64
4, 2160, Note_on_c, 0, 60, 102
4, 2400, Note_off_c, 0, 60, 64
4, 2400, Note_on_c, 0, 48, 102
4, 2640, Note_off_c, 0, 48, 64
4, 2640, Note_on_c, 0, 60, 102
4, 2880, Note_off_c, 0, 60, 64
4, 2880, Note_on_c, 0, 48, 102
4, 3360, Note_off_c, 0, 48, 64
4, 4560, Note_on_c, 0, 48, 102
4, 4800, Note_off_c, 0, 48, 64
4, 4800, Note_on_c, 0, 36, 102
4, 5040, Note_off_c, 0, 36, 64
4, 5040, Note_on_c, 0, 48, 102
4, 5280, Note_off_c, 0, 48, 64
4, 5280, Note_on_c, 0, 36, 102
4, 5520, Note_off_c, 0, 36, 64
4, 5520, Note_on_c, 0, 48, 102
4, 5760, Note_off_c, 0, 48, 64
4, 5760, Note_on_c, 0, 36, 102
4, 6240, Note_off_c, 0, 36, 64
4, 6240, Note_on_c, 0, 48, 102
4, 6720, Note_off_c, 0, 48, 64
4, 6960, Note_on_c, 0, 36, 102
4, 7200, Note_off_c, 0, 36, 64
4, 7200, Note_on_c, 0, 38, 102
4, 7680, Note_off_c, 0, 38, 64
4, 7680, Note_on_c, 0, 50, 102
4, 8160, Note_off_c, 0, 50, 64
4, 8640, Note_on_c, 0, 40, 102
4, 9120, Note_off_c, 0, 40, 64
4, 9120, Note_on_c, 0, 52, 102
4, 9600, Note_off_c, 0, 52, 64
4, 10080, Note_on_c, 0, 41, 102
4, 10560, Note_off_c, 0, 41, 64
4, 10560, Note_on_c, 0, 53, 102
4, 11040, Note_off_c, 0, 53, 64
4, 11520, Note_on_c, 0, 55, 102
4, 12000, Note_off_c, 0, 55, 64
4, 12000, Note_on_c, 0, 43, 102
4, 16080, Note_off_c, 0, 43, 64
4, 16080, Note_on_c, 0, 50, 102
4, 16320, Note_off_c, 0, 50, 64
4, 16320, Note_on_c, 0, 52, 102
4, 16560, Note_off_c, 0, 52, 64
4, 16560, Note_on_c, 0, 54, 102
4, 16800, Note_off_c, 0, 54, 64
4, 16800, Note_on_c, 0, 55, 102
4, 17040, Note_off_c, 0, 55, 64
4, 17040, Note_on_c, 0, 47, 102
4, 17280, Note_off_c, 0, 47, 64
4, 17280, Note_on_c, 0, 48, 102
4, 17520, Note_off_c, 0, 48, 64
4, 17520, Note_on_c, 0, 52, 102
4, 17760, Note_off_c, 0, 52, 64
4, 17760, Note_on_c, 0, 54, 102
4, 18000, Note_off_c, 0, 54, 64
4, 18000, Note_on_c, 0, 55, 102
4, 18240, Note_off_c, 0, 55, 64
4, 18240, Note_on_c, 0, 57, 102
4, 18480, Note_off_c, 0, 57, 64
4, 18480, Note_on_c, 0, 48, 102
4, 18720, Note_off_c, 0, 48, 64
4, 18720, Note_on_c, 0, 50, 102
4, 18960, Note_off_c, 0, 50, 64
4, 18960, Note_on_c, 0, 54, 102
4, 19200, Note_off_c, 0, 54, 64
4, 19200, Note_on_c, 0, 55, 102
4, 19440, Note_off_c, 0, 55, 64
4, 19440, Note_on_c, 0, 57, 102
4, 19680, Note_off_c, 0, 57, 64
4, 19680, Note_on_c, 0, 59, 102
4, 19920, Note_off_c, 0, 59, 64
4, 19920, Note_on_c, 0, 50, 102
4, 20160, Note_off_c, 0, 50, 64
4, 20160, Note_on_c, 0, 52, 102
4, 20400, Note_off_c, 0, 52, 64
4, 20400, Note_on_c, 0, 55, 102
4, 20640, Note_off_c, 0, 55, 64
4, 20640, Note_on_c, 0, 57, 102
4, 20880, Note_off_c, 0, 57, 64
4, 20880, Note_on_c, 0, 59, 102
4, 21120, Note_off_c, 0, 59, 64
4, 21120, Note_on_c, 0, 60, 102
4, 21360, Note_off_c, 0, 60, 64
4, 21360, Note_on_c, 0, 52, 102
4, 21600, Note_off_c, 0, 52, 64
4, 21600, Note_on_c, 0, 54, 102
4, 21840, Note_off_c, 0, 54, 64
4, 21840, Note_on_c, 0, 50, 102
4, 22080, Note_off_c, 0, 50, 64
4, 22080, Note_on_c, 0, 55, 102
4, 22320, Note_off_c, 0, 55, 64
4, 22320, Note_on_c, 0, 48, 102
4, 22560, Note_off_c, 0, 48, 64
4, 22560, Note_on_c, 0, 50, 102
4, 22800, Note_off_c, 0, 50, 64
4, 22800, Note_on_c, 0, 38, 102
4, 23040, Note_off_c, 0, 38, 64
4, 23040, Note_on_c, 0, 43, 102
4, 23520, Note_off_c, 0, 43, 64
4, 24720, Note_on_c, 0, 55, 102
4, 24960, Note_off_c, 0, 55, 64
4, 24960, Note_on_c, 0, 43, 102
4, 25200, Note_off_c, 0, 43, 64
4, 25200, Note_on_c, 0, 55, 102
4, 25440, Note_off_c, 0, 55, 64
4, 25440, Note_on_c, 0, 43, 102
4, 25680, Note_off_c, 0, 43, 64
4, 25680, Note_on_c, 0, 55, 102
4, 25920, Note_off_c, 0, 55, 64
4, 25920, Note_on_c, 0, 43, 102
4, 26400, Note_off_c, 0, 43, 64
4, 27600, Note_on_c, 0, 55, 102
4, 27840, Note_off_c, 0, 55, 64
4, 27840, Note_on_c, 0, 43, 102
4, 28080, Note_off_c, 0, 43, 64
4, 28080, Note_on_c, 0, 55, 102
4, 28320, Note_off_c, 0, 55, 64
4, 28320, Note_on_c, 0, 43, 102
4, 28560, Note_off_c, 0, 43, 64
4, 28560, Note_on_c, 0, 55, 102
4, 28800, Note_off_c, 0, 55, 64
4, 28800, Note_on_c, 0, 43, 102
4, 29280, Note_off_c, 0, 43, 64
4, 29280, Note_on_c, 0, 55, 102
4, 29760, Note_off_c, 0, 55, 64
4, 30000, Note_on_c, 0, 43, 102
4, 30240, Note_off_c, 0, 43, 64
4, 30240, Note_on_c, 0, 45, 102
4, 30720, Note_off_c, 0, 45, 64
4, 30720, Note_on_c, 0, 57, 102
4, 31200, Note_off_c, 0, 57, 64
4, 31440, Note_on_c, 0, 45, 102
4, 31680, Note_off_c, 0, 45, 64
4, 31680, Note_on_c, 0, 47, 102
4, 32160, Note_off_c, 0, 47, 64
4, 32160, Note_on_c, 0, 59, 102
4, 32640, Note_off_c, 0, 59, 64
4, 32880, Note_on_c, 0, 47, 102
4, 33120, Note_off_c, 0, 47, 64
4, 33120, Note_on_c, 0, 48, 102
4, 33600, Note_off_c, 0, 48, 64
4, 33600, Note_on_c, 0, 60, 102
4, 34080, Note_off_c, 0, 60, 64
4, 34320, Note_on_c, 0, 57, 102
4, 34560, Note_off_c, 0, 57, 64
4, 34560, Note_on_c, 0, 62, 102
4, 35040, Note_off_c, 0, 62, 64
4, 35040, Note_on_c, 0, 50, 102
4, 39120, Note_off_c, 0, 50, 64
4, 39120, Note_on_c, 0, 54, 102
4, 39360, Note_off_c, 0, 54, 64
4, 39360, Note_on_c, 0, 55, 102
4, 39600, Note_off_c, 0, 55, 64
4, 39600, Note_on_c, 0, 57, 102
4, 39840, Note_off_c, 0, 57, 64
4, 39840, Note_on_c, 0, 59, 102
4, 40080, Note_off_c, 0, 59, 64
4, 40080, Note_on_c, 0, 50, 102
4, 40320, Note_off_c, 0, 50, 64
4, 40320, Note_on_c, 0, 52, 102
4, 40560, Note_off_c, 0, 52, 64
4, 40560, Note_on_c, 0, 55, 102
4, 40800, Note_off_c, 0, 55, 64
4, 40800, Note_on_c, 0, 57, 102
4, 41040, Note_off_c, 0, 57, 64
4, 41040, Note_on_c, 0, 59, 102
4, 41280, Note_off_c, 0, 59, 64
4, 41280, Note_on_c, 0, 60, 102
4, 41520, Note_off_c, 0, 60, 64
4, 41520, Note_on_c, 0, 54, 102
4, 41760, Note_off_c, 0, 54, 64
4, 41760, Note_on_c, 0, 55, 102
4, 42000, Note_off_c, 0, 55, 64
4, 42000, Note_on_c, 0, 47, 102
4, 42240, Note_off_c, 0, 47, 64
4, 42240, Note_on_c, 0, 48, 102
4, 42480, Note_off_c, 0, 48, 64
4, 42480, Note_on_c, 0, 50, 102
4, 42720, Note_off_c, 0, 50, 64
4, 42720, Note_on_c, 0, 52, 102
4, 42960, Note_off_c, 0, 52, 64
4, 42960, Note_on_c, 0, 43, 102
4, 43200, Note_off_c, 0, 43, 64
4, 43200, Note_on_c, 0, 45, 102
4, 43440, Note_off_c, 0, 45, 64
4, 43440, Note_on_c, 0, 48, 102
4, 43680, Note_off_c, 0, 48, 64
4, 43680, Note_on_c, 0, 50, 102
4, 43920, Note_off_c, 0, 50, 64
4, 43920, Note_on_c, 0, 52, 102
4, 44160, Note_off_c, 0, 52, 64
4, 44160, Note_on_c, 0, 53, 102
4, 44400, Note_off_c, 0, 53, 64
4, 44400, Note_on_c, 0, 47, 102
4, 44640, Note_off_c, 0, 47, 64
4, 44640, Note_on_c, 0, 48, 102
4, 44880, Note_off_c, 0, 48, 64
4, 44880, Note_on_c, 0, 48, 102
4, 45120, Note_off_c, 0, 48, 64
4, 45120, Note_on_c, 0, 36, 102
4, 45360, Note_off_c, 0, 36, 64
4, 45360, Note_on_c, 0, 48, 102
4, 45600, Note_off_c, 0, 48, 64
4, 45600, Note_on_c, 0, 36, 102
4, 45840, Note_off_c, 0, 36, 64
4, 45840, Note_on_c, 0, 48, 102
4, 46080, Note_off_c, 0, 48, 64
4, 46080, Note_on_c, 0, 38, 102
4, 46320, Note_off_c, 0, 38, 64
4, 46320, Note_on_c, 0, 50, 102
4, 46560, Note_off_c, 0, 50, 64
4, 46560, Note_on_c, 0, 38, 102
4, 46800, Note_off_c, 0, 38, 64
4, 46800, Note_on_c, 0, 50, 102
4, 47040, Note_off_c, 0, 50, 64
4, 47040, Note_on_c, 0, 38, 102
4, 47280, Note_off_c, 0, 38, 64
4, 47280, Note_on_c, 0, 50, 102
4, 47520, Note_off_c, 0, 50, 64
4, 47520, Note_on_c, 0, 40, 102
4, 47760, Note_off_c, 0, 40, 64
4, 47760, Note_on_c, 0, 52, 102
4, 48000, Note_off_c, 0, 52, 64
4, 48000, Note_on_c, 0, 40, 102
4, 48240, Note_off_c, 0, 40, 64
4, 48240, Note_on_c, 0, 52, 102
4, 48480, Note_off_c, 0, 52, 64
4, 48480, Note_on_c, 0, 40, 102
4, 48720, Note_off_c, 0, 40, 64
4, 48720, Note_on_c, 0, 52, 102
4, 48960, Note_off_c, 0, 52, 64
4, 48960, Note_on_c, 0, 41, 102
4, 54960, Note_off_c, 0, 41, 64
4, 54960, Note_on_c, 0, 53, 102
4, 55200, Note_off_c, 0, 53, 64
4, 55200, Note_on_c, 0, 50, 102
4, 55440, Note_off_c, 0, 50, 64
4, 55440, Note_on_c, 0, 53, 102
4, 55680, Note_off_c, 0, 53, 64
4, 55680, Note_on_c, 0, 47, 102
4, 55920, Note_off_c, 0, 47, 64
4, 55920, Note_on_c, 0, 50, 102
4, 56160, Note_off_c, 0, 50, 64
4, 56160, Note_on_c, 0, 40, 102
4, 56400, Note_off_c, 0, 40, 64
4, 56400, Note_on_c, 0, 52, 102
4, 56640, Note_off_c, 0, 52, 64
4, 56640, Note_on_c, 0, 48, 102
4, 56880, Note_off_c, 0, 48, 64
4, 56880, Note_on_c, 0, 52, 102
4, 57120, Note_off_c, 0, 52, 64
4, 57120, Note_on_c, 0, 45, 102
4, 57360, Note_off_c, 0, 45, 64
4, 57360, Note_on_c, 0, 48, 102
4, 57600, Note_off_c, 0, 48, 64
4, 57600, Note_on_c, 0, 38, 102
4, 57840, Note_off_c, 0, 38, 64
4, 57840, Note_on_c, 0, 50, 102
4, 58080, Note_off_c, 0, 50, 64
4, 58080, Note_on_c, 0, 47, 102
4, 58320, Note_off_c, 0, 47, 64
4, 58320, Note_on_c, 0, 50, 102
4, 58560, Note_off_c, 0, 50, 64
4, 58560, Note_on_c, 0, 43, 102
4, 58800, Note_off_c, 0, 43, 64
4, 58800, Note_on_c, 0, 47, 102
4, 59040, Note_off_c, 0, 47, 64
4, 59040, Note_on_c, 0, 36, 102
4, 65040, Note_off_c, 0, 36, 64
4, 65040, Note_on_c, 0, 43, 102
4, 65280, Note_off_c, 0, 43, 64
4, 65280, Note_on_c, 0, 45, 102
4, 65520, Note_off_c, 0, 45, 64
4, 65520, Note_on_c, 0, 47, 102
4, 65760, Note_off_c, 0, 47, 64
4, 65760, Note_on_c, 0, 48, 102
4, 66000, Note_off_c, 0, 48, 64
4, 66000, Note_on_c, 0, 40, 102
4, 66240, Note_off_c, 0, 40, 64
4, 66240, Note_on_c, 0, 41, 102
4, 66480, Note_off_c, 0, 41, 64
4, 66480, Note_on_c, 0, 45, 102
4, 66720, Note_off_c, 0, 45, 64
4, 66720, Note_on_c, 0, 47, 102
4, 66960, Note_off_c, 0, 47, 64
4, 66960, Note_on_c, 0, 48, 102
4, 67200, Note_off_c, 0, 48, 64
4, 67200, Note_on_c, 0, 50, 102
4, 67440, Note_off_c, 0, 50, 64
4, 67440, Note_on_c, 0, 41, 102
4, 67680, Note_off_c, 0, 41, 64
4, 67680, Note_on_c, 0, 43, 102
4, 67920, Note_off_c, 0, 43, 64
4, 67920, Note_on_c, 0, 47, 102
4, 68160, Note_off_c, 0, 47, 64
4, 68160, Note_on_c, 0, 48, 102
4, 68400, Note_off_c, 0, 48, 64
4, 68400, Note_on_c, 0, 50, 102
4, 68640, Note_off_c, 0, 50, 64
4, 68640, Note_on_c, 0, 52, 102
4, 68880, Note_off_c, 0, 52, 64
4, 68880, Note_on_c, 0, 43, 102
4, 69120, Note_off_c, 0, 43, 64
4, 69120, Note_on_c, 0, 45, 102
4, 69360, Note_off_c, 0, 45, 64
4, 69360, Note_on_c, 0, 48, 102
4, 69600, Note_off_c, 0, 48, 64
4, 69600, Note_on_c, 0, 50, 102
4, 69840, Note_off_c, 0, 50, 64
4, 69840, Note_on_c, 0, 52, 102
4, 70080, Note_off_c, 0, 52, 64
4, 70080, Note_on_c, 0, 53, 102
4, 70320, Note_off_c, 0, 53, 64
4, 70320, Note_on_c, 0, 45, 102
4, 70560, Note_off_c, 0, 45, 64
4, 70560, Note_on_c, 0, 47, 102
4, 70800, Note_off_c, 0, 47, 64
4, 70800, Note_on_c, 0, 43, 102
4, 71040, Note_off_c, 0, 43, 64
4, 71040, Note_on_c, 0, 48, 102
4, 71280, Note_off_c, 0, 48, 64
4, 71280, Note_on_c, 0, 53, 102
4, 71520, Note_off_c, 0, 53, 64
4, 71520, Note_on_c, 0, 55, 102
4, 71760, Note_off_c, 0, 55, 64
4, 71760, Note_on_c, 0, 43, 102
4, 72000, Note_off_c, 0, 43, 64
4, 72000, Note_on_c, 0, 48, 102
4, 72240, Note_off_c, 0, 48, 64
4, 72480, Note_on_c, 0, 52, 102
4, 72720, Note_off_c, 0, 52, 64
4, 72960, Note_on_c, 0, 53, 102
4, 73200, Note_off_c, 0, 53, 64
4, 73440, Note_on_c, 0, 47, 102
4, 73680, Note_off_c, 0, 47, 64
4, 73920, Note_on_c, 0, 43, 102
4, 74160, Note_off_c, 0, 43, 64
4, 74400, Note_on_c, 0, 47, 102
4, 74640, Note_off_c, 0, 47, 64
4, 74880, Note_on_c, 0, 48, 102
4, 75120, Note_off_c, 0, 48, 64
4, 75360, Note_on_c, 0, 47, 102
4, 75600, Note_off_c, 0, 47, 64
4, 75840, Note_on_c, 0, 48, 102
4, 76080, Note_off_c, 0, 48, 64
4, 76320, Note_on_c, 0, 42, 102
4, 76560, Note_off_c, 0, 42, 64
4, 76800, Note_on_c, 0, 38, 102
4, 77040, Note_off_c, 0, 38, 64
4, 77280, Note_on_c, 0, 50, 102
4, 77520, Note_off_c, 0, 50, 64
4, 77760, Note_on_c, 0, 43, 102
4, 78000, Note_off_c, 0, 43, 64
4, 78000, Note_on_c, 0, 55, 102
4, 78480, Note_off_c, 0, 55, 64
4, 78480, Note_on_c, 0, 53, 102
4, 78720, Note_off_c, 0, 53, 64
4, 78720, Note_on_c, 0, 52, 102
4, 78960, Note_off_c, 0, 52, 64
4, 78960, Note_on_c, 0, 50, 102
4, 79200, Note_off_c, 0, 50, 64
4, 79200, Note_on_c, 0, 48, 102
4, 79440, Note_off_c, 0, 48, 64
4, 79440, Note_on_c, 0, 60, 102
4, 79920, Note_off_c, 0, 60, 64
4, 79920, Note_on_c, 0, 58, 102
4, 80160, Note_off_c, 0, 58, 64
4, 80160, Note_on_c, 0, 57, 102
4, 80400, Note_off_c, 0, 57, 64
4, 80400, Note_on_c, 0, 55, 102
4, 80640, Note_off_c, 0, 55, 64
4, 80640, Note_on_c, 0, 53, 102
4, 80880, Note_off_c, 0, 53, 64
4, 80880, Note_on_c, 0, 57, 102
4, 81360, Note_off_c, 0, 57, 64
4, 81360, Note_on_c, 0, 55, 102
4, 81600, Note_off_c, 0, 55, 64
4, 81600, Note_on_c, 0, 53, 102
4, 81840, Note_off_c, 0, 53, 64
4, 81840, Note_on_c, 0, 52, 102
4, 82080, Note_off_c, 0, 52, 64
4, 82080, Note_on_c, 0, 50, 102
4, 82320, Note_off_c, 0, 50, 64
4, 82320, Note_on_c, 0, 62, 102
4, 82800, Note_off_c, 0, 62, 64
4, 82800, Note_on_c, 0, 60, 102
4, 83040, Note_off_c, 0, 60, 64
4, 83040, Note_on_c, 0, 59, 102
4, 83280, Note_off_c, 0, 59, 64
4, 83280, Note_on_c, 0, 57, 102
4, 83520, Note_off_c, 0, 57, 64
4, 83520, Note_on_c, 0, 56, 102
4, 83760, Note_off_c, 0, 56, 64
4, 84000, Note_on_c, 0, 57, 102
4, 84240, Note_off_c, 0, 57, 64
4, 84480, Note_on_c, 0, 53, 102
4, 84720, Note_off_c, 0, 53, 64
4, 84960, Note_on_c, 0, 52, 102
4, 85200, Note_off_c, 0, 52, 64
4, 85440, Note_on_c, 0, 53, 102
4, 85680, Note_off_c, 0, 53, 64
4, 85920, Note_on_c, 0, 54, 102
4, 86160, Note_off_c, 0, 54, 64
4, 86400, Note_on_c, 0, 55, 102
4, 86640, Note_off_c, 0, 55, 64
4, 86880, Note_on_c, 0, 56, 102
4, 87120, Note_off_c, 0, 56, 64
4, 87360, Note_on_c, 0, 52, 102
4, 87600, Note_off_c, 0, 52, 64
4, 87840, Note_on_c, 0, 57, 102
4, 88080, Note_off_c, 0, 57, 64
4, 88320, Note_on_c, 0, 45, 102
4, 88560, Note_off_c, 0, 45, 64
4, 88800, Note_on_c, 0, 48, 102
4, 89040, Note_off_c, 0, 48, 64
4, 89280, Note_on_c, 0, 52, 102
4, 89520, Note_off_c, 0, 52, 64
4, 89760, Note_on_c, 0, 48, 102
4, 90000, Note_off_c, 0, 48, 64
4, 90240, Note_on_c, 0, 52, 102
4, 90480, Note_off_c, 0, 52, 64
4, 90720, Note_on_c, 0, 53, 102
4, 90960, Note_off_c, 0, 53, 64
4, 91200, Note_on_c, 0, 46, 102
4, 91440, Note_off_c, 0, 46, 64
4, 91680, Note_on_c, 0, 47, 102
4, 91920, Note_off_c, 0, 47, 64
4, 92160, Note_on_c, 0, 48, 102
4, 92400, Note_off_c, 0, 48, 64
4, 92640, Note_on_c, 0, 49, 102
4, 92880, Note_off_c, 0, 49, 64
4, 93120, Note_on_c, 0, 45, 102
4, 93360, Note_off_c, 0, 45, 64
4, 93600, Note_on_c, 0, 50, 102
4, 93840, Note_off_c, 0, 50, 64
4, 94080, Note_on_c, 0, 38, 102
4, 94320, Note_off_c, 0, 38, 64
4, 94560, Note_on_c, 0, 50, 102
4, 95520, Note_off_c, 0, 50, 64
4, 95520, Note_on_c, 0, 49, 102
4, 95760, Note_off_c, 0, 49, 64
4, 95760, Note_on_c, 0, 45, 102
4, 96000, Note_off_c, 0, 45, 64
4, 96000, Note_on_c, 0, 47, 102
4, 96240, Note_off_c, 0, 47, 64
4, 96240, Note_on_c, 0, 49, 102
4, 96480, Note_off_c, 0, 49, 64
4, 96480, Note_on_c, 0, 50, 102
4, 96960, Note_off_c, 0, 50, 64
4, 97200, Note_on_c, 0, 52, 102
4, 97440, Note_off_c, 0, 52, 64
4, 97440, Note_on_c, 0, 53, 102
4, 97680, Note_off_c, 0, 53, 64
4, 97680, Note_on_c, 0, 50, 102
4, 97920, Note_off_c, 0, 50, 64
4, 97920, Note_on_c, 0, 58, 102
4, 98160, Note_off_c, 0, 58, 64
4, 98400, Note_on_c, 0, 46, 102
4, 98640, Note_off_c, 0, 46, 64
4, 98880, Note_on_c, 0, 50, 102
4, 99120, Note_off_c, 0, 50, 64
4, 99360, Note_on_c, 0, 52, 102
4, 99840, Note_off_c, 0, 52, 64
4, 100080, Note_on_c, 0, 50, 102
4, 100320, Note_off_c, 0, 50, 64
4, 100320, Note_on_c, 0, 52, 102
4, 100560, Note_off_c, 0, 52, 64
4, 100560, Note_on_c, 0, 48, 102
4, 100800, Note_off_c, 0, 48, 64
4, 100800, Note_on_c, 0, 57, 102
4, 101040, Note_off_c, 0, 57, 64
4, 101280, Note_on_c, 0, 58, 102
4, 101520, Note_off_c, 0, 58, 64
4, 101760, Note_on_c, 0, 52, 102
4, 102000, Note_off_c, 0, 52, 64
4, 102240, Note_on_c, 0, 53, 102
4, 102720, Note_off_c, 0, 53, 64
4, 102720, Note_on_c, 0, 41, 102
4, 103200, Note_off_c, 0, 41, 64
4, 103920, Note_on_c, 0, 53, 102
4, 104160, Note_off_c, 0, 53, 64
4, 104160, Note_on_c, 0, 41, 102
4, 104400, Note_off_c, 0, 41, 64
4, 104400, Note_on_c, 0, 53, 102
4, 104640, Note_off_c, 0, 53, 64
4, 104640, Note_on_c, 0, 41, 102
4, 104880, Note_off_c, 0, 41, 64
4, 104880, Note_on_c, 0, 53, 102
4, 105120, Note_off_c, 0, 53, 64
4, 105120, Note_on_c, 0, 41, 102
4, 105600, Note_off_c, 0, 41, 64
4, 106800, Note_on_c, 0, 53, 102
4, 107040, Note_off_c, 0, 53, 64
4, 107040, Note_on_c, 0, 41, 102
4, 107280, Note_off_c, 0, 41, 64
4, 107280, Note_on_c, 0, 53, 102
4, 107520, Note_off_c, 0, 53, 64
4, 107520, Note_on_c, 0, 41, 102
4, 107760, Note_off_c, 0, 41, 64
4, 107760, Note_on_c, 0, 53, 102
4, 108000, Note_off_c, 0, 53, 64
4, 108000, Note_on_c, 0, 41, 102
4, 108240, Note_off_c, 0, 41, 64
4, 108480, Note_on_c, 0, 40, 102
4, 108720, Note_off_c, 0, 40, 64
4, 108960, Note_on_c, 0, 38, 102
4, 109200, Note_off_c, 0, 38, 64
4, 109440, Note_on_c, 0, 36, 102
4, 109680, Note_off_c, 0, 36, 64
4, 109920, Note_on_c, 0, 47, 102
4, 110160, Note_off_c, 0, 47, 64
4, 110400, Note_on_c, 0, 45, 102
4, 110640, Note_off_c, 0, 45, 64
4, 110880, Note_on_c, 0, 43, 102
4, 111120, Note_off_c, 0, 43, 64
4, 111360, Note_on_c, 0, 41, 102
4, 111600, Note_off_c, 0, 41, 64
4, 111840, Note_on_c, 0, 40, 102
4, 112080, Note_off_c, 0, 40, 64
4, 112320, Note_on_c, 0, 38, 102
4, 112560, Note_off_c, 0, 38, 64
4, 112800, Note_on_c, 0, 48, 102
4, 113040, Note_off_c, 0, 48, 64
4, 113280, Note_on_c, 0, 47, 102
4, 113520, Note_off_c, 0, 47, 64
4, 113760, Note_on_c, 0, 45, 102
4, 114240, Note_off_c, 0, 45, 64
4, 115440, Note_on_c, 0, 57, 102
4, 115680, Note_off_c, 0, 57, 64
4, 115680, Note_on_c, 0, 45, 102
4, 115920, Note_off_c, 0, 45, 64
4, 115920, Note_on_c, 0, 57, 102
4, 116160, Note_off_c, 0, 57, 64
4, 116160, Note_on_c, 0, 45, 102
4, 116400, Note_off_c, 0, 45, 64
4, 116400, Note_on_c, 0, 57, 102
4, 116640, Note_off_c, 0, 57, 64
4, 116640, Note_on_c, 0, 45, 102
4, 117120, Note_off_c, 0, 45, 64
4, 118320, Note_on_c, 0, 57, 102
4, 118560, Note_off_c, 0, 57, 64
4, 118560, Note_on_c, 0, 45, 102
4, 118800, Note_off_c, 0, 45, 64
4, 118800, Note_on_c, 0, 57, 102
4, 119040, Note_off_c, 0, 57, 64
4, 119040, Note_on_c, 0, 45, 102
4, 119280, Note_off_c, 0, 45, 64
4, 119280, Note_on_c, 0, 57, 102
4, 119520, Note_off_c, 0, 57, 64
4, 119520, Note_on_c, 0, 45, 102
4, 119760, Note_off_c, 0, 45, 64
4, 120000, Note_on_c, 0, 48, 102
4, 120240, Note_off_c, 0, 48, 64
4, 120480, Note_on_c, 0, 50, 102
4, 120720, Note_off_c, 0, 50, 64
4, 120960, Note_on_c, 0, 44, 102
4, 121200, Note_off_c, 0, 44, 64
4, 121440, Note_on_c, 0, 40, 102
4, 121680, Note_off_c, 0, 40, 64
4, 121920, Note_on_c, 0, 43, 102
4, 122880, Note_off_c, 0, 43, 64
4, 122880, Note_on_c, 0, 41, 102
4, 123120, Note_off_c, 0, 41, 64
4, 123360, Note_on_c, 0, 43, 102
4, 123600, Note_off_c, 0, 43, 64
4, 123840, Note_on_c, 0, 45, 102
4, 124080, Note_off_c, 0, 45, 64
4, 124080, Note_on_c, 0, 57, 102
4, 124320, Note_off_c, 0, 57, 64
4, 124320, Note_on_c, 0, 45, 102
4, 124560, Note_off_c, 0, 45, 64
4, 124560, Note_on_c, 0, 57, 102
4, 124800, Note_off_c, 0, 57, 64
4, 124800, Note_on_c, 0, 45, 102
4, 125040, Note_off_c, 0, 45, 64
4, 125040, Note_on_c, 0, 57, 102
4, 125280, Note_off_c, 0, 57, 64
4, 125280, Note_on_c, 0, 38, 102
4, 125520, Note_off_c, 0, 38, 64
4, 125520, Note_on_c, 0, 50, 102
4, 126000, Note_off_c, 0, 50, 64
4, 126000, Note_on_c, 0, 48, 102
4, 126240, Note_off_c, 0, 48, 64
4, 126240, Note_on_c, 0, 47, 102
4, 126480, Note_off_c, 0, 47, 64
4, 126480, Note_on_c, 0, 45, 102
4, 126720, Note_off_c, 0, 45, 64
4, 126720, Note_on_c, 0, 43, 102
4, 126960, Note_off_c, 0, 43, 64
4, 126960, Note_on_c, 0, 55, 102
4, 127440, Note_off_c, 0, 55, 64
4, 127440, Note_on_c, 0, 53, 102
4, 127680, Note_off_c, 0, 53, 64
4, 127680, Note_on_c, 0, 52, 102
4, 127920, Note_off_c, 0, 52, 64
4, 127920, Note_on_c, 0, 50, 102
4, 128160, Note_off_c, 0, 50, 64
4, 128160, Note_on_c, 0, 48, 102
4, 128400, Note_off_c, 0, 48, 64
4, 128400, Note_on_c, 0, 52, 102
4, 128880, Note_off_c, 0, 52, 64
4, 128880, Note_on_c, 0, 50, 102
4, 129120, Note_off_c, 0, 50, 64
4, 129120, Note_on_c, 0, 48, 102
4, 129360, Note_off_c, 0, 48, 64
4, 129360, Note_on_c, 0, 47, 102
4, 129600, Note_off_c, 0, 47, 64
4, 129600, Note_on_c, 0, 45, 102
4, 129840, Note_off_c, 0, 45, 64
4, 129840, Note_on_c, 0, 57, 102
4, 130320, Note_off_c, 0, 57, 64
4, 130320, Note_on_c, 0, 55, 102
4, 130560, Note_off_c, 0, 55, 64
4, 130560, Note_on_c, 0, 54, 102
4, 130800, Note_off_c, 0, 54, 64
4, 130800, Note_on_c, 0, 52, 102
4, 131040, Note_off_c, 0, 52, 64
4, 131040, Note_on_c, 0, 51, 102
4, 131280, Note_off_c, 0, 51, 64
4, 131520, Note_on_c, 0, 52, 102
4, 131760, Note_off_c, 0, 52, 64
4, 132000, Note_on_c, 0, 48, 102
4, 132240, Note_off_c, 0, 48, 64
4, 132480, Note_on_c, 0, 47, 102
4, 132720, Note_off_c, 0, 47, 64
4, 132960, Note_on_c, 0, 48, 102
4, 133200, Note_off_c, 0, 48, 64
4, 133440, Note_on_c, 0, 49, 102
4, 133680, Note_off_c, 0, 49, 64
4, 133920, Note_on_c, 0, 50, 102
4, 134160, Note_off_c, 0, 50, 64
4, 134400, Note_on_c, 0, 51, 102
4, 134640, Note_off_c, 0, 51, 64
4, 134880, Note_on_c, 0, 47, 102
4, 135120, Note_off_c, 0, 47, 64
4, 135360, Note_on_c, 0, 52, 102
4, 135600, Note_off_c, 0, 52, 64
4, 135840, Note_on_c, 0, 40, 102
4, 136080, Note_off_c, 0, 40, 64
4, 136320, Note_on_c, 0, 43, 102
4, 136560, Note_off_c, 0, 43, 64
4, 136800, Note_on_c, 0, 47, 102
4, 137040, Note_off_c, 0, 47, 64
4, 137280, Note_on_c, 0, 43, 102
4, 137520, Note_off_c, 0, 43, 64
4, 137760, Note_on_c, 0, 47, 102
4, 138000, Note_off_c, 0, 47, 64
4, 138240, Note_on_c, 0, 48, 102
4, 138480, Note_off_c, 0, 48, 64
4, 138720, Note_on_c, 0, 53, 102
4, 138960, Note_off_c, 0, 53, 64
4, 139200, Note_on_c, 0, 54, 102
4, 139440, Note_off_c, 0, 54, 64
4, 139680, Note_on_c, 0, 55, 102
4, 139920, Note_off_c, 0, 55, 64
4, 140160, Note_on_c, 0, 56, 102
4, 140400, Note_off_c, 0, 56, 64
4, 140640, Note_on_c, 0, 52, 102
4, 140880, Note_off_c, 0, 52, 64
4, 141120, Note_on_c, 0, 57, 102
4, 141360, Note_off_c, 0, 57, 64
4, 141600, Note_on_c, 0, 45, 102
4, 141840, Note_off_c, 0, 45, 64
4, 142080, Note_on_c, 0, 57, 102
4, 143040, Note_off_c, 0, 57, 64
4, 143040, Note_on_c, 0, 56, 102
4, 143280, Note_off_c, 0, 56, 64
4, 143280, Note_on_c, 0, 52, 102
4, 143520, Note_off_c, 0, 52, 64
4, 143520, Note_on_c, 0, 54, 102
4, 143760, Note_off_c, 0, 54, 64
4, 143760, Note_on_c, 0, 56, 102
4, 144000, Note_off_c, 0, 56, 64
4, 144000, Note_on_c, 0, 57, 102
4, 144480, Note_off_c, 0, 57, 64
4, 144720, Note_on_c, 0, 47, 102
4, 144960, Note_off_c, 0, 47, 64
4, 144960, Note_on_c, 0, 48, 102
4, 145200, Note_off_c, 0, 48, 64
4, 145200, Note_on_c, 0, 45, 102
4, 145440, Note_off_c, 0, 45, 64
4, 145440, Note_on_c, 0, 53, 102
4, 145680, Note_off_c, 0, 53, 64
4, 145920, Note_on_c, 0, 41, 102
4, 146160, Note_off_c, 0, 41, 64
4, 146400, Note_on_c, 0, 45, 102
4, 146640, Note_off_c, 0, 45, 64
4, 146880, Note_on_c, 0, 47, 102
4, 147360, Note_off_c, 0, 47, 64
4, 147600, Note_on_c, 0, 45, 102
4, 147840, Note_off_c, 0, 45, 64
4, 147840, Note_on_c, 0, 47, 102
4, 148080, Note_off_c, 0, 47, 64
4, 148080, Note_on_c, 0, 43, 102
4, 148320, Note_off_c, 0, 43, 64
4, 148320, Note_on_c, 0, 52, 102
4, 148560, Note_off_c, 0, 52, 64
4, 148800, Note_on_c, 0, 53, 102
4, 149040, Note_off_c, 0, 53, 64
4, 149280, Note_on_c, 0, 47, 102
4, 149520, Note_off_c, 0, 47, 64
4, 149760, Note_on_c, 0, 48, 102
4, 150240, Note_off_c, 0, 48, 64
4, 151440, Note_on_c, 0, 60, 102
4, 151680, Note_off_c, 0, 60, 64
4, 151680, Note_on_c, 0, 48, 102
4, 151920, Note_off_c, 0, 48, 64
4, 151920, Note_on_c, 0, 60, 102
4, 152160, Note_off_c, 0, 60, 64
4, 152160, Note_on_c, 0, 48, 102
4, 152400, Note_off_c, 0, 48, 64
4, 152400, Note_on_c, 0, 60, 102
4, 152640, Note_off_c, 0, 60, 64
4, 152640, Note_on_c, 0, 48, 102
4, 153120, Note_off_c, 0, 48, 64
4, 154320, Note_on_c, 0, 48, 102
4, 154560, Note_off_c, 0, 48, 64
4, 154560, Note_on_c, 0, 36, 102
4, 154800, Note_off_c, 0, 36, 64
4, 154800, Note_on_c, 0, 48, 102
4, 155040, Note_off_c, 0, 48, 64
4, 155040, Note_on_c, 0, 36, 102
4, 155280, Note_off_c, 0, 36, 64
4, 155280, Note_on_c, 0, 48, 102
4, 155520, Note_off_c, 0, 48, 64
4, 155520, Note_on_c, 0, 36, 102
4, 156000, Note_off_c, 0, 36, 64
4, 156000, Note_on_c, 0, 48, 102
4, 156480, Note_off_c, 0, 48, 64
4, 156720, Note_on_c, 0, 36, 102
4, 156960, Note_off_c, 0, 36, 64
4, 156960, Note_on_c, 0, 38, 102
4, 157440, Note_off_c, 0, 38, 64
4, 157440, Note_on_c, 0, 50, 102
4, 157920, Note_off_c, 0, 50, 64
4, 158160, Note_on_c, 0, 38, 102
4, 158400, Note_off_c, 0, 38, 64
4, 158400, Note_on_c, 0, 40, 102
4, 158880, Note_off_c, 0, 40, 64
4, 158880, Note_on_c, 0, 52, 102
4, 159360, Note_off_c, 0, 52, 64
4, 159600, Note_on_c, 0, 40, 102
4, 159840, Note_off_c, 0, 40, 64
4, 159840, Note_on_c, 0, 41, 102
4, 160320, Note_off_c, 0, 41, 64
4, 160320, Note_on_c, 0, 53, 102
4, 160800, Note_off_c, 0, 53, 64
4, 161040, Note_on_c, 0, 50, 102
4, 161280, Note_off_c, 0, 50, 64
4, 161280, Note_on_c, 0, 55, 102
4, 161760, Note_off_c, 0, 55, 64
4, 161760, Note_on_c, 0, 43, 102
4, 165840, Note_off_c, 0, 43, 64
4, 165840, Note_on_c, 0, 48, 102
4, 166080, Note_off_c, 0, 48, 64
4, 166080, Note_on_c, 0, 52, 102
4, 166320, Note_off_c, 0, 52, 64
4, 166320, Note_on_c, 0, 54, 102
4, 166560, Note_off_c, 0, 54, 64
4, 166560, Note_on_c, 0, 55, 102
4, 166800, Note_off_c, 0, 55, 64
4, 166800, Note_on_c, 0, 47, 102
4, 167040, Note_off_c, 0, 47, 64
4, 167040, Note_on_c, 0, 48, 102
4, 167280, Note_off_c, 0, 48, 64
4, 167280, Note_on_c, 0, 52, 102
4, 167520, Note_off_c, 0, 52, 64
4, 167520, Note_on_c, 0, 54, 102
4, 167760, Note_off_c, 0, 54, 64
4, 167760, Note_on_c, 0, 55, 102
4, 168000, Note_off_c, 0, 55, 64
4, 168000, Note_on_c, 0, 57, 102
4, 168240, Note_off_c, 0, 57, 64
4, 168240, Note_on_c, 0, 48, 102
4, 168480, Note_off_c, 0, 48, 64
4, 168480, Note_on_c, 0, 50, 102
4, 168720, Note_off_c, 0, 50, 64
4, 168720, Note_on_c, 0, 54, 102
4, 168960, Note_off_c, 0, 54, 64
4, 168960, Note_on_c, 0, 55, 102
4, 169200, Note_off_c, 0, 55, 64
4, 169200, Note_on_c, 0, 57, 102
4, 169440, Note_off_c, 0, 57, 64
4, 169440, Note_on_c, 0, 59, 102
4, 169680, Note_off_c, 0, 59, 64
4, 169680, Note_on_c, 0, 50, 102
4, 169920, Note_off_c, 0, 50, 64
4, 169920, Note_on_c, 0, 52, 102
4, 170160, Note_off_c, 0, 52, 64
4, 170160, Note_on_c, 0, 55, 102
4, 170400, Note_off_c, 0, 55, 64
4, 170400, Note_on_c, 0, 57, 102
4, 170640, Note_off_c, 0, 57, 64
4, 170640, Note_on_c, 0, 59, 102
4, 170880, Note_off_c, 0, 59, 64
4, 170880, Note_on_c, 0, 60, 102
4, 171120, Note_off_c, 0, 60, 64
4, 171120, Note_on_c, 0, 52, 102
4, 171360, Note_off_c, 0, 52, 64
4, 171360, Note_on_c, 0, 54, 102
4, 171600, Note_off_c, 0, 54, 64
4, 171600, Note_on_c, 0, 50, 102
4, 171840, Note_off_c, 0, 50, 64
4, 171840, Note_on_c, 0, 55, 102
4, 172080, Note_off_c, 0, 55, 64
4, 172080, Note_on_c, 0, 48, 102
4, 172320, Note_off_c, 0, 48, 64
4, 172320, Note_on_c, 0, 50, 102
4, 172560, Note_off_c, 0, 50, 64
4, 172560, Note_on_c, 0, 38, 102
4, 172800, Note_off_c, 0, 38, 64
4, 172800, Note_on_c, 0, 43, 102
4, 173280, Note_off_c, 0, 43, 64
4, 174480, Note_on_c, 0, 55, 102
4, 174720, Note_off_c, 0, 55, 64
4, 174720, Note_on_c, 0, 43, 102
4, 174960, Note_off_c, 0, 43, 64
4, 174960, Note_on_c, 0, 55, 102
4, 175200, Note_off_c, 0, 55, 64
4, 175200, Note_on_c, 0, 43, 102
4, 175440, Note_off_c, 0, 43, 64
4, 175440, Note_on_c, 0, 55, 102
4, 175680, Note_off_c, 0, 55, 64
4, 175680, Note_on_c, 0, 43, 102
4, 176160, Note_off_c, 0, 43, 64
4, 177360, Note_on_c, 0, 55, 102
4, 177600, Note_off_c, 0, 55, 64
4, 177600, Note_on_c, 0, 43, 102
4, 177840, Note_off_c, 0, 43, 64
4, 177840, Note_on_c, 0, 55, 102
4, 178080, Note_off_c, 0, 55, 64
4, 178080, Note_on_c, 0, 43, 102
4, 178320, Note_off_c, 0, 43, 64
4, 178320, Note_on_c, 0, 55, 102
4, 178560, Note_off_c, 0, 55, 64
4, 178560, Note_on_c, 0, 43, 102
4, 179040, Note_off_c, 0, 43, 64
4, 179040, Note_on_c, 0, 55, 102
4, 179520, Note_off_c, 0, 55, 64
4, 179760, Note_on_c, 0, 43, 102
4, 180000, Note_off_c, 0, 43, 64
4, 180000, Note_on_c, 0, 45, 102
4, 180480, Note_off_c, 0, 45, 64
4, 180480, Note_on_c, 0, 57, 102
4, 180960, Note_off_c, 0, 57, 64
4, 181200, Note_on_c, 0, 45, 102
4, 181440, Note_off_c, 0, 45, 64
4, 181440, Note_on_c, 0, 47, 102
4, 181920, Note_off_c, 0, 47, 64
4, 181920, Note_on_c, 0, 59, 102
4, 182400, Note_off_c, 0, 59, 64
4, 182640, Note_on_c, 0, 47, 102
4, 182880, Note_off_c, 0, 47, 64
4, 182880, Note_on_c, 0, 48, 102
4, 183360, Note_off_c, 0, 48, 64
4, 183360, Note_on_c, 0, 60, 102
4, 183840, Note_off_c, 0, 60, 64
4, 184080, Note_on_c, 0, 57, 102
4, 184320, Note_off_c, 0, 57, 64
4, 184320, Note_on_c, 0, 62, 102
4, 184800, Note_off_c, 0, 62, 64
4, 184800, Note_on_c, 0, 50, 102
4, 188880, Note_off_c, 0, 50, 64
4, 188880, Note_on_c, 0, 54, 102
4, 189120, Note_off_c, 0, 54, 64
4, 189120, Note_on_c, 0, 55, 102
4, 189360, Note_off_c, 0, 55, 64
4, 189360, Note_on_c, 0, 57, 102
4, 189600, Note_off_c, 0, 57, 64
4, 189600, Note_on_c, 0, 59, 102
4, 189840, Note_off_c, 0, 59, 64
4, 189840, Note_on_c, 0, 50, 102
4, 190080, Note_off_c, 0, 50, 64
4, 190080, Note_on_c, 0, 52, 102
4, 190320, Note_off_c, 0, 52, 64
4, 190320, Note_on_c, 0, 55, 102
4, 190560, Note_off_c, 0, 55, 64
4, 190560, Note_on_c, 0, 57, 102
4, 190800, Note_off_c, 0, 57, 64
4, 190800, Note_on_c, 0, 59, 102
4, 191040, Note_off_c, 0, 59, 64
4, 191040, Note_on_c, 0, 60, 102
4, 191280, Note_off_c, 0, 60, 64
4, 191280, Note_on_c, 0, 54, 102
4, 191520, Note_off_c, 0, 54, 64
4, 191520, Note_on_c, 0, 55, 102
4, 191760, Note_off_c, 0, 55, 64
4, 191760, Note_on_c, 0, 47, 102
4, 192000, Note_off_c, 0, 47, 64
4, 192000, Note_on_c, 0, 48, 102
4, 192240, Note_off_c, 0, 48, 64
4, 192240, Note_on_c, 0, 50, 102
4, 192480, Note_off_c, 0, 50, 64
4, 192480, Note_on_c, 0, 52, 102
4, 192720, Note_off_c, 0, 52, 64
4, 192720, Note_on_c, 0, 43, 102
4, 192960, Note_off_c, 0, 43, 64
4, 192960, Note_on_c, 0, 45, 102
4, 193200, Note_off_c, 0, 45, 64
4, 193200, Note_on_c, 0, 48, 102
4, 193440, Note_off_c, 0, 48, 64
4, 193440, Note_on_c, 0, 50, 102
4, 193680, Note_off_c, 0, 50, 64
4, 193680, Note_on_c, 0, 52, 102
4, 193920, Note_off_c, 0, 52, 64
4, 193920, Note_on_c, 0, 53, 102
4, 194160, Note_off_c, 0, 53, 64
4, 194160, Note_on_c, 0, 47, 102
4, 194400, Note_off_c, 0, 47, 64
4, 194400, Note_on_c, 0, 48, 102
4, 194640, Note_off_c, 0, 48, 64
4, 194640, Note_on_c, 0, 48, 102
4, 194880, Note_off_c, 0, 48, 64
4, 194880, Note_on_c, 0, 36, 102
4, 195120, Note_off_c, 0, 36, 64
4, 195120, Note_on_c, 0, 48, 102
4, 195360, Note_off_c, 0, 48, 64
4, 195360, Note_on_c, 0, 36, 102
4, 195600, Note_off_c, 0, 36, 64
4, 195600, Note_on_c, 0, 48, 102
4, 195840, Note_off_c, 0, 48, 64
4, 195840, Note_on_c, 0, 38, 102
4, 196080, Note_off_c, 0, 38, 64
4, 196080, Note_on_c, 0, 50, 102
4, 196320, Note_off_c, 0, 50, 64
4, 196320, Note_on_c, 0, 38, 102
4, 196560, Note_off_c, 0, 38, 64
4, 196560, Note_on_c, 0, 50, 102
4, 196800, Note_off_c, 0, 50, 64
4, 196800, Note_on_c, 0, 38, 102
4, 197040, Note_off_c, 0, 38, 64
4, 197040, Note_on_c, 0, 50, 102
4, 197280, Note_off_c, 0, 50, 64
4, 197280, Note_on_c, 0, 40, 102
4, 197520, Note_off_c, 0, 40, 64
4, 197520, Note_on_c, 0, 52, 102
4, 197760, Note_off_c, 0, 52, 64
4, 197760, Note_on_c, 0, 40, 102
4, 198000, Note_off_c, 0, 40, 64
4, 198000, Note_on_c, 0, 52, 102
4, 198240, Note_off_c, 0, 52, 64
4, 198240, Note_on_c, 0, 40, 102
4, 198480, Note_off_c, 0, 40, 64
4, 198480, Note_on_c, 0, 52, 102
4, 198720, Note_off_c, 0, 52, 64
4, 198720, Note_on_c, 0, 41, 102
4, 204720, Note_off_c, 0, 41, 64
4, 204720, Note_on_c, 0, 53, 102
4, 204960, Note_off_c, 0, 53, 64
4, 204960, Note_on_c, 0, 50, 102
4, 205200, Note_off_c, 0, 50, 64
4, 205200, Note_on_c, 0, 53, 102
4, 205440, Note_off_c, 0, 53, 64
4, 205440, Note_on_c, 0, 47, 102
4, 205680, Note_off_c, 0, 47, 64
4, 205680, Note_on_c, 0, 50, 102
4, 205920, Note_off_c, 0, 50, 64
4, 205920, Note_on_c, 0, 40, 102
4, 206160, Note_off_c, 0, 40, 64
4, 206160, Note_on_c, 0, 52, 102
4, 206400, Note_off_c, 0, 52, 64
4, 206400, Note_on_c, 0, 48, 102
4, 206640, Note_off_c, 0, 48, 64
4, 206640, Note_on_c, 0, 52, 102
4, 206880, Note_off_c, 0, 52, 64
4, 206880, Note_on_c, 0, 45, 102
4, 207120, Note_off_c, 0, 45, 64
4, 207120, Note_on_c, 0, 48, 102
4, 207360, Note_off_c, 0, 48, 64
4, 207360, Note_on_c, 0, 38, 102
4, 207600, Note_off_c, 0, 38, 64
4, 207600, Note_on_c, 0, 50, 102
4, 207840, Note_off_c, 0, 50, 64
4, 207840, Note_on_c, 0, 47, 102
4, 208080, Note_off_c, 0, 47, 64
4, 208080, Note_on_c, 0, 50, 102
4, 208320, Note_off_c, 0, 50, 64
4, 208320, Note_on_c, 0, 43, 102
4, 208560, Note_off_c, 0, 43, 64
4, 208560, Note_on_c, 0, 47, 102
4, 208800, Note_off_c, 0, 47, 64
4, 208800, Note_on_c, 0, 36, 102
4, 214800, Note_off_c, 0, 36, 64
4, 214800, Note_on_c, 0, 43, 102
4, 215040, Note_off_c, 0, 43, 64
4, 215040, Note_on_c, 0, 45, 102
4, 215280, Note_off_c, 0, 45, 64
4, 215280, Note_on_c, 0, 47, 102
4, 215520, Note_off_c, 0, 47, 64
4, 215520, Note_on_c, 0, 48, 102
4, 215760, Note_off_c, 0, 48, 64
4, 215760, Note_on_c, 0, 40, 102
4, 216000, Note_off_c, 0, 40, 64
4, 216000, Note_on_c, 0, 41, 102
4, 216240, Note_off_c, 0, 41, 64
4, 216240, Note_on_c, 0, 45, 102
4, 216480, Note_off_c, 0, 45, 64
4, 216480, Note_on_c, 0, 47, 102
4, 216720, Note_off_c, 0, 47, 64
4, 216720, Note_on_c, 0, 48, 102
4, 216960, Note_off_c, 0, 48, 64
4, 216960, Note_on_c, 0, 50, 102
4, 217200, Note_off_c, 0, 50, 64
4, 217200, Note_on_c, 0, 41, 102
4, 217440, Note_off_c, 0, 41, 64
4, 217440, Note_on_c, 0, 43, 102
4, 217680, Note_off_c, 0, 43, 64
4, 217680, Note_on_c, 0, 47, 102
4, 217920, Note_off_c, 0, 47, 64
4, 217920, Note_on_c, 0, 48, 102
4, 218160, Note_off_c, 0, 48, 64
4, 218160, Note_on_c, 0, 50, 102
4, 218400, Note_off_c, 0, 50, 64
4, 218400, Note_on_c, 0, 52, 102
4, 218640, Note_off_c, 0, 52, 64
4, 218640, Note_on_c, 0, 43, 102
4, 218880, Note_off_c, 0, 43, 64
4, 218880, Note_on_c, 0, 45, 102
4, 219120, Note_off_c, 0, 45, 64
4, 219120, Note_on_c, 0, 48, 102
4, 219360, Note_off_c, 0, 48, 64
4, 219360, Note_on_c, 0, 50, 102
4, 219600, Note_off_c, 0, 50, 64
4, 219600, Note_on_c, 0, 52, 102
4, 219840, Note_off_c, 0, 52, 64
4, 219840, Note_on_c, 0, 53, 102
4, 220080, Note_off_c, 0, 53, 64
4, 220080, Note_on_c, 0, 45, 102
4, 220320, Note_off_c, 0, 45, 64
4, 220320, Note_on_c, 0, 47, 102
4, 220560, Note_off_c, 0, 47, 64
4, 220560, Note_on_c, 0, 43, 102
4, 220800, Note_off_c, 0, 43, 64
4, 220800, Note_on_c, 0, 48, 102
4, 221040, Note_off_c, 0, 48, 64
4, 221040, Note_on_c, 0, 53, 102
4, 221280, Note_off_c, 0, 53, 64
4, 221280, Note_on_c, 0, 55, 102
4, 221520, Note_off_c, 0, 55, 64
4, 221520, Note_on_c, 0, 43, 102
4, 221760, Note_off_c, 0, 43, 64
4, 221760, Note_on_c, 0, 48, 102
4, 222240, Note_off_c, 0, 48, 64
4, 224642, Note_on_c, 0, 45, 102
4, 225122, Note_on_c, 0, 57, 102
4, 225125, Note_off_c, 0, 45, 64
4, 225362, Note_on_c, 0, 59, 102
4, 225365, Note_off_c, 0, 57, 64
4, 225842, Note_on_c, 0, 47, 102
4, 225845, Note_off_c, 0, 59, 64
4, 226082, Note_on_c, 0, 48, 102
4, 226085, Note_off_c, 0, 47, 64
4, 226562, Note_on_c, 0, 50, 102
4, 226565, Note_off_c, 0, 48, 64
4, 226802, Note_on_c, 0, 52, 102
4, 226805, Note_off_c, 0, 50, 64
4, 227042, Note_on_c, 0, 50, 102
4, 227045, Note_off_c, 0, 52, 64
4, 227282, Note_on_c, 0, 49, 102
4, 227285, Note_off_c, 0, 50, 64
4, 227522, Note_on_c, 0, 50, 102
4, 227525, Note_off_c, 0, 49, 64
4, 227762, Note_on_c, 0, 48, 102
4, 227765, Note_off_c, 0, 50, 64
4, 228002, Note_on_c, 0, 47, 102
4, 228005, Note_off_c, 0, 48, 64
4, 228242, Note_on_c, 0, 48, 102
4, 228245, Note_off_c, 0, 47, 64
4, 228482, Note_on_c, 0, 50, 102
4, 228485, Note_off_c, 0, 48, 64
4, 228722, Note_on_c, 0, 52, 102
4, 228725, Note_off_c, 0, 50, 64
4, 228962, Note_on_c, 0, 45, 102
4, 228965, Note_off_c, 0, 52, 64
4, 229202, Note_on_c, 0, 57, 102
4, 229205, Note_off_c, 0, 45, 64
4, 229442, Note_on_c, 0, 55, 102
4, 229445, Note_off_c, 0, 57, 64
4, 229682, Note_on_c, 0, 54, 102
4, 229685, Note_off_c, 0, 55, 64
4, 229922, Note_on_c, 0, 59, 102
4, 229925, Note_off_c, 0, 54, 64
4, 230162, Note_on_c, 0, 47, 102
4, 230165, Note_off_c, 0, 59, 64
4, 230402, Note_on_c, 0, 52, 102
4, 230405, Note_off_c, 0, 47, 64
4, 230882, Note_on_c, 0, 40, 102
4, 230885, Note_off_c, 0, 52, 64
4, 231122, Note_on_c, 0, 42, 102
4, 231125, Note_off_c, 0, 40, 64
4, 231602, Note_on_c, 0, 54, 102
4, 231605, Note_off_c, 0, 42, 64
4, 231842, Note_on_c, 0, 55, 102
4, 231845, Note_off_c, 0, 54, 64
4, 232322, Note_on_c, 0, 57, 102
4, 232325, Note_off_c, 0, 55, 64
4, 232562, Note_on_c, 0, 59, 102
4, 232565, Note_off_c, 0, 57, 64
4, 232802, Note_on_c, 0, 57, 102
4, 232805, Note_off_c, 0, 59, 64
4, 233042, Note_on_c, 0, 56, 102
4, 233045, Note_off_c, 0, 57, 64
4, 233282, Note_on_c, 0, 57, 102
4, 233285, Note_off_c, 0, 56, 64
4, 233522, Note_on_c, 0, 55, 102
4, 233525, Note_off_c, 0, 57, 64
4, 233762, Note_on_c, 0, 54, 102
4, 233765, Note_off_c, 0, 55, 64
4, 234002, Note_on_c, 0, 55, 102
4, 234005, Note_off_c, 0, 54, 64
4, 234242, Note_on_c, 0, 57, 102
4, 234245, Note_off_c, 0, 55, 64
4, 234482, Note_on_c, 0, 59, 102
4, 234485, Note_off_c, 0, 57, 64
4, 234722, Note_on_c, 0, 52, 102
4, 234725, Note_off_c, 0, 59, 64
4, 234962, Note_on_c, 0, 55, 102
4, 234965, Note_off_c, 0, 52, 64
4, 235202, Note_on_c, 0, 57, 102
4, 235205, Note_off_c, 0, 55, 64
4, 235442, Note_on_c, 0, 50, 102
4, 235445, Note_off_c, 0, 57, 64
4, 235682, Note_on_c, 0, 53, 102
4, 235685, Note_off_c, 0, 50, 64
4, 235922, Note_on_c, 0, 55, 102
4, 235925, Note_off_c, 0, 53, 64
4, 236162, Note_on_c, 0, 48, 102
4, 236165, Note_off_c, 0, 55, 64
4, 236402, Note_on_c, 0, 47, 102
4, 236405, Note_off_c, 0, 48, 64
4, 236642, Note_on_c, 0, 45, 102
4, 236645, Note_off_c, 0, 47, 64
4, 236882, Note_on_c, 0, 47, 102
4, 236885, Note_off_c, 0, 45, 64
4, 237122, Note_on_c, 0, 52, 102
4, 237125, Note_off_c, 0, 47, 64
4, 237362, Note_on_c, 0, 40, 102
4, 237365, Note_off_c, 0, 52, 64
4, 237602, Note_on_c, 0, 45, 102
4, 237605, Note_off_c, 0, 40, 64
4, 237842, Note_on_c, 0, 47, 102
4, 237845, Note_off_c, 0, 45, 64
4, 238082, Note_on_c, 0, 49, 102
4, 238085, Note_off_c, 0, 47, 64
4, 238322, Note_on_c, 0, 50, 102
4, 238325, Note_off_c, 0, 49, 64
4, 238805, Note_off_c, 0, 50, 64
4, 239042, Note_on_c, 0, 38, 102
4, 239285, Note_off_c, 0, 38, 64
4, 239522, Note_on_c, 0, 50, 102
4, 240002, Note_on_c, 0, 48, 102
4, 240005, Note_off_c, 0, 50, 64
4, 240242, Note_on_c, 0, 44, 102
4, 240245, Note_off_c, 0, 48, 64
4, 240482, Note_on_c, 0, 45, 102
4, 240485, Note_off_c, 0, 44, 64
4, 240722, Note_on_c, 0, 43, 102
4, 240725, Note_off_c, 0, 45, 64
4, 240962, Note_on_c, 0, 41, 102
4, 240965, Note_off_c, 0, 43, 64
4, 241202, Note_on_c, 0, 48, 102
4, 241205, Note_off_c, 0, 41, 64
4, 241322, Note_on_c, 0, 50, 102
4, 241325, Note_off_c, 0, 48, 64
4, 241442, Note_on_c, 0, 52, 102
4, 241445, Note_off_c, 0, 50, 64
4, 241682, Note_on_c, 0, 40, 102
4, 241685, Note_off_c, 0, 52, 64
4, 241922, Note_on_c, 0, 45, 102
4, 241925, Note_off_c, 0, 40, 64
4, 242405, Note_off_c, 0, 45, 64
4, 243362, Note_on_c, 0, 45, 102
4, 243605, Note_off_c, 0, 45, 64
4, 244802, Note_on_c, 0, 45, 102
4, 245042, Note_on_c, 0, 47, 102
4, 245045, Note_off_c, 0, 45, 64
4, 245282, Note_on_c, 0, 48, 102
4, 245285, Note_off_c, 0, 47, 64
4, 245522, Note_on_c, 0, 50, 102
4, 245525, Note_off_c, 0, 48, 64
4, 245762, Note_on_c, 0, 38, 102
4, 245765, Note_off_c, 0, 50, 64
4, 246005, Note_off_c, 0, 38, 64
4, 246242, Note_on_c, 0, 43, 102
4, 246482, Note_on_c, 0, 45, 102
4, 246485, Note_off_c, 0, 43, 64
4, 246722, Note_on_c, 0, 47, 102
4, 246725, Note_off_c, 0, 45, 64
4, 246962, Note_on_c, 0, 48, 102
4, 246965, Note_off_c, 0, 47, 64
4, 247202, Note_on_c, 0, 36, 102
4, 247205, Note_off_c, 0, 48, 64
4, 247445, Note_off_c, 0, 36, 64
4, 247682, Note_on_c, 0, 41, 102
4, 247925, Note_off_c, 0, 41, 64
4, 248162, Note_on_c, 0, 42, 102
4, 248402, Note_on_c, 0, 43, 102
4, 248405, Note_off_c, 0, 42, 64
4, 248645, Note_off_c, 0, 43, 64
4, 248882, Note_on_c, 0, 44, 102
4, 249122, Note_on_c, 0, 45, 102
4, 249125, Note_off_c, 0, 44, 64
4, 249365, Note_off_c, 0, 45, 64
4, 249602, Note_on_c, 0, 57, 102
4, 249842, Note_on_c, 0, 59, 102
4, 249845, Note_off_c, 0, 57, 64
4, 250085, Note_off_c, 0, 59, 64
4, 250322, Note_on_c, 0, 47, 102
4, 250562, Note_on_c, 0, 48, 102
4, 250565, Note_off_c, 0, 47, 64
4, 250805, Note_off_c, 0, 48, 64
4, 252002, Note_on_c, 0, 36, 102
4, 252485, Note_off_c, 0, 36, 64
4, 253442, Note_on_c, 0, 48, 102
4, 253922, Note_on_c, 0, 36, 102
4, 253925, Note_off_c, 0, 48, 64
4, 254162, Note_on_c, 0, 38, 102
4, 254165, Note_off_c, 0, 36, 64
4, 254642, Note_on_c, 0, 50, 102
4, 254645, Note_off_c, 0, 38, 64
4, 254882, Note_on_c, 0, 52, 102
4, 254885, Note_off_c, 0, 50, 64
4, 255362, Note_on_c, 0, 53, 102
4, 255365, Note_off_c, 0, 52, 64
4, 255602, Note_on_c, 0, 55, 102
4, 255605, Note_off_c, 0, 53, 64
4, 255842, Note_on_c, 0, 53, 102
4, 255845, Note_off_c, 0, 55, 64
4, 256082, Note_on_c, 0, 52, 102
4, 256085, Note_off_c, 0, 53, 64
4, 256322, Note_on_c, 0, 53, 102
4, 256325, Note_off_c, 0, 52, 64
4, 256562, Note_on_c, 0, 52, 102
4, 256565, Note_off_c, 0, 53, 64
4, 256802, Note_on_c, 0, 50, 102
4, 256805, Note_off_c, 0, 52, 64
4, 257042, Note_on_c, 0, 52, 102
4, 257045, Note_off_c, 0, 50, 64
4, 257282, Note_on_c, 0, 53, 102
4, 257285, Note_off_c, 0, 52, 64
4, 257522, Note_on_c, 0, 55, 102
4, 257525, Note_off_c, 0, 53, 64
4, 257762, Note_on_c, 0, 48, 102
4, 257765, Note_off_c, 0, 55, 64
4, 258002, Note_on_c, 0, 60, 102
4, 258005, Note_off_c, 0, 48, 64
4, 258242, Note_on_c, 0, 58, 102
4, 258245, Note_off_c, 0, 60, 64
4, 258482, Note_on_c, 0, 57, 102
4, 258485, Note_off_c, 0, 58, 64
4, 258722, Note_on_c, 0, 62, 102
4, 258725, Note_off_c, 0, 57, 64
4, 258962, Note_on_c, 0, 50, 102
4, 258965, Note_off_c, 0, 62, 64
4, 259202, Note_on_c, 0, 55, 102
4, 259205, Note_off_c, 0, 50, 64
4, 259682, Note_on_c, 0, 43, 102
4, 259685, Note_off_c, 0, 55, 64
4, 259922, Note_on_c, 0, 45, 102
4, 259925, Note_off_c, 0, 43, 64
4, 260402, Note_on_c, 0, 57, 102
4, 260405, Note_off_c, 0, 45, 64
4, 260642, Note_on_c, 0, 59, 102
4, 260645, Note_off_c, 0, 57, 64
4, 260882, Note_on_c, 0, 47, 102
4, 260885, Note_off_c, 0, 59, 64
4, 261122, Note_on_c, 0, 48, 102
4, 261125, Note_off_c, 0, 47, 64
4, 261362, Note_on_c, 0, 50, 102
4, 261365, Note_off_c, 0, 48, 64
4, 261602, Note_on_c, 0, 48, 102
4, 261605, Note_off_c, 0, 50, 64
4, 261842, Note_on_c, 0, 47, 102
4, 261845, Note_off_c, 0, 48, 64
4, 262082, Note_on_c, 0, 48, 102
4, 262085, Note_off_c, 0, 47, 64
4, 262322, Note_on_c, 0, 47, 102
4, 262325, Note_off_c, 0, 48, 64
4, 262562, Note_on_c, 0, 45, 102
4, 262565, Note_off_c, 0, 47, 64
4, 262802, Note_on_c, 0, 47, 102
4, 262805, Note_off_c, 0, 45, 64
4, 263042, Note_on_c, 0, 48, 102
4, 263045, Note_off_c, 0, 47, 64
4, 263282, Note_on_c, 0, 50, 102
4, 263285, Note_off_c, 0, 48, 64
4, 263522, Note_on_c, 0, 43, 102
4, 263525, Note_off_c, 0, 50, 64
4, 263762, Note_on_c, 0, 55, 102
4, 263765, Note_off_c, 0, 43, 64
4, 264002, Note_on_c, 0, 53, 102
4, 264005, Note_off_c, 0, 55, 64
4, 264242, Note_on_c, 0, 52, 102
4, 264245, Note_off_c, 0, 53, 64
4, 264482, Note_on_c, 0, 57, 102
4, 264485, Note_off_c, 0, 52, 64
4, 264722, Note_on_c, 0, 45, 102
4, 264725, Note_off_c, 0, 57, 64
4, 264962, Note_on_c, 0, 50, 102
4, 264965, Note_off_c, 0, 45, 64
4, 265202, Note_on_c, 0, 52, 102
4, 265205, Note_off_c, 0, 50, 64
4, 265442, Note_on_c, 0, 53, 102
4, 265445, Note_off_c, 0, 52, 64
4, 265682, Note_on_c, 0, 55, 102
4, 265685, Note_off_c, 0, 53, 64
4, 265922, Note_on_c, 0, 43, 102
4, 265925, Note_off_c, 0, 55, 64
4, 266165, Note_off_c, 0, 43, 64
4, 266402, Note_on_c, 0, 48, 102
4, 266642, Note_on_c, 0, 50, 102
4, 266645, Note_off_c, 0, 48, 64
4, 266882, Note_on_c, 0, 52, 102
4, 266885, Note_off_c, 0, 50, 64
4, 267122, Note_on_c, 0, 53, 102
4, 267125, Note_off_c, 0, 52, 64
4, 267362, Note_on_c, 0, 41, 102
4, 267365, Note_off_c, 0, 53, 64
4, 267605, Note_off_c, 0, 41, 64
4, 267842, Note_on_c, 0, 46, 102
4, 268085, Note_off_c, 0, 46, 64
4, 268322, Note_on_c, 0, 47, 102
4, 268562, Note_on_c, 0, 48, 102
4, 268565, Note_off_c, 0, 47, 64
4, 268805, Note_off_c, 0, 48, 64
4, 269042, Note_on_c, 0, 49, 102
4, 269282, Note_on_c, 0, 50, 102
4, 269285, Note_off_c, 0, 49, 64
4, 269525, Note_off_c, 0, 50, 64
4, 269762, Note_on_c, 0, 48, 102
4, 270002, Note_on_c, 0, 46, 102
4, 270005, Note_off_c, 0, 48, 64
4, 270245, Note_off_c, 0, 46, 64
4, 270482, Note_on_c, 0, 58, 102
4, 270722, Note_on_c, 0, 57, 102
4, 270725, Note_off_c, 0, 58, 64
4, 271205, Note_off_c, 0, 57, 64
4, 272162, Note_on_c, 0, 45, 102
4, 272645, Note_off_c, 0, 45, 64
4, 273602, Note_on_c, 0, 57, 102
4, 273842, Note_on_c, 0, 55, 102
4, 273845, Note_off_c, 0, 57, 64
4, 274082, Note_on_c, 0, 53, 102
4, 274085, Note_off_c, 0, 55, 64
4, 274322, Note_on_c, 0, 52, 102
4, 274325, Note_off_c, 0, 53, 64
4, 274562, Note_on_c, 0, 57, 102
4, 274565, Note_off_c, 0, 52, 64
4, 274802, Note_on_c, 0, 45, 102
4, 274805, Note_off_c, 0, 57, 64
4, 275042, Note_on_c, 0, 50, 102
4, 275045, Note_off_c, 0, 45, 64
4, 275282, Note_on_c, 0, 52, 102
4, 275285, Note_off_c, 0, 50, 64
4, 275522, Note_on_c, 0, 54, 102
4, 275525, Note_off_c, 0, 52, 64
4, 275762, Note_on_c, 0, 55, 102
4, 275765, Note_off_c, 0, 54, 64
4, 276245, Note_off_c, 0, 55, 64
4, 276482, Note_on_c, 0, 43, 102
4, 276725, Note_off_c, 0, 43, 64
4, 276962, Note_on_c, 0, 55, 102
4, 277442, Note_on_c, 0, 53, 102
4, 277445, Note_off_c, 0, 55, 64
4, 277682, Note_on_c, 0, 49, 102
4, 277685, Note_off_c, 0, 53, 64
4, 277922, Note_on_c, 0, 50, 102
4, 277925, Note_off_c, 0, 49, 64
4, 278162, Note_on_c, 0, 48, 102
4, 278165, Note_off_c, 0, 50, 64
4, 278402, Note_on_c, 0, 46, 102
4, 278405, Note_off_c, 0, 48, 64
4, 278642, Note_on_c, 0, 41, 102
4, 278645, Note_off_c, 0, 46, 64
4, 278762, Note_on_c, 0, 43, 102
4, 278765, Note_off_c, 0, 41, 64
4, 278882, Note_on_c, 0, 45, 102
4, 278885, Note_off_c, 0, 43, 64
4, 279362, Note_on_c, 0, 38, 102
4, 279365, Note_off_c, 0, 45, 64
4, 279602, Note_on_c, 0, 50, 102
4, 279605, Note_off_c, 0, 38, 64
4, 280322, Note_on_c, 0, 48, 102
4, 280325, Note_off_c, 0, 50, 64
4, 281042, Note_on_c, 0, 47, 102
4, 281045, Note_off_c, 0, 48, 64
4, 281282, Note_on_c, 0, 45, 102
4, 281285, Note_off_c, 0, 47, 64
4, 281522, Note_on_c, 0, 44, 102
4, 281525, Note_off_c, 0, 45, 64
4, 281762, Note_on_c, 0, 40, 102
4, 281765, Note_off_c, 0, 44, 64
4, 282002, Note_on_c, 0, 44, 102
4, 282005, Note_off_c, 0, 40, 64
4, 282242, Note_on_c, 0, 45, 102
4, 282245, Note_off_c, 0, 44, 64
4, 282722, Note_on_c, 0, 57, 102
4, 282725, Note_off_c, 0, 45, 64
4, 282962, Note_on_c, 0, 59, 102
4, 282965, Note_off_c, 0, 57, 64
4, 283442, Note_on_c, 0, 47, 102
4, 283445, Note_off_c, 0, 59, 64
4, 283682, Note_on_c, 0, 48, 102
4, 283685, Note_off_c, 0, 47, 64
4, 284162, Note_on_c, 0, 50, 102
4, 284165, Note_off_c, 0, 48, 64
4, 284402, Note_on_c, 0, 52, 102
4, 284405, Note_off_c, 0, 50, 64
4, 284642, Note_on_c, 0, 50, 102
4, 284645, Note_off_c, 0, 52, 64
4, 284882, Note_on_c, 0, 49, 102
4, 284885, Note_off_c, 0, 50, 64
4, 285122, Note_on_c, 0, 50, 102
4, 285125, Note_off_c, 0, 49, 64
4, 285362, Note_on_c, 0, 48, 102
4, 285365, Note_off_c, 0, 50, 64
4, 285602, Note_on_c, 0, 47, 102
4, 285605, Note_off_c, 0, 48, 64
4, 285842, Note_on_c, 0, 48, 102
4, 285845, Note_off_c, 0, 47, 64
4, 286082, Note_on_c, 0, 50, 102
4, 286085, Note_off_c, 0, 48, 64
4, 286322, Note_on_c, 0, 52, 102
4, 286325, Note_off_c, 0, 50, 64
4, 286562, Note_on_c, 0, 45, 102
4, 286565, Note_off_c, 0, 52, 64
4, 286802, Note_on_c, 0, 57, 102
4, 286805, Note_off_c, 0, 45, 64
4, 287042, Note_on_c, 0, 55, 102
4, 287045, Note_off_c, 0, 57, 64
4, 287282, Note_on_c, 0, 54, 102
4, 287285, Note_off_c, 0, 55, 64
4, 287522, Note_on_c, 0, 59, 102
4, 287525, Note_off_c, 0, 54, 64
4, 287762, Note_on_c, 0, 47, 102
4, 287765, Note_off_c, 0, 59, 64
4, 288002, Note_on_c, 0, 52, 102
4, 288005, Note_off_c, 0, 47, 64
4, 288482, Note_on_c, 0, 40, 102
4, 288485, Note_off_c, 0, 52, 64
4, 288722, Note_on_c, 0, 42, 102
4, 288725, Note_off_c, 0, 40, 64
4, 289202, Note_on_c, 0, 54, 102
4, 289205, Note_off_c, 0, 42, 64
4, 289442, Note_on_c, 0, 55, 102
4, 289445, Note_off_c, 0, 54, 64
4, 289922, Note_on_c, 0, 57, 102
4, 289925, Note_off_c, 0, 55, 64
4, 290162, Note_on_c, 0, 59, 102
4, 290165, Note_off_c, 0, 57, 64
4, 290402, Note_on_c, 0, 57, 102
4, 290405, Note_off_c, 0, 59, 64
4, 290642, Note_on_c, 0, 56, 102
4, 290645, Note_off_c, 0, 57, 64
4, 290882, Note_on_c, 0, 57, 102
4, 290885, Note_off_c, 0, 56, 64
4, 291122, Note_on_c, 0, 55, 102
4, 291125, Note_off_c, 0, 57, 64
4, 291362, Note_on_c, 0, 54, 102
4, 291365, Note_off_c, 0, 55, 64
4, 291602, Note_on_c, 0, 55, 102
4, 291605, Note_off_c, 0, 54, 64
4, 291842, Note_on_c, 0, 57, 102
4, 291845, Note_off_c, 0, 55, 64
4, 292082, Note_on_c, 0, 59, 102
4, 292085, Note_off_c, 0, 57, 64
4, 292322, Note_on_c, 0, 52, 102
4, 292325, Note_off_c, 0, 59, 64
4, 292562, Note_on_c, 0, 55, 102
4, 292565, Note_off_c, 0, 52, 64
4, 292802, Note_on_c, 0, 57, 102
4, 292805, Note_off_c, 0, 55, 64
4, 293042, Note_on_c, 0, 50, 102
4, 293045, Note_off_c, 0, 57, 64
4, 293282, Note_on_c, 0, 53, 102
4, 293285, Note_off_c, 0, 50, 64
4, 293522, Note_on_c, 0, 55, 102
4, 293525, Note_off_c, 0, 53, 64
4, 293762, Note_on_c, 0, 48, 102
4, 293765, Note_off_c, 0, 55, 64
4, 294002, Note_on_c, 0, 47, 102
4, 294005, Note_off_c, 0, 48, 64
4, 294242, Note_on_c, 0, 45, 102
4, 294245, Note_off_c, 0, 47, 64
4, 294482, Note_on_c, 0, 47, 102
4, 294485, Note_off_c, 0, 45, 64
4, 294722, Note_on_c, 0, 52, 102
4, 294725, Note_off_c, 0, 47, 64
4, 294962, Note_on_c, 0, 40, 102
4, 294965, Note_off_c, 0, 52, 64
4, 295202, Note_on_c, 0, 45, 102
4, 295205, Note_off_c, 0, 40, 64
4, 295442, Note_on_c, 0, 47, 102
4, 295445, Note_off_c, 0, 45, 64
4, 295682, Note_on_c, 0, 49, 102
4, 295685, Note_off_c, 0, 47, 64
4, 295922, Note_on_c, 0, 50, 102
4, 295925, Note_off_c, 0, 49, 64
4, 296405, Note_off_c, 0, 50, 64
4, 296642, Note_on_c, 0, 38, 102
4, 296885, Note_off_c, 0, 38, 64
4, 297122, Note_on_c, 0, 50, 102
4, 297602, Note_on_c, 0, 48, 102
4, 297605, Note_off_c, 0, 50, 64
4, 297842, Note_on_c, 0, 44, 102
4, 297845, Note_off_c, 0, 48, 64
4, 298082, Note_on_c, 0, 45, 102
4, 298085, Note_off_c, 0, 44, 64
4, 298322, Note_on_c, 0, 43, 102
4, 298325, Note_off_c, 0, 45, 64
4, 298562, Note_on_c, 0, 41, 102
4, 298565, Note_off_c, 0, 43, 64
4, 298802, Note_on_c, 0, 48, 102
4, 298805, Note_off_c, 0, 41, 64
4, 298922, Note_on_c, 0, 50, 102
4, 298925, Note_off_c, 0, 48, 64
4, 299042, Note_on_c, 0, 52, 102
4, 299045, Note_off_c, 0, 50, 64
4, 299282, Note_on_c, 0, 40, 102
4, 299285, Note_off_c, 0, 52, 64
4, 299522, Note_on_c, 0, 45, 102
4, 299525, Note_off_c, 0, 40, 64
4, 300002, Note_on_c, 0, 43, 102
4, 300005, Note_off_c, 0, 45, 64
4, 300242, Note_on_c, 0, 41, 102
4, 300245, Note_off_c, 0, 43, 64
4, 300962, Note_on_c, 0, 40, 102
4, 300965, Note_off_c, 0, 41, 64
4, 302405, Note_off_c, 0, 40, 64
4, 303840, Note_on_c, 0, 48, 102
4, 304320, Note_off_c, 0, 48, 64
4, 304320, Note_on_c, 0, 60, 102
4, 305040, Note_off_c, 0, 60, 64
4, 305040, Note_on_c, 0, 59, 102
4, 305160, Note_off_c, 0, 59, 64
4, 305160, Note_on_c, 0, 57, 102
4, 305280, Note_off_c, 0, 57, 64
4, 305280, Note_on_c, 0, 59, 102
4, 305520, Note_off_c, 0, 59, 64
4, 305520, Note_on_c, 0, 55, 102
4, 305760, Note_off_c, 0, 55, 64
4, 305760, Note_on_c, 0, 57, 102
4, 306240, Note_off_c, 0, 57, 64
4, 306480, Note_on_c, 0, 62, 102
4, 306720, Note_off_c, 0, 62, 64
4, 306720, Note_on_c, 0, 59, 102
4, 306960, Note_off_c, 0, 59, 64
4, 306960, Note_on_c, 0, 55, 102
4, 307200, Note_off_c, 0, 55, 64
4, 307200, Note_on_c, 0, 60, 102
4, 307440, Note_off_c, 0, 60, 64
4, 307440, Note_on_c, 0, 48, 102
4, 307680, Note_off_c, 0, 48, 64
4, 307680, Note_on_c, 0, 55, 102
4, 308880, Note_off_c, 0, 55, 64
4, 308880, Note_on_c, 0, 54, 102
4, 309000, Note_off_c, 0, 54, 64
4, 309000, Note_on_c, 0, 52, 102
4, 309120, Note_off_c, 0, 52, 64
4, 309120, Note_on_c, 0, 54, 102
4, 309360, Note_off_c, 0, 54, 64
4, 309360, Note_on_c, 0, 50, 102
4, 309600, Note_off_c, 0, 50, 64
4, 309600, Note_on_c, 0, 52, 102
4, 310080, Note_off_c, 0, 52, 64
4, 310320, Note_on_c, 0, 57, 102
4, 310560, Note_off_c, 0, 57, 64
4, 310560, Note_on_c, 0, 54, 102
4, 310800, Note_off_c, 0, 54, 64
4, 310800, Note_on_c, 0, 50, 102
4, 311040, Note_off_c, 0, 50, 64
4, 311040, Note_on_c, 0, 55, 102
4, 311280, Note_off_c, 0, 55, 64
4, 311280, Note_on_c, 0, 43, 102
4, 311520, Note_off_c, 0, 43, 64
4, 311520, Note_on_c, 0, 50, 102
4, 312720, Note_off_c, 0, 50, 64
4, 312720, Note_on_c, 0, 48, 102
4, 312840, Note_off_c, 0, 48, 64
4, 312840, Note_on_c, 0, 47, 102
4, 312960, Note_off_c, 0, 47, 64
4, 312960, Note_on_c, 0, 48, 102
4, 313200, Note_off_c, 0, 48, 64
4, 313200, Note_on_c, 0, 45, 102
4, 313440, Note_off_c, 0, 45, 64
4, 313440, Note_on_c, 0, 47, 102
4, 313920, Note_off_c, 0, 47, 64
4, 314160, Note_on_c, 0, 52, 102
4, 314400, Note_off_c, 0, 52, 64
4, 314400, Note_on_c, 0, 48, 102
4, 314640, Note_off_c, 0, 48, 64
4, 314640, Note_on_c, 0, 45, 102
4, 314880, Note_off_c, 0, 45, 64
4, 314880, Note_on_c, 0, 50, 102
4, 315120, Note_off_c, 0, 50, 64
4, 315120, Note_on_c, 0, 38, 102
4, 315360, Note_off_c, 0, 38, 64
4, 315360, Note_on_c, 0, 43, 102
4, 315840, Note_off_c, 0, 43, 64
4, 316080, Note_on_c, 0, 47, 102
4, 316320, Note_off_c, 0, 47, 64
4, 316320, Note_on_c, 0, 48, 102
4, 316560, Note_off_c, 0, 48, 64
4, 316560, Note_on_c, 0, 50, 102
4, 316800, Note_off_c, 0, 50, 64
4, 316800, Note_on_c, 0, 52, 102
4, 317040, Note_off_c, 0, 52, 64
4, 317040, Note_on_c, 0, 53, 102
4, 317280, Note_off_c, 0, 53, 64
4, 317280, Note_on_c, 0, 55, 102
4, 317520, Note_off_c, 0, 55, 64
4, 317520, Note_on_c, 0, 57, 102
4, 317760, Note_off_c, 0, 57, 64
4, 317760, Note_on_c, 0, 59, 102
4, 318000, Note_off_c, 0, 59, 64
4, 318000, Note_on_c, 0, 55, 102
4, 318240, Note_off_c, 0, 55, 64
4, 318240, Note_on_c, 0, 60, 102
4, 318480, Note_off_c, 0, 60, 64
4, 318480, Note_on_c, 0, 55, 102
4, 318720, Note_off_c, 0, 55, 64
4, 318720, Note_on_c, 0, 52, 102
4, 318960, Note_off_c, 0, 52, 64
4, 318960, Note_on_c, 0, 48, 102
4, 319200, Note_off_c, 0, 48, 64
4, 319200, Note_on_c, 0, 55, 102
4, 319680, Note_off_c, 0, 55, 64
4, 319920, Note_on_c, 0, 52, 102
4, 320160, Note_off_c, 0, 52, 64
4, 320160, Note_on_c, 0, 57, 102
4, 320400, Note_off_c, 0, 57, 64
4, 320400, Note_on_c, 0, 48, 102
4, 320640, Note_off_c, 0, 48, 64
4, 320640, Note_on_c, 0, 50, 102
4, 320880, Note_off_c, 0, 50, 64
4, 320880, Note_on_c, 0, 53, 102
4, 321120, Note_off_c, 0, 53, 64
4, 321120, Note_on_c, 0, 55, 102
4, 321360, Note_off_c, 0, 55, 64
4, 321360, Note_on_c, 0, 43, 102
4, 321600, Note_off_c, 0, 43, 64
4, 321600, Note_on_c, 0, 48, 102
4, 321840, Note_off_c, 0, 48, 64
4, 321840, Note_on_c, 0, 52, 102
4, 322080, Note_off_c, 0, 52, 64
4, 322080, Note_on_c, 0, 53, 102
4, 323280, Note_off_c, 0, 53, 64
4, 323280, Note_on_c, 0, 55, 102
4, 323520, Note_off_c, 0, 55, 64
4, 323520, Note_on_c, 0, 52, 102
4, 323760, Note_off_c, 0, 52, 64
4, 323760, Note_on_c, 0, 57, 102
4, 324000, Note_off_c, 0, 57, 64
4, 324000, Note_on_c, 0, 53, 102
4, 324240, Note_off_c, 0, 53, 64
4, 324240, Note_on_c, 0, 50, 102
4, 324480, Note_off_c, 0, 50, 64
4, 324480, Note_on_c, 0, 55, 102
4, 324960, Note_off_c, 0, 55, 64
4, 325200, Note_on_c, 0, 52, 102
4, 325440, Note_off_c, 0, 52, 64
4, 325440, Note_on_c, 0, 48, 102
4, 325680, Note_off_c, 0, 48, 64
4, 325680, Note_on_c, 0, 53, 102
4, 325920, Note_off_c, 0, 53, 64
4, 325920, Note_on_c, 0, 50, 102
4, 326160, Note_off_c, 0, 50, 64
4, 326160, Note_on_c, 0, 47, 102
4, 326400, Note_off_c, 0, 47, 64
4, 326400, Note_on_c, 0, 52, 102
4, 326880, Note_off_c, 0, 52, 64
4, 327120, Note_on_c, 0, 48, 102
4, 327360, Note_off_c, 0, 48, 64
4, 327360, Note_on_c, 0, 45, 102
4, 327600, Note_off_c, 0, 45, 64
4, 327600, Note_on_c, 0, 50, 102
4, 327840, Note_off_c, 0, 50, 64
4, 327840, Note_on_c, 0, 47, 102
4, 328080, Note_off_c, 0, 47, 64
4, 328080, Note_on_c, 0, 43, 102
4, 328320, Note_off_c, 0, 43, 64
4, 328320, Note_on_c, 0, 48, 102
4, 329280, Note_off_c, 0, 48, 64
4, 329280, Note_on_c, 0, 47, 102
4, 329760, Note_off_c, 0, 47, 64
4, 329760, Note_on_c, 0, 48, 102
4, 330000, Note_off_c, 0, 48, 64
4, 330000, Note_on_c, 0, 45, 102
4, 330240, Note_off_c, 0, 45, 64
4, 330240, Note_on_c, 0, 41, 102
4, 330480, Note_off_c, 0, 41, 64
4, 330480, Note_on_c, 0, 43, 102
4, 330720, Note_off_c, 0, 43, 64
4, 330720, Note_on_c, 0, 48, 102
4, 330960, Note_off_c, 0, 48, 64
4, 331200, Note_on_c, 0, 45, 102
4, 331440, Note_off_c, 0, 45, 64
4, 331680, Note_on_c, 0, 41, 102
4, 331920, Note_off_c, 0, 41, 64
4, 332160, Note_on_c, 0, 43, 102
4, 332400, Note_off_c, 0, 43, 64
4, 332640, Note_on_c, 0, 36, 102
4, 332880, Note_off_c, 0, 36, 64
4, 334560, Note_on_c, 0, 48, 102
4, 334680, Note_off_c, 0, 48, 64
4, 334680, Note_on_c, 0, 50, 102
4, 334800, Note_off_c, 0, 50, 64
4, 334800, Note_on_c, 0, 48, 102
4, 334920, Note_off_c, 0, 48, 64
4, 334920, Note_on_c, 0, 50, 102
4, 335040, Note_off_c, 0, 50, 64
4, 335040, Note_on_c, 0, 52, 102
4, 335160, Note_off_c, 0, 52, 64
4, 335160, Note_on_c, 0, 53, 102
4, 335280, Note_off_c, 0, 53, 64
4, 335280, Note_on_c, 0, 52, 102
4, 335400, Note_off_c, 0, 52, 64
4, 335400, Note_on_c, 0, 53, 102
4, 335520, Note_off_c, 0, 53, 64
4, 335520, Note_on_c, 0, 50, 102
4, 335640, Note_off_c, 0, 50, 64
4, 335640, Note_on_c, 0, 52, 102
4, 335760, Note_off_c, 0, 52, 64
4, 335760, Note_on_c, 0, 50, 102
4, 335880, Note_off_c, 0, 50, 64
4, 335880, Note_on_c, 0, 52, 102
4, 336000, Note_off_c, 0, 52, 64
4, 336000, Note_on_c, 0, 53, 102
4, 336120, Note_off_c, 0, 53, 64
4, 336120, Note_on_c, 0, 55, 102
4, 336240, Note_off_c, 0, 55, 64
4, 336240, Note_on_c, 0, 53, 102
4, 336360, Note_off_c, 0, 53, 64
4, 336360, Note_on_c, 0, 55, 102
4, 336480, Note_off_c, 0, 55, 64
4, 336480, Note_on_c, 0, 52, 102
4, 336720, Note_off_c, 0, 52, 64
4, 336720, Note_on_c, 0, 60, 102
4, 336960, Note_off_c, 0, 60, 64
4, 336960, Note_on_c, 0, 48, 102
4, 337200, Note_off_c, 0, 48, 64
4, 337200, Note_on_c, 0, 60, 102
4, 337440, Note_off_c, 0, 60, 64
4, 337440, Note_on_c, 0, 53, 102
4, 337680, Note_off_c, 0, 53, 64
4, 337680, Note_on_c, 0, 60, 102
4, 337920, Note_off_c, 0, 60, 64
4, 337920, Note_on_c, 0, 50, 102
4, 338160, Note_off_c, 0, 50, 64
4, 338160, Note_on_c, 0, 59, 102
4, 338400, Note_off_c, 0, 59, 64
4, 338400, Note_on_c, 0, 52, 102
4, 338640, Note_off_c, 0, 52, 64
4, 338640, Note_on_c, 0, 59, 102
4, 338880, Note_off_c, 0, 59, 64
4, 338880, Note_on_c, 0, 48, 102
4, 339120, Note_off_c, 0, 48, 64
4, 339120, Note_on_c, 0, 59, 102
4, 339360, Note_off_c, 0, 59, 64
4, 339360, Note_on_c, 0, 50, 102
4, 339600, Note_off_c, 0, 50, 64
4, 339600, Note_on_c, 0, 57, 102
4, 339840, Note_off_c, 0, 57, 64
4, 339840, Note_on_c, 0, 47, 102
4, 340080, Note_off_c, 0, 47, 64
4, 340080, Note_on_c, 0, 56, 102
4, 340320, Note_off_c, 0, 56, 64
4, 340320, Note_on_c, 0, 45, 102
4, 340560, Note_off_c, 0, 45, 64
4, 340800, Note_on_c, 0, 41, 102
4, 341040, Note_off_c, 0, 41, 64
4, 341280, Note_on_c, 0, 38, 102
4, 341520, Note_off_c, 0, 38, 64
4, 341760, Note_on_c, 0, 40, 102
4, 342000, Note_off_c, 0, 40, 64
4, 342240, Note_on_c, 0, 45, 102
4, 342480, Note_off_c, 0, 45, 64
4, 342480, Note_on_c, 0, 52, 102
4, 342720, Note_off_c, 0, 52, 64
4, 342720, Note_on_c, 0, 57, 102
4, 343680, Note_off_c, 0, 57, 64
4, 343680, Note_on_c, 0, 56, 102
4, 344160, Note_off_c, 0, 56, 64
4, 344160, Note_on_c, 0, 57, 102
4, 344640, Note_off_c, 0, 57, 64
4, 344760, Note_on_c, 0, 50, 102
4, 344880, Note_off_c, 0, 50, 64
4, 344880, Note_on_c, 0, 48, 102
4, 345000, Note_off_c, 0, 48, 64
4, 345000, Note_on_c, 0, 50, 102
4, 345120, Note_off_c, 0, 50, 64
4, 345120, Note_on_c, 0, 47, 102
4, 345600, Note_off_c, 0, 47, 64
4, 345840, Note_on_c, 0, 49, 102
4, 346080, Note_off_c, 0, 49, 64
4, 346080, Note_on_c, 0, 50, 102
4, 346560, Note_off_c, 0, 50, 64
4, 346800, Note_on_c, 0, 62, 102
4, 347280, Note_off_c, 0, 62, 64
4, 347280, Note_on_c, 0, 56, 102
4, 347520, Note_off_c, 0, 56, 64
4, 347520, Note_on_c, 0, 57, 102
4, 347760, Note_off_c, 0, 57, 64
4, 347760, Note_on_c, 0, 51, 102
4, 348000, Note_off_c, 0, 51, 64
4, 348000, Note_on_c, 0, 52, 102
4, 349200, Note_off_c, 0, 52, 64
4, 349200, Note_on_c, 0, 50, 102
4, 349320, Note_off_c, 0, 50, 64
4, 349320, Note_on_c, 0, 48, 102
4, 349440, Note_off_c, 0, 48, 64
4, 349440, Note_on_c, 0, 50, 102
4, 349680, Note_off_c, 0, 50, 64
4, 349680, Note_on_c, 0, 47, 102
4, 349920, Note_off_c, 0, 47, 64
4, 349920, Note_on_c, 0, 48, 102
4, 350400, Note_off_c, 0, 48, 64
4, 350640, Note_on_c, 0, 54, 102
4, 350880, Note_off_c, 0, 54, 64
4, 350880, Note_on_c, 0, 51, 102
4, 351120, Note_off_c, 0, 51, 64
4, 351120, Note_on_c, 0, 47, 102
4, 351360, Note_off_c, 0, 47, 64
4, 351360, Note_on_c, 0, 52, 102
4, 351600, Note_off_c, 0, 52, 64
4, 351600, Note_on_c, 0, 40, 102
4, 351840, Note_off_c, 0, 40, 64
4, 351840, Note_on_c, 0, 47, 102
4, 352080, Note_off_c, 0, 47, 64
4, 352080, Note_on_c, 0, 59, 102
4, 352320, Note_off_c, 0, 59, 64
4, 352320, Note_on_c, 0, 55, 102
4, 352560, Note_off_c, 0, 55, 64
4, 352560, Note_on_c, 0, 60, 102
4, 352800, Note_off_c, 0, 60, 64
4, 352800, Note_on_c, 0, 57, 102
4, 353040, Note_off_c, 0, 57, 64
4, 353040, Note_on_c, 0, 54, 102
4, 353280, Note_off_c, 0, 54, 64
4, 353280, Note_on_c, 0, 59, 102
4, 353760, Note_off_c, 0, 59, 64
4, 354000, Note_on_c, 0, 52, 102
4, 354240, Note_off_c, 0, 52, 64
4, 354240, Note_on_c, 0, 48, 102
4, 354480, Note_off_c, 0, 48, 64
4, 354480, Note_on_c, 0, 53, 102
4, 354720, Note_off_c, 0, 53, 64
4, 354720, Note_on_c, 0, 50, 102
4, 354960, Note_off_c, 0, 50, 64
4, 354960, Note_on_c, 0, 47, 102
4, 355200, Note_off_c, 0, 47, 64
4, 355200, Note_on_c, 0, 52, 102
4, 355680, Note_off_c, 0, 52, 64
4, 355920, Note_on_c, 0, 57, 102
4, 356160, Note_off_c, 0, 57, 64
4, 356160, Note_on_c, 0, 53, 102
4, 356400, Note_off_c, 0, 53, 64
4, 356400, Note_on_c, 0, 58, 102
4, 356640, Note_off_c, 0, 58, 64
4, 356640, Note_on_c, 0, 55, 102
4, 356880, Note_off_c, 0, 55, 64
4, 356880, Note_on_c, 0, 52, 102
4, 357120, Note_off_c, 0, 52, 64
4, 357120, Note_on_c, 0, 57, 102
4, 357600, Note_off_c, 0, 57, 64
4, 357840, Note_on_c, 0, 50, 102
4, 358080, Note_off_c, 0, 50, 64
4, 358080, Note_on_c, 0, 47, 102
4, 358320, Note_off_c, 0, 47, 64
4, 358320, Note_on_c, 0, 52, 102
4, 358560, Note_off_c, 0, 52, 64
4, 358560, Note_on_c, 0, 48, 102
4, 358800, Note_off_c, 0, 48, 64
4, 358800, Note_on_c, 0, 45, 102
4, 359040, Note_off_c, 0, 45, 64
4, 359040, Note_on_c, 0, 50, 102
4, 359520, Note_off_c, 0, 50, 64
4, 359520, Note_on_c, 0, 43, 102
4, 360000, Note_off_c, 0, 43, 64
4, 361200, Note_on_c, 0, 50, 102
4, 361440, Note_off_c, 0, 50, 64
4, 361440, Note_on_c, 0, 47, 102
4, 361680, Note_off_c, 0, 47, 64
4, 361680, Note_on_c, 0, 52, 102
4, 361920, Note_off_c, 0, 52, 64
4, 361920, Note_on_c, 0, 48, 102
4, 362160, Note_off_c, 0, 48, 64
4, 362160, Note_on_c, 0, 45, 102
4, 362400, Note_off_c, 0, 45, 64
4, 362400, Note_on_c, 0, 50, 102
4, 362640, Note_off_c, 0, 50, 64
4, 362640, Note_on_c, 0, 42, 102
4, 362880, Note_off_c, 0, 42, 64
4, 362880, Note_on_c, 0, 43, 102
4, 363120, Note_off_c, 0, 43, 64
4, 363120, Note_on_c, 0, 36, 102
4, 363360, Note_off_c, 0, 36, 64
4, 363360, Note_on_c, 0, 38, 102
4, 363840, Note_off_c, 0, 38, 64
4, 364080, Note_on_c, 0, 42, 102
4, 364320, Note_off_c, 0, 42, 64
4, 364320, Note_on_c, 0, 43, 102
4, 364560, Note_off_c, 0, 43, 64
4, 364560, Note_on_c, 0, 45, 102
4, 364800, Note_off_c, 0, 45, 64
4, 364800, Note_on_c, 0, 47, 102
4, 365040, Note_off_c, 0, 47, 64
4, 365040, Note_on_c, 0, 48, 102
4, 365280, Note_off_c, 0, 48, 64
4, 365280, Note_on_c, 0, 50, 102
4, 365520, Note_off_c, 0, 50, 64
4, 365520, Note_on_c, 0, 52, 102
4, 365760, Note_off_c, 0, 52, 64
4, 365760, Note_on_c, 0, 54, 102
4, 366000, Note_off_c, 0, 54, 64
4, 366000, Note_on_c, 0, 50, 102
4, 366240, Note_off_c, 0, 50, 64
4, 366240, Note_on_c, 0, 55, 102
4, 366480, Note_off_c, 0, 55, 64
4, 366480, Note_on_c, 0, 50, 102
4, 366720, Note_off_c, 0, 50, 64
4, 366720, Note_on_c, 0, 47, 102
4, 366960, Note_off_c, 0, 47, 64
4, 366960, Note_on_c, 0, 43, 102
4, 367200, Note_off_c, 0, 43, 64
4, 367200, Note_on_c, 0, 50, 102
4, 367680, Note_off_c, 0, 50, 64
4, 367920, Note_on_c, 0, 47, 102
4, 368160, Note_off_c, 0, 47, 64
4, 368160, Note_on_c, 0, 52, 102
4, 368400, Note_off_c, 0, 52, 64
4, 368400, Note_on_c, 0, 43, 102
4, 368640, Note_off_c, 0, 43, 64
4, 368640, Note_on_c, 0, 45, 102
4, 368880, Note_off_c, 0, 45, 64
4, 368880, Note_on_c, 0, 48, 102
4, 369120, Note_off_c, 0, 48, 64
4, 369120, Note_on_c, 0, 50, 102
4, 369360, Note_off_c, 0, 50, 64
4, 369360, Note_on_c, 0, 38, 102
4, 369600, Note_off_c, 0, 38, 64
4, 369600, Note_on_c, 0, 43, 102
4, 369840, Note_off_c, 0, 43, 64
4, 369840, Note_on_c, 0, 47, 102
4, 370080, Note_off_c, 0, 47, 64
4, 370080, Note_on_c, 0, 48, 102
4, 371280, Note_off_c, 0, 48, 64
4, 371280, Note_on_c, 0, 50, 102
4, 371520, Note_off_c, 0, 50, 64
4, 371520, Note_on_c, 0, 47, 102
4, 371760, Note_off_c, 0, 47, 64
4, 371760, Note_on_c, 0, 52, 102
4, 372000, Note_off_c, 0, 52, 64
4, 372000, Note_on_c, 0, 48, 102
4, 372240, Note_off_c, 0, 48, 64
4, 372240, Note_on_c, 0, 45, 102
4, 372480, Note_off_c, 0, 45, 64
4, 372480, Note_on_c, 0, 50, 102
4, 372720, Note_off_c, 0, 50, 64
4, 372720, Note_on_c, 0, 38, 102
4, 372960, Note_off_c, 0, 38, 64
4, 372960, Note_on_c, 0, 43, 102
4, 373440, Note_off_c, 0, 43, 64
4, 373440, Note_on_c, 0, 55, 102
4, 374160, Note_off_c, 0, 55, 64
4, 374160, Note_on_c, 0, 53, 102
4, 374280, Note_off_c, 0, 53, 64
4, 374280, Note_on_c, 0, 52, 102
4, 374400, Note_off_c, 0, 52, 64
4, 374400, Note_on_c, 0, 53, 102
4, 374640, Note_off_c, 0, 53, 64
4, 374640, Note_on_c, 0, 58, 102
4, 374880, Note_off_c, 0, 58, 64
4, 374880, Note_on_c, 0, 55, 102
4, 375120, Note_off_c, 0, 55, 64
4, 375120, Note_on_c, 0, 52, 102
4, 375360, Note_off_c, 0, 52, 64
4, 375360, Note_on_c, 0, 57, 102
4, 375600, Note_off_c, 0, 57, 64
4, 375600, Note_on_c, 0, 45, 102
4, 375840, Note_off_c, 0, 45, 64
4, 375840, Note_on_c, 0, 50, 102
4, 377040, Note_off_c, 0, 50, 64
4, 377040, Note_on_c, 0, 48, 102
4, 377280, Note_off_c, 0, 48, 64
4, 377280, Note_on_c, 0, 53, 102
4, 377520, Note_off_c, 0, 53, 64
4, 377520, Note_on_c, 0, 45, 102
4, 377760, Note_off_c, 0, 45, 64
4, 377760, Note_on_c, 0, 47, 102
4, 378000, Note_off_c, 0, 47, 64
4, 378000, Note_on_c, 0, 50, 102
4, 378240, Note_off_c, 0, 50, 64
4, 378240, Note_on_c, 0, 52, 102
4, 378480, Note_off_c, 0, 52, 64
4, 378480, Note_on_c, 0, 40, 102
4, 378720, Note_off_c, 0, 40, 64
4, 378720, Note_on_c, 0, 45, 102
4, 378960, Note_off_c, 0, 45, 64
4, 378960, Note_on_c, 0, 52, 102
4, 379200, Note_off_c, 0, 52, 64
4, 379200, Note_on_c, 0, 48, 102
4, 379440, Note_off_c, 0, 48, 64
4, 379440, Note_on_c, 0, 53, 102
4, 379680, Note_off_c, 0, 53, 64
4, 379680, Note_on_c, 0, 51, 102
4, 379920, Note_off_c, 0, 51, 64
4, 379920, Note_on_c, 0, 47, 102
4, 380160, Note_off_c, 0, 47, 64
4, 380160, Note_on_c, 0, 52, 102
4, 381120, Note_off_c, 0, 52, 64
4, 381120, Note_on_c, 0, 51, 102
4, 381360, Note_off_c, 0, 51, 64
4, 381360, Note_on_c, 0, 59, 102
4, 381600, Note_off_c, 0, 59, 64
4, 381600, Note_on_c, 0, 55, 102
4, 381840, Note_off_c, 0, 55, 64
4, 381840, Note_on_c, 0, 60, 102
4, 382080, Note_off_c, 0, 60, 64
4, 382080, Note_on_c, 0, 57, 102
4, 382320, Note_off_c, 0, 57, 64
4, 382320, Note_on_c, 0, 54, 102
4, 382560, Note_off_c, 0, 54, 64
4, 382560, Note_on_c, 0, 59, 102
4, 384000, Note_off_c, 0, 59, 64
4, 384000, Note_on_c, 0, 57, 102
4, 384600, Note_off_c, 0, 57, 64
4, 384600, Note_on_c, 0, 54, 102
4, 384720, Note_off_c, 0, 54, 64
4, 384720, Note_on_c, 0, 55, 102
4, 384840, Note_off_c, 0, 55, 64
4, 384840, Note_on_c, 0, 52, 102
4, 384960, Note_off_c, 0, 52, 64
4, 384960, Note_on_c, 0, 60, 102
4, 385080, Note_off_c, 0, 60, 64
4, 385080, Note_on_c, 0, 55, 102
4, 385200, Note_off_c, 0, 55, 64
4, 385200, Note_on_c, 0, 57, 102
4, 385320, Note_off_c, 0, 57, 64
4, 385320, Note_on_c, 0, 52, 102
4, 385440, Note_off_c, 0, 52, 64
4, 385440, Note_on_c, 0, 54, 102
4, 385560, Note_off_c, 0, 54, 64
4, 385560, Note_on_c, 0, 52, 102
4, 385680, Note_off_c, 0, 52, 64
4, 385680, Note_on_c, 0, 54, 102
4, 385800, Note_off_c, 0, 54, 64
4, 385800, Note_on_c, 0, 52, 102
4, 385920, Note_off_c, 0, 52, 64
4, 385920, Note_on_c, 0, 53, 102
4, 386040, Note_off_c, 0, 53, 64
4, 386040, Note_on_c, 0, 52, 102
4, 386160, Note_off_c, 0, 52, 64
4, 386160, Note_on_c, 0, 53, 102
4, 386280, Note_off_c, 0, 53, 64
4, 386280, Note_on_c, 0, 50, 102
4, 386400, Note_off_c, 0, 50, 64
4, 386400, Note_on_c, 0, 52, 102
4, 386640, Note_off_c, 0, 52, 64
4, 386640, Note_on_c, 0, 52, 102
4, 386880, Note_off_c, 0, 52, 64
4, 386880, Note_on_c, 0, 48, 102
4, 387120, Note_off_c, 0, 48, 64
4, 387120, Note_on_c, 0, 53, 102
4, 387360, Note_off_c, 0, 53, 64
4, 387360, Note_on_c, 0, 50, 102
4, 387600, Note_off_c, 0, 50, 64
4, 387600, Note_on_c, 0, 47, 102
4, 387840, Note_off_c, 0, 47, 64
4, 387840, Note_on_c, 0, 52, 102
4, 388080, Note_off_c, 0, 52, 64
4, 388080, Note_on_c, 0, 55, 102
4, 388320, Note_off_c, 0, 55, 64
4, 388320, Note_on_c, 0, 49, 102
4, 388560, Note_off_c, 0, 49, 64
4, 388560, Note_on_c, 0, 45, 102
4, 388800, Note_off_c, 0, 45, 64
4, 388800, Note_on_c, 0, 50, 102
4, 389520, Note_off_c, 0, 50, 64
4, 389520, Note_on_c, 0, 48, 102
4, 389640, Note_off_c, 0, 48, 64
4, 389640, Note_on_c, 0, 46, 102
4, 389760, Note_off_c, 0, 46, 64
4, 389760, Note_on_c, 0, 48, 102
4, 390000, Note_off_c, 0, 48, 64
4, 390000, Note_on_c, 0, 45, 102
4, 390240, Note_off_c, 0, 45, 64
4, 390240, Note_on_c, 0, 46, 102
4, 390720, Note_off_c, 0, 46, 64
4, 390840, Note_on_c, 0, 52, 102
4, 390960, Note_off_c, 0, 52, 64
4, 390960, Note_on_c, 0, 50, 102
4, 391080, Note_off_c, 0, 50, 64
4, 391080, Note_on_c, 0, 52, 102
4, 391200, Note_off_c, 0, 52, 64
4, 391200, Note_on_c, 0, 49, 102
4, 391320, Note_off_c, 0, 49, 64
4, 391320, Note_on_c, 0, 52, 102
4, 391440, Note_off_c, 0, 52, 64
4, 391440, Note_on_c, 0, 45, 102
4, 391560, Note_off_c, 0, 45, 64
4, 391560, Note_on_c, 0, 49, 102
4, 391680, Note_off_c, 0, 49, 64
4, 391680, Note_on_c, 0, 38, 102
4, 391920, Note_off_c, 0, 38, 64
4, 391920, Note_on_c, 0, 50, 102
4, 392400, Note_off_c, 0, 50, 64
4, 392400, Note_on_c, 0, 49, 102
4, 392640, Note_off_c, 0, 49, 64
4, 392640, Note_on_c, 0, 50, 102
4, 392880, Note_off_c, 0, 50, 64
4, 392880, Note_on_c, 0, 55, 102
4, 393120, Note_off_c, 0, 55, 64
4, 393120, Note_on_c, 0, 52, 102
4, 393360, Note_off_c, 0, 52, 64
4, 393360, Note_on_c, 0, 58, 102
4, 393600, Note_off_c, 0, 58, 64
4, 393600, Note_on_c, 0, 57, 102
4, 393840, Note_off_c, 0, 57, 64
4, 393840, Note_on_c, 0, 55, 102
4, 394080, Note_off_c, 0, 55, 64
4, 394080, Note_on_c, 0, 53, 102
4, 394320, Note_off_c, 0, 53, 64
4, 394320, Note_on_c, 0, 50, 102
4, 394560, Note_off_c, 0, 50, 64
4, 396240, Note_on_c, 0, 57, 102
4, 396480, Note_off_c, 0, 57, 64
4, 396480, Note_on_c, 0, 53, 102
4, 396720, Note_off_c, 0, 53, 64
4, 396720, Note_on_c, 0, 58, 102
4, 396960, Note_off_c, 0, 58, 64
4, 396960, Note_on_c, 0, 55, 102
4, 397200, Note_off_c, 0, 55, 64
4, 397200, Note_on_c, 0, 52, 102
4, 397440, Note_off_c, 0, 52, 64
4, 397440, Note_on_c, 0, 57, 102
4, 397920, Note_off_c, 0, 57, 64
4, 398160, Note_on_c, 0, 53, 102
4, 398400, Note_off_c, 0, 53, 64
4, 398400, Note_on_c, 0, 50, 102
4, 398640, Note_off_c, 0, 50, 64
4, 398640, Note_on_c, 0, 55, 102
4, 398880, Note_off_c, 0, 55, 64
4, 398880, Note_on_c, 0, 52, 102
4, 399120, Note_off_c, 0, 52, 64
4, 399120, Note_on_c, 0, 48, 102
4, 399360, Note_off_c, 0, 48, 64
4, 399360, Note_on_c, 0, 53, 102
4, 399840, Note_off_c, 0, 53, 64
4, 400080, Note_on_c, 0, 50, 102
4, 400320, Note_off_c, 0, 50, 64
4, 400320, Note_on_c, 0, 52, 102
4, 400560, Note_off_c, 0, 52, 64
4, 400560, Note_on_c, 0, 55, 102
4, 400800, Note_off_c, 0, 55, 64
4, 400800, Note_on_c, 0, 49, 102
4, 401040, Note_off_c, 0, 49, 64
4, 401040, Note_on_c, 0, 45, 102
4, 401280, Note_off_c, 0, 45, 64
4, 401280, Note_on_c, 0, 50, 102
4, 402240, Note_off_c, 0, 50, 64
4, 402240, Note_on_c, 0, 49, 102
4, 402720, Note_off_c, 0, 49, 64
4, 402720, Note_on_c, 0, 50, 102
4, 402960, Note_off_c, 0, 50, 64
4, 402960, Note_on_c, 0, 46, 102
4, 403200, Note_off_c, 0, 46, 64
4, 403200, Note_on_c, 0, 43, 102
4, 403440, Note_off_c, 0, 43, 64
4, 403440, Note_on_c, 0, 45, 102
4, 403680, Note_off_c, 0, 45, 64
4, 403680, Note_on_c, 0, 38, 102
4, 403920, Note_off_c, 0, 38, 64
4, 403920, Note_on_c, 0, 50, 102
4, 404160, Note_off_c, 0, 50, 64
4, 404160, Note_on_c, 0, 53, 102
4, 404400, Note_off_c, 0, 53, 64
4, 404400, Note_on_c, 0, 50, 102
4, 404640, Note_off_c, 0, 50, 64
4, 404880, Note_on_c, 0, 55, 102
4, 405120, Note_off_c, 0, 55, 64
4, 405120, Note_on_c, 0, 58, 102
4, 405360, Note_off_c, 0, 58, 64
4, 405360, Note_on_c, 0, 55, 102
4, 405600, Note_off_c, 0, 55, 64
4, 405840, Note_on_c, 0, 48, 102
4, 406080, Note_off_c, 0, 48, 64
4, 406080, Note_on_c, 0, 52, 102
4, 406320, Note_off_c, 0, 52, 64
4, 406320, Note_on_c, 0, 48, 102
4, 406560, Note_off_c, 0, 48, 64
4, 406800, Note_on_c, 0, 53, 102
4, 407040, Note_off_c, 0, 53, 64
4, 407040, Note_on_c, 0, 57, 102
4, 407280, Note_off_c, 0, 57, 64
4, 407280, Note_on_c, 0, 53, 102
4, 407520, Note_off_c, 0, 53, 64
4, 407760, Note_on_c, 0, 46, 102
4, 408000, Note_off_c, 0, 46, 64
4, 408000, Note_on_c, 0, 50, 102
4, 408240, Note_off_c, 0, 50, 64
4, 408240, Note_on_c, 0, 46, 102
4, 408480, Note_off_c, 0, 46, 64
4, 408480, Note_on_c, 0, 52, 102
4, 408720, Note_off_c, 0, 52, 64
4, 408720, Note_on_c, 0, 48, 102
4, 408960, Note_off_c, 0, 48, 64
4, 408960, Note_on_c, 0, 53, 102
4, 409200, Note_off_c, 0, 53, 64
4, 409200, Note_on_c, 0, 57, 102
4, 409440, Note_off_c, 0, 57, 64
4, 409440, Note_on_c, 0, 50, 102
4, 409680, Note_off_c, 0, 50, 64
4, 409680, Note_on_c, 0, 52, 102
4, 409920, Note_off_c, 0, 52, 64
4, 409920, Note_on_c, 0, 53, 102
4, 410640, Note_off_c, 0, 53, 64
4, 410640, Note_on_c, 0, 52, 102
4, 410760, Note_off_c, 0, 52, 64
4, 410760, Note_on_c, 0, 50, 102
4, 410880, Note_off_c, 0, 50, 64
4, 410880, Note_on_c, 0, 52, 102
4, 411120, Note_off_c, 0, 52, 64
4, 411120, Note_on_c, 0, 48, 102
4, 411360, Note_off_c, 0, 48, 64
4, 411360, Note_on_c, 0, 50, 102
4, 411840, Note_off_c, 0, 50, 64
4, 412080, Note_on_c, 0, 55, 102
4, 412320, Note_off_c, 0, 55, 64
4, 412320, Note_on_c, 0, 52, 102
4, 412560, Note_off_c, 0, 52, 64
4, 412560, Note_on_c, 0, 48, 102
4, 412800, Note_off_c, 0, 48, 64
4, 412800, Note_on_c, 0, 53, 102
4, 413040, Note_off_c, 0, 53, 64
4, 413040, Note_on_c, 0, 41, 102
4, 413280, Note_off_c, 0, 41, 64
4, 413280, Note_on_c, 0, 48, 102
4, 414480, Note_off_c, 0, 48, 64
4, 414480, Note_on_c, 0, 58, 102
4, 414600, Note_off_c, 0, 58, 64
4, 414600, Note_on_c, 0, 57, 102
4, 414720, Note_off_c, 0, 57, 64
4, 414720, Note_on_c, 0, 58, 102
4, 414960, Note_off_c, 0, 58, 64
4, 414960, Note_on_c, 0, 55, 102
4, 415200, Note_off_c, 0, 55, 64
4, 415200, Note_on_c, 0, 57, 102
4, 415680, Note_off_c, 0, 57, 64
4, 415920, Note_on_c, 0, 62, 102
4, 416160, Note_off_c, 0, 62, 64
4, 416160, Note_on_c, 0, 58, 102
4, 416400, Note_off_c, 0, 58, 64
4, 416400, Note_on_c, 0, 55, 102
4, 416640, Note_off_c, 0, 55, 64
4, 416640, Note_on_c, 0, 60, 102
4, 416880, Note_off_c, 0, 60, 64
4, 416880, Note_on_c, 0, 48, 102
4, 417120, Note_off_c, 0, 48, 64
4, 417120, Note_on_c, 0, 53, 102
4, 417360, Note_off_c, 0, 53, 64
4, 417600, Note_on_c, 0, 50, 102
4, 417840, Note_off_c, 0, 50, 64
4, 418080, Note_on_c, 0, 55, 102
4, 418320, Note_off_c, 0, 55, 64
4, 418560, Note_on_c, 0, 48, 102
4, 418800, Note_off_c, 0, 48, 64
4, 419040, Note_on_c, 0, 53, 102
4, 419280, Note_off_c, 0, 53, 64
4, 420960, Note_on_c, 0, 53, 102
4, 421080, Note_off_c, 0, 53, 64
4, 421080, Note_on_c, 0, 55, 102
4, 421200, Note_off_c, 0, 55, 64
4, 421200, Note_on_c, 0, 53, 102
4, 421320, Note_off_c, 0, 53, 64
4, 421320, Note_on_c, 0, 55, 102
4, 421440, Note_off_c, 0, 55, 64
4, 421440, Note_on_c, 0, 57, 102
4, 421560, Note_off_c, 0, 57, 64
4, 421560, Note_on_c, 0, 58, 102
4, 421680, Note_off_c, 0, 58, 64
4, 421680, Note_on_c, 0, 57, 102
4, 421800, Note_off_c, 0, 57, 64
4, 421800, Note_on_c, 0, 58, 102
4, 421920, Note_off_c, 0, 58, 64
4, 421920, Note_on_c, 0, 55, 102
4, 422040, Note_off_c, 0, 55, 64
4, 422040, Note_on_c, 0, 57, 102
4, 422160, Note_off_c, 0, 57, 64
4, 422160, Note_on_c, 0, 55, 102
4, 422280, Note_off_c, 0, 55, 64
4, 422280, Note_on_c, 0, 57, 102
4, 422400, Note_off_c, 0, 57, 64
4, 422400, Note_on_c, 0, 58, 102
4, 422520, Note_off_c, 0, 58, 64
4, 422520, Note_on_c, 0, 60, 102
4, 422640, Note_off_c, 0, 60, 64
4, 422640, Note_on_c, 0, 58, 102
4, 422760, Note_off_c, 0, 58, 64
4, 422760, Note_on_c, 0, 60, 102
4, 422880, Note_off_c, 0, 60, 64
4, 422880, Note_on_c, 0, 57, 102
4, 423120, Note_off_c, 0, 57, 64
4, 423120, Note_on_c, 0, 53, 102
4, 423360, Note_off_c, 0, 53, 64
4, 423360, Note_on_c, 0, 55, 102
4, 423600, Note_off_c, 0, 55, 64
4, 423600, Note_on_c, 0, 57, 102
4, 423840, Note_off_c, 0, 57, 64
4, 423840, Note_on_c, 0, 58, 102
4, 424080, Note_off_c, 0, 58, 64
4, 424080, Note_on_c, 0, 50, 102
4, 424320, Note_off_c, 0, 50, 64
4, 424320, Note_on_c, 0, 55, 102
4, 424560, Note_off_c, 0, 55, 64
4, 424560, Note_on_c, 0, 52, 102
4, 424800, Note_off_c, 0, 52, 64
4, 424800, Note_on_c, 0, 57, 102
4, 425040, Note_off_c, 0, 57, 64
4, 425040, Note_on_c, 0, 48, 102
4, 425280, Note_off_c, 0, 48, 64
4, 425280, Note_on_c, 0, 53, 102
4, 425520, Note_off_c, 0, 53, 64
4, 425520, Note_on_c, 0, 50, 102
4, 425760, Note_off_c, 0, 50, 64
4, 425760, Note_on_c, 0, 55, 102
4, 426000, Note_off_c, 0, 55, 64
4, 426000, Note_on_c, 0, 47, 102
4, 426240, Note_off_c, 0, 47, 64
4, 426240, Note_on_c, 0, 52, 102
4, 426480, Note_off_c, 0, 52, 64
4, 426480, Note_on_c, 0, 49, 102
4, 426720, Note_off_c, 0, 49, 64
4, 426720, Note_on_c, 0, 50, 102
4, 426960, Note_off_c, 0, 50, 64
4, 427200, Note_on_c, 0, 46, 102
4, 427440, Note_off_c, 0, 46, 64
4, 427680, Note_on_c, 0, 43, 102
4, 427920, Note_off_c, 0, 43, 64
4, 428160, Note_on_c, 0, 45, 102
4, 428400, Note_off_c, 0, 45, 64
4, 428640, Note_on_c, 0, 38, 102
4, 428880, Note_off_c, 0, 38, 64
4, 428880, Note_on_c, 0, 45, 102
4, 429120, Note_off_c, 0, 45, 64
4, 429120, Note_on_c, 0, 50, 102
4, 430080, Note_off_c, 0, 50, 64
4, 430080, Note_on_c, 0, 49, 102
4, 430560, Note_off_c, 0, 49, 64
4, 430560, Note_on_c, 0, 50, 102
4, 431040, Note_off_c, 0, 50, 64
4, 431160, Note_on_c, 0, 55, 102
4, 431280, Note_off_c, 0, 55, 64
4, 431280, Note_on_c, 0, 53, 102
4, 431400, Note_off_c, 0, 53, 64
4, 431400, Note_on_c, 0, 55, 102
4, 431520, Note_off_c, 0, 55, 64
4, 431520, Note_on_c, 0, 52, 102
4, 432000, Note_off_c, 0, 52, 64
4, 432240, Note_on_c, 0, 54, 102
4, 432480, Note_off_c, 0, 54, 64
4, 432480, Note_on_c, 0, 55, 102
4, 432960, Note_off_c, 0, 55, 64
4, 433200, Note_on_c, 0, 55, 102
4, 433680, Note_off_c, 0, 55, 64
4, 433680, Note_on_c, 0, 49, 102
4, 433920, Note_off_c, 0, 49, 64
4, 433920, Note_on_c, 0, 50, 102
4, 434160, Note_off_c, 0, 50, 64
4, 434160, Note_on_c, 0, 44, 102
4, 434400, Note_off_c, 0, 44, 64
4, 434400, Note_on_c, 0, 45, 102
4, 435600, Note_off_c, 0, 45, 64
4, 435600, Note_on_c, 0, 55, 102
4, 435720, Note_off_c, 0, 55, 64
4, 435720, Note_on_c, 0, 53, 102
4, 435840, Note_off_c, 0, 53, 64
4, 435840, Note_on_c, 0, 55, 102
4, 436080, Note_off_c, 0, 55, 64
4, 436080, Note_on_c, 0, 52, 102
4, 436320, Note_off_c, 0, 52, 64
4, 436320, Note_on_c, 0, 53, 102
4, 436800, Note_off_c, 0, 53, 64
4, 437040, Note_on_c, 0, 59, 102
4, 437280, Note_off_c, 0, 59, 64
4, 437280, Note_on_c, 0, 56, 102
4, 437520, Note_off_c, 0, 56, 64
4, 437520, Note_on_c, 0, 52, 102
4, 437760, Note_off_c, 0, 52, 64
4, 437760, Note_on_c, 0, 57, 102
4, 438000, Note_off_c, 0, 57, 64
4, 438000, Note_on_c, 0, 45, 102
4, 438240, Note_off_c, 0, 45, 64
4, 438240, Note_on_c, 0, 40, 102
4, 438480, Note_off_c, 0, 40, 64
4, 438480, Note_on_c, 0, 52, 102
4, 438720, Note_off_c, 0, 52, 64
4, 438720, Note_on_c, 0, 48, 102
4, 438960, Note_off_c, 0, 48, 64
4, 438960, Note_on_c, 0, 53, 102
4, 439200, Note_off_c, 0, 53, 64
4, 439200, Note_on_c, 0, 50, 102
4, 439440, Note_off_c, 0, 50, 64
4, 439440, Note_on_c, 0, 47, 102
4, 439680, Note_off_c, 0, 47, 64
4, 439680, Note_on_c, 0, 52, 102
4, 440160, Note_off_c, 0, 52, 64
4, 440400, Note_on_c, 0, 57, 102
4, 440640, Note_off_c, 0, 57, 64
4, 440640, Note_on_c, 0, 53, 102
4, 440880, Note_off_c, 0, 53, 64
4, 440880, Note_on_c, 0, 58, 102
4, 441120, Note_off_c, 0, 58, 64
4, 441120, Note_on_c, 0, 55, 102
4, 441360, Note_off_c, 0, 55, 64
4, 441360, Note_on_c, 0, 52, 102
4, 441600, Note_off_c, 0, 52, 64
4, 441600, Note_on_c, 0, 57, 102
4, 442080, Note_off_c, 0, 57, 64
4, 442320, Note_on_c, 0, 50, 102
4, 442560, Note_off_c, 0, 50, 64
4, 442560, Note_on_c, 0, 47, 102
4, 442800, Note_off_c, 0, 47, 64
4, 442800, Note_on_c, 0, 52, 102
4, 443040, Note_off_c, 0, 52, 64
4, 443040, Note_on_c, 0, 48, 102
4, 443280, Note_off_c, 0, 48, 64
4, 443280, Note_on_c, 0, 45, 102
4, 443520, Note_off_c, 0, 45, 64
4, 443520, Note_on_c, 0, 50, 102
4, 444000, Note_off_c, 0, 50, 64
4, 444240, Note_on_c, 0, 55, 102
4, 444480, Note_off_c, 0, 55, 64
4, 444480, Note_on_c, 0, 52, 102
4, 444720, Note_off_c, 0, 52, 64
4, 444720, Note_on_c, 0, 57, 102
4, 444960, Note_off_c, 0, 57, 64
4, 444960, Note_on_c, 0, 53, 102
4, 445200, Note_off_c, 0, 53, 64
4, 445200, Note_on_c, 0, 50, 102
4, 445440, Note_off_c, 0, 50, 64
4, 445440, Note_on_c, 0, 55, 102
4, 445680, Note_off_c, 0, 55, 64
4, 445680, Note_on_c, 0, 43, 102
4, 445920, Note_off_c, 0, 43, 64
4, 445920, Note_on_c, 0, 48, 102
4, 446400, Note_off_c, 0, 48, 64
4, 447600, Note_on_c, 0, 55, 102
4, 447840, Note_off_c, 0, 55, 64
4, 447840, Note_on_c, 0, 52, 102
4, 448080, Note_off_c, 0, 52, 64
4, 448080, Note_on_c, 0, 57, 102
4, 448320, Note_off_c, 0, 57, 64
4, 448320, Note_on_c, 0, 53, 102
4, 448560, Note_off_c, 0, 53, 64
4, 448560, Note_on_c, 0, 50, 102
4, 448800, Note_off_c, 0, 50, 64
4, 448800, Note_on_c, 0, 55, 102
4, 449040, Note_off_c, 0, 55, 64
4, 449040, Note_on_c, 0, 47, 102
4, 449280, Note_off_c, 0, 47, 64
4, 449280, Note_on_c, 0, 48, 102
4, 449520, Note_off_c, 0, 48, 64
4, 449520, Note_on_c, 0, 42, 102
4, 449760, Note_off_c, 0, 42, 64
4, 449760, Note_on_c, 0, 43, 102
4, 450240, Note_off_c, 0, 43, 64
4, 450480, Note_on_c, 0, 47, 102
4, 450720, Note_off_c, 0, 47, 64
4, 450720, Note_on_c, 0, 48, 102
4, 450960, Note_off_c, 0, 48, 64
4, 450960, Note_on_c, 0, 50, 102
4, 451200, Note_off_c, 0, 50, 64
4, 451200, Note_on_c, 0, 52, 102
4, 451440, Note_off_c, 0, 52, 64
4, 451440, Note_on_c, 0, 53, 102
4, 451680, Note_off_c, 0, 53, 64
4, 451680, Note_on_c, 0, 55, 102
4, 451920, Note_off_c, 0, 55, 64
4, 451920, Note_on_c, 0, 57, 102
4, 452160, Note_off_c, 0, 57, 64
4, 452160, Note_on_c, 0, 59, 102
4, 452400, Note_off_c, 0, 59, 64
4, 452400, Note_on_c, 0, 55, 102
4, 452640, Note_off_c, 0, 55, 64
4, 452640, Note_on_c, 0, 60, 102
4, 452880, Note_off_c, 0, 60, 64
4, 452880, Note_on_c, 0, 55, 102
4, 453120, Note_off_c, 0, 55, 64
4, 453120, Note_on_c, 0, 52, 102
4, 453360, Note_off_c, 0, 52, 64
4, 453360, Note_on_c, 0, 48, 102
4, 453600, Note_off_c, 0, 48, 64
4, 453600, Note_on_c, 0, 55, 102
4, 454080, Note_off_c, 0, 55, 64
4, 454320, Note_on_c, 0, 52, 102
4, 454560, Note_off_c, 0, 52, 64
4, 454560, Note_on_c, 0, 57, 102
4, 454800, Note_off_c, 0, 57, 64
4, 454800, Note_on_c, 0, 48, 102
4, 455040, Note_off_c, 0, 48, 64
4, 455040, Note_on_c, 0, 50, 102
4, 455280, Note_off_c, 0, 50, 64
4, 455280, Note_on_c, 0, 53, 102
4, 455520, Note_off_c, 0, 53, 64
4, 455520, Note_on_c, 0, 55, 102
4, 455760, Note_off_c, 0, 55, 64
4, 455760, Note_on_c, 0, 47, 102
4, 456000, Note_off_c, 0, 47, 64
4, 456000, Note_on_c, 0, 48, 102
4, 456240, Note_off_c, 0, 48, 64
4, 456240, Note_on_c, 0, 52, 102
4, 456480, Note_off_c, 0, 52, 64
4, 456480, Note_on_c, 0, 53, 102
4, 457680, Note_off_c, 0, 53, 64
4, 457680, Note_on_c, 0, 55, 102
4, 457920, Note_off_c, 0, 55, 64
4, 457920, Note_on_c, 0, 52, 102
4, 458160, Note_off_c, 0, 52, 64
4, 458160, Note_on_c, 0, 57, 102
4, 458400, Note_off_c, 0, 57, 64
4, 458400, Note_on_c, 0, 53, 102
4, 458640, Note_off_c, 0, 53, 64
4, 458640, Note_on_c, 0, 50, 102
4, 458880, Note_off_c, 0, 50, 64
4, 458880, Note_on_c, 0, 55, 102
4, 459120, Note_off_c, 0, 55, 64
4, 459120, Note_on_c, 0, 43, 102
4, 459360, Note_off_c, 0, 43, 64
4, 459360, Note_on_c, 0, 36, 102
4, 459360, Note_on_c, 0, 48, 102
4, 460320, Note_off_c, 0, 48, 64
4, 460320, Note_off_c, 0, 36, 64
4, 460320, End_track
0, 0, End_of_file
