0, 0, Header, 1, 4, 240
1, 0, Start_track
1, 0, Time_signature, 4, 2, 24, 8
1, 0, Key_signature, 0, "major"
1, 0, Tempo, 674157
1, 31920, Tempo, 681818
1, 32040, Tempo, 697674
1, 32160, Tempo, 750000
1, 32280, Tempo, 833333
1, 32400, Tempo, 923076
1, 32520, Tempo, 1016949
1, 32576, Tempo, 1132075
1, 32640, Tempo, 1250000
1, 32640, End_track
2, 0, Start_track
2, 0, MIDI_port, 0
2, 0, Title_t, "RH H"
2, 0, Program_c, 0, 6
2, 120, Note_on_c, 0, 73, 69
2, 240, Note_on_c, 0, 73, 0
2, 240, Note_on_c, 0, 78, 69
2, 360, Note_on_c, 0, 78, 0
2, 360, Note_on_c, 0, 77, 69
2, 480, Note_on_c, 0, 77, 0
2, 480, Note_on_c, 0, 78, 69
2, 600, Note_on_c, 0, 78, 0
2, 600, Note_on_c, 0, 77, 64
2, 660, Note_on_c, 0, 77, 0
2, 660, Note_on_c, 0, 75, 64
2, 710, Note_on_c, 0, 75, 0
2, 720, Note_on_c, 0, 75, 72
2, 742, Note_on_c, 0, 75, 0
2, 742, Note_on_c, 0, 73, 50
2, 764, Note_on_c, 0, 73, 0
2, 764, Note_on_c, 0, 75, 52
2, 786, Note_on_c, 0, 75, 0
2, 786, Note_on_c, 0, 73, 55
2, 808, Note_on_c, 0, 73, 0
2, 808, Note_on_c, 0, 75, 57
2, 830, Note_on_c, 0, 75, 0
2, 830, Note_on_c, 0, 73, 59
2, 852, Note_on_c, 0, 73, 0
2, 852, Note_on_c, 0, 75, 61
2, 874, Note_on_c, 0, 75, 0
2, 874, Note_on_c, 0, 73, 63
2, 896, Note_on_c, 0, 73, 0
2, 900, Note_on_c, 0, 71, 72
2, 930, Note_on_c, 0, 71, 0
2, 930, Note_on_c, 0, 73, 64
2, 960, Note_on_c, 0, 73, 0
2, 960, Note_on_c, 0, 75, 64
2, 1200, Note_on_c, 0, 75, 0
2, 1320, Note_on_c, 0, 73, 64
2, 1440, Note_on_c, 0, 73, 0
2, 1440, Note_on_c, 0, 71, 64
2, 1560, Note_on_c, 0, 71, 0
2, 1560, Note_on_c, 0, 70, 64
2, 1680, Note_on_c, 0, 70, 0
2, 1680, Note_on_c, 0, 68, 64
2, 1800, Note_on_c, 0, 68, 0
2, 1800, Note_on_c, 0, 73, 64
2, 1920, Note_on_c, 0, 73, 0
2, 1920, Note_on_c, 0, 70, 64
2, 2040, Note_on_c, 0, 70, 0
2, 2100, Note_on_c, 0, 78, 64
2, 2160, Note_on_c, 0, 78, 0
2, 2160, Note_on_c, 0, 77, 64
2, 2220, Note_on_c, 0, 77, 0
2, 2220, Note_on_c, 0, 78, 64
2, 2280, Note_on_c, 0, 78, 0
2, 2280, Note_on_c, 0, 80, 64
2, 2340, Note_on_c, 0, 80, 0
2, 2340, Note_on_c, 0, 75, 64
2, 2400, Note_on_c, 0, 75, 0
2, 2400, Note_on_c, 0, 77, 64
2, 2460, Note_on_c, 0, 77, 0
2, 2460, Note_on_c, 0, 78, 64
2, 2520, Note_on_c, 0, 78, 0
2, 2520, Note_on_c, 0, 80, 64
2, 2700, Note_on_c, 0, 80, 0
2, 2700, Note_on_c, 0, 78, 64
2, 2760, Note_on_c, 0, 78, 0
2, 2760, Note_on_c, 0, 77, 64
2, 2820, Note_on_c, 0, 77, 0
2, 2820, Note_on_c, 0, 75, 64
2, 2880, Note_on_c, 0, 75, 0
2, 2880, Note_on_c, 0, 73, 64
2, 2940, Note_on_c, 0, 73, 0
2, 2940, Note_on_c, 0, 75, 64
2, 3000, Note_on_c, 0, 75, 0
2, 3000, Note_on_c, 0, 77, 64
2, 3060, Note_on_c, 0, 77, 0
2, 3060, Note_on_c, 0, 72, 64
2, 3120, Note_on_c, 0, 72, 0
2, 3120, Note_on_c, 0, 73, 64
2, 3180, Note_on_c, 0, 73, 0
2, 3180, Note_on_c, 0, 75, 64
2, 3240, Note_on_c, 0, 75, 0
2, 3240, Note_on_c, 0, 77, 64
2, 3300, Note_on_c, 0, 77, 0
2, 3300, Note_on_c, 0, 73, 64
2, 3360, Note_on_c, 0, 73, 0
2, 3360, Note_on_c, 0, 70, 64
2, 3420, Note_on_c, 0, 70, 0
2, 3420, Note_on_c, 0, 72, 64
2, 3480, Note_on_c, 0, 72, 0
2, 3480, Note_on_c, 0, 73, 64
2, 3720, Note_on_c, 0, 73, 0
2, 3720, Note_on_c, 0, 72, 64
2, 3840, Note_on_c, 0, 72, 0
2, 3840, Note_on_c, 0, 73, 64
2, 4430, Note_on_c, 0, 73, 0
2, 4500, Note_on_c, 0, 75, 64
2, 4560, Note_on_c, 0, 75, 0
2, 4560, Note_on_c, 0, 77, 64
2, 4800, Note_on_c, 0, 77, 0
2, 4800, Note_on_c, 0, 78, 64
2, 5040, Note_on_c, 0, 78, 0
2, 5160, Note_on_c, 0, 70, 64
2, 5280, Note_on_c, 0, 70, 0
2, 5280, Note_on_c, 0, 68, 64
2, 5400, Note_on_c, 0, 68, 0
2, 5400, Note_on_c, 0, 70, 64
2, 5520, Note_on_c, 0, 70, 0
2, 5520, Note_on_c, 0, 71, 64
2, 5640, Note_on_c, 0, 71, 0
2, 5640, Note_on_c, 0, 70, 64
2, 5700, Note_on_c, 0, 70, 0
2, 5700, Note_on_c, 0, 68, 64
2, 5760, Note_on_c, 0, 68, 0
2, 5760, Note_on_c, 0, 70, 64
2, 5820, Note_on_c, 0, 70, 0
2, 5820, Note_on_c, 0, 73, 64
2, 5880, Note_on_c, 0, 73, 0
2, 5880, Note_on_c, 0, 73, 64
2, 5940, Note_on_c, 0, 73, 0
2, 5940, Note_on_c, 0, 70, 64
2, 6000, Note_on_c, 0, 70, 0
2, 6000, Note_on_c, 0, 68, 64
2, 6060, Note_on_c, 0, 68, 0
2, 6060, Note_on_c, 0, 73, 64
2, 6120, Note_on_c, 0, 73, 0
2, 6120, Note_on_c, 0, 73, 64
2, 6180, Note_on_c, 0, 73, 0
2, 6180, Note_on_c, 0, 68, 64
2, 6240, Note_on_c, 0, 68, 0
2, 6240, Note_on_c, 0, 70, 64
2, 6360, Note_on_c, 0, 70, 0
2, 6360, Note_on_c, 0, 73, 64
2, 6480, Note_on_c, 0, 73, 0
2, 6480, Note_on_c, 0, 78, 64
2, 6840, Note_on_c, 0, 78, 0
2, 6840, Note_on_c, 0, 77, 64
2, 7080, Note_on_c, 0, 77, 0
2, 7080, Note_on_c, 0, 75, 64
2, 7140, Note_on_c, 0, 75, 0
2, 7140, Note_on_c, 0, 73, 64
2, 7200, Note_on_c, 0, 73, 0
2, 7200, Note_on_c, 0, 72, 64
2, 7320, Note_on_c, 0, 72, 0
2, 7320, Note_on_c, 0, 75, 64
2, 7440, Note_on_c, 0, 75, 0
2, 7440, Note_on_c, 0, 80, 64
2, 7800, Note_on_c, 0, 80, 0
2, 7800, Note_on_c, 0, 78, 64
2, 7860, Note_on_c, 0, 78, 0
2, 7860, Note_on_c, 0, 77, 64
2, 7920, Note_on_c, 0, 77, 0
2, 7920, Note_on_c, 0, 78, 64
2, 8280, Note_on_c, 0, 78, 0
2, 8280, Note_on_c, 0, 77, 64
2, 8340, Note_on_c, 0, 77, 0
2, 8340, Note_on_c, 0, 75, 64
2, 8400, Note_on_c, 0, 75, 0
2, 8400, Note_on_c, 0, 77, 64
2, 8760, Note_on_c, 0, 77, 0
2, 8760, Note_on_c, 0, 77, 64
2, 8880, Note_on_c, 0, 77, 0
2, 8880, Note_on_c, 0, 75, 64
2, 9000, Note_on_c, 0, 75, 0
2, 9000, Note_on_c, 0, 73, 64
2, 9120, Note_on_c, 0, 73, 0
2, 9120, Note_on_c, 0, 72, 64
2, 9240, Note_on_c, 0, 72, 0
2, 9240, Note_on_c, 0, 68, 64
2, 9360, Note_on_c, 0, 68, 0
2, 9360, Note_on_c, 0, 73, 64
2, 9870, Note_on_c, 0, 73, 0
2, 9900, Note_on_c, 0, 73, 64
2, 10020, Note_on_c, 0, 73, 0
2, 10020, Note_on_c, 0, 72, 64
2, 10080, Note_on_c, 0, 72, 0
2, 10080, Note_on_c, 0, 73, 64
2, 10180, Note_on_c, 0, 73, 0
2, 10200, Note_on_c, 0, 73, 69
2, 10320, Note_on_c, 0, 73, 0
2, 10320, Note_on_c, 0, 78, 69
2, 10440, Note_on_c, 0, 78, 0
2, 10440, Note_on_c, 0, 77, 69
2, 10560, Note_on_c, 0, 77, 0
2, 10560, Note_on_c, 0, 78, 69
2, 10680, Note_on_c, 0, 78, 0
2, 10680, Note_on_c, 0, 77, 64
2, 10740, Note_on_c, 0, 77, 0
2, 10740, Note_on_c, 0, 75, 64
2, 10800, Note_on_c, 0, 75, 0
2, 10800, Note_on_c, 0, 73, 64
2, 11040, Note_on_c, 0, 73, 0
2, 11040, Note_on_c, 0, 75, 64
2, 11280, Note_on_c, 0, 75, 0
2, 11400, Note_on_c, 0, 73, 64
2, 11520, Note_on_c, 0, 73, 0
2, 11520, Note_on_c, 0, 71, 64
2, 11640, Note_on_c, 0, 71, 0
2, 11640, Note_on_c, 0, 70, 64
2, 11760, Note_on_c, 0, 70, 0
2, 11880, Note_on_c, 0, 73, 64
2, 12000, Note_on_c, 0, 73, 0
2, 12000, Note_on_c, 0, 70, 64
2, 12120, Note_on_c, 0, 70, 0
2, 12120, Note_on_c, 0, 70, 64
2, 12240, Note_on_c, 0, 70, 0
2, 12240, Note_on_c, 0, 75, 64
2, 12360, Note_on_c, 0, 75, 0
2, 12360, Note_on_c, 0, 74, 64
2, 12480, Note_on_c, 0, 74, 0
2, 12480, Note_on_c, 0, 75, 64
2, 12720, Note_on_c, 0, 75, 0
2, 12840, Note_on_c, 0, 77, 64
2, 12960, Note_on_c, 0, 77, 0
2, 12960, Note_on_c, 0, 78, 64
2, 13080, Note_on_c, 0, 78, 0
2, 13080, Note_on_c, 0, 80, 64
2, 13200, Note_on_c, 0, 80, 0
2, 13200, Note_on_c, 0, 82, 64
2, 13320, Note_on_c, 0, 82, 0
2, 13320, Note_on_c, 0, 78, 64
2, 13440, Note_on_c, 0, 78, 0
2, 13440, Note_on_c, 0, 75, 64
2, 13680, Note_on_c, 0, 75, 0
2, 13800, Note_on_c, 0, 80, 64
2, 13920, Note_on_c, 0, 80, 0
2, 13920, Note_on_c, 0, 77, 64
2, 14160, Note_on_c, 0, 77, 0
2, 14280, Note_on_c, 0, 77, 64
2, 14400, Note_on_c, 0, 77, 0
2, 14400, Note_on_c, 0, 75, 64
2, 14460, Note_on_c, 0, 75, 0
2, 14460, Note_on_c, 0, 72, 64
2, 14520, Note_on_c, 0, 72, 0
2, 14520, Note_on_c, 0, 73, 64
2, 14580, Note_on_c, 0, 73, 0
2, 14580, Note_on_c, 0, 77, 64
2, 14640, Note_on_c, 0, 77, 0
2, 14640, Note_on_c, 0, 75, 64
2, 14700, Note_on_c, 0, 75, 0
2, 14700, Note_on_c, 0, 72, 64
2, 14760, Note_on_c, 0, 72, 0
2, 14760, Note_on_c, 0, 73, 64
2, 14940, Note_on_c, 0, 73, 0
2, 14940, Note_on_c, 0, 72, 64
2, 15000, Note_on_c, 0, 72, 0
2, 15000, Note_on_c, 0, 73, 64
2, 15240, Note_on_c, 0, 73, 0
2, 15240, Note_on_c, 0, 72, 64
2, 15360, Note_on_c, 0, 72, 0
2, 15360, Note_on_c, 0, 73, 64
2, 15600, Note_on_c, 0, 73, 0
2, 15720, Note_on_c, 0, 72, 64
2, 15840, Note_on_c, 0, 72, 0
2, 15840, Note_on_c, 0, 73, 64
2, 15900, Note_on_c, 0, 73, 0
2, 15900, Note_on_c, 0, 77, 64
2, 15960, Note_on_c, 0, 77, 0
2, 15960, Note_on_c, 0, 77, 64
2, 16020, Note_on_c, 0, 77, 0
2, 16020, Note_on_c, 0, 73, 64
2, 16080, Note_on_c, 0, 73, 0
2, 16080, Note_on_c, 0, 72, 64
2, 16140, Note_on_c, 0, 72, 0
2, 16140, Note_on_c, 0, 77, 64
2, 16200, Note_on_c, 0, 77, 0
2, 16200, Note_on_c, 0, 77, 64
2, 16260, Note_on_c, 0, 77, 0
2, 16260, Note_on_c, 0, 72, 64
2, 16320, Note_on_c, 0, 72, 0
2, 16320, Note_on_c, 0, 73, 64
2, 16440, Note_on_c, 0, 73, 0
2, 16440, Note_on_c, 0, 77, 64
2, 16560, Note_on_c, 0, 77, 0
2, 16560, Note_on_c, 0, 82, 64
2, 16920, Note_on_c, 0, 82, 0
2, 16920, Note_on_c, 0, 80, 64
2, 16980, Note_on_c, 0, 80, 0
2, 16980, Note_on_c, 0, 78, 64
2, 17040, Note_on_c, 0, 78, 0
2, 17040, Note_on_c, 0, 80, 64
2, 17400, Note_on_c, 0, 80, 0
2, 17400, Note_on_c, 0, 78, 64
2, 17460, Note_on_c, 0, 78, 0
2, 17460, Note_on_c, 0, 77, 64
2, 17520, Note_on_c, 0, 77, 0
2, 17520, Note_on_c, 0, 78, 64
2, 17880, Note_on_c, 0, 78, 0
2, 17880, Note_on_c, 0, 78, 64
2, 18000, Note_on_c, 0, 78, 0
2, 18000, Note_on_c, 0, 77, 64
2, 18120, Note_on_c, 0, 77, 0
2, 18120, Note_on_c, 0, 75, 64
2, 18240, Note_on_c, 0, 75, 0
2, 18240, Note_on_c, 0, 74, 64
2, 18360, Note_on_c, 0, 74, 0
2, 18840, Note_on_c, 0, 63, 64
2, 18900, Note_on_c, 0, 63, 0
2, 18900, Note_on_c, 0, 65, 64
2, 18960, Note_on_c, 0, 65, 0
2, 18960, Note_on_c, 0, 66, 64
2, 19020, Note_on_c, 0, 66, 0
2, 19020, Note_on_c, 0, 63, 64
2, 19080, Note_on_c, 0, 63, 0
2, 19080, Note_on_c, 0, 63, 64
2, 19140, Note_on_c, 0, 63, 0
2, 19140, Note_on_c, 0, 66, 64
2, 19200, Note_on_c, 0, 66, 0
2, 19200, Note_on_c, 0, 68, 64
2, 19260, Note_on_c, 0, 68, 0
2, 19260, Note_on_c, 0, 63, 64
2, 19320, Note_on_c, 0, 63, 0
2, 19320, Note_on_c, 0, 63, 64
2, 19380, Note_on_c, 0, 63, 0
2, 19380, Note_on_c, 0, 68, 64
2, 19440, Note_on_c, 0, 68, 0
2, 19440, Note_on_c, 0, 70, 64
2, 19500, Note_on_c, 0, 70, 0
2, 19500, Note_on_c, 0, 63, 64
2, 19560, Note_on_c, 0, 63, 0
2, 19560, Note_on_c, 0, 63, 64
2, 19620, Note_on_c, 0, 63, 0
2, 19620, Note_on_c, 0, 70, 64
2, 19680, Note_on_c, 0, 70, 0
2, 19680, Note_on_c, 0, 71, 64
2, 19740, Note_on_c, 0, 71, 0
2, 19740, Note_on_c, 0, 63, 64
2, 19800, Note_on_c, 0, 63, 0
2, 19800, Note_on_c, 0, 63, 64
2, 19860, Note_on_c, 0, 63, 0
2, 19860, Note_on_c, 0, 71, 64
2, 19920, Note_on_c, 0, 71, 0
2, 19920, Note_on_c, 0, 74, 64
2, 19980, Note_on_c, 0, 74, 0
2, 19980, Note_on_c, 0, 63, 64
2, 20040, Note_on_c, 0, 63, 0
2, 20040, Note_on_c, 0, 63, 64
2, 20100, Note_on_c, 0, 63, 0
2, 20100, Note_on_c, 0, 74, 64
2, 20160, Note_on_c, 0, 74, 0
2, 20160, Note_on_c, 0, 75, 64
2, 20400, Note_on_c, 0, 75, 0
2, 20460, Note_on_c, 0, 77, 64
2, 20520, Note_on_c, 0, 77, 0
2, 20520, Note_on_c, 0, 78, 64
2, 20580, Note_on_c, 0, 78, 0
2, 20580, Note_on_c, 0, 80, 64
2, 20640, Note_on_c, 0, 80, 0
2, 20640, Note_on_c, 0, 74, 64
2, 20700, Note_on_c, 0, 74, 0
2, 20700, Note_on_c, 0, 83, 64
2, 20760, Note_on_c, 0, 83, 0
2, 20760, Note_on_c, 0, 82, 64
2, 20880, Note_on_c, 0, 82, 0
2, 20880, Note_on_c, 0, 80, 72
2, 20902, Note_on_c, 0, 80, 0
2, 20902, Note_on_c, 0, 78, 52
2, 20924, Note_on_c, 0, 78, 0
2, 20924, Note_on_c, 0, 80, 55
2, 20946, Note_on_c, 0, 80, 0
2, 20946, Note_on_c, 0, 78, 58
2, 20968, Note_on_c, 0, 78, 0
2, 20968, Note_on_c, 0, 80, 61
2, 20990, Note_on_c, 0, 80, 0
2, 20990, Note_on_c, 0, 78, 65
2, 21000, Note_on_c, 0, 77, 64
2, 21012, Note_on_c, 0, 78, 0
2, 21060, Note_on_c, 0, 77, 0
2, 21060, Note_on_c, 0, 75, 64
2, 21110, Note_on_c, 0, 75, 0
2, 21120, Note_on_c, 0, 75, 64
2, 21240, Note_on_c, 0, 75, 0
2, 21240, Note_on_c, 0, 78, 64
2, 21360, Note_on_c, 0, 78, 0
2, 21360, Note_on_c, 0, 83, 64
2, 21480, Note_on_c, 0, 83, 0
2, 21480, Note_on_c, 0, 82, 64
2, 21600, Note_on_c, 0, 82, 0
2, 21600, Note_on_c, 0, 83, 64
2, 22200, Note_on_c, 0, 83, 0
2, 22200, Note_on_c, 0, 77, 64
2, 22320, Note_on_c, 0, 77, 0
2, 22320, Note_on_c, 0, 82, 64
2, 22440, Note_on_c, 0, 82, 0
2, 22440, Note_on_c, 0, 80, 64
2, 22560, Note_on_c, 0, 80, 0
2, 22560, Note_on_c, 0, 82, 64
2, 23150, Note_on_c, 0, 82, 0
2, 23160, Note_on_c, 0, 82, 64
2, 23280, Note_on_c, 0, 82, 0
2, 23280, Note_on_c, 0, 80, 64
2, 23400, Note_on_c, 0, 80, 0
2, 23400, Note_on_c, 0, 78, 64
2, 23520, Note_on_c, 0, 78, 0
2, 23520, Note_on_c, 0, 77, 64
2, 23760, Note_on_c, 0, 77, 0
2, 23760, Note_on_c, 0, 76, 64
2, 24060, Note_on_c, 0, 76, 0
2, 24060, Note_on_c, 0, 73, 64
2, 24120, Note_on_c, 0, 73, 0
2, 24120, Note_on_c, 0, 73, 64
2, 24180, Note_on_c, 0, 73, 0
2, 24180, Note_on_c, 0, 76, 64
2, 24240, Note_on_c, 0, 76, 0
2, 24240, Note_on_c, 0, 75, 64
2, 24300, Note_on_c, 0, 75, 0
2, 24300, Note_on_c, 0, 71, 64
2, 24360, Note_on_c, 0, 71, 0
2, 24360, Note_on_c, 0, 71, 64
2, 24420, Note_on_c, 0, 71, 0
2, 24420, Note_on_c, 0, 75, 64
2, 24480, Note_on_c, 0, 75, 0
2, 24480, Note_on_c, 0, 75, 64
2, 24540, Note_on_c, 0, 75, 0
2, 24540, Note_on_c, 0, 71, 64
2, 24600, Note_on_c, 0, 71, 0
2, 24600, Note_on_c, 0, 71, 64
2, 24660, Note_on_c, 0, 71, 0
2, 24660, Note_on_c, 0, 75, 64
2, 24720, Note_on_c, 0, 75, 0
2, 24720, Note_on_c, 0, 73, 64
2, 24780, Note_on_c, 0, 73, 0
2, 24780, Note_on_c, 0, 70, 64
2, 24840, Note_on_c, 0, 70, 0
2, 24840, Note_on_c, 0, 70, 64
2, 24900, Note_on_c, 0, 70, 0
2, 24900, Note_on_c, 0, 73, 64
2, 24960, Note_on_c, 0, 73, 0
2, 24960, Note_on_c, 0, 73, 64
2, 25020, Note_on_c, 0, 73, 0
2, 25020, Note_on_c, 0, 70, 64
2, 25080, Note_on_c, 0, 70, 0
2, 25080, Note_on_c, 0, 70, 64
2, 25140, Note_on_c, 0, 70, 0
2, 25140, Note_on_c, 0, 73, 64
2, 25200, Note_on_c, 0, 73, 0
2, 25200, Note_on_c, 0, 71, 64
2, 25260, Note_on_c, 0, 71, 0
2, 25260, Note_on_c, 0, 68, 64
2, 25320, Note_on_c, 0, 68, 0
2, 25320, Note_on_c, 0, 68, 64
2, 25380, Note_on_c, 0, 68, 0
2, 25380, Note_on_c, 0, 71, 64
2, 25440, Note_on_c, 0, 71, 0
2, 25440, Note_on_c, 0, 71, 64
2, 25500, Note_on_c, 0, 71, 0
2, 25500, Note_on_c, 0, 68, 64
2, 25560, Note_on_c, 0, 68, 0
2, 25560, Note_on_c, 0, 68, 64
2, 25620, Note_on_c, 0, 68, 0
2, 25620, Note_on_c, 0, 71, 64
2, 25680, Note_on_c, 0, 71, 0
2, 25680, Note_on_c, 0, 70, 64
2, 25740, Note_on_c, 0, 70, 0
2, 25740, Note_on_c, 0, 71, 64
2, 25800, Note_on_c, 0, 71, 0
2, 25800, Note_on_c, 0, 73, 64
2, 25860, Note_on_c, 0, 73, 0
2, 25860, Note_on_c, 0, 68, 64
2, 25920, Note_on_c, 0, 68, 0
2, 25920, Note_on_c, 0, 70, 64
2, 26040, Note_on_c, 0, 70, 0
2, 26040, Note_on_c, 0, 73, 64
2, 26160, Note_on_c, 0, 73, 0
2, 26160, Note_on_c, 0, 75, 64
2, 26280, Note_on_c, 0, 75, 0
2, 26280, Note_on_c, 0, 76, 64
2, 26460, Note_on_c, 0, 76, 0
2, 26460, Note_on_c, 0, 75, 64
2, 26520, Note_on_c, 0, 75, 0
2, 26520, Note_on_c, 0, 73, 64
2, 26580, Note_on_c, 0, 73, 0
2, 26580, Note_on_c, 0, 76, 64
2, 26640, Note_on_c, 0, 76, 0
2, 26640, Note_on_c, 0, 75, 64
2, 26700, Note_on_c, 0, 75, 0
2, 26700, Note_on_c, 0, 71, 64
2, 26760, Note_on_c, 0, 71, 0
2, 26760, Note_on_c, 0, 71, 64
2, 26820, Note_on_c, 0, 71, 0
2, 26820, Note_on_c, 0, 75, 64
2, 26880, Note_on_c, 0, 75, 0
2, 26880, Note_on_c, 0, 76, 64
2, 26940, Note_on_c, 0, 76, 0
2, 26940, Note_on_c, 0, 71, 64
2, 27000, Note_on_c, 0, 71, 0
2, 27000, Note_on_c, 0, 71, 64
2, 27060, Note_on_c, 0, 71, 0
2, 27060, Note_on_c, 0, 76, 64
2, 27120, Note_on_c, 0, 76, 0
2, 27120, Note_on_c, 0, 78, 64
2, 27180, Note_on_c, 0, 78, 0
2, 27180, Note_on_c, 0, 71, 64
2, 27240, Note_on_c, 0, 71, 0
2, 27240, Note_on_c, 0, 71, 64
2, 27300, Note_on_c, 0, 71, 0
2, 27300, Note_on_c, 0, 78, 64
2, 27360, Note_on_c, 0, 78, 0
2, 27360, Note_on_c, 0, 80, 64
2, 27420, Note_on_c, 0, 80, 0
2, 27420, Note_on_c, 0, 71, 64
2, 27480, Note_on_c, 0, 71, 0
2, 27480, Note_on_c, 0, 71, 64
2, 27540, Note_on_c, 0, 71, 0
2, 27540, Note_on_c, 0, 80, 64
2, 27600, Note_on_c, 0, 80, 0
2, 27600, Note_on_c, 0, 82, 64
2, 27660, Note_on_c, 0, 82, 0
2, 27660, Note_on_c, 0, 71, 64
2, 27720, Note_on_c, 0, 71, 0
2, 27720, Note_on_c, 0, 71, 64
2, 27780, Note_on_c, 0, 71, 0
2, 27780, Note_on_c, 0, 82, 64
2, 27840, Note_on_c, 0, 82, 0
2, 27840, Note_on_c, 0, 83, 64
2, 27960, Note_on_c, 0, 83, 0
2, 28440, Note_on_c, 0, 75, 64
2, 28560, Note_on_c, 0, 75, 0
2, 28560, Note_on_c, 0, 80, 64
2, 28680, Note_on_c, 0, 80, 0
2, 28680, Note_on_c, 0, 79, 64
2, 28800, Note_on_c, 0, 79, 0
2, 28800, Note_on_c, 0, 80, 64
2, 28920, Note_on_c, 0, 80, 0
2, 28920, Note_on_c, 0, 82, 64
2, 29040, Note_on_c, 0, 82, 0
2, 29040, Note_on_c, 0, 83, 64
2, 29160, Note_on_c, 0, 83, 0
2, 29160, Note_on_c, 0, 80, 64
2, 29280, Note_on_c, 0, 80, 0
2, 29280, Note_on_c, 0, 77, 64
2, 29400, Note_on_c, 0, 77, 0
2, 29400, Note_on_c, 0, 73, 69
2, 29520, Note_on_c, 0, 73, 0
2, 29520, Note_on_c, 0, 78, 69
2, 29640, Note_on_c, 0, 78, 0
2, 29640, Note_on_c, 0, 77, 69
2, 29760, Note_on_c, 0, 77, 0
2, 29760, Note_on_c, 0, 78, 69
2, 29880, Note_on_c, 0, 78, 0
2, 29880, Note_on_c, 0, 77, 64
2, 29940, Note_on_c, 0, 77, 0
2, 29940, Note_on_c, 0, 75, 64
2, 29990, Note_on_c, 0, 75, 0
2, 30000, Note_on_c, 0, 75, 72
2, 30022, Note_on_c, 0, 75, 0
2, 30022, Note_on_c, 0, 73, 50
2, 30044, Note_on_c, 0, 73, 0
2, 30044, Note_on_c, 0, 75, 52
2, 30066, Note_on_c, 0, 75, 0
2, 30066, Note_on_c, 0, 73, 55
2, 30088, Note_on_c, 0, 73, 0
2, 30088, Note_on_c, 0, 75, 57
2, 30110, Note_on_c, 0, 75, 0
2, 30110, Note_on_c, 0, 73, 59
2, 30132, Note_on_c, 0, 73, 0
2, 30132, Note_on_c, 0, 75, 61
2, 30154, Note_on_c, 0, 75, 0
2, 30154, Note_on_c, 0, 73, 63
2, 30176, Note_on_c, 0, 73, 0
2, 30180, Note_on_c, 0, 71, 64
2, 30210, Note_on_c, 0, 71, 0
2, 30210, Note_on_c, 0, 73, 64
2, 30240, Note_on_c, 0, 73, 0
2, 30240, Note_on_c, 0, 75, 64
2, 30480, Note_on_c, 0, 75, 0
2, 30600, Note_on_c, 0, 73, 64
2, 30720, Note_on_c, 0, 73, 0
2, 30720, Note_on_c, 0, 71, 64
2, 30840, Note_on_c, 0, 71, 0
2, 30840, Note_on_c, 0, 70, 64
2, 30960, Note_on_c, 0, 70, 0
2, 30960, Note_on_c, 0, 68, 64
2, 31080, Note_on_c, 0, 68, 0
2, 31080, Note_on_c, 0, 73, 64
2, 31200, Note_on_c, 0, 73, 0
2, 31200, Note_on_c, 0, 70, 64
2, 31260, Note_on_c, 0, 70, 0
2, 31260, Note_on_c, 0, 73, 64
2, 31320, Note_on_c, 0, 73, 0
2, 31320, Note_on_c, 0, 73, 64
2, 31380, Note_on_c, 0, 73, 0
2, 31380, Note_on_c, 0, 70, 64
2, 31440, Note_on_c, 0, 70, 0
2, 31440, Note_on_c, 0, 68, 64
2, 31500, Note_on_c, 0, 68, 0
2, 31500, Note_on_c, 0, 73, 64
2, 31560, Note_on_c, 0, 73, 0
2, 31560, Note_on_c, 0, 73, 64
2, 31620, Note_on_c, 0, 73, 0
2, 31620, Note_on_c, 0, 68, 64
2, 31680, Note_on_c, 0, 68, 0
2, 31680, Note_on_c, 0, 70, 64
2, 31800, Note_on_c, 0, 70, 0
2, 31800, Note_on_c, 0, 73, 64
2, 31920, Note_on_c, 0, 73, 0
2, 31920, Note_on_c, 0, 78, 64
2, 32400, Note_on_c, 0, 78, 0
2, 32400, Note_on_c, 0, 77, 64
2, 32640, Note_on_c, 0, 77, 0
2, 32640, Note_on_c, 0, 78, 64
2, 33600, Note_on_c, 0, 78, 0
2, 33600, End_track
3, 0, Start_track
3, 0, MIDI_port, 0
3, 0, Title_t, "RH L/ LH H"
3, 0, Program_c, 1, 6
3, 2040, Note_on_c, 1, 66, 64
3, 2160, Note_on_c, 1, 66, 0
3, 2160, Note_on_c, 1, 73, 69
3, 2280, Note_on_c, 1, 73, 0
3, 2280, Note_on_c, 1, 72, 69
3, 2400, Note_on_c, 1, 72, 0
3, 2400, Note_on_c, 1, 73, 69
3, 2520, Note_on_c, 1, 73, 0
3, 2520, Note_on_c, 1, 72, 64
3, 2580, Note_on_c, 1, 72, 0
3, 2580, Note_on_c, 1, 70, 64
3, 2630, Note_on_c, 1, 70, 0
3, 2640, Note_on_c, 1, 70, 72
3, 2662, Note_on_c, 1, 70, 0
3, 2662, Note_on_c, 1, 68, 50
3, 2684, Note_on_c, 1, 68, 0
3, 2684, Note_on_c, 1, 70, 52
3, 2706, Note_on_c, 1, 70, 0
3, 2706, Note_on_c, 1, 68, 55
3, 2728, Note_on_c, 1, 68, 0
3, 2728, Note_on_c, 1, 70, 57
3, 2750, Note_on_c, 1, 70, 0
3, 2750, Note_on_c, 1, 68, 59
3, 2772, Note_on_c, 1, 68, 0
3, 2772, Note_on_c, 1, 70, 61
3, 2794, Note_on_c, 1, 70, 0
3, 2794, Note_on_c, 1, 68, 63
3, 2816, Note_on_c, 1, 68, 0
3, 2820, Note_on_c, 1, 66, 64
3, 2850, Note_on_c, 1, 66, 0
3, 2850, Note_on_c, 1, 68, 64
3, 2880, Note_on_c, 1, 68, 0
3, 2880, Note_on_c, 1, 70, 64
3, 3120, Note_on_c, 1, 70, 0
3, 3240, Note_on_c, 1, 68, 64
3, 3360, Note_on_c, 1, 68, 0
3, 3360, Note_on_c, 1, 66, 64
3, 3480, Note_on_c, 1, 66, 0
3, 3480, Note_on_c, 1, 65, 64
3, 3600, Note_on_c, 1, 65, 0
3, 3600, Note_on_c, 1, 63, 64
3, 3720, Note_on_c, 1, 63, 0
3, 3720, Note_on_c, 1, 68, 64
3, 3840, Note_on_c, 1, 68, 0
3, 3840, Note_on_c, 1, 65, 64
3, 3960, Note_on_c, 1, 65, 0
3, 3960, Note_on_c, 1, 61, 64
3, 4020, Note_on_c, 1, 61, 0
3, 4020, Note_on_c, 1, 71, 64
3, 4080, Note_on_c, 1, 71, 0
3, 4080, Note_on_c, 1, 70, 64
3, 4140, Note_on_c, 1, 70, 0
3, 4140, Note_on_c, 1, 71, 64
3, 4200, Note_on_c, 1, 71, 0
3, 4200, Note_on_c, 1, 73, 64
3, 4260, Note_on_c, 1, 73, 0
3, 4260, Note_on_c, 1, 68, 64
3, 4320, Note_on_c, 1, 68, 0
3, 4320, Note_on_c, 1, 70, 64
3, 4380, Note_on_c, 1, 70, 0
3, 4380, Note_on_c, 1, 71, 64
3, 4440, Note_on_c, 1, 71, 0
3, 4440, Note_on_c, 1, 73, 64
3, 4620, Note_on_c, 1, 73, 0
3, 4620, Note_on_c, 1, 71, 64
3, 4680, Note_on_c, 1, 71, 0
3, 4680, Note_on_c, 1, 70, 64
3, 4740, Note_on_c, 1, 70, 0
3, 4740, Note_on_c, 1, 68, 64
3, 4800, Note_on_c, 1, 68, 0
3, 4800, Note_on_c, 1, 66, 64
3, 4860, Note_on_c, 1, 66, 0
3, 4860, Note_on_c, 1, 68, 64
3, 4920, Note_on_c, 1, 68, 0
3, 4920, Note_on_c, 1, 70, 64
3, 4980, Note_on_c, 1, 70, 0
3, 4980, Note_on_c, 1, 65, 64
3, 5040, Note_on_c, 1, 65, 0
3, 5040, Note_on_c, 1, 66, 64
3, 5100, Note_on_c, 1, 66, 0
3, 5100, Note_on_c, 1, 68, 64
3, 5160, Note_on_c, 1, 68, 0
3, 5220, Note_on_c, 1, 66, 64
3, 5280, Note_on_c, 1, 66, 0
3, 5280, Note_on_c, 1, 63, 64
3, 5340, Note_on_c, 1, 63, 0
3, 5340, Note_on_c, 1, 65, 64
3, 5400, Note_on_c, 1, 65, 0
3, 5400, Note_on_c, 1, 66, 64
3, 5640, Note_on_c, 1, 66, 0
3, 5640, Note_on_c, 1, 65, 64
3, 5760, Note_on_c, 1, 65, 0
3, 5760, Note_on_c, 1, 66, 64
3, 6000, Note_on_c, 1, 66, 0
3, 6120, Note_on_c, 1, 65, 64
3, 6240, Note_on_c, 1, 65, 0
3, 6240, Note_on_c, 1, 66, 64
3, 6480, Note_on_c, 1, 66, 0
3, 6600, Note_on_c, 1, 70, 64
3, 6720, Note_on_c, 1, 70, 0
3, 6720, Note_on_c, 1, 75, 64
3, 6780, Note_on_c, 1, 75, 0
3, 6780, Note_on_c, 1, 68, 64
3, 6840, Note_on_c, 1, 68, 0
3, 6840, Note_on_c, 1, 68, 64
3, 6900, Note_on_c, 1, 68, 0
3, 6900, Note_on_c, 1, 73, 64
3, 6960, Note_on_c, 1, 73, 0
3, 6960, Note_on_c, 1, 70, 64
3, 7020, Note_on_c, 1, 70, 0
3, 7020, Note_on_c, 1, 66, 64
3, 7080, Note_on_c, 1, 66, 0
3, 7080, Note_on_c, 1, 66, 64
3, 7140, Note_on_c, 1, 66, 0
3, 7140, Note_on_c, 1, 70, 64
3, 7200, Note_on_c, 1, 70, 0
3, 7200, Note_on_c, 1, 68, 64
3, 7440, Note_on_c, 1, 68, 0
3, 7560, Note_on_c, 1, 72, 64
3, 7680, Note_on_c, 1, 72, 0
3, 7680, Note_on_c, 1, 70, 64
3, 7920, Note_on_c, 1, 70, 0
3, 8040, Note_on_c, 1, 70, 64
3, 8160, Note_on_c, 1, 70, 0
3, 8160, Note_on_c, 1, 68, 64
3, 8400, Note_on_c, 1, 68, 0
3, 8520, Note_on_c, 1, 68, 64
3, 8640, Note_on_c, 1, 68, 0
3, 8640, Note_on_c, 1, 66, 64
3, 8940, Note_on_c, 1, 66, 0
3, 8940, Note_on_c, 1, 68, 64
3, 9000, Note_on_c, 1, 68, 0
3, 9000, Note_on_c, 1, 70, 64
3, 9060, Note_on_c, 1, 70, 0
3, 9060, Note_on_c, 1, 66, 64
3, 9120, Note_on_c, 1, 66, 0
3, 9120, Note_on_c, 1, 63, 64
3, 9360, Note_on_c, 1, 63, 0
3, 9480, Note_on_c, 1, 68, 64
3, 9600, Note_on_c, 1, 68, 0
3, 9600, Note_on_c, 1, 66, 64
3, 9720, Note_on_c, 1, 66, 0
3, 9720, Note_on_c, 1, 65, 64
3, 9840, Note_on_c, 1, 65, 0
3, 9840, Note_on_c, 1, 63, 64
3, 9960, Note_on_c, 1, 63, 0
3, 9960, Note_on_c, 1, 63, 64
3, 10080, Note_on_c, 1, 63, 0
3, 10080, Note_on_c, 1, 65, 64
3, 10140, Note_on_c, 1, 65, 0
3, 10140, Note_on_c, 1, 68, 64
3, 10200, Note_on_c, 1, 68, 0
3, 10260, Note_on_c, 1, 71, 64
3, 10320, Note_on_c, 1, 71, 0
3, 10320, Note_on_c, 1, 70, 64
3, 10380, Note_on_c, 1, 70, 0
3, 10380, Note_on_c, 1, 71, 64
3, 10440, Note_on_c, 1, 71, 0
3, 10440, Note_on_c, 1, 73, 64
3, 10500, Note_on_c, 1, 73, 0
3, 10500, Note_on_c, 1, 68, 64
3, 10560, Note_on_c, 1, 68, 0
3, 10560, Note_on_c, 1, 70, 64
3, 10620, Note_on_c, 1, 70, 0
3, 10620, Note_on_c, 1, 71, 64
3, 10680, Note_on_c, 1, 71, 0
3, 10680, Note_on_c, 1, 73, 64
3, 10800, Note_on_c, 1, 73, 0
3, 10860, Note_on_c, 1, 71, 64
3, 10920, Note_on_c, 1, 71, 0
3, 10920, Note_on_c, 1, 70, 64
3, 10980, Note_on_c, 1, 70, 0
3, 10980, Note_on_c, 1, 68, 64
3, 11040, Note_on_c, 1, 68, 0
3, 11040, Note_on_c, 1, 66, 64
3, 11100, Note_on_c, 1, 66, 0
3, 11100, Note_on_c, 1, 68, 64
3, 11160, Note_on_c, 1, 68, 0
3, 11160, Note_on_c, 1, 70, 64
3, 11220, Note_on_c, 1, 70, 0
3, 11220, Note_on_c, 1, 65, 64
3, 11280, Note_on_c, 1, 65, 0
3, 11280, Note_on_c, 1, 66, 64
3, 11340, Note_on_c, 1, 66, 0
3, 11340, Note_on_c, 1, 68, 64
3, 11400, Note_on_c, 1, 68, 0
3, 11400, Note_on_c, 1, 70, 64
3, 11460, Note_on_c, 1, 70, 0
3, 11460, Note_on_c, 1, 65, 64
3, 11520, Note_on_c, 1, 65, 0
3, 11520, Note_on_c, 1, 66, 64
3, 11760, Note_on_c, 1, 66, 0
3, 11760, Note_on_c, 1, 68, 64
3, 12120, Note_on_c, 1, 68, 0
3, 12120, Note_on_c, 1, 66, 64
3, 12240, Note_on_c, 1, 66, 0
3, 12600, Note_on_c, 1, 70, 64
3, 12720, Note_on_c, 1, 70, 0
3, 12720, Note_on_c, 1, 75, 64
3, 12840, Note_on_c, 1, 75, 0
3, 12840, Note_on_c, 1, 74, 64
3, 12960, Note_on_c, 1, 74, 0
3, 12960, Note_on_c, 1, 75, 64
3, 13080, Note_on_c, 1, 75, 0
3, 13080, Note_on_c, 1, 77, 64
3, 13200, Note_on_c, 1, 77, 0
3, 13200, Note_on_c, 1, 78, 64
3, 13320, Note_on_c, 1, 78, 0
3, 13320, Note_on_c, 1, 75, 64
3, 13440, Note_on_c, 1, 75, 0
3, 13440, Note_on_c, 1, 72, 64
3, 13560, Note_on_c, 1, 72, 0
3, 13560, Note_on_c, 1, 68, 69
3, 13680, Note_on_c, 1, 68, 0
3, 13680, Note_on_c, 1, 73, 69
3, 13800, Note_on_c, 1, 73, 0
3, 13800, Note_on_c, 1, 72, 69
3, 13920, Note_on_c, 1, 72, 0
3, 13920, Note_on_c, 1, 73, 69
3, 14040, Note_on_c, 1, 73, 0
3, 14040, Note_on_c, 1, 72, 64
3, 14100, Note_on_c, 1, 72, 0
3, 14100, Note_on_c, 1, 70, 64
3, 14160, Note_on_c, 1, 70, 0
3, 14160, Note_on_c, 1, 70, 72
3, 14182, Note_on_c, 1, 70, 0
3, 14182, Note_on_c, 1, 68, 50
3, 14204, Note_on_c, 1, 68, 0
3, 14204, Note_on_c, 1, 70, 52
3, 14226, Note_on_c, 1, 70, 0
3, 14226, Note_on_c, 1, 68, 55
3, 14248, Note_on_c, 1, 68, 0
3, 14248, Note_on_c, 1, 70, 57
3, 14270, Note_on_c, 1, 70, 0
3, 14270, Note_on_c, 1, 68, 59
3, 14292, Note_on_c, 1, 68, 0
3, 14292, Note_on_c, 1, 70, 61
3, 14314, Note_on_c, 1, 70, 0
3, 14314, Note_on_c, 1, 68, 63
3, 14336, Note_on_c, 1, 68, 0
3, 14340, Note_on_c, 1, 66, 64
3, 14370, Note_on_c, 1, 66, 0
3, 14370, Note_on_c, 1, 68, 64
3, 14400, Note_on_c, 1, 68, 0
3, 14400, Note_on_c, 1, 70, 64
3, 14640, Note_on_c, 1, 70, 0
3, 14760, Note_on_c, 1, 68, 64
3, 14880, Note_on_c, 1, 68, 0
3, 14880, Note_on_c, 1, 66, 64
3, 15000, Note_on_c, 1, 66, 0
3, 15000, Note_on_c, 1, 65, 64
3, 15120, Note_on_c, 1, 65, 0
3, 15120, Note_on_c, 1, 63, 64
3, 15240, Note_on_c, 1, 63, 0
3, 15240, Note_on_c, 1, 68, 64
3, 15360, Note_on_c, 1, 68, 0
3, 15360, Note_on_c, 1, 65, 64
3, 15420, Note_on_c, 1, 65, 0
3, 15420, Note_on_c, 1, 68, 64
3, 15480, Note_on_c, 1, 68, 0
3, 15480, Note_on_c, 1, 68, 64
3, 15540, Note_on_c, 1, 68, 0
3, 15540, Note_on_c, 1, 65, 64
3, 15600, Note_on_c, 1, 65, 0
3, 15600, Note_on_c, 1, 63, 64
3, 15660, Note_on_c, 1, 63, 0
3, 15660, Note_on_c, 1, 68, 64
3, 15720, Note_on_c, 1, 68, 0
3, 15720, Note_on_c, 1, 68, 64
3, 15780, Note_on_c, 1, 68, 0
3, 15780, Note_on_c, 1, 63, 64
3, 15840, Note_on_c, 1, 63, 0
3, 15840, Note_on_c, 1, 65, 64
3, 16080, Note_on_c, 1, 65, 0
3, 16200, Note_on_c, 1, 69, 64
3, 16320, Note_on_c, 1, 69, 0
3, 16320, Note_on_c, 1, 70, 64
3, 16560, Note_on_c, 1, 70, 0
3, 16680, Note_on_c, 1, 73, 64
3, 16800, Note_on_c, 1, 73, 0
3, 16800, Note_on_c, 1, 71, 64
3, 17040, Note_on_c, 1, 71, 0
3, 17160, Note_on_c, 1, 71, 64
3, 17280, Note_on_c, 1, 71, 0
3, 17280, Note_on_c, 1, 70, 64
3, 17520, Note_on_c, 1, 70, 0
3, 17640, Note_on_c, 1, 70, 64
3, 17760, Note_on_c, 1, 70, 0
3, 17760, Note_on_c, 1, 68, 64
3, 18300, Note_on_c, 1, 68, 0
3, 18300, Note_on_c, 1, 71, 64
3, 18360, Note_on_c, 1, 71, 0
3, 18360, Note_on_c, 1, 70, 64
3, 18420, Note_on_c, 1, 70, 0
3, 18420, Note_on_c, 1, 68, 64
3, 18480, Note_on_c, 1, 68, 0
3, 18480, Note_on_c, 1, 66, 64
3, 18540, Note_on_c, 1, 66, 0
3, 18540, Note_on_c, 1, 68, 64
3, 18600, Note_on_c, 1, 68, 0
3, 18600, Note_on_c, 1, 70, 64
3, 18660, Note_on_c, 1, 70, 0
3, 18660, Note_on_c, 1, 65, 64
3, 18720, Note_on_c, 1, 65, 0
3, 18720, Note_on_c, 1, 66, 64
3, 18780, Note_on_c, 1, 66, 0
3, 18780, Note_on_c, 1, 68, 64
3, 18840, Note_on_c, 1, 68, 0
3, 18840, Note_on_c, 1, 70, 64
3, 18960, Note_on_c, 1, 70, 0
3, 19080, Note_on_c, 1, 75, 64
3, 19200, Note_on_c, 1, 75, 0
3, 19200, Note_on_c, 1, 75, 64
3, 19920, Note_on_c, 1, 75, 0
3, 19920, Note_on_c, 1, 68, 64
3, 20220, Note_on_c, 1, 68, 0
3, 20220, Note_on_c, 1, 66, 64
3, 20280, Note_on_c, 1, 66, 0
3, 20280, Note_on_c, 1, 68, 64
3, 20340, Note_on_c, 1, 68, 0
3, 20340, Note_on_c, 1, 70, 64
3, 20400, Note_on_c, 1, 70, 0
3, 20400, Note_on_c, 1, 71, 64
3, 20640, Note_on_c, 1, 71, 0
3, 20640, Note_on_c, 1, 70, 64
3, 20760, Note_on_c, 1, 70, 0
3, 20820, Note_on_c, 1, 75, 64
3, 21000, Note_on_c, 1, 75, 0
3, 21000, Note_on_c, 1, 74, 64
3, 21120, Note_on_c, 1, 74, 0
3, 21720, Note_on_c, 1, 75, 64
3, 21840, Note_on_c, 1, 75, 0
3, 21840, Note_on_c, 1, 80, 64
3, 21960, Note_on_c, 1, 80, 0
3, 21960, Note_on_c, 1, 78, 64
3, 22080, Note_on_c, 1, 78, 0
3, 22080, Note_on_c, 1, 80, 64
3, 22680, Note_on_c, 1, 80, 0
3, 22680, Note_on_c, 1, 73, 64
3, 22800, Note_on_c, 1, 73, 0
3, 22800, Note_on_c, 1, 78, 64
3, 22920, Note_on_c, 1, 78, 0
3, 22920, Note_on_c, 1, 77, 64
3, 23040, Note_on_c, 1, 77, 0
3, 23040, Note_on_c, 1, 78, 64
3, 23160, Note_on_c, 1, 78, 0
3, 23160, Note_on_c, 1, 73, 64
3, 23280, Note_on_c, 1, 73, 0
3, 23280, Note_on_c, 1, 75, 64
3, 23580, Note_on_c, 1, 75, 0
3, 23580, Note_on_c, 1, 68, 64
3, 23640, Note_on_c, 1, 68, 0
3, 23640, Note_on_c, 1, 68, 64
3, 23700, Note_on_c, 1, 68, 0
3, 23700, Note_on_c, 1, 73, 64
3, 23760, Note_on_c, 1, 73, 0
3, 23760, Note_on_c, 1, 73, 64
3, 23820, Note_on_c, 1, 73, 0
3, 23820, Note_on_c, 1, 68, 64
3, 23880, Note_on_c, 1, 68, 0
3, 23880, Note_on_c, 1, 68, 64
3, 23940, Note_on_c, 1, 68, 0
3, 23940, Note_on_c, 1, 71, 64
3, 24000, Note_on_c, 1, 71, 0
3, 24000, Note_on_c, 1, 70, 64
3, 24480, Note_on_c, 1, 70, 0
3, 24480, Note_on_c, 1, 68, 64
3, 24960, Note_on_c, 1, 68, 0
3, 24960, Note_on_c, 1, 66, 64
3, 25440, Note_on_c, 1, 66, 0
3, 25440, Note_on_c, 1, 65, 64
3, 25680, Note_on_c, 1, 65, 0
3, 26040, Note_on_c, 1, 66, 69
3, 26160, Note_on_c, 1, 66, 0
3, 26160, Note_on_c, 1, 71, 69
3, 26280, Note_on_c, 1, 71, 0
3, 26280, Note_on_c, 1, 70, 69
3, 26400, Note_on_c, 1, 70, 0
3, 26400, Note_on_c, 1, 71, 69
3, 26520, Note_on_c, 1, 71, 0
3, 26520, Note_on_c, 1, 70, 64
3, 26580, Note_on_c, 1, 70, 0
3, 26580, Note_on_c, 1, 68, 64
3, 26630, Note_on_c, 1, 68, 0
3, 26640, Note_on_c, 1, 68, 72
3, 26662, Note_on_c, 1, 68, 0
3, 26662, Note_on_c, 1, 66, 50
3, 26684, Note_on_c, 1, 66, 0
3, 26684, Note_on_c, 1, 68, 52
3, 26706, Note_on_c, 1, 68, 0
3, 26706, Note_on_c, 1, 66, 55
3, 26728, Note_on_c, 1, 66, 0
3, 26728, Note_on_c, 1, 68, 57
3, 26750, Note_on_c, 1, 68, 0
3, 26750, Note_on_c, 1, 66, 59
3, 26772, Note_on_c, 1, 66, 0
3, 26772, Note_on_c, 1, 68, 61
3, 26794, Note_on_c, 1, 68, 0
3, 26794, Note_on_c, 1, 66, 63
3, 26816, Note_on_c, 1, 66, 0
3, 26820, Note_on_c, 1, 64, 64
3, 26850, Note_on_c, 1, 64, 0
3, 26850, Note_on_c, 1, 66, 64
3, 26880, Note_on_c, 1, 66, 0
3, 26880, Note_on_c, 1, 68, 64
3, 27120, Note_on_c, 1, 68, 0
3, 27240, Note_on_c, 1, 66, 64
3, 27360, Note_on_c, 1, 66, 0
3, 27360, Note_on_c, 1, 64, 64
3, 27480, Note_on_c, 1, 64, 0
3, 27480, Note_on_c, 1, 63, 64
3, 27600, Note_on_c, 1, 63, 0
3, 27600, Note_on_c, 1, 61, 64
3, 27720, Note_on_c, 1, 61, 0
3, 27720, Note_on_c, 1, 66, 64
3, 27840, Note_on_c, 1, 66, 0
3, 27840, Note_on_c, 1, 63, 64
3, 27960, Note_on_c, 1, 63, 0
3, 27960, Note_on_c, 1, 63, 64
3, 28080, Note_on_c, 1, 63, 0
3, 28080, Note_on_c, 1, 68, 64
3, 28200, Note_on_c, 1, 68, 0
3, 28200, Note_on_c, 1, 67, 64
3, 28320, Note_on_c, 1, 67, 0
3, 28320, Note_on_c, 1, 68, 64
3, 28560, Note_on_c, 1, 68, 0
3, 28680, Note_on_c, 1, 70, 64
3, 28800, Note_on_c, 1, 70, 0
3, 28800, Note_on_c, 1, 71, 64
3, 28920, Note_on_c, 1, 71, 0
3, 28920, Note_on_c, 1, 73, 64
3, 29040, Note_on_c, 1, 73, 0
3, 29040, Note_on_c, 1, 75, 64
3, 29160, Note_on_c, 1, 75, 0
3, 29160, Note_on_c, 1, 71, 64
3, 29280, Note_on_c, 1, 71, 0
3, 29280, Note_on_c, 1, 68, 64
3, 29520, Note_on_c, 1, 68, 0
3, 29640, Note_on_c, 1, 73, 64
3, 29760, Note_on_c, 1, 73, 0
3, 29760, Note_on_c, 1, 70, 64
3, 30000, Note_on_c, 1, 70, 0
3, 30120, Note_on_c, 1, 70, 64
3, 30240, Note_on_c, 1, 70, 0
3, 30240, Note_on_c, 1, 68, 64
3, 30300, Note_on_c, 1, 68, 0
3, 30300, Note_on_c, 1, 65, 64
3, 30360, Note_on_c, 1, 65, 0
3, 30360, Note_on_c, 1, 66, 64
3, 30420, Note_on_c, 1, 66, 0
3, 30420, Note_on_c, 1, 70, 64
3, 30480, Note_on_c, 1, 70, 0
3, 30480, Note_on_c, 1, 68, 64
3, 30540, Note_on_c, 1, 68, 0
3, 30540, Note_on_c, 1, 65, 64
3, 30600, Note_on_c, 1, 65, 0
3, 30600, Note_on_c, 1, 66, 64
3, 30780, Note_on_c, 1, 66, 0
3, 30780, Note_on_c, 1, 65, 64
3, 30840, Note_on_c, 1, 65, 0
3, 30840, Note_on_c, 1, 66, 64
3, 31080, Note_on_c, 1, 66, 0
3, 31080, Note_on_c, 1, 65, 64
3, 31200, Note_on_c, 1, 65, 0
3, 31200, Note_on_c, 1, 66, 64
3, 31440, Note_on_c, 1, 66, 0
3, 31560, Note_on_c, 1, 65, 64
3, 31680, Note_on_c, 1, 65, 0
3, 31680, Note_on_c, 1, 66, 64
3, 31920, Note_on_c, 1, 66, 0
3, 32040, Note_on_c, 1, 70, 64
3, 32160, Note_on_c, 1, 70, 0
3, 32160, Note_on_c, 1, 68, 64
3, 32220, Note_on_c, 1, 68, 0
3, 32220, Note_on_c, 1, 75, 64
3, 32280, Note_on_c, 1, 75, 0
3, 32280, Note_on_c, 1, 75, 64
3, 32340, Note_on_c, 1, 75, 0
3, 32340, Note_on_c, 1, 71, 64
3, 32400, Note_on_c, 1, 71, 0
3, 32400, Note_on_c, 1, 68, 64
3, 32460, Note_on_c, 1, 68, 0
3, 32460, Note_on_c, 1, 73, 64
3, 32520, Note_on_c, 1, 73, 0
3, 32520, Note_on_c, 1, 73, 64
3, 32580, Note_on_c, 1, 73, 0
3, 32580, Note_on_c, 1, 71, 64
3, 32640, Note_on_c, 1, 71, 0
3, 32640, Note_on_c, 1, 70, 64
3, 33600, Note_on_c, 1, 70, 0
3, 33600, End_track
4, 0, Start_track
4, 0, MIDI_port, 0
4, 0, Title_t, "LH L"
4, 0, Program_c, 2, 6
4, 3960, Note_on_c, 2, 49, 69
4, 4080, Note_on_c, 2, 49, 0
4, 4080, Note_on_c, 2, 54, 69
4, 4200, Note_on_c, 2, 54, 0
4, 4200, Note_on_c, 2, 53, 69
4, 4320, Note_on_c, 2, 53, 0
4, 4320, Note_on_c, 2, 54, 69
4, 4440, Note_on_c, 2, 54, 0
4, 4440, Note_on_c, 2, 53, 64
4, 4500, Note_on_c, 2, 53, 0
4, 4500, Note_on_c, 2, 51, 64
4, 4560, Note_on_c, 2, 51, 0
4, 4560, Note_on_c, 2, 51, 72
4, 4582, Note_on_c, 2, 51, 0
4, 4582, Note_on_c, 2, 49, 50
4, 4604, Note_on_c, 2, 49, 0
4, 4604, Note_on_c, 2, 51, 52
4, 4626, Note_on_c, 2, 51, 0
4, 4626, Note_on_c, 2, 49, 55
4, 4648, Note_on_c, 2, 49, 0
4, 4648, Note_on_c, 2, 51, 57
4, 4670, Note_on_c, 2, 51, 0
4, 4670, Note_on_c, 2, 49, 59
4, 4692, Note_on_c, 2, 49, 0
4, 4692, Note_on_c, 2, 51, 61
4, 4714, Note_on_c, 2, 51, 0
4, 4714, Note_on_c, 2, 49, 63
4, 4736, Note_on_c, 2, 49, 0
4, 4740, Note_on_c, 2, 47, 64
4, 4770, Note_on_c, 2, 47, 0
4, 4770, Note_on_c, 2, 49, 64
4, 4800, Note_on_c, 2, 49, 0
4, 4800, Note_on_c, 2, 51, 64
4, 5040, Note_on_c, 2, 51, 0
4, 5160, Note_on_c, 2, 49, 64
4, 5280, Note_on_c, 2, 49, 0
4, 5280, Note_on_c, 2, 47, 64
4, 5400, Note_on_c, 2, 47, 0
4, 5400, Note_on_c, 2, 46, 64
4, 5520, Note_on_c, 2, 46, 0
4, 5520, Note_on_c, 2, 44, 64
4, 5640, Note_on_c, 2, 44, 0
4, 5640, Note_on_c, 2, 49, 64
4, 5760, Note_on_c, 2, 49, 0
4, 5760, Note_on_c, 2, 42, 64
4, 5880, Note_on_c, 2, 42, 0
4, 5880, Note_on_c, 2, 54, 64
4, 6000, Note_on_c, 2, 54, 0
4, 6000, Note_on_c, 2, 53, 64
4, 6120, Note_on_c, 2, 53, 0
4, 6120, Note_on_c, 2, 49, 64
4, 6240, Note_on_c, 2, 49, 0
4, 6240, Note_on_c, 2, 54, 64
4, 6300, Note_on_c, 2, 54, 0
4, 6300, Note_on_c, 2, 58, 64
4, 6360, Note_on_c, 2, 58, 0
4, 6360, Note_on_c, 2, 58, 64
4, 6420, Note_on_c, 2, 58, 0
4, 6420, Note_on_c, 2, 54, 64
4, 6480, Note_on_c, 2, 54, 0
4, 6480, Note_on_c, 2, 51, 64
4, 6540, Note_on_c, 2, 51, 0
4, 6540, Note_on_c, 2, 54, 64
4, 6600, Note_on_c, 2, 54, 0
4, 6600, Note_on_c, 2, 54, 64
4, 6660, Note_on_c, 2, 54, 0
4, 6660, Note_on_c, 2, 51, 64
4, 6720, Note_on_c, 2, 51, 0
4, 6720, Note_on_c, 2, 48, 64
4, 6840, Note_on_c, 2, 48, 0
4, 6840, Note_on_c, 2, 49, 64
4, 6960, Note_on_c, 2, 49, 0
4, 6960, Note_on_c, 2, 54, 64
4, 7260, Note_on_c, 2, 54, 0
4, 7260, Note_on_c, 2, 56, 64
4, 7320, Note_on_c, 2, 56, 0
4, 7320, Note_on_c, 2, 60, 64
4, 7380, Note_on_c, 2, 60, 0
4, 7380, Note_on_c, 2, 56, 64
4, 7440, Note_on_c, 2, 56, 0
4, 7440, Note_on_c, 2, 53, 64
4, 7500, Note_on_c, 2, 53, 0
4, 7500, Note_on_c, 2, 56, 64
4, 7560, Note_on_c, 2, 56, 0
4, 7560, Note_on_c, 2, 56, 64
4, 7620, Note_on_c, 2, 56, 0
4, 7620, Note_on_c, 2, 53, 64
4, 7680, Note_on_c, 2, 53, 0
4, 7680, Note_on_c, 2, 50, 64
4, 7740, Note_on_c, 2, 50, 0
4, 7740, Note_on_c, 2, 58, 64
4, 7800, Note_on_c, 2, 58, 0
4, 7800, Note_on_c, 2, 58, 64
4, 7860, Note_on_c, 2, 58, 0
4, 7860, Note_on_c, 2, 54, 64
4, 7920, Note_on_c, 2, 54, 0
4, 7920, Note_on_c, 2, 51, 64
4, 7980, Note_on_c, 2, 51, 0
4, 7980, Note_on_c, 2, 54, 64
4, 8040, Note_on_c, 2, 54, 0
4, 8040, Note_on_c, 2, 54, 64
4, 8100, Note_on_c, 2, 54, 0
4, 8100, Note_on_c, 2, 51, 64
4, 8160, Note_on_c, 2, 51, 0
4, 8160, Note_on_c, 2, 48, 64
4, 8220, Note_on_c, 2, 48, 0
4, 8220, Note_on_c, 2, 56, 64
4, 8280, Note_on_c, 2, 56, 0
4, 8280, Note_on_c, 2, 56, 64
4, 8340, Note_on_c, 2, 56, 0
4, 8340, Note_on_c, 2, 53, 64
4, 8400, Note_on_c, 2, 53, 0
4, 8400, Note_on_c, 2, 49, 64
4, 8460, Note_on_c, 2, 49, 0
4, 8460, Note_on_c, 2, 53, 64
4, 8520, Note_on_c, 2, 53, 0
4, 8520, Note_on_c, 2, 53, 64
4, 8580, Note_on_c, 2, 53, 0
4, 8580, Note_on_c, 2, 49, 64
4, 8640, Note_on_c, 2, 49, 0
4, 8640, Note_on_c, 2, 46, 64
4, 8700, Note_on_c, 2, 46, 0
4, 8700, Note_on_c, 2, 49, 64
4, 8760, Note_on_c, 2, 49, 0
4, 8760, Note_on_c, 2, 49, 64
4, 8820, Note_on_c, 2, 49, 0
4, 8820, Note_on_c, 2, 46, 64
4, 8880, Note_on_c, 2, 46, 0
4, 8880, Note_on_c, 2, 42, 64
4, 9000, Note_on_c, 2, 42, 0
4, 9000, Note_on_c, 2, 54, 64
4, 9180, Note_on_c, 2, 54, 0
4, 9180, Note_on_c, 2, 54, 64
4, 9240, Note_on_c, 2, 54, 0
4, 9240, Note_on_c, 2, 53, 64
4, 9300, Note_on_c, 2, 53, 0
4, 9300, Note_on_c, 2, 51, 64
4, 9360, Note_on_c, 2, 51, 0
4, 9360, Note_on_c, 2, 49, 64
4, 9420, Note_on_c, 2, 49, 0
4, 9420, Note_on_c, 2, 51, 64
4, 9480, Note_on_c, 2, 51, 0
4, 9480, Note_on_c, 2, 53, 64
4, 9540, Note_on_c, 2, 53, 0
4, 9540, Note_on_c, 2, 49, 64
4, 9600, Note_on_c, 2, 49, 0
4, 9600, Note_on_c, 2, 46, 64
4, 9660, Note_on_c, 2, 46, 0
4, 9660, Note_on_c, 2, 48, 64
4, 9720, Note_on_c, 2, 48, 0
4, 9720, Note_on_c, 2, 49, 64
4, 9780, Note_on_c, 2, 49, 0
4, 9780, Note_on_c, 2, 46, 64
4, 9840, Note_on_c, 2, 46, 0
4, 9840, Note_on_c, 2, 42, 64
4, 9960, Note_on_c, 2, 42, 0
4, 9960, Note_on_c, 2, 44, 64
4, 10080, Note_on_c, 2, 44, 0
4, 10080, Note_on_c, 2, 37, 64
4, 10320, Note_on_c, 2, 37, 0
4, 10680, Note_on_c, 2, 54, 64
4, 10740, Note_on_c, 2, 54, 0
4, 10740, Note_on_c, 2, 56, 64
4, 10800, Note_on_c, 2, 56, 0
4, 10800, Note_on_c, 2, 58, 64
4, 10860, Note_on_c, 2, 58, 0
4, 10860, Note_on_c, 2, 54, 64
4, 10920, Note_on_c, 2, 54, 0
4, 10920, Note_on_c, 2, 54, 64
4, 10980, Note_on_c, 2, 54, 0
4, 10980, Note_on_c, 2, 58, 64
4, 11040, Note_on_c, 2, 58, 0
4, 11040, Note_on_c, 2, 59, 64
4, 11100, Note_on_c, 2, 59, 0
4, 11100, Note_on_c, 2, 54, 64
4, 11160, Note_on_c, 2, 54, 0
4, 11160, Note_on_c, 2, 54, 64
4, 11220, Note_on_c, 2, 54, 0
4, 11220, Note_on_c, 2, 59, 64
4, 11280, Note_on_c, 2, 59, 0
4, 11280, Note_on_c, 2, 61, 64
4, 11340, Note_on_c, 2, 61, 0
4, 11340, Note_on_c, 2, 54, 64
4, 11400, Note_on_c, 2, 54, 0
4, 11400, Note_on_c, 2, 54, 64
4, 11460, Note_on_c, 2, 54, 0
4, 11460, Note_on_c, 2, 61, 64
4, 11520, Note_on_c, 2, 61, 0
4, 11520, Note_on_c, 2, 63, 64
4, 11580, Note_on_c, 2, 63, 0
4, 11580, Note_on_c, 2, 54, 64
4, 11640, Note_on_c, 2, 54, 0
4, 11640, Note_on_c, 2, 54, 64
4, 11700, Note_on_c, 2, 54, 0
4, 11700, Note_on_c, 2, 63, 64
4, 11760, Note_on_c, 2, 63, 0
4, 11760, Note_on_c, 2, 65, 64
4, 11820, Note_on_c, 2, 65, 0
4, 11820, Note_on_c, 2, 54, 64
4, 11880, Note_on_c, 2, 54, 0
4, 11880, Note_on_c, 2, 54, 64
4, 11940, Note_on_c, 2, 54, 0
4, 11940, Note_on_c, 2, 65, 64
4, 12000, Note_on_c, 2, 65, 0
4, 12000, Note_on_c, 2, 66, 64
4, 12060, Note_on_c, 2, 66, 0
4, 12060, Note_on_c, 2, 65, 64
4, 12120, Note_on_c, 2, 65, 0
4, 12120, Note_on_c, 2, 63, 64
4, 12180, Note_on_c, 2, 63, 0
4, 12180, Note_on_c, 2, 61, 64
4, 12240, Note_on_c, 2, 61, 0
4, 12240, Note_on_c, 2, 59, 64
4, 12300, Note_on_c, 2, 59, 0
4, 12300, Note_on_c, 2, 68, 64
4, 12360, Note_on_c, 2, 68, 0
4, 12360, Note_on_c, 2, 68, 64
4, 12420, Note_on_c, 2, 68, 0
4, 12420, Note_on_c, 2, 59, 64
4, 12480, Note_on_c, 2, 59, 0
4, 12480, Note_on_c, 2, 58, 64
4, 12540, Note_on_c, 2, 58, 0
4, 12540, Note_on_c, 2, 66, 64
4, 12600, Note_on_c, 2, 66, 0
4, 12600, Note_on_c, 2, 66, 64
4, 12660, Note_on_c, 2, 66, 0
4, 12660, Note_on_c, 2, 58, 64
4, 12720, Note_on_c, 2, 58, 0
4, 12720, Note_on_c, 2, 56, 64
4, 12780, Note_on_c, 2, 56, 0
4, 12780, Note_on_c, 2, 65, 64
4, 12840, Note_on_c, 2, 65, 0
4, 12840, Note_on_c, 2, 65, 64
4, 12900, Note_on_c, 2, 65, 0
4, 12900, Note_on_c, 2, 56, 64
4, 12960, Note_on_c, 2, 56, 0
4, 12960, Note_on_c, 2, 54, 64
4, 13020, Note_on_c, 2, 54, 0
4, 13020, Note_on_c, 2, 56, 64
4, 13080, Note_on_c, 2, 56, 0
4, 13080, Note_on_c, 2, 54, 64
4, 13140, Note_on_c, 2, 54, 0
4, 13140, Note_on_c, 2, 53, 64
4, 13200, Note_on_c, 2, 53, 0
4, 13200, Note_on_c, 2, 51, 64
4, 13260, Note_on_c, 2, 51, 0
4, 13260, Note_on_c, 2, 53, 64
4, 13320, Note_on_c, 2, 53, 0
4, 13320, Note_on_c, 2, 54, 64
4, 13380, Note_on_c, 2, 54, 0
4, 13380, Note_on_c, 2, 51, 64
4, 13440, Note_on_c, 2, 51, 0
4, 13440, Note_on_c, 2, 56, 64
4, 13500, Note_on_c, 2, 56, 0
4, 13500, Note_on_c, 2, 58, 64
4, 13560, Note_on_c, 2, 58, 0
4, 13560, Note_on_c, 2, 56, 64
4, 13620, Note_on_c, 2, 56, 0
4, 13620, Note_on_c, 2, 54, 64
4, 13680, Note_on_c, 2, 54, 0
4, 13680, Note_on_c, 2, 53, 64
4, 13740, Note_on_c, 2, 53, 0
4, 13740, Note_on_c, 2, 54, 64
4, 13800, Note_on_c, 2, 54, 0
4, 13800, Note_on_c, 2, 56, 64
4, 13860, Note_on_c, 2, 56, 0
4, 13860, Note_on_c, 2, 53, 64
4, 13920, Note_on_c, 2, 53, 0
4, 13920, Note_on_c, 2, 58, 64
4, 13980, Note_on_c, 2, 58, 0
4, 13980, Note_on_c, 2, 60, 64
4, 14040, Note_on_c, 2, 60, 0
4, 14040, Note_on_c, 2, 61, 64
4, 14220, Note_on_c, 2, 61, 0
4, 14220, Note_on_c, 2, 60, 64
4, 14280, Note_on_c, 2, 60, 0
4, 14280, Note_on_c, 2, 58, 64
4, 14340, Note_on_c, 2, 58, 0
4, 14340, Note_on_c, 2, 56, 64
4, 14400, Note_on_c, 2, 56, 0
4, 14400, Note_on_c, 2, 54, 64
4, 14460, Note_on_c, 2, 54, 0
4, 14460, Note_on_c, 2, 56, 64
4, 14520, Note_on_c, 2, 56, 0
4, 14520, Note_on_c, 2, 58, 64
4, 14580, Note_on_c, 2, 58, 0
4, 14580, Note_on_c, 2, 53, 64
4, 14640, Note_on_c, 2, 53, 0
4, 14640, Note_on_c, 2, 54, 64
4, 14700, Note_on_c, 2, 54, 0
4, 14700, Note_on_c, 2, 56, 64
4, 14760, Note_on_c, 2, 56, 0
4, 14760, Note_on_c, 2, 58, 64
4, 14820, Note_on_c, 2, 58, 0
4, 14820, Note_on_c, 2, 54, 64
4, 14880, Note_on_c, 2, 54, 0
4, 14880, Note_on_c, 2, 51, 64
4, 15000, Note_on_c, 2, 51, 0
4, 15000, Note_on_c, 2, 53, 64
4, 15060, Note_on_c, 2, 53, 0
4, 15060, Note_on_c, 2, 54, 64
4, 15120, Note_on_c, 2, 54, 0
4, 15120, Note_on_c, 2, 56, 64
4, 15240, Note_on_c, 2, 56, 0
4, 15240, Note_on_c, 2, 44, 64
4, 15360, Note_on_c, 2, 44, 0
4, 15360, Note_on_c, 2, 49, 64
4, 15480, Note_on_c, 2, 49, 0
4, 15480, Note_on_c, 2, 61, 64
4, 15600, Note_on_c, 2, 61, 0
4, 15600, Note_on_c, 2, 60, 64
4, 15720, Note_on_c, 2, 60, 0
4, 15720, Note_on_c, 2, 56, 64
4, 15840, Note_on_c, 2, 56, 0
4, 15840, Note_on_c, 2, 61, 64
4, 15960, Note_on_c, 2, 61, 0
4, 15960, Note_on_c, 2, 58, 64
4, 16080, Note_on_c, 2, 58, 0
4, 16080, Note_on_c, 2, 57, 64
4, 16200, Note_on_c, 2, 57, 0
4, 16200, Note_on_c, 2, 53, 64
4, 16320, Note_on_c, 2, 53, 0
4, 16320, Note_on_c, 2, 58, 64
4, 16380, Note_on_c, 2, 58, 0
4, 16380, Note_on_c, 2, 61, 64
4, 16440, Note_on_c, 2, 61, 0
4, 16440, Note_on_c, 2, 61, 64
4, 16500, Note_on_c, 2, 61, 0
4, 16500, Note_on_c, 2, 58, 64
4, 16560, Note_on_c, 2, 58, 0
4, 16560, Note_on_c, 2, 54, 64
4, 16620, Note_on_c, 2, 54, 0
4, 16620, Note_on_c, 2, 58, 64
4, 16680, Note_on_c, 2, 58, 0
4, 16680, Note_on_c, 2, 58, 64
4, 16740, Note_on_c, 2, 58, 0
4, 16740, Note_on_c, 2, 54, 64
4, 16800, Note_on_c, 2, 54, 0
4, 16800, Note_on_c, 2, 51, 64
4, 16860, Note_on_c, 2, 51, 0
4, 16860, Note_on_c, 2, 59, 64
4, 16920, Note_on_c, 2, 59, 0
4, 16920, Note_on_c, 2, 59, 64
4, 16980, Note_on_c, 2, 59, 0
4, 16980, Note_on_c, 2, 56, 64
4, 17040, Note_on_c, 2, 56, 0
4, 17040, Note_on_c, 2, 53, 64
4, 17100, Note_on_c, 2, 53, 0
4, 17100, Note_on_c, 2, 56, 64
4, 17160, Note_on_c, 2, 56, 0
4, 17160, Note_on_c, 2, 56, 64
4, 17220, Note_on_c, 2, 56, 0
4, 17220, Note_on_c, 2, 53, 64
4, 17280, Note_on_c, 2, 53, 0
4, 17280, Note_on_c, 2, 50, 64
4, 17340, Note_on_c, 2, 50, 0
4, 17340, Note_on_c, 2, 58, 64
4, 17400, Note_on_c, 2, 58, 0
4, 17400, Note_on_c, 2, 58, 64
4, 17460, Note_on_c, 2, 58, 0
4, 17460, Note_on_c, 2, 54, 64
4, 17520, Note_on_c, 2, 54, 0
4, 17520, Note_on_c, 2, 51, 64
4, 17580, Note_on_c, 2, 51, 0
4, 17580, Note_on_c, 2, 54, 64
4, 17640, Note_on_c, 2, 54, 0
4, 17640, Note_on_c, 2, 54, 64
4, 17700, Note_on_c, 2, 54, 0
4, 17700, Note_on_c, 2, 51, 64
4, 17760, Note_on_c, 2, 51, 0
4, 17760, Note_on_c, 2, 47, 64
4, 17820, Note_on_c, 2, 47, 0
4, 17820, Note_on_c, 2, 51, 64
4, 17880, Note_on_c, 2, 51, 0
4, 17880, Note_on_c, 2, 51, 64
4, 17940, Note_on_c, 2, 51, 0
4, 17940, Note_on_c, 2, 47, 64
4, 18000, Note_on_c, 2, 47, 0
4, 18000, Note_on_c, 2, 44, 64
4, 18060, Note_on_c, 2, 44, 0
4, 18060, Note_on_c, 2, 47, 64
4, 18120, Note_on_c, 2, 47, 0
4, 18120, Note_on_c, 2, 47, 64
4, 18180, Note_on_c, 2, 47, 0
4, 18180, Note_on_c, 2, 44, 64
4, 18240, Note_on_c, 2, 44, 0
4, 18240, Note_on_c, 2, 46, 64
4, 18340, Note_on_c, 2, 46, 0
4, 18360, Note_on_c, 2, 46, 69
4, 18480, Note_on_c, 2, 46, 0
4, 18480, Note_on_c, 2, 51, 69
4, 18600, Note_on_c, 2, 51, 0
4, 18600, Note_on_c, 2, 50, 69
4, 18720, Note_on_c, 2, 50, 0
4, 18720, Note_on_c, 2, 51, 69
4, 18840, Note_on_c, 2, 51, 0
4, 18840, Note_on_c, 2, 49, 64
4, 18900, Note_on_c, 2, 49, 0
4, 18900, Note_on_c, 2, 47, 64
4, 18960, Note_on_c, 2, 47, 0
4, 18960, Note_on_c, 2, 47, 72
4, 18982, Note_on_c, 2, 47, 0
4, 18982, Note_on_c, 2, 46, 50
4, 19004, Note_on_c, 2, 46, 0
4, 19004, Note_on_c, 2, 47, 52
4, 19026, Note_on_c, 2, 47, 0
4, 19026, Note_on_c, 2, 46, 55
4, 19048, Note_on_c, 2, 46, 0
4, 19048, Note_on_c, 2, 47, 57
4, 19070, Note_on_c, 2, 47, 0
4, 19070, Note_on_c, 2, 46, 59
4, 19092, Note_on_c, 2, 46, 0
4, 19092, Note_on_c, 2, 47, 61
4, 19114, Note_on_c, 2, 47, 0
4, 19114, Note_on_c, 2, 46, 63
4, 19136, Note_on_c, 2, 46, 0
4, 19140, Note_on_c, 2, 44, 64
4, 19170, Note_on_c, 2, 44, 0
4, 19170, Note_on_c, 2, 46, 64
4, 19200, Note_on_c, 2, 46, 0
4, 19200, Note_on_c, 2, 47, 64
4, 19440, Note_on_c, 2, 47, 0
4, 19560, Note_on_c, 2, 46, 64
4, 19680, Note_on_c, 2, 46, 0
4, 19680, Note_on_c, 2, 44, 64
4, 19800, Note_on_c, 2, 44, 0
4, 19800, Note_on_c, 2, 42, 64
4, 19920, Note_on_c, 2, 42, 0
4, 19920, Note_on_c, 2, 41, 64
4, 20040, Note_on_c, 2, 41, 0
4, 20040, Note_on_c, 2, 46, 64
4, 20160, Note_on_c, 2, 46, 0
4, 20160, Note_on_c, 2, 39, 64
4, 20280, Note_on_c, 2, 39, 0
4, 20280, Note_on_c, 2, 42, 64
4, 20400, Note_on_c, 2, 42, 0
4, 20400, Note_on_c, 2, 44, 64
4, 20640, Note_on_c, 2, 44, 0
4, 20700, Note_on_c, 2, 53, 64
4, 20760, Note_on_c, 2, 53, 0
4, 20760, Note_on_c, 2, 54, 64
4, 20820, Note_on_c, 2, 54, 0
4, 20820, Note_on_c, 2, 56, 64
4, 20880, Note_on_c, 2, 56, 0
4, 20880, Note_on_c, 2, 58, 64
4, 21000, Note_on_c, 2, 58, 0
4, 21000, Note_on_c, 2, 46, 64
4, 21120, Note_on_c, 2, 46, 0
4, 21120, Note_on_c, 2, 51, 64
4, 21180, Note_on_c, 2, 51, 0
4, 21180, Note_on_c, 2, 58, 64
4, 21240, Note_on_c, 2, 58, 0
4, 21240, Note_on_c, 2, 58, 64
4, 21300, Note_on_c, 2, 58, 0
4, 21300, Note_on_c, 2, 54, 64
4, 21360, Note_on_c, 2, 54, 0
4, 21360, Note_on_c, 2, 51, 64
4, 21420, Note_on_c, 2, 51, 0
4, 21420, Note_on_c, 2, 54, 64
4, 21480, Note_on_c, 2, 54, 0
4, 21480, Note_on_c, 2, 54, 64
4, 21540, Note_on_c, 2, 54, 0
4, 21540, Note_on_c, 2, 51, 64
4, 21600, Note_on_c, 2, 51, 0
4, 21600, Note_on_c, 2, 44, 64
4, 21660, Note_on_c, 2, 44, 0
4, 21660, Note_on_c, 2, 63, 64
4, 21720, Note_on_c, 2, 63, 0
4, 21720, Note_on_c, 2, 63, 64
4, 21780, Note_on_c, 2, 63, 0
4, 21780, Note_on_c, 2, 59, 64
4, 21840, Note_on_c, 2, 59, 0
4, 21840, Note_on_c, 2, 56, 64
4, 21900, Note_on_c, 2, 56, 0
4, 21900, Note_on_c, 2, 59, 64
4, 21960, Note_on_c, 2, 59, 0
4, 21960, Note_on_c, 2, 59, 64
4, 22020, Note_on_c, 2, 59, 0
4, 22020, Note_on_c, 2, 56, 64
4, 22080, Note_on_c, 2, 56, 0
4, 22080, Note_on_c, 2, 53, 64
4, 22140, Note_on_c, 2, 53, 0
4, 22140, Note_on_c, 2, 56, 64
4, 22200, Note_on_c, 2, 56, 0
4, 22200, Note_on_c, 2, 56, 64
4, 22260, Note_on_c, 2, 56, 0
4, 22260, Note_on_c, 2, 53, 64
4, 22320, Note_on_c, 2, 53, 0
4, 22320, Note_on_c, 2, 49, 64
4, 22380, Note_on_c, 2, 49, 0
4, 22380, Note_on_c, 2, 53, 64
4, 22440, Note_on_c, 2, 53, 0
4, 22440, Note_on_c, 2, 53, 64
4, 22500, Note_on_c, 2, 53, 0
4, 22500, Note_on_c, 2, 49, 64
4, 22560, Note_on_c, 2, 49, 0
4, 22560, Note_on_c, 2, 42, 64
4, 22620, Note_on_c, 2, 42, 0
4, 22620, Note_on_c, 2, 61, 64
4, 22680, Note_on_c, 2, 61, 0
4, 22680, Note_on_c, 2, 61, 64
4, 22740, Note_on_c, 2, 61, 0
4, 22740, Note_on_c, 2, 58, 64
4, 22800, Note_on_c, 2, 58, 0
4, 22800, Note_on_c, 2, 54, 64
4, 22860, Note_on_c, 2, 54, 0
4, 22860, Note_on_c, 2, 58, 64
4, 22920, Note_on_c, 2, 58, 0
4, 22920, Note_on_c, 2, 58, 64
4, 22980, Note_on_c, 2, 58, 0
4, 22980, Note_on_c, 2, 54, 64
4, 23040, Note_on_c, 2, 54, 0
4, 23040, Note_on_c, 2, 51, 64
4, 23100, Note_on_c, 2, 51, 0
4, 23100, Note_on_c, 2, 54, 64
4, 23160, Note_on_c, 2, 54, 0
4, 23160, Note_on_c, 2, 54, 64
4, 23220, Note_on_c, 2, 54, 0
4, 23220, Note_on_c, 2, 51, 64
4, 23280, Note_on_c, 2, 51, 0
4, 23280, Note_on_c, 2, 47, 64
4, 23340, Note_on_c, 2, 47, 0
4, 23340, Note_on_c, 2, 51, 64
4, 23400, Note_on_c, 2, 51, 0
4, 23400, Note_on_c, 2, 51, 64
4, 23460, Note_on_c, 2, 51, 0
4, 23460, Note_on_c, 2, 47, 64
4, 23520, Note_on_c, 2, 47, 0
4, 23520, Note_on_c, 2, 49, 64
4, 23640, Note_on_c, 2, 49, 0
4, 23640, Note_on_c, 2, 37, 64
4, 23760, Note_on_c, 2, 37, 0
4, 23880, Note_on_c, 2, 61, 64
4, 23940, Note_on_c, 2, 61, 0
4, 23940, Note_on_c, 2, 59, 64
4, 24000, Note_on_c, 2, 59, 0
4, 24000, Note_on_c, 2, 61, 64
4, 24120, Note_on_c, 2, 61, 0
4, 24120, Note_on_c, 2, 54, 64
4, 24240, Note_on_c, 2, 54, 0
4, 24240, Note_on_c, 2, 59, 64
4, 24360, Note_on_c, 2, 59, 0
4, 24360, Note_on_c, 2, 58, 64
4, 24480, Note_on_c, 2, 58, 0
4, 24480, Note_on_c, 2, 59, 64
4, 24600, Note_on_c, 2, 59, 0
4, 24600, Note_on_c, 2, 53, 64
4, 24720, Note_on_c, 2, 53, 0
4, 24720, Note_on_c, 2, 58, 64
4, 24840, Note_on_c, 2, 58, 0
4, 24840, Note_on_c, 2, 56, 64
4, 24960, Note_on_c, 2, 56, 0
4, 24960, Note_on_c, 2, 58, 64
4, 25080, Note_on_c, 2, 58, 0
4, 25080, Note_on_c, 2, 51, 64
4, 25200, Note_on_c, 2, 51, 0
4, 25200, Note_on_c, 2, 56, 64
4, 25320, Note_on_c, 2, 56, 0
4, 25320, Note_on_c, 2, 54, 64
4, 25440, Note_on_c, 2, 54, 0
4, 25440, Note_on_c, 2, 56, 64
4, 25560, Note_on_c, 2, 56, 0
4, 25560, Note_on_c, 2, 49, 64
4, 25680, Note_on_c, 2, 49, 0
4, 25680, Note_on_c, 2, 54, 64
4, 25800, Note_on_c, 2, 54, 0
4, 25800, Note_on_c, 2, 53, 64
4, 25920, Note_on_c, 2, 53, 0
4, 25920, Note_on_c, 2, 54, 64
4, 25980, Note_on_c, 2, 54, 0
4, 25980, Note_on_c, 2, 58, 64
4, 26040, Note_on_c, 2, 58, 0
4, 26040, Note_on_c, 2, 58, 64
4, 26100, Note_on_c, 2, 58, 0
4, 26100, Note_on_c, 2, 54, 64
4, 26160, Note_on_c, 2, 54, 0
4, 26160, Note_on_c, 2, 51, 64
4, 26220, Note_on_c, 2, 51, 0
4, 26220, Note_on_c, 2, 54, 64
4, 26280, Note_on_c, 2, 54, 0
4, 26280, Note_on_c, 2, 54, 64
4, 26340, Note_on_c, 2, 54, 0
4, 26340, Note_on_c, 2, 51, 64
4, 26400, Note_on_c, 2, 51, 0
4, 26400, Note_on_c, 2, 47, 64
4, 26520, Note_on_c, 2, 47, 0
4, 26760, Note_on_c, 2, 59, 64
4, 26870, Note_on_c, 2, 59, 0
4, 26880, Note_on_c, 2, 59, 64
4, 27900, Note_on_c, 2, 59, 0
4, 27900, Note_on_c, 2, 58, 64
4, 27960, Note_on_c, 2, 58, 0
4, 27960, Note_on_c, 2, 56, 64
4, 28020, Note_on_c, 2, 56, 0
4, 28020, Note_on_c, 2, 54, 64
4, 28080, Note_on_c, 2, 54, 0
4, 28080, Note_on_c, 2, 52, 64
4, 28140, Note_on_c, 2, 52, 0
4, 28140, Note_on_c, 2, 61, 64
4, 28200, Note_on_c, 2, 61, 0
4, 28200, Note_on_c, 2, 61, 64
4, 28260, Note_on_c, 2, 61, 0
4, 28260, Note_on_c, 2, 52, 64
4, 28320, Note_on_c, 2, 52, 0
4, 28320, Note_on_c, 2, 51, 64
4, 28380, Note_on_c, 2, 51, 0
4, 28380, Note_on_c, 2, 59, 64
4, 28440, Note_on_c, 2, 59, 0
4, 28440, Note_on_c, 2, 59, 64
4, 28500, Note_on_c, 2, 59, 0
4, 28500, Note_on_c, 2, 51, 64
4, 28560, Note_on_c, 2, 51, 0
4, 28560, Note_on_c, 2, 49, 64
4, 28620, Note_on_c, 2, 49, 0
4, 28620, Note_on_c, 2, 58, 64
4, 28680, Note_on_c, 2, 58, 0
4, 28680, Note_on_c, 2, 58, 64
4, 28740, Note_on_c, 2, 58, 0
4, 28740, Note_on_c, 2, 49, 64
4, 28800, Note_on_c, 2, 49, 0
4, 28800, Note_on_c, 2, 47, 64
4, 28860, Note_on_c, 2, 47, 0
4, 28860, Note_on_c, 2, 49, 64
4, 28920, Note_on_c, 2, 49, 0
4, 28920, Note_on_c, 2, 47, 64
4, 28980, Note_on_c, 2, 47, 0
4, 28980, Note_on_c, 2, 46, 64
4, 29040, Note_on_c, 2, 46, 0
4, 29040, Note_on_c, 2, 44, 64
4, 29100, Note_on_c, 2, 44, 0
4, 29100, Note_on_c, 2, 46, 64
4, 29160, Note_on_c, 2, 46, 0
4, 29160, Note_on_c, 2, 47, 64
4, 29220, Note_on_c, 2, 47, 0
4, 29220, Note_on_c, 2, 44, 64
4, 29280, Note_on_c, 2, 44, 0
4, 29280, Note_on_c, 2, 49, 64
4, 29340, Note_on_c, 2, 49, 0
4, 29340, Note_on_c, 2, 51, 64
4, 29400, Note_on_c, 2, 51, 0
4, 29400, Note_on_c, 2, 49, 64
4, 29460, Note_on_c, 2, 49, 0
4, 29460, Note_on_c, 2, 47, 64
4, 29520, Note_on_c, 2, 47, 0
4, 29520, Note_on_c, 2, 46, 64
4, 29580, Note_on_c, 2, 46, 0
4, 29580, Note_on_c, 2, 47, 64
4, 29640, Note_on_c, 2, 47, 0
4, 29640, Note_on_c, 2, 49, 64
4, 29700, Note_on_c, 2, 49, 0
4, 29700, Note_on_c, 2, 46, 64
4, 29760, Note_on_c, 2, 46, 0
4, 29760, Note_on_c, 2, 51, 64
4, 29820, Note_on_c, 2, 51, 0
4, 29820, Note_on_c, 2, 53, 64
4, 29880, Note_on_c, 2, 53, 0
4, 29880, Note_on_c, 2, 54, 64
4, 30060, Note_on_c, 2, 54, 0
4, 30060, Note_on_c, 2, 53, 64
4, 30120, Note_on_c, 2, 53, 0
4, 30120, Note_on_c, 2, 51, 64
4, 30180, Note_on_c, 2, 51, 0
4, 30180, Note_on_c, 2, 49, 64
4, 30240, Note_on_c, 2, 49, 0
4, 30240, Note_on_c, 2, 47, 64
4, 30300, Note_on_c, 2, 47, 0
4, 30300, Note_on_c, 2, 49, 64
4, 30360, Note_on_c, 2, 49, 0
4, 30360, Note_on_c, 2, 51, 64
4, 30420, Note_on_c, 2, 51, 0
4, 30420, Note_on_c, 2, 46, 64
4, 30480, Note_on_c, 2, 46, 0
4, 30480, Note_on_c, 2, 47, 64
4, 30540, Note_on_c, 2, 47, 0
4, 30540, Note_on_c, 2, 49, 64
4, 30600, Note_on_c, 2, 49, 0
4, 30600, Note_on_c, 2, 51, 64
4, 30660, Note_on_c, 2, 51, 0
4, 30660, Note_on_c, 2, 47, 64
4, 30720, Note_on_c, 2, 47, 0
4, 30720, Note_on_c, 2, 44, 64
4, 30840, Note_on_c, 2, 44, 0
4, 30840, Note_on_c, 2, 46, 64
4, 30900, Note_on_c, 2, 46, 0
4, 30900, Note_on_c, 2, 47, 64
4, 30960, Note_on_c, 2, 47, 0
4, 30960, Note_on_c, 2, 49, 64
4, 31080, Note_on_c, 2, 49, 0
4, 31080, Note_on_c, 2, 37, 64
4, 31200, Note_on_c, 2, 37, 0
4, 31200, Note_on_c, 2, 42, 64
4, 31320, Note_on_c, 2, 42, 0
4, 31320, Note_on_c, 2, 54, 64
4, 31440, Note_on_c, 2, 54, 0
4, 31440, Note_on_c, 2, 53, 64
4, 31560, Note_on_c, 2, 53, 0
4, 31560, Note_on_c, 2, 49, 64
4, 31680, Note_on_c, 2, 49, 0
4, 31680, Note_on_c, 2, 54, 64
4, 31740, Note_on_c, 2, 54, 0
4, 31740, Note_on_c, 2, 58, 64
4, 31800, Note_on_c, 2, 58, 0
4, 31800, Note_on_c, 2, 58, 64
4, 31860, Note_on_c, 2, 58, 0
4, 31860, Note_on_c, 2, 54, 64
4, 31920, Note_on_c, 2, 54, 0
4, 31920, Note_on_c, 2, 51, 64
4, 31980, Note_on_c, 2, 51, 0
4, 31980, Note_on_c, 2, 54, 64
4, 32040, Note_on_c, 2, 54, 0
4, 32040, Note_on_c, 2, 54, 64
4, 32100, Note_on_c, 2, 54, 0
4, 32100, Note_on_c, 2, 51, 64
4, 32160, Note_on_c, 2, 51, 0
4, 32160, Note_on_c, 2, 47, 64
4, 32280, Note_on_c, 2, 47, 0
4, 32280, Note_on_c, 2, 44, 64
4, 32400, Note_on_c, 2, 44, 0
4, 32400, Note_on_c, 2, 49, 64
4, 32520, Note_on_c, 2, 49, 0
4, 32520, Note_on_c, 2, 37, 64
4, 32640, Note_on_c, 2, 37, 0
4, 32640, Note_on_c, 2, 42, 64
4, 33600, Note_on_c, 2, 42, 0
4, 33600, End_track
0, 0, End_of_file
