0, 0, Header, 1, 17, 240
1, 0, Start_track
1, 0, Sequencer_specific, 10, 0, 0, 91, 35, 1, 0, 5, 6, 42, 0
1, 0, Title_t, "J. S. Bach - Orchestral Suite No.3 in D Major BWV1068"
1, 0, Instrument_name_t, "Conductor Track"
1, 0, SMPTE_offset, 96, 0, 3, 0, 0
1, 0, MIDI_port, 0
1, 0, Marker_t, "Originally sequenced 29 Nov 1999"
1, 0, Tempo, 416666
1, 0, Key_signature, 2, "major"
1, 0, Time_signature, 2, 2, 24, 8
1, 480, Time_signature, 4, 2, 24, 8
1, 48720, Tempo, 416666
1, 48746, Tempo, 419580
1, 48771, Tempo, 422535
1, 48797, Tempo, 425531
1, 48823, Tempo, 428571
1, 48849, Tempo, 431654
1, 48874, Tempo, 434782
1, 48900, Tempo, 437956
1, 48926, Tempo, 441176
1, 48951, Tempo, 444444
1, 48977, Tempo, 447761
1, 49003, Tempo, 451127
1, 49029, Tempo, 454545
1, 49054, Tempo, 458015
1, 49080, Tempo, 461538
1, 49106, Tempo, 465116
1, 49131, Tempo, 468750
1, 49157, Tempo, 472440
1, 49183, Tempo, 476190
1, 49209, Tempo, 480000
1, 49234, Tempo, 483870
1, 49260, Tempo, 487804
1, 49286, Tempo, 491803
1, 49311, Tempo, 495867
1, 49337, Tempo, 500000
1, 49363, Tempo, 504201
1, 49389, Tempo, 508474
1, 49414, Tempo, 512820
1, 49440, Tempo, 517241
1, 49440, Time_signature, 5, 2, 24, 8
1, 49920, Tempo, 3000000
1, 50160, Tempo, 416666
1, 50640, Time_signature, 4, 2, 24, 8
1, 110400, Tempo, 416666
1, 110426, Tempo, 419580
1, 110451, Tempo, 422535
1, 110477, Tempo, 425531
1, 110503, Tempo, 428571
1, 110529, Tempo, 431654
1, 110554, Tempo, 434782
1, 110580, Tempo, 437956
1, 110606, Tempo, 441176
1, 110631, Tempo, 444444
1, 110657, Tempo, 447761
1, 110683, Tempo, 451127
1, 110709, Tempo, 454545
1, 110734, Tempo, 458015
1, 110760, Tempo, 461538
1, 110786, Tempo, 465116
1, 110811, Tempo, 468750
1, 110837, Tempo, 472440
1, 110863, Tempo, 476190
1, 110889, Tempo, 480000
1, 110914, Tempo, 483870
1, 110940, Tempo, 487804
1, 110966, Tempo, 491803
1, 110991, Tempo, 495867
1, 111017, Tempo, 500000
1, 111043, Tempo, 504201
1, 111069, Tempo, 508474
1, 111094, Tempo, 512820
1, 111120, Tempo, 517241
1, 111120, Time_signature, 5, 2, 24, 8
1, 111600, Tempo, 3000000
1, 111840, Tempo, 416666
1, 112320, Time_signature, 4, 2, 24, 8
1, 160560, Tempo, 416666
1, 160580, Tempo, 419580
1, 160600, Tempo, 422535
1, 160620, Tempo, 425531
1, 160640, Tempo, 428571
1, 160660, Tempo, 431654
1, 160680, Tempo, 434782
1, 160700, Tempo, 437956
1, 160720, Tempo, 441176
1, 160740, Tempo, 444444
1, 160760, Tempo, 447761
1, 160780, Tempo, 451127
1, 160800, Tempo, 454545
1, 160820, Tempo, 458015
1, 160840, Tempo, 461538
1, 160860, Tempo, 465116
1, 160880, Tempo, 468750
1, 160900, Tempo, 472440
1, 160920, Tempo, 476190
1, 160940, Tempo, 480000
1, 160960, Tempo, 483870
1, 160980, Tempo, 487804
1, 161000, Tempo, 491803
1, 161020, Tempo, 495867
1, 161040, Tempo, 500000
1, 161060, Tempo, 504201
1, 161080, Tempo, 508474
1, 161100, Tempo, 512820
1, 161120, Tempo, 517241
1, 161140, Tempo, 521739
1, 161160, Tempo, 526315
1, 161180, Tempo, 530973
1, 161200, Tempo, 535714
1, 161220, Tempo, 540540
1, 161240, Tempo, 545454
1, 161260, Tempo, 550458
1, 161760, Tempo, 3000000
1, 162240, Tempo, 3000000
1, 162240, End_track
2, 0, Start_track
2, 0, Title_t, "3rd Movement - Gavotte I and II"
2, 0, MIDI_port, 0
2, 0, End_track
3, 0, Start_track
3, 0, Title_t, "Sequenced by D. L. Viens 31 Dec 1999"
3, 0, MIDI_port, 0
3, 0, End_track
4, 0, Start_track
4, 0, Title_t, "dlviens@empire.net"
4, 0, MIDI_port, 0
4, 0, End_track
5, 0, Start_track
5, 0, MIDI_port, 0
5, 0, End_track
6, 0, Start_track
6, 0, Title_t, "Trumpet I in D"
6, 0, MIDI_port, 0
6, 0, Program_c, 0, 56
6, 0, Control_c, 0, 10, 54
6, 0, Control_c, 0, 11, 127
6, 0, Control_c, 0, 7, 96
6, 0, Note_on_c, 0, 69, 76
6, 224, Note_on_c, 0, 69, 0
6, 240, Note_on_c, 0, 81, 76
6, 344, Note_on_c, 0, 81, 0
6, 360, Note_on_c, 0, 78, 76
6, 464, Note_on_c, 0, 78, 0
6, 480, Note_on_c, 0, 79, 76
6, 944, Note_on_c, 0, 79, 0
6, 960, Note_on_c, 0, 69, 76
6, 1184, Note_on_c, 0, 69, 0
6, 1200, Note_on_c, 0, 79, 76
6, 1304, Note_on_c, 0, 79, 0
6, 1320, Note_on_c, 0, 76, 76
6, 1424, Note_on_c, 0, 76, 0
6, 1440, Note_on_c, 0, 78, 76
6, 1919, Note_on_c, 0, 78, 0
6, 3840, Note_on_c, 0, 69, 76
6, 4064, Note_on_c, 0, 69, 0
6, 4080, Note_on_c, 0, 81, 76
6, 4184, Note_on_c, 0, 81, 0
6, 4200, Note_on_c, 0, 78, 76
6, 4304, Note_on_c, 0, 78, 0
6, 4320, Note_on_c, 0, 79, 76
6, 4784, Note_on_c, 0, 79, 0
6, 4800, Note_on_c, 0, 69, 76
6, 5024, Note_on_c, 0, 69, 0
6, 5040, Note_on_c, 0, 79, 76
6, 5144, Note_on_c, 0, 79, 0
6, 5160, Note_on_c, 0, 76, 76
6, 5264, Note_on_c, 0, 76, 0
6, 5280, Note_on_c, 0, 78, 76
6, 5759, Note_on_c, 0, 78, 0
6, 9600, Note_on_c, 0, 69, 76
6, 9824, Note_on_c, 0, 69, 0
6, 9840, Note_on_c, 0, 81, 76
6, 9944, Note_on_c, 0, 81, 0
6, 9960, Note_on_c, 0, 78, 76
6, 10064, Note_on_c, 0, 78, 0
6, 10080, Note_on_c, 0, 79, 76
6, 10544, Note_on_c, 0, 79, 0
6, 10560, Note_on_c, 0, 69, 76
6, 10784, Note_on_c, 0, 69, 0
6, 10800, Note_on_c, 0, 79, 76
6, 10904, Note_on_c, 0, 79, 0
6, 10920, Note_on_c, 0, 76, 76
6, 11024, Note_on_c, 0, 76, 0
6, 11040, Note_on_c, 0, 78, 76
6, 11519, Note_on_c, 0, 78, 0
6, 13440, Note_on_c, 0, 69, 76
6, 13664, Note_on_c, 0, 69, 0
6, 13680, Note_on_c, 0, 81, 76
6, 13784, Note_on_c, 0, 81, 0
6, 13800, Note_on_c, 0, 78, 76
6, 13904, Note_on_c, 0, 78, 0
6, 13920, Note_on_c, 0, 79, 76
6, 14384, Note_on_c, 0, 79, 0
6, 14400, Note_on_c, 0, 69, 76
6, 14624, Note_on_c, 0, 69, 0
6, 14640, Note_on_c, 0, 79, 76
6, 14744, Note_on_c, 0, 79, 0
6, 14760, Note_on_c, 0, 76, 76
6, 14864, Note_on_c, 0, 76, 0
6, 14880, Note_on_c, 0, 78, 76
6, 15359, Note_on_c, 0, 78, 0
6, 23040, Note_on_c, 0, 66, 76
6, 23264, Note_on_c, 0, 66, 0
6, 23280, Note_on_c, 0, 78, 76
6, 23384, Note_on_c, 0, 78, 0
6, 23400, Note_on_c, 0, 74, 76
6, 23504, Note_on_c, 0, 74, 0
6, 23520, Note_on_c, 0, 76, 76
6, 23984, Note_on_c, 0, 76, 0
6, 24000, Note_on_c, 0, 66, 76
6, 24224, Note_on_c, 0, 66, 0
6, 24240, Note_on_c, 0, 76, 76
6, 24344, Note_on_c, 0, 76, 0
6, 24360, Note_on_c, 0, 78, 76
6, 24464, Note_on_c, 0, 78, 0
6, 24480, Note_on_c, 0, 74, 76
6, 24959, Note_on_c, 0, 74, 0
6, 28800, Note_on_c, 0, 69, 76
6, 29024, Note_on_c, 0, 69, 0
6, 29040, Note_on_c, 0, 79, 76
6, 29144, Note_on_c, 0, 79, 0
6, 29160, Note_on_c, 0, 76, 76
6, 29264, Note_on_c, 0, 76, 0
6, 29280, Note_on_c, 0, 78, 76
6, 29504, Note_on_c, 0, 78, 0
6, 29520, Note_on_c, 0, 76, 76
6, 29624, Note_on_c, 0, 76, 0
6, 29640, Note_on_c, 0, 74, 76
6, 29744, Note_on_c, 0, 74, 0
6, 29760, Note_on_c, 0, 76, 76
6, 29864, Note_on_c, 0, 76, 0
6, 29880, Note_on_c, 0, 78, 76
6, 29984, Note_on_c, 0, 78, 0
6, 30000, Note_on_c, 0, 76, 76
6, 30104, Note_on_c, 0, 76, 0
6, 30120, Note_on_c, 0, 78, 76
6, 30224, Note_on_c, 0, 78, 0
6, 30240, Note_on_c, 0, 76, 76
6, 30464, Note_on_c, 0, 76, 0
6, 30480, Note_on_c, 0, 69, 76
6, 30719, Note_on_c, 0, 69, 0
6, 32640, Note_on_c, 0, 69, 76
6, 32864, Note_on_c, 0, 69, 0
6, 32880, Note_on_c, 0, 79, 76
6, 32984, Note_on_c, 0, 79, 0
6, 33000, Note_on_c, 0, 76, 76
6, 33104, Note_on_c, 0, 76, 0
6, 33120, Note_on_c, 0, 78, 76
6, 33224, Note_on_c, 0, 78, 0
6, 33240, Note_on_c, 0, 76, 76
6, 33344, Note_on_c, 0, 76, 0
6, 33360, Note_on_c, 0, 74, 76
6, 33464, Note_on_c, 0, 74, 0
6, 33480, Note_on_c, 0, 76, 76
6, 33584, Note_on_c, 0, 76, 0
6, 33600, Note_on_c, 0, 76, 76
6, 33944, Note_on_c, 0, 76, 0
6, 33960, Note_on_c, 0, 74, 76
6, 34064, Note_on_c, 0, 74, 0
6, 34080, Note_on_c, 0, 74, 76
6, 34559, Note_on_c, 0, 74, 0
6, 38400, Note_on_c, 0, 66, 76
6, 38624, Note_on_c, 0, 66, 0
6, 38640, Note_on_c, 0, 78, 76
6, 38744, Note_on_c, 0, 78, 0
6, 38760, Note_on_c, 0, 74, 76
6, 38864, Note_on_c, 0, 74, 0
6, 38880, Note_on_c, 0, 76, 76
6, 39344, Note_on_c, 0, 76, 0
6, 39360, Note_on_c, 0, 66, 76
6, 39584, Note_on_c, 0, 66, 0
6, 39600, Note_on_c, 0, 76, 76
6, 39704, Note_on_c, 0, 76, 0
6, 39720, Note_on_c, 0, 78, 76
6, 39824, Note_on_c, 0, 78, 0
6, 39840, Note_on_c, 0, 74, 76
6, 40319, Note_on_c, 0, 74, 0
6, 44160, Note_on_c, 0, 69, 76
6, 44384, Note_on_c, 0, 69, 0
6, 44400, Note_on_c, 0, 79, 76
6, 44504, Note_on_c, 0, 79, 0
6, 44520, Note_on_c, 0, 76, 76
6, 44624, Note_on_c, 0, 76, 0
6, 44640, Note_on_c, 0, 78, 76
6, 44864, Note_on_c, 0, 78, 0
6, 44880, Note_on_c, 0, 76, 76
6, 44984, Note_on_c, 0, 76, 0
6, 45000, Note_on_c, 0, 74, 76
6, 45104, Note_on_c, 0, 74, 0
6, 45120, Note_on_c, 0, 76, 76
6, 45224, Note_on_c, 0, 76, 0
6, 45240, Note_on_c, 0, 78, 76
6, 45344, Note_on_c, 0, 78, 0
6, 45360, Note_on_c, 0, 76, 76
6, 45464, Note_on_c, 0, 76, 0
6, 45480, Note_on_c, 0, 78, 76
6, 45584, Note_on_c, 0, 78, 0
6, 45600, Note_on_c, 0, 76, 76
6, 45824, Note_on_c, 0, 76, 0
6, 45840, Note_on_c, 0, 69, 76
6, 46079, Note_on_c, 0, 69, 0
6, 48000, Note_on_c, 0, 69, 76
6, 48224, Note_on_c, 0, 69, 0
6, 48240, Note_on_c, 0, 79, 76
6, 48344, Note_on_c, 0, 79, 0
6, 48360, Note_on_c, 0, 76, 76
6, 48464, Note_on_c, 0, 76, 0
6, 48480, Note_on_c, 0, 78, 76
6, 48584, Note_on_c, 0, 78, 0
6, 48600, Note_on_c, 0, 76, 76
6, 48704, Note_on_c, 0, 76, 0
6, 48720, Note_on_c, 0, 74, 76
6, 48824, Note_on_c, 0, 74, 0
6, 48840, Note_on_c, 0, 76, 76
6, 48944, Note_on_c, 0, 76, 0
6, 48960, Note_on_c, 0, 76, 76
6, 49304, Note_on_c, 0, 76, 0
6, 49320, Note_on_c, 0, 74, 76
6, 49424, Note_on_c, 0, 74, 0
6, 49440, Note_on_c, 0, 74, 76
6, 49919, Note_on_c, 0, 74, 0
6, 50160, Note_on_c, 0, 74, 76
6, 50399, Note_on_c, 0, 74, 0
6, 50400, Note_on_c, 0, 74, 76
6, 50624, Note_on_c, 0, 74, 0
6, 50640, Note_on_c, 0, 66, 76
6, 50879, Note_on_c, 0, 66, 0
6, 50880, Note_on_c, 0, 66, 76
6, 51104, Note_on_c, 0, 66, 0
6, 51120, Note_on_c, 0, 69, 76
6, 51359, Note_on_c, 0, 69, 0
6, 51360, Note_on_c, 0, 69, 76
6, 51584, Note_on_c, 0, 69, 0
6, 51600, Note_on_c, 0, 62, 76
6, 52079, Note_on_c, 0, 62, 0
6, 54000, Note_on_c, 0, 74, 76
6, 54239, Note_on_c, 0, 74, 0
6, 54240, Note_on_c, 0, 74, 76
6, 54464, Note_on_c, 0, 74, 0
6, 54480, Note_on_c, 0, 66, 76
6, 54719, Note_on_c, 0, 66, 0
6, 54720, Note_on_c, 0, 66, 76
6, 54944, Note_on_c, 0, 66, 0
6, 54960, Note_on_c, 0, 69, 76
6, 55199, Note_on_c, 0, 69, 0
6, 55200, Note_on_c, 0, 69, 76
6, 55424, Note_on_c, 0, 69, 0
6, 55440, Note_on_c, 0, 62, 76
6, 55919, Note_on_c, 0, 62, 0
6, 59760, Note_on_c, 0, 74, 76
6, 60104, Note_on_c, 0, 74, 0
6, 60120, Note_on_c, 0, 69, 76
6, 60224, Note_on_c, 0, 69, 0
6, 60240, Note_on_c, 0, 74, 76
6, 60584, Note_on_c, 0, 74, 0
6, 60600, Note_on_c, 0, 76, 76
6, 60704, Note_on_c, 0, 76, 0
6, 60720, Note_on_c, 0, 74, 76
6, 60824, Note_on_c, 0, 74, 0
6, 60840, Note_on_c, 0, 76, 76
6, 60944, Note_on_c, 0, 76, 0
6, 60960, Note_on_c, 0, 74, 76
6, 61064, Note_on_c, 0, 74, 0
6, 61080, Note_on_c, 0, 76, 76
6, 61184, Note_on_c, 0, 76, 0
6, 61200, Note_on_c, 0, 74, 76
6, 61679, Note_on_c, 0, 74, 0
6, 63600, Note_on_c, 0, 76, 76
6, 63839, Note_on_c, 0, 76, 0
6, 63840, Note_on_c, 0, 76, 76
6, 64064, Note_on_c, 0, 76, 0
6, 64080, Note_on_c, 0, 81, 76
6, 64319, Note_on_c, 0, 81, 0
6, 64320, Note_on_c, 0, 81, 76
6, 64544, Note_on_c, 0, 81, 0
6, 64560, Note_on_c, 0, 76, 76
6, 64799, Note_on_c, 0, 76, 0
6, 64800, Note_on_c, 0, 76, 76
6, 65024, Note_on_c, 0, 76, 0
6, 65040, Note_on_c, 0, 69, 76
6, 65504, Note_on_c, 0, 69, 0
6, 65520, Note_on_c, 0, 74, 76
6, 65759, Note_on_c, 0, 74, 0
6, 65760, Note_on_c, 0, 74, 76
6, 65984, Note_on_c, 0, 74, 0
6, 66000, Note_on_c, 0, 66, 76
6, 66239, Note_on_c, 0, 66, 0
6, 66240, Note_on_c, 0, 66, 76
6, 66464, Note_on_c, 0, 66, 0
6, 66480, Note_on_c, 0, 69, 76
6, 66719, Note_on_c, 0, 69, 0
6, 66720, Note_on_c, 0, 69, 76
6, 66944, Note_on_c, 0, 69, 0
6, 66960, Note_on_c, 0, 62, 76
6, 67439, Note_on_c, 0, 62, 0
6, 69360, Note_on_c, 0, 74, 76
6, 69599, Note_on_c, 0, 74, 0
6, 69600, Note_on_c, 0, 74, 76
6, 69824, Note_on_c, 0, 74, 0
6, 69840, Note_on_c, 0, 66, 76
6, 70079, Note_on_c, 0, 66, 0
6, 70080, Note_on_c, 0, 66, 76
6, 70304, Note_on_c, 0, 66, 0
6, 70320, Note_on_c, 0, 69, 76
6, 70559, Note_on_c, 0, 69, 0
6, 70560, Note_on_c, 0, 69, 76
6, 70784, Note_on_c, 0, 69, 0
6, 70800, Note_on_c, 0, 62, 76
6, 71279, Note_on_c, 0, 62, 0
6, 75120, Note_on_c, 0, 74, 76
6, 75464, Note_on_c, 0, 74, 0
6, 75480, Note_on_c, 0, 69, 76
6, 75584, Note_on_c, 0, 69, 0
6, 75600, Note_on_c, 0, 74, 76
6, 75944, Note_on_c, 0, 74, 0
6, 75960, Note_on_c, 0, 76, 76
6, 76064, Note_on_c, 0, 76, 0
6, 76080, Note_on_c, 0, 74, 76
6, 76184, Note_on_c, 0, 74, 0
6, 76200, Note_on_c, 0, 76, 76
6, 76304, Note_on_c, 0, 76, 0
6, 76320, Note_on_c, 0, 74, 76
6, 76424, Note_on_c, 0, 74, 0
6, 76440, Note_on_c, 0, 76, 76
6, 76544, Note_on_c, 0, 76, 0
6, 76560, Note_on_c, 0, 74, 76
6, 77039, Note_on_c, 0, 74, 0
6, 78960, Note_on_c, 0, 76, 76
6, 79199, Note_on_c, 0, 76, 0
6, 79200, Note_on_c, 0, 76, 76
6, 79424, Note_on_c, 0, 76, 0
6, 79440, Note_on_c, 0, 81, 76
6, 79679, Note_on_c, 0, 81, 0
6, 79680, Note_on_c, 0, 81, 76
6, 79904, Note_on_c, 0, 81, 0
6, 79920, Note_on_c, 0, 76, 76
6, 80159, Note_on_c, 0, 76, 0
6, 80160, Note_on_c, 0, 76, 76
6, 80384, Note_on_c, 0, 76, 0
6, 80400, Note_on_c, 0, 69, 76
6, 80864, Note_on_c, 0, 69, 0
6, 80880, Note_on_c, 0, 76, 76
6, 81224, Note_on_c, 0, 76, 0
6, 81240, Note_on_c, 0, 81, 76
6, 81344, Note_on_c, 0, 81, 0
6, 81360, Note_on_c, 0, 76, 76
6, 81704, Note_on_c, 0, 76, 0
6, 81720, Note_on_c, 0, 78, 76
6, 81824, Note_on_c, 0, 78, 0
6, 81840, Note_on_c, 0, 76, 76
6, 81944, Note_on_c, 0, 76, 0
6, 81960, Note_on_c, 0, 78, 76
6, 82064, Note_on_c, 0, 78, 0
6, 82080, Note_on_c, 0, 76, 76
6, 82184, Note_on_c, 0, 76, 0
6, 82200, Note_on_c, 0, 78, 76
6, 82304, Note_on_c, 0, 78, 0
6, 82320, Note_on_c, 0, 76, 76
6, 82349, Note_on_c, 0, 76, 0
6, 82350, Note_on_c, 0, 78, 76
6, 82379, Note_on_c, 0, 78, 0
6, 82380, Note_on_c, 0, 76, 76
6, 82409, Note_on_c, 0, 76, 0
6, 82410, Note_on_c, 0, 78, 76
6, 82439, Note_on_c, 0, 78, 0
6, 82440, Note_on_c, 0, 76, 76
6, 82469, Note_on_c, 0, 76, 0
6, 82470, Note_on_c, 0, 78, 76
6, 82499, Note_on_c, 0, 78, 0
6, 82500, Note_on_c, 0, 76, 76
6, 82529, Note_on_c, 0, 76, 0
6, 82530, Note_on_c, 0, 78, 76
6, 82559, Note_on_c, 0, 78, 0
6, 82560, Note_on_c, 0, 76, 76
6, 82589, Note_on_c, 0, 76, 0
6, 82590, Note_on_c, 0, 78, 76
6, 82619, Note_on_c, 0, 78, 0
6, 82620, Note_on_c, 0, 74, 76
6, 82649, Note_on_c, 0, 74, 0
6, 82650, Note_on_c, 0, 76, 76
6, 82799, Note_on_c, 0, 76, 0
6, 84720, Note_on_c, 0, 78, 76
6, 85064, Note_on_c, 0, 78, 0
6, 85080, Note_on_c, 0, 83, 76
6, 85184, Note_on_c, 0, 83, 0
6, 85200, Note_on_c, 0, 78, 76
6, 85544, Note_on_c, 0, 78, 0
6, 85560, Note_on_c, 0, 79, 76
6, 85664, Note_on_c, 0, 79, 0
6, 85680, Note_on_c, 0, 78, 76
6, 85784, Note_on_c, 0, 78, 0
6, 85800, Note_on_c, 0, 79, 76
6, 85904, Note_on_c, 0, 79, 0
6, 85920, Note_on_c, 0, 78, 76
6, 86024, Note_on_c, 0, 78, 0
6, 86040, Note_on_c, 0, 79, 76
6, 86144, Note_on_c, 0, 79, 0
6, 86160, Note_on_c, 0, 78, 76
6, 86639, Note_on_c, 0, 78, 0
6, 88560, Note_on_c, 0, 69, 76
6, 88799, Note_on_c, 0, 69, 0
6, 88800, Note_on_c, 0, 74, 76
6, 89024, Note_on_c, 0, 74, 0
6, 89040, Note_on_c, 0, 74, 76
6, 89279, Note_on_c, 0, 74, 0
6, 89280, Note_on_c, 0, 78, 76
6, 89504, Note_on_c, 0, 78, 0
6, 89520, Note_on_c, 0, 78, 76
6, 89759, Note_on_c, 0, 78, 0
6, 89760, Note_on_c, 0, 81, 76
6, 89984, Note_on_c, 0, 81, 0
6, 90000, Note_on_c, 0, 81, 76
6, 90479, Note_on_c, 0, 81, 0
6, 94320, Note_on_c, 0, 74, 76
6, 94559, Note_on_c, 0, 74, 0
6, 94560, Note_on_c, 0, 74, 76
6, 94784, Note_on_c, 0, 74, 0
6, 94800, Note_on_c, 0, 66, 76
6, 95039, Note_on_c, 0, 66, 0
6, 95040, Note_on_c, 0, 66, 76
6, 95264, Note_on_c, 0, 66, 0
6, 95280, Note_on_c, 0, 69, 76
6, 95519, Note_on_c, 0, 69, 0
6, 95520, Note_on_c, 0, 69, 76
6, 95744, Note_on_c, 0, 69, 0
6, 95760, Note_on_c, 0, 62, 76
6, 96224, Note_on_c, 0, 62, 0
6, 96240, Note_on_c, 0, 76, 76
6, 96584, Note_on_c, 0, 76, 0
6, 96600, Note_on_c, 0, 81, 76
6, 96704, Note_on_c, 0, 81, 0
6, 96720, Note_on_c, 0, 76, 76
6, 97064, Note_on_c, 0, 76, 0
6, 97080, Note_on_c, 0, 78, 76
6, 97184, Note_on_c, 0, 78, 0
6, 97200, Note_on_c, 0, 76, 76
6, 97304, Note_on_c, 0, 76, 0
6, 97320, Note_on_c, 0, 78, 76
6, 97424, Note_on_c, 0, 78, 0
6, 97440, Note_on_c, 0, 76, 76
6, 97544, Note_on_c, 0, 76, 0
6, 97560, Note_on_c, 0, 78, 76
6, 97664, Note_on_c, 0, 78, 0
6, 97680, Note_on_c, 0, 76, 76
6, 97709, Note_on_c, 0, 76, 0
6, 97710, Note_on_c, 0, 78, 76
6, 97739, Note_on_c, 0, 78, 0
6, 97740, Note_on_c, 0, 76, 76
6, 97769, Note_on_c, 0, 76, 0
6, 97770, Note_on_c, 0, 78, 76
6, 97799, Note_on_c, 0, 78, 0
6, 97800, Note_on_c, 0, 76, 76
6, 97829, Note_on_c, 0, 76, 0
6, 97830, Note_on_c, 0, 78, 76
6, 97859, Note_on_c, 0, 78, 0
6, 97860, Note_on_c, 0, 76, 76
6, 97889, Note_on_c, 0, 76, 0
6, 97890, Note_on_c, 0, 78, 76
6, 97919, Note_on_c, 0, 78, 0
6, 97920, Note_on_c, 0, 76, 76
6, 97949, Note_on_c, 0, 76, 0
6, 97950, Note_on_c, 0, 78, 76
6, 97979, Note_on_c, 0, 78, 0
6, 97980, Note_on_c, 0, 74, 76
6, 98009, Note_on_c, 0, 74, 0
6, 98010, Note_on_c, 0, 76, 76
6, 98159, Note_on_c, 0, 76, 0
6, 100080, Note_on_c, 0, 78, 76
6, 100424, Note_on_c, 0, 78, 0
6, 100440, Note_on_c, 0, 83, 76
6, 100544, Note_on_c, 0, 83, 0
6, 100560, Note_on_c, 0, 78, 76
6, 100904, Note_on_c, 0, 78, 0
6, 100920, Note_on_c, 0, 79, 76
6, 101024, Note_on_c, 0, 79, 0
6, 101040, Note_on_c, 0, 78, 76
6, 101144, Note_on_c, 0, 78, 0
6, 101160, Note_on_c, 0, 79, 76
6, 101264, Note_on_c, 0, 79, 0
6, 101280, Note_on_c, 0, 78, 76
6, 101384, Note_on_c, 0, 78, 0
6, 101400, Note_on_c, 0, 79, 76
6, 101504, Note_on_c, 0, 79, 0
6, 101520, Note_on_c, 0, 78, 76
6, 101999, Note_on_c, 0, 78, 0
6, 103920, Note_on_c, 0, 69, 76
6, 104159, Note_on_c, 0, 69, 0
6, 104160, Note_on_c, 0, 74, 76
6, 104384, Note_on_c, 0, 74, 0
6, 104400, Note_on_c, 0, 74, 76
6, 104639, Note_on_c, 0, 74, 0
6, 104640, Note_on_c, 0, 78, 76
6, 104864, Note_on_c, 0, 78, 0
6, 104880, Note_on_c, 0, 78, 76
6, 105119, Note_on_c, 0, 78, 0
6, 105120, Note_on_c, 0, 81, 76
6, 105344, Note_on_c, 0, 81, 0
6, 105360, Note_on_c, 0, 81, 76
6, 105839, Note_on_c, 0, 81, 0
6, 109680, Note_on_c, 0, 74, 76
6, 109919, Note_on_c, 0, 74, 0
6, 109920, Note_on_c, 0, 74, 76
6, 110144, Note_on_c, 0, 74, 0
6, 110160, Note_on_c, 0, 66, 76
6, 110399, Note_on_c, 0, 66, 0
6, 110400, Note_on_c, 0, 66, 76
6, 110624, Note_on_c, 0, 66, 0
6, 110640, Note_on_c, 0, 69, 76
6, 110879, Note_on_c, 0, 69, 0
6, 110880, Note_on_c, 0, 69, 76
6, 111104, Note_on_c, 0, 69, 0
6, 111120, Note_on_c, 0, 62, 76
6, 111584, Note_on_c, 0, 62, 0
6, 111840, Note_on_c, 0, 69, 76
6, 112064, Note_on_c, 0, 69, 0
6, 112080, Note_on_c, 0, 81, 76
6, 112184, Note_on_c, 0, 81, 0
6, 112200, Note_on_c, 0, 78, 76
6, 112304, Note_on_c, 0, 78, 0
6, 112320, Note_on_c, 0, 79, 76
6, 112784, Note_on_c, 0, 79, 0
6, 112800, Note_on_c, 0, 69, 76
6, 113024, Note_on_c, 0, 69, 0
6, 113040, Note_on_c, 0, 79, 76
6, 113144, Note_on_c, 0, 79, 0
6, 113160, Note_on_c, 0, 76, 76
6, 113264, Note_on_c, 0, 76, 0
6, 113280, Note_on_c, 0, 78, 76
6, 113759, Note_on_c, 0, 78, 0
6, 115680, Note_on_c, 0, 69, 76
6, 115904, Note_on_c, 0, 69, 0
6, 115920, Note_on_c, 0, 81, 76
6, 116024, Note_on_c, 0, 81, 0
6, 116040, Note_on_c, 0, 78, 76
6, 116144, Note_on_c, 0, 78, 0
6, 116160, Note_on_c, 0, 79, 76
6, 116624, Note_on_c, 0, 79, 0
6, 116640, Note_on_c, 0, 69, 76
6, 116864, Note_on_c, 0, 69, 0
6, 116880, Note_on_c, 0, 79, 76
6, 116984, Note_on_c, 0, 79, 0
6, 117000, Note_on_c, 0, 76, 76
6, 117104, Note_on_c, 0, 76, 0
6, 117120, Note_on_c, 0, 78, 76
6, 117599, Note_on_c, 0, 78, 0
6, 121440, Note_on_c, 0, 69, 76
6, 121664, Note_on_c, 0, 69, 0
6, 121680, Note_on_c, 0, 81, 76
6, 121784, Note_on_c, 0, 81, 0
6, 121800, Note_on_c, 0, 78, 76
6, 121904, Note_on_c, 0, 78, 0
6, 121920, Note_on_c, 0, 79, 76
6, 122384, Note_on_c, 0, 79, 0
6, 122400, Note_on_c, 0, 69, 76
6, 122624, Note_on_c, 0, 69, 0
6, 122640, Note_on_c, 0, 79, 76
6, 122744, Note_on_c, 0, 79, 0
6, 122760, Note_on_c, 0, 76, 76
6, 122864, Note_on_c, 0, 76, 0
6, 122880, Note_on_c, 0, 78, 76
6, 123359, Note_on_c, 0, 78, 0
6, 125280, Note_on_c, 0, 69, 76
6, 125504, Note_on_c, 0, 69, 0
6, 125520, Note_on_c, 0, 81, 76
6, 125624, Note_on_c, 0, 81, 0
6, 125640, Note_on_c, 0, 78, 76
6, 125744, Note_on_c, 0, 78, 0
6, 125760, Note_on_c, 0, 79, 76
6, 126224, Note_on_c, 0, 79, 0
6, 126240, Note_on_c, 0, 69, 76
6, 126464, Note_on_c, 0, 69, 0
6, 126480, Note_on_c, 0, 79, 76
6, 126584, Note_on_c, 0, 79, 0
6, 126600, Note_on_c, 0, 76, 76
6, 126704, Note_on_c, 0, 76, 0
6, 126720, Note_on_c, 0, 78, 76
6, 127199, Note_on_c, 0, 78, 0
6, 134880, Note_on_c, 0, 66, 76
6, 135104, Note_on_c, 0, 66, 0
6, 135120, Note_on_c, 0, 78, 76
6, 135224, Note_on_c, 0, 78, 0
6, 135240, Note_on_c, 0, 74, 76
6, 135344, Note_on_c, 0, 74, 0
6, 135360, Note_on_c, 0, 76, 76
6, 135824, Note_on_c, 0, 76, 0
6, 135840, Note_on_c, 0, 66, 76
6, 136064, Note_on_c, 0, 66, 0
6, 136080, Note_on_c, 0, 76, 76
6, 136184, Note_on_c, 0, 76, 0
6, 136200, Note_on_c, 0, 78, 76
6, 136304, Note_on_c, 0, 78, 0
6, 136320, Note_on_c, 0, 74, 76
6, 136799, Note_on_c, 0, 74, 0
6, 140640, Note_on_c, 0, 69, 76
6, 140864, Note_on_c, 0, 69, 0
6, 140880, Note_on_c, 0, 79, 76
6, 140984, Note_on_c, 0, 79, 0
6, 141000, Note_on_c, 0, 76, 76
6, 141104, Note_on_c, 0, 76, 0
6, 141120, Note_on_c, 0, 78, 76
6, 141344, Note_on_c, 0, 78, 0
6, 141360, Note_on_c, 0, 76, 76
6, 141464, Note_on_c, 0, 76, 0
6, 141480, Note_on_c, 0, 74, 76
6, 141584, Note_on_c, 0, 74, 0
6, 141600, Note_on_c, 0, 76, 76
6, 141704, Note_on_c, 0, 76, 0
6, 141720, Note_on_c, 0, 78, 76
6, 141824, Note_on_c, 0, 78, 0
6, 141840, Note_on_c, 0, 76, 76
6, 141944, Note_on_c, 0, 76, 0
6, 141960, Note_on_c, 0, 78, 76
6, 142064, Note_on_c, 0, 78, 0
6, 142080, Note_on_c, 0, 76, 76
6, 142304, Note_on_c, 0, 76, 0
6, 142320, Note_on_c, 0, 69, 76
6, 142559, Note_on_c, 0, 69, 0
6, 144480, Note_on_c, 0, 69, 76
6, 144704, Note_on_c, 0, 69, 0
6, 144720, Note_on_c, 0, 79, 76
6, 144824, Note_on_c, 0, 79, 0
6, 144840, Note_on_c, 0, 76, 76
6, 144944, Note_on_c, 0, 76, 0
6, 144960, Note_on_c, 0, 78, 76
6, 145064, Note_on_c, 0, 78, 0
6, 145080, Note_on_c, 0, 76, 76
6, 145184, Note_on_c, 0, 76, 0
6, 145200, Note_on_c, 0, 74, 76
6, 145304, Note_on_c, 0, 74, 0
6, 145320, Note_on_c, 0, 76, 76
6, 145424, Note_on_c, 0, 76, 0
6, 145440, Note_on_c, 0, 76, 76
6, 145784, Note_on_c, 0, 76, 0
6, 145800, Note_on_c, 0, 74, 76
6, 145904, Note_on_c, 0, 74, 0
6, 145920, Note_on_c, 0, 74, 76
6, 146399, Note_on_c, 0, 74, 0
6, 150240, Note_on_c, 0, 66, 76
6, 150464, Note_on_c, 0, 66, 0
6, 150480, Note_on_c, 0, 78, 76
6, 150584, Note_on_c, 0, 78, 0
6, 150600, Note_on_c, 0, 74, 76
6, 150704, Note_on_c, 0, 74, 0
6, 150720, Note_on_c, 0, 76, 76
6, 151184, Note_on_c, 0, 76, 0
6, 151200, Note_on_c, 0, 66, 76
6, 151424, Note_on_c, 0, 66, 0
6, 151440, Note_on_c, 0, 76, 76
6, 151544, Note_on_c, 0, 76, 0
6, 151560, Note_on_c, 0, 78, 76
6, 151664, Note_on_c, 0, 78, 0
6, 151680, Note_on_c, 0, 74, 76
6, 152159, Note_on_c, 0, 74, 0
6, 156000, Note_on_c, 0, 69, 76
6, 156224, Note_on_c, 0, 69, 0
6, 156240, Note_on_c, 0, 79, 76
6, 156344, Note_on_c, 0, 79, 0
6, 156360, Note_on_c, 0, 76, 76
6, 156464, Note_on_c, 0, 76, 0
6, 156480, Note_on_c, 0, 78, 76
6, 156704, Note_on_c, 0, 78, 0
6, 156720, Note_on_c, 0, 76, 76
6, 156824, Note_on_c, 0, 76, 0
6, 156840, Note_on_c, 0, 74, 76
6, 156944, Note_on_c, 0, 74, 0
6, 156960, Note_on_c, 0, 76, 76
6, 157064, Note_on_c, 0, 76, 0
6, 157080, Note_on_c, 0, 78, 76
6, 157184, Note_on_c, 0, 78, 0
6, 157200, Note_on_c, 0, 76, 76
6, 157304, Note_on_c, 0, 76, 0
6, 157320, Note_on_c, 0, 78, 76
6, 157424, Note_on_c, 0, 78, 0
6, 157440, Note_on_c, 0, 76, 76
6, 157664, Note_on_c, 0, 76, 0
6, 157680, Note_on_c, 0, 69, 76
6, 157919, Note_on_c, 0, 69, 0
6, 159840, Note_on_c, 0, 69, 76
6, 160064, Note_on_c, 0, 69, 0
6, 160080, Note_on_c, 0, 79, 76
6, 160184, Note_on_c, 0, 79, 0
6, 160200, Note_on_c, 0, 76, 76
6, 160304, Note_on_c, 0, 76, 0
6, 160320, Note_on_c, 0, 78, 76
6, 160424, Note_on_c, 0, 78, 0
6, 160440, Note_on_c, 0, 76, 76
6, 160544, Note_on_c, 0, 76, 0
6, 160560, Note_on_c, 0, 74, 76
6, 160664, Note_on_c, 0, 74, 0
6, 160680, Note_on_c, 0, 76, 76
6, 160784, Note_on_c, 0, 76, 0
6, 160800, Note_on_c, 0, 76, 76
6, 161144, Note_on_c, 0, 76, 0
6, 161160, Note_on_c, 0, 74, 76
6, 161264, Note_on_c, 0, 74, 0
6, 161280, Note_on_c, 0, 74, 76
6, 161759, Note_on_c, 0, 74, 0
6, 161759, End_track
7, 0, Start_track
7, 0, Title_t, "Trumpet II in D"
7, 0, MIDI_port, 0
7, 0, Program_c, 1, 56
7, 0, Control_c, 1, 10, 64
7, 0, Control_c, 1, 11, 127
7, 0, Control_c, 1, 7, 96
7, 0, Note_on_c, 1, 66, 76
7, 224, Note_on_c, 1, 66, 0
7, 240, Note_on_c, 1, 78, 76
7, 344, Note_on_c, 1, 78, 0
7, 360, Note_on_c, 1, 74, 76
7, 464, Note_on_c, 1, 74, 0
7, 480, Note_on_c, 1, 76, 76
7, 944, Note_on_c, 1, 76, 0
7, 960, Note_on_c, 1, 69, 76
7, 1184, Note_on_c, 1, 69, 0
7, 1200, Note_on_c, 1, 76, 76
7, 1304, Note_on_c, 1, 76, 0
7, 1320, Note_on_c, 1, 69, 76
7, 1424, Note_on_c, 1, 69, 0
7, 1440, Note_on_c, 1, 69, 76
7, 1919, Note_on_c, 1, 69, 0
7, 3840, Note_on_c, 1, 66, 76
7, 4064, Note_on_c, 1, 66, 0
7, 4080, Note_on_c, 1, 78, 76
7, 4184, Note_on_c, 1, 78, 0
7, 4200, Note_on_c, 1, 74, 76
7, 4304, Note_on_c, 1, 74, 0
7, 4320, Note_on_c, 1, 76, 76
7, 4784, Note_on_c, 1, 76, 0
7, 4800, Note_on_c, 1, 69, 76
7, 5024, Note_on_c, 1, 69, 0
7, 5040, Note_on_c, 1, 76, 76
7, 5144, Note_on_c, 1, 76, 0
7, 5160, Note_on_c, 1, 69, 76
7, 5264, Note_on_c, 1, 69, 0
7, 5280, Note_on_c, 1, 69, 76
7, 5759, Note_on_c, 1, 69, 0
7, 9600, Note_on_c, 1, 66, 76
7, 9824, Note_on_c, 1, 66, 0
7, 9840, Note_on_c, 1, 78, 76
7, 9944, Note_on_c, 1, 78, 0
7, 9960, Note_on_c, 1, 74, 76
7, 10064, Note_on_c, 1, 74, 0
7, 10080, Note_on_c, 1, 76, 76
7, 10544, Note_on_c, 1, 76, 0
7, 10560, Note_on_c, 1, 69, 76
7, 10784, Note_on_c, 1, 69, 0
7, 10800, Note_on_c, 1, 76, 76
7, 10904, Note_on_c, 1, 76, 0
7, 10920, Note_on_c, 1, 69, 76
7, 11024, Note_on_c, 1, 69, 0
7, 11040, Note_on_c, 1, 69, 76
7, 11519, Note_on_c, 1, 69, 0
7, 13440, Note_on_c, 1, 66, 76
7, 13664, Note_on_c, 1, 66, 0
7, 13680, Note_on_c, 1, 78, 76
7, 13784, Note_on_c, 1, 78, 0
7, 13800, Note_on_c, 1, 74, 76
7, 13904, Note_on_c, 1, 74, 0
7, 13920, Note_on_c, 1, 76, 76
7, 14384, Note_on_c, 1, 76, 0
7, 14400, Note_on_c, 1, 69, 76
7, 14624, Note_on_c, 1, 69, 0
7, 14640, Note_on_c, 1, 76, 76
7, 14744, Note_on_c, 1, 76, 0
7, 14760, Note_on_c, 1, 69, 76
7, 14864, Note_on_c, 1, 69, 0
7, 14880, Note_on_c, 1, 69, 76
7, 15359, Note_on_c, 1, 69, 0
7, 28800, Note_on_c, 1, 76, 76
7, 29024, Note_on_c, 1, 76, 0
7, 29040, Note_on_c, 1, 76, 76
7, 29264, Note_on_c, 1, 76, 0
7, 29280, Note_on_c, 1, 74, 76
7, 29519, Note_on_c, 1, 74, 0
7, 29760, Note_on_c, 1, 83, 76
7, 29999, Note_on_c, 1, 83, 0
7, 30240, Note_on_c, 1, 81, 76
7, 30719, Note_on_c, 1, 81, 0
7, 32640, Note_on_c, 1, 76, 76
7, 32864, Note_on_c, 1, 76, 0
7, 32880, Note_on_c, 1, 76, 76
7, 33104, Note_on_c, 1, 76, 0
7, 33120, Note_on_c, 1, 74, 76
7, 33344, Note_on_c, 1, 74, 0
7, 33360, Note_on_c, 1, 74, 76
7, 33584, Note_on_c, 1, 74, 0
7, 33600, Note_on_c, 1, 69, 76
7, 33704, Note_on_c, 1, 69, 0
7, 33720, Note_on_c, 1, 66, 76
7, 33824, Note_on_c, 1, 66, 0
7, 33840, Note_on_c, 1, 69, 76
7, 34064, Note_on_c, 1, 69, 0
7, 34080, Note_on_c, 1, 66, 76
7, 34559, Note_on_c, 1, 66, 0
7, 44160, Note_on_c, 1, 76, 76
7, 44384, Note_on_c, 1, 76, 0
7, 44400, Note_on_c, 1, 76, 76
7, 44624, Note_on_c, 1, 76, 0
7, 44640, Note_on_c, 1, 74, 76
7, 44879, Note_on_c, 1, 74, 0
7, 45120, Note_on_c, 1, 83, 76
7, 45359, Note_on_c, 1, 83, 0
7, 45600, Note_on_c, 1, 81, 76
7, 46079, Note_on_c, 1, 81, 0
7, 48000, Note_on_c, 1, 76, 76
7, 48224, Note_on_c, 1, 76, 0
7, 48240, Note_on_c, 1, 76, 76
7, 48464, Note_on_c, 1, 76, 0
7, 48480, Note_on_c, 1, 74, 76
7, 48704, Note_on_c, 1, 74, 0
7, 48720, Note_on_c, 1, 74, 76
7, 48944, Note_on_c, 1, 74, 0
7, 48960, Note_on_c, 1, 69, 76
7, 49064, Note_on_c, 1, 69, 0
7, 49080, Note_on_c, 1, 66, 76
7, 49184, Note_on_c, 1, 66, 0
7, 49200, Note_on_c, 1, 69, 76
7, 49424, Note_on_c, 1, 69, 0
7, 49440, Note_on_c, 1, 66, 76
7, 49919, Note_on_c, 1, 66, 0
7, 50160, Note_on_c, 1, 74, 76
7, 50399, Note_on_c, 1, 74, 0
7, 50400, Note_on_c, 1, 74, 76
7, 50624, Note_on_c, 1, 74, 0
7, 50640, Note_on_c, 1, 66, 76
7, 50879, Note_on_c, 1, 66, 0
7, 50880, Note_on_c, 1, 66, 76
7, 51104, Note_on_c, 1, 66, 0
7, 51120, Note_on_c, 1, 69, 76
7, 51359, Note_on_c, 1, 69, 0
7, 51360, Note_on_c, 1, 69, 76
7, 51584, Note_on_c, 1, 69, 0
7, 51600, Note_on_c, 1, 62, 76
7, 52079, Note_on_c, 1, 62, 0
7, 54000, Note_on_c, 1, 74, 76
7, 54239, Note_on_c, 1, 74, 0
7, 54240, Note_on_c, 1, 74, 76
7, 54464, Note_on_c, 1, 74, 0
7, 54480, Note_on_c, 1, 66, 76
7, 54719, Note_on_c, 1, 66, 0
7, 54720, Note_on_c, 1, 66, 76
7, 54944, Note_on_c, 1, 66, 0
7, 54960, Note_on_c, 1, 69, 76
7, 55199, Note_on_c, 1, 69, 0
7, 55200, Note_on_c, 1, 69, 76
7, 55424, Note_on_c, 1, 69, 0
7, 55440, Note_on_c, 1, 62, 76
7, 55919, Note_on_c, 1, 62, 0
7, 63600, Note_on_c, 1, 76, 76
7, 63839, Note_on_c, 1, 76, 0
7, 63840, Note_on_c, 1, 76, 76
7, 64064, Note_on_c, 1, 76, 0
7, 64080, Note_on_c, 1, 81, 76
7, 64319, Note_on_c, 1, 81, 0
7, 64320, Note_on_c, 1, 81, 76
7, 64544, Note_on_c, 1, 81, 0
7, 64560, Note_on_c, 1, 76, 76
7, 64799, Note_on_c, 1, 76, 0
7, 64800, Note_on_c, 1, 76, 76
7, 65024, Note_on_c, 1, 76, 0
7, 65040, Note_on_c, 1, 69, 76
7, 65504, Note_on_c, 1, 69, 0
7, 65520, Note_on_c, 1, 74, 76
7, 65759, Note_on_c, 1, 74, 0
7, 65760, Note_on_c, 1, 74, 76
7, 65984, Note_on_c, 1, 74, 0
7, 66000, Note_on_c, 1, 66, 76
7, 66239, Note_on_c, 1, 66, 0
7, 66240, Note_on_c, 1, 66, 76
7, 66464, Note_on_c, 1, 66, 0
7, 66480, Note_on_c, 1, 69, 76
7, 66719, Note_on_c, 1, 69, 0
7, 66720, Note_on_c, 1, 69, 76
7, 66944, Note_on_c, 1, 69, 0
7, 66960, Note_on_c, 1, 62, 76
7, 67439, Note_on_c, 1, 62, 0
7, 69360, Note_on_c, 1, 74, 76
7, 69599, Note_on_c, 1, 74, 0
7, 69600, Note_on_c, 1, 74, 76
7, 69824, Note_on_c, 1, 74, 0
7, 69840, Note_on_c, 1, 66, 76
7, 70079, Note_on_c, 1, 66, 0
7, 70080, Note_on_c, 1, 66, 76
7, 70304, Note_on_c, 1, 66, 0
7, 70320, Note_on_c, 1, 69, 76
7, 70559, Note_on_c, 1, 69, 0
7, 70560, Note_on_c, 1, 69, 76
7, 70784, Note_on_c, 1, 69, 0
7, 70800, Note_on_c, 1, 62, 76
7, 71279, Note_on_c, 1, 62, 0
7, 78960, Note_on_c, 1, 76, 76
7, 79199, Note_on_c, 1, 76, 0
7, 79200, Note_on_c, 1, 76, 76
7, 79424, Note_on_c, 1, 76, 0
7, 79440, Note_on_c, 1, 81, 76
7, 79679, Note_on_c, 1, 81, 0
7, 79680, Note_on_c, 1, 81, 76
7, 79904, Note_on_c, 1, 81, 0
7, 79920, Note_on_c, 1, 76, 76
7, 80159, Note_on_c, 1, 76, 0
7, 80160, Note_on_c, 1, 76, 76
7, 80384, Note_on_c, 1, 76, 0
7, 80400, Note_on_c, 1, 69, 76
7, 80864, Note_on_c, 1, 69, 0
7, 88560, Note_on_c, 1, 66, 76
7, 88799, Note_on_c, 1, 66, 0
7, 88800, Note_on_c, 1, 69, 76
7, 89024, Note_on_c, 1, 69, 0
7, 89040, Note_on_c, 1, 69, 76
7, 89279, Note_on_c, 1, 69, 0
7, 89280, Note_on_c, 1, 74, 76
7, 89504, Note_on_c, 1, 74, 0
7, 89520, Note_on_c, 1, 74, 76
7, 89759, Note_on_c, 1, 74, 0
7, 89760, Note_on_c, 1, 78, 76
7, 89984, Note_on_c, 1, 78, 0
7, 90000, Note_on_c, 1, 78, 76
7, 90479, Note_on_c, 1, 78, 0
7, 94320, Note_on_c, 1, 74, 76
7, 94559, Note_on_c, 1, 74, 0
7, 94560, Note_on_c, 1, 74, 76
7, 94784, Note_on_c, 1, 74, 0
7, 94800, Note_on_c, 1, 66, 76
7, 95039, Note_on_c, 1, 66, 0
7, 95040, Note_on_c, 1, 66, 76
7, 95264, Note_on_c, 1, 66, 0
7, 95280, Note_on_c, 1, 69, 76
7, 95519, Note_on_c, 1, 69, 0
7, 95520, Note_on_c, 1, 69, 76
7, 95744, Note_on_c, 1, 69, 0
7, 95760, Note_on_c, 1, 62, 76
7, 96224, Note_on_c, 1, 62, 0
7, 103920, Note_on_c, 1, 66, 76
7, 104159, Note_on_c, 1, 66, 0
7, 104160, Note_on_c, 1, 69, 76
7, 104384, Note_on_c, 1, 69, 0
7, 104400, Note_on_c, 1, 69, 76
7, 104639, Note_on_c, 1, 69, 0
7, 104640, Note_on_c, 1, 74, 76
7, 104864, Note_on_c, 1, 74, 0
7, 104880, Note_on_c, 1, 74, 76
7, 105119, Note_on_c, 1, 74, 0
7, 105120, Note_on_c, 1, 78, 76
7, 105344, Note_on_c, 1, 78, 0
7, 105360, Note_on_c, 1, 78, 76
7, 105839, Note_on_c, 1, 78, 0
7, 109680, Note_on_c, 1, 74, 76
7, 109919, Note_on_c, 1, 74, 0
7, 109920, Note_on_c, 1, 74, 76
7, 110144, Note_on_c, 1, 74, 0
7, 110160, Note_on_c, 1, 66, 76
7, 110399, Note_on_c, 1, 66, 0
7, 110400, Note_on_c, 1, 66, 76
7, 110624, Note_on_c, 1, 66, 0
7, 110640, Note_on_c, 1, 69, 76
7, 110879, Note_on_c, 1, 69, 0
7, 110880, Note_on_c, 1, 69, 76
7, 111104, Note_on_c, 1, 69, 0
7, 111120, Note_on_c, 1, 62, 76
7, 111584, Note_on_c, 1, 62, 0
7, 111840, Note_on_c, 1, 66, 76
7, 112064, Note_on_c, 1, 66, 0
7, 112080, Note_on_c, 1, 78, 76
7, 112184, Note_on_c, 1, 78, 0
7, 112200, Note_on_c, 1, 74, 76
7, 112304, Note_on_c, 1, 74, 0
7, 112320, Note_on_c, 1, 76, 76
7, 112784, Note_on_c, 1, 76, 0
7, 112800, Note_on_c, 1, 69, 76
7, 113024, Note_on_c, 1, 69, 0
7, 113040, Note_on_c, 1, 76, 76
7, 113144, Note_on_c, 1, 76, 0
7, 113160, Note_on_c, 1, 69, 76
7, 113264, Note_on_c, 1, 69, 0
7, 113280, Note_on_c, 1, 69, 76
7, 113759, Note_on_c, 1, 69, 0
7, 115680, Note_on_c, 1, 66, 76
7, 115904, Note_on_c, 1, 66, 0
7, 115920, Note_on_c, 1, 78, 76
7, 116024, Note_on_c, 1, 78, 0
7, 116040, Note_on_c, 1, 74, 76
7, 116144, Note_on_c, 1, 74, 0
7, 116160, Note_on_c, 1, 76, 76
7, 116624, Note_on_c, 1, 76, 0
7, 116640, Note_on_c, 1, 69, 76
7, 116864, Note_on_c, 1, 69, 0
7, 116880, Note_on_c, 1, 76, 76
7, 116984, Note_on_c, 1, 76, 0
7, 117000, Note_on_c, 1, 69, 76
7, 117104, Note_on_c, 1, 69, 0
7, 117120, Note_on_c, 1, 69, 76
7, 117599, Note_on_c, 1, 69, 0
7, 121440, Note_on_c, 1, 66, 76
7, 121664, Note_on_c, 1, 66, 0
7, 121680, Note_on_c, 1, 78, 76
7, 121784, Note_on_c, 1, 78, 0
7, 121800, Note_on_c, 1, 74, 76
7, 121904, Note_on_c, 1, 74, 0
7, 121920, Note_on_c, 1, 76, 76
7, 122384, Note_on_c, 1, 76, 0
7, 122400, Note_on_c, 1, 69, 76
7, 122624, Note_on_c, 1, 69, 0
7, 122640, Note_on_c, 1, 76, 76
7, 122744, Note_on_c, 1, 76, 0
7, 122760, Note_on_c, 1, 69, 76
7, 122864, Note_on_c, 1, 69, 0
7, 122880, Note_on_c, 1, 69, 76
7, 123359, Note_on_c, 1, 69, 0
7, 125280, Note_on_c, 1, 66, 76
7, 125504, Note_on_c, 1, 66, 0
7, 125520, Note_on_c, 1, 78, 76
7, 125624, Note_on_c, 1, 78, 0
7, 125640, Note_on_c, 1, 74, 76
7, 125744, Note_on_c, 1, 74, 0
7, 125760, Note_on_c, 1, 76, 76
7, 126224, Note_on_c, 1, 76, 0
7, 126240, Note_on_c, 1, 69, 76
7, 126464, Note_on_c, 1, 69, 0
7, 126480, Note_on_c, 1, 76, 76
7, 126584, Note_on_c, 1, 76, 0
7, 126600, Note_on_c, 1, 69, 76
7, 126704, Note_on_c, 1, 69, 0
7, 126720, Note_on_c, 1, 69, 76
7, 127199, Note_on_c, 1, 69, 0
7, 140640, Note_on_c, 1, 76, 76
7, 140864, Note_on_c, 1, 76, 0
7, 140880, Note_on_c, 1, 76, 76
7, 141104, Note_on_c, 1, 76, 0
7, 141120, Note_on_c, 1, 74, 76
7, 141359, Note_on_c, 1, 74, 0
7, 141600, Note_on_c, 1, 83, 76
7, 141839, Note_on_c, 1, 83, 0
7, 142080, Note_on_c, 1, 81, 76
7, 142559, Note_on_c, 1, 81, 0
7, 144480, Note_on_c, 1, 76, 76
7, 144704, Note_on_c, 1, 76, 0
7, 144720, Note_on_c, 1, 76, 76
7, 144944, Note_on_c, 1, 76, 0
7, 144960, Note_on_c, 1, 74, 76
7, 145184, Note_on_c, 1, 74, 0
7, 145200, Note_on_c, 1, 74, 76
7, 145424, Note_on_c, 1, 74, 0
7, 145440, Note_on_c, 1, 69, 76
7, 145544, Note_on_c, 1, 69, 0
7, 145560, Note_on_c, 1, 66, 76
7, 145664, Note_on_c, 1, 66, 0
7, 145680, Note_on_c, 1, 69, 76
7, 145904, Note_on_c, 1, 69, 0
7, 145920, Note_on_c, 1, 66, 76
7, 146399, Note_on_c, 1, 66, 0
7, 156000, Note_on_c, 1, 76, 76
7, 156224, Note_on_c, 1, 76, 0
7, 156240, Note_on_c, 1, 76, 76
7, 156464, Note_on_c, 1, 76, 0
7, 156480, Note_on_c, 1, 74, 76
7, 156719, Note_on_c, 1, 74, 0
7, 156960, Note_on_c, 1, 83, 76
7, 157199, Note_on_c, 1, 83, 0
7, 157440, Note_on_c, 1, 81, 76
7, 157919, Note_on_c, 1, 81, 0
7, 159840, Note_on_c, 1, 76, 76
7, 160064, Note_on_c, 1, 76, 0
7, 160080, Note_on_c, 1, 76, 76
7, 160304, Note_on_c, 1, 76, 0
7, 160320, Note_on_c, 1, 74, 76
7, 160544, Note_on_c, 1, 74, 0
7, 160560, Note_on_c, 1, 74, 76
7, 160784, Note_on_c, 1, 74, 0
7, 160800, Note_on_c, 1, 69, 76
7, 160904, Note_on_c, 1, 69, 0
7, 160920, Note_on_c, 1, 66, 76
7, 161024, Note_on_c, 1, 66, 0
7, 161040, Note_on_c, 1, 69, 76
7, 161264, Note_on_c, 1, 69, 0
7, 161280, Note_on_c, 1, 66, 76
7, 161759, Note_on_c, 1, 66, 0
7, 161759, End_track
8, 0, Start_track
8, 0, Title_t, "Trumpet III in D"
8, 0, MIDI_port, 0
8, 0, Program_c, 2, 56
8, 0, Control_c, 2, 10, 74
8, 0, Control_c, 2, 11, 127
8, 0, Control_c, 2, 7, 96
8, 0, Note_on_c, 2, 62, 76
8, 224, Note_on_c, 2, 62, 0
8, 240, Note_on_c, 2, 62, 76
8, 464, Note_on_c, 2, 62, 0
8, 480, Note_on_c, 2, 69, 76
8, 944, Note_on_c, 2, 69, 0
8, 960, Note_on_c, 2, 69, 76
8, 1184, Note_on_c, 2, 69, 0
8, 1200, Note_on_c, 2, 69, 76
8, 1424, Note_on_c, 2, 69, 0
8, 1440, Note_on_c, 2, 62, 76
8, 1919, Note_on_c, 2, 62, 0
8, 3840, Note_on_c, 2, 62, 76
8, 4064, Note_on_c, 2, 62, 0
8, 4080, Note_on_c, 2, 62, 76
8, 4304, Note_on_c, 2, 62, 0
8, 4320, Note_on_c, 2, 69, 76
8, 4784, Note_on_c, 2, 69, 0
8, 4800, Note_on_c, 2, 69, 76
8, 5024, Note_on_c, 2, 69, 0
8, 5040, Note_on_c, 2, 69, 76
8, 5264, Note_on_c, 2, 69, 0
8, 5280, Note_on_c, 2, 62, 76
8, 5759, Note_on_c, 2, 62, 0
8, 9600, Note_on_c, 2, 62, 76
8, 9824, Note_on_c, 2, 62, 0
8, 9840, Note_on_c, 2, 62, 76
8, 10064, Note_on_c, 2, 62, 0
8, 10080, Note_on_c, 2, 69, 76
8, 10544, Note_on_c, 2, 69, 0
8, 10560, Note_on_c, 2, 69, 76
8, 10784, Note_on_c, 2, 69, 0
8, 10800, Note_on_c, 2, 69, 76
8, 11024, Note_on_c, 2, 69, 0
8, 11040, Note_on_c, 2, 62, 76
8, 11519, Note_on_c, 2, 62, 0
8, 13440, Note_on_c, 2, 62, 76
8, 13664, Note_on_c, 2, 62, 0
8, 13680, Note_on_c, 2, 62, 76
8, 13904, Note_on_c, 2, 62, 0
8, 13920, Note_on_c, 2, 69, 76
8, 14384, Note_on_c, 2, 69, 0
8, 14400, Note_on_c, 2, 69, 76
8, 14624, Note_on_c, 2, 69, 0
8, 14640, Note_on_c, 2, 69, 76
8, 14864, Note_on_c, 2, 69, 0
8, 14880, Note_on_c, 2, 62, 76
8, 15359, Note_on_c, 2, 62, 0
8, 28800, Note_on_c, 2, 69, 76
8, 29024, Note_on_c, 2, 69, 0
8, 29040, Note_on_c, 2, 69, 76
8, 29264, Note_on_c, 2, 69, 0
8, 29280, Note_on_c, 2, 69, 76
8, 29519, Note_on_c, 2, 69, 0
8, 29760, Note_on_c, 2, 74, 76
8, 29999, Note_on_c, 2, 74, 0
8, 30240, Note_on_c, 2, 69, 76
8, 30719, Note_on_c, 2, 69, 0
8, 32640, Note_on_c, 2, 69, 76
8, 32864, Note_on_c, 2, 69, 0
8, 32880, Note_on_c, 2, 69, 76
8, 33104, Note_on_c, 2, 69, 0
8, 33120, Note_on_c, 2, 69, 76
8, 33344, Note_on_c, 2, 69, 0
8, 33360, Note_on_c, 2, 66, 76
8, 33464, Note_on_c, 2, 66, 0
8, 33480, Note_on_c, 2, 62, 76
8, 33584, Note_on_c, 2, 62, 0
8, 33600, Note_on_c, 2, 69, 76
8, 33824, Note_on_c, 2, 69, 0
8, 33840, Note_on_c, 2, 69, 76
8, 33944, Note_on_c, 2, 69, 0
8, 33960, Note_on_c, 2, 69, 76
8, 34064, Note_on_c, 2, 69, 0
8, 34080, Note_on_c, 2, 69, 76
8, 34559, Note_on_c, 2, 69, 0
8, 44160, Note_on_c, 2, 69, 76
8, 44384, Note_on_c, 2, 69, 0
8, 44400, Note_on_c, 2, 69, 76
8, 44624, Note_on_c, 2, 69, 0
8, 44640, Note_on_c, 2, 69, 76
8, 44879, Note_on_c, 2, 69, 0
8, 45120, Note_on_c, 2, 74, 76
8, 45359, Note_on_c, 2, 74, 0
8, 45600, Note_on_c, 2, 69, 76
8, 46079, Note_on_c, 2, 69, 0
8, 48000, Note_on_c, 2, 69, 76
8, 48224, Note_on_c, 2, 69, 0
8, 48240, Note_on_c, 2, 69, 76
8, 48464, Note_on_c, 2, 69, 0
8, 48480, Note_on_c, 2, 69, 76
8, 48704, Note_on_c, 2, 69, 0
8, 48720, Note_on_c, 2, 66, 76
8, 48824, Note_on_c, 2, 66, 0
8, 48840, Note_on_c, 2, 62, 76
8, 48944, Note_on_c, 2, 62, 0
8, 48960, Note_on_c, 2, 69, 76
8, 49184, Note_on_c, 2, 69, 0
8, 49200, Note_on_c, 2, 69, 76
8, 49304, Note_on_c, 2, 69, 0
8, 49320, Note_on_c, 2, 69, 76
8, 49424, Note_on_c, 2, 69, 0
8, 49440, Note_on_c, 2, 69, 76
8, 49919, Note_on_c, 2, 69, 0
8, 50160, Note_on_c, 2, 74, 76
8, 50399, Note_on_c, 2, 74, 0
8, 50400, Note_on_c, 2, 74, 76
8, 50624, Note_on_c, 2, 74, 0
8, 50640, Note_on_c, 2, 66, 76
8, 50879, Note_on_c, 2, 66, 0
8, 50880, Note_on_c, 2, 66, 76
8, 51104, Note_on_c, 2, 66, 0
8, 51120, Note_on_c, 2, 69, 76
8, 51359, Note_on_c, 2, 69, 0
8, 51360, Note_on_c, 2, 69, 76
8, 51584, Note_on_c, 2, 69, 0
8, 51600, Note_on_c, 2, 62, 76
8, 52079, Note_on_c, 2, 62, 0
8, 54000, Note_on_c, 2, 74, 76
8, 54239, Note_on_c, 2, 74, 0
8, 54240, Note_on_c, 2, 74, 76
8, 54464, Note_on_c, 2, 74, 0
8, 54480, Note_on_c, 2, 66, 76
8, 54719, Note_on_c, 2, 66, 0
8, 54720, Note_on_c, 2, 66, 76
8, 54944, Note_on_c, 2, 66, 0
8, 54960, Note_on_c, 2, 69, 76
8, 55199, Note_on_c, 2, 69, 0
8, 55200, Note_on_c, 2, 69, 76
8, 55424, Note_on_c, 2, 69, 0
8, 55440, Note_on_c, 2, 62, 76
8, 55919, Note_on_c, 2, 62, 0
8, 63600, Note_on_c, 2, 76, 76
8, 63839, Note_on_c, 2, 76, 0
8, 63840, Note_on_c, 2, 76, 76
8, 64064, Note_on_c, 2, 76, 0
8, 64080, Note_on_c, 2, 81, 76
8, 64319, Note_on_c, 2, 81, 0
8, 64320, Note_on_c, 2, 81, 76
8, 64544, Note_on_c, 2, 81, 0
8, 64560, Note_on_c, 2, 76, 76
8, 64799, Note_on_c, 2, 76, 0
8, 64800, Note_on_c, 2, 76, 76
8, 65024, Note_on_c, 2, 76, 0
8, 65040, Note_on_c, 2, 69, 76
8, 65504, Note_on_c, 2, 69, 0
8, 65520, Note_on_c, 2, 74, 76
8, 65759, Note_on_c, 2, 74, 0
8, 65760, Note_on_c, 2, 74, 76
8, 65984, Note_on_c, 2, 74, 0
8, 66000, Note_on_c, 2, 66, 76
8, 66239, Note_on_c, 2, 66, 0
8, 66240, Note_on_c, 2, 66, 76
8, 66464, Note_on_c, 2, 66, 0
8, 66480, Note_on_c, 2, 69, 76
8, 66719, Note_on_c, 2, 69, 0
8, 66720, Note_on_c, 2, 69, 76
8, 66944, Note_on_c, 2, 69, 0
8, 66960, Note_on_c, 2, 62, 76
8, 67439, Note_on_c, 2, 62, 0
8, 69360, Note_on_c, 2, 74, 76
8, 69599, Note_on_c, 2, 74, 0
8, 69600, Note_on_c, 2, 74, 76
8, 69824, Note_on_c, 2, 74, 0
8, 69840, Note_on_c, 2, 66, 76
8, 70079, Note_on_c, 2, 66, 0
8, 70080, Note_on_c, 2, 66, 76
8, 70304, Note_on_c, 2, 66, 0
8, 70320, Note_on_c, 2, 69, 76
8, 70559, Note_on_c, 2, 69, 0
8, 70560, Note_on_c, 2, 69, 76
8, 70784, Note_on_c, 2, 69, 0
8, 70800, Note_on_c, 2, 62, 76
8, 71279, Note_on_c, 2, 62, 0
8, 78960, Note_on_c, 2, 76, 76
8, 79199, Note_on_c, 2, 76, 0
8, 79200, Note_on_c, 2, 76, 76
8, 79424, Note_on_c, 2, 76, 0
8, 79440, Note_on_c, 2, 81, 76
8, 79679, Note_on_c, 2, 81, 0
8, 79680, Note_on_c, 2, 81, 76
8, 79904, Note_on_c, 2, 81, 0
8, 79920, Note_on_c, 2, 76, 76
8, 80159, Note_on_c, 2, 76, 0
8, 80160, Note_on_c, 2, 76, 76
8, 80384, Note_on_c, 2, 76, 0
8, 80400, Note_on_c, 2, 69, 76
8, 80864, Note_on_c, 2, 69, 0
8, 88560, Note_on_c, 2, 62, 76
8, 88799, Note_on_c, 2, 62, 0
8, 88800, Note_on_c, 2, 66, 76
8, 89024, Note_on_c, 2, 66, 0
8, 89040, Note_on_c, 2, 66, 76
8, 89279, Note_on_c, 2, 66, 0
8, 89280, Note_on_c, 2, 69, 76
8, 89504, Note_on_c, 2, 69, 0
8, 89520, Note_on_c, 2, 69, 76
8, 89759, Note_on_c, 2, 69, 0
8, 89760, Note_on_c, 2, 74, 76
8, 89984, Note_on_c, 2, 74, 0
8, 90000, Note_on_c, 2, 74, 76
8, 90479, Note_on_c, 2, 74, 0
8, 94320, Note_on_c, 2, 74, 76
8, 94559, Note_on_c, 2, 74, 0
8, 94560, Note_on_c, 2, 74, 76
8, 94784, Note_on_c, 2, 74, 0
8, 94800, Note_on_c, 2, 66, 76
8, 95039, Note_on_c, 2, 66, 0
8, 95040, Note_on_c, 2, 66, 76
8, 95264, Note_on_c, 2, 66, 0
8, 95280, Note_on_c, 2, 69, 76
8, 95519, Note_on_c, 2, 69, 0
8, 95520, Note_on_c, 2, 69, 76
8, 95744, Note_on_c, 2, 69, 0
8, 95760, Note_on_c, 2, 62, 76
8, 96224, Note_on_c, 2, 62, 0
8, 103920, Note_on_c, 2, 62, 76
8, 104159, Note_on_c, 2, 62, 0
8, 104160, Note_on_c, 2, 66, 76
8, 104384, Note_on_c, 2, 66, 0
8, 104400, Note_on_c, 2, 66, 76
8, 104639, Note_on_c, 2, 66, 0
8, 104640, Note_on_c, 2, 69, 76
8, 104864, Note_on_c, 2, 69, 0
8, 104880, Note_on_c, 2, 69, 76
8, 105119, Note_on_c, 2, 69, 0
8, 105120, Note_on_c, 2, 74, 76
8, 105344, Note_on_c, 2, 74, 0
8, 105360, Note_on_c, 2, 74, 76
8, 105839, Note_on_c, 2, 74, 0
8, 109680, Note_on_c, 2, 74, 76
8, 109919, Note_on_c, 2, 74, 0
8, 109920, Note_on_c, 2, 74, 76
8, 110144, Note_on_c, 2, 74, 0
8, 110160, Note_on_c, 2, 66, 76
8, 110399, Note_on_c, 2, 66, 0
8, 110400, Note_on_c, 2, 66, 76
8, 110624, Note_on_c, 2, 66, 0
8, 110640, Note_on_c, 2, 69, 76
8, 110879, Note_on_c, 2, 69, 0
8, 110880, Note_on_c, 2, 69, 76
8, 111104, Note_on_c, 2, 69, 0
8, 111120, Note_on_c, 2, 62, 76
8, 111584, Note_on_c, 2, 62, 0
8, 111840, Note_on_c, 2, 62, 76
8, 112064, Note_on_c, 2, 62, 0
8, 112080, Note_on_c, 2, 62, 76
8, 112304, Note_on_c, 2, 62, 0
8, 112320, Note_on_c, 2, 69, 76
8, 112784, Note_on_c, 2, 69, 0
8, 112800, Note_on_c, 2, 69, 76
8, 113024, Note_on_c, 2, 69, 0
8, 113040, Note_on_c, 2, 69, 76
8, 113264, Note_on_c, 2, 69, 0
8, 113280, Note_on_c, 2, 62, 76
8, 113759, Note_on_c, 2, 62, 0
8, 115680, Note_on_c, 2, 62, 76
8, 115904, Note_on_c, 2, 62, 0
8, 115920, Note_on_c, 2, 62, 76
8, 116144, Note_on_c, 2, 62, 0
8, 116160, Note_on_c, 2, 69, 76
8, 116624, Note_on_c, 2, 69, 0
8, 116640, Note_on_c, 2, 69, 76
8, 116864, Note_on_c, 2, 69, 0
8, 116880, Note_on_c, 2, 69, 76
8, 117104, Note_on_c, 2, 69, 0
8, 117120, Note_on_c, 2, 62, 76
8, 117599, Note_on_c, 2, 62, 0
8, 121440, Note_on_c, 2, 62, 76
8, 121664, Note_on_c, 2, 62, 0
8, 121680, Note_on_c, 2, 62, 76
8, 121904, Note_on_c, 2, 62, 0
8, 121920, Note_on_c, 2, 69, 76
8, 122384, Note_on_c, 2, 69, 0
8, 122400, Note_on_c, 2, 69, 76
8, 122624, Note_on_c, 2, 69, 0
8, 122640, Note_on_c, 2, 69, 76
8, 122864, Note_on_c, 2, 69, 0
8, 122880, Note_on_c, 2, 62, 76
8, 123359, Note_on_c, 2, 62, 0
8, 125280, Note_on_c, 2, 62, 76
8, 125504, Note_on_c, 2, 62, 0
8, 125520, Note_on_c, 2, 62, 76
8, 125744, Note_on_c, 2, 62, 0
8, 125760, Note_on_c, 2, 69, 76
8, 126224, Note_on_c, 2, 69, 0
8, 126240, Note_on_c, 2, 69, 76
8, 126464, Note_on_c, 2, 69, 0
8, 126480, Note_on_c, 2, 69, 76
8, 126704, Note_on_c, 2, 69, 0
8, 126720, Note_on_c, 2, 62, 76
8, 127199, Note_on_c, 2, 62, 0
8, 140640, Note_on_c, 2, 69, 76
8, 140864, Note_on_c, 2, 69, 0
8, 140880, Note_on_c, 2, 69, 76
8, 141104, Note_on_c, 2, 69, 0
8, 141120, Note_on_c, 2, 69, 76
8, 141359, Note_on_c, 2, 69, 0
8, 141600, Note_on_c, 2, 74, 76
8, 141839, Note_on_c, 2, 74, 0
8, 142080, Note_on_c, 2, 69, 76
8, 142559, Note_on_c, 2, 69, 0
8, 144480, Note_on_c, 2, 69, 76
8, 144704, Note_on_c, 2, 69, 0
8, 144720, Note_on_c, 2, 69, 76
8, 144944, Note_on_c, 2, 69, 0
8, 144960, Note_on_c, 2, 69, 76
8, 145184, Note_on_c, 2, 69, 0
8, 145200, Note_on_c, 2, 66, 76
8, 145304, Note_on_c, 2, 66, 0
8, 145320, Note_on_c, 2, 62, 76
8, 145424, Note_on_c, 2, 62, 0
8, 145440, Note_on_c, 2, 69, 76
8, 145664, Note_on_c, 2, 69, 0
8, 145680, Note_on_c, 2, 69, 76
8, 145784, Note_on_c, 2, 69, 0
8, 145800, Note_on_c, 2, 69, 76
8, 145904, Note_on_c, 2, 69, 0
8, 145920, Note_on_c, 2, 69, 76
8, 146399, Note_on_c, 2, 69, 0
8, 156000, Note_on_c, 2, 69, 76
8, 156224, Note_on_c, 2, 69, 0
8, 156240, Note_on_c, 2, 69, 76
8, 156464, Note_on_c, 2, 69, 0
8, 156480, Note_on_c, 2, 69, 76
8, 156719, Note_on_c, 2, 69, 0
8, 156960, Note_on_c, 2, 74, 76
8, 157199, Note_on_c, 2, 74, 0
8, 157440, Note_on_c, 2, 69, 76
8, 157919, Note_on_c, 2, 69, 0
8, 159840, Note_on_c, 2, 69, 76
8, 160064, Note_on_c, 2, 69, 0
8, 160080, Note_on_c, 2, 69, 76
8, 160304, Note_on_c, 2, 69, 0
8, 160320, Note_on_c, 2, 69, 76
8, 160544, Note_on_c, 2, 69, 0
8, 160560, Note_on_c, 2, 66, 76
8, 160664, Note_on_c, 2, 66, 0
8, 160680, Note_on_c, 2, 62, 76
8, 160784, Note_on_c, 2, 62, 0
8, 160800, Note_on_c, 2, 69, 76
8, 161024, Note_on_c, 2, 69, 0
8, 161040, Note_on_c, 2, 69, 76
8, 161144, Note_on_c, 2, 69, 0
8, 161160, Note_on_c, 2, 69, 76
8, 161264, Note_on_c, 2, 69, 0
8, 161280, Note_on_c, 2, 69, 76
8, 161759, Note_on_c, 2, 69, 0
8, 161759, End_track
9, 0, Start_track
9, 0, Title_t, "Timpani"
9, 0, MIDI_port, 0
9, 0, Program_c, 3, 47
9, 0, Control_c, 3, 10, 25
9, 0, Control_c, 3, 11, 127
9, 0, Control_c, 3, 7, 96
9, 0, Note_on_c, 3, 50, 76
9, 239, Note_on_c, 3, 50, 0
9, 240, Note_on_c, 3, 50, 76
9, 479, Note_on_c, 3, 50, 0
9, 480, Note_on_c, 3, 45, 76
9, 959, Note_on_c, 3, 45, 0
9, 960, Note_on_c, 3, 45, 76
9, 1199, Note_on_c, 3, 45, 0
9, 1200, Note_on_c, 3, 45, 76
9, 1439, Note_on_c, 3, 45, 0
9, 1440, Note_on_c, 3, 50, 76
9, 1919, Note_on_c, 3, 50, 0
9, 3840, Note_on_c, 3, 50, 76
9, 4079, Note_on_c, 3, 50, 0
9, 4080, Note_on_c, 3, 50, 76
9, 4319, Note_on_c, 3, 50, 0
9, 4320, Note_on_c, 3, 45, 76
9, 4799, Note_on_c, 3, 45, 0
9, 4800, Note_on_c, 3, 45, 76
9, 5039, Note_on_c, 3, 45, 0
9, 5040, Note_on_c, 3, 45, 76
9, 5279, Note_on_c, 3, 45, 0
9, 5280, Note_on_c, 3, 50, 76
9, 5759, Note_on_c, 3, 50, 0
9, 9600, Note_on_c, 3, 50, 76
9, 9839, Note_on_c, 3, 50, 0
9, 9840, Note_on_c, 3, 50, 76
9, 10079, Note_on_c, 3, 50, 0
9, 10080, Note_on_c, 3, 45, 76
9, 10559, Note_on_c, 3, 45, 0
9, 10560, Note_on_c, 3, 45, 76
9, 10799, Note_on_c, 3, 45, 0
9, 10800, Note_on_c, 3, 45, 76
9, 11039, Note_on_c, 3, 45, 0
9, 11040, Note_on_c, 3, 50, 76
9, 11519, Note_on_c, 3, 50, 0
9, 13440, Note_on_c, 3, 50, 76
9, 13679, Note_on_c, 3, 50, 0
9, 13680, Note_on_c, 3, 50, 76
9, 13919, Note_on_c, 3, 50, 0
9, 13920, Note_on_c, 3, 45, 76
9, 14399, Note_on_c, 3, 45, 0
9, 14400, Note_on_c, 3, 45, 76
9, 14639, Note_on_c, 3, 45, 0
9, 14640, Note_on_c, 3, 45, 76
9, 14879, Note_on_c, 3, 45, 0
9, 14880, Note_on_c, 3, 50, 76
9, 15359, Note_on_c, 3, 50, 0
9, 28800, Note_on_c, 3, 45, 76
9, 29039, Note_on_c, 3, 45, 0
9, 29040, Note_on_c, 3, 45, 76
9, 29279, Note_on_c, 3, 45, 0
9, 29280, Note_on_c, 3, 50, 76
9, 29519, Note_on_c, 3, 50, 0
9, 29760, Note_on_c, 3, 50, 76
9, 29999, Note_on_c, 3, 50, 0
9, 30240, Note_on_c, 3, 45, 76
9, 30719, Note_on_c, 3, 45, 0
9, 32640, Note_on_c, 3, 45, 76
9, 32879, Note_on_c, 3, 45, 0
9, 32880, Note_on_c, 3, 45, 76
9, 33119, Note_on_c, 3, 45, 0
9, 33120, Note_on_c, 3, 50, 76
9, 33359, Note_on_c, 3, 50, 0
9, 33600, Note_on_c, 3, 45, 76
9, 33839, Note_on_c, 3, 45, 0
9, 33840, Note_on_c, 3, 45, 76
9, 34079, Note_on_c, 3, 45, 0
9, 34080, Note_on_c, 3, 50, 76
9, 34559, Note_on_c, 3, 50, 0
9, 44160, Note_on_c, 3, 45, 76
9, 44399, Note_on_c, 3, 45, 0
9, 44400, Note_on_c, 3, 45, 76
9, 44639, Note_on_c, 3, 45, 0
9, 44640, Note_on_c, 3, 50, 76
9, 44879, Note_on_c, 3, 50, 0
9, 45120, Note_on_c, 3, 50, 76
9, 45359, Note_on_c, 3, 50, 0
9, 45600, Note_on_c, 3, 45, 76
9, 46079, Note_on_c, 3, 45, 0
9, 48000, Note_on_c, 3, 45, 76
9, 48239, Note_on_c, 3, 45, 0
9, 48240, Note_on_c, 3, 45, 76
9, 48479, Note_on_c, 3, 45, 0
9, 48480, Note_on_c, 3, 50, 76
9, 48719, Note_on_c, 3, 50, 0
9, 48960, Note_on_c, 3, 45, 76
9, 49199, Note_on_c, 3, 45, 0
9, 49200, Note_on_c, 3, 45, 76
9, 49439, Note_on_c, 3, 45, 0
9, 49440, Note_on_c, 3, 50, 76
9, 49919, Note_on_c, 3, 50, 0
9, 111840, Note_on_c, 3, 50, 76
9, 112079, Note_on_c, 3, 50, 0
9, 112080, Note_on_c, 3, 50, 76
9, 112319, Note_on_c, 3, 50, 0
9, 112320, Note_on_c, 3, 45, 76
9, 112799, Note_on_c, 3, 45, 0
9, 112800, Note_on_c, 3, 45, 76
9, 113039, Note_on_c, 3, 45, 0
9, 113040, Note_on_c, 3, 45, 76
9, 113279, Note_on_c, 3, 45, 0
9, 113280, Note_on_c, 3, 50, 76
9, 113759, Note_on_c, 3, 50, 0
9, 115680, Note_on_c, 3, 50, 76
9, 115919, Note_on_c, 3, 50, 0
9, 115920, Note_on_c, 3, 50, 76
9, 116159, Note_on_c, 3, 50, 0
9, 116160, Note_on_c, 3, 45, 76
9, 116639, Note_on_c, 3, 45, 0
9, 116640, Note_on_c, 3, 45, 76
9, 116879, Note_on_c, 3, 45, 0
9, 116880, Note_on_c, 3, 45, 76
9, 117119, Note_on_c, 3, 45, 0
9, 117120, Note_on_c, 3, 50, 76
9, 117599, Note_on_c, 3, 50, 0
9, 121440, Note_on_c, 3, 50, 76
9, 121679, Note_on_c, 3, 50, 0
9, 121680, Note_on_c, 3, 50, 76
9, 121919, Note_on_c, 3, 50, 0
9, 121920, Note_on_c, 3, 45, 76
9, 122399, Note_on_c, 3, 45, 0
9, 122400, Note_on_c, 3, 45, 76
9, 122639, Note_on_c, 3, 45, 0
9, 122640, Note_on_c, 3, 45, 76
9, 122879, Note_on_c, 3, 45, 0
9, 122880, Note_on_c, 3, 50, 76
9, 123359, Note_on_c, 3, 50, 0
9, 125280, Note_on_c, 3, 50, 76
9, 125519, Note_on_c, 3, 50, 0
9, 125520, Note_on_c, 3, 50, 76
9, 125759, Note_on_c, 3, 50, 0
9, 125760, Note_on_c, 3, 45, 76
9, 126239, Note_on_c, 3, 45, 0
9, 126240, Note_on_c, 3, 45, 76
9, 126479, Note_on_c, 3, 45, 0
9, 126480, Note_on_c, 3, 45, 76
9, 126719, Note_on_c, 3, 45, 0
9, 126720, Note_on_c, 3, 50, 76
9, 127199, Note_on_c, 3, 50, 0
9, 140640, Note_on_c, 3, 45, 76
9, 140879, Note_on_c, 3, 45, 0
9, 140880, Note_on_c, 3, 45, 76
9, 141119, Note_on_c, 3, 45, 0
9, 141120, Note_on_c, 3, 50, 76
9, 141359, Note_on_c, 3, 50, 0
9, 141600, Note_on_c, 3, 50, 76
9, 141839, Note_on_c, 3, 50, 0
9, 142080, Note_on_c, 3, 45, 76
9, 142559, Note_on_c, 3, 45, 0
9, 144480, Note_on_c, 3, 45, 76
9, 144719, Note_on_c, 3, 45, 0
9, 144720, Note_on_c, 3, 45, 76
9, 144959, Note_on_c, 3, 45, 0
9, 144960, Note_on_c, 3, 50, 76
9, 145199, Note_on_c, 3, 50, 0
9, 145440, Note_on_c, 3, 45, 76
9, 145679, Note_on_c, 3, 45, 0
9, 145680, Note_on_c, 3, 45, 76
9, 145919, Note_on_c, 3, 45, 0
9, 145920, Note_on_c, 3, 50, 76
9, 146399, Note_on_c, 3, 50, 0
9, 156000, Note_on_c, 3, 45, 76
9, 156239, Note_on_c, 3, 45, 0
9, 156240, Note_on_c, 3, 45, 76
9, 156479, Note_on_c, 3, 45, 0
9, 156480, Note_on_c, 3, 50, 76
9, 156719, Note_on_c, 3, 50, 0
9, 156960, Note_on_c, 3, 50, 76
9, 157199, Note_on_c, 3, 50, 0
9, 157440, Note_on_c, 3, 45, 76
9, 157919, Note_on_c, 3, 45, 0
9, 159840, Note_on_c, 3, 45, 76
9, 160079, Note_on_c, 3, 45, 0
9, 160080, Note_on_c, 3, 45, 76
9, 160319, Note_on_c, 3, 45, 0
9, 160320, Note_on_c, 3, 50, 76
9, 160559, Note_on_c, 3, 50, 0
9, 160800, Note_on_c, 3, 45, 76
9, 161039, Note_on_c, 3, 45, 0
9, 161040, Note_on_c, 3, 45, 76
9, 161279, Note_on_c, 3, 45, 0
9, 161280, Note_on_c, 3, 50, 76
9, 161759, Note_on_c, 3, 50, 0
9, 161759, End_track
10, 0, Start_track
10, 0, Title_t, "Oboe I"
10, 0, MIDI_port, 0
10, 0, Program_c, 4, 68
10, 0, Control_c, 4, 10, 59
10, 0, Control_c, 4, 11, 127
10, 0, Control_c, 4, 7, 80
10, 0, Note_on_c, 4, 69, 76
10, 224, Note_on_c, 4, 69, 0
10, 240, Note_on_c, 4, 81, 76
10, 344, Note_on_c, 4, 81, 0
10, 360, Note_on_c, 4, 78, 76
10, 464, Note_on_c, 4, 78, 0
10, 480, Note_on_c, 4, 79, 76
10, 944, Note_on_c, 4, 79, 0
10, 960, Note_on_c, 4, 69, 76
10, 1184, Note_on_c, 4, 69, 0
10, 1200, Note_on_c, 4, 79, 76
10, 1304, Note_on_c, 4, 79, 0
10, 1320, Note_on_c, 4, 76, 76
10, 1387, Note_on_c, 4, 76, 0
10, 1400, Note_on_c, 4, 76, 76
10, 1439, Note_on_c, 4, 76, 0
10, 1440, Note_on_c, 4, 78, 76
10, 1904, Note_on_c, 4, 78, 0
10, 1920, Note_on_c, 4, 69, 76
10, 2144, Note_on_c, 4, 69, 0
10, 2160, Note_on_c, 4, 76, 76
10, 2264, Note_on_c, 4, 76, 0
10, 2280, Note_on_c, 4, 73, 76
10, 2384, Note_on_c, 4, 73, 0
10, 2400, Note_on_c, 4, 74, 76
10, 2624, Note_on_c, 4, 74, 0
10, 2640, Note_on_c, 4, 73, 76
10, 2744, Note_on_c, 4, 73, 0
10, 2760, Note_on_c, 4, 71, 76
10, 2864, Note_on_c, 4, 71, 0
10, 2880, Note_on_c, 4, 69, 76
10, 2984, Note_on_c, 4, 69, 0
10, 3000, Note_on_c, 4, 71, 76
10, 3104, Note_on_c, 4, 71, 0
10, 3120, Note_on_c, 4, 67, 76
10, 3344, Note_on_c, 4, 67, 0
10, 3360, Note_on_c, 4, 66, 76
10, 3389, Note_on_c, 4, 66, 0
10, 3390, Note_on_c, 4, 67, 76
10, 3419, Note_on_c, 4, 67, 0
10, 3420, Note_on_c, 4, 66, 76
10, 3449, Note_on_c, 4, 66, 0
10, 3450, Note_on_c, 4, 67, 76
10, 3479, Note_on_c, 4, 67, 0
10, 3480, Note_on_c, 4, 66, 76
10, 3509, Note_on_c, 4, 66, 0
10, 3510, Note_on_c, 4, 67, 76
10, 3539, Note_on_c, 4, 67, 0
10, 3540, Note_on_c, 4, 64, 76
10, 3569, Note_on_c, 4, 64, 0
10, 3570, Note_on_c, 4, 66, 76
10, 3591, Note_on_c, 4, 66, 0
10, 3600, Note_on_c, 4, 64, 76
10, 3704, Note_on_c, 4, 64, 0
10, 3720, Note_on_c, 4, 62, 76
10, 3824, Note_on_c, 4, 62, 0
10, 3840, Note_on_c, 4, 69, 76
10, 4064, Note_on_c, 4, 69, 0
10, 4080, Note_on_c, 4, 81, 76
10, 4184, Note_on_c, 4, 81, 0
10, 4200, Note_on_c, 4, 78, 76
10, 4304, Note_on_c, 4, 78, 0
10, 4320, Note_on_c, 4, 79, 76
10, 4784, Note_on_c, 4, 79, 0
10, 4800, Note_on_c, 4, 69, 76
10, 5024, Note_on_c, 4, 69, 0
10, 5040, Note_on_c, 4, 79, 76
10, 5144, Note_on_c, 4, 79, 0
10, 5160, Note_on_c, 4, 76, 76
10, 5264, Note_on_c, 4, 76, 0
10, 5280, Note_on_c, 4, 78, 76
10, 5744, Note_on_c, 4, 78, 0
10, 5760, Note_on_c, 4, 80, 76
10, 5984, Note_on_c, 4, 80, 0
10, 6000, Note_on_c, 4, 83, 76
10, 6104, Note_on_c, 4, 83, 0
10, 6120, Note_on_c, 4, 80, 76
10, 6224, Note_on_c, 4, 80, 0
10, 6240, Note_on_c, 4, 81, 76
10, 6464, Note_on_c, 4, 81, 0
10, 6480, Note_on_c, 4, 80, 76
10, 6584, Note_on_c, 4, 80, 0
10, 6600, Note_on_c, 4, 78, 76
10, 6704, Note_on_c, 4, 78, 0
10, 6720, Note_on_c, 4, 76, 76
10, 6824, Note_on_c, 4, 76, 0
10, 6840, Note_on_c, 4, 78, 76
10, 6944, Note_on_c, 4, 78, 0
10, 6960, Note_on_c, 4, 74, 76
10, 7184, Note_on_c, 4, 74, 0
10, 7200, Note_on_c, 4, 73, 76
10, 7424, Note_on_c, 4, 73, 0
10, 7440, Note_on_c, 4, 78, 76
10, 7544, Note_on_c, 4, 78, 0
10, 7560, Note_on_c, 4, 74, 76
10, 7664, Note_on_c, 4, 74, 0
10, 7680, Note_on_c, 4, 76, 76
10, 7904, Note_on_c, 4, 76, 0
10, 7920, Note_on_c, 4, 74, 76
10, 8024, Note_on_c, 4, 74, 0
10, 8040, Note_on_c, 4, 73, 76
10, 8144, Note_on_c, 4, 73, 0
10, 8160, Note_on_c, 4, 71, 76
10, 8264, Note_on_c, 4, 71, 0
10, 8280, Note_on_c, 4, 73, 76
10, 8384, Note_on_c, 4, 73, 0
10, 8400, Note_on_c, 4, 69, 76
10, 8624, Note_on_c, 4, 69, 0
10, 8640, Note_on_c, 4, 64, 76
10, 8864, Note_on_c, 4, 64, 0
10, 8880, Note_on_c, 4, 68, 76
10, 9104, Note_on_c, 4, 68, 0
10, 9120, Note_on_c, 4, 69, 76
10, 9584, Note_on_c, 4, 69, 0
10, 9600, Note_on_c, 4, 69, 76
10, 9824, Note_on_c, 4, 69, 0
10, 9840, Note_on_c, 4, 81, 76
10, 9944, Note_on_c, 4, 81, 0
10, 9960, Note_on_c, 4, 78, 76
10, 10064, Note_on_c, 4, 78, 0
10, 10080, Note_on_c, 4, 79, 76
10, 10544, Note_on_c, 4, 79, 0
10, 10560, Note_on_c, 4, 69, 76
10, 10784, Note_on_c, 4, 69, 0
10, 10800, Note_on_c, 4, 79, 76
10, 10904, Note_on_c, 4, 79, 0
10, 10920, Note_on_c, 4, 76, 76
10, 10987, Note_on_c, 4, 76, 0
10, 11000, Note_on_c, 4, 76, 76
10, 11039, Note_on_c, 4, 76, 0
10, 11040, Note_on_c, 4, 78, 76
10, 11504, Note_on_c, 4, 78, 0
10, 11520, Note_on_c, 4, 69, 76
10, 11744, Note_on_c, 4, 69, 0
10, 11760, Note_on_c, 4, 76, 76
10, 11864, Note_on_c, 4, 76, 0
10, 11880, Note_on_c, 4, 73, 76
10, 11984, Note_on_c, 4, 73, 0
10, 12000, Note_on_c, 4, 74, 76
10, 12224, Note_on_c, 4, 74, 0
10, 12240, Note_on_c, 4, 73, 76
10, 12344, Note_on_c, 4, 73, 0
10, 12360, Note_on_c, 4, 71, 76
10, 12464, Note_on_c, 4, 71, 0
10, 12480, Note_on_c, 4, 69, 76
10, 12584, Note_on_c, 4, 69, 0
10, 12600, Note_on_c, 4, 71, 76
10, 12704, Note_on_c, 4, 71, 0
10, 12720, Note_on_c, 4, 67, 76
10, 12944, Note_on_c, 4, 67, 0
10, 12960, Note_on_c, 4, 66, 76
10, 12989, Note_on_c, 4, 66, 0
10, 12990, Note_on_c, 4, 67, 76
10, 13019, Note_on_c, 4, 67, 0
10, 13020, Note_on_c, 4, 66, 76
10, 13049, Note_on_c, 4, 66, 0
10, 13050, Note_on_c, 4, 67, 76
10, 13079, Note_on_c, 4, 67, 0
10, 13080, Note_on_c, 4, 66, 76
10, 13109, Note_on_c, 4, 66, 0
10, 13110, Note_on_c, 4, 67, 76
10, 13139, Note_on_c, 4, 67, 0
10, 13140, Note_on_c, 4, 64, 76
10, 13169, Note_on_c, 4, 64, 0
10, 13170, Note_on_c, 4, 66, 76
10, 13191, Note_on_c, 4, 66, 0
10, 13200, Note_on_c, 4, 64, 76
10, 13304, Note_on_c, 4, 64, 0
10, 13320, Note_on_c, 4, 62, 76
10, 13424, Note_on_c, 4, 62, 0
10, 13440, Note_on_c, 4, 69, 76
10, 13664, Note_on_c, 4, 69, 0
10, 13680, Note_on_c, 4, 81, 76
10, 13784, Note_on_c, 4, 81, 0
10, 13800, Note_on_c, 4, 78, 76
10, 13904, Note_on_c, 4, 78, 0
10, 13920, Note_on_c, 4, 79, 76
10, 14384, Note_on_c, 4, 79, 0
10, 14400, Note_on_c, 4, 69, 76
10, 14624, Note_on_c, 4, 69, 0
10, 14640, Note_on_c, 4, 79, 76
10, 14744, Note_on_c, 4, 79, 0
10, 14760, Note_on_c, 4, 76, 76
10, 14864, Note_on_c, 4, 76, 0
10, 14880, Note_on_c, 4, 78, 76
10, 15344, Note_on_c, 4, 78, 0
10, 15360, Note_on_c, 4, 80, 76
10, 15584, Note_on_c, 4, 80, 0
10, 15600, Note_on_c, 4, 83, 76
10, 15704, Note_on_c, 4, 83, 0
10, 15720, Note_on_c, 4, 80, 76
10, 15824, Note_on_c, 4, 80, 0
10, 15840, Note_on_c, 4, 81, 76
10, 16064, Note_on_c, 4, 81, 0
10, 16080, Note_on_c, 4, 80, 76
10, 16184, Note_on_c, 4, 80, 0
10, 16200, Note_on_c, 4, 78, 76
10, 16304, Note_on_c, 4, 78, 0
10, 16320, Note_on_c, 4, 76, 76
10, 16424, Note_on_c, 4, 76, 0
10, 16440, Note_on_c, 4, 78, 76
10, 16544, Note_on_c, 4, 78, 0
10, 16560, Note_on_c, 4, 74, 76
10, 16784, Note_on_c, 4, 74, 0
10, 16800, Note_on_c, 4, 73, 76
10, 17024, Note_on_c, 4, 73, 0
10, 17040, Note_on_c, 4, 78, 76
10, 17144, Note_on_c, 4, 78, 0
10, 17160, Note_on_c, 4, 74, 76
10, 17264, Note_on_c, 4, 74, 0
10, 17280, Note_on_c, 4, 76, 76
10, 17504, Note_on_c, 4, 76, 0
10, 17520, Note_on_c, 4, 74, 76
10, 17624, Note_on_c, 4, 74, 0
10, 17640, Note_on_c, 4, 73, 76
10, 17744, Note_on_c, 4, 73, 0
10, 17760, Note_on_c, 4, 71, 76
10, 17864, Note_on_c, 4, 71, 0
10, 17880, Note_on_c, 4, 73, 76
10, 17984, Note_on_c, 4, 73, 0
10, 18000, Note_on_c, 4, 69, 76
10, 18224, Note_on_c, 4, 69, 0
10, 18240, Note_on_c, 4, 64, 76
10, 18464, Note_on_c, 4, 64, 0
10, 18480, Note_on_c, 4, 68, 76
10, 18704, Note_on_c, 4, 68, 0
10, 18720, Note_on_c, 4, 69, 76
10, 19184, Note_on_c, 4, 69, 0
10, 19200, Note_on_c, 4, 76, 76
10, 19424, Note_on_c, 4, 76, 0
10, 19440, Note_on_c, 4, 64, 76
10, 19544, Note_on_c, 4, 64, 0
10, 19560, Note_on_c, 4, 67, 76
10, 19664, Note_on_c, 4, 67, 0
10, 19680, Note_on_c, 4, 66, 76
10, 20144, Note_on_c, 4, 66, 0
10, 20160, Note_on_c, 4, 74, 76
10, 20384, Note_on_c, 4, 74, 0
10, 20400, Note_on_c, 4, 66, 76
10, 20504, Note_on_c, 4, 66, 0
10, 20520, Note_on_c, 4, 69, 76
10, 20624, Note_on_c, 4, 69, 0
10, 20640, Note_on_c, 4, 67, 76
10, 21104, Note_on_c, 4, 67, 0
10, 21120, Note_on_c, 4, 73, 76
10, 21344, Note_on_c, 4, 73, 0
10, 21360, Note_on_c, 4, 70, 76
10, 21464, Note_on_c, 4, 70, 0
10, 21480, Note_on_c, 4, 73, 76
10, 21584, Note_on_c, 4, 73, 0
10, 21600, Note_on_c, 4, 71, 76
10, 21824, Note_on_c, 4, 71, 0
10, 21840, Note_on_c, 4, 73, 76
10, 21944, Note_on_c, 4, 73, 0
10, 21960, Note_on_c, 4, 74, 76
10, 22064, Note_on_c, 4, 74, 0
10, 22080, Note_on_c, 4, 73, 76
10, 22184, Note_on_c, 4, 73, 0
10, 22200, Note_on_c, 4, 71, 76
10, 22304, Note_on_c, 4, 71, 0
10, 22320, Note_on_c, 4, 79, 76
10, 22544, Note_on_c, 4, 79, 0
10, 22560, Note_on_c, 4, 79, 76
10, 22589, Note_on_c, 4, 79, 0
10, 22590, Note_on_c, 4, 81, 76
10, 22619, Note_on_c, 4, 81, 0
10, 22620, Note_on_c, 4, 79, 76
10, 22649, Note_on_c, 4, 79, 0
10, 22650, Note_on_c, 4, 81, 76
10, 22679, Note_on_c, 4, 81, 0
10, 22680, Note_on_c, 4, 79, 76
10, 22709, Note_on_c, 4, 79, 0
10, 22710, Note_on_c, 4, 81, 76
10, 22739, Note_on_c, 4, 81, 0
10, 22740, Note_on_c, 4, 78, 76
10, 22769, Note_on_c, 4, 78, 0
10, 22770, Note_on_c, 4, 79, 76
10, 22791, Note_on_c, 4, 79, 0
10, 22800, Note_on_c, 4, 78, 76
10, 23024, Note_on_c, 4, 78, 0
10, 23040, Note_on_c, 4, 66, 76
10, 23264, Note_on_c, 4, 66, 0
10, 23280, Note_on_c, 4, 78, 76
10, 23384, Note_on_c, 4, 78, 0
10, 23400, Note_on_c, 4, 74, 76
10, 23504, Note_on_c, 4, 74, 0
10, 23520, Note_on_c, 4, 76, 76
10, 23984, Note_on_c, 4, 76, 0
10, 24000, Note_on_c, 4, 66, 76
10, 24224, Note_on_c, 4, 66, 0
10, 24240, Note_on_c, 4, 76, 76
10, 24344, Note_on_c, 4, 76, 0
10, 24360, Note_on_c, 4, 73, 76
10, 24464, Note_on_c, 4, 73, 0
10, 24480, Note_on_c, 4, 74, 76
10, 24704, Note_on_c, 4, 74, 0
10, 24720, Note_on_c, 4, 71, 76
10, 24824, Note_on_c, 4, 71, 0
10, 24840, Note_on_c, 4, 74, 76
10, 24944, Note_on_c, 4, 74, 0
10, 24960, Note_on_c, 4, 73, 76
10, 25064, Note_on_c, 4, 73, 0
10, 25080, Note_on_c, 4, 70, 76
10, 25184, Note_on_c, 4, 70, 0
10, 25200, Note_on_c, 4, 71, 76
10, 25424, Note_on_c, 4, 71, 0
10, 25440, Note_on_c, 4, 78, 76
10, 25664, Note_on_c, 4, 78, 0
10, 25680, Note_on_c, 4, 79, 76
10, 25784, Note_on_c, 4, 79, 0
10, 25800, Note_on_c, 4, 78, 76
10, 25904, Note_on_c, 4, 78, 0
10, 25920, Note_on_c, 4, 76, 76
10, 26024, Note_on_c, 4, 76, 0
10, 26040, Note_on_c, 4, 74, 76
10, 26144, Note_on_c, 4, 74, 0
10, 26160, Note_on_c, 4, 73, 76
10, 26264, Note_on_c, 4, 73, 0
10, 26280, Note_on_c, 4, 74, 76
10, 26384, Note_on_c, 4, 74, 0
10, 26400, Note_on_c, 4, 71, 76
10, 26864, Note_on_c, 4, 71, 0
10, 26880, Note_on_c, 4, 71, 76
10, 27104, Note_on_c, 4, 71, 0
10, 27120, Note_on_c, 4, 83, 76
10, 27224, Note_on_c, 4, 83, 0
10, 27240, Note_on_c, 4, 79, 76
10, 27344, Note_on_c, 4, 79, 0
10, 27360, Note_on_c, 4, 81, 76
10, 27824, Note_on_c, 4, 81, 0
10, 27840, Note_on_c, 4, 71, 76
10, 28064, Note_on_c, 4, 71, 0
10, 28080, Note_on_c, 4, 81, 76
10, 28184, Note_on_c, 4, 81, 0
10, 28200, Note_on_c, 4, 78, 76
10, 28304, Note_on_c, 4, 78, 0
10, 28320, Note_on_c, 4, 79, 76
10, 28784, Note_on_c, 4, 79, 0
10, 28800, Note_on_c, 4, 73, 76
10, 29024, Note_on_c, 4, 73, 0
10, 29040, Note_on_c, 4, 79, 76
10, 29144, Note_on_c, 4, 79, 0
10, 29160, Note_on_c, 4, 76, 76
10, 29264, Note_on_c, 4, 76, 0
10, 29280, Note_on_c, 4, 78, 76
10, 29504, Note_on_c, 4, 78, 0
10, 29520, Note_on_c, 4, 76, 76
10, 29624, Note_on_c, 4, 76, 0
10, 29640, Note_on_c, 4, 74, 76
10, 29744, Note_on_c, 4, 74, 0
10, 29760, Note_on_c, 4, 76, 76
10, 29864, Note_on_c, 4, 76, 0
10, 29880, Note_on_c, 4, 73, 76
10, 29984, Note_on_c, 4, 73, 0
10, 30000, Note_on_c, 4, 74, 76
10, 30224, Note_on_c, 4, 74, 0
10, 30240, Note_on_c, 4, 73, 76
10, 30269, Note_on_c, 4, 73, 0
10, 30270, Note_on_c, 4, 74, 76
10, 30299, Note_on_c, 4, 74, 0
10, 30300, Note_on_c, 4, 73, 76
10, 30329, Note_on_c, 4, 73, 0
10, 30330, Note_on_c, 4, 74, 76
10, 30359, Note_on_c, 4, 74, 0
10, 30360, Note_on_c, 4, 73, 76
10, 30389, Note_on_c, 4, 73, 0
10, 30390, Note_on_c, 4, 74, 76
10, 30419, Note_on_c, 4, 74, 0
10, 30420, Note_on_c, 4, 71, 76
10, 30449, Note_on_c, 4, 71, 0
10, 30450, Note_on_c, 4, 73, 76
10, 30471, Note_on_c, 4, 73, 0
10, 30480, Note_on_c, 4, 71, 76
10, 30584, Note_on_c, 4, 71, 0
10, 30600, Note_on_c, 4, 69, 76
10, 30704, Note_on_c, 4, 69, 0
10, 30720, Note_on_c, 4, 81, 76
10, 30944, Note_on_c, 4, 81, 0
10, 30960, Note_on_c, 4, 69, 76
10, 31064, Note_on_c, 4, 69, 0
10, 31080, Note_on_c, 4, 72, 76
10, 31184, Note_on_c, 4, 72, 0
10, 31200, Note_on_c, 4, 71, 76
10, 31664, Note_on_c, 4, 71, 0
10, 31680, Note_on_c, 4, 79, 76
10, 31904, Note_on_c, 4, 79, 0
10, 31920, Note_on_c, 4, 71, 76
10, 32024, Note_on_c, 4, 71, 0
10, 32040, Note_on_c, 4, 74, 76
10, 32144, Note_on_c, 4, 74, 0
10, 32160, Note_on_c, 4, 73, 76
10, 32384, Note_on_c, 4, 73, 0
10, 32400, Note_on_c, 4, 76, 76
10, 32504, Note_on_c, 4, 76, 0
10, 32520, Note_on_c, 4, 73, 76
10, 32624, Note_on_c, 4, 73, 0
10, 32640, Note_on_c, 4, 69, 76
10, 32864, Note_on_c, 4, 69, 0
10, 32880, Note_on_c, 4, 79, 76
10, 32984, Note_on_c, 4, 79, 0
10, 33000, Note_on_c, 4, 76, 76
10, 33104, Note_on_c, 4, 76, 0
10, 33120, Note_on_c, 4, 78, 76
10, 33224, Note_on_c, 4, 78, 0
10, 33240, Note_on_c, 4, 76, 76
10, 33344, Note_on_c, 4, 76, 0
10, 33360, Note_on_c, 4, 74, 76
10, 33464, Note_on_c, 4, 74, 0
10, 33480, Note_on_c, 4, 76, 76
10, 33584, Note_on_c, 4, 76, 0
10, 33600, Note_on_c, 4, 69, 76
10, 33824, Note_on_c, 4, 69, 0
10, 33840, Note_on_c, 4, 73, 76
10, 34064, Note_on_c, 4, 73, 0
10, 34080, Note_on_c, 4, 74, 76
10, 34544, Note_on_c, 4, 74, 0
10, 34560, Note_on_c, 4, 76, 76
10, 34784, Note_on_c, 4, 76, 0
10, 34800, Note_on_c, 4, 64, 76
10, 34904, Note_on_c, 4, 64, 0
10, 34920, Note_on_c, 4, 67, 76
10, 35024, Note_on_c, 4, 67, 0
10, 35040, Note_on_c, 4, 66, 76
10, 35504, Note_on_c, 4, 66, 0
10, 35520, Note_on_c, 4, 74, 76
10, 35744, Note_on_c, 4, 74, 0
10, 35760, Note_on_c, 4, 66, 76
10, 35864, Note_on_c, 4, 66, 0
10, 35880, Note_on_c, 4, 69, 76
10, 35984, Note_on_c, 4, 69, 0
10, 36000, Note_on_c, 4, 67, 76
10, 36464, Note_on_c, 4, 67, 0
10, 36480, Note_on_c, 4, 73, 76
10, 36704, Note_on_c, 4, 73, 0
10, 36720, Note_on_c, 4, 70, 76
10, 36824, Note_on_c, 4, 70, 0
10, 36840, Note_on_c, 4, 73, 76
10, 36944, Note_on_c, 4, 73, 0
10, 36960, Note_on_c, 4, 71, 76
10, 37184, Note_on_c, 4, 71, 0
10, 37200, Note_on_c, 4, 73, 76
10, 37304, Note_on_c, 4, 73, 0
10, 37320, Note_on_c, 4, 74, 76
10, 37424, Note_on_c, 4, 74, 0
10, 37440, Note_on_c, 4, 73, 76
10, 37544, Note_on_c, 4, 73, 0
10, 37560, Note_on_c, 4, 71, 76
10, 37664, Note_on_c, 4, 71, 0
10, 37680, Note_on_c, 4, 79, 76
10, 37904, Note_on_c, 4, 79, 0
10, 37920, Note_on_c, 4, 79, 76
10, 37949, Note_on_c, 4, 79, 0
10, 37950, Note_on_c, 4, 81, 76
10, 37979, Note_on_c, 4, 81, 0
10, 37980, Note_on_c, 4, 79, 76
10, 38009, Note_on_c, 4, 79, 0
10, 38010, Note_on_c, 4, 81, 76
10, 38039, Note_on_c, 4, 81, 0
10, 38040, Note_on_c, 4, 79, 76
10, 38069, Note_on_c, 4, 79, 0
10, 38070, Note_on_c, 4, 81, 76
10, 38099, Note_on_c, 4, 81, 0
10, 38100, Note_on_c, 4, 78, 76
10, 38129, Note_on_c, 4, 78, 0
10, 38130, Note_on_c, 4, 79, 76
10, 38151, Note_on_c, 4, 79, 0
10, 38160, Note_on_c, 4, 78, 76
10, 38384, Note_on_c, 4, 78, 0
10, 38400, Note_on_c, 4, 66, 76
10, 38624, Note_on_c, 4, 66, 0
10, 38640, Note_on_c, 4, 78, 76
10, 38744, Note_on_c, 4, 78, 0
10, 38760, Note_on_c, 4, 74, 76
10, 38864, Note_on_c, 4, 74, 0
10, 38880, Note_on_c, 4, 76, 76
10, 39344, Note_on_c, 4, 76, 0
10, 39360, Note_on_c, 4, 66, 76
10, 39584, Note_on_c, 4, 66, 0
10, 39600, Note_on_c, 4, 76, 76
10, 39704, Note_on_c, 4, 76, 0
10, 39720, Note_on_c, 4, 73, 76
10, 39824, Note_on_c, 4, 73, 0
10, 39840, Note_on_c, 4, 74, 76
10, 40064, Note_on_c, 4, 74, 0
10, 40080, Note_on_c, 4, 71, 76
10, 40184, Note_on_c, 4, 71, 0
10, 40200, Note_on_c, 4, 74, 76
10, 40304, Note_on_c, 4, 74, 0
10, 40320, Note_on_c, 4, 73, 76
10, 40424, Note_on_c, 4, 73, 0
10, 40440, Note_on_c, 4, 70, 76
10, 40544, Note_on_c, 4, 70, 0
10, 40560, Note_on_c, 4, 71, 76
10, 40784, Note_on_c, 4, 71, 0
10, 40800, Note_on_c, 4, 78, 76
10, 41024, Note_on_c, 4, 78, 0
10, 41040, Note_on_c, 4, 79, 76
10, 41144, Note_on_c, 4, 79, 0
10, 41160, Note_on_c, 4, 78, 76
10, 41264, Note_on_c, 4, 78, 0
10, 41280, Note_on_c, 4, 76, 76
10, 41384, Note_on_c, 4, 76, 0
10, 41400, Note_on_c, 4, 74, 76
10, 41504, Note_on_c, 4, 74, 0
10, 41520, Note_on_c, 4, 73, 76
10, 41624, Note_on_c, 4, 73, 0
10, 41640, Note_on_c, 4, 74, 76
10, 41744, Note_on_c, 4, 74, 0
10, 41760, Note_on_c, 4, 71, 76
10, 42224, Note_on_c, 4, 71, 0
10, 42240, Note_on_c, 4, 71, 76
10, 42464, Note_on_c, 4, 71, 0
10, 42480, Note_on_c, 4, 83, 76
10, 42584, Note_on_c, 4, 83, 0
10, 42600, Note_on_c, 4, 79, 76
10, 42704, Note_on_c, 4, 79, 0
10, 42720, Note_on_c, 4, 81, 76
10, 43184, Note_on_c, 4, 81, 0
10, 43200, Note_on_c, 4, 71, 76
10, 43424, Note_on_c, 4, 71, 0
10, 43440, Note_on_c, 4, 81, 76
10, 43544, Note_on_c, 4, 81, 0
10, 43560, Note_on_c, 4, 78, 76
10, 43664, Note_on_c, 4, 78, 0
10, 43680, Note_on_c, 4, 79, 76
10, 44144, Note_on_c, 4, 79, 0
10, 44160, Note_on_c, 4, 73, 76
10, 44384, Note_on_c, 4, 73, 0
10, 44400, Note_on_c, 4, 79, 76
10, 44504, Note_on_c, 4, 79, 0
10, 44520, Note_on_c, 4, 76, 76
10, 44624, Note_on_c, 4, 76, 0
10, 44640, Note_on_c, 4, 78, 76
10, 44864, Note_on_c, 4, 78, 0
10, 44880, Note_on_c, 4, 76, 76
10, 44984, Note_on_c, 4, 76, 0
10, 45000, Note_on_c, 4, 74, 76
10, 45104, Note_on_c, 4, 74, 0
10, 45120, Note_on_c, 4, 76, 76
10, 45224, Note_on_c, 4, 76, 0
10, 45240, Note_on_c, 4, 73, 76
10, 45344, Note_on_c, 4, 73, 0
10, 45360, Note_on_c, 4, 74, 76
10, 45584, Note_on_c, 4, 74, 0
10, 45600, Note_on_c, 4, 73, 76
10, 45629, Note_on_c, 4, 73, 0
10, 45630, Note_on_c, 4, 74, 76
10, 45659, Note_on_c, 4, 74, 0
10, 45660, Note_on_c, 4, 73, 76
10, 45689, Note_on_c, 4, 73, 0
10, 45690, Note_on_c, 4, 74, 76
10, 45719, Note_on_c, 4, 74, 0
10, 45720, Note_on_c, 4, 73, 76
10, 45749, Note_on_c, 4, 73, 0
10, 45750, Note_on_c, 4, 74, 76
10, 45779, Note_on_c, 4, 74, 0
10, 45780, Note_on_c, 4, 71, 76
10, 45809, Note_on_c, 4, 71, 0
10, 45810, Note_on_c, 4, 73, 76
10, 45831, Note_on_c, 4, 73, 0
10, 45840, Note_on_c, 4, 71, 76
10, 45944, Note_on_c, 4, 71, 0
10, 45960, Note_on_c, 4, 69, 76
10, 46064, Note_on_c, 4, 69, 0
10, 46080, Note_on_c, 4, 81, 76
10, 46304, Note_on_c, 4, 81, 0
10, 46320, Note_on_c, 4, 69, 76
10, 46424, Note_on_c, 4, 69, 0
10, 46440, Note_on_c, 4, 72, 76
10, 46544, Note_on_c, 4, 72, 0
10, 46560, Note_on_c, 4, 71, 76
10, 47024, Note_on_c, 4, 71, 0
10, 47040, Note_on_c, 4, 79, 76
10, 47264, Note_on_c, 4, 79, 0
10, 47280, Note_on_c, 4, 71, 76
10, 47384, Note_on_c, 4, 71, 0
10, 47400, Note_on_c, 4, 74, 76
10, 47504, Note_on_c, 4, 74, 0
10, 47520, Note_on_c, 4, 73, 76
10, 47744, Note_on_c, 4, 73, 0
10, 47760, Note_on_c, 4, 76, 76
10, 47864, Note_on_c, 4, 76, 0
10, 47880, Note_on_c, 4, 73, 76
10, 47984, Note_on_c, 4, 73, 0
10, 48000, Note_on_c, 4, 69, 76
10, 48224, Note_on_c, 4, 69, 0
10, 48240, Note_on_c, 4, 79, 76
10, 48344, Note_on_c, 4, 79, 0
10, 48360, Note_on_c, 4, 76, 76
10, 48464, Note_on_c, 4, 76, 0
10, 48480, Note_on_c, 4, 78, 76
10, 48584, Note_on_c, 4, 78, 0
10, 48600, Note_on_c, 4, 76, 76
10, 48704, Note_on_c, 4, 76, 0
10, 48720, Note_on_c, 4, 74, 76
10, 48824, Note_on_c, 4, 74, 0
10, 48840, Note_on_c, 4, 76, 76
10, 48944, Note_on_c, 4, 76, 0
10, 48960, Note_on_c, 4, 69, 76
10, 49184, Note_on_c, 4, 69, 0
10, 49200, Note_on_c, 4, 73, 76
10, 49424, Note_on_c, 4, 73, 0
10, 49440, Note_on_c, 4, 74, 76
10, 49919, Note_on_c, 4, 74, 0
10, 50160, Note_on_c, 4, 74, 76
10, 50264, Note_on_c, 4, 74, 0
10, 50280, Note_on_c, 4, 73, 76
10, 50384, Note_on_c, 4, 73, 0
10, 50400, Note_on_c, 4, 74, 76
10, 50624, Note_on_c, 4, 74, 0
10, 50640, Note_on_c, 4, 66, 76
10, 50744, Note_on_c, 4, 66, 0
10, 50760, Note_on_c, 4, 64, 76
10, 50864, Note_on_c, 4, 64, 0
10, 50880, Note_on_c, 4, 66, 76
10, 51104, Note_on_c, 4, 66, 0
10, 51120, Note_on_c, 4, 69, 76
10, 51224, Note_on_c, 4, 69, 0
10, 51240, Note_on_c, 4, 67, 76
10, 51344, Note_on_c, 4, 67, 0
10, 51360, Note_on_c, 4, 69, 76
10, 51584, Note_on_c, 4, 69, 0
10, 51600, Note_on_c, 4, 62, 76
10, 52064, Note_on_c, 4, 62, 0
10, 52080, Note_on_c, 4, 74, 76
10, 52184, Note_on_c, 4, 74, 0
10, 52200, Note_on_c, 4, 76, 76
10, 52304, Note_on_c, 4, 76, 0
10, 52320, Note_on_c, 4, 78, 76
10, 52424, Note_on_c, 4, 78, 0
10, 52440, Note_on_c, 4, 74, 76
10, 52544, Note_on_c, 4, 74, 0
10, 52560, Note_on_c, 4, 76, 76
10, 52784, Note_on_c, 4, 76, 0
10, 52800, Note_on_c, 4, 76, 76
10, 53024, Note_on_c, 4, 76, 0
10, 53040, Note_on_c, 4, 76, 76
10, 53144, Note_on_c, 4, 76, 0
10, 53160, Note_on_c, 4, 78, 76
10, 53264, Note_on_c, 4, 78, 0
10, 53280, Note_on_c, 4, 79, 76
10, 53384, Note_on_c, 4, 79, 0
10, 53400, Note_on_c, 4, 76, 76
10, 53504, Note_on_c, 4, 76, 0
10, 53520, Note_on_c, 4, 78, 76
10, 53744, Note_on_c, 4, 78, 0
10, 53760, Note_on_c, 4, 74, 76
10, 53984, Note_on_c, 4, 74, 0
10, 54000, Note_on_c, 4, 74, 76
10, 54104, Note_on_c, 4, 74, 0
10, 54120, Note_on_c, 4, 73, 76
10, 54224, Note_on_c, 4, 73, 0
10, 54240, Note_on_c, 4, 74, 76
10, 54464, Note_on_c, 4, 74, 0
10, 54480, Note_on_c, 4, 66, 76
10, 54584, Note_on_c, 4, 66, 0
10, 54600, Note_on_c, 4, 64, 76
10, 54704, Note_on_c, 4, 64, 0
10, 54720, Note_on_c, 4, 66, 76
10, 54944, Note_on_c, 4, 66, 0
10, 54960, Note_on_c, 4, 69, 76
10, 55064, Note_on_c, 4, 69, 0
10, 55080, Note_on_c, 4, 67, 76
10, 55184, Note_on_c, 4, 67, 0
10, 55200, Note_on_c, 4, 69, 76
10, 55424, Note_on_c, 4, 69, 0
10, 55440, Note_on_c, 4, 62, 76
10, 55904, Note_on_c, 4, 62, 0
10, 55920, Note_on_c, 4, 78, 76
10, 56039, Note_on_c, 4, 78, 0
10, 56040, Note_on_c, 4, 76, 76
10, 56159, Note_on_c, 4, 76, 0
10, 56160, Note_on_c, 4, 74, 76
10, 56279, Note_on_c, 4, 74, 0
10, 56280, Note_on_c, 4, 73, 76
10, 56384, Note_on_c, 4, 73, 0
10, 56400, Note_on_c, 4, 71, 76
10, 56624, Note_on_c, 4, 71, 0
10, 56640, Note_on_c, 4, 71, 76
10, 56864, Note_on_c, 4, 71, 0
10, 56880, Note_on_c, 4, 71, 76
10, 56984, Note_on_c, 4, 71, 0
10, 57000, Note_on_c, 4, 73, 76
10, 57104, Note_on_c, 4, 73, 0
10, 57120, Note_on_c, 4, 74, 76
10, 57224, Note_on_c, 4, 74, 0
10, 57240, Note_on_c, 4, 71, 76
10, 57344, Note_on_c, 4, 71, 0
10, 57360, Note_on_c, 4, 76, 76
10, 57584, Note_on_c, 4, 76, 0
10, 57600, Note_on_c, 4, 64, 76
10, 57824, Note_on_c, 4, 64, 0
10, 57840, Note_on_c, 4, 76, 76
10, 57959, Note_on_c, 4, 76, 0
10, 57960, Note_on_c, 4, 74, 76
10, 58079, Note_on_c, 4, 74, 0
10, 58080, Note_on_c, 4, 73, 76
10, 58199, Note_on_c, 4, 73, 0
10, 58200, Note_on_c, 4, 71, 76
10, 58304, Note_on_c, 4, 71, 0
10, 58320, Note_on_c, 4, 69, 76
10, 58544, Note_on_c, 4, 69, 0
10, 58560, Note_on_c, 4, 69, 76
10, 58784, Note_on_c, 4, 69, 0
10, 58800, Note_on_c, 4, 69, 76
10, 58904, Note_on_c, 4, 69, 0
10, 58920, Note_on_c, 4, 71, 76
10, 59024, Note_on_c, 4, 71, 0
10, 59040, Note_on_c, 4, 73, 76
10, 59144, Note_on_c, 4, 73, 0
10, 59160, Note_on_c, 4, 69, 76
10, 59264, Note_on_c, 4, 69, 0
10, 59280, Note_on_c, 4, 74, 76
10, 59504, Note_on_c, 4, 74, 0
10, 59520, Note_on_c, 4, 62, 76
10, 59744, Note_on_c, 4, 62, 0
10, 59760, Note_on_c, 4, 74, 76
10, 59864, Note_on_c, 4, 74, 0
10, 59880, Note_on_c, 4, 73, 76
10, 59984, Note_on_c, 4, 73, 0
10, 60000, Note_on_c, 4, 74, 76
10, 60224, Note_on_c, 4, 74, 0
10, 60240, Note_on_c, 4, 68, 76
10, 60344, Note_on_c, 4, 68, 0
10, 60360, Note_on_c, 4, 66, 76
10, 60464, Note_on_c, 4, 66, 0
10, 60480, Note_on_c, 4, 68, 76
10, 60704, Note_on_c, 4, 68, 0
10, 60720, Note_on_c, 4, 71, 76
10, 60824, Note_on_c, 4, 71, 0
10, 60840, Note_on_c, 4, 69, 76
10, 60944, Note_on_c, 4, 69, 0
10, 60960, Note_on_c, 4, 71, 76
10, 61184, Note_on_c, 4, 71, 0
10, 61200, Note_on_c, 4, 80, 76
10, 61664, Note_on_c, 4, 80, 0
10, 61680, Note_on_c, 4, 71, 76
10, 61799, Note_on_c, 4, 71, 0
10, 61800, Note_on_c, 4, 69, 76
10, 61919, Note_on_c, 4, 69, 0
10, 61920, Note_on_c, 4, 71, 76
10, 62039, Note_on_c, 4, 71, 0
10, 62040, Note_on_c, 4, 74, 76
10, 62144, Note_on_c, 4, 74, 0
10, 62160, Note_on_c, 4, 73, 76
10, 62279, Note_on_c, 4, 73, 0
10, 62280, Note_on_c, 4, 71, 76
10, 62399, Note_on_c, 4, 71, 0
10, 62400, Note_on_c, 4, 73, 76
10, 62519, Note_on_c, 4, 73, 0
10, 62520, Note_on_c, 4, 76, 76
10, 62624, Note_on_c, 4, 76, 0
10, 62640, Note_on_c, 4, 75, 76
10, 62759, Note_on_c, 4, 75, 0
10, 62760, Note_on_c, 4, 73, 76
10, 62879, Note_on_c, 4, 73, 0
10, 62880, Note_on_c, 4, 75, 76
10, 62999, Note_on_c, 4, 75, 0
10, 63000, Note_on_c, 4, 78, 76
10, 63104, Note_on_c, 4, 78, 0
10, 63120, Note_on_c, 4, 83, 76
10, 63239, Note_on_c, 4, 83, 0
10, 63240, Note_on_c, 4, 81, 76
10, 63359, Note_on_c, 4, 81, 0
10, 63360, Note_on_c, 4, 80, 76
10, 63479, Note_on_c, 4, 80, 0
10, 63480, Note_on_c, 4, 78, 76
10, 63584, Note_on_c, 4, 78, 0
10, 63600, Note_on_c, 4, 76, 76
10, 63824, Note_on_c, 4, 76, 0
10, 63840, Note_on_c, 4, 81, 76
10, 64064, Note_on_c, 4, 81, 0
10, 64080, Note_on_c, 4, 76, 76
10, 64304, Note_on_c, 4, 76, 0
10, 64320, Note_on_c, 4, 81, 76
10, 64544, Note_on_c, 4, 81, 0
10, 64560, Note_on_c, 4, 73, 76
10, 64589, Note_on_c, 4, 73, 0
10, 64590, Note_on_c, 4, 74, 76
10, 64619, Note_on_c, 4, 74, 0
10, 64620, Note_on_c, 4, 73, 76
10, 64649, Note_on_c, 4, 73, 0
10, 64650, Note_on_c, 4, 74, 76
10, 64679, Note_on_c, 4, 74, 0
10, 64680, Note_on_c, 4, 73, 76
10, 64709, Note_on_c, 4, 73, 0
10, 64710, Note_on_c, 4, 74, 76
10, 64739, Note_on_c, 4, 74, 0
10, 64740, Note_on_c, 4, 71, 76
10, 64769, Note_on_c, 4, 71, 0
10, 64770, Note_on_c, 4, 73, 76
10, 64791, Note_on_c, 4, 73, 0
10, 64800, Note_on_c, 4, 71, 76
10, 64904, Note_on_c, 4, 71, 0
10, 64920, Note_on_c, 4, 73, 76
10, 65024, Note_on_c, 4, 73, 0
10, 65040, Note_on_c, 4, 69, 76
10, 65504, Note_on_c, 4, 69, 0
10, 65520, Note_on_c, 4, 74, 76
10, 65624, Note_on_c, 4, 74, 0
10, 65640, Note_on_c, 4, 73, 76
10, 65744, Note_on_c, 4, 73, 0
10, 65760, Note_on_c, 4, 74, 76
10, 65984, Note_on_c, 4, 74, 0
10, 66000, Note_on_c, 4, 66, 76
10, 66104, Note_on_c, 4, 66, 0
10, 66120, Note_on_c, 4, 64, 76
10, 66224, Note_on_c, 4, 64, 0
10, 66240, Note_on_c, 4, 66, 76
10, 66464, Note_on_c, 4, 66, 0
10, 66480, Note_on_c, 4, 69, 76
10, 66584, Note_on_c, 4, 69, 0
10, 66600, Note_on_c, 4, 67, 76
10, 66704, Note_on_c, 4, 67, 0
10, 66720, Note_on_c, 4, 69, 76
10, 66944, Note_on_c, 4, 69, 0
10, 66960, Note_on_c, 4, 62, 76
10, 67424, Note_on_c, 4, 62, 0
10, 67440, Note_on_c, 4, 74, 76
10, 67544, Note_on_c, 4, 74, 0
10, 67560, Note_on_c, 4, 76, 76
10, 67664, Note_on_c, 4, 76, 0
10, 67680, Note_on_c, 4, 78, 76
10, 67784, Note_on_c, 4, 78, 0
10, 67800, Note_on_c, 4, 74, 76
10, 67904, Note_on_c, 4, 74, 0
10, 67920, Note_on_c, 4, 76, 76
10, 68144, Note_on_c, 4, 76, 0
10, 68160, Note_on_c, 4, 76, 76
10, 68384, Note_on_c, 4, 76, 0
10, 68400, Note_on_c, 4, 76, 76
10, 68504, Note_on_c, 4, 76, 0
10, 68520, Note_on_c, 4, 78, 76
10, 68624, Note_on_c, 4, 78, 0
10, 68640, Note_on_c, 4, 79, 76
10, 68744, Note_on_c, 4, 79, 0
10, 68760, Note_on_c, 4, 76, 76
10, 68864, Note_on_c, 4, 76, 0
10, 68880, Note_on_c, 4, 78, 76
10, 69104, Note_on_c, 4, 78, 0
10, 69120, Note_on_c, 4, 74, 76
10, 69344, Note_on_c, 4, 74, 0
10, 69360, Note_on_c, 4, 74, 76
10, 69464, Note_on_c, 4, 74, 0
10, 69480, Note_on_c, 4, 73, 76
10, 69584, Note_on_c, 4, 73, 0
10, 69600, Note_on_c, 4, 74, 76
10, 69824, Note_on_c, 4, 74, 0
10, 69840, Note_on_c, 4, 66, 76
10, 69944, Note_on_c, 4, 66, 0
10, 69960, Note_on_c, 4, 64, 76
10, 70064, Note_on_c, 4, 64, 0
10, 70080, Note_on_c, 4, 66, 76
10, 70304, Note_on_c, 4, 66, 0
10, 70320, Note_on_c, 4, 69, 76
10, 70424, Note_on_c, 4, 69, 0
10, 70440, Note_on_c, 4, 67, 76
10, 70544, Note_on_c, 4, 67, 0
10, 70560, Note_on_c, 4, 69, 76
10, 70784, Note_on_c, 4, 69, 0
10, 70800, Note_on_c, 4, 62, 76
10, 71264, Note_on_c, 4, 62, 0
10, 71280, Note_on_c, 4, 78, 76
10, 71399, Note_on_c, 4, 78, 0
10, 71400, Note_on_c, 4, 76, 76
10, 71519, Note_on_c, 4, 76, 0
10, 71520, Note_on_c, 4, 74, 76
10, 71639, Note_on_c, 4, 74, 0
10, 71640, Note_on_c, 4, 73, 76
10, 71744, Note_on_c, 4, 73, 0
10, 71760, Note_on_c, 4, 71, 76
10, 71984, Note_on_c, 4, 71, 0
10, 72000, Note_on_c, 4, 71, 76
10, 72224, Note_on_c, 4, 71, 0
10, 72240, Note_on_c, 4, 71, 76
10, 72344, Note_on_c, 4, 71, 0
10, 72360, Note_on_c, 4, 73, 76
10, 72464, Note_on_c, 4, 73, 0
10, 72480, Note_on_c, 4, 74, 76
10, 72584, Note_on_c, 4, 74, 0
10, 72600, Note_on_c, 4, 71, 76
10, 72704, Note_on_c, 4, 71, 0
10, 72720, Note_on_c, 4, 76, 76
10, 72944, Note_on_c, 4, 76, 0
10, 72960, Note_on_c, 4, 64, 76
10, 73184, Note_on_c, 4, 64, 0
10, 73200, Note_on_c, 4, 76, 76
10, 73319, Note_on_c, 4, 76, 0
10, 73320, Note_on_c, 4, 74, 76
10, 73439, Note_on_c, 4, 74, 0
10, 73440, Note_on_c, 4, 73, 76
10, 73559, Note_on_c, 4, 73, 0
10, 73560, Note_on_c, 4, 71, 76
10, 73664, Note_on_c, 4, 71, 0
10, 73680, Note_on_c, 4, 69, 76
10, 73904, Note_on_c, 4, 69, 0
10, 73920, Note_on_c, 4, 69, 76
10, 74144, Note_on_c, 4, 69, 0
10, 74160, Note_on_c, 4, 69, 76
10, 74264, Note_on_c, 4, 69, 0
10, 74280, Note_on_c, 4, 71, 76
10, 74384, Note_on_c, 4, 71, 0
10, 74400, Note_on_c, 4, 73, 76
10, 74504, Note_on_c, 4, 73, 0
10, 74520, Note_on_c, 4, 69, 76
10, 74624, Note_on_c, 4, 69, 0
10, 74640, Note_on_c, 4, 74, 76
10, 74864, Note_on_c, 4, 74, 0
10, 74880, Note_on_c, 4, 62, 76
10, 75104, Note_on_c, 4, 62, 0
10, 75120, Note_on_c, 4, 74, 76
10, 75224, Note_on_c, 4, 74, 0
10, 75240, Note_on_c, 4, 73, 76
10, 75344, Note_on_c, 4, 73, 0
10, 75360, Note_on_c, 4, 74, 76
10, 75584, Note_on_c, 4, 74, 0
10, 75600, Note_on_c, 4, 68, 76
10, 75704, Note_on_c, 4, 68, 0
10, 75720, Note_on_c, 4, 66, 76
10, 75824, Note_on_c, 4, 66, 0
10, 75840, Note_on_c, 4, 68, 76
10, 76064, Note_on_c, 4, 68, 0
10, 76080, Note_on_c, 4, 71, 76
10, 76184, Note_on_c, 4, 71, 0
10, 76200, Note_on_c, 4, 69, 76
10, 76304, Note_on_c, 4, 69, 0
10, 76320, Note_on_c, 4, 71, 76
10, 76544, Note_on_c, 4, 71, 0
10, 76560, Note_on_c, 4, 80, 76
10, 77024, Note_on_c, 4, 80, 0
10, 77040, Note_on_c, 4, 71, 76
10, 77159, Note_on_c, 4, 71, 0
10, 77160, Note_on_c, 4, 69, 76
10, 77279, Note_on_c, 4, 69, 0
10, 77280, Note_on_c, 4, 71, 76
10, 77399, Note_on_c, 4, 71, 0
10, 77400, Note_on_c, 4, 74, 76
10, 77504, Note_on_c, 4, 74, 0
10, 77520, Note_on_c, 4, 73, 76
10, 77639, Note_on_c, 4, 73, 0
10, 77640, Note_on_c, 4, 71, 76
10, 77759, Note_on_c, 4, 71, 0
10, 77760, Note_on_c, 4, 73, 76
10, 77879, Note_on_c, 4, 73, 0
10, 77880, Note_on_c, 4, 76, 76
10, 77984, Note_on_c, 4, 76, 0
10, 78000, Note_on_c, 4, 75, 76
10, 78119, Note_on_c, 4, 75, 0
10, 78120, Note_on_c, 4, 73, 76
10, 78239, Note_on_c, 4, 73, 0
10, 78240, Note_on_c, 4, 75, 76
10, 78359, Note_on_c, 4, 75, 0
10, 78360, Note_on_c, 4, 78, 76
10, 78464, Note_on_c, 4, 78, 0
10, 78480, Note_on_c, 4, 83, 76
10, 78599, Note_on_c, 4, 83, 0
10, 78600, Note_on_c, 4, 81, 76
10, 78719, Note_on_c, 4, 81, 0
10, 78720, Note_on_c, 4, 80, 76
10, 78839, Note_on_c, 4, 80, 0
10, 78840, Note_on_c, 4, 78, 76
10, 78944, Note_on_c, 4, 78, 0
10, 78960, Note_on_c, 4, 76, 76
10, 79184, Note_on_c, 4, 76, 0
10, 79200, Note_on_c, 4, 81, 76
10, 79424, Note_on_c, 4, 81, 0
10, 79440, Note_on_c, 4, 76, 76
10, 79664, Note_on_c, 4, 76, 0
10, 79680, Note_on_c, 4, 81, 76
10, 79904, Note_on_c, 4, 81, 0
10, 79920, Note_on_c, 4, 73, 76
10, 79949, Note_on_c, 4, 73, 0
10, 79950, Note_on_c, 4, 74, 76
10, 79979, Note_on_c, 4, 74, 0
10, 79980, Note_on_c, 4, 73, 76
10, 80009, Note_on_c, 4, 73, 0
10, 80010, Note_on_c, 4, 74, 76
10, 80039, Note_on_c, 4, 74, 0
10, 80040, Note_on_c, 4, 73, 76
10, 80069, Note_on_c, 4, 73, 0
10, 80070, Note_on_c, 4, 74, 76
10, 80099, Note_on_c, 4, 74, 0
10, 80100, Note_on_c, 4, 71, 76
10, 80129, Note_on_c, 4, 71, 0
10, 80130, Note_on_c, 4, 73, 76
10, 80151, Note_on_c, 4, 73, 0
10, 80160, Note_on_c, 4, 71, 76
10, 80264, Note_on_c, 4, 71, 0
10, 80280, Note_on_c, 4, 73, 76
10, 80384, Note_on_c, 4, 73, 0
10, 80400, Note_on_c, 4, 69, 76
10, 80864, Note_on_c, 4, 69, 0
10, 82800, Note_on_c, 4, 79, 76
10, 83024, Note_on_c, 4, 79, 0
10, 83040, Note_on_c, 4, 78, 76
10, 83504, Note_on_c, 4, 78, 0
10, 83520, Note_on_c, 4, 76, 76
10, 83984, Note_on_c, 4, 76, 0
10, 84000, Note_on_c, 4, 74, 76
10, 84239, Note_on_c, 4, 74, 0
10, 84240, Note_on_c, 4, 74, 76
10, 84269, Note_on_c, 4, 74, 0
10, 84270, Note_on_c, 4, 76, 76
10, 84299, Note_on_c, 4, 76, 0
10, 84300, Note_on_c, 4, 74, 76
10, 84329, Note_on_c, 4, 74, 0
10, 84330, Note_on_c, 4, 76, 76
10, 84359, Note_on_c, 4, 76, 0
10, 84360, Note_on_c, 4, 74, 76
10, 84389, Note_on_c, 4, 74, 0
10, 84390, Note_on_c, 4, 76, 76
10, 84419, Note_on_c, 4, 76, 0
10, 84420, Note_on_c, 4, 73, 76
10, 84449, Note_on_c, 4, 73, 0
10, 84450, Note_on_c, 4, 74, 76
10, 84471, Note_on_c, 4, 74, 0
10, 84480, Note_on_c, 4, 73, 76
10, 84704, Note_on_c, 4, 73, 0
10, 84720, Note_on_c, 4, 74, 76
10, 84839, Note_on_c, 4, 74, 0
10, 84840, Note_on_c, 4, 73, 76
10, 84959, Note_on_c, 4, 73, 0
10, 84960, Note_on_c, 4, 74, 76
10, 85079, Note_on_c, 4, 74, 0
10, 85080, Note_on_c, 4, 78, 76
10, 85184, Note_on_c, 4, 78, 0
10, 85200, Note_on_c, 4, 78, 76
10, 85319, Note_on_c, 4, 78, 0
10, 85320, Note_on_c, 4, 76, 76
10, 85439, Note_on_c, 4, 76, 0
10, 85440, Note_on_c, 4, 78, 76
10, 85559, Note_on_c, 4, 78, 0
10, 85560, Note_on_c, 4, 83, 76
10, 85664, Note_on_c, 4, 83, 0
10, 85680, Note_on_c, 4, 83, 76
10, 85784, Note_on_c, 4, 83, 0
10, 85800, Note_on_c, 4, 79, 76
10, 85904, Note_on_c, 4, 79, 0
10, 85920, Note_on_c, 4, 81, 76
10, 86624, Note_on_c, 4, 81, 0
10, 86640, Note_on_c, 4, 79, 76
10, 86759, Note_on_c, 4, 79, 0
10, 86760, Note_on_c, 4, 78, 76
10, 86879, Note_on_c, 4, 78, 0
10, 86880, Note_on_c, 4, 76, 76
10, 86984, Note_on_c, 4, 76, 0
10, 87000, Note_on_c, 4, 79, 76
10, 87104, Note_on_c, 4, 79, 0
10, 87120, Note_on_c, 4, 78, 76
10, 87344, Note_on_c, 4, 78, 0
10, 87360, Note_on_c, 4, 71, 76
10, 87584, Note_on_c, 4, 71, 0
10, 87600, Note_on_c, 4, 73, 76
10, 87824, Note_on_c, 4, 73, 0
10, 87840, Note_on_c, 4, 70, 76
10, 88064, Note_on_c, 4, 70, 0
10, 88080, Note_on_c, 4, 71, 76
10, 88544, Note_on_c, 4, 71, 0
10, 88560, Note_on_c, 4, 66, 76
10, 88679, Note_on_c, 4, 66, 0
10, 88680, Note_on_c, 4, 64, 76
10, 88799, Note_on_c, 4, 64, 0
10, 88800, Note_on_c, 4, 66, 76
10, 88919, Note_on_c, 4, 66, 0
10, 88920, Note_on_c, 4, 67, 76
10, 89024, Note_on_c, 4, 67, 0
10, 89040, Note_on_c, 4, 69, 76
10, 89159, Note_on_c, 4, 69, 0
10, 89160, Note_on_c, 4, 67, 76
10, 89279, Note_on_c, 4, 67, 0
10, 89280, Note_on_c, 4, 69, 76
10, 89399, Note_on_c, 4, 69, 0
10, 89400, Note_on_c, 4, 71, 76
10, 89504, Note_on_c, 4, 71, 0
10, 89520, Note_on_c, 4, 72, 76
10, 89639, Note_on_c, 4, 72, 0
10, 89640, Note_on_c, 4, 71, 76
10, 89759, Note_on_c, 4, 71, 0
10, 89760, Note_on_c, 4, 72, 76
10, 89879, Note_on_c, 4, 72, 0
10, 89880, Note_on_c, 4, 74, 76
10, 89984, Note_on_c, 4, 74, 0
10, 90000, Note_on_c, 4, 72, 76
10, 90119, Note_on_c, 4, 72, 0
10, 90120, Note_on_c, 4, 71, 76
10, 90239, Note_on_c, 4, 71, 0
10, 90240, Note_on_c, 4, 72, 76
10, 90344, Note_on_c, 4, 72, 0
10, 90360, Note_on_c, 4, 78, 76
10, 90464, Note_on_c, 4, 78, 0
10, 90480, Note_on_c, 4, 72, 76
10, 90599, Note_on_c, 4, 72, 0
10, 90600, Note_on_c, 4, 71, 76
10, 90719, Note_on_c, 4, 71, 0
10, 90720, Note_on_c, 4, 72, 76
10, 90824, Note_on_c, 4, 72, 0
10, 90840, Note_on_c, 4, 81, 76
10, 90944, Note_on_c, 4, 81, 0
10, 90960, Note_on_c, 4, 71, 76
10, 91079, Note_on_c, 4, 71, 0
10, 91080, Note_on_c, 4, 69, 76
10, 91199, Note_on_c, 4, 69, 0
10, 91200, Note_on_c, 4, 71, 76
10, 91304, Note_on_c, 4, 71, 0
10, 91320, Note_on_c, 4, 81, 76
10, 91424, Note_on_c, 4, 81, 0
10, 91440, Note_on_c, 4, 79, 76
10, 91544, Note_on_c, 4, 79, 0
10, 91560, Note_on_c, 4, 78, 76
10, 91664, Note_on_c, 4, 78, 0
10, 91680, Note_on_c, 4, 76, 76
10, 91784, Note_on_c, 4, 76, 0
10, 91800, Note_on_c, 4, 74, 76
10, 91904, Note_on_c, 4, 74, 0
10, 91920, Note_on_c, 4, 73, 76
10, 92144, Note_on_c, 4, 73, 0
10, 92160, Note_on_c, 4, 69, 76
10, 92384, Note_on_c, 4, 69, 0
10, 92400, Note_on_c, 4, 78, 76
10, 92519, Note_on_c, 4, 78, 0
10, 92520, Note_on_c, 4, 76, 76
10, 92639, Note_on_c, 4, 76, 0
10, 92640, Note_on_c, 4, 74, 76
10, 92759, Note_on_c, 4, 74, 0
10, 92760, Note_on_c, 4, 73, 76
10, 92864, Note_on_c, 4, 73, 0
10, 92880, Note_on_c, 4, 71, 76
10, 93104, Note_on_c, 4, 71, 0
10, 93120, Note_on_c, 4, 71, 76
10, 93344, Note_on_c, 4, 71, 0
10, 93360, Note_on_c, 4, 71, 76
10, 93479, Note_on_c, 4, 71, 0
10, 93480, Note_on_c, 4, 73, 76
10, 93599, Note_on_c, 4, 73, 0
10, 93600, Note_on_c, 4, 74, 76
10, 93719, Note_on_c, 4, 74, 0
10, 93720, Note_on_c, 4, 71, 76
10, 93824, Note_on_c, 4, 71, 0
10, 93840, Note_on_c, 4, 76, 76
10, 93959, Note_on_c, 4, 76, 0
10, 93960, Note_on_c, 4, 74, 76
10, 94079, Note_on_c, 4, 74, 0
10, 94080, Note_on_c, 4, 73, 76
10, 94199, Note_on_c, 4, 73, 0
10, 94200, Note_on_c, 4, 71, 76
10, 94304, Note_on_c, 4, 71, 0
10, 94320, Note_on_c, 4, 69, 76
10, 94544, Note_on_c, 4, 69, 0
10, 94560, Note_on_c, 4, 74, 76
10, 94784, Note_on_c, 4, 74, 0
10, 94800, Note_on_c, 4, 69, 76
10, 95024, Note_on_c, 4, 69, 0
10, 95040, Note_on_c, 4, 74, 76
10, 95264, Note_on_c, 4, 74, 0
10, 95280, Note_on_c, 4, 66, 76
10, 95309, Note_on_c, 4, 66, 0
10, 95310, Note_on_c, 4, 67, 76
10, 95339, Note_on_c, 4, 67, 0
10, 95340, Note_on_c, 4, 66, 76
10, 95369, Note_on_c, 4, 66, 0
10, 95370, Note_on_c, 4, 67, 76
10, 95399, Note_on_c, 4, 67, 0
10, 95400, Note_on_c, 4, 66, 76
10, 95429, Note_on_c, 4, 66, 0
10, 95430, Note_on_c, 4, 67, 76
10, 95459, Note_on_c, 4, 67, 0
10, 95460, Note_on_c, 4, 64, 76
10, 95489, Note_on_c, 4, 64, 0
10, 95490, Note_on_c, 4, 66, 76
10, 95511, Note_on_c, 4, 66, 0
10, 95520, Note_on_c, 4, 64, 76
10, 95624, Note_on_c, 4, 64, 0
10, 95640, Note_on_c, 4, 66, 76
10, 95744, Note_on_c, 4, 66, 0
10, 95760, Note_on_c, 4, 62, 76
10, 96224, Note_on_c, 4, 62, 0
10, 98160, Note_on_c, 4, 79, 76
10, 98384, Note_on_c, 4, 79, 0
10, 98400, Note_on_c, 4, 78, 76
10, 98864, Note_on_c, 4, 78, 0
10, 98880, Note_on_c, 4, 76, 76
10, 99344, Note_on_c, 4, 76, 0
10, 99360, Note_on_c, 4, 74, 76
10, 99599, Note_on_c, 4, 74, 0
10, 99600, Note_on_c, 4, 74, 76
10, 99629, Note_on_c, 4, 74, 0
10, 99630, Note_on_c, 4, 76, 76
10, 99659, Note_on_c, 4, 76, 0
10, 99660, Note_on_c, 4, 74, 76
10, 99689, Note_on_c, 4, 74, 0
10, 99690, Note_on_c, 4, 76, 76
10, 99719, Note_on_c, 4, 76, 0
10, 99720, Note_on_c, 4, 74, 76
10, 99749, Note_on_c, 4, 74, 0
10, 99750, Note_on_c, 4, 76, 76
10, 99779, Note_on_c, 4, 76, 0
10, 99780, Note_on_c, 4, 73, 76
10, 99809, Note_on_c, 4, 73, 0
10, 99810, Note_on_c, 4, 74, 76
10, 99831, Note_on_c, 4, 74, 0
10, 99840, Note_on_c, 4, 73, 76
10, 100064, Note_on_c, 4, 73, 0
10, 100080, Note_on_c, 4, 74, 76
10, 100199, Note_on_c, 4, 74, 0
10, 100200, Note_on_c, 4, 73, 76
10, 100319, Note_on_c, 4, 73, 0
10, 100320, Note_on_c, 4, 74, 76
10, 100439, Note_on_c, 4, 74, 0
10, 100440, Note_on_c, 4, 78, 76
10, 100544, Note_on_c, 4, 78, 0
10, 100560, Note_on_c, 4, 78, 76
10, 100679, Note_on_c, 4, 78, 0
10, 100680, Note_on_c, 4, 76, 76
10, 100799, Note_on_c, 4, 76, 0
10, 100800, Note_on_c, 4, 78, 76
10, 100919, Note_on_c, 4, 78, 0
10, 100920, Note_on_c, 4, 83, 76
10, 101024, Note_on_c, 4, 83, 0
10, 101040, Note_on_c, 4, 83, 76
10, 101144, Note_on_c, 4, 83, 0
10, 101160, Note_on_c, 4, 79, 76
10, 101264, Note_on_c, 4, 79, 0
10, 101280, Note_on_c, 4, 81, 76
10, 101984, Note_on_c, 4, 81, 0
10, 102000, Note_on_c, 4, 79, 76
10, 102119, Note_on_c, 4, 79, 0
10, 102120, Note_on_c, 4, 78, 76
10, 102239, Note_on_c, 4, 78, 0
10, 102240, Note_on_c, 4, 76, 76
10, 102344, Note_on_c, 4, 76, 0
10, 102360, Note_on_c, 4, 79, 76
10, 102464, Note_on_c, 4, 79, 0
10, 102480, Note_on_c, 4, 78, 76
10, 102704, Note_on_c, 4, 78, 0
10, 102720, Note_on_c, 4, 71, 76
10, 102944, Note_on_c, 4, 71, 0
10, 102960, Note_on_c, 4, 73, 76
10, 103184, Note_on_c, 4, 73, 0
10, 103200, Note_on_c, 4, 70, 76
10, 103424, Note_on_c, 4, 70, 0
10, 103440, Note_on_c, 4, 71, 76
10, 103904, Note_on_c, 4, 71, 0
10, 103920, Note_on_c, 4, 66, 76
10, 104039, Note_on_c, 4, 66, 0
10, 104040, Note_on_c, 4, 64, 76
10, 104159, Note_on_c, 4, 64, 0
10, 104160, Note_on_c, 4, 66, 76
10, 104279, Note_on_c, 4, 66, 0
10, 104280, Note_on_c, 4, 67, 76
10, 104384, Note_on_c, 4, 67, 0
10, 104400, Note_on_c, 4, 69, 76
10, 104519, Note_on_c, 4, 69, 0
10, 104520, Note_on_c, 4, 67, 76
10, 104639, Note_on_c, 4, 67, 0
10, 104640, Note_on_c, 4, 69, 76
10, 104759, Note_on_c, 4, 69, 0
10, 104760, Note_on_c, 4, 71, 76
10, 104864, Note_on_c, 4, 71, 0
10, 104880, Note_on_c, 4, 72, 76
10, 104999, Note_on_c, 4, 72, 0
10, 105000, Note_on_c, 4, 71, 76
10, 105119, Note_on_c, 4, 71, 0
10, 105120, Note_on_c, 4, 72, 76
10, 105239, Note_on_c, 4, 72, 0
10, 105240, Note_on_c, 4, 74, 76
10, 105344, Note_on_c, 4, 74, 0
10, 105360, Note_on_c, 4, 72, 76
10, 105479, Note_on_c, 4, 72, 0
10, 105480, Note_on_c, 4, 71, 76
10, 105599, Note_on_c, 4, 71, 0
10, 105600, Note_on_c, 4, 72, 76
10, 105704, Note_on_c, 4, 72, 0
10, 105720, Note_on_c, 4, 78, 76
10, 105824, Note_on_c, 4, 78, 0
10, 105840, Note_on_c, 4, 72, 76
10, 105959, Note_on_c, 4, 72, 0
10, 105960, Note_on_c, 4, 71, 76
10, 106079, Note_on_c, 4, 71, 0
10, 106080, Note_on_c, 4, 72, 76
10, 106184, Note_on_c, 4, 72, 0
10, 106200, Note_on_c, 4, 81, 76
10, 106304, Note_on_c, 4, 81, 0
10, 106320, Note_on_c, 4, 71, 76
10, 106439, Note_on_c, 4, 71, 0
10, 106440, Note_on_c, 4, 69, 76
10, 106559, Note_on_c, 4, 69, 0
10, 106560, Note_on_c, 4, 71, 76
10, 106664, Note_on_c, 4, 71, 0
10, 106680, Note_on_c, 4, 81, 76
10, 106784, Note_on_c, 4, 81, 0
10, 106800, Note_on_c, 4, 79, 76
10, 106904, Note_on_c, 4, 79, 0
10, 106920, Note_on_c, 4, 78, 76
10, 107024, Note_on_c, 4, 78, 0
10, 107040, Note_on_c, 4, 76, 76
10, 107144, Note_on_c, 4, 76, 0
10, 107160, Note_on_c, 4, 74, 76
10, 107264, Note_on_c, 4, 74, 0
10, 107280, Note_on_c, 4, 73, 76
10, 107504, Note_on_c, 4, 73, 0
10, 107520, Note_on_c, 4, 69, 76
10, 107744, Note_on_c, 4, 69, 0
10, 107760, Note_on_c, 4, 78, 76
10, 107879, Note_on_c, 4, 78, 0
10, 107880, Note_on_c, 4, 76, 76
10, 107999, Note_on_c, 4, 76, 0
10, 108000, Note_on_c, 4, 74, 76
10, 108119, Note_on_c, 4, 74, 0
10, 108120, Note_on_c, 4, 73, 76
10, 108224, Note_on_c, 4, 73, 0
10, 108240, Note_on_c, 4, 71, 76
10, 108464, Note_on_c, 4, 71, 0
10, 108480, Note_on_c, 4, 71, 76
10, 108704, Note_on_c, 4, 71, 0
10, 108720, Note_on_c, 4, 71, 76
10, 108839, Note_on_c, 4, 71, 0
10, 108840, Note_on_c, 4, 73, 76
10, 108959, Note_on_c, 4, 73, 0
10, 108960, Note_on_c, 4, 74, 76
10, 109079, Note_on_c, 4, 74, 0
10, 109080, Note_on_c, 4, 71, 76
10, 109184, Note_on_c, 4, 71, 0
10, 109200, Note_on_c, 4, 76, 76
10, 109319, Note_on_c, 4, 76, 0
10, 109320, Note_on_c, 4, 74, 76
10, 109439, Note_on_c, 4, 74, 0
10, 109440, Note_on_c, 4, 73, 76
10, 109559, Note_on_c, 4, 73, 0
10, 109560, Note_on_c, 4, 71, 76
10, 109664, Note_on_c, 4, 71, 0
10, 109680, Note_on_c, 4, 69, 76
10, 109904, Note_on_c, 4, 69, 0
10, 109920, Note_on_c, 4, 74, 76
10, 110144, Note_on_c, 4, 74, 0
10, 110160, Note_on_c, 4, 69, 76
10, 110384, Note_on_c, 4, 69, 0
10, 110400, Note_on_c, 4, 74, 76
10, 110624, Note_on_c, 4, 74, 0
10, 110640, Note_on_c, 4, 66, 76
10, 110669, Note_on_c, 4, 66, 0
10, 110670, Note_on_c, 4, 67, 76
10, 110699, Note_on_c, 4, 67, 0
10, 110700, Note_on_c, 4, 66, 76
10, 110729, Note_on_c, 4, 66, 0
10, 110730, Note_on_c, 4, 67, 76
10, 110759, Note_on_c, 4, 67, 0
10, 110760, Note_on_c, 4, 66, 76
10, 110789, Note_on_c, 4, 66, 0
10, 110790, Note_on_c, 4, 67, 76
10, 110819, Note_on_c, 4, 67, 0
10, 110820, Note_on_c, 4, 64, 76
10, 110849, Note_on_c, 4, 64, 0
10, 110850, Note_on_c, 4, 66, 76
10, 110871, Note_on_c, 4, 66, 0
10, 110880, Note_on_c, 4, 64, 76
10, 110984, Note_on_c, 4, 64, 0
10, 111000, Note_on_c, 4, 66, 76
10, 111104, Note_on_c, 4, 66, 0
10, 111120, Note_on_c, 4, 62, 76
10, 111584, Note_on_c, 4, 62, 0
10, 111840, Note_on_c, 4, 69, 76
10, 112064, Note_on_c, 4, 69, 0
10, 112080, Note_on_c, 4, 81, 76
10, 112184, Note_on_c, 4, 81, 0
10, 112200, Note_on_c, 4, 78, 76
10, 112304, Note_on_c, 4, 78, 0
10, 112320, Note_on_c, 4, 79, 76
10, 112784, Note_on_c, 4, 79, 0
10, 112800, Note_on_c, 4, 69, 76
10, 113024, Note_on_c, 4, 69, 0
10, 113040, Note_on_c, 4, 79, 76
10, 113144, Note_on_c, 4, 79, 0
10, 113160, Note_on_c, 4, 76, 76
10, 113227, Note_on_c, 4, 76, 0
10, 113240, Note_on_c, 4, 76, 76
10, 113279, Note_on_c, 4, 76, 0
10, 113280, Note_on_c, 4, 78, 76
10, 113744, Note_on_c, 4, 78, 0
10, 113760, Note_on_c, 4, 69, 76
10, 113984, Note_on_c, 4, 69, 0
10, 114000, Note_on_c, 4, 76, 76
10, 114104, Note_on_c, 4, 76, 0
10, 114120, Note_on_c, 4, 73, 76
10, 114224, Note_on_c, 4, 73, 0
10, 114240, Note_on_c, 4, 74, 76
10, 114464, Note_on_c, 4, 74, 0
10, 114480, Note_on_c, 4, 73, 76
10, 114584, Note_on_c, 4, 73, 0
10, 114600, Note_on_c, 4, 71, 76
10, 114704, Note_on_c, 4, 71, 0
10, 114720, Note_on_c, 4, 69, 76
10, 114824, Note_on_c, 4, 69, 0
10, 114840, Note_on_c, 4, 71, 76
10, 114944, Note_on_c, 4, 71, 0
10, 114960, Note_on_c, 4, 67, 76
10, 115184, Note_on_c, 4, 67, 0
10, 115200, Note_on_c, 4, 66, 76
10, 115229, Note_on_c, 4, 66, 0
10, 115230, Note_on_c, 4, 67, 76
10, 115259, Note_on_c, 4, 67, 0
10, 115260, Note_on_c, 4, 66, 76
10, 115289, Note_on_c, 4, 66, 0
10, 115290, Note_on_c, 4, 67, 76
10, 115319, Note_on_c, 4, 67, 0
10, 115320, Note_on_c, 4, 66, 76
10, 115349, Note_on_c, 4, 66, 0
10, 115350, Note_on_c, 4, 67, 76
10, 115379, Note_on_c, 4, 67, 0
10, 115380, Note_on_c, 4, 64, 76
10, 115409, Note_on_c, 4, 64, 0
10, 115410, Note_on_c, 4, 66, 76
10, 115431, Note_on_c, 4, 66, 0
10, 115440, Note_on_c, 4, 64, 76
10, 115544, Note_on_c, 4, 64, 0
10, 115560, Note_on_c, 4, 62, 76
10, 115664, Note_on_c, 4, 62, 0
10, 115680, Note_on_c, 4, 69, 76
10, 115904, Note_on_c, 4, 69, 0
10, 115920, Note_on_c, 4, 81, 76
10, 116024, Note_on_c, 4, 81, 0
10, 116040, Note_on_c, 4, 78, 76
10, 116144, Note_on_c, 4, 78, 0
10, 116160, Note_on_c, 4, 79, 76
10, 116624, Note_on_c, 4, 79, 0
10, 116640, Note_on_c, 4, 69, 76
10, 116864, Note_on_c, 4, 69, 0
10, 116880, Note_on_c, 4, 79, 76
10, 116984, Note_on_c, 4, 79, 0
10, 117000, Note_on_c, 4, 76, 76
10, 117104, Note_on_c, 4, 76, 0
10, 117120, Note_on_c, 4, 78, 76
10, 117584, Note_on_c, 4, 78, 0
10, 117600, Note_on_c, 4, 80, 76
10, 117824, Note_on_c, 4, 80, 0
10, 117840, Note_on_c, 4, 83, 76
10, 117944, Note_on_c, 4, 83, 0
10, 117960, Note_on_c, 4, 80, 76
10, 118064, Note_on_c, 4, 80, 0
10, 118080, Note_on_c, 4, 81, 76
10, 118304, Note_on_c, 4, 81, 0
10, 118320, Note_on_c, 4, 80, 76
10, 118424, Note_on_c, 4, 80, 0
10, 118440, Note_on_c, 4, 78, 76
10, 118544, Note_on_c, 4, 78, 0
10, 118560, Note_on_c, 4, 76, 76
10, 118664, Note_on_c, 4, 76, 0
10, 118680, Note_on_c, 4, 78, 76
10, 118784, Note_on_c, 4, 78, 0
10, 118800, Note_on_c, 4, 74, 76
10, 119024, Note_on_c, 4, 74, 0
10, 119040, Note_on_c, 4, 73, 76
10, 119264, Note_on_c, 4, 73, 0
10, 119280, Note_on_c, 4, 78, 76
10, 119384, Note_on_c, 4, 78, 0
10, 119400, Note_on_c, 4, 74, 76
10, 119504, Note_on_c, 4, 74, 0
10, 119520, Note_on_c, 4, 76, 76
10, 119744, Note_on_c, 4, 76, 0
10, 119760, Note_on_c, 4, 74, 76
10, 119864, Note_on_c, 4, 74, 0
10, 119880, Note_on_c, 4, 73, 76
10, 119984, Note_on_c, 4, 73, 0
10, 120000, Note_on_c, 4, 71, 76
10, 120104, Note_on_c, 4, 71, 0
10, 120120, Note_on_c, 4, 73, 76
10, 120224, Note_on_c, 4, 73, 0
10, 120240, Note_on_c, 4, 69, 76
10, 120464, Note_on_c, 4, 69, 0
10, 120480, Note_on_c, 4, 64, 76
10, 120704, Note_on_c, 4, 64, 0
10, 120720, Note_on_c, 4, 68, 76
10, 120944, Note_on_c, 4, 68, 0
10, 120960, Note_on_c, 4, 69, 76
10, 121424, Note_on_c, 4, 69, 0
10, 121440, Note_on_c, 4, 69, 76
10, 121664, Note_on_c, 4, 69, 0
10, 121680, Note_on_c, 4, 81, 76
10, 121784, Note_on_c, 4, 81, 0
10, 121800, Note_on_c, 4, 78, 76
10, 121904, Note_on_c, 4, 78, 0
10, 121920, Note_on_c, 4, 79, 76
10, 122384, Note_on_c, 4, 79, 0
10, 122400, Note_on_c, 4, 69, 76
10, 122624, Note_on_c, 4, 69, 0
10, 122640, Note_on_c, 4, 79, 76
10, 122744, Note_on_c, 4, 79, 0
10, 122760, Note_on_c, 4, 76, 76
10, 122827, Note_on_c, 4, 76, 0
10, 122840, Note_on_c, 4, 76, 76
10, 122879, Note_on_c, 4, 76, 0
10, 122880, Note_on_c, 4, 78, 76
10, 123344, Note_on_c, 4, 78, 0
10, 123360, Note_on_c, 4, 69, 76
10, 123584, Note_on_c, 4, 69, 0
10, 123600, Note_on_c, 4, 76, 76
10, 123704, Note_on_c, 4, 76, 0
10, 123720, Note_on_c, 4, 73, 76
10, 123824, Note_on_c, 4, 73, 0
10, 123840, Note_on_c, 4, 74, 76
10, 124064, Note_on_c, 4, 74, 0
10, 124080, Note_on_c, 4, 73, 76
10, 124184, Note_on_c, 4, 73, 0
10, 124200, Note_on_c, 4, 71, 76
10, 124304, Note_on_c, 4, 71, 0
10, 124320, Note_on_c, 4, 69, 76
10, 124424, Note_on_c, 4, 69, 0
10, 124440, Note_on_c, 4, 71, 76
10, 124544, Note_on_c, 4, 71, 0
10, 124560, Note_on_c, 4, 67, 76
10, 124784, Note_on_c, 4, 67, 0
10, 124800, Note_on_c, 4, 66, 76
10, 124829, Note_on_c, 4, 66, 0
10, 124830, Note_on_c, 4, 67, 76
10, 124859, Note_on_c, 4, 67, 0
10, 124860, Note_on_c, 4, 66, 76
10, 124889, Note_on_c, 4, 66, 0
10, 124890, Note_on_c, 4, 67, 76
10, 124919, Note_on_c, 4, 67, 0
10, 124920, Note_on_c, 4, 66, 76
10, 124949, Note_on_c, 4, 66, 0
10, 124950, Note_on_c, 4, 67, 76
10, 124979, Note_on_c, 4, 67, 0
10, 124980, Note_on_c, 4, 64, 76
10, 125009, Note_on_c, 4, 64, 0
10, 125010, Note_on_c, 4, 66, 76
10, 125031, Note_on_c, 4, 66, 0
10, 125040, Note_on_c, 4, 64, 76
10, 125144, Note_on_c, 4, 64, 0
10, 125160, Note_on_c, 4, 62, 76
10, 125264, Note_on_c, 4, 62, 0
10, 125280, Note_on_c, 4, 69, 76
10, 125504, Note_on_c, 4, 69, 0
10, 125520, Note_on_c, 4, 81, 76
10, 125624, Note_on_c, 4, 81, 0
10, 125640, Note_on_c, 4, 78, 76
10, 125744, Note_on_c, 4, 78, 0
10, 125760, Note_on_c, 4, 79, 76
10, 126224, Note_on_c, 4, 79, 0
10, 126240, Note_on_c, 4, 69, 76
10, 126464, Note_on_c, 4, 69, 0
10, 126480, Note_on_c, 4, 79, 76
10, 126584, Note_on_c, 4, 79, 0
10, 126600, Note_on_c, 4, 76, 76
10, 126704, Note_on_c, 4, 76, 0
10, 126720, Note_on_c, 4, 78, 76
10, 127184, Note_on_c, 4, 78, 0
10, 127200, Note_on_c, 4, 80, 76
10, 127424, Note_on_c, 4, 80, 0
10, 127440, Note_on_c, 4, 83, 76
10, 127544, Note_on_c, 4, 83, 0
10, 127560, Note_on_c, 4, 80, 76
10, 127664, Note_on_c, 4, 80, 0
10, 127680, Note_on_c, 4, 81, 76
10, 127904, Note_on_c, 4, 81, 0
10, 127920, Note_on_c, 4, 80, 76
10, 128024, Note_on_c, 4, 80, 0
10, 128040, Note_on_c, 4, 78, 76
10, 128144, Note_on_c, 4, 78, 0
10, 128160, Note_on_c, 4, 76, 76
10, 128264, Note_on_c, 4, 76, 0
10, 128280, Note_on_c, 4, 78, 76
10, 128384, Note_on_c, 4, 78, 0
10, 128400, Note_on_c, 4, 74, 76
10, 128624, Note_on_c, 4, 74, 0
10, 128640, Note_on_c, 4, 73, 76
10, 128864, Note_on_c, 4, 73, 0
10, 128880, Note_on_c, 4, 78, 76
10, 128984, Note_on_c, 4, 78, 0
10, 129000, Note_on_c, 4, 74, 76
10, 129104, Note_on_c, 4, 74, 0
10, 129120, Note_on_c, 4, 76, 76
10, 129344, Note_on_c, 4, 76, 0
10, 129360, Note_on_c, 4, 74, 76
10, 129464, Note_on_c, 4, 74, 0
10, 129480, Note_on_c, 4, 73, 76
10, 129584, Note_on_c, 4, 73, 0
10, 129600, Note_on_c, 4, 71, 76
10, 129704, Note_on_c, 4, 71, 0
10, 129720, Note_on_c, 4, 73, 76
10, 129824, Note_on_c, 4, 73, 0
10, 129840, Note_on_c, 4, 69, 76
10, 130064, Note_on_c, 4, 69, 0
10, 130080, Note_on_c, 4, 64, 76
10, 130304, Note_on_c, 4, 64, 0
10, 130320, Note_on_c, 4, 68, 76
10, 130544, Note_on_c, 4, 68, 0
10, 130560, Note_on_c, 4, 69, 76
10, 131024, Note_on_c, 4, 69, 0
10, 131040, Note_on_c, 4, 76, 76
10, 131264, Note_on_c, 4, 76, 0
10, 131280, Note_on_c, 4, 64, 76
10, 131384, Note_on_c, 4, 64, 0
10, 131400, Note_on_c, 4, 67, 76
10, 131504, Note_on_c, 4, 67, 0
10, 131520, Note_on_c, 4, 66, 76
10, 131984, Note_on_c, 4, 66, 0
10, 132000, Note_on_c, 4, 74, 76
10, 132224, Note_on_c, 4, 74, 0
10, 132240, Note_on_c, 4, 66, 76
10, 132344, Note_on_c, 4, 66, 0
10, 132360, Note_on_c, 4, 69, 76
10, 132464, Note_on_c, 4, 69, 0
10, 132480, Note_on_c, 4, 67, 76
10, 132944, Note_on_c, 4, 67, 0
10, 132960, Note_on_c, 4, 73, 76
10, 133184, Note_on_c, 4, 73, 0
10, 133200, Note_on_c, 4, 70, 76
10, 133304, Note_on_c, 4, 70, 0
10, 133320, Note_on_c, 4, 73, 76
10, 133424, Note_on_c, 4, 73, 0
10, 133440, Note_on_c, 4, 71, 76
10, 133664, Note_on_c, 4, 71, 0
10, 133680, Note_on_c, 4, 73, 76
10, 133784, Note_on_c, 4, 73, 0
10, 133800, Note_on_c, 4, 74, 76
10, 133904, Note_on_c, 4, 74, 0
10, 133920, Note_on_c, 4, 73, 76
10, 134024, Note_on_c, 4, 73, 0
10, 134040, Note_on_c, 4, 71, 76
10, 134144, Note_on_c, 4, 71, 0
10, 134160, Note_on_c, 4, 79, 76
10, 134384, Note_on_c, 4, 79, 0
10, 134400, Note_on_c, 4, 79, 76
10, 134429, Note_on_c, 4, 79, 0
10, 134430, Note_on_c, 4, 81, 76
10, 134459, Note_on_c, 4, 81, 0
10, 134460, Note_on_c, 4, 79, 76
10, 134489, Note_on_c, 4, 79, 0
10, 134490, Note_on_c, 4, 81, 76
10, 134519, Note_on_c, 4, 81, 0
10, 134520, Note_on_c, 4, 79, 76
10, 134549, Note_on_c, 4, 79, 0
10, 134550, Note_on_c, 4, 81, 76
10, 134579, Note_on_c, 4, 81, 0
10, 134580, Note_on_c, 4, 78, 76
10, 134609, Note_on_c, 4, 78, 0
10, 134610, Note_on_c, 4, 79, 76
10, 134631, Note_on_c, 4, 79, 0
10, 134640, Note_on_c, 4, 78, 76
10, 134864, Note_on_c, 4, 78, 0
10, 134880, Note_on_c, 4, 66, 76
10, 135104, Note_on_c, 4, 66, 0
10, 135120, Note_on_c, 4, 78, 76
10, 135224, Note_on_c, 4, 78, 0
10, 135240, Note_on_c, 4, 74, 76
10, 135344, Note_on_c, 4, 74, 0
10, 135360, Note_on_c, 4, 76, 76
10, 135824, Note_on_c, 4, 76, 0
10, 135840, Note_on_c, 4, 66, 76
10, 136064, Note_on_c, 4, 66, 0
10, 136080, Note_on_c, 4, 76, 76
10, 136184, Note_on_c, 4, 76, 0
10, 136200, Note_on_c, 4, 73, 76
10, 136304, Note_on_c, 4, 73, 0
10, 136320, Note_on_c, 4, 74, 76
10, 136544, Note_on_c, 4, 74, 0
10, 136560, Note_on_c, 4, 71, 76
10, 136664, Note_on_c, 4, 71, 0
10, 136680, Note_on_c, 4, 74, 76
10, 136784, Note_on_c, 4, 74, 0
10, 136800, Note_on_c, 4, 73, 76
10, 136904, Note_on_c, 4, 73, 0
10, 136920, Note_on_c, 4, 70, 76
10, 137024, Note_on_c, 4, 70, 0
10, 137040, Note_on_c, 4, 71, 76
10, 137264, Note_on_c, 4, 71, 0
10, 137280, Note_on_c, 4, 78, 76
10, 137504, Note_on_c, 4, 78, 0
10, 137520, Note_on_c, 4, 79, 76
10, 137624, Note_on_c, 4, 79, 0
10, 137640, Note_on_c, 4, 78, 76
10, 137744, Note_on_c, 4, 78, 0
10, 137760, Note_on_c, 4, 76, 76
10, 137864, Note_on_c, 4, 76, 0
10, 137880, Note_on_c, 4, 74, 76
10, 137984, Note_on_c, 4, 74, 0
10, 138000, Note_on_c, 4, 73, 76
10, 138104, Note_on_c, 4, 73, 0
10, 138120, Note_on_c, 4, 74, 76
10, 138224, Note_on_c, 4, 74, 0
10, 138240, Note_on_c, 4, 71, 76
10, 138704, Note_on_c, 4, 71, 0
10, 138720, Note_on_c, 4, 71, 76
10, 138944, Note_on_c, 4, 71, 0
10, 138960, Note_on_c, 4, 83, 76
10, 139064, Note_on_c, 4, 83, 0
10, 139080, Note_on_c, 4, 79, 76
10, 139184, Note_on_c, 4, 79, 0
10, 139200, Note_on_c, 4, 81, 76
10, 139664, Note_on_c, 4, 81, 0
10, 139680, Note_on_c, 4, 71, 76
10, 139904, Note_on_c, 4, 71, 0
10, 139920, Note_on_c, 4, 81, 76
10, 140024, Note_on_c, 4, 81, 0
10, 140040, Note_on_c, 4, 78, 76
10, 140144, Note_on_c, 4, 78, 0
10, 140160, Note_on_c, 4, 79, 76
10, 140624, Note_on_c, 4, 79, 0
10, 140640, Note_on_c, 4, 73, 76
10, 140864, Note_on_c, 4, 73, 0
10, 140880, Note_on_c, 4, 79, 76
10, 140984, Note_on_c, 4, 79, 0
10, 141000, Note_on_c, 4, 76, 76
10, 141104, Note_on_c, 4, 76, 0
10, 141120, Note_on_c, 4, 78, 76
10, 141344, Note_on_c, 4, 78, 0
10, 141360, Note_on_c, 4, 76, 76
10, 141464, Note_on_c, 4, 76, 0
10, 141480, Note_on_c, 4, 74, 76
10, 141584, Note_on_c, 4, 74, 0
10, 141600, Note_on_c, 4, 76, 76
10, 141704, Note_on_c, 4, 76, 0
10, 141720, Note_on_c, 4, 73, 76
10, 141824, Note_on_c, 4, 73, 0
10, 141840, Note_on_c, 4, 74, 76
10, 142064, Note_on_c, 4, 74, 0
10, 142080, Note_on_c, 4, 73, 76
10, 142109, Note_on_c, 4, 73, 0
10, 142110, Note_on_c, 4, 74, 76
10, 142139, Note_on_c, 4, 74, 0
10, 142140, Note_on_c, 4, 73, 76
10, 142169, Note_on_c, 4, 73, 0
10, 142170, Note_on_c, 4, 74, 76
10, 142199, Note_on_c, 4, 74, 0
10, 142200, Note_on_c, 4, 73, 76
10, 142229, Note_on_c, 4, 73, 0
10, 142230, Note_on_c, 4, 74, 76
10, 142259, Note_on_c, 4, 74, 0
10, 142260, Note_on_c, 4, 71, 76
10, 142289, Note_on_c, 4, 71, 0
10, 142290, Note_on_c, 4, 73, 76
10, 142311, Note_on_c, 4, 73, 0
10, 142320, Note_on_c, 4, 71, 76
10, 142424, Note_on_c, 4, 71, 0
10, 142440, Note_on_c, 4, 69, 76
10, 142544, Note_on_c, 4, 69, 0
10, 142560, Note_on_c, 4, 81, 76
10, 142784, Note_on_c, 4, 81, 0
10, 142800, Note_on_c, 4, 69, 76
10, 142904, Note_on_c, 4, 69, 0
10, 142920, Note_on_c, 4, 72, 76
10, 143024, Note_on_c, 4, 72, 0
10, 143040, Note_on_c, 4, 71, 76
10, 143504, Note_on_c, 4, 71, 0
10, 143520, Note_on_c, 4, 79, 76
10, 143744, Note_on_c, 4, 79, 0
10, 143760, Note_on_c, 4, 71, 76
10, 143864, Note_on_c, 4, 71, 0
10, 143880, Note_on_c, 4, 74, 76
10, 143984, Note_on_c, 4, 74, 0
10, 144000, Note_on_c, 4, 73, 76
10, 144224, Note_on_c, 4, 73, 0
10, 144240, Note_on_c, 4, 76, 76
10, 144344, Note_on_c, 4, 76, 0
10, 144360, Note_on_c, 4, 73, 76
10, 144464, Note_on_c, 4, 73, 0
10, 144480, Note_on_c, 4, 69, 76
10, 144704, Note_on_c, 4, 69, 0
10, 144720, Note_on_c, 4, 79, 76
10, 144824, Note_on_c, 4, 79, 0
10, 144840, Note_on_c, 4, 76, 76
10, 144944, Note_on_c, 4, 76, 0
10, 144960, Note_on_c, 4, 78, 76
10, 145064, Note_on_c, 4, 78, 0
10, 145080, Note_on_c, 4, 76, 76
10, 145184, Note_on_c, 4, 76, 0
10, 145200, Note_on_c, 4, 74, 76
10, 145304, Note_on_c, 4, 74, 0
10, 145320, Note_on_c, 4, 76, 76
10, 145424, Note_on_c, 4, 76, 0
10, 145440, Note_on_c, 4, 69, 76
10, 145664, Note_on_c, 4, 69, 0
10, 145680, Note_on_c, 4, 73, 76
10, 145904, Note_on_c, 4, 73, 0
10, 145920, Note_on_c, 4, 74, 76
10, 146384, Note_on_c, 4, 74, 0
10, 146400, Note_on_c, 4, 76, 76
10, 146624, Note_on_c, 4, 76, 0
10, 146640, Note_on_c, 4, 64, 76
10, 146744, Note_on_c, 4, 64, 0
10, 146760, Note_on_c, 4, 67, 76
10, 146864, Note_on_c, 4, 67, 0
10, 146880, Note_on_c, 4, 66, 76
10, 147344, Note_on_c, 4, 66, 0
10, 147360, Note_on_c, 4, 74, 76
10, 147584, Note_on_c, 4, 74, 0
10, 147600, Note_on_c, 4, 66, 76
10, 147704, Note_on_c, 4, 66, 0
10, 147720, Note_on_c, 4, 69, 76
10, 147824, Note_on_c, 4, 69, 0
10, 147840, Note_on_c, 4, 67, 76
10, 148304, Note_on_c, 4, 67, 0
10, 148320, Note_on_c, 4, 73, 76
10, 148544, Note_on_c, 4, 73, 0
10, 148560, Note_on_c, 4, 70, 76
10, 148664, Note_on_c, 4, 70, 0
10, 148680, Note_on_c, 4, 73, 76
10, 148784, Note_on_c, 4, 73, 0
10, 148800, Note_on_c, 4, 71, 76
10, 149024, Note_on_c, 4, 71, 0
10, 149040, Note_on_c, 4, 73, 76
10, 149144, Note_on_c, 4, 73, 0
10, 149160, Note_on_c, 4, 74, 76
10, 149264, Note_on_c, 4, 74, 0
10, 149280, Note_on_c, 4, 73, 76
10, 149384, Note_on_c, 4, 73, 0
10, 149400, Note_on_c, 4, 71, 76
10, 149504, Note_on_c, 4, 71, 0
10, 149520, Note_on_c, 4, 79, 76
10, 149744, Note_on_c, 4, 79, 0
10, 149760, Note_on_c, 4, 79, 76
10, 149789, Note_on_c, 4, 79, 0
10, 149790, Note_on_c, 4, 81, 76
10, 149819, Note_on_c, 4, 81, 0
10, 149820, Note_on_c, 4, 79, 76
10, 149849, Note_on_c, 4, 79, 0
10, 149850, Note_on_c, 4, 81, 76
10, 149879, Note_on_c, 4, 81, 0
10, 149880, Note_on_c, 4, 79, 76
10, 149909, Note_on_c, 4, 79, 0
10, 149910, Note_on_c, 4, 81, 76
10, 149939, Note_on_c, 4, 81, 0
10, 149940, Note_on_c, 4, 78, 76
10, 149969, Note_on_c, 4, 78, 0
10, 149970, Note_on_c, 4, 79, 76
10, 149991, Note_on_c, 4, 79, 0
10, 150000, Note_on_c, 4, 78, 76
10, 150224, Note_on_c, 4, 78, 0
10, 150240, Note_on_c, 4, 66, 76
10, 150464, Note_on_c, 4, 66, 0
10, 150480, Note_on_c, 4, 78, 76
10, 150584, Note_on_c, 4, 78, 0
10, 150600, Note_on_c, 4, 74, 76
10, 150704, Note_on_c, 4, 74, 0
10, 150720, Note_on_c, 4, 76, 76
10, 151184, Note_on_c, 4, 76, 0
10, 151200, Note_on_c, 4, 66, 76
10, 151424, Note_on_c, 4, 66, 0
10, 151440, Note_on_c, 4, 76, 76
10, 151544, Note_on_c, 4, 76, 0
10, 151560, Note_on_c, 4, 73, 76
10, 151664, Note_on_c, 4, 73, 0
10, 151680, Note_on_c, 4, 74, 76
10, 151904, Note_on_c, 4, 74, 0
10, 151920, Note_on_c, 4, 71, 76
10, 152024, Note_on_c, 4, 71, 0
10, 152040, Note_on_c, 4, 74, 76
10, 152144, Note_on_c, 4, 74, 0
10, 152160, Note_on_c, 4, 73, 76
10, 152264, Note_on_c, 4, 73, 0
10, 152280, Note_on_c, 4, 70, 76
10, 152384, Note_on_c, 4, 70, 0
10, 152400, Note_on_c, 4, 71, 76
10, 152624, Note_on_c, 4, 71, 0
10, 152640, Note_on_c, 4, 78, 76
10, 152864, Note_on_c, 4, 78, 0
10, 152880, Note_on_c, 4, 79, 76
10, 152984, Note_on_c, 4, 79, 0
10, 153000, Note_on_c, 4, 78, 76
10, 153104, Note_on_c, 4, 78, 0
10, 153120, Note_on_c, 4, 76, 76
10, 153224, Note_on_c, 4, 76, 0
10, 153240, Note_on_c, 4, 74, 76
10, 153344, Note_on_c, 4, 74, 0
10, 153360, Note_on_c, 4, 73, 76
10, 153464, Note_on_c, 4, 73, 0
10, 153480, Note_on_c, 4, 74, 76
10, 153584, Note_on_c, 4, 74, 0
10, 153600, Note_on_c, 4, 71, 76
10, 154064, Note_on_c, 4, 71, 0
10, 154080, Note_on_c, 4, 71, 76
10, 154304, Note_on_c, 4, 71, 0
10, 154320, Note_on_c, 4, 83, 76
10, 154424, Note_on_c, 4, 83, 0
10, 154440, Note_on_c, 4, 79, 76
10, 154544, Note_on_c, 4, 79, 0
10, 154560, Note_on_c, 4, 81, 76
10, 155024, Note_on_c, 4, 81, 0
10, 155040, Note_on_c, 4, 71, 76
10, 155264, Note_on_c, 4, 71, 0
10, 155280, Note_on_c, 4, 81, 76
10, 155384, Note_on_c, 4, 81, 0
10, 155400, Note_on_c, 4, 78, 76
10, 155504, Note_on_c, 4, 78, 0
10, 155520, Note_on_c, 4, 79, 76
10, 155984, Note_on_c, 4, 79, 0
10, 156000, Note_on_c, 4, 73, 76
10, 156224, Note_on_c, 4, 73, 0
10, 156240, Note_on_c, 4, 79, 76
10, 156344, Note_on_c, 4, 79, 0
10, 156360, Note_on_c, 4, 76, 76
10, 156464, Note_on_c, 4, 76, 0
10, 156480, Note_on_c, 4, 78, 76
10, 156704, Note_on_c, 4, 78, 0
10, 156720, Note_on_c, 4, 76, 76
10, 156824, Note_on_c, 4, 76, 0
10, 156840, Note_on_c, 4, 74, 76
10, 156944, Note_on_c, 4, 74, 0
10, 156960, Note_on_c, 4, 76, 76
10, 157064, Note_on_c, 4, 76, 0
10, 157080, Note_on_c, 4, 73, 76
10, 157184, Note_on_c, 4, 73, 0
10, 157200, Note_on_c, 4, 74, 76
10, 157424, Note_on_c, 4, 74, 0
10, 157440, Note_on_c, 4, 73, 76
10, 157469, Note_on_c, 4, 73, 0
10, 157470, Note_on_c, 4, 74, 76
10, 157499, Note_on_c, 4, 74, 0
10, 157500, Note_on_c, 4, 73, 76
10, 157529, Note_on_c, 4, 73, 0
10, 157530, Note_on_c, 4, 74, 76
10, 157559, Note_on_c, 4, 74, 0
10, 157560, Note_on_c, 4, 73, 76
10, 157589, Note_on_c, 4, 73, 0
10, 157590, Note_on_c, 4, 74, 76
10, 157619, Note_on_c, 4, 74, 0
10, 157620, Note_on_c, 4, 71, 76
10, 157649, Note_on_c, 4, 71, 0
10, 157650, Note_on_c, 4, 73, 76
10, 157671, Note_on_c, 4, 73, 0
10, 157680, Note_on_c, 4, 71, 76
10, 157784, Note_on_c, 4, 71, 0
10, 157800, Note_on_c, 4, 69, 76
10, 157904, Note_on_c, 4, 69, 0
10, 157920, Note_on_c, 4, 81, 76
10, 158144, Note_on_c, 4, 81, 0
10, 158160, Note_on_c, 4, 69, 76
10, 158264, Note_on_c, 4, 69, 0
10, 158280, Note_on_c, 4, 72, 76
10, 158384, Note_on_c, 4, 72, 0
10, 158400, Note_on_c, 4, 71, 76
10, 158864, Note_on_c, 4, 71, 0
10, 158880, Note_on_c, 4, 79, 76
10, 159104, Note_on_c, 4, 79, 0
10, 159120, Note_on_c, 4, 71, 76
10, 159224, Note_on_c, 4, 71, 0
10, 159240, Note_on_c, 4, 74, 76
10, 159344, Note_on_c, 4, 74, 0
10, 159360, Note_on_c, 4, 73, 76
10, 159584, Note_on_c, 4, 73, 0
10, 159600, Note_on_c, 4, 76, 76
10, 159704, Note_on_c, 4, 76, 0
10, 159720, Note_on_c, 4, 73, 76
10, 159824, Note_on_c, 4, 73, 0
10, 159840, Note_on_c, 4, 69, 76
10, 160064, Note_on_c, 4, 69, 0
10, 160080, Note_on_c, 4, 79, 76
10, 160184, Note_on_c, 4, 79, 0
10, 160200, Note_on_c, 4, 76, 76
10, 160304, Note_on_c, 4, 76, 0
10, 160320, Note_on_c, 4, 78, 76
10, 160424, Note_on_c, 4, 78, 0
10, 160440, Note_on_c, 4, 76, 76
10, 160544, Note_on_c, 4, 76, 0
10, 160560, Note_on_c, 4, 74, 76
10, 160664, Note_on_c, 4, 74, 0
10, 160680, Note_on_c, 4, 76, 76
10, 160784, Note_on_c, 4, 76, 0
10, 160800, Note_on_c, 4, 69, 76
10, 161024, Note_on_c, 4, 69, 0
10, 161040, Note_on_c, 4, 73, 76
10, 161264, Note_on_c, 4, 73, 0
10, 161280, Note_on_c, 4, 74, 76
10, 161759, Note_on_c, 4, 74, 0
10, 161759, End_track
11, 0, Start_track
11, 0, Title_t, "Oboe II"
11, 0, MIDI_port, 0
11, 0, Program_c, 5, 68
11, 0, Control_c, 5, 10, 69
11, 0, Control_c, 5, 11, 127
11, 0, Control_c, 5, 7, 80
11, 0, Note_on_c, 5, 69, 76
11, 224, Note_on_c, 5, 69, 0
11, 240, Note_on_c, 5, 81, 76
11, 344, Note_on_c, 5, 81, 0
11, 360, Note_on_c, 5, 78, 76
11, 464, Note_on_c, 5, 78, 0
11, 480, Note_on_c, 5, 79, 76
11, 944, Note_on_c, 5, 79, 0
11, 960, Note_on_c, 5, 69, 76
11, 1184, Note_on_c, 5, 69, 0
11, 1200, Note_on_c, 5, 79, 76
11, 1304, Note_on_c, 5, 79, 0
11, 1320, Note_on_c, 5, 76, 76
11, 1424, Note_on_c, 5, 76, 0
11, 1440, Note_on_c, 5, 78, 76
11, 1904, Note_on_c, 5, 78, 0
11, 1920, Note_on_c, 5, 69, 76
11, 2144, Note_on_c, 5, 69, 0
11, 2160, Note_on_c, 5, 76, 76
11, 2264, Note_on_c, 5, 76, 0
11, 2280, Note_on_c, 5, 73, 76
11, 2384, Note_on_c, 5, 73, 0
11, 2400, Note_on_c, 5, 74, 76
11, 2624, Note_on_c, 5, 74, 0
11, 2640, Note_on_c, 5, 73, 76
11, 2744, Note_on_c, 5, 73, 0
11, 2760, Note_on_c, 5, 71, 76
11, 2864, Note_on_c, 5, 71, 0
11, 2880, Note_on_c, 5, 69, 76
11, 2984, Note_on_c, 5, 69, 0
11, 3000, Note_on_c, 5, 71, 76
11, 3104, Note_on_c, 5, 71, 0
11, 3120, Note_on_c, 5, 67, 76
11, 3344, Note_on_c, 5, 67, 0
11, 3360, Note_on_c, 5, 66, 76
11, 3389, Note_on_c, 5, 66, 0
11, 3390, Note_on_c, 5, 67, 76
11, 3419, Note_on_c, 5, 67, 0
11, 3420, Note_on_c, 5, 66, 76
11, 3449, Note_on_c, 5, 66, 0
11, 3450, Note_on_c, 5, 67, 76
11, 3479, Note_on_c, 5, 67, 0
11, 3480, Note_on_c, 5, 66, 76
11, 3509, Note_on_c, 5, 66, 0
11, 3510, Note_on_c, 5, 67, 76
11, 3539, Note_on_c, 5, 67, 0
11, 3540, Note_on_c, 5, 64, 76
11, 3569, Note_on_c, 5, 64, 0
11, 3570, Note_on_c, 5, 66, 76
11, 3591, Note_on_c, 5, 66, 0
11, 3600, Note_on_c, 5, 64, 76
11, 3704, Note_on_c, 5, 64, 0
11, 3720, Note_on_c, 5, 62, 76
11, 3824, Note_on_c, 5, 62, 0
11, 3840, Note_on_c, 5, 69, 76
11, 4064, Note_on_c, 5, 69, 0
11, 4080, Note_on_c, 5, 81, 76
11, 4184, Note_on_c, 5, 81, 0
11, 4200, Note_on_c, 5, 78, 76
11, 4304, Note_on_c, 5, 78, 0
11, 4320, Note_on_c, 5, 79, 76
11, 4784, Note_on_c, 5, 79, 0
11, 4800, Note_on_c, 5, 69, 76
11, 5024, Note_on_c, 5, 69, 0
11, 5040, Note_on_c, 5, 79, 76
11, 5144, Note_on_c, 5, 79, 0
11, 5160, Note_on_c, 5, 76, 76
11, 5264, Note_on_c, 5, 76, 0
11, 5280, Note_on_c, 5, 78, 76
11, 5744, Note_on_c, 5, 78, 0
11, 5760, Note_on_c, 5, 80, 76
11, 5984, Note_on_c, 5, 80, 0
11, 6000, Note_on_c, 5, 83, 76
11, 6104, Note_on_c, 5, 83, 0
11, 6120, Note_on_c, 5, 80, 76
11, 6224, Note_on_c, 5, 80, 0
11, 6240, Note_on_c, 5, 81, 76
11, 6464, Note_on_c, 5, 81, 0
11, 6480, Note_on_c, 5, 80, 76
11, 6584, Note_on_c, 5, 80, 0
11, 6600, Note_on_c, 5, 78, 76
11, 6704, Note_on_c, 5, 78, 0
11, 6720, Note_on_c, 5, 76, 76
11, 6824, Note_on_c, 5, 76, 0
11, 6840, Note_on_c, 5, 78, 76
11, 6944, Note_on_c, 5, 78, 0
11, 6960, Note_on_c, 5, 74, 76
11, 7184, Note_on_c, 5, 74, 0
11, 7200, Note_on_c, 5, 73, 76
11, 7424, Note_on_c, 5, 73, 0
11, 7440, Note_on_c, 5, 78, 76
11, 7544, Note_on_c, 5, 78, 0
11, 7560, Note_on_c, 5, 74, 76
11, 7664, Note_on_c, 5, 74, 0
11, 7680, Note_on_c, 5, 76, 76
11, 7904, Note_on_c, 5, 76, 0
11, 7920, Note_on_c, 5, 74, 76
11, 8024, Note_on_c, 5, 74, 0
11, 8040, Note_on_c, 5, 73, 76
11, 8144, Note_on_c, 5, 73, 0
11, 8160, Note_on_c, 5, 71, 76
11, 8264, Note_on_c, 5, 71, 0
11, 8280, Note_on_c, 5, 73, 76
11, 8384, Note_on_c, 5, 73, 0
11, 8400, Note_on_c, 5, 69, 76
11, 8624, Note_on_c, 5, 69, 0
11, 8640, Note_on_c, 5, 64, 76
11, 8864, Note_on_c, 5, 64, 0
11, 8880, Note_on_c, 5, 68, 76
11, 9104, Note_on_c, 5, 68, 0
11, 9120, Note_on_c, 5, 69, 76
11, 9584, Note_on_c, 5, 69, 0
11, 9600, Note_on_c, 5, 69, 76
11, 9824, Note_on_c, 5, 69, 0
11, 9840, Note_on_c, 5, 81, 76
11, 9944, Note_on_c, 5, 81, 0
11, 9960, Note_on_c, 5, 78, 76
11, 10064, Note_on_c, 5, 78, 0
11, 10080, Note_on_c, 5, 79, 76
11, 10544, Note_on_c, 5, 79, 0
11, 10560, Note_on_c, 5, 69, 76
11, 10784, Note_on_c, 5, 69, 0
11, 10800, Note_on_c, 5, 79, 76
11, 10904, Note_on_c, 5, 79, 0
11, 10920, Note_on_c, 5, 76, 76
11, 11024, Note_on_c, 5, 76, 0
11, 11040, Note_on_c, 5, 78, 76
11, 11504, Note_on_c, 5, 78, 0
11, 11520, Note_on_c, 5, 69, 76
11, 11744, Note_on_c, 5, 69, 0
11, 11760, Note_on_c, 5, 76, 76
11, 11864, Note_on_c, 5, 76, 0
11, 11880, Note_on_c, 5, 73, 76
11, 11984, Note_on_c, 5, 73, 0
11, 12000, Note_on_c, 5, 74, 76
11, 12224, Note_on_c, 5, 74, 0
11, 12240, Note_on_c, 5, 73, 76
11, 12344, Note_on_c, 5, 73, 0
11, 12360, Note_on_c, 5, 71, 76
11, 12464, Note_on_c, 5, 71, 0
11, 12480, Note_on_c, 5, 69, 76
11, 12584, Note_on_c, 5, 69, 0
11, 12600, Note_on_c, 5, 71, 76
11, 12704, Note_on_c, 5, 71, 0
11, 12720, Note_on_c, 5, 67, 76
11, 12944, Note_on_c, 5, 67, 0
11, 12960, Note_on_c, 5, 66, 76
11, 12989, Note_on_c, 5, 66, 0
11, 12990, Note_on_c, 5, 67, 76
11, 13019, Note_on_c, 5, 67, 0
11, 13020, Note_on_c, 5, 66, 76
11, 13049, Note_on_c, 5, 66, 0
11, 13050, Note_on_c, 5, 67, 76
11, 13079, Note_on_c, 5, 67, 0
11, 13080, Note_on_c, 5, 66, 76
11, 13109, Note_on_c, 5, 66, 0
11, 13110, Note_on_c, 5, 67, 76
11, 13139, Note_on_c, 5, 67, 0
11, 13140, Note_on_c, 5, 64, 76
11, 13169, Note_on_c, 5, 64, 0
11, 13170, Note_on_c, 5, 66, 76
11, 13191, Note_on_c, 5, 66, 0
11, 13200, Note_on_c, 5, 64, 76
11, 13304, Note_on_c, 5, 64, 0
11, 13320, Note_on_c, 5, 62, 76
11, 13424, Note_on_c, 5, 62, 0
11, 13440, Note_on_c, 5, 69, 76
11, 13664, Note_on_c, 5, 69, 0
11, 13680, Note_on_c, 5, 81, 76
11, 13784, Note_on_c, 5, 81, 0
11, 13800, Note_on_c, 5, 78, 76
11, 13904, Note_on_c, 5, 78, 0
11, 13920, Note_on_c, 5, 79, 76
11, 14384, Note_on_c, 5, 79, 0
11, 14400, Note_on_c, 5, 69, 76
11, 14624, Note_on_c, 5, 69, 0
11, 14640, Note_on_c, 5, 79, 76
11, 14744, Note_on_c, 5, 79, 0
11, 14760, Note_on_c, 5, 76, 76
11, 14864, Note_on_c, 5, 76, 0
11, 14880, Note_on_c, 5, 78, 76
11, 15344, Note_on_c, 5, 78, 0
11, 15360, Note_on_c, 5, 80, 76
11, 15584, Note_on_c, 5, 80, 0
11, 15600, Note_on_c, 5, 83, 76
11, 15704, Note_on_c, 5, 83, 0
11, 15720, Note_on_c, 5, 80, 76
11, 15824, Note_on_c, 5, 80, 0
11, 15840, Note_on_c, 5, 81, 76
11, 16064, Note_on_c, 5, 81, 0
11, 16080, Note_on_c, 5, 80, 76
11, 16184, Note_on_c, 5, 80, 0
11, 16200, Note_on_c, 5, 78, 76
11, 16304, Note_on_c, 5, 78, 0
11, 16320, Note_on_c, 5, 76, 76
11, 16424, Note_on_c, 5, 76, 0
11, 16440, Note_on_c, 5, 78, 76
11, 16544, Note_on_c, 5, 78, 0
11, 16560, Note_on_c, 5, 74, 76
11, 16784, Note_on_c, 5, 74, 0
11, 16800, Note_on_c, 5, 73, 76
11, 17024, Note_on_c, 5, 73, 0
11, 17040, Note_on_c, 5, 78, 76
11, 17144, Note_on_c, 5, 78, 0
11, 17160, Note_on_c, 5, 74, 76
11, 17264, Note_on_c, 5, 74, 0
11, 17280, Note_on_c, 5, 76, 76
11, 17504, Note_on_c, 5, 76, 0
11, 17520, Note_on_c, 5, 74, 76
11, 17624, Note_on_c, 5, 74, 0
11, 17640, Note_on_c, 5, 73, 76
11, 17744, Note_on_c, 5, 73, 0
11, 17760, Note_on_c, 5, 71, 76
11, 17864, Note_on_c, 5, 71, 0
11, 17880, Note_on_c, 5, 73, 76
11, 17984, Note_on_c, 5, 73, 0
11, 18000, Note_on_c, 5, 69, 76
11, 18224, Note_on_c, 5, 69, 0
11, 18240, Note_on_c, 5, 64, 76
11, 18464, Note_on_c, 5, 64, 0
11, 18480, Note_on_c, 5, 68, 76
11, 18704, Note_on_c, 5, 68, 0
11, 18720, Note_on_c, 5, 69, 76
11, 19184, Note_on_c, 5, 69, 0
11, 19200, Note_on_c, 5, 76, 76
11, 19424, Note_on_c, 5, 76, 0
11, 19440, Note_on_c, 5, 64, 76
11, 19544, Note_on_c, 5, 64, 0
11, 19560, Note_on_c, 5, 67, 76
11, 19664, Note_on_c, 5, 67, 0
11, 19680, Note_on_c, 5, 66, 76
11, 20144, Note_on_c, 5, 66, 0
11, 20160, Note_on_c, 5, 74, 76
11, 20384, Note_on_c, 5, 74, 0
11, 20400, Note_on_c, 5, 66, 76
11, 20504, Note_on_c, 5, 66, 0
11, 20520, Note_on_c, 5, 69, 76
11, 20624, Note_on_c, 5, 69, 0
11, 20640, Note_on_c, 5, 67, 76
11, 21104, Note_on_c, 5, 67, 0
11, 21120, Note_on_c, 5, 73, 76
11, 21344, Note_on_c, 5, 73, 0
11, 21360, Note_on_c, 5, 70, 76
11, 21464, Note_on_c, 5, 70, 0
11, 21480, Note_on_c, 5, 73, 76
11, 21584, Note_on_c, 5, 73, 0
11, 21600, Note_on_c, 5, 71, 76
11, 21824, Note_on_c, 5, 71, 0
11, 21840, Note_on_c, 5, 73, 76
11, 21944, Note_on_c, 5, 73, 0
11, 21960, Note_on_c, 5, 74, 76
11, 22064, Note_on_c, 5, 74, 0
11, 22080, Note_on_c, 5, 73, 76
11, 22184, Note_on_c, 5, 73, 0
11, 22200, Note_on_c, 5, 71, 76
11, 22304, Note_on_c, 5, 71, 0
11, 22320, Note_on_c, 5, 79, 76
11, 22544, Note_on_c, 5, 79, 0
11, 22560, Note_on_c, 5, 79, 76
11, 22589, Note_on_c, 5, 79, 0
11, 22590, Note_on_c, 5, 81, 76
11, 22619, Note_on_c, 5, 81, 0
11, 22620, Note_on_c, 5, 79, 76
11, 22649, Note_on_c, 5, 79, 0
11, 22650, Note_on_c, 5, 81, 76
11, 22679, Note_on_c, 5, 81, 0
11, 22680, Note_on_c, 5, 79, 76
11, 22709, Note_on_c, 5, 79, 0
11, 22710, Note_on_c, 5, 81, 76
11, 22739, Note_on_c, 5, 81, 0
11, 22740, Note_on_c, 5, 78, 76
11, 22769, Note_on_c, 5, 78, 0
11, 22770, Note_on_c, 5, 79, 76
11, 22791, Note_on_c, 5, 79, 0
11, 22800, Note_on_c, 5, 78, 76
11, 23024, Note_on_c, 5, 78, 0
11, 23040, Note_on_c, 5, 66, 76
11, 23264, Note_on_c, 5, 66, 0
11, 23280, Note_on_c, 5, 78, 76
11, 23384, Note_on_c, 5, 78, 0
11, 23400, Note_on_c, 5, 74, 76
11, 23504, Note_on_c, 5, 74, 0
11, 23520, Note_on_c, 5, 76, 76
11, 23984, Note_on_c, 5, 76, 0
11, 24000, Note_on_c, 5, 66, 76
11, 24224, Note_on_c, 5, 66, 0
11, 24240, Note_on_c, 5, 76, 76
11, 24344, Note_on_c, 5, 76, 0
11, 24360, Note_on_c, 5, 73, 76
11, 24464, Note_on_c, 5, 73, 0
11, 24480, Note_on_c, 5, 74, 76
11, 24704, Note_on_c, 5, 74, 0
11, 24720, Note_on_c, 5, 71, 76
11, 24824, Note_on_c, 5, 71, 0
11, 24840, Note_on_c, 5, 74, 76
11, 24944, Note_on_c, 5, 74, 0
11, 24960, Note_on_c, 5, 73, 76
11, 25064, Note_on_c, 5, 73, 0
11, 25080, Note_on_c, 5, 70, 76
11, 25184, Note_on_c, 5, 70, 0
11, 25200, Note_on_c, 5, 71, 76
11, 25424, Note_on_c, 5, 71, 0
11, 25440, Note_on_c, 5, 78, 76
11, 25664, Note_on_c, 5, 78, 0
11, 25680, Note_on_c, 5, 79, 76
11, 25784, Note_on_c, 5, 79, 0
11, 25800, Note_on_c, 5, 78, 76
11, 25904, Note_on_c, 5, 78, 0
11, 25920, Note_on_c, 5, 76, 76
11, 26024, Note_on_c, 5, 76, 0
11, 26040, Note_on_c, 5, 74, 76
11, 26144, Note_on_c, 5, 74, 0
11, 26160, Note_on_c, 5, 73, 76
11, 26264, Note_on_c, 5, 73, 0
11, 26280, Note_on_c, 5, 74, 76
11, 26384, Note_on_c, 5, 74, 0
11, 26400, Note_on_c, 5, 71, 76
11, 26864, Note_on_c, 5, 71, 0
11, 26880, Note_on_c, 5, 71, 76
11, 27104, Note_on_c, 5, 71, 0
11, 27120, Note_on_c, 5, 83, 76
11, 27224, Note_on_c, 5, 83, 0
11, 27240, Note_on_c, 5, 79, 76
11, 27344, Note_on_c, 5, 79, 0
11, 27360, Note_on_c, 5, 81, 76
11, 27824, Note_on_c, 5, 81, 0
11, 27840, Note_on_c, 5, 71, 76
11, 28064, Note_on_c, 5, 71, 0
11, 28080, Note_on_c, 5, 81, 76
11, 28184, Note_on_c, 5, 81, 0
11, 28200, Note_on_c, 5, 78, 76
11, 28304, Note_on_c, 5, 78, 0
11, 28320, Note_on_c, 5, 79, 76
11, 28784, Note_on_c, 5, 79, 0
11, 28800, Note_on_c, 5, 73, 76
11, 29024, Note_on_c, 5, 73, 0
11, 29040, Note_on_c, 5, 79, 76
11, 29144, Note_on_c, 5, 79, 0
11, 29160, Note_on_c, 5, 76, 76
11, 29264, Note_on_c, 5, 76, 0
11, 29280, Note_on_c, 5, 78, 76
11, 29504, Note_on_c, 5, 78, 0
11, 29520, Note_on_c, 5, 76, 76
11, 29624, Note_on_c, 5, 76, 0
11, 29640, Note_on_c, 5, 74, 76
11, 29744, Note_on_c, 5, 74, 0
11, 29760, Note_on_c, 5, 76, 76
11, 29864, Note_on_c, 5, 76, 0
11, 29880, Note_on_c, 5, 73, 76
11, 29984, Note_on_c, 5, 73, 0
11, 30000, Note_on_c, 5, 74, 76
11, 30224, Note_on_c, 5, 74, 0
11, 30240, Note_on_c, 5, 73, 76
11, 30269, Note_on_c, 5, 73, 0
11, 30270, Note_on_c, 5, 74, 76
11, 30299, Note_on_c, 5, 74, 0
11, 30300, Note_on_c, 5, 73, 76
11, 30329, Note_on_c, 5, 73, 0
11, 30330, Note_on_c, 5, 74, 76
11, 30359, Note_on_c, 5, 74, 0
11, 30360, Note_on_c, 5, 73, 76
11, 30389, Note_on_c, 5, 73, 0
11, 30390, Note_on_c, 5, 74, 76
11, 30419, Note_on_c, 5, 74, 0
11, 30420, Note_on_c, 5, 71, 76
11, 30449, Note_on_c, 5, 71, 0
11, 30450, Note_on_c, 5, 73, 76
11, 30471, Note_on_c, 5, 73, 0
11, 30480, Note_on_c, 5, 71, 76
11, 30584, Note_on_c, 5, 71, 0
11, 30600, Note_on_c, 5, 69, 76
11, 30704, Note_on_c, 5, 69, 0
11, 30720, Note_on_c, 5, 81, 76
11, 30944, Note_on_c, 5, 81, 0
11, 30960, Note_on_c, 5, 69, 76
11, 31064, Note_on_c, 5, 69, 0
11, 31080, Note_on_c, 5, 72, 76
11, 31184, Note_on_c, 5, 72, 0
11, 31200, Note_on_c, 5, 71, 76
11, 31664, Note_on_c, 5, 71, 0
11, 31680, Note_on_c, 5, 79, 76
11, 31904, Note_on_c, 5, 79, 0
11, 31920, Note_on_c, 5, 71, 76
11, 32024, Note_on_c, 5, 71, 0
11, 32040, Note_on_c, 5, 74, 76
11, 32144, Note_on_c, 5, 74, 0
11, 32160, Note_on_c, 5, 73, 76
11, 32384, Note_on_c, 5, 73, 0
11, 32400, Note_on_c, 5, 76, 76
11, 32504, Note_on_c, 5, 76, 0
11, 32520, Note_on_c, 5, 73, 76
11, 32624, Note_on_c, 5, 73, 0
11, 32640, Note_on_c, 5, 69, 76
11, 32864, Note_on_c, 5, 69, 0
11, 32880, Note_on_c, 5, 79, 76
11, 32984, Note_on_c, 5, 79, 0
11, 33000, Note_on_c, 5, 76, 76
11, 33104, Note_on_c, 5, 76, 0
11, 33120, Note_on_c, 5, 78, 76
11, 33224, Note_on_c, 5, 78, 0
11, 33240, Note_on_c, 5, 76, 76
11, 33344, Note_on_c, 5, 76, 0
11, 33360, Note_on_c, 5, 74, 76
11, 33464, Note_on_c, 5, 74, 0
11, 33480, Note_on_c, 5, 76, 76
11, 33584, Note_on_c, 5, 76, 0
11, 33600, Note_on_c, 5, 69, 76
11, 33824, Note_on_c, 5, 69, 0
11, 33840, Note_on_c, 5, 73, 76
11, 34064, Note_on_c, 5, 73, 0
11, 34080, Note_on_c, 5, 74, 76
11, 34544, Note_on_c, 5, 74, 0
11, 34560, Note_on_c, 5, 76, 76
11, 34784, Note_on_c, 5, 76, 0
11, 34800, Note_on_c, 5, 64, 76
11, 34904, Note_on_c, 5, 64, 0
11, 34920, Note_on_c, 5, 67, 76
11, 35024, Note_on_c, 5, 67, 0
11, 35040, Note_on_c, 5, 66, 76
11, 35504, Note_on_c, 5, 66, 0
11, 35520, Note_on_c, 5, 74, 76
11, 35744, Note_on_c, 5, 74, 0
11, 35760, Note_on_c, 5, 66, 76
11, 35864, Note_on_c, 5, 66, 0
11, 35880, Note_on_c, 5, 69, 76
11, 35984, Note_on_c, 5, 69, 0
11, 36000, Note_on_c, 5, 67, 76
11, 36464, Note_on_c, 5, 67, 0
11, 36480, Note_on_c, 5, 73, 76
11, 36704, Note_on_c, 5, 73, 0
11, 36720, Note_on_c, 5, 70, 76
11, 36824, Note_on_c, 5, 70, 0
11, 36840, Note_on_c, 5, 73, 76
11, 36944, Note_on_c, 5, 73, 0
11, 36960, Note_on_c, 5, 71, 76
11, 37184, Note_on_c, 5, 71, 0
11, 37200, Note_on_c, 5, 73, 76
11, 37304, Note_on_c, 5, 73, 0
11, 37320, Note_on_c, 5, 74, 76
11, 37424, Note_on_c, 5, 74, 0
11, 37440, Note_on_c, 5, 73, 76
11, 37544, Note_on_c, 5, 73, 0
11, 37560, Note_on_c, 5, 71, 76
11, 37664, Note_on_c, 5, 71, 0
11, 37680, Note_on_c, 5, 79, 76
11, 37904, Note_on_c, 5, 79, 0
11, 37920, Note_on_c, 5, 79, 76
11, 37949, Note_on_c, 5, 79, 0
11, 37950, Note_on_c, 5, 81, 76
11, 37979, Note_on_c, 5, 81, 0
11, 37980, Note_on_c, 5, 79, 76
11, 38009, Note_on_c, 5, 79, 0
11, 38010, Note_on_c, 5, 81, 76
11, 38039, Note_on_c, 5, 81, 0
11, 38040, Note_on_c, 5, 79, 76
11, 38069, Note_on_c, 5, 79, 0
11, 38070, Note_on_c, 5, 81, 76
11, 38099, Note_on_c, 5, 81, 0
11, 38100, Note_on_c, 5, 78, 76
11, 38129, Note_on_c, 5, 78, 0
11, 38130, Note_on_c, 5, 79, 76
11, 38151, Note_on_c, 5, 79, 0
11, 38160, Note_on_c, 5, 78, 76
11, 38384, Note_on_c, 5, 78, 0
11, 38400, Note_on_c, 5, 66, 76
11, 38624, Note_on_c, 5, 66, 0
11, 38640, Note_on_c, 5, 78, 76
11, 38744, Note_on_c, 5, 78, 0
11, 38760, Note_on_c, 5, 74, 76
11, 38864, Note_on_c, 5, 74, 0
11, 38880, Note_on_c, 5, 76, 76
11, 39344, Note_on_c, 5, 76, 0
11, 39360, Note_on_c, 5, 66, 76
11, 39584, Note_on_c, 5, 66, 0
11, 39600, Note_on_c, 5, 76, 76
11, 39704, Note_on_c, 5, 76, 0
11, 39720, Note_on_c, 5, 73, 76
11, 39824, Note_on_c, 5, 73, 0
11, 39840, Note_on_c, 5, 74, 76
11, 40064, Note_on_c, 5, 74, 0
11, 40080, Note_on_c, 5, 71, 76
11, 40184, Note_on_c, 5, 71, 0
11, 40200, Note_on_c, 5, 74, 76
11, 40304, Note_on_c, 5, 74, 0
11, 40320, Note_on_c, 5, 73, 76
11, 40424, Note_on_c, 5, 73, 0
11, 40440, Note_on_c, 5, 70, 76
11, 40544, Note_on_c, 5, 70, 0
11, 40560, Note_on_c, 5, 71, 76
11, 40784, Note_on_c, 5, 71, 0
11, 40800, Note_on_c, 5, 78, 76
11, 41024, Note_on_c, 5, 78, 0
11, 41040, Note_on_c, 5, 79, 76
11, 41144, Note_on_c, 5, 79, 0
11, 41160, Note_on_c, 5, 78, 76
11, 41264, Note_on_c, 5, 78, 0
11, 41280, Note_on_c, 5, 76, 76
11, 41384, Note_on_c, 5, 76, 0
11, 41400, Note_on_c, 5, 74, 76
11, 41504, Note_on_c, 5, 74, 0
11, 41520, Note_on_c, 5, 73, 76
11, 41624, Note_on_c, 5, 73, 0
11, 41640, Note_on_c, 5, 74, 76
11, 41744, Note_on_c, 5, 74, 0
11, 41760, Note_on_c, 5, 71, 76
11, 42224, Note_on_c, 5, 71, 0
11, 42240, Note_on_c, 5, 71, 76
11, 42464, Note_on_c, 5, 71, 0
11, 42480, Note_on_c, 5, 83, 76
11, 42584, Note_on_c, 5, 83, 0
11, 42600, Note_on_c, 5, 79, 76
11, 42704, Note_on_c, 5, 79, 0
11, 42720, Note_on_c, 5, 81, 76
11, 43184, Note_on_c, 5, 81, 0
11, 43200, Note_on_c, 5, 71, 76
11, 43424, Note_on_c, 5, 71, 0
11, 43440, Note_on_c, 5, 81, 76
11, 43544, Note_on_c, 5, 81, 0
11, 43560, Note_on_c, 5, 78, 76
11, 43664, Note_on_c, 5, 78, 0
11, 43680, Note_on_c, 5, 79, 76
11, 44144, Note_on_c, 5, 79, 0
11, 44160, Note_on_c, 5, 73, 76
11, 44384, Note_on_c, 5, 73, 0
11, 44400, Note_on_c, 5, 79, 76
11, 44504, Note_on_c, 5, 79, 0
11, 44520, Note_on_c, 5, 76, 76
11, 44624, Note_on_c, 5, 76, 0
11, 44640, Note_on_c, 5, 78, 76
11, 44864, Note_on_c, 5, 78, 0
11, 44880, Note_on_c, 5, 76, 76
11, 44984, Note_on_c, 5, 76, 0
11, 45000, Note_on_c, 5, 74, 76
11, 45104, Note_on_c, 5, 74, 0
11, 45120, Note_on_c, 5, 76, 76
11, 45224, Note_on_c, 5, 76, 0
11, 45240, Note_on_c, 5, 73, 76
11, 45344, Note_on_c, 5, 73, 0
11, 45360, Note_on_c, 5, 74, 76
11, 45584, Note_on_c, 5, 74, 0
11, 45600, Note_on_c, 5, 73, 76
11, 45629, Note_on_c, 5, 73, 0
11, 45630, Note_on_c, 5, 74, 76
11, 45659, Note_on_c, 5, 74, 0
11, 45660, Note_on_c, 5, 73, 76
11, 45689, Note_on_c, 5, 73, 0
11, 45690, Note_on_c, 5, 74, 76
11, 45719, Note_on_c, 5, 74, 0
11, 45720, Note_on_c, 5, 73, 76
11, 45749, Note_on_c, 5, 73, 0
11, 45750, Note_on_c, 5, 74, 76
11, 45779, Note_on_c, 5, 74, 0
11, 45780, Note_on_c, 5, 71, 76
11, 45809, Note_on_c, 5, 71, 0
11, 45810, Note_on_c, 5, 73, 76
11, 45831, Note_on_c, 5, 73, 0
11, 45840, Note_on_c, 5, 71, 76
11, 45944, Note_on_c, 5, 71, 0
11, 45960, Note_on_c, 5, 69, 76
11, 46064, Note_on_c, 5, 69, 0
11, 46080, Note_on_c, 5, 81, 76
11, 46304, Note_on_c, 5, 81, 0
11, 46320, Note_on_c, 5, 69, 76
11, 46424, Note_on_c, 5, 69, 0
11, 46440, Note_on_c, 5, 72, 76
11, 46544, Note_on_c, 5, 72, 0
11, 46560, Note_on_c, 5, 71, 76
11, 47024, Note_on_c, 5, 71, 0
11, 47040, Note_on_c, 5, 79, 76
11, 47264, Note_on_c, 5, 79, 0
11, 47280, Note_on_c, 5, 71, 76
11, 47384, Note_on_c, 5, 71, 0
11, 47400, Note_on_c, 5, 74, 76
11, 47504, Note_on_c, 5, 74, 0
11, 47520, Note_on_c, 5, 73, 76
11, 47744, Note_on_c, 5, 73, 0
11, 47760, Note_on_c, 5, 76, 76
11, 47864, Note_on_c, 5, 76, 0
11, 47880, Note_on_c, 5, 73, 76
11, 47984, Note_on_c, 5, 73, 0
11, 48000, Note_on_c, 5, 69, 76
11, 48224, Note_on_c, 5, 69, 0
11, 48240, Note_on_c, 5, 79, 76
11, 48344, Note_on_c, 5, 79, 0
11, 48360, Note_on_c, 5, 76, 76
11, 48464, Note_on_c, 5, 76, 0
11, 48480, Note_on_c, 5, 78, 76
11, 48584, Note_on_c, 5, 78, 0
11, 48600, Note_on_c, 5, 76, 76
11, 48704, Note_on_c, 5, 76, 0
11, 48720, Note_on_c, 5, 74, 76
11, 48824, Note_on_c, 5, 74, 0
11, 48840, Note_on_c, 5, 76, 76
11, 48944, Note_on_c, 5, 76, 0
11, 48960, Note_on_c, 5, 69, 76
11, 49184, Note_on_c, 5, 69, 0
11, 49200, Note_on_c, 5, 73, 76
11, 49424, Note_on_c, 5, 73, 0
11, 49440, Note_on_c, 5, 74, 76
11, 49919, Note_on_c, 5, 74, 0
11, 50160, Note_on_c, 5, 74, 76
11, 50264, Note_on_c, 5, 74, 0
11, 50280, Note_on_c, 5, 73, 76
11, 50384, Note_on_c, 5, 73, 0
11, 50400, Note_on_c, 5, 74, 76
11, 50624, Note_on_c, 5, 74, 0
11, 50640, Note_on_c, 5, 66, 76
11, 50744, Note_on_c, 5, 66, 0
11, 50760, Note_on_c, 5, 64, 76
11, 50864, Note_on_c, 5, 64, 0
11, 50880, Note_on_c, 5, 66, 76
11, 51104, Note_on_c, 5, 66, 0
11, 51120, Note_on_c, 5, 69, 76
11, 51224, Note_on_c, 5, 69, 0
11, 51240, Note_on_c, 5, 67, 76
11, 51344, Note_on_c, 5, 67, 0
11, 51360, Note_on_c, 5, 69, 76
11, 51584, Note_on_c, 5, 69, 0
11, 51600, Note_on_c, 5, 62, 76
11, 52064, Note_on_c, 5, 62, 0
11, 52080, Note_on_c, 5, 69, 76
11, 52304, Note_on_c, 5, 69, 0
11, 52320, Note_on_c, 5, 74, 76
11, 52784, Note_on_c, 5, 74, 0
11, 52800, Note_on_c, 5, 73, 76
11, 52904, Note_on_c, 5, 73, 0
11, 52920, Note_on_c, 5, 71, 76
11, 53024, Note_on_c, 5, 71, 0
11, 53040, Note_on_c, 5, 73, 76
11, 53144, Note_on_c, 5, 73, 0
11, 53160, Note_on_c, 5, 74, 76
11, 53264, Note_on_c, 5, 74, 0
11, 53280, Note_on_c, 5, 76, 76
11, 53384, Note_on_c, 5, 76, 0
11, 53400, Note_on_c, 5, 73, 76
11, 53504, Note_on_c, 5, 73, 0
11, 53520, Note_on_c, 5, 74, 76
11, 53744, Note_on_c, 5, 74, 0
11, 53760, Note_on_c, 5, 69, 76
11, 53984, Note_on_c, 5, 69, 0
11, 54000, Note_on_c, 5, 74, 76
11, 54104, Note_on_c, 5, 74, 0
11, 54120, Note_on_c, 5, 73, 76
11, 54224, Note_on_c, 5, 73, 0
11, 54240, Note_on_c, 5, 74, 76
11, 54464, Note_on_c, 5, 74, 0
11, 54480, Note_on_c, 5, 66, 76
11, 54584, Note_on_c, 5, 66, 0
11, 54600, Note_on_c, 5, 64, 76
11, 54704, Note_on_c, 5, 64, 0
11, 54720, Note_on_c, 5, 66, 76
11, 54944, Note_on_c, 5, 66, 0
11, 54960, Note_on_c, 5, 69, 76
11, 55064, Note_on_c, 5, 69, 0
11, 55080, Note_on_c, 5, 67, 76
11, 55184, Note_on_c, 5, 67, 0
11, 55200, Note_on_c, 5, 69, 76
11, 55424, Note_on_c, 5, 69, 0
11, 55440, Note_on_c, 5, 62, 76
11, 55919, Note_on_c, 5, 62, 0
11, 56400, Note_on_c, 5, 71, 76
11, 56519, Note_on_c, 5, 71, 0
11, 56520, Note_on_c, 5, 69, 76
11, 56639, Note_on_c, 5, 69, 0
11, 56640, Note_on_c, 5, 68, 76
11, 56759, Note_on_c, 5, 68, 0
11, 56760, Note_on_c, 5, 66, 76
11, 56864, Note_on_c, 5, 66, 0
11, 56880, Note_on_c, 5, 64, 76
11, 57104, Note_on_c, 5, 64, 0
11, 57120, Note_on_c, 5, 64, 76
11, 57344, Note_on_c, 5, 64, 0
11, 57360, Note_on_c, 5, 64, 76
11, 57464, Note_on_c, 5, 64, 0
11, 57480, Note_on_c, 5, 66, 76
11, 57584, Note_on_c, 5, 66, 0
11, 57600, Note_on_c, 5, 68, 76
11, 57704, Note_on_c, 5, 68, 0
11, 57720, Note_on_c, 5, 64, 76
11, 57824, Note_on_c, 5, 64, 0
11, 57840, Note_on_c, 5, 69, 76
11, 58439, Note_on_c, 5, 69, 0
11, 58440, Note_on_c, 5, 68, 76
11, 58559, Note_on_c, 5, 68, 0
11, 58560, Note_on_c, 5, 66, 76
11, 58679, Note_on_c, 5, 66, 0
11, 58680, Note_on_c, 5, 64, 76
11, 58784, Note_on_c, 5, 64, 0
11, 58800, Note_on_c, 5, 62, 76
11, 59024, Note_on_c, 5, 62, 0
11, 59040, Note_on_c, 5, 62, 76
11, 59264, Note_on_c, 5, 62, 0
11, 59280, Note_on_c, 5, 62, 76
11, 59384, Note_on_c, 5, 62, 0
11, 59400, Note_on_c, 5, 64, 76
11, 59504, Note_on_c, 5, 64, 0
11, 59520, Note_on_c, 5, 66, 76
11, 59624, Note_on_c, 5, 66, 0
11, 59640, Note_on_c, 5, 62, 76
11, 59744, Note_on_c, 5, 62, 0
11, 59760, Note_on_c, 5, 74, 76
11, 59864, Note_on_c, 5, 74, 0
11, 59880, Note_on_c, 5, 73, 76
11, 59984, Note_on_c, 5, 73, 0
11, 60000, Note_on_c, 5, 74, 76
11, 60224, Note_on_c, 5, 74, 0
11, 60240, Note_on_c, 5, 68, 76
11, 60344, Note_on_c, 5, 68, 0
11, 60360, Note_on_c, 5, 66, 76
11, 60464, Note_on_c, 5, 66, 0
11, 60480, Note_on_c, 5, 68, 76
11, 60704, Note_on_c, 5, 68, 0
11, 60720, Note_on_c, 5, 71, 76
11, 60824, Note_on_c, 5, 71, 0
11, 60840, Note_on_c, 5, 69, 76
11, 60944, Note_on_c, 5, 69, 0
11, 60960, Note_on_c, 5, 71, 76
11, 61184, Note_on_c, 5, 71, 0
11, 61200, Note_on_c, 5, 74, 76
11, 61664, Note_on_c, 5, 74, 0
11, 61680, Note_on_c, 5, 68, 76
11, 61919, Note_on_c, 5, 68, 0
11, 61920, Note_on_c, 5, 68, 76
11, 62144, Note_on_c, 5, 68, 0
11, 62160, Note_on_c, 5, 69, 76
11, 62399, Note_on_c, 5, 69, 0
11, 62400, Note_on_c, 5, 69, 76
11, 62639, Note_on_c, 5, 69, 0
11, 62640, Note_on_c, 5, 66, 76
11, 62879, Note_on_c, 5, 66, 0
11, 62880, Note_on_c, 5, 66, 76
11, 63104, Note_on_c, 5, 66, 0
11, 63120, Note_on_c, 5, 68, 76
11, 63224, Note_on_c, 5, 68, 0
11, 63240, Note_on_c, 5, 69, 76
11, 63344, Note_on_c, 5, 69, 0
11, 63360, Note_on_c, 5, 71, 76
11, 63584, Note_on_c, 5, 71, 0
11, 63600, Note_on_c, 5, 73, 76
11, 63824, Note_on_c, 5, 73, 0
11, 63840, Note_on_c, 5, 76, 76
11, 64064, Note_on_c, 5, 76, 0
11, 64080, Note_on_c, 5, 69, 76
11, 64319, Note_on_c, 5, 69, 0
11, 64320, Note_on_c, 5, 69, 76
11, 64559, Note_on_c, 5, 69, 0
11, 64560, Note_on_c, 5, 69, 76
11, 64799, Note_on_c, 5, 69, 0
11, 64800, Note_on_c, 5, 68, 76
11, 65024, Note_on_c, 5, 68, 0
11, 65040, Note_on_c, 5, 69, 76
11, 65504, Note_on_c, 5, 69, 0
11, 65520, Note_on_c, 5, 74, 76
11, 65624, Note_on_c, 5, 74, 0
11, 65640, Note_on_c, 5, 73, 76
11, 65744, Note_on_c, 5, 73, 0
11, 65760, Note_on_c, 5, 74, 76
11, 65984, Note_on_c, 5, 74, 0
11, 66000, Note_on_c, 5, 66, 76
11, 66104, Note_on_c, 5, 66, 0
11, 66120, Note_on_c, 5, 64, 76
11, 66224, Note_on_c, 5, 64, 0
11, 66240, Note_on_c, 5, 66, 76
11, 66464, Note_on_c, 5, 66, 0
11, 66480, Note_on_c, 5, 69, 76
11, 66584, Note_on_c, 5, 69, 0
11, 66600, Note_on_c, 5, 67, 76
11, 66704, Note_on_c, 5, 67, 0
11, 66720, Note_on_c, 5, 69, 76
11, 66944, Note_on_c, 5, 69, 0
11, 66960, Note_on_c, 5, 62, 76
11, 67424, Note_on_c, 5, 62, 0
11, 67440, Note_on_c, 5, 69, 76
11, 67664, Note_on_c, 5, 69, 0
11, 67680, Note_on_c, 5, 74, 76
11, 68144, Note_on_c, 5, 74, 0
11, 68160, Note_on_c, 5, 73, 76
11, 68264, Note_on_c, 5, 73, 0
11, 68280, Note_on_c, 5, 71, 76
11, 68384, Note_on_c, 5, 71, 0
11, 68400, Note_on_c, 5, 73, 76
11, 68504, Note_on_c, 5, 73, 0
11, 68520, Note_on_c, 5, 74, 76
11, 68624, Note_on_c, 5, 74, 0
11, 68640, Note_on_c, 5, 76, 76
11, 68744, Note_on_c, 5, 76, 0
11, 68760, Note_on_c, 5, 73, 76
11, 68864, Note_on_c, 5, 73, 0
11, 68880, Note_on_c, 5, 74, 76
11, 69104, Note_on_c, 5, 74, 0
11, 69120, Note_on_c, 5, 69, 76
11, 69344, Note_on_c, 5, 69, 0
11, 69360, Note_on_c, 5, 74, 76
11, 69464, Note_on_c, 5, 74, 0
11, 69480, Note_on_c, 5, 73, 76
11, 69584, Note_on_c, 5, 73, 0
11, 69600, Note_on_c, 5, 74, 76
11, 69824, Note_on_c, 5, 74, 0
11, 69840, Note_on_c, 5, 66, 76
11, 69944, Note_on_c, 5, 66, 0
11, 69960, Note_on_c, 5, 64, 76
11, 70064, Note_on_c, 5, 64, 0
11, 70080, Note_on_c, 5, 66, 76
11, 70304, Note_on_c, 5, 66, 0
11, 70320, Note_on_c, 5, 69, 76
11, 70424, Note_on_c, 5, 69, 0
11, 70440, Note_on_c, 5, 67, 76
11, 70544, Note_on_c, 5, 67, 0
11, 70560, Note_on_c, 5, 69, 76
11, 70784, Note_on_c, 5, 69, 0
11, 70800, Note_on_c, 5, 62, 76
11, 71279, Note_on_c, 5, 62, 0
11, 71760, Note_on_c, 5, 71, 76
11, 71879, Note_on_c, 5, 71, 0
11, 71880, Note_on_c, 5, 69, 76
11, 71999, Note_on_c, 5, 69, 0
11, 72000, Note_on_c, 5, 68, 76
11, 72119, Note_on_c, 5, 68, 0
11, 72120, Note_on_c, 5, 66, 76
11, 72224, Note_on_c, 5, 66, 0
11, 72240, Note_on_c, 5, 64, 76
11, 72464, Note_on_c, 5, 64, 0
11, 72480, Note_on_c, 5, 64, 76
11, 72704, Note_on_c, 5, 64, 0
11, 72720, Note_on_c, 5, 64, 76
11, 72824, Note_on_c, 5, 64, 0
11, 72840, Note_on_c, 5, 66, 76
11, 72944, Note_on_c, 5, 66, 0
11, 72960, Note_on_c, 5, 68, 76
11, 73064, Note_on_c, 5, 68, 0
11, 73080, Note_on_c, 5, 64, 76
11, 73184, Note_on_c, 5, 64, 0
11, 73200, Note_on_c, 5, 69, 76
11, 73799, Note_on_c, 5, 69, 0
11, 73800, Note_on_c, 5, 68, 76
11, 73919, Note_on_c, 5, 68, 0
11, 73920, Note_on_c, 5, 66, 76
11, 74039, Note_on_c, 5, 66, 0
11, 74040, Note_on_c, 5, 64, 76
11, 74144, Note_on_c, 5, 64, 0
11, 74160, Note_on_c, 5, 62, 76
11, 74384, Note_on_c, 5, 62, 0
11, 74400, Note_on_c, 5, 62, 76
11, 74624, Note_on_c, 5, 62, 0
11, 74640, Note_on_c, 5, 62, 76
11, 74744, Note_on_c, 5, 62, 0
11, 74760, Note_on_c, 5, 64, 76
11, 74864, Note_on_c, 5, 64, 0
11, 74880, Note_on_c, 5, 66, 76
11, 74984, Note_on_c, 5, 66, 0
11, 75000, Note_on_c, 5, 62, 76
11, 75104, Note_on_c, 5, 62, 0
11, 75120, Note_on_c, 5, 74, 76
11, 75224, Note_on_c, 5, 74, 0
11, 75240, Note_on_c, 5, 73, 76
11, 75344, Note_on_c, 5, 73, 0
11, 75360, Note_on_c, 5, 74, 76
11, 75584, Note_on_c, 5, 74, 0
11, 75600, Note_on_c, 5, 68, 76
11, 75704, Note_on_c, 5, 68, 0
11, 75720, Note_on_c, 5, 66, 76
11, 75824, Note_on_c, 5, 66, 0
11, 75840, Note_on_c, 5, 68, 76
11, 76064, Note_on_c, 5, 68, 0
11, 76080, Note_on_c, 5, 71, 76
11, 76184, Note_on_c, 5, 71, 0
11, 76200, Note_on_c, 5, 69, 76
11, 76304, Note_on_c, 5, 69, 0
11, 76320, Note_on_c, 5, 71, 76
11, 76544, Note_on_c, 5, 71, 0
11, 76560, Note_on_c, 5, 74, 76
11, 77024, Note_on_c, 5, 74, 0
11, 77040, Note_on_c, 5, 68, 76
11, 77279, Note_on_c, 5, 68, 0
11, 77280, Note_on_c, 5, 68, 76
11, 77504, Note_on_c, 5, 68, 0
11, 77520, Note_on_c, 5, 69, 76
11, 77759, Note_on_c, 5, 69, 0
11, 77760, Note_on_c, 5, 69, 76
11, 77999, Note_on_c, 5, 69, 0
11, 78000, Note_on_c, 5, 66, 76
11, 78239, Note_on_c, 5, 66, 0
11, 78240, Note_on_c, 5, 66, 76
11, 78464, Note_on_c, 5, 66, 0
11, 78480, Note_on_c, 5, 68, 76
11, 78584, Note_on_c, 5, 68, 0
11, 78600, Note_on_c, 5, 69, 76
11, 78704, Note_on_c, 5, 69, 0
11, 78720, Note_on_c, 5, 71, 76
11, 78944, Note_on_c, 5, 71, 0
11, 78960, Note_on_c, 5, 73, 76
11, 79184, Note_on_c, 5, 73, 0
11, 79200, Note_on_c, 5, 76, 76
11, 79424, Note_on_c, 5, 76, 0
11, 79440, Note_on_c, 5, 69, 76
11, 79679, Note_on_c, 5, 69, 0
11, 79680, Note_on_c, 5, 69, 76
11, 79919, Note_on_c, 5, 69, 0
11, 79920, Note_on_c, 5, 69, 76
11, 80159, Note_on_c, 5, 69, 0
11, 80160, Note_on_c, 5, 68, 76
11, 80384, Note_on_c, 5, 68, 0
11, 80400, Note_on_c, 5, 69, 76
11, 80864, Note_on_c, 5, 69, 0
11, 82800, Note_on_c, 5, 76, 76
11, 83024, Note_on_c, 5, 76, 0
11, 83040, Note_on_c, 5, 74, 76
11, 83504, Note_on_c, 5, 74, 0
11, 83520, Note_on_c, 5, 73, 76
11, 83984, Note_on_c, 5, 73, 0
11, 84000, Note_on_c, 5, 71, 76
11, 84239, Note_on_c, 5, 71, 0
11, 84240, Note_on_c, 5, 71, 76
11, 84269, Note_on_c, 5, 71, 0
11, 84270, Note_on_c, 5, 73, 76
11, 84299, Note_on_c, 5, 73, 0
11, 84300, Note_on_c, 5, 71, 76
11, 84329, Note_on_c, 5, 71, 0
11, 84330, Note_on_c, 5, 73, 76
11, 84359, Note_on_c, 5, 73, 0
11, 84360, Note_on_c, 5, 71, 76
11, 84389, Note_on_c, 5, 71, 0
11, 84390, Note_on_c, 5, 73, 76
11, 84419, Note_on_c, 5, 73, 0
11, 84420, Note_on_c, 5, 70, 76
11, 84449, Note_on_c, 5, 70, 0
11, 84450, Note_on_c, 5, 71, 76
11, 84471, Note_on_c, 5, 71, 0
11, 84480, Note_on_c, 5, 70, 76
11, 84704, Note_on_c, 5, 70, 0
11, 84720, Note_on_c, 5, 71, 76
11, 85664, Note_on_c, 5, 71, 0
11, 85680, Note_on_c, 5, 73, 76
11, 86144, Note_on_c, 5, 73, 0
11, 86160, Note_on_c, 5, 75, 76
11, 86624, Note_on_c, 5, 75, 0
11, 86640, Note_on_c, 5, 76, 76
11, 86864, Note_on_c, 5, 76, 0
11, 86880, Note_on_c, 5, 70, 76
11, 87104, Note_on_c, 5, 70, 0
11, 87120, Note_on_c, 5, 71, 76
11, 87344, Note_on_c, 5, 71, 0
11, 87360, Note_on_c, 5, 62, 76
11, 87584, Note_on_c, 5, 62, 0
11, 87600, Note_on_c, 5, 67, 76
11, 87824, Note_on_c, 5, 67, 0
11, 87840, Note_on_c, 5, 66, 76
11, 88064, Note_on_c, 5, 66, 0
11, 88080, Note_on_c, 5, 62, 76
11, 88544, Note_on_c, 5, 62, 0
11, 88560, Note_on_c, 5, 62, 76
11, 90464, Note_on_c, 5, 62, 0
11, 90480, Note_on_c, 5, 69, 76
11, 90704, Note_on_c, 5, 69, 0
11, 90720, Note_on_c, 5, 69, 76
11, 91184, Note_on_c, 5, 69, 0
11, 91200, Note_on_c, 5, 67, 76
11, 91304, Note_on_c, 5, 67, 0
11, 91320, Note_on_c, 5, 66, 76
11, 91424, Note_on_c, 5, 66, 0
11, 91440, Note_on_c, 5, 64, 76
11, 91664, Note_on_c, 5, 64, 0
11, 91680, Note_on_c, 5, 69, 76
11, 91904, Note_on_c, 5, 69, 0
11, 91920, Note_on_c, 5, 69, 76
11, 92039, Note_on_c, 5, 69, 0
11, 92040, Note_on_c, 5, 67, 76
11, 92159, Note_on_c, 5, 67, 0
11, 92160, Note_on_c, 5, 66, 76
11, 92279, Note_on_c, 5, 66, 0
11, 92280, Note_on_c, 5, 64, 76
11, 92384, Note_on_c, 5, 64, 0
11, 92400, Note_on_c, 5, 62, 76
11, 92624, Note_on_c, 5, 62, 0
11, 92640, Note_on_c, 5, 62, 76
11, 92864, Note_on_c, 5, 62, 0
11, 92880, Note_on_c, 5, 62, 76
11, 92984, Note_on_c, 5, 62, 0
11, 93000, Note_on_c, 5, 64, 76
11, 93104, Note_on_c, 5, 64, 0
11, 93120, Note_on_c, 5, 66, 76
11, 93224, Note_on_c, 5, 66, 0
11, 93240, Note_on_c, 5, 62, 76
11, 93344, Note_on_c, 5, 62, 0
11, 93360, Note_on_c, 5, 67, 76
11, 93584, Note_on_c, 5, 67, 0
11, 93600, Note_on_c, 5, 67, 76
11, 93824, Note_on_c, 5, 67, 0
11, 93840, Note_on_c, 5, 67, 76
11, 94304, Note_on_c, 5, 67, 0
11, 94320, Note_on_c, 5, 66, 76
11, 94544, Note_on_c, 5, 66, 0
11, 94560, Note_on_c, 5, 69, 76
11, 94784, Note_on_c, 5, 69, 0
11, 94800, Note_on_c, 5, 69, 76
11, 95024, Note_on_c, 5, 69, 0
11, 95040, Note_on_c, 5, 66, 76
11, 95264, Note_on_c, 5, 66, 0
11, 95280, Note_on_c, 5, 66, 76
11, 95309, Note_on_c, 5, 66, 0
11, 95310, Note_on_c, 5, 67, 76
11, 95339, Note_on_c, 5, 67, 0
11, 95340, Note_on_c, 5, 66, 76
11, 95369, Note_on_c, 5, 66, 0
11, 95370, Note_on_c, 5, 67, 76
11, 95399, Note_on_c, 5, 67, 0
11, 95400, Note_on_c, 5, 66, 76
11, 95429, Note_on_c, 5, 66, 0
11, 95430, Note_on_c, 5, 67, 76
11, 95459, Note_on_c, 5, 67, 0
11, 95460, Note_on_c, 5, 64, 76
11, 95489, Note_on_c, 5, 64, 0
11, 95490, Note_on_c, 5, 66, 76
11, 95511, Note_on_c, 5, 66, 0
11, 95520, Note_on_c, 5, 64, 76
11, 95624, Note_on_c, 5, 64, 0
11, 95640, Note_on_c, 5, 66, 76
11, 95744, Note_on_c, 5, 66, 0
11, 95760, Note_on_c, 5, 62, 76
11, 96224, Note_on_c, 5, 62, 0
11, 98160, Note_on_c, 5, 76, 76
11, 98384, Note_on_c, 5, 76, 0
11, 98400, Note_on_c, 5, 74, 76
11, 98864, Note_on_c, 5, 74, 0
11, 98880, Note_on_c, 5, 73, 76
11, 99344, Note_on_c, 5, 73, 0
11, 99360, Note_on_c, 5, 71, 76
11, 99599, Note_on_c, 5, 71, 0
11, 99600, Note_on_c, 5, 71, 76
11, 99629, Note_on_c, 5, 71, 0
11, 99630, Note_on_c, 5, 73, 76
11, 99659, Note_on_c, 5, 73, 0
11, 99660, Note_on_c, 5, 71, 76
11, 99689, Note_on_c, 5, 71, 0
11, 99690, Note_on_c, 5, 73, 76
11, 99719, Note_on_c, 5, 73, 0
11, 99720, Note_on_c, 5, 71, 76
11, 99749, Note_on_c, 5, 71, 0
11, 99750, Note_on_c, 5, 73, 76
11, 99779, Note_on_c, 5, 73, 0
11, 99780, Note_on_c, 5, 70, 76
11, 99809, Note_on_c, 5, 70, 0
11, 99810, Note_on_c, 5, 71, 76
11, 99831, Note_on_c, 5, 71, 0
11, 99840, Note_on_c, 5, 70, 76
11, 100064, Note_on_c, 5, 70, 0
11, 100080, Note_on_c, 5, 71, 76
11, 101024, Note_on_c, 5, 71, 0
11, 101040, Note_on_c, 5, 73, 76
11, 101504, Note_on_c, 5, 73, 0
11, 101520, Note_on_c, 5, 75, 76
11, 101984, Note_on_c, 5, 75, 0
11, 102000, Note_on_c, 5, 76, 76
11, 102224, Note_on_c, 5, 76, 0
11, 102240, Note_on_c, 5, 70, 76
11, 102464, Note_on_c, 5, 70, 0
11, 102480, Note_on_c, 5, 71, 76
11, 102704, Note_on_c, 5, 71, 0
11, 102720, Note_on_c, 5, 62, 76
11, 102944, Note_on_c, 5, 62, 0
11, 102960, Note_on_c, 5, 67, 76
11, 103184, Note_on_c, 5, 67, 0
11, 103200, Note_on_c, 5, 66, 76
11, 103424, Note_on_c, 5, 66, 0
11, 103440, Note_on_c, 5, 62, 76
11, 103904, Note_on_c, 5, 62, 0
11, 103920, Note_on_c, 5, 62, 76
11, 105824, Note_on_c, 5, 62, 0
11, 105840, Note_on_c, 5, 69, 76
11, 106064, Note_on_c, 5, 69, 0
11, 106080, Note_on_c, 5, 69, 76
11, 106544, Note_on_c, 5, 69, 0
11, 106560, Note_on_c, 5, 67, 76
11, 106664, Note_on_c, 5, 67, 0
11, 106680, Note_on_c, 5, 66, 76
11, 106784, Note_on_c, 5, 66, 0
11, 106800, Note_on_c, 5, 64, 76
11, 107024, Note_on_c, 5, 64, 0
11, 107040, Note_on_c, 5, 69, 76
11, 107264, Note_on_c, 5, 69, 0
11, 107280, Note_on_c, 5, 69, 76
11, 107399, Note_on_c, 5, 69, 0
11, 107400, Note_on_c, 5, 67, 76
11, 107519, Note_on_c, 5, 67, 0
11, 107520, Note_on_c, 5, 66, 76
11, 107639, Note_on_c, 5, 66, 0
11, 107640, Note_on_c, 5, 64, 76
11, 107744, Note_on_c, 5, 64, 0
11, 107760, Note_on_c, 5, 62, 76
11, 107984, Note_on_c, 5, 62, 0
11, 108000, Note_on_c, 5, 62, 76
11, 108224, Note_on_c, 5, 62, 0
11, 108240, Note_on_c, 5, 62, 76
11, 108344, Note_on_c, 5, 62, 0
11, 108360, Note_on_c, 5, 64, 76
11, 108464, Note_on_c, 5, 64, 0
11, 108480, Note_on_c, 5, 66, 76
11, 108584, Note_on_c, 5, 66, 0
11, 108600, Note_on_c, 5, 62, 76
11, 108704, Note_on_c, 5, 62, 0
11, 108720, Note_on_c, 5, 67, 76
11, 108944, Note_on_c, 5, 67, 0
11, 108960, Note_on_c, 5, 67, 76
11, 109184, Note_on_c, 5, 67, 0
11, 109200, Note_on_c, 5, 67, 76
11, 109664, Note_on_c, 5, 67, 0
11, 109680, Note_on_c, 5, 66, 76
11, 109904, Note_on_c, 5, 66, 0
11, 109920, Note_on_c, 5, 69, 76
11, 110144, Note_on_c, 5, 69, 0
11, 110160, Note_on_c, 5, 69, 76
11, 110384, Note_on_c, 5, 69, 0
11, 110400, Note_on_c, 5, 66, 76
11, 110624, Note_on_c, 5, 66, 0
11, 110640, Note_on_c, 5, 66, 76
11, 110669, Note_on_c, 5, 66, 0
11, 110670, Note_on_c, 5, 67, 76
11, 110699, Note_on_c, 5, 67, 0
11, 110700, Note_on_c, 5, 66, 76
11, 110729, Note_on_c, 5, 66, 0
11, 110730, Note_on_c, 5, 67, 76
11, 110759, Note_on_c, 5, 67, 0
11, 110760, Note_on_c, 5, 66, 76
11, 110789, Note_on_c, 5, 66, 0
11, 110790, Note_on_c, 5, 67, 76
11, 110819, Note_on_c, 5, 67, 0
11, 110820, Note_on_c, 5, 64, 76
11, 110849, Note_on_c, 5, 64, 0
11, 110850, Note_on_c, 5, 66, 76
11, 110871, Note_on_c, 5, 66, 0
11, 110880, Note_on_c, 5, 64, 76
11, 110984, Note_on_c, 5, 64, 0
11, 111000, Note_on_c, 5, 66, 76
11, 111104, Note_on_c, 5, 66, 0
11, 111120, Note_on_c, 5, 62, 76
11, 111584, Note_on_c, 5, 62, 0
11, 111840, Note_on_c, 5, 69, 76
11, 112064, Note_on_c, 5, 69, 0
11, 112080, Note_on_c, 5, 81, 76
11, 112184, Note_on_c, 5, 81, 0
11, 112200, Note_on_c, 5, 78, 76
11, 112304, Note_on_c, 5, 78, 0
11, 112320, Note_on_c, 5, 79, 76
11, 112784, Note_on_c, 5, 79, 0
11, 112800, Note_on_c, 5, 69, 76
11, 113024, Note_on_c, 5, 69, 0
11, 113040, Note_on_c, 5, 79, 76
11, 113144, Note_on_c, 5, 79, 0
11, 113160, Note_on_c, 5, 76, 76
11, 113264, Note_on_c, 5, 76, 0
11, 113280, Note_on_c, 5, 78, 76
11, 113744, Note_on_c, 5, 78, 0
11, 113760, Note_on_c, 5, 69, 76
11, 113984, Note_on_c, 5, 69, 0
11, 114000, Note_on_c, 5, 76, 76
11, 114104, Note_on_c, 5, 76, 0
11, 114120, Note_on_c, 5, 73, 76
11, 114224, Note_on_c, 5, 73, 0
11, 114240, Note_on_c, 5, 74, 76
11, 114464, Note_on_c, 5, 74, 0
11, 114480, Note_on_c, 5, 73, 76
11, 114584, Note_on_c, 5, 73, 0
11, 114600, Note_on_c, 5, 71, 76
11, 114704, Note_on_c, 5, 71, 0
11, 114720, Note_on_c, 5, 69, 76
11, 114824, Note_on_c, 5, 69, 0
11, 114840, Note_on_c, 5, 71, 76
11, 114944, Note_on_c, 5, 71, 0
11, 114960, Note_on_c, 5, 67, 76
11, 115184, Note_on_c, 5, 67, 0
11, 115200, Note_on_c, 5, 66, 76
11, 115229, Note_on_c, 5, 66, 0
11, 115230, Note_on_c, 5, 67, 76
11, 115259, Note_on_c, 5, 67, 0
11, 115260, Note_on_c, 5, 66, 76
11, 115289, Note_on_c, 5, 66, 0
11, 115290, Note_on_c, 5, 67, 76
11, 115319, Note_on_c, 5, 67, 0
11, 115320, Note_on_c, 5, 66, 76
11, 115349, Note_on_c, 5, 66, 0
11, 115350, Note_on_c, 5, 67, 76
11, 115379, Note_on_c, 5, 67, 0
11, 115380, Note_on_c, 5, 64, 76
11, 115409, Note_on_c, 5, 64, 0
11, 115410, Note_on_c, 5, 66, 76
11, 115431, Note_on_c, 5, 66, 0
11, 115440, Note_on_c, 5, 64, 76
11, 115544, Note_on_c, 5, 64, 0
11, 115560, Note_on_c, 5, 62, 76
11, 115664, Note_on_c, 5, 62, 0
11, 115680, Note_on_c, 5, 69, 76
11, 115904, Note_on_c, 5, 69, 0
11, 115920, Note_on_c, 5, 81, 76
11, 116024, Note_on_c, 5, 81, 0
11, 116040, Note_on_c, 5, 78, 76
11, 116144, Note_on_c, 5, 78, 0
11, 116160, Note_on_c, 5, 79, 76
11, 116624, Note_on_c, 5, 79, 0
11, 116640, Note_on_c, 5, 69, 76
11, 116864, Note_on_c, 5, 69, 0
11, 116880, Note_on_c, 5, 79, 76
11, 116984, Note_on_c, 5, 79, 0
11, 117000, Note_on_c, 5, 76, 76
11, 117104, Note_on_c, 5, 76, 0
11, 117120, Note_on_c, 5, 78, 76
11, 117584, Note_on_c, 5, 78, 0
11, 117600, Note_on_c, 5, 80, 76
11, 117824, Note_on_c, 5, 80, 0
11, 117840, Note_on_c, 5, 83, 76
11, 117944, Note_on_c, 5, 83, 0
11, 117960, Note_on_c, 5, 80, 76
11, 118064, Note_on_c, 5, 80, 0
11, 118080, Note_on_c, 5, 81, 76
11, 118304, Note_on_c, 5, 81, 0
11, 118320, Note_on_c, 5, 80, 76
11, 118424, Note_on_c, 5, 80, 0
11, 118440, Note_on_c, 5, 78, 76
11, 118544, Note_on_c, 5, 78, 0
11, 118560, Note_on_c, 5, 76, 76
11, 118664, Note_on_c, 5, 76, 0
11, 118680, Note_on_c, 5, 78, 76
11, 118784, Note_on_c, 5, 78, 0
11, 118800, Note_on_c, 5, 74, 76
11, 119024, Note_on_c, 5, 74, 0
11, 119040, Note_on_c, 5, 73, 76
11, 119264, Note_on_c, 5, 73, 0
11, 119280, Note_on_c, 5, 78, 76
11, 119384, Note_on_c, 5, 78, 0
11, 119400, Note_on_c, 5, 74, 76
11, 119504, Note_on_c, 5, 74, 0
11, 119520, Note_on_c, 5, 76, 76
11, 119744, Note_on_c, 5, 76, 0
11, 119760, Note_on_c, 5, 74, 76
11, 119864, Note_on_c, 5, 74, 0
11, 119880, Note_on_c, 5, 73, 76
11, 119984, Note_on_c, 5, 73, 0
11, 120000, Note_on_c, 5, 71, 76
11, 120104, Note_on_c, 5, 71, 0
11, 120120, Note_on_c, 5, 73, 76
11, 120224, Note_on_c, 5, 73, 0
11, 120240, Note_on_c, 5, 69, 76
11, 120464, Note_on_c, 5, 69, 0
11, 120480, Note_on_c, 5, 64, 76
11, 120704, Note_on_c, 5, 64, 0
11, 120720, Note_on_c, 5, 68, 76
11, 120944, Note_on_c, 5, 68, 0
11, 120960, Note_on_c, 5, 69, 76
11, 121424, Note_on_c, 5, 69, 0
11, 121440, Note_on_c, 5, 69, 76
11, 121664, Note_on_c, 5, 69, 0
11, 121680, Note_on_c, 5, 81, 76
11, 121784, Note_on_c, 5, 81, 0
11, 121800, Note_on_c, 5, 78, 76
11, 121904, Note_on_c, 5, 78, 0
11, 121920, Note_on_c, 5, 79, 76
11, 122384, Note_on_c, 5, 79, 0
11, 122400, Note_on_c, 5, 69, 76
11, 122624, Note_on_c, 5, 69, 0
11, 122640, Note_on_c, 5, 79, 76
11, 122744, Note_on_c, 5, 79, 0
11, 122760, Note_on_c, 5, 76, 76
11, 122864, Note_on_c, 5, 76, 0
11, 122880, Note_on_c, 5, 78, 76
11, 123344, Note_on_c, 5, 78, 0
11, 123360, Note_on_c, 5, 69, 76
11, 123584, Note_on_c, 5, 69, 0
11, 123600, Note_on_c, 5, 76, 76
11, 123704, Note_on_c, 5, 76, 0
11, 123720, Note_on_c, 5, 73, 76
11, 123824, Note_on_c, 5, 73, 0
11, 123840, Note_on_c, 5, 74, 76
11, 124064, Note_on_c, 5, 74, 0
11, 124080, Note_on_c, 5, 73, 76
11, 124184, Note_on_c, 5, 73, 0
11, 124200, Note_on_c, 5, 71, 76
11, 124304, Note_on_c, 5, 71, 0
11, 124320, Note_on_c, 5, 69, 76
11, 124424, Note_on_c, 5, 69, 0
11, 124440, Note_on_c, 5, 71, 76
11, 124544, Note_on_c, 5, 71, 0
11, 124560, Note_on_c, 5, 67, 76
11, 124784, Note_on_c, 5, 67, 0
11, 124800, Note_on_c, 5, 66, 76
11, 124829, Note_on_c, 5, 66, 0
11, 124830, Note_on_c, 5, 67, 76
11, 124859, Note_on_c, 5, 67, 0
11, 124860, Note_on_c, 5, 66, 76
11, 124889, Note_on_c, 5, 66, 0
11, 124890, Note_on_c, 5, 67, 76
11, 124919, Note_on_c, 5, 67, 0
11, 124920, Note_on_c, 5, 66, 76
11, 124949, Note_on_c, 5, 66, 0
11, 124950, Note_on_c, 5, 67, 76
11, 124979, Note_on_c, 5, 67, 0
11, 124980, Note_on_c, 5, 64, 76
11, 125009, Note_on_c, 5, 64, 0
11, 125010, Note_on_c, 5, 66, 76
11, 125031, Note_on_c, 5, 66, 0
11, 125040, Note_on_c, 5, 64, 76
11, 125144, Note_on_c, 5, 64, 0
11, 125160, Note_on_c, 5, 62, 76
11, 125264, Note_on_c, 5, 62, 0
11, 125280, Note_on_c, 5, 69, 76
11, 125504, Note_on_c, 5, 69, 0
11, 125520, Note_on_c, 5, 81, 76
11, 125624, Note_on_c, 5, 81, 0
11, 125640, Note_on_c, 5, 78, 76
11, 125744, Note_on_c, 5, 78, 0
11, 125760, Note_on_c, 5, 79, 76
11, 126224, Note_on_c, 5, 79, 0
11, 126240, Note_on_c, 5, 69, 76
11, 126464, Note_on_c, 5, 69, 0
11, 126480, Note_on_c, 5, 79, 76
11, 126584, Note_on_c, 5, 79, 0
11, 126600, Note_on_c, 5, 76, 76
11, 126704, Note_on_c, 5, 76, 0
11, 126720, Note_on_c, 5, 78, 76
11, 127184, Note_on_c, 5, 78, 0
11, 127200, Note_on_c, 5, 80, 76
11, 127424, Note_on_c, 5, 80, 0
11, 127440, Note_on_c, 5, 83, 76
11, 127544, Note_on_c, 5, 83, 0
11, 127560, Note_on_c, 5, 80, 76
11, 127664, Note_on_c, 5, 80, 0
11, 127680, Note_on_c, 5, 81, 76
11, 127904, Note_on_c, 5, 81, 0
11, 127920, Note_on_c, 5, 80, 76
11, 128024, Note_on_c, 5, 80, 0
11, 128040, Note_on_c, 5, 78, 76
11, 128144, Note_on_c, 5, 78, 0
11, 128160, Note_on_c, 5, 76, 76
11, 128264, Note_on_c, 5, 76, 0
11, 128280, Note_on_c, 5, 78, 76
11, 128384, Note_on_c, 5, 78, 0
11, 128400, Note_on_c, 5, 74, 76
11, 128624, Note_on_c, 5, 74, 0
11, 128640, Note_on_c, 5, 73, 76
11, 128864, Note_on_c, 5, 73, 0
11, 128880, Note_on_c, 5, 78, 76
11, 128984, Note_on_c, 5, 78, 0
11, 129000, Note_on_c, 5, 74, 76
11, 129104, Note_on_c, 5, 74, 0
11, 129120, Note_on_c, 5, 76, 76
11, 129344, Note_on_c, 5, 76, 0
11, 129360, Note_on_c, 5, 74, 76
11, 129464, Note_on_c, 5, 74, 0
11, 129480, Note_on_c, 5, 73, 76
11, 129584, Note_on_c, 5, 73, 0
11, 129600, Note_on_c, 5, 71, 76
11, 129704, Note_on_c, 5, 71, 0
11, 129720, Note_on_c, 5, 73, 76
11, 129824, Note_on_c, 5, 73, 0
11, 129840, Note_on_c, 5, 69, 76
11, 130064, Note_on_c, 5, 69, 0
11, 130080, Note_on_c, 5, 64, 76
11, 130304, Note_on_c, 5, 64, 0
11, 130320, Note_on_c, 5, 68, 76
11, 130544, Note_on_c, 5, 68, 0
11, 130560, Note_on_c, 5, 69, 76
11, 131024, Note_on_c, 5, 69, 0
11, 131040, Note_on_c, 5, 76, 76
11, 131264, Note_on_c, 5, 76, 0
11, 131280, Note_on_c, 5, 64, 76
11, 131384, Note_on_c, 5, 64, 0
11, 131400, Note_on_c, 5, 67, 76
11, 131504, Note_on_c, 5, 67, 0
11, 131520, Note_on_c, 5, 66, 76
11, 131984, Note_on_c, 5, 66, 0
11, 132000, Note_on_c, 5, 74, 76
11, 132224, Note_on_c, 5, 74, 0
11, 132240, Note_on_c, 5, 66, 76
11, 132344, Note_on_c, 5, 66, 0
11, 132360, Note_on_c, 5, 69, 76
11, 132464, Note_on_c, 5, 69, 0
11, 132480, Note_on_c, 5, 67, 76
11, 132944, Note_on_c, 5, 67, 0
11, 132960, Note_on_c, 5, 73, 76
11, 133184, Note_on_c, 5, 73, 0
11, 133200, Note_on_c, 5, 70, 76
11, 133304, Note_on_c, 5, 70, 0
11, 133320, Note_on_c, 5, 73, 76
11, 133424, Note_on_c, 5, 73, 0
11, 133440, Note_on_c, 5, 71, 76
11, 133664, Note_on_c, 5, 71, 0
11, 133680, Note_on_c, 5, 73, 76
11, 133784, Note_on_c, 5, 73, 0
11, 133800, Note_on_c, 5, 74, 76
11, 133904, Note_on_c, 5, 74, 0
11, 133920, Note_on_c, 5, 73, 76
11, 134024, Note_on_c, 5, 73, 0
11, 134040, Note_on_c, 5, 71, 76
11, 134144, Note_on_c, 5, 71, 0
11, 134160, Note_on_c, 5, 79, 76
11, 134384, Note_on_c, 5, 79, 0
11, 134400, Note_on_c, 5, 79, 76
11, 134429, Note_on_c, 5, 79, 0
11, 134430, Note_on_c, 5, 81, 76
11, 134459, Note_on_c, 5, 81, 0
11, 134460, Note_on_c, 5, 79, 76
11, 134489, Note_on_c, 5, 79, 0
11, 134490, Note_on_c, 5, 81, 76
11, 134519, Note_on_c, 5, 81, 0
11, 134520, Note_on_c, 5, 79, 76
11, 134549, Note_on_c, 5, 79, 0
11, 134550, Note_on_c, 5, 81, 76
11, 134579, Note_on_c, 5, 81, 0
11, 134580, Note_on_c, 5, 78, 76
11, 134609, Note_on_c, 5, 78, 0
11, 134610, Note_on_c, 5, 79, 76
11, 134631, Note_on_c, 5, 79, 0
11, 134640, Note_on_c, 5, 78, 76
11, 134864, Note_on_c, 5, 78, 0
11, 134880, Note_on_c, 5, 66, 76
11, 135104, Note_on_c, 5, 66, 0
11, 135120, Note_on_c, 5, 78, 76
11, 135224, Note_on_c, 5, 78, 0
11, 135240, Note_on_c, 5, 74, 76
11, 135344, Note_on_c, 5, 74, 0
11, 135360, Note_on_c, 5, 76, 76
11, 135824, Note_on_c, 5, 76, 0
11, 135840, Note_on_c, 5, 66, 76
11, 136064, Note_on_c, 5, 66, 0
11, 136080, Note_on_c, 5, 76, 76
11, 136184, Note_on_c, 5, 76, 0
11, 136200, Note_on_c, 5, 73, 76
11, 136304, Note_on_c, 5, 73, 0
11, 136320, Note_on_c, 5, 74, 76
11, 136544, Note_on_c, 5, 74, 0
11, 136560, Note_on_c, 5, 71, 76
11, 136664, Note_on_c, 5, 71, 0
11, 136680, Note_on_c, 5, 74, 76
11, 136784, Note_on_c, 5, 74, 0
11, 136800, Note_on_c, 5, 73, 76
11, 136904, Note_on_c, 5, 73, 0
11, 136920, Note_on_c, 5, 70, 76
11, 137024, Note_on_c, 5, 70, 0
11, 137040, Note_on_c, 5, 71, 76
11, 137264, Note_on_c, 5, 71, 0
11, 137280, Note_on_c, 5, 78, 76
11, 137504, Note_on_c, 5, 78, 0
11, 137520, Note_on_c, 5, 79, 76
11, 137624, Note_on_c, 5, 79, 0
11, 137640, Note_on_c, 5, 78, 76
11, 137744, Note_on_c, 5, 78, 0
11, 137760, Note_on_c, 5, 76, 76
11, 137864, Note_on_c, 5, 76, 0
11, 137880, Note_on_c, 5, 74, 76
11, 137984, Note_on_c, 5, 74, 0
11, 138000, Note_on_c, 5, 73, 76
11, 138104, Note_on_c, 5, 73, 0
11, 138120, Note_on_c, 5, 74, 76
11, 138224, Note_on_c, 5, 74, 0
11, 138240, Note_on_c, 5, 71, 76
11, 138704, Note_on_c, 5, 71, 0
11, 138720, Note_on_c, 5, 71, 76
11, 138944, Note_on_c, 5, 71, 0
11, 138960, Note_on_c, 5, 83, 76
11, 139064, Note_on_c, 5, 83, 0
11, 139080, Note_on_c, 5, 79, 76
11, 139184, Note_on_c, 5, 79, 0
11, 139200, Note_on_c, 5, 81, 76
11, 139664, Note_on_c, 5, 81, 0
11, 139680, Note_on_c, 5, 71, 76
11, 139904, Note_on_c, 5, 71, 0
11, 139920, Note_on_c, 5, 81, 76
11, 140024, Note_on_c, 5, 81, 0
11, 140040, Note_on_c, 5, 78, 76
11, 140144, Note_on_c, 5, 78, 0
11, 140160, Note_on_c, 5, 79, 76
11, 140624, Note_on_c, 5, 79, 0
11, 140640, Note_on_c, 5, 73, 76
11, 140864, Note_on_c, 5, 73, 0
11, 140880, Note_on_c, 5, 79, 76
11, 140984, Note_on_c, 5, 79, 0
11, 141000, Note_on_c, 5, 76, 76
11, 141104, Note_on_c, 5, 76, 0
11, 141120, Note_on_c, 5, 78, 76
11, 141344, Note_on_c, 5, 78, 0
11, 141360, Note_on_c, 5, 76, 76
11, 141464, Note_on_c, 5, 76, 0
11, 141480, Note_on_c, 5, 74, 76
11, 141584, Note_on_c, 5, 74, 0
11, 141600, Note_on_c, 5, 76, 76
11, 141704, Note_on_c, 5, 76, 0
11, 141720, Note_on_c, 5, 73, 76
11, 141824, Note_on_c, 5, 73, 0
11, 141840, Note_on_c, 5, 74, 76
11, 142064, Note_on_c, 5, 74, 0
11, 142080, Note_on_c, 5, 73, 76
11, 142109, Note_on_c, 5, 73, 0
11, 142110, Note_on_c, 5, 74, 76
11, 142139, Note_on_c, 5, 74, 0
11, 142140, Note_on_c, 5, 73, 76
11, 142169, Note_on_c, 5, 73, 0
11, 142170, Note_on_c, 5, 74, 76
11, 142199, Note_on_c, 5, 74, 0
11, 142200, Note_on_c, 5, 73, 76
11, 142229, Note_on_c, 5, 73, 0
11, 142230, Note_on_c, 5, 74, 76
11, 142259, Note_on_c, 5, 74, 0
11, 142260, Note_on_c, 5, 71, 76
11, 142289, Note_on_c, 5, 71, 0
11, 142290, Note_on_c, 5, 73, 76
11, 142311, Note_on_c, 5, 73, 0
11, 142320, Note_on_c, 5, 71, 76
11, 142424, Note_on_c, 5, 71, 0
11, 142440, Note_on_c, 5, 69, 76
11, 142544, Note_on_c, 5, 69, 0
11, 142560, Note_on_c, 5, 81, 76
11, 142784, Note_on_c, 5, 81, 0
11, 142800, Note_on_c, 5, 69, 76
11, 142904, Note_on_c, 5, 69, 0
11, 142920, Note_on_c, 5, 72, 76
11, 143024, Note_on_c, 5, 72, 0
11, 143040, Note_on_c, 5, 71, 76
11, 143504, Note_on_c, 5, 71, 0
11, 143520, Note_on_c, 5, 79, 76
11, 143744, Note_on_c, 5, 79, 0
11, 143760, Note_on_c, 5, 71, 76
11, 143864, Note_on_c, 5, 71, 0
11, 143880, Note_on_c, 5, 74, 76
11, 143984, Note_on_c, 5, 74, 0
11, 144000, Note_on_c, 5, 73, 76
11, 144224, Note_on_c, 5, 73, 0
11, 144240, Note_on_c, 5, 76, 76
11, 144344, Note_on_c, 5, 76, 0
11, 144360, Note_on_c, 5, 73, 76
11, 144464, Note_on_c, 5, 73, 0
11, 144480, Note_on_c, 5, 69, 76
11, 144704, Note_on_c, 5, 69, 0
11, 144720, Note_on_c, 5, 79, 76
11, 144824, Note_on_c, 5, 79, 0
11, 144840, Note_on_c, 5, 76, 76
11, 144944, Note_on_c, 5, 76, 0
11, 144960, Note_on_c, 5, 78, 76
11, 145064, Note_on_c, 5, 78, 0
11, 145080, Note_on_c, 5, 76, 76
11, 145184, Note_on_c, 5, 76, 0
11, 145200, Note_on_c, 5, 74, 76
11, 145304, Note_on_c, 5, 74, 0
11, 145320, Note_on_c, 5, 76, 76
11, 145424, Note_on_c, 5, 76, 0
11, 145440, Note_on_c, 5, 69, 76
11, 145664, Note_on_c, 5, 69, 0
11, 145680, Note_on_c, 5, 73, 76
11, 145904, Note_on_c, 5, 73, 0
11, 145920, Note_on_c, 5, 74, 76
11, 146384, Note_on_c, 5, 74, 0
11, 146400, Note_on_c, 5, 76, 76
11, 146624, Note_on_c, 5, 76, 0
11, 146640, Note_on_c, 5, 64, 76
11, 146744, Note_on_c, 5, 64, 0
11, 146760, Note_on_c, 5, 67, 76
11, 146864, Note_on_c, 5, 67, 0
11, 146880, Note_on_c, 5, 66, 76
11, 147344, Note_on_c, 5, 66, 0
11, 147360, Note_on_c, 5, 74, 76
11, 147584, Note_on_c, 5, 74, 0
11, 147600, Note_on_c, 5, 66, 76
11, 147704, Note_on_c, 5, 66, 0
11, 147720, Note_on_c, 5, 69, 76
11, 147824, Note_on_c, 5, 69, 0
11, 147840, Note_on_c, 5, 67, 76
11, 148304, Note_on_c, 5, 67, 0
11, 148320, Note_on_c, 5, 73, 76
11, 148544, Note_on_c, 5, 73, 0
11, 148560, Note_on_c, 5, 70, 76
11, 148664, Note_on_c, 5, 70, 0
11, 148680, Note_on_c, 5, 73, 76
11, 148784, Note_on_c, 5, 73, 0
11, 148800, Note_on_c, 5, 71, 76
11, 149024, Note_on_c, 5, 71, 0
11, 149040, Note_on_c, 5, 73, 76
11, 149144, Note_on_c, 5, 73, 0
11, 149160, Note_on_c, 5, 74, 76
11, 149264, Note_on_c, 5, 74, 0
11, 149280, Note_on_c, 5, 73, 76
11, 149384, Note_on_c, 5, 73, 0
11, 149400, Note_on_c, 5, 71, 76
11, 149504, Note_on_c, 5, 71, 0
11, 149520, Note_on_c, 5, 79, 76
11, 149744, Note_on_c, 5, 79, 0
11, 149760, Note_on_c, 5, 79, 76
11, 149789, Note_on_c, 5, 79, 0
11, 149790, Note_on_c, 5, 81, 76
11, 149819, Note_on_c, 5, 81, 0
11, 149820, Note_on_c, 5, 79, 76
11, 149849, Note_on_c, 5, 79, 0
11, 149850, Note_on_c, 5, 81, 76
11, 149879, Note_on_c, 5, 81, 0
11, 149880, Note_on_c, 5, 79, 76
11, 149909, Note_on_c, 5, 79, 0
11, 149910, Note_on_c, 5, 81, 76
11, 149939, Note_on_c, 5, 81, 0
11, 149940, Note_on_c, 5, 78, 76
11, 149969, Note_on_c, 5, 78, 0
11, 149970, Note_on_c, 5, 79, 76
11, 149991, Note_on_c, 5, 79, 0
11, 150000, Note_on_c, 5, 78, 76
11, 150224, Note_on_c, 5, 78, 0
11, 150240, Note_on_c, 5, 66, 76
11, 150464, Note_on_c, 5, 66, 0
11, 150480, Note_on_c, 5, 78, 76
11, 150584, Note_on_c, 5, 78, 0
11, 150600, Note_on_c, 5, 74, 76
11, 150704, Note_on_c, 5, 74, 0
11, 150720, Note_on_c, 5, 76, 76
11, 151184, Note_on_c, 5, 76, 0
11, 151200, Note_on_c, 5, 66, 76
11, 151424, Note_on_c, 5, 66, 0
11, 151440, Note_on_c, 5, 76, 76
11, 151544, Note_on_c, 5, 76, 0
11, 151560, Note_on_c, 5, 73, 76
11, 151664, Note_on_c, 5, 73, 0
11, 151680, Note_on_c, 5, 74, 76
11, 151904, Note_on_c, 5, 74, 0
11, 151920, Note_on_c, 5, 71, 76
11, 152024, Note_on_c, 5, 71, 0
11, 152040, Note_on_c, 5, 74, 76
11, 152144, Note_on_c, 5, 74, 0
11, 152160, Note_on_c, 5, 73, 76
11, 152264, Note_on_c, 5, 73, 0
11, 152280, Note_on_c, 5, 70, 76
11, 152384, Note_on_c, 5, 70, 0
11, 152400, Note_on_c, 5, 71, 76
11, 152624, Note_on_c, 5, 71, 0
11, 152640, Note_on_c, 5, 78, 76
11, 152864, Note_on_c, 5, 78, 0
11, 152880, Note_on_c, 5, 79, 76
11, 152984, Note_on_c, 5, 79, 0
11, 153000, Note_on_c, 5, 78, 76
11, 153104, Note_on_c, 5, 78, 0
11, 153120, Note_on_c, 5, 76, 76
11, 153224, Note_on_c, 5, 76, 0
11, 153240, Note_on_c, 5, 74, 76
11, 153344, Note_on_c, 5, 74, 0
11, 153360, Note_on_c, 5, 73, 76
11, 153464, Note_on_c, 5, 73, 0
11, 153480, Note_on_c, 5, 74, 76
11, 153584, Note_on_c, 5, 74, 0
11, 153600, Note_on_c, 5, 71, 76
11, 154064, Note_on_c, 5, 71, 0
11, 154080, Note_on_c, 5, 71, 76
11, 154304, Note_on_c, 5, 71, 0
11, 154320, Note_on_c, 5, 83, 76
11, 154424, Note_on_c, 5, 83, 0
11, 154440, Note_on_c, 5, 79, 76
11, 154544, Note_on_c, 5, 79, 0
11, 154560, Note_on_c, 5, 81, 76
11, 155024, Note_on_c, 5, 81, 0
11, 155040, Note_on_c, 5, 71, 76
11, 155264, Note_on_c, 5, 71, 0
11, 155280, Note_on_c, 5, 81, 76
11, 155384, Note_on_c, 5, 81, 0
11, 155400, Note_on_c, 5, 78, 76
11, 155504, Note_on_c, 5, 78, 0
11, 155520, Note_on_c, 5, 79, 76
11, 155984, Note_on_c, 5, 79, 0
11, 156000, Note_on_c, 5, 73, 76
11, 156224, Note_on_c, 5, 73, 0
11, 156240, Note_on_c, 5, 79, 76
11, 156344, Note_on_c, 5, 79, 0
11, 156360, Note_on_c, 5, 76, 76
11, 156464, Note_on_c, 5, 76, 0
11, 156480, Note_on_c, 5, 78, 76
11, 156704, Note_on_c, 5, 78, 0
11, 156720, Note_on_c, 5, 76, 76
11, 156824, Note_on_c, 5, 76, 0
11, 156840, Note_on_c, 5, 74, 76
11, 156944, Note_on_c, 5, 74, 0
11, 156960, Note_on_c, 5, 76, 76
11, 157064, Note_on_c, 5, 76, 0
11, 157080, Note_on_c, 5, 73, 76
11, 157184, Note_on_c, 5, 73, 0
11, 157200, Note_on_c, 5, 74, 76
11, 157424, Note_on_c, 5, 74, 0
11, 157440, Note_on_c, 5, 73, 76
11, 157469, Note_on_c, 5, 73, 0
11, 157470, Note_on_c, 5, 74, 76
11, 157499, Note_on_c, 5, 74, 0
11, 157500, Note_on_c, 5, 73, 76
11, 157529, Note_on_c, 5, 73, 0
11, 157530, Note_on_c, 5, 74, 76
11, 157559, Note_on_c, 5, 74, 0
11, 157560, Note_on_c, 5, 73, 76
11, 157589, Note_on_c, 5, 73, 0
11, 157590, Note_on_c, 5, 74, 76
11, 157619, Note_on_c, 5, 74, 0
11, 157620, Note_on_c, 5, 71, 76
11, 157649, Note_on_c, 5, 71, 0
11, 157650, Note_on_c, 5, 73, 76
11, 157671, Note_on_c, 5, 73, 0
11, 157680, Note_on_c, 5, 71, 76
11, 157784, Note_on_c, 5, 71, 0
11, 157800, Note_on_c, 5, 69, 76
11, 157904, Note_on_c, 5, 69, 0
11, 157920, Note_on_c, 5, 81, 76
11, 158144, Note_on_c, 5, 81, 0
11, 158160, Note_on_c, 5, 69, 76
11, 158264, Note_on_c, 5, 69, 0
11, 158280, Note_on_c, 5, 72, 76
11, 158384, Note_on_c, 5, 72, 0
11, 158400, Note_on_c, 5, 71, 76
11, 158864, Note_on_c, 5, 71, 0
11, 158880, Note_on_c, 5, 79, 76
11, 159104, Note_on_c, 5, 79, 0
11, 159120, Note_on_c, 5, 71, 76
11, 159224, Note_on_c, 5, 71, 0
11, 159240, Note_on_c, 5, 74, 76
11, 159344, Note_on_c, 5, 74, 0
11, 159360, Note_on_c, 5, 73, 76
11, 159584, Note_on_c, 5, 73, 0
11, 159600, Note_on_c, 5, 76, 76
11, 159704, Note_on_c, 5, 76, 0
11, 159720, Note_on_c, 5, 73, 76
11, 159824, Note_on_c, 5, 73, 0
11, 159840, Note_on_c, 5, 69, 76
11, 160064, Note_on_c, 5, 69, 0
11, 160080, Note_on_c, 5, 79, 76
11, 160184, Note_on_c, 5, 79, 0
11, 160200, Note_on_c, 5, 76, 76
11, 160304, Note_on_c, 5, 76, 0
11, 160320, Note_on_c, 5, 78, 76
11, 160424, Note_on_c, 5, 78, 0
11, 160440, Note_on_c, 5, 76, 76
11, 160544, Note_on_c, 5, 76, 0
11, 160560, Note_on_c, 5, 74, 76
11, 160664, Note_on_c, 5, 74, 0
11, 160680, Note_on_c, 5, 76, 76
11, 160784, Note_on_c, 5, 76, 0
11, 160800, Note_on_c, 5, 69, 76
11, 161024, Note_on_c, 5, 69, 0
11, 161040, Note_on_c, 5, 73, 76
11, 161264, Note_on_c, 5, 73, 0
11, 161280, Note_on_c, 5, 74, 76
11, 161759, Note_on_c, 5, 74, 0
11, 161759, End_track
12, 0, Start_track
12, 0, Title_t, "Violin I"
12, 0, MIDI_port, 0
12, 0, Program_c, 10, 48
12, 0, Control_c, 10, 10, 48
12, 0, Control_c, 10, 11, 127
12, 0, Control_c, 10, 7, 96
12, 0, Note_on_c, 10, 69, 76
12, 224, Note_on_c, 10, 69, 0
12, 240, Note_on_c, 10, 81, 76
12, 344, Note_on_c, 10, 81, 0
12, 360, Note_on_c, 10, 78, 76
12, 464, Note_on_c, 10, 78, 0
12, 480, Note_on_c, 10, 79, 76
12, 944, Note_on_c, 10, 79, 0
12, 960, Note_on_c, 10, 69, 76
12, 1184, Note_on_c, 10, 69, 0
12, 1200, Note_on_c, 10, 79, 76
12, 1304, Note_on_c, 10, 79, 0
12, 1320, Note_on_c, 10, 76, 76
12, 1424, Note_on_c, 10, 76, 0
12, 1440, Note_on_c, 10, 78, 76
12, 1904, Note_on_c, 10, 78, 0
12, 1920, Note_on_c, 10, 69, 76
12, 2144, Note_on_c, 10, 69, 0
12, 2160, Note_on_c, 10, 76, 76
12, 2264, Note_on_c, 10, 76, 0
12, 2280, Note_on_c, 10, 73, 76
12, 2384, Note_on_c, 10, 73, 0
12, 2400, Note_on_c, 10, 74, 76
12, 2624, Note_on_c, 10, 74, 0
12, 2640, Note_on_c, 10, 73, 76
12, 2744, Note_on_c, 10, 73, 0
12, 2760, Note_on_c, 10, 71, 76
12, 2864, Note_on_c, 10, 71, 0
12, 2880, Note_on_c, 10, 69, 76
12, 2984, Note_on_c, 10, 69, 0
12, 3000, Note_on_c, 10, 71, 76
12, 3104, Note_on_c, 10, 71, 0
12, 3120, Note_on_c, 10, 67, 76
12, 3344, Note_on_c, 10, 67, 0
12, 3360, Note_on_c, 10, 66, 76
12, 3389, Note_on_c, 10, 66, 0
12, 3390, Note_on_c, 10, 67, 76
12, 3419, Note_on_c, 10, 67, 0
12, 3420, Note_on_c, 10, 66, 76
12, 3449, Note_on_c, 10, 66, 0
12, 3450, Note_on_c, 10, 67, 76
12, 3479, Note_on_c, 10, 67, 0
12, 3480, Note_on_c, 10, 66, 76
12, 3509, Note_on_c, 10, 66, 0
12, 3510, Note_on_c, 10, 67, 76
12, 3539, Note_on_c, 10, 67, 0
12, 3540, Note_on_c, 10, 64, 76
12, 3569, Note_on_c, 10, 64, 0
12, 3570, Note_on_c, 10, 66, 76
12, 3591, Note_on_c, 10, 66, 0
12, 3600, Note_on_c, 10, 64, 76
12, 3704, Note_on_c, 10, 64, 0
12, 3720, Note_on_c, 10, 62, 76
12, 3824, Note_on_c, 10, 62, 0
12, 3840, Note_on_c, 10, 69, 76
12, 4064, Note_on_c, 10, 69, 0
12, 4080, Note_on_c, 10, 81, 76
12, 4184, Note_on_c, 10, 81, 0
12, 4200, Note_on_c, 10, 78, 76
12, 4304, Note_on_c, 10, 78, 0
12, 4320, Note_on_c, 10, 79, 76
12, 4784, Note_on_c, 10, 79, 0
12, 4800, Note_on_c, 10, 69, 76
12, 5024, Note_on_c, 10, 69, 0
12, 5040, Note_on_c, 10, 79, 76
12, 5144, Note_on_c, 10, 79, 0
12, 5160, Note_on_c, 10, 76, 76
12, 5264, Note_on_c, 10, 76, 0
12, 5280, Note_on_c, 10, 78, 76
12, 5744, Note_on_c, 10, 78, 0
12, 5760, Note_on_c, 10, 80, 76
12, 5984, Note_on_c, 10, 80, 0
12, 6000, Note_on_c, 10, 83, 76
12, 6104, Note_on_c, 10, 83, 0
12, 6120, Note_on_c, 10, 80, 76
12, 6224, Note_on_c, 10, 80, 0
12, 6240, Note_on_c, 10, 81, 76
12, 6464, Note_on_c, 10, 81, 0
12, 6480, Note_on_c, 10, 80, 76
12, 6584, Note_on_c, 10, 80, 0
12, 6600, Note_on_c, 10, 78, 76
12, 6704, Note_on_c, 10, 78, 0
12, 6720, Note_on_c, 10, 76, 76
12, 6824, Note_on_c, 10, 76, 0
12, 6840, Note_on_c, 10, 78, 76
12, 6944, Note_on_c, 10, 78, 0
12, 6960, Note_on_c, 10, 74, 76
12, 7184, Note_on_c, 10, 74, 0
12, 7200, Note_on_c, 10, 73, 76
12, 7424, Note_on_c, 10, 73, 0
12, 7440, Note_on_c, 10, 78, 76
12, 7544, Note_on_c, 10, 78, 0
12, 7560, Note_on_c, 10, 74, 76
12, 7664, Note_on_c, 10, 74, 0
12, 7680, Note_on_c, 10, 76, 76
12, 7904, Note_on_c, 10, 76, 0
12, 7920, Note_on_c, 10, 74, 76
12, 8024, Note_on_c, 10, 74, 0
12, 8040, Note_on_c, 10, 73, 76
12, 8144, Note_on_c, 10, 73, 0
12, 8160, Note_on_c, 10, 71, 76
12, 8264, Note_on_c, 10, 71, 0
12, 8280, Note_on_c, 10, 73, 76
12, 8384, Note_on_c, 10, 73, 0
12, 8400, Note_on_c, 10, 69, 76
12, 8624, Note_on_c, 10, 69, 0
12, 8640, Note_on_c, 10, 64, 76
12, 8864, Note_on_c, 10, 64, 0
12, 8880, Note_on_c, 10, 68, 76
12, 9104, Note_on_c, 10, 68, 0
12, 9120, Note_on_c, 10, 69, 76
12, 9584, Note_on_c, 10, 69, 0
12, 9600, Note_on_c, 10, 69, 76
12, 9824, Note_on_c, 10, 69, 0
12, 9840, Note_on_c, 10, 81, 76
12, 9944, Note_on_c, 10, 81, 0
12, 9960, Note_on_c, 10, 78, 76
12, 10064, Note_on_c, 10, 78, 0
12, 10080, Note_on_c, 10, 79, 76
12, 10544, Note_on_c, 10, 79, 0
12, 10560, Note_on_c, 10, 69, 76
12, 10784, Note_on_c, 10, 69, 0
12, 10800, Note_on_c, 10, 79, 76
12, 10904, Note_on_c, 10, 79, 0
12, 10920, Note_on_c, 10, 76, 76
12, 11024, Note_on_c, 10, 76, 0
12, 11040, Note_on_c, 10, 78, 76
12, 11504, Note_on_c, 10, 78, 0
12, 11520, Note_on_c, 10, 69, 76
12, 11744, Note_on_c, 10, 69, 0
12, 11760, Note_on_c, 10, 76, 76
12, 11864, Note_on_c, 10, 76, 0
12, 11880, Note_on_c, 10, 73, 76
12, 11984, Note_on_c, 10, 73, 0
12, 12000, Note_on_c, 10, 74, 76
12, 12224, Note_on_c, 10, 74, 0
12, 12240, Note_on_c, 10, 73, 76
12, 12344, Note_on_c, 10, 73, 0
12, 12360, Note_on_c, 10, 71, 76
12, 12464, Note_on_c, 10, 71, 0
12, 12480, Note_on_c, 10, 69, 76
12, 12584, Note_on_c, 10, 69, 0
12, 12600, Note_on_c, 10, 71, 76
12, 12704, Note_on_c, 10, 71, 0
12, 12720, Note_on_c, 10, 67, 76
12, 12944, Note_on_c, 10, 67, 0
12, 12960, Note_on_c, 10, 66, 76
12, 12989, Note_on_c, 10, 66, 0
12, 12990, Note_on_c, 10, 67, 76
12, 13019, Note_on_c, 10, 67, 0
12, 13020, Note_on_c, 10, 66, 76
12, 13049, Note_on_c, 10, 66, 0
12, 13050, Note_on_c, 10, 67, 76
12, 13079, Note_on_c, 10, 67, 0
12, 13080, Note_on_c, 10, 66, 76
12, 13109, Note_on_c, 10, 66, 0
12, 13110, Note_on_c, 10, 67, 76
12, 13139, Note_on_c, 10, 67, 0
12, 13140, Note_on_c, 10, 64, 76
12, 13169, Note_on_c, 10, 64, 0
12, 13170, Note_on_c, 10, 66, 76
12, 13191, Note_on_c, 10, 66, 0
12, 13200, Note_on_c, 10, 64, 76
12, 13304, Note_on_c, 10, 64, 0
12, 13320, Note_on_c, 10, 62, 76
12, 13424, Note_on_c, 10, 62, 0
12, 13440, Note_on_c, 10, 69, 76
12, 13664, Note_on_c, 10, 69, 0
12, 13680, Note_on_c, 10, 81, 76
12, 13784, Note_on_c, 10, 81, 0
12, 13800, Note_on_c, 10, 78, 76
12, 13904, Note_on_c, 10, 78, 0
12, 13920, Note_on_c, 10, 79, 76
12, 14384, Note_on_c, 10, 79, 0
12, 14400, Note_on_c, 10, 69, 76
12, 14624, Note_on_c, 10, 69, 0
12, 14640, Note_on_c, 10, 79, 76
12, 14744, Note_on_c, 10, 79, 0
12, 14760, Note_on_c, 10, 76, 76
12, 14864, Note_on_c, 10, 76, 0
12, 14880, Note_on_c, 10, 78, 76
12, 15344, Note_on_c, 10, 78, 0
12, 15360, Note_on_c, 10, 80, 76
12, 15584, Note_on_c, 10, 80, 0
12, 15600, Note_on_c, 10, 83, 76
12, 15704, Note_on_c, 10, 83, 0
12, 15720, Note_on_c, 10, 80, 76
12, 15824, Note_on_c, 10, 80, 0
12, 15840, Note_on_c, 10, 81, 76
12, 16064, Note_on_c, 10, 81, 0
12, 16080, Note_on_c, 10, 80, 76
12, 16184, Note_on_c, 10, 80, 0
12, 16200, Note_on_c, 10, 78, 76
12, 16304, Note_on_c, 10, 78, 0
12, 16320, Note_on_c, 10, 76, 76
12, 16424, Note_on_c, 10, 76, 0
12, 16440, Note_on_c, 10, 78, 76
12, 16544, Note_on_c, 10, 78, 0
12, 16560, Note_on_c, 10, 74, 76
12, 16784, Note_on_c, 10, 74, 0
12, 16800, Note_on_c, 10, 73, 76
12, 17024, Note_on_c, 10, 73, 0
12, 17040, Note_on_c, 10, 78, 76
12, 17144, Note_on_c, 10, 78, 0
12, 17160, Note_on_c, 10, 74, 76
12, 17264, Note_on_c, 10, 74, 0
12, 17280, Note_on_c, 10, 76, 76
12, 17504, Note_on_c, 10, 76, 0
12, 17520, Note_on_c, 10, 74, 76
12, 17624, Note_on_c, 10, 74, 0
12, 17640, Note_on_c, 10, 73, 76
12, 17744, Note_on_c, 10, 73, 0
12, 17760, Note_on_c, 10, 71, 76
12, 17864, Note_on_c, 10, 71, 0
12, 17880, Note_on_c, 10, 73, 76
12, 17984, Note_on_c, 10, 73, 0
12, 18000, Note_on_c, 10, 69, 76
12, 18224, Note_on_c, 10, 69, 0
12, 18240, Note_on_c, 10, 64, 76
12, 18464, Note_on_c, 10, 64, 0
12, 18480, Note_on_c, 10, 68, 76
12, 18704, Note_on_c, 10, 68, 0
12, 18720, Note_on_c, 10, 69, 76
12, 19184, Note_on_c, 10, 69, 0
12, 19200, Note_on_c, 10, 76, 76
12, 19424, Note_on_c, 10, 76, 0
12, 19440, Note_on_c, 10, 64, 76
12, 19544, Note_on_c, 10, 64, 0
12, 19560, Note_on_c, 10, 67, 76
12, 19664, Note_on_c, 10, 67, 0
12, 19680, Note_on_c, 10, 66, 76
12, 20144, Note_on_c, 10, 66, 0
12, 20160, Note_on_c, 10, 74, 76
12, 20384, Note_on_c, 10, 74, 0
12, 20400, Note_on_c, 10, 66, 76
12, 20504, Note_on_c, 10, 66, 0
12, 20520, Note_on_c, 10, 69, 76
12, 20624, Note_on_c, 10, 69, 0
12, 20640, Note_on_c, 10, 67, 76
12, 21104, Note_on_c, 10, 67, 0
12, 21120, Note_on_c, 10, 73, 76
12, 21344, Note_on_c, 10, 73, 0
12, 21360, Note_on_c, 10, 70, 76
12, 21464, Note_on_c, 10, 70, 0
12, 21480, Note_on_c, 10, 73, 76
12, 21584, Note_on_c, 10, 73, 0
12, 21600, Note_on_c, 10, 71, 76
12, 21824, Note_on_c, 10, 71, 0
12, 21840, Note_on_c, 10, 73, 76
12, 21944, Note_on_c, 10, 73, 0
12, 21960, Note_on_c, 10, 74, 76
12, 22064, Note_on_c, 10, 74, 0
12, 22080, Note_on_c, 10, 73, 76
12, 22184, Note_on_c, 10, 73, 0
12, 22200, Note_on_c, 10, 71, 76
12, 22304, Note_on_c, 10, 71, 0
12, 22320, Note_on_c, 10, 79, 76
12, 22544, Note_on_c, 10, 79, 0
12, 22560, Note_on_c, 10, 79, 76
12, 22589, Note_on_c, 10, 79, 0
12, 22590, Note_on_c, 10, 81, 76
12, 22619, Note_on_c, 10, 81, 0
12, 22620, Note_on_c, 10, 79, 76
12, 22649, Note_on_c, 10, 79, 0
12, 22650, Note_on_c, 10, 81, 76
12, 22679, Note_on_c, 10, 81, 0
12, 22680, Note_on_c, 10, 79, 76
12, 22709, Note_on_c, 10, 79, 0
12, 22710, Note_on_c, 10, 81, 76
12, 22739, Note_on_c, 10, 81, 0
12, 22740, Note_on_c, 10, 78, 76
12, 22769, Note_on_c, 10, 78, 0
12, 22770, Note_on_c, 10, 79, 76
12, 22791, Note_on_c, 10, 79, 0
12, 22800, Note_on_c, 10, 78, 76
12, 23024, Note_on_c, 10, 78, 0
12, 23040, Note_on_c, 10, 66, 76
12, 23264, Note_on_c, 10, 66, 0
12, 23280, Note_on_c, 10, 78, 76
12, 23384, Note_on_c, 10, 78, 0
12, 23400, Note_on_c, 10, 74, 76
12, 23504, Note_on_c, 10, 74, 0
12, 23520, Note_on_c, 10, 76, 76
12, 23984, Note_on_c, 10, 76, 0
12, 24000, Note_on_c, 10, 66, 76
12, 24224, Note_on_c, 10, 66, 0
12, 24240, Note_on_c, 10, 76, 76
12, 24344, Note_on_c, 10, 76, 0
12, 24360, Note_on_c, 10, 73, 76
12, 24464, Note_on_c, 10, 73, 0
12, 24480, Note_on_c, 10, 74, 76
12, 24704, Note_on_c, 10, 74, 0
12, 24720, Note_on_c, 10, 71, 76
12, 24824, Note_on_c, 10, 71, 0
12, 24840, Note_on_c, 10, 74, 76
12, 24944, Note_on_c, 10, 74, 0
12, 24960, Note_on_c, 10, 73, 76
12, 25064, Note_on_c, 10, 73, 0
12, 25080, Note_on_c, 10, 70, 76
12, 25184, Note_on_c, 10, 70, 0
12, 25200, Note_on_c, 10, 71, 76
12, 25424, Note_on_c, 10, 71, 0
12, 25440, Note_on_c, 10, 78, 76
12, 25664, Note_on_c, 10, 78, 0
12, 25680, Note_on_c, 10, 79, 76
12, 25784, Note_on_c, 10, 79, 0
12, 25800, Note_on_c, 10, 78, 76
12, 25904, Note_on_c, 10, 78, 0
12, 25920, Note_on_c, 10, 76, 76
12, 26024, Note_on_c, 10, 76, 0
12, 26040, Note_on_c, 10, 74, 76
12, 26144, Note_on_c, 10, 74, 0
12, 26160, Note_on_c, 10, 73, 76
12, 26264, Note_on_c, 10, 73, 0
12, 26280, Note_on_c, 10, 74, 76
12, 26384, Note_on_c, 10, 74, 0
12, 26400, Note_on_c, 10, 71, 76
12, 26864, Note_on_c, 10, 71, 0
12, 26880, Note_on_c, 10, 71, 76
12, 27104, Note_on_c, 10, 71, 0
12, 27120, Note_on_c, 10, 83, 76
12, 27224, Note_on_c, 10, 83, 0
12, 27240, Note_on_c, 10, 79, 76
12, 27344, Note_on_c, 10, 79, 0
12, 27360, Note_on_c, 10, 81, 76
12, 27824, Note_on_c, 10, 81, 0
12, 27840, Note_on_c, 10, 71, 76
12, 28064, Note_on_c, 10, 71, 0
12, 28080, Note_on_c, 10, 81, 76
12, 28184, Note_on_c, 10, 81, 0
12, 28200, Note_on_c, 10, 78, 76
12, 28304, Note_on_c, 10, 78, 0
12, 28320, Note_on_c, 10, 79, 76
12, 28784, Note_on_c, 10, 79, 0
12, 28800, Note_on_c, 10, 73, 76
12, 29024, Note_on_c, 10, 73, 0
12, 29040, Note_on_c, 10, 79, 76
12, 29144, Note_on_c, 10, 79, 0
12, 29160, Note_on_c, 10, 76, 76
12, 29264, Note_on_c, 10, 76, 0
12, 29280, Note_on_c, 10, 78, 76
12, 29504, Note_on_c, 10, 78, 0
12, 29520, Note_on_c, 10, 76, 76
12, 29624, Note_on_c, 10, 76, 0
12, 29640, Note_on_c, 10, 74, 76
12, 29744, Note_on_c, 10, 74, 0
12, 29760, Note_on_c, 10, 76, 76
12, 29864, Note_on_c, 10, 76, 0
12, 29880, Note_on_c, 10, 73, 76
12, 29984, Note_on_c, 10, 73, 0
12, 30000, Note_on_c, 10, 74, 76
12, 30224, Note_on_c, 10, 74, 0
12, 30240, Note_on_c, 10, 73, 76
12, 30269, Note_on_c, 10, 73, 0
12, 30270, Note_on_c, 10, 74, 76
12, 30299, Note_on_c, 10, 74, 0
12, 30300, Note_on_c, 10, 73, 76
12, 30329, Note_on_c, 10, 73, 0
12, 30330, Note_on_c, 10, 74, 76
12, 30359, Note_on_c, 10, 74, 0
12, 30360, Note_on_c, 10, 73, 76
12, 30389, Note_on_c, 10, 73, 0
12, 30390, Note_on_c, 10, 74, 76
12, 30419, Note_on_c, 10, 74, 0
12, 30420, Note_on_c, 10, 71, 76
12, 30449, Note_on_c, 10, 71, 0
12, 30450, Note_on_c, 10, 73, 76
12, 30471, Note_on_c, 10, 73, 0
12, 30480, Note_on_c, 10, 71, 76
12, 30584, Note_on_c, 10, 71, 0
12, 30600, Note_on_c, 10, 69, 76
12, 30704, Note_on_c, 10, 69, 0
12, 30720, Note_on_c, 10, 81, 76
12, 30944, Note_on_c, 10, 81, 0
12, 30960, Note_on_c, 10, 69, 76
12, 31064, Note_on_c, 10, 69, 0
12, 31080, Note_on_c, 10, 72, 76
12, 31184, Note_on_c, 10, 72, 0
12, 31200, Note_on_c, 10, 71, 76
12, 31664, Note_on_c, 10, 71, 0
12, 31680, Note_on_c, 10, 79, 76
12, 31904, Note_on_c, 10, 79, 0
12, 31920, Note_on_c, 10, 71, 76
12, 32024, Note_on_c, 10, 71, 0
12, 32040, Note_on_c, 10, 74, 76
12, 32144, Note_on_c, 10, 74, 0
12, 32160, Note_on_c, 10, 73, 76
12, 32384, Note_on_c, 10, 73, 0
12, 32400, Note_on_c, 10, 76, 76
12, 32504, Note_on_c, 10, 76, 0
12, 32520, Note_on_c, 10, 73, 76
12, 32624, Note_on_c, 10, 73, 0
12, 32640, Note_on_c, 10, 69, 76
12, 32864, Note_on_c, 10, 69, 0
12, 32880, Note_on_c, 10, 79, 76
12, 32984, Note_on_c, 10, 79, 0
12, 33000, Note_on_c, 10, 76, 76
12, 33104, Note_on_c, 10, 76, 0
12, 33120, Note_on_c, 10, 78, 76
12, 33224, Note_on_c, 10, 78, 0
12, 33240, Note_on_c, 10, 76, 76
12, 33344, Note_on_c, 10, 76, 0
12, 33360, Note_on_c, 10, 74, 76
12, 33464, Note_on_c, 10, 74, 0
12, 33480, Note_on_c, 10, 76, 76
12, 33584, Note_on_c, 10, 76, 0
12, 33600, Note_on_c, 10, 69, 76
12, 33824, Note_on_c, 10, 69, 0
12, 33840, Note_on_c, 10, 73, 76
12, 34064, Note_on_c, 10, 73, 0
12, 34080, Note_on_c, 10, 74, 76
12, 34544, Note_on_c, 10, 74, 0
12, 34560, Note_on_c, 10, 76, 76
12, 34784, Note_on_c, 10, 76, 0
12, 34800, Note_on_c, 10, 64, 76
12, 34904, Note_on_c, 10, 64, 0
12, 34920, Note_on_c, 10, 67, 76
12, 35024, Note_on_c, 10, 67, 0
12, 35040, Note_on_c, 10, 66, 76
12, 35504, Note_on_c, 10, 66, 0
12, 35520, Note_on_c, 10, 74, 76
12, 35744, Note_on_c, 10, 74, 0
12, 35760, Note_on_c, 10, 66, 76
12, 35864, Note_on_c, 10, 66, 0
12, 35880, Note_on_c, 10, 69, 76
12, 35984, Note_on_c, 10, 69, 0
12, 36000, Note_on_c, 10, 67, 76
12, 36464, Note_on_c, 10, 67, 0
12, 36480, Note_on_c, 10, 73, 76
12, 36704, Note_on_c, 10, 73, 0
12, 36720, Note_on_c, 10, 70, 76
12, 36824, Note_on_c, 10, 70, 0
12, 36840, Note_on_c, 10, 73, 76
12, 36944, Note_on_c, 10, 73, 0
12, 36960, Note_on_c, 10, 71, 76
12, 37184, Note_on_c, 10, 71, 0
12, 37200, Note_on_c, 10, 73, 76
12, 37304, Note_on_c, 10, 73, 0
12, 37320, Note_on_c, 10, 74, 76
12, 37424, Note_on_c, 10, 74, 0
12, 37440, Note_on_c, 10, 73, 76
12, 37544, Note_on_c, 10, 73, 0
12, 37560, Note_on_c, 10, 71, 76
12, 37664, Note_on_c, 10, 71, 0
12, 37680, Note_on_c, 10, 79, 76
12, 37904, Note_on_c, 10, 79, 0
12, 37920, Note_on_c, 10, 79, 76
12, 37949, Note_on_c, 10, 79, 0
12, 37950, Note_on_c, 10, 81, 76
12, 37979, Note_on_c, 10, 81, 0
12, 37980, Note_on_c, 10, 79, 76
12, 38009, Note_on_c, 10, 79, 0
12, 38010, Note_on_c, 10, 81, 76
12, 38039, Note_on_c, 10, 81, 0
12, 38040, Note_on_c, 10, 79, 76
12, 38069, Note_on_c, 10, 79, 0
12, 38070, Note_on_c, 10, 81, 76
12, 38099, Note_on_c, 10, 81, 0
12, 38100, Note_on_c, 10, 78, 76
12, 38129, Note_on_c, 10, 78, 0
12, 38130, Note_on_c, 10, 79, 76
12, 38151, Note_on_c, 10, 79, 0
12, 38160, Note_on_c, 10, 78, 76
12, 38384, Note_on_c, 10, 78, 0
12, 38400, Note_on_c, 10, 66, 76
12, 38624, Note_on_c, 10, 66, 0
12, 38640, Note_on_c, 10, 78, 76
12, 38744, Note_on_c, 10, 78, 0
12, 38760, Note_on_c, 10, 74, 76
12, 38864, Note_on_c, 10, 74, 0
12, 38880, Note_on_c, 10, 76, 76
12, 39344, Note_on_c, 10, 76, 0
12, 39360, Note_on_c, 10, 66, 76
12, 39584, Note_on_c, 10, 66, 0
12, 39600, Note_on_c, 10, 76, 76
12, 39704, Note_on_c, 10, 76, 0
12, 39720, Note_on_c, 10, 73, 76
12, 39824, Note_on_c, 10, 73, 0
12, 39840, Note_on_c, 10, 74, 76
12, 40064, Note_on_c, 10, 74, 0
12, 40080, Note_on_c, 10, 71, 76
12, 40184, Note_on_c, 10, 71, 0
12, 40200, Note_on_c, 10, 74, 76
12, 40304, Note_on_c, 10, 74, 0
12, 40320, Note_on_c, 10, 73, 76
12, 40424, Note_on_c, 10, 73, 0
12, 40440, Note_on_c, 10, 70, 76
12, 40544, Note_on_c, 10, 70, 0
12, 40560, Note_on_c, 10, 71, 76
12, 40784, Note_on_c, 10, 71, 0
12, 40800, Note_on_c, 10, 78, 76
12, 41024, Note_on_c, 10, 78, 0
12, 41040, Note_on_c, 10, 79, 76
12, 41144, Note_on_c, 10, 79, 0
12, 41160, Note_on_c, 10, 78, 76
12, 41264, Note_on_c, 10, 78, 0
12, 41280, Note_on_c, 10, 76, 76
12, 41384, Note_on_c, 10, 76, 0
12, 41400, Note_on_c, 10, 74, 76
12, 41504, Note_on_c, 10, 74, 0
12, 41520, Note_on_c, 10, 73, 76
12, 41624, Note_on_c, 10, 73, 0
12, 41640, Note_on_c, 10, 74, 76
12, 41744, Note_on_c, 10, 74, 0
12, 41760, Note_on_c, 10, 71, 76
12, 42224, Note_on_c, 10, 71, 0
12, 42240, Note_on_c, 10, 71, 76
12, 42464, Note_on_c, 10, 71, 0
12, 42480, Note_on_c, 10, 83, 76
12, 42584, Note_on_c, 10, 83, 0
12, 42600, Note_on_c, 10, 79, 76
12, 42704, Note_on_c, 10, 79, 0
12, 42720, Note_on_c, 10, 81, 76
12, 43184, Note_on_c, 10, 81, 0
12, 43200, Note_on_c, 10, 71, 76
12, 43424, Note_on_c, 10, 71, 0
12, 43440, Note_on_c, 10, 81, 76
12, 43544, Note_on_c, 10, 81, 0
12, 43560, Note_on_c, 10, 78, 76
12, 43664, Note_on_c, 10, 78, 0
12, 43680, Note_on_c, 10, 79, 76
12, 44144, Note_on_c, 10, 79, 0
12, 44160, Note_on_c, 10, 73, 76
12, 44384, Note_on_c, 10, 73, 0
12, 44400, Note_on_c, 10, 79, 76
12, 44504, Note_on_c, 10, 79, 0
12, 44520, Note_on_c, 10, 76, 76
12, 44624, Note_on_c, 10, 76, 0
12, 44640, Note_on_c, 10, 78, 76
12, 44864, Note_on_c, 10, 78, 0
12, 44880, Note_on_c, 10, 76, 76
12, 44984, Note_on_c, 10, 76, 0
12, 45000, Note_on_c, 10, 74, 76
12, 45104, Note_on_c, 10, 74, 0
12, 45120, Note_on_c, 10, 76, 76
12, 45224, Note_on_c, 10, 76, 0
12, 45240, Note_on_c, 10, 73, 76
12, 45344, Note_on_c, 10, 73, 0
12, 45360, Note_on_c, 10, 74, 76
12, 45584, Note_on_c, 10, 74, 0
12, 45600, Note_on_c, 10, 73, 76
12, 45629, Note_on_c, 10, 73, 0
12, 45630, Note_on_c, 10, 74, 76
12, 45659, Note_on_c, 10, 74, 0
12, 45660, Note_on_c, 10, 73, 76
12, 45689, Note_on_c, 10, 73, 0
12, 45690, Note_on_c, 10, 74, 76
12, 45719, Note_on_c, 10, 74, 0
12, 45720, Note_on_c, 10, 73, 76
12, 45749, Note_on_c, 10, 73, 0
12, 45750, Note_on_c, 10, 74, 76
12, 45779, Note_on_c, 10, 74, 0
12, 45780, Note_on_c, 10, 71, 76
12, 45809, Note_on_c, 10, 71, 0
12, 45810, Note_on_c, 10, 73, 76
12, 45831, Note_on_c, 10, 73, 0
12, 45840, Note_on_c, 10, 71, 76
12, 45944, Note_on_c, 10, 71, 0
12, 45960, Note_on_c, 10, 69, 76
12, 46064, Note_on_c, 10, 69, 0
12, 46080, Note_on_c, 10, 81, 76
12, 46304, Note_on_c, 10, 81, 0
12, 46320, Note_on_c, 10, 69, 76
12, 46424, Note_on_c, 10, 69, 0
12, 46440, Note_on_c, 10, 72, 76
12, 46544, Note_on_c, 10, 72, 0
12, 46560, Note_on_c, 10, 71, 76
12, 47024, Note_on_c, 10, 71, 0
12, 47040, Note_on_c, 10, 79, 76
12, 47264, Note_on_c, 10, 79, 0
12, 47280, Note_on_c, 10, 71, 76
12, 47384, Note_on_c, 10, 71, 0
12, 47400, Note_on_c, 10, 74, 76
12, 47504, Note_on_c, 10, 74, 0
12, 47520, Note_on_c, 10, 73, 76
12, 47744, Note_on_c, 10, 73, 0
12, 47760, Note_on_c, 10, 76, 76
12, 47864, Note_on_c, 10, 76, 0
12, 47880, Note_on_c, 10, 73, 76
12, 47984, Note_on_c, 10, 73, 0
12, 48000, Note_on_c, 10, 69, 76
12, 48224, Note_on_c, 10, 69, 0
12, 48240, Note_on_c, 10, 79, 76
12, 48344, Note_on_c, 10, 79, 0
12, 48360, Note_on_c, 10, 76, 76
12, 48464, Note_on_c, 10, 76, 0
12, 48480, Note_on_c, 10, 78, 76
12, 48584, Note_on_c, 10, 78, 0
12, 48600, Note_on_c, 10, 76, 76
12, 48704, Note_on_c, 10, 76, 0
12, 48720, Note_on_c, 10, 74, 76
12, 48824, Note_on_c, 10, 74, 0
12, 48840, Note_on_c, 10, 76, 76
12, 48944, Note_on_c, 10, 76, 0
12, 48960, Note_on_c, 10, 69, 76
12, 49184, Note_on_c, 10, 69, 0
12, 49200, Note_on_c, 10, 73, 76
12, 49424, Note_on_c, 10, 73, 0
12, 49440, Note_on_c, 10, 74, 76
12, 49919, Note_on_c, 10, 74, 0
12, 50160, Note_on_c, 10, 74, 76
12, 50264, Note_on_c, 10, 74, 0
12, 50280, Note_on_c, 10, 73, 76
12, 50384, Note_on_c, 10, 73, 0
12, 50400, Note_on_c, 10, 74, 76
12, 50624, Note_on_c, 10, 74, 0
12, 50640, Note_on_c, 10, 66, 76
12, 50744, Note_on_c, 10, 66, 0
12, 50760, Note_on_c, 10, 64, 76
12, 50864, Note_on_c, 10, 64, 0
12, 50880, Note_on_c, 10, 66, 76
12, 51104, Note_on_c, 10, 66, 0
12, 51120, Note_on_c, 10, 69, 76
12, 51224, Note_on_c, 10, 69, 0
12, 51240, Note_on_c, 10, 67, 76
12, 51344, Note_on_c, 10, 67, 0
12, 51360, Note_on_c, 10, 69, 76
12, 51584, Note_on_c, 10, 69, 0
12, 51600, Note_on_c, 10, 62, 76
12, 52064, Note_on_c, 10, 62, 0
12, 52080, Note_on_c, 10, 74, 76
12, 52184, Note_on_c, 10, 74, 0
12, 52200, Note_on_c, 10, 76, 76
12, 52304, Note_on_c, 10, 76, 0
12, 52320, Note_on_c, 10, 78, 76
12, 52424, Note_on_c, 10, 78, 0
12, 52440, Note_on_c, 10, 74, 76
12, 52544, Note_on_c, 10, 74, 0
12, 52560, Note_on_c, 10, 76, 76
12, 52784, Note_on_c, 10, 76, 0
12, 52800, Note_on_c, 10, 76, 76
12, 53024, Note_on_c, 10, 76, 0
12, 53040, Note_on_c, 10, 76, 76
12, 53144, Note_on_c, 10, 76, 0
12, 53160, Note_on_c, 10, 78, 76
12, 53264, Note_on_c, 10, 78, 0
12, 53280, Note_on_c, 10, 79, 76
12, 53384, Note_on_c, 10, 79, 0
12, 53400, Note_on_c, 10, 76, 76
12, 53504, Note_on_c, 10, 76, 0
12, 53520, Note_on_c, 10, 78, 76
12, 53744, Note_on_c, 10, 78, 0
12, 53760, Note_on_c, 10, 74, 76
12, 53984, Note_on_c, 10, 74, 0
12, 54000, Note_on_c, 10, 74, 76
12, 54104, Note_on_c, 10, 74, 0
12, 54120, Note_on_c, 10, 73, 76
12, 54224, Note_on_c, 10, 73, 0
12, 54240, Note_on_c, 10, 74, 76
12, 54464, Note_on_c, 10, 74, 0
12, 54480, Note_on_c, 10, 66, 76
12, 54584, Note_on_c, 10, 66, 0
12, 54600, Note_on_c, 10, 64, 76
12, 54704, Note_on_c, 10, 64, 0
12, 54720, Note_on_c, 10, 66, 76
12, 54944, Note_on_c, 10, 66, 0
12, 54960, Note_on_c, 10, 69, 76
12, 55064, Note_on_c, 10, 69, 0
12, 55080, Note_on_c, 10, 67, 76
12, 55184, Note_on_c, 10, 67, 0
12, 55200, Note_on_c, 10, 69, 76
12, 55424, Note_on_c, 10, 69, 0
12, 55440, Note_on_c, 10, 62, 76
12, 55904, Note_on_c, 10, 62, 0
12, 55920, Note_on_c, 10, 78, 76
12, 56039, Note_on_c, 10, 78, 0
12, 56040, Note_on_c, 10, 76, 76
12, 56159, Note_on_c, 10, 76, 0
12, 56160, Note_on_c, 10, 74, 76
12, 56279, Note_on_c, 10, 74, 0
12, 56280, Note_on_c, 10, 73, 76
12, 56384, Note_on_c, 10, 73, 0
12, 56400, Note_on_c, 10, 71, 76
12, 56624, Note_on_c, 10, 71, 0
12, 56640, Note_on_c, 10, 71, 76
12, 56864, Note_on_c, 10, 71, 0
12, 56880, Note_on_c, 10, 71, 76
12, 56984, Note_on_c, 10, 71, 0
12, 57000, Note_on_c, 10, 73, 76
12, 57104, Note_on_c, 10, 73, 0
12, 57120, Note_on_c, 10, 74, 76
12, 57224, Note_on_c, 10, 74, 0
12, 57240, Note_on_c, 10, 71, 76
12, 57344, Note_on_c, 10, 71, 0
12, 57360, Note_on_c, 10, 76, 76
12, 57584, Note_on_c, 10, 76, 0
12, 57600, Note_on_c, 10, 64, 76
12, 57824, Note_on_c, 10, 64, 0
12, 57840, Note_on_c, 10, 76, 76
12, 57959, Note_on_c, 10, 76, 0
12, 57960, Note_on_c, 10, 74, 76
12, 58079, Note_on_c, 10, 74, 0
12, 58080, Note_on_c, 10, 73, 76
12, 58199, Note_on_c, 10, 73, 0
12, 58200, Note_on_c, 10, 71, 76
12, 58304, Note_on_c, 10, 71, 0
12, 58320, Note_on_c, 10, 69, 76
12, 58544, Note_on_c, 10, 69, 0
12, 58560, Note_on_c, 10, 69, 76
12, 58784, Note_on_c, 10, 69, 0
12, 58800, Note_on_c, 10, 69, 76
12, 58904, Note_on_c, 10, 69, 0
12, 58920, Note_on_c, 10, 71, 76
12, 59024, Note_on_c, 10, 71, 0
12, 59040, Note_on_c, 10, 73, 76
12, 59144, Note_on_c, 10, 73, 0
12, 59160, Note_on_c, 10, 69, 76
12, 59264, Note_on_c, 10, 69, 0
12, 59280, Note_on_c, 10, 74, 76
12, 59504, Note_on_c, 10, 74, 0
12, 59520, Note_on_c, 10, 62, 76
12, 59744, Note_on_c, 10, 62, 0
12, 59760, Note_on_c, 10, 74, 76
12, 59864, Note_on_c, 10, 74, 0
12, 59880, Note_on_c, 10, 73, 76
12, 59984, Note_on_c, 10, 73, 0
12, 60000, Note_on_c, 10, 74, 76
12, 60224, Note_on_c, 10, 74, 0
12, 60240, Note_on_c, 10, 68, 76
12, 60344, Note_on_c, 10, 68, 0
12, 60360, Note_on_c, 10, 66, 76
12, 60464, Note_on_c, 10, 66, 0
12, 60480, Note_on_c, 10, 68, 76
12, 60704, Note_on_c, 10, 68, 0
12, 60720, Note_on_c, 10, 71, 76
12, 60824, Note_on_c, 10, 71, 0
12, 60840, Note_on_c, 10, 69, 76
12, 60944, Note_on_c, 10, 69, 0
12, 60960, Note_on_c, 10, 71, 76
12, 61184, Note_on_c, 10, 71, 0
12, 61200, Note_on_c, 10, 80, 76
12, 61664, Note_on_c, 10, 80, 0
12, 61680, Note_on_c, 10, 71, 76
12, 61799, Note_on_c, 10, 71, 0
12, 61800, Note_on_c, 10, 69, 76
12, 61919, Note_on_c, 10, 69, 0
12, 61920, Note_on_c, 10, 71, 76
12, 62039, Note_on_c, 10, 71, 0
12, 62040, Note_on_c, 10, 74, 76
12, 62144, Note_on_c, 10, 74, 0
12, 62160, Note_on_c, 10, 73, 76
12, 62279, Note_on_c, 10, 73, 0
12, 62280, Note_on_c, 10, 71, 76
12, 62399, Note_on_c, 10, 71, 0
12, 62400, Note_on_c, 10, 73, 76
12, 62519, Note_on_c, 10, 73, 0
12, 62520, Note_on_c, 10, 76, 76
12, 62624, Note_on_c, 10, 76, 0
12, 62640, Note_on_c, 10, 75, 76
12, 62759, Note_on_c, 10, 75, 0
12, 62760, Note_on_c, 10, 73, 76
12, 62879, Note_on_c, 10, 73, 0
12, 62880, Note_on_c, 10, 75, 76
12, 62999, Note_on_c, 10, 75, 0
12, 63000, Note_on_c, 10, 78, 76
12, 63104, Note_on_c, 10, 78, 0
12, 63120, Note_on_c, 10, 83, 76
12, 63239, Note_on_c, 10, 83, 0
12, 63240, Note_on_c, 10, 81, 76
12, 63359, Note_on_c, 10, 81, 0
12, 63360, Note_on_c, 10, 80, 76
12, 63479, Note_on_c, 10, 80, 0
12, 63480, Note_on_c, 10, 78, 76
12, 63584, Note_on_c, 10, 78, 0
12, 63600, Note_on_c, 10, 76, 76
12, 63824, Note_on_c, 10, 76, 0
12, 63840, Note_on_c, 10, 81, 76
12, 64064, Note_on_c, 10, 81, 0
12, 64080, Note_on_c, 10, 76, 76
12, 64304, Note_on_c, 10, 76, 0
12, 64320, Note_on_c, 10, 81, 76
12, 64544, Note_on_c, 10, 81, 0
12, 64560, Note_on_c, 10, 73, 76
12, 64589, Note_on_c, 10, 73, 0
12, 64590, Note_on_c, 10, 74, 76
12, 64619, Note_on_c, 10, 74, 0
12, 64620, Note_on_c, 10, 73, 76
12, 64649, Note_on_c, 10, 73, 0
12, 64650, Note_on_c, 10, 74, 76
12, 64679, Note_on_c, 10, 74, 0
12, 64680, Note_on_c, 10, 73, 76
12, 64709, Note_on_c, 10, 73, 0
12, 64710, Note_on_c, 10, 74, 76
12, 64739, Note_on_c, 10, 74, 0
12, 64740, Note_on_c, 10, 71, 76
12, 64769, Note_on_c, 10, 71, 0
12, 64770, Note_on_c, 10, 73, 76
12, 64791, Note_on_c, 10, 73, 0
12, 64800, Note_on_c, 10, 71, 76
12, 64904, Note_on_c, 10, 71, 0
12, 64920, Note_on_c, 10, 73, 76
12, 65024, Note_on_c, 10, 73, 0
12, 65040, Note_on_c, 10, 69, 76
12, 65504, Note_on_c, 10, 69, 0
12, 65520, Note_on_c, 10, 74, 76
12, 65624, Note_on_c, 10, 74, 0
12, 65640, Note_on_c, 10, 73, 76
12, 65744, Note_on_c, 10, 73, 0
12, 65760, Note_on_c, 10, 74, 76
12, 65984, Note_on_c, 10, 74, 0
12, 66000, Note_on_c, 10, 66, 76
12, 66104, Note_on_c, 10, 66, 0
12, 66120, Note_on_c, 10, 64, 76
12, 66224, Note_on_c, 10, 64, 0
12, 66240, Note_on_c, 10, 66, 76
12, 66464, Note_on_c, 10, 66, 0
12, 66480, Note_on_c, 10, 69, 76
12, 66584, Note_on_c, 10, 69, 0
12, 66600, Note_on_c, 10, 67, 76
12, 66704, Note_on_c, 10, 67, 0
12, 66720, Note_on_c, 10, 69, 76
12, 66944, Note_on_c, 10, 69, 0
12, 66960, Note_on_c, 10, 62, 76
12, 67424, Note_on_c, 10, 62, 0
12, 67440, Note_on_c, 10, 74, 76
12, 67544, Note_on_c, 10, 74, 0
12, 67560, Note_on_c, 10, 76, 76
12, 67664, Note_on_c, 10, 76, 0
12, 67680, Note_on_c, 10, 78, 76
12, 67784, Note_on_c, 10, 78, 0
12, 67800, Note_on_c, 10, 74, 76
12, 67904, Note_on_c, 10, 74, 0
12, 67920, Note_on_c, 10, 76, 76
12, 68144, Note_on_c, 10, 76, 0
12, 68160, Note_on_c, 10, 76, 76
12, 68384, Note_on_c, 10, 76, 0
12, 68400, Note_on_c, 10, 76, 76
12, 68504, Note_on_c, 10, 76, 0
12, 68520, Note_on_c, 10, 78, 76
12, 68624, Note_on_c, 10, 78, 0
12, 68640, Note_on_c, 10, 79, 76
12, 68744, Note_on_c, 10, 79, 0
12, 68760, Note_on_c, 10, 76, 76
12, 68864, Note_on_c, 10, 76, 0
12, 68880, Note_on_c, 10, 78, 76
12, 69104, Note_on_c, 10, 78, 0
12, 69120, Note_on_c, 10, 74, 76
12, 69344, Note_on_c, 10, 74, 0
12, 69360, Note_on_c, 10, 74, 76
12, 69464, Note_on_c, 10, 74, 0
12, 69480, Note_on_c, 10, 73, 76
12, 69584, Note_on_c, 10, 73, 0
12, 69600, Note_on_c, 10, 74, 76
12, 69824, Note_on_c, 10, 74, 0
12, 69840, Note_on_c, 10, 66, 76
12, 69944, Note_on_c, 10, 66, 0
12, 69960, Note_on_c, 10, 64, 76
12, 70064, Note_on_c, 10, 64, 0
12, 70080, Note_on_c, 10, 66, 76
12, 70304, Note_on_c, 10, 66, 0
12, 70320, Note_on_c, 10, 69, 76
12, 70424, Note_on_c, 10, 69, 0
12, 70440, Note_on_c, 10, 67, 76
12, 70544, Note_on_c, 10, 67, 0
12, 70560, Note_on_c, 10, 69, 76
12, 70784, Note_on_c, 10, 69, 0
12, 70800, Note_on_c, 10, 62, 76
12, 71264, Note_on_c, 10, 62, 0
12, 71280, Note_on_c, 10, 78, 76
12, 71399, Note_on_c, 10, 78, 0
12, 71400, Note_on_c, 10, 76, 76
12, 71519, Note_on_c, 10, 76, 0
12, 71520, Note_on_c, 10, 74, 76
12, 71639, Note_on_c, 10, 74, 0
12, 71640, Note_on_c, 10, 73, 76
12, 71744, Note_on_c, 10, 73, 0
12, 71760, Note_on_c, 10, 71, 76
12, 71984, Note_on_c, 10, 71, 0
12, 72000, Note_on_c, 10, 71, 76
12, 72224, Note_on_c, 10, 71, 0
12, 72240, Note_on_c, 10, 71, 76
12, 72344, Note_on_c, 10, 71, 0
12, 72360, Note_on_c, 10, 73, 76
12, 72464, Note_on_c, 10, 73, 0
12, 72480, Note_on_c, 10, 74, 76
12, 72584, Note_on_c, 10, 74, 0
12, 72600, Note_on_c, 10, 71, 76
12, 72704, Note_on_c, 10, 71, 0
12, 72720, Note_on_c, 10, 76, 76
12, 72944, Note_on_c, 10, 76, 0
12, 72960, Note_on_c, 10, 64, 76
12, 73184, Note_on_c, 10, 64, 0
12, 73200, Note_on_c, 10, 76, 76
12, 73319, Note_on_c, 10, 76, 0
12, 73320, Note_on_c, 10, 74, 76
12, 73439, Note_on_c, 10, 74, 0
12, 73440, Note_on_c, 10, 73, 76
12, 73559, Note_on_c, 10, 73, 0
12, 73560, Note_on_c, 10, 71, 76
12, 73664, Note_on_c, 10, 71, 0
12, 73680, Note_on_c, 10, 69, 76
12, 73904, Note_on_c, 10, 69, 0
12, 73920, Note_on_c, 10, 69, 76
12, 74144, Note_on_c, 10, 69, 0
12, 74160, Note_on_c, 10, 69, 76
12, 74264, Note_on_c, 10, 69, 0
12, 74280, Note_on_c, 10, 71, 76
12, 74384, Note_on_c, 10, 71, 0
12, 74400, Note_on_c, 10, 73, 76
12, 74504, Note_on_c, 10, 73, 0
12, 74520, Note_on_c, 10, 69, 76
12, 74624, Note_on_c, 10, 69, 0
12, 74640, Note_on_c, 10, 74, 76
12, 74864, Note_on_c, 10, 74, 0
12, 74880, Note_on_c, 10, 62, 76
12, 75104, Note_on_c, 10, 62, 0
12, 75120, Note_on_c, 10, 74, 76
12, 75224, Note_on_c, 10, 74, 0
12, 75240, Note_on_c, 10, 73, 76
12, 75344, Note_on_c, 10, 73, 0
12, 75360, Note_on_c, 10, 74, 76
12, 75584, Note_on_c, 10, 74, 0
12, 75600, Note_on_c, 10, 68, 76
12, 75704, Note_on_c, 10, 68, 0
12, 75720, Note_on_c, 10, 66, 76
12, 75824, Note_on_c, 10, 66, 0
12, 75840, Note_on_c, 10, 68, 76
12, 76064, Note_on_c, 10, 68, 0
12, 76080, Note_on_c, 10, 71, 76
12, 76184, Note_on_c, 10, 71, 0
12, 76200, Note_on_c, 10, 69, 76
12, 76304, Note_on_c, 10, 69, 0
12, 76320, Note_on_c, 10, 71, 76
12, 76544, Note_on_c, 10, 71, 0
12, 76560, Note_on_c, 10, 80, 76
12, 77024, Note_on_c, 10, 80, 0
12, 77040, Note_on_c, 10, 71, 76
12, 77159, Note_on_c, 10, 71, 0
12, 77160, Note_on_c, 10, 69, 76
12, 77279, Note_on_c, 10, 69, 0
12, 77280, Note_on_c, 10, 71, 76
12, 77399, Note_on_c, 10, 71, 0
12, 77400, Note_on_c, 10, 74, 76
12, 77504, Note_on_c, 10, 74, 0
12, 77520, Note_on_c, 10, 73, 76
12, 77639, Note_on_c, 10, 73, 0
12, 77640, Note_on_c, 10, 71, 76
12, 77759, Note_on_c, 10, 71, 0
12, 77760, Note_on_c, 10, 73, 76
12, 77879, Note_on_c, 10, 73, 0
12, 77880, Note_on_c, 10, 76, 76
12, 77984, Note_on_c, 10, 76, 0
12, 78000, Note_on_c, 10, 75, 76
12, 78119, Note_on_c, 10, 75, 0
12, 78120, Note_on_c, 10, 73, 76
12, 78239, Note_on_c, 10, 73, 0
12, 78240, Note_on_c, 10, 75, 76
12, 78359, Note_on_c, 10, 75, 0
12, 78360, Note_on_c, 10, 78, 76
12, 78464, Note_on_c, 10, 78, 0
12, 78480, Note_on_c, 10, 83, 76
12, 78599, Note_on_c, 10, 83, 0
12, 78600, Note_on_c, 10, 81, 76
12, 78719, Note_on_c, 10, 81, 0
12, 78720, Note_on_c, 10, 80, 76
12, 78839, Note_on_c, 10, 80, 0
12, 78840, Note_on_c, 10, 78, 76
12, 78944, Note_on_c, 10, 78, 0
12, 78960, Note_on_c, 10, 76, 76
12, 79184, Note_on_c, 10, 76, 0
12, 79200, Note_on_c, 10, 81, 76
12, 79424, Note_on_c, 10, 81, 0
12, 79440, Note_on_c, 10, 76, 76
12, 79664, Note_on_c, 10, 76, 0
12, 79680, Note_on_c, 10, 81, 76
12, 79904, Note_on_c, 10, 81, 0
12, 79920, Note_on_c, 10, 73, 76
12, 79949, Note_on_c, 10, 73, 0
12, 79950, Note_on_c, 10, 74, 76
12, 79979, Note_on_c, 10, 74, 0
12, 79980, Note_on_c, 10, 73, 76
12, 80009, Note_on_c, 10, 73, 0
12, 80010, Note_on_c, 10, 74, 76
12, 80039, Note_on_c, 10, 74, 0
12, 80040, Note_on_c, 10, 73, 76
12, 80069, Note_on_c, 10, 73, 0
12, 80070, Note_on_c, 10, 74, 76
12, 80099, Note_on_c, 10, 74, 0
12, 80100, Note_on_c, 10, 71, 76
12, 80129, Note_on_c, 10, 71, 0
12, 80130, Note_on_c, 10, 73, 76
12, 80151, Note_on_c, 10, 73, 0
12, 80160, Note_on_c, 10, 71, 76
12, 80264, Note_on_c, 10, 71, 0
12, 80280, Note_on_c, 10, 73, 76
12, 80384, Note_on_c, 10, 73, 0
12, 80400, Note_on_c, 10, 69, 76
12, 80864, Note_on_c, 10, 69, 0
12, 80880, Note_on_c, 10, 69, 76
12, 80984, Note_on_c, 10, 69, 0
12, 81000, Note_on_c, 10, 68, 76
12, 81104, Note_on_c, 10, 68, 0
12, 81120, Note_on_c, 10, 69, 76
12, 81344, Note_on_c, 10, 69, 0
12, 81360, Note_on_c, 10, 61, 76
12, 81464, Note_on_c, 10, 61, 0
12, 81480, Note_on_c, 10, 59, 76
12, 81584, Note_on_c, 10, 59, 0
12, 81600, Note_on_c, 10, 61, 76
12, 81824, Note_on_c, 10, 61, 0
12, 81840, Note_on_c, 10, 64, 76
12, 81944, Note_on_c, 10, 64, 0
12, 81960, Note_on_c, 10, 62, 76
12, 82064, Note_on_c, 10, 62, 0
12, 82080, Note_on_c, 10, 64, 76
12, 82304, Note_on_c, 10, 64, 0
12, 82320, Note_on_c, 10, 61, 76
12, 82784, Note_on_c, 10, 61, 0
12, 82800, Note_on_c, 10, 79, 76
12, 83024, Note_on_c, 10, 79, 0
12, 83040, Note_on_c, 10, 78, 76
12, 83504, Note_on_c, 10, 78, 0
12, 83520, Note_on_c, 10, 76, 76
12, 83984, Note_on_c, 10, 76, 0
12, 84000, Note_on_c, 10, 74, 76
12, 84239, Note_on_c, 10, 74, 0
12, 84240, Note_on_c, 10, 74, 76
12, 84269, Note_on_c, 10, 74, 0
12, 84270, Note_on_c, 10, 76, 76
12, 84299, Note_on_c, 10, 76, 0
12, 84300, Note_on_c, 10, 74, 76
12, 84329, Note_on_c, 10, 74, 0
12, 84330, Note_on_c, 10, 76, 76
12, 84359, Note_on_c, 10, 76, 0
12, 84360, Note_on_c, 10, 74, 76
12, 84389, Note_on_c, 10, 74, 0
12, 84390, Note_on_c, 10, 76, 76
12, 84419, Note_on_c, 10, 76, 0
12, 84420, Note_on_c, 10, 73, 76
12, 84449, Note_on_c, 10, 73, 0
12, 84450, Note_on_c, 10, 74, 76
12, 84471, Note_on_c, 10, 74, 0
12, 84480, Note_on_c, 10, 73, 76
12, 84704, Note_on_c, 10, 73, 0
12, 84720, Note_on_c, 10, 74, 76
12, 84839, Note_on_c, 10, 74, 0
12, 84840, Note_on_c, 10, 73, 76
12, 84959, Note_on_c, 10, 73, 0
12, 84960, Note_on_c, 10, 74, 76
12, 85079, Note_on_c, 10, 74, 0
12, 85080, Note_on_c, 10, 78, 76
12, 85184, Note_on_c, 10, 78, 0
12, 85200, Note_on_c, 10, 78, 76
12, 85319, Note_on_c, 10, 78, 0
12, 85320, Note_on_c, 10, 76, 76
12, 85439, Note_on_c, 10, 76, 0
12, 85440, Note_on_c, 10, 78, 76
12, 85559, Note_on_c, 10, 78, 0
12, 85560, Note_on_c, 10, 83, 76
12, 85664, Note_on_c, 10, 83, 0
12, 85680, Note_on_c, 10, 83, 76
12, 85784, Note_on_c, 10, 83, 0
12, 85800, Note_on_c, 10, 79, 76
12, 85904, Note_on_c, 10, 79, 0
12, 85920, Note_on_c, 10, 81, 76
12, 86144, Note_on_c, 10, 81, 0
12, 86160, Note_on_c, 10, 81, 76
12, 86624, Note_on_c, 10, 81, 0
12, 86640, Note_on_c, 10, 79, 76
12, 86759, Note_on_c, 10, 79, 0
12, 86760, Note_on_c, 10, 78, 76
12, 86879, Note_on_c, 10, 78, 0
12, 86880, Note_on_c, 10, 76, 76
12, 86984, Note_on_c, 10, 76, 0
12, 87000, Note_on_c, 10, 79, 76
12, 87104, Note_on_c, 10, 79, 0
12, 87120, Note_on_c, 10, 78, 76
12, 87344, Note_on_c, 10, 78, 0
12, 87360, Note_on_c, 10, 71, 76
12, 87584, Note_on_c, 10, 71, 0
12, 87600, Note_on_c, 10, 73, 76
12, 87824, Note_on_c, 10, 73, 0
12, 87840, Note_on_c, 10, 70, 76
12, 88064, Note_on_c, 10, 70, 0
12, 88080, Note_on_c, 10, 71, 76
12, 88544, Note_on_c, 10, 71, 0
12, 88560, Note_on_c, 10, 66, 76
12, 88679, Note_on_c, 10, 66, 0
12, 88680, Note_on_c, 10, 64, 76
12, 88799, Note_on_c, 10, 64, 0
12, 88800, Note_on_c, 10, 66, 76
12, 88919, Note_on_c, 10, 66, 0
12, 88920, Note_on_c, 10, 67, 76
12, 89024, Note_on_c, 10, 67, 0
12, 89040, Note_on_c, 10, 69, 76
12, 89159, Note_on_c, 10, 69, 0
12, 89160, Note_on_c, 10, 67, 76
12, 89279, Note_on_c, 10, 67, 0
12, 89280, Note_on_c, 10, 69, 76
12, 89399, Note_on_c, 10, 69, 0
12, 89400, Note_on_c, 10, 71, 76
12, 89504, Note_on_c, 10, 71, 0
12, 89520, Note_on_c, 10, 72, 76
12, 89639, Note_on_c, 10, 72, 0
12, 89640, Note_on_c, 10, 71, 76
12, 89759, Note_on_c, 10, 71, 0
12, 89760, Note_on_c, 10, 72, 76
12, 89879, Note_on_c, 10, 72, 0
12, 89880, Note_on_c, 10, 74, 76
12, 89984, Note_on_c, 10, 74, 0
12, 90000, Note_on_c, 10, 72, 76
12, 90119, Note_on_c, 10, 72, 0
12, 90120, Note_on_c, 10, 71, 76
12, 90239, Note_on_c, 10, 71, 0
12, 90240, Note_on_c, 10, 72, 76
12, 90344, Note_on_c, 10, 72, 0
12, 90360, Note_on_c, 10, 78, 76
12, 90464, Note_on_c, 10, 78, 0
12, 90480, Note_on_c, 10, 72, 76
12, 90599, Note_on_c, 10, 72, 0
12, 90600, Note_on_c, 10, 71, 76
12, 90719, Note_on_c, 10, 71, 0
12, 90720, Note_on_c, 10, 72, 76
12, 90824, Note_on_c, 10, 72, 0
12, 90840, Note_on_c, 10, 81, 76
12, 90944, Note_on_c, 10, 81, 0
12, 90960, Note_on_c, 10, 71, 76
12, 91079, Note_on_c, 10, 71, 0
12, 91080, Note_on_c, 10, 69, 76
12, 91199, Note_on_c, 10, 69, 0
12, 91200, Note_on_c, 10, 71, 76
12, 91304, Note_on_c, 10, 71, 0
12, 91320, Note_on_c, 10, 81, 76
12, 91424, Note_on_c, 10, 81, 0
12, 91440, Note_on_c, 10, 79, 76
12, 91544, Note_on_c, 10, 79, 0
12, 91560, Note_on_c, 10, 78, 76
12, 91664, Note_on_c, 10, 78, 0
12, 91680, Note_on_c, 10, 76, 76
12, 91784, Note_on_c, 10, 76, 0
12, 91800, Note_on_c, 10, 74, 76
12, 91904, Note_on_c, 10, 74, 0
12, 91920, Note_on_c, 10, 73, 76
12, 92144, Note_on_c, 10, 73, 0
12, 92160, Note_on_c, 10, 69, 76
12, 92384, Note_on_c, 10, 69, 0
12, 92400, Note_on_c, 10, 78, 76
12, 92519, Note_on_c, 10, 78, 0
12, 92520, Note_on_c, 10, 76, 76
12, 92639, Note_on_c, 10, 76, 0
12, 92640, Note_on_c, 10, 74, 76
12, 92759, Note_on_c, 10, 74, 0
12, 92760, Note_on_c, 10, 73, 76
12, 92864, Note_on_c, 10, 73, 0
12, 92880, Note_on_c, 10, 71, 76
12, 93104, Note_on_c, 10, 71, 0
12, 93120, Note_on_c, 10, 71, 76
12, 93344, Note_on_c, 10, 71, 0
12, 93360, Note_on_c, 10, 71, 76
12, 93464, Note_on_c, 10, 71, 0
12, 93480, Note_on_c, 10, 73, 76
12, 93584, Note_on_c, 10, 73, 0
12, 93600, Note_on_c, 10, 74, 76
12, 93704, Note_on_c, 10, 74, 0
12, 93720, Note_on_c, 10, 71, 76
12, 93824, Note_on_c, 10, 71, 0
12, 93840, Note_on_c, 10, 76, 76
12, 93959, Note_on_c, 10, 76, 0
12, 93960, Note_on_c, 10, 74, 76
12, 94079, Note_on_c, 10, 74, 0
12, 94080, Note_on_c, 10, 73, 76
12, 94199, Note_on_c, 10, 73, 0
12, 94200, Note_on_c, 10, 71, 76
12, 94304, Note_on_c, 10, 71, 0
12, 94320, Note_on_c, 10, 69, 76
12, 94544, Note_on_c, 10, 69, 0
12, 94560, Note_on_c, 10, 74, 76
12, 94784, Note_on_c, 10, 74, 0
12, 94800, Note_on_c, 10, 69, 76
12, 95024, Note_on_c, 10, 69, 0
12, 95040, Note_on_c, 10, 74, 76
12, 95264, Note_on_c, 10, 74, 0
12, 95280, Note_on_c, 10, 66, 76
12, 95309, Note_on_c, 10, 66, 0
12, 95310, Note_on_c, 10, 67, 76
12, 95339, Note_on_c, 10, 67, 0
12, 95340, Note_on_c, 10, 66, 76
12, 95369, Note_on_c, 10, 66, 0
12, 95370, Note_on_c, 10, 67, 76
12, 95399, Note_on_c, 10, 67, 0
12, 95400, Note_on_c, 10, 66, 76
12, 95429, Note_on_c, 10, 66, 0
12, 95430, Note_on_c, 10, 67, 76
12, 95459, Note_on_c, 10, 67, 0
12, 95460, Note_on_c, 10, 64, 76
12, 95489, Note_on_c, 10, 64, 0
12, 95490, Note_on_c, 10, 66, 76
12, 95511, Note_on_c, 10, 66, 0
12, 95520, Note_on_c, 10, 64, 76
12, 95624, Note_on_c, 10, 64, 0
12, 95640, Note_on_c, 10, 66, 76
12, 95744, Note_on_c, 10, 66, 0
12, 95760, Note_on_c, 10, 62, 76
12, 96224, Note_on_c, 10, 62, 0
12, 96240, Note_on_c, 10, 69, 76
12, 96344, Note_on_c, 10, 69, 0
12, 96360, Note_on_c, 10, 68, 76
12, 96464, Note_on_c, 10, 68, 0
12, 96480, Note_on_c, 10, 69, 76
12, 96704, Note_on_c, 10, 69, 0
12, 96720, Note_on_c, 10, 61, 76
12, 96824, Note_on_c, 10, 61, 0
12, 96840, Note_on_c, 10, 59, 76
12, 96944, Note_on_c, 10, 59, 0
12, 96960, Note_on_c, 10, 61, 76
12, 97184, Note_on_c, 10, 61, 0
12, 97200, Note_on_c, 10, 64, 76
12, 97304, Note_on_c, 10, 64, 0
12, 97320, Note_on_c, 10, 62, 76
12, 97424, Note_on_c, 10, 62, 0
12, 97440, Note_on_c, 10, 64, 76
12, 97664, Note_on_c, 10, 64, 0
12, 97680, Note_on_c, 10, 61, 76
12, 98144, Note_on_c, 10, 61, 0
12, 98160, Note_on_c, 10, 79, 76
12, 98384, Note_on_c, 10, 79, 0
12, 98400, Note_on_c, 10, 78, 76
12, 98864, Note_on_c, 10, 78, 0
12, 98880, Note_on_c, 10, 76, 76
12, 99344, Note_on_c, 10, 76, 0
12, 99360, Note_on_c, 10, 74, 76
12, 99599, Note_on_c, 10, 74, 0
12, 99600, Note_on_c, 10, 74, 76
12, 99629, Note_on_c, 10, 74, 0
12, 99630, Note_on_c, 10, 76, 76
12, 99659, Note_on_c, 10, 76, 0
12, 99660, Note_on_c, 10, 74, 76
12, 99689, Note_on_c, 10, 74, 0
12, 99690, Note_on_c, 10, 76, 76
12, 99719, Note_on_c, 10, 76, 0
12, 99720, Note_on_c, 10, 74, 76
12, 99749, Note_on_c, 10, 74, 0
12, 99750, Note_on_c, 10, 76, 76
12, 99779, Note_on_c, 10, 76, 0
12, 99780, Note_on_c, 10, 73, 76
12, 99809, Note_on_c, 10, 73, 0
12, 99810, Note_on_c, 10, 74, 76
12, 99831, Note_on_c, 10, 74, 0
12, 99840, Note_on_c, 10, 73, 76
12, 100064, Note_on_c, 10, 73, 0
12, 100080, Note_on_c, 10, 74, 76
12, 100199, Note_on_c, 10, 74, 0
12, 100200, Note_on_c, 10, 73, 76
12, 100319, Note_on_c, 10, 73, 0
12, 100320, Note_on_c, 10, 74, 76
12, 100439, Note_on_c, 10, 74, 0
12, 100440, Note_on_c, 10, 78, 76
12, 100544, Note_on_c, 10, 78, 0
12, 100560, Note_on_c, 10, 78, 76
12, 100679, Note_on_c, 10, 78, 0
12, 100680, Note_on_c, 10, 76, 76
12, 100799, Note_on_c, 10, 76, 0
12, 100800, Note_on_c, 10, 78, 76
12, 100919, Note_on_c, 10, 78, 0
12, 100920, Note_on_c, 10, 83, 76
12, 101024, Note_on_c, 10, 83, 0
12, 101040, Note_on_c, 10, 83, 76
12, 101144, Note_on_c, 10, 83, 0
12, 101160, Note_on_c, 10, 79, 76
12, 101264, Note_on_c, 10, 79, 0
12, 101280, Note_on_c, 10, 81, 76
12, 101504, Note_on_c, 10, 81, 0
12, 101520, Note_on_c, 10, 81, 76
12, 101984, Note_on_c, 10, 81, 0
12, 102000, Note_on_c, 10, 79, 76
12, 102119, Note_on_c, 10, 79, 0
12, 102120, Note_on_c, 10, 78, 76
12, 102239, Note_on_c, 10, 78, 0
12, 102240, Note_on_c, 10, 76, 76
12, 102344, Note_on_c, 10, 76, 0
12, 102360, Note_on_c, 10, 79, 76
12, 102464, Note_on_c, 10, 79, 0
12, 102480, Note_on_c, 10, 78, 76
12, 102704, Note_on_c, 10, 78, 0
12, 102720, Note_on_c, 10, 71, 76
12, 102944, Note_on_c, 10, 71, 0
12, 102960, Note_on_c, 10, 73, 76
12, 103184, Note_on_c, 10, 73, 0
12, 103200, Note_on_c, 10, 70, 76
12, 103424, Note_on_c, 10, 70, 0
12, 103440, Note_on_c, 10, 71, 76
12, 103904, Note_on_c, 10, 71, 0
12, 103920, Note_on_c, 10, 66, 76
12, 104039, Note_on_c, 10, 66, 0
12, 104040, Note_on_c, 10, 64, 76
12, 104159, Note_on_c, 10, 64, 0
12, 104160, Note_on_c, 10, 66, 76
12, 104279, Note_on_c, 10, 66, 0
12, 104280, Note_on_c, 10, 67, 76
12, 104384, Note_on_c, 10, 67, 0
12, 104400, Note_on_c, 10, 69, 76
12, 104519, Note_on_c, 10, 69, 0
12, 104520, Note_on_c, 10, 67, 76
12, 104639, Note_on_c, 10, 67, 0
12, 104640, Note_on_c, 10, 69, 76
12, 104759, Note_on_c, 10, 69, 0
12, 104760, Note_on_c, 10, 71, 76
12, 104864, Note_on_c, 10, 71, 0
12, 104880, Note_on_c, 10, 72, 76
12, 104999, Note_on_c, 10, 72, 0
12, 105000, Note_on_c, 10, 71, 76
12, 105119, Note_on_c, 10, 71, 0
12, 105120, Note_on_c, 10, 72, 76
12, 105239, Note_on_c, 10, 72, 0
12, 105240, Note_on_c, 10, 74, 76
12, 105344, Note_on_c, 10, 74, 0
12, 105360, Note_on_c, 10, 72, 76
12, 105479, Note_on_c, 10, 72, 0
12, 105480, Note_on_c, 10, 71, 76
12, 105599, Note_on_c, 10, 71, 0
12, 105600, Note_on_c, 10, 72, 76
12, 105704, Note_on_c, 10, 72, 0
12, 105720, Note_on_c, 10, 78, 76
12, 105824, Note_on_c, 10, 78, 0
12, 105840, Note_on_c, 10, 72, 76
12, 105959, Note_on_c, 10, 72, 0
12, 105960, Note_on_c, 10, 71, 76
12, 106079, Note_on_c, 10, 71, 0
12, 106080, Note_on_c, 10, 72, 76
12, 106184, Note_on_c, 10, 72, 0
12, 106200, Note_on_c, 10, 81, 76
12, 106304, Note_on_c, 10, 81, 0
12, 106320, Note_on_c, 10, 71, 76
12, 106439, Note_on_c, 10, 71, 0
12, 106440, Note_on_c, 10, 69, 76
12, 106559, Note_on_c, 10, 69, 0
12, 106560, Note_on_c, 10, 71, 76
12, 106664, Note_on_c, 10, 71, 0
12, 106680, Note_on_c, 10, 81, 76
12, 106784, Note_on_c, 10, 81, 0
12, 106800, Note_on_c, 10, 79, 76
12, 106904, Note_on_c, 10, 79, 0
12, 106920, Note_on_c, 10, 78, 76
12, 107024, Note_on_c, 10, 78, 0
12, 107040, Note_on_c, 10, 76, 76
12, 107144, Note_on_c, 10, 76, 0
12, 107160, Note_on_c, 10, 74, 76
12, 107264, Note_on_c, 10, 74, 0
12, 107280, Note_on_c, 10, 73, 76
12, 107504, Note_on_c, 10, 73, 0
12, 107520, Note_on_c, 10, 69, 76
12, 107744, Note_on_c, 10, 69, 0
12, 107760, Note_on_c, 10, 78, 76
12, 107879, Note_on_c, 10, 78, 0
12, 107880, Note_on_c, 10, 76, 76
12, 107999, Note_on_c, 10, 76, 0
12, 108000, Note_on_c, 10, 74, 76
12, 108119, Note_on_c, 10, 74, 0
12, 108120, Note_on_c, 10, 73, 76
12, 108224, Note_on_c, 10, 73, 0
12, 108240, Note_on_c, 10, 71, 76
12, 108464, Note_on_c, 10, 71, 0
12, 108480, Note_on_c, 10, 71, 76
12, 108704, Note_on_c, 10, 71, 0
12, 108720, Note_on_c, 10, 71, 76
12, 108824, Note_on_c, 10, 71, 0
12, 108840, Note_on_c, 10, 73, 76
12, 108944, Note_on_c, 10, 73, 0
12, 108960, Note_on_c, 10, 74, 76
12, 109064, Note_on_c, 10, 74, 0
12, 109080, Note_on_c, 10, 71, 76
12, 109184, Note_on_c, 10, 71, 0
12, 109200, Note_on_c, 10, 76, 76
12, 109319, Note_on_c, 10, 76, 0
12, 109320, Note_on_c, 10, 74, 76
12, 109439, Note_on_c, 10, 74, 0
12, 109440, Note_on_c, 10, 73, 76
12, 109559, Note_on_c, 10, 73, 0
12, 109560, Note_on_c, 10, 71, 76
12, 109664, Note_on_c, 10, 71, 0
12, 109680, Note_on_c, 10, 69, 76
12, 109904, Note_on_c, 10, 69, 0
12, 109920, Note_on_c, 10, 74, 76
12, 110144, Note_on_c, 10, 74, 0
12, 110160, Note_on_c, 10, 69, 76
12, 110384, Note_on_c, 10, 69, 0
12, 110400, Note_on_c, 10, 74, 76
12, 110624, Note_on_c, 10, 74, 0
12, 110640, Note_on_c, 10, 66, 76
12, 110669, Note_on_c, 10, 66, 0
12, 110670, Note_on_c, 10, 67, 76
12, 110699, Note_on_c, 10, 67, 0
12, 110700, Note_on_c, 10, 66, 76
12, 110729, Note_on_c, 10, 66, 0
12, 110730, Note_on_c, 10, 67, 76
12, 110759, Note_on_c, 10, 67, 0
12, 110760, Note_on_c, 10, 66, 76
12, 110789, Note_on_c, 10, 66, 0
12, 110790, Note_on_c, 10, 67, 76
12, 110819, Note_on_c, 10, 67, 0
12, 110820, Note_on_c, 10, 64, 76
12, 110849, Note_on_c, 10, 64, 0
12, 110850, Note_on_c, 10, 66, 76
12, 110871, Note_on_c, 10, 66, 0
12, 110880, Note_on_c, 10, 64, 76
12, 110984, Note_on_c, 10, 64, 0
12, 111000, Note_on_c, 10, 66, 76
12, 111104, Note_on_c, 10, 66, 0
12, 111120, Note_on_c, 10, 62, 76
12, 111584, Note_on_c, 10, 62, 0
12, 111840, Note_on_c, 10, 69, 76
12, 112064, Note_on_c, 10, 69, 0
12, 112080, Note_on_c, 10, 81, 76
12, 112184, Note_on_c, 10, 81, 0
12, 112200, Note_on_c, 10, 78, 76
12, 112304, Note_on_c, 10, 78, 0
12, 112320, Note_on_c, 10, 79, 76
12, 112784, Note_on_c, 10, 79, 0
12, 112800, Note_on_c, 10, 69, 76
12, 113024, Note_on_c, 10, 69, 0
12, 113040, Note_on_c, 10, 79, 76
12, 113144, Note_on_c, 10, 79, 0
12, 113160, Note_on_c, 10, 76, 76
12, 113264, Note_on_c, 10, 76, 0
12, 113280, Note_on_c, 10, 78, 76
12, 113744, Note_on_c, 10, 78, 0
12, 113760, Note_on_c, 10, 69, 76
12, 113984, Note_on_c, 10, 69, 0
12, 114000, Note_on_c, 10, 76, 76
12, 114104, Note_on_c, 10, 76, 0
12, 114120, Note_on_c, 10, 73, 76
12, 114224, Note_on_c, 10, 73, 0
12, 114240, Note_on_c, 10, 74, 76
12, 114464, Note_on_c, 10, 74, 0
12, 114480, Note_on_c, 10, 73, 76
12, 114584, Note_on_c, 10, 73, 0
12, 114600, Note_on_c, 10, 71, 76
12, 114704, Note_on_c, 10, 71, 0
12, 114720, Note_on_c, 10, 69, 76
12, 114824, Note_on_c, 10, 69, 0
12, 114840, Note_on_c, 10, 71, 76
12, 114944, Note_on_c, 10, 71, 0
12, 114960, Note_on_c, 10, 67, 76
12, 115184, Note_on_c, 10, 67, 0
12, 115200, Note_on_c, 10, 66, 76
12, 115229, Note_on_c, 10, 66, 0
12, 115230, Note_on_c, 10, 67, 76
12, 115259, Note_on_c, 10, 67, 0
12, 115260, Note_on_c, 10, 66, 76
12, 115289, Note_on_c, 10, 66, 0
12, 115290, Note_on_c, 10, 67, 76
12, 115319, Note_on_c, 10, 67, 0
12, 115320, Note_on_c, 10, 66, 76
12, 115349, Note_on_c, 10, 66, 0
12, 115350, Note_on_c, 10, 67, 76
12, 115379, Note_on_c, 10, 67, 0
12, 115380, Note_on_c, 10, 64, 76
12, 115409, Note_on_c, 10, 64, 0
12, 115410, Note_on_c, 10, 66, 76
12, 115431, Note_on_c, 10, 66, 0
12, 115440, Note_on_c, 10, 64, 76
12, 115544, Note_on_c, 10, 64, 0
12, 115560, Note_on_c, 10, 62, 76
12, 115664, Note_on_c, 10, 62, 0
12, 115680, Note_on_c, 10, 69, 76
12, 115904, Note_on_c, 10, 69, 0
12, 115920, Note_on_c, 10, 81, 76
12, 116024, Note_on_c, 10, 81, 0
12, 116040, Note_on_c, 10, 78, 76
12, 116144, Note_on_c, 10, 78, 0
12, 116160, Note_on_c, 10, 79, 76
12, 116624, Note_on_c, 10, 79, 0
12, 116640, Note_on_c, 10, 69, 76
12, 116864, Note_on_c, 10, 69, 0
12, 116880, Note_on_c, 10, 79, 76
12, 116984, Note_on_c, 10, 79, 0
12, 117000, Note_on_c, 10, 76, 76
12, 117104, Note_on_c, 10, 76, 0
12, 117120, Note_on_c, 10, 78, 76
12, 117584, Note_on_c, 10, 78, 0
12, 117600, Note_on_c, 10, 80, 76
12, 117824, Note_on_c, 10, 80, 0
12, 117840, Note_on_c, 10, 83, 76
12, 117944, Note_on_c, 10, 83, 0
12, 117960, Note_on_c, 10, 80, 76
12, 118064, Note_on_c, 10, 80, 0
12, 118080, Note_on_c, 10, 81, 76
12, 118304, Note_on_c, 10, 81, 0
12, 118320, Note_on_c, 10, 80, 76
12, 118424, Note_on_c, 10, 80, 0
12, 118440, Note_on_c, 10, 78, 76
12, 118544, Note_on_c, 10, 78, 0
12, 118560, Note_on_c, 10, 76, 76
12, 118664, Note_on_c, 10, 76, 0
12, 118680, Note_on_c, 10, 78, 76
12, 118784, Note_on_c, 10, 78, 0
12, 118800, Note_on_c, 10, 74, 76
12, 119024, Note_on_c, 10, 74, 0
12, 119040, Note_on_c, 10, 73, 76
12, 119264, Note_on_c, 10, 73, 0
12, 119280, Note_on_c, 10, 78, 76
12, 119384, Note_on_c, 10, 78, 0
12, 119400, Note_on_c, 10, 74, 76
12, 119504, Note_on_c, 10, 74, 0
12, 119520, Note_on_c, 10, 76, 76
12, 119744, Note_on_c, 10, 76, 0
12, 119760, Note_on_c, 10, 74, 76
12, 119864, Note_on_c, 10, 74, 0
12, 119880, Note_on_c, 10, 73, 76
12, 119984, Note_on_c, 10, 73, 0
12, 120000, Note_on_c, 10, 71, 76
12, 120104, Note_on_c, 10, 71, 0
12, 120120, Note_on_c, 10, 73, 76
12, 120224, Note_on_c, 10, 73, 0
12, 120240, Note_on_c, 10, 69, 76
12, 120464, Note_on_c, 10, 69, 0
12, 120480, Note_on_c, 10, 64, 76
12, 120704, Note_on_c, 10, 64, 0
12, 120720, Note_on_c, 10, 68, 76
12, 120944, Note_on_c, 10, 68, 0
12, 120960, Note_on_c, 10, 69, 76
12, 121424, Note_on_c, 10, 69, 0
12, 121440, Note_on_c, 10, 69, 76
12, 121664, Note_on_c, 10, 69, 0
12, 121680, Note_on_c, 10, 81, 76
12, 121784, Note_on_c, 10, 81, 0
12, 121800, Note_on_c, 10, 78, 76
12, 121904, Note_on_c, 10, 78, 0
12, 121920, Note_on_c, 10, 79, 76
12, 122384, Note_on_c, 10, 79, 0
12, 122400, Note_on_c, 10, 69, 76
12, 122624, Note_on_c, 10, 69, 0
12, 122640, Note_on_c, 10, 79, 76
12, 122744, Note_on_c, 10, 79, 0
12, 122760, Note_on_c, 10, 76, 76
12, 122864, Note_on_c, 10, 76, 0
12, 122880, Note_on_c, 10, 78, 76
12, 123344, Note_on_c, 10, 78, 0
12, 123360, Note_on_c, 10, 69, 76
12, 123584, Note_on_c, 10, 69, 0
12, 123600, Note_on_c, 10, 76, 76
12, 123704, Note_on_c, 10, 76, 0
12, 123720, Note_on_c, 10, 73, 76
12, 123824, Note_on_c, 10, 73, 0
12, 123840, Note_on_c, 10, 74, 76
12, 124064, Note_on_c, 10, 74, 0
12, 124080, Note_on_c, 10, 73, 76
12, 124184, Note_on_c, 10, 73, 0
12, 124200, Note_on_c, 10, 71, 76
12, 124304, Note_on_c, 10, 71, 0
12, 124320, Note_on_c, 10, 69, 76
12, 124424, Note_on_c, 10, 69, 0
12, 124440, Note_on_c, 10, 71, 76
12, 124544, Note_on_c, 10, 71, 0
12, 124560, Note_on_c, 10, 67, 76
12, 124784, Note_on_c, 10, 67, 0
12, 124800, Note_on_c, 10, 66, 76
12, 124829, Note_on_c, 10, 66, 0
12, 124830, Note_on_c, 10, 67, 76
12, 124859, Note_on_c, 10, 67, 0
12, 124860, Note_on_c, 10, 66, 76
12, 124889, Note_on_c, 10, 66, 0
12, 124890, Note_on_c, 10, 67, 76
12, 124919, Note_on_c, 10, 67, 0
12, 124920, Note_on_c, 10, 66, 76
12, 124949, Note_on_c, 10, 66, 0
12, 124950, Note_on_c, 10, 67, 76
12, 124979, Note_on_c, 10, 67, 0
12, 124980, Note_on_c, 10, 64, 76
12, 125009, Note_on_c, 10, 64, 0
12, 125010, Note_on_c, 10, 66, 76
12, 125031, Note_on_c, 10, 66, 0
12, 125040, Note_on_c, 10, 64, 76
12, 125144, Note_on_c, 10, 64, 0
12, 125160, Note_on_c, 10, 62, 76
12, 125264, Note_on_c, 10, 62, 0
12, 125280, Note_on_c, 10, 69, 76
12, 125504, Note_on_c, 10, 69, 0
12, 125520, Note_on_c, 10, 81, 76
12, 125624, Note_on_c, 10, 81, 0
12, 125640, Note_on_c, 10, 78, 76
12, 125744, Note_on_c, 10, 78, 0
12, 125760, Note_on_c, 10, 79, 76
12, 126224, Note_on_c, 10, 79, 0
12, 126240, Note_on_c, 10, 69, 76
12, 126464, Note_on_c, 10, 69, 0
12, 126480, Note_on_c, 10, 79, 76
12, 126584, Note_on_c, 10, 79, 0
12, 126600, Note_on_c, 10, 76, 76
12, 126704, Note_on_c, 10, 76, 0
12, 126720, Note_on_c, 10, 78, 76
12, 127184, Note_on_c, 10, 78, 0
12, 127200, Note_on_c, 10, 80, 76
12, 127424, Note_on_c, 10, 80, 0
12, 127440, Note_on_c, 10, 83, 76
12, 127544, Note_on_c, 10, 83, 0
12, 127560, Note_on_c, 10, 80, 76
12, 127664, Note_on_c, 10, 80, 0
12, 127680, Note_on_c, 10, 81, 76
12, 127904, Note_on_c, 10, 81, 0
12, 127920, Note_on_c, 10, 80, 76
12, 128024, Note_on_c, 10, 80, 0
12, 128040, Note_on_c, 10, 78, 76
12, 128144, Note_on_c, 10, 78, 0
12, 128160, Note_on_c, 10, 76, 76
12, 128264, Note_on_c, 10, 76, 0
12, 128280, Note_on_c, 10, 78, 76
12, 128384, Note_on_c, 10, 78, 0
12, 128400, Note_on_c, 10, 74, 76
12, 128624, Note_on_c, 10, 74, 0
12, 128640, Note_on_c, 10, 73, 76
12, 128864, Note_on_c, 10, 73, 0
12, 128880, Note_on_c, 10, 78, 76
12, 128984, Note_on_c, 10, 78, 0
12, 129000, Note_on_c, 10, 74, 76
12, 129104, Note_on_c, 10, 74, 0
12, 129120, Note_on_c, 10, 76, 76
12, 129344, Note_on_c, 10, 76, 0
12, 129360, Note_on_c, 10, 74, 76
12, 129464, Note_on_c, 10, 74, 0
12, 129480, Note_on_c, 10, 73, 76
12, 129584, Note_on_c, 10, 73, 0
12, 129600, Note_on_c, 10, 71, 76
12, 129704, Note_on_c, 10, 71, 0
12, 129720, Note_on_c, 10, 73, 76
12, 129824, Note_on_c, 10, 73, 0
12, 129840, Note_on_c, 10, 69, 76
12, 130064, Note_on_c, 10, 69, 0
12, 130080, Note_on_c, 10, 64, 76
12, 130304, Note_on_c, 10, 64, 0
12, 130320, Note_on_c, 10, 68, 76
12, 130544, Note_on_c, 10, 68, 0
12, 130560, Note_on_c, 10, 69, 76
12, 131024, Note_on_c, 10, 69, 0
12, 131040, Note_on_c, 10, 76, 76
12, 131264, Note_on_c, 10, 76, 0
12, 131280, Note_on_c, 10, 64, 76
12, 131384, Note_on_c, 10, 64, 0
12, 131400, Note_on_c, 10, 67, 76
12, 131504, Note_on_c, 10, 67, 0
12, 131520, Note_on_c, 10, 66, 76
12, 131984, Note_on_c, 10, 66, 0
12, 132000, Note_on_c, 10, 74, 76
12, 132224, Note_on_c, 10, 74, 0
12, 132240, Note_on_c, 10, 66, 76
12, 132344, Note_on_c, 10, 66, 0
12, 132360, Note_on_c, 10, 69, 76
12, 132464, Note_on_c, 10, 69, 0
12, 132480, Note_on_c, 10, 67, 76
12, 132944, Note_on_c, 10, 67, 0
12, 132960, Note_on_c, 10, 73, 76
12, 133184, Note_on_c, 10, 73, 0
12, 133200, Note_on_c, 10, 70, 76
12, 133304, Note_on_c, 10, 70, 0
12, 133320, Note_on_c, 10, 73, 76
12, 133424, Note_on_c, 10, 73, 0
12, 133440, Note_on_c, 10, 71, 76
12, 133664, Note_on_c, 10, 71, 0
12, 133680, Note_on_c, 10, 73, 76
12, 133784, Note_on_c, 10, 73, 0
12, 133800, Note_on_c, 10, 74, 76
12, 133904, Note_on_c, 10, 74, 0
12, 133920, Note_on_c, 10, 73, 76
12, 134024, Note_on_c, 10, 73, 0
12, 134040, Note_on_c, 10, 71, 76
12, 134144, Note_on_c, 10, 71, 0
12, 134160, Note_on_c, 10, 79, 76
12, 134384, Note_on_c, 10, 79, 0
12, 134400, Note_on_c, 10, 79, 76
12, 134429, Note_on_c, 10, 79, 0
12, 134430, Note_on_c, 10, 81, 76
12, 134459, Note_on_c, 10, 81, 0
12, 134460, Note_on_c, 10, 79, 76
12, 134489, Note_on_c, 10, 79, 0
12, 134490, Note_on_c, 10, 81, 76
12, 134519, Note_on_c, 10, 81, 0
12, 134520, Note_on_c, 10, 79, 76
12, 134549, Note_on_c, 10, 79, 0
12, 134550, Note_on_c, 10, 81, 76
12, 134579, Note_on_c, 10, 81, 0
12, 134580, Note_on_c, 10, 78, 76
12, 134609, Note_on_c, 10, 78, 0
12, 134610, Note_on_c, 10, 79, 76
12, 134631, Note_on_c, 10, 79, 0
12, 134640, Note_on_c, 10, 78, 76
12, 134864, Note_on_c, 10, 78, 0
12, 134880, Note_on_c, 10, 66, 76
12, 135104, Note_on_c, 10, 66, 0
12, 135120, Note_on_c, 10, 78, 76
12, 135224, Note_on_c, 10, 78, 0
12, 135240, Note_on_c, 10, 74, 76
12, 135344, Note_on_c, 10, 74, 0
12, 135360, Note_on_c, 10, 76, 76
12, 135824, Note_on_c, 10, 76, 0
12, 135840, Note_on_c, 10, 66, 76
12, 136064, Note_on_c, 10, 66, 0
12, 136080, Note_on_c, 10, 76, 76
12, 136184, Note_on_c, 10, 76, 0
12, 136200, Note_on_c, 10, 73, 76
12, 136304, Note_on_c, 10, 73, 0
12, 136320, Note_on_c, 10, 74, 76
12, 136544, Note_on_c, 10, 74, 0
12, 136560, Note_on_c, 10, 71, 76
12, 136664, Note_on_c, 10, 71, 0
12, 136680, Note_on_c, 10, 74, 76
12, 136784, Note_on_c, 10, 74, 0
12, 136800, Note_on_c, 10, 73, 76
12, 136904, Note_on_c, 10, 73, 0
12, 136920, Note_on_c, 10, 70, 76
12, 137024, Note_on_c, 10, 70, 0
12, 137040, Note_on_c, 10, 71, 76
12, 137264, Note_on_c, 10, 71, 0
12, 137280, Note_on_c, 10, 78, 76
12, 137504, Note_on_c, 10, 78, 0
12, 137520, Note_on_c, 10, 79, 76
12, 137624, Note_on_c, 10, 79, 0
12, 137640, Note_on_c, 10, 78, 76
12, 137744, Note_on_c, 10, 78, 0
12, 137760, Note_on_c, 10, 76, 76
12, 137864, Note_on_c, 10, 76, 0
12, 137880, Note_on_c, 10, 74, 76
12, 137984, Note_on_c, 10, 74, 0
12, 138000, Note_on_c, 10, 73, 76
12, 138104, Note_on_c, 10, 73, 0
12, 138120, Note_on_c, 10, 74, 76
12, 138224, Note_on_c, 10, 74, 0
12, 138240, Note_on_c, 10, 71, 76
12, 138704, Note_on_c, 10, 71, 0
12, 138720, Note_on_c, 10, 71, 76
12, 138944, Note_on_c, 10, 71, 0
12, 138960, Note_on_c, 10, 83, 76
12, 139064, Note_on_c, 10, 83, 0
12, 139080, Note_on_c, 10, 79, 76
12, 139184, Note_on_c, 10, 79, 0
12, 139200, Note_on_c, 10, 81, 76
12, 139664, Note_on_c, 10, 81, 0
12, 139680, Note_on_c, 10, 71, 76
12, 139904, Note_on_c, 10, 71, 0
12, 139920, Note_on_c, 10, 81, 76
12, 140024, Note_on_c, 10, 81, 0
12, 140040, Note_on_c, 10, 78, 76
12, 140144, Note_on_c, 10, 78, 0
12, 140160, Note_on_c, 10, 79, 76
12, 140624, Note_on_c, 10, 79, 0
12, 140640, Note_on_c, 10, 73, 76
12, 140864, Note_on_c, 10, 73, 0
12, 140880, Note_on_c, 10, 79, 76
12, 140984, Note_on_c, 10, 79, 0
12, 141000, Note_on_c, 10, 76, 76
12, 141104, Note_on_c, 10, 76, 0
12, 141120, Note_on_c, 10, 78, 76
12, 141344, Note_on_c, 10, 78, 0
12, 141360, Note_on_c, 10, 76, 76
12, 141464, Note_on_c, 10, 76, 0
12, 141480, Note_on_c, 10, 74, 76
12, 141584, Note_on_c, 10, 74, 0
12, 141600, Note_on_c, 10, 76, 76
12, 141704, Note_on_c, 10, 76, 0
12, 141720, Note_on_c, 10, 73, 76
12, 141824, Note_on_c, 10, 73, 0
12, 141840, Note_on_c, 10, 74, 76
12, 142064, Note_on_c, 10, 74, 0
12, 142080, Note_on_c, 10, 73, 76
12, 142109, Note_on_c, 10, 73, 0
12, 142110, Note_on_c, 10, 74, 76
12, 142139, Note_on_c, 10, 74, 0
12, 142140, Note_on_c, 10, 73, 76
12, 142169, Note_on_c, 10, 73, 0
12, 142170, Note_on_c, 10, 74, 76
12, 142199, Note_on_c, 10, 74, 0
12, 142200, Note_on_c, 10, 73, 76
12, 142229, Note_on_c, 10, 73, 0
12, 142230, Note_on_c, 10, 74, 76
12, 142259, Note_on_c, 10, 74, 0
12, 142260, Note_on_c, 10, 71, 76
12, 142289, Note_on_c, 10, 71, 0
12, 142290, Note_on_c, 10, 73, 76
12, 142311, Note_on_c, 10, 73, 0
12, 142320, Note_on_c, 10, 71, 76
12, 142424, Note_on_c, 10, 71, 0
12, 142440, Note_on_c, 10, 69, 76
12, 142544, Note_on_c, 10, 69, 0
12, 142560, Note_on_c, 10, 81, 76
12, 142784, Note_on_c, 10, 81, 0
12, 142800, Note_on_c, 10, 69, 76
12, 142904, Note_on_c, 10, 69, 0
12, 142920, Note_on_c, 10, 72, 76
12, 143024, Note_on_c, 10, 72, 0
12, 143040, Note_on_c, 10, 71, 76
12, 143504, Note_on_c, 10, 71, 0
12, 143520, Note_on_c, 10, 79, 76
12, 143744, Note_on_c, 10, 79, 0
12, 143760, Note_on_c, 10, 71, 76
12, 143864, Note_on_c, 10, 71, 0
12, 143880, Note_on_c, 10, 74, 76
12, 143984, Note_on_c, 10, 74, 0
12, 144000, Note_on_c, 10, 73, 76
12, 144224, Note_on_c, 10, 73, 0
12, 144240, Note_on_c, 10, 76, 76
12, 144344, Note_on_c, 10, 76, 0
12, 144360, Note_on_c, 10, 73, 76
12, 144464, Note_on_c, 10, 73, 0
12, 144480, Note_on_c, 10, 69, 76
12, 144704, Note_on_c, 10, 69, 0
12, 144720, Note_on_c, 10, 79, 76
12, 144824, Note_on_c, 10, 79, 0
12, 144840, Note_on_c, 10, 76, 76
12, 144944, Note_on_c, 10, 76, 0
12, 144960, Note_on_c, 10, 78, 76
12, 145064, Note_on_c, 10, 78, 0
12, 145080, Note_on_c, 10, 76, 76
12, 145184, Note_on_c, 10, 76, 0
12, 145200, Note_on_c, 10, 74, 76
12, 145304, Note_on_c, 10, 74, 0
12, 145320, Note_on_c, 10, 76, 76
12, 145424, Note_on_c, 10, 76, 0
12, 145440, Note_on_c, 10, 69, 76
12, 145664, Note_on_c, 10, 69, 0
12, 145680, Note_on_c, 10, 73, 76
12, 145904, Note_on_c, 10, 73, 0
12, 145920, Note_on_c, 10, 74, 76
12, 146384, Note_on_c, 10, 74, 0
12, 146400, Note_on_c, 10, 76, 76
12, 146624, Note_on_c, 10, 76, 0
12, 146640, Note_on_c, 10, 64, 76
12, 146744, Note_on_c, 10, 64, 0
12, 146760, Note_on_c, 10, 67, 76
12, 146864, Note_on_c, 10, 67, 0
12, 146880, Note_on_c, 10, 66, 76
12, 147344, Note_on_c, 10, 66, 0
12, 147360, Note_on_c, 10, 74, 76
12, 147584, Note_on_c, 10, 74, 0
12, 147600, Note_on_c, 10, 66, 76
12, 147704, Note_on_c, 10, 66, 0
12, 147720, Note_on_c, 10, 69, 76
12, 147824, Note_on_c, 10, 69, 0
12, 147840, Note_on_c, 10, 67, 76
12, 148304, Note_on_c, 10, 67, 0
12, 148320, Note_on_c, 10, 73, 76
12, 148544, Note_on_c, 10, 73, 0
12, 148560, Note_on_c, 10, 70, 76
12, 148664, Note_on_c, 10, 70, 0
12, 148680, Note_on_c, 10, 73, 76
12, 148784, Note_on_c, 10, 73, 0
12, 148800, Note_on_c, 10, 71, 76
12, 149024, Note_on_c, 10, 71, 0
12, 149040, Note_on_c, 10, 73, 76
12, 149144, Note_on_c, 10, 73, 0
12, 149160, Note_on_c, 10, 74, 76
12, 149264, Note_on_c, 10, 74, 0
12, 149280, Note_on_c, 10, 73, 76
12, 149384, Note_on_c, 10, 73, 0
12, 149400, Note_on_c, 10, 71, 76
12, 149504, Note_on_c, 10, 71, 0
12, 149520, Note_on_c, 10, 79, 76
12, 149744, Note_on_c, 10, 79, 0
12, 149760, Note_on_c, 10, 79, 76
12, 149789, Note_on_c, 10, 79, 0
12, 149790, Note_on_c, 10, 81, 76
12, 149819, Note_on_c, 10, 81, 0
12, 149820, Note_on_c, 10, 79, 76
12, 149849, Note_on_c, 10, 79, 0
12, 149850, Note_on_c, 10, 81, 76
12, 149879, Note_on_c, 10, 81, 0
12, 149880, Note_on_c, 10, 79, 76
12, 149909, Note_on_c, 10, 79, 0
12, 149910, Note_on_c, 10, 81, 76
12, 149939, Note_on_c, 10, 81, 0
12, 149940, Note_on_c, 10, 78, 76
12, 149969, Note_on_c, 10, 78, 0
12, 149970, Note_on_c, 10, 79, 76
12, 149991, Note_on_c, 10, 79, 0
12, 150000, Note_on_c, 10, 78, 76
12, 150224, Note_on_c, 10, 78, 0
12, 150240, Note_on_c, 10, 66, 76
12, 150464, Note_on_c, 10, 66, 0
12, 150480, Note_on_c, 10, 78, 76
12, 150584, Note_on_c, 10, 78, 0
12, 150600, Note_on_c, 10, 74, 76
12, 150704, Note_on_c, 10, 74, 0
12, 150720, Note_on_c, 10, 76, 76
12, 151184, Note_on_c, 10, 76, 0
12, 151200, Note_on_c, 10, 66, 76
12, 151424, Note_on_c, 10, 66, 0
12, 151440, Note_on_c, 10, 76, 76
12, 151544, Note_on_c, 10, 76, 0
12, 151560, Note_on_c, 10, 73, 76
12, 151664, Note_on_c, 10, 73, 0
12, 151680, Note_on_c, 10, 74, 76
12, 151904, Note_on_c, 10, 74, 0
12, 151920, Note_on_c, 10, 71, 76
12, 152024, Note_on_c, 10, 71, 0
12, 152040, Note_on_c, 10, 74, 76
12, 152144, Note_on_c, 10, 74, 0
12, 152160, Note_on_c, 10, 73, 76
12, 152264, Note_on_c, 10, 73, 0
12, 152280, Note_on_c, 10, 70, 76
12, 152384, Note_on_c, 10, 70, 0
12, 152400, Note_on_c, 10, 71, 76
12, 152624, Note_on_c, 10, 71, 0
12, 152640, Note_on_c, 10, 78, 76
12, 152864, Note_on_c, 10, 78, 0
12, 152880, Note_on_c, 10, 79, 76
12, 152984, Note_on_c, 10, 79, 0
12, 153000, Note_on_c, 10, 78, 76
12, 153104, Note_on_c, 10, 78, 0
12, 153120, Note_on_c, 10, 76, 76
12, 153224, Note_on_c, 10, 76, 0
12, 153240, Note_on_c, 10, 74, 76
12, 153344, Note_on_c, 10, 74, 0
12, 153360, Note_on_c, 10, 73, 76
12, 153464, Note_on_c, 10, 73, 0
12, 153480, Note_on_c, 10, 74, 76
12, 153584, Note_on_c, 10, 74, 0
12, 153600, Note_on_c, 10, 71, 76
12, 154064, Note_on_c, 10, 71, 0
12, 154080, Note_on_c, 10, 71, 76
12, 154304, Note_on_c, 10, 71, 0
12, 154320, Note_on_c, 10, 83, 76
12, 154424, Note_on_c, 10, 83, 0
12, 154440, Note_on_c, 10, 79, 76
12, 154544, Note_on_c, 10, 79, 0
12, 154560, Note_on_c, 10, 81, 76
12, 155024, Note_on_c, 10, 81, 0
12, 155040, Note_on_c, 10, 71, 76
12, 155264, Note_on_c, 10, 71, 0
12, 155280, Note_on_c, 10, 81, 76
12, 155384, Note_on_c, 10, 81, 0
12, 155400, Note_on_c, 10, 78, 76
12, 155504, Note_on_c, 10, 78, 0
12, 155520, Note_on_c, 10, 79, 76
12, 155984, Note_on_c, 10, 79, 0
12, 156000, Note_on_c, 10, 73, 76
12, 156224, Note_on_c, 10, 73, 0
12, 156240, Note_on_c, 10, 79, 76
12, 156344, Note_on_c, 10, 79, 0
12, 156360, Note_on_c, 10, 76, 76
12, 156464, Note_on_c, 10, 76, 0
12, 156480, Note_on_c, 10, 78, 76
12, 156704, Note_on_c, 10, 78, 0
12, 156720, Note_on_c, 10, 76, 76
12, 156824, Note_on_c, 10, 76, 0
12, 156840, Note_on_c, 10, 74, 76
12, 156944, Note_on_c, 10, 74, 0
12, 156960, Note_on_c, 10, 76, 76
12, 157064, Note_on_c, 10, 76, 0
12, 157080, Note_on_c, 10, 73, 76
12, 157184, Note_on_c, 10, 73, 0
12, 157200, Note_on_c, 10, 74, 76
12, 157424, Note_on_c, 10, 74, 0
12, 157440, Note_on_c, 10, 73, 76
12, 157469, Note_on_c, 10, 73, 0
12, 157470, Note_on_c, 10, 74, 76
12, 157499, Note_on_c, 10, 74, 0
12, 157500, Note_on_c, 10, 73, 76
12, 157529, Note_on_c, 10, 73, 0
12, 157530, Note_on_c, 10, 74, 76
12, 157559, Note_on_c, 10, 74, 0
12, 157560, Note_on_c, 10, 73, 76
12, 157589, Note_on_c, 10, 73, 0
12, 157590, Note_on_c, 10, 74, 76
12, 157619, Note_on_c, 10, 74, 0
12, 157620, Note_on_c, 10, 71, 76
12, 157649, Note_on_c, 10, 71, 0
12, 157650, Note_on_c, 10, 73, 76
12, 157671, Note_on_c, 10, 73, 0
12, 157680, Note_on_c, 10, 71, 76
12, 157784, Note_on_c, 10, 71, 0
12, 157800, Note_on_c, 10, 69, 76
12, 157904, Note_on_c, 10, 69, 0
12, 157920, Note_on_c, 10, 81, 76
12, 158144, Note_on_c, 10, 81, 0
12, 158160, Note_on_c, 10, 69, 76
12, 158264, Note_on_c, 10, 69, 0
12, 158280, Note_on_c, 10, 72, 76
12, 158384, Note_on_c, 10, 72, 0
12, 158400, Note_on_c, 10, 71, 76
12, 158864, Note_on_c, 10, 71, 0
12, 158880, Note_on_c, 10, 79, 76
12, 159104, Note_on_c, 10, 79, 0
12, 159120, Note_on_c, 10, 71, 76
12, 159224, Note_on_c, 10, 71, 0
12, 159240, Note_on_c, 10, 74, 76
12, 159344, Note_on_c, 10, 74, 0
12, 159360, Note_on_c, 10, 73, 76
12, 159584, Note_on_c, 10, 73, 0
12, 159600, Note_on_c, 10, 76, 76
12, 159704, Note_on_c, 10, 76, 0
12, 159720, Note_on_c, 10, 73, 76
12, 159824, Note_on_c, 10, 73, 0
12, 159840, Note_on_c, 10, 69, 76
12, 160064, Note_on_c, 10, 69, 0
12, 160080, Note_on_c, 10, 79, 76
12, 160184, Note_on_c, 10, 79, 0
12, 160200, Note_on_c, 10, 76, 76
12, 160304, Note_on_c, 10, 76, 0
12, 160320, Note_on_c, 10, 78, 76
12, 160424, Note_on_c, 10, 78, 0
12, 160440, Note_on_c, 10, 76, 76
12, 160544, Note_on_c, 10, 76, 0
12, 160560, Note_on_c, 10, 74, 76
12, 160664, Note_on_c, 10, 74, 0
12, 160680, Note_on_c, 10, 76, 76
12, 160784, Note_on_c, 10, 76, 0
12, 160800, Note_on_c, 10, 69, 76
12, 161024, Note_on_c, 10, 69, 0
12, 161040, Note_on_c, 10, 73, 76
12, 161264, Note_on_c, 10, 73, 0
12, 161280, Note_on_c, 10, 74, 76
12, 161759, Note_on_c, 10, 74, 0
12, 161759, End_track
13, 0, Start_track
13, 0, Title_t, "Violin II"
13, 0, MIDI_port, 0
13, 0, Program_c, 11, 48
13, 0, Control_c, 11, 10, 24
13, 0, Control_c, 11, 11, 127
13, 0, Control_c, 11, 7, 96
13, 0, Note_on_c, 11, 66, 76
13, 224, Note_on_c, 11, 66, 0
13, 240, Note_on_c, 11, 78, 76
13, 344, Note_on_c, 11, 78, 0
13, 360, Note_on_c, 11, 74, 76
13, 464, Note_on_c, 11, 74, 0
13, 480, Note_on_c, 11, 76, 76
13, 944, Note_on_c, 11, 76, 0
13, 960, Note_on_c, 11, 64, 76
13, 1184, Note_on_c, 11, 64, 0
13, 1200, Note_on_c, 11, 76, 76
13, 1304, Note_on_c, 11, 76, 0
13, 1320, Note_on_c, 11, 73, 76
13, 1424, Note_on_c, 11, 73, 0
13, 1440, Note_on_c, 11, 74, 76
13, 1904, Note_on_c, 11, 74, 0
13, 1920, Note_on_c, 11, 62, 76
13, 2144, Note_on_c, 11, 62, 0
13, 2160, Note_on_c, 11, 64, 76
13, 2384, Note_on_c, 11, 64, 0
13, 2400, Note_on_c, 11, 57, 76
13, 2624, Note_on_c, 11, 57, 0
13, 2640, Note_on_c, 11, 62, 76
13, 2864, Note_on_c, 11, 62, 0
13, 2880, Note_on_c, 11, 62, 76
13, 3104, Note_on_c, 11, 62, 0
13, 3120, Note_on_c, 11, 61, 76
13, 3344, Note_on_c, 11, 61, 0
13, 3360, Note_on_c, 11, 57, 76
13, 3824, Note_on_c, 11, 57, 0
13, 3840, Note_on_c, 11, 66, 76
13, 4064, Note_on_c, 11, 66, 0
13, 4080, Note_on_c, 11, 78, 76
13, 4184, Note_on_c, 11, 78, 0
13, 4200, Note_on_c, 11, 74, 76
13, 4304, Note_on_c, 11, 74, 0
13, 4320, Note_on_c, 11, 76, 76
13, 4784, Note_on_c, 11, 76, 0
13, 4800, Note_on_c, 11, 64, 76
13, 5024, Note_on_c, 11, 64, 0
13, 5040, Note_on_c, 11, 76, 76
13, 5144, Note_on_c, 11, 76, 0
13, 5160, Note_on_c, 11, 73, 76
13, 5264, Note_on_c, 11, 73, 0
13, 5280, Note_on_c, 11, 74, 76
13, 5744, Note_on_c, 11, 74, 0
13, 5760, Note_on_c, 11, 74, 76
13, 5984, Note_on_c, 11, 74, 0
13, 6000, Note_on_c, 11, 71, 76
13, 6224, Note_on_c, 11, 71, 0
13, 6240, Note_on_c, 11, 76, 76
13, 6464, Note_on_c, 11, 76, 0
13, 6480, Note_on_c, 11, 74, 76
13, 6584, Note_on_c, 11, 74, 0
13, 6600, Note_on_c, 11, 73, 76
13, 6704, Note_on_c, 11, 73, 0
13, 6720, Note_on_c, 11, 71, 76
13, 6944, Note_on_c, 11, 71, 0
13, 6960, Note_on_c, 11, 68, 76
13, 7184, Note_on_c, 11, 68, 0
13, 7200, Note_on_c, 11, 69, 76
13, 7424, Note_on_c, 11, 69, 0
13, 7440, Note_on_c, 11, 69, 76
13, 7664, Note_on_c, 11, 69, 0
13, 7680, Note_on_c, 11, 69, 76
13, 7904, Note_on_c, 11, 69, 0
13, 7920, Note_on_c, 11, 69, 76
13, 8144, Note_on_c, 11, 69, 0
13, 8160, Note_on_c, 11, 66, 76
13, 8384, Note_on_c, 11, 66, 0
13, 8400, Note_on_c, 11, 66, 76
13, 8624, Note_on_c, 11, 66, 0
13, 8640, Note_on_c, 11, 64, 76
13, 8864, Note_on_c, 11, 64, 0
13, 8880, Note_on_c, 11, 64, 76
13, 9104, Note_on_c, 11, 64, 0
13, 9120, Note_on_c, 11, 64, 76
13, 9584, Note_on_c, 11, 64, 0
13, 9600, Note_on_c, 11, 66, 76
13, 9824, Note_on_c, 11, 66, 0
13, 9840, Note_on_c, 11, 78, 76
13, 9944, Note_on_c, 11, 78, 0
13, 9960, Note_on_c, 11, 74, 76
13, 10064, Note_on_c, 11, 74, 0
13, 10080, Note_on_c, 11, 76, 76
13, 10544, Note_on_c, 11, 76, 0
13, 10560, Note_on_c, 11, 64, 76
13, 10784, Note_on_c, 11, 64, 0
13, 10800, Note_on_c, 11, 76, 76
13, 10904, Note_on_c, 11, 76, 0
13, 10920, Note_on_c, 11, 73, 76
13, 11024, Note_on_c, 11, 73, 0
13, 11040, Note_on_c, 11, 74, 76
13, 11504, Note_on_c, 11, 74, 0
13, 11520, Note_on_c, 11, 62, 76
13, 11744, Note_on_c, 11, 62, 0
13, 11760, Note_on_c, 11, 64, 76
13, 11984, Note_on_c, 11, 64, 0
13, 12000, Note_on_c, 11, 57, 76
13, 12224, Note_on_c, 11, 57, 0
13, 12240, Note_on_c, 11, 62, 76
13, 12464, Note_on_c, 11, 62, 0
13, 12480, Note_on_c, 11, 62, 76
13, 12704, Note_on_c, 11, 62, 0
13, 12720, Note_on_c, 11, 61, 76
13, 12944, Note_on_c, 11, 61, 0
13, 12960, Note_on_c, 11, 57, 76
13, 13424, Note_on_c, 11, 57, 0
13, 13440, Note_on_c, 11, 66, 76
13, 13664, Note_on_c, 11, 66, 0
13, 13680, Note_on_c, 11, 78, 76
13, 13784, Note_on_c, 11, 78, 0
13, 13800, Note_on_c, 11, 74, 76
13, 13904, Note_on_c, 11, 74, 0
13, 13920, Note_on_c, 11, 76, 76
13, 14384, Note_on_c, 11, 76, 0
13, 14400, Note_on_c, 11, 64, 76
13, 14624, Note_on_c, 11, 64, 0
13, 14640, Note_on_c, 11, 76, 76
13, 14744, Note_on_c, 11, 76, 0
13, 14760, Note_on_c, 11, 73, 76
13, 14864, Note_on_c, 11, 73, 0
13, 14880, Note_on_c, 11, 74, 76
13, 15344, Note_on_c, 11, 74, 0
13, 15360, Note_on_c, 11, 74, 76
13, 15584, Note_on_c, 11, 74, 0
13, 15600, Note_on_c, 11, 71, 76
13, 15824, Note_on_c, 11, 71, 0
13, 15840, Note_on_c, 11, 76, 76
13, 16064, Note_on_c, 11, 76, 0
13, 16080, Note_on_c, 11, 74, 76
13, 16184, Note_on_c, 11, 74, 0
13, 16200, Note_on_c, 11, 73, 76
13, 16304, Note_on_c, 11, 73, 0
13, 16320, Note_on_c, 11, 71, 76
13, 16544, Note_on_c, 11, 71, 0
13, 16560, Note_on_c, 11, 68, 76
13, 16784, Note_on_c, 11, 68, 0
13, 16800, Note_on_c, 11, 69, 76
13, 17024, Note_on_c, 11, 69, 0
13, 17040, Note_on_c, 11, 69, 76
13, 17264, Note_on_c, 11, 69, 0
13, 17280, Note_on_c, 11, 69, 76
13, 17504, Note_on_c, 11, 69, 0
13, 17520, Note_on_c, 11, 69, 76
13, 17744, Note_on_c, 11, 69, 0
13, 17760, Note_on_c, 11, 66, 76
13, 17984, Note_on_c, 11, 66, 0
13, 18000, Note_on_c, 11, 66, 76
13, 18224, Note_on_c, 11, 66, 0
13, 18240, Note_on_c, 11, 64, 76
13, 18464, Note_on_c, 11, 64, 0
13, 18480, Note_on_c, 11, 64, 76
13, 18704, Note_on_c, 11, 64, 0
13, 18720, Note_on_c, 11, 64, 76
13, 19184, Note_on_c, 11, 64, 0
13, 19200, Note_on_c, 11, 64, 76
13, 19424, Note_on_c, 11, 64, 0
13, 19440, Note_on_c, 11, 76, 76
13, 19664, Note_on_c, 11, 76, 0
13, 19680, Note_on_c, 11, 76, 76
13, 19904, Note_on_c, 11, 76, 0
13, 19920, Note_on_c, 11, 66, 76
13, 20024, Note_on_c, 11, 66, 0
13, 20040, Note_on_c, 11, 64, 76
13, 20144, Note_on_c, 11, 64, 0
13, 20160, Note_on_c, 11, 66, 76
13, 20384, Note_on_c, 11, 66, 0
13, 20400, Note_on_c, 11, 78, 76
13, 20624, Note_on_c, 11, 78, 0
13, 20640, Note_on_c, 11, 78, 76
13, 20864, Note_on_c, 11, 78, 0
13, 20880, Note_on_c, 11, 67, 76
13, 20984, Note_on_c, 11, 67, 0
13, 21000, Note_on_c, 11, 66, 76
13, 21104, Note_on_c, 11, 66, 0
13, 21120, Note_on_c, 11, 67, 76
13, 21344, Note_on_c, 11, 67, 0
13, 21360, Note_on_c, 11, 66, 76
13, 21584, Note_on_c, 11, 66, 0
13, 21600, Note_on_c, 11, 71, 76
13, 21824, Note_on_c, 11, 71, 0
13, 21840, Note_on_c, 11, 70, 76
13, 22064, Note_on_c, 11, 70, 0
13, 22080, Note_on_c, 11, 71, 76
13, 22304, Note_on_c, 11, 71, 0
13, 22320, Note_on_c, 11, 71, 76
13, 22544, Note_on_c, 11, 71, 0
13, 22560, Note_on_c, 11, 71, 76
13, 22784, Note_on_c, 11, 71, 0
13, 22800, Note_on_c, 11, 70, 76
13, 23024, Note_on_c, 11, 70, 0
13, 23040, Note_on_c, 11, 62, 76
13, 23264, Note_on_c, 11, 62, 0
13, 23280, Note_on_c, 11, 74, 76
13, 23504, Note_on_c, 11, 74, 0
13, 23520, Note_on_c, 11, 74, 76
13, 23744, Note_on_c, 11, 74, 0
13, 23760, Note_on_c, 11, 73, 76
13, 23864, Note_on_c, 11, 73, 0
13, 23880, Note_on_c, 11, 71, 76
13, 23984, Note_on_c, 11, 71, 0
13, 24000, Note_on_c, 11, 73, 76
13, 24224, Note_on_c, 11, 73, 0
13, 24240, Note_on_c, 11, 70, 76
13, 24464, Note_on_c, 11, 70, 0
13, 24480, Note_on_c, 11, 71, 76
13, 24704, Note_on_c, 11, 71, 0
13, 24720, Note_on_c, 11, 62, 76
13, 24944, Note_on_c, 11, 62, 0
13, 24960, Note_on_c, 11, 64, 76
13, 25184, Note_on_c, 11, 64, 0
13, 25200, Note_on_c, 11, 66, 76
13, 25304, Note_on_c, 11, 66, 0
13, 25320, Note_on_c, 11, 67, 76
13, 25424, Note_on_c, 11, 67, 0
13, 25440, Note_on_c, 11, 66, 76
13, 25664, Note_on_c, 11, 66, 0
13, 25680, Note_on_c, 11, 71, 76
13, 25904, Note_on_c, 11, 71, 0
13, 25920, Note_on_c, 11, 71, 76
13, 26144, Note_on_c, 11, 71, 0
13, 26160, Note_on_c, 11, 70, 76
13, 26384, Note_on_c, 11, 70, 0
13, 26400, Note_on_c, 11, 66, 76
13, 26864, Note_on_c, 11, 66, 0
13, 26880, Note_on_c, 11, 67, 76
13, 27104, Note_on_c, 11, 67, 0
13, 27120, Note_on_c, 11, 74, 76
13, 27224, Note_on_c, 11, 74, 0
13, 27240, Note_on_c, 11, 71, 76
13, 27344, Note_on_c, 11, 71, 0
13, 27360, Note_on_c, 11, 72, 76
13, 27824, Note_on_c, 11, 72, 0
13, 27840, Note_on_c, 11, 66, 76
13, 28064, Note_on_c, 11, 66, 0
13, 28080, Note_on_c, 11, 78, 76
13, 28184, Note_on_c, 11, 78, 0
13, 28200, Note_on_c, 11, 75, 76
13, 28304, Note_on_c, 11, 75, 0
13, 28320, Note_on_c, 11, 76, 76
13, 28784, Note_on_c, 11, 76, 0
13, 28800, Note_on_c, 11, 64, 76
13, 29024, Note_on_c, 11, 64, 0
13, 29040, Note_on_c, 11, 76, 76
13, 29264, Note_on_c, 11, 76, 0
13, 29280, Note_on_c, 11, 74, 76
13, 29504, Note_on_c, 11, 74, 0
13, 29520, Note_on_c, 11, 66, 76
13, 29744, Note_on_c, 11, 66, 0
13, 29760, Note_on_c, 11, 71, 76
13, 29984, Note_on_c, 11, 71, 0
13, 30000, Note_on_c, 11, 71, 76
13, 30224, Note_on_c, 11, 71, 0
13, 30240, Note_on_c, 11, 69, 76
13, 30704, Note_on_c, 11, 69, 0
13, 30720, Note_on_c, 11, 69, 76
13, 30944, Note_on_c, 11, 69, 0
13, 30960, Note_on_c, 11, 81, 76
13, 31184, Note_on_c, 11, 81, 0
13, 31200, Note_on_c, 11, 79, 76
13, 31424, Note_on_c, 11, 79, 0
13, 31440, Note_on_c, 11, 67, 76
13, 31544, Note_on_c, 11, 67, 0
13, 31560, Note_on_c, 11, 66, 76
13, 31664, Note_on_c, 11, 66, 0
13, 31680, Note_on_c, 11, 67, 76
13, 31904, Note_on_c, 11, 67, 0
13, 31920, Note_on_c, 11, 64, 76
13, 32144, Note_on_c, 11, 64, 0
13, 32160, Note_on_c, 11, 69, 76
13, 32624, Note_on_c, 11, 69, 0
13, 32640, Note_on_c, 11, 76, 76
13, 32864, Note_on_c, 11, 76, 0
13, 32880, Note_on_c, 11, 73, 76
13, 33104, Note_on_c, 11, 73, 0
13, 33120, Note_on_c, 11, 74, 76
13, 33344, Note_on_c, 11, 74, 0
13, 33360, Note_on_c, 11, 71, 76
13, 33584, Note_on_c, 11, 71, 0
13, 33600, Note_on_c, 11, 69, 76
13, 33824, Note_on_c, 11, 69, 0
13, 33840, Note_on_c, 11, 69, 76
13, 34064, Note_on_c, 11, 69, 0
13, 34080, Note_on_c, 11, 69, 76
13, 34544, Note_on_c, 11, 69, 0
13, 34560, Note_on_c, 11, 64, 76
13, 34784, Note_on_c, 11, 64, 0
13, 34800, Note_on_c, 11, 76, 76
13, 35024, Note_on_c, 11, 76, 0
13, 35040, Note_on_c, 11, 76, 76
13, 35264, Note_on_c, 11, 76, 0
13, 35280, Note_on_c, 11, 66, 76
13, 35384, Note_on_c, 11, 66, 0
13, 35400, Note_on_c, 11, 64, 76
13, 35504, Note_on_c, 11, 64, 0
13, 35520, Note_on_c, 11, 66, 76
13, 35744, Note_on_c, 11, 66, 0
13, 35760, Note_on_c, 11, 78, 76
13, 35984, Note_on_c, 11, 78, 0
13, 36000, Note_on_c, 11, 78, 76
13, 36224, Note_on_c, 11, 78, 0
13, 36240, Note_on_c, 11, 67, 76
13, 36344, Note_on_c, 11, 67, 0
13, 36360, Note_on_c, 11, 66, 76
13, 36464, Note_on_c, 11, 66, 0
13, 36480, Note_on_c, 11, 67, 76
13, 36704, Note_on_c, 11, 67, 0
13, 36720, Note_on_c, 11, 66, 76
13, 36944, Note_on_c, 11, 66, 0
13, 36960, Note_on_c, 11, 71, 76
13, 37184, Note_on_c, 11, 71, 0
13, 37200, Note_on_c, 11, 70, 76
13, 37424, Note_on_c, 11, 70, 0
13, 37440, Note_on_c, 11, 71, 76
13, 37664, Note_on_c, 11, 71, 0
13, 37680, Note_on_c, 11, 71, 76
13, 37904, Note_on_c, 11, 71, 0
13, 37920, Note_on_c, 11, 71, 76
13, 38144, Note_on_c, 11, 71, 0
13, 38160, Note_on_c, 11, 70, 76
13, 38384, Note_on_c, 11, 70, 0
13, 38400, Note_on_c, 11, 62, 76
13, 38624, Note_on_c, 11, 62, 0
13, 38640, Note_on_c, 11, 74, 76
13, 38864, Note_on_c, 11, 74, 0
13, 38880, Note_on_c, 11, 74, 76
13, 39104, Note_on_c, 11, 74, 0
13, 39120, Note_on_c, 11, 73, 76
13, 39224, Note_on_c, 11, 73, 0
13, 39240, Note_on_c, 11, 71, 76
13, 39344, Note_on_c, 11, 71, 0
13, 39360, Note_on_c, 11, 73, 76
13, 39584, Note_on_c, 11, 73, 0
13, 39600, Note_on_c, 11, 70, 76
13, 39824, Note_on_c, 11, 70, 0
13, 39840, Note_on_c, 11, 71, 76
13, 40064, Note_on_c, 11, 71, 0
13, 40080, Note_on_c, 11, 62, 76
13, 40304, Note_on_c, 11, 62, 0
13, 40320, Note_on_c, 11, 64, 76
13, 40544, Note_on_c, 11, 64, 0
13, 40560, Note_on_c, 11, 66, 76
13, 40664, Note_on_c, 11, 66, 0
13, 40680, Note_on_c, 11, 67, 76
13, 40784, Note_on_c, 11, 67, 0
13, 40800, Note_on_c, 11, 66, 76
13, 41024, Note_on_c, 11, 66, 0
13, 41040, Note_on_c, 11, 71, 76
13, 41264, Note_on_c, 11, 71, 0
13, 41280, Note_on_c, 11, 71, 76
13, 41504, Note_on_c, 11, 71, 0
13, 41520, Note_on_c, 11, 70, 76
13, 41744, Note_on_c, 11, 70, 0
13, 41760, Note_on_c, 11, 66, 76
13, 42224, Note_on_c, 11, 66, 0
13, 42240, Note_on_c, 11, 67, 76
13, 42464, Note_on_c, 11, 67, 0
13, 42480, Note_on_c, 11, 74, 76
13, 42584, Note_on_c, 11, 74, 0
13, 42600, Note_on_c, 11, 71, 76
13, 42704, Note_on_c, 11, 71, 0
13, 42720, Note_on_c, 11, 72, 76
13, 43184, Note_on_c, 11, 72, 0
13, 43200, Note_on_c, 11, 66, 76
13, 43424, Note_on_c, 11, 66, 0
13, 43440, Note_on_c, 11, 78, 76
13, 43544, Note_on_c, 11, 78, 0
13, 43560, Note_on_c, 11, 75, 76
13, 43664, Note_on_c, 11, 75, 0
13, 43680, Note_on_c, 11, 76, 76
13, 44144, Note_on_c, 11, 76, 0
13, 44160, Note_on_c, 11, 64, 76
13, 44384, Note_on_c, 11, 64, 0
13, 44400, Note_on_c, 11, 76, 76
13, 44624, Note_on_c, 11, 76, 0
13, 44640, Note_on_c, 11, 74, 76
13, 44864, Note_on_c, 11, 74, 0
13, 44880, Note_on_c, 11, 66, 76
13, 45104, Note_on_c, 11, 66, 0
13, 45120, Note_on_c, 11, 71, 76
13, 45344, Note_on_c, 11, 71, 0
13, 45360, Note_on_c, 11, 71, 76
13, 45584, Note_on_c, 11, 71, 0
13, 45600, Note_on_c, 11, 69, 76
13, 46064, Note_on_c, 11, 69, 0
13, 46080, Note_on_c, 11, 69, 76
13, 46304, Note_on_c, 11, 69, 0
13, 46320, Note_on_c, 11, 81, 76
13, 46544, Note_on_c, 11, 81, 0
13, 46560, Note_on_c, 11, 79, 76
13, 46784, Note_on_c, 11, 79, 0
13, 46800, Note_on_c, 11, 67, 76
13, 46904, Note_on_c, 11, 67, 0
13, 46920, Note_on_c, 11, 66, 76
13, 47024, Note_on_c, 11, 66, 0
13, 47040, Note_on_c, 11, 67, 76
13, 47264, Note_on_c, 11, 67, 0
13, 47280, Note_on_c, 11, 64, 76
13, 47504, Note_on_c, 11, 64, 0
13, 47520, Note_on_c, 11, 69, 76
13, 47984, Note_on_c, 11, 69, 0
13, 48000, Note_on_c, 11, 76, 76
13, 48224, Note_on_c, 11, 76, 0
13, 48240, Note_on_c, 11, 73, 76
13, 48464, Note_on_c, 11, 73, 0
13, 48480, Note_on_c, 11, 74, 76
13, 48704, Note_on_c, 11, 74, 0
13, 48720, Note_on_c, 11, 71, 76
13, 48944, Note_on_c, 11, 71, 0
13, 48960, Note_on_c, 11, 69, 76
13, 49184, Note_on_c, 11, 69, 0
13, 49200, Note_on_c, 11, 69, 76
13, 49424, Note_on_c, 11, 69, 0
13, 49440, Note_on_c, 11, 69, 76
13, 49919, Note_on_c, 11, 69, 0
13, 50160, Note_on_c, 11, 74, 76
13, 50264, Note_on_c, 11, 74, 0
13, 50280, Note_on_c, 11, 73, 76
13, 50384, Note_on_c, 11, 73, 0
13, 50400, Note_on_c, 11, 74, 76
13, 50624, Note_on_c, 11, 74, 0
13, 50640, Note_on_c, 11, 66, 76
13, 50744, Note_on_c, 11, 66, 0
13, 50760, Note_on_c, 11, 64, 76
13, 50864, Note_on_c, 11, 64, 0
13, 50880, Note_on_c, 11, 66, 76
13, 51104, Note_on_c, 11, 66, 0
13, 51120, Note_on_c, 11, 69, 76
13, 51224, Note_on_c, 11, 69, 0
13, 51240, Note_on_c, 11, 67, 76
13, 51344, Note_on_c, 11, 67, 0
13, 51360, Note_on_c, 11, 69, 76
13, 51584, Note_on_c, 11, 69, 0
13, 51600, Note_on_c, 11, 62, 76
13, 52064, Note_on_c, 11, 62, 0
13, 52080, Note_on_c, 11, 69, 76
13, 52304, Note_on_c, 11, 69, 0
13, 52320, Note_on_c, 11, 74, 76
13, 52784, Note_on_c, 11, 74, 0
13, 52800, Note_on_c, 11, 73, 76
13, 52904, Note_on_c, 11, 73, 0
13, 52920, Note_on_c, 11, 71, 76
13, 53024, Note_on_c, 11, 71, 0
13, 53040, Note_on_c, 11, 73, 76
13, 53144, Note_on_c, 11, 73, 0
13, 53160, Note_on_c, 11, 74, 76
13, 53264, Note_on_c, 11, 74, 0
13, 53280, Note_on_c, 11, 76, 76
13, 53384, Note_on_c, 11, 76, 0
13, 53400, Note_on_c, 11, 73, 76
13, 53504, Note_on_c, 11, 73, 0
13, 53520, Note_on_c, 11, 74, 76
13, 53744, Note_on_c, 11, 74, 0
13, 53760, Note_on_c, 11, 69, 76
13, 53984, Note_on_c, 11, 69, 0
13, 54000, Note_on_c, 11, 74, 76
13, 54104, Note_on_c, 11, 74, 0
13, 54120, Note_on_c, 11, 73, 76
13, 54224, Note_on_c, 11, 73, 0
13, 54240, Note_on_c, 11, 74, 76
13, 54464, Note_on_c, 11, 74, 0
13, 54480, Note_on_c, 11, 66, 76
13, 54584, Note_on_c, 11, 66, 0
13, 54600, Note_on_c, 11, 64, 76
13, 54704, Note_on_c, 11, 64, 0
13, 54720, Note_on_c, 11, 66, 76
13, 54944, Note_on_c, 11, 66, 0
13, 54960, Note_on_c, 11, 69, 76
13, 55064, Note_on_c, 11, 69, 0
13, 55080, Note_on_c, 11, 67, 76
13, 55184, Note_on_c, 11, 67, 0
13, 55200, Note_on_c, 11, 69, 76
13, 55424, Note_on_c, 11, 69, 0
13, 55440, Note_on_c, 11, 62, 76
13, 55919, Note_on_c, 11, 62, 0
13, 56400, Note_on_c, 11, 71, 76
13, 56519, Note_on_c, 11, 71, 0
13, 56520, Note_on_c, 11, 69, 76
13, 56639, Note_on_c, 11, 69, 0
13, 56640, Note_on_c, 11, 68, 76
13, 56759, Note_on_c, 11, 68, 0
13, 56760, Note_on_c, 11, 66, 76
13, 56864, Note_on_c, 11, 66, 0
13, 56880, Note_on_c, 11, 64, 76
13, 57104, Note_on_c, 11, 64, 0
13, 57120, Note_on_c, 11, 64, 76
13, 57344, Note_on_c, 11, 64, 0
13, 57360, Note_on_c, 11, 64, 76
13, 57464, Note_on_c, 11, 64, 0
13, 57480, Note_on_c, 11, 66, 76
13, 57584, Note_on_c, 11, 66, 0
13, 57600, Note_on_c, 11, 68, 76
13, 57704, Note_on_c, 11, 68, 0
13, 57720, Note_on_c, 11, 64, 76
13, 57824, Note_on_c, 11, 64, 0
13, 57840, Note_on_c, 11, 69, 76
13, 58064, Note_on_c, 11, 69, 0
13, 58080, Note_on_c, 11, 57, 76
13, 58304, Note_on_c, 11, 57, 0
13, 58320, Note_on_c, 11, 69, 76
13, 58439, Note_on_c, 11, 69, 0
13, 58440, Note_on_c, 11, 68, 76
13, 58559, Note_on_c, 11, 68, 0
13, 58560, Note_on_c, 11, 66, 76
13, 58679, Note_on_c, 11, 66, 0
13, 58680, Note_on_c, 11, 64, 76
13, 58784, Note_on_c, 11, 64, 0
13, 58800, Note_on_c, 11, 62, 76
13, 59024, Note_on_c, 11, 62, 0
13, 59040, Note_on_c, 11, 62, 76
13, 59264, Note_on_c, 11, 62, 0
13, 59280, Note_on_c, 11, 62, 76
13, 59384, Note_on_c, 11, 62, 0
13, 59400, Note_on_c, 11, 64, 76
13, 59504, Note_on_c, 11, 64, 0
13, 59520, Note_on_c, 11, 66, 76
13, 59624, Note_on_c, 11, 66, 0
13, 59640, Note_on_c, 11, 62, 76
13, 59744, Note_on_c, 11, 62, 0
13, 59760, Note_on_c, 11, 74, 76
13, 59864, Note_on_c, 11, 74, 0
13, 59880, Note_on_c, 11, 73, 76
13, 59984, Note_on_c, 11, 73, 0
13, 60000, Note_on_c, 11, 74, 76
13, 60224, Note_on_c, 11, 74, 0
13, 60240, Note_on_c, 11, 68, 76
13, 60344, Note_on_c, 11, 68, 0
13, 60360, Note_on_c, 11, 66, 76
13, 60464, Note_on_c, 11, 66, 0
13, 60480, Note_on_c, 11, 68, 76
13, 60704, Note_on_c, 11, 68, 0
13, 60720, Note_on_c, 11, 71, 76
13, 60824, Note_on_c, 11, 71, 0
13, 60840, Note_on_c, 11, 69, 76
13, 60944, Note_on_c, 11, 69, 0
13, 60960, Note_on_c, 11, 71, 76
13, 61184, Note_on_c, 11, 71, 0
13, 61200, Note_on_c, 11, 74, 76
13, 61664, Note_on_c, 11, 74, 0
13, 61680, Note_on_c, 11, 68, 76
13, 61919, Note_on_c, 11, 68, 0
13, 61920, Note_on_c, 11, 68, 76
13, 62144, Note_on_c, 11, 68, 0
13, 62160, Note_on_c, 11, 69, 76
13, 62384, Note_on_c, 11, 69, 0
13, 62400, Note_on_c, 11, 69, 76
13, 62624, Note_on_c, 11, 69, 0
13, 62640, Note_on_c, 11, 69, 76
13, 62864, Note_on_c, 11, 69, 0
13, 62880, Note_on_c, 11, 69, 76
13, 63104, Note_on_c, 11, 69, 0
13, 63120, Note_on_c, 11, 71, 76
13, 63224, Note_on_c, 11, 71, 0
13, 63240, Note_on_c, 11, 73, 76
13, 63344, Note_on_c, 11, 73, 0
13, 63360, Note_on_c, 11, 74, 76
13, 63584, Note_on_c, 11, 74, 0
13, 63600, Note_on_c, 11, 73, 76
13, 63824, Note_on_c, 11, 73, 0
13, 63840, Note_on_c, 11, 76, 76
13, 64064, Note_on_c, 11, 76, 0
13, 64080, Note_on_c, 11, 73, 76
13, 64304, Note_on_c, 11, 73, 0
13, 64320, Note_on_c, 11, 69, 76
13, 64544, Note_on_c, 11, 69, 0
13, 64560, Note_on_c, 11, 69, 76
13, 64589, Note_on_c, 11, 69, 0
13, 64590, Note_on_c, 11, 71, 76
13, 64619, Note_on_c, 11, 71, 0
13, 64620, Note_on_c, 11, 69, 76
13, 64649, Note_on_c, 11, 69, 0
13, 64650, Note_on_c, 11, 71, 76
13, 64679, Note_on_c, 11, 71, 0
13, 64680, Note_on_c, 11, 69, 76
13, 64709, Note_on_c, 11, 69, 0
13, 64710, Note_on_c, 11, 71, 76
13, 64739, Note_on_c, 11, 71, 0
13, 64740, Note_on_c, 11, 68, 76
13, 64769, Note_on_c, 11, 68, 0
13, 64770, Note_on_c, 11, 69, 76
13, 64791, Note_on_c, 11, 69, 0
13, 64800, Note_on_c, 11, 68, 76
13, 64904, Note_on_c, 11, 68, 0
13, 64920, Note_on_c, 11, 69, 76
13, 65024, Note_on_c, 11, 69, 0
13, 65040, Note_on_c, 11, 64, 76
13, 65504, Note_on_c, 11, 64, 0
13, 65520, Note_on_c, 11, 74, 76
13, 65624, Note_on_c, 11, 74, 0
13, 65640, Note_on_c, 11, 73, 76
13, 65744, Note_on_c, 11, 73, 0
13, 65760, Note_on_c, 11, 74, 76
13, 65984, Note_on_c, 11, 74, 0
13, 66000, Note_on_c, 11, 66, 76
13, 66104, Note_on_c, 11, 66, 0
13, 66120, Note_on_c, 11, 64, 76
13, 66224, Note_on_c, 11, 64, 0
13, 66240, Note_on_c, 11, 66, 76
13, 66464, Note_on_c, 11, 66, 0
13, 66480, Note_on_c, 11, 69, 76
13, 66584, Note_on_c, 11, 69, 0
13, 66600, Note_on_c, 11, 67, 76
13, 66704, Note_on_c, 11, 67, 0
13, 66720, Note_on_c, 11, 69, 76
13, 66944, Note_on_c, 11, 69, 0
13, 66960, Note_on_c, 11, 62, 76
13, 67424, Note_on_c, 11, 62, 0
13, 67440, Note_on_c, 11, 69, 76
13, 67664, Note_on_c, 11, 69, 0
13, 67680, Note_on_c, 11, 74, 76
13, 68144, Note_on_c, 11, 74, 0
13, 68160, Note_on_c, 11, 73, 76
13, 68264, Note_on_c, 11, 73, 0
13, 68280, Note_on_c, 11, 71, 76
13, 68384, Note_on_c, 11, 71, 0
13, 68400, Note_on_c, 11, 73, 76
13, 68504, Note_on_c, 11, 73, 0
13, 68520, Note_on_c, 11, 74, 76
13, 68624, Note_on_c, 11, 74, 0
13, 68640, Note_on_c, 11, 76, 76
13, 68744, Note_on_c, 11, 76, 0
13, 68760, Note_on_c, 11, 73, 76
13, 68864, Note_on_c, 11, 73, 0
13, 68880, Note_on_c, 11, 74, 76
13, 69104, Note_on_c, 11, 74, 0
13, 69120, Note_on_c, 11, 69, 76
13, 69344, Note_on_c, 11, 69, 0
13, 69360, Note_on_c, 11, 74, 76
13, 69464, Note_on_c, 11, 74, 0
13, 69480, Note_on_c, 11, 73, 76
13, 69584, Note_on_c, 11, 73, 0
13, 69600, Note_on_c, 11, 74, 76
13, 69824, Note_on_c, 11, 74, 0
13, 69840, Note_on_c, 11, 66, 76
13, 69944, Note_on_c, 11, 66, 0
13, 69960, Note_on_c, 11, 64, 76
13, 70064, Note_on_c, 11, 64, 0
13, 70080, Note_on_c, 11, 66, 76
13, 70304, Note_on_c, 11, 66, 0
13, 70320, Note_on_c, 11, 69, 76
13, 70424, Note_on_c, 11, 69, 0
13, 70440, Note_on_c, 11, 67, 76
13, 70544, Note_on_c, 11, 67, 0
13, 70560, Note_on_c, 11, 69, 76
13, 70784, Note_on_c, 11, 69, 0
13, 70800, Note_on_c, 11, 62, 76
13, 71279, Note_on_c, 11, 62, 0
13, 71760, Note_on_c, 11, 71, 76
13, 71879, Note_on_c, 11, 71, 0
13, 71880, Note_on_c, 11, 69, 76
13, 71999, Note_on_c, 11, 69, 0
13, 72000, Note_on_c, 11, 68, 76
13, 72119, Note_on_c, 11, 68, 0
13, 72120, Note_on_c, 11, 66, 76
13, 72224, Note_on_c, 11, 66, 0
13, 72240, Note_on_c, 11, 64, 76
13, 72464, Note_on_c, 11, 64, 0
13, 72480, Note_on_c, 11, 64, 76
13, 72704, Note_on_c, 11, 64, 0
13, 72720, Note_on_c, 11, 64, 76
13, 72824, Note_on_c, 11, 64, 0
13, 72840, Note_on_c, 11, 66, 76
13, 72944, Note_on_c, 11, 66, 0
13, 72960, Note_on_c, 11, 68, 76
13, 73064, Note_on_c, 11, 68, 0
13, 73080, Note_on_c, 11, 64, 76
13, 73184, Note_on_c, 11, 64, 0
13, 73200, Note_on_c, 11, 69, 76
13, 73424, Note_on_c, 11, 69, 0
13, 73440, Note_on_c, 11, 57, 76
13, 73664, Note_on_c, 11, 57, 0
13, 73680, Note_on_c, 11, 69, 76
13, 73799, Note_on_c, 11, 69, 0
13, 73800, Note_on_c, 11, 68, 76
13, 73919, Note_on_c, 11, 68, 0
13, 73920, Note_on_c, 11, 66, 76
13, 74039, Note_on_c, 11, 66, 0
13, 74040, Note_on_c, 11, 64, 76
13, 74144, Note_on_c, 11, 64, 0
13, 74160, Note_on_c, 11, 62, 76
13, 74384, Note_on_c, 11, 62, 0
13, 74400, Note_on_c, 11, 62, 76
13, 74624, Note_on_c, 11, 62, 0
13, 74640, Note_on_c, 11, 62, 76
13, 74744, Note_on_c, 11, 62, 0
13, 74760, Note_on_c, 11, 64, 76
13, 74864, Note_on_c, 11, 64, 0
13, 74880, Note_on_c, 11, 66, 76
13, 74984, Note_on_c, 11, 66, 0
13, 75000, Note_on_c, 11, 62, 76
13, 75104, Note_on_c, 11, 62, 0
13, 75120, Note_on_c, 11, 74, 76
13, 75224, Note_on_c, 11, 74, 0
13, 75240, Note_on_c, 11, 73, 76
13, 75344, Note_on_c, 11, 73, 0
13, 75360, Note_on_c, 11, 74, 76
13, 75584, Note_on_c, 11, 74, 0
13, 75600, Note_on_c, 11, 68, 76
13, 75704, Note_on_c, 11, 68, 0
13, 75720, Note_on_c, 11, 66, 76
13, 75824, Note_on_c, 11, 66, 0
13, 75840, Note_on_c, 11, 68, 76
13, 76064, Note_on_c, 11, 68, 0
13, 76080, Note_on_c, 11, 71, 76
13, 76184, Note_on_c, 11, 71, 0
13, 76200, Note_on_c, 11, 69, 76
13, 76304, Note_on_c, 11, 69, 0
13, 76320, Note_on_c, 11, 71, 76
13, 76544, Note_on_c, 11, 71, 0
13, 76560, Note_on_c, 11, 74, 76
13, 77024, Note_on_c, 11, 74, 0
13, 77040, Note_on_c, 11, 68, 76
13, 77279, Note_on_c, 11, 68, 0
13, 77280, Note_on_c, 11, 68, 76
13, 77504, Note_on_c, 11, 68, 0
13, 77520, Note_on_c, 11, 69, 76
13, 77744, Note_on_c, 11, 69, 0
13, 77760, Note_on_c, 11, 69, 76
13, 77984, Note_on_c, 11, 69, 0
13, 78000, Note_on_c, 11, 69, 76
13, 78224, Note_on_c, 11, 69, 0
13, 78240, Note_on_c, 11, 69, 76
13, 78464, Note_on_c, 11, 69, 0
13, 78480, Note_on_c, 11, 71, 76
13, 78584, Note_on_c, 11, 71, 0
13, 78600, Note_on_c, 11, 73, 76
13, 78704, Note_on_c, 11, 73, 0
13, 78720, Note_on_c, 11, 74, 76
13, 78944, Note_on_c, 11, 74, 0
13, 78960, Note_on_c, 11, 73, 76
13, 79184, Note_on_c, 11, 73, 0
13, 79200, Note_on_c, 11, 76, 76
13, 79424, Note_on_c, 11, 76, 0
13, 79440, Note_on_c, 11, 73, 76
13, 79664, Note_on_c, 11, 73, 0
13, 79680, Note_on_c, 11, 69, 76
13, 79904, Note_on_c, 11, 69, 0
13, 79920, Note_on_c, 11, 69, 76
13, 79949, Note_on_c, 11, 69, 0
13, 79950, Note_on_c, 11, 71, 76
13, 79979, Note_on_c, 11, 71, 0
13, 79980, Note_on_c, 11, 69, 76
13, 80009, Note_on_c, 11, 69, 0
13, 80010, Note_on_c, 11, 71, 76
13, 80039, Note_on_c, 11, 71, 0
13, 80040, Note_on_c, 11, 69, 76
13, 80069, Note_on_c, 11, 69, 0
13, 80070, Note_on_c, 11, 71, 76
13, 80099, Note_on_c, 11, 71, 0
13, 80100, Note_on_c, 11, 68, 76
13, 80129, Note_on_c, 11, 68, 0
13, 80130, Note_on_c, 11, 69, 76
13, 80151, Note_on_c, 11, 69, 0
13, 80160, Note_on_c, 11, 68, 76
13, 80264, Note_on_c, 11, 68, 0
13, 80280, Note_on_c, 11, 69, 76
13, 80384, Note_on_c, 11, 69, 0
13, 80400, Note_on_c, 11, 64, 76
13, 80864, Note_on_c, 11, 64, 0
13, 80880, Note_on_c, 11, 69, 76
13, 80984, Note_on_c, 11, 69, 0
13, 81000, Note_on_c, 11, 68, 76
13, 81104, Note_on_c, 11, 68, 0
13, 81120, Note_on_c, 11, 69, 76
13, 81344, Note_on_c, 11, 69, 0
13, 81360, Note_on_c, 11, 61, 76
13, 81464, Note_on_c, 11, 61, 0
13, 81480, Note_on_c, 11, 59, 76
13, 81584, Note_on_c, 11, 59, 0
13, 81600, Note_on_c, 11, 61, 76
13, 81824, Note_on_c, 11, 61, 0
13, 81840, Note_on_c, 11, 64, 76
13, 81944, Note_on_c, 11, 64, 0
13, 81960, Note_on_c, 11, 62, 76
13, 82064, Note_on_c, 11, 62, 0
13, 82080, Note_on_c, 11, 64, 76
13, 82304, Note_on_c, 11, 64, 0
13, 82320, Note_on_c, 11, 57, 76
13, 82784, Note_on_c, 11, 57, 0
13, 82800, Note_on_c, 11, 76, 76
13, 83024, Note_on_c, 11, 76, 0
13, 83040, Note_on_c, 11, 74, 76
13, 83504, Note_on_c, 11, 74, 0
13, 83520, Note_on_c, 11, 73, 76
13, 83984, Note_on_c, 11, 73, 0
13, 84000, Note_on_c, 11, 71, 76
13, 84464, Note_on_c, 11, 71, 0
13, 84480, Note_on_c, 11, 70, 76
13, 84704, Note_on_c, 11, 70, 0
13, 84720, Note_on_c, 11, 71, 76
13, 85664, Note_on_c, 11, 71, 0
13, 85680, Note_on_c, 11, 73, 76
13, 86144, Note_on_c, 11, 73, 0
13, 86160, Note_on_c, 11, 75, 76
13, 86624, Note_on_c, 11, 75, 0
13, 86640, Note_on_c, 11, 76, 76
13, 86864, Note_on_c, 11, 76, 0
13, 86880, Note_on_c, 11, 70, 76
13, 87104, Note_on_c, 11, 70, 0
13, 87120, Note_on_c, 11, 71, 76
13, 87344, Note_on_c, 11, 71, 0
13, 87360, Note_on_c, 11, 62, 76
13, 87584, Note_on_c, 11, 62, 0
13, 87600, Note_on_c, 11, 64, 76
13, 87824, Note_on_c, 11, 64, 0
13, 87840, Note_on_c, 11, 61, 76
13, 88064, Note_on_c, 11, 61, 0
13, 88080, Note_on_c, 11, 62, 76
13, 88544, Note_on_c, 11, 62, 0
13, 88560, Note_on_c, 11, 62, 76
13, 90464, Note_on_c, 11, 62, 0
13, 90480, Note_on_c, 11, 69, 76
13, 90704, Note_on_c, 11, 69, 0
13, 90720, Note_on_c, 11, 69, 76
13, 90944, Note_on_c, 11, 69, 0
13, 90960, Note_on_c, 11, 69, 76
13, 91184, Note_on_c, 11, 69, 0
13, 91200, Note_on_c, 11, 67, 76
13, 91304, Note_on_c, 11, 67, 0
13, 91320, Note_on_c, 11, 66, 76
13, 91424, Note_on_c, 11, 66, 0
13, 91440, Note_on_c, 11, 64, 76
13, 91664, Note_on_c, 11, 64, 0
13, 91680, Note_on_c, 11, 69, 76
13, 91904, Note_on_c, 11, 69, 0
13, 91920, Note_on_c, 11, 69, 76
13, 92039, Note_on_c, 11, 69, 0
13, 92040, Note_on_c, 11, 67, 76
13, 92159, Note_on_c, 11, 67, 0
13, 92160, Note_on_c, 11, 66, 76
13, 92279, Note_on_c, 11, 66, 0
13, 92280, Note_on_c, 11, 64, 76
13, 92384, Note_on_c, 11, 64, 0
13, 92400, Note_on_c, 11, 62, 76
13, 92624, Note_on_c, 11, 62, 0
13, 92640, Note_on_c, 11, 62, 76
13, 92864, Note_on_c, 11, 62, 0
13, 92880, Note_on_c, 11, 62, 76
13, 92984, Note_on_c, 11, 62, 0
13, 93000, Note_on_c, 11, 64, 76
13, 93104, Note_on_c, 11, 64, 0
13, 93120, Note_on_c, 11, 66, 76
13, 93224, Note_on_c, 11, 66, 0
13, 93240, Note_on_c, 11, 62, 76
13, 93344, Note_on_c, 11, 62, 0
13, 93360, Note_on_c, 11, 67, 76
13, 93584, Note_on_c, 11, 67, 0
13, 93600, Note_on_c, 11, 67, 76
13, 93824, Note_on_c, 11, 67, 0
13, 93840, Note_on_c, 11, 67, 76
13, 94304, Note_on_c, 11, 67, 0
13, 94320, Note_on_c, 11, 66, 76
13, 94544, Note_on_c, 11, 66, 0
13, 94560, Note_on_c, 11, 69, 76
13, 94784, Note_on_c, 11, 69, 0
13, 94800, Note_on_c, 11, 66, 76
13, 95024, Note_on_c, 11, 66, 0
13, 95040, Note_on_c, 11, 62, 76
13, 95264, Note_on_c, 11, 62, 0
13, 95280, Note_on_c, 11, 62, 76
13, 95504, Note_on_c, 11, 62, 0
13, 95520, Note_on_c, 11, 61, 76
13, 95624, Note_on_c, 11, 61, 0
13, 95640, Note_on_c, 11, 62, 76
13, 95744, Note_on_c, 11, 62, 0
13, 95760, Note_on_c, 11, 57, 76
13, 96224, Note_on_c, 11, 57, 0
13, 96240, Note_on_c, 11, 69, 76
13, 96344, Note_on_c, 11, 69, 0
13, 96360, Note_on_c, 11, 68, 76
13, 96464, Note_on_c, 11, 68, 0
13, 96480, Note_on_c, 11, 69, 76
13, 96704, Note_on_c, 11, 69, 0
13, 96720, Note_on_c, 11, 61, 76
13, 96824, Note_on_c, 11, 61, 0
13, 96840, Note_on_c, 11, 59, 76
13, 96944, Note_on_c, 11, 59, 0
13, 96960, Note_on_c, 11, 61, 76
13, 97184, Note_on_c, 11, 61, 0
13, 97200, Note_on_c, 11, 64, 76
13, 97304, Note_on_c, 11, 64, 0
13, 97320, Note_on_c, 11, 62, 76
13, 97424, Note_on_c, 11, 62, 0
13, 97440, Note_on_c, 11, 64, 76
13, 97664, Note_on_c, 11, 64, 0
13, 97680, Note_on_c, 11, 57, 76
13, 98144, Note_on_c, 11, 57, 0
13, 98160, Note_on_c, 11, 76, 76
13, 98384, Note_on_c, 11, 76, 0
13, 98400, Note_on_c, 11, 74, 76
13, 98864, Note_on_c, 11, 74, 0
13, 98880, Note_on_c, 11, 73, 76
13, 99344, Note_on_c, 11, 73, 0
13, 99360, Note_on_c, 11, 71, 76
13, 99824, Note_on_c, 11, 71, 0
13, 99840, Note_on_c, 11, 70, 76
13, 100064, Note_on_c, 11, 70, 0
13, 100080, Note_on_c, 11, 71, 76
13, 101024, Note_on_c, 11, 71, 0
13, 101040, Note_on_c, 11, 73, 76
13, 101504, Note_on_c, 11, 73, 0
13, 101520, Note_on_c, 11, 75, 76
13, 101984, Note_on_c, 11, 75, 0
13, 102000, Note_on_c, 11, 76, 76
13, 102224, Note_on_c, 11, 76, 0
13, 102240, Note_on_c, 11, 70, 76
13, 102464, Note_on_c, 11, 70, 0
13, 102480, Note_on_c, 11, 71, 76
13, 102704, Note_on_c, 11, 71, 0
13, 102720, Note_on_c, 11, 62, 76
13, 102944, Note_on_c, 11, 62, 0
13, 102960, Note_on_c, 11, 64, 76
13, 103184, Note_on_c, 11, 64, 0
13, 103200, Note_on_c, 11, 61, 76
13, 103424, Note_on_c, 11, 61, 0
13, 103440, Note_on_c, 11, 62, 76
13, 103904, Note_on_c, 11, 62, 0
13, 103920, Note_on_c, 11, 62, 76
13, 105824, Note_on_c, 11, 62, 0
13, 105840, Note_on_c, 11, 69, 76
13, 106064, Note_on_c, 11, 69, 0
13, 106080, Note_on_c, 11, 69, 76
13, 106304, Note_on_c, 11, 69, 0
13, 106320, Note_on_c, 11, 69, 76
13, 106544, Note_on_c, 11, 69, 0
13, 106560, Note_on_c, 11, 67, 76
13, 106664, Note_on_c, 11, 67, 0
13, 106680, Note_on_c, 11, 66, 76
13, 106784, Note_on_c, 11, 66, 0
13, 106800, Note_on_c, 11, 64, 76
13, 107024, Note_on_c, 11, 64, 0
13, 107040, Note_on_c, 11, 69, 76
13, 107264, Note_on_c, 11, 69, 0
13, 107280, Note_on_c, 11, 69, 76
13, 107399, Note_on_c, 11, 69, 0
13, 107400, Note_on_c, 11, 67, 76
13, 107519, Note_on_c, 11, 67, 0
13, 107520, Note_on_c, 11, 66, 76
13, 107639, Note_on_c, 11, 66, 0
13, 107640, Note_on_c, 11, 64, 76
13, 107744, Note_on_c, 11, 64, 0
13, 107760, Note_on_c, 11, 62, 76
13, 107984, Note_on_c, 11, 62, 0
13, 108000, Note_on_c, 11, 62, 76
13, 108224, Note_on_c, 11, 62, 0
13, 108240, Note_on_c, 11, 62, 76
13, 108344, Note_on_c, 11, 62, 0
13, 108360, Note_on_c, 11, 64, 76
13, 108464, Note_on_c, 11, 64, 0
13, 108480, Note_on_c, 11, 66, 76
13, 108584, Note_on_c, 11, 66, 0
13, 108600, Note_on_c, 11, 62, 76
13, 108704, Note_on_c, 11, 62, 0
13, 108720, Note_on_c, 11, 67, 76
13, 108944, Note_on_c, 11, 67, 0
13, 108960, Note_on_c, 11, 67, 76
13, 109184, Note_on_c, 11, 67, 0
13, 109200, Note_on_c, 11, 67, 76
13, 109664, Note_on_c, 11, 67, 0
13, 109680, Note_on_c, 11, 66, 76
13, 109904, Note_on_c, 11, 66, 0
13, 109920, Note_on_c, 11, 69, 76
13, 110144, Note_on_c, 11, 69, 0
13, 110160, Note_on_c, 11, 66, 76
13, 110384, Note_on_c, 11, 66, 0
13, 110400, Note_on_c, 11, 62, 76
13, 110624, Note_on_c, 11, 62, 0
13, 110640, Note_on_c, 11, 62, 76
13, 110864, Note_on_c, 11, 62, 0
13, 110880, Note_on_c, 11, 61, 76
13, 110984, Note_on_c, 11, 61, 0
13, 111000, Note_on_c, 11, 62, 76
13, 111104, Note_on_c, 11, 62, 0
13, 111120, Note_on_c, 11, 57, 76
13, 111584, Note_on_c, 11, 57, 0
13, 111840, Note_on_c, 11, 66, 76
13, 112064, Note_on_c, 11, 66, 0
13, 112080, Note_on_c, 11, 78, 76
13, 112184, Note_on_c, 11, 78, 0
13, 112200, Note_on_c, 11, 74, 76
13, 112304, Note_on_c, 11, 74, 0
13, 112320, Note_on_c, 11, 76, 76
13, 112784, Note_on_c, 11, 76, 0
13, 112800, Note_on_c, 11, 64, 76
13, 113024, Note_on_c, 11, 64, 0
13, 113040, Note_on_c, 11, 76, 76
13, 113144, Note_on_c, 11, 76, 0
13, 113160, Note_on_c, 11, 73, 76
13, 113264, Note_on_c, 11, 73, 0
13, 113280, Note_on_c, 11, 74, 76
13, 113744, Note_on_c, 11, 74, 0
13, 113760, Note_on_c, 11, 62, 76
13, 113984, Note_on_c, 11, 62, 0
13, 114000, Note_on_c, 11, 64, 76
13, 114224, Note_on_c, 11, 64, 0
13, 114240, Note_on_c, 11, 57, 76
13, 114464, Note_on_c, 11, 57, 0
13, 114480, Note_on_c, 11, 62, 76
13, 114704, Note_on_c, 11, 62, 0
13, 114720, Note_on_c, 11, 62, 76
13, 114944, Note_on_c, 11, 62, 0
13, 114960, Note_on_c, 11, 61, 76
13, 115184, Note_on_c, 11, 61, 0
13, 115200, Note_on_c, 11, 57, 76
13, 115664, Note_on_c, 11, 57, 0
13, 115680, Note_on_c, 11, 66, 76
13, 115904, Note_on_c, 11, 66, 0
13, 115920, Note_on_c, 11, 78, 76
13, 116024, Note_on_c, 11, 78, 0
13, 116040, Note_on_c, 11, 74, 76
13, 116144, Note_on_c, 11, 74, 0
13, 116160, Note_on_c, 11, 76, 76
13, 116624, Note_on_c, 11, 76, 0
13, 116640, Note_on_c, 11, 64, 76
13, 116864, Note_on_c, 11, 64, 0
13, 116880, Note_on_c, 11, 76, 76
13, 116984, Note_on_c, 11, 76, 0
13, 117000, Note_on_c, 11, 73, 76
13, 117104, Note_on_c, 11, 73, 0
13, 117120, Note_on_c, 11, 74, 76
13, 117584, Note_on_c, 11, 74, 0
13, 117600, Note_on_c, 11, 74, 76
13, 117824, Note_on_c, 11, 74, 0
13, 117840, Note_on_c, 11, 71, 76
13, 118064, Note_on_c, 11, 71, 0
13, 118080, Note_on_c, 11, 76, 76
13, 118304, Note_on_c, 11, 76, 0
13, 118320, Note_on_c, 11, 74, 76
13, 118424, Note_on_c, 11, 74, 0
13, 118440, Note_on_c, 11, 73, 76
13, 118544, Note_on_c, 11, 73, 0
13, 118560, Note_on_c, 11, 71, 76
13, 118784, Note_on_c, 11, 71, 0
13, 118800, Note_on_c, 11, 68, 76
13, 119024, Note_on_c, 11, 68, 0
13, 119040, Note_on_c, 11, 69, 76
13, 119264, Note_on_c, 11, 69, 0
13, 119280, Note_on_c, 11, 69, 76
13, 119504, Note_on_c, 11, 69, 0
13, 119520, Note_on_c, 11, 69, 76
13, 119744, Note_on_c, 11, 69, 0
13, 119760, Note_on_c, 11, 69, 76
13, 119984, Note_on_c, 11, 69, 0
13, 120000, Note_on_c, 11, 66, 76
13, 120224, Note_on_c, 11, 66, 0
13, 120240, Note_on_c, 11, 66, 76
13, 120464, Note_on_c, 11, 66, 0
13, 120480, Note_on_c, 11, 64, 76
13, 120704, Note_on_c, 11, 64, 0
13, 120720, Note_on_c, 11, 64, 76
13, 120944, Note_on_c, 11, 64, 0
13, 120960, Note_on_c, 11, 64, 76
13, 121424, Note_on_c, 11, 64, 0
13, 121440, Note_on_c, 11, 66, 76
13, 121664, Note_on_c, 11, 66, 0
13, 121680, Note_on_c, 11, 78, 76
13, 121784, Note_on_c, 11, 78, 0
13, 121800, Note_on_c, 11, 74, 76
13, 121904, Note_on_c, 11, 74, 0
13, 121920, Note_on_c, 11, 76, 76
13, 122384, Note_on_c, 11, 76, 0
13, 122400, Note_on_c, 11, 64, 76
13, 122624, Note_on_c, 11, 64, 0
13, 122640, Note_on_c, 11, 76, 76
13, 122744, Note_on_c, 11, 76, 0
13, 122760, Note_on_c, 11, 73, 76
13, 122864, Note_on_c, 11, 73, 0
13, 122880, Note_on_c, 11, 74, 76
13, 123344, Note_on_c, 11, 74, 0
13, 123360, Note_on_c, 11, 62, 76
13, 123584, Note_on_c, 11, 62, 0
13, 123600, Note_on_c, 11, 64, 76
13, 123824, Note_on_c, 11, 64, 0
13, 123840, Note_on_c, 11, 57, 76
13, 124064, Note_on_c, 11, 57, 0
13, 124080, Note_on_c, 11, 62, 76
13, 124304, Note_on_c, 11, 62, 0
13, 124320, Note_on_c, 11, 62, 76
13, 124544, Note_on_c, 11, 62, 0
13, 124560, Note_on_c, 11, 61, 76
13, 124784, Note_on_c, 11, 61, 0
13, 124800, Note_on_c, 11, 57, 76
13, 125264, Note_on_c, 11, 57, 0
13, 125280, Note_on_c, 11, 66, 76
13, 125504, Note_on_c, 11, 66, 0
13, 125520, Note_on_c, 11, 78, 76
13, 125624, Note_on_c, 11, 78, 0
13, 125640, Note_on_c, 11, 74, 76
13, 125744, Note_on_c, 11, 74, 0
13, 125760, Note_on_c, 11, 76, 76
13, 126224, Note_on_c, 11, 76, 0
13, 126240, Note_on_c, 11, 64, 76
13, 126464, Note_on_c, 11, 64, 0
13, 126480, Note_on_c, 11, 76, 76
13, 126584, Note_on_c, 11, 76, 0
13, 126600, Note_on_c, 11, 73, 76
13, 126704, Note_on_c, 11, 73, 0
13, 126720, Note_on_c, 11, 74, 76
13, 127184, Note_on_c, 11, 74, 0
13, 127200, Note_on_c, 11, 74, 76
13, 127424, Note_on_c, 11, 74, 0
13, 127440, Note_on_c, 11, 71, 76
13, 127664, Note_on_c, 11, 71, 0
13, 127680, Note_on_c, 11, 76, 76
13, 127904, Note_on_c, 11, 76, 0
13, 127920, Note_on_c, 11, 74, 76
13, 128024, Note_on_c, 11, 74, 0
13, 128040, Note_on_c, 11, 73, 76
13, 128144, Note_on_c, 11, 73, 0
13, 128160, Note_on_c, 11, 71, 76
13, 128384, Note_on_c, 11, 71, 0
13, 128400, Note_on_c, 11, 68, 76
13, 128624, Note_on_c, 11, 68, 0
13, 128640, Note_on_c, 11, 69, 76
13, 128864, Note_on_c, 11, 69, 0
13, 128880, Note_on_c, 11, 69, 76
13, 129104, Note_on_c, 11, 69, 0
13, 129120, Note_on_c, 11, 69, 76
13, 129344, Note_on_c, 11, 69, 0
13, 129360, Note_on_c, 11, 69, 76
13, 129584, Note_on_c, 11, 69, 0
13, 129600, Note_on_c, 11, 66, 76
13, 129824, Note_on_c, 11, 66, 0
13, 129840, Note_on_c, 11, 66, 76
13, 130064, Note_on_c, 11, 66, 0
13, 130080, Note_on_c, 11, 64, 76
13, 130304, Note_on_c, 11, 64, 0
13, 130320, Note_on_c, 11, 64, 76
13, 130544, Note_on_c, 11, 64, 0
13, 130560, Note_on_c, 11, 64, 76
13, 131024, Note_on_c, 11, 64, 0
13, 131040, Note_on_c, 11, 64, 76
13, 131264, Note_on_c, 11, 64, 0
13, 131280, Note_on_c, 11, 76, 76
13, 131504, Note_on_c, 11, 76, 0
13, 131520, Note_on_c, 11, 76, 76
13, 131744, Note_on_c, 11, 76, 0
13, 131760, Note_on_c, 11, 66, 76
13, 131864, Note_on_c, 11, 66, 0
13, 131880, Note_on_c, 11, 64, 76
13, 131984, Note_on_c, 11, 64, 0
13, 132000, Note_on_c, 11, 66, 76
13, 132224, Note_on_c, 11, 66, 0
13, 132240, Note_on_c, 11, 78, 76
13, 132464, Note_on_c, 11, 78, 0
13, 132480, Note_on_c, 11, 78, 76
13, 132704, Note_on_c, 11, 78, 0
13, 132720, Note_on_c, 11, 67, 76
13, 132824, Note_on_c, 11, 67, 0
13, 132840, Note_on_c, 11, 66, 76
13, 132944, Note_on_c, 11, 66, 0
13, 132960, Note_on_c, 11, 67, 76
13, 133184, Note_on_c, 11, 67, 0
13, 133200, Note_on_c, 11, 66, 76
13, 133424, Note_on_c, 11, 66, 0
13, 133440, Note_on_c, 11, 71, 76
13, 133664, Note_on_c, 11, 71, 0
13, 133680, Note_on_c, 11, 70, 76
13, 133904, Note_on_c, 11, 70, 0
13, 133920, Note_on_c, 11, 71, 76
13, 134144, Note_on_c, 11, 71, 0
13, 134160, Note_on_c, 11, 71, 76
13, 134384, Note_on_c, 11, 71, 0
13, 134400, Note_on_c, 11, 71, 76
13, 134624, Note_on_c, 11, 71, 0
13, 134640, Note_on_c, 11, 70, 76
13, 134864, Note_on_c, 11, 70, 0
13, 134880, Note_on_c, 11, 62, 76
13, 135104, Note_on_c, 11, 62, 0
13, 135120, Note_on_c, 11, 74, 76
13, 135344, Note_on_c, 11, 74, 0
13, 135360, Note_on_c, 11, 74, 76
13, 135584, Note_on_c, 11, 74, 0
13, 135600, Note_on_c, 11, 73, 76
13, 135704, Note_on_c, 11, 73, 0
13, 135720, Note_on_c, 11, 71, 76
13, 135824, Note_on_c, 11, 71, 0
13, 135840, Note_on_c, 11, 73, 76
13, 136064, Note_on_c, 11, 73, 0
13, 136080, Note_on_c, 11, 70, 76
13, 136304, Note_on_c, 11, 70, 0
13, 136320, Note_on_c, 11, 71, 76
13, 136544, Note_on_c, 11, 71, 0
13, 136560, Note_on_c, 11, 62, 76
13, 136784, Note_on_c, 11, 62, 0
13, 136800, Note_on_c, 11, 64, 76
13, 137024, Note_on_c, 11, 64, 0
13, 137040, Note_on_c, 11, 66, 76
13, 137144, Note_on_c, 11, 66, 0
13, 137160, Note_on_c, 11, 67, 76
13, 137264, Note_on_c, 11, 67, 0
13, 137280, Note_on_c, 11, 66, 76
13, 137504, Note_on_c, 11, 66, 0
13, 137520, Note_on_c, 11, 71, 76
13, 137744, Note_on_c, 11, 71, 0
13, 137760, Note_on_c, 11, 71, 76
13, 137984, Note_on_c, 11, 71, 0
13, 138000, Note_on_c, 11, 70, 76
13, 138224, Note_on_c, 11, 70, 0
13, 138240, Note_on_c, 11, 66, 76
13, 138704, Note_on_c, 11, 66, 0
13, 138720, Note_on_c, 11, 67, 76
13, 138944, Note_on_c, 11, 67, 0
13, 138960, Note_on_c, 11, 74, 76
13, 139064, Note_on_c, 11, 74, 0
13, 139080, Note_on_c, 11, 71, 76
13, 139184, Note_on_c, 11, 71, 0
13, 139200, Note_on_c, 11, 72, 76
13, 139664, Note_on_c, 11, 72, 0
13, 139680, Note_on_c, 11, 66, 76
13, 139904, Note_on_c, 11, 66, 0
13, 139920, Note_on_c, 11, 78, 76
13, 140024, Note_on_c, 11, 78, 0
13, 140040, Note_on_c, 11, 75, 76
13, 140144, Note_on_c, 11, 75, 0
13, 140160, Note_on_c, 11, 76, 76
13, 140624, Note_on_c, 11, 76, 0
13, 140640, Note_on_c, 11, 64, 76
13, 140864, Note_on_c, 11, 64, 0
13, 140880, Note_on_c, 11, 76, 76
13, 141104, Note_on_c, 11, 76, 0
13, 141120, Note_on_c, 11, 74, 76
13, 141344, Note_on_c, 11, 74, 0
13, 141360, Note_on_c, 11, 66, 76
13, 141584, Note_on_c, 11, 66, 0
13, 141600, Note_on_c, 11, 71, 76
13, 141824, Note_on_c, 11, 71, 0
13, 141840, Note_on_c, 11, 71, 76
13, 142064, Note_on_c, 11, 71, 0
13, 142080, Note_on_c, 11, 69, 76
13, 142544, Note_on_c, 11, 69, 0
13, 142560, Note_on_c, 11, 69, 76
13, 142784, Note_on_c, 11, 69, 0
13, 142800, Note_on_c, 11, 81, 76
13, 143024, Note_on_c, 11, 81, 0
13, 143040, Note_on_c, 11, 79, 76
13, 143264, Note_on_c, 11, 79, 0
13, 143280, Note_on_c, 11, 67, 76
13, 143384, Note_on_c, 11, 67, 0
13, 143400, Note_on_c, 11, 66, 76
13, 143504, Note_on_c, 11, 66, 0
13, 143520, Note_on_c, 11, 67, 76
13, 143744, Note_on_c, 11, 67, 0
13, 143760, Note_on_c, 11, 64, 76
13, 143984, Note_on_c, 11, 64, 0
13, 144000, Note_on_c, 11, 69, 76
13, 144464, Note_on_c, 11, 69, 0
13, 144480, Note_on_c, 11, 76, 76
13, 144704, Note_on_c, 11, 76, 0
13, 144720, Note_on_c, 11, 73, 76
13, 144944, Note_on_c, 11, 73, 0
13, 144960, Note_on_c, 11, 74, 76
13, 145184, Note_on_c, 11, 74, 0
13, 145200, Note_on_c, 11, 71, 76
13, 145424, Note_on_c, 11, 71, 0
13, 145440, Note_on_c, 11, 69, 76
13, 145664, Note_on_c, 11, 69, 0
13, 145680, Note_on_c, 11, 69, 76
13, 145904, Note_on_c, 11, 69, 0
13, 145920, Note_on_c, 11, 69, 76
13, 146384, Note_on_c, 11, 69, 0
13, 146400, Note_on_c, 11, 64, 76
13, 146624, Note_on_c, 11, 64, 0
13, 146640, Note_on_c, 11, 76, 76
13, 146864, Note_on_c, 11, 76, 0
13, 146880, Note_on_c, 11, 76, 76
13, 147104, Note_on_c, 11, 76, 0
13, 147120, Note_on_c, 11, 66, 76
13, 147224, Note_on_c, 11, 66, 0
13, 147240, Note_on_c, 11, 64, 76
13, 147344, Note_on_c, 11, 64, 0
13, 147360, Note_on_c, 11, 66, 76
13, 147584, Note_on_c, 11, 66, 0
13, 147600, Note_on_c, 11, 78, 76
13, 147824, Note_on_c, 11, 78, 0
13, 147840, Note_on_c, 11, 78, 76
13, 148064, Note_on_c, 11, 78, 0
13, 148080, Note_on_c, 11, 67, 76
13, 148184, Note_on_c, 11, 67, 0
13, 148200, Note_on_c, 11, 66, 76
13, 148304, Note_on_c, 11, 66, 0
13, 148320, Note_on_c, 11, 67, 76
13, 148544, Note_on_c, 11, 67, 0
13, 148560, Note_on_c, 11, 66, 76
13, 148784, Note_on_c, 11, 66, 0
13, 148800, Note_on_c, 11, 71, 76
13, 149024, Note_on_c, 11, 71, 0
13, 149040, Note_on_c, 11, 70, 76
13, 149264, Note_on_c, 11, 70, 0
13, 149280, Note_on_c, 11, 71, 76
13, 149504, Note_on_c, 11, 71, 0
13, 149520, Note_on_c, 11, 71, 76
13, 149744, Note_on_c, 11, 71, 0
13, 149760, Note_on_c, 11, 71, 76
13, 149984, Note_on_c, 11, 71, 0
13, 150000, Note_on_c, 11, 70, 76
13, 150224, Note_on_c, 11, 70, 0
13, 150240, Note_on_c, 11, 62, 76
13, 150464, Note_on_c, 11, 62, 0
13, 150480, Note_on_c, 11, 74, 76
13, 150704, Note_on_c, 11, 74, 0
13, 150720, Note_on_c, 11, 74, 76
13, 150944, Note_on_c, 11, 74, 0
13, 150960, Note_on_c, 11, 73, 76
13, 151064, Note_on_c, 11, 73, 0
13, 151080, Note_on_c, 11, 71, 76
13, 151184, Note_on_c, 11, 71, 0
13, 151200, Note_on_c, 11, 73, 76
13, 151424, Note_on_c, 11, 73, 0
13, 151440, Note_on_c, 11, 70, 76
13, 151664, Note_on_c, 11, 70, 0
13, 151680, Note_on_c, 11, 71, 76
13, 151904, Note_on_c, 11, 71, 0
13, 151920, Note_on_c, 11, 62, 76
13, 152144, Note_on_c, 11, 62, 0
13, 152160, Note_on_c, 11, 64, 76
13, 152384, Note_on_c, 11, 64, 0
13, 152400, Note_on_c, 11, 66, 76
13, 152504, Note_on_c, 11, 66, 0
13, 152520, Note_on_c, 11, 67, 76
13, 152624, Note_on_c, 11, 67, 0
13, 152640, Note_on_c, 11, 66, 76
13, 152864, Note_on_c, 11, 66, 0
13, 152880, Note_on_c, 11, 71, 76
13, 153104, Note_on_c, 11, 71, 0
13, 153120, Note_on_c, 11, 71, 76
13, 153344, Note_on_c, 11, 71, 0
13, 153360, Note_on_c, 11, 70, 76
13, 153584, Note_on_c, 11, 70, 0
13, 153600, Note_on_c, 11, 66, 76
13, 154064, Note_on_c, 11, 66, 0
13, 154080, Note_on_c, 11, 67, 76
13, 154304, Note_on_c, 11, 67, 0
13, 154320, Note_on_c, 11, 74, 76
13, 154424, Note_on_c, 11, 74, 0
13, 154440, Note_on_c, 11, 71, 76
13, 154544, Note_on_c, 11, 71, 0
13, 154560, Note_on_c, 11, 72, 76
13, 155024, Note_on_c, 11, 72, 0
13, 155040, Note_on_c, 11, 66, 76
13, 155264, Note_on_c, 11, 66, 0
13, 155280, Note_on_c, 11, 78, 76
13, 155384, Note_on_c, 11, 78, 0
13, 155400, Note_on_c, 11, 75, 76
13, 155504, Note_on_c, 11, 75, 0
13, 155520, Note_on_c, 11, 76, 76
13, 155984, Note_on_c, 11, 76, 0
13, 156000, Note_on_c, 11, 64, 76
13, 156224, Note_on_c, 11, 64, 0
13, 156240, Note_on_c, 11, 76, 76
13, 156464, Note_on_c, 11, 76, 0
13, 156480, Note_on_c, 11, 74, 76
13, 156704, Note_on_c, 11, 74, 0
13, 156720, Note_on_c, 11, 66, 76
13, 156944, Note_on_c, 11, 66, 0
13, 156960, Note_on_c, 11, 71, 76
13, 157184, Note_on_c, 11, 71, 0
13, 157200, Note_on_c, 11, 71, 76
13, 157424, Note_on_c, 11, 71, 0
13, 157440, Note_on_c, 11, 69, 76
13, 157904, Note_on_c, 11, 69, 0
13, 157920, Note_on_c, 11, 69, 76
13, 158144, Note_on_c, 11, 69, 0
13, 158160, Note_on_c, 11, 81, 76
13, 158384, Note_on_c, 11, 81, 0
13, 158400, Note_on_c, 11, 79, 76
13, 158624, Note_on_c, 11, 79, 0
13, 158640, Note_on_c, 11, 67, 76
13, 158744, Note_on_c, 11, 67, 0
13, 158760, Note_on_c, 11, 66, 76
13, 158864, Note_on_c, 11, 66, 0
13, 158880, Note_on_c, 11, 67, 76
13, 159104, Note_on_c, 11, 67, 0
13, 159120, Note_on_c, 11, 64, 76
13, 159344, Note_on_c, 11, 64, 0
13, 159360, Note_on_c, 11, 69, 76
13, 159824, Note_on_c, 11, 69, 0
13, 159840, Note_on_c, 11, 76, 76
13, 160064, Note_on_c, 11, 76, 0
13, 160080, Note_on_c, 11, 73, 76
13, 160304, Note_on_c, 11, 73, 0
13, 160320, Note_on_c, 11, 74, 76
13, 160544, Note_on_c, 11, 74, 0
13, 160560, Note_on_c, 11, 71, 76
13, 160784, Note_on_c, 11, 71, 0
13, 160800, Note_on_c, 11, 69, 76
13, 161024, Note_on_c, 11, 69, 0
13, 161040, Note_on_c, 11, 69, 76
13, 161264, Note_on_c, 11, 69, 0
13, 161280, Note_on_c, 11, 69, 76
13, 161759, Note_on_c, 11, 69, 0
13, 161759, End_track
14, 0, Start_track
14, 0, Title_t, "Viola"
14, 0, MIDI_port, 0
14, 0, Program_c, 12, 48
14, 0, Control_c, 12, 10, 70
14, 0, Control_c, 12, 11, 127
14, 0, Control_c, 12, 7, 96
14, 0, Note_on_c, 12, 62, 76
14, 224, Note_on_c, 12, 62, 0
14, 240, Note_on_c, 12, 62, 76
14, 464, Note_on_c, 12, 62, 0
14, 480, Note_on_c, 12, 69, 76
14, 944, Note_on_c, 12, 69, 0
14, 960, Note_on_c, 12, 69, 76
14, 1184, Note_on_c, 12, 69, 0
14, 1200, Note_on_c, 12, 69, 76
14, 1424, Note_on_c, 12, 69, 0
14, 1440, Note_on_c, 12, 69, 76
14, 1904, Note_on_c, 12, 69, 0
14, 1920, Note_on_c, 12, 69, 76
14, 2144, Note_on_c, 12, 69, 0
14, 2160, Note_on_c, 12, 61, 76
14, 2384, Note_on_c, 12, 61, 0
14, 2400, Note_on_c, 12, 66, 76
14, 2624, Note_on_c, 12, 66, 0
14, 2640, Note_on_c, 12, 64, 76
14, 2864, Note_on_c, 12, 64, 0
14, 2880, Note_on_c, 12, 66, 76
14, 3104, Note_on_c, 12, 66, 0
14, 3120, Note_on_c, 12, 64, 76
14, 3344, Note_on_c, 12, 64, 0
14, 3360, Note_on_c, 12, 62, 76
14, 3824, Note_on_c, 12, 62, 0
14, 3840, Note_on_c, 12, 62, 76
14, 4064, Note_on_c, 12, 62, 0
14, 4080, Note_on_c, 12, 62, 76
14, 4304, Note_on_c, 12, 62, 0
14, 4320, Note_on_c, 12, 69, 76
14, 4784, Note_on_c, 12, 69, 0
14, 4800, Note_on_c, 12, 69, 76
14, 5024, Note_on_c, 12, 69, 0
14, 5040, Note_on_c, 12, 69, 76
14, 5264, Note_on_c, 12, 69, 0
14, 5280, Note_on_c, 12, 69, 76
14, 5744, Note_on_c, 12, 69, 0
14, 5760, Note_on_c, 12, 71, 76
14, 5984, Note_on_c, 12, 71, 0
14, 6000, Note_on_c, 12, 68, 76
14, 6224, Note_on_c, 12, 68, 0
14, 6240, Note_on_c, 12, 64, 76
14, 6464, Note_on_c, 12, 64, 0
14, 6480, Note_on_c, 12, 64, 76
14, 6704, Note_on_c, 12, 64, 0
14, 6720, Note_on_c, 12, 64, 76
14, 6944, Note_on_c, 12, 64, 0
14, 6960, Note_on_c, 12, 64, 76
14, 7184, Note_on_c, 12, 64, 0
14, 7200, Note_on_c, 12, 64, 76
14, 7424, Note_on_c, 12, 64, 0
14, 7440, Note_on_c, 12, 62, 76
14, 7664, Note_on_c, 12, 62, 0
14, 7680, Note_on_c, 12, 57, 76
14, 7904, Note_on_c, 12, 57, 0
14, 7920, Note_on_c, 12, 57, 76
14, 8144, Note_on_c, 12, 57, 0
14, 8160, Note_on_c, 12, 62, 76
14, 8384, Note_on_c, 12, 62, 0
14, 8400, Note_on_c, 12, 62, 76
14, 8624, Note_on_c, 12, 62, 0
14, 8640, Note_on_c, 12, 61, 76
14, 8864, Note_on_c, 12, 61, 0
14, 8880, Note_on_c, 12, 59, 76
14, 9104, Note_on_c, 12, 59, 0
14, 9120, Note_on_c, 12, 61, 76
14, 9584, Note_on_c, 12, 61, 0
14, 9600, Note_on_c, 12, 62, 76
14, 9824, Note_on_c, 12, 62, 0
14, 9840, Note_on_c, 12, 62, 76
14, 10064, Note_on_c, 12, 62, 0
14, 10080, Note_on_c, 12, 69, 76
14, 10544, Note_on_c, 12, 69, 0
14, 10560, Note_on_c, 12, 69, 76
14, 10784, Note_on_c, 12, 69, 0
14, 10800, Note_on_c, 12, 69, 76
14, 11024, Note_on_c, 12, 69, 0
14, 11040, Note_on_c, 12, 69, 76
14, 11504, Note_on_c, 12, 69, 0
14, 11520, Note_on_c, 12, 69, 76
14, 11744, Note_on_c, 12, 69, 0
14, 11760, Note_on_c, 12, 61, 76
14, 11984, Note_on_c, 12, 61, 0
14, 12000, Note_on_c, 12, 66, 76
14, 12224, Note_on_c, 12, 66, 0
14, 12240, Note_on_c, 12, 64, 76
14, 12464, Note_on_c, 12, 64, 0
14, 12480, Note_on_c, 12, 66, 76
14, 12704, Note_on_c, 12, 66, 0
14, 12720, Note_on_c, 12, 64, 76
14, 12944, Note_on_c, 12, 64, 0
14, 12960, Note_on_c, 12, 62, 76
14, 13424, Note_on_c, 12, 62, 0
14, 13440, Note_on_c, 12, 62, 76
14, 13664, Note_on_c, 12, 62, 0
14, 13680, Note_on_c, 12, 62, 76
14, 13904, Note_on_c, 12, 62, 0
14, 13920, Note_on_c, 12, 69, 76
14, 14384, Note_on_c, 12, 69, 0
14, 14400, Note_on_c, 12, 69, 76
14, 14624, Note_on_c, 12, 69, 0
14, 14640, Note_on_c, 12, 69, 76
14, 14864, Note_on_c, 12, 69, 0
14, 14880, Note_on_c, 12, 69, 76
14, 15344, Note_on_c, 12, 69, 0
14, 15360, Note_on_c, 12, 71, 76
14, 15584, Note_on_c, 12, 71, 0
14, 15600, Note_on_c, 12, 68, 76
14, 15824, Note_on_c, 12, 68, 0
14, 15840, Note_on_c, 12, 64, 76
14, 16064, Note_on_c, 12, 64, 0
14, 16080, Note_on_c, 12, 64, 76
14, 16304, Note_on_c, 12, 64, 0
14, 16320, Note_on_c, 12, 64, 76
14, 16544, Note_on_c, 12, 64, 0
14, 16560, Note_on_c, 12, 64, 76
14, 16784, Note_on_c, 12, 64, 0
14, 16800, Note_on_c, 12, 64, 76
14, 17024, Note_on_c, 12, 64, 0
14, 17040, Note_on_c, 12, 62, 76
14, 17264, Note_on_c, 12, 62, 0
14, 17280, Note_on_c, 12, 57, 76
14, 17504, Note_on_c, 12, 57, 0
14, 17520, Note_on_c, 12, 57, 76
14, 17744, Note_on_c, 12, 57, 0
14, 17760, Note_on_c, 12, 62, 76
14, 17984, Note_on_c, 12, 62, 0
14, 18000, Note_on_c, 12, 62, 76
14, 18224, Note_on_c, 12, 62, 0
14, 18240, Note_on_c, 12, 61, 76
14, 18464, Note_on_c, 12, 61, 0
14, 18480, Note_on_c, 12, 59, 76
14, 18704, Note_on_c, 12, 59, 0
14, 18720, Note_on_c, 12, 61, 76
14, 19184, Note_on_c, 12, 61, 0
14, 19200, Note_on_c, 12, 61, 76
14, 19424, Note_on_c, 12, 61, 0
14, 19440, Note_on_c, 12, 57, 76
14, 19664, Note_on_c, 12, 57, 0
14, 19680, Note_on_c, 12, 57, 76
14, 19904, Note_on_c, 12, 57, 0
14, 19920, Note_on_c, 12, 59, 76
14, 20024, Note_on_c, 12, 59, 0
14, 20040, Note_on_c, 12, 61, 76
14, 20144, Note_on_c, 12, 61, 0
14, 20160, Note_on_c, 12, 62, 76
14, 20384, Note_on_c, 12, 62, 0
14, 20400, Note_on_c, 12, 59, 76
14, 20624, Note_on_c, 12, 59, 0
14, 20640, Note_on_c, 12, 59, 76
14, 21104, Note_on_c, 12, 59, 0
14, 21120, Note_on_c, 12, 64, 76
14, 21344, Note_on_c, 12, 64, 0
14, 21360, Note_on_c, 12, 64, 76
14, 21584, Note_on_c, 12, 64, 0
14, 21600, Note_on_c, 12, 62, 76
14, 21824, Note_on_c, 12, 62, 0
14, 21840, Note_on_c, 12, 66, 76
14, 22064, Note_on_c, 12, 66, 0
14, 22080, Note_on_c, 12, 64, 76
14, 22304, Note_on_c, 12, 64, 0
14, 22320, Note_on_c, 12, 62, 76
14, 22544, Note_on_c, 12, 62, 0
14, 22560, Note_on_c, 12, 61, 76
14, 23024, Note_on_c, 12, 61, 0
14, 23040, Note_on_c, 12, 59, 76
14, 23264, Note_on_c, 12, 59, 0
14, 23280, Note_on_c, 12, 59, 76
14, 23504, Note_on_c, 12, 59, 0
14, 23520, Note_on_c, 12, 59, 76
14, 23744, Note_on_c, 12, 59, 0
14, 23760, Note_on_c, 12, 58, 76
14, 23864, Note_on_c, 12, 58, 0
14, 23880, Note_on_c, 12, 61, 76
14, 23984, Note_on_c, 12, 61, 0
14, 24000, Note_on_c, 12, 66, 76
14, 24224, Note_on_c, 12, 66, 0
14, 24240, Note_on_c, 12, 66, 76
14, 24464, Note_on_c, 12, 66, 0
14, 24480, Note_on_c, 12, 66, 76
14, 24704, Note_on_c, 12, 66, 0
14, 24720, Note_on_c, 12, 67, 76
14, 24944, Note_on_c, 12, 67, 0
14, 24960, Note_on_c, 12, 67, 76
14, 25184, Note_on_c, 12, 67, 0
14, 25200, Note_on_c, 12, 66, 76
14, 25304, Note_on_c, 12, 66, 0
14, 25320, Note_on_c, 12, 64, 76
14, 25424, Note_on_c, 12, 64, 0
14, 25440, Note_on_c, 12, 62, 76
14, 25664, Note_on_c, 12, 62, 0
14, 25680, Note_on_c, 12, 61, 76
14, 25904, Note_on_c, 12, 61, 0
14, 25920, Note_on_c, 12, 61, 76
14, 26144, Note_on_c, 12, 61, 0
14, 26160, Note_on_c, 12, 66, 76
14, 26384, Note_on_c, 12, 66, 0
14, 26400, Note_on_c, 12, 62, 76
14, 26864, Note_on_c, 12, 62, 0
14, 26880, Note_on_c, 12, 62, 76
14, 27104, Note_on_c, 12, 62, 0
14, 27120, Note_on_c, 12, 67, 76
14, 27344, Note_on_c, 12, 67, 0
14, 27360, Note_on_c, 12, 64, 76
14, 27584, Note_on_c, 12, 64, 0
14, 27600, Note_on_c, 12, 63, 76
14, 27704, Note_on_c, 12, 63, 0
14, 27720, Note_on_c, 12, 64, 76
14, 27824, Note_on_c, 12, 64, 0
14, 27840, Note_on_c, 12, 66, 76
14, 28064, Note_on_c, 12, 66, 0
14, 28080, Note_on_c, 12, 63, 76
14, 28304, Note_on_c, 12, 63, 0
14, 28320, Note_on_c, 12, 59, 76
14, 28784, Note_on_c, 12, 59, 0
14, 28800, Note_on_c, 12, 57, 76
14, 29024, Note_on_c, 12, 57, 0
14, 29040, Note_on_c, 12, 57, 76
14, 29264, Note_on_c, 12, 57, 0
14, 29280, Note_on_c, 12, 69, 76
14, 29504, Note_on_c, 12, 69, 0
14, 29520, Note_on_c, 12, 71, 76
14, 29744, Note_on_c, 12, 71, 0
14, 29760, Note_on_c, 12, 64, 76
14, 29984, Note_on_c, 12, 64, 0
14, 30000, Note_on_c, 12, 64, 76
14, 30224, Note_on_c, 12, 64, 0
14, 30240, Note_on_c, 12, 64, 76
14, 30704, Note_on_c, 12, 64, 0
14, 30720, Note_on_c, 12, 66, 76
14, 30944, Note_on_c, 12, 66, 0
14, 30960, Note_on_c, 12, 62, 76
14, 31184, Note_on_c, 12, 62, 0
14, 31200, Note_on_c, 12, 62, 76
14, 31664, Note_on_c, 12, 62, 0
14, 31680, Note_on_c, 12, 59, 76
14, 31904, Note_on_c, 12, 59, 0
14, 31920, Note_on_c, 12, 64, 76
14, 32144, Note_on_c, 12, 64, 0
14, 32160, Note_on_c, 12, 64, 76
14, 32624, Note_on_c, 12, 64, 0
14, 32640, Note_on_c, 12, 64, 76
14, 32864, Note_on_c, 12, 64, 0
14, 32880, Note_on_c, 12, 69, 76
14, 33104, Note_on_c, 12, 69, 0
14, 33120, Note_on_c, 12, 69, 76
14, 33224, Note_on_c, 12, 69, 0
14, 33240, Note_on_c, 12, 67, 76
14, 33344, Note_on_c, 12, 67, 0
14, 33360, Note_on_c, 12, 66, 76
14, 33464, Note_on_c, 12, 66, 0
14, 33480, Note_on_c, 12, 67, 76
14, 33584, Note_on_c, 12, 67, 0
14, 33600, Note_on_c, 12, 64, 76
14, 33824, Note_on_c, 12, 64, 0
14, 33840, Note_on_c, 12, 64, 76
14, 34064, Note_on_c, 12, 64, 0
14, 34080, Note_on_c, 12, 66, 76
14, 34544, Note_on_c, 12, 66, 0
14, 34560, Note_on_c, 12, 61, 76
14, 34784, Note_on_c, 12, 61, 0
14, 34800, Note_on_c, 12, 57, 76
14, 35024, Note_on_c, 12, 57, 0
14, 35040, Note_on_c, 12, 57, 76
14, 35264, Note_on_c, 12, 57, 0
14, 35280, Note_on_c, 12, 59, 76
14, 35384, Note_on_c, 12, 59, 0
14, 35400, Note_on_c, 12, 61, 76
14, 35504, Note_on_c, 12, 61, 0
14, 35520, Note_on_c, 12, 62, 76
14, 35744, Note_on_c, 12, 62, 0
14, 35760, Note_on_c, 12, 59, 76
14, 35984, Note_on_c, 12, 59, 0
14, 36000, Note_on_c, 12, 59, 76
14, 36464, Note_on_c, 12, 59, 0
14, 36480, Note_on_c, 12, 64, 76
14, 36704, Note_on_c, 12, 64, 0
14, 36720, Note_on_c, 12, 64, 76
14, 36944, Note_on_c, 12, 64, 0
14, 36960, Note_on_c, 12, 62, 76
14, 37184, Note_on_c, 12, 62, 0
14, 37200, Note_on_c, 12, 66, 76
14, 37424, Note_on_c, 12, 66, 0
14, 37440, Note_on_c, 12, 64, 76
14, 37664, Note_on_c, 12, 64, 0
14, 37680, Note_on_c, 12, 62, 76
14, 37904, Note_on_c, 12, 62, 0
14, 37920, Note_on_c, 12, 61, 76
14, 38384, Note_on_c, 12, 61, 0
14, 38400, Note_on_c, 12, 59, 76
14, 38624, Note_on_c, 12, 59, 0
14, 38640, Note_on_c, 12, 59, 76
14, 38864, Note_on_c, 12, 59, 0
14, 38880, Note_on_c, 12, 59, 76
14, 39104, Note_on_c, 12, 59, 0
14, 39120, Note_on_c, 12, 58, 76
14, 39224, Note_on_c, 12, 58, 0
14, 39240, Note_on_c, 12, 61, 76
14, 39344, Note_on_c, 12, 61, 0
14, 39360, Note_on_c, 12, 66, 76
14, 39584, Note_on_c, 12, 66, 0
14, 39600, Note_on_c, 12, 66, 76
14, 39824, Note_on_c, 12, 66, 0
14, 39840, Note_on_c, 12, 66, 76
14, 40064, Note_on_c, 12, 66, 0
14, 40080, Note_on_c, 12, 67, 76
14, 40304, Note_on_c, 12, 67, 0
14, 40320, Note_on_c, 12, 67, 76
14, 40544, Note_on_c, 12, 67, 0
14, 40560, Note_on_c, 12, 66, 76
14, 40664, Note_on_c, 12, 66, 0
14, 40680, Note_on_c, 12, 64, 76
14, 40784, Note_on_c, 12, 64, 0
14, 40800, Note_on_c, 12, 62, 76
14, 41024, Note_on_c, 12, 62, 0
14, 41040, Note_on_c, 12, 61, 76
14, 41264, Note_on_c, 12, 61, 0
14, 41280, Note_on_c, 12, 61, 76
14, 41504, Note_on_c, 12, 61, 0
14, 41520, Note_on_c, 12, 66, 76
14, 41744, Note_on_c, 12, 66, 0
14, 41760, Note_on_c, 12, 62, 76
14, 42224, Note_on_c, 12, 62, 0
14, 42240, Note_on_c, 12, 62, 76
14, 42464, Note_on_c, 12, 62, 0
14, 42480, Note_on_c, 12, 67, 76
14, 42704, Note_on_c, 12, 67, 0
14, 42720, Note_on_c, 12, 64, 76
14, 42944, Note_on_c, 12, 64, 0
14, 42960, Note_on_c, 12, 63, 76
14, 43064, Note_on_c, 12, 63, 0
14, 43080, Note_on_c, 12, 64, 76
14, 43184, Note_on_c, 12, 64, 0
14, 43200, Note_on_c, 12, 66, 76
14, 43424, Note_on_c, 12, 66, 0
14, 43440, Note_on_c, 12, 63, 76
14, 43664, Note_on_c, 12, 63, 0
14, 43680, Note_on_c, 12, 59, 76
14, 44144, Note_on_c, 12, 59, 0
14, 44160, Note_on_c, 12, 57, 76
14, 44384, Note_on_c, 12, 57, 0
14, 44400, Note_on_c, 12, 57, 76
14, 44624, Note_on_c, 12, 57, 0
14, 44640, Note_on_c, 12, 69, 76
14, 44864, Note_on_c, 12, 69, 0
14, 44880, Note_on_c, 12, 71, 76
14, 45104, Note_on_c, 12, 71, 0
14, 45120, Note_on_c, 12, 64, 76
14, 45344, Note_on_c, 12, 64, 0
14, 45360, Note_on_c, 12, 64, 76
14, 45584, Note_on_c, 12, 64, 0
14, 45600, Note_on_c, 12, 64, 76
14, 46064, Note_on_c, 12, 64, 0
14, 46080, Note_on_c, 12, 66, 76
14, 46304, Note_on_c, 12, 66, 0
14, 46320, Note_on_c, 12, 62, 76
14, 46544, Note_on_c, 12, 62, 0
14, 46560, Note_on_c, 12, 62, 76
14, 47024, Note_on_c, 12, 62, 0
14, 47040, Note_on_c, 12, 59, 76
14, 47264, Note_on_c, 12, 59, 0
14, 47280, Note_on_c, 12, 64, 76
14, 47504, Note_on_c, 12, 64, 0
14, 47520, Note_on_c, 12, 64, 76
14, 47984, Note_on_c, 12, 64, 0
14, 48000, Note_on_c, 12, 64, 76
14, 48224, Note_on_c, 12, 64, 0
14, 48240, Note_on_c, 12, 69, 76
14, 48464, Note_on_c, 12, 69, 0
14, 48480, Note_on_c, 12, 69, 76
14, 48584, Note_on_c, 12, 69, 0
14, 48600, Note_on_c, 12, 67, 76
14, 48704, Note_on_c, 12, 67, 0
14, 48720, Note_on_c, 12, 66, 76
14, 48824, Note_on_c, 12, 66, 0
14, 48840, Note_on_c, 12, 67, 76
14, 48944, Note_on_c, 12, 67, 0
14, 48960, Note_on_c, 12, 64, 76
14, 49184, Note_on_c, 12, 64, 0
14, 49200, Note_on_c, 12, 64, 76
14, 49424, Note_on_c, 12, 64, 0
14, 49440, Note_on_c, 12, 66, 76
14, 49919, Note_on_c, 12, 66, 0
14, 50160, Note_on_c, 12, 74, 76
14, 50264, Note_on_c, 12, 74, 0
14, 50280, Note_on_c, 12, 73, 76
14, 50384, Note_on_c, 12, 73, 0
14, 50400, Note_on_c, 12, 74, 76
14, 50624, Note_on_c, 12, 74, 0
14, 50640, Note_on_c, 12, 66, 76
14, 50744, Note_on_c, 12, 66, 0
14, 50760, Note_on_c, 12, 64, 76
14, 50864, Note_on_c, 12, 64, 0
14, 50880, Note_on_c, 12, 66, 76
14, 51104, Note_on_c, 12, 66, 0
14, 51120, Note_on_c, 12, 69, 76
14, 51224, Note_on_c, 12, 69, 0
14, 51240, Note_on_c, 12, 67, 76
14, 51344, Note_on_c, 12, 67, 0
14, 51360, Note_on_c, 12, 69, 76
14, 51584, Note_on_c, 12, 69, 0
14, 51600, Note_on_c, 12, 62, 76
14, 51824, Note_on_c, 12, 62, 0
14, 51840, Note_on_c, 12, 64, 76
14, 52064, Note_on_c, 12, 64, 0
14, 52080, Note_on_c, 12, 66, 76
14, 52304, Note_on_c, 12, 66, 0
14, 52320, Note_on_c, 12, 62, 76
14, 52544, Note_on_c, 12, 62, 0
14, 52560, Note_on_c, 12, 67, 76
14, 52784, Note_on_c, 12, 67, 0
14, 52800, Note_on_c, 12, 64, 76
14, 53024, Note_on_c, 12, 64, 0
14, 53040, Note_on_c, 12, 69, 76
14, 53264, Note_on_c, 12, 69, 0
14, 53280, Note_on_c, 12, 57, 76
14, 53504, Note_on_c, 12, 57, 0
14, 53520, Note_on_c, 12, 62, 76
14, 53744, Note_on_c, 12, 62, 0
14, 53760, Note_on_c, 12, 66, 76
14, 53984, Note_on_c, 12, 66, 0
14, 54000, Note_on_c, 12, 74, 76
14, 54104, Note_on_c, 12, 74, 0
14, 54120, Note_on_c, 12, 73, 76
14, 54224, Note_on_c, 12, 73, 0
14, 54240, Note_on_c, 12, 74, 76
14, 54464, Note_on_c, 12, 74, 0
14, 54480, Note_on_c, 12, 66, 76
14, 54584, Note_on_c, 12, 66, 0
14, 54600, Note_on_c, 12, 64, 76
14, 54704, Note_on_c, 12, 64, 0
14, 54720, Note_on_c, 12, 66, 76
14, 54944, Note_on_c, 12, 66, 0
14, 54960, Note_on_c, 12, 69, 76
14, 55064, Note_on_c, 12, 69, 0
14, 55080, Note_on_c, 12, 67, 76
14, 55184, Note_on_c, 12, 67, 0
14, 55200, Note_on_c, 12, 69, 76
14, 55424, Note_on_c, 12, 69, 0
14, 55440, Note_on_c, 12, 62, 76
14, 55544, Note_on_c, 12, 62, 0
14, 55560, Note_on_c, 12, 64, 76
14, 55664, Note_on_c, 12, 64, 0
14, 55680, Note_on_c, 12, 66, 76
14, 55784, Note_on_c, 12, 66, 0
14, 55800, Note_on_c, 12, 64, 76
14, 55904, Note_on_c, 12, 64, 0
14, 55920, Note_on_c, 12, 62, 76
14, 56024, Note_on_c, 12, 62, 0
14, 56040, Note_on_c, 12, 61, 76
14, 56144, Note_on_c, 12, 61, 0
14, 56160, Note_on_c, 12, 59, 76
14, 56264, Note_on_c, 12, 59, 0
14, 56280, Note_on_c, 12, 57, 76
14, 56384, Note_on_c, 12, 57, 0
14, 56400, Note_on_c, 12, 56, 76
14, 56624, Note_on_c, 12, 56, 0
14, 56640, Note_on_c, 12, 71, 76
14, 56744, Note_on_c, 12, 71, 0
14, 56760, Note_on_c, 12, 69, 76
14, 56864, Note_on_c, 12, 69, 0
14, 56880, Note_on_c, 12, 68, 76
14, 56984, Note_on_c, 12, 68, 0
14, 57000, Note_on_c, 12, 66, 76
14, 57104, Note_on_c, 12, 66, 0
14, 57120, Note_on_c, 12, 64, 76
14, 57224, Note_on_c, 12, 64, 0
14, 57240, Note_on_c, 12, 62, 76
14, 57344, Note_on_c, 12, 62, 0
14, 57360, Note_on_c, 12, 61, 76
14, 57464, Note_on_c, 12, 61, 0
14, 57480, Note_on_c, 12, 62, 76
14, 57584, Note_on_c, 12, 62, 0
14, 57600, Note_on_c, 12, 64, 76
14, 57704, Note_on_c, 12, 64, 0
14, 57720, Note_on_c, 12, 62, 76
14, 57824, Note_on_c, 12, 62, 0
14, 57840, Note_on_c, 12, 61, 76
14, 57944, Note_on_c, 12, 61, 0
14, 57960, Note_on_c, 12, 59, 76
14, 58064, Note_on_c, 12, 59, 0
14, 58080, Note_on_c, 12, 57, 76
14, 58184, Note_on_c, 12, 57, 0
14, 58200, Note_on_c, 12, 56, 76
14, 58304, Note_on_c, 12, 56, 0
14, 58320, Note_on_c, 12, 54, 76
14, 58544, Note_on_c, 12, 54, 0
14, 58560, Note_on_c, 12, 69, 76
14, 58664, Note_on_c, 12, 69, 0
14, 58680, Note_on_c, 12, 68, 76
14, 58784, Note_on_c, 12, 68, 0
14, 58800, Note_on_c, 12, 66, 76
14, 58904, Note_on_c, 12, 66, 0
14, 58920, Note_on_c, 12, 64, 76
14, 59024, Note_on_c, 12, 64, 0
14, 59040, Note_on_c, 12, 62, 76
14, 59144, Note_on_c, 12, 62, 0
14, 59160, Note_on_c, 12, 61, 76
14, 59264, Note_on_c, 12, 61, 0
14, 59280, Note_on_c, 12, 59, 76
14, 59384, Note_on_c, 12, 59, 0
14, 59400, Note_on_c, 12, 61, 76
14, 59504, Note_on_c, 12, 61, 0
14, 59520, Note_on_c, 12, 62, 76
14, 59624, Note_on_c, 12, 62, 0
14, 59640, Note_on_c, 12, 59, 76
14, 59744, Note_on_c, 12, 59, 0
14, 59760, Note_on_c, 12, 74, 76
14, 59864, Note_on_c, 12, 74, 0
14, 59880, Note_on_c, 12, 73, 76
14, 59984, Note_on_c, 12, 73, 0
14, 60000, Note_on_c, 12, 74, 76
14, 60224, Note_on_c, 12, 74, 0
14, 60240, Note_on_c, 12, 68, 76
14, 60344, Note_on_c, 12, 68, 0
14, 60360, Note_on_c, 12, 66, 76
14, 60464, Note_on_c, 12, 66, 0
14, 60480, Note_on_c, 12, 68, 76
14, 60704, Note_on_c, 12, 68, 0
14, 60720, Note_on_c, 12, 71, 76
14, 60824, Note_on_c, 12, 71, 0
14, 60840, Note_on_c, 12, 69, 76
14, 60944, Note_on_c, 12, 69, 0
14, 60960, Note_on_c, 12, 71, 76
14, 61184, Note_on_c, 12, 71, 0
14, 61200, Note_on_c, 12, 71, 76
14, 61664, Note_on_c, 12, 71, 0
14, 61680, Note_on_c, 12, 64, 76
14, 61904, Note_on_c, 12, 64, 0
14, 61920, Note_on_c, 12, 64, 76
14, 62144, Note_on_c, 12, 64, 0
14, 62160, Note_on_c, 12, 64, 76
14, 62384, Note_on_c, 12, 64, 0
14, 62400, Note_on_c, 12, 64, 76
14, 62624, Note_on_c, 12, 64, 0
14, 62640, Note_on_c, 12, 66, 76
14, 62864, Note_on_c, 12, 66, 0
14, 62880, Note_on_c, 12, 66, 76
14, 63104, Note_on_c, 12, 66, 0
14, 63120, Note_on_c, 12, 68, 76
14, 63224, Note_on_c, 12, 68, 0
14, 63240, Note_on_c, 12, 69, 76
14, 63344, Note_on_c, 12, 69, 0
14, 63360, Note_on_c, 12, 71, 76
14, 63584, Note_on_c, 12, 71, 0
14, 63600, Note_on_c, 12, 73, 76
14, 63824, Note_on_c, 12, 73, 0
14, 63840, Note_on_c, 12, 69, 76
14, 64064, Note_on_c, 12, 69, 0
14, 64080, Note_on_c, 12, 69, 76
14, 64304, Note_on_c, 12, 69, 0
14, 64320, Note_on_c, 12, 64, 76
14, 64544, Note_on_c, 12, 64, 0
14, 64560, Note_on_c, 12, 64, 76
14, 64784, Note_on_c, 12, 64, 0
14, 64800, Note_on_c, 12, 62, 76
14, 64904, Note_on_c, 12, 62, 0
14, 64920, Note_on_c, 12, 64, 76
14, 65024, Note_on_c, 12, 64, 0
14, 65040, Note_on_c, 12, 61, 76
14, 65504, Note_on_c, 12, 61, 0
14, 65520, Note_on_c, 12, 74, 76
14, 65624, Note_on_c, 12, 74, 0
14, 65640, Note_on_c, 12, 73, 76
14, 65744, Note_on_c, 12, 73, 0
14, 65760, Note_on_c, 12, 74, 76
14, 65984, Note_on_c, 12, 74, 0
14, 66000, Note_on_c, 12, 66, 76
14, 66104, Note_on_c, 12, 66, 0
14, 66120, Note_on_c, 12, 64, 76
14, 66224, Note_on_c, 12, 64, 0
14, 66240, Note_on_c, 12, 66, 76
14, 66464, Note_on_c, 12, 66, 0
14, 66480, Note_on_c, 12, 69, 76
14, 66584, Note_on_c, 12, 69, 0
14, 66600, Note_on_c, 12, 67, 76
14, 66704, Note_on_c, 12, 67, 0
14, 66720, Note_on_c, 12, 69, 76
14, 66944, Note_on_c, 12, 69, 0
14, 66960, Note_on_c, 12, 62, 76
14, 67184, Note_on_c, 12, 62, 0
14, 67200, Note_on_c, 12, 64, 76
14, 67424, Note_on_c, 12, 64, 0
14, 67440, Note_on_c, 12, 66, 76
14, 67664, Note_on_c, 12, 66, 0
14, 67680, Note_on_c, 12, 62, 76
14, 67904, Note_on_c, 12, 62, 0
14, 67920, Note_on_c, 12, 67, 76
14, 68144, Note_on_c, 12, 67, 0
14, 68160, Note_on_c, 12, 64, 76
14, 68384, Note_on_c, 12, 64, 0
14, 68400, Note_on_c, 12, 69, 76
14, 68624, Note_on_c, 12, 69, 0
14, 68640, Note_on_c, 12, 57, 76
14, 68864, Note_on_c, 12, 57, 0
14, 68880, Note_on_c, 12, 62, 76
14, 69104, Note_on_c, 12, 62, 0
14, 69120, Note_on_c, 12, 66, 76
14, 69344, Note_on_c, 12, 66, 0
14, 69360, Note_on_c, 12, 74, 76
14, 69464, Note_on_c, 12, 74, 0
14, 69480, Note_on_c, 12, 73, 76
14, 69584, Note_on_c, 12, 73, 0
14, 69600, Note_on_c, 12, 74, 76
14, 69824, Note_on_c, 12, 74, 0
14, 69840, Note_on_c, 12, 66, 76
14, 69944, Note_on_c, 12, 66, 0
14, 69960, Note_on_c, 12, 64, 76
14, 70064, Note_on_c, 12, 64, 0
14, 70080, Note_on_c, 12, 66, 76
14, 70304, Note_on_c, 12, 66, 0
14, 70320, Note_on_c, 12, 69, 76
14, 70424, Note_on_c, 12, 69, 0
14, 70440, Note_on_c, 12, 67, 76
14, 70544, Note_on_c, 12, 67, 0
14, 70560, Note_on_c, 12, 69, 76
14, 70784, Note_on_c, 12, 69, 0
14, 70800, Note_on_c, 12, 62, 76
14, 70904, Note_on_c, 12, 62, 0
14, 70920, Note_on_c, 12, 64, 76
14, 71024, Note_on_c, 12, 64, 0
14, 71040, Note_on_c, 12, 66, 76
14, 71144, Note_on_c, 12, 66, 0
14, 71160, Note_on_c, 12, 64, 76
14, 71264, Note_on_c, 12, 64, 0
14, 71280, Note_on_c, 12, 62, 76
14, 71384, Note_on_c, 12, 62, 0
14, 71400, Note_on_c, 12, 61, 76
14, 71504, Note_on_c, 12, 61, 0
14, 71520, Note_on_c, 12, 59, 76
14, 71624, Note_on_c, 12, 59, 0
14, 71640, Note_on_c, 12, 57, 76
14, 71744, Note_on_c, 12, 57, 0
14, 71760, Note_on_c, 12, 56, 76
14, 71984, Note_on_c, 12, 56, 0
14, 72000, Note_on_c, 12, 71, 76
14, 72104, Note_on_c, 12, 71, 0
14, 72120, Note_on_c, 12, 69, 76
14, 72224, Note_on_c, 12, 69, 0
14, 72240, Note_on_c, 12, 68, 76
14, 72344, Note_on_c, 12, 68, 0
14, 72360, Note_on_c, 12, 66, 76
14, 72464, Note_on_c, 12, 66, 0
14, 72480, Note_on_c, 12, 64, 76
14, 72584, Note_on_c, 12, 64, 0
14, 72600, Note_on_c, 12, 62, 76
14, 72704, Note_on_c, 12, 62, 0
14, 72720, Note_on_c, 12, 61, 76
14, 72824, Note_on_c, 12, 61, 0
14, 72840, Note_on_c, 12, 62, 76
14, 72944, Note_on_c, 12, 62, 0
14, 72960, Note_on_c, 12, 64, 76
14, 73064, Note_on_c, 12, 64, 0
14, 73080, Note_on_c, 12, 62, 76
14, 73184, Note_on_c, 12, 62, 0
14, 73200, Note_on_c, 12, 61, 76
14, 73304, Note_on_c, 12, 61, 0
14, 73320, Note_on_c, 12, 59, 76
14, 73424, Note_on_c, 12, 59, 0
14, 73440, Note_on_c, 12, 57, 76
14, 73544, Note_on_c, 12, 57, 0
14, 73560, Note_on_c, 12, 56, 76
14, 73664, Note_on_c, 12, 56, 0
14, 73680, Note_on_c, 12, 54, 76
14, 73904, Note_on_c, 12, 54, 0
14, 73920, Note_on_c, 12, 69, 76
14, 74024, Note_on_c, 12, 69, 0
14, 74040, Note_on_c, 12, 68, 76
14, 74144, Note_on_c, 12, 68, 0
14, 74160, Note_on_c, 12, 66, 76
14, 74264, Note_on_c, 12, 66, 0
14, 74280, Note_on_c, 12, 64, 76
14, 74384, Note_on_c, 12, 64, 0
14, 74400, Note_on_c, 12, 62, 76
14, 74504, Note_on_c, 12, 62, 0
14, 74520, Note_on_c, 12, 61, 76
14, 74624, Note_on_c, 12, 61, 0
14, 74640, Note_on_c, 12, 59, 76
14, 74744, Note_on_c, 12, 59, 0
14, 74760, Note_on_c, 12, 61, 76
14, 74864, Note_on_c, 12, 61, 0
14, 74880, Note_on_c, 12, 62, 76
14, 74984, Note_on_c, 12, 62, 0
14, 75000, Note_on_c, 12, 59, 76
14, 75104, Note_on_c, 12, 59, 0
14, 75120, Note_on_c, 12, 74, 76
14, 75224, Note_on_c, 12, 74, 0
14, 75240, Note_on_c, 12, 73, 76
14, 75344, Note_on_c, 12, 73, 0
14, 75360, Note_on_c, 12, 74, 76
14, 75584, Note_on_c, 12, 74, 0
14, 75600, Note_on_c, 12, 68, 76
14, 75704, Note_on_c, 12, 68, 0
14, 75720, Note_on_c, 12, 66, 76
14, 75824, Note_on_c, 12, 66, 0
14, 75840, Note_on_c, 12, 68, 76
14, 76064, Note_on_c, 12, 68, 0
14, 76080, Note_on_c, 12, 71, 76
14, 76184, Note_on_c, 12, 71, 0
14, 76200, Note_on_c, 12, 69, 76
14, 76304, Note_on_c, 12, 69, 0
14, 76320, Note_on_c, 12, 71, 76
14, 76544, Note_on_c, 12, 71, 0
14, 76560, Note_on_c, 12, 71, 76
14, 77024, Note_on_c, 12, 71, 0
14, 77040, Note_on_c, 12, 64, 76
14, 77264, Note_on_c, 12, 64, 0
14, 77280, Note_on_c, 12, 64, 76
14, 77504, Note_on_c, 12, 64, 0
14, 77520, Note_on_c, 12, 64, 76
14, 77744, Note_on_c, 12, 64, 0
14, 77760, Note_on_c, 12, 64, 76
14, 77984, Note_on_c, 12, 64, 0
14, 78000, Note_on_c, 12, 66, 76
14, 78224, Note_on_c, 12, 66, 0
14, 78240, Note_on_c, 12, 66, 76
14, 78464, Note_on_c, 12, 66, 0
14, 78480, Note_on_c, 12, 68, 76
14, 78584, Note_on_c, 12, 68, 0
14, 78600, Note_on_c, 12, 69, 76
14, 78704, Note_on_c, 12, 69, 0
14, 78720, Note_on_c, 12, 71, 76
14, 78944, Note_on_c, 12, 71, 0
14, 78960, Note_on_c, 12, 73, 76
14, 79184, Note_on_c, 12, 73, 0
14, 79200, Note_on_c, 12, 69, 76
14, 79424, Note_on_c, 12, 69, 0
14, 79440, Note_on_c, 12, 69, 76
14, 79664, Note_on_c, 12, 69, 0
14, 79680, Note_on_c, 12, 64, 76
14, 79904, Note_on_c, 12, 64, 0
14, 79920, Note_on_c, 12, 64, 76
14, 80144, Note_on_c, 12, 64, 0
14, 80160, Note_on_c, 12, 62, 76
14, 80264, Note_on_c, 12, 62, 0
14, 80280, Note_on_c, 12, 64, 76
14, 80384, Note_on_c, 12, 64, 0
14, 80400, Note_on_c, 12, 61, 76
14, 80864, Note_on_c, 12, 61, 0
14, 80880, Note_on_c, 12, 69, 76
14, 80984, Note_on_c, 12, 69, 0
14, 81000, Note_on_c, 12, 68, 76
14, 81104, Note_on_c, 12, 68, 0
14, 81120, Note_on_c, 12, 69, 76
14, 81344, Note_on_c, 12, 69, 0
14, 81360, Note_on_c, 12, 61, 76
14, 81464, Note_on_c, 12, 61, 0
14, 81480, Note_on_c, 12, 59, 76
14, 81584, Note_on_c, 12, 59, 0
14, 81600, Note_on_c, 12, 61, 76
14, 81824, Note_on_c, 12, 61, 0
14, 81840, Note_on_c, 12, 64, 76
14, 81944, Note_on_c, 12, 64, 0
14, 81960, Note_on_c, 12, 62, 76
14, 82064, Note_on_c, 12, 62, 0
14, 82080, Note_on_c, 12, 64, 76
14, 82304, Note_on_c, 12, 64, 0
14, 82320, Note_on_c, 12, 57, 76
14, 82784, Note_on_c, 12, 57, 0
14, 82800, Note_on_c, 12, 70, 76
14, 82904, Note_on_c, 12, 70, 0
14, 82920, Note_on_c, 12, 68, 76
14, 83024, Note_on_c, 12, 68, 0
14, 83040, Note_on_c, 12, 70, 76
14, 83264, Note_on_c, 12, 70, 0
14, 83280, Note_on_c, 12, 71, 76
14, 83384, Note_on_c, 12, 71, 0
14, 83400, Note_on_c, 12, 70, 76
14, 83504, Note_on_c, 12, 70, 0
14, 83520, Note_on_c, 12, 71, 76
14, 83744, Note_on_c, 12, 71, 0
14, 83760, Note_on_c, 12, 64, 76
14, 83864, Note_on_c, 12, 64, 0
14, 83880, Note_on_c, 12, 62, 76
14, 83984, Note_on_c, 12, 62, 0
14, 84000, Note_on_c, 12, 64, 76
14, 84224, Note_on_c, 12, 64, 0
14, 84240, Note_on_c, 12, 66, 76
14, 84464, Note_on_c, 12, 66, 0
14, 84480, Note_on_c, 12, 54, 76
14, 84704, Note_on_c, 12, 54, 0
14, 84720, Note_on_c, 12, 66, 76
14, 86624, Note_on_c, 12, 66, 0
14, 86640, Note_on_c, 12, 64, 76
14, 86864, Note_on_c, 12, 64, 0
14, 86880, Note_on_c, 12, 61, 76
14, 87104, Note_on_c, 12, 61, 0
14, 87120, Note_on_c, 12, 62, 76
14, 87344, Note_on_c, 12, 62, 0
14, 87360, Note_on_c, 12, 55, 76
14, 87584, Note_on_c, 12, 55, 0
14, 87600, Note_on_c, 12, 52, 76
14, 87824, Note_on_c, 12, 52, 0
14, 87840, Note_on_c, 12, 54, 76
14, 88064, Note_on_c, 12, 54, 0
14, 88080, Note_on_c, 12, 59, 76
14, 88544, Note_on_c, 12, 59, 0
14, 88560, Note_on_c, 12, 57, 76
14, 89504, Note_on_c, 12, 57, 0
14, 89520, Note_on_c, 12, 54, 76
14, 90464, Note_on_c, 12, 54, 0
14, 90480, Note_on_c, 12, 66, 76
14, 90704, Note_on_c, 12, 66, 0
14, 90720, Note_on_c, 12, 62, 76
14, 90944, Note_on_c, 12, 62, 0
14, 90960, Note_on_c, 12, 67, 76
14, 91184, Note_on_c, 12, 67, 0
14, 91200, Note_on_c, 12, 64, 76
14, 91424, Note_on_c, 12, 64, 0
14, 91440, Note_on_c, 12, 61, 76
14, 91664, Note_on_c, 12, 61, 0
14, 91680, Note_on_c, 12, 62, 76
14, 91904, Note_on_c, 12, 62, 0
14, 91920, Note_on_c, 12, 57, 76
14, 92144, Note_on_c, 12, 57, 0
14, 92160, Note_on_c, 12, 59, 76
14, 92264, Note_on_c, 12, 59, 0
14, 92280, Note_on_c, 12, 61, 76
14, 92384, Note_on_c, 12, 61, 0
14, 92400, Note_on_c, 12, 62, 76
14, 92504, Note_on_c, 12, 62, 0
14, 92520, Note_on_c, 12, 61, 76
14, 92624, Note_on_c, 12, 61, 0
14, 92640, Note_on_c, 12, 59, 76
14, 92744, Note_on_c, 12, 59, 0
14, 92760, Note_on_c, 12, 57, 76
14, 92864, Note_on_c, 12, 57, 0
14, 92880, Note_on_c, 12, 55, 76
14, 93104, Note_on_c, 12, 55, 0
14, 93120, Note_on_c, 12, 62, 76
14, 93344, Note_on_c, 12, 62, 0
14, 93360, Note_on_c, 12, 64, 76
14, 93584, Note_on_c, 12, 64, 0
14, 93600, Note_on_c, 12, 59, 76
14, 93824, Note_on_c, 12, 59, 0
14, 93840, Note_on_c, 12, 61, 76
14, 93944, Note_on_c, 12, 61, 0
14, 93960, Note_on_c, 12, 59, 76
14, 94064, Note_on_c, 12, 59, 0
14, 94080, Note_on_c, 12, 57, 76
14, 94184, Note_on_c, 12, 57, 0
14, 94200, Note_on_c, 12, 55, 76
14, 94304, Note_on_c, 12, 55, 0
14, 94320, Note_on_c, 12, 57, 76
14, 94544, Note_on_c, 12, 57, 0
14, 94560, Note_on_c, 12, 54, 76
14, 94784, Note_on_c, 12, 54, 0
14, 94800, Note_on_c, 12, 50, 76
14, 95024, Note_on_c, 12, 50, 0
14, 95040, Note_on_c, 12, 57, 76
14, 95264, Note_on_c, 12, 57, 0
14, 95280, Note_on_c, 12, 57, 76
14, 95504, Note_on_c, 12, 57, 0
14, 95520, Note_on_c, 12, 55, 76
14, 95624, Note_on_c, 12, 55, 0
14, 95640, Note_on_c, 12, 57, 76
14, 95744, Note_on_c, 12, 57, 0
14, 95760, Note_on_c, 12, 54, 76
14, 96224, Note_on_c, 12, 54, 0
14, 96240, Note_on_c, 12, 69, 76
14, 96344, Note_on_c, 12, 69, 0
14, 96360, Note_on_c, 12, 68, 76
14, 96464, Note_on_c, 12, 68, 0
14, 96480, Note_on_c, 12, 69, 76
14, 96704, Note_on_c, 12, 69, 0
14, 96720, Note_on_c, 12, 61, 76
14, 96824, Note_on_c, 12, 61, 0
14, 96840, Note_on_c, 12, 59, 76
14, 96944, Note_on_c, 12, 59, 0
14, 96960, Note_on_c, 12, 61, 76
14, 97184, Note_on_c, 12, 61, 0
14, 97200, Note_on_c, 12, 64, 76
14, 97304, Note_on_c, 12, 64, 0
14, 97320, Note_on_c, 12, 62, 76
14, 97424, Note_on_c, 12, 62, 0
14, 97440, Note_on_c, 12, 64, 76
14, 97664, Note_on_c, 12, 64, 0
14, 97680, Note_on_c, 12, 57, 76
14, 98144, Note_on_c, 12, 57, 0
14, 98160, Note_on_c, 12, 70, 76
14, 98264, Note_on_c, 12, 70, 0
14, 98280, Note_on_c, 12, 68, 76
14, 98384, Note_on_c, 12, 68, 0
14, 98400, Note_on_c, 12, 70, 76
14, 98624, Note_on_c, 12, 70, 0
14, 98640, Note_on_c, 12, 71, 76
14, 98744, Note_on_c, 12, 71, 0
14, 98760, Note_on_c, 12, 70, 76
14, 98864, Note_on_c, 12, 70, 0
14, 98880, Note_on_c, 12, 71, 76
14, 99104, Note_on_c, 12, 71, 0
14, 99120, Note_on_c, 12, 64, 76
14, 99224, Note_on_c, 12, 64, 0
14, 99240, Note_on_c, 12, 62, 76
14, 99344, Note_on_c, 12, 62, 0
14, 99360, Note_on_c, 12, 64, 76
14, 99584, Note_on_c, 12, 64, 0
14, 99600, Note_on_c, 12, 66, 76
14, 99824, Note_on_c, 12, 66, 0
14, 99840, Note_on_c, 12, 54, 76
14, 100064, Note_on_c, 12, 54, 0
14, 100080, Note_on_c, 12, 66, 76
14, 101984, Note_on_c, 12, 66, 0
14, 102000, Note_on_c, 12, 64, 76
14, 102224, Note_on_c, 12, 64, 0
14, 102240, Note_on_c, 12, 61, 76
14, 102464, Note_on_c, 12, 61, 0
14, 102480, Note_on_c, 12, 62, 76
14, 102704, Note_on_c, 12, 62, 0
14, 102720, Note_on_c, 12, 55, 76
14, 102944, Note_on_c, 12, 55, 0
14, 102960, Note_on_c, 12, 52, 76
14, 103184, Note_on_c, 12, 52, 0
14, 103200, Note_on_c, 12, 54, 76
14, 103424, Note_on_c, 12, 54, 0
14, 103440, Note_on_c, 12, 59, 76
14, 103904, Note_on_c, 12, 59, 0
14, 103920, Note_on_c, 12, 57, 76
14, 104864, Note_on_c, 12, 57, 0
14, 104880, Note_on_c, 12, 54, 76
14, 105824, Note_on_c, 12, 54, 0
14, 105840, Note_on_c, 12, 66, 76
14, 106064, Note_on_c, 12, 66, 0
14, 106080, Note_on_c, 12, 62, 76
14, 106304, Note_on_c, 12, 62, 0
14, 106320, Note_on_c, 12, 67, 76
14, 106544, Note_on_c, 12, 67, 0
14, 106560, Note_on_c, 12, 64, 76
14, 106784, Note_on_c, 12, 64, 0
14, 106800, Note_on_c, 12, 61, 76
14, 107024, Note_on_c, 12, 61, 0
14, 107040, Note_on_c, 12, 62, 76
14, 107264, Note_on_c, 12, 62, 0
14, 107280, Note_on_c, 12, 57, 76
14, 107504, Note_on_c, 12, 57, 0
14, 107520, Note_on_c, 12, 59, 76
14, 107624, Note_on_c, 12, 59, 0
14, 107640, Note_on_c, 12, 61, 76
14, 107744, Note_on_c, 12, 61, 0
14, 107760, Note_on_c, 12, 62, 76
14, 107864, Note_on_c, 12, 62, 0
14, 107880, Note_on_c, 12, 61, 76
14, 107984, Note_on_c, 12, 61, 0
14, 108000, Note_on_c, 12, 59, 76
14, 108104, Note_on_c, 12, 59, 0
14, 108120, Note_on_c, 12, 57, 76
14, 108224, Note_on_c, 12, 57, 0
14, 108240, Note_on_c, 12, 55, 76
14, 108464, Note_on_c, 12, 55, 0
14, 108480, Note_on_c, 12, 62, 76
14, 108704, Note_on_c, 12, 62, 0
14, 108720, Note_on_c, 12, 64, 76
14, 108944, Note_on_c, 12, 64, 0
14, 108960, Note_on_c, 12, 59, 76
14, 109184, Note_on_c, 12, 59, 0
14, 109200, Note_on_c, 12, 61, 76
14, 109304, Note_on_c, 12, 61, 0
14, 109320, Note_on_c, 12, 59, 76
14, 109424, Note_on_c, 12, 59, 0
14, 109440, Note_on_c, 12, 57, 76
14, 109544, Note_on_c, 12, 57, 0
14, 109560, Note_on_c, 12, 55, 76
14, 109664, Note_on_c, 12, 55, 0
14, 109680, Note_on_c, 12, 57, 76
14, 109904, Note_on_c, 12, 57, 0
14, 109920, Note_on_c, 12, 54, 76
14, 110144, Note_on_c, 12, 54, 0
14, 110160, Note_on_c, 12, 50, 76
14, 110384, Note_on_c, 12, 50, 0
14, 110400, Note_on_c, 12, 57, 76
14, 110624, Note_on_c, 12, 57, 0
14, 110640, Note_on_c, 12, 57, 76
14, 110864, Note_on_c, 12, 57, 0
14, 110880, Note_on_c, 12, 55, 76
14, 110984, Note_on_c, 12, 55, 0
14, 111000, Note_on_c, 12, 57, 76
14, 111104, Note_on_c, 12, 57, 0
14, 111120, Note_on_c, 12, 54, 76
14, 111584, Note_on_c, 12, 54, 0
14, 111840, Note_on_c, 12, 62, 76
14, 112064, Note_on_c, 12, 62, 0
14, 112080, Note_on_c, 12, 62, 76
14, 112304, Note_on_c, 12, 62, 0
14, 112320, Note_on_c, 12, 69, 76
14, 112784, Note_on_c, 12, 69, 0
14, 112800, Note_on_c, 12, 69, 76
14, 113024, Note_on_c, 12, 69, 0
14, 113040, Note_on_c, 12, 69, 76
14, 113264, Note_on_c, 12, 69, 0
14, 113280, Note_on_c, 12, 69, 76
14, 113744, Note_on_c, 12, 69, 0
14, 113760, Note_on_c, 12, 69, 76
14, 113984, Note_on_c, 12, 69, 0
14, 114000, Note_on_c, 12, 61, 76
14, 114224, Note_on_c, 12, 61, 0
14, 114240, Note_on_c, 12, 66, 76
14, 114464, Note_on_c, 12, 66, 0
14, 114480, Note_on_c, 12, 64, 76
14, 114704, Note_on_c, 12, 64, 0
14, 114720, Note_on_c, 12, 66, 76
14, 114944, Note_on_c, 12, 66, 0
14, 114960, Note_on_c, 12, 64, 76
14, 115184, Note_on_c, 12, 64, 0
14, 115200, Note_on_c, 12, 62, 76
14, 115664, Note_on_c, 12, 62, 0
14, 115680, Note_on_c, 12, 62, 76
14, 115904, Note_on_c, 12, 62, 0
14, 115920, Note_on_c, 12, 62, 76
14, 116144, Note_on_c, 12, 62, 0
14, 116160, Note_on_c, 12, 69, 76
14, 116624, Note_on_c, 12, 69, 0
14, 116640, Note_on_c, 12, 69, 76
14, 116864, Note_on_c, 12, 69, 0
14, 116880, Note_on_c, 12, 69, 76
14, 117104, Note_on_c, 12, 69, 0
14, 117120, Note_on_c, 12, 69, 76
14, 117584, Note_on_c, 12, 69, 0
14, 117600, Note_on_c, 12, 71, 76
14, 117824, Note_on_c, 12, 71, 0
14, 117840, Note_on_c, 12, 68, 76
14, 118064, Note_on_c, 12, 68, 0
14, 118080, Note_on_c, 12, 64, 76
14, 118304, Note_on_c, 12, 64, 0
14, 118320, Note_on_c, 12, 64, 76
14, 118544, Note_on_c, 12, 64, 0
14, 118560, Note_on_c, 12, 64, 76
14, 118784, Note_on_c, 12, 64, 0
14, 118800, Note_on_c, 12, 64, 76
14, 119024, Note_on_c, 12, 64, 0
14, 119040, Note_on_c, 12, 64, 76
14, 119264, Note_on_c, 12, 64, 0
14, 119280, Note_on_c, 12, 62, 76
14, 119504, Note_on_c, 12, 62, 0
14, 119520, Note_on_c, 12, 57, 76
14, 119744, Note_on_c, 12, 57, 0
14, 119760, Note_on_c, 12, 57, 76
14, 119984, Note_on_c, 12, 57, 0
14, 120000, Note_on_c, 12, 62, 76
14, 120224, Note_on_c, 12, 62, 0
14, 120240, Note_on_c, 12, 62, 76
14, 120464, Note_on_c, 12, 62, 0
14, 120480, Note_on_c, 12, 61, 76
14, 120704, Note_on_c, 12, 61, 0
14, 120720, Note_on_c, 12, 59, 76
14, 120944, Note_on_c, 12, 59, 0
14, 120960, Note_on_c, 12, 61, 76
14, 121424, Note_on_c, 12, 61, 0
14, 121440, Note_on_c, 12, 62, 76
14, 121664, Note_on_c, 12, 62, 0
14, 121680, Note_on_c, 12, 62, 76
14, 121904, Note_on_c, 12, 62, 0
14, 121920, Note_on_c, 12, 69, 76
14, 122384, Note_on_c, 12, 69, 0
14, 122400, Note_on_c, 12, 69, 76
14, 122624, Note_on_c, 12, 69, 0
14, 122640, Note_on_c, 12, 69, 76
14, 122864, Note_on_c, 12, 69, 0
14, 122880, Note_on_c, 12, 69, 76
14, 123344, Note_on_c, 12, 69, 0
14, 123360, Note_on_c, 12, 69, 76
14, 123584, Note_on_c, 12, 69, 0
14, 123600, Note_on_c, 12, 61, 76
14, 123824, Note_on_c, 12, 61, 0
14, 123840, Note_on_c, 12, 66, 76
14, 124064, Note_on_c, 12, 66, 0
14, 124080, Note_on_c, 12, 64, 76
14, 124304, Note_on_c, 12, 64, 0
14, 124320, Note_on_c, 12, 66, 76
14, 124544, Note_on_c, 12, 66, 0
14, 124560, Note_on_c, 12, 64, 76
14, 124784, Note_on_c, 12, 64, 0
14, 124800, Note_on_c, 12, 62, 76
14, 125264, Note_on_c, 12, 62, 0
14, 125280, Note_on_c, 12, 62, 76
14, 125504, Note_on_c, 12, 62, 0
14, 125520, Note_on_c, 12, 62, 76
14, 125744, Note_on_c, 12, 62, 0
14, 125760, Note_on_c, 12, 69, 76
14, 126224, Note_on_c, 12, 69, 0
14, 126240, Note_on_c, 12, 69, 76
14, 126464, Note_on_c, 12, 69, 0
14, 126480, Note_on_c, 12, 69, 76
14, 126704, Note_on_c, 12, 69, 0
14, 126720, Note_on_c, 12, 69, 76
14, 127184, Note_on_c, 12, 69, 0
14, 127200, Note_on_c, 12, 71, 76
14, 127424, Note_on_c, 12, 71, 0
14, 127440, Note_on_c, 12, 68, 76
14, 127664, Note_on_c, 12, 68, 0
14, 127680, Note_on_c, 12, 64, 76
14, 127904, Note_on_c, 12, 64, 0
14, 127920, Note_on_c, 12, 64, 76
14, 128144, Note_on_c, 12, 64, 0
14, 128160, Note_on_c, 12, 64, 76
14, 128384, Note_on_c, 12, 64, 0
14, 128400, Note_on_c, 12, 64, 76
14, 128624, Note_on_c, 12, 64, 0
14, 128640, Note_on_c, 12, 64, 76
14, 128864, Note_on_c, 12, 64, 0
14, 128880, Note_on_c, 12, 62, 76
14, 129104, Note_on_c, 12, 62, 0
14, 129120, Note_on_c, 12, 57, 76
14, 129344, Note_on_c, 12, 57, 0
14, 129360, Note_on_c, 12, 57, 76
14, 129584, Note_on_c, 12, 57, 0
14, 129600, Note_on_c, 12, 62, 76
14, 129824, Note_on_c, 12, 62, 0
14, 129840, Note_on_c, 12, 62, 76
14, 130064, Note_on_c, 12, 62, 0
14, 130080, Note_on_c, 12, 61, 76
14, 130304, Note_on_c, 12, 61, 0
14, 130320, Note_on_c, 12, 59, 76
14, 130544, Note_on_c, 12, 59, 0
14, 130560, Note_on_c, 12, 61, 76
14, 131024, Note_on_c, 12, 61, 0
14, 131040, Note_on_c, 12, 61, 76
14, 131264, Note_on_c, 12, 61, 0
14, 131280, Note_on_c, 12, 57, 76
14, 131504, Note_on_c, 12, 57, 0
14, 131520, Note_on_c, 12, 57, 76
14, 131744, Note_on_c, 12, 57, 0
14, 131760, Note_on_c, 12, 59, 76
14, 131864, Note_on_c, 12, 59, 0
14, 131880, Note_on_c, 12, 61, 76
14, 131984, Note_on_c, 12, 61, 0
14, 132000, Note_on_c, 12, 62, 76
14, 132224, Note_on_c, 12, 62, 0
14, 132240, Note_on_c, 12, 59, 76
14, 132464, Note_on_c, 12, 59, 0
14, 132480, Note_on_c, 12, 59, 76
14, 132944, Note_on_c, 12, 59, 0
14, 132960, Note_on_c, 12, 64, 76
14, 133184, Note_on_c, 12, 64, 0
14, 133200, Note_on_c, 12, 64, 76
14, 133424, Note_on_c, 12, 64, 0
14, 133440, Note_on_c, 12, 62, 76
14, 133664, Note_on_c, 12, 62, 0
14, 133680, Note_on_c, 12, 66, 76
14, 133904, Note_on_c, 12, 66, 0
14, 133920, Note_on_c, 12, 64, 76
14, 134144, Note_on_c, 12, 64, 0
14, 134160, Note_on_c, 12, 62, 76
14, 134384, Note_on_c, 12, 62, 0
14, 134400, Note_on_c, 12, 61, 76
14, 134864, Note_on_c, 12, 61, 0
14, 134880, Note_on_c, 12, 59, 76
14, 135104, Note_on_c, 12, 59, 0
14, 135120, Note_on_c, 12, 59, 76
14, 135344, Note_on_c, 12, 59, 0
14, 135360, Note_on_c, 12, 59, 76
14, 135584, Note_on_c, 12, 59, 0
14, 135600, Note_on_c, 12, 58, 76
14, 135704, Note_on_c, 12, 58, 0
14, 135720, Note_on_c, 12, 61, 76
14, 135824, Note_on_c, 12, 61, 0
14, 135840, Note_on_c, 12, 66, 76
14, 136064, Note_on_c, 12, 66, 0
14, 136080, Note_on_c, 12, 66, 76
14, 136304, Note_on_c, 12, 66, 0
14, 136320, Note_on_c, 12, 66, 76
14, 136544, Note_on_c, 12, 66, 0
14, 136560, Note_on_c, 12, 67, 76
14, 136784, Note_on_c, 12, 67, 0
14, 136800, Note_on_c, 12, 67, 76
14, 137024, Note_on_c, 12, 67, 0
14, 137040, Note_on_c, 12, 66, 76
14, 137144, Note_on_c, 12, 66, 0
14, 137160, Note_on_c, 12, 64, 76
14, 137264, Note_on_c, 12, 64, 0
14, 137280, Note_on_c, 12, 62, 76
14, 137504, Note_on_c, 12, 62, 0
14, 137520, Note_on_c, 12, 61, 76
14, 137744, Note_on_c, 12, 61, 0
14, 137760, Note_on_c, 12, 61, 76
14, 137984, Note_on_c, 12, 61, 0
14, 138000, Note_on_c, 12, 66, 76
14, 138224, Note_on_c, 12, 66, 0
14, 138240, Note_on_c, 12, 62, 76
14, 138704, Note_on_c, 12, 62, 0
14, 138720, Note_on_c, 12, 62, 76
14, 138944, Note_on_c, 12, 62, 0
14, 138960, Note_on_c, 12, 67, 76
14, 139184, Note_on_c, 12, 67, 0
14, 139200, Note_on_c, 12, 64, 76
14, 139424, Note_on_c, 12, 64, 0
14, 139440, Note_on_c, 12, 63, 76
14, 139544, Note_on_c, 12, 63, 0
14, 139560, Note_on_c, 12, 64, 76
14, 139664, Note_on_c, 12, 64, 0
14, 139680, Note_on_c, 12, 66, 76
14, 139904, Note_on_c, 12, 66, 0
14, 139920, Note_on_c, 12, 63, 76
14, 140144, Note_on_c, 12, 63, 0
14, 140160, Note_on_c, 12, 59, 76
14, 140624, Note_on_c, 12, 59, 0
14, 140640, Note_on_c, 12, 57, 76
14, 140864, Note_on_c, 12, 57, 0
14, 140880, Note_on_c, 12, 57, 76
14, 141104, Note_on_c, 12, 57, 0
14, 141120, Note_on_c, 12, 69, 76
14, 141344, Note_on_c, 12, 69, 0
14, 141360, Note_on_c, 12, 71, 76
14, 141584, Note_on_c, 12, 71, 0
14, 141600, Note_on_c, 12, 64, 76
14, 141824, Note_on_c, 12, 64, 0
14, 141840, Note_on_c, 12, 64, 76
14, 142064, Note_on_c, 12, 64, 0
14, 142080, Note_on_c, 12, 64, 76
14, 142544, Note_on_c, 12, 64, 0
14, 142560, Note_on_c, 12, 66, 76
14, 142784, Note_on_c, 12, 66, 0
14, 142800, Note_on_c, 12, 62, 76
14, 143024, Note_on_c, 12, 62, 0
14, 143040, Note_on_c, 12, 62, 76
14, 143504, Note_on_c, 12, 62, 0
14, 143520, Note_on_c, 12, 59, 76
14, 143744, Note_on_c, 12, 59, 0
14, 143760, Note_on_c, 12, 64, 76
14, 143984, Note_on_c, 12, 64, 0
14, 144000, Note_on_c, 12, 64, 76
14, 144464, Note_on_c, 12, 64, 0
14, 144480, Note_on_c, 12, 64, 76
14, 144704, Note_on_c, 12, 64, 0
14, 144720, Note_on_c, 12, 69, 76
14, 144944, Note_on_c, 12, 69, 0
14, 144960, Note_on_c, 12, 69, 76
14, 145064, Note_on_c, 12, 69, 0
14, 145080, Note_on_c, 12, 67, 76
14, 145184, Note_on_c, 12, 67, 0
14, 145200, Note_on_c, 12, 66, 76
14, 145304, Note_on_c, 12, 66, 0
14, 145320, Note_on_c, 12, 67, 76
14, 145424, Note_on_c, 12, 67, 0
14, 145440, Note_on_c, 12, 64, 76
14, 145664, Note_on_c, 12, 64, 0
14, 145680, Note_on_c, 12, 64, 76
14, 145904, Note_on_c, 12, 64, 0
14, 145920, Note_on_c, 12, 66, 76
14, 146384, Note_on_c, 12, 66, 0
14, 146400, Note_on_c, 12, 61, 76
14, 146624, Note_on_c, 12, 61, 0
14, 146640, Note_on_c, 12, 57, 76
14, 146864, Note_on_c, 12, 57, 0
14, 146880, Note_on_c, 12, 57, 76
14, 147104, Note_on_c, 12, 57, 0
14, 147120, Note_on_c, 12, 59, 76
14, 147224, Note_on_c, 12, 59, 0
14, 147240, Note_on_c, 12, 61, 76
14, 147344, Note_on_c, 12, 61, 0
14, 147360, Note_on_c, 12, 62, 76
14, 147584, Note_on_c, 12, 62, 0
14, 147600, Note_on_c, 12, 59, 76
14, 147824, Note_on_c, 12, 59, 0
14, 147840, Note_on_c, 12, 59, 76
14, 148304, Note_on_c, 12, 59, 0
14, 148320, Note_on_c, 12, 64, 76
14, 148544, Note_on_c, 12, 64, 0
14, 148560, Note_on_c, 12, 64, 76
14, 148784, Note_on_c, 12, 64, 0
14, 148800, Note_on_c, 12, 62, 76
14, 149024, Note_on_c, 12, 62, 0
14, 149040, Note_on_c, 12, 66, 76
14, 149264, Note_on_c, 12, 66, 0
14, 149280, Note_on_c, 12, 64, 76
14, 149504, Note_on_c, 12, 64, 0
14, 149520, Note_on_c, 12, 62, 76
14, 149744, Note_on_c, 12, 62, 0
14, 149760, Note_on_c, 12, 61, 76
14, 150224, Note_on_c, 12, 61, 0
14, 150240, Note_on_c, 12, 59, 76
14, 150464, Note_on_c, 12, 59, 0
14, 150480, Note_on_c, 12, 59, 76
14, 150704, Note_on_c, 12, 59, 0
14, 150720, Note_on_c, 12, 59, 76
14, 150944, Note_on_c, 12, 59, 0
14, 150960, Note_on_c, 12, 58, 76
14, 151064, Note_on_c, 12, 58, 0
14, 151080, Note_on_c, 12, 61, 76
14, 151184, Note_on_c, 12, 61, 0
14, 151200, Note_on_c, 12, 66, 76
14, 151424, Note_on_c, 12, 66, 0
14, 151440, Note_on_c, 12, 66, 76
14, 151664, Note_on_c, 12, 66, 0
14, 151680, Note_on_c, 12, 66, 76
14, 151904, Note_on_c, 12, 66, 0
14, 151920, Note_on_c, 12, 67, 76
14, 152144, Note_on_c, 12, 67, 0
14, 152160, Note_on_c, 12, 67, 76
14, 152384, Note_on_c, 12, 67, 0
14, 152400, Note_on_c, 12, 66, 76
14, 152504, Note_on_c, 12, 66, 0
14, 152520, Note_on_c, 12, 64, 76
14, 152624, Note_on_c, 12, 64, 0
14, 152640, Note_on_c, 12, 62, 76
14, 152864, Note_on_c, 12, 62, 0
14, 152880, Note_on_c, 12, 61, 76
14, 153104, Note_on_c, 12, 61, 0
14, 153120, Note_on_c, 12, 61, 76
14, 153344, Note_on_c, 12, 61, 0
14, 153360, Note_on_c, 12, 66, 76
14, 153584, Note_on_c, 12, 66, 0
14, 153600, Note_on_c, 12, 62, 76
14, 154064, Note_on_c, 12, 62, 0
14, 154080, Note_on_c, 12, 62, 76
14, 154304, Note_on_c, 12, 62, 0
14, 154320, Note_on_c, 12, 67, 76
14, 154544, Note_on_c, 12, 67, 0
14, 154560, Note_on_c, 12, 64, 76
14, 154784, Note_on_c, 12, 64, 0
14, 154800, Note_on_c, 12, 63, 76
14, 154904, Note_on_c, 12, 63, 0
14, 154920, Note_on_c, 12, 64, 76
14, 155024, Note_on_c, 12, 64, 0
14, 155040, Note_on_c, 12, 66, 76
14, 155264, Note_on_c, 12, 66, 0
14, 155280, Note_on_c, 12, 63, 76
14, 155504, Note_on_c, 12, 63, 0
14, 155520, Note_on_c, 12, 59, 76
14, 155984, Note_on_c, 12, 59, 0
14, 156000, Note_on_c, 12, 57, 76
14, 156224, Note_on_c, 12, 57, 0
14, 156240, Note_on_c, 12, 57, 76
14, 156464, Note_on_c, 12, 57, 0
14, 156480, Note_on_c, 12, 69, 76
14, 156704, Note_on_c, 12, 69, 0
14, 156720, Note_on_c, 12, 71, 76
14, 156944, Note_on_c, 12, 71, 0
14, 156960, Note_on_c, 12, 64, 76
14, 157184, Note_on_c, 12, 64, 0
14, 157200, Note_on_c, 12, 64, 76
14, 157424, Note_on_c, 12, 64, 0
14, 157440, Note_on_c, 12, 64, 76
14, 157904, Note_on_c, 12, 64, 0
14, 157920, Note_on_c, 12, 66, 76
14, 158144, Note_on_c, 12, 66, 0
14, 158160, Note_on_c, 12, 62, 76
14, 158384, Note_on_c, 12, 62, 0
14, 158400, Note_on_c, 12, 62, 76
14, 158864, Note_on_c, 12, 62, 0
14, 158880, Note_on_c, 12, 59, 76
14, 159104, Note_on_c, 12, 59, 0
14, 159120, Note_on_c, 12, 64, 76
14, 159344, Note_on_c, 12, 64, 0
14, 159360, Note_on_c, 12, 64, 76
14, 159824, Note_on_c, 12, 64, 0
14, 159840, Note_on_c, 12, 64, 76
14, 160064, Note_on_c, 12, 64, 0
14, 160080, Note_on_c, 12, 69, 76
14, 160304, Note_on_c, 12, 69, 0
14, 160320, Note_on_c, 12, 69, 76
14, 160424, Note_on_c, 12, 69, 0
14, 160440, Note_on_c, 12, 67, 76
14, 160544, Note_on_c, 12, 67, 0
14, 160560, Note_on_c, 12, 66, 76
14, 160664, Note_on_c, 12, 66, 0
14, 160680, Note_on_c, 12, 67, 76
14, 160784, Note_on_c, 12, 67, 0
14, 160800, Note_on_c, 12, 64, 76
14, 161024, Note_on_c, 12, 64, 0
14, 161040, Note_on_c, 12, 64, 76
14, 161264, Note_on_c, 12, 64, 0
14, 161280, Note_on_c, 12, 66, 76
14, 161759, Note_on_c, 12, 66, 0
14, 161759, End_track
15, 0, Start_track
15, 0, Title_t, "Cello"
15, 0, MIDI_port, 0
15, 0, Program_c, 13, 48
15, 0, Control_c, 13, 10, 90
15, 0, Control_c, 13, 11, 127
15, 0, Control_c, 13, 7, 96
15, 0, Note_on_c, 13, 62, 76
15, 704, Note_on_c, 13, 62, 0
15, 720, Note_on_c, 13, 61, 76
15, 824, Note_on_c, 13, 61, 0
15, 840, Note_on_c, 13, 59, 76
15, 944, Note_on_c, 13, 59, 0
15, 960, Note_on_c, 13, 61, 76
15, 1184, Note_on_c, 13, 61, 0
15, 1200, Note_on_c, 13, 57, 76
15, 1424, Note_on_c, 13, 57, 0
15, 1440, Note_on_c, 13, 62, 76
15, 1664, Note_on_c, 13, 62, 0
15, 1680, Note_on_c, 13, 50, 76
15, 1784, Note_on_c, 13, 50, 0
15, 1800, Note_on_c, 13, 52, 76
15, 1904, Note_on_c, 13, 52, 0
15, 1920, Note_on_c, 13, 54, 76
15, 2144, Note_on_c, 13, 54, 0
15, 2160, Note_on_c, 13, 55, 76
15, 2264, Note_on_c, 13, 55, 0
15, 2280, Note_on_c, 13, 52, 76
15, 2384, Note_on_c, 13, 52, 0
15, 2400, Note_on_c, 13, 54, 76
15, 2624, Note_on_c, 13, 54, 0
15, 2640, Note_on_c, 13, 55, 76
15, 2864, Note_on_c, 13, 55, 0
15, 2880, Note_on_c, 13, 57, 76
15, 3104, Note_on_c, 13, 57, 0
15, 3120, Note_on_c, 13, 45, 76
15, 3344, Note_on_c, 13, 45, 0
15, 3360, Note_on_c, 13, 50, 76
15, 3584, Note_on_c, 13, 50, 0
15, 3600, Note_on_c, 13, 54, 76
15, 3704, Note_on_c, 13, 54, 0
15, 3720, Note_on_c, 13, 57, 76
15, 3824, Note_on_c, 13, 57, 0
15, 3840, Note_on_c, 13, 62, 76
15, 4544, Note_on_c, 13, 62, 0
15, 4560, Note_on_c, 13, 61, 76
15, 4664, Note_on_c, 13, 61, 0
15, 4680, Note_on_c, 13, 59, 76
15, 4784, Note_on_c, 13, 59, 0
15, 4800, Note_on_c, 13, 61, 76
15, 5024, Note_on_c, 13, 61, 0
15, 5040, Note_on_c, 13, 57, 76
15, 5264, Note_on_c, 13, 57, 0
15, 5280, Note_on_c, 13, 62, 76
15, 5504, Note_on_c, 13, 62, 0
15, 5520, Note_on_c, 13, 61, 76
15, 5744, Note_on_c, 13, 61, 0
15, 5760, Note_on_c, 13, 59, 76
15, 5984, Note_on_c, 13, 59, 0
15, 6000, Note_on_c, 13, 64, 76
15, 6224, Note_on_c, 13, 64, 0
15, 6240, Note_on_c, 13, 61, 76
15, 6464, Note_on_c, 13, 61, 0
15, 6480, Note_on_c, 13, 59, 76
15, 6584, Note_on_c, 13, 59, 0
15, 6600, Note_on_c, 13, 57, 76
15, 6704, Note_on_c, 13, 57, 0
15, 6720, Note_on_c, 13, 56, 76
15, 6944, Note_on_c, 13, 56, 0
15, 6960, Note_on_c, 13, 52, 76
15, 7184, Note_on_c, 13, 52, 0
15, 7200, Note_on_c, 13, 57, 76
15, 7424, Note_on_c, 13, 57, 0
15, 7440, Note_on_c, 13, 50, 76
15, 7664, Note_on_c, 13, 50, 0
15, 7680, Note_on_c, 13, 49, 76
15, 7904, Note_on_c, 13, 49, 0
15, 7920, Note_on_c, 13, 54, 76
15, 8144, Note_on_c, 13, 54, 0
15, 8160, Note_on_c, 13, 50, 76
15, 8384, Note_on_c, 13, 50, 0
15, 8400, Note_on_c, 13, 47, 76
15, 8624, Note_on_c, 13, 47, 0
15, 8640, Note_on_c, 13, 52, 76
15, 8864, Note_on_c, 13, 52, 0
15, 8880, Note_on_c, 13, 40, 76
15, 9104, Note_on_c, 13, 40, 0
15, 9120, Note_on_c, 13, 45, 76
15, 9584, Note_on_c, 13, 45, 0
15, 9600, Note_on_c, 13, 62, 76
15, 10304, Note_on_c, 13, 62, 0
15, 10320, Note_on_c, 13, 61, 76
15, 10424, Note_on_c, 13, 61, 0
15, 10440, Note_on_c, 13, 59, 76
15, 10544, Note_on_c, 13, 59, 0
15, 10560, Note_on_c, 13, 61, 76
15, 10784, Note_on_c, 13, 61, 0
15, 10800, Note_on_c, 13, 57, 76
15, 11024, Note_on_c, 13, 57, 0
15, 11040, Note_on_c, 13, 62, 76
15, 11264, Note_on_c, 13, 62, 0
15, 11280, Note_on_c, 13, 50, 76
15, 11384, Note_on_c, 13, 50, 0
15, 11400, Note_on_c, 13, 52, 76
15, 11504, Note_on_c, 13, 52, 0
15, 11520, Note_on_c, 13, 54, 76
15, 11744, Note_on_c, 13, 54, 0
15, 11760, Note_on_c, 13, 55, 76
15, 11864, Note_on_c, 13, 55, 0
15, 11880, Note_on_c, 13, 52, 76
15, 11984, Note_on_c, 13, 52, 0
15, 12000, Note_on_c, 13, 54, 76
15, 12224, Note_on_c, 13, 54, 0
15, 12240, Note_on_c, 13, 55, 76
15, 12464, Note_on_c, 13, 55, 0
15, 12480, Note_on_c, 13, 57, 76
15, 12704, Note_on_c, 13, 57, 0
15, 12720, Note_on_c, 13, 45, 76
15, 12944, Note_on_c, 13, 45, 0
15, 12960, Note_on_c, 13, 50, 76
15, 13184, Note_on_c, 13, 50, 0
15, 13200, Note_on_c, 13, 54, 76
15, 13304, Note_on_c, 13, 54, 0
15, 13320, Note_on_c, 13, 57, 76
15, 13424, Note_on_c, 13, 57, 0
15, 13440, Note_on_c, 13, 62, 76
15, 14144, Note_on_c, 13, 62, 0
15, 14160, Note_on_c, 13, 61, 76
15, 14264, Note_on_c, 13, 61, 0
15, 14280, Note_on_c, 13, 59, 76
15, 14384, Note_on_c, 13, 59, 0
15, 14400, Note_on_c, 13, 61, 76
15, 14624, Note_on_c, 13, 61, 0
15, 14640, Note_on_c, 13, 57, 76
15, 14864, Note_on_c, 13, 57, 0
15, 14880, Note_on_c, 13, 62, 76
15, 15104, Note_on_c, 13, 62, 0
15, 15120, Note_on_c, 13, 61, 76
15, 15344, Note_on_c, 13, 61, 0
15, 15360, Note_on_c, 13, 59, 76
15, 15584, Note_on_c, 13, 59, 0
15, 15600, Note_on_c, 13, 64, 76
15, 15824, Note_on_c, 13, 64, 0
15, 15840, Note_on_c, 13, 61, 76
15, 16064, Note_on_c, 13, 61, 0
15, 16080, Note_on_c, 13, 59, 76
15, 16184, Note_on_c, 13, 59, 0
15, 16200, Note_on_c, 13, 57, 76
15, 16304, Note_on_c, 13, 57, 0
15, 16320, Note_on_c, 13, 56, 76
15, 16544, Note_on_c, 13, 56, 0
15, 16560, Note_on_c, 13, 52, 76
15, 16784, Note_on_c, 13, 52, 0
15, 16800, Note_on_c, 13, 57, 76
15, 17024, Note_on_c, 13, 57, 0
15, 17040, Note_on_c, 13, 50, 76
15, 17264, Note_on_c, 13, 50, 0
15, 17280, Note_on_c, 13, 49, 76
15, 17504, Note_on_c, 13, 49, 0
15, 17520, Note_on_c, 13, 54, 76
15, 17744, Note_on_c, 13, 54, 0
15, 17760, Note_on_c, 13, 50, 76
15, 17984, Note_on_c, 13, 50, 0
15, 18000, Note_on_c, 13, 47, 76
15, 18224, Note_on_c, 13, 47, 0
15, 18240, Note_on_c, 13, 52, 76
15, 18464, Note_on_c, 13, 52, 0
15, 18480, Note_on_c, 13, 40, 76
15, 18704, Note_on_c, 13, 40, 0
15, 18720, Note_on_c, 13, 45, 76
15, 19184, Note_on_c, 13, 45, 0
15, 19200, Note_on_c, 13, 45, 76
15, 19424, Note_on_c, 13, 45, 0
15, 19440, Note_on_c, 13, 49, 76
15, 19664, Note_on_c, 13, 49, 0
15, 19680, Note_on_c, 13, 50, 76
15, 19904, Note_on_c, 13, 50, 0
15, 19920, Note_on_c, 13, 49, 76
15, 20144, Note_on_c, 13, 49, 0
15, 20160, Note_on_c, 13, 47, 76
15, 20384, Note_on_c, 13, 47, 0
15, 20400, Note_on_c, 13, 50, 76
15, 20624, Note_on_c, 13, 50, 0
15, 20640, Note_on_c, 13, 52, 76
15, 20864, Note_on_c, 13, 52, 0
15, 20880, Note_on_c, 13, 50, 76
15, 21104, Note_on_c, 13, 50, 0
15, 21120, Note_on_c, 13, 52, 76
15, 21344, Note_on_c, 13, 52, 0
15, 21360, Note_on_c, 13, 54, 76
15, 21584, Note_on_c, 13, 54, 0
15, 21600, Note_on_c, 13, 55, 76
15, 21824, Note_on_c, 13, 55, 0
15, 21840, Note_on_c, 13, 54, 76
15, 22064, Note_on_c, 13, 54, 0
15, 22080, Note_on_c, 13, 55, 76
15, 22304, Note_on_c, 13, 55, 0
15, 22320, Note_on_c, 13, 52, 76
15, 22544, Note_on_c, 13, 52, 0
15, 22560, Note_on_c, 13, 54, 76
15, 22784, Note_on_c, 13, 54, 0
15, 22800, Note_on_c, 13, 56, 76
15, 22904, Note_on_c, 13, 56, 0
15, 22920, Note_on_c, 13, 58, 76
15, 23024, Note_on_c, 13, 58, 0
15, 23040, Note_on_c, 13, 59, 76
15, 23264, Note_on_c, 13, 59, 0
15, 23280, Note_on_c, 13, 57, 76
15, 23504, Note_on_c, 13, 57, 0
15, 23520, Note_on_c, 13, 56, 76
15, 23744, Note_on_c, 13, 56, 0
15, 23760, Note_on_c, 13, 61, 76
15, 23984, Note_on_c, 13, 61, 0
15, 24000, Note_on_c, 13, 58, 76
15, 24224, Note_on_c, 13, 58, 0
15, 24240, Note_on_c, 13, 54, 76
15, 24464, Note_on_c, 13, 54, 0
15, 24480, Note_on_c, 13, 59, 76
15, 24704, Note_on_c, 13, 59, 0
15, 24720, Note_on_c, 13, 55, 76
15, 24944, Note_on_c, 13, 55, 0
15, 24960, Note_on_c, 13, 52, 76
15, 25184, Note_on_c, 13, 52, 0
15, 25200, Note_on_c, 13, 50, 76
15, 25304, Note_on_c, 13, 50, 0
15, 25320, Note_on_c, 13, 49, 76
15, 25424, Note_on_c, 13, 49, 0
15, 25440, Note_on_c, 13, 50, 76
15, 25664, Note_on_c, 13, 50, 0
15, 25680, Note_on_c, 13, 52, 76
15, 25904, Note_on_c, 13, 52, 0
15, 25920, Note_on_c, 13, 54, 76
15, 26144, Note_on_c, 13, 54, 0
15, 26160, Note_on_c, 13, 42, 76
15, 26384, Note_on_c, 13, 42, 0
15, 26400, Note_on_c, 13, 47, 76
15, 26624, Note_on_c, 13, 47, 0
15, 26640, Note_on_c, 13, 57, 76
15, 26744, Note_on_c, 13, 57, 0
15, 26760, Note_on_c, 13, 54, 76
15, 26864, Note_on_c, 13, 54, 0
15, 26880, Note_on_c, 13, 55, 76
15, 27584, Note_on_c, 13, 55, 0
15, 27600, Note_on_c, 13, 54, 76
15, 27704, Note_on_c, 13, 54, 0
15, 27720, Note_on_c, 13, 52, 76
15, 27824, Note_on_c, 13, 52, 0
15, 27840, Note_on_c, 13, 51, 76
15, 28064, Note_on_c, 13, 51, 0
15, 28080, Note_on_c, 13, 47, 76
15, 28304, Note_on_c, 13, 47, 0
15, 28320, Note_on_c, 13, 52, 76
15, 28544, Note_on_c, 13, 52, 0
15, 28560, Note_on_c, 13, 54, 76
15, 28664, Note_on_c, 13, 54, 0
15, 28680, Note_on_c, 13, 55, 76
15, 28784, Note_on_c, 13, 55, 0
15, 28800, Note_on_c, 13, 57, 76
15, 29024, Note_on_c, 13, 57, 0
15, 29040, Note_on_c, 13, 49, 76
15, 29264, Note_on_c, 13, 49, 0
15, 29280, Note_on_c, 13, 50, 76
15, 29504, Note_on_c, 13, 50, 0
15, 29520, Note_on_c, 13, 47, 76
15, 29744, Note_on_c, 13, 47, 0
15, 29760, Note_on_c, 13, 43, 76
15, 29984, Note_on_c, 13, 43, 0
15, 30000, Note_on_c, 13, 44, 76
15, 30224, Note_on_c, 13, 44, 0
15, 30240, Note_on_c, 13, 45, 76
15, 30464, Note_on_c, 13, 45, 0
15, 30480, Note_on_c, 13, 47, 76
15, 30584, Note_on_c, 13, 47, 0
15, 30600, Note_on_c, 13, 49, 76
15, 30704, Note_on_c, 13, 49, 0
15, 30720, Note_on_c, 13, 50, 76
15, 30824, Note_on_c, 13, 50, 0
15, 30840, Note_on_c, 13, 52, 76
15, 30944, Note_on_c, 13, 52, 0
15, 30960, Note_on_c, 13, 54, 76
15, 31424, Note_on_c, 13, 54, 0
15, 31440, Note_on_c, 13, 52, 76
15, 31544, Note_on_c, 13, 52, 0
15, 31560, Note_on_c, 13, 50, 76
15, 31664, Note_on_c, 13, 50, 0
15, 31680, Note_on_c, 13, 52, 76
15, 31784, Note_on_c, 13, 52, 0
15, 31800, Note_on_c, 13, 54, 76
15, 31904, Note_on_c, 13, 54, 0
15, 31920, Note_on_c, 13, 55, 76
15, 32384, Note_on_c, 13, 55, 0
15, 32400, Note_on_c, 13, 52, 76
15, 32624, Note_on_c, 13, 52, 0
15, 32640, Note_on_c, 13, 49, 76
15, 32864, Note_on_c, 13, 49, 0
15, 32880, Note_on_c, 13, 45, 76
15, 33104, Note_on_c, 13, 45, 0
15, 33120, Note_on_c, 13, 50, 76
15, 33344, Note_on_c, 13, 50, 0
15, 33360, Note_on_c, 13, 55, 76
15, 33584, Note_on_c, 13, 55, 0
15, 33600, Note_on_c, 13, 57, 76
15, 33824, Note_on_c, 13, 57, 0
15, 33840, Note_on_c, 13, 45, 76
15, 34064, Note_on_c, 13, 45, 0
15, 34080, Note_on_c, 13, 50, 76
15, 34544, Note_on_c, 13, 50, 0
15, 34560, Note_on_c, 13, 45, 76
15, 34784, Note_on_c, 13, 45, 0
15, 34800, Note_on_c, 13, 49, 76
15, 35024, Note_on_c, 13, 49, 0
15, 35040, Note_on_c, 13, 50, 76
15, 35264, Note_on_c, 13, 50, 0
15, 35280, Note_on_c, 13, 49, 76
15, 35504, Note_on_c, 13, 49, 0
15, 35520, Note_on_c, 13, 47, 76
15, 35744, Note_on_c, 13, 47, 0
15, 35760, Note_on_c, 13, 50, 76
15, 35984, Note_on_c, 13, 50, 0
15, 36000, Note_on_c, 13, 52, 76
15, 36224, Note_on_c, 13, 52, 0
15, 36240, Note_on_c, 13, 50, 76
15, 36464, Note_on_c, 13, 50, 0
15, 36480, Note_on_c, 13, 52, 76
15, 36704, Note_on_c, 13, 52, 0
15, 36720, Note_on_c, 13, 54, 76
15, 36944, Note_on_c, 13, 54, 0
15, 36960, Note_on_c, 13, 55, 76
15, 37184, Note_on_c, 13, 55, 0
15, 37200, Note_on_c, 13, 54, 76
15, 37424, Note_on_c, 13, 54, 0
15, 37440, Note_on_c, 13, 55, 76
15, 37664, Note_on_c, 13, 55, 0
15, 37680, Note_on_c, 13, 52, 76
15, 37904, Note_on_c, 13, 52, 0
15, 37920, Note_on_c, 13, 54, 76
15, 38144, Note_on_c, 13, 54, 0
15, 38160, Note_on_c, 13, 56, 76
15, 38264, Note_on_c, 13, 56, 0
15, 38280, Note_on_c, 13, 58, 76
15, 38384, Note_on_c, 13, 58, 0
15, 38400, Note_on_c, 13, 59, 76
15, 38624, Note_on_c, 13, 59, 0
15, 38640, Note_on_c, 13, 57, 76
15, 38864, Note_on_c, 13, 57, 0
15, 38880, Note_on_c, 13, 56, 76
15, 39104, Note_on_c, 13, 56, 0
15, 39120, Note_on_c, 13, 61, 76
15, 39344, Note_on_c, 13, 61, 0
15, 39360, Note_on_c, 13, 58, 76
15, 39584, Note_on_c, 13, 58, 0
15, 39600, Note_on_c, 13, 54, 76
15, 39824, Note_on_c, 13, 54, 0
15, 39840, Note_on_c, 13, 59, 76
15, 40064, Note_on_c, 13, 59, 0
15, 40080, Note_on_c, 13, 55, 76
15, 40304, Note_on_c, 13, 55, 0
15, 40320, Note_on_c, 13, 52, 76
15, 40544, Note_on_c, 13, 52, 0
15, 40560, Note_on_c, 13, 50, 76
15, 40664, Note_on_c, 13, 50, 0
15, 40680, Note_on_c, 13, 49, 76
15, 40784, Note_on_c, 13, 49, 0
15, 40800, Note_on_c, 13, 50, 76
15, 41024, Note_on_c, 13, 50, 0
15, 41040, Note_on_c, 13, 52, 76
15, 41264, Note_on_c, 13, 52, 0
15, 41280, Note_on_c, 13, 54, 76
15, 41504, Note_on_c, 13, 54, 0
15, 41520, Note_on_c, 13, 42, 76
15, 41744, Note_on_c, 13, 42, 0
15, 41760, Note_on_c, 13, 47, 76
15, 41984, Note_on_c, 13, 47, 0
15, 42000, Note_on_c, 13, 57, 76
15, 42104, Note_on_c, 13, 57, 0
15, 42120, Note_on_c, 13, 54, 76
15, 42224, Note_on_c, 13, 54, 0
15, 42240, Note_on_c, 13, 55, 76
15, 42944, Note_on_c, 13, 55, 0
15, 42960, Note_on_c, 13, 54, 76
15, 43064, Note_on_c, 13, 54, 0
15, 43080, Note_on_c, 13, 52, 76
15, 43184, Note_on_c, 13, 52, 0
15, 43200, Note_on_c, 13, 51, 76
15, 43424, Note_on_c, 13, 51, 0
15, 43440, Note_on_c, 13, 47, 76
15, 43664, Note_on_c, 13, 47, 0
15, 43680, Note_on_c, 13, 52, 76
15, 43904, Note_on_c, 13, 52, 0
15, 43920, Note_on_c, 13, 54, 76
15, 44024, Note_on_c, 13, 54, 0
15, 44040, Note_on_c, 13, 55, 76
15, 44144, Note_on_c, 13, 55, 0
15, 44160, Note_on_c, 13, 57, 76
15, 44384, Note_on_c, 13, 57, 0
15, 44400, Note_on_c, 13, 49, 76
15, 44624, Note_on_c, 13, 49, 0
15, 44640, Note_on_c, 13, 50, 76
15, 44864, Note_on_c, 13, 50, 0
15, 44880, Note_on_c, 13, 47, 76
15, 45104, Note_on_c, 13, 47, 0
15, 45120, Note_on_c, 13, 43, 76
15, 45344, Note_on_c, 13, 43, 0
15, 45360, Note_on_c, 13, 44, 76
15, 45584, Note_on_c, 13, 44, 0
15, 45600, Note_on_c, 13, 45, 76
15, 45824, Note_on_c, 13, 45, 0
15, 45840, Note_on_c, 13, 47, 76
15, 45944, Note_on_c, 13, 47, 0
15, 45960, Note_on_c, 13, 49, 76
15, 46064, Note_on_c, 13, 49, 0
15, 46080, Note_on_c, 13, 50, 76
15, 46184, Note_on_c, 13, 50, 0
15, 46200, Note_on_c, 13, 52, 76
15, 46304, Note_on_c, 13, 52, 0
15, 46320, Note_on_c, 13, 54, 76
15, 46784, Note_on_c, 13, 54, 0
15, 46800, Note_on_c, 13, 52, 76
15, 46904, Note_on_c, 13, 52, 0
15, 46920, Note_on_c, 13, 50, 76
15, 47024, Note_on_c, 13, 50, 0
15, 47040, Note_on_c, 13, 52, 76
15, 47144, Note_on_c, 13, 52, 0
15, 47160, Note_on_c, 13, 54, 76
15, 47264, Note_on_c, 13, 54, 0
15, 47280, Note_on_c, 13, 55, 76
15, 47744, Note_on_c, 13, 55, 0
15, 47760, Note_on_c, 13, 52, 76
15, 47984, Note_on_c, 13, 52, 0
15, 48000, Note_on_c, 13, 49, 76
15, 48224, Note_on_c, 13, 49, 0
15, 48240, Note_on_c, 13, 45, 76
15, 48464, Note_on_c, 13, 45, 0
15, 48480, Note_on_c, 13, 50, 76
15, 48704, Note_on_c, 13, 50, 0
15, 48720, Note_on_c, 13, 55, 76
15, 48944, Note_on_c, 13, 55, 0
15, 48960, Note_on_c, 13, 57, 76
15, 49184, Note_on_c, 13, 57, 0
15, 49200, Note_on_c, 13, 45, 76
15, 49424, Note_on_c, 13, 45, 0
15, 49440, Note_on_c, 13, 50, 76
15, 49919, Note_on_c, 13, 50, 0
15, 50160, Note_on_c, 13, 62, 76
15, 50264, Note_on_c, 13, 62, 0
15, 50280, Note_on_c, 13, 61, 76
15, 50384, Note_on_c, 13, 61, 0
15, 50400, Note_on_c, 13, 62, 76
15, 50624, Note_on_c, 13, 62, 0
15, 50640, Note_on_c, 13, 54, 76
15, 50744, Note_on_c, 13, 54, 0
15, 50760, Note_on_c, 13, 52, 76
15, 50864, Note_on_c, 13, 52, 0
15, 50880, Note_on_c, 13, 54, 76
15, 51104, Note_on_c, 13, 54, 0
15, 51120, Note_on_c, 13, 57, 76
15, 51224, Note_on_c, 13, 57, 0
15, 51240, Note_on_c, 13, 55, 76
15, 51344, Note_on_c, 13, 55, 0
15, 51360, Note_on_c, 13, 57, 76
15, 51584, Note_on_c, 13, 57, 0
15, 51600, Note_on_c, 13, 50, 76
15, 52079, Note_on_c, 13, 50, 0
15, 54000, Note_on_c, 13, 62, 76
15, 54104, Note_on_c, 13, 62, 0
15, 54120, Note_on_c, 13, 61, 76
15, 54224, Note_on_c, 13, 61, 0
15, 54240, Note_on_c, 13, 62, 76
15, 54464, Note_on_c, 13, 62, 0
15, 54480, Note_on_c, 13, 54, 76
15, 54584, Note_on_c, 13, 54, 0
15, 54600, Note_on_c, 13, 52, 76
15, 54704, Note_on_c, 13, 52, 0
15, 54720, Note_on_c, 13, 54, 76
15, 54944, Note_on_c, 13, 54, 0
15, 54960, Note_on_c, 13, 57, 76
15, 55064, Note_on_c, 13, 57, 0
15, 55080, Note_on_c, 13, 55, 76
15, 55184, Note_on_c, 13, 55, 0
15, 55200, Note_on_c, 13, 57, 76
15, 55424, Note_on_c, 13, 57, 0
15, 55440, Note_on_c, 13, 50, 76
15, 55919, Note_on_c, 13, 50, 0
15, 59760, Note_on_c, 13, 62, 76
15, 59864, Note_on_c, 13, 62, 0
15, 59880, Note_on_c, 13, 61, 76
15, 59984, Note_on_c, 13, 61, 0
15, 60000, Note_on_c, 13, 62, 76
15, 60224, Note_on_c, 13, 62, 0
15, 60240, Note_on_c, 13, 56, 76
15, 60344, Note_on_c, 13, 56, 0
15, 60360, Note_on_c, 13, 54, 76
15, 60464, Note_on_c, 13, 54, 0
15, 60480, Note_on_c, 13, 56, 76
15, 60704, Note_on_c, 13, 56, 0
15, 60720, Note_on_c, 13, 59, 76
15, 60824, Note_on_c, 13, 59, 0
15, 60840, Note_on_c, 13, 57, 76
15, 60944, Note_on_c, 13, 57, 0
15, 60960, Note_on_c, 13, 59, 76
15, 61184, Note_on_c, 13, 59, 0
15, 61200, Note_on_c, 13, 52, 76
15, 62159, Note_on_c, 13, 52, 0
15, 62160, Note_on_c, 13, 52, 76
15, 63119, Note_on_c, 13, 52, 0
15, 63120, Note_on_c, 13, 52, 76
15, 63584, Note_on_c, 13, 52, 0
15, 63600, Note_on_c, 13, 57, 76
15, 63704, Note_on_c, 13, 57, 0
15, 63720, Note_on_c, 13, 56, 76
15, 63824, Note_on_c, 13, 56, 0
15, 63840, Note_on_c, 13, 57, 76
15, 64064, Note_on_c, 13, 57, 0
15, 64080, Note_on_c, 13, 49, 76
15, 64184, Note_on_c, 13, 49, 0
15, 64200, Note_on_c, 13, 47, 76
15, 64304, Note_on_c, 13, 47, 0
15, 64320, Note_on_c, 13, 49, 76
15, 64544, Note_on_c, 13, 49, 0
15, 64560, Note_on_c, 13, 52, 76
15, 64664, Note_on_c, 13, 52, 0
15, 64680, Note_on_c, 13, 50, 76
15, 64784, Note_on_c, 13, 50, 0
15, 64800, Note_on_c, 13, 52, 76
15, 65024, Note_on_c, 13, 52, 0
15, 65040, Note_on_c, 13, 45, 76
15, 65504, Note_on_c, 13, 45, 0
15, 65520, Note_on_c, 13, 62, 76
15, 65624, Note_on_c, 13, 62, 0
15, 65640, Note_on_c, 13, 61, 76
15, 65744, Note_on_c, 13, 61, 0
15, 65760, Note_on_c, 13, 62, 76
15, 65984, Note_on_c, 13, 62, 0
15, 66000, Note_on_c, 13, 54, 76
15, 66104, Note_on_c, 13, 54, 0
15, 66120, Note_on_c, 13, 52, 76
15, 66224, Note_on_c, 13, 52, 0
15, 66240, Note_on_c, 13, 54, 76
15, 66464, Note_on_c, 13, 54, 0
15, 66480, Note_on_c, 13, 57, 76
15, 66584, Note_on_c, 13, 57, 0
15, 66600, Note_on_c, 13, 55, 76
15, 66704, Note_on_c, 13, 55, 0
15, 66720, Note_on_c, 13, 57, 76
15, 66944, Note_on_c, 13, 57, 0
15, 66960, Note_on_c, 13, 50, 76
15, 67439, Note_on_c, 13, 50, 0
15, 69360, Note_on_c, 13, 62, 76
15, 69464, Note_on_c, 13, 62, 0
15, 69480, Note_on_c, 13, 61, 76
15, 69584, Note_on_c, 13, 61, 0
15, 69600, Note_on_c, 13, 62, 76
15, 69824, Note_on_c, 13, 62, 0
15, 69840, Note_on_c, 13, 54, 76
15, 69944, Note_on_c, 13, 54, 0
15, 69960, Note_on_c, 13, 52, 76
15, 70064, Note_on_c, 13, 52, 0
15, 70080, Note_on_c, 13, 54, 76
15, 70304, Note_on_c, 13, 54, 0
15, 70320, Note_on_c, 13, 57, 76
15, 70424, Note_on_c, 13, 57, 0
15, 70440, Note_on_c, 13, 55, 76
15, 70544, Note_on_c, 13, 55, 0
15, 70560, Note_on_c, 13, 57, 76
15, 70784, Note_on_c, 13, 57, 0
15, 70800, Note_on_c, 13, 50, 76
15, 71279, Note_on_c, 13, 50, 0
15, 75120, Note_on_c, 13, 62, 76
15, 75224, Note_on_c, 13, 62, 0
15, 75240, Note_on_c, 13, 61, 76
15, 75344, Note_on_c, 13, 61, 0
15, 75360, Note_on_c, 13, 62, 76
15, 75584, Note_on_c, 13, 62, 0
15, 75600, Note_on_c, 13, 56, 76
15, 75704, Note_on_c, 13, 56, 0
15, 75720, Note_on_c, 13, 54, 76
15, 75824, Note_on_c, 13, 54, 0
15, 75840, Note_on_c, 13, 56, 76
15, 76064, Note_on_c, 13, 56, 0
15, 76080, Note_on_c, 13, 59, 76
15, 76184, Note_on_c, 13, 59, 0
15, 76200, Note_on_c, 13, 57, 76
15, 76304, Note_on_c, 13, 57, 0
15, 76320, Note_on_c, 13, 59, 76
15, 76544, Note_on_c, 13, 59, 0
15, 76560, Note_on_c, 13, 52, 76
15, 77519, Note_on_c, 13, 52, 0
15, 77520, Note_on_c, 13, 52, 76
15, 78479, Note_on_c, 13, 52, 0
15, 78480, Note_on_c, 13, 52, 76
15, 78944, Note_on_c, 13, 52, 0
15, 78960, Note_on_c, 13, 57, 76
15, 79064, Note_on_c, 13, 57, 0
15, 79080, Note_on_c, 13, 56, 76
15, 79184, Note_on_c, 13, 56, 0
15, 79200, Note_on_c, 13, 57, 76
15, 79424, Note_on_c, 13, 57, 0
15, 79440, Note_on_c, 13, 49, 76
15, 79544, Note_on_c, 13, 49, 0
15, 79560, Note_on_c, 13, 47, 76
15, 79664, Note_on_c, 13, 47, 0
15, 79680, Note_on_c, 13, 49, 76
15, 79904, Note_on_c, 13, 49, 0
15, 79920, Note_on_c, 13, 52, 76
15, 80024, Note_on_c, 13, 52, 0
15, 80040, Note_on_c, 13, 50, 76
15, 80144, Note_on_c, 13, 50, 0
15, 80160, Note_on_c, 13, 52, 76
15, 80384, Note_on_c, 13, 52, 0
15, 80400, Note_on_c, 13, 45, 76
15, 80864, Note_on_c, 13, 45, 0
15, 80880, Note_on_c, 13, 57, 76
15, 80984, Note_on_c, 13, 57, 0
15, 81000, Note_on_c, 13, 56, 76
15, 81104, Note_on_c, 13, 56, 0
15, 81120, Note_on_c, 13, 57, 76
15, 81344, Note_on_c, 13, 57, 0
15, 81360, Note_on_c, 13, 49, 76
15, 81464, Note_on_c, 13, 49, 0
15, 81480, Note_on_c, 13, 47, 76
15, 81584, Note_on_c, 13, 47, 0
15, 81600, Note_on_c, 13, 49, 76
15, 81824, Note_on_c, 13, 49, 0
15, 81840, Note_on_c, 13, 52, 76
15, 81944, Note_on_c, 13, 52, 0
15, 81960, Note_on_c, 13, 50, 76
15, 82064, Note_on_c, 13, 50, 0
15, 82080, Note_on_c, 13, 52, 76
15, 82304, Note_on_c, 13, 52, 0
15, 82320, Note_on_c, 13, 45, 76
15, 82799, Note_on_c, 13, 45, 0
15, 84720, Note_on_c, 13, 59, 76
15, 84824, Note_on_c, 13, 59, 0
15, 84840, Note_on_c, 13, 58, 76
15, 84944, Note_on_c, 13, 58, 0
15, 84960, Note_on_c, 13, 59, 76
15, 85184, Note_on_c, 13, 59, 0
15, 85200, Note_on_c, 13, 50, 76
15, 85304, Note_on_c, 13, 50, 0
15, 85320, Note_on_c, 13, 49, 76
15, 85424, Note_on_c, 13, 49, 0
15, 85440, Note_on_c, 13, 50, 76
15, 85664, Note_on_c, 13, 50, 0
15, 85680, Note_on_c, 13, 54, 76
15, 85784, Note_on_c, 13, 54, 0
15, 85800, Note_on_c, 13, 52, 76
15, 85904, Note_on_c, 13, 52, 0
15, 85920, Note_on_c, 13, 54, 76
15, 86144, Note_on_c, 13, 54, 0
15, 86160, Note_on_c, 13, 47, 76
15, 86639, Note_on_c, 13, 47, 0
15, 88560, Note_on_c, 13, 50, 76
15, 88664, Note_on_c, 13, 50, 0
15, 88680, Note_on_c, 13, 49, 76
15, 88784, Note_on_c, 13, 49, 0
15, 88800, Note_on_c, 13, 50, 76
15, 89024, Note_on_c, 13, 50, 0
15, 89040, Note_on_c, 13, 42, 76
15, 89144, Note_on_c, 13, 42, 0
15, 89160, Note_on_c, 13, 40, 76
15, 89264, Note_on_c, 13, 40, 0
15, 89280, Note_on_c, 13, 42, 76
15, 89504, Note_on_c, 13, 42, 0
15, 89520, Note_on_c, 13, 45, 76
15, 89624, Note_on_c, 13, 45, 0
15, 89640, Note_on_c, 13, 43, 76
15, 89744, Note_on_c, 13, 43, 0
15, 89760, Note_on_c, 13, 45, 76
15, 89984, Note_on_c, 13, 45, 0
15, 90000, Note_on_c, 13, 38, 76
15, 90479, Note_on_c, 13, 38, 0
15, 94320, Note_on_c, 13, 50, 76
15, 94424, Note_on_c, 13, 50, 0
15, 94440, Note_on_c, 13, 49, 76
15, 94544, Note_on_c, 13, 49, 0
15, 94560, Note_on_c, 13, 50, 76
15, 94784, Note_on_c, 13, 50, 0
15, 94800, Note_on_c, 13, 42, 76
15, 94904, Note_on_c, 13, 42, 0
15, 94920, Note_on_c, 13, 40, 76
15, 95024, Note_on_c, 13, 40, 0
15, 95040, Note_on_c, 13, 42, 76
15, 95264, Note_on_c, 13, 42, 0
15, 95280, Note_on_c, 13, 45, 76
15, 95384, Note_on_c, 13, 45, 0
15, 95400, Note_on_c, 13, 43, 76
15, 95504, Note_on_c, 13, 43, 0
15, 95520, Note_on_c, 13, 45, 76
15, 95744, Note_on_c, 13, 45, 0
15, 95760, Note_on_c, 13, 38, 76
15, 96224, Note_on_c, 13, 38, 0
15, 96240, Note_on_c, 13, 57, 76
15, 96344, Note_on_c, 13, 57, 0
15, 96360, Note_on_c, 13, 56, 76
15, 96464, Note_on_c, 13, 56, 0
15, 96480, Note_on_c, 13, 57, 76
15, 96704, Note_on_c, 13, 57, 0
15, 96720, Note_on_c, 13, 49, 76
15, 96824, Note_on_c, 13, 49, 0
15, 96840, Note_on_c, 13, 47, 76
15, 96944, Note_on_c, 13, 47, 0
15, 96960, Note_on_c, 13, 49, 76
15, 97184, Note_on_c, 13, 49, 0
15, 97200, Note_on_c, 13, 52, 76
15, 97304, Note_on_c, 13, 52, 0
15, 97320, Note_on_c, 13, 50, 76
15, 97424, Note_on_c, 13, 50, 0
15, 97440, Note_on_c, 13, 52, 76
15, 97664, Note_on_c, 13, 52, 0
15, 97680, Note_on_c, 13, 45, 76
15, 98159, Note_on_c, 13, 45, 0
15, 100080, Note_on_c, 13, 59, 76
15, 100184, Note_on_c, 13, 59, 0
15, 100200, Note_on_c, 13, 58, 76
15, 100304, Note_on_c, 13, 58, 0
15, 100320, Note_on_c, 13, 59, 76
15, 100544, Note_on_c, 13, 59, 0
15, 100560, Note_on_c, 13, 50, 76
15, 100664, Note_on_c, 13, 50, 0
15, 100680, Note_on_c, 13, 49, 76
15, 100784, Note_on_c, 13, 49, 0
15, 100800, Note_on_c, 13, 50, 76
15, 101024, Note_on_c, 13, 50, 0
15, 101040, Note_on_c, 13, 54, 76
15, 101144, Note_on_c, 13, 54, 0
15, 101160, Note_on_c, 13, 52, 76
15, 101264, Note_on_c, 13, 52, 0
15, 101280, Note_on_c, 13, 54, 76
15, 101504, Note_on_c, 13, 54, 0
15, 101520, Note_on_c, 13, 47, 76
15, 101999, Note_on_c, 13, 47, 0
15, 103920, Note_on_c, 13, 50, 76
15, 104024, Note_on_c, 13, 50, 0
15, 104040, Note_on_c, 13, 49, 76
15, 104144, Note_on_c, 13, 49, 0
15, 104160, Note_on_c, 13, 50, 76
15, 104384, Note_on_c, 13, 50, 0
15, 104400, Note_on_c, 13, 42, 76
15, 104504, Note_on_c, 13, 42, 0
15, 104520, Note_on_c, 13, 40, 76
15, 104624, Note_on_c, 13, 40, 0
15, 104640, Note_on_c, 13, 42, 76
15, 104864, Note_on_c, 13, 42, 0
15, 104880, Note_on_c, 13, 45, 76
15, 104984, Note_on_c, 13, 45, 0
15, 105000, Note_on_c, 13, 43, 76
15, 105104, Note_on_c, 13, 43, 0
15, 105120, Note_on_c, 13, 45, 76
15, 105344, Note_on_c, 13, 45, 0
15, 105360, Note_on_c, 13, 38, 76
15, 105839, Note_on_c, 13, 38, 0
15, 109680, Note_on_c, 13, 50, 76
15, 109784, Note_on_c, 13, 50, 0
15, 109800, Note_on_c, 13, 49, 76
15, 109904, Note_on_c, 13, 49, 0
15, 109920, Note_on_c, 13, 50, 76
15, 110144, Note_on_c, 13, 50, 0
15, 110160, Note_on_c, 13, 42, 76
15, 110264, Note_on_c, 13, 42, 0
15, 110280, Note_on_c, 13, 40, 76
15, 110384, Note_on_c, 13, 40, 0
15, 110400, Note_on_c, 13, 42, 76
15, 110624, Note_on_c, 13, 42, 0
15, 110640, Note_on_c, 13, 45, 76
15, 110744, Note_on_c, 13, 45, 0
15, 110760, Note_on_c, 13, 43, 76
15, 110864, Note_on_c, 13, 43, 0
15, 110880, Note_on_c, 13, 45, 76
15, 111104, Note_on_c, 13, 45, 0
15, 111120, Note_on_c, 13, 38, 76
15, 111584, Note_on_c, 13, 38, 0
15, 111840, Note_on_c, 13, 62, 76
15, 112544, Note_on_c, 13, 62, 0
15, 112560, Note_on_c, 13, 61, 76
15, 112664, Note_on_c, 13, 61, 0
15, 112680, Note_on_c, 13, 59, 76
15, 112784, Note_on_c, 13, 59, 0
15, 112800, Note_on_c, 13, 61, 76
15, 113024, Note_on_c, 13, 61, 0
15, 113040, Note_on_c, 13, 57, 76
15, 113264, Note_on_c, 13, 57, 0
15, 113280, Note_on_c, 13, 62, 76
15, 113504, Note_on_c, 13, 62, 0
15, 113520, Note_on_c, 13, 50, 76
15, 113624, Note_on_c, 13, 50, 0
15, 113640, Note_on_c, 13, 52, 76
15, 113744, Note_on_c, 13, 52, 0
15, 113760, Note_on_c, 13, 54, 76
15, 113984, Note_on_c, 13, 54, 0
15, 114000, Note_on_c, 13, 55, 76
15, 114104, Note_on_c, 13, 55, 0
15, 114120, Note_on_c, 13, 52, 76
15, 114224, Note_on_c, 13, 52, 0
15, 114240, Note_on_c, 13, 54, 76
15, 114464, Note_on_c, 13, 54, 0
15, 114480, Note_on_c, 13, 55, 76
15, 114704, Note_on_c, 13, 55, 0
15, 114720, Note_on_c, 13, 57, 76
15, 114944, Note_on_c, 13, 57, 0
15, 114960, Note_on_c, 13, 45, 76
15, 115184, Note_on_c, 13, 45, 0
15, 115200, Note_on_c, 13, 50, 76
15, 115424, Note_on_c, 13, 50, 0
15, 115440, Note_on_c, 13, 54, 76
15, 115544, Note_on_c, 13, 54, 0
15, 115560, Note_on_c, 13, 57, 76
15, 115664, Note_on_c, 13, 57, 0
15, 115680, Note_on_c, 13, 62, 76
15, 116384, Note_on_c, 13, 62, 0
15, 116400, Note_on_c, 13, 61, 76
15, 116504, Note_on_c, 13, 61, 0
15, 116520, Note_on_c, 13, 59, 76
15, 116624, Note_on_c, 13, 59, 0
15, 116640, Note_on_c, 13, 61, 76
15, 116864, Note_on_c, 13, 61, 0
15, 116880, Note_on_c, 13, 57, 76
15, 117104, Note_on_c, 13, 57, 0
15, 117120, Note_on_c, 13, 62, 76
15, 117344, Note_on_c, 13, 62, 0
15, 117360, Note_on_c, 13, 61, 76
15, 117584, Note_on_c, 13, 61, 0
15, 117600, Note_on_c, 13, 59, 76
15, 117824, Note_on_c, 13, 59, 0
15, 117840, Note_on_c, 13, 64, 76
15, 118064, Note_on_c, 13, 64, 0
15, 118080, Note_on_c, 13, 61, 76
15, 118304, Note_on_c, 13, 61, 0
15, 118320, Note_on_c, 13, 59, 76
15, 118424, Note_on_c, 13, 59, 0
15, 118440, Note_on_c, 13, 57, 76
15, 118544, Note_on_c, 13, 57, 0
15, 118560, Note_on_c, 13, 56, 76
15, 118784, Note_on_c, 13, 56, 0
15, 118800, Note_on_c, 13, 52, 76
15, 119024, Note_on_c, 13, 52, 0
15, 119040, Note_on_c, 13, 57, 76
15, 119264, Note_on_c, 13, 57, 0
15, 119280, Note_on_c, 13, 50, 76
15, 119504, Note_on_c, 13, 50, 0
15, 119520, Note_on_c, 13, 49, 76
15, 119744, Note_on_c, 13, 49, 0
15, 119760, Note_on_c, 13, 54, 76
15, 119984, Note_on_c, 13, 54, 0
15, 120000, Note_on_c, 13, 50, 76
15, 120224, Note_on_c, 13, 50, 0
15, 120240, Note_on_c, 13, 47, 76
15, 120464, Note_on_c, 13, 47, 0
15, 120480, Note_on_c, 13, 52, 76
15, 120704, Note_on_c, 13, 52, 0
15, 120720, Note_on_c, 13, 40, 76
15, 120944, Note_on_c, 13, 40, 0
15, 120960, Note_on_c, 13, 45, 76
15, 121424, Note_on_c, 13, 45, 0
15, 121440, Note_on_c, 13, 62, 76
15, 122144, Note_on_c, 13, 62, 0
15, 122160, Note_on_c, 13, 61, 76
15, 122264, Note_on_c, 13, 61, 0
15, 122280, Note_on_c, 13, 59, 76
15, 122384, Note_on_c, 13, 59, 0
15, 122400, Note_on_c, 13, 61, 76
15, 122624, Note_on_c, 13, 61, 0
15, 122640, Note_on_c, 13, 57, 76
15, 122864, Note_on_c, 13, 57, 0
15, 122880, Note_on_c, 13, 62, 76
15, 123104, Note_on_c, 13, 62, 0
15, 123120, Note_on_c, 13, 50, 76
15, 123224, Note_on_c, 13, 50, 0
15, 123240, Note_on_c, 13, 52, 76
15, 123344, Note_on_c, 13, 52, 0
15, 123360, Note_on_c, 13, 54, 76
15, 123584, Note_on_c, 13, 54, 0
15, 123600, Note_on_c, 13, 55, 76
15, 123704, Note_on_c, 13, 55, 0
15, 123720, Note_on_c, 13, 52, 76
15, 123824, Note_on_c, 13, 52, 0
15, 123840, Note_on_c, 13, 54, 76
15, 124064, Note_on_c, 13, 54, 0
15, 124080, Note_on_c, 13, 55, 76
15, 124304, Note_on_c, 13, 55, 0
15, 124320, Note_on_c, 13, 57, 76
15, 124544, Note_on_c, 13, 57, 0
15, 124560, Note_on_c, 13, 45, 76
15, 124784, Note_on_c, 13, 45, 0
15, 124800, Note_on_c, 13, 50, 76
15, 125024, Note_on_c, 13, 50, 0
15, 125040, Note_on_c, 13, 54, 76
15, 125144, Note_on_c, 13, 54, 0
15, 125160, Note_on_c, 13, 57, 76
15, 125264, Note_on_c, 13, 57, 0
15, 125280, Note_on_c, 13, 62, 76
15, 125984, Note_on_c, 13, 62, 0
15, 126000, Note_on_c, 13, 61, 76
15, 126104, Note_on_c, 13, 61, 0
15, 126120, Note_on_c, 13, 59, 76
15, 126224, Note_on_c, 13, 59, 0
15, 126240, Note_on_c, 13, 61, 76
15, 126464, Note_on_c, 13, 61, 0
15, 126480, Note_on_c, 13, 57, 76
15, 126704, Note_on_c, 13, 57, 0
15, 126720, Note_on_c, 13, 62, 76
15, 126944, Note_on_c, 13, 62, 0
15, 126960, Note_on_c, 13, 61, 76
15, 127184, Note_on_c, 13, 61, 0
15, 127200, Note_on_c, 13, 59, 76
15, 127424, Note_on_c, 13, 59, 0
15, 127440, Note_on_c, 13, 64, 76
15, 127664, Note_on_c, 13, 64, 0
15, 127680, Note_on_c, 13, 61, 76
15, 127904, Note_on_c, 13, 61, 0
15, 127920, Note_on_c, 13, 59, 76
15, 128024, Note_on_c, 13, 59, 0
15, 128040, Note_on_c, 13, 57, 76
15, 128144, Note_on_c, 13, 57, 0
15, 128160, Note_on_c, 13, 56, 76
15, 128384, Note_on_c, 13, 56, 0
15, 128400, Note_on_c, 13, 52, 76
15, 128624, Note_on_c, 13, 52, 0
15, 128640, Note_on_c, 13, 57, 76
15, 128864, Note_on_c, 13, 57, 0
15, 128880, Note_on_c, 13, 50, 76
15, 129104, Note_on_c, 13, 50, 0
15, 129120, Note_on_c, 13, 49, 76
15, 129344, Note_on_c, 13, 49, 0
15, 129360, Note_on_c, 13, 54, 76
15, 129584, Note_on_c, 13, 54, 0
15, 129600, Note_on_c, 13, 50, 76
15, 129824, Note_on_c, 13, 50, 0
15, 129840, Note_on_c, 13, 47, 76
15, 130064, Note_on_c, 13, 47, 0
15, 130080, Note_on_c, 13, 52, 76
15, 130304, Note_on_c, 13, 52, 0
15, 130320, Note_on_c, 13, 40, 76
15, 130544, Note_on_c, 13, 40, 0
15, 130560, Note_on_c, 13, 45, 76
15, 131024, Note_on_c, 13, 45, 0
15, 131040, Note_on_c, 13, 45, 76
15, 131264, Note_on_c, 13, 45, 0
15, 131280, Note_on_c, 13, 49, 76
15, 131504, Note_on_c, 13, 49, 0
15, 131520, Note_on_c, 13, 50, 76
15, 131744, Note_on_c, 13, 50, 0
15, 131760, Note_on_c, 13, 49, 76
15, 131984, Note_on_c, 13, 49, 0
15, 132000, Note_on_c, 13, 47, 76
15, 132224, Note_on_c, 13, 47, 0
15, 132240, Note_on_c, 13, 50, 76
15, 132464, Note_on_c, 13, 50, 0
15, 132480, Note_on_c, 13, 52, 76
15, 132704, Note_on_c, 13, 52, 0
15, 132720, Note_on_c, 13, 50, 76
15, 132944, Note_on_c, 13, 50, 0
15, 132960, Note_on_c, 13, 52, 76
15, 133184, Note_on_c, 13, 52, 0
15, 133200, Note_on_c, 13, 54, 76
15, 133424, Note_on_c, 13, 54, 0
15, 133440, Note_on_c, 13, 55, 76
15, 133664, Note_on_c, 13, 55, 0
15, 133680, Note_on_c, 13, 54, 76
15, 133904, Note_on_c, 13, 54, 0
15, 133920, Note_on_c, 13, 55, 76
15, 134144, Note_on_c, 13, 55, 0
15, 134160, Note_on_c, 13, 52, 76
15, 134384, Note_on_c, 13, 52, 0
15, 134400, Note_on_c, 13, 54, 76
15, 134624, Note_on_c, 13, 54, 0
15, 134640, Note_on_c, 13, 56, 76
15, 134744, Note_on_c, 13, 56, 0
15, 134760, Note_on_c, 13, 58, 76
15, 134864, Note_on_c, 13, 58, 0
15, 134880, Note_on_c, 13, 59, 76
15, 135104, Note_on_c, 13, 59, 0
15, 135120, Note_on_c, 13, 57, 76
15, 135344, Note_on_c, 13, 57, 0
15, 135360, Note_on_c, 13, 56, 76
15, 135584, Note_on_c, 13, 56, 0
15, 135600, Note_on_c, 13, 61, 76
15, 135824, Note_on_c, 13, 61, 0
15, 135840, Note_on_c, 13, 58, 76
15, 136064, Note_on_c, 13, 58, 0
15, 136080, Note_on_c, 13, 54, 76
15, 136304, Note_on_c, 13, 54, 0
15, 136320, Note_on_c, 13, 59, 76
15, 136544, Note_on_c, 13, 59, 0
15, 136560, Note_on_c, 13, 55, 76
15, 136784, Note_on_c, 13, 55, 0
15, 136800, Note_on_c, 13, 52, 76
15, 137024, Note_on_c, 13, 52, 0
15, 137040, Note_on_c, 13, 50, 76
15, 137144, Note_on_c, 13, 50, 0
15, 137160, Note_on_c, 13, 49, 76
15, 137264, Note_on_c, 13, 49, 0
15, 137280, Note_on_c, 13, 50, 76
15, 137504, Note_on_c, 13, 50, 0
15, 137520, Note_on_c, 13, 52, 76
15, 137744, Note_on_c, 13, 52, 0
15, 137760, Note_on_c, 13, 54, 76
15, 137984, Note_on_c, 13, 54, 0
15, 138000, Note_on_c, 13, 42, 76
15, 138224, Note_on_c, 13, 42, 0
15, 138240, Note_on_c, 13, 47, 76
15, 138464, Note_on_c, 13, 47, 0
15, 138480, Note_on_c, 13, 57, 76
15, 138584, Note_on_c, 13, 57, 0
15, 138600, Note_on_c, 13, 54, 76
15, 138704, Note_on_c, 13, 54, 0
15, 138720, Note_on_c, 13, 55, 76
15, 139424, Note_on_c, 13, 55, 0
15, 139440, Note_on_c, 13, 54, 76
15, 139544, Note_on_c, 13, 54, 0
15, 139560, Note_on_c, 13, 52, 76
15, 139664, Note_on_c, 13, 52, 0
15, 139680, Note_on_c, 13, 51, 76
15, 139904, Note_on_c, 13, 51, 0
15, 139920, Note_on_c, 13, 47, 76
15, 140144, Note_on_c, 13, 47, 0
15, 140160, Note_on_c, 13, 52, 76
15, 140384, Note_on_c, 13, 52, 0
15, 140400, Note_on_c, 13, 54, 76
15, 140504, Note_on_c, 13, 54, 0
15, 140520, Note_on_c, 13, 55, 76
15, 140624, Note_on_c, 13, 55, 0
15, 140640, Note_on_c, 13, 57, 76
15, 140864, Note_on_c, 13, 57, 0
15, 140880, Note_on_c, 13, 49, 76
15, 141104, Note_on_c, 13, 49, 0
15, 141120, Note_on_c, 13, 50, 76
15, 141344, Note_on_c, 13, 50, 0
15, 141360, Note_on_c, 13, 47, 76
15, 141584, Note_on_c, 13, 47, 0
15, 141600, Note_on_c, 13, 43, 76
15, 141824, Note_on_c, 13, 43, 0
15, 141840, Note_on_c, 13, 44, 76
15, 142064, Note_on_c, 13, 44, 0
15, 142080, Note_on_c, 13, 45, 76
15, 142304, Note_on_c, 13, 45, 0
15, 142320, Note_on_c, 13, 47, 76
15, 142424, Note_on_c, 13, 47, 0
15, 142440, Note_on_c, 13, 49, 76
15, 142544, Note_on_c, 13, 49, 0
15, 142560, Note_on_c, 13, 50, 76
15, 142664, Note_on_c, 13, 50, 0
15, 142680, Note_on_c, 13, 52, 76
15, 142784, Note_on_c, 13, 52, 0
15, 142800, Note_on_c, 13, 54, 76
15, 143264, Note_on_c, 13, 54, 0
15, 143280, Note_on_c, 13, 52, 76
15, 143384, Note_on_c, 13, 52, 0
15, 143400, Note_on_c, 13, 50, 76
15, 143504, Note_on_c, 13, 50, 0
15, 143520, Note_on_c, 13, 52, 76
15, 143624, Note_on_c, 13, 52, 0
15, 143640, Note_on_c, 13, 54, 76
15, 143744, Note_on_c, 13, 54, 0
15, 143760, Note_on_c, 13, 55, 76
15, 144224, Note_on_c, 13, 55, 0
15, 144240, Note_on_c, 13, 52, 76
15, 144464, Note_on_c, 13, 52, 0
15, 144480, Note_on_c, 13, 49, 76
15, 144704, Note_on_c, 13, 49, 0
15, 144720, Note_on_c, 13, 45, 76
15, 144944, Note_on_c, 13, 45, 0
15, 144960, Note_on_c, 13, 50, 76
15, 145184, Note_on_c, 13, 50, 0
15, 145200, Note_on_c, 13, 55, 76
15, 145424, Note_on_c, 13, 55, 0
15, 145440, Note_on_c, 13, 57, 76
15, 145664, Note_on_c, 13, 57, 0
15, 145680, Note_on_c, 13, 45, 76
15, 145904, Note_on_c, 13, 45, 0
15, 145920, Note_on_c, 13, 50, 76
15, 146384, Note_on_c, 13, 50, 0
15, 146400, Note_on_c, 13, 45, 76
15, 146624, Note_on_c, 13, 45, 0
15, 146640, Note_on_c, 13, 49, 76
15, 146864, Note_on_c, 13, 49, 0
15, 146880, Note_on_c, 13, 50, 76
15, 147104, Note_on_c, 13, 50, 0
15, 147120, Note_on_c, 13, 49, 76
15, 147344, Note_on_c, 13, 49, 0
15, 147360, Note_on_c, 13, 47, 76
15, 147584, Note_on_c, 13, 47, 0
15, 147600, Note_on_c, 13, 50, 76
15, 147824, Note_on_c, 13, 50, 0
15, 147840, Note_on_c, 13, 52, 76
15, 148064, Note_on_c, 13, 52, 0
15, 148080, Note_on_c, 13, 50, 76
15, 148304, Note_on_c, 13, 50, 0
15, 148320, Note_on_c, 13, 52, 76
15, 148544, Note_on_c, 13, 52, 0
15, 148560, Note_on_c, 13, 54, 76
15, 148784, Note_on_c, 13, 54, 0
15, 148800, Note_on_c, 13, 55, 76
15, 149024, Note_on_c, 13, 55, 0
15, 149040, Note_on_c, 13, 54, 76
15, 149264, Note_on_c, 13, 54, 0
15, 149280, Note_on_c, 13, 55, 76
15, 149504, Note_on_c, 13, 55, 0
15, 149520, Note_on_c, 13, 52, 76
15, 149744, Note_on_c, 13, 52, 0
15, 149760, Note_on_c, 13, 54, 76
15, 149984, Note_on_c, 13, 54, 0
15, 150000, Note_on_c, 13, 56, 76
15, 150104, Note_on_c, 13, 56, 0
15, 150120, Note_on_c, 13, 58, 76
15, 150224, Note_on_c, 13, 58, 0
15, 150240, Note_on_c, 13, 59, 76
15, 150464, Note_on_c, 13, 59, 0
15, 150480, Note_on_c, 13, 57, 76
15, 150704, Note_on_c, 13, 57, 0
15, 150720, Note_on_c, 13, 56, 76
15, 150944, Note_on_c, 13, 56, 0
15, 150960, Note_on_c, 13, 61, 76
15, 151184, Note_on_c, 13, 61, 0
15, 151200, Note_on_c, 13, 58, 76
15, 151424, Note_on_c, 13, 58, 0
15, 151440, Note_on_c, 13, 54, 76
15, 151664, Note_on_c, 13, 54, 0
15, 151680, Note_on_c, 13, 59, 76
15, 151904, Note_on_c, 13, 59, 0
15, 151920, Note_on_c, 13, 55, 76
15, 152144, Note_on_c, 13, 55, 0
15, 152160, Note_on_c, 13, 52, 76
15, 152384, Note_on_c, 13, 52, 0
15, 152400, Note_on_c, 13, 50, 76
15, 152504, Note_on_c, 13, 50, 0
15, 152520, Note_on_c, 13, 49, 76
15, 152624, Note_on_c, 13, 49, 0
15, 152640, Note_on_c, 13, 50, 76
15, 152864, Note_on_c, 13, 50, 0
15, 152880, Note_on_c, 13, 52, 76
15, 153104, Note_on_c, 13, 52, 0
15, 153120, Note_on_c, 13, 54, 76
15, 153344, Note_on_c, 13, 54, 0
15, 153360, Note_on_c, 13, 42, 76
15, 153584, Note_on_c, 13, 42, 0
15, 153600, Note_on_c, 13, 47, 76
15, 153824, Note_on_c, 13, 47, 0
15, 153840, Note_on_c, 13, 57, 76
15, 153944, Note_on_c, 13, 57, 0
15, 153960, Note_on_c, 13, 54, 76
15, 154064, Note_on_c, 13, 54, 0
15, 154080, Note_on_c, 13, 55, 76
15, 154784, Note_on_c, 13, 55, 0
15, 154800, Note_on_c, 13, 54, 76
15, 154904, Note_on_c, 13, 54, 0
15, 154920, Note_on_c, 13, 52, 76
15, 155024, Note_on_c, 13, 52, 0
15, 155040, Note_on_c, 13, 51, 76
15, 155264, Note_on_c, 13, 51, 0
15, 155280, Note_on_c, 13, 47, 76
15, 155504, Note_on_c, 13, 47, 0
15, 155520, Note_on_c, 13, 52, 76
15, 155744, Note_on_c, 13, 52, 0
15, 155760, Note_on_c, 13, 54, 76
15, 155864, Note_on_c, 13, 54, 0
15, 155880, Note_on_c, 13, 55, 76
15, 155984, Note_on_c, 13, 55, 0
15, 156000, Note_on_c, 13, 57, 76
15, 156224, Note_on_c, 13, 57, 0
15, 156240, Note_on_c, 13, 49, 76
15, 156464, Note_on_c, 13, 49, 0
15, 156480, Note_on_c, 13, 50, 76
15, 156704, Note_on_c, 13, 50, 0
15, 156720, Note_on_c, 13, 47, 76
15, 156944, Note_on_c, 13, 47, 0
15, 156960, Note_on_c, 13, 43, 76
15, 157184, Note_on_c, 13, 43, 0
15, 157200, Note_on_c, 13, 44, 76
15, 157424, Note_on_c, 13, 44, 0
15, 157440, Note_on_c, 13, 45, 76
15, 157664, Note_on_c, 13, 45, 0
15, 157680, Note_on_c, 13, 47, 76
15, 157784, Note_on_c, 13, 47, 0
15, 157800, Note_on_c, 13, 49, 76
15, 157904, Note_on_c, 13, 49, 0
15, 157920, Note_on_c, 13, 50, 76
15, 158024, Note_on_c, 13, 50, 0
15, 158040, Note_on_c, 13, 52, 76
15, 158144, Note_on_c, 13, 52, 0
15, 158160, Note_on_c, 13, 54, 76
15, 158624, Note_on_c, 13, 54, 0
15, 158640, Note_on_c, 13, 52, 76
15, 158744, Note_on_c, 13, 52, 0
15, 158760, Note_on_c, 13, 50, 76
15, 158864, Note_on_c, 13, 50, 0
15, 158880, Note_on_c, 13, 52, 76
15, 158984, Note_on_c, 13, 52, 0
15, 159000, Note_on_c, 13, 54, 76
15, 159104, Note_on_c, 13, 54, 0
15, 159120, Note_on_c, 13, 55, 76
15, 159584, Note_on_c, 13, 55, 0
15, 159600, Note_on_c, 13, 52, 76
15, 159824, Note_on_c, 13, 52, 0
15, 159840, Note_on_c, 13, 49, 76
15, 160064, Note_on_c, 13, 49, 0
15, 160080, Note_on_c, 13, 45, 76
15, 160304, Note_on_c, 13, 45, 0
15, 160320, Note_on_c, 13, 50, 76
15, 160544, Note_on_c, 13, 50, 0
15, 160560, Note_on_c, 13, 55, 76
15, 160784, Note_on_c, 13, 55, 0
15, 160800, Note_on_c, 13, 57, 76
15, 161024, Note_on_c, 13, 57, 0
15, 161040, Note_on_c, 13, 45, 76
15, 161264, Note_on_c, 13, 45, 0
15, 161280, Note_on_c, 13, 50, 76
15, 161759, Note_on_c, 13, 50, 0
15, 161759, End_track
16, 0, Start_track
16, 0, Title_t, "Harpsichord "
16, 0, MIDI_port, 0
16, 0, Control_c, 14, 10, 64
16, 0, Control_c, 14, 11, 127
16, 0, Control_c, 14, 7, 72
16, 0, Program_c, 14, 6
16, 0, Note_on_c, 14, 62, 76
16, 704, Note_on_c, 14, 62, 0
16, 720, Note_on_c, 14, 61, 76
16, 824, Note_on_c, 14, 61, 0
16, 840, Note_on_c, 14, 59, 76
16, 944, Note_on_c, 14, 59, 0
16, 960, Note_on_c, 14, 61, 76
16, 1184, Note_on_c, 14, 61, 0
16, 1200, Note_on_c, 14, 57, 76
16, 1424, Note_on_c, 14, 57, 0
16, 1440, Note_on_c, 14, 62, 76
16, 1664, Note_on_c, 14, 62, 0
16, 1680, Note_on_c, 14, 50, 76
16, 1784, Note_on_c, 14, 50, 0
16, 1800, Note_on_c, 14, 52, 76
16, 1904, Note_on_c, 14, 52, 0
16, 1920, Note_on_c, 14, 54, 76
16, 2144, Note_on_c, 14, 54, 0
16, 2160, Note_on_c, 14, 55, 76
16, 2264, Note_on_c, 14, 55, 0
16, 2280, Note_on_c, 14, 52, 76
16, 2384, Note_on_c, 14, 52, 0
16, 2400, Note_on_c, 14, 54, 76
16, 2624, Note_on_c, 14, 54, 0
16, 2640, Note_on_c, 14, 55, 76
16, 2864, Note_on_c, 14, 55, 0
16, 2880, Note_on_c, 14, 57, 76
16, 3104, Note_on_c, 14, 57, 0
16, 3120, Note_on_c, 14, 45, 76
16, 3344, Note_on_c, 14, 45, 0
16, 3360, Note_on_c, 14, 50, 76
16, 3584, Note_on_c, 14, 50, 0
16, 3600, Note_on_c, 14, 54, 76
16, 3704, Note_on_c, 14, 54, 0
16, 3720, Note_on_c, 14, 57, 76
16, 3824, Note_on_c, 14, 57, 0
16, 3840, Note_on_c, 14, 62, 76
16, 4544, Note_on_c, 14, 62, 0
16, 4560, Note_on_c, 14, 61, 76
16, 4664, Note_on_c, 14, 61, 0
16, 4680, Note_on_c, 14, 59, 76
16, 4784, Note_on_c, 14, 59, 0
16, 4800, Note_on_c, 14, 61, 76
16, 5024, Note_on_c, 14, 61, 0
16, 5040, Note_on_c, 14, 57, 76
16, 5264, Note_on_c, 14, 57, 0
16, 5280, Note_on_c, 14, 62, 76
16, 5504, Note_on_c, 14, 62, 0
16, 5520, Note_on_c, 14, 61, 76
16, 5744, Note_on_c, 14, 61, 0
16, 5760, Note_on_c, 14, 59, 76
16, 5984, Note_on_c, 14, 59, 0
16, 6000, Note_on_c, 14, 64, 76
16, 6224, Note_on_c, 14, 64, 0
16, 6240, Note_on_c, 14, 61, 76
16, 6464, Note_on_c, 14, 61, 0
16, 6480, Note_on_c, 14, 59, 76
16, 6584, Note_on_c, 14, 59, 0
16, 6600, Note_on_c, 14, 57, 76
16, 6704, Note_on_c, 14, 57, 0
16, 6720, Note_on_c, 14, 56, 76
16, 6944, Note_on_c, 14, 56, 0
16, 6960, Note_on_c, 14, 52, 76
16, 7184, Note_on_c, 14, 52, 0
16, 7200, Note_on_c, 14, 57, 76
16, 7424, Note_on_c, 14, 57, 0
16, 7440, Note_on_c, 14, 50, 76
16, 7664, Note_on_c, 14, 50, 0
16, 7680, Note_on_c, 14, 49, 76
16, 7904, Note_on_c, 14, 49, 0
16, 7920, Note_on_c, 14, 54, 76
16, 8144, Note_on_c, 14, 54, 0
16, 8160, Note_on_c, 14, 50, 76
16, 8384, Note_on_c, 14, 50, 0
16, 8400, Note_on_c, 14, 47, 76
16, 8624, Note_on_c, 14, 47, 0
16, 8640, Note_on_c, 14, 52, 76
16, 8864, Note_on_c, 14, 52, 0
16, 8880, Note_on_c, 14, 40, 76
16, 9104, Note_on_c, 14, 40, 0
16, 9120, Note_on_c, 14, 45, 76
16, 9584, Note_on_c, 14, 45, 0
16, 9600, Note_on_c, 14, 62, 76
16, 10304, Note_on_c, 14, 62, 0
16, 10320, Note_on_c, 14, 61, 76
16, 10424, Note_on_c, 14, 61, 0
16, 10440, Note_on_c, 14, 59, 76
16, 10544, Note_on_c, 14, 59, 0
16, 10560, Note_on_c, 14, 61, 76
16, 10784, Note_on_c, 14, 61, 0
16, 10800, Note_on_c, 14, 57, 76
16, 11024, Note_on_c, 14, 57, 0
16, 11040, Note_on_c, 14, 62, 76
16, 11264, Note_on_c, 14, 62, 0
16, 11280, Note_on_c, 14, 50, 76
16, 11384, Note_on_c, 14, 50, 0
16, 11400, Note_on_c, 14, 52, 76
16, 11504, Note_on_c, 14, 52, 0
16, 11520, Note_on_c, 14, 54, 76
16, 11744, Note_on_c, 14, 54, 0
16, 11760, Note_on_c, 14, 55, 76
16, 11864, Note_on_c, 14, 55, 0
16, 11880, Note_on_c, 14, 52, 76
16, 11984, Note_on_c, 14, 52, 0
16, 12000, Note_on_c, 14, 54, 76
16, 12224, Note_on_c, 14, 54, 0
16, 12240, Note_on_c, 14, 55, 76
16, 12464, Note_on_c, 14, 55, 0
16, 12480, Note_on_c, 14, 57, 76
16, 12704, Note_on_c, 14, 57, 0
16, 12720, Note_on_c, 14, 45, 76
16, 12944, Note_on_c, 14, 45, 0
16, 12960, Note_on_c, 14, 50, 76
16, 13184, Note_on_c, 14, 50, 0
16, 13200, Note_on_c, 14, 54, 76
16, 13304, Note_on_c, 14, 54, 0
16, 13320, Note_on_c, 14, 57, 76
16, 13424, Note_on_c, 14, 57, 0
16, 13440, Note_on_c, 14, 62, 76
16, 14144, Note_on_c, 14, 62, 0
16, 14160, Note_on_c, 14, 61, 76
16, 14264, Note_on_c, 14, 61, 0
16, 14280, Note_on_c, 14, 59, 76
16, 14384, Note_on_c, 14, 59, 0
16, 14400, Note_on_c, 14, 61, 76
16, 14624, Note_on_c, 14, 61, 0
16, 14640, Note_on_c, 14, 57, 76
16, 14864, Note_on_c, 14, 57, 0
16, 14880, Note_on_c, 14, 62, 76
16, 15104, Note_on_c, 14, 62, 0
16, 15120, Note_on_c, 14, 61, 76
16, 15344, Note_on_c, 14, 61, 0
16, 15360, Note_on_c, 14, 59, 76
16, 15584, Note_on_c, 14, 59, 0
16, 15600, Note_on_c, 14, 64, 76
16, 15824, Note_on_c, 14, 64, 0
16, 15840, Note_on_c, 14, 61, 76
16, 16064, Note_on_c, 14, 61, 0
16, 16080, Note_on_c, 14, 59, 76
16, 16184, Note_on_c, 14, 59, 0
16, 16200, Note_on_c, 14, 57, 76
16, 16304, Note_on_c, 14, 57, 0
16, 16320, Note_on_c, 14, 56, 76
16, 16544, Note_on_c, 14, 56, 0
16, 16560, Note_on_c, 14, 52, 76
16, 16784, Note_on_c, 14, 52, 0
16, 16800, Note_on_c, 14, 57, 76
16, 17024, Note_on_c, 14, 57, 0
16, 17040, Note_on_c, 14, 50, 76
16, 17264, Note_on_c, 14, 50, 0
16, 17280, Note_on_c, 14, 49, 76
16, 17504, Note_on_c, 14, 49, 0
16, 17520, Note_on_c, 14, 54, 76
16, 17744, Note_on_c, 14, 54, 0
16, 17760, Note_on_c, 14, 50, 76
16, 17984, Note_on_c, 14, 50, 0
16, 18000, Note_on_c, 14, 47, 76
16, 18224, Note_on_c, 14, 47, 0
16, 18240, Note_on_c, 14, 52, 76
16, 18464, Note_on_c, 14, 52, 0
16, 18480, Note_on_c, 14, 40, 76
16, 18704, Note_on_c, 14, 40, 0
16, 18720, Note_on_c, 14, 45, 76
16, 19184, Note_on_c, 14, 45, 0
16, 19200, Note_on_c, 14, 45, 76
16, 19424, Note_on_c, 14, 45, 0
16, 19440, Note_on_c, 14, 49, 76
16, 19664, Note_on_c, 14, 49, 0
16, 19680, Note_on_c, 14, 50, 76
16, 19904, Note_on_c, 14, 50, 0
16, 19920, Note_on_c, 14, 49, 76
16, 20144, Note_on_c, 14, 49, 0
16, 20160, Note_on_c, 14, 47, 76
16, 20384, Note_on_c, 14, 47, 0
16, 20400, Note_on_c, 14, 50, 76
16, 20624, Note_on_c, 14, 50, 0
16, 20640, Note_on_c, 14, 52, 76
16, 20864, Note_on_c, 14, 52, 0
16, 20880, Note_on_c, 14, 50, 76
16, 21104, Note_on_c, 14, 50, 0
16, 21120, Note_on_c, 14, 52, 76
16, 21344, Note_on_c, 14, 52, 0
16, 21360, Note_on_c, 14, 54, 76
16, 21584, Note_on_c, 14, 54, 0
16, 21600, Note_on_c, 14, 55, 76
16, 21824, Note_on_c, 14, 55, 0
16, 21840, Note_on_c, 14, 54, 76
16, 22064, Note_on_c, 14, 54, 0
16, 22080, Note_on_c, 14, 55, 76
16, 22304, Note_on_c, 14, 55, 0
16, 22320, Note_on_c, 14, 52, 76
16, 22544, Note_on_c, 14, 52, 0
16, 22560, Note_on_c, 14, 54, 76
16, 22784, Note_on_c, 14, 54, 0
16, 22800, Note_on_c, 14, 56, 76
16, 22904, Note_on_c, 14, 56, 0
16, 22920, Note_on_c, 14, 58, 76
16, 23024, Note_on_c, 14, 58, 0
16, 23040, Note_on_c, 14, 59, 76
16, 23264, Note_on_c, 14, 59, 0
16, 23280, Note_on_c, 14, 57, 76
16, 23504, Note_on_c, 14, 57, 0
16, 23520, Note_on_c, 14, 56, 76
16, 23744, Note_on_c, 14, 56, 0
16, 23760, Note_on_c, 14, 61, 76
16, 23984, Note_on_c, 14, 61, 0
16, 24000, Note_on_c, 14, 58, 76
16, 24224, Note_on_c, 14, 58, 0
16, 24240, Note_on_c, 14, 54, 76
16, 24464, Note_on_c, 14, 54, 0
16, 24480, Note_on_c, 14, 59, 76
16, 24704, Note_on_c, 14, 59, 0
16, 24720, Note_on_c, 14, 55, 76
16, 24944, Note_on_c, 14, 55, 0
16, 24960, Note_on_c, 14, 52, 76
16, 25184, Note_on_c, 14, 52, 0
16, 25200, Note_on_c, 14, 50, 76
16, 25304, Note_on_c, 14, 50, 0
16, 25320, Note_on_c, 14, 49, 76
16, 25424, Note_on_c, 14, 49, 0
16, 25440, Note_on_c, 14, 50, 76
16, 25664, Note_on_c, 14, 50, 0
16, 25680, Note_on_c, 14, 52, 76
16, 25904, Note_on_c, 14, 52, 0
16, 25920, Note_on_c, 14, 54, 76
16, 26144, Note_on_c, 14, 54, 0
16, 26160, Note_on_c, 14, 42, 76
16, 26384, Note_on_c, 14, 42, 0
16, 26400, Note_on_c, 14, 47, 76
16, 26624, Note_on_c, 14, 47, 0
16, 26640, Note_on_c, 14, 57, 76
16, 26744, Note_on_c, 14, 57, 0
16, 26760, Note_on_c, 14, 54, 76
16, 26864, Note_on_c, 14, 54, 0
16, 26880, Note_on_c, 14, 55, 76
16, 27584, Note_on_c, 14, 55, 0
16, 27600, Note_on_c, 14, 54, 76
16, 27704, Note_on_c, 14, 54, 0
16, 27720, Note_on_c, 14, 52, 76
16, 27824, Note_on_c, 14, 52, 0
16, 27840, Note_on_c, 14, 51, 76
16, 28064, Note_on_c, 14, 51, 0
16, 28080, Note_on_c, 14, 47, 76
16, 28304, Note_on_c, 14, 47, 0
16, 28320, Note_on_c, 14, 52, 76
16, 28544, Note_on_c, 14, 52, 0
16, 28560, Note_on_c, 14, 54, 76
16, 28664, Note_on_c, 14, 54, 0
16, 28680, Note_on_c, 14, 55, 76
16, 28784, Note_on_c, 14, 55, 0
16, 28800, Note_on_c, 14, 57, 76
16, 29024, Note_on_c, 14, 57, 0
16, 29040, Note_on_c, 14, 49, 76
16, 29264, Note_on_c, 14, 49, 0
16, 29280, Note_on_c, 14, 50, 76
16, 29504, Note_on_c, 14, 50, 0
16, 29520, Note_on_c, 14, 47, 76
16, 29744, Note_on_c, 14, 47, 0
16, 29760, Note_on_c, 14, 43, 76
16, 29984, Note_on_c, 14, 43, 0
16, 30000, Note_on_c, 14, 44, 76
16, 30224, Note_on_c, 14, 44, 0
16, 30240, Note_on_c, 14, 45, 76
16, 30464, Note_on_c, 14, 45, 0
16, 30480, Note_on_c, 14, 47, 76
16, 30584, Note_on_c, 14, 47, 0
16, 30600, Note_on_c, 14, 49, 76
16, 30704, Note_on_c, 14, 49, 0
16, 30720, Note_on_c, 14, 50, 76
16, 30824, Note_on_c, 14, 50, 0
16, 30840, Note_on_c, 14, 52, 76
16, 30944, Note_on_c, 14, 52, 0
16, 30960, Note_on_c, 14, 54, 76
16, 31424, Note_on_c, 14, 54, 0
16, 31440, Note_on_c, 14, 52, 76
16, 31544, Note_on_c, 14, 52, 0
16, 31560, Note_on_c, 14, 50, 76
16, 31664, Note_on_c, 14, 50, 0
16, 31680, Note_on_c, 14, 52, 76
16, 31784, Note_on_c, 14, 52, 0
16, 31800, Note_on_c, 14, 54, 76
16, 31904, Note_on_c, 14, 54, 0
16, 31920, Note_on_c, 14, 55, 76
16, 32384, Note_on_c, 14, 55, 0
16, 32400, Note_on_c, 14, 52, 76
16, 32624, Note_on_c, 14, 52, 0
16, 32640, Note_on_c, 14, 49, 76
16, 32864, Note_on_c, 14, 49, 0
16, 32880, Note_on_c, 14, 45, 76
16, 33104, Note_on_c, 14, 45, 0
16, 33120, Note_on_c, 14, 50, 76
16, 33344, Note_on_c, 14, 50, 0
16, 33360, Note_on_c, 14, 55, 76
16, 33584, Note_on_c, 14, 55, 0
16, 33600, Note_on_c, 14, 57, 76
16, 33824, Note_on_c, 14, 57, 0
16, 33840, Note_on_c, 14, 45, 76
16, 34064, Note_on_c, 14, 45, 0
16, 34080, Note_on_c, 14, 50, 76
16, 34544, Note_on_c, 14, 50, 0
16, 34560, Note_on_c, 14, 45, 76
16, 34784, Note_on_c, 14, 45, 0
16, 34800, Note_on_c, 14, 49, 76
16, 35024, Note_on_c, 14, 49, 0
16, 35040, Note_on_c, 14, 50, 76
16, 35264, Note_on_c, 14, 50, 0
16, 35280, Note_on_c, 14, 49, 76
16, 35504, Note_on_c, 14, 49, 0
16, 35520, Note_on_c, 14, 47, 76
16, 35744, Note_on_c, 14, 47, 0
16, 35760, Note_on_c, 14, 50, 76
16, 35984, Note_on_c, 14, 50, 0
16, 36000, Note_on_c, 14, 52, 76
16, 36224, Note_on_c, 14, 52, 0
16, 36240, Note_on_c, 14, 50, 76
16, 36464, Note_on_c, 14, 50, 0
16, 36480, Note_on_c, 14, 52, 76
16, 36704, Note_on_c, 14, 52, 0
16, 36720, Note_on_c, 14, 54, 76
16, 36944, Note_on_c, 14, 54, 0
16, 36960, Note_on_c, 14, 55, 76
16, 37184, Note_on_c, 14, 55, 0
16, 37200, Note_on_c, 14, 54, 76
16, 37424, Note_on_c, 14, 54, 0
16, 37440, Note_on_c, 14, 55, 76
16, 37664, Note_on_c, 14, 55, 0
16, 37680, Note_on_c, 14, 52, 76
16, 37904, Note_on_c, 14, 52, 0
16, 37920, Note_on_c, 14, 54, 76
16, 38144, Note_on_c, 14, 54, 0
16, 38160, Note_on_c, 14, 56, 76
16, 38264, Note_on_c, 14, 56, 0
16, 38280, Note_on_c, 14, 58, 76
16, 38384, Note_on_c, 14, 58, 0
16, 38400, Note_on_c, 14, 59, 76
16, 38624, Note_on_c, 14, 59, 0
16, 38640, Note_on_c, 14, 57, 76
16, 38864, Note_on_c, 14, 57, 0
16, 38880, Note_on_c, 14, 56, 76
16, 39104, Note_on_c, 14, 56, 0
16, 39120, Note_on_c, 14, 61, 76
16, 39344, Note_on_c, 14, 61, 0
16, 39360, Note_on_c, 14, 58, 76
16, 39584, Note_on_c, 14, 58, 0
16, 39600, Note_on_c, 14, 54, 76
16, 39824, Note_on_c, 14, 54, 0
16, 39840, Note_on_c, 14, 59, 76
16, 40064, Note_on_c, 14, 59, 0
16, 40080, Note_on_c, 14, 55, 76
16, 40304, Note_on_c, 14, 55, 0
16, 40320, Note_on_c, 14, 52, 76
16, 40544, Note_on_c, 14, 52, 0
16, 40560, Note_on_c, 14, 50, 76
16, 40664, Note_on_c, 14, 50, 0
16, 40680, Note_on_c, 14, 49, 76
16, 40784, Note_on_c, 14, 49, 0
16, 40800, Note_on_c, 14, 50, 76
16, 41024, Note_on_c, 14, 50, 0
16, 41040, Note_on_c, 14, 52, 76
16, 41264, Note_on_c, 14, 52, 0
16, 41280, Note_on_c, 14, 54, 76
16, 41504, Note_on_c, 14, 54, 0
16, 41520, Note_on_c, 14, 42, 76
16, 41744, Note_on_c, 14, 42, 0
16, 41760, Note_on_c, 14, 47, 76
16, 41984, Note_on_c, 14, 47, 0
16, 42000, Note_on_c, 14, 57, 76
16, 42104, Note_on_c, 14, 57, 0
16, 42120, Note_on_c, 14, 54, 76
16, 42224, Note_on_c, 14, 54, 0
16, 42240, Note_on_c, 14, 55, 76
16, 42944, Note_on_c, 14, 55, 0
16, 42960, Note_on_c, 14, 54, 76
16, 43064, Note_on_c, 14, 54, 0
16, 43080, Note_on_c, 14, 52, 76
16, 43184, Note_on_c, 14, 52, 0
16, 43200, Note_on_c, 14, 51, 76
16, 43424, Note_on_c, 14, 51, 0
16, 43440, Note_on_c, 14, 47, 76
16, 43664, Note_on_c, 14, 47, 0
16, 43680, Note_on_c, 14, 52, 76
16, 43904, Note_on_c, 14, 52, 0
16, 43920, Note_on_c, 14, 54, 76
16, 44024, Note_on_c, 14, 54, 0
16, 44040, Note_on_c, 14, 55, 76
16, 44144, Note_on_c, 14, 55, 0
16, 44160, Note_on_c, 14, 57, 76
16, 44384, Note_on_c, 14, 57, 0
16, 44400, Note_on_c, 14, 49, 76
16, 44624, Note_on_c, 14, 49, 0
16, 44640, Note_on_c, 14, 50, 76
16, 44864, Note_on_c, 14, 50, 0
16, 44880, Note_on_c, 14, 47, 76
16, 45104, Note_on_c, 14, 47, 0
16, 45120, Note_on_c, 14, 43, 76
16, 45344, Note_on_c, 14, 43, 0
16, 45360, Note_on_c, 14, 44, 76
16, 45584, Note_on_c, 14, 44, 0
16, 45600, Note_on_c, 14, 45, 76
16, 45824, Note_on_c, 14, 45, 0
16, 45840, Note_on_c, 14, 47, 76
16, 45944, Note_on_c, 14, 47, 0
16, 45960, Note_on_c, 14, 49, 76
16, 46064, Note_on_c, 14, 49, 0
16, 46080, Note_on_c, 14, 50, 76
16, 46184, Note_on_c, 14, 50, 0
16, 46200, Note_on_c, 14, 52, 76
16, 46304, Note_on_c, 14, 52, 0
16, 46320, Note_on_c, 14, 54, 76
16, 46784, Note_on_c, 14, 54, 0
16, 46800, Note_on_c, 14, 52, 76
16, 46904, Note_on_c, 14, 52, 0
16, 46920, Note_on_c, 14, 50, 76
16, 47024, Note_on_c, 14, 50, 0
16, 47040, Note_on_c, 14, 52, 76
16, 47144, Note_on_c, 14, 52, 0
16, 47160, Note_on_c, 14, 54, 76
16, 47264, Note_on_c, 14, 54, 0
16, 47280, Note_on_c, 14, 55, 76
16, 47744, Note_on_c, 14, 55, 0
16, 47760, Note_on_c, 14, 52, 76
16, 47984, Note_on_c, 14, 52, 0
16, 48000, Note_on_c, 14, 49, 76
16, 48224, Note_on_c, 14, 49, 0
16, 48240, Note_on_c, 14, 45, 76
16, 48464, Note_on_c, 14, 45, 0
16, 48480, Note_on_c, 14, 50, 76
16, 48704, Note_on_c, 14, 50, 0
16, 48720, Note_on_c, 14, 55, 76
16, 48944, Note_on_c, 14, 55, 0
16, 48960, Note_on_c, 14, 57, 76
16, 49184, Note_on_c, 14, 57, 0
16, 49200, Note_on_c, 14, 45, 76
16, 49424, Note_on_c, 14, 45, 0
16, 49440, Note_on_c, 14, 50, 76
16, 49919, Note_on_c, 14, 50, 0
16, 50160, Note_on_c, 14, 62, 76
16, 50264, Note_on_c, 14, 62, 0
16, 50280, Note_on_c, 14, 61, 76
16, 50384, Note_on_c, 14, 61, 0
16, 50400, Note_on_c, 14, 62, 76
16, 50624, Note_on_c, 14, 62, 0
16, 50640, Note_on_c, 14, 54, 76
16, 50744, Note_on_c, 14, 54, 0
16, 50760, Note_on_c, 14, 52, 76
16, 50864, Note_on_c, 14, 52, 0
16, 50880, Note_on_c, 14, 54, 76
16, 51104, Note_on_c, 14, 54, 0
16, 51120, Note_on_c, 14, 57, 76
16, 51224, Note_on_c, 14, 57, 0
16, 51240, Note_on_c, 14, 55, 76
16, 51344, Note_on_c, 14, 55, 0
16, 51360, Note_on_c, 14, 57, 76
16, 51584, Note_on_c, 14, 57, 0
16, 51600, Note_on_c, 14, 50, 76
16, 52079, Note_on_c, 14, 50, 0
16, 54000, Note_on_c, 14, 62, 76
16, 54104, Note_on_c, 14, 62, 0
16, 54120, Note_on_c, 14, 61, 76
16, 54224, Note_on_c, 14, 61, 0
16, 54240, Note_on_c, 14, 62, 76
16, 54464, Note_on_c, 14, 62, 0
16, 54480, Note_on_c, 14, 54, 76
16, 54584, Note_on_c, 14, 54, 0
16, 54600, Note_on_c, 14, 52, 76
16, 54704, Note_on_c, 14, 52, 0
16, 54720, Note_on_c, 14, 54, 76
16, 54944, Note_on_c, 14, 54, 0
16, 54960, Note_on_c, 14, 57, 76
16, 55064, Note_on_c, 14, 57, 0
16, 55080, Note_on_c, 14, 55, 76
16, 55184, Note_on_c, 14, 55, 0
16, 55200, Note_on_c, 14, 57, 76
16, 55424, Note_on_c, 14, 57, 0
16, 55440, Note_on_c, 14, 50, 76
16, 55919, Note_on_c, 14, 50, 0
16, 59760, Note_on_c, 14, 62, 76
16, 59864, Note_on_c, 14, 62, 0
16, 59880, Note_on_c, 14, 61, 76
16, 59984, Note_on_c, 14, 61, 0
16, 60000, Note_on_c, 14, 62, 76
16, 60224, Note_on_c, 14, 62, 0
16, 60240, Note_on_c, 14, 56, 76
16, 60344, Note_on_c, 14, 56, 0
16, 60360, Note_on_c, 14, 54, 76
16, 60464, Note_on_c, 14, 54, 0
16, 60480, Note_on_c, 14, 56, 76
16, 60704, Note_on_c, 14, 56, 0
16, 60720, Note_on_c, 14, 59, 76
16, 60824, Note_on_c, 14, 59, 0
16, 60840, Note_on_c, 14, 57, 76
16, 60944, Note_on_c, 14, 57, 0
16, 60960, Note_on_c, 14, 59, 76
16, 61184, Note_on_c, 14, 59, 0
16, 61200, Note_on_c, 14, 52, 76
16, 62159, Note_on_c, 14, 52, 0
16, 62160, Note_on_c, 14, 52, 76
16, 63119, Note_on_c, 14, 52, 0
16, 63120, Note_on_c, 14, 52, 76
16, 63584, Note_on_c, 14, 52, 0
16, 63600, Note_on_c, 14, 57, 76
16, 63704, Note_on_c, 14, 57, 0
16, 63720, Note_on_c, 14, 56, 76
16, 63824, Note_on_c, 14, 56, 0
16, 63840, Note_on_c, 14, 57, 76
16, 64064, Note_on_c, 14, 57, 0
16, 64080, Note_on_c, 14, 49, 76
16, 64184, Note_on_c, 14, 49, 0
16, 64200, Note_on_c, 14, 47, 76
16, 64304, Note_on_c, 14, 47, 0
16, 64320, Note_on_c, 14, 49, 76
16, 64544, Note_on_c, 14, 49, 0
16, 64560, Note_on_c, 14, 52, 76
16, 64664, Note_on_c, 14, 52, 0
16, 64680, Note_on_c, 14, 50, 76
16, 64784, Note_on_c, 14, 50, 0
16, 64800, Note_on_c, 14, 52, 76
16, 65024, Note_on_c, 14, 52, 0
16, 65040, Note_on_c, 14, 45, 76
16, 65504, Note_on_c, 14, 45, 0
16, 65520, Note_on_c, 14, 62, 76
16, 65624, Note_on_c, 14, 62, 0
16, 65640, Note_on_c, 14, 61, 76
16, 65744, Note_on_c, 14, 61, 0
16, 65760, Note_on_c, 14, 62, 76
16, 65984, Note_on_c, 14, 62, 0
16, 66000, Note_on_c, 14, 54, 76
16, 66104, Note_on_c, 14, 54, 0
16, 66120, Note_on_c, 14, 52, 76
16, 66224, Note_on_c, 14, 52, 0
16, 66240, Note_on_c, 14, 54, 76
16, 66464, Note_on_c, 14, 54, 0
16, 66480, Note_on_c, 14, 57, 76
16, 66584, Note_on_c, 14, 57, 0
16, 66600, Note_on_c, 14, 55, 76
16, 66704, Note_on_c, 14, 55, 0
16, 66720, Note_on_c, 14, 57, 76
16, 66944, Note_on_c, 14, 57, 0
16, 66960, Note_on_c, 14, 50, 76
16, 67439, Note_on_c, 14, 50, 0
16, 69360, Note_on_c, 14, 62, 76
16, 69464, Note_on_c, 14, 62, 0
16, 69480, Note_on_c, 14, 61, 76
16, 69584, Note_on_c, 14, 61, 0
16, 69600, Note_on_c, 14, 62, 76
16, 69824, Note_on_c, 14, 62, 0
16, 69840, Note_on_c, 14, 54, 76
16, 69944, Note_on_c, 14, 54, 0
16, 69960, Note_on_c, 14, 52, 76
16, 70064, Note_on_c, 14, 52, 0
16, 70080, Note_on_c, 14, 54, 76
16, 70304, Note_on_c, 14, 54, 0
16, 70320, Note_on_c, 14, 57, 76
16, 70424, Note_on_c, 14, 57, 0
16, 70440, Note_on_c, 14, 55, 76
16, 70544, Note_on_c, 14, 55, 0
16, 70560, Note_on_c, 14, 57, 76
16, 70784, Note_on_c, 14, 57, 0
16, 70800, Note_on_c, 14, 50, 76
16, 71279, Note_on_c, 14, 50, 0
16, 75120, Note_on_c, 14, 62, 76
16, 75224, Note_on_c, 14, 62, 0
16, 75240, Note_on_c, 14, 61, 76
16, 75344, Note_on_c, 14, 61, 0
16, 75360, Note_on_c, 14, 62, 76
16, 75584, Note_on_c, 14, 62, 0
16, 75600, Note_on_c, 14, 56, 76
16, 75704, Note_on_c, 14, 56, 0
16, 75720, Note_on_c, 14, 54, 76
16, 75824, Note_on_c, 14, 54, 0
16, 75840, Note_on_c, 14, 56, 76
16, 76064, Note_on_c, 14, 56, 0
16, 76080, Note_on_c, 14, 59, 76
16, 76184, Note_on_c, 14, 59, 0
16, 76200, Note_on_c, 14, 57, 76
16, 76304, Note_on_c, 14, 57, 0
16, 76320, Note_on_c, 14, 59, 76
16, 76544, Note_on_c, 14, 59, 0
16, 76560, Note_on_c, 14, 52, 76
16, 77519, Note_on_c, 14, 52, 0
16, 77520, Note_on_c, 14, 52, 76
16, 78479, Note_on_c, 14, 52, 0
16, 78480, Note_on_c, 14, 52, 76
16, 78944, Note_on_c, 14, 52, 0
16, 78960, Note_on_c, 14, 57, 76
16, 79064, Note_on_c, 14, 57, 0
16, 79080, Note_on_c, 14, 56, 76
16, 79184, Note_on_c, 14, 56, 0
16, 79200, Note_on_c, 14, 57, 76
16, 79424, Note_on_c, 14, 57, 0
16, 79440, Note_on_c, 14, 49, 76
16, 79544, Note_on_c, 14, 49, 0
16, 79560, Note_on_c, 14, 47, 76
16, 79664, Note_on_c, 14, 47, 0
16, 79680, Note_on_c, 14, 49, 76
16, 79904, Note_on_c, 14, 49, 0
16, 79920, Note_on_c, 14, 52, 76
16, 80024, Note_on_c, 14, 52, 0
16, 80040, Note_on_c, 14, 50, 76
16, 80144, Note_on_c, 14, 50, 0
16, 80160, Note_on_c, 14, 52, 76
16, 80384, Note_on_c, 14, 52, 0
16, 80400, Note_on_c, 14, 45, 76
16, 80864, Note_on_c, 14, 45, 0
16, 80880, Note_on_c, 14, 57, 76
16, 80984, Note_on_c, 14, 57, 0
16, 81000, Note_on_c, 14, 56, 76
16, 81104, Note_on_c, 14, 56, 0
16, 81120, Note_on_c, 14, 57, 76
16, 81344, Note_on_c, 14, 57, 0
16, 81360, Note_on_c, 14, 49, 76
16, 81464, Note_on_c, 14, 49, 0
16, 81480, Note_on_c, 14, 47, 76
16, 81584, Note_on_c, 14, 47, 0
16, 81600, Note_on_c, 14, 49, 76
16, 81824, Note_on_c, 14, 49, 0
16, 81840, Note_on_c, 14, 52, 76
16, 81944, Note_on_c, 14, 52, 0
16, 81960, Note_on_c, 14, 50, 76
16, 82064, Note_on_c, 14, 50, 0
16, 82080, Note_on_c, 14, 52, 76
16, 82304, Note_on_c, 14, 52, 0
16, 82320, Note_on_c, 14, 45, 76
16, 82799, Note_on_c, 14, 45, 0
16, 84720, Note_on_c, 14, 59, 76
16, 84824, Note_on_c, 14, 59, 0
16, 84840, Note_on_c, 14, 58, 76
16, 84944, Note_on_c, 14, 58, 0
16, 84960, Note_on_c, 14, 59, 76
16, 85184, Note_on_c, 14, 59, 0
16, 85200, Note_on_c, 14, 50, 76
16, 85304, Note_on_c, 14, 50, 0
16, 85320, Note_on_c, 14, 49, 76
16, 85424, Note_on_c, 14, 49, 0
16, 85440, Note_on_c, 14, 50, 76
16, 85664, Note_on_c, 14, 50, 0
16, 85680, Note_on_c, 14, 54, 76
16, 85784, Note_on_c, 14, 54, 0
16, 85800, Note_on_c, 14, 52, 76
16, 85904, Note_on_c, 14, 52, 0
16, 85920, Note_on_c, 14, 54, 76
16, 86144, Note_on_c, 14, 54, 0
16, 86160, Note_on_c, 14, 47, 76
16, 86639, Note_on_c, 14, 47, 0
16, 88560, Note_on_c, 14, 50, 76
16, 88664, Note_on_c, 14, 50, 0
16, 88680, Note_on_c, 14, 49, 76
16, 88784, Note_on_c, 14, 49, 0
16, 88800, Note_on_c, 14, 50, 76
16, 89024, Note_on_c, 14, 50, 0
16, 89040, Note_on_c, 14, 42, 76
16, 89144, Note_on_c, 14, 42, 0
16, 89160, Note_on_c, 14, 40, 76
16, 89264, Note_on_c, 14, 40, 0
16, 89280, Note_on_c, 14, 42, 76
16, 89504, Note_on_c, 14, 42, 0
16, 89520, Note_on_c, 14, 45, 76
16, 89624, Note_on_c, 14, 45, 0
16, 89640, Note_on_c, 14, 43, 76
16, 89744, Note_on_c, 14, 43, 0
16, 89760, Note_on_c, 14, 45, 76
16, 89984, Note_on_c, 14, 45, 0
16, 90000, Note_on_c, 14, 38, 76
16, 90479, Note_on_c, 14, 38, 0
16, 94320, Note_on_c, 14, 50, 76
16, 94424, Note_on_c, 14, 50, 0
16, 94440, Note_on_c, 14, 49, 76
16, 94544, Note_on_c, 14, 49, 0
16, 94560, Note_on_c, 14, 50, 76
16, 94784, Note_on_c, 14, 50, 0
16, 94800, Note_on_c, 14, 42, 76
16, 94904, Note_on_c, 14, 42, 0
16, 94920, Note_on_c, 14, 40, 76
16, 95024, Note_on_c, 14, 40, 0
16, 95040, Note_on_c, 14, 42, 76
16, 95264, Note_on_c, 14, 42, 0
16, 95280, Note_on_c, 14, 45, 76
16, 95384, Note_on_c, 14, 45, 0
16, 95400, Note_on_c, 14, 43, 76
16, 95504, Note_on_c, 14, 43, 0
16, 95520, Note_on_c, 14, 45, 76
16, 95744, Note_on_c, 14, 45, 0
16, 95760, Note_on_c, 14, 38, 76
16, 96224, Note_on_c, 14, 38, 0
16, 96240, Note_on_c, 14, 57, 76
16, 96344, Note_on_c, 14, 57, 0
16, 96360, Note_on_c, 14, 56, 76
16, 96464, Note_on_c, 14, 56, 0
16, 96480, Note_on_c, 14, 57, 76
16, 96704, Note_on_c, 14, 57, 0
16, 96720, Note_on_c, 14, 49, 76
16, 96824, Note_on_c, 14, 49, 0
16, 96840, Note_on_c, 14, 47, 76
16, 96944, Note_on_c, 14, 47, 0
16, 96960, Note_on_c, 14, 49, 76
16, 97184, Note_on_c, 14, 49, 0
16, 97200, Note_on_c, 14, 52, 76
16, 97304, Note_on_c, 14, 52, 0
16, 97320, Note_on_c, 14, 50, 76
16, 97424, Note_on_c, 14, 50, 0
16, 97440, Note_on_c, 14, 52, 76
16, 97664, Note_on_c, 14, 52, 0
16, 97680, Note_on_c, 14, 45, 76
16, 98159, Note_on_c, 14, 45, 0
16, 100080, Note_on_c, 14, 59, 76
16, 100184, Note_on_c, 14, 59, 0
16, 100200, Note_on_c, 14, 58, 76
16, 100304, Note_on_c, 14, 58, 0
16, 100320, Note_on_c, 14, 59, 76
16, 100544, Note_on_c, 14, 59, 0
16, 100560, Note_on_c, 14, 50, 76
16, 100664, Note_on_c, 14, 50, 0
16, 100680, Note_on_c, 14, 49, 76
16, 100784, Note_on_c, 14, 49, 0
16, 100800, Note_on_c, 14, 50, 76
16, 101024, Note_on_c, 14, 50, 0
16, 101040, Note_on_c, 14, 54, 76
16, 101144, Note_on_c, 14, 54, 0
16, 101160, Note_on_c, 14, 52, 76
16, 101264, Note_on_c, 14, 52, 0
16, 101280, Note_on_c, 14, 54, 76
16, 101504, Note_on_c, 14, 54, 0
16, 101520, Note_on_c, 14, 47, 76
16, 101999, Note_on_c, 14, 47, 0
16, 103920, Note_on_c, 14, 50, 76
16, 104024, Note_on_c, 14, 50, 0
16, 104040, Note_on_c, 14, 49, 76
16, 104144, Note_on_c, 14, 49, 0
16, 104160, Note_on_c, 14, 50, 76
16, 104384, Note_on_c, 14, 50, 0
16, 104400, Note_on_c, 14, 42, 76
16, 104504, Note_on_c, 14, 42, 0
16, 104520, Note_on_c, 14, 40, 76
16, 104624, Note_on_c, 14, 40, 0
16, 104640, Note_on_c, 14, 42, 76
16, 104864, Note_on_c, 14, 42, 0
16, 104880, Note_on_c, 14, 45, 76
16, 104984, Note_on_c, 14, 45, 0
16, 105000, Note_on_c, 14, 43, 76
16, 105104, Note_on_c, 14, 43, 0
16, 105120, Note_on_c, 14, 45, 76
16, 105344, Note_on_c, 14, 45, 0
16, 105360, Note_on_c, 14, 38, 76
16, 105839, Note_on_c, 14, 38, 0
16, 109680, Note_on_c, 14, 50, 76
16, 109784, Note_on_c, 14, 50, 0
16, 109800, Note_on_c, 14, 49, 76
16, 109904, Note_on_c, 14, 49, 0
16, 109920, Note_on_c, 14, 50, 76
16, 110144, Note_on_c, 14, 50, 0
16, 110160, Note_on_c, 14, 42, 76
16, 110264, Note_on_c, 14, 42, 0
16, 110280, Note_on_c, 14, 40, 76
16, 110384, Note_on_c, 14, 40, 0
16, 110400, Note_on_c, 14, 42, 76
16, 110624, Note_on_c, 14, 42, 0
16, 110640, Note_on_c, 14, 45, 76
16, 110744, Note_on_c, 14, 45, 0
16, 110760, Note_on_c, 14, 43, 76
16, 110864, Note_on_c, 14, 43, 0
16, 110880, Note_on_c, 14, 45, 76
16, 111104, Note_on_c, 14, 45, 0
16, 111120, Note_on_c, 14, 38, 76
16, 111584, Note_on_c, 14, 38, 0
16, 111840, Note_on_c, 14, 62, 76
16, 112544, Note_on_c, 14, 62, 0
16, 112560, Note_on_c, 14, 61, 76
16, 112664, Note_on_c, 14, 61, 0
16, 112680, Note_on_c, 14, 59, 76
16, 112784, Note_on_c, 14, 59, 0
16, 112800, Note_on_c, 14, 61, 76
16, 113024, Note_on_c, 14, 61, 0
16, 113040, Note_on_c, 14, 57, 76
16, 113264, Note_on_c, 14, 57, 0
16, 113280, Note_on_c, 14, 62, 76
16, 113504, Note_on_c, 14, 62, 0
16, 113520, Note_on_c, 14, 50, 76
16, 113624, Note_on_c, 14, 50, 0
16, 113640, Note_on_c, 14, 52, 76
16, 113744, Note_on_c, 14, 52, 0
16, 113760, Note_on_c, 14, 54, 76
16, 113984, Note_on_c, 14, 54, 0
16, 114000, Note_on_c, 14, 55, 76
16, 114104, Note_on_c, 14, 55, 0
16, 114120, Note_on_c, 14, 52, 76
16, 114224, Note_on_c, 14, 52, 0
16, 114240, Note_on_c, 14, 54, 76
16, 114464, Note_on_c, 14, 54, 0
16, 114480, Note_on_c, 14, 55, 76
16, 114704, Note_on_c, 14, 55, 0
16, 114720, Note_on_c, 14, 57, 76
16, 114944, Note_on_c, 14, 57, 0
16, 114960, Note_on_c, 14, 45, 76
16, 115184, Note_on_c, 14, 45, 0
16, 115200, Note_on_c, 14, 50, 76
16, 115424, Note_on_c, 14, 50, 0
16, 115440, Note_on_c, 14, 54, 76
16, 115544, Note_on_c, 14, 54, 0
16, 115560, Note_on_c, 14, 57, 76
16, 115664, Note_on_c, 14, 57, 0
16, 115680, Note_on_c, 14, 62, 76
16, 116384, Note_on_c, 14, 62, 0
16, 116400, Note_on_c, 14, 61, 76
16, 116504, Note_on_c, 14, 61, 0
16, 116520, Note_on_c, 14, 59, 76
16, 116624, Note_on_c, 14, 59, 0
16, 116640, Note_on_c, 14, 61, 76
16, 116864, Note_on_c, 14, 61, 0
16, 116880, Note_on_c, 14, 57, 76
16, 117104, Note_on_c, 14, 57, 0
16, 117120, Note_on_c, 14, 62, 76
16, 117344, Note_on_c, 14, 62, 0
16, 117360, Note_on_c, 14, 61, 76
16, 117584, Note_on_c, 14, 61, 0
16, 117600, Note_on_c, 14, 59, 76
16, 117824, Note_on_c, 14, 59, 0
16, 117840, Note_on_c, 14, 64, 76
16, 118064, Note_on_c, 14, 64, 0
16, 118080, Note_on_c, 14, 61, 76
16, 118304, Note_on_c, 14, 61, 0
16, 118320, Note_on_c, 14, 59, 76
16, 118424, Note_on_c, 14, 59, 0
16, 118440, Note_on_c, 14, 57, 76
16, 118544, Note_on_c, 14, 57, 0
16, 118560, Note_on_c, 14, 56, 76
16, 118784, Note_on_c, 14, 56, 0
16, 118800, Note_on_c, 14, 52, 76
16, 119024, Note_on_c, 14, 52, 0
16, 119040, Note_on_c, 14, 57, 76
16, 119264, Note_on_c, 14, 57, 0
16, 119280, Note_on_c, 14, 50, 76
16, 119504, Note_on_c, 14, 50, 0
16, 119520, Note_on_c, 14, 49, 76
16, 119744, Note_on_c, 14, 49, 0
16, 119760, Note_on_c, 14, 54, 76
16, 119984, Note_on_c, 14, 54, 0
16, 120000, Note_on_c, 14, 50, 76
16, 120224, Note_on_c, 14, 50, 0
16, 120240, Note_on_c, 14, 47, 76
16, 120464, Note_on_c, 14, 47, 0
16, 120480, Note_on_c, 14, 52, 76
16, 120704, Note_on_c, 14, 52, 0
16, 120720, Note_on_c, 14, 40, 76
16, 120944, Note_on_c, 14, 40, 0
16, 120960, Note_on_c, 14, 45, 76
16, 121424, Note_on_c, 14, 45, 0
16, 121440, Note_on_c, 14, 62, 76
16, 122144, Note_on_c, 14, 62, 0
16, 122160, Note_on_c, 14, 61, 76
16, 122264, Note_on_c, 14, 61, 0
16, 122280, Note_on_c, 14, 59, 76
16, 122384, Note_on_c, 14, 59, 0
16, 122400, Note_on_c, 14, 61, 76
16, 122624, Note_on_c, 14, 61, 0
16, 122640, Note_on_c, 14, 57, 76
16, 122864, Note_on_c, 14, 57, 0
16, 122880, Note_on_c, 14, 62, 76
16, 123104, Note_on_c, 14, 62, 0
16, 123120, Note_on_c, 14, 50, 76
16, 123224, Note_on_c, 14, 50, 0
16, 123240, Note_on_c, 14, 52, 76
16, 123344, Note_on_c, 14, 52, 0
16, 123360, Note_on_c, 14, 54, 76
16, 123584, Note_on_c, 14, 54, 0
16, 123600, Note_on_c, 14, 55, 76
16, 123704, Note_on_c, 14, 55, 0
16, 123720, Note_on_c, 14, 52, 76
16, 123824, Note_on_c, 14, 52, 0
16, 123840, Note_on_c, 14, 54, 76
16, 124064, Note_on_c, 14, 54, 0
16, 124080, Note_on_c, 14, 55, 76
16, 124304, Note_on_c, 14, 55, 0
16, 124320, Note_on_c, 14, 57, 76
16, 124544, Note_on_c, 14, 57, 0
16, 124560, Note_on_c, 14, 45, 76
16, 124784, Note_on_c, 14, 45, 0
16, 124800, Note_on_c, 14, 50, 76
16, 125024, Note_on_c, 14, 50, 0
16, 125040, Note_on_c, 14, 54, 76
16, 125144, Note_on_c, 14, 54, 0
16, 125160, Note_on_c, 14, 57, 76
16, 125264, Note_on_c, 14, 57, 0
16, 125280, Note_on_c, 14, 62, 76
16, 125984, Note_on_c, 14, 62, 0
16, 126000, Note_on_c, 14, 61, 76
16, 126104, Note_on_c, 14, 61, 0
16, 126120, Note_on_c, 14, 59, 76
16, 126224, Note_on_c, 14, 59, 0
16, 126240, Note_on_c, 14, 61, 76
16, 126464, Note_on_c, 14, 61, 0
16, 126480, Note_on_c, 14, 57, 76
16, 126704, Note_on_c, 14, 57, 0
16, 126720, Note_on_c, 14, 62, 76
16, 126944, Note_on_c, 14, 62, 0
16, 126960, Note_on_c, 14, 61, 76
16, 127184, Note_on_c, 14, 61, 0
16, 127200, Note_on_c, 14, 59, 76
16, 127424, Note_on_c, 14, 59, 0
16, 127440, Note_on_c, 14, 64, 76
16, 127664, Note_on_c, 14, 64, 0
16, 127680, Note_on_c, 14, 61, 76
16, 127904, Note_on_c, 14, 61, 0
16, 127920, Note_on_c, 14, 59, 76
16, 128024, Note_on_c, 14, 59, 0
16, 128040, Note_on_c, 14, 57, 76
16, 128144, Note_on_c, 14, 57, 0
16, 128160, Note_on_c, 14, 56, 76
16, 128384, Note_on_c, 14, 56, 0
16, 128400, Note_on_c, 14, 52, 76
16, 128624, Note_on_c, 14, 52, 0
16, 128640, Note_on_c, 14, 57, 76
16, 128864, Note_on_c, 14, 57, 0
16, 128880, Note_on_c, 14, 50, 76
16, 129104, Note_on_c, 14, 50, 0
16, 129120, Note_on_c, 14, 49, 76
16, 129344, Note_on_c, 14, 49, 0
16, 129360, Note_on_c, 14, 54, 76
16, 129584, Note_on_c, 14, 54, 0
16, 129600, Note_on_c, 14, 50, 76
16, 129824, Note_on_c, 14, 50, 0
16, 129840, Note_on_c, 14, 47, 76
16, 130064, Note_on_c, 14, 47, 0
16, 130080, Note_on_c, 14, 52, 76
16, 130304, Note_on_c, 14, 52, 0
16, 130320, Note_on_c, 14, 40, 76
16, 130544, Note_on_c, 14, 40, 0
16, 130560, Note_on_c, 14, 45, 76
16, 131024, Note_on_c, 14, 45, 0
16, 131040, Note_on_c, 14, 45, 76
16, 131264, Note_on_c, 14, 45, 0
16, 131280, Note_on_c, 14, 49, 76
16, 131504, Note_on_c, 14, 49, 0
16, 131520, Note_on_c, 14, 50, 76
16, 131744, Note_on_c, 14, 50, 0
16, 131760, Note_on_c, 14, 49, 76
16, 131984, Note_on_c, 14, 49, 0
16, 132000, Note_on_c, 14, 47, 76
16, 132224, Note_on_c, 14, 47, 0
16, 132240, Note_on_c, 14, 50, 76
16, 132464, Note_on_c, 14, 50, 0
16, 132480, Note_on_c, 14, 52, 76
16, 132704, Note_on_c, 14, 52, 0
16, 132720, Note_on_c, 14, 50, 76
16, 132944, Note_on_c, 14, 50, 0
16, 132960, Note_on_c, 14, 52, 76
16, 133184, Note_on_c, 14, 52, 0
16, 133200, Note_on_c, 14, 54, 76
16, 133424, Note_on_c, 14, 54, 0
16, 133440, Note_on_c, 14, 55, 76
16, 133664, Note_on_c, 14, 55, 0
16, 133680, Note_on_c, 14, 54, 76
16, 133904, Note_on_c, 14, 54, 0
16, 133920, Note_on_c, 14, 55, 76
16, 134144, Note_on_c, 14, 55, 0
16, 134160, Note_on_c, 14, 52, 76
16, 134384, Note_on_c, 14, 52, 0
16, 134400, Note_on_c, 14, 54, 76
16, 134624, Note_on_c, 14, 54, 0
16, 134640, Note_on_c, 14, 56, 76
16, 134744, Note_on_c, 14, 56, 0
16, 134760, Note_on_c, 14, 58, 76
16, 134864, Note_on_c, 14, 58, 0
16, 134880, Note_on_c, 14, 59, 76
16, 135104, Note_on_c, 14, 59, 0
16, 135120, Note_on_c, 14, 57, 76
16, 135344, Note_on_c, 14, 57, 0
16, 135360, Note_on_c, 14, 56, 76
16, 135584, Note_on_c, 14, 56, 0
16, 135600, Note_on_c, 14, 61, 76
16, 135824, Note_on_c, 14, 61, 0
16, 135840, Note_on_c, 14, 58, 76
16, 136064, Note_on_c, 14, 58, 0
16, 136080, Note_on_c, 14, 54, 76
16, 136304, Note_on_c, 14, 54, 0
16, 136320, Note_on_c, 14, 59, 76
16, 136544, Note_on_c, 14, 59, 0
16, 136560, Note_on_c, 14, 55, 76
16, 136784, Note_on_c, 14, 55, 0
16, 136800, Note_on_c, 14, 52, 76
16, 137024, Note_on_c, 14, 52, 0
16, 137040, Note_on_c, 14, 50, 76
16, 137144, Note_on_c, 14, 50, 0
16, 137160, Note_on_c, 14, 49, 76
16, 137264, Note_on_c, 14, 49, 0
16, 137280, Note_on_c, 14, 50, 76
16, 137504, Note_on_c, 14, 50, 0
16, 137520, Note_on_c, 14, 52, 76
16, 137744, Note_on_c, 14, 52, 0
16, 137760, Note_on_c, 14, 54, 76
16, 137984, Note_on_c, 14, 54, 0
16, 138000, Note_on_c, 14, 42, 76
16, 138224, Note_on_c, 14, 42, 0
16, 138240, Note_on_c, 14, 47, 76
16, 138464, Note_on_c, 14, 47, 0
16, 138480, Note_on_c, 14, 57, 76
16, 138584, Note_on_c, 14, 57, 0
16, 138600, Note_on_c, 14, 54, 76
16, 138704, Note_on_c, 14, 54, 0
16, 138720, Note_on_c, 14, 55, 76
16, 139424, Note_on_c, 14, 55, 0
16, 139440, Note_on_c, 14, 54, 76
16, 139544, Note_on_c, 14, 54, 0
16, 139560, Note_on_c, 14, 52, 76
16, 139664, Note_on_c, 14, 52, 0
16, 139680, Note_on_c, 14, 51, 76
16, 139904, Note_on_c, 14, 51, 0
16, 139920, Note_on_c, 14, 47, 76
16, 140144, Note_on_c, 14, 47, 0
16, 140160, Note_on_c, 14, 52, 76
16, 140384, Note_on_c, 14, 52, 0
16, 140400, Note_on_c, 14, 54, 76
16, 140504, Note_on_c, 14, 54, 0
16, 140520, Note_on_c, 14, 55, 76
16, 140624, Note_on_c, 14, 55, 0
16, 140640, Note_on_c, 14, 57, 76
16, 140864, Note_on_c, 14, 57, 0
16, 140880, Note_on_c, 14, 49, 76
16, 141104, Note_on_c, 14, 49, 0
16, 141120, Note_on_c, 14, 50, 76
16, 141344, Note_on_c, 14, 50, 0
16, 141360, Note_on_c, 14, 47, 76
16, 141584, Note_on_c, 14, 47, 0
16, 141600, Note_on_c, 14, 43, 76
16, 141824, Note_on_c, 14, 43, 0
16, 141840, Note_on_c, 14, 44, 76
16, 142064, Note_on_c, 14, 44, 0
16, 142080, Note_on_c, 14, 45, 76
16, 142304, Note_on_c, 14, 45, 0
16, 142320, Note_on_c, 14, 47, 76
16, 142424, Note_on_c, 14, 47, 0
16, 142440, Note_on_c, 14, 49, 76
16, 142544, Note_on_c, 14, 49, 0
16, 142560, Note_on_c, 14, 50, 76
16, 142664, Note_on_c, 14, 50, 0
16, 142680, Note_on_c, 14, 52, 76
16, 142784, Note_on_c, 14, 52, 0
16, 142800, Note_on_c, 14, 54, 76
16, 143264, Note_on_c, 14, 54, 0
16, 143280, Note_on_c, 14, 52, 76
16, 143384, Note_on_c, 14, 52, 0
16, 143400, Note_on_c, 14, 50, 76
16, 143504, Note_on_c, 14, 50, 0
16, 143520, Note_on_c, 14, 52, 76
16, 143624, Note_on_c, 14, 52, 0
16, 143640, Note_on_c, 14, 54, 76
16, 143744, Note_on_c, 14, 54, 0
16, 143760, Note_on_c, 14, 55, 76
16, 144224, Note_on_c, 14, 55, 0
16, 144240, Note_on_c, 14, 52, 76
16, 144464, Note_on_c, 14, 52, 0
16, 144480, Note_on_c, 14, 49, 76
16, 144704, Note_on_c, 14, 49, 0
16, 144720, Note_on_c, 14, 45, 76
16, 144944, Note_on_c, 14, 45, 0
16, 144960, Note_on_c, 14, 50, 76
16, 145184, Note_on_c, 14, 50, 0
16, 145200, Note_on_c, 14, 55, 76
16, 145424, Note_on_c, 14, 55, 0
16, 145440, Note_on_c, 14, 57, 76
16, 145664, Note_on_c, 14, 57, 0
16, 145680, Note_on_c, 14, 45, 76
16, 145904, Note_on_c, 14, 45, 0
16, 145920, Note_on_c, 14, 50, 76
16, 146384, Note_on_c, 14, 50, 0
16, 146400, Note_on_c, 14, 45, 76
16, 146624, Note_on_c, 14, 45, 0
16, 146640, Note_on_c, 14, 49, 76
16, 146864, Note_on_c, 14, 49, 0
16, 146880, Note_on_c, 14, 50, 76
16, 147104, Note_on_c, 14, 50, 0
16, 147120, Note_on_c, 14, 49, 76
16, 147344, Note_on_c, 14, 49, 0
16, 147360, Note_on_c, 14, 47, 76
16, 147584, Note_on_c, 14, 47, 0
16, 147600, Note_on_c, 14, 50, 76
16, 147824, Note_on_c, 14, 50, 0
16, 147840, Note_on_c, 14, 52, 76
16, 148064, Note_on_c, 14, 52, 0
16, 148080, Note_on_c, 14, 50, 76
16, 148304, Note_on_c, 14, 50, 0
16, 148320, Note_on_c, 14, 52, 76
16, 148544, Note_on_c, 14, 52, 0
16, 148560, Note_on_c, 14, 54, 76
16, 148784, Note_on_c, 14, 54, 0
16, 148800, Note_on_c, 14, 55, 76
16, 149024, Note_on_c, 14, 55, 0
16, 149040, Note_on_c, 14, 54, 76
16, 149264, Note_on_c, 14, 54, 0
16, 149280, Note_on_c, 14, 55, 76
16, 149504, Note_on_c, 14, 55, 0
16, 149520, Note_on_c, 14, 52, 76
16, 149744, Note_on_c, 14, 52, 0
16, 149760, Note_on_c, 14, 54, 76
16, 149984, Note_on_c, 14, 54, 0
16, 150000, Note_on_c, 14, 56, 76
16, 150104, Note_on_c, 14, 56, 0
16, 150120, Note_on_c, 14, 58, 76
16, 150224, Note_on_c, 14, 58, 0
16, 150240, Note_on_c, 14, 59, 76
16, 150464, Note_on_c, 14, 59, 0
16, 150480, Note_on_c, 14, 57, 76
16, 150704, Note_on_c, 14, 57, 0
16, 150720, Note_on_c, 14, 56, 76
16, 150944, Note_on_c, 14, 56, 0
16, 150960, Note_on_c, 14, 61, 76
16, 151184, Note_on_c, 14, 61, 0
16, 151200, Note_on_c, 14, 58, 76
16, 151424, Note_on_c, 14, 58, 0
16, 151440, Note_on_c, 14, 54, 76
16, 151664, Note_on_c, 14, 54, 0
16, 151680, Note_on_c, 14, 59, 76
16, 151904, Note_on_c, 14, 59, 0
16, 151920, Note_on_c, 14, 55, 76
16, 152144, Note_on_c, 14, 55, 0
16, 152160, Note_on_c, 14, 52, 76
16, 152384, Note_on_c, 14, 52, 0
16, 152400, Note_on_c, 14, 50, 76
16, 152504, Note_on_c, 14, 50, 0
16, 152520, Note_on_c, 14, 49, 76
16, 152624, Note_on_c, 14, 49, 0
16, 152640, Note_on_c, 14, 50, 76
16, 152864, Note_on_c, 14, 50, 0
16, 152880, Note_on_c, 14, 52, 76
16, 153104, Note_on_c, 14, 52, 0
16, 153120, Note_on_c, 14, 54, 76
16, 153344, Note_on_c, 14, 54, 0
16, 153360, Note_on_c, 14, 42, 76
16, 153584, Note_on_c, 14, 42, 0
16, 153600, Note_on_c, 14, 47, 76
16, 153824, Note_on_c, 14, 47, 0
16, 153840, Note_on_c, 14, 57, 76
16, 153944, Note_on_c, 14, 57, 0
16, 153960, Note_on_c, 14, 54, 76
16, 154064, Note_on_c, 14, 54, 0
16, 154080, Note_on_c, 14, 55, 76
16, 154784, Note_on_c, 14, 55, 0
16, 154800, Note_on_c, 14, 54, 76
16, 154904, Note_on_c, 14, 54, 0
16, 154920, Note_on_c, 14, 52, 76
16, 155024, Note_on_c, 14, 52, 0
16, 155040, Note_on_c, 14, 51, 76
16, 155264, Note_on_c, 14, 51, 0
16, 155280, Note_on_c, 14, 47, 76
16, 155504, Note_on_c, 14, 47, 0
16, 155520, Note_on_c, 14, 52, 76
16, 155744, Note_on_c, 14, 52, 0
16, 155760, Note_on_c, 14, 54, 76
16, 155864, Note_on_c, 14, 54, 0
16, 155880, Note_on_c, 14, 55, 76
16, 155984, Note_on_c, 14, 55, 0
16, 156000, Note_on_c, 14, 57, 76
16, 156224, Note_on_c, 14, 57, 0
16, 156240, Note_on_c, 14, 49, 76
16, 156464, Note_on_c, 14, 49, 0
16, 156480, Note_on_c, 14, 50, 76
16, 156704, Note_on_c, 14, 50, 0
16, 156720, Note_on_c, 14, 47, 76
16, 156944, Note_on_c, 14, 47, 0
16, 156960, Note_on_c, 14, 43, 76
16, 157184, Note_on_c, 14, 43, 0
16, 157200, Note_on_c, 14, 44, 76
16, 157424, Note_on_c, 14, 44, 0
16, 157440, Note_on_c, 14, 45, 76
16, 157664, Note_on_c, 14, 45, 0
16, 157680, Note_on_c, 14, 47, 76
16, 157784, Note_on_c, 14, 47, 0
16, 157800, Note_on_c, 14, 49, 76
16, 157904, Note_on_c, 14, 49, 0
16, 157920, Note_on_c, 14, 50, 76
16, 158024, Note_on_c, 14, 50, 0
16, 158040, Note_on_c, 14, 52, 76
16, 158144, Note_on_c, 14, 52, 0
16, 158160, Note_on_c, 14, 54, 76
16, 158624, Note_on_c, 14, 54, 0
16, 158640, Note_on_c, 14, 52, 76
16, 158744, Note_on_c, 14, 52, 0
16, 158760, Note_on_c, 14, 50, 76
16, 158864, Note_on_c, 14, 50, 0
16, 158880, Note_on_c, 14, 52, 76
16, 158984, Note_on_c, 14, 52, 0
16, 159000, Note_on_c, 14, 54, 76
16, 159104, Note_on_c, 14, 54, 0
16, 159120, Note_on_c, 14, 55, 76
16, 159584, Note_on_c, 14, 55, 0
16, 159600, Note_on_c, 14, 52, 76
16, 159824, Note_on_c, 14, 52, 0
16, 159840, Note_on_c, 14, 49, 76
16, 160064, Note_on_c, 14, 49, 0
16, 160080, Note_on_c, 14, 45, 76
16, 160304, Note_on_c, 14, 45, 0
16, 160320, Note_on_c, 14, 50, 76
16, 160544, Note_on_c, 14, 50, 0
16, 160560, Note_on_c, 14, 55, 76
16, 160784, Note_on_c, 14, 55, 0
16, 160800, Note_on_c, 14, 57, 76
16, 161024, Note_on_c, 14, 57, 0
16, 161040, Note_on_c, 14, 45, 76
16, 161264, Note_on_c, 14, 45, 0
16, 161280, Note_on_c, 14, 50, 76
16, 161759, Note_on_c, 14, 50, 0
16, 161759, End_track
17, 0, Start_track
17, 0, Title_t, "Johann Sebastian Bach - Orchestral Suite No. 3 in D Major, BWV1068 - No. 3 Gavotte I and II"
17, 0, MIDI_port, 0
17, 0, End_track
0, 0, End_of_file
