0, 0, Header, 1, 13, 120
1, 0, Start_track
1, 0, Time_signature, 4, 2, 24, 8
1, 0, Key_signature, 2, "major"
1, 0, Tempo, 705882
1, 2280, Tempo, 759493
1, 2640, Tempo, 740740
1, 2655, Tempo, 740740
1, 2680, Tempo, 731707
1, 2685, Tempo, 731707
1, 2690, Tempo, 722891
1, 2715, Tempo, 714285
1, 2745, Tempo, 714285
1, 2755, Tempo, 714285
1, 2765, Tempo, 705882
1, 3725, Tempo, 705882
1, 3735, Tempo, 714285
1, 3745, Tempo, 714285
1, 3755, Tempo, 722891
1, 3760, Tempo, 722891
1, 3765, Tempo, 731707
1, 3770, Tempo, 731707
1, 3785, Tempo, 740740
1, 3790, Tempo, 740740
1, 3795, Tempo, 750000
1, 3865, Tempo, 869565
1, 3915, Tempo, 1224489
1, 3920, Tempo, 2068965
1, 3930, Tempo, 1621621
1, 3960, Tempo, 1224489
1, 4085, Tempo, 1000000
1, 4200, Tempo, 869565
1, 4220, Tempo, 750000
1, 4275, Tempo, 705882
1, 5585, Tempo, 759493
1, 5615, Tempo, 759493
1, 5620, Tempo, 769230
1, 5640, Tempo, 769230
1, 5650, Tempo, 779220
1, 5655, Tempo, 789473
1, 5660, Tempo, 789473
1, 5670, Tempo, 800000
1, 5675, Tempo, 800000
1, 5680, Tempo, 833333
1, 5690, Tempo, 833333
1, 5700, Tempo, 845070
1, 5705, Tempo, 857142
1, 5715, Tempo, 857142
1, 5755, Tempo, 759493
1, 6480, Tempo, 833333
1, 6785, Tempo, 1224489
1, 6805, Tempo, 1666666
1, 6840, Tempo, 3000000
1, 6965, Tempo, 750000
1, 7685, Tempo, 402684
1, 7805, Tempo, 666666
1, 45150, Tempo, 666666
1, 45170, Tempo, 659340
1, 45195, Tempo, 659340
1, 45230, Tempo, 659340
1, 45240, Tempo, 666666
1, 45250, Tempo, 666666
1, 45270, Tempo, 674157
1, 45290, Tempo, 674157
1, 45305, Tempo, 681818
1, 45320, Tempo, 681818
1, 45340, Tempo, 689655
1, 45350, Tempo, 689655
1, 45390, Tempo, 689655
1, 45440, Tempo, 689655
1, 45490, Tempo, 697674
1, 45510, Tempo, 697674
1, 45530, Tempo, 697674
1, 45580, Tempo, 697674
1, 45610, Tempo, 705882
1, 45620, Tempo, 705882
1, 45640, Tempo, 714285
1, 45650, Tempo, 714285
1, 45670, Tempo, 722891
1, 45690, Tempo, 722891
1, 45710, Tempo, 731707
1, 45725, Tempo, 740740
1, 45740, Tempo, 740740
1, 45760, Tempo, 750000
1, 45830, Tempo, 750000
1, 45870, Tempo, 759493
1, 45980, Tempo, 759493
1, 46000, Tempo, 769230
1, 46015, Tempo, 769230
1, 46020, Tempo, 779220
1, 46025, Tempo, 779220
1, 46040, Tempo, 789473
1, 46045, Tempo, 789473
1, 46050, Tempo, 800000
1, 46070, Tempo, 800000
1, 46085, Tempo, 1224489
1, 46090, Tempo, 2000000
1, 46095, Tempo, 1935483
1, 46100, Tempo, 2000000
1, 46120, Tempo, 1935483
1, 46130, Tempo, 1935483
1, 46140, Tempo, 1875000
1, 46150, Tempo, 1818181
1, 46160, Tempo, 1764705
1, 46170, Tempo, 1818181
1, 46180, Tempo, 1764705
1, 46190, Tempo, 1714285
1, 46200, Tempo, 1666666
1, 46210, Tempo, 1621621
1, 46220, Tempo, 1578947
1, 46230, Tempo, 1578947
1, 46240, Tempo, 1538461
1, 46250, Tempo, 1500000
1, 46260, Tempo, 1463414
1, 46270, Tempo, 1428571
1, 46280, Tempo, 1428571
1, 46285, Tempo, 1395348
1, 46290, Tempo, 1395348
1, 46300, Tempo, 1363636
1, 46305, Tempo, 1363636
1, 46310, Tempo, 1333333
1, 46320, Tempo, 1304347
1, 46330, Tempo, 1276595
1, 46335, Tempo, 1250000
1, 46340, Tempo, 1250000
1, 46350, Tempo, 1224489
1, 46360, Tempo, 1200000
1, 46565, Tempo, 1538461
1, 46575, Tempo, 1500000
1, 46615, Tempo, 1500000
1, 46645, Tempo, 1500000
1, 46675, Tempo, 1463414
1, 46735, Tempo, 1463414
1, 46765, Tempo, 1428571
1, 46775, Tempo, 1363636
1, 46785, Tempo, 1363636
1, 46795, Tempo, 1363636
1, 46800, Tempo, 1333333
1, 46835, Tempo, 1363636
1, 46855, Tempo, 1333333
1, 46870, Tempo, 1333333
1, 46885, Tempo, 1304347
1, 46955, Tempo, 1276595
1, 46995, Tempo, 1250000
1, 47005, Tempo, 1224489
1, 47040, Tempo, 2400000
1, 47045, Tempo, 5000000
1, 47050, Tempo, 3529411
1, 47060, Tempo, 3750000
1, 47100, Tempo, 1250000
1, 47110, Tempo, 1714285
1, 47120, Tempo, 1250000
1, 47150, Tempo, 1250000
1, 47400, Tempo, 1395348
1, 47420, Tempo, 1428571
1, 47450, Tempo, 1395348
1, 47480, Tempo, 1395348
1, 47490, Tempo, 1395348
1, 47540, Tempo, 1428571
1, 47560, Tempo, 1395348
1, 47570, Tempo, 1363636
1, 47600, Tempo, 1333333
1, 47610, Tempo, 1304347
1, 47620, Tempo, 1333333
1, 47630, Tempo, 1304347
1, 47640, Tempo, 1276595
1, 48250, Tempo, 1333333
1, 48370, Tempo, 1363636
1, 48575, Tempo, 1333333
1, 48840, Tempo, 1304347
1, 49245, Tempo, 1363636
1, 49725, Tempo, 1463414
1, 49860, Tempo, 1428571
1, 49975, Tempo, 1363636
1, 50220, Tempo, 1428571
1, 50465, Tempo, 1463414
1, 50695, Tempo, 1538461
1, 50825, Tempo, 1428571
1, 50940, Tempo, 1500000
1, 51120, Tempo, 1621621
1, 51350, Tempo, 1714285
1, 51455, Tempo, 1935483
1, 51480, Tempo, 2000000
1, 51675, Tempo, 472440
1, 51940, Tempo, 645161
1, 55390, Tempo, 652173
1, 58210, Tempo, 666666
1, 58400, Tempo, 689655
1, 58720, Tempo, 666666
1, 59290, Tempo, 674157
1, 59770, Tempo, 681818
1, 61330, Tempo, 674157
1, 61810, Tempo, 652173
1, 62170, Tempo, 674157
1, 62400, Tempo, 674157
1, 62770, Tempo, 681818
1, 63160, Tempo, 681818
1, 64690, Tempo, 674157
1, 65880, Tempo, 666666
1, 66480, Tempo, 659340
1, 66720, Tempo, 666666
1, 66730, Tempo, 674157
1, 66820, Tempo, 674157
1, 66850, Tempo, 674157
1, 66880, Tempo, 674157
1, 66970, Tempo, 674157
1, 67050, Tempo, 674157
1, 67160, Tempo, 674157
1, 67210, Tempo, 674157
1, 67350, Tempo, 674157
1, 67490, Tempo, 674157
1, 67510, Tempo, 674157
1, 67590, Tempo, 674157
1, 67650, Tempo, 674157
1, 67670, Tempo, 674157
1, 67680, Tempo, 674157
1, 67690, Tempo, 674157
1, 67750, Tempo, 681818
1, 67850, Tempo, 681818
1, 67880, Tempo, 681818
1, 67910, Tempo, 681818
1, 67990, Tempo, 681818
1, 68010, Tempo, 681818
1, 68090, Tempo, 681818
1, 68110, Tempo, 681818
1, 68150, Tempo, 681818
1, 68210, Tempo, 681818
1, 68290, Tempo, 681818
1, 68420, Tempo, 681818
1, 71640, Tempo, 674157
1, 71650, Tempo, 674157
1, 71710, Tempo, 681818
1, 71730, Tempo, 681818
1, 73560, Tempo, 674157
1, 74510, Tempo, 674157
1, 74650, Tempo, 681818
1, 74870, Tempo, 681818
1, 75130, Tempo, 681818
1, 80310, Tempo, 681818
1, 82000, Tempo, 681818
1, 82450, Tempo, 674157
1, 82960, Tempo, 666666
1, 83240, Tempo, 674157
1, 83280, Tempo, 674157
1, 83520, Tempo, 681818
1, 83760, Tempo, 681818
1, 84880, Tempo, 674157
1, 86160, Tempo, 681818
1, 88200, Tempo, 681818
1, 90730, Tempo, 681818
1, 91200, Tempo, 681818
1, 91690, Tempo, 681818
1, 91930, Tempo, 689655
1, 94680, Tempo, 674157
1, 95680, Tempo, 666666
1, 96010, Tempo, 674157
1, 97820, Tempo, 666666
1, 98340, Tempo, 659340
1, 98640, Tempo, 666666
1, 99850, Tempo, 666666
1, 100090, Tempo, 674157
1, 100330, Tempo, 674157
1, 100460, Tempo, 674157
1, 100560, Tempo, 681818
1, 100930, Tempo, 666666
1, 102650, Tempo, 666666
1, 102670, Tempo, 674157
1, 102690, Tempo, 674157
1, 102710, Tempo, 674157
1, 102740, Tempo, 674157
1, 102750, Tempo, 674157
1, 102770, Tempo, 674157
1, 102790, Tempo, 674157
1, 102810, Tempo, 674157
1, 102820, Tempo, 674157
1, 102830, Tempo, 681818
1, 102850, Tempo, 681818
1, 102860, Tempo, 681818
1, 102870, Tempo, 689655
1, 102890, Tempo, 689655
1, 102910, Tempo, 689655
1, 102930, Tempo, 697674
1, 102950, Tempo, 697674
1, 102970, Tempo, 697674
1, 102990, Tempo, 697674
1, 103010, Tempo, 697674
1, 103020, Tempo, 697674
1, 104410, Tempo, 697674
1, 104420, Tempo, 697674
1, 104460, Tempo, 697674
1, 104480, Tempo, 697674
1, 104500, Tempo, 697674
1, 104540, Tempo, 697674
1, 104600, Tempo, 697674
1, 104660, Tempo, 697674
1, 104700, Tempo, 697674
1, 104720, Tempo, 697674
1, 104750, Tempo, 689655
1, 104760, Tempo, 689655
1, 104780, Tempo, 689655
1, 104800, Tempo, 689655
1, 104820, Tempo, 689655
1, 104840, Tempo, 689655
1, 104880, Tempo, 689655
1, 104900, Tempo, 689655
1, 104920, Tempo, 689655
1, 104930, Tempo, 689655
1, 104970, Tempo, 689655
1, 104990, Tempo, 689655
1, 105030, Tempo, 689655
1, 105060, Tempo, 689655
1, 105070, Tempo, 689655
1, 105080, Tempo, 689655
1, 106310, Tempo, 689655
1, 106330, Tempo, 689655
1, 106350, Tempo, 697674
1, 106370, Tempo, 697674
1, 106380, Tempo, 697674
1, 106390, Tempo, 697674
1, 106410, Tempo, 697674
1, 106430, Tempo, 697674
1, 106450, Tempo, 697674
1, 106460, Tempo, 697674
1, 106470, Tempo, 705882
1, 107640, Tempo, 689655
1, 107870, Tempo, 674157
1, 108130, Tempo, 666666
1, 108620, Tempo, 681818
1, 109100, Tempo, 666666
1, 109460, Tempo, 681818
1, 109940, Tempo, 681818
1, 110180, Tempo, 689655
1, 110410, Tempo, 689655
1, 111110, Tempo, 681818
1, 111430, Tempo, 674157
1, 112350, Tempo, 674157
1, 112400, Tempo, 689655
1, 112690, Tempo, 697674
1, 113190, Tempo, 705882
1, 113310, Tempo, 714285
1, 113680, Tempo, 714285
1, 113900, Tempo, 722891
1, 114040, Tempo, 722891
1, 114150, Tempo, 722891
1, 114390, Tempo, 731707
1, 114620, Tempo, 740740
1, 114840, Tempo, 722891
1, 115090, Tempo, 722891
1, 115320, Tempo, 722891
1, 115560, Tempo, 714285
1, 115800, Tempo, 714285
1, 116040, Tempo, 714285
1, 116280, Tempo, 697674
1, 116290, Tempo, 705882
1, 116300, Tempo, 689655
1, 116530, Tempo, 697674
1, 117000, Tempo, 689655
1, 117360, Tempo, 705882
1, 117490, Tempo, 769230
1, 117540, Tempo, 909090
1, 117560, Tempo, 937500
1, 117610, Tempo, 983606
1, 117610, End_track
2, 0, Start_track
2, 0, MIDI_port, 0
2, 0, Title_t, "Bach Toccata & Fugue"
2, 0, Program_c, 0, 19
2, 0, Control_c, 0, 7, 80
2, 0, Control_c, 0, 10, 60
2, 30, Program_c, 0, 19
2, 30, Control_c, 0, 0, 0
2, 30, Control_c, 0, 11, 120
2, 30, Control_c, 0, 64, 0
2, 30, Control_c, 0, 91, 80
2, 30, Control_c, 0, 93, 80
2, 420, Note_on_c, 0, 78, 77
2, 472, Note_on_c, 0, 78, 0
2, 480, Note_on_c, 0, 78, 73
2, 532, Note_on_c, 0, 78, 0
2, 540, Note_on_c, 0, 78, 67
2, 592, Note_on_c, 0, 78, 0
2, 600, Note_on_c, 0, 78, 75
2, 720, Note_on_c, 0, 78, 0
2, 1380, Note_on_c, 0, 66, 74
2, 1432, Note_on_c, 0, 66, 0
2, 1440, Note_on_c, 0, 66, 68
2, 1492, Note_on_c, 0, 66, 0
2, 1500, Note_on_c, 0, 66, 64
2, 1552, Note_on_c, 0, 66, 0
2, 1560, Note_on_c, 0, 66, 70
2, 1680, Note_on_c, 0, 66, 0
2, 1860, Note_on_c, 0, 78, 71
2, 1912, Note_on_c, 0, 78, 0
2, 1920, Note_on_c, 0, 78, 65
2, 1972, Note_on_c, 0, 78, 0
2, 1980, Note_on_c, 0, 78, 64
2, 2032, Note_on_c, 0, 78, 0
2, 2040, Note_on_c, 0, 78, 68
2, 2160, Note_on_c, 0, 78, 0
2, 2310, Note_on_c, 0, 76, 71
2, 2336, Note_on_c, 0, 76, 0
2, 2340, Note_on_c, 0, 78, 65
2, 2366, Note_on_c, 0, 78, 0
2, 2370, Note_on_c, 0, 80, 66
2, 2396, Note_on_c, 0, 80, 0
2, 2400, Note_on_c, 0, 81, 71
2, 2426, Note_on_c, 0, 81, 0
2, 2430, Note_on_c, 0, 74, 66
2, 2456, Note_on_c, 0, 74, 0
2, 2460, Note_on_c, 0, 73, 65
2, 2486, Note_on_c, 0, 73, 0
2, 2490, Note_on_c, 0, 71, 64
2, 2516, Note_on_c, 0, 71, 0
2, 2520, Note_on_c, 0, 73, 71
2, 2610, Note_on_c, 0, 73, 0
2, 3960, Note_on_c, 0, 69, 64
2, 4200, Note_on_c, 0, 69, 0
2, 5490, Note_on_c, 0, 74, 77
2, 5516, Note_on_c, 0, 74, 0
2, 5520, Note_on_c, 0, 71, 69
2, 5598, Note_on_c, 0, 71, 0
2, 5610, Note_on_c, 0, 74, 78
2, 5636, Note_on_c, 0, 74, 0
2, 5640, Note_on_c, 0, 68, 70
2, 5653, Note_on_c, 0, 68, 0
2, 5655, Note_on_c, 0, 71, 73
2, 5668, Note_on_c, 0, 71, 0
2, 5670, Note_on_c, 0, 68, 72
2, 5683, Note_on_c, 0, 68, 0
2, 5685, Note_on_c, 0, 71, 69
2, 5698, Note_on_c, 0, 71, 0
2, 5700, Note_on_c, 0, 68, 68
2, 5713, Note_on_c, 0, 68, 0
2, 5715, Note_on_c, 0, 71, 70
2, 5728, Note_on_c, 0, 71, 0
2, 5730, Note_on_c, 0, 68, 66
2, 5743, Note_on_c, 0, 68, 0
2, 5745, Note_on_c, 0, 71, 66
2, 5758, Note_on_c, 0, 71, 0
2, 5760, Note_on_c, 0, 68, 65
2, 5773, Note_on_c, 0, 68, 0
2, 5775, Note_on_c, 0, 71, 64
2, 5788, Note_on_c, 0, 71, 0
2, 5790, Note_on_c, 0, 68, 66
2, 5803, Note_on_c, 0, 68, 0
2, 5805, Note_on_c, 0, 71, 68
2, 5818, Note_on_c, 0, 71, 0
2, 5820, Note_on_c, 0, 68, 69
2, 5833, Note_on_c, 0, 68, 0
2, 5835, Note_on_c, 0, 71, 68
2, 5848, Note_on_c, 0, 71, 0
2, 5850, Note_on_c, 0, 68, 68
2, 5863, Note_on_c, 0, 68, 0
2, 5865, Note_on_c, 0, 71, 68
2, 5878, Note_on_c, 0, 71, 0
2, 5880, Note_on_c, 0, 68, 70
2, 5893, Note_on_c, 0, 68, 0
2, 5895, Note_on_c, 0, 71, 71
2, 5908, Note_on_c, 0, 71, 0
2, 5910, Note_on_c, 0, 68, 70
2, 5923, Note_on_c, 0, 68, 0
2, 5925, Note_on_c, 0, 71, 69
2, 5938, Note_on_c, 0, 71, 0
2, 5940, Note_on_c, 0, 68, 69
2, 5953, Note_on_c, 0, 68, 0
2, 5955, Note_on_c, 0, 71, 69
2, 5968, Note_on_c, 0, 71, 0
2, 5970, Note_on_c, 0, 68, 70
2, 5983, Note_on_c, 0, 68, 0
2, 5985, Note_on_c, 0, 71, 70
2, 5998, Note_on_c, 0, 71, 0
2, 6000, Note_on_c, 0, 68, 70
2, 6013, Note_on_c, 0, 68, 0
2, 6015, Note_on_c, 0, 71, 68
2, 6028, Note_on_c, 0, 71, 0
2, 6030, Note_on_c, 0, 68, 68
2, 6043, Note_on_c, 0, 68, 0
2, 6045, Note_on_c, 0, 71, 68
2, 6058, Note_on_c, 0, 71, 0
2, 6060, Note_on_c, 0, 68, 68
2, 6073, Note_on_c, 0, 68, 0
2, 6075, Note_on_c, 0, 71, 68
2, 6088, Note_on_c, 0, 71, 0
2, 6090, Note_on_c, 0, 68, 70
2, 6103, Note_on_c, 0, 68, 0
2, 6105, Note_on_c, 0, 71, 71
2, 6118, Note_on_c, 0, 71, 0
2, 6120, Note_on_c, 0, 68, 70
2, 6133, Note_on_c, 0, 68, 0
2, 6135, Note_on_c, 0, 71, 70
2, 6148, Note_on_c, 0, 71, 0
2, 6150, Note_on_c, 0, 68, 72
2, 6163, Note_on_c, 0, 68, 0
2, 6165, Note_on_c, 0, 71, 72
2, 6178, Note_on_c, 0, 71, 0
2, 6180, Note_on_c, 0, 68, 72
2, 6193, Note_on_c, 0, 68, 0
2, 6195, Note_on_c, 0, 71, 71
2, 6208, Note_on_c, 0, 71, 0
2, 6210, Note_on_c, 0, 68, 70
2, 6223, Note_on_c, 0, 68, 0
2, 6225, Note_on_c, 0, 71, 70
2, 6238, Note_on_c, 0, 71, 0
2, 6240, Note_on_c, 0, 68, 70
2, 6253, Note_on_c, 0, 68, 0
2, 6255, Note_on_c, 0, 71, 71
2, 6268, Note_on_c, 0, 71, 0
2, 6270, Note_on_c, 0, 68, 72
2, 6283, Note_on_c, 0, 68, 0
2, 6285, Note_on_c, 0, 71, 72
2, 6298, Note_on_c, 0, 71, 0
2, 6300, Note_on_c, 0, 68, 71
2, 6313, Note_on_c, 0, 68, 0
2, 6315, Note_on_c, 0, 71, 68
2, 6328, Note_on_c, 0, 71, 0
2, 6330, Note_on_c, 0, 68, 70
2, 6343, Note_on_c, 0, 68, 0
2, 6345, Note_on_c, 0, 71, 70
2, 6358, Note_on_c, 0, 71, 0
2, 6360, Note_on_c, 0, 68, 70
2, 6373, Note_on_c, 0, 68, 0
2, 6375, Note_on_c, 0, 71, 70
2, 6388, Note_on_c, 0, 71, 0
2, 6390, Note_on_c, 0, 68, 68
2, 6403, Note_on_c, 0, 68, 0
2, 6405, Note_on_c, 0, 71, 69
2, 6418, Note_on_c, 0, 71, 0
2, 6420, Note_on_c, 0, 68, 70
2, 6446, Note_on_c, 0, 68, 0
2, 6450, Note_on_c, 0, 71, 78
2, 6476, Note_on_c, 0, 71, 0
2, 6480, Note_on_c, 0, 70, 74
2, 6558, Note_on_c, 0, 70, 0
2, 6570, Note_on_c, 0, 68, 79
2, 6596, Note_on_c, 0, 68, 0
2, 6600, Note_on_c, 0, 70, 76
2, 6678, Note_on_c, 0, 70, 0
2, 6690, Note_on_c, 0, 68, 72
2, 6716, Note_on_c, 0, 68, 0
2, 6720, Note_on_c, 0, 66, 74
2, 6798, Note_on_c, 0, 66, 0
2, 6810, Note_on_c, 0, 65, 70
2, 6836, Note_on_c, 0, 65, 0
2, 6840, Note_on_c, 0, 66, 73
2, 6960, Note_on_c, 0, 66, 0
2, 7080, Note_on_c, 0, 50, 95
2, 7093, Note_on_c, 0, 50, 0
2, 7095, Note_on_c, 0, 52, 92
2, 7108, Note_on_c, 0, 52, 0
2, 7110, Note_on_c, 0, 54, 91
2, 7123, Note_on_c, 0, 54, 0
2, 7125, Note_on_c, 0, 55, 90
2, 7138, Note_on_c, 0, 55, 0
2, 7140, Note_on_c, 0, 57, 89
2, 7153, Note_on_c, 0, 57, 0
2, 7155, Note_on_c, 0, 59, 87
2, 7168, Note_on_c, 0, 59, 0
2, 7170, Note_on_c, 0, 61, 87
2, 7183, Note_on_c, 0, 61, 0
2, 7185, Note_on_c, 0, 62, 87
2, 7198, Note_on_c, 0, 62, 0
2, 7200, Note_on_c, 0, 64, 87
2, 7213, Note_on_c, 0, 64, 0
2, 7215, Note_on_c, 0, 66, 89
2, 7228, Note_on_c, 0, 66, 0
2, 7230, Note_on_c, 0, 67, 89
2, 7243, Note_on_c, 0, 67, 0
2, 7245, Note_on_c, 0, 69, 88
2, 7258, Note_on_c, 0, 69, 0
2, 7260, Note_on_c, 0, 71, 89
2, 7273, Note_on_c, 0, 71, 0
2, 7275, Note_on_c, 0, 73, 88
2, 7288, Note_on_c, 0, 73, 0
2, 7290, Note_on_c, 0, 74, 89
2, 7303, Note_on_c, 0, 74, 0
2, 7305, Note_on_c, 0, 76, 87
2, 7318, Note_on_c, 0, 76, 0
2, 7320, Note_on_c, 0, 74, 86
2, 7320, Note_on_c, 0, 78, 86
2, 7680, Note_on_c, 0, 78, 0
2, 7680, Note_on_c, 0, 74, 0
2, 7804, Program_c, 0, 10
2, 7804, Control_c, 0, 0, 0
2, 7804, Control_c, 0, 11, 110
2, 7804, Control_c, 0, 64, 0
2, 7804, Control_c, 0, 91, 10
2, 7804, Control_c, 0, 93, 10
2, 7804, Control_c, 0, 7, 60
2, 7805, Control_c, 0, 10, 20
2, 7810, Note_on_c, 0, 69, 69
2, 7915, Note_on_c, 0, 69, 0
2, 7930, Note_on_c, 0, 71, 64
2, 8155, Note_on_c, 0, 71, 0
2, 8170, Note_on_c, 0, 69, 64
2, 8335, Note_on_c, 0, 69, 0
2, 8350, Note_on_c, 0, 74, 64
2, 8402, Note_on_c, 0, 74, 0
2, 8410, Note_on_c, 0, 76, 64
2, 8462, Note_on_c, 0, 76, 0
2, 8470, Note_on_c, 0, 78, 64
2, 8522, Note_on_c, 0, 78, 0
2, 8530, Note_on_c, 0, 79, 64
2, 8582, Note_on_c, 0, 79, 0
2, 8590, Note_on_c, 0, 81, 64
2, 8642, Note_on_c, 0, 81, 0
2, 8650, Note_on_c, 0, 78, 64
2, 8875, Note_on_c, 0, 78, 0
2, 8890, Note_on_c, 0, 71, 64
2, 8995, Note_on_c, 0, 71, 0
2, 9070, Note_on_c, 0, 73, 64
2, 9122, Note_on_c, 0, 73, 0
2, 9130, Note_on_c, 0, 74, 64
2, 9182, Note_on_c, 0, 74, 0
2, 9190, Note_on_c, 0, 78, 64
2, 9242, Note_on_c, 0, 78, 0
2, 9250, Note_on_c, 0, 76, 64
2, 9302, Note_on_c, 0, 76, 0
2, 9310, Note_on_c, 0, 74, 64
2, 9362, Note_on_c, 0, 74, 0
2, 9370, Note_on_c, 0, 73, 64
2, 9422, Note_on_c, 0, 73, 0
2, 9430, Note_on_c, 0, 69, 64
2, 9482, Note_on_c, 0, 69, 0
2, 9550, Note_on_c, 0, 69, 64
2, 9602, Note_on_c, 0, 69, 0
2, 9610, Note_on_c, 0, 71, 64
2, 9662, Note_on_c, 0, 71, 0
2, 9670, Note_on_c, 0, 74, 64
2, 9722, Note_on_c, 0, 74, 0
2, 9730, Note_on_c, 0, 67, 64
2, 9782, Note_on_c, 0, 67, 0
2, 9790, Note_on_c, 0, 71, 64
2, 9842, Note_on_c, 0, 71, 0
2, 9850, Note_on_c, 0, 69, 64
2, 9902, Note_on_c, 0, 69, 0
2, 9910, Note_on_c, 0, 73, 64
2, 9962, Note_on_c, 0, 73, 0
2, 9970, Note_on_c, 0, 66, 64
2, 10022, Note_on_c, 0, 66, 0
2, 10030, Note_on_c, 0, 69, 64
2, 10082, Note_on_c, 0, 69, 0
2, 10090, Note_on_c, 0, 67, 64
2, 10142, Note_on_c, 0, 67, 0
2, 10150, Note_on_c, 0, 71, 64
2, 10202, Note_on_c, 0, 71, 0
2, 10210, Note_on_c, 0, 64, 64
2, 10262, Note_on_c, 0, 64, 0
2, 10270, Note_on_c, 0, 67, 64
2, 10322, Note_on_c, 0, 67, 0
2, 10330, Note_on_c, 0, 66, 64
2, 10382, Note_on_c, 0, 66, 0
2, 10390, Note_on_c, 0, 62, 64
2, 10442, Note_on_c, 0, 62, 0
2, 10510, Note_on_c, 0, 69, 64
2, 10562, Note_on_c, 0, 69, 0
2, 10570, Note_on_c, 0, 74, 70
2, 10622, Note_on_c, 0, 74, 0
2, 10630, Note_on_c, 0, 78, 70
2, 10682, Note_on_c, 0, 78, 0
2, 10690, Note_on_c, 0, 71, 69
2, 10742, Note_on_c, 0, 71, 0
2, 10750, Note_on_c, 0, 74, 69
2, 10802, Note_on_c, 0, 74, 0
2, 10810, Note_on_c, 0, 73, 69
2, 10862, Note_on_c, 0, 73, 0
2, 10870, Note_on_c, 0, 69, 69
2, 10922, Note_on_c, 0, 69, 0
2, 10930, Note_on_c, 0, 74, 61
2, 11155, Note_on_c, 0, 74, 0
2, 11170, Note_on_c, 0, 73, 58
2, 11395, Note_on_c, 0, 73, 0
2, 11410, Note_on_c, 0, 71, 59
2, 11635, Note_on_c, 0, 71, 0
2, 11650, Note_on_c, 0, 70, 60
2, 11755, Note_on_c, 0, 70, 0
2, 11770, Note_on_c, 0, 71, 59
2, 11875, Note_on_c, 0, 71, 0
2, 11950, Note_on_c, 0, 74, 68
2, 12002, Note_on_c, 0, 74, 0
2, 12010, Note_on_c, 0, 76, 68
2, 12062, Note_on_c, 0, 76, 0
2, 12070, Note_on_c, 0, 79, 68
2, 12122, Note_on_c, 0, 79, 0
2, 12130, Note_on_c, 0, 73, 68
2, 12182, Note_on_c, 0, 73, 0
2, 12190, Note_on_c, 0, 76, 67
2, 12242, Note_on_c, 0, 76, 0
2, 12250, Note_on_c, 0, 74, 67
2, 12302, Note_on_c, 0, 74, 0
2, 12310, Note_on_c, 0, 71, 65
2, 12362, Note_on_c, 0, 71, 0
2, 12370, Note_on_c, 0, 78, 60
2, 12595, Note_on_c, 0, 78, 0
2, 12610, Note_on_c, 0, 77, 64
2, 12715, Note_on_c, 0, 77, 0
2, 12730, Note_on_c, 0, 78, 64
2, 12835, Note_on_c, 0, 78, 0
2, 12850, Note_on_c, 0, 78, 64
2, 12955, Note_on_c, 0, 78, 0
2, 12970, Note_on_c, 0, 76, 59
2, 13195, Note_on_c, 0, 76, 0
2, 13210, Note_on_c, 0, 74, 59
2, 13435, Note_on_c, 0, 74, 0
2, 13450, Note_on_c, 0, 73, 60
2, 13675, Note_on_c, 0, 73, 0
2, 13690, Note_on_c, 0, 71, 60
2, 13915, Note_on_c, 0, 71, 0
2, 13930, Note_on_c, 0, 69, 59
2, 14155, Note_on_c, 0, 69, 0
2, 14170, Note_on_c, 0, 67, 60
2, 14395, Note_on_c, 0, 67, 0
2, 14410, Note_on_c, 0, 66, 60
2, 14635, Note_on_c, 0, 66, 0
2, 14650, Note_on_c, 0, 64, 61
2, 14875, Note_on_c, 0, 64, 0
2, 14890, Note_on_c, 0, 62, 61
2, 14995, Note_on_c, 0, 62, 0
2, 15010, Note_on_c, 0, 78, 58
2, 15115, Note_on_c, 0, 78, 0
2, 15130, Note_on_c, 0, 76, 61
2, 15355, Note_on_c, 0, 76, 0
2, 15370, Note_on_c, 0, 74, 59
2, 15595, Note_on_c, 0, 74, 0
2, 15610, Note_on_c, 0, 73, 58
2, 15835, Note_on_c, 0, 73, 0
2, 15850, Note_on_c, 0, 71, 58
2, 15955, Note_on_c, 0, 71, 0
2, 15970, Note_on_c, 0, 81, 57
2, 16195, Note_on_c, 0, 81, 0
2, 16210, Note_on_c, 0, 80, 58
2, 16435, Note_on_c, 0, 80, 0
2, 16450, Note_on_c, 0, 78, 59
2, 16675, Note_on_c, 0, 78, 0
2, 16690, Note_on_c, 0, 77, 59
2, 16795, Note_on_c, 0, 77, 0
2, 16810, Note_on_c, 0, 78, 59
2, 16915, Note_on_c, 0, 78, 0
2, 16930, Note_on_c, 0, 74, 60
2, 17155, Note_on_c, 0, 74, 0
2, 17170, Note_on_c, 0, 73, 60
2, 17395, Note_on_c, 0, 73, 0
2, 17410, Note_on_c, 0, 71, 60
2, 17635, Note_on_c, 0, 71, 0
2, 17650, Note_on_c, 0, 70, 59
2, 17755, Note_on_c, 0, 70, 0
2, 17770, Note_on_c, 0, 71, 67
2, 17822, Note_on_c, 0, 71, 0
2, 17830, Note_on_c, 0, 74, 67
2, 17882, Note_on_c, 0, 74, 0
2, 17890, Note_on_c, 0, 70, 67
2, 17942, Note_on_c, 0, 70, 0
2, 17950, Note_on_c, 0, 73, 67
2, 18002, Note_on_c, 0, 73, 0
2, 18010, Note_on_c, 0, 71, 67
2, 18062, Note_on_c, 0, 71, 0
2, 18070, Note_on_c, 0, 74, 67
2, 18122, Note_on_c, 0, 74, 0
2, 18130, Note_on_c, 0, 70, 67
2, 18182, Note_on_c, 0, 70, 0
2, 18190, Note_on_c, 0, 73, 67
2, 18242, Note_on_c, 0, 73, 0
2, 18250, Note_on_c, 0, 71, 67
2, 18302, Note_on_c, 0, 71, 0
2, 18310, Note_on_c, 0, 74, 66
2, 18362, Note_on_c, 0, 74, 0
2, 18370, Note_on_c, 0, 70, 66
2, 18422, Note_on_c, 0, 70, 0
2, 18430, Note_on_c, 0, 73, 66
2, 18482, Note_on_c, 0, 73, 0
2, 18490, Note_on_c, 0, 71, 66
2, 18542, Note_on_c, 0, 71, 0
2, 18550, Note_on_c, 0, 74, 65
2, 18602, Note_on_c, 0, 74, 0
2, 18610, Note_on_c, 0, 70, 65
2, 18662, Note_on_c, 0, 70, 0
2, 18670, Note_on_c, 0, 73, 64
2, 18722, Note_on_c, 0, 73, 0
2, 18730, Note_on_c, 0, 71, 64
2, 18782, Note_on_c, 0, 71, 0
2, 18790, Note_on_c, 0, 74, 64
2, 18842, Note_on_c, 0, 74, 0
2, 18850, Note_on_c, 0, 70, 65
2, 18902, Note_on_c, 0, 70, 0
2, 18910, Note_on_c, 0, 73, 65
2, 18962, Note_on_c, 0, 73, 0
2, 18970, Note_on_c, 0, 71, 65
2, 19022, Note_on_c, 0, 71, 0
2, 19030, Note_on_c, 0, 74, 65
2, 19082, Note_on_c, 0, 74, 0
2, 19090, Note_on_c, 0, 70, 66
2, 19142, Note_on_c, 0, 70, 0
2, 19150, Note_on_c, 0, 73, 66
2, 19202, Note_on_c, 0, 73, 0
2, 19210, Note_on_c, 0, 71, 66
2, 19262, Note_on_c, 0, 71, 0
2, 19270, Note_on_c, 0, 69, 68
2, 19296, Note_on_c, 0, 69, 0
2, 19300, Note_on_c, 0, 71, 69
2, 19326, Note_on_c, 0, 71, 0
2, 19330, Note_on_c, 0, 73, 69
2, 19435, Note_on_c, 0, 73, 0
2, 19450, Note_on_c, 0, 73, 62
2, 19555, Note_on_c, 0, 73, 0
2, 19570, Note_on_c, 0, 73, 60
2, 19675, Note_on_c, 0, 73, 0
2, 19690, Note_on_c, 0, 73, 59
2, 19795, Note_on_c, 0, 73, 0
2, 19810, Note_on_c, 0, 73, 58
2, 19915, Note_on_c, 0, 73, 0
2, 19930, Note_on_c, 0, 73, 58
2, 20035, Note_on_c, 0, 73, 0
2, 20050, Note_on_c, 0, 73, 58
2, 20155, Note_on_c, 0, 73, 0
2, 20170, Note_on_c, 0, 73, 58
2, 20275, Note_on_c, 0, 73, 0
2, 20290, Note_on_c, 0, 73, 58
2, 20395, Note_on_c, 0, 73, 0
2, 20410, Note_on_c, 0, 73, 60
2, 20515, Note_on_c, 0, 73, 0
2, 20530, Note_on_c, 0, 73, 58
2, 20635, Note_on_c, 0, 73, 0
2, 20650, Note_on_c, 0, 73, 59
2, 20755, Note_on_c, 0, 73, 0
2, 20770, Note_on_c, 0, 73, 60
2, 20875, Note_on_c, 0, 73, 0
2, 20890, Note_on_c, 0, 73, 61
2, 20995, Note_on_c, 0, 73, 0
2, 21010, Note_on_c, 0, 74, 62
2, 21115, Note_on_c, 0, 74, 0
2, 21130, Note_on_c, 0, 68, 60
2, 21235, Note_on_c, 0, 68, 0
2, 21310, Note_on_c, 0, 73, 69
2, 21362, Note_on_c, 0, 73, 0
2, 21370, Note_on_c, 0, 74, 67
2, 21475, Note_on_c, 0, 74, 0
2, 21490, Note_on_c, 0, 73, 67
2, 21595, Note_on_c, 0, 73, 0
2, 21610, Note_on_c, 0, 74, 69
2, 21715, Note_on_c, 0, 74, 0
2, 21730, Note_on_c, 0, 73, 66
2, 21835, Note_on_c, 0, 73, 0
2, 21850, Note_on_c, 0, 74, 65
2, 21955, Note_on_c, 0, 74, 0
2, 21970, Note_on_c, 0, 73, 69
2, 22075, Note_on_c, 0, 73, 0
2, 22090, Note_on_c, 0, 71, 66
2, 22195, Note_on_c, 0, 71, 0
2, 22210, Note_on_c, 0, 69, 67
2, 22315, Note_on_c, 0, 69, 0
2, 22330, Note_on_c, 0, 68, 67
2, 22435, Note_on_c, 0, 68, 0
2, 22450, Note_on_c, 0, 68, 69
2, 22555, Note_on_c, 0, 68, 0
2, 22570, Note_on_c, 0, 66, 71
2, 22675, Note_on_c, 0, 66, 0
2, 22750, Note_on_c, 0, 69, 67
2, 22802, Note_on_c, 0, 69, 0
2, 22810, Note_on_c, 0, 68, 66
2, 22862, Note_on_c, 0, 68, 0
2, 22870, Note_on_c, 0, 71, 67
2, 22922, Note_on_c, 0, 71, 0
2, 22930, Note_on_c, 0, 68, 64
2, 22982, Note_on_c, 0, 68, 0
2, 22990, Note_on_c, 0, 71, 67
2, 23042, Note_on_c, 0, 71, 0
2, 23050, Note_on_c, 0, 69, 67
2, 23102, Note_on_c, 0, 69, 0
2, 23110, Note_on_c, 0, 73, 67
2, 23162, Note_on_c, 0, 73, 0
2, 23170, Note_on_c, 0, 66, 67
2, 23222, Note_on_c, 0, 66, 0
2, 23230, Note_on_c, 0, 69, 67
2, 23282, Note_on_c, 0, 69, 0
2, 23290, Note_on_c, 0, 67, 67
2, 23342, Note_on_c, 0, 67, 0
2, 23350, Note_on_c, 0, 71, 67
2, 23402, Note_on_c, 0, 71, 0
2, 23410, Note_on_c, 0, 64, 67
2, 23462, Note_on_c, 0, 64, 0
2, 23470, Note_on_c, 0, 67, 66
2, 23522, Note_on_c, 0, 67, 0
2, 23530, Note_on_c, 0, 66, 67
2, 23582, Note_on_c, 0, 66, 0
2, 23590, Note_on_c, 0, 62, 67
2, 23642, Note_on_c, 0, 62, 0
2, 23650, Note_on_c, 0, 69, 67
2, 23875, Note_on_c, 0, 69, 0
2, 23890, Note_on_c, 0, 67, 60
2, 24115, Note_on_c, 0, 67, 0
2, 24130, Note_on_c, 0, 66, 61
2, 24235, Note_on_c, 0, 66, 0
2, 24250, Note_on_c, 0, 64, 61
2, 24355, Note_on_c, 0, 64, 0
2, 24430, Note_on_c, 0, 69, 66
2, 24482, Note_on_c, 0, 69, 0
2, 24490, Note_on_c, 0, 66, 66
2, 24542, Note_on_c, 0, 66, 0
2, 24550, Note_on_c, 0, 69, 64
2, 24602, Note_on_c, 0, 69, 0
2, 24610, Note_on_c, 0, 64, 64
2, 24662, Note_on_c, 0, 64, 0
2, 24670, Note_on_c, 0, 69, 66
2, 24722, Note_on_c, 0, 69, 0
2, 24730, Note_on_c, 0, 66, 65
2, 24782, Note_on_c, 0, 66, 0
2, 24790, Note_on_c, 0, 69, 66
2, 24842, Note_on_c, 0, 69, 0
2, 24850, Note_on_c, 0, 64, 66
2, 24902, Note_on_c, 0, 64, 0
2, 24910, Note_on_c, 0, 69, 66
2, 24962, Note_on_c, 0, 69, 0
2, 24970, Note_on_c, 0, 66, 65
2, 25022, Note_on_c, 0, 66, 0
2, 25030, Note_on_c, 0, 69, 66
2, 25082, Note_on_c, 0, 69, 0
2, 25090, Note_on_c, 0, 64, 64
2, 25142, Note_on_c, 0, 64, 0
2, 25150, Note_on_c, 0, 69, 65
2, 25202, Note_on_c, 0, 69, 0
2, 25210, Note_on_c, 0, 66, 64
2, 25262, Note_on_c, 0, 66, 0
2, 25270, Note_on_c, 0, 69, 64
2, 25322, Note_on_c, 0, 69, 0
2, 25330, Note_on_c, 0, 64, 64
2, 25382, Note_on_c, 0, 64, 0
2, 25390, Note_on_c, 0, 69, 65
2, 25442, Note_on_c, 0, 69, 0
2, 25450, Note_on_c, 0, 66, 66
2, 25502, Note_on_c, 0, 66, 0
2, 25510, Note_on_c, 0, 74, 68
2, 25562, Note_on_c, 0, 74, 0
2, 25570, Note_on_c, 0, 69, 68
2, 25622, Note_on_c, 0, 69, 0
2, 25630, Note_on_c, 0, 74, 66
2, 25682, Note_on_c, 0, 74, 0
2, 25690, Note_on_c, 0, 71, 66
2, 25742, Note_on_c, 0, 71, 0
2, 25750, Note_on_c, 0, 74, 67
2, 25802, Note_on_c, 0, 74, 0
2, 25810, Note_on_c, 0, 69, 68
2, 25862, Note_on_c, 0, 69, 0
2, 25870, Note_on_c, 0, 74, 67
2, 25922, Note_on_c, 0, 74, 0
2, 25930, Note_on_c, 0, 71, 67
2, 25982, Note_on_c, 0, 71, 0
2, 25990, Note_on_c, 0, 74, 67
2, 26042, Note_on_c, 0, 74, 0
2, 26050, Note_on_c, 0, 69, 67
2, 26102, Note_on_c, 0, 69, 0
2, 26110, Note_on_c, 0, 74, 67
2, 26162, Note_on_c, 0, 74, 0
2, 26170, Note_on_c, 0, 71, 67
2, 26222, Note_on_c, 0, 71, 0
2, 26230, Note_on_c, 0, 74, 68
2, 26282, Note_on_c, 0, 74, 0
2, 26290, Note_on_c, 0, 69, 68
2, 26342, Note_on_c, 0, 69, 0
2, 26350, Note_on_c, 0, 74, 68
2, 26402, Note_on_c, 0, 74, 0
2, 26410, Note_on_c, 0, 71, 69
2, 26462, Note_on_c, 0, 71, 0
2, 26470, Note_on_c, 0, 76, 70
2, 26522, Note_on_c, 0, 76, 0
2, 26530, Note_on_c, 0, 71, 70
2, 26582, Note_on_c, 0, 71, 0
2, 26590, Note_on_c, 0, 76, 70
2, 26642, Note_on_c, 0, 76, 0
2, 26650, Note_on_c, 0, 73, 69
2, 26702, Note_on_c, 0, 73, 0
2, 26710, Note_on_c, 0, 76, 69
2, 26762, Note_on_c, 0, 76, 0
2, 26770, Note_on_c, 0, 71, 69
2, 26822, Note_on_c, 0, 71, 0
2, 26830, Note_on_c, 0, 76, 69
2, 26882, Note_on_c, 0, 76, 0
2, 26890, Note_on_c, 0, 73, 68
2, 26942, Note_on_c, 0, 73, 0
2, 26950, Note_on_c, 0, 76, 69
2, 27002, Note_on_c, 0, 76, 0
2, 27010, Note_on_c, 0, 71, 69
2, 27062, Note_on_c, 0, 71, 0
2, 27070, Note_on_c, 0, 76, 70
2, 27122, Note_on_c, 0, 76, 0
2, 27130, Note_on_c, 0, 73, 71
2, 27182, Note_on_c, 0, 73, 0
2, 27190, Note_on_c, 0, 76, 72
2, 27242, Note_on_c, 0, 76, 0
2, 27250, Note_on_c, 0, 71, 72
2, 27302, Note_on_c, 0, 71, 0
2, 27310, Note_on_c, 0, 76, 71
2, 27362, Note_on_c, 0, 76, 0
2, 27370, Note_on_c, 0, 73, 71
2, 27422, Note_on_c, 0, 73, 0
2, 27430, Note_on_c, 0, 81, 72
2, 27482, Note_on_c, 0, 81, 0
2, 27490, Note_on_c, 0, 76, 77
2, 27542, Note_on_c, 0, 76, 0
2, 27550, Note_on_c, 0, 81, 77
2, 27602, Note_on_c, 0, 81, 0
2, 27610, Note_on_c, 0, 78, 77
2, 27662, Note_on_c, 0, 78, 0
2, 27670, Note_on_c, 0, 81, 77
2, 27722, Note_on_c, 0, 81, 0
2, 27730, Note_on_c, 0, 76, 76
2, 27782, Note_on_c, 0, 76, 0
2, 27790, Note_on_c, 0, 81, 78
2, 27842, Note_on_c, 0, 81, 0
2, 27850, Note_on_c, 0, 78, 77
2, 27902, Note_on_c, 0, 78, 0
2, 27910, Note_on_c, 0, 81, 77
2, 27962, Note_on_c, 0, 81, 0
2, 27970, Note_on_c, 0, 76, 78
2, 28022, Note_on_c, 0, 76, 0
2, 28030, Note_on_c, 0, 81, 77
2, 28082, Note_on_c, 0, 81, 0
2, 28090, Note_on_c, 0, 78, 77
2, 28142, Note_on_c, 0, 78, 0
2, 28150, Note_on_c, 0, 81, 77
2, 28202, Note_on_c, 0, 81, 0
2, 28210, Note_on_c, 0, 76, 77
2, 28262, Note_on_c, 0, 76, 0
2, 28270, Note_on_c, 0, 81, 76
2, 28322, Note_on_c, 0, 81, 0
2, 28330, Note_on_c, 0, 78, 78
2, 28382, Note_on_c, 0, 78, 0
2, 28390, Note_on_c, 0, 74, 80
2, 28442, Note_on_c, 0, 74, 0
2, 28450, Note_on_c, 0, 78, 78
2, 28555, Note_on_c, 0, 78, 0
2, 28570, Note_on_c, 0, 76, 64
2, 28795, Note_on_c, 0, 76, 0
2, 28810, Note_on_c, 0, 74, 61
2, 29035, Note_on_c, 0, 74, 0
2, 29050, Note_on_c, 0, 73, 61
2, 29275, Note_on_c, 0, 73, 0
2, 29290, Note_on_c, 0, 71, 62
2, 29515, Note_on_c, 0, 71, 0
2, 29530, Note_on_c, 0, 69, 61
2, 29635, Note_on_c, 0, 69, 0
2, 29890, Note_on_c, 0, 69, 61
2, 29995, Note_on_c, 0, 69, 0
2, 30010, Note_on_c, 0, 69, 60
2, 30115, Note_on_c, 0, 69, 0
2, 30370, Note_on_c, 0, 69, 61
2, 30475, Note_on_c, 0, 69, 0
2, 30490, Note_on_c, 0, 69, 65
2, 30595, Note_on_c, 0, 69, 0
2, 30610, Note_on_c, 0, 69, 67
2, 30835, Note_on_c, 0, 69, 0
2, 30850, Note_on_c, 0, 68, 69
2, 30955, Note_on_c, 0, 68, 0
2, 30970, Note_on_c, 0, 69, 69
2, 31075, Note_on_c, 0, 69, 0
2, 33010, Note_on_c, 0, 74, 64
2, 33235, Note_on_c, 0, 74, 0
2, 33250, Note_on_c, 0, 72, 63
2, 33475, Note_on_c, 0, 72, 0
2, 33490, Note_on_c, 0, 71, 61
2, 33595, Note_on_c, 0, 71, 0
2, 33610, Note_on_c, 0, 69, 61
2, 33835, Note_on_c, 0, 69, 0
2, 33850, Note_on_c, 0, 67, 64
2, 33902, Note_on_c, 0, 67, 0
2, 33910, Note_on_c, 0, 62, 69
2, 33962, Note_on_c, 0, 62, 0
2, 33970, Note_on_c, 0, 67, 64
2, 34862, Note_on_c, 0, 67, 0
2, 34870, Note_on_c, 0, 64, 74
2, 34922, Note_on_c, 0, 64, 0
2, 34930, Note_on_c, 0, 69, 64
2, 35822, Note_on_c, 0, 69, 0
2, 35830, Note_on_c, 0, 69, 73
2, 35882, Note_on_c, 0, 69, 0
2, 35890, Note_on_c, 0, 74, 64
2, 36782, Note_on_c, 0, 74, 0
2, 36790, Note_on_c, 0, 74, 72
2, 36842, Note_on_c, 0, 74, 0
2, 36850, Note_on_c, 0, 79, 74
2, 37622, Note_on_c, 0, 79, 0
2, 37630, Note_on_c, 0, 77, 73
2, 37682, Note_on_c, 0, 77, 0
2, 37690, Note_on_c, 0, 76, 73
2, 37742, Note_on_c, 0, 76, 0
2, 37750, Note_on_c, 0, 79, 76
2, 37802, Note_on_c, 0, 79, 0
2, 37810, Note_on_c, 0, 72, 74
2, 37862, Note_on_c, 0, 72, 0
2, 37870, Note_on_c, 0, 76, 76
2, 37922, Note_on_c, 0, 76, 0
2, 37930, Note_on_c, 0, 77, 75
2, 37982, Note_on_c, 0, 77, 0
2, 37990, Note_on_c, 0, 79, 76
2, 38042, Note_on_c, 0, 79, 0
2, 38050, Note_on_c, 0, 76, 76
2, 38102, Note_on_c, 0, 76, 0
2, 38110, Note_on_c, 0, 77, 74
2, 38162, Note_on_c, 0, 77, 0
2, 38170, Note_on_c, 0, 75, 75
2, 38222, Note_on_c, 0, 75, 0
2, 38230, Note_on_c, 0, 78, 75
2, 38282, Note_on_c, 0, 78, 0
2, 38290, Note_on_c, 0, 71, 74
2, 38395, Note_on_c, 0, 71, 0
2, 38410, Note_on_c, 0, 72, 69
2, 38462, Note_on_c, 0, 72, 0
2, 38470, Note_on_c, 0, 74, 69
2, 38522, Note_on_c, 0, 74, 0
2, 38530, Note_on_c, 0, 71, 69
2, 38582, Note_on_c, 0, 71, 0
2, 38590, Note_on_c, 0, 74, 69
2, 38642, Note_on_c, 0, 74, 0
2, 38650, Note_on_c, 0, 72, 69
2, 38702, Note_on_c, 0, 72, 0
2, 38710, Note_on_c, 0, 74, 69
2, 38762, Note_on_c, 0, 74, 0
2, 38770, Note_on_c, 0, 71, 69
2, 38875, Note_on_c, 0, 71, 0
2, 38890, Note_on_c, 0, 69, 64
2, 38995, Note_on_c, 0, 69, 0
2, 39010, Note_on_c, 0, 67, 64
2, 39115, Note_on_c, 0, 67, 0
2, 39130, Note_on_c, 0, 66, 64
2, 39235, Note_on_c, 0, 66, 0
2, 39250, Note_on_c, 0, 67, 64
2, 39355, Note_on_c, 0, 67, 0
2, 39370, Note_on_c, 0, 66, 64
2, 39595, Note_on_c, 0, 66, 0
2, 39610, Note_on_c, 0, 64, 64
2, 39715, Note_on_c, 0, 64, 0
2, 39790, Note_on_c, 0, 76, 64
2, 39842, Note_on_c, 0, 76, 0
2, 39850, Note_on_c, 0, 73, 64
2, 39902, Note_on_c, 0, 73, 0
2, 39910, Note_on_c, 0, 74, 64
2, 39962, Note_on_c, 0, 74, 0
2, 39970, Note_on_c, 0, 71, 64
2, 40022, Note_on_c, 0, 71, 0
2, 40030, Note_on_c, 0, 74, 64
2, 40082, Note_on_c, 0, 74, 0
2, 40090, Note_on_c, 0, 73, 64
2, 40142, Note_on_c, 0, 73, 0
2, 40150, Note_on_c, 0, 74, 64
2, 40202, Note_on_c, 0, 74, 0
2, 40210, Note_on_c, 0, 71, 64
2, 40262, Note_on_c, 0, 71, 0
2, 40270, Note_on_c, 0, 74, 64
2, 40322, Note_on_c, 0, 74, 0
2, 40330, Note_on_c, 0, 73, 64
2, 40382, Note_on_c, 0, 73, 0
2, 40390, Note_on_c, 0, 74, 64
2, 40442, Note_on_c, 0, 74, 0
2, 40450, Note_on_c, 0, 71, 64
2, 40502, Note_on_c, 0, 71, 0
2, 40510, Note_on_c, 0, 74, 64
2, 40562, Note_on_c, 0, 74, 0
2, 40570, Note_on_c, 0, 73, 64
2, 40622, Note_on_c, 0, 73, 0
2, 40630, Note_on_c, 0, 69, 64
2, 40682, Note_on_c, 0, 69, 0
2, 40690, Note_on_c, 0, 74, 64
2, 40742, Note_on_c, 0, 74, 0
2, 40750, Note_on_c, 0, 69, 64
2, 40802, Note_on_c, 0, 69, 0
2, 40810, Note_on_c, 0, 71, 64
2, 40862, Note_on_c, 0, 71, 0
2, 40870, Note_on_c, 0, 74, 64
2, 40922, Note_on_c, 0, 74, 0
2, 40930, Note_on_c, 0, 67, 64
2, 40982, Note_on_c, 0, 67, 0
2, 40990, Note_on_c, 0, 71, 64
2, 41042, Note_on_c, 0, 71, 0
2, 41050, Note_on_c, 0, 69, 64
2, 41102, Note_on_c, 0, 69, 0
2, 41110, Note_on_c, 0, 73, 64
2, 41162, Note_on_c, 0, 73, 0
2, 41170, Note_on_c, 0, 66, 64
2, 41222, Note_on_c, 0, 66, 0
2, 41230, Note_on_c, 0, 69, 64
2, 41282, Note_on_c, 0, 69, 0
2, 41290, Note_on_c, 0, 67, 64
2, 41342, Note_on_c, 0, 67, 0
2, 41350, Note_on_c, 0, 71, 64
2, 41402, Note_on_c, 0, 71, 0
2, 41410, Note_on_c, 0, 64, 64
2, 41462, Note_on_c, 0, 64, 0
2, 41470, Note_on_c, 0, 67, 64
2, 41522, Note_on_c, 0, 67, 0
2, 41530, Note_on_c, 0, 66, 64
2, 41582, Note_on_c, 0, 66, 0
2, 41590, Note_on_c, 0, 69, 64
2, 41642, Note_on_c, 0, 69, 0
2, 41650, Note_on_c, 0, 62, 64
2, 41702, Note_on_c, 0, 62, 0
2, 41710, Note_on_c, 0, 78, 64
2, 41762, Note_on_c, 0, 78, 0
2, 41770, Note_on_c, 0, 76, 64
2, 41822, Note_on_c, 0, 76, 0
2, 41830, Note_on_c, 0, 79, 64
2, 41882, Note_on_c, 0, 79, 0
2, 41890, Note_on_c, 0, 78, 64
2, 41942, Note_on_c, 0, 78, 0
2, 41950, Note_on_c, 0, 81, 64
2, 42002, Note_on_c, 0, 81, 0
2, 42010, Note_on_c, 0, 79, 64
2, 42062, Note_on_c, 0, 79, 0
2, 42070, Note_on_c, 0, 81, 64
2, 42122, Note_on_c, 0, 81, 0
2, 42130, Note_on_c, 0, 78, 64
2, 42182, Note_on_c, 0, 78, 0
2, 42190, Note_on_c, 0, 76, 64
2, 42242, Note_on_c, 0, 76, 0
2, 42250, Note_on_c, 0, 78, 64
2, 42355, Note_on_c, 0, 78, 0
2, 42370, Note_on_c, 0, 76, 64
2, 42422, Note_on_c, 0, 76, 0
2, 42430, Note_on_c, 0, 74, 64
2, 42482, Note_on_c, 0, 74, 0
2, 42490, Note_on_c, 0, 74, 64
2, 42542, Note_on_c, 0, 74, 0
2, 42550, Note_on_c, 0, 69, 64
2, 42602, Note_on_c, 0, 69, 0
2, 42610, Note_on_c, 0, 78, 64
2, 42715, Note_on_c, 0, 78, 0
2, 42730, Note_on_c, 0, 76, 64
2, 42955, Note_on_c, 0, 76, 0
2, 42970, Note_on_c, 0, 74, 64
2, 43195, Note_on_c, 0, 74, 0
2, 43210, Note_on_c, 0, 73, 64
2, 43435, Note_on_c, 0, 73, 0
2, 43450, Note_on_c, 0, 71, 64
2, 43675, Note_on_c, 0, 71, 0
2, 43690, Note_on_c, 0, 69, 64
2, 43915, Note_on_c, 0, 69, 0
2, 43930, Note_on_c, 0, 67, 64
2, 44275, Note_on_c, 0, 67, 0
2, 44290, Note_on_c, 0, 66, 64
2, 44395, Note_on_c, 0, 66, 0
2, 44410, Note_on_c, 0, 64, 64
2, 44635, Note_on_c, 0, 64, 0
2, 44710, Note_on_c, 0, 62, 64
2, 44815, Note_on_c, 0, 62, 0
2, 44830, Note_on_c, 0, 62, 64
2, 44882, Note_on_c, 0, 62, 0
2, 44950, Note_on_c, 0, 62, 64
2, 45055, Note_on_c, 0, 62, 0
2, 45070, Note_on_c, 0, 61, 64
2, 45122, Note_on_c, 0, 61, 0
2, 45130, Note_on_c, 0, 62, 64
2, 45182, Note_on_c, 0, 62, 0
2, 45190, Note_on_c, 0, 74, 64
2, 45295, Note_on_c, 0, 74, 0
2, 45310, Note_on_c, 0, 74, 64
2, 45362, Note_on_c, 0, 74, 0
2, 45430, Note_on_c, 0, 74, 64
2, 45535, Note_on_c, 0, 74, 0
2, 45550, Note_on_c, 0, 73, 64
2, 45602, Note_on_c, 0, 73, 0
2, 45670, Note_on_c, 0, 74, 64
2, 45775, Note_on_c, 0, 74, 0
2, 45790, Note_on_c, 0, 74, 64
2, 45842, Note_on_c, 0, 74, 0
2, 45910, Note_on_c, 0, 74, 64
2, 46015, Note_on_c, 0, 74, 0
2, 46030, Note_on_c, 0, 73, 64
2, 46082, Note_on_c, 0, 73, 0
2, 46090, Note_on_c, 0, 72, 64
2, 46195, Note_on_c, 0, 72, 0
2, 58080, Program_c, 0, 19
2, 58080, Control_c, 0, 0, 0
2, 58080, Control_c, 0, 11, 120
2, 58080, Control_c, 0, 64, 0
2, 58080, Control_c, 0, 91, 70
2, 58080, Control_c, 0, 93, 40
2, 58080, Control_c, 0, 7, 100
2, 58081, Control_c, 0, 10, 40
2, 58200, Note_on_c, 0, 74, 74
2, 58226, Note_on_c, 0, 74, 0
2, 58230, Note_on_c, 0, 76, 74
2, 58256, Note_on_c, 0, 76, 0
2, 58260, Note_on_c, 0, 78, 74
2, 58286, Note_on_c, 0, 78, 0
2, 58290, Note_on_c, 0, 76, 74
2, 58316, Note_on_c, 0, 76, 0
2, 58320, Note_on_c, 0, 74, 74
2, 58346, Note_on_c, 0, 74, 0
2, 58350, Note_on_c, 0, 76, 74
2, 58376, Note_on_c, 0, 76, 0
2, 58380, Note_on_c, 0, 78, 74
2, 58406, Note_on_c, 0, 78, 0
2, 58410, Note_on_c, 0, 76, 74
2, 58436, Note_on_c, 0, 76, 0
2, 58440, Note_on_c, 0, 74, 74
2, 58466, Note_on_c, 0, 74, 0
2, 58470, Note_on_c, 0, 76, 73
2, 58496, Note_on_c, 0, 76, 0
2, 58500, Note_on_c, 0, 78, 72
2, 58526, Note_on_c, 0, 78, 0
2, 58530, Note_on_c, 0, 76, 73
2, 58556, Note_on_c, 0, 76, 0
2, 58560, Note_on_c, 0, 74, 73
2, 58586, Note_on_c, 0, 74, 0
2, 58590, Note_on_c, 0, 76, 72
2, 58616, Note_on_c, 0, 76, 0
2, 58620, Note_on_c, 0, 78, 74
2, 58646, Note_on_c, 0, 78, 0
2, 58650, Note_on_c, 0, 76, 74
2, 58676, Note_on_c, 0, 76, 0
2, 58680, Note_on_c, 0, 74, 74
2, 58732, Note_on_c, 0, 74, 0
2, 59040, Note_on_c, 0, 83, 75
2, 59066, Note_on_c, 0, 83, 0
2, 59070, Note_on_c, 0, 81, 74
2, 59096, Note_on_c, 0, 81, 0
2, 59100, Note_on_c, 0, 83, 74
2, 59126, Note_on_c, 0, 83, 0
2, 59130, Note_on_c, 0, 78, 75
2, 59156, Note_on_c, 0, 78, 0
2, 59160, Note_on_c, 0, 79, 75
2, 59186, Note_on_c, 0, 79, 0
2, 59190, Note_on_c, 0, 78, 74
2, 59216, Note_on_c, 0, 78, 0
2, 59220, Note_on_c, 0, 79, 74
2, 59246, Note_on_c, 0, 79, 0
2, 59250, Note_on_c, 0, 76, 74
2, 59276, Note_on_c, 0, 76, 0
2, 59280, Note_on_c, 0, 81, 74
2, 59306, Note_on_c, 0, 81, 0
2, 59310, Note_on_c, 0, 79, 74
2, 59336, Note_on_c, 0, 79, 0
2, 59340, Note_on_c, 0, 81, 74
2, 59366, Note_on_c, 0, 81, 0
2, 59370, Note_on_c, 0, 76, 74
2, 59396, Note_on_c, 0, 76, 0
2, 59400, Note_on_c, 0, 78, 74
2, 59426, Note_on_c, 0, 78, 0
2, 59430, Note_on_c, 0, 76, 74
2, 59456, Note_on_c, 0, 76, 0
2, 59460, Note_on_c, 0, 78, 74
2, 59486, Note_on_c, 0, 78, 0
2, 59490, Note_on_c, 0, 74, 74
2, 59516, Note_on_c, 0, 74, 0
2, 59520, Note_on_c, 0, 79, 74
2, 59546, Note_on_c, 0, 79, 0
2, 59550, Note_on_c, 0, 78, 74
2, 59576, Note_on_c, 0, 78, 0
2, 59580, Note_on_c, 0, 79, 74
2, 59606, Note_on_c, 0, 79, 0
2, 59610, Note_on_c, 0, 74, 74
2, 59636, Note_on_c, 0, 74, 0
2, 59640, Note_on_c, 0, 76, 73
2, 59666, Note_on_c, 0, 76, 0
2, 59670, Note_on_c, 0, 74, 74
2, 59696, Note_on_c, 0, 74, 0
2, 59700, Note_on_c, 0, 76, 72
2, 59726, Note_on_c, 0, 76, 0
2, 59730, Note_on_c, 0, 73, 73
2, 59756, Note_on_c, 0, 73, 0
2, 59760, Note_on_c, 0, 78, 73
2, 59786, Note_on_c, 0, 78, 0
2, 59790, Note_on_c, 0, 76, 68
2, 59816, Note_on_c, 0, 76, 0
2, 59820, Note_on_c, 0, 78, 67
2, 59846, Note_on_c, 0, 78, 0
2, 59850, Note_on_c, 0, 73, 70
2, 59876, Note_on_c, 0, 73, 0
2, 59880, Note_on_c, 0, 74, 73
2, 59906, Note_on_c, 0, 74, 0
2, 59910, Note_on_c, 0, 73, 71
2, 59936, Note_on_c, 0, 73, 0
2, 59940, Note_on_c, 0, 74, 74
2, 59966, Note_on_c, 0, 74, 0
2, 59970, Note_on_c, 0, 71, 74
2, 59996, Note_on_c, 0, 71, 0
2, 60000, Note_on_c, 0, 76, 72
2, 60026, Note_on_c, 0, 76, 0
2, 60030, Note_on_c, 0, 74, 73
2, 60056, Note_on_c, 0, 74, 0
2, 60060, Note_on_c, 0, 76, 73
2, 60086, Note_on_c, 0, 76, 0
2, 60090, Note_on_c, 0, 71, 75
2, 60116, Note_on_c, 0, 71, 0
2, 60120, Note_on_c, 0, 73, 75
2, 60146, Note_on_c, 0, 73, 0
2, 60150, Note_on_c, 0, 71, 75
2, 60176, Note_on_c, 0, 71, 0
2, 60180, Note_on_c, 0, 73, 76
2, 60206, Note_on_c, 0, 73, 0
2, 60210, Note_on_c, 0, 69, 77
2, 60236, Note_on_c, 0, 69, 0
2, 60240, Note_on_c, 0, 74, 67
2, 60386, Note_on_c, 0, 74, 0
2, 60390, Note_on_c, 0, 76, 78
2, 60416, Note_on_c, 0, 76, 0
2, 60420, Note_on_c, 0, 74, 75
2, 60446, Note_on_c, 0, 74, 0
2, 60450, Note_on_c, 0, 76, 76
2, 60476, Note_on_c, 0, 76, 0
2, 60480, Note_on_c, 0, 73, 76
2, 60493, Note_on_c, 0, 73, 0
2, 60495, Note_on_c, 0, 71, 77
2, 60508, Note_on_c, 0, 71, 0
2, 60510, Note_on_c, 0, 73, 76
2, 60561, Note_on_c, 0, 73, 0
2, 60570, Note_on_c, 0, 74, 64
2, 60596, Note_on_c, 0, 74, 0
2, 60600, Note_on_c, 0, 74, 64
2, 60626, Note_on_c, 0, 74, 0
2, 60630, Note_on_c, 0, 78, 64
2, 60656, Note_on_c, 0, 78, 0
2, 60660, Note_on_c, 0, 74, 64
2, 60686, Note_on_c, 0, 74, 0
2, 60690, Note_on_c, 0, 69, 64
2, 60716, Note_on_c, 0, 69, 0
2, 60840, Note_on_c, 0, 80, 77
2, 60866, Note_on_c, 0, 80, 0
2, 60870, Note_on_c, 0, 83, 74
2, 60896, Note_on_c, 0, 83, 0
2, 60900, Note_on_c, 0, 80, 71
2, 60926, Note_on_c, 0, 80, 0
2, 60930, Note_on_c, 0, 76, 70
2, 60956, Note_on_c, 0, 76, 0
2, 60960, Note_on_c, 0, 81, 64
2, 61185, Note_on_c, 0, 81, 0
2, 61260, Note_on_c, 0, 80, 64
2, 61312, Note_on_c, 0, 80, 0
2, 61320, Note_on_c, 0, 81, 64
2, 61425, Note_on_c, 0, 81, 0
2, 61860, Note_on_c, 0, 69, 87
2, 61886, Note_on_c, 0, 69, 0
2, 61890, Note_on_c, 0, 68, 85
2, 61916, Note_on_c, 0, 68, 0
2, 61920, Note_on_c, 0, 69, 83
2, 61946, Note_on_c, 0, 69, 0
2, 61950, Note_on_c, 0, 68, 83
2, 61976, Note_on_c, 0, 68, 0
2, 61980, Note_on_c, 0, 69, 83
2, 62006, Note_on_c, 0, 69, 0
2, 62010, Note_on_c, 0, 68, 82
2, 62036, Note_on_c, 0, 68, 0
2, 62040, Note_on_c, 0, 69, 81
2, 62092, Note_on_c, 0, 69, 0
2, 62100, Note_on_c, 0, 57, 77
2, 62152, Note_on_c, 0, 57, 0
2, 62220, Note_on_c, 0, 81, 81
2, 62272, Note_on_c, 0, 81, 0
2, 62280, Note_on_c, 0, 81, 71
2, 62385, Note_on_c, 0, 81, 0
2, 62460, Note_on_c, 0, 80, 81
2, 62512, Note_on_c, 0, 80, 0
2, 62520, Note_on_c, 0, 80, 70
2, 62625, Note_on_c, 0, 80, 0
2, 62700, Note_on_c, 0, 78, 79
2, 62752, Note_on_c, 0, 78, 0
2, 62760, Note_on_c, 0, 78, 67
2, 62865, Note_on_c, 0, 78, 0
2, 62940, Note_on_c, 0, 76, 79
2, 62992, Note_on_c, 0, 76, 0
2, 63000, Note_on_c, 0, 76, 68
2, 63105, Note_on_c, 0, 76, 0
2, 63180, Note_on_c, 0, 74, 79
2, 63232, Note_on_c, 0, 74, 0
2, 63240, Note_on_c, 0, 74, 68
2, 63345, Note_on_c, 0, 74, 0
2, 63360, Note_on_c, 0, 73, 71
2, 63465, Note_on_c, 0, 73, 0
2, 63480, Note_on_c, 0, 71, 72
2, 63585, Note_on_c, 0, 71, 0
2, 63600, Note_on_c, 0, 71, 72
2, 63746, Note_on_c, 0, 71, 0
2, 63750, Note_on_c, 0, 64, 85
2, 63776, Note_on_c, 0, 64, 0
2, 63780, Note_on_c, 0, 68, 85
2, 63806, Note_on_c, 0, 68, 0
2, 63810, Note_on_c, 0, 64, 85
2, 63836, Note_on_c, 0, 64, 0
2, 63840, Note_on_c, 0, 69, 64
2, 63986, Note_on_c, 0, 69, 0
2, 63990, Note_on_c, 0, 71, 80
2, 64016, Note_on_c, 0, 71, 0
2, 64020, Note_on_c, 0, 69, 81
2, 64046, Note_on_c, 0, 69, 0
2, 64050, Note_on_c, 0, 71, 80
2, 64076, Note_on_c, 0, 71, 0
2, 64080, Note_on_c, 0, 68, 81
2, 64106, Note_on_c, 0, 68, 0
2, 64110, Note_on_c, 0, 69, 80
2, 64136, Note_on_c, 0, 69, 0
2, 64140, Note_on_c, 0, 66, 64
2, 64166, Note_on_c, 0, 66, 0
2, 64170, Note_on_c, 0, 68, 64
2, 64196, Note_on_c, 0, 68, 0
2, 64200, Note_on_c, 0, 69, 64
2, 64226, Note_on_c, 0, 69, 0
2, 64230, Note_on_c, 0, 71, 73
2, 64256, Note_on_c, 0, 71, 0
2, 64260, Note_on_c, 0, 73, 73
2, 64286, Note_on_c, 0, 73, 0
2, 64290, Note_on_c, 0, 71, 73
2, 64316, Note_on_c, 0, 71, 0
2, 64320, Note_on_c, 0, 69, 73
2, 64346, Note_on_c, 0, 69, 0
2, 64350, Note_on_c, 0, 71, 73
2, 64376, Note_on_c, 0, 71, 0
2, 64380, Note_on_c, 0, 73, 73
2, 64406, Note_on_c, 0, 73, 0
2, 64410, Note_on_c, 0, 71, 73
2, 64436, Note_on_c, 0, 71, 0
2, 64440, Note_on_c, 0, 69, 73
2, 64466, Note_on_c, 0, 69, 0
2, 64470, Note_on_c, 0, 71, 72
2, 64496, Note_on_c, 0, 71, 0
2, 64500, Note_on_c, 0, 73, 72
2, 64526, Note_on_c, 0, 73, 0
2, 64530, Note_on_c, 0, 71, 72
2, 64556, Note_on_c, 0, 71, 0
2, 64560, Note_on_c, 0, 69, 72
2, 64586, Note_on_c, 0, 69, 0
2, 64590, Note_on_c, 0, 71, 72
2, 64616, Note_on_c, 0, 71, 0
2, 64620, Note_on_c, 0, 73, 72
2, 64646, Note_on_c, 0, 73, 0
2, 64650, Note_on_c, 0, 71, 72
2, 64676, Note_on_c, 0, 71, 0
2, 64680, Note_on_c, 0, 69, 72
2, 64706, Note_on_c, 0, 69, 0
2, 64710, Note_on_c, 0, 73, 72
2, 64736, Note_on_c, 0, 73, 0
2, 64740, Note_on_c, 0, 69, 72
2, 64766, Note_on_c, 0, 69, 0
2, 64770, Note_on_c, 0, 64, 72
2, 64796, Note_on_c, 0, 64, 0
2, 64950, Note_on_c, 0, 69, 78
2, 64976, Note_on_c, 0, 69, 0
2, 64980, Note_on_c, 0, 74, 79
2, 65006, Note_on_c, 0, 74, 0
2, 65010, Note_on_c, 0, 69, 79
2, 65036, Note_on_c, 0, 69, 0
2, 65040, Note_on_c, 0, 71, 79
2, 65066, Note_on_c, 0, 71, 0
2, 65070, Note_on_c, 0, 74, 79
2, 65096, Note_on_c, 0, 74, 0
2, 65100, Note_on_c, 0, 79, 79
2, 65126, Note_on_c, 0, 79, 0
2, 65130, Note_on_c, 0, 71, 79
2, 65156, Note_on_c, 0, 71, 0
2, 65160, Note_on_c, 0, 73, 79
2, 65186, Note_on_c, 0, 73, 0
2, 65190, Note_on_c, 0, 76, 79
2, 65216, Note_on_c, 0, 76, 0
2, 65220, Note_on_c, 0, 81, 79
2, 65246, Note_on_c, 0, 81, 0
2, 65250, Note_on_c, 0, 73, 78
2, 65276, Note_on_c, 0, 73, 0
2, 65280, Note_on_c, 0, 74, 77
2, 65306, Note_on_c, 0, 74, 0
2, 65310, Note_on_c, 0, 78, 77
2, 65336, Note_on_c, 0, 78, 0
2, 65340, Note_on_c, 0, 83, 77
2, 65366, Note_on_c, 0, 83, 0
2, 65370, Note_on_c, 0, 74, 77
2, 65396, Note_on_c, 0, 74, 0
2, 65400, Note_on_c, 0, 76, 77
2, 65426, Note_on_c, 0, 76, 0
2, 65430, Note_on_c, 0, 81, 84
2, 65456, Note_on_c, 0, 81, 0
2, 65460, Note_on_c, 0, 79, 84
2, 65486, Note_on_c, 0, 79, 0
2, 65490, Note_on_c, 0, 81, 84
2, 65516, Note_on_c, 0, 81, 0
2, 65520, Note_on_c, 0, 78, 84
2, 65546, Note_on_c, 0, 78, 0
2, 65550, Note_on_c, 0, 76, 84
2, 65576, Note_on_c, 0, 76, 0
2, 65580, Note_on_c, 0, 78, 83
2, 65606, Note_on_c, 0, 78, 0
2, 65610, Note_on_c, 0, 74, 82
2, 65636, Note_on_c, 0, 74, 0
2, 65640, Note_on_c, 0, 79, 81
2, 65666, Note_on_c, 0, 79, 0
2, 65670, Note_on_c, 0, 78, 80
2, 65696, Note_on_c, 0, 78, 0
2, 65700, Note_on_c, 0, 79, 80
2, 65726, Note_on_c, 0, 79, 0
2, 65730, Note_on_c, 0, 81, 80
2, 65756, Note_on_c, 0, 81, 0
2, 65760, Note_on_c, 0, 76, 77
2, 65773, Note_on_c, 0, 76, 0
2, 65775, Note_on_c, 0, 74, 77
2, 65788, Note_on_c, 0, 74, 0
2, 65790, Note_on_c, 0, 76, 77
2, 65841, Note_on_c, 0, 76, 0
2, 65850, Note_on_c, 0, 74, 78
2, 65876, Note_on_c, 0, 74, 0
2, 65880, Note_on_c, 0, 74, 60
2, 65985, Note_on_c, 0, 74, 0
2, 66057, Program_c, 0, 19
2, 66057, Control_c, 0, 0, 0
2, 66057, Control_c, 0, 11, 110
2, 66057, Control_c, 0, 64, 0
2, 66057, Control_c, 0, 91, 100
2, 66057, Control_c, 0, 93, 40
2, 66057, Control_c, 0, 7, 90
2, 66058, Control_c, 0, 10, 40
2, 66060, Note_on_c, 0, 76, 86
2, 66112, Note_on_c, 0, 76, 0
2, 66120, Note_on_c, 0, 78, 85
2, 66172, Note_on_c, 0, 78, 0
2, 66180, Note_on_c, 0, 79, 85
2, 66232, Note_on_c, 0, 79, 0
2, 66240, Note_on_c, 0, 81, 85
2, 66292, Note_on_c, 0, 81, 0
2, 66300, Note_on_c, 0, 69, 85
2, 66352, Note_on_c, 0, 69, 0
2, 66360, Note_on_c, 0, 74, 79
2, 66412, Note_on_c, 0, 74, 0
2, 66780, Note_on_c, 0, 78, 75
2, 66832, Note_on_c, 0, 78, 0
2, 66840, Note_on_c, 0, 76, 67
2, 66945, Note_on_c, 0, 76, 0
2, 67020, Note_on_c, 0, 76, 74
2, 67072, Note_on_c, 0, 76, 0
2, 67080, Note_on_c, 0, 74, 66
2, 67185, Note_on_c, 0, 74, 0
2, 67260, Note_on_c, 0, 74, 74
2, 67312, Note_on_c, 0, 74, 0
2, 67320, Note_on_c, 0, 73, 67
2, 67425, Note_on_c, 0, 73, 0
2, 67500, Note_on_c, 0, 73, 74
2, 67552, Note_on_c, 0, 73, 0
2, 67560, Note_on_c, 0, 71, 67
2, 67665, Note_on_c, 0, 71, 0
2, 67740, Note_on_c, 0, 71, 74
2, 67792, Note_on_c, 0, 71, 0
2, 67800, Note_on_c, 0, 69, 68
2, 67905, Note_on_c, 0, 69, 0
2, 67950, Note_on_c, 0, 69, 76
2, 67976, Note_on_c, 0, 69, 0
2, 67980, Note_on_c, 0, 74, 74
2, 68006, Note_on_c, 0, 74, 0
2, 68010, Note_on_c, 0, 69, 74
2, 68036, Note_on_c, 0, 69, 0
2, 68040, Note_on_c, 0, 71, 64
2, 68092, Note_on_c, 0, 71, 0
2, 68100, Note_on_c, 0, 79, 74
2, 68152, Note_on_c, 0, 79, 0
2, 68160, Note_on_c, 0, 78, 75
2, 68173, Note_on_c, 0, 78, 0
2, 68175, Note_on_c, 0, 76, 75
2, 68188, Note_on_c, 0, 76, 0
2, 68190, Note_on_c, 0, 78, 73
2, 68241, Note_on_c, 0, 78, 0
2, 68250, Note_on_c, 0, 76, 73
2, 68276, Note_on_c, 0, 76, 0
2, 68280, Note_on_c, 0, 74, 73
2, 68306, Note_on_c, 0, 74, 0
2, 68310, Note_on_c, 0, 76, 72
2, 68336, Note_on_c, 0, 76, 0
2, 68340, Note_on_c, 0, 78, 72
2, 68366, Note_on_c, 0, 78, 0
2, 68370, Note_on_c, 0, 76, 72
2, 68396, Note_on_c, 0, 76, 0
2, 68400, Note_on_c, 0, 74, 72
2, 68426, Note_on_c, 0, 74, 0
2, 68430, Note_on_c, 0, 78, 72
2, 68456, Note_on_c, 0, 78, 0
2, 68460, Note_on_c, 0, 76, 71
2, 68486, Note_on_c, 0, 76, 0
2, 68490, Note_on_c, 0, 74, 71
2, 68516, Note_on_c, 0, 74, 0
2, 68520, Note_on_c, 0, 73, 71
2, 68546, Note_on_c, 0, 73, 0
2, 68550, Note_on_c, 0, 74, 71
2, 68576, Note_on_c, 0, 74, 0
2, 68580, Note_on_c, 0, 76, 71
2, 68606, Note_on_c, 0, 76, 0
2, 68610, Note_on_c, 0, 74, 71
2, 68636, Note_on_c, 0, 74, 0
2, 68640, Note_on_c, 0, 73, 71
2, 68666, Note_on_c, 0, 73, 0
2, 68670, Note_on_c, 0, 76, 71
2, 68696, Note_on_c, 0, 76, 0
2, 68700, Note_on_c, 0, 74, 71
2, 68726, Note_on_c, 0, 74, 0
2, 68730, Note_on_c, 0, 73, 71
2, 68756, Note_on_c, 0, 73, 0
2, 68760, Note_on_c, 0, 71, 71
2, 68812, Note_on_c, 0, 71, 0
2, 68820, Note_on_c, 0, 76, 71
2, 68872, Note_on_c, 0, 76, 0
2, 68880, Note_on_c, 0, 74, 71
2, 68906, Note_on_c, 0, 74, 0
2, 68910, Note_on_c, 0, 73, 71
2, 68936, Note_on_c, 0, 73, 0
2, 68940, Note_on_c, 0, 74, 72
2, 68966, Note_on_c, 0, 74, 0
2, 68970, Note_on_c, 0, 71, 74
2, 68996, Note_on_c, 0, 71, 0
2, 69000, Note_on_c, 0, 73, 75
2, 69026, Note_on_c, 0, 73, 0
2, 69030, Note_on_c, 0, 71, 74
2, 69056, Note_on_c, 0, 71, 0
2, 69060, Note_on_c, 0, 69, 74
2, 69086, Note_on_c, 0, 69, 0
2, 69090, Note_on_c, 0, 71, 74
2, 69116, Note_on_c, 0, 71, 0
2, 69120, Note_on_c, 0, 68, 74
2, 69133, Note_on_c, 0, 68, 0
2, 69135, Note_on_c, 0, 66, 74
2, 69148, Note_on_c, 0, 66, 0
2, 69150, Note_on_c, 0, 68, 74
2, 69201, Note_on_c, 0, 68, 0
2, 69210, Note_on_c, 0, 69, 73
2, 69236, Note_on_c, 0, 69, 0
2, 69240, Note_on_c, 0, 69, 73
2, 69292, Note_on_c, 0, 69, 0
2, 69777, Program_c, 0, 20
2, 69777, Control_c, 0, 0, 0
2, 69777, Control_c, 0, 11, 110
2, 69777, Control_c, 0, 64, 0
2, 69777, Control_c, 0, 91, 120
2, 69777, Control_c, 0, 93, 10
2, 69777, Control_c, 0, 7, 80
2, 69778, Control_c, 0, 10, 40
2, 69780, Note_on_c, 0, 81, 64
2, 69806, Note_on_c, 0, 81, 0
2, 69810, Note_on_c, 0, 80, 64
2, 69836, Note_on_c, 0, 80, 0
2, 69840, Note_on_c, 0, 81, 64
2, 69866, Note_on_c, 0, 81, 0
2, 69870, Note_on_c, 0, 80, 64
2, 69896, Note_on_c, 0, 80, 0
2, 69900, Note_on_c, 0, 81, 64
2, 69926, Note_on_c, 0, 81, 0
2, 69930, Note_on_c, 0, 80, 64
2, 69956, Note_on_c, 0, 80, 0
2, 69960, Note_on_c, 0, 81, 64
2, 70012, Note_on_c, 0, 81, 0
2, 70020, Note_on_c, 0, 69, 64
2, 70072, Note_on_c, 0, 69, 0
2, 70140, Note_on_c, 0, 73, 64
2, 70192, Note_on_c, 0, 73, 0
2, 70200, Note_on_c, 0, 71, 64
2, 70305, Note_on_c, 0, 71, 0
2, 70380, Note_on_c, 0, 71, 64
2, 70432, Note_on_c, 0, 71, 0
2, 70440, Note_on_c, 0, 69, 64
2, 70545, Note_on_c, 0, 69, 0
2, 70620, Note_on_c, 0, 69, 64
2, 70672, Note_on_c, 0, 69, 0
2, 70680, Note_on_c, 0, 68, 64
2, 70785, Note_on_c, 0, 68, 0
2, 70860, Note_on_c, 0, 68, 64
2, 70912, Note_on_c, 0, 68, 0
2, 70920, Note_on_c, 0, 66, 64
2, 71025, Note_on_c, 0, 66, 0
2, 71100, Note_on_c, 0, 66, 64
2, 71152, Note_on_c, 0, 66, 0
2, 71160, Note_on_c, 0, 64, 64
2, 71306, Note_on_c, 0, 64, 0
2, 71310, Note_on_c, 0, 69, 64
2, 71336, Note_on_c, 0, 69, 0
2, 71340, Note_on_c, 0, 64, 64
2, 71366, Note_on_c, 0, 64, 0
2, 71370, Note_on_c, 0, 61, 64
2, 71396, Note_on_c, 0, 61, 0
2, 71400, Note_on_c, 0, 62, 64
2, 71546, Note_on_c, 0, 62, 0
2, 71550, Note_on_c, 0, 64, 64
2, 71576, Note_on_c, 0, 64, 0
2, 71580, Note_on_c, 0, 62, 64
2, 71606, Note_on_c, 0, 62, 0
2, 71610, Note_on_c, 0, 64, 64
2, 71636, Note_on_c, 0, 64, 0
2, 71640, Note_on_c, 0, 61, 64
2, 71666, Note_on_c, 0, 61, 0
2, 71670, Note_on_c, 0, 64, 64
2, 71696, Note_on_c, 0, 64, 0
2, 71700, Note_on_c, 0, 61, 64
2, 71726, Note_on_c, 0, 61, 0
2, 71730, Note_on_c, 0, 57, 64
2, 71756, Note_on_c, 0, 57, 0
2, 71880, Note_on_c, 0, 57, 64
2, 71906, Note_on_c, 0, 57, 0
2, 71910, Note_on_c, 0, 61, 64
2, 71936, Note_on_c, 0, 61, 0
2, 71940, Note_on_c, 0, 57, 64
2, 71966, Note_on_c, 0, 57, 0
2, 71970, Note_on_c, 0, 52, 64
2, 71996, Note_on_c, 0, 52, 0
2, 72147, Program_c, 0, 19
2, 72147, Control_c, 0, 0, 0
2, 72147, Control_c, 0, 11, 120
2, 72147, Control_c, 0, 64, 0
2, 72147, Control_c, 0, 91, 40
2, 72147, Control_c, 0, 93, 20
2, 72147, Control_c, 0, 7, 90
2, 72148, Control_c, 0, 10, 40
2, 72150, Note_on_c, 0, 57, 89
2, 72176, Note_on_c, 0, 57, 0
2, 72180, Note_on_c, 0, 62, 87
2, 72206, Note_on_c, 0, 62, 0
2, 72210, Note_on_c, 0, 57, 84
2, 72236, Note_on_c, 0, 57, 0
2, 72240, Note_on_c, 0, 59, 82
2, 72345, Note_on_c, 0, 59, 0
2, 72390, Note_on_c, 0, 59, 88
2, 72416, Note_on_c, 0, 59, 0
2, 72420, Note_on_c, 0, 62, 87
2, 72446, Note_on_c, 0, 62, 0
2, 72450, Note_on_c, 0, 59, 86
2, 72476, Note_on_c, 0, 59, 0
2, 72480, Note_on_c, 0, 61, 84
2, 72585, Note_on_c, 0, 61, 0
2, 72630, Note_on_c, 0, 61, 88
2, 72656, Note_on_c, 0, 61, 0
2, 72660, Note_on_c, 0, 69, 89
2, 72686, Note_on_c, 0, 69, 0
2, 72690, Note_on_c, 0, 61, 88
2, 72716, Note_on_c, 0, 61, 0
2, 72720, Note_on_c, 0, 62, 89
2, 72746, Note_on_c, 0, 62, 0
2, 72750, Note_on_c, 0, 61, 88
2, 72776, Note_on_c, 0, 61, 0
2, 72780, Note_on_c, 0, 71, 89
2, 72806, Note_on_c, 0, 71, 0
2, 72810, Note_on_c, 0, 62, 89
2, 72836, Note_on_c, 0, 62, 0
2, 72840, Note_on_c, 0, 64, 89
2, 72866, Note_on_c, 0, 64, 0
2, 72870, Note_on_c, 0, 57, 89
2, 72896, Note_on_c, 0, 57, 0
2, 72900, Note_on_c, 0, 69, 89
2, 72926, Note_on_c, 0, 69, 0
2, 72930, Note_on_c, 0, 71, 88
2, 72956, Note_on_c, 0, 71, 0
2, 72960, Note_on_c, 0, 69, 88
2, 72986, Note_on_c, 0, 69, 0
2, 72990, Note_on_c, 0, 71, 88
2, 73016, Note_on_c, 0, 71, 0
2, 73020, Note_on_c, 0, 69, 87
2, 73046, Note_on_c, 0, 69, 0
2, 73050, Note_on_c, 0, 67, 87
2, 73076, Note_on_c, 0, 67, 0
2, 73080, Note_on_c, 0, 66, 87
2, 73106, Note_on_c, 0, 66, 0
2, 73110, Note_on_c, 0, 69, 87
2, 73136, Note_on_c, 0, 69, 0
2, 73140, Note_on_c, 0, 74, 87
2, 73166, Note_on_c, 0, 74, 0
2, 73170, Note_on_c, 0, 69, 87
2, 73196, Note_on_c, 0, 69, 0
2, 73200, Note_on_c, 0, 71, 88
2, 73226, Note_on_c, 0, 71, 0
2, 73230, Note_on_c, 0, 74, 87
2, 73256, Note_on_c, 0, 74, 0
2, 73260, Note_on_c, 0, 79, 86
2, 73286, Note_on_c, 0, 79, 0
2, 73290, Note_on_c, 0, 71, 86
2, 73316, Note_on_c, 0, 71, 0
2, 73320, Note_on_c, 0, 73, 86
2, 73372, Note_on_c, 0, 73, 0
2, 73380, Note_on_c, 0, 74, 81
2, 73423, Note_on_c, 0, 74, 0
2, 73440, Note_on_c, 0, 74, 89
2, 73453, Note_on_c, 0, 74, 0
2, 73455, Note_on_c, 0, 73, 88
2, 73468, Note_on_c, 0, 73, 0
2, 73470, Note_on_c, 0, 74, 87
2, 73521, Note_on_c, 0, 74, 0
2, 73530, Note_on_c, 0, 73, 88
2, 73556, Note_on_c, 0, 73, 0
2, 73560, Note_on_c, 0, 74, 85
2, 73665, Note_on_c, 0, 74, 0
2, 74040, Note_on_c, 0, 78, 78
2, 74066, Note_on_c, 0, 78, 0
2, 74070, Note_on_c, 0, 69, 79
2, 74096, Note_on_c, 0, 69, 0
2, 74100, Note_on_c, 0, 74, 82
2, 74126, Note_on_c, 0, 74, 0
2, 74130, Note_on_c, 0, 69, 82
2, 74156, Note_on_c, 0, 69, 0
2, 74160, Note_on_c, 0, 78, 82
2, 74186, Note_on_c, 0, 78, 0
2, 74190, Note_on_c, 0, 69, 81
2, 74216, Note_on_c, 0, 69, 0
2, 74220, Note_on_c, 0, 74, 80
2, 74246, Note_on_c, 0, 74, 0
2, 74250, Note_on_c, 0, 69, 80
2, 74276, Note_on_c, 0, 69, 0
2, 74280, Note_on_c, 0, 78, 80
2, 74306, Note_on_c, 0, 78, 0
2, 74310, Note_on_c, 0, 69, 80
2, 74336, Note_on_c, 0, 69, 0
2, 74340, Note_on_c, 0, 74, 80
2, 74366, Note_on_c, 0, 74, 0
2, 74370, Note_on_c, 0, 69, 80
2, 74396, Note_on_c, 0, 69, 0
2, 74400, Note_on_c, 0, 78, 78
2, 74452, Note_on_c, 0, 78, 0
2, 74460, Note_on_c, 0, 78, 76
2, 74512, Note_on_c, 0, 78, 0
2, 74520, Note_on_c, 0, 76, 67
2, 74625, Note_on_c, 0, 76, 0
2, 74700, Note_on_c, 0, 76, 75
2, 74752, Note_on_c, 0, 76, 0
2, 74760, Note_on_c, 0, 74, 68
2, 74865, Note_on_c, 0, 74, 0
2, 74940, Note_on_c, 0, 74, 74
2, 74992, Note_on_c, 0, 74, 0
2, 75000, Note_on_c, 0, 73, 68
2, 75105, Note_on_c, 0, 73, 0
2, 75180, Note_on_c, 0, 73, 75
2, 75232, Note_on_c, 0, 73, 0
2, 75240, Note_on_c, 0, 71, 69
2, 75345, Note_on_c, 0, 71, 0
2, 75420, Note_on_c, 0, 71, 75
2, 75472, Note_on_c, 0, 71, 0
2, 75480, Note_on_c, 0, 69, 68
2, 75626, Note_on_c, 0, 69, 0
2, 75630, Note_on_c, 0, 74, 68
2, 75682, Note_on_c, 0, 74, 0
2, 75690, Note_on_c, 0, 74, 76
2, 75716, Note_on_c, 0, 74, 0
2, 75720, Note_on_c, 0, 76, 68
2, 75866, Note_on_c, 0, 76, 0
2, 75870, Note_on_c, 0, 76, 64
2, 75922, Note_on_c, 0, 76, 0
2, 75930, Note_on_c, 0, 76, 64
2, 75986, Note_on_c, 0, 76, 0
2, 75990, Note_on_c, 0, 76, 64
2, 76042, Note_on_c, 0, 76, 0
2, 76050, Note_on_c, 0, 76, 64
2, 76076, Note_on_c, 0, 76, 0
2, 76110, Note_on_c, 0, 74, 64
2, 76162, Note_on_c, 0, 74, 0
2, 76170, Note_on_c, 0, 74, 64
2, 76196, Note_on_c, 0, 74, 0
2, 76230, Note_on_c, 0, 74, 64
2, 76282, Note_on_c, 0, 74, 0
2, 76290, Note_on_c, 0, 74, 64
2, 76316, Note_on_c, 0, 74, 0
2, 76350, Note_on_c, 0, 73, 64
2, 76402, Note_on_c, 0, 73, 0
2, 76410, Note_on_c, 0, 73, 64
2, 76466, Note_on_c, 0, 73, 0
2, 76470, Note_on_c, 0, 73, 64
2, 76522, Note_on_c, 0, 73, 0
2, 76530, Note_on_c, 0, 73, 64
2, 76556, Note_on_c, 0, 73, 0
2, 76590, Note_on_c, 0, 71, 64
2, 76642, Note_on_c, 0, 71, 0
2, 76650, Note_on_c, 0, 71, 64
2, 76676, Note_on_c, 0, 71, 0
2, 76710, Note_on_c, 0, 71, 64
2, 76762, Note_on_c, 0, 71, 0
2, 76770, Note_on_c, 0, 71, 64
2, 76796, Note_on_c, 0, 71, 0
2, 76830, Note_on_c, 0, 70, 64
2, 76882, Note_on_c, 0, 70, 0
2, 76890, Note_on_c, 0, 70, 64
2, 76916, Note_on_c, 0, 70, 0
2, 76920, Note_on_c, 0, 71, 64
2, 77025, Note_on_c, 0, 71, 0
2, 77940, Note_on_c, 0, 83, 83
2, 77966, Note_on_c, 0, 83, 0
2, 77970, Note_on_c, 0, 82, 84
2, 77996, Note_on_c, 0, 82, 0
2, 78000, Note_on_c, 0, 83, 84
2, 78026, Note_on_c, 0, 83, 0
2, 78030, Note_on_c, 0, 82, 84
2, 78056, Note_on_c, 0, 82, 0
2, 78060, Note_on_c, 0, 83, 84
2, 78086, Note_on_c, 0, 83, 0
2, 78090, Note_on_c, 0, 82, 84
2, 78116, Note_on_c, 0, 82, 0
2, 78120, Note_on_c, 0, 83, 84
2, 78172, Note_on_c, 0, 83, 0
2, 78180, Note_on_c, 0, 71, 83
2, 78232, Note_on_c, 0, 71, 0
2, 79440, Note_on_c, 0, 79, 84
2, 79466, Note_on_c, 0, 79, 0
2, 79470, Note_on_c, 0, 78, 85
2, 79496, Note_on_c, 0, 78, 0
2, 79500, Note_on_c, 0, 79, 85
2, 79526, Note_on_c, 0, 79, 0
2, 79530, Note_on_c, 0, 74, 83
2, 79556, Note_on_c, 0, 74, 0
2, 79560, Note_on_c, 0, 76, 83
2, 79586, Note_on_c, 0, 76, 0
2, 79590, Note_on_c, 0, 74, 83
2, 79616, Note_on_c, 0, 74, 0
2, 79620, Note_on_c, 0, 76, 82
2, 79646, Note_on_c, 0, 76, 0
2, 79650, Note_on_c, 0, 73, 83
2, 79676, Note_on_c, 0, 73, 0
2, 79680, Note_on_c, 0, 78, 83
2, 79706, Note_on_c, 0, 78, 0
2, 79710, Note_on_c, 0, 76, 83
2, 79736, Note_on_c, 0, 76, 0
2, 79740, Note_on_c, 0, 78, 83
2, 79766, Note_on_c, 0, 78, 0
2, 79770, Note_on_c, 0, 73, 83
2, 79796, Note_on_c, 0, 73, 0
2, 79800, Note_on_c, 0, 74, 83
2, 79826, Note_on_c, 0, 74, 0
2, 79830, Note_on_c, 0, 73, 83
2, 79856, Note_on_c, 0, 73, 0
2, 79860, Note_on_c, 0, 74, 83
2, 79886, Note_on_c, 0, 74, 0
2, 79890, Note_on_c, 0, 71, 83
2, 79916, Note_on_c, 0, 71, 0
2, 79920, Note_on_c, 0, 74, 84
2, 79972, Note_on_c, 0, 74, 0
2, 79980, Note_on_c, 0, 74, 83
2, 80032, Note_on_c, 0, 74, 0
2, 80040, Note_on_c, 0, 73, 77
2, 80145, Note_on_c, 0, 73, 0
2, 80220, Note_on_c, 0, 73, 64
2, 80272, Note_on_c, 0, 73, 0
2, 80280, Note_on_c, 0, 71, 64
2, 80306, Note_on_c, 0, 71, 0
2, 80308, Program_c, 0, 20
2, 80308, Control_c, 0, 0, 0
2, 80308, Control_c, 0, 11, 110
2, 80308, Control_c, 0, 64, 0
2, 80308, Control_c, 0, 91, 100
2, 80308, Control_c, 0, 93, 20
2, 80308, Control_c, 0, 7, 80
2, 80309, Control_c, 0, 10, 40
2, 80310, Note_on_c, 0, 83, 64
2, 80336, Note_on_c, 0, 83, 0
2, 80340, Note_on_c, 0, 82, 64
2, 80366, Note_on_c, 0, 82, 0
2, 80370, Note_on_c, 0, 83, 64
2, 80396, Note_on_c, 0, 83, 0
2, 80400, Note_on_c, 0, 74, 49
2, 80546, Note_on_c, 0, 74, 0
2, 80550, Note_on_c, 0, 83, 64
2, 80576, Note_on_c, 0, 83, 0
2, 80580, Note_on_c, 0, 82, 64
2, 80606, Note_on_c, 0, 82, 0
2, 80610, Note_on_c, 0, 83, 64
2, 80636, Note_on_c, 0, 83, 0
2, 80640, Note_on_c, 0, 74, 47
2, 80786, Note_on_c, 0, 74, 0
2, 80790, Note_on_c, 0, 83, 64
2, 80816, Note_on_c, 0, 83, 0
2, 80820, Note_on_c, 0, 82, 64
2, 80846, Note_on_c, 0, 82, 0
2, 80850, Note_on_c, 0, 83, 64
2, 80876, Note_on_c, 0, 83, 0
2, 80880, Note_on_c, 0, 74, 47
2, 81026, Note_on_c, 0, 74, 0
2, 81030, Note_on_c, 0, 83, 64
2, 81056, Note_on_c, 0, 83, 0
2, 81060, Note_on_c, 0, 82, 64
2, 81086, Note_on_c, 0, 82, 0
2, 81090, Note_on_c, 0, 83, 64
2, 81116, Note_on_c, 0, 83, 0
2, 81120, Note_on_c, 0, 74, 46
2, 81266, Note_on_c, 0, 74, 0
2, 81270, Note_on_c, 0, 83, 64
2, 81296, Note_on_c, 0, 83, 0
2, 81300, Note_on_c, 0, 82, 64
2, 81326, Note_on_c, 0, 82, 0
2, 81330, Note_on_c, 0, 83, 64
2, 81356, Note_on_c, 0, 83, 0
2, 81360, Note_on_c, 0, 77, 53
2, 81465, Note_on_c, 0, 77, 0
2, 81510, Note_on_c, 0, 73, 64
2, 81536, Note_on_c, 0, 73, 0
2, 81540, Note_on_c, 0, 78, 64
2, 81566, Note_on_c, 0, 78, 0
2, 81570, Note_on_c, 0, 73, 64
2, 81596, Note_on_c, 0, 73, 0
2, 81600, Note_on_c, 0, 74, 49
2, 81705, Note_on_c, 0, 74, 0
2, 81750, Note_on_c, 0, 68, 64
2, 81776, Note_on_c, 0, 68, 0
2, 81780, Note_on_c, 0, 74, 64
2, 81806, Note_on_c, 0, 74, 0
2, 81810, Note_on_c, 0, 68, 64
2, 81836, Note_on_c, 0, 68, 0
2, 81840, Note_on_c, 0, 69, 56
2, 81945, Note_on_c, 0, 69, 0
2, 81990, Note_on_c, 0, 74, 63
2, 82016, Note_on_c, 0, 74, 0
2, 82020, Note_on_c, 0, 79, 64
2, 82046, Note_on_c, 0, 79, 0
2, 82050, Note_on_c, 0, 78, 65
2, 82076, Note_on_c, 0, 78, 0
2, 82080, Note_on_c, 0, 77, 65
2, 82106, Note_on_c, 0, 77, 0
2, 82110, Note_on_c, 0, 73, 64
2, 82136, Note_on_c, 0, 73, 0
2, 82140, Note_on_c, 0, 78, 64
2, 82166, Note_on_c, 0, 78, 0
2, 82170, Note_on_c, 0, 73, 63
2, 82196, Note_on_c, 0, 73, 0
2, 82200, Note_on_c, 0, 74, 63
2, 82226, Note_on_c, 0, 74, 0
2, 82230, Note_on_c, 0, 78, 63
2, 82256, Note_on_c, 0, 78, 0
2, 82260, Note_on_c, 0, 77, 63
2, 82286, Note_on_c, 0, 77, 0
2, 82290, Note_on_c, 0, 78, 63
2, 82316, Note_on_c, 0, 78, 0
2, 82320, Note_on_c, 0, 69, 63
2, 82346, Note_on_c, 0, 69, 0
2, 82350, Note_on_c, 0, 78, 63
2, 82376, Note_on_c, 0, 78, 0
2, 82380, Note_on_c, 0, 68, 63
2, 82406, Note_on_c, 0, 68, 0
2, 82410, Note_on_c, 0, 77, 63
2, 82436, Note_on_c, 0, 77, 0
2, 82440, Note_on_c, 0, 78, 63
2, 82492, Note_on_c, 0, 78, 0
2, 84897, Program_c, 0, 19
2, 84897, Control_c, 0, 0, 0
2, 84897, Control_c, 0, 11, 110
2, 84897, Control_c, 0, 64, 0
2, 84897, Control_c, 0, 91, 30
2, 84897, Control_c, 0, 93, 20
2, 84897, Control_c, 0, 7, 100
2, 84898, Control_c, 0, 10, 40
2, 84900, Note_on_c, 0, 78, 76
2, 84926, Note_on_c, 0, 78, 0
2, 84930, Note_on_c, 0, 77, 75
2, 84956, Note_on_c, 0, 77, 0
2, 84960, Note_on_c, 0, 78, 76
2, 84986, Note_on_c, 0, 78, 0
2, 84990, Note_on_c, 0, 77, 76
2, 85016, Note_on_c, 0, 77, 0
2, 85020, Note_on_c, 0, 78, 76
2, 85046, Note_on_c, 0, 78, 0
2, 85050, Note_on_c, 0, 77, 77
2, 85076, Note_on_c, 0, 77, 0
2, 85080, Note_on_c, 0, 78, 77
2, 85185, Note_on_c, 0, 78, 0
2, 85380, Note_on_c, 0, 73, 77
2, 85432, Note_on_c, 0, 73, 0
2, 85440, Note_on_c, 0, 73, 77
2, 85492, Note_on_c, 0, 73, 0
2, 85500, Note_on_c, 0, 73, 77
2, 85552, Note_on_c, 0, 73, 0
2, 85560, Note_on_c, 0, 73, 77
2, 85665, Note_on_c, 0, 73, 0
2, 85860, Note_on_c, 0, 69, 81
2, 85886, Note_on_c, 0, 69, 0
2, 85890, Note_on_c, 0, 68, 81
2, 85916, Note_on_c, 0, 68, 0
2, 85920, Note_on_c, 0, 69, 81
2, 85946, Note_on_c, 0, 69, 0
2, 85950, Note_on_c, 0, 68, 81
2, 85976, Note_on_c, 0, 68, 0
2, 85980, Note_on_c, 0, 69, 81
2, 86006, Note_on_c, 0, 69, 0
2, 86010, Note_on_c, 0, 68, 82
2, 86036, Note_on_c, 0, 68, 0
2, 86040, Note_on_c, 0, 69, 82
2, 86145, Note_on_c, 0, 69, 0
2, 86220, Note_on_c, 0, 81, 78
2, 86272, Note_on_c, 0, 81, 0
2, 86280, Note_on_c, 0, 80, 79
2, 86385, Note_on_c, 0, 80, 0
2, 86460, Note_on_c, 0, 80, 80
2, 86512, Note_on_c, 0, 80, 0
2, 86520, Note_on_c, 0, 78, 80
2, 86625, Note_on_c, 0, 78, 0
2, 86700, Note_on_c, 0, 78, 76
2, 86752, Note_on_c, 0, 78, 0
2, 86760, Note_on_c, 0, 76, 77
2, 86865, Note_on_c, 0, 76, 0
2, 86940, Note_on_c, 0, 76, 73
2, 86992, Note_on_c, 0, 76, 0
2, 87000, Note_on_c, 0, 75, 73
2, 87105, Note_on_c, 0, 75, 0
2, 87180, Note_on_c, 0, 75, 75
2, 87232, Note_on_c, 0, 75, 0
2, 87240, Note_on_c, 0, 80, 76
2, 87292, Note_on_c, 0, 80, 0
2, 87300, Note_on_c, 0, 73, 70
2, 87386, Note_on_c, 0, 73, 0
2, 87390, Note_on_c, 0, 74, 84
2, 87416, Note_on_c, 0, 74, 0
2, 87420, Note_on_c, 0, 73, 81
2, 87446, Note_on_c, 0, 73, 0
2, 87450, Note_on_c, 0, 74, 80
2, 87476, Note_on_c, 0, 74, 0
2, 87480, Note_on_c, 0, 71, 78
2, 87626, Note_on_c, 0, 71, 0
2, 87630, Note_on_c, 0, 73, 83
2, 87656, Note_on_c, 0, 73, 0
2, 87660, Note_on_c, 0, 71, 78
2, 87686, Note_on_c, 0, 71, 0
2, 87690, Note_on_c, 0, 73, 79
2, 87716, Note_on_c, 0, 73, 0
2, 87720, Note_on_c, 0, 69, 78
2, 87866, Note_on_c, 0, 69, 0
2, 87870, Note_on_c, 0, 71, 82
2, 87896, Note_on_c, 0, 71, 0
2, 87900, Note_on_c, 0, 69, 82
2, 87926, Note_on_c, 0, 69, 0
2, 87930, Note_on_c, 0, 71, 82
2, 87956, Note_on_c, 0, 71, 0
2, 87960, Note_on_c, 0, 68, 82
2, 87986, Note_on_c, 0, 68, 0
2, 87990, Note_on_c, 0, 69, 82
2, 88016, Note_on_c, 0, 69, 0
2, 88020, Note_on_c, 0, 66, 80
2, 88046, Note_on_c, 0, 66, 0
2, 88050, Note_on_c, 0, 68, 80
2, 88076, Note_on_c, 0, 68, 0
2, 88080, Note_on_c, 0, 66, 81
2, 88106, Note_on_c, 0, 66, 0
2, 88110, Note_on_c, 0, 68, 81
2, 88136, Note_on_c, 0, 68, 0
2, 88140, Note_on_c, 0, 66, 80
2, 88166, Note_on_c, 0, 66, 0
2, 88170, Note_on_c, 0, 65, 80
2, 88196, Note_on_c, 0, 65, 0
2, 88200, Note_on_c, 0, 66, 80
2, 88226, Note_on_c, 0, 66, 0
2, 88230, Note_on_c, 0, 69, 83
2, 88256, Note_on_c, 0, 69, 0
2, 88260, Note_on_c, 0, 66, 85
2, 88286, Note_on_c, 0, 66, 0
2, 88290, Note_on_c, 0, 61, 85
2, 88316, Note_on_c, 0, 61, 0
2, 88440, Note_on_c, 0, 78, 85
2, 88466, Note_on_c, 0, 78, 0
2, 88470, Note_on_c, 0, 81, 85
2, 88496, Note_on_c, 0, 81, 0
2, 88500, Note_on_c, 0, 78, 85
2, 88526, Note_on_c, 0, 78, 0
2, 88530, Note_on_c, 0, 73, 84
2, 88556, Note_on_c, 0, 73, 0
2, 89217, Program_c, 0, 19
2, 89217, Control_c, 0, 0, 0
2, 89217, Control_c, 0, 11, 120
2, 89217, Control_c, 0, 64, 0
2, 89217, Control_c, 0, 91, 40
2, 89217, Control_c, 0, 93, 20
2, 89217, Control_c, 0, 7, 90
2, 89218, Control_c, 0, 10, 40
2, 89220, Note_on_c, 0, 78, 78
2, 89246, Note_on_c, 0, 78, 0
2, 89250, Note_on_c, 0, 76, 78
2, 89276, Note_on_c, 0, 76, 0
2, 89280, Note_on_c, 0, 78, 78
2, 89306, Note_on_c, 0, 78, 0
2, 89310, Note_on_c, 0, 76, 77
2, 89336, Note_on_c, 0, 76, 0
2, 89340, Note_on_c, 0, 78, 77
2, 89366, Note_on_c, 0, 78, 0
2, 89370, Note_on_c, 0, 76, 77
2, 89396, Note_on_c, 0, 76, 0
2, 89400, Note_on_c, 0, 75, 77
2, 89452, Note_on_c, 0, 75, 0
2, 89640, Note_on_c, 0, 76, 80
2, 89666, Note_on_c, 0, 76, 0
2, 89670, Note_on_c, 0, 78, 81
2, 89696, Note_on_c, 0, 78, 0
2, 89700, Note_on_c, 0, 80, 81
2, 89726, Note_on_c, 0, 80, 0
2, 89730, Note_on_c, 0, 78, 80
2, 89756, Note_on_c, 0, 78, 0
2, 89760, Note_on_c, 0, 76, 80
2, 89786, Note_on_c, 0, 76, 0
2, 89790, Note_on_c, 0, 78, 80
2, 89816, Note_on_c, 0, 78, 0
2, 89820, Note_on_c, 0, 80, 81
2, 89846, Note_on_c, 0, 80, 0
2, 89850, Note_on_c, 0, 78, 81
2, 89876, Note_on_c, 0, 78, 0
2, 89880, Note_on_c, 0, 76, 82
2, 89932, Note_on_c, 0, 76, 0
2, 90420, Note_on_c, 0, 73, 81
2, 90446, Note_on_c, 0, 73, 0
2, 90450, Note_on_c, 0, 72, 81
2, 90476, Note_on_c, 0, 72, 0
2, 90480, Note_on_c, 0, 73, 81
2, 90506, Note_on_c, 0, 73, 0
2, 90510, Note_on_c, 0, 72, 81
2, 90536, Note_on_c, 0, 72, 0
2, 90540, Note_on_c, 0, 73, 81
2, 90566, Note_on_c, 0, 73, 0
2, 90570, Note_on_c, 0, 72, 81
2, 90596, Note_on_c, 0, 72, 0
2, 90600, Note_on_c, 0, 73, 82
2, 90652, Note_on_c, 0, 73, 0
2, 90660, Note_on_c, 0, 61, 82
2, 90712, Note_on_c, 0, 61, 0
2, 90780, Note_on_c, 0, 73, 75
2, 90832, Note_on_c, 0, 73, 0
2, 90840, Note_on_c, 0, 73, 74
2, 90945, Note_on_c, 0, 73, 0
2, 91020, Note_on_c, 0, 72, 74
2, 91072, Note_on_c, 0, 72, 0
2, 91080, Note_on_c, 0, 73, 83
2, 91106, Note_on_c, 0, 73, 0
2, 91110, Note_on_c, 0, 75, 80
2, 91136, Note_on_c, 0, 75, 0
2, 91140, Note_on_c, 0, 76, 81
2, 91166, Note_on_c, 0, 76, 0
2, 91170, Note_on_c, 0, 73, 82
2, 91196, Note_on_c, 0, 73, 0
2, 91200, Note_on_c, 0, 81, 82
2, 91226, Note_on_c, 0, 81, 0
2, 91230, Note_on_c, 0, 80, 82
2, 91256, Note_on_c, 0, 80, 0
2, 91260, Note_on_c, 0, 81, 82
2, 91286, Note_on_c, 0, 81, 0
2, 91290, Note_on_c, 0, 76, 82
2, 91316, Note_on_c, 0, 76, 0
2, 91320, Note_on_c, 0, 78, 82
2, 91346, Note_on_c, 0, 78, 0
2, 91350, Note_on_c, 0, 76, 82
2, 91376, Note_on_c, 0, 76, 0
2, 91380, Note_on_c, 0, 78, 82
2, 91406, Note_on_c, 0, 78, 0
2, 91410, Note_on_c, 0, 75, 83
2, 91436, Note_on_c, 0, 75, 0
2, 91440, Note_on_c, 0, 80, 83
2, 91466, Note_on_c, 0, 80, 0
2, 91470, Note_on_c, 0, 78, 83
2, 91496, Note_on_c, 0, 78, 0
2, 91500, Note_on_c, 0, 80, 83
2, 91526, Note_on_c, 0, 80, 0
2, 91530, Note_on_c, 0, 75, 83
2, 91556, Note_on_c, 0, 75, 0
2, 91560, Note_on_c, 0, 76, 83
2, 91586, Note_on_c, 0, 76, 0
2, 91590, Note_on_c, 0, 75, 82
2, 91616, Note_on_c, 0, 75, 0
2, 91620, Note_on_c, 0, 76, 81
2, 91646, Note_on_c, 0, 76, 0
2, 91650, Note_on_c, 0, 73, 81
2, 91676, Note_on_c, 0, 73, 0
2, 91680, Note_on_c, 0, 78, 81
2, 91706, Note_on_c, 0, 78, 0
2, 91710, Note_on_c, 0, 76, 81
2, 91736, Note_on_c, 0, 76, 0
2, 91740, Note_on_c, 0, 74, 81
2, 91766, Note_on_c, 0, 74, 0
2, 91770, Note_on_c, 0, 73, 81
2, 91796, Note_on_c, 0, 73, 0
2, 91800, Note_on_c, 0, 72, 83
2, 91826, Note_on_c, 0, 72, 0
2, 91830, Note_on_c, 0, 75, 83
2, 91856, Note_on_c, 0, 75, 0
2, 91860, Note_on_c, 0, 73, 83
2, 91886, Note_on_c, 0, 73, 0
2, 91890, Note_on_c, 0, 75, 82
2, 91916, Note_on_c, 0, 75, 0
2, 91920, Note_on_c, 0, 72, 80
2, 91933, Note_on_c, 0, 72, 0
2, 91935, Note_on_c, 0, 69, 77
2, 91948, Note_on_c, 0, 69, 0
2, 91950, Note_on_c, 0, 72, 73
2, 92001, Note_on_c, 0, 72, 0
2, 92010, Note_on_c, 0, 73, 82
2, 92036, Note_on_c, 0, 73, 0
2, 92040, Note_on_c, 0, 73, 82
2, 92066, Note_on_c, 0, 73, 0
2, 92070, Note_on_c, 0, 76, 96
2, 92096, Note_on_c, 0, 76, 0
2, 92100, Note_on_c, 0, 73, 95
2, 92126, Note_on_c, 0, 73, 0
2, 92130, Note_on_c, 0, 68, 95
2, 92156, Note_on_c, 0, 68, 0
2, 92280, Note_on_c, 0, 64, 88
2, 92306, Note_on_c, 0, 64, 0
2, 92310, Note_on_c, 0, 68, 87
2, 92336, Note_on_c, 0, 68, 0
2, 92340, Note_on_c, 0, 64, 87
2, 92366, Note_on_c, 0, 64, 0
2, 92370, Note_on_c, 0, 61, 87
2, 92396, Note_on_c, 0, 61, 0
2, 92520, Note_on_c, 0, 61, 87
2, 92546, Note_on_c, 0, 61, 0
2, 92550, Note_on_c, 0, 64, 87
2, 92576, Note_on_c, 0, 64, 0
2, 92580, Note_on_c, 0, 61, 87
2, 92606, Note_on_c, 0, 61, 0
2, 92610, Note_on_c, 0, 56, 87
2, 92636, Note_on_c, 0, 56, 0
2, 92790, Note_on_c, 0, 70, 78
2, 92816, Note_on_c, 0, 70, 0
2, 92820, Note_on_c, 0, 64, 78
2, 92846, Note_on_c, 0, 64, 0
2, 92850, Note_on_c, 0, 70, 78
2, 92876, Note_on_c, 0, 70, 0
2, 92880, Note_on_c, 0, 63, 78
2, 92906, Note_on_c, 0, 63, 0
2, 92910, Note_on_c, 0, 71, 78
2, 92936, Note_on_c, 0, 71, 0
2, 92940, Note_on_c, 0, 61, 78
2, 92966, Note_on_c, 0, 61, 0
2, 92970, Note_on_c, 0, 73, 78
2, 92996, Note_on_c, 0, 73, 0
2, 93000, Note_on_c, 0, 66, 78
2, 93026, Note_on_c, 0, 66, 0
2, 93030, Note_on_c, 0, 75, 78
2, 93056, Note_on_c, 0, 75, 0
2, 93060, Note_on_c, 0, 68, 78
2, 93086, Note_on_c, 0, 68, 0
2, 93090, Note_on_c, 0, 73, 78
2, 93116, Note_on_c, 0, 73, 0
2, 93120, Note_on_c, 0, 70, 78
2, 93146, Note_on_c, 0, 70, 0
2, 93150, Note_on_c, 0, 73, 78
2, 93176, Note_on_c, 0, 73, 0
2, 93180, Note_on_c, 0, 70, 78
2, 93206, Note_on_c, 0, 70, 0
2, 93210, Note_on_c, 0, 66, 80
2, 93236, Note_on_c, 0, 66, 0
2, 93240, Note_on_c, 0, 71, 80
2, 93292, Note_on_c, 0, 71, 0
2, 93360, Note_on_c, 0, 68, 80
2, 93386, Note_on_c, 0, 68, 0
2, 93390, Note_on_c, 0, 71, 80
2, 93416, Note_on_c, 0, 71, 0
2, 93420, Note_on_c, 0, 68, 80
2, 93446, Note_on_c, 0, 68, 0
2, 93450, Note_on_c, 0, 64, 80
2, 93476, Note_on_c, 0, 64, 0
2, 93480, Note_on_c, 0, 69, 80
2, 93506, Note_on_c, 0, 69, 0
2, 93510, Note_on_c, 0, 64, 80
2, 93536, Note_on_c, 0, 64, 0
2, 93540, Note_on_c, 0, 71, 80
2, 93566, Note_on_c, 0, 71, 0
2, 93570, Note_on_c, 0, 64, 80
2, 93596, Note_on_c, 0, 64, 0
2, 93600, Note_on_c, 0, 73, 80
2, 93626, Note_on_c, 0, 73, 0
2, 93630, Note_on_c, 0, 68, 80
2, 93656, Note_on_c, 0, 68, 0
2, 93660, Note_on_c, 0, 66, 80
2, 93686, Note_on_c, 0, 66, 0
2, 93690, Note_on_c, 0, 64, 79
2, 93716, Note_on_c, 0, 64, 0
2, 93720, Note_on_c, 0, 63, 79
2, 93746, Note_on_c, 0, 63, 0
2, 93750, Note_on_c, 0, 61, 79
2, 93776, Note_on_c, 0, 61, 0
2, 93780, Note_on_c, 0, 59, 79
2, 93832, Note_on_c, 0, 59, 0
2, 93870, Note_on_c, 0, 59, 79
2, 93896, Note_on_c, 0, 59, 0
2, 93900, Note_on_c, 0, 64, 80
2, 93926, Note_on_c, 0, 64, 0
2, 93930, Note_on_c, 0, 59, 80
2, 93956, Note_on_c, 0, 59, 0
2, 93960, Note_on_c, 0, 61, 80
2, 93986, Note_on_c, 0, 61, 0
2, 93990, Note_on_c, 0, 64, 80
2, 94016, Note_on_c, 0, 64, 0
2, 94020, Note_on_c, 0, 69, 80
2, 94046, Note_on_c, 0, 69, 0
2, 94050, Note_on_c, 0, 61, 80
2, 94076, Note_on_c, 0, 61, 0
2, 94080, Note_on_c, 0, 63, 80
2, 94106, Note_on_c, 0, 63, 0
2, 94110, Note_on_c, 0, 66, 80
2, 94136, Note_on_c, 0, 66, 0
2, 94140, Note_on_c, 0, 71, 80
2, 94166, Note_on_c, 0, 71, 0
2, 94170, Note_on_c, 0, 63, 80
2, 94196, Note_on_c, 0, 63, 0
2, 94200, Note_on_c, 0, 64, 80
2, 94226, Note_on_c, 0, 64, 0
2, 94230, Note_on_c, 0, 68, 80
2, 94256, Note_on_c, 0, 68, 0
2, 94260, Note_on_c, 0, 73, 80
2, 94286, Note_on_c, 0, 73, 0
2, 94290, Note_on_c, 0, 64, 81
2, 94316, Note_on_c, 0, 64, 0
2, 94320, Note_on_c, 0, 66, 81
2, 94346, Note_on_c, 0, 66, 0
2, 94350, Note_on_c, 0, 71, 81
2, 94376, Note_on_c, 0, 71, 0
2, 94380, Note_on_c, 0, 69, 81
2, 94406, Note_on_c, 0, 69, 0
2, 94410, Note_on_c, 0, 71, 81
2, 94436, Note_on_c, 0, 71, 0
2, 94440, Note_on_c, 0, 68, 82
2, 94466, Note_on_c, 0, 68, 0
2, 94470, Note_on_c, 0, 71, 82
2, 94496, Note_on_c, 0, 71, 0
2, 94500, Note_on_c, 0, 76, 83
2, 94526, Note_on_c, 0, 76, 0
2, 94530, Note_on_c, 0, 68, 83
2, 94556, Note_on_c, 0, 68, 0
2, 94560, Note_on_c, 0, 66, 82
2, 94573, Note_on_c, 0, 66, 0
2, 94575, Note_on_c, 0, 64, 82
2, 94588, Note_on_c, 0, 64, 0
2, 94590, Note_on_c, 0, 66, 82
2, 94641, Note_on_c, 0, 66, 0
2, 94650, Note_on_c, 0, 64, 82
2, 94676, Note_on_c, 0, 64, 0
2, 94680, Note_on_c, 0, 64, 82
2, 94732, Note_on_c, 0, 64, 0
2, 95157, Program_c, 0, 71
2, 95157, Control_c, 0, 0, 0
2, 95157, Control_c, 0, 11, 110
2, 95157, Control_c, 0, 64, 0
2, 95157, Control_c, 0, 91, 120
2, 95157, Control_c, 0, 93, 70
2, 95157, Control_c, 0, 7, 60
2, 95158, Control_c, 0, 10, 40
2, 95160, Note_on_c, 0, 76, 68
2, 95186, Note_on_c, 0, 76, 0
2, 95190, Note_on_c, 0, 78, 68
2, 95216, Note_on_c, 0, 78, 0
2, 95220, Note_on_c, 0, 80, 68
2, 95246, Note_on_c, 0, 80, 0
2, 95250, Note_on_c, 0, 78, 67
2, 95276, Note_on_c, 0, 78, 0
2, 95280, Note_on_c, 0, 76, 67
2, 95306, Note_on_c, 0, 76, 0
2, 95310, Note_on_c, 0, 78, 67
2, 95336, Note_on_c, 0, 78, 0
2, 95340, Note_on_c, 0, 80, 67
2, 95366, Note_on_c, 0, 80, 0
2, 95370, Note_on_c, 0, 78, 67
2, 95396, Note_on_c, 0, 78, 0
2, 95400, Note_on_c, 0, 76, 66
2, 95426, Note_on_c, 0, 76, 0
2, 95430, Note_on_c, 0, 78, 67
2, 95456, Note_on_c, 0, 78, 0
2, 95460, Note_on_c, 0, 80, 67
2, 95486, Note_on_c, 0, 80, 0
2, 95490, Note_on_c, 0, 78, 67
2, 95516, Note_on_c, 0, 78, 0
2, 95520, Note_on_c, 0, 76, 67
2, 95546, Note_on_c, 0, 76, 0
2, 95550, Note_on_c, 0, 78, 67
2, 95576, Note_on_c, 0, 78, 0
2, 95580, Note_on_c, 0, 80, 67
2, 95606, Note_on_c, 0, 80, 0
2, 95610, Note_on_c, 0, 78, 67
2, 95636, Note_on_c, 0, 78, 0
2, 95640, Note_on_c, 0, 76, 67
2, 95692, Note_on_c, 0, 76, 0
2, 96000, Note_on_c, 0, 73, 70
2, 96026, Note_on_c, 0, 73, 0
2, 96030, Note_on_c, 0, 71, 69
2, 96056, Note_on_c, 0, 71, 0
2, 96060, Note_on_c, 0, 73, 69
2, 96086, Note_on_c, 0, 73, 0
2, 96090, Note_on_c, 0, 68, 69
2, 96116, Note_on_c, 0, 68, 0
2, 96120, Note_on_c, 0, 69, 69
2, 96146, Note_on_c, 0, 69, 0
2, 96150, Note_on_c, 0, 68, 69
2, 96176, Note_on_c, 0, 68, 0
2, 96180, Note_on_c, 0, 69, 69
2, 96206, Note_on_c, 0, 69, 0
2, 96210, Note_on_c, 0, 66, 69
2, 96236, Note_on_c, 0, 66, 0
2, 96240, Note_on_c, 0, 71, 69
2, 96266, Note_on_c, 0, 71, 0
2, 96270, Note_on_c, 0, 69, 69
2, 96296, Note_on_c, 0, 69, 0
2, 96300, Note_on_c, 0, 71, 69
2, 96326, Note_on_c, 0, 71, 0
2, 96330, Note_on_c, 0, 66, 69
2, 96356, Note_on_c, 0, 66, 0
2, 96360, Note_on_c, 0, 68, 69
2, 96386, Note_on_c, 0, 68, 0
2, 96390, Note_on_c, 0, 66, 69
2, 96416, Note_on_c, 0, 66, 0
2, 96420, Note_on_c, 0, 68, 69
2, 96446, Note_on_c, 0, 68, 0
2, 96450, Note_on_c, 0, 64, 69
2, 96476, Note_on_c, 0, 64, 0
2, 96480, Note_on_c, 0, 76, 69
2, 96532, Note_on_c, 0, 76, 0
2, 96540, Note_on_c, 0, 76, 60
2, 96592, Note_on_c, 0, 76, 0
2, 96600, Note_on_c, 0, 76, 60
2, 96705, Note_on_c, 0, 76, 0
2, 96780, Note_on_c, 0, 75, 60
2, 96832, Note_on_c, 0, 75, 0
2, 96840, Note_on_c, 0, 76, 61
2, 96945, Note_on_c, 0, 76, 0
2, 97020, Note_on_c, 0, 76, 61
2, 97072, Note_on_c, 0, 76, 0
2, 97080, Note_on_c, 0, 74, 61
2, 97185, Note_on_c, 0, 74, 0
2, 97260, Note_on_c, 0, 74, 61
2, 97312, Note_on_c, 0, 74, 0
2, 97320, Note_on_c, 0, 73, 61
2, 97466, Note_on_c, 0, 73, 0
2, 97470, Note_on_c, 0, 71, 61
2, 97496, Note_on_c, 0, 71, 0
2, 97500, Note_on_c, 0, 73, 61
2, 97526, Note_on_c, 0, 73, 0
2, 97530, Note_on_c, 0, 69, 63
2, 97556, Note_on_c, 0, 69, 0
2, 97560, Note_on_c, 0, 71, 62
2, 97586, Note_on_c, 0, 71, 0
2, 97590, Note_on_c, 0, 76, 62
2, 97616, Note_on_c, 0, 76, 0
2, 97620, Note_on_c, 0, 81, 62
2, 97646, Note_on_c, 0, 81, 0
2, 97650, Note_on_c, 0, 69, 66
2, 97663, Note_on_c, 0, 69, 0
2, 97680, Note_on_c, 0, 69, 67
2, 97693, Note_on_c, 0, 69, 0
2, 97695, Note_on_c, 0, 68, 67
2, 97708, Note_on_c, 0, 68, 0
2, 97710, Note_on_c, 0, 69, 61
2, 97761, Note_on_c, 0, 69, 0
2, 97770, Note_on_c, 0, 68, 66
2, 97796, Note_on_c, 0, 68, 0
2, 97797, Program_c, 0, 16
2, 97797, Control_c, 0, 0, 0
2, 97797, Control_c, 0, 11, 110
2, 97797, Control_c, 0, 64, 0
2, 97797, Control_c, 0, 91, 120
2, 97797, Control_c, 0, 93, 127
2, 97797, Control_c, 0, 7, 50
2, 97798, Control_c, 0, 10, 40
2, 97800, Note_on_c, 0, 69, 66
2, 97826, Note_on_c, 0, 69, 0
2, 97830, Note_on_c, 0, 71, 64
2, 97856, Note_on_c, 0, 71, 0
2, 97860, Note_on_c, 0, 73, 64
2, 97886, Note_on_c, 0, 73, 0
2, 97890, Note_on_c, 0, 71, 64
2, 97916, Note_on_c, 0, 71, 0
2, 97920, Note_on_c, 0, 69, 64
2, 97946, Note_on_c, 0, 69, 0
2, 97950, Note_on_c, 0, 71, 64
2, 97976, Note_on_c, 0, 71, 0
2, 97980, Note_on_c, 0, 73, 64
2, 98006, Note_on_c, 0, 73, 0
2, 98010, Note_on_c, 0, 71, 64
2, 98036, Note_on_c, 0, 71, 0
2, 98040, Note_on_c, 0, 69, 64
2, 98066, Note_on_c, 0, 69, 0
2, 98070, Note_on_c, 0, 71, 64
2, 98096, Note_on_c, 0, 71, 0
2, 98100, Note_on_c, 0, 73, 64
2, 98126, Note_on_c, 0, 73, 0
2, 98130, Note_on_c, 0, 71, 64
2, 98156, Note_on_c, 0, 71, 0
2, 98160, Note_on_c, 0, 69, 64
2, 98186, Note_on_c, 0, 69, 0
2, 98190, Note_on_c, 0, 71, 64
2, 98216, Note_on_c, 0, 71, 0
2, 98220, Note_on_c, 0, 73, 64
2, 98246, Note_on_c, 0, 73, 0
2, 98250, Note_on_c, 0, 71, 64
2, 98276, Note_on_c, 0, 71, 0
2, 98280, Note_on_c, 0, 69, 64
2, 98385, Note_on_c, 0, 69, 0
2, 98640, Note_on_c, 0, 78, 86
2, 98666, Note_on_c, 0, 78, 0
2, 98670, Note_on_c, 0, 76, 86
2, 98696, Note_on_c, 0, 76, 0
2, 98700, Note_on_c, 0, 78, 85
2, 98726, Note_on_c, 0, 78, 0
2, 98730, Note_on_c, 0, 73, 83
2, 98756, Note_on_c, 0, 73, 0
2, 98760, Note_on_c, 0, 74, 82
2, 98786, Note_on_c, 0, 74, 0
2, 98790, Note_on_c, 0, 73, 80
2, 98816, Note_on_c, 0, 73, 0
2, 98820, Note_on_c, 0, 74, 80
2, 98846, Note_on_c, 0, 74, 0
2, 98850, Note_on_c, 0, 71, 78
2, 98876, Note_on_c, 0, 71, 0
2, 98880, Note_on_c, 0, 76, 78
2, 98906, Note_on_c, 0, 76, 0
2, 98910, Note_on_c, 0, 74, 78
2, 98936, Note_on_c, 0, 74, 0
2, 98940, Note_on_c, 0, 76, 78
2, 98966, Note_on_c, 0, 76, 0
2, 98970, Note_on_c, 0, 71, 78
2, 98996, Note_on_c, 0, 71, 0
2, 99000, Note_on_c, 0, 73, 78
2, 99026, Note_on_c, 0, 73, 0
2, 99030, Note_on_c, 0, 71, 78
2, 99056, Note_on_c, 0, 71, 0
2, 99060, Note_on_c, 0, 73, 78
2, 99086, Note_on_c, 0, 73, 0
2, 99090, Note_on_c, 0, 69, 78
2, 99116, Note_on_c, 0, 69, 0
2, 99120, Note_on_c, 0, 74, 78
2, 99146, Note_on_c, 0, 74, 0
2, 99150, Note_on_c, 0, 73, 78
2, 99176, Note_on_c, 0, 73, 0
2, 99180, Note_on_c, 0, 74, 78
2, 99206, Note_on_c, 0, 74, 0
2, 99210, Note_on_c, 0, 69, 78
2, 99236, Note_on_c, 0, 69, 0
2, 99240, Note_on_c, 0, 71, 78
2, 99266, Note_on_c, 0, 71, 0
2, 99270, Note_on_c, 0, 69, 78
2, 99296, Note_on_c, 0, 69, 0
2, 99300, Note_on_c, 0, 71, 78
2, 99326, Note_on_c, 0, 71, 0
2, 99330, Note_on_c, 0, 68, 78
2, 99356, Note_on_c, 0, 68, 0
2, 99360, Note_on_c, 0, 73, 78
2, 99386, Note_on_c, 0, 73, 0
2, 99390, Note_on_c, 0, 71, 78
2, 99416, Note_on_c, 0, 71, 0
2, 99420, Note_on_c, 0, 73, 76
2, 99446, Note_on_c, 0, 73, 0
2, 99450, Note_on_c, 0, 68, 76
2, 99476, Note_on_c, 0, 68, 0
2, 99480, Note_on_c, 0, 69, 76
2, 99506, Note_on_c, 0, 69, 0
2, 99510, Note_on_c, 0, 68, 76
2, 99536, Note_on_c, 0, 68, 0
2, 99540, Note_on_c, 0, 69, 75
2, 99566, Note_on_c, 0, 69, 0
2, 99570, Note_on_c, 0, 66, 75
2, 99596, Note_on_c, 0, 66, 0
2, 99600, Note_on_c, 0, 71, 75
2, 99626, Note_on_c, 0, 71, 0
2, 99630, Note_on_c, 0, 69, 75
2, 99656, Note_on_c, 0, 69, 0
2, 99660, Note_on_c, 0, 71, 75
2, 99686, Note_on_c, 0, 71, 0
2, 99690, Note_on_c, 0, 66, 75
2, 99716, Note_on_c, 0, 66, 0
2, 99720, Note_on_c, 0, 68, 76
2, 99746, Note_on_c, 0, 68, 0
2, 99750, Note_on_c, 0, 66, 78
2, 99776, Note_on_c, 0, 66, 0
2, 99780, Note_on_c, 0, 68, 78
2, 99806, Note_on_c, 0, 68, 0
2, 99810, Note_on_c, 0, 64, 78
2, 99836, Note_on_c, 0, 64, 0
2, 99840, Note_on_c, 0, 69, 78
2, 99986, Note_on_c, 0, 69, 0
2, 99990, Note_on_c, 0, 68, 79
2, 100016, Note_on_c, 0, 68, 0
2, 100020, Note_on_c, 0, 69, 82
2, 100046, Note_on_c, 0, 69, 0
2, 100050, Note_on_c, 0, 66, 85
2, 100076, Note_on_c, 0, 66, 0
2, 100080, Note_on_c, 0, 71, 86
2, 100226, Note_on_c, 0, 71, 0
2, 100230, Note_on_c, 0, 69, 87
2, 100256, Note_on_c, 0, 69, 0
2, 100260, Note_on_c, 0, 71, 90
2, 100286, Note_on_c, 0, 71, 0
2, 100290, Note_on_c, 0, 68, 89
2, 100316, Note_on_c, 0, 68, 0
2, 100320, Note_on_c, 0, 73, 94
2, 100466, Note_on_c, 0, 73, 0
2, 100470, Note_on_c, 0, 71, 92
2, 100496, Note_on_c, 0, 71, 0
2, 100500, Note_on_c, 0, 73, 91
2, 100526, Note_on_c, 0, 73, 0
2, 100530, Note_on_c, 0, 69, 91
2, 100556, Note_on_c, 0, 69, 0
2, 100560, Note_on_c, 0, 74, 91
2, 100586, Note_on_c, 0, 74, 0
2, 100590, Note_on_c, 0, 73, 97
2, 100616, Note_on_c, 0, 73, 0
2, 100620, Note_on_c, 0, 74, 97
2, 100646, Note_on_c, 0, 74, 0
2, 100650, Note_on_c, 0, 73, 97
2, 100676, Note_on_c, 0, 73, 0
2, 100680, Note_on_c, 0, 74, 97
2, 100706, Note_on_c, 0, 74, 0
2, 100710, Note_on_c, 0, 73, 96
2, 100736, Note_on_c, 0, 73, 0
2, 100740, Note_on_c, 0, 71, 96
2, 100766, Note_on_c, 0, 71, 0
2, 100770, Note_on_c, 0, 74, 98
2, 100796, Note_on_c, 0, 74, 0
2, 100800, Note_on_c, 0, 73, 98
2, 100852, Note_on_c, 0, 73, 0
2, 100860, Note_on_c, 0, 71, 105
2, 100886, Note_on_c, 0, 71, 0
2, 100890, Note_on_c, 0, 69, 107
2, 100916, Note_on_c, 0, 69, 0
2, 100920, Note_on_c, 0, 69, 106
2, 100972, Note_on_c, 0, 69, 0
2, 101397, Program_c, 0, 19
2, 101397, Control_c, 0, 0, 0
2, 101397, Control_c, 0, 11, 120
2, 101397, Control_c, 0, 64, 0
2, 101397, Control_c, 0, 91, 40
2, 101397, Control_c, 0, 93, 20
2, 101397, Control_c, 0, 7, 100
2, 101398, Control_c, 0, 10, 40
2, 101400, Note_on_c, 0, 76, 75
2, 101426, Note_on_c, 0, 76, 0
2, 101430, Note_on_c, 0, 78, 75
2, 101456, Note_on_c, 0, 78, 0
2, 101460, Note_on_c, 0, 79, 75
2, 101486, Note_on_c, 0, 79, 0
2, 101490, Note_on_c, 0, 78, 75
2, 101516, Note_on_c, 0, 78, 0
2, 101520, Note_on_c, 0, 76, 75
2, 101546, Note_on_c, 0, 76, 0
2, 101550, Note_on_c, 0, 78, 75
2, 101576, Note_on_c, 0, 78, 0
2, 101580, Note_on_c, 0, 79, 75
2, 101606, Note_on_c, 0, 79, 0
2, 101610, Note_on_c, 0, 78, 75
2, 101636, Note_on_c, 0, 78, 0
2, 101640, Note_on_c, 0, 76, 75
2, 101666, Note_on_c, 0, 76, 0
2, 101670, Note_on_c, 0, 78, 75
2, 101696, Note_on_c, 0, 78, 0
2, 101700, Note_on_c, 0, 79, 75
2, 101726, Note_on_c, 0, 79, 0
2, 101730, Note_on_c, 0, 78, 75
2, 101756, Note_on_c, 0, 78, 0
2, 101760, Note_on_c, 0, 76, 76
2, 101786, Note_on_c, 0, 76, 0
2, 101790, Note_on_c, 0, 78, 76
2, 101816, Note_on_c, 0, 78, 0
2, 101820, Note_on_c, 0, 79, 75
2, 101846, Note_on_c, 0, 79, 0
2, 101850, Note_on_c, 0, 78, 75
2, 101876, Note_on_c, 0, 78, 0
2, 101880, Note_on_c, 0, 76, 71
2, 101985, Note_on_c, 0, 76, 0
2, 102360, Note_on_c, 0, 73, 73
2, 102386, Note_on_c, 0, 73, 0
2, 102390, Note_on_c, 0, 74, 73
2, 102416, Note_on_c, 0, 74, 0
2, 102420, Note_on_c, 0, 76, 74
2, 102446, Note_on_c, 0, 76, 0
2, 102450, Note_on_c, 0, 74, 74
2, 102476, Note_on_c, 0, 74, 0
2, 102480, Note_on_c, 0, 73, 74
2, 102506, Note_on_c, 0, 73, 0
2, 102510, Note_on_c, 0, 74, 74
2, 102536, Note_on_c, 0, 74, 0
2, 102540, Note_on_c, 0, 76, 75
2, 102566, Note_on_c, 0, 76, 0
2, 102570, Note_on_c, 0, 74, 75
2, 102596, Note_on_c, 0, 74, 0
2, 102600, Note_on_c, 0, 73, 76
2, 102626, Note_on_c, 0, 73, 0
2, 102630, Note_on_c, 0, 74, 75
2, 102656, Note_on_c, 0, 74, 0
2, 102660, Note_on_c, 0, 76, 75
2, 102686, Note_on_c, 0, 76, 0
2, 102690, Note_on_c, 0, 74, 75
2, 102716, Note_on_c, 0, 74, 0
2, 102720, Note_on_c, 0, 73, 75
2, 102746, Note_on_c, 0, 73, 0
2, 102750, Note_on_c, 0, 74, 75
2, 102776, Note_on_c, 0, 74, 0
2, 102780, Note_on_c, 0, 76, 75
2, 102806, Note_on_c, 0, 76, 0
2, 102810, Note_on_c, 0, 74, 75
2, 102836, Note_on_c, 0, 74, 0
2, 102840, Note_on_c, 0, 73, 75
2, 102866, Note_on_c, 0, 73, 0
2, 102870, Note_on_c, 0, 71, 76
2, 102896, Note_on_c, 0, 71, 0
2, 102900, Note_on_c, 0, 73, 76
2, 102926, Note_on_c, 0, 73, 0
2, 102930, Note_on_c, 0, 69, 77
2, 102956, Note_on_c, 0, 69, 0
2, 102960, Note_on_c, 0, 74, 77
2, 102986, Note_on_c, 0, 74, 0
2, 102990, Note_on_c, 0, 76, 76
2, 103016, Note_on_c, 0, 76, 0
2, 103020, Note_on_c, 0, 78, 76
2, 103046, Note_on_c, 0, 78, 0
2, 103050, Note_on_c, 0, 76, 77
2, 103076, Note_on_c, 0, 76, 0
2, 103080, Note_on_c, 0, 74, 77
2, 103106, Note_on_c, 0, 74, 0
2, 103110, Note_on_c, 0, 73, 78
2, 103136, Note_on_c, 0, 73, 0
2, 103140, Note_on_c, 0, 74, 78
2, 103166, Note_on_c, 0, 74, 0
2, 103170, Note_on_c, 0, 71, 77
2, 103196, Note_on_c, 0, 71, 0
2, 103200, Note_on_c, 0, 76, 77
2, 103226, Note_on_c, 0, 76, 0
2, 103230, Note_on_c, 0, 78, 77
2, 103256, Note_on_c, 0, 78, 0
2, 103260, Note_on_c, 0, 79, 77
2, 103286, Note_on_c, 0, 79, 0
2, 103290, Note_on_c, 0, 78, 78
2, 103316, Note_on_c, 0, 78, 0
2, 103320, Note_on_c, 0, 76, 78
2, 103346, Note_on_c, 0, 76, 0
2, 103350, Note_on_c, 0, 74, 77
2, 103376, Note_on_c, 0, 74, 0
2, 103380, Note_on_c, 0, 76, 78
2, 103406, Note_on_c, 0, 76, 0
2, 103410, Note_on_c, 0, 73, 79
2, 103436, Note_on_c, 0, 73, 0
2, 103440, Note_on_c, 0, 74, 79
2, 103466, Note_on_c, 0, 74, 0
2, 103470, Note_on_c, 0, 76, 78
2, 103496, Note_on_c, 0, 76, 0
2, 103500, Note_on_c, 0, 78, 79
2, 103526, Note_on_c, 0, 78, 0
2, 103530, Note_on_c, 0, 76, 80
2, 103556, Note_on_c, 0, 76, 0
2, 103560, Note_on_c, 0, 74, 80
2, 103586, Note_on_c, 0, 74, 0
2, 103590, Note_on_c, 0, 73, 80
2, 103616, Note_on_c, 0, 73, 0
2, 103620, Note_on_c, 0, 74, 81
2, 103646, Note_on_c, 0, 74, 0
2, 103650, Note_on_c, 0, 71, 82
2, 103676, Note_on_c, 0, 71, 0
2, 103680, Note_on_c, 0, 76, 82
2, 103706, Note_on_c, 0, 76, 0
2, 103710, Note_on_c, 0, 78, 82
2, 103736, Note_on_c, 0, 78, 0
2, 103740, Note_on_c, 0, 79, 82
2, 103766, Note_on_c, 0, 79, 0
2, 103770, Note_on_c, 0, 78, 82
2, 103796, Note_on_c, 0, 78, 0
2, 103800, Note_on_c, 0, 76, 81
2, 103826, Note_on_c, 0, 76, 0
2, 103830, Note_on_c, 0, 74, 81
2, 103856, Note_on_c, 0, 74, 0
2, 103860, Note_on_c, 0, 76, 81
2, 103886, Note_on_c, 0, 76, 0
2, 103890, Note_on_c, 0, 73, 81
2, 103916, Note_on_c, 0, 73, 0
2, 103920, Note_on_c, 0, 78, 81
2, 103946, Note_on_c, 0, 78, 0
2, 103950, Note_on_c, 0, 79, 82
2, 103976, Note_on_c, 0, 79, 0
2, 103980, Note_on_c, 0, 81, 82
2, 104006, Note_on_c, 0, 81, 0
2, 104010, Note_on_c, 0, 79, 83
2, 104036, Note_on_c, 0, 79, 0
2, 104040, Note_on_c, 0, 78, 83
2, 104066, Note_on_c, 0, 78, 0
2, 104070, Note_on_c, 0, 76, 83
2, 104096, Note_on_c, 0, 76, 0
2, 104100, Note_on_c, 0, 78, 82
2, 104126, Note_on_c, 0, 78, 0
2, 104130, Note_on_c, 0, 74, 82
2, 104156, Note_on_c, 0, 74, 0
2, 104160, Note_on_c, 0, 79, 84
2, 104186, Note_on_c, 0, 79, 0
2, 104190, Note_on_c, 0, 81, 84
2, 104216, Note_on_c, 0, 81, 0
2, 104220, Note_on_c, 0, 83, 84
2, 104246, Note_on_c, 0, 83, 0
2, 104250, Note_on_c, 0, 81, 83
2, 104276, Note_on_c, 0, 81, 0
2, 104280, Note_on_c, 0, 79, 83
2, 104306, Note_on_c, 0, 79, 0
2, 104310, Note_on_c, 0, 78, 83
2, 104336, Note_on_c, 0, 78, 0
2, 104340, Note_on_c, 0, 79, 84
2, 104366, Note_on_c, 0, 79, 0
2, 104370, Note_on_c, 0, 76, 83
2, 104396, Note_on_c, 0, 76, 0
2, 104400, Note_on_c, 0, 78, 83
2, 104426, Note_on_c, 0, 78, 0
2, 104430, Note_on_c, 0, 79, 83
2, 104456, Note_on_c, 0, 79, 0
2, 104460, Note_on_c, 0, 81, 83
2, 104486, Note_on_c, 0, 81, 0
2, 104490, Note_on_c, 0, 79, 84
2, 104516, Note_on_c, 0, 79, 0
2, 104520, Note_on_c, 0, 78, 85
2, 104546, Note_on_c, 0, 78, 0
2, 104550, Note_on_c, 0, 76, 86
2, 104576, Note_on_c, 0, 76, 0
2, 104580, Note_on_c, 0, 78, 86
2, 104606, Note_on_c, 0, 78, 0
2, 104610, Note_on_c, 0, 74, 86
2, 104636, Note_on_c, 0, 74, 0
2, 104640, Note_on_c, 0, 79, 85
2, 104666, Note_on_c, 0, 79, 0
2, 104670, Note_on_c, 0, 81, 85
2, 104696, Note_on_c, 0, 81, 0
2, 104700, Note_on_c, 0, 83, 86
2, 104726, Note_on_c, 0, 83, 0
2, 104730, Note_on_c, 0, 81, 85
2, 104756, Note_on_c, 0, 81, 0
2, 104760, Note_on_c, 0, 79, 85
2, 104786, Note_on_c, 0, 79, 0
2, 104790, Note_on_c, 0, 78, 85
2, 104816, Note_on_c, 0, 78, 0
2, 104820, Note_on_c, 0, 79, 85
2, 104846, Note_on_c, 0, 79, 0
2, 104850, Note_on_c, 0, 76, 85
2, 104876, Note_on_c, 0, 76, 0
2, 104880, Note_on_c, 0, 78, 86
2, 104906, Note_on_c, 0, 78, 0
2, 104910, Note_on_c, 0, 76, 85
2, 104936, Note_on_c, 0, 76, 0
2, 104940, Note_on_c, 0, 74, 85
2, 104966, Note_on_c, 0, 74, 0
2, 104970, Note_on_c, 0, 76, 86
2, 104996, Note_on_c, 0, 76, 0
2, 105000, Note_on_c, 0, 73, 89
2, 105105, Note_on_c, 0, 73, 0
2, 105150, Note_on_c, 0, 73, 88
2, 105176, Note_on_c, 0, 73, 0
2, 105180, Note_on_c, 0, 74, 88
2, 105206, Note_on_c, 0, 74, 0
2, 105210, Note_on_c, 0, 73, 88
2, 105236, Note_on_c, 0, 73, 0
2, 105240, Note_on_c, 0, 74, 87
2, 105345, Note_on_c, 0, 74, 0
2, 105390, Note_on_c, 0, 74, 88
2, 105416, Note_on_c, 0, 74, 0
2, 105420, Note_on_c, 0, 76, 89
2, 105446, Note_on_c, 0, 76, 0
2, 105450, Note_on_c, 0, 74, 89
2, 105476, Note_on_c, 0, 74, 0
2, 105480, Note_on_c, 0, 76, 90
2, 105585, Note_on_c, 0, 76, 0
2, 105630, Note_on_c, 0, 73, 89
2, 105656, Note_on_c, 0, 73, 0
2, 105660, Note_on_c, 0, 74, 89
2, 105686, Note_on_c, 0, 74, 0
2, 105690, Note_on_c, 0, 73, 89
2, 105716, Note_on_c, 0, 73, 0
2, 105720, Note_on_c, 0, 74, 89
2, 105825, Note_on_c, 0, 74, 0
2, 105870, Note_on_c, 0, 74, 89
2, 105896, Note_on_c, 0, 74, 0
2, 105900, Note_on_c, 0, 76, 89
2, 105926, Note_on_c, 0, 76, 0
2, 105930, Note_on_c, 0, 74, 89
2, 105956, Note_on_c, 0, 74, 0
2, 105960, Note_on_c, 0, 76, 89
2, 106065, Note_on_c, 0, 76, 0
2, 106110, Note_on_c, 0, 73, 89
2, 106136, Note_on_c, 0, 73, 0
2, 106140, Note_on_c, 0, 74, 89
2, 106166, Note_on_c, 0, 74, 0
2, 106170, Note_on_c, 0, 73, 89
2, 106196, Note_on_c, 0, 73, 0
2, 106200, Note_on_c, 0, 74, 89
2, 106305, Note_on_c, 0, 74, 0
2, 106350, Note_on_c, 0, 71, 87
2, 106376, Note_on_c, 0, 71, 0
2, 106380, Note_on_c, 0, 73, 89
2, 106406, Note_on_c, 0, 73, 0
2, 106410, Note_on_c, 0, 71, 90
2, 106436, Note_on_c, 0, 71, 0
2, 106440, Note_on_c, 0, 73, 90
2, 106466, Note_on_c, 0, 73, 0
2, 106470, Note_on_c, 0, 74, 89
2, 106496, Note_on_c, 0, 74, 0
2, 106500, Note_on_c, 0, 76, 90
2, 106526, Note_on_c, 0, 76, 0
2, 106530, Note_on_c, 0, 74, 91
2, 106556, Note_on_c, 0, 74, 0
2, 106560, Note_on_c, 0, 73, 92
2, 106586, Note_on_c, 0, 73, 0
2, 106590, Note_on_c, 0, 74, 91
2, 106616, Note_on_c, 0, 74, 0
2, 106620, Note_on_c, 0, 76, 91
2, 106646, Note_on_c, 0, 76, 0
2, 106650, Note_on_c, 0, 74, 91
2, 106676, Note_on_c, 0, 74, 0
2, 106680, Note_on_c, 0, 73, 91
2, 106706, Note_on_c, 0, 73, 0
2, 106710, Note_on_c, 0, 74, 91
2, 106736, Note_on_c, 0, 74, 0
2, 106740, Note_on_c, 0, 76, 92
2, 106766, Note_on_c, 0, 76, 0
2, 106770, Note_on_c, 0, 74, 92
2, 106796, Note_on_c, 0, 74, 0
2, 106800, Note_on_c, 0, 73, 93
2, 106826, Note_on_c, 0, 73, 0
2, 106830, Note_on_c, 0, 74, 92
2, 106856, Note_on_c, 0, 74, 0
2, 106860, Note_on_c, 0, 76, 92
2, 106886, Note_on_c, 0, 76, 0
2, 106890, Note_on_c, 0, 74, 93
2, 106916, Note_on_c, 0, 74, 0
2, 106920, Note_on_c, 0, 73, 94
2, 106946, Note_on_c, 0, 73, 0
2, 106950, Note_on_c, 0, 74, 93
2, 106976, Note_on_c, 0, 74, 0
2, 106980, Note_on_c, 0, 76, 93
2, 107006, Note_on_c, 0, 76, 0
2, 107010, Note_on_c, 0, 74, 93
2, 107036, Note_on_c, 0, 74, 0
2, 107040, Note_on_c, 0, 73, 93
2, 107066, Note_on_c, 0, 73, 0
2, 107070, Note_on_c, 0, 74, 94
2, 107096, Note_on_c, 0, 74, 0
2, 107100, Note_on_c, 0, 76, 93
2, 107126, Note_on_c, 0, 76, 0
2, 107130, Note_on_c, 0, 74, 93
2, 107156, Note_on_c, 0, 74, 0
2, 107160, Note_on_c, 0, 73, 93
2, 107186, Note_on_c, 0, 73, 0
2, 107190, Note_on_c, 0, 74, 93
2, 107216, Note_on_c, 0, 74, 0
2, 107220, Note_on_c, 0, 76, 93
2, 107246, Note_on_c, 0, 76, 0
2, 107250, Note_on_c, 0, 74, 93
2, 107276, Note_on_c, 0, 74, 0
2, 107280, Note_on_c, 0, 73, 93
2, 107306, Note_on_c, 0, 73, 0
2, 107310, Note_on_c, 0, 74, 93
2, 107336, Note_on_c, 0, 74, 0
2, 107340, Note_on_c, 0, 76, 94
2, 107366, Note_on_c, 0, 76, 0
2, 107370, Note_on_c, 0, 73, 93
2, 107396, Note_on_c, 0, 73, 0
2, 107400, Note_on_c, 0, 74, 93
2, 107426, Note_on_c, 0, 74, 0
2, 107430, Note_on_c, 0, 76, 93
2, 107456, Note_on_c, 0, 76, 0
2, 107460, Note_on_c, 0, 78, 93
2, 107486, Note_on_c, 0, 78, 0
2, 107490, Note_on_c, 0, 76, 93
2, 107516, Note_on_c, 0, 76, 0
2, 107520, Note_on_c, 0, 74, 93
2, 107546, Note_on_c, 0, 74, 0
2, 107550, Note_on_c, 0, 76, 93
2, 107576, Note_on_c, 0, 76, 0
2, 107580, Note_on_c, 0, 78, 93
2, 107606, Note_on_c, 0, 78, 0
2, 107610, Note_on_c, 0, 76, 93
2, 107636, Note_on_c, 0, 76, 0
2, 107640, Note_on_c, 0, 74, 93
2, 107666, Note_on_c, 0, 74, 0
2, 107670, Note_on_c, 0, 78, 95
2, 107696, Note_on_c, 0, 78, 0
2, 107700, Note_on_c, 0, 74, 95
2, 107726, Note_on_c, 0, 74, 0
2, 107730, Note_on_c, 0, 69, 96
2, 107756, Note_on_c, 0, 69, 0
2, 107877, Program_c, 0, 19
2, 107877, Control_c, 0, 0, 0
2, 107877, Control_c, 0, 11, 110
2, 107877, Control_c, 0, 64, 0
2, 107877, Control_c, 0, 91, 80
2, 107877, Control_c, 0, 93, 60
2, 107877, Control_c, 0, 7, 120
2, 107878, Control_c, 0, 10, 40
2, 107880, Note_on_c, 0, 69, 76
2, 107906, Note_on_c, 0, 69, 0
2, 107910, Note_on_c, 0, 73, 77
2, 107936, Note_on_c, 0, 73, 0
2, 107940, Note_on_c, 0, 69, 78
2, 107966, Note_on_c, 0, 69, 0
2, 107970, Note_on_c, 0, 66, 77
2, 107996, Note_on_c, 0, 66, 0
2, 108120, Note_on_c, 0, 66, 66
2, 108146, Note_on_c, 0, 66, 0
2, 108150, Note_on_c, 0, 69, 66
2, 108176, Note_on_c, 0, 69, 0
2, 108180, Note_on_c, 0, 66, 67
2, 108206, Note_on_c, 0, 66, 0
2, 108210, Note_on_c, 0, 62, 68
2, 108236, Note_on_c, 0, 62, 0
2, 108360, Note_on_c, 0, 62, 53
2, 108386, Note_on_c, 0, 62, 0
2, 108390, Note_on_c, 0, 66, 53
2, 108416, Note_on_c, 0, 66, 0
2, 108420, Note_on_c, 0, 62, 53
2, 108446, Note_on_c, 0, 62, 0
2, 108450, Note_on_c, 0, 57, 53
2, 108476, Note_on_c, 0, 57, 0
2, 109138, Program_c, 0, 19
2, 109138, Control_c, 0, 0, 0
2, 109138, Control_c, 0, 11, 120
2, 109138, Control_c, 0, 64, 0
2, 109138, Control_c, 0, 91, 50
2, 109138, Control_c, 0, 93, 20
2, 109138, Control_c, 0, 7, 107
2, 109139, Control_c, 0, 10, 40
2, 109140, Note_on_c, 0, 81, 87
2, 109192, Note_on_c, 0, 81, 0
2, 109200, Note_on_c, 0, 81, 88
2, 109252, Note_on_c, 0, 81, 0
2, 109260, Note_on_c, 0, 81, 88
2, 109312, Note_on_c, 0, 81, 0
2, 109320, Note_on_c, 0, 81, 88
2, 109372, Note_on_c, 0, 81, 0
2, 109500, Note_on_c, 0, 74, 64
2, 109500, Note_on_c, 0, 78, 64
2, 109552, Note_on_c, 0, 78, 0
2, 109552, Note_on_c, 0, 74, 0
2, 109560, Note_on_c, 0, 74, 64
2, 109560, Note_on_c, 0, 76, 64
2, 109665, Note_on_c, 0, 76, 0
2, 109665, Note_on_c, 0, 74, 0
2, 109740, Note_on_c, 0, 73, 64
2, 109740, Note_on_c, 0, 76, 64
2, 109792, Note_on_c, 0, 76, 0
2, 109792, Note_on_c, 0, 73, 0
2, 109800, Note_on_c, 0, 73, 64
2, 109800, Note_on_c, 0, 74, 64
2, 109905, Note_on_c, 0, 74, 0
2, 109905, Note_on_c, 0, 73, 0
2, 109980, Note_on_c, 0, 71, 64
2, 109980, Note_on_c, 0, 74, 64
2, 110032, Note_on_c, 0, 74, 0
2, 110032, Note_on_c, 0, 71, 0
2, 110040, Note_on_c, 0, 71, 64
2, 110040, Note_on_c, 0, 73, 64
2, 110145, Note_on_c, 0, 73, 0
2, 110145, Note_on_c, 0, 71, 0
2, 110220, Note_on_c, 0, 69, 64
2, 110220, Note_on_c, 0, 73, 64
2, 110272, Note_on_c, 0, 73, 0
2, 110272, Note_on_c, 0, 69, 0
2, 110280, Note_on_c, 0, 69, 64
2, 110280, Note_on_c, 0, 71, 64
2, 110385, Note_on_c, 0, 71, 0
2, 110385, Note_on_c, 0, 69, 0
2, 110460, Note_on_c, 0, 67, 64
2, 110460, Note_on_c, 0, 71, 64
2, 110512, Note_on_c, 0, 71, 0
2, 110512, Note_on_c, 0, 67, 0
2, 110520, Note_on_c, 0, 67, 64
2, 110520, Note_on_c, 0, 69, 64
2, 110625, Note_on_c, 0, 67, 0
2, 110666, Note_on_c, 0, 69, 0
2, 110670, Note_on_c, 0, 71, 78
2, 110696, Note_on_c, 0, 71, 0
2, 110700, Note_on_c, 0, 69, 79
2, 110726, Note_on_c, 0, 69, 0
2, 110730, Note_on_c, 0, 71, 77
2, 110756, Note_on_c, 0, 71, 0
2, 110760, Note_on_c, 0, 67, 64
2, 110906, Note_on_c, 0, 67, 0
2, 110910, Note_on_c, 0, 69, 77
2, 110936, Note_on_c, 0, 69, 0
2, 110940, Note_on_c, 0, 67, 76
2, 110966, Note_on_c, 0, 67, 0
2, 110970, Note_on_c, 0, 69, 75
2, 110996, Note_on_c, 0, 69, 0
2, 111000, Note_on_c, 0, 66, 68
2, 111105, Note_on_c, 0, 66, 0
2, 111180, Note_on_c, 0, 66, 61
2, 111232, Note_on_c, 0, 66, 0
2, 111240, Note_on_c, 0, 64, 60
2, 111345, Note_on_c, 0, 64, 0
2, 111420, Note_on_c, 0, 64, 56
2, 111472, Note_on_c, 0, 64, 0
2, 111480, Note_on_c, 0, 62, 54
2, 111585, Note_on_c, 0, 62, 0
2, 111660, Note_on_c, 0, 62, 54
2, 111712, Note_on_c, 0, 62, 0
2, 111720, Note_on_c, 0, 61, 50
2, 111825, Note_on_c, 0, 61, 0
2, 111900, Note_on_c, 0, 61, 54
2, 111952, Note_on_c, 0, 61, 0
2, 111960, Note_on_c, 0, 59, 50
2, 112065, Note_on_c, 0, 59, 0
2, 112140, Note_on_c, 0, 59, 52
2, 112192, Note_on_c, 0, 59, 0
2, 112200, Note_on_c, 0, 57, 49
2, 112346, Note_on_c, 0, 57, 0
2, 112350, Note_on_c, 0, 57, 80
2, 112376, Note_on_c, 0, 57, 0
2, 112380, Note_on_c, 0, 62, 84
2, 112406, Note_on_c, 0, 62, 0
2, 112410, Note_on_c, 0, 57, 85
2, 112436, Note_on_c, 0, 57, 0
2, 112440, Note_on_c, 0, 66, 86
2, 112466, Note_on_c, 0, 66, 0
2, 112470, Note_on_c, 0, 62, 87
2, 112496, Note_on_c, 0, 62, 0
2, 112500, Note_on_c, 0, 69, 87
2, 112526, Note_on_c, 0, 69, 0
2, 112530, Note_on_c, 0, 66, 87
2, 112556, Note_on_c, 0, 66, 0
2, 112560, Note_on_c, 0, 74, 87
2, 112586, Note_on_c, 0, 74, 0
2, 112590, Note_on_c, 0, 69, 86
2, 112616, Note_on_c, 0, 69, 0
2, 112620, Note_on_c, 0, 78, 87
2, 112646, Note_on_c, 0, 78, 0
2, 112650, Note_on_c, 0, 74, 87
2, 112676, Note_on_c, 0, 74, 0
2, 112680, Note_on_c, 0, 81, 77
2, 112825, Note_on_c, 0, 81, 0
2, 112950, Note_on_c, 0, 81, 87
2, 112976, Note_on_c, 0, 81, 0
2, 112980, Note_on_c, 0, 78, 84
2, 113006, Note_on_c, 0, 78, 0
2, 113010, Note_on_c, 0, 74, 84
2, 113036, Note_on_c, 0, 74, 0
2, 113040, Note_on_c, 0, 69, 83
2, 113066, Note_on_c, 0, 69, 0
2, 113070, Note_on_c, 0, 74, 82
2, 113096, Note_on_c, 0, 74, 0
2, 113100, Note_on_c, 0, 69, 82
2, 113126, Note_on_c, 0, 69, 0
2, 113130, Note_on_c, 0, 66, 81
2, 113156, Note_on_c, 0, 66, 0
2, 113160, Note_on_c, 0, 62, 80
2, 113186, Note_on_c, 0, 62, 0
2, 113190, Note_on_c, 0, 74, 80
2, 113216, Note_on_c, 0, 74, 0
2, 113220, Note_on_c, 0, 69, 79
2, 113246, Note_on_c, 0, 69, 0
2, 113250, Note_on_c, 0, 66, 78
2, 113276, Note_on_c, 0, 66, 0
2, 113280, Note_on_c, 0, 62, 77
2, 113306, Note_on_c, 0, 62, 0
2, 113310, Note_on_c, 0, 69, 77
2, 113336, Note_on_c, 0, 69, 0
2, 113340, Note_on_c, 0, 66, 77
2, 113366, Note_on_c, 0, 66, 0
2, 113370, Note_on_c, 0, 62, 77
2, 113396, Note_on_c, 0, 62, 0
2, 113400, Note_on_c, 0, 57, 77
2, 113452, Note_on_c, 0, 57, 0
2, 116520, Note_on_c, 0, 74, 77
2, 116546, Note_on_c, 0, 74, 0
2, 116550, Note_on_c, 0, 76, 76
2, 116576, Note_on_c, 0, 76, 0
2, 116580, Note_on_c, 0, 78, 77
2, 116606, Note_on_c, 0, 78, 0
2, 116610, Note_on_c, 0, 76, 77
2, 116636, Note_on_c, 0, 76, 0
2, 116640, Note_on_c, 0, 74, 76
2, 116666, Note_on_c, 0, 74, 0
2, 116670, Note_on_c, 0, 76, 77
2, 116696, Note_on_c, 0, 76, 0
2, 116700, Note_on_c, 0, 78, 77
2, 116726, Note_on_c, 0, 78, 0
2, 116730, Note_on_c, 0, 76, 77
2, 116756, Note_on_c, 0, 76, 0
2, 116760, Note_on_c, 0, 74, 69
2, 116860, Note_on_c, 0, 74, 0
2, 117000, Note_on_c, 0, 74, 77
2, 117026, Note_on_c, 0, 74, 0
2, 117030, Note_on_c, 0, 73, 77
2, 117056, Note_on_c, 0, 73, 0
2, 117060, Note_on_c, 0, 74, 77
2, 117086, Note_on_c, 0, 74, 0
2, 117090, Note_on_c, 0, 73, 77
2, 117116, Note_on_c, 0, 73, 0
2, 117120, Note_on_c, 0, 74, 77
2, 117146, Note_on_c, 0, 74, 0
2, 117150, Note_on_c, 0, 73, 77
2, 117176, Note_on_c, 0, 73, 0
2, 117180, Note_on_c, 0, 74, 77
2, 117206, Note_on_c, 0, 74, 0
2, 117210, Note_on_c, 0, 73, 77
2, 117236, Note_on_c, 0, 73, 0
2, 117240, Note_on_c, 0, 74, 74
2, 117292, Note_on_c, 0, 74, 0
2, 117360, Note_on_c, 0, 74, 80
2, 117386, Note_on_c, 0, 74, 0
2, 117390, Note_on_c, 0, 76, 79
2, 117416, Note_on_c, 0, 76, 0
2, 117420, Note_on_c, 0, 78, 80
2, 117446, Note_on_c, 0, 78, 0
2, 117450, Note_on_c, 0, 76, 80
2, 117476, Note_on_c, 0, 76, 0
2, 117480, Note_on_c, 0, 74, 77
2, 117532, Note_on_c, 0, 74, 0
2, 117532, End_track
3, 0, Start_track
3, 0, MIDI_port, 0
3, 0, Title_t, "in D - BWV532 for Organ"
3, 0, Program_c, 1, 19
3, 0, Control_c, 1, 7, 80
3, 0, Control_c, 1, 10, 70
3, 30, Program_c, 1, 19
3, 30, Control_c, 1, 0, 8
3, 30, Control_c, 1, 11, 120
3, 30, Control_c, 1, 64, 0
3, 30, Control_c, 1, 91, 80
3, 30, Control_c, 1, 93, 40
3, 390, Note_on_c, 1, 69, 79
3, 416, Note_on_c, 1, 69, 0
3, 420, Note_on_c, 1, 74, 73
3, 472, Note_on_c, 1, 74, 0
3, 480, Note_on_c, 1, 74, 71
3, 532, Note_on_c, 1, 74, 0
3, 540, Note_on_c, 1, 74, 69
3, 592, Note_on_c, 1, 74, 0
3, 600, Note_on_c, 1, 74, 74
3, 720, Note_on_c, 1, 74, 0
3, 870, Note_on_c, 1, 62, 86
3, 896, Note_on_c, 1, 62, 0
3, 900, Note_on_c, 1, 64, 78
3, 926, Note_on_c, 1, 64, 0
3, 930, Note_on_c, 1, 66, 76
3, 956, Note_on_c, 1, 66, 0
3, 960, Note_on_c, 1, 67, 76
3, 986, Note_on_c, 1, 67, 0
3, 990, Note_on_c, 1, 69, 76
3, 1016, Note_on_c, 1, 69, 0
3, 1020, Note_on_c, 1, 71, 76
3, 1046, Note_on_c, 1, 71, 0
3, 1050, Note_on_c, 1, 73, 79
3, 1076, Note_on_c, 1, 73, 0
3, 1080, Note_on_c, 1, 74, 84
3, 1170, Note_on_c, 1, 74, 0
3, 1350, Note_on_c, 1, 57, 78
3, 1376, Note_on_c, 1, 57, 0
3, 1380, Note_on_c, 1, 62, 70
3, 1432, Note_on_c, 1, 62, 0
3, 1440, Note_on_c, 1, 62, 72
3, 1492, Note_on_c, 1, 62, 0
3, 1500, Note_on_c, 1, 62, 72
3, 1552, Note_on_c, 1, 62, 0
3, 1560, Note_on_c, 1, 62, 77
3, 1680, Note_on_c, 1, 62, 0
3, 1830, Note_on_c, 1, 69, 76
3, 1856, Note_on_c, 1, 69, 0
3, 1860, Note_on_c, 1, 74, 72
3, 1912, Note_on_c, 1, 74, 0
3, 1920, Note_on_c, 1, 74, 73
3, 1972, Note_on_c, 1, 74, 0
3, 1980, Note_on_c, 1, 74, 73
3, 2032, Note_on_c, 1, 74, 0
3, 2040, Note_on_c, 1, 74, 79
3, 2145, Note_on_c, 1, 74, 0
3, 2580, Note_on_c, 1, 74, 87
3, 2606, Note_on_c, 1, 74, 0
3, 2610, Note_on_c, 1, 71, 77
3, 2636, Note_on_c, 1, 71, 0
3, 2640, Note_on_c, 1, 73, 81
3, 2666, Note_on_c, 1, 73, 0
3, 2670, Note_on_c, 1, 71, 78
3, 2696, Note_on_c, 1, 71, 0
3, 2700, Note_on_c, 1, 69, 77
3, 2726, Note_on_c, 1, 69, 0
3, 2730, Note_on_c, 1, 68, 74
3, 2756, Note_on_c, 1, 68, 0
3, 2760, Note_on_c, 1, 69, 75
3, 2786, Note_on_c, 1, 69, 0
3, 2790, Note_on_c, 1, 64, 85
3, 2816, Note_on_c, 1, 64, 0
3, 2820, Note_on_c, 1, 66, 83
3, 2846, Note_on_c, 1, 66, 0
3, 2850, Note_on_c, 1, 68, 88
3, 2876, Note_on_c, 1, 68, 0
3, 2880, Note_on_c, 1, 69, 91
3, 2906, Note_on_c, 1, 69, 0
3, 2910, Note_on_c, 1, 62, 89
3, 2936, Note_on_c, 1, 62, 0
3, 2940, Note_on_c, 1, 61, 85
3, 2966, Note_on_c, 1, 61, 0
3, 2970, Note_on_c, 1, 59, 85
3, 2996, Note_on_c, 1, 59, 0
3, 3000, Note_on_c, 1, 61, 85
3, 3180, Note_on_c, 1, 61, 0
3, 3960, Note_on_c, 1, 64, 64
3, 4200, Note_on_c, 1, 64, 0
3, 5010, Note_on_c, 1, 83, 97
3, 5036, Note_on_c, 1, 83, 0
3, 5040, Note_on_c, 1, 74, 79
3, 5118, Note_on_c, 1, 74, 0
3, 5130, Note_on_c, 1, 78, 79
3, 5156, Note_on_c, 1, 78, 0
3, 5160, Note_on_c, 1, 71, 72
3, 5238, Note_on_c, 1, 71, 0
3, 5250, Note_on_c, 1, 74, 80
3, 5276, Note_on_c, 1, 74, 0
3, 5280, Note_on_c, 1, 68, 72
3, 5358, Note_on_c, 1, 68, 0
3, 5370, Note_on_c, 1, 71, 81
3, 5396, Note_on_c, 1, 71, 0
3, 5400, Note_on_c, 1, 65, 72
3, 6146, Note_on_c, 1, 65, 0
3, 6150, Note_on_c, 1, 65, 74
3, 6176, Note_on_c, 1, 65, 0
3, 6180, Note_on_c, 1, 65, 74
3, 6206, Note_on_c, 1, 65, 0
3, 6210, Note_on_c, 1, 65, 75
3, 6236, Note_on_c, 1, 65, 0
3, 6240, Note_on_c, 1, 65, 79
3, 6266, Note_on_c, 1, 65, 0
3, 6270, Note_on_c, 1, 65, 84
3, 6296, Note_on_c, 1, 65, 0
3, 6300, Note_on_c, 1, 65, 84
3, 6326, Note_on_c, 1, 65, 0
3, 6330, Note_on_c, 1, 65, 85
3, 6356, Note_on_c, 1, 65, 0
3, 6360, Note_on_c, 1, 65, 85
3, 6438, Note_on_c, 1, 65, 0
3, 6450, Note_on_c, 1, 68, 89
3, 6476, Note_on_c, 1, 68, 0
3, 6480, Note_on_c, 1, 66, 77
3, 6558, Note_on_c, 1, 66, 0
3, 6570, Note_on_c, 1, 65, 79
3, 6596, Note_on_c, 1, 65, 0
3, 6600, Note_on_c, 1, 66, 83
3, 6678, Note_on_c, 1, 66, 0
3, 6690, Note_on_c, 1, 62, 80
3, 6716, Note_on_c, 1, 62, 0
3, 6720, Note_on_c, 1, 61, 79
3, 6798, Note_on_c, 1, 61, 0
3, 6810, Note_on_c, 1, 59, 78
3, 6836, Note_on_c, 1, 59, 0
3, 6840, Note_on_c, 1, 61, 83
3, 6960, Note_on_c, 1, 61, 0
3, 7320, Note_on_c, 1, 66, 82
3, 7320, Note_on_c, 1, 69, 82
3, 7680, Note_on_c, 1, 69, 0
3, 7680, Note_on_c, 1, 66, 0
3, 7805, Program_c, 1, 5
3, 7805, Control_c, 1, 0, 0
3, 7805, Control_c, 1, 11, 110
3, 7805, Control_c, 1, 64, 0
3, 7805, Control_c, 1, 91, 40
3, 7805, Control_c, 1, 93, 10
3, 7805, Control_c, 1, 7, 80
3, 7805, Control_c, 1, 10, 30
3, 7810, Note_on_c, 1, 66, 70
3, 7982, Note_on_c, 1, 66, 0
3, 7990, Note_on_c, 1, 66, 64
3, 8042, Note_on_c, 1, 66, 0
3, 8050, Note_on_c, 1, 64, 64
3, 8275, Note_on_c, 1, 64, 0
3, 8290, Note_on_c, 1, 66, 64
3, 8395, Note_on_c, 1, 66, 0
3, 8410, Note_on_c, 1, 67, 64
3, 8515, Note_on_c, 1, 67, 0
3, 8530, Note_on_c, 1, 69, 64
3, 8695, Note_on_c, 1, 69, 0
3, 8710, Note_on_c, 1, 73, 64
3, 8762, Note_on_c, 1, 73, 0
3, 8770, Note_on_c, 1, 71, 64
3, 8822, Note_on_c, 1, 71, 0
3, 8830, Note_on_c, 1, 69, 64
3, 8882, Note_on_c, 1, 69, 0
3, 8890, Note_on_c, 1, 68, 64
3, 8942, Note_on_c, 1, 68, 0
3, 8950, Note_on_c, 1, 64, 64
3, 9002, Note_on_c, 1, 64, 0
3, 9010, Note_on_c, 1, 69, 64
3, 9235, Note_on_c, 1, 69, 0
3, 9250, Note_on_c, 1, 68, 64
3, 9355, Note_on_c, 1, 68, 0
3, 9370, Note_on_c, 1, 69, 64
3, 9475, Note_on_c, 1, 69, 0
3, 9490, Note_on_c, 1, 69, 64
3, 9595, Note_on_c, 1, 69, 0
3, 9610, Note_on_c, 1, 67, 64
3, 9715, Note_on_c, 1, 67, 0
3, 9730, Note_on_c, 1, 64, 64
3, 9955, Note_on_c, 1, 64, 0
3, 9970, Note_on_c, 1, 62, 64
3, 10195, Note_on_c, 1, 62, 0
3, 10210, Note_on_c, 1, 61, 64
3, 10315, Note_on_c, 1, 61, 0
3, 10330, Note_on_c, 1, 62, 64
3, 10435, Note_on_c, 1, 62, 0
3, 10450, Note_on_c, 1, 64, 64
3, 10555, Note_on_c, 1, 64, 0
3, 10570, Note_on_c, 1, 66, 64
3, 10675, Note_on_c, 1, 66, 0
3, 10690, Note_on_c, 1, 64, 64
3, 10795, Note_on_c, 1, 64, 0
3, 10810, Note_on_c, 1, 64, 64
3, 10915, Note_on_c, 1, 64, 0
3, 10930, Note_on_c, 1, 69, 64
3, 11035, Note_on_c, 1, 69, 0
3, 11050, Note_on_c, 1, 71, 64
3, 11155, Note_on_c, 1, 71, 0
3, 11170, Note_on_c, 1, 67, 64
3, 11275, Note_on_c, 1, 67, 0
3, 11290, Note_on_c, 1, 69, 64
3, 11395, Note_on_c, 1, 69, 0
3, 11410, Note_on_c, 1, 66, 64
3, 11515, Note_on_c, 1, 66, 0
3, 11530, Note_on_c, 1, 67, 64
3, 11635, Note_on_c, 1, 67, 0
3, 11650, Note_on_c, 1, 64, 64
3, 11755, Note_on_c, 1, 64, 0
3, 11770, Note_on_c, 1, 66, 64
3, 11875, Note_on_c, 1, 66, 0
3, 11890, Note_on_c, 1, 66, 64
3, 11995, Note_on_c, 1, 66, 0
3, 12010, Note_on_c, 1, 67, 64
3, 12115, Note_on_c, 1, 67, 0
3, 12130, Note_on_c, 1, 66, 64
3, 12235, Note_on_c, 1, 66, 0
3, 12250, Note_on_c, 1, 66, 64
3, 12355, Note_on_c, 1, 66, 0
3, 12370, Note_on_c, 1, 69, 64
3, 12475, Note_on_c, 1, 69, 0
3, 12490, Note_on_c, 1, 68, 64
3, 12715, Note_on_c, 1, 68, 0
3, 12730, Note_on_c, 1, 69, 64
3, 12835, Note_on_c, 1, 69, 0
3, 12850, Note_on_c, 1, 69, 64
3, 12955, Note_on_c, 1, 69, 0
3, 12970, Note_on_c, 1, 71, 64
3, 13075, Note_on_c, 1, 71, 0
3, 13090, Note_on_c, 1, 67, 64
3, 13195, Note_on_c, 1, 67, 0
3, 13210, Note_on_c, 1, 69, 64
3, 13315, Note_on_c, 1, 69, 0
3, 13330, Note_on_c, 1, 66, 64
3, 13435, Note_on_c, 1, 66, 0
3, 13450, Note_on_c, 1, 67, 64
3, 13555, Note_on_c, 1, 67, 0
3, 13570, Note_on_c, 1, 64, 64
3, 13675, Note_on_c, 1, 64, 0
3, 13690, Note_on_c, 1, 66, 64
3, 13795, Note_on_c, 1, 66, 0
3, 13810, Note_on_c, 1, 62, 64
3, 13915, Note_on_c, 1, 62, 0
3, 13930, Note_on_c, 1, 64, 64
3, 14035, Note_on_c, 1, 64, 0
3, 14050, Note_on_c, 1, 61, 64
3, 14155, Note_on_c, 1, 61, 0
3, 14170, Note_on_c, 1, 62, 64
3, 14275, Note_on_c, 1, 62, 0
3, 14290, Note_on_c, 1, 64, 64
3, 14515, Note_on_c, 1, 64, 0
3, 14530, Note_on_c, 1, 62, 64
3, 14755, Note_on_c, 1, 62, 0
3, 14770, Note_on_c, 1, 61, 64
3, 14875, Note_on_c, 1, 61, 0
3, 14890, Note_on_c, 1, 57, 64
3, 14995, Note_on_c, 1, 57, 0
3, 15010, Note_on_c, 1, 74, 64
3, 15235, Note_on_c, 1, 74, 0
3, 15250, Note_on_c, 1, 73, 64
3, 15475, Note_on_c, 1, 73, 0
3, 15490, Note_on_c, 1, 71, 64
3, 15715, Note_on_c, 1, 71, 0
3, 15730, Note_on_c, 1, 70, 64
3, 15835, Note_on_c, 1, 70, 0
3, 15850, Note_on_c, 1, 71, 64
3, 15955, Note_on_c, 1, 71, 0
3, 15970, Note_on_c, 1, 73, 64
3, 16075, Note_on_c, 1, 73, 0
3, 16090, Note_on_c, 1, 71, 64
3, 16315, Note_on_c, 1, 71, 0
3, 16330, Note_on_c, 1, 69, 64
3, 16555, Note_on_c, 1, 69, 0
3, 16570, Note_on_c, 1, 68, 64
3, 16795, Note_on_c, 1, 68, 0
3, 16810, Note_on_c, 1, 66, 64
3, 16915, Note_on_c, 1, 66, 0
3, 16990, Note_on_c, 1, 66, 64
3, 17042, Note_on_c, 1, 66, 0
3, 17050, Note_on_c, 1, 67, 64
3, 17102, Note_on_c, 1, 67, 0
3, 17110, Note_on_c, 1, 71, 64
3, 17162, Note_on_c, 1, 71, 0
3, 17170, Note_on_c, 1, 64, 64
3, 17222, Note_on_c, 1, 64, 0
3, 17230, Note_on_c, 1, 67, 64
3, 17282, Note_on_c, 1, 67, 0
3, 17290, Note_on_c, 1, 66, 64
3, 17342, Note_on_c, 1, 66, 0
3, 17350, Note_on_c, 1, 69, 64
3, 17402, Note_on_c, 1, 69, 0
3, 17410, Note_on_c, 1, 62, 64
3, 17462, Note_on_c, 1, 62, 0
3, 17470, Note_on_c, 1, 66, 64
3, 17522, Note_on_c, 1, 66, 0
3, 17530, Note_on_c, 1, 64, 64
3, 17582, Note_on_c, 1, 64, 0
3, 17590, Note_on_c, 1, 67, 64
3, 17642, Note_on_c, 1, 67, 0
3, 17650, Note_on_c, 1, 61, 64
3, 17702, Note_on_c, 1, 61, 0
3, 17710, Note_on_c, 1, 64, 64
3, 17762, Note_on_c, 1, 64, 0
3, 17770, Note_on_c, 1, 62, 64
3, 17875, Note_on_c, 1, 62, 0
3, 17890, Note_on_c, 1, 61, 64
3, 17995, Note_on_c, 1, 61, 0
3, 18010, Note_on_c, 1, 62, 64
3, 18115, Note_on_c, 1, 62, 0
3, 18130, Note_on_c, 1, 64, 64
3, 18235, Note_on_c, 1, 64, 0
3, 18250, Note_on_c, 1, 66, 64
3, 18355, Note_on_c, 1, 66, 0
3, 18370, Note_on_c, 1, 64, 64
3, 18475, Note_on_c, 1, 64, 0
3, 18490, Note_on_c, 1, 66, 64
3, 18595, Note_on_c, 1, 66, 0
3, 18610, Note_on_c, 1, 64, 64
3, 18715, Note_on_c, 1, 64, 0
3, 18730, Note_on_c, 1, 66, 64
3, 18835, Note_on_c, 1, 66, 0
3, 18850, Note_on_c, 1, 61, 64
3, 18955, Note_on_c, 1, 61, 0
3, 18970, Note_on_c, 1, 62, 64
3, 19075, Note_on_c, 1, 62, 0
3, 19090, Note_on_c, 1, 64, 64
3, 19195, Note_on_c, 1, 64, 0
3, 19210, Note_on_c, 1, 66, 64
3, 19382, Note_on_c, 1, 66, 0
3, 19390, Note_on_c, 1, 65, 64
3, 19442, Note_on_c, 1, 65, 0
3, 19450, Note_on_c, 1, 66, 64
3, 19502, Note_on_c, 1, 66, 0
3, 19510, Note_on_c, 1, 69, 64
3, 19562, Note_on_c, 1, 69, 0
3, 19570, Note_on_c, 1, 65, 64
3, 19622, Note_on_c, 1, 65, 0
3, 19630, Note_on_c, 1, 68, 64
3, 19682, Note_on_c, 1, 68, 0
3, 19690, Note_on_c, 1, 66, 64
3, 19742, Note_on_c, 1, 66, 0
3, 19750, Note_on_c, 1, 69, 64
3, 19802, Note_on_c, 1, 69, 0
3, 19810, Note_on_c, 1, 65, 64
3, 19862, Note_on_c, 1, 65, 0
3, 19870, Note_on_c, 1, 68, 64
3, 19922, Note_on_c, 1, 68, 0
3, 19930, Note_on_c, 1, 66, 64
3, 19982, Note_on_c, 1, 66, 0
3, 19990, Note_on_c, 1, 69, 64
3, 20042, Note_on_c, 1, 69, 0
3, 20050, Note_on_c, 1, 65, 64
3, 20102, Note_on_c, 1, 65, 0
3, 20110, Note_on_c, 1, 68, 64
3, 20162, Note_on_c, 1, 68, 0
3, 20170, Note_on_c, 1, 66, 64
3, 20222, Note_on_c, 1, 66, 0
3, 20230, Note_on_c, 1, 69, 64
3, 20282, Note_on_c, 1, 69, 0
3, 20290, Note_on_c, 1, 65, 64
3, 20342, Note_on_c, 1, 65, 0
3, 20350, Note_on_c, 1, 68, 64
3, 20402, Note_on_c, 1, 68, 0
3, 20410, Note_on_c, 1, 66, 64
3, 20462, Note_on_c, 1, 66, 0
3, 20470, Note_on_c, 1, 69, 64
3, 20522, Note_on_c, 1, 69, 0
3, 20530, Note_on_c, 1, 65, 64
3, 20582, Note_on_c, 1, 65, 0
3, 20590, Note_on_c, 1, 68, 64
3, 20642, Note_on_c, 1, 68, 0
3, 20650, Note_on_c, 1, 66, 64
3, 20702, Note_on_c, 1, 66, 0
3, 20710, Note_on_c, 1, 69, 64
3, 20762, Note_on_c, 1, 69, 0
3, 20770, Note_on_c, 1, 65, 64
3, 20822, Note_on_c, 1, 65, 0
3, 20830, Note_on_c, 1, 68, 64
3, 20882, Note_on_c, 1, 68, 0
3, 20890, Note_on_c, 1, 66, 64
3, 20942, Note_on_c, 1, 66, 0
3, 20950, Note_on_c, 1, 69, 64
3, 21002, Note_on_c, 1, 69, 0
3, 21010, Note_on_c, 1, 68, 64
3, 21062, Note_on_c, 1, 68, 0
3, 21070, Note_on_c, 1, 66, 64
3, 21122, Note_on_c, 1, 66, 0
3, 21130, Note_on_c, 1, 65, 64
3, 21182, Note_on_c, 1, 65, 0
3, 21190, Note_on_c, 1, 61, 64
3, 21242, Note_on_c, 1, 61, 0
3, 21250, Note_on_c, 1, 68, 64
3, 21355, Note_on_c, 1, 68, 0
3, 21370, Note_on_c, 1, 69, 64
3, 21475, Note_on_c, 1, 69, 0
3, 21490, Note_on_c, 1, 68, 64
3, 21595, Note_on_c, 1, 68, 0
3, 21610, Note_on_c, 1, 69, 64
3, 21715, Note_on_c, 1, 69, 0
3, 21730, Note_on_c, 1, 68, 64
3, 21835, Note_on_c, 1, 68, 0
3, 21850, Note_on_c, 1, 69, 64
3, 21955, Note_on_c, 1, 69, 0
3, 21970, Note_on_c, 1, 68, 64
3, 22075, Note_on_c, 1, 68, 0
3, 22090, Note_on_c, 1, 66, 64
3, 22195, Note_on_c, 1, 66, 0
3, 22210, Note_on_c, 1, 64, 64
3, 22315, Note_on_c, 1, 64, 0
3, 22330, Note_on_c, 1, 62, 64
3, 22435, Note_on_c, 1, 62, 0
3, 22450, Note_on_c, 1, 61, 64
3, 22502, Note_on_c, 1, 61, 0
3, 22510, Note_on_c, 1, 59, 64
3, 22562, Note_on_c, 1, 59, 0
3, 22570, Note_on_c, 1, 57, 64
3, 22622, Note_on_c, 1, 57, 0
3, 22630, Note_on_c, 1, 59, 64
3, 22682, Note_on_c, 1, 59, 0
3, 22690, Note_on_c, 1, 61, 64
3, 22795, Note_on_c, 1, 61, 0
3, 22810, Note_on_c, 1, 59, 64
3, 22915, Note_on_c, 1, 59, 0
3, 22930, Note_on_c, 1, 61, 64
3, 23155, Note_on_c, 1, 61, 0
3, 23170, Note_on_c, 1, 62, 64
3, 23395, Note_on_c, 1, 62, 0
3, 23410, Note_on_c, 1, 61, 64
3, 23515, Note_on_c, 1, 61, 0
3, 23530, Note_on_c, 1, 62, 64
3, 23635, Note_on_c, 1, 62, 0
3, 23710, Note_on_c, 1, 61, 64
3, 23762, Note_on_c, 1, 61, 0
3, 23770, Note_on_c, 1, 62, 64
3, 23822, Note_on_c, 1, 62, 0
3, 23830, Note_on_c, 1, 66, 64
3, 23882, Note_on_c, 1, 66, 0
3, 23890, Note_on_c, 1, 59, 64
3, 23942, Note_on_c, 1, 59, 0
3, 23950, Note_on_c, 1, 62, 64
3, 24002, Note_on_c, 1, 62, 0
3, 24010, Note_on_c, 1, 61, 64
3, 24062, Note_on_c, 1, 61, 0
3, 24070, Note_on_c, 1, 57, 64
3, 24122, Note_on_c, 1, 57, 0
3, 24130, Note_on_c, 1, 62, 64
3, 24302, Note_on_c, 1, 62, 0
3, 24310, Note_on_c, 1, 62, 64
3, 24362, Note_on_c, 1, 62, 0
3, 24370, Note_on_c, 1, 61, 64
3, 24475, Note_on_c, 1, 61, 0
3, 24490, Note_on_c, 1, 62, 64
3, 24595, Note_on_c, 1, 62, 0
3, 24610, Note_on_c, 1, 61, 64
3, 24715, Note_on_c, 1, 61, 0
3, 24730, Note_on_c, 1, 57, 64
3, 24835, Note_on_c, 1, 57, 0
3, 24850, Note_on_c, 1, 57, 64
3, 24955, Note_on_c, 1, 57, 0
3, 24970, Note_on_c, 1, 57, 64
3, 25075, Note_on_c, 1, 57, 0
3, 25090, Note_on_c, 1, 61, 64
3, 25195, Note_on_c, 1, 61, 0
3, 25210, Note_on_c, 1, 62, 64
3, 25315, Note_on_c, 1, 62, 0
3, 25330, Note_on_c, 1, 64, 64
3, 25435, Note_on_c, 1, 64, 0
3, 25450, Note_on_c, 1, 62, 64
3, 25555, Note_on_c, 1, 62, 0
3, 25570, Note_on_c, 1, 66, 64
3, 25675, Note_on_c, 1, 66, 0
3, 25690, Note_on_c, 1, 62, 64
3, 25795, Note_on_c, 1, 62, 0
3, 25810, Note_on_c, 1, 62, 64
3, 25915, Note_on_c, 1, 62, 0
3, 25930, Note_on_c, 1, 62, 64
3, 26035, Note_on_c, 1, 62, 0
3, 26050, Note_on_c, 1, 66, 64
3, 26155, Note_on_c, 1, 66, 0
3, 26170, Note_on_c, 1, 67, 64
3, 26275, Note_on_c, 1, 67, 0
3, 26290, Note_on_c, 1, 69, 64
3, 26395, Note_on_c, 1, 69, 0
3, 26410, Note_on_c, 1, 67, 64
3, 26515, Note_on_c, 1, 67, 0
3, 26530, Note_on_c, 1, 68, 64
3, 26635, Note_on_c, 1, 68, 0
3, 26650, Note_on_c, 1, 64, 64
3, 26755, Note_on_c, 1, 64, 0
3, 26770, Note_on_c, 1, 64, 64
3, 26875, Note_on_c, 1, 64, 0
3, 26890, Note_on_c, 1, 64, 64
3, 26995, Note_on_c, 1, 64, 0
3, 27010, Note_on_c, 1, 68, 64
3, 27115, Note_on_c, 1, 68, 0
3, 27130, Note_on_c, 1, 69, 64
3, 27235, Note_on_c, 1, 69, 0
3, 27250, Note_on_c, 1, 71, 64
3, 27355, Note_on_c, 1, 71, 0
3, 27370, Note_on_c, 1, 69, 64
3, 27475, Note_on_c, 1, 69, 0
3, 27490, Note_on_c, 1, 73, 64
3, 27595, Note_on_c, 1, 73, 0
3, 27610, Note_on_c, 1, 69, 64
3, 27715, Note_on_c, 1, 69, 0
3, 27730, Note_on_c, 1, 69, 64
3, 27835, Note_on_c, 1, 69, 0
3, 27850, Note_on_c, 1, 69, 64
3, 27955, Note_on_c, 1, 69, 0
3, 27970, Note_on_c, 1, 73, 64
3, 28075, Note_on_c, 1, 73, 0
3, 28090, Note_on_c, 1, 74, 64
3, 28195, Note_on_c, 1, 74, 0
3, 28210, Note_on_c, 1, 76, 64
3, 28315, Note_on_c, 1, 76, 0
3, 28330, Note_on_c, 1, 74, 64
3, 28435, Note_on_c, 1, 74, 0
3, 28450, Note_on_c, 1, 74, 64
3, 28675, Note_on_c, 1, 74, 0
3, 28690, Note_on_c, 1, 73, 64
3, 28915, Note_on_c, 1, 73, 0
3, 28930, Note_on_c, 1, 71, 64
3, 29155, Note_on_c, 1, 71, 0
3, 29170, Note_on_c, 1, 69, 64
3, 29395, Note_on_c, 1, 69, 0
3, 29410, Note_on_c, 1, 68, 64
3, 29515, Note_on_c, 1, 68, 0
3, 29530, Note_on_c, 1, 69, 64
3, 29635, Note_on_c, 1, 69, 0
3, 29650, Note_on_c, 1, 69, 64
3, 29755, Note_on_c, 1, 69, 0
3, 29770, Note_on_c, 1, 69, 64
3, 29875, Note_on_c, 1, 69, 0
3, 30130, Note_on_c, 1, 69, 64
3, 30235, Note_on_c, 1, 69, 0
3, 30250, Note_on_c, 1, 69, 64
3, 30355, Note_on_c, 1, 69, 0
3, 30610, Note_on_c, 1, 64, 64
3, 30715, Note_on_c, 1, 64, 0
3, 30730, Note_on_c, 1, 66, 64
3, 30835, Note_on_c, 1, 66, 0
3, 30850, Note_on_c, 1, 64, 64
3, 30902, Note_on_c, 1, 64, 0
3, 30910, Note_on_c, 1, 62, 64
3, 30962, Note_on_c, 1, 62, 0
3, 30970, Note_on_c, 1, 61, 64
3, 31022, Note_on_c, 1, 61, 0
3, 31030, Note_on_c, 1, 57, 64
3, 31082, Note_on_c, 1, 57, 0
3, 31090, Note_on_c, 1, 73, 64
3, 31195, Note_on_c, 1, 73, 0
3, 31210, Note_on_c, 1, 71, 64
3, 31435, Note_on_c, 1, 71, 0
3, 31450, Note_on_c, 1, 69, 64
3, 31675, Note_on_c, 1, 69, 0
3, 31690, Note_on_c, 1, 67, 64
3, 31915, Note_on_c, 1, 67, 0
3, 31930, Note_on_c, 1, 66, 64
3, 32155, Note_on_c, 1, 66, 0
3, 32170, Note_on_c, 1, 64, 64
3, 32515, Note_on_c, 1, 64, 0
3, 32530, Note_on_c, 1, 62, 64
3, 32755, Note_on_c, 1, 62, 0
3, 32770, Note_on_c, 1, 61, 64
3, 32875, Note_on_c, 1, 61, 0
3, 32890, Note_on_c, 1, 62, 64
3, 32942, Note_on_c, 1, 62, 0
3, 32950, Note_on_c, 1, 64, 64
3, 33002, Note_on_c, 1, 64, 0
3, 33010, Note_on_c, 1, 66, 64
3, 33115, Note_on_c, 1, 66, 0
3, 33130, Note_on_c, 1, 64, 64
3, 33355, Note_on_c, 1, 64, 0
3, 33370, Note_on_c, 1, 62, 64
3, 33595, Note_on_c, 1, 62, 0
3, 33610, Note_on_c, 1, 64, 64
3, 33715, Note_on_c, 1, 64, 0
3, 33730, Note_on_c, 1, 62, 64
3, 33782, Note_on_c, 1, 62, 0
3, 33790, Note_on_c, 1, 60, 64
3, 33842, Note_on_c, 1, 60, 0
3, 33850, Note_on_c, 1, 59, 64
3, 33955, Note_on_c, 1, 59, 0
3, 34030, Note_on_c, 1, 62, 64
3, 34082, Note_on_c, 1, 62, 0
3, 34090, Note_on_c, 1, 64, 64
3, 34142, Note_on_c, 1, 64, 0
3, 34150, Note_on_c, 1, 65, 64
3, 34202, Note_on_c, 1, 65, 0
3, 34210, Note_on_c, 1, 62, 64
3, 34262, Note_on_c, 1, 62, 0
3, 34270, Note_on_c, 1, 65, 64
3, 34322, Note_on_c, 1, 65, 0
3, 34330, Note_on_c, 1, 64, 64
3, 34382, Note_on_c, 1, 64, 0
3, 34390, Note_on_c, 1, 65, 64
3, 34442, Note_on_c, 1, 65, 0
3, 34450, Note_on_c, 1, 62, 64
3, 34502, Note_on_c, 1, 62, 0
3, 34510, Note_on_c, 1, 65, 64
3, 34562, Note_on_c, 1, 65, 0
3, 34570, Note_on_c, 1, 64, 64
3, 34622, Note_on_c, 1, 64, 0
3, 34630, Note_on_c, 1, 65, 64
3, 34682, Note_on_c, 1, 65, 0
3, 34690, Note_on_c, 1, 62, 64
3, 34742, Note_on_c, 1, 62, 0
3, 34750, Note_on_c, 1, 65, 64
3, 34802, Note_on_c, 1, 65, 0
3, 34810, Note_on_c, 1, 64, 64
3, 34915, Note_on_c, 1, 64, 0
3, 34990, Note_on_c, 1, 64, 64
3, 35042, Note_on_c, 1, 64, 0
3, 35050, Note_on_c, 1, 66, 64
3, 35102, Note_on_c, 1, 66, 0
3, 35110, Note_on_c, 1, 67, 64
3, 35162, Note_on_c, 1, 67, 0
3, 35170, Note_on_c, 1, 64, 64
3, 35222, Note_on_c, 1, 64, 0
3, 35230, Note_on_c, 1, 67, 64
3, 35282, Note_on_c, 1, 67, 0
3, 35290, Note_on_c, 1, 66, 64
3, 35342, Note_on_c, 1, 66, 0
3, 35350, Note_on_c, 1, 67, 64
3, 35402, Note_on_c, 1, 67, 0
3, 35410, Note_on_c, 1, 64, 64
3, 35462, Note_on_c, 1, 64, 0
3, 35470, Note_on_c, 1, 67, 64
3, 35522, Note_on_c, 1, 67, 0
3, 35530, Note_on_c, 1, 66, 64
3, 35582, Note_on_c, 1, 66, 0
3, 35590, Note_on_c, 1, 67, 64
3, 35642, Note_on_c, 1, 67, 0
3, 35650, Note_on_c, 1, 64, 64
3, 35702, Note_on_c, 1, 64, 0
3, 35710, Note_on_c, 1, 67, 64
3, 35762, Note_on_c, 1, 67, 0
3, 35770, Note_on_c, 1, 66, 64
3, 35875, Note_on_c, 1, 66, 0
3, 35950, Note_on_c, 1, 69, 64
3, 36002, Note_on_c, 1, 69, 0
3, 36010, Note_on_c, 1, 71, 64
3, 36062, Note_on_c, 1, 71, 0
3, 36070, Note_on_c, 1, 72, 64
3, 36122, Note_on_c, 1, 72, 0
3, 36130, Note_on_c, 1, 69, 64
3, 36182, Note_on_c, 1, 69, 0
3, 36190, Note_on_c, 1, 72, 64
3, 36242, Note_on_c, 1, 72, 0
3, 36250, Note_on_c, 1, 71, 64
3, 36302, Note_on_c, 1, 71, 0
3, 36310, Note_on_c, 1, 72, 64
3, 36362, Note_on_c, 1, 72, 0
3, 36370, Note_on_c, 1, 69, 64
3, 36422, Note_on_c, 1, 69, 0
3, 36430, Note_on_c, 1, 72, 64
3, 36482, Note_on_c, 1, 72, 0
3, 36490, Note_on_c, 1, 71, 64
3, 36542, Note_on_c, 1, 71, 0
3, 36550, Note_on_c, 1, 72, 64
3, 36602, Note_on_c, 1, 72, 0
3, 36610, Note_on_c, 1, 69, 64
3, 36662, Note_on_c, 1, 69, 0
3, 36670, Note_on_c, 1, 72, 64
3, 36722, Note_on_c, 1, 72, 0
3, 36730, Note_on_c, 1, 71, 64
3, 36835, Note_on_c, 1, 71, 0
3, 36910, Note_on_c, 1, 74, 64
3, 36962, Note_on_c, 1, 74, 0
3, 36970, Note_on_c, 1, 76, 64
3, 37022, Note_on_c, 1, 76, 0
3, 37030, Note_on_c, 1, 77, 64
3, 37082, Note_on_c, 1, 77, 0
3, 37090, Note_on_c, 1, 74, 64
3, 37142, Note_on_c, 1, 74, 0
3, 37150, Note_on_c, 1, 77, 64
3, 37202, Note_on_c, 1, 77, 0
3, 37210, Note_on_c, 1, 76, 64
3, 37262, Note_on_c, 1, 76, 0
3, 37270, Note_on_c, 1, 77, 64
3, 37322, Note_on_c, 1, 77, 0
3, 37330, Note_on_c, 1, 74, 64
3, 37382, Note_on_c, 1, 74, 0
3, 37390, Note_on_c, 1, 77, 64
3, 37442, Note_on_c, 1, 77, 0
3, 37450, Note_on_c, 1, 76, 64
3, 37502, Note_on_c, 1, 76, 0
3, 37510, Note_on_c, 1, 77, 64
3, 37562, Note_on_c, 1, 77, 0
3, 37570, Note_on_c, 1, 74, 64
3, 37675, Note_on_c, 1, 74, 0
3, 37690, Note_on_c, 1, 72, 64
3, 37795, Note_on_c, 1, 72, 0
3, 37870, Note_on_c, 1, 72, 64
3, 37922, Note_on_c, 1, 72, 0
3, 37930, Note_on_c, 1, 72, 64
3, 38155, Note_on_c, 1, 72, 0
3, 38170, Note_on_c, 1, 71, 64
3, 38275, Note_on_c, 1, 71, 0
3, 38350, Note_on_c, 1, 66, 64
3, 38402, Note_on_c, 1, 66, 0
3, 38410, Note_on_c, 1, 67, 64
3, 38515, Note_on_c, 1, 67, 0
3, 38530, Note_on_c, 1, 66, 64
3, 38635, Note_on_c, 1, 66, 0
3, 38650, Note_on_c, 1, 67, 64
3, 38755, Note_on_c, 1, 67, 0
3, 38770, Note_on_c, 1, 66, 64
3, 38875, Note_on_c, 1, 66, 0
3, 38890, Note_on_c, 1, 64, 64
3, 38995, Note_on_c, 1, 64, 0
3, 39010, Note_on_c, 1, 62, 64
3, 39115, Note_on_c, 1, 62, 0
3, 39130, Note_on_c, 1, 63, 64
3, 39235, Note_on_c, 1, 63, 0
3, 39250, Note_on_c, 1, 64, 64
3, 39475, Note_on_c, 1, 64, 0
3, 39490, Note_on_c, 1, 63, 64
3, 39595, Note_on_c, 1, 63, 0
3, 39610, Note_on_c, 1, 59, 64
3, 39715, Note_on_c, 1, 59, 0
3, 39790, Note_on_c, 1, 71, 64
3, 39842, Note_on_c, 1, 71, 0
3, 39850, Note_on_c, 1, 69, 64
3, 39955, Note_on_c, 1, 69, 0
3, 39970, Note_on_c, 1, 71, 64
3, 40075, Note_on_c, 1, 71, 0
3, 40090, Note_on_c, 1, 69, 64
3, 40195, Note_on_c, 1, 69, 0
3, 40210, Note_on_c, 1, 68, 64
3, 40315, Note_on_c, 1, 68, 0
3, 40330, Note_on_c, 1, 69, 64
3, 40435, Note_on_c, 1, 69, 0
3, 40450, Note_on_c, 1, 68, 64
3, 40555, Note_on_c, 1, 68, 0
3, 40570, Note_on_c, 1, 69, 64
3, 40675, Note_on_c, 1, 69, 0
3, 42670, Note_on_c, 1, 69, 64
3, 42722, Note_on_c, 1, 69, 0
3, 42730, Note_on_c, 1, 67, 64
3, 42782, Note_on_c, 1, 67, 0
3, 42790, Note_on_c, 1, 71, 64
3, 42842, Note_on_c, 1, 71, 0
3, 42850, Note_on_c, 1, 64, 64
3, 42902, Note_on_c, 1, 64, 0
3, 42910, Note_on_c, 1, 67, 64
3, 42962, Note_on_c, 1, 67, 0
3, 42970, Note_on_c, 1, 66, 64
3, 43022, Note_on_c, 1, 66, 0
3, 43030, Note_on_c, 1, 69, 64
3, 43082, Note_on_c, 1, 69, 0
3, 43090, Note_on_c, 1, 62, 64
3, 43142, Note_on_c, 1, 62, 0
3, 43150, Note_on_c, 1, 66, 64
3, 43202, Note_on_c, 1, 66, 0
3, 43210, Note_on_c, 1, 64, 64
3, 43262, Note_on_c, 1, 64, 0
3, 43270, Note_on_c, 1, 67, 64
3, 43322, Note_on_c, 1, 67, 0
3, 43330, Note_on_c, 1, 61, 64
3, 43382, Note_on_c, 1, 61, 0
3, 43390, Note_on_c, 1, 64, 64
3, 43442, Note_on_c, 1, 64, 0
3, 43450, Note_on_c, 1, 62, 64
3, 43502, Note_on_c, 1, 62, 0
3, 43510, Note_on_c, 1, 66, 64
3, 43562, Note_on_c, 1, 66, 0
3, 43570, Note_on_c, 1, 59, 64
3, 43622, Note_on_c, 1, 59, 0
3, 43630, Note_on_c, 1, 62, 64
3, 43682, Note_on_c, 1, 62, 0
3, 43690, Note_on_c, 1, 61, 64
3, 43742, Note_on_c, 1, 61, 0
3, 43750, Note_on_c, 1, 64, 64
3, 43802, Note_on_c, 1, 64, 0
3, 43810, Note_on_c, 1, 57, 64
3, 43862, Note_on_c, 1, 57, 0
3, 43870, Note_on_c, 1, 61, 64
3, 43922, Note_on_c, 1, 61, 0
3, 43930, Note_on_c, 1, 59, 64
3, 43982, Note_on_c, 1, 59, 0
3, 43990, Note_on_c, 1, 62, 64
3, 44042, Note_on_c, 1, 62, 0
3, 44050, Note_on_c, 1, 55, 64
3, 44102, Note_on_c, 1, 55, 0
3, 44110, Note_on_c, 1, 59, 64
3, 44162, Note_on_c, 1, 59, 0
3, 44170, Note_on_c, 1, 57, 64
3, 44222, Note_on_c, 1, 57, 0
3, 44230, Note_on_c, 1, 61, 64
3, 44282, Note_on_c, 1, 61, 0
3, 44290, Note_on_c, 1, 54, 64
3, 44342, Note_on_c, 1, 54, 0
3, 44350, Note_on_c, 1, 57, 64
3, 44402, Note_on_c, 1, 57, 0
3, 44410, Note_on_c, 1, 55, 64
3, 44462, Note_on_c, 1, 55, 0
3, 44470, Note_on_c, 1, 59, 64
3, 44522, Note_on_c, 1, 59, 0
3, 44530, Note_on_c, 1, 52, 64
3, 44582, Note_on_c, 1, 52, 0
3, 44590, Note_on_c, 1, 55, 64
3, 44642, Note_on_c, 1, 55, 0
3, 44650, Note_on_c, 1, 54, 64
3, 44755, Note_on_c, 1, 54, 0
3, 44770, Note_on_c, 1, 57, 64
3, 44875, Note_on_c, 1, 57, 0
3, 44890, Note_on_c, 1, 59, 64
3, 44995, Note_on_c, 1, 59, 0
3, 45010, Note_on_c, 1, 57, 64
3, 45115, Note_on_c, 1, 57, 0
3, 45130, Note_on_c, 1, 54, 64
3, 45235, Note_on_c, 1, 54, 0
3, 45250, Note_on_c, 1, 66, 64
3, 45355, Note_on_c, 1, 66, 0
3, 45370, Note_on_c, 1, 64, 64
3, 45475, Note_on_c, 1, 64, 0
3, 45490, Note_on_c, 1, 64, 64
3, 45595, Note_on_c, 1, 64, 0
3, 45610, Note_on_c, 1, 62, 64
3, 45715, Note_on_c, 1, 62, 0
3, 45730, Note_on_c, 1, 66, 64
3, 45835, Note_on_c, 1, 66, 0
3, 45850, Note_on_c, 1, 64, 64
3, 45955, Note_on_c, 1, 64, 0
3, 45970, Note_on_c, 1, 64, 64
3, 46075, Note_on_c, 1, 64, 0
3, 46090, Note_on_c, 1, 66, 64
3, 46315, Note_on_c, 1, 66, 0
3, 54480, Program_c, 1, 16
3, 54480, Control_c, 1, 0, 0
3, 54480, Control_c, 1, 11, 110
3, 54480, Control_c, 1, 64, 0
3, 54480, Control_c, 1, 91, 50
3, 54480, Control_c, 1, 93, 40
3, 54480, Control_c, 1, 7, 70
3, 54481, Control_c, 1, 10, 20
3, 54600, Note_on_c, 1, 69, 64
3, 54626, Note_on_c, 1, 69, 0
3, 54630, Note_on_c, 1, 71, 64
3, 54656, Note_on_c, 1, 71, 0
3, 54660, Note_on_c, 1, 73, 64
3, 54686, Note_on_c, 1, 73, 0
3, 54690, Note_on_c, 1, 71, 64
3, 54716, Note_on_c, 1, 71, 0
3, 54720, Note_on_c, 1, 69, 64
3, 54746, Note_on_c, 1, 69, 0
3, 54750, Note_on_c, 1, 71, 64
3, 54776, Note_on_c, 1, 71, 0
3, 54780, Note_on_c, 1, 73, 64
3, 54806, Note_on_c, 1, 73, 0
3, 54810, Note_on_c, 1, 71, 64
3, 54836, Note_on_c, 1, 71, 0
3, 54840, Note_on_c, 1, 69, 64
3, 54866, Note_on_c, 1, 69, 0
3, 54870, Note_on_c, 1, 71, 64
3, 54896, Note_on_c, 1, 71, 0
3, 54900, Note_on_c, 1, 73, 64
3, 54926, Note_on_c, 1, 73, 0
3, 54930, Note_on_c, 1, 71, 64
3, 54956, Note_on_c, 1, 71, 0
3, 54960, Note_on_c, 1, 69, 64
3, 54986, Note_on_c, 1, 69, 0
3, 54990, Note_on_c, 1, 71, 64
3, 55016, Note_on_c, 1, 71, 0
3, 55020, Note_on_c, 1, 73, 64
3, 55046, Note_on_c, 1, 73, 0
3, 55050, Note_on_c, 1, 71, 64
3, 55076, Note_on_c, 1, 71, 0
3, 55080, Note_on_c, 1, 69, 64
3, 55132, Note_on_c, 1, 69, 0
3, 55440, Note_on_c, 1, 78, 64
3, 55466, Note_on_c, 1, 78, 0
3, 55470, Note_on_c, 1, 76, 64
3, 55496, Note_on_c, 1, 76, 0
3, 55500, Note_on_c, 1, 78, 64
3, 55526, Note_on_c, 1, 78, 0
3, 55530, Note_on_c, 1, 73, 64
3, 55556, Note_on_c, 1, 73, 0
3, 55560, Note_on_c, 1, 74, 64
3, 55586, Note_on_c, 1, 74, 0
3, 55590, Note_on_c, 1, 73, 64
3, 55616, Note_on_c, 1, 73, 0
3, 55620, Note_on_c, 1, 74, 64
3, 55646, Note_on_c, 1, 74, 0
3, 55650, Note_on_c, 1, 71, 64
3, 55676, Note_on_c, 1, 71, 0
3, 55680, Note_on_c, 1, 76, 64
3, 55706, Note_on_c, 1, 76, 0
3, 55710, Note_on_c, 1, 74, 64
3, 55736, Note_on_c, 1, 74, 0
3, 55740, Note_on_c, 1, 76, 64
3, 55766, Note_on_c, 1, 76, 0
3, 55770, Note_on_c, 1, 71, 64
3, 55796, Note_on_c, 1, 71, 0
3, 55800, Note_on_c, 1, 73, 64
3, 55826, Note_on_c, 1, 73, 0
3, 55830, Note_on_c, 1, 71, 64
3, 55856, Note_on_c, 1, 71, 0
3, 55860, Note_on_c, 1, 73, 64
3, 55886, Note_on_c, 1, 73, 0
3, 55890, Note_on_c, 1, 69, 64
3, 55916, Note_on_c, 1, 69, 0
3, 55920, Note_on_c, 1, 74, 64
3, 55946, Note_on_c, 1, 74, 0
3, 55950, Note_on_c, 1, 73, 64
3, 55976, Note_on_c, 1, 73, 0
3, 55980, Note_on_c, 1, 74, 64
3, 56006, Note_on_c, 1, 74, 0
3, 56010, Note_on_c, 1, 69, 64
3, 56036, Note_on_c, 1, 69, 0
3, 56040, Note_on_c, 1, 71, 64
3, 56066, Note_on_c, 1, 71, 0
3, 56070, Note_on_c, 1, 69, 64
3, 56096, Note_on_c, 1, 69, 0
3, 56100, Note_on_c, 1, 71, 64
3, 56126, Note_on_c, 1, 71, 0
3, 56130, Note_on_c, 1, 68, 64
3, 56156, Note_on_c, 1, 68, 0
3, 56160, Note_on_c, 1, 73, 64
3, 56186, Note_on_c, 1, 73, 0
3, 56190, Note_on_c, 1, 71, 64
3, 56216, Note_on_c, 1, 71, 0
3, 56220, Note_on_c, 1, 73, 64
3, 56246, Note_on_c, 1, 73, 0
3, 56250, Note_on_c, 1, 68, 64
3, 56276, Note_on_c, 1, 68, 0
3, 56280, Note_on_c, 1, 69, 64
3, 56306, Note_on_c, 1, 69, 0
3, 56310, Note_on_c, 1, 68, 64
3, 56336, Note_on_c, 1, 68, 0
3, 56340, Note_on_c, 1, 69, 64
3, 56366, Note_on_c, 1, 69, 0
3, 56370, Note_on_c, 1, 66, 64
3, 56396, Note_on_c, 1, 66, 0
3, 56400, Note_on_c, 1, 71, 64
3, 56426, Note_on_c, 1, 71, 0
3, 56430, Note_on_c, 1, 69, 64
3, 56456, Note_on_c, 1, 69, 0
3, 56460, Note_on_c, 1, 71, 64
3, 56486, Note_on_c, 1, 71, 0
3, 56490, Note_on_c, 1, 66, 64
3, 56516, Note_on_c, 1, 66, 0
3, 56520, Note_on_c, 1, 68, 64
3, 56546, Note_on_c, 1, 68, 0
3, 56550, Note_on_c, 1, 66, 64
3, 56576, Note_on_c, 1, 66, 0
3, 56580, Note_on_c, 1, 68, 64
3, 56606, Note_on_c, 1, 68, 0
3, 56610, Note_on_c, 1, 64, 64
3, 56636, Note_on_c, 1, 64, 0
3, 56640, Note_on_c, 1, 69, 64
3, 56786, Note_on_c, 1, 69, 0
3, 56790, Note_on_c, 1, 71, 64
3, 56816, Note_on_c, 1, 71, 0
3, 56820, Note_on_c, 1, 69, 64
3, 56846, Note_on_c, 1, 69, 0
3, 56850, Note_on_c, 1, 71, 64
3, 56876, Note_on_c, 1, 71, 0
3, 56880, Note_on_c, 1, 68, 64
3, 56893, Note_on_c, 1, 68, 0
3, 56895, Note_on_c, 1, 66, 64
3, 56908, Note_on_c, 1, 66, 0
3, 56910, Note_on_c, 1, 68, 64
3, 56961, Note_on_c, 1, 68, 0
3, 56970, Note_on_c, 1, 69, 64
3, 56996, Note_on_c, 1, 69, 0
3, 57000, Note_on_c, 1, 69, 64
3, 57026, Note_on_c, 1, 69, 0
3, 57030, Note_on_c, 1, 73, 64
3, 57056, Note_on_c, 1, 73, 0
3, 57060, Note_on_c, 1, 69, 64
3, 57086, Note_on_c, 1, 69, 0
3, 57090, Note_on_c, 1, 64, 64
3, 57116, Note_on_c, 1, 64, 0
3, 57240, Note_on_c, 1, 74, 64
3, 57266, Note_on_c, 1, 74, 0
3, 57270, Note_on_c, 1, 78, 64
3, 57296, Note_on_c, 1, 78, 0
3, 57300, Note_on_c, 1, 74, 64
3, 57326, Note_on_c, 1, 74, 0
3, 57330, Note_on_c, 1, 69, 64
3, 57356, Note_on_c, 1, 69, 0
3, 57480, Note_on_c, 1, 67, 64
3, 57506, Note_on_c, 1, 67, 0
3, 57510, Note_on_c, 1, 71, 64
3, 57536, Note_on_c, 1, 71, 0
3, 57540, Note_on_c, 1, 67, 64
3, 57566, Note_on_c, 1, 67, 0
3, 57570, Note_on_c, 1, 62, 64
3, 57596, Note_on_c, 1, 62, 0
3, 57750, Note_on_c, 1, 64, 64
3, 57776, Note_on_c, 1, 64, 0
3, 57780, Note_on_c, 1, 69, 64
3, 57806, Note_on_c, 1, 69, 0
3, 57810, Note_on_c, 1, 64, 64
3, 57836, Note_on_c, 1, 64, 0
3, 57840, Note_on_c, 1, 66, 64
3, 57892, Note_on_c, 1, 66, 0
3, 57900, Note_on_c, 1, 66, 64
3, 57952, Note_on_c, 1, 66, 0
3, 57960, Note_on_c, 1, 67, 64
3, 57986, Note_on_c, 1, 67, 0
3, 57990, Note_on_c, 1, 69, 64
3, 58016, Note_on_c, 1, 69, 0
3, 58020, Note_on_c, 1, 66, 64
3, 58046, Note_on_c, 1, 66, 0
3, 58050, Note_on_c, 1, 67, 64
3, 58076, Note_on_c, 1, 67, 0
3, 58080, Note_on_c, 1, 64, 64
3, 58093, Note_on_c, 1, 64, 0
3, 58095, Note_on_c, 1, 62, 64
3, 58108, Note_on_c, 1, 62, 0
3, 58110, Note_on_c, 1, 64, 64
3, 58161, Note_on_c, 1, 64, 0
3, 58170, Note_on_c, 1, 62, 64
3, 58196, Note_on_c, 1, 62, 0
3, 58200, Note_on_c, 1, 62, 64
3, 58252, Note_on_c, 1, 62, 0
3, 58737, Program_c, 1, 20
3, 58737, Control_c, 1, 0, 0
3, 58737, Control_c, 1, 11, 110
3, 58737, Control_c, 1, 64, 0
3, 58737, Control_c, 1, 91, 50
3, 58737, Control_c, 1, 93, 0
3, 58737, Control_c, 1, 7, 70
3, 58738, Control_c, 1, 10, 20
3, 58740, Note_on_c, 1, 62, 64
3, 58766, Note_on_c, 1, 62, 0
3, 58770, Note_on_c, 1, 61, 64
3, 58796, Note_on_c, 1, 61, 0
3, 58800, Note_on_c, 1, 62, 64
3, 58826, Note_on_c, 1, 62, 0
3, 58830, Note_on_c, 1, 61, 64
3, 58856, Note_on_c, 1, 61, 0
3, 58860, Note_on_c, 1, 62, 64
3, 58886, Note_on_c, 1, 62, 0
3, 58890, Note_on_c, 1, 61, 64
3, 58916, Note_on_c, 1, 61, 0
3, 58920, Note_on_c, 1, 62, 64
3, 58972, Note_on_c, 1, 62, 0
3, 58980, Note_on_c, 1, 50, 64
3, 59032, Note_on_c, 1, 50, 0
3, 59100, Note_on_c, 1, 66, 72
3, 59152, Note_on_c, 1, 66, 0
3, 59160, Note_on_c, 1, 64, 73
3, 59265, Note_on_c, 1, 64, 0
3, 59340, Note_on_c, 1, 64, 74
3, 59392, Note_on_c, 1, 64, 0
3, 59400, Note_on_c, 1, 62, 74
3, 59505, Note_on_c, 1, 62, 0
3, 59580, Note_on_c, 1, 62, 74
3, 59632, Note_on_c, 1, 62, 0
3, 59640, Note_on_c, 1, 61, 74
3, 59745, Note_on_c, 1, 61, 0
3, 59820, Note_on_c, 1, 61, 74
3, 59872, Note_on_c, 1, 61, 0
3, 59880, Note_on_c, 1, 59, 75
3, 59985, Note_on_c, 1, 59, 0
3, 60060, Note_on_c, 1, 59, 74
3, 60112, Note_on_c, 1, 59, 0
3, 60120, Note_on_c, 1, 57, 72
3, 60225, Note_on_c, 1, 57, 0
3, 60270, Note_on_c, 1, 57, 64
3, 60296, Note_on_c, 1, 57, 0
3, 60300, Note_on_c, 1, 62, 64
3, 60326, Note_on_c, 1, 62, 0
3, 60330, Note_on_c, 1, 57, 64
3, 60356, Note_on_c, 1, 57, 0
3, 60360, Note_on_c, 1, 59, 64
3, 60412, Note_on_c, 1, 59, 0
3, 60420, Note_on_c, 1, 57, 64
3, 60472, Note_on_c, 1, 57, 0
3, 60480, Note_on_c, 1, 55, 64
3, 60585, Note_on_c, 1, 55, 0
3, 60600, Note_on_c, 1, 54, 64
3, 60705, Note_on_c, 1, 54, 0
3, 60720, Note_on_c, 1, 66, 64
3, 60746, Note_on_c, 1, 66, 0
3, 60750, Note_on_c, 1, 69, 64
3, 60776, Note_on_c, 1, 69, 0
3, 60780, Note_on_c, 1, 66, 64
3, 60806, Note_on_c, 1, 66, 0
3, 60810, Note_on_c, 1, 62, 64
3, 60945, Note_on_c, 1, 62, 0
3, 60990, Note_on_c, 1, 76, 88
3, 61016, Note_on_c, 1, 76, 0
3, 61020, Note_on_c, 1, 73, 82
3, 61046, Note_on_c, 1, 73, 0
3, 61050, Note_on_c, 1, 69, 79
3, 61076, Note_on_c, 1, 69, 0
3, 61080, Note_on_c, 1, 74, 64
3, 61185, Note_on_c, 1, 74, 0
3, 61260, Note_on_c, 1, 74, 64
3, 61312, Note_on_c, 1, 74, 0
3, 61320, Note_on_c, 1, 73, 64
3, 61425, Note_on_c, 1, 73, 0
3, 61857, Program_c, 1, 19
3, 61857, Control_c, 1, 0, 0
3, 61857, Control_c, 1, 11, 110
3, 61857, Control_c, 1, 64, 0
3, 61857, Control_c, 1, 91, 30
3, 61857, Control_c, 1, 93, 10
3, 61857, Control_c, 1, 7, 80
3, 61858, Control_c, 1, 10, 20
3, 61860, Note_on_c, 1, 64, 74
3, 61912, Note_on_c, 1, 64, 0
3, 61920, Note_on_c, 1, 64, 74
3, 61972, Note_on_c, 1, 64, 0
3, 61980, Note_on_c, 1, 64, 74
3, 62032, Note_on_c, 1, 64, 0
3, 62040, Note_on_c, 1, 64, 73
3, 62145, Note_on_c, 1, 64, 0
3, 62220, Note_on_c, 1, 73, 76
3, 62272, Note_on_c, 1, 73, 0
3, 62280, Note_on_c, 1, 71, 66
3, 62385, Note_on_c, 1, 71, 0
3, 62460, Note_on_c, 1, 71, 76
3, 62512, Note_on_c, 1, 71, 0
3, 62520, Note_on_c, 1, 69, 65
3, 62625, Note_on_c, 1, 69, 0
3, 62700, Note_on_c, 1, 69, 77
3, 62752, Note_on_c, 1, 69, 0
3, 62760, Note_on_c, 1, 68, 65
3, 62865, Note_on_c, 1, 68, 0
3, 62940, Note_on_c, 1, 68, 74
3, 62992, Note_on_c, 1, 68, 0
3, 63000, Note_on_c, 1, 66, 64
3, 63105, Note_on_c, 1, 66, 0
3, 63180, Note_on_c, 1, 66, 75
3, 63232, Note_on_c, 1, 66, 0
3, 63240, Note_on_c, 1, 64, 65
3, 63345, Note_on_c, 1, 64, 0
3, 63390, Note_on_c, 1, 61, 99
3, 63416, Note_on_c, 1, 61, 0
3, 63420, Note_on_c, 1, 66, 98
3, 63446, Note_on_c, 1, 66, 0
3, 63450, Note_on_c, 1, 61, 97
3, 63476, Note_on_c, 1, 61, 0
3, 63480, Note_on_c, 1, 62, 86
3, 63585, Note_on_c, 1, 62, 0
3, 63630, Note_on_c, 1, 59, 99
3, 63656, Note_on_c, 1, 59, 0
3, 63660, Note_on_c, 1, 62, 97
3, 63686, Note_on_c, 1, 62, 0
3, 63690, Note_on_c, 1, 59, 97
3, 63716, Note_on_c, 1, 59, 0
3, 63720, Note_on_c, 1, 61, 88
3, 63825, Note_on_c, 1, 61, 0
3, 63900, Note_on_c, 1, 64, 80
3, 63952, Note_on_c, 1, 64, 0
3, 63960, Note_on_c, 1, 66, 78
3, 64012, Note_on_c, 1, 66, 0
3, 64020, Note_on_c, 1, 62, 78
3, 64072, Note_on_c, 1, 62, 0
3, 64080, Note_on_c, 1, 64, 78
3, 64185, Note_on_c, 1, 64, 0
3, 64200, Note_on_c, 1, 64, 79
3, 64252, Note_on_c, 1, 64, 0
3, 65877, Program_c, 1, 19
3, 65877, Control_c, 1, 0, 0
3, 65877, Control_c, 1, 11, 120
3, 65877, Control_c, 1, 64, 0
3, 65877, Control_c, 1, 91, 100
3, 65877, Control_c, 1, 93, 40
3, 65877, Control_c, 1, 7, 80
3, 65878, Control_c, 1, 10, 20
3, 65880, Note_on_c, 1, 62, 88
3, 65906, Note_on_c, 1, 62, 0
3, 65910, Note_on_c, 1, 64, 87
3, 65936, Note_on_c, 1, 64, 0
3, 65940, Note_on_c, 1, 66, 87
3, 65966, Note_on_c, 1, 66, 0
3, 65970, Note_on_c, 1, 64, 87
3, 65996, Note_on_c, 1, 64, 0
3, 66000, Note_on_c, 1, 62, 87
3, 66026, Note_on_c, 1, 62, 0
3, 66030, Note_on_c, 1, 64, 87
3, 66056, Note_on_c, 1, 64, 0
3, 66060, Note_on_c, 1, 66, 87
3, 66086, Note_on_c, 1, 66, 0
3, 66090, Note_on_c, 1, 64, 88
3, 66116, Note_on_c, 1, 64, 0
3, 66120, Note_on_c, 1, 62, 88
3, 66146, Note_on_c, 1, 62, 0
3, 66150, Note_on_c, 1, 64, 88
3, 66176, Note_on_c, 1, 64, 0
3, 66180, Note_on_c, 1, 66, 88
3, 66206, Note_on_c, 1, 66, 0
3, 66210, Note_on_c, 1, 64, 88
3, 66236, Note_on_c, 1, 64, 0
3, 66240, Note_on_c, 1, 62, 88
3, 66266, Note_on_c, 1, 62, 0
3, 66270, Note_on_c, 1, 64, 87
3, 66296, Note_on_c, 1, 64, 0
3, 66300, Note_on_c, 1, 66, 88
3, 66326, Note_on_c, 1, 66, 0
3, 66330, Note_on_c, 1, 64, 88
3, 66356, Note_on_c, 1, 64, 0
3, 66360, Note_on_c, 1, 62, 88
3, 66412, Note_on_c, 1, 62, 0
3, 66720, Note_on_c, 1, 71, 87
3, 66746, Note_on_c, 1, 71, 0
3, 66750, Note_on_c, 1, 69, 87
3, 66776, Note_on_c, 1, 69, 0
3, 66780, Note_on_c, 1, 71, 87
3, 66806, Note_on_c, 1, 71, 0
3, 66810, Note_on_c, 1, 66, 87
3, 66836, Note_on_c, 1, 66, 0
3, 66840, Note_on_c, 1, 67, 88
3, 66866, Note_on_c, 1, 67, 0
3, 66870, Note_on_c, 1, 66, 88
3, 66896, Note_on_c, 1, 66, 0
3, 66900, Note_on_c, 1, 67, 88
3, 66926, Note_on_c, 1, 67, 0
3, 66930, Note_on_c, 1, 64, 88
3, 66956, Note_on_c, 1, 64, 0
3, 66960, Note_on_c, 1, 69, 88
3, 66986, Note_on_c, 1, 69, 0
3, 66990, Note_on_c, 1, 67, 88
3, 67016, Note_on_c, 1, 67, 0
3, 67020, Note_on_c, 1, 69, 88
3, 67046, Note_on_c, 1, 69, 0
3, 67050, Note_on_c, 1, 64, 87
3, 67076, Note_on_c, 1, 64, 0
3, 67080, Note_on_c, 1, 66, 87
3, 67106, Note_on_c, 1, 66, 0
3, 67110, Note_on_c, 1, 64, 87
3, 67136, Note_on_c, 1, 64, 0
3, 67140, Note_on_c, 1, 66, 87
3, 67166, Note_on_c, 1, 66, 0
3, 67170, Note_on_c, 1, 62, 87
3, 67196, Note_on_c, 1, 62, 0
3, 67200, Note_on_c, 1, 67, 87
3, 67226, Note_on_c, 1, 67, 0
3, 67230, Note_on_c, 1, 66, 87
3, 67256, Note_on_c, 1, 66, 0
3, 67260, Note_on_c, 1, 67, 87
3, 67286, Note_on_c, 1, 67, 0
3, 67290, Note_on_c, 1, 62, 87
3, 67316, Note_on_c, 1, 62, 0
3, 67320, Note_on_c, 1, 64, 87
3, 67346, Note_on_c, 1, 64, 0
3, 67350, Note_on_c, 1, 62, 87
3, 67376, Note_on_c, 1, 62, 0
3, 67380, Note_on_c, 1, 64, 87
3, 67406, Note_on_c, 1, 64, 0
3, 67410, Note_on_c, 1, 61, 87
3, 67436, Note_on_c, 1, 61, 0
3, 67440, Note_on_c, 1, 66, 87
3, 67466, Note_on_c, 1, 66, 0
3, 67470, Note_on_c, 1, 64, 89
3, 67496, Note_on_c, 1, 64, 0
3, 67500, Note_on_c, 1, 66, 89
3, 67526, Note_on_c, 1, 66, 0
3, 67530, Note_on_c, 1, 61, 89
3, 67556, Note_on_c, 1, 61, 0
3, 67560, Note_on_c, 1, 62, 89
3, 67586, Note_on_c, 1, 62, 0
3, 67590, Note_on_c, 1, 61, 89
3, 67616, Note_on_c, 1, 61, 0
3, 67620, Note_on_c, 1, 62, 88
3, 67646, Note_on_c, 1, 62, 0
3, 67650, Note_on_c, 1, 59, 88
3, 67676, Note_on_c, 1, 59, 0
3, 67680, Note_on_c, 1, 64, 88
3, 67706, Note_on_c, 1, 64, 0
3, 67710, Note_on_c, 1, 62, 88
3, 67736, Note_on_c, 1, 62, 0
3, 67740, Note_on_c, 1, 64, 88
3, 67766, Note_on_c, 1, 64, 0
3, 67770, Note_on_c, 1, 59, 88
3, 67796, Note_on_c, 1, 59, 0
3, 67800, Note_on_c, 1, 61, 89
3, 67826, Note_on_c, 1, 61, 0
3, 67830, Note_on_c, 1, 59, 89
3, 67856, Note_on_c, 1, 59, 0
3, 67860, Note_on_c, 1, 61, 90
3, 67886, Note_on_c, 1, 61, 0
3, 67890, Note_on_c, 1, 57, 89
3, 67916, Note_on_c, 1, 57, 0
3, 67920, Note_on_c, 1, 62, 89
3, 68066, Note_on_c, 1, 62, 0
3, 68070, Note_on_c, 1, 64, 89
3, 68096, Note_on_c, 1, 64, 0
3, 68100, Note_on_c, 1, 62, 88
3, 68126, Note_on_c, 1, 62, 0
3, 68130, Note_on_c, 1, 64, 88
3, 68156, Note_on_c, 1, 64, 0
3, 68160, Note_on_c, 1, 61, 88
3, 68173, Note_on_c, 1, 61, 0
3, 68175, Note_on_c, 1, 59, 88
3, 68188, Note_on_c, 1, 59, 0
3, 68190, Note_on_c, 1, 61, 88
3, 68241, Note_on_c, 1, 61, 0
3, 68250, Note_on_c, 1, 62, 87
3, 68276, Note_on_c, 1, 62, 0
3, 68280, Note_on_c, 1, 62, 88
3, 68332, Note_on_c, 1, 62, 0
3, 68340, Note_on_c, 1, 64, 87
3, 68392, Note_on_c, 1, 64, 0
3, 68400, Note_on_c, 1, 66, 87
3, 68452, Note_on_c, 1, 66, 0
3, 68460, Note_on_c, 1, 68, 87
3, 68512, Note_on_c, 1, 68, 0
3, 68520, Note_on_c, 1, 69, 88
3, 68546, Note_on_c, 1, 69, 0
3, 68550, Note_on_c, 1, 71, 88
3, 68576, Note_on_c, 1, 71, 0
3, 68580, Note_on_c, 1, 73, 88
3, 68606, Note_on_c, 1, 73, 0
3, 68610, Note_on_c, 1, 71, 88
3, 68636, Note_on_c, 1, 71, 0
3, 68640, Note_on_c, 1, 69, 88
3, 68666, Note_on_c, 1, 69, 0
3, 68670, Note_on_c, 1, 73, 88
3, 68696, Note_on_c, 1, 73, 0
3, 68700, Note_on_c, 1, 71, 88
3, 68726, Note_on_c, 1, 71, 0
3, 68730, Note_on_c, 1, 69, 88
3, 68756, Note_on_c, 1, 69, 0
3, 68760, Note_on_c, 1, 68, 88
3, 68786, Note_on_c, 1, 68, 0
3, 68790, Note_on_c, 1, 66, 88
3, 68816, Note_on_c, 1, 66, 0
3, 68820, Note_on_c, 1, 68, 88
3, 68846, Note_on_c, 1, 68, 0
3, 68850, Note_on_c, 1, 64, 88
3, 68876, Note_on_c, 1, 64, 0
3, 68880, Note_on_c, 1, 66, 88
3, 68932, Note_on_c, 1, 66, 0
3, 68940, Note_on_c, 1, 68, 88
3, 68992, Note_on_c, 1, 68, 0
3, 69000, Note_on_c, 1, 69, 87
3, 69052, Note_on_c, 1, 69, 0
3, 69060, Note_on_c, 1, 66, 87
3, 69112, Note_on_c, 1, 66, 0
3, 69120, Note_on_c, 1, 59, 87
3, 69172, Note_on_c, 1, 59, 0
3, 69180, Note_on_c, 1, 62, 86
3, 69232, Note_on_c, 1, 62, 0
3, 69240, Note_on_c, 1, 61, 85
3, 69266, Note_on_c, 1, 61, 0
3, 69268, Program_c, 1, 19
3, 69268, Control_c, 1, 0, 0
3, 69268, Control_c, 1, 11, 110
3, 69268, Control_c, 1, 64, 0
3, 69268, Control_c, 1, 91, 50
3, 69268, Control_c, 1, 93, 120
3, 69268, Control_c, 1, 7, 70
3, 69269, Control_c, 1, 10, 20
3, 69270, Note_on_c, 1, 64, 64
3, 69296, Note_on_c, 1, 64, 0
3, 69300, Note_on_c, 1, 69, 64
3, 69326, Note_on_c, 1, 69, 0
3, 69330, Note_on_c, 1, 64, 64
3, 69356, Note_on_c, 1, 64, 0
3, 69360, Note_on_c, 1, 61, 64
3, 69386, Note_on_c, 1, 61, 0
3, 69390, Note_on_c, 1, 64, 64
3, 69416, Note_on_c, 1, 64, 0
3, 69420, Note_on_c, 1, 69, 64
3, 69446, Note_on_c, 1, 69, 0
3, 69450, Note_on_c, 1, 64, 64
3, 69476, Note_on_c, 1, 64, 0
3, 69480, Note_on_c, 1, 61, 64
3, 69506, Note_on_c, 1, 61, 0
3, 69510, Note_on_c, 1, 64, 64
3, 69536, Note_on_c, 1, 64, 0
3, 69540, Note_on_c, 1, 69, 64
3, 69566, Note_on_c, 1, 69, 0
3, 69570, Note_on_c, 1, 64, 64
3, 69596, Note_on_c, 1, 64, 0
3, 69600, Note_on_c, 1, 61, 64
3, 69626, Note_on_c, 1, 61, 0
3, 69630, Note_on_c, 1, 64, 64
3, 69656, Note_on_c, 1, 64, 0
3, 69660, Note_on_c, 1, 69, 64
3, 69686, Note_on_c, 1, 69, 0
3, 69690, Note_on_c, 1, 64, 64
3, 69716, Note_on_c, 1, 64, 0
3, 69720, Note_on_c, 1, 61, 64
3, 69772, Note_on_c, 1, 61, 0
3, 69780, Note_on_c, 1, 73, 64
3, 69806, Note_on_c, 1, 73, 0
3, 69810, Note_on_c, 1, 71, 64
3, 69836, Note_on_c, 1, 71, 0
3, 69840, Note_on_c, 1, 73, 64
3, 69866, Note_on_c, 1, 73, 0
3, 69870, Note_on_c, 1, 71, 64
3, 69896, Note_on_c, 1, 71, 0
3, 69900, Note_on_c, 1, 73, 64
3, 69926, Note_on_c, 1, 73, 0
3, 69930, Note_on_c, 1, 71, 64
3, 69956, Note_on_c, 1, 71, 0
3, 69960, Note_on_c, 1, 73, 64
3, 70012, Note_on_c, 1, 73, 0
3, 70140, Note_on_c, 1, 69, 64
3, 70192, Note_on_c, 1, 69, 0
3, 70200, Note_on_c, 1, 69, 64
3, 70305, Note_on_c, 1, 69, 0
3, 70380, Note_on_c, 1, 68, 64
3, 70432, Note_on_c, 1, 68, 0
3, 70440, Note_on_c, 1, 68, 64
3, 70545, Note_on_c, 1, 68, 0
3, 70620, Note_on_c, 1, 66, 64
3, 70672, Note_on_c, 1, 66, 0
3, 70680, Note_on_c, 1, 66, 64
3, 70785, Note_on_c, 1, 66, 0
3, 70860, Note_on_c, 1, 64, 64
3, 70912, Note_on_c, 1, 64, 0
3, 70920, Note_on_c, 1, 64, 64
3, 71025, Note_on_c, 1, 64, 0
3, 71100, Note_on_c, 1, 62, 64
3, 71152, Note_on_c, 1, 62, 0
3, 71160, Note_on_c, 1, 62, 64
3, 71265, Note_on_c, 1, 62, 0
3, 71280, Note_on_c, 1, 61, 64
3, 71385, Note_on_c, 1, 61, 0
3, 71400, Note_on_c, 1, 59, 64
3, 71625, Note_on_c, 1, 59, 0
3, 71640, Note_on_c, 1, 57, 64
3, 71745, Note_on_c, 1, 57, 0
3, 71760, Note_on_c, 1, 52, 64
3, 71786, Note_on_c, 1, 52, 0
3, 71790, Note_on_c, 1, 57, 64
3, 71816, Note_on_c, 1, 57, 0
3, 71820, Note_on_c, 1, 52, 64
3, 71846, Note_on_c, 1, 52, 0
3, 71850, Note_on_c, 1, 49, 64
3, 71876, Note_on_c, 1, 49, 0
3, 72267, Program_c, 1, 19
3, 72267, Control_c, 1, 0, 0
3, 72267, Control_c, 1, 11, 110
3, 72267, Control_c, 1, 64, 0
3, 72267, Control_c, 1, 91, 40
3, 72267, Control_c, 1, 93, 20
3, 72267, Control_c, 1, 7, 100
3, 72268, Control_c, 1, 10, 20
3, 72270, Note_on_c, 1, 50, 73
3, 72296, Note_on_c, 1, 50, 0
3, 72300, Note_on_c, 1, 55, 74
3, 72326, Note_on_c, 1, 55, 0
3, 72330, Note_on_c, 1, 50, 75
3, 72356, Note_on_c, 1, 50, 0
3, 72360, Note_on_c, 1, 52, 75
3, 72465, Note_on_c, 1, 52, 0
3, 72510, Note_on_c, 1, 52, 75
3, 72536, Note_on_c, 1, 52, 0
3, 72540, Note_on_c, 1, 57, 74
3, 72566, Note_on_c, 1, 57, 0
3, 72570, Note_on_c, 1, 52, 74
3, 72596, Note_on_c, 1, 52, 0
3, 72600, Note_on_c, 1, 54, 74
3, 72765, Note_on_c, 1, 54, 0
3, 72780, Note_on_c, 1, 55, 74
3, 72892, Note_on_c, 1, 55, 0
3, 72900, Note_on_c, 1, 54, 75
3, 72952, Note_on_c, 1, 54, 0
3, 72960, Note_on_c, 1, 52, 74
3, 73012, Note_on_c, 1, 52, 0
3, 73020, Note_on_c, 1, 57, 74
3, 73072, Note_on_c, 1, 57, 0
3, 73080, Note_on_c, 1, 57, 74
3, 73185, Note_on_c, 1, 57, 0
3, 73200, Note_on_c, 1, 55, 76
3, 73252, Note_on_c, 1, 55, 0
3, 73260, Note_on_c, 1, 64, 74
3, 73346, Note_on_c, 1, 64, 0
3, 73350, Note_on_c, 1, 67, 72
3, 73376, Note_on_c, 1, 67, 0
3, 73380, Note_on_c, 1, 66, 72
3, 73406, Note_on_c, 1, 66, 0
3, 73410, Note_on_c, 1, 69, 72
3, 73436, Note_on_c, 1, 69, 0
3, 73440, Note_on_c, 1, 64, 72
3, 73466, Note_on_c, 1, 64, 0
3, 73470, Note_on_c, 1, 66, 72
3, 73496, Note_on_c, 1, 66, 0
3, 73500, Note_on_c, 1, 67, 73
3, 73552, Note_on_c, 1, 67, 0
3, 73560, Note_on_c, 1, 66, 73
3, 73665, Note_on_c, 1, 66, 0
3, 74460, Note_on_c, 1, 74, 77
3, 74512, Note_on_c, 1, 74, 0
3, 74520, Note_on_c, 1, 71, 66
3, 74625, Note_on_c, 1, 71, 0
3, 74700, Note_on_c, 1, 73, 77
3, 74752, Note_on_c, 1, 73, 0
3, 74760, Note_on_c, 1, 69, 68
3, 74865, Note_on_c, 1, 69, 0
3, 74940, Note_on_c, 1, 71, 76
3, 74992, Note_on_c, 1, 71, 0
3, 75000, Note_on_c, 1, 67, 68
3, 75105, Note_on_c, 1, 67, 0
3, 75180, Note_on_c, 1, 69, 76
3, 75232, Note_on_c, 1, 69, 0
3, 75240, Note_on_c, 1, 66, 69
3, 75345, Note_on_c, 1, 66, 0
3, 75420, Note_on_c, 1, 67, 76
3, 75472, Note_on_c, 1, 67, 0
3, 75480, Note_on_c, 1, 64, 67
3, 75585, Note_on_c, 1, 64, 0
3, 75600, Note_on_c, 1, 62, 77
3, 75652, Note_on_c, 1, 62, 0
3, 75660, Note_on_c, 1, 66, 77
3, 75712, Note_on_c, 1, 66, 0
3, 75720, Note_on_c, 1, 67, 72
3, 75825, Note_on_c, 1, 67, 0
3, 75900, Note_on_c, 1, 67, 64
3, 75952, Note_on_c, 1, 67, 0
3, 75960, Note_on_c, 1, 66, 64
3, 76012, Note_on_c, 1, 66, 0
3, 76020, Note_on_c, 1, 66, 64
3, 76072, Note_on_c, 1, 66, 0
3, 76080, Note_on_c, 1, 66, 64
3, 76132, Note_on_c, 1, 66, 0
3, 76140, Note_on_c, 1, 66, 64
3, 76192, Note_on_c, 1, 66, 0
3, 76200, Note_on_c, 1, 64, 64
3, 76252, Note_on_c, 1, 64, 0
3, 76260, Note_on_c, 1, 64, 64
3, 76312, Note_on_c, 1, 64, 0
3, 76320, Note_on_c, 1, 64, 64
3, 76372, Note_on_c, 1, 64, 0
3, 76380, Note_on_c, 1, 64, 64
3, 76432, Note_on_c, 1, 64, 0
3, 76440, Note_on_c, 1, 62, 64
3, 76492, Note_on_c, 1, 62, 0
3, 76500, Note_on_c, 1, 62, 64
3, 76552, Note_on_c, 1, 62, 0
3, 76560, Note_on_c, 1, 62, 64
3, 76612, Note_on_c, 1, 62, 0
3, 76620, Note_on_c, 1, 62, 64
3, 76672, Note_on_c, 1, 62, 0
3, 76680, Note_on_c, 1, 61, 64
3, 76732, Note_on_c, 1, 61, 0
3, 76740, Note_on_c, 1, 61, 64
3, 76792, Note_on_c, 1, 61, 0
3, 76800, Note_on_c, 1, 61, 64
3, 76852, Note_on_c, 1, 61, 0
3, 76860, Note_on_c, 1, 61, 64
3, 76912, Note_on_c, 1, 61, 0
3, 76920, Note_on_c, 1, 62, 64
3, 77025, Note_on_c, 1, 62, 0
3, 77400, Note_on_c, 1, 62, 64
3, 77426, Note_on_c, 1, 62, 0
3, 77430, Note_on_c, 1, 66, 64
3, 77456, Note_on_c, 1, 66, 0
3, 77460, Note_on_c, 1, 71, 64
3, 77486, Note_on_c, 1, 71, 0
3, 77490, Note_on_c, 1, 66, 64
3, 77516, Note_on_c, 1, 66, 0
3, 77520, Note_on_c, 1, 62, 64
3, 77546, Note_on_c, 1, 62, 0
3, 77550, Note_on_c, 1, 66, 64
3, 77576, Note_on_c, 1, 66, 0
3, 77580, Note_on_c, 1, 71, 64
3, 77606, Note_on_c, 1, 71, 0
3, 77610, Note_on_c, 1, 66, 64
3, 77636, Note_on_c, 1, 66, 0
3, 77640, Note_on_c, 1, 62, 64
3, 77666, Note_on_c, 1, 62, 0
3, 77670, Note_on_c, 1, 66, 64
3, 77696, Note_on_c, 1, 66, 0
3, 77700, Note_on_c, 1, 71, 64
3, 77726, Note_on_c, 1, 71, 0
3, 77730, Note_on_c, 1, 66, 64
3, 77756, Note_on_c, 1, 66, 0
3, 77760, Note_on_c, 1, 62, 64
3, 77786, Note_on_c, 1, 62, 0
3, 77790, Note_on_c, 1, 66, 64
3, 77816, Note_on_c, 1, 66, 0
3, 77820, Note_on_c, 1, 71, 64
3, 77846, Note_on_c, 1, 71, 0
3, 77850, Note_on_c, 1, 66, 64
3, 77876, Note_on_c, 1, 66, 0
3, 77880, Note_on_c, 1, 62, 64
3, 77985, Note_on_c, 1, 62, 0
3, 78060, Note_on_c, 1, 64, 64
3, 78112, Note_on_c, 1, 64, 0
3, 78120, Note_on_c, 1, 66, 64
3, 78225, Note_on_c, 1, 66, 0
3, 78300, Note_on_c, 1, 71, 64
3, 78352, Note_on_c, 1, 71, 0
3, 78360, Note_on_c, 1, 71, 64
3, 78465, Note_on_c, 1, 71, 0
3, 78540, Note_on_c, 1, 69, 64
3, 78592, Note_on_c, 1, 69, 0
3, 78600, Note_on_c, 1, 69, 64
3, 78705, Note_on_c, 1, 69, 0
3, 78780, Note_on_c, 1, 67, 64
3, 78832, Note_on_c, 1, 67, 0
3, 78840, Note_on_c, 1, 67, 64
3, 78945, Note_on_c, 1, 67, 0
3, 79020, Note_on_c, 1, 66, 64
3, 79072, Note_on_c, 1, 66, 0
3, 79080, Note_on_c, 1, 66, 64
3, 79185, Note_on_c, 1, 66, 0
3, 79260, Note_on_c, 1, 64, 64
3, 79312, Note_on_c, 1, 64, 0
3, 79320, Note_on_c, 1, 64, 64
3, 79425, Note_on_c, 1, 64, 0
3, 79500, Note_on_c, 1, 62, 64
3, 79552, Note_on_c, 1, 62, 0
3, 79560, Note_on_c, 1, 61, 64
3, 79665, Note_on_c, 1, 61, 0
3, 79740, Note_on_c, 1, 61, 64
3, 79792, Note_on_c, 1, 61, 0
3, 79800, Note_on_c, 1, 59, 64
3, 79905, Note_on_c, 1, 59, 0
3, 79980, Note_on_c, 1, 71, 64
3, 80032, Note_on_c, 1, 71, 0
3, 80040, Note_on_c, 1, 71, 64
3, 80145, Note_on_c, 1, 71, 0
3, 80220, Note_on_c, 1, 70, 64
3, 80272, Note_on_c, 1, 70, 0
3, 80280, Note_on_c, 1, 71, 64
3, 80385, Note_on_c, 1, 71, 0
3, 80427, Program_c, 1, 20
3, 80427, Control_c, 1, 0, 0
3, 80427, Control_c, 1, 11, 110
3, 80427, Control_c, 1, 64, 0
3, 80427, Control_c, 1, 91, 80
3, 80427, Control_c, 1, 93, 20
3, 80427, Control_c, 1, 7, 60
3, 80428, Control_c, 1, 10, 20
3, 80430, Note_on_c, 1, 71, 64
3, 80456, Note_on_c, 1, 71, 0
3, 80460, Note_on_c, 1, 70, 64
3, 80486, Note_on_c, 1, 70, 0
3, 80490, Note_on_c, 1, 71, 64
3, 80666, Note_on_c, 1, 71, 0
3, 80670, Note_on_c, 1, 71, 64
3, 80696, Note_on_c, 1, 71, 0
3, 80700, Note_on_c, 1, 70, 64
3, 80726, Note_on_c, 1, 70, 0
3, 80730, Note_on_c, 1, 71, 64
3, 80906, Note_on_c, 1, 71, 0
3, 80910, Note_on_c, 1, 71, 64
3, 80936, Note_on_c, 1, 71, 0
3, 80940, Note_on_c, 1, 70, 64
3, 80966, Note_on_c, 1, 70, 0
3, 80970, Note_on_c, 1, 71, 64
3, 81146, Note_on_c, 1, 71, 0
3, 81150, Note_on_c, 1, 71, 64
3, 81176, Note_on_c, 1, 71, 0
3, 81180, Note_on_c, 1, 70, 64
3, 81206, Note_on_c, 1, 70, 0
3, 81210, Note_on_c, 1, 71, 64
3, 81345, Note_on_c, 1, 71, 0
3, 82437, Program_c, 1, 19
3, 82437, Control_c, 1, 0, 0
3, 82437, Control_c, 1, 11, 110
3, 82437, Control_c, 1, 64, 0
3, 82437, Control_c, 1, 91, 50
3, 82437, Control_c, 1, 93, 30
3, 82437, Control_c, 1, 7, 90
3, 82438, Control_c, 1, 10, 20
3, 82440, Note_on_c, 1, 66, 72
3, 82466, Note_on_c, 1, 66, 0
3, 82470, Note_on_c, 1, 68, 72
3, 82496, Note_on_c, 1, 68, 0
3, 82500, Note_on_c, 1, 69, 72
3, 82526, Note_on_c, 1, 69, 0
3, 82530, Note_on_c, 1, 68, 72
3, 82556, Note_on_c, 1, 68, 0
3, 82560, Note_on_c, 1, 66, 72
3, 82586, Note_on_c, 1, 66, 0
3, 82590, Note_on_c, 1, 68, 72
3, 82616, Note_on_c, 1, 68, 0
3, 82620, Note_on_c, 1, 69, 72
3, 82646, Note_on_c, 1, 69, 0
3, 82650, Note_on_c, 1, 68, 72
3, 82676, Note_on_c, 1, 68, 0
3, 82680, Note_on_c, 1, 66, 72
3, 82706, Note_on_c, 1, 66, 0
3, 82710, Note_on_c, 1, 68, 72
3, 82736, Note_on_c, 1, 68, 0
3, 82740, Note_on_c, 1, 69, 72
3, 82766, Note_on_c, 1, 69, 0
3, 82770, Note_on_c, 1, 68, 72
3, 82796, Note_on_c, 1, 68, 0
3, 82800, Note_on_c, 1, 66, 72
3, 82826, Note_on_c, 1, 66, 0
3, 82830, Note_on_c, 1, 68, 72
3, 82856, Note_on_c, 1, 68, 0
3, 82860, Note_on_c, 1, 69, 72
3, 82886, Note_on_c, 1, 69, 0
3, 82890, Note_on_c, 1, 68, 72
3, 82916, Note_on_c, 1, 68, 0
3, 82920, Note_on_c, 1, 66, 72
3, 83025, Note_on_c, 1, 66, 0
3, 83280, Note_on_c, 1, 74, 81
3, 83306, Note_on_c, 1, 74, 0
3, 83310, Note_on_c, 1, 73, 81
3, 83336, Note_on_c, 1, 73, 0
3, 83340, Note_on_c, 1, 74, 80
3, 83366, Note_on_c, 1, 74, 0
3, 83370, Note_on_c, 1, 69, 81
3, 83396, Note_on_c, 1, 69, 0
3, 83400, Note_on_c, 1, 71, 80
3, 83426, Note_on_c, 1, 71, 0
3, 83430, Note_on_c, 1, 69, 80
3, 83456, Note_on_c, 1, 69, 0
3, 83460, Note_on_c, 1, 71, 80
3, 83486, Note_on_c, 1, 71, 0
3, 83490, Note_on_c, 1, 68, 80
3, 83516, Note_on_c, 1, 68, 0
3, 83520, Note_on_c, 1, 73, 79
3, 83546, Note_on_c, 1, 73, 0
3, 83550, Note_on_c, 1, 71, 79
3, 83576, Note_on_c, 1, 71, 0
3, 83580, Note_on_c, 1, 73, 79
3, 83606, Note_on_c, 1, 73, 0
3, 83610, Note_on_c, 1, 68, 78
3, 83636, Note_on_c, 1, 68, 0
3, 83640, Note_on_c, 1, 69, 78
3, 83666, Note_on_c, 1, 69, 0
3, 83670, Note_on_c, 1, 68, 78
3, 83696, Note_on_c, 1, 68, 0
3, 83700, Note_on_c, 1, 69, 78
3, 83726, Note_on_c, 1, 69, 0
3, 83730, Note_on_c, 1, 66, 78
3, 83756, Note_on_c, 1, 66, 0
3, 83760, Note_on_c, 1, 71, 78
3, 83786, Note_on_c, 1, 71, 0
3, 83790, Note_on_c, 1, 69, 79
3, 83816, Note_on_c, 1, 69, 0
3, 83820, Note_on_c, 1, 71, 79
3, 83846, Note_on_c, 1, 71, 0
3, 83850, Note_on_c, 1, 66, 79
3, 83876, Note_on_c, 1, 66, 0
3, 83880, Note_on_c, 1, 68, 79
3, 83906, Note_on_c, 1, 68, 0
3, 83910, Note_on_c, 1, 66, 79
3, 83936, Note_on_c, 1, 66, 0
3, 83940, Note_on_c, 1, 68, 79
3, 83966, Note_on_c, 1, 68, 0
3, 83970, Note_on_c, 1, 64, 79
3, 83996, Note_on_c, 1, 64, 0
3, 84000, Note_on_c, 1, 69, 79
3, 84026, Note_on_c, 1, 69, 0
3, 84030, Note_on_c, 1, 68, 79
3, 84056, Note_on_c, 1, 68, 0
3, 84060, Note_on_c, 1, 69, 79
3, 84086, Note_on_c, 1, 69, 0
3, 84090, Note_on_c, 1, 64, 79
3, 84116, Note_on_c, 1, 64, 0
3, 84120, Note_on_c, 1, 66, 79
3, 84146, Note_on_c, 1, 66, 0
3, 84150, Note_on_c, 1, 64, 79
3, 84176, Note_on_c, 1, 64, 0
3, 84180, Note_on_c, 1, 66, 79
3, 84206, Note_on_c, 1, 66, 0
3, 84210, Note_on_c, 1, 63, 79
3, 84236, Note_on_c, 1, 63, 0
3, 84240, Note_on_c, 1, 68, 78
3, 84266, Note_on_c, 1, 68, 0
3, 84270, Note_on_c, 1, 66, 78
3, 84296, Note_on_c, 1, 66, 0
3, 84300, Note_on_c, 1, 68, 78
3, 84326, Note_on_c, 1, 68, 0
3, 84330, Note_on_c, 1, 63, 78
3, 84356, Note_on_c, 1, 63, 0
3, 84360, Note_on_c, 1, 65, 79
3, 84386, Note_on_c, 1, 65, 0
3, 84390, Note_on_c, 1, 63, 79
3, 84416, Note_on_c, 1, 63, 0
3, 84420, Note_on_c, 1, 65, 79
3, 84446, Note_on_c, 1, 65, 0
3, 84450, Note_on_c, 1, 61, 78
3, 84476, Note_on_c, 1, 61, 0
3, 84480, Note_on_c, 1, 66, 78
3, 84532, Note_on_c, 1, 66, 0
3, 84540, Note_on_c, 1, 73, 78
3, 84592, Note_on_c, 1, 73, 0
3, 84600, Note_on_c, 1, 74, 78
3, 84626, Note_on_c, 1, 74, 0
3, 84630, Note_on_c, 1, 65, 78
3, 84656, Note_on_c, 1, 65, 0
3, 84660, Note_on_c, 1, 66, 79
3, 84686, Note_on_c, 1, 66, 0
3, 84690, Note_on_c, 1, 68, 78
3, 84716, Note_on_c, 1, 68, 0
3, 84720, Note_on_c, 1, 65, 79
3, 84737, Note_on_c, 1, 65, 0
3, 84739, Note_on_c, 1, 63, 80
3, 84757, Note_on_c, 1, 63, 0
3, 84759, Note_on_c, 1, 65, 79
3, 84806, Note_on_c, 1, 65, 0
3, 84810, Note_on_c, 1, 66, 79
3, 84836, Note_on_c, 1, 66, 0
3, 84840, Note_on_c, 1, 66, 78
3, 84892, Note_on_c, 1, 66, 0
3, 84897, Program_c, 1, 19
3, 84897, Control_c, 1, 0, 0
3, 84897, Control_c, 1, 11, 110
3, 84897, Control_c, 1, 64, 0
3, 84897, Control_c, 1, 91, 50
3, 84897, Control_c, 1, 93, 30
3, 84897, Control_c, 1, 7, 100
3, 84898, Control_c, 1, 10, 20
3, 84900, Note_on_c, 1, 69, 87
3, 84926, Note_on_c, 1, 69, 0
3, 84930, Note_on_c, 1, 68, 88
3, 84956, Note_on_c, 1, 68, 0
3, 84960, Note_on_c, 1, 69, 88
3, 84986, Note_on_c, 1, 69, 0
3, 84990, Note_on_c, 1, 68, 88
3, 85016, Note_on_c, 1, 68, 0
3, 85020, Note_on_c, 1, 69, 88
3, 85046, Note_on_c, 1, 69, 0
3, 85050, Note_on_c, 1, 68, 88
3, 85076, Note_on_c, 1, 68, 0
3, 85080, Note_on_c, 1, 69, 87
3, 85185, Note_on_c, 1, 69, 0
3, 85380, Note_on_c, 1, 66, 89
3, 85406, Note_on_c, 1, 66, 0
3, 85410, Note_on_c, 1, 65, 88
3, 85436, Note_on_c, 1, 65, 0
3, 85440, Note_on_c, 1, 66, 88
3, 85466, Note_on_c, 1, 66, 0
3, 85470, Note_on_c, 1, 65, 88
3, 85496, Note_on_c, 1, 65, 0
3, 85500, Note_on_c, 1, 66, 89
3, 85526, Note_on_c, 1, 66, 0
3, 85530, Note_on_c, 1, 65, 88
3, 85556, Note_on_c, 1, 65, 0
3, 85560, Note_on_c, 1, 66, 84
3, 85665, Note_on_c, 1, 66, 0
3, 85860, Note_on_c, 1, 61, 84
3, 85912, Note_on_c, 1, 61, 0
3, 85920, Note_on_c, 1, 61, 84
3, 85972, Note_on_c, 1, 61, 0
3, 85980, Note_on_c, 1, 61, 84
3, 86032, Note_on_c, 1, 61, 0
3, 86040, Note_on_c, 1, 61, 84
3, 86145, Note_on_c, 1, 61, 0
3, 86220, Note_on_c, 1, 66, 73
3, 86272, Note_on_c, 1, 66, 0
3, 86280, Note_on_c, 1, 66, 74
3, 86385, Note_on_c, 1, 66, 0
3, 86460, Note_on_c, 1, 64, 71
3, 86512, Note_on_c, 1, 64, 0
3, 86520, Note_on_c, 1, 64, 71
3, 86625, Note_on_c, 1, 64, 0
3, 86700, Note_on_c, 1, 62, 71
3, 86752, Note_on_c, 1, 62, 0
3, 86760, Note_on_c, 1, 62, 70
3, 86865, Note_on_c, 1, 62, 0
3, 86940, Note_on_c, 1, 61, 66
3, 86992, Note_on_c, 1, 61, 0
3, 87000, Note_on_c, 1, 61, 66
3, 87105, Note_on_c, 1, 61, 0
3, 87180, Note_on_c, 1, 59, 66
3, 87232, Note_on_c, 1, 59, 0
3, 87240, Note_on_c, 1, 59, 69
3, 87345, Note_on_c, 1, 59, 0
3, 87360, Note_on_c, 1, 57, 78
3, 87386, Note_on_c, 1, 57, 0
3, 87390, Note_on_c, 1, 59, 78
3, 87416, Note_on_c, 1, 59, 0
3, 87420, Note_on_c, 1, 57, 78
3, 87446, Note_on_c, 1, 57, 0
3, 87450, Note_on_c, 1, 59, 75
3, 87476, Note_on_c, 1, 59, 0
3, 87480, Note_on_c, 1, 56, 73
3, 87585, Note_on_c, 1, 56, 0
3, 87600, Note_on_c, 1, 61, 66
3, 87746, Note_on_c, 1, 61, 0
3, 87750, Note_on_c, 1, 62, 78
3, 87776, Note_on_c, 1, 62, 0
3, 87780, Note_on_c, 1, 61, 73
3, 87806, Note_on_c, 1, 61, 0
3, 87810, Note_on_c, 1, 62, 73
3, 87836, Note_on_c, 1, 62, 0
3, 87840, Note_on_c, 1, 59, 71
3, 87986, Note_on_c, 1, 59, 0
3, 87990, Note_on_c, 1, 61, 76
3, 88016, Note_on_c, 1, 61, 0
3, 88020, Note_on_c, 1, 57, 76
3, 88046, Note_on_c, 1, 57, 0
3, 88050, Note_on_c, 1, 59, 73
3, 88076, Note_on_c, 1, 59, 0
3, 88080, Note_on_c, 1, 56, 70
3, 88185, Note_on_c, 1, 56, 0
3, 88200, Note_on_c, 1, 57, 67
3, 88305, Note_on_c, 1, 57, 0
3, 88320, Note_on_c, 1, 57, 80
3, 88346, Note_on_c, 1, 57, 0
3, 88350, Note_on_c, 1, 61, 80
3, 88376, Note_on_c, 1, 61, 0
3, 88380, Note_on_c, 1, 57, 80
3, 88406, Note_on_c, 1, 57, 0
3, 88410, Note_on_c, 1, 54, 80
3, 88436, Note_on_c, 1, 54, 0
3, 88560, Note_on_c, 1, 69, 83
3, 88586, Note_on_c, 1, 69, 0
3, 88590, Note_on_c, 1, 73, 83
3, 88616, Note_on_c, 1, 73, 0
3, 88620, Note_on_c, 1, 69, 83
3, 88646, Note_on_c, 1, 69, 0
3, 88650, Note_on_c, 1, 66, 85
3, 88676, Note_on_c, 1, 66, 0
3, 89460, Note_on_c, 1, 68, 80
3, 89486, Note_on_c, 1, 68, 0
3, 89490, Note_on_c, 1, 66, 80
3, 89516, Note_on_c, 1, 66, 0
3, 89520, Note_on_c, 1, 68, 80
3, 89546, Note_on_c, 1, 68, 0
3, 89550, Note_on_c, 1, 66, 80
3, 89576, Note_on_c, 1, 66, 0
3, 89580, Note_on_c, 1, 68, 80
3, 89606, Note_on_c, 1, 68, 0
3, 89610, Note_on_c, 1, 66, 80
3, 89636, Note_on_c, 1, 66, 0
3, 89640, Note_on_c, 1, 64, 77
3, 89692, Note_on_c, 1, 64, 0
3, 90420, Note_on_c, 1, 68, 71
3, 90472, Note_on_c, 1, 68, 0
3, 90480, Note_on_c, 1, 68, 71
3, 90532, Note_on_c, 1, 68, 0
3, 90540, Note_on_c, 1, 68, 71
3, 90592, Note_on_c, 1, 68, 0
3, 90600, Note_on_c, 1, 68, 73
3, 90705, Note_on_c, 1, 68, 0
3, 90780, Note_on_c, 1, 64, 64
3, 90832, Note_on_c, 1, 64, 0
3, 90840, Note_on_c, 1, 63, 64
3, 90945, Note_on_c, 1, 63, 0
3, 91020, Note_on_c, 1, 63, 64
3, 91072, Note_on_c, 1, 63, 0
3, 91080, Note_on_c, 1, 61, 64
3, 91185, Note_on_c, 1, 61, 0
3, 91260, Note_on_c, 1, 73, 58
3, 91312, Note_on_c, 1, 73, 0
3, 91320, Note_on_c, 1, 69, 55
3, 91425, Note_on_c, 1, 69, 0
3, 91500, Note_on_c, 1, 68, 58
3, 91552, Note_on_c, 1, 68, 0
3, 91560, Note_on_c, 1, 68, 55
3, 91665, Note_on_c, 1, 68, 0
3, 91740, Note_on_c, 1, 69, 58
3, 91792, Note_on_c, 1, 69, 0
3, 91800, Note_on_c, 1, 68, 60
3, 91965, Note_on_c, 1, 68, 0
3, 91980, Note_on_c, 1, 66, 59
3, 92032, Note_on_c, 1, 66, 0
3, 92040, Note_on_c, 1, 64, 58
3, 92145, Note_on_c, 1, 64, 0
3, 92160, Note_on_c, 1, 64, 77
3, 92186, Note_on_c, 1, 64, 0
3, 92190, Note_on_c, 1, 68, 77
3, 92216, Note_on_c, 1, 68, 0
3, 92220, Note_on_c, 1, 64, 77
3, 92246, Note_on_c, 1, 64, 0
3, 92250, Note_on_c, 1, 61, 76
3, 92276, Note_on_c, 1, 61, 0
3, 92400, Note_on_c, 1, 56, 77
3, 92426, Note_on_c, 1, 56, 0
3, 92430, Note_on_c, 1, 61, 76
3, 92456, Note_on_c, 1, 61, 0
3, 92460, Note_on_c, 1, 56, 76
3, 92486, Note_on_c, 1, 56, 0
3, 92490, Note_on_c, 1, 52, 76
3, 92516, Note_on_c, 1, 52, 0
3, 94797, Program_c, 1, 19
3, 94797, Control_c, 1, 0, 0
3, 94797, Control_c, 1, 11, 110
3, 94797, Control_c, 1, 64, 0
3, 94797, Control_c, 1, 91, 50
3, 94797, Control_c, 1, 93, 5
3, 94797, Control_c, 1, 7, 110
3, 94798, Control_c, 1, 10, 20
3, 94800, Note_on_c, 1, 56, 59
3, 94826, Note_on_c, 1, 56, 0
3, 94830, Note_on_c, 1, 59, 59
3, 94856, Note_on_c, 1, 59, 0
3, 94860, Note_on_c, 1, 64, 58
3, 94886, Note_on_c, 1, 64, 0
3, 94890, Note_on_c, 1, 59, 58
3, 94916, Note_on_c, 1, 59, 0
3, 94920, Note_on_c, 1, 56, 58
3, 94946, Note_on_c, 1, 56, 0
3, 94950, Note_on_c, 1, 59, 58
3, 94976, Note_on_c, 1, 59, 0
3, 94980, Note_on_c, 1, 64, 58
3, 95006, Note_on_c, 1, 64, 0
3, 95010, Note_on_c, 1, 59, 58
3, 95036, Note_on_c, 1, 59, 0
3, 95040, Note_on_c, 1, 56, 58
3, 95066, Note_on_c, 1, 56, 0
3, 95070, Note_on_c, 1, 59, 58
3, 95096, Note_on_c, 1, 59, 0
3, 95100, Note_on_c, 1, 64, 59
3, 95126, Note_on_c, 1, 64, 0
3, 95130, Note_on_c, 1, 59, 59
3, 95156, Note_on_c, 1, 59, 0
3, 95160, Note_on_c, 1, 56, 59
3, 95212, Note_on_c, 1, 56, 0
3, 95700, Note_on_c, 1, 68, 49
3, 95726, Note_on_c, 1, 68, 0
3, 95730, Note_on_c, 1, 66, 49
3, 95756, Note_on_c, 1, 66, 0
3, 95760, Note_on_c, 1, 68, 48
3, 95786, Note_on_c, 1, 68, 0
3, 95790, Note_on_c, 1, 66, 48
3, 95816, Note_on_c, 1, 66, 0
3, 95820, Note_on_c, 1, 68, 48
3, 95846, Note_on_c, 1, 68, 0
3, 95850, Note_on_c, 1, 66, 49
3, 95876, Note_on_c, 1, 66, 0
3, 95880, Note_on_c, 1, 68, 49
3, 95985, Note_on_c, 1, 68, 0
3, 96060, Note_on_c, 1, 68, 49
3, 96112, Note_on_c, 1, 68, 0
3, 96120, Note_on_c, 1, 66, 48
3, 96225, Note_on_c, 1, 66, 0
3, 96300, Note_on_c, 1, 66, 48
3, 96352, Note_on_c, 1, 66, 0
3, 96360, Note_on_c, 1, 64, 48
3, 96465, Note_on_c, 1, 64, 0
3, 96540, Note_on_c, 1, 68, 49
3, 96592, Note_on_c, 1, 68, 0
3, 96600, Note_on_c, 1, 66, 49
3, 96705, Note_on_c, 1, 66, 0
3, 96780, Note_on_c, 1, 66, 49
3, 96832, Note_on_c, 1, 66, 0
3, 96840, Note_on_c, 1, 64, 50
3, 96945, Note_on_c, 1, 64, 0
3, 97020, Note_on_c, 1, 66, 53
3, 97072, Note_on_c, 1, 66, 0
3, 97080, Note_on_c, 1, 66, 53
3, 97185, Note_on_c, 1, 66, 0
3, 97260, Note_on_c, 1, 64, 53
3, 97312, Note_on_c, 1, 64, 0
3, 97320, Note_on_c, 1, 64, 54
3, 97425, Note_on_c, 1, 64, 0
3, 97440, Note_on_c, 1, 62, 54
3, 97612, Note_on_c, 1, 62, 0
3, 97620, Note_on_c, 1, 61, 64
3, 97672, Note_on_c, 1, 61, 0
3, 97680, Note_on_c, 1, 59, 64
3, 97732, Note_on_c, 1, 59, 0
3, 97740, Note_on_c, 1, 62, 64
3, 97792, Note_on_c, 1, 62, 0
3, 97797, Program_c, 1, 19
3, 97797, Control_c, 1, 0, 0
3, 97797, Control_c, 1, 11, 110
3, 97797, Control_c, 1, 64, 0
3, 97797, Control_c, 1, 91, 50
3, 97797, Control_c, 1, 93, 20
3, 97797, Control_c, 1, 7, 110
3, 97798, Control_c, 1, 10, 20
3, 97800, Note_on_c, 1, 61, 64
3, 97826, Note_on_c, 1, 61, 0
3, 97830, Note_on_c, 1, 62, 64
3, 97856, Note_on_c, 1, 62, 0
3, 97860, Note_on_c, 1, 64, 64
3, 97886, Note_on_c, 1, 64, 0
3, 97890, Note_on_c, 1, 62, 64
3, 97916, Note_on_c, 1, 62, 0
3, 97920, Note_on_c, 1, 61, 64
3, 97946, Note_on_c, 1, 61, 0
3, 97950, Note_on_c, 1, 62, 64
3, 97976, Note_on_c, 1, 62, 0
3, 97980, Note_on_c, 1, 64, 64
3, 98006, Note_on_c, 1, 64, 0
3, 98010, Note_on_c, 1, 62, 64
3, 98036, Note_on_c, 1, 62, 0
3, 98040, Note_on_c, 1, 61, 64
3, 98066, Note_on_c, 1, 61, 0
3, 98070, Note_on_c, 1, 62, 64
3, 98096, Note_on_c, 1, 62, 0
3, 98100, Note_on_c, 1, 64, 64
3, 98126, Note_on_c, 1, 64, 0
3, 98130, Note_on_c, 1, 62, 64
3, 98156, Note_on_c, 1, 62, 0
3, 98160, Note_on_c, 1, 61, 64
3, 98186, Note_on_c, 1, 61, 0
3, 98190, Note_on_c, 1, 62, 64
3, 98216, Note_on_c, 1, 62, 0
3, 98220, Note_on_c, 1, 64, 64
3, 98246, Note_on_c, 1, 64, 0
3, 98250, Note_on_c, 1, 62, 64
3, 98276, Note_on_c, 1, 62, 0
3, 98280, Note_on_c, 1, 61, 64
3, 98385, Note_on_c, 1, 61, 0
3, 98700, Note_on_c, 1, 73, 64
3, 98752, Note_on_c, 1, 73, 0
3, 98760, Note_on_c, 1, 71, 64
3, 98865, Note_on_c, 1, 71, 0
3, 98940, Note_on_c, 1, 71, 64
3, 98992, Note_on_c, 1, 71, 0
3, 99000, Note_on_c, 1, 69, 64
3, 99105, Note_on_c, 1, 69, 0
3, 99180, Note_on_c, 1, 69, 64
3, 99232, Note_on_c, 1, 69, 0
3, 99240, Note_on_c, 1, 68, 64
3, 99345, Note_on_c, 1, 68, 0
3, 99420, Note_on_c, 1, 68, 64
3, 99472, Note_on_c, 1, 68, 0
3, 99480, Note_on_c, 1, 66, 64
3, 99585, Note_on_c, 1, 66, 0
3, 99660, Note_on_c, 1, 66, 64
3, 99712, Note_on_c, 1, 66, 0
3, 99720, Note_on_c, 1, 64, 64
3, 99892, Note_on_c, 1, 64, 0
3, 99900, Note_on_c, 1, 64, 64
3, 99952, Note_on_c, 1, 64, 0
3, 99960, Note_on_c, 1, 66, 64
3, 100132, Note_on_c, 1, 66, 0
3, 100140, Note_on_c, 1, 66, 64
3, 100192, Note_on_c, 1, 66, 0
3, 100200, Note_on_c, 1, 68, 64
3, 100372, Note_on_c, 1, 68, 0
3, 100380, Note_on_c, 1, 68, 64
3, 100432, Note_on_c, 1, 68, 0
3, 100440, Note_on_c, 1, 69, 64
3, 100612, Note_on_c, 1, 69, 0
3, 100620, Note_on_c, 1, 69, 64
3, 100672, Note_on_c, 1, 69, 0
3, 100680, Note_on_c, 1, 69, 64
3, 100852, Note_on_c, 1, 69, 0
3, 100860, Note_on_c, 1, 68, 64
3, 100912, Note_on_c, 1, 68, 0
3, 100920, Note_on_c, 1, 69, 64
3, 100972, Note_on_c, 1, 69, 0
3, 101400, Note_on_c, 1, 69, 66
3, 101452, Note_on_c, 1, 69, 0
3, 101520, Note_on_c, 1, 69, 66
3, 101572, Note_on_c, 1, 69, 0
3, 101640, Note_on_c, 1, 69, 66
3, 101692, Note_on_c, 1, 69, 0
3, 101760, Note_on_c, 1, 69, 66
3, 101812, Note_on_c, 1, 69, 0
3, 101880, Note_on_c, 1, 69, 66
3, 101985, Note_on_c, 1, 69, 0
3, 102360, Note_on_c, 1, 69, 72
3, 102412, Note_on_c, 1, 69, 0
3, 102480, Note_on_c, 1, 69, 70
3, 102532, Note_on_c, 1, 69, 0
3, 102600, Note_on_c, 1, 69, 70
3, 102652, Note_on_c, 1, 69, 0
3, 102720, Note_on_c, 1, 69, 70
3, 102772, Note_on_c, 1, 69, 0
3, 102840, Note_on_c, 1, 69, 70
3, 102892, Note_on_c, 1, 69, 0
3, 105000, Note_on_c, 1, 69, 81
3, 105105, Note_on_c, 1, 69, 0
3, 105120, Note_on_c, 1, 69, 81
3, 105172, Note_on_c, 1, 69, 0
3, 105180, Note_on_c, 1, 69, 81
3, 105232, Note_on_c, 1, 69, 0
3, 105240, Note_on_c, 1, 69, 81
3, 105345, Note_on_c, 1, 69, 0
3, 105360, Note_on_c, 1, 69, 81
3, 105412, Note_on_c, 1, 69, 0
3, 105420, Note_on_c, 1, 69, 82
3, 105472, Note_on_c, 1, 69, 0
3, 105480, Note_on_c, 1, 69, 82
3, 105585, Note_on_c, 1, 69, 0
3, 105600, Note_on_c, 1, 69, 82
3, 105652, Note_on_c, 1, 69, 0
3, 105660, Note_on_c, 1, 69, 82
3, 105712, Note_on_c, 1, 69, 0
3, 105720, Note_on_c, 1, 69, 82
3, 105825, Note_on_c, 1, 69, 0
3, 105840, Note_on_c, 1, 69, 82
3, 105892, Note_on_c, 1, 69, 0
3, 105900, Note_on_c, 1, 69, 82
3, 105952, Note_on_c, 1, 69, 0
3, 105960, Note_on_c, 1, 69, 82
3, 106065, Note_on_c, 1, 69, 0
3, 106080, Note_on_c, 1, 69, 82
3, 106132, Note_on_c, 1, 69, 0
3, 106140, Note_on_c, 1, 69, 82
3, 106192, Note_on_c, 1, 69, 0
3, 106200, Note_on_c, 1, 69, 82
3, 106305, Note_on_c, 1, 69, 0
3, 106320, Note_on_c, 1, 68, 82
3, 106372, Note_on_c, 1, 68, 0
3, 106380, Note_on_c, 1, 68, 82
3, 106432, Note_on_c, 1, 68, 0
3, 106440, Note_on_c, 1, 69, 82
3, 106492, Note_on_c, 1, 69, 0
3, 109140, Note_on_c, 1, 74, 83
3, 109166, Note_on_c, 1, 74, 0
3, 109170, Note_on_c, 1, 73, 83
3, 109196, Note_on_c, 1, 73, 0
3, 109200, Note_on_c, 1, 74, 83
3, 109226, Note_on_c, 1, 74, 0
3, 109230, Note_on_c, 1, 73, 83
3, 109256, Note_on_c, 1, 73, 0
3, 109260, Note_on_c, 1, 74, 83
3, 109286, Note_on_c, 1, 74, 0
3, 109290, Note_on_c, 1, 73, 83
3, 109316, Note_on_c, 1, 73, 0
3, 109320, Note_on_c, 1, 74, 83
3, 109372, Note_on_c, 1, 74, 0
3, 109500, Note_on_c, 1, 66, 57
3, 109500, Note_on_c, 1, 71, 57
3, 109552, Note_on_c, 1, 71, 0
3, 109552, Note_on_c, 1, 66, 0
3, 109560, Note_on_c, 1, 67, 59
3, 109560, Note_on_c, 1, 71, 59
3, 109665, Note_on_c, 1, 71, 0
3, 109665, Note_on_c, 1, 67, 0
3, 109740, Note_on_c, 1, 64, 59
3, 109740, Note_on_c, 1, 69, 59
3, 109792, Note_on_c, 1, 69, 0
3, 109792, Note_on_c, 1, 64, 0
3, 109800, Note_on_c, 1, 66, 59
3, 109800, Note_on_c, 1, 69, 59
3, 109905, Note_on_c, 1, 69, 0
3, 109905, Note_on_c, 1, 66, 0
3, 109980, Note_on_c, 1, 62, 60
3, 109980, Note_on_c, 1, 67, 60
3, 110032, Note_on_c, 1, 67, 0
3, 110032, Note_on_c, 1, 62, 0
3, 110040, Note_on_c, 1, 64, 60
3, 110040, Note_on_c, 1, 67, 60
3, 110145, Note_on_c, 1, 67, 0
3, 110145, Note_on_c, 1, 64, 0
3, 110220, Note_on_c, 1, 61, 61
3, 110220, Note_on_c, 1, 66, 61
3, 110272, Note_on_c, 1, 66, 0
3, 110272, Note_on_c, 1, 61, 0
3, 110280, Note_on_c, 1, 62, 61
3, 110280, Note_on_c, 1, 66, 61
3, 110385, Note_on_c, 1, 66, 0
3, 110385, Note_on_c, 1, 62, 0
3, 110460, Note_on_c, 1, 59, 61
3, 110460, Note_on_c, 1, 64, 61
3, 110512, Note_on_c, 1, 64, 0
3, 110512, Note_on_c, 1, 59, 0
3, 110520, Note_on_c, 1, 61, 60
3, 110520, Note_on_c, 1, 64, 60
3, 110625, Note_on_c, 1, 64, 0
3, 110625, Note_on_c, 1, 61, 0
3, 110640, Note_on_c, 1, 62, 60
3, 110640, Note_on_c, 1, 66, 60
3, 110745, Note_on_c, 1, 66, 0
3, 110745, Note_on_c, 1, 62, 0
3, 110760, Note_on_c, 1, 59, 60
3, 110760, Note_on_c, 1, 64, 60
3, 110865, Note_on_c, 1, 64, 0
3, 110865, Note_on_c, 1, 59, 0
3, 110880, Note_on_c, 1, 57, 64
3, 110880, Note_on_c, 1, 64, 64
3, 110985, Note_on_c, 1, 64, 0
3, 110985, Note_on_c, 1, 57, 0
3, 111000, Note_on_c, 1, 57, 64
3, 111000, Note_on_c, 1, 62, 64
3, 111105, Note_on_c, 1, 62, 0
3, 111105, Note_on_c, 1, 57, 0
3, 111180, Note_on_c, 1, 62, 57
3, 111232, Note_on_c, 1, 62, 0
3, 111240, Note_on_c, 1, 59, 52
3, 111345, Note_on_c, 1, 59, 0
3, 111420, Note_on_c, 1, 61, 53
3, 111472, Note_on_c, 1, 61, 0
3, 111480, Note_on_c, 1, 57, 49
3, 111585, Note_on_c, 1, 57, 0
3, 111660, Note_on_c, 1, 59, 54
3, 111712, Note_on_c, 1, 59, 0
3, 111720, Note_on_c, 1, 55, 50
3, 111825, Note_on_c, 1, 55, 0
3, 111900, Note_on_c, 1, 57, 51
3, 111952, Note_on_c, 1, 57, 0
3, 111960, Note_on_c, 1, 54, 47
3, 112065, Note_on_c, 1, 54, 0
3, 112140, Note_on_c, 1, 55, 49
3, 112192, Note_on_c, 1, 55, 0
3, 112200, Note_on_c, 1, 52, 46
3, 112305, Note_on_c, 1, 52, 0
3, 112320, Note_on_c, 1, 50, 46
3, 112425, Note_on_c, 1, 50, 0
3, 113670, Note_on_c, 1, 62, 69
3, 113696, Note_on_c, 1, 62, 0
3, 113700, Note_on_c, 1, 57, 70
3, 113726, Note_on_c, 1, 57, 0
3, 113730, Note_on_c, 1, 54, 70
3, 113756, Note_on_c, 1, 54, 0
3, 113760, Note_on_c, 1, 50, 69
3, 113786, Note_on_c, 1, 50, 0
3, 113790, Note_on_c, 1, 57, 69
3, 113816, Note_on_c, 1, 57, 0
3, 113820, Note_on_c, 1, 54, 69
3, 113846, Note_on_c, 1, 54, 0
3, 113850, Note_on_c, 1, 50, 68
3, 113876, Note_on_c, 1, 50, 0
3, 113880, Note_on_c, 1, 45, 64
3, 113932, Note_on_c, 1, 45, 0
3, 114150, Note_on_c, 1, 57, 64
3, 114176, Note_on_c, 1, 57, 0
3, 114180, Note_on_c, 1, 54, 64
3, 114206, Note_on_c, 1, 54, 0
3, 114210, Note_on_c, 1, 50, 64
3, 114236, Note_on_c, 1, 50, 0
3, 114240, Note_on_c, 1, 45, 64
3, 114266, Note_on_c, 1, 45, 0
3, 114270, Note_on_c, 1, 50, 64
3, 114296, Note_on_c, 1, 50, 0
3, 114300, Note_on_c, 1, 45, 64
3, 114326, Note_on_c, 1, 45, 0
3, 114330, Note_on_c, 1, 42, 64
3, 114356, Note_on_c, 1, 42, 0
3, 114360, Note_on_c, 1, 38, 64
3, 114412, Note_on_c, 1, 38, 0
3, 117000, Note_on_c, 1, 69, 82
3, 117052, Note_on_c, 1, 69, 0
3, 117060, Note_on_c, 1, 69, 82
3, 117112, Note_on_c, 1, 69, 0
3, 117120, Note_on_c, 1, 69, 82
3, 117172, Note_on_c, 1, 69, 0
3, 117180, Note_on_c, 1, 69, 82
3, 117232, Note_on_c, 1, 69, 0
3, 117240, Note_on_c, 1, 69, 82
3, 117292, Note_on_c, 1, 69, 0
3, 117480, Note_on_c, 1, 69, 82
3, 117532, Note_on_c, 1, 69, 0
3, 117532, End_track
4, 0, Start_track
4, 0, MIDI_port, 0
4, 0, Title_t, " "
4, 0, Program_c, 2, 19
4, 0, Control_c, 2, 7, 80
4, 0, Control_c, 2, 10, 40
4, 30, Program_c, 2, 19
4, 30, Control_c, 2, 0, 0
4, 30, Control_c, 2, 11, 110
4, 30, Control_c, 2, 64, 0
4, 30, Control_c, 2, 91, 40
4, 30, Control_c, 2, 93, 50
4, 450, Note_on_c, 2, 66, 64
4, 476, Note_on_c, 2, 66, 0
4, 480, Note_on_c, 2, 69, 64
4, 532, Note_on_c, 2, 69, 0
4, 540, Note_on_c, 2, 69, 65
4, 592, Note_on_c, 2, 69, 0
4, 600, Note_on_c, 2, 69, 68
4, 720, Note_on_c, 2, 69, 0
4, 1410, Note_on_c, 2, 74, 64
4, 1436, Note_on_c, 2, 74, 0
4, 1440, Note_on_c, 2, 78, 64
4, 1492, Note_on_c, 2, 78, 0
4, 1500, Note_on_c, 2, 78, 64
4, 1552, Note_on_c, 2, 78, 0
4, 1560, Note_on_c, 2, 57, 73
4, 1680, Note_on_c, 2, 57, 0
4, 1890, Note_on_c, 2, 66, 64
4, 1916, Note_on_c, 2, 66, 0
4, 1920, Note_on_c, 2, 69, 64
4, 1972, Note_on_c, 2, 69, 0
4, 1980, Note_on_c, 2, 69, 64
4, 2032, Note_on_c, 2, 69, 0
4, 2040, Note_on_c, 2, 69, 71
4, 2145, Note_on_c, 2, 69, 0
4, 2310, Note_on_c, 2, 73, 64
4, 2336, Note_on_c, 2, 73, 0
4, 2340, Note_on_c, 2, 74, 64
4, 2366, Note_on_c, 2, 74, 0
4, 2370, Note_on_c, 2, 71, 64
4, 2396, Note_on_c, 2, 71, 0
4, 2400, Note_on_c, 2, 73, 64
4, 2426, Note_on_c, 2, 73, 0
4, 2430, Note_on_c, 2, 71, 64
4, 2456, Note_on_c, 2, 71, 0
4, 2460, Note_on_c, 2, 69, 64
4, 2486, Note_on_c, 2, 69, 0
4, 2490, Note_on_c, 2, 68, 64
4, 2516, Note_on_c, 2, 68, 0
4, 2520, Note_on_c, 2, 69, 64
4, 2546, Note_on_c, 2, 69, 0
4, 2550, Note_on_c, 2, 64, 73
4, 2576, Note_on_c, 2, 64, 0
4, 2580, Note_on_c, 2, 66, 71
4, 2606, Note_on_c, 2, 66, 0
4, 2610, Note_on_c, 2, 68, 69
4, 2636, Note_on_c, 2, 68, 0
4, 2640, Note_on_c, 2, 69, 67
4, 2666, Note_on_c, 2, 69, 0
4, 2670, Note_on_c, 2, 62, 68
4, 2696, Note_on_c, 2, 62, 0
4, 2700, Note_on_c, 2, 61, 67
4, 2726, Note_on_c, 2, 61, 0
4, 2730, Note_on_c, 2, 59, 66
4, 2756, Note_on_c, 2, 59, 0
4, 2760, Note_on_c, 2, 61, 70
4, 2812, Note_on_c, 2, 61, 0
4, 3060, Note_on_c, 2, 62, 64
4, 3086, Note_on_c, 2, 62, 0
4, 3090, Note_on_c, 2, 59, 64
4, 3116, Note_on_c, 2, 59, 0
4, 3120, Note_on_c, 2, 61, 64
4, 3146, Note_on_c, 2, 61, 0
4, 3150, Note_on_c, 2, 64, 69
4, 3176, Note_on_c, 2, 64, 0
4, 3180, Note_on_c, 2, 66, 68
4, 3206, Note_on_c, 2, 66, 0
4, 3210, Note_on_c, 2, 68, 67
4, 3236, Note_on_c, 2, 68, 0
4, 3240, Note_on_c, 2, 69, 70
4, 3266, Note_on_c, 2, 69, 0
4, 3270, Note_on_c, 2, 62, 64
4, 3296, Note_on_c, 2, 62, 0
4, 3300, Note_on_c, 2, 61, 64
4, 3326, Note_on_c, 2, 61, 0
4, 3330, Note_on_c, 2, 59, 64
4, 3356, Note_on_c, 2, 59, 0
4, 3360, Note_on_c, 2, 61, 64
4, 3386, Note_on_c, 2, 61, 0
4, 3390, Note_on_c, 2, 64, 64
4, 3416, Note_on_c, 2, 64, 0
4, 3420, Note_on_c, 2, 66, 66
4, 3446, Note_on_c, 2, 66, 0
4, 3450, Note_on_c, 2, 68, 67
4, 3476, Note_on_c, 2, 68, 0
4, 3480, Note_on_c, 2, 69, 69
4, 3506, Note_on_c, 2, 69, 0
4, 3510, Note_on_c, 2, 68, 68
4, 3536, Note_on_c, 2, 68, 0
4, 3540, Note_on_c, 2, 69, 68
4, 3566, Note_on_c, 2, 69, 0
4, 3570, Note_on_c, 2, 71, 66
4, 3596, Note_on_c, 2, 71, 0
4, 3600, Note_on_c, 2, 73, 72
4, 3626, Note_on_c, 2, 73, 0
4, 3630, Note_on_c, 2, 71, 68
4, 3656, Note_on_c, 2, 71, 0
4, 3660, Note_on_c, 2, 69, 66
4, 3686, Note_on_c, 2, 69, 0
4, 3690, Note_on_c, 2, 68, 65
4, 3716, Note_on_c, 2, 68, 0
4, 3720, Note_on_c, 2, 69, 66
4, 3746, Note_on_c, 2, 69, 0
4, 3750, Note_on_c, 2, 64, 65
4, 3776, Note_on_c, 2, 64, 0
4, 3780, Note_on_c, 2, 66, 64
4, 3806, Note_on_c, 2, 66, 0
4, 3810, Note_on_c, 2, 62, 66
4, 3836, Note_on_c, 2, 62, 0
4, 3840, Note_on_c, 2, 64, 70
4, 3866, Note_on_c, 2, 64, 0
4, 3870, Note_on_c, 2, 69, 68
4, 3896, Note_on_c, 2, 69, 0
4, 3900, Note_on_c, 2, 62, 66
4, 3926, Note_on_c, 2, 62, 0
4, 3930, Note_on_c, 2, 68, 66
4, 3956, Note_on_c, 2, 68, 0
4, 3960, Note_on_c, 2, 61, 72
4, 4200, Note_on_c, 2, 61, 0
4, 4530, Note_on_c, 2, 76, 82
4, 4556, Note_on_c, 2, 76, 0
4, 4560, Note_on_c, 2, 70, 74
4, 4638, Note_on_c, 2, 70, 0
4, 4650, Note_on_c, 2, 73, 77
4, 4676, Note_on_c, 2, 73, 0
4, 4680, Note_on_c, 2, 64, 73
4, 4758, Note_on_c, 2, 64, 0
4, 4770, Note_on_c, 2, 67, 73
4, 4796, Note_on_c, 2, 67, 0
4, 4800, Note_on_c, 2, 58, 70
4, 4878, Note_on_c, 2, 58, 0
4, 4890, Note_on_c, 2, 64, 76
4, 4916, Note_on_c, 2, 64, 0
4, 4920, Note_on_c, 2, 62, 72
4, 5238, Note_on_c, 2, 62, 0
4, 5250, Note_on_c, 2, 61, 64
4, 5276, Note_on_c, 2, 61, 0
4, 5280, Note_on_c, 2, 59, 64
4, 5358, Note_on_c, 2, 59, 0
4, 5370, Note_on_c, 2, 57, 64
4, 5396, Note_on_c, 2, 57, 0
4, 5400, Note_on_c, 2, 56, 64
4, 5625, Note_on_c, 2, 56, 0
4, 6450, Note_on_c, 2, 62, 75
4, 6476, Note_on_c, 2, 62, 0
4, 6480, Note_on_c, 2, 61, 71
4, 6558, Note_on_c, 2, 61, 0
4, 6570, Note_on_c, 2, 59, 67
4, 6596, Note_on_c, 2, 59, 0
4, 6600, Note_on_c, 2, 61, 70
4, 6678, Note_on_c, 2, 61, 0
4, 6690, Note_on_c, 2, 59, 73
4, 6716, Note_on_c, 2, 59, 0
4, 6720, Note_on_c, 2, 58, 70
4, 6798, Note_on_c, 2, 58, 0
4, 6810, Note_on_c, 2, 56, 67
4, 6836, Note_on_c, 2, 56, 0
4, 6840, Note_on_c, 2, 58, 68
4, 6960, Note_on_c, 2, 58, 0
4, 7320, Note_on_c, 2, 62, 75
4, 7680, Note_on_c, 2, 62, 0
4, 7804, Program_c, 2, 3
4, 7804, Control_c, 2, 0, 0
4, 7804, Control_c, 2, 11, 110
4, 7804, Control_c, 2, 64, 0
4, 7805, Control_c, 2, 91, 40
4, 7805, Control_c, 2, 93, 10
4, 7805, Control_c, 2, 7, 80
4, 7805, Control_c, 2, 10, 100
4, 7810, Note_on_c, 2, 62, 69
4, 7915, Note_on_c, 2, 62, 0
4, 7930, Note_on_c, 2, 62, 64
4, 8095, Note_on_c, 2, 62, 0
4, 8110, Note_on_c, 2, 62, 64
4, 8162, Note_on_c, 2, 62, 0
4, 8170, Note_on_c, 2, 61, 64
4, 8275, Note_on_c, 2, 61, 0
4, 8290, Note_on_c, 2, 62, 64
4, 8515, Note_on_c, 2, 62, 0
4, 8530, Note_on_c, 2, 61, 64
4, 8635, Note_on_c, 2, 61, 0
4, 8650, Note_on_c, 2, 62, 64
4, 8755, Note_on_c, 2, 62, 0
4, 8770, Note_on_c, 2, 66, 64
4, 8875, Note_on_c, 2, 66, 0
4, 8890, Note_on_c, 2, 64, 64
4, 9055, Note_on_c, 2, 64, 0
4, 9070, Note_on_c, 2, 64, 64
4, 9122, Note_on_c, 2, 64, 0
4, 9130, Note_on_c, 2, 66, 64
4, 9235, Note_on_c, 2, 66, 0
4, 9250, Note_on_c, 2, 62, 64
4, 9355, Note_on_c, 2, 62, 0
4, 9370, Note_on_c, 2, 64, 64
4, 9475, Note_on_c, 2, 64, 0
4, 9490, Note_on_c, 2, 62, 64
4, 9715, Note_on_c, 2, 62, 0
4, 9730, Note_on_c, 2, 59, 64
4, 9835, Note_on_c, 2, 59, 0
4, 9850, Note_on_c, 2, 61, 64
4, 9955, Note_on_c, 2, 61, 0
4, 9970, Note_on_c, 2, 57, 64
4, 10075, Note_on_c, 2, 57, 0
4, 10090, Note_on_c, 2, 59, 64
4, 10195, Note_on_c, 2, 59, 0
4, 10210, Note_on_c, 2, 55, 64
4, 10315, Note_on_c, 2, 55, 0
4, 10330, Note_on_c, 2, 57, 64
4, 10435, Note_on_c, 2, 57, 0
4, 10450, Note_on_c, 2, 57, 64
4, 10675, Note_on_c, 2, 57, 0
4, 10690, Note_on_c, 2, 56, 64
4, 10795, Note_on_c, 2, 56, 0
4, 10810, Note_on_c, 2, 57, 64
4, 10915, Note_on_c, 2, 57, 0
4, 10930, Note_on_c, 2, 66, 64
4, 11035, Note_on_c, 2, 66, 0
4, 11050, Note_on_c, 2, 64, 64
4, 11275, Note_on_c, 2, 64, 0
4, 11290, Note_on_c, 2, 62, 64
4, 11515, Note_on_c, 2, 62, 0
4, 11530, Note_on_c, 2, 61, 64
4, 11755, Note_on_c, 2, 61, 0
4, 11770, Note_on_c, 2, 62, 64
4, 11875, Note_on_c, 2, 62, 0
4, 11890, Note_on_c, 2, 62, 64
4, 11995, Note_on_c, 2, 62, 0
4, 12010, Note_on_c, 2, 61, 64
4, 12235, Note_on_c, 2, 61, 0
4, 12250, Note_on_c, 2, 59, 64
4, 12355, Note_on_c, 2, 59, 0
4, 12370, Note_on_c, 2, 61, 64
4, 12475, Note_on_c, 2, 61, 0
4, 12490, Note_on_c, 2, 62, 64
4, 12595, Note_on_c, 2, 62, 0
4, 12610, Note_on_c, 2, 59, 64
4, 12715, Note_on_c, 2, 59, 0
4, 12730, Note_on_c, 2, 61, 64
4, 12835, Note_on_c, 2, 61, 0
4, 12850, Note_on_c, 2, 62, 64
4, 13075, Note_on_c, 2, 62, 0
4, 13090, Note_on_c, 2, 61, 64
4, 13315, Note_on_c, 2, 61, 0
4, 13330, Note_on_c, 2, 59, 64
4, 13555, Note_on_c, 2, 59, 0
4, 13570, Note_on_c, 2, 57, 64
4, 13795, Note_on_c, 2, 57, 0
4, 13810, Note_on_c, 2, 55, 64
4, 14035, Note_on_c, 2, 55, 0
4, 14050, Note_on_c, 2, 54, 64
4, 14275, Note_on_c, 2, 54, 0
4, 14290, Note_on_c, 2, 52, 64
4, 14395, Note_on_c, 2, 52, 0
4, 14410, Note_on_c, 2, 57, 64
4, 14635, Note_on_c, 2, 57, 0
4, 14650, Note_on_c, 2, 59, 64
4, 14755, Note_on_c, 2, 59, 0
4, 14770, Note_on_c, 2, 57, 64
4, 14822, Note_on_c, 2, 57, 0
4, 14830, Note_on_c, 2, 55, 64
4, 14882, Note_on_c, 2, 55, 0
4, 14890, Note_on_c, 2, 54, 64
4, 14995, Note_on_c, 2, 54, 0
4, 15010, Note_on_c, 2, 66, 64
4, 15115, Note_on_c, 2, 66, 0
4, 15130, Note_on_c, 2, 67, 64
4, 15182, Note_on_c, 2, 67, 0
4, 15190, Note_on_c, 2, 71, 64
4, 15242, Note_on_c, 2, 71, 0
4, 15250, Note_on_c, 2, 64, 64
4, 15302, Note_on_c, 2, 64, 0
4, 15310, Note_on_c, 2, 67, 64
4, 15362, Note_on_c, 2, 67, 0
4, 15370, Note_on_c, 2, 66, 64
4, 15422, Note_on_c, 2, 66, 0
4, 15430, Note_on_c, 2, 69, 64
4, 15482, Note_on_c, 2, 69, 0
4, 15490, Note_on_c, 2, 62, 64
4, 15542, Note_on_c, 2, 62, 0
4, 15550, Note_on_c, 2, 66, 64
4, 15602, Note_on_c, 2, 66, 0
4, 15610, Note_on_c, 2, 64, 64
4, 15662, Note_on_c, 2, 64, 0
4, 15670, Note_on_c, 2, 67, 64
4, 15722, Note_on_c, 2, 67, 0
4, 15730, Note_on_c, 2, 61, 64
4, 15782, Note_on_c, 2, 61, 0
4, 15790, Note_on_c, 2, 64, 64
4, 15842, Note_on_c, 2, 64, 0
4, 15850, Note_on_c, 2, 62, 64
4, 15902, Note_on_c, 2, 62, 0
4, 15910, Note_on_c, 2, 59, 64
4, 15962, Note_on_c, 2, 59, 0
4, 16030, Note_on_c, 2, 66, 64
4, 16082, Note_on_c, 2, 66, 0
4, 16090, Note_on_c, 2, 68, 64
4, 16142, Note_on_c, 2, 68, 0
4, 16150, Note_on_c, 2, 71, 64
4, 16202, Note_on_c, 2, 71, 0
4, 16210, Note_on_c, 2, 65, 64
4, 16262, Note_on_c, 2, 65, 0
4, 16270, Note_on_c, 2, 68, 64
4, 16322, Note_on_c, 2, 68, 0
4, 16330, Note_on_c, 2, 66, 64
4, 16382, Note_on_c, 2, 66, 0
4, 16390, Note_on_c, 2, 69, 64
4, 16442, Note_on_c, 2, 69, 0
4, 16450, Note_on_c, 2, 62, 64
4, 16502, Note_on_c, 2, 62, 0
4, 16510, Note_on_c, 2, 66, 64
4, 16562, Note_on_c, 2, 66, 0
4, 16570, Note_on_c, 2, 59, 64
4, 16622, Note_on_c, 2, 59, 0
4, 16630, Note_on_c, 2, 62, 64
4, 16682, Note_on_c, 2, 62, 0
4, 16690, Note_on_c, 2, 56, 64
4, 16742, Note_on_c, 2, 56, 0
4, 16750, Note_on_c, 2, 59, 64
4, 16802, Note_on_c, 2, 59, 0
4, 16810, Note_on_c, 2, 57, 64
4, 16862, Note_on_c, 2, 57, 0
4, 16870, Note_on_c, 2, 54, 64
4, 16922, Note_on_c, 2, 54, 0
4, 16930, Note_on_c, 2, 59, 64
4, 17035, Note_on_c, 2, 59, 0
4, 17050, Note_on_c, 2, 52, 64
4, 17155, Note_on_c, 2, 52, 0
4, 17170, Note_on_c, 2, 57, 64
4, 17275, Note_on_c, 2, 57, 0
4, 17290, Note_on_c, 2, 50, 64
4, 17395, Note_on_c, 2, 50, 0
4, 17410, Note_on_c, 2, 55, 64
4, 17515, Note_on_c, 2, 55, 0
4, 17530, Note_on_c, 2, 49, 64
4, 17635, Note_on_c, 2, 49, 0
4, 17650, Note_on_c, 2, 54, 64
4, 17755, Note_on_c, 2, 54, 0
4, 17770, Note_on_c, 2, 47, 64
4, 17875, Note_on_c, 2, 47, 0
4, 17890, Note_on_c, 2, 54, 64
4, 17995, Note_on_c, 2, 54, 0
4, 18010, Note_on_c, 2, 59, 64
4, 18115, Note_on_c, 2, 59, 0
4, 18130, Note_on_c, 2, 61, 64
4, 18235, Note_on_c, 2, 61, 0
4, 18250, Note_on_c, 2, 62, 64
4, 18355, Note_on_c, 2, 62, 0
4, 18370, Note_on_c, 2, 61, 64
4, 18475, Note_on_c, 2, 61, 0
4, 18490, Note_on_c, 2, 62, 64
4, 18595, Note_on_c, 2, 62, 0
4, 18610, Note_on_c, 2, 61, 64
4, 18715, Note_on_c, 2, 61, 0
4, 18730, Note_on_c, 2, 54, 64
4, 18835, Note_on_c, 2, 54, 0
4, 18850, Note_on_c, 2, 54, 64
4, 18955, Note_on_c, 2, 54, 0
4, 18970, Note_on_c, 2, 59, 64
4, 19075, Note_on_c, 2, 59, 0
4, 19090, Note_on_c, 2, 61, 64
4, 19195, Note_on_c, 2, 61, 0
4, 19210, Note_on_c, 2, 62, 64
4, 19315, Note_on_c, 2, 62, 0
4, 19330, Note_on_c, 2, 56, 64
4, 19435, Note_on_c, 2, 56, 0
4, 19450, Note_on_c, 2, 57, 64
4, 19555, Note_on_c, 2, 57, 0
4, 19570, Note_on_c, 2, 59, 64
4, 19675, Note_on_c, 2, 59, 0
4, 19690, Note_on_c, 2, 61, 64
4, 19795, Note_on_c, 2, 61, 0
4, 19810, Note_on_c, 2, 49, 64
4, 19915, Note_on_c, 2, 49, 0
4, 19930, Note_on_c, 2, 54, 64
4, 20035, Note_on_c, 2, 54, 0
4, 20050, Note_on_c, 2, 56, 64
4, 20155, Note_on_c, 2, 56, 0
4, 20170, Note_on_c, 2, 57, 64
4, 20275, Note_on_c, 2, 57, 0
4, 20290, Note_on_c, 2, 56, 64
4, 20395, Note_on_c, 2, 56, 0
4, 20410, Note_on_c, 2, 57, 64
4, 20515, Note_on_c, 2, 57, 0
4, 20530, Note_on_c, 2, 59, 64
4, 20635, Note_on_c, 2, 59, 0
4, 20650, Note_on_c, 2, 61, 64
4, 20755, Note_on_c, 2, 61, 0
4, 20770, Note_on_c, 2, 62, 64
4, 20875, Note_on_c, 2, 62, 0
4, 20890, Note_on_c, 2, 61, 64
4, 20995, Note_on_c, 2, 61, 0
4, 22690, Note_on_c, 2, 54, 64
4, 22915, Note_on_c, 2, 54, 0
4, 22930, Note_on_c, 2, 53, 64
4, 23035, Note_on_c, 2, 53, 0
4, 23050, Note_on_c, 2, 54, 64
4, 23275, Note_on_c, 2, 54, 0
4, 23290, Note_on_c, 2, 52, 64
4, 23515, Note_on_c, 2, 52, 0
4, 23530, Note_on_c, 2, 50, 64
4, 23635, Note_on_c, 2, 50, 0
4, 23650, Note_on_c, 2, 54, 64
4, 23755, Note_on_c, 2, 54, 0
4, 23770, Note_on_c, 2, 47, 64
4, 23875, Note_on_c, 2, 47, 0
4, 23890, Note_on_c, 2, 52, 64
4, 23995, Note_on_c, 2, 52, 0
4, 24010, Note_on_c, 2, 45, 64
4, 24115, Note_on_c, 2, 45, 0
4, 24190, Note_on_c, 2, 47, 64
4, 24242, Note_on_c, 2, 47, 0
4, 24250, Note_on_c, 2, 43, 64
4, 24355, Note_on_c, 2, 43, 0
4, 24370, Note_on_c, 2, 45, 64
4, 24475, Note_on_c, 2, 45, 0
4, 24490, Note_on_c, 2, 38, 64
4, 24595, Note_on_c, 2, 38, 0
4, 24610, Note_on_c, 2, 45, 64
4, 24715, Note_on_c, 2, 45, 0
4, 24730, Note_on_c, 2, 50, 64
4, 24835, Note_on_c, 2, 50, 0
4, 24850, Note_on_c, 2, 49, 64
4, 24955, Note_on_c, 2, 49, 0
4, 24970, Note_on_c, 2, 50, 64
4, 25075, Note_on_c, 2, 50, 0
4, 25090, Note_on_c, 2, 57, 64
4, 25195, Note_on_c, 2, 57, 0
4, 25210, Note_on_c, 2, 57, 64
4, 25315, Note_on_c, 2, 57, 0
4, 25330, Note_on_c, 2, 57, 64
4, 25435, Note_on_c, 2, 57, 0
4, 25450, Note_on_c, 2, 57, 64
4, 25555, Note_on_c, 2, 57, 0
4, 25570, Note_on_c, 2, 50, 64
4, 25675, Note_on_c, 2, 50, 0
4, 25690, Note_on_c, 2, 55, 64
4, 25795, Note_on_c, 2, 55, 0
4, 25810, Note_on_c, 2, 54, 64
4, 25915, Note_on_c, 2, 54, 0
4, 25930, Note_on_c, 2, 55, 64
4, 26035, Note_on_c, 2, 55, 0
4, 26050, Note_on_c, 2, 62, 64
4, 26155, Note_on_c, 2, 62, 0
4, 26170, Note_on_c, 2, 62, 64
4, 26275, Note_on_c, 2, 62, 0
4, 26290, Note_on_c, 2, 62, 64
4, 26395, Note_on_c, 2, 62, 0
4, 26410, Note_on_c, 2, 62, 64
4, 26515, Note_on_c, 2, 62, 0
4, 26530, Note_on_c, 2, 52, 64
4, 26635, Note_on_c, 2, 52, 0
4, 26650, Note_on_c, 2, 57, 64
4, 26755, Note_on_c, 2, 57, 0
4, 26770, Note_on_c, 2, 56, 64
4, 26875, Note_on_c, 2, 56, 0
4, 26890, Note_on_c, 2, 57, 64
4, 26995, Note_on_c, 2, 57, 0
4, 27010, Note_on_c, 2, 64, 64
4, 27115, Note_on_c, 2, 64, 0
4, 27130, Note_on_c, 2, 64, 64
4, 27235, Note_on_c, 2, 64, 0
4, 27250, Note_on_c, 2, 64, 64
4, 27355, Note_on_c, 2, 64, 0
4, 27370, Note_on_c, 2, 64, 64
4, 27475, Note_on_c, 2, 64, 0
4, 27490, Note_on_c, 2, 57, 64
4, 27595, Note_on_c, 2, 57, 0
4, 27610, Note_on_c, 2, 62, 64
4, 27715, Note_on_c, 2, 62, 0
4, 27730, Note_on_c, 2, 61, 64
4, 27835, Note_on_c, 2, 61, 0
4, 27850, Note_on_c, 2, 62, 64
4, 27955, Note_on_c, 2, 62, 0
4, 27970, Note_on_c, 2, 69, 64
4, 28075, Note_on_c, 2, 69, 0
4, 28090, Note_on_c, 2, 69, 64
4, 28195, Note_on_c, 2, 69, 0
4, 28210, Note_on_c, 2, 69, 64
4, 28315, Note_on_c, 2, 69, 0
4, 28330, Note_on_c, 2, 69, 64
4, 28435, Note_on_c, 2, 69, 0
4, 28510, Note_on_c, 2, 66, 64
4, 28562, Note_on_c, 2, 66, 0
4, 28570, Note_on_c, 2, 67, 64
4, 28622, Note_on_c, 2, 67, 0
4, 28630, Note_on_c, 2, 71, 64
4, 28682, Note_on_c, 2, 71, 0
4, 28690, Note_on_c, 2, 64, 64
4, 28742, Note_on_c, 2, 64, 0
4, 28750, Note_on_c, 2, 67, 64
4, 28802, Note_on_c, 2, 67, 0
4, 28810, Note_on_c, 2, 66, 64
4, 28862, Note_on_c, 2, 66, 0
4, 28870, Note_on_c, 2, 69, 64
4, 28922, Note_on_c, 2, 69, 0
4, 28930, Note_on_c, 2, 62, 64
4, 28982, Note_on_c, 2, 62, 0
4, 28990, Note_on_c, 2, 66, 64
4, 29042, Note_on_c, 2, 66, 0
4, 29050, Note_on_c, 2, 64, 64
4, 29102, Note_on_c, 2, 64, 0
4, 29110, Note_on_c, 2, 67, 64
4, 29162, Note_on_c, 2, 67, 0
4, 29170, Note_on_c, 2, 61, 64
4, 29222, Note_on_c, 2, 61, 0
4, 29230, Note_on_c, 2, 64, 64
4, 29282, Note_on_c, 2, 64, 0
4, 29290, Note_on_c, 2, 62, 64
4, 29342, Note_on_c, 2, 62, 0
4, 29350, Note_on_c, 2, 66, 64
4, 29402, Note_on_c, 2, 66, 0
4, 29410, Note_on_c, 2, 59, 64
4, 29462, Note_on_c, 2, 59, 0
4, 29470, Note_on_c, 2, 62, 64
4, 29522, Note_on_c, 2, 62, 0
4, 29530, Note_on_c, 2, 61, 64
4, 29582, Note_on_c, 2, 61, 0
4, 29590, Note_on_c, 2, 64, 64
4, 29642, Note_on_c, 2, 64, 0
4, 29650, Note_on_c, 2, 57, 64
4, 29702, Note_on_c, 2, 57, 0
4, 29710, Note_on_c, 2, 61, 64
4, 29762, Note_on_c, 2, 61, 0
4, 29770, Note_on_c, 2, 62, 64
4, 29822, Note_on_c, 2, 62, 0
4, 29830, Note_on_c, 2, 66, 64
4, 29882, Note_on_c, 2, 66, 0
4, 29890, Note_on_c, 2, 59, 64
4, 29942, Note_on_c, 2, 59, 0
4, 29950, Note_on_c, 2, 62, 64
4, 30002, Note_on_c, 2, 62, 0
4, 30010, Note_on_c, 2, 61, 64
4, 30062, Note_on_c, 2, 61, 0
4, 30070, Note_on_c, 2, 64, 64
4, 30122, Note_on_c, 2, 64, 0
4, 30130, Note_on_c, 2, 57, 64
4, 30182, Note_on_c, 2, 57, 0
4, 30190, Note_on_c, 2, 61, 64
4, 30242, Note_on_c, 2, 61, 0
4, 30250, Note_on_c, 2, 62, 64
4, 30302, Note_on_c, 2, 62, 0
4, 30310, Note_on_c, 2, 66, 64
4, 30362, Note_on_c, 2, 66, 0
4, 30370, Note_on_c, 2, 59, 64
4, 30422, Note_on_c, 2, 59, 0
4, 30430, Note_on_c, 2, 62, 64
4, 30482, Note_on_c, 2, 62, 0
4, 30490, Note_on_c, 2, 61, 64
4, 30542, Note_on_c, 2, 61, 0
4, 30550, Note_on_c, 2, 57, 64
4, 30602, Note_on_c, 2, 57, 0
4, 30610, Note_on_c, 2, 61, 64
4, 30715, Note_on_c, 2, 61, 0
4, 30730, Note_on_c, 2, 59, 64
4, 30835, Note_on_c, 2, 59, 0
4, 30850, Note_on_c, 2, 59, 64
4, 30955, Note_on_c, 2, 59, 0
4, 30970, Note_on_c, 2, 57, 64
4, 31075, Note_on_c, 2, 57, 0
4, 31150, Note_on_c, 2, 61, 64
4, 31202, Note_on_c, 2, 61, 0
4, 31210, Note_on_c, 2, 62, 64
4, 31262, Note_on_c, 2, 62, 0
4, 31270, Note_on_c, 2, 66, 64
4, 31322, Note_on_c, 2, 66, 0
4, 31330, Note_on_c, 2, 59, 64
4, 31382, Note_on_c, 2, 59, 0
4, 31390, Note_on_c, 2, 62, 64
4, 31442, Note_on_c, 2, 62, 0
4, 31450, Note_on_c, 2, 61, 64
4, 31502, Note_on_c, 2, 61, 0
4, 31510, Note_on_c, 2, 64, 64
4, 31562, Note_on_c, 2, 64, 0
4, 31570, Note_on_c, 2, 57, 64
4, 31622, Note_on_c, 2, 57, 0
4, 31630, Note_on_c, 2, 61, 64
4, 31682, Note_on_c, 2, 61, 0
4, 31690, Note_on_c, 2, 59, 64
4, 31742, Note_on_c, 2, 59, 0
4, 31750, Note_on_c, 2, 62, 64
4, 31802, Note_on_c, 2, 62, 0
4, 31810, Note_on_c, 2, 55, 64
4, 31862, Note_on_c, 2, 55, 0
4, 31870, Note_on_c, 2, 59, 64
4, 31922, Note_on_c, 2, 59, 0
4, 31930, Note_on_c, 2, 57, 64
4, 31982, Note_on_c, 2, 57, 0
4, 31990, Note_on_c, 2, 61, 64
4, 32042, Note_on_c, 2, 61, 0
4, 32050, Note_on_c, 2, 54, 64
4, 32102, Note_on_c, 2, 54, 0
4, 32110, Note_on_c, 2, 57, 64
4, 32162, Note_on_c, 2, 57, 0
4, 32170, Note_on_c, 2, 55, 64
4, 32222, Note_on_c, 2, 55, 0
4, 32230, Note_on_c, 2, 59, 64
4, 32282, Note_on_c, 2, 59, 0
4, 32290, Note_on_c, 2, 52, 64
4, 32342, Note_on_c, 2, 52, 0
4, 32350, Note_on_c, 2, 55, 64
4, 32402, Note_on_c, 2, 55, 0
4, 32410, Note_on_c, 2, 54, 64
4, 32462, Note_on_c, 2, 54, 0
4, 32470, Note_on_c, 2, 57, 64
4, 32522, Note_on_c, 2, 57, 0
4, 32530, Note_on_c, 2, 50, 64
4, 32582, Note_on_c, 2, 50, 0
4, 32590, Note_on_c, 2, 54, 64
4, 32642, Note_on_c, 2, 54, 0
4, 32650, Note_on_c, 2, 52, 64
4, 32702, Note_on_c, 2, 52, 0
4, 32710, Note_on_c, 2, 55, 64
4, 32762, Note_on_c, 2, 55, 0
4, 32770, Note_on_c, 2, 52, 64
4, 32822, Note_on_c, 2, 52, 0
4, 32830, Note_on_c, 2, 55, 64
4, 32882, Note_on_c, 2, 55, 0
4, 32890, Note_on_c, 2, 54, 64
4, 32942, Note_on_c, 2, 54, 0
4, 32950, Note_on_c, 2, 55, 64
4, 33002, Note_on_c, 2, 55, 0
4, 33010, Note_on_c, 2, 57, 64
4, 33115, Note_on_c, 2, 57, 0
4, 33130, Note_on_c, 2, 59, 64
4, 33235, Note_on_c, 2, 59, 0
4, 33250, Note_on_c, 2, 55, 64
4, 33355, Note_on_c, 2, 55, 0
4, 33370, Note_on_c, 2, 57, 64
4, 33475, Note_on_c, 2, 57, 0
4, 33490, Note_on_c, 2, 55, 64
4, 33715, Note_on_c, 2, 55, 0
4, 33730, Note_on_c, 2, 54, 64
4, 33835, Note_on_c, 2, 54, 0
4, 33850, Note_on_c, 2, 55, 64
4, 33955, Note_on_c, 2, 55, 0
4, 34030, Note_on_c, 2, 55, 64
4, 34082, Note_on_c, 2, 55, 0
4, 34090, Note_on_c, 2, 60, 64
4, 34195, Note_on_c, 2, 60, 0
4, 34210, Note_on_c, 2, 59, 64
4, 34315, Note_on_c, 2, 59, 0
4, 34330, Note_on_c, 2, 60, 64
4, 34435, Note_on_c, 2, 60, 0
4, 34450, Note_on_c, 2, 59, 64
4, 34555, Note_on_c, 2, 59, 0
4, 34570, Note_on_c, 2, 60, 64
4, 34675, Note_on_c, 2, 60, 0
4, 34690, Note_on_c, 2, 55, 64
4, 34795, Note_on_c, 2, 55, 0
4, 34810, Note_on_c, 2, 60, 64
4, 34915, Note_on_c, 2, 60, 0
4, 34990, Note_on_c, 2, 57, 64
4, 35042, Note_on_c, 2, 57, 0
4, 35050, Note_on_c, 2, 62, 64
4, 35155, Note_on_c, 2, 62, 0
4, 35170, Note_on_c, 2, 61, 64
4, 35275, Note_on_c, 2, 61, 0
4, 35290, Note_on_c, 2, 62, 64
4, 35395, Note_on_c, 2, 62, 0
4, 35410, Note_on_c, 2, 61, 64
4, 35515, Note_on_c, 2, 61, 0
4, 35530, Note_on_c, 2, 62, 64
4, 35635, Note_on_c, 2, 62, 0
4, 35650, Note_on_c, 2, 57, 64
4, 35755, Note_on_c, 2, 57, 0
4, 35770, Note_on_c, 2, 62, 64
4, 35875, Note_on_c, 2, 62, 0
4, 35950, Note_on_c, 2, 62, 64
4, 36002, Note_on_c, 2, 62, 0
4, 36010, Note_on_c, 2, 67, 64
4, 36115, Note_on_c, 2, 67, 0
4, 36130, Note_on_c, 2, 66, 64
4, 36235, Note_on_c, 2, 66, 0
4, 36250, Note_on_c, 2, 67, 64
4, 36355, Note_on_c, 2, 67, 0
4, 36370, Note_on_c, 2, 66, 64
4, 36475, Note_on_c, 2, 66, 0
4, 36490, Note_on_c, 2, 67, 64
4, 36595, Note_on_c, 2, 67, 0
4, 36610, Note_on_c, 2, 62, 64
4, 36715, Note_on_c, 2, 62, 0
4, 36730, Note_on_c, 2, 67, 64
4, 36835, Note_on_c, 2, 67, 0
4, 36910, Note_on_c, 2, 67, 64
4, 36962, Note_on_c, 2, 67, 0
4, 36970, Note_on_c, 2, 72, 64
4, 37075, Note_on_c, 2, 72, 0
4, 37090, Note_on_c, 2, 71, 64
4, 37195, Note_on_c, 2, 71, 0
4, 37210, Note_on_c, 2, 72, 64
4, 37315, Note_on_c, 2, 72, 0
4, 37330, Note_on_c, 2, 71, 64
4, 37435, Note_on_c, 2, 71, 0
4, 37450, Note_on_c, 2, 72, 64
4, 37555, Note_on_c, 2, 72, 0
4, 37570, Note_on_c, 2, 67, 64
4, 37675, Note_on_c, 2, 67, 0
4, 37690, Note_on_c, 2, 67, 64
4, 37795, Note_on_c, 2, 67, 0
4, 37870, Note_on_c, 2, 67, 64
4, 37922, Note_on_c, 2, 67, 0
4, 37930, Note_on_c, 2, 69, 64
4, 38035, Note_on_c, 2, 69, 0
4, 38050, Note_on_c, 2, 67, 64
4, 38155, Note_on_c, 2, 67, 0
4, 38170, Note_on_c, 2, 66, 64
4, 38275, Note_on_c, 2, 66, 0
4, 38350, Note_on_c, 2, 63, 64
4, 38402, Note_on_c, 2, 63, 0
4, 38410, Note_on_c, 2, 64, 64
4, 38515, Note_on_c, 2, 64, 0
4, 38530, Note_on_c, 2, 63, 64
4, 38635, Note_on_c, 2, 63, 0
4, 38650, Note_on_c, 2, 64, 64
4, 38755, Note_on_c, 2, 64, 0
4, 38770, Note_on_c, 2, 63, 64
4, 38875, Note_on_c, 2, 63, 0
4, 38890, Note_on_c, 2, 64, 64
4, 38995, Note_on_c, 2, 64, 0
4, 39010, Note_on_c, 2, 59, 64
4, 39115, Note_on_c, 2, 59, 0
4, 39130, Note_on_c, 2, 60, 64
4, 39235, Note_on_c, 2, 60, 0
4, 39250, Note_on_c, 2, 59, 64
4, 39355, Note_on_c, 2, 59, 0
4, 39370, Note_on_c, 2, 60, 64
4, 39475, Note_on_c, 2, 60, 0
4, 39490, Note_on_c, 2, 59, 64
4, 39542, Note_on_c, 2, 59, 0
4, 39550, Note_on_c, 2, 57, 64
4, 39602, Note_on_c, 2, 57, 0
4, 39610, Note_on_c, 2, 56, 64
4, 39662, Note_on_c, 2, 56, 0
4, 39670, Note_on_c, 2, 59, 64
4, 39722, Note_on_c, 2, 59, 0
4, 39730, Note_on_c, 2, 64, 64
4, 40675, Note_on_c, 2, 64, 0
4, 40690, Note_on_c, 2, 66, 64
4, 40915, Note_on_c, 2, 66, 0
4, 40930, Note_on_c, 2, 64, 64
4, 41155, Note_on_c, 2, 64, 0
4, 41170, Note_on_c, 2, 62, 64
4, 41395, Note_on_c, 2, 62, 0
4, 41410, Note_on_c, 2, 61, 64
4, 41515, Note_on_c, 2, 61, 0
4, 41530, Note_on_c, 2, 62, 64
4, 41635, Note_on_c, 2, 62, 0
4, 41710, Note_on_c, 2, 62, 64
4, 41762, Note_on_c, 2, 62, 0
4, 41770, Note_on_c, 2, 62, 64
4, 41822, Note_on_c, 2, 62, 0
4, 41830, Note_on_c, 2, 62, 64
4, 41882, Note_on_c, 2, 62, 0
4, 41890, Note_on_c, 2, 62, 64
4, 41942, Note_on_c, 2, 62, 0
4, 41950, Note_on_c, 2, 62, 64
4, 42002, Note_on_c, 2, 62, 0
4, 42010, Note_on_c, 2, 62, 64
4, 42062, Note_on_c, 2, 62, 0
4, 42070, Note_on_c, 2, 62, 64
4, 42122, Note_on_c, 2, 62, 0
4, 42130, Note_on_c, 2, 62, 64
4, 42182, Note_on_c, 2, 62, 0
4, 42190, Note_on_c, 2, 62, 64
4, 42242, Note_on_c, 2, 62, 0
4, 42250, Note_on_c, 2, 62, 64
4, 42302, Note_on_c, 2, 62, 0
4, 42310, Note_on_c, 2, 62, 64
4, 42362, Note_on_c, 2, 62, 0
4, 42370, Note_on_c, 2, 61, 64
4, 42422, Note_on_c, 2, 61, 0
4, 42430, Note_on_c, 2, 62, 64
4, 42482, Note_on_c, 2, 62, 0
4, 42490, Note_on_c, 2, 62, 64
4, 42595, Note_on_c, 2, 62, 0
4, 42610, Note_on_c, 2, 57, 64
4, 42715, Note_on_c, 2, 57, 0
4, 42730, Note_on_c, 2, 59, 64
4, 42835, Note_on_c, 2, 59, 0
4, 42850, Note_on_c, 2, 61, 64
4, 42955, Note_on_c, 2, 61, 0
4, 42970, Note_on_c, 2, 57, 64
4, 43075, Note_on_c, 2, 57, 0
4, 43090, Note_on_c, 2, 59, 64
4, 43195, Note_on_c, 2, 59, 0
4, 43210, Note_on_c, 2, 55, 64
4, 43315, Note_on_c, 2, 55, 0
4, 43330, Note_on_c, 2, 57, 64
4, 43435, Note_on_c, 2, 57, 0
4, 43450, Note_on_c, 2, 54, 64
4, 43555, Note_on_c, 2, 54, 0
4, 43570, Note_on_c, 2, 55, 64
4, 43675, Note_on_c, 2, 55, 0
4, 43690, Note_on_c, 2, 52, 64
4, 43795, Note_on_c, 2, 52, 0
4, 43810, Note_on_c, 2, 54, 64
4, 43915, Note_on_c, 2, 54, 0
4, 43930, Note_on_c, 2, 50, 64
4, 44035, Note_on_c, 2, 50, 0
4, 44050, Note_on_c, 2, 52, 64
4, 44155, Note_on_c, 2, 52, 0
4, 44170, Note_on_c, 2, 49, 64
4, 44275, Note_on_c, 2, 49, 0
4, 44290, Note_on_c, 2, 50, 64
4, 44515, Note_on_c, 2, 50, 0
4, 44530, Note_on_c, 2, 49, 64
4, 44635, Note_on_c, 2, 49, 0
4, 44650, Note_on_c, 2, 50, 64
4, 44755, Note_on_c, 2, 50, 0
4, 44770, Note_on_c, 2, 54, 64
4, 44875, Note_on_c, 2, 54, 0
4, 44890, Note_on_c, 2, 52, 64
4, 44995, Note_on_c, 2, 52, 0
4, 45010, Note_on_c, 2, 52, 64
4, 45115, Note_on_c, 2, 52, 0
4, 45130, Note_on_c, 2, 50, 64
4, 45235, Note_on_c, 2, 50, 0
4, 45250, Note_on_c, 2, 54, 64
4, 45355, Note_on_c, 2, 54, 0
4, 45370, Note_on_c, 2, 55, 64
4, 45475, Note_on_c, 2, 55, 0
4, 45490, Note_on_c, 2, 57, 64
4, 45595, Note_on_c, 2, 57, 0
4, 45610, Note_on_c, 2, 59, 64
4, 45715, Note_on_c, 2, 59, 0
4, 45730, Note_on_c, 2, 57, 64
4, 45835, Note_on_c, 2, 57, 0
4, 45850, Note_on_c, 2, 59, 64
4, 45955, Note_on_c, 2, 59, 0
4, 45970, Note_on_c, 2, 57, 64
4, 46075, Note_on_c, 2, 57, 0
4, 46090, Note_on_c, 2, 57, 64
4, 46195, Note_on_c, 2, 57, 0
4, 51844, Program_c, 2, 16
4, 51844, Control_c, 2, 0, 0
4, 51844, Control_c, 2, 11, 110
4, 51844, Control_c, 2, 64, 0
4, 51844, Control_c, 2, 91, 120
4, 51844, Control_c, 2, 93, 0
4, 51844, Control_c, 2, 7, 60
4, 51845, Control_c, 2, 10, 100
4, 51960, Note_on_c, 2, 62, 64
4, 51986, Note_on_c, 2, 62, 0
4, 51990, Note_on_c, 2, 64, 64
4, 52016, Note_on_c, 2, 64, 0
4, 52020, Note_on_c, 2, 66, 64
4, 52046, Note_on_c, 2, 66, 0
4, 52050, Note_on_c, 2, 64, 64
4, 52076, Note_on_c, 2, 64, 0
4, 52080, Note_on_c, 2, 62, 64
4, 52106, Note_on_c, 2, 62, 0
4, 52110, Note_on_c, 2, 64, 64
4, 52136, Note_on_c, 2, 64, 0
4, 52140, Note_on_c, 2, 66, 64
4, 52166, Note_on_c, 2, 66, 0
4, 52170, Note_on_c, 2, 64, 64
4, 52196, Note_on_c, 2, 64, 0
4, 52200, Note_on_c, 2, 62, 64
4, 52226, Note_on_c, 2, 62, 0
4, 52230, Note_on_c, 2, 64, 64
4, 52256, Note_on_c, 2, 64, 0
4, 52260, Note_on_c, 2, 66, 64
4, 52286, Note_on_c, 2, 66, 0
4, 52290, Note_on_c, 2, 64, 64
4, 52316, Note_on_c, 2, 64, 0
4, 52320, Note_on_c, 2, 62, 64
4, 52346, Note_on_c, 2, 62, 0
4, 52350, Note_on_c, 2, 64, 64
4, 52376, Note_on_c, 2, 64, 0
4, 52380, Note_on_c, 2, 66, 64
4, 52406, Note_on_c, 2, 66, 0
4, 52410, Note_on_c, 2, 64, 64
4, 52436, Note_on_c, 2, 64, 0
4, 52440, Note_on_c, 2, 62, 64
4, 52492, Note_on_c, 2, 62, 0
4, 52800, Note_on_c, 2, 71, 64
4, 52826, Note_on_c, 2, 71, 0
4, 52830, Note_on_c, 2, 69, 64
4, 52856, Note_on_c, 2, 69, 0
4, 52860, Note_on_c, 2, 71, 64
4, 52886, Note_on_c, 2, 71, 0
4, 52890, Note_on_c, 2, 66, 64
4, 52916, Note_on_c, 2, 66, 0
4, 52920, Note_on_c, 2, 67, 64
4, 52946, Note_on_c, 2, 67, 0
4, 52950, Note_on_c, 2, 66, 64
4, 52976, Note_on_c, 2, 66, 0
4, 52980, Note_on_c, 2, 67, 64
4, 53006, Note_on_c, 2, 67, 0
4, 53010, Note_on_c, 2, 64, 64
4, 53036, Note_on_c, 2, 64, 0
4, 53040, Note_on_c, 2, 69, 64
4, 53066, Note_on_c, 2, 69, 0
4, 53070, Note_on_c, 2, 67, 64
4, 53096, Note_on_c, 2, 67, 0
4, 53100, Note_on_c, 2, 69, 64
4, 53126, Note_on_c, 2, 69, 0
4, 53130, Note_on_c, 2, 64, 64
4, 53156, Note_on_c, 2, 64, 0
4, 53160, Note_on_c, 2, 66, 64
4, 53186, Note_on_c, 2, 66, 0
4, 53190, Note_on_c, 2, 64, 64
4, 53216, Note_on_c, 2, 64, 0
4, 53220, Note_on_c, 2, 66, 64
4, 53246, Note_on_c, 2, 66, 0
4, 53250, Note_on_c, 2, 62, 64
4, 53276, Note_on_c, 2, 62, 0
4, 53280, Note_on_c, 2, 67, 64
4, 53306, Note_on_c, 2, 67, 0
4, 53310, Note_on_c, 2, 66, 64
4, 53336, Note_on_c, 2, 66, 0
4, 53340, Note_on_c, 2, 67, 64
4, 53366, Note_on_c, 2, 67, 0
4, 53370, Note_on_c, 2, 62, 64
4, 53396, Note_on_c, 2, 62, 0
4, 53400, Note_on_c, 2, 64, 64
4, 53426, Note_on_c, 2, 64, 0
4, 53430, Note_on_c, 2, 62, 64
4, 53456, Note_on_c, 2, 62, 0
4, 53460, Note_on_c, 2, 64, 64
4, 53486, Note_on_c, 2, 64, 0
4, 53490, Note_on_c, 2, 61, 64
4, 53516, Note_on_c, 2, 61, 0
4, 53520, Note_on_c, 2, 66, 64
4, 53546, Note_on_c, 2, 66, 0
4, 53550, Note_on_c, 2, 64, 64
4, 53576, Note_on_c, 2, 64, 0
4, 53580, Note_on_c, 2, 66, 64
4, 53606, Note_on_c, 2, 66, 0
4, 53610, Note_on_c, 2, 61, 64
4, 53636, Note_on_c, 2, 61, 0
4, 53640, Note_on_c, 2, 62, 64
4, 53666, Note_on_c, 2, 62, 0
4, 53670, Note_on_c, 2, 61, 64
4, 53696, Note_on_c, 2, 61, 0
4, 53700, Note_on_c, 2, 62, 64
4, 53726, Note_on_c, 2, 62, 0
4, 53730, Note_on_c, 2, 59, 64
4, 53756, Note_on_c, 2, 59, 0
4, 53760, Note_on_c, 2, 64, 64
4, 53786, Note_on_c, 2, 64, 0
4, 53790, Note_on_c, 2, 62, 64
4, 53816, Note_on_c, 2, 62, 0
4, 53820, Note_on_c, 2, 64, 64
4, 53846, Note_on_c, 2, 64, 0
4, 53850, Note_on_c, 2, 59, 64
4, 53876, Note_on_c, 2, 59, 0
4, 53880, Note_on_c, 2, 61, 64
4, 53906, Note_on_c, 2, 61, 0
4, 53910, Note_on_c, 2, 59, 64
4, 53936, Note_on_c, 2, 59, 0
4, 53940, Note_on_c, 2, 61, 64
4, 53966, Note_on_c, 2, 61, 0
4, 53970, Note_on_c, 2, 57, 64
4, 53996, Note_on_c, 2, 57, 0
4, 54000, Note_on_c, 2, 62, 64
4, 54146, Note_on_c, 2, 62, 0
4, 54150, Note_on_c, 2, 64, 64
4, 54176, Note_on_c, 2, 64, 0
4, 54180, Note_on_c, 2, 62, 64
4, 54206, Note_on_c, 2, 62, 0
4, 54210, Note_on_c, 2, 64, 64
4, 54236, Note_on_c, 2, 64, 0
4, 54240, Note_on_c, 2, 61, 64
4, 54253, Note_on_c, 2, 61, 0
4, 54255, Note_on_c, 2, 59, 64
4, 54268, Note_on_c, 2, 59, 0
4, 54270, Note_on_c, 2, 61, 64
4, 54321, Note_on_c, 2, 61, 0
4, 54330, Note_on_c, 2, 62, 64
4, 54356, Note_on_c, 2, 62, 0
4, 54360, Note_on_c, 2, 62, 64
4, 54386, Note_on_c, 2, 62, 0
4, 54390, Note_on_c, 2, 66, 64
4, 54416, Note_on_c, 2, 66, 0
4, 54420, Note_on_c, 2, 62, 64
4, 54446, Note_on_c, 2, 62, 0
4, 54450, Note_on_c, 2, 57, 64
4, 54476, Note_on_c, 2, 57, 0
4, 54480, Note_on_c, 2, 54, 64
4, 54506, Note_on_c, 2, 54, 0
4, 54510, Note_on_c, 2, 57, 64
4, 54536, Note_on_c, 2, 57, 0
4, 54540, Note_on_c, 2, 54, 64
4, 54566, Note_on_c, 2, 54, 0
4, 54570, Note_on_c, 2, 50, 64
4, 54596, Note_on_c, 2, 50, 0
4, 54600, Note_on_c, 2, 57, 64
4, 54652, Note_on_c, 2, 57, 0
4, 55134, Program_c, 2, 20
4, 55134, Control_c, 2, 0, 0
4, 55134, Control_c, 2, 11, 110
4, 55134, Control_c, 2, 64, 0
4, 55134, Control_c, 2, 91, 100
4, 55134, Control_c, 2, 93, 40
4, 55134, Control_c, 2, 7, 60
4, 55135, Control_c, 2, 10, 100
4, 55140, Note_on_c, 2, 57, 64
4, 55166, Note_on_c, 2, 57, 0
4, 55170, Note_on_c, 2, 56, 64
4, 55196, Note_on_c, 2, 56, 0
4, 55200, Note_on_c, 2, 57, 64
4, 55226, Note_on_c, 2, 57, 0
4, 55230, Note_on_c, 2, 56, 64
4, 55256, Note_on_c, 2, 56, 0
4, 55260, Note_on_c, 2, 57, 64
4, 55286, Note_on_c, 2, 57, 0
4, 55290, Note_on_c, 2, 56, 64
4, 55316, Note_on_c, 2, 56, 0
4, 55320, Note_on_c, 2, 57, 64
4, 55372, Note_on_c, 2, 57, 0
4, 55380, Note_on_c, 2, 45, 64
4, 55432, Note_on_c, 2, 45, 0
4, 55500, Note_on_c, 2, 69, 86
4, 55552, Note_on_c, 2, 69, 0
4, 55560, Note_on_c, 2, 69, 86
4, 55665, Note_on_c, 2, 69, 0
4, 55740, Note_on_c, 2, 68, 85
4, 55792, Note_on_c, 2, 68, 0
4, 55800, Note_on_c, 2, 68, 85
4, 55905, Note_on_c, 2, 68, 0
4, 55980, Note_on_c, 2, 66, 84
4, 56032, Note_on_c, 2, 66, 0
4, 56040, Note_on_c, 2, 66, 83
4, 56145, Note_on_c, 2, 66, 0
4, 56220, Note_on_c, 2, 64, 85
4, 56272, Note_on_c, 2, 64, 0
4, 56280, Note_on_c, 2, 64, 83
4, 56385, Note_on_c, 2, 64, 0
4, 56460, Note_on_c, 2, 62, 81
4, 56512, Note_on_c, 2, 62, 0
4, 56520, Note_on_c, 2, 62, 82
4, 56625, Note_on_c, 2, 62, 0
4, 56670, Note_on_c, 2, 61, 86
4, 56696, Note_on_c, 2, 61, 0
4, 56700, Note_on_c, 2, 66, 86
4, 56726, Note_on_c, 2, 66, 0
4, 56730, Note_on_c, 2, 61, 86
4, 56756, Note_on_c, 2, 61, 0
4, 56760, Note_on_c, 2, 62, 86
4, 56812, Note_on_c, 2, 62, 0
4, 56820, Note_on_c, 2, 59, 83
4, 56872, Note_on_c, 2, 59, 0
4, 56910, Note_on_c, 2, 59, 82
4, 56936, Note_on_c, 2, 59, 0
4, 56940, Note_on_c, 2, 64, 84
4, 56966, Note_on_c, 2, 64, 0
4, 56970, Note_on_c, 2, 59, 84
4, 56996, Note_on_c, 2, 59, 0
4, 57000, Note_on_c, 2, 61, 83
4, 57052, Note_on_c, 2, 61, 0
4, 57120, Note_on_c, 2, 61, 90
4, 57146, Note_on_c, 2, 61, 0
4, 57150, Note_on_c, 2, 64, 90
4, 57176, Note_on_c, 2, 64, 0
4, 57180, Note_on_c, 2, 61, 88
4, 57206, Note_on_c, 2, 61, 0
4, 57210, Note_on_c, 2, 57, 89
4, 57236, Note_on_c, 2, 57, 0
4, 57240, Note_on_c, 2, 54, 90
4, 57292, Note_on_c, 2, 54, 0
4, 57360, Note_on_c, 2, 66, 88
4, 57386, Note_on_c, 2, 66, 0
4, 57390, Note_on_c, 2, 69, 88
4, 57416, Note_on_c, 2, 69, 0
4, 57420, Note_on_c, 2, 66, 88
4, 57446, Note_on_c, 2, 66, 0
4, 57450, Note_on_c, 2, 62, 88
4, 57476, Note_on_c, 2, 62, 0
4, 57480, Note_on_c, 2, 59, 88
4, 57532, Note_on_c, 2, 59, 0
4, 57600, Note_on_c, 2, 64, 88
4, 57626, Note_on_c, 2, 64, 0
4, 57630, Note_on_c, 2, 67, 90
4, 57656, Note_on_c, 2, 67, 0
4, 57660, Note_on_c, 2, 64, 90
4, 57686, Note_on_c, 2, 64, 0
4, 57690, Note_on_c, 2, 59, 89
4, 57716, Note_on_c, 2, 59, 0
4, 57720, Note_on_c, 2, 61, 91
4, 57772, Note_on_c, 2, 61, 0
4, 57780, Note_on_c, 2, 57, 91
4, 57832, Note_on_c, 2, 57, 0
4, 57870, Note_on_c, 2, 57, 90
4, 57896, Note_on_c, 2, 57, 0
4, 57900, Note_on_c, 2, 62, 90
4, 57926, Note_on_c, 2, 62, 0
4, 57930, Note_on_c, 2, 57, 90
4, 57956, Note_on_c, 2, 57, 0
4, 57960, Note_on_c, 2, 59, 90
4, 57986, Note_on_c, 2, 59, 0
4, 57990, Note_on_c, 2, 61, 90
4, 58016, Note_on_c, 2, 61, 0
4, 58020, Note_on_c, 2, 62, 90
4, 58125, Note_on_c, 2, 62, 0
4, 58140, Note_on_c, 2, 61, 89
4, 58192, Note_on_c, 2, 61, 0
4, 58200, Note_on_c, 2, 62, 90
4, 58252, Note_on_c, 2, 62, 0
4, 58260, Note_on_c, 2, 50, 69
4, 58312, Note_on_c, 2, 50, 0
4, 58377, Program_c, 2, 20
4, 58377, Control_c, 2, 0, 0
4, 58377, Control_c, 2, 11, 110
4, 58377, Control_c, 2, 64, 0
4, 58377, Control_c, 2, 91, 60
4, 58377, Control_c, 2, 93, 10
4, 58377, Control_c, 2, 7, 80
4, 58378, Control_c, 2, 10, 100
4, 58380, Note_on_c, 2, 52, 67
4, 58432, Note_on_c, 2, 52, 0
4, 58440, Note_on_c, 2, 54, 67
4, 58492, Note_on_c, 2, 54, 0
4, 58500, Note_on_c, 2, 55, 66
4, 58552, Note_on_c, 2, 55, 0
4, 58560, Note_on_c, 2, 57, 66
4, 58612, Note_on_c, 2, 57, 0
4, 58620, Note_on_c, 2, 45, 64
4, 58672, Note_on_c, 2, 45, 0
4, 58680, Note_on_c, 2, 50, 65
4, 58732, Note_on_c, 2, 50, 0
4, 59100, Note_on_c, 2, 62, 64
4, 59152, Note_on_c, 2, 62, 0
4, 59160, Note_on_c, 2, 62, 64
4, 59265, Note_on_c, 2, 62, 0
4, 59340, Note_on_c, 2, 61, 64
4, 59392, Note_on_c, 2, 61, 0
4, 59400, Note_on_c, 2, 61, 64
4, 59505, Note_on_c, 2, 61, 0
4, 59580, Note_on_c, 2, 59, 64
4, 59632, Note_on_c, 2, 59, 0
4, 59640, Note_on_c, 2, 59, 64
4, 59745, Note_on_c, 2, 59, 0
4, 59820, Note_on_c, 2, 57, 64
4, 59872, Note_on_c, 2, 57, 0
4, 59880, Note_on_c, 2, 57, 64
4, 59985, Note_on_c, 2, 57, 0
4, 60060, Note_on_c, 2, 55, 64
4, 60112, Note_on_c, 2, 55, 0
4, 60120, Note_on_c, 2, 55, 64
4, 60225, Note_on_c, 2, 55, 0
4, 60240, Note_on_c, 2, 54, 64
4, 60345, Note_on_c, 2, 54, 0
4, 60360, Note_on_c, 2, 55, 64
4, 60412, Note_on_c, 2, 55, 0
4, 60420, Note_on_c, 2, 54, 64
4, 60472, Note_on_c, 2, 54, 0
4, 60480, Note_on_c, 2, 52, 64
4, 60532, Note_on_c, 2, 52, 0
4, 60540, Note_on_c, 2, 45, 64
4, 60592, Note_on_c, 2, 45, 0
4, 60600, Note_on_c, 2, 50, 64
4, 60705, Note_on_c, 2, 50, 0
4, 61020, Note_on_c, 2, 61, 64
4, 61072, Note_on_c, 2, 61, 0
4, 61080, Note_on_c, 2, 59, 65
4, 61106, Note_on_c, 2, 59, 0
4, 61110, Note_on_c, 2, 66, 68
4, 61136, Note_on_c, 2, 66, 0
4, 61140, Note_on_c, 2, 62, 73
4, 61166, Note_on_c, 2, 62, 0
4, 61170, Note_on_c, 2, 59, 72
4, 61196, Note_on_c, 2, 59, 0
4, 61200, Note_on_c, 2, 64, 74
4, 61226, Note_on_c, 2, 64, 0
4, 61230, Note_on_c, 2, 59, 73
4, 61256, Note_on_c, 2, 59, 0
4, 61260, Note_on_c, 2, 56, 72
4, 61286, Note_on_c, 2, 56, 0
4, 61290, Note_on_c, 2, 52, 72
4, 61316, Note_on_c, 2, 52, 0
4, 61320, Note_on_c, 2, 57, 64
4, 61425, Note_on_c, 2, 57, 0
4, 61857, Program_c, 2, 19
4, 61857, Control_c, 2, 0, 0
4, 61857, Control_c, 2, 11, 120
4, 61857, Control_c, 2, 64, 0
4, 61857, Control_c, 2, 91, 50
4, 61857, Control_c, 2, 93, 20
4, 61857, Control_c, 2, 7, 80
4, 61858, Control_c, 2, 10, 100
4, 61860, Note_on_c, 2, 61, 78
4, 61886, Note_on_c, 2, 61, 0
4, 61890, Note_on_c, 2, 59, 78
4, 61916, Note_on_c, 2, 59, 0
4, 61920, Note_on_c, 2, 61, 77
4, 61946, Note_on_c, 2, 61, 0
4, 61950, Note_on_c, 2, 59, 77
4, 61976, Note_on_c, 2, 59, 0
4, 61980, Note_on_c, 2, 61, 77
4, 62006, Note_on_c, 2, 61, 0
4, 62010, Note_on_c, 2, 59, 78
4, 62036, Note_on_c, 2, 59, 0
4, 62040, Note_on_c, 2, 61, 77
4, 62145, Note_on_c, 2, 61, 0
4, 62220, Note_on_c, 2, 69, 75
4, 62272, Note_on_c, 2, 69, 0
4, 62280, Note_on_c, 2, 66, 77
4, 62385, Note_on_c, 2, 66, 0
4, 62460, Note_on_c, 2, 68, 78
4, 62512, Note_on_c, 2, 68, 0
4, 62520, Note_on_c, 2, 64, 77
4, 62625, Note_on_c, 2, 64, 0
4, 62700, Note_on_c, 2, 66, 75
4, 62752, Note_on_c, 2, 66, 0
4, 62760, Note_on_c, 2, 62, 74
4, 62865, Note_on_c, 2, 62, 0
4, 62940, Note_on_c, 2, 64, 74
4, 62992, Note_on_c, 2, 64, 0
4, 63000, Note_on_c, 2, 61, 76
4, 63105, Note_on_c, 2, 61, 0
4, 63180, Note_on_c, 2, 62, 77
4, 63232, Note_on_c, 2, 62, 0
4, 63240, Note_on_c, 2, 59, 78
4, 63345, Note_on_c, 2, 59, 0
4, 63360, Note_on_c, 2, 57, 79
4, 63465, Note_on_c, 2, 57, 0
4, 63480, Note_on_c, 2, 54, 78
4, 63585, Note_on_c, 2, 54, 0
4, 63600, Note_on_c, 2, 52, 79
4, 63705, Note_on_c, 2, 52, 0
4, 63720, Note_on_c, 2, 52, 78
4, 63825, Note_on_c, 2, 52, 0
4, 63900, Note_on_c, 2, 61, 64
4, 63952, Note_on_c, 2, 61, 0
4, 63960, Note_on_c, 2, 59, 64
4, 64065, Note_on_c, 2, 59, 0
4, 64080, Note_on_c, 2, 59, 64
4, 64132, Note_on_c, 2, 59, 0
4, 64140, Note_on_c, 2, 62, 64
4, 64192, Note_on_c, 2, 62, 0
4, 64200, Note_on_c, 2, 61, 64
4, 64226, Note_on_c, 2, 61, 0
4, 64230, Note_on_c, 2, 62, 81
4, 64256, Note_on_c, 2, 62, 0
4, 64260, Note_on_c, 2, 64, 80
4, 64286, Note_on_c, 2, 64, 0
4, 64290, Note_on_c, 2, 62, 81
4, 64316, Note_on_c, 2, 62, 0
4, 64320, Note_on_c, 2, 61, 81
4, 64346, Note_on_c, 2, 61, 0
4, 64350, Note_on_c, 2, 62, 81
4, 64376, Note_on_c, 2, 62, 0
4, 64380, Note_on_c, 2, 64, 81
4, 64406, Note_on_c, 2, 64, 0
4, 64410, Note_on_c, 2, 62, 81
4, 64436, Note_on_c, 2, 62, 0
4, 64440, Note_on_c, 2, 61, 81
4, 64466, Note_on_c, 2, 61, 0
4, 64470, Note_on_c, 2, 62, 80
4, 64496, Note_on_c, 2, 62, 0
4, 64500, Note_on_c, 2, 64, 80
4, 64526, Note_on_c, 2, 64, 0
4, 64530, Note_on_c, 2, 62, 80
4, 64556, Note_on_c, 2, 62, 0
4, 64560, Note_on_c, 2, 61, 80
4, 64586, Note_on_c, 2, 61, 0
4, 64590, Note_on_c, 2, 62, 80
4, 64616, Note_on_c, 2, 62, 0
4, 64620, Note_on_c, 2, 64, 80
4, 64646, Note_on_c, 2, 64, 0
4, 64650, Note_on_c, 2, 62, 80
4, 64676, Note_on_c, 2, 62, 0
4, 64680, Note_on_c, 2, 61, 79
4, 64785, Note_on_c, 2, 61, 0
4, 64800, Note_on_c, 2, 61, 92
4, 64826, Note_on_c, 2, 61, 0
4, 64830, Note_on_c, 2, 64, 91
4, 64856, Note_on_c, 2, 64, 0
4, 64860, Note_on_c, 2, 61, 91
4, 64886, Note_on_c, 2, 61, 0
4, 64890, Note_on_c, 2, 57, 90
4, 64916, Note_on_c, 2, 57, 0
4, 64920, Note_on_c, 2, 54, 83
4, 64972, Note_on_c, 2, 54, 0
4, 64980, Note_on_c, 2, 66, 79
4, 65032, Note_on_c, 2, 66, 0
4, 65040, Note_on_c, 2, 67, 79
4, 65092, Note_on_c, 2, 67, 0
4, 65100, Note_on_c, 2, 64, 77
4, 65152, Note_on_c, 2, 64, 0
4, 65160, Note_on_c, 2, 69, 78
4, 65212, Note_on_c, 2, 69, 0
4, 65220, Note_on_c, 2, 66, 76
4, 65272, Note_on_c, 2, 66, 0
4, 65280, Note_on_c, 2, 71, 75
4, 65332, Note_on_c, 2, 71, 0
4, 65340, Note_on_c, 2, 59, 75
4, 65392, Note_on_c, 2, 59, 0
4, 65400, Note_on_c, 2, 61, 75
4, 65452, Note_on_c, 2, 61, 0
4, 65460, Note_on_c, 2, 57, 75
4, 65512, Note_on_c, 2, 57, 0
4, 65520, Note_on_c, 2, 62, 75
4, 65572, Note_on_c, 2, 62, 0
4, 65580, Note_on_c, 2, 61, 75
4, 65632, Note_on_c, 2, 61, 0
4, 65640, Note_on_c, 2, 59, 75
4, 65692, Note_on_c, 2, 59, 0
4, 65700, Note_on_c, 2, 55, 76
4, 65752, Note_on_c, 2, 55, 0
4, 65760, Note_on_c, 2, 57, 76
4, 65812, Note_on_c, 2, 57, 0
4, 65820, Note_on_c, 2, 45, 75
4, 65872, Note_on_c, 2, 45, 0
4, 65880, Note_on_c, 2, 50, 76
4, 65932, Note_on_c, 2, 50, 0
4, 66420, Note_on_c, 2, 54, 77
4, 66446, Note_on_c, 2, 54, 0
4, 66450, Note_on_c, 2, 52, 77
4, 66476, Note_on_c, 2, 52, 0
4, 66480, Note_on_c, 2, 54, 78
4, 66506, Note_on_c, 2, 54, 0
4, 66510, Note_on_c, 2, 52, 78
4, 66536, Note_on_c, 2, 52, 0
4, 66540, Note_on_c, 2, 54, 77
4, 66566, Note_on_c, 2, 54, 0
4, 66570, Note_on_c, 2, 52, 77
4, 66596, Note_on_c, 2, 52, 0
4, 66600, Note_on_c, 2, 54, 64
4, 66705, Note_on_c, 2, 54, 0
4, 69235, Program_c, 2, 74
4, 69235, Control_c, 2, 0, 0
4, 69235, Control_c, 2, 11, 110
4, 69235, Control_c, 2, 64, 0
4, 69235, Control_c, 2, 91, 50
4, 69235, Control_c, 2, 93, 20
4, 69235, Control_c, 2, 7, 50
4, 69236, Control_c, 2, 10, 100
4, 69240, Note_on_c, 2, 57, 64
4, 69266, Note_on_c, 2, 57, 0
4, 69270, Note_on_c, 2, 59, 64
4, 69296, Note_on_c, 2, 59, 0
4, 69300, Note_on_c, 2, 61, 64
4, 69326, Note_on_c, 2, 61, 0
4, 69330, Note_on_c, 2, 59, 64
4, 69356, Note_on_c, 2, 59, 0
4, 69360, Note_on_c, 2, 57, 64
4, 69386, Note_on_c, 2, 57, 0
4, 69390, Note_on_c, 2, 59, 64
4, 69416, Note_on_c, 2, 59, 0
4, 69420, Note_on_c, 2, 61, 64
4, 69446, Note_on_c, 2, 61, 0
4, 69450, Note_on_c, 2, 59, 64
4, 69476, Note_on_c, 2, 59, 0
4, 69480, Note_on_c, 2, 57, 64
4, 69506, Note_on_c, 2, 57, 0
4, 69510, Note_on_c, 2, 59, 64
4, 69536, Note_on_c, 2, 59, 0
4, 69540, Note_on_c, 2, 61, 64
4, 69566, Note_on_c, 2, 61, 0
4, 69570, Note_on_c, 2, 59, 64
4, 69596, Note_on_c, 2, 59, 0
4, 69600, Note_on_c, 2, 57, 64
4, 69626, Note_on_c, 2, 57, 0
4, 69630, Note_on_c, 2, 59, 64
4, 69656, Note_on_c, 2, 59, 0
4, 69660, Note_on_c, 2, 61, 64
4, 69686, Note_on_c, 2, 61, 0
4, 69690, Note_on_c, 2, 59, 64
4, 69716, Note_on_c, 2, 59, 0
4, 69720, Note_on_c, 2, 57, 64
4, 69772, Note_on_c, 2, 57, 0
4, 70080, Note_on_c, 2, 66, 64
4, 70106, Note_on_c, 2, 66, 0
4, 70110, Note_on_c, 2, 64, 64
4, 70136, Note_on_c, 2, 64, 0
4, 70140, Note_on_c, 2, 66, 64
4, 70166, Note_on_c, 2, 66, 0
4, 70170, Note_on_c, 2, 61, 64
4, 70196, Note_on_c, 2, 61, 0
4, 70200, Note_on_c, 2, 62, 64
4, 70226, Note_on_c, 2, 62, 0
4, 70230, Note_on_c, 2, 61, 64
4, 70256, Note_on_c, 2, 61, 0
4, 70260, Note_on_c, 2, 62, 64
4, 70286, Note_on_c, 2, 62, 0
4, 70290, Note_on_c, 2, 59, 64
4, 70316, Note_on_c, 2, 59, 0
4, 70320, Note_on_c, 2, 64, 64
4, 70346, Note_on_c, 2, 64, 0
4, 70350, Note_on_c, 2, 62, 64
4, 70376, Note_on_c, 2, 62, 0
4, 70380, Note_on_c, 2, 64, 64
4, 70406, Note_on_c, 2, 64, 0
4, 70410, Note_on_c, 2, 59, 64
4, 70436, Note_on_c, 2, 59, 0
4, 70440, Note_on_c, 2, 61, 64
4, 70466, Note_on_c, 2, 61, 0
4, 70470, Note_on_c, 2, 59, 64
4, 70496, Note_on_c, 2, 59, 0
4, 70500, Note_on_c, 2, 61, 64
4, 70526, Note_on_c, 2, 61, 0
4, 70530, Note_on_c, 2, 57, 64
4, 70556, Note_on_c, 2, 57, 0
4, 70560, Note_on_c, 2, 62, 64
4, 70586, Note_on_c, 2, 62, 0
4, 70590, Note_on_c, 2, 61, 64
4, 70616, Note_on_c, 2, 61, 0
4, 70620, Note_on_c, 2, 62, 64
4, 70646, Note_on_c, 2, 62, 0
4, 70650, Note_on_c, 2, 57, 64
4, 70676, Note_on_c, 2, 57, 0
4, 70680, Note_on_c, 2, 59, 64
4, 70706, Note_on_c, 2, 59, 0
4, 70710, Note_on_c, 2, 57, 64
4, 70736, Note_on_c, 2, 57, 0
4, 70740, Note_on_c, 2, 59, 64
4, 70766, Note_on_c, 2, 59, 0
4, 70770, Note_on_c, 2, 56, 64
4, 70796, Note_on_c, 2, 56, 0
4, 70800, Note_on_c, 2, 61, 64
4, 70826, Note_on_c, 2, 61, 0
4, 70830, Note_on_c, 2, 59, 64
4, 70856, Note_on_c, 2, 59, 0
4, 70860, Note_on_c, 2, 61, 64
4, 70886, Note_on_c, 2, 61, 0
4, 70890, Note_on_c, 2, 56, 64
4, 70916, Note_on_c, 2, 56, 0
4, 70920, Note_on_c, 2, 57, 64
4, 70946, Note_on_c, 2, 57, 0
4, 70950, Note_on_c, 2, 56, 64
4, 70976, Note_on_c, 2, 56, 0
4, 70980, Note_on_c, 2, 57, 64
4, 71006, Note_on_c, 2, 57, 0
4, 71010, Note_on_c, 2, 54, 64
4, 71036, Note_on_c, 2, 54, 0
4, 71040, Note_on_c, 2, 59, 64
4, 71066, Note_on_c, 2, 59, 0
4, 71070, Note_on_c, 2, 57, 64
4, 71096, Note_on_c, 2, 57, 0
4, 71100, Note_on_c, 2, 59, 64
4, 71126, Note_on_c, 2, 59, 0
4, 71130, Note_on_c, 2, 54, 64
4, 71156, Note_on_c, 2, 54, 0
4, 71160, Note_on_c, 2, 56, 64
4, 71186, Note_on_c, 2, 56, 0
4, 71190, Note_on_c, 2, 54, 64
4, 71216, Note_on_c, 2, 54, 0
4, 71220, Note_on_c, 2, 56, 64
4, 71246, Note_on_c, 2, 56, 0
4, 71250, Note_on_c, 2, 52, 64
4, 71276, Note_on_c, 2, 52, 0
4, 71280, Note_on_c, 2, 57, 64
4, 71426, Note_on_c, 2, 57, 0
4, 71430, Note_on_c, 2, 59, 64
4, 71456, Note_on_c, 2, 59, 0
4, 71460, Note_on_c, 2, 57, 64
4, 71486, Note_on_c, 2, 57, 0
4, 71490, Note_on_c, 2, 59, 64
4, 71516, Note_on_c, 2, 59, 0
4, 71520, Note_on_c, 2, 56, 64
4, 71533, Note_on_c, 2, 56, 0
4, 71535, Note_on_c, 2, 54, 64
4, 71548, Note_on_c, 2, 54, 0
4, 71550, Note_on_c, 2, 56, 64
4, 71601, Note_on_c, 2, 56, 0
4, 71610, Note_on_c, 2, 57, 64
4, 71636, Note_on_c, 2, 57, 0
4, 71640, Note_on_c, 2, 57, 64
4, 71745, Note_on_c, 2, 57, 0
4, 71995, Program_c, 2, 19
4, 71995, Control_c, 2, 0, 0
4, 71995, Control_c, 2, 11, 120
4, 71995, Control_c, 2, 64, 0
4, 71995, Control_c, 2, 91, 50
4, 71995, Control_c, 2, 93, 0
4, 71995, Control_c, 2, 7, 90
4, 71996, Control_c, 2, 10, 100
4, 72000, Note_on_c, 2, 49, 76
4, 72026, Note_on_c, 2, 49, 0
4, 72030, Note_on_c, 2, 52, 76
4, 72056, Note_on_c, 2, 52, 0
4, 72060, Note_on_c, 2, 49, 74
4, 72086, Note_on_c, 2, 49, 0
4, 72090, Note_on_c, 2, 45, 72
4, 72116, Note_on_c, 2, 45, 0
4, 72120, Note_on_c, 2, 42, 70
4, 72225, Note_on_c, 2, 42, 0
4, 72240, Note_on_c, 2, 43, 69
4, 72465, Note_on_c, 2, 43, 0
4, 72480, Note_on_c, 2, 45, 69
4, 72705, Note_on_c, 2, 45, 0
4, 72720, Note_on_c, 2, 47, 71
4, 72825, Note_on_c, 2, 47, 0
4, 72840, Note_on_c, 2, 49, 70
4, 72892, Note_on_c, 2, 49, 0
4, 72900, Note_on_c, 2, 50, 69
4, 73005, Note_on_c, 2, 50, 0
4, 73020, Note_on_c, 2, 49, 72
4, 73072, Note_on_c, 2, 49, 0
4, 73080, Note_on_c, 2, 50, 70
4, 73132, Note_on_c, 2, 50, 0
4, 73140, Note_on_c, 2, 54, 68
4, 73192, Note_on_c, 2, 54, 0
4, 73200, Note_on_c, 2, 55, 67
4, 73305, Note_on_c, 2, 55, 0
4, 73320, Note_on_c, 2, 57, 69
4, 73545, Note_on_c, 2, 57, 0
4, 73560, Note_on_c, 2, 57, 72
4, 73665, Note_on_c, 2, 57, 0
4, 74040, Note_on_c, 2, 62, 85
4, 74066, Note_on_c, 2, 62, 0
4, 74070, Note_on_c, 2, 64, 85
4, 74096, Note_on_c, 2, 64, 0
4, 74100, Note_on_c, 2, 66, 86
4, 74126, Note_on_c, 2, 66, 0
4, 74130, Note_on_c, 2, 64, 87
4, 74156, Note_on_c, 2, 64, 0
4, 74160, Note_on_c, 2, 62, 87
4, 74186, Note_on_c, 2, 62, 0
4, 74190, Note_on_c, 2, 64, 86
4, 74216, Note_on_c, 2, 64, 0
4, 74220, Note_on_c, 2, 66, 86
4, 74246, Note_on_c, 2, 66, 0
4, 74250, Note_on_c, 2, 64, 87
4, 74276, Note_on_c, 2, 64, 0
4, 74280, Note_on_c, 2, 62, 88
4, 74306, Note_on_c, 2, 62, 0
4, 74310, Note_on_c, 2, 64, 87
4, 74336, Note_on_c, 2, 64, 0
4, 74340, Note_on_c, 2, 66, 86
4, 74366, Note_on_c, 2, 66, 0
4, 74370, Note_on_c, 2, 64, 86
4, 74396, Note_on_c, 2, 64, 0
4, 74400, Note_on_c, 2, 62, 85
4, 74452, Note_on_c, 2, 62, 0
4, 74460, Note_on_c, 2, 62, 79
4, 74512, Note_on_c, 2, 62, 0
4, 74520, Note_on_c, 2, 62, 72
4, 74625, Note_on_c, 2, 62, 0
4, 74700, Note_on_c, 2, 61, 79
4, 74752, Note_on_c, 2, 61, 0
4, 74760, Note_on_c, 2, 61, 73
4, 74865, Note_on_c, 2, 61, 0
4, 74940, Note_on_c, 2, 59, 77
4, 74992, Note_on_c, 2, 59, 0
4, 75000, Note_on_c, 2, 59, 70
4, 75105, Note_on_c, 2, 59, 0
4, 75180, Note_on_c, 2, 57, 76
4, 75232, Note_on_c, 2, 57, 0
4, 75240, Note_on_c, 2, 57, 70
4, 75345, Note_on_c, 2, 57, 0
4, 75420, Note_on_c, 2, 55, 80
4, 75472, Note_on_c, 2, 55, 0
4, 75480, Note_on_c, 2, 55, 71
4, 75585, Note_on_c, 2, 55, 0
4, 75600, Note_on_c, 2, 54, 77
4, 75652, Note_on_c, 2, 54, 0
4, 75660, Note_on_c, 2, 57, 75
4, 75712, Note_on_c, 2, 57, 0
4, 75720, Note_on_c, 2, 59, 67
4, 75825, Note_on_c, 2, 59, 0
4, 75840, Note_on_c, 2, 57, 71
4, 75945, Note_on_c, 2, 57, 0
4, 75960, Note_on_c, 2, 57, 69
4, 76065, Note_on_c, 2, 57, 0
4, 76140, Note_on_c, 2, 57, 64
4, 76192, Note_on_c, 2, 57, 0
4, 76200, Note_on_c, 2, 59, 57
4, 76305, Note_on_c, 2, 59, 0
4, 76380, Note_on_c, 2, 61, 64
4, 76432, Note_on_c, 2, 61, 0
4, 76440, Note_on_c, 2, 62, 55
4, 76545, Note_on_c, 2, 62, 0
4, 76620, Note_on_c, 2, 59, 64
4, 76672, Note_on_c, 2, 59, 0
4, 76680, Note_on_c, 2, 55, 54
4, 76785, Note_on_c, 2, 55, 0
4, 76860, Note_on_c, 2, 54, 64
4, 76912, Note_on_c, 2, 54, 0
4, 76920, Note_on_c, 2, 54, 64
4, 77025, Note_on_c, 2, 54, 0
4, 77400, Note_on_c, 2, 59, 82
4, 77426, Note_on_c, 2, 59, 0
4, 77430, Note_on_c, 2, 61, 81
4, 77456, Note_on_c, 2, 61, 0
4, 77460, Note_on_c, 2, 62, 81
4, 77486, Note_on_c, 2, 62, 0
4, 77490, Note_on_c, 2, 61, 82
4, 77516, Note_on_c, 2, 61, 0
4, 77520, Note_on_c, 2, 59, 82
4, 77546, Note_on_c, 2, 59, 0
4, 77550, Note_on_c, 2, 61, 81
4, 77576, Note_on_c, 2, 61, 0
4, 77580, Note_on_c, 2, 62, 81
4, 77606, Note_on_c, 2, 62, 0
4, 77610, Note_on_c, 2, 61, 81
4, 77636, Note_on_c, 2, 61, 0
4, 77640, Note_on_c, 2, 59, 80
4, 77666, Note_on_c, 2, 59, 0
4, 77670, Note_on_c, 2, 61, 80
4, 77696, Note_on_c, 2, 61, 0
4, 77700, Note_on_c, 2, 62, 80
4, 77726, Note_on_c, 2, 62, 0
4, 77730, Note_on_c, 2, 61, 80
4, 77756, Note_on_c, 2, 61, 0
4, 77760, Note_on_c, 2, 59, 80
4, 77786, Note_on_c, 2, 59, 0
4, 77790, Note_on_c, 2, 61, 80
4, 77816, Note_on_c, 2, 61, 0
4, 77820, Note_on_c, 2, 62, 81
4, 77846, Note_on_c, 2, 62, 0
4, 77850, Note_on_c, 2, 61, 80
4, 77876, Note_on_c, 2, 61, 0
4, 77880, Note_on_c, 2, 59, 72
4, 77985, Note_on_c, 2, 59, 0
4, 78060, Note_on_c, 2, 61, 75
4, 78112, Note_on_c, 2, 61, 0
4, 78120, Note_on_c, 2, 62, 60
4, 78225, Note_on_c, 2, 62, 0
4, 78300, Note_on_c, 2, 62, 74
4, 78352, Note_on_c, 2, 62, 0
4, 78360, Note_on_c, 2, 61, 71
4, 78465, Note_on_c, 2, 61, 0
4, 78540, Note_on_c, 2, 61, 73
4, 78592, Note_on_c, 2, 61, 0
4, 78600, Note_on_c, 2, 59, 72
4, 78705, Note_on_c, 2, 59, 0
4, 78780, Note_on_c, 2, 59, 70
4, 78832, Note_on_c, 2, 59, 0
4, 78840, Note_on_c, 2, 57, 70
4, 78945, Note_on_c, 2, 57, 0
4, 79020, Note_on_c, 2, 57, 71
4, 79072, Note_on_c, 2, 57, 0
4, 79080, Note_on_c, 2, 56, 72
4, 79185, Note_on_c, 2, 56, 0
4, 79260, Note_on_c, 2, 56, 73
4, 79312, Note_on_c, 2, 56, 0
4, 79320, Note_on_c, 2, 54, 74
4, 79425, Note_on_c, 2, 54, 0
4, 79920, Note_on_c, 2, 67, 86
4, 79946, Note_on_c, 2, 67, 0
4, 79950, Note_on_c, 2, 66, 86
4, 79976, Note_on_c, 2, 66, 0
4, 79980, Note_on_c, 2, 67, 83
4, 80006, Note_on_c, 2, 67, 0
4, 80010, Note_on_c, 2, 62, 84
4, 80036, Note_on_c, 2, 62, 0
4, 80040, Note_on_c, 2, 64, 84
4, 80066, Note_on_c, 2, 64, 0
4, 80070, Note_on_c, 2, 62, 83
4, 80096, Note_on_c, 2, 62, 0
4, 80100, Note_on_c, 2, 64, 82
4, 80126, Note_on_c, 2, 64, 0
4, 80130, Note_on_c, 2, 61, 81
4, 80156, Note_on_c, 2, 61, 0
4, 80160, Note_on_c, 2, 66, 79
4, 80186, Note_on_c, 2, 66, 0
4, 80190, Note_on_c, 2, 64, 80
4, 80216, Note_on_c, 2, 64, 0
4, 80220, Note_on_c, 2, 66, 80
4, 80246, Note_on_c, 2, 66, 0
4, 80250, Note_on_c, 2, 61, 78
4, 80276, Note_on_c, 2, 61, 0
4, 80280, Note_on_c, 2, 62, 75
4, 80385, Note_on_c, 2, 62, 0
4, 80515, Program_c, 2, 20
4, 80515, Control_c, 2, 0, 0
4, 80515, Control_c, 2, 11, 110
4, 80515, Control_c, 2, 64, 0
4, 80515, Control_c, 2, 91, 50
4, 80515, Control_c, 2, 93, 0
4, 80515, Control_c, 2, 7, 70
4, 80516, Control_c, 2, 10, 100
4, 80520, Note_on_c, 2, 64, 58
4, 80625, Note_on_c, 2, 64, 0
4, 80760, Note_on_c, 2, 66, 55
4, 80865, Note_on_c, 2, 66, 0
4, 81000, Note_on_c, 2, 67, 58
4, 81105, Note_on_c, 2, 67, 0
4, 81240, Note_on_c, 2, 68, 58
4, 81386, Note_on_c, 2, 68, 0
4, 81390, Note_on_c, 2, 73, 58
4, 81416, Note_on_c, 2, 73, 0
4, 81420, Note_on_c, 2, 71, 58
4, 81446, Note_on_c, 2, 71, 0
4, 81450, Note_on_c, 2, 73, 59
4, 81476, Note_on_c, 2, 73, 0
4, 81480, Note_on_c, 2, 69, 59
4, 81585, Note_on_c, 2, 69, 0
4, 81630, Note_on_c, 2, 66, 59
4, 81656, Note_on_c, 2, 66, 0
4, 81660, Note_on_c, 2, 71, 59
4, 81686, Note_on_c, 2, 71, 0
4, 81690, Note_on_c, 2, 68, 59
4, 81716, Note_on_c, 2, 68, 0
4, 81720, Note_on_c, 2, 65, 59
4, 81825, Note_on_c, 2, 65, 0
4, 81870, Note_on_c, 2, 61, 60
4, 81896, Note_on_c, 2, 61, 0
4, 81900, Note_on_c, 2, 66, 60
4, 81926, Note_on_c, 2, 66, 0
4, 81930, Note_on_c, 2, 62, 60
4, 81956, Note_on_c, 2, 62, 0
4, 81960, Note_on_c, 2, 59, 61
4, 82125, Note_on_c, 2, 59, 0
4, 82140, Note_on_c, 2, 57, 59
4, 82192, Note_on_c, 2, 57, 0
4, 82200, Note_on_c, 2, 59, 57
4, 82252, Note_on_c, 2, 59, 0
4, 82260, Note_on_c, 2, 56, 59
4, 82312, Note_on_c, 2, 56, 0
4, 82320, Note_on_c, 2, 61, 59
4, 82372, Note_on_c, 2, 61, 0
4, 82380, Note_on_c, 2, 49, 59
4, 82432, Note_on_c, 2, 49, 0
4, 82440, Note_on_c, 2, 54, 59
4, 82545, Note_on_c, 2, 54, 0
4, 82615, Program_c, 2, 19
4, 82615, Control_c, 2, 0, 0
4, 82615, Control_c, 2, 11, 110
4, 82615, Control_c, 2, 64, 0
4, 82615, Control_c, 2, 91, 50
4, 82615, Control_c, 2, 93, 0
4, 82615, Control_c, 2, 7, 70
4, 82616, Control_c, 2, 10, 100
4, 82620, Note_on_c, 2, 56, 96
4, 82672, Note_on_c, 2, 56, 0
4, 82680, Note_on_c, 2, 57, 81
4, 82732, Note_on_c, 2, 57, 0
4, 82740, Note_on_c, 2, 59, 76
4, 82792, Note_on_c, 2, 59, 0
4, 82800, Note_on_c, 2, 61, 72
4, 82852, Note_on_c, 2, 61, 0
4, 82860, Note_on_c, 2, 49, 78
4, 82912, Note_on_c, 2, 49, 0
4, 82920, Note_on_c, 2, 54, 70
4, 83025, Note_on_c, 2, 54, 0
4, 83340, Note_on_c, 2, 57, 64
4, 83392, Note_on_c, 2, 57, 0
4, 83400, Note_on_c, 2, 56, 64
4, 83505, Note_on_c, 2, 56, 0
4, 83580, Note_on_c, 2, 56, 64
4, 83632, Note_on_c, 2, 56, 0
4, 83640, Note_on_c, 2, 54, 64
4, 83745, Note_on_c, 2, 54, 0
4, 83820, Note_on_c, 2, 54, 64
4, 83872, Note_on_c, 2, 54, 0
4, 83880, Note_on_c, 2, 52, 64
4, 83985, Note_on_c, 2, 52, 0
4, 84060, Note_on_c, 2, 52, 64
4, 84112, Note_on_c, 2, 52, 0
4, 84120, Note_on_c, 2, 51, 64
4, 84225, Note_on_c, 2, 51, 0
4, 84300, Note_on_c, 2, 51, 64
4, 84352, Note_on_c, 2, 51, 0
4, 84360, Note_on_c, 2, 49, 64
4, 84506, Note_on_c, 2, 49, 0
4, 84510, Note_on_c, 2, 54, 64
4, 84536, Note_on_c, 2, 54, 0
4, 84540, Note_on_c, 2, 53, 64
4, 84566, Note_on_c, 2, 53, 0
4, 84570, Note_on_c, 2, 54, 64
4, 84596, Note_on_c, 2, 54, 0
4, 84630, Note_on_c, 2, 56, 64
4, 84656, Note_on_c, 2, 56, 0
4, 84660, Note_on_c, 2, 57, 64
4, 84686, Note_on_c, 2, 57, 0
4, 84690, Note_on_c, 2, 59, 64
4, 84716, Note_on_c, 2, 59, 0
4, 84720, Note_on_c, 2, 56, 64
4, 84737, Note_on_c, 2, 56, 0
4, 84739, Note_on_c, 2, 54, 64
4, 84757, Note_on_c, 2, 54, 0
4, 84759, Note_on_c, 2, 56, 64
4, 84806, Note_on_c, 2, 56, 0
4, 84810, Note_on_c, 2, 57, 64
4, 84836, Note_on_c, 2, 57, 0
4, 84840, Note_on_c, 2, 57, 64
4, 84892, Note_on_c, 2, 57, 0
4, 84897, Program_c, 2, 19
4, 84897, Control_c, 2, 0, 0
4, 84897, Control_c, 2, 11, 110
4, 84897, Control_c, 2, 64, 0
4, 84897, Control_c, 2, 91, 50
4, 84897, Control_c, 2, 93, 20
4, 84897, Control_c, 2, 7, 90
4, 84898, Control_c, 2, 10, 100
4, 84900, Note_on_c, 2, 61, 70
4, 84952, Note_on_c, 2, 61, 0
4, 84960, Note_on_c, 2, 61, 70
4, 85012, Note_on_c, 2, 61, 0
4, 85020, Note_on_c, 2, 61, 69
4, 85072, Note_on_c, 2, 61, 0
4, 85080, Note_on_c, 2, 61, 68
4, 85185, Note_on_c, 2, 61, 0
4, 85380, Note_on_c, 2, 57, 77
4, 85406, Note_on_c, 2, 57, 0
4, 85410, Note_on_c, 2, 56, 78
4, 85436, Note_on_c, 2, 56, 0
4, 85440, Note_on_c, 2, 57, 78
4, 85466, Note_on_c, 2, 57, 0
4, 85470, Note_on_c, 2, 56, 78
4, 85496, Note_on_c, 2, 56, 0
4, 85500, Note_on_c, 2, 57, 78
4, 85526, Note_on_c, 2, 57, 0
4, 85530, Note_on_c, 2, 56, 78
4, 85556, Note_on_c, 2, 56, 0
4, 85560, Note_on_c, 2, 57, 76
4, 85665, Note_on_c, 2, 57, 0
4, 85860, Note_on_c, 2, 54, 79
4, 85886, Note_on_c, 2, 54, 0
4, 85890, Note_on_c, 2, 53, 79
4, 85916, Note_on_c, 2, 53, 0
4, 85920, Note_on_c, 2, 54, 79
4, 85946, Note_on_c, 2, 54, 0
4, 85950, Note_on_c, 2, 53, 79
4, 85976, Note_on_c, 2, 53, 0
4, 85980, Note_on_c, 2, 54, 79
4, 86006, Note_on_c, 2, 54, 0
4, 86010, Note_on_c, 2, 53, 79
4, 86036, Note_on_c, 2, 53, 0
4, 86040, Note_on_c, 2, 54, 73
4, 86092, Note_on_c, 2, 54, 0
4, 86100, Note_on_c, 2, 42, 73
4, 86152, Note_on_c, 2, 42, 0
4, 89217, Program_c, 2, 19
4, 89217, Control_c, 2, 0, 0
4, 89217, Control_c, 2, 11, 120
4, 89217, Control_c, 2, 64, 0
4, 89217, Control_c, 2, 91, 50
4, 89217, Control_c, 2, 93, 20
4, 89217, Control_c, 2, 7, 85
4, 89218, Control_c, 2, 10, 100
4, 89220, Note_on_c, 2, 63, 70
4, 89246, Note_on_c, 2, 63, 0
4, 89250, Note_on_c, 2, 61, 70
4, 89276, Note_on_c, 2, 61, 0
4, 89280, Note_on_c, 2, 63, 71
4, 89306, Note_on_c, 2, 63, 0
4, 89310, Note_on_c, 2, 61, 74
4, 89336, Note_on_c, 2, 61, 0
4, 89340, Note_on_c, 2, 63, 73
4, 89366, Note_on_c, 2, 63, 0
4, 89370, Note_on_c, 2, 61, 72
4, 89396, Note_on_c, 2, 61, 0
4, 89400, Note_on_c, 2, 60, 72
4, 89452, Note_on_c, 2, 60, 0
4, 89640, Note_on_c, 2, 61, 72
4, 89666, Note_on_c, 2, 61, 0
4, 89670, Note_on_c, 2, 63, 71
4, 89696, Note_on_c, 2, 63, 0
4, 89700, Note_on_c, 2, 64, 71
4, 89726, Note_on_c, 2, 64, 0
4, 89730, Note_on_c, 2, 63, 71
4, 89756, Note_on_c, 2, 63, 0
4, 89760, Note_on_c, 2, 61, 71
4, 89786, Note_on_c, 2, 61, 0
4, 89790, Note_on_c, 2, 63, 71
4, 89816, Note_on_c, 2, 63, 0
4, 89820, Note_on_c, 2, 64, 71
4, 89846, Note_on_c, 2, 64, 0
4, 89850, Note_on_c, 2, 63, 71
4, 89876, Note_on_c, 2, 63, 0
4, 89880, Note_on_c, 2, 61, 71
4, 89932, Note_on_c, 2, 61, 0
4, 90420, Note_on_c, 2, 64, 77
4, 90446, Note_on_c, 2, 64, 0
4, 90450, Note_on_c, 2, 63, 78
4, 90476, Note_on_c, 2, 63, 0
4, 90480, Note_on_c, 2, 64, 78
4, 90506, Note_on_c, 2, 64, 0
4, 90510, Note_on_c, 2, 63, 79
4, 90536, Note_on_c, 2, 63, 0
4, 90540, Note_on_c, 2, 64, 79
4, 90566, Note_on_c, 2, 64, 0
4, 90570, Note_on_c, 2, 63, 79
4, 90596, Note_on_c, 2, 63, 0
4, 90600, Note_on_c, 2, 64, 78
4, 90705, Note_on_c, 2, 64, 0
4, 90780, Note_on_c, 2, 61, 64
4, 90832, Note_on_c, 2, 61, 0
4, 90840, Note_on_c, 2, 57, 64
4, 90945, Note_on_c, 2, 57, 0
4, 91020, Note_on_c, 2, 56, 64
4, 91072, Note_on_c, 2, 56, 0
4, 91080, Note_on_c, 2, 56, 64
4, 91185, Note_on_c, 2, 56, 0
4, 91260, Note_on_c, 2, 64, 58
4, 91312, Note_on_c, 2, 64, 0
4, 91320, Note_on_c, 2, 63, 56
4, 91425, Note_on_c, 2, 63, 0
4, 91500, Note_on_c, 2, 63, 60
4, 91552, Note_on_c, 2, 63, 0
4, 91560, Note_on_c, 2, 61, 56
4, 91665, Note_on_c, 2, 61, 0
4, 91740, Note_on_c, 2, 66, 58
4, 91792, Note_on_c, 2, 66, 0
4, 91800, Note_on_c, 2, 66, 60
4, 91852, Note_on_c, 2, 66, 0
4, 91860, Note_on_c, 2, 64, 59
4, 91912, Note_on_c, 2, 64, 0
4, 91920, Note_on_c, 2, 63, 59
4, 92025, Note_on_c, 2, 63, 0
4, 92040, Note_on_c, 2, 61, 58
4, 92145, Note_on_c, 2, 61, 0
4, 92640, Note_on_c, 2, 52, 88
4, 92666, Note_on_c, 2, 52, 0
4, 92670, Note_on_c, 2, 56, 88
4, 92696, Note_on_c, 2, 56, 0
4, 92700, Note_on_c, 2, 52, 88
4, 92726, Note_on_c, 2, 52, 0
4, 92730, Note_on_c, 2, 49, 88
4, 92756, Note_on_c, 2, 49, 0
4, 92760, Note_on_c, 2, 54, 97
4, 92865, Note_on_c, 2, 54, 0
4, 92880, Note_on_c, 2, 56, 91
4, 92932, Note_on_c, 2, 56, 0
4, 92940, Note_on_c, 2, 58, 91
4, 92992, Note_on_c, 2, 58, 0
4, 93000, Note_on_c, 2, 59, 94
4, 93052, Note_on_c, 2, 59, 0
4, 93060, Note_on_c, 2, 64, 96
4, 93112, Note_on_c, 2, 64, 0
4, 93120, Note_on_c, 2, 66, 101
4, 93172, Note_on_c, 2, 66, 0
4, 93180, Note_on_c, 2, 64, 98
4, 93232, Note_on_c, 2, 64, 0
4, 93240, Note_on_c, 2, 63, 95
4, 93266, Note_on_c, 2, 63, 0
4, 93270, Note_on_c, 2, 66, 93
4, 93296, Note_on_c, 2, 66, 0
4, 93300, Note_on_c, 2, 63, 92
4, 93326, Note_on_c, 2, 63, 0
4, 93330, Note_on_c, 2, 59, 91
4, 93356, Note_on_c, 2, 59, 0
4, 93360, Note_on_c, 2, 64, 91
4, 93412, Note_on_c, 2, 64, 0
4, 93420, Note_on_c, 2, 63, 88
4, 93472, Note_on_c, 2, 63, 0
4, 93480, Note_on_c, 2, 61, 86
4, 93532, Note_on_c, 2, 61, 0
4, 93540, Note_on_c, 2, 56, 88
4, 93592, Note_on_c, 2, 56, 0
4, 93600, Note_on_c, 2, 57, 88
4, 93652, Note_on_c, 2, 57, 0
4, 93660, Note_on_c, 2, 54, 88
4, 93712, Note_on_c, 2, 54, 0
4, 93720, Note_on_c, 2, 59, 88
4, 93798, Note_on_c, 2, 59, 0
4, 93810, Note_on_c, 2, 57, 88
4, 93836, Note_on_c, 2, 57, 0
4, 93840, Note_on_c, 2, 56, 89
4, 93892, Note_on_c, 2, 56, 0
4, 93900, Note_on_c, 2, 52, 89
4, 93952, Note_on_c, 2, 52, 0
4, 93960, Note_on_c, 2, 57, 89
4, 94012, Note_on_c, 2, 57, 0
4, 94020, Note_on_c, 2, 54, 89
4, 94072, Note_on_c, 2, 54, 0
4, 94080, Note_on_c, 2, 59, 88
4, 94132, Note_on_c, 2, 59, 0
4, 94140, Note_on_c, 2, 56, 88
4, 94192, Note_on_c, 2, 56, 0
4, 94200, Note_on_c, 2, 61, 88
4, 94252, Note_on_c, 2, 61, 0
4, 94260, Note_on_c, 2, 49, 88
4, 94312, Note_on_c, 2, 49, 0
4, 94320, Note_on_c, 2, 51, 88
4, 94372, Note_on_c, 2, 51, 0
4, 94380, Note_on_c, 2, 47, 88
4, 94432, Note_on_c, 2, 47, 0
4, 94440, Note_on_c, 2, 52, 89
4, 94492, Note_on_c, 2, 52, 0
4, 94500, Note_on_c, 2, 49, 88
4, 94552, Note_on_c, 2, 49, 0
4, 94560, Note_on_c, 2, 45, 88
4, 94612, Note_on_c, 2, 45, 0
4, 94620, Note_on_c, 2, 47, 88
4, 94672, Note_on_c, 2, 47, 0
4, 94677, Program_c, 2, 20
4, 94677, Control_c, 2, 0, 0
4, 94677, Control_c, 2, 11, 110
4, 94677, Control_c, 2, 64, 0
4, 94677, Control_c, 2, 91, 20
4, 94677, Control_c, 2, 93, 0
4, 94677, Control_c, 2, 7, 70
4, 94678, Control_c, 2, 10, 100
4, 94680, Note_on_c, 2, 52, 72
4, 94706, Note_on_c, 2, 52, 0
4, 94710, Note_on_c, 2, 54, 72
4, 94736, Note_on_c, 2, 54, 0
4, 94740, Note_on_c, 2, 56, 72
4, 94766, Note_on_c, 2, 56, 0
4, 94770, Note_on_c, 2, 54, 71
4, 94796, Note_on_c, 2, 54, 0
4, 94800, Note_on_c, 2, 52, 71
4, 94826, Note_on_c, 2, 52, 0
4, 94830, Note_on_c, 2, 54, 71
4, 94856, Note_on_c, 2, 54, 0
4, 94860, Note_on_c, 2, 56, 71
4, 94886, Note_on_c, 2, 56, 0
4, 94890, Note_on_c, 2, 54, 70
4, 94916, Note_on_c, 2, 54, 0
4, 94920, Note_on_c, 2, 52, 70
4, 94946, Note_on_c, 2, 52, 0
4, 94950, Note_on_c, 2, 54, 70
4, 94976, Note_on_c, 2, 54, 0
4, 94980, Note_on_c, 2, 56, 70
4, 95006, Note_on_c, 2, 56, 0
4, 95010, Note_on_c, 2, 54, 70
4, 95036, Note_on_c, 2, 54, 0
4, 95040, Note_on_c, 2, 52, 70
4, 95066, Note_on_c, 2, 52, 0
4, 95070, Note_on_c, 2, 54, 70
4, 95096, Note_on_c, 2, 54, 0
4, 95100, Note_on_c, 2, 56, 70
4, 95126, Note_on_c, 2, 56, 0
4, 95130, Note_on_c, 2, 54, 70
4, 95156, Note_on_c, 2, 54, 0
4, 95160, Note_on_c, 2, 52, 70
4, 95212, Note_on_c, 2, 52, 0
4, 95340, Note_on_c, 2, 54, 64
4, 95392, Note_on_c, 2, 54, 0
4, 95400, Note_on_c, 2, 56, 64
4, 95452, Note_on_c, 2, 56, 0
4, 95460, Note_on_c, 2, 57, 64
4, 95512, Note_on_c, 2, 57, 0
4, 95520, Note_on_c, 2, 59, 64
4, 95572, Note_on_c, 2, 59, 0
4, 95580, Note_on_c, 2, 47, 64
4, 95632, Note_on_c, 2, 47, 0
4, 95640, Note_on_c, 2, 52, 64
4, 95692, Note_on_c, 2, 52, 0
4, 96060, Note_on_c, 2, 64, 64
4, 96112, Note_on_c, 2, 64, 0
4, 96120, Note_on_c, 2, 61, 64
4, 96225, Note_on_c, 2, 61, 0
4, 96300, Note_on_c, 2, 59, 64
4, 96352, Note_on_c, 2, 59, 0
4, 96360, Note_on_c, 2, 59, 64
4, 96465, Note_on_c, 2, 59, 0
4, 96480, Note_on_c, 2, 61, 70
4, 96506, Note_on_c, 2, 61, 0
4, 96510, Note_on_c, 2, 59, 72
4, 96536, Note_on_c, 2, 59, 0
4, 96540, Note_on_c, 2, 61, 73
4, 96566, Note_on_c, 2, 61, 0
4, 96570, Note_on_c, 2, 56, 73
4, 96596, Note_on_c, 2, 56, 0
4, 96600, Note_on_c, 2, 57, 73
4, 96626, Note_on_c, 2, 57, 0
4, 96630, Note_on_c, 2, 56, 72
4, 96656, Note_on_c, 2, 56, 0
4, 96660, Note_on_c, 2, 57, 72
4, 96686, Note_on_c, 2, 57, 0
4, 96690, Note_on_c, 2, 54, 72
4, 96716, Note_on_c, 2, 54, 0
4, 96720, Note_on_c, 2, 59, 72
4, 96746, Note_on_c, 2, 59, 0
4, 96750, Note_on_c, 2, 57, 71
4, 96776, Note_on_c, 2, 57, 0
4, 96780, Note_on_c, 2, 59, 71
4, 96806, Note_on_c, 2, 59, 0
4, 96810, Note_on_c, 2, 54, 71
4, 96836, Note_on_c, 2, 54, 0
4, 96840, Note_on_c, 2, 56, 70
4, 96866, Note_on_c, 2, 56, 0
4, 96870, Note_on_c, 2, 54, 70
4, 96896, Note_on_c, 2, 54, 0
4, 96900, Note_on_c, 2, 56, 70
4, 96926, Note_on_c, 2, 56, 0
4, 96930, Note_on_c, 2, 52, 70
4, 96956, Note_on_c, 2, 52, 0
4, 96960, Note_on_c, 2, 57, 70
4, 96986, Note_on_c, 2, 57, 0
4, 96990, Note_on_c, 2, 56, 70
4, 97016, Note_on_c, 2, 56, 0
4, 97020, Note_on_c, 2, 57, 70
4, 97046, Note_on_c, 2, 57, 0
4, 97050, Note_on_c, 2, 54, 70
4, 97076, Note_on_c, 2, 54, 0
4, 97080, Note_on_c, 2, 59, 70
4, 97106, Note_on_c, 2, 59, 0
4, 97110, Note_on_c, 2, 57, 70
4, 97136, Note_on_c, 2, 57, 0
4, 97140, Note_on_c, 2, 59, 70
4, 97166, Note_on_c, 2, 59, 0
4, 97170, Note_on_c, 2, 54, 70
4, 97196, Note_on_c, 2, 54, 0
4, 97200, Note_on_c, 2, 56, 70
4, 97226, Note_on_c, 2, 56, 0
4, 97230, Note_on_c, 2, 54, 70
4, 97256, Note_on_c, 2, 54, 0
4, 97260, Note_on_c, 2, 56, 70
4, 97286, Note_on_c, 2, 56, 0
4, 97290, Note_on_c, 2, 52, 70
4, 97316, Note_on_c, 2, 52, 0
4, 97320, Note_on_c, 2, 57, 70
4, 97346, Note_on_c, 2, 57, 0
4, 97350, Note_on_c, 2, 56, 70
4, 97376, Note_on_c, 2, 56, 0
4, 97380, Note_on_c, 2, 57, 70
4, 97406, Note_on_c, 2, 57, 0
4, 97410, Note_on_c, 2, 52, 70
4, 97436, Note_on_c, 2, 52, 0
4, 97440, Note_on_c, 2, 54, 70
4, 97545, Note_on_c, 2, 54, 0
4, 97560, Note_on_c, 2, 56, 64
4, 97612, Note_on_c, 2, 56, 0
4, 97620, Note_on_c, 2, 57, 64
4, 97672, Note_on_c, 2, 57, 0
4, 97680, Note_on_c, 2, 52, 64
4, 97785, Note_on_c, 2, 52, 0
4, 97800, Note_on_c, 2, 57, 64
4, 97905, Note_on_c, 2, 57, 0
4, 98337, Program_c, 2, 19
4, 98337, Control_c, 2, 0, 8
4, 98337, Control_c, 2, 11, 110
4, 98337, Control_c, 2, 64, 0
4, 98337, Control_c, 2, 91, 127
4, 98337, Control_c, 2, 93, 127
4, 98337, Control_c, 2, 7, 60
4, 98338, Control_c, 2, 10, 100
4, 98340, Note_on_c, 2, 57, 72
4, 98366, Note_on_c, 2, 57, 0
4, 98370, Note_on_c, 2, 56, 71
4, 98396, Note_on_c, 2, 56, 0
4, 98400, Note_on_c, 2, 57, 71
4, 98426, Note_on_c, 2, 57, 0
4, 98430, Note_on_c, 2, 56, 71
4, 98456, Note_on_c, 2, 56, 0
4, 98460, Note_on_c, 2, 57, 71
4, 98486, Note_on_c, 2, 57, 0
4, 98490, Note_on_c, 2, 56, 70
4, 98516, Note_on_c, 2, 56, 0
4, 98520, Note_on_c, 2, 57, 70
4, 98572, Note_on_c, 2, 57, 0
4, 98580, Note_on_c, 2, 45, 70
4, 98632, Note_on_c, 2, 45, 0
4, 98700, Note_on_c, 2, 69, 64
4, 98752, Note_on_c, 2, 69, 0
4, 98760, Note_on_c, 2, 69, 64
4, 98865, Note_on_c, 2, 69, 0
4, 98940, Note_on_c, 2, 68, 64
4, 98992, Note_on_c, 2, 68, 0
4, 99000, Note_on_c, 2, 68, 64
4, 99105, Note_on_c, 2, 68, 0
4, 99180, Note_on_c, 2, 66, 64
4, 99232, Note_on_c, 2, 66, 0
4, 99240, Note_on_c, 2, 66, 64
4, 99345, Note_on_c, 2, 66, 0
4, 99420, Note_on_c, 2, 64, 64
4, 99472, Note_on_c, 2, 64, 0
4, 99480, Note_on_c, 2, 64, 64
4, 99585, Note_on_c, 2, 64, 0
4, 99660, Note_on_c, 2, 62, 64
4, 99712, Note_on_c, 2, 62, 0
4, 99720, Note_on_c, 2, 62, 64
4, 99825, Note_on_c, 2, 62, 0
4, 99840, Note_on_c, 2, 61, 64
4, 99866, Note_on_c, 2, 61, 0
4, 99870, Note_on_c, 2, 59, 64
4, 99896, Note_on_c, 2, 59, 0
4, 99900, Note_on_c, 2, 61, 64
4, 99926, Note_on_c, 2, 61, 0
4, 99930, Note_on_c, 2, 57, 64
4, 99956, Note_on_c, 2, 57, 0
4, 99960, Note_on_c, 2, 62, 64
4, 100106, Note_on_c, 2, 62, 0
4, 100110, Note_on_c, 2, 61, 64
4, 100136, Note_on_c, 2, 61, 0
4, 100140, Note_on_c, 2, 62, 64
4, 100166, Note_on_c, 2, 62, 0
4, 100170, Note_on_c, 2, 59, 64
4, 100196, Note_on_c, 2, 59, 0
4, 100200, Note_on_c, 2, 64, 64
4, 100346, Note_on_c, 2, 64, 0
4, 100350, Note_on_c, 2, 62, 64
4, 100376, Note_on_c, 2, 62, 0
4, 100380, Note_on_c, 2, 64, 64
4, 100406, Note_on_c, 2, 64, 0
4, 100410, Note_on_c, 2, 61, 64
4, 100436, Note_on_c, 2, 61, 0
4, 100440, Note_on_c, 2, 66, 64
4, 100586, Note_on_c, 2, 66, 0
4, 100590, Note_on_c, 2, 64, 64
4, 100616, Note_on_c, 2, 64, 0
4, 100620, Note_on_c, 2, 66, 64
4, 100646, Note_on_c, 2, 66, 0
4, 100650, Note_on_c, 2, 64, 64
4, 100676, Note_on_c, 2, 64, 0
4, 100680, Note_on_c, 2, 66, 64
4, 100706, Note_on_c, 2, 66, 0
4, 100710, Note_on_c, 2, 64, 64
4, 100736, Note_on_c, 2, 64, 0
4, 100740, Note_on_c, 2, 62, 64
4, 100766, Note_on_c, 2, 62, 0
4, 100770, Note_on_c, 2, 66, 64
4, 100796, Note_on_c, 2, 66, 0
4, 100800, Note_on_c, 2, 64, 64
4, 100852, Note_on_c, 2, 64, 0
4, 100860, Note_on_c, 2, 52, 64
4, 100912, Note_on_c, 2, 52, 0
4, 100920, Note_on_c, 2, 61, 64
4, 100972, Note_on_c, 2, 61, 0
4, 101397, Program_c, 2, 19
4, 101397, Control_c, 2, 0, 0
4, 101397, Control_c, 2, 11, 120
4, 101397, Control_c, 2, 64, 0
4, 101397, Control_c, 2, 91, 50
4, 101397, Control_c, 2, 93, 20
4, 101397, Control_c, 2, 7, 100
4, 101398, Control_c, 2, 10, 100
4, 101400, Note_on_c, 2, 61, 72
4, 101426, Note_on_c, 2, 61, 0
4, 101430, Note_on_c, 2, 62, 72
4, 101456, Note_on_c, 2, 62, 0
4, 101460, Note_on_c, 2, 64, 72
4, 101486, Note_on_c, 2, 64, 0
4, 101490, Note_on_c, 2, 62, 72
4, 101516, Note_on_c, 2, 62, 0
4, 101520, Note_on_c, 2, 61, 71
4, 101546, Note_on_c, 2, 61, 0
4, 101550, Note_on_c, 2, 62, 71
4, 101576, Note_on_c, 2, 62, 0
4, 101580, Note_on_c, 2, 64, 71
4, 101606, Note_on_c, 2, 64, 0
4, 101610, Note_on_c, 2, 62, 71
4, 101636, Note_on_c, 2, 62, 0
4, 101640, Note_on_c, 2, 61, 71
4, 101666, Note_on_c, 2, 61, 0
4, 101670, Note_on_c, 2, 62, 71
4, 101696, Note_on_c, 2, 62, 0
4, 101700, Note_on_c, 2, 64, 71
4, 101726, Note_on_c, 2, 64, 0
4, 101730, Note_on_c, 2, 62, 71
4, 101756, Note_on_c, 2, 62, 0
4, 101760, Note_on_c, 2, 61, 71
4, 101786, Note_on_c, 2, 61, 0
4, 101790, Note_on_c, 2, 62, 71
4, 101816, Note_on_c, 2, 62, 0
4, 101820, Note_on_c, 2, 64, 71
4, 101846, Note_on_c, 2, 64, 0
4, 101850, Note_on_c, 2, 62, 71
4, 101876, Note_on_c, 2, 62, 0
4, 101880, Note_on_c, 2, 61, 71
4, 101985, Note_on_c, 2, 61, 0
4, 102360, Note_on_c, 2, 64, 65
4, 102386, Note_on_c, 2, 64, 0
4, 102390, Note_on_c, 2, 66, 65
4, 102416, Note_on_c, 2, 66, 0
4, 102420, Note_on_c, 2, 67, 65
4, 102446, Note_on_c, 2, 67, 0
4, 102450, Note_on_c, 2, 66, 65
4, 102476, Note_on_c, 2, 66, 0
4, 102480, Note_on_c, 2, 64, 66
4, 102506, Note_on_c, 2, 64, 0
4, 102510, Note_on_c, 2, 66, 67
4, 102536, Note_on_c, 2, 66, 0
4, 102540, Note_on_c, 2, 67, 67
4, 102566, Note_on_c, 2, 67, 0
4, 102570, Note_on_c, 2, 66, 67
4, 102596, Note_on_c, 2, 66, 0
4, 102600, Note_on_c, 2, 64, 67
4, 102626, Note_on_c, 2, 64, 0
4, 102630, Note_on_c, 2, 66, 67
4, 102656, Note_on_c, 2, 66, 0
4, 102660, Note_on_c, 2, 67, 67
4, 102686, Note_on_c, 2, 67, 0
4, 102690, Note_on_c, 2, 66, 67
4, 102716, Note_on_c, 2, 66, 0
4, 102720, Note_on_c, 2, 64, 67
4, 102746, Note_on_c, 2, 64, 0
4, 102750, Note_on_c, 2, 66, 67
4, 102776, Note_on_c, 2, 66, 0
4, 102780, Note_on_c, 2, 67, 67
4, 102806, Note_on_c, 2, 67, 0
4, 102810, Note_on_c, 2, 66, 69
4, 102836, Note_on_c, 2, 66, 0
4, 102840, Note_on_c, 2, 64, 68
4, 102866, Note_on_c, 2, 64, 0
4, 102870, Note_on_c, 2, 62, 68
4, 102896, Note_on_c, 2, 62, 0
4, 102900, Note_on_c, 2, 64, 68
4, 102926, Note_on_c, 2, 64, 0
4, 102930, Note_on_c, 2, 61, 68
4, 102956, Note_on_c, 2, 61, 0
4, 102960, Note_on_c, 2, 66, 69
4, 102986, Note_on_c, 2, 66, 0
4, 102990, Note_on_c, 2, 67, 69
4, 103016, Note_on_c, 2, 67, 0
4, 103020, Note_on_c, 2, 69, 69
4, 103046, Note_on_c, 2, 69, 0
4, 103050, Note_on_c, 2, 67, 69
4, 103076, Note_on_c, 2, 67, 0
4, 103080, Note_on_c, 2, 66, 69
4, 103106, Note_on_c, 2, 66, 0
4, 103110, Note_on_c, 2, 64, 69
4, 103136, Note_on_c, 2, 64, 0
4, 103140, Note_on_c, 2, 66, 69
4, 103166, Note_on_c, 2, 66, 0
4, 103170, Note_on_c, 2, 62, 69
4, 103196, Note_on_c, 2, 62, 0
4, 103200, Note_on_c, 2, 67, 69
4, 103226, Note_on_c, 2, 67, 0
4, 103230, Note_on_c, 2, 69, 69
4, 103256, Note_on_c, 2, 69, 0
4, 103260, Note_on_c, 2, 71, 69
4, 103286, Note_on_c, 2, 71, 0
4, 103290, Note_on_c, 2, 69, 69
4, 103316, Note_on_c, 2, 69, 0
4, 103320, Note_on_c, 2, 67, 69
4, 103346, Note_on_c, 2, 67, 0
4, 103350, Note_on_c, 2, 66, 69
4, 103376, Note_on_c, 2, 66, 0
4, 103380, Note_on_c, 2, 67, 69
4, 103406, Note_on_c, 2, 67, 0
4, 103410, Note_on_c, 2, 64, 69
4, 103436, Note_on_c, 2, 64, 0
4, 103440, Note_on_c, 2, 66, 71
4, 103466, Note_on_c, 2, 66, 0
4, 103470, Note_on_c, 2, 67, 73
4, 103496, Note_on_c, 2, 67, 0
4, 103500, Note_on_c, 2, 69, 73
4, 103526, Note_on_c, 2, 69, 0
4, 103530, Note_on_c, 2, 67, 73
4, 103556, Note_on_c, 2, 67, 0
4, 103560, Note_on_c, 2, 66, 74
4, 103586, Note_on_c, 2, 66, 0
4, 103590, Note_on_c, 2, 64, 73
4, 103616, Note_on_c, 2, 64, 0
4, 103620, Note_on_c, 2, 66, 73
4, 103646, Note_on_c, 2, 66, 0
4, 103650, Note_on_c, 2, 62, 73
4, 103676, Note_on_c, 2, 62, 0
4, 103680, Note_on_c, 2, 67, 74
4, 103706, Note_on_c, 2, 67, 0
4, 103710, Note_on_c, 2, 69, 75
4, 103736, Note_on_c, 2, 69, 0
4, 103740, Note_on_c, 2, 71, 75
4, 103766, Note_on_c, 2, 71, 0
4, 103770, Note_on_c, 2, 69, 74
4, 103796, Note_on_c, 2, 69, 0
4, 103800, Note_on_c, 2, 67, 74
4, 103826, Note_on_c, 2, 67, 0
4, 103830, Note_on_c, 2, 66, 74
4, 103856, Note_on_c, 2, 66, 0
4, 103860, Note_on_c, 2, 67, 74
4, 103886, Note_on_c, 2, 67, 0
4, 103890, Note_on_c, 2, 64, 73
4, 103916, Note_on_c, 2, 64, 0
4, 103920, Note_on_c, 2, 62, 73
4, 103946, Note_on_c, 2, 62, 0
4, 103950, Note_on_c, 2, 64, 73
4, 103976, Note_on_c, 2, 64, 0
4, 103980, Note_on_c, 2, 66, 73
4, 104006, Note_on_c, 2, 66, 0
4, 104010, Note_on_c, 2, 64, 73
4, 104036, Note_on_c, 2, 64, 0
4, 104040, Note_on_c, 2, 62, 73
4, 104066, Note_on_c, 2, 62, 0
4, 104070, Note_on_c, 2, 61, 73
4, 104096, Note_on_c, 2, 61, 0
4, 104100, Note_on_c, 2, 62, 73
4, 104126, Note_on_c, 2, 62, 0
4, 104130, Note_on_c, 2, 59, 74
4, 104156, Note_on_c, 2, 59, 0
4, 104160, Note_on_c, 2, 64, 74
4, 104186, Note_on_c, 2, 64, 0
4, 104190, Note_on_c, 2, 66, 74
4, 104216, Note_on_c, 2, 66, 0
4, 104220, Note_on_c, 2, 67, 74
4, 104246, Note_on_c, 2, 67, 0
4, 104250, Note_on_c, 2, 66, 75
4, 104276, Note_on_c, 2, 66, 0
4, 104280, Note_on_c, 2, 64, 75
4, 104306, Note_on_c, 2, 64, 0
4, 104310, Note_on_c, 2, 62, 75
4, 104336, Note_on_c, 2, 62, 0
4, 104340, Note_on_c, 2, 64, 74
4, 104366, Note_on_c, 2, 64, 0
4, 104370, Note_on_c, 2, 61, 75
4, 104396, Note_on_c, 2, 61, 0
4, 104400, Note_on_c, 2, 62, 75
4, 104426, Note_on_c, 2, 62, 0
4, 104430, Note_on_c, 2, 64, 76
4, 104456, Note_on_c, 2, 64, 0
4, 104460, Note_on_c, 2, 66, 77
4, 104486, Note_on_c, 2, 66, 0
4, 104490, Note_on_c, 2, 64, 77
4, 104516, Note_on_c, 2, 64, 0
4, 104520, Note_on_c, 2, 62, 79
4, 104546, Note_on_c, 2, 62, 0
4, 104550, Note_on_c, 2, 61, 80
4, 104576, Note_on_c, 2, 61, 0
4, 104580, Note_on_c, 2, 62, 80
4, 104606, Note_on_c, 2, 62, 0
4, 104610, Note_on_c, 2, 59, 80
4, 104636, Note_on_c, 2, 59, 0
4, 104640, Note_on_c, 2, 64, 80
4, 104666, Note_on_c, 2, 64, 0
4, 104670, Note_on_c, 2, 66, 80
4, 104696, Note_on_c, 2, 66, 0
4, 104700, Note_on_c, 2, 67, 80
4, 104726, Note_on_c, 2, 67, 0
4, 104730, Note_on_c, 2, 66, 80
4, 104756, Note_on_c, 2, 66, 0
4, 104760, Note_on_c, 2, 64, 80
4, 104786, Note_on_c, 2, 64, 0
4, 104790, Note_on_c, 2, 62, 77
4, 104816, Note_on_c, 2, 62, 0
4, 104820, Note_on_c, 2, 64, 78
4, 104846, Note_on_c, 2, 64, 0
4, 104850, Note_on_c, 2, 61, 79
4, 104876, Note_on_c, 2, 61, 0
4, 104880, Note_on_c, 2, 62, 80
4, 104906, Note_on_c, 2, 62, 0
4, 104910, Note_on_c, 2, 64, 80
4, 104936, Note_on_c, 2, 64, 0
4, 104940, Note_on_c, 2, 66, 80
4, 104966, Note_on_c, 2, 66, 0
4, 104970, Note_on_c, 2, 67, 80
4, 104996, Note_on_c, 2, 67, 0
4, 105000, Note_on_c, 2, 64, 80
4, 105105, Note_on_c, 2, 64, 0
4, 105150, Note_on_c, 2, 64, 82
4, 105176, Note_on_c, 2, 64, 0
4, 105180, Note_on_c, 2, 66, 82
4, 105206, Note_on_c, 2, 66, 0
4, 105210, Note_on_c, 2, 64, 82
4, 105236, Note_on_c, 2, 64, 0
4, 105240, Note_on_c, 2, 66, 82
4, 105345, Note_on_c, 2, 66, 0
4, 105390, Note_on_c, 2, 66, 83
4, 105416, Note_on_c, 2, 66, 0
4, 105420, Note_on_c, 2, 67, 83
4, 105446, Note_on_c, 2, 67, 0
4, 105450, Note_on_c, 2, 66, 83
4, 105476, Note_on_c, 2, 66, 0
4, 105480, Note_on_c, 2, 67, 83
4, 105585, Note_on_c, 2, 67, 0
4, 105630, Note_on_c, 2, 64, 84
4, 105656, Note_on_c, 2, 64, 0
4, 105660, Note_on_c, 2, 66, 83
4, 105686, Note_on_c, 2, 66, 0
4, 105690, Note_on_c, 2, 64, 83
4, 105716, Note_on_c, 2, 64, 0
4, 105720, Note_on_c, 2, 66, 83
4, 105825, Note_on_c, 2, 66, 0
4, 105870, Note_on_c, 2, 66, 82
4, 105896, Note_on_c, 2, 66, 0
4, 105900, Note_on_c, 2, 67, 82
4, 105926, Note_on_c, 2, 67, 0
4, 105930, Note_on_c, 2, 66, 82
4, 105956, Note_on_c, 2, 66, 0
4, 105960, Note_on_c, 2, 67, 82
4, 106065, Note_on_c, 2, 67, 0
4, 106110, Note_on_c, 2, 64, 83
4, 106136, Note_on_c, 2, 64, 0
4, 106140, Note_on_c, 2, 66, 83
4, 106166, Note_on_c, 2, 66, 0
4, 106170, Note_on_c, 2, 64, 83
4, 106196, Note_on_c, 2, 64, 0
4, 106200, Note_on_c, 2, 66, 83
4, 106305, Note_on_c, 2, 66, 0
4, 106350, Note_on_c, 2, 62, 84
4, 106376, Note_on_c, 2, 62, 0
4, 106380, Note_on_c, 2, 64, 84
4, 106406, Note_on_c, 2, 64, 0
4, 106410, Note_on_c, 2, 62, 84
4, 106436, Note_on_c, 2, 62, 0
4, 106440, Note_on_c, 2, 64, 85
4, 106466, Note_on_c, 2, 64, 0
4, 106470, Note_on_c, 2, 66, 86
4, 106496, Note_on_c, 2, 66, 0
4, 106500, Note_on_c, 2, 67, 86
4, 106526, Note_on_c, 2, 67, 0
4, 106530, Note_on_c, 2, 66, 86
4, 106556, Note_on_c, 2, 66, 0
4, 106560, Note_on_c, 2, 64, 86
4, 106586, Note_on_c, 2, 64, 0
4, 106590, Note_on_c, 2, 66, 86
4, 106616, Note_on_c, 2, 66, 0
4, 106620, Note_on_c, 2, 67, 86
4, 106646, Note_on_c, 2, 67, 0
4, 106650, Note_on_c, 2, 66, 86
4, 106676, Note_on_c, 2, 66, 0
4, 106680, Note_on_c, 2, 64, 86
4, 106706, Note_on_c, 2, 64, 0
4, 106710, Note_on_c, 2, 66, 86
4, 106736, Note_on_c, 2, 66, 0
4, 106740, Note_on_c, 2, 67, 85
4, 106766, Note_on_c, 2, 67, 0
4, 106770, Note_on_c, 2, 66, 85
4, 106796, Note_on_c, 2, 66, 0
4, 106800, Note_on_c, 2, 64, 85
4, 106826, Note_on_c, 2, 64, 0
4, 106830, Note_on_c, 2, 66, 85
4, 106856, Note_on_c, 2, 66, 0
4, 106860, Note_on_c, 2, 67, 85
4, 106886, Note_on_c, 2, 67, 0
4, 106890, Note_on_c, 2, 66, 85
4, 106916, Note_on_c, 2, 66, 0
4, 106920, Note_on_c, 2, 64, 85
4, 106946, Note_on_c, 2, 64, 0
4, 106950, Note_on_c, 2, 66, 85
4, 106976, Note_on_c, 2, 66, 0
4, 106980, Note_on_c, 2, 67, 85
4, 107006, Note_on_c, 2, 67, 0
4, 107010, Note_on_c, 2, 66, 85
4, 107036, Note_on_c, 2, 66, 0
4, 107040, Note_on_c, 2, 64, 84
4, 107066, Note_on_c, 2, 64, 0
4, 107070, Note_on_c, 2, 66, 84
4, 107096, Note_on_c, 2, 66, 0
4, 107100, Note_on_c, 2, 67, 84
4, 107126, Note_on_c, 2, 67, 0
4, 107130, Note_on_c, 2, 66, 84
4, 107156, Note_on_c, 2, 66, 0
4, 107160, Note_on_c, 2, 64, 84
4, 107186, Note_on_c, 2, 64, 0
4, 107190, Note_on_c, 2, 66, 84
4, 107216, Note_on_c, 2, 66, 0
4, 107220, Note_on_c, 2, 67, 84
4, 107246, Note_on_c, 2, 67, 0
4, 107250, Note_on_c, 2, 66, 84
4, 107276, Note_on_c, 2, 66, 0
4, 107280, Note_on_c, 2, 64, 84
4, 107306, Note_on_c, 2, 64, 0
4, 107310, Note_on_c, 2, 66, 84
4, 107336, Note_on_c, 2, 66, 0
4, 107340, Note_on_c, 2, 67, 84
4, 107366, Note_on_c, 2, 67, 0
4, 107370, Note_on_c, 2, 64, 83
4, 107396, Note_on_c, 2, 64, 0
4, 107400, Note_on_c, 2, 66, 83
4, 107426, Note_on_c, 2, 66, 0
4, 107430, Note_on_c, 2, 67, 83
4, 107456, Note_on_c, 2, 67, 0
4, 107460, Note_on_c, 2, 69, 84
4, 107486, Note_on_c, 2, 69, 0
4, 107490, Note_on_c, 2, 67, 84
4, 107516, Note_on_c, 2, 67, 0
4, 107520, Note_on_c, 2, 66, 84
4, 107546, Note_on_c, 2, 66, 0
4, 107550, Note_on_c, 2, 67, 83
4, 107576, Note_on_c, 2, 67, 0
4, 107580, Note_on_c, 2, 69, 83
4, 107606, Note_on_c, 2, 69, 0
4, 107610, Note_on_c, 2, 67, 83
4, 107636, Note_on_c, 2, 67, 0
4, 107640, Note_on_c, 2, 66, 75
4, 107745, Note_on_c, 2, 66, 0
4, 107757, Program_c, 2, 19
4, 107757, Control_c, 2, 0, 0
4, 107757, Control_c, 2, 11, 110
4, 107757, Control_c, 2, 64, 0
4, 107757, Control_c, 2, 91, 80
4, 107757, Control_c, 2, 93, 60
4, 107757, Control_c, 2, 7, 120
4, 107758, Control_c, 2, 10, 100
4, 107760, Note_on_c, 2, 66, 65
4, 107786, Note_on_c, 2, 66, 0
4, 107790, Note_on_c, 2, 69, 65
4, 107816, Note_on_c, 2, 69, 0
4, 107820, Note_on_c, 2, 66, 65
4, 107846, Note_on_c, 2, 66, 0
4, 107850, Note_on_c, 2, 62, 65
4, 107876, Note_on_c, 2, 62, 0
4, 108000, Note_on_c, 2, 62, 53
4, 108026, Note_on_c, 2, 62, 0
4, 108030, Note_on_c, 2, 66, 53
4, 108056, Note_on_c, 2, 66, 0
4, 108060, Note_on_c, 2, 62, 53
4, 108086, Note_on_c, 2, 62, 0
4, 108090, Note_on_c, 2, 57, 53
4, 108116, Note_on_c, 2, 57, 0
4, 108240, Note_on_c, 2, 57, 48
4, 108266, Note_on_c, 2, 57, 0
4, 108270, Note_on_c, 2, 62, 49
4, 108296, Note_on_c, 2, 62, 0
4, 108300, Note_on_c, 2, 57, 49
4, 108326, Note_on_c, 2, 57, 0
4, 108330, Note_on_c, 2, 54, 49
4, 108356, Note_on_c, 2, 54, 0
4, 108480, Note_on_c, 2, 54, 41
4, 108506, Note_on_c, 2, 54, 0
4, 108510, Note_on_c, 2, 57, 39
4, 108536, Note_on_c, 2, 57, 0
4, 108540, Note_on_c, 2, 54, 40
4, 108566, Note_on_c, 2, 54, 0
4, 108570, Note_on_c, 2, 50, 40
4, 108596, Note_on_c, 2, 50, 0
4, 109137, Program_c, 2, 19
4, 109137, Control_c, 2, 0, 0
4, 109137, Control_c, 2, 11, 120
4, 109137, Control_c, 2, 64, 0
4, 109137, Control_c, 2, 91, 50
4, 109137, Control_c, 2, 93, 20
4, 109137, Control_c, 2, 7, 100
4, 109138, Control_c, 2, 10, 100
4, 109140, Note_on_c, 2, 66, 77
4, 109166, Note_on_c, 2, 66, 0
4, 109170, Note_on_c, 2, 64, 77
4, 109196, Note_on_c, 2, 64, 0
4, 109200, Note_on_c, 2, 66, 77
4, 109226, Note_on_c, 2, 66, 0
4, 109230, Note_on_c, 2, 64, 77
4, 109256, Note_on_c, 2, 64, 0
4, 109260, Note_on_c, 2, 66, 76
4, 109286, Note_on_c, 2, 66, 0
4, 109290, Note_on_c, 2, 64, 76
4, 109316, Note_on_c, 2, 64, 0
4, 109320, Note_on_c, 2, 66, 76
4, 109372, Note_on_c, 2, 66, 0
4, 109500, Note_on_c, 2, 59, 57
4, 109500, Note_on_c, 2, 62, 57
4, 109552, Note_on_c, 2, 62, 0
4, 109552, Note_on_c, 2, 59, 0
4, 109560, Note_on_c, 2, 59, 58
4, 109560, Note_on_c, 2, 64, 58
4, 109665, Note_on_c, 2, 64, 0
4, 109665, Note_on_c, 2, 59, 0
4, 109740, Note_on_c, 2, 57, 58
4, 109740, Note_on_c, 2, 61, 58
4, 109792, Note_on_c, 2, 61, 0
4, 109792, Note_on_c, 2, 57, 0
4, 109800, Note_on_c, 2, 57, 57
4, 109800, Note_on_c, 2, 62, 57
4, 109905, Note_on_c, 2, 62, 0
4, 109905, Note_on_c, 2, 57, 0
4, 109980, Note_on_c, 2, 55, 58
4, 109980, Note_on_c, 2, 59, 58
4, 110032, Note_on_c, 2, 59, 0
4, 110032, Note_on_c, 2, 55, 0
4, 110040, Note_on_c, 2, 55, 58
4, 110040, Note_on_c, 2, 61, 58
4, 110145, Note_on_c, 2, 61, 0
4, 110145, Note_on_c, 2, 55, 0
4, 110220, Note_on_c, 2, 54, 57
4, 110220, Note_on_c, 2, 57, 57
4, 110272, Note_on_c, 2, 57, 0
4, 110272, Note_on_c, 2, 54, 0
4, 110280, Note_on_c, 2, 54, 57
4, 110280, Note_on_c, 2, 59, 57
4, 110385, Note_on_c, 2, 59, 0
4, 110385, Note_on_c, 2, 54, 0
4, 110460, Note_on_c, 2, 52, 57
4, 110460, Note_on_c, 2, 55, 57
4, 110512, Note_on_c, 2, 55, 0
4, 110512, Note_on_c, 2, 52, 0
4, 110520, Note_on_c, 2, 52, 57
4, 110520, Note_on_c, 2, 57, 57
4, 110625, Note_on_c, 2, 57, 0
4, 110625, Note_on_c, 2, 52, 0
4, 110640, Note_on_c, 2, 54, 57
4, 110640, Note_on_c, 2, 57, 57
4, 110745, Note_on_c, 2, 57, 0
4, 110745, Note_on_c, 2, 54, 0
4, 110760, Note_on_c, 2, 52, 57
4, 110760, Note_on_c, 2, 55, 57
4, 110865, Note_on_c, 2, 55, 0
4, 110865, Note_on_c, 2, 52, 0
4, 110880, Note_on_c, 2, 52, 64
4, 110985, Note_on_c, 2, 52, 0
4, 111030, Note_on_c, 2, 54, 82
4, 111056, Note_on_c, 2, 54, 0
4, 111060, Note_on_c, 2, 55, 83
4, 111086, Note_on_c, 2, 55, 0
4, 111090, Note_on_c, 2, 57, 85
4, 111116, Note_on_c, 2, 57, 0
4, 111120, Note_on_c, 2, 59, 86
4, 111146, Note_on_c, 2, 59, 0
4, 111150, Note_on_c, 2, 57, 86
4, 111176, Note_on_c, 2, 57, 0
4, 111180, Note_on_c, 2, 59, 86
4, 111206, Note_on_c, 2, 59, 0
4, 111210, Note_on_c, 2, 54, 87
4, 111236, Note_on_c, 2, 54, 0
4, 111240, Note_on_c, 2, 55, 88
4, 111266, Note_on_c, 2, 55, 0
4, 111270, Note_on_c, 2, 54, 88
4, 111296, Note_on_c, 2, 54, 0
4, 111300, Note_on_c, 2, 55, 88
4, 111326, Note_on_c, 2, 55, 0
4, 111330, Note_on_c, 2, 52, 88
4, 111356, Note_on_c, 2, 52, 0
4, 111360, Note_on_c, 2, 57, 87
4, 111386, Note_on_c, 2, 57, 0
4, 111390, Note_on_c, 2, 55, 87
4, 111416, Note_on_c, 2, 55, 0
4, 111420, Note_on_c, 2, 57, 87
4, 111446, Note_on_c, 2, 57, 0
4, 111450, Note_on_c, 2, 52, 88
4, 111476, Note_on_c, 2, 52, 0
4, 111480, Note_on_c, 2, 54, 89
4, 111506, Note_on_c, 2, 54, 0
4, 111510, Note_on_c, 2, 52, 89
4, 111536, Note_on_c, 2, 52, 0
4, 111540, Note_on_c, 2, 54, 89
4, 111566, Note_on_c, 2, 54, 0
4, 111570, Note_on_c, 2, 50, 89
4, 111596, Note_on_c, 2, 50, 0
4, 111600, Note_on_c, 2, 55, 88
4, 111626, Note_on_c, 2, 55, 0
4, 111630, Note_on_c, 2, 54, 88
4, 111656, Note_on_c, 2, 54, 0
4, 111660, Note_on_c, 2, 55, 88
4, 111686, Note_on_c, 2, 55, 0
4, 111690, Note_on_c, 2, 50, 89
4, 111716, Note_on_c, 2, 50, 0
4, 111720, Note_on_c, 2, 52, 89
4, 111746, Note_on_c, 2, 52, 0
4, 111750, Note_on_c, 2, 50, 89
4, 111776, Note_on_c, 2, 50, 0
4, 111780, Note_on_c, 2, 52, 88
4, 111806, Note_on_c, 2, 52, 0
4, 111810, Note_on_c, 2, 49, 88
4, 111836, Note_on_c, 2, 49, 0
4, 111840, Note_on_c, 2, 54, 88
4, 111866, Note_on_c, 2, 54, 0
4, 111870, Note_on_c, 2, 52, 88
4, 111896, Note_on_c, 2, 52, 0
4, 111900, Note_on_c, 2, 54, 88
4, 111926, Note_on_c, 2, 54, 0
4, 111930, Note_on_c, 2, 49, 87
4, 111956, Note_on_c, 2, 49, 0
4, 111960, Note_on_c, 2, 50, 87
4, 111986, Note_on_c, 2, 50, 0
4, 111990, Note_on_c, 2, 49, 87
4, 112016, Note_on_c, 2, 49, 0
4, 112020, Note_on_c, 2, 50, 87
4, 112046, Note_on_c, 2, 50, 0
4, 112050, Note_on_c, 2, 47, 88
4, 112076, Note_on_c, 2, 47, 0
4, 112080, Note_on_c, 2, 52, 88
4, 112106, Note_on_c, 2, 52, 0
4, 112110, Note_on_c, 2, 50, 88
4, 112136, Note_on_c, 2, 50, 0
4, 112140, Note_on_c, 2, 52, 86
4, 112166, Note_on_c, 2, 52, 0
4, 112170, Note_on_c, 2, 47, 85
4, 112196, Note_on_c, 2, 47, 0
4, 112200, Note_on_c, 2, 49, 85
4, 112226, Note_on_c, 2, 49, 0
4, 112230, Note_on_c, 2, 47, 85
4, 112256, Note_on_c, 2, 47, 0
4, 112260, Note_on_c, 2, 49, 85
4, 112286, Note_on_c, 2, 49, 0
4, 112290, Note_on_c, 2, 45, 85
4, 112316, Note_on_c, 2, 45, 0
4, 112320, Note_on_c, 2, 50, 84
4, 112425, Note_on_c, 2, 50, 0
4, 116520, Note_on_c, 2, 66, 83
4, 116546, Note_on_c, 2, 66, 0
4, 116550, Note_on_c, 2, 67, 83
4, 116576, Note_on_c, 2, 67, 0
4, 116580, Note_on_c, 2, 69, 83
4, 116606, Note_on_c, 2, 69, 0
4, 116610, Note_on_c, 2, 67, 83
4, 116636, Note_on_c, 2, 67, 0
4, 116640, Note_on_c, 2, 66, 83
4, 116666, Note_on_c, 2, 66, 0
4, 116670, Note_on_c, 2, 67, 83
4, 116696, Note_on_c, 2, 67, 0
4, 116700, Note_on_c, 2, 69, 83
4, 116726, Note_on_c, 2, 69, 0
4, 116730, Note_on_c, 2, 67, 83
4, 116756, Note_on_c, 2, 67, 0
4, 116760, Note_on_c, 2, 66, 74
4, 116865, Note_on_c, 2, 66, 0
4, 117000, Note_on_c, 2, 66, 83
4, 117026, Note_on_c, 2, 66, 0
4, 117030, Note_on_c, 2, 64, 83
4, 117056, Note_on_c, 2, 64, 0
4, 117060, Note_on_c, 2, 66, 83
4, 117086, Note_on_c, 2, 66, 0
4, 117090, Note_on_c, 2, 64, 83
4, 117116, Note_on_c, 2, 64, 0
4, 117120, Note_on_c, 2, 66, 83
4, 117146, Note_on_c, 2, 66, 0
4, 117150, Note_on_c, 2, 64, 83
4, 117176, Note_on_c, 2, 64, 0
4, 117180, Note_on_c, 2, 66, 83
4, 117206, Note_on_c, 2, 66, 0
4, 117210, Note_on_c, 2, 64, 83
4, 117236, Note_on_c, 2, 64, 0
4, 117240, Note_on_c, 2, 66, 75
4, 117292, Note_on_c, 2, 66, 0
4, 117360, Note_on_c, 2, 66, 83
4, 117386, Note_on_c, 2, 66, 0
4, 117390, Note_on_c, 2, 67, 83
4, 117416, Note_on_c, 2, 67, 0
4, 117420, Note_on_c, 2, 69, 83
4, 117446, Note_on_c, 2, 69, 0
4, 117450, Note_on_c, 2, 67, 83
4, 117476, Note_on_c, 2, 67, 0
4, 117480, Note_on_c, 2, 66, 83
4, 117532, Note_on_c, 2, 66, 0
4, 117532, End_track
5, 0, Start_track
5, 0, MIDI_port, 0
5, 0, Title_t, "Sequenced for"
5, 0, Program_c, 3, 19
5, 0, Control_c, 3, 7, 80
5, 0, Control_c, 3, 10, 30
5, 30, Program_c, 3, 19
5, 30, Control_c, 3, 0, 0
5, 30, Control_c, 3, 11, 110
5, 30, Control_c, 3, 64, 0
5, 30, Control_c, 3, 91, 20
5, 30, Control_c, 3, 93, 40
5, 510, Note_on_c, 3, 62, 64
5, 536, Note_on_c, 3, 62, 0
5, 540, Note_on_c, 3, 66, 62
5, 592, Note_on_c, 3, 66, 0
5, 600, Note_on_c, 3, 66, 69
5, 720, Note_on_c, 3, 66, 0
5, 1470, Note_on_c, 3, 50, 64
5, 1496, Note_on_c, 3, 50, 0
5, 1500, Note_on_c, 3, 54, 63
5, 1552, Note_on_c, 3, 54, 0
5, 1560, Note_on_c, 3, 54, 69
5, 1680, Note_on_c, 3, 54, 0
5, 1950, Note_on_c, 3, 62, 64
5, 1976, Note_on_c, 3, 62, 0
5, 1980, Note_on_c, 3, 66, 65
5, 2032, Note_on_c, 3, 66, 0
5, 2040, Note_on_c, 3, 66, 68
5, 2145, Note_on_c, 3, 66, 0
5, 2820, Note_on_c, 3, 62, 77
5, 2846, Note_on_c, 3, 62, 0
5, 2850, Note_on_c, 3, 59, 70
5, 2876, Note_on_c, 3, 59, 0
5, 2880, Note_on_c, 3, 61, 73
5, 2906, Note_on_c, 3, 61, 0
5, 2910, Note_on_c, 3, 59, 71
5, 2936, Note_on_c, 3, 59, 0
5, 2940, Note_on_c, 3, 57, 68
5, 2966, Note_on_c, 3, 57, 0
5, 2970, Note_on_c, 3, 56, 67
5, 2996, Note_on_c, 3, 56, 0
5, 3000, Note_on_c, 3, 57, 66
5, 3026, Note_on_c, 3, 57, 0
5, 3030, Note_on_c, 3, 52, 65
5, 3056, Note_on_c, 3, 52, 0
5, 3060, Note_on_c, 3, 54, 67
5, 3086, Note_on_c, 3, 54, 0
5, 3090, Note_on_c, 3, 56, 69
5, 3116, Note_on_c, 3, 56, 0
5, 3120, Note_on_c, 3, 57, 69
5, 3146, Note_on_c, 3, 57, 0
5, 3150, Note_on_c, 3, 50, 73
5, 3176, Note_on_c, 3, 50, 0
5, 3180, Note_on_c, 3, 49, 69
5, 3206, Note_on_c, 3, 49, 0
5, 3210, Note_on_c, 3, 47, 69
5, 3236, Note_on_c, 3, 47, 0
5, 3240, Note_on_c, 3, 49, 65
5, 3266, Note_on_c, 3, 49, 0
5, 3270, Note_on_c, 3, 52, 65
5, 3296, Note_on_c, 3, 52, 0
5, 3300, Note_on_c, 3, 54, 68
5, 3326, Note_on_c, 3, 54, 0
5, 3330, Note_on_c, 3, 56, 70
5, 3356, Note_on_c, 3, 56, 0
5, 3360, Note_on_c, 3, 57, 73
5, 3386, Note_on_c, 3, 57, 0
5, 3390, Note_on_c, 3, 49, 76
5, 3416, Note_on_c, 3, 49, 0
5, 3420, Note_on_c, 3, 50, 69
5, 3446, Note_on_c, 3, 50, 0
5, 3450, Note_on_c, 3, 47, 68
5, 3476, Note_on_c, 3, 47, 0
5, 3480, Note_on_c, 3, 49, 67
5, 3506, Note_on_c, 3, 49, 0
5, 3510, Note_on_c, 3, 52, 69
5, 3536, Note_on_c, 3, 52, 0
5, 3540, Note_on_c, 3, 54, 69
5, 3566, Note_on_c, 3, 54, 0
5, 3570, Note_on_c, 3, 56, 70
5, 3596, Note_on_c, 3, 56, 0
5, 3600, Note_on_c, 3, 57, 74
5, 3626, Note_on_c, 3, 57, 0
5, 3630, Note_on_c, 3, 62, 81
5, 3656, Note_on_c, 3, 62, 0
5, 3660, Note_on_c, 3, 61, 76
5, 3686, Note_on_c, 3, 61, 0
5, 3690, Note_on_c, 3, 59, 74
5, 3716, Note_on_c, 3, 59, 0
5, 3720, Note_on_c, 3, 61, 70
5, 3772, Note_on_c, 3, 61, 0
5, 3960, Note_on_c, 3, 57, 77
5, 4200, Note_on_c, 3, 57, 0
5, 5730, Note_on_c, 3, 62, 84
5, 5756, Note_on_c, 3, 62, 0
5, 5760, Note_on_c, 3, 59, 75
5, 5838, Note_on_c, 3, 59, 0
5, 5850, Note_on_c, 3, 62, 83
5, 5876, Note_on_c, 3, 62, 0
5, 5880, Note_on_c, 3, 56, 76
5, 5958, Note_on_c, 3, 56, 0
5, 5970, Note_on_c, 3, 62, 89
5, 5996, Note_on_c, 3, 62, 0
5, 6000, Note_on_c, 3, 59, 77
5, 6078, Note_on_c, 3, 59, 0
5, 6090, Note_on_c, 3, 62, 89
5, 6116, Note_on_c, 3, 62, 0
5, 6120, Note_on_c, 3, 53, 102
5, 6133, Note_on_c, 3, 53, 0
5, 6135, Note_on_c, 3, 49, 98
5, 6148, Note_on_c, 3, 49, 0
5, 6150, Note_on_c, 3, 53, 98
5, 6163, Note_on_c, 3, 53, 0
5, 6165, Note_on_c, 3, 49, 95
5, 6178, Note_on_c, 3, 49, 0
5, 6180, Note_on_c, 3, 53, 95
5, 6193, Note_on_c, 3, 53, 0
5, 6195, Note_on_c, 3, 49, 94
5, 6208, Note_on_c, 3, 49, 0
5, 6210, Note_on_c, 3, 53, 96
5, 6223, Note_on_c, 3, 53, 0
5, 6225, Note_on_c, 3, 49, 95
5, 6238, Note_on_c, 3, 49, 0
5, 6240, Note_on_c, 3, 53, 95
5, 6253, Note_on_c, 3, 53, 0
5, 6255, Note_on_c, 3, 49, 95
5, 6268, Note_on_c, 3, 49, 0
5, 6270, Note_on_c, 3, 53, 95
5, 6283, Note_on_c, 3, 53, 0
5, 6285, Note_on_c, 3, 49, 95
5, 6298, Note_on_c, 3, 49, 0
5, 6300, Note_on_c, 3, 53, 96
5, 6313, Note_on_c, 3, 53, 0
5, 6315, Note_on_c, 3, 49, 96
5, 6328, Note_on_c, 3, 49, 0
5, 6330, Note_on_c, 3, 53, 96
5, 6343, Note_on_c, 3, 53, 0
5, 6345, Note_on_c, 3, 49, 97
5, 6358, Note_on_c, 3, 49, 0
5, 6360, Note_on_c, 3, 54, 97
5, 6960, Note_on_c, 3, 54, 0
5, 7320, Note_on_c, 3, 57, 83
5, 7545, Note_on_c, 3, 57, 0
5, 7805, Program_c, 3, 6
5, 7805, Control_c, 3, 0, 0
5, 7805, Control_c, 3, 11, 110
5, 7805, Control_c, 3, 64, 0
5, 7805, Control_c, 3, 91, 40
5, 7805, Control_c, 3, 93, 10
5, 7805, Control_c, 3, 7, 100
5, 7805, Control_c, 3, 10, 90
5, 7810, Note_on_c, 3, 50, 72
5, 7915, Note_on_c, 3, 50, 0
5, 7930, Note_on_c, 3, 55, 64
5, 8222, Note_on_c, 3, 55, 0
5, 8230, Note_on_c, 3, 55, 64
5, 8282, Note_on_c, 3, 55, 0
5, 8290, Note_on_c, 3, 54, 64
5, 8395, Note_on_c, 3, 54, 0
5, 8410, Note_on_c, 3, 52, 64
5, 8515, Note_on_c, 3, 52, 0
5, 8530, Note_on_c, 3, 45, 64
5, 8635, Note_on_c, 3, 45, 0
5, 8650, Note_on_c, 3, 50, 64
5, 8755, Note_on_c, 3, 50, 0
5, 8770, Note_on_c, 3, 62, 64
5, 8995, Note_on_c, 3, 62, 0
5, 9010, Note_on_c, 3, 61, 64
5, 9115, Note_on_c, 3, 61, 0
5, 9130, Note_on_c, 3, 59, 64
5, 9355, Note_on_c, 3, 59, 0
5, 9370, Note_on_c, 3, 57, 64
5, 9475, Note_on_c, 3, 57, 0
5, 9490, Note_on_c, 3, 54, 64
5, 9595, Note_on_c, 3, 54, 0
5, 9610, Note_on_c, 3, 55, 64
5, 9835, Note_on_c, 3, 55, 0
5, 9850, Note_on_c, 3, 54, 64
5, 10075, Note_on_c, 3, 54, 0
5, 10090, Note_on_c, 3, 52, 64
5, 10315, Note_on_c, 3, 52, 0
5, 10330, Note_on_c, 3, 50, 64
5, 10435, Note_on_c, 3, 50, 0
5, 10450, Note_on_c, 3, 49, 64
5, 10555, Note_on_c, 3, 49, 0
5, 10570, Note_on_c, 3, 47, 64
5, 10675, Note_on_c, 3, 47, 0
5, 10690, Note_on_c, 3, 52, 64
5, 10795, Note_on_c, 3, 52, 0
5, 10810, Note_on_c, 3, 45, 64
5, 10915, Note_on_c, 3, 45, 0
5, 10990, Note_on_c, 3, 54, 64
5, 11042, Note_on_c, 3, 54, 0
5, 11050, Note_on_c, 3, 55, 64
5, 11102, Note_on_c, 3, 55, 0
5, 11110, Note_on_c, 3, 59, 64
5, 11162, Note_on_c, 3, 59, 0
5, 11170, Note_on_c, 3, 52, 64
5, 11222, Note_on_c, 3, 52, 0
5, 11230, Note_on_c, 3, 55, 64
5, 11282, Note_on_c, 3, 55, 0
5, 11290, Note_on_c, 3, 54, 64
5, 11342, Note_on_c, 3, 54, 0
5, 11350, Note_on_c, 3, 57, 64
5, 11402, Note_on_c, 3, 57, 0
5, 11410, Note_on_c, 3, 50, 64
5, 11462, Note_on_c, 3, 50, 0
5, 11470, Note_on_c, 3, 54, 64
5, 11522, Note_on_c, 3, 54, 0
5, 11530, Note_on_c, 3, 52, 64
5, 11582, Note_on_c, 3, 52, 0
5, 11590, Note_on_c, 3, 55, 64
5, 11642, Note_on_c, 3, 55, 0
5, 11650, Note_on_c, 3, 49, 64
5, 11702, Note_on_c, 3, 49, 0
5, 11710, Note_on_c, 3, 52, 64
5, 11762, Note_on_c, 3, 52, 0
5, 11770, Note_on_c, 3, 50, 64
5, 11822, Note_on_c, 3, 50, 0
5, 11830, Note_on_c, 3, 47, 64
5, 11882, Note_on_c, 3, 47, 0
5, 11890, Note_on_c, 3, 59, 64
5, 12115, Note_on_c, 3, 59, 0
5, 12130, Note_on_c, 3, 58, 64
5, 12235, Note_on_c, 3, 58, 0
5, 12250, Note_on_c, 3, 59, 64
5, 12355, Note_on_c, 3, 59, 0
5, 12430, Note_on_c, 3, 57, 64
5, 12482, Note_on_c, 3, 57, 0
5, 12490, Note_on_c, 3, 59, 64
5, 12542, Note_on_c, 3, 59, 0
5, 12550, Note_on_c, 3, 61, 64
5, 12602, Note_on_c, 3, 61, 0
5, 12610, Note_on_c, 3, 56, 64
5, 12662, Note_on_c, 3, 56, 0
5, 12670, Note_on_c, 3, 59, 64
5, 12722, Note_on_c, 3, 59, 0
5, 12730, Note_on_c, 3, 57, 64
5, 12782, Note_on_c, 3, 57, 0
5, 12790, Note_on_c, 3, 61, 64
5, 12842, Note_on_c, 3, 61, 0
5, 12850, Note_on_c, 3, 54, 64
5, 12902, Note_on_c, 3, 54, 0
5, 12910, Note_on_c, 3, 57, 64
5, 12962, Note_on_c, 3, 57, 0
5, 12970, Note_on_c, 3, 55, 64
5, 13022, Note_on_c, 3, 55, 0
5, 13030, Note_on_c, 3, 59, 64
5, 13082, Note_on_c, 3, 59, 0
5, 13090, Note_on_c, 3, 52, 64
5, 13142, Note_on_c, 3, 52, 0
5, 13150, Note_on_c, 3, 55, 64
5, 13202, Note_on_c, 3, 55, 0
5, 13210, Note_on_c, 3, 54, 64
5, 13262, Note_on_c, 3, 54, 0
5, 13270, Note_on_c, 3, 57, 64
5, 13322, Note_on_c, 3, 57, 0
5, 13330, Note_on_c, 3, 50, 64
5, 13382, Note_on_c, 3, 50, 0
5, 13390, Note_on_c, 3, 54, 64
5, 13442, Note_on_c, 3, 54, 0
5, 13450, Note_on_c, 3, 52, 64
5, 13502, Note_on_c, 3, 52, 0
5, 13510, Note_on_c, 3, 55, 64
5, 13562, Note_on_c, 3, 55, 0
5, 13570, Note_on_c, 3, 49, 64
5, 13622, Note_on_c, 3, 49, 0
5, 13630, Note_on_c, 3, 52, 64
5, 13682, Note_on_c, 3, 52, 0
5, 13690, Note_on_c, 3, 50, 64
5, 13742, Note_on_c, 3, 50, 0
5, 13750, Note_on_c, 3, 54, 64
5, 13802, Note_on_c, 3, 54, 0
5, 13810, Note_on_c, 3, 47, 64
5, 13862, Note_on_c, 3, 47, 0
5, 13870, Note_on_c, 3, 50, 64
5, 13922, Note_on_c, 3, 50, 0
5, 13930, Note_on_c, 3, 49, 64
5, 13982, Note_on_c, 3, 49, 0
5, 13990, Note_on_c, 3, 52, 64
5, 14042, Note_on_c, 3, 52, 0
5, 14050, Note_on_c, 3, 45, 64
5, 14102, Note_on_c, 3, 45, 0
5, 14110, Note_on_c, 3, 49, 64
5, 14162, Note_on_c, 3, 49, 0
5, 14170, Note_on_c, 3, 47, 64
5, 14222, Note_on_c, 3, 47, 0
5, 14230, Note_on_c, 3, 50, 64
5, 14282, Note_on_c, 3, 50, 0
5, 14290, Note_on_c, 3, 49, 64
5, 14342, Note_on_c, 3, 49, 0
5, 14350, Note_on_c, 3, 52, 64
5, 14402, Note_on_c, 3, 52, 0
5, 14410, Note_on_c, 3, 50, 64
5, 14462, Note_on_c, 3, 50, 0
5, 14470, Note_on_c, 3, 52, 64
5, 14522, Note_on_c, 3, 52, 0
5, 14530, Note_on_c, 3, 54, 64
5, 14582, Note_on_c, 3, 54, 0
5, 14590, Note_on_c, 3, 50, 64
5, 14642, Note_on_c, 3, 50, 0
5, 14650, Note_on_c, 3, 55, 64
5, 14702, Note_on_c, 3, 55, 0
5, 14710, Note_on_c, 3, 52, 64
5, 14762, Note_on_c, 3, 52, 0
5, 14770, Note_on_c, 3, 57, 64
5, 14822, Note_on_c, 3, 57, 0
5, 14830, Note_on_c, 3, 45, 64
5, 14882, Note_on_c, 3, 45, 0
5, 14890, Note_on_c, 3, 50, 64
5, 14942, Note_on_c, 3, 50, 0
5, 14950, Note_on_c, 3, 38, 64
5, 15002, Note_on_c, 3, 38, 0
5, 18370, Note_on_c, 3, 42, 64
5, 18475, Note_on_c, 3, 42, 0
5, 18490, Note_on_c, 3, 47, 64
5, 18595, Note_on_c, 3, 47, 0
5, 18610, Note_on_c, 3, 49, 64
5, 18715, Note_on_c, 3, 49, 0
5, 18730, Note_on_c, 3, 50, 64
5, 18835, Note_on_c, 3, 50, 0
5, 19330, Note_on_c, 3, 49, 64
5, 19435, Note_on_c, 3, 49, 0
5, 19450, Note_on_c, 3, 54, 64
5, 19555, Note_on_c, 3, 54, 0
5, 19570, Note_on_c, 3, 56, 64
5, 19675, Note_on_c, 3, 56, 0
5, 19690, Note_on_c, 3, 57, 64
5, 19795, Note_on_c, 3, 57, 0
5, 20290, Note_on_c, 3, 49, 64
5, 20395, Note_on_c, 3, 49, 0
5, 20410, Note_on_c, 3, 54, 64
5, 20515, Note_on_c, 3, 54, 0
5, 20530, Note_on_c, 3, 56, 64
5, 20635, Note_on_c, 3, 56, 0
5, 20650, Note_on_c, 3, 57, 64
5, 20755, Note_on_c, 3, 57, 0
5, 20770, Note_on_c, 3, 59, 64
5, 20875, Note_on_c, 3, 59, 0
5, 20890, Note_on_c, 3, 57, 64
5, 20995, Note_on_c, 3, 57, 0
5, 21010, Note_on_c, 3, 59, 64
5, 21115, Note_on_c, 3, 59, 0
5, 21130, Note_on_c, 3, 61, 64
5, 21235, Note_on_c, 3, 61, 0
5, 21310, Note_on_c, 3, 53, 64
5, 21362, Note_on_c, 3, 53, 0
5, 21370, Note_on_c, 3, 54, 64
5, 21422, Note_on_c, 3, 54, 0
5, 21430, Note_on_c, 3, 57, 64
5, 21482, Note_on_c, 3, 57, 0
5, 21490, Note_on_c, 3, 53, 64
5, 21542, Note_on_c, 3, 53, 0
5, 21550, Note_on_c, 3, 56, 64
5, 21602, Note_on_c, 3, 56, 0
5, 21610, Note_on_c, 3, 54, 64
5, 21662, Note_on_c, 3, 54, 0
5, 21670, Note_on_c, 3, 57, 64
5, 21722, Note_on_c, 3, 57, 0
5, 21730, Note_on_c, 3, 53, 64
5, 21782, Note_on_c, 3, 53, 0
5, 21790, Note_on_c, 3, 56, 64
5, 21842, Note_on_c, 3, 56, 0
5, 21850, Note_on_c, 3, 54, 64
5, 21902, Note_on_c, 3, 54, 0
5, 21910, Note_on_c, 3, 57, 64
5, 21962, Note_on_c, 3, 57, 0
5, 21970, Note_on_c, 3, 52, 64
5, 22022, Note_on_c, 3, 52, 0
5, 22030, Note_on_c, 3, 56, 64
5, 22082, Note_on_c, 3, 56, 0
5, 22090, Note_on_c, 3, 50, 64
5, 22142, Note_on_c, 3, 50, 0
5, 22150, Note_on_c, 3, 54, 64
5, 22202, Note_on_c, 3, 54, 0
5, 22210, Note_on_c, 3, 49, 64
5, 22262, Note_on_c, 3, 49, 0
5, 22270, Note_on_c, 3, 54, 64
5, 22322, Note_on_c, 3, 54, 0
5, 22330, Note_on_c, 3, 47, 64
5, 22382, Note_on_c, 3, 47, 0
5, 22390, Note_on_c, 3, 54, 64
5, 22442, Note_on_c, 3, 54, 0
5, 22450, Note_on_c, 3, 49, 64
5, 22502, Note_on_c, 3, 49, 0
5, 22510, Note_on_c, 3, 53, 64
5, 22562, Note_on_c, 3, 53, 0
5, 22570, Note_on_c, 3, 42, 64
5, 22675, Note_on_c, 3, 42, 0
5, 25090, Note_on_c, 3, 45, 64
5, 25195, Note_on_c, 3, 45, 0
5, 25210, Note_on_c, 3, 50, 64
5, 25315, Note_on_c, 3, 50, 0
5, 25330, Note_on_c, 3, 49, 64
5, 25435, Note_on_c, 3, 49, 0
5, 25450, Note_on_c, 3, 50, 64
5, 25555, Note_on_c, 3, 50, 0
5, 26050, Note_on_c, 3, 50, 64
5, 26155, Note_on_c, 3, 50, 0
5, 26170, Note_on_c, 3, 55, 64
5, 26275, Note_on_c, 3, 55, 0
5, 26290, Note_on_c, 3, 54, 64
5, 26395, Note_on_c, 3, 54, 0
5, 26410, Note_on_c, 3, 55, 64
5, 26515, Note_on_c, 3, 55, 0
5, 27010, Note_on_c, 3, 52, 64
5, 27115, Note_on_c, 3, 52, 0
5, 27130, Note_on_c, 3, 57, 64
5, 27235, Note_on_c, 3, 57, 0
5, 27250, Note_on_c, 3, 56, 64
5, 27355, Note_on_c, 3, 56, 0
5, 27370, Note_on_c, 3, 57, 64
5, 27475, Note_on_c, 3, 57, 0
5, 27970, Note_on_c, 3, 57, 64
5, 28075, Note_on_c, 3, 57, 0
5, 28090, Note_on_c, 3, 62, 64
5, 28195, Note_on_c, 3, 62, 0
5, 28210, Note_on_c, 3, 61, 64
5, 28315, Note_on_c, 3, 61, 0
5, 28330, Note_on_c, 3, 62, 64
5, 28435, Note_on_c, 3, 62, 0
5, 30670, Note_on_c, 3, 49, 64
5, 30722, Note_on_c, 3, 49, 0
5, 30730, Note_on_c, 3, 50, 64
5, 30782, Note_on_c, 3, 50, 0
5, 30790, Note_on_c, 3, 47, 64
5, 30842, Note_on_c, 3, 47, 0
5, 30850, Note_on_c, 3, 52, 64
5, 30902, Note_on_c, 3, 52, 0
5, 30910, Note_on_c, 3, 40, 64
5, 30962, Note_on_c, 3, 40, 0
5, 30970, Note_on_c, 3, 45, 64
5, 31075, Note_on_c, 3, 45, 0
5, 31090, Note_on_c, 3, 57, 64
5, 31315, Note_on_c, 3, 57, 0
5, 31330, Note_on_c, 3, 55, 64
5, 31555, Note_on_c, 3, 55, 0
5, 31570, Note_on_c, 3, 54, 64
5, 31795, Note_on_c, 3, 54, 0
5, 31810, Note_on_c, 3, 52, 64
5, 32035, Note_on_c, 3, 52, 0
5, 32050, Note_on_c, 3, 50, 64
5, 32275, Note_on_c, 3, 50, 0
5, 32290, Note_on_c, 3, 49, 64
5, 32395, Note_on_c, 3, 49, 0
5, 32410, Note_on_c, 3, 50, 64
5, 32515, Note_on_c, 3, 50, 0
5, 32530, Note_on_c, 3, 47, 64
5, 32635, Note_on_c, 3, 47, 0
5, 32650, Note_on_c, 3, 43, 64
5, 32755, Note_on_c, 3, 43, 0
5, 32770, Note_on_c, 3, 45, 64
5, 32875, Note_on_c, 3, 45, 0
5, 32890, Note_on_c, 3, 38, 64
5, 32995, Note_on_c, 3, 38, 0
5, 33070, Note_on_c, 3, 54, 64
5, 33122, Note_on_c, 3, 54, 0
5, 33130, Note_on_c, 3, 55, 64
5, 33182, Note_on_c, 3, 55, 0
5, 33190, Note_on_c, 3, 59, 64
5, 33242, Note_on_c, 3, 59, 0
5, 33250, Note_on_c, 3, 52, 64
5, 33302, Note_on_c, 3, 52, 0
5, 33310, Note_on_c, 3, 55, 64
5, 33362, Note_on_c, 3, 55, 0
5, 33370, Note_on_c, 3, 54, 64
5, 33422, Note_on_c, 3, 54, 0
5, 33430, Note_on_c, 3, 50, 64
5, 33482, Note_on_c, 3, 50, 0
5, 33490, Note_on_c, 3, 55, 64
5, 33542, Note_on_c, 3, 55, 0
5, 33550, Note_on_c, 3, 47, 64
5, 33602, Note_on_c, 3, 47, 0
5, 33610, Note_on_c, 3, 48, 64
5, 33662, Note_on_c, 3, 48, 0
5, 33670, Note_on_c, 3, 45, 64
5, 33722, Note_on_c, 3, 45, 0
5, 33730, Note_on_c, 3, 50, 64
5, 33782, Note_on_c, 3, 50, 0
5, 33790, Note_on_c, 3, 38, 64
5, 33842, Note_on_c, 3, 38, 0
5, 33850, Note_on_c, 3, 43, 64
5, 33955, Note_on_c, 3, 43, 0
5, 34510, Note_on_c, 3, 43, 64
5, 34562, Note_on_c, 3, 43, 0
5, 34570, Note_on_c, 3, 48, 64
5, 34675, Note_on_c, 3, 48, 0
5, 34690, Note_on_c, 3, 47, 64
5, 34795, Note_on_c, 3, 47, 0
5, 34810, Note_on_c, 3, 48, 64
5, 34915, Note_on_c, 3, 48, 0
5, 35470, Note_on_c, 3, 45, 64
5, 35522, Note_on_c, 3, 45, 0
5, 35530, Note_on_c, 3, 50, 64
5, 35635, Note_on_c, 3, 50, 0
5, 35650, Note_on_c, 3, 49, 64
5, 35755, Note_on_c, 3, 49, 0
5, 35770, Note_on_c, 3, 50, 64
5, 35875, Note_on_c, 3, 50, 0
5, 36430, Note_on_c, 3, 50, 64
5, 36482, Note_on_c, 3, 50, 0
5, 36490, Note_on_c, 3, 55, 64
5, 36595, Note_on_c, 3, 55, 0
5, 36610, Note_on_c, 3, 54, 64
5, 36715, Note_on_c, 3, 54, 0
5, 36730, Note_on_c, 3, 55, 64
5, 36835, Note_on_c, 3, 55, 0
5, 37390, Note_on_c, 3, 55, 64
5, 37442, Note_on_c, 3, 55, 0
5, 37450, Note_on_c, 3, 60, 64
5, 37555, Note_on_c, 3, 60, 0
5, 37570, Note_on_c, 3, 59, 64
5, 37675, Note_on_c, 3, 59, 0
5, 37690, Note_on_c, 3, 60, 64
5, 37795, Note_on_c, 3, 60, 0
5, 37870, Note_on_c, 3, 59, 64
5, 37922, Note_on_c, 3, 59, 0
5, 37930, Note_on_c, 3, 57, 64
5, 38155, Note_on_c, 3, 57, 0
5, 38170, Note_on_c, 3, 59, 64
5, 38275, Note_on_c, 3, 59, 0
5, 38830, Note_on_c, 3, 59, 64
5, 38882, Note_on_c, 3, 59, 0
5, 38890, Note_on_c, 3, 60, 64
5, 38942, Note_on_c, 3, 60, 0
5, 38950, Note_on_c, 3, 62, 64
5, 39002, Note_on_c, 3, 62, 0
5, 39010, Note_on_c, 3, 59, 64
5, 39062, Note_on_c, 3, 59, 0
5, 39070, Note_on_c, 3, 62, 64
5, 39122, Note_on_c, 3, 62, 0
5, 39130, Note_on_c, 3, 57, 64
5, 39182, Note_on_c, 3, 57, 0
5, 39190, Note_on_c, 3, 60, 64
5, 39242, Note_on_c, 3, 60, 0
5, 39250, Note_on_c, 3, 55, 64
5, 39302, Note_on_c, 3, 55, 0
5, 39310, Note_on_c, 3, 59, 64
5, 39362, Note_on_c, 3, 59, 0
5, 39370, Note_on_c, 3, 57, 64
5, 39422, Note_on_c, 3, 57, 0
5, 39430, Note_on_c, 3, 60, 64
5, 39482, Note_on_c, 3, 60, 0
5, 39490, Note_on_c, 3, 47, 64
5, 39542, Note_on_c, 3, 47, 0
5, 39550, Note_on_c, 3, 59, 64
5, 39602, Note_on_c, 3, 59, 0
5, 39610, Note_on_c, 3, 52, 64
5, 39715, Note_on_c, 3, 52, 0
5, 39790, Note_on_c, 3, 56, 64
5, 39842, Note_on_c, 3, 56, 0
5, 39850, Note_on_c, 3, 57, 64
5, 39955, Note_on_c, 3, 57, 0
5, 39970, Note_on_c, 3, 56, 64
5, 40075, Note_on_c, 3, 56, 0
5, 40090, Note_on_c, 3, 57, 64
5, 40195, Note_on_c, 3, 57, 0
5, 40450, Note_on_c, 3, 52, 64
5, 40555, Note_on_c, 3, 52, 0
5, 40570, Note_on_c, 3, 45, 64
5, 40675, Note_on_c, 3, 45, 0
5, 40750, Note_on_c, 3, 54, 64
5, 40802, Note_on_c, 3, 54, 0
5, 40810, Note_on_c, 3, 55, 64
5, 41035, Note_on_c, 3, 55, 0
5, 41050, Note_on_c, 3, 54, 64
5, 41275, Note_on_c, 3, 54, 0
5, 41290, Note_on_c, 3, 52, 64
5, 41515, Note_on_c, 3, 52, 0
5, 41530, Note_on_c, 3, 50, 64
5, 41635, Note_on_c, 3, 50, 0
5, 41650, Note_on_c, 3, 54, 64
5, 41755, Note_on_c, 3, 54, 0
5, 41770, Note_on_c, 3, 55, 64
5, 41875, Note_on_c, 3, 55, 0
5, 41890, Note_on_c, 3, 57, 64
5, 41995, Note_on_c, 3, 57, 0
5, 42010, Note_on_c, 3, 59, 64
5, 42115, Note_on_c, 3, 59, 0
5, 42130, Note_on_c, 3, 55, 64
5, 42235, Note_on_c, 3, 55, 0
5, 42250, Note_on_c, 3, 57, 64
5, 42355, Note_on_c, 3, 57, 0
5, 42370, Note_on_c, 3, 45, 64
5, 42475, Note_on_c, 3, 45, 0
5, 42490, Note_on_c, 3, 50, 64
5, 42595, Note_on_c, 3, 50, 0
5, 42610, Note_on_c, 3, 50, 64
5, 42835, Note_on_c, 3, 50, 0
5, 42850, Note_on_c, 3, 49, 64
5, 43075, Note_on_c, 3, 49, 0
5, 43090, Note_on_c, 3, 47, 64
5, 43315, Note_on_c, 3, 47, 0
5, 43330, Note_on_c, 3, 45, 64
5, 43555, Note_on_c, 3, 45, 0
5, 43570, Note_on_c, 3, 43, 64
5, 43795, Note_on_c, 3, 43, 0
5, 43810, Note_on_c, 3, 42, 64
5, 44035, Note_on_c, 3, 42, 0
5, 44050, Note_on_c, 3, 40, 64
5, 44155, Note_on_c, 3, 40, 0
5, 44170, Note_on_c, 3, 42, 64
5, 44395, Note_on_c, 3, 42, 0
5, 44410, Note_on_c, 3, 43, 64
5, 44515, Note_on_c, 3, 43, 0
5, 44530, Note_on_c, 3, 45, 64
5, 44635, Note_on_c, 3, 45, 0
5, 44650, Note_on_c, 3, 47, 64
5, 44755, Note_on_c, 3, 47, 0
5, 44770, Note_on_c, 3, 42, 64
5, 44875, Note_on_c, 3, 42, 0
5, 44890, Note_on_c, 3, 43, 64
5, 44995, Note_on_c, 3, 43, 0
5, 45010, Note_on_c, 3, 45, 64
5, 45115, Note_on_c, 3, 45, 0
5, 45130, Note_on_c, 3, 47, 64
5, 45235, Note_on_c, 3, 47, 0
5, 45730, Note_on_c, 3, 42, 64
5, 45835, Note_on_c, 3, 42, 0
5, 45850, Note_on_c, 3, 43, 64
5, 45955, Note_on_c, 3, 43, 0
5, 45970, Note_on_c, 3, 45, 64
5, 46075, Note_on_c, 3, 45, 0
5, 46075, Program_c, 3, 19
5, 46075, Control_c, 3, 0, 0
5, 46075, Control_c, 3, 11, 110
5, 46075, Control_c, 3, 64, 0
5, 46075, Control_c, 3, 91, 10
5, 46075, Control_c, 3, 93, 20
5, 46075, Control_c, 3, 7, 100
5, 46076, Control_c, 3, 10, 45
5, 46082, Note_on_c, 3, 72, 77
5, 46187, Note_on_c, 3, 72, 0
5, 46202, Note_on_c, 3, 71, 72
5, 46254, Note_on_c, 3, 71, 0
5, 46262, Note_on_c, 3, 69, 72
5, 46314, Note_on_c, 3, 69, 0
5, 46322, Note_on_c, 3, 67, 69
5, 46427, Note_on_c, 3, 67, 0
5, 46442, Note_on_c, 3, 64, 75
5, 46455, Note_on_c, 3, 64, 0
5, 46457, Note_on_c, 3, 66, 73
5, 46470, Note_on_c, 3, 66, 0
5, 46472, Note_on_c, 3, 67, 72
5, 46485, Note_on_c, 3, 67, 0
5, 46487, Note_on_c, 3, 69, 71
5, 46500, Note_on_c, 3, 69, 0
5, 46502, Note_on_c, 3, 71, 72
5, 46515, Note_on_c, 3, 71, 0
5, 46517, Note_on_c, 3, 72, 75
5, 46530, Note_on_c, 3, 72, 0
5, 46532, Note_on_c, 3, 74, 80
5, 46545, Note_on_c, 3, 74, 0
5, 46547, Note_on_c, 3, 76, 80
5, 46560, Note_on_c, 3, 76, 0
5, 46562, Note_on_c, 3, 77, 82
5, 46667, Note_on_c, 3, 77, 0
5, 46682, Note_on_c, 3, 76, 79
5, 46734, Note_on_c, 3, 76, 0
5, 46742, Note_on_c, 3, 74, 75
5, 46794, Note_on_c, 3, 74, 0
5, 46802, Note_on_c, 3, 72, 72
5, 47027, Note_on_c, 3, 72, 0
5, 47042, Note_on_c, 3, 70, 76
5, 47104, Note_on_c, 3, 70, 0
5, 47160, Note_on_c, 3, 65, 85
5, 47173, Note_on_c, 3, 65, 0
5, 47175, Note_on_c, 3, 67, 81
5, 47188, Note_on_c, 3, 67, 0
5, 47190, Note_on_c, 3, 69, 78
5, 47203, Note_on_c, 3, 69, 0
5, 47205, Note_on_c, 3, 70, 77
5, 47218, Note_on_c, 3, 70, 0
5, 47220, Note_on_c, 3, 72, 79
5, 47233, Note_on_c, 3, 72, 0
5, 47235, Note_on_c, 3, 74, 76
5, 47248, Note_on_c, 3, 74, 0
5, 47250, Note_on_c, 3, 75, 76
5, 47263, Note_on_c, 3, 75, 0
5, 47265, Note_on_c, 3, 77, 78
5, 47278, Note_on_c, 3, 77, 0
5, 47280, Note_on_c, 3, 79, 80
5, 47293, Note_on_c, 3, 79, 0
5, 47295, Note_on_c, 3, 81, 81
5, 47308, Note_on_c, 3, 81, 0
5, 47310, Note_on_c, 3, 82, 85
5, 47323, Note_on_c, 3, 82, 0
5, 47325, Note_on_c, 3, 68, 74
5, 47430, Note_on_c, 3, 68, 0
5, 47445, Note_on_c, 3, 69, 73
5, 47670, Note_on_c, 3, 69, 0
5, 47685, Note_on_c, 3, 68, 54
5, 47737, Note_on_c, 3, 68, 0
5, 47745, Note_on_c, 3, 66, 58
5, 47797, Note_on_c, 3, 66, 0
5, 47805, Note_on_c, 3, 68, 60
5, 48150, Note_on_c, 3, 68, 0
5, 48165, Note_on_c, 3, 68, 64
5, 48243, Note_on_c, 3, 68, 0
5, 48255, Note_on_c, 3, 68, 64
5, 48281, Note_on_c, 3, 68, 0
5, 48285, Note_on_c, 3, 69, 64
5, 48817, Note_on_c, 3, 69, 0
5, 48825, Note_on_c, 3, 72, 73
5, 48877, Note_on_c, 3, 72, 0
5, 48885, Note_on_c, 3, 71, 70
5, 48937, Note_on_c, 3, 71, 0
5, 48945, Note_on_c, 3, 69, 64
5, 48997, Note_on_c, 3, 69, 0
5, 49005, Note_on_c, 3, 68, 57
5, 49170, Note_on_c, 3, 68, 0
5, 49185, Note_on_c, 3, 68, 64
5, 49237, Note_on_c, 3, 68, 0
5, 49245, Note_on_c, 3, 70, 79
5, 49350, Note_on_c, 3, 70, 0
5, 49425, Note_on_c, 3, 76, 64
5, 49537, Note_on_c, 3, 76, 0
5, 49545, Note_on_c, 3, 77, 75
5, 49571, Note_on_c, 3, 77, 0
5, 49575, Note_on_c, 3, 76, 72
5, 49601, Note_on_c, 3, 76, 0
5, 49605, Note_on_c, 3, 74, 57
5, 49657, Note_on_c, 3, 74, 0
5, 49665, Note_on_c, 3, 81, 76
5, 49691, Note_on_c, 3, 81, 0
5, 49695, Note_on_c, 3, 69, 80
5, 49721, Note_on_c, 3, 69, 0
5, 49725, Note_on_c, 3, 70, 73
5, 49830, Note_on_c, 3, 70, 0
5, 49875, Note_on_c, 3, 79, 91
5, 49901, Note_on_c, 3, 79, 0
5, 49905, Note_on_c, 3, 82, 87
5, 49931, Note_on_c, 3, 82, 0
5, 49935, Note_on_c, 3, 79, 85
5, 49961, Note_on_c, 3, 79, 0
5, 49965, Note_on_c, 3, 75, 76
5, 49991, Note_on_c, 3, 75, 0
5, 49995, Note_on_c, 3, 77, 85
5, 50021, Note_on_c, 3, 77, 0
5, 50025, Note_on_c, 3, 79, 84
5, 50051, Note_on_c, 3, 79, 0
5, 50055, Note_on_c, 3, 74, 74
5, 50081, Note_on_c, 3, 74, 0
5, 50085, Note_on_c, 3, 75, 77
5, 50111, Note_on_c, 3, 75, 0
5, 50115, Note_on_c, 3, 70, 79
5, 50141, Note_on_c, 3, 70, 0
5, 50145, Note_on_c, 3, 67, 85
5, 50171, Note_on_c, 3, 67, 0
5, 50175, Note_on_c, 3, 63, 78
5, 50201, Note_on_c, 3, 63, 0
5, 50265, Note_on_c, 3, 73, 59
5, 50317, Note_on_c, 3, 73, 0
5, 50325, Note_on_c, 3, 74, 56
5, 50550, Note_on_c, 3, 74, 0
5, 50565, Note_on_c, 3, 73, 58
5, 50670, Note_on_c, 3, 73, 0
5, 50685, Note_on_c, 3, 74, 72
5, 50865, Note_on_c, 3, 74, 0
5, 50925, Note_on_c, 3, 61, 67
5, 51090, Note_on_c, 3, 61, 0
5, 51105, Note_on_c, 3, 61, 71
5, 51157, Note_on_c, 3, 61, 0
5, 51165, Note_on_c, 3, 62, 72
5, 51630, Note_on_c, 3, 62, 0
5, 61317, Program_c, 3, 19
5, 61317, Control_c, 3, 0, 0
5, 61317, Control_c, 3, 11, 127
5, 61317, Control_c, 3, 64, 0
5, 61317, Control_c, 3, 91, 40
5, 61317, Control_c, 3, 93, 20
5, 61317, Control_c, 3, 7, 110
5, 61318, Control_c, 3, 10, 84
5, 61320, Note_on_c, 3, 45, 64
5, 61346, Note_on_c, 3, 45, 0
5, 61350, Note_on_c, 3, 47, 64
5, 61376, Note_on_c, 3, 47, 0
5, 61380, Note_on_c, 3, 49, 64
5, 61406, Note_on_c, 3, 49, 0
5, 61410, Note_on_c, 3, 47, 64
5, 61436, Note_on_c, 3, 47, 0
5, 61440, Note_on_c, 3, 45, 64
5, 61466, Note_on_c, 3, 45, 0
5, 61470, Note_on_c, 3, 47, 64
5, 61496, Note_on_c, 3, 47, 0
5, 61500, Note_on_c, 3, 49, 64
5, 61526, Note_on_c, 3, 49, 0
5, 61530, Note_on_c, 3, 47, 64
5, 61556, Note_on_c, 3, 47, 0
5, 61560, Note_on_c, 3, 45, 64
5, 61586, Note_on_c, 3, 45, 0
5, 61590, Note_on_c, 3, 47, 64
5, 61616, Note_on_c, 3, 47, 0
5, 61620, Note_on_c, 3, 49, 64
5, 61646, Note_on_c, 3, 49, 0
5, 61650, Note_on_c, 3, 47, 64
5, 61676, Note_on_c, 3, 47, 0
5, 61680, Note_on_c, 3, 45, 64
5, 61706, Note_on_c, 3, 45, 0
5, 61710, Note_on_c, 3, 47, 64
5, 61736, Note_on_c, 3, 47, 0
5, 61740, Note_on_c, 3, 49, 64
5, 61766, Note_on_c, 3, 49, 0
5, 61770, Note_on_c, 3, 47, 64
5, 61796, Note_on_c, 3, 47, 0
5, 61800, Note_on_c, 3, 45, 64
5, 61852, Note_on_c, 3, 45, 0
5, 62160, Note_on_c, 3, 54, 64
5, 62186, Note_on_c, 3, 54, 0
5, 62190, Note_on_c, 3, 52, 64
5, 62216, Note_on_c, 3, 52, 0
5, 62220, Note_on_c, 3, 54, 64
5, 62246, Note_on_c, 3, 54, 0
5, 62250, Note_on_c, 3, 49, 64
5, 62276, Note_on_c, 3, 49, 0
5, 62280, Note_on_c, 3, 50, 64
5, 62306, Note_on_c, 3, 50, 0
5, 62310, Note_on_c, 3, 49, 64
5, 62336, Note_on_c, 3, 49, 0
5, 62340, Note_on_c, 3, 50, 64
5, 62366, Note_on_c, 3, 50, 0
5, 62370, Note_on_c, 3, 47, 64
5, 62396, Note_on_c, 3, 47, 0
5, 62400, Note_on_c, 3, 52, 64
5, 62426, Note_on_c, 3, 52, 0
5, 62430, Note_on_c, 3, 50, 64
5, 62456, Note_on_c, 3, 50, 0
5, 62460, Note_on_c, 3, 52, 64
5, 62486, Note_on_c, 3, 52, 0
5, 62490, Note_on_c, 3, 47, 64
5, 62516, Note_on_c, 3, 47, 0
5, 62520, Note_on_c, 3, 49, 64
5, 62546, Note_on_c, 3, 49, 0
5, 62550, Note_on_c, 3, 47, 64
5, 62576, Note_on_c, 3, 47, 0
5, 62580, Note_on_c, 3, 49, 64
5, 62606, Note_on_c, 3, 49, 0
5, 62610, Note_on_c, 3, 45, 64
5, 62636, Note_on_c, 3, 45, 0
5, 62640, Note_on_c, 3, 50, 64
5, 62666, Note_on_c, 3, 50, 0
5, 62670, Note_on_c, 3, 49, 64
5, 62696, Note_on_c, 3, 49, 0
5, 62700, Note_on_c, 3, 50, 64
5, 62726, Note_on_c, 3, 50, 0
5, 62730, Note_on_c, 3, 45, 64
5, 62756, Note_on_c, 3, 45, 0
5, 62760, Note_on_c, 3, 47, 64
5, 62786, Note_on_c, 3, 47, 0
5, 62790, Note_on_c, 3, 45, 64
5, 62816, Note_on_c, 3, 45, 0
5, 62820, Note_on_c, 3, 47, 64
5, 62846, Note_on_c, 3, 47, 0
5, 62850, Note_on_c, 3, 44, 64
5, 62876, Note_on_c, 3, 44, 0
5, 62880, Note_on_c, 3, 49, 64
5, 62906, Note_on_c, 3, 49, 0
5, 62910, Note_on_c, 3, 47, 64
5, 62936, Note_on_c, 3, 47, 0
5, 62940, Note_on_c, 3, 49, 64
5, 62966, Note_on_c, 3, 49, 0
5, 62970, Note_on_c, 3, 44, 64
5, 62996, Note_on_c, 3, 44, 0
5, 63000, Note_on_c, 3, 45, 64
5, 63026, Note_on_c, 3, 45, 0
5, 63030, Note_on_c, 3, 44, 64
5, 63056, Note_on_c, 3, 44, 0
5, 63060, Note_on_c, 3, 45, 64
5, 63086, Note_on_c, 3, 45, 0
5, 63090, Note_on_c, 3, 42, 64
5, 63116, Note_on_c, 3, 42, 0
5, 63120, Note_on_c, 3, 47, 64
5, 63146, Note_on_c, 3, 47, 0
5, 63150, Note_on_c, 3, 45, 64
5, 63176, Note_on_c, 3, 45, 0
5, 63180, Note_on_c, 3, 47, 64
5, 63206, Note_on_c, 3, 47, 0
5, 63210, Note_on_c, 3, 42, 64
5, 63236, Note_on_c, 3, 42, 0
5, 63240, Note_on_c, 3, 44, 64
5, 63266, Note_on_c, 3, 44, 0
5, 63270, Note_on_c, 3, 42, 64
5, 63296, Note_on_c, 3, 42, 0
5, 63300, Note_on_c, 3, 44, 64
5, 63326, Note_on_c, 3, 44, 0
5, 63330, Note_on_c, 3, 40, 64
5, 63356, Note_on_c, 3, 40, 0
5, 63360, Note_on_c, 3, 45, 64
5, 63506, Note_on_c, 3, 45, 0
5, 63510, Note_on_c, 3, 47, 64
5, 63536, Note_on_c, 3, 47, 0
5, 63540, Note_on_c, 3, 45, 64
5, 63566, Note_on_c, 3, 45, 0
5, 63570, Note_on_c, 3, 47, 64
5, 63596, Note_on_c, 3, 47, 0
5, 63600, Note_on_c, 3, 44, 64
5, 63705, Note_on_c, 3, 44, 0
5, 63720, Note_on_c, 3, 45, 64
5, 63825, Note_on_c, 3, 45, 0
5, 63870, Note_on_c, 3, 45, 64
5, 63896, Note_on_c, 3, 45, 0
5, 63900, Note_on_c, 3, 49, 64
5, 63926, Note_on_c, 3, 49, 0
5, 63930, Note_on_c, 3, 45, 64
5, 63956, Note_on_c, 3, 45, 0
5, 63960, Note_on_c, 3, 50, 64
5, 64012, Note_on_c, 3, 50, 0
5, 64020, Note_on_c, 3, 47, 64
5, 64072, Note_on_c, 3, 47, 0
5, 64080, Note_on_c, 3, 52, 64
5, 64132, Note_on_c, 3, 52, 0
5, 64140, Note_on_c, 3, 40, 64
5, 64192, Note_on_c, 3, 40, 0
5, 64200, Note_on_c, 3, 45, 64
5, 64305, Note_on_c, 3, 45, 0
5, 64380, Note_on_c, 3, 47, 70
5, 64432, Note_on_c, 3, 47, 0
5, 64440, Note_on_c, 3, 49, 70
5, 64492, Note_on_c, 3, 49, 0
5, 64500, Note_on_c, 3, 50, 68
5, 64552, Note_on_c, 3, 50, 0
5, 64560, Note_on_c, 3, 52, 67
5, 64612, Note_on_c, 3, 52, 0
5, 64620, Note_on_c, 3, 40, 64
5, 64672, Note_on_c, 3, 40, 0
5, 64680, Note_on_c, 3, 45, 64
5, 64785, Note_on_c, 3, 45, 0
5, 66420, Note_on_c, 3, 50, 75
5, 66446, Note_on_c, 3, 50, 0
5, 66450, Note_on_c, 3, 49, 72
5, 66476, Note_on_c, 3, 49, 0
5, 66480, Note_on_c, 3, 50, 73
5, 66506, Note_on_c, 3, 50, 0
5, 66510, Note_on_c, 3, 49, 73
5, 66536, Note_on_c, 3, 49, 0
5, 66540, Note_on_c, 3, 50, 73
5, 66566, Note_on_c, 3, 50, 0
5, 66570, Note_on_c, 3, 49, 73
5, 66596, Note_on_c, 3, 49, 0
5, 66600, Note_on_c, 3, 50, 73
5, 66652, Note_on_c, 3, 50, 0
5, 66660, Note_on_c, 3, 38, 64
5, 66712, Note_on_c, 3, 38, 0
5, 66780, Note_on_c, 3, 62, 64
5, 66832, Note_on_c, 3, 62, 0
5, 66840, Note_on_c, 3, 62, 64
5, 66945, Note_on_c, 3, 62, 0
5, 67020, Note_on_c, 3, 61, 64
5, 67072, Note_on_c, 3, 61, 0
5, 67080, Note_on_c, 3, 61, 64
5, 67185, Note_on_c, 3, 61, 0
5, 67260, Note_on_c, 3, 59, 64
5, 67312, Note_on_c, 3, 59, 0
5, 67320, Note_on_c, 3, 59, 64
5, 67425, Note_on_c, 3, 59, 0
5, 67500, Note_on_c, 3, 57, 64
5, 67552, Note_on_c, 3, 57, 0
5, 67560, Note_on_c, 3, 57, 64
5, 67665, Note_on_c, 3, 57, 0
5, 67740, Note_on_c, 3, 55, 64
5, 67792, Note_on_c, 3, 55, 0
5, 67800, Note_on_c, 3, 55, 64
5, 67905, Note_on_c, 3, 55, 0
5, 67920, Note_on_c, 3, 54, 64
5, 67972, Note_on_c, 3, 54, 0
5, 67980, Note_on_c, 3, 59, 64
5, 68006, Note_on_c, 3, 59, 0
5, 68010, Note_on_c, 3, 54, 64
5, 68036, Note_on_c, 3, 54, 0
5, 68040, Note_on_c, 3, 55, 64
5, 68092, Note_on_c, 3, 55, 0
5, 68100, Note_on_c, 3, 52, 64
5, 68152, Note_on_c, 3, 52, 0
5, 68160, Note_on_c, 3, 57, 64
5, 68212, Note_on_c, 3, 57, 0
5, 68220, Note_on_c, 3, 45, 64
5, 68272, Note_on_c, 3, 45, 0
5, 68280, Note_on_c, 3, 50, 64
5, 68385, Note_on_c, 3, 50, 0
5, 68460, Note_on_c, 3, 59, 64
5, 68512, Note_on_c, 3, 59, 0
5, 68520, Note_on_c, 3, 61, 64
5, 68625, Note_on_c, 3, 61, 0
5, 68700, Note_on_c, 3, 50, 64
5, 68752, Note_on_c, 3, 50, 0
5, 68760, Note_on_c, 3, 52, 64
5, 68865, Note_on_c, 3, 52, 0
5, 68880, Note_on_c, 3, 47, 64
5, 68932, Note_on_c, 3, 47, 0
5, 68940, Note_on_c, 3, 52, 64
5, 68992, Note_on_c, 3, 52, 0
5, 69000, Note_on_c, 3, 45, 64
5, 69052, Note_on_c, 3, 45, 0
5, 69060, Note_on_c, 3, 50, 64
5, 69112, Note_on_c, 3, 50, 0
5, 69120, Note_on_c, 3, 52, 64
5, 69172, Note_on_c, 3, 52, 0
5, 69180, Note_on_c, 3, 40, 64
5, 69232, Note_on_c, 3, 40, 0
5, 69240, Note_on_c, 3, 45, 64
5, 69345, Note_on_c, 3, 45, 0
5, 73560, Note_on_c, 3, 50, 66
5, 73586, Note_on_c, 3, 50, 0
5, 73590, Note_on_c, 3, 52, 66
5, 73616, Note_on_c, 3, 52, 0
5, 73620, Note_on_c, 3, 54, 66
5, 73646, Note_on_c, 3, 54, 0
5, 73650, Note_on_c, 3, 52, 66
5, 73676, Note_on_c, 3, 52, 0
5, 73680, Note_on_c, 3, 50, 66
5, 73706, Note_on_c, 3, 50, 0
5, 73710, Note_on_c, 3, 52, 66
5, 73736, Note_on_c, 3, 52, 0
5, 73740, Note_on_c, 3, 54, 66
5, 73766, Note_on_c, 3, 54, 0
5, 73770, Note_on_c, 3, 52, 66
5, 73796, Note_on_c, 3, 52, 0
5, 73800, Note_on_c, 3, 50, 66
5, 73826, Note_on_c, 3, 50, 0
5, 73830, Note_on_c, 3, 52, 65
5, 73856, Note_on_c, 3, 52, 0
5, 73860, Note_on_c, 3, 54, 66
5, 73886, Note_on_c, 3, 54, 0
5, 73890, Note_on_c, 3, 52, 66
5, 73916, Note_on_c, 3, 52, 0
5, 73920, Note_on_c, 3, 50, 66
5, 73946, Note_on_c, 3, 50, 0
5, 73950, Note_on_c, 3, 52, 65
5, 73976, Note_on_c, 3, 52, 0
5, 73980, Note_on_c, 3, 54, 65
5, 74006, Note_on_c, 3, 54, 0
5, 74010, Note_on_c, 3, 52, 66
5, 74036, Note_on_c, 3, 52, 0
5, 74040, Note_on_c, 3, 50, 65
5, 74145, Note_on_c, 3, 50, 0
5, 74400, Note_on_c, 3, 59, 62
5, 74426, Note_on_c, 3, 59, 0
5, 74430, Note_on_c, 3, 57, 63
5, 74456, Note_on_c, 3, 57, 0
5, 74460, Note_on_c, 3, 59, 63
5, 74486, Note_on_c, 3, 59, 0
5, 74490, Note_on_c, 3, 54, 63
5, 74516, Note_on_c, 3, 54, 0
5, 74520, Note_on_c, 3, 55, 64
5, 74546, Note_on_c, 3, 55, 0
5, 74550, Note_on_c, 3, 54, 65
5, 74576, Note_on_c, 3, 54, 0
5, 74580, Note_on_c, 3, 55, 64
5, 74606, Note_on_c, 3, 55, 0
5, 74610, Note_on_c, 3, 52, 65
5, 74636, Note_on_c, 3, 52, 0
5, 74640, Note_on_c, 3, 57, 65
5, 74666, Note_on_c, 3, 57, 0
5, 74670, Note_on_c, 3, 55, 65
5, 74696, Note_on_c, 3, 55, 0
5, 74700, Note_on_c, 3, 57, 65
5, 74726, Note_on_c, 3, 57, 0
5, 74730, Note_on_c, 3, 52, 65
5, 74756, Note_on_c, 3, 52, 0
5, 74760, Note_on_c, 3, 54, 65
5, 74786, Note_on_c, 3, 54, 0
5, 74790, Note_on_c, 3, 52, 65
5, 74816, Note_on_c, 3, 52, 0
5, 74820, Note_on_c, 3, 54, 64
5, 74846, Note_on_c, 3, 54, 0
5, 74850, Note_on_c, 3, 50, 64
5, 74876, Note_on_c, 3, 50, 0
5, 74880, Note_on_c, 3, 55, 64
5, 74906, Note_on_c, 3, 55, 0
5, 74910, Note_on_c, 3, 54, 64
5, 74936, Note_on_c, 3, 54, 0
5, 74940, Note_on_c, 3, 55, 63
5, 74966, Note_on_c, 3, 55, 0
5, 74970, Note_on_c, 3, 50, 63
5, 74996, Note_on_c, 3, 50, 0
5, 75000, Note_on_c, 3, 52, 63
5, 75026, Note_on_c, 3, 52, 0
5, 75030, Note_on_c, 3, 50, 64
5, 75056, Note_on_c, 3, 50, 0
5, 75060, Note_on_c, 3, 52, 64
5, 75086, Note_on_c, 3, 52, 0
5, 75090, Note_on_c, 3, 49, 64
5, 75116, Note_on_c, 3, 49, 0
5, 75120, Note_on_c, 3, 54, 64
5, 75146, Note_on_c, 3, 54, 0
5, 75150, Note_on_c, 3, 52, 64
5, 75176, Note_on_c, 3, 52, 0
5, 75180, Note_on_c, 3, 54, 64
5, 75206, Note_on_c, 3, 54, 0
5, 75210, Note_on_c, 3, 49, 64
5, 75236, Note_on_c, 3, 49, 0
5, 75240, Note_on_c, 3, 50, 64
5, 75266, Note_on_c, 3, 50, 0
5, 75270, Note_on_c, 3, 49, 65
5, 75296, Note_on_c, 3, 49, 0
5, 75300, Note_on_c, 3, 50, 66
5, 75326, Note_on_c, 3, 50, 0
5, 75330, Note_on_c, 3, 47, 65
5, 75356, Note_on_c, 3, 47, 0
5, 75360, Note_on_c, 3, 52, 65
5, 75386, Note_on_c, 3, 52, 0
5, 75390, Note_on_c, 3, 50, 65
5, 75416, Note_on_c, 3, 50, 0
5, 75420, Note_on_c, 3, 52, 65
5, 75446, Note_on_c, 3, 52, 0
5, 75450, Note_on_c, 3, 47, 66
5, 75476, Note_on_c, 3, 47, 0
5, 75480, Note_on_c, 3, 49, 67
5, 75506, Note_on_c, 3, 49, 0
5, 75510, Note_on_c, 3, 47, 67
5, 75536, Note_on_c, 3, 47, 0
5, 75540, Note_on_c, 3, 49, 65
5, 75566, Note_on_c, 3, 49, 0
5, 75570, Note_on_c, 3, 45, 66
5, 75596, Note_on_c, 3, 45, 0
5, 75600, Note_on_c, 3, 50, 66
5, 75746, Note_on_c, 3, 50, 0
5, 75750, Note_on_c, 3, 52, 70
5, 75776, Note_on_c, 3, 52, 0
5, 75780, Note_on_c, 3, 50, 70
5, 75806, Note_on_c, 3, 50, 0
5, 75810, Note_on_c, 3, 52, 70
5, 75836, Note_on_c, 3, 52, 0
5, 75840, Note_on_c, 3, 49, 67
5, 75853, Note_on_c, 3, 49, 0
5, 75855, Note_on_c, 3, 47, 66
5, 75868, Note_on_c, 3, 47, 0
5, 75870, Note_on_c, 3, 49, 64
5, 75943, Note_on_c, 3, 49, 0
5, 75960, Note_on_c, 3, 50, 48
5, 76065, Note_on_c, 3, 50, 0
5, 76140, Note_on_c, 3, 54, 57
5, 76192, Note_on_c, 3, 54, 0
5, 76200, Note_on_c, 3, 56, 49
5, 76305, Note_on_c, 3, 56, 0
5, 76380, Note_on_c, 3, 58, 60
5, 76432, Note_on_c, 3, 58, 0
5, 76440, Note_on_c, 3, 59, 49
5, 76545, Note_on_c, 3, 59, 0
5, 76620, Note_on_c, 3, 55, 58
5, 76672, Note_on_c, 3, 55, 0
5, 76680, Note_on_c, 3, 52, 52
5, 76785, Note_on_c, 3, 52, 0
5, 76860, Note_on_c, 3, 54, 64
5, 76912, Note_on_c, 3, 54, 0
5, 76920, Note_on_c, 3, 47, 64
5, 76946, Note_on_c, 3, 47, 0
5, 76950, Note_on_c, 3, 49, 64
5, 76976, Note_on_c, 3, 49, 0
5, 76980, Note_on_c, 3, 50, 64
5, 77006, Note_on_c, 3, 50, 0
5, 77010, Note_on_c, 3, 49, 64
5, 77036, Note_on_c, 3, 49, 0
5, 77040, Note_on_c, 3, 47, 64
5, 77066, Note_on_c, 3, 47, 0
5, 77070, Note_on_c, 3, 49, 64
5, 77096, Note_on_c, 3, 49, 0
5, 77100, Note_on_c, 3, 50, 64
5, 77126, Note_on_c, 3, 50, 0
5, 77130, Note_on_c, 3, 49, 64
5, 77156, Note_on_c, 3, 49, 0
5, 77160, Note_on_c, 3, 47, 64
5, 77186, Note_on_c, 3, 47, 0
5, 77190, Note_on_c, 3, 49, 64
5, 77216, Note_on_c, 3, 49, 0
5, 77220, Note_on_c, 3, 50, 64
5, 77246, Note_on_c, 3, 50, 0
5, 77250, Note_on_c, 3, 49, 64
5, 77276, Note_on_c, 3, 49, 0
5, 77280, Note_on_c, 3, 47, 64
5, 77306, Note_on_c, 3, 47, 0
5, 77310, Note_on_c, 3, 49, 64
5, 77336, Note_on_c, 3, 49, 0
5, 77340, Note_on_c, 3, 50, 64
5, 77366, Note_on_c, 3, 50, 0
5, 77370, Note_on_c, 3, 49, 64
5, 77396, Note_on_c, 3, 49, 0
5, 77400, Note_on_c, 3, 47, 64
5, 77505, Note_on_c, 3, 47, 0
5, 78240, Note_on_c, 3, 55, 64
5, 78266, Note_on_c, 3, 55, 0
5, 78270, Note_on_c, 3, 54, 64
5, 78296, Note_on_c, 3, 54, 0
5, 78300, Note_on_c, 3, 55, 64
5, 78326, Note_on_c, 3, 55, 0
5, 78330, Note_on_c, 3, 50, 64
5, 78356, Note_on_c, 3, 50, 0
5, 78360, Note_on_c, 3, 52, 64
5, 78386, Note_on_c, 3, 52, 0
5, 78390, Note_on_c, 3, 50, 64
5, 78416, Note_on_c, 3, 50, 0
5, 78420, Note_on_c, 3, 52, 64
5, 78446, Note_on_c, 3, 52, 0
5, 78450, Note_on_c, 3, 49, 64
5, 78476, Note_on_c, 3, 49, 0
5, 78480, Note_on_c, 3, 54, 64
5, 78506, Note_on_c, 3, 54, 0
5, 78510, Note_on_c, 3, 52, 64
5, 78536, Note_on_c, 3, 52, 0
5, 78540, Note_on_c, 3, 54, 64
5, 78566, Note_on_c, 3, 54, 0
5, 78570, Note_on_c, 3, 49, 64
5, 78596, Note_on_c, 3, 49, 0
5, 78600, Note_on_c, 3, 50, 64
5, 78626, Note_on_c, 3, 50, 0
5, 78630, Note_on_c, 3, 49, 64
5, 78656, Note_on_c, 3, 49, 0
5, 78660, Note_on_c, 3, 50, 64
5, 78686, Note_on_c, 3, 50, 0
5, 78690, Note_on_c, 3, 47, 64
5, 78716, Note_on_c, 3, 47, 0
5, 78720, Note_on_c, 3, 52, 64
5, 78746, Note_on_c, 3, 52, 0
5, 78750, Note_on_c, 3, 50, 64
5, 78776, Note_on_c, 3, 50, 0
5, 78780, Note_on_c, 3, 52, 64
5, 78806, Note_on_c, 3, 52, 0
5, 78810, Note_on_c, 3, 47, 64
5, 78836, Note_on_c, 3, 47, 0
5, 78840, Note_on_c, 3, 49, 64
5, 78866, Note_on_c, 3, 49, 0
5, 78870, Note_on_c, 3, 47, 64
5, 78896, Note_on_c, 3, 47, 0
5, 78900, Note_on_c, 3, 49, 64
5, 78926, Note_on_c, 3, 49, 0
5, 78930, Note_on_c, 3, 45, 64
5, 78956, Note_on_c, 3, 45, 0
5, 78960, Note_on_c, 3, 50, 64
5, 78986, Note_on_c, 3, 50, 0
5, 78990, Note_on_c, 3, 49, 64
5, 79016, Note_on_c, 3, 49, 0
5, 79020, Note_on_c, 3, 50, 64
5, 79046, Note_on_c, 3, 50, 0
5, 79050, Note_on_c, 3, 45, 64
5, 79076, Note_on_c, 3, 45, 0
5, 79080, Note_on_c, 3, 47, 64
5, 79106, Note_on_c, 3, 47, 0
5, 79110, Note_on_c, 3, 45, 64
5, 79136, Note_on_c, 3, 45, 0
5, 79140, Note_on_c, 3, 47, 64
5, 79166, Note_on_c, 3, 47, 0
5, 79170, Note_on_c, 3, 44, 64
5, 79196, Note_on_c, 3, 44, 0
5, 79200, Note_on_c, 3, 49, 64
5, 79226, Note_on_c, 3, 49, 0
5, 79230, Note_on_c, 3, 47, 64
5, 79256, Note_on_c, 3, 47, 0
5, 79260, Note_on_c, 3, 49, 64
5, 79286, Note_on_c, 3, 49, 0
5, 79290, Note_on_c, 3, 44, 64
5, 79316, Note_on_c, 3, 44, 0
5, 79320, Note_on_c, 3, 46, 64
5, 79346, Note_on_c, 3, 46, 0
5, 79350, Note_on_c, 3, 44, 64
5, 79376, Note_on_c, 3, 44, 0
5, 79380, Note_on_c, 3, 46, 64
5, 79406, Note_on_c, 3, 46, 0
5, 79410, Note_on_c, 3, 42, 64
5, 79436, Note_on_c, 3, 42, 0
5, 79440, Note_on_c, 3, 50, 64
5, 79492, Note_on_c, 3, 50, 0
5, 79500, Note_on_c, 3, 50, 64
5, 79552, Note_on_c, 3, 50, 0
5, 79560, Note_on_c, 3, 50, 64
5, 79665, Note_on_c, 3, 50, 0
5, 79740, Note_on_c, 3, 46, 64
5, 79792, Note_on_c, 3, 46, 0
5, 79800, Note_on_c, 3, 47, 64
5, 79905, Note_on_c, 3, 47, 0
5, 82980, Note_on_c, 3, 54, 72
5, 83006, Note_on_c, 3, 54, 0
5, 83010, Note_on_c, 3, 53, 72
5, 83036, Note_on_c, 3, 53, 0
5, 83040, Note_on_c, 3, 54, 72
5, 83066, Note_on_c, 3, 54, 0
5, 83070, Note_on_c, 3, 53, 72
5, 83096, Note_on_c, 3, 53, 0
5, 83100, Note_on_c, 3, 54, 72
5, 83126, Note_on_c, 3, 54, 0
5, 83130, Note_on_c, 3, 53, 72
5, 83156, Note_on_c, 3, 53, 0
5, 83160, Note_on_c, 3, 54, 72
5, 83212, Note_on_c, 3, 54, 0
5, 83220, Note_on_c, 3, 42, 69
5, 83272, Note_on_c, 3, 42, 0
5, 83340, Note_on_c, 3, 54, 64
5, 83392, Note_on_c, 3, 54, 0
5, 83400, Note_on_c, 3, 54, 57
5, 83505, Note_on_c, 3, 54, 0
5, 83580, Note_on_c, 3, 52, 60
5, 83632, Note_on_c, 3, 52, 0
5, 83640, Note_on_c, 3, 52, 54
5, 83745, Note_on_c, 3, 52, 0
5, 83820, Note_on_c, 3, 50, 52
5, 83872, Note_on_c, 3, 50, 0
5, 83880, Note_on_c, 3, 50, 51
5, 83985, Note_on_c, 3, 50, 0
5, 84060, Note_on_c, 3, 49, 49
5, 84112, Note_on_c, 3, 49, 0
5, 84120, Note_on_c, 3, 49, 45
5, 84225, Note_on_c, 3, 49, 0
5, 84300, Note_on_c, 3, 47, 48
5, 84352, Note_on_c, 3, 47, 0
5, 84360, Note_on_c, 3, 47, 49
5, 84465, Note_on_c, 3, 47, 0
5, 84480, Note_on_c, 3, 45, 50
5, 84585, Note_on_c, 3, 45, 0
5, 84600, Note_on_c, 3, 47, 51
5, 84705, Note_on_c, 3, 47, 0
5, 84720, Note_on_c, 3, 49, 47
5, 84825, Note_on_c, 3, 49, 0
5, 84840, Note_on_c, 3, 42, 52
5, 84945, Note_on_c, 3, 42, 0
5, 85137, Program_c, 3, 19
5, 85137, Control_c, 3, 0, 0
5, 85137, Control_c, 3, 11, 127
5, 85137, Control_c, 3, 64, 0
5, 85137, Control_c, 3, 91, 40
5, 85137, Control_c, 3, 93, 20
5, 85137, Control_c, 3, 7, 115
5, 85138, Control_c, 3, 10, 84
5, 85140, Note_on_c, 3, 54, 66
5, 85166, Note_on_c, 3, 54, 0
5, 85170, Note_on_c, 3, 53, 66
5, 85196, Note_on_c, 3, 53, 0
5, 85200, Note_on_c, 3, 54, 66
5, 85226, Note_on_c, 3, 54, 0
5, 85230, Note_on_c, 3, 53, 67
5, 85256, Note_on_c, 3, 53, 0
5, 85260, Note_on_c, 3, 54, 67
5, 85286, Note_on_c, 3, 54, 0
5, 85290, Note_on_c, 3, 53, 66
5, 85316, Note_on_c, 3, 53, 0
5, 85320, Note_on_c, 3, 54, 61
5, 85425, Note_on_c, 3, 54, 0
5, 85620, Note_on_c, 3, 42, 70
5, 85646, Note_on_c, 3, 42, 0
5, 85650, Note_on_c, 3, 41, 70
5, 85676, Note_on_c, 3, 41, 0
5, 85680, Note_on_c, 3, 42, 70
5, 85706, Note_on_c, 3, 42, 0
5, 85710, Note_on_c, 3, 41, 70
5, 85736, Note_on_c, 3, 41, 0
5, 85740, Note_on_c, 3, 42, 70
5, 85766, Note_on_c, 3, 42, 0
5, 85770, Note_on_c, 3, 41, 69
5, 85796, Note_on_c, 3, 41, 0
5, 85800, Note_on_c, 3, 42, 65
5, 85905, Note_on_c, 3, 42, 0
5, 86157, Program_c, 3, 19
5, 86157, Control_c, 3, 0, 0
5, 86157, Control_c, 3, 11, 127
5, 86157, Control_c, 3, 64, 0
5, 86157, Control_c, 3, 91, 40
5, 86157, Control_c, 3, 93, 20
5, 86157, Control_c, 3, 7, 90
5, 86158, Control_c, 3, 10, 84
5, 86160, Note_on_c, 3, 62, 80
5, 86186, Note_on_c, 3, 62, 0
5, 86190, Note_on_c, 3, 61, 79
5, 86216, Note_on_c, 3, 61, 0
5, 86220, Note_on_c, 3, 62, 78
5, 86246, Note_on_c, 3, 62, 0
5, 86250, Note_on_c, 3, 57, 78
5, 86276, Note_on_c, 3, 57, 0
5, 86280, Note_on_c, 3, 59, 79
5, 86306, Note_on_c, 3, 59, 0
5, 86310, Note_on_c, 3, 57, 80
5, 86336, Note_on_c, 3, 57, 0
5, 86340, Note_on_c, 3, 59, 78
5, 86366, Note_on_c, 3, 59, 0
5, 86370, Note_on_c, 3, 56, 78
5, 86396, Note_on_c, 3, 56, 0
5, 86400, Note_on_c, 3, 61, 78
5, 86426, Note_on_c, 3, 61, 0
5, 86430, Note_on_c, 3, 59, 77
5, 86456, Note_on_c, 3, 59, 0
5, 86460, Note_on_c, 3, 61, 77
5, 86486, Note_on_c, 3, 61, 0
5, 86490, Note_on_c, 3, 56, 76
5, 86516, Note_on_c, 3, 56, 0
5, 86520, Note_on_c, 3, 57, 76
5, 86546, Note_on_c, 3, 57, 0
5, 86550, Note_on_c, 3, 56, 76
5, 86576, Note_on_c, 3, 56, 0
5, 86580, Note_on_c, 3, 57, 76
5, 86606, Note_on_c, 3, 57, 0
5, 86610, Note_on_c, 3, 54, 75
5, 86636, Note_on_c, 3, 54, 0
5, 86640, Note_on_c, 3, 59, 76
5, 86666, Note_on_c, 3, 59, 0
5, 86670, Note_on_c, 3, 57, 76
5, 86696, Note_on_c, 3, 57, 0
5, 86700, Note_on_c, 3, 59, 76
5, 86726, Note_on_c, 3, 59, 0
5, 86730, Note_on_c, 3, 54, 76
5, 86756, Note_on_c, 3, 54, 0
5, 86760, Note_on_c, 3, 56, 77
5, 86786, Note_on_c, 3, 56, 0
5, 86790, Note_on_c, 3, 54, 76
5, 86816, Note_on_c, 3, 54, 0
5, 86820, Note_on_c, 3, 56, 76
5, 86846, Note_on_c, 3, 56, 0
5, 86850, Note_on_c, 3, 52, 76
5, 86876, Note_on_c, 3, 52, 0
5, 86880, Note_on_c, 3, 57, 76
5, 86906, Note_on_c, 3, 57, 0
5, 86910, Note_on_c, 3, 56, 76
5, 86936, Note_on_c, 3, 56, 0
5, 86940, Note_on_c, 3, 57, 76
5, 86966, Note_on_c, 3, 57, 0
5, 86970, Note_on_c, 3, 52, 76
5, 86996, Note_on_c, 3, 52, 0
5, 87000, Note_on_c, 3, 54, 76
5, 87026, Note_on_c, 3, 54, 0
5, 87030, Note_on_c, 3, 52, 76
5, 87056, Note_on_c, 3, 52, 0
5, 87060, Note_on_c, 3, 54, 76
5, 87086, Note_on_c, 3, 54, 0
5, 87090, Note_on_c, 3, 51, 76
5, 87116, Note_on_c, 3, 51, 0
5, 87120, Note_on_c, 3, 56, 76
5, 87146, Note_on_c, 3, 56, 0
5, 87150, Note_on_c, 3, 54, 76
5, 87176, Note_on_c, 3, 54, 0
5, 87180, Note_on_c, 3, 56, 77
5, 87206, Note_on_c, 3, 56, 0
5, 87210, Note_on_c, 3, 51, 77
5, 87236, Note_on_c, 3, 51, 0
5, 87240, Note_on_c, 3, 53, 77
5, 87266, Note_on_c, 3, 53, 0
5, 87270, Note_on_c, 3, 51, 77
5, 87296, Note_on_c, 3, 51, 0
5, 87300, Note_on_c, 3, 53, 77
5, 87326, Note_on_c, 3, 53, 0
5, 87330, Note_on_c, 3, 51, 78
5, 87356, Note_on_c, 3, 51, 0
5, 87360, Note_on_c, 3, 54, 78
5, 87506, Note_on_c, 3, 54, 0
5, 87510, Note_on_c, 3, 56, 76
5, 87536, Note_on_c, 3, 56, 0
5, 87540, Note_on_c, 3, 54, 76
5, 87566, Note_on_c, 3, 54, 0
5, 87570, Note_on_c, 3, 56, 76
5, 87596, Note_on_c, 3, 56, 0
5, 87600, Note_on_c, 3, 53, 77
5, 87705, Note_on_c, 3, 53, 0
5, 87720, Note_on_c, 3, 54, 64
5, 87825, Note_on_c, 3, 54, 0
5, 87840, Note_on_c, 3, 51, 64
5, 87945, Note_on_c, 3, 51, 0
5, 87960, Note_on_c, 3, 53, 64
5, 88012, Note_on_c, 3, 53, 0
5, 88020, Note_on_c, 3, 54, 64
5, 88072, Note_on_c, 3, 54, 0
5, 88080, Note_on_c, 3, 47, 64
5, 88132, Note_on_c, 3, 47, 0
5, 88140, Note_on_c, 3, 49, 64
5, 88192, Note_on_c, 3, 49, 0
5, 88200, Note_on_c, 3, 42, 64
5, 88305, Note_on_c, 3, 42, 0
5, 88680, Note_on_c, 3, 54, 69
5, 88706, Note_on_c, 3, 54, 0
5, 88710, Note_on_c, 3, 56, 69
5, 88736, Note_on_c, 3, 56, 0
5, 88740, Note_on_c, 3, 57, 69
5, 88766, Note_on_c, 3, 57, 0
5, 88770, Note_on_c, 3, 56, 69
5, 88796, Note_on_c, 3, 56, 0
5, 88800, Note_on_c, 3, 54, 69
5, 88826, Note_on_c, 3, 54, 0
5, 88830, Note_on_c, 3, 56, 69
5, 88856, Note_on_c, 3, 56, 0
5, 88860, Note_on_c, 3, 57, 69
5, 88886, Note_on_c, 3, 57, 0
5, 88890, Note_on_c, 3, 56, 69
5, 88916, Note_on_c, 3, 56, 0
5, 88920, Note_on_c, 3, 54, 69
5, 88946, Note_on_c, 3, 54, 0
5, 88950, Note_on_c, 3, 56, 69
5, 88976, Note_on_c, 3, 56, 0
5, 88980, Note_on_c, 3, 57, 69
5, 89006, Note_on_c, 3, 57, 0
5, 89010, Note_on_c, 3, 56, 69
5, 89036, Note_on_c, 3, 56, 0
5, 89040, Note_on_c, 3, 54, 69
5, 89066, Note_on_c, 3, 54, 0
5, 89070, Note_on_c, 3, 56, 69
5, 89096, Note_on_c, 3, 56, 0
5, 89100, Note_on_c, 3, 57, 69
5, 89126, Note_on_c, 3, 57, 0
5, 89130, Note_on_c, 3, 56, 69
5, 89156, Note_on_c, 3, 56, 0
5, 89160, Note_on_c, 3, 54, 69
5, 89212, Note_on_c, 3, 54, 0
5, 89400, Note_on_c, 3, 56, 64
5, 89452, Note_on_c, 3, 56, 0
5, 89640, Note_on_c, 3, 49, 64
5, 89692, Note_on_c, 3, 49, 0
5, 89880, Note_on_c, 3, 49, 64
5, 89906, Note_on_c, 3, 49, 0
5, 89910, Note_on_c, 3, 51, 64
5, 89936, Note_on_c, 3, 51, 0
5, 89940, Note_on_c, 3, 52, 64
5, 89966, Note_on_c, 3, 52, 0
5, 89970, Note_on_c, 3, 51, 64
5, 89996, Note_on_c, 3, 51, 0
5, 90000, Note_on_c, 3, 49, 64
5, 90026, Note_on_c, 3, 49, 0
5, 90030, Note_on_c, 3, 51, 64
5, 90056, Note_on_c, 3, 51, 0
5, 90060, Note_on_c, 3, 52, 64
5, 90086, Note_on_c, 3, 52, 0
5, 90090, Note_on_c, 3, 51, 64
5, 90116, Note_on_c, 3, 51, 0
5, 90120, Note_on_c, 3, 49, 64
5, 90146, Note_on_c, 3, 49, 0
5, 90150, Note_on_c, 3, 51, 64
5, 90176, Note_on_c, 3, 51, 0
5, 90180, Note_on_c, 3, 52, 64
5, 90206, Note_on_c, 3, 52, 0
5, 90210, Note_on_c, 3, 51, 64
5, 90236, Note_on_c, 3, 51, 0
5, 90240, Note_on_c, 3, 49, 64
5, 90266, Note_on_c, 3, 49, 0
5, 90270, Note_on_c, 3, 51, 64
5, 90296, Note_on_c, 3, 51, 0
5, 90300, Note_on_c, 3, 52, 64
5, 90326, Note_on_c, 3, 52, 0
5, 90330, Note_on_c, 3, 51, 64
5, 90356, Note_on_c, 3, 51, 0
5, 90360, Note_on_c, 3, 49, 64
5, 90412, Note_on_c, 3, 49, 0
5, 90720, Note_on_c, 3, 57, 74
5, 90746, Note_on_c, 3, 57, 0
5, 90750, Note_on_c, 3, 56, 74
5, 90776, Note_on_c, 3, 56, 0
5, 90780, Note_on_c, 3, 57, 74
5, 90806, Note_on_c, 3, 57, 0
5, 90810, Note_on_c, 3, 52, 73
5, 90836, Note_on_c, 3, 52, 0
5, 90840, Note_on_c, 3, 54, 73
5, 90866, Note_on_c, 3, 54, 0
5, 90870, Note_on_c, 3, 52, 73
5, 90896, Note_on_c, 3, 52, 0
5, 90900, Note_on_c, 3, 54, 73
5, 90926, Note_on_c, 3, 54, 0
5, 90930, Note_on_c, 3, 51, 73
5, 90956, Note_on_c, 3, 51, 0
5, 90960, Note_on_c, 3, 56, 73
5, 90986, Note_on_c, 3, 56, 0
5, 90990, Note_on_c, 3, 54, 73
5, 91016, Note_on_c, 3, 54, 0
5, 91020, Note_on_c, 3, 56, 73
5, 91046, Note_on_c, 3, 56, 0
5, 91050, Note_on_c, 3, 51, 73
5, 91076, Note_on_c, 3, 51, 0
5, 91080, Note_on_c, 3, 52, 73
5, 91132, Note_on_c, 3, 52, 0
5, 91140, Note_on_c, 3, 49, 73
5, 91192, Note_on_c, 3, 49, 0
5, 91260, Note_on_c, 3, 61, 64
5, 91312, Note_on_c, 3, 61, 0
5, 91320, Note_on_c, 3, 61, 64
5, 91425, Note_on_c, 3, 61, 0
5, 91500, Note_on_c, 3, 60, 64
5, 91552, Note_on_c, 3, 60, 0
5, 91560, Note_on_c, 3, 61, 64
5, 91665, Note_on_c, 3, 61, 0
5, 91740, Note_on_c, 3, 54, 64
5, 91792, Note_on_c, 3, 54, 0
5, 91800, Note_on_c, 3, 56, 64
5, 91852, Note_on_c, 3, 56, 0
5, 91860, Note_on_c, 3, 49, 64
5, 91912, Note_on_c, 3, 49, 0
5, 91920, Note_on_c, 3, 56, 64
5, 91972, Note_on_c, 3, 56, 0
5, 91980, Note_on_c, 3, 44, 64
5, 92032, Note_on_c, 3, 44, 0
5, 92040, Note_on_c, 3, 49, 64
5, 92145, Note_on_c, 3, 49, 0
5, 95697, Program_c, 3, 20
5, 95697, Control_c, 3, 0, 0
5, 95697, Control_c, 3, 11, 110
5, 95697, Control_c, 3, 64, 0
5, 95697, Control_c, 3, 91, 50
5, 95697, Control_c, 3, 93, 0
5, 95697, Control_c, 3, 7, 87
5, 95698, Control_c, 3, 10, 80
5, 95700, Note_on_c, 3, 52, 72
5, 95726, Note_on_c, 3, 52, 0
5, 95730, Note_on_c, 3, 51, 72
5, 95756, Note_on_c, 3, 51, 0
5, 95760, Note_on_c, 3, 52, 72
5, 95786, Note_on_c, 3, 52, 0
5, 95790, Note_on_c, 3, 51, 72
5, 95816, Note_on_c, 3, 51, 0
5, 95820, Note_on_c, 3, 52, 72
5, 95846, Note_on_c, 3, 52, 0
5, 95850, Note_on_c, 3, 51, 72
5, 95876, Note_on_c, 3, 51, 0
5, 95880, Note_on_c, 3, 52, 72
5, 95932, Note_on_c, 3, 52, 0
5, 95940, Note_on_c, 3, 40, 72
5, 95992, Note_on_c, 3, 40, 0
5, 96060, Note_on_c, 3, 52, 64
5, 96112, Note_on_c, 3, 52, 0
5, 96120, Note_on_c, 3, 52, 64
5, 96225, Note_on_c, 3, 52, 0
5, 96300, Note_on_c, 3, 51, 64
5, 96352, Note_on_c, 3, 51, 0
5, 96360, Note_on_c, 3, 52, 64
5, 96465, Note_on_c, 3, 52, 0
5, 97797, Program_c, 3, 90
5, 97797, Control_c, 3, 0, 0
5, 97797, Control_c, 3, 11, 110
5, 97797, Control_c, 3, 64, 0
5, 97797, Control_c, 3, 91, 50
5, 97797, Control_c, 3, 93, 20
5, 97797, Control_c, 3, 7, 75
5, 97798, Control_c, 3, 10, 80
5, 97800, Note_on_c, 3, 45, 71
5, 97905, Note_on_c, 3, 45, 0
5, 97980, Note_on_c, 3, 47, 72
5, 98032, Note_on_c, 3, 47, 0
5, 98040, Note_on_c, 3, 49, 73
5, 98092, Note_on_c, 3, 49, 0
5, 98100, Note_on_c, 3, 50, 73
5, 98152, Note_on_c, 3, 50, 0
5, 98160, Note_on_c, 3, 52, 72
5, 98212, Note_on_c, 3, 52, 0
5, 98220, Note_on_c, 3, 40, 72
5, 98272, Note_on_c, 3, 40, 0
5, 98280, Note_on_c, 3, 45, 72
5, 98385, Note_on_c, 3, 45, 0
5, 100917, Program_c, 3, 19
5, 100917, Control_c, 3, 0, 0
5, 100917, Control_c, 3, 11, 127
5, 100917, Control_c, 3, 64, 0
5, 100917, Control_c, 3, 91, 50
5, 100917, Control_c, 3, 93, 0
5, 100917, Control_c, 3, 7, 107
5, 100918, Control_c, 3, 10, 64
5, 100920, Note_on_c, 3, 57, 75
5, 100946, Note_on_c, 3, 57, 0
5, 100950, Note_on_c, 3, 59, 77
5, 100976, Note_on_c, 3, 59, 0
5, 100980, Note_on_c, 3, 61, 77
5, 101006, Note_on_c, 3, 61, 0
5, 101010, Note_on_c, 3, 59, 77
5, 101036, Note_on_c, 3, 59, 0
5, 101040, Note_on_c, 3, 57, 76
5, 101066, Note_on_c, 3, 57, 0
5, 101070, Note_on_c, 3, 59, 76
5, 101096, Note_on_c, 3, 59, 0
5, 101100, Note_on_c, 3, 61, 76
5, 101126, Note_on_c, 3, 61, 0
5, 101130, Note_on_c, 3, 59, 76
5, 101156, Note_on_c, 3, 59, 0
5, 101160, Note_on_c, 3, 57, 76
5, 101186, Note_on_c, 3, 57, 0
5, 101190, Note_on_c, 3, 59, 74
5, 101216, Note_on_c, 3, 59, 0
5, 101220, Note_on_c, 3, 61, 74
5, 101246, Note_on_c, 3, 61, 0
5, 101250, Note_on_c, 3, 59, 74
5, 101276, Note_on_c, 3, 59, 0
5, 101280, Note_on_c, 3, 57, 74
5, 101306, Note_on_c, 3, 57, 0
5, 101310, Note_on_c, 3, 59, 74
5, 101336, Note_on_c, 3, 59, 0
5, 101340, Note_on_c, 3, 61, 74
5, 101366, Note_on_c, 3, 61, 0
5, 101370, Note_on_c, 3, 59, 75
5, 101396, Note_on_c, 3, 59, 0
5, 101400, Note_on_c, 3, 57, 75
5, 101505, Note_on_c, 3, 57, 0
5, 101880, Note_on_c, 3, 45, 81
5, 101906, Note_on_c, 3, 45, 0
5, 101910, Note_on_c, 3, 47, 81
5, 101936, Note_on_c, 3, 47, 0
5, 101940, Note_on_c, 3, 49, 81
5, 101966, Note_on_c, 3, 49, 0
5, 101970, Note_on_c, 3, 47, 81
5, 101996, Note_on_c, 3, 47, 0
5, 102000, Note_on_c, 3, 45, 80
5, 102026, Note_on_c, 3, 45, 0
5, 102030, Note_on_c, 3, 47, 80
5, 102056, Note_on_c, 3, 47, 0
5, 102060, Note_on_c, 3, 49, 80
5, 102086, Note_on_c, 3, 49, 0
5, 102090, Note_on_c, 3, 47, 80
5, 102116, Note_on_c, 3, 47, 0
5, 102120, Note_on_c, 3, 45, 80
5, 102146, Note_on_c, 3, 45, 0
5, 102150, Note_on_c, 3, 47, 80
5, 102176, Note_on_c, 3, 47, 0
5, 102180, Note_on_c, 3, 49, 80
5, 102206, Note_on_c, 3, 49, 0
5, 102210, Note_on_c, 3, 47, 79
5, 102236, Note_on_c, 3, 47, 0
5, 102240, Note_on_c, 3, 45, 79
5, 102266, Note_on_c, 3, 45, 0
5, 102270, Note_on_c, 3, 47, 79
5, 102296, Note_on_c, 3, 47, 0
5, 102300, Note_on_c, 3, 49, 79
5, 102326, Note_on_c, 3, 49, 0
5, 102330, Note_on_c, 3, 47, 79
5, 102356, Note_on_c, 3, 47, 0
5, 102360, Note_on_c, 3, 45, 79
5, 102465, Note_on_c, 3, 45, 0
5, 102900, Note_on_c, 3, 57, 74
5, 102952, Note_on_c, 3, 57, 0
5, 102960, Note_on_c, 3, 54, 76
5, 103065, Note_on_c, 3, 54, 0
5, 103140, Note_on_c, 3, 47, 77
5, 103192, Note_on_c, 3, 47, 0
5, 103200, Note_on_c, 3, 55, 77
5, 103305, Note_on_c, 3, 55, 0
5, 103380, Note_on_c, 3, 57, 79
5, 103432, Note_on_c, 3, 57, 0
5, 103440, Note_on_c, 3, 54, 79
5, 103545, Note_on_c, 3, 54, 0
5, 103620, Note_on_c, 3, 47, 79
5, 103672, Note_on_c, 3, 47, 0
5, 103680, Note_on_c, 3, 55, 80
5, 103785, Note_on_c, 3, 55, 0
5, 103860, Note_on_c, 3, 57, 82
5, 103912, Note_on_c, 3, 57, 0
5, 103920, Note_on_c, 3, 54, 82
5, 104025, Note_on_c, 3, 54, 0
5, 104100, Note_on_c, 3, 59, 81
5, 104152, Note_on_c, 3, 59, 0
5, 104160, Note_on_c, 3, 55, 82
5, 104265, Note_on_c, 3, 55, 0
5, 104340, Note_on_c, 3, 57, 82
5, 104392, Note_on_c, 3, 57, 0
5, 104400, Note_on_c, 3, 54, 83
5, 104505, Note_on_c, 3, 54, 0
5, 104580, Note_on_c, 3, 59, 84
5, 104632, Note_on_c, 3, 59, 0
5, 104640, Note_on_c, 3, 55, 84
5, 104745, Note_on_c, 3, 55, 0
5, 104820, Note_on_c, 3, 57, 83
5, 104872, Note_on_c, 3, 57, 0
5, 104880, Note_on_c, 3, 50, 82
5, 104985, Note_on_c, 3, 50, 0
5, 105030, Note_on_c, 3, 56, 82
5, 105056, Note_on_c, 3, 56, 0
5, 105060, Note_on_c, 3, 57, 81
5, 105086, Note_on_c, 3, 57, 0
5, 105090, Note_on_c, 3, 56, 80
5, 105116, Note_on_c, 3, 56, 0
5, 105120, Note_on_c, 3, 57, 80
5, 105225, Note_on_c, 3, 57, 0
5, 105270, Note_on_c, 3, 56, 82
5, 105296, Note_on_c, 3, 56, 0
5, 105300, Note_on_c, 3, 57, 84
5, 105326, Note_on_c, 3, 57, 0
5, 105330, Note_on_c, 3, 56, 84
5, 105356, Note_on_c, 3, 56, 0
5, 105360, Note_on_c, 3, 57, 84
5, 105465, Note_on_c, 3, 57, 0
5, 105510, Note_on_c, 3, 56, 82
5, 105536, Note_on_c, 3, 56, 0
5, 105540, Note_on_c, 3, 57, 83
5, 105566, Note_on_c, 3, 57, 0
5, 105570, Note_on_c, 3, 56, 82
5, 105596, Note_on_c, 3, 56, 0
5, 105600, Note_on_c, 3, 57, 83
5, 105705, Note_on_c, 3, 57, 0
5, 105750, Note_on_c, 3, 56, 82
5, 105776, Note_on_c, 3, 56, 0
5, 105780, Note_on_c, 3, 57, 82
5, 105806, Note_on_c, 3, 57, 0
5, 105810, Note_on_c, 3, 56, 82
5, 105836, Note_on_c, 3, 56, 0
5, 105840, Note_on_c, 3, 57, 82
5, 105945, Note_on_c, 3, 57, 0
5, 105990, Note_on_c, 3, 56, 81
5, 106016, Note_on_c, 3, 56, 0
5, 106020, Note_on_c, 3, 57, 81
5, 106046, Note_on_c, 3, 57, 0
5, 106050, Note_on_c, 3, 56, 81
5, 106076, Note_on_c, 3, 56, 0
5, 106080, Note_on_c, 3, 57, 81
5, 106185, Note_on_c, 3, 57, 0
5, 106230, Note_on_c, 3, 56, 81
5, 106256, Note_on_c, 3, 56, 0
5, 106260, Note_on_c, 3, 57, 81
5, 106286, Note_on_c, 3, 57, 0
5, 106290, Note_on_c, 3, 56, 81
5, 106316, Note_on_c, 3, 56, 0
5, 106320, Note_on_c, 3, 57, 81
5, 106425, Note_on_c, 3, 57, 0
5, 106500, Note_on_c, 3, 57, 79
5, 106552, Note_on_c, 3, 57, 0
5, 106560, Note_on_c, 3, 45, 78
5, 106690, Note_on_c, 3, 45, 0
5, 106740, Note_on_c, 3, 55, 79
5, 106792, Note_on_c, 3, 55, 0
5, 106800, Note_on_c, 3, 43, 79
5, 106935, Note_on_c, 3, 43, 0
5, 106980, Note_on_c, 3, 54, 78
5, 107032, Note_on_c, 3, 54, 0
5, 107040, Note_on_c, 3, 42, 76
5, 107165, Note_on_c, 3, 42, 0
5, 107220, Note_on_c, 3, 52, 77
5, 107272, Note_on_c, 3, 52, 0
5, 107280, Note_on_c, 3, 40, 77
5, 107415, Note_on_c, 3, 40, 0
5, 107460, Note_on_c, 3, 50, 78
5, 107512, Note_on_c, 3, 50, 0
5, 107520, Note_on_c, 3, 38, 78
5, 107645, Note_on_c, 3, 38, 0
5, 108600, Note_on_c, 3, 50, 49
5, 108626, Note_on_c, 3, 50, 0
5, 108630, Note_on_c, 3, 52, 53
5, 108656, Note_on_c, 3, 52, 0
5, 108660, Note_on_c, 3, 54, 48
5, 108686, Note_on_c, 3, 54, 0
5, 108690, Note_on_c, 3, 52, 46
5, 108716, Note_on_c, 3, 52, 0
5, 108720, Note_on_c, 3, 50, 46
5, 108746, Note_on_c, 3, 50, 0
5, 108750, Note_on_c, 3, 52, 47
5, 108776, Note_on_c, 3, 52, 0
5, 108780, Note_on_c, 3, 54, 46
5, 108806, Note_on_c, 3, 54, 0
5, 108810, Note_on_c, 3, 52, 45
5, 108836, Note_on_c, 3, 52, 0
5, 108840, Note_on_c, 3, 50, 45
5, 108866, Note_on_c, 3, 50, 0
5, 108870, Note_on_c, 3, 52, 44
5, 108896, Note_on_c, 3, 52, 0
5, 108900, Note_on_c, 3, 54, 42
5, 108926, Note_on_c, 3, 54, 0
5, 108930, Note_on_c, 3, 52, 41
5, 108956, Note_on_c, 3, 52, 0
5, 108960, Note_on_c, 3, 50, 38
5, 108986, Note_on_c, 3, 50, 0
5, 108990, Note_on_c, 3, 52, 38
5, 109016, Note_on_c, 3, 52, 0
5, 109020, Note_on_c, 3, 54, 38
5, 109046, Note_on_c, 3, 54, 0
5, 109050, Note_on_c, 3, 52, 37
5, 109076, Note_on_c, 3, 52, 0
5, 109080, Note_on_c, 3, 50, 34
5, 109132, Note_on_c, 3, 50, 0
5, 109440, Note_on_c, 3, 59, 79
5, 109466, Note_on_c, 3, 59, 0
5, 109470, Note_on_c, 3, 57, 77
5, 109496, Note_on_c, 3, 57, 0
5, 109500, Note_on_c, 3, 59, 79
5, 109526, Note_on_c, 3, 59, 0
5, 109530, Note_on_c, 3, 54, 79
5, 109556, Note_on_c, 3, 54, 0
5, 109560, Note_on_c, 3, 55, 79
5, 109586, Note_on_c, 3, 55, 0
5, 109590, Note_on_c, 3, 54, 79
5, 109616, Note_on_c, 3, 54, 0
5, 109620, Note_on_c, 3, 55, 78
5, 109646, Note_on_c, 3, 55, 0
5, 109650, Note_on_c, 3, 52, 78
5, 109676, Note_on_c, 3, 52, 0
5, 109680, Note_on_c, 3, 57, 78
5, 109706, Note_on_c, 3, 57, 0
5, 109710, Note_on_c, 3, 55, 77
5, 109736, Note_on_c, 3, 55, 0
5, 109740, Note_on_c, 3, 57, 76
5, 109766, Note_on_c, 3, 57, 0
5, 109770, Note_on_c, 3, 52, 76
5, 109796, Note_on_c, 3, 52, 0
5, 109800, Note_on_c, 3, 54, 77
5, 109826, Note_on_c, 3, 54, 0
5, 109830, Note_on_c, 3, 52, 77
5, 109856, Note_on_c, 3, 52, 0
5, 109860, Note_on_c, 3, 54, 78
5, 109886, Note_on_c, 3, 54, 0
5, 109890, Note_on_c, 3, 50, 77
5, 109916, Note_on_c, 3, 50, 0
5, 109920, Note_on_c, 3, 55, 76
5, 109946, Note_on_c, 3, 55, 0
5, 109950, Note_on_c, 3, 54, 75
5, 109976, Note_on_c, 3, 54, 0
5, 109980, Note_on_c, 3, 55, 76
5, 110006, Note_on_c, 3, 55, 0
5, 110010, Note_on_c, 3, 50, 77
5, 110036, Note_on_c, 3, 50, 0
5, 110040, Note_on_c, 3, 52, 77
5, 110066, Note_on_c, 3, 52, 0
5, 110070, Note_on_c, 3, 50, 77
5, 110096, Note_on_c, 3, 50, 0
5, 110100, Note_on_c, 3, 52, 77
5, 110126, Note_on_c, 3, 52, 0
5, 110130, Note_on_c, 3, 49, 76
5, 110156, Note_on_c, 3, 49, 0
5, 110160, Note_on_c, 3, 54, 76
5, 110186, Note_on_c, 3, 54, 0
5, 110190, Note_on_c, 3, 52, 76
5, 110216, Note_on_c, 3, 52, 0
5, 110220, Note_on_c, 3, 54, 77
5, 110246, Note_on_c, 3, 54, 0
5, 110250, Note_on_c, 3, 49, 76
5, 110276, Note_on_c, 3, 49, 0
5, 110280, Note_on_c, 3, 50, 76
5, 110306, Note_on_c, 3, 50, 0
5, 110310, Note_on_c, 3, 49, 76
5, 110336, Note_on_c, 3, 49, 0
5, 110340, Note_on_c, 3, 50, 76
5, 110366, Note_on_c, 3, 50, 0
5, 110370, Note_on_c, 3, 47, 77
5, 110396, Note_on_c, 3, 47, 0
5, 110400, Note_on_c, 3, 52, 78
5, 110426, Note_on_c, 3, 52, 0
5, 110430, Note_on_c, 3, 50, 77
5, 110456, Note_on_c, 3, 50, 0
5, 110460, Note_on_c, 3, 52, 77
5, 110486, Note_on_c, 3, 52, 0
5, 110490, Note_on_c, 3, 47, 77
5, 110516, Note_on_c, 3, 47, 0
5, 110520, Note_on_c, 3, 49, 76
5, 110546, Note_on_c, 3, 49, 0
5, 110550, Note_on_c, 3, 47, 76
5, 110576, Note_on_c, 3, 47, 0
5, 110580, Note_on_c, 3, 49, 76
5, 110606, Note_on_c, 3, 49, 0
5, 110610, Note_on_c, 3, 45, 76
5, 110636, Note_on_c, 3, 45, 0
5, 110640, Note_on_c, 3, 50, 71
5, 110786, Note_on_c, 3, 50, 0
5, 110790, Note_on_c, 3, 52, 77
5, 110816, Note_on_c, 3, 52, 0
5, 110820, Note_on_c, 3, 50, 77
5, 110846, Note_on_c, 3, 50, 0
5, 110850, Note_on_c, 3, 52, 76
5, 110876, Note_on_c, 3, 52, 0
5, 110880, Note_on_c, 3, 49, 73
5, 110985, Note_on_c, 3, 49, 0
5, 111000, Note_on_c, 3, 50, 64
5, 111105, Note_on_c, 3, 50, 0
5, 111180, Note_on_c, 3, 50, 68
5, 111232, Note_on_c, 3, 50, 0
5, 111240, Note_on_c, 3, 50, 67
5, 111345, Note_on_c, 3, 50, 0
5, 111420, Note_on_c, 3, 49, 63
5, 111472, Note_on_c, 3, 49, 0
5, 111480, Note_on_c, 3, 49, 63
5, 111585, Note_on_c, 3, 49, 0
5, 111660, Note_on_c, 3, 47, 59
5, 111712, Note_on_c, 3, 47, 0
5, 111720, Note_on_c, 3, 47, 59
5, 111825, Note_on_c, 3, 47, 0
5, 111900, Note_on_c, 3, 45, 57
5, 111952, Note_on_c, 3, 45, 0
5, 111960, Note_on_c, 3, 45, 56
5, 112065, Note_on_c, 3, 45, 0
5, 112140, Note_on_c, 3, 43, 55
5, 112192, Note_on_c, 3, 43, 0
5, 112200, Note_on_c, 3, 43, 53
5, 112305, Note_on_c, 3, 43, 0
5, 112320, Note_on_c, 3, 42, 49
5, 112425, Note_on_c, 3, 42, 0
5, 112710, Note_on_c, 3, 38, 72
5, 112736, Note_on_c, 3, 38, 0
5, 112740, Note_on_c, 3, 42, 70
5, 112766, Note_on_c, 3, 42, 0
5, 112770, Note_on_c, 3, 38, 70
5, 112796, Note_on_c, 3, 38, 0
5, 112800, Note_on_c, 3, 45, 70
5, 112826, Note_on_c, 3, 45, 0
5, 112830, Note_on_c, 3, 42, 70
5, 112856, Note_on_c, 3, 42, 0
5, 112860, Note_on_c, 3, 50, 70
5, 112886, Note_on_c, 3, 50, 0
5, 112890, Note_on_c, 3, 45, 70
5, 112916, Note_on_c, 3, 45, 0
5, 112920, Note_on_c, 3, 54, 69
5, 113025, Note_on_c, 3, 54, 0
5, 113430, Note_on_c, 3, 45, 69
5, 113456, Note_on_c, 3, 45, 0
5, 113460, Note_on_c, 3, 50, 68
5, 113486, Note_on_c, 3, 50, 0
5, 113490, Note_on_c, 3, 45, 68
5, 113516, Note_on_c, 3, 45, 0
5, 113520, Note_on_c, 3, 54, 68
5, 113546, Note_on_c, 3, 54, 0
5, 113550, Note_on_c, 3, 50, 68
5, 113576, Note_on_c, 3, 50, 0
5, 113580, Note_on_c, 3, 57, 68
5, 113606, Note_on_c, 3, 57, 0
5, 113610, Note_on_c, 3, 54, 68
5, 113636, Note_on_c, 3, 54, 0
5, 113640, Note_on_c, 3, 62, 64
5, 113692, Note_on_c, 3, 62, 0
5, 113910, Note_on_c, 3, 62, 64
5, 113936, Note_on_c, 3, 62, 0
5, 113940, Note_on_c, 3, 57, 64
5, 113966, Note_on_c, 3, 57, 0
5, 113970, Note_on_c, 3, 62, 64
5, 113996, Note_on_c, 3, 62, 0
5, 114000, Note_on_c, 3, 54, 64
5, 114026, Note_on_c, 3, 54, 0
5, 114030, Note_on_c, 3, 57, 64
5, 114056, Note_on_c, 3, 57, 0
5, 114060, Note_on_c, 3, 50, 64
5, 114086, Note_on_c, 3, 50, 0
5, 114090, Note_on_c, 3, 54, 64
5, 114116, Note_on_c, 3, 54, 0
5, 114120, Note_on_c, 3, 45, 64
5, 114172, Note_on_c, 3, 45, 0
5, 114390, Note_on_c, 3, 57, 64
5, 114416, Note_on_c, 3, 57, 0
5, 114420, Note_on_c, 3, 54, 64
5, 114446, Note_on_c, 3, 54, 0
5, 114450, Note_on_c, 3, 57, 64
5, 114476, Note_on_c, 3, 57, 0
5, 114480, Note_on_c, 3, 50, 64
5, 114506, Note_on_c, 3, 50, 0
5, 114510, Note_on_c, 3, 54, 64
5, 114536, Note_on_c, 3, 54, 0
5, 114540, Note_on_c, 3, 45, 64
5, 114566, Note_on_c, 3, 45, 0
5, 114570, Note_on_c, 3, 50, 64
5, 114596, Note_on_c, 3, 50, 0
5, 114600, Note_on_c, 3, 42, 64
5, 114626, Note_on_c, 3, 42, 0
5, 114630, Note_on_c, 3, 54, 64
5, 114656, Note_on_c, 3, 54, 0
5, 114660, Note_on_c, 3, 50, 64
5, 114686, Note_on_c, 3, 50, 0
5, 114690, Note_on_c, 3, 54, 64
5, 114716, Note_on_c, 3, 54, 0
5, 114720, Note_on_c, 3, 45, 64
5, 114746, Note_on_c, 3, 45, 0
5, 114750, Note_on_c, 3, 50, 64
5, 114776, Note_on_c, 3, 50, 0
5, 114780, Note_on_c, 3, 42, 64
5, 114806, Note_on_c, 3, 42, 0
5, 114810, Note_on_c, 3, 45, 64
5, 114836, Note_on_c, 3, 45, 0
5, 114840, Note_on_c, 3, 38, 64
5, 114866, Note_on_c, 3, 38, 0
5, 114870, Note_on_c, 3, 40, 54
5, 114896, Note_on_c, 3, 40, 0
5, 114900, Note_on_c, 3, 42, 51
5, 114926, Note_on_c, 3, 42, 0
5, 114930, Note_on_c, 3, 40, 52
5, 114956, Note_on_c, 3, 40, 0
5, 114960, Note_on_c, 3, 38, 55
5, 114986, Note_on_c, 3, 38, 0
5, 114990, Note_on_c, 3, 42, 53
5, 115016, Note_on_c, 3, 42, 0
5, 115020, Note_on_c, 3, 40, 53
5, 115046, Note_on_c, 3, 40, 0
5, 115050, Note_on_c, 3, 43, 54
5, 115076, Note_on_c, 3, 43, 0
5, 115080, Note_on_c, 3, 42, 57
5, 115106, Note_on_c, 3, 42, 0
5, 115110, Note_on_c, 3, 43, 57
5, 115136, Note_on_c, 3, 43, 0
5, 115140, Note_on_c, 3, 45, 57
5, 115166, Note_on_c, 3, 45, 0
5, 115170, Note_on_c, 3, 43, 58
5, 115196, Note_on_c, 3, 43, 0
5, 115200, Note_on_c, 3, 42, 59
5, 115226, Note_on_c, 3, 42, 0
5, 115230, Note_on_c, 3, 45, 61
5, 115256, Note_on_c, 3, 45, 0
5, 115260, Note_on_c, 3, 43, 60
5, 115286, Note_on_c, 3, 43, 0
5, 115290, Note_on_c, 3, 47, 63
5, 115316, Note_on_c, 3, 47, 0
5, 115320, Note_on_c, 3, 45, 63
5, 115346, Note_on_c, 3, 45, 0
5, 115350, Note_on_c, 3, 47, 63
5, 115376, Note_on_c, 3, 47, 0
5, 115380, Note_on_c, 3, 49, 62
5, 115406, Note_on_c, 3, 49, 0
5, 115410, Note_on_c, 3, 47, 63
5, 115436, Note_on_c, 3, 47, 0
5, 115440, Note_on_c, 3, 45, 64
5, 115466, Note_on_c, 3, 45, 0
5, 115470, Note_on_c, 3, 49, 63
5, 115496, Note_on_c, 3, 49, 0
5, 115500, Note_on_c, 3, 47, 64
5, 115526, Note_on_c, 3, 47, 0
5, 115530, Note_on_c, 3, 50, 65
5, 115556, Note_on_c, 3, 50, 0
5, 115560, Note_on_c, 3, 49, 66
5, 115586, Note_on_c, 3, 49, 0
5, 115590, Note_on_c, 3, 50, 67
5, 115616, Note_on_c, 3, 50, 0
5, 115620, Note_on_c, 3, 52, 67
5, 115646, Note_on_c, 3, 52, 0
5, 115650, Note_on_c, 3, 50, 67
5, 115676, Note_on_c, 3, 50, 0
5, 115680, Note_on_c, 3, 49, 67
5, 115706, Note_on_c, 3, 49, 0
5, 115710, Note_on_c, 3, 52, 67
5, 115736, Note_on_c, 3, 52, 0
5, 115740, Note_on_c, 3, 50, 67
5, 115766, Note_on_c, 3, 50, 0
5, 115770, Note_on_c, 3, 54, 69
5, 115796, Note_on_c, 3, 54, 0
5, 115800, Note_on_c, 3, 52, 69
5, 115826, Note_on_c, 3, 52, 0
5, 115830, Note_on_c, 3, 54, 69
5, 115856, Note_on_c, 3, 54, 0
5, 115860, Note_on_c, 3, 55, 69
5, 115886, Note_on_c, 3, 55, 0
5, 115890, Note_on_c, 3, 54, 71
5, 115916, Note_on_c, 3, 54, 0
5, 115920, Note_on_c, 3, 52, 73
5, 115946, Note_on_c, 3, 52, 0
5, 115950, Note_on_c, 3, 55, 73
5, 115976, Note_on_c, 3, 55, 0
5, 115980, Note_on_c, 3, 54, 73
5, 116006, Note_on_c, 3, 54, 0
5, 116010, Note_on_c, 3, 57, 76
5, 116036, Note_on_c, 3, 57, 0
5, 116040, Note_on_c, 3, 55, 76
5, 116066, Note_on_c, 3, 55, 0
5, 116070, Note_on_c, 3, 57, 77
5, 116096, Note_on_c, 3, 57, 0
5, 116100, Note_on_c, 3, 59, 78
5, 116126, Note_on_c, 3, 59, 0
5, 116130, Note_on_c, 3, 57, 78
5, 116156, Note_on_c, 3, 57, 0
5, 116160, Note_on_c, 3, 55, 79
5, 116186, Note_on_c, 3, 55, 0
5, 116190, Note_on_c, 3, 59, 79
5, 116216, Note_on_c, 3, 59, 0
5, 116220, Note_on_c, 3, 57, 80
5, 116246, Note_on_c, 3, 57, 0
5, 116250, Note_on_c, 3, 55, 81
5, 116276, Note_on_c, 3, 55, 0
5, 116280, Note_on_c, 3, 62, 82
5, 116306, Note_on_c, 3, 62, 0
5, 116310, Note_on_c, 3, 61, 85
5, 116336, Note_on_c, 3, 61, 0
5, 116340, Note_on_c, 3, 62, 85
5, 116366, Note_on_c, 3, 62, 0
5, 116370, Note_on_c, 3, 61, 85
5, 116396, Note_on_c, 3, 61, 0
5, 116400, Note_on_c, 3, 62, 85
5, 116426, Note_on_c, 3, 62, 0
5, 116430, Note_on_c, 3, 61, 87
5, 116456, Note_on_c, 3, 61, 0
5, 116460, Note_on_c, 3, 62, 86
5, 116486, Note_on_c, 3, 62, 0
5, 116490, Note_on_c, 3, 61, 86
5, 116516, Note_on_c, 3, 61, 0
5, 116520, Note_on_c, 3, 62, 76
5, 116635, Note_on_c, 3, 62, 0
5, 116760, Note_on_c, 3, 50, 86
5, 116786, Note_on_c, 3, 50, 0
5, 116790, Note_on_c, 3, 52, 87
5, 116816, Note_on_c, 3, 52, 0
5, 116820, Note_on_c, 3, 54, 87
5, 116846, Note_on_c, 3, 54, 0
5, 116850, Note_on_c, 3, 52, 86
5, 116876, Note_on_c, 3, 52, 0
5, 116880, Note_on_c, 3, 50, 86
5, 116906, Note_on_c, 3, 50, 0
5, 116910, Note_on_c, 3, 52, 86
5, 116936, Note_on_c, 3, 52, 0
5, 116940, Note_on_c, 3, 54, 86
5, 116966, Note_on_c, 3, 54, 0
5, 116970, Note_on_c, 3, 52, 86
5, 116996, Note_on_c, 3, 52, 0
5, 117000, Note_on_c, 3, 50, 86
5, 117115, Note_on_c, 3, 50, 0
5, 117300, Note_on_c, 3, 62, 78
5, 117352, Note_on_c, 3, 62, 0
5, 117360, Note_on_c, 3, 50, 78
5, 117465, Note_on_c, 3, 50, 0
5, 117540, Note_on_c, 3, 50, 81
5, 117592, Note_on_c, 3, 50, 0
5, 117600, Note_on_c, 3, 38, 87
5, 117705, Note_on_c, 3, 38, 0
5, 117705, End_track
6, 0, Start_track
6, 0, MIDI_port, 0
6, 0, Title_t, "Roland SCC-1 Soundcard"
6, 0, Program_c, 4, 19
6, 0, Control_c, 4, 7, 80
6, 0, Control_c, 4, 10, 90
6, 30, Program_c, 4, 19
6, 30, Control_c, 4, 0, 0
6, 30, Control_c, 4, 11, 110
6, 30, Control_c, 4, 64, 0
6, 30, Control_c, 4, 91, 40
6, 30, Control_c, 4, 93, 10
6, 570, Note_on_c, 4, 57, 63
6, 596, Note_on_c, 4, 57, 0
6, 600, Note_on_c, 4, 62, 70
6, 720, Note_on_c, 4, 62, 0
6, 1530, Note_on_c, 4, 45, 66
6, 1556, Note_on_c, 4, 45, 0
6, 1560, Note_on_c, 4, 50, 74
6, 1680, Note_on_c, 4, 50, 0
6, 2010, Note_on_c, 4, 57, 64
6, 2036, Note_on_c, 4, 57, 0
6, 2040, Note_on_c, 4, 62, 69
6, 2160, Note_on_c, 4, 62, 0
6, 3780, Note_on_c, 4, 62, 74
6, 3806, Note_on_c, 4, 62, 0
6, 3810, Note_on_c, 4, 59, 68
6, 3836, Note_on_c, 4, 59, 0
6, 3840, Note_on_c, 4, 61, 72
6, 3866, Note_on_c, 4, 61, 0
6, 3870, Note_on_c, 4, 57, 73
6, 3896, Note_on_c, 4, 57, 0
6, 3900, Note_on_c, 4, 59, 68
6, 3926, Note_on_c, 4, 59, 0
6, 3930, Note_on_c, 4, 52, 70
6, 3956, Note_on_c, 4, 52, 0
6, 3960, Note_on_c, 4, 57, 69
6, 3986, Note_on_c, 4, 57, 0
6, 3990, Note_on_c, 4, 52, 65
6, 4016, Note_on_c, 4, 52, 0
6, 4020, Note_on_c, 4, 45, 73
6, 4200, Note_on_c, 4, 45, 0
6, 7320, Note_on_c, 4, 50, 90
6, 7680, Note_on_c, 4, 50, 0
6, 7805, Program_c, 4, 19
6, 7805, Control_c, 4, 0, 0
6, 7805, Control_c, 4, 11, 110
6, 7805, Control_c, 4, 64, 0
6, 7805, Control_c, 4, 91, 40
6, 7805, Control_c, 4, 93, 40
6, 7805, Control_c, 4, 7, 95
6, 7805, Control_c, 4, 10, 100
6, 7810, Note_on_c, 4, 69, 75
6, 7915, Note_on_c, 4, 69, 0
6, 7930, Note_on_c, 4, 71, 70
6, 8155, Note_on_c, 4, 71, 0
6, 8170, Note_on_c, 4, 69, 68
6, 8335, Note_on_c, 4, 69, 0
6, 8350, Note_on_c, 4, 74, 67
6, 8402, Note_on_c, 4, 74, 0
6, 8410, Note_on_c, 4, 76, 68
6, 8462, Note_on_c, 4, 76, 0
6, 8470, Note_on_c, 4, 78, 68
6, 8522, Note_on_c, 4, 78, 0
6, 8530, Note_on_c, 4, 79, 70
6, 8582, Note_on_c, 4, 79, 0
6, 8590, Note_on_c, 4, 81, 71
6, 8642, Note_on_c, 4, 81, 0
6, 8650, Note_on_c, 4, 78, 73
6, 8875, Note_on_c, 4, 78, 0
6, 8890, Note_on_c, 4, 71, 69
6, 8995, Note_on_c, 4, 71, 0
6, 9070, Note_on_c, 4, 73, 72
6, 9122, Note_on_c, 4, 73, 0
6, 9130, Note_on_c, 4, 74, 71
6, 9182, Note_on_c, 4, 74, 0
6, 9190, Note_on_c, 4, 78, 70
6, 9242, Note_on_c, 4, 78, 0
6, 9250, Note_on_c, 4, 76, 69
6, 9302, Note_on_c, 4, 76, 0
6, 9310, Note_on_c, 4, 74, 69
6, 9362, Note_on_c, 4, 74, 0
6, 9370, Note_on_c, 4, 73, 69
6, 9422, Note_on_c, 4, 73, 0
6, 9430, Note_on_c, 4, 69, 70
6, 9482, Note_on_c, 4, 69, 0
6, 9550, Note_on_c, 4, 69, 69
6, 9602, Note_on_c, 4, 69, 0
6, 9610, Note_on_c, 4, 71, 70
6, 9662, Note_on_c, 4, 71, 0
6, 9670, Note_on_c, 4, 74, 70
6, 9722, Note_on_c, 4, 74, 0
6, 9730, Note_on_c, 4, 67, 70
6, 9782, Note_on_c, 4, 67, 0
6, 9790, Note_on_c, 4, 71, 70
6, 9842, Note_on_c, 4, 71, 0
6, 9850, Note_on_c, 4, 69, 70
6, 9902, Note_on_c, 4, 69, 0
6, 9910, Note_on_c, 4, 73, 70
6, 9962, Note_on_c, 4, 73, 0
6, 9970, Note_on_c, 4, 66, 70
6, 10022, Note_on_c, 4, 66, 0
6, 10030, Note_on_c, 4, 69, 70
6, 10082, Note_on_c, 4, 69, 0
6, 10090, Note_on_c, 4, 67, 70
6, 10142, Note_on_c, 4, 67, 0
6, 10150, Note_on_c, 4, 71, 70
6, 10202, Note_on_c, 4, 71, 0
6, 10210, Note_on_c, 4, 64, 70
6, 10262, Note_on_c, 4, 64, 0
6, 10270, Note_on_c, 4, 67, 71
6, 10322, Note_on_c, 4, 67, 0
6, 10330, Note_on_c, 4, 66, 71
6, 10382, Note_on_c, 4, 66, 0
6, 10390, Note_on_c, 4, 62, 70
6, 10442, Note_on_c, 4, 62, 0
6, 10510, Note_on_c, 4, 69, 70
6, 10562, Note_on_c, 4, 69, 0
6, 10570, Note_on_c, 4, 74, 70
6, 10622, Note_on_c, 4, 74, 0
6, 10630, Note_on_c, 4, 78, 70
6, 10682, Note_on_c, 4, 78, 0
6, 10690, Note_on_c, 4, 71, 69
6, 10742, Note_on_c, 4, 71, 0
6, 10750, Note_on_c, 4, 74, 69
6, 10802, Note_on_c, 4, 74, 0
6, 10810, Note_on_c, 4, 73, 69
6, 10862, Note_on_c, 4, 73, 0
6, 10870, Note_on_c, 4, 69, 69
6, 10922, Note_on_c, 4, 69, 0
6, 10930, Note_on_c, 4, 74, 61
6, 11155, Note_on_c, 4, 74, 0
6, 11170, Note_on_c, 4, 73, 58
6, 11395, Note_on_c, 4, 73, 0
6, 11410, Note_on_c, 4, 71, 59
6, 11635, Note_on_c, 4, 71, 0
6, 11650, Note_on_c, 4, 70, 60
6, 11755, Note_on_c, 4, 70, 0
6, 11770, Note_on_c, 4, 71, 59
6, 11875, Note_on_c, 4, 71, 0
6, 11950, Note_on_c, 4, 74, 68
6, 12002, Note_on_c, 4, 74, 0
6, 12010, Note_on_c, 4, 76, 68
6, 12062, Note_on_c, 4, 76, 0
6, 12070, Note_on_c, 4, 79, 68
6, 12122, Note_on_c, 4, 79, 0
6, 12130, Note_on_c, 4, 73, 68
6, 12182, Note_on_c, 4, 73, 0
6, 12190, Note_on_c, 4, 76, 67
6, 12242, Note_on_c, 4, 76, 0
6, 12250, Note_on_c, 4, 74, 67
6, 12302, Note_on_c, 4, 74, 0
6, 12310, Note_on_c, 4, 71, 65
6, 12362, Note_on_c, 4, 71, 0
6, 12370, Note_on_c, 4, 78, 60
6, 12595, Note_on_c, 4, 78, 0
6, 12610, Note_on_c, 4, 77, 64
6, 12715, Note_on_c, 4, 77, 0
6, 12730, Note_on_c, 4, 78, 64
6, 12835, Note_on_c, 4, 78, 0
6, 12850, Note_on_c, 4, 78, 64
6, 12955, Note_on_c, 4, 78, 0
6, 12970, Note_on_c, 4, 76, 59
6, 13195, Note_on_c, 4, 76, 0
6, 13210, Note_on_c, 4, 74, 59
6, 13435, Note_on_c, 4, 74, 0
6, 13450, Note_on_c, 4, 73, 60
6, 13675, Note_on_c, 4, 73, 0
6, 13690, Note_on_c, 4, 71, 60
6, 13915, Note_on_c, 4, 71, 0
6, 13930, Note_on_c, 4, 69, 59
6, 14155, Note_on_c, 4, 69, 0
6, 14170, Note_on_c, 4, 67, 60
6, 14395, Note_on_c, 4, 67, 0
6, 14410, Note_on_c, 4, 66, 60
6, 14635, Note_on_c, 4, 66, 0
6, 14650, Note_on_c, 4, 64, 61
6, 14875, Note_on_c, 4, 64, 0
6, 14890, Note_on_c, 4, 62, 61
6, 14995, Note_on_c, 4, 62, 0
6, 15010, Note_on_c, 4, 78, 58
6, 15115, Note_on_c, 4, 78, 0
6, 15130, Note_on_c, 4, 76, 61
6, 15355, Note_on_c, 4, 76, 0
6, 15370, Note_on_c, 4, 74, 59
6, 15595, Note_on_c, 4, 74, 0
6, 15610, Note_on_c, 4, 73, 58
6, 15835, Note_on_c, 4, 73, 0
6, 15850, Note_on_c, 4, 71, 58
6, 15955, Note_on_c, 4, 71, 0
6, 15970, Note_on_c, 4, 81, 57
6, 16195, Note_on_c, 4, 81, 0
6, 16210, Note_on_c, 4, 80, 58
6, 16435, Note_on_c, 4, 80, 0
6, 16450, Note_on_c, 4, 78, 59
6, 16675, Note_on_c, 4, 78, 0
6, 16690, Note_on_c, 4, 77, 59
6, 16795, Note_on_c, 4, 77, 0
6, 16810, Note_on_c, 4, 78, 59
6, 16915, Note_on_c, 4, 78, 0
6, 16930, Note_on_c, 4, 74, 60
6, 17155, Note_on_c, 4, 74, 0
6, 17170, Note_on_c, 4, 73, 60
6, 17395, Note_on_c, 4, 73, 0
6, 17410, Note_on_c, 4, 71, 60
6, 17635, Note_on_c, 4, 71, 0
6, 17650, Note_on_c, 4, 70, 59
6, 17755, Note_on_c, 4, 70, 0
6, 17770, Note_on_c, 4, 71, 67
6, 17822, Note_on_c, 4, 71, 0
6, 17830, Note_on_c, 4, 74, 67
6, 17882, Note_on_c, 4, 74, 0
6, 17890, Note_on_c, 4, 70, 67
6, 17942, Note_on_c, 4, 70, 0
6, 17950, Note_on_c, 4, 73, 67
6, 18002, Note_on_c, 4, 73, 0
6, 18010, Note_on_c, 4, 71, 67
6, 18062, Note_on_c, 4, 71, 0
6, 18070, Note_on_c, 4, 74, 67
6, 18122, Note_on_c, 4, 74, 0
6, 18130, Note_on_c, 4, 70, 67
6, 18182, Note_on_c, 4, 70, 0
6, 18190, Note_on_c, 4, 73, 67
6, 18242, Note_on_c, 4, 73, 0
6, 18250, Note_on_c, 4, 71, 67
6, 18302, Note_on_c, 4, 71, 0
6, 18310, Note_on_c, 4, 74, 66
6, 18362, Note_on_c, 4, 74, 0
6, 18370, Note_on_c, 4, 70, 66
6, 18422, Note_on_c, 4, 70, 0
6, 18430, Note_on_c, 4, 73, 66
6, 18482, Note_on_c, 4, 73, 0
6, 18490, Note_on_c, 4, 71, 66
6, 18542, Note_on_c, 4, 71, 0
6, 18550, Note_on_c, 4, 74, 65
6, 18602, Note_on_c, 4, 74, 0
6, 18610, Note_on_c, 4, 70, 65
6, 18662, Note_on_c, 4, 70, 0
6, 18670, Note_on_c, 4, 73, 64
6, 18722, Note_on_c, 4, 73, 0
6, 18730, Note_on_c, 4, 71, 64
6, 18782, Note_on_c, 4, 71, 0
6, 18790, Note_on_c, 4, 74, 64
6, 18842, Note_on_c, 4, 74, 0
6, 18850, Note_on_c, 4, 70, 65
6, 18902, Note_on_c, 4, 70, 0
6, 18910, Note_on_c, 4, 73, 65
6, 18962, Note_on_c, 4, 73, 0
6, 18970, Note_on_c, 4, 71, 65
6, 19022, Note_on_c, 4, 71, 0
6, 19030, Note_on_c, 4, 74, 65
6, 19082, Note_on_c, 4, 74, 0
6, 19090, Note_on_c, 4, 70, 66
6, 19142, Note_on_c, 4, 70, 0
6, 19150, Note_on_c, 4, 73, 66
6, 19202, Note_on_c, 4, 73, 0
6, 19210, Note_on_c, 4, 71, 66
6, 19262, Note_on_c, 4, 71, 0
6, 19270, Note_on_c, 4, 69, 68
6, 19296, Note_on_c, 4, 69, 0
6, 19300, Note_on_c, 4, 71, 69
6, 19326, Note_on_c, 4, 71, 0
6, 19330, Note_on_c, 4, 73, 69
6, 19435, Note_on_c, 4, 73, 0
6, 19450, Note_on_c, 4, 73, 62
6, 19555, Note_on_c, 4, 73, 0
6, 19570, Note_on_c, 4, 73, 60
6, 19675, Note_on_c, 4, 73, 0
6, 19690, Note_on_c, 4, 73, 59
6, 19795, Note_on_c, 4, 73, 0
6, 19810, Note_on_c, 4, 73, 58
6, 19915, Note_on_c, 4, 73, 0
6, 19930, Note_on_c, 4, 73, 58
6, 20035, Note_on_c, 4, 73, 0
6, 20050, Note_on_c, 4, 73, 58
6, 20155, Note_on_c, 4, 73, 0
6, 20170, Note_on_c, 4, 73, 58
6, 20275, Note_on_c, 4, 73, 0
6, 20290, Note_on_c, 4, 73, 58
6, 20395, Note_on_c, 4, 73, 0
6, 20410, Note_on_c, 4, 73, 60
6, 20515, Note_on_c, 4, 73, 0
6, 20530, Note_on_c, 4, 73, 58
6, 20635, Note_on_c, 4, 73, 0
6, 20650, Note_on_c, 4, 73, 59
6, 20755, Note_on_c, 4, 73, 0
6, 20770, Note_on_c, 4, 73, 60
6, 20875, Note_on_c, 4, 73, 0
6, 20890, Note_on_c, 4, 73, 61
6, 20995, Note_on_c, 4, 73, 0
6, 21010, Note_on_c, 4, 74, 62
6, 21115, Note_on_c, 4, 74, 0
6, 21130, Note_on_c, 4, 68, 60
6, 21235, Note_on_c, 4, 68, 0
6, 21310, Note_on_c, 4, 73, 69
6, 21362, Note_on_c, 4, 73, 0
6, 21370, Note_on_c, 4, 74, 67
6, 21475, Note_on_c, 4, 74, 0
6, 21490, Note_on_c, 4, 73, 67
6, 21595, Note_on_c, 4, 73, 0
6, 21610, Note_on_c, 4, 74, 69
6, 21715, Note_on_c, 4, 74, 0
6, 21730, Note_on_c, 4, 73, 66
6, 21835, Note_on_c, 4, 73, 0
6, 21850, Note_on_c, 4, 74, 65
6, 21955, Note_on_c, 4, 74, 0
6, 21970, Note_on_c, 4, 73, 69
6, 22075, Note_on_c, 4, 73, 0
6, 22090, Note_on_c, 4, 71, 66
6, 22195, Note_on_c, 4, 71, 0
6, 22210, Note_on_c, 4, 69, 67
6, 22315, Note_on_c, 4, 69, 0
6, 22330, Note_on_c, 4, 68, 67
6, 22435, Note_on_c, 4, 68, 0
6, 22450, Note_on_c, 4, 68, 69
6, 22555, Note_on_c, 4, 68, 0
6, 22570, Note_on_c, 4, 66, 71
6, 22675, Note_on_c, 4, 66, 0
6, 22750, Note_on_c, 4, 69, 67
6, 22802, Note_on_c, 4, 69, 0
6, 22810, Note_on_c, 4, 68, 66
6, 22862, Note_on_c, 4, 68, 0
6, 22870, Note_on_c, 4, 71, 67
6, 22922, Note_on_c, 4, 71, 0
6, 22930, Note_on_c, 4, 68, 64
6, 22982, Note_on_c, 4, 68, 0
6, 22990, Note_on_c, 4, 71, 67
6, 23042, Note_on_c, 4, 71, 0
6, 23050, Note_on_c, 4, 69, 67
6, 23102, Note_on_c, 4, 69, 0
6, 23110, Note_on_c, 4, 73, 67
6, 23162, Note_on_c, 4, 73, 0
6, 23170, Note_on_c, 4, 66, 67
6, 23222, Note_on_c, 4, 66, 0
6, 23230, Note_on_c, 4, 69, 67
6, 23282, Note_on_c, 4, 69, 0
6, 23290, Note_on_c, 4, 67, 67
6, 23342, Note_on_c, 4, 67, 0
6, 23350, Note_on_c, 4, 71, 67
6, 23402, Note_on_c, 4, 71, 0
6, 23410, Note_on_c, 4, 64, 67
6, 23462, Note_on_c, 4, 64, 0
6, 23470, Note_on_c, 4, 67, 66
6, 23522, Note_on_c, 4, 67, 0
6, 23530, Note_on_c, 4, 66, 67
6, 23582, Note_on_c, 4, 66, 0
6, 23590, Note_on_c, 4, 62, 67
6, 23642, Note_on_c, 4, 62, 0
6, 23650, Note_on_c, 4, 69, 67
6, 23875, Note_on_c, 4, 69, 0
6, 23890, Note_on_c, 4, 67, 60
6, 24115, Note_on_c, 4, 67, 0
6, 24130, Note_on_c, 4, 66, 61
6, 24235, Note_on_c, 4, 66, 0
6, 24250, Note_on_c, 4, 64, 61
6, 24355, Note_on_c, 4, 64, 0
6, 24430, Note_on_c, 4, 69, 66
6, 24482, Note_on_c, 4, 69, 0
6, 24490, Note_on_c, 4, 66, 66
6, 24542, Note_on_c, 4, 66, 0
6, 24550, Note_on_c, 4, 69, 64
6, 24602, Note_on_c, 4, 69, 0
6, 24610, Note_on_c, 4, 64, 64
6, 24662, Note_on_c, 4, 64, 0
6, 24670, Note_on_c, 4, 69, 66
6, 24722, Note_on_c, 4, 69, 0
6, 24730, Note_on_c, 4, 66, 65
6, 24782, Note_on_c, 4, 66, 0
6, 24790, Note_on_c, 4, 69, 66
6, 24842, Note_on_c, 4, 69, 0
6, 24850, Note_on_c, 4, 64, 66
6, 24902, Note_on_c, 4, 64, 0
6, 24910, Note_on_c, 4, 69, 66
6, 24962, Note_on_c, 4, 69, 0
6, 24970, Note_on_c, 4, 66, 65
6, 25022, Note_on_c, 4, 66, 0
6, 25030, Note_on_c, 4, 69, 66
6, 25082, Note_on_c, 4, 69, 0
6, 25090, Note_on_c, 4, 64, 64
6, 25142, Note_on_c, 4, 64, 0
6, 25150, Note_on_c, 4, 69, 65
6, 25202, Note_on_c, 4, 69, 0
6, 25210, Note_on_c, 4, 66, 64
6, 25262, Note_on_c, 4, 66, 0
6, 25270, Note_on_c, 4, 69, 64
6, 25322, Note_on_c, 4, 69, 0
6, 25330, Note_on_c, 4, 64, 64
6, 25382, Note_on_c, 4, 64, 0
6, 25390, Note_on_c, 4, 69, 65
6, 25442, Note_on_c, 4, 69, 0
6, 25450, Note_on_c, 4, 66, 66
6, 25502, Note_on_c, 4, 66, 0
6, 25510, Note_on_c, 4, 74, 68
6, 25562, Note_on_c, 4, 74, 0
6, 25570, Note_on_c, 4, 69, 68
6, 25622, Note_on_c, 4, 69, 0
6, 25630, Note_on_c, 4, 74, 66
6, 25682, Note_on_c, 4, 74, 0
6, 25690, Note_on_c, 4, 71, 66
6, 25742, Note_on_c, 4, 71, 0
6, 25750, Note_on_c, 4, 74, 67
6, 25802, Note_on_c, 4, 74, 0
6, 25810, Note_on_c, 4, 69, 68
6, 25862, Note_on_c, 4, 69, 0
6, 25870, Note_on_c, 4, 74, 67
6, 25922, Note_on_c, 4, 74, 0
6, 25930, Note_on_c, 4, 71, 67
6, 25982, Note_on_c, 4, 71, 0
6, 25990, Note_on_c, 4, 74, 67
6, 26042, Note_on_c, 4, 74, 0
6, 26050, Note_on_c, 4, 69, 67
6, 26102, Note_on_c, 4, 69, 0
6, 26110, Note_on_c, 4, 74, 67
6, 26162, Note_on_c, 4, 74, 0
6, 26170, Note_on_c, 4, 71, 67
6, 26222, Note_on_c, 4, 71, 0
6, 26230, Note_on_c, 4, 74, 68
6, 26282, Note_on_c, 4, 74, 0
6, 26290, Note_on_c, 4, 69, 68
6, 26342, Note_on_c, 4, 69, 0
6, 26350, Note_on_c, 4, 74, 68
6, 26402, Note_on_c, 4, 74, 0
6, 26410, Note_on_c, 4, 71, 69
6, 26462, Note_on_c, 4, 71, 0
6, 26470, Note_on_c, 4, 76, 70
6, 26522, Note_on_c, 4, 76, 0
6, 26530, Note_on_c, 4, 71, 70
6, 26582, Note_on_c, 4, 71, 0
6, 26590, Note_on_c, 4, 76, 70
6, 26642, Note_on_c, 4, 76, 0
6, 26650, Note_on_c, 4, 73, 69
6, 26702, Note_on_c, 4, 73, 0
6, 26710, Note_on_c, 4, 76, 69
6, 26762, Note_on_c, 4, 76, 0
6, 26770, Note_on_c, 4, 71, 69
6, 26822, Note_on_c, 4, 71, 0
6, 26830, Note_on_c, 4, 76, 69
6, 26882, Note_on_c, 4, 76, 0
6, 26890, Note_on_c, 4, 73, 68
6, 26942, Note_on_c, 4, 73, 0
6, 26950, Note_on_c, 4, 76, 69
6, 27002, Note_on_c, 4, 76, 0
6, 27010, Note_on_c, 4, 71, 69
6, 27062, Note_on_c, 4, 71, 0
6, 27070, Note_on_c, 4, 76, 70
6, 27122, Note_on_c, 4, 76, 0
6, 27130, Note_on_c, 4, 73, 71
6, 27182, Note_on_c, 4, 73, 0
6, 27190, Note_on_c, 4, 76, 72
6, 27242, Note_on_c, 4, 76, 0
6, 27250, Note_on_c, 4, 71, 72
6, 27302, Note_on_c, 4, 71, 0
6, 27310, Note_on_c, 4, 76, 71
6, 27362, Note_on_c, 4, 76, 0
6, 27370, Note_on_c, 4, 73, 71
6, 27422, Note_on_c, 4, 73, 0
6, 27430, Note_on_c, 4, 81, 72
6, 27482, Note_on_c, 4, 81, 0
6, 27490, Note_on_c, 4, 76, 77
6, 27542, Note_on_c, 4, 76, 0
6, 27550, Note_on_c, 4, 81, 77
6, 27602, Note_on_c, 4, 81, 0
6, 27610, Note_on_c, 4, 78, 77
6, 27662, Note_on_c, 4, 78, 0
6, 27670, Note_on_c, 4, 81, 77
6, 27722, Note_on_c, 4, 81, 0
6, 27730, Note_on_c, 4, 76, 76
6, 27782, Note_on_c, 4, 76, 0
6, 27790, Note_on_c, 4, 81, 78
6, 27842, Note_on_c, 4, 81, 0
6, 27850, Note_on_c, 4, 78, 77
6, 27902, Note_on_c, 4, 78, 0
6, 27910, Note_on_c, 4, 81, 77
6, 27962, Note_on_c, 4, 81, 0
6, 27970, Note_on_c, 4, 76, 78
6, 28022, Note_on_c, 4, 76, 0
6, 28030, Note_on_c, 4, 81, 77
6, 28082, Note_on_c, 4, 81, 0
6, 28090, Note_on_c, 4, 78, 77
6, 28142, Note_on_c, 4, 78, 0
6, 28150, Note_on_c, 4, 81, 77
6, 28202, Note_on_c, 4, 81, 0
6, 28210, Note_on_c, 4, 76, 77
6, 28262, Note_on_c, 4, 76, 0
6, 28270, Note_on_c, 4, 81, 76
6, 28322, Note_on_c, 4, 81, 0
6, 28330, Note_on_c, 4, 78, 78
6, 28382, Note_on_c, 4, 78, 0
6, 28390, Note_on_c, 4, 74, 80
6, 28442, Note_on_c, 4, 74, 0
6, 28450, Note_on_c, 4, 78, 78
6, 28555, Note_on_c, 4, 78, 0
6, 28570, Note_on_c, 4, 76, 64
6, 28795, Note_on_c, 4, 76, 0
6, 28810, Note_on_c, 4, 74, 61
6, 29035, Note_on_c, 4, 74, 0
6, 29050, Note_on_c, 4, 73, 61
6, 29275, Note_on_c, 4, 73, 0
6, 29290, Note_on_c, 4, 71, 62
6, 29515, Note_on_c, 4, 71, 0
6, 29530, Note_on_c, 4, 69, 61
6, 29635, Note_on_c, 4, 69, 0
6, 29890, Note_on_c, 4, 69, 61
6, 29995, Note_on_c, 4, 69, 0
6, 30010, Note_on_c, 4, 69, 60
6, 30115, Note_on_c, 4, 69, 0
6, 30370, Note_on_c, 4, 69, 61
6, 30475, Note_on_c, 4, 69, 0
6, 30490, Note_on_c, 4, 69, 65
6, 30595, Note_on_c, 4, 69, 0
6, 30610, Note_on_c, 4, 69, 67
6, 30835, Note_on_c, 4, 69, 0
6, 30850, Note_on_c, 4, 68, 69
6, 30955, Note_on_c, 4, 68, 0
6, 30970, Note_on_c, 4, 69, 69
6, 31075, Note_on_c, 4, 69, 0
6, 33010, Note_on_c, 4, 74, 64
6, 33235, Note_on_c, 4, 74, 0
6, 33250, Note_on_c, 4, 72, 63
6, 33475, Note_on_c, 4, 72, 0
6, 33490, Note_on_c, 4, 71, 61
6, 33595, Note_on_c, 4, 71, 0
6, 33610, Note_on_c, 4, 69, 61
6, 33835, Note_on_c, 4, 69, 0
6, 33850, Note_on_c, 4, 67, 64
6, 33902, Note_on_c, 4, 67, 0
6, 33910, Note_on_c, 4, 62, 69
6, 33962, Note_on_c, 4, 62, 0
6, 33970, Note_on_c, 4, 67, 64
6, 34862, Note_on_c, 4, 67, 0
6, 34870, Note_on_c, 4, 64, 74
6, 34922, Note_on_c, 4, 64, 0
6, 34930, Note_on_c, 4, 69, 64
6, 35822, Note_on_c, 4, 69, 0
6, 35830, Note_on_c, 4, 69, 73
6, 35882, Note_on_c, 4, 69, 0
6, 35890, Note_on_c, 4, 74, 64
6, 36782, Note_on_c, 4, 74, 0
6, 36790, Note_on_c, 4, 74, 72
6, 36842, Note_on_c, 4, 74, 0
6, 36850, Note_on_c, 4, 79, 74
6, 37622, Note_on_c, 4, 79, 0
6, 37630, Note_on_c, 4, 77, 73
6, 37682, Note_on_c, 4, 77, 0
6, 37690, Note_on_c, 4, 76, 73
6, 37742, Note_on_c, 4, 76, 0
6, 37750, Note_on_c, 4, 79, 76
6, 37802, Note_on_c, 4, 79, 0
6, 37810, Note_on_c, 4, 72, 74
6, 37862, Note_on_c, 4, 72, 0
6, 37870, Note_on_c, 4, 76, 76
6, 37922, Note_on_c, 4, 76, 0
6, 37930, Note_on_c, 4, 77, 75
6, 37982, Note_on_c, 4, 77, 0
6, 37990, Note_on_c, 4, 79, 76
6, 38042, Note_on_c, 4, 79, 0
6, 38050, Note_on_c, 4, 76, 76
6, 38102, Note_on_c, 4, 76, 0
6, 38110, Note_on_c, 4, 77, 74
6, 38162, Note_on_c, 4, 77, 0
6, 38170, Note_on_c, 4, 75, 75
6, 38222, Note_on_c, 4, 75, 0
6, 38230, Note_on_c, 4, 78, 75
6, 38282, Note_on_c, 4, 78, 0
6, 38290, Note_on_c, 4, 71, 74
6, 38395, Note_on_c, 4, 71, 0
6, 38410, Note_on_c, 4, 72, 69
6, 38462, Note_on_c, 4, 72, 0
6, 38470, Note_on_c, 4, 74, 69
6, 38522, Note_on_c, 4, 74, 0
6, 38530, Note_on_c, 4, 71, 69
6, 38582, Note_on_c, 4, 71, 0
6, 38590, Note_on_c, 4, 74, 69
6, 38642, Note_on_c, 4, 74, 0
6, 38650, Note_on_c, 4, 72, 69
6, 38702, Note_on_c, 4, 72, 0
6, 38710, Note_on_c, 4, 74, 69
6, 38762, Note_on_c, 4, 74, 0
6, 38770, Note_on_c, 4, 71, 69
6, 38875, Note_on_c, 4, 71, 0
6, 38890, Note_on_c, 4, 69, 64
6, 38995, Note_on_c, 4, 69, 0
6, 39010, Note_on_c, 4, 67, 64
6, 39115, Note_on_c, 4, 67, 0
6, 39130, Note_on_c, 4, 66, 64
6, 39235, Note_on_c, 4, 66, 0
6, 39250, Note_on_c, 4, 67, 64
6, 39355, Note_on_c, 4, 67, 0
6, 39370, Note_on_c, 4, 66, 64
6, 39595, Note_on_c, 4, 66, 0
6, 39610, Note_on_c, 4, 64, 64
6, 39715, Note_on_c, 4, 64, 0
6, 39790, Note_on_c, 4, 76, 69
6, 39842, Note_on_c, 4, 76, 0
6, 39850, Note_on_c, 4, 73, 68
6, 39902, Note_on_c, 4, 73, 0
6, 39910, Note_on_c, 4, 74, 69
6, 39962, Note_on_c, 4, 74, 0
6, 39970, Note_on_c, 4, 71, 68
6, 40022, Note_on_c, 4, 71, 0
6, 40030, Note_on_c, 4, 74, 68
6, 40082, Note_on_c, 4, 74, 0
6, 40090, Note_on_c, 4, 73, 68
6, 40142, Note_on_c, 4, 73, 0
6, 40150, Note_on_c, 4, 74, 68
6, 40202, Note_on_c, 4, 74, 0
6, 40210, Note_on_c, 4, 71, 68
6, 40262, Note_on_c, 4, 71, 0
6, 40270, Note_on_c, 4, 74, 68
6, 40322, Note_on_c, 4, 74, 0
6, 40330, Note_on_c, 4, 73, 68
6, 40382, Note_on_c, 4, 73, 0
6, 40390, Note_on_c, 4, 74, 69
6, 40442, Note_on_c, 4, 74, 0
6, 40450, Note_on_c, 4, 71, 68
6, 40502, Note_on_c, 4, 71, 0
6, 40510, Note_on_c, 4, 74, 68
6, 40562, Note_on_c, 4, 74, 0
6, 40570, Note_on_c, 4, 73, 68
6, 40622, Note_on_c, 4, 73, 0
6, 40630, Note_on_c, 4, 69, 68
6, 40682, Note_on_c, 4, 69, 0
6, 40690, Note_on_c, 4, 74, 68
6, 40742, Note_on_c, 4, 74, 0
6, 40750, Note_on_c, 4, 69, 68
6, 40802, Note_on_c, 4, 69, 0
6, 40810, Note_on_c, 4, 71, 67
6, 40862, Note_on_c, 4, 71, 0
6, 40870, Note_on_c, 4, 74, 67
6, 40922, Note_on_c, 4, 74, 0
6, 40930, Note_on_c, 4, 67, 68
6, 40982, Note_on_c, 4, 67, 0
6, 40990, Note_on_c, 4, 71, 69
6, 41042, Note_on_c, 4, 71, 0
6, 41050, Note_on_c, 4, 69, 70
6, 41102, Note_on_c, 4, 69, 0
6, 41110, Note_on_c, 4, 73, 70
6, 41162, Note_on_c, 4, 73, 0
6, 41170, Note_on_c, 4, 66, 70
6, 41222, Note_on_c, 4, 66, 0
6, 41230, Note_on_c, 4, 69, 70
6, 41282, Note_on_c, 4, 69, 0
6, 41290, Note_on_c, 4, 67, 69
6, 41342, Note_on_c, 4, 67, 0
6, 41350, Note_on_c, 4, 71, 68
6, 41402, Note_on_c, 4, 71, 0
6, 41410, Note_on_c, 4, 64, 68
6, 41462, Note_on_c, 4, 64, 0
6, 41470, Note_on_c, 4, 67, 70
6, 41522, Note_on_c, 4, 67, 0
6, 41530, Note_on_c, 4, 66, 70
6, 41582, Note_on_c, 4, 66, 0
6, 41590, Note_on_c, 4, 69, 70
6, 41642, Note_on_c, 4, 69, 0
6, 41650, Note_on_c, 4, 62, 70
6, 41702, Note_on_c, 4, 62, 0
6, 41710, Note_on_c, 4, 78, 70
6, 41762, Note_on_c, 4, 78, 0
6, 41770, Note_on_c, 4, 76, 69
6, 41822, Note_on_c, 4, 76, 0
6, 41830, Note_on_c, 4, 79, 70
6, 41882, Note_on_c, 4, 79, 0
6, 41890, Note_on_c, 4, 78, 73
6, 41942, Note_on_c, 4, 78, 0
6, 41950, Note_on_c, 4, 81, 71
6, 42002, Note_on_c, 4, 81, 0
6, 42010, Note_on_c, 4, 79, 74
6, 42062, Note_on_c, 4, 79, 0
6, 42070, Note_on_c, 4, 81, 79
6, 42122, Note_on_c, 4, 81, 0
6, 42130, Note_on_c, 4, 78, 81
6, 42182, Note_on_c, 4, 78, 0
6, 42190, Note_on_c, 4, 76, 82
6, 42242, Note_on_c, 4, 76, 0
6, 42250, Note_on_c, 4, 78, 82
6, 42355, Note_on_c, 4, 78, 0
6, 42370, Note_on_c, 4, 76, 86
6, 42422, Note_on_c, 4, 76, 0
6, 42430, Note_on_c, 4, 74, 85
6, 42482, Note_on_c, 4, 74, 0
6, 42490, Note_on_c, 4, 74, 64
6, 42542, Note_on_c, 4, 74, 0
6, 42550, Note_on_c, 4, 69, 64
6, 42602, Note_on_c, 4, 69, 0
6, 42610, Note_on_c, 4, 78, 64
6, 42715, Note_on_c, 4, 78, 0
6, 42730, Note_on_c, 4, 76, 64
6, 42955, Note_on_c, 4, 76, 0
6, 42970, Note_on_c, 4, 74, 61
6, 43195, Note_on_c, 4, 74, 0
6, 43210, Note_on_c, 4, 73, 59
6, 43435, Note_on_c, 4, 73, 0
6, 43450, Note_on_c, 4, 71, 58
6, 43675, Note_on_c, 4, 71, 0
6, 43690, Note_on_c, 4, 69, 59
6, 43915, Note_on_c, 4, 69, 0
6, 43930, Note_on_c, 4, 67, 59
6, 44275, Note_on_c, 4, 67, 0
6, 44290, Note_on_c, 4, 66, 60
6, 44395, Note_on_c, 4, 66, 0
6, 44410, Note_on_c, 4, 64, 60
6, 44635, Note_on_c, 4, 64, 0
6, 44710, Note_on_c, 4, 62, 72
6, 44815, Note_on_c, 4, 62, 0
6, 44830, Note_on_c, 4, 62, 72
6, 44882, Note_on_c, 4, 62, 0
6, 44950, Note_on_c, 4, 62, 71
6, 45055, Note_on_c, 4, 62, 0
6, 45070, Note_on_c, 4, 61, 71
6, 45122, Note_on_c, 4, 61, 0
6, 45130, Note_on_c, 4, 62, 70
6, 45182, Note_on_c, 4, 62, 0
6, 45190, Note_on_c, 4, 74, 72
6, 45295, Note_on_c, 4, 74, 0
6, 45310, Note_on_c, 4, 74, 72
6, 45362, Note_on_c, 4, 74, 0
6, 45430, Note_on_c, 4, 74, 77
6, 45535, Note_on_c, 4, 74, 0
6, 45550, Note_on_c, 4, 73, 77
6, 45602, Note_on_c, 4, 73, 0
6, 45670, Note_on_c, 4, 74, 79
6, 45775, Note_on_c, 4, 74, 0
6, 45790, Note_on_c, 4, 74, 79
6, 45842, Note_on_c, 4, 74, 0
6, 45910, Note_on_c, 4, 74, 80
6, 46015, Note_on_c, 4, 74, 0
6, 46030, Note_on_c, 4, 73, 80
6, 46075, Program_c, 4, 19
6, 46075, Control_c, 4, 0, 0
6, 46075, Control_c, 4, 11, 110
6, 46075, Control_c, 4, 64, 0
6, 46075, Control_c, 4, 91, 40
6, 46075, Control_c, 4, 93, 40
6, 46075, Control_c, 4, 7, 100
6, 46076, Control_c, 4, 10, 80
6, 46082, Note_on_c, 4, 73, 0
6, 46082, Note_on_c, 4, 66, 79
6, 46307, Note_on_c, 4, 66, 0
6, 46322, Note_on_c, 4, 59, 64
6, 46427, Note_on_c, 4, 59, 0
6, 46562, Note_on_c, 4, 71, 73
6, 46907, Note_on_c, 4, 71, 0
6, 46922, Note_on_c, 4, 69, 80
6, 46974, Note_on_c, 4, 69, 0
6, 46982, Note_on_c, 4, 67, 80
6, 47034, Note_on_c, 4, 67, 0
6, 47042, Note_on_c, 4, 65, 88
6, 47104, Note_on_c, 4, 65, 0
6, 47325, Note_on_c, 4, 64, 64
6, 47670, Note_on_c, 4, 64, 0
6, 47685, Note_on_c, 4, 63, 64
6, 47910, Note_on_c, 4, 63, 0
6, 47925, Note_on_c, 4, 64, 64
6, 47977, Note_on_c, 4, 64, 0
6, 47985, Note_on_c, 4, 66, 56
6, 48037, Note_on_c, 4, 66, 0
6, 48045, Note_on_c, 4, 64, 50
6, 48150, Note_on_c, 4, 64, 0
6, 48165, Note_on_c, 4, 59, 64
6, 48270, Note_on_c, 4, 59, 0
6, 48285, Note_on_c, 4, 64, 64
6, 49110, Note_on_c, 4, 64, 0
6, 49125, Note_on_c, 4, 66, 64
6, 49230, Note_on_c, 4, 66, 0
6, 49245, Note_on_c, 4, 67, 72
6, 49350, Note_on_c, 4, 67, 0
6, 49365, Note_on_c, 4, 69, 80
6, 49417, Note_on_c, 4, 69, 0
6, 49425, Note_on_c, 4, 67, 80
6, 49477, Note_on_c, 4, 67, 0
6, 49485, Note_on_c, 4, 65, 74
6, 49710, Note_on_c, 4, 65, 0
6, 49725, Note_on_c, 4, 62, 72
6, 49905, Note_on_c, 4, 62, 0
6, 50265, Note_on_c, 4, 69, 91
6, 50317, Note_on_c, 4, 69, 0
6, 50325, Note_on_c, 4, 67, 90
6, 50377, Note_on_c, 4, 67, 0
6, 50385, Note_on_c, 4, 65, 88
6, 50437, Note_on_c, 4, 65, 0
6, 50445, Note_on_c, 4, 67, 88
6, 50550, Note_on_c, 4, 67, 0
6, 50565, Note_on_c, 4, 69, 85
6, 50670, Note_on_c, 4, 69, 0
6, 50685, Note_on_c, 4, 70, 71
6, 50831, Note_on_c, 4, 70, 0
6, 50835, Note_on_c, 4, 69, 92
6, 50861, Note_on_c, 4, 69, 0
6, 50865, Note_on_c, 4, 67, 91
6, 50891, Note_on_c, 4, 67, 0
6, 50895, Note_on_c, 4, 69, 97
6, 50908, Note_on_c, 4, 69, 0
6, 50910, Note_on_c, 4, 70, 96
6, 50923, Note_on_c, 4, 70, 0
6, 50925, Note_on_c, 4, 58, 87
6, 51030, Note_on_c, 4, 58, 0
6, 51045, Note_on_c, 4, 57, 68
6, 51150, Note_on_c, 4, 57, 0
6, 51165, Note_on_c, 4, 57, 69
6, 51630, Note_on_c, 4, 57, 0
6, 51630, End_track
7, 0, Start_track
7, 0, MIDI_port, 0
7, 0, Program_c, 5, 19
7, 0, Control_c, 5, 7, 90
7, 0, Control_c, 5, 10, 60
7, 30, Program_c, 5, 19
7, 30, Control_c, 5, 0, 0
7, 30, Program_c, 5, 19
7, 30, Control_c, 5, 11, 110
7, 30, Control_c, 5, 64, 0
7, 30, Control_c, 5, 91, 20
7, 30, Control_c, 5, 93, 30
7, 150, Note_on_c, 5, 50, 82
7, 176, Note_on_c, 5, 50, 0
7, 180, Note_on_c, 5, 52, 77
7, 206, Note_on_c, 5, 52, 0
7, 210, Note_on_c, 5, 54, 78
7, 236, Note_on_c, 5, 54, 0
7, 240, Note_on_c, 5, 55, 78
7, 266, Note_on_c, 5, 55, 0
7, 270, Note_on_c, 5, 57, 80
7, 296, Note_on_c, 5, 57, 0
7, 300, Note_on_c, 5, 59, 84
7, 326, Note_on_c, 5, 59, 0
7, 330, Note_on_c, 5, 61, 85
7, 356, Note_on_c, 5, 61, 0
7, 360, Note_on_c, 5, 62, 86
7, 480, Note_on_c, 5, 62, 0
7, 630, Note_on_c, 5, 50, 78
7, 656, Note_on_c, 5, 50, 0
7, 660, Note_on_c, 5, 52, 69
7, 686, Note_on_c, 5, 52, 0
7, 690, Note_on_c, 5, 54, 71
7, 716, Note_on_c, 5, 54, 0
7, 720, Note_on_c, 5, 55, 72
7, 746, Note_on_c, 5, 55, 0
7, 750, Note_on_c, 5, 57, 72
7, 776, Note_on_c, 5, 57, 0
7, 780, Note_on_c, 5, 59, 76
7, 806, Note_on_c, 5, 59, 0
7, 810, Note_on_c, 5, 61, 79
7, 836, Note_on_c, 5, 61, 0
7, 840, Note_on_c, 5, 62, 85
7, 960, Note_on_c, 5, 62, 0
7, 1110, Note_on_c, 5, 57, 86
7, 1136, Note_on_c, 5, 57, 0
7, 1140, Note_on_c, 5, 62, 74
7, 1166, Note_on_c, 5, 62, 0
7, 1170, Note_on_c, 5, 54, 76
7, 1196, Note_on_c, 5, 54, 0
7, 1200, Note_on_c, 5, 57, 77
7, 1226, Note_on_c, 5, 57, 0
7, 1230, Note_on_c, 5, 50, 74
7, 1256, Note_on_c, 5, 50, 0
7, 1260, Note_on_c, 5, 54, 72
7, 1286, Note_on_c, 5, 54, 0
7, 1290, Note_on_c, 5, 45, 73
7, 1316, Note_on_c, 5, 45, 0
7, 1320, Note_on_c, 5, 50, 88
7, 1440, Note_on_c, 5, 50, 0
7, 1590, Note_on_c, 5, 50, 75
7, 1616, Note_on_c, 5, 50, 0
7, 1620, Note_on_c, 5, 52, 69
7, 1646, Note_on_c, 5, 52, 0
7, 1650, Note_on_c, 5, 54, 68
7, 1676, Note_on_c, 5, 54, 0
7, 1680, Note_on_c, 5, 55, 68
7, 1706, Note_on_c, 5, 55, 0
7, 1710, Note_on_c, 5, 57, 72
7, 1736, Note_on_c, 5, 57, 0
7, 1740, Note_on_c, 5, 59, 73
7, 1766, Note_on_c, 5, 59, 0
7, 1770, Note_on_c, 5, 61, 75
7, 1796, Note_on_c, 5, 61, 0
7, 1800, Note_on_c, 5, 62, 81
7, 1920, Note_on_c, 5, 62, 0
7, 2070, Note_on_c, 5, 54, 91
7, 2096, Note_on_c, 5, 54, 0
7, 2100, Note_on_c, 5, 57, 86
7, 2126, Note_on_c, 5, 57, 0
7, 2130, Note_on_c, 5, 50, 82
7, 2156, Note_on_c, 5, 50, 0
7, 2160, Note_on_c, 5, 54, 76
7, 2186, Note_on_c, 5, 54, 0
7, 2190, Note_on_c, 5, 45, 83
7, 2216, Note_on_c, 5, 45, 0
7, 2220, Note_on_c, 5, 50, 76
7, 2246, Note_on_c, 5, 50, 0
7, 2250, Note_on_c, 5, 42, 77
7, 2276, Note_on_c, 5, 42, 0
7, 2280, Note_on_c, 5, 45, 74
7, 4200, Note_on_c, 5, 45, 0
7, 4440, Note_on_c, 5, 42, 90
7, 6960, Note_on_c, 5, 42, 0
7, 7320, Note_on_c, 5, 38, 64
7, 7680, Note_on_c, 5, 38, 0
7, 7800, Program_c, 5, 50
7, 7800, Control_c, 5, 0, 0
7, 7805, Control_c, 5, 11, 110
7, 7805, Control_c, 5, 64, 0
7, 7805, Control_c, 5, 91, 0
7, 7805, Control_c, 5, 93, 80
7, 7805, Control_c, 5, 7, 70
7, 7805, Control_c, 5, 10, 90
7, 7810, Note_on_c, 5, 66, 72
7, 7982, Note_on_c, 5, 66, 0
7, 7990, Note_on_c, 5, 66, 64
7, 8042, Note_on_c, 5, 66, 0
7, 8050, Note_on_c, 5, 64, 64
7, 8275, Note_on_c, 5, 64, 0
7, 8290, Note_on_c, 5, 66, 64
7, 8395, Note_on_c, 5, 66, 0
7, 8410, Note_on_c, 5, 67, 64
7, 8515, Note_on_c, 5, 67, 0
7, 8530, Note_on_c, 5, 69, 64
7, 8695, Note_on_c, 5, 69, 0
7, 8710, Note_on_c, 5, 73, 88
7, 8762, Note_on_c, 5, 73, 0
7, 8770, Note_on_c, 5, 71, 81
7, 8822, Note_on_c, 5, 71, 0
7, 8830, Note_on_c, 5, 69, 77
7, 8882, Note_on_c, 5, 69, 0
7, 8890, Note_on_c, 5, 68, 75
7, 8942, Note_on_c, 5, 68, 0
7, 8950, Note_on_c, 5, 64, 71
7, 9002, Note_on_c, 5, 64, 0
7, 9010, Note_on_c, 5, 69, 67
7, 9235, Note_on_c, 5, 69, 0
7, 9250, Note_on_c, 5, 68, 64
7, 9355, Note_on_c, 5, 68, 0
7, 9370, Note_on_c, 5, 69, 64
7, 9475, Note_on_c, 5, 69, 0
7, 9490, Note_on_c, 5, 69, 64
7, 9595, Note_on_c, 5, 69, 0
7, 9610, Note_on_c, 5, 67, 64
7, 9715, Note_on_c, 5, 67, 0
7, 9730, Note_on_c, 5, 64, 64
7, 9955, Note_on_c, 5, 64, 0
7, 9970, Note_on_c, 5, 62, 64
7, 10195, Note_on_c, 5, 62, 0
7, 10210, Note_on_c, 5, 61, 64
7, 10315, Note_on_c, 5, 61, 0
7, 10330, Note_on_c, 5, 62, 64
7, 10435, Note_on_c, 5, 62, 0
7, 10450, Note_on_c, 5, 64, 64
7, 10555, Note_on_c, 5, 64, 0
7, 10570, Note_on_c, 5, 66, 64
7, 10675, Note_on_c, 5, 66, 0
7, 10690, Note_on_c, 5, 64, 64
7, 10795, Note_on_c, 5, 64, 0
7, 10810, Note_on_c, 5, 64, 64
7, 10915, Note_on_c, 5, 64, 0
7, 10930, Note_on_c, 5, 69, 64
7, 11035, Note_on_c, 5, 69, 0
7, 11050, Note_on_c, 5, 71, 64
7, 11155, Note_on_c, 5, 71, 0
7, 11170, Note_on_c, 5, 67, 64
7, 11275, Note_on_c, 5, 67, 0
7, 11290, Note_on_c, 5, 69, 64
7, 11395, Note_on_c, 5, 69, 0
7, 11410, Note_on_c, 5, 66, 64
7, 11515, Note_on_c, 5, 66, 0
7, 11530, Note_on_c, 5, 67, 64
7, 11635, Note_on_c, 5, 67, 0
7, 11650, Note_on_c, 5, 64, 64
7, 11755, Note_on_c, 5, 64, 0
7, 11770, Note_on_c, 5, 66, 64
7, 11875, Note_on_c, 5, 66, 0
7, 11890, Note_on_c, 5, 66, 64
7, 11995, Note_on_c, 5, 66, 0
7, 12010, Note_on_c, 5, 67, 64
7, 12115, Note_on_c, 5, 67, 0
7, 12130, Note_on_c, 5, 66, 64
7, 12235, Note_on_c, 5, 66, 0
7, 12250, Note_on_c, 5, 66, 64
7, 12355, Note_on_c, 5, 66, 0
7, 12370, Note_on_c, 5, 69, 64
7, 12475, Note_on_c, 5, 69, 0
7, 12490, Note_on_c, 5, 68, 64
7, 12715, Note_on_c, 5, 68, 0
7, 12730, Note_on_c, 5, 69, 64
7, 12835, Note_on_c, 5, 69, 0
7, 12850, Note_on_c, 5, 69, 64
7, 12955, Note_on_c, 5, 69, 0
7, 12970, Note_on_c, 5, 71, 64
7, 13075, Note_on_c, 5, 71, 0
7, 13090, Note_on_c, 5, 67, 64
7, 13195, Note_on_c, 5, 67, 0
7, 13210, Note_on_c, 5, 69, 64
7, 13315, Note_on_c, 5, 69, 0
7, 13330, Note_on_c, 5, 66, 64
7, 13435, Note_on_c, 5, 66, 0
7, 13450, Note_on_c, 5, 67, 64
7, 13555, Note_on_c, 5, 67, 0
7, 13570, Note_on_c, 5, 64, 64
7, 13675, Note_on_c, 5, 64, 0
7, 13690, Note_on_c, 5, 66, 64
7, 13795, Note_on_c, 5, 66, 0
7, 13810, Note_on_c, 5, 62, 64
7, 13915, Note_on_c, 5, 62, 0
7, 13930, Note_on_c, 5, 64, 64
7, 14035, Note_on_c, 5, 64, 0
7, 14050, Note_on_c, 5, 61, 64
7, 14155, Note_on_c, 5, 61, 0
7, 14170, Note_on_c, 5, 62, 64
7, 14275, Note_on_c, 5, 62, 0
7, 14290, Note_on_c, 5, 64, 64
7, 14515, Note_on_c, 5, 64, 0
7, 14530, Note_on_c, 5, 62, 64
7, 14755, Note_on_c, 5, 62, 0
7, 14770, Note_on_c, 5, 61, 64
7, 14875, Note_on_c, 5, 61, 0
7, 14890, Note_on_c, 5, 57, 64
7, 14995, Note_on_c, 5, 57, 0
7, 15010, Note_on_c, 5, 74, 79
7, 15235, Note_on_c, 5, 74, 0
7, 15250, Note_on_c, 5, 73, 77
7, 15475, Note_on_c, 5, 73, 0
7, 15490, Note_on_c, 5, 71, 77
7, 15715, Note_on_c, 5, 71, 0
7, 15730, Note_on_c, 5, 70, 77
7, 15835, Note_on_c, 5, 70, 0
7, 15850, Note_on_c, 5, 71, 77
7, 15955, Note_on_c, 5, 71, 0
7, 15970, Note_on_c, 5, 73, 64
7, 16075, Note_on_c, 5, 73, 0
7, 16090, Note_on_c, 5, 71, 64
7, 16315, Note_on_c, 5, 71, 0
7, 16330, Note_on_c, 5, 69, 64
7, 16555, Note_on_c, 5, 69, 0
7, 16570, Note_on_c, 5, 68, 64
7, 16795, Note_on_c, 5, 68, 0
7, 16810, Note_on_c, 5, 66, 64
7, 16915, Note_on_c, 5, 66, 0
7, 16990, Note_on_c, 5, 66, 92
7, 17042, Note_on_c, 5, 66, 0
7, 17050, Note_on_c, 5, 67, 89
7, 17102, Note_on_c, 5, 67, 0
7, 17110, Note_on_c, 5, 71, 87
7, 17162, Note_on_c, 5, 71, 0
7, 17170, Note_on_c, 5, 64, 86
7, 17222, Note_on_c, 5, 64, 0
7, 17230, Note_on_c, 5, 67, 85
7, 17282, Note_on_c, 5, 67, 0
7, 17290, Note_on_c, 5, 66, 85
7, 17342, Note_on_c, 5, 66, 0
7, 17350, Note_on_c, 5, 69, 85
7, 17402, Note_on_c, 5, 69, 0
7, 17410, Note_on_c, 5, 62, 85
7, 17462, Note_on_c, 5, 62, 0
7, 17470, Note_on_c, 5, 66, 84
7, 17522, Note_on_c, 5, 66, 0
7, 17530, Note_on_c, 5, 64, 84
7, 17582, Note_on_c, 5, 64, 0
7, 17590, Note_on_c, 5, 67, 84
7, 17642, Note_on_c, 5, 67, 0
7, 17650, Note_on_c, 5, 61, 83
7, 17702, Note_on_c, 5, 61, 0
7, 17710, Note_on_c, 5, 64, 81
7, 17762, Note_on_c, 5, 64, 0
7, 17770, Note_on_c, 5, 62, 78
7, 17875, Note_on_c, 5, 62, 0
7, 17890, Note_on_c, 5, 61, 64
7, 17995, Note_on_c, 5, 61, 0
7, 18010, Note_on_c, 5, 62, 64
7, 18115, Note_on_c, 5, 62, 0
7, 18130, Note_on_c, 5, 64, 64
7, 18235, Note_on_c, 5, 64, 0
7, 18250, Note_on_c, 5, 66, 64
7, 18355, Note_on_c, 5, 66, 0
7, 18370, Note_on_c, 5, 64, 64
7, 18475, Note_on_c, 5, 64, 0
7, 18490, Note_on_c, 5, 66, 64
7, 18595, Note_on_c, 5, 66, 0
7, 18610, Note_on_c, 5, 64, 64
7, 18715, Note_on_c, 5, 64, 0
7, 18730, Note_on_c, 5, 66, 64
7, 18835, Note_on_c, 5, 66, 0
7, 18850, Note_on_c, 5, 61, 64
7, 18955, Note_on_c, 5, 61, 0
7, 18970, Note_on_c, 5, 62, 64
7, 19075, Note_on_c, 5, 62, 0
7, 19090, Note_on_c, 5, 64, 64
7, 19195, Note_on_c, 5, 64, 0
7, 19210, Note_on_c, 5, 66, 64
7, 19382, Note_on_c, 5, 66, 0
7, 19390, Note_on_c, 5, 65, 88
7, 19442, Note_on_c, 5, 65, 0
7, 19450, Note_on_c, 5, 66, 90
7, 19502, Note_on_c, 5, 66, 0
7, 19510, Note_on_c, 5, 69, 87
7, 19562, Note_on_c, 5, 69, 0
7, 19570, Note_on_c, 5, 65, 87
7, 19622, Note_on_c, 5, 65, 0
7, 19630, Note_on_c, 5, 68, 86
7, 19682, Note_on_c, 5, 68, 0
7, 19690, Note_on_c, 5, 66, 84
7, 19742, Note_on_c, 5, 66, 0
7, 19750, Note_on_c, 5, 69, 83
7, 19802, Note_on_c, 5, 69, 0
7, 19810, Note_on_c, 5, 65, 86
7, 19862, Note_on_c, 5, 65, 0
7, 19870, Note_on_c, 5, 68, 86
7, 19922, Note_on_c, 5, 68, 0
7, 19930, Note_on_c, 5, 66, 86
7, 19982, Note_on_c, 5, 66, 0
7, 19990, Note_on_c, 5, 69, 85
7, 20042, Note_on_c, 5, 69, 0
7, 20050, Note_on_c, 5, 65, 85
7, 20102, Note_on_c, 5, 65, 0
7, 20110, Note_on_c, 5, 68, 85
7, 20162, Note_on_c, 5, 68, 0
7, 20170, Note_on_c, 5, 66, 85
7, 20222, Note_on_c, 5, 66, 0
7, 20230, Note_on_c, 5, 69, 85
7, 20282, Note_on_c, 5, 69, 0
7, 20290, Note_on_c, 5, 65, 85
7, 20342, Note_on_c, 5, 65, 0
7, 20350, Note_on_c, 5, 68, 85
7, 20402, Note_on_c, 5, 68, 0
7, 20410, Note_on_c, 5, 66, 84
7, 20462, Note_on_c, 5, 66, 0
7, 20470, Note_on_c, 5, 69, 84
7, 20522, Note_on_c, 5, 69, 0
7, 20530, Note_on_c, 5, 65, 83
7, 20582, Note_on_c, 5, 65, 0
7, 20590, Note_on_c, 5, 68, 84
7, 20642, Note_on_c, 5, 68, 0
7, 20650, Note_on_c, 5, 66, 84
7, 20702, Note_on_c, 5, 66, 0
7, 20710, Note_on_c, 5, 69, 86
7, 20762, Note_on_c, 5, 69, 0
7, 20770, Note_on_c, 5, 65, 86
7, 20822, Note_on_c, 5, 65, 0
7, 20830, Note_on_c, 5, 68, 85
7, 20882, Note_on_c, 5, 68, 0
7, 20890, Note_on_c, 5, 66, 84
7, 20942, Note_on_c, 5, 66, 0
7, 20950, Note_on_c, 5, 69, 86
7, 21002, Note_on_c, 5, 69, 0
7, 21010, Note_on_c, 5, 68, 86
7, 21062, Note_on_c, 5, 68, 0
7, 21070, Note_on_c, 5, 66, 86
7, 21122, Note_on_c, 5, 66, 0
7, 21130, Note_on_c, 5, 65, 86
7, 21182, Note_on_c, 5, 65, 0
7, 21190, Note_on_c, 5, 61, 88
7, 21242, Note_on_c, 5, 61, 0
7, 21250, Note_on_c, 5, 68, 90
7, 21355, Note_on_c, 5, 68, 0
7, 21370, Note_on_c, 5, 69, 64
7, 21475, Note_on_c, 5, 69, 0
7, 21490, Note_on_c, 5, 68, 64
7, 21595, Note_on_c, 5, 68, 0
7, 21610, Note_on_c, 5, 69, 64
7, 21715, Note_on_c, 5, 69, 0
7, 21730, Note_on_c, 5, 68, 64
7, 21835, Note_on_c, 5, 68, 0
7, 21850, Note_on_c, 5, 69, 64
7, 21955, Note_on_c, 5, 69, 0
7, 21970, Note_on_c, 5, 68, 64
7, 22075, Note_on_c, 5, 68, 0
7, 22090, Note_on_c, 5, 66, 64
7, 22195, Note_on_c, 5, 66, 0
7, 22210, Note_on_c, 5, 64, 64
7, 22315, Note_on_c, 5, 64, 0
7, 22330, Note_on_c, 5, 62, 64
7, 22435, Note_on_c, 5, 62, 0
7, 22450, Note_on_c, 5, 61, 64
7, 22502, Note_on_c, 5, 61, 0
7, 22510, Note_on_c, 5, 59, 64
7, 22562, Note_on_c, 5, 59, 0
7, 22570, Note_on_c, 5, 57, 64
7, 22622, Note_on_c, 5, 57, 0
7, 22630, Note_on_c, 5, 59, 64
7, 22682, Note_on_c, 5, 59, 0
7, 22690, Note_on_c, 5, 61, 64
7, 22795, Note_on_c, 5, 61, 0
7, 22810, Note_on_c, 5, 59, 64
7, 22915, Note_on_c, 5, 59, 0
7, 22930, Note_on_c, 5, 61, 64
7, 23155, Note_on_c, 5, 61, 0
7, 23170, Note_on_c, 5, 62, 64
7, 23395, Note_on_c, 5, 62, 0
7, 23410, Note_on_c, 5, 61, 64
7, 23515, Note_on_c, 5, 61, 0
7, 23530, Note_on_c, 5, 62, 64
7, 23635, Note_on_c, 5, 62, 0
7, 23710, Note_on_c, 5, 61, 87
7, 23762, Note_on_c, 5, 61, 0
7, 23770, Note_on_c, 5, 62, 82
7, 23822, Note_on_c, 5, 62, 0
7, 23830, Note_on_c, 5, 66, 82
7, 23882, Note_on_c, 5, 66, 0
7, 23890, Note_on_c, 5, 59, 83
7, 23942, Note_on_c, 5, 59, 0
7, 23950, Note_on_c, 5, 62, 83
7, 24002, Note_on_c, 5, 62, 0
7, 24010, Note_on_c, 5, 61, 82
7, 24062, Note_on_c, 5, 61, 0
7, 24070, Note_on_c, 5, 57, 83
7, 24122, Note_on_c, 5, 57, 0
7, 24130, Note_on_c, 5, 62, 83
7, 24302, Note_on_c, 5, 62, 0
7, 24310, Note_on_c, 5, 62, 84
7, 24362, Note_on_c, 5, 62, 0
7, 24370, Note_on_c, 5, 61, 83
7, 24475, Note_on_c, 5, 61, 0
7, 24490, Note_on_c, 5, 62, 64
7, 24595, Note_on_c, 5, 62, 0
7, 24610, Note_on_c, 5, 61, 64
7, 24715, Note_on_c, 5, 61, 0
7, 24730, Note_on_c, 5, 57, 64
7, 24835, Note_on_c, 5, 57, 0
7, 24850, Note_on_c, 5, 57, 64
7, 24955, Note_on_c, 5, 57, 0
7, 24970, Note_on_c, 5, 57, 64
7, 25075, Note_on_c, 5, 57, 0
7, 25090, Note_on_c, 5, 61, 64
7, 25195, Note_on_c, 5, 61, 0
7, 25210, Note_on_c, 5, 62, 64
7, 25315, Note_on_c, 5, 62, 0
7, 25330, Note_on_c, 5, 64, 64
7, 25435, Note_on_c, 5, 64, 0
7, 25450, Note_on_c, 5, 62, 64
7, 25555, Note_on_c, 5, 62, 0
7, 25570, Note_on_c, 5, 66, 64
7, 25675, Note_on_c, 5, 66, 0
7, 25690, Note_on_c, 5, 62, 64
7, 25795, Note_on_c, 5, 62, 0
7, 25810, Note_on_c, 5, 62, 64
7, 25915, Note_on_c, 5, 62, 0
7, 25930, Note_on_c, 5, 62, 64
7, 26035, Note_on_c, 5, 62, 0
7, 26050, Note_on_c, 5, 66, 69
7, 26155, Note_on_c, 5, 66, 0
7, 26170, Note_on_c, 5, 67, 68
7, 26275, Note_on_c, 5, 67, 0
7, 26290, Note_on_c, 5, 69, 67
7, 26395, Note_on_c, 5, 69, 0
7, 26410, Note_on_c, 5, 67, 67
7, 26515, Note_on_c, 5, 67, 0
7, 26530, Note_on_c, 5, 68, 67
7, 26635, Note_on_c, 5, 68, 0
7, 26650, Note_on_c, 5, 64, 64
7, 26755, Note_on_c, 5, 64, 0
7, 26770, Note_on_c, 5, 64, 64
7, 26875, Note_on_c, 5, 64, 0
7, 26890, Note_on_c, 5, 64, 64
7, 26995, Note_on_c, 5, 64, 0
7, 27010, Note_on_c, 5, 68, 73
7, 27115, Note_on_c, 5, 68, 0
7, 27130, Note_on_c, 5, 69, 72
7, 27235, Note_on_c, 5, 69, 0
7, 27250, Note_on_c, 5, 71, 73
7, 27355, Note_on_c, 5, 71, 0
7, 27370, Note_on_c, 5, 69, 72
7, 27475, Note_on_c, 5, 69, 0
7, 27490, Note_on_c, 5, 73, 73
7, 27595, Note_on_c, 5, 73, 0
7, 27610, Note_on_c, 5, 69, 64
7, 27715, Note_on_c, 5, 69, 0
7, 27730, Note_on_c, 5, 69, 64
7, 27835, Note_on_c, 5, 69, 0
7, 27850, Note_on_c, 5, 69, 64
7, 27955, Note_on_c, 5, 69, 0
7, 27970, Note_on_c, 5, 73, 77
7, 28075, Note_on_c, 5, 73, 0
7, 28090, Note_on_c, 5, 74, 78
7, 28195, Note_on_c, 5, 74, 0
7, 28210, Note_on_c, 5, 76, 77
7, 28315, Note_on_c, 5, 76, 0
7, 28330, Note_on_c, 5, 74, 77
7, 28435, Note_on_c, 5, 74, 0
7, 28450, Note_on_c, 5, 74, 77
7, 28675, Note_on_c, 5, 74, 0
7, 28690, Note_on_c, 5, 73, 64
7, 28915, Note_on_c, 5, 73, 0
7, 28930, Note_on_c, 5, 71, 64
7, 29155, Note_on_c, 5, 71, 0
7, 29170, Note_on_c, 5, 69, 64
7, 29395, Note_on_c, 5, 69, 0
7, 29410, Note_on_c, 5, 68, 64
7, 29515, Note_on_c, 5, 68, 0
7, 29530, Note_on_c, 5, 69, 64
7, 29635, Note_on_c, 5, 69, 0
7, 29650, Note_on_c, 5, 69, 69
7, 29755, Note_on_c, 5, 69, 0
7, 29770, Note_on_c, 5, 69, 68
7, 29875, Note_on_c, 5, 69, 0
7, 30130, Note_on_c, 5, 69, 68
7, 30235, Note_on_c, 5, 69, 0
7, 30250, Note_on_c, 5, 69, 68
7, 30355, Note_on_c, 5, 69, 0
7, 30610, Note_on_c, 5, 64, 67
7, 30715, Note_on_c, 5, 64, 0
7, 30730, Note_on_c, 5, 66, 69
7, 30835, Note_on_c, 5, 66, 0
7, 30850, Note_on_c, 5, 64, 70
7, 30902, Note_on_c, 5, 64, 0
7, 30910, Note_on_c, 5, 62, 70
7, 30962, Note_on_c, 5, 62, 0
7, 30970, Note_on_c, 5, 61, 70
7, 31022, Note_on_c, 5, 61, 0
7, 31030, Note_on_c, 5, 57, 72
7, 31082, Note_on_c, 5, 57, 0
7, 31090, Note_on_c, 5, 73, 74
7, 31195, Note_on_c, 5, 73, 0
7, 31210, Note_on_c, 5, 71, 64
7, 31435, Note_on_c, 5, 71, 0
7, 31450, Note_on_c, 5, 69, 64
7, 31675, Note_on_c, 5, 69, 0
7, 31690, Note_on_c, 5, 67, 64
7, 31915, Note_on_c, 5, 67, 0
7, 31930, Note_on_c, 5, 66, 64
7, 32155, Note_on_c, 5, 66, 0
7, 32170, Note_on_c, 5, 64, 64
7, 32515, Note_on_c, 5, 64, 0
7, 32530, Note_on_c, 5, 62, 64
7, 32755, Note_on_c, 5, 62, 0
7, 32770, Note_on_c, 5, 61, 64
7, 32875, Note_on_c, 5, 61, 0
7, 32890, Note_on_c, 5, 62, 64
7, 32942, Note_on_c, 5, 62, 0
7, 32950, Note_on_c, 5, 64, 64
7, 33002, Note_on_c, 5, 64, 0
7, 33010, Note_on_c, 5, 66, 64
7, 33115, Note_on_c, 5, 66, 0
7, 33130, Note_on_c, 5, 64, 64
7, 33355, Note_on_c, 5, 64, 0
7, 33370, Note_on_c, 5, 62, 64
7, 33595, Note_on_c, 5, 62, 0
7, 33610, Note_on_c, 5, 64, 64
7, 33715, Note_on_c, 5, 64, 0
7, 33730, Note_on_c, 5, 62, 64
7, 33782, Note_on_c, 5, 62, 0
7, 33790, Note_on_c, 5, 60, 64
7, 33842, Note_on_c, 5, 60, 0
7, 33850, Note_on_c, 5, 59, 64
7, 33955, Note_on_c, 5, 59, 0
7, 34030, Note_on_c, 5, 62, 81
7, 34082, Note_on_c, 5, 62, 0
7, 34090, Note_on_c, 5, 64, 80
7, 34142, Note_on_c, 5, 64, 0
7, 34150, Note_on_c, 5, 65, 80
7, 34202, Note_on_c, 5, 65, 0
7, 34210, Note_on_c, 5, 62, 80
7, 34262, Note_on_c, 5, 62, 0
7, 34270, Note_on_c, 5, 65, 80
7, 34322, Note_on_c, 5, 65, 0
7, 34330, Note_on_c, 5, 64, 79
7, 34382, Note_on_c, 5, 64, 0
7, 34390, Note_on_c, 5, 65, 78
7, 34442, Note_on_c, 5, 65, 0
7, 34450, Note_on_c, 5, 62, 77
7, 34502, Note_on_c, 5, 62, 0
7, 34510, Note_on_c, 5, 65, 79
7, 34562, Note_on_c, 5, 65, 0
7, 34570, Note_on_c, 5, 64, 79
7, 34622, Note_on_c, 5, 64, 0
7, 34630, Note_on_c, 5, 65, 78
7, 34682, Note_on_c, 5, 65, 0
7, 34690, Note_on_c, 5, 62, 77
7, 34742, Note_on_c, 5, 62, 0
7, 34750, Note_on_c, 5, 65, 78
7, 34802, Note_on_c, 5, 65, 0
7, 34810, Note_on_c, 5, 64, 78
7, 34915, Note_on_c, 5, 64, 0
7, 34990, Note_on_c, 5, 64, 86
7, 35042, Note_on_c, 5, 64, 0
7, 35050, Note_on_c, 5, 66, 84
7, 35102, Note_on_c, 5, 66, 0
7, 35110, Note_on_c, 5, 67, 85
7, 35162, Note_on_c, 5, 67, 0
7, 35170, Note_on_c, 5, 64, 85
7, 35222, Note_on_c, 5, 64, 0
7, 35230, Note_on_c, 5, 67, 84
7, 35282, Note_on_c, 5, 67, 0
7, 35290, Note_on_c, 5, 66, 86
7, 35342, Note_on_c, 5, 66, 0
7, 35350, Note_on_c, 5, 67, 88
7, 35402, Note_on_c, 5, 67, 0
7, 35410, Note_on_c, 5, 64, 88
7, 35462, Note_on_c, 5, 64, 0
7, 35470, Note_on_c, 5, 67, 87
7, 35522, Note_on_c, 5, 67, 0
7, 35530, Note_on_c, 5, 66, 87
7, 35582, Note_on_c, 5, 66, 0
7, 35590, Note_on_c, 5, 67, 88
7, 35642, Note_on_c, 5, 67, 0
7, 35650, Note_on_c, 5, 64, 89
7, 35702, Note_on_c, 5, 64, 0
7, 35710, Note_on_c, 5, 67, 87
7, 35762, Note_on_c, 5, 67, 0
7, 35770, Note_on_c, 5, 66, 86
7, 35875, Note_on_c, 5, 66, 0
7, 35950, Note_on_c, 5, 69, 92
7, 36002, Note_on_c, 5, 69, 0
7, 36010, Note_on_c, 5, 71, 91
7, 36062, Note_on_c, 5, 71, 0
7, 36070, Note_on_c, 5, 72, 93
7, 36122, Note_on_c, 5, 72, 0
7, 36130, Note_on_c, 5, 69, 92
7, 36182, Note_on_c, 5, 69, 0
7, 36190, Note_on_c, 5, 72, 92
7, 36242, Note_on_c, 5, 72, 0
7, 36250, Note_on_c, 5, 71, 92
7, 36302, Note_on_c, 5, 71, 0
7, 36310, Note_on_c, 5, 72, 92
7, 36362, Note_on_c, 5, 72, 0
7, 36370, Note_on_c, 5, 69, 92
7, 36422, Note_on_c, 5, 69, 0
7, 36430, Note_on_c, 5, 72, 91
7, 36482, Note_on_c, 5, 72, 0
7, 36490, Note_on_c, 5, 71, 90
7, 36542, Note_on_c, 5, 71, 0
7, 36550, Note_on_c, 5, 72, 91
7, 36602, Note_on_c, 5, 72, 0
7, 36610, Note_on_c, 5, 69, 90
7, 36662, Note_on_c, 5, 69, 0
7, 36670, Note_on_c, 5, 72, 88
7, 36722, Note_on_c, 5, 72, 0
7, 36730, Note_on_c, 5, 71, 88
7, 36835, Note_on_c, 5, 71, 0
7, 36910, Note_on_c, 5, 74, 91
7, 36962, Note_on_c, 5, 74, 0
7, 36970, Note_on_c, 5, 76, 92
7, 37022, Note_on_c, 5, 76, 0
7, 37030, Note_on_c, 5, 77, 92
7, 37082, Note_on_c, 5, 77, 0
7, 37090, Note_on_c, 5, 74, 93
7, 37142, Note_on_c, 5, 74, 0
7, 37150, Note_on_c, 5, 77, 92
7, 37202, Note_on_c, 5, 77, 0
7, 37210, Note_on_c, 5, 76, 92
7, 37262, Note_on_c, 5, 76, 0
7, 37270, Note_on_c, 5, 77, 92
7, 37322, Note_on_c, 5, 77, 0
7, 37330, Note_on_c, 5, 74, 91
7, 37382, Note_on_c, 5, 74, 0
7, 37390, Note_on_c, 5, 77, 90
7, 37442, Note_on_c, 5, 77, 0
7, 37450, Note_on_c, 5, 76, 90
7, 37502, Note_on_c, 5, 76, 0
7, 37510, Note_on_c, 5, 77, 90
7, 37562, Note_on_c, 5, 77, 0
7, 37570, Note_on_c, 5, 74, 90
7, 37675, Note_on_c, 5, 74, 0
7, 37690, Note_on_c, 5, 72, 86
7, 37795, Note_on_c, 5, 72, 0
7, 37870, Note_on_c, 5, 72, 84
7, 37922, Note_on_c, 5, 72, 0
7, 37930, Note_on_c, 5, 72, 83
7, 38155, Note_on_c, 5, 72, 0
7, 38170, Note_on_c, 5, 71, 92
7, 38275, Note_on_c, 5, 71, 0
7, 38350, Note_on_c, 5, 66, 64
7, 38402, Note_on_c, 5, 66, 0
7, 38410, Note_on_c, 5, 67, 64
7, 38515, Note_on_c, 5, 67, 0
7, 38530, Note_on_c, 5, 66, 64
7, 38635, Note_on_c, 5, 66, 0
7, 38650, Note_on_c, 5, 67, 64
7, 38755, Note_on_c, 5, 67, 0
7, 38770, Note_on_c, 5, 66, 64
7, 38875, Note_on_c, 5, 66, 0
7, 38890, Note_on_c, 5, 64, 64
7, 38995, Note_on_c, 5, 64, 0
7, 39010, Note_on_c, 5, 62, 64
7, 39115, Note_on_c, 5, 62, 0
7, 39130, Note_on_c, 5, 63, 64
7, 39235, Note_on_c, 5, 63, 0
7, 39250, Note_on_c, 5, 64, 64
7, 39475, Note_on_c, 5, 64, 0
7, 39490, Note_on_c, 5, 63, 64
7, 39595, Note_on_c, 5, 63, 0
7, 39610, Note_on_c, 5, 59, 64
7, 39715, Note_on_c, 5, 59, 0
7, 39790, Note_on_c, 5, 71, 64
7, 39842, Note_on_c, 5, 71, 0
7, 39850, Note_on_c, 5, 69, 64
7, 39955, Note_on_c, 5, 69, 0
7, 39970, Note_on_c, 5, 71, 64
7, 40075, Note_on_c, 5, 71, 0
7, 40090, Note_on_c, 5, 69, 64
7, 40195, Note_on_c, 5, 69, 0
7, 40210, Note_on_c, 5, 68, 64
7, 40315, Note_on_c, 5, 68, 0
7, 40330, Note_on_c, 5, 69, 64
7, 40435, Note_on_c, 5, 69, 0
7, 40450, Note_on_c, 5, 68, 64
7, 40555, Note_on_c, 5, 68, 0
7, 40570, Note_on_c, 5, 69, 64
7, 40675, Note_on_c, 5, 69, 0
7, 42670, Note_on_c, 5, 69, 105
7, 42722, Note_on_c, 5, 69, 0
7, 42730, Note_on_c, 5, 67, 102
7, 42782, Note_on_c, 5, 67, 0
7, 42790, Note_on_c, 5, 71, 102
7, 42842, Note_on_c, 5, 71, 0
7, 42850, Note_on_c, 5, 64, 101
7, 42902, Note_on_c, 5, 64, 0
7, 42910, Note_on_c, 5, 67, 101
7, 42962, Note_on_c, 5, 67, 0
7, 42970, Note_on_c, 5, 66, 101
7, 43022, Note_on_c, 5, 66, 0
7, 43030, Note_on_c, 5, 69, 101
7, 43082, Note_on_c, 5, 69, 0
7, 43090, Note_on_c, 5, 62, 100
7, 43142, Note_on_c, 5, 62, 0
7, 43150, Note_on_c, 5, 66, 100
7, 43202, Note_on_c, 5, 66, 0
7, 43210, Note_on_c, 5, 64, 100
7, 43262, Note_on_c, 5, 64, 0
7, 43270, Note_on_c, 5, 67, 100
7, 43322, Note_on_c, 5, 67, 0
7, 43330, Note_on_c, 5, 61, 98
7, 43382, Note_on_c, 5, 61, 0
7, 43390, Note_on_c, 5, 64, 98
7, 43442, Note_on_c, 5, 64, 0
7, 43450, Note_on_c, 5, 62, 98
7, 43502, Note_on_c, 5, 62, 0
7, 43510, Note_on_c, 5, 66, 98
7, 43562, Note_on_c, 5, 66, 0
7, 43570, Note_on_c, 5, 59, 98
7, 43622, Note_on_c, 5, 59, 0
7, 43630, Note_on_c, 5, 62, 99
7, 43682, Note_on_c, 5, 62, 0
7, 43690, Note_on_c, 5, 61, 99
7, 43742, Note_on_c, 5, 61, 0
7, 43750, Note_on_c, 5, 64, 99
7, 43802, Note_on_c, 5, 64, 0
7, 43810, Note_on_c, 5, 57, 98
7, 43862, Note_on_c, 5, 57, 0
7, 43870, Note_on_c, 5, 61, 98
7, 43922, Note_on_c, 5, 61, 0
7, 43930, Note_on_c, 5, 59, 100
7, 43982, Note_on_c, 5, 59, 0
7, 43990, Note_on_c, 5, 62, 102
7, 44042, Note_on_c, 5, 62, 0
7, 44050, Note_on_c, 5, 55, 101
7, 44102, Note_on_c, 5, 55, 0
7, 44110, Note_on_c, 5, 59, 100
7, 44162, Note_on_c, 5, 59, 0
7, 44170, Note_on_c, 5, 57, 99
7, 44222, Note_on_c, 5, 57, 0
7, 44230, Note_on_c, 5, 61, 99
7, 44282, Note_on_c, 5, 61, 0
7, 44290, Note_on_c, 5, 54, 99
7, 44342, Note_on_c, 5, 54, 0
7, 44350, Note_on_c, 5, 57, 98
7, 44402, Note_on_c, 5, 57, 0
7, 44410, Note_on_c, 5, 55, 100
7, 44462, Note_on_c, 5, 55, 0
7, 44470, Note_on_c, 5, 59, 100
7, 44522, Note_on_c, 5, 59, 0
7, 44530, Note_on_c, 5, 52, 99
7, 44582, Note_on_c, 5, 52, 0
7, 44590, Note_on_c, 5, 55, 98
7, 44642, Note_on_c, 5, 55, 0
7, 44650, Note_on_c, 5, 54, 97
7, 44755, Note_on_c, 5, 54, 0
7, 44770, Note_on_c, 5, 57, 81
7, 44875, Note_on_c, 5, 57, 0
7, 44890, Note_on_c, 5, 59, 81
7, 44995, Note_on_c, 5, 59, 0
7, 45010, Note_on_c, 5, 57, 84
7, 45115, Note_on_c, 5, 57, 0
7, 45130, Note_on_c, 5, 54, 83
7, 45235, Note_on_c, 5, 54, 0
7, 45250, Note_on_c, 5, 66, 84
7, 45355, Note_on_c, 5, 66, 0
7, 45370, Note_on_c, 5, 64, 83
7, 45475, Note_on_c, 5, 64, 0
7, 45490, Note_on_c, 5, 64, 82
7, 45595, Note_on_c, 5, 64, 0
7, 45610, Note_on_c, 5, 62, 82
7, 45715, Note_on_c, 5, 62, 0
7, 45730, Note_on_c, 5, 66, 83
7, 45835, Note_on_c, 5, 66, 0
7, 45850, Note_on_c, 5, 64, 83
7, 45955, Note_on_c, 5, 64, 0
7, 45970, Note_on_c, 5, 64, 86
7, 46075, Note_on_c, 5, 64, 0
7, 46075, Program_c, 5, 19
7, 46075, Control_c, 5, 0, 0
7, 46075, Control_c, 5, 11, 110
7, 46075, Control_c, 5, 64, 0
7, 46075, Control_c, 5, 91, 60
7, 46075, Control_c, 5, 93, 10
7, 46075, Control_c, 5, 7, 100
7, 46076, Control_c, 5, 10, 35
7, 46082, Note_on_c, 5, 57, 75
7, 46187, Note_on_c, 5, 57, 0
7, 46202, Note_on_c, 5, 55, 64
7, 46254, Note_on_c, 5, 55, 0
7, 46262, Note_on_c, 5, 54, 64
7, 46314, Note_on_c, 5, 54, 0
7, 46322, Note_on_c, 5, 52, 64
7, 46427, Note_on_c, 5, 52, 0
7, 46562, Note_on_c, 5, 62, 85
7, 46667, Note_on_c, 5, 62, 0
7, 46682, Note_on_c, 5, 60, 76
7, 46734, Note_on_c, 5, 60, 0
7, 46742, Note_on_c, 5, 59, 73
7, 46794, Note_on_c, 5, 59, 0
7, 46802, Note_on_c, 5, 64, 83
7, 46854, Note_on_c, 5, 64, 0
7, 46862, Note_on_c, 5, 62, 81
7, 46914, Note_on_c, 5, 62, 0
7, 46922, Note_on_c, 5, 60, 80
7, 46974, Note_on_c, 5, 60, 0
7, 46982, Note_on_c, 5, 64, 79
7, 47034, Note_on_c, 5, 64, 0
7, 47042, Note_on_c, 5, 62, 79
7, 47104, Note_on_c, 5, 62, 0
7, 47325, Note_on_c, 5, 59, 64
7, 47430, Note_on_c, 5, 59, 0
7, 47445, Note_on_c, 5, 57, 64
7, 47670, Note_on_c, 5, 57, 0
7, 47685, Note_on_c, 5, 59, 64
7, 48150, Note_on_c, 5, 59, 0
7, 48165, Note_on_c, 5, 59, 64
7, 48270, Note_on_c, 5, 59, 0
7, 48285, Note_on_c, 5, 60, 64
7, 48817, Note_on_c, 5, 60, 0
7, 48825, Note_on_c, 5, 64, 73
7, 48877, Note_on_c, 5, 64, 0
7, 48885, Note_on_c, 5, 62, 70
7, 48937, Note_on_c, 5, 62, 0
7, 48945, Note_on_c, 5, 60, 68
7, 48997, Note_on_c, 5, 60, 0
7, 49005, Note_on_c, 5, 59, 67
7, 49230, Note_on_c, 5, 59, 0
7, 49245, Note_on_c, 5, 64, 76
7, 49470, Note_on_c, 5, 64, 0
7, 49485, Note_on_c, 5, 57, 74
7, 49777, Note_on_c, 5, 57, 0
7, 49785, Note_on_c, 5, 55, 89
7, 49811, Note_on_c, 5, 55, 0
7, 49815, Note_on_c, 5, 54, 86
7, 49841, Note_on_c, 5, 54, 0
7, 49845, Note_on_c, 5, 55, 80
7, 49965, Note_on_c, 5, 55, 0
7, 50265, Note_on_c, 5, 65, 79
7, 50317, Note_on_c, 5, 65, 0
7, 50325, Note_on_c, 5, 64, 79
7, 50377, Note_on_c, 5, 64, 0
7, 50385, Note_on_c, 5, 62, 79
7, 50437, Note_on_c, 5, 62, 0
7, 50445, Note_on_c, 5, 64, 79
7, 50670, Note_on_c, 5, 64, 0
7, 50685, Note_on_c, 5, 62, 76
7, 50820, Note_on_c, 5, 62, 0
7, 50925, Note_on_c, 5, 55, 64
7, 51090, Note_on_c, 5, 55, 0
7, 51105, Note_on_c, 5, 55, 76
7, 51275, Note_on_c, 5, 55, 0
7, 51285, Note_on_c, 5, 54, 73
7, 51337, Note_on_c, 5, 54, 0
7, 51345, Note_on_c, 5, 52, 74
7, 51400, Note_on_c, 5, 52, 0
7, 51405, Note_on_c, 5, 54, 76
7, 51630, Note_on_c, 5, 54, 0
7, 51630, End_track
8, 0, Start_track
8, 0, MIDI_port, 0
8, 0, Title_t, "Finished the January 03/1996"
8, 0, Program_c, 6, 90
8, 0, Control_c, 6, 7, 70
8, 0, Control_c, 6, 10, 60
8, 30, Program_c, 6, 95
8, 30, Control_c, 6, 0, 0
8, 30, Control_c, 6, 11, 110
8, 30, Control_c, 6, 64, 0
8, 30, Control_c, 6, 91, 40
8, 30, Control_c, 6, 93, 40
8, 4440, Note_on_c, 6, 54, 112
8, 6270, Note_on_c, 6, 54, 0
8, 7800, Program_c, 6, 48
8, 7805, Control_c, 6, 0, 0
8, 7805, Control_c, 6, 11, 110
8, 7805, Control_c, 6, 64, 0
8, 7805, Control_c, 6, 91, 40
8, 7805, Control_c, 6, 93, 60
8, 7805, Control_c, 6, 7, 65
8, 7805, Control_c, 6, 10, 30
8, 7810, Note_on_c, 6, 62, 72
8, 7915, Note_on_c, 6, 62, 0
8, 7930, Note_on_c, 6, 62, 64
8, 8095, Note_on_c, 6, 62, 0
8, 8110, Note_on_c, 6, 62, 64
8, 8162, Note_on_c, 6, 62, 0
8, 8170, Note_on_c, 6, 61, 64
8, 8275, Note_on_c, 6, 61, 0
8, 8290, Note_on_c, 6, 62, 64
8, 8515, Note_on_c, 6, 62, 0
8, 8530, Note_on_c, 6, 61, 64
8, 8635, Note_on_c, 6, 61, 0
8, 8650, Note_on_c, 6, 62, 64
8, 8755, Note_on_c, 6, 62, 0
8, 8770, Note_on_c, 6, 66, 64
8, 8875, Note_on_c, 6, 66, 0
8, 8890, Note_on_c, 6, 64, 64
8, 9055, Note_on_c, 6, 64, 0
8, 9070, Note_on_c, 6, 64, 64
8, 9122, Note_on_c, 6, 64, 0
8, 9130, Note_on_c, 6, 66, 64
8, 9235, Note_on_c, 6, 66, 0
8, 9250, Note_on_c, 6, 62, 64
8, 9355, Note_on_c, 6, 62, 0
8, 9370, Note_on_c, 6, 64, 64
8, 9475, Note_on_c, 6, 64, 0
8, 9490, Note_on_c, 6, 62, 64
8, 9715, Note_on_c, 6, 62, 0
8, 9730, Note_on_c, 6, 59, 64
8, 9835, Note_on_c, 6, 59, 0
8, 9850, Note_on_c, 6, 61, 64
8, 9955, Note_on_c, 6, 61, 0
8, 9970, Note_on_c, 6, 57, 64
8, 10075, Note_on_c, 6, 57, 0
8, 10090, Note_on_c, 6, 59, 64
8, 10195, Note_on_c, 6, 59, 0
8, 10210, Note_on_c, 6, 55, 64
8, 10315, Note_on_c, 6, 55, 0
8, 10330, Note_on_c, 6, 57, 64
8, 10435, Note_on_c, 6, 57, 0
8, 10450, Note_on_c, 6, 57, 64
8, 10675, Note_on_c, 6, 57, 0
8, 10690, Note_on_c, 6, 56, 64
8, 10795, Note_on_c, 6, 56, 0
8, 10810, Note_on_c, 6, 57, 64
8, 10915, Note_on_c, 6, 57, 0
8, 10930, Note_on_c, 6, 66, 64
8, 11035, Note_on_c, 6, 66, 0
8, 11050, Note_on_c, 6, 64, 64
8, 11275, Note_on_c, 6, 64, 0
8, 11290, Note_on_c, 6, 62, 64
8, 11515, Note_on_c, 6, 62, 0
8, 11530, Note_on_c, 6, 61, 64
8, 11755, Note_on_c, 6, 61, 0
8, 11770, Note_on_c, 6, 62, 64
8, 11875, Note_on_c, 6, 62, 0
8, 11890, Note_on_c, 6, 62, 64
8, 11995, Note_on_c, 6, 62, 0
8, 12010, Note_on_c, 6, 61, 64
8, 12235, Note_on_c, 6, 61, 0
8, 12250, Note_on_c, 6, 59, 64
8, 12355, Note_on_c, 6, 59, 0
8, 12370, Note_on_c, 6, 61, 64
8, 12475, Note_on_c, 6, 61, 0
8, 12490, Note_on_c, 6, 62, 64
8, 12595, Note_on_c, 6, 62, 0
8, 12610, Note_on_c, 6, 59, 64
8, 12715, Note_on_c, 6, 59, 0
8, 12730, Note_on_c, 6, 61, 64
8, 12835, Note_on_c, 6, 61, 0
8, 12850, Note_on_c, 6, 62, 64
8, 13075, Note_on_c, 6, 62, 0
8, 13090, Note_on_c, 6, 61, 64
8, 13315, Note_on_c, 6, 61, 0
8, 13330, Note_on_c, 6, 59, 64
8, 13555, Note_on_c, 6, 59, 0
8, 13570, Note_on_c, 6, 57, 64
8, 13795, Note_on_c, 6, 57, 0
8, 13810, Note_on_c, 6, 55, 64
8, 14035, Note_on_c, 6, 55, 0
8, 14050, Note_on_c, 6, 54, 64
8, 14275, Note_on_c, 6, 54, 0
8, 14290, Note_on_c, 6, 52, 64
8, 14395, Note_on_c, 6, 52, 0
8, 14410, Note_on_c, 6, 57, 64
8, 14635, Note_on_c, 6, 57, 0
8, 14650, Note_on_c, 6, 59, 64
8, 14755, Note_on_c, 6, 59, 0
8, 14770, Note_on_c, 6, 57, 64
8, 14822, Note_on_c, 6, 57, 0
8, 14830, Note_on_c, 6, 55, 64
8, 14882, Note_on_c, 6, 55, 0
8, 14890, Note_on_c, 6, 54, 64
8, 14995, Note_on_c, 6, 54, 0
8, 15010, Note_on_c, 6, 66, 82
8, 15115, Note_on_c, 6, 66, 0
8, 15130, Note_on_c, 6, 67, 86
8, 15182, Note_on_c, 6, 67, 0
8, 15190, Note_on_c, 6, 71, 90
8, 15242, Note_on_c, 6, 71, 0
8, 15250, Note_on_c, 6, 64, 89
8, 15302, Note_on_c, 6, 64, 0
8, 15310, Note_on_c, 6, 67, 88
8, 15362, Note_on_c, 6, 67, 0
8, 15370, Note_on_c, 6, 66, 87
8, 15422, Note_on_c, 6, 66, 0
8, 15430, Note_on_c, 6, 69, 87
8, 15482, Note_on_c, 6, 69, 0
8, 15490, Note_on_c, 6, 62, 87
8, 15542, Note_on_c, 6, 62, 0
8, 15550, Note_on_c, 6, 66, 87
8, 15602, Note_on_c, 6, 66, 0
8, 15610, Note_on_c, 6, 64, 87
8, 15662, Note_on_c, 6, 64, 0
8, 15670, Note_on_c, 6, 67, 87
8, 15722, Note_on_c, 6, 67, 0
8, 15730, Note_on_c, 6, 61, 87
8, 15782, Note_on_c, 6, 61, 0
8, 15790, Note_on_c, 6, 64, 85
8, 15842, Note_on_c, 6, 64, 0
8, 15850, Note_on_c, 6, 62, 87
8, 15902, Note_on_c, 6, 62, 0
8, 15910, Note_on_c, 6, 59, 84
8, 15962, Note_on_c, 6, 59, 0
8, 16030, Note_on_c, 6, 66, 91
8, 16082, Note_on_c, 6, 66, 0
8, 16090, Note_on_c, 6, 68, 93
8, 16142, Note_on_c, 6, 68, 0
8, 16150, Note_on_c, 6, 71, 93
8, 16202, Note_on_c, 6, 71, 0
8, 16210, Note_on_c, 6, 65, 92
8, 16262, Note_on_c, 6, 65, 0
8, 16270, Note_on_c, 6, 68, 93
8, 16322, Note_on_c, 6, 68, 0
8, 16330, Note_on_c, 6, 66, 92
8, 16382, Note_on_c, 6, 66, 0
8, 16390, Note_on_c, 6, 69, 93
8, 16442, Note_on_c, 6, 69, 0
8, 16450, Note_on_c, 6, 62, 93
8, 16502, Note_on_c, 6, 62, 0
8, 16510, Note_on_c, 6, 66, 91
8, 16562, Note_on_c, 6, 66, 0
8, 16570, Note_on_c, 6, 59, 87
8, 16622, Note_on_c, 6, 59, 0
8, 16630, Note_on_c, 6, 62, 84
8, 16682, Note_on_c, 6, 62, 0
8, 16690, Note_on_c, 6, 56, 83
8, 16742, Note_on_c, 6, 56, 0
8, 16750, Note_on_c, 6, 59, 83
8, 16802, Note_on_c, 6, 59, 0
8, 16810, Note_on_c, 6, 57, 83
8, 16862, Note_on_c, 6, 57, 0
8, 16870, Note_on_c, 6, 54, 80
8, 16922, Note_on_c, 6, 54, 0
8, 16930, Note_on_c, 6, 59, 79
8, 17035, Note_on_c, 6, 59, 0
8, 17050, Note_on_c, 6, 52, 64
8, 17155, Note_on_c, 6, 52, 0
8, 17170, Note_on_c, 6, 57, 64
8, 17275, Note_on_c, 6, 57, 0
8, 17290, Note_on_c, 6, 50, 64
8, 17395, Note_on_c, 6, 50, 0
8, 17410, Note_on_c, 6, 55, 64
8, 17515, Note_on_c, 6, 55, 0
8, 17530, Note_on_c, 6, 49, 64
8, 17635, Note_on_c, 6, 49, 0
8, 17650, Note_on_c, 6, 54, 64
8, 17755, Note_on_c, 6, 54, 0
8, 17770, Note_on_c, 6, 47, 64
8, 17875, Note_on_c, 6, 47, 0
8, 17890, Note_on_c, 6, 54, 64
8, 17995, Note_on_c, 6, 54, 0
8, 18010, Note_on_c, 6, 59, 64
8, 18115, Note_on_c, 6, 59, 0
8, 18130, Note_on_c, 6, 61, 64
8, 18235, Note_on_c, 6, 61, 0
8, 18250, Note_on_c, 6, 62, 64
8, 18355, Note_on_c, 6, 62, 0
8, 18370, Note_on_c, 6, 61, 64
8, 18475, Note_on_c, 6, 61, 0
8, 18490, Note_on_c, 6, 62, 64
8, 18595, Note_on_c, 6, 62, 0
8, 18610, Note_on_c, 6, 61, 64
8, 18715, Note_on_c, 6, 61, 0
8, 18730, Note_on_c, 6, 54, 64
8, 18835, Note_on_c, 6, 54, 0
8, 18850, Note_on_c, 6, 54, 64
8, 18955, Note_on_c, 6, 54, 0
8, 18970, Note_on_c, 6, 59, 64
8, 19075, Note_on_c, 6, 59, 0
8, 19090, Note_on_c, 6, 61, 64
8, 19195, Note_on_c, 6, 61, 0
8, 19210, Note_on_c, 6, 62, 64
8, 19315, Note_on_c, 6, 62, 0
8, 19330, Note_on_c, 6, 56, 64
8, 19435, Note_on_c, 6, 56, 0
8, 19450, Note_on_c, 6, 57, 64
8, 19555, Note_on_c, 6, 57, 0
8, 19570, Note_on_c, 6, 59, 64
8, 19675, Note_on_c, 6, 59, 0
8, 19690, Note_on_c, 6, 61, 64
8, 19795, Note_on_c, 6, 61, 0
8, 19810, Note_on_c, 6, 49, 64
8, 19915, Note_on_c, 6, 49, 0
8, 19930, Note_on_c, 6, 54, 64
8, 20035, Note_on_c, 6, 54, 0
8, 20050, Note_on_c, 6, 56, 64
8, 20155, Note_on_c, 6, 56, 0
8, 20170, Note_on_c, 6, 57, 64
8, 20275, Note_on_c, 6, 57, 0
8, 20290, Note_on_c, 6, 56, 64
8, 20395, Note_on_c, 6, 56, 0
8, 20410, Note_on_c, 6, 57, 64
8, 20515, Note_on_c, 6, 57, 0
8, 20530, Note_on_c, 6, 59, 64
8, 20635, Note_on_c, 6, 59, 0
8, 20650, Note_on_c, 6, 61, 64
8, 20755, Note_on_c, 6, 61, 0
8, 20770, Note_on_c, 6, 62, 64
8, 20875, Note_on_c, 6, 62, 0
8, 20890, Note_on_c, 6, 61, 64
8, 20995, Note_on_c, 6, 61, 0
8, 22690, Note_on_c, 6, 54, 64
8, 22915, Note_on_c, 6, 54, 0
8, 22930, Note_on_c, 6, 53, 64
8, 23035, Note_on_c, 6, 53, 0
8, 23050, Note_on_c, 6, 54, 64
8, 23275, Note_on_c, 6, 54, 0
8, 23290, Note_on_c, 6, 52, 64
8, 23515, Note_on_c, 6, 52, 0
8, 23530, Note_on_c, 6, 50, 64
8, 23635, Note_on_c, 6, 50, 0
8, 23650, Note_on_c, 6, 54, 64
8, 23755, Note_on_c, 6, 54, 0
8, 23770, Note_on_c, 6, 47, 64
8, 23875, Note_on_c, 6, 47, 0
8, 23890, Note_on_c, 6, 52, 64
8, 23995, Note_on_c, 6, 52, 0
8, 24010, Note_on_c, 6, 45, 64
8, 24115, Note_on_c, 6, 45, 0
8, 24190, Note_on_c, 6, 47, 76
8, 24242, Note_on_c, 6, 47, 0
8, 24250, Note_on_c, 6, 43, 76
8, 24355, Note_on_c, 6, 43, 0
8, 24370, Note_on_c, 6, 45, 75
8, 24475, Note_on_c, 6, 45, 0
8, 24490, Note_on_c, 6, 38, 83
8, 24595, Note_on_c, 6, 38, 0
8, 24610, Note_on_c, 6, 45, 68
8, 24715, Note_on_c, 6, 45, 0
8, 24730, Note_on_c, 6, 50, 67
8, 24835, Note_on_c, 6, 50, 0
8, 24850, Note_on_c, 6, 49, 68
8, 24955, Note_on_c, 6, 49, 0
8, 24970, Note_on_c, 6, 50, 68
8, 25075, Note_on_c, 6, 50, 0
8, 25090, Note_on_c, 6, 57, 64
8, 25195, Note_on_c, 6, 57, 0
8, 25210, Note_on_c, 6, 57, 64
8, 25315, Note_on_c, 6, 57, 0
8, 25330, Note_on_c, 6, 57, 64
8, 25435, Note_on_c, 6, 57, 0
8, 25450, Note_on_c, 6, 57, 64
8, 25555, Note_on_c, 6, 57, 0
8, 25570, Note_on_c, 6, 50, 73
8, 25675, Note_on_c, 6, 50, 0
8, 25690, Note_on_c, 6, 55, 73
8, 25795, Note_on_c, 6, 55, 0
8, 25810, Note_on_c, 6, 54, 73
8, 25915, Note_on_c, 6, 54, 0
8, 25930, Note_on_c, 6, 55, 73
8, 26035, Note_on_c, 6, 55, 0
8, 26050, Note_on_c, 6, 62, 64
8, 26155, Note_on_c, 6, 62, 0
8, 26170, Note_on_c, 6, 62, 64
8, 26275, Note_on_c, 6, 62, 0
8, 26290, Note_on_c, 6, 62, 64
8, 26395, Note_on_c, 6, 62, 0
8, 26410, Note_on_c, 6, 62, 64
8, 26515, Note_on_c, 6, 62, 0
8, 26530, Note_on_c, 6, 52, 78
8, 26635, Note_on_c, 6, 52, 0
8, 26650, Note_on_c, 6, 57, 77
8, 26755, Note_on_c, 6, 57, 0
8, 26770, Note_on_c, 6, 56, 77
8, 26875, Note_on_c, 6, 56, 0
8, 26890, Note_on_c, 6, 57, 76
8, 26995, Note_on_c, 6, 57, 0
8, 27010, Note_on_c, 6, 64, 64
8, 27115, Note_on_c, 6, 64, 0
8, 27130, Note_on_c, 6, 64, 64
8, 27235, Note_on_c, 6, 64, 0
8, 27250, Note_on_c, 6, 64, 64
8, 27355, Note_on_c, 6, 64, 0
8, 27370, Note_on_c, 6, 64, 64
8, 27475, Note_on_c, 6, 64, 0
8, 27490, Note_on_c, 6, 57, 82
8, 27595, Note_on_c, 6, 57, 0
8, 27610, Note_on_c, 6, 62, 82
8, 27715, Note_on_c, 6, 62, 0
8, 27730, Note_on_c, 6, 61, 82
8, 27835, Note_on_c, 6, 61, 0
8, 27850, Note_on_c, 6, 62, 82
8, 27955, Note_on_c, 6, 62, 0
8, 27970, Note_on_c, 6, 69, 64
8, 28075, Note_on_c, 6, 69, 0
8, 28090, Note_on_c, 6, 69, 64
8, 28195, Note_on_c, 6, 69, 0
8, 28210, Note_on_c, 6, 69, 64
8, 28315, Note_on_c, 6, 69, 0
8, 28330, Note_on_c, 6, 69, 64
8, 28435, Note_on_c, 6, 69, 0
8, 28510, Note_on_c, 6, 66, 84
8, 28562, Note_on_c, 6, 66, 0
8, 28570, Note_on_c, 6, 67, 87
8, 28622, Note_on_c, 6, 67, 0
8, 28630, Note_on_c, 6, 71, 88
8, 28682, Note_on_c, 6, 71, 0
8, 28690, Note_on_c, 6, 64, 89
8, 28742, Note_on_c, 6, 64, 0
8, 28750, Note_on_c, 6, 67, 87
8, 28802, Note_on_c, 6, 67, 0
8, 28810, Note_on_c, 6, 66, 85
8, 28862, Note_on_c, 6, 66, 0
8, 28870, Note_on_c, 6, 69, 84
8, 28922, Note_on_c, 6, 69, 0
8, 28930, Note_on_c, 6, 62, 84
8, 28982, Note_on_c, 6, 62, 0
8, 28990, Note_on_c, 6, 66, 82
8, 29042, Note_on_c, 6, 66, 0
8, 29050, Note_on_c, 6, 64, 81
8, 29102, Note_on_c, 6, 64, 0
8, 29110, Note_on_c, 6, 67, 82
8, 29162, Note_on_c, 6, 67, 0
8, 29170, Note_on_c, 6, 61, 81
8, 29222, Note_on_c, 6, 61, 0
8, 29230, Note_on_c, 6, 64, 81
8, 29282, Note_on_c, 6, 64, 0
8, 29290, Note_on_c, 6, 62, 80
8, 29342, Note_on_c, 6, 62, 0
8, 29350, Note_on_c, 6, 66, 80
8, 29402, Note_on_c, 6, 66, 0
8, 29410, Note_on_c, 6, 59, 80
8, 29462, Note_on_c, 6, 59, 0
8, 29470, Note_on_c, 6, 62, 80
8, 29522, Note_on_c, 6, 62, 0
8, 29530, Note_on_c, 6, 61, 80
8, 29582, Note_on_c, 6, 61, 0
8, 29590, Note_on_c, 6, 64, 80
8, 29642, Note_on_c, 6, 64, 0
8, 29650, Note_on_c, 6, 57, 80
8, 29702, Note_on_c, 6, 57, 0
8, 29710, Note_on_c, 6, 61, 88
8, 29762, Note_on_c, 6, 61, 0
8, 29770, Note_on_c, 6, 62, 87
8, 29822, Note_on_c, 6, 62, 0
8, 29830, Note_on_c, 6, 66, 86
8, 29882, Note_on_c, 6, 66, 0
8, 29890, Note_on_c, 6, 59, 86
8, 29942, Note_on_c, 6, 59, 0
8, 29950, Note_on_c, 6, 62, 88
8, 30002, Note_on_c, 6, 62, 0
8, 30010, Note_on_c, 6, 61, 88
8, 30062, Note_on_c, 6, 61, 0
8, 30070, Note_on_c, 6, 64, 89
8, 30122, Note_on_c, 6, 64, 0
8, 30130, Note_on_c, 6, 57, 90
8, 30182, Note_on_c, 6, 57, 0
8, 30190, Note_on_c, 6, 61, 92
8, 30242, Note_on_c, 6, 61, 0
8, 30250, Note_on_c, 6, 62, 92
8, 30302, Note_on_c, 6, 62, 0
8, 30310, Note_on_c, 6, 66, 91
8, 30362, Note_on_c, 6, 66, 0
8, 30370, Note_on_c, 6, 59, 90
8, 30422, Note_on_c, 6, 59, 0
8, 30430, Note_on_c, 6, 62, 90
8, 30482, Note_on_c, 6, 62, 0
8, 30490, Note_on_c, 6, 61, 89
8, 30542, Note_on_c, 6, 61, 0
8, 30550, Note_on_c, 6, 57, 88
8, 30602, Note_on_c, 6, 57, 0
8, 30610, Note_on_c, 6, 61, 81
8, 30715, Note_on_c, 6, 61, 0
8, 30730, Note_on_c, 6, 59, 75
8, 30835, Note_on_c, 6, 59, 0
8, 30850, Note_on_c, 6, 59, 73
8, 30955, Note_on_c, 6, 59, 0
8, 30970, Note_on_c, 6, 57, 88
8, 31075, Note_on_c, 6, 57, 0
8, 31150, Note_on_c, 6, 61, 88
8, 31202, Note_on_c, 6, 61, 0
8, 31210, Note_on_c, 6, 62, 91
8, 31262, Note_on_c, 6, 62, 0
8, 31270, Note_on_c, 6, 66, 96
8, 31322, Note_on_c, 6, 66, 0
8, 31330, Note_on_c, 6, 59, 91
8, 31382, Note_on_c, 6, 59, 0
8, 31390, Note_on_c, 6, 62, 90
8, 31442, Note_on_c, 6, 62, 0
8, 31450, Note_on_c, 6, 61, 87
8, 31502, Note_on_c, 6, 61, 0
8, 31510, Note_on_c, 6, 64, 85
8, 31562, Note_on_c, 6, 64, 0
8, 31570, Note_on_c, 6, 57, 83
8, 31622, Note_on_c, 6, 57, 0
8, 31630, Note_on_c, 6, 61, 83
8, 31682, Note_on_c, 6, 61, 0
8, 31690, Note_on_c, 6, 59, 81
8, 31742, Note_on_c, 6, 59, 0
8, 31750, Note_on_c, 6, 62, 81
8, 31802, Note_on_c, 6, 62, 0
8, 31810, Note_on_c, 6, 55, 81
8, 31862, Note_on_c, 6, 55, 0
8, 31870, Note_on_c, 6, 59, 79
8, 31922, Note_on_c, 6, 59, 0
8, 31930, Note_on_c, 6, 57, 79
8, 31982, Note_on_c, 6, 57, 0
8, 31990, Note_on_c, 6, 61, 79
8, 32042, Note_on_c, 6, 61, 0
8, 32050, Note_on_c, 6, 54, 79
8, 32102, Note_on_c, 6, 54, 0
8, 32110, Note_on_c, 6, 57, 77
8, 32162, Note_on_c, 6, 57, 0
8, 32170, Note_on_c, 6, 55, 77
8, 32222, Note_on_c, 6, 55, 0
8, 32230, Note_on_c, 6, 59, 80
8, 32282, Note_on_c, 6, 59, 0
8, 32290, Note_on_c, 6, 52, 80
8, 32342, Note_on_c, 6, 52, 0
8, 32350, Note_on_c, 6, 55, 79
8, 32402, Note_on_c, 6, 55, 0
8, 32410, Note_on_c, 6, 54, 79
8, 32462, Note_on_c, 6, 54, 0
8, 32470, Note_on_c, 6, 57, 79
8, 32522, Note_on_c, 6, 57, 0
8, 32530, Note_on_c, 6, 50, 79
8, 32582, Note_on_c, 6, 50, 0
8, 32590, Note_on_c, 6, 54, 79
8, 32642, Note_on_c, 6, 54, 0
8, 32650, Note_on_c, 6, 52, 78
8, 32702, Note_on_c, 6, 52, 0
8, 32710, Note_on_c, 6, 55, 78
8, 32762, Note_on_c, 6, 55, 0
8, 32770, Note_on_c, 6, 52, 78
8, 32822, Note_on_c, 6, 52, 0
8, 32830, Note_on_c, 6, 55, 78
8, 32882, Note_on_c, 6, 55, 0
8, 32890, Note_on_c, 6, 54, 78
8, 32942, Note_on_c, 6, 54, 0
8, 32950, Note_on_c, 6, 55, 78
8, 33002, Note_on_c, 6, 55, 0
8, 33010, Note_on_c, 6, 57, 69
8, 33115, Note_on_c, 6, 57, 0
8, 33130, Note_on_c, 6, 59, 64
8, 33235, Note_on_c, 6, 59, 0
8, 33250, Note_on_c, 6, 55, 64
8, 33355, Note_on_c, 6, 55, 0
8, 33370, Note_on_c, 6, 57, 64
8, 33475, Note_on_c, 6, 57, 0
8, 33490, Note_on_c, 6, 55, 64
8, 33715, Note_on_c, 6, 55, 0
8, 33730, Note_on_c, 6, 54, 64
8, 33835, Note_on_c, 6, 54, 0
8, 33850, Note_on_c, 6, 55, 64
8, 33955, Note_on_c, 6, 55, 0
8, 34030, Note_on_c, 6, 55, 64
8, 34082, Note_on_c, 6, 55, 0
8, 34090, Note_on_c, 6, 60, 67
8, 34195, Note_on_c, 6, 60, 0
8, 34210, Note_on_c, 6, 59, 65
8, 34315, Note_on_c, 6, 59, 0
8, 34330, Note_on_c, 6, 60, 64
8, 34435, Note_on_c, 6, 60, 0
8, 34450, Note_on_c, 6, 59, 64
8, 34555, Note_on_c, 6, 59, 0
8, 34570, Note_on_c, 6, 60, 64
8, 34675, Note_on_c, 6, 60, 0
8, 34690, Note_on_c, 6, 55, 63
8, 34795, Note_on_c, 6, 55, 0
8, 34810, Note_on_c, 6, 60, 62
8, 34915, Note_on_c, 6, 60, 0
8, 34990, Note_on_c, 6, 57, 63
8, 35042, Note_on_c, 6, 57, 0
8, 35050, Note_on_c, 6, 62, 66
8, 35155, Note_on_c, 6, 62, 0
8, 35170, Note_on_c, 6, 61, 67
8, 35275, Note_on_c, 6, 61, 0
8, 35290, Note_on_c, 6, 62, 66
8, 35395, Note_on_c, 6, 62, 0
8, 35410, Note_on_c, 6, 61, 69
8, 35515, Note_on_c, 6, 61, 0
8, 35530, Note_on_c, 6, 62, 67
8, 35635, Note_on_c, 6, 62, 0
8, 35650, Note_on_c, 6, 57, 67
8, 35755, Note_on_c, 6, 57, 0
8, 35770, Note_on_c, 6, 62, 66
8, 35875, Note_on_c, 6, 62, 0
8, 35950, Note_on_c, 6, 62, 66
8, 36002, Note_on_c, 6, 62, 0
8, 36010, Note_on_c, 6, 67, 73
8, 36115, Note_on_c, 6, 67, 0
8, 36130, Note_on_c, 6, 66, 72
8, 36235, Note_on_c, 6, 66, 0
8, 36250, Note_on_c, 6, 67, 72
8, 36355, Note_on_c, 6, 67, 0
8, 36370, Note_on_c, 6, 66, 72
8, 36475, Note_on_c, 6, 66, 0
8, 36490, Note_on_c, 6, 67, 70
8, 36595, Note_on_c, 6, 67, 0
8, 36610, Note_on_c, 6, 62, 69
8, 36715, Note_on_c, 6, 62, 0
8, 36730, Note_on_c, 6, 67, 71
8, 36835, Note_on_c, 6, 67, 0
8, 36910, Note_on_c, 6, 67, 71
8, 36962, Note_on_c, 6, 67, 0
8, 36970, Note_on_c, 6, 72, 77
8, 37075, Note_on_c, 6, 72, 0
8, 37090, Note_on_c, 6, 71, 75
8, 37195, Note_on_c, 6, 71, 0
8, 37210, Note_on_c, 6, 72, 75
8, 37315, Note_on_c, 6, 72, 0
8, 37330, Note_on_c, 6, 71, 77
8, 37435, Note_on_c, 6, 71, 0
8, 37450, Note_on_c, 6, 72, 76
8, 37555, Note_on_c, 6, 72, 0
8, 37570, Note_on_c, 6, 67, 78
8, 37675, Note_on_c, 6, 67, 0
8, 37690, Note_on_c, 6, 67, 77
8, 37795, Note_on_c, 6, 67, 0
8, 37870, Note_on_c, 6, 67, 79
8, 37922, Note_on_c, 6, 67, 0
8, 37930, Note_on_c, 6, 69, 79
8, 38035, Note_on_c, 6, 69, 0
8, 38050, Note_on_c, 6, 67, 78
8, 38155, Note_on_c, 6, 67, 0
8, 38170, Note_on_c, 6, 66, 79
8, 38275, Note_on_c, 6, 66, 0
8, 38350, Note_on_c, 6, 63, 59
8, 38402, Note_on_c, 6, 63, 0
8, 38410, Note_on_c, 6, 64, 59
8, 38515, Note_on_c, 6, 64, 0
8, 38530, Note_on_c, 6, 63, 58
8, 38635, Note_on_c, 6, 63, 0
8, 38650, Note_on_c, 6, 64, 58
8, 38755, Note_on_c, 6, 64, 0
8, 38770, Note_on_c, 6, 63, 57
8, 38875, Note_on_c, 6, 63, 0
8, 38890, Note_on_c, 6, 64, 60
8, 38995, Note_on_c, 6, 64, 0
8, 39010, Note_on_c, 6, 59, 64
8, 39115, Note_on_c, 6, 59, 0
8, 39130, Note_on_c, 6, 60, 64
8, 39235, Note_on_c, 6, 60, 0
8, 39250, Note_on_c, 6, 59, 64
8, 39355, Note_on_c, 6, 59, 0
8, 39370, Note_on_c, 6, 60, 64
8, 39475, Note_on_c, 6, 60, 0
8, 39490, Note_on_c, 6, 59, 64
8, 39542, Note_on_c, 6, 59, 0
8, 39550, Note_on_c, 6, 57, 64
8, 39602, Note_on_c, 6, 57, 0
8, 39610, Note_on_c, 6, 56, 64
8, 39662, Note_on_c, 6, 56, 0
8, 39670, Note_on_c, 6, 59, 64
8, 39722, Note_on_c, 6, 59, 0
8, 39730, Note_on_c, 6, 64, 64
8, 40675, Note_on_c, 6, 64, 0
8, 40690, Note_on_c, 6, 66, 64
8, 40915, Note_on_c, 6, 66, 0
8, 40930, Note_on_c, 6, 64, 64
8, 41155, Note_on_c, 6, 64, 0
8, 41170, Note_on_c, 6, 62, 64
8, 41395, Note_on_c, 6, 62, 0
8, 41410, Note_on_c, 6, 61, 64
8, 41515, Note_on_c, 6, 61, 0
8, 41530, Note_on_c, 6, 62, 64
8, 41635, Note_on_c, 6, 62, 0
8, 41710, Note_on_c, 6, 62, 71
8, 41762, Note_on_c, 6, 62, 0
8, 41770, Note_on_c, 6, 62, 71
8, 41822, Note_on_c, 6, 62, 0
8, 41830, Note_on_c, 6, 62, 71
8, 41882, Note_on_c, 6, 62, 0
8, 41890, Note_on_c, 6, 62, 68
8, 41942, Note_on_c, 6, 62, 0
8, 41950, Note_on_c, 6, 62, 69
8, 42002, Note_on_c, 6, 62, 0
8, 42010, Note_on_c, 6, 62, 70
8, 42062, Note_on_c, 6, 62, 0
8, 42070, Note_on_c, 6, 62, 69
8, 42122, Note_on_c, 6, 62, 0
8, 42130, Note_on_c, 6, 62, 70
8, 42182, Note_on_c, 6, 62, 0
8, 42190, Note_on_c, 6, 62, 69
8, 42242, Note_on_c, 6, 62, 0
8, 42250, Note_on_c, 6, 62, 70
8, 42302, Note_on_c, 6, 62, 0
8, 42310, Note_on_c, 6, 62, 70
8, 42362, Note_on_c, 6, 62, 0
8, 42370, Note_on_c, 6, 61, 71
8, 42422, Note_on_c, 6, 61, 0
8, 42430, Note_on_c, 6, 62, 74
8, 42482, Note_on_c, 6, 62, 0
8, 42490, Note_on_c, 6, 62, 75
8, 42595, Note_on_c, 6, 62, 0
8, 42610, Note_on_c, 6, 57, 64
8, 42715, Note_on_c, 6, 57, 0
8, 42730, Note_on_c, 6, 59, 64
8, 42835, Note_on_c, 6, 59, 0
8, 42850, Note_on_c, 6, 61, 64
8, 42955, Note_on_c, 6, 61, 0
8, 42970, Note_on_c, 6, 57, 64
8, 43075, Note_on_c, 6, 57, 0
8, 43090, Note_on_c, 6, 59, 64
8, 43195, Note_on_c, 6, 59, 0
8, 43210, Note_on_c, 6, 55, 64
8, 43315, Note_on_c, 6, 55, 0
8, 43330, Note_on_c, 6, 57, 64
8, 43435, Note_on_c, 6, 57, 0
8, 43450, Note_on_c, 6, 54, 64
8, 43555, Note_on_c, 6, 54, 0
8, 43570, Note_on_c, 6, 55, 64
8, 43675, Note_on_c, 6, 55, 0
8, 43690, Note_on_c, 6, 52, 64
8, 43795, Note_on_c, 6, 52, 0
8, 43810, Note_on_c, 6, 54, 64
8, 43915, Note_on_c, 6, 54, 0
8, 43930, Note_on_c, 6, 50, 64
8, 44035, Note_on_c, 6, 50, 0
8, 44050, Note_on_c, 6, 52, 64
8, 44155, Note_on_c, 6, 52, 0
8, 44170, Note_on_c, 6, 49, 64
8, 44275, Note_on_c, 6, 49, 0
8, 44290, Note_on_c, 6, 50, 64
8, 44515, Note_on_c, 6, 50, 0
8, 44530, Note_on_c, 6, 49, 64
8, 44635, Note_on_c, 6, 49, 0
8, 44650, Note_on_c, 6, 50, 64
8, 44755, Note_on_c, 6, 50, 0
8, 44770, Note_on_c, 6, 54, 64
8, 44875, Note_on_c, 6, 54, 0
8, 44890, Note_on_c, 6, 52, 64
8, 44995, Note_on_c, 6, 52, 0
8, 45010, Note_on_c, 6, 52, 64
8, 45115, Note_on_c, 6, 52, 0
8, 45130, Note_on_c, 6, 50, 64
8, 45235, Note_on_c, 6, 50, 0
8, 45250, Note_on_c, 6, 54, 64
8, 45355, Note_on_c, 6, 54, 0
8, 45370, Note_on_c, 6, 55, 64
8, 45475, Note_on_c, 6, 55, 0
8, 45490, Note_on_c, 6, 57, 64
8, 45595, Note_on_c, 6, 57, 0
8, 45610, Note_on_c, 6, 59, 64
8, 45715, Note_on_c, 6, 59, 0
8, 45730, Note_on_c, 6, 57, 64
8, 45835, Note_on_c, 6, 57, 0
8, 45850, Note_on_c, 6, 59, 64
8, 45955, Note_on_c, 6, 59, 0
8, 45970, Note_on_c, 6, 57, 64
8, 46075, Note_on_c, 6, 57, 0
8, 46080, Program_c, 6, 19
8, 46080, Control_c, 6, 0, 0
8, 46080, Control_c, 6, 11, 110
8, 46080, Control_c, 6, 64, 0
8, 46080, Control_c, 6, 91, 10
8, 46080, Control_c, 6, 93, 25
8, 46080, Control_c, 6, 7, 100
8, 46081, Control_c, 6, 10, 85
8, 47325, Note_on_c, 6, 50, 84
8, 47430, Note_on_c, 6, 50, 0
8, 47445, Note_on_c, 6, 48, 79
8, 47497, Note_on_c, 6, 48, 0
8, 47505, Note_on_c, 6, 47, 76
8, 47531, Note_on_c, 6, 47, 0
8, 47535, Note_on_c, 6, 45, 75
8, 47561, Note_on_c, 6, 45, 0
8, 47565, Note_on_c, 6, 54, 71
8, 47910, Note_on_c, 6, 54, 0
8, 47925, Note_on_c, 6, 52, 64
8, 47977, Note_on_c, 6, 52, 0
8, 47985, Note_on_c, 6, 51, 64
8, 48037, Note_on_c, 6, 51, 0
8, 48045, Note_on_c, 6, 52, 64
8, 48150, Note_on_c, 6, 52, 0
8, 48165, Note_on_c, 6, 53, 64
8, 48270, Note_on_c, 6, 53, 0
8, 48285, Note_on_c, 6, 52, 64
8, 48390, Note_on_c, 6, 52, 0
8, 48585, Note_on_c, 6, 60, 84
8, 48637, Note_on_c, 6, 60, 0
8, 48645, Note_on_c, 6, 59, 80
8, 48697, Note_on_c, 6, 59, 0
8, 48705, Note_on_c, 6, 57, 76
8, 48757, Note_on_c, 6, 57, 0
8, 48765, Note_on_c, 6, 56, 71
8, 48870, Note_on_c, 6, 56, 0
8, 48885, Note_on_c, 6, 57, 64
8, 48990, Note_on_c, 6, 57, 0
8, 49005, Note_on_c, 6, 59, 64
8, 49230, Note_on_c, 6, 59, 0
8, 49245, Note_on_c, 6, 61, 57
8, 49590, Note_on_c, 6, 61, 0
8, 49605, Note_on_c, 6, 62, 64
8, 49950, Note_on_c, 6, 62, 0
8, 50505, Note_on_c, 6, 58, 82
8, 50557, Note_on_c, 6, 58, 0
8, 50565, Note_on_c, 6, 57, 84
8, 50617, Note_on_c, 6, 57, 0
8, 50625, Note_on_c, 6, 55, 78
8, 50677, Note_on_c, 6, 55, 0
8, 50685, Note_on_c, 6, 54, 76
8, 50737, Note_on_c, 6, 54, 0
8, 50745, Note_on_c, 6, 50, 72
8, 50797, Note_on_c, 6, 50, 0
8, 50805, Note_on_c, 6, 55, 72
8, 50910, Note_on_c, 6, 55, 0
8, 50925, Note_on_c, 6, 52, 76
8, 51090, Note_on_c, 6, 52, 0
8, 51105, Note_on_c, 6, 52, 64
8, 51157, Note_on_c, 6, 52, 0
8, 51165, Note_on_c, 6, 50, 67
8, 51630, Note_on_c, 6, 50, 0
8, 51630, End_track
9, 0, Start_track
9, 0, MIDI_port, 0
9, 0, Title_t, "by"
9, 0, Program_c, 7, 19
9, 7800, Program_c, 7, 19
9, 7805, Control_c, 7, 0, 0
9, 7805, Control_c, 7, 11, 110
9, 7805, Control_c, 7, 64, 0
9, 7805, Control_c, 7, 91, 40
9, 7805, Control_c, 7, 93, 30
9, 7805, Control_c, 7, 7, 90
9, 7805, Control_c, 7, 10, 35
9, 7810, Note_on_c, 7, 50, 78
9, 7915, Note_on_c, 7, 50, 0
9, 7930, Note_on_c, 7, 55, 64
9, 8222, Note_on_c, 7, 55, 0
9, 8230, Note_on_c, 7, 55, 64
9, 8282, Note_on_c, 7, 55, 0
9, 8290, Note_on_c, 7, 54, 64
9, 8395, Note_on_c, 7, 54, 0
9, 8410, Note_on_c, 7, 52, 64
9, 8515, Note_on_c, 7, 52, 0
9, 8530, Note_on_c, 7, 45, 64
9, 8635, Note_on_c, 7, 45, 0
9, 8650, Note_on_c, 7, 50, 64
9, 8755, Note_on_c, 7, 50, 0
9, 8770, Note_on_c, 7, 62, 64
9, 8995, Note_on_c, 7, 62, 0
9, 9010, Note_on_c, 7, 61, 64
9, 9115, Note_on_c, 7, 61, 0
9, 9130, Note_on_c, 7, 59, 64
9, 9355, Note_on_c, 7, 59, 0
9, 9370, Note_on_c, 7, 57, 64
9, 9475, Note_on_c, 7, 57, 0
9, 9490, Note_on_c, 7, 54, 64
9, 9595, Note_on_c, 7, 54, 0
9, 9610, Note_on_c, 7, 55, 64
9, 9835, Note_on_c, 7, 55, 0
9, 9850, Note_on_c, 7, 54, 64
9, 10075, Note_on_c, 7, 54, 0
9, 10090, Note_on_c, 7, 52, 64
9, 10315, Note_on_c, 7, 52, 0
9, 10330, Note_on_c, 7, 50, 64
9, 10435, Note_on_c, 7, 50, 0
9, 10450, Note_on_c, 7, 49, 64
9, 10555, Note_on_c, 7, 49, 0
9, 10570, Note_on_c, 7, 47, 64
9, 10675, Note_on_c, 7, 47, 0
9, 10690, Note_on_c, 7, 52, 64
9, 10795, Note_on_c, 7, 52, 0
9, 10810, Note_on_c, 7, 45, 64
9, 10915, Note_on_c, 7, 45, 0
9, 10990, Note_on_c, 7, 54, 79
9, 11042, Note_on_c, 7, 54, 0
9, 11050, Note_on_c, 7, 55, 76
9, 11102, Note_on_c, 7, 55, 0
9, 11110, Note_on_c, 7, 59, 78
9, 11162, Note_on_c, 7, 59, 0
9, 11170, Note_on_c, 7, 52, 77
9, 11222, Note_on_c, 7, 52, 0
9, 11230, Note_on_c, 7, 55, 75
9, 11282, Note_on_c, 7, 55, 0
9, 11290, Note_on_c, 7, 54, 75
9, 11342, Note_on_c, 7, 54, 0
9, 11350, Note_on_c, 7, 57, 74
9, 11402, Note_on_c, 7, 57, 0
9, 11410, Note_on_c, 7, 50, 74
9, 11462, Note_on_c, 7, 50, 0
9, 11470, Note_on_c, 7, 54, 74
9, 11522, Note_on_c, 7, 54, 0
9, 11530, Note_on_c, 7, 52, 74
9, 11582, Note_on_c, 7, 52, 0
9, 11590, Note_on_c, 7, 55, 74
9, 11642, Note_on_c, 7, 55, 0
9, 11650, Note_on_c, 7, 49, 74
9, 11702, Note_on_c, 7, 49, 0
9, 11710, Note_on_c, 7, 52, 74
9, 11762, Note_on_c, 7, 52, 0
9, 11770, Note_on_c, 7, 50, 75
9, 11822, Note_on_c, 7, 50, 0
9, 11830, Note_on_c, 7, 47, 74
9, 11882, Note_on_c, 7, 47, 0
9, 11890, Note_on_c, 7, 59, 74
9, 12115, Note_on_c, 7, 59, 0
9, 12130, Note_on_c, 7, 58, 64
9, 12235, Note_on_c, 7, 58, 0
9, 12250, Note_on_c, 7, 59, 64
9, 12355, Note_on_c, 7, 59, 0
9, 12430, Note_on_c, 7, 57, 81
9, 12482, Note_on_c, 7, 57, 0
9, 12490, Note_on_c, 7, 59, 82
9, 12542, Note_on_c, 7, 59, 0
9, 12550, Note_on_c, 7, 61, 81
9, 12602, Note_on_c, 7, 61, 0
9, 12610, Note_on_c, 7, 56, 81
9, 12662, Note_on_c, 7, 56, 0
9, 12670, Note_on_c, 7, 59, 82
9, 12722, Note_on_c, 7, 59, 0
9, 12730, Note_on_c, 7, 57, 80
9, 12782, Note_on_c, 7, 57, 0
9, 12790, Note_on_c, 7, 61, 80
9, 12842, Note_on_c, 7, 61, 0
9, 12850, Note_on_c, 7, 54, 80
9, 12902, Note_on_c, 7, 54, 0
9, 12910, Note_on_c, 7, 57, 80
9, 12962, Note_on_c, 7, 57, 0
9, 12970, Note_on_c, 7, 55, 80
9, 13022, Note_on_c, 7, 55, 0
9, 13030, Note_on_c, 7, 59, 81
9, 13082, Note_on_c, 7, 59, 0
9, 13090, Note_on_c, 7, 52, 80
9, 13142, Note_on_c, 7, 52, 0
9, 13150, Note_on_c, 7, 55, 81
9, 13202, Note_on_c, 7, 55, 0
9, 13210, Note_on_c, 7, 54, 81
9, 13262, Note_on_c, 7, 54, 0
9, 13270, Note_on_c, 7, 57, 81
9, 13322, Note_on_c, 7, 57, 0
9, 13330, Note_on_c, 7, 50, 79
9, 13382, Note_on_c, 7, 50, 0
9, 13390, Note_on_c, 7, 54, 80
9, 13442, Note_on_c, 7, 54, 0
9, 13450, Note_on_c, 7, 52, 79
9, 13502, Note_on_c, 7, 52, 0
9, 13510, Note_on_c, 7, 55, 80
9, 13562, Note_on_c, 7, 55, 0
9, 13570, Note_on_c, 7, 49, 80
9, 13622, Note_on_c, 7, 49, 0
9, 13630, Note_on_c, 7, 52, 81
9, 13682, Note_on_c, 7, 52, 0
9, 13690, Note_on_c, 7, 50, 81
9, 13742, Note_on_c, 7, 50, 0
9, 13750, Note_on_c, 7, 54, 80
9, 13802, Note_on_c, 7, 54, 0
9, 13810, Note_on_c, 7, 47, 81
9, 13862, Note_on_c, 7, 47, 0
9, 13870, Note_on_c, 7, 50, 81
9, 13922, Note_on_c, 7, 50, 0
9, 13930, Note_on_c, 7, 49, 79
9, 13982, Note_on_c, 7, 49, 0
9, 13990, Note_on_c, 7, 52, 79
9, 14042, Note_on_c, 7, 52, 0
9, 14050, Note_on_c, 7, 45, 81
9, 14102, Note_on_c, 7, 45, 0
9, 14110, Note_on_c, 7, 49, 81
9, 14162, Note_on_c, 7, 49, 0
9, 14170, Note_on_c, 7, 47, 84
9, 14222, Note_on_c, 7, 47, 0
9, 14230, Note_on_c, 7, 50, 84
9, 14282, Note_on_c, 7, 50, 0
9, 14290, Note_on_c, 7, 49, 83
9, 14342, Note_on_c, 7, 49, 0
9, 14350, Note_on_c, 7, 52, 83
9, 14402, Note_on_c, 7, 52, 0
9, 14410, Note_on_c, 7, 50, 83
9, 14462, Note_on_c, 7, 50, 0
9, 14470, Note_on_c, 7, 52, 82
9, 14522, Note_on_c, 7, 52, 0
9, 14530, Note_on_c, 7, 54, 82
9, 14582, Note_on_c, 7, 54, 0
9, 14590, Note_on_c, 7, 50, 82
9, 14642, Note_on_c, 7, 50, 0
9, 14650, Note_on_c, 7, 55, 83
9, 14702, Note_on_c, 7, 55, 0
9, 14710, Note_on_c, 7, 52, 82
9, 14762, Note_on_c, 7, 52, 0
9, 14770, Note_on_c, 7, 57, 82
9, 14822, Note_on_c, 7, 57, 0
9, 14830, Note_on_c, 7, 45, 82
9, 14882, Note_on_c, 7, 45, 0
9, 14890, Note_on_c, 7, 50, 85
9, 14942, Note_on_c, 7, 50, 0
9, 14950, Note_on_c, 7, 38, 89
9, 15002, Note_on_c, 7, 38, 0
9, 18370, Note_on_c, 7, 42, 71
9, 18475, Note_on_c, 7, 42, 0
9, 18490, Note_on_c, 7, 47, 72
9, 18595, Note_on_c, 7, 47, 0
9, 18610, Note_on_c, 7, 49, 71
9, 18715, Note_on_c, 7, 49, 0
9, 18730, Note_on_c, 7, 50, 69
9, 18835, Note_on_c, 7, 50, 0
9, 19330, Note_on_c, 7, 49, 74
9, 19435, Note_on_c, 7, 49, 0
9, 19450, Note_on_c, 7, 54, 73
9, 19555, Note_on_c, 7, 54, 0
9, 19570, Note_on_c, 7, 56, 73
9, 19675, Note_on_c, 7, 56, 0
9, 19690, Note_on_c, 7, 57, 71
9, 19795, Note_on_c, 7, 57, 0
9, 20290, Note_on_c, 7, 49, 72
9, 20395, Note_on_c, 7, 49, 0
9, 20410, Note_on_c, 7, 54, 69
9, 20515, Note_on_c, 7, 54, 0
9, 20530, Note_on_c, 7, 56, 69
9, 20635, Note_on_c, 7, 56, 0
9, 20650, Note_on_c, 7, 57, 71
9, 20755, Note_on_c, 7, 57, 0
9, 20770, Note_on_c, 7, 59, 71
9, 20875, Note_on_c, 7, 59, 0
9, 20890, Note_on_c, 7, 57, 69
9, 20995, Note_on_c, 7, 57, 0
9, 21010, Note_on_c, 7, 59, 70
9, 21115, Note_on_c, 7, 59, 0
9, 21130, Note_on_c, 7, 61, 71
9, 21235, Note_on_c, 7, 61, 0
9, 21310, Note_on_c, 7, 53, 86
9, 21362, Note_on_c, 7, 53, 0
9, 21370, Note_on_c, 7, 54, 88
9, 21422, Note_on_c, 7, 54, 0
9, 21430, Note_on_c, 7, 57, 83
9, 21482, Note_on_c, 7, 57, 0
9, 21490, Note_on_c, 7, 53, 85
9, 21542, Note_on_c, 7, 53, 0
9, 21550, Note_on_c, 7, 56, 86
9, 21602, Note_on_c, 7, 56, 0
9, 21610, Note_on_c, 7, 54, 85
9, 21662, Note_on_c, 7, 54, 0
9, 21670, Note_on_c, 7, 57, 84
9, 21722, Note_on_c, 7, 57, 0
9, 21730, Note_on_c, 7, 53, 85
9, 21782, Note_on_c, 7, 53, 0
9, 21790, Note_on_c, 7, 56, 87
9, 21842, Note_on_c, 7, 56, 0
9, 21850, Note_on_c, 7, 54, 86
9, 21902, Note_on_c, 7, 54, 0
9, 21910, Note_on_c, 7, 57, 84
9, 21962, Note_on_c, 7, 57, 0
9, 21970, Note_on_c, 7, 52, 84
9, 22022, Note_on_c, 7, 52, 0
9, 22030, Note_on_c, 7, 56, 84
9, 22082, Note_on_c, 7, 56, 0
9, 22090, Note_on_c, 7, 50, 84
9, 22142, Note_on_c, 7, 50, 0
9, 22150, Note_on_c, 7, 54, 84
9, 22202, Note_on_c, 7, 54, 0
9, 22210, Note_on_c, 7, 49, 87
9, 22262, Note_on_c, 7, 49, 0
9, 22270, Note_on_c, 7, 54, 86
9, 22322, Note_on_c, 7, 54, 0
9, 22330, Note_on_c, 7, 47, 84
9, 22382, Note_on_c, 7, 47, 0
9, 22390, Note_on_c, 7, 54, 83
9, 22442, Note_on_c, 7, 54, 0
9, 22450, Note_on_c, 7, 49, 85
9, 22502, Note_on_c, 7, 49, 0
9, 22510, Note_on_c, 7, 53, 88
9, 22562, Note_on_c, 7, 53, 0
9, 22570, Note_on_c, 7, 42, 89
9, 22675, Note_on_c, 7, 42, 0
9, 25090, Note_on_c, 7, 45, 69
9, 25195, Note_on_c, 7, 45, 0
9, 25210, Note_on_c, 7, 50, 68
9, 25315, Note_on_c, 7, 50, 0
9, 25330, Note_on_c, 7, 49, 68
9, 25435, Note_on_c, 7, 49, 0
9, 25450, Note_on_c, 7, 50, 67
9, 25555, Note_on_c, 7, 50, 0
9, 26050, Note_on_c, 7, 50, 74
9, 26155, Note_on_c, 7, 50, 0
9, 26170, Note_on_c, 7, 55, 72
9, 26275, Note_on_c, 7, 55, 0
9, 26290, Note_on_c, 7, 54, 73
9, 26395, Note_on_c, 7, 54, 0
9, 26410, Note_on_c, 7, 55, 72
9, 26515, Note_on_c, 7, 55, 0
9, 27010, Note_on_c, 7, 52, 77
9, 27115, Note_on_c, 7, 52, 0
9, 27130, Note_on_c, 7, 57, 75
9, 27235, Note_on_c, 7, 57, 0
9, 27250, Note_on_c, 7, 56, 75
9, 27355, Note_on_c, 7, 56, 0
9, 27370, Note_on_c, 7, 57, 75
9, 27475, Note_on_c, 7, 57, 0
9, 27970, Note_on_c, 7, 57, 86
9, 28075, Note_on_c, 7, 57, 0
9, 28090, Note_on_c, 7, 62, 82
9, 28195, Note_on_c, 7, 62, 0
9, 28210, Note_on_c, 7, 61, 82
9, 28315, Note_on_c, 7, 61, 0
9, 28330, Note_on_c, 7, 62, 85
9, 28435, Note_on_c, 7, 62, 0
9, 30670, Note_on_c, 7, 49, 89
9, 30722, Note_on_c, 7, 49, 0
9, 30730, Note_on_c, 7, 50, 84
9, 30782, Note_on_c, 7, 50, 0
9, 30790, Note_on_c, 7, 47, 81
9, 30842, Note_on_c, 7, 47, 0
9, 30850, Note_on_c, 7, 52, 82
9, 30902, Note_on_c, 7, 52, 0
9, 30910, Note_on_c, 7, 40, 85
9, 30962, Note_on_c, 7, 40, 0
9, 30970, Note_on_c, 7, 45, 88
9, 31075, Note_on_c, 7, 45, 0
9, 31090, Note_on_c, 7, 57, 71
9, 31315, Note_on_c, 7, 57, 0
9, 31330, Note_on_c, 7, 55, 64
9, 31555, Note_on_c, 7, 55, 0
9, 31570, Note_on_c, 7, 54, 64
9, 31795, Note_on_c, 7, 54, 0
9, 31810, Note_on_c, 7, 52, 64
9, 32035, Note_on_c, 7, 52, 0
9, 32050, Note_on_c, 7, 50, 64
9, 32275, Note_on_c, 7, 50, 0
9, 32290, Note_on_c, 7, 49, 64
9, 32395, Note_on_c, 7, 49, 0
9, 32410, Note_on_c, 7, 50, 64
9, 32515, Note_on_c, 7, 50, 0
9, 32530, Note_on_c, 7, 47, 64
9, 32635, Note_on_c, 7, 47, 0
9, 32650, Note_on_c, 7, 43, 64
9, 32755, Note_on_c, 7, 43, 0
9, 32770, Note_on_c, 7, 45, 64
9, 32875, Note_on_c, 7, 45, 0
9, 32890, Note_on_c, 7, 38, 64
9, 32995, Note_on_c, 7, 38, 0
9, 33070, Note_on_c, 7, 54, 82
9, 33122, Note_on_c, 7, 54, 0
9, 33130, Note_on_c, 7, 55, 85
9, 33182, Note_on_c, 7, 55, 0
9, 33190, Note_on_c, 7, 59, 86
9, 33242, Note_on_c, 7, 59, 0
9, 33250, Note_on_c, 7, 52, 87
9, 33302, Note_on_c, 7, 52, 0
9, 33310, Note_on_c, 7, 55, 85
9, 33362, Note_on_c, 7, 55, 0
9, 33370, Note_on_c, 7, 54, 86
9, 33422, Note_on_c, 7, 54, 0
9, 33430, Note_on_c, 7, 50, 82
9, 33482, Note_on_c, 7, 50, 0
9, 33490, Note_on_c, 7, 55, 82
9, 33542, Note_on_c, 7, 55, 0
9, 33550, Note_on_c, 7, 47, 83
9, 33602, Note_on_c, 7, 47, 0
9, 33610, Note_on_c, 7, 48, 83
9, 33662, Note_on_c, 7, 48, 0
9, 33670, Note_on_c, 7, 45, 87
9, 33722, Note_on_c, 7, 45, 0
9, 33730, Note_on_c, 7, 50, 90
9, 33782, Note_on_c, 7, 50, 0
9, 33790, Note_on_c, 7, 38, 90
9, 33842, Note_on_c, 7, 38, 0
9, 33850, Note_on_c, 7, 43, 74
9, 33955, Note_on_c, 7, 43, 0
9, 34510, Note_on_c, 7, 43, 69
9, 34562, Note_on_c, 7, 43, 0
9, 34570, Note_on_c, 7, 48, 70
9, 34675, Note_on_c, 7, 48, 0
9, 34690, Note_on_c, 7, 47, 70
9, 34795, Note_on_c, 7, 47, 0
9, 34810, Note_on_c, 7, 48, 68
9, 34915, Note_on_c, 7, 48, 0
9, 35470, Note_on_c, 7, 45, 74
9, 35522, Note_on_c, 7, 45, 0
9, 35530, Note_on_c, 7, 50, 74
9, 35635, Note_on_c, 7, 50, 0
9, 35650, Note_on_c, 7, 49, 76
9, 35755, Note_on_c, 7, 49, 0
9, 35770, Note_on_c, 7, 50, 73
9, 35875, Note_on_c, 7, 50, 0
9, 36430, Note_on_c, 7, 50, 80
9, 36482, Note_on_c, 7, 50, 0
9, 36490, Note_on_c, 7, 55, 80
9, 36595, Note_on_c, 7, 55, 0
9, 36610, Note_on_c, 7, 54, 81
9, 36715, Note_on_c, 7, 54, 0
9, 36730, Note_on_c, 7, 55, 80
9, 36835, Note_on_c, 7, 55, 0
9, 37390, Note_on_c, 7, 55, 90
9, 37442, Note_on_c, 7, 55, 0
9, 37450, Note_on_c, 7, 60, 90
9, 37555, Note_on_c, 7, 60, 0
9, 37570, Note_on_c, 7, 59, 89
9, 37675, Note_on_c, 7, 59, 0
9, 37690, Note_on_c, 7, 60, 88
9, 37795, Note_on_c, 7, 60, 0
9, 37870, Note_on_c, 7, 59, 80
9, 37922, Note_on_c, 7, 59, 0
9, 37930, Note_on_c, 7, 57, 79
9, 38155, Note_on_c, 7, 57, 0
9, 38170, Note_on_c, 7, 59, 82
9, 38275, Note_on_c, 7, 59, 0
9, 38830, Note_on_c, 7, 59, 76
9, 38882, Note_on_c, 7, 59, 0
9, 38890, Note_on_c, 7, 60, 72
9, 38942, Note_on_c, 7, 60, 0
9, 38950, Note_on_c, 7, 62, 73
9, 39002, Note_on_c, 7, 62, 0
9, 39010, Note_on_c, 7, 59, 77
9, 39062, Note_on_c, 7, 59, 0
9, 39070, Note_on_c, 7, 62, 77
9, 39122, Note_on_c, 7, 62, 0
9, 39130, Note_on_c, 7, 57, 78
9, 39182, Note_on_c, 7, 57, 0
9, 39190, Note_on_c, 7, 60, 77
9, 39242, Note_on_c, 7, 60, 0
9, 39250, Note_on_c, 7, 55, 78
9, 39302, Note_on_c, 7, 55, 0
9, 39310, Note_on_c, 7, 59, 79
9, 39362, Note_on_c, 7, 59, 0
9, 39370, Note_on_c, 7, 57, 80
9, 39422, Note_on_c, 7, 57, 0
9, 39430, Note_on_c, 7, 60, 82
9, 39482, Note_on_c, 7, 60, 0
9, 39490, Note_on_c, 7, 47, 86
9, 39542, Note_on_c, 7, 47, 0
9, 39550, Note_on_c, 7, 59, 86
9, 39602, Note_on_c, 7, 59, 0
9, 39610, Note_on_c, 7, 52, 87
9, 39715, Note_on_c, 7, 52, 0
9, 39790, Note_on_c, 7, 56, 64
9, 39842, Note_on_c, 7, 56, 0
9, 39850, Note_on_c, 7, 57, 64
9, 39955, Note_on_c, 7, 57, 0
9, 39970, Note_on_c, 7, 56, 64
9, 40075, Note_on_c, 7, 56, 0
9, 40090, Note_on_c, 7, 57, 64
9, 40195, Note_on_c, 7, 57, 0
9, 40450, Note_on_c, 7, 52, 64
9, 40555, Note_on_c, 7, 52, 0
9, 40570, Note_on_c, 7, 45, 64
9, 40675, Note_on_c, 7, 45, 0
9, 40750, Note_on_c, 7, 54, 64
9, 40802, Note_on_c, 7, 54, 0
9, 40810, Note_on_c, 7, 55, 64
9, 41035, Note_on_c, 7, 55, 0
9, 41050, Note_on_c, 7, 54, 64
9, 41275, Note_on_c, 7, 54, 0
9, 41290, Note_on_c, 7, 52, 64
9, 41515, Note_on_c, 7, 52, 0
9, 41530, Note_on_c, 7, 50, 64
9, 41635, Note_on_c, 7, 50, 0
9, 41650, Note_on_c, 7, 54, 71
9, 41755, Note_on_c, 7, 54, 0
9, 41770, Note_on_c, 7, 55, 71
9, 41875, Note_on_c, 7, 55, 0
9, 41890, Note_on_c, 7, 57, 72
9, 41995, Note_on_c, 7, 57, 0
9, 42010, Note_on_c, 7, 59, 72
9, 42115, Note_on_c, 7, 59, 0
9, 42130, Note_on_c, 7, 55, 78
9, 42235, Note_on_c, 7, 55, 0
9, 42250, Note_on_c, 7, 57, 75
9, 42355, Note_on_c, 7, 57, 0
9, 42370, Note_on_c, 7, 45, 78
9, 42475, Note_on_c, 7, 45, 0
9, 42490, Note_on_c, 7, 50, 64
9, 42595, Note_on_c, 7, 50, 0
9, 42610, Note_on_c, 7, 50, 64
9, 42835, Note_on_c, 7, 50, 0
9, 42850, Note_on_c, 7, 49, 64
9, 43075, Note_on_c, 7, 49, 0
9, 43090, Note_on_c, 7, 47, 64
9, 43315, Note_on_c, 7, 47, 0
9, 43330, Note_on_c, 7, 45, 64
9, 43555, Note_on_c, 7, 45, 0
9, 43570, Note_on_c, 7, 43, 64
9, 43795, Note_on_c, 7, 43, 0
9, 43810, Note_on_c, 7, 42, 64
9, 44035, Note_on_c, 7, 42, 0
9, 44050, Note_on_c, 7, 40, 64
9, 44155, Note_on_c, 7, 40, 0
9, 44170, Note_on_c, 7, 42, 64
9, 44395, Note_on_c, 7, 42, 0
9, 44410, Note_on_c, 7, 43, 64
9, 44515, Note_on_c, 7, 43, 0
9, 44530, Note_on_c, 7, 45, 64
9, 44635, Note_on_c, 7, 45, 0
9, 44650, Note_on_c, 7, 47, 64
9, 44755, Note_on_c, 7, 47, 0
9, 44770, Note_on_c, 7, 42, 64
9, 44875, Note_on_c, 7, 42, 0
9, 44890, Note_on_c, 7, 43, 64
9, 44995, Note_on_c, 7, 43, 0
9, 45010, Note_on_c, 7, 45, 64
9, 45115, Note_on_c, 7, 45, 0
9, 45130, Note_on_c, 7, 47, 64
9, 45235, Note_on_c, 7, 47, 0
9, 45730, Note_on_c, 7, 42, 64
9, 45835, Note_on_c, 7, 42, 0
9, 45850, Note_on_c, 7, 43, 67
9, 45955, Note_on_c, 7, 43, 0
9, 45970, Note_on_c, 7, 45, 68
9, 46075, Note_on_c, 7, 45, 0
9, 46075, Program_c, 7, 19
9, 46075, Control_c, 7, 0, 0
9, 46075, Control_c, 7, 11, 110
9, 46075, Control_c, 7, 64, 0
9, 46075, Control_c, 7, 91, 70
9, 46075, Control_c, 7, 93, 30
9, 46075, Control_c, 7, 7, 100
9, 46076, Control_c, 7, 10, 64
9, 46082, Note_on_c, 7, 39, 77
9, 46307, Note_on_c, 7, 39, 0
9, 46322, Note_on_c, 7, 40, 64
9, 46427, Note_on_c, 7, 40, 0
9, 46562, Note_on_c, 7, 56, 64
9, 46787, Note_on_c, 7, 56, 0
9, 46802, Note_on_c, 7, 57, 64
9, 46907, Note_on_c, 7, 57, 0
9, 46922, Note_on_c, 7, 45, 64
9, 47027, Note_on_c, 7, 45, 0
9, 47042, Note_on_c, 7, 50, 64
9, 47104, Note_on_c, 7, 50, 0
9, 47685, Note_on_c, 7, 47, 64
9, 47790, Note_on_c, 7, 47, 0
9, 47805, Note_on_c, 7, 40, 78
9, 48150, Note_on_c, 7, 40, 0
9, 48165, Note_on_c, 7, 38, 64
9, 48270, Note_on_c, 7, 38, 0
9, 48285, Note_on_c, 7, 36, 64
9, 48337, Note_on_c, 7, 36, 0
9, 48345, Note_on_c, 7, 48, 82
9, 48397, Note_on_c, 7, 48, 0
9, 48405, Note_on_c, 7, 47, 78
9, 48457, Note_on_c, 7, 47, 0
9, 48465, Note_on_c, 7, 45, 75
9, 48517, Note_on_c, 7, 45, 0
9, 48525, Note_on_c, 7, 52, 74
9, 49110, Note_on_c, 7, 52, 0
9, 49125, Note_on_c, 7, 50, 64
9, 49230, Note_on_c, 7, 50, 0
9, 49245, Note_on_c, 7, 49, 77
9, 49470, Note_on_c, 7, 49, 0
9, 49485, Note_on_c, 7, 41, 64
9, 49710, Note_on_c, 7, 41, 0
9, 49725, Note_on_c, 7, 43, 64
9, 49950, Note_on_c, 7, 43, 0
9, 50203, Note_on_c, 7, 45, 76
9, 50208, Note_on_c, 7, 33, 76
9, 50668, Note_on_c, 7, 45, 0
9, 50673, Note_on_c, 7, 33, 0
9, 50685, Note_on_c, 7, 38, 64
9, 50688, Note_on_c, 7, 26, 64
9, 50910, Note_on_c, 7, 38, 0
9, 50913, Note_on_c, 7, 26, 0
9, 51165, Note_on_c, 7, 50, 60
9, 51168, Note_on_c, 7, 26, 90
9, 51630, Note_on_c, 7, 50, 0
9, 51633, Note_on_c, 7, 26, 0
9, 51844, Program_c, 7, 4
9, 51844, Control_c, 7, 0, 0
9, 51844, Control_c, 7, 11, 110
9, 51844, Control_c, 7, 64, 0
9, 51844, Control_c, 7, 91, 50
9, 51844, Control_c, 7, 93, 20
9, 51844, Control_c, 7, 7, 80
9, 51845, Control_c, 7, 10, 100
9, 51960, Note_on_c, 7, 62, 64
9, 51986, Note_on_c, 7, 62, 0
9, 51990, Note_on_c, 7, 64, 64
9, 52016, Note_on_c, 7, 64, 0
9, 52020, Note_on_c, 7, 66, 64
9, 52046, Note_on_c, 7, 66, 0
9, 52050, Note_on_c, 7, 64, 64
9, 52076, Note_on_c, 7, 64, 0
9, 52080, Note_on_c, 7, 62, 64
9, 52106, Note_on_c, 7, 62, 0
9, 52110, Note_on_c, 7, 64, 64
9, 52136, Note_on_c, 7, 64, 0
9, 52140, Note_on_c, 7, 66, 64
9, 52166, Note_on_c, 7, 66, 0
9, 52170, Note_on_c, 7, 64, 64
9, 52196, Note_on_c, 7, 64, 0
9, 52200, Note_on_c, 7, 62, 64
9, 52226, Note_on_c, 7, 62, 0
9, 52230, Note_on_c, 7, 64, 64
9, 52256, Note_on_c, 7, 64, 0
9, 52260, Note_on_c, 7, 66, 64
9, 52286, Note_on_c, 7, 66, 0
9, 52290, Note_on_c, 7, 64, 64
9, 52316, Note_on_c, 7, 64, 0
9, 52320, Note_on_c, 7, 62, 64
9, 52346, Note_on_c, 7, 62, 0
9, 52350, Note_on_c, 7, 64, 64
9, 52376, Note_on_c, 7, 64, 0
9, 52380, Note_on_c, 7, 66, 64
9, 52406, Note_on_c, 7, 66, 0
9, 52410, Note_on_c, 7, 64, 64
9, 52436, Note_on_c, 7, 64, 0
9, 52440, Note_on_c, 7, 62, 64
9, 52492, Note_on_c, 7, 62, 0
9, 52800, Note_on_c, 7, 71, 64
9, 52826, Note_on_c, 7, 71, 0
9, 52830, Note_on_c, 7, 69, 64
9, 52856, Note_on_c, 7, 69, 0
9, 52860, Note_on_c, 7, 71, 64
9, 52886, Note_on_c, 7, 71, 0
9, 52890, Note_on_c, 7, 66, 64
9, 52916, Note_on_c, 7, 66, 0
9, 52920, Note_on_c, 7, 67, 64
9, 52946, Note_on_c, 7, 67, 0
9, 52950, Note_on_c, 7, 66, 64
9, 52976, Note_on_c, 7, 66, 0
9, 52980, Note_on_c, 7, 67, 64
9, 53006, Note_on_c, 7, 67, 0
9, 53010, Note_on_c, 7, 64, 64
9, 53036, Note_on_c, 7, 64, 0
9, 53040, Note_on_c, 7, 69, 64
9, 53066, Note_on_c, 7, 69, 0
9, 53070, Note_on_c, 7, 67, 64
9, 53096, Note_on_c, 7, 67, 0
9, 53100, Note_on_c, 7, 69, 64
9, 53126, Note_on_c, 7, 69, 0
9, 53130, Note_on_c, 7, 64, 64
9, 53156, Note_on_c, 7, 64, 0
9, 53160, Note_on_c, 7, 66, 64
9, 53186, Note_on_c, 7, 66, 0
9, 53190, Note_on_c, 7, 64, 64
9, 53216, Note_on_c, 7, 64, 0
9, 53220, Note_on_c, 7, 66, 64
9, 53246, Note_on_c, 7, 66, 0
9, 53250, Note_on_c, 7, 62, 64
9, 53276, Note_on_c, 7, 62, 0
9, 53280, Note_on_c, 7, 67, 64
9, 53306, Note_on_c, 7, 67, 0
9, 53310, Note_on_c, 7, 66, 64
9, 53336, Note_on_c, 7, 66, 0
9, 53340, Note_on_c, 7, 67, 64
9, 53366, Note_on_c, 7, 67, 0
9, 53370, Note_on_c, 7, 62, 64
9, 53396, Note_on_c, 7, 62, 0
9, 53400, Note_on_c, 7, 64, 64
9, 53426, Note_on_c, 7, 64, 0
9, 53430, Note_on_c, 7, 62, 64
9, 53456, Note_on_c, 7, 62, 0
9, 53460, Note_on_c, 7, 64, 64
9, 53486, Note_on_c, 7, 64, 0
9, 53490, Note_on_c, 7, 61, 64
9, 53516, Note_on_c, 7, 61, 0
9, 53520, Note_on_c, 7, 66, 64
9, 53546, Note_on_c, 7, 66, 0
9, 53550, Note_on_c, 7, 64, 64
9, 53576, Note_on_c, 7, 64, 0
9, 53580, Note_on_c, 7, 66, 64
9, 53606, Note_on_c, 7, 66, 0
9, 53610, Note_on_c, 7, 61, 64
9, 53636, Note_on_c, 7, 61, 0
9, 53640, Note_on_c, 7, 62, 64
9, 53666, Note_on_c, 7, 62, 0
9, 53670, Note_on_c, 7, 61, 64
9, 53696, Note_on_c, 7, 61, 0
9, 53700, Note_on_c, 7, 62, 64
9, 53726, Note_on_c, 7, 62, 0
9, 53730, Note_on_c, 7, 59, 64
9, 53756, Note_on_c, 7, 59, 0
9, 53760, Note_on_c, 7, 64, 64
9, 53786, Note_on_c, 7, 64, 0
9, 53790, Note_on_c, 7, 62, 64
9, 53816, Note_on_c, 7, 62, 0
9, 53820, Note_on_c, 7, 64, 64
9, 53846, Note_on_c, 7, 64, 0
9, 53850, Note_on_c, 7, 59, 64
9, 53876, Note_on_c, 7, 59, 0
9, 53880, Note_on_c, 7, 61, 64
9, 53906, Note_on_c, 7, 61, 0
9, 53910, Note_on_c, 7, 59, 64
9, 53936, Note_on_c, 7, 59, 0
9, 53940, Note_on_c, 7, 61, 64
9, 53966, Note_on_c, 7, 61, 0
9, 53970, Note_on_c, 7, 57, 64
9, 53996, Note_on_c, 7, 57, 0
9, 54000, Note_on_c, 7, 62, 64
9, 54146, Note_on_c, 7, 62, 0
9, 54150, Note_on_c, 7, 64, 64
9, 54176, Note_on_c, 7, 64, 0
9, 54180, Note_on_c, 7, 62, 64
9, 54206, Note_on_c, 7, 62, 0
9, 54210, Note_on_c, 7, 64, 64
9, 54236, Note_on_c, 7, 64, 0
9, 54240, Note_on_c, 7, 61, 64
9, 54253, Note_on_c, 7, 61, 0
9, 54255, Note_on_c, 7, 59, 64
9, 54268, Note_on_c, 7, 59, 0
9, 54270, Note_on_c, 7, 61, 64
9, 54321, Note_on_c, 7, 61, 0
9, 54330, Note_on_c, 7, 62, 64
9, 54356, Note_on_c, 7, 62, 0
9, 54360, Note_on_c, 7, 62, 64
9, 54386, Note_on_c, 7, 62, 0
9, 54390, Note_on_c, 7, 66, 64
9, 54416, Note_on_c, 7, 66, 0
9, 54420, Note_on_c, 7, 62, 64
9, 54446, Note_on_c, 7, 62, 0
9, 54450, Note_on_c, 7, 57, 64
9, 54476, Note_on_c, 7, 57, 0
9, 54480, Note_on_c, 7, 54, 64
9, 54506, Note_on_c, 7, 54, 0
9, 54510, Note_on_c, 7, 57, 64
9, 54536, Note_on_c, 7, 57, 0
9, 54540, Note_on_c, 7, 54, 64
9, 54566, Note_on_c, 7, 54, 0
9, 54570, Note_on_c, 7, 50, 64
9, 54596, Note_on_c, 7, 50, 0
9, 54600, Note_on_c, 7, 57, 64
9, 54652, Note_on_c, 7, 57, 0
9, 55134, Program_c, 7, 103
9, 55134, Control_c, 7, 0, 0
9, 55134, Control_c, 7, 11, 110
9, 55134, Control_c, 7, 64, 0
9, 55134, Control_c, 7, 91, 40
9, 55134, Control_c, 7, 93, 10
9, 55134, Control_c, 7, 7, 50
9, 55135, Control_c, 7, 10, 100
9, 55140, Note_on_c, 7, 57, 64
9, 55166, Note_on_c, 7, 57, 0
9, 55170, Note_on_c, 7, 56, 64
9, 55196, Note_on_c, 7, 56, 0
9, 55200, Note_on_c, 7, 57, 64
9, 55226, Note_on_c, 7, 57, 0
9, 55230, Note_on_c, 7, 56, 64
9, 55256, Note_on_c, 7, 56, 0
9, 55260, Note_on_c, 7, 57, 64
9, 55286, Note_on_c, 7, 57, 0
9, 55290, Note_on_c, 7, 56, 64
9, 55316, Note_on_c, 7, 56, 0
9, 55320, Note_on_c, 7, 57, 64
9, 55372, Note_on_c, 7, 57, 0
9, 55380, Note_on_c, 7, 45, 64
9, 55432, Note_on_c, 7, 45, 0
9, 55500, Note_on_c, 7, 69, 64
9, 55552, Note_on_c, 7, 69, 0
9, 55560, Note_on_c, 7, 69, 64
9, 55665, Note_on_c, 7, 69, 0
9, 55740, Note_on_c, 7, 68, 64
9, 55792, Note_on_c, 7, 68, 0
9, 55800, Note_on_c, 7, 68, 64
9, 55905, Note_on_c, 7, 68, 0
9, 55980, Note_on_c, 7, 66, 64
9, 56032, Note_on_c, 7, 66, 0
9, 56040, Note_on_c, 7, 66, 64
9, 56145, Note_on_c, 7, 66, 0
9, 56220, Note_on_c, 7, 64, 64
9, 56272, Note_on_c, 7, 64, 0
9, 56280, Note_on_c, 7, 64, 64
9, 56385, Note_on_c, 7, 64, 0
9, 56460, Note_on_c, 7, 62, 64
9, 56512, Note_on_c, 7, 62, 0
9, 56520, Note_on_c, 7, 62, 64
9, 56625, Note_on_c, 7, 62, 0
9, 56670, Note_on_c, 7, 61, 64
9, 56696, Note_on_c, 7, 61, 0
9, 56700, Note_on_c, 7, 66, 64
9, 56726, Note_on_c, 7, 66, 0
9, 56730, Note_on_c, 7, 61, 64
9, 56756, Note_on_c, 7, 61, 0
9, 56760, Note_on_c, 7, 62, 64
9, 56812, Note_on_c, 7, 62, 0
9, 56820, Note_on_c, 7, 59, 64
9, 56872, Note_on_c, 7, 59, 0
9, 56910, Note_on_c, 7, 59, 64
9, 56936, Note_on_c, 7, 59, 0
9, 56940, Note_on_c, 7, 64, 64
9, 56966, Note_on_c, 7, 64, 0
9, 56970, Note_on_c, 7, 59, 64
9, 56996, Note_on_c, 7, 59, 0
9, 57000, Note_on_c, 7, 61, 64
9, 57052, Note_on_c, 7, 61, 0
9, 57120, Note_on_c, 7, 61, 64
9, 57146, Note_on_c, 7, 61, 0
9, 57150, Note_on_c, 7, 64, 64
9, 57176, Note_on_c, 7, 64, 0
9, 57180, Note_on_c, 7, 61, 64
9, 57206, Note_on_c, 7, 61, 0
9, 57210, Note_on_c, 7, 57, 64
9, 57236, Note_on_c, 7, 57, 0
9, 57240, Note_on_c, 7, 54, 64
9, 57292, Note_on_c, 7, 54, 0
9, 57360, Note_on_c, 7, 66, 64
9, 57386, Note_on_c, 7, 66, 0
9, 57390, Note_on_c, 7, 69, 64
9, 57416, Note_on_c, 7, 69, 0
9, 57420, Note_on_c, 7, 66, 64
9, 57446, Note_on_c, 7, 66, 0
9, 57450, Note_on_c, 7, 62, 64
9, 57476, Note_on_c, 7, 62, 0
9, 57480, Note_on_c, 7, 59, 64
9, 57532, Note_on_c, 7, 59, 0
9, 57600, Note_on_c, 7, 64, 64
9, 57626, Note_on_c, 7, 64, 0
9, 57630, Note_on_c, 7, 67, 64
9, 57656, Note_on_c, 7, 67, 0
9, 57660, Note_on_c, 7, 64, 64
9, 57686, Note_on_c, 7, 64, 0
9, 57690, Note_on_c, 7, 59, 64
9, 57716, Note_on_c, 7, 59, 0
9, 57720, Note_on_c, 7, 61, 64
9, 57772, Note_on_c, 7, 61, 0
9, 57780, Note_on_c, 7, 57, 64
9, 57832, Note_on_c, 7, 57, 0
9, 57870, Note_on_c, 7, 57, 64
9, 57896, Note_on_c, 7, 57, 0
9, 57900, Note_on_c, 7, 62, 64
9, 57926, Note_on_c, 7, 62, 0
9, 57930, Note_on_c, 7, 57, 64
9, 57956, Note_on_c, 7, 57, 0
9, 57960, Note_on_c, 7, 59, 64
9, 57986, Note_on_c, 7, 59, 0
9, 57990, Note_on_c, 7, 61, 64
9, 58016, Note_on_c, 7, 61, 0
9, 58020, Note_on_c, 7, 62, 64
9, 58125, Note_on_c, 7, 62, 0
9, 58140, Note_on_c, 7, 61, 64
9, 58192, Note_on_c, 7, 61, 0
9, 58200, Note_on_c, 7, 62, 64
9, 58252, Note_on_c, 7, 62, 0
9, 58260, Note_on_c, 7, 50, 73
9, 58312, Note_on_c, 7, 50, 0
9, 58377, Program_c, 7, 22
9, 58377, Control_c, 7, 0, 0
9, 58377, Control_c, 7, 11, 110
9, 58377, Control_c, 7, 64, 0
9, 58377, Control_c, 7, 91, 0
9, 58377, Control_c, 7, 93, 30
9, 58377, Control_c, 7, 7, 40
9, 58378, Control_c, 7, 10, 100
9, 58380, Note_on_c, 7, 52, 71
9, 58432, Note_on_c, 7, 52, 0
9, 58440, Note_on_c, 7, 54, 71
9, 58492, Note_on_c, 7, 54, 0
9, 58500, Note_on_c, 7, 55, 71
9, 58552, Note_on_c, 7, 55, 0
9, 58560, Note_on_c, 7, 57, 70
9, 58612, Note_on_c, 7, 57, 0
9, 58620, Note_on_c, 7, 45, 72
9, 58672, Note_on_c, 7, 45, 0
9, 58680, Note_on_c, 7, 50, 72
9, 58732, Note_on_c, 7, 50, 0
9, 59100, Note_on_c, 7, 62, 72
9, 59152, Note_on_c, 7, 62, 0
9, 59160, Note_on_c, 7, 62, 72
9, 59265, Note_on_c, 7, 62, 0
9, 59340, Note_on_c, 7, 61, 71
9, 59392, Note_on_c, 7, 61, 0
9, 59400, Note_on_c, 7, 61, 71
9, 59505, Note_on_c, 7, 61, 0
9, 59580, Note_on_c, 7, 59, 71
9, 59632, Note_on_c, 7, 59, 0
9, 59640, Note_on_c, 7, 59, 71
9, 59745, Note_on_c, 7, 59, 0
9, 59820, Note_on_c, 7, 57, 72
9, 59872, Note_on_c, 7, 57, 0
9, 59880, Note_on_c, 7, 57, 73
9, 59985, Note_on_c, 7, 57, 0
9, 60060, Note_on_c, 7, 55, 73
9, 60112, Note_on_c, 7, 55, 0
9, 60120, Note_on_c, 7, 55, 75
9, 60225, Note_on_c, 7, 55, 0
9, 60240, Note_on_c, 7, 54, 77
9, 60345, Note_on_c, 7, 54, 0
9, 60360, Note_on_c, 7, 55, 77
9, 60412, Note_on_c, 7, 55, 0
9, 60420, Note_on_c, 7, 54, 76
9, 60472, Note_on_c, 7, 54, 0
9, 60480, Note_on_c, 7, 52, 75
9, 60532, Note_on_c, 7, 52, 0
9, 60540, Note_on_c, 7, 45, 75
9, 60592, Note_on_c, 7, 45, 0
9, 60600, Note_on_c, 7, 50, 75
9, 60705, Note_on_c, 7, 50, 0
9, 61020, Note_on_c, 7, 61, 64
9, 61072, Note_on_c, 7, 61, 0
9, 61080, Note_on_c, 7, 59, 64
9, 61106, Note_on_c, 7, 59, 0
9, 61110, Note_on_c, 7, 66, 64
9, 61136, Note_on_c, 7, 66, 0
9, 61140, Note_on_c, 7, 62, 64
9, 61166, Note_on_c, 7, 62, 0
9, 61170, Note_on_c, 7, 59, 64
9, 61196, Note_on_c, 7, 59, 0
9, 61200, Note_on_c, 7, 64, 64
9, 61226, Note_on_c, 7, 64, 0
9, 61230, Note_on_c, 7, 59, 64
9, 61256, Note_on_c, 7, 59, 0
9, 61260, Note_on_c, 7, 56, 64
9, 61286, Note_on_c, 7, 56, 0
9, 61290, Note_on_c, 7, 52, 64
9, 61316, Note_on_c, 7, 52, 0
9, 61320, Note_on_c, 7, 57, 64
9, 61425, Note_on_c, 7, 57, 0
9, 94677, Program_c, 7, 83
9, 94677, Control_c, 7, 0, 0
9, 94677, Control_c, 7, 11, 110
9, 94677, Control_c, 7, 64, 0
9, 94677, Control_c, 7, 91, 40
9, 94677, Control_c, 7, 93, 100
9, 94677, Control_c, 7, 7, 50
9, 94678, Control_c, 7, 10, 100
9, 94680, Note_on_c, 7, 52, 47
9, 94706, Note_on_c, 7, 52, 0
9, 94710, Note_on_c, 7, 54, 47
9, 94736, Note_on_c, 7, 54, 0
9, 94740, Note_on_c, 7, 56, 46
9, 94766, Note_on_c, 7, 56, 0
9, 94770, Note_on_c, 7, 54, 46
9, 94796, Note_on_c, 7, 54, 0
9, 94800, Note_on_c, 7, 52, 46
9, 94826, Note_on_c, 7, 52, 0
9, 94830, Note_on_c, 7, 54, 46
9, 94856, Note_on_c, 7, 54, 0
9, 94860, Note_on_c, 7, 56, 46
9, 94886, Note_on_c, 7, 56, 0
9, 94890, Note_on_c, 7, 54, 46
9, 94916, Note_on_c, 7, 54, 0
9, 94920, Note_on_c, 7, 52, 46
9, 94946, Note_on_c, 7, 52, 0
9, 94950, Note_on_c, 7, 54, 46
9, 94976, Note_on_c, 7, 54, 0
9, 94980, Note_on_c, 7, 56, 47
9, 95006, Note_on_c, 7, 56, 0
9, 95010, Note_on_c, 7, 54, 47
9, 95036, Note_on_c, 7, 54, 0
9, 95040, Note_on_c, 7, 52, 47
9, 95066, Note_on_c, 7, 52, 0
9, 95070, Note_on_c, 7, 54, 47
9, 95096, Note_on_c, 7, 54, 0
9, 95100, Note_on_c, 7, 56, 47
9, 95126, Note_on_c, 7, 56, 0
9, 95130, Note_on_c, 7, 54, 47
9, 95156, Note_on_c, 7, 54, 0
9, 95160, Note_on_c, 7, 52, 46
9, 95212, Note_on_c, 7, 52, 0
9, 95340, Note_on_c, 7, 54, 48
9, 95392, Note_on_c, 7, 54, 0
9, 95400, Note_on_c, 7, 56, 47
9, 95452, Note_on_c, 7, 56, 0
9, 95460, Note_on_c, 7, 57, 46
9, 95512, Note_on_c, 7, 57, 0
9, 95520, Note_on_c, 7, 59, 46
9, 95572, Note_on_c, 7, 59, 0
9, 95580, Note_on_c, 7, 47, 45
9, 95632, Note_on_c, 7, 47, 0
9, 95640, Note_on_c, 7, 52, 45
9, 95692, Note_on_c, 7, 52, 0
9, 96060, Note_on_c, 7, 64, 64
9, 96112, Note_on_c, 7, 64, 0
9, 96120, Note_on_c, 7, 61, 64
9, 96225, Note_on_c, 7, 61, 0
9, 96300, Note_on_c, 7, 59, 64
9, 96352, Note_on_c, 7, 59, 0
9, 96360, Note_on_c, 7, 59, 64
9, 96465, Note_on_c, 7, 59, 0
9, 96480, Note_on_c, 7, 61, 49
9, 96506, Note_on_c, 7, 61, 0
9, 96510, Note_on_c, 7, 59, 50
9, 96536, Note_on_c, 7, 59, 0
9, 96540, Note_on_c, 7, 61, 50
9, 96566, Note_on_c, 7, 61, 0
9, 96570, Note_on_c, 7, 56, 50
9, 96596, Note_on_c, 7, 56, 0
9, 96600, Note_on_c, 7, 57, 50
9, 96626, Note_on_c, 7, 57, 0
9, 96630, Note_on_c, 7, 56, 50
9, 96656, Note_on_c, 7, 56, 0
9, 96660, Note_on_c, 7, 57, 50
9, 96686, Note_on_c, 7, 57, 0
9, 96690, Note_on_c, 7, 54, 50
9, 96716, Note_on_c, 7, 54, 0
9, 96720, Note_on_c, 7, 59, 50
9, 96746, Note_on_c, 7, 59, 0
9, 96750, Note_on_c, 7, 57, 50
9, 96776, Note_on_c, 7, 57, 0
9, 96780, Note_on_c, 7, 59, 49
9, 96806, Note_on_c, 7, 59, 0
9, 96810, Note_on_c, 7, 54, 49
9, 96836, Note_on_c, 7, 54, 0
9, 96840, Note_on_c, 7, 56, 49
9, 96866, Note_on_c, 7, 56, 0
9, 96870, Note_on_c, 7, 54, 49
9, 96896, Note_on_c, 7, 54, 0
9, 96900, Note_on_c, 7, 56, 49
9, 96926, Note_on_c, 7, 56, 0
9, 96930, Note_on_c, 7, 52, 49
9, 96956, Note_on_c, 7, 52, 0
9, 96960, Note_on_c, 7, 57, 49
9, 96986, Note_on_c, 7, 57, 0
9, 96990, Note_on_c, 7, 56, 49
9, 97016, Note_on_c, 7, 56, 0
9, 97020, Note_on_c, 7, 57, 50
9, 97046, Note_on_c, 7, 57, 0
9, 97050, Note_on_c, 7, 54, 50
9, 97076, Note_on_c, 7, 54, 0
9, 97080, Note_on_c, 7, 59, 49
9, 97106, Note_on_c, 7, 59, 0
9, 97110, Note_on_c, 7, 57, 49
9, 97136, Note_on_c, 7, 57, 0
9, 97140, Note_on_c, 7, 59, 49
9, 97166, Note_on_c, 7, 59, 0
9, 97170, Note_on_c, 7, 54, 49
9, 97196, Note_on_c, 7, 54, 0
9, 97200, Note_on_c, 7, 56, 49
9, 97226, Note_on_c, 7, 56, 0
9, 97230, Note_on_c, 7, 54, 49
9, 97256, Note_on_c, 7, 54, 0
9, 97260, Note_on_c, 7, 56, 49
9, 97286, Note_on_c, 7, 56, 0
9, 97290, Note_on_c, 7, 52, 49
9, 97316, Note_on_c, 7, 52, 0
9, 97320, Note_on_c, 7, 57, 49
9, 97346, Note_on_c, 7, 57, 0
9, 97350, Note_on_c, 7, 56, 49
9, 97376, Note_on_c, 7, 56, 0
9, 97380, Note_on_c, 7, 57, 49
9, 97406, Note_on_c, 7, 57, 0
9, 97410, Note_on_c, 7, 52, 49
9, 97436, Note_on_c, 7, 52, 0
9, 97440, Note_on_c, 7, 54, 49
9, 97545, Note_on_c, 7, 54, 0
9, 97560, Note_on_c, 7, 56, 64
9, 97612, Note_on_c, 7, 56, 0
9, 97620, Note_on_c, 7, 57, 64
9, 97672, Note_on_c, 7, 57, 0
9, 97680, Note_on_c, 7, 52, 64
9, 97785, Note_on_c, 7, 52, 0
9, 97800, Note_on_c, 7, 57, 64
9, 97905, Note_on_c, 7, 57, 0
9, 98337, Program_c, 7, 16
9, 98337, Control_c, 7, 0, 0
9, 98337, Control_c, 7, 11, 110
9, 98337, Control_c, 7, 64, 0
9, 98337, Control_c, 7, 91, 50
9, 98337, Control_c, 7, 93, 0
9, 98337, Control_c, 7, 7, 70
9, 98338, Control_c, 7, 10, 100
9, 98340, Note_on_c, 7, 57, 77
9, 98366, Note_on_c, 7, 57, 0
9, 98370, Note_on_c, 7, 56, 77
9, 98396, Note_on_c, 7, 56, 0
9, 98400, Note_on_c, 7, 57, 77
9, 98426, Note_on_c, 7, 57, 0
9, 98430, Note_on_c, 7, 56, 78
9, 98456, Note_on_c, 7, 56, 0
9, 98460, Note_on_c, 7, 57, 79
9, 98486, Note_on_c, 7, 57, 0
9, 98490, Note_on_c, 7, 56, 79
9, 98516, Note_on_c, 7, 56, 0
9, 98520, Note_on_c, 7, 57, 78
9, 98572, Note_on_c, 7, 57, 0
9, 98580, Note_on_c, 7, 45, 78
9, 98632, Note_on_c, 7, 45, 0
9, 98700, Note_on_c, 7, 69, 64
9, 98752, Note_on_c, 7, 69, 0
9, 98760, Note_on_c, 7, 69, 64
9, 98865, Note_on_c, 7, 69, 0
9, 98940, Note_on_c, 7, 68, 64
9, 98992, Note_on_c, 7, 68, 0
9, 99000, Note_on_c, 7, 68, 64
9, 99105, Note_on_c, 7, 68, 0
9, 99180, Note_on_c, 7, 66, 64
9, 99232, Note_on_c, 7, 66, 0
9, 99240, Note_on_c, 7, 66, 64
9, 99345, Note_on_c, 7, 66, 0
9, 99420, Note_on_c, 7, 64, 64
9, 99472, Note_on_c, 7, 64, 0
9, 99480, Note_on_c, 7, 64, 64
9, 99585, Note_on_c, 7, 64, 0
9, 99660, Note_on_c, 7, 62, 64
9, 99712, Note_on_c, 7, 62, 0
9, 99720, Note_on_c, 7, 62, 64
9, 99825, Note_on_c, 7, 62, 0
9, 99840, Note_on_c, 7, 61, 61
9, 99866, Note_on_c, 7, 61, 0
9, 99870, Note_on_c, 7, 59, 64
9, 99896, Note_on_c, 7, 59, 0
9, 99900, Note_on_c, 7, 61, 64
9, 99926, Note_on_c, 7, 61, 0
9, 99930, Note_on_c, 7, 57, 64
9, 99956, Note_on_c, 7, 57, 0
9, 99960, Note_on_c, 7, 62, 65
9, 100106, Note_on_c, 7, 62, 0
9, 100110, Note_on_c, 7, 61, 69
9, 100136, Note_on_c, 7, 61, 0
9, 100140, Note_on_c, 7, 62, 67
9, 100166, Note_on_c, 7, 62, 0
9, 100170, Note_on_c, 7, 59, 70
9, 100196, Note_on_c, 7, 59, 0
9, 100200, Note_on_c, 7, 64, 72
9, 100346, Note_on_c, 7, 64, 0
9, 100350, Note_on_c, 7, 62, 72
9, 100376, Note_on_c, 7, 62, 0
9, 100380, Note_on_c, 7, 64, 72
9, 100406, Note_on_c, 7, 64, 0
9, 100410, Note_on_c, 7, 61, 74
9, 100436, Note_on_c, 7, 61, 0
9, 100440, Note_on_c, 7, 66, 77
9, 100586, Note_on_c, 7, 66, 0
9, 100590, Note_on_c, 7, 64, 79
9, 100616, Note_on_c, 7, 64, 0
9, 100620, Note_on_c, 7, 66, 82
9, 100646, Note_on_c, 7, 66, 0
9, 100650, Note_on_c, 7, 64, 83
9, 100676, Note_on_c, 7, 64, 0
9, 100680, Note_on_c, 7, 66, 84
9, 100706, Note_on_c, 7, 66, 0
9, 100710, Note_on_c, 7, 64, 84
9, 100736, Note_on_c, 7, 64, 0
9, 100740, Note_on_c, 7, 62, 87
9, 100766, Note_on_c, 7, 62, 0
9, 100770, Note_on_c, 7, 66, 87
9, 100796, Note_on_c, 7, 66, 0
9, 100800, Note_on_c, 7, 64, 86
9, 100852, Note_on_c, 7, 64, 0
9, 100860, Note_on_c, 7, 52, 87
9, 100912, Note_on_c, 7, 52, 0
9, 100920, Note_on_c, 7, 61, 87
9, 100972, Note_on_c, 7, 61, 0
9, 100972, End_track
10, 0, Start_track
10, 0, MIDI_port, 0
10, 0, Title_t, "Mauricio Fabbri"
10, 69235, Program_c, 12, 79
10, 69235, Control_c, 12, 0, 0
10, 69235, Control_c, 12, 11, 110
10, 69235, Control_c, 12, 64, 0
10, 69235, Control_c, 12, 91, 40
10, 69235, Control_c, 12, 93, 40
10, 69235, Control_c, 12, 7, 60
10, 69236, Control_c, 12, 10, 100
10, 69240, Note_on_c, 12, 93, 64
10, 69266, Note_on_c, 12, 93, 0
10, 69270, Note_on_c, 12, 95, 64
10, 69296, Note_on_c, 12, 95, 0
10, 69300, Note_on_c, 12, 97, 64
10, 69326, Note_on_c, 12, 97, 0
10, 69330, Note_on_c, 12, 95, 64
10, 69356, Note_on_c, 12, 95, 0
10, 69360, Note_on_c, 12, 93, 64
10, 69386, Note_on_c, 12, 93, 0
10, 69390, Note_on_c, 12, 95, 64
10, 69416, Note_on_c, 12, 95, 0
10, 69420, Note_on_c, 12, 97, 64
10, 69446, Note_on_c, 12, 97, 0
10, 69450, Note_on_c, 12, 95, 64
10, 69476, Note_on_c, 12, 95, 0
10, 69480, Note_on_c, 12, 93, 64
10, 69506, Note_on_c, 12, 93, 0
10, 69510, Note_on_c, 12, 95, 64
10, 69536, Note_on_c, 12, 95, 0
10, 69540, Note_on_c, 12, 97, 64
10, 69566, Note_on_c, 12, 97, 0
10, 69570, Note_on_c, 12, 95, 64
10, 69596, Note_on_c, 12, 95, 0
10, 69600, Note_on_c, 12, 93, 64
10, 69626, Note_on_c, 12, 93, 0
10, 69630, Note_on_c, 12, 95, 64
10, 69656, Note_on_c, 12, 95, 0
10, 69660, Note_on_c, 12, 97, 64
10, 69686, Note_on_c, 12, 97, 0
10, 69690, Note_on_c, 12, 95, 64
10, 69716, Note_on_c, 12, 95, 0
10, 69720, Note_on_c, 12, 93, 64
10, 69772, Note_on_c, 12, 93, 0
10, 70080, Note_on_c, 12, 102, 64
10, 70106, Note_on_c, 12, 102, 0
10, 70110, Note_on_c, 12, 100, 64
10, 70136, Note_on_c, 12, 100, 0
10, 70140, Note_on_c, 12, 102, 64
10, 70166, Note_on_c, 12, 102, 0
10, 70170, Note_on_c, 12, 97, 64
10, 70196, Note_on_c, 12, 97, 0
10, 70200, Note_on_c, 12, 98, 64
10, 70226, Note_on_c, 12, 98, 0
10, 70230, Note_on_c, 12, 97, 64
10, 70256, Note_on_c, 12, 97, 0
10, 70260, Note_on_c, 12, 98, 64
10, 70286, Note_on_c, 12, 98, 0
10, 70290, Note_on_c, 12, 95, 64
10, 70316, Note_on_c, 12, 95, 0
10, 70320, Note_on_c, 12, 100, 64
10, 70346, Note_on_c, 12, 100, 0
10, 70350, Note_on_c, 12, 98, 64
10, 70376, Note_on_c, 12, 98, 0
10, 70380, Note_on_c, 12, 100, 64
10, 70406, Note_on_c, 12, 100, 0
10, 70410, Note_on_c, 12, 95, 64
10, 70436, Note_on_c, 12, 95, 0
10, 70440, Note_on_c, 12, 97, 64
10, 70466, Note_on_c, 12, 97, 0
10, 70470, Note_on_c, 12, 95, 64
10, 70496, Note_on_c, 12, 95, 0
10, 70500, Note_on_c, 12, 97, 64
10, 70526, Note_on_c, 12, 97, 0
10, 70530, Note_on_c, 12, 93, 64
10, 70556, Note_on_c, 12, 93, 0
10, 70560, Note_on_c, 12, 98, 64
10, 70586, Note_on_c, 12, 98, 0
10, 70590, Note_on_c, 12, 97, 64
10, 70616, Note_on_c, 12, 97, 0
10, 70620, Note_on_c, 12, 98, 64
10, 70646, Note_on_c, 12, 98, 0
10, 70650, Note_on_c, 12, 93, 64
10, 70676, Note_on_c, 12, 93, 0
10, 70680, Note_on_c, 12, 95, 64
10, 70706, Note_on_c, 12, 95, 0
10, 70710, Note_on_c, 12, 93, 64
10, 70736, Note_on_c, 12, 93, 0
10, 70740, Note_on_c, 12, 95, 64
10, 70766, Note_on_c, 12, 95, 0
10, 70770, Note_on_c, 12, 92, 64
10, 70796, Note_on_c, 12, 92, 0
10, 70800, Note_on_c, 12, 97, 64
10, 70826, Note_on_c, 12, 97, 0
10, 70830, Note_on_c, 12, 95, 64
10, 70856, Note_on_c, 12, 95, 0
10, 70860, Note_on_c, 12, 97, 64
10, 70886, Note_on_c, 12, 97, 0
10, 70890, Note_on_c, 12, 92, 64
10, 70916, Note_on_c, 12, 92, 0
10, 70920, Note_on_c, 12, 93, 64
10, 70946, Note_on_c, 12, 93, 0
10, 70950, Note_on_c, 12, 92, 64
10, 70976, Note_on_c, 12, 92, 0
10, 70980, Note_on_c, 12, 93, 64
10, 71006, Note_on_c, 12, 93, 0
10, 71010, Note_on_c, 12, 90, 64
10, 71036, Note_on_c, 12, 90, 0
10, 71040, Note_on_c, 12, 95, 64
10, 71066, Note_on_c, 12, 95, 0
10, 71070, Note_on_c, 12, 93, 64
10, 71096, Note_on_c, 12, 93, 0
10, 71100, Note_on_c, 12, 95, 64
10, 71126, Note_on_c, 12, 95, 0
10, 71130, Note_on_c, 12, 90, 64
10, 71156, Note_on_c, 12, 90, 0
10, 71160, Note_on_c, 12, 92, 64
10, 71186, Note_on_c, 12, 92, 0
10, 71190, Note_on_c, 12, 90, 64
10, 71216, Note_on_c, 12, 90, 0
10, 71220, Note_on_c, 12, 92, 64
10, 71246, Note_on_c, 12, 92, 0
10, 71250, Note_on_c, 12, 88, 64
10, 71276, Note_on_c, 12, 88, 0
10, 71280, Note_on_c, 12, 93, 64
10, 71426, Note_on_c, 12, 93, 0
10, 71430, Note_on_c, 12, 95, 64
10, 71456, Note_on_c, 12, 95, 0
10, 71460, Note_on_c, 12, 93, 64
10, 71486, Note_on_c, 12, 93, 0
10, 71490, Note_on_c, 12, 95, 64
10, 71516, Note_on_c, 12, 95, 0
10, 71520, Note_on_c, 12, 92, 64
10, 71533, Note_on_c, 12, 92, 0
10, 71535, Note_on_c, 12, 90, 64
10, 71548, Note_on_c, 12, 90, 0
10, 71550, Note_on_c, 12, 92, 64
10, 71601, Note_on_c, 12, 92, 0
10, 71610, Note_on_c, 12, 93, 64
10, 71636, Note_on_c, 12, 93, 0
10, 71640, Note_on_c, 12, 93, 64
10, 71745, Note_on_c, 12, 93, 0
10, 71745, End_track
11, 0, Start_track
11, 0, MIDI_port, 0
11, 0, Title_t, "fabbri@las.inpe.br"
11, 54480, Program_c, 10, 19
11, 54480, Control_c, 10, 0, 0
11, 54480, Control_c, 10, 11, 110
11, 54480, Control_c, 10, 64, 0
11, 54480, Control_c, 10, 91, 10
11, 54480, Control_c, 10, 93, 0
11, 54480, Control_c, 10, 7, 100
11, 54481, Control_c, 10, 10, 20
11, 54600, Note_on_c, 10, 69, 64
11, 54626, Note_on_c, 10, 69, 0
11, 54630, Note_on_c, 10, 71, 64
11, 54656, Note_on_c, 10, 71, 0
11, 54660, Note_on_c, 10, 73, 64
11, 54686, Note_on_c, 10, 73, 0
11, 54690, Note_on_c, 10, 71, 64
11, 54716, Note_on_c, 10, 71, 0
11, 54720, Note_on_c, 10, 69, 64
11, 54746, Note_on_c, 10, 69, 0
11, 54750, Note_on_c, 10, 71, 64
11, 54776, Note_on_c, 10, 71, 0
11, 54780, Note_on_c, 10, 73, 64
11, 54806, Note_on_c, 10, 73, 0
11, 54810, Note_on_c, 10, 71, 64
11, 54836, Note_on_c, 10, 71, 0
11, 54840, Note_on_c, 10, 69, 64
11, 54866, Note_on_c, 10, 69, 0
11, 54870, Note_on_c, 10, 71, 64
11, 54896, Note_on_c, 10, 71, 0
11, 54900, Note_on_c, 10, 73, 64
11, 54926, Note_on_c, 10, 73, 0
11, 54930, Note_on_c, 10, 71, 64
11, 54956, Note_on_c, 10, 71, 0
11, 54960, Note_on_c, 10, 69, 64
11, 54986, Note_on_c, 10, 69, 0
11, 54990, Note_on_c, 10, 71, 64
11, 55016, Note_on_c, 10, 71, 0
11, 55020, Note_on_c, 10, 73, 64
11, 55046, Note_on_c, 10, 73, 0
11, 55050, Note_on_c, 10, 71, 64
11, 55076, Note_on_c, 10, 71, 0
11, 55080, Note_on_c, 10, 69, 64
11, 55132, Note_on_c, 10, 69, 0
11, 55440, Note_on_c, 10, 78, 64
11, 55466, Note_on_c, 10, 78, 0
11, 55470, Note_on_c, 10, 76, 64
11, 55496, Note_on_c, 10, 76, 0
11, 55500, Note_on_c, 10, 78, 64
11, 55526, Note_on_c, 10, 78, 0
11, 55530, Note_on_c, 10, 73, 64
11, 55556, Note_on_c, 10, 73, 0
11, 55560, Note_on_c, 10, 74, 64
11, 55586, Note_on_c, 10, 74, 0
11, 55590, Note_on_c, 10, 73, 64
11, 55616, Note_on_c, 10, 73, 0
11, 55620, Note_on_c, 10, 74, 64
11, 55646, Note_on_c, 10, 74, 0
11, 55650, Note_on_c, 10, 71, 64
11, 55676, Note_on_c, 10, 71, 0
11, 55680, Note_on_c, 10, 76, 64
11, 55706, Note_on_c, 10, 76, 0
11, 55710, Note_on_c, 10, 74, 64
11, 55736, Note_on_c, 10, 74, 0
11, 55740, Note_on_c, 10, 76, 64
11, 55766, Note_on_c, 10, 76, 0
11, 55770, Note_on_c, 10, 71, 64
11, 55796, Note_on_c, 10, 71, 0
11, 55800, Note_on_c, 10, 73, 64
11, 55826, Note_on_c, 10, 73, 0
11, 55830, Note_on_c, 10, 71, 64
11, 55856, Note_on_c, 10, 71, 0
11, 55860, Note_on_c, 10, 73, 64
11, 55886, Note_on_c, 10, 73, 0
11, 55890, Note_on_c, 10, 69, 64
11, 55916, Note_on_c, 10, 69, 0
11, 55920, Note_on_c, 10, 74, 64
11, 55946, Note_on_c, 10, 74, 0
11, 55950, Note_on_c, 10, 73, 64
11, 55976, Note_on_c, 10, 73, 0
11, 55980, Note_on_c, 10, 74, 64
11, 56006, Note_on_c, 10, 74, 0
11, 56010, Note_on_c, 10, 69, 64
11, 56036, Note_on_c, 10, 69, 0
11, 56040, Note_on_c, 10, 71, 64
11, 56066, Note_on_c, 10, 71, 0
11, 56070, Note_on_c, 10, 69, 64
11, 56096, Note_on_c, 10, 69, 0
11, 56100, Note_on_c, 10, 71, 64
11, 56126, Note_on_c, 10, 71, 0
11, 56130, Note_on_c, 10, 68, 64
11, 56156, Note_on_c, 10, 68, 0
11, 56160, Note_on_c, 10, 73, 64
11, 56186, Note_on_c, 10, 73, 0
11, 56190, Note_on_c, 10, 71, 64
11, 56216, Note_on_c, 10, 71, 0
11, 56220, Note_on_c, 10, 73, 64
11, 56246, Note_on_c, 10, 73, 0
11, 56250, Note_on_c, 10, 68, 64
11, 56276, Note_on_c, 10, 68, 0
11, 56280, Note_on_c, 10, 69, 64
11, 56306, Note_on_c, 10, 69, 0
11, 56310, Note_on_c, 10, 68, 64
11, 56336, Note_on_c, 10, 68, 0
11, 56340, Note_on_c, 10, 69, 64
11, 56366, Note_on_c, 10, 69, 0
11, 56370, Note_on_c, 10, 66, 64
11, 56396, Note_on_c, 10, 66, 0
11, 56400, Note_on_c, 10, 71, 64
11, 56426, Note_on_c, 10, 71, 0
11, 56430, Note_on_c, 10, 69, 64
11, 56456, Note_on_c, 10, 69, 0
11, 56460, Note_on_c, 10, 71, 64
11, 56486, Note_on_c, 10, 71, 0
11, 56490, Note_on_c, 10, 66, 64
11, 56516, Note_on_c, 10, 66, 0
11, 56520, Note_on_c, 10, 68, 64
11, 56546, Note_on_c, 10, 68, 0
11, 56550, Note_on_c, 10, 66, 64
11, 56576, Note_on_c, 10, 66, 0
11, 56580, Note_on_c, 10, 68, 64
11, 56606, Note_on_c, 10, 68, 0
11, 56610, Note_on_c, 10, 64, 64
11, 56636, Note_on_c, 10, 64, 0
11, 56640, Note_on_c, 10, 69, 64
11, 56786, Note_on_c, 10, 69, 0
11, 56790, Note_on_c, 10, 71, 64
11, 56816, Note_on_c, 10, 71, 0
11, 56820, Note_on_c, 10, 69, 64
11, 56846, Note_on_c, 10, 69, 0
11, 56850, Note_on_c, 10, 71, 64
11, 56876, Note_on_c, 10, 71, 0
11, 56880, Note_on_c, 10, 68, 64
11, 56893, Note_on_c, 10, 68, 0
11, 56895, Note_on_c, 10, 66, 64
11, 56908, Note_on_c, 10, 66, 0
11, 56910, Note_on_c, 10, 68, 64
11, 56961, Note_on_c, 10, 68, 0
11, 56970, Note_on_c, 10, 69, 64
11, 56996, Note_on_c, 10, 69, 0
11, 57000, Note_on_c, 10, 69, 64
11, 57026, Note_on_c, 10, 69, 0
11, 57030, Note_on_c, 10, 73, 64
11, 57056, Note_on_c, 10, 73, 0
11, 57060, Note_on_c, 10, 69, 64
11, 57086, Note_on_c, 10, 69, 0
11, 57090, Note_on_c, 10, 64, 64
11, 57116, Note_on_c, 10, 64, 0
11, 57240, Note_on_c, 10, 74, 64
11, 57266, Note_on_c, 10, 74, 0
11, 57270, Note_on_c, 10, 78, 64
11, 57296, Note_on_c, 10, 78, 0
11, 57300, Note_on_c, 10, 74, 64
11, 57326, Note_on_c, 10, 74, 0
11, 57330, Note_on_c, 10, 69, 64
11, 57356, Note_on_c, 10, 69, 0
11, 57480, Note_on_c, 10, 67, 64
11, 57506, Note_on_c, 10, 67, 0
11, 57510, Note_on_c, 10, 71, 64
11, 57536, Note_on_c, 10, 71, 0
11, 57540, Note_on_c, 10, 67, 64
11, 57566, Note_on_c, 10, 67, 0
11, 57570, Note_on_c, 10, 62, 64
11, 57596, Note_on_c, 10, 62, 0
11, 57750, Note_on_c, 10, 64, 64
11, 57776, Note_on_c, 10, 64, 0
11, 57780, Note_on_c, 10, 69, 64
11, 57806, Note_on_c, 10, 69, 0
11, 57810, Note_on_c, 10, 64, 64
11, 57836, Note_on_c, 10, 64, 0
11, 57840, Note_on_c, 10, 66, 64
11, 57892, Note_on_c, 10, 66, 0
11, 57900, Note_on_c, 10, 66, 64
11, 57952, Note_on_c, 10, 66, 0
11, 57960, Note_on_c, 10, 67, 64
11, 57986, Note_on_c, 10, 67, 0
11, 57990, Note_on_c, 10, 69, 64
11, 58016, Note_on_c, 10, 69, 0
11, 58020, Note_on_c, 10, 66, 64
11, 58046, Note_on_c, 10, 66, 0
11, 58050, Note_on_c, 10, 67, 64
11, 58076, Note_on_c, 10, 67, 0
11, 58080, Note_on_c, 10, 64, 64
11, 58093, Note_on_c, 10, 64, 0
11, 58095, Note_on_c, 10, 62, 64
11, 58108, Note_on_c, 10, 62, 0
11, 58110, Note_on_c, 10, 64, 64
11, 58161, Note_on_c, 10, 64, 0
11, 58170, Note_on_c, 10, 62, 64
11, 58196, Note_on_c, 10, 62, 0
11, 58200, Note_on_c, 10, 62, 64
11, 58252, Note_on_c, 10, 62, 0
11, 58737, Program_c, 10, 68
11, 58737, Control_c, 10, 0, 0
11, 58737, Control_c, 10, 11, 110
11, 58737, Control_c, 10, 64, 0
11, 58737, Control_c, 10, 91, 20
11, 58737, Control_c, 10, 93, 40
11, 58737, Control_c, 10, 7, 50
11, 58738, Control_c, 10, 10, 20
11, 58740, Note_on_c, 10, 62, 73
11, 58766, Note_on_c, 10, 62, 0
11, 58770, Note_on_c, 10, 61, 72
11, 58796, Note_on_c, 10, 61, 0
11, 58800, Note_on_c, 10, 62, 71
11, 58826, Note_on_c, 10, 62, 0
11, 58830, Note_on_c, 10, 61, 70
11, 58856, Note_on_c, 10, 61, 0
11, 58860, Note_on_c, 10, 62, 70
11, 58886, Note_on_c, 10, 62, 0
11, 58890, Note_on_c, 10, 61, 70
11, 58916, Note_on_c, 10, 61, 0
11, 58920, Note_on_c, 10, 62, 69
11, 58972, Note_on_c, 10, 62, 0
11, 58980, Note_on_c, 10, 50, 69
11, 59032, Note_on_c, 10, 50, 0
11, 59100, Note_on_c, 10, 66, 85
11, 59152, Note_on_c, 10, 66, 0
11, 59160, Note_on_c, 10, 64, 85
11, 59265, Note_on_c, 10, 64, 0
11, 59340, Note_on_c, 10, 64, 84
11, 59392, Note_on_c, 10, 64, 0
11, 59400, Note_on_c, 10, 62, 84
11, 59505, Note_on_c, 10, 62, 0
11, 59580, Note_on_c, 10, 62, 84
11, 59632, Note_on_c, 10, 62, 0
11, 59640, Note_on_c, 10, 61, 84
11, 59745, Note_on_c, 10, 61, 0
11, 59820, Note_on_c, 10, 61, 82
11, 59872, Note_on_c, 10, 61, 0
11, 59880, Note_on_c, 10, 59, 83
11, 59985, Note_on_c, 10, 59, 0
11, 60060, Note_on_c, 10, 59, 84
11, 60112, Note_on_c, 10, 59, 0
11, 60120, Note_on_c, 10, 57, 85
11, 60225, Note_on_c, 10, 57, 0
11, 60270, Note_on_c, 10, 57, 79
11, 60296, Note_on_c, 10, 57, 0
11, 60300, Note_on_c, 10, 62, 79
11, 60326, Note_on_c, 10, 62, 0
11, 60330, Note_on_c, 10, 57, 79
11, 60356, Note_on_c, 10, 57, 0
11, 60360, Note_on_c, 10, 59, 73
11, 60412, Note_on_c, 10, 59, 0
11, 60420, Note_on_c, 10, 57, 74
11, 60472, Note_on_c, 10, 57, 0
11, 60480, Note_on_c, 10, 55, 71
11, 60585, Note_on_c, 10, 55, 0
11, 60600, Note_on_c, 10, 54, 63
11, 60705, Note_on_c, 10, 54, 0
11, 60720, Note_on_c, 10, 66, 75
11, 60746, Note_on_c, 10, 66, 0
11, 60750, Note_on_c, 10, 69, 73
11, 60776, Note_on_c, 10, 69, 0
11, 60780, Note_on_c, 10, 66, 69
11, 60806, Note_on_c, 10, 66, 0
11, 60810, Note_on_c, 10, 62, 64
11, 60945, Note_on_c, 10, 62, 0
11, 60990, Note_on_c, 10, 76, 64
11, 61016, Note_on_c, 10, 76, 0
11, 61020, Note_on_c, 10, 73, 64
11, 61046, Note_on_c, 10, 73, 0
11, 61050, Note_on_c, 10, 69, 64
11, 61076, Note_on_c, 10, 69, 0
11, 61080, Note_on_c, 10, 74, 64
11, 61185, Note_on_c, 10, 74, 0
11, 61260, Note_on_c, 10, 74, 64
11, 61312, Note_on_c, 10, 74, 0
11, 61320, Note_on_c, 10, 73, 64
11, 61425, Note_on_c, 10, 73, 0
11, 61425, End_track
12, 0, Start_track
12, 0, MIDI_port, 0
12, 0, Title_t, " "
12, 61317, Program_c, 11, 19
12, 61317, Control_c, 11, 0, 0
12, 61317, Control_c, 11, 11, 127
12, 61317, Control_c, 11, 64, 0
12, 61317, Control_c, 11, 91, 40
12, 61317, Control_c, 11, 93, 20
12, 61317, Control_c, 11, 7, 90
12, 61318, Control_c, 11, 10, 44
12, 61320, Note_on_c, 11, 45, 64
12, 61346, Note_on_c, 11, 45, 0
12, 61350, Note_on_c, 11, 47, 64
12, 61376, Note_on_c, 11, 47, 0
12, 61380, Note_on_c, 11, 49, 64
12, 61406, Note_on_c, 11, 49, 0
12, 61410, Note_on_c, 11, 47, 64
12, 61436, Note_on_c, 11, 47, 0
12, 61440, Note_on_c, 11, 45, 64
12, 61466, Note_on_c, 11, 45, 0
12, 61470, Note_on_c, 11, 47, 64
12, 61496, Note_on_c, 11, 47, 0
12, 61500, Note_on_c, 11, 49, 64
12, 61526, Note_on_c, 11, 49, 0
12, 61530, Note_on_c, 11, 47, 64
12, 61556, Note_on_c, 11, 47, 0
12, 61560, Note_on_c, 11, 45, 64
12, 61586, Note_on_c, 11, 45, 0
12, 61590, Note_on_c, 11, 47, 64
12, 61616, Note_on_c, 11, 47, 0
12, 61620, Note_on_c, 11, 49, 64
12, 61646, Note_on_c, 11, 49, 0
12, 61650, Note_on_c, 11, 47, 64
12, 61676, Note_on_c, 11, 47, 0
12, 61680, Note_on_c, 11, 45, 64
12, 61706, Note_on_c, 11, 45, 0
12, 61710, Note_on_c, 11, 47, 64
12, 61736, Note_on_c, 11, 47, 0
12, 61740, Note_on_c, 11, 49, 64
12, 61766, Note_on_c, 11, 49, 0
12, 61770, Note_on_c, 11, 47, 64
12, 61796, Note_on_c, 11, 47, 0
12, 61800, Note_on_c, 11, 45, 64
12, 61852, Note_on_c, 11, 45, 0
12, 62160, Note_on_c, 11, 54, 64
12, 62186, Note_on_c, 11, 54, 0
12, 62190, Note_on_c, 11, 52, 64
12, 62216, Note_on_c, 11, 52, 0
12, 62220, Note_on_c, 11, 54, 64
12, 62246, Note_on_c, 11, 54, 0
12, 62250, Note_on_c, 11, 49, 64
12, 62276, Note_on_c, 11, 49, 0
12, 62280, Note_on_c, 11, 50, 64
12, 62306, Note_on_c, 11, 50, 0
12, 62310, Note_on_c, 11, 49, 64
12, 62336, Note_on_c, 11, 49, 0
12, 62340, Note_on_c, 11, 50, 64
12, 62366, Note_on_c, 11, 50, 0
12, 62370, Note_on_c, 11, 47, 64
12, 62396, Note_on_c, 11, 47, 0
12, 62400, Note_on_c, 11, 52, 64
12, 62426, Note_on_c, 11, 52, 0
12, 62430, Note_on_c, 11, 50, 64
12, 62456, Note_on_c, 11, 50, 0
12, 62460, Note_on_c, 11, 52, 64
12, 62486, Note_on_c, 11, 52, 0
12, 62490, Note_on_c, 11, 47, 64
12, 62516, Note_on_c, 11, 47, 0
12, 62520, Note_on_c, 11, 49, 64
12, 62546, Note_on_c, 11, 49, 0
12, 62550, Note_on_c, 11, 47, 64
12, 62576, Note_on_c, 11, 47, 0
12, 62580, Note_on_c, 11, 49, 64
12, 62606, Note_on_c, 11, 49, 0
12, 62610, Note_on_c, 11, 45, 64
12, 62636, Note_on_c, 11, 45, 0
12, 62640, Note_on_c, 11, 50, 64
12, 62666, Note_on_c, 11, 50, 0
12, 62670, Note_on_c, 11, 49, 64
12, 62696, Note_on_c, 11, 49, 0
12, 62700, Note_on_c, 11, 50, 64
12, 62726, Note_on_c, 11, 50, 0
12, 62730, Note_on_c, 11, 45, 64
12, 62756, Note_on_c, 11, 45, 0
12, 62760, Note_on_c, 11, 47, 64
12, 62786, Note_on_c, 11, 47, 0
12, 62790, Note_on_c, 11, 45, 64
12, 62816, Note_on_c, 11, 45, 0
12, 62820, Note_on_c, 11, 47, 64
12, 62846, Note_on_c, 11, 47, 0
12, 62850, Note_on_c, 11, 44, 64
12, 62876, Note_on_c, 11, 44, 0
12, 62880, Note_on_c, 11, 49, 64
12, 62906, Note_on_c, 11, 49, 0
12, 62910, Note_on_c, 11, 47, 64
12, 62936, Note_on_c, 11, 47, 0
12, 62940, Note_on_c, 11, 49, 64
12, 62966, Note_on_c, 11, 49, 0
12, 62970, Note_on_c, 11, 44, 64
12, 62996, Note_on_c, 11, 44, 0
12, 63000, Note_on_c, 11, 45, 64
12, 63026, Note_on_c, 11, 45, 0
12, 63030, Note_on_c, 11, 44, 64
12, 63056, Note_on_c, 11, 44, 0
12, 63060, Note_on_c, 11, 45, 64
12, 63086, Note_on_c, 11, 45, 0
12, 63090, Note_on_c, 11, 42, 64
12, 63116, Note_on_c, 11, 42, 0
12, 63120, Note_on_c, 11, 47, 64
12, 63146, Note_on_c, 11, 47, 0
12, 63150, Note_on_c, 11, 45, 64
12, 63176, Note_on_c, 11, 45, 0
12, 63180, Note_on_c, 11, 47, 64
12, 63206, Note_on_c, 11, 47, 0
12, 63210, Note_on_c, 11, 42, 64
12, 63236, Note_on_c, 11, 42, 0
12, 63240, Note_on_c, 11, 44, 64
12, 63266, Note_on_c, 11, 44, 0
12, 63270, Note_on_c, 11, 42, 64
12, 63296, Note_on_c, 11, 42, 0
12, 63300, Note_on_c, 11, 44, 64
12, 63326, Note_on_c, 11, 44, 0
12, 63330, Note_on_c, 11, 40, 64
12, 63356, Note_on_c, 11, 40, 0
12, 63360, Note_on_c, 11, 45, 64
12, 63506, Note_on_c, 11, 45, 0
12, 63510, Note_on_c, 11, 47, 64
12, 63536, Note_on_c, 11, 47, 0
12, 63540, Note_on_c, 11, 45, 64
12, 63566, Note_on_c, 11, 45, 0
12, 63570, Note_on_c, 11, 47, 64
12, 63596, Note_on_c, 11, 47, 0
12, 63600, Note_on_c, 11, 44, 64
12, 63705, Note_on_c, 11, 44, 0
12, 63720, Note_on_c, 11, 45, 64
12, 63825, Note_on_c, 11, 45, 0
12, 63870, Note_on_c, 11, 45, 64
12, 63896, Note_on_c, 11, 45, 0
12, 63900, Note_on_c, 11, 49, 64
12, 63926, Note_on_c, 11, 49, 0
12, 63930, Note_on_c, 11, 45, 64
12, 63956, Note_on_c, 11, 45, 0
12, 63960, Note_on_c, 11, 50, 64
12, 64012, Note_on_c, 11, 50, 0
12, 64020, Note_on_c, 11, 47, 64
12, 64072, Note_on_c, 11, 47, 0
12, 64080, Note_on_c, 11, 52, 64
12, 64132, Note_on_c, 11, 52, 0
12, 64140, Note_on_c, 11, 40, 64
12, 64192, Note_on_c, 11, 40, 0
12, 64200, Note_on_c, 11, 45, 64
12, 64305, Note_on_c, 11, 45, 0
12, 64380, Note_on_c, 11, 47, 64
12, 64432, Note_on_c, 11, 47, 0
12, 64440, Note_on_c, 11, 49, 64
12, 64492, Note_on_c, 11, 49, 0
12, 64500, Note_on_c, 11, 50, 64
12, 64552, Note_on_c, 11, 50, 0
12, 64560, Note_on_c, 11, 52, 64
12, 64612, Note_on_c, 11, 52, 0
12, 64620, Note_on_c, 11, 40, 64
12, 64672, Note_on_c, 11, 40, 0
12, 64680, Note_on_c, 11, 45, 64
12, 64785, Note_on_c, 11, 45, 0
12, 66420, Note_on_c, 11, 50, 64
12, 66446, Note_on_c, 11, 50, 0
12, 66450, Note_on_c, 11, 49, 64
12, 66476, Note_on_c, 11, 49, 0
12, 66480, Note_on_c, 11, 50, 64
12, 66506, Note_on_c, 11, 50, 0
12, 66510, Note_on_c, 11, 49, 64
12, 66536, Note_on_c, 11, 49, 0
12, 66540, Note_on_c, 11, 50, 64
12, 66566, Note_on_c, 11, 50, 0
12, 66570, Note_on_c, 11, 49, 64
12, 66596, Note_on_c, 11, 49, 0
12, 66600, Note_on_c, 11, 50, 64
12, 66652, Note_on_c, 11, 50, 0
12, 66660, Note_on_c, 11, 38, 64
12, 66712, Note_on_c, 11, 38, 0
12, 66780, Note_on_c, 11, 62, 64
12, 66832, Note_on_c, 11, 62, 0
12, 66840, Note_on_c, 11, 62, 64
12, 66945, Note_on_c, 11, 62, 0
12, 67020, Note_on_c, 11, 61, 64
12, 67072, Note_on_c, 11, 61, 0
12, 67080, Note_on_c, 11, 61, 64
12, 67185, Note_on_c, 11, 61, 0
12, 67260, Note_on_c, 11, 59, 64
12, 67312, Note_on_c, 11, 59, 0
12, 67320, Note_on_c, 11, 59, 64
12, 67425, Note_on_c, 11, 59, 0
12, 67500, Note_on_c, 11, 57, 64
12, 67552, Note_on_c, 11, 57, 0
12, 67560, Note_on_c, 11, 57, 64
12, 67665, Note_on_c, 11, 57, 0
12, 67740, Note_on_c, 11, 55, 64
12, 67792, Note_on_c, 11, 55, 0
12, 67800, Note_on_c, 11, 55, 64
12, 67905, Note_on_c, 11, 55, 0
12, 67920, Note_on_c, 11, 54, 64
12, 67972, Note_on_c, 11, 54, 0
12, 67980, Note_on_c, 11, 59, 64
12, 68006, Note_on_c, 11, 59, 0
12, 68010, Note_on_c, 11, 54, 64
12, 68036, Note_on_c, 11, 54, 0
12, 68040, Note_on_c, 11, 55, 64
12, 68092, Note_on_c, 11, 55, 0
12, 68100, Note_on_c, 11, 52, 64
12, 68152, Note_on_c, 11, 52, 0
12, 68160, Note_on_c, 11, 57, 64
12, 68212, Note_on_c, 11, 57, 0
12, 68220, Note_on_c, 11, 45, 64
12, 68272, Note_on_c, 11, 45, 0
12, 68280, Note_on_c, 11, 50, 64
12, 68385, Note_on_c, 11, 50, 0
12, 68460, Note_on_c, 11, 59, 64
12, 68512, Note_on_c, 11, 59, 0
12, 68520, Note_on_c, 11, 61, 64
12, 68625, Note_on_c, 11, 61, 0
12, 68700, Note_on_c, 11, 50, 64
12, 68752, Note_on_c, 11, 50, 0
12, 68760, Note_on_c, 11, 52, 64
12, 68865, Note_on_c, 11, 52, 0
12, 68880, Note_on_c, 11, 47, 64
12, 68932, Note_on_c, 11, 47, 0
12, 68940, Note_on_c, 11, 52, 64
12, 68992, Note_on_c, 11, 52, 0
12, 69000, Note_on_c, 11, 45, 64
12, 69052, Note_on_c, 11, 45, 0
12, 69060, Note_on_c, 11, 50, 64
12, 69112, Note_on_c, 11, 50, 0
12, 69120, Note_on_c, 11, 52, 64
12, 69172, Note_on_c, 11, 52, 0
12, 69180, Note_on_c, 11, 40, 64
12, 69232, Note_on_c, 11, 40, 0
12, 69240, Note_on_c, 11, 45, 64
12, 69345, Note_on_c, 11, 45, 0
12, 73560, Note_on_c, 11, 50, 69
12, 73586, Note_on_c, 11, 50, 0
12, 73590, Note_on_c, 11, 52, 69
12, 73616, Note_on_c, 11, 52, 0
12, 73620, Note_on_c, 11, 54, 69
12, 73646, Note_on_c, 11, 54, 0
12, 73650, Note_on_c, 11, 52, 69
12, 73676, Note_on_c, 11, 52, 0
12, 73680, Note_on_c, 11, 50, 69
12, 73706, Note_on_c, 11, 50, 0
12, 73710, Note_on_c, 11, 52, 69
12, 73736, Note_on_c, 11, 52, 0
12, 73740, Note_on_c, 11, 54, 69
12, 73766, Note_on_c, 11, 54, 0
12, 73770, Note_on_c, 11, 52, 69
12, 73796, Note_on_c, 11, 52, 0
12, 73800, Note_on_c, 11, 50, 69
12, 73826, Note_on_c, 11, 50, 0
12, 73830, Note_on_c, 11, 52, 69
12, 73856, Note_on_c, 11, 52, 0
12, 73860, Note_on_c, 11, 54, 69
12, 73886, Note_on_c, 11, 54, 0
12, 73890, Note_on_c, 11, 52, 69
12, 73916, Note_on_c, 11, 52, 0
12, 73920, Note_on_c, 11, 50, 69
12, 73946, Note_on_c, 11, 50, 0
12, 73950, Note_on_c, 11, 52, 69
12, 73976, Note_on_c, 11, 52, 0
12, 73980, Note_on_c, 11, 54, 68
12, 74006, Note_on_c, 11, 54, 0
12, 74010, Note_on_c, 11, 52, 68
12, 74036, Note_on_c, 11, 52, 0
12, 74040, Note_on_c, 11, 50, 68
12, 74145, Note_on_c, 11, 50, 0
12, 74400, Note_on_c, 11, 59, 68
12, 74426, Note_on_c, 11, 59, 0
12, 74430, Note_on_c, 11, 57, 68
12, 74456, Note_on_c, 11, 57, 0
12, 74460, Note_on_c, 11, 59, 68
12, 74486, Note_on_c, 11, 59, 0
12, 74490, Note_on_c, 11, 54, 68
12, 74516, Note_on_c, 11, 54, 0
12, 74520, Note_on_c, 11, 55, 68
12, 74546, Note_on_c, 11, 55, 0
12, 74550, Note_on_c, 11, 54, 68
12, 74576, Note_on_c, 11, 54, 0
12, 74580, Note_on_c, 11, 55, 68
12, 74606, Note_on_c, 11, 55, 0
12, 74610, Note_on_c, 11, 52, 68
12, 74636, Note_on_c, 11, 52, 0
12, 74640, Note_on_c, 11, 57, 67
12, 74666, Note_on_c, 11, 57, 0
12, 74670, Note_on_c, 11, 55, 66
12, 74696, Note_on_c, 11, 55, 0
12, 74700, Note_on_c, 11, 57, 66
12, 74726, Note_on_c, 11, 57, 0
12, 74730, Note_on_c, 11, 52, 67
12, 74756, Note_on_c, 11, 52, 0
12, 74760, Note_on_c, 11, 54, 67
12, 74786, Note_on_c, 11, 54, 0
12, 74790, Note_on_c, 11, 52, 67
12, 74816, Note_on_c, 11, 52, 0
12, 74820, Note_on_c, 11, 54, 67
12, 74846, Note_on_c, 11, 54, 0
12, 74850, Note_on_c, 11, 50, 67
12, 74876, Note_on_c, 11, 50, 0
12, 74880, Note_on_c, 11, 55, 68
12, 74906, Note_on_c, 11, 55, 0
12, 74910, Note_on_c, 11, 54, 68
12, 74936, Note_on_c, 11, 54, 0
12, 74940, Note_on_c, 11, 55, 69
12, 74966, Note_on_c, 11, 55, 0
12, 74970, Note_on_c, 11, 50, 69
12, 74996, Note_on_c, 11, 50, 0
12, 75000, Note_on_c, 11, 52, 69
12, 75026, Note_on_c, 11, 52, 0
12, 75030, Note_on_c, 11, 50, 68
12, 75056, Note_on_c, 11, 50, 0
12, 75060, Note_on_c, 11, 52, 68
12, 75086, Note_on_c, 11, 52, 0
12, 75090, Note_on_c, 11, 49, 68
12, 75116, Note_on_c, 11, 49, 0
12, 75120, Note_on_c, 11, 54, 68
12, 75146, Note_on_c, 11, 54, 0
12, 75150, Note_on_c, 11, 52, 68
12, 75176, Note_on_c, 11, 52, 0
12, 75180, Note_on_c, 11, 54, 68
12, 75206, Note_on_c, 11, 54, 0
12, 75210, Note_on_c, 11, 49, 68
12, 75236, Note_on_c, 11, 49, 0
12, 75240, Note_on_c, 11, 50, 68
12, 75266, Note_on_c, 11, 50, 0
12, 75270, Note_on_c, 11, 49, 68
12, 75296, Note_on_c, 11, 49, 0
12, 75300, Note_on_c, 11, 50, 68
12, 75326, Note_on_c, 11, 50, 0
12, 75330, Note_on_c, 11, 47, 68
12, 75356, Note_on_c, 11, 47, 0
12, 75360, Note_on_c, 11, 52, 68
12, 75386, Note_on_c, 11, 52, 0
12, 75390, Note_on_c, 11, 50, 68
12, 75416, Note_on_c, 11, 50, 0
12, 75420, Note_on_c, 11, 52, 69
12, 75446, Note_on_c, 11, 52, 0
12, 75450, Note_on_c, 11, 47, 69
12, 75476, Note_on_c, 11, 47, 0
12, 75480, Note_on_c, 11, 49, 69
12, 75506, Note_on_c, 11, 49, 0
12, 75510, Note_on_c, 11, 47, 69
12, 75536, Note_on_c, 11, 47, 0
12, 75540, Note_on_c, 11, 49, 69
12, 75566, Note_on_c, 11, 49, 0
12, 75570, Note_on_c, 11, 45, 69
12, 75596, Note_on_c, 11, 45, 0
12, 75600, Note_on_c, 11, 50, 69
12, 75746, Note_on_c, 11, 50, 0
12, 75750, Note_on_c, 11, 52, 66
12, 75776, Note_on_c, 11, 52, 0
12, 75780, Note_on_c, 11, 50, 66
12, 75806, Note_on_c, 11, 50, 0
12, 75810, Note_on_c, 11, 52, 66
12, 75836, Note_on_c, 11, 52, 0
12, 75840, Note_on_c, 11, 49, 66
12, 75853, Note_on_c, 11, 49, 0
12, 75855, Note_on_c, 11, 47, 66
12, 75868, Note_on_c, 11, 47, 0
12, 75870, Note_on_c, 11, 49, 66
12, 75943, Note_on_c, 11, 49, 0
12, 75960, Note_on_c, 11, 50, 58
12, 76065, Note_on_c, 11, 50, 0
12, 76140, Note_on_c, 11, 54, 64
12, 76192, Note_on_c, 11, 54, 0
12, 76200, Note_on_c, 11, 56, 58
12, 76305, Note_on_c, 11, 56, 0
12, 76380, Note_on_c, 11, 58, 64
12, 76432, Note_on_c, 11, 58, 0
12, 76440, Note_on_c, 11, 59, 59
12, 76545, Note_on_c, 11, 59, 0
12, 76620, Note_on_c, 11, 55, 64
12, 76672, Note_on_c, 11, 55, 0
12, 76680, Note_on_c, 11, 52, 59
12, 76785, Note_on_c, 11, 52, 0
12, 76860, Note_on_c, 11, 54, 64
12, 76912, Note_on_c, 11, 54, 0
12, 76920, Note_on_c, 11, 47, 64
12, 76946, Note_on_c, 11, 47, 0
12, 76950, Note_on_c, 11, 49, 64
12, 76976, Note_on_c, 11, 49, 0
12, 76980, Note_on_c, 11, 50, 64
12, 77006, Note_on_c, 11, 50, 0
12, 77010, Note_on_c, 11, 49, 64
12, 77036, Note_on_c, 11, 49, 0
12, 77040, Note_on_c, 11, 47, 64
12, 77066, Note_on_c, 11, 47, 0
12, 77070, Note_on_c, 11, 49, 64
12, 77096, Note_on_c, 11, 49, 0
12, 77100, Note_on_c, 11, 50, 64
12, 77126, Note_on_c, 11, 50, 0
12, 77130, Note_on_c, 11, 49, 64
12, 77156, Note_on_c, 11, 49, 0
12, 77160, Note_on_c, 11, 47, 64
12, 77186, Note_on_c, 11, 47, 0
12, 77190, Note_on_c, 11, 49, 64
12, 77216, Note_on_c, 11, 49, 0
12, 77220, Note_on_c, 11, 50, 64
12, 77246, Note_on_c, 11, 50, 0
12, 77250, Note_on_c, 11, 49, 64
12, 77276, Note_on_c, 11, 49, 0
12, 77280, Note_on_c, 11, 47, 64
12, 77306, Note_on_c, 11, 47, 0
12, 77310, Note_on_c, 11, 49, 64
12, 77336, Note_on_c, 11, 49, 0
12, 77340, Note_on_c, 11, 50, 64
12, 77366, Note_on_c, 11, 50, 0
12, 77370, Note_on_c, 11, 49, 64
12, 77396, Note_on_c, 11, 49, 0
12, 77400, Note_on_c, 11, 47, 64
12, 77505, Note_on_c, 11, 47, 0
12, 78240, Note_on_c, 11, 55, 64
12, 78266, Note_on_c, 11, 55, 0
12, 78270, Note_on_c, 11, 54, 64
12, 78296, Note_on_c, 11, 54, 0
12, 78300, Note_on_c, 11, 55, 64
12, 78326, Note_on_c, 11, 55, 0
12, 78330, Note_on_c, 11, 50, 64
12, 78356, Note_on_c, 11, 50, 0
12, 78360, Note_on_c, 11, 52, 64
12, 78386, Note_on_c, 11, 52, 0
12, 78390, Note_on_c, 11, 50, 64
12, 78416, Note_on_c, 11, 50, 0
12, 78420, Note_on_c, 11, 52, 64
12, 78446, Note_on_c, 11, 52, 0
12, 78450, Note_on_c, 11, 49, 64
12, 78476, Note_on_c, 11, 49, 0
12, 78480, Note_on_c, 11, 54, 64
12, 78506, Note_on_c, 11, 54, 0
12, 78510, Note_on_c, 11, 52, 64
12, 78536, Note_on_c, 11, 52, 0
12, 78540, Note_on_c, 11, 54, 64
12, 78566, Note_on_c, 11, 54, 0
12, 78570, Note_on_c, 11, 49, 64
12, 78596, Note_on_c, 11, 49, 0
12, 78600, Note_on_c, 11, 50, 64
12, 78626, Note_on_c, 11, 50, 0
12, 78630, Note_on_c, 11, 49, 64
12, 78656, Note_on_c, 11, 49, 0
12, 78660, Note_on_c, 11, 50, 64
12, 78686, Note_on_c, 11, 50, 0
12, 78690, Note_on_c, 11, 47, 64
12, 78716, Note_on_c, 11, 47, 0
12, 78720, Note_on_c, 11, 52, 64
12, 78746, Note_on_c, 11, 52, 0
12, 78750, Note_on_c, 11, 50, 64
12, 78776, Note_on_c, 11, 50, 0
12, 78780, Note_on_c, 11, 52, 64
12, 78806, Note_on_c, 11, 52, 0
12, 78810, Note_on_c, 11, 47, 64
12, 78836, Note_on_c, 11, 47, 0
12, 78840, Note_on_c, 11, 49, 64
12, 78866, Note_on_c, 11, 49, 0
12, 78870, Note_on_c, 11, 47, 64
12, 78896, Note_on_c, 11, 47, 0
12, 78900, Note_on_c, 11, 49, 64
12, 78926, Note_on_c, 11, 49, 0
12, 78930, Note_on_c, 11, 45, 64
12, 78956, Note_on_c, 11, 45, 0
12, 78960, Note_on_c, 11, 50, 64
12, 78986, Note_on_c, 11, 50, 0
12, 78990, Note_on_c, 11, 49, 64
12, 79016, Note_on_c, 11, 49, 0
12, 79020, Note_on_c, 11, 50, 64
12, 79046, Note_on_c, 11, 50, 0
12, 79050, Note_on_c, 11, 45, 64
12, 79076, Note_on_c, 11, 45, 0
12, 79080, Note_on_c, 11, 47, 64
12, 79106, Note_on_c, 11, 47, 0
12, 79110, Note_on_c, 11, 45, 64
12, 79136, Note_on_c, 11, 45, 0
12, 79140, Note_on_c, 11, 47, 64
12, 79166, Note_on_c, 11, 47, 0
12, 79170, Note_on_c, 11, 44, 64
12, 79196, Note_on_c, 11, 44, 0
12, 79200, Note_on_c, 11, 49, 64
12, 79226, Note_on_c, 11, 49, 0
12, 79230, Note_on_c, 11, 47, 64
12, 79256, Note_on_c, 11, 47, 0
12, 79260, Note_on_c, 11, 49, 64
12, 79286, Note_on_c, 11, 49, 0
12, 79290, Note_on_c, 11, 44, 64
12, 79316, Note_on_c, 11, 44, 0
12, 79320, Note_on_c, 11, 46, 64
12, 79346, Note_on_c, 11, 46, 0
12, 79350, Note_on_c, 11, 44, 64
12, 79376, Note_on_c, 11, 44, 0
12, 79380, Note_on_c, 11, 46, 64
12, 79406, Note_on_c, 11, 46, 0
12, 79410, Note_on_c, 11, 42, 64
12, 79436, Note_on_c, 11, 42, 0
12, 79440, Note_on_c, 11, 50, 64
12, 79492, Note_on_c, 11, 50, 0
12, 79500, Note_on_c, 11, 50, 64
12, 79552, Note_on_c, 11, 50, 0
12, 79560, Note_on_c, 11, 50, 64
12, 79665, Note_on_c, 11, 50, 0
12, 79740, Note_on_c, 11, 46, 64
12, 79792, Note_on_c, 11, 46, 0
12, 79800, Note_on_c, 11, 47, 64
12, 79905, Note_on_c, 11, 47, 0
12, 82980, Note_on_c, 11, 54, 70
12, 83006, Note_on_c, 11, 54, 0
12, 83010, Note_on_c, 11, 53, 71
12, 83036, Note_on_c, 11, 53, 0
12, 83040, Note_on_c, 11, 54, 71
12, 83066, Note_on_c, 11, 54, 0
12, 83070, Note_on_c, 11, 53, 71
12, 83096, Note_on_c, 11, 53, 0
12, 83100, Note_on_c, 11, 54, 70
12, 83126, Note_on_c, 11, 54, 0
12, 83130, Note_on_c, 11, 53, 69
12, 83156, Note_on_c, 11, 53, 0
12, 83160, Note_on_c, 11, 54, 69
12, 83212, Note_on_c, 11, 54, 0
12, 83220, Note_on_c, 11, 42, 70
12, 83272, Note_on_c, 11, 42, 0
12, 83340, Note_on_c, 11, 54, 64
12, 83392, Note_on_c, 11, 54, 0
12, 83400, Note_on_c, 11, 54, 57
12, 83505, Note_on_c, 11, 54, 0
12, 83580, Note_on_c, 11, 52, 64
12, 83632, Note_on_c, 11, 52, 0
12, 83640, Note_on_c, 11, 52, 57
12, 83745, Note_on_c, 11, 52, 0
12, 83820, Note_on_c, 11, 50, 58
12, 83872, Note_on_c, 11, 50, 0
12, 83880, Note_on_c, 11, 50, 50
12, 83985, Note_on_c, 11, 50, 0
12, 84060, Note_on_c, 11, 49, 55
12, 84112, Note_on_c, 11, 49, 0
12, 84120, Note_on_c, 11, 49, 56
12, 84225, Note_on_c, 11, 49, 0
12, 84300, Note_on_c, 11, 47, 57
12, 84352, Note_on_c, 11, 47, 0
12, 84360, Note_on_c, 11, 47, 56
12, 84465, Note_on_c, 11, 47, 0
12, 84480, Note_on_c, 11, 45, 56
12, 84585, Note_on_c, 11, 45, 0
12, 84600, Note_on_c, 11, 47, 57
12, 84705, Note_on_c, 11, 47, 0
12, 84720, Note_on_c, 11, 49, 56
12, 84825, Note_on_c, 11, 49, 0
12, 84840, Note_on_c, 11, 42, 64
12, 84945, Note_on_c, 11, 42, 0
12, 85140, Note_on_c, 11, 54, 64
12, 85166, Note_on_c, 11, 54, 0
12, 85170, Note_on_c, 11, 53, 64
12, 85196, Note_on_c, 11, 53, 0
12, 85200, Note_on_c, 11, 54, 64
12, 85226, Note_on_c, 11, 54, 0
12, 85230, Note_on_c, 11, 53, 64
12, 85256, Note_on_c, 11, 53, 0
12, 85260, Note_on_c, 11, 54, 64
12, 85286, Note_on_c, 11, 54, 0
12, 85290, Note_on_c, 11, 53, 64
12, 85316, Note_on_c, 11, 53, 0
12, 85320, Note_on_c, 11, 54, 64
12, 85425, Note_on_c, 11, 54, 0
12, 85620, Note_on_c, 11, 42, 64
12, 85646, Note_on_c, 11, 42, 0
12, 85650, Note_on_c, 11, 41, 64
12, 85676, Note_on_c, 11, 41, 0
12, 85680, Note_on_c, 11, 42, 64
12, 85706, Note_on_c, 11, 42, 0
12, 85710, Note_on_c, 11, 41, 64
12, 85736, Note_on_c, 11, 41, 0
12, 85740, Note_on_c, 11, 42, 64
12, 85766, Note_on_c, 11, 42, 0
12, 85770, Note_on_c, 11, 41, 64
12, 85796, Note_on_c, 11, 41, 0
12, 85800, Note_on_c, 11, 42, 64
12, 85905, Note_on_c, 11, 42, 0
12, 86160, Note_on_c, 11, 62, 64
12, 86186, Note_on_c, 11, 62, 0
12, 86190, Note_on_c, 11, 61, 64
12, 86216, Note_on_c, 11, 61, 0
12, 86220, Note_on_c, 11, 62, 64
12, 86246, Note_on_c, 11, 62, 0
12, 86250, Note_on_c, 11, 57, 64
12, 86276, Note_on_c, 11, 57, 0
12, 86280, Note_on_c, 11, 59, 64
12, 86306, Note_on_c, 11, 59, 0
12, 86310, Note_on_c, 11, 57, 64
12, 86336, Note_on_c, 11, 57, 0
12, 86340, Note_on_c, 11, 59, 64
12, 86366, Note_on_c, 11, 59, 0
12, 86370, Note_on_c, 11, 56, 64
12, 86396, Note_on_c, 11, 56, 0
12, 86400, Note_on_c, 11, 61, 64
12, 86426, Note_on_c, 11, 61, 0
12, 86430, Note_on_c, 11, 59, 64
12, 86456, Note_on_c, 11, 59, 0
12, 86460, Note_on_c, 11, 61, 64
12, 86486, Note_on_c, 11, 61, 0
12, 86490, Note_on_c, 11, 56, 64
12, 86516, Note_on_c, 11, 56, 0
12, 86520, Note_on_c, 11, 57, 64
12, 86546, Note_on_c, 11, 57, 0
12, 86550, Note_on_c, 11, 56, 64
12, 86576, Note_on_c, 11, 56, 0
12, 86580, Note_on_c, 11, 57, 64
12, 86606, Note_on_c, 11, 57, 0
12, 86610, Note_on_c, 11, 54, 64
12, 86636, Note_on_c, 11, 54, 0
12, 86640, Note_on_c, 11, 59, 64
12, 86666, Note_on_c, 11, 59, 0
12, 86670, Note_on_c, 11, 57, 64
12, 86696, Note_on_c, 11, 57, 0
12, 86700, Note_on_c, 11, 59, 64
12, 86726, Note_on_c, 11, 59, 0
12, 86730, Note_on_c, 11, 54, 64
12, 86756, Note_on_c, 11, 54, 0
12, 86760, Note_on_c, 11, 56, 64
12, 86786, Note_on_c, 11, 56, 0
12, 86790, Note_on_c, 11, 54, 64
12, 86816, Note_on_c, 11, 54, 0
12, 86820, Note_on_c, 11, 56, 64
12, 86846, Note_on_c, 11, 56, 0
12, 86850, Note_on_c, 11, 52, 64
12, 86876, Note_on_c, 11, 52, 0
12, 86880, Note_on_c, 11, 57, 64
12, 86906, Note_on_c, 11, 57, 0
12, 86910, Note_on_c, 11, 56, 64
12, 86936, Note_on_c, 11, 56, 0
12, 86940, Note_on_c, 11, 57, 64
12, 86966, Note_on_c, 11, 57, 0
12, 86970, Note_on_c, 11, 52, 64
12, 86996, Note_on_c, 11, 52, 0
12, 87000, Note_on_c, 11, 54, 64
12, 87026, Note_on_c, 11, 54, 0
12, 87030, Note_on_c, 11, 52, 64
12, 87056, Note_on_c, 11, 52, 0
12, 87060, Note_on_c, 11, 54, 64
12, 87086, Note_on_c, 11, 54, 0
12, 87090, Note_on_c, 11, 51, 64
12, 87116, Note_on_c, 11, 51, 0
12, 87120, Note_on_c, 11, 56, 64
12, 87146, Note_on_c, 11, 56, 0
12, 87150, Note_on_c, 11, 54, 64
12, 87176, Note_on_c, 11, 54, 0
12, 87180, Note_on_c, 11, 56, 64
12, 87206, Note_on_c, 11, 56, 0
12, 87210, Note_on_c, 11, 51, 64
12, 87236, Note_on_c, 11, 51, 0
12, 87240, Note_on_c, 11, 53, 64
12, 87266, Note_on_c, 11, 53, 0
12, 87270, Note_on_c, 11, 51, 64
12, 87296, Note_on_c, 11, 51, 0
12, 87300, Note_on_c, 11, 53, 64
12, 87326, Note_on_c, 11, 53, 0
12, 87330, Note_on_c, 11, 51, 64
12, 87356, Note_on_c, 11, 51, 0
12, 87360, Note_on_c, 11, 54, 64
12, 87506, Note_on_c, 11, 54, 0
12, 87510, Note_on_c, 11, 56, 64
12, 87536, Note_on_c, 11, 56, 0
12, 87540, Note_on_c, 11, 54, 64
12, 87566, Note_on_c, 11, 54, 0
12, 87570, Note_on_c, 11, 56, 64
12, 87596, Note_on_c, 11, 56, 0
12, 87600, Note_on_c, 11, 53, 64
12, 87705, Note_on_c, 11, 53, 0
12, 87720, Note_on_c, 11, 54, 64
12, 87825, Note_on_c, 11, 54, 0
12, 87840, Note_on_c, 11, 51, 64
12, 87945, Note_on_c, 11, 51, 0
12, 87960, Note_on_c, 11, 53, 64
12, 88012, Note_on_c, 11, 53, 0
12, 88020, Note_on_c, 11, 54, 64
12, 88072, Note_on_c, 11, 54, 0
12, 88080, Note_on_c, 11, 47, 64
12, 88132, Note_on_c, 11, 47, 0
12, 88140, Note_on_c, 11, 49, 64
12, 88192, Note_on_c, 11, 49, 0
12, 88200, Note_on_c, 11, 42, 64
12, 88305, Note_on_c, 11, 42, 0
12, 88680, Note_on_c, 11, 54, 64
12, 88706, Note_on_c, 11, 54, 0
12, 88710, Note_on_c, 11, 56, 64
12, 88736, Note_on_c, 11, 56, 0
12, 88740, Note_on_c, 11, 57, 64
12, 88766, Note_on_c, 11, 57, 0
12, 88770, Note_on_c, 11, 56, 64
12, 88796, Note_on_c, 11, 56, 0
12, 88800, Note_on_c, 11, 54, 64
12, 88826, Note_on_c, 11, 54, 0
12, 88830, Note_on_c, 11, 56, 64
12, 88856, Note_on_c, 11, 56, 0
12, 88860, Note_on_c, 11, 57, 64
12, 88886, Note_on_c, 11, 57, 0
12, 88890, Note_on_c, 11, 56, 64
12, 88916, Note_on_c, 11, 56, 0
12, 88920, Note_on_c, 11, 54, 64
12, 88946, Note_on_c, 11, 54, 0
12, 88950, Note_on_c, 11, 56, 64
12, 88976, Note_on_c, 11, 56, 0
12, 88980, Note_on_c, 11, 57, 64
12, 89006, Note_on_c, 11, 57, 0
12, 89010, Note_on_c, 11, 56, 64
12, 89036, Note_on_c, 11, 56, 0
12, 89040, Note_on_c, 11, 54, 64
12, 89066, Note_on_c, 11, 54, 0
12, 89070, Note_on_c, 11, 56, 64
12, 89096, Note_on_c, 11, 56, 0
12, 89100, Note_on_c, 11, 57, 64
12, 89126, Note_on_c, 11, 57, 0
12, 89130, Note_on_c, 11, 56, 64
12, 89156, Note_on_c, 11, 56, 0
12, 89160, Note_on_c, 11, 54, 64
12, 89212, Note_on_c, 11, 54, 0
12, 89400, Note_on_c, 11, 56, 64
12, 89452, Note_on_c, 11, 56, 0
12, 89640, Note_on_c, 11, 49, 64
12, 89692, Note_on_c, 11, 49, 0
12, 89880, Note_on_c, 11, 49, 64
12, 89906, Note_on_c, 11, 49, 0
12, 89910, Note_on_c, 11, 51, 64
12, 89936, Note_on_c, 11, 51, 0
12, 89940, Note_on_c, 11, 52, 64
12, 89966, Note_on_c, 11, 52, 0
12, 89970, Note_on_c, 11, 51, 64
12, 89996, Note_on_c, 11, 51, 0
12, 90000, Note_on_c, 11, 49, 64
12, 90026, Note_on_c, 11, 49, 0
12, 90030, Note_on_c, 11, 51, 64
12, 90056, Note_on_c, 11, 51, 0
12, 90060, Note_on_c, 11, 52, 64
12, 90086, Note_on_c, 11, 52, 0
12, 90090, Note_on_c, 11, 51, 64
12, 90116, Note_on_c, 11, 51, 0
12, 90120, Note_on_c, 11, 49, 64
12, 90146, Note_on_c, 11, 49, 0
12, 90150, Note_on_c, 11, 51, 64
12, 90176, Note_on_c, 11, 51, 0
12, 90180, Note_on_c, 11, 52, 64
12, 90206, Note_on_c, 11, 52, 0
12, 90210, Note_on_c, 11, 51, 64
12, 90236, Note_on_c, 11, 51, 0
12, 90240, Note_on_c, 11, 49, 64
12, 90266, Note_on_c, 11, 49, 0
12, 90270, Note_on_c, 11, 51, 64
12, 90296, Note_on_c, 11, 51, 0
12, 90300, Note_on_c, 11, 52, 64
12, 90326, Note_on_c, 11, 52, 0
12, 90330, Note_on_c, 11, 51, 64
12, 90356, Note_on_c, 11, 51, 0
12, 90360, Note_on_c, 11, 49, 64
12, 90412, Note_on_c, 11, 49, 0
12, 90720, Note_on_c, 11, 57, 64
12, 90746, Note_on_c, 11, 57, 0
12, 90750, Note_on_c, 11, 56, 64
12, 90776, Note_on_c, 11, 56, 0
12, 90780, Note_on_c, 11, 57, 64
12, 90806, Note_on_c, 11, 57, 0
12, 90810, Note_on_c, 11, 52, 64
12, 90836, Note_on_c, 11, 52, 0
12, 90840, Note_on_c, 11, 54, 64
12, 90866, Note_on_c, 11, 54, 0
12, 90870, Note_on_c, 11, 52, 64
12, 90896, Note_on_c, 11, 52, 0
12, 90900, Note_on_c, 11, 54, 64
12, 90926, Note_on_c, 11, 54, 0
12, 90930, Note_on_c, 11, 51, 64
12, 90956, Note_on_c, 11, 51, 0
12, 90960, Note_on_c, 11, 56, 64
12, 90986, Note_on_c, 11, 56, 0
12, 90990, Note_on_c, 11, 54, 64
12, 91016, Note_on_c, 11, 54, 0
12, 91020, Note_on_c, 11, 56, 64
12, 91046, Note_on_c, 11, 56, 0
12, 91050, Note_on_c, 11, 51, 64
12, 91076, Note_on_c, 11, 51, 0
12, 91080, Note_on_c, 11, 52, 64
12, 91132, Note_on_c, 11, 52, 0
12, 91140, Note_on_c, 11, 49, 64
12, 91192, Note_on_c, 11, 49, 0
12, 91260, Note_on_c, 11, 61, 64
12, 91312, Note_on_c, 11, 61, 0
12, 91320, Note_on_c, 11, 61, 64
12, 91425, Note_on_c, 11, 61, 0
12, 91500, Note_on_c, 11, 60, 64
12, 91552, Note_on_c, 11, 60, 0
12, 91560, Note_on_c, 11, 61, 64
12, 91665, Note_on_c, 11, 61, 0
12, 91740, Note_on_c, 11, 54, 64
12, 91792, Note_on_c, 11, 54, 0
12, 91800, Note_on_c, 11, 56, 64
12, 91852, Note_on_c, 11, 56, 0
12, 91860, Note_on_c, 11, 49, 64
12, 91912, Note_on_c, 11, 49, 0
12, 91920, Note_on_c, 11, 56, 64
12, 91972, Note_on_c, 11, 56, 0
12, 91980, Note_on_c, 11, 44, 64
12, 92032, Note_on_c, 11, 44, 0
12, 92040, Note_on_c, 11, 49, 64
12, 92145, Note_on_c, 11, 49, 0
12, 95697, Program_c, 11, 20
12, 95697, Control_c, 11, 0, 0
12, 95697, Control_c, 11, 11, 110
12, 95697, Control_c, 11, 64, 0
12, 95697, Control_c, 11, 91, 50
12, 95697, Control_c, 11, 93, 0
12, 95697, Control_c, 11, 7, 20
12, 95698, Control_c, 11, 10, 80
12, 95700, Note_on_c, 11, 52, 64
12, 95726, Note_on_c, 11, 52, 0
12, 95730, Note_on_c, 11, 51, 64
12, 95756, Note_on_c, 11, 51, 0
12, 95760, Note_on_c, 11, 52, 64
12, 95786, Note_on_c, 11, 52, 0
12, 95790, Note_on_c, 11, 51, 64
12, 95816, Note_on_c, 11, 51, 0
12, 95820, Note_on_c, 11, 52, 64
12, 95846, Note_on_c, 11, 52, 0
12, 95850, Note_on_c, 11, 51, 64
12, 95876, Note_on_c, 11, 51, 0
12, 95880, Note_on_c, 11, 52, 64
12, 95932, Note_on_c, 11, 52, 0
12, 95940, Note_on_c, 11, 40, 64
12, 95992, Note_on_c, 11, 40, 0
12, 96060, Note_on_c, 11, 52, 64
12, 96112, Note_on_c, 11, 52, 0
12, 96120, Note_on_c, 11, 52, 64
12, 96225, Note_on_c, 11, 52, 0
12, 96300, Note_on_c, 11, 51, 64
12, 96352, Note_on_c, 11, 51, 0
12, 96360, Note_on_c, 11, 52, 64
12, 96465, Note_on_c, 11, 52, 0
12, 97797, Program_c, 11, 16
12, 97797, Control_c, 11, 0, 0
12, 97797, Control_c, 11, 11, 110
12, 97797, Control_c, 11, 64, 0
12, 97797, Control_c, 11, 91, 50
12, 97797, Control_c, 11, 93, 0
12, 97797, Control_c, 11, 7, 95
12, 97798, Control_c, 11, 10, 80
12, 97800, Note_on_c, 11, 45, 64
12, 97905, Note_on_c, 11, 45, 0
12, 97980, Note_on_c, 11, 47, 72
12, 98032, Note_on_c, 11, 47, 0
12, 98040, Note_on_c, 11, 49, 73
12, 98092, Note_on_c, 11, 49, 0
12, 98100, Note_on_c, 11, 50, 72
12, 98152, Note_on_c, 11, 50, 0
12, 98160, Note_on_c, 11, 52, 72
12, 98212, Note_on_c, 11, 52, 0
12, 98220, Note_on_c, 11, 40, 71
12, 98272, Note_on_c, 11, 40, 0
12, 98280, Note_on_c, 11, 45, 66
12, 98385, Note_on_c, 11, 45, 0
12, 100917, Program_c, 11, 19
12, 100917, Control_c, 11, 0, 0
12, 100917, Control_c, 11, 11, 120
12, 100917, Control_c, 11, 64, 0
12, 100917, Control_c, 11, 91, 50
12, 100917, Control_c, 11, 93, 20
12, 100917, Control_c, 11, 7, 80
12, 100918, Control_c, 11, 10, 64
12, 100920, Note_on_c, 11, 57, 64
12, 100946, Note_on_c, 11, 57, 0
12, 100950, Note_on_c, 11, 59, 64
12, 100976, Note_on_c, 11, 59, 0
12, 100980, Note_on_c, 11, 61, 64
12, 101006, Note_on_c, 11, 61, 0
12, 101010, Note_on_c, 11, 59, 64
12, 101036, Note_on_c, 11, 59, 0
12, 101040, Note_on_c, 11, 57, 64
12, 101066, Note_on_c, 11, 57, 0
12, 101070, Note_on_c, 11, 59, 64
12, 101096, Note_on_c, 11, 59, 0
12, 101100, Note_on_c, 11, 61, 64
12, 101126, Note_on_c, 11, 61, 0
12, 101130, Note_on_c, 11, 59, 64
12, 101156, Note_on_c, 11, 59, 0
12, 101160, Note_on_c, 11, 57, 64
12, 101186, Note_on_c, 11, 57, 0
12, 101190, Note_on_c, 11, 59, 64
12, 101216, Note_on_c, 11, 59, 0
12, 101220, Note_on_c, 11, 61, 64
12, 101246, Note_on_c, 11, 61, 0
12, 101250, Note_on_c, 11, 59, 64
12, 101276, Note_on_c, 11, 59, 0
12, 101280, Note_on_c, 11, 57, 64
12, 101306, Note_on_c, 11, 57, 0
12, 101310, Note_on_c, 11, 59, 64
12, 101336, Note_on_c, 11, 59, 0
12, 101340, Note_on_c, 11, 61, 64
12, 101366, Note_on_c, 11, 61, 0
12, 101370, Note_on_c, 11, 59, 64
12, 101396, Note_on_c, 11, 59, 0
12, 101400, Note_on_c, 11, 57, 64
12, 101505, Note_on_c, 11, 57, 0
12, 101880, Note_on_c, 11, 45, 64
12, 101906, Note_on_c, 11, 45, 0
12, 101910, Note_on_c, 11, 47, 64
12, 101936, Note_on_c, 11, 47, 0
12, 101940, Note_on_c, 11, 49, 64
12, 101966, Note_on_c, 11, 49, 0
12, 101970, Note_on_c, 11, 47, 64
12, 101996, Note_on_c, 11, 47, 0
12, 102000, Note_on_c, 11, 45, 64
12, 102026, Note_on_c, 11, 45, 0
12, 102030, Note_on_c, 11, 47, 64
12, 102056, Note_on_c, 11, 47, 0
12, 102060, Note_on_c, 11, 49, 64
12, 102086, Note_on_c, 11, 49, 0
12, 102090, Note_on_c, 11, 47, 64
12, 102116, Note_on_c, 11, 47, 0
12, 102120, Note_on_c, 11, 45, 64
12, 102146, Note_on_c, 11, 45, 0
12, 102150, Note_on_c, 11, 47, 64
12, 102176, Note_on_c, 11, 47, 0
12, 102180, Note_on_c, 11, 49, 64
12, 102206, Note_on_c, 11, 49, 0
12, 102210, Note_on_c, 11, 47, 64
12, 102236, Note_on_c, 11, 47, 0
12, 102240, Note_on_c, 11, 45, 64
12, 102266, Note_on_c, 11, 45, 0
12, 102270, Note_on_c, 11, 47, 64
12, 102296, Note_on_c, 11, 47, 0
12, 102300, Note_on_c, 11, 49, 64
12, 102326, Note_on_c, 11, 49, 0
12, 102330, Note_on_c, 11, 47, 64
12, 102356, Note_on_c, 11, 47, 0
12, 102360, Note_on_c, 11, 45, 64
12, 102465, Note_on_c, 11, 45, 0
12, 102900, Note_on_c, 11, 57, 70
12, 102952, Note_on_c, 11, 57, 0
12, 102960, Note_on_c, 11, 54, 70
12, 103065, Note_on_c, 11, 54, 0
12, 103140, Note_on_c, 11, 47, 71
12, 103192, Note_on_c, 11, 47, 0
12, 103200, Note_on_c, 11, 55, 70
12, 103305, Note_on_c, 11, 55, 0
12, 103380, Note_on_c, 11, 57, 68
12, 103432, Note_on_c, 11, 57, 0
12, 103440, Note_on_c, 11, 54, 68
12, 103545, Note_on_c, 11, 54, 0
12, 103620, Note_on_c, 11, 47, 69
12, 103672, Note_on_c, 11, 47, 0
12, 103680, Note_on_c, 11, 55, 69
12, 103785, Note_on_c, 11, 55, 0
12, 103860, Note_on_c, 11, 57, 68
12, 103912, Note_on_c, 11, 57, 0
12, 103920, Note_on_c, 11, 54, 69
12, 104025, Note_on_c, 11, 54, 0
12, 104100, Note_on_c, 11, 59, 71
12, 104152, Note_on_c, 11, 59, 0
12, 104160, Note_on_c, 11, 55, 71
12, 104265, Note_on_c, 11, 55, 0
12, 104340, Note_on_c, 11, 57, 70
12, 104392, Note_on_c, 11, 57, 0
12, 104400, Note_on_c, 11, 54, 70
12, 104505, Note_on_c, 11, 54, 0
12, 104580, Note_on_c, 11, 59, 70
12, 104632, Note_on_c, 11, 59, 0
12, 104640, Note_on_c, 11, 55, 71
12, 104745, Note_on_c, 11, 55, 0
12, 104820, Note_on_c, 11, 57, 71
12, 104872, Note_on_c, 11, 57, 0
12, 104880, Note_on_c, 11, 50, 71
12, 104985, Note_on_c, 11, 50, 0
12, 105030, Note_on_c, 11, 56, 71
12, 105056, Note_on_c, 11, 56, 0
12, 105060, Note_on_c, 11, 57, 71
12, 105086, Note_on_c, 11, 57, 0
12, 105090, Note_on_c, 11, 56, 71
12, 105116, Note_on_c, 11, 56, 0
12, 105120, Note_on_c, 11, 57, 71
12, 105225, Note_on_c, 11, 57, 0
12, 105270, Note_on_c, 11, 56, 72
12, 105296, Note_on_c, 11, 56, 0
12, 105300, Note_on_c, 11, 57, 72
12, 105326, Note_on_c, 11, 57, 0
12, 105330, Note_on_c, 11, 56, 72
12, 105356, Note_on_c, 11, 56, 0
12, 105360, Note_on_c, 11, 57, 72
12, 105465, Note_on_c, 11, 57, 0
12, 105510, Note_on_c, 11, 56, 71
12, 105536, Note_on_c, 11, 56, 0
12, 105540, Note_on_c, 11, 57, 71
12, 105566, Note_on_c, 11, 57, 0
12, 105570, Note_on_c, 11, 56, 71
12, 105596, Note_on_c, 11, 56, 0
12, 105600, Note_on_c, 11, 57, 71
12, 105705, Note_on_c, 11, 57, 0
12, 105750, Note_on_c, 11, 56, 72
12, 105776, Note_on_c, 11, 56, 0
12, 105780, Note_on_c, 11, 57, 72
12, 105806, Note_on_c, 11, 57, 0
12, 105810, Note_on_c, 11, 56, 72
12, 105836, Note_on_c, 11, 56, 0
12, 105840, Note_on_c, 11, 57, 72
12, 105945, Note_on_c, 11, 57, 0
12, 105990, Note_on_c, 11, 56, 73
12, 106016, Note_on_c, 11, 56, 0
12, 106020, Note_on_c, 11, 57, 73
12, 106046, Note_on_c, 11, 57, 0
12, 106050, Note_on_c, 11, 56, 73
12, 106076, Note_on_c, 11, 56, 0
12, 106080, Note_on_c, 11, 57, 73
12, 106185, Note_on_c, 11, 57, 0
12, 106230, Note_on_c, 11, 56, 72
12, 106256, Note_on_c, 11, 56, 0
12, 106260, Note_on_c, 11, 57, 64
12, 106286, Note_on_c, 11, 57, 0
12, 106290, Note_on_c, 11, 56, 64
12, 106316, Note_on_c, 11, 56, 0
12, 106320, Note_on_c, 11, 57, 64
12, 106425, Note_on_c, 11, 57, 0
12, 106500, Note_on_c, 11, 57, 64
12, 106552, Note_on_c, 11, 57, 0
12, 106560, Note_on_c, 11, 45, 64
12, 106665, Note_on_c, 11, 45, 0
12, 106740, Note_on_c, 11, 55, 64
12, 106792, Note_on_c, 11, 55, 0
12, 106800, Note_on_c, 11, 43, 64
12, 106905, Note_on_c, 11, 43, 0
12, 106980, Note_on_c, 11, 54, 64
12, 107032, Note_on_c, 11, 54, 0
12, 107040, Note_on_c, 11, 42, 64
12, 107145, Note_on_c, 11, 42, 0
12, 107220, Note_on_c, 11, 52, 64
12, 107272, Note_on_c, 11, 52, 0
12, 107280, Note_on_c, 11, 40, 64
12, 107385, Note_on_c, 11, 40, 0
12, 107460, Note_on_c, 11, 50, 64
12, 107512, Note_on_c, 11, 50, 0
12, 107520, Note_on_c, 11, 38, 64
12, 107625, Note_on_c, 11, 38, 0
12, 108600, Note_on_c, 11, 50, 55
12, 108626, Note_on_c, 11, 50, 0
12, 108630, Note_on_c, 11, 52, 53
12, 108656, Note_on_c, 11, 52, 0
12, 108660, Note_on_c, 11, 54, 53
12, 108686, Note_on_c, 11, 54, 0
12, 108690, Note_on_c, 11, 52, 53
12, 108716, Note_on_c, 11, 52, 0
12, 108720, Note_on_c, 11, 50, 53
12, 108746, Note_on_c, 11, 50, 0
12, 108750, Note_on_c, 11, 52, 53
12, 108776, Note_on_c, 11, 52, 0
12, 108780, Note_on_c, 11, 54, 52
12, 108806, Note_on_c, 11, 54, 0
12, 108810, Note_on_c, 11, 52, 51
12, 108836, Note_on_c, 11, 52, 0
12, 108840, Note_on_c, 11, 50, 50
12, 108866, Note_on_c, 11, 50, 0
12, 108870, Note_on_c, 11, 52, 50
12, 108896, Note_on_c, 11, 52, 0
12, 108900, Note_on_c, 11, 54, 47
12, 108926, Note_on_c, 11, 54, 0
12, 108930, Note_on_c, 11, 52, 47
12, 108956, Note_on_c, 11, 52, 0
12, 108960, Note_on_c, 11, 50, 47
12, 108986, Note_on_c, 11, 50, 0
12, 108990, Note_on_c, 11, 52, 48
12, 109016, Note_on_c, 11, 52, 0
12, 109020, Note_on_c, 11, 54, 48
12, 109046, Note_on_c, 11, 54, 0
12, 109050, Note_on_c, 11, 52, 48
12, 109076, Note_on_c, 11, 52, 0
12, 109080, Note_on_c, 11, 50, 48
12, 109132, Note_on_c, 11, 50, 0
12, 109440, Note_on_c, 11, 59, 72
12, 109466, Note_on_c, 11, 59, 0
12, 109470, Note_on_c, 11, 57, 72
12, 109496, Note_on_c, 11, 57, 0
12, 109500, Note_on_c, 11, 59, 72
12, 109526, Note_on_c, 11, 59, 0
12, 109530, Note_on_c, 11, 54, 72
12, 109556, Note_on_c, 11, 54, 0
12, 109560, Note_on_c, 11, 55, 72
12, 109586, Note_on_c, 11, 55, 0
12, 109590, Note_on_c, 11, 54, 72
12, 109616, Note_on_c, 11, 54, 0
12, 109620, Note_on_c, 11, 55, 72
12, 109646, Note_on_c, 11, 55, 0
12, 109650, Note_on_c, 11, 52, 72
12, 109676, Note_on_c, 11, 52, 0
12, 109680, Note_on_c, 11, 57, 73
12, 109706, Note_on_c, 11, 57, 0
12, 109710, Note_on_c, 11, 55, 73
12, 109736, Note_on_c, 11, 55, 0
12, 109740, Note_on_c, 11, 57, 73
12, 109766, Note_on_c, 11, 57, 0
12, 109770, Note_on_c, 11, 52, 73
12, 109796, Note_on_c, 11, 52, 0
12, 109800, Note_on_c, 11, 54, 73
12, 109826, Note_on_c, 11, 54, 0
12, 109830, Note_on_c, 11, 52, 73
12, 109856, Note_on_c, 11, 52, 0
12, 109860, Note_on_c, 11, 54, 72
12, 109886, Note_on_c, 11, 54, 0
12, 109890, Note_on_c, 11, 50, 72
12, 109916, Note_on_c, 11, 50, 0
12, 109920, Note_on_c, 11, 55, 72
12, 109946, Note_on_c, 11, 55, 0
12, 109950, Note_on_c, 11, 54, 73
12, 109976, Note_on_c, 11, 54, 0
12, 109980, Note_on_c, 11, 55, 73
12, 110006, Note_on_c, 11, 55, 0
12, 110010, Note_on_c, 11, 50, 73
12, 110036, Note_on_c, 11, 50, 0
12, 110040, Note_on_c, 11, 52, 73
12, 110066, Note_on_c, 11, 52, 0
12, 110070, Note_on_c, 11, 50, 73
12, 110096, Note_on_c, 11, 50, 0
12, 110100, Note_on_c, 11, 52, 73
12, 110126, Note_on_c, 11, 52, 0
12, 110130, Note_on_c, 11, 49, 73
12, 110156, Note_on_c, 11, 49, 0
12, 110160, Note_on_c, 11, 54, 73
12, 110186, Note_on_c, 11, 54, 0
12, 110190, Note_on_c, 11, 52, 73
12, 110216, Note_on_c, 11, 52, 0
12, 110220, Note_on_c, 11, 54, 73
12, 110246, Note_on_c, 11, 54, 0
12, 110250, Note_on_c, 11, 49, 73
12, 110276, Note_on_c, 11, 49, 0
12, 110280, Note_on_c, 11, 50, 73
12, 110306, Note_on_c, 11, 50, 0
12, 110310, Note_on_c, 11, 49, 73
12, 110336, Note_on_c, 11, 49, 0
12, 110340, Note_on_c, 11, 50, 73
12, 110366, Note_on_c, 11, 50, 0
12, 110370, Note_on_c, 11, 47, 73
12, 110396, Note_on_c, 11, 47, 0
12, 110400, Note_on_c, 11, 52, 73
12, 110426, Note_on_c, 11, 52, 0
12, 110430, Note_on_c, 11, 50, 74
12, 110456, Note_on_c, 11, 50, 0
12, 110460, Note_on_c, 11, 52, 74
12, 110486, Note_on_c, 11, 52, 0
12, 110490, Note_on_c, 11, 47, 74
12, 110516, Note_on_c, 11, 47, 0
12, 110520, Note_on_c, 11, 49, 74
12, 110546, Note_on_c, 11, 49, 0
12, 110550, Note_on_c, 11, 47, 74
12, 110576, Note_on_c, 11, 47, 0
12, 110580, Note_on_c, 11, 49, 74
12, 110606, Note_on_c, 11, 49, 0
12, 110610, Note_on_c, 11, 45, 73
12, 110636, Note_on_c, 11, 45, 0
12, 110640, Note_on_c, 11, 50, 73
12, 110786, Note_on_c, 11, 50, 0
12, 110790, Note_on_c, 11, 52, 74
12, 110816, Note_on_c, 11, 52, 0
12, 110820, Note_on_c, 11, 50, 73
12, 110846, Note_on_c, 11, 50, 0
12, 110850, Note_on_c, 11, 52, 73
12, 110876, Note_on_c, 11, 52, 0
12, 110880, Note_on_c, 11, 49, 73
12, 110985, Note_on_c, 11, 49, 0
12, 111000, Note_on_c, 11, 50, 59
12, 111105, Note_on_c, 11, 50, 0
12, 111180, Note_on_c, 11, 50, 59
12, 111232, Note_on_c, 11, 50, 0
12, 111240, Note_on_c, 11, 50, 58
12, 111345, Note_on_c, 11, 50, 0
12, 111420, Note_on_c, 11, 49, 57
12, 111472, Note_on_c, 11, 49, 0
12, 111480, Note_on_c, 11, 49, 57
12, 111585, Note_on_c, 11, 49, 0
12, 111660, Note_on_c, 11, 47, 57
12, 111712, Note_on_c, 11, 47, 0
12, 111720, Note_on_c, 11, 47, 58
12, 111825, Note_on_c, 11, 47, 0
12, 111900, Note_on_c, 11, 45, 59
12, 111952, Note_on_c, 11, 45, 0
12, 111960, Note_on_c, 11, 45, 59
12, 112065, Note_on_c, 11, 45, 0
12, 112140, Note_on_c, 11, 43, 59
12, 112192, Note_on_c, 11, 43, 0
12, 112200, Note_on_c, 11, 43, 59
12, 112305, Note_on_c, 11, 43, 0
12, 112320, Note_on_c, 11, 42, 61
12, 112425, Note_on_c, 11, 42, 0
12, 112710, Note_on_c, 11, 38, 64
12, 112736, Note_on_c, 11, 38, 0
12, 112740, Note_on_c, 11, 42, 64
12, 112766, Note_on_c, 11, 42, 0
12, 112770, Note_on_c, 11, 38, 64
12, 112796, Note_on_c, 11, 38, 0
12, 112800, Note_on_c, 11, 45, 64
12, 112826, Note_on_c, 11, 45, 0
12, 112830, Note_on_c, 11, 42, 64
12, 112856, Note_on_c, 11, 42, 0
12, 112860, Note_on_c, 11, 50, 64
12, 112886, Note_on_c, 11, 50, 0
12, 112890, Note_on_c, 11, 45, 64
12, 112916, Note_on_c, 11, 45, 0
12, 112920, Note_on_c, 11, 54, 64
12, 113025, Note_on_c, 11, 54, 0
12, 113430, Note_on_c, 11, 45, 64
12, 113456, Note_on_c, 11, 45, 0
12, 113460, Note_on_c, 11, 50, 64
12, 113486, Note_on_c, 11, 50, 0
12, 113490, Note_on_c, 11, 45, 64
12, 113516, Note_on_c, 11, 45, 0
12, 113520, Note_on_c, 11, 54, 64
12, 113546, Note_on_c, 11, 54, 0
12, 113550, Note_on_c, 11, 50, 64
12, 113576, Note_on_c, 11, 50, 0
12, 113580, Note_on_c, 11, 57, 64
12, 113606, Note_on_c, 11, 57, 0
12, 113610, Note_on_c, 11, 54, 64
12, 113636, Note_on_c, 11, 54, 0
12, 113640, Note_on_c, 11, 62, 64
12, 113692, Note_on_c, 11, 62, 0
12, 113910, Note_on_c, 11, 62, 64
12, 113936, Note_on_c, 11, 62, 0
12, 113940, Note_on_c, 11, 57, 64
12, 113966, Note_on_c, 11, 57, 0
12, 113970, Note_on_c, 11, 62, 64
12, 113996, Note_on_c, 11, 62, 0
12, 114000, Note_on_c, 11, 54, 64
12, 114026, Note_on_c, 11, 54, 0
12, 114030, Note_on_c, 11, 57, 64
12, 114056, Note_on_c, 11, 57, 0
12, 114060, Note_on_c, 11, 50, 64
12, 114086, Note_on_c, 11, 50, 0
12, 114090, Note_on_c, 11, 54, 64
12, 114116, Note_on_c, 11, 54, 0
12, 114120, Note_on_c, 11, 45, 64
12, 114172, Note_on_c, 11, 45, 0
12, 114390, Note_on_c, 11, 57, 64
12, 114416, Note_on_c, 11, 57, 0
12, 114420, Note_on_c, 11, 54, 64
12, 114446, Note_on_c, 11, 54, 0
12, 114450, Note_on_c, 11, 57, 64
12, 114476, Note_on_c, 11, 57, 0
12, 114480, Note_on_c, 11, 50, 64
12, 114506, Note_on_c, 11, 50, 0
12, 114510, Note_on_c, 11, 54, 64
12, 114536, Note_on_c, 11, 54, 0
12, 114540, Note_on_c, 11, 45, 64
12, 114566, Note_on_c, 11, 45, 0
12, 114570, Note_on_c, 11, 50, 64
12, 114596, Note_on_c, 11, 50, 0
12, 114600, Note_on_c, 11, 42, 64
12, 114626, Note_on_c, 11, 42, 0
12, 114630, Note_on_c, 11, 54, 64
12, 114656, Note_on_c, 11, 54, 0
12, 114660, Note_on_c, 11, 50, 64
12, 114686, Note_on_c, 11, 50, 0
12, 114690, Note_on_c, 11, 54, 64
12, 114716, Note_on_c, 11, 54, 0
12, 114720, Note_on_c, 11, 45, 64
12, 114746, Note_on_c, 11, 45, 0
12, 114750, Note_on_c, 11, 50, 64
12, 114776, Note_on_c, 11, 50, 0
12, 114780, Note_on_c, 11, 42, 64
12, 114806, Note_on_c, 11, 42, 0
12, 114810, Note_on_c, 11, 45, 64
12, 114836, Note_on_c, 11, 45, 0
12, 114840, Note_on_c, 11, 38, 64
12, 114866, Note_on_c, 11, 38, 0
12, 114870, Note_on_c, 11, 40, 53
12, 114896, Note_on_c, 11, 40, 0
12, 114900, Note_on_c, 11, 42, 54
12, 114926, Note_on_c, 11, 42, 0
12, 114930, Note_on_c, 11, 40, 53
12, 114956, Note_on_c, 11, 40, 0
12, 114960, Note_on_c, 11, 38, 54
12, 114986, Note_on_c, 11, 38, 0
12, 114990, Note_on_c, 11, 42, 54
12, 115016, Note_on_c, 11, 42, 0
12, 115020, Note_on_c, 11, 40, 54
12, 115046, Note_on_c, 11, 40, 0
12, 115050, Note_on_c, 11, 43, 54
12, 115076, Note_on_c, 11, 43, 0
12, 115080, Note_on_c, 11, 42, 54
12, 115106, Note_on_c, 11, 42, 0
12, 115110, Note_on_c, 11, 43, 54
12, 115136, Note_on_c, 11, 43, 0
12, 115140, Note_on_c, 11, 45, 54
12, 115166, Note_on_c, 11, 45, 0
12, 115170, Note_on_c, 11, 43, 54
12, 115196, Note_on_c, 11, 43, 0
12, 115200, Note_on_c, 11, 42, 54
12, 115226, Note_on_c, 11, 42, 0
12, 115230, Note_on_c, 11, 45, 54
12, 115256, Note_on_c, 11, 45, 0
12, 115260, Note_on_c, 11, 43, 54
12, 115286, Note_on_c, 11, 43, 0
12, 115290, Note_on_c, 11, 47, 54
12, 115316, Note_on_c, 11, 47, 0
12, 115320, Note_on_c, 11, 45, 54
12, 115346, Note_on_c, 11, 45, 0
12, 115350, Note_on_c, 11, 47, 54
12, 115376, Note_on_c, 11, 47, 0
12, 115380, Note_on_c, 11, 49, 54
12, 115406, Note_on_c, 11, 49, 0
12, 115410, Note_on_c, 11, 47, 56
12, 115436, Note_on_c, 11, 47, 0
12, 115440, Note_on_c, 11, 45, 57
12, 115466, Note_on_c, 11, 45, 0
12, 115470, Note_on_c, 11, 49, 58
12, 115496, Note_on_c, 11, 49, 0
12, 115500, Note_on_c, 11, 47, 58
12, 115526, Note_on_c, 11, 47, 0
12, 115530, Note_on_c, 11, 50, 59
12, 115556, Note_on_c, 11, 50, 0
12, 115560, Note_on_c, 11, 49, 59
12, 115586, Note_on_c, 11, 49, 0
12, 115590, Note_on_c, 11, 50, 59
12, 115616, Note_on_c, 11, 50, 0
12, 115620, Note_on_c, 11, 52, 59
12, 115646, Note_on_c, 11, 52, 0
12, 115650, Note_on_c, 11, 50, 60
12, 115676, Note_on_c, 11, 50, 0
12, 115680, Note_on_c, 11, 49, 60
12, 115706, Note_on_c, 11, 49, 0
12, 115710, Note_on_c, 11, 52, 61
12, 115736, Note_on_c, 11, 52, 0
12, 115740, Note_on_c, 11, 50, 60
12, 115766, Note_on_c, 11, 50, 0
12, 115770, Note_on_c, 11, 54, 60
12, 115796, Note_on_c, 11, 54, 0
12, 115800, Note_on_c, 11, 52, 61
12, 115826, Note_on_c, 11, 52, 0
12, 115830, Note_on_c, 11, 54, 62
12, 115856, Note_on_c, 11, 54, 0
12, 115860, Note_on_c, 11, 55, 63
12, 115886, Note_on_c, 11, 55, 0
12, 115890, Note_on_c, 11, 54, 64
12, 115916, Note_on_c, 11, 54, 0
12, 115920, Note_on_c, 11, 52, 66
12, 115946, Note_on_c, 11, 52, 0
12, 115950, Note_on_c, 11, 55, 66
12, 115976, Note_on_c, 11, 55, 0
12, 115980, Note_on_c, 11, 54, 66
12, 116006, Note_on_c, 11, 54, 0
12, 116010, Note_on_c, 11, 57, 66
12, 116036, Note_on_c, 11, 57, 0
12, 116040, Note_on_c, 11, 55, 66
12, 116066, Note_on_c, 11, 55, 0
12, 116070, Note_on_c, 11, 57, 66
12, 116096, Note_on_c, 11, 57, 0
12, 116100, Note_on_c, 11, 59, 67
12, 116126, Note_on_c, 11, 59, 0
12, 116130, Note_on_c, 11, 57, 68
12, 116156, Note_on_c, 11, 57, 0
12, 116160, Note_on_c, 11, 55, 68
12, 116186, Note_on_c, 11, 55, 0
12, 116190, Note_on_c, 11, 59, 68
12, 116216, Note_on_c, 11, 59, 0
12, 116220, Note_on_c, 11, 57, 68
12, 116246, Note_on_c, 11, 57, 0
12, 116250, Note_on_c, 11, 55, 68
12, 116276, Note_on_c, 11, 55, 0
12, 116280, Note_on_c, 11, 62, 68
12, 116306, Note_on_c, 11, 62, 0
12, 116310, Note_on_c, 11, 61, 76
12, 116336, Note_on_c, 11, 61, 0
12, 116340, Note_on_c, 11, 62, 75
12, 116366, Note_on_c, 11, 62, 0
12, 116370, Note_on_c, 11, 61, 76
12, 116396, Note_on_c, 11, 61, 0
12, 116400, Note_on_c, 11, 62, 76
12, 116426, Note_on_c, 11, 62, 0
12, 116430, Note_on_c, 11, 61, 76
12, 116456, Note_on_c, 11, 61, 0
12, 116460, Note_on_c, 11, 62, 75
12, 116486, Note_on_c, 11, 62, 0
12, 116490, Note_on_c, 11, 61, 75
12, 116516, Note_on_c, 11, 61, 0
12, 116520, Note_on_c, 11, 62, 64
12, 116625, Note_on_c, 11, 62, 0
12, 116760, Note_on_c, 11, 50, 90
12, 116786, Note_on_c, 11, 50, 0
12, 116790, Note_on_c, 11, 52, 90
12, 116816, Note_on_c, 11, 52, 0
12, 116820, Note_on_c, 11, 54, 88
12, 116846, Note_on_c, 11, 54, 0
12, 116850, Note_on_c, 11, 52, 88
12, 116876, Note_on_c, 11, 52, 0
12, 116880, Note_on_c, 11, 50, 90
12, 116906, Note_on_c, 11, 50, 0
12, 116910, Note_on_c, 11, 52, 92
12, 116936, Note_on_c, 11, 52, 0
12, 116940, Note_on_c, 11, 54, 92
12, 116966, Note_on_c, 11, 54, 0
12, 116970, Note_on_c, 11, 52, 92
12, 116996, Note_on_c, 11, 52, 0
12, 117000, Note_on_c, 11, 50, 92
12, 117110, Note_on_c, 11, 50, 0
12, 117300, Note_on_c, 11, 62, 79
12, 117352, Note_on_c, 11, 62, 0
12, 117360, Note_on_c, 11, 50, 78
12, 117465, Note_on_c, 11, 50, 0
12, 117540, Note_on_c, 11, 50, 82
12, 117592, Note_on_c, 11, 50, 0
12, 117600, Note_on_c, 11, 38, 94
12, 117705, Note_on_c, 11, 38, 0
12, 117705, End_track
13, 0, Start_track
13, 0, MIDI_port, 0
13, 51844, Program_c, 8, 16
13, 51844, Control_c, 8, 0, 0
13, 51844, Control_c, 8, 11, 110
13, 51844, Control_c, 8, 64, 0
13, 51844, Control_c, 8, 91, 120
13, 51844, Control_c, 8, 93, 0
13, 51844, Control_c, 8, 7, 70
13, 51845, Control_c, 8, 10, 100
13, 51960, Note_on_c, 8, 74, 64
13, 51986, Note_on_c, 8, 74, 0
13, 51990, Note_on_c, 8, 76, 64
13, 52016, Note_on_c, 8, 76, 0
13, 52020, Note_on_c, 8, 78, 64
13, 52046, Note_on_c, 8, 78, 0
13, 52050, Note_on_c, 8, 76, 64
13, 52076, Note_on_c, 8, 76, 0
13, 52080, Note_on_c, 8, 74, 64
13, 52106, Note_on_c, 8, 74, 0
13, 52110, Note_on_c, 8, 76, 64
13, 52136, Note_on_c, 8, 76, 0
13, 52140, Note_on_c, 8, 78, 64
13, 52166, Note_on_c, 8, 78, 0
13, 52170, Note_on_c, 8, 76, 64
13, 52196, Note_on_c, 8, 76, 0
13, 52200, Note_on_c, 8, 74, 64
13, 52226, Note_on_c, 8, 74, 0
13, 52230, Note_on_c, 8, 76, 64
13, 52256, Note_on_c, 8, 76, 0
13, 52260, Note_on_c, 8, 78, 64
13, 52286, Note_on_c, 8, 78, 0
13, 52290, Note_on_c, 8, 76, 64
13, 52316, Note_on_c, 8, 76, 0
13, 52320, Note_on_c, 8, 74, 64
13, 52346, Note_on_c, 8, 74, 0
13, 52350, Note_on_c, 8, 76, 64
13, 52376, Note_on_c, 8, 76, 0
13, 52380, Note_on_c, 8, 78, 64
13, 52406, Note_on_c, 8, 78, 0
13, 52410, Note_on_c, 8, 76, 64
13, 52436, Note_on_c, 8, 76, 0
13, 52440, Note_on_c, 8, 74, 64
13, 52492, Note_on_c, 8, 74, 0
13, 52800, Note_on_c, 8, 83, 64
13, 52826, Note_on_c, 8, 83, 0
13, 52830, Note_on_c, 8, 81, 64
13, 52856, Note_on_c, 8, 81, 0
13, 52860, Note_on_c, 8, 83, 64
13, 52886, Note_on_c, 8, 83, 0
13, 52890, Note_on_c, 8, 78, 64
13, 52916, Note_on_c, 8, 78, 0
13, 52920, Note_on_c, 8, 79, 64
13, 52946, Note_on_c, 8, 79, 0
13, 52950, Note_on_c, 8, 78, 64
13, 52976, Note_on_c, 8, 78, 0
13, 52980, Note_on_c, 8, 79, 64
13, 53006, Note_on_c, 8, 79, 0
13, 53010, Note_on_c, 8, 76, 64
13, 53036, Note_on_c, 8, 76, 0
13, 53040, Note_on_c, 8, 81, 64
13, 53066, Note_on_c, 8, 81, 0
13, 53070, Note_on_c, 8, 79, 64
13, 53096, Note_on_c, 8, 79, 0
13, 53100, Note_on_c, 8, 81, 64
13, 53126, Note_on_c, 8, 81, 0
13, 53130, Note_on_c, 8, 76, 64
13, 53156, Note_on_c, 8, 76, 0
13, 53160, Note_on_c, 8, 78, 64
13, 53186, Note_on_c, 8, 78, 0
13, 53190, Note_on_c, 8, 76, 64
13, 53216, Note_on_c, 8, 76, 0
13, 53220, Note_on_c, 8, 78, 64
13, 53246, Note_on_c, 8, 78, 0
13, 53250, Note_on_c, 8, 74, 64
13, 53276, Note_on_c, 8, 74, 0
13, 53280, Note_on_c, 8, 79, 64
13, 53306, Note_on_c, 8, 79, 0
13, 53310, Note_on_c, 8, 78, 64
13, 53336, Note_on_c, 8, 78, 0
13, 53340, Note_on_c, 8, 79, 64
13, 53366, Note_on_c, 8, 79, 0
13, 53370, Note_on_c, 8, 74, 64
13, 53396, Note_on_c, 8, 74, 0
13, 53400, Note_on_c, 8, 76, 64
13, 53426, Note_on_c, 8, 76, 0
13, 53430, Note_on_c, 8, 74, 64
13, 53456, Note_on_c, 8, 74, 0
13, 53460, Note_on_c, 8, 76, 64
13, 53486, Note_on_c, 8, 76, 0
13, 53490, Note_on_c, 8, 73, 64
13, 53516, Note_on_c, 8, 73, 0
13, 53520, Note_on_c, 8, 78, 64
13, 53546, Note_on_c, 8, 78, 0
13, 53550, Note_on_c, 8, 76, 64
13, 53576, Note_on_c, 8, 76, 0
13, 53580, Note_on_c, 8, 78, 64
13, 53606, Note_on_c, 8, 78, 0
13, 53610, Note_on_c, 8, 73, 64
13, 53636, Note_on_c, 8, 73, 0
13, 53640, Note_on_c, 8, 74, 64
13, 53666, Note_on_c, 8, 74, 0
13, 53670, Note_on_c, 8, 73, 64
13, 53696, Note_on_c, 8, 73, 0
13, 53700, Note_on_c, 8, 74, 64
13, 53726, Note_on_c, 8, 74, 0
13, 53730, Note_on_c, 8, 71, 64
13, 53756, Note_on_c, 8, 71, 0
13, 53760, Note_on_c, 8, 76, 64
13, 53786, Note_on_c, 8, 76, 0
13, 53790, Note_on_c, 8, 74, 64
13, 53816, Note_on_c, 8, 74, 0
13, 53820, Note_on_c, 8, 76, 64
13, 53846, Note_on_c, 8, 76, 0
13, 53850, Note_on_c, 8, 71, 64
13, 53876, Note_on_c, 8, 71, 0
13, 53880, Note_on_c, 8, 73, 64
13, 53906, Note_on_c, 8, 73, 0
13, 53910, Note_on_c, 8, 71, 64
13, 53936, Note_on_c, 8, 71, 0
13, 53940, Note_on_c, 8, 73, 64
13, 53966, Note_on_c, 8, 73, 0
13, 53970, Note_on_c, 8, 69, 64
13, 53996, Note_on_c, 8, 69, 0
13, 54000, Note_on_c, 8, 74, 64
13, 54146, Note_on_c, 8, 74, 0
13, 54150, Note_on_c, 8, 76, 64
13, 54176, Note_on_c, 8, 76, 0
13, 54180, Note_on_c, 8, 74, 64
13, 54206, Note_on_c, 8, 74, 0
13, 54210, Note_on_c, 8, 76, 64
13, 54236, Note_on_c, 8, 76, 0
13, 54240, Note_on_c, 8, 73, 64
13, 54253, Note_on_c, 8, 73, 0
13, 54255, Note_on_c, 8, 71, 64
13, 54268, Note_on_c, 8, 71, 0
13, 54270, Note_on_c, 8, 73, 64
13, 54321, Note_on_c, 8, 73, 0
13, 54330, Note_on_c, 8, 74, 64
13, 54356, Note_on_c, 8, 74, 0
13, 54360, Note_on_c, 8, 74, 64
13, 54386, Note_on_c, 8, 74, 0
13, 54390, Note_on_c, 8, 78, 64
13, 54416, Note_on_c, 8, 78, 0
13, 54420, Note_on_c, 8, 74, 64
13, 54446, Note_on_c, 8, 74, 0
13, 54450, Note_on_c, 8, 69, 64
13, 54476, Note_on_c, 8, 69, 0
13, 54480, Note_on_c, 8, 66, 64
13, 54506, Note_on_c, 8, 66, 0
13, 54510, Note_on_c, 8, 69, 64
13, 54536, Note_on_c, 8, 69, 0
13, 54540, Note_on_c, 8, 66, 64
13, 54566, Note_on_c, 8, 66, 0
13, 54570, Note_on_c, 8, 62, 64
13, 54596, Note_on_c, 8, 62, 0
13, 54600, Note_on_c, 8, 69, 64
13, 54652, Note_on_c, 8, 69, 0
13, 54652, End_track
0, 0, End_of_file
