0, 0, Header, 1, 4, 480
1, 0, Start_track
1, 0, Title_t, "Track 1"
1, 0, Tempo, 1000000
1, 0, Time_signature, 2, 2, 24, 8
1, 45120, Tempo, 1200000
1, 45600, Tempo, 2000000
1, 45837, Tempo, 1000000
1, 149760, Tempo, 1090909
1, 150720, Tempo, 1200000
1, 152640, Tempo, 2000000
1, 153600, Tempo, 857142
1, 153600, Time_signature, 6, 3, 24, 8
1, 155040, Tempo, 1714285
1, 247200, Tempo, 967741
1, 248640, Time_signature, 3, 3, 24, 8
1, 376800, Tempo, 1153846
1, 377520, Tempo, 2000000
1, 378240, End_track
2, 0, Start_track
2, 0, Title_t, "Track 1"
2, 0, Program_c, 0, 19
2, 0, Note_on_c, 0, 77, 92
2, 120, Note_off_c, 0, 77, 64
2, 120, Note_on_c, 0, 76, 92
2, 240, Note_off_c, 0, 76, 64
2, 240, Note_on_c, 0, 74, 92
2, 480, Note_off_c, 0, 74, 64
2, 480, Note_on_c, 0, 73, 92
2, 540, Note_off_c, 0, 73, 64
2, 540, Note_on_c, 0, 74, 92
2, 600, Note_off_c, 0, 74, 64
2, 600, Note_on_c, 0, 73, 92
2, 720, Note_off_c, 0, 73, 64
2, 720, Note_on_c, 0, 74, 92
2, 1080, Note_off_c, 0, 74, 64
2, 1080, Note_on_c, 0, 76, 92
2, 1200, Note_off_c, 0, 76, 64
2, 1200, Note_on_c, 0, 74, 92
2, 1320, Note_off_c, 0, 74, 64
2, 1320, Note_on_c, 0, 73, 92
2, 1440, Note_off_c, 0, 73, 64
2, 1440, Note_on_c, 0, 74, 92
2, 1560, Note_off_c, 0, 74, 64
2, 1560, Note_on_c, 0, 76, 92
2, 1680, Note_off_c, 0, 76, 64
2, 1680, Note_on_c, 0, 77, 92
2, 1800, Note_off_c, 0, 77, 64
2, 1800, Note_on_c, 0, 79, 92
2, 1920, Note_off_c, 0, 79, 64
2, 1920, Note_on_c, 0, 81, 92
2, 2160, Note_off_c, 0, 81, 64
2, 2160, Note_on_c, 0, 82, 92
2, 2280, Note_off_c, 0, 82, 64
2, 2280, Note_on_c, 0, 81, 92
2, 2400, Note_off_c, 0, 81, 64
2, 2400, Note_on_c, 0, 79, 92
2, 2520, Note_off_c, 0, 79, 64
2, 2520, Note_on_c, 0, 77, 92
2, 2640, Note_off_c, 0, 77, 64
2, 2640, Note_on_c, 0, 76, 92
2, 2760, Note_off_c, 0, 76, 64
2, 2760, Note_on_c, 0, 74, 92
2, 2880, Note_off_c, 0, 74, 64
2, 2880, Note_on_c, 0, 73, 92
2, 3120, Note_off_c, 0, 73, 64
2, 3120, Note_on_c, 0, 76, 92
2, 3360, Note_off_c, 0, 76, 64
2, 3360, Note_on_c, 0, 69, 92
2, 3600, Note_off_c, 0, 69, 64
2, 3600, Note_on_c, 0, 79, 92
2, 3960, Note_off_c, 0, 79, 64
2, 3960, Note_on_c, 0, 77, 92
2, 4080, Note_off_c, 0, 77, 64
2, 4080, Note_on_c, 0, 76, 92
2, 4200, Note_off_c, 0, 76, 64
2, 4200, Note_on_c, 0, 74, 92
2, 4320, Note_off_c, 0, 74, 64
2, 4320, Note_on_c, 0, 77, 92
2, 4440, Note_off_c, 0, 77, 64
2, 4440, Note_on_c, 0, 76, 92
2, 4560, Note_off_c, 0, 76, 64
2, 4560, Note_on_c, 0, 74, 92
2, 4680, Note_off_c, 0, 74, 64
2, 4680, Note_on_c, 0, 72, 92
2, 4800, Note_off_c, 0, 72, 64
2, 4800, Note_on_c, 0, 71, 92
2, 5040, Note_off_c, 0, 71, 64
2, 5040, Note_on_c, 0, 74, 92
2, 5280, Note_off_c, 0, 74, 64
2, 5280, Note_on_c, 0, 67, 92
2, 5520, Note_off_c, 0, 67, 64
2, 5520, Note_on_c, 0, 77, 92
2, 5880, Note_off_c, 0, 77, 64
2, 5880, Note_on_c, 0, 76, 92
2, 6000, Note_off_c, 0, 76, 64
2, 6000, Note_on_c, 0, 74, 92
2, 6120, Note_off_c, 0, 74, 64
2, 6120, Note_on_c, 0, 72, 92
2, 6240, Note_off_c, 0, 72, 64
2, 6240, Note_on_c, 0, 76, 92
2, 6360, Note_off_c, 0, 76, 64
2, 6360, Note_on_c, 0, 74, 92
2, 6480, Note_off_c, 0, 74, 64
2, 6480, Note_on_c, 0, 72, 92
2, 6600, Note_off_c, 0, 72, 64
2, 6600, Note_on_c, 0, 71, 92
2, 6720, Note_off_c, 0, 71, 64
2, 6720, Note_on_c, 0, 69, 92
2, 6840, Note_off_c, 0, 69, 64
2, 6840, Note_on_c, 0, 71, 92
2, 6960, Note_off_c, 0, 71, 64
2, 6960, Note_on_c, 0, 69, 92
2, 7080, Note_off_c, 0, 69, 64
2, 7080, Note_on_c, 0, 68, 92
2, 7200, Note_off_c, 0, 68, 64
2, 7200, Note_on_c, 0, 69, 92
2, 7320, Note_off_c, 0, 69, 64
2, 7320, Note_on_c, 0, 71, 92
2, 7440, Note_off_c, 0, 71, 64
2, 7440, Note_on_c, 0, 72, 92
2, 7560, Note_off_c, 0, 72, 64
2, 7560, Note_on_c, 0, 74, 92
2, 7680, Note_off_c, 0, 74, 64
2, 7680, Note_on_c, 0, 76, 92
2, 7920, Note_off_c, 0, 76, 64
2, 7920, Note_on_c, 0, 77, 92
2, 8160, Note_off_c, 0, 77, 64
2, 8160, Note_on_c, 0, 76, 92
2, 8400, Note_off_c, 0, 76, 64
2, 8400, Note_on_c, 0, 74, 92
2, 8640, Note_off_c, 0, 74, 64
2, 8640, Note_on_c, 0, 72, 92
2, 8880, Note_off_c, 0, 72, 64
2, 8880, Note_on_c, 0, 74, 92
2, 9120, Note_off_c, 0, 74, 64
2, 9120, Note_on_c, 0, 72, 92
2, 9360, Note_off_c, 0, 72, 64
2, 9360, Note_on_c, 0, 71, 92
2, 9600, Note_off_c, 0, 71, 64
2, 9600, Note_on_c, 0, 69, 92
2, 10080, Note_off_c, 0, 69, 64
2, 10320, Note_on_c, 0, 74, 92
2, 10680, Note_off_c, 0, 74, 64
2, 10680, Note_on_c, 0, 76, 92
2, 10800, Note_off_c, 0, 76, 64
2, 10800, Note_on_c, 0, 74, 92
2, 10920, Note_off_c, 0, 74, 64
2, 10920, Note_on_c, 0, 72, 92
2, 11040, Note_off_c, 0, 72, 64
2, 11040, Note_on_c, 0, 74, 92
2, 11160, Note_off_c, 0, 74, 64
2, 11160, Note_on_c, 0, 76, 92
2, 11280, Note_off_c, 0, 76, 64
2, 11280, Note_on_c, 0, 78, 92
2, 11400, Note_off_c, 0, 78, 64
2, 11400, Note_on_c, 0, 80, 92
2, 11520, Note_off_c, 0, 80, 64
2, 11520, Note_on_c, 0, 81, 92
2, 11760, Note_off_c, 0, 81, 64
2, 11760, Note_on_c, 0, 76, 92
2, 12000, Note_off_c, 0, 76, 64
2, 12000, Note_on_c, 0, 69, 92
2, 12240, Note_off_c, 0, 69, 64
2, 12240, Note_on_c, 0, 72, 92
2, 12600, Note_off_c, 0, 72, 64
2, 12600, Note_on_c, 0, 74, 92
2, 12720, Note_off_c, 0, 74, 64
2, 12720, Note_on_c, 0, 72, 92
2, 12840, Note_off_c, 0, 72, 64
2, 12840, Note_on_c, 0, 71, 92
2, 12960, Note_off_c, 0, 71, 64
2, 12960, Note_on_c, 0, 72, 92
2, 13080, Note_off_c, 0, 72, 64
2, 13080, Note_on_c, 0, 74, 92
2, 13200, Note_off_c, 0, 74, 64
2, 13200, Note_on_c, 0, 76, 92
2, 13320, Note_off_c, 0, 76, 64
2, 13320, Note_on_c, 0, 78, 92
2, 13440, Note_off_c, 0, 78, 64
2, 13440, Note_on_c, 0, 79, 92
2, 13680, Note_off_c, 0, 79, 64
2, 13680, Note_on_c, 0, 74, 92
2, 13920, Note_off_c, 0, 74, 64
2, 13920, Note_on_c, 0, 67, 92
2, 14160, Note_off_c, 0, 67, 64
2, 14160, Note_on_c, 0, 71, 92
2, 14520, Note_off_c, 0, 71, 64
2, 14520, Note_on_c, 0, 76, 92
2, 14640, Note_off_c, 0, 76, 64
2, 14640, Note_on_c, 0, 74, 92
2, 14760, Note_off_c, 0, 74, 64
2, 14760, Note_on_c, 0, 76, 92
2, 14880, Note_off_c, 0, 76, 64
2, 14880, Note_on_c, 0, 69, 92
2, 14940, Note_off_c, 0, 69, 64
2, 14940, Note_on_c, 0, 71, 92
2, 15000, Note_off_c, 0, 71, 64
2, 15000, Note_on_c, 0, 69, 92
2, 15840, Note_off_c, 0, 69, 64
2, 15840, Note_on_c, 0, 71, 92
2, 15900, Note_off_c, 0, 71, 64
2, 15900, Note_on_c, 0, 72, 92
2, 15960, Note_off_c, 0, 72, 64
2, 15960, Note_on_c, 0, 71, 92
2, 16800, Note_off_c, 0, 71, 64
2, 16800, Note_on_c, 0, 72, 92
2, 16860, Note_off_c, 0, 72, 64
2, 16860, Note_on_c, 0, 74, 92
2, 16920, Note_off_c, 0, 74, 64
2, 16920, Note_on_c, 0, 72, 92
2, 17400, Note_off_c, 0, 72, 64
2, 17400, Note_on_c, 0, 71, 92
2, 17520, Note_off_c, 0, 71, 64
2, 17520, Note_on_c, 0, 72, 92
2, 17640, Note_off_c, 0, 72, 64
2, 17640, Note_on_c, 0, 76, 92
2, 17760, Note_off_c, 0, 76, 64
2, 17760, Note_on_c, 0, 74, 92
2, 17880, Note_off_c, 0, 74, 64
2, 17880, Note_on_c, 0, 72, 92
2, 18000, Note_off_c, 0, 72, 64
2, 18000, Note_on_c, 0, 74, 92
2, 18120, Note_off_c, 0, 74, 64
2, 18120, Note_on_c, 0, 76, 92
2, 18240, Note_off_c, 0, 76, 64
2, 18240, Note_on_c, 0, 74, 92
2, 18360, Note_off_c, 0, 74, 64
2, 18360, Note_on_c, 0, 72, 92
2, 18480, Note_off_c, 0, 72, 64
2, 18480, Note_on_c, 0, 74, 92
2, 18600, Note_off_c, 0, 74, 64
2, 18600, Note_on_c, 0, 77, 92
2, 18720, Note_off_c, 0, 77, 64
2, 18720, Note_on_c, 0, 76, 92
2, 18840, Note_off_c, 0, 76, 64
2, 18840, Note_on_c, 0, 74, 92
2, 18960, Note_off_c, 0, 74, 64
2, 18960, Note_on_c, 0, 76, 92
2, 19080, Note_off_c, 0, 76, 64
2, 19080, Note_on_c, 0, 77, 92
2, 19200, Note_off_c, 0, 77, 64
2, 19200, Note_on_c, 0, 76, 92
2, 19440, Note_off_c, 0, 76, 64
2, 19440, Note_on_c, 0, 77, 92
2, 19520, Note_off_c, 0, 77, 64
2, 19520, Note_on_c, 0, 76, 92
2, 19600, Note_off_c, 0, 76, 64
2, 19600, Note_on_c, 0, 74, 92
2, 19680, Note_off_c, 0, 74, 64
2, 19680, Note_on_c, 0, 76, 92
2, 19920, Note_off_c, 0, 76, 64
2, 19920, Note_on_c, 0, 74, 92
2, 20000, Note_off_c, 0, 74, 64
2, 20000, Note_on_c, 0, 72, 92
2, 20080, Note_off_c, 0, 72, 64
2, 20080, Note_on_c, 0, 71, 92
2, 20160, Note_off_c, 0, 71, 64
2, 20160, Note_on_c, 0, 72, 92
2, 20400, Note_off_c, 0, 72, 64
2, 20400, Note_on_c, 0, 74, 92
2, 20640, Note_off_c, 0, 74, 64
2, 20640, Note_on_c, 0, 72, 92
2, 20880, Note_off_c, 0, 72, 64
2, 20880, Note_on_c, 0, 71, 92
2, 21120, Note_off_c, 0, 71, 64
2, 21120, Note_on_c, 0, 69, 92
2, 21240, Note_off_c, 0, 69, 64
2, 21240, Note_on_c, 0, 72, 92
2, 21360, Note_off_c, 0, 72, 64
2, 21360, Note_on_c, 0, 77, 92
2, 21480, Note_off_c, 0, 77, 64
2, 21480, Note_on_c, 0, 71, 92
2, 21600, Note_off_c, 0, 71, 64
2, 21600, Note_on_c, 0, 74, 92
2, 21720, Note_off_c, 0, 74, 64
2, 21720, Note_on_c, 0, 72, 92
2, 21840, Note_off_c, 0, 72, 64
2, 21840, Note_on_c, 0, 71, 92
2, 21960, Note_off_c, 0, 71, 64
2, 21960, Note_on_c, 0, 69, 92
2, 22080, Note_off_c, 0, 69, 64
2, 22080, Note_on_c, 0, 69, 92
2, 22380, Note_off_c, 0, 69, 64
2, 22380, Note_on_c, 0, 71, 92
2, 22440, Note_off_c, 0, 71, 64
2, 22440, Note_on_c, 0, 69, 92
2, 22500, Note_off_c, 0, 69, 64
2, 22500, Note_on_c, 0, 68, 92
2, 22560, Note_off_c, 0, 68, 64
2, 22560, Note_on_c, 0, 69, 92
2, 22680, Note_off_c, 0, 69, 64
2, 22680, Note_on_c, 0, 71, 92
2, 22800, Note_off_c, 0, 71, 64
2, 22800, Note_on_c, 0, 72, 92
2, 22920, Note_off_c, 0, 72, 64
2, 22920, Note_on_c, 0, 74, 92
2, 22980, Note_off_c, 0, 74, 64
2, 22980, Note_on_c, 0, 76, 92
2, 23040, Note_off_c, 0, 76, 64
2, 23040, Note_on_c, 0, 77, 92
2, 24300, Note_off_c, 0, 77, 64
2, 24300, Note_on_c, 0, 69, 92
2, 24360, Note_off_c, 0, 69, 64
2, 24360, Note_on_c, 0, 67, 92
2, 24420, Note_off_c, 0, 67, 64
2, 24420, Note_on_c, 0, 65, 92
2, 24480, Note_off_c, 0, 65, 64
2, 24480, Note_on_c, 0, 67, 92
2, 24600, Note_off_c, 0, 67, 64
2, 24600, Note_on_c, 0, 69, 92
2, 24720, Note_off_c, 0, 69, 64
2, 24720, Note_on_c, 0, 70, 92
2, 24840, Note_off_c, 0, 70, 64
2, 24840, Note_on_c, 0, 72, 92
2, 24900, Note_off_c, 0, 72, 64
2, 24900, Note_on_c, 0, 74, 92
2, 24960, Note_off_c, 0, 74, 64
2, 24960, Note_on_c, 0, 76, 92
2, 26040, Note_off_c, 0, 76, 64
2, 26040, Note_on_c, 0, 81, 92
2, 26240, Note_off_c, 0, 81, 64
2, 26240, Note_on_c, 0, 79, 92
2, 26320, Note_off_c, 0, 79, 64
2, 26320, Note_on_c, 0, 77, 92
2, 26480, Note_off_c, 0, 77, 64
2, 26480, Note_on_c, 0, 76, 92
2, 26560, Note_off_c, 0, 76, 64
2, 26560, Note_on_c, 0, 74, 92
2, 26720, Note_off_c, 0, 74, 64
2, 26720, Note_on_c, 0, 73, 92
2, 26800, Note_off_c, 0, 73, 64
2, 26800, Note_on_c, 0, 74, 92
2, 26880, Note_off_c, 0, 74, 64
2, 26880, Note_on_c, 0, 74, 92
2, 27240, Note_off_c, 0, 74, 64
2, 27240, Note_on_c, 0, 72, 92
2, 27300, Note_off_c, 0, 72, 64
2, 27300, Note_on_c, 0, 70, 92
2, 27360, Note_off_c, 0, 70, 64
2, 27360, Note_on_c, 0, 72, 92
2, 27720, Note_off_c, 0, 72, 64
2, 27720, Note_on_c, 0, 70, 92
2, 27780, Note_off_c, 0, 70, 64
2, 27780, Note_on_c, 0, 69, 92
2, 27840, Note_off_c, 0, 69, 64
2, 27840, Note_on_c, 0, 70, 92
2, 28200, Note_off_c, 0, 70, 64
2, 28200, Note_on_c, 0, 69, 92
2, 28260, Note_off_c, 0, 69, 64
2, 28260, Note_on_c, 0, 67, 92
2, 28320, Note_off_c, 0, 67, 64
2, 28320, Note_on_c, 0, 69, 92
2, 28680, Note_off_c, 0, 69, 64
2, 28680, Note_on_c, 0, 67, 92
2, 28740, Note_off_c, 0, 67, 64
2, 28740, Note_on_c, 0, 65, 92
2, 28800, Note_off_c, 0, 65, 64
2, 28800, Note_on_c, 0, 67, 92
2, 28920, Note_off_c, 0, 67, 64
2, 28920, Note_on_c, 0, 79, 92
2, 29160, Note_off_c, 0, 79, 64
2, 29160, Note_on_c, 0, 70, 92
2, 29400, Note_off_c, 0, 70, 64
2, 29400, Note_on_c, 0, 69, 92
2, 29640, Note_off_c, 0, 69, 64
2, 29640, Note_on_c, 0, 68, 92
2, 29760, Note_off_c, 0, 68, 64
2, 29760, Note_on_c, 0, 69, 92
2, 29880, Note_off_c, 0, 69, 64
2, 29880, Note_on_c, 0, 79, 92
2, 30120, Note_off_c, 0, 79, 64
2, 30120, Note_on_c, 0, 77, 92
2, 30360, Note_off_c, 0, 77, 64
2, 30360, Note_on_c, 0, 76, 92
2, 30600, Note_off_c, 0, 76, 64
2, 30600, Note_on_c, 0, 77, 92
2, 30720, Note_off_c, 0, 77, 64
2, 30720, Note_on_c, 0, 77, 92
2, 30840, Note_off_c, 0, 77, 64
2, 30840, Note_on_c, 0, 76, 92
2, 30960, Note_off_c, 0, 76, 64
2, 30960, Note_on_c, 0, 74, 92
2, 31200, Note_off_c, 0, 74, 64
2, 31200, Note_on_c, 0, 76, 92
2, 31260, Note_off_c, 0, 76, 64
2, 31260, Note_on_c, 0, 74, 92
2, 31320, Note_off_c, 0, 74, 64
2, 31320, Note_on_c, 0, 73, 92
2, 31440, Note_off_c, 0, 73, 64
2, 31440, Note_on_c, 0, 74, 92
2, 31800, Note_off_c, 0, 74, 64
2, 31800, Note_on_c, 0, 76, 92
2, 31920, Note_off_c, 0, 76, 64
2, 31920, Note_on_c, 0, 74, 92
2, 32040, Note_off_c, 0, 74, 64
2, 32040, Note_on_c, 0, 73, 92
2, 32160, Note_off_c, 0, 73, 64
2, 32160, Note_on_c, 0, 74, 92
2, 32280, Note_off_c, 0, 74, 64
2, 32280, Note_on_c, 0, 76, 92
2, 32400, Note_off_c, 0, 76, 64
2, 32400, Note_on_c, 0, 77, 92
2, 32520, Note_off_c, 0, 77, 64
2, 32520, Note_on_c, 0, 79, 92
2, 32640, Note_off_c, 0, 79, 64
2, 32640, Note_on_c, 0, 81, 92
2, 32880, Note_off_c, 0, 81, 64
2, 32880, Note_on_c, 0, 82, 92
2, 33000, Note_off_c, 0, 82, 64
2, 33000, Note_on_c, 0, 81, 92
2, 33120, Note_off_c, 0, 81, 64
2, 33120, Note_on_c, 0, 79, 92
2, 33240, Note_off_c, 0, 79, 64
2, 33240, Note_on_c, 0, 77, 92
2, 33360, Note_off_c, 0, 77, 64
2, 33360, Note_on_c, 0, 76, 92
2, 33480, Note_off_c, 0, 76, 64
2, 33480, Note_on_c, 0, 74, 92
2, 33600, Note_off_c, 0, 74, 64
2, 33600, Note_on_c, 0, 73, 92
2, 33840, Note_off_c, 0, 73, 64
2, 33840, Note_on_c, 0, 76, 92
2, 34080, Note_off_c, 0, 76, 64
2, 34080, Note_on_c, 0, 69, 92
2, 34320, Note_off_c, 0, 69, 64
2, 34320, Note_on_c, 0, 79, 92
2, 34680, Note_off_c, 0, 79, 64
2, 34680, Note_on_c, 0, 77, 92
2, 34800, Note_off_c, 0, 77, 64
2, 34800, Note_on_c, 0, 76, 92
2, 34920, Note_off_c, 0, 76, 64
2, 34920, Note_on_c, 0, 74, 92
2, 35040, Note_off_c, 0, 74, 64
2, 35040, Note_on_c, 0, 77, 92
2, 35160, Note_off_c, 0, 77, 64
2, 35160, Note_on_c, 0, 76, 92
2, 35280, Note_off_c, 0, 76, 64
2, 35280, Note_on_c, 0, 74, 92
2, 35400, Note_off_c, 0, 74, 64
2, 35400, Note_on_c, 0, 72, 92
2, 35520, Note_off_c, 0, 72, 64
2, 35520, Note_on_c, 0, 71, 92
2, 35760, Note_off_c, 0, 71, 64
2, 35760, Note_on_c, 0, 74, 92
2, 36000, Note_off_c, 0, 74, 64
2, 36000, Note_on_c, 0, 67, 92
2, 36240, Note_off_c, 0, 67, 64
2, 36240, Note_on_c, 0, 77, 92
2, 36600, Note_off_c, 0, 77, 64
2, 36600, Note_on_c, 0, 76, 92
2, 36720, Note_off_c, 0, 76, 64
2, 36720, Note_on_c, 0, 74, 92
2, 36840, Note_off_c, 0, 74, 64
2, 36840, Note_on_c, 0, 72, 92
2, 36960, Note_off_c, 0, 72, 64
2, 36960, Note_on_c, 0, 76, 92
2, 37080, Note_off_c, 0, 76, 64
2, 37080, Note_on_c, 0, 74, 92
2, 37200, Note_off_c, 0, 74, 64
2, 37200, Note_on_c, 0, 72, 92
2, 37320, Note_off_c, 0, 72, 64
2, 37320, Note_on_c, 0, 71, 92
2, 37440, Note_off_c, 0, 71, 64
2, 37440, Note_on_c, 0, 69, 92
2, 38040, Note_off_c, 0, 69, 64
2, 38040, Note_on_c, 0, 67, 92
2, 38160, Note_off_c, 0, 67, 64
2, 38160, Note_on_c, 0, 69, 92
2, 38280, Note_off_c, 0, 69, 64
2, 38280, Note_on_c, 0, 72, 92
2, 38400, Note_off_c, 0, 72, 64
2, 38400, Note_on_c, 0, 71, 92
2, 38520, Note_off_c, 0, 71, 64
2, 38520, Note_on_c, 0, 69, 92
2, 38640, Note_off_c, 0, 69, 64
2, 38640, Note_on_c, 0, 71, 92
2, 38760, Note_off_c, 0, 71, 64
2, 38760, Note_on_c, 0, 72, 92
2, 38880, Note_off_c, 0, 72, 64
2, 38880, Note_on_c, 0, 71, 92
2, 39000, Note_off_c, 0, 71, 64
2, 39000, Note_on_c, 0, 69, 92
2, 39120, Note_off_c, 0, 69, 64
2, 39120, Note_on_c, 0, 71, 92
2, 39240, Note_off_c, 0, 71, 64
2, 39240, Note_on_c, 0, 74, 92
2, 39360, Note_off_c, 0, 74, 64
2, 39360, Note_on_c, 0, 73, 92
2, 39480, Note_off_c, 0, 73, 64
2, 39480, Note_on_c, 0, 71, 92
2, 39600, Note_off_c, 0, 71, 64
2, 39600, Note_on_c, 0, 73, 92
2, 39720, Note_off_c, 0, 73, 64
2, 39720, Note_on_c, 0, 74, 92
2, 39840, Note_off_c, 0, 74, 64
2, 39840, Note_on_c, 0, 73, 92
2, 39960, Note_off_c, 0, 73, 64
2, 39960, Note_on_c, 0, 71, 92
2, 40080, Note_off_c, 0, 71, 64
2, 40080, Note_on_c, 0, 73, 92
2, 40200, Note_off_c, 0, 73, 64
2, 40200, Note_on_c, 0, 76, 92
2, 40320, Note_off_c, 0, 76, 64
2, 40320, Note_on_c, 0, 74, 92
2, 40380, Note_off_c, 0, 74, 64
2, 40380, Note_on_c, 0, 76, 92
2, 40440, Note_off_c, 0, 76, 64
2, 40440, Note_on_c, 0, 74, 92
2, 41280, Note_off_c, 0, 74, 64
2, 41280, Note_on_c, 0, 76, 92
2, 41340, Note_off_c, 0, 76, 64
2, 41340, Note_on_c, 0, 77, 92
2, 41400, Note_off_c, 0, 77, 64
2, 41400, Note_on_c, 0, 76, 92
2, 42240, Note_off_c, 0, 76, 64
2, 42240, Note_on_c, 0, 77, 92
2, 42480, Note_off_c, 0, 77, 64
2, 42480, Note_on_c, 0, 79, 92
2, 42560, Note_off_c, 0, 79, 64
2, 42560, Note_on_c, 0, 77, 92
2, 42640, Note_off_c, 0, 77, 64
2, 42640, Note_on_c, 0, 76, 92
2, 42720, Note_off_c, 0, 76, 64
2, 42720, Note_on_c, 0, 77, 92
2, 42960, Note_off_c, 0, 77, 64
2, 42960, Note_on_c, 0, 76, 92
2, 43040, Note_off_c, 0, 76, 64
2, 43040, Note_on_c, 0, 74, 92
2, 43120, Note_off_c, 0, 74, 64
2, 43120, Note_on_c, 0, 73, 92
2, 43200, Note_off_c, 0, 73, 64
2, 43200, Note_on_c, 0, 74, 92
2, 43440, Note_off_c, 0, 74, 64
2, 43440, Note_on_c, 0, 70, 92
2, 43680, Note_off_c, 0, 70, 64
2, 43680, Note_on_c, 0, 69, 92
2, 43920, Note_off_c, 0, 69, 64
2, 43920, Note_on_c, 0, 67, 92
2, 44160, Note_off_c, 0, 67, 64
2, 44160, Note_on_c, 0, 65, 92
2, 44400, Note_off_c, 0, 65, 64
2, 44400, Note_on_c, 0, 74, 92
2, 44640, Note_off_c, 0, 74, 64
2, 44640, Note_on_c, 0, 64, 92
2, 44880, Note_off_c, 0, 64, 64
2, 44880, Note_on_c, 0, 73, 92
2, 45120, Note_off_c, 0, 73, 64
2, 45120, Note_on_c, 0, 74, 92
2, 45600, Note_off_c, 0, 74, 64
2, 45840, Note_on_c, 0, 69, 92
2, 45960, Note_off_c, 0, 69, 64
2, 45960, Note_on_c, 0, 70, 92
2, 46080, Note_off_c, 0, 70, 64
2, 46080, Note_on_c, 0, 72, 92
2, 46320, Note_off_c, 0, 72, 64
2, 46320, Note_on_c, 0, 74, 92
2, 46440, Note_off_c, 0, 74, 64
2, 46440, Note_on_c, 0, 76, 92
2, 46560, Note_off_c, 0, 76, 64
2, 46560, Note_on_c, 0, 77, 92
2, 46800, Note_off_c, 0, 77, 64
2, 46800, Note_on_c, 0, 76, 92
2, 46920, Note_off_c, 0, 76, 64
2, 46920, Note_on_c, 0, 74, 92
2, 47040, Note_off_c, 0, 74, 64
2, 47040, Note_on_c, 0, 72, 92
2, 47160, Note_off_c, 0, 72, 64
2, 47160, Note_on_c, 0, 70, 92
2, 47280, Note_off_c, 0, 70, 64
2, 47280, Note_on_c, 0, 69, 92
2, 47400, Note_off_c, 0, 69, 64
2, 47400, Note_on_c, 0, 67, 92
2, 47520, Note_off_c, 0, 67, 64
2, 47520, Note_on_c, 0, 65, 92
2, 47760, Note_off_c, 0, 65, 64
2, 47760, Note_on_c, 0, 69, 92
2, 48000, Note_off_c, 0, 69, 64
2, 48000, Note_on_c, 0, 69, 92
2, 48060, Note_off_c, 0, 69, 64
2, 48060, Note_on_c, 0, 70, 92
2, 48120, Note_off_c, 0, 70, 64
2, 48120, Note_on_c, 0, 69, 92
2, 48240, Note_off_c, 0, 69, 64
2, 48240, Note_on_c, 0, 67, 92
2, 48480, Note_off_c, 0, 67, 64
2, 48720, Note_on_c, 0, 77, 92
2, 48960, Note_off_c, 0, 77, 64
2, 48960, Note_on_c, 0, 77, 92
2, 49020, Note_off_c, 0, 77, 64
2, 49020, Note_on_c, 0, 79, 92
2, 49080, Note_off_c, 0, 79, 64
2, 49080, Note_on_c, 0, 77, 92
2, 49200, Note_off_c, 0, 77, 64
2, 49200, Note_on_c, 0, 76, 92
2, 49440, Note_off_c, 0, 76, 64
2, 51600, Note_on_c, 0, 79, 92
2, 52080, Note_off_c, 0, 79, 64
2, 52080, Note_on_c, 0, 78, 92
2, 52160, Note_off_c, 0, 78, 64
2, 52160, Note_on_c, 0, 76, 92
2, 52240, Note_off_c, 0, 76, 64
2, 52240, Note_on_c, 0, 74, 92
2, 52320, Note_off_c, 0, 74, 64
2, 52320, Note_on_c, 0, 84, 92
2, 52560, Note_off_c, 0, 84, 64
2, 52560, Note_on_c, 0, 82, 92
2, 52800, Note_off_c, 0, 82, 64
2, 52800, Note_on_c, 0, 82, 92
2, 52860, Note_off_c, 0, 82, 64
2, 52860, Note_on_c, 0, 84, 92
2, 52920, Note_off_c, 0, 84, 64
2, 52920, Note_on_c, 0, 82, 92
2, 53040, Note_off_c, 0, 82, 64
2, 53040, Note_on_c, 0, 81, 92
2, 53280, Note_off_c, 0, 81, 64
2, 53520, Note_on_c, 0, 81, 92
2, 53760, Note_off_c, 0, 81, 64
2, 53760, Note_on_c, 0, 82, 92
2, 53790, Note_off_c, 0, 82, 64
2, 53790, Note_on_c, 0, 84, 92
2, 53820, Note_off_c, 0, 84, 64
2, 53820, Note_on_c, 0, 82, 92
2, 53880, Note_off_c, 0, 82, 64
2, 53880, Note_on_c, 0, 81, 92
2, 54000, Note_off_c, 0, 81, 64
2, 54000, Note_on_c, 0, 82, 92
2, 54360, Note_off_c, 0, 82, 64
2, 54360, Note_on_c, 0, 81, 92
2, 54480, Note_off_c, 0, 81, 64
2, 54480, Note_on_c, 0, 82, 92
2, 54720, Note_off_c, 0, 82, 64
2, 54720, Note_on_c, 0, 82, 92
2, 54960, Note_off_c, 0, 82, 64
2, 54960, Note_on_c, 0, 72, 92
2, 55200, Note_off_c, 0, 72, 64
2, 55440, Note_on_c, 0, 82, 92
2, 55680, Note_off_c, 0, 82, 64
2, 55680, Note_on_c, 0, 81, 92
2, 55710, Note_off_c, 0, 81, 64
2, 55710, Note_on_c, 0, 82, 92
2, 55740, Note_off_c, 0, 82, 64
2, 55740, Note_on_c, 0, 81, 92
2, 55800, Note_off_c, 0, 81, 64
2, 55800, Note_on_c, 0, 79, 92
2, 55920, Note_off_c, 0, 79, 64
2, 55920, Note_on_c, 0, 81, 92
2, 56280, Note_off_c, 0, 81, 64
2, 56280, Note_on_c, 0, 79, 92
2, 56400, Note_off_c, 0, 79, 64
2, 56400, Note_on_c, 0, 80, 92
2, 56640, Note_off_c, 0, 80, 64
2, 56640, Note_on_c, 0, 80, 92
2, 56880, Note_off_c, 0, 80, 64
2, 56880, Note_on_c, 0, 70, 92
2, 57120, Note_off_c, 0, 70, 64
2, 57360, Note_on_c, 0, 80, 92
2, 57600, Note_off_c, 0, 80, 64
2, 57600, Note_on_c, 0, 79, 92
2, 57960, Note_off_c, 0, 79, 64
2, 57960, Note_on_c, 0, 77, 92
2, 58020, Note_off_c, 0, 77, 64
2, 58020, Note_on_c, 0, 75, 92
2, 58080, Note_off_c, 0, 75, 64
2, 58080, Note_on_c, 0, 77, 92
2, 58440, Note_off_c, 0, 77, 64
2, 58440, Note_on_c, 0, 75, 92
2, 58500, Note_off_c, 0, 75, 64
2, 58500, Note_on_c, 0, 74, 92
2, 58560, Note_off_c, 0, 74, 64
2, 58560, Note_on_c, 0, 75, 92
2, 58920, Note_off_c, 0, 75, 64
2, 58920, Note_on_c, 0, 74, 92
2, 58980, Note_off_c, 0, 74, 64
2, 58980, Note_on_c, 0, 72, 92
2, 59040, Note_off_c, 0, 72, 64
2, 59040, Note_on_c, 0, 74, 92
2, 59400, Note_off_c, 0, 74, 64
2, 59400, Note_on_c, 0, 72, 92
2, 59460, Note_off_c, 0, 72, 64
2, 59460, Note_on_c, 0, 70, 92
2, 59520, Note_off_c, 0, 70, 64
2, 59520, Note_on_c, 0, 72, 92
2, 59640, Note_off_c, 0, 72, 64
2, 59640, Note_on_c, 0, 84, 92
2, 59880, Note_off_c, 0, 84, 64
2, 59880, Note_on_c, 0, 75, 92
2, 60120, Note_off_c, 0, 75, 64
2, 60120, Note_on_c, 0, 74, 92
2, 60360, Note_off_c, 0, 74, 64
2, 60360, Note_on_c, 0, 73, 92
2, 60480, Note_off_c, 0, 73, 64
2, 60480, Note_on_c, 0, 74, 92
2, 60600, Note_off_c, 0, 74, 64
2, 60600, Note_on_c, 0, 84, 92
2, 60840, Note_off_c, 0, 84, 64
2, 60840, Note_on_c, 0, 82, 92
2, 61080, Note_off_c, 0, 82, 64
2, 61080, Note_on_c, 0, 81, 92
2, 61320, Note_off_c, 0, 81, 64
2, 61320, Note_on_c, 0, 82, 92
2, 61440, Note_off_c, 0, 82, 64
2, 61440, Note_on_c, 0, 82, 92
2, 61680, Note_off_c, 0, 82, 64
2, 61680, Note_on_c, 0, 84, 92
2, 61760, Note_off_c, 0, 84, 64
2, 61760, Note_on_c, 0, 82, 92
2, 61840, Note_off_c, 0, 82, 64
2, 61840, Note_on_c, 0, 81, 92
2, 61920, Note_off_c, 0, 81, 64
2, 61920, Note_on_c, 0, 82, 92
2, 62160, Note_off_c, 0, 82, 64
2, 62160, Note_on_c, 0, 81, 92
2, 62240, Note_off_c, 0, 81, 64
2, 62240, Note_on_c, 0, 79, 92
2, 62320, Note_off_c, 0, 79, 64
2, 62320, Note_on_c, 0, 78, 92
2, 62400, Note_off_c, 0, 78, 64
2, 62400, Note_on_c, 0, 79, 92
2, 62640, Note_off_c, 0, 79, 64
2, 62640, Note_on_c, 0, 75, 92
2, 62880, Note_off_c, 0, 75, 64
2, 62880, Note_on_c, 0, 74, 92
2, 63120, Note_off_c, 0, 74, 64
2, 63120, Note_on_c, 0, 72, 92
2, 63360, Note_off_c, 0, 72, 64
2, 63360, Note_on_c, 0, 70, 92
2, 63600, Note_off_c, 0, 70, 64
2, 63600, Note_on_c, 0, 79, 92
2, 63840, Note_off_c, 0, 79, 64
2, 63840, Note_on_c, 0, 69, 92
2, 64080, Note_off_c, 0, 69, 64
2, 64080, Note_on_c, 0, 78, 92
2, 64320, Note_off_c, 0, 78, 64
2, 64320, Note_on_c, 0, 79, 92
2, 64560, Note_off_c, 0, 79, 64
2, 65580, Note_on_c, 0, 69, 92
2, 65640, Note_off_c, 0, 69, 64
2, 65640, Note_on_c, 0, 67, 92
2, 65700, Note_off_c, 0, 67, 64
2, 65700, Note_on_c, 0, 66, 92
2, 65760, Note_off_c, 0, 66, 64
2, 65760, Note_on_c, 0, 67, 92
2, 65880, Note_off_c, 0, 67, 64
2, 65880, Note_on_c, 0, 69, 92
2, 66000, Note_off_c, 0, 69, 64
2, 66000, Note_on_c, 0, 70, 92
2, 66120, Note_off_c, 0, 70, 64
2, 66120, Note_on_c, 0, 72, 92
2, 66180, Note_off_c, 0, 72, 64
2, 66180, Note_on_c, 0, 74, 92
2, 66240, Note_off_c, 0, 74, 64
2, 66240, Note_on_c, 0, 75, 92
2, 67500, Note_off_c, 0, 75, 64
2, 67500, Note_on_c, 0, 67, 92
2, 67560, Note_off_c, 0, 67, 64
2, 67560, Note_on_c, 0, 65, 92
2, 67620, Note_off_c, 0, 65, 64
2, 67620, Note_on_c, 0, 64, 92
2, 67680, Note_off_c, 0, 64, 64
2, 67680, Note_on_c, 0, 65, 92
2, 67800, Note_off_c, 0, 65, 64
2, 67800, Note_on_c, 0, 67, 92
2, 67920, Note_off_c, 0, 67, 64
2, 67920, Note_on_c, 0, 69, 92
2, 68040, Note_off_c, 0, 69, 64
2, 68040, Note_on_c, 0, 70, 92
2, 68100, Note_off_c, 0, 70, 64
2, 68100, Note_on_c, 0, 72, 92
2, 68160, Note_off_c, 0, 72, 64
2, 68160, Note_on_c, 0, 74, 92
2, 69240, Note_off_c, 0, 74, 64
2, 69240, Note_on_c, 0, 79, 92
2, 69360, Note_off_c, 0, 79, 64
2, 69360, Note_on_c, 0, 77, 92
2, 69480, Note_off_c, 0, 77, 64
2, 69480, Note_on_c, 0, 79, 92
2, 69600, Note_off_c, 0, 79, 64
2, 69600, Note_on_c, 0, 72, 92
2, 69660, Note_off_c, 0, 72, 64
2, 69660, Note_on_c, 0, 74, 92
2, 69720, Note_off_c, 0, 74, 64
2, 69720, Note_on_c, 0, 72, 92
2, 70560, Note_off_c, 0, 72, 64
2, 70560, Note_on_c, 0, 74, 92
2, 70620, Note_off_c, 0, 74, 64
2, 70620, Note_on_c, 0, 76, 92
2, 70680, Note_off_c, 0, 76, 64
2, 70680, Note_on_c, 0, 74, 92
2, 71160, Note_off_c, 0, 74, 64
2, 71160, Note_on_c, 0, 72, 92
2, 71280, Note_off_c, 0, 72, 64
2, 71280, Note_on_c, 0, 74, 92
2, 71400, Note_off_c, 0, 74, 64
2, 71400, Note_on_c, 0, 77, 92
2, 71520, Note_off_c, 0, 77, 64
2, 71520, Note_on_c, 0, 75, 92
2, 71640, Note_off_c, 0, 75, 64
2, 71640, Note_on_c, 0, 74, 92
2, 71760, Note_off_c, 0, 74, 64
2, 71760, Note_on_c, 0, 75, 92
2, 71880, Note_off_c, 0, 75, 64
2, 71880, Note_on_c, 0, 77, 92
2, 72000, Note_off_c, 0, 77, 64
2, 72000, Note_on_c, 0, 75, 92
2, 72120, Note_off_c, 0, 75, 64
2, 72120, Note_on_c, 0, 74, 92
2, 72240, Note_off_c, 0, 74, 64
2, 72240, Note_on_c, 0, 75, 92
2, 72360, Note_off_c, 0, 75, 64
2, 72360, Note_on_c, 0, 79, 92
2, 72480, Note_off_c, 0, 79, 64
2, 72480, Note_on_c, 0, 77, 92
2, 72600, Note_off_c, 0, 77, 64
2, 72600, Note_on_c, 0, 75, 92
2, 72720, Note_off_c, 0, 75, 64
2, 72720, Note_on_c, 0, 77, 92
2, 72840, Note_off_c, 0, 77, 64
2, 72840, Note_on_c, 0, 79, 92
2, 72960, Note_off_c, 0, 79, 64
2, 72960, Note_on_c, 0, 77, 92
2, 73020, Note_off_c, 0, 77, 64
2, 73020, Note_on_c, 0, 79, 92
2, 73080, Note_off_c, 0, 79, 64
2, 73080, Note_on_c, 0, 77, 92
2, 74520, Note_off_c, 0, 77, 64
2, 74520, Note_on_c, 0, 65, 92
2, 74640, Note_off_c, 0, 65, 64
2, 74640, Note_on_c, 0, 70, 92
2, 75120, Note_off_c, 0, 70, 64
2, 75120, Note_on_c, 0, 69, 92
2, 75180, Note_off_c, 0, 69, 64
2, 75180, Note_on_c, 0, 67, 92
2, 75240, Note_off_c, 0, 67, 64
2, 75240, Note_on_c, 0, 65, 92
2, 75360, Note_off_c, 0, 65, 64
2, 75360, Note_on_c, 0, 75, 92
2, 75600, Note_off_c, 0, 75, 64
2, 75600, Note_on_c, 0, 74, 92
2, 75840, Note_off_c, 0, 74, 64
2, 75840, Note_on_c, 0, 74, 92
2, 75900, Note_off_c, 0, 74, 64
2, 75900, Note_on_c, 0, 76, 92
2, 75960, Note_off_c, 0, 76, 64
2, 75960, Note_on_c, 0, 74, 92
2, 76080, Note_off_c, 0, 74, 64
2, 76080, Note_on_c, 0, 72, 92
2, 76440, Note_off_c, 0, 72, 64
2, 76440, Note_on_c, 0, 74, 92
2, 76560, Note_off_c, 0, 74, 64
2, 76560, Note_on_c, 0, 75, 92
2, 76680, Note_off_c, 0, 75, 64
2, 76680, Note_on_c, 0, 77, 92
2, 76800, Note_off_c, 0, 77, 64
2, 76800, Note_on_c, 0, 79, 92
2, 77040, Note_off_c, 0, 79, 64
2, 77040, Note_on_c, 0, 81, 92
2, 77160, Note_off_c, 0, 81, 64
2, 77160, Note_on_c, 0, 83, 92
2, 77280, Note_off_c, 0, 83, 64
2, 77280, Note_on_c, 0, 84, 92
2, 77520, Note_off_c, 0, 84, 64
2, 77520, Note_on_c, 0, 83, 92
2, 77640, Note_off_c, 0, 83, 64
2, 77640, Note_on_c, 0, 81, 92
2, 77760, Note_off_c, 0, 81, 64
2, 77760, Note_on_c, 0, 79, 92
2, 77880, Note_off_c, 0, 79, 64
2, 77880, Note_on_c, 0, 77, 92
2, 78000, Note_off_c, 0, 77, 64
2, 78000, Note_on_c, 0, 75, 92
2, 78120, Note_off_c, 0, 75, 64
2, 78120, Note_on_c, 0, 74, 92
2, 78240, Note_off_c, 0, 74, 64
2, 78240, Note_on_c, 0, 72, 92
2, 78480, Note_off_c, 0, 72, 64
2, 78480, Note_on_c, 0, 75, 92
2, 78720, Note_off_c, 0, 75, 64
2, 78720, Note_on_c, 0, 75, 92
2, 78780, Note_off_c, 0, 75, 64
2, 78780, Note_on_c, 0, 77, 92
2, 78840, Note_off_c, 0, 77, 64
2, 78840, Note_on_c, 0, 75, 92
2, 78960, Note_off_c, 0, 75, 64
2, 78960, Note_on_c, 0, 74, 92
2, 79200, Note_off_c, 0, 74, 64
2, 79440, Note_on_c, 0, 72, 92
2, 79680, Note_off_c, 0, 72, 64
2, 79680, Note_on_c, 0, 72, 92
2, 79740, Note_off_c, 0, 72, 64
2, 79740, Note_on_c, 0, 74, 92
2, 79800, Note_off_c, 0, 74, 64
2, 79800, Note_on_c, 0, 72, 92
2, 79920, Note_off_c, 0, 72, 64
2, 79920, Note_on_c, 0, 71, 92
2, 80160, Note_off_c, 0, 71, 64
2, 80400, Note_on_c, 0, 83, 92
2, 80640, Note_off_c, 0, 83, 64
2, 80640, Note_on_c, 0, 84, 92
2, 80720, Note_off_c, 0, 84, 64
2, 80720, Note_on_c, 0, 79, 92
2, 80800, Note_off_c, 0, 79, 64
2, 80800, Note_on_c, 0, 75, 92
2, 80880, Note_off_c, 0, 75, 64
2, 80880, Note_on_c, 0, 72, 92
2, 80960, Note_off_c, 0, 72, 64
2, 80960, Note_on_c, 0, 75, 92
2, 81040, Note_off_c, 0, 75, 64
2, 81040, Note_on_c, 0, 79, 92
2, 81120, Note_off_c, 0, 79, 64
2, 81120, Note_on_c, 0, 82, 92
2, 81200, Note_off_c, 0, 82, 64
2, 81200, Note_on_c, 0, 79, 92
2, 81280, Note_off_c, 0, 79, 64
2, 81280, Note_on_c, 0, 75, 92
2, 81360, Note_off_c, 0, 75, 64
2, 81360, Note_on_c, 0, 72, 92
2, 81440, Note_off_c, 0, 72, 64
2, 81440, Note_on_c, 0, 75, 92
2, 81520, Note_off_c, 0, 75, 64
2, 81520, Note_on_c, 0, 79, 92
2, 81600, Note_off_c, 0, 79, 64
2, 81600, Note_on_c, 0, 81, 92
2, 81680, Note_off_c, 0, 81, 64
2, 81680, Note_on_c, 0, 77, 92
2, 81760, Note_off_c, 0, 77, 64
2, 81760, Note_on_c, 0, 75, 92
2, 81840, Note_off_c, 0, 75, 64
2, 81840, Note_on_c, 0, 72, 92
2, 81920, Note_off_c, 0, 72, 64
2, 81920, Note_on_c, 0, 75, 92
2, 82000, Note_off_c, 0, 75, 64
2, 82000, Note_on_c, 0, 77, 92
2, 82080, Note_off_c, 0, 77, 64
2, 82080, Note_on_c, 0, 81, 92
2, 82160, Note_off_c, 0, 81, 64
2, 82160, Note_on_c, 0, 77, 92
2, 82240, Note_off_c, 0, 77, 64
2, 82240, Note_on_c, 0, 75, 92
2, 82320, Note_off_c, 0, 75, 64
2, 82320, Note_on_c, 0, 72, 92
2, 82400, Note_off_c, 0, 72, 64
2, 82400, Note_on_c, 0, 75, 92
2, 82480, Note_off_c, 0, 75, 64
2, 82480, Note_on_c, 0, 77, 92
2, 82560, Note_off_c, 0, 77, 64
2, 82560, Note_on_c, 0, 82, 92
2, 82640, Note_off_c, 0, 82, 64
2, 82640, Note_on_c, 0, 77, 92
2, 82720, Note_off_c, 0, 77, 64
2, 82720, Note_on_c, 0, 74, 92
2, 82800, Note_off_c, 0, 74, 64
2, 82800, Note_on_c, 0, 70, 92
2, 82880, Note_off_c, 0, 70, 64
2, 82880, Note_on_c, 0, 74, 92
2, 82960, Note_off_c, 0, 74, 64
2, 82960, Note_on_c, 0, 77, 92
2, 83040, Note_off_c, 0, 77, 64
2, 83040, Note_on_c, 0, 81, 92
2, 83120, Note_off_c, 0, 81, 64
2, 83120, Note_on_c, 0, 77, 92
2, 83200, Note_off_c, 0, 77, 64
2, 83200, Note_on_c, 0, 74, 92
2, 83280, Note_off_c, 0, 74, 64
2, 83280, Note_on_c, 0, 70, 92
2, 83360, Note_off_c, 0, 70, 64
2, 83360, Note_on_c, 0, 74, 92
2, 83440, Note_off_c, 0, 74, 64
2, 83440, Note_on_c, 0, 77, 92
2, 83520, Note_off_c, 0, 77, 64
2, 83520, Note_on_c, 0, 79, 92
2, 83600, Note_off_c, 0, 79, 64
2, 83600, Note_on_c, 0, 76, 92
2, 83680, Note_off_c, 0, 76, 64
2, 83680, Note_on_c, 0, 74, 92
2, 83760, Note_off_c, 0, 74, 64
2, 83760, Note_on_c, 0, 70, 92
2, 83840, Note_off_c, 0, 70, 64
2, 83840, Note_on_c, 0, 74, 92
2, 83920, Note_off_c, 0, 74, 64
2, 83920, Note_on_c, 0, 76, 92
2, 84000, Note_off_c, 0, 76, 64
2, 84000, Note_on_c, 0, 79, 92
2, 84080, Note_off_c, 0, 79, 64
2, 84080, Note_on_c, 0, 76, 92
2, 84160, Note_off_c, 0, 76, 64
2, 84160, Note_on_c, 0, 74, 92
2, 84240, Note_off_c, 0, 74, 64
2, 84240, Note_on_c, 0, 70, 92
2, 84320, Note_off_c, 0, 70, 64
2, 84320, Note_on_c, 0, 74, 92
2, 84400, Note_off_c, 0, 74, 64
2, 84400, Note_on_c, 0, 76, 92
2, 84480, Note_off_c, 0, 76, 64
2, 84480, Note_on_c, 0, 81, 92
2, 84560, Note_off_c, 0, 81, 64
2, 84560, Note_on_c, 0, 76, 92
2, 84640, Note_off_c, 0, 76, 64
2, 84640, Note_on_c, 0, 73, 92
2, 84720, Note_off_c, 0, 73, 64
2, 84720, Note_on_c, 0, 69, 92
2, 84800, Note_off_c, 0, 69, 64
2, 84800, Note_on_c, 0, 73, 92
2, 84880, Note_off_c, 0, 73, 64
2, 84880, Note_on_c, 0, 76, 92
2, 84960, Note_off_c, 0, 76, 64
2, 84960, Note_on_c, 0, 79, 92
2, 85040, Note_off_c, 0, 79, 64
2, 85040, Note_on_c, 0, 76, 92
2, 85120, Note_off_c, 0, 76, 64
2, 85120, Note_on_c, 0, 73, 92
2, 85200, Note_off_c, 0, 73, 64
2, 85200, Note_on_c, 0, 69, 92
2, 85280, Note_off_c, 0, 69, 64
2, 85280, Note_on_c, 0, 73, 92
2, 85360, Note_off_c, 0, 73, 64
2, 85360, Note_on_c, 0, 76, 92
2, 85440, Note_off_c, 0, 76, 64
2, 85440, Note_on_c, 0, 77, 92
2, 85520, Note_off_c, 0, 77, 64
2, 85520, Note_on_c, 0, 76, 92
2, 85600, Note_off_c, 0, 76, 64
2, 85600, Note_on_c, 0, 74, 92
2, 85680, Note_off_c, 0, 74, 64
2, 85680, Note_on_c, 0, 69, 92
2, 85760, Note_off_c, 0, 69, 64
2, 85760, Note_on_c, 0, 74, 92
2, 85840, Note_off_c, 0, 74, 64
2, 85840, Note_on_c, 0, 76, 92
2, 85920, Note_off_c, 0, 76, 64
2, 85920, Note_on_c, 0, 77, 92
2, 86000, Note_off_c, 0, 77, 64
2, 86000, Note_on_c, 0, 76, 92
2, 86080, Note_off_c, 0, 76, 64
2, 86080, Note_on_c, 0, 74, 92
2, 86160, Note_off_c, 0, 74, 64
2, 86160, Note_on_c, 0, 69, 92
2, 86240, Note_off_c, 0, 69, 64
2, 86240, Note_on_c, 0, 74, 92
2, 86320, Note_off_c, 0, 74, 64
2, 86320, Note_on_c, 0, 76, 92
2, 86400, Note_off_c, 0, 76, 64
2, 86400, Note_on_c, 0, 77, 92
2, 86480, Note_off_c, 0, 77, 64
2, 86480, Note_on_c, 0, 74, 92
2, 86560, Note_off_c, 0, 74, 64
2, 86560, Note_on_c, 0, 71, 92
2, 86640, Note_off_c, 0, 71, 64
2, 86640, Note_on_c, 0, 68, 92
2, 86720, Note_off_c, 0, 68, 64
2, 86720, Note_on_c, 0, 71, 92
2, 86800, Note_off_c, 0, 71, 64
2, 86800, Note_on_c, 0, 74, 92
2, 86880, Note_off_c, 0, 74, 64
2, 86880, Note_on_c, 0, 77, 92
2, 86960, Note_off_c, 0, 77, 64
2, 86960, Note_on_c, 0, 76, 92
2, 87040, Note_off_c, 0, 76, 64
2, 87040, Note_on_c, 0, 74, 92
2, 87120, Note_off_c, 0, 74, 64
2, 87120, Note_on_c, 0, 76, 92
2, 87200, Note_off_c, 0, 76, 64
2, 87200, Note_on_c, 0, 74, 92
2, 87280, Note_off_c, 0, 74, 64
2, 87280, Note_on_c, 0, 73, 92
2, 87360, Note_off_c, 0, 73, 64
2, 87360, Note_on_c, 0, 74, 92
2, 87440, Note_off_c, 0, 74, 64
2, 87440, Note_on_c, 0, 73, 92
2, 87520, Note_off_c, 0, 73, 64
2, 87520, Note_on_c, 0, 71, 92
2, 87600, Note_off_c, 0, 71, 64
2, 87600, Note_on_c, 0, 73, 92
2, 87680, Note_off_c, 0, 73, 64
2, 87680, Note_on_c, 0, 74, 92
2, 87760, Note_off_c, 0, 74, 64
2, 87760, Note_on_c, 0, 76, 92
2, 87840, Note_off_c, 0, 76, 64
2, 87840, Note_on_c, 0, 69, 92
2, 88080, Note_off_c, 0, 69, 64
2, 88080, Note_on_c, 0, 79, 92
2, 88440, Note_off_c, 0, 79, 64
2, 88440, Note_on_c, 0, 77, 92
2, 88560, Note_off_c, 0, 77, 64
2, 88560, Note_on_c, 0, 76, 92
2, 88680, Note_off_c, 0, 76, 64
2, 88680, Note_on_c, 0, 74, 92
2, 88800, Note_off_c, 0, 74, 64
2, 88800, Note_on_c, 0, 77, 92
2, 88920, Note_off_c, 0, 77, 64
2, 88920, Note_on_c, 0, 76, 92
2, 89040, Note_off_c, 0, 76, 64
2, 89040, Note_on_c, 0, 74, 92
2, 89160, Note_off_c, 0, 74, 64
2, 89160, Note_on_c, 0, 72, 92
2, 89280, Note_off_c, 0, 72, 64
2, 89280, Note_on_c, 0, 71, 92
2, 89520, Note_off_c, 0, 71, 64
2, 89520, Note_on_c, 0, 74, 92
2, 89760, Note_off_c, 0, 74, 64
2, 89760, Note_on_c, 0, 67, 92
2, 90000, Note_off_c, 0, 67, 64
2, 90000, Note_on_c, 0, 77, 92
2, 90360, Note_off_c, 0, 77, 64
2, 90360, Note_on_c, 0, 76, 92
2, 90480, Note_off_c, 0, 76, 64
2, 90480, Note_on_c, 0, 74, 92
2, 90600, Note_off_c, 0, 74, 64
2, 90600, Note_on_c, 0, 72, 92
2, 90720, Note_off_c, 0, 72, 64
2, 90720, Note_on_c, 0, 76, 92
2, 90840, Note_off_c, 0, 76, 64
2, 90840, Note_on_c, 0, 74, 92
2, 90960, Note_off_c, 0, 74, 64
2, 90960, Note_on_c, 0, 72, 92
2, 91080, Note_off_c, 0, 72, 64
2, 91080, Note_on_c, 0, 70, 92
2, 91200, Note_off_c, 0, 70, 64
2, 91200, Note_on_c, 0, 69, 92
2, 91440, Note_off_c, 0, 69, 64
2, 91440, Note_on_c, 0, 72, 92
2, 91680, Note_off_c, 0, 72, 64
2, 91680, Note_on_c, 0, 65, 92
2, 91920, Note_off_c, 0, 65, 64
2, 91920, Note_on_c, 0, 75, 92
2, 92160, Note_off_c, 0, 75, 64
2, 92160, Note_on_c, 0, 74, 92
2, 92280, Note_off_c, 0, 74, 64
2, 92280, Note_on_c, 0, 72, 92
2, 92400, Note_off_c, 0, 72, 64
2, 92400, Note_on_c, 0, 74, 92
2, 92520, Note_off_c, 0, 74, 64
2, 92520, Note_on_c, 0, 75, 92
2, 92640, Note_off_c, 0, 75, 64
2, 92640, Note_on_c, 0, 74, 92
2, 92760, Note_off_c, 0, 74, 64
2, 92760, Note_on_c, 0, 72, 92
2, 92880, Note_off_c, 0, 72, 64
2, 92880, Note_on_c, 0, 74, 92
2, 93000, Note_off_c, 0, 74, 64
2, 93000, Note_on_c, 0, 77, 92
2, 93120, Note_off_c, 0, 77, 64
2, 93120, Note_on_c, 0, 76, 92
2, 93240, Note_off_c, 0, 76, 64
2, 93240, Note_on_c, 0, 74, 92
2, 93360, Note_off_c, 0, 74, 64
2, 93360, Note_on_c, 0, 76, 92
2, 93480, Note_off_c, 0, 76, 64
2, 93480, Note_on_c, 0, 77, 92
2, 93600, Note_off_c, 0, 77, 64
2, 93600, Note_on_c, 0, 76, 92
2, 93720, Note_off_c, 0, 76, 64
2, 93720, Note_on_c, 0, 74, 92
2, 93840, Note_off_c, 0, 74, 64
2, 93840, Note_on_c, 0, 76, 92
2, 93960, Note_off_c, 0, 76, 64
2, 93960, Note_on_c, 0, 79, 92
2, 94080, Note_off_c, 0, 79, 64
2, 94080, Note_on_c, 0, 77, 92
2, 94140, Note_off_c, 0, 77, 64
2, 94140, Note_on_c, 0, 79, 92
2, 94200, Note_off_c, 0, 79, 64
2, 94200, Note_on_c, 0, 77, 92
2, 95040, Note_off_c, 0, 77, 64
2, 95040, Note_on_c, 0, 79, 92
2, 95100, Note_off_c, 0, 79, 64
2, 95100, Note_on_c, 0, 81, 92
2, 95160, Note_off_c, 0, 81, 64
2, 95160, Note_on_c, 0, 79, 92
2, 96000, Note_off_c, 0, 79, 64
2, 96000, Note_on_c, 0, 81, 92
2, 96240, Note_off_c, 0, 81, 64
2, 96240, Note_on_c, 0, 74, 92
2, 96320, Note_off_c, 0, 74, 64
2, 96320, Note_on_c, 0, 72, 92
2, 96400, Note_off_c, 0, 72, 64
2, 96400, Note_on_c, 0, 70, 92
2, 96480, Note_off_c, 0, 70, 64
2, 96480, Note_on_c, 0, 72, 92
2, 96720, Note_off_c, 0, 72, 64
2, 96720, Note_on_c, 0, 70, 92
2, 96800, Note_off_c, 0, 70, 64
2, 96800, Note_on_c, 0, 69, 92
2, 96880, Note_off_c, 0, 69, 64
2, 96880, Note_on_c, 0, 67, 92
2, 96960, Note_off_c, 0, 67, 64
2, 96960, Note_on_c, 0, 69, 92
2, 97200, Note_off_c, 0, 69, 64
2, 97200, Note_on_c, 0, 70, 92
2, 97440, Note_off_c, 0, 70, 64
2, 97440, Note_on_c, 0, 69, 92
2, 97680, Note_off_c, 0, 69, 64
2, 97680, Note_on_c, 0, 67, 92
2, 97920, Note_off_c, 0, 67, 64
2, 97920, Note_on_c, 0, 65, 92
2, 98040, Note_off_c, 0, 65, 64
2, 98040, Note_on_c, 0, 69, 92
2, 98160, Note_off_c, 0, 69, 64
2, 98160, Note_on_c, 0, 74, 92
2, 98280, Note_off_c, 0, 74, 64
2, 98280, Note_on_c, 0, 67, 92
2, 98400, Note_off_c, 0, 67, 64
2, 98400, Note_on_c, 0, 70, 92
2, 98520, Note_off_c, 0, 70, 64
2, 98520, Note_on_c, 0, 69, 92
2, 98640, Note_off_c, 0, 69, 64
2, 98640, Note_on_c, 0, 67, 92
2, 98760, Note_off_c, 0, 67, 64
2, 98760, Note_on_c, 0, 65, 92
2, 98880, Note_off_c, 0, 65, 64
2, 98880, Note_on_c, 0, 65, 92
2, 99120, Note_off_c, 0, 65, 64
2, 99120, Note_on_c, 0, 65, 92
2, 99180, Note_off_c, 0, 65, 64
2, 99180, Note_on_c, 0, 67, 92
2, 99240, Note_off_c, 0, 67, 64
2, 99240, Note_on_c, 0, 65, 92
2, 99300, Note_off_c, 0, 65, 64
2, 99300, Note_on_c, 0, 64, 92
2, 99360, Note_off_c, 0, 64, 64
2, 99360, Note_on_c, 0, 65, 92
2, 99480, Note_off_c, 0, 65, 64
2, 99480, Note_on_c, 0, 67, 92
2, 99600, Note_off_c, 0, 67, 64
2, 99600, Note_on_c, 0, 69, 92
2, 99720, Note_off_c, 0, 69, 64
2, 99720, Note_on_c, 0, 70, 92
2, 99780, Note_off_c, 0, 70, 64
2, 99780, Note_on_c, 0, 72, 92
2, 99840, Note_off_c, 0, 72, 64
2, 99840, Note_on_c, 0, 74, 92
2, 101100, Note_off_c, 0, 74, 64
2, 101100, Note_on_c, 0, 69, 92
2, 101160, Note_off_c, 0, 69, 64
2, 101160, Note_on_c, 0, 67, 92
2, 101220, Note_off_c, 0, 67, 64
2, 101220, Note_on_c, 0, 66, 92
2, 101280, Note_off_c, 0, 66, 64
2, 101280, Note_on_c, 0, 67, 92
2, 101400, Note_off_c, 0, 67, 64
2, 101400, Note_on_c, 0, 69, 92
2, 101520, Note_off_c, 0, 69, 64
2, 101520, Note_on_c, 0, 71, 92
2, 101640, Note_off_c, 0, 71, 64
2, 101640, Note_on_c, 0, 72, 92
2, 101700, Note_off_c, 0, 72, 64
2, 101700, Note_on_c, 0, 74, 92
2, 101760, Note_off_c, 0, 74, 64
2, 101760, Note_on_c, 0, 76, 92
2, 102840, Note_off_c, 0, 76, 64
2, 102840, Note_on_c, 0, 79, 92
2, 103040, Note_off_c, 0, 79, 64
2, 103040, Note_on_c, 0, 77, 92
2, 103120, Note_off_c, 0, 77, 64
2, 103120, Note_on_c, 0, 76, 92
2, 103280, Note_off_c, 0, 76, 64
2, 103280, Note_on_c, 0, 74, 92
2, 103360, Note_off_c, 0, 74, 64
2, 103360, Note_on_c, 0, 73, 92
2, 103520, Note_off_c, 0, 73, 64
2, 103520, Note_on_c, 0, 71, 92
2, 103600, Note_off_c, 0, 71, 64
2, 103600, Note_on_c, 0, 69, 92
2, 103680, Note_off_c, 0, 69, 64
2, 103680, Note_on_c, 0, 77, 92
2, 104280, Note_off_c, 0, 77, 64
2, 104280, Note_on_c, 0, 76, 92
2, 104400, Note_off_c, 0, 76, 64
2, 104400, Note_on_c, 0, 77, 92
2, 104520, Note_off_c, 0, 77, 64
2, 104520, Note_on_c, 0, 79, 92
2, 104640, Note_off_c, 0, 79, 64
2, 104640, Note_on_c, 0, 76, 92
2, 105240, Note_off_c, 0, 76, 64
2, 105240, Note_on_c, 0, 74, 92
2, 105360, Note_off_c, 0, 74, 64
2, 105360, Note_on_c, 0, 76, 92
2, 105480, Note_off_c, 0, 76, 64
2, 105480, Note_on_c, 0, 77, 92
2, 105600, Note_off_c, 0, 77, 64
2, 105600, Note_on_c, 0, 74, 92
2, 106160, Note_off_c, 0, 74, 64
2, 106160, Note_on_c, 0, 76, 92
2, 106240, Note_off_c, 0, 76, 64
2, 106240, Note_on_c, 0, 77, 92
2, 106320, Note_off_c, 0, 77, 64
2, 106320, Note_on_c, 0, 79, 92
2, 106400, Note_off_c, 0, 79, 64
2, 106400, Note_on_c, 0, 77, 92
2, 106480, Note_off_c, 0, 77, 64
2, 106480, Note_on_c, 0, 76, 92
2, 106560, Note_off_c, 0, 76, 64
2, 106560, Note_on_c, 0, 74, 92
2, 106800, Note_off_c, 0, 74, 64
2, 106800, Note_on_c, 0, 73, 92
2, 107160, Note_off_c, 0, 73, 64
2, 107160, Note_on_c, 0, 71, 92
2, 107220, Note_off_c, 0, 71, 64
2, 107220, Note_on_c, 0, 69, 92
2, 107280, Note_off_c, 0, 69, 64
2, 107280, Note_on_c, 0, 71, 92
2, 107340, Note_off_c, 0, 71, 64
2, 107340, Note_on_c, 0, 73, 92
2, 107400, Note_off_c, 0, 73, 64
2, 107400, Note_on_c, 0, 74, 92
2, 107460, Note_off_c, 0, 74, 64
2, 107460, Note_on_c, 0, 76, 92
2, 107520, Note_off_c, 0, 76, 64
2, 107520, Note_on_c, 0, 77, 92
2, 107640, Note_off_c, 0, 77, 64
2, 107640, Note_on_c, 0, 76, 92
2, 107760, Note_off_c, 0, 76, 64
2, 107760, Note_on_c, 0, 74, 92
2, 108000, Note_off_c, 0, 74, 64
2, 108000, Note_on_c, 0, 76, 92
2, 108060, Note_off_c, 0, 76, 64
2, 108060, Note_on_c, 0, 74, 92
2, 108120, Note_off_c, 0, 74, 64
2, 108120, Note_on_c, 0, 73, 92
2, 108240, Note_off_c, 0, 73, 64
2, 108240, Note_on_c, 0, 74, 92
2, 108600, Note_off_c, 0, 74, 64
2, 108600, Note_on_c, 0, 76, 92
2, 108720, Note_off_c, 0, 76, 64
2, 108720, Note_on_c, 0, 74, 92
2, 108840, Note_off_c, 0, 74, 64
2, 108840, Note_on_c, 0, 73, 92
2, 108960, Note_off_c, 0, 73, 64
2, 108960, Note_on_c, 0, 74, 92
2, 109080, Note_off_c, 0, 74, 64
2, 109080, Note_on_c, 0, 76, 92
2, 109200, Note_off_c, 0, 76, 64
2, 109200, Note_on_c, 0, 77, 92
2, 109320, Note_off_c, 0, 77, 64
2, 109320, Note_on_c, 0, 79, 92
2, 109440, Note_off_c, 0, 79, 64
2, 109440, Note_on_c, 0, 81, 92
2, 109680, Note_off_c, 0, 81, 64
2, 109680, Note_on_c, 0, 82, 92
2, 109800, Note_off_c, 0, 82, 64
2, 109800, Note_on_c, 0, 81, 92
2, 109920, Note_off_c, 0, 81, 64
2, 109920, Note_on_c, 0, 79, 92
2, 110040, Note_off_c, 0, 79, 64
2, 110040, Note_on_c, 0, 77, 92
2, 110160, Note_off_c, 0, 77, 64
2, 110160, Note_on_c, 0, 76, 92
2, 110280, Note_off_c, 0, 76, 64
2, 110280, Note_on_c, 0, 74, 92
2, 110400, Note_off_c, 0, 74, 64
2, 110400, Note_on_c, 0, 73, 92
2, 110640, Note_off_c, 0, 73, 64
2, 110640, Note_on_c, 0, 76, 92
2, 110880, Note_off_c, 0, 76, 64
2, 110880, Note_on_c, 0, 69, 92
2, 111120, Note_off_c, 0, 69, 64
2, 111120, Note_on_c, 0, 79, 92
2, 111480, Note_off_c, 0, 79, 64
2, 111480, Note_on_c, 0, 77, 92
2, 111600, Note_off_c, 0, 77, 64
2, 111600, Note_on_c, 0, 76, 92
2, 111720, Note_off_c, 0, 76, 64
2, 111720, Note_on_c, 0, 74, 92
2, 111840, Note_off_c, 0, 74, 64
2, 111840, Note_on_c, 0, 77, 92
2, 111960, Note_off_c, 0, 77, 64
2, 111960, Note_on_c, 0, 76, 92
2, 112080, Note_off_c, 0, 76, 64
2, 112080, Note_on_c, 0, 74, 92
2, 112200, Note_off_c, 0, 74, 64
2, 112200, Note_on_c, 0, 72, 92
2, 112320, Note_off_c, 0, 72, 64
2, 112320, Note_on_c, 0, 71, 92
2, 112560, Note_off_c, 0, 71, 64
2, 112560, Note_on_c, 0, 74, 92
2, 112800, Note_off_c, 0, 74, 64
2, 112800, Note_on_c, 0, 67, 92
2, 113040, Note_off_c, 0, 67, 64
2, 113040, Note_on_c, 0, 77, 92
2, 113400, Note_off_c, 0, 77, 64
2, 113400, Note_on_c, 0, 76, 92
2, 113520, Note_off_c, 0, 76, 64
2, 113520, Note_on_c, 0, 74, 92
2, 113640, Note_off_c, 0, 74, 64
2, 113640, Note_on_c, 0, 72, 92
2, 113760, Note_off_c, 0, 72, 64
2, 113760, Note_on_c, 0, 76, 92
2, 113880, Note_off_c, 0, 76, 64
2, 113880, Note_on_c, 0, 74, 92
2, 114000, Note_off_c, 0, 74, 64
2, 114000, Note_on_c, 0, 72, 92
2, 114120, Note_off_c, 0, 72, 64
2, 114120, Note_on_c, 0, 71, 92
2, 114240, Note_off_c, 0, 71, 64
2, 114240, Note_on_c, 0, 69, 92
2, 114360, Note_off_c, 0, 69, 64
2, 114360, Note_on_c, 0, 71, 92
2, 114480, Note_off_c, 0, 71, 64
2, 114480, Note_on_c, 0, 69, 92
2, 114600, Note_off_c, 0, 69, 64
2, 114600, Note_on_c, 0, 68, 92
2, 114720, Note_off_c, 0, 68, 64
2, 114720, Note_on_c, 0, 69, 92
2, 114840, Note_off_c, 0, 69, 64
2, 114840, Note_on_c, 0, 71, 92
2, 114960, Note_off_c, 0, 71, 64
2, 114960, Note_on_c, 0, 72, 92
2, 115080, Note_off_c, 0, 72, 64
2, 115080, Note_on_c, 0, 74, 92
2, 115200, Note_off_c, 0, 74, 64
2, 115200, Note_on_c, 0, 76, 92
2, 115440, Note_off_c, 0, 76, 64
2, 115440, Note_on_c, 0, 77, 92
2, 115680, Note_off_c, 0, 77, 64
2, 115680, Note_on_c, 0, 76, 92
2, 115920, Note_off_c, 0, 76, 64
2, 115920, Note_on_c, 0, 74, 92
2, 116160, Note_off_c, 0, 74, 64
2, 116160, Note_on_c, 0, 72, 92
2, 116400, Note_off_c, 0, 72, 64
2, 116400, Note_on_c, 0, 74, 92
2, 116640, Note_off_c, 0, 74, 64
2, 116640, Note_on_c, 0, 72, 92
2, 116880, Note_off_c, 0, 72, 64
2, 116880, Note_on_c, 0, 71, 92
2, 117120, Note_off_c, 0, 71, 64
2, 117120, Note_on_c, 0, 69, 92
2, 117600, Note_off_c, 0, 69, 64
2, 117840, Note_on_c, 0, 74, 92
2, 118200, Note_off_c, 0, 74, 64
2, 118200, Note_on_c, 0, 76, 92
2, 118320, Note_off_c, 0, 76, 64
2, 118320, Note_on_c, 0, 74, 92
2, 118440, Note_off_c, 0, 74, 64
2, 118440, Note_on_c, 0, 72, 92
2, 118560, Note_off_c, 0, 72, 64
2, 118560, Note_on_c, 0, 74, 92
2, 118680, Note_off_c, 0, 74, 64
2, 118680, Note_on_c, 0, 76, 92
2, 118800, Note_off_c, 0, 76, 64
2, 118800, Note_on_c, 0, 78, 92
2, 118920, Note_off_c, 0, 78, 64
2, 118920, Note_on_c, 0, 80, 92
2, 119040, Note_off_c, 0, 80, 64
2, 119040, Note_on_c, 0, 81, 92
2, 119280, Note_off_c, 0, 81, 64
2, 119280, Note_on_c, 0, 76, 92
2, 119520, Note_off_c, 0, 76, 64
2, 119520, Note_on_c, 0, 69, 92
2, 119760, Note_off_c, 0, 69, 64
2, 119760, Note_on_c, 0, 72, 92
2, 120120, Note_off_c, 0, 72, 64
2, 120120, Note_on_c, 0, 74, 92
2, 120240, Note_off_c, 0, 74, 64
2, 120240, Note_on_c, 0, 72, 92
2, 120360, Note_off_c, 0, 72, 64
2, 120360, Note_on_c, 0, 71, 92
2, 120480, Note_off_c, 0, 71, 64
2, 120480, Note_on_c, 0, 72, 92
2, 120600, Note_off_c, 0, 72, 64
2, 120600, Note_on_c, 0, 74, 92
2, 120720, Note_off_c, 0, 74, 64
2, 120720, Note_on_c, 0, 76, 92
2, 120840, Note_off_c, 0, 76, 64
2, 120840, Note_on_c, 0, 78, 92
2, 120960, Note_off_c, 0, 78, 64
2, 120960, Note_on_c, 0, 79, 92
2, 121200, Note_off_c, 0, 79, 64
2, 121200, Note_on_c, 0, 74, 92
2, 121440, Note_off_c, 0, 74, 64
2, 121440, Note_on_c, 0, 67, 92
2, 121680, Note_off_c, 0, 67, 64
2, 121680, Note_on_c, 0, 71, 92
2, 122040, Note_off_c, 0, 71, 64
2, 122040, Note_on_c, 0, 76, 92
2, 122160, Note_off_c, 0, 76, 64
2, 122160, Note_on_c, 0, 74, 92
2, 122280, Note_off_c, 0, 74, 64
2, 122280, Note_on_c, 0, 76, 92
2, 122400, Note_off_c, 0, 76, 64
2, 122400, Note_on_c, 0, 69, 92
2, 122460, Note_off_c, 0, 69, 64
2, 122460, Note_on_c, 0, 71, 92
2, 122520, Note_off_c, 0, 71, 64
2, 122520, Note_on_c, 0, 69, 92
2, 123360, Note_off_c, 0, 69, 64
2, 123360, Note_on_c, 0, 71, 92
2, 123420, Note_off_c, 0, 71, 64
2, 123420, Note_on_c, 0, 72, 92
2, 123480, Note_off_c, 0, 72, 64
2, 123480, Note_on_c, 0, 71, 92
2, 124320, Note_off_c, 0, 71, 64
2, 124320, Note_on_c, 0, 72, 92
2, 124380, Note_off_c, 0, 72, 64
2, 124380, Note_on_c, 0, 74, 92
2, 124440, Note_off_c, 0, 74, 64
2, 124440, Note_on_c, 0, 72, 92
2, 124920, Note_off_c, 0, 72, 64
2, 124920, Note_on_c, 0, 71, 92
2, 125040, Note_off_c, 0, 71, 64
2, 125040, Note_on_c, 0, 72, 92
2, 125160, Note_off_c, 0, 72, 64
2, 125160, Note_on_c, 0, 76, 92
2, 125280, Note_off_c, 0, 76, 64
2, 125280, Note_on_c, 0, 74, 92
2, 125400, Note_off_c, 0, 74, 64
2, 125400, Note_on_c, 0, 72, 92
2, 125520, Note_off_c, 0, 72, 64
2, 125520, Note_on_c, 0, 74, 92
2, 125640, Note_off_c, 0, 74, 64
2, 125640, Note_on_c, 0, 76, 92
2, 125760, Note_off_c, 0, 76, 64
2, 125760, Note_on_c, 0, 74, 92
2, 125880, Note_off_c, 0, 74, 64
2, 125880, Note_on_c, 0, 72, 92
2, 126000, Note_off_c, 0, 72, 64
2, 126000, Note_on_c, 0, 74, 92
2, 126120, Note_off_c, 0, 74, 64
2, 126120, Note_on_c, 0, 77, 92
2, 126240, Note_off_c, 0, 77, 64
2, 126240, Note_on_c, 0, 76, 92
2, 126360, Note_off_c, 0, 76, 64
2, 126360, Note_on_c, 0, 74, 92
2, 126480, Note_off_c, 0, 74, 64
2, 126480, Note_on_c, 0, 76, 92
2, 126600, Note_off_c, 0, 76, 64
2, 126600, Note_on_c, 0, 77, 92
2, 126720, Note_off_c, 0, 77, 64
2, 126720, Note_on_c, 0, 76, 92
2, 126960, Note_off_c, 0, 76, 64
2, 126960, Note_on_c, 0, 77, 92
2, 127040, Note_off_c, 0, 77, 64
2, 127040, Note_on_c, 0, 76, 92
2, 127120, Note_off_c, 0, 76, 64
2, 127120, Note_on_c, 0, 74, 92
2, 127200, Note_off_c, 0, 74, 64
2, 127200, Note_on_c, 0, 76, 92
2, 127440, Note_off_c, 0, 76, 64
2, 127440, Note_on_c, 0, 74, 92
2, 127520, Note_off_c, 0, 74, 64
2, 127520, Note_on_c, 0, 72, 92
2, 127600, Note_off_c, 0, 72, 64
2, 127600, Note_on_c, 0, 71, 92
2, 127680, Note_off_c, 0, 71, 64
2, 127680, Note_on_c, 0, 72, 92
2, 127920, Note_off_c, 0, 72, 64
2, 127920, Note_on_c, 0, 74, 92
2, 128160, Note_off_c, 0, 74, 64
2, 128160, Note_on_c, 0, 72, 92
2, 128400, Note_off_c, 0, 72, 64
2, 128400, Note_on_c, 0, 71, 92
2, 128640, Note_off_c, 0, 71, 64
2, 128640, Note_on_c, 0, 69, 92
2, 128760, Note_off_c, 0, 69, 64
2, 128760, Note_on_c, 0, 72, 92
2, 128880, Note_off_c, 0, 72, 64
2, 128880, Note_on_c, 0, 77, 92
2, 129000, Note_off_c, 0, 77, 64
2, 129000, Note_on_c, 0, 71, 92
2, 129120, Note_off_c, 0, 71, 64
2, 129120, Note_on_c, 0, 74, 92
2, 129240, Note_off_c, 0, 74, 64
2, 129240, Note_on_c, 0, 72, 92
2, 129360, Note_off_c, 0, 72, 64
2, 129360, Note_on_c, 0, 71, 92
2, 129480, Note_off_c, 0, 71, 64
2, 129480, Note_on_c, 0, 69, 92
2, 129600, Note_off_c, 0, 69, 64
2, 129600, Note_on_c, 0, 69, 92
2, 129900, Note_off_c, 0, 69, 64
2, 129900, Note_on_c, 0, 71, 92
2, 129960, Note_off_c, 0, 71, 64
2, 129960, Note_on_c, 0, 69, 92
2, 130020, Note_off_c, 0, 69, 64
2, 130020, Note_on_c, 0, 68, 92
2, 130080, Note_off_c, 0, 68, 64
2, 130080, Note_on_c, 0, 69, 92
2, 130200, Note_off_c, 0, 69, 64
2, 130200, Note_on_c, 0, 71, 92
2, 130320, Note_off_c, 0, 71, 64
2, 130320, Note_on_c, 0, 72, 92
2, 130440, Note_off_c, 0, 72, 64
2, 130440, Note_on_c, 0, 74, 92
2, 130500, Note_off_c, 0, 74, 64
2, 130500, Note_on_c, 0, 76, 92
2, 130560, Note_off_c, 0, 76, 64
2, 130560, Note_on_c, 0, 77, 92
2, 131820, Note_off_c, 0, 77, 64
2, 131820, Note_on_c, 0, 69, 92
2, 131880, Note_off_c, 0, 69, 64
2, 131880, Note_on_c, 0, 67, 92
2, 131940, Note_off_c, 0, 67, 64
2, 131940, Note_on_c, 0, 65, 92
2, 132000, Note_off_c, 0, 65, 64
2, 132000, Note_on_c, 0, 67, 92
2, 132120, Note_off_c, 0, 67, 64
2, 132120, Note_on_c, 0, 69, 92
2, 132240, Note_off_c, 0, 69, 64
2, 132240, Note_on_c, 0, 70, 92
2, 132360, Note_off_c, 0, 70, 64
2, 132360, Note_on_c, 0, 72, 92
2, 132420, Note_off_c, 0, 72, 64
2, 132420, Note_on_c, 0, 74, 92
2, 132480, Note_off_c, 0, 74, 64
2, 132480, Note_on_c, 0, 76, 92
2, 133560, Note_off_c, 0, 76, 64
2, 133560, Note_on_c, 0, 81, 92
2, 133760, Note_off_c, 0, 81, 64
2, 133760, Note_on_c, 0, 79, 92
2, 133840, Note_off_c, 0, 79, 64
2, 133840, Note_on_c, 0, 77, 92
2, 134000, Note_off_c, 0, 77, 64
2, 134000, Note_on_c, 0, 76, 92
2, 134080, Note_off_c, 0, 76, 64
2, 134080, Note_on_c, 0, 74, 92
2, 134240, Note_off_c, 0, 74, 64
2, 134240, Note_on_c, 0, 73, 92
2, 134320, Note_off_c, 0, 73, 64
2, 134320, Note_on_c, 0, 74, 92
2, 134400, Note_off_c, 0, 74, 64
2, 134400, Note_on_c, 0, 74, 92
2, 134760, Note_off_c, 0, 74, 64
2, 134760, Note_on_c, 0, 72, 92
2, 134820, Note_off_c, 0, 72, 64
2, 134820, Note_on_c, 0, 70, 92
2, 134880, Note_off_c, 0, 70, 64
2, 134880, Note_on_c, 0, 72, 92
2, 135240, Note_off_c, 0, 72, 64
2, 135240, Note_on_c, 0, 70, 92
2, 135300, Note_off_c, 0, 70, 64
2, 135300, Note_on_c, 0, 69, 92
2, 135360, Note_off_c, 0, 69, 64
2, 135360, Note_on_c, 0, 70, 92
2, 135720, Note_off_c, 0, 70, 64
2, 135720, Note_on_c, 0, 69, 92
2, 135780, Note_off_c, 0, 69, 64
2, 135780, Note_on_c, 0, 67, 92
2, 135840, Note_off_c, 0, 67, 64
2, 135840, Note_on_c, 0, 69, 92
2, 136200, Note_off_c, 0, 69, 64
2, 136200, Note_on_c, 0, 67, 92
2, 136260, Note_off_c, 0, 67, 64
2, 136260, Note_on_c, 0, 65, 92
2, 136320, Note_off_c, 0, 65, 64
2, 136320, Note_on_c, 0, 67, 92
2, 136440, Note_off_c, 0, 67, 64
2, 136440, Note_on_c, 0, 79, 92
2, 136680, Note_off_c, 0, 79, 64
2, 136680, Note_on_c, 0, 70, 92
2, 136920, Note_off_c, 0, 70, 64
2, 136920, Note_on_c, 0, 69, 92
2, 137160, Note_off_c, 0, 69, 64
2, 137160, Note_on_c, 0, 68, 92
2, 137280, Note_off_c, 0, 68, 64
2, 137280, Note_on_c, 0, 69, 92
2, 137400, Note_off_c, 0, 69, 64
2, 137400, Note_on_c, 0, 79, 92
2, 137640, Note_off_c, 0, 79, 64
2, 137640, Note_on_c, 0, 77, 92
2, 137880, Note_off_c, 0, 77, 64
2, 137880, Note_on_c, 0, 76, 92
2, 138120, Note_off_c, 0, 76, 64
2, 138120, Note_on_c, 0, 77, 92
2, 138240, Note_off_c, 0, 77, 64
2, 138240, Note_on_c, 0, 77, 92
2, 138360, Note_off_c, 0, 77, 64
2, 138360, Note_on_c, 0, 76, 92
2, 138480, Note_off_c, 0, 76, 64
2, 138480, Note_on_c, 0, 74, 92
2, 138720, Note_off_c, 0, 74, 64
2, 138720, Note_on_c, 0, 76, 92
2, 138780, Note_off_c, 0, 76, 64
2, 138780, Note_on_c, 0, 74, 92
2, 138840, Note_off_c, 0, 74, 64
2, 138840, Note_on_c, 0, 73, 92
2, 138960, Note_off_c, 0, 73, 64
2, 138960, Note_on_c, 0, 74, 92
2, 139320, Note_off_c, 0, 74, 64
2, 139320, Note_on_c, 0, 76, 92
2, 139440, Note_off_c, 0, 76, 64
2, 139440, Note_on_c, 0, 74, 92
2, 139560, Note_off_c, 0, 74, 64
2, 139560, Note_on_c, 0, 73, 92
2, 139680, Note_off_c, 0, 73, 64
2, 139680, Note_on_c, 0, 74, 92
2, 139800, Note_off_c, 0, 74, 64
2, 139800, Note_on_c, 0, 76, 92
2, 139920, Note_off_c, 0, 76, 64
2, 139920, Note_on_c, 0, 77, 92
2, 140040, Note_off_c, 0, 77, 64
2, 140040, Note_on_c, 0, 79, 92
2, 140160, Note_off_c, 0, 79, 64
2, 140160, Note_on_c, 0, 81, 92
2, 140400, Note_off_c, 0, 81, 64
2, 140400, Note_on_c, 0, 82, 92
2, 140520, Note_off_c, 0, 82, 64
2, 140520, Note_on_c, 0, 81, 92
2, 140640, Note_off_c, 0, 81, 64
2, 140640, Note_on_c, 0, 79, 92
2, 140760, Note_off_c, 0, 79, 64
2, 140760, Note_on_c, 0, 77, 92
2, 140880, Note_off_c, 0, 77, 64
2, 140880, Note_on_c, 0, 76, 92
2, 141000, Note_off_c, 0, 76, 64
2, 141000, Note_on_c, 0, 74, 92
2, 141120, Note_off_c, 0, 74, 64
2, 141120, Note_on_c, 0, 73, 92
2, 141360, Note_off_c, 0, 73, 64
2, 141360, Note_on_c, 0, 76, 92
2, 141600, Note_off_c, 0, 76, 64
2, 141600, Note_on_c, 0, 69, 92
2, 141840, Note_off_c, 0, 69, 64
2, 141840, Note_on_c, 0, 79, 92
2, 142200, Note_off_c, 0, 79, 64
2, 142200, Note_on_c, 0, 77, 92
2, 142320, Note_off_c, 0, 77, 64
2, 142320, Note_on_c, 0, 76, 92
2, 142440, Note_off_c, 0, 76, 64
2, 142440, Note_on_c, 0, 74, 92
2, 142560, Note_off_c, 0, 74, 64
2, 142560, Note_on_c, 0, 77, 92
2, 142680, Note_off_c, 0, 77, 64
2, 142680, Note_on_c, 0, 76, 92
2, 142800, Note_off_c, 0, 76, 64
2, 142800, Note_on_c, 0, 74, 92
2, 142920, Note_off_c, 0, 74, 64
2, 142920, Note_on_c, 0, 72, 92
2, 143040, Note_off_c, 0, 72, 64
2, 143040, Note_on_c, 0, 71, 92
2, 143280, Note_off_c, 0, 71, 64
2, 143280, Note_on_c, 0, 74, 92
2, 143520, Note_off_c, 0, 74, 64
2, 143520, Note_on_c, 0, 67, 92
2, 143760, Note_off_c, 0, 67, 64
2, 143760, Note_on_c, 0, 77, 92
2, 144120, Note_off_c, 0, 77, 64
2, 144120, Note_on_c, 0, 76, 92
2, 144240, Note_off_c, 0, 76, 64
2, 144240, Note_on_c, 0, 74, 92
2, 144360, Note_off_c, 0, 74, 64
2, 144360, Note_on_c, 0, 72, 92
2, 144480, Note_off_c, 0, 72, 64
2, 144480, Note_on_c, 0, 76, 92
2, 144600, Note_off_c, 0, 76, 64
2, 144600, Note_on_c, 0, 74, 92
2, 144720, Note_off_c, 0, 74, 64
2, 144720, Note_on_c, 0, 72, 92
2, 144840, Note_off_c, 0, 72, 64
2, 144840, Note_on_c, 0, 71, 92
2, 144960, Note_off_c, 0, 71, 64
2, 144960, Note_on_c, 0, 69, 92
2, 145560, Note_off_c, 0, 69, 64
2, 145560, Note_on_c, 0, 67, 92
2, 145680, Note_off_c, 0, 67, 64
2, 145680, Note_on_c, 0, 69, 92
2, 145800, Note_off_c, 0, 69, 64
2, 145800, Note_on_c, 0, 72, 92
2, 145920, Note_off_c, 0, 72, 64
2, 145920, Note_on_c, 0, 71, 92
2, 146040, Note_off_c, 0, 71, 64
2, 146040, Note_on_c, 0, 69, 92
2, 146160, Note_off_c, 0, 69, 64
2, 146160, Note_on_c, 0, 71, 92
2, 146280, Note_off_c, 0, 71, 64
2, 146280, Note_on_c, 0, 72, 92
2, 146400, Note_off_c, 0, 72, 64
2, 146400, Note_on_c, 0, 71, 92
2, 146520, Note_off_c, 0, 71, 64
2, 146520, Note_on_c, 0, 69, 92
2, 146640, Note_off_c, 0, 69, 64
2, 146640, Note_on_c, 0, 71, 92
2, 146760, Note_off_c, 0, 71, 64
2, 146760, Note_on_c, 0, 74, 92
2, 146880, Note_off_c, 0, 74, 64
2, 146880, Note_on_c, 0, 73, 92
2, 147000, Note_off_c, 0, 73, 64
2, 147000, Note_on_c, 0, 71, 92
2, 147120, Note_off_c, 0, 71, 64
2, 147120, Note_on_c, 0, 73, 92
2, 147240, Note_off_c, 0, 73, 64
2, 147240, Note_on_c, 0, 74, 92
2, 147360, Note_off_c, 0, 74, 64
2, 147360, Note_on_c, 0, 73, 92
2, 147480, Note_off_c, 0, 73, 64
2, 147480, Note_on_c, 0, 71, 92
2, 147600, Note_off_c, 0, 71, 64
2, 147600, Note_on_c, 0, 73, 92
2, 147720, Note_off_c, 0, 73, 64
2, 147720, Note_on_c, 0, 76, 92
2, 147840, Note_off_c, 0, 76, 64
2, 147840, Note_on_c, 0, 74, 92
2, 147900, Note_off_c, 0, 74, 64
2, 147900, Note_on_c, 0, 76, 92
2, 147960, Note_off_c, 0, 76, 64
2, 147960, Note_on_c, 0, 74, 92
2, 148800, Note_off_c, 0, 74, 64
2, 148800, Note_on_c, 0, 76, 92
2, 148860, Note_off_c, 0, 76, 64
2, 148860, Note_on_c, 0, 77, 92
2, 148920, Note_off_c, 0, 77, 64
2, 148920, Note_on_c, 0, 76, 92
2, 149760, Note_off_c, 0, 76, 64
2, 149760, Note_on_c, 0, 77, 92
2, 150000, Note_off_c, 0, 77, 64
2, 150000, Note_on_c, 0, 79, 92
2, 150080, Note_off_c, 0, 79, 64
2, 150080, Note_on_c, 0, 77, 92
2, 150160, Note_off_c, 0, 77, 64
2, 150160, Note_on_c, 0, 76, 92
2, 150240, Note_off_c, 0, 76, 64
2, 150240, Note_on_c, 0, 77, 92
2, 150480, Note_off_c, 0, 77, 64
2, 150480, Note_on_c, 0, 76, 92
2, 150560, Note_off_c, 0, 76, 64
2, 150560, Note_on_c, 0, 74, 92
2, 150640, Note_off_c, 0, 74, 64
2, 150640, Note_on_c, 0, 73, 92
2, 150720, Note_off_c, 0, 73, 64
2, 150720, Note_on_c, 0, 74, 92
2, 150960, Note_off_c, 0, 74, 64
2, 150960, Note_on_c, 0, 70, 92
2, 151200, Note_off_c, 0, 70, 64
2, 151200, Note_on_c, 0, 69, 92
2, 151440, Note_off_c, 0, 69, 64
2, 151440, Note_on_c, 0, 67, 92
2, 151680, Note_off_c, 0, 67, 64
2, 151680, Note_on_c, 0, 65, 92
2, 151920, Note_off_c, 0, 65, 64
2, 151920, Note_on_c, 0, 74, 92
2, 152160, Note_off_c, 0, 74, 64
2, 152160, Note_on_c, 0, 64, 92
2, 152400, Note_off_c, 0, 64, 64
2, 152400, Note_on_c, 0, 73, 92
2, 152640, Note_off_c, 0, 73, 64
2, 152640, Note_on_c, 0, 74, 92
2, 153120, Note_off_c, 0, 74, 64
2, 155042, Note_on_c, 0, 72, 92
2, 155522, Note_on_c, 0, 74, 92
2, 155525, Note_off_c, 0, 72, 64
2, 155762, Note_on_c, 0, 67, 92
2, 155765, Note_off_c, 0, 74, 64
2, 156242, Note_on_c, 0, 69, 92
2, 156245, Note_off_c, 0, 67, 64
2, 156482, Note_on_c, 0, 70, 92
2, 156485, Note_off_c, 0, 69, 64
2, 156562, Note_on_c, 0, 69, 92
2, 156565, Note_off_c, 0, 70, 64
2, 156642, Note_on_c, 0, 70, 92
2, 156645, Note_off_c, 0, 69, 64
2, 156722, Note_on_c, 0, 79, 92
2, 156725, Note_off_c, 0, 70, 64
2, 156962, Note_on_c, 0, 70, 92
2, 156965, Note_off_c, 0, 79, 64
2, 157232, Note_on_c, 0, 72, 92
2, 157235, Note_off_c, 0, 70, 64
2, 157262, Note_on_c, 0, 70, 92
2, 157265, Note_off_c, 0, 72, 64
2, 157442, Note_on_c, 0, 69, 92
2, 157445, Note_off_c, 0, 70, 64
2, 157685, Note_off_c, 0, 69, 64
2, 157922, Note_on_c, 0, 77, 92
2, 158162, Note_on_c, 0, 76, 92
2, 158165, Note_off_c, 0, 77, 64
2, 158402, Note_on_c, 0, 75, 92
2, 158405, Note_off_c, 0, 76, 64
2, 158762, Note_on_c, 0, 74, 92
2, 158765, Note_off_c, 0, 75, 64
2, 158822, Note_on_c, 0, 72, 92
2, 158825, Note_off_c, 0, 74, 64
2, 158882, Note_on_c, 0, 74, 92
2, 158885, Note_off_c, 0, 72, 64
2, 159002, Note_on_c, 0, 76, 92
2, 159005, Note_off_c, 0, 74, 64
2, 159062, Note_on_c, 0, 77, 92
2, 159065, Note_off_c, 0, 76, 64
2, 159122, Note_on_c, 0, 76, 92
2, 159125, Note_off_c, 0, 77, 64
2, 159242, Note_on_c, 0, 77, 92
2, 159245, Note_off_c, 0, 76, 64
2, 159302, Note_on_c, 0, 79, 92
2, 159305, Note_off_c, 0, 77, 64
2, 159362, Note_on_c, 0, 77, 92
2, 159365, Note_off_c, 0, 79, 64
2, 160322, Note_on_c, 0, 76, 92
2, 160325, Note_off_c, 0, 77, 64
2, 160565, Note_off_c, 0, 76, 64
2, 160802, Note_on_c, 0, 67, 92
2, 160922, Note_on_c, 0, 72, 92
2, 160925, Note_off_c, 0, 67, 64
2, 160982, Note_on_c, 0, 74, 92
2, 160985, Note_off_c, 0, 72, 64
2, 161042, Note_on_c, 0, 76, 92
2, 161045, Note_off_c, 0, 74, 64
2, 161162, Note_on_c, 0, 76, 92
2, 161165, Note_off_c, 0, 76, 64
2, 161222, Note_on_c, 0, 77, 92
2, 161225, Note_off_c, 0, 76, 64
2, 161282, Note_on_c, 0, 79, 92
2, 161285, Note_off_c, 0, 77, 64
2, 161402, Note_on_c, 0, 79, 92
2, 161405, Note_off_c, 0, 79, 64
2, 161462, Note_on_c, 0, 77, 92
2, 161465, Note_off_c, 0, 79, 64
2, 161522, Note_on_c, 0, 76, 92
2, 161525, Note_off_c, 0, 77, 64
2, 161642, Note_on_c, 0, 76, 92
2, 161645, Note_off_c, 0, 76, 64
2, 161702, Note_on_c, 0, 77, 92
2, 161705, Note_off_c, 0, 76, 64
2, 161762, Note_on_c, 0, 79, 92
2, 161765, Note_off_c, 0, 77, 64
2, 161882, Note_on_c, 0, 79, 92
2, 161885, Note_off_c, 0, 79, 64
2, 161942, Note_on_c, 0, 81, 92
2, 161945, Note_off_c, 0, 79, 64
2, 162002, Note_on_c, 0, 82, 92
2, 162005, Note_off_c, 0, 81, 64
2, 162122, Note_on_c, 0, 81, 92
2, 162125, Note_off_c, 0, 82, 64
2, 162182, Note_on_c, 0, 79, 92
2, 162185, Note_off_c, 0, 81, 64
2, 162242, Note_on_c, 0, 77, 92
2, 162245, Note_off_c, 0, 79, 64
2, 163202, Note_on_c, 0, 76, 92
2, 163205, Note_off_c, 0, 77, 64
2, 163445, Note_off_c, 0, 76, 64
2, 163682, Note_on_c, 0, 76, 92
2, 164042, Note_on_c, 0, 77, 92
2, 164045, Note_off_c, 0, 76, 64
2, 164102, Note_on_c, 0, 76, 92
2, 164105, Note_off_c, 0, 77, 64
2, 164162, Note_on_c, 0, 74, 92
2, 164165, Note_off_c, 0, 76, 64
2, 164222, Note_on_c, 0, 72, 92
2, 164225, Note_off_c, 0, 74, 64
2, 164282, Note_on_c, 0, 71, 92
2, 164285, Note_off_c, 0, 72, 64
2, 164342, Note_on_c, 0, 69, 92
2, 164345, Note_off_c, 0, 71, 64
2, 164402, Note_on_c, 0, 67, 92
2, 164405, Note_off_c, 0, 69, 64
2, 164642, Note_on_c, 0, 69, 92
2, 164645, Note_off_c, 0, 67, 64
2, 164882, Note_on_c, 0, 71, 92
2, 164885, Note_off_c, 0, 69, 64
2, 165122, Note_on_c, 0, 72, 92
2, 165125, Note_off_c, 0, 71, 64
2, 165182, Note_on_c, 0, 71, 92
2, 165185, Note_off_c, 0, 72, 64
2, 165242, Note_on_c, 0, 69, 92
2, 165245, Note_off_c, 0, 71, 64
2, 165482, Note_on_c, 0, 74, 92
2, 165485, Note_off_c, 0, 69, 64
2, 165722, Note_on_c, 0, 65, 92
2, 165725, Note_off_c, 0, 74, 64
2, 165842, Note_on_c, 0, 65, 92
2, 165845, Note_off_c, 0, 65, 64
2, 165872, Note_on_c, 0, 67, 92
2, 165875, Note_off_c, 0, 65, 64
2, 165902, Note_on_c, 0, 65, 92
2, 165905, Note_off_c, 0, 67, 64
2, 166082, Note_on_c, 0, 64, 92
2, 166085, Note_off_c, 0, 65, 64
2, 166325, Note_off_c, 0, 64, 64
2, 166562, Note_on_c, 0, 72, 92
2, 167042, Note_on_c, 0, 74, 92
2, 167045, Note_off_c, 0, 72, 64
2, 167282, Note_on_c, 0, 67, 92
2, 167285, Note_off_c, 0, 74, 64
2, 167762, Note_on_c, 0, 69, 92
2, 167765, Note_off_c, 0, 67, 64
2, 168002, Note_on_c, 0, 70, 92
2, 168005, Note_off_c, 0, 69, 64
2, 168082, Note_on_c, 0, 69, 92
2, 168085, Note_off_c, 0, 70, 64
2, 168162, Note_on_c, 0, 70, 92
2, 168165, Note_off_c, 0, 69, 64
2, 168242, Note_on_c, 0, 79, 92
2, 168245, Note_off_c, 0, 70, 64
2, 168482, Note_on_c, 0, 70, 92
2, 168485, Note_off_c, 0, 79, 64
2, 168752, Note_on_c, 0, 72, 92
2, 168755, Note_off_c, 0, 70, 64
2, 168782, Note_on_c, 0, 70, 92
2, 168785, Note_off_c, 0, 72, 64
2, 168962, Note_on_c, 0, 69, 92
2, 168965, Note_off_c, 0, 70, 64
2, 169205, Note_off_c, 0, 69, 64
2, 169442, Note_on_c, 0, 77, 92
2, 169682, Note_on_c, 0, 76, 92
2, 169685, Note_off_c, 0, 77, 64
2, 169922, Note_on_c, 0, 75, 92
2, 169925, Note_off_c, 0, 76, 64
2, 170282, Note_on_c, 0, 74, 92
2, 170285, Note_off_c, 0, 75, 64
2, 170342, Note_on_c, 0, 72, 92
2, 170345, Note_off_c, 0, 74, 64
2, 170402, Note_on_c, 0, 74, 92
2, 170405, Note_off_c, 0, 72, 64
2, 170522, Note_on_c, 0, 76, 92
2, 170525, Note_off_c, 0, 74, 64
2, 170582, Note_on_c, 0, 77, 92
2, 170585, Note_off_c, 0, 76, 64
2, 170642, Note_on_c, 0, 76, 92
2, 170645, Note_off_c, 0, 77, 64
2, 170762, Note_on_c, 0, 77, 92
2, 170765, Note_off_c, 0, 76, 64
2, 170822, Note_on_c, 0, 79, 92
2, 170825, Note_off_c, 0, 77, 64
2, 170882, Note_on_c, 0, 77, 92
2, 170885, Note_off_c, 0, 79, 64
2, 171842, Note_on_c, 0, 76, 92
2, 171845, Note_off_c, 0, 77, 64
2, 172085, Note_off_c, 0, 76, 64
2, 172322, Note_on_c, 0, 67, 92
2, 172442, Note_on_c, 0, 72, 92
2, 172445, Note_off_c, 0, 67, 64
2, 172502, Note_on_c, 0, 74, 92
2, 172505, Note_off_c, 0, 72, 64
2, 172562, Note_on_c, 0, 76, 92
2, 172565, Note_off_c, 0, 74, 64
2, 172682, Note_on_c, 0, 76, 92
2, 172685, Note_off_c, 0, 76, 64
2, 172742, Note_on_c, 0, 77, 92
2, 172745, Note_off_c, 0, 76, 64
2, 172802, Note_on_c, 0, 79, 92
2, 172805, Note_off_c, 0, 77, 64
2, 172922, Note_on_c, 0, 79, 92
2, 172925, Note_off_c, 0, 79, 64
2, 172982, Note_on_c, 0, 77, 92
2, 172985, Note_off_c, 0, 79, 64
2, 173042, Note_on_c, 0, 76, 92
2, 173045, Note_off_c, 0, 77, 64
2, 173162, Note_on_c, 0, 76, 92
2, 173165, Note_off_c, 0, 76, 64
2, 173222, Note_on_c, 0, 77, 92
2, 173225, Note_off_c, 0, 76, 64
2, 173282, Note_on_c, 0, 79, 92
2, 173285, Note_off_c, 0, 77, 64
2, 173402, Note_on_c, 0, 79, 92
2, 173405, Note_off_c, 0, 79, 64
2, 173462, Note_on_c, 0, 81, 92
2, 173465, Note_off_c, 0, 79, 64
2, 173522, Note_on_c, 0, 82, 92
2, 173525, Note_off_c, 0, 81, 64
2, 173642, Note_on_c, 0, 81, 92
2, 173645, Note_off_c, 0, 82, 64
2, 173702, Note_on_c, 0, 79, 92
2, 173705, Note_off_c, 0, 81, 64
2, 173762, Note_on_c, 0, 77, 92
2, 173765, Note_off_c, 0, 79, 64
2, 174722, Note_on_c, 0, 76, 92
2, 174725, Note_off_c, 0, 77, 64
2, 174965, Note_off_c, 0, 76, 64
2, 175202, Note_on_c, 0, 76, 92
2, 175562, Note_on_c, 0, 77, 92
2, 175565, Note_off_c, 0, 76, 64
2, 175622, Note_on_c, 0, 76, 92
2, 175625, Note_off_c, 0, 77, 64
2, 175682, Note_on_c, 0, 74, 92
2, 175685, Note_off_c, 0, 76, 64
2, 175742, Note_on_c, 0, 72, 92
2, 175745, Note_off_c, 0, 74, 64
2, 175802, Note_on_c, 0, 71, 92
2, 175805, Note_off_c, 0, 72, 64
2, 175862, Note_on_c, 0, 69, 92
2, 175865, Note_off_c, 0, 71, 64
2, 175922, Note_on_c, 0, 67, 92
2, 175925, Note_off_c, 0, 69, 64
2, 176162, Note_on_c, 0, 69, 92
2, 176165, Note_off_c, 0, 67, 64
2, 176402, Note_on_c, 0, 71, 92
2, 176405, Note_off_c, 0, 69, 64
2, 176642, Note_on_c, 0, 72, 92
2, 176645, Note_off_c, 0, 71, 64
2, 176702, Note_on_c, 0, 71, 92
2, 176705, Note_off_c, 0, 72, 64
2, 176762, Note_on_c, 0, 69, 92
2, 176765, Note_off_c, 0, 71, 64
2, 177002, Note_on_c, 0, 74, 92
2, 177005, Note_off_c, 0, 69, 64
2, 177242, Note_on_c, 0, 65, 92
2, 177245, Note_off_c, 0, 74, 64
2, 177362, Note_on_c, 0, 65, 92
2, 177365, Note_off_c, 0, 65, 64
2, 177392, Note_on_c, 0, 67, 92
2, 177395, Note_off_c, 0, 65, 64
2, 177422, Note_on_c, 0, 65, 92
2, 177425, Note_off_c, 0, 67, 64
2, 177602, Note_on_c, 0, 64, 92
2, 177605, Note_off_c, 0, 65, 64
2, 177845, Note_off_c, 0, 64, 64
2, 178082, Note_on_c, 0, 76, 92
2, 178562, Note_on_c, 0, 77, 92
2, 178565, Note_off_c, 0, 76, 64
2, 178802, Note_on_c, 0, 71, 92
2, 178805, Note_off_c, 0, 77, 64
2, 179282, Note_on_c, 0, 72, 92
2, 179285, Note_off_c, 0, 71, 64
2, 179522, Note_on_c, 0, 74, 92
2, 179525, Note_off_c, 0, 72, 64
2, 179602, Note_on_c, 0, 72, 92
2, 179605, Note_off_c, 0, 74, 64
2, 179682, Note_on_c, 0, 74, 92
2, 179685, Note_off_c, 0, 72, 64
2, 179762, Note_on_c, 0, 67, 92
2, 179765, Note_off_c, 0, 74, 64
2, 180002, Note_on_c, 0, 71, 92
2, 180005, Note_off_c, 0, 67, 64
2, 180482, Note_on_c, 0, 72, 92
2, 180485, Note_off_c, 0, 71, 64
2, 180512, Note_on_c, 0, 71, 92
2, 180515, Note_off_c, 0, 72, 64
2, 180542, Note_on_c, 0, 72, 92
2, 180545, Note_off_c, 0, 71, 64
2, 180962, Note_on_c, 0, 79, 92
2, 180965, Note_off_c, 0, 72, 64
2, 180992, Note_on_c, 0, 78, 92
2, 180995, Note_off_c, 0, 79, 64
2, 181022, Note_on_c, 0, 77, 92
2, 181025, Note_off_c, 0, 78, 64
2, 181052, Note_on_c, 0, 78, 92
2, 181055, Note_off_c, 0, 77, 64
2, 181082, Note_on_c, 0, 79, 92
2, 181085, Note_off_c, 0, 78, 64
2, 181112, Note_on_c, 0, 78, 92
2, 181115, Note_off_c, 0, 79, 64
2, 181142, Note_on_c, 0, 79, 92
2, 181145, Note_off_c, 0, 78, 64
2, 181172, Note_on_c, 0, 78, 92
2, 181175, Note_off_c, 0, 79, 64
2, 181202, Note_on_c, 0, 79, 92
2, 181205, Note_off_c, 0, 78, 64
2, 181232, Note_on_c, 0, 78, 92
2, 181235, Note_off_c, 0, 79, 64
2, 181262, Note_on_c, 0, 79, 92
2, 181265, Note_off_c, 0, 78, 64
2, 181292, Note_on_c, 0, 78, 92
2, 181295, Note_off_c, 0, 79, 64
2, 181322, Note_on_c, 0, 79, 92
2, 181325, Note_off_c, 0, 78, 64
2, 181352, Note_on_c, 0, 78, 92
2, 181355, Note_off_c, 0, 79, 64
2, 181382, Note_on_c, 0, 79, 92
2, 181385, Note_off_c, 0, 78, 64
2, 181412, Note_on_c, 0, 78, 92
2, 181415, Note_off_c, 0, 79, 64
2, 181442, Note_on_c, 0, 79, 92
2, 181445, Note_off_c, 0, 78, 64
2, 181472, Note_on_c, 0, 78, 92
2, 181475, Note_off_c, 0, 79, 64
2, 181502, Note_on_c, 0, 79, 92
2, 181505, Note_off_c, 0, 78, 64
2, 181532, Note_on_c, 0, 78, 92
2, 181535, Note_off_c, 0, 79, 64
2, 181562, Note_on_c, 0, 79, 92
2, 181565, Note_off_c, 0, 78, 64
2, 181592, Note_on_c, 0, 78, 92
2, 181595, Note_off_c, 0, 79, 64
2, 181622, Note_on_c, 0, 79, 92
2, 181625, Note_off_c, 0, 78, 64
2, 181652, Note_on_c, 0, 78, 92
2, 181655, Note_off_c, 0, 79, 64
2, 181922, Note_on_c, 0, 79, 92
2, 181925, Note_off_c, 0, 78, 64
2, 182042, Note_on_c, 0, 82, 92
2, 182045, Note_off_c, 0, 79, 64
2, 182102, Note_on_c, 0, 81, 92
2, 182105, Note_off_c, 0, 82, 64
2, 182162, Note_on_c, 0, 79, 92
2, 182165, Note_off_c, 0, 81, 64
2, 182222, Note_on_c, 0, 77, 92
2, 182225, Note_off_c, 0, 79, 64
2, 182282, Note_on_c, 0, 76, 92
2, 182285, Note_off_c, 0, 77, 64
2, 182402, Note_on_c, 0, 76, 92
2, 182405, Note_off_c, 0, 76, 64
2, 182432, Note_on_c, 0, 74, 92
2, 182435, Note_off_c, 0, 76, 64
2, 182462, Note_on_c, 0, 73, 92
2, 182465, Note_off_c, 0, 74, 64
2, 182522, Note_on_c, 0, 74, 92
2, 182525, Note_off_c, 0, 73, 64
2, 182762, Note_on_c, 0, 80, 92
2, 182765, Note_off_c, 0, 74, 64
2, 182822, Note_on_c, 0, 81, 92
2, 182825, Note_off_c, 0, 80, 64
2, 182882, Note_on_c, 0, 83, 92
2, 182885, Note_off_c, 0, 81, 64
2, 183002, Note_on_c, 0, 74, 92
2, 183005, Note_off_c, 0, 83, 64
2, 183122, Note_on_c, 0, 74, 92
2, 183125, Note_off_c, 0, 74, 64
2, 183152, Note_on_c, 0, 76, 92
2, 183155, Note_off_c, 0, 74, 64
2, 183182, Note_on_c, 0, 74, 92
2, 183185, Note_off_c, 0, 76, 64
2, 183362, Note_on_c, 0, 73, 92
2, 183365, Note_off_c, 0, 74, 64
2, 183482, Note_on_c, 0, 74, 92
2, 183485, Note_off_c, 0, 73, 64
2, 183602, Note_on_c, 0, 76, 92
2, 183605, Note_off_c, 0, 74, 64
2, 183902, Note_on_c, 0, 74, 92
2, 183905, Note_off_c, 0, 76, 64
2, 183962, Note_on_c, 0, 73, 92
2, 183965, Note_off_c, 0, 74, 64
2, 184082, Note_on_c, 0, 74, 92
2, 184085, Note_off_c, 0, 73, 64
2, 184202, Note_on_c, 0, 69, 92
2, 184205, Note_off_c, 0, 74, 64
2, 184442, Note_on_c, 0, 70, 92
2, 184445, Note_off_c, 0, 69, 64
2, 184562, Note_on_c, 0, 64, 92
2, 184565, Note_off_c, 0, 70, 64
2, 184592, Note_on_c, 0, 65, 92
2, 184595, Note_off_c, 0, 64, 64
2, 184622, Note_on_c, 0, 64, 92
2, 184625, Note_off_c, 0, 65, 64
2, 185042, Note_on_c, 0, 65, 92
2, 185045, Note_off_c, 0, 64, 64
2, 185282, Note_on_c, 0, 67, 92
2, 185285, Note_off_c, 0, 65, 64
2, 185362, Note_on_c, 0, 65, 92
2, 185365, Note_off_c, 0, 67, 64
2, 185442, Note_on_c, 0, 67, 92
2, 185445, Note_off_c, 0, 65, 64
2, 185522, Note_on_c, 0, 76, 92
2, 185525, Note_off_c, 0, 67, 64
2, 185762, Note_on_c, 0, 67, 92
2, 185765, Note_off_c, 0, 76, 64
2, 186032, Note_on_c, 0, 69, 92
2, 186035, Note_off_c, 0, 67, 64
2, 186062, Note_on_c, 0, 67, 92
2, 186065, Note_off_c, 0, 69, 64
2, 186242, Note_on_c, 0, 65, 92
2, 186245, Note_off_c, 0, 67, 64
2, 186485, Note_off_c, 0, 65, 64
2, 186722, Note_on_c, 0, 70, 92
2, 186782, Note_on_c, 0, 69, 92
2, 186785, Note_off_c, 0, 70, 64
2, 186842, Note_on_c, 0, 67, 92
2, 186845, Note_off_c, 0, 69, 64
2, 186902, Note_on_c, 0, 70, 92
2, 186905, Note_off_c, 0, 67, 64
2, 186962, Note_on_c, 0, 69, 92
2, 186965, Note_off_c, 0, 70, 64
2, 187022, Note_on_c, 0, 67, 92
2, 187025, Note_off_c, 0, 69, 64
2, 187082, Note_on_c, 0, 65, 92
2, 187085, Note_off_c, 0, 67, 64
2, 187142, Note_on_c, 0, 69, 92
2, 187145, Note_off_c, 0, 65, 64
2, 187202, Note_on_c, 0, 67, 92
2, 187205, Note_off_c, 0, 69, 64
2, 187322, Note_on_c, 0, 73, 92
2, 187325, Note_off_c, 0, 67, 64
2, 187382, Note_on_c, 0, 76, 92
2, 187385, Note_off_c, 0, 73, 64
2, 187442, Note_on_c, 0, 79, 92
2, 187445, Note_off_c, 0, 76, 64
2, 188222, Note_on_c, 0, 77, 92
2, 188225, Note_off_c, 0, 79, 64
2, 188282, Note_on_c, 0, 76, 92
2, 188285, Note_off_c, 0, 77, 64
2, 188342, Note_on_c, 0, 74, 92
2, 188345, Note_off_c, 0, 76, 64
2, 188402, Note_on_c, 0, 76, 92
2, 188405, Note_off_c, 0, 74, 64
2, 188642, Note_on_c, 0, 74, 92
2, 188645, Note_off_c, 0, 76, 64
2, 188672, Note_on_c, 0, 73, 92
2, 188675, Note_off_c, 0, 74, 64
2, 188702, Note_on_c, 0, 74, 92
2, 188705, Note_off_c, 0, 73, 64
2, 188732, Note_on_c, 0, 73, 92
2, 188735, Note_off_c, 0, 74, 64
2, 188762, Note_on_c, 0, 74, 92
2, 188765, Note_off_c, 0, 73, 64
2, 188792, Note_on_c, 0, 73, 92
2, 188795, Note_off_c, 0, 74, 64
2, 188822, Note_on_c, 0, 74, 92
2, 188825, Note_off_c, 0, 73, 64
2, 188852, Note_on_c, 0, 73, 92
2, 188855, Note_off_c, 0, 74, 64
2, 188882, Note_on_c, 0, 73, 92
2, 188885, Note_off_c, 0, 73, 64
2, 189122, Note_on_c, 0, 74, 92
2, 189125, Note_off_c, 0, 73, 64
2, 189365, Note_off_c, 0, 74, 64
2, 190082, Note_on_c, 0, 74, 92
2, 190382, Note_on_c, 0, 70, 92
2, 190385, Note_off_c, 0, 74, 64
2, 190442, Note_on_c, 0, 72, 92
2, 190445, Note_off_c, 0, 70, 64
2, 190502, Note_on_c, 0, 74, 92
2, 190505, Note_off_c, 0, 72, 64
2, 190562, Note_on_c, 0, 72, 92
2, 190565, Note_off_c, 0, 74, 64
2, 190622, Note_on_c, 0, 69, 92
2, 190625, Note_off_c, 0, 72, 64
2, 190682, Note_on_c, 0, 70, 92
2, 190685, Note_off_c, 0, 69, 64
2, 190742, Note_on_c, 0, 72, 92
2, 190745, Note_off_c, 0, 70, 64
2, 190802, Note_on_c, 0, 70, 92
2, 190805, Note_off_c, 0, 72, 64
2, 190862, Note_on_c, 0, 67, 92
2, 190865, Note_off_c, 0, 70, 64
2, 190922, Note_on_c, 0, 69, 92
2, 190925, Note_off_c, 0, 67, 64
2, 190982, Note_on_c, 0, 70, 92
2, 190985, Note_off_c, 0, 69, 64
2, 191042, Note_on_c, 0, 69, 92
2, 191045, Note_off_c, 0, 70, 64
2, 191282, Note_on_c, 0, 70, 92
2, 191285, Note_off_c, 0, 69, 64
2, 191312, Note_on_c, 0, 72, 92
2, 191315, Note_off_c, 0, 70, 64
2, 191342, Note_on_c, 0, 70, 92
2, 191345, Note_off_c, 0, 72, 64
2, 191522, Note_on_c, 0, 72, 92
2, 191525, Note_off_c, 0, 70, 64
2, 191822, Note_on_c, 0, 69, 92
2, 191825, Note_off_c, 0, 72, 64
2, 191882, Note_on_c, 0, 70, 92
2, 191885, Note_off_c, 0, 69, 64
2, 191942, Note_on_c, 0, 72, 92
2, 191945, Note_off_c, 0, 70, 64
2, 192002, Note_on_c, 0, 70, 92
2, 192005, Note_off_c, 0, 72, 64
2, 192062, Note_on_c, 0, 67, 92
2, 192065, Note_off_c, 0, 70, 64
2, 192122, Note_on_c, 0, 69, 92
2, 192125, Note_off_c, 0, 67, 64
2, 192182, Note_on_c, 0, 70, 92
2, 192185, Note_off_c, 0, 69, 64
2, 192242, Note_on_c, 0, 69, 92
2, 192245, Note_off_c, 0, 70, 64
2, 192302, Note_on_c, 0, 65, 92
2, 192305, Note_off_c, 0, 69, 64
2, 192362, Note_on_c, 0, 67, 92
2, 192365, Note_off_c, 0, 65, 64
2, 192422, Note_on_c, 0, 69, 92
2, 192425, Note_off_c, 0, 67, 64
2, 192482, Note_on_c, 0, 67, 92
2, 192485, Note_off_c, 0, 69, 64
2, 193322, Note_on_c, 0, 65, 92
2, 193325, Note_off_c, 0, 67, 64
2, 193382, Note_on_c, 0, 67, 92
2, 193385, Note_off_c, 0, 65, 64
2, 193442, Note_on_c, 0, 69, 92
2, 193445, Note_off_c, 0, 67, 64
2, 193562, Note_on_c, 0, 69, 92
2, 193565, Note_off_c, 0, 69, 64
2, 193622, Note_on_c, 0, 70, 92
2, 193625, Note_off_c, 0, 69, 64
2, 193682, Note_on_c, 0, 72, 92
2, 193685, Note_off_c, 0, 70, 64
2, 193802, Note_on_c, 0, 72, 92
2, 193805, Note_off_c, 0, 72, 64
2, 193862, Note_on_c, 0, 74, 92
2, 193865, Note_off_c, 0, 72, 64
2, 193922, Note_on_c, 0, 75, 92
2, 193925, Note_off_c, 0, 74, 64
2, 194042, Note_on_c, 0, 74, 92
2, 194045, Note_off_c, 0, 75, 64
2, 194102, Note_on_c, 0, 75, 92
2, 194105, Note_off_c, 0, 74, 64
2, 194162, Note_on_c, 0, 77, 92
2, 194165, Note_off_c, 0, 75, 64
2, 194282, Note_on_c, 0, 74, 92
2, 194285, Note_off_c, 0, 77, 64
2, 194402, Note_on_c, 0, 70, 92
2, 194405, Note_off_c, 0, 74, 64
2, 194522, Note_on_c, 0, 79, 92
2, 194525, Note_off_c, 0, 70, 64
2, 194642, Note_on_c, 0, 76, 92
2, 194645, Note_off_c, 0, 79, 64
2, 194672, Note_on_c, 0, 77, 92
2, 194675, Note_off_c, 0, 76, 64
2, 194702, Note_on_c, 0, 76, 92
2, 194705, Note_off_c, 0, 77, 64
2, 195002, Note_on_c, 0, 74, 92
2, 195005, Note_off_c, 0, 76, 64
2, 195122, Note_on_c, 0, 72, 92
2, 195125, Note_off_c, 0, 74, 64
2, 195362, Note_on_c, 0, 81, 92
2, 195365, Note_off_c, 0, 72, 64
2, 195392, Note_on_c, 0, 79, 92
2, 195395, Note_off_c, 0, 81, 64
2, 195422, Note_on_c, 0, 81, 92
2, 195425, Note_off_c, 0, 79, 64
2, 195842, Note_on_c, 0, 82, 92
2, 195845, Note_off_c, 0, 81, 64
2, 196082, Note_on_c, 0, 76, 92
2, 196085, Note_off_c, 0, 82, 64
2, 196562, Note_on_c, 0, 77, 92
2, 196565, Note_off_c, 0, 76, 64
2, 196802, Note_on_c, 0, 79, 92
2, 196805, Note_off_c, 0, 77, 64
2, 196882, Note_on_c, 0, 77, 92
2, 196885, Note_off_c, 0, 79, 64
2, 196962, Note_on_c, 0, 79, 92
2, 196965, Note_off_c, 0, 77, 64
2, 197042, Note_on_c, 0, 72, 92
2, 197045, Note_off_c, 0, 79, 64
2, 197282, Note_on_c, 0, 76, 92
2, 197285, Note_off_c, 0, 72, 64
2, 197762, Note_on_c, 0, 77, 92
2, 197765, Note_off_c, 0, 76, 64
2, 197792, Note_on_c, 0, 76, 92
2, 197795, Note_off_c, 0, 77, 64
2, 197822, Note_on_c, 0, 77, 92
2, 197825, Note_off_c, 0, 76, 64
2, 198005, Note_off_c, 0, 77, 64
2, 198242, Note_on_c, 0, 68, 92
2, 198302, Note_on_c, 0, 67, 92
2, 198305, Note_off_c, 0, 68, 64
2, 198362, Note_on_c, 0, 68, 92
2, 198365, Note_off_c, 0, 67, 64
2, 198602, Note_on_c, 0, 74, 92
2, 198605, Note_off_c, 0, 68, 64
2, 198662, Note_on_c, 0, 75, 92
2, 198665, Note_off_c, 0, 74, 64
2, 198722, Note_on_c, 0, 77, 92
2, 198725, Note_off_c, 0, 75, 64
2, 198842, Note_on_c, 0, 68, 92
2, 198845, Note_off_c, 0, 77, 64
2, 198962, Note_on_c, 0, 68, 92
2, 198965, Note_off_c, 0, 68, 64
2, 198992, Note_on_c, 0, 70, 92
2, 198995, Note_off_c, 0, 68, 64
2, 199022, Note_on_c, 0, 68, 92
2, 199025, Note_off_c, 0, 70, 64
2, 199202, Note_on_c, 0, 67, 92
2, 199205, Note_off_c, 0, 68, 64
2, 199442, Note_on_c, 0, 74, 92
2, 199445, Note_off_c, 0, 67, 64
2, 199922, Note_on_c, 0, 73, 92
2, 199925, Note_off_c, 0, 74, 64
2, 199952, Note_on_c, 0, 74, 92
2, 199955, Note_off_c, 0, 73, 64
2, 199982, Note_on_c, 0, 73, 92
2, 199985, Note_off_c, 0, 74, 64
2, 200642, Note_on_c, 0, 74, 92
2, 200645, Note_off_c, 0, 73, 64
2, 200762, Note_on_c, 0, 75, 92
2, 200765, Note_off_c, 0, 74, 64
2, 200822, Note_on_c, 0, 74, 92
2, 200825, Note_off_c, 0, 75, 64
2, 200882, Note_on_c, 0, 72, 92
2, 200885, Note_off_c, 0, 74, 64
2, 200942, Note_on_c, 0, 70, 92
2, 200945, Note_off_c, 0, 72, 64
2, 201002, Note_on_c, 0, 69, 92
2, 201005, Note_off_c, 0, 70, 64
2, 201062, Note_on_c, 0, 67, 92
2, 201065, Note_off_c, 0, 69, 64
2, 201122, Note_on_c, 0, 69, 92
2, 201125, Note_off_c, 0, 67, 64
2, 201362, Note_on_c, 0, 62, 92
2, 201365, Note_off_c, 0, 69, 64
2, 201605, Note_off_c, 0, 62, 64
2, 202322, Note_on_c, 0, 77, 92
2, 202802, Note_on_c, 0, 76, 92
2, 202805, Note_off_c, 0, 77, 64
2, 203042, Note_on_c, 0, 75, 92
2, 203045, Note_off_c, 0, 76, 64
2, 203402, Note_on_c, 0, 74, 92
2, 203405, Note_off_c, 0, 75, 64
2, 203462, Note_on_c, 0, 72, 92
2, 203465, Note_off_c, 0, 74, 64
2, 203522, Note_on_c, 0, 74, 92
2, 203525, Note_off_c, 0, 72, 64
2, 203642, Note_on_c, 0, 76, 92
2, 203645, Note_off_c, 0, 74, 64
2, 203702, Note_on_c, 0, 77, 92
2, 203705, Note_off_c, 0, 76, 64
2, 203762, Note_on_c, 0, 76, 92
2, 203765, Note_off_c, 0, 77, 64
2, 203882, Note_on_c, 0, 77, 92
2, 203885, Note_off_c, 0, 76, 64
2, 203942, Note_on_c, 0, 79, 92
2, 203945, Note_off_c, 0, 77, 64
2, 204002, Note_on_c, 0, 77, 92
2, 204005, Note_off_c, 0, 79, 64
2, 204962, Note_on_c, 0, 76, 92
2, 204965, Note_off_c, 0, 77, 64
2, 205202, Note_on_c, 0, 75, 92
2, 205205, Note_off_c, 0, 76, 64
2, 205682, Note_on_c, 0, 74, 92
2, 205685, Note_off_c, 0, 75, 64
2, 205922, Note_on_c, 0, 73, 92
2, 205925, Note_off_c, 0, 74, 64
2, 206282, Note_on_c, 0, 72, 92
2, 206285, Note_off_c, 0, 73, 64
2, 206342, Note_on_c, 0, 70, 92
2, 206345, Note_off_c, 0, 72, 64
2, 206402, Note_on_c, 0, 72, 92
2, 206405, Note_off_c, 0, 70, 64
2, 206522, Note_on_c, 0, 74, 92
2, 206525, Note_off_c, 0, 72, 64
2, 206582, Note_on_c, 0, 75, 92
2, 206585, Note_off_c, 0, 74, 64
2, 206642, Note_on_c, 0, 74, 92
2, 206645, Note_off_c, 0, 75, 64
2, 206762, Note_on_c, 0, 75, 92
2, 206765, Note_off_c, 0, 74, 64
2, 206822, Note_on_c, 0, 77, 92
2, 206825, Note_off_c, 0, 75, 64
2, 206882, Note_on_c, 0, 75, 92
2, 206885, Note_off_c, 0, 77, 64
2, 207842, Note_on_c, 0, 74, 92
2, 207845, Note_off_c, 0, 75, 64
2, 208085, Note_off_c, 0, 74, 64
2, 208322, Note_on_c, 0, 67, 92
2, 208442, Note_on_c, 0, 72, 92
2, 208445, Note_off_c, 0, 67, 64
2, 208502, Note_on_c, 0, 74, 92
2, 208505, Note_off_c, 0, 72, 64
2, 208562, Note_on_c, 0, 76, 92
2, 208565, Note_off_c, 0, 74, 64
2, 208682, Note_on_c, 0, 76, 92
2, 208685, Note_off_c, 0, 76, 64
2, 208742, Note_on_c, 0, 77, 92
2, 208745, Note_off_c, 0, 76, 64
2, 208802, Note_on_c, 0, 79, 92
2, 208805, Note_off_c, 0, 77, 64
2, 208922, Note_on_c, 0, 79, 92
2, 208925, Note_off_c, 0, 79, 64
2, 208982, Note_on_c, 0, 77, 92
2, 208985, Note_off_c, 0, 79, 64
2, 209042, Note_on_c, 0, 76, 92
2, 209045, Note_off_c, 0, 77, 64
2, 209162, Note_on_c, 0, 76, 92
2, 209165, Note_off_c, 0, 76, 64
2, 209222, Note_on_c, 0, 77, 92
2, 209225, Note_off_c, 0, 76, 64
2, 209282, Note_on_c, 0, 79, 92
2, 209285, Note_off_c, 0, 77, 64
2, 209402, Note_on_c, 0, 79, 92
2, 209405, Note_off_c, 0, 79, 64
2, 209462, Note_on_c, 0, 81, 92
2, 209465, Note_off_c, 0, 79, 64
2, 209522, Note_on_c, 0, 82, 92
2, 209525, Note_off_c, 0, 81, 64
2, 209642, Note_on_c, 0, 81, 92
2, 209645, Note_off_c, 0, 82, 64
2, 209702, Note_on_c, 0, 79, 92
2, 209705, Note_off_c, 0, 81, 64
2, 209762, Note_on_c, 0, 77, 92
2, 209765, Note_off_c, 0, 79, 64
2, 210842, Note_on_c, 0, 79, 92
2, 210845, Note_off_c, 0, 77, 64
2, 210902, Note_on_c, 0, 77, 92
2, 210905, Note_off_c, 0, 79, 64
2, 210962, Note_on_c, 0, 76, 92
2, 210965, Note_off_c, 0, 77, 64
2, 211022, Note_on_c, 0, 74, 92
2, 211025, Note_off_c, 0, 76, 64
2, 211082, Note_on_c, 0, 72, 92
2, 211085, Note_off_c, 0, 74, 64
2, 211142, Note_on_c, 0, 70, 92
2, 211145, Note_off_c, 0, 72, 64
2, 211202, Note_on_c, 0, 69, 92
2, 211205, Note_off_c, 0, 70, 64
2, 211442, Note_on_c, 0, 77, 92
2, 211445, Note_off_c, 0, 69, 64
2, 211682, Note_on_c, 0, 76, 92
2, 211685, Note_off_c, 0, 77, 64
2, 211922, Note_on_c, 0, 76, 92
2, 211925, Note_off_c, 0, 76, 64
2, 212162, Note_on_c, 0, 77, 92
2, 212165, Note_off_c, 0, 76, 64
2, 212192, Note_on_c, 0, 76, 92
2, 212195, Note_off_c, 0, 77, 64
2, 212222, Note_on_c, 0, 77, 92
2, 212225, Note_off_c, 0, 76, 64
2, 212405, Note_off_c, 0, 77, 64
2, 212642, Note_on_c, 0, 76, 92
2, 213122, Note_on_c, 0, 77, 92
2, 213125, Note_off_c, 0, 76, 64
2, 213362, Note_on_c, 0, 71, 92
2, 213365, Note_off_c, 0, 77, 64
2, 213842, Note_on_c, 0, 72, 92
2, 213845, Note_off_c, 0, 71, 64
2, 214082, Note_on_c, 0, 74, 92
2, 214085, Note_off_c, 0, 72, 64
2, 214162, Note_on_c, 0, 72, 92
2, 214165, Note_off_c, 0, 74, 64
2, 214242, Note_on_c, 0, 74, 92
2, 214245, Note_off_c, 0, 72, 64
2, 214322, Note_on_c, 0, 67, 92
2, 214325, Note_off_c, 0, 74, 64
2, 214562, Note_on_c, 0, 71, 92
2, 214565, Note_off_c, 0, 67, 64
2, 215042, Note_on_c, 0, 72, 92
2, 215045, Note_off_c, 0, 71, 64
2, 215072, Note_on_c, 0, 71, 92
2, 215075, Note_off_c, 0, 72, 64
2, 215102, Note_on_c, 0, 72, 92
2, 215105, Note_off_c, 0, 71, 64
2, 215522, Note_on_c, 0, 79, 92
2, 215525, Note_off_c, 0, 72, 64
2, 215552, Note_on_c, 0, 78, 92
2, 215555, Note_off_c, 0, 79, 64
2, 215582, Note_on_c, 0, 77, 92
2, 215585, Note_off_c, 0, 78, 64
2, 215612, Note_on_c, 0, 78, 92
2, 215615, Note_off_c, 0, 77, 64
2, 215642, Note_on_c, 0, 79, 92
2, 215645, Note_off_c, 0, 78, 64
2, 215672, Note_on_c, 0, 78, 92
2, 215675, Note_off_c, 0, 79, 64
2, 215702, Note_on_c, 0, 79, 92
2, 215705, Note_off_c, 0, 78, 64
2, 215732, Note_on_c, 0, 78, 92
2, 215735, Note_off_c, 0, 79, 64
2, 215762, Note_on_c, 0, 79, 92
2, 215765, Note_off_c, 0, 78, 64
2, 215792, Note_on_c, 0, 78, 92
2, 215795, Note_off_c, 0, 79, 64
2, 215822, Note_on_c, 0, 79, 92
2, 215825, Note_off_c, 0, 78, 64
2, 215852, Note_on_c, 0, 78, 92
2, 215855, Note_off_c, 0, 79, 64
2, 215882, Note_on_c, 0, 79, 92
2, 215885, Note_off_c, 0, 78, 64
2, 215912, Note_on_c, 0, 78, 92
2, 215915, Note_off_c, 0, 79, 64
2, 215942, Note_on_c, 0, 79, 92
2, 215945, Note_off_c, 0, 78, 64
2, 215972, Note_on_c, 0, 78, 92
2, 215975, Note_off_c, 0, 79, 64
2, 216002, Note_on_c, 0, 79, 92
2, 216005, Note_off_c, 0, 78, 64
2, 216032, Note_on_c, 0, 78, 92
2, 216035, Note_off_c, 0, 79, 64
2, 216062, Note_on_c, 0, 79, 92
2, 216065, Note_off_c, 0, 78, 64
2, 216092, Note_on_c, 0, 78, 92
2, 216095, Note_off_c, 0, 79, 64
2, 216122, Note_on_c, 0, 79, 92
2, 216125, Note_off_c, 0, 78, 64
2, 216152, Note_on_c, 0, 78, 92
2, 216155, Note_off_c, 0, 79, 64
2, 216182, Note_on_c, 0, 79, 92
2, 216185, Note_off_c, 0, 78, 64
2, 216212, Note_on_c, 0, 78, 92
2, 216215, Note_off_c, 0, 79, 64
2, 216482, Note_on_c, 0, 79, 92
2, 216485, Note_off_c, 0, 78, 64
2, 216602, Note_on_c, 0, 82, 92
2, 216605, Note_off_c, 0, 79, 64
2, 216662, Note_on_c, 0, 81, 92
2, 216665, Note_off_c, 0, 82, 64
2, 216722, Note_on_c, 0, 79, 92
2, 216725, Note_off_c, 0, 81, 64
2, 216782, Note_on_c, 0, 77, 92
2, 216785, Note_off_c, 0, 79, 64
2, 216842, Note_on_c, 0, 76, 92
2, 216845, Note_off_c, 0, 77, 64
2, 216962, Note_on_c, 0, 76, 92
2, 216965, Note_off_c, 0, 76, 64
2, 216992, Note_on_c, 0, 74, 92
2, 216995, Note_off_c, 0, 76, 64
2, 217022, Note_on_c, 0, 73, 92
2, 217025, Note_off_c, 0, 74, 64
2, 217082, Note_on_c, 0, 74, 92
2, 217085, Note_off_c, 0, 73, 64
2, 217322, Note_on_c, 0, 80, 92
2, 217325, Note_off_c, 0, 74, 64
2, 217382, Note_on_c, 0, 81, 92
2, 217385, Note_off_c, 0, 80, 64
2, 217442, Note_on_c, 0, 83, 92
2, 217445, Note_off_c, 0, 81, 64
2, 217562, Note_on_c, 0, 74, 92
2, 217565, Note_off_c, 0, 83, 64
2, 217682, Note_on_c, 0, 74, 92
2, 217685, Note_off_c, 0, 74, 64
2, 217712, Note_on_c, 0, 76, 92
2, 217715, Note_off_c, 0, 74, 64
2, 217742, Note_on_c, 0, 74, 92
2, 217745, Note_off_c, 0, 76, 64
2, 217922, Note_on_c, 0, 73, 92
2, 217925, Note_off_c, 0, 74, 64
2, 218042, Note_on_c, 0, 74, 92
2, 218045, Note_off_c, 0, 73, 64
2, 218162, Note_on_c, 0, 76, 92
2, 218165, Note_off_c, 0, 74, 64
2, 218462, Note_on_c, 0, 74, 92
2, 218465, Note_off_c, 0, 76, 64
2, 218522, Note_on_c, 0, 73, 92
2, 218525, Note_off_c, 0, 74, 64
2, 218642, Note_on_c, 0, 74, 92
2, 218645, Note_off_c, 0, 73, 64
2, 218762, Note_on_c, 0, 69, 92
2, 218765, Note_off_c, 0, 74, 64
2, 219002, Note_on_c, 0, 70, 92
2, 219005, Note_off_c, 0, 69, 64
2, 219122, Note_on_c, 0, 64, 92
2, 219125, Note_off_c, 0, 70, 64
2, 219152, Note_on_c, 0, 65, 92
2, 219155, Note_off_c, 0, 64, 64
2, 219182, Note_on_c, 0, 64, 92
2, 219185, Note_off_c, 0, 65, 64
2, 219602, Note_on_c, 0, 65, 92
2, 219605, Note_off_c, 0, 64, 64
2, 219842, Note_on_c, 0, 67, 92
2, 219845, Note_off_c, 0, 65, 64
2, 219922, Note_on_c, 0, 65, 92
2, 219925, Note_off_c, 0, 67, 64
2, 220002, Note_on_c, 0, 67, 92
2, 220005, Note_off_c, 0, 65, 64
2, 220082, Note_on_c, 0, 76, 92
2, 220085, Note_off_c, 0, 67, 64
2, 220322, Note_on_c, 0, 67, 92
2, 220325, Note_off_c, 0, 76, 64
2, 220592, Note_on_c, 0, 69, 92
2, 220595, Note_off_c, 0, 67, 64
2, 220622, Note_on_c, 0, 67, 92
2, 220625, Note_off_c, 0, 69, 64
2, 220802, Note_on_c, 0, 65, 92
2, 220805, Note_off_c, 0, 67, 64
2, 221045, Note_off_c, 0, 65, 64
2, 221282, Note_on_c, 0, 70, 92
2, 221342, Note_on_c, 0, 69, 92
2, 221345, Note_off_c, 0, 70, 64
2, 221402, Note_on_c, 0, 67, 92
2, 221405, Note_off_c, 0, 69, 64
2, 221462, Note_on_c, 0, 70, 92
2, 221465, Note_off_c, 0, 67, 64
2, 221522, Note_on_c, 0, 69, 92
2, 221525, Note_off_c, 0, 70, 64
2, 221582, Note_on_c, 0, 67, 92
2, 221585, Note_off_c, 0, 69, 64
2, 221642, Note_on_c, 0, 65, 92
2, 221645, Note_off_c, 0, 67, 64
2, 221702, Note_on_c, 0, 69, 92
2, 221705, Note_off_c, 0, 65, 64
2, 221762, Note_on_c, 0, 67, 92
2, 221765, Note_off_c, 0, 69, 64
2, 221882, Note_on_c, 0, 73, 92
2, 221885, Note_off_c, 0, 67, 64
2, 221942, Note_on_c, 0, 76, 92
2, 221945, Note_off_c, 0, 73, 64
2, 222002, Note_on_c, 0, 79, 92
2, 222005, Note_off_c, 0, 76, 64
2, 222782, Note_on_c, 0, 77, 92
2, 222785, Note_off_c, 0, 79, 64
2, 222842, Note_on_c, 0, 76, 92
2, 222845, Note_off_c, 0, 77, 64
2, 222902, Note_on_c, 0, 74, 92
2, 222905, Note_off_c, 0, 76, 64
2, 222962, Note_on_c, 0, 76, 92
2, 222965, Note_off_c, 0, 74, 64
2, 223202, Note_on_c, 0, 74, 92
2, 223205, Note_off_c, 0, 76, 64
2, 223232, Note_on_c, 0, 73, 92
2, 223235, Note_off_c, 0, 74, 64
2, 223262, Note_on_c, 0, 74, 92
2, 223265, Note_off_c, 0, 73, 64
2, 223292, Note_on_c, 0, 73, 92
2, 223295, Note_off_c, 0, 74, 64
2, 223322, Note_on_c, 0, 74, 92
2, 223325, Note_off_c, 0, 73, 64
2, 223352, Note_on_c, 0, 73, 92
2, 223355, Note_off_c, 0, 74, 64
2, 223382, Note_on_c, 0, 74, 92
2, 223385, Note_off_c, 0, 73, 64
2, 223412, Note_on_c, 0, 73, 92
2, 223415, Note_off_c, 0, 74, 64
2, 223442, Note_on_c, 0, 73, 92
2, 223445, Note_off_c, 0, 73, 64
2, 223682, Note_on_c, 0, 74, 92
2, 223685, Note_off_c, 0, 73, 64
2, 223925, Note_off_c, 0, 74, 64
2, 224642, Note_on_c, 0, 74, 92
2, 224942, Note_on_c, 0, 70, 92
2, 224945, Note_off_c, 0, 74, 64
2, 225002, Note_on_c, 0, 72, 92
2, 225005, Note_off_c, 0, 70, 64
2, 225062, Note_on_c, 0, 74, 92
2, 225065, Note_off_c, 0, 72, 64
2, 225122, Note_on_c, 0, 72, 92
2, 225125, Note_off_c, 0, 74, 64
2, 225182, Note_on_c, 0, 69, 92
2, 225185, Note_off_c, 0, 72, 64
2, 225242, Note_on_c, 0, 70, 92
2, 225245, Note_off_c, 0, 69, 64
2, 225302, Note_on_c, 0, 72, 92
2, 225305, Note_off_c, 0, 70, 64
2, 225362, Note_on_c, 0, 70, 92
2, 225365, Note_off_c, 0, 72, 64
2, 225422, Note_on_c, 0, 67, 92
2, 225425, Note_off_c, 0, 70, 64
2, 225482, Note_on_c, 0, 69, 92
2, 225485, Note_off_c, 0, 67, 64
2, 225542, Note_on_c, 0, 70, 92
2, 225545, Note_off_c, 0, 69, 64
2, 225602, Note_on_c, 0, 69, 92
2, 225605, Note_off_c, 0, 70, 64
2, 225842, Note_on_c, 0, 70, 92
2, 225845, Note_off_c, 0, 69, 64
2, 225872, Note_on_c, 0, 72, 92
2, 225875, Note_off_c, 0, 70, 64
2, 225902, Note_on_c, 0, 70, 92
2, 225905, Note_off_c, 0, 72, 64
2, 226082, Note_on_c, 0, 72, 92
2, 226085, Note_off_c, 0, 70, 64
2, 226382, Note_on_c, 0, 69, 92
2, 226385, Note_off_c, 0, 72, 64
2, 226442, Note_on_c, 0, 70, 92
2, 226445, Note_off_c, 0, 69, 64
2, 226502, Note_on_c, 0, 72, 92
2, 226505, Note_off_c, 0, 70, 64
2, 226562, Note_on_c, 0, 70, 92
2, 226565, Note_off_c, 0, 72, 64
2, 226622, Note_on_c, 0, 67, 92
2, 226625, Note_off_c, 0, 70, 64
2, 226682, Note_on_c, 0, 69, 92
2, 226685, Note_off_c, 0, 67, 64
2, 226742, Note_on_c, 0, 70, 92
2, 226745, Note_off_c, 0, 69, 64
2, 226802, Note_on_c, 0, 69, 92
2, 226805, Note_off_c, 0, 70, 64
2, 226862, Note_on_c, 0, 65, 92
2, 226865, Note_off_c, 0, 69, 64
2, 226922, Note_on_c, 0, 67, 92
2, 226925, Note_off_c, 0, 65, 64
2, 226982, Note_on_c, 0, 69, 92
2, 226985, Note_off_c, 0, 67, 64
2, 227042, Note_on_c, 0, 67, 92
2, 227045, Note_off_c, 0, 69, 64
2, 227882, Note_on_c, 0, 65, 92
2, 227885, Note_off_c, 0, 67, 64
2, 227942, Note_on_c, 0, 67, 92
2, 227945, Note_off_c, 0, 65, 64
2, 228002, Note_on_c, 0, 69, 92
2, 228005, Note_off_c, 0, 67, 64
2, 228122, Note_on_c, 0, 69, 92
2, 228125, Note_off_c, 0, 69, 64
2, 228182, Note_on_c, 0, 70, 92
2, 228185, Note_off_c, 0, 69, 64
2, 228242, Note_on_c, 0, 72, 92
2, 228245, Note_off_c, 0, 70, 64
2, 228362, Note_on_c, 0, 72, 92
2, 228365, Note_off_c, 0, 72, 64
2, 228422, Note_on_c, 0, 74, 92
2, 228425, Note_off_c, 0, 72, 64
2, 228482, Note_on_c, 0, 75, 92
2, 228485, Note_off_c, 0, 74, 64
2, 228602, Note_on_c, 0, 74, 92
2, 228605, Note_off_c, 0, 75, 64
2, 228662, Note_on_c, 0, 75, 92
2, 228665, Note_off_c, 0, 74, 64
2, 228722, Note_on_c, 0, 77, 92
2, 228725, Note_off_c, 0, 75, 64
2, 228842, Note_on_c, 0, 74, 92
2, 228845, Note_off_c, 0, 77, 64
2, 228962, Note_on_c, 0, 70, 92
2, 228965, Note_off_c, 0, 74, 64
2, 229082, Note_on_c, 0, 79, 92
2, 229085, Note_off_c, 0, 70, 64
2, 229202, Note_on_c, 0, 76, 92
2, 229205, Note_off_c, 0, 79, 64
2, 229232, Note_on_c, 0, 77, 92
2, 229235, Note_off_c, 0, 76, 64
2, 229262, Note_on_c, 0, 76, 92
2, 229265, Note_off_c, 0, 77, 64
2, 229562, Note_on_c, 0, 74, 92
2, 229565, Note_off_c, 0, 76, 64
2, 229682, Note_on_c, 0, 72, 92
2, 229685, Note_off_c, 0, 74, 64
2, 229922, Note_on_c, 0, 81, 92
2, 229925, Note_off_c, 0, 72, 64
2, 229952, Note_on_c, 0, 79, 92
2, 229955, Note_off_c, 0, 81, 64
2, 229982, Note_on_c, 0, 81, 92
2, 229985, Note_off_c, 0, 79, 64
2, 230402, Note_on_c, 0, 82, 92
2, 230405, Note_off_c, 0, 81, 64
2, 230642, Note_on_c, 0, 76, 92
2, 230645, Note_off_c, 0, 82, 64
2, 231122, Note_on_c, 0, 77, 92
2, 231125, Note_off_c, 0, 76, 64
2, 231362, Note_on_c, 0, 79, 92
2, 231365, Note_off_c, 0, 77, 64
2, 231442, Note_on_c, 0, 77, 92
2, 231445, Note_off_c, 0, 79, 64
2, 231522, Note_on_c, 0, 79, 92
2, 231525, Note_off_c, 0, 77, 64
2, 231602, Note_on_c, 0, 72, 92
2, 231605, Note_off_c, 0, 79, 64
2, 231842, Note_on_c, 0, 76, 92
2, 231845, Note_off_c, 0, 72, 64
2, 232322, Note_on_c, 0, 77, 92
2, 232325, Note_off_c, 0, 76, 64
2, 232352, Note_on_c, 0, 76, 92
2, 232355, Note_off_c, 0, 77, 64
2, 232382, Note_on_c, 0, 77, 92
2, 232385, Note_off_c, 0, 76, 64
2, 232565, Note_off_c, 0, 77, 64
2, 232802, Note_on_c, 0, 68, 92
2, 232862, Note_on_c, 0, 67, 92
2, 232865, Note_off_c, 0, 68, 64
2, 232922, Note_on_c, 0, 68, 92
2, 232925, Note_off_c, 0, 67, 64
2, 233162, Note_on_c, 0, 74, 92
2, 233165, Note_off_c, 0, 68, 64
2, 233222, Note_on_c, 0, 75, 92
2, 233225, Note_off_c, 0, 74, 64
2, 233282, Note_on_c, 0, 77, 92
2, 233285, Note_off_c, 0, 75, 64
2, 233402, Note_on_c, 0, 68, 92
2, 233405, Note_off_c, 0, 77, 64
2, 233522, Note_on_c, 0, 68, 92
2, 233525, Note_off_c, 0, 68, 64
2, 233552, Note_on_c, 0, 70, 92
2, 233555, Note_off_c, 0, 68, 64
2, 233582, Note_on_c, 0, 68, 92
2, 233585, Note_off_c, 0, 70, 64
2, 233762, Note_on_c, 0, 67, 92
2, 233765, Note_off_c, 0, 68, 64
2, 234002, Note_on_c, 0, 74, 92
2, 234005, Note_off_c, 0, 67, 64
2, 234482, Note_on_c, 0, 73, 92
2, 234485, Note_off_c, 0, 74, 64
2, 234512, Note_on_c, 0, 74, 92
2, 234515, Note_off_c, 0, 73, 64
2, 234542, Note_on_c, 0, 73, 92
2, 234545, Note_off_c, 0, 74, 64
2, 235202, Note_on_c, 0, 74, 92
2, 235205, Note_off_c, 0, 73, 64
2, 235322, Note_on_c, 0, 75, 92
2, 235325, Note_off_c, 0, 74, 64
2, 235382, Note_on_c, 0, 74, 92
2, 235385, Note_off_c, 0, 75, 64
2, 235442, Note_on_c, 0, 72, 92
2, 235445, Note_off_c, 0, 74, 64
2, 235502, Note_on_c, 0, 70, 92
2, 235505, Note_off_c, 0, 72, 64
2, 235562, Note_on_c, 0, 69, 92
2, 235565, Note_off_c, 0, 70, 64
2, 235622, Note_on_c, 0, 67, 92
2, 235625, Note_off_c, 0, 69, 64
2, 235682, Note_on_c, 0, 69, 92
2, 235685, Note_off_c, 0, 67, 64
2, 235922, Note_on_c, 0, 62, 92
2, 235925, Note_off_c, 0, 69, 64
2, 236165, Note_off_c, 0, 62, 64
2, 236882, Note_on_c, 0, 77, 92
2, 237362, Note_on_c, 0, 76, 92
2, 237365, Note_off_c, 0, 77, 64
2, 237602, Note_on_c, 0, 75, 92
2, 237605, Note_off_c, 0, 76, 64
2, 237962, Note_on_c, 0, 74, 92
2, 237965, Note_off_c, 0, 75, 64
2, 238022, Note_on_c, 0, 72, 92
2, 238025, Note_off_c, 0, 74, 64
2, 238082, Note_on_c, 0, 74, 92
2, 238085, Note_off_c, 0, 72, 64
2, 238202, Note_on_c, 0, 76, 92
2, 238205, Note_off_c, 0, 74, 64
2, 238262, Note_on_c, 0, 77, 92
2, 238265, Note_off_c, 0, 76, 64
2, 238322, Note_on_c, 0, 76, 92
2, 238325, Note_off_c, 0, 77, 64
2, 238442, Note_on_c, 0, 77, 92
2, 238445, Note_off_c, 0, 76, 64
2, 238502, Note_on_c, 0, 79, 92
2, 238505, Note_off_c, 0, 77, 64
2, 238562, Note_on_c, 0, 77, 92
2, 238565, Note_off_c, 0, 79, 64
2, 239522, Note_on_c, 0, 76, 92
2, 239525, Note_off_c, 0, 77, 64
2, 239762, Note_on_c, 0, 75, 92
2, 239765, Note_off_c, 0, 76, 64
2, 240242, Note_on_c, 0, 74, 92
2, 240245, Note_off_c, 0, 75, 64
2, 240482, Note_on_c, 0, 73, 92
2, 240485, Note_off_c, 0, 74, 64
2, 240842, Note_on_c, 0, 72, 92
2, 240845, Note_off_c, 0, 73, 64
2, 240902, Note_on_c, 0, 70, 92
2, 240905, Note_off_c, 0, 72, 64
2, 240962, Note_on_c, 0, 72, 92
2, 240965, Note_off_c, 0, 70, 64
2, 241082, Note_on_c, 0, 74, 92
2, 241085, Note_off_c, 0, 72, 64
2, 241142, Note_on_c, 0, 75, 92
2, 241145, Note_off_c, 0, 74, 64
2, 241202, Note_on_c, 0, 74, 92
2, 241205, Note_off_c, 0, 75, 64
2, 241322, Note_on_c, 0, 75, 92
2, 241325, Note_off_c, 0, 74, 64
2, 241382, Note_on_c, 0, 77, 92
2, 241385, Note_off_c, 0, 75, 64
2, 241442, Note_on_c, 0, 75, 92
2, 241445, Note_off_c, 0, 77, 64
2, 242402, Note_on_c, 0, 74, 92
2, 242405, Note_off_c, 0, 75, 64
2, 242645, Note_off_c, 0, 74, 64
2, 242882, Note_on_c, 0, 67, 92
2, 243002, Note_on_c, 0, 72, 92
2, 243005, Note_off_c, 0, 67, 64
2, 243062, Note_on_c, 0, 74, 92
2, 243065, Note_off_c, 0, 72, 64
2, 243122, Note_on_c, 0, 76, 92
2, 243125, Note_off_c, 0, 74, 64
2, 243242, Note_on_c, 0, 76, 92
2, 243245, Note_off_c, 0, 76, 64
2, 243302, Note_on_c, 0, 77, 92
2, 243305, Note_off_c, 0, 76, 64
2, 243362, Note_on_c, 0, 79, 92
2, 243365, Note_off_c, 0, 77, 64
2, 243482, Note_on_c, 0, 79, 92
2, 243485, Note_off_c, 0, 79, 64
2, 243542, Note_on_c, 0, 77, 92
2, 243545, Note_off_c, 0, 79, 64
2, 243602, Note_on_c, 0, 76, 92
2, 243605, Note_off_c, 0, 77, 64
2, 243722, Note_on_c, 0, 76, 92
2, 243725, Note_off_c, 0, 76, 64
2, 243782, Note_on_c, 0, 77, 92
2, 243785, Note_off_c, 0, 76, 64
2, 243842, Note_on_c, 0, 79, 92
2, 243845, Note_off_c, 0, 77, 64
2, 243962, Note_on_c, 0, 79, 92
2, 243965, Note_off_c, 0, 79, 64
2, 244022, Note_on_c, 0, 81, 92
2, 244025, Note_off_c, 0, 79, 64
2, 244082, Note_on_c, 0, 82, 92
2, 244085, Note_off_c, 0, 81, 64
2, 244202, Note_on_c, 0, 81, 92
2, 244205, Note_off_c, 0, 82, 64
2, 244262, Note_on_c, 0, 79, 92
2, 244265, Note_off_c, 0, 81, 64
2, 244322, Note_on_c, 0, 77, 92
2, 244325, Note_off_c, 0, 79, 64
2, 245402, Note_on_c, 0, 79, 92
2, 245405, Note_off_c, 0, 77, 64
2, 245462, Note_on_c, 0, 77, 92
2, 245465, Note_off_c, 0, 79, 64
2, 245522, Note_on_c, 0, 76, 92
2, 245525, Note_off_c, 0, 77, 64
2, 245582, Note_on_c, 0, 74, 92
2, 245585, Note_off_c, 0, 76, 64
2, 245642, Note_on_c, 0, 72, 92
2, 245645, Note_off_c, 0, 74, 64
2, 245702, Note_on_c, 0, 70, 92
2, 245705, Note_off_c, 0, 72, 64
2, 245762, Note_on_c, 0, 69, 92
2, 245765, Note_off_c, 0, 70, 64
2, 246002, Note_on_c, 0, 77, 92
2, 246005, Note_off_c, 0, 69, 64
2, 246242, Note_on_c, 0, 76, 92
2, 246245, Note_off_c, 0, 77, 64
2, 246482, Note_on_c, 0, 76, 92
2, 246485, Note_off_c, 0, 76, 64
2, 246722, Note_on_c, 0, 77, 92
2, 246725, Note_off_c, 0, 76, 64
2, 246752, Note_on_c, 0, 76, 92
2, 246755, Note_off_c, 0, 77, 64
2, 246782, Note_on_c, 0, 77, 92
2, 246785, Note_off_c, 0, 76, 64
2, 246965, Note_off_c, 0, 77, 64
2, 248642, Note_on_c, 0, 69, 92
2, 249122, Note_on_c, 0, 74, 92
2, 249125, Note_off_c, 0, 69, 64
2, 249182, Note_on_c, 0, 76, 92
2, 249185, Note_off_c, 0, 74, 64
2, 249242, Note_on_c, 0, 77, 92
2, 249245, Note_off_c, 0, 76, 64
2, 249362, Note_on_c, 0, 76, 92
2, 249365, Note_off_c, 0, 77, 64
2, 249842, Note_on_c, 0, 69, 92
2, 249845, Note_off_c, 0, 76, 64
2, 250202, Note_on_c, 0, 74, 92
2, 250205, Note_off_c, 0, 69, 64
2, 250322, Note_on_c, 0, 72, 92
2, 250325, Note_off_c, 0, 74, 64
2, 250442, Note_on_c, 0, 70, 92
2, 250445, Note_off_c, 0, 72, 64
2, 250562, Note_on_c, 0, 69, 92
2, 250565, Note_off_c, 0, 70, 64
2, 250682, Note_on_c, 0, 67, 92
2, 250685, Note_off_c, 0, 69, 64
2, 250802, Note_on_c, 0, 72, 92
2, 250805, Note_off_c, 0, 67, 64
2, 250862, Note_on_c, 0, 70, 92
2, 250865, Note_off_c, 0, 72, 64
2, 250922, Note_on_c, 0, 69, 92
2, 250925, Note_off_c, 0, 70, 64
2, 251042, Note_on_c, 0, 70, 92
2, 251045, Note_off_c, 0, 69, 64
2, 251102, Note_on_c, 0, 69, 92
2, 251105, Note_off_c, 0, 70, 64
2, 251162, Note_on_c, 0, 67, 92
2, 251165, Note_off_c, 0, 69, 64
2, 251282, Note_on_c, 0, 65, 92
2, 251285, Note_off_c, 0, 67, 64
2, 251642, Note_on_c, 0, 67, 92
2, 251645, Note_off_c, 0, 65, 64
2, 251762, Note_on_c, 0, 69, 92
2, 251765, Note_off_c, 0, 67, 64
2, 251882, Note_on_c, 0, 70, 92
2, 251885, Note_off_c, 0, 69, 64
2, 252002, Note_on_c, 0, 69, 92
2, 252005, Note_off_c, 0, 70, 64
2, 252122, Note_on_c, 0, 67, 92
2, 252125, Note_off_c, 0, 69, 64
2, 252242, Note_on_c, 0, 73, 92
2, 252245, Note_off_c, 0, 67, 64
2, 252362, Note_on_c, 0, 67, 92
2, 252365, Note_off_c, 0, 73, 64
2, 252482, Note_on_c, 0, 69, 92
2, 252485, Note_off_c, 0, 67, 64
2, 252602, Note_on_c, 0, 70, 92
2, 252605, Note_off_c, 0, 69, 64
2, 252722, Note_on_c, 0, 69, 92
2, 252725, Note_off_c, 0, 70, 64
2, 252842, Note_on_c, 0, 67, 92
2, 252845, Note_off_c, 0, 69, 64
2, 252962, Note_on_c, 0, 76, 92
2, 252965, Note_off_c, 0, 67, 64
2, 253082, Note_on_c, 0, 67, 92
2, 253085, Note_off_c, 0, 76, 64
2, 253202, Note_on_c, 0, 69, 92
2, 253205, Note_off_c, 0, 67, 64
2, 253322, Note_on_c, 0, 70, 92
2, 253325, Note_off_c, 0, 69, 64
2, 253442, Note_on_c, 0, 69, 92
2, 253445, Note_off_c, 0, 70, 64
2, 253562, Note_on_c, 0, 67, 92
2, 253565, Note_off_c, 0, 69, 64
2, 253682, Note_on_c, 0, 65, 92
2, 253685, Note_off_c, 0, 67, 64
2, 253802, Note_on_c, 0, 64, 92
2, 253805, Note_off_c, 0, 65, 64
2, 253922, Note_on_c, 0, 67, 92
2, 253925, Note_off_c, 0, 64, 64
2, 254042, Note_on_c, 0, 65, 92
2, 254045, Note_off_c, 0, 67, 64
2, 254162, Note_on_c, 0, 64, 92
2, 254165, Note_off_c, 0, 65, 64
2, 254282, Note_on_c, 0, 62, 92
2, 254285, Note_off_c, 0, 64, 64
2, 254402, Note_on_c, 0, 62, 92
2, 254405, Note_off_c, 0, 62, 64
2, 254522, Note_on_c, 0, 60, 92
2, 254525, Note_off_c, 0, 62, 64
2, 254642, Note_on_c, 0, 59, 92
2, 254645, Note_off_c, 0, 60, 64
2, 254762, Note_on_c, 0, 57, 92
2, 254765, Note_off_c, 0, 59, 64
2, 254882, Note_on_c, 0, 65, 92
2, 254885, Note_off_c, 0, 57, 64
2, 255242, Note_on_c, 0, 64, 92
2, 255245, Note_off_c, 0, 65, 64
2, 255362, Note_on_c, 0, 76, 92
2, 255365, Note_off_c, 0, 64, 64
2, 255482, Note_on_c, 0, 74, 92
2, 255485, Note_off_c, 0, 76, 64
2, 255602, Note_on_c, 0, 72, 92
2, 255605, Note_off_c, 0, 74, 64
2, 255722, Note_on_c, 0, 71, 92
2, 255725, Note_off_c, 0, 72, 64
2, 255842, Note_on_c, 0, 69, 92
2, 255845, Note_off_c, 0, 71, 64
2, 255962, Note_on_c, 0, 71, 92
2, 255965, Note_off_c, 0, 69, 64
2, 256082, Note_on_c, 0, 72, 92
2, 256085, Note_off_c, 0, 71, 64
2, 256202, Note_on_c, 0, 71, 92
2, 256205, Note_off_c, 0, 72, 64
2, 256232, Note_on_c, 0, 72, 92
2, 256235, Note_off_c, 0, 71, 64
2, 256262, Note_on_c, 0, 71, 92
2, 256265, Note_off_c, 0, 72, 64
2, 256292, Note_on_c, 0, 72, 92
2, 256295, Note_off_c, 0, 71, 64
2, 256322, Note_on_c, 0, 71, 92
2, 256325, Note_off_c, 0, 72, 64
2, 256442, Note_on_c, 0, 69, 92
2, 256445, Note_off_c, 0, 71, 64
2, 256502, Note_on_c, 0, 71, 92
2, 256505, Note_off_c, 0, 69, 64
2, 256562, Note_on_c, 0, 72, 92
2, 256565, Note_off_c, 0, 71, 64
2, 256922, Note_on_c, 0, 76, 92
2, 256925, Note_off_c, 0, 72, 64
2, 257042, Note_on_c, 0, 80, 92
2, 257045, Note_off_c, 0, 76, 64
2, 257162, Note_on_c, 0, 83, 92
2, 257165, Note_off_c, 0, 80, 64
2, 257282, Note_on_c, 0, 81, 92
2, 257285, Note_off_c, 0, 83, 64
2, 257522, Note_on_c, 0, 69, 92
2, 257525, Note_off_c, 0, 81, 64
2, 257762, Note_on_c, 0, 77, 92
2, 257765, Note_off_c, 0, 69, 64
2, 258242, Note_on_c, 0, 71, 92
2, 258245, Note_off_c, 0, 77, 64
2, 258482, Note_on_c, 0, 74, 92
2, 258485, Note_off_c, 0, 71, 64
2, 258962, Note_on_c, 0, 68, 92
2, 258965, Note_off_c, 0, 74, 64
2, 259202, Note_on_c, 0, 71, 92
2, 259205, Note_off_c, 0, 68, 64
2, 259682, Note_on_c, 0, 64, 92
2, 259685, Note_off_c, 0, 71, 64
2, 259922, Note_on_c, 0, 69, 92
2, 259925, Note_off_c, 0, 64, 64
2, 260242, Note_on_c, 0, 67, 92
2, 260245, Note_off_c, 0, 69, 64
2, 260322, Note_on_c, 0, 65, 92
2, 260325, Note_off_c, 0, 67, 64
2, 260402, Note_on_c, 0, 67, 92
2, 260405, Note_off_c, 0, 65, 64
2, 260482, Note_on_c, 0, 65, 92
2, 260485, Note_off_c, 0, 67, 64
2, 260562, Note_on_c, 0, 64, 92
2, 260565, Note_off_c, 0, 65, 64
2, 260642, Note_on_c, 0, 62, 92
2, 260645, Note_off_c, 0, 64, 64
2, 260722, Note_on_c, 0, 64, 92
2, 260725, Note_off_c, 0, 62, 64
2, 260802, Note_on_c, 0, 65, 92
2, 260805, Note_off_c, 0, 64, 64
2, 260882, Note_on_c, 0, 55, 92
2, 260885, Note_off_c, 0, 65, 64
2, 261122, Note_on_c, 0, 72, 92
2, 261125, Note_off_c, 0, 55, 64
2, 261682, Note_on_c, 0, 71, 92
2, 261685, Note_off_c, 0, 72, 64
2, 261762, Note_on_c, 0, 69, 92
2, 261765, Note_off_c, 0, 71, 64
2, 261842, Note_on_c, 0, 71, 92
2, 261845, Note_off_c, 0, 69, 64
2, 261922, Note_on_c, 0, 69, 92
2, 261925, Note_off_c, 0, 71, 64
2, 262002, Note_on_c, 0, 68, 92
2, 262005, Note_off_c, 0, 69, 64
2, 262082, Note_on_c, 0, 66, 92
2, 262085, Note_off_c, 0, 68, 64
2, 262162, Note_on_c, 0, 68, 92
2, 262165, Note_off_c, 0, 66, 64
2, 262242, Note_on_c, 0, 69, 92
2, 262245, Note_off_c, 0, 68, 64
2, 262322, Note_on_c, 0, 59, 92
2, 262325, Note_off_c, 0, 69, 64
2, 262562, Note_on_c, 0, 76, 92
2, 262565, Note_off_c, 0, 59, 64
2, 263122, Note_on_c, 0, 74, 92
2, 263125, Note_off_c, 0, 76, 64
2, 263202, Note_on_c, 0, 72, 92
2, 263205, Note_off_c, 0, 74, 64
2, 263282, Note_on_c, 0, 74, 92
2, 263285, Note_off_c, 0, 72, 64
2, 263362, Note_on_c, 0, 72, 92
2, 263365, Note_off_c, 0, 74, 64
2, 263442, Note_on_c, 0, 71, 92
2, 263445, Note_off_c, 0, 72, 64
2, 263522, Note_on_c, 0, 69, 92
2, 263525, Note_off_c, 0, 71, 64
2, 263602, Note_on_c, 0, 71, 92
2, 263605, Note_off_c, 0, 69, 64
2, 263682, Note_on_c, 0, 72, 92
2, 263685, Note_off_c, 0, 71, 64
2, 263762, Note_on_c, 0, 62, 92
2, 263765, Note_off_c, 0, 72, 64
2, 264002, Note_on_c, 0, 79, 92
2, 264005, Note_off_c, 0, 62, 64
2, 264562, Note_on_c, 0, 77, 92
2, 264565, Note_off_c, 0, 79, 64
2, 264642, Note_on_c, 0, 76, 92
2, 264645, Note_off_c, 0, 77, 64
2, 264722, Note_on_c, 0, 77, 92
2, 264725, Note_off_c, 0, 76, 64
2, 264802, Note_on_c, 0, 76, 92
2, 264805, Note_off_c, 0, 77, 64
2, 264882, Note_on_c, 0, 74, 92
2, 264885, Note_off_c, 0, 76, 64
2, 264962, Note_on_c, 0, 73, 92
2, 264965, Note_off_c, 0, 74, 64
2, 265042, Note_on_c, 0, 74, 92
2, 265045, Note_off_c, 0, 73, 64
2, 265122, Note_on_c, 0, 76, 92
2, 265125, Note_off_c, 0, 74, 64
2, 265202, Note_on_c, 0, 62, 92
2, 265205, Note_off_c, 0, 76, 64
2, 265442, Note_on_c, 0, 74, 92
2, 265445, Note_off_c, 0, 62, 64
2, 265682, Note_on_c, 0, 73, 92
2, 265685, Note_off_c, 0, 74, 64
2, 265922, Note_on_c, 0, 74, 92
2, 265925, Note_off_c, 0, 73, 64
2, 266162, Note_on_c, 0, 69, 92
2, 266165, Note_off_c, 0, 74, 64
2, 266402, Note_on_c, 0, 74, 92
2, 266405, Note_off_c, 0, 69, 64
2, 266462, Note_on_c, 0, 76, 92
2, 266465, Note_off_c, 0, 74, 64
2, 266522, Note_on_c, 0, 77, 92
2, 266525, Note_off_c, 0, 76, 64
2, 266642, Note_on_c, 0, 76, 92
2, 266645, Note_off_c, 0, 77, 64
2, 267122, Note_on_c, 0, 69, 92
2, 267125, Note_off_c, 0, 76, 64
2, 267482, Note_on_c, 0, 74, 92
2, 267485, Note_off_c, 0, 69, 64
2, 267602, Note_on_c, 0, 72, 92
2, 267605, Note_off_c, 0, 74, 64
2, 267722, Note_on_c, 0, 70, 92
2, 267725, Note_off_c, 0, 72, 64
2, 267842, Note_on_c, 0, 69, 92
2, 267845, Note_off_c, 0, 70, 64
2, 267962, Note_on_c, 0, 67, 92
2, 267965, Note_off_c, 0, 69, 64
2, 268082, Note_on_c, 0, 72, 92
2, 268085, Note_off_c, 0, 67, 64
2, 268142, Note_on_c, 0, 70, 92
2, 268145, Note_off_c, 0, 72, 64
2, 268202, Note_on_c, 0, 69, 92
2, 268205, Note_off_c, 0, 70, 64
2, 268322, Note_on_c, 0, 70, 92
2, 268325, Note_off_c, 0, 69, 64
2, 268382, Note_on_c, 0, 69, 92
2, 268385, Note_off_c, 0, 70, 64
2, 268442, Note_on_c, 0, 67, 92
2, 268445, Note_off_c, 0, 69, 64
2, 268562, Note_on_c, 0, 65, 92
2, 268565, Note_off_c, 0, 67, 64
2, 268922, Note_on_c, 0, 67, 92
2, 268925, Note_off_c, 0, 65, 64
2, 269042, Note_on_c, 0, 69, 92
2, 269045, Note_off_c, 0, 67, 64
2, 269162, Note_on_c, 0, 70, 92
2, 269165, Note_off_c, 0, 69, 64
2, 269282, Note_on_c, 0, 69, 92
2, 269285, Note_off_c, 0, 70, 64
2, 269402, Note_on_c, 0, 67, 92
2, 269405, Note_off_c, 0, 69, 64
2, 269522, Note_on_c, 0, 73, 92
2, 269525, Note_off_c, 0, 67, 64
2, 269642, Note_on_c, 0, 67, 92
2, 269645, Note_off_c, 0, 73, 64
2, 269762, Note_on_c, 0, 69, 92
2, 269765, Note_off_c, 0, 67, 64
2, 269882, Note_on_c, 0, 70, 92
2, 269885, Note_off_c, 0, 69, 64
2, 270002, Note_on_c, 0, 69, 92
2, 270005, Note_off_c, 0, 70, 64
2, 270122, Note_on_c, 0, 67, 92
2, 270125, Note_off_c, 0, 69, 64
2, 270242, Note_on_c, 0, 76, 92
2, 270245, Note_off_c, 0, 67, 64
2, 270362, Note_on_c, 0, 67, 92
2, 270365, Note_off_c, 0, 76, 64
2, 270482, Note_on_c, 0, 69, 92
2, 270485, Note_off_c, 0, 67, 64
2, 270602, Note_on_c, 0, 70, 92
2, 270605, Note_off_c, 0, 69, 64
2, 270722, Note_on_c, 0, 69, 92
2, 270725, Note_off_c, 0, 70, 64
2, 270842, Note_on_c, 0, 67, 92
2, 270845, Note_off_c, 0, 69, 64
2, 270962, Note_on_c, 0, 65, 92
2, 270965, Note_off_c, 0, 67, 64
2, 271202, Note_on_c, 0, 77, 92
2, 271205, Note_off_c, 0, 65, 64
2, 271682, Note_on_c, 0, 77, 92
2, 271685, Note_off_c, 0, 77, 64
2, 271802, Note_on_c, 0, 76, 92
2, 271805, Note_off_c, 0, 77, 64
2, 271922, Note_on_c, 0, 79, 92
2, 271925, Note_off_c, 0, 76, 64
2, 272042, Note_on_c, 0, 77, 92
2, 272045, Note_off_c, 0, 79, 64
2, 272162, Note_on_c, 0, 76, 92
2, 272165, Note_off_c, 0, 77, 64
2, 272282, Note_on_c, 0, 74, 92
2, 272285, Note_off_c, 0, 76, 64
2, 272402, Note_on_c, 0, 73, 92
2, 272405, Note_off_c, 0, 74, 64
2, 272522, Note_on_c, 0, 82, 92
2, 272525, Note_off_c, 0, 73, 64
2, 272642, Note_on_c, 0, 81, 92
2, 272645, Note_off_c, 0, 82, 64
2, 272762, Note_on_c, 0, 79, 92
2, 272765, Note_off_c, 0, 81, 64
2, 272882, Note_on_c, 0, 77, 92
2, 272885, Note_off_c, 0, 79, 64
2, 273002, Note_on_c, 0, 76, 92
2, 273005, Note_off_c, 0, 77, 64
2, 273122, Note_on_c, 0, 74, 92
2, 273125, Note_off_c, 0, 76, 64
2, 273362, Note_on_c, 0, 76, 92
2, 273365, Note_off_c, 0, 74, 64
2, 273602, Note_on_c, 0, 73, 92
2, 273605, Note_off_c, 0, 76, 64
2, 273842, Note_on_c, 0, 74, 92
2, 273845, Note_off_c, 0, 73, 64
2, 274325, Note_off_c, 0, 74, 64
2, 274562, Note_on_c, 0, 77, 92
2, 274802, Note_on_c, 0, 74, 92
2, 274805, Note_off_c, 0, 77, 64
2, 275042, Note_on_c, 0, 69, 92
2, 275045, Note_off_c, 0, 74, 64
2, 275522, Note_on_c, 0, 73, 92
2, 275525, Note_off_c, 0, 69, 64
2, 275762, Note_on_c, 0, 76, 92
2, 275765, Note_off_c, 0, 73, 64
2, 276242, Note_on_c, 0, 74, 92
2, 276245, Note_off_c, 0, 76, 64
2, 276482, Note_on_c, 0, 82, 92
2, 276485, Note_off_c, 0, 74, 64
2, 276722, Note_on_c, 0, 77, 92
2, 276725, Note_off_c, 0, 82, 64
2, 276752, Note_on_c, 0, 76, 92
2, 276755, Note_off_c, 0, 77, 64
2, 276782, Note_on_c, 0, 77, 92
2, 276785, Note_off_c, 0, 76, 64
2, 276812, Note_on_c, 0, 76, 92
2, 276815, Note_off_c, 0, 77, 64
2, 276842, Note_on_c, 0, 77, 92
2, 276845, Note_off_c, 0, 76, 64
2, 276872, Note_on_c, 0, 76, 92
2, 276875, Note_off_c, 0, 77, 64
2, 276902, Note_on_c, 0, 77, 92
2, 276905, Note_off_c, 0, 76, 64
2, 276932, Note_on_c, 0, 76, 92
2, 276935, Note_off_c, 0, 77, 64
2, 276962, Note_on_c, 0, 77, 92
2, 276965, Note_off_c, 0, 76, 64
2, 276992, Note_on_c, 0, 76, 92
2, 276995, Note_off_c, 0, 77, 64
2, 277022, Note_on_c, 0, 77, 92
2, 277025, Note_off_c, 0, 76, 64
2, 277052, Note_on_c, 0, 76, 92
2, 277055, Note_off_c, 0, 77, 64
2, 277082, Note_on_c, 0, 77, 92
2, 277085, Note_off_c, 0, 76, 64
2, 277112, Note_on_c, 0, 76, 92
2, 277115, Note_off_c, 0, 77, 64
2, 277142, Note_on_c, 0, 77, 92
2, 277145, Note_off_c, 0, 76, 64
2, 277172, Note_on_c, 0, 76, 92
2, 277175, Note_off_c, 0, 77, 64
2, 277202, Note_on_c, 0, 77, 92
2, 277205, Note_off_c, 0, 76, 64
2, 277232, Note_on_c, 0, 76, 92
2, 277235, Note_off_c, 0, 77, 64
2, 277262, Note_on_c, 0, 77, 92
2, 277265, Note_off_c, 0, 76, 64
2, 277292, Note_on_c, 0, 76, 92
2, 277295, Note_off_c, 0, 77, 64
2, 277322, Note_on_c, 0, 77, 92
2, 277325, Note_off_c, 0, 76, 64
2, 277352, Note_on_c, 0, 76, 92
2, 277355, Note_off_c, 0, 77, 64
2, 277382, Note_on_c, 0, 77, 92
2, 277385, Note_off_c, 0, 76, 64
2, 277412, Note_on_c, 0, 76, 92
2, 277415, Note_off_c, 0, 77, 64
2, 277442, Note_on_c, 0, 69, 92
2, 277445, Note_off_c, 0, 76, 64
2, 277522, Note_on_c, 0, 68, 92
2, 277525, Note_off_c, 0, 69, 64
2, 277602, Note_on_c, 0, 69, 92
2, 277605, Note_off_c, 0, 68, 64
2, 277682, Note_on_c, 0, 64, 92
2, 277685, Note_off_c, 0, 69, 64
2, 277762, Note_on_c, 0, 69, 92
2, 277765, Note_off_c, 0, 64, 64
2, 277842, Note_on_c, 0, 71, 92
2, 277845, Note_off_c, 0, 69, 64
2, 277922, Note_on_c, 0, 72, 92
2, 277925, Note_off_c, 0, 71, 64
2, 278002, Note_on_c, 0, 71, 92
2, 278005, Note_off_c, 0, 72, 64
2, 278082, Note_on_c, 0, 69, 92
2, 278085, Note_off_c, 0, 71, 64
2, 278162, Note_on_c, 0, 71, 92
2, 278165, Note_off_c, 0, 69, 64
2, 278242, Note_on_c, 0, 69, 92
2, 278245, Note_off_c, 0, 71, 64
2, 278322, Note_on_c, 0, 71, 92
2, 278325, Note_off_c, 0, 69, 64
2, 278402, Note_on_c, 0, 64, 92
2, 278405, Note_off_c, 0, 71, 64
2, 278482, Note_on_c, 0, 71, 92
2, 278485, Note_off_c, 0, 64, 64
2, 278562, Note_on_c, 0, 72, 92
2, 278565, Note_off_c, 0, 71, 64
2, 278642, Note_on_c, 0, 74, 92
2, 278645, Note_off_c, 0, 72, 64
2, 278722, Note_on_c, 0, 72, 92
2, 278725, Note_off_c, 0, 74, 64
2, 278802, Note_on_c, 0, 71, 92
2, 278805, Note_off_c, 0, 72, 64
2, 278882, Note_on_c, 0, 72, 92
2, 278885, Note_off_c, 0, 71, 64
2, 278962, Note_on_c, 0, 71, 92
2, 278965, Note_off_c, 0, 72, 64
2, 279042, Note_on_c, 0, 69, 92
2, 279045, Note_off_c, 0, 71, 64
2, 279122, Note_on_c, 0, 76, 92
2, 279125, Note_off_c, 0, 69, 64
2, 279202, Note_on_c, 0, 74, 92
2, 279205, Note_off_c, 0, 76, 64
2, 279282, Note_on_c, 0, 72, 92
2, 279285, Note_off_c, 0, 74, 64
2, 279362, Note_on_c, 0, 71, 92
2, 279365, Note_off_c, 0, 72, 64
2, 279442, Note_on_c, 0, 72, 92
2, 279445, Note_off_c, 0, 71, 64
2, 279522, Note_on_c, 0, 69, 92
2, 279525, Note_off_c, 0, 72, 64
2, 279602, Note_on_c, 0, 68, 92
2, 279605, Note_off_c, 0, 69, 64
2, 279682, Note_on_c, 0, 69, 92
2, 279685, Note_off_c, 0, 68, 64
2, 279762, Note_on_c, 0, 71, 92
2, 279765, Note_off_c, 0, 69, 64
2, 279842, Note_on_c, 0, 64, 92
2, 279845, Note_off_c, 0, 71, 64
2, 279922, Note_on_c, 0, 68, 92
2, 279925, Note_off_c, 0, 64, 64
2, 280002, Note_on_c, 0, 71, 92
2, 280005, Note_off_c, 0, 68, 64
2, 280082, Note_on_c, 0, 74, 92
2, 280085, Note_off_c, 0, 71, 64
2, 280162, Note_on_c, 0, 72, 92
2, 280165, Note_off_c, 0, 74, 64
2, 280242, Note_on_c, 0, 71, 92
2, 280245, Note_off_c, 0, 72, 64
2, 280322, Note_on_c, 0, 72, 92
2, 280325, Note_off_c, 0, 71, 64
2, 280402, Note_on_c, 0, 74, 92
2, 280405, Note_off_c, 0, 72, 64
2, 280482, Note_on_c, 0, 76, 92
2, 280485, Note_off_c, 0, 74, 64
2, 280562, Note_on_c, 0, 69, 92
2, 280565, Note_off_c, 0, 76, 64
2, 280642, Note_on_c, 0, 71, 92
2, 280645, Note_off_c, 0, 69, 64
2, 280722, Note_on_c, 0, 72, 92
2, 280725, Note_off_c, 0, 71, 64
2, 280802, Note_on_c, 0, 65, 92
2, 280805, Note_off_c, 0, 72, 64
2, 281042, Note_on_c, 0, 74, 92
2, 281045, Note_off_c, 0, 65, 64
2, 281122, Note_on_c, 0, 76, 92
2, 281125, Note_off_c, 0, 74, 64
2, 281202, Note_on_c, 0, 77, 92
2, 281205, Note_off_c, 0, 76, 64
2, 281282, Note_on_c, 0, 71, 92
2, 281285, Note_off_c, 0, 77, 64
2, 281362, Note_on_c, 0, 72, 92
2, 281365, Note_off_c, 0, 71, 64
2, 281442, Note_on_c, 0, 74, 92
2, 281445, Note_off_c, 0, 72, 64
2, 281522, Note_on_c, 0, 67, 92
2, 281525, Note_off_c, 0, 74, 64
2, 281762, Note_on_c, 0, 76, 92
2, 281765, Note_off_c, 0, 67, 64
2, 281842, Note_on_c, 0, 77, 92
2, 281845, Note_off_c, 0, 76, 64
2, 281922, Note_on_c, 0, 79, 92
2, 281925, Note_off_c, 0, 77, 64
2, 282002, Note_on_c, 0, 72, 92
2, 282005, Note_off_c, 0, 79, 64
2, 282082, Note_on_c, 0, 74, 92
2, 282085, Note_off_c, 0, 72, 64
2, 282162, Note_on_c, 0, 76, 92
2, 282165, Note_off_c, 0, 74, 64
2, 282242, Note_on_c, 0, 69, 92
2, 282245, Note_off_c, 0, 76, 64
2, 282482, Note_on_c, 0, 77, 92
2, 282485, Note_off_c, 0, 69, 64
2, 282562, Note_on_c, 0, 79, 92
2, 282565, Note_off_c, 0, 77, 64
2, 282642, Note_on_c, 0, 81, 92
2, 282645, Note_off_c, 0, 79, 64
2, 282722, Note_on_c, 0, 74, 92
2, 282725, Note_off_c, 0, 81, 64
2, 282802, Note_on_c, 0, 76, 92
2, 282805, Note_off_c, 0, 74, 64
2, 282882, Note_on_c, 0, 77, 92
2, 282885, Note_off_c, 0, 76, 64
2, 282962, Note_on_c, 0, 71, 92
2, 282965, Note_off_c, 0, 77, 64
2, 283142, Note_on_c, 0, 81, 92
2, 283145, Note_off_c, 0, 71, 64
2, 283202, Note_on_c, 0, 80, 92
2, 283205, Note_off_c, 0, 81, 64
2, 283282, Note_on_c, 0, 81, 92
2, 283285, Note_off_c, 0, 80, 64
2, 283362, Note_on_c, 0, 83, 92
2, 283365, Note_off_c, 0, 81, 64
2, 283442, Note_on_c, 0, 76, 92
2, 283445, Note_off_c, 0, 83, 64
2, 283685, Note_off_c, 0, 76, 64
2, 283922, Note_on_c, 0, 76, 92
2, 284002, Note_on_c, 0, 77, 92
2, 284005, Note_off_c, 0, 76, 64
2, 284082, Note_on_c, 0, 79, 92
2, 284085, Note_off_c, 0, 77, 64
2, 284162, Note_on_c, 0, 73, 92
2, 284165, Note_off_c, 0, 79, 64
2, 284242, Note_on_c, 0, 74, 92
2, 284245, Note_off_c, 0, 73, 64
2, 284322, Note_on_c, 0, 76, 92
2, 284325, Note_off_c, 0, 74, 64
2, 284402, Note_on_c, 0, 69, 92
2, 284405, Note_off_c, 0, 76, 64
2, 284582, Note_on_c, 0, 79, 92
2, 284585, Note_off_c, 0, 69, 64
2, 284642, Note_on_c, 0, 78, 92
2, 284645, Note_off_c, 0, 79, 64
2, 284722, Note_on_c, 0, 79, 92
2, 284725, Note_off_c, 0, 78, 64
2, 284802, Note_on_c, 0, 81, 92
2, 284805, Note_off_c, 0, 79, 64
2, 284882, Note_on_c, 0, 74, 92
2, 284885, Note_off_c, 0, 81, 64
2, 285125, Note_off_c, 0, 74, 64
2, 285362, Note_on_c, 0, 74, 92
2, 285442, Note_on_c, 0, 76, 92
2, 285445, Note_off_c, 0, 74, 64
2, 285522, Note_on_c, 0, 77, 92
2, 285525, Note_off_c, 0, 76, 64
2, 285602, Note_on_c, 0, 71, 92
2, 285605, Note_off_c, 0, 77, 64
2, 285682, Note_on_c, 0, 72, 92
2, 285685, Note_off_c, 0, 71, 64
2, 285762, Note_on_c, 0, 74, 92
2, 285765, Note_off_c, 0, 72, 64
2, 285842, Note_on_c, 0, 67, 92
2, 285845, Note_off_c, 0, 74, 64
2, 286022, Note_on_c, 0, 77, 92
2, 286025, Note_off_c, 0, 67, 64
2, 286082, Note_on_c, 0, 76, 92
2, 286085, Note_off_c, 0, 77, 64
2, 286882, Note_on_c, 0, 74, 92
2, 286885, Note_off_c, 0, 76, 64
2, 286962, Note_on_c, 0, 76, 92
2, 286965, Note_off_c, 0, 74, 64
2, 287042, Note_on_c, 0, 69, 92
2, 287045, Note_off_c, 0, 76, 64
2, 287122, Note_on_c, 0, 76, 92
2, 287125, Note_off_c, 0, 69, 64
2, 287202, Note_on_c, 0, 77, 92
2, 287205, Note_off_c, 0, 76, 64
2, 287282, Note_on_c, 0, 79, 92
2, 287285, Note_off_c, 0, 77, 64
2, 287362, Note_on_c, 0, 77, 92
2, 287365, Note_off_c, 0, 79, 64
2, 287442, Note_on_c, 0, 76, 92
2, 287445, Note_off_c, 0, 77, 64
2, 287522, Note_on_c, 0, 77, 92
2, 287525, Note_off_c, 0, 76, 64
2, 288322, Note_on_c, 0, 76, 92
2, 288325, Note_off_c, 0, 77, 64
2, 288402, Note_on_c, 0, 77, 92
2, 288405, Note_off_c, 0, 76, 64
2, 288482, Note_on_c, 0, 71, 92
2, 288485, Note_off_c, 0, 77, 64
2, 288562, Note_on_c, 0, 74, 92
2, 288565, Note_off_c, 0, 71, 64
2, 288642, Note_on_c, 0, 76, 92
2, 288645, Note_off_c, 0, 74, 64
2, 288722, Note_on_c, 0, 77, 92
2, 288725, Note_off_c, 0, 76, 64
2, 288802, Note_on_c, 0, 76, 92
2, 288805, Note_off_c, 0, 77, 64
2, 288882, Note_on_c, 0, 74, 92
2, 288885, Note_off_c, 0, 76, 64
2, 288962, Note_on_c, 0, 72, 92
2, 288965, Note_off_c, 0, 74, 64
2, 289202, Note_on_c, 0, 74, 92
2, 289205, Note_off_c, 0, 72, 64
2, 289232, Note_on_c, 0, 76, 92
2, 289235, Note_off_c, 0, 74, 64
2, 289262, Note_on_c, 0, 74, 92
2, 289265, Note_off_c, 0, 76, 64
2, 289442, Note_on_c, 0, 76, 92
2, 289445, Note_off_c, 0, 74, 64
2, 289682, Note_on_c, 0, 77, 92
2, 289685, Note_off_c, 0, 76, 64
2, 289922, Note_on_c, 0, 76, 92
2, 289925, Note_off_c, 0, 77, 64
2, 290162, Note_on_c, 0, 74, 92
2, 290165, Note_off_c, 0, 76, 64
2, 290402, Note_on_c, 0, 76, 92
2, 290405, Note_off_c, 0, 74, 64
2, 290522, Note_on_c, 0, 69, 92
2, 290525, Note_off_c, 0, 76, 64
2, 290642, Note_on_c, 0, 72, 92
2, 290645, Note_off_c, 0, 69, 64
2, 290762, Note_on_c, 0, 71, 92
2, 290765, Note_off_c, 0, 72, 64
2, 290882, Note_on_c, 0, 69, 92
2, 290885, Note_off_c, 0, 71, 64
2, 291002, Note_on_c, 0, 68, 92
2, 291005, Note_off_c, 0, 69, 64
2, 291122, Note_on_c, 0, 69, 92
2, 291125, Note_off_c, 0, 68, 64
2, 291202, Note_on_c, 0, 64, 92
2, 291205, Note_off_c, 0, 69, 64
2, 291282, Note_on_c, 0, 69, 92
2, 291285, Note_off_c, 0, 64, 64
2, 291362, Note_on_c, 0, 73, 92
2, 291365, Note_off_c, 0, 69, 64
2, 291442, Note_on_c, 0, 69, 92
2, 291445, Note_off_c, 0, 73, 64
2, 291522, Note_on_c, 0, 73, 92
2, 291525, Note_off_c, 0, 69, 64
2, 291602, Note_on_c, 0, 76, 92
2, 291605, Note_off_c, 0, 73, 64
2, 291682, Note_on_c, 0, 74, 92
2, 291685, Note_off_c, 0, 76, 64
2, 291762, Note_on_c, 0, 73, 92
2, 291765, Note_off_c, 0, 74, 64
2, 291842, Note_on_c, 0, 74, 92
2, 291845, Note_off_c, 0, 73, 64
2, 291922, Note_on_c, 0, 69, 92
2, 291925, Note_off_c, 0, 74, 64
2, 292002, Note_on_c, 0, 74, 92
2, 292005, Note_off_c, 0, 69, 64
2, 292082, Note_on_c, 0, 77, 92
2, 292085, Note_off_c, 0, 74, 64
2, 292162, Note_on_c, 0, 74, 92
2, 292165, Note_off_c, 0, 77, 64
2, 292242, Note_on_c, 0, 77, 92
2, 292245, Note_off_c, 0, 74, 64
2, 292322, Note_on_c, 0, 82, 92
2, 292325, Note_off_c, 0, 77, 64
2, 292682, Note_on_c, 0, 76, 92
2, 292685, Note_off_c, 0, 82, 64
2, 292802, Note_on_c, 0, 81, 92
2, 292805, Note_off_c, 0, 76, 64
2, 292922, Note_on_c, 0, 79, 92
2, 292925, Note_off_c, 0, 81, 64
2, 293042, Note_on_c, 0, 77, 92
2, 293045, Note_off_c, 0, 79, 64
2, 293162, Note_on_c, 0, 76, 92
2, 293165, Note_off_c, 0, 77, 64
2, 293282, Note_on_c, 0, 74, 92
2, 293285, Note_off_c, 0, 76, 64
2, 293402, Note_on_c, 0, 76, 92
2, 293405, Note_off_c, 0, 74, 64
2, 293522, Note_on_c, 0, 76, 92
2, 293525, Note_off_c, 0, 76, 64
2, 293552, Note_on_c, 0, 77, 92
2, 293555, Note_off_c, 0, 76, 64
2, 293582, Note_on_c, 0, 76, 92
2, 293585, Note_off_c, 0, 77, 64
2, 293882, Note_on_c, 0, 74, 92
2, 293885, Note_off_c, 0, 76, 64
2, 293942, Note_on_c, 0, 76, 92
2, 293945, Note_off_c, 0, 74, 64
2, 294002, Note_on_c, 0, 77, 92
2, 294005, Note_off_c, 0, 76, 64
2, 294362, Note_on_c, 0, 65, 92
2, 294365, Note_off_c, 0, 77, 64
2, 294422, Note_on_c, 0, 67, 92
2, 294425, Note_off_c, 0, 65, 64
2, 294482, Note_on_c, 0, 69, 92
2, 294485, Note_off_c, 0, 67, 64
2, 294542, Note_on_c, 0, 71, 92
2, 294545, Note_off_c, 0, 69, 64
2, 294602, Note_on_c, 0, 73, 92
2, 294605, Note_off_c, 0, 71, 64
2, 294722, Note_on_c, 0, 74, 92
2, 294725, Note_off_c, 0, 73, 64
2, 294962, Note_on_c, 0, 79, 92
2, 294965, Note_off_c, 0, 74, 64
2, 295202, Note_on_c, 0, 82, 92
2, 295205, Note_off_c, 0, 79, 64
2, 295682, Note_on_c, 0, 76, 92
2, 295685, Note_off_c, 0, 82, 64
2, 295922, Note_on_c, 0, 79, 92
2, 295925, Note_off_c, 0, 76, 64
2, 296402, Note_on_c, 0, 73, 92
2, 296405, Note_off_c, 0, 79, 64
2, 296642, Note_on_c, 0, 76, 92
2, 296645, Note_off_c, 0, 73, 64
2, 297002, Note_on_c, 0, 69, 92
2, 297005, Note_off_c, 0, 76, 64
2, 297122, Note_on_c, 0, 74, 92
2, 297125, Note_off_c, 0, 69, 64
2, 297242, Note_on_c, 0, 72, 92
2, 297245, Note_off_c, 0, 74, 64
2, 297362, Note_on_c, 0, 70, 92
2, 297365, Note_off_c, 0, 72, 64
2, 297482, Note_on_c, 0, 69, 92
2, 297485, Note_off_c, 0, 70, 64
2, 297602, Note_on_c, 0, 70, 92
2, 297605, Note_off_c, 0, 69, 64
2, 297842, Note_on_c, 0, 74, 92
2, 297845, Note_off_c, 0, 70, 64
2, 298082, Note_on_c, 0, 79, 92
2, 298085, Note_off_c, 0, 74, 64
2, 298562, Note_on_c, 0, 73, 92
2, 298565, Note_off_c, 0, 79, 64
2, 298682, Note_on_c, 0, 82, 92
2, 298685, Note_off_c, 0, 73, 64
2, 298802, Note_on_c, 0, 81, 92
2, 298805, Note_off_c, 0, 82, 64
2, 298922, Note_on_c, 0, 79, 92
2, 298925, Note_off_c, 0, 81, 64
2, 299042, Note_on_c, 0, 77, 92
2, 299045, Note_off_c, 0, 79, 64
2, 299282, Note_on_c, 0, 79, 92
2, 299285, Note_off_c, 0, 77, 64
2, 299522, Note_on_c, 0, 76, 92
2, 299525, Note_off_c, 0, 79, 64
2, 299762, Note_on_c, 0, 74, 92
2, 299765, Note_off_c, 0, 76, 64
2, 300245, Note_off_c, 0, 74, 64
2, 300482, Note_on_c, 0, 74, 92
2, 300562, Note_on_c, 0, 65, 92
2, 300565, Note_off_c, 0, 74, 64
2, 300642, Note_on_c, 0, 67, 92
2, 300645, Note_off_c, 0, 65, 64
2, 300722, Note_on_c, 0, 69, 92
2, 300725, Note_off_c, 0, 67, 64
2, 300802, Note_on_c, 0, 70, 92
2, 300805, Note_off_c, 0, 69, 64
2, 300882, Note_on_c, 0, 72, 92
2, 300885, Note_off_c, 0, 70, 64
2, 300962, Note_on_c, 0, 74, 92
2, 300965, Note_off_c, 0, 72, 64
2, 301042, Note_on_c, 0, 75, 92
2, 301045, Note_off_c, 0, 74, 64
2, 301122, Note_on_c, 0, 77, 92
2, 301125, Note_off_c, 0, 75, 64
2, 301202, Note_on_c, 0, 75, 92
2, 301205, Note_off_c, 0, 77, 64
2, 301282, Note_on_c, 0, 72, 92
2, 301285, Note_off_c, 0, 75, 64
2, 301362, Note_on_c, 0, 74, 92
2, 301365, Note_off_c, 0, 72, 64
2, 301442, Note_on_c, 0, 75, 92
2, 301445, Note_off_c, 0, 74, 64
2, 301522, Note_on_c, 0, 77, 92
2, 301525, Note_off_c, 0, 75, 64
2, 301602, Note_on_c, 0, 79, 92
2, 301605, Note_off_c, 0, 77, 64
2, 301682, Note_on_c, 0, 81, 92
2, 301685, Note_off_c, 0, 79, 64
2, 301762, Note_on_c, 0, 82, 92
2, 301765, Note_off_c, 0, 81, 64
2, 301842, Note_on_c, 0, 84, 92
2, 301845, Note_off_c, 0, 82, 64
2, 301922, Note_on_c, 0, 82, 92
2, 301925, Note_off_c, 0, 84, 64
2, 302162, Note_on_c, 0, 77, 92
2, 302165, Note_off_c, 0, 82, 64
2, 302402, Note_on_c, 0, 82, 92
2, 302405, Note_off_c, 0, 77, 64
2, 302722, Note_on_c, 0, 81, 92
2, 302725, Note_off_c, 0, 82, 64
2, 302802, Note_on_c, 0, 79, 92
2, 302805, Note_off_c, 0, 81, 64
2, 302882, Note_on_c, 0, 77, 92
2, 302885, Note_off_c, 0, 79, 64
2, 302962, Note_on_c, 0, 81, 92
2, 302965, Note_off_c, 0, 77, 64
2, 303042, Note_on_c, 0, 84, 92
2, 303045, Note_off_c, 0, 81, 64
2, 303122, Note_on_c, 0, 76, 92
2, 303125, Note_off_c, 0, 84, 64
2, 303202, Note_on_c, 0, 79, 92
2, 303205, Note_off_c, 0, 76, 64
2, 303282, Note_on_c, 0, 82, 92
2, 303285, Note_off_c, 0, 79, 64
2, 303362, Note_on_c, 0, 72, 92
2, 303365, Note_off_c, 0, 82, 64
2, 303842, Note_on_c, 0, 77, 92
2, 303845, Note_off_c, 0, 72, 64
2, 303902, Note_on_c, 0, 79, 92
2, 303905, Note_off_c, 0, 77, 64
2, 303962, Note_on_c, 0, 81, 92
2, 303965, Note_off_c, 0, 79, 64
2, 304082, Note_on_c, 0, 79, 92
2, 304085, Note_off_c, 0, 81, 64
2, 304562, Note_on_c, 0, 70, 92
2, 304565, Note_off_c, 0, 79, 64
2, 304922, Note_on_c, 0, 69, 92
2, 304925, Note_off_c, 0, 70, 64
2, 305042, Note_on_c, 0, 70, 92
2, 305045, Note_off_c, 0, 69, 64
2, 305162, Note_on_c, 0, 69, 92
2, 305165, Note_off_c, 0, 70, 64
2, 305282, Note_on_c, 0, 67, 92
2, 305285, Note_off_c, 0, 69, 64
2, 305402, Note_on_c, 0, 65, 92
2, 305405, Note_off_c, 0, 67, 64
2, 305522, Note_on_c, 0, 72, 92
2, 305525, Note_off_c, 0, 65, 64
2, 306005, Note_off_c, 0, 72, 64
2, 306242, Note_on_c, 0, 76, 92
2, 306362, Note_on_c, 0, 78, 92
2, 306365, Note_off_c, 0, 76, 64
2, 306482, Note_on_c, 0, 78, 92
2, 306485, Note_off_c, 0, 78, 64
2, 306512, Note_on_c, 0, 79, 92
2, 306515, Note_off_c, 0, 78, 64
2, 306542, Note_on_c, 0, 78, 92
2, 306545, Note_off_c, 0, 79, 64
2, 306842, Note_on_c, 0, 76, 92
2, 306845, Note_off_c, 0, 78, 64
2, 306902, Note_on_c, 0, 78, 92
2, 306905, Note_off_c, 0, 76, 64
2, 306962, Note_on_c, 0, 79, 92
2, 306965, Note_off_c, 0, 78, 64
2, 307042, Note_on_c, 0, 78, 92
2, 307045, Note_off_c, 0, 79, 64
2, 307122, Note_on_c, 0, 79, 92
2, 307125, Note_off_c, 0, 78, 64
2, 307202, Note_on_c, 0, 74, 92
2, 307205, Note_off_c, 0, 79, 64
2, 307282, Note_on_c, 0, 79, 92
2, 307285, Note_off_c, 0, 74, 64
2, 307362, Note_on_c, 0, 81, 92
2, 307365, Note_off_c, 0, 79, 64
2, 307442, Note_on_c, 0, 82, 92
2, 307445, Note_off_c, 0, 81, 64
2, 307522, Note_on_c, 0, 81, 92
2, 307525, Note_off_c, 0, 82, 64
2, 307602, Note_on_c, 0, 79, 92
2, 307605, Note_off_c, 0, 81, 64
2, 307682, Note_on_c, 0, 84, 92
2, 307685, Note_off_c, 0, 79, 64
2, 307762, Note_on_c, 0, 82, 92
2, 307765, Note_off_c, 0, 84, 64
2, 307842, Note_on_c, 0, 84, 92
2, 307845, Note_off_c, 0, 82, 64
2, 307922, Note_on_c, 0, 75, 92
2, 307925, Note_off_c, 0, 84, 64
2, 308002, Note_on_c, 0, 69, 92
2, 308005, Note_off_c, 0, 75, 64
2, 308082, Note_on_c, 0, 70, 92
2, 308085, Note_off_c, 0, 69, 64
2, 308162, Note_on_c, 0, 72, 92
2, 308165, Note_off_c, 0, 70, 64
2, 308242, Note_on_c, 0, 70, 92
2, 308245, Note_off_c, 0, 72, 64
2, 308322, Note_on_c, 0, 69, 92
2, 308325, Note_off_c, 0, 70, 64
2, 308402, Note_on_c, 0, 70, 92
2, 308405, Note_off_c, 0, 69, 64
2, 309122, Note_on_c, 0, 71, 92
2, 309125, Note_off_c, 0, 70, 64
2, 309152, Note_on_c, 0, 72, 92
2, 309155, Note_off_c, 0, 71, 64
2, 309182, Note_on_c, 0, 71, 92
2, 309185, Note_off_c, 0, 72, 64
2, 309722, Note_on_c, 0, 69, 92
2, 309725, Note_off_c, 0, 71, 64
2, 309782, Note_on_c, 0, 71, 92
2, 309785, Note_off_c, 0, 69, 64
2, 309842, Note_on_c, 0, 72, 92
2, 309845, Note_off_c, 0, 71, 64
2, 309922, Note_on_c, 0, 71, 92
2, 309925, Note_off_c, 0, 72, 64
2, 310002, Note_on_c, 0, 72, 92
2, 310005, Note_off_c, 0, 71, 64
2, 310082, Note_on_c, 0, 67, 92
2, 310085, Note_off_c, 0, 72, 64
2, 310162, Note_on_c, 0, 72, 92
2, 310165, Note_off_c, 0, 67, 64
2, 310242, Note_on_c, 0, 74, 92
2, 310245, Note_off_c, 0, 72, 64
2, 310322, Note_on_c, 0, 75, 92
2, 310325, Note_off_c, 0, 74, 64
2, 310402, Note_on_c, 0, 74, 92
2, 310405, Note_off_c, 0, 75, 64
2, 310482, Note_on_c, 0, 72, 92
2, 310485, Note_off_c, 0, 74, 64
2, 310562, Note_on_c, 0, 74, 92
2, 310565, Note_off_c, 0, 72, 64
2, 310802, Note_on_c, 0, 67, 92
2, 310805, Note_off_c, 0, 74, 64
2, 311042, Note_on_c, 0, 66, 92
2, 311045, Note_off_c, 0, 67, 64
2, 311282, Note_on_c, 0, 67, 92
2, 311285, Note_off_c, 0, 66, 64
2, 311522, Note_on_c, 0, 70, 92
2, 311525, Note_off_c, 0, 67, 64
2, 312082, Note_on_c, 0, 69, 92
2, 312085, Note_off_c, 0, 70, 64
2, 312162, Note_on_c, 0, 70, 92
2, 312165, Note_off_c, 0, 69, 64
2, 312242, Note_on_c, 0, 79, 92
2, 312245, Note_off_c, 0, 70, 64
2, 312322, Note_on_c, 0, 70, 92
2, 312325, Note_off_c, 0, 79, 64
2, 312402, Note_on_c, 0, 69, 92
2, 312405, Note_off_c, 0, 70, 64
2, 312482, Note_on_c, 0, 67, 92
2, 312485, Note_off_c, 0, 69, 64
2, 312562, Note_on_c, 0, 69, 92
2, 312565, Note_off_c, 0, 67, 64
2, 312642, Note_on_c, 0, 70, 92
2, 312645, Note_off_c, 0, 69, 64
2, 312722, Note_on_c, 0, 69, 92
2, 312725, Note_off_c, 0, 70, 64
2, 313522, Note_on_c, 0, 67, 92
2, 313525, Note_off_c, 0, 69, 64
2, 313602, Note_on_c, 0, 69, 92
2, 313605, Note_off_c, 0, 67, 64
2, 313682, Note_on_c, 0, 77, 92
2, 313685, Note_off_c, 0, 69, 64
2, 313762, Note_on_c, 0, 69, 92
2, 313765, Note_off_c, 0, 77, 64
2, 313842, Note_on_c, 0, 67, 92
2, 313845, Note_off_c, 0, 69, 64
2, 313922, Note_on_c, 0, 65, 92
2, 313925, Note_off_c, 0, 67, 64
2, 314002, Note_on_c, 0, 67, 92
2, 314005, Note_off_c, 0, 65, 64
2, 314082, Note_on_c, 0, 69, 92
2, 314085, Note_off_c, 0, 67, 64
2, 314162, Note_on_c, 0, 67, 92
2, 314165, Note_off_c, 0, 69, 64
2, 314962, Note_on_c, 0, 65, 92
2, 314965, Note_off_c, 0, 67, 64
2, 315042, Note_on_c, 0, 67, 92
2, 315045, Note_off_c, 0, 65, 64
2, 315122, Note_on_c, 0, 76, 92
2, 315125, Note_off_c, 0, 67, 64
2, 315202, Note_on_c, 0, 67, 92
2, 315205, Note_off_c, 0, 76, 64
2, 315282, Note_on_c, 0, 65, 92
2, 315285, Note_off_c, 0, 67, 64
2, 315362, Note_on_c, 0, 64, 92
2, 315365, Note_off_c, 0, 65, 64
2, 315442, Note_on_c, 0, 65, 92
2, 315445, Note_off_c, 0, 64, 64
2, 315522, Note_on_c, 0, 67, 92
2, 315525, Note_off_c, 0, 65, 64
2, 315602, Note_on_c, 0, 65, 92
2, 315605, Note_off_c, 0, 67, 64
2, 315682, Note_on_c, 0, 64, 92
2, 315685, Note_off_c, 0, 65, 64
2, 315762, Note_on_c, 0, 62, 92
2, 315765, Note_off_c, 0, 64, 64
2, 315842, Note_on_c, 0, 69, 92
2, 315845, Note_off_c, 0, 62, 64
2, 315922, Note_on_c, 0, 67, 92
2, 315925, Note_off_c, 0, 69, 64
2, 316002, Note_on_c, 0, 65, 92
2, 316005, Note_off_c, 0, 67, 64
2, 316082, Note_on_c, 0, 74, 92
2, 316085, Note_off_c, 0, 65, 64
2, 316402, Note_on_c, 0, 72, 92
2, 316405, Note_off_c, 0, 74, 64
2, 316482, Note_on_c, 0, 71, 92
2, 316485, Note_off_c, 0, 72, 64
2, 316562, Note_on_c, 0, 77, 92
2, 316565, Note_off_c, 0, 71, 64
2, 316642, Note_on_c, 0, 76, 92
2, 316645, Note_off_c, 0, 77, 64
2, 316722, Note_on_c, 0, 74, 92
2, 316725, Note_off_c, 0, 76, 64
2, 316802, Note_on_c, 0, 83, 92
2, 316805, Note_off_c, 0, 74, 64
2, 317122, Note_on_c, 0, 84, 92
2, 317125, Note_off_c, 0, 83, 64
2, 317202, Note_on_c, 0, 81, 92
2, 317205, Note_off_c, 0, 84, 64
2, 317282, Note_on_c, 0, 80, 92
2, 317285, Note_off_c, 0, 81, 64
2, 317362, Note_on_c, 0, 81, 92
2, 317365, Note_off_c, 0, 80, 64
2, 317442, Note_on_c, 0, 83, 92
2, 317445, Note_off_c, 0, 81, 64
2, 317522, Note_on_c, 0, 76, 92
2, 317525, Note_off_c, 0, 83, 64
2, 317842, Note_on_c, 0, 72, 92
2, 317845, Note_off_c, 0, 76, 64
2, 317922, Note_on_c, 0, 74, 92
2, 317925, Note_off_c, 0, 72, 64
2, 318002, Note_on_c, 0, 76, 92
2, 318005, Note_off_c, 0, 74, 64
2, 318082, Note_on_c, 0, 78, 92
2, 318085, Note_off_c, 0, 76, 64
2, 318162, Note_on_c, 0, 80, 92
2, 318165, Note_off_c, 0, 78, 64
2, 318242, Note_on_c, 0, 81, 92
2, 318245, Note_off_c, 0, 80, 64
2, 318322, Note_on_c, 0, 83, 92
2, 318325, Note_off_c, 0, 81, 64
2, 318402, Note_on_c, 0, 84, 92
2, 318405, Note_off_c, 0, 83, 64
2, 318482, Note_on_c, 0, 83, 92
2, 318485, Note_off_c, 0, 84, 64
2, 318962, Note_on_c, 0, 76, 92
2, 318965, Note_off_c, 0, 83, 64
2, 319322, Note_on_c, 0, 81, 92
2, 319325, Note_off_c, 0, 76, 64
2, 319442, Note_on_c, 0, 79, 92
2, 319445, Note_off_c, 0, 81, 64
2, 319562, Note_on_c, 0, 77, 92
2, 319565, Note_off_c, 0, 79, 64
2, 319682, Note_on_c, 0, 76, 92
2, 319685, Note_off_c, 0, 77, 64
2, 319802, Note_on_c, 0, 74, 92
2, 319805, Note_off_c, 0, 76, 64
2, 319922, Note_on_c, 0, 79, 92
2, 319925, Note_off_c, 0, 74, 64
2, 319982, Note_on_c, 0, 77, 92
2, 319985, Note_off_c, 0, 79, 64
2, 320042, Note_on_c, 0, 76, 92
2, 320045, Note_off_c, 0, 77, 64
2, 320162, Note_on_c, 0, 77, 92
2, 320165, Note_off_c, 0, 76, 64
2, 320222, Note_on_c, 0, 76, 92
2, 320225, Note_off_c, 0, 77, 64
2, 320282, Note_on_c, 0, 74, 92
2, 320285, Note_off_c, 0, 76, 64
2, 320402, Note_on_c, 0, 72, 92
2, 320405, Note_off_c, 0, 74, 64
2, 320762, Note_on_c, 0, 74, 92
2, 320765, Note_off_c, 0, 72, 64
2, 320882, Note_on_c, 0, 76, 92
2, 320885, Note_off_c, 0, 74, 64
2, 321002, Note_on_c, 0, 77, 92
2, 321005, Note_off_c, 0, 76, 64
2, 321122, Note_on_c, 0, 76, 92
2, 321125, Note_off_c, 0, 77, 64
2, 321242, Note_on_c, 0, 74, 92
2, 321245, Note_off_c, 0, 76, 64
2, 321362, Note_on_c, 0, 80, 92
2, 321365, Note_off_c, 0, 74, 64
2, 321482, Note_on_c, 0, 74, 92
2, 321485, Note_off_c, 0, 80, 64
2, 321602, Note_on_c, 0, 76, 92
2, 321605, Note_off_c, 0, 74, 64
2, 321722, Note_on_c, 0, 77, 92
2, 321725, Note_off_c, 0, 76, 64
2, 321842, Note_on_c, 0, 76, 92
2, 321845, Note_off_c, 0, 77, 64
2, 321962, Note_on_c, 0, 74, 92
2, 321965, Note_off_c, 0, 76, 64
2, 322082, Note_on_c, 0, 83, 92
2, 322085, Note_off_c, 0, 74, 64
2, 322202, Note_on_c, 0, 74, 92
2, 322205, Note_off_c, 0, 83, 64
2, 322322, Note_on_c, 0, 76, 92
2, 322325, Note_off_c, 0, 74, 64
2, 322442, Note_on_c, 0, 77, 92
2, 322445, Note_off_c, 0, 76, 64
2, 322562, Note_on_c, 0, 76, 92
2, 322565, Note_off_c, 0, 77, 64
2, 322682, Note_on_c, 0, 74, 92
2, 322685, Note_off_c, 0, 76, 64
2, 322802, Note_on_c, 0, 72, 92
2, 322805, Note_off_c, 0, 74, 64
2, 323642, Note_on_c, 0, 71, 92
2, 323645, Note_off_c, 0, 72, 64
2, 323762, Note_on_c, 0, 74, 92
2, 323765, Note_off_c, 0, 71, 64
2, 323882, Note_on_c, 0, 72, 92
2, 323885, Note_off_c, 0, 74, 64
2, 324002, Note_on_c, 0, 71, 92
2, 324005, Note_off_c, 0, 72, 64
2, 324122, Note_on_c, 0, 69, 92
2, 324125, Note_off_c, 0, 71, 64
2, 324242, Note_on_c, 0, 68, 92
2, 324245, Note_off_c, 0, 69, 64
2, 324362, Note_on_c, 0, 77, 92
2, 324365, Note_off_c, 0, 68, 64
2, 324482, Note_on_c, 0, 76, 92
2, 324485, Note_off_c, 0, 77, 64
2, 324602, Note_on_c, 0, 74, 92
2, 324605, Note_off_c, 0, 76, 64
2, 324722, Note_on_c, 0, 72, 92
2, 324725, Note_off_c, 0, 74, 64
2, 324842, Note_on_c, 0, 71, 92
2, 324845, Note_off_c, 0, 72, 64
2, 324962, Note_on_c, 0, 69, 92
2, 324965, Note_off_c, 0, 71, 64
2, 325202, Note_on_c, 0, 71, 92
2, 325205, Note_off_c, 0, 69, 64
2, 325442, Note_on_c, 0, 68, 92
2, 325445, Note_off_c, 0, 71, 64
2, 325682, Note_on_c, 0, 69, 92
2, 325685, Note_off_c, 0, 68, 64
2, 325762, Note_on_c, 0, 64, 92
2, 325765, Note_off_c, 0, 69, 64
2, 325842, Note_on_c, 0, 69, 92
2, 325845, Note_off_c, 0, 64, 64
2, 325922, Note_on_c, 0, 72, 92
2, 325925, Note_off_c, 0, 69, 64
2, 326002, Note_on_c, 0, 69, 92
2, 326005, Note_off_c, 0, 72, 64
2, 326082, Note_on_c, 0, 72, 92
2, 326085, Note_off_c, 0, 69, 64
2, 326162, Note_on_c, 0, 76, 92
2, 326165, Note_off_c, 0, 72, 64
2, 326242, Note_on_c, 0, 72, 92
2, 326245, Note_off_c, 0, 76, 64
2, 326322, Note_on_c, 0, 76, 92
2, 326325, Note_off_c, 0, 72, 64
2, 326402, Note_on_c, 0, 81, 92
2, 326405, Note_off_c, 0, 76, 64
2, 327202, Note_on_c, 0, 84, 92
2, 327205, Note_off_c, 0, 81, 64
2, 327282, Note_on_c, 0, 81, 92
2, 327285, Note_off_c, 0, 84, 64
2, 327362, Note_on_c, 0, 78, 92
2, 327365, Note_off_c, 0, 81, 64
2, 327442, Note_on_c, 0, 81, 92
2, 327445, Note_off_c, 0, 78, 64
2, 327522, Note_on_c, 0, 78, 92
2, 327525, Note_off_c, 0, 81, 64
2, 327602, Note_on_c, 0, 75, 92
2, 327605, Note_off_c, 0, 78, 64
2, 327682, Note_on_c, 0, 78, 92
2, 327685, Note_off_c, 0, 75, 64
2, 327762, Note_on_c, 0, 75, 92
2, 327765, Note_off_c, 0, 78, 64
2, 327842, Note_on_c, 0, 71, 92
2, 327845, Note_off_c, 0, 75, 64
2, 328642, Note_on_c, 0, 79, 92
2, 328645, Note_off_c, 0, 71, 64
2, 328722, Note_on_c, 0, 76, 92
2, 328725, Note_off_c, 0, 79, 64
2, 328802, Note_on_c, 0, 71, 92
2, 328805, Note_off_c, 0, 76, 64
2, 328882, Note_on_c, 0, 76, 92
2, 328885, Note_off_c, 0, 71, 64
2, 328962, Note_on_c, 0, 71, 92
2, 328965, Note_off_c, 0, 76, 64
2, 329042, Note_on_c, 0, 67, 92
2, 329045, Note_off_c, 0, 71, 64
2, 329122, Note_on_c, 0, 71, 92
2, 329125, Note_off_c, 0, 67, 64
2, 329202, Note_on_c, 0, 67, 92
2, 329205, Note_off_c, 0, 71, 64
2, 329282, Note_on_c, 0, 64, 92
2, 329285, Note_off_c, 0, 67, 64
2, 329362, Note_on_c, 0, 61, 92
2, 329365, Note_off_c, 0, 64, 64
2, 329442, Note_on_c, 0, 64, 92
2, 329445, Note_off_c, 0, 61, 64
2, 329522, Note_on_c, 0, 67, 92
2, 329525, Note_off_c, 0, 64, 64
2, 329602, Note_on_c, 0, 64, 92
2, 329605, Note_off_c, 0, 67, 64
2, 329682, Note_on_c, 0, 67, 92
2, 329685, Note_off_c, 0, 64, 64
2, 329762, Note_on_c, 0, 70, 92
2, 329765, Note_off_c, 0, 67, 64
2, 329842, Note_on_c, 0, 67, 92
2, 329845, Note_off_c, 0, 70, 64
2, 329922, Note_on_c, 0, 70, 92
2, 329925, Note_off_c, 0, 67, 64
2, 330002, Note_on_c, 0, 76, 92
2, 330005, Note_off_c, 0, 70, 64
2, 330802, Note_on_c, 0, 79, 92
2, 330805, Note_off_c, 0, 76, 64
2, 330882, Note_on_c, 0, 76, 92
2, 330885, Note_off_c, 0, 79, 64
2, 330962, Note_on_c, 0, 73, 92
2, 330965, Note_off_c, 0, 76, 64
2, 331042, Note_on_c, 0, 76, 92
2, 331045, Note_off_c, 0, 73, 64
2, 331122, Note_on_c, 0, 73, 92
2, 331125, Note_off_c, 0, 76, 64
2, 331202, Note_on_c, 0, 69, 92
2, 331205, Note_off_c, 0, 73, 64
2, 331282, Note_on_c, 0, 73, 92
2, 331285, Note_off_c, 0, 69, 64
2, 331362, Note_on_c, 0, 69, 92
2, 331365, Note_off_c, 0, 73, 64
2, 331442, Note_on_c, 0, 65, 92
2, 331445, Note_off_c, 0, 69, 64
2, 331522, Note_on_c, 0, 62, 92
2, 331525, Note_off_c, 0, 65, 64
2, 331602, Note_on_c, 0, 65, 92
2, 331605, Note_off_c, 0, 62, 64
2, 331682, Note_on_c, 0, 69, 92
2, 331685, Note_off_c, 0, 65, 64
2, 331762, Note_on_c, 0, 65, 92
2, 331765, Note_off_c, 0, 69, 64
2, 331842, Note_on_c, 0, 69, 92
2, 331845, Note_off_c, 0, 65, 64
2, 331922, Note_on_c, 0, 74, 92
2, 331925, Note_off_c, 0, 69, 64
2, 332002, Note_on_c, 0, 69, 92
2, 332005, Note_off_c, 0, 74, 64
2, 332082, Note_on_c, 0, 74, 92
2, 332085, Note_off_c, 0, 69, 64
2, 332162, Note_on_c, 0, 77, 92
2, 332165, Note_off_c, 0, 74, 64
2, 332402, Note_on_c, 0, 65, 92
2, 332405, Note_off_c, 0, 77, 64
2, 332482, Note_on_c, 0, 67, 92
2, 332485, Note_off_c, 0, 65, 64
2, 332562, Note_on_c, 0, 69, 92
2, 332565, Note_off_c, 0, 67, 64
2, 332642, Note_on_c, 0, 62, 92
2, 332645, Note_off_c, 0, 69, 64
2, 332722, Note_on_c, 0, 64, 92
2, 332725, Note_off_c, 0, 62, 64
2, 332802, Note_on_c, 0, 65, 92
2, 332805, Note_off_c, 0, 64, 64
2, 332882, Note_on_c, 0, 58, 92
2, 332885, Note_off_c, 0, 65, 64
2, 333122, Note_on_c, 0, 67, 92
2, 333125, Note_off_c, 0, 58, 64
2, 333202, Note_on_c, 0, 69, 92
2, 333205, Note_off_c, 0, 67, 64
2, 333282, Note_on_c, 0, 70, 92
2, 333285, Note_off_c, 0, 69, 64
2, 333362, Note_on_c, 0, 64, 92
2, 333365, Note_off_c, 0, 70, 64
2, 333442, Note_on_c, 0, 65, 92
2, 333445, Note_off_c, 0, 64, 64
2, 333522, Note_on_c, 0, 67, 92
2, 333525, Note_off_c, 0, 65, 64
2, 333602, Note_on_c, 0, 60, 92
2, 333605, Note_off_c, 0, 67, 64
2, 333842, Note_on_c, 0, 69, 92
2, 333845, Note_off_c, 0, 60, 64
2, 333922, Note_on_c, 0, 70, 92
2, 333925, Note_off_c, 0, 69, 64
2, 334002, Note_on_c, 0, 72, 92
2, 334005, Note_off_c, 0, 70, 64
2, 334082, Note_on_c, 0, 65, 92
2, 334085, Note_off_c, 0, 72, 64
2, 334162, Note_on_c, 0, 67, 92
2, 334165, Note_off_c, 0, 65, 64
2, 334242, Note_on_c, 0, 69, 92
2, 334245, Note_off_c, 0, 67, 64
2, 334322, Note_on_c, 0, 62, 92
2, 334325, Note_off_c, 0, 69, 64
2, 334562, Note_on_c, 0, 70, 92
2, 334565, Note_off_c, 0, 62, 64
2, 334642, Note_on_c, 0, 72, 92
2, 334645, Note_off_c, 0, 70, 64
2, 334722, Note_on_c, 0, 74, 92
2, 334725, Note_off_c, 0, 72, 64
2, 334802, Note_on_c, 0, 67, 92
2, 334805, Note_off_c, 0, 74, 64
2, 334882, Note_on_c, 0, 69, 92
2, 334885, Note_off_c, 0, 67, 64
2, 334962, Note_on_c, 0, 70, 92
2, 334965, Note_off_c, 0, 69, 64
2, 335042, Note_on_c, 0, 64, 92
2, 335045, Note_off_c, 0, 70, 64
2, 335122, Note_on_c, 0, 65, 92
2, 335125, Note_off_c, 0, 64, 64
2, 335202, Note_on_c, 0, 67, 92
2, 335205, Note_off_c, 0, 65, 64
2, 335282, Note_on_c, 0, 61, 92
2, 335285, Note_off_c, 0, 67, 64
2, 335362, Note_on_c, 0, 62, 92
2, 335365, Note_off_c, 0, 61, 64
2, 335442, Note_on_c, 0, 64, 92
2, 335445, Note_off_c, 0, 62, 64
2, 335522, Note_on_c, 0, 57, 92
2, 335525, Note_off_c, 0, 64, 64
2, 335702, Note_on_c, 0, 67, 92
2, 335705, Note_off_c, 0, 57, 64
2, 335762, Note_on_c, 0, 66, 92
2, 335765, Note_off_c, 0, 67, 64
2, 335842, Note_on_c, 0, 67, 92
2, 335845, Note_off_c, 0, 66, 64
2, 335922, Note_on_c, 0, 69, 92
2, 335925, Note_off_c, 0, 67, 64
2, 336002, Note_on_c, 0, 62, 92
2, 336005, Note_off_c, 0, 69, 64
2, 336245, Note_off_c, 0, 62, 64
2, 336482, Note_on_c, 0, 74, 92
2, 336562, Note_on_c, 0, 76, 92
2, 336565, Note_off_c, 0, 74, 64
2, 336642, Note_on_c, 0, 77, 92
2, 336645, Note_off_c, 0, 76, 64
2, 336722, Note_on_c, 0, 71, 92
2, 336725, Note_off_c, 0, 77, 64
2, 336802, Note_on_c, 0, 72, 92
2, 336805, Note_off_c, 0, 71, 64
2, 336882, Note_on_c, 0, 74, 92
2, 336885, Note_off_c, 0, 72, 64
2, 336962, Note_on_c, 0, 67, 92
2, 336965, Note_off_c, 0, 74, 64
2, 337142, Note_on_c, 0, 77, 92
2, 337145, Note_off_c, 0, 67, 64
2, 337202, Note_on_c, 0, 76, 92
2, 337205, Note_off_c, 0, 77, 64
2, 337282, Note_on_c, 0, 77, 92
2, 337285, Note_off_c, 0, 76, 64
2, 337362, Note_on_c, 0, 79, 92
2, 337365, Note_off_c, 0, 77, 64
2, 337442, Note_on_c, 0, 72, 92
2, 337445, Note_off_c, 0, 79, 64
2, 337685, Note_off_c, 0, 72, 64
2, 337922, Note_on_c, 0, 72, 92
2, 338002, Note_on_c, 0, 70, 92
2, 338005, Note_off_c, 0, 72, 64
2, 338082, Note_on_c, 0, 72, 92
2, 338085, Note_off_c, 0, 70, 64
2, 338162, Note_on_c, 0, 65, 92
2, 338165, Note_off_c, 0, 72, 64
2, 338242, Note_on_c, 0, 72, 92
2, 338245, Note_off_c, 0, 65, 64
2, 338322, Note_on_c, 0, 74, 92
2, 338325, Note_off_c, 0, 72, 64
2, 338402, Note_on_c, 0, 75, 92
2, 338405, Note_off_c, 0, 74, 64
2, 338482, Note_on_c, 0, 74, 92
2, 338485, Note_off_c, 0, 75, 64
2, 338562, Note_on_c, 0, 72, 92
2, 338565, Note_off_c, 0, 74, 64
2, 338642, Note_on_c, 0, 74, 92
2, 338645, Note_off_c, 0, 72, 64
2, 339442, Note_on_c, 0, 72, 92
2, 339445, Note_off_c, 0, 74, 64
2, 339522, Note_on_c, 0, 74, 92
2, 339525, Note_off_c, 0, 72, 64
2, 339602, Note_on_c, 0, 67, 92
2, 339605, Note_off_c, 0, 74, 64
2, 339682, Note_on_c, 0, 74, 92
2, 339685, Note_off_c, 0, 67, 64
2, 339762, Note_on_c, 0, 76, 92
2, 339765, Note_off_c, 0, 74, 64
2, 339842, Note_on_c, 0, 77, 92
2, 339845, Note_off_c, 0, 76, 64
2, 339922, Note_on_c, 0, 76, 92
2, 339925, Note_off_c, 0, 77, 64
2, 340002, Note_on_c, 0, 74, 92
2, 340005, Note_off_c, 0, 76, 64
2, 340082, Note_on_c, 0, 76, 92
2, 340085, Note_off_c, 0, 74, 64
2, 340882, Note_on_c, 0, 74, 92
2, 340885, Note_off_c, 0, 76, 64
2, 340962, Note_on_c, 0, 76, 92
2, 340965, Note_off_c, 0, 74, 64
2, 341042, Note_on_c, 0, 77, 92
2, 341045, Note_off_c, 0, 76, 64
2, 341122, Note_on_c, 0, 79, 92
2, 341125, Note_off_c, 0, 77, 64
2, 341202, Note_on_c, 0, 81, 92
2, 341205, Note_off_c, 0, 79, 64
2, 341282, Note_on_c, 0, 79, 92
2, 341285, Note_off_c, 0, 81, 64
2, 341362, Note_on_c, 0, 81, 92
2, 341365, Note_off_c, 0, 79, 64
2, 341442, Note_on_c, 0, 77, 92
2, 341445, Note_off_c, 0, 81, 64
2, 341522, Note_on_c, 0, 84, 92
2, 341525, Note_off_c, 0, 77, 64
2, 341602, Note_on_c, 0, 82, 92
2, 341605, Note_off_c, 0, 84, 64
2, 341682, Note_on_c, 0, 81, 92
2, 341685, Note_off_c, 0, 82, 64
2, 341762, Note_on_c, 0, 81, 92
2, 341765, Note_off_c, 0, 81, 64
2, 341842, Note_on_c, 0, 79, 92
2, 341845, Note_off_c, 0, 81, 64
2, 341922, Note_on_c, 0, 77, 92
2, 341925, Note_off_c, 0, 79, 64
2, 342002, Note_on_c, 0, 77, 92
2, 342005, Note_off_c, 0, 77, 64
2, 342082, Note_on_c, 0, 75, 92
2, 342085, Note_off_c, 0, 77, 64
2, 342162, Note_on_c, 0, 74, 92
2, 342165, Note_off_c, 0, 75, 64
2, 342242, Note_on_c, 0, 74, 92
2, 342245, Note_off_c, 0, 74, 64
2, 342322, Note_on_c, 0, 72, 92
2, 342325, Note_off_c, 0, 74, 64
2, 342402, Note_on_c, 0, 70, 92
2, 342405, Note_off_c, 0, 72, 64
2, 342482, Note_on_c, 0, 70, 92
2, 342485, Note_off_c, 0, 70, 64
2, 342562, Note_on_c, 0, 69, 92
2, 342565, Note_off_c, 0, 70, 64
2, 342642, Note_on_c, 0, 67, 92
2, 342645, Note_off_c, 0, 69, 64
2, 342722, Note_on_c, 0, 67, 92
2, 342725, Note_off_c, 0, 67, 64
2, 342802, Note_on_c, 0, 69, 92
2, 342805, Note_off_c, 0, 67, 64
2, 342882, Note_on_c, 0, 70, 92
2, 342885, Note_off_c, 0, 69, 64
2, 342962, Note_on_c, 0, 69, 92
2, 342965, Note_off_c, 0, 70, 64
2, 343042, Note_on_c, 0, 77, 92
2, 343045, Note_off_c, 0, 69, 64
2, 343122, Note_on_c, 0, 76, 92
2, 343125, Note_off_c, 0, 77, 64
2, 343202, Note_on_c, 0, 74, 92
2, 343205, Note_off_c, 0, 76, 64
2, 343282, Note_on_c, 0, 72, 92
2, 343285, Note_off_c, 0, 74, 64
2, 343362, Note_on_c, 0, 70, 92
2, 343365, Note_off_c, 0, 72, 64
2, 343442, Note_on_c, 0, 69, 92
2, 343445, Note_off_c, 0, 70, 64
2, 343522, Note_on_c, 0, 70, 92
2, 343525, Note_off_c, 0, 69, 64
2, 343602, Note_on_c, 0, 67, 92
2, 343605, Note_off_c, 0, 70, 64
2, 343682, Note_on_c, 0, 65, 92
2, 343685, Note_off_c, 0, 67, 64
2, 343762, Note_on_c, 0, 64, 92
2, 343765, Note_off_c, 0, 65, 64
2, 343842, Note_on_c, 0, 65, 92
2, 343845, Note_off_c, 0, 64, 64
2, 343922, Note_on_c, 0, 60, 92
2, 343925, Note_off_c, 0, 65, 64
2, 344002, Note_on_c, 0, 65, 92
2, 344005, Note_off_c, 0, 60, 64
2, 344082, Note_on_c, 0, 67, 92
2, 344085, Note_off_c, 0, 65, 64
2, 344162, Note_on_c, 0, 69, 92
2, 344165, Note_off_c, 0, 67, 64
2, 344242, Note_on_c, 0, 67, 92
2, 344245, Note_off_c, 0, 69, 64
2, 344322, Note_on_c, 0, 65, 92
2, 344325, Note_off_c, 0, 67, 64
2, 344402, Note_on_c, 0, 67, 92
2, 344405, Note_off_c, 0, 65, 64
2, 344482, Note_on_c, 0, 65, 92
2, 344485, Note_off_c, 0, 67, 64
2, 344562, Note_on_c, 0, 67, 92
2, 344565, Note_off_c, 0, 65, 64
2, 344642, Note_on_c, 0, 60, 92
2, 344645, Note_off_c, 0, 67, 64
2, 344722, Note_on_c, 0, 67, 92
2, 344725, Note_off_c, 0, 60, 64
2, 344802, Note_on_c, 0, 69, 92
2, 344805, Note_off_c, 0, 67, 64
2, 344882, Note_on_c, 0, 70, 92
2, 344885, Note_off_c, 0, 69, 64
2, 344962, Note_on_c, 0, 69, 92
2, 344965, Note_off_c, 0, 70, 64
2, 345042, Note_on_c, 0, 67, 92
2, 345045, Note_off_c, 0, 69, 64
2, 345122, Note_on_c, 0, 69, 92
2, 345125, Note_off_c, 0, 67, 64
2, 345202, Note_on_c, 0, 67, 92
2, 345205, Note_off_c, 0, 69, 64
2, 345282, Note_on_c, 0, 65, 92
2, 345285, Note_off_c, 0, 67, 64
2, 345362, Note_on_c, 0, 72, 92
2, 345365, Note_off_c, 0, 65, 64
2, 345442, Note_on_c, 0, 70, 92
2, 345445, Note_off_c, 0, 72, 64
2, 345522, Note_on_c, 0, 69, 92
2, 345525, Note_off_c, 0, 70, 64
2, 345602, Note_on_c, 0, 67, 92
2, 345605, Note_off_c, 0, 69, 64
2, 345682, Note_on_c, 0, 69, 92
2, 345685, Note_off_c, 0, 67, 64
2, 345762, Note_on_c, 0, 65, 92
2, 345765, Note_off_c, 0, 69, 64
2, 345842, Note_on_c, 0, 64, 92
2, 345845, Note_off_c, 0, 65, 64
2, 345922, Note_on_c, 0, 65, 92
2, 345925, Note_off_c, 0, 64, 64
2, 346002, Note_on_c, 0, 67, 92
2, 346005, Note_off_c, 0, 65, 64
2, 346082, Note_on_c, 0, 60, 92
2, 346085, Note_off_c, 0, 67, 64
2, 346162, Note_on_c, 0, 64, 92
2, 346165, Note_off_c, 0, 60, 64
2, 346242, Note_on_c, 0, 67, 92
2, 346245, Note_off_c, 0, 64, 64
2, 346322, Note_on_c, 0, 72, 92
2, 346325, Note_off_c, 0, 67, 64
2, 346402, Note_on_c, 0, 70, 92
2, 346405, Note_off_c, 0, 72, 64
2, 346482, Note_on_c, 0, 69, 92
2, 346485, Note_off_c, 0, 70, 64
2, 346562, Note_on_c, 0, 70, 92
2, 346565, Note_off_c, 0, 69, 64
2, 346802, Note_on_c, 0, 67, 92
2, 346805, Note_off_c, 0, 70, 64
2, 347042, Note_on_c, 0, 62, 92
2, 347045, Note_off_c, 0, 67, 64
2, 347522, Note_on_c, 0, 66, 92
2, 347525, Note_off_c, 0, 62, 64
2, 347762, Note_on_c, 0, 69, 92
2, 347765, Note_off_c, 0, 66, 64
2, 348242, Note_on_c, 0, 67, 92
2, 348245, Note_off_c, 0, 69, 64
2, 348482, Note_on_c, 0, 75, 92
2, 348485, Note_off_c, 0, 67, 64
2, 348722, Note_on_c, 0, 69, 92
2, 348725, Note_off_c, 0, 75, 64
2, 348962, Note_on_c, 0, 81, 92
2, 348965, Note_off_c, 0, 69, 64
2, 349522, Note_on_c, 0, 78, 92
2, 349525, Note_off_c, 0, 81, 64
2, 349602, Note_on_c, 0, 79, 92
2, 349605, Note_off_c, 0, 78, 64
2, 349682, Note_on_c, 0, 75, 92
2, 349685, Note_off_c, 0, 79, 64
2, 349762, Note_on_c, 0, 78, 92
2, 349765, Note_off_c, 0, 75, 64
2, 349842, Note_on_c, 0, 79, 92
2, 349845, Note_off_c, 0, 78, 64
2, 349922, Note_on_c, 0, 74, 92
2, 349925, Note_off_c, 0, 79, 64
2, 350002, Note_on_c, 0, 78, 92
2, 350005, Note_off_c, 0, 74, 64
2, 350082, Note_on_c, 0, 79, 92
2, 350085, Note_off_c, 0, 78, 64
2, 350162, Note_on_c, 0, 72, 92
2, 350165, Note_off_c, 0, 79, 64
2, 350242, Note_on_c, 0, 78, 92
2, 350245, Note_off_c, 0, 72, 64
2, 350322, Note_on_c, 0, 79, 92
2, 350325, Note_off_c, 0, 78, 64
2, 350402, Note_on_c, 0, 70, 92
2, 350405, Note_off_c, 0, 79, 64
2, 350482, Note_on_c, 0, 78, 92
2, 350485, Note_off_c, 0, 70, 64
2, 350562, Note_on_c, 0, 79, 92
2, 350565, Note_off_c, 0, 78, 64
2, 350642, Note_on_c, 0, 69, 92
2, 350645, Note_off_c, 0, 79, 64
2, 350722, Note_on_c, 0, 78, 92
2, 350725, Note_off_c, 0, 69, 64
2, 350802, Note_on_c, 0, 79, 92
2, 350805, Note_off_c, 0, 78, 64
2, 350882, Note_on_c, 0, 70, 92
2, 350885, Note_off_c, 0, 79, 64
2, 351122, Note_on_c, 0, 75, 92
2, 351125, Note_off_c, 0, 70, 64
2, 351362, Note_on_c, 0, 70, 92
2, 351365, Note_off_c, 0, 75, 64
2, 351392, Note_on_c, 0, 69, 92
2, 351395, Note_off_c, 0, 70, 64
2, 351422, Note_on_c, 0, 70, 92
2, 351425, Note_off_c, 0, 69, 64
2, 351452, Note_on_c, 0, 69, 92
2, 351455, Note_off_c, 0, 70, 64
2, 351482, Note_on_c, 0, 70, 92
2, 351485, Note_off_c, 0, 69, 64
2, 351512, Note_on_c, 0, 69, 92
2, 351515, Note_off_c, 0, 70, 64
2, 351542, Note_on_c, 0, 67, 92
2, 351545, Note_off_c, 0, 69, 64
2, 351572, Note_on_c, 0, 69, 92
2, 351575, Note_off_c, 0, 67, 64
2, 351602, Note_on_c, 0, 67, 92
2, 351605, Note_off_c, 0, 69, 64
2, 352085, Note_off_c, 0, 67, 64
2, 352322, Note_on_c, 0, 69, 92
2, 352802, Note_on_c, 0, 74, 92
2, 352805, Note_off_c, 0, 69, 64
2, 352862, Note_on_c, 0, 76, 92
2, 352865, Note_off_c, 0, 74, 64
2, 352922, Note_on_c, 0, 77, 92
2, 352925, Note_off_c, 0, 76, 64
2, 353042, Note_on_c, 0, 76, 92
2, 353045, Note_off_c, 0, 77, 64
2, 353522, Note_on_c, 0, 69, 92
2, 353525, Note_off_c, 0, 76, 64
2, 353882, Note_on_c, 0, 74, 92
2, 353885, Note_off_c, 0, 69, 64
2, 354002, Note_on_c, 0, 72, 92
2, 354005, Note_off_c, 0, 74, 64
2, 354122, Note_on_c, 0, 70, 92
2, 354125, Note_off_c, 0, 72, 64
2, 354242, Note_on_c, 0, 69, 92
2, 354245, Note_off_c, 0, 70, 64
2, 354362, Note_on_c, 0, 67, 92
2, 354365, Note_off_c, 0, 69, 64
2, 354482, Note_on_c, 0, 72, 92
2, 354485, Note_off_c, 0, 67, 64
2, 354542, Note_on_c, 0, 70, 92
2, 354545, Note_off_c, 0, 72, 64
2, 354602, Note_on_c, 0, 69, 92
2, 354605, Note_off_c, 0, 70, 64
2, 354722, Note_on_c, 0, 70, 92
2, 354725, Note_off_c, 0, 69, 64
2, 354782, Note_on_c, 0, 69, 92
2, 354785, Note_off_c, 0, 70, 64
2, 354842, Note_on_c, 0, 67, 92
2, 354845, Note_off_c, 0, 69, 64
2, 354962, Note_on_c, 0, 65, 92
2, 354965, Note_off_c, 0, 67, 64
2, 355322, Note_on_c, 0, 67, 92
2, 355325, Note_off_c, 0, 65, 64
2, 355442, Note_on_c, 0, 69, 92
2, 355445, Note_off_c, 0, 67, 64
2, 355562, Note_on_c, 0, 70, 92
2, 355565, Note_off_c, 0, 69, 64
2, 355682, Note_on_c, 0, 69, 92
2, 355685, Note_off_c, 0, 70, 64
2, 355802, Note_on_c, 0, 67, 92
2, 355805, Note_off_c, 0, 69, 64
2, 355922, Note_on_c, 0, 73, 92
2, 355925, Note_off_c, 0, 67, 64
2, 356042, Note_on_c, 0, 67, 92
2, 356045, Note_off_c, 0, 73, 64
2, 356162, Note_on_c, 0, 69, 92
2, 356165, Note_off_c, 0, 67, 64
2, 356282, Note_on_c, 0, 70, 92
2, 356285, Note_off_c, 0, 69, 64
2, 356402, Note_on_c, 0, 69, 92
2, 356405, Note_off_c, 0, 70, 64
2, 356522, Note_on_c, 0, 67, 92
2, 356525, Note_off_c, 0, 69, 64
2, 356642, Note_on_c, 0, 76, 92
2, 356645, Note_off_c, 0, 67, 64
2, 356762, Note_on_c, 0, 67, 92
2, 356765, Note_off_c, 0, 76, 64
2, 356882, Note_on_c, 0, 69, 92
2, 356885, Note_off_c, 0, 67, 64
2, 357002, Note_on_c, 0, 70, 92
2, 357005, Note_off_c, 0, 69, 64
2, 357122, Note_on_c, 0, 69, 92
2, 357125, Note_off_c, 0, 70, 64
2, 357242, Note_on_c, 0, 67, 92
2, 357245, Note_off_c, 0, 69, 64
2, 357362, Note_on_c, 0, 65, 92
2, 357365, Note_off_c, 0, 67, 64
2, 357482, Note_on_c, 0, 64, 92
2, 357485, Note_off_c, 0, 65, 64
2, 357602, Note_on_c, 0, 67, 92
2, 357605, Note_off_c, 0, 64, 64
2, 357722, Note_on_c, 0, 65, 92
2, 357725, Note_off_c, 0, 67, 64
2, 357842, Note_on_c, 0, 64, 92
2, 357845, Note_off_c, 0, 65, 64
2, 357962, Note_on_c, 0, 62, 92
2, 357965, Note_off_c, 0, 64, 64
2, 358082, Note_on_c, 0, 62, 92
2, 358085, Note_off_c, 0, 62, 64
2, 358202, Note_on_c, 0, 60, 92
2, 358205, Note_off_c, 0, 62, 64
2, 358322, Note_on_c, 0, 59, 92
2, 358325, Note_off_c, 0, 60, 64
2, 358442, Note_on_c, 0, 57, 92
2, 358445, Note_off_c, 0, 59, 64
2, 358562, Note_on_c, 0, 65, 92
2, 358565, Note_off_c, 0, 57, 64
2, 358922, Note_on_c, 0, 64, 92
2, 358925, Note_off_c, 0, 65, 64
2, 359042, Note_on_c, 0, 76, 92
2, 359045, Note_off_c, 0, 64, 64
2, 359162, Note_on_c, 0, 74, 92
2, 359165, Note_off_c, 0, 76, 64
2, 359282, Note_on_c, 0, 72, 92
2, 359285, Note_off_c, 0, 74, 64
2, 359402, Note_on_c, 0, 71, 92
2, 359405, Note_off_c, 0, 72, 64
2, 359522, Note_on_c, 0, 69, 92
2, 359525, Note_off_c, 0, 71, 64
2, 359642, Note_on_c, 0, 71, 92
2, 359645, Note_off_c, 0, 69, 64
2, 359762, Note_on_c, 0, 71, 92
2, 359765, Note_off_c, 0, 71, 64
2, 359792, Note_on_c, 0, 72, 92
2, 359795, Note_off_c, 0, 71, 64
2, 359822, Note_on_c, 0, 71, 92
2, 359825, Note_off_c, 0, 72, 64
2, 360122, Note_on_c, 0, 69, 92
2, 360125, Note_off_c, 0, 71, 64
2, 360182, Note_on_c, 0, 71, 92
2, 360185, Note_off_c, 0, 69, 64
2, 360242, Note_on_c, 0, 72, 92
2, 360245, Note_off_c, 0, 71, 64
2, 360602, Note_on_c, 0, 76, 92
2, 360605, Note_off_c, 0, 72, 64
2, 360722, Note_on_c, 0, 80, 92
2, 360725, Note_off_c, 0, 76, 64
2, 360842, Note_on_c, 0, 83, 92
2, 360845, Note_off_c, 0, 80, 64
2, 360962, Note_on_c, 0, 81, 92
2, 360965, Note_off_c, 0, 83, 64
2, 361202, Note_on_c, 0, 69, 92
2, 361205, Note_off_c, 0, 81, 64
2, 361442, Note_on_c, 0, 77, 92
2, 361445, Note_off_c, 0, 69, 64
2, 361922, Note_on_c, 0, 71, 92
2, 361925, Note_off_c, 0, 77, 64
2, 362162, Note_on_c, 0, 74, 92
2, 362165, Note_off_c, 0, 71, 64
2, 362642, Note_on_c, 0, 68, 92
2, 362645, Note_off_c, 0, 74, 64
2, 362882, Note_on_c, 0, 71, 92
2, 362885, Note_off_c, 0, 68, 64
2, 363362, Note_on_c, 0, 64, 92
2, 363365, Note_off_c, 0, 71, 64
2, 363602, Note_on_c, 0, 69, 92
2, 363605, Note_off_c, 0, 64, 64
2, 363922, Note_on_c, 0, 67, 92
2, 363925, Note_off_c, 0, 69, 64
2, 364002, Note_on_c, 0, 65, 92
2, 364005, Note_off_c, 0, 67, 64
2, 364082, Note_on_c, 0, 67, 92
2, 364085, Note_off_c, 0, 65, 64
2, 364162, Note_on_c, 0, 65, 92
2, 364165, Note_off_c, 0, 67, 64
2, 364242, Note_on_c, 0, 64, 92
2, 364245, Note_off_c, 0, 65, 64
2, 364322, Note_on_c, 0, 62, 92
2, 364325, Note_off_c, 0, 64, 64
2, 364402, Note_on_c, 0, 64, 92
2, 364405, Note_off_c, 0, 62, 64
2, 364482, Note_on_c, 0, 65, 92
2, 364485, Note_off_c, 0, 64, 64
2, 364562, Note_on_c, 0, 55, 92
2, 364565, Note_off_c, 0, 65, 64
2, 364802, Note_on_c, 0, 72, 92
2, 364805, Note_off_c, 0, 55, 64
2, 365362, Note_on_c, 0, 71, 92
2, 365365, Note_off_c, 0, 72, 64
2, 365442, Note_on_c, 0, 69, 92
2, 365445, Note_off_c, 0, 71, 64
2, 365522, Note_on_c, 0, 71, 92
2, 365525, Note_off_c, 0, 69, 64
2, 365602, Note_on_c, 0, 69, 92
2, 365605, Note_off_c, 0, 71, 64
2, 365682, Note_on_c, 0, 68, 92
2, 365685, Note_off_c, 0, 69, 64
2, 365762, Note_on_c, 0, 66, 92
2, 365765, Note_off_c, 0, 68, 64
2, 365842, Note_on_c, 0, 68, 92
2, 365845, Note_off_c, 0, 66, 64
2, 365922, Note_on_c, 0, 69, 92
2, 365925, Note_off_c, 0, 68, 64
2, 366002, Note_on_c, 0, 59, 92
2, 366005, Note_off_c, 0, 69, 64
2, 366242, Note_on_c, 0, 76, 92
2, 366245, Note_off_c, 0, 59, 64
2, 366802, Note_on_c, 0, 74, 92
2, 366805, Note_off_c, 0, 76, 64
2, 366882, Note_on_c, 0, 72, 92
2, 366885, Note_off_c, 0, 74, 64
2, 366962, Note_on_c, 0, 74, 92
2, 366965, Note_off_c, 0, 72, 64
2, 367042, Note_on_c, 0, 72, 92
2, 367045, Note_off_c, 0, 74, 64
2, 367122, Note_on_c, 0, 71, 92
2, 367125, Note_off_c, 0, 72, 64
2, 367202, Note_on_c, 0, 69, 92
2, 367205, Note_off_c, 0, 71, 64
2, 367282, Note_on_c, 0, 71, 92
2, 367285, Note_off_c, 0, 69, 64
2, 367362, Note_on_c, 0, 72, 92
2, 367365, Note_off_c, 0, 71, 64
2, 367442, Note_on_c, 0, 62, 92
2, 367445, Note_off_c, 0, 72, 64
2, 367682, Note_on_c, 0, 79, 92
2, 367685, Note_off_c, 0, 62, 64
2, 368242, Note_on_c, 0, 77, 92
2, 368245, Note_off_c, 0, 79, 64
2, 368322, Note_on_c, 0, 76, 92
2, 368325, Note_off_c, 0, 77, 64
2, 368402, Note_on_c, 0, 77, 92
2, 368405, Note_off_c, 0, 76, 64
2, 368482, Note_on_c, 0, 76, 92
2, 368485, Note_off_c, 0, 77, 64
2, 368562, Note_on_c, 0, 74, 92
2, 368565, Note_off_c, 0, 76, 64
2, 368642, Note_on_c, 0, 73, 92
2, 368645, Note_off_c, 0, 74, 64
2, 368722, Note_on_c, 0, 74, 92
2, 368725, Note_off_c, 0, 73, 64
2, 368802, Note_on_c, 0, 76, 92
2, 368805, Note_off_c, 0, 74, 64
2, 368882, Note_on_c, 0, 62, 92
2, 368885, Note_off_c, 0, 76, 64
2, 369122, Note_on_c, 0, 74, 92
2, 369125, Note_off_c, 0, 62, 64
2, 369362, Note_on_c, 0, 73, 92
2, 369365, Note_off_c, 0, 74, 64
2, 369602, Note_on_c, 0, 74, 92
2, 369605, Note_off_c, 0, 73, 64
2, 369842, Note_on_c, 0, 69, 92
2, 369845, Note_off_c, 0, 74, 64
2, 370082, Note_on_c, 0, 74, 92
2, 370085, Note_off_c, 0, 69, 64
2, 370142, Note_on_c, 0, 76, 92
2, 370145, Note_off_c, 0, 74, 64
2, 370202, Note_on_c, 0, 77, 92
2, 370205, Note_off_c, 0, 76, 64
2, 370322, Note_on_c, 0, 76, 92
2, 370325, Note_off_c, 0, 77, 64
2, 370802, Note_on_c, 0, 69, 92
2, 370805, Note_off_c, 0, 76, 64
2, 371162, Note_on_c, 0, 74, 92
2, 371165, Note_off_c, 0, 69, 64
2, 371282, Note_on_c, 0, 72, 92
2, 371285, Note_off_c, 0, 74, 64
2, 371402, Note_on_c, 0, 70, 92
2, 371405, Note_off_c, 0, 72, 64
2, 371522, Note_on_c, 0, 69, 92
2, 371525, Note_off_c, 0, 70, 64
2, 371642, Note_on_c, 0, 67, 92
2, 371645, Note_off_c, 0, 69, 64
2, 371762, Note_on_c, 0, 72, 92
2, 371765, Note_off_c, 0, 67, 64
2, 371822, Note_on_c, 0, 70, 92
2, 371825, Note_off_c, 0, 72, 64
2, 371882, Note_on_c, 0, 69, 92
2, 371885, Note_off_c, 0, 70, 64
2, 372002, Note_on_c, 0, 70, 92
2, 372005, Note_off_c, 0, 69, 64
2, 372062, Note_on_c, 0, 69, 92
2, 372065, Note_off_c, 0, 70, 64
2, 372122, Note_on_c, 0, 67, 92
2, 372125, Note_off_c, 0, 69, 64
2, 372242, Note_on_c, 0, 65, 92
2, 372245, Note_off_c, 0, 67, 64
2, 372602, Note_on_c, 0, 67, 92
2, 372605, Note_off_c, 0, 65, 64
2, 372722, Note_on_c, 0, 69, 92
2, 372725, Note_off_c, 0, 67, 64
2, 372842, Note_on_c, 0, 70, 92
2, 372845, Note_off_c, 0, 69, 64
2, 372962, Note_on_c, 0, 69, 92
2, 372965, Note_off_c, 0, 70, 64
2, 373082, Note_on_c, 0, 67, 92
2, 373085, Note_off_c, 0, 69, 64
2, 373202, Note_on_c, 0, 73, 92
2, 373205, Note_off_c, 0, 67, 64
2, 373322, Note_on_c, 0, 67, 92
2, 373325, Note_off_c, 0, 73, 64
2, 373442, Note_on_c, 0, 69, 92
2, 373445, Note_off_c, 0, 67, 64
2, 373562, Note_on_c, 0, 70, 92
2, 373565, Note_off_c, 0, 69, 64
2, 373682, Note_on_c, 0, 69, 92
2, 373685, Note_off_c, 0, 70, 64
2, 373802, Note_on_c, 0, 67, 92
2, 373805, Note_off_c, 0, 69, 64
2, 373922, Note_on_c, 0, 76, 92
2, 373925, Note_off_c, 0, 67, 64
2, 374042, Note_on_c, 0, 67, 92
2, 374045, Note_off_c, 0, 76, 64
2, 374162, Note_on_c, 0, 69, 92
2, 374165, Note_off_c, 0, 67, 64
2, 374282, Note_on_c, 0, 70, 92
2, 374285, Note_off_c, 0, 69, 64
2, 374402, Note_on_c, 0, 69, 92
2, 374405, Note_off_c, 0, 70, 64
2, 374522, Note_on_c, 0, 67, 92
2, 374525, Note_off_c, 0, 69, 64
2, 374642, Note_on_c, 0, 65, 92
2, 374645, Note_off_c, 0, 67, 64
2, 374882, Note_on_c, 0, 77, 92
2, 374885, Note_off_c, 0, 65, 64
2, 375482, Note_on_c, 0, 76, 92
2, 375485, Note_off_c, 0, 77, 64
2, 375602, Note_on_c, 0, 79, 92
2, 375605, Note_off_c, 0, 76, 64
2, 375722, Note_on_c, 0, 77, 92
2, 375725, Note_off_c, 0, 79, 64
2, 375842, Note_on_c, 0, 76, 92
2, 375845, Note_off_c, 0, 77, 64
2, 375962, Note_on_c, 0, 74, 92
2, 375965, Note_off_c, 0, 76, 64
2, 376082, Note_on_c, 0, 73, 92
2, 376085, Note_off_c, 0, 74, 64
2, 376202, Note_on_c, 0, 82, 92
2, 376205, Note_off_c, 0, 73, 64
2, 376322, Note_on_c, 0, 81, 92
2, 376325, Note_off_c, 0, 82, 64
2, 376442, Note_on_c, 0, 79, 92
2, 376445, Note_off_c, 0, 81, 64
2, 376562, Note_on_c, 0, 77, 92
2, 376565, Note_off_c, 0, 79, 64
2, 376682, Note_on_c, 0, 76, 92
2, 376685, Note_off_c, 0, 77, 64
2, 376802, Note_on_c, 0, 74, 92
2, 376805, Note_off_c, 0, 76, 64
2, 377042, Note_on_c, 0, 76, 92
2, 377045, Note_off_c, 0, 74, 64
2, 377282, Note_on_c, 0, 73, 92
2, 377285, Note_off_c, 0, 76, 64
2, 377522, Note_on_c, 0, 74, 92
2, 377525, Note_off_c, 0, 73, 64
2, 378005, Note_off_c, 0, 74, 64
2, 378240, End_track
3, 0, Start_track
3, 0, Title_t, "Track 2"
3, 7680, Note_on_c, 0, 72, 97
3, 7800, Note_off_c, 0, 72, 64
3, 7800, Note_on_c, 0, 71, 97
3, 7920, Note_off_c, 0, 71, 64
3, 7920, Note_on_c, 0, 69, 97
3, 8160, Note_off_c, 0, 69, 64
3, 8160, Note_on_c, 0, 71, 97
3, 8220, Note_off_c, 0, 71, 64
3, 8220, Note_on_c, 0, 69, 97
3, 8280, Note_off_c, 0, 69, 64
3, 8280, Note_on_c, 0, 68, 97
3, 8400, Note_off_c, 0, 68, 64
3, 8400, Note_on_c, 0, 69, 97
3, 8760, Note_off_c, 0, 69, 64
3, 8760, Note_on_c, 0, 71, 97
3, 8880, Note_off_c, 0, 71, 64
3, 8880, Note_on_c, 0, 69, 97
3, 9000, Note_off_c, 0, 69, 64
3, 9000, Note_on_c, 0, 68, 97
3, 9120, Note_off_c, 0, 68, 64
3, 9120, Note_on_c, 0, 69, 97
3, 9240, Note_off_c, 0, 69, 64
3, 9240, Note_on_c, 0, 71, 97
3, 9360, Note_off_c, 0, 71, 64
3, 9360, Note_on_c, 0, 72, 97
3, 9480, Note_off_c, 0, 72, 64
3, 9480, Note_on_c, 0, 74, 97
3, 9600, Note_off_c, 0, 74, 64
3, 9600, Note_on_c, 0, 76, 97
3, 9840, Note_off_c, 0, 76, 64
3, 9840, Note_on_c, 0, 77, 97
3, 9960, Note_off_c, 0, 77, 64
3, 9960, Note_on_c, 0, 76, 97
3, 10080, Note_off_c, 0, 76, 64
3, 10080, Note_on_c, 0, 74, 97
3, 10200, Note_off_c, 0, 74, 64
3, 10200, Note_on_c, 0, 72, 97
3, 10320, Note_off_c, 0, 72, 64
3, 10320, Note_on_c, 0, 71, 97
3, 10440, Note_off_c, 0, 71, 64
3, 10440, Note_on_c, 0, 69, 97
3, 10560, Note_off_c, 0, 69, 64
3, 10560, Note_on_c, 0, 68, 97
3, 10800, Note_off_c, 0, 68, 64
3, 10800, Note_on_c, 0, 71, 97
3, 11040, Note_off_c, 0, 71, 64
3, 11040, Note_on_c, 0, 64, 97
3, 11280, Note_off_c, 0, 64, 64
3, 11280, Note_on_c, 0, 74, 97
3, 11640, Note_off_c, 0, 74, 64
3, 11640, Note_on_c, 0, 72, 97
3, 11760, Note_off_c, 0, 72, 64
3, 11760, Note_on_c, 0, 71, 97
3, 11880, Note_off_c, 0, 71, 64
3, 11880, Note_on_c, 0, 69, 97
3, 12000, Note_off_c, 0, 69, 64
3, 12000, Note_on_c, 0, 72, 97
3, 12120, Note_off_c, 0, 72, 64
3, 12120, Note_on_c, 0, 71, 97
3, 12240, Note_off_c, 0, 71, 64
3, 12240, Note_on_c, 0, 69, 97
3, 12360, Note_off_c, 0, 69, 64
3, 12360, Note_on_c, 0, 67, 97
3, 12480, Note_off_c, 0, 67, 64
3, 12480, Note_on_c, 0, 66, 97
3, 12720, Note_off_c, 0, 66, 64
3, 12720, Note_on_c, 0, 69, 97
3, 12960, Note_off_c, 0, 69, 64
3, 12960, Note_on_c, 0, 62, 97
3, 13200, Note_off_c, 0, 62, 64
3, 13200, Note_on_c, 0, 72, 97
3, 13560, Note_off_c, 0, 72, 64
3, 13560, Note_on_c, 0, 71, 97
3, 13680, Note_off_c, 0, 71, 64
3, 13680, Note_on_c, 0, 69, 97
3, 13800, Note_off_c, 0, 69, 64
3, 13800, Note_on_c, 0, 67, 97
3, 13920, Note_off_c, 0, 67, 64
3, 13920, Note_on_c, 0, 71, 97
3, 14040, Note_off_c, 0, 71, 64
3, 14040, Note_on_c, 0, 69, 97
3, 14160, Note_off_c, 0, 69, 64
3, 14160, Note_on_c, 0, 67, 97
3, 14280, Note_off_c, 0, 67, 64
3, 14280, Note_on_c, 0, 65, 97
3, 14400, Note_off_c, 0, 65, 64
3, 14400, Note_on_c, 0, 64, 97
3, 15000, Note_off_c, 0, 64, 64
3, 15000, Note_on_c, 0, 62, 97
3, 15120, Note_off_c, 0, 62, 64
3, 15120, Note_on_c, 0, 64, 97
3, 15240, Note_off_c, 0, 64, 64
3, 15240, Note_on_c, 0, 67, 97
3, 15360, Note_off_c, 0, 67, 64
3, 15360, Note_on_c, 0, 66, 97
3, 15480, Note_off_c, 0, 66, 64
3, 15480, Note_on_c, 0, 64, 97
3, 15600, Note_off_c, 0, 64, 64
3, 15600, Note_on_c, 0, 66, 97
3, 15720, Note_off_c, 0, 66, 64
3, 15720, Note_on_c, 0, 67, 97
3, 15840, Note_off_c, 0, 67, 64
3, 15840, Note_on_c, 0, 66, 97
3, 15960, Note_off_c, 0, 66, 64
3, 15960, Note_on_c, 0, 64, 97
3, 16080, Note_off_c, 0, 64, 64
3, 16080, Note_on_c, 0, 66, 97
3, 16200, Note_off_c, 0, 66, 64
3, 16200, Note_on_c, 0, 69, 97
3, 16320, Note_off_c, 0, 69, 64
3, 16320, Note_on_c, 0, 68, 97
3, 16440, Note_off_c, 0, 68, 64
3, 16440, Note_on_c, 0, 66, 97
3, 16560, Note_off_c, 0, 66, 64
3, 16560, Note_on_c, 0, 68, 97
3, 16680, Note_off_c, 0, 68, 64
3, 16680, Note_on_c, 0, 69, 97
3, 16800, Note_off_c, 0, 69, 64
3, 16800, Note_on_c, 0, 68, 97
3, 16920, Note_off_c, 0, 68, 64
3, 16920, Note_on_c, 0, 66, 97
3, 17040, Note_off_c, 0, 66, 64
3, 17040, Note_on_c, 0, 68, 97
3, 17160, Note_off_c, 0, 68, 64
3, 17160, Note_on_c, 0, 71, 97
3, 17280, Note_off_c, 0, 71, 64
3, 17280, Note_on_c, 0, 69, 97
3, 17340, Note_off_c, 0, 69, 64
3, 17340, Note_on_c, 0, 71, 97
3, 17400, Note_off_c, 0, 71, 64
3, 17400, Note_on_c, 0, 69, 97
3, 18240, Note_off_c, 0, 69, 64
3, 18240, Note_on_c, 0, 71, 97
3, 18300, Note_off_c, 0, 71, 64
3, 18300, Note_on_c, 0, 72, 97
3, 18360, Note_off_c, 0, 72, 64
3, 18360, Note_on_c, 0, 71, 97
3, 19200, Note_off_c, 0, 71, 64
3, 19200, Note_on_c, 0, 72, 97
3, 19440, Note_off_c, 0, 72, 64
3, 19440, Note_on_c, 0, 74, 97
3, 19520, Note_off_c, 0, 74, 64
3, 19520, Note_on_c, 0, 72, 97
3, 19600, Note_off_c, 0, 72, 64
3, 19600, Note_on_c, 0, 71, 97
3, 19680, Note_off_c, 0, 71, 64
3, 19680, Note_on_c, 0, 72, 97
3, 19920, Note_off_c, 0, 72, 64
3, 19920, Note_on_c, 0, 71, 97
3, 20000, Note_off_c, 0, 71, 64
3, 20000, Note_on_c, 0, 69, 97
3, 20080, Note_off_c, 0, 69, 64
3, 20080, Note_on_c, 0, 68, 97
3, 20160, Note_off_c, 0, 68, 64
3, 20160, Note_on_c, 0, 69, 97
3, 20400, Note_off_c, 0, 69, 64
3, 20400, Note_on_c, 0, 65, 97
3, 20640, Note_off_c, 0, 65, 64
3, 20640, Note_on_c, 0, 64, 97
3, 20880, Note_off_c, 0, 64, 64
3, 20880, Note_on_c, 0, 62, 97
3, 21120, Note_off_c, 0, 62, 64
3, 21120, Note_on_c, 0, 60, 97
3, 21360, Note_off_c, 0, 60, 64
3, 21360, Note_on_c, 0, 69, 97
3, 21600, Note_off_c, 0, 69, 64
3, 21600, Note_on_c, 0, 59, 97
3, 21840, Note_off_c, 0, 59, 64
3, 21840, Note_on_c, 0, 68, 97
3, 22080, Note_off_c, 0, 68, 64
3, 22080, Note_on_c, 0, 69, 97
3, 22320, Note_off_c, 0, 69, 64
3, 23040, Note_on_c, 0, 62, 97
3, 23340, Note_off_c, 0, 62, 64
3, 23340, Note_on_c, 0, 64, 97
3, 23400, Note_off_c, 0, 64, 64
3, 23400, Note_on_c, 0, 62, 97
3, 23460, Note_off_c, 0, 62, 64
3, 23460, Note_on_c, 0, 61, 97
3, 23520, Note_off_c, 0, 61, 64
3, 23520, Note_on_c, 0, 62, 97
3, 23640, Note_off_c, 0, 62, 64
3, 23640, Note_on_c, 0, 64, 97
3, 23760, Note_off_c, 0, 64, 64
3, 23760, Note_on_c, 0, 65, 97
3, 23880, Note_off_c, 0, 65, 64
3, 23880, Note_on_c, 0, 67, 97
3, 23940, Note_off_c, 0, 67, 64
3, 23940, Note_on_c, 0, 69, 97
3, 24000, Note_off_c, 0, 69, 64
3, 24000, Note_on_c, 0, 70, 97
3, 25260, Note_off_c, 0, 70, 64
3, 25260, Note_on_c, 0, 62, 97
3, 25320, Note_off_c, 0, 62, 64
3, 25320, Note_on_c, 0, 60, 97
3, 25380, Note_off_c, 0, 60, 64
3, 25380, Note_on_c, 0, 58, 97
3, 25440, Note_off_c, 0, 58, 64
3, 25440, Note_on_c, 0, 60, 97
3, 25560, Note_off_c, 0, 60, 64
3, 25560, Note_on_c, 0, 62, 97
3, 25680, Note_off_c, 0, 62, 64
3, 25680, Note_on_c, 0, 64, 97
3, 25800, Note_off_c, 0, 64, 64
3, 25800, Note_on_c, 0, 65, 97
3, 25860, Note_off_c, 0, 65, 64
3, 25860, Note_on_c, 0, 67, 97
3, 25920, Note_off_c, 0, 67, 64
3, 25920, Note_on_c, 0, 69, 97
3, 27000, Note_off_c, 0, 69, 64
3, 27000, Note_on_c, 0, 67, 97
3, 27060, Note_off_c, 0, 67, 64
3, 27060, Note_on_c, 0, 65, 97
3, 27120, Note_off_c, 0, 65, 64
3, 27120, Note_on_c, 0, 67, 97
3, 27480, Note_off_c, 0, 67, 64
3, 27480, Note_on_c, 0, 65, 97
3, 27540, Note_off_c, 0, 65, 64
3, 27540, Note_on_c, 0, 64, 97
3, 27600, Note_off_c, 0, 64, 64
3, 27600, Note_on_c, 0, 65, 97
3, 27960, Note_off_c, 0, 65, 64
3, 27960, Note_on_c, 0, 64, 97
3, 28020, Note_off_c, 0, 64, 64
3, 28020, Note_on_c, 0, 62, 97
3, 28080, Note_off_c, 0, 62, 64
3, 28080, Note_on_c, 0, 64, 97
3, 28440, Note_off_c, 0, 64, 64
3, 28440, Note_on_c, 0, 62, 97
3, 28500, Note_off_c, 0, 62, 64
3, 28500, Note_on_c, 0, 61, 97
3, 28560, Note_off_c, 0, 61, 64
3, 28560, Note_on_c, 0, 62, 97
3, 29040, Note_off_c, 0, 62, 64
3, 29040, Note_on_c, 0, 61, 97
3, 29280, Note_off_c, 0, 61, 64
3, 29280, Note_on_c, 0, 65, 97
3, 29520, Note_off_c, 0, 65, 64
3, 29520, Note_on_c, 0, 59, 97
3, 29760, Note_off_c, 0, 59, 64
3, 29760, Note_on_c, 0, 64, 97
3, 30000, Note_off_c, 0, 64, 64
3, 30000, Note_on_c, 0, 57, 97
3, 30240, Note_off_c, 0, 57, 64
3, 30240, Note_on_c, 0, 69, 97
3, 30480, Note_off_c, 0, 69, 64
3, 30480, Note_on_c, 0, 61, 97
3, 30720, Note_off_c, 0, 61, 64
3, 30720, Note_on_c, 0, 62, 97
3, 30960, Note_off_c, 0, 62, 64
3, 30960, Note_on_c, 0, 70, 97
3, 31200, Note_off_c, 0, 70, 64
3, 31200, Note_on_c, 0, 69, 97
3, 31440, Note_off_c, 0, 69, 64
3, 31440, Note_on_c, 0, 67, 97
3, 31680, Note_off_c, 0, 67, 64
3, 31680, Note_on_c, 0, 65, 97
3, 31920, Note_off_c, 0, 65, 64
3, 31920, Note_on_c, 0, 67, 97
3, 32160, Note_off_c, 0, 67, 64
3, 32160, Note_on_c, 0, 65, 97
3, 32400, Note_off_c, 0, 65, 64
3, 32400, Note_on_c, 0, 64, 97
3, 32640, Note_off_c, 0, 64, 64
3, 32640, Note_on_c, 0, 62, 97
3, 33120, Note_off_c, 0, 62, 64
3, 33360, Note_on_c, 0, 67, 97
3, 33720, Note_off_c, 0, 67, 64
3, 33720, Note_on_c, 0, 69, 97
3, 33840, Note_off_c, 0, 69, 64
3, 33840, Note_on_c, 0, 67, 97
3, 33960, Note_off_c, 0, 67, 64
3, 33960, Note_on_c, 0, 65, 97
3, 34080, Note_off_c, 0, 65, 64
3, 34080, Note_on_c, 0, 67, 97
3, 34200, Note_off_c, 0, 67, 64
3, 34200, Note_on_c, 0, 69, 97
3, 34320, Note_off_c, 0, 69, 64
3, 34320, Note_on_c, 0, 71, 97
3, 34440, Note_off_c, 0, 71, 64
3, 34440, Note_on_c, 0, 73, 97
3, 34560, Note_off_c, 0, 73, 64
3, 34560, Note_on_c, 0, 74, 97
3, 34800, Note_off_c, 0, 74, 64
3, 34800, Note_on_c, 0, 69, 97
3, 35040, Note_off_c, 0, 69, 64
3, 35040, Note_on_c, 0, 62, 97
3, 35280, Note_off_c, 0, 62, 64
3, 35280, Note_on_c, 0, 65, 97
3, 35640, Note_off_c, 0, 65, 64
3, 35640, Note_on_c, 0, 67, 97
3, 35760, Note_off_c, 0, 67, 64
3, 35760, Note_on_c, 0, 65, 97
3, 35880, Note_off_c, 0, 65, 64
3, 35880, Note_on_c, 0, 64, 97
3, 36000, Note_off_c, 0, 64, 64
3, 36000, Note_on_c, 0, 65, 97
3, 36120, Note_off_c, 0, 65, 64
3, 36120, Note_on_c, 0, 67, 97
3, 36240, Note_off_c, 0, 67, 64
3, 36240, Note_on_c, 0, 69, 97
3, 36360, Note_off_c, 0, 69, 64
3, 36360, Note_on_c, 0, 71, 97
3, 36480, Note_off_c, 0, 71, 64
3, 36480, Note_on_c, 0, 72, 97
3, 36720, Note_off_c, 0, 72, 64
3, 36720, Note_on_c, 0, 67, 97
3, 36960, Note_off_c, 0, 67, 64
3, 36960, Note_on_c, 0, 60, 97
3, 37200, Note_off_c, 0, 60, 64
3, 37200, Note_on_c, 0, 64, 97
3, 37560, Note_off_c, 0, 64, 64
3, 37560, Note_on_c, 0, 69, 97
3, 37680, Note_off_c, 0, 69, 64
3, 37680, Note_on_c, 0, 67, 97
3, 37800, Note_off_c, 0, 67, 64
3, 37800, Note_on_c, 0, 69, 97
3, 37920, Note_off_c, 0, 69, 64
3, 37920, Note_on_c, 0, 62, 97
3, 37980, Note_off_c, 0, 62, 64
3, 37980, Note_on_c, 0, 64, 97
3, 38040, Note_off_c, 0, 64, 64
3, 38040, Note_on_c, 0, 62, 97
3, 38880, Note_off_c, 0, 62, 64
3, 38880, Note_on_c, 0, 64, 97
3, 38940, Note_off_c, 0, 64, 64
3, 38940, Note_on_c, 0, 65, 97
3, 39000, Note_off_c, 0, 65, 64
3, 39000, Note_on_c, 0, 64, 97
3, 39840, Note_off_c, 0, 64, 64
3, 39840, Note_on_c, 0, 65, 97
3, 39900, Note_off_c, 0, 65, 64
3, 39900, Note_on_c, 0, 67, 97
3, 39960, Note_off_c, 0, 67, 64
3, 39960, Note_on_c, 0, 65, 97
3, 40440, Note_off_c, 0, 65, 64
3, 40440, Note_on_c, 0, 64, 97
3, 40560, Note_off_c, 0, 64, 64
3, 40560, Note_on_c, 0, 65, 97
3, 40680, Note_off_c, 0, 65, 64
3, 40680, Note_on_c, 0, 69, 97
3, 40800, Note_off_c, 0, 69, 64
3, 40800, Note_on_c, 0, 67, 97
3, 40920, Note_off_c, 0, 67, 64
3, 40920, Note_on_c, 0, 65, 97
3, 41040, Note_off_c, 0, 65, 64
3, 41040, Note_on_c, 0, 67, 97
3, 41160, Note_off_c, 0, 67, 64
3, 41160, Note_on_c, 0, 69, 97
3, 41280, Note_off_c, 0, 69, 64
3, 41280, Note_on_c, 0, 67, 97
3, 41400, Note_off_c, 0, 67, 64
3, 41400, Note_on_c, 0, 65, 97
3, 41520, Note_off_c, 0, 65, 64
3, 41520, Note_on_c, 0, 67, 97
3, 41640, Note_off_c, 0, 67, 64
3, 41640, Note_on_c, 0, 70, 97
3, 41760, Note_off_c, 0, 70, 64
3, 41760, Note_on_c, 0, 69, 97
3, 41880, Note_off_c, 0, 69, 64
3, 41880, Note_on_c, 0, 67, 97
3, 42000, Note_off_c, 0, 67, 64
3, 42000, Note_on_c, 0, 69, 97
3, 42120, Note_off_c, 0, 69, 64
3, 42120, Note_on_c, 0, 70, 97
3, 42240, Note_off_c, 0, 70, 64
3, 42240, Note_on_c, 0, 69, 97
3, 42480, Note_off_c, 0, 69, 64
3, 42480, Note_on_c, 0, 70, 97
3, 42560, Note_off_c, 0, 70, 64
3, 42560, Note_on_c, 0, 69, 97
3, 42640, Note_off_c, 0, 69, 64
3, 42640, Note_on_c, 0, 67, 97
3, 42720, Note_off_c, 0, 67, 64
3, 42720, Note_on_c, 0, 69, 97
3, 42960, Note_off_c, 0, 69, 64
3, 42960, Note_on_c, 0, 67, 97
3, 43040, Note_off_c, 0, 67, 64
3, 43040, Note_on_c, 0, 65, 97
3, 43120, Note_off_c, 0, 65, 64
3, 43120, Note_on_c, 0, 64, 97
3, 43200, Note_off_c, 0, 64, 64
3, 43200, Note_on_c, 0, 65, 97
3, 43440, Note_off_c, 0, 65, 64
3, 43440, Note_on_c, 0, 67, 97
3, 43680, Note_off_c, 0, 67, 64
3, 43680, Note_on_c, 0, 65, 97
3, 43920, Note_off_c, 0, 65, 64
3, 43920, Note_on_c, 0, 64, 97
3, 44160, Note_off_c, 0, 64, 64
3, 44160, Note_on_c, 0, 62, 97
3, 44280, Note_off_c, 0, 62, 64
3, 44280, Note_on_c, 0, 65, 97
3, 44400, Note_off_c, 0, 65, 64
3, 44400, Note_on_c, 0, 70, 97
3, 44520, Note_off_c, 0, 70, 64
3, 44520, Note_on_c, 0, 64, 97
3, 44640, Note_off_c, 0, 64, 64
3, 44640, Note_on_c, 0, 67, 97
3, 44760, Note_off_c, 0, 67, 64
3, 44760, Note_on_c, 0, 65, 97
3, 44880, Note_off_c, 0, 65, 64
3, 44880, Note_on_c, 0, 64, 97
3, 45000, Note_off_c, 0, 64, 64
3, 45000, Note_on_c, 0, 62, 97
3, 45120, Note_off_c, 0, 62, 64
3, 45120, Note_on_c, 0, 62, 97
3, 45600, Note_off_c, 0, 62, 64
3, 47760, Note_on_c, 0, 65, 97
3, 48240, Note_off_c, 0, 65, 64
3, 48240, Note_on_c, 0, 64, 97
3, 48320, Note_off_c, 0, 64, 64
3, 48320, Note_on_c, 0, 62, 97
3, 48400, Note_off_c, 0, 62, 64
3, 48400, Note_on_c, 0, 60, 97
3, 48480, Note_off_c, 0, 60, 64
3, 48480, Note_on_c, 0, 70, 97
3, 48720, Note_off_c, 0, 70, 64
3, 48720, Note_on_c, 0, 69, 97
3, 48960, Note_off_c, 0, 69, 64
3, 48960, Note_on_c, 0, 69, 97
3, 49020, Note_off_c, 0, 69, 64
3, 49020, Note_on_c, 0, 70, 97
3, 49080, Note_off_c, 0, 70, 64
3, 49080, Note_on_c, 0, 69, 97
3, 49200, Note_off_c, 0, 69, 64
3, 49200, Note_on_c, 0, 67, 97
3, 49560, Note_off_c, 0, 67, 64
3, 49560, Note_on_c, 0, 69, 97
3, 49680, Note_off_c, 0, 69, 64
3, 49680, Note_on_c, 0, 70, 97
3, 49800, Note_off_c, 0, 70, 64
3, 49800, Note_on_c, 0, 72, 97
3, 49920, Note_off_c, 0, 72, 64
3, 49920, Note_on_c, 0, 74, 97
3, 50160, Note_off_c, 0, 74, 64
3, 50160, Note_on_c, 0, 76, 97
3, 50280, Note_off_c, 0, 76, 64
3, 50280, Note_on_c, 0, 78, 97
3, 50400, Note_off_c, 0, 78, 64
3, 50400, Note_on_c, 0, 79, 97
3, 50640, Note_off_c, 0, 79, 64
3, 50640, Note_on_c, 0, 78, 97
3, 50760, Note_off_c, 0, 78, 64
3, 50760, Note_on_c, 0, 76, 97
3, 50880, Note_off_c, 0, 76, 64
3, 50880, Note_on_c, 0, 74, 97
3, 51000, Note_off_c, 0, 74, 64
3, 51000, Note_on_c, 0, 72, 97
3, 51120, Note_off_c, 0, 72, 64
3, 51120, Note_on_c, 0, 70, 97
3, 51240, Note_off_c, 0, 70, 64
3, 51240, Note_on_c, 0, 69, 97
3, 51360, Note_off_c, 0, 69, 64
3, 51360, Note_on_c, 0, 67, 97
3, 51600, Note_off_c, 0, 67, 64
3, 51600, Note_on_c, 0, 70, 97
3, 51840, Note_off_c, 0, 70, 64
3, 51840, Note_on_c, 0, 70, 97
3, 51900, Note_off_c, 0, 70, 64
3, 51900, Note_on_c, 0, 72, 97
3, 51960, Note_off_c, 0, 72, 64
3, 51960, Note_on_c, 0, 70, 97
3, 52080, Note_off_c, 0, 70, 64
3, 52080, Note_on_c, 0, 69, 97
3, 52320, Note_off_c, 0, 69, 64
3, 52560, Note_on_c, 0, 79, 97
3, 52800, Note_off_c, 0, 79, 64
3, 52800, Note_on_c, 0, 79, 97
3, 52860, Note_off_c, 0, 79, 64
3, 52860, Note_on_c, 0, 81, 97
3, 52920, Note_off_c, 0, 81, 64
3, 52920, Note_on_c, 0, 79, 97
3, 53040, Note_off_c, 0, 79, 64
3, 53040, Note_on_c, 0, 78, 97
3, 53280, Note_off_c, 0, 78, 64
3, 53520, Note_on_c, 0, 78, 97
3, 53760, Note_off_c, 0, 78, 64
3, 53760, Note_on_c, 0, 79, 97
3, 53840, Note_off_c, 0, 79, 64
3, 53840, Note_on_c, 0, 74, 97
3, 53920, Note_off_c, 0, 74, 64
3, 53920, Note_on_c, 0, 70, 97
3, 54000, Note_off_c, 0, 70, 64
3, 54000, Note_on_c, 0, 67, 97
3, 54080, Note_off_c, 0, 67, 64
3, 54080, Note_on_c, 0, 70, 97
3, 54160, Note_off_c, 0, 70, 64
3, 54160, Note_on_c, 0, 74, 97
3, 54240, Note_off_c, 0, 74, 64
3, 54240, Note_on_c, 0, 77, 97
3, 54320, Note_off_c, 0, 77, 64
3, 54320, Note_on_c, 0, 74, 97
3, 54400, Note_off_c, 0, 74, 64
3, 54400, Note_on_c, 0, 70, 97
3, 54480, Note_off_c, 0, 70, 64
3, 54480, Note_on_c, 0, 67, 97
3, 54560, Note_off_c, 0, 67, 64
3, 54560, Note_on_c, 0, 70, 97
3, 54640, Note_off_c, 0, 70, 64
3, 54640, Note_on_c, 0, 74, 97
3, 54720, Note_off_c, 0, 74, 64
3, 54720, Note_on_c, 0, 75, 97
3, 54800, Note_off_c, 0, 75, 64
3, 54800, Note_on_c, 0, 72, 97
3, 54880, Note_off_c, 0, 72, 64
3, 54880, Note_on_c, 0, 70, 97
3, 54960, Note_off_c, 0, 70, 64
3, 54960, Note_on_c, 0, 67, 97
3, 55040, Note_off_c, 0, 67, 64
3, 55040, Note_on_c, 0, 70, 97
3, 55120, Note_off_c, 0, 70, 64
3, 55120, Note_on_c, 0, 72, 97
3, 55200, Note_off_c, 0, 72, 64
3, 55200, Note_on_c, 0, 75, 97
3, 55280, Note_off_c, 0, 75, 64
3, 55280, Note_on_c, 0, 72, 97
3, 55360, Note_off_c, 0, 72, 64
3, 55360, Note_on_c, 0, 70, 97
3, 55440, Note_off_c, 0, 70, 64
3, 55440, Note_on_c, 0, 67, 97
3, 55520, Note_off_c, 0, 67, 64
3, 55520, Note_on_c, 0, 70, 97
3, 55600, Note_off_c, 0, 70, 64
3, 55600, Note_on_c, 0, 72, 97
3, 55680, Note_off_c, 0, 72, 64
3, 55680, Note_on_c, 0, 75, 97
3, 55760, Note_off_c, 0, 75, 64
3, 55760, Note_on_c, 0, 72, 97
3, 55840, Note_off_c, 0, 72, 64
3, 55840, Note_on_c, 0, 69, 97
3, 55920, Note_off_c, 0, 69, 64
3, 55920, Note_on_c, 0, 65, 97
3, 56000, Note_off_c, 0, 65, 64
3, 56000, Note_on_c, 0, 69, 97
3, 56080, Note_off_c, 0, 69, 64
3, 56080, Note_on_c, 0, 72, 97
3, 56160, Note_off_c, 0, 72, 64
3, 56160, Note_on_c, 0, 75, 97
3, 56240, Note_off_c, 0, 75, 64
3, 56240, Note_on_c, 0, 72, 97
3, 56320, Note_off_c, 0, 72, 64
3, 56320, Note_on_c, 0, 68, 97
3, 56400, Note_off_c, 0, 68, 64
3, 56400, Note_on_c, 0, 65, 97
3, 56480, Note_off_c, 0, 65, 64
3, 56480, Note_on_c, 0, 68, 97
3, 56560, Note_off_c, 0, 68, 64
3, 56560, Note_on_c, 0, 72, 97
3, 56640, Note_off_c, 0, 72, 64
3, 56640, Note_on_c, 0, 74, 97
3, 56720, Note_off_c, 0, 74, 64
3, 56720, Note_on_c, 0, 70, 97
3, 56800, Note_off_c, 0, 70, 64
3, 56800, Note_on_c, 0, 68, 97
3, 56880, Note_off_c, 0, 68, 64
3, 56880, Note_on_c, 0, 65, 97
3, 56960, Note_off_c, 0, 65, 64
3, 56960, Note_on_c, 0, 68, 97
3, 57040, Note_off_c, 0, 68, 64
3, 57040, Note_on_c, 0, 70, 97
3, 57120, Note_off_c, 0, 70, 64
3, 57120, Note_on_c, 0, 74, 97
3, 57200, Note_off_c, 0, 74, 64
3, 57200, Note_on_c, 0, 70, 97
3, 57280, Note_off_c, 0, 70, 64
3, 57280, Note_on_c, 0, 68, 97
3, 57360, Note_off_c, 0, 68, 64
3, 57360, Note_on_c, 0, 65, 97
3, 57440, Note_off_c, 0, 65, 64
3, 57440, Note_on_c, 0, 68, 97
3, 57520, Note_off_c, 0, 68, 64
3, 57520, Note_on_c, 0, 70, 97
3, 57600, Note_off_c, 0, 70, 64
3, 57600, Note_on_c, 0, 74, 97
3, 57720, Note_off_c, 0, 74, 64
3, 57720, Note_on_c, 0, 72, 97
3, 57780, Note_off_c, 0, 72, 64
3, 57780, Note_on_c, 0, 71, 97
3, 57840, Note_off_c, 0, 71, 64
3, 57840, Note_on_c, 0, 72, 97
3, 58200, Note_off_c, 0, 72, 64
3, 58200, Note_on_c, 0, 70, 97
3, 58260, Note_off_c, 0, 70, 64
3, 58260, Note_on_c, 0, 69, 97
3, 58320, Note_off_c, 0, 69, 64
3, 58320, Note_on_c, 0, 70, 97
3, 58680, Note_off_c, 0, 70, 64
3, 58680, Note_on_c, 0, 69, 97
3, 58740, Note_off_c, 0, 69, 64
3, 58740, Note_on_c, 0, 67, 97
3, 58800, Note_off_c, 0, 67, 64
3, 58800, Note_on_c, 0, 69, 97
3, 59160, Note_off_c, 0, 69, 64
3, 59160, Note_on_c, 0, 67, 97
3, 59220, Note_off_c, 0, 67, 64
3, 59220, Note_on_c, 0, 66, 97
3, 59280, Note_off_c, 0, 66, 64
3, 59280, Note_on_c, 0, 67, 97
3, 59760, Note_off_c, 0, 67, 64
3, 59760, Note_on_c, 0, 66, 97
3, 60000, Note_off_c, 0, 66, 64
3, 60000, Note_on_c, 0, 74, 97
3, 60240, Note_off_c, 0, 74, 64
3, 60240, Note_on_c, 0, 64, 97
3, 60480, Note_off_c, 0, 64, 64
3, 60480, Note_on_c, 0, 69, 97
3, 60720, Note_off_c, 0, 69, 64
3, 60720, Note_on_c, 0, 62, 97
3, 60960, Note_off_c, 0, 62, 64
3, 60960, Note_on_c, 0, 74, 97
3, 61200, Note_off_c, 0, 74, 64
3, 61200, Note_on_c, 0, 66, 97
3, 61440, Note_off_c, 0, 66, 64
3, 61440, Note_on_c, 0, 67, 97
3, 61680, Note_off_c, 0, 67, 64
3, 61680, Note_on_c, 0, 75, 97
3, 61760, Note_off_c, 0, 75, 64
3, 61760, Note_on_c, 0, 74, 97
3, 61840, Note_off_c, 0, 74, 64
3, 61840, Note_on_c, 0, 72, 97
3, 61920, Note_off_c, 0, 72, 64
3, 61920, Note_on_c, 0, 74, 97
3, 62160, Note_off_c, 0, 74, 64
3, 62160, Note_on_c, 0, 72, 97
3, 62240, Note_off_c, 0, 72, 64
3, 62240, Note_on_c, 0, 70, 97
3, 62320, Note_off_c, 0, 70, 64
3, 62320, Note_on_c, 0, 69, 97
3, 62400, Note_off_c, 0, 69, 64
3, 62400, Note_on_c, 0, 70, 97
3, 62640, Note_off_c, 0, 70, 64
3, 62640, Note_on_c, 0, 72, 97
3, 62880, Note_off_c, 0, 72, 64
3, 62880, Note_on_c, 0, 70, 97
3, 63120, Note_off_c, 0, 70, 64
3, 63120, Note_on_c, 0, 69, 97
3, 63360, Note_off_c, 0, 69, 64
3, 63360, Note_on_c, 0, 67, 97
3, 63480, Note_off_c, 0, 67, 64
3, 63480, Note_on_c, 0, 70, 97
3, 63600, Note_off_c, 0, 70, 64
3, 63600, Note_on_c, 0, 75, 97
3, 63720, Note_off_c, 0, 75, 64
3, 63720, Note_on_c, 0, 69, 97
3, 63840, Note_off_c, 0, 69, 64
3, 63840, Note_on_c, 0, 72, 97
3, 63960, Note_off_c, 0, 72, 64
3, 63960, Note_on_c, 0, 70, 97
3, 64080, Note_off_c, 0, 70, 64
3, 64080, Note_on_c, 0, 69, 97
3, 64200, Note_off_c, 0, 69, 64
3, 64200, Note_on_c, 0, 67, 97
3, 64320, Note_off_c, 0, 67, 64
3, 64320, Note_on_c, 0, 67, 97
3, 64620, Note_off_c, 0, 67, 64
3, 64620, Note_on_c, 0, 63, 97
3, 64680, Note_off_c, 0, 63, 64
3, 64680, Note_on_c, 0, 62, 97
3, 64740, Note_off_c, 0, 62, 64
3, 64740, Note_on_c, 0, 61, 97
3, 64800, Note_off_c, 0, 61, 64
3, 64800, Note_on_c, 0, 62, 97
3, 64920, Note_off_c, 0, 62, 64
3, 64920, Note_on_c, 0, 64, 97
3, 65040, Note_off_c, 0, 64, 64
3, 65040, Note_on_c, 0, 66, 97
3, 65160, Note_off_c, 0, 66, 64
3, 65160, Note_on_c, 0, 67, 97
3, 65220, Note_off_c, 0, 67, 64
3, 65220, Note_on_c, 0, 69, 97
3, 65280, Note_off_c, 0, 69, 64
3, 65280, Note_on_c, 0, 70, 97
3, 66540, Note_off_c, 0, 70, 64
3, 66540, Note_on_c, 0, 62, 97
3, 66600, Note_off_c, 0, 62, 64
3, 66600, Note_on_c, 0, 60, 97
3, 66660, Note_off_c, 0, 60, 64
3, 66660, Note_on_c, 0, 59, 97
3, 66720, Note_off_c, 0, 59, 64
3, 66720, Note_on_c, 0, 60, 97
3, 66840, Note_off_c, 0, 60, 64
3, 66840, Note_on_c, 0, 62, 97
3, 66960, Note_off_c, 0, 62, 64
3, 66960, Note_on_c, 0, 63, 97
3, 67080, Note_off_c, 0, 63, 64
3, 67080, Note_on_c, 0, 65, 97
3, 67140, Note_off_c, 0, 65, 64
3, 67140, Note_on_c, 0, 67, 97
3, 67200, Note_off_c, 0, 67, 64
3, 67200, Note_on_c, 0, 69, 97
3, 68460, Note_off_c, 0, 69, 64
3, 68460, Note_on_c, 0, 60, 97
3, 68520, Note_off_c, 0, 60, 64
3, 68520, Note_on_c, 0, 58, 97
3, 68580, Note_off_c, 0, 58, 64
3, 68580, Note_on_c, 0, 57, 97
3, 68640, Note_off_c, 0, 57, 64
3, 68640, Note_on_c, 0, 58, 97
3, 68760, Note_off_c, 0, 58, 64
3, 68760, Note_on_c, 0, 60, 97
3, 68880, Note_off_c, 0, 60, 64
3, 68880, Note_on_c, 0, 62, 97
3, 69000, Note_off_c, 0, 62, 64
3, 69000, Note_on_c, 0, 63, 97
3, 69060, Note_off_c, 0, 63, 64
3, 69060, Note_on_c, 0, 65, 97
3, 69120, Note_off_c, 0, 65, 64
3, 69120, Note_on_c, 0, 67, 97
3, 69720, Note_off_c, 0, 67, 64
3, 69720, Note_on_c, 0, 65, 97
3, 69840, Note_off_c, 0, 65, 64
3, 69840, Note_on_c, 0, 67, 97
3, 69960, Note_off_c, 0, 67, 64
3, 69960, Note_on_c, 0, 70, 97
3, 70080, Note_off_c, 0, 70, 64
3, 70080, Note_on_c, 0, 69, 97
3, 70200, Note_off_c, 0, 69, 64
3, 70200, Note_on_c, 0, 67, 97
3, 70320, Note_off_c, 0, 67, 64
3, 70320, Note_on_c, 0, 69, 97
3, 70440, Note_off_c, 0, 69, 64
3, 70440, Note_on_c, 0, 70, 97
3, 70560, Note_off_c, 0, 70, 64
3, 70560, Note_on_c, 0, 69, 97
3, 70680, Note_off_c, 0, 69, 64
3, 70680, Note_on_c, 0, 67, 97
3, 70800, Note_off_c, 0, 67, 64
3, 70800, Note_on_c, 0, 69, 97
3, 70920, Note_off_c, 0, 69, 64
3, 70920, Note_on_c, 0, 72, 97
3, 71040, Note_off_c, 0, 72, 64
3, 71040, Note_on_c, 0, 70, 97
3, 71100, Note_off_c, 0, 70, 64
3, 71100, Note_on_c, 0, 72, 97
3, 71160, Note_off_c, 0, 72, 64
3, 71160, Note_on_c, 0, 70, 97
3, 72000, Note_off_c, 0, 70, 64
3, 72000, Note_on_c, 0, 72, 97
3, 72060, Note_off_c, 0, 72, 64
3, 72060, Note_on_c, 0, 70, 97
3, 72120, Note_off_c, 0, 70, 64
3, 72120, Note_on_c, 0, 72, 97
3, 72480, Note_off_c, 0, 72, 64
3, 72720, Note_on_c, 0, 62, 97
3, 72840, Note_off_c, 0, 62, 64
3, 72840, Note_on_c, 0, 63, 97
3, 72960, Note_off_c, 0, 63, 64
3, 72960, Note_on_c, 0, 65, 97
3, 73200, Note_off_c, 0, 65, 64
3, 73200, Note_on_c, 0, 67, 97
3, 73320, Note_off_c, 0, 67, 64
3, 73320, Note_on_c, 0, 69, 97
3, 73440, Note_off_c, 0, 69, 64
3, 73440, Note_on_c, 0, 70, 97
3, 73680, Note_off_c, 0, 70, 64
3, 73680, Note_on_c, 0, 69, 97
3, 73800, Note_off_c, 0, 69, 64
3, 73800, Note_on_c, 0, 67, 97
3, 73920, Note_off_c, 0, 67, 64
3, 73920, Note_on_c, 0, 65, 97
3, 74040, Note_off_c, 0, 65, 64
3, 74040, Note_on_c, 0, 63, 97
3, 74160, Note_off_c, 0, 63, 64
3, 74160, Note_on_c, 0, 62, 97
3, 74280, Note_off_c, 0, 62, 64
3, 74280, Note_on_c, 0, 60, 97
3, 74400, Note_off_c, 0, 60, 64
3, 74400, Note_on_c, 0, 58, 97
3, 74640, Note_off_c, 0, 58, 64
3, 74640, Note_on_c, 0, 62, 97
3, 74880, Note_off_c, 0, 62, 64
3, 74880, Note_on_c, 0, 62, 97
3, 74940, Note_off_c, 0, 62, 64
3, 74940, Note_on_c, 0, 64, 97
3, 75000, Note_off_c, 0, 64, 64
3, 75000, Note_on_c, 0, 62, 97
3, 75120, Note_off_c, 0, 62, 64
3, 75120, Note_on_c, 0, 60, 97
3, 75360, Note_off_c, 0, 60, 64
3, 75600, Note_on_c, 0, 70, 97
3, 75840, Note_off_c, 0, 70, 64
3, 75840, Note_on_c, 0, 70, 97
3, 75900, Note_off_c, 0, 70, 64
3, 75900, Note_on_c, 0, 72, 97
3, 75960, Note_off_c, 0, 72, 64
3, 75960, Note_on_c, 0, 70, 97
3, 76080, Note_off_c, 0, 70, 64
3, 76080, Note_on_c, 0, 69, 97
3, 76320, Note_off_c, 0, 69, 64
3, 77280, Note_on_c, 0, 67, 97
3, 78360, Note_off_c, 0, 67, 64
3, 78360, Note_on_c, 0, 55, 97
3, 78480, Note_off_c, 0, 55, 64
3, 78480, Note_on_c, 0, 60, 97
3, 78960, Note_off_c, 0, 60, 64
3, 78960, Note_on_c, 0, 59, 97
3, 79020, Note_off_c, 0, 59, 64
3, 79020, Note_on_c, 0, 57, 97
3, 79080, Note_off_c, 0, 57, 64
3, 79080, Note_on_c, 0, 55, 97
3, 79200, Note_off_c, 0, 55, 64
3, 79200, Note_on_c, 0, 65, 97
3, 79440, Note_off_c, 0, 65, 64
3, 79440, Note_on_c, 0, 63, 97
3, 79680, Note_off_c, 0, 63, 64
3, 79680, Note_on_c, 0, 63, 97
3, 79740, Note_off_c, 0, 63, 64
3, 79740, Note_on_c, 0, 65, 97
3, 79800, Note_off_c, 0, 65, 64
3, 79800, Note_on_c, 0, 63, 97
3, 79920, Note_off_c, 0, 63, 64
3, 79920, Note_on_c, 0, 62, 97
3, 80160, Note_off_c, 0, 62, 64
3, 80400, Note_on_c, 0, 62, 97
3, 80640, Note_off_c, 0, 62, 64
3, 80640, Note_on_c, 0, 63, 97
3, 80670, Note_off_c, 0, 63, 64
3, 80670, Note_on_c, 0, 65, 97
3, 80700, Note_off_c, 0, 65, 64
3, 80700, Note_on_c, 0, 63, 97
3, 80760, Note_off_c, 0, 63, 64
3, 80760, Note_on_c, 0, 62, 97
3, 80880, Note_off_c, 0, 62, 64
3, 80880, Note_on_c, 0, 63, 97
3, 81240, Note_off_c, 0, 63, 64
3, 81240, Note_on_c, 0, 62, 97
3, 81360, Note_off_c, 0, 62, 64
3, 81360, Note_on_c, 0, 63, 97
3, 81600, Note_off_c, 0, 63, 64
3, 81600, Note_on_c, 0, 63, 97
3, 81840, Note_off_c, 0, 63, 64
3, 81840, Note_on_c, 0, 53, 97
3, 82080, Note_off_c, 0, 53, 64
3, 82320, Note_on_c, 0, 63, 97
3, 82560, Note_off_c, 0, 63, 64
3, 82560, Note_on_c, 0, 62, 97
3, 82590, Note_off_c, 0, 62, 64
3, 82590, Note_on_c, 0, 63, 97
3, 82620, Note_off_c, 0, 63, 64
3, 82620, Note_on_c, 0, 62, 97
3, 82680, Note_off_c, 0, 62, 64
3, 82680, Note_on_c, 0, 61, 97
3, 82800, Note_off_c, 0, 61, 64
3, 82800, Note_on_c, 0, 62, 97
3, 83160, Note_off_c, 0, 62, 64
3, 83160, Note_on_c, 0, 61, 97
3, 83280, Note_off_c, 0, 61, 64
3, 83280, Note_on_c, 0, 62, 97
3, 83520, Note_off_c, 0, 62, 64
3, 83520, Note_on_c, 0, 62, 97
3, 83760, Note_off_c, 0, 62, 64
3, 83760, Note_on_c, 0, 52, 97
3, 84000, Note_off_c, 0, 52, 64
3, 84240, Note_on_c, 0, 62, 97
3, 84480, Note_off_c, 0, 62, 64
3, 84480, Note_on_c, 0, 61, 97
3, 84720, Note_off_c, 0, 61, 64
3, 84720, Note_on_c, 0, 64, 97
3, 84960, Note_off_c, 0, 64, 64
3, 84960, Note_on_c, 0, 57, 97
3, 85200, Note_off_c, 0, 57, 64
3, 85200, Note_on_c, 0, 61, 97
3, 85440, Note_off_c, 0, 61, 64
3, 85440, Note_on_c, 0, 62, 97
3, 85680, Note_off_c, 0, 62, 64
3, 85680, Note_on_c, 0, 65, 97
3, 85920, Note_off_c, 0, 65, 64
3, 85920, Note_on_c, 0, 57, 97
3, 86160, Note_off_c, 0, 57, 64
3, 86160, Note_on_c, 0, 62, 97
3, 86280, Note_off_c, 0, 62, 64
3, 86280, Note_on_c, 0, 61, 97
3, 86400, Note_off_c, 0, 61, 64
3, 86400, Note_on_c, 0, 62, 97
3, 86640, Note_off_c, 0, 62, 64
3, 86640, Note_on_c, 0, 59, 97
3, 86880, Note_off_c, 0, 59, 64
3, 86880, Note_on_c, 0, 56, 97
3, 86940, Note_off_c, 0, 56, 64
3, 86940, Note_on_c, 0, 57, 97
3, 87000, Note_off_c, 0, 57, 64
3, 87000, Note_on_c, 0, 56, 97
3, 87360, Note_off_c, 0, 56, 64
3, 87360, Note_on_c, 0, 57, 97
3, 87840, Note_off_c, 0, 57, 64
3, 89040, Note_on_c, 0, 69, 97
3, 89400, Note_off_c, 0, 69, 64
3, 89400, Note_on_c, 0, 67, 97
3, 89520, Note_off_c, 0, 67, 64
3, 89520, Note_on_c, 0, 65, 97
3, 89640, Note_off_c, 0, 65, 64
3, 89640, Note_on_c, 0, 64, 97
3, 89760, Note_off_c, 0, 64, 64
3, 89760, Note_on_c, 0, 67, 97
3, 89880, Note_off_c, 0, 67, 64
3, 89880, Note_on_c, 0, 65, 97
3, 90000, Note_off_c, 0, 65, 64
3, 90000, Note_on_c, 0, 64, 97
3, 90120, Note_off_c, 0, 64, 64
3, 90120, Note_on_c, 0, 62, 97
3, 90240, Note_off_c, 0, 62, 64
3, 90240, Note_on_c, 0, 60, 97
3, 90480, Note_off_c, 0, 60, 64
3, 90480, Note_on_c, 0, 64, 97
3, 90720, Note_off_c, 0, 64, 64
3, 90720, Note_on_c, 0, 55, 97
3, 90960, Note_off_c, 0, 55, 64
3, 90960, Note_on_c, 0, 67, 97
3, 91320, Note_off_c, 0, 67, 64
3, 91320, Note_on_c, 0, 65, 97
3, 91440, Note_off_c, 0, 65, 64
3, 91440, Note_on_c, 0, 63, 97
3, 91560, Note_off_c, 0, 63, 64
3, 91560, Note_on_c, 0, 62, 97
3, 91680, Note_off_c, 0, 62, 64
3, 91680, Note_on_c, 0, 65, 97
3, 91800, Note_off_c, 0, 65, 64
3, 91800, Note_on_c, 0, 63, 97
3, 91920, Note_off_c, 0, 63, 64
3, 91920, Note_on_c, 0, 62, 97
3, 92040, Note_off_c, 0, 62, 64
3, 92040, Note_on_c, 0, 60, 97
3, 92160, Note_off_c, 0, 60, 64
3, 92160, Note_on_c, 0, 58, 97
3, 92400, Note_off_c, 0, 58, 64
3, 92400, Note_on_c, 0, 65, 97
3, 92640, Note_off_c, 0, 65, 64
3, 92640, Note_on_c, 0, 67, 97
3, 92700, Note_off_c, 0, 67, 64
3, 92700, Note_on_c, 0, 69, 97
3, 92760, Note_off_c, 0, 69, 64
3, 92760, Note_on_c, 0, 67, 97
3, 93600, Note_off_c, 0, 67, 64
3, 93600, Note_on_c, 0, 69, 97
3, 93660, Note_off_c, 0, 69, 64
3, 93660, Note_on_c, 0, 70, 97
3, 93720, Note_off_c, 0, 70, 64
3, 93720, Note_on_c, 0, 69, 97
3, 94200, Note_off_c, 0, 69, 64
3, 94200, Note_on_c, 0, 67, 97
3, 94320, Note_off_c, 0, 67, 64
3, 94320, Note_on_c, 0, 69, 97
3, 94440, Note_off_c, 0, 69, 64
3, 94440, Note_on_c, 0, 72, 97
3, 94560, Note_off_c, 0, 72, 64
3, 94560, Note_on_c, 0, 70, 97
3, 94680, Note_off_c, 0, 70, 64
3, 94680, Note_on_c, 0, 69, 97
3, 94800, Note_off_c, 0, 69, 64
3, 94800, Note_on_c, 0, 70, 97
3, 94920, Note_off_c, 0, 70, 64
3, 94920, Note_on_c, 0, 72, 97
3, 95040, Note_off_c, 0, 72, 64
3, 95040, Note_on_c, 0, 70, 97
3, 95160, Note_off_c, 0, 70, 64
3, 95160, Note_on_c, 0, 69, 97
3, 95280, Note_off_c, 0, 69, 64
3, 95280, Note_on_c, 0, 70, 97
3, 95400, Note_off_c, 0, 70, 64
3, 95400, Note_on_c, 0, 74, 97
3, 95520, Note_off_c, 0, 74, 64
3, 95520, Note_on_c, 0, 72, 97
3, 95640, Note_off_c, 0, 72, 64
3, 95640, Note_on_c, 0, 70, 97
3, 95760, Note_off_c, 0, 70, 64
3, 95760, Note_on_c, 0, 72, 97
3, 95880, Note_off_c, 0, 72, 64
3, 95880, Note_on_c, 0, 74, 97
3, 96000, Note_off_c, 0, 74, 64
3, 96000, Note_on_c, 0, 72, 97
3, 96240, Note_off_c, 0, 72, 64
3, 96240, Note_on_c, 0, 70, 97
3, 96320, Note_off_c, 0, 70, 64
3, 96320, Note_on_c, 0, 69, 97
3, 96400, Note_off_c, 0, 69, 64
3, 96400, Note_on_c, 0, 67, 97
3, 96480, Note_off_c, 0, 67, 64
3, 96480, Note_on_c, 0, 69, 97
3, 96720, Note_off_c, 0, 69, 64
3, 96720, Note_on_c, 0, 67, 97
3, 96800, Note_off_c, 0, 67, 64
3, 96800, Note_on_c, 0, 65, 97
3, 96880, Note_off_c, 0, 65, 64
3, 96880, Note_on_c, 0, 64, 97
3, 96960, Note_off_c, 0, 64, 64
3, 96960, Note_on_c, 0, 65, 97
3, 97200, Note_off_c, 0, 65, 64
3, 97200, Note_on_c, 0, 62, 97
3, 97440, Note_off_c, 0, 62, 64
3, 97440, Note_on_c, 0, 60, 97
3, 97680, Note_off_c, 0, 60, 64
3, 97680, Note_on_c, 0, 58, 97
3, 97920, Note_off_c, 0, 58, 64
3, 97920, Note_on_c, 0, 57, 97
3, 98160, Note_off_c, 0, 57, 64
3, 98160, Note_on_c, 0, 65, 97
3, 98400, Note_off_c, 0, 65, 64
3, 98400, Note_on_c, 0, 55, 97
3, 98640, Note_off_c, 0, 55, 64
3, 98640, Note_on_c, 0, 64, 97
3, 98880, Note_off_c, 0, 64, 64
3, 98880, Note_on_c, 0, 65, 97
3, 100140, Note_off_c, 0, 65, 64
3, 100140, Note_on_c, 0, 60, 97
3, 100200, Note_off_c, 0, 60, 64
3, 100200, Note_on_c, 0, 58, 97
3, 100260, Note_off_c, 0, 58, 64
3, 100260, Note_on_c, 0, 57, 97
3, 100320, Note_off_c, 0, 57, 64
3, 100320, Note_on_c, 0, 58, 97
3, 100440, Note_off_c, 0, 58, 64
3, 100440, Note_on_c, 0, 60, 97
3, 100560, Note_off_c, 0, 60, 64
3, 100560, Note_on_c, 0, 62, 97
3, 100680, Note_off_c, 0, 62, 64
3, 100680, Note_on_c, 0, 64, 97
3, 100740, Note_off_c, 0, 64, 64
3, 100740, Note_on_c, 0, 65, 97
3, 100800, Note_off_c, 0, 65, 64
3, 100800, Note_on_c, 0, 67, 97
3, 102060, Note_off_c, 0, 67, 64
3, 102060, Note_on_c, 0, 62, 97
3, 102120, Note_off_c, 0, 62, 64
3, 102120, Note_on_c, 0, 60, 97
3, 102180, Note_off_c, 0, 60, 64
3, 102180, Note_on_c, 0, 59, 97
3, 102240, Note_off_c, 0, 59, 64
3, 102240, Note_on_c, 0, 60, 97
3, 102360, Note_off_c, 0, 60, 64
3, 102360, Note_on_c, 0, 62, 97
3, 102480, Note_off_c, 0, 62, 64
3, 102480, Note_on_c, 0, 64, 97
3, 102600, Note_off_c, 0, 64, 64
3, 102600, Note_on_c, 0, 65, 97
3, 102660, Note_off_c, 0, 65, 64
3, 102660, Note_on_c, 0, 67, 97
3, 102720, Note_off_c, 0, 67, 64
3, 102720, Note_on_c, 0, 69, 97
3, 103680, Note_off_c, 0, 69, 64
3, 103680, Note_on_c, 0, 69, 97
3, 103920, Note_off_c, 0, 69, 64
3, 103920, Note_on_c, 0, 65, 97
3, 104040, Note_off_c, 0, 65, 64
3, 104040, Note_on_c, 0, 64, 97
3, 104100, Note_off_c, 0, 64, 64
3, 104100, Note_on_c, 0, 62, 97
3, 104160, Note_off_c, 0, 62, 64
3, 104160, Note_on_c, 0, 70, 97
3, 104880, Note_off_c, 0, 70, 64
3, 104880, Note_on_c, 0, 69, 97
3, 105000, Note_off_c, 0, 69, 64
3, 105000, Note_on_c, 0, 70, 97
3, 105060, Note_off_c, 0, 70, 64
3, 105060, Note_on_c, 0, 67, 97
3, 105120, Note_off_c, 0, 67, 64
3, 105120, Note_on_c, 0, 69, 97
3, 105720, Note_off_c, 0, 69, 64
3, 105720, Note_on_c, 0, 67, 97
3, 105840, Note_off_c, 0, 67, 64
3, 105840, Note_on_c, 0, 65, 97
3, 105960, Note_off_c, 0, 65, 64
3, 105960, Note_on_c, 0, 67, 97
3, 106080, Note_off_c, 0, 67, 64
3, 106080, Note_on_c, 0, 67, 97
3, 106140, Note_off_c, 0, 67, 64
3, 106140, Note_on_c, 0, 69, 97
3, 106200, Note_off_c, 0, 69, 64
3, 106200, Note_on_c, 0, 67, 97
3, 106440, Note_off_c, 0, 67, 64
3, 106440, Note_on_c, 0, 69, 97
3, 106560, Note_off_c, 0, 69, 64
3, 106560, Note_on_c, 0, 69, 97
3, 107040, Note_off_c, 0, 69, 64
3, 115200, Note_on_c, 0, 72, 97
3, 115320, Note_off_c, 0, 72, 64
3, 115320, Note_on_c, 0, 71, 97
3, 115440, Note_off_c, 0, 71, 64
3, 115440, Note_on_c, 0, 69, 97
3, 115680, Note_off_c, 0, 69, 64
3, 115680, Note_on_c, 0, 71, 97
3, 115740, Note_off_c, 0, 71, 64
3, 115740, Note_on_c, 0, 69, 97
3, 115800, Note_off_c, 0, 69, 64
3, 115800, Note_on_c, 0, 68, 97
3, 115920, Note_off_c, 0, 68, 64
3, 115920, Note_on_c, 0, 69, 97
3, 116280, Note_off_c, 0, 69, 64
3, 116280, Note_on_c, 0, 71, 97
3, 116400, Note_off_c, 0, 71, 64
3, 116400, Note_on_c, 0, 69, 97
3, 116520, Note_off_c, 0, 69, 64
3, 116520, Note_on_c, 0, 68, 97
3, 116640, Note_off_c, 0, 68, 64
3, 116640, Note_on_c, 0, 69, 97
3, 116760, Note_off_c, 0, 69, 64
3, 116760, Note_on_c, 0, 71, 97
3, 116880, Note_off_c, 0, 71, 64
3, 116880, Note_on_c, 0, 72, 97
3, 117000, Note_off_c, 0, 72, 64
3, 117000, Note_on_c, 0, 74, 97
3, 117120, Note_off_c, 0, 74, 64
3, 117120, Note_on_c, 0, 76, 97
3, 117360, Note_off_c, 0, 76, 64
3, 117360, Note_on_c, 0, 77, 97
3, 117480, Note_off_c, 0, 77, 64
3, 117480, Note_on_c, 0, 76, 97
3, 117600, Note_off_c, 0, 76, 64
3, 117600, Note_on_c, 0, 74, 97
3, 117720, Note_off_c, 0, 74, 64
3, 117720, Note_on_c, 0, 72, 97
3, 117840, Note_off_c, 0, 72, 64
3, 117840, Note_on_c, 0, 71, 97
3, 117960, Note_off_c, 0, 71, 64
3, 117960, Note_on_c, 0, 69, 97
3, 118080, Note_off_c, 0, 69, 64
3, 118080, Note_on_c, 0, 68, 97
3, 118320, Note_off_c, 0, 68, 64
3, 118320, Note_on_c, 0, 71, 97
3, 118560, Note_off_c, 0, 71, 64
3, 118560, Note_on_c, 0, 64, 97
3, 118800, Note_off_c, 0, 64, 64
3, 118800, Note_on_c, 0, 74, 97
3, 119160, Note_off_c, 0, 74, 64
3, 119160, Note_on_c, 0, 72, 97
3, 119280, Note_off_c, 0, 72, 64
3, 119280, Note_on_c, 0, 71, 97
3, 119400, Note_off_c, 0, 71, 64
3, 119400, Note_on_c, 0, 69, 97
3, 119520, Note_off_c, 0, 69, 64
3, 119520, Note_on_c, 0, 72, 97
3, 119640, Note_off_c, 0, 72, 64
3, 119640, Note_on_c, 0, 71, 97
3, 119760, Note_off_c, 0, 71, 64
3, 119760, Note_on_c, 0, 69, 97
3, 119880, Note_off_c, 0, 69, 64
3, 119880, Note_on_c, 0, 67, 97
3, 120000, Note_off_c, 0, 67, 64
3, 120000, Note_on_c, 0, 66, 97
3, 120240, Note_off_c, 0, 66, 64
3, 120240, Note_on_c, 0, 69, 97
3, 120480, Note_off_c, 0, 69, 64
3, 120480, Note_on_c, 0, 62, 97
3, 120720, Note_off_c, 0, 62, 64
3, 120720, Note_on_c, 0, 72, 97
3, 121080, Note_off_c, 0, 72, 64
3, 121080, Note_on_c, 0, 71, 97
3, 121200, Note_off_c, 0, 71, 64
3, 121200, Note_on_c, 0, 69, 97
3, 121320, Note_off_c, 0, 69, 64
3, 121320, Note_on_c, 0, 67, 97
3, 121440, Note_off_c, 0, 67, 64
3, 121440, Note_on_c, 0, 71, 97
3, 121560, Note_off_c, 0, 71, 64
3, 121560, Note_on_c, 0, 69, 97
3, 121680, Note_off_c, 0, 69, 64
3, 121680, Note_on_c, 0, 67, 97
3, 121800, Note_off_c, 0, 67, 64
3, 121800, Note_on_c, 0, 65, 97
3, 121920, Note_off_c, 0, 65, 64
3, 121920, Note_on_c, 0, 64, 97
3, 122520, Note_off_c, 0, 64, 64
3, 122520, Note_on_c, 0, 62, 97
3, 122640, Note_off_c, 0, 62, 64
3, 122640, Note_on_c, 0, 64, 97
3, 122760, Note_off_c, 0, 64, 64
3, 122760, Note_on_c, 0, 67, 97
3, 122880, Note_off_c, 0, 67, 64
3, 122880, Note_on_c, 0, 66, 97
3, 123000, Note_off_c, 0, 66, 64
3, 123000, Note_on_c, 0, 64, 97
3, 123120, Note_off_c, 0, 64, 64
3, 123120, Note_on_c, 0, 66, 97
3, 123240, Note_off_c, 0, 66, 64
3, 123240, Note_on_c, 0, 67, 97
3, 123360, Note_off_c, 0, 67, 64
3, 123360, Note_on_c, 0, 66, 97
3, 123480, Note_off_c, 0, 66, 64
3, 123480, Note_on_c, 0, 64, 97
3, 123600, Note_off_c, 0, 64, 64
3, 123600, Note_on_c, 0, 66, 97
3, 123720, Note_off_c, 0, 66, 64
3, 123720, Note_on_c, 0, 69, 97
3, 123840, Note_off_c, 0, 69, 64
3, 123840, Note_on_c, 0, 68, 97
3, 123960, Note_off_c, 0, 68, 64
3, 123960, Note_on_c, 0, 66, 97
3, 124080, Note_off_c, 0, 66, 64
3, 124080, Note_on_c, 0, 68, 97
3, 124200, Note_off_c, 0, 68, 64
3, 124200, Note_on_c, 0, 69, 97
3, 124320, Note_off_c, 0, 69, 64
3, 124320, Note_on_c, 0, 68, 97
3, 124440, Note_off_c, 0, 68, 64
3, 124440, Note_on_c, 0, 66, 97
3, 124560, Note_off_c, 0, 66, 64
3, 124560, Note_on_c, 0, 68, 97
3, 124680, Note_off_c, 0, 68, 64
3, 124680, Note_on_c, 0, 71, 97
3, 124800, Note_off_c, 0, 71, 64
3, 124800, Note_on_c, 0, 69, 97
3, 124860, Note_off_c, 0, 69, 64
3, 124860, Note_on_c, 0, 71, 97
3, 124920, Note_off_c, 0, 71, 64
3, 124920, Note_on_c, 0, 69, 97
3, 125760, Note_off_c, 0, 69, 64
3, 125760, Note_on_c, 0, 71, 97
3, 125820, Note_off_c, 0, 71, 64
3, 125820, Note_on_c, 0, 72, 97
3, 125880, Note_off_c, 0, 72, 64
3, 125880, Note_on_c, 0, 71, 97
3, 126720, Note_off_c, 0, 71, 64
3, 126720, Note_on_c, 0, 72, 97
3, 126960, Note_off_c, 0, 72, 64
3, 126960, Note_on_c, 0, 74, 97
3, 127040, Note_off_c, 0, 74, 64
3, 127040, Note_on_c, 0, 72, 97
3, 127120, Note_off_c, 0, 72, 64
3, 127120, Note_on_c, 0, 71, 97
3, 127200, Note_off_c, 0, 71, 64
3, 127200, Note_on_c, 0, 72, 97
3, 127440, Note_off_c, 0, 72, 64
3, 127440, Note_on_c, 0, 71, 97
3, 127520, Note_off_c, 0, 71, 64
3, 127520, Note_on_c, 0, 69, 97
3, 127600, Note_off_c, 0, 69, 64
3, 127600, Note_on_c, 0, 68, 97
3, 127680, Note_off_c, 0, 68, 64
3, 127680, Note_on_c, 0, 69, 97
3, 127920, Note_off_c, 0, 69, 64
3, 127920, Note_on_c, 0, 65, 97
3, 128160, Note_off_c, 0, 65, 64
3, 128160, Note_on_c, 0, 64, 97
3, 128400, Note_off_c, 0, 64, 64
3, 128400, Note_on_c, 0, 62, 97
3, 128640, Note_off_c, 0, 62, 64
3, 128640, Note_on_c, 0, 60, 97
3, 128880, Note_off_c, 0, 60, 64
3, 128880, Note_on_c, 0, 69, 97
3, 129120, Note_off_c, 0, 69, 64
3, 129120, Note_on_c, 0, 59, 97
3, 129360, Note_off_c, 0, 59, 64
3, 129360, Note_on_c, 0, 68, 97
3, 129600, Note_off_c, 0, 68, 64
3, 129600, Note_on_c, 0, 69, 97
3, 129840, Note_off_c, 0, 69, 64
3, 130560, Note_on_c, 0, 62, 97
3, 130860, Note_off_c, 0, 62, 64
3, 130860, Note_on_c, 0, 64, 97
3, 130920, Note_off_c, 0, 64, 64
3, 130920, Note_on_c, 0, 62, 97
3, 130980, Note_off_c, 0, 62, 64
3, 130980, Note_on_c, 0, 61, 97
3, 131040, Note_off_c, 0, 61, 64
3, 131040, Note_on_c, 0, 62, 97
3, 131160, Note_off_c, 0, 62, 64
3, 131160, Note_on_c, 0, 64, 97
3, 131280, Note_off_c, 0, 64, 64
3, 131280, Note_on_c, 0, 65, 97
3, 131400, Note_off_c, 0, 65, 64
3, 131400, Note_on_c, 0, 67, 97
3, 131460, Note_off_c, 0, 67, 64
3, 131460, Note_on_c, 0, 69, 97
3, 131520, Note_off_c, 0, 69, 64
3, 131520, Note_on_c, 0, 70, 97
3, 132780, Note_off_c, 0, 70, 64
3, 132780, Note_on_c, 0, 62, 97
3, 132840, Note_off_c, 0, 62, 64
3, 132840, Note_on_c, 0, 60, 97
3, 132900, Note_off_c, 0, 60, 64
3, 132900, Note_on_c, 0, 58, 97
3, 132960, Note_off_c, 0, 58, 64
3, 132960, Note_on_c, 0, 60, 97
3, 133080, Note_off_c, 0, 60, 64
3, 133080, Note_on_c, 0, 62, 97
3, 133200, Note_off_c, 0, 62, 64
3, 133200, Note_on_c, 0, 64, 97
3, 133320, Note_off_c, 0, 64, 64
3, 133320, Note_on_c, 0, 65, 97
3, 133380, Note_off_c, 0, 65, 64
3, 133380, Note_on_c, 0, 67, 97
3, 133440, Note_off_c, 0, 67, 64
3, 133440, Note_on_c, 0, 69, 97
3, 134520, Note_off_c, 0, 69, 64
3, 134520, Note_on_c, 0, 67, 97
3, 134580, Note_off_c, 0, 67, 64
3, 134580, Note_on_c, 0, 65, 97
3, 134640, Note_off_c, 0, 65, 64
3, 134640, Note_on_c, 0, 67, 97
3, 135000, Note_off_c, 0, 67, 64
3, 135000, Note_on_c, 0, 65, 97
3, 135060, Note_off_c, 0, 65, 64
3, 135060, Note_on_c, 0, 64, 97
3, 135120, Note_off_c, 0, 64, 64
3, 135120, Note_on_c, 0, 65, 97
3, 135480, Note_off_c, 0, 65, 64
3, 135480, Note_on_c, 0, 64, 97
3, 135540, Note_off_c, 0, 64, 64
3, 135540, Note_on_c, 0, 62, 97
3, 135600, Note_off_c, 0, 62, 64
3, 135600, Note_on_c, 0, 64, 97
3, 135960, Note_off_c, 0, 64, 64
3, 135960, Note_on_c, 0, 62, 97
3, 136020, Note_off_c, 0, 62, 64
3, 136020, Note_on_c, 0, 61, 97
3, 136080, Note_off_c, 0, 61, 64
3, 136080, Note_on_c, 0, 62, 97
3, 136560, Note_off_c, 0, 62, 64
3, 136560, Note_on_c, 0, 61, 97
3, 136800, Note_off_c, 0, 61, 64
3, 136800, Note_on_c, 0, 65, 97
3, 137040, Note_off_c, 0, 65, 64
3, 137040, Note_on_c, 0, 59, 97
3, 137280, Note_off_c, 0, 59, 64
3, 137280, Note_on_c, 0, 64, 97
3, 137520, Note_off_c, 0, 64, 64
3, 137520, Note_on_c, 0, 57, 97
3, 137760, Note_off_c, 0, 57, 64
3, 137760, Note_on_c, 0, 69, 97
3, 138000, Note_off_c, 0, 69, 64
3, 138000, Note_on_c, 0, 61, 97
3, 138240, Note_off_c, 0, 61, 64
3, 138240, Note_on_c, 0, 62, 97
3, 138480, Note_off_c, 0, 62, 64
3, 138480, Note_on_c, 0, 70, 97
3, 138720, Note_off_c, 0, 70, 64
3, 138720, Note_on_c, 0, 69, 97
3, 138960, Note_off_c, 0, 69, 64
3, 138960, Note_on_c, 0, 67, 97
3, 139200, Note_off_c, 0, 67, 64
3, 139200, Note_on_c, 0, 65, 97
3, 139440, Note_off_c, 0, 65, 64
3, 139440, Note_on_c, 0, 67, 97
3, 139680, Note_off_c, 0, 67, 64
3, 139680, Note_on_c, 0, 65, 97
3, 139920, Note_off_c, 0, 65, 64
3, 139920, Note_on_c, 0, 64, 97
3, 140160, Note_off_c, 0, 64, 64
3, 140160, Note_on_c, 0, 62, 97
3, 140640, Note_off_c, 0, 62, 64
3, 140880, Note_on_c, 0, 67, 97
3, 141240, Note_off_c, 0, 67, 64
3, 141240, Note_on_c, 0, 69, 97
3, 141360, Note_off_c, 0, 69, 64
3, 141360, Note_on_c, 0, 67, 97
3, 141480, Note_off_c, 0, 67, 64
3, 141480, Note_on_c, 0, 65, 97
3, 141600, Note_off_c, 0, 65, 64
3, 141600, Note_on_c, 0, 67, 97
3, 141720, Note_off_c, 0, 67, 64
3, 141720, Note_on_c, 0, 69, 97
3, 141840, Note_off_c, 0, 69, 64
3, 141840, Note_on_c, 0, 71, 97
3, 141960, Note_off_c, 0, 71, 64
3, 141960, Note_on_c, 0, 73, 97
3, 142080, Note_off_c, 0, 73, 64
3, 142080, Note_on_c, 0, 74, 97
3, 142320, Note_off_c, 0, 74, 64
3, 142320, Note_on_c, 0, 69, 97
3, 142560, Note_off_c, 0, 69, 64
3, 142560, Note_on_c, 0, 62, 97
3, 142800, Note_off_c, 0, 62, 64
3, 142800, Note_on_c, 0, 65, 97
3, 143160, Note_off_c, 0, 65, 64
3, 143160, Note_on_c, 0, 67, 97
3, 143280, Note_off_c, 0, 67, 64
3, 143280, Note_on_c, 0, 65, 97
3, 143400, Note_off_c, 0, 65, 64
3, 143400, Note_on_c, 0, 64, 97
3, 143520, Note_off_c, 0, 64, 64
3, 143520, Note_on_c, 0, 65, 97
3, 143640, Note_off_c, 0, 65, 64
3, 143640, Note_on_c, 0, 67, 97
3, 143760, Note_off_c, 0, 67, 64
3, 143760, Note_on_c, 0, 69, 97
3, 143880, Note_off_c, 0, 69, 64
3, 143880, Note_on_c, 0, 71, 97
3, 144000, Note_off_c, 0, 71, 64
3, 144000, Note_on_c, 0, 72, 97
3, 144240, Note_off_c, 0, 72, 64
3, 144240, Note_on_c, 0, 67, 97
3, 144480, Note_off_c, 0, 67, 64
3, 144480, Note_on_c, 0, 60, 97
3, 144720, Note_off_c, 0, 60, 64
3, 144720, Note_on_c, 0, 64, 97
3, 145080, Note_off_c, 0, 64, 64
3, 145080, Note_on_c, 0, 69, 97
3, 145200, Note_off_c, 0, 69, 64
3, 145200, Note_on_c, 0, 67, 97
3, 145320, Note_off_c, 0, 67, 64
3, 145320, Note_on_c, 0, 69, 97
3, 145440, Note_off_c, 0, 69, 64
3, 145440, Note_on_c, 0, 62, 97
3, 145500, Note_off_c, 0, 62, 64
3, 145500, Note_on_c, 0, 64, 97
3, 145560, Note_off_c, 0, 64, 64
3, 145560, Note_on_c, 0, 62, 97
3, 146400, Note_off_c, 0, 62, 64
3, 146400, Note_on_c, 0, 64, 97
3, 146460, Note_off_c, 0, 64, 64
3, 146460, Note_on_c, 0, 65, 97
3, 146520, Note_off_c, 0, 65, 64
3, 146520, Note_on_c, 0, 64, 97
3, 147360, Note_off_c, 0, 64, 64
3, 147360, Note_on_c, 0, 65, 97
3, 147420, Note_off_c, 0, 65, 64
3, 147420, Note_on_c, 0, 67, 97
3, 147480, Note_off_c, 0, 67, 64
3, 147480, Note_on_c, 0, 65, 97
3, 147960, Note_off_c, 0, 65, 64
3, 147960, Note_on_c, 0, 64, 97
3, 148080, Note_off_c, 0, 64, 64
3, 148080, Note_on_c, 0, 65, 97
3, 148200, Note_off_c, 0, 65, 64
3, 148200, Note_on_c, 0, 69, 97
3, 148320, Note_off_c, 0, 69, 64
3, 148320, Note_on_c, 0, 67, 97
3, 148440, Note_off_c, 0, 67, 64
3, 148440, Note_on_c, 0, 65, 97
3, 148560, Note_off_c, 0, 65, 64
3, 148560, Note_on_c, 0, 67, 97
3, 148680, Note_off_c, 0, 67, 64
3, 148680, Note_on_c, 0, 69, 97
3, 148800, Note_off_c, 0, 69, 64
3, 148800, Note_on_c, 0, 67, 97
3, 148920, Note_off_c, 0, 67, 64
3, 148920, Note_on_c, 0, 65, 97
3, 149040, Note_off_c, 0, 65, 64
3, 149040, Note_on_c, 0, 67, 97
3, 149160, Note_off_c, 0, 67, 64
3, 149160, Note_on_c, 0, 70, 97
3, 149280, Note_off_c, 0, 70, 64
3, 149280, Note_on_c, 0, 69, 97
3, 149400, Note_off_c, 0, 69, 64
3, 149400, Note_on_c, 0, 67, 97
3, 149520, Note_off_c, 0, 67, 64
3, 149520, Note_on_c, 0, 69, 97
3, 149640, Note_off_c, 0, 69, 64
3, 149640, Note_on_c, 0, 70, 97
3, 149760, Note_off_c, 0, 70, 64
3, 149760, Note_on_c, 0, 69, 97
3, 150000, Note_off_c, 0, 69, 64
3, 150000, Note_on_c, 0, 70, 97
3, 150080, Note_off_c, 0, 70, 64
3, 150080, Note_on_c, 0, 69, 97
3, 150160, Note_off_c, 0, 69, 64
3, 150160, Note_on_c, 0, 67, 97
3, 150240, Note_off_c, 0, 67, 64
3, 150240, Note_on_c, 0, 69, 97
3, 150480, Note_off_c, 0, 69, 64
3, 150480, Note_on_c, 0, 67, 97
3, 150560, Note_off_c, 0, 67, 64
3, 150560, Note_on_c, 0, 65, 97
3, 150640, Note_off_c, 0, 65, 64
3, 150640, Note_on_c, 0, 64, 97
3, 150720, Note_off_c, 0, 64, 64
3, 150720, Note_on_c, 0, 65, 97
3, 150960, Note_off_c, 0, 65, 64
3, 150960, Note_on_c, 0, 67, 97
3, 151200, Note_off_c, 0, 67, 64
3, 151200, Note_on_c, 0, 65, 97
3, 151440, Note_off_c, 0, 65, 64
3, 151440, Note_on_c, 0, 64, 97
3, 151680, Note_off_c, 0, 64, 64
3, 151680, Note_on_c, 0, 62, 97
3, 151800, Note_off_c, 0, 62, 64
3, 151800, Note_on_c, 0, 65, 97
3, 151920, Note_off_c, 0, 65, 64
3, 151920, Note_on_c, 0, 70, 97
3, 152040, Note_off_c, 0, 70, 64
3, 152040, Note_on_c, 0, 64, 97
3, 152160, Note_off_c, 0, 64, 64
3, 152160, Note_on_c, 0, 67, 97
3, 152280, Note_off_c, 0, 67, 64
3, 152280, Note_on_c, 0, 65, 97
3, 152400, Note_off_c, 0, 65, 64
3, 152400, Note_on_c, 0, 64, 97
3, 152520, Note_off_c, 0, 64, 64
3, 152520, Note_on_c, 0, 62, 97
3, 152640, Note_off_c, 0, 62, 64
3, 152640, Note_on_c, 0, 62, 97
3, 153120, Note_off_c, 0, 62, 64
3, 155042, Note_on_c, 0, 69, 97
3, 155522, Note_on_c, 0, 70, 97
3, 155525, Note_off_c, 0, 69, 64
3, 155762, Note_on_c, 0, 64, 97
3, 155765, Note_off_c, 0, 70, 64
3, 156242, Note_on_c, 0, 65, 97
3, 156245, Note_off_c, 0, 64, 64
3, 156482, Note_on_c, 0, 67, 97
3, 156485, Note_off_c, 0, 65, 64
3, 156562, Note_on_c, 0, 65, 97
3, 156565, Note_off_c, 0, 67, 64
3, 156642, Note_on_c, 0, 67, 97
3, 156645, Note_off_c, 0, 65, 64
3, 156722, Note_on_c, 0, 60, 97
3, 156725, Note_off_c, 0, 67, 64
3, 156962, Note_on_c, 0, 64, 97
3, 156965, Note_off_c, 0, 60, 64
3, 157442, Note_on_c, 0, 65, 97
3, 157445, Note_off_c, 0, 64, 64
3, 157472, Note_on_c, 0, 64, 97
3, 157475, Note_off_c, 0, 65, 64
3, 157502, Note_on_c, 0, 65, 97
3, 157505, Note_off_c, 0, 64, 64
3, 157685, Note_off_c, 0, 65, 64
3, 159362, Note_on_c, 0, 70, 97
3, 159602, Note_on_c, 0, 69, 97
3, 159605, Note_off_c, 0, 70, 64
3, 159842, Note_on_c, 0, 68, 97
3, 159845, Note_off_c, 0, 69, 64
3, 160202, Note_on_c, 0, 67, 97
3, 160205, Note_off_c, 0, 68, 64
3, 160262, Note_on_c, 0, 65, 97
3, 160265, Note_off_c, 0, 67, 64
3, 160322, Note_on_c, 0, 67, 97
3, 160325, Note_off_c, 0, 65, 64
3, 160442, Note_on_c, 0, 69, 97
3, 160445, Note_off_c, 0, 67, 64
3, 160502, Note_on_c, 0, 70, 97
3, 160505, Note_off_c, 0, 69, 64
3, 160562, Note_on_c, 0, 69, 97
3, 160565, Note_off_c, 0, 70, 64
3, 160682, Note_on_c, 0, 70, 97
3, 160685, Note_off_c, 0, 69, 64
3, 160742, Note_on_c, 0, 72, 97
3, 160745, Note_off_c, 0, 70, 64
3, 160802, Note_on_c, 0, 70, 97
3, 160805, Note_off_c, 0, 72, 64
3, 161762, Note_on_c, 0, 69, 97
3, 161765, Note_off_c, 0, 70, 64
3, 162005, Note_off_c, 0, 69, 64
3, 162242, Note_on_c, 0, 62, 97
3, 162362, Note_on_c, 0, 67, 97
3, 162365, Note_off_c, 0, 62, 64
3, 162422, Note_on_c, 0, 69, 97
3, 162425, Note_off_c, 0, 67, 64
3, 162482, Note_on_c, 0, 71, 97
3, 162485, Note_off_c, 0, 69, 64
3, 162602, Note_on_c, 0, 71, 97
3, 162605, Note_off_c, 0, 71, 64
3, 162662, Note_on_c, 0, 72, 97
3, 162665, Note_off_c, 0, 71, 64
3, 162722, Note_on_c, 0, 74, 97
3, 162725, Note_off_c, 0, 72, 64
3, 162842, Note_on_c, 0, 74, 97
3, 162845, Note_off_c, 0, 74, 64
3, 162902, Note_on_c, 0, 72, 97
3, 162905, Note_off_c, 0, 74, 64
3, 162962, Note_on_c, 0, 71, 97
3, 162965, Note_off_c, 0, 72, 64
3, 163082, Note_on_c, 0, 71, 97
3, 163085, Note_off_c, 0, 71, 64
3, 163142, Note_on_c, 0, 72, 97
3, 163145, Note_off_c, 0, 71, 64
3, 163202, Note_on_c, 0, 74, 97
3, 163205, Note_off_c, 0, 72, 64
3, 163322, Note_on_c, 0, 74, 97
3, 163325, Note_off_c, 0, 74, 64
3, 163382, Note_on_c, 0, 76, 97
3, 163385, Note_off_c, 0, 74, 64
3, 163442, Note_on_c, 0, 77, 97
3, 163445, Note_off_c, 0, 76, 64
3, 163562, Note_on_c, 0, 76, 97
3, 163565, Note_off_c, 0, 77, 64
3, 163622, Note_on_c, 0, 74, 97
3, 163625, Note_off_c, 0, 76, 64
3, 163682, Note_on_c, 0, 72, 97
3, 163685, Note_off_c, 0, 74, 64
3, 164762, Note_on_c, 0, 74, 97
3, 164765, Note_off_c, 0, 72, 64
3, 164822, Note_on_c, 0, 72, 97
3, 164825, Note_off_c, 0, 74, 64
3, 164882, Note_on_c, 0, 71, 97
3, 164885, Note_off_c, 0, 72, 64
3, 164942, Note_on_c, 0, 69, 97
3, 164945, Note_off_c, 0, 71, 64
3, 165002, Note_on_c, 0, 67, 97
3, 165005, Note_off_c, 0, 69, 64
3, 165062, Note_on_c, 0, 65, 97
3, 165065, Note_off_c, 0, 67, 64
3, 165122, Note_on_c, 0, 64, 97
3, 165125, Note_off_c, 0, 65, 64
3, 165362, Note_on_c, 0, 72, 97
3, 165365, Note_off_c, 0, 64, 64
3, 165602, Note_on_c, 0, 71, 97
3, 165605, Note_off_c, 0, 72, 64
3, 165842, Note_on_c, 0, 71, 97
3, 165845, Note_off_c, 0, 71, 64
3, 166082, Note_on_c, 0, 72, 97
3, 166085, Note_off_c, 0, 71, 64
3, 166325, Note_off_c, 0, 72, 64
3, 166562, Note_on_c, 0, 69, 97
3, 167042, Note_on_c, 0, 70, 97
3, 167045, Note_off_c, 0, 69, 64
3, 167282, Note_on_c, 0, 64, 97
3, 167285, Note_off_c, 0, 70, 64
3, 167762, Note_on_c, 0, 65, 97
3, 167765, Note_off_c, 0, 64, 64
3, 168002, Note_on_c, 0, 67, 97
3, 168005, Note_off_c, 0, 65, 64
3, 168082, Note_on_c, 0, 65, 97
3, 168085, Note_off_c, 0, 67, 64
3, 168162, Note_on_c, 0, 67, 97
3, 168165, Note_off_c, 0, 65, 64
3, 168242, Note_on_c, 0, 60, 97
3, 168245, Note_off_c, 0, 67, 64
3, 168482, Note_on_c, 0, 64, 97
3, 168485, Note_off_c, 0, 60, 64
3, 168962, Note_on_c, 0, 65, 97
3, 168965, Note_off_c, 0, 64, 64
3, 168992, Note_on_c, 0, 64, 97
3, 168995, Note_off_c, 0, 65, 64
3, 169022, Note_on_c, 0, 65, 97
3, 169025, Note_off_c, 0, 64, 64
3, 169205, Note_off_c, 0, 65, 64
3, 170882, Note_on_c, 0, 70, 97
3, 171122, Note_on_c, 0, 69, 97
3, 171125, Note_off_c, 0, 70, 64
3, 171362, Note_on_c, 0, 68, 97
3, 171365, Note_off_c, 0, 69, 64
3, 171722, Note_on_c, 0, 67, 97
3, 171725, Note_off_c, 0, 68, 64
3, 171782, Note_on_c, 0, 65, 97
3, 171785, Note_off_c, 0, 67, 64
3, 171842, Note_on_c, 0, 67, 97
3, 171845, Note_off_c, 0, 65, 64
3, 171962, Note_on_c, 0, 69, 97
3, 171965, Note_off_c, 0, 67, 64
3, 172022, Note_on_c, 0, 70, 97
3, 172025, Note_off_c, 0, 69, 64
3, 172082, Note_on_c, 0, 69, 97
3, 172085, Note_off_c, 0, 70, 64
3, 172202, Note_on_c, 0, 70, 97
3, 172205, Note_off_c, 0, 69, 64
3, 172262, Note_on_c, 0, 72, 97
3, 172265, Note_off_c, 0, 70, 64
3, 172322, Note_on_c, 0, 70, 97
3, 172325, Note_off_c, 0, 72, 64
3, 173282, Note_on_c, 0, 69, 97
3, 173285, Note_off_c, 0, 70, 64
3, 173525, Note_off_c, 0, 69, 64
3, 173762, Note_on_c, 0, 62, 97
3, 173882, Note_on_c, 0, 67, 97
3, 173885, Note_off_c, 0, 62, 64
3, 173942, Note_on_c, 0, 69, 97
3, 173945, Note_off_c, 0, 67, 64
3, 174002, Note_on_c, 0, 71, 97
3, 174005, Note_off_c, 0, 69, 64
3, 174122, Note_on_c, 0, 71, 97
3, 174125, Note_off_c, 0, 71, 64
3, 174182, Note_on_c, 0, 72, 97
3, 174185, Note_off_c, 0, 71, 64
3, 174242, Note_on_c, 0, 74, 97
3, 174245, Note_off_c, 0, 72, 64
3, 174362, Note_on_c, 0, 74, 97
3, 174365, Note_off_c, 0, 74, 64
3, 174422, Note_on_c, 0, 72, 97
3, 174425, Note_off_c, 0, 74, 64
3, 174482, Note_on_c, 0, 71, 97
3, 174485, Note_off_c, 0, 72, 64
3, 174602, Note_on_c, 0, 71, 97
3, 174605, Note_off_c, 0, 71, 64
3, 174662, Note_on_c, 0, 72, 97
3, 174665, Note_off_c, 0, 71, 64
3, 174722, Note_on_c, 0, 74, 97
3, 174725, Note_off_c, 0, 72, 64
3, 174842, Note_on_c, 0, 74, 97
3, 174845, Note_off_c, 0, 74, 64
3, 174902, Note_on_c, 0, 76, 97
3, 174905, Note_off_c, 0, 74, 64
3, 174962, Note_on_c, 0, 77, 97
3, 174965, Note_off_c, 0, 76, 64
3, 175082, Note_on_c, 0, 76, 97
3, 175085, Note_off_c, 0, 77, 64
3, 175142, Note_on_c, 0, 74, 97
3, 175145, Note_off_c, 0, 76, 64
3, 175202, Note_on_c, 0, 72, 97
3, 175205, Note_off_c, 0, 74, 64
3, 176282, Note_on_c, 0, 74, 97
3, 176285, Note_off_c, 0, 72, 64
3, 176342, Note_on_c, 0, 72, 97
3, 176345, Note_off_c, 0, 74, 64
3, 176402, Note_on_c, 0, 71, 97
3, 176405, Note_off_c, 0, 72, 64
3, 176462, Note_on_c, 0, 69, 97
3, 176465, Note_off_c, 0, 71, 64
3, 176522, Note_on_c, 0, 67, 97
3, 176525, Note_off_c, 0, 69, 64
3, 176582, Note_on_c, 0, 65, 97
3, 176585, Note_off_c, 0, 67, 64
3, 176642, Note_on_c, 0, 64, 97
3, 176645, Note_off_c, 0, 65, 64
3, 176882, Note_on_c, 0, 72, 97
3, 176885, Note_off_c, 0, 64, 64
3, 177122, Note_on_c, 0, 71, 97
3, 177125, Note_off_c, 0, 72, 64
3, 177362, Note_on_c, 0, 71, 97
3, 177365, Note_off_c, 0, 71, 64
3, 177602, Note_on_c, 0, 72, 97
3, 177605, Note_off_c, 0, 71, 64
3, 177845, Note_off_c, 0, 72, 64
3, 178082, Note_on_c, 0, 67, 97
3, 178562, Note_on_c, 0, 69, 97
3, 178565, Note_off_c, 0, 67, 64
3, 178802, Note_on_c, 0, 62, 97
3, 178805, Note_off_c, 0, 69, 64
3, 179282, Note_on_c, 0, 64, 97
3, 179285, Note_off_c, 0, 62, 64
3, 179522, Note_on_c, 0, 65, 97
3, 179525, Note_off_c, 0, 64, 64
3, 179602, Note_on_c, 0, 64, 97
3, 179605, Note_off_c, 0, 65, 64
3, 179682, Note_on_c, 0, 65, 97
3, 179685, Note_off_c, 0, 64, 64
3, 179762, Note_on_c, 0, 74, 97
3, 179765, Note_off_c, 0, 65, 64
3, 180002, Note_on_c, 0, 65, 97
3, 180005, Note_off_c, 0, 74, 64
3, 180272, Note_on_c, 0, 67, 97
3, 180275, Note_off_c, 0, 65, 64
3, 180302, Note_on_c, 0, 65, 97
3, 180305, Note_off_c, 0, 67, 64
3, 180482, Note_on_c, 0, 64, 97
3, 180485, Note_off_c, 0, 65, 64
3, 180725, Note_off_c, 0, 64, 64
3, 180962, Note_on_c, 0, 63, 97
3, 181022, Note_on_c, 0, 62, 97
3, 181025, Note_off_c, 0, 63, 64
3, 181082, Note_on_c, 0, 63, 97
3, 181085, Note_off_c, 0, 62, 64
3, 181322, Note_on_c, 0, 69, 97
3, 181325, Note_off_c, 0, 63, 64
3, 181382, Note_on_c, 0, 70, 97
3, 181385, Note_off_c, 0, 69, 64
3, 181442, Note_on_c, 0, 72, 97
3, 181445, Note_off_c, 0, 70, 64
3, 181562, Note_on_c, 0, 63, 97
3, 181565, Note_off_c, 0, 72, 64
3, 181682, Note_on_c, 0, 63, 97
3, 181685, Note_off_c, 0, 63, 64
3, 181712, Note_on_c, 0, 65, 97
3, 181715, Note_off_c, 0, 63, 64
3, 181742, Note_on_c, 0, 63, 97
3, 181745, Note_off_c, 0, 65, 64
3, 181922, Note_on_c, 0, 62, 97
3, 181925, Note_off_c, 0, 63, 64
3, 182165, Note_off_c, 0, 62, 64
3, 182402, Note_on_c, 0, 69, 97
3, 182432, Note_on_c, 0, 68, 97
3, 182435, Note_off_c, 0, 69, 64
3, 182462, Note_on_c, 0, 67, 97
3, 182465, Note_off_c, 0, 68, 64
3, 182492, Note_on_c, 0, 68, 97
3, 182495, Note_off_c, 0, 67, 64
3, 182522, Note_on_c, 0, 69, 97
3, 182525, Note_off_c, 0, 68, 64
3, 182552, Note_on_c, 0, 68, 97
3, 182555, Note_off_c, 0, 69, 64
3, 182582, Note_on_c, 0, 69, 97
3, 182585, Note_off_c, 0, 68, 64
3, 182612, Note_on_c, 0, 68, 97
3, 182615, Note_off_c, 0, 69, 64
3, 182642, Note_on_c, 0, 69, 97
3, 182645, Note_off_c, 0, 68, 64
3, 182672, Note_on_c, 0, 68, 97
3, 182675, Note_off_c, 0, 69, 64
3, 182702, Note_on_c, 0, 69, 97
3, 182705, Note_off_c, 0, 68, 64
3, 182732, Note_on_c, 0, 68, 97
3, 182735, Note_off_c, 0, 69, 64
3, 182762, Note_on_c, 0, 69, 97
3, 182765, Note_off_c, 0, 68, 64
3, 182792, Note_on_c, 0, 68, 97
3, 182795, Note_off_c, 0, 69, 64
3, 182822, Note_on_c, 0, 69, 97
3, 182825, Note_off_c, 0, 68, 64
3, 182852, Note_on_c, 0, 68, 97
3, 182855, Note_off_c, 0, 69, 64
3, 182882, Note_on_c, 0, 69, 97
3, 182885, Note_off_c, 0, 68, 64
3, 182912, Note_on_c, 0, 68, 97
3, 182915, Note_off_c, 0, 69, 64
3, 182942, Note_on_c, 0, 69, 97
3, 182945, Note_off_c, 0, 68, 64
3, 182972, Note_on_c, 0, 68, 97
3, 182975, Note_off_c, 0, 69, 64
3, 183002, Note_on_c, 0, 69, 97
3, 183005, Note_off_c, 0, 68, 64
3, 183032, Note_on_c, 0, 68, 97
3, 183035, Note_off_c, 0, 69, 64
3, 183062, Note_on_c, 0, 69, 97
3, 183065, Note_off_c, 0, 68, 64
3, 183092, Note_on_c, 0, 68, 97
3, 183095, Note_off_c, 0, 69, 64
3, 183362, Note_on_c, 0, 69, 97
3, 183365, Note_off_c, 0, 68, 64
3, 183482, Note_on_c, 0, 70, 97
3, 183485, Note_off_c, 0, 69, 64
3, 183542, Note_on_c, 0, 69, 97
3, 183545, Note_off_c, 0, 70, 64
3, 183602, Note_on_c, 0, 67, 97
3, 183605, Note_off_c, 0, 69, 64
3, 183662, Note_on_c, 0, 65, 97
3, 183665, Note_off_c, 0, 67, 64
3, 183722, Note_on_c, 0, 64, 97
3, 183725, Note_off_c, 0, 65, 64
3, 183842, Note_on_c, 0, 65, 97
3, 183845, Note_off_c, 0, 64, 64
3, 184322, Note_on_c, 0, 67, 97
3, 184325, Note_off_c, 0, 65, 64
3, 184562, Note_on_c, 0, 61, 97
3, 184565, Note_off_c, 0, 67, 64
3, 184592, Note_on_c, 0, 62, 97
3, 184595, Note_off_c, 0, 61, 64
3, 184622, Note_on_c, 0, 61, 97
3, 184625, Note_off_c, 0, 62, 64
3, 185042, Note_on_c, 0, 62, 97
3, 185045, Note_off_c, 0, 61, 64
3, 185282, Note_on_c, 0, 64, 97
3, 185285, Note_off_c, 0, 62, 64
3, 185362, Note_on_c, 0, 62, 97
3, 185365, Note_off_c, 0, 64, 64
3, 185442, Note_on_c, 0, 64, 97
3, 185445, Note_off_c, 0, 62, 64
3, 185522, Note_on_c, 0, 57, 97
3, 185525, Note_off_c, 0, 64, 64
3, 185762, Note_on_c, 0, 61, 97
3, 185765, Note_off_c, 0, 57, 64
3, 186002, Note_on_c, 0, 61, 97
3, 186005, Note_off_c, 0, 61, 64
3, 186242, Note_on_c, 0, 62, 97
3, 186245, Note_off_c, 0, 61, 64
3, 186272, Note_on_c, 0, 61, 97
3, 186275, Note_off_c, 0, 62, 64
3, 186302, Note_on_c, 0, 62, 97
3, 186305, Note_off_c, 0, 61, 64
3, 186485, Note_off_c, 0, 62, 64
3, 187442, Note_on_c, 0, 64, 97
3, 187502, Note_on_c, 0, 62, 97
3, 187505, Note_off_c, 0, 64, 64
3, 187562, Note_on_c, 0, 61, 97
3, 187565, Note_off_c, 0, 62, 64
3, 187622, Note_on_c, 0, 64, 97
3, 187625, Note_off_c, 0, 61, 64
3, 187682, Note_on_c, 0, 62, 97
3, 187685, Note_off_c, 0, 64, 64
3, 187742, Note_on_c, 0, 61, 97
3, 187745, Note_off_c, 0, 62, 64
3, 187802, Note_on_c, 0, 59, 97
3, 187805, Note_off_c, 0, 61, 64
3, 187862, Note_on_c, 0, 62, 97
3, 187865, Note_off_c, 0, 59, 64
3, 187922, Note_on_c, 0, 61, 97
3, 187925, Note_off_c, 0, 62, 64
3, 188042, Note_on_c, 0, 64, 97
3, 188045, Note_off_c, 0, 61, 64
3, 188102, Note_on_c, 0, 69, 97
3, 188105, Note_off_c, 0, 64, 64
3, 188162, Note_on_c, 0, 74, 97
3, 188165, Note_off_c, 0, 69, 64
3, 188462, Note_on_c, 0, 73, 97
3, 188465, Note_off_c, 0, 74, 64
3, 188522, Note_on_c, 0, 71, 97
3, 188525, Note_off_c, 0, 73, 64
3, 188582, Note_on_c, 0, 69, 97
3, 188585, Note_off_c, 0, 71, 64
3, 188642, Note_on_c, 0, 76, 97
3, 188645, Note_off_c, 0, 69, 64
3, 188762, Note_on_c, 0, 67, 97
3, 188765, Note_off_c, 0, 76, 64
3, 188882, Note_on_c, 0, 67, 97
3, 188885, Note_off_c, 0, 67, 64
3, 188912, Note_on_c, 0, 69, 97
3, 188915, Note_off_c, 0, 67, 64
3, 188942, Note_on_c, 0, 67, 97
3, 188945, Note_off_c, 0, 69, 64
3, 189122, Note_on_c, 0, 65, 97
3, 189125, Note_off_c, 0, 67, 64
3, 189362, Note_on_c, 0, 65, 97
3, 189365, Note_off_c, 0, 65, 64
3, 189392, Note_on_c, 0, 67, 97
3, 189395, Note_off_c, 0, 65, 64
3, 189422, Note_on_c, 0, 68, 97
3, 189425, Note_off_c, 0, 67, 64
3, 189662, Note_on_c, 0, 65, 97
3, 189665, Note_off_c, 0, 68, 64
3, 189722, Note_on_c, 0, 67, 97
3, 189725, Note_off_c, 0, 65, 64
3, 189782, Note_on_c, 0, 68, 97
3, 189785, Note_off_c, 0, 67, 64
3, 189842, Note_on_c, 0, 67, 97
3, 189845, Note_off_c, 0, 68, 64
3, 189902, Note_on_c, 0, 63, 97
3, 189905, Note_off_c, 0, 67, 64
3, 189962, Note_on_c, 0, 65, 97
3, 189965, Note_off_c, 0, 63, 64
3, 190022, Note_on_c, 0, 67, 97
3, 190025, Note_off_c, 0, 65, 64
3, 190082, Note_on_c, 0, 65, 97
3, 190085, Note_off_c, 0, 67, 64
3, 190142, Note_on_c, 0, 62, 97
3, 190145, Note_off_c, 0, 65, 64
3, 190202, Note_on_c, 0, 63, 97
3, 190205, Note_off_c, 0, 62, 64
3, 190262, Note_on_c, 0, 65, 97
3, 190265, Note_off_c, 0, 63, 64
3, 190322, Note_on_c, 0, 63, 97
3, 190325, Note_off_c, 0, 65, 64
3, 190562, Note_on_c, 0, 65, 97
3, 190565, Note_off_c, 0, 63, 64
3, 190592, Note_on_c, 0, 67, 97
3, 190595, Note_off_c, 0, 65, 64
3, 190622, Note_on_c, 0, 65, 97
3, 190625, Note_off_c, 0, 67, 64
3, 190802, Note_on_c, 0, 67, 97
3, 190805, Note_off_c, 0, 65, 64
3, 191102, Note_on_c, 0, 63, 97
3, 191105, Note_off_c, 0, 67, 64
3, 191162, Note_on_c, 0, 65, 97
3, 191165, Note_off_c, 0, 63, 64
3, 191222, Note_on_c, 0, 67, 97
3, 191225, Note_off_c, 0, 65, 64
3, 191282, Note_on_c, 0, 65, 97
3, 191285, Note_off_c, 0, 67, 64
3, 191342, Note_on_c, 0, 62, 97
3, 191345, Note_off_c, 0, 65, 64
3, 191402, Note_on_c, 0, 63, 97
3, 191405, Note_off_c, 0, 62, 64
3, 191462, Note_on_c, 0, 65, 97
3, 191465, Note_off_c, 0, 63, 64
3, 191522, Note_on_c, 0, 63, 97
3, 191525, Note_off_c, 0, 65, 64
3, 191582, Note_on_c, 0, 60, 97
3, 191585, Note_off_c, 0, 63, 64
3, 191642, Note_on_c, 0, 62, 97
3, 191645, Note_off_c, 0, 60, 64
3, 191702, Note_on_c, 0, 63, 97
3, 191705, Note_off_c, 0, 62, 64
3, 191762, Note_on_c, 0, 62, 97
3, 191765, Note_off_c, 0, 63, 64
3, 192602, Note_on_c, 0, 60, 97
3, 192605, Note_off_c, 0, 62, 64
3, 192662, Note_on_c, 0, 62, 97
3, 192665, Note_off_c, 0, 60, 64
3, 192722, Note_on_c, 0, 64, 97
3, 192725, Note_off_c, 0, 62, 64
3, 192842, Note_on_c, 0, 64, 97
3, 192845, Note_off_c, 0, 64, 64
3, 192902, Note_on_c, 0, 65, 97
3, 192905, Note_off_c, 0, 64, 64
3, 192962, Note_on_c, 0, 67, 97
3, 192965, Note_off_c, 0, 65, 64
3, 193082, Note_on_c, 0, 67, 97
3, 193085, Note_off_c, 0, 67, 64
3, 193142, Note_on_c, 0, 69, 97
3, 193145, Note_off_c, 0, 67, 64
3, 193202, Note_on_c, 0, 70, 97
3, 193205, Note_off_c, 0, 69, 64
3, 193322, Note_on_c, 0, 69, 97
3, 193325, Note_off_c, 0, 70, 64
3, 193382, Note_on_c, 0, 70, 97
3, 193385, Note_off_c, 0, 69, 64
3, 193442, Note_on_c, 0, 72, 97
3, 193445, Note_off_c, 0, 70, 64
3, 193562, Note_on_c, 0, 69, 97
3, 193565, Note_off_c, 0, 72, 64
3, 193682, Note_on_c, 0, 65, 97
3, 193685, Note_off_c, 0, 69, 64
3, 194162, Note_on_c, 0, 70, 97
3, 194165, Note_off_c, 0, 65, 64
3, 194402, Note_on_c, 0, 74, 97
3, 194405, Note_off_c, 0, 70, 64
3, 194702, Note_on_c, 0, 72, 97
3, 194705, Note_off_c, 0, 74, 64
3, 194762, Note_on_c, 0, 71, 97
3, 194765, Note_off_c, 0, 72, 64
3, 194822, Note_on_c, 0, 72, 97
3, 194825, Note_off_c, 0, 71, 64
3, 194882, Note_on_c, 0, 79, 97
3, 194885, Note_off_c, 0, 72, 64
3, 195482, Note_on_c, 0, 77, 97
3, 195485, Note_off_c, 0, 79, 64
3, 195542, Note_on_c, 0, 76, 97
3, 195545, Note_off_c, 0, 77, 64
3, 195602, Note_on_c, 0, 77, 97
3, 195605, Note_off_c, 0, 76, 64
3, 195722, Note_on_c, 0, 72, 97
3, 195725, Note_off_c, 0, 77, 64
3, 195962, Note_on_c, 0, 74, 97
3, 195965, Note_off_c, 0, 72, 64
3, 196082, Note_on_c, 0, 67, 97
3, 196085, Note_off_c, 0, 74, 64
3, 196562, Note_on_c, 0, 69, 97
3, 196565, Note_off_c, 0, 67, 64
3, 196802, Note_on_c, 0, 70, 97
3, 196805, Note_off_c, 0, 69, 64
3, 196882, Note_on_c, 0, 69, 97
3, 196885, Note_off_c, 0, 70, 64
3, 196962, Note_on_c, 0, 70, 97
3, 196965, Note_off_c, 0, 69, 64
3, 197042, Note_on_c, 0, 79, 97
3, 197045, Note_off_c, 0, 70, 64
3, 197282, Note_on_c, 0, 70, 97
3, 197285, Note_off_c, 0, 79, 64
3, 197552, Note_on_c, 0, 72, 97
3, 197555, Note_off_c, 0, 70, 64
3, 197582, Note_on_c, 0, 70, 97
3, 197585, Note_off_c, 0, 72, 64
3, 197762, Note_on_c, 0, 69, 97
3, 197765, Note_off_c, 0, 70, 64
3, 198002, Note_on_c, 0, 72, 97
3, 198005, Note_off_c, 0, 69, 64
3, 198482, Note_on_c, 0, 71, 97
3, 198485, Note_off_c, 0, 72, 64
3, 198512, Note_on_c, 0, 72, 97
3, 198515, Note_off_c, 0, 71, 64
3, 198542, Note_on_c, 0, 71, 97
3, 198545, Note_off_c, 0, 72, 64
3, 199202, Note_on_c, 0, 72, 97
3, 199205, Note_off_c, 0, 71, 64
3, 199322, Note_on_c, 0, 74, 97
3, 199325, Note_off_c, 0, 72, 64
3, 199382, Note_on_c, 0, 75, 97
3, 199385, Note_off_c, 0, 74, 64
3, 199442, Note_on_c, 0, 74, 97
3, 199445, Note_off_c, 0, 75, 64
3, 199502, Note_on_c, 0, 72, 97
3, 199505, Note_off_c, 0, 74, 64
3, 199562, Note_on_c, 0, 70, 97
3, 199565, Note_off_c, 0, 72, 64
3, 199622, Note_on_c, 0, 69, 97
3, 199625, Note_off_c, 0, 70, 64
3, 199682, Note_on_c, 0, 67, 97
3, 199685, Note_off_c, 0, 69, 64
3, 199742, Note_on_c, 0, 66, 97
3, 199745, Note_off_c, 0, 67, 64
3, 199802, Note_on_c, 0, 67, 97
3, 199805, Note_off_c, 0, 66, 64
3, 200042, Note_on_c, 0, 73, 97
3, 200045, Note_off_c, 0, 67, 64
3, 200102, Note_on_c, 0, 74, 97
3, 200105, Note_off_c, 0, 73, 64
3, 200162, Note_on_c, 0, 76, 97
3, 200165, Note_off_c, 0, 74, 64
3, 200282, Note_on_c, 0, 67, 97
3, 200285, Note_off_c, 0, 76, 64
3, 200402, Note_on_c, 0, 67, 97
3, 200405, Note_off_c, 0, 67, 64
3, 200432, Note_on_c, 0, 69, 97
3, 200435, Note_off_c, 0, 67, 64
3, 200462, Note_on_c, 0, 67, 97
3, 200465, Note_off_c, 0, 69, 64
3, 200642, Note_on_c, 0, 66, 97
3, 200645, Note_off_c, 0, 67, 64
3, 200762, Note_on_c, 0, 69, 97
3, 200765, Note_off_c, 0, 66, 64
3, 200882, Note_on_c, 0, 72, 97
3, 200885, Note_off_c, 0, 69, 64
3, 201362, Note_on_c, 0, 71, 97
3, 201365, Note_off_c, 0, 72, 64
3, 201602, Note_on_c, 0, 70, 97
3, 201605, Note_off_c, 0, 71, 64
3, 201962, Note_on_c, 0, 69, 97
3, 201965, Note_off_c, 0, 70, 64
3, 202022, Note_on_c, 0, 67, 97
3, 202025, Note_off_c, 0, 69, 64
3, 202082, Note_on_c, 0, 69, 97
3, 202085, Note_off_c, 0, 67, 64
3, 202202, Note_on_c, 0, 71, 97
3, 202205, Note_off_c, 0, 69, 64
3, 202262, Note_on_c, 0, 72, 97
3, 202265, Note_off_c, 0, 71, 64
3, 202322, Note_on_c, 0, 71, 97
3, 202325, Note_off_c, 0, 72, 64
3, 202442, Note_on_c, 0, 72, 97
3, 202445, Note_off_c, 0, 71, 64
3, 202502, Note_on_c, 0, 74, 97
3, 202505, Note_off_c, 0, 72, 64
3, 202562, Note_on_c, 0, 72, 97
3, 202565, Note_off_c, 0, 74, 64
3, 203522, Note_on_c, 0, 71, 97
3, 203525, Note_off_c, 0, 72, 64
3, 203762, Note_on_c, 0, 70, 97
3, 203765, Note_off_c, 0, 71, 64
3, 204242, Note_on_c, 0, 69, 97
3, 204245, Note_off_c, 0, 70, 64
3, 204482, Note_on_c, 0, 68, 97
3, 204485, Note_off_c, 0, 69, 64
3, 204842, Note_on_c, 0, 67, 97
3, 204845, Note_off_c, 0, 68, 64
3, 204902, Note_on_c, 0, 65, 97
3, 204905, Note_off_c, 0, 67, 64
3, 204962, Note_on_c, 0, 67, 97
3, 204965, Note_off_c, 0, 65, 64
3, 205082, Note_on_c, 0, 69, 97
3, 205085, Note_off_c, 0, 67, 64
3, 205142, Note_on_c, 0, 70, 97
3, 205145, Note_off_c, 0, 69, 64
3, 205202, Note_on_c, 0, 69, 97
3, 205205, Note_off_c, 0, 70, 64
3, 205322, Note_on_c, 0, 70, 97
3, 205325, Note_off_c, 0, 69, 64
3, 205382, Note_on_c, 0, 72, 97
3, 205385, Note_off_c, 0, 70, 64
3, 205442, Note_on_c, 0, 70, 97
3, 205445, Note_off_c, 0, 72, 64
3, 206402, Note_on_c, 0, 69, 97
3, 206405, Note_off_c, 0, 70, 64
3, 206645, Note_off_c, 0, 69, 64
3, 206882, Note_on_c, 0, 60, 97
3, 207002, Note_on_c, 0, 65, 97
3, 207005, Note_off_c, 0, 60, 64
3, 207062, Note_on_c, 0, 67, 97
3, 207065, Note_off_c, 0, 65, 64
3, 207122, Note_on_c, 0, 69, 97
3, 207125, Note_off_c, 0, 67, 64
3, 207242, Note_on_c, 0, 69, 97
3, 207245, Note_off_c, 0, 69, 64
3, 207302, Note_on_c, 0, 70, 97
3, 207305, Note_off_c, 0, 69, 64
3, 207362, Note_on_c, 0, 72, 97
3, 207365, Note_off_c, 0, 70, 64
3, 207482, Note_on_c, 0, 72, 97
3, 207485, Note_off_c, 0, 72, 64
3, 207542, Note_on_c, 0, 70, 97
3, 207545, Note_off_c, 0, 72, 64
3, 207602, Note_on_c, 0, 69, 97
3, 207605, Note_off_c, 0, 70, 64
3, 207722, Note_on_c, 0, 69, 97
3, 207725, Note_off_c, 0, 69, 64
3, 207782, Note_on_c, 0, 70, 97
3, 207785, Note_off_c, 0, 69, 64
3, 207842, Note_on_c, 0, 72, 97
3, 207845, Note_off_c, 0, 70, 64
3, 207962, Note_on_c, 0, 72, 97
3, 207965, Note_off_c, 0, 72, 64
3, 208022, Note_on_c, 0, 74, 97
3, 208025, Note_off_c, 0, 72, 64
3, 208082, Note_on_c, 0, 75, 97
3, 208085, Note_off_c, 0, 74, 64
3, 208202, Note_on_c, 0, 74, 97
3, 208205, Note_off_c, 0, 75, 64
3, 208262, Note_on_c, 0, 72, 97
3, 208265, Note_off_c, 0, 74, 64
3, 208322, Note_on_c, 0, 70, 97
3, 208325, Note_off_c, 0, 72, 64
3, 209282, Note_on_c, 0, 69, 97
3, 209285, Note_off_c, 0, 70, 64
3, 209525, Note_off_c, 0, 69, 64
3, 209762, Note_on_c, 0, 69, 97
3, 210122, Note_on_c, 0, 70, 97
3, 210125, Note_off_c, 0, 69, 64
3, 210182, Note_on_c, 0, 69, 97
3, 210185, Note_off_c, 0, 70, 64
3, 210242, Note_on_c, 0, 67, 97
3, 210245, Note_off_c, 0, 69, 64
3, 210302, Note_on_c, 0, 65, 97
3, 210305, Note_off_c, 0, 67, 64
3, 210362, Note_on_c, 0, 64, 97
3, 210365, Note_off_c, 0, 65, 64
3, 210422, Note_on_c, 0, 62, 97
3, 210425, Note_off_c, 0, 64, 64
3, 210482, Note_on_c, 0, 60, 97
3, 210485, Note_off_c, 0, 62, 64
3, 210722, Note_on_c, 0, 62, 97
3, 210725, Note_off_c, 0, 60, 64
3, 210962, Note_on_c, 0, 64, 97
3, 210965, Note_off_c, 0, 62, 64
3, 211202, Note_on_c, 0, 65, 97
3, 211205, Note_off_c, 0, 64, 64
3, 211262, Note_on_c, 0, 64, 97
3, 211265, Note_off_c, 0, 65, 64
3, 211322, Note_on_c, 0, 62, 97
3, 211325, Note_off_c, 0, 64, 64
3, 211562, Note_on_c, 0, 67, 97
3, 211565, Note_off_c, 0, 62, 64
3, 211802, Note_on_c, 0, 58, 97
3, 211805, Note_off_c, 0, 67, 64
3, 211922, Note_on_c, 0, 58, 97
3, 211925, Note_off_c, 0, 58, 64
3, 212162, Note_on_c, 0, 57, 97
3, 212165, Note_off_c, 0, 58, 64
3, 212192, Note_on_c, 0, 58, 97
3, 212195, Note_off_c, 0, 57, 64
3, 212222, Note_on_c, 0, 57, 97
3, 212225, Note_off_c, 0, 58, 64
3, 212405, Note_off_c, 0, 57, 64
3, 212642, Note_on_c, 0, 67, 97
3, 213122, Note_on_c, 0, 69, 97
3, 213125, Note_off_c, 0, 67, 64
3, 213362, Note_on_c, 0, 62, 97
3, 213365, Note_off_c, 0, 69, 64
3, 213842, Note_on_c, 0, 64, 97
3, 213845, Note_off_c, 0, 62, 64
3, 214082, Note_on_c, 0, 65, 97
3, 214085, Note_off_c, 0, 64, 64
3, 214162, Note_on_c, 0, 64, 97
3, 214165, Note_off_c, 0, 65, 64
3, 214242, Note_on_c, 0, 65, 97
3, 214245, Note_off_c, 0, 64, 64
3, 214322, Note_on_c, 0, 74, 97
3, 214325, Note_off_c, 0, 65, 64
3, 214562, Note_on_c, 0, 65, 97
3, 214565, Note_off_c, 0, 74, 64
3, 214832, Note_on_c, 0, 67, 97
3, 214835, Note_off_c, 0, 65, 64
3, 214862, Note_on_c, 0, 65, 97
3, 214865, Note_off_c, 0, 67, 64
3, 215042, Note_on_c, 0, 64, 97
3, 215045, Note_off_c, 0, 65, 64
3, 215285, Note_off_c, 0, 64, 64
3, 215522, Note_on_c, 0, 63, 97
3, 215582, Note_on_c, 0, 62, 97
3, 215585, Note_off_c, 0, 63, 64
3, 215642, Note_on_c, 0, 63, 97
3, 215645, Note_off_c, 0, 62, 64
3, 215882, Note_on_c, 0, 69, 97
3, 215885, Note_off_c, 0, 63, 64
3, 215942, Note_on_c, 0, 70, 97
3, 215945, Note_off_c, 0, 69, 64
3, 216002, Note_on_c, 0, 72, 97
3, 216005, Note_off_c, 0, 70, 64
3, 216122, Note_on_c, 0, 63, 97
3, 216125, Note_off_c, 0, 72, 64
3, 216242, Note_on_c, 0, 63, 97
3, 216245, Note_off_c, 0, 63, 64
3, 216272, Note_on_c, 0, 65, 97
3, 216275, Note_off_c, 0, 63, 64
3, 216302, Note_on_c, 0, 63, 97
3, 216305, Note_off_c, 0, 65, 64
3, 216482, Note_on_c, 0, 62, 97
3, 216485, Note_off_c, 0, 63, 64
3, 216725, Note_off_c, 0, 62, 64
3, 216962, Note_on_c, 0, 69, 97
3, 216992, Note_on_c, 0, 68, 97
3, 216995, Note_off_c, 0, 69, 64
3, 217022, Note_on_c, 0, 67, 97
3, 217025, Note_off_c, 0, 68, 64
3, 217052, Note_on_c, 0, 68, 97
3, 217055, Note_off_c, 0, 67, 64
3, 217082, Note_on_c, 0, 69, 97
3, 217085, Note_off_c, 0, 68, 64
3, 217112, Note_on_c, 0, 68, 97
3, 217115, Note_off_c, 0, 69, 64
3, 217142, Note_on_c, 0, 69, 97
3, 217145, Note_off_c, 0, 68, 64
3, 217172, Note_on_c, 0, 68, 97
3, 217175, Note_off_c, 0, 69, 64
3, 217202, Note_on_c, 0, 69, 97
3, 217205, Note_off_c, 0, 68, 64
3, 217232, Note_on_c, 0, 68, 97
3, 217235, Note_off_c, 0, 69, 64
3, 217262, Note_on_c, 0, 69, 97
3, 217265, Note_off_c, 0, 68, 64
3, 217292, Note_on_c, 0, 68, 97
3, 217295, Note_off_c, 0, 69, 64
3, 217322, Note_on_c, 0, 69, 97
3, 217325, Note_off_c, 0, 68, 64
3, 217352, Note_on_c, 0, 68, 97
3, 217355, Note_off_c, 0, 69, 64
3, 217382, Note_on_c, 0, 69, 97
3, 217385, Note_off_c, 0, 68, 64
3, 217412, Note_on_c, 0, 68, 97
3, 217415, Note_off_c, 0, 69, 64
3, 217442, Note_on_c, 0, 69, 97
3, 217445, Note_off_c, 0, 68, 64
3, 217472, Note_on_c, 0, 68, 97
3, 217475, Note_off_c, 0, 69, 64
3, 217502, Note_on_c, 0, 69, 97
3, 217505, Note_off_c, 0, 68, 64
3, 217532, Note_on_c, 0, 68, 97
3, 217535, Note_off_c, 0, 69, 64
3, 217562, Note_on_c, 0, 69, 97
3, 217565, Note_off_c, 0, 68, 64
3, 217592, Note_on_c, 0, 68, 97
3, 217595, Note_off_c, 0, 69, 64
3, 217622, Note_on_c, 0, 69, 97
3, 217625, Note_off_c, 0, 68, 64
3, 217652, Note_on_c, 0, 68, 97
3, 217655, Note_off_c, 0, 69, 64
3, 217922, Note_on_c, 0, 69, 97
3, 217925, Note_off_c, 0, 68, 64
3, 218042, Note_on_c, 0, 70, 97
3, 218045, Note_off_c, 0, 69, 64
3, 218102, Note_on_c, 0, 69, 97
3, 218105, Note_off_c, 0, 70, 64
3, 218162, Note_on_c, 0, 67, 97
3, 218165, Note_off_c, 0, 69, 64
3, 218222, Note_on_c, 0, 65, 97
3, 218225, Note_off_c, 0, 67, 64
3, 218282, Note_on_c, 0, 64, 97
3, 218285, Note_off_c, 0, 65, 64
3, 218402, Note_on_c, 0, 65, 97
3, 218405, Note_off_c, 0, 64, 64
3, 218882, Note_on_c, 0, 67, 97
3, 218885, Note_off_c, 0, 65, 64
3, 219122, Note_on_c, 0, 61, 97
3, 219125, Note_off_c, 0, 67, 64
3, 219152, Note_on_c, 0, 62, 97
3, 219155, Note_off_c, 0, 61, 64
3, 219182, Note_on_c, 0, 61, 97
3, 219185, Note_off_c, 0, 62, 64
3, 219602, Note_on_c, 0, 62, 97
3, 219605, Note_off_c, 0, 61, 64
3, 219842, Note_on_c, 0, 64, 97
3, 219845, Note_off_c, 0, 62, 64
3, 219922, Note_on_c, 0, 62, 97
3, 219925, Note_off_c, 0, 64, 64
3, 220002, Note_on_c, 0, 64, 97
3, 220005, Note_off_c, 0, 62, 64
3, 220082, Note_on_c, 0, 57, 97
3, 220085, Note_off_c, 0, 64, 64
3, 220322, Note_on_c, 0, 61, 97
3, 220325, Note_off_c, 0, 57, 64
3, 220562, Note_on_c, 0, 61, 97
3, 220565, Note_off_c, 0, 61, 64
3, 220802, Note_on_c, 0, 62, 97
3, 220805, Note_off_c, 0, 61, 64
3, 220832, Note_on_c, 0, 61, 97
3, 220835, Note_off_c, 0, 62, 64
3, 220862, Note_on_c, 0, 62, 97
3, 220865, Note_off_c, 0, 61, 64
3, 221045, Note_off_c, 0, 62, 64
3, 222002, Note_on_c, 0, 64, 97
3, 222062, Note_on_c, 0, 62, 97
3, 222065, Note_off_c, 0, 64, 64
3, 222122, Note_on_c, 0, 61, 97
3, 222125, Note_off_c, 0, 62, 64
3, 222182, Note_on_c, 0, 64, 97
3, 222185, Note_off_c, 0, 61, 64
3, 222242, Note_on_c, 0, 62, 97
3, 222245, Note_off_c, 0, 64, 64
3, 222302, Note_on_c, 0, 61, 97
3, 222305, Note_off_c, 0, 62, 64
3, 222362, Note_on_c, 0, 59, 97
3, 222365, Note_off_c, 0, 61, 64
3, 222422, Note_on_c, 0, 62, 97
3, 222425, Note_off_c, 0, 59, 64
3, 222482, Note_on_c, 0, 61, 97
3, 222485, Note_off_c, 0, 62, 64
3, 222602, Note_on_c, 0, 64, 97
3, 222605, Note_off_c, 0, 61, 64
3, 222662, Note_on_c, 0, 69, 97
3, 222665, Note_off_c, 0, 64, 64
3, 222722, Note_on_c, 0, 74, 97
3, 222725, Note_off_c, 0, 69, 64
3, 223022, Note_on_c, 0, 73, 97
3, 223025, Note_off_c, 0, 74, 64
3, 223082, Note_on_c, 0, 71, 97
3, 223085, Note_off_c, 0, 73, 64
3, 223142, Note_on_c, 0, 69, 97
3, 223145, Note_off_c, 0, 71, 64
3, 223202, Note_on_c, 0, 76, 97
3, 223205, Note_off_c, 0, 69, 64
3, 223322, Note_on_c, 0, 67, 97
3, 223325, Note_off_c, 0, 76, 64
3, 223442, Note_on_c, 0, 67, 97
3, 223445, Note_off_c, 0, 67, 64
3, 223472, Note_on_c, 0, 69, 97
3, 223475, Note_off_c, 0, 67, 64
3, 223502, Note_on_c, 0, 67, 97
3, 223505, Note_off_c, 0, 69, 64
3, 223682, Note_on_c, 0, 65, 97
3, 223685, Note_off_c, 0, 67, 64
3, 223922, Note_on_c, 0, 65, 97
3, 223925, Note_off_c, 0, 65, 64
3, 223952, Note_on_c, 0, 67, 97
3, 223955, Note_off_c, 0, 65, 64
3, 223982, Note_on_c, 0, 68, 97
3, 223985, Note_off_c, 0, 67, 64
3, 224222, Note_on_c, 0, 65, 97
3, 224225, Note_off_c, 0, 68, 64
3, 224282, Note_on_c, 0, 67, 97
3, 224285, Note_off_c, 0, 65, 64
3, 224342, Note_on_c, 0, 68, 97
3, 224345, Note_off_c, 0, 67, 64
3, 224402, Note_on_c, 0, 67, 97
3, 224405, Note_off_c, 0, 68, 64
3, 224462, Note_on_c, 0, 63, 97
3, 224465, Note_off_c, 0, 67, 64
3, 224522, Note_on_c, 0, 65, 97
3, 224525, Note_off_c, 0, 63, 64
3, 224582, Note_on_c, 0, 67, 97
3, 224585, Note_off_c, 0, 65, 64
3, 224642, Note_on_c, 0, 65, 97
3, 224645, Note_off_c, 0, 67, 64
3, 224702, Note_on_c, 0, 62, 97
3, 224705, Note_off_c, 0, 65, 64
3, 224762, Note_on_c, 0, 63, 97
3, 224765, Note_off_c, 0, 62, 64
3, 224822, Note_on_c, 0, 65, 97
3, 224825, Note_off_c, 0, 63, 64
3, 224882, Note_on_c, 0, 63, 97
3, 224885, Note_off_c, 0, 65, 64
3, 225122, Note_on_c, 0, 65, 97
3, 225125, Note_off_c, 0, 63, 64
3, 225152, Note_on_c, 0, 67, 97
3, 225155, Note_off_c, 0, 65, 64
3, 225182, Note_on_c, 0, 65, 97
3, 225185, Note_off_c, 0, 67, 64
3, 225362, Note_on_c, 0, 67, 97
3, 225365, Note_off_c, 0, 65, 64
3, 225662, Note_on_c, 0, 63, 97
3, 225665, Note_off_c, 0, 67, 64
3, 225722, Note_on_c, 0, 65, 97
3, 225725, Note_off_c, 0, 63, 64
3, 225782, Note_on_c, 0, 67, 97
3, 225785, Note_off_c, 0, 65, 64
3, 225842, Note_on_c, 0, 65, 97
3, 225845, Note_off_c, 0, 67, 64
3, 225902, Note_on_c, 0, 62, 97
3, 225905, Note_off_c, 0, 65, 64
3, 225962, Note_on_c, 0, 63, 97
3, 225965, Note_off_c, 0, 62, 64
3, 226022, Note_on_c, 0, 65, 97
3, 226025, Note_off_c, 0, 63, 64
3, 226082, Note_on_c, 0, 63, 97
3, 226085, Note_off_c, 0, 65, 64
3, 226142, Note_on_c, 0, 60, 97
3, 226145, Note_off_c, 0, 63, 64
3, 226202, Note_on_c, 0, 62, 97
3, 226205, Note_off_c, 0, 60, 64
3, 226262, Note_on_c, 0, 63, 97
3, 226265, Note_off_c, 0, 62, 64
3, 226322, Note_on_c, 0, 62, 97
3, 226325, Note_off_c, 0, 63, 64
3, 227162, Note_on_c, 0, 60, 97
3, 227165, Note_off_c, 0, 62, 64
3, 227222, Note_on_c, 0, 62, 97
3, 227225, Note_off_c, 0, 60, 64
3, 227282, Note_on_c, 0, 64, 97
3, 227285, Note_off_c, 0, 62, 64
3, 227402, Note_on_c, 0, 64, 97
3, 227405, Note_off_c, 0, 64, 64
3, 227462, Note_on_c, 0, 65, 97
3, 227465, Note_off_c, 0, 64, 64
3, 227522, Note_on_c, 0, 67, 97
3, 227525, Note_off_c, 0, 65, 64
3, 227642, Note_on_c, 0, 67, 97
3, 227645, Note_off_c, 0, 67, 64
3, 227702, Note_on_c, 0, 69, 97
3, 227705, Note_off_c, 0, 67, 64
3, 227762, Note_on_c, 0, 70, 97
3, 227765, Note_off_c, 0, 69, 64
3, 227882, Note_on_c, 0, 69, 97
3, 227885, Note_off_c, 0, 70, 64
3, 227942, Note_on_c, 0, 70, 97
3, 227945, Note_off_c, 0, 69, 64
3, 228002, Note_on_c, 0, 72, 97
3, 228005, Note_off_c, 0, 70, 64
3, 228122, Note_on_c, 0, 69, 97
3, 228125, Note_off_c, 0, 72, 64
3, 228242, Note_on_c, 0, 65, 97
3, 228245, Note_off_c, 0, 69, 64
3, 228722, Note_on_c, 0, 70, 97
3, 228725, Note_off_c, 0, 65, 64
3, 228962, Note_on_c, 0, 74, 97
3, 228965, Note_off_c, 0, 70, 64
3, 229262, Note_on_c, 0, 72, 97
3, 229265, Note_off_c, 0, 74, 64
3, 229322, Note_on_c, 0, 71, 97
3, 229325, Note_off_c, 0, 72, 64
3, 229382, Note_on_c, 0, 72, 97
3, 229385, Note_off_c, 0, 71, 64
3, 229442, Note_on_c, 0, 79, 97
3, 229445, Note_off_c, 0, 72, 64
3, 230042, Note_on_c, 0, 77, 97
3, 230045, Note_off_c, 0, 79, 64
3, 230102, Note_on_c, 0, 76, 97
3, 230105, Note_off_c, 0, 77, 64
3, 230162, Note_on_c, 0, 77, 97
3, 230165, Note_off_c, 0, 76, 64
3, 230282, Note_on_c, 0, 72, 97
3, 230285, Note_off_c, 0, 77, 64
3, 230522, Note_on_c, 0, 74, 97
3, 230525, Note_off_c, 0, 72, 64
3, 230642, Note_on_c, 0, 67, 97
3, 230645, Note_off_c, 0, 74, 64
3, 231122, Note_on_c, 0, 69, 97
3, 231125, Note_off_c, 0, 67, 64
3, 231362, Note_on_c, 0, 70, 97
3, 231365, Note_off_c, 0, 69, 64
3, 231442, Note_on_c, 0, 69, 97
3, 231445, Note_off_c, 0, 70, 64
3, 231522, Note_on_c, 0, 70, 97
3, 231525, Note_off_c, 0, 69, 64
3, 231602, Note_on_c, 0, 79, 97
3, 231605, Note_off_c, 0, 70, 64
3, 231842, Note_on_c, 0, 70, 97
3, 231845, Note_off_c, 0, 79, 64
3, 232112, Note_on_c, 0, 72, 97
3, 232115, Note_off_c, 0, 70, 64
3, 232142, Note_on_c, 0, 70, 97
3, 232145, Note_off_c, 0, 72, 64
3, 232322, Note_on_c, 0, 69, 97
3, 232325, Note_off_c, 0, 70, 64
3, 232562, Note_on_c, 0, 72, 97
3, 232565, Note_off_c, 0, 69, 64
3, 233042, Note_on_c, 0, 71, 97
3, 233045, Note_off_c, 0, 72, 64
3, 233072, Note_on_c, 0, 72, 97
3, 233075, Note_off_c, 0, 71, 64
3, 233102, Note_on_c, 0, 71, 97
3, 233105, Note_off_c, 0, 72, 64
3, 233762, Note_on_c, 0, 72, 97
3, 233765, Note_off_c, 0, 71, 64
3, 233882, Note_on_c, 0, 74, 97
3, 233885, Note_off_c, 0, 72, 64
3, 233942, Note_on_c, 0, 75, 97
3, 233945, Note_off_c, 0, 74, 64
3, 234002, Note_on_c, 0, 74, 97
3, 234005, Note_off_c, 0, 75, 64
3, 234062, Note_on_c, 0, 72, 97
3, 234065, Note_off_c, 0, 74, 64
3, 234122, Note_on_c, 0, 70, 97
3, 234125, Note_off_c, 0, 72, 64
3, 234182, Note_on_c, 0, 69, 97
3, 234185, Note_off_c, 0, 70, 64
3, 234242, Note_on_c, 0, 67, 97
3, 234245, Note_off_c, 0, 69, 64
3, 234302, Note_on_c, 0, 66, 97
3, 234305, Note_off_c, 0, 67, 64
3, 234362, Note_on_c, 0, 67, 97
3, 234365, Note_off_c, 0, 66, 64
3, 234602, Note_on_c, 0, 73, 97
3, 234605, Note_off_c, 0, 67, 64
3, 234662, Note_on_c, 0, 74, 97
3, 234665, Note_off_c, 0, 73, 64
3, 234722, Note_on_c, 0, 76, 97
3, 234725, Note_off_c, 0, 74, 64
3, 234842, Note_on_c, 0, 67, 97
3, 234845, Note_off_c, 0, 76, 64
3, 234962, Note_on_c, 0, 67, 97
3, 234965, Note_off_c, 0, 67, 64
3, 234992, Note_on_c, 0, 69, 97
3, 234995, Note_off_c, 0, 67, 64
3, 235022, Note_on_c, 0, 67, 97
3, 235025, Note_off_c, 0, 69, 64
3, 235202, Note_on_c, 0, 66, 97
3, 235205, Note_off_c, 0, 67, 64
3, 235322, Note_on_c, 0, 69, 97
3, 235325, Note_off_c, 0, 66, 64
3, 235442, Note_on_c, 0, 72, 97
3, 235445, Note_off_c, 0, 69, 64
3, 235922, Note_on_c, 0, 71, 97
3, 235925, Note_off_c, 0, 72, 64
3, 236162, Note_on_c, 0, 70, 97
3, 236165, Note_off_c, 0, 71, 64
3, 236522, Note_on_c, 0, 69, 97
3, 236525, Note_off_c, 0, 70, 64
3, 236582, Note_on_c, 0, 67, 97
3, 236585, Note_off_c, 0, 69, 64
3, 236642, Note_on_c, 0, 69, 97
3, 236645, Note_off_c, 0, 67, 64
3, 236762, Note_on_c, 0, 71, 97
3, 236765, Note_off_c, 0, 69, 64
3, 236822, Note_on_c, 0, 72, 97
3, 236825, Note_off_c, 0, 71, 64
3, 236882, Note_on_c, 0, 71, 97
3, 236885, Note_off_c, 0, 72, 64
3, 237002, Note_on_c, 0, 72, 97
3, 237005, Note_off_c, 0, 71, 64
3, 237062, Note_on_c, 0, 74, 97
3, 237065, Note_off_c, 0, 72, 64
3, 237122, Note_on_c, 0, 72, 97
3, 237125, Note_off_c, 0, 74, 64
3, 238082, Note_on_c, 0, 71, 97
3, 238085, Note_off_c, 0, 72, 64
3, 238322, Note_on_c, 0, 70, 97
3, 238325, Note_off_c, 0, 71, 64
3, 238802, Note_on_c, 0, 69, 97
3, 238805, Note_off_c, 0, 70, 64
3, 239042, Note_on_c, 0, 68, 97
3, 239045, Note_off_c, 0, 69, 64
3, 239402, Note_on_c, 0, 67, 97
3, 239405, Note_off_c, 0, 68, 64
3, 239462, Note_on_c, 0, 65, 97
3, 239465, Note_off_c, 0, 67, 64
3, 239522, Note_on_c, 0, 67, 97
3, 239525, Note_off_c, 0, 65, 64
3, 239642, Note_on_c, 0, 69, 97
3, 239645, Note_off_c, 0, 67, 64
3, 239702, Note_on_c, 0, 70, 97
3, 239705, Note_off_c, 0, 69, 64
3, 239762, Note_on_c, 0, 69, 97
3, 239765, Note_off_c, 0, 70, 64
3, 239882, Note_on_c, 0, 70, 97
3, 239885, Note_off_c, 0, 69, 64
3, 239942, Note_on_c, 0, 72, 97
3, 239945, Note_off_c, 0, 70, 64
3, 240002, Note_on_c, 0, 70, 97
3, 240005, Note_off_c, 0, 72, 64
3, 240962, Note_on_c, 0, 69, 97
3, 240965, Note_off_c, 0, 70, 64
3, 241205, Note_off_c, 0, 69, 64
3, 241442, Note_on_c, 0, 60, 97
3, 241562, Note_on_c, 0, 65, 97
3, 241565, Note_off_c, 0, 60, 64
3, 241622, Note_on_c, 0, 67, 97
3, 241625, Note_off_c, 0, 65, 64
3, 241682, Note_on_c, 0, 69, 97
3, 241685, Note_off_c, 0, 67, 64
3, 241802, Note_on_c, 0, 69, 97
3, 241805, Note_off_c, 0, 69, 64
3, 241862, Note_on_c, 0, 70, 97
3, 241865, Note_off_c, 0, 69, 64
3, 241922, Note_on_c, 0, 72, 97
3, 241925, Note_off_c, 0, 70, 64
3, 242042, Note_on_c, 0, 72, 97
3, 242045, Note_off_c, 0, 72, 64
3, 242102, Note_on_c, 0, 70, 97
3, 242105, Note_off_c, 0, 72, 64
3, 242162, Note_on_c, 0, 69, 97
3, 242165, Note_off_c, 0, 70, 64
3, 242282, Note_on_c, 0, 69, 97
3, 242285, Note_off_c, 0, 69, 64
3, 242342, Note_on_c, 0, 70, 97
3, 242345, Note_off_c, 0, 69, 64
3, 242402, Note_on_c, 0, 72, 97
3, 242405, Note_off_c, 0, 70, 64
3, 242522, Note_on_c, 0, 72, 97
3, 242525, Note_off_c, 0, 72, 64
3, 242582, Note_on_c, 0, 74, 97
3, 242585, Note_off_c, 0, 72, 64
3, 242642, Note_on_c, 0, 75, 97
3, 242645, Note_off_c, 0, 74, 64
3, 242762, Note_on_c, 0, 74, 97
3, 242765, Note_off_c, 0, 75, 64
3, 242822, Note_on_c, 0, 72, 97
3, 242825, Note_off_c, 0, 74, 64
3, 242882, Note_on_c, 0, 70, 97
3, 242885, Note_off_c, 0, 72, 64
3, 243842, Note_on_c, 0, 69, 97
3, 243845, Note_off_c, 0, 70, 64
3, 244085, Note_off_c, 0, 69, 64
3, 244322, Note_on_c, 0, 69, 97
3, 244682, Note_on_c, 0, 70, 97
3, 244685, Note_off_c, 0, 69, 64
3, 244742, Note_on_c, 0, 69, 97
3, 244745, Note_off_c, 0, 70, 64
3, 244802, Note_on_c, 0, 67, 97
3, 244805, Note_off_c, 0, 69, 64
3, 244862, Note_on_c, 0, 65, 97
3, 244865, Note_off_c, 0, 67, 64
3, 244922, Note_on_c, 0, 64, 97
3, 244925, Note_off_c, 0, 65, 64
3, 244982, Note_on_c, 0, 62, 97
3, 244985, Note_off_c, 0, 64, 64
3, 245042, Note_on_c, 0, 60, 97
3, 245045, Note_off_c, 0, 62, 64
3, 245282, Note_on_c, 0, 62, 97
3, 245285, Note_off_c, 0, 60, 64
3, 245522, Note_on_c, 0, 64, 97
3, 245525, Note_off_c, 0, 62, 64
3, 245762, Note_on_c, 0, 65, 97
3, 245765, Note_off_c, 0, 64, 64
3, 245822, Note_on_c, 0, 64, 97
3, 245825, Note_off_c, 0, 65, 64
3, 245882, Note_on_c, 0, 62, 97
3, 245885, Note_off_c, 0, 64, 64
3, 246122, Note_on_c, 0, 67, 97
3, 246125, Note_off_c, 0, 62, 64
3, 246362, Note_on_c, 0, 58, 97
3, 246365, Note_off_c, 0, 67, 64
3, 246482, Note_on_c, 0, 58, 97
3, 246485, Note_off_c, 0, 58, 64
3, 246722, Note_on_c, 0, 57, 97
3, 246725, Note_off_c, 0, 58, 64
3, 246752, Note_on_c, 0, 58, 97
3, 246755, Note_off_c, 0, 57, 64
3, 246782, Note_on_c, 0, 57, 97
3, 246785, Note_off_c, 0, 58, 64
3, 246965, Note_off_c, 0, 57, 64
3, 254402, Note_on_c, 0, 64, 97
3, 254882, Note_on_c, 0, 69, 97
3, 254885, Note_off_c, 0, 64, 64
3, 254942, Note_on_c, 0, 71, 97
3, 254945, Note_off_c, 0, 69, 64
3, 255002, Note_on_c, 0, 72, 97
3, 255005, Note_off_c, 0, 71, 64
3, 255122, Note_on_c, 0, 71, 97
3, 255125, Note_off_c, 0, 72, 64
3, 255602, Note_on_c, 0, 64, 97
3, 255605, Note_off_c, 0, 71, 64
3, 255962, Note_on_c, 0, 69, 97
3, 255965, Note_off_c, 0, 64, 64
3, 256082, Note_on_c, 0, 67, 97
3, 256085, Note_off_c, 0, 69, 64
3, 256202, Note_on_c, 0, 65, 97
3, 256205, Note_off_c, 0, 67, 64
3, 256322, Note_on_c, 0, 64, 97
3, 256325, Note_off_c, 0, 65, 64
3, 256442, Note_on_c, 0, 62, 97
3, 256445, Note_off_c, 0, 64, 64
3, 256562, Note_on_c, 0, 67, 97
3, 256565, Note_off_c, 0, 62, 64
3, 256622, Note_on_c, 0, 65, 97
3, 256625, Note_off_c, 0, 67, 64
3, 256682, Note_on_c, 0, 64, 97
3, 256685, Note_off_c, 0, 65, 64
3, 256802, Note_on_c, 0, 65, 97
3, 256805, Note_off_c, 0, 64, 64
3, 256862, Note_on_c, 0, 64, 97
3, 256865, Note_off_c, 0, 65, 64
3, 256922, Note_on_c, 0, 62, 97
3, 256925, Note_off_c, 0, 64, 64
3, 257042, Note_on_c, 0, 60, 97
3, 257045, Note_off_c, 0, 62, 64
3, 257402, Note_on_c, 0, 62, 97
3, 257405, Note_off_c, 0, 60, 64
3, 257522, Note_on_c, 0, 64, 97
3, 257525, Note_off_c, 0, 62, 64
3, 257642, Note_on_c, 0, 65, 97
3, 257645, Note_off_c, 0, 64, 64
3, 257762, Note_on_c, 0, 64, 97
3, 257765, Note_off_c, 0, 65, 64
3, 257882, Note_on_c, 0, 62, 97
3, 257885, Note_off_c, 0, 64, 64
3, 258002, Note_on_c, 0, 68, 97
3, 258005, Note_off_c, 0, 62, 64
3, 258122, Note_on_c, 0, 62, 97
3, 258125, Note_off_c, 0, 68, 64
3, 258242, Note_on_c, 0, 64, 97
3, 258245, Note_off_c, 0, 62, 64
3, 258362, Note_on_c, 0, 65, 97
3, 258365, Note_off_c, 0, 64, 64
3, 258482, Note_on_c, 0, 64, 97
3, 258485, Note_off_c, 0, 65, 64
3, 258602, Note_on_c, 0, 62, 97
3, 258605, Note_off_c, 0, 64, 64
3, 258722, Note_on_c, 0, 71, 97
3, 258725, Note_off_c, 0, 62, 64
3, 258842, Note_on_c, 0, 62, 97
3, 258845, Note_off_c, 0, 71, 64
3, 258962, Note_on_c, 0, 64, 97
3, 258965, Note_off_c, 0, 62, 64
3, 259082, Note_on_c, 0, 65, 97
3, 259085, Note_off_c, 0, 64, 64
3, 259202, Note_on_c, 0, 64, 97
3, 259205, Note_off_c, 0, 65, 64
3, 259322, Note_on_c, 0, 62, 97
3, 259325, Note_off_c, 0, 64, 64
3, 259442, Note_on_c, 0, 60, 97
3, 259445, Note_off_c, 0, 62, 64
3, 259562, Note_on_c, 0, 59, 97
3, 259565, Note_off_c, 0, 60, 64
3, 259682, Note_on_c, 0, 62, 97
3, 259685, Note_off_c, 0, 59, 64
3, 259802, Note_on_c, 0, 60, 97
3, 259805, Note_off_c, 0, 62, 64
3, 259922, Note_on_c, 0, 59, 97
3, 259925, Note_off_c, 0, 60, 64
3, 260042, Note_on_c, 0, 57, 97
3, 260045, Note_off_c, 0, 59, 64
3, 260162, Note_on_c, 0, 58, 97
3, 260165, Note_off_c, 0, 57, 64
3, 260402, Note_on_c, 0, 70, 97
3, 260405, Note_off_c, 0, 58, 64
3, 260962, Note_on_c, 0, 69, 97
3, 260965, Note_off_c, 0, 70, 64
3, 261042, Note_on_c, 0, 67, 97
3, 261045, Note_off_c, 0, 69, 64
3, 261122, Note_on_c, 0, 69, 97
3, 261125, Note_off_c, 0, 67, 64
3, 261202, Note_on_c, 0, 67, 97
3, 261205, Note_off_c, 0, 69, 64
3, 261282, Note_on_c, 0, 66, 97
3, 261285, Note_off_c, 0, 67, 64
3, 261362, Note_on_c, 0, 64, 97
3, 261365, Note_off_c, 0, 66, 64
3, 261442, Note_on_c, 0, 66, 97
3, 261445, Note_off_c, 0, 64, 64
3, 261522, Note_on_c, 0, 67, 97
3, 261525, Note_off_c, 0, 66, 64
3, 261602, Note_on_c, 0, 55, 97
3, 261605, Note_off_c, 0, 67, 64
3, 261842, Note_on_c, 0, 74, 97
3, 261845, Note_off_c, 0, 55, 64
3, 262402, Note_on_c, 0, 72, 97
3, 262405, Note_off_c, 0, 74, 64
3, 262482, Note_on_c, 0, 71, 97
3, 262485, Note_off_c, 0, 72, 64
3, 262562, Note_on_c, 0, 72, 97
3, 262565, Note_off_c, 0, 71, 64
3, 262642, Note_on_c, 0, 71, 97
3, 262645, Note_off_c, 0, 72, 64
3, 262722, Note_on_c, 0, 69, 97
3, 262725, Note_off_c, 0, 71, 64
3, 262802, Note_on_c, 0, 68, 97
3, 262805, Note_off_c, 0, 69, 64
3, 262882, Note_on_c, 0, 69, 97
3, 262885, Note_off_c, 0, 68, 64
3, 262962, Note_on_c, 0, 71, 97
3, 262965, Note_off_c, 0, 69, 64
3, 263042, Note_on_c, 0, 60, 97
3, 263045, Note_off_c, 0, 71, 64
3, 263282, Note_on_c, 0, 77, 97
3, 263285, Note_off_c, 0, 60, 64
3, 263842, Note_on_c, 0, 76, 97
3, 263845, Note_off_c, 0, 77, 64
3, 263922, Note_on_c, 0, 74, 97
3, 263925, Note_off_c, 0, 76, 64
3, 264002, Note_on_c, 0, 76, 97
3, 264005, Note_off_c, 0, 74, 64
3, 264082, Note_on_c, 0, 74, 97
3, 264085, Note_off_c, 0, 76, 64
3, 264162, Note_on_c, 0, 73, 97
3, 264165, Note_off_c, 0, 74, 64
3, 264242, Note_on_c, 0, 71, 97
3, 264245, Note_off_c, 0, 73, 64
3, 264322, Note_on_c, 0, 73, 97
3, 264325, Note_off_c, 0, 71, 64
3, 264402, Note_on_c, 0, 74, 97
3, 264405, Note_off_c, 0, 73, 64
3, 264482, Note_on_c, 0, 64, 97
3, 264485, Note_off_c, 0, 74, 64
3, 264722, Note_on_c, 0, 81, 97
3, 264725, Note_off_c, 0, 64, 64
3, 265282, Note_on_c, 0, 79, 97
3, 265285, Note_off_c, 0, 81, 64
3, 265362, Note_on_c, 0, 77, 97
3, 265365, Note_off_c, 0, 79, 64
3, 265442, Note_on_c, 0, 82, 97
3, 265445, Note_off_c, 0, 77, 64
3, 265522, Note_on_c, 0, 81, 97
3, 265525, Note_off_c, 0, 82, 64
3, 265602, Note_on_c, 0, 79, 97
3, 265605, Note_off_c, 0, 81, 64
3, 265682, Note_on_c, 0, 77, 97
3, 265685, Note_off_c, 0, 79, 64
3, 265762, Note_on_c, 0, 79, 97
3, 265765, Note_off_c, 0, 77, 64
3, 265842, Note_on_c, 0, 76, 97
3, 265845, Note_off_c, 0, 79, 64
3, 265922, Note_on_c, 0, 77, 97
3, 265925, Note_off_c, 0, 76, 64
3, 266042, Note_on_c, 0, 76, 97
3, 266045, Note_off_c, 0, 77, 64
3, 266162, Note_on_c, 0, 74, 97
3, 266165, Note_off_c, 0, 76, 64
3, 266282, Note_on_c, 0, 72, 97
3, 266285, Note_off_c, 0, 74, 64
3, 266402, Note_on_c, 0, 70, 97
3, 266405, Note_off_c, 0, 72, 64
3, 266762, Note_on_c, 0, 64, 97
3, 266765, Note_off_c, 0, 70, 64
3, 266882, Note_on_c, 0, 69, 97
3, 266885, Note_off_c, 0, 64, 64
3, 267002, Note_on_c, 0, 67, 97
3, 267005, Note_off_c, 0, 69, 64
3, 267122, Note_on_c, 0, 65, 97
3, 267125, Note_off_c, 0, 67, 64
3, 267242, Note_on_c, 0, 64, 97
3, 267245, Note_off_c, 0, 65, 64
3, 267362, Note_on_c, 0, 62, 97
3, 267365, Note_off_c, 0, 64, 64
3, 267482, Note_on_c, 0, 64, 97
3, 267485, Note_off_c, 0, 62, 64
3, 267602, Note_on_c, 0, 65, 97
3, 267605, Note_off_c, 0, 64, 64
3, 267722, Note_on_c, 0, 64, 97
3, 267725, Note_off_c, 0, 65, 64
3, 267752, Note_on_c, 0, 65, 97
3, 267755, Note_off_c, 0, 64, 64
3, 267782, Note_on_c, 0, 64, 97
3, 267785, Note_off_c, 0, 65, 64
3, 267812, Note_on_c, 0, 65, 97
3, 267815, Note_off_c, 0, 64, 64
3, 267842, Note_on_c, 0, 64, 97
3, 267845, Note_off_c, 0, 65, 64
3, 267962, Note_on_c, 0, 62, 97
3, 267965, Note_off_c, 0, 64, 64
3, 268022, Note_on_c, 0, 64, 97
3, 268025, Note_off_c, 0, 62, 64
3, 268082, Note_on_c, 0, 65, 97
3, 268085, Note_off_c, 0, 64, 64
3, 268442, Note_on_c, 0, 69, 97
3, 268445, Note_off_c, 0, 65, 64
3, 268562, Note_on_c, 0, 73, 97
3, 268565, Note_off_c, 0, 69, 64
3, 268682, Note_on_c, 0, 76, 97
3, 268685, Note_off_c, 0, 73, 64
3, 268802, Note_on_c, 0, 74, 97
3, 268805, Note_off_c, 0, 76, 64
3, 269042, Note_on_c, 0, 62, 97
3, 269045, Note_off_c, 0, 74, 64
3, 269282, Note_on_c, 0, 70, 97
3, 269285, Note_off_c, 0, 62, 64
3, 269762, Note_on_c, 0, 64, 97
3, 269765, Note_off_c, 0, 70, 64
3, 270002, Note_on_c, 0, 67, 97
3, 270005, Note_off_c, 0, 64, 64
3, 270482, Note_on_c, 0, 61, 97
3, 270485, Note_off_c, 0, 67, 64
3, 270722, Note_on_c, 0, 64, 97
3, 270725, Note_off_c, 0, 61, 64
3, 271082, Note_on_c, 0, 57, 97
3, 271085, Note_off_c, 0, 64, 64
3, 271202, Note_on_c, 0, 62, 97
3, 271205, Note_off_c, 0, 57, 64
3, 271322, Note_on_c, 0, 60, 97
3, 271325, Note_off_c, 0, 62, 64
3, 271442, Note_on_c, 0, 58, 97
3, 271445, Note_off_c, 0, 60, 64
3, 271562, Note_on_c, 0, 57, 97
3, 271565, Note_off_c, 0, 58, 64
3, 271682, Note_on_c, 0, 58, 97
3, 271685, Note_off_c, 0, 57, 64
3, 271922, Note_on_c, 0, 62, 97
3, 271925, Note_off_c, 0, 58, 64
3, 272162, Note_on_c, 0, 67, 97
3, 272165, Note_off_c, 0, 62, 64
3, 272642, Note_on_c, 0, 61, 97
3, 272645, Note_off_c, 0, 67, 64
3, 272762, Note_on_c, 0, 70, 97
3, 272765, Note_off_c, 0, 61, 64
3, 272882, Note_on_c, 0, 69, 97
3, 272885, Note_off_c, 0, 70, 64
3, 273002, Note_on_c, 0, 67, 97
3, 273005, Note_off_c, 0, 69, 64
3, 273122, Note_on_c, 0, 65, 97
3, 273125, Note_off_c, 0, 67, 64
3, 273362, Note_on_c, 0, 67, 97
3, 273365, Note_off_c, 0, 65, 64
3, 273602, Note_on_c, 0, 64, 97
3, 273605, Note_off_c, 0, 67, 64
3, 273842, Note_on_c, 0, 65, 97
3, 273845, Note_off_c, 0, 64, 64
3, 274325, Note_off_c, 0, 65, 64
3, 274562, Note_on_c, 0, 62, 97
3, 274642, Note_on_c, 0, 61, 97
3, 274645, Note_off_c, 0, 62, 64
3, 274722, Note_on_c, 0, 62, 97
3, 274725, Note_off_c, 0, 61, 64
3, 274802, Note_on_c, 0, 57, 97
3, 274805, Note_off_c, 0, 62, 64
3, 274882, Note_on_c, 0, 62, 97
3, 274885, Note_off_c, 0, 57, 64
3, 274962, Note_on_c, 0, 64, 97
3, 274965, Note_off_c, 0, 62, 64
3, 275042, Note_on_c, 0, 65, 97
3, 275045, Note_off_c, 0, 64, 64
3, 275122, Note_on_c, 0, 64, 97
3, 275125, Note_off_c, 0, 65, 64
3, 275202, Note_on_c, 0, 62, 97
3, 275205, Note_off_c, 0, 64, 64
3, 275282, Note_on_c, 0, 64, 97
3, 275285, Note_off_c, 0, 62, 64
3, 275362, Note_on_c, 0, 62, 97
3, 275365, Note_off_c, 0, 64, 64
3, 275442, Note_on_c, 0, 64, 97
3, 275445, Note_off_c, 0, 62, 64
3, 275522, Note_on_c, 0, 57, 97
3, 275525, Note_off_c, 0, 64, 64
3, 275602, Note_on_c, 0, 64, 97
3, 275605, Note_off_c, 0, 57, 64
3, 275682, Note_on_c, 0, 65, 97
3, 275685, Note_off_c, 0, 64, 64
3, 275762, Note_on_c, 0, 67, 97
3, 275765, Note_off_c, 0, 65, 64
3, 275842, Note_on_c, 0, 65, 97
3, 275845, Note_off_c, 0, 67, 64
3, 275922, Note_on_c, 0, 64, 97
3, 275925, Note_off_c, 0, 65, 64
3, 276002, Note_on_c, 0, 65, 97
3, 276005, Note_off_c, 0, 64, 64
3, 276082, Note_on_c, 0, 64, 97
3, 276085, Note_off_c, 0, 65, 64
3, 276162, Note_on_c, 0, 62, 97
3, 276165, Note_off_c, 0, 64, 64
3, 276242, Note_on_c, 0, 69, 97
3, 276245, Note_off_c, 0, 62, 64
3, 276322, Note_on_c, 0, 67, 97
3, 276325, Note_off_c, 0, 69, 64
3, 276402, Note_on_c, 0, 65, 97
3, 276405, Note_off_c, 0, 67, 64
3, 276482, Note_on_c, 0, 64, 97
3, 276485, Note_off_c, 0, 65, 64
3, 276562, Note_on_c, 0, 65, 97
3, 276565, Note_off_c, 0, 64, 64
3, 276642, Note_on_c, 0, 62, 97
3, 276645, Note_off_c, 0, 65, 64
3, 276722, Note_on_c, 0, 61, 97
3, 276725, Note_off_c, 0, 62, 64
3, 276802, Note_on_c, 0, 62, 97
3, 276805, Note_off_c, 0, 61, 64
3, 276882, Note_on_c, 0, 64, 97
3, 276885, Note_off_c, 0, 62, 64
3, 276962, Note_on_c, 0, 57, 97
3, 276965, Note_off_c, 0, 64, 64
3, 277042, Note_on_c, 0, 61, 97
3, 277045, Note_off_c, 0, 57, 64
3, 277122, Note_on_c, 0, 64, 97
3, 277125, Note_off_c, 0, 61, 64
3, 277202, Note_on_c, 0, 67, 97
3, 277205, Note_off_c, 0, 64, 64
3, 277282, Note_on_c, 0, 65, 97
3, 277285, Note_off_c, 0, 67, 64
3, 277362, Note_on_c, 0, 64, 97
3, 277365, Note_off_c, 0, 65, 64
3, 277442, Note_on_c, 0, 65, 97
3, 277445, Note_off_c, 0, 64, 64
3, 277682, Note_on_c, 0, 69, 97
3, 277685, Note_off_c, 0, 65, 64
3, 277922, Note_on_c, 0, 62, 97
3, 277925, Note_off_c, 0, 69, 64
3, 278402, Note_on_c, 0, 68, 97
3, 278405, Note_off_c, 0, 62, 64
3, 278642, Note_on_c, 0, 71, 97
3, 278645, Note_off_c, 0, 68, 64
3, 279122, Note_on_c, 0, 69, 97
3, 279125, Note_off_c, 0, 71, 64
3, 279362, Note_on_c, 0, 77, 97
3, 279365, Note_off_c, 0, 69, 64
3, 279602, Note_on_c, 0, 71, 97
3, 279605, Note_off_c, 0, 77, 64
3, 280085, Note_off_c, 0, 71, 64
3, 280562, Note_on_c, 0, 72, 97
3, 280642, Note_on_c, 0, 74, 97
3, 280645, Note_off_c, 0, 72, 64
3, 280722, Note_on_c, 0, 76, 97
3, 280725, Note_off_c, 0, 74, 64
3, 280802, Note_on_c, 0, 69, 97
3, 280805, Note_off_c, 0, 76, 64
3, 280882, Note_on_c, 0, 71, 97
3, 280885, Note_off_c, 0, 69, 64
3, 280962, Note_on_c, 0, 72, 97
3, 280965, Note_off_c, 0, 71, 64
3, 281042, Note_on_c, 0, 65, 97
3, 281045, Note_off_c, 0, 72, 64
3, 281282, Note_on_c, 0, 74, 97
3, 281285, Note_off_c, 0, 65, 64
3, 281362, Note_on_c, 0, 76, 97
3, 281365, Note_off_c, 0, 74, 64
3, 281442, Note_on_c, 0, 77, 97
3, 281445, Note_off_c, 0, 76, 64
3, 281522, Note_on_c, 0, 71, 97
3, 281525, Note_off_c, 0, 77, 64
3, 281602, Note_on_c, 0, 72, 97
3, 281605, Note_off_c, 0, 71, 64
3, 281682, Note_on_c, 0, 74, 97
3, 281685, Note_off_c, 0, 72, 64
3, 281762, Note_on_c, 0, 67, 97
3, 281765, Note_off_c, 0, 74, 64
3, 282002, Note_on_c, 0, 76, 97
3, 282005, Note_off_c, 0, 67, 64
3, 282082, Note_on_c, 0, 77, 97
3, 282085, Note_off_c, 0, 76, 64
3, 282162, Note_on_c, 0, 79, 97
3, 282165, Note_off_c, 0, 77, 64
3, 282242, Note_on_c, 0, 72, 97
3, 282245, Note_off_c, 0, 79, 64
3, 282322, Note_on_c, 0, 74, 97
3, 282325, Note_off_c, 0, 72, 64
3, 282402, Note_on_c, 0, 76, 97
3, 282405, Note_off_c, 0, 74, 64
3, 282482, Note_on_c, 0, 69, 97
3, 282485, Note_off_c, 0, 76, 64
3, 282722, Note_on_c, 0, 77, 97
3, 282725, Note_off_c, 0, 69, 64
3, 282802, Note_on_c, 0, 79, 97
3, 282805, Note_off_c, 0, 77, 64
3, 282882, Note_on_c, 0, 81, 97
3, 282885, Note_off_c, 0, 79, 64
3, 282962, Note_on_c, 0, 74, 97
3, 282965, Note_off_c, 0, 81, 64
3, 283042, Note_on_c, 0, 76, 97
3, 283045, Note_off_c, 0, 74, 64
3, 283122, Note_on_c, 0, 77, 97
3, 283125, Note_off_c, 0, 76, 64
3, 283202, Note_on_c, 0, 71, 97
3, 283205, Note_off_c, 0, 77, 64
3, 283282, Note_on_c, 0, 72, 97
3, 283285, Note_off_c, 0, 71, 64
3, 283362, Note_on_c, 0, 74, 97
3, 283365, Note_off_c, 0, 72, 64
3, 283442, Note_on_c, 0, 68, 97
3, 283445, Note_off_c, 0, 74, 64
3, 283522, Note_on_c, 0, 69, 97
3, 283525, Note_off_c, 0, 68, 64
3, 283602, Note_on_c, 0, 71, 97
3, 283605, Note_off_c, 0, 69, 64
3, 283682, Note_on_c, 0, 64, 97
3, 283685, Note_off_c, 0, 71, 64
3, 283862, Note_on_c, 0, 74, 97
3, 283865, Note_off_c, 0, 64, 64
3, 283922, Note_on_c, 0, 73, 97
3, 283925, Note_off_c, 0, 74, 64
3, 284002, Note_on_c, 0, 74, 97
3, 284005, Note_off_c, 0, 73, 64
3, 284082, Note_on_c, 0, 76, 97
3, 284085, Note_off_c, 0, 74, 64
3, 284162, Note_on_c, 0, 69, 97
3, 284165, Note_off_c, 0, 76, 64
3, 284405, Note_off_c, 0, 69, 64
3, 284642, Note_on_c, 0, 69, 97
3, 284722, Note_on_c, 0, 71, 97
3, 284725, Note_off_c, 0, 69, 64
3, 284802, Note_on_c, 0, 72, 97
3, 284805, Note_off_c, 0, 71, 64
3, 284882, Note_on_c, 0, 66, 97
3, 284885, Note_off_c, 0, 72, 64
3, 284962, Note_on_c, 0, 67, 97
3, 284965, Note_off_c, 0, 66, 64
3, 285042, Note_on_c, 0, 69, 97
3, 285045, Note_off_c, 0, 67, 64
3, 285122, Note_on_c, 0, 62, 97
3, 285125, Note_off_c, 0, 69, 64
3, 285302, Note_on_c, 0, 72, 97
3, 285305, Note_off_c, 0, 62, 64
3, 285362, Note_on_c, 0, 71, 97
3, 285365, Note_off_c, 0, 72, 64
3, 285442, Note_on_c, 0, 72, 97
3, 285445, Note_off_c, 0, 71, 64
3, 285522, Note_on_c, 0, 74, 97
3, 285525, Note_off_c, 0, 72, 64
3, 285602, Note_on_c, 0, 67, 97
3, 285605, Note_off_c, 0, 74, 64
3, 285845, Note_off_c, 0, 67, 64
3, 286082, Note_on_c, 0, 67, 97
3, 286162, Note_on_c, 0, 65, 97
3, 286165, Note_off_c, 0, 67, 64
3, 286242, Note_on_c, 0, 67, 97
3, 286245, Note_off_c, 0, 65, 64
3, 286322, Note_on_c, 0, 60, 97
3, 286325, Note_off_c, 0, 67, 64
3, 286402, Note_on_c, 0, 67, 97
3, 286405, Note_off_c, 0, 60, 64
3, 286482, Note_on_c, 0, 69, 97
3, 286485, Note_off_c, 0, 67, 64
3, 286562, Note_on_c, 0, 70, 97
3, 286565, Note_off_c, 0, 69, 64
3, 286642, Note_on_c, 0, 69, 97
3, 286645, Note_off_c, 0, 70, 64
3, 286722, Note_on_c, 0, 67, 97
3, 286725, Note_off_c, 0, 69, 64
3, 286802, Note_on_c, 0, 69, 97
3, 286805, Note_off_c, 0, 67, 64
3, 287602, Note_on_c, 0, 67, 97
3, 287605, Note_off_c, 0, 69, 64
3, 287682, Note_on_c, 0, 69, 97
3, 287685, Note_off_c, 0, 67, 64
3, 287762, Note_on_c, 0, 62, 97
3, 287765, Note_off_c, 0, 69, 64
3, 287842, Note_on_c, 0, 69, 97
3, 287845, Note_off_c, 0, 62, 64
3, 287922, Note_on_c, 0, 71, 97
3, 287925, Note_off_c, 0, 69, 64
3, 288002, Note_on_c, 0, 72, 97
3, 288005, Note_off_c, 0, 71, 64
3, 288082, Note_on_c, 0, 71, 97
3, 288085, Note_off_c, 0, 72, 64
3, 288162, Note_on_c, 0, 69, 97
3, 288165, Note_off_c, 0, 71, 64
3, 288242, Note_on_c, 0, 71, 97
3, 288245, Note_off_c, 0, 69, 64
3, 289042, Note_on_c, 0, 68, 97
3, 289045, Note_off_c, 0, 71, 64
3, 289122, Note_on_c, 0, 69, 97
3, 289125, Note_off_c, 0, 68, 64
3, 289202, Note_on_c, 0, 65, 97
3, 289205, Note_off_c, 0, 69, 64
3, 289282, Note_on_c, 0, 68, 97
3, 289285, Note_off_c, 0, 65, 64
3, 289362, Note_on_c, 0, 69, 97
3, 289365, Note_off_c, 0, 68, 64
3, 289442, Note_on_c, 0, 64, 97
3, 289445, Note_off_c, 0, 69, 64
3, 289522, Note_on_c, 0, 68, 97
3, 289525, Note_off_c, 0, 64, 64
3, 289602, Note_on_c, 0, 69, 97
3, 289605, Note_off_c, 0, 68, 64
3, 289682, Note_on_c, 0, 62, 97
3, 289685, Note_off_c, 0, 69, 64
3, 289762, Note_on_c, 0, 68, 97
3, 289765, Note_off_c, 0, 62, 64
3, 289842, Note_on_c, 0, 69, 97
3, 289845, Note_off_c, 0, 68, 64
3, 289922, Note_on_c, 0, 60, 97
3, 289925, Note_off_c, 0, 69, 64
3, 290002, Note_on_c, 0, 68, 97
3, 290005, Note_off_c, 0, 60, 64
3, 290082, Note_on_c, 0, 69, 97
3, 290085, Note_off_c, 0, 68, 64
3, 290162, Note_on_c, 0, 59, 97
3, 290165, Note_off_c, 0, 69, 64
3, 290242, Note_on_c, 0, 68, 97
3, 290245, Note_off_c, 0, 59, 64
3, 290322, Note_on_c, 0, 69, 97
3, 290325, Note_off_c, 0, 68, 64
3, 290402, Note_on_c, 0, 60, 97
3, 290405, Note_off_c, 0, 69, 64
3, 290642, Note_on_c, 0, 65, 97
3, 290645, Note_off_c, 0, 60, 64
3, 290882, Note_on_c, 0, 59, 97
3, 290885, Note_off_c, 0, 65, 64
3, 291122, Note_on_c, 0, 61, 97
3, 291125, Note_off_c, 0, 59, 64
3, 291365, Note_off_c, 0, 61, 64
3, 291842, Note_on_c, 0, 57, 97
3, 292322, Note_on_c, 0, 62, 97
3, 292325, Note_off_c, 0, 57, 64
3, 292382, Note_on_c, 0, 64, 97
3, 292385, Note_off_c, 0, 62, 64
3, 292442, Note_on_c, 0, 65, 97
3, 292445, Note_off_c, 0, 64, 64
3, 292562, Note_on_c, 0, 64, 97
3, 292565, Note_off_c, 0, 65, 64
3, 293042, Note_on_c, 0, 57, 97
3, 293045, Note_off_c, 0, 64, 64
3, 293402, Note_on_c, 0, 62, 97
3, 293405, Note_off_c, 0, 57, 64
3, 293522, Note_on_c, 0, 60, 97
3, 293525, Note_off_c, 0, 62, 64
3, 293642, Note_on_c, 0, 58, 97
3, 293645, Note_off_c, 0, 60, 64
3, 293762, Note_on_c, 0, 57, 97
3, 293765, Note_off_c, 0, 58, 64
3, 293882, Note_on_c, 0, 55, 97
3, 293885, Note_off_c, 0, 57, 64
3, 294002, Note_on_c, 0, 60, 97
3, 294005, Note_off_c, 0, 55, 64
3, 294062, Note_on_c, 0, 58, 97
3, 294065, Note_off_c, 0, 60, 64
3, 294122, Note_on_c, 0, 57, 97
3, 294125, Note_off_c, 0, 58, 64
3, 294242, Note_on_c, 0, 58, 97
3, 294245, Note_off_c, 0, 57, 64
3, 294302, Note_on_c, 0, 57, 97
3, 294305, Note_off_c, 0, 58, 64
3, 294362, Note_on_c, 0, 55, 97
3, 294365, Note_off_c, 0, 57, 64
3, 294482, Note_on_c, 0, 53, 97
3, 294485, Note_off_c, 0, 55, 64
3, 294842, Note_on_c, 0, 55, 97
3, 294845, Note_off_c, 0, 53, 64
3, 294962, Note_on_c, 0, 57, 97
3, 294965, Note_off_c, 0, 55, 64
3, 295082, Note_on_c, 0, 58, 97
3, 295085, Note_off_c, 0, 57, 64
3, 295202, Note_on_c, 0, 57, 97
3, 295205, Note_off_c, 0, 58, 64
3, 295322, Note_on_c, 0, 55, 97
3, 295325, Note_off_c, 0, 57, 64
3, 295442, Note_on_c, 0, 61, 97
3, 295445, Note_off_c, 0, 55, 64
3, 295562, Note_on_c, 0, 55, 97
3, 295565, Note_off_c, 0, 61, 64
3, 295682, Note_on_c, 0, 57, 97
3, 295685, Note_off_c, 0, 55, 64
3, 295802, Note_on_c, 0, 58, 97
3, 295805, Note_off_c, 0, 57, 64
3, 295922, Note_on_c, 0, 57, 97
3, 295925, Note_off_c, 0, 58, 64
3, 296042, Note_on_c, 0, 55, 97
3, 296045, Note_off_c, 0, 57, 64
3, 296162, Note_on_c, 0, 64, 97
3, 296165, Note_off_c, 0, 55, 64
3, 296282, Note_on_c, 0, 55, 97
3, 296285, Note_off_c, 0, 64, 64
3, 296402, Note_on_c, 0, 57, 97
3, 296405, Note_off_c, 0, 55, 64
3, 296522, Note_on_c, 0, 58, 97
3, 296525, Note_off_c, 0, 57, 64
3, 296642, Note_on_c, 0, 57, 97
3, 296645, Note_off_c, 0, 58, 64
3, 296762, Note_on_c, 0, 55, 97
3, 296765, Note_off_c, 0, 57, 64
3, 296882, Note_on_c, 0, 53, 97
3, 296885, Note_off_c, 0, 55, 64
3, 297122, Note_on_c, 0, 65, 97
3, 297125, Note_off_c, 0, 53, 64
3, 297722, Note_on_c, 0, 64, 97
3, 297725, Note_off_c, 0, 65, 64
3, 297842, Note_on_c, 0, 67, 97
3, 297845, Note_off_c, 0, 64, 64
3, 297962, Note_on_c, 0, 65, 97
3, 297965, Note_off_c, 0, 67, 64
3, 298082, Note_on_c, 0, 64, 97
3, 298085, Note_off_c, 0, 65, 64
3, 298202, Note_on_c, 0, 62, 97
3, 298205, Note_off_c, 0, 64, 64
3, 298322, Note_on_c, 0, 61, 97
3, 298325, Note_off_c, 0, 62, 64
3, 298442, Note_on_c, 0, 70, 97
3, 298445, Note_off_c, 0, 61, 64
3, 298562, Note_on_c, 0, 69, 97
3, 298565, Note_off_c, 0, 70, 64
3, 298682, Note_on_c, 0, 67, 97
3, 298685, Note_off_c, 0, 69, 64
3, 298802, Note_on_c, 0, 65, 97
3, 298805, Note_off_c, 0, 67, 64
3, 298922, Note_on_c, 0, 64, 97
3, 298925, Note_off_c, 0, 65, 64
3, 299042, Note_on_c, 0, 62, 97
3, 299045, Note_off_c, 0, 64, 64
3, 299282, Note_on_c, 0, 64, 97
3, 299285, Note_off_c, 0, 62, 64
3, 299522, Note_on_c, 0, 61, 97
3, 299525, Note_off_c, 0, 64, 64
3, 299762, Note_on_c, 0, 62, 97
3, 299765, Note_off_c, 0, 61, 64
3, 300245, Note_off_c, 0, 62, 64
3, 300482, Note_on_c, 0, 65, 97
3, 300962, Note_on_c, 0, 70, 97
3, 300965, Note_off_c, 0, 65, 64
3, 301022, Note_on_c, 0, 72, 97
3, 301025, Note_off_c, 0, 70, 64
3, 301082, Note_on_c, 0, 74, 97
3, 301085, Note_off_c, 0, 72, 64
3, 301202, Note_on_c, 0, 72, 97
3, 301205, Note_off_c, 0, 74, 64
3, 301682, Note_on_c, 0, 63, 97
3, 301685, Note_off_c, 0, 72, 64
3, 302042, Note_on_c, 0, 62, 97
3, 302045, Note_off_c, 0, 63, 64
3, 302162, Note_on_c, 0, 63, 97
3, 302165, Note_off_c, 0, 62, 64
3, 302282, Note_on_c, 0, 62, 97
3, 302285, Note_off_c, 0, 63, 64
3, 302402, Note_on_c, 0, 60, 97
3, 302405, Note_off_c, 0, 62, 64
3, 302522, Note_on_c, 0, 58, 97
3, 302525, Note_off_c, 0, 60, 64
3, 302642, Note_on_c, 0, 65, 97
3, 302645, Note_off_c, 0, 58, 64
3, 303125, Note_off_c, 0, 65, 64
3, 303362, Note_on_c, 0, 69, 97
3, 303442, Note_on_c, 0, 60, 97
3, 303445, Note_off_c, 0, 69, 64
3, 303522, Note_on_c, 0, 62, 97
3, 303525, Note_off_c, 0, 60, 64
3, 303602, Note_on_c, 0, 64, 97
3, 303605, Note_off_c, 0, 62, 64
3, 303682, Note_on_c, 0, 65, 97
3, 303685, Note_off_c, 0, 64, 64
3, 303762, Note_on_c, 0, 67, 97
3, 303765, Note_off_c, 0, 65, 64
3, 303842, Note_on_c, 0, 69, 97
3, 303845, Note_off_c, 0, 67, 64
3, 303922, Note_on_c, 0, 70, 97
3, 303925, Note_off_c, 0, 69, 64
3, 304002, Note_on_c, 0, 72, 97
3, 304005, Note_off_c, 0, 70, 64
3, 304082, Note_on_c, 0, 70, 97
3, 304085, Note_off_c, 0, 72, 64
3, 304162, Note_on_c, 0, 67, 97
3, 304165, Note_off_c, 0, 70, 64
3, 304242, Note_on_c, 0, 69, 97
3, 304245, Note_off_c, 0, 67, 64
3, 304322, Note_on_c, 0, 70, 97
3, 304325, Note_off_c, 0, 69, 64
3, 304402, Note_on_c, 0, 72, 97
3, 304405, Note_off_c, 0, 70, 64
3, 304482, Note_on_c, 0, 74, 97
3, 304485, Note_off_c, 0, 72, 64
3, 304562, Note_on_c, 0, 76, 97
3, 304565, Note_off_c, 0, 74, 64
3, 304642, Note_on_c, 0, 77, 97
3, 304645, Note_off_c, 0, 76, 64
3, 304722, Note_on_c, 0, 79, 97
3, 304725, Note_off_c, 0, 77, 64
3, 304802, Note_on_c, 0, 77, 97
3, 304805, Note_off_c, 0, 79, 64
3, 305042, Note_on_c, 0, 72, 97
3, 305045, Note_off_c, 0, 77, 64
3, 305282, Note_on_c, 0, 77, 97
3, 305285, Note_off_c, 0, 72, 64
3, 305602, Note_on_c, 0, 76, 97
3, 305605, Note_off_c, 0, 77, 64
3, 305682, Note_on_c, 0, 74, 97
3, 305685, Note_off_c, 0, 76, 64
3, 305762, Note_on_c, 0, 72, 97
3, 305765, Note_off_c, 0, 74, 64
3, 305842, Note_on_c, 0, 76, 97
3, 305845, Note_off_c, 0, 72, 64
3, 305922, Note_on_c, 0, 79, 97
3, 305925, Note_off_c, 0, 76, 64
3, 306002, Note_on_c, 0, 71, 97
3, 306005, Note_off_c, 0, 79, 64
3, 306082, Note_on_c, 0, 74, 97
3, 306085, Note_off_c, 0, 71, 64
3, 306162, Note_on_c, 0, 77, 97
3, 306165, Note_off_c, 0, 74, 64
3, 306242, Note_on_c, 0, 67, 97
3, 306245, Note_off_c, 0, 77, 64
3, 306322, Note_on_c, 0, 72, 97
3, 306325, Note_off_c, 0, 67, 64
3, 306402, Note_on_c, 0, 74, 97
3, 306405, Note_off_c, 0, 72, 64
3, 306482, Note_on_c, 0, 75, 97
3, 306485, Note_off_c, 0, 74, 64
3, 306562, Note_on_c, 0, 69, 97
3, 306565, Note_off_c, 0, 75, 64
3, 306642, Note_on_c, 0, 70, 97
3, 306645, Note_off_c, 0, 69, 64
3, 306722, Note_on_c, 0, 72, 97
3, 306725, Note_off_c, 0, 70, 64
3, 306802, Note_on_c, 0, 70, 97
3, 306805, Note_off_c, 0, 72, 64
3, 306882, Note_on_c, 0, 69, 97
3, 306885, Note_off_c, 0, 70, 64
3, 306962, Note_on_c, 0, 74, 97
3, 306965, Note_off_c, 0, 69, 64
3, 307202, Note_on_c, 0, 66, 97
3, 307205, Note_off_c, 0, 74, 64
3, 307442, Note_on_c, 0, 67, 97
3, 307445, Note_off_c, 0, 66, 64
3, 307922, Note_on_c, 0, 66, 97
3, 307925, Note_off_c, 0, 67, 64
3, 308162, Note_on_c, 0, 69, 97
3, 308165, Note_off_c, 0, 66, 64
3, 308482, Note_on_c, 0, 67, 97
3, 308485, Note_off_c, 0, 69, 64
3, 308562, Note_on_c, 0, 69, 97
3, 308565, Note_off_c, 0, 67, 64
3, 308642, Note_on_c, 0, 62, 97
3, 308645, Note_off_c, 0, 69, 64
3, 308722, Note_on_c, 0, 67, 97
3, 308725, Note_off_c, 0, 62, 64
3, 308802, Note_on_c, 0, 69, 97
3, 308805, Note_off_c, 0, 67, 64
3, 308882, Note_on_c, 0, 70, 97
3, 308885, Note_off_c, 0, 69, 64
3, 308962, Note_on_c, 0, 69, 97
3, 308965, Note_off_c, 0, 70, 64
3, 309042, Note_on_c, 0, 67, 97
3, 309045, Note_off_c, 0, 69, 64
3, 309122, Note_on_c, 0, 68, 97
3, 309125, Note_off_c, 0, 67, 64
3, 309202, Note_on_c, 0, 67, 97
3, 309205, Note_off_c, 0, 68, 64
3, 309282, Note_on_c, 0, 68, 97
3, 309285, Note_off_c, 0, 67, 64
3, 309362, Note_on_c, 0, 62, 97
3, 309365, Note_off_c, 0, 68, 64
3, 309442, Note_on_c, 0, 65, 97
3, 309445, Note_off_c, 0, 62, 64
3, 309522, Note_on_c, 0, 67, 97
3, 309525, Note_off_c, 0, 65, 64
3, 309602, Note_on_c, 0, 68, 97
3, 309605, Note_off_c, 0, 67, 64
3, 309682, Note_on_c, 0, 67, 97
3, 309685, Note_off_c, 0, 68, 64
3, 309762, Note_on_c, 0, 65, 97
3, 309765, Note_off_c, 0, 67, 64
3, 309842, Note_on_c, 0, 67, 97
3, 309845, Note_off_c, 0, 65, 64
3, 310642, Note_on_c, 0, 66, 97
3, 310645, Note_off_c, 0, 67, 64
3, 310722, Note_on_c, 0, 67, 97
3, 310725, Note_off_c, 0, 66, 64
3, 310802, Note_on_c, 0, 75, 97
3, 310805, Note_off_c, 0, 67, 64
3, 310882, Note_on_c, 0, 69, 97
3, 310885, Note_off_c, 0, 75, 64
3, 310962, Note_on_c, 0, 70, 97
3, 310965, Note_off_c, 0, 69, 64
3, 311042, Note_on_c, 0, 72, 97
3, 311045, Note_off_c, 0, 70, 64
3, 311122, Note_on_c, 0, 70, 97
3, 311125, Note_off_c, 0, 72, 64
3, 311202, Note_on_c, 0, 69, 97
3, 311205, Note_off_c, 0, 70, 64
3, 311282, Note_on_c, 0, 70, 97
3, 311285, Note_off_c, 0, 69, 64
3, 311362, Note_on_c, 0, 69, 97
3, 311365, Note_off_c, 0, 70, 64
3, 311442, Note_on_c, 0, 70, 97
3, 311445, Note_off_c, 0, 69, 64
3, 311522, Note_on_c, 0, 67, 97
3, 311525, Note_off_c, 0, 70, 64
3, 311602, Note_on_c, 0, 70, 97
3, 311605, Note_off_c, 0, 67, 64
3, 311682, Note_on_c, 0, 72, 97
3, 311685, Note_off_c, 0, 70, 64
3, 311762, Note_on_c, 0, 74, 97
3, 311765, Note_off_c, 0, 72, 64
3, 311842, Note_on_c, 0, 72, 97
3, 311845, Note_off_c, 0, 74, 64
3, 311922, Note_on_c, 0, 70, 97
3, 311925, Note_off_c, 0, 72, 64
3, 312002, Note_on_c, 0, 72, 97
3, 312005, Note_off_c, 0, 70, 64
3, 312242, Note_on_c, 0, 64, 97
3, 312245, Note_off_c, 0, 72, 64
3, 312482, Note_on_c, 0, 72, 97
3, 312485, Note_off_c, 0, 64, 64
3, 312802, Note_on_c, 0, 67, 97
3, 312805, Note_off_c, 0, 72, 64
3, 312882, Note_on_c, 0, 69, 97
3, 312885, Note_off_c, 0, 67, 64
3, 312962, Note_on_c, 0, 65, 97
3, 312965, Note_off_c, 0, 69, 64
3, 313042, Note_on_c, 0, 69, 97
3, 313045, Note_off_c, 0, 65, 64
3, 313122, Note_on_c, 0, 70, 97
3, 313125, Note_off_c, 0, 69, 64
3, 313202, Note_on_c, 0, 72, 97
3, 313205, Note_off_c, 0, 70, 64
3, 313282, Note_on_c, 0, 70, 97
3, 313285, Note_off_c, 0, 72, 64
3, 313362, Note_on_c, 0, 69, 97
3, 313365, Note_off_c, 0, 70, 64
3, 313442, Note_on_c, 0, 70, 97
3, 313445, Note_off_c, 0, 69, 64
3, 313682, Note_on_c, 0, 62, 97
3, 313685, Note_off_c, 0, 70, 64
3, 313922, Note_on_c, 0, 70, 97
3, 313925, Note_off_c, 0, 62, 64
3, 314242, Note_on_c, 0, 65, 97
3, 314245, Note_off_c, 0, 70, 64
3, 314322, Note_on_c, 0, 67, 97
3, 314325, Note_off_c, 0, 65, 64
3, 314402, Note_on_c, 0, 64, 97
3, 314405, Note_off_c, 0, 67, 64
3, 314482, Note_on_c, 0, 67, 97
3, 314485, Note_off_c, 0, 64, 64
3, 314562, Note_on_c, 0, 69, 97
3, 314565, Note_off_c, 0, 67, 64
3, 314642, Note_on_c, 0, 70, 97
3, 314645, Note_off_c, 0, 69, 64
3, 314722, Note_on_c, 0, 69, 97
3, 314725, Note_off_c, 0, 70, 64
3, 314802, Note_on_c, 0, 67, 97
3, 314805, Note_off_c, 0, 69, 64
3, 314882, Note_on_c, 0, 69, 97
3, 314885, Note_off_c, 0, 67, 64
3, 315122, Note_on_c, 0, 61, 97
3, 315125, Note_off_c, 0, 69, 64
3, 315362, Note_on_c, 0, 69, 97
3, 315365, Note_off_c, 0, 61, 64
3, 315842, Note_on_c, 0, 65, 97
3, 315845, Note_off_c, 0, 69, 64
3, 315922, Note_on_c, 0, 64, 97
3, 315925, Note_off_c, 0, 65, 64
3, 316002, Note_on_c, 0, 62, 97
3, 316005, Note_off_c, 0, 64, 64
3, 316082, Note_on_c, 0, 69, 97
3, 316085, Note_off_c, 0, 62, 64
3, 316162, Note_on_c, 0, 67, 97
3, 316165, Note_off_c, 0, 69, 64
3, 316242, Note_on_c, 0, 65, 97
3, 316245, Note_off_c, 0, 67, 64
3, 316322, Note_on_c, 0, 74, 97
3, 316325, Note_off_c, 0, 65, 64
3, 316642, Note_on_c, 0, 72, 97
3, 316645, Note_off_c, 0, 74, 64
3, 316722, Note_on_c, 0, 71, 97
3, 316725, Note_off_c, 0, 72, 64
3, 316802, Note_on_c, 0, 77, 97
3, 316805, Note_off_c, 0, 71, 64
3, 316882, Note_on_c, 0, 76, 97
3, 316885, Note_off_c, 0, 77, 64
3, 316962, Note_on_c, 0, 74, 97
3, 316965, Note_off_c, 0, 76, 64
3, 317042, Note_on_c, 0, 76, 97
3, 317045, Note_off_c, 0, 74, 64
3, 317362, Note_on_c, 0, 77, 97
3, 317365, Note_off_c, 0, 76, 64
3, 317442, Note_on_c, 0, 76, 97
3, 317445, Note_off_c, 0, 77, 64
3, 317522, Note_on_c, 0, 74, 97
3, 317525, Note_off_c, 0, 76, 64
3, 317602, Note_on_c, 0, 72, 97
3, 317605, Note_off_c, 0, 74, 64
3, 317682, Note_on_c, 0, 71, 97
3, 317685, Note_off_c, 0, 72, 64
3, 317762, Note_on_c, 0, 72, 97
3, 317765, Note_off_c, 0, 71, 64
3, 317842, Note_on_c, 0, 76, 97
3, 317845, Note_off_c, 0, 72, 64
3, 317922, Note_on_c, 0, 74, 97
3, 317925, Note_off_c, 0, 76, 64
3, 318002, Note_on_c, 0, 72, 97
3, 318005, Note_off_c, 0, 74, 64
3, 318082, Note_on_c, 0, 71, 97
3, 318085, Note_off_c, 0, 72, 64
3, 318162, Note_on_c, 0, 69, 97
3, 318165, Note_off_c, 0, 71, 64
3, 318242, Note_on_c, 0, 77, 97
3, 318245, Note_off_c, 0, 69, 64
3, 318602, Note_on_c, 0, 71, 97
3, 318605, Note_off_c, 0, 77, 64
3, 318722, Note_on_c, 0, 76, 97
3, 318725, Note_off_c, 0, 71, 64
3, 318842, Note_on_c, 0, 74, 97
3, 318845, Note_off_c, 0, 76, 64
3, 318962, Note_on_c, 0, 72, 97
3, 318965, Note_off_c, 0, 74, 64
3, 319082, Note_on_c, 0, 71, 97
3, 319085, Note_off_c, 0, 72, 64
3, 319202, Note_on_c, 0, 69, 97
3, 319205, Note_off_c, 0, 71, 64
3, 319322, Note_on_c, 0, 71, 97
3, 319325, Note_off_c, 0, 69, 64
3, 319442, Note_on_c, 0, 71, 97
3, 319445, Note_off_c, 0, 71, 64
3, 319472, Note_on_c, 0, 72, 97
3, 319475, Note_off_c, 0, 71, 64
3, 319502, Note_on_c, 0, 71, 97
3, 319505, Note_off_c, 0, 72, 64
3, 319802, Note_on_c, 0, 69, 97
3, 319805, Note_off_c, 0, 71, 64
3, 319862, Note_on_c, 0, 71, 97
3, 319865, Note_off_c, 0, 69, 64
3, 319922, Note_on_c, 0, 72, 97
3, 319925, Note_off_c, 0, 71, 64
3, 320282, Note_on_c, 0, 60, 97
3, 320285, Note_off_c, 0, 72, 64
3, 320342, Note_on_c, 0, 62, 97
3, 320345, Note_off_c, 0, 60, 64
3, 320402, Note_on_c, 0, 64, 97
3, 320405, Note_off_c, 0, 62, 64
3, 320462, Note_on_c, 0, 66, 97
3, 320465, Note_off_c, 0, 64, 64
3, 320522, Note_on_c, 0, 68, 97
3, 320525, Note_off_c, 0, 66, 64
3, 320642, Note_on_c, 0, 69, 97
3, 320645, Note_off_c, 0, 68, 64
3, 320882, Note_on_c, 0, 74, 97
3, 320885, Note_off_c, 0, 69, 64
3, 321122, Note_on_c, 0, 77, 97
3, 321125, Note_off_c, 0, 74, 64
3, 321602, Note_on_c, 0, 71, 97
3, 321605, Note_off_c, 0, 77, 64
3, 321842, Note_on_c, 0, 74, 97
3, 321845, Note_off_c, 0, 71, 64
3, 322322, Note_on_c, 0, 68, 97
3, 322325, Note_off_c, 0, 74, 64
3, 322562, Note_on_c, 0, 71, 97
3, 322565, Note_off_c, 0, 68, 64
3, 322922, Note_on_c, 0, 64, 97
3, 322925, Note_off_c, 0, 71, 64
3, 323042, Note_on_c, 0, 69, 97
3, 323045, Note_off_c, 0, 64, 64
3, 323162, Note_on_c, 0, 67, 97
3, 323165, Note_off_c, 0, 69, 64
3, 323282, Note_on_c, 0, 65, 97
3, 323285, Note_off_c, 0, 67, 64
3, 323402, Note_on_c, 0, 64, 97
3, 323405, Note_off_c, 0, 65, 64
3, 323522, Note_on_c, 0, 65, 97
3, 323525, Note_off_c, 0, 64, 64
3, 323762, Note_on_c, 0, 69, 97
3, 323765, Note_off_c, 0, 65, 64
3, 324002, Note_on_c, 0, 74, 97
3, 324005, Note_off_c, 0, 69, 64
3, 324482, Note_on_c, 0, 68, 97
3, 324485, Note_off_c, 0, 74, 64
3, 324602, Note_on_c, 0, 77, 97
3, 324605, Note_off_c, 0, 68, 64
3, 324722, Note_on_c, 0, 76, 97
3, 324725, Note_off_c, 0, 77, 64
3, 324842, Note_on_c, 0, 74, 97
3, 324845, Note_off_c, 0, 76, 64
3, 324962, Note_on_c, 0, 72, 97
3, 324965, Note_off_c, 0, 74, 64
3, 325202, Note_on_c, 0, 74, 97
3, 325205, Note_off_c, 0, 72, 64
3, 325442, Note_on_c, 0, 71, 97
3, 325445, Note_off_c, 0, 74, 64
3, 325682, Note_on_c, 0, 69, 97
3, 325685, Note_off_c, 0, 71, 64
3, 325925, Note_off_c, 0, 69, 64
3, 326482, Note_on_c, 0, 63, 97
3, 326562, Note_on_c, 0, 66, 97
3, 326565, Note_off_c, 0, 63, 64
3, 326642, Note_on_c, 0, 69, 97
3, 326645, Note_off_c, 0, 66, 64
3, 326722, Note_on_c, 0, 66, 97
3, 326725, Note_off_c, 0, 69, 64
3, 326802, Note_on_c, 0, 69, 97
3, 326805, Note_off_c, 0, 66, 64
3, 326882, Note_on_c, 0, 72, 97
3, 326885, Note_off_c, 0, 69, 64
3, 326962, Note_on_c, 0, 69, 97
3, 326965, Note_off_c, 0, 72, 64
3, 327042, Note_on_c, 0, 72, 97
3, 327045, Note_off_c, 0, 69, 64
3, 327122, Note_on_c, 0, 78, 97
3, 327125, Note_off_c, 0, 72, 64
3, 327922, Note_on_c, 0, 81, 97
3, 327925, Note_off_c, 0, 78, 64
3, 328002, Note_on_c, 0, 78, 97
3, 328005, Note_off_c, 0, 81, 64
3, 328082, Note_on_c, 0, 75, 97
3, 328085, Note_off_c, 0, 78, 64
3, 328162, Note_on_c, 0, 78, 97
3, 328165, Note_off_c, 0, 75, 64
3, 328242, Note_on_c, 0, 75, 97
3, 328245, Note_off_c, 0, 78, 64
3, 328322, Note_on_c, 0, 71, 97
3, 328325, Note_off_c, 0, 75, 64
3, 328402, Note_on_c, 0, 75, 97
3, 328405, Note_off_c, 0, 71, 64
3, 328482, Note_on_c, 0, 71, 97
3, 328485, Note_off_c, 0, 75, 64
3, 328562, Note_on_c, 0, 67, 97
3, 328565, Note_off_c, 0, 71, 64
3, 328642, Note_on_c, 0, 64, 97
3, 328645, Note_off_c, 0, 67, 64
3, 328722, Note_on_c, 0, 67, 97
3, 328725, Note_off_c, 0, 64, 64
3, 328802, Note_on_c, 0, 71, 97
3, 328805, Note_off_c, 0, 67, 64
3, 328882, Note_on_c, 0, 67, 97
3, 328885, Note_off_c, 0, 71, 64
3, 328962, Note_on_c, 0, 71, 97
3, 328965, Note_off_c, 0, 67, 64
3, 329042, Note_on_c, 0, 76, 97
3, 329045, Note_off_c, 0, 71, 64
3, 329122, Note_on_c, 0, 71, 97
3, 329125, Note_off_c, 0, 76, 64
3, 329202, Note_on_c, 0, 76, 97
3, 329205, Note_off_c, 0, 71, 64
3, 329282, Note_on_c, 0, 79, 97
3, 329285, Note_off_c, 0, 76, 64
3, 330082, Note_on_c, 0, 82, 97
3, 330085, Note_off_c, 0, 79, 64
3, 330162, Note_on_c, 0, 79, 97
3, 330165, Note_off_c, 0, 82, 64
3, 330242, Note_on_c, 0, 76, 97
3, 330245, Note_off_c, 0, 79, 64
3, 330322, Note_on_c, 0, 79, 97
3, 330325, Note_off_c, 0, 76, 64
3, 330402, Note_on_c, 0, 76, 97
3, 330405, Note_off_c, 0, 79, 64
3, 330482, Note_on_c, 0, 73, 97
3, 330485, Note_off_c, 0, 76, 64
3, 330562, Note_on_c, 0, 76, 97
3, 330565, Note_off_c, 0, 73, 64
3, 330642, Note_on_c, 0, 73, 97
3, 330645, Note_off_c, 0, 76, 64
3, 330722, Note_on_c, 0, 69, 97
3, 330725, Note_off_c, 0, 73, 64
3, 331522, Note_on_c, 0, 77, 97
3, 331525, Note_off_c, 0, 69, 64
3, 331602, Note_on_c, 0, 74, 97
3, 331605, Note_off_c, 0, 77, 64
3, 331682, Note_on_c, 0, 69, 97
3, 331685, Note_off_c, 0, 74, 64
3, 331762, Note_on_c, 0, 74, 97
3, 331765, Note_off_c, 0, 69, 64
3, 331842, Note_on_c, 0, 69, 97
3, 331845, Note_off_c, 0, 74, 64
3, 331922, Note_on_c, 0, 65, 97
3, 331925, Note_off_c, 0, 69, 64
3, 332242, Note_on_c, 0, 67, 97
3, 332245, Note_off_c, 0, 65, 64
3, 332322, Note_on_c, 0, 69, 97
3, 332325, Note_off_c, 0, 67, 64
3, 332402, Note_on_c, 0, 62, 97
3, 332405, Note_off_c, 0, 69, 64
3, 332482, Note_on_c, 0, 64, 97
3, 332485, Note_off_c, 0, 62, 64
3, 332562, Note_on_c, 0, 65, 97
3, 332565, Note_off_c, 0, 64, 64
3, 332642, Note_on_c, 0, 62, 97
3, 332645, Note_off_c, 0, 65, 64
3, 332882, Note_on_c, 0, 67, 97
3, 332885, Note_off_c, 0, 62, 64
3, 332962, Note_on_c, 0, 69, 97
3, 332965, Note_off_c, 0, 67, 64
3, 333042, Note_on_c, 0, 70, 97
3, 333045, Note_off_c, 0, 69, 64
3, 333122, Note_on_c, 0, 64, 97
3, 333125, Note_off_c, 0, 70, 64
3, 333202, Note_on_c, 0, 65, 97
3, 333205, Note_off_c, 0, 64, 64
3, 333282, Note_on_c, 0, 67, 97
3, 333285, Note_off_c, 0, 65, 64
3, 333362, Note_on_c, 0, 60, 97
3, 333365, Note_off_c, 0, 67, 64
3, 333602, Note_on_c, 0, 69, 97
3, 333605, Note_off_c, 0, 60, 64
3, 333682, Note_on_c, 0, 70, 97
3, 333685, Note_off_c, 0, 69, 64
3, 333762, Note_on_c, 0, 72, 97
3, 333765, Note_off_c, 0, 70, 64
3, 333842, Note_on_c, 0, 65, 97
3, 333845, Note_off_c, 0, 72, 64
3, 333922, Note_on_c, 0, 67, 97
3, 333925, Note_off_c, 0, 65, 64
3, 334002, Note_on_c, 0, 69, 97
3, 334005, Note_off_c, 0, 67, 64
3, 334082, Note_on_c, 0, 62, 97
3, 334085, Note_off_c, 0, 69, 64
3, 334322, Note_on_c, 0, 70, 97
3, 334325, Note_off_c, 0, 62, 64
3, 334402, Note_on_c, 0, 72, 97
3, 334405, Note_off_c, 0, 70, 64
3, 334482, Note_on_c, 0, 74, 97
3, 334485, Note_off_c, 0, 72, 64
3, 334562, Note_on_c, 0, 67, 97
3, 334565, Note_off_c, 0, 74, 64
3, 334642, Note_on_c, 0, 69, 97
3, 334645, Note_off_c, 0, 67, 64
3, 334722, Note_on_c, 0, 70, 97
3, 334725, Note_off_c, 0, 69, 64
3, 334802, Note_on_c, 0, 64, 97
3, 334805, Note_off_c, 0, 70, 64
3, 334982, Note_on_c, 0, 74, 97
3, 334985, Note_off_c, 0, 64, 64
3, 335042, Note_on_c, 0, 73, 97
3, 335045, Note_off_c, 0, 74, 64
3, 335122, Note_on_c, 0, 74, 97
3, 335125, Note_off_c, 0, 73, 64
3, 335202, Note_on_c, 0, 76, 97
3, 335205, Note_off_c, 0, 74, 64
3, 335282, Note_on_c, 0, 69, 97
3, 335285, Note_off_c, 0, 76, 64
3, 335525, Note_off_c, 0, 69, 64
3, 335762, Note_on_c, 0, 69, 97
3, 335842, Note_on_c, 0, 71, 97
3, 335845, Note_off_c, 0, 69, 64
3, 335922, Note_on_c, 0, 72, 97
3, 335925, Note_off_c, 0, 71, 64
3, 336002, Note_on_c, 0, 66, 97
3, 336005, Note_off_c, 0, 72, 64
3, 336082, Note_on_c, 0, 67, 97
3, 336085, Note_off_c, 0, 66, 64
3, 336162, Note_on_c, 0, 69, 97
3, 336165, Note_off_c, 0, 67, 64
3, 336242, Note_on_c, 0, 62, 97
3, 336245, Note_off_c, 0, 69, 64
3, 336422, Note_on_c, 0, 72, 97
3, 336425, Note_off_c, 0, 62, 64
3, 336482, Note_on_c, 0, 71, 97
3, 336485, Note_off_c, 0, 72, 64
3, 336562, Note_on_c, 0, 72, 97
3, 336565, Note_off_c, 0, 71, 64
3, 336642, Note_on_c, 0, 74, 97
3, 336645, Note_off_c, 0, 72, 64
3, 336722, Note_on_c, 0, 67, 97
3, 336725, Note_off_c, 0, 74, 64
3, 336965, Note_off_c, 0, 67, 64
3, 337202, Note_on_c, 0, 67, 97
3, 337282, Note_on_c, 0, 69, 97
3, 337285, Note_off_c, 0, 67, 64
3, 337362, Note_on_c, 0, 70, 97
3, 337365, Note_off_c, 0, 69, 64
3, 337442, Note_on_c, 0, 64, 97
3, 337445, Note_off_c, 0, 70, 64
3, 337522, Note_on_c, 0, 65, 97
3, 337525, Note_off_c, 0, 64, 64
3, 337602, Note_on_c, 0, 67, 97
3, 337605, Note_off_c, 0, 65, 64
3, 337682, Note_on_c, 0, 60, 97
3, 337685, Note_off_c, 0, 67, 64
3, 337862, Note_on_c, 0, 70, 97
3, 337865, Note_off_c, 0, 60, 64
3, 337922, Note_on_c, 0, 69, 97
3, 337925, Note_off_c, 0, 70, 64
3, 338722, Note_on_c, 0, 67, 97
3, 338725, Note_off_c, 0, 69, 64
3, 338802, Note_on_c, 0, 69, 97
3, 338805, Note_off_c, 0, 67, 64
3, 338882, Note_on_c, 0, 62, 97
3, 338885, Note_off_c, 0, 69, 64
3, 338962, Note_on_c, 0, 69, 97
3, 338965, Note_off_c, 0, 62, 64
3, 339042, Note_on_c, 0, 70, 97
3, 339045, Note_off_c, 0, 69, 64
3, 339122, Note_on_c, 0, 72, 97
3, 339125, Note_off_c, 0, 70, 64
3, 339202, Note_on_c, 0, 70, 97
3, 339205, Note_off_c, 0, 72, 64
3, 339282, Note_on_c, 0, 69, 97
3, 339285, Note_off_c, 0, 70, 64
3, 339362, Note_on_c, 0, 70, 97
3, 339365, Note_off_c, 0, 69, 64
3, 340162, Note_on_c, 0, 69, 97
3, 340165, Note_off_c, 0, 70, 64
3, 340242, Note_on_c, 0, 70, 97
3, 340245, Note_off_c, 0, 69, 64
3, 340322, Note_on_c, 0, 64, 97
3, 340325, Note_off_c, 0, 70, 64
3, 340402, Note_on_c, 0, 67, 97
3, 340405, Note_off_c, 0, 64, 64
3, 340482, Note_on_c, 0, 69, 97
3, 340485, Note_off_c, 0, 67, 64
3, 340562, Note_on_c, 0, 70, 97
3, 340565, Note_off_c, 0, 69, 64
3, 340642, Note_on_c, 0, 69, 97
3, 340645, Note_off_c, 0, 70, 64
3, 340722, Note_on_c, 0, 67, 97
3, 340725, Note_off_c, 0, 69, 64
3, 340802, Note_on_c, 0, 65, 97
3, 340805, Note_off_c, 0, 67, 64
3, 343202, Note_on_c, 0, 67, 97
3, 343205, Note_off_c, 0, 65, 64
3, 343442, Note_on_c, 0, 64, 97
3, 343445, Note_off_c, 0, 67, 64
3, 343682, Note_on_c, 0, 65, 97
3, 343685, Note_off_c, 0, 64, 64
3, 343922, Note_on_c, 0, 69, 97
3, 343925, Note_off_c, 0, 65, 64
3, 344162, Note_on_c, 0, 60, 97
3, 344165, Note_off_c, 0, 69, 64
3, 344642, Note_on_c, 0, 64, 97
3, 344645, Note_off_c, 0, 60, 64
3, 344882, Note_on_c, 0, 67, 97
3, 344885, Note_off_c, 0, 64, 64
3, 345362, Note_on_c, 0, 65, 97
3, 345365, Note_off_c, 0, 67, 64
3, 345602, Note_on_c, 0, 74, 97
3, 345605, Note_off_c, 0, 65, 64
3, 345842, Note_on_c, 0, 67, 97
3, 345845, Note_off_c, 0, 74, 64
3, 346325, Note_off_c, 0, 67, 64
3, 346562, Note_on_c, 0, 67, 97
3, 346642, Note_on_c, 0, 66, 97
3, 346645, Note_off_c, 0, 67, 64
3, 346722, Note_on_c, 0, 67, 97
3, 346725, Note_off_c, 0, 66, 64
3, 346802, Note_on_c, 0, 62, 97
3, 346805, Note_off_c, 0, 67, 64
3, 346882, Note_on_c, 0, 67, 97
3, 346885, Note_off_c, 0, 62, 64
3, 346962, Note_on_c, 0, 69, 97
3, 346965, Note_off_c, 0, 67, 64
3, 347042, Note_on_c, 0, 70, 97
3, 347045, Note_off_c, 0, 69, 64
3, 347122, Note_on_c, 0, 69, 97
3, 347125, Note_off_c, 0, 70, 64
3, 347202, Note_on_c, 0, 67, 97
3, 347205, Note_off_c, 0, 69, 64
3, 347282, Note_on_c, 0, 69, 97
3, 347285, Note_off_c, 0, 67, 64
3, 347362, Note_on_c, 0, 67, 97
3, 347365, Note_off_c, 0, 69, 64
3, 347442, Note_on_c, 0, 69, 97
3, 347445, Note_off_c, 0, 67, 64
3, 347522, Note_on_c, 0, 62, 97
3, 347525, Note_off_c, 0, 69, 64
3, 347602, Note_on_c, 0, 69, 97
3, 347605, Note_off_c, 0, 62, 64
3, 347682, Note_on_c, 0, 70, 97
3, 347685, Note_off_c, 0, 69, 64
3, 347762, Note_on_c, 0, 72, 97
3, 347765, Note_off_c, 0, 70, 64
3, 347842, Note_on_c, 0, 70, 97
3, 347845, Note_off_c, 0, 72, 64
3, 347922, Note_on_c, 0, 69, 97
3, 347925, Note_off_c, 0, 70, 64
3, 348002, Note_on_c, 0, 70, 97
3, 348005, Note_off_c, 0, 69, 64
3, 348082, Note_on_c, 0, 69, 97
3, 348085, Note_off_c, 0, 70, 64
3, 348162, Note_on_c, 0, 67, 97
3, 348165, Note_off_c, 0, 69, 64
3, 348242, Note_on_c, 0, 74, 97
3, 348245, Note_off_c, 0, 67, 64
3, 348322, Note_on_c, 0, 72, 97
3, 348325, Note_off_c, 0, 74, 64
3, 348402, Note_on_c, 0, 70, 97
3, 348405, Note_off_c, 0, 72, 64
3, 348482, Note_on_c, 0, 69, 97
3, 348485, Note_off_c, 0, 70, 64
3, 348562, Note_on_c, 0, 70, 97
3, 348565, Note_off_c, 0, 69, 64
3, 348642, Note_on_c, 0, 67, 97
3, 348645, Note_off_c, 0, 70, 64
3, 348722, Note_on_c, 0, 66, 97
3, 348725, Note_off_c, 0, 67, 64
3, 348802, Note_on_c, 0, 67, 97
3, 348805, Note_off_c, 0, 66, 64
3, 348882, Note_on_c, 0, 69, 97
3, 348885, Note_off_c, 0, 67, 64
3, 348962, Note_on_c, 0, 62, 97
3, 348965, Note_off_c, 0, 69, 64
3, 349042, Note_on_c, 0, 66, 97
3, 349045, Note_off_c, 0, 62, 64
3, 349122, Note_on_c, 0, 69, 97
3, 349125, Note_off_c, 0, 66, 64
3, 349202, Note_on_c, 0, 72, 97
3, 349205, Note_off_c, 0, 69, 64
3, 349282, Note_on_c, 0, 70, 97
3, 349285, Note_off_c, 0, 72, 64
3, 349362, Note_on_c, 0, 69, 97
3, 349365, Note_off_c, 0, 70, 64
3, 349442, Note_on_c, 0, 70, 97
3, 349445, Note_off_c, 0, 69, 64
3, 349682, Note_on_c, 0, 72, 97
3, 349685, Note_off_c, 0, 70, 64
3, 349922, Note_on_c, 0, 74, 97
3, 349925, Note_off_c, 0, 72, 64
3, 350162, Note_on_c, 0, 75, 97
3, 350165, Note_off_c, 0, 74, 64
3, 350402, Note_on_c, 0, 74, 97
3, 350405, Note_off_c, 0, 75, 64
3, 350642, Note_on_c, 0, 72, 97
3, 350645, Note_off_c, 0, 74, 64
3, 350882, Note_on_c, 0, 74, 97
3, 350885, Note_off_c, 0, 72, 64
3, 351002, Note_on_c, 0, 67, 97
3, 351005, Note_off_c, 0, 74, 64
3, 351122, Note_on_c, 0, 70, 97
3, 351125, Note_off_c, 0, 67, 64
3, 351242, Note_on_c, 0, 69, 97
3, 351245, Note_off_c, 0, 70, 64
3, 351362, Note_on_c, 0, 67, 97
3, 351365, Note_off_c, 0, 69, 64
3, 351482, Note_on_c, 0, 66, 97
3, 351485, Note_off_c, 0, 67, 64
3, 351602, Note_on_c, 0, 67, 97
3, 351605, Note_off_c, 0, 66, 64
3, 352085, Note_off_c, 0, 67, 64
3, 358082, Note_on_c, 0, 64, 97
3, 358562, Note_on_c, 0, 69, 97
3, 358565, Note_off_c, 0, 64, 64
3, 358622, Note_on_c, 0, 71, 97
3, 358625, Note_off_c, 0, 69, 64
3, 358682, Note_on_c, 0, 72, 97
3, 358685, Note_off_c, 0, 71, 64
3, 358802, Note_on_c, 0, 71, 97
3, 358805, Note_off_c, 0, 72, 64
3, 359282, Note_on_c, 0, 64, 97
3, 359285, Note_off_c, 0, 71, 64
3, 359642, Note_on_c, 0, 69, 97
3, 359645, Note_off_c, 0, 64, 64
3, 359762, Note_on_c, 0, 67, 97
3, 359765, Note_off_c, 0, 69, 64
3, 359882, Note_on_c, 0, 65, 97
3, 359885, Note_off_c, 0, 67, 64
3, 360002, Note_on_c, 0, 64, 97
3, 360005, Note_off_c, 0, 65, 64
3, 360122, Note_on_c, 0, 62, 97
3, 360125, Note_off_c, 0, 64, 64
3, 360242, Note_on_c, 0, 67, 97
3, 360245, Note_off_c, 0, 62, 64
3, 360302, Note_on_c, 0, 65, 97
3, 360305, Note_off_c, 0, 67, 64
3, 360362, Note_on_c, 0, 64, 97
3, 360365, Note_off_c, 0, 65, 64
3, 360482, Note_on_c, 0, 65, 97
3, 360485, Note_off_c, 0, 64, 64
3, 360542, Note_on_c, 0, 64, 97
3, 360545, Note_off_c, 0, 65, 64
3, 360602, Note_on_c, 0, 62, 97
3, 360605, Note_off_c, 0, 64, 64
3, 360722, Note_on_c, 0, 60, 97
3, 360725, Note_off_c, 0, 62, 64
3, 361082, Note_on_c, 0, 62, 97
3, 361085, Note_off_c, 0, 60, 64
3, 361202, Note_on_c, 0, 64, 97
3, 361205, Note_off_c, 0, 62, 64
3, 361322, Note_on_c, 0, 65, 97
3, 361325, Note_off_c, 0, 64, 64
3, 361442, Note_on_c, 0, 64, 97
3, 361445, Note_off_c, 0, 65, 64
3, 361562, Note_on_c, 0, 62, 97
3, 361565, Note_off_c, 0, 64, 64
3, 361682, Note_on_c, 0, 68, 97
3, 361685, Note_off_c, 0, 62, 64
3, 361802, Note_on_c, 0, 62, 97
3, 361805, Note_off_c, 0, 68, 64
3, 361922, Note_on_c, 0, 64, 97
3, 361925, Note_off_c, 0, 62, 64
3, 362042, Note_on_c, 0, 65, 97
3, 362045, Note_off_c, 0, 64, 64
3, 362162, Note_on_c, 0, 64, 97
3, 362165, Note_off_c, 0, 65, 64
3, 362282, Note_on_c, 0, 62, 97
3, 362285, Note_off_c, 0, 64, 64
3, 362402, Note_on_c, 0, 71, 97
3, 362405, Note_off_c, 0, 62, 64
3, 362522, Note_on_c, 0, 62, 97
3, 362525, Note_off_c, 0, 71, 64
3, 362642, Note_on_c, 0, 64, 97
3, 362645, Note_off_c, 0, 62, 64
3, 362762, Note_on_c, 0, 65, 97
3, 362765, Note_off_c, 0, 64, 64
3, 362882, Note_on_c, 0, 64, 97
3, 362885, Note_off_c, 0, 65, 64
3, 363002, Note_on_c, 0, 62, 97
3, 363005, Note_off_c, 0, 64, 64
3, 363122, Note_on_c, 0, 60, 97
3, 363125, Note_off_c, 0, 62, 64
3, 363242, Note_on_c, 0, 59, 97
3, 363245, Note_off_c, 0, 60, 64
3, 363362, Note_on_c, 0, 62, 97
3, 363365, Note_off_c, 0, 59, 64
3, 363482, Note_on_c, 0, 60, 97
3, 363485, Note_off_c, 0, 62, 64
3, 363602, Note_on_c, 0, 59, 97
3, 363605, Note_off_c, 0, 60, 64
3, 363722, Note_on_c, 0, 57, 97
3, 363725, Note_off_c, 0, 59, 64
3, 363842, Note_on_c, 0, 58, 97
3, 363845, Note_off_c, 0, 57, 64
3, 364082, Note_on_c, 0, 70, 97
3, 364085, Note_off_c, 0, 58, 64
3, 364642, Note_on_c, 0, 69, 97
3, 364645, Note_off_c, 0, 70, 64
3, 364722, Note_on_c, 0, 67, 97
3, 364725, Note_off_c, 0, 69, 64
3, 364802, Note_on_c, 0, 69, 97
3, 364805, Note_off_c, 0, 67, 64
3, 364882, Note_on_c, 0, 67, 97
3, 364885, Note_off_c, 0, 69, 64
3, 364962, Note_on_c, 0, 66, 97
3, 364965, Note_off_c, 0, 67, 64
3, 365042, Note_on_c, 0, 64, 97
3, 365045, Note_off_c, 0, 66, 64
3, 365122, Note_on_c, 0, 66, 97
3, 365125, Note_off_c, 0, 64, 64
3, 365202, Note_on_c, 0, 67, 97
3, 365205, Note_off_c, 0, 66, 64
3, 365282, Note_on_c, 0, 55, 97
3, 365285, Note_off_c, 0, 67, 64
3, 365522, Note_on_c, 0, 74, 97
3, 365525, Note_off_c, 0, 55, 64
3, 366082, Note_on_c, 0, 72, 97
3, 366085, Note_off_c, 0, 74, 64
3, 366162, Note_on_c, 0, 71, 97
3, 366165, Note_off_c, 0, 72, 64
3, 366242, Note_on_c, 0, 72, 97
3, 366245, Note_off_c, 0, 71, 64
3, 366322, Note_on_c, 0, 71, 97
3, 366325, Note_off_c, 0, 72, 64
3, 366402, Note_on_c, 0, 69, 97
3, 366405, Note_off_c, 0, 71, 64
3, 366482, Note_on_c, 0, 68, 97
3, 366485, Note_off_c, 0, 69, 64
3, 366562, Note_on_c, 0, 69, 97
3, 366565, Note_off_c, 0, 68, 64
3, 366642, Note_on_c, 0, 71, 97
3, 366645, Note_off_c, 0, 69, 64
3, 366722, Note_on_c, 0, 60, 97
3, 366725, Note_off_c, 0, 71, 64
3, 366962, Note_on_c, 0, 77, 97
3, 366965, Note_off_c, 0, 60, 64
3, 367522, Note_on_c, 0, 76, 97
3, 367525, Note_off_c, 0, 77, 64
3, 367602, Note_on_c, 0, 74, 97
3, 367605, Note_off_c, 0, 76, 64
3, 367682, Note_on_c, 0, 76, 97
3, 367685, Note_off_c, 0, 74, 64
3, 367762, Note_on_c, 0, 74, 97
3, 367765, Note_off_c, 0, 76, 64
3, 367842, Note_on_c, 0, 73, 97
3, 367845, Note_off_c, 0, 74, 64
3, 367922, Note_on_c, 0, 71, 97
3, 367925, Note_off_c, 0, 73, 64
3, 368002, Note_on_c, 0, 73, 97
3, 368005, Note_off_c, 0, 71, 64
3, 368082, Note_on_c, 0, 74, 97
3, 368085, Note_off_c, 0, 73, 64
3, 368162, Note_on_c, 0, 64, 97
3, 368165, Note_off_c, 0, 74, 64
3, 368402, Note_on_c, 0, 81, 97
3, 368405, Note_off_c, 0, 64, 64
3, 368962, Note_on_c, 0, 79, 97
3, 368965, Note_off_c, 0, 81, 64
3, 369042, Note_on_c, 0, 77, 97
3, 369045, Note_off_c, 0, 79, 64
3, 369122, Note_on_c, 0, 82, 97
3, 369125, Note_off_c, 0, 77, 64
3, 369202, Note_on_c, 0, 81, 97
3, 369205, Note_off_c, 0, 82, 64
3, 369282, Note_on_c, 0, 79, 97
3, 369285, Note_off_c, 0, 81, 64
3, 369362, Note_on_c, 0, 77, 97
3, 369365, Note_off_c, 0, 79, 64
3, 369442, Note_on_c, 0, 79, 97
3, 369445, Note_off_c, 0, 77, 64
3, 369522, Note_on_c, 0, 76, 97
3, 369525, Note_off_c, 0, 79, 64
3, 369602, Note_on_c, 0, 77, 97
3, 369605, Note_off_c, 0, 76, 64
3, 369722, Note_on_c, 0, 76, 97
3, 369725, Note_off_c, 0, 77, 64
3, 369842, Note_on_c, 0, 74, 97
3, 369845, Note_off_c, 0, 76, 64
3, 369962, Note_on_c, 0, 72, 97
3, 369965, Note_off_c, 0, 74, 64
3, 370082, Note_on_c, 0, 70, 97
3, 370085, Note_off_c, 0, 72, 64
3, 370442, Note_on_c, 0, 64, 97
3, 370445, Note_off_c, 0, 70, 64
3, 370562, Note_on_c, 0, 69, 97
3, 370565, Note_off_c, 0, 64, 64
3, 370682, Note_on_c, 0, 67, 97
3, 370685, Note_off_c, 0, 69, 64
3, 370802, Note_on_c, 0, 65, 97
3, 370805, Note_off_c, 0, 67, 64
3, 370922, Note_on_c, 0, 64, 97
3, 370925, Note_off_c, 0, 65, 64
3, 371042, Note_on_c, 0, 62, 97
3, 371045, Note_off_c, 0, 64, 64
3, 371162, Note_on_c, 0, 64, 97
3, 371165, Note_off_c, 0, 62, 64
3, 371282, Note_on_c, 0, 64, 97
3, 371285, Note_off_c, 0, 64, 64
3, 371312, Note_on_c, 0, 65, 97
3, 371315, Note_off_c, 0, 64, 64
3, 371342, Note_on_c, 0, 64, 97
3, 371345, Note_off_c, 0, 65, 64
3, 371642, Note_on_c, 0, 62, 97
3, 371645, Note_off_c, 0, 64, 64
3, 371702, Note_on_c, 0, 64, 97
3, 371705, Note_off_c, 0, 62, 64
3, 371762, Note_on_c, 0, 65, 97
3, 371765, Note_off_c, 0, 64, 64
3, 372122, Note_on_c, 0, 69, 97
3, 372125, Note_off_c, 0, 65, 64
3, 372242, Note_on_c, 0, 73, 97
3, 372245, Note_off_c, 0, 69, 64
3, 372362, Note_on_c, 0, 76, 97
3, 372365, Note_off_c, 0, 73, 64
3, 372482, Note_on_c, 0, 74, 97
3, 372485, Note_off_c, 0, 76, 64
3, 372722, Note_on_c, 0, 62, 97
3, 372725, Note_off_c, 0, 74, 64
3, 372962, Note_on_c, 0, 70, 97
3, 372965, Note_off_c, 0, 62, 64
3, 373442, Note_on_c, 0, 64, 97
3, 373445, Note_off_c, 0, 70, 64
3, 373682, Note_on_c, 0, 67, 97
3, 373685, Note_off_c, 0, 64, 64
3, 374162, Note_on_c, 0, 61, 97
3, 374165, Note_off_c, 0, 67, 64
3, 374402, Note_on_c, 0, 64, 97
3, 374405, Note_off_c, 0, 61, 64
3, 374762, Note_on_c, 0, 57, 97
3, 374765, Note_off_c, 0, 64, 64
3, 374882, Note_on_c, 0, 62, 97
3, 374885, Note_off_c, 0, 57, 64
3, 375002, Note_on_c, 0, 60, 97
3, 375005, Note_off_c, 0, 62, 64
3, 375122, Note_on_c, 0, 58, 97
3, 375125, Note_off_c, 0, 60, 64
3, 375242, Note_on_c, 0, 57, 97
3, 375245, Note_off_c, 0, 58, 64
3, 375362, Note_on_c, 0, 58, 97
3, 375365, Note_off_c, 0, 57, 64
3, 375602, Note_on_c, 0, 62, 97
3, 375605, Note_off_c, 0, 58, 64
3, 375842, Note_on_c, 0, 67, 97
3, 375845, Note_off_c, 0, 62, 64
3, 376322, Note_on_c, 0, 61, 97
3, 376325, Note_off_c, 0, 67, 64
3, 376442, Note_on_c, 0, 70, 97
3, 376445, Note_off_c, 0, 61, 64
3, 376562, Note_on_c, 0, 69, 97
3, 376565, Note_off_c, 0, 70, 64
3, 376682, Note_on_c, 0, 67, 97
3, 376685, Note_off_c, 0, 69, 64
3, 376802, Note_on_c, 0, 65, 97
3, 376805, Note_off_c, 0, 67, 64
3, 377042, Note_on_c, 0, 67, 97
3, 377045, Note_off_c, 0, 65, 64
3, 377282, Note_on_c, 0, 64, 97
3, 377285, Note_off_c, 0, 67, 64
3, 377522, Note_on_c, 0, 65, 97
3, 377525, Note_off_c, 0, 64, 64
3, 378005, Note_off_c, 0, 65, 64
3, 378240, End_track
4, 0, Start_track
4, 0, Title_t, "Track 3"
4, 0, Note_on_c, 0, 50, 102
4, 240, Note_off_c, 0, 50, 64
4, 480, Note_on_c, 0, 52, 102
4, 720, Note_off_c, 0, 52, 64
4, 960, Note_on_c, 0, 53, 102
4, 1200, Note_off_c, 0, 53, 64
4, 1920, Note_on_c, 0, 41, 102
4, 2160, Note_off_c, 0, 41, 64
4, 2400, Note_on_c, 0, 43, 102
4, 2640, Note_off_c, 0, 43, 64
4, 2880, Note_on_c, 0, 45, 102
4, 3120, Note_off_c, 0, 45, 64
4, 3360, Note_on_c, 0, 49, 102
4, 3600, Note_off_c, 0, 49, 64
4, 3840, Note_on_c, 0, 50, 102
4, 4080, Note_off_c, 0, 50, 64
4, 4320, Note_on_c, 0, 38, 102
4, 4560, Note_off_c, 0, 38, 64
4, 4800, Note_on_c, 0, 43, 102
4, 5040, Note_off_c, 0, 43, 64
4, 5280, Note_on_c, 0, 47, 102
4, 5520, Note_off_c, 0, 47, 64
4, 5760, Note_on_c, 0, 48, 102
4, 6000, Note_off_c, 0, 48, 64
4, 6240, Note_on_c, 0, 36, 102
4, 6480, Note_off_c, 0, 36, 64
4, 6720, Note_on_c, 0, 41, 102
4, 6960, Note_off_c, 0, 41, 64
4, 6960, Note_on_c, 0, 53, 102
4, 7200, Note_off_c, 0, 53, 64
4, 7200, Note_on_c, 0, 52, 102
4, 7440, Note_off_c, 0, 52, 64
4, 7440, Note_on_c, 0, 50, 102
4, 7680, Note_off_c, 0, 50, 64
4, 7680, Note_on_c, 0, 57, 102
4, 7920, Note_off_c, 0, 57, 64
4, 7920, Note_on_c, 0, 62, 102
4, 8160, Note_off_c, 0, 62, 64
4, 8160, Note_on_c, 0, 60, 102
4, 8400, Note_off_c, 0, 60, 64
4, 8400, Note_on_c, 0, 59, 102
4, 8640, Note_off_c, 0, 59, 64
4, 8640, Note_on_c, 0, 57, 102
4, 8880, Note_off_c, 0, 57, 64
4, 8880, Note_on_c, 0, 53, 102
4, 9120, Note_off_c, 0, 53, 64
4, 9120, Note_on_c, 0, 52, 102
4, 9360, Note_off_c, 0, 52, 64
4, 9360, Note_on_c, 0, 50, 102
4, 9600, Note_off_c, 0, 50, 64
4, 9600, Note_on_c, 0, 48, 102
4, 9840, Note_off_c, 0, 48, 64
4, 10080, Note_on_c, 0, 41, 102
4, 10320, Note_off_c, 0, 41, 64
4, 10560, Note_on_c, 0, 40, 102
4, 10800, Note_off_c, 0, 40, 64
4, 11520, Note_on_c, 0, 45, 102
4, 11760, Note_off_c, 0, 45, 64
4, 12000, Note_on_c, 0, 57, 102
4, 12240, Note_off_c, 0, 57, 64
4, 12480, Note_on_c, 0, 50, 102
4, 12720, Note_off_c, 0, 50, 64
4, 13440, Note_on_c, 0, 43, 102
4, 13680, Note_off_c, 0, 43, 64
4, 13920, Note_on_c, 0, 55, 102
4, 14160, Note_off_c, 0, 55, 64
4, 14400, Note_on_c, 0, 48, 102
4, 14640, Note_off_c, 0, 48, 64
4, 14640, Note_on_c, 0, 47, 102
4, 14880, Note_off_c, 0, 47, 64
4, 14880, Note_on_c, 0, 49, 102
4, 15120, Note_off_c, 0, 49, 64
4, 15120, Note_on_c, 0, 45, 102
4, 15360, Note_off_c, 0, 45, 64
4, 15360, Note_on_c, 0, 50, 102
4, 15600, Note_off_c, 0, 50, 64
4, 15600, Note_on_c, 0, 49, 102
4, 15840, Note_off_c, 0, 49, 64
4, 15840, Note_on_c, 0, 51, 102
4, 16080, Note_off_c, 0, 51, 64
4, 16080, Note_on_c, 0, 47, 102
4, 16320, Note_off_c, 0, 47, 64
4, 16320, Note_on_c, 0, 52, 102
4, 16560, Note_off_c, 0, 52, 64
4, 16560, Note_on_c, 0, 50, 102
4, 16800, Note_off_c, 0, 50, 64
4, 16800, Note_on_c, 0, 52, 102
4, 17040, Note_off_c, 0, 52, 64
4, 17040, Note_on_c, 0, 48, 102
4, 17280, Note_off_c, 0, 48, 64
4, 17280, Note_on_c, 0, 53, 102
4, 17520, Note_off_c, 0, 53, 64
4, 17520, Note_on_c, 0, 52, 102
4, 17760, Note_off_c, 0, 52, 64
4, 17760, Note_on_c, 0, 54, 102
4, 18000, Note_off_c, 0, 54, 64
4, 18000, Note_on_c, 0, 50, 102
4, 18240, Note_off_c, 0, 50, 64
4, 18240, Note_on_c, 0, 55, 102
4, 18480, Note_off_c, 0, 55, 64
4, 18480, Note_on_c, 0, 54, 102
4, 18720, Note_off_c, 0, 54, 64
4, 18720, Note_on_c, 0, 56, 102
4, 18960, Note_off_c, 0, 56, 64
4, 18960, Note_on_c, 0, 52, 102
4, 19200, Note_off_c, 0, 52, 64
4, 19200, Note_on_c, 0, 57, 102
4, 19320, Note_off_c, 0, 57, 64
4, 19320, Note_on_c, 0, 56, 102
4, 19440, Note_off_c, 0, 56, 64
4, 19440, Note_on_c, 0, 57, 102
4, 19800, Note_off_c, 0, 57, 64
4, 19800, Note_on_c, 0, 56, 102
4, 19920, Note_off_c, 0, 56, 64
4, 19920, Note_on_c, 0, 57, 102
4, 20280, Note_off_c, 0, 57, 64
4, 20280, Note_on_c, 0, 56, 102
4, 20400, Note_off_c, 0, 56, 64
4, 20400, Note_on_c, 0, 57, 102
4, 20520, Note_off_c, 0, 57, 64
4, 20520, Note_on_c, 0, 56, 102
4, 20640, Note_off_c, 0, 56, 64
4, 20640, Note_on_c, 0, 57, 102
4, 20760, Note_off_c, 0, 57, 64
4, 20760, Note_on_c, 0, 56, 102
4, 20880, Note_off_c, 0, 56, 64
4, 20880, Note_on_c, 0, 57, 102
4, 21000, Note_off_c, 0, 57, 64
4, 21000, Note_on_c, 0, 56, 102
4, 21120, Note_off_c, 0, 56, 64
4, 21120, Note_on_c, 0, 57, 102
4, 21360, Note_off_c, 0, 57, 64
4, 21360, Note_on_c, 0, 50, 102
4, 21600, Note_off_c, 0, 50, 64
4, 21600, Note_on_c, 0, 52, 102
4, 21840, Note_off_c, 0, 52, 64
4, 21840, Note_on_c, 0, 40, 102
4, 22080, Note_off_c, 0, 40, 64
4, 22080, Note_on_c, 0, 45, 102
4, 22320, Note_off_c, 0, 45, 64
4, 22320, Note_on_c, 0, 47, 102
4, 22560, Note_off_c, 0, 47, 64
4, 22560, Note_on_c, 0, 48, 102
4, 22800, Note_off_c, 0, 48, 64
4, 22800, Note_on_c, 0, 45, 102
4, 23040, Note_off_c, 0, 45, 64
4, 23040, Note_on_c, 0, 50, 102
4, 23280, Note_off_c, 0, 50, 64
4, 23280, Note_on_c, 0, 52, 102
4, 23520, Note_off_c, 0, 52, 64
4, 23520, Note_on_c, 0, 53, 102
4, 23760, Note_off_c, 0, 53, 64
4, 23760, Note_on_c, 0, 50, 102
4, 24000, Note_off_c, 0, 50, 64
4, 24000, Note_on_c, 0, 43, 102
4, 24240, Note_off_c, 0, 43, 64
4, 24240, Note_on_c, 0, 45, 102
4, 24480, Note_off_c, 0, 45, 64
4, 24480, Note_on_c, 0, 46, 102
4, 24720, Note_off_c, 0, 46, 64
4, 24720, Note_on_c, 0, 43, 102
4, 24960, Note_off_c, 0, 43, 64
4, 24960, Note_on_c, 0, 48, 102
4, 25200, Note_off_c, 0, 48, 64
4, 25200, Note_on_c, 0, 50, 102
4, 25440, Note_off_c, 0, 50, 64
4, 25440, Note_on_c, 0, 52, 102
4, 25680, Note_off_c, 0, 52, 64
4, 25680, Note_on_c, 0, 48, 102
4, 25920, Note_off_c, 0, 48, 64
4, 25920, Note_on_c, 0, 41, 102
4, 26160, Note_off_c, 0, 41, 64
4, 26160, Note_on_c, 0, 53, 102
4, 26400, Note_off_c, 0, 53, 64
4, 26400, Note_on_c, 0, 55, 102
4, 26640, Note_off_c, 0, 55, 64
4, 26640, Note_on_c, 0, 57, 102
4, 26880, Note_off_c, 0, 57, 64
4, 26880, Note_on_c, 0, 58, 102
4, 27120, Note_off_c, 0, 58, 64
4, 27360, Note_on_c, 0, 57, 102
4, 27600, Note_off_c, 0, 57, 64
4, 27840, Note_on_c, 0, 55, 102
4, 28080, Note_off_c, 0, 55, 64
4, 28320, Note_on_c, 0, 53, 102
4, 28560, Note_off_c, 0, 53, 64
4, 28800, Note_on_c, 0, 52, 102
4, 29040, Note_off_c, 0, 52, 64
4, 29280, Note_on_c, 0, 50, 102
4, 29520, Note_off_c, 0, 50, 64
4, 29760, Note_on_c, 0, 49, 102
4, 30000, Note_off_c, 0, 49, 64
4, 30240, Note_on_c, 0, 45, 102
4, 30480, Note_off_c, 0, 45, 64
4, 30720, Note_on_c, 0, 50, 102
4, 30960, Note_off_c, 0, 50, 64
4, 30960, Note_on_c, 0, 55, 102
4, 31200, Note_off_c, 0, 55, 64
4, 31200, Note_on_c, 0, 53, 102
4, 31440, Note_off_c, 0, 53, 64
4, 31440, Note_on_c, 0, 52, 102
4, 31680, Note_off_c, 0, 52, 64
4, 31680, Note_on_c, 0, 50, 102
4, 31920, Note_off_c, 0, 50, 64
4, 31920, Note_on_c, 0, 46, 102
4, 32160, Note_off_c, 0, 46, 64
4, 32160, Note_on_c, 0, 45, 102
4, 32400, Note_off_c, 0, 45, 64
4, 32400, Note_on_c, 0, 43, 102
4, 32640, Note_off_c, 0, 43, 64
4, 32640, Note_on_c, 0, 41, 102
4, 32880, Note_off_c, 0, 41, 64
4, 33120, Note_on_c, 0, 46, 102
4, 33360, Note_off_c, 0, 46, 64
4, 33600, Note_on_c, 0, 45, 102
4, 33840, Note_off_c, 0, 45, 64
4, 34560, Note_on_c, 0, 38, 102
4, 34800, Note_off_c, 0, 38, 64
4, 35040, Note_on_c, 0, 50, 102
4, 35280, Note_off_c, 0, 50, 64
4, 35520, Note_on_c, 0, 43, 102
4, 35760, Note_off_c, 0, 43, 64
4, 36480, Note_on_c, 0, 36, 102
4, 36720, Note_off_c, 0, 36, 64
4, 36960, Note_on_c, 0, 48, 102
4, 37200, Note_off_c, 0, 48, 64
4, 37440, Note_on_c, 0, 41, 102
4, 37680, Note_off_c, 0, 41, 64
4, 37680, Note_on_c, 0, 40, 102
4, 37920, Note_off_c, 0, 40, 64
4, 37920, Note_on_c, 0, 42, 102
4, 38160, Note_off_c, 0, 42, 64
4, 38160, Note_on_c, 0, 38, 102
4, 38400, Note_off_c, 0, 38, 64
4, 38400, Note_on_c, 0, 43, 102
4, 38640, Note_off_c, 0, 43, 64
4, 38640, Note_on_c, 0, 42, 102
4, 38880, Note_off_c, 0, 42, 64
4, 38880, Note_on_c, 0, 44, 102
4, 39120, Note_off_c, 0, 44, 64
4, 39120, Note_on_c, 0, 40, 102
4, 39360, Note_off_c, 0, 40, 64
4, 39360, Note_on_c, 0, 45, 102
4, 39600, Note_off_c, 0, 45, 64
4, 39600, Note_on_c, 0, 43, 102
4, 39840, Note_off_c, 0, 43, 64
4, 39840, Note_on_c, 0, 45, 102
4, 40080, Note_off_c, 0, 45, 64
4, 40080, Note_on_c, 0, 41, 102
4, 40320, Note_off_c, 0, 41, 64
4, 40320, Note_on_c, 0, 46, 102
4, 40560, Note_off_c, 0, 46, 64
4, 40560, Note_on_c, 0, 45, 102
4, 40800, Note_off_c, 0, 45, 64
4, 40800, Note_on_c, 0, 47, 102
4, 41040, Note_off_c, 0, 47, 64
4, 41040, Note_on_c, 0, 43, 102
4, 41280, Note_off_c, 0, 43, 64
4, 41280, Note_on_c, 0, 48, 102
4, 41520, Note_off_c, 0, 48, 64
4, 41520, Note_on_c, 0, 47, 102
4, 41760, Note_off_c, 0, 47, 64
4, 41760, Note_on_c, 0, 49, 102
4, 42000, Note_off_c, 0, 49, 64
4, 42000, Note_on_c, 0, 45, 102
4, 42240, Note_off_c, 0, 45, 64
4, 42240, Note_on_c, 0, 50, 102
4, 42360, Note_off_c, 0, 50, 64
4, 42360, Note_on_c, 0, 49, 102
4, 42480, Note_off_c, 0, 49, 64
4, 42480, Note_on_c, 0, 50, 102
4, 42840, Note_off_c, 0, 50, 64
4, 42840, Note_on_c, 0, 49, 102
4, 42960, Note_off_c, 0, 49, 64
4, 42960, Note_on_c, 0, 50, 102
4, 43320, Note_off_c, 0, 50, 64
4, 43320, Note_on_c, 0, 49, 102
4, 43440, Note_off_c, 0, 49, 64
4, 43440, Note_on_c, 0, 50, 102
4, 43560, Note_off_c, 0, 50, 64
4, 43560, Note_on_c, 0, 49, 102
4, 43680, Note_off_c, 0, 49, 64
4, 43680, Note_on_c, 0, 50, 102
4, 43800, Note_off_c, 0, 50, 64
4, 43800, Note_on_c, 0, 49, 102
4, 43920, Note_off_c, 0, 49, 64
4, 43920, Note_on_c, 0, 50, 102
4, 44040, Note_off_c, 0, 50, 64
4, 44040, Note_on_c, 0, 49, 102
4, 44160, Note_off_c, 0, 49, 64
4, 44160, Note_on_c, 0, 50, 102
4, 44400, Note_off_c, 0, 50, 64
4, 44400, Note_on_c, 0, 43, 102
4, 44640, Note_off_c, 0, 43, 64
4, 44640, Note_on_c, 0, 45, 102
4, 44880, Note_off_c, 0, 45, 64
4, 44880, Note_on_c, 0, 45, 102
4, 45120, Note_off_c, 0, 45, 64
4, 45120, Note_on_c, 0, 38, 102
4, 45600, Note_off_c, 0, 38, 64
4, 45840, Note_on_c, 0, 50, 102
4, 46080, Note_off_c, 0, 50, 64
4, 46080, Note_on_c, 0, 45, 102
4, 46320, Note_off_c, 0, 45, 64
4, 46320, Note_on_c, 0, 43, 102
4, 46560, Note_off_c, 0, 43, 64
4, 46560, Note_on_c, 0, 45, 102
4, 46800, Note_off_c, 0, 45, 64
4, 46800, Note_on_c, 0, 46, 102
4, 47040, Note_off_c, 0, 46, 64
4, 47040, Note_on_c, 0, 45, 102
4, 47280, Note_off_c, 0, 45, 64
4, 47280, Note_on_c, 0, 43, 102
4, 47520, Note_off_c, 0, 43, 64
4, 47520, Note_on_c, 0, 45, 102
4, 47760, Note_off_c, 0, 45, 64
4, 47760, Note_on_c, 0, 41, 102
4, 48000, Note_off_c, 0, 41, 64
4, 48000, Note_on_c, 0, 48, 102
4, 48120, Note_off_c, 0, 48, 64
4, 48120, Note_on_c, 0, 47, 102
4, 48240, Note_off_c, 0, 47, 64
4, 48240, Note_on_c, 0, 48, 102
4, 48600, Note_off_c, 0, 48, 64
4, 48600, Note_on_c, 0, 47, 102
4, 48720, Note_off_c, 0, 47, 64
4, 48720, Note_on_c, 0, 48, 102
4, 49080, Note_off_c, 0, 48, 64
4, 49080, Note_on_c, 0, 47, 102
4, 49200, Note_off_c, 0, 47, 64
4, 49200, Note_on_c, 0, 48, 102
4, 49320, Note_off_c, 0, 48, 64
4, 49320, Note_on_c, 0, 47, 102
4, 49440, Note_off_c, 0, 47, 64
4, 49440, Note_on_c, 0, 48, 102
4, 49680, Note_off_c, 0, 48, 64
4, 49680, Note_on_c, 0, 60, 102
4, 49920, Note_off_c, 0, 60, 64
4, 49920, Note_on_c, 0, 58, 102
4, 50160, Note_off_c, 0, 58, 64
4, 50160, Note_on_c, 0, 57, 102
4, 50400, Note_off_c, 0, 57, 64
4, 50400, Note_on_c, 0, 58, 102
4, 50640, Note_off_c, 0, 58, 64
4, 50640, Note_on_c, 0, 60, 102
4, 50880, Note_off_c, 0, 60, 64
4, 50880, Note_on_c, 0, 58, 102
4, 51120, Note_off_c, 0, 58, 64
4, 51120, Note_on_c, 0, 57, 102
4, 51360, Note_off_c, 0, 57, 64
4, 51360, Note_on_c, 0, 58, 102
4, 51600, Note_off_c, 0, 58, 64
4, 51600, Note_on_c, 0, 55, 102
4, 51840, Note_off_c, 0, 55, 64
4, 51840, Note_on_c, 0, 62, 102
4, 51960, Note_off_c, 0, 62, 64
4, 51960, Note_on_c, 0, 61, 102
4, 52080, Note_off_c, 0, 61, 64
4, 52080, Note_on_c, 0, 62, 102
4, 52440, Note_off_c, 0, 62, 64
4, 52440, Note_on_c, 0, 61, 102
4, 52560, Note_off_c, 0, 61, 64
4, 52560, Note_on_c, 0, 62, 102
4, 52920, Note_off_c, 0, 62, 64
4, 52920, Note_on_c, 0, 61, 102
4, 53040, Note_off_c, 0, 61, 64
4, 53040, Note_on_c, 0, 62, 102
4, 53160, Note_off_c, 0, 62, 64
4, 53160, Note_on_c, 0, 61, 102
4, 53280, Note_off_c, 0, 61, 64
4, 53280, Note_on_c, 0, 62, 102
4, 53520, Note_off_c, 0, 62, 64
4, 53520, Note_on_c, 0, 50, 102
4, 53760, Note_off_c, 0, 50, 64
4, 53760, Note_on_c, 0, 55, 102
4, 54000, Note_off_c, 0, 55, 64
4, 54240, Note_on_c, 0, 43, 102
4, 54480, Note_off_c, 0, 43, 64
4, 54720, Note_on_c, 0, 48, 102
4, 54960, Note_off_c, 0, 48, 64
4, 55680, Note_on_c, 0, 53, 102
4, 55920, Note_off_c, 0, 53, 64
4, 56160, Note_on_c, 0, 41, 102
4, 56400, Note_off_c, 0, 41, 64
4, 56640, Note_on_c, 0, 46, 102
4, 56880, Note_off_c, 0, 46, 64
4, 57600, Note_on_c, 0, 51, 102
4, 57840, Note_off_c, 0, 51, 64
4, 58080, Note_on_c, 0, 50, 102
4, 58320, Note_off_c, 0, 50, 64
4, 58560, Note_on_c, 0, 48, 102
4, 58800, Note_off_c, 0, 48, 64
4, 59040, Note_on_c, 0, 46, 102
4, 59280, Note_off_c, 0, 46, 64
4, 59520, Note_on_c, 0, 45, 102
4, 59760, Note_off_c, 0, 45, 64
4, 60000, Note_on_c, 0, 43, 102
4, 60240, Note_off_c, 0, 43, 64
4, 60480, Note_on_c, 0, 42, 102
4, 60720, Note_off_c, 0, 42, 64
4, 60960, Note_on_c, 0, 38, 102
4, 61200, Note_off_c, 0, 38, 64
4, 61440, Note_on_c, 0, 55, 102
4, 61560, Note_off_c, 0, 55, 64
4, 61560, Note_on_c, 0, 54, 102
4, 61680, Note_off_c, 0, 54, 64
4, 61680, Note_on_c, 0, 55, 102
4, 62040, Note_off_c, 0, 55, 64
4, 62040, Note_on_c, 0, 54, 102
4, 62160, Note_off_c, 0, 54, 64
4, 62160, Note_on_c, 0, 55, 102
4, 62520, Note_off_c, 0, 55, 64
4, 62520, Note_on_c, 0, 54, 102
4, 62640, Note_off_c, 0, 54, 64
4, 62640, Note_on_c, 0, 55, 102
4, 62760, Note_off_c, 0, 55, 64
4, 62760, Note_on_c, 0, 54, 102
4, 62880, Note_off_c, 0, 54, 64
4, 62880, Note_on_c, 0, 55, 102
4, 63000, Note_off_c, 0, 55, 64
4, 63000, Note_on_c, 0, 54, 102
4, 63120, Note_off_c, 0, 54, 64
4, 63120, Note_on_c, 0, 55, 102
4, 63240, Note_off_c, 0, 55, 64
4, 63240, Note_on_c, 0, 54, 102
4, 63360, Note_off_c, 0, 54, 64
4, 63360, Note_on_c, 0, 55, 102
4, 63600, Note_off_c, 0, 55, 64
4, 63600, Note_on_c, 0, 48, 102
4, 63840, Note_off_c, 0, 48, 64
4, 63840, Note_on_c, 0, 50, 102
4, 64080, Note_off_c, 0, 50, 64
4, 64080, Note_on_c, 0, 38, 102
4, 64320, Note_off_c, 0, 38, 64
4, 64320, Note_on_c, 0, 43, 102
4, 64560, Note_off_c, 0, 43, 64
4, 64560, Note_on_c, 0, 45, 102
4, 64800, Note_off_c, 0, 45, 64
4, 64800, Note_on_c, 0, 46, 102
4, 65040, Note_off_c, 0, 46, 64
4, 65040, Note_on_c, 0, 45, 102
4, 65280, Note_off_c, 0, 45, 64
4, 65280, Note_on_c, 0, 43, 102
4, 65520, Note_off_c, 0, 43, 64
4, 65520, Note_on_c, 0, 45, 102
4, 65760, Note_off_c, 0, 45, 64
4, 65760, Note_on_c, 0, 46, 102
4, 66000, Note_off_c, 0, 46, 64
4, 66000, Note_on_c, 0, 43, 102
4, 66240, Note_off_c, 0, 43, 64
4, 66240, Note_on_c, 0, 48, 102
4, 66480, Note_off_c, 0, 48, 64
4, 66480, Note_on_c, 0, 50, 102
4, 66720, Note_off_c, 0, 50, 64
4, 66720, Note_on_c, 0, 51, 102
4, 66960, Note_off_c, 0, 51, 64
4, 66960, Note_on_c, 0, 48, 102
4, 67200, Note_off_c, 0, 48, 64
4, 67200, Note_on_c, 0, 41, 102
4, 67440, Note_off_c, 0, 41, 64
4, 67440, Note_on_c, 0, 43, 102
4, 67680, Note_off_c, 0, 43, 64
4, 67680, Note_on_c, 0, 45, 102
4, 67920, Note_off_c, 0, 45, 64
4, 67920, Note_on_c, 0, 41, 102
4, 68160, Note_off_c, 0, 41, 64
4, 68160, Note_on_c, 0, 46, 102
4, 68400, Note_off_c, 0, 46, 64
4, 68400, Note_on_c, 0, 48, 102
4, 68640, Note_off_c, 0, 48, 64
4, 68640, Note_on_c, 0, 50, 102
4, 68880, Note_off_c, 0, 50, 64
4, 68880, Note_on_c, 0, 46, 102
4, 69120, Note_off_c, 0, 46, 64
4, 69120, Note_on_c, 0, 51, 102
4, 69360, Note_off_c, 0, 51, 64
4, 69360, Note_on_c, 0, 50, 102
4, 69600, Note_off_c, 0, 50, 64
4, 69600, Note_on_c, 0, 52, 102
4, 69840, Note_off_c, 0, 52, 64
4, 69840, Note_on_c, 0, 48, 102
4, 70080, Note_off_c, 0, 48, 64
4, 70080, Note_on_c, 0, 53, 102
4, 70320, Note_off_c, 0, 53, 64
4, 70320, Note_on_c, 0, 52, 102
4, 70560, Note_off_c, 0, 52, 64
4, 70560, Note_on_c, 0, 54, 102
4, 70800, Note_off_c, 0, 54, 64
4, 70800, Note_on_c, 0, 50, 102
4, 71040, Note_off_c, 0, 50, 64
4, 71040, Note_on_c, 0, 55, 102
4, 71280, Note_off_c, 0, 55, 64
4, 71280, Note_on_c, 0, 53, 102
4, 71520, Note_off_c, 0, 53, 64
4, 71520, Note_on_c, 0, 55, 102
4, 71760, Note_off_c, 0, 55, 64
4, 71760, Note_on_c, 0, 51, 102
4, 72000, Note_off_c, 0, 51, 64
4, 72000, Note_on_c, 0, 57, 102
4, 72240, Note_off_c, 0, 57, 64
4, 72240, Note_on_c, 0, 55, 102
4, 72480, Note_off_c, 0, 55, 64
4, 72480, Note_on_c, 0, 57, 102
4, 72720, Note_off_c, 0, 57, 64
4, 72720, Note_on_c, 0, 53, 102
4, 72960, Note_off_c, 0, 53, 64
4, 72960, Note_on_c, 0, 50, 102
4, 73200, Note_off_c, 0, 50, 64
4, 73200, Note_on_c, 0, 48, 102
4, 73440, Note_off_c, 0, 48, 64
4, 73440, Note_on_c, 0, 50, 102
4, 73680, Note_off_c, 0, 50, 64
4, 73680, Note_on_c, 0, 51, 102
4, 73920, Note_off_c, 0, 51, 64
4, 73920, Note_on_c, 0, 50, 102
4, 74160, Note_off_c, 0, 50, 64
4, 74160, Note_on_c, 0, 48, 102
4, 74400, Note_off_c, 0, 48, 64
4, 74400, Note_on_c, 0, 50, 102
4, 74640, Note_off_c, 0, 50, 64
4, 74640, Note_on_c, 0, 46, 102
4, 74880, Note_off_c, 0, 46, 64
4, 74880, Note_on_c, 0, 53, 102
4, 75000, Note_off_c, 0, 53, 64
4, 75000, Note_on_c, 0, 52, 102
4, 75120, Note_off_c, 0, 52, 64
4, 75120, Note_on_c, 0, 53, 102
4, 75480, Note_off_c, 0, 53, 64
4, 75480, Note_on_c, 0, 52, 102
4, 75600, Note_off_c, 0, 52, 64
4, 75600, Note_on_c, 0, 53, 102
4, 75960, Note_off_c, 0, 53, 64
4, 75960, Note_on_c, 0, 52, 102
4, 76080, Note_off_c, 0, 52, 64
4, 76080, Note_on_c, 0, 53, 102
4, 76200, Note_off_c, 0, 53, 64
4, 76200, Note_on_c, 0, 52, 102
4, 76320, Note_off_c, 0, 52, 64
4, 76320, Note_on_c, 0, 53, 102
4, 76560, Note_off_c, 0, 53, 64
4, 76560, Note_on_c, 0, 50, 102
4, 76800, Note_off_c, 0, 50, 64
4, 76800, Note_on_c, 0, 51, 102
4, 77040, Note_off_c, 0, 51, 64
4, 77040, Note_on_c, 0, 50, 102
4, 77280, Note_off_c, 0, 50, 64
4, 77280, Note_on_c, 0, 51, 102
4, 77520, Note_off_c, 0, 51, 64
4, 77520, Note_on_c, 0, 53, 102
4, 77760, Note_off_c, 0, 53, 64
4, 77760, Note_on_c, 0, 51, 102
4, 78000, Note_off_c, 0, 51, 64
4, 78000, Note_on_c, 0, 50, 102
4, 78240, Note_off_c, 0, 50, 64
4, 78240, Note_on_c, 0, 51, 102
4, 78480, Note_off_c, 0, 51, 64
4, 78480, Note_on_c, 0, 48, 102
4, 78720, Note_off_c, 0, 48, 64
4, 78720, Note_on_c, 0, 55, 102
4, 78840, Note_off_c, 0, 55, 64
4, 78840, Note_on_c, 0, 54, 102
4, 78960, Note_off_c, 0, 54, 64
4, 78960, Note_on_c, 0, 55, 102
4, 79320, Note_off_c, 0, 55, 64
4, 79320, Note_on_c, 0, 54, 102
4, 79440, Note_off_c, 0, 54, 64
4, 79440, Note_on_c, 0, 55, 102
4, 79800, Note_off_c, 0, 55, 64
4, 79800, Note_on_c, 0, 54, 102
4, 79920, Note_off_c, 0, 54, 64
4, 79920, Note_on_c, 0, 55, 102
4, 80040, Note_off_c, 0, 55, 64
4, 80040, Note_on_c, 0, 54, 102
4, 80160, Note_off_c, 0, 54, 64
4, 80160, Note_on_c, 0, 55, 102
4, 80400, Note_off_c, 0, 55, 64
4, 80400, Note_on_c, 0, 43, 102
4, 80640, Note_off_c, 0, 43, 64
4, 80640, Note_on_c, 0, 48, 102
4, 80880, Note_off_c, 0, 48, 64
4, 81120, Note_on_c, 0, 60, 102
4, 81360, Note_off_c, 0, 60, 64
4, 81600, Note_on_c, 0, 53, 102
4, 81840, Note_off_c, 0, 53, 64
4, 82560, Note_on_c, 0, 46, 102
4, 82800, Note_off_c, 0, 46, 64
4, 83040, Note_on_c, 0, 58, 102
4, 83280, Note_off_c, 0, 58, 64
4, 83520, Note_on_c, 0, 52, 102
4, 83760, Note_off_c, 0, 52, 64
4, 84480, Note_on_c, 0, 45, 102
4, 87600, Note_off_c, 0, 45, 64
4, 87600, Note_on_c, 0, 43, 102
4, 87840, Note_off_c, 0, 43, 64
4, 87840, Note_on_c, 0, 41, 102
4, 88080, Note_off_c, 0, 41, 64
4, 88080, Note_on_c, 0, 40, 102
4, 88320, Note_off_c, 0, 40, 64
4, 88320, Note_on_c, 0, 38, 102
4, 88560, Note_off_c, 0, 38, 64
4, 88800, Note_on_c, 0, 50, 102
4, 89040, Note_off_c, 0, 50, 64
4, 89280, Note_on_c, 0, 43, 102
4, 89520, Note_off_c, 0, 43, 64
4, 89760, Note_on_c, 0, 47, 102
4, 90000, Note_off_c, 0, 47, 64
4, 90240, Note_on_c, 0, 36, 102
4, 90480, Note_off_c, 0, 36, 64
4, 90720, Note_on_c, 0, 48, 102
4, 90960, Note_off_c, 0, 48, 64
4, 91200, Note_on_c, 0, 41, 102
4, 91440, Note_off_c, 0, 41, 64
4, 91680, Note_on_c, 0, 45, 102
4, 91920, Note_off_c, 0, 45, 64
4, 92160, Note_on_c, 0, 46, 102
4, 92400, Note_off_c, 0, 46, 64
4, 92400, Note_on_c, 0, 45, 102
4, 92640, Note_off_c, 0, 45, 64
4, 92640, Note_on_c, 0, 47, 102
4, 92880, Note_off_c, 0, 47, 64
4, 92880, Note_on_c, 0, 43, 102
4, 93120, Note_off_c, 0, 43, 64
4, 93120, Note_on_c, 0, 48, 102
4, 93360, Note_off_c, 0, 48, 64
4, 93360, Note_on_c, 0, 47, 102
4, 93600, Note_off_c, 0, 47, 64
4, 93600, Note_on_c, 0, 49, 102
4, 93840, Note_off_c, 0, 49, 64
4, 93840, Note_on_c, 0, 45, 102
4, 94080, Note_off_c, 0, 45, 64
4, 94080, Note_on_c, 0, 50, 102
4, 94320, Note_off_c, 0, 50, 64
4, 94320, Note_on_c, 0, 48, 102
4, 94560, Note_off_c, 0, 48, 64
4, 94560, Note_on_c, 0, 50, 102
4, 94800, Note_off_c, 0, 50, 64
4, 94800, Note_on_c, 0, 46, 102
4, 95040, Note_off_c, 0, 46, 64
4, 95040, Note_on_c, 0, 52, 102
4, 95280, Note_off_c, 0, 52, 64
4, 95280, Note_on_c, 0, 50, 102
4, 95520, Note_off_c, 0, 50, 64
4, 95520, Note_on_c, 0, 52, 102
4, 95760, Note_off_c, 0, 52, 64
4, 95760, Note_on_c, 0, 48, 102
4, 96000, Note_off_c, 0, 48, 64
4, 96000, Note_on_c, 0, 53, 102
4, 96120, Note_off_c, 0, 53, 64
4, 96120, Note_on_c, 0, 52, 102
4, 96240, Note_off_c, 0, 52, 64
4, 96240, Note_on_c, 0, 53, 102
4, 96600, Note_off_c, 0, 53, 64
4, 96600, Note_on_c, 0, 52, 102
4, 96720, Note_off_c, 0, 52, 64
4, 96720, Note_on_c, 0, 53, 102
4, 97080, Note_off_c, 0, 53, 64
4, 97080, Note_on_c, 0, 52, 102
4, 97200, Note_off_c, 0, 52, 64
4, 97200, Note_on_c, 0, 53, 102
4, 97320, Note_off_c, 0, 53, 64
4, 97320, Note_on_c, 0, 52, 102
4, 97440, Note_off_c, 0, 52, 64
4, 97440, Note_on_c, 0, 53, 102
4, 97560, Note_off_c, 0, 53, 64
4, 97560, Note_on_c, 0, 52, 102
4, 97680, Note_off_c, 0, 52, 64
4, 97680, Note_on_c, 0, 53, 102
4, 97800, Note_off_c, 0, 53, 64
4, 97800, Note_on_c, 0, 52, 102
4, 97920, Note_off_c, 0, 52, 64
4, 97920, Note_on_c, 0, 53, 102
4, 98160, Note_off_c, 0, 53, 64
4, 98160, Note_on_c, 0, 46, 102
4, 98400, Note_off_c, 0, 46, 64
4, 98400, Note_on_c, 0, 48, 102
4, 98640, Note_off_c, 0, 48, 64
4, 98640, Note_on_c, 0, 36, 102
4, 98880, Note_off_c, 0, 36, 64
4, 98880, Note_on_c, 0, 41, 102
4, 99120, Note_off_c, 0, 41, 64
4, 99120, Note_on_c, 0, 43, 102
4, 99360, Note_off_c, 0, 43, 64
4, 99360, Note_on_c, 0, 45, 102
4, 99600, Note_off_c, 0, 45, 64
4, 99600, Note_on_c, 0, 41, 102
4, 99840, Note_off_c, 0, 41, 64
4, 99840, Note_on_c, 0, 46, 102
4, 100080, Note_off_c, 0, 46, 64
4, 100080, Note_on_c, 0, 48, 102
4, 100320, Note_off_c, 0, 48, 64
4, 100320, Note_on_c, 0, 50, 102
4, 100560, Note_off_c, 0, 50, 64
4, 100560, Note_on_c, 0, 48, 102
4, 100800, Note_off_c, 0, 48, 64
4, 100800, Note_on_c, 0, 47, 102
4, 101040, Note_off_c, 0, 47, 64
4, 101040, Note_on_c, 0, 45, 102
4, 101280, Note_off_c, 0, 45, 64
4, 101280, Note_on_c, 0, 47, 102
4, 101520, Note_off_c, 0, 47, 64
4, 101520, Note_on_c, 0, 43, 102
4, 101760, Note_off_c, 0, 43, 64
4, 101760, Note_on_c, 0, 48, 102
4, 102000, Note_off_c, 0, 48, 64
4, 102000, Note_on_c, 0, 50, 102
4, 102240, Note_off_c, 0, 50, 64
4, 102240, Note_on_c, 0, 52, 102
4, 102480, Note_off_c, 0, 52, 64
4, 102480, Note_on_c, 0, 50, 102
4, 102720, Note_off_c, 0, 50, 64
4, 102720, Note_on_c, 0, 49, 102
4, 102960, Note_off_c, 0, 49, 64
4, 102960, Note_on_c, 0, 47, 102
4, 103200, Note_off_c, 0, 47, 64
4, 103200, Note_on_c, 0, 49, 102
4, 103440, Note_off_c, 0, 49, 64
4, 103440, Note_on_c, 0, 45, 102
4, 103680, Note_off_c, 0, 45, 64
4, 103680, Note_on_c, 0, 50, 102
4, 103800, Note_off_c, 0, 50, 64
4, 103800, Note_on_c, 0, 49, 102
4, 103920, Note_off_c, 0, 49, 64
4, 103920, Note_on_c, 0, 50, 102
4, 104280, Note_off_c, 0, 50, 64
4, 104280, Note_on_c, 0, 48, 102
4, 104400, Note_off_c, 0, 48, 64
4, 104400, Note_on_c, 0, 50, 102
4, 104520, Note_off_c, 0, 50, 64
4, 104520, Note_on_c, 0, 46, 102
4, 104640, Note_off_c, 0, 46, 64
4, 104640, Note_on_c, 0, 48, 102
4, 104760, Note_off_c, 0, 48, 64
4, 104760, Note_on_c, 0, 46, 102
4, 104880, Note_off_c, 0, 46, 64
4, 104880, Note_on_c, 0, 48, 102
4, 105240, Note_off_c, 0, 48, 64
4, 105240, Note_on_c, 0, 46, 102
4, 105360, Note_off_c, 0, 46, 64
4, 105360, Note_on_c, 0, 48, 102
4, 105480, Note_off_c, 0, 48, 64
4, 105480, Note_on_c, 0, 45, 102
4, 105600, Note_off_c, 0, 45, 64
4, 105600, Note_on_c, 0, 48, 102
4, 105720, Note_off_c, 0, 48, 64
4, 105720, Note_on_c, 0, 46, 102
4, 105780, Note_off_c, 0, 46, 64
4, 105780, Note_on_c, 0, 48, 102
4, 105840, Note_off_c, 0, 48, 64
4, 105840, Note_on_c, 0, 46, 102
4, 105900, Note_off_c, 0, 46, 64
4, 105900, Note_on_c, 0, 48, 102
4, 105960, Note_off_c, 0, 48, 64
4, 105960, Note_on_c, 0, 46, 102
4, 106020, Note_off_c, 0, 46, 64
4, 106020, Note_on_c, 0, 48, 102
4, 106080, Note_off_c, 0, 48, 64
4, 106080, Note_on_c, 0, 46, 102
4, 106140, Note_off_c, 0, 46, 64
4, 106140, Note_on_c, 0, 48, 102
4, 106200, Note_off_c, 0, 48, 64
4, 106200, Note_on_c, 0, 46, 102
4, 106260, Note_off_c, 0, 46, 64
4, 106260, Note_on_c, 0, 48, 102
4, 106320, Note_off_c, 0, 48, 64
4, 106320, Note_on_c, 0, 46, 102
4, 106380, Note_off_c, 0, 46, 64
4, 106380, Note_on_c, 0, 48, 102
4, 106440, Note_off_c, 0, 48, 64
4, 106440, Note_on_c, 0, 46, 102
4, 106560, Note_off_c, 0, 46, 64
4, 106560, Note_on_c, 0, 45, 102
4, 106680, Note_off_c, 0, 45, 64
4, 106680, Note_on_c, 0, 57, 102
4, 106800, Note_off_c, 0, 57, 64
4, 106800, Note_on_c, 0, 55, 102
4, 106920, Note_off_c, 0, 55, 64
4, 106920, Note_on_c, 0, 57, 102
4, 107040, Note_off_c, 0, 57, 64
4, 107040, Note_on_c, 0, 53, 102
4, 107160, Note_off_c, 0, 53, 64
4, 107160, Note_on_c, 0, 55, 102
4, 107280, Note_off_c, 0, 55, 64
4, 107280, Note_on_c, 0, 52, 102
4, 107400, Note_off_c, 0, 52, 64
4, 107400, Note_on_c, 0, 53, 102
4, 107520, Note_off_c, 0, 53, 64
4, 107520, Note_on_c, 0, 50, 102
4, 107760, Note_off_c, 0, 50, 64
4, 108000, Note_on_c, 0, 52, 102
4, 108240, Note_off_c, 0, 52, 64
4, 108480, Note_on_c, 0, 53, 102
4, 108720, Note_off_c, 0, 53, 64
4, 109440, Note_on_c, 0, 41, 102
4, 109680, Note_off_c, 0, 41, 64
4, 109920, Note_on_c, 0, 43, 102
4, 110160, Note_off_c, 0, 43, 64
4, 110400, Note_on_c, 0, 45, 102
4, 110640, Note_off_c, 0, 45, 64
4, 110880, Note_on_c, 0, 49, 102
4, 111120, Note_off_c, 0, 49, 64
4, 111360, Note_on_c, 0, 50, 102
4, 111600, Note_off_c, 0, 50, 64
4, 111840, Note_on_c, 0, 38, 102
4, 112080, Note_off_c, 0, 38, 64
4, 112320, Note_on_c, 0, 43, 102
4, 112560, Note_off_c, 0, 43, 64
4, 112800, Note_on_c, 0, 47, 102
4, 113040, Note_off_c, 0, 47, 64
4, 113280, Note_on_c, 0, 48, 102
4, 113520, Note_off_c, 0, 48, 64
4, 113760, Note_on_c, 0, 36, 102
4, 114000, Note_off_c, 0, 36, 64
4, 114240, Note_on_c, 0, 41, 102
4, 114480, Note_off_c, 0, 41, 64
4, 114480, Note_on_c, 0, 53, 102
4, 114720, Note_off_c, 0, 53, 64
4, 114720, Note_on_c, 0, 52, 102
4, 114960, Note_off_c, 0, 52, 64
4, 114960, Note_on_c, 0, 50, 102
4, 115200, Note_off_c, 0, 50, 64
4, 115200, Note_on_c, 0, 57, 102
4, 115440, Note_off_c, 0, 57, 64
4, 115440, Note_on_c, 0, 62, 102
4, 115680, Note_off_c, 0, 62, 64
4, 115680, Note_on_c, 0, 60, 102
4, 115920, Note_off_c, 0, 60, 64
4, 115920, Note_on_c, 0, 59, 102
4, 116160, Note_off_c, 0, 59, 64
4, 116160, Note_on_c, 0, 57, 102
4, 116400, Note_off_c, 0, 57, 64
4, 116400, Note_on_c, 0, 53, 102
4, 116640, Note_off_c, 0, 53, 64
4, 116640, Note_on_c, 0, 52, 102
4, 116880, Note_off_c, 0, 52, 64
4, 116880, Note_on_c, 0, 50, 102
4, 117120, Note_off_c, 0, 50, 64
4, 117120, Note_on_c, 0, 48, 102
4, 117360, Note_off_c, 0, 48, 64
4, 117600, Note_on_c, 0, 41, 102
4, 117840, Note_off_c, 0, 41, 64
4, 118080, Note_on_c, 0, 40, 102
4, 118320, Note_off_c, 0, 40, 64
4, 119040, Note_on_c, 0, 45, 102
4, 119280, Note_off_c, 0, 45, 64
4, 119520, Note_on_c, 0, 57, 102
4, 119760, Note_off_c, 0, 57, 64
4, 120000, Note_on_c, 0, 50, 102
4, 120240, Note_off_c, 0, 50, 64
4, 120960, Note_on_c, 0, 43, 102
4, 121200, Note_off_c, 0, 43, 64
4, 121440, Note_on_c, 0, 55, 102
4, 121680, Note_off_c, 0, 55, 64
4, 121920, Note_on_c, 0, 48, 102
4, 122160, Note_off_c, 0, 48, 64
4, 122160, Note_on_c, 0, 47, 102
4, 122400, Note_off_c, 0, 47, 64
4, 122400, Note_on_c, 0, 49, 102
4, 122640, Note_off_c, 0, 49, 64
4, 122640, Note_on_c, 0, 45, 102
4, 122880, Note_off_c, 0, 45, 64
4, 122880, Note_on_c, 0, 50, 102
4, 123120, Note_off_c, 0, 50, 64
4, 123120, Note_on_c, 0, 49, 102
4, 123360, Note_off_c, 0, 49, 64
4, 123360, Note_on_c, 0, 51, 102
4, 123600, Note_off_c, 0, 51, 64
4, 123600, Note_on_c, 0, 47, 102
4, 123840, Note_off_c, 0, 47, 64
4, 123840, Note_on_c, 0, 52, 102
4, 124080, Note_off_c, 0, 52, 64
4, 124080, Note_on_c, 0, 50, 102
4, 124320, Note_off_c, 0, 50, 64
4, 124320, Note_on_c, 0, 52, 102
4, 124560, Note_off_c, 0, 52, 64
4, 124560, Note_on_c, 0, 48, 102
4, 124800, Note_off_c, 0, 48, 64
4, 124800, Note_on_c, 0, 53, 102
4, 125040, Note_off_c, 0, 53, 64
4, 125040, Note_on_c, 0, 52, 102
4, 125280, Note_off_c, 0, 52, 64
4, 125280, Note_on_c, 0, 54, 102
4, 125520, Note_off_c, 0, 54, 64
4, 125520, Note_on_c, 0, 50, 102
4, 125760, Note_off_c, 0, 50, 64
4, 125760, Note_on_c, 0, 55, 102
4, 126000, Note_off_c, 0, 55, 64
4, 126000, Note_on_c, 0, 54, 102
4, 126240, Note_off_c, 0, 54, 64
4, 126240, Note_on_c, 0, 56, 102
4, 126480, Note_off_c, 0, 56, 64
4, 126480, Note_on_c, 0, 52, 102
4, 126720, Note_off_c, 0, 52, 64
4, 126720, Note_on_c, 0, 57, 102
4, 126840, Note_off_c, 0, 57, 64
4, 126840, Note_on_c, 0, 56, 102
4, 126960, Note_off_c, 0, 56, 64
4, 126960, Note_on_c, 0, 57, 102
4, 127320, Note_off_c, 0, 57, 64
4, 127320, Note_on_c, 0, 56, 102
4, 127440, Note_off_c, 0, 56, 64
4, 127440, Note_on_c, 0, 57, 102
4, 127800, Note_off_c, 0, 57, 64
4, 127800, Note_on_c, 0, 56, 102
4, 127920, Note_off_c, 0, 56, 64
4, 127920, Note_on_c, 0, 57, 102
4, 128040, Note_off_c, 0, 57, 64
4, 128040, Note_on_c, 0, 56, 102
4, 128160, Note_off_c, 0, 56, 64
4, 128160, Note_on_c, 0, 57, 102
4, 128280, Note_off_c, 0, 57, 64
4, 128280, Note_on_c, 0, 56, 102
4, 128400, Note_off_c, 0, 56, 64
4, 128400, Note_on_c, 0, 57, 102
4, 128520, Note_off_c, 0, 57, 64
4, 128520, Note_on_c, 0, 56, 102
4, 128640, Note_off_c, 0, 56, 64
4, 128640, Note_on_c, 0, 57, 102
4, 128880, Note_off_c, 0, 57, 64
4, 128880, Note_on_c, 0, 50, 102
4, 129120, Note_off_c, 0, 50, 64
4, 129120, Note_on_c, 0, 52, 102
4, 129360, Note_off_c, 0, 52, 64
4, 129360, Note_on_c, 0, 40, 102
4, 129600, Note_off_c, 0, 40, 64
4, 129600, Note_on_c, 0, 45, 102
4, 129840, Note_off_c, 0, 45, 64
4, 129840, Note_on_c, 0, 47, 102
4, 130080, Note_off_c, 0, 47, 64
4, 130080, Note_on_c, 0, 48, 102
4, 130320, Note_off_c, 0, 48, 64
4, 130320, Note_on_c, 0, 45, 102
4, 130560, Note_off_c, 0, 45, 64
4, 130560, Note_on_c, 0, 50, 102
4, 130800, Note_off_c, 0, 50, 64
4, 130800, Note_on_c, 0, 52, 102
4, 131040, Note_off_c, 0, 52, 64
4, 131040, Note_on_c, 0, 53, 102
4, 131280, Note_off_c, 0, 53, 64
4, 131280, Note_on_c, 0, 50, 102
4, 131520, Note_off_c, 0, 50, 64
4, 131520, Note_on_c, 0, 43, 102
4, 131760, Note_off_c, 0, 43, 64
4, 131760, Note_on_c, 0, 45, 102
4, 132000, Note_off_c, 0, 45, 64
4, 132000, Note_on_c, 0, 46, 102
4, 132240, Note_off_c, 0, 46, 64
4, 132240, Note_on_c, 0, 43, 102
4, 132480, Note_off_c, 0, 43, 64
4, 132480, Note_on_c, 0, 48, 102
4, 132720, Note_off_c, 0, 48, 64
4, 132720, Note_on_c, 0, 50, 102
4, 132960, Note_off_c, 0, 50, 64
4, 132960, Note_on_c, 0, 52, 102
4, 133200, Note_off_c, 0, 52, 64
4, 133200, Note_on_c, 0, 48, 102
4, 133440, Note_off_c, 0, 48, 64
4, 133440, Note_on_c, 0, 41, 102
4, 133680, Note_off_c, 0, 41, 64
4, 133680, Note_on_c, 0, 53, 102
4, 133920, Note_off_c, 0, 53, 64
4, 133920, Note_on_c, 0, 55, 102
4, 134160, Note_off_c, 0, 55, 64
4, 134160, Note_on_c, 0, 57, 102
4, 134400, Note_off_c, 0, 57, 64
4, 134400, Note_on_c, 0, 58, 102
4, 134640, Note_off_c, 0, 58, 64
4, 134880, Note_on_c, 0, 57, 102
4, 135120, Note_off_c, 0, 57, 64
4, 135360, Note_on_c, 0, 55, 102
4, 135600, Note_off_c, 0, 55, 64
4, 135840, Note_on_c, 0, 53, 102
4, 136080, Note_off_c, 0, 53, 64
4, 136320, Note_on_c, 0, 52, 102
4, 136560, Note_off_c, 0, 52, 64
4, 136800, Note_on_c, 0, 50, 102
4, 137040, Note_off_c, 0, 50, 64
4, 137280, Note_on_c, 0, 49, 102
4, 137520, Note_off_c, 0, 49, 64
4, 137760, Note_on_c, 0, 45, 102
4, 138000, Note_off_c, 0, 45, 64
4, 138240, Note_on_c, 0, 50, 102
4, 138480, Note_off_c, 0, 50, 64
4, 138480, Note_on_c, 0, 55, 102
4, 138720, Note_off_c, 0, 55, 64
4, 138720, Note_on_c, 0, 53, 102
4, 138960, Note_off_c, 0, 53, 64
4, 138960, Note_on_c, 0, 52, 102
4, 139200, Note_off_c, 0, 52, 64
4, 139200, Note_on_c, 0, 50, 102
4, 139440, Note_off_c, 0, 50, 64
4, 139440, Note_on_c, 0, 46, 102
4, 139680, Note_off_c, 0, 46, 64
4, 139680, Note_on_c, 0, 45, 102
4, 139920, Note_off_c, 0, 45, 64
4, 139920, Note_on_c, 0, 43, 102
4, 140160, Note_off_c, 0, 43, 64
4, 140160, Note_on_c, 0, 41, 102
4, 140400, Note_off_c, 0, 41, 64
4, 140640, Note_on_c, 0, 46, 102
4, 140880, Note_off_c, 0, 46, 64
4, 141120, Note_on_c, 0, 45, 102
4, 141360, Note_off_c, 0, 45, 64
4, 142080, Note_on_c, 0, 38, 102
4, 142320, Note_off_c, 0, 38, 64
4, 142560, Note_on_c, 0, 50, 102
4, 142800, Note_off_c, 0, 50, 64
4, 143040, Note_on_c, 0, 43, 102
4, 143280, Note_off_c, 0, 43, 64
4, 144000, Note_on_c, 0, 36, 102
4, 144240, Note_off_c, 0, 36, 64
4, 144480, Note_on_c, 0, 48, 102
4, 144720, Note_off_c, 0, 48, 64
4, 144960, Note_on_c, 0, 41, 102
4, 145200, Note_off_c, 0, 41, 64
4, 145200, Note_on_c, 0, 40, 102
4, 145440, Note_off_c, 0, 40, 64
4, 145440, Note_on_c, 0, 42, 102
4, 145680, Note_off_c, 0, 42, 64
4, 145680, Note_on_c, 0, 38, 102
4, 145920, Note_off_c, 0, 38, 64
4, 145920, Note_on_c, 0, 43, 102
4, 146160, Note_off_c, 0, 43, 64
4, 146160, Note_on_c, 0, 42, 102
4, 146400, Note_off_c, 0, 42, 64
4, 146400, Note_on_c, 0, 44, 102
4, 146640, Note_off_c, 0, 44, 64
4, 146640, Note_on_c, 0, 40, 102
4, 146880, Note_off_c, 0, 40, 64
4, 146880, Note_on_c, 0, 45, 102
4, 147120, Note_off_c, 0, 45, 64
4, 147120, Note_on_c, 0, 43, 102
4, 147360, Note_off_c, 0, 43, 64
4, 147360, Note_on_c, 0, 45, 102
4, 147600, Note_off_c, 0, 45, 64
4, 147600, Note_on_c, 0, 41, 102
4, 147840, Note_off_c, 0, 41, 64
4, 147840, Note_on_c, 0, 46, 102
4, 148080, Note_off_c, 0, 46, 64
4, 148080, Note_on_c, 0, 45, 102
4, 148320, Note_off_c, 0, 45, 64
4, 148320, Note_on_c, 0, 47, 102
4, 148560, Note_off_c, 0, 47, 64
4, 148560, Note_on_c, 0, 43, 102
4, 148800, Note_off_c, 0, 43, 64
4, 148800, Note_on_c, 0, 48, 102
4, 149040, Note_off_c, 0, 48, 64
4, 149040, Note_on_c, 0, 47, 102
4, 149280, Note_off_c, 0, 47, 64
4, 149280, Note_on_c, 0, 49, 102
4, 149520, Note_off_c, 0, 49, 64
4, 149520, Note_on_c, 0, 45, 102
4, 149760, Note_off_c, 0, 45, 64
4, 149760, Note_on_c, 0, 50, 102
4, 149880, Note_off_c, 0, 50, 64
4, 149880, Note_on_c, 0, 49, 102
4, 150000, Note_off_c, 0, 49, 64
4, 150000, Note_on_c, 0, 50, 102
4, 150360, Note_off_c, 0, 50, 64
4, 150360, Note_on_c, 0, 49, 102
4, 150480, Note_off_c, 0, 49, 64
4, 150480, Note_on_c, 0, 50, 102
4, 150840, Note_off_c, 0, 50, 64
4, 150840, Note_on_c, 0, 49, 102
4, 150960, Note_off_c, 0, 49, 64
4, 150960, Note_on_c, 0, 50, 102
4, 151080, Note_off_c, 0, 50, 64
4, 151080, Note_on_c, 0, 49, 102
4, 151200, Note_off_c, 0, 49, 64
4, 151200, Note_on_c, 0, 50, 102
4, 151320, Note_off_c, 0, 50, 64
4, 151320, Note_on_c, 0, 49, 102
4, 151440, Note_off_c, 0, 49, 64
4, 151440, Note_on_c, 0, 50, 102
4, 151560, Note_off_c, 0, 50, 64
4, 151560, Note_on_c, 0, 49, 102
4, 151680, Note_off_c, 0, 49, 64
4, 151680, Note_on_c, 0, 50, 102
4, 151920, Note_off_c, 0, 50, 64
4, 151920, Note_on_c, 0, 43, 102
4, 152160, Note_off_c, 0, 43, 64
4, 152160, Note_on_c, 0, 45, 102
4, 152400, Note_off_c, 0, 45, 64
4, 152400, Note_on_c, 0, 45, 102
4, 152640, Note_off_c, 0, 45, 64
4, 152640, Note_on_c, 0, 38, 102
4, 153120, Note_off_c, 0, 38, 64
4, 155042, Note_on_c, 0, 53, 102
4, 155282, Note_on_c, 0, 41, 102
4, 155285, Note_off_c, 0, 53, 64
4, 155522, Note_on_c, 0, 53, 102
4, 155525, Note_off_c, 0, 41, 64
4, 156002, Note_on_c, 0, 41, 102
4, 156005, Note_off_c, 0, 53, 64
4, 156242, Note_on_c, 0, 53, 102
4, 156245, Note_off_c, 0, 41, 64
4, 156722, Note_on_c, 0, 52, 102
4, 156725, Note_off_c, 0, 53, 64
4, 156962, Note_on_c, 0, 48, 102
4, 156965, Note_off_c, 0, 52, 64
4, 157202, Note_on_c, 0, 53, 102
4, 157205, Note_off_c, 0, 48, 64
4, 157562, Note_on_c, 0, 57, 102
4, 157565, Note_off_c, 0, 53, 64
4, 157682, Note_on_c, 0, 55, 102
4, 157685, Note_off_c, 0, 57, 64
4, 157802, Note_on_c, 0, 58, 102
4, 157805, Note_off_c, 0, 55, 64
4, 157922, Note_on_c, 0, 57, 102
4, 157925, Note_off_c, 0, 58, 64
4, 158042, Note_on_c, 0, 60, 102
4, 158045, Note_off_c, 0, 57, 64
4, 158162, Note_on_c, 0, 55, 102
4, 158165, Note_off_c, 0, 60, 64
4, 158282, Note_on_c, 0, 58, 102
4, 158285, Note_off_c, 0, 55, 64
4, 158402, Note_on_c, 0, 57, 102
4, 158405, Note_off_c, 0, 58, 64
4, 158522, Note_on_c, 0, 60, 102
4, 158525, Note_off_c, 0, 57, 64
4, 158642, Note_on_c, 0, 58, 102
4, 158645, Note_off_c, 0, 60, 64
4, 158882, Note_on_c, 0, 57, 102
4, 158885, Note_off_c, 0, 58, 64
4, 159122, Note_on_c, 0, 55, 102
4, 159125, Note_off_c, 0, 57, 64
4, 159362, Note_on_c, 0, 62, 102
4, 159365, Note_off_c, 0, 55, 64
4, 159482, Note_on_c, 0, 50, 102
4, 159485, Note_off_c, 0, 62, 64
4, 159602, Note_on_c, 0, 48, 102
4, 159605, Note_off_c, 0, 50, 64
4, 159722, Note_on_c, 0, 60, 102
4, 159725, Note_off_c, 0, 48, 64
4, 159842, Note_on_c, 0, 59, 102
4, 159845, Note_off_c, 0, 60, 64
4, 159962, Note_on_c, 0, 47, 102
4, 159965, Note_off_c, 0, 59, 64
4, 160082, Note_on_c, 0, 48, 102
4, 160085, Note_off_c, 0, 47, 64
4, 160322, Note_on_c, 0, 60, 102
4, 160325, Note_off_c, 0, 48, 64
4, 160565, Note_off_c, 0, 60, 64
4, 161042, Note_on_c, 0, 55, 102
4, 161282, Note_on_c, 0, 52, 102
4, 161285, Note_off_c, 0, 55, 64
4, 161522, Note_on_c, 0, 48, 102
4, 161525, Note_off_c, 0, 52, 64
4, 161762, Note_on_c, 0, 49, 102
4, 161765, Note_off_c, 0, 48, 64
4, 162005, Note_off_c, 0, 49, 64
4, 162482, Note_on_c, 0, 50, 102
4, 162722, Note_on_c, 0, 47, 102
4, 162725, Note_off_c, 0, 50, 64
4, 162962, Note_on_c, 0, 43, 102
4, 162965, Note_off_c, 0, 47, 64
4, 163202, Note_on_c, 0, 44, 102
4, 163205, Note_off_c, 0, 43, 64
4, 163445, Note_off_c, 0, 44, 64
4, 163682, Note_on_c, 0, 45, 102
4, 163922, Note_on_c, 0, 43, 102
4, 163925, Note_off_c, 0, 45, 64
4, 164162, Note_on_c, 0, 41, 102
4, 164165, Note_off_c, 0, 43, 64
4, 164402, Note_on_c, 0, 40, 102
4, 164405, Note_off_c, 0, 41, 64
4, 164642, Note_on_c, 0, 41, 102
4, 164645, Note_off_c, 0, 40, 64
4, 164882, Note_on_c, 0, 43, 102
4, 164885, Note_off_c, 0, 41, 64
4, 165122, Note_on_c, 0, 45, 102
4, 165125, Note_off_c, 0, 43, 64
4, 165362, Note_on_c, 0, 41, 102
4, 165365, Note_off_c, 0, 45, 64
4, 165602, Note_on_c, 0, 43, 102
4, 165605, Note_off_c, 0, 41, 64
4, 165842, Note_on_c, 0, 36, 102
4, 165845, Note_off_c, 0, 43, 64
4, 166202, Note_on_c, 0, 48, 102
4, 166205, Note_off_c, 0, 36, 64
4, 166322, Note_on_c, 0, 52, 102
4, 166325, Note_off_c, 0, 48, 64
4, 166442, Note_on_c, 0, 48, 102
4, 166445, Note_off_c, 0, 52, 64
4, 166562, Note_on_c, 0, 53, 102
4, 166565, Note_off_c, 0, 48, 64
4, 166802, Note_on_c, 0, 41, 102
4, 166805, Note_off_c, 0, 53, 64
4, 167042, Note_on_c, 0, 53, 102
4, 167045, Note_off_c, 0, 41, 64
4, 167522, Note_on_c, 0, 41, 102
4, 167525, Note_off_c, 0, 53, 64
4, 167762, Note_on_c, 0, 53, 102
4, 167765, Note_off_c, 0, 41, 64
4, 168242, Note_on_c, 0, 52, 102
4, 168245, Note_off_c, 0, 53, 64
4, 168482, Note_on_c, 0, 48, 102
4, 168485, Note_off_c, 0, 52, 64
4, 168722, Note_on_c, 0, 53, 102
4, 168725, Note_off_c, 0, 48, 64
4, 169082, Note_on_c, 0, 57, 102
4, 169085, Note_off_c, 0, 53, 64
4, 169202, Note_on_c, 0, 55, 102
4, 169205, Note_off_c, 0, 57, 64
4, 169322, Note_on_c, 0, 58, 102
4, 169325, Note_off_c, 0, 55, 64
4, 169442, Note_on_c, 0, 57, 102
4, 169445, Note_off_c, 0, 58, 64
4, 169562, Note_on_c, 0, 60, 102
4, 169565, Note_off_c, 0, 57, 64
4, 169682, Note_on_c, 0, 55, 102
4, 169685, Note_off_c, 0, 60, 64
4, 169802, Note_on_c, 0, 58, 102
4, 169805, Note_off_c, 0, 55, 64
4, 169922, Note_on_c, 0, 57, 102
4, 169925, Note_off_c, 0, 58, 64
4, 170042, Note_on_c, 0, 60, 102
4, 170045, Note_off_c, 0, 57, 64
4, 170162, Note_on_c, 0, 58, 102
4, 170165, Note_off_c, 0, 60, 64
4, 170402, Note_on_c, 0, 57, 102
4, 170405, Note_off_c, 0, 58, 64
4, 170642, Note_on_c, 0, 55, 102
4, 170645, Note_off_c, 0, 57, 64
4, 170882, Note_on_c, 0, 62, 102
4, 170885, Note_off_c, 0, 55, 64
4, 171002, Note_on_c, 0, 50, 102
4, 171005, Note_off_c, 0, 62, 64
4, 171122, Note_on_c, 0, 48, 102
4, 171125, Note_off_c, 0, 50, 64
4, 171242, Note_on_c, 0, 60, 102
4, 171245, Note_off_c, 0, 48, 64
4, 171362, Note_on_c, 0, 59, 102
4, 171365, Note_off_c, 0, 60, 64
4, 171482, Note_on_c, 0, 47, 102
4, 171485, Note_off_c, 0, 59, 64
4, 171602, Note_on_c, 0, 48, 102
4, 171605, Note_off_c, 0, 47, 64
4, 171842, Note_on_c, 0, 60, 102
4, 171845, Note_off_c, 0, 48, 64
4, 172085, Note_off_c, 0, 60, 64
4, 172562, Note_on_c, 0, 55, 102
4, 172802, Note_on_c, 0, 52, 102
4, 172805, Note_off_c, 0, 55, 64
4, 173042, Note_on_c, 0, 48, 102
4, 173045, Note_off_c, 0, 52, 64
4, 173282, Note_on_c, 0, 49, 102
4, 173285, Note_off_c, 0, 48, 64
4, 173525, Note_off_c, 0, 49, 64
4, 174002, Note_on_c, 0, 50, 102
4, 174242, Note_on_c, 0, 47, 102
4, 174245, Note_off_c, 0, 50, 64
4, 174482, Note_on_c, 0, 43, 102
4, 174485, Note_off_c, 0, 47, 64
4, 174722, Note_on_c, 0, 44, 102
4, 174725, Note_off_c, 0, 43, 64
4, 174965, Note_off_c, 0, 44, 64
4, 175202, Note_on_c, 0, 45, 102
4, 175442, Note_on_c, 0, 43, 102
4, 175445, Note_off_c, 0, 45, 64
4, 175682, Note_on_c, 0, 41, 102
4, 175685, Note_off_c, 0, 43, 64
4, 175922, Note_on_c, 0, 40, 102
4, 175925, Note_off_c, 0, 41, 64
4, 176162, Note_on_c, 0, 41, 102
4, 176165, Note_off_c, 0, 40, 64
4, 176402, Note_on_c, 0, 43, 102
4, 176405, Note_off_c, 0, 41, 64
4, 176642, Note_on_c, 0, 45, 102
4, 176645, Note_off_c, 0, 43, 64
4, 176882, Note_on_c, 0, 41, 102
4, 176885, Note_off_c, 0, 45, 64
4, 177122, Note_on_c, 0, 43, 102
4, 177125, Note_off_c, 0, 41, 64
4, 177362, Note_on_c, 0, 36, 102
4, 177365, Note_off_c, 0, 43, 64
4, 178082, Note_on_c, 0, 60, 102
4, 178085, Note_off_c, 0, 36, 64
4, 178322, Note_on_c, 0, 48, 102
4, 178325, Note_off_c, 0, 60, 64
4, 178562, Note_on_c, 0, 60, 102
4, 178565, Note_off_c, 0, 48, 64
4, 179042, Note_on_c, 0, 48, 102
4, 179045, Note_off_c, 0, 60, 64
4, 179282, Note_on_c, 0, 60, 102
4, 179285, Note_off_c, 0, 48, 64
4, 179762, Note_on_c, 0, 59, 102
4, 179765, Note_off_c, 0, 60, 64
4, 180002, Note_on_c, 0, 55, 102
4, 180005, Note_off_c, 0, 59, 64
4, 180242, Note_on_c, 0, 60, 102
4, 180245, Note_off_c, 0, 55, 64
4, 180602, Note_on_c, 0, 57, 102
4, 180605, Note_off_c, 0, 60, 64
4, 180722, Note_on_c, 0, 58, 102
4, 180725, Note_off_c, 0, 57, 64
4, 180842, Note_on_c, 0, 55, 102
4, 180845, Note_off_c, 0, 58, 64
4, 180962, Note_on_c, 0, 57, 102
4, 180965, Note_off_c, 0, 55, 64
4, 181202, Note_on_c, 0, 60, 102
4, 181205, Note_off_c, 0, 57, 64
4, 181442, Note_on_c, 0, 57, 102
4, 181445, Note_off_c, 0, 60, 64
4, 181682, Note_on_c, 0, 58, 102
4, 181685, Note_off_c, 0, 57, 64
4, 181922, Note_on_c, 0, 46, 102
4, 181925, Note_off_c, 0, 58, 64
4, 182165, Note_off_c, 0, 46, 64
4, 182402, Note_on_c, 0, 47, 102
4, 182642, Note_on_c, 0, 52, 102
4, 182645, Note_off_c, 0, 47, 64
4, 182882, Note_on_c, 0, 40, 102
4, 182885, Note_off_c, 0, 52, 64
4, 183122, Note_on_c, 0, 45, 102
4, 183125, Note_off_c, 0, 40, 64
4, 183362, Note_on_c, 0, 57, 102
4, 183365, Note_off_c, 0, 45, 64
4, 183602, Note_on_c, 0, 49, 102
4, 183605, Note_off_c, 0, 57, 64
4, 183842, Note_on_c, 0, 50, 102
4, 183845, Note_off_c, 0, 49, 64
4, 184082, Note_on_c, 0, 38, 102
4, 184085, Note_off_c, 0, 50, 64
4, 184322, Note_on_c, 0, 50, 102
4, 184325, Note_off_c, 0, 38, 64
4, 184802, Note_on_c, 0, 38, 102
4, 184805, Note_off_c, 0, 50, 64
4, 185042, Note_on_c, 0, 50, 102
4, 185045, Note_off_c, 0, 38, 64
4, 185522, Note_on_c, 0, 49, 102
4, 185525, Note_off_c, 0, 50, 64
4, 185762, Note_on_c, 0, 45, 102
4, 185765, Note_off_c, 0, 49, 64
4, 186002, Note_on_c, 0, 50, 102
4, 186005, Note_off_c, 0, 45, 64
4, 186362, Note_on_c, 0, 52, 102
4, 186365, Note_off_c, 0, 50, 64
4, 186482, Note_on_c, 0, 53, 102
4, 186485, Note_off_c, 0, 52, 64
4, 186602, Note_on_c, 0, 50, 102
4, 186605, Note_off_c, 0, 53, 64
4, 186722, Note_on_c, 0, 55, 102
4, 186725, Note_off_c, 0, 50, 64
4, 186962, Note_on_c, 0, 53, 102
4, 186965, Note_off_c, 0, 55, 64
4, 187202, Note_on_c, 0, 52, 102
4, 187205, Note_off_c, 0, 53, 64
4, 187442, Note_on_c, 0, 61, 102
4, 187445, Note_off_c, 0, 52, 64
4, 187682, Note_on_c, 0, 59, 102
4, 187685, Note_off_c, 0, 61, 64
4, 187922, Note_on_c, 0, 57, 102
4, 187925, Note_off_c, 0, 59, 64
4, 188162, Note_on_c, 0, 58, 102
4, 188165, Note_off_c, 0, 57, 64
4, 188402, Note_on_c, 0, 55, 102
4, 188405, Note_off_c, 0, 58, 64
4, 188642, Note_on_c, 0, 57, 102
4, 188645, Note_off_c, 0, 55, 64
4, 188882, Note_on_c, 0, 50, 102
4, 188885, Note_off_c, 0, 57, 64
4, 189242, Note_on_c, 0, 51, 102
4, 189245, Note_off_c, 0, 50, 64
4, 189362, Note_on_c, 0, 48, 102
4, 189365, Note_off_c, 0, 51, 64
4, 189482, Note_on_c, 0, 50, 102
4, 189485, Note_off_c, 0, 48, 64
4, 189602, Note_on_c, 0, 47, 102
4, 189605, Note_off_c, 0, 50, 64
4, 189842, Note_on_c, 0, 59, 102
4, 189845, Note_off_c, 0, 47, 64
4, 190082, Note_on_c, 0, 55, 102
4, 190085, Note_off_c, 0, 59, 64
4, 190322, Note_on_c, 0, 48, 102
4, 190325, Note_off_c, 0, 55, 64
4, 190562, Note_on_c, 0, 50, 102
4, 190565, Note_off_c, 0, 48, 64
4, 190802, Note_on_c, 0, 51, 102
4, 190805, Note_off_c, 0, 50, 64
4, 191042, Note_on_c, 0, 53, 102
4, 191045, Note_off_c, 0, 51, 64
4, 191282, Note_on_c, 0, 55, 102
4, 191285, Note_off_c, 0, 53, 64
4, 191522, Note_on_c, 0, 57, 102
4, 191525, Note_off_c, 0, 55, 64
4, 191762, Note_on_c, 0, 58, 102
4, 191765, Note_off_c, 0, 57, 64
4, 192002, Note_on_c, 0, 55, 102
4, 192005, Note_off_c, 0, 58, 64
4, 192242, Note_on_c, 0, 53, 102
4, 192245, Note_off_c, 0, 55, 64
4, 192482, Note_on_c, 0, 52, 102
4, 192485, Note_off_c, 0, 53, 64
4, 192722, Note_on_c, 0, 48, 102
4, 192725, Note_off_c, 0, 52, 64
4, 192962, Note_on_c, 0, 52, 102
4, 192965, Note_off_c, 0, 48, 64
4, 193202, Note_on_c, 0, 53, 102
4, 193205, Note_off_c, 0, 52, 64
4, 193442, Note_on_c, 0, 41, 102
4, 193445, Note_off_c, 0, 53, 64
4, 193682, Note_on_c, 0, 45, 102
4, 193685, Note_off_c, 0, 41, 64
4, 193922, Note_on_c, 0, 46, 102
4, 193925, Note_off_c, 0, 45, 64
4, 194162, Note_on_c, 0, 50, 102
4, 194165, Note_off_c, 0, 46, 64
4, 194402, Note_on_c, 0, 43, 102
4, 194405, Note_off_c, 0, 50, 64
4, 194642, Note_on_c, 0, 48, 102
4, 194645, Note_off_c, 0, 43, 64
4, 195002, Note_on_c, 0, 50, 102
4, 195005, Note_off_c, 0, 48, 64
4, 195122, Note_on_c, 0, 53, 102
4, 195125, Note_off_c, 0, 50, 64
4, 195242, Note_on_c, 0, 48, 102
4, 195245, Note_off_c, 0, 53, 64
4, 195362, Note_on_c, 0, 53, 102
4, 195365, Note_off_c, 0, 48, 64
4, 195602, Note_on_c, 0, 41, 102
4, 195605, Note_off_c, 0, 53, 64
4, 195842, Note_on_c, 0, 53, 102
4, 195845, Note_off_c, 0, 41, 64
4, 196322, Note_on_c, 0, 41, 102
4, 196325, Note_off_c, 0, 53, 64
4, 196562, Note_on_c, 0, 53, 102
4, 196565, Note_off_c, 0, 41, 64
4, 197042, Note_on_c, 0, 52, 102
4, 197045, Note_off_c, 0, 53, 64
4, 197282, Note_on_c, 0, 48, 102
4, 197285, Note_off_c, 0, 52, 64
4, 197522, Note_on_c, 0, 53, 102
4, 197525, Note_off_c, 0, 48, 64
4, 197882, Note_on_c, 0, 50, 102
4, 197885, Note_off_c, 0, 53, 64
4, 198002, Note_on_c, 0, 51, 102
4, 198005, Note_off_c, 0, 50, 64
4, 198122, Note_on_c, 0, 48, 102
4, 198125, Note_off_c, 0, 51, 64
4, 198242, Note_on_c, 0, 50, 102
4, 198245, Note_off_c, 0, 48, 64
4, 198482, Note_on_c, 0, 53, 102
4, 198485, Note_off_c, 0, 50, 64
4, 198722, Note_on_c, 0, 50, 102
4, 198725, Note_off_c, 0, 53, 64
4, 198962, Note_on_c, 0, 51, 102
4, 198965, Note_off_c, 0, 50, 64
4, 199202, Note_on_c, 0, 39, 102
4, 199205, Note_off_c, 0, 51, 64
4, 199445, Note_off_c, 0, 39, 64
4, 199682, Note_on_c, 0, 52, 102
4, 199922, Note_on_c, 0, 57, 102
4, 199925, Note_off_c, 0, 52, 64
4, 200162, Note_on_c, 0, 45, 102
4, 200165, Note_off_c, 0, 57, 64
4, 200402, Note_on_c, 0, 50, 102
4, 200405, Note_off_c, 0, 45, 64
4, 200762, Note_on_c, 0, 54, 102
4, 200765, Note_off_c, 0, 50, 64
4, 200882, Note_on_c, 0, 52, 102
4, 200885, Note_off_c, 0, 54, 64
4, 201002, Note_on_c, 0, 55, 102
4, 201005, Note_off_c, 0, 52, 64
4, 201122, Note_on_c, 0, 54, 102
4, 201125, Note_off_c, 0, 55, 64
4, 201242, Note_on_c, 0, 57, 102
4, 201245, Note_off_c, 0, 54, 64
4, 201362, Note_on_c, 0, 55, 102
4, 201365, Note_off_c, 0, 57, 64
4, 201482, Note_on_c, 0, 57, 102
4, 201485, Note_off_c, 0, 55, 64
4, 201602, Note_on_c, 0, 53, 102
4, 201605, Note_off_c, 0, 57, 64
4, 201722, Note_on_c, 0, 55, 102
4, 201725, Note_off_c, 0, 53, 64
4, 201842, Note_on_c, 0, 52, 102
4, 201845, Note_off_c, 0, 55, 64
4, 202082, Note_on_c, 0, 53, 102
4, 202085, Note_off_c, 0, 52, 64
4, 202322, Note_on_c, 0, 50, 102
4, 202325, Note_off_c, 0, 53, 64
4, 202562, Note_on_c, 0, 57, 102
4, 202565, Note_off_c, 0, 50, 64
4, 202682, Note_on_c, 0, 58, 102
4, 202685, Note_off_c, 0, 57, 64
4, 202802, Note_on_c, 0, 55, 102
4, 202805, Note_off_c, 0, 58, 64
4, 202922, Note_on_c, 0, 57, 102
4, 202925, Note_off_c, 0, 55, 64
4, 203042, Note_on_c, 0, 54, 102
4, 203045, Note_off_c, 0, 57, 64
4, 203162, Note_on_c, 0, 57, 102
4, 203165, Note_off_c, 0, 54, 64
4, 203282, Note_on_c, 0, 55, 102
4, 203285, Note_off_c, 0, 57, 64
4, 203522, Note_on_c, 0, 43, 102
4, 203525, Note_off_c, 0, 55, 64
4, 203762, Note_on_c, 0, 49, 102
4, 203765, Note_off_c, 0, 43, 64
4, 204002, Note_on_c, 0, 50, 102
4, 204005, Note_off_c, 0, 49, 64
4, 204122, Note_on_c, 0, 52, 102
4, 204125, Note_off_c, 0, 50, 64
4, 204242, Note_on_c, 0, 48, 102
4, 204245, Note_off_c, 0, 52, 64
4, 204362, Note_on_c, 0, 50, 102
4, 204365, Note_off_c, 0, 48, 64
4, 204482, Note_on_c, 0, 47, 102
4, 204485, Note_off_c, 0, 50, 64
4, 204602, Note_on_c, 0, 50, 102
4, 204605, Note_off_c, 0, 47, 64
4, 204722, Note_on_c, 0, 48, 102
4, 204725, Note_off_c, 0, 50, 64
4, 204962, Note_on_c, 0, 60, 102
4, 204965, Note_off_c, 0, 48, 64
4, 205202, Note_on_c, 0, 54, 102
4, 205205, Note_off_c, 0, 60, 64
4, 205442, Note_on_c, 0, 55, 102
4, 205445, Note_off_c, 0, 54, 64
4, 205562, Note_on_c, 0, 57, 102
4, 205565, Note_off_c, 0, 55, 64
4, 205682, Note_on_c, 0, 53, 102
4, 205685, Note_off_c, 0, 57, 64
4, 205802, Note_on_c, 0, 55, 102
4, 205805, Note_off_c, 0, 53, 64
4, 205922, Note_on_c, 0, 52, 102
4, 205925, Note_off_c, 0, 55, 64
4, 206042, Note_on_c, 0, 55, 102
4, 206045, Note_off_c, 0, 52, 64
4, 206162, Note_on_c, 0, 53, 102
4, 206165, Note_off_c, 0, 55, 64
4, 206402, Note_on_c, 0, 41, 102
4, 206405, Note_off_c, 0, 53, 64
4, 206645, Note_off_c, 0, 41, 64
4, 207122, Note_on_c, 0, 60, 102
4, 207362, Note_on_c, 0, 57, 102
4, 207365, Note_off_c, 0, 60, 64
4, 207602, Note_on_c, 0, 53, 102
4, 207605, Note_off_c, 0, 57, 64
4, 207842, Note_on_c, 0, 54, 102
4, 207845, Note_off_c, 0, 53, 64
4, 208085, Note_off_c, 0, 54, 64
4, 208562, Note_on_c, 0, 55, 102
4, 208802, Note_on_c, 0, 52, 102
4, 208805, Note_off_c, 0, 55, 64
4, 209042, Note_on_c, 0, 48, 102
4, 209045, Note_off_c, 0, 52, 64
4, 209282, Note_on_c, 0, 49, 102
4, 209285, Note_off_c, 0, 48, 64
4, 209525, Note_off_c, 0, 49, 64
4, 209762, Note_on_c, 0, 50, 102
4, 210002, Note_on_c, 0, 48, 102
4, 210005, Note_off_c, 0, 50, 64
4, 210242, Note_on_c, 0, 46, 102
4, 210245, Note_off_c, 0, 48, 64
4, 210482, Note_on_c, 0, 45, 102
4, 210485, Note_off_c, 0, 46, 64
4, 210722, Note_on_c, 0, 46, 102
4, 210725, Note_off_c, 0, 45, 64
4, 210962, Note_on_c, 0, 48, 102
4, 210965, Note_off_c, 0, 46, 64
4, 211202, Note_on_c, 0, 50, 102
4, 211205, Note_off_c, 0, 48, 64
4, 211442, Note_on_c, 0, 46, 102
4, 211445, Note_off_c, 0, 50, 64
4, 211682, Note_on_c, 0, 48, 102
4, 211685, Note_off_c, 0, 46, 64
4, 211922, Note_on_c, 0, 41, 102
4, 211925, Note_off_c, 0, 48, 64
4, 212282, Note_on_c, 0, 53, 102
4, 212285, Note_off_c, 0, 41, 64
4, 212402, Note_on_c, 0, 57, 102
4, 212405, Note_off_c, 0, 53, 64
4, 212522, Note_on_c, 0, 53, 102
4, 212525, Note_off_c, 0, 57, 64
4, 212642, Note_on_c, 0, 60, 102
4, 212645, Note_off_c, 0, 53, 64
4, 212882, Note_on_c, 0, 48, 102
4, 212885, Note_off_c, 0, 60, 64
4, 213122, Note_on_c, 0, 60, 102
4, 213125, Note_off_c, 0, 48, 64
4, 213602, Note_on_c, 0, 48, 102
4, 213605, Note_off_c, 0, 60, 64
4, 213842, Note_on_c, 0, 60, 102
4, 213845, Note_off_c, 0, 48, 64
4, 214322, Note_on_c, 0, 59, 102
4, 214325, Note_off_c, 0, 60, 64
4, 214562, Note_on_c, 0, 55, 102
4, 214565, Note_off_c, 0, 59, 64
4, 214802, Note_on_c, 0, 60, 102
4, 214805, Note_off_c, 0, 55, 64
4, 215162, Note_on_c, 0, 57, 102
4, 215165, Note_off_c, 0, 60, 64
4, 215282, Note_on_c, 0, 58, 102
4, 215285, Note_off_c, 0, 57, 64
4, 215402, Note_on_c, 0, 55, 102
4, 215405, Note_off_c, 0, 58, 64
4, 215522, Note_on_c, 0, 57, 102
4, 215525, Note_off_c, 0, 55, 64
4, 215762, Note_on_c, 0, 60, 102
4, 215765, Note_off_c, 0, 57, 64
4, 216002, Note_on_c, 0, 57, 102
4, 216005, Note_off_c, 0, 60, 64
4, 216242, Note_on_c, 0, 58, 102
4, 216245, Note_off_c, 0, 57, 64
4, 216482, Note_on_c, 0, 46, 102
4, 216485, Note_off_c, 0, 58, 64
4, 216725, Note_off_c, 0, 46, 64
4, 216962, Note_on_c, 0, 47, 102
4, 217202, Note_on_c, 0, 52, 102
4, 217205, Note_off_c, 0, 47, 64
4, 217442, Note_on_c, 0, 40, 102
4, 217445, Note_off_c, 0, 52, 64
4, 217682, Note_on_c, 0, 45, 102
4, 217685, Note_off_c, 0, 40, 64
4, 217922, Note_on_c, 0, 57, 102
4, 217925, Note_off_c, 0, 45, 64
4, 218162, Note_on_c, 0, 49, 102
4, 218165, Note_off_c, 0, 57, 64
4, 218402, Note_on_c, 0, 50, 102
4, 218405, Note_off_c, 0, 49, 64
4, 218642, Note_on_c, 0, 38, 102
4, 218645, Note_off_c, 0, 50, 64
4, 218882, Note_on_c, 0, 50, 102
4, 218885, Note_off_c, 0, 38, 64
4, 219362, Note_on_c, 0, 38, 102
4, 219365, Note_off_c, 0, 50, 64
4, 219602, Note_on_c, 0, 50, 102
4, 219605, Note_off_c, 0, 38, 64
4, 220082, Note_on_c, 0, 49, 102
4, 220085, Note_off_c, 0, 50, 64
4, 220322, Note_on_c, 0, 45, 102
4, 220325, Note_off_c, 0, 49, 64
4, 220562, Note_on_c, 0, 50, 102
4, 220565, Note_off_c, 0, 45, 64
4, 220922, Note_on_c, 0, 52, 102
4, 220925, Note_off_c, 0, 50, 64
4, 221042, Note_on_c, 0, 53, 102
4, 221045, Note_off_c, 0, 52, 64
4, 221162, Note_on_c, 0, 50, 102
4, 221165, Note_off_c, 0, 53, 64
4, 221282, Note_on_c, 0, 55, 102
4, 221285, Note_off_c, 0, 50, 64
4, 221522, Note_on_c, 0, 53, 102
4, 221525, Note_off_c, 0, 55, 64
4, 221762, Note_on_c, 0, 52, 102
4, 221765, Note_off_c, 0, 53, 64
4, 222002, Note_on_c, 0, 61, 102
4, 222005, Note_off_c, 0, 52, 64
4, 222242, Note_on_c, 0, 59, 102
4, 222245, Note_off_c, 0, 61, 64
4, 222482, Note_on_c, 0, 57, 102
4, 222485, Note_off_c, 0, 59, 64
4, 222722, Note_on_c, 0, 58, 102
4, 222725, Note_off_c, 0, 57, 64
4, 222962, Note_on_c, 0, 55, 102
4, 222965, Note_off_c, 0, 58, 64
4, 223202, Note_on_c, 0, 57, 102
4, 223205, Note_off_c, 0, 55, 64
4, 223442, Note_on_c, 0, 50, 102
4, 223445, Note_off_c, 0, 57, 64
4, 223802, Note_on_c, 0, 51, 102
4, 223805, Note_off_c, 0, 50, 64
4, 223922, Note_on_c, 0, 48, 102
4, 223925, Note_off_c, 0, 51, 64
4, 224042, Note_on_c, 0, 50, 102
4, 224045, Note_off_c, 0, 48, 64
4, 224162, Note_on_c, 0, 47, 102
4, 224165, Note_off_c, 0, 50, 64
4, 224402, Note_on_c, 0, 59, 102
4, 224405, Note_off_c, 0, 47, 64
4, 224642, Note_on_c, 0, 55, 102
4, 224645, Note_off_c, 0, 59, 64
4, 224882, Note_on_c, 0, 48, 102
4, 224885, Note_off_c, 0, 55, 64
4, 225122, Note_on_c, 0, 50, 102
4, 225125, Note_off_c, 0, 48, 64
4, 225362, Note_on_c, 0, 51, 102
4, 225365, Note_off_c, 0, 50, 64
4, 225602, Note_on_c, 0, 53, 102
4, 225605, Note_off_c, 0, 51, 64
4, 225842, Note_on_c, 0, 55, 102
4, 225845, Note_off_c, 0, 53, 64
4, 226082, Note_on_c, 0, 57, 102
4, 226085, Note_off_c, 0, 55, 64
4, 226322, Note_on_c, 0, 58, 102
4, 226325, Note_off_c, 0, 57, 64
4, 226562, Note_on_c, 0, 55, 102
4, 226565, Note_off_c, 0, 58, 64
4, 226802, Note_on_c, 0, 53, 102
4, 226805, Note_off_c, 0, 55, 64
4, 227042, Note_on_c, 0, 52, 102
4, 227045, Note_off_c, 0, 53, 64
4, 227282, Note_on_c, 0, 48, 102
4, 227285, Note_off_c, 0, 52, 64
4, 227522, Note_on_c, 0, 52, 102
4, 227525, Note_off_c, 0, 48, 64
4, 227762, Note_on_c, 0, 53, 102
4, 227765, Note_off_c, 0, 52, 64
4, 228002, Note_on_c, 0, 41, 102
4, 228005, Note_off_c, 0, 53, 64
4, 228242, Note_on_c, 0, 45, 102
4, 228245, Note_off_c, 0, 41, 64
4, 228482, Note_on_c, 0, 46, 102
4, 228485, Note_off_c, 0, 45, 64
4, 228722, Note_on_c, 0, 50, 102
4, 228725, Note_off_c, 0, 46, 64
4, 228962, Note_on_c, 0, 43, 102
4, 228965, Note_off_c, 0, 50, 64
4, 229202, Note_on_c, 0, 48, 102
4, 229205, Note_off_c, 0, 43, 64
4, 229562, Note_on_c, 0, 50, 102
4, 229565, Note_off_c, 0, 48, 64
4, 229682, Note_on_c, 0, 53, 102
4, 229685, Note_off_c, 0, 50, 64
4, 229802, Note_on_c, 0, 48, 102
4, 229805, Note_off_c, 0, 53, 64
4, 229922, Note_on_c, 0, 53, 102
4, 229925, Note_off_c, 0, 48, 64
4, 230162, Note_on_c, 0, 41, 102
4, 230165, Note_off_c, 0, 53, 64
4, 230402, Note_on_c, 0, 53, 102
4, 230405, Note_off_c, 0, 41, 64
4, 230882, Note_on_c, 0, 41, 102
4, 230885, Note_off_c, 0, 53, 64
4, 231122, Note_on_c, 0, 53, 102
4, 231125, Note_off_c, 0, 41, 64
4, 231602, Note_on_c, 0, 52, 102
4, 231605, Note_off_c, 0, 53, 64
4, 231842, Note_on_c, 0, 48, 102
4, 231845, Note_off_c, 0, 52, 64
4, 232082, Note_on_c, 0, 53, 102
4, 232085, Note_off_c, 0, 48, 64
4, 232442, Note_on_c, 0, 50, 102
4, 232445, Note_off_c, 0, 53, 64
4, 232562, Note_on_c, 0, 51, 102
4, 232565, Note_off_c, 0, 50, 64
4, 232682, Note_on_c, 0, 48, 102
4, 232685, Note_off_c, 0, 51, 64
4, 232802, Note_on_c, 0, 50, 102
4, 232805, Note_off_c, 0, 48, 64
4, 233042, Note_on_c, 0, 53, 102
4, 233045, Note_off_c, 0, 50, 64
4, 233282, Note_on_c, 0, 50, 102
4, 233285, Note_off_c, 0, 53, 64
4, 233522, Note_on_c, 0, 51, 102
4, 233525, Note_off_c, 0, 50, 64
4, 233762, Note_on_c, 0, 39, 102
4, 233765, Note_off_c, 0, 51, 64
4, 234005, Note_off_c, 0, 39, 64
4, 234242, Note_on_c, 0, 52, 102
4, 234482, Note_on_c, 0, 57, 102
4, 234485, Note_off_c, 0, 52, 64
4, 234722, Note_on_c, 0, 45, 102
4, 234725, Note_off_c, 0, 57, 64
4, 234962, Note_on_c, 0, 50, 102
4, 234965, Note_off_c, 0, 45, 64
4, 235322, Note_on_c, 0, 54, 102
4, 235325, Note_off_c, 0, 50, 64
4, 235442, Note_on_c, 0, 52, 102
4, 235445, Note_off_c, 0, 54, 64
4, 235562, Note_on_c, 0, 55, 102
4, 235565, Note_off_c, 0, 52, 64
4, 235682, Note_on_c, 0, 54, 102
4, 235685, Note_off_c, 0, 55, 64
4, 235802, Note_on_c, 0, 57, 102
4, 235805, Note_off_c, 0, 54, 64
4, 235922, Note_on_c, 0, 55, 102
4, 235925, Note_off_c, 0, 57, 64
4, 236042, Note_on_c, 0, 57, 102
4, 236045, Note_off_c, 0, 55, 64
4, 236162, Note_on_c, 0, 53, 102
4, 236165, Note_off_c, 0, 57, 64
4, 236282, Note_on_c, 0, 55, 102
4, 236285, Note_off_c, 0, 53, 64
4, 236402, Note_on_c, 0, 52, 102
4, 236405, Note_off_c, 0, 55, 64
4, 236642, Note_on_c, 0, 53, 102
4, 236645, Note_off_c, 0, 52, 64
4, 236882, Note_on_c, 0, 50, 102
4, 236885, Note_off_c, 0, 53, 64
4, 237122, Note_on_c, 0, 57, 102
4, 237125, Note_off_c, 0, 50, 64
4, 237242, Note_on_c, 0, 58, 102
4, 237245, Note_off_c, 0, 57, 64
4, 237362, Note_on_c, 0, 55, 102
4, 237365, Note_off_c, 0, 58, 64
4, 237482, Note_on_c, 0, 57, 102
4, 237485, Note_off_c, 0, 55, 64
4, 237602, Note_on_c, 0, 54, 102
4, 237605, Note_off_c, 0, 57, 64
4, 237722, Note_on_c, 0, 57, 102
4, 237725, Note_off_c, 0, 54, 64
4, 237842, Note_on_c, 0, 55, 102
4, 237845, Note_off_c, 0, 57, 64
4, 238082, Note_on_c, 0, 43, 102
4, 238085, Note_off_c, 0, 55, 64
4, 238322, Note_on_c, 0, 49, 102
4, 238325, Note_off_c, 0, 43, 64
4, 238562, Note_on_c, 0, 50, 102
4, 238565, Note_off_c, 0, 49, 64
4, 238682, Note_on_c, 0, 52, 102
4, 238685, Note_off_c, 0, 50, 64
4, 238802, Note_on_c, 0, 48, 102
4, 238805, Note_off_c, 0, 52, 64
4, 238922, Note_on_c, 0, 50, 102
4, 238925, Note_off_c, 0, 48, 64
4, 239042, Note_on_c, 0, 47, 102
4, 239045, Note_off_c, 0, 50, 64
4, 239162, Note_on_c, 0, 50, 102
4, 239165, Note_off_c, 0, 47, 64
4, 239282, Note_on_c, 0, 48, 102
4, 239285, Note_off_c, 0, 50, 64
4, 239522, Note_on_c, 0, 60, 102
4, 239525, Note_off_c, 0, 48, 64
4, 239762, Note_on_c, 0, 54, 102
4, 239765, Note_off_c, 0, 60, 64
4, 240002, Note_on_c, 0, 55, 102
4, 240005, Note_off_c, 0, 54, 64
4, 240122, Note_on_c, 0, 57, 102
4, 240125, Note_off_c, 0, 55, 64
4, 240242, Note_on_c, 0, 53, 102
4, 240245, Note_off_c, 0, 57, 64
4, 240362, Note_on_c, 0, 55, 102
4, 240365, Note_off_c, 0, 53, 64
4, 240482, Note_on_c, 0, 52, 102
4, 240485, Note_off_c, 0, 55, 64
4, 240602, Note_on_c, 0, 55, 102
4, 240605, Note_off_c, 0, 52, 64
4, 240722, Note_on_c, 0, 53, 102
4, 240725, Note_off_c, 0, 55, 64
4, 240962, Note_on_c, 0, 41, 102
4, 240965, Note_off_c, 0, 53, 64
4, 241205, Note_off_c, 0, 41, 64
4, 241682, Note_on_c, 0, 60, 102
4, 241922, Note_on_c, 0, 57, 102
4, 241925, Note_off_c, 0, 60, 64
4, 242162, Note_on_c, 0, 53, 102
4, 242165, Note_off_c, 0, 57, 64
4, 242402, Note_on_c, 0, 54, 102
4, 242405, Note_off_c, 0, 53, 64
4, 242645, Note_off_c, 0, 54, 64
4, 243122, Note_on_c, 0, 55, 102
4, 243362, Note_on_c, 0, 52, 102
4, 243365, Note_off_c, 0, 55, 64
4, 243602, Note_on_c, 0, 48, 102
4, 243605, Note_off_c, 0, 52, 64
4, 243842, Note_on_c, 0, 49, 102
4, 243845, Note_off_c, 0, 48, 64
4, 244085, Note_off_c, 0, 49, 64
4, 244322, Note_on_c, 0, 50, 102
4, 244562, Note_on_c, 0, 48, 102
4, 244565, Note_off_c, 0, 50, 64
4, 244802, Note_on_c, 0, 46, 102
4, 244805, Note_off_c, 0, 48, 64
4, 245042, Note_on_c, 0, 45, 102
4, 245045, Note_off_c, 0, 46, 64
4, 245282, Note_on_c, 0, 46, 102
4, 245285, Note_off_c, 0, 45, 64
4, 245522, Note_on_c, 0, 48, 102
4, 245525, Note_off_c, 0, 46, 64
4, 245762, Note_on_c, 0, 50, 102
4, 245765, Note_off_c, 0, 48, 64
4, 246002, Note_on_c, 0, 46, 102
4, 246005, Note_off_c, 0, 50, 64
4, 246242, Note_on_c, 0, 48, 102
4, 246245, Note_off_c, 0, 46, 64
4, 246482, Note_on_c, 0, 41, 102
4, 246485, Note_off_c, 0, 48, 64
4, 247205, Note_off_c, 0, 41, 64
4, 248642, Note_on_c, 0, 50, 102
4, 248882, Note_on_c, 0, 62, 102
4, 248885, Note_off_c, 0, 50, 64
4, 249122, Note_on_c, 0, 62, 102
4, 249125, Note_off_c, 0, 62, 64
4, 249362, Note_on_c, 0, 60, 102
4, 249365, Note_off_c, 0, 62, 64
4, 249602, Note_on_c, 0, 60, 102
4, 249605, Note_off_c, 0, 60, 64
4, 249842, Note_on_c, 0, 60, 102
4, 249845, Note_off_c, 0, 60, 64
4, 250082, Note_on_c, 0, 58, 102
4, 250085, Note_off_c, 0, 60, 64
4, 250322, Note_on_c, 0, 58, 102
4, 250325, Note_off_c, 0, 58, 64
4, 250562, Note_on_c, 0, 58, 102
4, 250565, Note_off_c, 0, 58, 64
4, 250802, Note_on_c, 0, 57, 102
4, 250805, Note_off_c, 0, 58, 64
4, 251042, Note_on_c, 0, 57, 102
4, 251045, Note_off_c, 0, 57, 64
4, 251282, Note_on_c, 0, 57, 102
4, 251285, Note_off_c, 0, 57, 64
4, 251522, Note_on_c, 0, 58, 102
4, 251525, Note_off_c, 0, 57, 64
4, 251762, Note_on_c, 0, 55, 102
4, 251765, Note_off_c, 0, 58, 64
4, 252002, Note_on_c, 0, 52, 102
4, 252005, Note_off_c, 0, 55, 64
4, 252242, Note_on_c, 0, 57, 102
4, 252245, Note_off_c, 0, 52, 64
4, 252482, Note_on_c, 0, 45, 102
4, 252485, Note_off_c, 0, 57, 64
4, 252722, Note_on_c, 0, 47, 102
4, 252725, Note_off_c, 0, 45, 64
4, 252962, Note_on_c, 0, 49, 102
4, 252965, Note_off_c, 0, 47, 64
4, 253202, Note_on_c, 0, 45, 102
4, 253205, Note_off_c, 0, 49, 64
4, 253442, Note_on_c, 0, 49, 102
4, 253445, Note_off_c, 0, 45, 64
4, 253682, Note_on_c, 0, 50, 102
4, 253685, Note_off_c, 0, 49, 64
4, 253922, Note_on_c, 0, 48, 102
4, 253925, Note_off_c, 0, 50, 64
4, 254162, Note_on_c, 0, 47, 102
4, 254165, Note_off_c, 0, 48, 64
4, 254402, Note_on_c, 0, 45, 102
4, 254405, Note_off_c, 0, 47, 64
4, 254642, Note_on_c, 0, 57, 102
4, 254645, Note_off_c, 0, 45, 64
4, 254882, Note_on_c, 0, 57, 102
4, 254885, Note_off_c, 0, 57, 64
4, 255122, Note_on_c, 0, 55, 102
4, 255125, Note_off_c, 0, 57, 64
4, 255362, Note_on_c, 0, 55, 102
4, 255365, Note_off_c, 0, 55, 64
4, 255602, Note_on_c, 0, 55, 102
4, 255605, Note_off_c, 0, 55, 64
4, 255842, Note_on_c, 0, 53, 102
4, 255845, Note_off_c, 0, 55, 64
4, 256082, Note_on_c, 0, 53, 102
4, 256085, Note_off_c, 0, 53, 64
4, 256322, Note_on_c, 0, 53, 102
4, 256325, Note_off_c, 0, 53, 64
4, 256562, Note_on_c, 0, 52, 102
4, 256565, Note_off_c, 0, 53, 64
4, 256802, Note_on_c, 0, 52, 102
4, 256805, Note_off_c, 0, 52, 64
4, 257042, Note_on_c, 0, 52, 102
4, 257045, Note_off_c, 0, 52, 64
4, 257282, Note_on_c, 0, 53, 102
4, 257285, Note_off_c, 0, 52, 64
4, 257522, Note_on_c, 0, 50, 102
4, 257525, Note_off_c, 0, 53, 64
4, 257762, Note_on_c, 0, 47, 102
4, 257765, Note_off_c, 0, 50, 64
4, 258002, Note_on_c, 0, 52, 102
4, 258005, Note_off_c, 0, 47, 64
4, 258242, Note_on_c, 0, 40, 102
4, 258245, Note_off_c, 0, 52, 64
4, 258482, Note_on_c, 0, 42, 102
4, 258485, Note_off_c, 0, 40, 64
4, 258722, Note_on_c, 0, 44, 102
4, 258725, Note_off_c, 0, 42, 64
4, 258962, Note_on_c, 0, 40, 102
4, 258965, Note_off_c, 0, 44, 64
4, 259202, Note_on_c, 0, 44, 102
4, 259205, Note_off_c, 0, 40, 64
4, 259442, Note_on_c, 0, 45, 102
4, 259445, Note_off_c, 0, 44, 64
4, 259682, Note_on_c, 0, 47, 102
4, 259685, Note_off_c, 0, 45, 64
4, 259922, Note_on_c, 0, 48, 102
4, 259925, Note_off_c, 0, 47, 64
4, 260162, Note_on_c, 0, 50, 102
4, 260165, Note_off_c, 0, 48, 64
4, 260402, Note_on_c, 0, 52, 102
4, 260405, Note_off_c, 0, 50, 64
4, 260642, Note_on_c, 0, 53, 102
4, 260645, Note_off_c, 0, 52, 64
4, 260882, Note_on_c, 0, 52, 102
4, 260885, Note_off_c, 0, 53, 64
4, 261122, Note_on_c, 0, 54, 102
4, 261125, Note_off_c, 0, 52, 64
4, 261362, Note_on_c, 0, 55, 102
4, 261365, Note_off_c, 0, 54, 64
4, 261602, Note_on_c, 0, 54, 102
4, 261605, Note_off_c, 0, 55, 64
4, 261842, Note_on_c, 0, 56, 102
4, 261845, Note_off_c, 0, 54, 64
4, 262082, Note_on_c, 0, 57, 102
4, 262085, Note_off_c, 0, 56, 64
4, 262322, Note_on_c, 0, 56, 102
4, 262325, Note_off_c, 0, 57, 64
4, 262562, Note_on_c, 0, 57, 102
4, 262565, Note_off_c, 0, 56, 64
4, 262802, Note_on_c, 0, 59, 102
4, 262805, Note_off_c, 0, 57, 64
4, 263042, Note_on_c, 0, 57, 102
4, 263045, Note_off_c, 0, 59, 64
4, 263282, Note_on_c, 0, 59, 102
4, 263285, Note_off_c, 0, 57, 64
4, 263522, Note_on_c, 0, 60, 102
4, 263525, Note_off_c, 0, 59, 64
4, 263762, Note_on_c, 0, 59, 102
4, 263765, Note_off_c, 0, 60, 64
4, 264002, Note_on_c, 0, 61, 102
4, 264005, Note_off_c, 0, 59, 64
4, 264242, Note_on_c, 0, 62, 102
4, 264245, Note_off_c, 0, 61, 64
4, 264482, Note_on_c, 0, 61, 102
4, 264485, Note_off_c, 0, 62, 64
4, 264722, Note_on_c, 0, 57, 102
4, 264725, Note_off_c, 0, 61, 64
4, 264962, Note_on_c, 0, 55, 102
4, 264965, Note_off_c, 0, 57, 64
4, 265202, Note_on_c, 0, 53, 102
4, 265205, Note_off_c, 0, 55, 64
4, 265442, Note_on_c, 0, 55, 102
4, 265445, Note_off_c, 0, 53, 64
4, 265682, Note_on_c, 0, 57, 102
4, 265685, Note_off_c, 0, 55, 64
4, 265922, Note_on_c, 0, 50, 102
4, 265925, Note_off_c, 0, 57, 64
4, 266162, Note_on_c, 0, 62, 102
4, 266165, Note_off_c, 0, 50, 64
4, 266402, Note_on_c, 0, 62, 102
4, 266405, Note_off_c, 0, 62, 64
4, 266642, Note_on_c, 0, 60, 102
4, 266645, Note_off_c, 0, 62, 64
4, 266882, Note_on_c, 0, 60, 102
4, 266885, Note_off_c, 0, 60, 64
4, 267122, Note_on_c, 0, 60, 102
4, 267125, Note_off_c, 0, 60, 64
4, 267362, Note_on_c, 0, 58, 102
4, 267365, Note_off_c, 0, 60, 64
4, 267602, Note_on_c, 0, 58, 102
4, 267605, Note_off_c, 0, 58, 64
4, 267842, Note_on_c, 0, 58, 102
4, 267845, Note_off_c, 0, 58, 64
4, 268082, Note_on_c, 0, 57, 102
4, 268085, Note_off_c, 0, 58, 64
4, 268322, Note_on_c, 0, 57, 102
4, 268325, Note_off_c, 0, 57, 64
4, 268562, Note_on_c, 0, 57, 102
4, 268565, Note_off_c, 0, 57, 64
4, 268802, Note_on_c, 0, 58, 102
4, 268805, Note_off_c, 0, 57, 64
4, 269042, Note_on_c, 0, 55, 102
4, 269045, Note_off_c, 0, 58, 64
4, 269282, Note_on_c, 0, 52, 102
4, 269285, Note_off_c, 0, 55, 64
4, 269522, Note_on_c, 0, 57, 102
4, 269525, Note_off_c, 0, 52, 64
4, 269762, Note_on_c, 0, 45, 102
4, 269765, Note_off_c, 0, 57, 64
4, 270002, Note_on_c, 0, 47, 102
4, 270005, Note_off_c, 0, 45, 64
4, 270242, Note_on_c, 0, 49, 102
4, 270245, Note_off_c, 0, 47, 64
4, 270482, Note_on_c, 0, 45, 102
4, 270485, Note_off_c, 0, 49, 64
4, 270722, Note_on_c, 0, 49, 102
4, 270725, Note_off_c, 0, 45, 64
4, 270962, Note_on_c, 0, 50, 102
4, 270965, Note_off_c, 0, 49, 64
4, 271202, Note_on_c, 0, 38, 102
4, 271205, Note_off_c, 0, 50, 64
4, 271442, Note_on_c, 0, 50, 102
4, 271445, Note_off_c, 0, 38, 64
4, 271682, Note_on_c, 0, 43, 102
4, 271685, Note_off_c, 0, 50, 64
4, 271922, Note_on_c, 0, 46, 102
4, 271925, Note_off_c, 0, 43, 64
4, 272162, Note_on_c, 0, 43, 102
4, 272165, Note_off_c, 0, 46, 64
4, 272402, Note_on_c, 0, 45, 102
4, 272405, Note_off_c, 0, 43, 64
4, 272885, Note_off_c, 0, 45, 64
4, 273122, Note_on_c, 0, 46, 102
4, 273362, Note_on_c, 0, 43, 102
4, 273365, Note_off_c, 0, 46, 64
4, 273602, Note_on_c, 0, 45, 102
4, 273605, Note_off_c, 0, 43, 64
4, 273842, Note_on_c, 0, 38, 102
4, 273845, Note_off_c, 0, 45, 64
4, 274082, Note_on_c, 0, 41, 102
4, 274085, Note_off_c, 0, 38, 64
4, 274322, Note_on_c, 0, 45, 102
4, 274325, Note_off_c, 0, 41, 64
4, 274562, Note_on_c, 0, 50, 102
4, 274565, Note_off_c, 0, 45, 64
4, 274805, Note_off_c, 0, 50, 64
4, 275282, Note_on_c, 0, 49, 102
4, 275525, Note_off_c, 0, 49, 64
4, 276002, Note_on_c, 0, 50, 102
4, 276242, Note_on_c, 0, 41, 102
4, 276245, Note_off_c, 0, 50, 64
4, 276482, Note_on_c, 0, 43, 102
4, 276485, Note_off_c, 0, 41, 64
4, 276722, Note_on_c, 0, 45, 102
4, 276725, Note_off_c, 0, 43, 64
4, 276962, Note_on_c, 0, 49, 102
4, 276965, Note_off_c, 0, 45, 64
4, 277202, Note_on_c, 0, 45, 102
4, 277205, Note_off_c, 0, 49, 64
4, 277442, Note_on_c, 0, 50, 102
4, 277445, Note_off_c, 0, 45, 64
4, 277685, Note_off_c, 0, 50, 64
4, 278162, Note_on_c, 0, 44, 102
4, 278405, Note_off_c, 0, 44, 64
4, 278882, Note_on_c, 0, 45, 102
4, 279122, Note_on_c, 0, 48, 102
4, 279125, Note_off_c, 0, 45, 64
4, 279362, Note_on_c, 0, 50, 102
4, 279365, Note_off_c, 0, 48, 64
4, 279602, Note_on_c, 0, 52, 102
4, 279605, Note_off_c, 0, 50, 64
4, 279842, Note_on_c, 0, 44, 102
4, 279845, Note_off_c, 0, 52, 64
4, 280082, Note_on_c, 0, 40, 102
4, 280085, Note_off_c, 0, 44, 64
4, 280322, Note_on_c, 0, 45, 102
4, 280325, Note_off_c, 0, 40, 64
4, 280562, Note_on_c, 0, 45, 102
4, 280565, Note_off_c, 0, 45, 64
4, 280802, Note_on_c, 0, 45, 102
4, 280805, Note_off_c, 0, 45, 64
4, 281042, Note_on_c, 0, 47, 102
4, 281045, Note_off_c, 0, 45, 64
4, 281282, Note_on_c, 0, 47, 102
4, 281285, Note_off_c, 0, 47, 64
4, 281522, Note_on_c, 0, 47, 102
4, 281525, Note_off_c, 0, 47, 64
4, 281762, Note_on_c, 0, 48, 102
4, 281765, Note_off_c, 0, 47, 64
4, 282002, Note_on_c, 0, 48, 102
4, 282005, Note_off_c, 0, 48, 64
4, 282242, Note_on_c, 0, 48, 102
4, 282245, Note_off_c, 0, 48, 64
4, 282482, Note_on_c, 0, 50, 102
4, 282485, Note_off_c, 0, 48, 64
4, 282722, Note_on_c, 0, 50, 102
4, 282725, Note_off_c, 0, 50, 64
4, 282962, Note_on_c, 0, 50, 102
4, 282965, Note_off_c, 0, 50, 64
4, 283202, Note_on_c, 0, 52, 102
4, 283205, Note_off_c, 0, 50, 64
4, 283445, Note_off_c, 0, 52, 64
4, 283682, Note_on_c, 0, 56, 102
4, 283922, Note_on_c, 0, 57, 102
4, 283925, Note_off_c, 0, 56, 64
4, 284165, Note_off_c, 0, 57, 64
4, 284402, Note_on_c, 0, 49, 102
4, 284642, Note_on_c, 0, 50, 102
4, 284645, Note_off_c, 0, 49, 64
4, 284885, Note_off_c, 0, 50, 64
4, 285122, Note_on_c, 0, 54, 102
4, 285362, Note_on_c, 0, 55, 102
4, 285365, Note_off_c, 0, 54, 64
4, 285605, Note_off_c, 0, 55, 64
4, 285842, Note_on_c, 0, 47, 102
4, 286082, Note_on_c, 0, 48, 102
4, 286085, Note_off_c, 0, 47, 64
4, 286322, Note_on_c, 0, 48, 102
4, 286325, Note_off_c, 0, 48, 64
4, 286562, Note_on_c, 0, 48, 102
4, 286565, Note_off_c, 0, 48, 64
4, 286802, Note_on_c, 0, 49, 102
4, 286805, Note_off_c, 0, 48, 64
4, 287042, Note_on_c, 0, 49, 102
4, 287045, Note_off_c, 0, 49, 64
4, 287282, Note_on_c, 0, 49, 102
4, 287285, Note_off_c, 0, 49, 64
4, 287522, Note_on_c, 0, 50, 102
4, 287525, Note_off_c, 0, 49, 64
4, 287762, Note_on_c, 0, 50, 102
4, 287765, Note_off_c, 0, 50, 64
4, 288002, Note_on_c, 0, 50, 102
4, 288005, Note_off_c, 0, 50, 64
4, 288242, Note_on_c, 0, 44, 102
4, 288245, Note_off_c, 0, 50, 64
4, 288482, Note_on_c, 0, 44, 102
4, 288485, Note_off_c, 0, 44, 64
4, 288722, Note_on_c, 0, 44, 102
4, 288725, Note_off_c, 0, 44, 64
4, 288962, Note_on_c, 0, 45, 102
4, 288965, Note_off_c, 0, 44, 64
4, 289202, Note_on_c, 0, 47, 102
4, 289205, Note_off_c, 0, 45, 64
4, 289442, Note_on_c, 0, 48, 102
4, 289445, Note_off_c, 0, 47, 64
4, 289682, Note_on_c, 0, 50, 102
4, 289685, Note_off_c, 0, 48, 64
4, 289922, Note_on_c, 0, 52, 102
4, 289925, Note_off_c, 0, 50, 64
4, 290162, Note_on_c, 0, 53, 102
4, 290165, Note_off_c, 0, 52, 64
4, 290402, Note_on_c, 0, 52, 102
4, 290405, Note_off_c, 0, 53, 64
4, 290642, Note_on_c, 0, 50, 102
4, 290645, Note_off_c, 0, 52, 64
4, 290882, Note_on_c, 0, 52, 102
4, 290885, Note_off_c, 0, 50, 64
4, 291122, Note_on_c, 0, 45, 102
4, 291125, Note_off_c, 0, 52, 64
4, 291362, Note_on_c, 0, 57, 102
4, 291365, Note_off_c, 0, 45, 64
4, 291602, Note_on_c, 0, 55, 102
4, 291605, Note_off_c, 0, 57, 64
4, 291842, Note_on_c, 0, 53, 102
4, 291845, Note_off_c, 0, 55, 64
4, 292082, Note_on_c, 0, 62, 102
4, 292085, Note_off_c, 0, 53, 64
4, 292322, Note_on_c, 0, 62, 102
4, 292325, Note_off_c, 0, 62, 64
4, 292562, Note_on_c, 0, 60, 102
4, 292565, Note_off_c, 0, 62, 64
4, 292802, Note_on_c, 0, 60, 102
4, 292805, Note_off_c, 0, 60, 64
4, 293042, Note_on_c, 0, 60, 102
4, 293045, Note_off_c, 0, 60, 64
4, 293282, Note_on_c, 0, 58, 102
4, 293285, Note_off_c, 0, 60, 64
4, 293522, Note_on_c, 0, 58, 102
4, 293525, Note_off_c, 0, 58, 64
4, 293762, Note_on_c, 0, 58, 102
4, 293765, Note_off_c, 0, 58, 64
4, 294002, Note_on_c, 0, 57, 102
4, 294005, Note_off_c, 0, 58, 64
4, 294242, Note_on_c, 0, 57, 102
4, 294245, Note_off_c, 0, 57, 64
4, 294482, Note_on_c, 0, 57, 102
4, 294485, Note_off_c, 0, 57, 64
4, 294722, Note_on_c, 0, 58, 102
4, 294725, Note_off_c, 0, 57, 64
4, 294962, Note_on_c, 0, 55, 102
4, 294965, Note_off_c, 0, 58, 64
4, 295202, Note_on_c, 0, 52, 102
4, 295205, Note_off_c, 0, 55, 64
4, 295442, Note_on_c, 0, 57, 102
4, 295445, Note_off_c, 0, 52, 64
4, 295682, Note_on_c, 0, 45, 102
4, 295685, Note_off_c, 0, 57, 64
4, 295922, Note_on_c, 0, 47, 102
4, 295925, Note_off_c, 0, 45, 64
4, 296162, Note_on_c, 0, 49, 102
4, 296165, Note_off_c, 0, 47, 64
4, 296402, Note_on_c, 0, 45, 102
4, 296405, Note_off_c, 0, 49, 64
4, 296642, Note_on_c, 0, 49, 102
4, 296645, Note_off_c, 0, 45, 64
4, 296882, Note_on_c, 0, 50, 102
4, 296885, Note_off_c, 0, 49, 64
4, 297122, Note_on_c, 0, 38, 102
4, 297125, Note_off_c, 0, 50, 64
4, 297362, Note_on_c, 0, 50, 102
4, 297365, Note_off_c, 0, 38, 64
4, 297602, Note_on_c, 0, 43, 102
4, 297605, Note_off_c, 0, 50, 64
4, 297842, Note_on_c, 0, 46, 102
4, 297845, Note_off_c, 0, 43, 64
4, 298082, Note_on_c, 0, 43, 102
4, 298085, Note_off_c, 0, 46, 64
4, 298322, Note_on_c, 0, 45, 102
4, 298325, Note_off_c, 0, 43, 64
4, 298805, Note_off_c, 0, 45, 64
4, 299042, Note_on_c, 0, 46, 102
4, 299282, Note_on_c, 0, 43, 102
4, 299285, Note_off_c, 0, 46, 64
4, 299522, Note_on_c, 0, 45, 102
4, 299525, Note_off_c, 0, 43, 64
4, 299762, Note_on_c, 0, 38, 102
4, 299765, Note_off_c, 0, 45, 64
4, 300002, Note_on_c, 0, 50, 102
4, 300005, Note_off_c, 0, 38, 64
4, 300242, Note_on_c, 0, 48, 102
4, 300245, Note_off_c, 0, 50, 64
4, 300482, Note_on_c, 0, 46, 102
4, 300485, Note_off_c, 0, 48, 64
4, 300722, Note_on_c, 0, 46, 102
4, 300725, Note_off_c, 0, 46, 64
4, 300962, Note_on_c, 0, 46, 102
4, 300965, Note_off_c, 0, 46, 64
4, 301202, Note_on_c, 0, 46, 102
4, 301205, Note_off_c, 0, 46, 64
4, 301442, Note_on_c, 0, 46, 102
4, 301445, Note_off_c, 0, 46, 64
4, 301682, Note_on_c, 0, 46, 102
4, 301685, Note_off_c, 0, 46, 64
4, 301922, Note_on_c, 0, 46, 102
4, 301925, Note_off_c, 0, 46, 64
4, 302162, Note_on_c, 0, 45, 102
4, 302165, Note_off_c, 0, 46, 64
4, 302402, Note_on_c, 0, 43, 102
4, 302405, Note_off_c, 0, 45, 64
4, 302642, Note_on_c, 0, 41, 102
4, 302645, Note_off_c, 0, 43, 64
4, 302882, Note_on_c, 0, 45, 102
4, 302885, Note_off_c, 0, 41, 64
4, 303122, Note_on_c, 0, 48, 102
4, 303125, Note_off_c, 0, 45, 64
4, 303362, Note_on_c, 0, 53, 102
4, 303365, Note_off_c, 0, 48, 64
4, 303602, Note_on_c, 0, 53, 102
4, 303605, Note_off_c, 0, 53, 64
4, 303842, Note_on_c, 0, 53, 102
4, 303845, Note_off_c, 0, 53, 64
4, 304082, Note_on_c, 0, 53, 102
4, 304085, Note_off_c, 0, 53, 64
4, 304322, Note_on_c, 0, 53, 102
4, 304325, Note_off_c, 0, 53, 64
4, 304562, Note_on_c, 0, 53, 102
4, 304565, Note_off_c, 0, 53, 64
4, 304802, Note_on_c, 0, 53, 102
4, 304805, Note_off_c, 0, 53, 64
4, 305042, Note_on_c, 0, 52, 102
4, 305045, Note_off_c, 0, 53, 64
4, 305282, Note_on_c, 0, 50, 102
4, 305285, Note_off_c, 0, 52, 64
4, 305522, Note_on_c, 0, 48, 102
4, 305525, Note_off_c, 0, 50, 64
4, 305762, Note_on_c, 0, 52, 102
4, 305765, Note_off_c, 0, 48, 64
4, 306002, Note_on_c, 0, 55, 102
4, 306005, Note_off_c, 0, 52, 64
4, 306242, Note_on_c, 0, 60, 102
4, 306245, Note_off_c, 0, 55, 64
4, 306482, Note_on_c, 0, 58, 102
4, 306485, Note_off_c, 0, 60, 64
4, 306722, Note_on_c, 0, 57, 102
4, 306725, Note_off_c, 0, 58, 64
4, 306962, Note_on_c, 0, 58, 102
4, 306965, Note_off_c, 0, 57, 64
4, 307202, Note_on_c, 0, 57, 102
4, 307205, Note_off_c, 0, 58, 64
4, 307442, Note_on_c, 0, 55, 102
4, 307445, Note_off_c, 0, 57, 64
4, 307682, Note_on_c, 0, 57, 102
4, 307685, Note_off_c, 0, 55, 64
4, 307922, Note_on_c, 0, 60, 102
4, 307925, Note_off_c, 0, 57, 64
4, 308162, Note_on_c, 0, 54, 102
4, 308165, Note_off_c, 0, 60, 64
4, 308402, Note_on_c, 0, 55, 102
4, 308405, Note_off_c, 0, 54, 64
4, 308642, Note_on_c, 0, 53, 102
4, 308645, Note_off_c, 0, 55, 64
4, 308882, Note_on_c, 0, 51, 102
4, 308885, Note_off_c, 0, 53, 64
4, 309122, Note_on_c, 0, 53, 102
4, 309125, Note_off_c, 0, 51, 64
4, 309362, Note_on_c, 0, 51, 102
4, 309365, Note_off_c, 0, 53, 64
4, 309602, Note_on_c, 0, 50, 102
4, 309605, Note_off_c, 0, 51, 64
4, 309842, Note_on_c, 0, 51, 102
4, 309845, Note_off_c, 0, 50, 64
4, 310082, Note_on_c, 0, 60, 102
4, 310085, Note_off_c, 0, 51, 64
4, 310322, Note_on_c, 0, 45, 102
4, 310325, Note_off_c, 0, 60, 64
4, 310562, Note_on_c, 0, 46, 102
4, 310565, Note_off_c, 0, 45, 64
4, 310802, Note_on_c, 0, 48, 102
4, 310805, Note_off_c, 0, 46, 64
4, 311042, Note_on_c, 0, 50, 102
4, 311045, Note_off_c, 0, 48, 64
4, 311282, Note_on_c, 0, 43, 102
4, 311285, Note_off_c, 0, 50, 64
4, 311522, Note_on_c, 0, 55, 102
4, 311525, Note_off_c, 0, 43, 64
4, 311762, Note_on_c, 0, 53, 102
4, 311765, Note_off_c, 0, 55, 64
4, 312002, Note_on_c, 0, 52, 102
4, 312005, Note_off_c, 0, 53, 64
4, 312242, Note_on_c, 0, 48, 102
4, 312245, Note_off_c, 0, 52, 64
4, 312482, Note_on_c, 0, 52, 102
4, 312485, Note_off_c, 0, 48, 64
4, 312722, Note_on_c, 0, 41, 102
4, 312725, Note_off_c, 0, 52, 64
4, 312962, Note_on_c, 0, 53, 102
4, 312965, Note_off_c, 0, 41, 64
4, 313202, Note_on_c, 0, 52, 102
4, 313205, Note_off_c, 0, 53, 64
4, 313442, Note_on_c, 0, 50, 102
4, 313445, Note_off_c, 0, 52, 64
4, 313682, Note_on_c, 0, 46, 102
4, 313685, Note_off_c, 0, 50, 64
4, 313922, Note_on_c, 0, 50, 102
4, 313925, Note_off_c, 0, 46, 64
4, 314162, Note_on_c, 0, 40, 102
4, 314165, Note_off_c, 0, 50, 64
4, 314402, Note_on_c, 0, 52, 102
4, 314405, Note_off_c, 0, 40, 64
4, 314642, Note_on_c, 0, 50, 102
4, 314645, Note_off_c, 0, 52, 64
4, 314882, Note_on_c, 0, 49, 102
4, 314885, Note_off_c, 0, 50, 64
4, 315122, Note_on_c, 0, 45, 102
4, 315125, Note_off_c, 0, 49, 64
4, 315362, Note_on_c, 0, 49, 102
4, 315365, Note_off_c, 0, 45, 64
4, 315602, Note_on_c, 0, 38, 102
4, 315605, Note_off_c, 0, 49, 64
4, 315842, Note_on_c, 0, 50, 102
4, 315845, Note_off_c, 0, 38, 64
4, 316082, Note_on_c, 0, 48, 102
4, 316085, Note_off_c, 0, 50, 64
4, 316322, Note_on_c, 0, 47, 102
4, 316325, Note_off_c, 0, 48, 64
4, 316562, Note_on_c, 0, 48, 102
4, 316565, Note_off_c, 0, 47, 64
4, 316802, Note_on_c, 0, 50, 102
4, 316805, Note_off_c, 0, 48, 64
4, 317042, Note_on_c, 0, 44, 102
4, 317045, Note_off_c, 0, 50, 64
4, 317282, Note_on_c, 0, 40, 102
4, 317285, Note_off_c, 0, 44, 64
4, 317522, Note_on_c, 0, 44, 102
4, 317525, Note_off_c, 0, 40, 64
4, 317762, Note_on_c, 0, 45, 102
4, 317765, Note_off_c, 0, 44, 64
4, 318002, Note_on_c, 0, 57, 102
4, 318005, Note_off_c, 0, 45, 64
4, 318242, Note_on_c, 0, 57, 102
4, 318245, Note_off_c, 0, 57, 64
4, 318482, Note_on_c, 0, 55, 102
4, 318485, Note_off_c, 0, 57, 64
4, 318722, Note_on_c, 0, 55, 102
4, 318725, Note_off_c, 0, 55, 64
4, 318962, Note_on_c, 0, 55, 102
4, 318965, Note_off_c, 0, 55, 64
4, 319202, Note_on_c, 0, 53, 102
4, 319205, Note_off_c, 0, 55, 64
4, 319442, Note_on_c, 0, 53, 102
4, 319445, Note_off_c, 0, 53, 64
4, 319682, Note_on_c, 0, 53, 102
4, 319685, Note_off_c, 0, 53, 64
4, 319922, Note_on_c, 0, 52, 102
4, 319925, Note_off_c, 0, 53, 64
4, 320162, Note_on_c, 0, 52, 102
4, 320165, Note_off_c, 0, 52, 64
4, 320402, Note_on_c, 0, 52, 102
4, 320405, Note_off_c, 0, 52, 64
4, 320642, Note_on_c, 0, 53, 102
4, 320645, Note_off_c, 0, 52, 64
4, 320882, Note_on_c, 0, 50, 102
4, 320885, Note_off_c, 0, 53, 64
4, 321122, Note_on_c, 0, 47, 102
4, 321125, Note_off_c, 0, 50, 64
4, 321362, Note_on_c, 0, 52, 102
4, 321365, Note_off_c, 0, 47, 64
4, 321602, Note_on_c, 0, 40, 102
4, 321605, Note_off_c, 0, 52, 64
4, 321842, Note_on_c, 0, 42, 102
4, 321845, Note_off_c, 0, 40, 64
4, 322082, Note_on_c, 0, 44, 102
4, 322085, Note_off_c, 0, 42, 64
4, 322322, Note_on_c, 0, 40, 102
4, 322325, Note_off_c, 0, 44, 64
4, 322562, Note_on_c, 0, 44, 102
4, 322565, Note_off_c, 0, 40, 64
4, 322802, Note_on_c, 0, 45, 102
4, 322805, Note_off_c, 0, 44, 64
4, 323042, Note_on_c, 0, 48, 102
4, 323045, Note_off_c, 0, 45, 64
4, 323282, Note_on_c, 0, 45, 102
4, 323285, Note_off_c, 0, 48, 64
4, 323522, Note_on_c, 0, 50, 102
4, 323525, Note_off_c, 0, 45, 64
4, 323762, Note_on_c, 0, 53, 102
4, 323765, Note_off_c, 0, 50, 64
4, 324002, Note_on_c, 0, 50, 102
4, 324005, Note_off_c, 0, 53, 64
4, 324242, Note_on_c, 0, 52, 102
4, 324245, Note_off_c, 0, 50, 64
4, 324725, Note_off_c, 0, 52, 64
4, 324962, Note_on_c, 0, 53, 102
4, 325202, Note_on_c, 0, 50, 102
4, 325205, Note_off_c, 0, 53, 64
4, 325442, Note_on_c, 0, 52, 102
4, 325445, Note_off_c, 0, 50, 64
4, 325682, Note_on_c, 0, 45, 102
4, 325685, Note_off_c, 0, 52, 64
4, 325922, Note_on_c, 0, 57, 102
4, 325925, Note_off_c, 0, 45, 64
4, 326162, Note_on_c, 0, 55, 102
4, 326165, Note_off_c, 0, 57, 64
4, 326402, Note_on_c, 0, 54, 102
4, 326405, Note_off_c, 0, 55, 64
4, 326882, Note_on_c, 0, 52, 102
4, 326885, Note_off_c, 0, 54, 64
4, 327122, Note_on_c, 0, 51, 102
4, 327125, Note_off_c, 0, 52, 64
4, 327602, Note_on_c, 0, 54, 102
4, 327605, Note_off_c, 0, 51, 64
4, 327842, Note_on_c, 0, 43, 102
4, 327845, Note_off_c, 0, 54, 64
4, 328082, Note_on_c, 0, 45, 102
4, 328085, Note_off_c, 0, 43, 64
4, 328322, Note_on_c, 0, 47, 102
4, 328325, Note_off_c, 0, 45, 64
4, 328562, Note_on_c, 0, 40, 102
4, 328565, Note_off_c, 0, 47, 64
4, 328802, Note_on_c, 0, 43, 102
4, 328805, Note_off_c, 0, 40, 64
4, 329042, Note_on_c, 0, 47, 102
4, 329045, Note_off_c, 0, 43, 64
4, 329282, Note_on_c, 0, 52, 102
4, 329285, Note_off_c, 0, 47, 64
4, 329762, Note_on_c, 0, 50, 102
4, 329765, Note_off_c, 0, 52, 64
4, 330002, Note_on_c, 0, 49, 102
4, 330005, Note_off_c, 0, 50, 64
4, 330482, Note_on_c, 0, 52, 102
4, 330485, Note_off_c, 0, 49, 64
4, 330722, Note_on_c, 0, 41, 102
4, 330725, Note_off_c, 0, 52, 64
4, 330962, Note_on_c, 0, 43, 102
4, 330965, Note_off_c, 0, 41, 64
4, 331202, Note_on_c, 0, 45, 102
4, 331205, Note_off_c, 0, 43, 64
4, 331442, Note_on_c, 0, 38, 102
4, 331445, Note_off_c, 0, 45, 64
4, 331682, Note_on_c, 0, 43, 102
4, 331685, Note_off_c, 0, 38, 64
4, 331922, Note_on_c, 0, 45, 102
4, 331925, Note_off_c, 0, 43, 64
4, 332162, Note_on_c, 0, 50, 102
4, 332165, Note_off_c, 0, 45, 64
4, 332402, Note_on_c, 0, 50, 102
4, 332405, Note_off_c, 0, 50, 64
4, 332642, Note_on_c, 0, 50, 102
4, 332645, Note_off_c, 0, 50, 64
4, 332882, Note_on_c, 0, 52, 102
4, 332885, Note_off_c, 0, 50, 64
4, 333122, Note_on_c, 0, 52, 102
4, 333125, Note_off_c, 0, 52, 64
4, 333362, Note_on_c, 0, 52, 102
4, 333365, Note_off_c, 0, 52, 64
4, 333602, Note_on_c, 0, 53, 102
4, 333605, Note_off_c, 0, 52, 64
4, 333842, Note_on_c, 0, 53, 102
4, 333845, Note_off_c, 0, 53, 64
4, 334082, Note_on_c, 0, 53, 102
4, 334085, Note_off_c, 0, 53, 64
4, 334322, Note_on_c, 0, 55, 102
4, 334325, Note_off_c, 0, 53, 64
4, 334562, Note_on_c, 0, 55, 102
4, 334565, Note_off_c, 0, 55, 64
4, 334802, Note_on_c, 0, 55, 102
4, 334805, Note_off_c, 0, 55, 64
4, 335042, Note_on_c, 0, 57, 102
4, 335045, Note_off_c, 0, 55, 64
4, 335285, Note_off_c, 0, 57, 64
4, 335522, Note_on_c, 0, 49, 102
4, 335762, Note_on_c, 0, 50, 102
4, 335765, Note_off_c, 0, 49, 64
4, 336005, Note_off_c, 0, 50, 64
4, 336242, Note_on_c, 0, 54, 102
4, 336482, Note_on_c, 0, 55, 102
4, 336485, Note_off_c, 0, 54, 64
4, 336725, Note_off_c, 0, 55, 64
4, 336962, Note_on_c, 0, 47, 102
4, 337202, Note_on_c, 0, 48, 102
4, 337205, Note_off_c, 0, 47, 64
4, 337445, Note_off_c, 0, 48, 64
4, 337682, Note_on_c, 0, 52, 102
4, 337922, Note_on_c, 0, 53, 102
4, 337925, Note_off_c, 0, 52, 64
4, 338162, Note_on_c, 0, 53, 102
4, 338165, Note_off_c, 0, 53, 64
4, 338402, Note_on_c, 0, 53, 102
4, 338405, Note_off_c, 0, 53, 64
4, 338642, Note_on_c, 0, 54, 102
4, 338645, Note_off_c, 0, 53, 64
4, 338882, Note_on_c, 0, 54, 102
4, 338885, Note_off_c, 0, 54, 64
4, 339122, Note_on_c, 0, 54, 102
4, 339125, Note_off_c, 0, 54, 64
4, 339362, Note_on_c, 0, 55, 102
4, 339365, Note_off_c, 0, 54, 64
4, 339602, Note_on_c, 0, 55, 102
4, 339605, Note_off_c, 0, 55, 64
4, 339842, Note_on_c, 0, 55, 102
4, 339845, Note_off_c, 0, 55, 64
4, 340082, Note_on_c, 0, 49, 102
4, 340085, Note_off_c, 0, 55, 64
4, 340322, Note_on_c, 0, 49, 102
4, 340325, Note_off_c, 0, 49, 64
4, 340562, Note_on_c, 0, 49, 102
4, 340565, Note_off_c, 0, 49, 64
4, 340802, Note_on_c, 0, 50, 102
4, 340805, Note_off_c, 0, 49, 64
4, 341042, Note_on_c, 0, 48, 102
4, 341045, Note_off_c, 0, 50, 64
4, 341282, Note_on_c, 0, 46, 102
4, 341285, Note_off_c, 0, 48, 64
4, 341522, Note_on_c, 0, 45, 102
4, 341525, Note_off_c, 0, 46, 64
4, 341762, Note_on_c, 0, 41, 102
4, 341765, Note_off_c, 0, 45, 64
4, 342002, Note_on_c, 0, 45, 102
4, 342005, Note_off_c, 0, 41, 64
4, 342242, Note_on_c, 0, 46, 102
4, 342245, Note_off_c, 0, 45, 64
4, 342482, Note_on_c, 0, 43, 102
4, 342485, Note_off_c, 0, 46, 64
4, 342722, Note_on_c, 0, 46, 102
4, 342725, Note_off_c, 0, 43, 64
4, 342962, Note_on_c, 0, 48, 102
4, 342965, Note_off_c, 0, 46, 64
4, 343202, Note_on_c, 0, 46, 102
4, 343205, Note_off_c, 0, 48, 64
4, 343442, Note_on_c, 0, 48, 102
4, 343445, Note_off_c, 0, 46, 64
4, 343682, Note_on_c, 0, 41, 102
4, 343685, Note_off_c, 0, 48, 64
4, 343925, Note_off_c, 0, 41, 64
4, 344402, Note_on_c, 0, 40, 102
4, 344645, Note_off_c, 0, 40, 64
4, 345122, Note_on_c, 0, 41, 102
4, 345362, Note_on_c, 0, 45, 102
4, 345365, Note_off_c, 0, 41, 64
4, 345602, Note_on_c, 0, 46, 102
4, 345605, Note_off_c, 0, 45, 64
4, 345842, Note_on_c, 0, 48, 102
4, 345845, Note_off_c, 0, 46, 64
4, 346082, Note_on_c, 0, 40, 102
4, 346085, Note_off_c, 0, 48, 64
4, 346322, Note_on_c, 0, 42, 102
4, 346325, Note_off_c, 0, 40, 64
4, 346562, Note_on_c, 0, 43, 102
4, 346565, Note_off_c, 0, 42, 64
4, 346805, Note_off_c, 0, 43, 64
4, 347282, Note_on_c, 0, 42, 102
4, 347525, Note_off_c, 0, 42, 64
4, 348002, Note_on_c, 0, 43, 102
4, 348242, Note_on_c, 0, 46, 102
4, 348245, Note_off_c, 0, 43, 64
4, 348482, Note_on_c, 0, 48, 102
4, 348485, Note_off_c, 0, 46, 64
4, 348722, Note_on_c, 0, 50, 102
4, 348725, Note_off_c, 0, 48, 64
4, 348962, Note_on_c, 0, 54, 102
4, 348965, Note_off_c, 0, 50, 64
4, 349202, Note_on_c, 0, 50, 102
4, 349205, Note_off_c, 0, 54, 64
4, 349442, Note_on_c, 0, 55, 102
4, 349445, Note_off_c, 0, 50, 64
4, 349682, Note_on_c, 0, 57, 102
4, 349685, Note_off_c, 0, 55, 64
4, 349922, Note_on_c, 0, 58, 102
4, 349925, Note_off_c, 0, 57, 64
4, 350162, Note_on_c, 0, 48, 102
4, 350165, Note_off_c, 0, 58, 64
4, 350402, Note_on_c, 0, 50, 102
4, 350405, Note_off_c, 0, 48, 64
4, 350642, Note_on_c, 0, 51, 102
4, 350645, Note_off_c, 0, 50, 64
4, 350882, Note_on_c, 0, 50, 102
4, 350885, Note_off_c, 0, 51, 64
4, 351122, Note_on_c, 0, 48, 102
4, 351125, Note_off_c, 0, 50, 64
4, 351362, Note_on_c, 0, 50, 102
4, 351365, Note_off_c, 0, 48, 64
4, 351602, Note_on_c, 0, 43, 102
4, 351605, Note_off_c, 0, 50, 64
4, 351722, Note_on_c, 0, 55, 102
4, 351725, Note_off_c, 0, 43, 64
4, 351842, Note_on_c, 0, 53, 102
4, 351845, Note_off_c, 0, 55, 64
4, 351922, Note_on_c, 0, 55, 102
4, 351925, Note_off_c, 0, 53, 64
4, 352002, Note_on_c, 0, 52, 102
4, 352005, Note_off_c, 0, 55, 64
4, 352082, Note_on_c, 0, 52, 102
4, 352085, Note_off_c, 0, 52, 64
4, 352162, Note_on_c, 0, 53, 102
4, 352165, Note_off_c, 0, 52, 64
4, 352242, Note_on_c, 0, 50, 102
4, 352245, Note_off_c, 0, 53, 64
4, 352322, Note_on_c, 0, 50, 102
4, 352325, Note_off_c, 0, 50, 64
4, 352562, Note_on_c, 0, 62, 102
4, 352565, Note_off_c, 0, 50, 64
4, 352802, Note_on_c, 0, 62, 102
4, 352805, Note_off_c, 0, 62, 64
4, 353042, Note_on_c, 0, 60, 102
4, 353045, Note_off_c, 0, 62, 64
4, 353282, Note_on_c, 0, 60, 102
4, 353285, Note_off_c, 0, 60, 64
4, 353522, Note_on_c, 0, 60, 102
4, 353525, Note_off_c, 0, 60, 64
4, 353762, Note_on_c, 0, 58, 102
4, 353765, Note_off_c, 0, 60, 64
4, 354002, Note_on_c, 0, 58, 102
4, 354005, Note_off_c, 0, 58, 64
4, 354242, Note_on_c, 0, 58, 102
4, 354245, Note_off_c, 0, 58, 64
4, 354482, Note_on_c, 0, 57, 102
4, 354485, Note_off_c, 0, 58, 64
4, 354722, Note_on_c, 0, 57, 102
4, 354725, Note_off_c, 0, 57, 64
4, 354962, Note_on_c, 0, 57, 102
4, 354965, Note_off_c, 0, 57, 64
4, 355202, Note_on_c, 0, 58, 102
4, 355205, Note_off_c, 0, 57, 64
4, 355442, Note_on_c, 0, 55, 102
4, 355445, Note_off_c, 0, 58, 64
4, 355682, Note_on_c, 0, 52, 102
4, 355685, Note_off_c, 0, 55, 64
4, 355922, Note_on_c, 0, 57, 102
4, 355925, Note_off_c, 0, 52, 64
4, 356162, Note_on_c, 0, 45, 102
4, 356165, Note_off_c, 0, 57, 64
4, 356402, Note_on_c, 0, 47, 102
4, 356405, Note_off_c, 0, 45, 64
4, 356642, Note_on_c, 0, 49, 102
4, 356645, Note_off_c, 0, 47, 64
4, 356882, Note_on_c, 0, 45, 102
4, 356885, Note_off_c, 0, 49, 64
4, 357122, Note_on_c, 0, 49, 102
4, 357125, Note_off_c, 0, 45, 64
4, 357362, Note_on_c, 0, 50, 102
4, 357365, Note_off_c, 0, 49, 64
4, 357602, Note_on_c, 0, 48, 102
4, 357605, Note_off_c, 0, 50, 64
4, 357842, Note_on_c, 0, 47, 102
4, 357845, Note_off_c, 0, 48, 64
4, 358082, Note_on_c, 0, 45, 102
4, 358085, Note_off_c, 0, 47, 64
4, 358322, Note_on_c, 0, 57, 102
4, 358325, Note_off_c, 0, 45, 64
4, 358562, Note_on_c, 0, 57, 102
4, 358565, Note_off_c, 0, 57, 64
4, 358802, Note_on_c, 0, 55, 102
4, 358805, Note_off_c, 0, 57, 64
4, 359042, Note_on_c, 0, 55, 102
4, 359045, Note_off_c, 0, 55, 64
4, 359282, Note_on_c, 0, 55, 102
4, 359285, Note_off_c, 0, 55, 64
4, 359522, Note_on_c, 0, 53, 102
4, 359525, Note_off_c, 0, 55, 64
4, 359762, Note_on_c, 0, 53, 102
4, 359765, Note_off_c, 0, 53, 64
4, 360002, Note_on_c, 0, 53, 102
4, 360005, Note_off_c, 0, 53, 64
4, 360242, Note_on_c, 0, 52, 102
4, 360245, Note_off_c, 0, 53, 64
4, 360482, Note_on_c, 0, 52, 102
4, 360485, Note_off_c, 0, 52, 64
4, 360722, Note_on_c, 0, 52, 102
4, 360725, Note_off_c, 0, 52, 64
4, 360962, Note_on_c, 0, 53, 102
4, 360965, Note_off_c, 0, 52, 64
4, 361202, Note_on_c, 0, 50, 102
4, 361205, Note_off_c, 0, 53, 64
4, 361442, Note_on_c, 0, 47, 102
4, 361445, Note_off_c, 0, 50, 64
4, 361682, Note_on_c, 0, 52, 102
4, 361685, Note_off_c, 0, 47, 64
4, 361922, Note_on_c, 0, 40, 102
4, 361925, Note_off_c, 0, 52, 64
4, 362162, Note_on_c, 0, 42, 102
4, 362165, Note_off_c, 0, 40, 64
4, 362402, Note_on_c, 0, 44, 102
4, 362405, Note_off_c, 0, 42, 64
4, 362642, Note_on_c, 0, 40, 102
4, 362645, Note_off_c, 0, 44, 64
4, 362882, Note_on_c, 0, 44, 102
4, 362885, Note_off_c, 0, 40, 64
4, 363122, Note_on_c, 0, 45, 102
4, 363125, Note_off_c, 0, 44, 64
4, 363362, Note_on_c, 0, 47, 102
4, 363365, Note_off_c, 0, 45, 64
4, 363602, Note_on_c, 0, 48, 102
4, 363605, Note_off_c, 0, 47, 64
4, 363842, Note_on_c, 0, 50, 102
4, 363845, Note_off_c, 0, 48, 64
4, 364082, Note_on_c, 0, 52, 102
4, 364085, Note_off_c, 0, 50, 64
4, 364322, Note_on_c, 0, 53, 102
4, 364325, Note_off_c, 0, 52, 64
4, 364562, Note_on_c, 0, 52, 102
4, 364565, Note_off_c, 0, 53, 64
4, 364802, Note_on_c, 0, 54, 102
4, 364805, Note_off_c, 0, 52, 64
4, 365042, Note_on_c, 0, 55, 102
4, 365045, Note_off_c, 0, 54, 64
4, 365282, Note_on_c, 0, 54, 102
4, 365285, Note_off_c, 0, 55, 64
4, 365522, Note_on_c, 0, 56, 102
4, 365525, Note_off_c, 0, 54, 64
4, 365762, Note_on_c, 0, 57, 102
4, 365765, Note_off_c, 0, 56, 64
4, 366002, Note_on_c, 0, 56, 102
4, 366005, Note_off_c, 0, 57, 64
4, 366242, Note_on_c, 0, 57, 102
4, 366245, Note_off_c, 0, 56, 64
4, 366482, Note_on_c, 0, 59, 102
4, 366485, Note_off_c, 0, 57, 64
4, 366722, Note_on_c, 0, 57, 102
4, 366725, Note_off_c, 0, 59, 64
4, 366962, Note_on_c, 0, 59, 102
4, 366965, Note_off_c, 0, 57, 64
4, 367202, Note_on_c, 0, 60, 102
4, 367205, Note_off_c, 0, 59, 64
4, 367442, Note_on_c, 0, 59, 102
4, 367445, Note_off_c, 0, 60, 64
4, 367682, Note_on_c, 0, 61, 102
4, 367685, Note_off_c, 0, 59, 64
4, 367922, Note_on_c, 0, 62, 102
4, 367925, Note_off_c, 0, 61, 64
4, 368162, Note_on_c, 0, 61, 102
4, 368165, Note_off_c, 0, 62, 64
4, 368402, Note_on_c, 0, 57, 102
4, 368405, Note_off_c, 0, 61, 64
4, 368642, Note_on_c, 0, 55, 102
4, 368645, Note_off_c, 0, 57, 64
4, 368882, Note_on_c, 0, 53, 102
4, 368885, Note_off_c, 0, 55, 64
4, 369122, Note_on_c, 0, 55, 102
4, 369125, Note_off_c, 0, 53, 64
4, 369362, Note_on_c, 0, 57, 102
4, 369365, Note_off_c, 0, 55, 64
4, 369602, Note_on_c, 0, 50, 102
4, 369605, Note_off_c, 0, 57, 64
4, 369842, Note_on_c, 0, 62, 102
4, 369845, Note_off_c, 0, 50, 64
4, 370082, Note_on_c, 0, 62, 102
4, 370085, Note_off_c, 0, 62, 64
4, 370322, Note_on_c, 0, 60, 102
4, 370325, Note_off_c, 0, 62, 64
4, 370562, Note_on_c, 0, 60, 102
4, 370565, Note_off_c, 0, 60, 64
4, 370802, Note_on_c, 0, 60, 102
4, 370805, Note_off_c, 0, 60, 64
4, 371042, Note_on_c, 0, 58, 102
4, 371045, Note_off_c, 0, 60, 64
4, 371282, Note_on_c, 0, 58, 102
4, 371285, Note_off_c, 0, 58, 64
4, 371522, Note_on_c, 0, 58, 102
4, 371525, Note_off_c, 0, 58, 64
4, 371762, Note_on_c, 0, 57, 102
4, 371765, Note_off_c, 0, 58, 64
4, 372002, Note_on_c, 0, 57, 102
4, 372005, Note_off_c, 0, 57, 64
4, 372242, Note_on_c, 0, 57, 102
4, 372245, Note_off_c, 0, 57, 64
4, 372482, Note_on_c, 0, 58, 102
4, 372485, Note_off_c, 0, 57, 64
4, 372722, Note_on_c, 0, 55, 102
4, 372725, Note_off_c, 0, 58, 64
4, 372962, Note_on_c, 0, 52, 102
4, 372965, Note_off_c, 0, 55, 64
4, 373202, Note_on_c, 0, 57, 102
4, 373205, Note_off_c, 0, 52, 64
4, 373442, Note_on_c, 0, 45, 102
4, 373445, Note_off_c, 0, 57, 64
4, 373682, Note_on_c, 0, 47, 102
4, 373685, Note_off_c, 0, 45, 64
4, 373922, Note_on_c, 0, 49, 102
4, 373925, Note_off_c, 0, 47, 64
4, 374162, Note_on_c, 0, 45, 102
4, 374165, Note_off_c, 0, 49, 64
4, 374402, Note_on_c, 0, 49, 102
4, 374405, Note_off_c, 0, 45, 64
4, 374642, Note_on_c, 0, 50, 102
4, 374645, Note_off_c, 0, 49, 64
4, 374882, Note_on_c, 0, 38, 102
4, 374885, Note_off_c, 0, 50, 64
4, 375122, Note_on_c, 0, 50, 102
4, 375125, Note_off_c, 0, 38, 64
4, 375362, Note_on_c, 0, 43, 102
4, 375365, Note_off_c, 0, 50, 64
4, 375602, Note_on_c, 0, 46, 102
4, 375605, Note_off_c, 0, 43, 64
4, 375842, Note_on_c, 0, 43, 102
4, 375845, Note_off_c, 0, 46, 64
4, 376082, Note_on_c, 0, 45, 102
4, 376085, Note_off_c, 0, 43, 64
4, 376565, Note_off_c, 0, 45, 64
4, 376802, Note_on_c, 0, 46, 102
4, 377042, Note_on_c, 0, 43, 102
4, 377045, Note_off_c, 0, 46, 64
4, 377282, Note_on_c, 0, 45, 102
4, 377285, Note_off_c, 0, 43, 64
4, 377522, Note_on_c, 0, 38, 102
4, 377525, Note_off_c, 0, 45, 64
4, 378005, Note_off_c, 0, 38, 64
4, 378240, End_track
0, 0, End_of_file
