0, 0, Header, 1, 8, 120
1, 0, Start_track
1, 0, Text_t, "\015\012\015\012Mass in B Minor          Johann Sebastion Bach\015\012No. 10 Aria, Quoniam\015\012\015\012seq by David Siu  dss@po.cwru.edu\015\012\015\012\015\012"
1, 0, Time_signature, 3, 2, 24, 8
1, 0, Key_signature, 2, "major"
1, 0, Tempo, 625000
1, 360, Tempo, 689655
1, 41658, Tempo, 857143
1, 41704, Tempo, 923077
1, 41760, Tempo, 689655
1, 46440, End_track
2, 0, Start_track
2, 0, MIDI_port, 0
2, 0, Title_t, "Instrument  1"
2, 0, Program_c, 0, 60
2, 46440, End_track
3, 0, Start_track
3, 0, MIDI_port, 0
3, 0, Title_t, "Corno da caccia"
3, 0, Program_c, 0, 60
3, 360, Note_on_c, 0, 62, 88
3, 480, Note_on_c, 0, 62, 0
3, 480, Note_on_c, 0, 74, 88
3, 600, Note_on_c, 0, 74, 0
3, 600, Note_on_c, 0, 73, 88
3, 720, Note_on_c, 0, 73, 0
3, 720, Note_on_c, 0, 74, 88
3, 840, Note_on_c, 0, 74, 0
3, 840, Note_on_c, 0, 62, 88
3, 1080, Note_on_c, 0, 62, 0
3, 1080, Note_on_c, 0, 57, 88
3, 1200, Note_on_c, 0, 57, 0
3, 1200, Note_on_c, 0, 67, 88
3, 1320, Note_on_c, 0, 67, 0
3, 1320, Note_on_c, 0, 66, 88
3, 1440, Note_on_c, 0, 66, 0
3, 1440, Note_on_c, 0, 64, 88
3, 1560, Note_on_c, 0, 64, 0
3, 1560, Note_on_c, 0, 57, 88
3, 1800, Note_on_c, 0, 57, 0
3, 1860, Note_on_c, 0, 69, 88
3, 1920, Note_on_c, 0, 69, 0
3, 1920, Note_on_c, 0, 71, 88
3, 1980, Note_on_c, 0, 71, 0
3, 1980, Note_on_c, 0, 69, 88
3, 2040, Note_on_c, 0, 69, 0
3, 2040, Note_on_c, 0, 69, 88
3, 2055, Note_on_c, 0, 69, 0
3, 2055, Note_on_c, 0, 68, 88
3, 2070, Note_on_c, 0, 68, 0
3, 2070, Note_on_c, 0, 69, 88
3, 2085, Note_on_c, 0, 69, 0
3, 2085, Note_on_c, 0, 68, 88
3, 2100, Note_on_c, 0, 68, 0
3, 2100, Note_on_c, 0, 69, 88
3, 2115, Note_on_c, 0, 69, 0
3, 2115, Note_on_c, 0, 68, 88
3, 2130, Note_on_c, 0, 68, 0
3, 2130, Note_on_c, 0, 69, 88
3, 2145, Note_on_c, 0, 69, 0
3, 2145, Note_on_c, 0, 68, 88
3, 2160, Note_on_c, 0, 68, 0
3, 2160, Note_on_c, 0, 69, 88
3, 2220, Note_on_c, 0, 69, 0
3, 2220, Note_on_c, 0, 64, 88
3, 2280, Note_on_c, 0, 64, 0
3, 2280, Note_on_c, 0, 69, 88
3, 2340, Note_on_c, 0, 69, 0
3, 2340, Note_on_c, 0, 67, 88
3, 2400, Note_on_c, 0, 67, 0
3, 2400, Note_on_c, 0, 66, 88
3, 2580, Note_on_c, 0, 66, 0
3, 2580, Note_on_c, 0, 71, 88
3, 2610, Note_on_c, 0, 71, 0
3, 2610, Note_on_c, 0, 69, 88
3, 2640, Note_on_c, 0, 69, 0
3, 2640, Note_on_c, 0, 67, 88
3, 2670, Note_on_c, 0, 67, 0
3, 2670, Note_on_c, 0, 69, 88
3, 2700, Note_on_c, 0, 69, 0
3, 2700, Note_on_c, 0, 66, 88
3, 2730, Note_on_c, 0, 66, 0
3, 2730, Note_on_c, 0, 67, 88
3, 2760, Note_on_c, 0, 67, 0
3, 2760, Note_on_c, 0, 64, 88
3, 2790, Note_on_c, 0, 64, 0
3, 2790, Note_on_c, 0, 67, 88
3, 2820, Note_on_c, 0, 67, 0
3, 2820, Note_on_c, 0, 66, 88
3, 2850, Note_on_c, 0, 66, 0
3, 2850, Note_on_c, 0, 64, 88
3, 2880, Note_on_c, 0, 64, 0
3, 2880, Note_on_c, 0, 69, 88
3, 3000, Note_on_c, 0, 69, 0
3, 3000, Note_on_c, 0, 62, 88
3, 3300, Note_on_c, 0, 62, 0
3, 3300, Note_on_c, 0, 74, 88
3, 3330, Note_on_c, 0, 74, 0
3, 3330, Note_on_c, 0, 73, 88
3, 3360, Note_on_c, 0, 73, 0
3, 3360, Note_on_c, 0, 71, 88
3, 3390, Note_on_c, 0, 71, 0
3, 3390, Note_on_c, 0, 73, 88
3, 3420, Note_on_c, 0, 73, 0
3, 3420, Note_on_c, 0, 69, 88
3, 3450, Note_on_c, 0, 69, 0
3, 3450, Note_on_c, 0, 71, 88
3, 3480, Note_on_c, 0, 71, 0
3, 3480, Note_on_c, 0, 67, 88
3, 3510, Note_on_c, 0, 67, 0
3, 3510, Note_on_c, 0, 69, 88
3, 3540, Note_on_c, 0, 69, 0
3, 3540, Note_on_c, 0, 66, 88
3, 3570, Note_on_c, 0, 66, 0
3, 3570, Note_on_c, 0, 67, 88
3, 3600, Note_on_c, 0, 67, 0
3, 3600, Note_on_c, 0, 64, 88
3, 3630, Note_on_c, 0, 64, 0
3, 3630, Note_on_c, 0, 66, 88
3, 3660, Note_on_c, 0, 66, 0
3, 3660, Note_on_c, 0, 67, 88
3, 3750, Note_on_c, 0, 67, 0
3, 3750, Note_on_c, 0, 64, 88
3, 3780, Note_on_c, 0, 64, 0
3, 3780, Note_on_c, 0, 66, 88
3, 3810, Note_on_c, 0, 66, 0
3, 3810, Note_on_c, 0, 67, 88
3, 3840, Note_on_c, 0, 67, 0
3, 3840, Note_on_c, 0, 69, 88
3, 3870, Note_on_c, 0, 69, 0
3, 3870, Note_on_c, 0, 71, 88
3, 3900, Note_on_c, 0, 71, 0
3, 3900, Note_on_c, 0, 67, 88
3, 3930, Note_on_c, 0, 67, 0
3, 3930, Note_on_c, 0, 69, 88
3, 3960, Note_on_c, 0, 69, 0
3, 3960, Note_on_c, 0, 66, 88
3, 3990, Note_on_c, 0, 66, 0
3, 3990, Note_on_c, 0, 67, 88
3, 4020, Note_on_c, 0, 67, 0
3, 4020, Note_on_c, 0, 64, 88
3, 4050, Note_on_c, 0, 64, 0
3, 4050, Note_on_c, 0, 66, 88
3, 4080, Note_on_c, 0, 66, 0
3, 4080, Note_on_c, 0, 62, 88
3, 4110, Note_on_c, 0, 62, 0
3, 4110, Note_on_c, 0, 64, 88
3, 4140, Note_on_c, 0, 64, 0
3, 4140, Note_on_c, 0, 62, 88
3, 4170, Note_on_c, 0, 62, 0
3, 4170, Note_on_c, 0, 64, 88
3, 4200, Note_on_c, 0, 64, 0
3, 4200, Note_on_c, 0, 66, 88
3, 4215, Note_on_c, 0, 66, 0
3, 4215, Note_on_c, 0, 64, 88
3, 4230, Note_on_c, 0, 64, 0
3, 4230, Note_on_c, 0, 66, 88
3, 4245, Note_on_c, 0, 66, 0
3, 4245, Note_on_c, 0, 64, 88
3, 4260, Note_on_c, 0, 64, 0
3, 4260, Note_on_c, 0, 66, 88
3, 4275, Note_on_c, 0, 66, 0
3, 4275, Note_on_c, 0, 64, 88
3, 4290, Note_on_c, 0, 64, 0
3, 4290, Note_on_c, 0, 62, 88
3, 4320, Note_on_c, 0, 62, 0
3, 4320, Note_on_c, 0, 62, 88
3, 4440, Note_on_c, 0, 62, 0
3, 4500, Note_on_c, 0, 62, 88
3, 4560, Note_on_c, 0, 62, 0
3, 4560, Note_on_c, 0, 57, 88
3, 4590, Note_on_c, 0, 57, 0
3, 4590, Note_on_c, 0, 54, 88
3, 4620, Note_on_c, 0, 54, 0
3, 4620, Note_on_c, 0, 57, 88
3, 4680, Note_on_c, 0, 57, 0
3, 4680, Note_on_c, 0, 54, 88
3, 4800, Note_on_c, 0, 54, 0
3, 5040, Note_on_c, 0, 57, 88
3, 5160, Note_on_c, 0, 57, 0
3, 5400, Note_on_c, 0, 50, 88
3, 5520, Note_on_c, 0, 50, 0
3, 7200, Note_on_c, 0, 62, 75
3, 7320, Note_on_c, 0, 62, 0
3, 7320, Note_on_c, 0, 74, 75
3, 7440, Note_on_c, 0, 74, 0
3, 7440, Note_on_c, 0, 73, 75
3, 7560, Note_on_c, 0, 73, 0
3, 7560, Note_on_c, 0, 74, 75
3, 7680, Note_on_c, 0, 74, 0
3, 7680, Note_on_c, 0, 62, 75
3, 7800, Note_on_c, 0, 62, 0
3, 9060, Note_on_c, 0, 71, 75
3, 9090, Note_on_c, 0, 71, 0
3, 9090, Note_on_c, 0, 69, 75
3, 9120, Note_on_c, 0, 69, 0
3, 9120, Note_on_c, 0, 67, 75
3, 9150, Note_on_c, 0, 67, 0
3, 9150, Note_on_c, 0, 69, 75
3, 9180, Note_on_c, 0, 69, 0
3, 9180, Note_on_c, 0, 66, 75
3, 9210, Note_on_c, 0, 66, 0
3, 9210, Note_on_c, 0, 67, 75
3, 9240, Note_on_c, 0, 67, 0
3, 9240, Note_on_c, 0, 64, 75
3, 9270, Note_on_c, 0, 64, 0
3, 9270, Note_on_c, 0, 67, 75
3, 9300, Note_on_c, 0, 67, 0
3, 9300, Note_on_c, 0, 66, 75
3, 9330, Note_on_c, 0, 66, 0
3, 9330, Note_on_c, 0, 64, 75
3, 9360, Note_on_c, 0, 64, 0
3, 9360, Note_on_c, 0, 69, 75
3, 9540, Note_on_c, 0, 69, 0
3, 9540, Note_on_c, 0, 71, 75
3, 9570, Note_on_c, 0, 71, 0
3, 9570, Note_on_c, 0, 69, 75
3, 9600, Note_on_c, 0, 69, 0
3, 9600, Note_on_c, 0, 67, 75
3, 9630, Note_on_c, 0, 67, 0
3, 9630, Note_on_c, 0, 66, 75
3, 9660, Note_on_c, 0, 66, 0
3, 9660, Note_on_c, 0, 64, 75
3, 9690, Note_on_c, 0, 64, 0
3, 9690, Note_on_c, 0, 62, 75
3, 9720, Note_on_c, 0, 62, 0
3, 9720, Note_on_c, 0, 67, 75
3, 9780, Note_on_c, 0, 67, 0
3, 9780, Note_on_c, 0, 69, 75
3, 9810, Note_on_c, 0, 69, 0
3, 9810, Note_on_c, 0, 71, 75
3, 9840, Note_on_c, 0, 71, 0
3, 9840, Note_on_c, 0, 69, 75
3, 9870, Note_on_c, 0, 69, 0
3, 9870, Note_on_c, 0, 67, 75
3, 9900, Note_on_c, 0, 67, 0
3, 9900, Note_on_c, 0, 66, 75
3, 9930, Note_on_c, 0, 66, 0
3, 9930, Note_on_c, 0, 64, 75
3, 9960, Note_on_c, 0, 64, 0
3, 9960, Note_on_c, 0, 62, 75
3, 10020, Note_on_c, 0, 62, 0
3, 10020, Note_on_c, 0, 74, 75
3, 10080, Note_on_c, 0, 74, 0
3, 10080, Note_on_c, 0, 73, 75
3, 10140, Note_on_c, 0, 73, 0
3, 10140, Note_on_c, 0, 69, 75
3, 10200, Note_on_c, 0, 69, 0
3, 10200, Note_on_c, 0, 69, 75
3, 10260, Note_on_c, 0, 69, 0
3, 10260, Note_on_c, 0, 69, 75
3, 10320, Note_on_c, 0, 69, 0
3, 10320, Note_on_c, 0, 69, 75
3, 10380, Note_on_c, 0, 69, 0
3, 10380, Note_on_c, 0, 69, 75
3, 10440, Note_on_c, 0, 69, 0
3, 10440, Note_on_c, 0, 69, 75
3, 10860, Note_on_c, 0, 69, 0
3, 10860, Note_on_c, 0, 57, 75
3, 10920, Note_on_c, 0, 57, 0
3, 10920, Note_on_c, 0, 62, 75
3, 10980, Note_on_c, 0, 62, 0
3, 10980, Note_on_c, 0, 62, 75
3, 11040, Note_on_c, 0, 62, 0
3, 11040, Note_on_c, 0, 62, 75
3, 11100, Note_on_c, 0, 62, 0
3, 11100, Note_on_c, 0, 62, 75
3, 11160, Note_on_c, 0, 62, 0
3, 11160, Note_on_c, 0, 62, 75
3, 11580, Note_on_c, 0, 62, 0
3, 11580, Note_on_c, 0, 71, 75
3, 11610, Note_on_c, 0, 71, 0
3, 11610, Note_on_c, 0, 69, 75
3, 11640, Note_on_c, 0, 69, 0
3, 11640, Note_on_c, 0, 68, 75
3, 11670, Note_on_c, 0, 68, 0
3, 11670, Note_on_c, 0, 69, 75
3, 11700, Note_on_c, 0, 69, 0
3, 11700, Note_on_c, 0, 66, 75
3, 11730, Note_on_c, 0, 66, 0
3, 11730, Note_on_c, 0, 68, 75
3, 11760, Note_on_c, 0, 68, 0
3, 11760, Note_on_c, 0, 64, 75
3, 11790, Note_on_c, 0, 64, 0
3, 11790, Note_on_c, 0, 66, 75
3, 11820, Note_on_c, 0, 66, 0
3, 11820, Note_on_c, 0, 64, 75
3, 11850, Note_on_c, 0, 64, 0
3, 11850, Note_on_c, 0, 62, 75
3, 11880, Note_on_c, 0, 62, 0
3, 11880, Note_on_c, 0, 64, 75
3, 11940, Note_on_c, 0, 64, 0
3, 14100, Note_on_c, 0, 69, 75
3, 14130, Note_on_c, 0, 69, 0
3, 14130, Note_on_c, 0, 67, 75
3, 14160, Note_on_c, 0, 67, 0
3, 14160, Note_on_c, 0, 66, 75
3, 14190, Note_on_c, 0, 66, 0
3, 14190, Note_on_c, 0, 67, 75
3, 14220, Note_on_c, 0, 67, 0
3, 14220, Note_on_c, 0, 64, 75
3, 14250, Note_on_c, 0, 64, 0
3, 14250, Note_on_c, 0, 66, 75
3, 14280, Note_on_c, 0, 66, 0
3, 14280, Note_on_c, 0, 62, 75
3, 14340, Note_on_c, 0, 62, 0
3, 14460, Note_on_c, 0, 64, 75
3, 14550, Note_on_c, 0, 64, 0
3, 14550, Note_on_c, 0, 62, 75
3, 14580, Note_on_c, 0, 62, 0
3, 14580, Note_on_c, 0, 61, 75
3, 14610, Note_on_c, 0, 61, 0
3, 14610, Note_on_c, 0, 62, 75
3, 14640, Note_on_c, 0, 62, 0
3, 14640, Note_on_c, 0, 64, 75
3, 14670, Note_on_c, 0, 64, 0
3, 14670, Note_on_c, 0, 66, 75
3, 14700, Note_on_c, 0, 66, 0
3, 14700, Note_on_c, 0, 68, 75
3, 14730, Note_on_c, 0, 68, 0
3, 14730, Note_on_c, 0, 64, 75
3, 14760, Note_on_c, 0, 64, 0
3, 14760, Note_on_c, 0, 69, 75
3, 14820, Note_on_c, 0, 69, 0
3, 16200, Note_on_c, 0, 57, 88
3, 16320, Note_on_c, 0, 57, 0
3, 16320, Note_on_c, 0, 69, 88
3, 16440, Note_on_c, 0, 69, 0
3, 16440, Note_on_c, 0, 68, 88
3, 16560, Note_on_c, 0, 68, 0
3, 16560, Note_on_c, 0, 69, 88
3, 16680, Note_on_c, 0, 69, 0
3, 16680, Note_on_c, 0, 57, 88
3, 16920, Note_on_c, 0, 57, 0
3, 16920, Note_on_c, 0, 64, 88
3, 17040, Note_on_c, 0, 64, 0
3, 17040, Note_on_c, 0, 74, 88
3, 17160, Note_on_c, 0, 74, 0
3, 17160, Note_on_c, 0, 73, 88
3, 17280, Note_on_c, 0, 73, 0
3, 17280, Note_on_c, 0, 71, 88
3, 17400, Note_on_c, 0, 71, 0
3, 17400, Note_on_c, 0, 64, 88
3, 17700, Note_on_c, 0, 64, 0
3, 17700, Note_on_c, 0, 64, 88
3, 17730, Note_on_c, 0, 64, 0
3, 17730, Note_on_c, 0, 62, 88
3, 17760, Note_on_c, 0, 62, 0
3, 17760, Note_on_c, 0, 64, 88
3, 17790, Note_on_c, 0, 64, 0
3, 17790, Note_on_c, 0, 66, 88
3, 17820, Note_on_c, 0, 66, 0
3, 17820, Note_on_c, 0, 67, 88
3, 17910, Note_on_c, 0, 67, 0
3, 17910, Note_on_c, 0, 71, 88
3, 17940, Note_on_c, 0, 71, 0
3, 17940, Note_on_c, 0, 69, 88
3, 17970, Note_on_c, 0, 69, 0
3, 17970, Note_on_c, 0, 67, 88
3, 18000, Note_on_c, 0, 67, 0
3, 18000, Note_on_c, 0, 66, 88
3, 18030, Note_on_c, 0, 66, 0
3, 18030, Note_on_c, 0, 64, 88
3, 18060, Note_on_c, 0, 64, 0
3, 18060, Note_on_c, 0, 62, 88
3, 18090, Note_on_c, 0, 62, 0
3, 18090, Note_on_c, 0, 64, 88
3, 18120, Note_on_c, 0, 64, 0
3, 18120, Note_on_c, 0, 66, 88
3, 18150, Note_on_c, 0, 66, 0
3, 18150, Note_on_c, 0, 68, 88
3, 18180, Note_on_c, 0, 68, 0
3, 18180, Note_on_c, 0, 69, 88
3, 18270, Note_on_c, 0, 69, 0
3, 18270, Note_on_c, 0, 73, 88
3, 18300, Note_on_c, 0, 73, 0
3, 18300, Note_on_c, 0, 71, 88
3, 18330, Note_on_c, 0, 71, 0
3, 18330, Note_on_c, 0, 69, 88
3, 18360, Note_on_c, 0, 69, 0
3, 18360, Note_on_c, 0, 68, 88
3, 18390, Note_on_c, 0, 68, 0
3, 18390, Note_on_c, 0, 66, 88
3, 18420, Note_on_c, 0, 66, 0
3, 18420, Note_on_c, 0, 64, 88
3, 18450, Note_on_c, 0, 64, 0
3, 18450, Note_on_c, 0, 66, 88
3, 18480, Note_on_c, 0, 66, 0
3, 18480, Note_on_c, 0, 68, 88
3, 18510, Note_on_c, 0, 68, 0
3, 18510, Note_on_c, 0, 69, 88
3, 18540, Note_on_c, 0, 69, 0
3, 18540, Note_on_c, 0, 71, 88
3, 18570, Note_on_c, 0, 71, 0
3, 18570, Note_on_c, 0, 73, 88
3, 18600, Note_on_c, 0, 73, 0
3, 18600, Note_on_c, 0, 74, 88
3, 18630, Note_on_c, 0, 74, 0
3, 18630, Note_on_c, 0, 73, 88
3, 18660, Note_on_c, 0, 73, 0
3, 18660, Note_on_c, 0, 71, 88
3, 18690, Note_on_c, 0, 71, 0
3, 18690, Note_on_c, 0, 74, 88
3, 18720, Note_on_c, 0, 74, 0
3, 18720, Note_on_c, 0, 73, 88
3, 18750, Note_on_c, 0, 73, 0
3, 18750, Note_on_c, 0, 71, 88
3, 18780, Note_on_c, 0, 71, 0
3, 18780, Note_on_c, 0, 69, 88
3, 18810, Note_on_c, 0, 69, 0
3, 18810, Note_on_c, 0, 68, 88
3, 18840, Note_on_c, 0, 68, 0
3, 18840, Note_on_c, 0, 69, 88
3, 18900, Note_on_c, 0, 69, 0
3, 18900, Note_on_c, 0, 71, 88
3, 18960, Note_on_c, 0, 71, 0
3, 18960, Note_on_c, 0, 64, 88
3, 19020, Note_on_c, 0, 64, 0
3, 19020, Note_on_c, 0, 68, 88
3, 19080, Note_on_c, 0, 68, 0
3, 19080, Note_on_c, 0, 69, 88
3, 19200, Note_on_c, 0, 69, 0
3, 19500, Note_on_c, 0, 71, 62
3, 19530, Note_on_c, 0, 71, 0
3, 19530, Note_on_c, 0, 69, 62
3, 19560, Note_on_c, 0, 69, 0
3, 19560, Note_on_c, 0, 67, 62
3, 19590, Note_on_c, 0, 67, 0
3, 19590, Note_on_c, 0, 69, 62
3, 19620, Note_on_c, 0, 69, 0
3, 19620, Note_on_c, 0, 66, 62
3, 19650, Note_on_c, 0, 66, 0
3, 19650, Note_on_c, 0, 67, 62
3, 19680, Note_on_c, 0, 67, 0
3, 19680, Note_on_c, 0, 64, 62
3, 19710, Note_on_c, 0, 64, 0
3, 19710, Note_on_c, 0, 66, 62
3, 19740, Note_on_c, 0, 66, 0
3, 19740, Note_on_c, 0, 62, 62
3, 19770, Note_on_c, 0, 62, 0
3, 19770, Note_on_c, 0, 64, 62
3, 19800, Note_on_c, 0, 64, 0
3, 19800, Note_on_c, 0, 60, 62
3, 19860, Note_on_c, 0, 60, 0
3, 21600, Note_on_c, 0, 66, 62
3, 21720, Note_on_c, 0, 66, 0
3, 21720, Note_on_c, 0, 71, 62
3, 21840, Note_on_c, 0, 71, 0
3, 21840, Note_on_c, 0, 71, 62
3, 21855, Note_on_c, 0, 71, 0
3, 21855, Note_on_c, 0, 70, 62
3, 21870, Note_on_c, 0, 70, 0
3, 21870, Note_on_c, 0, 71, 62
3, 21885, Note_on_c, 0, 71, 0
3, 21885, Note_on_c, 0, 70, 62
3, 21900, Note_on_c, 0, 70, 0
3, 21900, Note_on_c, 0, 71, 62
3, 21915, Note_on_c, 0, 71, 0
3, 21915, Note_on_c, 0, 70, 62
3, 21930, Note_on_c, 0, 70, 0
3, 21930, Note_on_c, 0, 68, 62
3, 21945, Note_on_c, 0, 68, 0
3, 21945, Note_on_c, 0, 70, 62
3, 21960, Note_on_c, 0, 70, 0
3, 21960, Note_on_c, 0, 71, 62
3, 22020, Note_on_c, 0, 71, 0
3, 22020, Note_on_c, 0, 66, 62
3, 22080, Note_on_c, 0, 66, 0
3, 22080, Note_on_c, 0, 67, 62
3, 22140, Note_on_c, 0, 67, 0
3, 22140, Note_on_c, 0, 66, 62
3, 22200, Note_on_c, 0, 66, 0
3, 22200, Note_on_c, 0, 66, 62
3, 22215, Note_on_c, 0, 66, 0
3, 22215, Note_on_c, 0, 64, 62
3, 22230, Note_on_c, 0, 64, 0
3, 22230, Note_on_c, 0, 66, 62
3, 22245, Note_on_c, 0, 66, 0
3, 22245, Note_on_c, 0, 64, 62
3, 22260, Note_on_c, 0, 64, 0
3, 22260, Note_on_c, 0, 66, 62
3, 22275, Note_on_c, 0, 66, 0
3, 22275, Note_on_c, 0, 64, 62
3, 22290, Note_on_c, 0, 64, 0
3, 22290, Note_on_c, 0, 66, 62
3, 22305, Note_on_c, 0, 66, 0
3, 22305, Note_on_c, 0, 64, 62
3, 22320, Note_on_c, 0, 64, 0
3, 22320, Note_on_c, 0, 62, 62
3, 22440, Note_on_c, 0, 62, 0
3, 24180, Note_on_c, 0, 66, 88
3, 24240, Note_on_c, 0, 66, 0
3, 24240, Note_on_c, 0, 67, 88
3, 24300, Note_on_c, 0, 67, 0
3, 24300, Note_on_c, 0, 66, 88
3, 24360, Note_on_c, 0, 66, 0
3, 24360, Note_on_c, 0, 64, 88
3, 24540, Note_on_c, 0, 64, 0
3, 24540, Note_on_c, 0, 64, 88
3, 24600, Note_on_c, 0, 64, 0
3, 24600, Note_on_c, 0, 66, 88
3, 24660, Note_on_c, 0, 66, 0
3, 24660, Note_on_c, 0, 64, 88
3, 24720, Note_on_c, 0, 64, 0
3, 24720, Note_on_c, 0, 62, 88
3, 24900, Note_on_c, 0, 62, 0
3, 24900, Note_on_c, 0, 71, 88
3, 24930, Note_on_c, 0, 71, 0
3, 24930, Note_on_c, 0, 69, 88
3, 24960, Note_on_c, 0, 69, 0
3, 24960, Note_on_c, 0, 67, 88
3, 24990, Note_on_c, 0, 67, 0
3, 24990, Note_on_c, 0, 69, 88
3, 25020, Note_on_c, 0, 69, 0
3, 25020, Note_on_c, 0, 66, 88
3, 25050, Note_on_c, 0, 66, 0
3, 25050, Note_on_c, 0, 67, 88
3, 25080, Note_on_c, 0, 67, 0
3, 25080, Note_on_c, 0, 64, 88
3, 25110, Note_on_c, 0, 64, 0
3, 25110, Note_on_c, 0, 67, 88
3, 25140, Note_on_c, 0, 67, 0
3, 25140, Note_on_c, 0, 66, 88
3, 25170, Note_on_c, 0, 66, 0
3, 25170, Note_on_c, 0, 64, 88
3, 25200, Note_on_c, 0, 64, 0
3, 25200, Note_on_c, 0, 69, 88
3, 25320, Note_on_c, 0, 69, 0
3, 25320, Note_on_c, 0, 62, 88
3, 25620, Note_on_c, 0, 62, 0
3, 25620, Note_on_c, 0, 67, 88
3, 25650, Note_on_c, 0, 67, 0
3, 25650, Note_on_c, 0, 66, 88
3, 25680, Note_on_c, 0, 66, 0
3, 25680, Note_on_c, 0, 64, 88
3, 25710, Note_on_c, 0, 64, 0
3, 25710, Note_on_c, 0, 66, 88
3, 25740, Note_on_c, 0, 66, 0
3, 25740, Note_on_c, 0, 64, 88
3, 25770, Note_on_c, 0, 64, 0
3, 25770, Note_on_c, 0, 66, 88
3, 25800, Note_on_c, 0, 66, 0
3, 25800, Note_on_c, 0, 67, 88
3, 25830, Note_on_c, 0, 67, 0
3, 25830, Note_on_c, 0, 66, 88
3, 25860, Note_on_c, 0, 66, 0
3, 25860, Note_on_c, 0, 67, 88
3, 25890, Note_on_c, 0, 67, 0
3, 25890, Note_on_c, 0, 64, 88
3, 25920, Note_on_c, 0, 64, 0
3, 25920, Note_on_c, 0, 66, 88
3, 25980, Note_on_c, 0, 66, 0
3, 25980, Note_on_c, 0, 54, 88
3, 26040, Note_on_c, 0, 54, 0
3, 26040, Note_on_c, 0, 54, 88
3, 26100, Note_on_c, 0, 54, 0
3, 26100, Note_on_c, 0, 54, 88
3, 26160, Note_on_c, 0, 54, 0
3, 26160, Note_on_c, 0, 54, 88
3, 26220, Note_on_c, 0, 54, 0
3, 26220, Note_on_c, 0, 54, 88
3, 26280, Note_on_c, 0, 54, 0
3, 26280, Note_on_c, 0, 54, 88
3, 26340, Note_on_c, 0, 54, 0
3, 26340, Note_on_c, 0, 54, 88
3, 26400, Note_on_c, 0, 54, 0
3, 26400, Note_on_c, 0, 54, 88
3, 26460, Note_on_c, 0, 54, 0
3, 26460, Note_on_c, 0, 54, 88
3, 26520, Note_on_c, 0, 54, 0
3, 26520, Note_on_c, 0, 54, 88
3, 26580, Note_on_c, 0, 54, 0
3, 26580, Note_on_c, 0, 54, 88
3, 26640, Note_on_c, 0, 54, 0
3, 26640, Note_on_c, 0, 54, 88
3, 26700, Note_on_c, 0, 54, 0
3, 26700, Note_on_c, 0, 54, 88
3, 26760, Note_on_c, 0, 54, 0
3, 26760, Note_on_c, 0, 54, 88
3, 26820, Note_on_c, 0, 54, 0
3, 26820, Note_on_c, 0, 54, 88
3, 26880, Note_on_c, 0, 54, 0
3, 26880, Note_on_c, 0, 54, 88
3, 26940, Note_on_c, 0, 54, 0
3, 26940, Note_on_c, 0, 54, 88
3, 27000, Note_on_c, 0, 54, 0
3, 27000, Note_on_c, 0, 54, 88
3, 27120, Note_on_c, 0, 54, 0
3, 27420, Note_on_c, 0, 73, 75
3, 27450, Note_on_c, 0, 73, 0
3, 27450, Note_on_c, 0, 71, 75
3, 27480, Note_on_c, 0, 71, 0
3, 27480, Note_on_c, 0, 69, 75
3, 27510, Note_on_c, 0, 69, 0
3, 27510, Note_on_c, 0, 71, 75
3, 27540, Note_on_c, 0, 71, 0
3, 27540, Note_on_c, 0, 68, 75
3, 27570, Note_on_c, 0, 68, 0
3, 27570, Note_on_c, 0, 69, 75
3, 27600, Note_on_c, 0, 69, 0
3, 27600, Note_on_c, 0, 66, 75
3, 27630, Note_on_c, 0, 66, 0
3, 27630, Note_on_c, 0, 68, 75
3, 27660, Note_on_c, 0, 68, 0
3, 27660, Note_on_c, 0, 64, 75
3, 27690, Note_on_c, 0, 64, 0
3, 27690, Note_on_c, 0, 66, 75
3, 27720, Note_on_c, 0, 66, 0
3, 27720, Note_on_c, 0, 62, 75
3, 27780, Note_on_c, 0, 62, 0
3, 29520, Note_on_c, 0, 57, 75
3, 29640, Note_on_c, 0, 57, 0
3, 29640, Note_on_c, 0, 69, 75
3, 29700, Note_on_c, 0, 69, 0
3, 29700, Note_on_c, 0, 68, 75
3, 29735, Note_on_c, 0, 68, 0
3, 29760, Note_on_c, 0, 69, 75
3, 29820, Note_on_c, 0, 69, 0
3, 29820, Note_on_c, 0, 68, 75
3, 29855, Note_on_c, 0, 68, 0
3, 29880, Note_on_c, 0, 66, 75
3, 30000, Note_on_c, 0, 66, 0
3, 32400, Note_on_c, 0, 50, 75
3, 32460, Note_on_c, 0, 50, 0
3, 32460, Note_on_c, 0, 50, 75
3, 32520, Note_on_c, 0, 50, 0
3, 32520, Note_on_c, 0, 50, 75
3, 32580, Note_on_c, 0, 50, 0
3, 32580, Note_on_c, 0, 50, 75
3, 32640, Note_on_c, 0, 50, 0
3, 32640, Note_on_c, 0, 50, 75
3, 32700, Note_on_c, 0, 50, 0
3, 32700, Note_on_c, 0, 50, 75
3, 32760, Note_on_c, 0, 50, 0
3, 32760, Note_on_c, 0, 57, 75
3, 32820, Note_on_c, 0, 57, 0
3, 32820, Note_on_c, 0, 57, 75
3, 32880, Note_on_c, 0, 57, 0
3, 32880, Note_on_c, 0, 57, 75
3, 32940, Note_on_c, 0, 57, 0
3, 32940, Note_on_c, 0, 57, 75
3, 33000, Note_on_c, 0, 57, 0
3, 33000, Note_on_c, 0, 57, 75
3, 33060, Note_on_c, 0, 57, 0
3, 33060, Note_on_c, 0, 57, 75
3, 33120, Note_on_c, 0, 57, 0
3, 33120, Note_on_c, 0, 57, 75
3, 33180, Note_on_c, 0, 57, 0
3, 34920, Note_on_c, 0, 62, 75
3, 35040, Note_on_c, 0, 62, 0
3, 35040, Note_on_c, 0, 74, 75
3, 35160, Note_on_c, 0, 74, 0
3, 35160, Note_on_c, 0, 73, 75
3, 35280, Note_on_c, 0, 73, 0
3, 35280, Note_on_c, 0, 74, 75
3, 35400, Note_on_c, 0, 74, 0
3, 35400, Note_on_c, 0, 62, 75
3, 35520, Note_on_c, 0, 62, 0
3, 35640, Note_on_c, 0, 57, 75
3, 35760, Note_on_c, 0, 57, 0
3, 35760, Note_on_c, 0, 67, 75
3, 35880, Note_on_c, 0, 67, 0
3, 35880, Note_on_c, 0, 66, 75
3, 36000, Note_on_c, 0, 66, 0
3, 36000, Note_on_c, 0, 64, 75
3, 36120, Note_on_c, 0, 64, 0
3, 36120, Note_on_c, 0, 57, 75
3, 36240, Note_on_c, 0, 57, 0
3, 36780, Note_on_c, 0, 69, 75
3, 36810, Note_on_c, 0, 69, 0
3, 36810, Note_on_c, 0, 67, 75
3, 36840, Note_on_c, 0, 67, 0
3, 36840, Note_on_c, 0, 66, 75
3, 36870, Note_on_c, 0, 66, 0
3, 36870, Note_on_c, 0, 67, 75
3, 36900, Note_on_c, 0, 67, 0
3, 36900, Note_on_c, 0, 64, 75
3, 36930, Note_on_c, 0, 64, 0
3, 36930, Note_on_c, 0, 66, 75
3, 36960, Note_on_c, 0, 66, 0
3, 36960, Note_on_c, 0, 62, 75
3, 36990, Note_on_c, 0, 62, 0
3, 36990, Note_on_c, 0, 66, 75
3, 37020, Note_on_c, 0, 66, 0
3, 37020, Note_on_c, 0, 64, 75
3, 37050, Note_on_c, 0, 64, 0
3, 37050, Note_on_c, 0, 62, 75
3, 37080, Note_on_c, 0, 62, 0
3, 37080, Note_on_c, 0, 67, 75
3, 37200, Note_on_c, 0, 67, 0
3, 38220, Note_on_c, 0, 69, 75
3, 38280, Note_on_c, 0, 69, 0
3, 38280, Note_on_c, 0, 71, 75
3, 38340, Note_on_c, 0, 71, 0
3, 38340, Note_on_c, 0, 69, 75
3, 38400, Note_on_c, 0, 69, 0
3, 38400, Note_on_c, 0, 68, 75
3, 38520, Note_on_c, 0, 68, 0
3, 38520, Note_on_c, 0, 69, 75
3, 38580, Note_on_c, 0, 69, 0
3, 38580, Note_on_c, 0, 64, 75
3, 38640, Note_on_c, 0, 64, 0
3, 38640, Note_on_c, 0, 69, 75
3, 38700, Note_on_c, 0, 69, 0
3, 38700, Note_on_c, 0, 67, 75
3, 38760, Note_on_c, 0, 67, 0
3, 38760, Note_on_c, 0, 66, 75
3, 38940, Note_on_c, 0, 66, 0
3, 38940, Note_on_c, 0, 71, 75
3, 38970, Note_on_c, 0, 71, 0
3, 38970, Note_on_c, 0, 69, 75
3, 39000, Note_on_c, 0, 69, 0
3, 39000, Note_on_c, 0, 67, 75
3, 39030, Note_on_c, 0, 67, 0
3, 39030, Note_on_c, 0, 69, 75
3, 39060, Note_on_c, 0, 69, 0
3, 39060, Note_on_c, 0, 66, 75
3, 39090, Note_on_c, 0, 66, 0
3, 39090, Note_on_c, 0, 67, 75
3, 39120, Note_on_c, 0, 67, 0
3, 39120, Note_on_c, 0, 64, 75
3, 39150, Note_on_c, 0, 64, 0
3, 39150, Note_on_c, 0, 67, 75
3, 39180, Note_on_c, 0, 67, 0
3, 39180, Note_on_c, 0, 66, 75
3, 39210, Note_on_c, 0, 66, 0
3, 39210, Note_on_c, 0, 64, 75
3, 39240, Note_on_c, 0, 64, 0
3, 39240, Note_on_c, 0, 69, 75
3, 39300, Note_on_c, 0, 69, 0
3, 39300, Note_on_c, 0, 69, 75
3, 39360, Note_on_c, 0, 69, 0
3, 39360, Note_on_c, 0, 69, 75
3, 39420, Note_on_c, 0, 69, 0
3, 39420, Note_on_c, 0, 69, 75
3, 39480, Note_on_c, 0, 69, 0
3, 39480, Note_on_c, 0, 69, 75
3, 39540, Note_on_c, 0, 69, 0
3, 39540, Note_on_c, 0, 69, 75
3, 39600, Note_on_c, 0, 69, 0
3, 39600, Note_on_c, 0, 69, 75
3, 39660, Note_on_c, 0, 69, 0
3, 39660, Note_on_c, 0, 71, 75
3, 39690, Note_on_c, 0, 71, 0
3, 39690, Note_on_c, 0, 69, 75
3, 39720, Note_on_c, 0, 69, 0
3, 39720, Note_on_c, 0, 67, 75
3, 39780, Note_on_c, 0, 67, 0
3, 39780, Note_on_c, 0, 67, 75
3, 39840, Note_on_c, 0, 67, 0
3, 39840, Note_on_c, 0, 67, 75
3, 39900, Note_on_c, 0, 67, 0
3, 39900, Note_on_c, 0, 67, 75
3, 39960, Note_on_c, 0, 67, 0
3, 39960, Note_on_c, 0, 67, 75
3, 40020, Note_on_c, 0, 67, 0
3, 40020, Note_on_c, 0, 69, 75
3, 40050, Note_on_c, 0, 69, 0
3, 40050, Note_on_c, 0, 67, 75
3, 40080, Note_on_c, 0, 67, 0
3, 40080, Note_on_c, 0, 66, 75
3, 40140, Note_on_c, 0, 66, 0
3, 40140, Note_on_c, 0, 66, 75
3, 40200, Note_on_c, 0, 66, 0
3, 40200, Note_on_c, 0, 66, 75
3, 40260, Note_on_c, 0, 66, 0
3, 40260, Note_on_c, 0, 66, 75
3, 40320, Note_on_c, 0, 66, 0
3, 40320, Note_on_c, 0, 66, 75
3, 40380, Note_on_c, 0, 66, 0
3, 40380, Note_on_c, 0, 74, 75
3, 40410, Note_on_c, 0, 74, 0
3, 40410, Note_on_c, 0, 73, 75
3, 40440, Note_on_c, 0, 73, 0
3, 40440, Note_on_c, 0, 71, 75
3, 40470, Note_on_c, 0, 71, 0
3, 40470, Note_on_c, 0, 73, 75
3, 40500, Note_on_c, 0, 73, 0
3, 40500, Note_on_c, 0, 69, 75
3, 40530, Note_on_c, 0, 69, 0
3, 40530, Note_on_c, 0, 71, 75
3, 40560, Note_on_c, 0, 71, 0
3, 40560, Note_on_c, 0, 67, 75
3, 40590, Note_on_c, 0, 67, 0
3, 40590, Note_on_c, 0, 69, 75
3, 40620, Note_on_c, 0, 69, 0
3, 40620, Note_on_c, 0, 66, 75
3, 40650, Note_on_c, 0, 66, 0
3, 40650, Note_on_c, 0, 67, 75
3, 40680, Note_on_c, 0, 67, 0
3, 40680, Note_on_c, 0, 64, 75
3, 40710, Note_on_c, 0, 64, 0
3, 40710, Note_on_c, 0, 66, 75
3, 40740, Note_on_c, 0, 66, 0
3, 40740, Note_on_c, 0, 67, 75
3, 40830, Note_on_c, 0, 67, 0
3, 40830, Note_on_c, 0, 64, 75
3, 40860, Note_on_c, 0, 64, 0
3, 40860, Note_on_c, 0, 66, 75
3, 40890, Note_on_c, 0, 66, 0
3, 40890, Note_on_c, 0, 67, 75
3, 40920, Note_on_c, 0, 67, 0
3, 40920, Note_on_c, 0, 69, 75
3, 40950, Note_on_c, 0, 69, 0
3, 40950, Note_on_c, 0, 71, 75
3, 40980, Note_on_c, 0, 71, 0
3, 40980, Note_on_c, 0, 67, 75
3, 41010, Note_on_c, 0, 67, 0
3, 41010, Note_on_c, 0, 69, 75
3, 41040, Note_on_c, 0, 69, 0
3, 41040, Note_on_c, 0, 66, 75
3, 41070, Note_on_c, 0, 66, 0
3, 41070, Note_on_c, 0, 67, 75
3, 41100, Note_on_c, 0, 67, 0
3, 41100, Note_on_c, 0, 64, 75
3, 41130, Note_on_c, 0, 64, 0
3, 41130, Note_on_c, 0, 66, 75
3, 41160, Note_on_c, 0, 66, 0
3, 41160, Note_on_c, 0, 62, 75
3, 41190, Note_on_c, 0, 62, 0
3, 41190, Note_on_c, 0, 64, 75
3, 41220, Note_on_c, 0, 64, 0
3, 41220, Note_on_c, 0, 62, 75
3, 41250, Note_on_c, 0, 62, 0
3, 41250, Note_on_c, 0, 64, 75
3, 41280, Note_on_c, 0, 64, 0
3, 41280, Note_on_c, 0, 66, 75
3, 41295, Note_on_c, 0, 66, 0
3, 41295, Note_on_c, 0, 64, 75
3, 41310, Note_on_c, 0, 64, 0
3, 41310, Note_on_c, 0, 66, 75
3, 41325, Note_on_c, 0, 66, 0
3, 41325, Note_on_c, 0, 64, 75
3, 41340, Note_on_c, 0, 64, 0
3, 41340, Note_on_c, 0, 66, 75
3, 41355, Note_on_c, 0, 66, 0
3, 41355, Note_on_c, 0, 64, 75
3, 41370, Note_on_c, 0, 64, 0
3, 41370, Note_on_c, 0, 62, 75
3, 41400, Note_on_c, 0, 62, 0
3, 41400, Note_on_c, 0, 62, 75
3, 41460, Note_on_c, 0, 62, 0
3, 41760, Note_on_c, 0, 62, 101
3, 41880, Note_on_c, 0, 62, 0
3, 41880, Note_on_c, 0, 74, 101
3, 42000, Note_on_c, 0, 74, 0
3, 42000, Note_on_c, 0, 73, 101
3, 42120, Note_on_c, 0, 73, 0
3, 42120, Note_on_c, 0, 74, 101
3, 42240, Note_on_c, 0, 74, 0
3, 42240, Note_on_c, 0, 62, 101
3, 42480, Note_on_c, 0, 62, 0
3, 42480, Note_on_c, 0, 57, 101
3, 42600, Note_on_c, 0, 57, 0
3, 42600, Note_on_c, 0, 67, 101
3, 42720, Note_on_c, 0, 67, 0
3, 42720, Note_on_c, 0, 66, 101
3, 42840, Note_on_c, 0, 66, 0
3, 42840, Note_on_c, 0, 64, 101
3, 42960, Note_on_c, 0, 64, 0
3, 42960, Note_on_c, 0, 57, 101
3, 43200, Note_on_c, 0, 57, 0
3, 43260, Note_on_c, 0, 69, 101
3, 43320, Note_on_c, 0, 69, 0
3, 43320, Note_on_c, 0, 71, 101
3, 43380, Note_on_c, 0, 71, 0
3, 43380, Note_on_c, 0, 69, 101
3, 43440, Note_on_c, 0, 69, 0
3, 43440, Note_on_c, 0, 69, 101
3, 43455, Note_on_c, 0, 69, 0
3, 43455, Note_on_c, 0, 68, 101
3, 43470, Note_on_c, 0, 68, 0
3, 43470, Note_on_c, 0, 69, 101
3, 43485, Note_on_c, 0, 69, 0
3, 43485, Note_on_c, 0, 68, 101
3, 43500, Note_on_c, 0, 68, 0
3, 43500, Note_on_c, 0, 69, 101
3, 43515, Note_on_c, 0, 69, 0
3, 43515, Note_on_c, 0, 68, 101
3, 43530, Note_on_c, 0, 68, 0
3, 43530, Note_on_c, 0, 69, 101
3, 43545, Note_on_c, 0, 69, 0
3, 43545, Note_on_c, 0, 68, 101
3, 43560, Note_on_c, 0, 68, 0
3, 43560, Note_on_c, 0, 69, 101
3, 43620, Note_on_c, 0, 69, 0
3, 43620, Note_on_c, 0, 64, 101
3, 43680, Note_on_c, 0, 64, 0
3, 43680, Note_on_c, 0, 69, 101
3, 43740, Note_on_c, 0, 69, 0
3, 43740, Note_on_c, 0, 67, 101
3, 43800, Note_on_c, 0, 67, 0
3, 43800, Note_on_c, 0, 66, 101
3, 43980, Note_on_c, 0, 66, 0
3, 43980, Note_on_c, 0, 71, 101
3, 44010, Note_on_c, 0, 71, 0
3, 44010, Note_on_c, 0, 69, 101
3, 44040, Note_on_c, 0, 69, 0
3, 44040, Note_on_c, 0, 67, 101
3, 44070, Note_on_c, 0, 67, 0
3, 44070, Note_on_c, 0, 69, 101
3, 44100, Note_on_c, 0, 69, 0
3, 44100, Note_on_c, 0, 66, 101
3, 44130, Note_on_c, 0, 66, 0
3, 44130, Note_on_c, 0, 67, 101
3, 44160, Note_on_c, 0, 67, 0
3, 44160, Note_on_c, 0, 64, 101
3, 44190, Note_on_c, 0, 64, 0
3, 44190, Note_on_c, 0, 67, 101
3, 44220, Note_on_c, 0, 67, 0
3, 44220, Note_on_c, 0, 66, 101
3, 44250, Note_on_c, 0, 66, 0
3, 44250, Note_on_c, 0, 64, 101
3, 44280, Note_on_c, 0, 64, 0
3, 44280, Note_on_c, 0, 69, 101
3, 44400, Note_on_c, 0, 69, 0
3, 44400, Note_on_c, 0, 62, 101
3, 44700, Note_on_c, 0, 62, 0
3, 44700, Note_on_c, 0, 74, 101
3, 44730, Note_on_c, 0, 74, 0
3, 44730, Note_on_c, 0, 73, 101
3, 44760, Note_on_c, 0, 73, 0
3, 44760, Note_on_c, 0, 71, 101
3, 44790, Note_on_c, 0, 71, 0
3, 44790, Note_on_c, 0, 73, 101
3, 44820, Note_on_c, 0, 73, 0
3, 44820, Note_on_c, 0, 69, 101
3, 44850, Note_on_c, 0, 69, 0
3, 44850, Note_on_c, 0, 71, 101
3, 44880, Note_on_c, 0, 71, 0
3, 44880, Note_on_c, 0, 67, 101
3, 44910, Note_on_c, 0, 67, 0
3, 44910, Note_on_c, 0, 69, 101
3, 44940, Note_on_c, 0, 69, 0
3, 44940, Note_on_c, 0, 66, 101
3, 44970, Note_on_c, 0, 66, 0
3, 44970, Note_on_c, 0, 67, 101
3, 45000, Note_on_c, 0, 67, 0
3, 45000, Note_on_c, 0, 64, 101
3, 45030, Note_on_c, 0, 64, 0
3, 45030, Note_on_c, 0, 66, 101
3, 45060, Note_on_c, 0, 66, 0
3, 45060, Note_on_c, 0, 67, 101
3, 45150, Note_on_c, 0, 67, 0
3, 45150, Note_on_c, 0, 64, 101
3, 45180, Note_on_c, 0, 64, 0
3, 45180, Note_on_c, 0, 66, 101
3, 45210, Note_on_c, 0, 66, 0
3, 45210, Note_on_c, 0, 67, 101
3, 45240, Note_on_c, 0, 67, 0
3, 45240, Note_on_c, 0, 69, 101
3, 45270, Note_on_c, 0, 69, 0
3, 45270, Note_on_c, 0, 71, 101
3, 45300, Note_on_c, 0, 71, 0
3, 45300, Note_on_c, 0, 67, 101
3, 45330, Note_on_c, 0, 67, 0
3, 45330, Note_on_c, 0, 69, 101
3, 45360, Note_on_c, 0, 69, 0
3, 45360, Note_on_c, 0, 66, 101
3, 45390, Note_on_c, 0, 66, 0
3, 45390, Note_on_c, 0, 67, 101
3, 45420, Note_on_c, 0, 67, 0
3, 45420, Note_on_c, 0, 64, 101
3, 45450, Note_on_c, 0, 64, 0
3, 45450, Note_on_c, 0, 66, 101
3, 45480, Note_on_c, 0, 66, 0
3, 45480, Note_on_c, 0, 62, 101
3, 45510, Note_on_c, 0, 62, 0
3, 45510, Note_on_c, 0, 64, 101
3, 45540, Note_on_c, 0, 64, 0
3, 45540, Note_on_c, 0, 62, 101
3, 45570, Note_on_c, 0, 62, 0
3, 45570, Note_on_c, 0, 64, 101
3, 45600, Note_on_c, 0, 64, 0
3, 45600, Note_on_c, 0, 66, 101
3, 45615, Note_on_c, 0, 66, 0
3, 45615, Note_on_c, 0, 64, 101
3, 45630, Note_on_c, 0, 64, 0
3, 45630, Note_on_c, 0, 66, 101
3, 45645, Note_on_c, 0, 66, 0
3, 45645, Note_on_c, 0, 64, 101
3, 45660, Note_on_c, 0, 64, 0
3, 45660, Note_on_c, 0, 66, 101
3, 45675, Note_on_c, 0, 66, 0
3, 45675, Note_on_c, 0, 64, 101
3, 45690, Note_on_c, 0, 64, 0
3, 45690, Note_on_c, 0, 62, 101
3, 45720, Note_on_c, 0, 62, 0
3, 45720, Note_on_c, 0, 62, 101
3, 45840, Note_on_c, 0, 62, 0
3, 45900, Note_on_c, 0, 62, 101
3, 45960, Note_on_c, 0, 62, 0
3, 45960, Note_on_c, 0, 57, 101
3, 45990, Note_on_c, 0, 57, 0
3, 45990, Note_on_c, 0, 54, 101
3, 46020, Note_on_c, 0, 54, 0
3, 46020, Note_on_c, 0, 57, 101
3, 46080, Note_on_c, 0, 57, 0
3, 46080, Note_on_c, 0, 54, 101
3, 46200, Note_on_c, 0, 54, 0
3, 46440, End_track
4, 0, Start_track
4, 0, MIDI_port, 0
4, 0, Title_t, "Bassoon I"
4, 0, Program_c, 1, 70
4, 360, Note_on_c, 1, 57, 75
4, 420, Note_on_c, 1, 57, 0
4, 420, Note_on_c, 1, 54, 75
4, 455, Note_on_c, 1, 54, 0
4, 480, Note_on_c, 1, 54, 75
4, 540, Note_on_c, 1, 54, 0
4, 540, Note_on_c, 1, 55, 75
4, 575, Note_on_c, 1, 55, 0
4, 600, Note_on_c, 1, 57, 75
4, 615, Note_on_c, 1, 57, 0
4, 615, Note_on_c, 1, 55, 75
4, 630, Note_on_c, 1, 55, 0
4, 630, Note_on_c, 1, 57, 75
4, 645, Note_on_c, 1, 57, 0
4, 645, Note_on_c, 1, 55, 75
4, 660, Note_on_c, 1, 55, 0
4, 660, Note_on_c, 1, 54, 75
4, 690, Note_on_c, 1, 54, 0
4, 690, Note_on_c, 1, 55, 75
4, 720, Note_on_c, 1, 55, 0
4, 720, Note_on_c, 1, 57, 75
4, 780, Note_on_c, 1, 57, 0
4, 780, Note_on_c, 1, 55, 75
4, 810, Note_on_c, 1, 55, 0
4, 810, Note_on_c, 1, 57, 75
4, 840, Note_on_c, 1, 57, 0
4, 840, Note_on_c, 1, 59, 75
4, 900, Note_on_c, 1, 59, 0
4, 900, Note_on_c, 1, 57, 75
4, 960, Note_on_c, 1, 57, 0
4, 960, Note_on_c, 1, 55, 75
4, 1020, Note_on_c, 1, 55, 0
4, 1020, Note_on_c, 1, 54, 75
4, 1080, Note_on_c, 1, 54, 0
4, 1080, Note_on_c, 1, 55, 75
4, 1140, Note_on_c, 1, 55, 0
4, 1140, Note_on_c, 1, 52, 75
4, 1175, Note_on_c, 1, 52, 0
4, 1200, Note_on_c, 1, 52, 75
4, 1260, Note_on_c, 1, 52, 0
4, 1260, Note_on_c, 1, 54, 75
4, 1295, Note_on_c, 1, 54, 0
4, 1320, Note_on_c, 1, 55, 75
4, 1335, Note_on_c, 1, 55, 0
4, 1335, Note_on_c, 1, 54, 75
4, 1350, Note_on_c, 1, 54, 0
4, 1350, Note_on_c, 1, 55, 75
4, 1365, Note_on_c, 1, 55, 0
4, 1365, Note_on_c, 1, 54, 75
4, 1380, Note_on_c, 1, 54, 0
4, 1380, Note_on_c, 1, 52, 75
4, 1410, Note_on_c, 1, 52, 0
4, 1410, Note_on_c, 1, 54, 75
4, 1440, Note_on_c, 1, 54, 0
4, 1440, Note_on_c, 1, 55, 75
4, 1500, Note_on_c, 1, 55, 0
4, 1500, Note_on_c, 1, 54, 75
4, 1530, Note_on_c, 1, 54, 0
4, 1530, Note_on_c, 1, 55, 75
4, 1560, Note_on_c, 1, 55, 0
4, 1560, Note_on_c, 1, 57, 75
4, 1620, Note_on_c, 1, 57, 0
4, 1620, Note_on_c, 1, 55, 75
4, 1680, Note_on_c, 1, 55, 0
4, 1680, Note_on_c, 1, 54, 75
4, 1740, Note_on_c, 1, 54, 0
4, 1740, Note_on_c, 1, 52, 75
4, 1800, Note_on_c, 1, 52, 0
4, 1800, Note_on_c, 1, 54, 75
4, 1920, Note_on_c, 1, 54, 0
4, 1980, Note_on_c, 1, 62, 75
4, 2010, Note_on_c, 1, 62, 0
4, 2010, Note_on_c, 1, 61, 75
4, 2040, Note_on_c, 1, 61, 0
4, 2040, Note_on_c, 1, 62, 75
4, 2100, Note_on_c, 1, 62, 0
4, 2100, Note_on_c, 1, 64, 75
4, 2130, Note_on_c, 1, 64, 0
4, 2130, Note_on_c, 1, 62, 75
4, 2160, Note_on_c, 1, 62, 0
4, 2160, Note_on_c, 1, 61, 75
4, 2280, Note_on_c, 1, 61, 0
4, 2340, Note_on_c, 1, 60, 75
4, 2370, Note_on_c, 1, 60, 0
4, 2370, Note_on_c, 1, 59, 75
4, 2400, Note_on_c, 1, 59, 0
4, 2400, Note_on_c, 1, 60, 75
4, 2460, Note_on_c, 1, 60, 0
4, 2460, Note_on_c, 1, 62, 75
4, 2490, Note_on_c, 1, 62, 0
4, 2490, Note_on_c, 1, 60, 75
4, 2520, Note_on_c, 1, 60, 0
4, 2520, Note_on_c, 1, 59, 75
4, 2580, Note_on_c, 1, 59, 0
4, 2580, Note_on_c, 1, 59, 75
4, 2640, Note_on_c, 1, 59, 0
4, 2640, Note_on_c, 1, 59, 75
4, 2700, Note_on_c, 1, 59, 0
4, 2700, Note_on_c, 1, 59, 75
4, 2760, Note_on_c, 1, 59, 0
4, 2760, Note_on_c, 1, 61, 75
4, 2775, Note_on_c, 1, 61, 0
4, 2775, Note_on_c, 1, 59, 75
4, 2790, Note_on_c, 1, 59, 0
4, 2790, Note_on_c, 1, 61, 75
4, 2805, Note_on_c, 1, 61, 0
4, 2805, Note_on_c, 1, 59, 75
4, 2820, Note_on_c, 1, 59, 0
4, 2820, Note_on_c, 1, 57, 75
4, 2850, Note_on_c, 1, 57, 0
4, 2850, Note_on_c, 1, 59, 75
4, 2880, Note_on_c, 1, 59, 0
4, 2880, Note_on_c, 1, 61, 75
4, 2940, Note_on_c, 1, 61, 0
4, 2940, Note_on_c, 1, 59, 75
4, 2970, Note_on_c, 1, 59, 0
4, 2970, Note_on_c, 1, 61, 75
4, 3000, Note_on_c, 1, 61, 0
4, 3000, Note_on_c, 1, 62, 75
4, 3120, Note_on_c, 1, 62, 0
4, 3120, Note_on_c, 1, 57, 75
4, 3300, Note_on_c, 1, 57, 0
4, 3300, Note_on_c, 1, 59, 75
4, 3330, Note_on_c, 1, 59, 0
4, 3330, Note_on_c, 1, 57, 75
4, 3360, Note_on_c, 1, 57, 0
4, 3360, Note_on_c, 1, 55, 75
4, 3420, Note_on_c, 1, 55, 0
4, 3420, Note_on_c, 1, 54, 75
4, 3480, Note_on_c, 1, 54, 0
4, 3480, Note_on_c, 1, 52, 75
4, 3540, Note_on_c, 1, 52, 0
4, 3540, Note_on_c, 1, 54, 75
4, 3600, Note_on_c, 1, 54, 0
4, 3600, Note_on_c, 1, 55, 75
4, 3660, Note_on_c, 1, 55, 0
4, 3660, Note_on_c, 1, 52, 75
4, 3720, Note_on_c, 1, 52, 0
4, 3720, Note_on_c, 1, 49, 75
4, 3780, Note_on_c, 1, 49, 0
4, 3780, Note_on_c, 1, 50, 75
4, 3810, Note_on_c, 1, 50, 0
4, 3810, Note_on_c, 1, 52, 75
4, 3840, Note_on_c, 1, 52, 0
4, 3840, Note_on_c, 1, 54, 75
4, 3900, Note_on_c, 1, 54, 0
4, 3900, Note_on_c, 1, 49, 75
4, 3960, Note_on_c, 1, 49, 0
4, 3960, Note_on_c, 1, 50, 75
4, 4020, Note_on_c, 1, 50, 0
4, 4140, Note_on_c, 1, 59, 75
4, 4200, Note_on_c, 1, 59, 0
4, 4200, Note_on_c, 1, 57, 75
4, 4260, Note_on_c, 1, 57, 0
4, 4260, Note_on_c, 1, 55, 75
4, 4320, Note_on_c, 1, 55, 0
4, 4320, Note_on_c, 1, 54, 75
4, 4380, Note_on_c, 1, 54, 0
4, 4380, Note_on_c, 1, 64, 75
4, 4410, Note_on_c, 1, 64, 0
4, 4410, Note_on_c, 1, 66, 75
4, 4425, Note_on_c, 1, 66, 0
4, 4425, Note_on_c, 1, 67, 75
4, 4440, Note_on_c, 1, 67, 0
4, 4440, Note_on_c, 1, 66, 75
4, 4500, Note_on_c, 1, 66, 0
4, 4500, Note_on_c, 1, 64, 75
4, 4560, Note_on_c, 1, 64, 0
4, 4560, Note_on_c, 1, 62, 75
4, 4620, Note_on_c, 1, 62, 0
4, 4620, Note_on_c, 1, 61, 75
4, 4680, Note_on_c, 1, 61, 0
4, 4680, Note_on_c, 1, 62, 75
4, 4800, Note_on_c, 1, 62, 0
4, 4860, Note_on_c, 1, 54, 49
4, 4890, Note_on_c, 1, 54, 0
4, 4890, Note_on_c, 1, 52, 49
4, 4920, Note_on_c, 1, 52, 0
4, 4920, Note_on_c, 1, 54, 49
4, 4980, Note_on_c, 1, 54, 0
4, 4980, Note_on_c, 1, 55, 49
4, 5010, Note_on_c, 1, 55, 0
4, 5010, Note_on_c, 1, 54, 49
4, 5040, Note_on_c, 1, 54, 0
4, 5040, Note_on_c, 1, 52, 49
4, 5160, Note_on_c, 1, 52, 0
4, 5220, Note_on_c, 1, 61, 49
4, 5250, Note_on_c, 1, 61, 0
4, 5250, Note_on_c, 1, 59, 49
4, 5280, Note_on_c, 1, 59, 0
4, 5280, Note_on_c, 1, 61, 49
4, 5340, Note_on_c, 1, 61, 0
4, 5340, Note_on_c, 1, 62, 49
4, 5370, Note_on_c, 1, 62, 0
4, 5370, Note_on_c, 1, 61, 49
4, 5400, Note_on_c, 1, 61, 0
4, 5400, Note_on_c, 1, 62, 49
4, 5520, Note_on_c, 1, 62, 0
4, 5820, Note_on_c, 1, 52, 49
4, 5880, Note_on_c, 1, 52, 0
4, 5880, Note_on_c, 1, 52, 49
4, 5940, Note_on_c, 1, 52, 0
4, 5940, Note_on_c, 1, 54, 49
4, 6000, Note_on_c, 1, 54, 0
4, 6000, Note_on_c, 1, 55, 49
4, 6015, Note_on_c, 1, 55, 0
4, 6015, Note_on_c, 1, 54, 49
4, 6030, Note_on_c, 1, 54, 0
4, 6030, Note_on_c, 1, 55, 49
4, 6045, Note_on_c, 1, 55, 0
4, 6045, Note_on_c, 1, 54, 49
4, 6060, Note_on_c, 1, 54, 0
4, 6060, Note_on_c, 1, 52, 49
4, 6090, Note_on_c, 1, 52, 0
4, 6090, Note_on_c, 1, 54, 49
4, 6120, Note_on_c, 1, 54, 0
4, 6120, Note_on_c, 1, 55, 49
4, 6180, Note_on_c, 1, 55, 0
4, 7200, Note_on_c, 1, 57, 49
4, 7260, Note_on_c, 1, 57, 0
4, 7260, Note_on_c, 1, 54, 49
4, 7295, Note_on_c, 1, 54, 0
4, 7320, Note_on_c, 1, 54, 49
4, 7380, Note_on_c, 1, 54, 0
4, 7380, Note_on_c, 1, 55, 49
4, 7415, Note_on_c, 1, 55, 0
4, 7440, Note_on_c, 1, 57, 49
4, 7455, Note_on_c, 1, 57, 0
4, 7455, Note_on_c, 1, 55, 49
4, 7470, Note_on_c, 1, 55, 0
4, 7470, Note_on_c, 1, 57, 49
4, 7485, Note_on_c, 1, 57, 0
4, 7485, Note_on_c, 1, 55, 49
4, 7500, Note_on_c, 1, 55, 0
4, 7500, Note_on_c, 1, 54, 49
4, 7530, Note_on_c, 1, 54, 0
4, 7530, Note_on_c, 1, 55, 49
4, 7560, Note_on_c, 1, 55, 0
4, 7560, Note_on_c, 1, 57, 49
4, 7680, Note_on_c, 1, 57, 0
4, 7740, Note_on_c, 1, 62, 49
4, 7770, Note_on_c, 1, 62, 0
4, 7770, Note_on_c, 1, 61, 49
4, 7800, Note_on_c, 1, 61, 0
4, 7800, Note_on_c, 1, 62, 49
4, 7860, Note_on_c, 1, 62, 0
4, 7860, Note_on_c, 1, 64, 49
4, 7890, Note_on_c, 1, 64, 0
4, 7890, Note_on_c, 1, 62, 49
4, 7920, Note_on_c, 1, 62, 0
4, 7920, Note_on_c, 1, 61, 49
4, 8040, Note_on_c, 1, 61, 0
4, 8100, Note_on_c, 1, 60, 49
4, 8130, Note_on_c, 1, 60, 0
4, 8130, Note_on_c, 1, 59, 49
4, 8160, Note_on_c, 1, 59, 0
4, 8160, Note_on_c, 1, 60, 49
4, 8220, Note_on_c, 1, 60, 0
4, 8220, Note_on_c, 1, 62, 49
4, 8250, Note_on_c, 1, 62, 0
4, 8250, Note_on_c, 1, 60, 49
4, 8280, Note_on_c, 1, 60, 0
4, 8280, Note_on_c, 1, 59, 49
4, 8340, Note_on_c, 1, 59, 0
4, 8340, Note_on_c, 1, 59, 49
4, 8400, Note_on_c, 1, 59, 0
4, 8400, Note_on_c, 1, 59, 49
4, 8460, Note_on_c, 1, 59, 0
4, 8460, Note_on_c, 1, 59, 49
4, 8520, Note_on_c, 1, 59, 0
4, 8520, Note_on_c, 1, 59, 49
4, 8580, Note_on_c, 1, 59, 0
4, 8580, Note_on_c, 1, 57, 49
4, 8610, Note_on_c, 1, 57, 0
4, 8610, Note_on_c, 1, 59, 49
4, 8640, Note_on_c, 1, 59, 0
4, 8640, Note_on_c, 1, 61, 49
4, 8700, Note_on_c, 1, 61, 0
4, 8700, Note_on_c, 1, 62, 49
4, 8760, Note_on_c, 1, 62, 0
4, 8760, Note_on_c, 1, 62, 49
4, 8820, Note_on_c, 1, 62, 0
4, 8820, Note_on_c, 1, 62, 49
4, 8880, Note_on_c, 1, 62, 0
4, 8880, Note_on_c, 1, 62, 49
4, 8940, Note_on_c, 1, 62, 0
4, 8940, Note_on_c, 1, 61, 49
4, 8970, Note_on_c, 1, 61, 0
4, 8970, Note_on_c, 1, 62, 49
4, 9000, Note_on_c, 1, 62, 0
4, 9000, Note_on_c, 1, 59, 49
4, 9120, Note_on_c, 1, 59, 0
4, 9180, Note_on_c, 1, 62, 49
4, 9240, Note_on_c, 1, 62, 0
4, 9240, Note_on_c, 1, 64, 49
4, 9300, Note_on_c, 1, 64, 0
4, 9300, Note_on_c, 1, 66, 49
4, 9360, Note_on_c, 1, 66, 0
4, 9360, Note_on_c, 1, 64, 49
4, 9420, Note_on_c, 1, 64, 0
4, 9420, Note_on_c, 1, 62, 49
4, 9450, Note_on_c, 1, 62, 0
4, 9450, Note_on_c, 1, 61, 49
4, 9480, Note_on_c, 1, 61, 0
4, 9480, Note_on_c, 1, 62, 49
4, 9540, Note_on_c, 1, 62, 0
4, 10080, Note_on_c, 1, 57, 49
4, 10140, Note_on_c, 1, 57, 0
4, 10140, Note_on_c, 1, 52, 49
4, 10175, Note_on_c, 1, 52, 0
4, 10200, Note_on_c, 1, 52, 49
4, 10260, Note_on_c, 1, 52, 0
4, 10260, Note_on_c, 1, 54, 49
4, 10295, Note_on_c, 1, 54, 0
4, 10320, Note_on_c, 1, 55, 49
4, 10335, Note_on_c, 1, 55, 0
4, 10335, Note_on_c, 1, 54, 49
4, 10350, Note_on_c, 1, 54, 0
4, 10350, Note_on_c, 1, 55, 49
4, 10365, Note_on_c, 1, 55, 0
4, 10365, Note_on_c, 1, 54, 49
4, 10380, Note_on_c, 1, 54, 0
4, 10380, Note_on_c, 1, 52, 49
4, 10410, Note_on_c, 1, 52, 0
4, 10410, Note_on_c, 1, 54, 49
4, 10440, Note_on_c, 1, 54, 0
4, 10440, Note_on_c, 1, 55, 49
4, 10500, Note_on_c, 1, 55, 0
4, 10800, Note_on_c, 1, 57, 49
4, 10860, Note_on_c, 1, 57, 0
4, 10860, Note_on_c, 1, 54, 49
4, 10895, Note_on_c, 1, 54, 0
4, 10920, Note_on_c, 1, 54, 49
4, 10980, Note_on_c, 1, 54, 0
4, 10980, Note_on_c, 1, 55, 49
4, 11015, Note_on_c, 1, 55, 0
4, 11040, Note_on_c, 1, 57, 49
4, 11055, Note_on_c, 1, 57, 0
4, 11055, Note_on_c, 1, 55, 49
4, 11070, Note_on_c, 1, 55, 0
4, 11070, Note_on_c, 1, 57, 49
4, 11085, Note_on_c, 1, 57, 0
4, 11085, Note_on_c, 1, 55, 49
4, 11100, Note_on_c, 1, 55, 0
4, 11100, Note_on_c, 1, 54, 49
4, 11130, Note_on_c, 1, 54, 0
4, 11130, Note_on_c, 1, 55, 49
4, 11160, Note_on_c, 1, 55, 0
4, 11160, Note_on_c, 1, 57, 49
4, 11220, Note_on_c, 1, 57, 0
4, 11700, Note_on_c, 1, 56, 49
4, 11760, Note_on_c, 1, 56, 0
4, 11760, Note_on_c, 1, 57, 49
4, 11820, Note_on_c, 1, 57, 0
4, 11820, Note_on_c, 1, 59, 49
4, 11880, Note_on_c, 1, 59, 0
4, 11880, Note_on_c, 1, 61, 49
4, 11940, Note_on_c, 1, 61, 0
4, 11940, Note_on_c, 1, 57, 49
4, 11975, Note_on_c, 1, 57, 0
4, 12000, Note_on_c, 1, 57, 49
4, 12060, Note_on_c, 1, 57, 0
4, 12060, Note_on_c, 1, 59, 49
4, 12095, Note_on_c, 1, 59, 0
4, 12120, Note_on_c, 1, 61, 49
4, 12135, Note_on_c, 1, 61, 0
4, 12135, Note_on_c, 1, 59, 49
4, 12150, Note_on_c, 1, 59, 0
4, 12150, Note_on_c, 1, 61, 49
4, 12165, Note_on_c, 1, 61, 0
4, 12165, Note_on_c, 1, 59, 49
4, 12180, Note_on_c, 1, 59, 0
4, 12180, Note_on_c, 1, 57, 49
4, 12210, Note_on_c, 1, 57, 0
4, 12210, Note_on_c, 1, 59, 49
4, 12240, Note_on_c, 1, 59, 0
4, 12240, Note_on_c, 1, 61, 49
4, 12300, Note_on_c, 1, 61, 0
4, 12300, Note_on_c, 1, 59, 49
4, 12330, Note_on_c, 1, 59, 0
4, 12330, Note_on_c, 1, 61, 49
4, 12360, Note_on_c, 1, 61, 0
4, 12360, Note_on_c, 1, 62, 49
4, 12420, Note_on_c, 1, 62, 0
4, 12420, Note_on_c, 1, 61, 49
4, 12480, Note_on_c, 1, 61, 0
4, 12480, Note_on_c, 1, 59, 49
4, 12540, Note_on_c, 1, 59, 0
4, 12540, Note_on_c, 1, 57, 49
4, 12600, Note_on_c, 1, 57, 0
4, 12600, Note_on_c, 1, 59, 49
4, 12660, Note_on_c, 1, 59, 0
4, 12660, Note_on_c, 1, 56, 49
4, 12695, Note_on_c, 1, 56, 0
4, 12720, Note_on_c, 1, 56, 49
4, 12780, Note_on_c, 1, 56, 0
4, 12780, Note_on_c, 1, 57, 49
4, 12815, Note_on_c, 1, 57, 0
4, 12840, Note_on_c, 1, 59, 49
4, 12855, Note_on_c, 1, 59, 0
4, 12855, Note_on_c, 1, 57, 49
4, 12870, Note_on_c, 1, 57, 0
4, 12870, Note_on_c, 1, 59, 49
4, 12885, Note_on_c, 1, 59, 0
4, 12885, Note_on_c, 1, 57, 49
4, 12900, Note_on_c, 1, 57, 0
4, 12900, Note_on_c, 1, 56, 49
4, 12930, Note_on_c, 1, 56, 0
4, 12930, Note_on_c, 1, 57, 49
4, 12960, Note_on_c, 1, 57, 0
4, 12960, Note_on_c, 1, 59, 49
4, 13020, Note_on_c, 1, 59, 0
4, 13020, Note_on_c, 1, 57, 49
4, 13050, Note_on_c, 1, 57, 0
4, 13050, Note_on_c, 1, 59, 49
4, 13080, Note_on_c, 1, 59, 0
4, 13080, Note_on_c, 1, 61, 49
4, 13140, Note_on_c, 1, 61, 0
4, 13140, Note_on_c, 1, 59, 49
4, 13200, Note_on_c, 1, 59, 0
4, 13200, Note_on_c, 1, 57, 49
4, 13260, Note_on_c, 1, 57, 0
4, 13260, Note_on_c, 1, 56, 49
4, 13320, Note_on_c, 1, 56, 0
4, 13320, Note_on_c, 1, 57, 49
4, 13440, Note_on_c, 1, 57, 0
4, 13500, Note_on_c, 1, 57, 49
4, 13530, Note_on_c, 1, 57, 0
4, 13530, Note_on_c, 1, 56, 49
4, 13560, Note_on_c, 1, 56, 0
4, 13560, Note_on_c, 1, 57, 49
4, 13620, Note_on_c, 1, 57, 0
4, 13620, Note_on_c, 1, 59, 49
4, 13650, Note_on_c, 1, 59, 0
4, 13650, Note_on_c, 1, 57, 49
4, 13680, Note_on_c, 1, 57, 0
4, 13680, Note_on_c, 1, 56, 49
4, 13800, Note_on_c, 1, 56, 0
4, 13860, Note_on_c, 1, 55, 49
4, 13890, Note_on_c, 1, 55, 0
4, 13890, Note_on_c, 1, 54, 49
4, 13920, Note_on_c, 1, 54, 0
4, 13920, Note_on_c, 1, 55, 49
4, 13980, Note_on_c, 1, 55, 0
4, 13980, Note_on_c, 1, 57, 49
4, 14010, Note_on_c, 1, 57, 0
4, 14010, Note_on_c, 1, 55, 49
4, 14040, Note_on_c, 1, 55, 0
4, 14040, Note_on_c, 1, 54, 49
4, 14100, Note_on_c, 1, 54, 0
4, 14100, Note_on_c, 1, 54, 49
4, 14160, Note_on_c, 1, 54, 0
4, 14160, Note_on_c, 1, 54, 49
4, 14220, Note_on_c, 1, 54, 0
4, 14220, Note_on_c, 1, 54, 49
4, 14280, Note_on_c, 1, 54, 0
4, 14280, Note_on_c, 1, 55, 49
4, 14295, Note_on_c, 1, 55, 0
4, 14295, Note_on_c, 1, 54, 49
4, 14310, Note_on_c, 1, 54, 0
4, 14310, Note_on_c, 1, 55, 49
4, 14325, Note_on_c, 1, 55, 0
4, 14325, Note_on_c, 1, 54, 49
4, 14340, Note_on_c, 1, 54, 0
4, 14340, Note_on_c, 1, 52, 49
4, 14370, Note_on_c, 1, 52, 0
4, 14370, Note_on_c, 1, 54, 49
4, 14400, Note_on_c, 1, 54, 0
4, 14400, Note_on_c, 1, 56, 49
4, 14460, Note_on_c, 1, 56, 0
4, 14460, Note_on_c, 1, 54, 49
4, 14490, Note_on_c, 1, 54, 0
4, 14490, Note_on_c, 1, 56, 49
4, 14520, Note_on_c, 1, 56, 0
4, 14520, Note_on_c, 1, 57, 49
4, 14580, Note_on_c, 1, 57, 0
4, 14580, Note_on_c, 1, 52, 49
4, 14640, Note_on_c, 1, 52, 0
4, 14640, Note_on_c, 1, 64, 49
4, 14760, Note_on_c, 1, 64, 0
4, 14760, Note_on_c, 1, 64, 49
4, 14820, Note_on_c, 1, 64, 0
4, 14820, Note_on_c, 1, 66, 49
4, 14850, Note_on_c, 1, 66, 0
4, 14850, Note_on_c, 1, 64, 49
4, 14880, Note_on_c, 1, 64, 0
4, 14880, Note_on_c, 1, 62, 49
4, 14940, Note_on_c, 1, 62, 0
4, 14940, Note_on_c, 1, 61, 49
4, 15000, Note_on_c, 1, 61, 0
4, 15000, Note_on_c, 1, 59, 49
4, 15060, Note_on_c, 1, 59, 0
4, 15060, Note_on_c, 1, 61, 49
4, 15120, Note_on_c, 1, 61, 0
4, 15120, Note_on_c, 1, 62, 49
4, 15180, Note_on_c, 1, 62, 0
4, 15180, Note_on_c, 1, 59, 49
4, 15240, Note_on_c, 1, 59, 0
4, 15240, Note_on_c, 1, 56, 49
4, 15300, Note_on_c, 1, 56, 0
4, 15300, Note_on_c, 1, 57, 49
4, 15330, Note_on_c, 1, 57, 0
4, 15330, Note_on_c, 1, 59, 49
4, 15360, Note_on_c, 1, 59, 0
4, 15360, Note_on_c, 1, 61, 49
4, 15420, Note_on_c, 1, 61, 0
4, 15420, Note_on_c, 1, 56, 49
4, 15480, Note_on_c, 1, 56, 0
4, 15480, Note_on_c, 1, 57, 49
4, 15540, Note_on_c, 1, 57, 0
4, 15660, Note_on_c, 1, 66, 49
4, 15720, Note_on_c, 1, 66, 0
4, 15720, Note_on_c, 1, 64, 49
4, 15780, Note_on_c, 1, 64, 0
4, 15780, Note_on_c, 1, 62, 49
4, 15840, Note_on_c, 1, 62, 0
4, 15840, Note_on_c, 1, 61, 49
4, 15900, Note_on_c, 1, 61, 0
4, 16200, Note_on_c, 1, 64, 75
4, 16260, Note_on_c, 1, 64, 0
4, 16260, Note_on_c, 1, 61, 75
4, 16295, Note_on_c, 1, 61, 0
4, 16320, Note_on_c, 1, 61, 75
4, 16380, Note_on_c, 1, 61, 0
4, 16380, Note_on_c, 1, 62, 75
4, 16415, Note_on_c, 1, 62, 0
4, 16440, Note_on_c, 1, 64, 75
4, 16455, Note_on_c, 1, 64, 0
4, 16455, Note_on_c, 1, 62, 75
4, 16470, Note_on_c, 1, 62, 0
4, 16470, Note_on_c, 1, 64, 75
4, 16485, Note_on_c, 1, 64, 0
4, 16485, Note_on_c, 1, 62, 75
4, 16500, Note_on_c, 1, 62, 0
4, 16500, Note_on_c, 1, 61, 75
4, 16530, Note_on_c, 1, 61, 0
4, 16530, Note_on_c, 1, 62, 75
4, 16560, Note_on_c, 1, 62, 0
4, 16560, Note_on_c, 1, 64, 75
4, 16620, Note_on_c, 1, 64, 0
4, 16620, Note_on_c, 1, 62, 75
4, 16650, Note_on_c, 1, 62, 0
4, 16650, Note_on_c, 1, 64, 75
4, 16680, Note_on_c, 1, 64, 0
4, 16680, Note_on_c, 1, 66, 75
4, 16740, Note_on_c, 1, 66, 0
4, 16740, Note_on_c, 1, 64, 75
4, 16800, Note_on_c, 1, 64, 0
4, 16800, Note_on_c, 1, 62, 75
4, 16860, Note_on_c, 1, 62, 0
4, 16860, Note_on_c, 1, 61, 75
4, 16920, Note_on_c, 1, 61, 0
4, 16920, Note_on_c, 1, 62, 75
4, 16980, Note_on_c, 1, 62, 0
4, 16980, Note_on_c, 1, 59, 75
4, 17015, Note_on_c, 1, 59, 0
4, 17040, Note_on_c, 1, 59, 75
4, 17100, Note_on_c, 1, 59, 0
4, 17100, Note_on_c, 1, 61, 75
4, 17135, Note_on_c, 1, 61, 0
4, 17160, Note_on_c, 1, 62, 75
4, 17175, Note_on_c, 1, 62, 0
4, 17175, Note_on_c, 1, 61, 75
4, 17190, Note_on_c, 1, 61, 0
4, 17190, Note_on_c, 1, 62, 75
4, 17205, Note_on_c, 1, 62, 0
4, 17205, Note_on_c, 1, 61, 75
4, 17220, Note_on_c, 1, 61, 0
4, 17220, Note_on_c, 1, 59, 75
4, 17250, Note_on_c, 1, 59, 0
4, 17250, Note_on_c, 1, 61, 75
4, 17280, Note_on_c, 1, 61, 0
4, 17280, Note_on_c, 1, 62, 75
4, 17340, Note_on_c, 1, 62, 0
4, 17340, Note_on_c, 1, 61, 75
4, 17370, Note_on_c, 1, 61, 0
4, 17370, Note_on_c, 1, 62, 75
4, 17400, Note_on_c, 1, 62, 0
4, 17400, Note_on_c, 1, 64, 75
4, 17460, Note_on_c, 1, 64, 0
4, 17460, Note_on_c, 1, 62, 75
4, 17520, Note_on_c, 1, 62, 0
4, 17520, Note_on_c, 1, 61, 75
4, 17580, Note_on_c, 1, 61, 0
4, 17580, Note_on_c, 1, 59, 75
4, 17640, Note_on_c, 1, 59, 0
4, 17640, Note_on_c, 1, 61, 75
4, 17700, Note_on_c, 1, 61, 0
4, 17700, Note_on_c, 1, 52, 75
4, 17760, Note_on_c, 1, 52, 0
4, 17760, Note_on_c, 1, 57, 75
4, 18060, Note_on_c, 1, 57, 0
4, 18060, Note_on_c, 1, 54, 75
4, 18120, Note_on_c, 1, 54, 0
4, 18120, Note_on_c, 1, 59, 75
4, 18390, Note_on_c, 1, 59, 0
4, 18390, Note_on_c, 1, 57, 75
4, 18420, Note_on_c, 1, 57, 0
4, 18420, Note_on_c, 1, 56, 75
4, 18450, Note_on_c, 1, 56, 0
4, 18450, Note_on_c, 1, 57, 75
4, 18480, Note_on_c, 1, 57, 0
4, 18480, Note_on_c, 1, 59, 75
4, 18540, Note_on_c, 1, 59, 0
4, 18540, Note_on_c, 1, 56, 75
4, 18600, Note_on_c, 1, 56, 0
4, 18600, Note_on_c, 1, 52, 75
4, 18780, Note_on_c, 1, 52, 0
4, 18780, Note_on_c, 1, 62, 75
4, 18840, Note_on_c, 1, 62, 0
4, 18840, Note_on_c, 1, 61, 75
4, 18870, Note_on_c, 1, 61, 0
4, 18870, Note_on_c, 1, 59, 75
4, 18900, Note_on_c, 1, 59, 0
4, 18900, Note_on_c, 1, 57, 75
4, 18930, Note_on_c, 1, 57, 0
4, 18930, Note_on_c, 1, 59, 75
4, 18960, Note_on_c, 1, 59, 0
4, 18960, Note_on_c, 1, 61, 75
4, 18975, Note_on_c, 1, 61, 0
4, 18975, Note_on_c, 1, 59, 75
4, 18990, Note_on_c, 1, 59, 0
4, 18990, Note_on_c, 1, 61, 75
4, 19005, Note_on_c, 1, 61, 0
4, 19005, Note_on_c, 1, 59, 75
4, 19020, Note_on_c, 1, 59, 0
4, 19020, Note_on_c, 1, 61, 75
4, 19035, Note_on_c, 1, 61, 0
4, 19035, Note_on_c, 1, 59, 75
4, 19050, Note_on_c, 1, 59, 0
4, 19050, Note_on_c, 1, 57, 75
4, 19080, Note_on_c, 1, 57, 0
4, 19080, Note_on_c, 1, 57, 75
4, 19140, Note_on_c, 1, 57, 0
4, 19140, Note_on_c, 1, 45, 75
4, 19200, Note_on_c, 1, 45, 0
4, 19260, Note_on_c, 1, 57, 49
4, 19290, Note_on_c, 1, 57, 0
4, 19290, Note_on_c, 1, 55, 49
4, 19320, Note_on_c, 1, 55, 0
4, 19320, Note_on_c, 1, 57, 49
4, 19380, Note_on_c, 1, 57, 0
4, 19380, Note_on_c, 1, 59, 49
4, 19410, Note_on_c, 1, 59, 0
4, 19410, Note_on_c, 1, 57, 49
4, 19440, Note_on_c, 1, 57, 0
4, 19440, Note_on_c, 1, 55, 49
4, 19500, Note_on_c, 1, 55, 0
4, 19500, Note_on_c, 1, 55, 49
4, 19560, Note_on_c, 1, 55, 0
4, 19560, Note_on_c, 1, 55, 49
4, 19620, Note_on_c, 1, 55, 0
4, 19620, Note_on_c, 1, 55, 49
4, 19680, Note_on_c, 1, 55, 0
4, 19680, Note_on_c, 1, 55, 49
4, 19740, Note_on_c, 1, 55, 0
4, 19740, Note_on_c, 1, 55, 49
4, 19800, Note_on_c, 1, 55, 0
4, 19800, Note_on_c, 1, 54, 49
4, 19860, Note_on_c, 1, 54, 0
4, 19860, Note_on_c, 1, 54, 49
4, 19920, Note_on_c, 1, 54, 0
4, 19920, Note_on_c, 1, 54, 49
4, 19980, Note_on_c, 1, 54, 0
4, 19980, Note_on_c, 1, 52, 49
4, 20010, Note_on_c, 1, 52, 0
4, 20010, Note_on_c, 1, 51, 49
4, 20040, Note_on_c, 1, 51, 0
4, 20040, Note_on_c, 1, 52, 49
4, 20100, Note_on_c, 1, 52, 0
4, 20220, Note_on_c, 1, 59, 49
4, 20280, Note_on_c, 1, 59, 0
4, 20280, Note_on_c, 1, 61, 49
4, 20340, Note_on_c, 1, 61, 0
4, 20340, Note_on_c, 1, 63, 49
4, 20400, Note_on_c, 1, 63, 0
4, 20400, Note_on_c, 1, 64, 49
4, 20460, Note_on_c, 1, 64, 0
4, 20460, Note_on_c, 1, 66, 49
4, 20520, Note_on_c, 1, 66, 0
4, 20520, Note_on_c, 1, 67, 49
4, 20640, Note_on_c, 1, 67, 0
4, 20700, Note_on_c, 1, 67, 49
4, 20730, Note_on_c, 1, 67, 0
4, 20730, Note_on_c, 1, 66, 49
4, 20760, Note_on_c, 1, 66, 0
4, 20760, Note_on_c, 1, 67, 49
4, 20820, Note_on_c, 1, 67, 0
4, 20820, Note_on_c, 1, 69, 49
4, 20850, Note_on_c, 1, 69, 0
4, 20850, Note_on_c, 1, 67, 49
4, 20880, Note_on_c, 1, 67, 0
4, 20880, Note_on_c, 1, 66, 49
4, 21000, Note_on_c, 1, 66, 0
4, 21060, Note_on_c, 1, 66, 49
4, 21090, Note_on_c, 1, 66, 0
4, 21090, Note_on_c, 1, 64, 49
4, 21120, Note_on_c, 1, 64, 0
4, 21120, Note_on_c, 1, 66, 49
4, 21180, Note_on_c, 1, 66, 0
4, 21180, Note_on_c, 1, 67, 49
4, 21210, Note_on_c, 1, 67, 0
4, 21210, Note_on_c, 1, 66, 49
4, 21240, Note_on_c, 1, 66, 0
4, 21240, Note_on_c, 1, 64, 49
4, 21300, Note_on_c, 1, 64, 0
4, 21300, Note_on_c, 1, 67, 49
4, 21360, Note_on_c, 1, 67, 0
4, 21360, Note_on_c, 1, 66, 49
4, 21420, Note_on_c, 1, 66, 0
4, 21420, Note_on_c, 1, 64, 49
4, 21480, Note_on_c, 1, 64, 0
4, 21480, Note_on_c, 1, 64, 49
4, 21495, Note_on_c, 1, 64, 0
4, 21495, Note_on_c, 1, 62, 49
4, 21510, Note_on_c, 1, 62, 0
4, 21510, Note_on_c, 1, 64, 49
4, 21525, Note_on_c, 1, 64, 0
4, 21525, Note_on_c, 1, 62, 49
4, 21540, Note_on_c, 1, 62, 0
4, 21540, Note_on_c, 1, 61, 49
4, 21570, Note_on_c, 1, 61, 0
4, 21570, Note_on_c, 1, 59, 49
4, 21600, Note_on_c, 1, 59, 0
4, 21600, Note_on_c, 1, 66, 49
4, 21720, Note_on_c, 1, 66, 0
4, 21960, Note_on_c, 1, 66, 49
4, 22020, Note_on_c, 1, 66, 0
4, 22020, Note_on_c, 1, 62, 49
4, 22055, Note_on_c, 1, 62, 0
4, 22080, Note_on_c, 1, 62, 49
4, 22140, Note_on_c, 1, 62, 0
4, 22140, Note_on_c, 1, 64, 49
4, 22175, Note_on_c, 1, 64, 0
4, 22200, Note_on_c, 1, 66, 49
4, 22215, Note_on_c, 1, 66, 0
4, 22215, Note_on_c, 1, 64, 49
4, 22230, Note_on_c, 1, 64, 0
4, 22230, Note_on_c, 1, 66, 49
4, 22245, Note_on_c, 1, 66, 0
4, 22245, Note_on_c, 1, 64, 49
4, 22260, Note_on_c, 1, 64, 0
4, 22260, Note_on_c, 1, 62, 49
4, 22290, Note_on_c, 1, 62, 0
4, 22290, Note_on_c, 1, 64, 49
4, 22320, Note_on_c, 1, 64, 0
4, 22320, Note_on_c, 1, 66, 49
4, 22380, Note_on_c, 1, 66, 0
4, 22380, Note_on_c, 1, 64, 49
4, 22410, Note_on_c, 1, 64, 0
4, 22410, Note_on_c, 1, 66, 49
4, 22440, Note_on_c, 1, 66, 0
4, 22440, Note_on_c, 1, 67, 49
4, 22500, Note_on_c, 1, 67, 0
4, 22500, Note_on_c, 1, 66, 49
4, 22560, Note_on_c, 1, 66, 0
4, 22560, Note_on_c, 1, 64, 49
4, 22620, Note_on_c, 1, 64, 0
4, 22620, Note_on_c, 1, 62, 49
4, 22680, Note_on_c, 1, 62, 0
4, 22680, Note_on_c, 1, 64, 49
4, 22740, Note_on_c, 1, 64, 0
4, 22740, Note_on_c, 1, 61, 49
4, 22775, Note_on_c, 1, 61, 0
4, 22800, Note_on_c, 1, 61, 49
4, 22860, Note_on_c, 1, 61, 0
4, 22860, Note_on_c, 1, 62, 49
4, 22895, Note_on_c, 1, 62, 0
4, 22920, Note_on_c, 1, 64, 49
4, 22935, Note_on_c, 1, 64, 0
4, 22935, Note_on_c, 1, 62, 49
4, 22950, Note_on_c, 1, 62, 0
4, 22950, Note_on_c, 1, 64, 49
4, 22965, Note_on_c, 1, 64, 0
4, 22965, Note_on_c, 1, 62, 49
4, 22980, Note_on_c, 1, 62, 0
4, 22980, Note_on_c, 1, 61, 49
4, 23010, Note_on_c, 1, 61, 0
4, 23010, Note_on_c, 1, 62, 49
4, 23040, Note_on_c, 1, 62, 0
4, 23040, Note_on_c, 1, 64, 49
4, 23100, Note_on_c, 1, 64, 0
4, 23100, Note_on_c, 1, 62, 49
4, 23130, Note_on_c, 1, 62, 0
4, 23130, Note_on_c, 1, 64, 49
4, 23160, Note_on_c, 1, 64, 0
4, 23160, Note_on_c, 1, 66, 49
4, 23220, Note_on_c, 1, 66, 0
4, 23220, Note_on_c, 1, 64, 49
4, 23280, Note_on_c, 1, 64, 0
4, 23280, Note_on_c, 1, 62, 49
4, 23340, Note_on_c, 1, 62, 0
4, 23340, Note_on_c, 1, 61, 49
4, 23400, Note_on_c, 1, 61, 0
4, 23400, Note_on_c, 1, 62, 49
4, 23460, Note_on_c, 1, 62, 0
4, 23460, Note_on_c, 1, 66, 49
4, 23490, Note_on_c, 1, 66, 0
4, 23490, Note_on_c, 1, 64, 49
4, 23520, Note_on_c, 1, 64, 0
4, 23520, Note_on_c, 1, 66, 49
4, 23580, Note_on_c, 1, 66, 0
4, 23580, Note_on_c, 1, 67, 49
4, 23610, Note_on_c, 1, 67, 0
4, 23610, Note_on_c, 1, 66, 49
4, 23640, Note_on_c, 1, 66, 0
4, 23640, Note_on_c, 1, 64, 49
4, 23700, Note_on_c, 1, 64, 0
4, 24300, Note_on_c, 1, 62, 75
4, 24330, Note_on_c, 1, 62, 0
4, 24330, Note_on_c, 1, 61, 75
4, 24360, Note_on_c, 1, 61, 0
4, 24360, Note_on_c, 1, 62, 75
4, 24420, Note_on_c, 1, 62, 0
4, 24420, Note_on_c, 1, 64, 75
4, 24450, Note_on_c, 1, 64, 0
4, 24450, Note_on_c, 1, 62, 75
4, 24480, Note_on_c, 1, 62, 0
4, 24480, Note_on_c, 1, 61, 75
4, 24600, Note_on_c, 1, 61, 0
4, 24660, Note_on_c, 1, 60, 75
4, 24690, Note_on_c, 1, 60, 0
4, 24690, Note_on_c, 1, 59, 75
4, 24720, Note_on_c, 1, 59, 0
4, 24720, Note_on_c, 1, 60, 75
4, 24780, Note_on_c, 1, 60, 0
4, 24780, Note_on_c, 1, 62, 75
4, 24810, Note_on_c, 1, 62, 0
4, 24810, Note_on_c, 1, 60, 75
4, 24840, Note_on_c, 1, 60, 0
4, 24840, Note_on_c, 1, 59, 75
4, 24900, Note_on_c, 1, 59, 0
4, 24900, Note_on_c, 1, 59, 75
4, 24960, Note_on_c, 1, 59, 0
4, 24960, Note_on_c, 1, 59, 75
4, 25020, Note_on_c, 1, 59, 0
4, 25020, Note_on_c, 1, 59, 75
4, 25080, Note_on_c, 1, 59, 0
4, 25080, Note_on_c, 1, 61, 75
4, 25095, Note_on_c, 1, 61, 0
4, 25095, Note_on_c, 1, 59, 75
4, 25110, Note_on_c, 1, 59, 0
4, 25110, Note_on_c, 1, 61, 75
4, 25125, Note_on_c, 1, 61, 0
4, 25125, Note_on_c, 1, 59, 75
4, 25140, Note_on_c, 1, 59, 0
4, 25140, Note_on_c, 1, 57, 75
4, 25170, Note_on_c, 1, 57, 0
4, 25170, Note_on_c, 1, 59, 75
4, 25200, Note_on_c, 1, 59, 0
4, 25200, Note_on_c, 1, 61, 75
4, 25260, Note_on_c, 1, 61, 0
4, 25260, Note_on_c, 1, 59, 75
4, 25290, Note_on_c, 1, 59, 0
4, 25290, Note_on_c, 1, 61, 75
4, 25320, Note_on_c, 1, 61, 0
4, 25320, Note_on_c, 1, 62, 75
4, 25440, Note_on_c, 1, 62, 0
4, 25440, Note_on_c, 1, 57, 75
4, 25620, Note_on_c, 1, 57, 0
4, 25620, Note_on_c, 1, 61, 75
4, 25680, Note_on_c, 1, 61, 0
4, 25680, Note_on_c, 1, 59, 75
4, 25740, Note_on_c, 1, 59, 0
4, 25740, Note_on_c, 1, 62, 75
4, 25800, Note_on_c, 1, 62, 0
4, 25800, Note_on_c, 1, 61, 75
4, 25860, Note_on_c, 1, 61, 0
4, 25860, Note_on_c, 1, 59, 75
4, 25920, Note_on_c, 1, 59, 0
4, 25920, Note_on_c, 1, 58, 75
4, 25950, Note_on_c, 1, 58, 0
4, 25950, Note_on_c, 1, 59, 75
4, 25980, Note_on_c, 1, 59, 0
4, 25980, Note_on_c, 1, 56, 75
4, 26010, Note_on_c, 1, 56, 0
4, 26010, Note_on_c, 1, 58, 75
4, 26040, Note_on_c, 1, 58, 0
4, 26040, Note_on_c, 1, 59, 75
4, 26070, Note_on_c, 1, 59, 0
4, 26070, Note_on_c, 1, 61, 75
4, 26100, Note_on_c, 1, 61, 0
4, 26100, Note_on_c, 1, 58, 75
4, 26130, Note_on_c, 1, 58, 0
4, 26130, Note_on_c, 1, 59, 75
4, 26160, Note_on_c, 1, 59, 0
4, 26160, Note_on_c, 1, 61, 75
4, 26190, Note_on_c, 1, 61, 0
4, 26190, Note_on_c, 1, 59, 75
4, 26220, Note_on_c, 1, 59, 0
4, 26220, Note_on_c, 1, 58, 75
4, 26250, Note_on_c, 1, 58, 0
4, 26250, Note_on_c, 1, 61, 75
4, 26280, Note_on_c, 1, 61, 0
4, 26280, Note_on_c, 1, 59, 75
4, 26340, Note_on_c, 1, 59, 0
4, 26340, Note_on_c, 1, 58, 75
4, 26370, Note_on_c, 1, 58, 0
4, 26370, Note_on_c, 1, 56, 75
4, 26400, Note_on_c, 1, 56, 0
4, 26400, Note_on_c, 1, 54, 75
4, 26430, Note_on_c, 1, 54, 0
4, 26430, Note_on_c, 1, 52, 75
4, 26460, Note_on_c, 1, 52, 0
4, 26460, Note_on_c, 1, 50, 75
4, 26490, Note_on_c, 1, 50, 0
4, 26490, Note_on_c, 1, 49, 75
4, 26520, Note_on_c, 1, 49, 0
4, 26520, Note_on_c, 1, 47, 75
4, 26550, Note_on_c, 1, 47, 0
4, 26550, Note_on_c, 1, 50, 75
4, 26580, Note_on_c, 1, 50, 0
4, 26580, Note_on_c, 1, 49, 75
4, 26610, Note_on_c, 1, 49, 0
4, 26610, Note_on_c, 1, 52, 75
4, 26640, Note_on_c, 1, 52, 0
4, 26640, Note_on_c, 1, 50, 75
4, 26700, Note_on_c, 1, 50, 0
4, 26700, Note_on_c, 1, 59, 75
4, 26730, Note_on_c, 1, 59, 0
4, 26730, Note_on_c, 1, 58, 75
4, 26760, Note_on_c, 1, 58, 0
4, 26760, Note_on_c, 1, 59, 75
4, 26820, Note_on_c, 1, 59, 0
4, 26820, Note_on_c, 1, 62, 75
4, 26880, Note_on_c, 1, 62, 0
4, 26880, Note_on_c, 1, 54, 75
4, 26940, Note_on_c, 1, 54, 0
4, 26940, Note_on_c, 1, 58, 75
4, 27000, Note_on_c, 1, 58, 0
4, 27000, Note_on_c, 1, 59, 49
4, 27120, Note_on_c, 1, 59, 0
4, 27180, Note_on_c, 1, 59, 49
4, 27210, Note_on_c, 1, 59, 0
4, 27210, Note_on_c, 1, 57, 49
4, 27240, Note_on_c, 1, 57, 0
4, 27240, Note_on_c, 1, 59, 49
4, 27300, Note_on_c, 1, 59, 0
4, 27300, Note_on_c, 1, 61, 49
4, 27330, Note_on_c, 1, 61, 0
4, 27330, Note_on_c, 1, 59, 49
4, 27360, Note_on_c, 1, 59, 0
4, 27360, Note_on_c, 1, 57, 49
4, 27420, Note_on_c, 1, 57, 0
4, 27420, Note_on_c, 1, 57, 49
4, 27480, Note_on_c, 1, 57, 0
4, 27480, Note_on_c, 1, 57, 49
4, 27540, Note_on_c, 1, 57, 0
4, 27540, Note_on_c, 1, 57, 49
4, 27600, Note_on_c, 1, 57, 0
4, 27600, Note_on_c, 1, 57, 49
4, 27660, Note_on_c, 1, 57, 0
4, 27660, Note_on_c, 1, 57, 49
4, 27720, Note_on_c, 1, 57, 0
4, 27720, Note_on_c, 1, 57, 49
4, 27780, Note_on_c, 1, 57, 0
4, 27780, Note_on_c, 1, 55, 49
4, 27900, Note_on_c, 1, 55, 0
4, 27900, Note_on_c, 1, 54, 49
4, 27930, Note_on_c, 1, 54, 0
4, 27930, Note_on_c, 1, 53, 49
4, 27960, Note_on_c, 1, 53, 0
4, 27960, Note_on_c, 1, 54, 49
4, 28020, Note_on_c, 1, 54, 0
4, 28140, Note_on_c, 1, 49, 49
4, 28200, Note_on_c, 1, 49, 0
4, 28200, Note_on_c, 1, 51, 49
4, 28260, Note_on_c, 1, 51, 0
4, 28260, Note_on_c, 1, 53, 49
4, 28320, Note_on_c, 1, 53, 0
4, 28320, Note_on_c, 1, 54, 49
4, 28380, Note_on_c, 1, 54, 0
4, 28380, Note_on_c, 1, 56, 49
4, 28440, Note_on_c, 1, 56, 0
4, 28440, Note_on_c, 1, 57, 49
4, 28560, Note_on_c, 1, 57, 0
4, 28620, Note_on_c, 1, 61, 49
4, 28650, Note_on_c, 1, 61, 0
4, 28650, Note_on_c, 1, 59, 49
4, 28680, Note_on_c, 1, 59, 0
4, 28680, Note_on_c, 1, 61, 49
4, 28740, Note_on_c, 1, 61, 0
4, 28740, Note_on_c, 1, 62, 49
4, 28770, Note_on_c, 1, 62, 0
4, 28770, Note_on_c, 1, 61, 49
4, 28800, Note_on_c, 1, 61, 0
4, 28800, Note_on_c, 1, 59, 49
4, 28860, Note_on_c, 1, 59, 0
4, 28860, Note_on_c, 1, 50, 49
4, 28890, Note_on_c, 1, 50, 0
4, 28890, Note_on_c, 1, 49, 49
4, 28920, Note_on_c, 1, 49, 0
4, 28920, Note_on_c, 1, 50, 49
4, 28980, Note_on_c, 1, 50, 0
4, 28980, Note_on_c, 1, 52, 49
4, 29010, Note_on_c, 1, 52, 0
4, 29010, Note_on_c, 1, 50, 49
4, 29040, Note_on_c, 1, 50, 0
4, 29040, Note_on_c, 1, 49, 49
4, 29100, Note_on_c, 1, 49, 0
4, 29100, Note_on_c, 1, 50, 49
4, 29130, Note_on_c, 1, 50, 0
4, 29130, Note_on_c, 1, 49, 49
4, 29160, Note_on_c, 1, 49, 0
4, 29160, Note_on_c, 1, 47, 49
4, 29220, Note_on_c, 1, 47, 0
4, 29340, Note_on_c, 1, 50, 49
4, 29370, Note_on_c, 1, 50, 0
4, 29370, Note_on_c, 1, 49, 49
4, 29400, Note_on_c, 1, 49, 0
4, 29400, Note_on_c, 1, 50, 49
4, 29460, Note_on_c, 1, 50, 0
4, 29460, Note_on_c, 1, 52, 49
4, 29490, Note_on_c, 1, 52, 0
4, 29490, Note_on_c, 1, 50, 49
4, 29520, Note_on_c, 1, 50, 0
4, 29520, Note_on_c, 1, 49, 49
4, 29580, Note_on_c, 1, 49, 0
4, 29760, Note_on_c, 1, 61, 49
4, 29940, Note_on_c, 1, 61, 0
4, 29940, Note_on_c, 1, 57, 49
4, 29975, Note_on_c, 1, 57, 0
4, 30000, Note_on_c, 1, 57, 49
4, 30060, Note_on_c, 1, 57, 0
4, 30060, Note_on_c, 1, 59, 49
4, 30095, Note_on_c, 1, 59, 0
4, 30120, Note_on_c, 1, 61, 49
4, 30135, Note_on_c, 1, 61, 0
4, 30135, Note_on_c, 1, 59, 49
4, 30150, Note_on_c, 1, 59, 0
4, 30150, Note_on_c, 1, 61, 49
4, 30165, Note_on_c, 1, 61, 0
4, 30165, Note_on_c, 1, 59, 49
4, 30180, Note_on_c, 1, 59, 0
4, 30180, Note_on_c, 1, 57, 49
4, 30210, Note_on_c, 1, 57, 0
4, 30210, Note_on_c, 1, 59, 49
4, 30240, Note_on_c, 1, 59, 0
4, 30240, Note_on_c, 1, 61, 49
4, 30300, Note_on_c, 1, 61, 0
4, 30300, Note_on_c, 1, 59, 49
4, 30330, Note_on_c, 1, 59, 0
4, 30330, Note_on_c, 1, 61, 49
4, 30360, Note_on_c, 1, 61, 0
4, 30360, Note_on_c, 1, 62, 49
4, 30420, Note_on_c, 1, 62, 0
4, 30420, Note_on_c, 1, 61, 49
4, 30480, Note_on_c, 1, 61, 0
4, 30480, Note_on_c, 1, 59, 49
4, 30540, Note_on_c, 1, 59, 0
4, 30540, Note_on_c, 1, 57, 49
4, 30600, Note_on_c, 1, 57, 0
4, 30600, Note_on_c, 1, 59, 49
4, 30660, Note_on_c, 1, 59, 0
4, 30660, Note_on_c, 1, 56, 49
4, 30695, Note_on_c, 1, 56, 0
4, 30720, Note_on_c, 1, 56, 49
4, 30780, Note_on_c, 1, 56, 0
4, 30780, Note_on_c, 1, 57, 49
4, 30815, Note_on_c, 1, 57, 0
4, 30840, Note_on_c, 1, 59, 49
4, 30855, Note_on_c, 1, 59, 0
4, 30855, Note_on_c, 1, 57, 49
4, 30870, Note_on_c, 1, 57, 0
4, 30870, Note_on_c, 1, 59, 49
4, 30885, Note_on_c, 1, 59, 0
4, 30885, Note_on_c, 1, 57, 49
4, 30900, Note_on_c, 1, 57, 0
4, 30900, Note_on_c, 1, 56, 49
4, 30930, Note_on_c, 1, 56, 0
4, 30930, Note_on_c, 1, 57, 49
4, 30960, Note_on_c, 1, 57, 0
4, 30960, Note_on_c, 1, 59, 49
4, 31020, Note_on_c, 1, 59, 0
4, 31020, Note_on_c, 1, 57, 49
4, 31050, Note_on_c, 1, 57, 0
4, 31050, Note_on_c, 1, 59, 49
4, 31080, Note_on_c, 1, 59, 0
4, 31080, Note_on_c, 1, 61, 49
4, 31140, Note_on_c, 1, 61, 0
4, 31140, Note_on_c, 1, 59, 49
4, 31200, Note_on_c, 1, 59, 0
4, 31200, Note_on_c, 1, 57, 49
4, 31260, Note_on_c, 1, 57, 0
4, 31260, Note_on_c, 1, 56, 49
4, 31320, Note_on_c, 1, 56, 0
4, 31320, Note_on_c, 1, 54, 49
4, 31380, Note_on_c, 1, 54, 0
4, 31380, Note_on_c, 1, 64, 49
4, 31410, Note_on_c, 1, 64, 0
4, 31410, Note_on_c, 1, 62, 49
4, 31440, Note_on_c, 1, 62, 0
4, 31440, Note_on_c, 1, 64, 49
4, 31500, Note_on_c, 1, 64, 0
4, 31500, Note_on_c, 1, 66, 49
4, 31530, Note_on_c, 1, 66, 0
4, 31530, Note_on_c, 1, 64, 49
4, 31560, Note_on_c, 1, 64, 0
4, 31560, Note_on_c, 1, 62, 49
4, 31620, Note_on_c, 1, 62, 0
4, 32580, Note_on_c, 1, 54, 49
4, 32610, Note_on_c, 1, 54, 0
4, 32610, Note_on_c, 1, 52, 49
4, 32640, Note_on_c, 1, 52, 0
4, 32640, Note_on_c, 1, 54, 49
4, 32700, Note_on_c, 1, 54, 0
4, 32700, Note_on_c, 1, 55, 49
4, 32730, Note_on_c, 1, 55, 0
4, 32730, Note_on_c, 1, 54, 49
4, 32760, Note_on_c, 1, 54, 0
4, 32760, Note_on_c, 1, 52, 49
4, 32880, Note_on_c, 1, 52, 0
4, 32940, Note_on_c, 1, 61, 49
4, 32970, Note_on_c, 1, 61, 0
4, 32970, Note_on_c, 1, 59, 49
4, 33000, Note_on_c, 1, 59, 0
4, 33000, Note_on_c, 1, 61, 49
4, 33060, Note_on_c, 1, 61, 0
4, 33060, Note_on_c, 1, 62, 49
4, 33090, Note_on_c, 1, 62, 0
4, 33090, Note_on_c, 1, 61, 49
4, 33120, Note_on_c, 1, 61, 0
4, 33120, Note_on_c, 1, 62, 49
4, 33240, Note_on_c, 1, 62, 0
4, 33540, Note_on_c, 1, 61, 49
4, 33600, Note_on_c, 1, 61, 0
4, 33600, Note_on_c, 1, 61, 49
4, 33660, Note_on_c, 1, 61, 0
4, 33660, Note_on_c, 1, 62, 49
4, 33720, Note_on_c, 1, 62, 0
4, 33720, Note_on_c, 1, 64, 49
4, 33735, Note_on_c, 1, 64, 0
4, 33735, Note_on_c, 1, 62, 49
4, 33750, Note_on_c, 1, 62, 0
4, 33750, Note_on_c, 1, 64, 49
4, 33765, Note_on_c, 1, 64, 0
4, 33765, Note_on_c, 1, 62, 49
4, 33780, Note_on_c, 1, 62, 0
4, 33780, Note_on_c, 1, 61, 49
4, 33810, Note_on_c, 1, 61, 0
4, 33810, Note_on_c, 1, 62, 49
4, 33840, Note_on_c, 1, 62, 0
4, 33840, Note_on_c, 1, 64, 49
4, 33900, Note_on_c, 1, 64, 0
4, 34920, Note_on_c, 1, 57, 49
4, 34980, Note_on_c, 1, 57, 0
4, 34980, Note_on_c, 1, 54, 49
4, 35015, Note_on_c, 1, 54, 0
4, 35040, Note_on_c, 1, 54, 49
4, 35100, Note_on_c, 1, 54, 0
4, 35100, Note_on_c, 1, 55, 49
4, 35135, Note_on_c, 1, 55, 0
4, 35160, Note_on_c, 1, 57, 49
4, 35175, Note_on_c, 1, 57, 0
4, 35175, Note_on_c, 1, 55, 49
4, 35190, Note_on_c, 1, 55, 0
4, 35190, Note_on_c, 1, 57, 49
4, 35205, Note_on_c, 1, 57, 0
4, 35205, Note_on_c, 1, 55, 49
4, 35220, Note_on_c, 1, 55, 0
4, 35220, Note_on_c, 1, 54, 49
4, 35250, Note_on_c, 1, 54, 0
4, 35250, Note_on_c, 1, 55, 49
4, 35280, Note_on_c, 1, 55, 0
4, 35280, Note_on_c, 1, 57, 49
4, 35340, Note_on_c, 1, 57, 0
4, 35460, Note_on_c, 1, 62, 49
4, 35490, Note_on_c, 1, 62, 0
4, 35490, Note_on_c, 1, 61, 49
4, 35520, Note_on_c, 1, 61, 0
4, 35520, Note_on_c, 1, 62, 49
4, 35580, Note_on_c, 1, 62, 0
4, 35580, Note_on_c, 1, 64, 49
4, 35610, Note_on_c, 1, 64, 0
4, 35610, Note_on_c, 1, 62, 49
4, 35640, Note_on_c, 1, 62, 0
4, 35640, Note_on_c, 1, 61, 49
4, 35700, Note_on_c, 1, 61, 0
4, 35700, Note_on_c, 1, 52, 49
4, 35735, Note_on_c, 1, 52, 0
4, 35760, Note_on_c, 1, 52, 49
4, 35820, Note_on_c, 1, 52, 0
4, 35820, Note_on_c, 1, 54, 49
4, 35855, Note_on_c, 1, 54, 0
4, 35880, Note_on_c, 1, 55, 49
4, 35895, Note_on_c, 1, 55, 0
4, 35895, Note_on_c, 1, 54, 49
4, 35910, Note_on_c, 1, 54, 0
4, 35910, Note_on_c, 1, 55, 49
4, 35925, Note_on_c, 1, 55, 0
4, 35925, Note_on_c, 1, 54, 49
4, 35940, Note_on_c, 1, 54, 0
4, 35940, Note_on_c, 1, 52, 49
4, 35970, Note_on_c, 1, 52, 0
4, 35970, Note_on_c, 1, 54, 49
4, 36000, Note_on_c, 1, 54, 0
4, 36000, Note_on_c, 1, 55, 49
4, 36060, Note_on_c, 1, 55, 0
4, 36180, Note_on_c, 1, 60, 49
4, 36210, Note_on_c, 1, 60, 0
4, 36210, Note_on_c, 1, 59, 49
4, 36240, Note_on_c, 1, 59, 0
4, 36240, Note_on_c, 1, 60, 49
4, 36300, Note_on_c, 1, 60, 0
4, 36300, Note_on_c, 1, 62, 49
4, 36330, Note_on_c, 1, 62, 0
4, 36330, Note_on_c, 1, 60, 49
4, 36360, Note_on_c, 1, 60, 0
4, 36360, Note_on_c, 1, 59, 49
4, 36420, Note_on_c, 1, 59, 0
4, 36420, Note_on_c, 1, 59, 49
4, 36480, Note_on_c, 1, 59, 0
4, 36480, Note_on_c, 1, 59, 49
4, 36540, Note_on_c, 1, 59, 0
4, 36540, Note_on_c, 1, 59, 49
4, 36600, Note_on_c, 1, 59, 0
4, 36600, Note_on_c, 1, 61, 49
4, 36615, Note_on_c, 1, 61, 0
4, 36615, Note_on_c, 1, 59, 49
4, 36630, Note_on_c, 1, 59, 0
4, 36630, Note_on_c, 1, 61, 49
4, 36645, Note_on_c, 1, 61, 0
4, 36645, Note_on_c, 1, 59, 49
4, 36660, Note_on_c, 1, 59, 0
4, 36660, Note_on_c, 1, 57, 49
4, 36690, Note_on_c, 1, 57, 0
4, 36690, Note_on_c, 1, 59, 49
4, 36720, Note_on_c, 1, 59, 0
4, 36720, Note_on_c, 1, 61, 49
4, 36780, Note_on_c, 1, 61, 0
4, 36780, Note_on_c, 1, 62, 49
4, 36840, Note_on_c, 1, 62, 0
4, 36840, Note_on_c, 1, 62, 49
4, 36900, Note_on_c, 1, 62, 0
4, 36900, Note_on_c, 1, 62, 49
4, 36960, Note_on_c, 1, 62, 0
4, 36960, Note_on_c, 1, 62, 49
4, 37020, Note_on_c, 1, 62, 0
4, 37020, Note_on_c, 1, 61, 49
4, 37080, Note_on_c, 1, 61, 0
4, 37080, Note_on_c, 1, 59, 49
4, 37140, Note_on_c, 1, 59, 0
4, 37140, Note_on_c, 1, 47, 49
4, 37200, Note_on_c, 1, 47, 0
4, 37200, Note_on_c, 1, 52, 49
4, 37260, Note_on_c, 1, 52, 0
4, 37260, Note_on_c, 1, 54, 49
4, 37320, Note_on_c, 1, 54, 0
4, 37320, Note_on_c, 1, 55, 49
4, 37500, Note_on_c, 1, 55, 0
4, 37500, Note_on_c, 1, 59, 49
4, 37560, Note_on_c, 1, 59, 0
4, 37560, Note_on_c, 1, 57, 49
4, 37620, Note_on_c, 1, 57, 0
4, 37620, Note_on_c, 1, 55, 49
4, 37680, Note_on_c, 1, 55, 0
4, 37680, Note_on_c, 1, 54, 49
4, 37740, Note_on_c, 1, 54, 0
4, 37740, Note_on_c, 1, 52, 49
4, 37800, Note_on_c, 1, 52, 0
4, 37800, Note_on_c, 1, 50, 49
4, 37860, Note_on_c, 1, 50, 0
4, 37860, Note_on_c, 1, 49, 49
4, 37920, Note_on_c, 1, 49, 0
4, 37920, Note_on_c, 1, 50, 49
4, 38010, Note_on_c, 1, 50, 0
4, 38010, Note_on_c, 1, 52, 49
4, 38040, Note_on_c, 1, 52, 0
4, 38040, Note_on_c, 1, 54, 49
4, 38055, Note_on_c, 1, 54, 0
4, 38055, Note_on_c, 1, 52, 49
4, 38070, Note_on_c, 1, 52, 0
4, 38070, Note_on_c, 1, 54, 49
4, 38085, Note_on_c, 1, 54, 0
4, 38085, Note_on_c, 1, 52, 49
4, 38100, Note_on_c, 1, 52, 0
4, 38100, Note_on_c, 1, 54, 49
4, 38115, Note_on_c, 1, 54, 0
4, 38115, Note_on_c, 1, 52, 49
4, 38130, Note_on_c, 1, 52, 0
4, 38130, Note_on_c, 1, 50, 49
4, 38145, Note_on_c, 1, 50, 0
4, 38145, Note_on_c, 1, 52, 49
4, 38160, Note_on_c, 1, 52, 0
4, 38160, Note_on_c, 1, 54, 49
4, 38280, Note_on_c, 1, 54, 0
4, 38340, Note_on_c, 1, 62, 49
4, 38370, Note_on_c, 1, 62, 0
4, 38370, Note_on_c, 1, 61, 49
4, 38400, Note_on_c, 1, 61, 0
4, 38400, Note_on_c, 1, 62, 49
4, 38460, Note_on_c, 1, 62, 0
4, 38460, Note_on_c, 1, 64, 49
4, 38490, Note_on_c, 1, 64, 0
4, 38490, Note_on_c, 1, 62, 49
4, 38520, Note_on_c, 1, 62, 0
4, 38520, Note_on_c, 1, 61, 49
4, 38640, Note_on_c, 1, 61, 0
4, 38700, Note_on_c, 1, 60, 49
4, 38730, Note_on_c, 1, 60, 0
4, 38730, Note_on_c, 1, 59, 49
4, 38760, Note_on_c, 1, 59, 0
4, 38760, Note_on_c, 1, 60, 49
4, 38820, Note_on_c, 1, 60, 0
4, 38820, Note_on_c, 1, 62, 49
4, 38850, Note_on_c, 1, 62, 0
4, 38850, Note_on_c, 1, 60, 49
4, 38880, Note_on_c, 1, 60, 0
4, 38880, Note_on_c, 1, 59, 49
4, 39000, Note_on_c, 1, 59, 0
4, 39300, Note_on_c, 1, 61, 49
4, 39360, Note_on_c, 1, 61, 0
4, 39360, Note_on_c, 1, 62, 49
4, 39420, Note_on_c, 1, 62, 0
4, 39420, Note_on_c, 1, 64, 49
4, 39480, Note_on_c, 1, 64, 0
4, 39480, Note_on_c, 1, 66, 49
4, 39540, Note_on_c, 1, 66, 0
4, 39660, Note_on_c, 1, 59, 49
4, 39720, Note_on_c, 1, 59, 0
4, 39720, Note_on_c, 1, 61, 49
4, 39780, Note_on_c, 1, 61, 0
4, 39780, Note_on_c, 1, 62, 49
4, 39840, Note_on_c, 1, 62, 0
4, 39840, Note_on_c, 1, 64, 49
4, 39900, Note_on_c, 1, 64, 0
4, 40020, Note_on_c, 1, 57, 49
4, 40080, Note_on_c, 1, 57, 0
4, 40080, Note_on_c, 1, 59, 49
4, 40140, Note_on_c, 1, 59, 0
4, 40140, Note_on_c, 1, 61, 49
4, 40200, Note_on_c, 1, 61, 0
4, 40200, Note_on_c, 1, 62, 49
4, 40260, Note_on_c, 1, 62, 0
4, 40380, Note_on_c, 1, 50, 49
4, 40440, Note_on_c, 1, 50, 0
4, 40440, Note_on_c, 1, 52, 49
4, 40500, Note_on_c, 1, 52, 0
4, 40500, Note_on_c, 1, 54, 49
4, 40560, Note_on_c, 1, 54, 0
4, 40560, Note_on_c, 1, 55, 49
4, 40620, Note_on_c, 1, 55, 0
4, 40740, Note_on_c, 1, 57, 49
4, 40770, Note_on_c, 1, 57, 0
4, 40770, Note_on_c, 1, 59, 49
4, 40800, Note_on_c, 1, 59, 0
4, 40800, Note_on_c, 1, 61, 49
4, 40860, Note_on_c, 1, 61, 0
4, 41760, Note_on_c, 1, 57, 88
4, 41820, Note_on_c, 1, 57, 0
4, 41820, Note_on_c, 1, 54, 88
4, 41855, Note_on_c, 1, 54, 0
4, 41880, Note_on_c, 1, 54, 88
4, 41940, Note_on_c, 1, 54, 0
4, 41940, Note_on_c, 1, 55, 88
4, 41975, Note_on_c, 1, 55, 0
4, 42000, Note_on_c, 1, 57, 88
4, 42015, Note_on_c, 1, 57, 0
4, 42015, Note_on_c, 1, 55, 88
4, 42030, Note_on_c, 1, 55, 0
4, 42030, Note_on_c, 1, 57, 88
4, 42045, Note_on_c, 1, 57, 0
4, 42045, Note_on_c, 1, 55, 88
4, 42060, Note_on_c, 1, 55, 0
4, 42060, Note_on_c, 1, 54, 88
4, 42090, Note_on_c, 1, 54, 0
4, 42090, Note_on_c, 1, 55, 88
4, 42120, Note_on_c, 1, 55, 0
4, 42120, Note_on_c, 1, 57, 88
4, 42180, Note_on_c, 1, 57, 0
4, 42180, Note_on_c, 1, 55, 88
4, 42210, Note_on_c, 1, 55, 0
4, 42210, Note_on_c, 1, 57, 88
4, 42240, Note_on_c, 1, 57, 0
4, 42240, Note_on_c, 1, 59, 88
4, 42300, Note_on_c, 1, 59, 0
4, 42300, Note_on_c, 1, 57, 88
4, 42360, Note_on_c, 1, 57, 0
4, 42360, Note_on_c, 1, 55, 88
4, 42420, Note_on_c, 1, 55, 0
4, 42420, Note_on_c, 1, 54, 88
4, 42455, Note_on_c, 1, 54, 0
4, 42480, Note_on_c, 1, 55, 88
4, 42540, Note_on_c, 1, 55, 0
4, 42540, Note_on_c, 1, 52, 88
4, 42575, Note_on_c, 1, 52, 0
4, 42600, Note_on_c, 1, 52, 88
4, 42660, Note_on_c, 1, 52, 0
4, 42660, Note_on_c, 1, 54, 88
4, 42695, Note_on_c, 1, 54, 0
4, 42720, Note_on_c, 1, 55, 88
4, 42735, Note_on_c, 1, 55, 0
4, 42735, Note_on_c, 1, 54, 88
4, 42750, Note_on_c, 1, 54, 0
4, 42750, Note_on_c, 1, 55, 88
4, 42765, Note_on_c, 1, 55, 0
4, 42765, Note_on_c, 1, 54, 88
4, 42780, Note_on_c, 1, 54, 0
4, 42780, Note_on_c, 1, 52, 88
4, 42810, Note_on_c, 1, 52, 0
4, 42810, Note_on_c, 1, 54, 88
4, 42840, Note_on_c, 1, 54, 0
4, 42840, Note_on_c, 1, 55, 88
4, 42900, Note_on_c, 1, 55, 0
4, 42900, Note_on_c, 1, 54, 88
4, 42930, Note_on_c, 1, 54, 0
4, 42930, Note_on_c, 1, 55, 88
4, 42960, Note_on_c, 1, 55, 0
4, 42960, Note_on_c, 1, 57, 88
4, 43020, Note_on_c, 1, 57, 0
4, 43020, Note_on_c, 1, 55, 88
4, 43080, Note_on_c, 1, 55, 0
4, 43080, Note_on_c, 1, 54, 88
4, 43140, Note_on_c, 1, 54, 0
4, 43140, Note_on_c, 1, 52, 88
4, 43200, Note_on_c, 1, 52, 0
4, 43200, Note_on_c, 1, 54, 88
4, 43320, Note_on_c, 1, 54, 0
4, 43380, Note_on_c, 1, 62, 88
4, 43410, Note_on_c, 1, 62, 0
4, 43410, Note_on_c, 1, 61, 88
4, 43440, Note_on_c, 1, 61, 0
4, 43440, Note_on_c, 1, 62, 88
4, 43500, Note_on_c, 1, 62, 0
4, 43500, Note_on_c, 1, 64, 88
4, 43530, Note_on_c, 1, 64, 0
4, 43530, Note_on_c, 1, 62, 88
4, 43560, Note_on_c, 1, 62, 0
4, 43560, Note_on_c, 1, 61, 88
4, 43680, Note_on_c, 1, 61, 0
4, 43740, Note_on_c, 1, 60, 88
4, 43770, Note_on_c, 1, 60, 0
4, 43770, Note_on_c, 1, 59, 88
4, 43800, Note_on_c, 1, 59, 0
4, 43800, Note_on_c, 1, 60, 88
4, 43860, Note_on_c, 1, 60, 0
4, 43860, Note_on_c, 1, 62, 88
4, 43890, Note_on_c, 1, 62, 0
4, 43890, Note_on_c, 1, 60, 88
4, 43920, Note_on_c, 1, 60, 0
4, 43920, Note_on_c, 1, 59, 88
4, 43980, Note_on_c, 1, 59, 0
4, 43980, Note_on_c, 1, 59, 88
4, 44040, Note_on_c, 1, 59, 0
4, 44040, Note_on_c, 1, 59, 88
4, 44100, Note_on_c, 1, 59, 0
4, 44100, Note_on_c, 1, 59, 88
4, 44160, Note_on_c, 1, 59, 0
4, 44160, Note_on_c, 1, 61, 88
4, 44175, Note_on_c, 1, 61, 0
4, 44175, Note_on_c, 1, 59, 88
4, 44190, Note_on_c, 1, 59, 0
4, 44190, Note_on_c, 1, 61, 88
4, 44205, Note_on_c, 1, 61, 0
4, 44205, Note_on_c, 1, 59, 88
4, 44220, Note_on_c, 1, 59, 0
4, 44220, Note_on_c, 1, 57, 88
4, 44250, Note_on_c, 1, 57, 0
4, 44250, Note_on_c, 1, 59, 88
4, 44280, Note_on_c, 1, 59, 0
4, 44280, Note_on_c, 1, 61, 88
4, 44340, Note_on_c, 1, 61, 0
4, 44340, Note_on_c, 1, 59, 88
4, 44370, Note_on_c, 1, 59, 0
4, 44370, Note_on_c, 1, 61, 88
4, 44400, Note_on_c, 1, 61, 0
4, 44400, Note_on_c, 1, 62, 88
4, 44520, Note_on_c, 1, 62, 0
4, 44520, Note_on_c, 1, 57, 88
4, 44700, Note_on_c, 1, 57, 0
4, 44700, Note_on_c, 1, 59, 88
4, 44730, Note_on_c, 1, 59, 0
4, 44730, Note_on_c, 1, 57, 88
4, 44760, Note_on_c, 1, 57, 0
4, 44760, Note_on_c, 1, 55, 88
4, 44820, Note_on_c, 1, 55, 0
4, 44820, Note_on_c, 1, 54, 88
4, 44880, Note_on_c, 1, 54, 0
4, 44880, Note_on_c, 1, 52, 88
4, 44940, Note_on_c, 1, 52, 0
4, 44940, Note_on_c, 1, 54, 88
4, 45000, Note_on_c, 1, 54, 0
4, 45000, Note_on_c, 1, 55, 88
4, 45060, Note_on_c, 1, 55, 0
4, 45060, Note_on_c, 1, 52, 88
4, 45120, Note_on_c, 1, 52, 0
4, 45120, Note_on_c, 1, 49, 88
4, 45180, Note_on_c, 1, 49, 0
4, 45180, Note_on_c, 1, 50, 88
4, 45210, Note_on_c, 1, 50, 0
4, 45210, Note_on_c, 1, 52, 88
4, 45240, Note_on_c, 1, 52, 0
4, 45240, Note_on_c, 1, 54, 88
4, 45300, Note_on_c, 1, 54, 0
4, 45300, Note_on_c, 1, 49, 88
4, 45360, Note_on_c, 1, 49, 0
4, 45360, Note_on_c, 1, 50, 88
4, 45420, Note_on_c, 1, 50, 0
4, 45540, Note_on_c, 1, 59, 88
4, 45600, Note_on_c, 1, 59, 0
4, 45600, Note_on_c, 1, 57, 88
4, 45660, Note_on_c, 1, 57, 0
4, 45660, Note_on_c, 1, 55, 88
4, 45720, Note_on_c, 1, 55, 0
4, 45720, Note_on_c, 1, 54, 88
4, 45780, Note_on_c, 1, 54, 0
4, 45780, Note_on_c, 1, 64, 88
4, 45810, Note_on_c, 1, 64, 0
4, 45810, Note_on_c, 1, 66, 88
4, 45825, Note_on_c, 1, 66, 0
4, 45825, Note_on_c, 1, 67, 88
4, 45840, Note_on_c, 1, 67, 0
4, 45840, Note_on_c, 1, 66, 88
4, 45900, Note_on_c, 1, 66, 0
4, 45900, Note_on_c, 1, 64, 88
4, 45960, Note_on_c, 1, 64, 0
4, 45960, Note_on_c, 1, 62, 88
4, 46020, Note_on_c, 1, 62, 0
4, 46020, Note_on_c, 1, 61, 88
4, 46080, Note_on_c, 1, 61, 0
4, 46080, Note_on_c, 1, 62, 88
4, 46200, Note_on_c, 1, 62, 0
4, 46440, End_track
5, 0, Start_track
5, 0, MIDI_port, 0
5, 0, Title_t, "Bassoon"
5, 0, Program_c, 2, 70
5, 360, Note_on_c, 2, 54, 75
5, 420, Note_on_c, 2, 54, 0
5, 420, Note_on_c, 2, 50, 75
5, 455, Note_on_c, 2, 50, 0
5, 480, Note_on_c, 2, 50, 75
5, 540, Note_on_c, 2, 50, 0
5, 540, Note_on_c, 2, 52, 75
5, 575, Note_on_c, 2, 52, 0
5, 600, Note_on_c, 2, 54, 75
5, 615, Note_on_c, 2, 54, 0
5, 615, Note_on_c, 2, 52, 75
5, 630, Note_on_c, 2, 52, 0
5, 630, Note_on_c, 2, 54, 75
5, 645, Note_on_c, 2, 54, 0
5, 645, Note_on_c, 2, 52, 75
5, 660, Note_on_c, 2, 52, 0
5, 660, Note_on_c, 2, 50, 75
5, 690, Note_on_c, 2, 50, 0
5, 690, Note_on_c, 2, 52, 75
5, 720, Note_on_c, 2, 52, 0
5, 720, Note_on_c, 2, 54, 75
5, 780, Note_on_c, 2, 54, 0
5, 780, Note_on_c, 2, 52, 75
5, 810, Note_on_c, 2, 52, 0
5, 810, Note_on_c, 2, 54, 75
5, 840, Note_on_c, 2, 54, 0
5, 840, Note_on_c, 2, 55, 75
5, 900, Note_on_c, 2, 55, 0
5, 900, Note_on_c, 2, 54, 75
5, 960, Note_on_c, 2, 54, 0
5, 960, Note_on_c, 2, 52, 75
5, 1020, Note_on_c, 2, 52, 0
5, 1020, Note_on_c, 2, 50, 75
5, 1080, Note_on_c, 2, 50, 0
5, 1080, Note_on_c, 2, 52, 75
5, 1140, Note_on_c, 2, 52, 0
5, 1140, Note_on_c, 2, 49, 75
5, 1175, Note_on_c, 2, 49, 0
5, 1200, Note_on_c, 2, 49, 75
5, 1260, Note_on_c, 2, 49, 0
5, 1260, Note_on_c, 2, 50, 75
5, 1295, Note_on_c, 2, 50, 0
5, 1320, Note_on_c, 2, 52, 75
5, 1335, Note_on_c, 2, 52, 0
5, 1335, Note_on_c, 2, 50, 75
5, 1350, Note_on_c, 2, 50, 0
5, 1350, Note_on_c, 2, 52, 75
5, 1365, Note_on_c, 2, 52, 0
5, 1365, Note_on_c, 2, 50, 75
5, 1380, Note_on_c, 2, 50, 0
5, 1380, Note_on_c, 2, 49, 75
5, 1410, Note_on_c, 2, 49, 0
5, 1410, Note_on_c, 2, 50, 75
5, 1440, Note_on_c, 2, 50, 0
5, 1440, Note_on_c, 2, 52, 75
5, 1500, Note_on_c, 2, 52, 0
5, 1500, Note_on_c, 2, 50, 75
5, 1530, Note_on_c, 2, 50, 0
5, 1530, Note_on_c, 2, 52, 75
5, 1560, Note_on_c, 2, 52, 0
5, 1560, Note_on_c, 2, 54, 75
5, 1620, Note_on_c, 2, 54, 0
5, 1620, Note_on_c, 2, 52, 75
5, 1680, Note_on_c, 2, 52, 0
5, 1680, Note_on_c, 2, 50, 75
5, 1740, Note_on_c, 2, 50, 0
5, 1740, Note_on_c, 2, 49, 75
5, 1800, Note_on_c, 2, 49, 0
5, 1800, Note_on_c, 2, 50, 75
5, 1920, Note_on_c, 2, 50, 0
5, 1980, Note_on_c, 2, 59, 75
5, 2010, Note_on_c, 2, 59, 0
5, 2010, Note_on_c, 2, 57, 75
5, 2040, Note_on_c, 2, 57, 0
5, 2040, Note_on_c, 2, 59, 75
5, 2100, Note_on_c, 2, 59, 0
5, 2100, Note_on_c, 2, 61, 75
5, 2130, Note_on_c, 2, 61, 0
5, 2130, Note_on_c, 2, 59, 75
5, 2160, Note_on_c, 2, 59, 0
5, 2160, Note_on_c, 2, 57, 75
5, 2280, Note_on_c, 2, 57, 0
5, 2340, Note_on_c, 2, 57, 75
5, 2370, Note_on_c, 2, 57, 0
5, 2370, Note_on_c, 2, 55, 75
5, 2400, Note_on_c, 2, 55, 0
5, 2400, Note_on_c, 2, 57, 75
5, 2460, Note_on_c, 2, 57, 0
5, 2460, Note_on_c, 2, 59, 75
5, 2490, Note_on_c, 2, 59, 0
5, 2490, Note_on_c, 2, 57, 75
5, 2520, Note_on_c, 2, 57, 0
5, 2520, Note_on_c, 2, 55, 75
5, 2580, Note_on_c, 2, 55, 0
5, 2580, Note_on_c, 2, 55, 75
5, 2640, Note_on_c, 2, 55, 0
5, 2640, Note_on_c, 2, 55, 75
5, 2700, Note_on_c, 2, 55, 0
5, 2700, Note_on_c, 2, 55, 75
5, 2760, Note_on_c, 2, 55, 0
5, 2760, Note_on_c, 2, 55, 75
5, 2820, Note_on_c, 2, 55, 0
5, 2820, Note_on_c, 2, 50, 75
5, 2880, Note_on_c, 2, 50, 0
5, 2880, Note_on_c, 2, 52, 75
5, 2940, Note_on_c, 2, 52, 0
5, 2940, Note_on_c, 2, 50, 75
5, 2970, Note_on_c, 2, 50, 0
5, 2970, Note_on_c, 2, 52, 75
5, 3000, Note_on_c, 2, 52, 0
5, 3000, Note_on_c, 2, 54, 75
5, 3060, Note_on_c, 2, 54, 0
5, 3060, Note_on_c, 2, 55, 75
5, 3120, Note_on_c, 2, 55, 0
5, 3120, Note_on_c, 2, 54, 75
5, 3180, Note_on_c, 2, 54, 0
5, 3180, Note_on_c, 2, 52, 75
5, 3240, Note_on_c, 2, 52, 0
5, 3240, Note_on_c, 2, 54, 75
5, 3300, Note_on_c, 2, 54, 0
5, 3300, Note_on_c, 2, 50, 75
5, 3360, Note_on_c, 2, 50, 0
5, 3360, Note_on_c, 2, 52, 75
5, 3420, Note_on_c, 2, 52, 0
5, 3420, Note_on_c, 2, 54, 75
5, 3480, Note_on_c, 2, 54, 0
5, 3480, Note_on_c, 2, 55, 75
5, 3540, Note_on_c, 2, 55, 0
5, 3540, Note_on_c, 2, 59, 75
5, 3660, Note_on_c, 2, 59, 0
5, 3660, Note_on_c, 2, 57, 75
5, 3690, Note_on_c, 2, 57, 0
5, 3690, Note_on_c, 2, 55, 75
5, 3720, Note_on_c, 2, 55, 0
5, 3720, Note_on_c, 2, 57, 75
5, 4020, Note_on_c, 2, 57, 0
5, 4020, Note_on_c, 2, 55, 75
5, 4080, Note_on_c, 2, 55, 0
5, 4080, Note_on_c, 2, 54, 75
5, 4110, Note_on_c, 2, 54, 0
5, 4110, Note_on_c, 2, 52, 75
5, 4140, Note_on_c, 2, 52, 0
5, 4140, Note_on_c, 2, 54, 75
5, 4170, Note_on_c, 2, 54, 0
5, 4170, Note_on_c, 2, 50, 75
5, 4200, Note_on_c, 2, 50, 0
5, 4200, Note_on_c, 2, 49, 75
5, 4290, Note_on_c, 2, 49, 0
5, 4290, Note_on_c, 2, 50, 75
5, 4320, Note_on_c, 2, 50, 0
5, 4320, Note_on_c, 2, 50, 75
5, 4380, Note_on_c, 2, 50, 0
5, 4380, Note_on_c, 2, 55, 75
5, 4410, Note_on_c, 2, 55, 0
5, 4410, Note_on_c, 2, 57, 75
5, 4425, Note_on_c, 2, 57, 0
5, 4425, Note_on_c, 2, 59, 75
5, 4440, Note_on_c, 2, 59, 0
5, 4440, Note_on_c, 2, 57, 75
5, 4500, Note_on_c, 2, 57, 0
5, 4500, Note_on_c, 2, 55, 75
5, 4560, Note_on_c, 2, 55, 0
5, 4560, Note_on_c, 2, 54, 75
5, 4620, Note_on_c, 2, 54, 0
5, 4620, Note_on_c, 2, 52, 75
5, 4680, Note_on_c, 2, 52, 0
5, 4680, Note_on_c, 2, 54, 75
5, 4800, Note_on_c, 2, 54, 0
5, 4860, Note_on_c, 2, 50, 49
5, 4890, Note_on_c, 2, 50, 0
5, 4890, Note_on_c, 2, 49, 49
5, 4920, Note_on_c, 2, 49, 0
5, 4920, Note_on_c, 2, 50, 49
5, 4980, Note_on_c, 2, 50, 0
5, 4980, Note_on_c, 2, 52, 49
5, 5010, Note_on_c, 2, 52, 0
5, 5010, Note_on_c, 2, 50, 49
5, 5040, Note_on_c, 2, 50, 0
5, 5040, Note_on_c, 2, 49, 49
5, 5160, Note_on_c, 2, 49, 0
5, 5220, Note_on_c, 2, 52, 49
5, 5250, Note_on_c, 2, 52, 0
5, 5250, Note_on_c, 2, 50, 49
5, 5280, Note_on_c, 2, 50, 0
5, 5280, Note_on_c, 2, 52, 49
5, 5340, Note_on_c, 2, 52, 0
5, 5340, Note_on_c, 2, 54, 49
5, 5370, Note_on_c, 2, 54, 0
5, 5370, Note_on_c, 2, 52, 49
5, 5400, Note_on_c, 2, 52, 0
5, 5400, Note_on_c, 2, 50, 49
5, 5520, Note_on_c, 2, 50, 0
5, 5820, Note_on_c, 2, 49, 49
5, 5880, Note_on_c, 2, 49, 0
5, 5880, Note_on_c, 2, 49, 49
5, 5940, Note_on_c, 2, 49, 0
5, 5940, Note_on_c, 2, 50, 49
5, 6000, Note_on_c, 2, 50, 0
5, 6000, Note_on_c, 2, 52, 49
5, 6015, Note_on_c, 2, 52, 0
5, 6015, Note_on_c, 2, 50, 49
5, 6030, Note_on_c, 2, 50, 0
5, 6030, Note_on_c, 2, 52, 49
5, 6045, Note_on_c, 2, 52, 0
5, 6045, Note_on_c, 2, 50, 49
5, 6060, Note_on_c, 2, 50, 0
5, 6060, Note_on_c, 2, 49, 49
5, 6090, Note_on_c, 2, 49, 0
5, 6090, Note_on_c, 2, 50, 49
5, 6120, Note_on_c, 2, 50, 0
5, 6120, Note_on_c, 2, 52, 49
5, 6180, Note_on_c, 2, 52, 0
5, 7200, Note_on_c, 2, 54, 49
5, 7260, Note_on_c, 2, 54, 0
5, 7260, Note_on_c, 2, 50, 49
5, 7295, Note_on_c, 2, 50, 0
5, 7320, Note_on_c, 2, 50, 49
5, 7380, Note_on_c, 2, 50, 0
5, 7380, Note_on_c, 2, 52, 49
5, 7415, Note_on_c, 2, 52, 0
5, 7440, Note_on_c, 2, 54, 49
5, 7455, Note_on_c, 2, 54, 0
5, 7455, Note_on_c, 2, 52, 49
5, 7470, Note_on_c, 2, 52, 0
5, 7470, Note_on_c, 2, 54, 49
5, 7485, Note_on_c, 2, 54, 0
5, 7485, Note_on_c, 2, 52, 49
5, 7500, Note_on_c, 2, 52, 0
5, 7500, Note_on_c, 2, 50, 49
5, 7530, Note_on_c, 2, 50, 0
5, 7530, Note_on_c, 2, 52, 49
5, 7560, Note_on_c, 2, 52, 0
5, 7560, Note_on_c, 2, 54, 49
5, 7680, Note_on_c, 2, 54, 0
5, 7740, Note_on_c, 2, 59, 49
5, 7770, Note_on_c, 2, 59, 0
5, 7770, Note_on_c, 2, 57, 49
5, 7800, Note_on_c, 2, 57, 0
5, 7800, Note_on_c, 2, 59, 49
5, 7860, Note_on_c, 2, 59, 0
5, 7860, Note_on_c, 2, 61, 49
5, 7890, Note_on_c, 2, 61, 0
5, 7890, Note_on_c, 2, 59, 49
5, 7920, Note_on_c, 2, 59, 0
5, 7920, Note_on_c, 2, 57, 49
5, 8040, Note_on_c, 2, 57, 0
5, 8100, Note_on_c, 2, 57, 49
5, 8130, Note_on_c, 2, 57, 0
5, 8130, Note_on_c, 2, 55, 49
5, 8160, Note_on_c, 2, 55, 0
5, 8160, Note_on_c, 2, 57, 49
5, 8220, Note_on_c, 2, 57, 0
5, 8220, Note_on_c, 2, 59, 49
5, 8250, Note_on_c, 2, 59, 0
5, 8250, Note_on_c, 2, 57, 49
5, 8280, Note_on_c, 2, 57, 0
5, 8280, Note_on_c, 2, 55, 49
5, 8340, Note_on_c, 2, 55, 0
5, 8340, Note_on_c, 2, 55, 49
5, 8400, Note_on_c, 2, 55, 0
5, 8400, Note_on_c, 2, 55, 49
5, 8460, Note_on_c, 2, 55, 0
5, 8460, Note_on_c, 2, 55, 49
5, 8520, Note_on_c, 2, 55, 0
5, 8520, Note_on_c, 2, 55, 49
5, 8580, Note_on_c, 2, 55, 0
5, 8580, Note_on_c, 2, 50, 49
5, 8640, Note_on_c, 2, 50, 0
5, 8640, Note_on_c, 2, 52, 49
5, 8700, Note_on_c, 2, 52, 0
5, 8700, Note_on_c, 2, 57, 49
5, 8760, Note_on_c, 2, 57, 0
5, 8760, Note_on_c, 2, 57, 49
5, 8820, Note_on_c, 2, 57, 0
5, 8820, Note_on_c, 2, 57, 49
5, 8880, Note_on_c, 2, 57, 0
5, 8880, Note_on_c, 2, 57, 49
5, 8940, Note_on_c, 2, 57, 0
5, 8940, Note_on_c, 2, 55, 49
5, 8970, Note_on_c, 2, 55, 0
5, 8970, Note_on_c, 2, 54, 49
5, 9000, Note_on_c, 2, 54, 0
5, 9000, Note_on_c, 2, 55, 49
5, 9120, Note_on_c, 2, 55, 0
5, 9180, Note_on_c, 2, 59, 49
5, 9240, Note_on_c, 2, 59, 0
5, 9240, Note_on_c, 2, 61, 49
5, 9300, Note_on_c, 2, 61, 0
5, 9300, Note_on_c, 2, 62, 49
5, 9360, Note_on_c, 2, 62, 0
5, 9360, Note_on_c, 2, 64, 49
5, 9420, Note_on_c, 2, 64, 0
5, 9420, Note_on_c, 2, 57, 49
5, 9480, Note_on_c, 2, 57, 0
5, 9480, Note_on_c, 2, 50, 49
5, 9540, Note_on_c, 2, 50, 0
5, 10080, Note_on_c, 2, 52, 49
5, 10140, Note_on_c, 2, 52, 0
5, 10140, Note_on_c, 2, 49, 49
5, 10175, Note_on_c, 2, 49, 0
5, 10200, Note_on_c, 2, 49, 49
5, 10260, Note_on_c, 2, 49, 0
5, 10260, Note_on_c, 2, 50, 49
5, 10295, Note_on_c, 2, 50, 0
5, 10320, Note_on_c, 2, 52, 49
5, 10335, Note_on_c, 2, 52, 0
5, 10335, Note_on_c, 2, 50, 49
5, 10350, Note_on_c, 2, 50, 0
5, 10350, Note_on_c, 2, 52, 49
5, 10365, Note_on_c, 2, 52, 0
5, 10365, Note_on_c, 2, 50, 49
5, 10380, Note_on_c, 2, 50, 0
5, 10380, Note_on_c, 2, 49, 49
5, 10410, Note_on_c, 2, 49, 0
5, 10410, Note_on_c, 2, 50, 49
5, 10440, Note_on_c, 2, 50, 0
5, 10440, Note_on_c, 2, 52, 49
5, 10500, Note_on_c, 2, 52, 0
5, 10800, Note_on_c, 2, 54, 49
5, 10860, Note_on_c, 2, 54, 0
5, 10860, Note_on_c, 2, 50, 49
5, 10895, Note_on_c, 2, 50, 0
5, 10920, Note_on_c, 2, 50, 49
5, 10980, Note_on_c, 2, 50, 0
5, 10980, Note_on_c, 2, 52, 49
5, 11015, Note_on_c, 2, 52, 0
5, 11040, Note_on_c, 2, 54, 49
5, 11055, Note_on_c, 2, 54, 0
5, 11055, Note_on_c, 2, 52, 49
5, 11070, Note_on_c, 2, 52, 0
5, 11070, Note_on_c, 2, 54, 49
5, 11085, Note_on_c, 2, 54, 0
5, 11085, Note_on_c, 2, 52, 49
5, 11100, Note_on_c, 2, 52, 0
5, 11100, Note_on_c, 2, 50, 49
5, 11130, Note_on_c, 2, 50, 0
5, 11130, Note_on_c, 2, 52, 49
5, 11160, Note_on_c, 2, 52, 0
5, 11160, Note_on_c, 2, 54, 49
5, 11220, Note_on_c, 2, 54, 0
5, 11700, Note_on_c, 2, 52, 49
5, 11760, Note_on_c, 2, 52, 0
5, 11760, Note_on_c, 2, 54, 49
5, 11820, Note_on_c, 2, 54, 0
5, 11820, Note_on_c, 2, 56, 49
5, 11880, Note_on_c, 2, 56, 0
5, 11880, Note_on_c, 2, 57, 49
5, 11940, Note_on_c, 2, 57, 0
5, 11940, Note_on_c, 2, 49, 49
5, 11975, Note_on_c, 2, 49, 0
5, 12000, Note_on_c, 2, 49, 49
5, 12060, Note_on_c, 2, 49, 0
5, 12060, Note_on_c, 2, 50, 49
5, 12095, Note_on_c, 2, 50, 0
5, 12120, Note_on_c, 2, 52, 49
5, 12135, Note_on_c, 2, 52, 0
5, 12135, Note_on_c, 2, 50, 49
5, 12150, Note_on_c, 2, 50, 0
5, 12150, Note_on_c, 2, 52, 49
5, 12165, Note_on_c, 2, 52, 0
5, 12165, Note_on_c, 2, 50, 49
5, 12180, Note_on_c, 2, 50, 0
5, 12180, Note_on_c, 2, 49, 49
5, 12210, Note_on_c, 2, 49, 0
5, 12210, Note_on_c, 2, 50, 49
5, 12240, Note_on_c, 2, 50, 0
5, 12240, Note_on_c, 2, 52, 49
5, 12300, Note_on_c, 2, 52, 0
5, 12300, Note_on_c, 2, 50, 49
5, 12330, Note_on_c, 2, 50, 0
5, 12330, Note_on_c, 2, 52, 49
5, 12360, Note_on_c, 2, 52, 0
5, 12360, Note_on_c, 2, 54, 49
5, 12420, Note_on_c, 2, 54, 0
5, 12420, Note_on_c, 2, 52, 49
5, 12480, Note_on_c, 2, 52, 0
5, 12480, Note_on_c, 2, 50, 49
5, 12540, Note_on_c, 2, 50, 0
5, 12540, Note_on_c, 2, 49, 49
5, 12600, Note_on_c, 2, 49, 0
5, 12600, Note_on_c, 2, 50, 49
5, 12660, Note_on_c, 2, 50, 0
5, 12660, Note_on_c, 2, 47, 49
5, 12695, Note_on_c, 2, 47, 0
5, 12720, Note_on_c, 2, 47, 49
5, 12780, Note_on_c, 2, 47, 0
5, 12780, Note_on_c, 2, 49, 49
5, 12815, Note_on_c, 2, 49, 0
5, 12840, Note_on_c, 2, 50, 49
5, 12855, Note_on_c, 2, 50, 0
5, 12855, Note_on_c, 2, 49, 49
5, 12870, Note_on_c, 2, 49, 0
5, 12870, Note_on_c, 2, 50, 49
5, 12885, Note_on_c, 2, 50, 0
5, 12885, Note_on_c, 2, 49, 49
5, 12900, Note_on_c, 2, 49, 0
5, 12900, Note_on_c, 2, 47, 49
5, 12930, Note_on_c, 2, 47, 0
5, 12930, Note_on_c, 2, 49, 49
5, 12960, Note_on_c, 2, 49, 0
5, 12960, Note_on_c, 2, 50, 49
5, 13020, Note_on_c, 2, 50, 0
5, 13020, Note_on_c, 2, 49, 49
5, 13050, Note_on_c, 2, 49, 0
5, 13050, Note_on_c, 2, 50, 49
5, 13080, Note_on_c, 2, 50, 0
5, 13080, Note_on_c, 2, 52, 49
5, 13140, Note_on_c, 2, 52, 0
5, 13140, Note_on_c, 2, 50, 49
5, 13200, Note_on_c, 2, 50, 0
5, 13200, Note_on_c, 2, 49, 49
5, 13260, Note_on_c, 2, 49, 0
5, 13260, Note_on_c, 2, 47, 49
5, 13320, Note_on_c, 2, 47, 0
5, 13320, Note_on_c, 2, 49, 49
5, 13440, Note_on_c, 2, 49, 0
5, 13500, Note_on_c, 2, 54, 49
5, 13530, Note_on_c, 2, 54, 0
5, 13530, Note_on_c, 2, 52, 49
5, 13560, Note_on_c, 2, 52, 0
5, 13560, Note_on_c, 2, 54, 49
5, 13620, Note_on_c, 2, 54, 0
5, 13620, Note_on_c, 2, 56, 49
5, 13650, Note_on_c, 2, 56, 0
5, 13650, Note_on_c, 2, 54, 49
5, 13680, Note_on_c, 2, 54, 0
5, 13680, Note_on_c, 2, 52, 49
5, 13800, Note_on_c, 2, 52, 0
5, 13860, Note_on_c, 2, 52, 49
5, 13890, Note_on_c, 2, 52, 0
5, 13890, Note_on_c, 2, 50, 49
5, 13920, Note_on_c, 2, 50, 0
5, 13920, Note_on_c, 2, 52, 49
5, 13980, Note_on_c, 2, 52, 0
5, 13980, Note_on_c, 2, 54, 49
5, 14010, Note_on_c, 2, 54, 0
5, 14010, Note_on_c, 2, 52, 49
5, 14040, Note_on_c, 2, 52, 0
5, 14040, Note_on_c, 2, 50, 49
5, 14100, Note_on_c, 2, 50, 0
5, 14100, Note_on_c, 2, 50, 49
5, 14160, Note_on_c, 2, 50, 0
5, 14160, Note_on_c, 2, 50, 49
5, 14220, Note_on_c, 2, 50, 0
5, 14220, Note_on_c, 2, 50, 49
5, 14280, Note_on_c, 2, 50, 0
5, 14280, Note_on_c, 2, 50, 49
5, 14340, Note_on_c, 2, 50, 0
5, 14340, Note_on_c, 2, 57, 49
5, 14400, Note_on_c, 2, 57, 0
5, 14400, Note_on_c, 2, 59, 49
5, 14460, Note_on_c, 2, 59, 0
5, 14460, Note_on_c, 2, 57, 49
5, 14490, Note_on_c, 2, 57, 0
5, 14490, Note_on_c, 2, 59, 49
5, 14520, Note_on_c, 2, 59, 0
5, 14520, Note_on_c, 2, 61, 49
5, 14580, Note_on_c, 2, 61, 0
5, 14580, Note_on_c, 2, 62, 49
5, 14640, Note_on_c, 2, 62, 0
5, 14640, Note_on_c, 2, 61, 49
5, 14700, Note_on_c, 2, 61, 0
5, 14700, Note_on_c, 2, 59, 49
5, 14760, Note_on_c, 2, 59, 0
5, 14760, Note_on_c, 2, 61, 49
5, 14820, Note_on_c, 2, 61, 0
5, 14820, Note_on_c, 2, 57, 49
5, 14880, Note_on_c, 2, 57, 0
5, 14880, Note_on_c, 2, 59, 49
5, 14940, Note_on_c, 2, 59, 0
5, 14940, Note_on_c, 2, 61, 49
5, 15000, Note_on_c, 2, 61, 0
5, 15000, Note_on_c, 2, 62, 49
5, 15060, Note_on_c, 2, 62, 0
5, 15060, Note_on_c, 2, 54, 49
5, 15180, Note_on_c, 2, 54, 0
5, 15180, Note_on_c, 2, 52, 49
5, 15210, Note_on_c, 2, 52, 0
5, 15210, Note_on_c, 2, 50, 49
5, 15240, Note_on_c, 2, 50, 0
5, 15240, Note_on_c, 2, 52, 49
5, 15540, Note_on_c, 2, 52, 0
5, 15540, Note_on_c, 2, 62, 49
5, 15600, Note_on_c, 2, 62, 0
5, 15600, Note_on_c, 2, 61, 49
5, 15630, Note_on_c, 2, 61, 0
5, 15630, Note_on_c, 2, 59, 49
5, 15660, Note_on_c, 2, 59, 0
5, 15660, Note_on_c, 2, 61, 49
5, 15690, Note_on_c, 2, 61, 0
5, 15690, Note_on_c, 2, 57, 49
5, 15720, Note_on_c, 2, 57, 0
5, 15720, Note_on_c, 2, 57, 49
5, 15735, Note_on_c, 2, 57, 0
5, 15735, Note_on_c, 2, 56, 49
5, 15750, Note_on_c, 2, 56, 0
5, 15750, Note_on_c, 2, 57, 49
5, 15765, Note_on_c, 2, 57, 0
5, 15765, Note_on_c, 2, 56, 49
5, 15780, Note_on_c, 2, 56, 0
5, 15780, Note_on_c, 2, 57, 49
5, 15795, Note_on_c, 2, 57, 0
5, 15795, Note_on_c, 2, 56, 49
5, 15810, Note_on_c, 2, 56, 0
5, 15810, Note_on_c, 2, 57, 49
5, 15840, Note_on_c, 2, 57, 0
5, 15840, Note_on_c, 2, 57, 49
5, 15900, Note_on_c, 2, 57, 0
5, 16200, Note_on_c, 2, 61, 75
5, 16260, Note_on_c, 2, 61, 0
5, 16260, Note_on_c, 2, 57, 75
5, 16295, Note_on_c, 2, 57, 0
5, 16320, Note_on_c, 2, 57, 75
5, 16380, Note_on_c, 2, 57, 0
5, 16380, Note_on_c, 2, 59, 75
5, 16415, Note_on_c, 2, 59, 0
5, 16440, Note_on_c, 2, 61, 75
5, 16455, Note_on_c, 2, 61, 0
5, 16455, Note_on_c, 2, 59, 75
5, 16470, Note_on_c, 2, 59, 0
5, 16470, Note_on_c, 2, 61, 75
5, 16485, Note_on_c, 2, 61, 0
5, 16485, Note_on_c, 2, 59, 75
5, 16500, Note_on_c, 2, 59, 0
5, 16500, Note_on_c, 2, 57, 75
5, 16530, Note_on_c, 2, 57, 0
5, 16530, Note_on_c, 2, 59, 75
5, 16560, Note_on_c, 2, 59, 0
5, 16560, Note_on_c, 2, 61, 75
5, 16620, Note_on_c, 2, 61, 0
5, 16620, Note_on_c, 2, 59, 75
5, 16650, Note_on_c, 2, 59, 0
5, 16650, Note_on_c, 2, 61, 75
5, 16680, Note_on_c, 2, 61, 0
5, 16680, Note_on_c, 2, 62, 75
5, 16740, Note_on_c, 2, 62, 0
5, 16740, Note_on_c, 2, 61, 75
5, 16800, Note_on_c, 2, 61, 0
5, 16800, Note_on_c, 2, 59, 75
5, 16860, Note_on_c, 2, 59, 0
5, 16860, Note_on_c, 2, 57, 75
5, 16920, Note_on_c, 2, 57, 0
5, 16920, Note_on_c, 2, 59, 75
5, 16980, Note_on_c, 2, 59, 0
5, 16980, Note_on_c, 2, 56, 75
5, 17015, Note_on_c, 2, 56, 0
5, 17040, Note_on_c, 2, 56, 75
5, 17100, Note_on_c, 2, 56, 0
5, 17100, Note_on_c, 2, 57, 75
5, 17135, Note_on_c, 2, 57, 0
5, 17160, Note_on_c, 2, 59, 75
5, 17175, Note_on_c, 2, 59, 0
5, 17175, Note_on_c, 2, 57, 75
5, 17190, Note_on_c, 2, 57, 0
5, 17190, Note_on_c, 2, 59, 75
5, 17205, Note_on_c, 2, 59, 0
5, 17205, Note_on_c, 2, 57, 75
5, 17220, Note_on_c, 2, 57, 0
5, 17220, Note_on_c, 2, 56, 75
5, 17250, Note_on_c, 2, 56, 0
5, 17250, Note_on_c, 2, 57, 75
5, 17280, Note_on_c, 2, 57, 0
5, 17280, Note_on_c, 2, 59, 75
5, 17340, Note_on_c, 2, 59, 0
5, 17340, Note_on_c, 2, 57, 75
5, 17370, Note_on_c, 2, 57, 0
5, 17370, Note_on_c, 2, 59, 75
5, 17400, Note_on_c, 2, 59, 0
5, 17400, Note_on_c, 2, 61, 75
5, 17460, Note_on_c, 2, 61, 0
5, 17460, Note_on_c, 2, 59, 75
5, 17520, Note_on_c, 2, 59, 0
5, 17520, Note_on_c, 2, 57, 75
5, 17580, Note_on_c, 2, 57, 0
5, 17580, Note_on_c, 2, 56, 75
5, 17640, Note_on_c, 2, 56, 0
5, 17640, Note_on_c, 2, 57, 75
5, 17760, Note_on_c, 2, 57, 0
5, 17820, Note_on_c, 2, 49, 75
5, 17850, Note_on_c, 2, 49, 0
5, 17850, Note_on_c, 2, 50, 75
5, 17880, Note_on_c, 2, 50, 0
5, 17880, Note_on_c, 2, 52, 75
5, 17940, Note_on_c, 2, 52, 0
5, 17940, Note_on_c, 2, 49, 75
5, 18000, Note_on_c, 2, 49, 0
5, 18000, Note_on_c, 2, 50, 75
5, 18060, Note_on_c, 2, 50, 0
5, 18060, Note_on_c, 2, 57, 75
5, 18120, Note_on_c, 2, 57, 0
5, 18180, Note_on_c, 2, 51, 75
5, 18210, Note_on_c, 2, 51, 0
5, 18210, Note_on_c, 2, 52, 75
5, 18240, Note_on_c, 2, 52, 0
5, 18240, Note_on_c, 2, 54, 75
5, 18300, Note_on_c, 2, 54, 0
5, 18300, Note_on_c, 2, 51, 75
5, 18360, Note_on_c, 2, 51, 0
5, 18360, Note_on_c, 2, 52, 75
5, 18420, Note_on_c, 2, 52, 0
5, 18420, Note_on_c, 2, 59, 75
5, 18480, Note_on_c, 2, 59, 0
5, 18510, Note_on_c, 2, 54, 75
5, 18540, Note_on_c, 2, 54, 0
5, 18540, Note_on_c, 2, 56, 75
5, 18570, Note_on_c, 2, 56, 0
5, 18570, Note_on_c, 2, 57, 75
5, 18600, Note_on_c, 2, 57, 0
5, 18600, Note_on_c, 2, 59, 75
5, 18630, Note_on_c, 2, 59, 0
5, 18630, Note_on_c, 2, 57, 75
5, 18660, Note_on_c, 2, 57, 0
5, 18660, Note_on_c, 2, 56, 75
5, 18690, Note_on_c, 2, 56, 0
5, 18690, Note_on_c, 2, 59, 75
5, 18720, Note_on_c, 2, 59, 0
5, 18720, Note_on_c, 2, 57, 75
5, 18780, Note_on_c, 2, 57, 0
5, 18900, Note_on_c, 2, 66, 75
5, 18960, Note_on_c, 2, 66, 0
5, 18960, Note_on_c, 2, 56, 75
5, 19020, Note_on_c, 2, 56, 0
5, 19020, Note_on_c, 2, 64, 75
5, 19080, Note_on_c, 2, 64, 0
5, 19080, Note_on_c, 2, 61, 75
5, 19140, Note_on_c, 2, 61, 0
5, 19140, Note_on_c, 2, 52, 75
5, 19200, Note_on_c, 2, 52, 0
5, 19260, Note_on_c, 2, 49, 49
5, 19290, Note_on_c, 2, 49, 0
5, 19290, Note_on_c, 2, 47, 49
5, 19320, Note_on_c, 2, 47, 0
5, 19320, Note_on_c, 2, 49, 49
5, 19380, Note_on_c, 2, 49, 0
5, 19380, Note_on_c, 2, 51, 49
5, 19440, Note_on_c, 2, 51, 0
5, 19440, Note_on_c, 2, 52, 49
5, 19500, Note_on_c, 2, 52, 0
5, 19500, Note_on_c, 2, 52, 49
5, 19560, Note_on_c, 2, 52, 0
5, 19560, Note_on_c, 2, 52, 49
5, 19620, Note_on_c, 2, 52, 0
5, 19620, Note_on_c, 2, 52, 49
5, 19680, Note_on_c, 2, 52, 0
5, 19680, Note_on_c, 2, 52, 49
5, 19740, Note_on_c, 2, 52, 0
5, 19740, Note_on_c, 2, 52, 49
5, 19800, Note_on_c, 2, 52, 0
5, 19800, Note_on_c, 2, 52, 49
5, 19860, Note_on_c, 2, 52, 0
5, 19860, Note_on_c, 2, 51, 49
5, 19890, Note_on_c, 2, 51, 0
5, 19890, Note_on_c, 2, 49, 49
5, 19920, Note_on_c, 2, 49, 0
5, 19920, Note_on_c, 2, 51, 49
5, 19980, Note_on_c, 2, 51, 0
5, 20100, Note_on_c, 2, 60, 49
5, 20190, Note_on_c, 2, 60, 0
5, 20190, Note_on_c, 2, 59, 49
5, 20220, Note_on_c, 2, 59, 0
5, 20220, Note_on_c, 2, 57, 49
5, 20250, Note_on_c, 2, 57, 0
5, 20250, Note_on_c, 2, 55, 49
5, 20280, Note_on_c, 2, 55, 0
5, 20280, Note_on_c, 2, 54, 49
5, 20340, Note_on_c, 2, 54, 0
5, 20460, Note_on_c, 2, 47, 49
5, 20520, Note_on_c, 2, 47, 0
5, 20520, Note_on_c, 2, 40, 49
5, 20640, Note_on_c, 2, 40, 0
5, 20700, Note_on_c, 2, 64, 49
5, 20730, Note_on_c, 2, 64, 0
5, 20730, Note_on_c, 2, 62, 49
5, 20760, Note_on_c, 2, 62, 0
5, 20760, Note_on_c, 2, 64, 49
5, 20820, Note_on_c, 2, 64, 0
5, 20820, Note_on_c, 2, 66, 49
5, 20850, Note_on_c, 2, 66, 0
5, 20850, Note_on_c, 2, 64, 49
5, 20880, Note_on_c, 2, 64, 0
5, 20880, Note_on_c, 2, 62, 49
5, 21000, Note_on_c, 2, 62, 0
5, 21060, Note_on_c, 2, 62, 49
5, 21090, Note_on_c, 2, 62, 0
5, 21090, Note_on_c, 2, 61, 49
5, 21120, Note_on_c, 2, 61, 0
5, 21120, Note_on_c, 2, 62, 49
5, 21180, Note_on_c, 2, 62, 0
5, 21180, Note_on_c, 2, 64, 49
5, 21210, Note_on_c, 2, 64, 0
5, 21210, Note_on_c, 2, 62, 49
5, 21240, Note_on_c, 2, 62, 0
5, 21240, Note_on_c, 2, 61, 49
5, 21300, Note_on_c, 2, 61, 0
5, 21300, Note_on_c, 2, 64, 49
5, 21360, Note_on_c, 2, 64, 0
5, 21360, Note_on_c, 2, 62, 49
5, 21420, Note_on_c, 2, 62, 0
5, 21420, Note_on_c, 2, 61, 49
5, 21480, Note_on_c, 2, 61, 0
5, 21480, Note_on_c, 2, 61, 49
5, 21495, Note_on_c, 2, 61, 0
5, 21495, Note_on_c, 2, 59, 49
5, 21510, Note_on_c, 2, 59, 0
5, 21510, Note_on_c, 2, 61, 49
5, 21525, Note_on_c, 2, 61, 0
5, 21525, Note_on_c, 2, 59, 49
5, 21540, Note_on_c, 2, 59, 0
5, 21540, Note_on_c, 2, 58, 49
5, 21570, Note_on_c, 2, 58, 0
5, 21570, Note_on_c, 2, 59, 49
5, 21600, Note_on_c, 2, 59, 0
5, 21600, Note_on_c, 2, 61, 49
5, 21720, Note_on_c, 2, 61, 0
5, 21960, Note_on_c, 2, 62, 49
5, 22020, Note_on_c, 2, 62, 0
5, 22020, Note_on_c, 2, 59, 49
5, 22055, Note_on_c, 2, 59, 0
5, 22080, Note_on_c, 2, 59, 49
5, 22140, Note_on_c, 2, 59, 0
5, 22140, Note_on_c, 2, 61, 49
5, 22175, Note_on_c, 2, 61, 0
5, 22200, Note_on_c, 2, 62, 49
5, 22215, Note_on_c, 2, 62, 0
5, 22215, Note_on_c, 2, 61, 49
5, 22230, Note_on_c, 2, 61, 0
5, 22230, Note_on_c, 2, 62, 49
5, 22245, Note_on_c, 2, 62, 0
5, 22245, Note_on_c, 2, 61, 49
5, 22260, Note_on_c, 2, 61, 0
5, 22260, Note_on_c, 2, 59, 49
5, 22290, Note_on_c, 2, 59, 0
5, 22290, Note_on_c, 2, 61, 49
5, 22320, Note_on_c, 2, 61, 0
5, 22320, Note_on_c, 2, 62, 49
5, 22380, Note_on_c, 2, 62, 0
5, 22380, Note_on_c, 2, 61, 49
5, 22410, Note_on_c, 2, 61, 0
5, 22410, Note_on_c, 2, 62, 49
5, 22440, Note_on_c, 2, 62, 0
5, 22440, Note_on_c, 2, 64, 49
5, 22500, Note_on_c, 2, 64, 0
5, 22500, Note_on_c, 2, 62, 49
5, 22560, Note_on_c, 2, 62, 0
5, 22560, Note_on_c, 2, 61, 49
5, 22620, Note_on_c, 2, 61, 0
5, 22620, Note_on_c, 2, 59, 49
5, 22680, Note_on_c, 2, 59, 0
5, 22680, Note_on_c, 2, 61, 49
5, 22740, Note_on_c, 2, 61, 0
5, 22740, Note_on_c, 2, 58, 49
5, 22775, Note_on_c, 2, 58, 0
5, 22800, Note_on_c, 2, 58, 49
5, 22860, Note_on_c, 2, 58, 0
5, 22860, Note_on_c, 2, 59, 49
5, 22895, Note_on_c, 2, 59, 0
5, 22920, Note_on_c, 2, 61, 49
5, 22935, Note_on_c, 2, 61, 0
5, 22935, Note_on_c, 2, 59, 49
5, 22950, Note_on_c, 2, 59, 0
5, 22950, Note_on_c, 2, 61, 49
5, 22965, Note_on_c, 2, 61, 0
5, 22965, Note_on_c, 2, 59, 49
5, 22980, Note_on_c, 2, 59, 0
5, 22980, Note_on_c, 2, 58, 49
5, 23010, Note_on_c, 2, 58, 0
5, 23010, Note_on_c, 2, 59, 49
5, 23040, Note_on_c, 2, 59, 0
5, 23040, Note_on_c, 2, 61, 49
5, 23100, Note_on_c, 2, 61, 0
5, 23100, Note_on_c, 2, 59, 49
5, 23130, Note_on_c, 2, 59, 0
5, 23130, Note_on_c, 2, 61, 49
5, 23160, Note_on_c, 2, 61, 0
5, 23160, Note_on_c, 2, 62, 49
5, 23220, Note_on_c, 2, 62, 0
5, 23220, Note_on_c, 2, 61, 49
5, 23280, Note_on_c, 2, 61, 0
5, 23280, Note_on_c, 2, 59, 49
5, 23340, Note_on_c, 2, 59, 0
5, 23340, Note_on_c, 2, 58, 49
5, 23400, Note_on_c, 2, 58, 0
5, 23400, Note_on_c, 2, 59, 49
5, 23460, Note_on_c, 2, 59, 0
5, 23460, Note_on_c, 2, 57, 49
5, 23490, Note_on_c, 2, 57, 0
5, 23490, Note_on_c, 2, 55, 49
5, 23520, Note_on_c, 2, 55, 0
5, 23520, Note_on_c, 2, 57, 49
5, 23580, Note_on_c, 2, 57, 0
5, 23580, Note_on_c, 2, 59, 49
5, 23610, Note_on_c, 2, 59, 0
5, 23610, Note_on_c, 2, 57, 49
5, 23640, Note_on_c, 2, 57, 0
5, 23640, Note_on_c, 2, 55, 49
5, 23700, Note_on_c, 2, 55, 0
5, 24300, Note_on_c, 2, 59, 75
5, 24330, Note_on_c, 2, 59, 0
5, 24330, Note_on_c, 2, 57, 75
5, 24360, Note_on_c, 2, 57, 0
5, 24360, Note_on_c, 2, 59, 75
5, 24420, Note_on_c, 2, 59, 0
5, 24420, Note_on_c, 2, 61, 75
5, 24450, Note_on_c, 2, 61, 0
5, 24450, Note_on_c, 2, 59, 75
5, 24480, Note_on_c, 2, 59, 0
5, 24480, Note_on_c, 2, 57, 75
5, 24600, Note_on_c, 2, 57, 0
5, 24660, Note_on_c, 2, 57, 75
5, 24690, Note_on_c, 2, 57, 0
5, 24690, Note_on_c, 2, 55, 75
5, 24720, Note_on_c, 2, 55, 0
5, 24720, Note_on_c, 2, 57, 75
5, 24780, Note_on_c, 2, 57, 0
5, 24780, Note_on_c, 2, 59, 75
5, 24810, Note_on_c, 2, 59, 0
5, 24810, Note_on_c, 2, 57, 75
5, 24840, Note_on_c, 2, 57, 0
5, 24840, Note_on_c, 2, 55, 75
5, 24900, Note_on_c, 2, 55, 0
5, 24900, Note_on_c, 2, 55, 75
5, 24960, Note_on_c, 2, 55, 0
5, 24960, Note_on_c, 2, 55, 75
5, 25020, Note_on_c, 2, 55, 0
5, 25020, Note_on_c, 2, 55, 75
5, 25080, Note_on_c, 2, 55, 0
5, 25080, Note_on_c, 2, 55, 75
5, 25140, Note_on_c, 2, 55, 0
5, 25140, Note_on_c, 2, 50, 75
5, 25200, Note_on_c, 2, 50, 0
5, 25200, Note_on_c, 2, 52, 75
5, 25260, Note_on_c, 2, 52, 0
5, 25260, Note_on_c, 2, 50, 75
5, 25290, Note_on_c, 2, 50, 0
5, 25290, Note_on_c, 2, 52, 75
5, 25320, Note_on_c, 2, 52, 0
5, 25320, Note_on_c, 2, 54, 75
5, 25380, Note_on_c, 2, 54, 0
5, 25380, Note_on_c, 2, 55, 75
5, 25440, Note_on_c, 2, 55, 0
5, 25440, Note_on_c, 2, 54, 75
5, 25500, Note_on_c, 2, 54, 0
5, 25500, Note_on_c, 2, 52, 75
5, 25560, Note_on_c, 2, 52, 0
5, 25560, Note_on_c, 2, 50, 75
5, 25620, Note_on_c, 2, 50, 0
5, 25620, Note_on_c, 2, 52, 75
5, 25650, Note_on_c, 2, 52, 0
5, 25650, Note_on_c, 2, 54, 75
5, 25680, Note_on_c, 2, 54, 0
5, 25680, Note_on_c, 2, 55, 75
5, 25740, Note_on_c, 2, 55, 0
5, 25740, Note_on_c, 2, 47, 75
5, 25800, Note_on_c, 2, 47, 0
5, 25800, Note_on_c, 2, 52, 75
5, 25860, Note_on_c, 2, 52, 0
5, 25860, Note_on_c, 2, 50, 75
5, 25920, Note_on_c, 2, 50, 0
5, 25920, Note_on_c, 2, 49, 75
5, 25950, Note_on_c, 2, 49, 0
5, 25950, Note_on_c, 2, 50, 75
5, 25980, Note_on_c, 2, 50, 0
5, 25980, Note_on_c, 2, 47, 75
5, 26010, Note_on_c, 2, 47, 0
5, 26010, Note_on_c, 2, 49, 75
5, 26040, Note_on_c, 2, 49, 0
5, 26040, Note_on_c, 2, 50, 75
5, 26070, Note_on_c, 2, 50, 0
5, 26070, Note_on_c, 2, 52, 75
5, 26100, Note_on_c, 2, 52, 0
5, 26100, Note_on_c, 2, 49, 75
5, 26130, Note_on_c, 2, 49, 0
5, 26130, Note_on_c, 2, 50, 75
5, 26160, Note_on_c, 2, 50, 0
5, 26160, Note_on_c, 2, 52, 75
5, 26310, Note_on_c, 2, 52, 0
5, 26310, Note_on_c, 2, 50, 75
5, 26340, Note_on_c, 2, 50, 0
5, 26340, Note_on_c, 2, 49, 75
5, 26370, Note_on_c, 2, 49, 0
5, 26370, Note_on_c, 2, 47, 75
5, 26400, Note_on_c, 2, 47, 0
5, 26400, Note_on_c, 2, 46, 75
5, 26460, Note_on_c, 2, 46, 0
5, 26460, Note_on_c, 2, 58, 75
5, 26520, Note_on_c, 2, 58, 0
5, 26520, Note_on_c, 2, 59, 75
5, 26580, Note_on_c, 2, 59, 0
5, 26580, Note_on_c, 2, 54, 75
5, 26670, Note_on_c, 2, 54, 0
5, 26670, Note_on_c, 2, 52, 75
5, 26700, Note_on_c, 2, 52, 0
5, 26700, Note_on_c, 2, 50, 75
5, 26730, Note_on_c, 2, 50, 0
5, 26730, Note_on_c, 2, 49, 75
5, 26760, Note_on_c, 2, 49, 0
5, 26760, Note_on_c, 2, 47, 75
5, 26790, Note_on_c, 2, 47, 0
5, 26790, Note_on_c, 2, 49, 75
5, 26820, Note_on_c, 2, 49, 0
5, 26820, Note_on_c, 2, 47, 75
5, 26850, Note_on_c, 2, 47, 0
5, 26850, Note_on_c, 2, 49, 75
5, 26880, Note_on_c, 2, 49, 0
5, 26880, Note_on_c, 2, 50, 75
5, 26895, Note_on_c, 2, 50, 0
5, 26895, Note_on_c, 2, 49, 75
5, 26910, Note_on_c, 2, 49, 0
5, 26910, Note_on_c, 2, 50, 75
5, 26925, Note_on_c, 2, 50, 0
5, 26925, Note_on_c, 2, 49, 75
5, 26940, Note_on_c, 2, 49, 0
5, 26940, Note_on_c, 2, 50, 75
5, 26955, Note_on_c, 2, 50, 0
5, 26955, Note_on_c, 2, 49, 75
5, 26970, Note_on_c, 2, 49, 0
5, 26970, Note_on_c, 2, 47, 75
5, 26985, Note_on_c, 2, 47, 0
5, 26985, Note_on_c, 2, 49, 75
5, 27000, Note_on_c, 2, 49, 0
5, 27000, Note_on_c, 2, 50, 49
5, 27120, Note_on_c, 2, 50, 0
5, 27180, Note_on_c, 2, 50, 49
5, 27210, Note_on_c, 2, 50, 0
5, 27210, Note_on_c, 2, 49, 49
5, 27240, Note_on_c, 2, 49, 0
5, 27240, Note_on_c, 2, 51, 49
5, 27300, Note_on_c, 2, 51, 0
5, 27300, Note_on_c, 2, 53, 49
5, 27360, Note_on_c, 2, 53, 0
5, 27360, Note_on_c, 2, 54, 49
5, 27420, Note_on_c, 2, 54, 0
5, 27420, Note_on_c, 2, 54, 49
5, 27480, Note_on_c, 2, 54, 0
5, 27480, Note_on_c, 2, 54, 49
5, 27540, Note_on_c, 2, 54, 0
5, 27540, Note_on_c, 2, 54, 49
5, 27600, Note_on_c, 2, 54, 0
5, 27600, Note_on_c, 2, 54, 49
5, 27660, Note_on_c, 2, 54, 0
5, 27660, Note_on_c, 2, 54, 49
5, 27720, Note_on_c, 2, 54, 0
5, 27720, Note_on_c, 2, 54, 49
5, 27780, Note_on_c, 2, 54, 0
5, 27780, Note_on_c, 2, 59, 49
5, 27810, Note_on_c, 2, 59, 0
5, 27810, Note_on_c, 2, 58, 49
5, 27840, Note_on_c, 2, 58, 0
5, 27840, Note_on_c, 2, 59, 49
5, 27900, Note_on_c, 2, 59, 0
5, 28020, Note_on_c, 2, 62, 49
5, 28140, Note_on_c, 2, 62, 0
5, 28140, Note_on_c, 2, 61, 49
5, 28170, Note_on_c, 2, 61, 0
5, 28170, Note_on_c, 2, 59, 49
5, 28200, Note_on_c, 2, 59, 0
5, 28200, Note_on_c, 2, 61, 49
5, 28260, Note_on_c, 2, 61, 0
5, 28380, Note_on_c, 2, 49, 49
5, 28440, Note_on_c, 2, 49, 0
5, 28440, Note_on_c, 2, 42, 49
5, 28560, Note_on_c, 2, 42, 0
5, 28740, Note_on_c, 2, 54, 49
5, 28770, Note_on_c, 2, 54, 0
5, 28770, Note_on_c, 2, 52, 49
5, 28800, Note_on_c, 2, 52, 0
5, 28800, Note_on_c, 2, 54, 49
5, 28860, Note_on_c, 2, 54, 0
5, 28860, Note_on_c, 2, 56, 49
5, 28890, Note_on_c, 2, 56, 0
5, 28890, Note_on_c, 2, 54, 49
5, 28920, Note_on_c, 2, 54, 0
5, 28920, Note_on_c, 2, 52, 49
5, 28980, Note_on_c, 2, 52, 0
5, 28980, Note_on_c, 2, 57, 49
5, 29010, Note_on_c, 2, 57, 0
5, 29010, Note_on_c, 2, 56, 49
5, 29040, Note_on_c, 2, 56, 0
5, 29040, Note_on_c, 2, 57, 49
5, 29100, Note_on_c, 2, 57, 0
5, 29100, Note_on_c, 2, 56, 49
5, 29130, Note_on_c, 2, 56, 0
5, 29130, Note_on_c, 2, 54, 49
5, 29160, Note_on_c, 2, 54, 0
5, 29160, Note_on_c, 2, 52, 49
5, 29220, Note_on_c, 2, 52, 0
5, 29220, Note_on_c, 2, 54, 49
5, 29280, Note_on_c, 2, 54, 0
5, 29280, Note_on_c, 2, 56, 49
5, 29340, Note_on_c, 2, 56, 0
5, 29340, Note_on_c, 2, 57, 49
5, 29400, Note_on_c, 2, 57, 0
5, 29400, Note_on_c, 2, 59, 49
5, 29580, Note_on_c, 2, 59, 0
5, 29580, Note_on_c, 2, 62, 49
5, 29640, Note_on_c, 2, 62, 0
5, 29640, Note_on_c, 2, 61, 49
5, 29700, Note_on_c, 2, 61, 0
5, 29700, Note_on_c, 2, 59, 49
5, 29760, Note_on_c, 2, 59, 0
5, 29760, Note_on_c, 2, 57, 49
5, 29940, Note_on_c, 2, 57, 0
5, 29940, Note_on_c, 2, 54, 49
5, 29975, Note_on_c, 2, 54, 0
5, 30000, Note_on_c, 2, 54, 49
5, 30060, Note_on_c, 2, 54, 0
5, 30060, Note_on_c, 2, 56, 49
5, 30095, Note_on_c, 2, 56, 0
5, 30120, Note_on_c, 2, 57, 49
5, 30135, Note_on_c, 2, 57, 0
5, 30135, Note_on_c, 2, 56, 49
5, 30150, Note_on_c, 2, 56, 0
5, 30150, Note_on_c, 2, 57, 49
5, 30165, Note_on_c, 2, 57, 0
5, 30165, Note_on_c, 2, 56, 49
5, 30180, Note_on_c, 2, 56, 0
5, 30180, Note_on_c, 2, 54, 49
5, 30210, Note_on_c, 2, 54, 0
5, 30210, Note_on_c, 2, 56, 49
5, 30240, Note_on_c, 2, 56, 0
5, 30240, Note_on_c, 2, 57, 49
5, 30300, Note_on_c, 2, 57, 0
5, 30300, Note_on_c, 2, 56, 49
5, 30330, Note_on_c, 2, 56, 0
5, 30330, Note_on_c, 2, 57, 49
5, 30360, Note_on_c, 2, 57, 0
5, 30360, Note_on_c, 2, 59, 49
5, 30420, Note_on_c, 2, 59, 0
5, 30420, Note_on_c, 2, 57, 49
5, 30480, Note_on_c, 2, 57, 0
5, 30480, Note_on_c, 2, 56, 49
5, 30540, Note_on_c, 2, 56, 0
5, 30540, Note_on_c, 2, 54, 49
5, 30600, Note_on_c, 2, 54, 0
5, 30600, Note_on_c, 2, 56, 49
5, 30660, Note_on_c, 2, 56, 0
5, 30660, Note_on_c, 2, 53, 49
5, 30695, Note_on_c, 2, 53, 0
5, 30720, Note_on_c, 2, 53, 49
5, 30780, Note_on_c, 2, 53, 0
5, 30780, Note_on_c, 2, 54, 49
5, 30815, Note_on_c, 2, 54, 0
5, 30840, Note_on_c, 2, 56, 49
5, 30855, Note_on_c, 2, 56, 0
5, 30855, Note_on_c, 2, 54, 49
5, 30870, Note_on_c, 2, 54, 0
5, 30870, Note_on_c, 2, 56, 49
5, 30885, Note_on_c, 2, 56, 0
5, 30885, Note_on_c, 2, 54, 49
5, 30900, Note_on_c, 2, 54, 0
5, 30900, Note_on_c, 2, 53, 49
5, 30930, Note_on_c, 2, 53, 0
5, 30930, Note_on_c, 2, 54, 49
5, 30960, Note_on_c, 2, 54, 0
5, 30960, Note_on_c, 2, 56, 49
5, 31020, Note_on_c, 2, 56, 0
5, 31020, Note_on_c, 2, 54, 49
5, 31050, Note_on_c, 2, 54, 0
5, 31050, Note_on_c, 2, 56, 49
5, 31080, Note_on_c, 2, 56, 0
5, 31080, Note_on_c, 2, 57, 49
5, 31140, Note_on_c, 2, 57, 0
5, 31140, Note_on_c, 2, 56, 49
5, 31200, Note_on_c, 2, 56, 0
5, 31200, Note_on_c, 2, 54, 49
5, 31260, Note_on_c, 2, 54, 0
5, 31260, Note_on_c, 2, 53, 49
5, 31320, Note_on_c, 2, 53, 0
5, 31320, Note_on_c, 2, 54, 49
5, 31380, Note_on_c, 2, 54, 0
5, 31380, Note_on_c, 2, 61, 49
5, 31410, Note_on_c, 2, 61, 0
5, 31410, Note_on_c, 2, 59, 49
5, 31440, Note_on_c, 2, 59, 0
5, 31440, Note_on_c, 2, 61, 49
5, 31500, Note_on_c, 2, 61, 0
5, 31500, Note_on_c, 2, 62, 49
5, 31530, Note_on_c, 2, 62, 0
5, 31530, Note_on_c, 2, 61, 49
5, 31560, Note_on_c, 2, 61, 0
5, 31560, Note_on_c, 2, 59, 49
5, 31620, Note_on_c, 2, 59, 0
5, 32580, Note_on_c, 2, 62, 49
5, 32610, Note_on_c, 2, 62, 0
5, 32610, Note_on_c, 2, 61, 49
5, 32640, Note_on_c, 2, 61, 0
5, 32640, Note_on_c, 2, 62, 49
5, 32700, Note_on_c, 2, 62, 0
5, 32700, Note_on_c, 2, 64, 49
5, 32730, Note_on_c, 2, 64, 0
5, 32730, Note_on_c, 2, 62, 49
5, 32760, Note_on_c, 2, 62, 0
5, 32760, Note_on_c, 2, 61, 49
5, 32880, Note_on_c, 2, 61, 0
5, 32940, Note_on_c, 2, 52, 49
5, 32970, Note_on_c, 2, 52, 0
5, 32970, Note_on_c, 2, 50, 49
5, 33000, Note_on_c, 2, 50, 0
5, 33000, Note_on_c, 2, 52, 49
5, 33060, Note_on_c, 2, 52, 0
5, 33060, Note_on_c, 2, 54, 49
5, 33090, Note_on_c, 2, 54, 0
5, 33090, Note_on_c, 2, 52, 49
5, 33120, Note_on_c, 2, 52, 0
5, 33120, Note_on_c, 2, 50, 49
5, 33240, Note_on_c, 2, 50, 0
5, 33540, Note_on_c, 2, 52, 49
5, 33600, Note_on_c, 2, 52, 0
5, 33600, Note_on_c, 2, 52, 49
5, 33660, Note_on_c, 2, 52, 0
5, 33660, Note_on_c, 2, 54, 49
5, 33720, Note_on_c, 2, 54, 0
5, 33720, Note_on_c, 2, 55, 49
5, 33735, Note_on_c, 2, 55, 0
5, 33735, Note_on_c, 2, 54, 49
5, 33750, Note_on_c, 2, 54, 0
5, 33750, Note_on_c, 2, 55, 49
5, 33765, Note_on_c, 2, 55, 0
5, 33765, Note_on_c, 2, 54, 49
5, 33780, Note_on_c, 2, 54, 0
5, 33780, Note_on_c, 2, 52, 49
5, 33810, Note_on_c, 2, 52, 0
5, 33810, Note_on_c, 2, 54, 49
5, 33840, Note_on_c, 2, 54, 0
5, 33840, Note_on_c, 2, 55, 49
5, 33900, Note_on_c, 2, 55, 0
5, 34920, Note_on_c, 2, 54, 49
5, 34980, Note_on_c, 2, 54, 0
5, 34980, Note_on_c, 2, 50, 49
5, 35015, Note_on_c, 2, 50, 0
5, 35040, Note_on_c, 2, 50, 49
5, 35100, Note_on_c, 2, 50, 0
5, 35100, Note_on_c, 2, 52, 49
5, 35135, Note_on_c, 2, 52, 0
5, 35160, Note_on_c, 2, 54, 49
5, 35175, Note_on_c, 2, 54, 0
5, 35175, Note_on_c, 2, 52, 49
5, 35190, Note_on_c, 2, 52, 0
5, 35190, Note_on_c, 2, 54, 49
5, 35205, Note_on_c, 2, 54, 0
5, 35205, Note_on_c, 2, 52, 49
5, 35220, Note_on_c, 2, 52, 0
5, 35220, Note_on_c, 2, 50, 49
5, 35250, Note_on_c, 2, 50, 0
5, 35250, Note_on_c, 2, 52, 49
5, 35280, Note_on_c, 2, 52, 0
5, 35280, Note_on_c, 2, 54, 49
5, 35340, Note_on_c, 2, 54, 0
5, 35460, Note_on_c, 2, 59, 49
5, 35490, Note_on_c, 2, 59, 0
5, 35490, Note_on_c, 2, 57, 49
5, 35520, Note_on_c, 2, 57, 0
5, 35520, Note_on_c, 2, 59, 49
5, 35580, Note_on_c, 2, 59, 0
5, 35580, Note_on_c, 2, 61, 49
5, 35610, Note_on_c, 2, 61, 0
5, 35610, Note_on_c, 2, 59, 49
5, 35640, Note_on_c, 2, 59, 0
5, 35640, Note_on_c, 2, 57, 49
5, 35700, Note_on_c, 2, 57, 0
5, 35700, Note_on_c, 2, 49, 49
5, 35735, Note_on_c, 2, 49, 0
5, 35760, Note_on_c, 2, 49, 49
5, 35820, Note_on_c, 2, 49, 0
5, 35820, Note_on_c, 2, 50, 49
5, 35855, Note_on_c, 2, 50, 0
5, 35880, Note_on_c, 2, 52, 49
5, 35895, Note_on_c, 2, 52, 0
5, 35895, Note_on_c, 2, 50, 49
5, 35910, Note_on_c, 2, 50, 0
5, 35910, Note_on_c, 2, 52, 49
5, 35925, Note_on_c, 2, 52, 0
5, 35925, Note_on_c, 2, 50, 49
5, 35940, Note_on_c, 2, 50, 0
5, 35940, Note_on_c, 2, 49, 49
5, 35970, Note_on_c, 2, 49, 0
5, 35970, Note_on_c, 2, 50, 49
5, 36000, Note_on_c, 2, 50, 0
5, 36000, Note_on_c, 2, 52, 49
5, 36060, Note_on_c, 2, 52, 0
5, 36180, Note_on_c, 2, 57, 49
5, 36210, Note_on_c, 2, 57, 0
5, 36210, Note_on_c, 2, 55, 49
5, 36240, Note_on_c, 2, 55, 0
5, 36240, Note_on_c, 2, 57, 49
5, 36300, Note_on_c, 2, 57, 0
5, 36300, Note_on_c, 2, 59, 49
5, 36330, Note_on_c, 2, 59, 0
5, 36330, Note_on_c, 2, 57, 49
5, 36360, Note_on_c, 2, 57, 0
5, 36360, Note_on_c, 2, 55, 49
5, 36420, Note_on_c, 2, 55, 0
5, 36420, Note_on_c, 2, 55, 49
5, 36480, Note_on_c, 2, 55, 0
5, 36480, Note_on_c, 2, 55, 49
5, 36540, Note_on_c, 2, 55, 0
5, 36540, Note_on_c, 2, 55, 49
5, 36600, Note_on_c, 2, 55, 0
5, 36600, Note_on_c, 2, 55, 49
5, 36660, Note_on_c, 2, 55, 0
5, 36660, Note_on_c, 2, 50, 49
5, 36720, Note_on_c, 2, 50, 0
5, 36720, Note_on_c, 2, 52, 49
5, 36780, Note_on_c, 2, 52, 0
5, 36780, Note_on_c, 2, 57, 49
5, 36840, Note_on_c, 2, 57, 0
5, 36840, Note_on_c, 2, 57, 49
5, 36900, Note_on_c, 2, 57, 0
5, 36900, Note_on_c, 2, 57, 49
5, 36960, Note_on_c, 2, 57, 0
5, 36960, Note_on_c, 2, 57, 49
5, 37020, Note_on_c, 2, 57, 0
5, 37020, Note_on_c, 2, 55, 49
5, 37050, Note_on_c, 2, 55, 0
5, 37050, Note_on_c, 2, 54, 49
5, 37080, Note_on_c, 2, 54, 0
5, 37080, Note_on_c, 2, 55, 49
5, 37140, Note_on_c, 2, 55, 0
5, 37140, Note_on_c, 2, 59, 49
5, 37170, Note_on_c, 2, 59, 0
5, 37170, Note_on_c, 2, 57, 49
5, 37200, Note_on_c, 2, 57, 0
5, 37200, Note_on_c, 2, 55, 49
5, 37260, Note_on_c, 2, 55, 0
5, 37260, Note_on_c, 2, 54, 49
5, 37320, Note_on_c, 2, 54, 0
5, 37320, Note_on_c, 2, 52, 49
5, 37380, Note_on_c, 2, 52, 0
5, 37380, Note_on_c, 2, 50, 49
5, 37440, Note_on_c, 2, 50, 0
5, 37440, Note_on_c, 2, 49, 49
5, 37620, Note_on_c, 2, 49, 0
5, 37620, Note_on_c, 2, 50, 49
5, 37650, Note_on_c, 2, 50, 0
5, 37650, Note_on_c, 2, 52, 49
5, 37680, Note_on_c, 2, 52, 0
5, 37680, Note_on_c, 2, 54, 49
5, 37710, Note_on_c, 2, 54, 0
5, 37710, Note_on_c, 2, 55, 49
5, 37740, Note_on_c, 2, 55, 0
5, 37740, Note_on_c, 2, 57, 49
5, 37770, Note_on_c, 2, 57, 0
5, 37770, Note_on_c, 2, 61, 49
5, 37800, Note_on_c, 2, 61, 0
5, 37800, Note_on_c, 2, 62, 49
5, 37830, Note_on_c, 2, 62, 0
5, 37830, Note_on_c, 2, 59, 49
5, 37860, Note_on_c, 2, 59, 0
5, 37860, Note_on_c, 2, 57, 49
5, 37890, Note_on_c, 2, 57, 0
5, 37890, Note_on_c, 2, 55, 49
5, 37920, Note_on_c, 2, 55, 0
5, 37920, Note_on_c, 2, 54, 49
5, 37950, Note_on_c, 2, 54, 0
5, 37950, Note_on_c, 2, 52, 49
5, 37980, Note_on_c, 2, 52, 0
5, 37980, Note_on_c, 2, 54, 49
5, 38010, Note_on_c, 2, 54, 0
5, 38010, Note_on_c, 2, 50, 49
5, 38040, Note_on_c, 2, 50, 0
5, 38040, Note_on_c, 2, 49, 49
5, 38130, Note_on_c, 2, 49, 0
5, 38130, Note_on_c, 2, 50, 49
5, 38160, Note_on_c, 2, 50, 0
5, 38160, Note_on_c, 2, 50, 49
5, 38280, Note_on_c, 2, 50, 0
5, 38340, Note_on_c, 2, 59, 49
5, 38370, Note_on_c, 2, 59, 0
5, 38370, Note_on_c, 2, 57, 49
5, 38400, Note_on_c, 2, 57, 0
5, 38400, Note_on_c, 2, 59, 49
5, 38460, Note_on_c, 2, 59, 0
5, 38460, Note_on_c, 2, 61, 49
5, 38490, Note_on_c, 2, 61, 0
5, 38490, Note_on_c, 2, 59, 49
5, 38520, Note_on_c, 2, 59, 0
5, 38520, Note_on_c, 2, 57, 49
5, 38640, Note_on_c, 2, 57, 0
5, 38700, Note_on_c, 2, 57, 49
5, 38730, Note_on_c, 2, 57, 0
5, 38730, Note_on_c, 2, 55, 49
5, 38760, Note_on_c, 2, 55, 0
5, 38760, Note_on_c, 2, 57, 49
5, 38820, Note_on_c, 2, 57, 0
5, 38820, Note_on_c, 2, 59, 49
5, 38850, Note_on_c, 2, 59, 0
5, 38850, Note_on_c, 2, 57, 49
5, 38880, Note_on_c, 2, 57, 0
5, 38880, Note_on_c, 2, 55, 49
5, 39000, Note_on_c, 2, 55, 0
5, 39300, Note_on_c, 2, 52, 49
5, 39360, Note_on_c, 2, 52, 0
5, 39360, Note_on_c, 2, 54, 49
5, 39420, Note_on_c, 2, 54, 0
5, 39420, Note_on_c, 2, 55, 49
5, 39480, Note_on_c, 2, 55, 0
5, 39480, Note_on_c, 2, 57, 49
5, 39540, Note_on_c, 2, 57, 0
5, 39660, Note_on_c, 2, 50, 49
5, 39720, Note_on_c, 2, 50, 0
5, 39720, Note_on_c, 2, 52, 49
5, 39780, Note_on_c, 2, 52, 0
5, 39780, Note_on_c, 2, 54, 49
5, 39840, Note_on_c, 2, 54, 0
5, 39840, Note_on_c, 2, 55, 49
5, 39900, Note_on_c, 2, 55, 0
5, 40020, Note_on_c, 2, 49, 49
5, 40080, Note_on_c, 2, 49, 0
5, 40080, Note_on_c, 2, 50, 49
5, 40140, Note_on_c, 2, 50, 0
5, 40140, Note_on_c, 2, 52, 49
5, 40200, Note_on_c, 2, 52, 0
5, 40200, Note_on_c, 2, 54, 49
5, 40260, Note_on_c, 2, 54, 0
5, 40500, Note_on_c, 2, 45, 49
5, 40560, Note_on_c, 2, 45, 0
5, 40560, Note_on_c, 2, 52, 49
5, 40620, Note_on_c, 2, 52, 0
5, 40620, Note_on_c, 2, 54, 49
5, 40680, Note_on_c, 2, 54, 0
5, 40680, Note_on_c, 2, 55, 49
5, 40740, Note_on_c, 2, 55, 0
5, 40740, Note_on_c, 2, 49, 49
5, 40770, Note_on_c, 2, 49, 0
5, 40770, Note_on_c, 2, 50, 49
5, 40800, Note_on_c, 2, 50, 0
5, 40800, Note_on_c, 2, 52, 49
5, 40860, Note_on_c, 2, 52, 0
5, 41760, Note_on_c, 2, 54, 88
5, 41820, Note_on_c, 2, 54, 0
5, 41820, Note_on_c, 2, 50, 88
5, 41855, Note_on_c, 2, 50, 0
5, 41880, Note_on_c, 2, 50, 88
5, 41940, Note_on_c, 2, 50, 0
5, 41940, Note_on_c, 2, 52, 88
5, 41975, Note_on_c, 2, 52, 0
5, 42000, Note_on_c, 2, 54, 88
5, 42015, Note_on_c, 2, 54, 0
5, 42015, Note_on_c, 2, 52, 88
5, 42030, Note_on_c, 2, 52, 0
5, 42030, Note_on_c, 2, 54, 88
5, 42045, Note_on_c, 2, 54, 0
5, 42045, Note_on_c, 2, 52, 88
5, 42060, Note_on_c, 2, 52, 0
5, 42060, Note_on_c, 2, 50, 88
5, 42090, Note_on_c, 2, 50, 0
5, 42090, Note_on_c, 2, 52, 88
5, 42120, Note_on_c, 2, 52, 0
5, 42120, Note_on_c, 2, 54, 88
5, 42180, Note_on_c, 2, 54, 0
5, 42180, Note_on_c, 2, 52, 88
5, 42210, Note_on_c, 2, 52, 0
5, 42210, Note_on_c, 2, 54, 88
5, 42240, Note_on_c, 2, 54, 0
5, 42240, Note_on_c, 2, 55, 88
5, 42300, Note_on_c, 2, 55, 0
5, 42300, Note_on_c, 2, 54, 88
5, 42360, Note_on_c, 2, 54, 0
5, 42360, Note_on_c, 2, 52, 88
5, 42420, Note_on_c, 2, 52, 0
5, 42420, Note_on_c, 2, 50, 88
5, 42455, Note_on_c, 2, 50, 0
5, 42480, Note_on_c, 2, 52, 88
5, 42540, Note_on_c, 2, 52, 0
5, 42540, Note_on_c, 2, 49, 88
5, 42575, Note_on_c, 2, 49, 0
5, 42600, Note_on_c, 2, 49, 88
5, 42660, Note_on_c, 2, 49, 0
5, 42660, Note_on_c, 2, 50, 88
5, 42695, Note_on_c, 2, 50, 0
5, 42720, Note_on_c, 2, 52, 88
5, 42735, Note_on_c, 2, 52, 0
5, 42735, Note_on_c, 2, 50, 88
5, 42750, Note_on_c, 2, 50, 0
5, 42750, Note_on_c, 2, 52, 88
5, 42765, Note_on_c, 2, 52, 0
5, 42765, Note_on_c, 2, 50, 88
5, 42780, Note_on_c, 2, 50, 0
5, 42780, Note_on_c, 2, 49, 88
5, 42810, Note_on_c, 2, 49, 0
5, 42810, Note_on_c, 2, 50, 88
5, 42840, Note_on_c, 2, 50, 0
5, 42840, Note_on_c, 2, 52, 88
5, 42900, Note_on_c, 2, 52, 0
5, 42900, Note_on_c, 2, 50, 88
5, 42930, Note_on_c, 2, 50, 0
5, 42930, Note_on_c, 2, 52, 88
5, 42960, Note_on_c, 2, 52, 0
5, 42960, Note_on_c, 2, 54, 88
5, 43020, Note_on_c, 2, 54, 0
5, 43020, Note_on_c, 2, 52, 88
5, 43080, Note_on_c, 2, 52, 0
5, 43080, Note_on_c, 2, 50, 88
5, 43140, Note_on_c, 2, 50, 0
5, 43140, Note_on_c, 2, 49, 88
5, 43200, Note_on_c, 2, 49, 0
5, 43200, Note_on_c, 2, 50, 88
5, 43320, Note_on_c, 2, 50, 0
5, 43380, Note_on_c, 2, 59, 88
5, 43410, Note_on_c, 2, 59, 0
5, 43410, Note_on_c, 2, 57, 88
5, 43440, Note_on_c, 2, 57, 0
5, 43440, Note_on_c, 2, 59, 88
5, 43500, Note_on_c, 2, 59, 0
5, 43500, Note_on_c, 2, 61, 88
5, 43530, Note_on_c, 2, 61, 0
5, 43530, Note_on_c, 2, 59, 88
5, 43560, Note_on_c, 2, 59, 0
5, 43560, Note_on_c, 2, 57, 88
5, 43680, Note_on_c, 2, 57, 0
5, 43740, Note_on_c, 2, 57, 88
5, 43770, Note_on_c, 2, 57, 0
5, 43770, Note_on_c, 2, 55, 88
5, 43800, Note_on_c, 2, 55, 0
5, 43800, Note_on_c, 2, 57, 88
5, 43860, Note_on_c, 2, 57, 0
5, 43860, Note_on_c, 2, 59, 88
5, 43890, Note_on_c, 2, 59, 0
5, 43890, Note_on_c, 2, 57, 88
5, 43920, Note_on_c, 2, 57, 0
5, 43920, Note_on_c, 2, 55, 88
5, 43980, Note_on_c, 2, 55, 0
5, 43980, Note_on_c, 2, 55, 88
5, 44040, Note_on_c, 2, 55, 0
5, 44040, Note_on_c, 2, 55, 88
5, 44100, Note_on_c, 2, 55, 0
5, 44100, Note_on_c, 2, 55, 88
5, 44160, Note_on_c, 2, 55, 0
5, 44160, Note_on_c, 2, 55, 88
5, 44220, Note_on_c, 2, 55, 0
5, 44220, Note_on_c, 2, 50, 88
5, 44280, Note_on_c, 2, 50, 0
5, 44280, Note_on_c, 2, 52, 88
5, 44340, Note_on_c, 2, 52, 0
5, 44340, Note_on_c, 2, 50, 88
5, 44370, Note_on_c, 2, 50, 0
5, 44370, Note_on_c, 2, 52, 88
5, 44400, Note_on_c, 2, 52, 0
5, 44400, Note_on_c, 2, 54, 88
5, 44460, Note_on_c, 2, 54, 0
5, 44460, Note_on_c, 2, 55, 88
5, 44520, Note_on_c, 2, 55, 0
5, 44520, Note_on_c, 2, 54, 88
5, 44580, Note_on_c, 2, 54, 0
5, 44580, Note_on_c, 2, 52, 88
5, 44640, Note_on_c, 2, 52, 0
5, 44640, Note_on_c, 2, 54, 88
5, 44700, Note_on_c, 2, 54, 0
5, 44700, Note_on_c, 2, 50, 88
5, 44760, Note_on_c, 2, 50, 0
5, 44760, Note_on_c, 2, 52, 88
5, 44820, Note_on_c, 2, 52, 0
5, 44820, Note_on_c, 2, 54, 88
5, 44880, Note_on_c, 2, 54, 0
5, 44880, Note_on_c, 2, 55, 88
5, 44940, Note_on_c, 2, 55, 0
5, 44940, Note_on_c, 2, 59, 88
5, 45060, Note_on_c, 2, 59, 0
5, 45060, Note_on_c, 2, 57, 88
5, 45090, Note_on_c, 2, 57, 0
5, 45090, Note_on_c, 2, 55, 88
5, 45120, Note_on_c, 2, 55, 0
5, 45120, Note_on_c, 2, 57, 88
5, 45420, Note_on_c, 2, 57, 0
5, 45420, Note_on_c, 2, 55, 88
5, 45480, Note_on_c, 2, 55, 0
5, 45480, Note_on_c, 2, 54, 88
5, 45510, Note_on_c, 2, 54, 0
5, 45510, Note_on_c, 2, 52, 88
5, 45540, Note_on_c, 2, 52, 0
5, 45540, Note_on_c, 2, 54, 88
5, 45570, Note_on_c, 2, 54, 0
5, 45570, Note_on_c, 2, 50, 88
5, 45600, Note_on_c, 2, 50, 0
5, 45600, Note_on_c, 2, 50, 88
5, 45615, Note_on_c, 2, 50, 0
5, 45615, Note_on_c, 2, 49, 88
5, 45630, Note_on_c, 2, 49, 0
5, 45630, Note_on_c, 2, 50, 88
5, 45645, Note_on_c, 2, 50, 0
5, 45645, Note_on_c, 2, 49, 88
5, 45660, Note_on_c, 2, 49, 0
5, 45660, Note_on_c, 2, 50, 88
5, 45675, Note_on_c, 2, 50, 0
5, 45675, Note_on_c, 2, 49, 88
5, 45690, Note_on_c, 2, 49, 0
5, 45690, Note_on_c, 2, 50, 88
5, 45720, Note_on_c, 2, 50, 0
5, 45720, Note_on_c, 2, 50, 88
5, 45780, Note_on_c, 2, 50, 0
5, 45780, Note_on_c, 2, 55, 88
5, 45810, Note_on_c, 2, 55, 0
5, 45810, Note_on_c, 2, 57, 88
5, 45825, Note_on_c, 2, 57, 0
5, 45825, Note_on_c, 2, 59, 88
5, 45840, Note_on_c, 2, 59, 0
5, 45840, Note_on_c, 2, 57, 88
5, 45900, Note_on_c, 2, 57, 0
5, 45900, Note_on_c, 2, 55, 88
5, 45960, Note_on_c, 2, 55, 0
5, 45960, Note_on_c, 2, 54, 88
5, 46020, Note_on_c, 2, 54, 0
5, 46020, Note_on_c, 2, 52, 88
5, 46080, Note_on_c, 2, 52, 0
5, 46080, Note_on_c, 2, 54, 88
5, 46200, Note_on_c, 2, 54, 0
5, 46440, End_track
6, 0, Start_track
6, 0, MIDI_port, 0
6, 0, Title_t, "Bass"
6, 0, Program_c, 3, 57
6, 4680, Note_on_c, 3, 50, 88
6, 4800, Note_on_c, 3, 50, 0
6, 4800, Note_on_c, 3, 57, 88
6, 4920, Note_on_c, 3, 57, 0
6, 4920, Note_on_c, 3, 59, 88
6, 5040, Note_on_c, 3, 59, 0
6, 5040, Note_on_c, 3, 49, 88
6, 5160, Note_on_c, 3, 49, 0
6, 5160, Note_on_c, 3, 52, 88
6, 5280, Note_on_c, 3, 52, 0
6, 5280, Note_on_c, 3, 55, 88
6, 5520, Note_on_c, 3, 55, 0
6, 5520, Note_on_c, 3, 54, 88
6, 5640, Note_on_c, 3, 54, 0
6, 5640, Note_on_c, 3, 52, 88
6, 5760, Note_on_c, 3, 52, 0
6, 5760, Note_on_c, 3, 50, 88
6, 5775, Note_on_c, 3, 50, 0
6, 5775, Note_on_c, 3, 49, 88
6, 5790, Note_on_c, 3, 49, 0
6, 5790, Note_on_c, 3, 50, 88
6, 5805, Note_on_c, 3, 50, 0
6, 5805, Note_on_c, 3, 49, 88
6, 5820, Note_on_c, 3, 49, 0
6, 5820, Note_on_c, 3, 50, 88
6, 5835, Note_on_c, 3, 50, 0
6, 5835, Note_on_c, 3, 49, 88
6, 5850, Note_on_c, 3, 49, 0
6, 5850, Note_on_c, 3, 50, 88
6, 5865, Note_on_c, 3, 50, 0
6, 5865, Note_on_c, 3, 49, 88
6, 5880, Note_on_c, 3, 49, 0
6, 5880, Note_on_c, 3, 50, 88
6, 5895, Note_on_c, 3, 50, 0
6, 5895, Note_on_c, 3, 49, 88
6, 5910, Note_on_c, 3, 49, 0
6, 5910, Note_on_c, 3, 50, 88
6, 5925, Note_on_c, 3, 50, 0
6, 5925, Note_on_c, 3, 49, 88
6, 5940, Note_on_c, 3, 49, 0
6, 5940, Note_on_c, 3, 47, 88
6, 5970, Note_on_c, 3, 47, 0
6, 5970, Note_on_c, 3, 49, 88
6, 6000, Note_on_c, 3, 49, 0
6, 6000, Note_on_c, 3, 45, 88
6, 6120, Note_on_c, 3, 45, 0
6, 6180, Note_on_c, 3, 45, 88
6, 6240, Note_on_c, 3, 45, 0
6, 6240, Note_on_c, 3, 47, 88
6, 6300, Note_on_c, 3, 47, 0
6, 6300, Note_on_c, 3, 49, 88
6, 6360, Note_on_c, 3, 49, 0
6, 6360, Note_on_c, 3, 50, 88
6, 6420, Note_on_c, 3, 50, 0
6, 6420, Note_on_c, 3, 52, 88
6, 6480, Note_on_c, 3, 52, 0
6, 6480, Note_on_c, 3, 54, 88
6, 6540, Note_on_c, 3, 54, 0
6, 6540, Note_on_c, 3, 52, 88
6, 6600, Note_on_c, 3, 52, 0
6, 6600, Note_on_c, 3, 55, 88
6, 6660, Note_on_c, 3, 55, 0
6, 6660, Note_on_c, 3, 54, 88
6, 6720, Note_on_c, 3, 54, 0
6, 6720, Note_on_c, 3, 52, 88
6, 6780, Note_on_c, 3, 52, 0
6, 6780, Note_on_c, 3, 50, 88
6, 6810, Note_on_c, 3, 50, 0
6, 6810, Note_on_c, 3, 49, 88
6, 6840, Note_on_c, 3, 49, 0
6, 6840, Note_on_c, 3, 50, 88
6, 6900, Note_on_c, 3, 50, 0
6, 6900, Note_on_c, 3, 59, 88
6, 6960, Note_on_c, 3, 59, 0
6, 6960, Note_on_c, 3, 57, 88
6, 6975, Note_on_c, 3, 57, 0
6, 6975, Note_on_c, 3, 55, 88
6, 6990, Note_on_c, 3, 55, 0
6, 6990, Note_on_c, 3, 57, 88
6, 7005, Note_on_c, 3, 57, 0
6, 7005, Note_on_c, 3, 55, 88
6, 7020, Note_on_c, 3, 55, 0
6, 7020, Note_on_c, 3, 57, 88
6, 7035, Note_on_c, 3, 57, 0
6, 7035, Note_on_c, 3, 55, 88
6, 7050, Note_on_c, 3, 55, 0
6, 7050, Note_on_c, 3, 57, 88
6, 7065, Note_on_c, 3, 57, 0
6, 7065, Note_on_c, 3, 55, 88
6, 7080, Note_on_c, 3, 55, 0
6, 7080, Note_on_c, 3, 57, 88
6, 7095, Note_on_c, 3, 57, 0
6, 7095, Note_on_c, 3, 55, 88
6, 7110, Note_on_c, 3, 55, 0
6, 7110, Note_on_c, 3, 57, 88
6, 7125, Note_on_c, 3, 57, 0
6, 7125, Note_on_c, 3, 55, 88
6, 7140, Note_on_c, 3, 55, 0
6, 7140, Note_on_c, 3, 54, 88
6, 7200, Note_on_c, 3, 54, 0
6, 7200, Note_on_c, 3, 54, 88
6, 7440, Note_on_c, 3, 54, 0
6, 7620, Note_on_c, 3, 57, 88
6, 7680, Note_on_c, 3, 57, 0
6, 7680, Note_on_c, 3, 59, 88
6, 7740, Note_on_c, 3, 59, 0
6, 7740, Note_on_c, 3, 57, 88
6, 7800, Note_on_c, 3, 57, 0
6, 7800, Note_on_c, 3, 56, 88
6, 7830, Note_on_c, 3, 56, 0
6, 7830, Note_on_c, 3, 57, 88
6, 7860, Note_on_c, 3, 57, 0
6, 7860, Note_on_c, 3, 54, 88
6, 7890, Note_on_c, 3, 54, 0
6, 7890, Note_on_c, 3, 56, 88
6, 7920, Note_on_c, 3, 56, 0
6, 7920, Note_on_c, 3, 57, 88
6, 7980, Note_on_c, 3, 57, 0
6, 7980, Note_on_c, 3, 52, 88
6, 8010, Note_on_c, 3, 52, 0
6, 8010, Note_on_c, 3, 52, 88
6, 8040, Note_on_c, 3, 52, 0
6, 8040, Note_on_c, 3, 57, 88
6, 8100, Note_on_c, 3, 57, 0
6, 8100, Note_on_c, 3, 55, 88
6, 8160, Note_on_c, 3, 55, 0
6, 8160, Note_on_c, 3, 54, 88
6, 8340, Note_on_c, 3, 54, 0
6, 8340, Note_on_c, 3, 59, 88
6, 8370, Note_on_c, 3, 59, 0
6, 8370, Note_on_c, 3, 57, 88
6, 8400, Note_on_c, 3, 57, 0
6, 8400, Note_on_c, 3, 55, 88
6, 8430, Note_on_c, 3, 55, 0
6, 8430, Note_on_c, 3, 57, 88
6, 8460, Note_on_c, 3, 57, 0
6, 8460, Note_on_c, 3, 54, 88
6, 8490, Note_on_c, 3, 54, 0
6, 8490, Note_on_c, 3, 55, 88
6, 8520, Note_on_c, 3, 55, 0
6, 8520, Note_on_c, 3, 52, 88
6, 8550, Note_on_c, 3, 52, 0
6, 8550, Note_on_c, 3, 55, 88
6, 8580, Note_on_c, 3, 55, 0
6, 8580, Note_on_c, 3, 54, 88
6, 8610, Note_on_c, 3, 54, 0
6, 8610, Note_on_c, 3, 52, 88
6, 8640, Note_on_c, 3, 52, 0
6, 8640, Note_on_c, 3, 57, 88
6, 8670, Note_on_c, 3, 57, 0
6, 8670, Note_on_c, 3, 59, 88
6, 8700, Note_on_c, 3, 59, 0
6, 8700, Note_on_c, 3, 57, 88
6, 8730, Note_on_c, 3, 57, 0
6, 8730, Note_on_c, 3, 55, 88
6, 8760, Note_on_c, 3, 55, 0
6, 8760, Note_on_c, 3, 54, 88
6, 8790, Note_on_c, 3, 54, 0
6, 8790, Note_on_c, 3, 55, 88
6, 8820, Note_on_c, 3, 55, 0
6, 8820, Note_on_c, 3, 52, 88
6, 8850, Note_on_c, 3, 52, 0
6, 8850, Note_on_c, 3, 54, 88
6, 8880, Note_on_c, 3, 54, 0
6, 8880, Note_on_c, 3, 50, 88
6, 8910, Note_on_c, 3, 50, 0
6, 8910, Note_on_c, 3, 54, 88
6, 8940, Note_on_c, 3, 54, 0
6, 8940, Note_on_c, 3, 52, 88
6, 8970, Note_on_c, 3, 52, 0
6, 8970, Note_on_c, 3, 50, 88
6, 9000, Note_on_c, 3, 50, 0
6, 9000, Note_on_c, 3, 55, 88
6, 9420, Note_on_c, 3, 55, 0
6, 9420, Note_on_c, 3, 54, 88
6, 9450, Note_on_c, 3, 54, 0
6, 9450, Note_on_c, 3, 52, 88
6, 9480, Note_on_c, 3, 52, 0
6, 9480, Note_on_c, 3, 54, 88
6, 9540, Note_on_c, 3, 54, 0
6, 9540, Note_on_c, 3, 55, 88
6, 9570, Note_on_c, 3, 55, 0
6, 9570, Note_on_c, 3, 54, 88
6, 9600, Note_on_c, 3, 54, 0
6, 9600, Note_on_c, 3, 52, 88
6, 9630, Note_on_c, 3, 52, 0
6, 9630, Note_on_c, 3, 50, 88
6, 9660, Note_on_c, 3, 50, 0
6, 9660, Note_on_c, 3, 49, 88
6, 9690, Note_on_c, 3, 49, 0
6, 9690, Note_on_c, 3, 47, 88
6, 9720, Note_on_c, 3, 47, 0
6, 9720, Note_on_c, 3, 45, 88
6, 9780, Note_on_c, 3, 45, 0
6, 9780, Note_on_c, 3, 55, 88
6, 9840, Note_on_c, 3, 55, 0
6, 9840, Note_on_c, 3, 54, 88
6, 9900, Note_on_c, 3, 54, 0
6, 9900, Note_on_c, 3, 59, 88
6, 9960, Note_on_c, 3, 59, 0
6, 9960, Note_on_c, 3, 57, 88
6, 10020, Note_on_c, 3, 57, 0
6, 10020, Note_on_c, 3, 55, 88
6, 10050, Note_on_c, 3, 55, 0
6, 10050, Note_on_c, 3, 54, 88
6, 10080, Note_on_c, 3, 54, 0
6, 10080, Note_on_c, 3, 52, 88
6, 10320, Note_on_c, 3, 52, 0
6, 10440, Note_on_c, 3, 45, 88
6, 10560, Note_on_c, 3, 45, 0
6, 10560, Note_on_c, 3, 52, 88
6, 10680, Note_on_c, 3, 52, 0
6, 10680, Note_on_c, 3, 55, 88
6, 10800, Note_on_c, 3, 55, 0
6, 10800, Note_on_c, 3, 54, 88
6, 10860, Note_on_c, 3, 54, 0
6, 10860, Note_on_c, 3, 52, 88
6, 10890, Note_on_c, 3, 52, 0
6, 10890, Note_on_c, 3, 54, 88
6, 10920, Note_on_c, 3, 54, 0
6, 10920, Note_on_c, 3, 50, 88
6, 10980, Note_on_c, 3, 50, 0
6, 11160, Note_on_c, 3, 47, 88
6, 11280, Note_on_c, 3, 47, 0
6, 11280, Note_on_c, 3, 54, 88
6, 11400, Note_on_c, 3, 54, 0
6, 11400, Note_on_c, 3, 57, 88
6, 11520, Note_on_c, 3, 57, 0
6, 11520, Note_on_c, 3, 56, 88
6, 11580, Note_on_c, 3, 56, 0
6, 11580, Note_on_c, 3, 54, 88
6, 11610, Note_on_c, 3, 54, 0
6, 11610, Note_on_c, 3, 56, 88
6, 11640, Note_on_c, 3, 56, 0
6, 11640, Note_on_c, 3, 52, 88
6, 11700, Note_on_c, 3, 52, 0
6, 11880, Note_on_c, 3, 45, 88
6, 12000, Note_on_c, 3, 45, 0
6, 12000, Note_on_c, 3, 57, 88
6, 12120, Note_on_c, 3, 57, 0
6, 12120, Note_on_c, 3, 56, 88
6, 12240, Note_on_c, 3, 56, 0
6, 12240, Note_on_c, 3, 57, 88
6, 12480, Note_on_c, 3, 57, 0
6, 12600, Note_on_c, 3, 56, 88
6, 12690, Note_on_c, 3, 56, 0
6, 12690, Note_on_c, 3, 57, 88
6, 12705, Note_on_c, 3, 57, 0
6, 12705, Note_on_c, 3, 59, 88
6, 12720, Note_on_c, 3, 59, 0
6, 12720, Note_on_c, 3, 50, 88
6, 12780, Note_on_c, 3, 50, 0
6, 12780, Note_on_c, 3, 49, 88
6, 12840, Note_on_c, 3, 49, 0
6, 12840, Note_on_c, 3, 49, 88
6, 12900, Note_on_c, 3, 49, 0
6, 12900, Note_on_c, 3, 52, 88
6, 12960, Note_on_c, 3, 52, 0
6, 12960, Note_on_c, 3, 56, 88
6, 12990, Note_on_c, 3, 56, 0
6, 12990, Note_on_c, 3, 54, 88
6, 13020, Note_on_c, 3, 54, 0
6, 13020, Note_on_c, 3, 52, 88
6, 13080, Note_on_c, 3, 52, 0
6, 13080, Note_on_c, 3, 52, 88
6, 13200, Note_on_c, 3, 52, 0
6, 13380, Note_on_c, 3, 52, 88
6, 13440, Note_on_c, 3, 52, 0
6, 13440, Note_on_c, 3, 54, 88
6, 13500, Note_on_c, 3, 54, 0
6, 13500, Note_on_c, 3, 52, 88
6, 13560, Note_on_c, 3, 52, 0
6, 13560, Note_on_c, 3, 51, 88
6, 13590, Note_on_c, 3, 51, 0
6, 13590, Note_on_c, 3, 52, 88
6, 13620, Note_on_c, 3, 52, 0
6, 13620, Note_on_c, 3, 49, 88
6, 13650, Note_on_c, 3, 49, 0
6, 13650, Note_on_c, 3, 51, 88
6, 13680, Note_on_c, 3, 51, 0
6, 13680, Note_on_c, 3, 52, 88
6, 13740, Note_on_c, 3, 52, 0
6, 13740, Note_on_c, 3, 47, 88
6, 13800, Note_on_c, 3, 47, 0
6, 13800, Note_on_c, 3, 52, 88
6, 13860, Note_on_c, 3, 52, 0
6, 13860, Note_on_c, 3, 50, 88
6, 13920, Note_on_c, 3, 50, 0
6, 13920, Note_on_c, 3, 49, 88
6, 14100, Note_on_c, 3, 49, 0
6, 14100, Note_on_c, 3, 54, 88
6, 14130, Note_on_c, 3, 54, 0
6, 14130, Note_on_c, 3, 52, 88
6, 14160, Note_on_c, 3, 52, 0
6, 14160, Note_on_c, 3, 50, 88
6, 14190, Note_on_c, 3, 50, 0
6, 14190, Note_on_c, 3, 52, 88
6, 14220, Note_on_c, 3, 52, 0
6, 14220, Note_on_c, 3, 49, 88
6, 14250, Note_on_c, 3, 49, 0
6, 14250, Note_on_c, 3, 50, 88
6, 14280, Note_on_c, 3, 50, 0
6, 14280, Note_on_c, 3, 47, 88
6, 14310, Note_on_c, 3, 47, 0
6, 14310, Note_on_c, 3, 50, 88
6, 14340, Note_on_c, 3, 50, 0
6, 14340, Note_on_c, 3, 49, 88
6, 14370, Note_on_c, 3, 49, 0
6, 14370, Note_on_c, 3, 47, 88
6, 14400, Note_on_c, 3, 47, 0
6, 14400, Note_on_c, 3, 52, 88
6, 14490, Note_on_c, 3, 52, 0
6, 14490, Note_on_c, 3, 52, 88
6, 14520, Note_on_c, 3, 52, 0
6, 14520, Note_on_c, 3, 45, 88
6, 14760, Note_on_c, 3, 45, 0
6, 14820, Note_on_c, 3, 57, 88
6, 14850, Note_on_c, 3, 57, 0
6, 14850, Note_on_c, 3, 55, 88
6, 14880, Note_on_c, 3, 55, 0
6, 14880, Note_on_c, 3, 54, 88
6, 14910, Note_on_c, 3, 54, 0
6, 14910, Note_on_c, 3, 55, 88
6, 14940, Note_on_c, 3, 55, 0
6, 14940, Note_on_c, 3, 52, 88
6, 14970, Note_on_c, 3, 52, 0
6, 14970, Note_on_c, 3, 54, 88
6, 15000, Note_on_c, 3, 54, 0
6, 15000, Note_on_c, 3, 50, 88
6, 15030, Note_on_c, 3, 50, 0
6, 15030, Note_on_c, 3, 52, 88
6, 15060, Note_on_c, 3, 52, 0
6, 15060, Note_on_c, 3, 49, 88
6, 15090, Note_on_c, 3, 49, 0
6, 15090, Note_on_c, 3, 50, 88
6, 15120, Note_on_c, 3, 50, 0
6, 15120, Note_on_c, 3, 47, 88
6, 15150, Note_on_c, 3, 47, 0
6, 15150, Note_on_c, 3, 49, 88
6, 15180, Note_on_c, 3, 49, 0
6, 15180, Note_on_c, 3, 50, 88
6, 15300, Note_on_c, 3, 50, 0
6, 15300, Note_on_c, 3, 47, 88
6, 15360, Note_on_c, 3, 47, 0
6, 15360, Note_on_c, 3, 52, 88
6, 15420, Note_on_c, 3, 52, 0
6, 15420, Note_on_c, 3, 50, 88
6, 15480, Note_on_c, 3, 50, 0
6, 15480, Note_on_c, 3, 49, 88
6, 15510, Note_on_c, 3, 49, 0
6, 15510, Note_on_c, 3, 50, 88
6, 15540, Note_on_c, 3, 50, 0
6, 15540, Note_on_c, 3, 47, 88
6, 15570, Note_on_c, 3, 47, 0
6, 15570, Note_on_c, 3, 49, 88
6, 15600, Note_on_c, 3, 49, 0
6, 15600, Note_on_c, 3, 45, 88
6, 15690, Note_on_c, 3, 45, 0
6, 15690, Note_on_c, 3, 47, 88
6, 15720, Note_on_c, 3, 47, 0
6, 15720, Note_on_c, 3, 49, 88
6, 15735, Note_on_c, 3, 49, 0
6, 15735, Note_on_c, 3, 47, 88
6, 15750, Note_on_c, 3, 47, 0
6, 15750, Note_on_c, 3, 49, 88
6, 15765, Note_on_c, 3, 49, 0
6, 15765, Note_on_c, 3, 47, 88
6, 15780, Note_on_c, 3, 47, 0
6, 15780, Note_on_c, 3, 49, 88
6, 15795, Note_on_c, 3, 49, 0
6, 15795, Note_on_c, 3, 47, 88
6, 15810, Note_on_c, 3, 47, 0
6, 15810, Note_on_c, 3, 45, 88
6, 15840, Note_on_c, 3, 45, 0
6, 15840, Note_on_c, 3, 45, 88
6, 15900, Note_on_c, 3, 45, 0
6, 15900, Note_on_c, 3, 50, 88
6, 15915, Note_on_c, 3, 50, 0
6, 15915, Note_on_c, 3, 49, 88
6, 15930, Note_on_c, 3, 49, 0
6, 15930, Note_on_c, 3, 47, 88
6, 15960, Note_on_c, 3, 47, 0
6, 15960, Note_on_c, 3, 49, 88
6, 16020, Note_on_c, 3, 49, 0
6, 16020, Note_on_c, 3, 54, 88
6, 16050, Note_on_c, 3, 54, 0
6, 16050, Note_on_c, 3, 50, 88
6, 16080, Note_on_c, 3, 50, 0
6, 16080, Note_on_c, 3, 47, 88
6, 16140, Note_on_c, 3, 47, 0
6, 16140, Note_on_c, 3, 56, 88
6, 16200, Note_on_c, 3, 56, 0
6, 16200, Note_on_c, 3, 57, 88
6, 16440, Note_on_c, 3, 57, 0
6, 19080, Note_on_c, 3, 45, 88
6, 19200, Note_on_c, 3, 45, 0
6, 19200, Note_on_c, 3, 52, 88
6, 19260, Note_on_c, 3, 52, 0
6, 19260, Note_on_c, 3, 52, 88
6, 19290, Note_on_c, 3, 52, 0
6, 19290, Note_on_c, 3, 50, 88
6, 19320, Note_on_c, 3, 50, 0
6, 19320, Note_on_c, 3, 52, 88
6, 19380, Note_on_c, 3, 52, 0
6, 19380, Note_on_c, 3, 54, 88
6, 19440, Note_on_c, 3, 54, 0
6, 19440, Note_on_c, 3, 55, 88
6, 19500, Note_on_c, 3, 55, 0
6, 19500, Note_on_c, 3, 55, 88
6, 19530, Note_on_c, 3, 55, 0
6, 19530, Note_on_c, 3, 54, 88
6, 19560, Note_on_c, 3, 54, 0
6, 19560, Note_on_c, 3, 55, 88
6, 19680, Note_on_c, 3, 55, 0
6, 19800, Note_on_c, 3, 54, 88
6, 19860, Note_on_c, 3, 54, 0
6, 19860, Note_on_c, 3, 57, 88
6, 19920, Note_on_c, 3, 57, 0
6, 19920, Note_on_c, 3, 60, 88
6, 19980, Note_on_c, 3, 60, 0
6, 19980, Note_on_c, 3, 57, 88
6, 20040, Note_on_c, 3, 57, 0
6, 20040, Note_on_c, 3, 59, 88
6, 20100, Note_on_c, 3, 59, 0
6, 20100, Note_on_c, 3, 52, 88
6, 20160, Note_on_c, 3, 52, 0
6, 20160, Note_on_c, 3, 51, 88
6, 20280, Note_on_c, 3, 51, 0
6, 20280, Note_on_c, 3, 49, 88
6, 20340, Note_on_c, 3, 49, 0
6, 20340, Note_on_c, 3, 47, 88
6, 20400, Note_on_c, 3, 47, 0
6, 20400, Note_on_c, 3, 57, 88
6, 20520, Note_on_c, 3, 57, 0
6, 20580, Note_on_c, 3, 47, 88
6, 20640, Note_on_c, 3, 47, 0
6, 20640, Note_on_c, 3, 55, 88
6, 20670, Note_on_c, 3, 55, 0
6, 20670, Note_on_c, 3, 54, 88
6, 20700, Note_on_c, 3, 54, 0
6, 20700, Note_on_c, 3, 55, 88
6, 20760, Note_on_c, 3, 55, 0
6, 20820, Note_on_c, 3, 61, 88
6, 20880, Note_on_c, 3, 61, 0
6, 20880, Note_on_c, 3, 61, 88
6, 20940, Note_on_c, 3, 61, 0
6, 20940, Note_on_c, 3, 54, 88
6, 21000, Note_on_c, 3, 54, 0
6, 21000, Note_on_c, 3, 59, 88
6, 21120, Note_on_c, 3, 59, 0
6, 21180, Note_on_c, 3, 47, 88
6, 21240, Note_on_c, 3, 47, 0
6, 21240, Note_on_c, 3, 52, 88
6, 21270, Note_on_c, 3, 52, 0
6, 21270, Note_on_c, 3, 50, 88
6, 21300, Note_on_c, 3, 50, 0
6, 21300, Note_on_c, 3, 52, 88
6, 21360, Note_on_c, 3, 52, 0
6, 21420, Note_on_c, 3, 61, 88
6, 21480, Note_on_c, 3, 61, 0
6, 21480, Note_on_c, 3, 62, 88
6, 21540, Note_on_c, 3, 62, 0
6, 21540, Note_on_c, 3, 64, 88
6, 21600, Note_on_c, 3, 64, 0
6, 21600, Note_on_c, 3, 58, 88
6, 21630, Note_on_c, 3, 58, 0
6, 21630, Note_on_c, 3, 59, 88
6, 21660, Note_on_c, 3, 59, 0
6, 21660, Note_on_c, 3, 61, 88
6, 21690, Note_on_c, 3, 61, 0
6, 21690, Note_on_c, 3, 58, 88
6, 21720, Note_on_c, 3, 58, 0
6, 21720, Note_on_c, 3, 54, 88
6, 22080, Note_on_c, 3, 54, 0
6, 22080, Note_on_c, 3, 59, 88
6, 22200, Note_on_c, 3, 59, 0
6, 22200, Note_on_c, 3, 58, 88
6, 22320, Note_on_c, 3, 58, 0
6, 22320, Note_on_c, 3, 59, 88
6, 22380, Note_on_c, 3, 59, 0
6, 22380, Note_on_c, 3, 55, 88
6, 22440, Note_on_c, 3, 55, 0
6, 22440, Note_on_c, 3, 52, 88
6, 22680, Note_on_c, 3, 52, 0
6, 22800, Note_on_c, 3, 55, 88
6, 22950, Note_on_c, 3, 55, 0
6, 22950, Note_on_c, 3, 54, 88
6, 22980, Note_on_c, 3, 54, 0
6, 22980, Note_on_c, 3, 52, 88
6, 23010, Note_on_c, 3, 52, 0
6, 23010, Note_on_c, 3, 50, 88
6, 23040, Note_on_c, 3, 50, 0
6, 23040, Note_on_c, 3, 49, 88
6, 23100, Note_on_c, 3, 49, 0
6, 23100, Note_on_c, 3, 55, 88
6, 23160, Note_on_c, 3, 55, 0
6, 23160, Note_on_c, 3, 54, 88
6, 23220, Note_on_c, 3, 54, 0
6, 23220, Note_on_c, 3, 58, 88
6, 23280, Note_on_c, 3, 58, 0
6, 23280, Note_on_c, 3, 59, 88
6, 23340, Note_on_c, 3, 59, 0
6, 23340, Note_on_c, 3, 61, 88
6, 23400, Note_on_c, 3, 61, 0
6, 23400, Note_on_c, 3, 50, 88
6, 23460, Note_on_c, 3, 50, 0
6, 23460, Note_on_c, 3, 49, 88
6, 23520, Note_on_c, 3, 49, 0
6, 23520, Note_on_c, 3, 47, 88
6, 23580, Note_on_c, 3, 47, 0
6, 23580, Note_on_c, 3, 51, 88
6, 23640, Note_on_c, 3, 51, 0
6, 23640, Note_on_c, 3, 52, 88
6, 23700, Note_on_c, 3, 52, 0
6, 23700, Note_on_c, 3, 55, 88
6, 23760, Note_on_c, 3, 55, 0
6, 23760, Note_on_c, 3, 46, 88
6, 23820, Note_on_c, 3, 46, 0
6, 23820, Note_on_c, 3, 47, 88
6, 23880, Note_on_c, 3, 47, 0
6, 23880, Note_on_c, 3, 50, 88
6, 24000, Note_on_c, 3, 50, 0
6, 24000, Note_on_c, 3, 49, 88
6, 24060, Note_on_c, 3, 49, 0
6, 24060, Note_on_c, 3, 47, 88
6, 24120, Note_on_c, 3, 47, 0
6, 24120, Note_on_c, 3, 47, 88
6, 24360, Note_on_c, 3, 47, 0
6, 27000, Note_on_c, 3, 47, 88
6, 27120, Note_on_c, 3, 47, 0
6, 27120, Note_on_c, 3, 54, 88
6, 27180, Note_on_c, 3, 54, 0
6, 27180, Note_on_c, 3, 54, 88
6, 27210, Note_on_c, 3, 54, 0
6, 27210, Note_on_c, 3, 53, 88
6, 27240, Note_on_c, 3, 53, 0
6, 27240, Note_on_c, 3, 54, 88
6, 27300, Note_on_c, 3, 54, 0
6, 27300, Note_on_c, 3, 56, 88
6, 27360, Note_on_c, 3, 56, 0
6, 27360, Note_on_c, 3, 57, 88
6, 27420, Note_on_c, 3, 57, 0
6, 27420, Note_on_c, 3, 57, 88
6, 27450, Note_on_c, 3, 57, 0
6, 27450, Note_on_c, 3, 56, 88
6, 27480, Note_on_c, 3, 56, 0
6, 27480, Note_on_c, 3, 57, 88
6, 27600, Note_on_c, 3, 57, 0
6, 27780, Note_on_c, 3, 50, 88
6, 27840, Note_on_c, 3, 50, 0
6, 27840, Note_on_c, 3, 62, 88
6, 27930, Note_on_c, 3, 62, 0
6, 27930, Note_on_c, 3, 61, 88
6, 27960, Note_on_c, 3, 61, 0
6, 27960, Note_on_c, 3, 59, 88
6, 27990, Note_on_c, 3, 59, 0
6, 27990, Note_on_c, 3, 57, 88
6, 28020, Note_on_c, 3, 57, 0
6, 28020, Note_on_c, 3, 55, 88
6, 28050, Note_on_c, 3, 55, 0
6, 28050, Note_on_c, 3, 54, 88
6, 28080, Note_on_c, 3, 54, 0
6, 28080, Note_on_c, 3, 53, 88
6, 28200, Note_on_c, 3, 53, 0
6, 28200, Note_on_c, 3, 51, 88
6, 28260, Note_on_c, 3, 51, 0
6, 28260, Note_on_c, 3, 49, 88
6, 28320, Note_on_c, 3, 49, 0
6, 28320, Note_on_c, 3, 59, 88
6, 28440, Note_on_c, 3, 59, 0
6, 28500, Note_on_c, 3, 49, 88
6, 28560, Note_on_c, 3, 49, 0
6, 28560, Note_on_c, 3, 57, 88
6, 28590, Note_on_c, 3, 57, 0
6, 28590, Note_on_c, 3, 56, 88
6, 28620, Note_on_c, 3, 56, 0
6, 28620, Note_on_c, 3, 57, 88
6, 28680, Note_on_c, 3, 57, 0
6, 28740, Note_on_c, 3, 54, 88
6, 28800, Note_on_c, 3, 54, 0
6, 28800, Note_on_c, 3, 62, 88
6, 28860, Note_on_c, 3, 62, 0
6, 28860, Note_on_c, 3, 59, 88
6, 28920, Note_on_c, 3, 59, 0
6, 28920, Note_on_c, 3, 56, 88
6, 29040, Note_on_c, 3, 56, 0
6, 29100, Note_on_c, 3, 57, 88
6, 29160, Note_on_c, 3, 57, 0
6, 29160, Note_on_c, 3, 59, 88
6, 29250, Note_on_c, 3, 59, 0
6, 29250, Note_on_c, 3, 61, 88
6, 29265, Note_on_c, 3, 61, 0
6, 29265, Note_on_c, 3, 62, 88
6, 29280, Note_on_c, 3, 62, 0
6, 29280, Note_on_c, 3, 61, 88
6, 29340, Note_on_c, 3, 61, 0
6, 29340, Note_on_c, 3, 59, 88
6, 29400, Note_on_c, 3, 59, 0
6, 29400, Note_on_c, 3, 64, 88
6, 29460, Note_on_c, 3, 64, 0
6, 29460, Note_on_c, 3, 59, 88
6, 29520, Note_on_c, 3, 59, 0
6, 29520, Note_on_c, 3, 61, 88
6, 29610, Note_on_c, 3, 61, 0
6, 29610, Note_on_c, 3, 59, 88
6, 29640, Note_on_c, 3, 59, 0
6, 29640, Note_on_c, 3, 57, 88
6, 29670, Note_on_c, 3, 57, 0
6, 29670, Note_on_c, 3, 56, 88
6, 29700, Note_on_c, 3, 56, 0
6, 29700, Note_on_c, 3, 54, 88
6, 29730, Note_on_c, 3, 54, 0
6, 29730, Note_on_c, 3, 53, 88
6, 29760, Note_on_c, 3, 53, 0
6, 29760, Note_on_c, 3, 54, 88
6, 29889, Note_on_c, 3, 54, 0
6, 29889, Note_on_c, 3, 55, 88
6, 29900, Note_on_c, 3, 55, 0
6, 29900, Note_on_c, 3, 54, 88
6, 29910, Note_on_c, 3, 54, 0
6, 29910, Note_on_c, 3, 53, 88
6, 29940, Note_on_c, 3, 53, 0
6, 29940, Note_on_c, 3, 54, 88
6, 30000, Note_on_c, 3, 54, 0
6, 30000, Note_on_c, 3, 57, 88
6, 30060, Note_on_c, 3, 57, 0
6, 30060, Note_on_c, 3, 54, 88
6, 30120, Note_on_c, 3, 54, 0
6, 30120, Note_on_c, 3, 53, 88
6, 30180, Note_on_c, 3, 53, 0
6, 30180, Note_on_c, 3, 54, 88
6, 30240, Note_on_c, 3, 54, 0
6, 30240, Note_on_c, 3, 54, 88
6, 30300, Note_on_c, 3, 54, 0
6, 30300, Note_on_c, 3, 50, 88
6, 30360, Note_on_c, 3, 50, 0
6, 30360, Note_on_c, 3, 47, 88
6, 30600, Note_on_c, 3, 47, 0
6, 30720, Note_on_c, 3, 50, 88
6, 30870, Note_on_c, 3, 50, 0
6, 30870, Note_on_c, 3, 49, 88
6, 30900, Note_on_c, 3, 49, 0
6, 30900, Note_on_c, 3, 47, 88
6, 30930, Note_on_c, 3, 47, 0
6, 30930, Note_on_c, 3, 45, 88
6, 30960, Note_on_c, 3, 45, 0
6, 30960, Note_on_c, 3, 44, 88
6, 31020, Note_on_c, 3, 44, 0
6, 31020, Note_on_c, 3, 50, 88
6, 31080, Note_on_c, 3, 50, 0
6, 31080, Note_on_c, 3, 49, 88
6, 31140, Note_on_c, 3, 49, 0
6, 31140, Note_on_c, 3, 53, 88
6, 31200, Note_on_c, 3, 53, 0
6, 31200, Note_on_c, 3, 54, 88
6, 31260, Note_on_c, 3, 54, 0
6, 31260, Note_on_c, 3, 56, 88
6, 31320, Note_on_c, 3, 56, 0
6, 31320, Note_on_c, 3, 57, 88
6, 31380, Note_on_c, 3, 57, 0
6, 31380, Note_on_c, 3, 56, 88
6, 31440, Note_on_c, 3, 56, 0
6, 31440, Note_on_c, 3, 54, 88
6, 31500, Note_on_c, 3, 54, 0
6, 31500, Note_on_c, 3, 58, 88
6, 31560, Note_on_c, 3, 58, 0
6, 31560, Note_on_c, 3, 59, 88
6, 31620, Note_on_c, 3, 59, 0
6, 31620, Note_on_c, 3, 62, 88
6, 31680, Note_on_c, 3, 62, 0
6, 31680, Note_on_c, 3, 61, 88
6, 31740, Note_on_c, 3, 61, 0
6, 31740, Note_on_c, 3, 54, 88
6, 31800, Note_on_c, 3, 54, 0
6, 31800, Note_on_c, 3, 57, 88
6, 31920, Note_on_c, 3, 57, 0
6, 31920, Note_on_c, 3, 56, 88
6, 31980, Note_on_c, 3, 56, 0
6, 31980, Note_on_c, 3, 54, 88
6, 32040, Note_on_c, 3, 54, 0
6, 32040, Note_on_c, 3, 54, 88
6, 32280, Note_on_c, 3, 54, 0
6, 32400, Note_on_c, 3, 50, 88
6, 32520, Note_on_c, 3, 50, 0
6, 32520, Note_on_c, 3, 57, 88
6, 32640, Note_on_c, 3, 57, 0
6, 32640, Note_on_c, 3, 59, 88
6, 32760, Note_on_c, 3, 59, 0
6, 32760, Note_on_c, 3, 49, 88
6, 32880, Note_on_c, 3, 49, 0
6, 32880, Note_on_c, 3, 52, 88
6, 33000, Note_on_c, 3, 52, 0
6, 33000, Note_on_c, 3, 55, 88
6, 33240, Note_on_c, 3, 55, 0
6, 33240, Note_on_c, 3, 54, 88
6, 33360, Note_on_c, 3, 54, 0
6, 33360, Note_on_c, 3, 52, 88
6, 33480, Note_on_c, 3, 52, 0
6, 33480, Note_on_c, 3, 50, 88
6, 33495, Note_on_c, 3, 50, 0
6, 33495, Note_on_c, 3, 49, 88
6, 33510, Note_on_c, 3, 49, 0
6, 33510, Note_on_c, 3, 50, 88
6, 33525, Note_on_c, 3, 50, 0
6, 33525, Note_on_c, 3, 49, 88
6, 33540, Note_on_c, 3, 49, 0
6, 33540, Note_on_c, 3, 50, 88
6, 33555, Note_on_c, 3, 50, 0
6, 33555, Note_on_c, 3, 49, 88
6, 33570, Note_on_c, 3, 49, 0
6, 33570, Note_on_c, 3, 50, 88
6, 33585, Note_on_c, 3, 50, 0
6, 33585, Note_on_c, 3, 49, 88
6, 33600, Note_on_c, 3, 49, 0
6, 33600, Note_on_c, 3, 50, 88
6, 33615, Note_on_c, 3, 50, 0
6, 33615, Note_on_c, 3, 49, 88
6, 33630, Note_on_c, 3, 49, 0
6, 33630, Note_on_c, 3, 50, 88
6, 33645, Note_on_c, 3, 50, 0
6, 33645, Note_on_c, 3, 49, 88
6, 33660, Note_on_c, 3, 49, 0
6, 33660, Note_on_c, 3, 47, 88
6, 33690, Note_on_c, 3, 47, 0
6, 33690, Note_on_c, 3, 49, 88
6, 33720, Note_on_c, 3, 49, 0
6, 33720, Note_on_c, 3, 45, 88
6, 33840, Note_on_c, 3, 45, 0
6, 33900, Note_on_c, 3, 45, 88
6, 33960, Note_on_c, 3, 45, 0
6, 33960, Note_on_c, 3, 47, 88
6, 33990, Note_on_c, 3, 47, 0
6, 33990, Note_on_c, 3, 50, 88
6, 34020, Note_on_c, 3, 50, 0
6, 34020, Note_on_c, 3, 49, 88
6, 34050, Note_on_c, 3, 49, 0
6, 34050, Note_on_c, 3, 52, 88
6, 34080, Note_on_c, 3, 52, 0
6, 34080, Note_on_c, 3, 50, 88
6, 34110, Note_on_c, 3, 50, 0
6, 34110, Note_on_c, 3, 54, 88
6, 34140, Note_on_c, 3, 54, 0
6, 34140, Note_on_c, 3, 52, 88
6, 34170, Note_on_c, 3, 52, 0
6, 34170, Note_on_c, 3, 55, 88
6, 34200, Note_on_c, 3, 55, 0
6, 34200, Note_on_c, 3, 54, 88
6, 34260, Note_on_c, 3, 54, 0
6, 34260, Note_on_c, 3, 52, 88
6, 34320, Note_on_c, 3, 52, 0
6, 34320, Note_on_c, 3, 55, 88
6, 34380, Note_on_c, 3, 55, 0
6, 34380, Note_on_c, 3, 54, 88
6, 34440, Note_on_c, 3, 54, 0
6, 34440, Note_on_c, 3, 52, 88
6, 34500, Note_on_c, 3, 52, 0
6, 34500, Note_on_c, 3, 50, 88
6, 34530, Note_on_c, 3, 50, 0
6, 34530, Note_on_c, 3, 49, 88
6, 34560, Note_on_c, 3, 49, 0
6, 34560, Note_on_c, 3, 50, 88
6, 34620, Note_on_c, 3, 50, 0
6, 34620, Note_on_c, 3, 59, 88
6, 34680, Note_on_c, 3, 59, 0
6, 34680, Note_on_c, 3, 55, 88
6, 34860, Note_on_c, 3, 55, 0
6, 34860, Note_on_c, 3, 54, 88
6, 34920, Note_on_c, 3, 54, 0
6, 34920, Note_on_c, 3, 54, 88
6, 35160, Note_on_c, 3, 54, 0
6, 35340, Note_on_c, 3, 57, 88
6, 35400, Note_on_c, 3, 57, 0
6, 35400, Note_on_c, 3, 59, 88
6, 35460, Note_on_c, 3, 59, 0
6, 35460, Note_on_c, 3, 57, 88
6, 35520, Note_on_c, 3, 57, 0
6, 35520, Note_on_c, 3, 56, 88
6, 35550, Note_on_c, 3, 56, 0
6, 35550, Note_on_c, 3, 57, 88
6, 35580, Note_on_c, 3, 57, 0
6, 35580, Note_on_c, 3, 54, 88
6, 35610, Note_on_c, 3, 54, 0
6, 35610, Note_on_c, 3, 56, 88
6, 35640, Note_on_c, 3, 56, 0
6, 35640, Note_on_c, 3, 57, 88
6, 35760, Note_on_c, 3, 57, 0
6, 35760, Note_on_c, 3, 45, 88
6, 35880, Note_on_c, 3, 45, 0
6, 36060, Note_on_c, 3, 52, 88
6, 36120, Note_on_c, 3, 52, 0
6, 36120, Note_on_c, 3, 57, 88
6, 36180, Note_on_c, 3, 57, 0
6, 36180, Note_on_c, 3, 55, 88
6, 36240, Note_on_c, 3, 55, 0
6, 36240, Note_on_c, 3, 54, 88
6, 36420, Note_on_c, 3, 54, 0
6, 36420, Note_on_c, 3, 59, 88
6, 36450, Note_on_c, 3, 59, 0
6, 36450, Note_on_c, 3, 57, 88
6, 36480, Note_on_c, 3, 57, 0
6, 36480, Note_on_c, 3, 55, 88
6, 36510, Note_on_c, 3, 55, 0
6, 36510, Note_on_c, 3, 57, 88
6, 36540, Note_on_c, 3, 57, 0
6, 36540, Note_on_c, 3, 54, 88
6, 36570, Note_on_c, 3, 54, 0
6, 36570, Note_on_c, 3, 55, 88
6, 36600, Note_on_c, 3, 55, 0
6, 36600, Note_on_c, 3, 52, 88
6, 36630, Note_on_c, 3, 52, 0
6, 36630, Note_on_c, 3, 55, 88
6, 36660, Note_on_c, 3, 55, 0
6, 36660, Note_on_c, 3, 54, 88
6, 36690, Note_on_c, 3, 54, 0
6, 36690, Note_on_c, 3, 52, 88
6, 36720, Note_on_c, 3, 52, 0
6, 36720, Note_on_c, 3, 57, 88
6, 36810, Note_on_c, 3, 57, 0
6, 36810, Note_on_c, 3, 57, 88
6, 36840, Note_on_c, 3, 57, 0
6, 36840, Note_on_c, 3, 50, 88
6, 37080, Note_on_c, 3, 50, 0
6, 37140, Note_on_c, 3, 55, 88
6, 37170, Note_on_c, 3, 55, 0
6, 37170, Note_on_c, 3, 54, 88
6, 37200, Note_on_c, 3, 54, 0
6, 37200, Note_on_c, 3, 52, 88
6, 37230, Note_on_c, 3, 52, 0
6, 37230, Note_on_c, 3, 54, 88
6, 37260, Note_on_c, 3, 54, 0
6, 37260, Note_on_c, 3, 50, 88
6, 37290, Note_on_c, 3, 50, 0
6, 37290, Note_on_c, 3, 52, 88
6, 37320, Note_on_c, 3, 52, 0
6, 37320, Note_on_c, 3, 49, 88
6, 37350, Note_on_c, 3, 49, 0
6, 37350, Note_on_c, 3, 50, 88
6, 37380, Note_on_c, 3, 50, 0
6, 37380, Note_on_c, 3, 47, 88
6, 37410, Note_on_c, 3, 47, 0
6, 37410, Note_on_c, 3, 49, 88
6, 37440, Note_on_c, 3, 49, 0
6, 37440, Note_on_c, 3, 45, 88
6, 37620, Note_on_c, 3, 45, 0
6, 37620, Note_on_c, 3, 47, 88
6, 37650, Note_on_c, 3, 47, 0
6, 37650, Note_on_c, 3, 49, 88
6, 37680, Note_on_c, 3, 49, 0
6, 37680, Note_on_c, 3, 50, 88
6, 37710, Note_on_c, 3, 50, 0
6, 37710, Note_on_c, 3, 52, 88
6, 37740, Note_on_c, 3, 52, 0
6, 37740, Note_on_c, 3, 54, 88
6, 37770, Note_on_c, 3, 54, 0
6, 37770, Note_on_c, 3, 55, 88
6, 37800, Note_on_c, 3, 55, 0
6, 37800, Note_on_c, 3, 57, 88
6, 37860, Note_on_c, 3, 57, 0
6, 37860, Note_on_c, 3, 54, 88
6, 37920, Note_on_c, 3, 54, 0
6, 37920, Note_on_c, 3, 50, 88
6, 37980, Note_on_c, 3, 50, 0
6, 37980, Note_on_c, 3, 59, 88
6, 38040, Note_on_c, 3, 59, 0
6, 38040, Note_on_c, 3, 55, 88
6, 38070, Note_on_c, 3, 55, 0
6, 38070, Note_on_c, 3, 54, 88
6, 38100, Note_on_c, 3, 54, 0
6, 38100, Note_on_c, 3, 55, 88
6, 38160, Note_on_c, 3, 55, 0
6, 38160, Note_on_c, 3, 54, 88
6, 38280, Note_on_c, 3, 54, 0
6, 38580, Note_on_c, 3, 52, 88
6, 38640, Note_on_c, 3, 52, 0
6, 38640, Note_on_c, 3, 54, 88
6, 38700, Note_on_c, 3, 54, 0
6, 38700, Note_on_c, 3, 52, 88
6, 38760, Note_on_c, 3, 52, 0
6, 38760, Note_on_c, 3, 50, 88
6, 38940, Note_on_c, 3, 50, 0
6, 38940, Note_on_c, 3, 47, 88
6, 39000, Note_on_c, 3, 47, 0
6, 39000, Note_on_c, 3, 52, 88
6, 39060, Note_on_c, 3, 52, 0
6, 39060, Note_on_c, 3, 54, 88
6, 39120, Note_on_c, 3, 54, 0
6, 39120, Note_on_c, 3, 55, 88
6, 39270, Note_on_c, 3, 55, 0
6, 39270, Note_on_c, 3, 59, 88
6, 39300, Note_on_c, 3, 59, 0
6, 39300, Note_on_c, 3, 57, 88
6, 39330, Note_on_c, 3, 57, 0
6, 39330, Note_on_c, 3, 55, 88
6, 39360, Note_on_c, 3, 55, 0
6, 39360, Note_on_c, 3, 54, 88
6, 39390, Note_on_c, 3, 54, 0
6, 39390, Note_on_c, 3, 55, 88
6, 39420, Note_on_c, 3, 55, 0
6, 39420, Note_on_c, 3, 52, 88
6, 39450, Note_on_c, 3, 52, 0
6, 39450, Note_on_c, 3, 54, 88
6, 39480, Note_on_c, 3, 54, 0
6, 39480, Note_on_c, 3, 50, 88
6, 39510, Note_on_c, 3, 50, 0
6, 39510, Note_on_c, 3, 52, 88
6, 39540, Note_on_c, 3, 52, 0
6, 39540, Note_on_c, 3, 49, 88
6, 39570, Note_on_c, 3, 49, 0
6, 39570, Note_on_c, 3, 50, 88
6, 39600, Note_on_c, 3, 50, 0
6, 39600, Note_on_c, 3, 47, 88
6, 39630, Note_on_c, 3, 47, 0
6, 39630, Note_on_c, 3, 57, 88
6, 39660, Note_on_c, 3, 57, 0
6, 39660, Note_on_c, 3, 55, 88
6, 39690, Note_on_c, 3, 55, 0
6, 39690, Note_on_c, 3, 54, 88
6, 39720, Note_on_c, 3, 54, 0
6, 39720, Note_on_c, 3, 52, 88
6, 39750, Note_on_c, 3, 52, 0
6, 39750, Note_on_c, 3, 54, 88
6, 39780, Note_on_c, 3, 54, 0
6, 39780, Note_on_c, 3, 50, 88
6, 39810, Note_on_c, 3, 50, 0
6, 39810, Note_on_c, 3, 52, 88
6, 39840, Note_on_c, 3, 52, 0
6, 39840, Note_on_c, 3, 49, 88
6, 39870, Note_on_c, 3, 49, 0
6, 39870, Note_on_c, 3, 50, 88
6, 39900, Note_on_c, 3, 50, 0
6, 39900, Note_on_c, 3, 47, 88
6, 39930, Note_on_c, 3, 47, 0
6, 39930, Note_on_c, 3, 49, 88
6, 39960, Note_on_c, 3, 49, 0
6, 39960, Note_on_c, 3, 45, 88
6, 39990, Note_on_c, 3, 45, 0
6, 39990, Note_on_c, 3, 55, 88
6, 40020, Note_on_c, 3, 55, 0
6, 40020, Note_on_c, 3, 54, 88
6, 40050, Note_on_c, 3, 54, 0
6, 40050, Note_on_c, 3, 52, 88
6, 40080, Note_on_c, 3, 52, 0
6, 40080, Note_on_c, 3, 50, 88
6, 40110, Note_on_c, 3, 50, 0
6, 40110, Note_on_c, 3, 52, 88
6, 40140, Note_on_c, 3, 52, 0
6, 40140, Note_on_c, 3, 48, 88
6, 40170, Note_on_c, 3, 48, 0
6, 40170, Note_on_c, 3, 50, 88
6, 40200, Note_on_c, 3, 50, 0
6, 40200, Note_on_c, 3, 47, 88
6, 40230, Note_on_c, 3, 47, 0
6, 40230, Note_on_c, 3, 48, 88
6, 40260, Note_on_c, 3, 48, 0
6, 40260, Note_on_c, 3, 45, 88
6, 40290, Note_on_c, 3, 45, 0
6, 40290, Note_on_c, 3, 48, 88
6, 40320, Note_on_c, 3, 48, 0
6, 40320, Note_on_c, 3, 47, 88
6, 40380, Note_on_c, 3, 47, 0
6, 40380, Note_on_c, 3, 50, 88
6, 40440, Note_on_c, 3, 50, 0
6, 40440, Note_on_c, 3, 55, 88
6, 40500, Note_on_c, 3, 55, 0
6, 40500, Note_on_c, 3, 57, 88
6, 40560, Note_on_c, 3, 57, 0
6, 40560, Note_on_c, 3, 59, 88
6, 40740, Note_on_c, 3, 59, 0
6, 40740, Note_on_c, 3, 57, 88
6, 40770, Note_on_c, 3, 57, 0
6, 40770, Note_on_c, 3, 55, 88
6, 40800, Note_on_c, 3, 55, 0
6, 40800, Note_on_c, 3, 57, 88
6, 40860, Note_on_c, 3, 57, 0
6, 40860, Note_on_c, 3, 52, 88
6, 40920, Note_on_c, 3, 52, 0
6, 40920, Note_on_c, 3, 54, 88
6, 40980, Note_on_c, 3, 54, 0
6, 40980, Note_on_c, 3, 49, 88
6, 41040, Note_on_c, 3, 49, 0
6, 41040, Note_on_c, 3, 50, 88
6, 41100, Note_on_c, 3, 50, 0
6, 41100, Note_on_c, 3, 55, 88
6, 41160, Note_on_c, 3, 55, 0
6, 41160, Note_on_c, 3, 54, 88
6, 41220, Note_on_c, 3, 54, 0
6, 41220, Note_on_c, 3, 59, 88
6, 41310, Note_on_c, 3, 59, 0
6, 41310, Note_on_c, 3, 57, 88
6, 41340, Note_on_c, 3, 57, 0
6, 41340, Note_on_c, 3, 62, 88
6, 41370, Note_on_c, 3, 62, 0
6, 41370, Note_on_c, 3, 61, 88
6, 41400, Note_on_c, 3, 61, 0
6, 41400, Note_on_c, 3, 62, 88
6, 41460, Note_on_c, 3, 62, 0
6, 41460, Note_on_c, 3, 61, 88
6, 41490, Note_on_c, 3, 61, 0
6, 41490, Note_on_c, 3, 59, 88
6, 41520, Note_on_c, 3, 59, 0
6, 41520, Note_on_c, 3, 57, 88
6, 41580, Note_on_c, 3, 57, 0
6, 41580, Note_on_c, 3, 50, 88
6, 41640, Note_on_c, 3, 50, 0
6, 41640, Note_on_c, 3, 54, 88
6, 41700, Note_on_c, 3, 54, 0
6, 41700, Note_on_c, 3, 54, 88
6, 41709, Note_on_c, 3, 54, 0
6, 41709, Note_on_c, 3, 52, 88
6, 41720, Note_on_c, 3, 52, 0
6, 41720, Note_on_c, 3, 54, 88
6, 41730, Note_on_c, 3, 54, 0
6, 41730, Note_on_c, 3, 52, 88
6, 41739, Note_on_c, 3, 52, 0
6, 41739, Note_on_c, 3, 50, 88
6, 41750, Note_on_c, 3, 50, 0
6, 41750, Note_on_c, 3, 52, 88
6, 41760, Note_on_c, 3, 52, 0
6, 41760, Note_on_c, 3, 50, 88
6, 41880, Note_on_c, 3, 50, 0
6, 46440, End_track
7, 0, Start_track
7, 0, MIDI_port, 0
7, 0, Title_t, "Cello"
7, 0, Program_c, 4, 42
7, 8, Control_c, 4, 11, 90
7, 360, Note_on_c, 4, 50, 75
7, 480, Note_on_c, 4, 50, 0
7, 840, Note_on_c, 4, 38, 75
7, 960, Note_on_c, 4, 38, 0
7, 960, Note_on_c, 4, 50, 75
7, 1115, Note_on_c, 4, 50, 0
7, 1140, Note_on_c, 4, 52, 75
7, 1170, Note_on_c, 4, 52, 0
7, 1170, Note_on_c, 4, 50, 75
7, 1200, Note_on_c, 4, 50, 0
7, 1200, Note_on_c, 4, 49, 75
7, 1235, Note_on_c, 4, 49, 0
7, 1260, Note_on_c, 4, 45, 75
7, 1295, Note_on_c, 4, 45, 0
7, 1320, Note_on_c, 4, 57, 75
7, 1475, Note_on_c, 4, 57, 0
7, 1500, Note_on_c, 4, 45, 75
7, 1530, Note_on_c, 4, 45, 0
7, 1530, Note_on_c, 4, 43, 75
7, 1560, Note_on_c, 4, 43, 0
7, 1560, Note_on_c, 4, 42, 75
7, 1595, Note_on_c, 4, 42, 0
7, 1620, Note_on_c, 4, 43, 75
7, 1655, Note_on_c, 4, 43, 0
7, 1680, Note_on_c, 4, 45, 75
7, 1800, Note_on_c, 4, 45, 0
7, 1800, Note_on_c, 4, 38, 75
7, 1835, Note_on_c, 4, 38, 0
7, 1860, Note_on_c, 4, 50, 75
7, 1890, Note_on_c, 4, 50, 0
7, 1890, Note_on_c, 4, 49, 75
7, 1920, Note_on_c, 4, 49, 0
7, 1920, Note_on_c, 4, 50, 75
7, 1955, Note_on_c, 4, 50, 0
7, 1980, Note_on_c, 4, 47, 75
7, 2015, Note_on_c, 4, 47, 0
7, 2040, Note_on_c, 4, 52, 75
7, 2075, Note_on_c, 4, 52, 0
7, 2100, Note_on_c, 4, 50, 75
7, 2130, Note_on_c, 4, 50, 0
7, 2130, Note_on_c, 4, 52, 75
7, 2160, Note_on_c, 4, 52, 0
7, 2160, Note_on_c, 4, 45, 75
7, 2195, Note_on_c, 4, 45, 0
7, 2220, Note_on_c, 4, 57, 75
7, 2250, Note_on_c, 4, 57, 0
7, 2250, Note_on_c, 4, 55, 75
7, 2280, Note_on_c, 4, 55, 0
7, 2280, Note_on_c, 4, 54, 75
7, 2315, Note_on_c, 4, 54, 0
7, 2340, Note_on_c, 4, 52, 75
7, 2375, Note_on_c, 4, 52, 0
7, 2400, Note_on_c, 4, 50, 75
7, 2435, Note_on_c, 4, 50, 0
7, 2460, Note_on_c, 4, 48, 75
7, 2490, Note_on_c, 4, 48, 0
7, 2490, Note_on_c, 4, 50, 75
7, 2520, Note_on_c, 4, 50, 0
7, 2520, Note_on_c, 4, 43, 75
7, 2640, Note_on_c, 4, 43, 0
7, 2760, Note_on_c, 4, 55, 75
7, 2915, Note_on_c, 4, 55, 0
7, 2940, Note_on_c, 4, 57, 75
7, 2970, Note_on_c, 4, 57, 0
7, 2970, Note_on_c, 4, 55, 75
7, 3000, Note_on_c, 4, 55, 0
7, 3000, Note_on_c, 4, 54, 75
7, 3035, Note_on_c, 4, 54, 0
7, 3060, Note_on_c, 4, 52, 75
7, 3095, Note_on_c, 4, 52, 0
7, 3120, Note_on_c, 4, 50, 75
7, 3155, Note_on_c, 4, 50, 0
7, 3180, Note_on_c, 4, 49, 75
7, 3215, Note_on_c, 4, 49, 0
7, 3240, Note_on_c, 4, 47, 75
7, 3360, Note_on_c, 4, 47, 0
7, 3420, Note_on_c, 4, 47, 75
7, 3455, Note_on_c, 4, 47, 0
7, 3480, Note_on_c, 4, 52, 75
7, 3515, Note_on_c, 4, 52, 0
7, 3540, Note_on_c, 4, 50, 75
7, 3575, Note_on_c, 4, 50, 0
7, 3600, Note_on_c, 4, 49, 75
7, 3635, Note_on_c, 4, 49, 0
7, 3660, Note_on_c, 4, 52, 75
7, 3695, Note_on_c, 4, 52, 0
7, 3720, Note_on_c, 4, 57, 75
7, 3755, Note_on_c, 4, 57, 0
7, 3780, Note_on_c, 4, 55, 75
7, 3815, Note_on_c, 4, 55, 0
7, 3840, Note_on_c, 4, 54, 75
7, 3875, Note_on_c, 4, 54, 0
7, 3900, Note_on_c, 4, 52, 75
7, 3935, Note_on_c, 4, 52, 0
7, 3960, Note_on_c, 4, 50, 75
7, 3995, Note_on_c, 4, 50, 0
7, 4020, Note_on_c, 4, 45, 75
7, 4055, Note_on_c, 4, 45, 0
7, 4080, Note_on_c, 4, 47, 75
7, 4115, Note_on_c, 4, 47, 0
7, 4140, Note_on_c, 4, 43, 75
7, 4175, Note_on_c, 4, 43, 0
7, 4200, Note_on_c, 4, 45, 75
7, 4235, Note_on_c, 4, 45, 0
7, 4260, Note_on_c, 4, 43, 75
7, 4290, Note_on_c, 4, 43, 0
7, 4290, Note_on_c, 4, 45, 75
7, 4320, Note_on_c, 4, 45, 0
7, 4320, Note_on_c, 4, 47, 75
7, 4355, Note_on_c, 4, 47, 0
7, 4380, Note_on_c, 4, 49, 75
7, 4415, Note_on_c, 4, 49, 0
7, 4440, Note_on_c, 4, 50, 75
7, 4475, Note_on_c, 4, 50, 0
7, 4500, Note_on_c, 4, 55, 75
7, 4535, Note_on_c, 4, 55, 0
7, 4560, Note_on_c, 4, 57, 75
7, 4595, Note_on_c, 4, 57, 0
7, 4620, Note_on_c, 4, 45, 75
7, 4655, Note_on_c, 4, 45, 0
7, 4680, Note_on_c, 4, 38, 75
7, 4800, Note_on_c, 4, 38, 0
7, 4800, Note_on_c, 4, 50, 75
7, 4920, Note_on_c, 4, 50, 0
7, 4920, Note_on_c, 4, 43, 49
7, 5075, Note_on_c, 4, 43, 0
7, 5100, Note_on_c, 4, 45, 49
7, 5130, Note_on_c, 4, 45, 0
7, 5130, Note_on_c, 4, 47, 49
7, 5160, Note_on_c, 4, 47, 0
7, 5160, Note_on_c, 4, 45, 49
7, 5195, Note_on_c, 4, 45, 0
7, 5220, Note_on_c, 4, 43, 49
7, 5255, Note_on_c, 4, 43, 0
7, 5280, Note_on_c, 4, 42, 49
7, 5315, Note_on_c, 4, 42, 0
7, 5340, Note_on_c, 4, 45, 49
7, 5375, Note_on_c, 4, 45, 0
7, 5400, Note_on_c, 4, 50, 49
7, 5435, Note_on_c, 4, 50, 0
7, 5460, Note_on_c, 4, 38, 49
7, 5490, Note_on_c, 4, 38, 0
7, 5490, Note_on_c, 4, 37, 49
7, 5520, Note_on_c, 4, 37, 0
7, 5520, Note_on_c, 4, 38, 49
7, 5555, Note_on_c, 4, 38, 0
7, 5580, Note_on_c, 4, 40, 49
7, 5610, Note_on_c, 4, 40, 0
7, 5610, Note_on_c, 4, 42, 49
7, 5640, Note_on_c, 4, 42, 0
7, 5640, Note_on_c, 4, 43, 49
7, 5675, Note_on_c, 4, 43, 0
7, 5700, Note_on_c, 4, 42, 49
7, 5730, Note_on_c, 4, 42, 0
7, 5730, Note_on_c, 4, 43, 49
7, 5760, Note_on_c, 4, 43, 0
7, 5760, Note_on_c, 4, 45, 49
7, 5880, Note_on_c, 4, 45, 0
7, 5940, Note_on_c, 4, 50, 49
7, 5975, Note_on_c, 4, 50, 0
7, 6000, Note_on_c, 4, 50, 49
7, 6035, Note_on_c, 4, 50, 0
7, 6060, Note_on_c, 4, 52, 49
7, 6090, Note_on_c, 4, 52, 0
7, 6090, Note_on_c, 4, 50, 49
7, 6120, Note_on_c, 4, 50, 0
7, 6120, Note_on_c, 4, 49, 49
7, 6155, Note_on_c, 4, 49, 0
7, 6180, Note_on_c, 4, 50, 49
7, 6210, Note_on_c, 4, 50, 0
7, 6210, Note_on_c, 4, 49, 49
7, 6240, Note_on_c, 4, 49, 0
7, 6240, Note_on_c, 4, 47, 49
7, 6275, Note_on_c, 4, 47, 0
7, 6300, Note_on_c, 4, 49, 49
7, 6330, Note_on_c, 4, 49, 0
7, 6330, Note_on_c, 4, 47, 49
7, 6360, Note_on_c, 4, 47, 0
7, 6360, Note_on_c, 4, 45, 49
7, 6395, Note_on_c, 4, 45, 0
7, 6540, Note_on_c, 4, 38, 49
7, 6575, Note_on_c, 4, 38, 0
7, 6600, Note_on_c, 4, 40, 49
7, 6635, Note_on_c, 4, 40, 0
7, 6660, Note_on_c, 4, 42, 49
7, 6695, Note_on_c, 4, 42, 0
7, 6720, Note_on_c, 4, 43, 49
7, 6755, Note_on_c, 4, 43, 0
7, 6780, Note_on_c, 4, 45, 49
7, 6815, Note_on_c, 4, 45, 0
7, 6840, Note_on_c, 4, 47, 49
7, 6875, Note_on_c, 4, 47, 0
7, 6900, Note_on_c, 4, 43, 49
7, 6935, Note_on_c, 4, 43, 0
7, 6960, Note_on_c, 4, 40, 49
7, 6995, Note_on_c, 4, 40, 0
7, 7020, Note_on_c, 4, 42, 49
7, 7050, Note_on_c, 4, 42, 0
7, 7050, Note_on_c, 4, 43, 49
7, 7080, Note_on_c, 4, 43, 0
7, 7080, Note_on_c, 4, 45, 49
7, 7115, Note_on_c, 4, 45, 0
7, 7140, Note_on_c, 4, 45, 49
7, 7175, Note_on_c, 4, 45, 0
7, 7200, Note_on_c, 4, 38, 49
7, 7320, Note_on_c, 4, 38, 0
7, 7620, Note_on_c, 4, 50, 49
7, 7650, Note_on_c, 4, 50, 0
7, 7650, Note_on_c, 4, 49, 49
7, 7680, Note_on_c, 4, 49, 0
7, 7680, Note_on_c, 4, 50, 49
7, 7715, Note_on_c, 4, 50, 0
7, 7740, Note_on_c, 4, 47, 49
7, 7775, Note_on_c, 4, 47, 0
7, 7800, Note_on_c, 4, 52, 49
7, 7835, Note_on_c, 4, 52, 0
7, 7860, Note_on_c, 4, 50, 49
7, 7890, Note_on_c, 4, 50, 0
7, 7890, Note_on_c, 4, 52, 49
7, 7920, Note_on_c, 4, 52, 0
7, 7920, Note_on_c, 4, 45, 49
7, 7955, Note_on_c, 4, 45, 0
7, 7980, Note_on_c, 4, 57, 49
7, 8010, Note_on_c, 4, 57, 0
7, 8010, Note_on_c, 4, 55, 49
7, 8040, Note_on_c, 4, 55, 0
7, 8040, Note_on_c, 4, 54, 49
7, 8075, Note_on_c, 4, 54, 0
7, 8100, Note_on_c, 4, 52, 49
7, 8135, Note_on_c, 4, 52, 0
7, 8160, Note_on_c, 4, 50, 49
7, 8195, Note_on_c, 4, 50, 0
7, 8220, Note_on_c, 4, 48, 49
7, 8250, Note_on_c, 4, 48, 0
7, 8250, Note_on_c, 4, 50, 49
7, 8280, Note_on_c, 4, 50, 0
7, 8280, Note_on_c, 4, 43, 49
7, 8400, Note_on_c, 4, 43, 0
7, 8520, Note_on_c, 4, 55, 49
7, 8675, Note_on_c, 4, 55, 0
7, 8700, Note_on_c, 4, 54, 49
7, 8730, Note_on_c, 4, 54, 0
7, 8730, Note_on_c, 4, 52, 49
7, 8760, Note_on_c, 4, 52, 0
7, 8760, Note_on_c, 4, 54, 49
7, 8795, Note_on_c, 4, 54, 0
7, 8820, Note_on_c, 4, 47, 49
7, 8855, Note_on_c, 4, 47, 0
7, 8880, Note_on_c, 4, 59, 49
7, 8915, Note_on_c, 4, 59, 0
7, 8940, Note_on_c, 4, 47, 49
7, 8975, Note_on_c, 4, 47, 0
7, 9000, Note_on_c, 4, 52, 49
7, 9035, Note_on_c, 4, 52, 0
7, 9060, Note_on_c, 4, 55, 49
7, 9090, Note_on_c, 4, 55, 0
7, 9090, Note_on_c, 4, 54, 49
7, 9120, Note_on_c, 4, 54, 0
7, 9120, Note_on_c, 4, 52, 49
7, 9155, Note_on_c, 4, 52, 0
7, 9180, Note_on_c, 4, 50, 49
7, 9215, Note_on_c, 4, 50, 0
7, 9240, Note_on_c, 4, 49, 49
7, 9275, Note_on_c, 4, 49, 0
7, 9300, Note_on_c, 4, 47, 49
7, 9335, Note_on_c, 4, 47, 0
7, 9360, Note_on_c, 4, 49, 49
7, 9395, Note_on_c, 4, 49, 0
7, 9420, Note_on_c, 4, 45, 49
7, 9455, Note_on_c, 4, 45, 0
7, 9480, Note_on_c, 4, 50, 49
7, 9515, Note_on_c, 4, 50, 0
7, 9540, Note_on_c, 4, 47, 49
7, 9575, Note_on_c, 4, 47, 0
7, 9600, Note_on_c, 4, 49, 49
7, 9635, Note_on_c, 4, 49, 0
7, 9660, Note_on_c, 4, 50, 49
7, 9695, Note_on_c, 4, 50, 0
7, 9720, Note_on_c, 4, 52, 49
7, 9755, Note_on_c, 4, 52, 0
7, 9780, Note_on_c, 4, 49, 49
7, 9815, Note_on_c, 4, 49, 0
7, 9840, Note_on_c, 4, 50, 49
7, 9875, Note_on_c, 4, 50, 0
7, 9900, Note_on_c, 4, 52, 49
7, 9935, Note_on_c, 4, 52, 0
7, 9960, Note_on_c, 4, 54, 49
7, 9995, Note_on_c, 4, 54, 0
7, 10020, Note_on_c, 4, 55, 49
7, 10055, Note_on_c, 4, 55, 0
7, 10080, Note_on_c, 4, 57, 49
7, 10200, Note_on_c, 4, 57, 0
7, 10260, Note_on_c, 4, 45, 49
7, 10295, Note_on_c, 4, 45, 0
7, 10320, Note_on_c, 4, 42, 49
7, 10355, Note_on_c, 4, 42, 0
7, 10380, Note_on_c, 4, 38, 49
7, 10415, Note_on_c, 4, 38, 0
7, 10440, Note_on_c, 4, 37, 49
7, 10475, Note_on_c, 4, 37, 0
7, 10500, Note_on_c, 4, 49, 49
7, 10530, Note_on_c, 4, 49, 0
7, 10530, Note_on_c, 4, 47, 49
7, 10560, Note_on_c, 4, 47, 0
7, 10560, Note_on_c, 4, 49, 49
7, 10595, Note_on_c, 4, 49, 0
7, 10620, Note_on_c, 4, 52, 49
7, 10655, Note_on_c, 4, 52, 0
7, 10680, Note_on_c, 4, 49, 49
7, 10715, Note_on_c, 4, 49, 0
7, 10740, Note_on_c, 4, 45, 49
7, 10775, Note_on_c, 4, 45, 0
7, 10800, Note_on_c, 4, 50, 49
7, 10920, Note_on_c, 4, 50, 0
7, 10980, Note_on_c, 4, 57, 49
7, 11015, Note_on_c, 4, 57, 0
7, 11040, Note_on_c, 4, 54, 49
7, 11075, Note_on_c, 4, 54, 0
7, 11100, Note_on_c, 4, 50, 49
7, 11135, Note_on_c, 4, 50, 0
7, 11160, Note_on_c, 4, 47, 49
7, 11195, Note_on_c, 4, 47, 0
7, 11220, Note_on_c, 4, 50, 49
7, 11250, Note_on_c, 4, 50, 0
7, 11250, Note_on_c, 4, 49, 49
7, 11280, Note_on_c, 4, 49, 0
7, 11280, Note_on_c, 4, 47, 49
7, 11315, Note_on_c, 4, 47, 0
7, 11340, Note_on_c, 4, 42, 49
7, 11375, Note_on_c, 4, 42, 0
7, 11400, Note_on_c, 4, 38, 49
7, 11435, Note_on_c, 4, 38, 0
7, 11460, Note_on_c, 4, 47, 49
7, 11495, Note_on_c, 4, 47, 0
7, 11520, Note_on_c, 4, 40, 49
7, 11640, Note_on_c, 4, 40, 0
7, 11700, Note_on_c, 4, 50, 49
7, 11735, Note_on_c, 4, 50, 0
7, 11760, Note_on_c, 4, 49, 49
7, 11795, Note_on_c, 4, 49, 0
7, 11820, Note_on_c, 4, 47, 49
7, 11855, Note_on_c, 4, 47, 0
7, 11880, Note_on_c, 4, 45, 49
7, 12000, Note_on_c, 4, 45, 0
7, 12360, Note_on_c, 4, 57, 49
7, 12480, Note_on_c, 4, 57, 0
7, 12480, Note_on_c, 4, 45, 49
7, 12635, Note_on_c, 4, 45, 0
7, 12660, Note_on_c, 4, 47, 49
7, 12690, Note_on_c, 4, 47, 0
7, 12690, Note_on_c, 4, 45, 49
7, 12720, Note_on_c, 4, 45, 0
7, 12720, Note_on_c, 4, 44, 49
7, 12755, Note_on_c, 4, 44, 0
7, 12780, Note_on_c, 4, 40, 49
7, 12815, Note_on_c, 4, 40, 0
7, 12840, Note_on_c, 4, 52, 49
7, 12990, Note_on_c, 4, 52, 0
7, 12990, Note_on_c, 4, 54, 49
7, 13020, Note_on_c, 4, 54, 0
7, 13020, Note_on_c, 4, 52, 49
7, 13050, Note_on_c, 4, 52, 0
7, 13050, Note_on_c, 4, 50, 49
7, 13080, Note_on_c, 4, 50, 0
7, 13080, Note_on_c, 4, 49, 49
7, 13115, Note_on_c, 4, 49, 0
7, 13140, Note_on_c, 4, 50, 49
7, 13175, Note_on_c, 4, 50, 0
7, 13200, Note_on_c, 4, 52, 49
7, 13235, Note_on_c, 4, 52, 0
7, 13260, Note_on_c, 4, 40, 49
7, 13295, Note_on_c, 4, 40, 0
7, 13320, Note_on_c, 4, 45, 49
7, 13355, Note_on_c, 4, 45, 0
7, 13380, Note_on_c, 4, 45, 49
7, 13410, Note_on_c, 4, 45, 0
7, 13410, Note_on_c, 4, 44, 49
7, 13440, Note_on_c, 4, 44, 0
7, 13440, Note_on_c, 4, 45, 49
7, 13475, Note_on_c, 4, 45, 0
7, 13500, Note_on_c, 4, 42, 49
7, 13535, Note_on_c, 4, 42, 0
7, 13560, Note_on_c, 4, 47, 49
7, 13595, Note_on_c, 4, 47, 0
7, 13620, Note_on_c, 4, 45, 49
7, 13650, Note_on_c, 4, 45, 0
7, 13650, Note_on_c, 4, 47, 49
7, 13680, Note_on_c, 4, 47, 0
7, 13680, Note_on_c, 4, 40, 49
7, 13715, Note_on_c, 4, 40, 0
7, 13740, Note_on_c, 4, 52, 49
7, 13770, Note_on_c, 4, 52, 0
7, 13770, Note_on_c, 4, 50, 49
7, 13800, Note_on_c, 4, 50, 0
7, 13800, Note_on_c, 4, 49, 49
7, 13835, Note_on_c, 4, 49, 0
7, 13860, Note_on_c, 4, 47, 49
7, 13895, Note_on_c, 4, 47, 0
7, 13920, Note_on_c, 4, 45, 49
7, 13955, Note_on_c, 4, 45, 0
7, 13980, Note_on_c, 4, 43, 49
7, 14010, Note_on_c, 4, 43, 0
7, 14010, Note_on_c, 4, 45, 49
7, 14040, Note_on_c, 4, 45, 0
7, 14040, Note_on_c, 4, 38, 49
7, 14160, Note_on_c, 4, 38, 0
7, 14280, Note_on_c, 4, 50, 49
7, 14435, Note_on_c, 4, 50, 0
7, 14460, Note_on_c, 4, 52, 49
7, 14490, Note_on_c, 4, 52, 0
7, 14490, Note_on_c, 4, 50, 49
7, 14520, Note_on_c, 4, 50, 0
7, 14520, Note_on_c, 4, 49, 49
7, 14555, Note_on_c, 4, 49, 0
7, 14580, Note_on_c, 4, 47, 49
7, 14615, Note_on_c, 4, 47, 0
7, 14640, Note_on_c, 4, 45, 49
7, 14675, Note_on_c, 4, 45, 0
7, 14700, Note_on_c, 4, 44, 49
7, 14735, Note_on_c, 4, 44, 0
7, 14760, Note_on_c, 4, 42, 49
7, 14880, Note_on_c, 4, 42, 0
7, 14940, Note_on_c, 4, 42, 49
7, 14975, Note_on_c, 4, 42, 0
7, 15000, Note_on_c, 4, 47, 49
7, 15035, Note_on_c, 4, 47, 0
7, 15060, Note_on_c, 4, 45, 49
7, 15095, Note_on_c, 4, 45, 0
7, 15120, Note_on_c, 4, 44, 49
7, 15155, Note_on_c, 4, 44, 0
7, 15180, Note_on_c, 4, 47, 49
7, 15215, Note_on_c, 4, 47, 0
7, 15240, Note_on_c, 4, 52, 49
7, 15275, Note_on_c, 4, 52, 0
7, 15300, Note_on_c, 4, 50, 49
7, 15335, Note_on_c, 4, 50, 0
7, 15360, Note_on_c, 4, 49, 49
7, 15395, Note_on_c, 4, 49, 0
7, 15420, Note_on_c, 4, 47, 49
7, 15455, Note_on_c, 4, 47, 0
7, 15480, Note_on_c, 4, 45, 49
7, 15515, Note_on_c, 4, 45, 0
7, 15540, Note_on_c, 4, 40, 49
7, 15575, Note_on_c, 4, 40, 0
7, 15600, Note_on_c, 4, 42, 49
7, 15635, Note_on_c, 4, 42, 0
7, 15660, Note_on_c, 4, 38, 49
7, 15695, Note_on_c, 4, 38, 0
7, 15720, Note_on_c, 4, 40, 49
7, 15755, Note_on_c, 4, 40, 0
7, 15780, Note_on_c, 4, 52, 49
7, 15815, Note_on_c, 4, 52, 0
7, 15840, Note_on_c, 4, 54, 49
7, 15875, Note_on_c, 4, 54, 0
7, 15900, Note_on_c, 4, 56, 49
7, 15935, Note_on_c, 4, 56, 0
7, 15960, Note_on_c, 4, 57, 49
7, 15995, Note_on_c, 4, 57, 0
7, 16020, Note_on_c, 4, 50, 49
7, 16055, Note_on_c, 4, 50, 0
7, 16080, Note_on_c, 4, 52, 49
7, 16115, Note_on_c, 4, 52, 0
7, 16140, Note_on_c, 4, 40, 49
7, 16175, Note_on_c, 4, 40, 0
7, 16200, Note_on_c, 4, 45, 75
7, 16320, Note_on_c, 4, 45, 0
7, 16680, Note_on_c, 4, 45, 75
7, 16800, Note_on_c, 4, 45, 0
7, 16800, Note_on_c, 4, 57, 75
7, 16955, Note_on_c, 4, 57, 0
7, 16980, Note_on_c, 4, 59, 75
7, 17010, Note_on_c, 4, 59, 0
7, 17010, Note_on_c, 4, 57, 75
7, 17040, Note_on_c, 4, 57, 0
7, 17040, Note_on_c, 4, 56, 75
7, 17075, Note_on_c, 4, 56, 0
7, 17100, Note_on_c, 4, 52, 75
7, 17135, Note_on_c, 4, 52, 0
7, 17160, Note_on_c, 4, 40, 75
7, 17315, Note_on_c, 4, 40, 0
7, 17340, Note_on_c, 4, 52, 75
7, 17370, Note_on_c, 4, 52, 0
7, 17370, Note_on_c, 4, 50, 75
7, 17400, Note_on_c, 4, 50, 0
7, 17400, Note_on_c, 4, 49, 75
7, 17435, Note_on_c, 4, 49, 0
7, 17460, Note_on_c, 4, 50, 75
7, 17495, Note_on_c, 4, 50, 0
7, 17520, Note_on_c, 4, 52, 75
7, 17555, Note_on_c, 4, 52, 0
7, 17580, Note_on_c, 4, 40, 75
7, 17615, Note_on_c, 4, 40, 0
7, 17640, Note_on_c, 4, 45, 75
7, 17675, Note_on_c, 4, 45, 0
7, 17700, Note_on_c, 4, 57, 75
7, 17735, Note_on_c, 4, 57, 0
7, 17820, Note_on_c, 4, 45, 75
7, 17850, Note_on_c, 4, 45, 0
7, 17850, Note_on_c, 4, 47, 75
7, 17880, Note_on_c, 4, 47, 0
7, 17880, Note_on_c, 4, 49, 75
7, 17915, Note_on_c, 4, 49, 0
7, 17940, Note_on_c, 4, 45, 75
7, 17975, Note_on_c, 4, 45, 0
7, 18000, Note_on_c, 4, 50, 75
7, 18035, Note_on_c, 4, 50, 0
7, 18060, Note_on_c, 4, 38, 75
7, 18095, Note_on_c, 4, 38, 0
7, 18180, Note_on_c, 4, 47, 75
7, 18210, Note_on_c, 4, 47, 0
7, 18210, Note_on_c, 4, 49, 75
7, 18240, Note_on_c, 4, 49, 0
7, 18240, Note_on_c, 4, 51, 75
7, 18275, Note_on_c, 4, 51, 0
7, 18300, Note_on_c, 4, 47, 75
7, 18335, Note_on_c, 4, 47, 0
7, 18360, Note_on_c, 4, 52, 75
7, 18395, Note_on_c, 4, 52, 0
7, 18420, Note_on_c, 4, 40, 75
7, 18455, Note_on_c, 4, 40, 0
7, 18540, Note_on_c, 4, 52, 75
7, 18575, Note_on_c, 4, 52, 0
7, 18600, Note_on_c, 4, 44, 75
7, 18635, Note_on_c, 4, 44, 0
7, 18660, Note_on_c, 4, 52, 75
7, 18695, Note_on_c, 4, 52, 0
7, 18720, Note_on_c, 4, 45, 75
7, 18755, Note_on_c, 4, 45, 0
7, 18780, Note_on_c, 4, 47, 75
7, 18815, Note_on_c, 4, 47, 0
7, 18840, Note_on_c, 4, 49, 75
7, 18875, Note_on_c, 4, 49, 0
7, 18900, Note_on_c, 4, 50, 75
7, 18935, Note_on_c, 4, 50, 0
7, 18960, Note_on_c, 4, 52, 75
7, 18995, Note_on_c, 4, 52, 0
7, 19020, Note_on_c, 4, 40, 75
7, 19055, Note_on_c, 4, 40, 0
7, 19080, Note_on_c, 4, 45, 75
7, 19200, Note_on_c, 4, 45, 0
7, 19260, Note_on_c, 4, 45, 49
7, 19295, Note_on_c, 4, 45, 0
7, 19320, Note_on_c, 4, 43, 49
7, 19355, Note_on_c, 4, 43, 0
7, 19380, Note_on_c, 4, 42, 49
7, 19415, Note_on_c, 4, 42, 0
7, 19440, Note_on_c, 4, 40, 49
7, 19560, Note_on_c, 4, 40, 0
7, 19620, Note_on_c, 4, 47, 49
7, 19655, Note_on_c, 4, 47, 0
7, 19680, Note_on_c, 4, 43, 49
7, 19715, Note_on_c, 4, 43, 0
7, 19740, Note_on_c, 4, 40, 49
7, 19775, Note_on_c, 4, 40, 0
7, 19800, Note_on_c, 4, 45, 49
7, 19920, Note_on_c, 4, 45, 0
7, 19980, Note_on_c, 4, 42, 49
7, 20015, Note_on_c, 4, 42, 0
7, 20040, Note_on_c, 4, 43, 49
7, 20075, Note_on_c, 4, 43, 0
7, 20100, Note_on_c, 4, 45, 49
7, 20135, Note_on_c, 4, 45, 0
7, 20160, Note_on_c, 4, 47, 49
7, 20280, Note_on_c, 4, 47, 0
7, 20340, Note_on_c, 4, 47, 49
7, 20375, Note_on_c, 4, 47, 0
7, 20400, Note_on_c, 4, 49, 49
7, 20435, Note_on_c, 4, 49, 0
7, 20460, Note_on_c, 4, 51, 49
7, 20495, Note_on_c, 4, 51, 0
7, 20520, Note_on_c, 4, 52, 49
7, 20640, Note_on_c, 4, 52, 0
7, 20700, Note_on_c, 4, 50, 49
7, 20735, Note_on_c, 4, 50, 0
7, 20760, Note_on_c, 4, 49, 49
7, 20795, Note_on_c, 4, 49, 0
7, 20820, Note_on_c, 4, 45, 49
7, 20855, Note_on_c, 4, 45, 0
7, 20880, Note_on_c, 4, 50, 49
7, 21000, Note_on_c, 4, 50, 0
7, 21060, Note_on_c, 4, 50, 49
7, 21095, Note_on_c, 4, 50, 0
7, 21120, Note_on_c, 4, 47, 49
7, 21155, Note_on_c, 4, 47, 0
7, 21180, Note_on_c, 4, 43, 49
7, 21215, Note_on_c, 4, 43, 0
7, 21240, Note_on_c, 4, 49, 49
7, 21275, Note_on_c, 4, 49, 0
7, 21300, Note_on_c, 4, 42, 49
7, 21335, Note_on_c, 4, 42, 0
7, 21360, Note_on_c, 4, 44, 49
7, 21395, Note_on_c, 4, 44, 0
7, 21420, Note_on_c, 4, 46, 49
7, 21455, Note_on_c, 4, 46, 0
7, 21480, Note_on_c, 4, 47, 49
7, 21515, Note_on_c, 4, 47, 0
7, 21540, Note_on_c, 4, 44, 49
7, 21575, Note_on_c, 4, 44, 0
7, 21600, Note_on_c, 4, 42, 49
7, 21635, Note_on_c, 4, 42, 0
7, 21660, Note_on_c, 4, 49, 49
7, 21695, Note_on_c, 4, 49, 0
7, 21720, Note_on_c, 4, 49, 49
7, 21755, Note_on_c, 4, 49, 0
7, 21780, Note_on_c, 4, 50, 49
7, 21815, Note_on_c, 4, 50, 0
7, 21840, Note_on_c, 4, 52, 49
7, 21875, Note_on_c, 4, 52, 0
7, 21900, Note_on_c, 4, 54, 49
7, 21930, Note_on_c, 4, 54, 0
7, 21930, Note_on_c, 4, 52, 49
7, 21960, Note_on_c, 4, 52, 0
7, 21960, Note_on_c, 4, 50, 49
7, 22080, Note_on_c, 4, 50, 0
7, 22080, Note_on_c, 4, 47, 49
7, 22200, Note_on_c, 4, 47, 0
7, 22440, Note_on_c, 4, 47, 49
7, 22560, Note_on_c, 4, 47, 0
7, 22560, Note_on_c, 4, 59, 49
7, 22715, Note_on_c, 4, 59, 0
7, 22740, Note_on_c, 4, 61, 49
7, 22770, Note_on_c, 4, 61, 0
7, 22770, Note_on_c, 4, 59, 49
7, 22800, Note_on_c, 4, 59, 0
7, 22800, Note_on_c, 4, 58, 49
7, 22920, Note_on_c, 4, 58, 0
7, 23100, Note_on_c, 4, 52, 49
7, 23135, Note_on_c, 4, 52, 0
7, 23160, Note_on_c, 4, 50, 49
7, 23195, Note_on_c, 4, 50, 0
7, 23220, Note_on_c, 4, 54, 49
7, 23255, Note_on_c, 4, 54, 0
7, 23280, Note_on_c, 4, 56, 49
7, 23315, Note_on_c, 4, 56, 0
7, 23340, Note_on_c, 4, 58, 49
7, 23375, Note_on_c, 4, 58, 0
7, 23400, Note_on_c, 4, 59, 49
7, 23435, Note_on_c, 4, 59, 0
7, 23460, Note_on_c, 4, 54, 49
7, 23495, Note_on_c, 4, 54, 0
7, 23520, Note_on_c, 4, 50, 49
7, 23555, Note_on_c, 4, 50, 0
7, 23580, Note_on_c, 4, 47, 49
7, 23615, Note_on_c, 4, 47, 0
7, 23640, Note_on_c, 4, 52, 49
7, 23795, Note_on_c, 4, 52, 0
7, 23820, Note_on_c, 4, 50, 49
7, 23850, Note_on_c, 4, 50, 0
7, 23850, Note_on_c, 4, 52, 49
7, 23880, Note_on_c, 4, 52, 0
7, 23880, Note_on_c, 4, 54, 49
7, 23915, Note_on_c, 4, 54, 0
7, 23940, Note_on_c, 4, 52, 49
7, 23975, Note_on_c, 4, 52, 0
7, 24000, Note_on_c, 4, 54, 49
7, 24035, Note_on_c, 4, 54, 0
7, 24060, Note_on_c, 4, 42, 49
7, 24095, Note_on_c, 4, 42, 0
7, 24120, Note_on_c, 4, 47, 49
7, 24240, Note_on_c, 4, 47, 0
7, 24300, Note_on_c, 4, 47, 75
7, 24335, Note_on_c, 4, 47, 0
7, 24360, Note_on_c, 4, 43, 75
7, 24395, Note_on_c, 4, 43, 0
7, 24420, Note_on_c, 4, 40, 75
7, 24455, Note_on_c, 4, 40, 0
7, 24480, Note_on_c, 4, 45, 75
7, 24600, Note_on_c, 4, 45, 0
7, 24660, Note_on_c, 4, 45, 75
7, 24695, Note_on_c, 4, 45, 0
7, 24720, Note_on_c, 4, 42, 75
7, 24755, Note_on_c, 4, 42, 0
7, 24780, Note_on_c, 4, 38, 75
7, 24815, Note_on_c, 4, 38, 0
7, 24840, Note_on_c, 4, 43, 75
7, 24960, Note_on_c, 4, 43, 0
7, 25080, Note_on_c, 4, 55, 75
7, 25235, Note_on_c, 4, 55, 0
7, 25260, Note_on_c, 4, 57, 75
7, 25290, Note_on_c, 4, 57, 0
7, 25290, Note_on_c, 4, 55, 75
7, 25320, Note_on_c, 4, 55, 0
7, 25320, Note_on_c, 4, 54, 75
7, 25355, Note_on_c, 4, 54, 0
7, 25380, Note_on_c, 4, 52, 75
7, 25415, Note_on_c, 4, 52, 0
7, 25440, Note_on_c, 4, 50, 75
7, 25475, Note_on_c, 4, 50, 0
7, 25500, Note_on_c, 4, 49, 75
7, 25535, Note_on_c, 4, 49, 0
7, 25560, Note_on_c, 4, 47, 75
7, 25595, Note_on_c, 4, 47, 0
7, 25620, Note_on_c, 4, 45, 75
7, 25655, Note_on_c, 4, 45, 0
7, 25680, Note_on_c, 4, 43, 75
7, 25715, Note_on_c, 4, 43, 0
7, 25740, Note_on_c, 4, 42, 75
7, 25775, Note_on_c, 4, 42, 0
7, 25800, Note_on_c, 4, 40, 75
7, 25835, Note_on_c, 4, 40, 0
7, 25860, Note_on_c, 4, 52, 75
7, 25955, Note_on_c, 4, 52, 0
7, 25980, Note_on_c, 4, 54, 75
7, 26010, Note_on_c, 4, 54, 0
7, 26010, Note_on_c, 4, 52, 75
7, 26040, Note_on_c, 4, 52, 0
7, 26040, Note_on_c, 4, 50, 75
7, 26075, Note_on_c, 4, 50, 0
7, 26100, Note_on_c, 4, 47, 75
7, 26135, Note_on_c, 4, 47, 0
7, 26160, Note_on_c, 4, 46, 75
7, 26195, Note_on_c, 4, 46, 0
7, 26220, Note_on_c, 4, 42, 75
7, 26255, Note_on_c, 4, 42, 0
7, 26280, Note_on_c, 4, 47, 75
7, 26315, Note_on_c, 4, 47, 0
7, 26340, Note_on_c, 4, 42, 75
7, 26375, Note_on_c, 4, 42, 0
7, 26400, Note_on_c, 4, 49, 75
7, 26435, Note_on_c, 4, 49, 0
7, 26460, Note_on_c, 4, 42, 75
7, 26495, Note_on_c, 4, 42, 0
7, 26520, Note_on_c, 4, 50, 75
7, 26555, Note_on_c, 4, 50, 0
7, 26580, Note_on_c, 4, 46, 75
7, 26615, Note_on_c, 4, 46, 0
7, 26640, Note_on_c, 4, 47, 75
7, 26675, Note_on_c, 4, 47, 0
7, 26700, Note_on_c, 4, 42, 75
7, 26735, Note_on_c, 4, 42, 0
7, 26760, Note_on_c, 4, 50, 75
7, 26795, Note_on_c, 4, 50, 0
7, 26820, Note_on_c, 4, 47, 75
7, 26855, Note_on_c, 4, 47, 0
7, 26880, Note_on_c, 4, 54, 75
7, 26915, Note_on_c, 4, 54, 0
7, 26940, Note_on_c, 4, 42, 75
7, 26975, Note_on_c, 4, 42, 0
7, 27000, Note_on_c, 4, 47, 49
7, 27120, Note_on_c, 4, 47, 0
7, 27180, Note_on_c, 4, 47, 49
7, 27215, Note_on_c, 4, 47, 0
7, 27240, Note_on_c, 4, 45, 49
7, 27275, Note_on_c, 4, 45, 0
7, 27300, Note_on_c, 4, 44, 49
7, 27335, Note_on_c, 4, 44, 0
7, 27360, Note_on_c, 4, 42, 49
7, 27480, Note_on_c, 4, 42, 0
7, 27540, Note_on_c, 4, 49, 49
7, 27575, Note_on_c, 4, 49, 0
7, 27600, Note_on_c, 4, 45, 49
7, 27635, Note_on_c, 4, 45, 0
7, 27660, Note_on_c, 4, 42, 49
7, 27695, Note_on_c, 4, 42, 0
7, 27720, Note_on_c, 4, 47, 49
7, 27840, Note_on_c, 4, 47, 0
7, 27900, Note_on_c, 4, 47, 49
7, 27935, Note_on_c, 4, 47, 0
7, 27960, Note_on_c, 4, 50, 49
7, 27995, Note_on_c, 4, 50, 0
7, 28020, Note_on_c, 4, 47, 49
7, 28055, Note_on_c, 4, 47, 0
7, 28080, Note_on_c, 4, 49, 49
7, 28200, Note_on_c, 4, 49, 0
7, 28260, Note_on_c, 4, 49, 49
7, 28295, Note_on_c, 4, 49, 0
7, 28320, Note_on_c, 4, 51, 49
7, 28355, Note_on_c, 4, 51, 0
7, 28380, Note_on_c, 4, 53, 49
7, 28415, Note_on_c, 4, 53, 0
7, 28440, Note_on_c, 4, 54, 49
7, 28475, Note_on_c, 4, 54, 0
7, 28500, Note_on_c, 4, 53, 49
7, 28535, Note_on_c, 4, 53, 0
7, 28560, Note_on_c, 4, 54, 49
7, 28595, Note_on_c, 4, 54, 0
7, 28620, Note_on_c, 4, 56, 49
7, 28655, Note_on_c, 4, 56, 0
7, 28680, Note_on_c, 4, 57, 49
7, 28715, Note_on_c, 4, 57, 0
7, 28740, Note_on_c, 4, 45, 49
7, 28835, Note_on_c, 4, 45, 0
7, 28860, Note_on_c, 4, 47, 49
7, 28890, Note_on_c, 4, 47, 0
7, 28890, Note_on_c, 4, 45, 49
7, 28920, Note_on_c, 4, 45, 0
7, 28920, Note_on_c, 4, 47, 49
7, 28955, Note_on_c, 4, 47, 0
7, 28980, Note_on_c, 4, 49, 49
7, 29010, Note_on_c, 4, 49, 0
7, 29010, Note_on_c, 4, 47, 49
7, 29040, Note_on_c, 4, 47, 0
7, 29040, Note_on_c, 4, 45, 49
7, 29075, Note_on_c, 4, 45, 0
7, 29100, Note_on_c, 4, 47, 49
7, 29130, Note_on_c, 4, 47, 0
7, 29130, Note_on_c, 4, 45, 49
7, 29160, Note_on_c, 4, 45, 0
7, 29160, Note_on_c, 4, 44, 49
7, 29195, Note_on_c, 4, 44, 0
7, 29220, Note_on_c, 4, 47, 49
7, 29255, Note_on_c, 4, 47, 0
7, 29280, Note_on_c, 4, 40, 49
7, 29315, Note_on_c, 4, 40, 0
7, 29340, Note_on_c, 4, 42, 49
7, 29375, Note_on_c, 4, 42, 0
7, 29400, Note_on_c, 4, 44, 49
7, 29435, Note_on_c, 4, 44, 0
7, 29460, Note_on_c, 4, 40, 49
7, 29495, Note_on_c, 4, 40, 0
7, 29520, Note_on_c, 4, 45, 49
7, 29555, Note_on_c, 4, 45, 0
7, 29580, Note_on_c, 4, 44, 49
7, 29615, Note_on_c, 4, 44, 0
7, 29640, Note_on_c, 4, 45, 49
7, 29675, Note_on_c, 4, 45, 0
7, 29700, Note_on_c, 4, 49, 49
7, 29735, Note_on_c, 4, 49, 0
7, 29760, Note_on_c, 4, 42, 49
7, 29795, Note_on_c, 4, 42, 0
7, 29820, Note_on_c, 4, 45, 49
7, 29855, Note_on_c, 4, 45, 0
7, 29880, Note_on_c, 4, 50, 49
7, 30000, Note_on_c, 4, 50, 0
7, 30000, Note_on_c, 4, 38, 49
7, 30120, Note_on_c, 4, 38, 0
7, 30360, Note_on_c, 4, 44, 49
7, 30395, Note_on_c, 4, 44, 0
7, 30420, Note_on_c, 4, 45, 49
7, 30455, Note_on_c, 4, 45, 0
7, 30480, Note_on_c, 4, 47, 49
7, 30515, Note_on_c, 4, 47, 0
7, 30540, Note_on_c, 4, 49, 49
7, 30570, Note_on_c, 4, 49, 0
7, 30570, Note_on_c, 4, 50, 49
7, 30600, Note_on_c, 4, 50, 0
7, 30600, Note_on_c, 4, 41, 49
7, 30720, Note_on_c, 4, 41, 0
7, 31020, Note_on_c, 4, 47, 49
7, 31055, Note_on_c, 4, 47, 0
7, 31080, Note_on_c, 4, 45, 49
7, 31115, Note_on_c, 4, 45, 0
7, 31140, Note_on_c, 4, 49, 49
7, 31175, Note_on_c, 4, 49, 0
7, 31200, Note_on_c, 4, 51, 49
7, 31235, Note_on_c, 4, 51, 0
7, 31260, Note_on_c, 4, 53, 49
7, 31295, Note_on_c, 4, 53, 0
7, 31320, Note_on_c, 4, 54, 49
7, 31355, Note_on_c, 4, 54, 0
7, 31380, Note_on_c, 4, 49, 49
7, 31415, Note_on_c, 4, 49, 0
7, 31440, Note_on_c, 4, 46, 49
7, 31475, Note_on_c, 4, 46, 0
7, 31500, Note_on_c, 4, 42, 49
7, 31535, Note_on_c, 4, 42, 0
7, 31560, Note_on_c, 4, 50, 49
7, 31595, Note_on_c, 4, 50, 0
7, 31620, Note_on_c, 4, 47, 49
7, 31655, Note_on_c, 4, 47, 0
7, 31680, Note_on_c, 4, 53, 49
7, 31715, Note_on_c, 4, 53, 0
7, 31740, Note_on_c, 4, 54, 49
7, 31775, Note_on_c, 4, 54, 0
7, 31800, Note_on_c, 4, 49, 49
7, 31920, Note_on_c, 4, 49, 0
7, 31920, Note_on_c, 4, 37, 49
7, 32040, Note_on_c, 4, 37, 0
7, 32040, Note_on_c, 4, 42, 49
7, 32075, Note_on_c, 4, 42, 0
7, 32100, Note_on_c, 4, 54, 49
7, 32130, Note_on_c, 4, 54, 0
7, 32130, Note_on_c, 4, 52, 49
7, 32160, Note_on_c, 4, 52, 0
7, 32160, Note_on_c, 4, 54, 49
7, 32195, Note_on_c, 4, 54, 0
7, 32220, Note_on_c, 4, 55, 49
7, 32250, Note_on_c, 4, 55, 0
7, 32250, Note_on_c, 4, 54, 49
7, 32280, Note_on_c, 4, 54, 0
7, 32280, Note_on_c, 4, 52, 49
7, 32315, Note_on_c, 4, 52, 0
7, 32340, Note_on_c, 4, 54, 49
7, 32370, Note_on_c, 4, 54, 0
7, 32370, Note_on_c, 4, 52, 49
7, 32400, Note_on_c, 4, 52, 0
7, 32400, Note_on_c, 4, 38, 49
7, 32520, Note_on_c, 4, 38, 0
7, 32520, Note_on_c, 4, 50, 49
7, 32640, Note_on_c, 4, 50, 0
7, 32640, Note_on_c, 4, 43, 49
7, 32795, Note_on_c, 4, 43, 0
7, 32820, Note_on_c, 4, 45, 49
7, 32850, Note_on_c, 4, 45, 0
7, 32850, Note_on_c, 4, 47, 49
7, 32880, Note_on_c, 4, 47, 0
7, 32880, Note_on_c, 4, 45, 49
7, 32915, Note_on_c, 4, 45, 0
7, 32940, Note_on_c, 4, 43, 49
7, 32975, Note_on_c, 4, 43, 0
7, 33000, Note_on_c, 4, 42, 49
7, 33035, Note_on_c, 4, 42, 0
7, 33060, Note_on_c, 4, 45, 49
7, 33095, Note_on_c, 4, 45, 0
7, 33120, Note_on_c, 4, 38, 49
7, 33155, Note_on_c, 4, 38, 0
7, 33180, Note_on_c, 4, 50, 49
7, 33210, Note_on_c, 4, 50, 0
7, 33210, Note_on_c, 4, 49, 49
7, 33240, Note_on_c, 4, 49, 0
7, 33240, Note_on_c, 4, 50, 49
7, 33275, Note_on_c, 4, 50, 0
7, 33300, Note_on_c, 4, 52, 49
7, 33330, Note_on_c, 4, 52, 0
7, 33330, Note_on_c, 4, 54, 49
7, 33360, Note_on_c, 4, 54, 0
7, 33360, Note_on_c, 4, 55, 49
7, 33395, Note_on_c, 4, 55, 0
7, 33420, Note_on_c, 4, 54, 49
7, 33450, Note_on_c, 4, 54, 0
7, 33450, Note_on_c, 4, 55, 49
7, 33480, Note_on_c, 4, 55, 0
7, 33480, Note_on_c, 4, 57, 49
7, 33600, Note_on_c, 4, 57, 0
7, 33660, Note_on_c, 4, 50, 49
7, 33695, Note_on_c, 4, 50, 0
7, 33720, Note_on_c, 4, 50, 49
7, 33755, Note_on_c, 4, 50, 0
7, 33780, Note_on_c, 4, 52, 49
7, 33810, Note_on_c, 4, 52, 0
7, 33810, Note_on_c, 4, 50, 49
7, 33840, Note_on_c, 4, 50, 0
7, 33840, Note_on_c, 4, 49, 49
7, 33875, Note_on_c, 4, 49, 0
7, 33900, Note_on_c, 4, 50, 49
7, 33930, Note_on_c, 4, 50, 0
7, 33930, Note_on_c, 4, 49, 49
7, 33960, Note_on_c, 4, 49, 0
7, 33960, Note_on_c, 4, 47, 49
7, 33995, Note_on_c, 4, 47, 0
7, 34020, Note_on_c, 4, 49, 49
7, 34050, Note_on_c, 4, 49, 0
7, 34050, Note_on_c, 4, 47, 49
7, 34080, Note_on_c, 4, 47, 0
7, 34080, Note_on_c, 4, 45, 49
7, 34115, Note_on_c, 4, 45, 0
7, 34260, Note_on_c, 4, 38, 49
7, 34295, Note_on_c, 4, 38, 0
7, 34320, Note_on_c, 4, 40, 49
7, 34355, Note_on_c, 4, 40, 0
7, 34380, Note_on_c, 4, 42, 49
7, 34415, Note_on_c, 4, 42, 0
7, 34440, Note_on_c, 4, 43, 49
7, 34475, Note_on_c, 4, 43, 0
7, 34500, Note_on_c, 4, 45, 49
7, 34535, Note_on_c, 4, 45, 0
7, 34560, Note_on_c, 4, 47, 49
7, 34595, Note_on_c, 4, 47, 0
7, 34620, Note_on_c, 4, 43, 49
7, 34655, Note_on_c, 4, 43, 0
7, 34680, Note_on_c, 4, 40, 49
7, 34715, Note_on_c, 4, 40, 0
7, 34740, Note_on_c, 4, 42, 49
7, 34770, Note_on_c, 4, 42, 0
7, 34770, Note_on_c, 4, 43, 49
7, 34800, Note_on_c, 4, 43, 0
7, 34800, Note_on_c, 4, 45, 49
7, 34835, Note_on_c, 4, 45, 0
7, 34860, Note_on_c, 4, 45, 49
7, 34895, Note_on_c, 4, 45, 0
7, 34920, Note_on_c, 4, 38, 49
7, 35040, Note_on_c, 4, 38, 0
7, 35340, Note_on_c, 4, 50, 49
7, 35370, Note_on_c, 4, 50, 0
7, 35370, Note_on_c, 4, 49, 49
7, 35400, Note_on_c, 4, 49, 0
7, 35400, Note_on_c, 4, 50, 49
7, 35435, Note_on_c, 4, 50, 0
7, 35460, Note_on_c, 4, 47, 49
7, 35495, Note_on_c, 4, 47, 0
7, 35520, Note_on_c, 4, 52, 49
7, 35555, Note_on_c, 4, 52, 0
7, 35580, Note_on_c, 4, 40, 49
7, 35615, Note_on_c, 4, 40, 0
7, 35640, Note_on_c, 4, 45, 49
7, 35760, Note_on_c, 4, 45, 0
7, 35760, Note_on_c, 4, 57, 49
7, 35880, Note_on_c, 4, 57, 0
7, 35880, Note_on_c, 4, 45, 49
7, 36035, Note_on_c, 4, 45, 0
7, 36060, Note_on_c, 4, 57, 49
7, 36090, Note_on_c, 4, 57, 0
7, 36090, Note_on_c, 4, 55, 49
7, 36120, Note_on_c, 4, 55, 0
7, 36120, Note_on_c, 4, 54, 49
7, 36155, Note_on_c, 4, 54, 0
7, 36180, Note_on_c, 4, 52, 49
7, 36215, Note_on_c, 4, 52, 0
7, 36240, Note_on_c, 4, 50, 49
7, 36275, Note_on_c, 4, 50, 0
7, 36300, Note_on_c, 4, 48, 49
7, 36330, Note_on_c, 4, 48, 0
7, 36330, Note_on_c, 4, 50, 49
7, 36360, Note_on_c, 4, 50, 0
7, 36360, Note_on_c, 4, 43, 49
7, 36480, Note_on_c, 4, 43, 0
7, 36600, Note_on_c, 4, 55, 49
7, 36755, Note_on_c, 4, 55, 0
7, 36780, Note_on_c, 4, 54, 49
7, 36810, Note_on_c, 4, 54, 0
7, 36810, Note_on_c, 4, 52, 49
7, 36840, Note_on_c, 4, 52, 0
7, 36840, Note_on_c, 4, 50, 49
7, 36875, Note_on_c, 4, 50, 0
7, 36900, Note_on_c, 4, 49, 49
7, 36935, Note_on_c, 4, 49, 0
7, 36960, Note_on_c, 4, 47, 49
7, 36995, Note_on_c, 4, 47, 0
7, 37020, Note_on_c, 4, 49, 49
7, 37050, Note_on_c, 4, 49, 0
7, 37050, Note_on_c, 4, 50, 49
7, 37080, Note_on_c, 4, 50, 0
7, 37080, Note_on_c, 4, 52, 49
7, 37200, Note_on_c, 4, 52, 0
7, 37260, Note_on_c, 4, 47, 49
7, 37295, Note_on_c, 4, 47, 0
7, 37320, Note_on_c, 4, 40, 49
7, 37355, Note_on_c, 4, 40, 0
7, 37380, Note_on_c, 4, 43, 49
7, 37415, Note_on_c, 4, 43, 0
7, 37440, Note_on_c, 4, 45, 49
7, 37475, Note_on_c, 4, 45, 0
7, 37500, Note_on_c, 4, 43, 49
7, 37535, Note_on_c, 4, 43, 0
7, 37560, Note_on_c, 4, 42, 49
7, 37595, Note_on_c, 4, 42, 0
7, 37620, Note_on_c, 4, 40, 49
7, 37655, Note_on_c, 4, 40, 0
7, 37680, Note_on_c, 4, 38, 49
7, 37715, Note_on_c, 4, 38, 0
7, 37740, Note_on_c, 4, 40, 49
7, 37775, Note_on_c, 4, 40, 0
7, 37800, Note_on_c, 4, 42, 49
7, 37835, Note_on_c, 4, 42, 0
7, 37860, Note_on_c, 4, 45, 49
7, 37895, Note_on_c, 4, 45, 0
7, 37920, Note_on_c, 4, 47, 49
7, 37955, Note_on_c, 4, 47, 0
7, 37980, Note_on_c, 4, 43, 49
7, 38015, Note_on_c, 4, 43, 0
7, 38040, Note_on_c, 4, 40, 49
7, 38075, Note_on_c, 4, 40, 0
7, 38100, Note_on_c, 4, 45, 49
7, 38135, Note_on_c, 4, 45, 0
7, 38160, Note_on_c, 4, 38, 49
7, 38195, Note_on_c, 4, 38, 0
7, 38220, Note_on_c, 4, 50, 49
7, 38250, Note_on_c, 4, 50, 0
7, 38250, Note_on_c, 4, 49, 49
7, 38280, Note_on_c, 4, 49, 0
7, 38280, Note_on_c, 4, 50, 49
7, 38315, Note_on_c, 4, 50, 0
7, 38340, Note_on_c, 4, 47, 49
7, 38375, Note_on_c, 4, 47, 0
7, 38400, Note_on_c, 4, 52, 49
7, 38435, Note_on_c, 4, 52, 0
7, 38460, Note_on_c, 4, 50, 49
7, 38490, Note_on_c, 4, 50, 0
7, 38490, Note_on_c, 4, 52, 49
7, 38520, Note_on_c, 4, 52, 0
7, 38520, Note_on_c, 4, 45, 49
7, 38550, Note_on_c, 4, 45, 0
7, 38550, Note_on_c, 4, 47, 49
7, 38580, Note_on_c, 4, 47, 0
7, 38580, Note_on_c, 4, 45, 49
7, 38610, Note_on_c, 4, 45, 0
7, 38610, Note_on_c, 4, 43, 49
7, 38640, Note_on_c, 4, 43, 0
7, 38640, Note_on_c, 4, 42, 49
7, 38675, Note_on_c, 4, 42, 0
7, 38700, Note_on_c, 4, 45, 49
7, 38735, Note_on_c, 4, 45, 0
7, 38760, Note_on_c, 4, 50, 49
7, 38795, Note_on_c, 4, 50, 0
7, 38820, Note_on_c, 4, 48, 49
7, 38850, Note_on_c, 4, 48, 0
7, 38850, Note_on_c, 4, 50, 49
7, 38880, Note_on_c, 4, 50, 0
7, 38880, Note_on_c, 4, 43, 49
7, 38915, Note_on_c, 4, 43, 0
7, 38940, Note_on_c, 4, 55, 49
7, 38970, Note_on_c, 4, 55, 0
7, 38970, Note_on_c, 4, 54, 49
7, 39000, Note_on_c, 4, 54, 0
7, 39000, Note_on_c, 4, 52, 49
7, 39035, Note_on_c, 4, 52, 0
7, 39060, Note_on_c, 4, 50, 49
7, 39095, Note_on_c, 4, 50, 0
7, 39120, Note_on_c, 4, 49, 49
7, 39155, Note_on_c, 4, 49, 0
7, 39180, Note_on_c, 4, 47, 49
7, 39215, Note_on_c, 4, 47, 0
7, 39240, Note_on_c, 4, 49, 49
7, 39275, Note_on_c, 4, 49, 0
7, 39300, Note_on_c, 4, 45, 49
7, 39335, Note_on_c, 4, 45, 0
7, 39360, Note_on_c, 4, 50, 49
7, 39480, Note_on_c, 4, 50, 0
7, 39540, Note_on_c, 4, 54, 49
7, 39575, Note_on_c, 4, 54, 0
7, 39600, Note_on_c, 4, 50, 49
7, 39635, Note_on_c, 4, 50, 0
7, 39660, Note_on_c, 4, 47, 49
7, 39695, Note_on_c, 4, 47, 0
7, 39720, Note_on_c, 4, 52, 49
7, 39840, Note_on_c, 4, 52, 0
7, 39900, Note_on_c, 4, 50, 49
7, 39935, Note_on_c, 4, 50, 0
7, 39960, Note_on_c, 4, 49, 49
7, 39995, Note_on_c, 4, 49, 0
7, 40020, Note_on_c, 4, 45, 49
7, 40055, Note_on_c, 4, 45, 0
7, 40080, Note_on_c, 4, 50, 49
7, 40200, Note_on_c, 4, 50, 0
7, 40260, Note_on_c, 4, 38, 49
7, 40295, Note_on_c, 4, 38, 0
7, 40320, Note_on_c, 4, 43, 49
7, 40440, Note_on_c, 4, 43, 0
7, 40500, Note_on_c, 4, 42, 49
7, 40535, Note_on_c, 4, 42, 0
7, 40560, Note_on_c, 4, 40, 49
7, 40595, Note_on_c, 4, 40, 0
7, 40620, Note_on_c, 4, 38, 49
7, 40655, Note_on_c, 4, 38, 0
7, 40680, Note_on_c, 4, 37, 49
7, 40715, Note_on_c, 4, 37, 0
7, 40740, Note_on_c, 4, 49, 49
7, 40770, Note_on_c, 4, 49, 0
7, 40770, Note_on_c, 4, 47, 49
7, 40800, Note_on_c, 4, 47, 0
7, 40800, Note_on_c, 4, 45, 49
7, 40835, Note_on_c, 4, 45, 0
7, 40860, Note_on_c, 4, 55, 49
7, 40895, Note_on_c, 4, 55, 0
7, 40920, Note_on_c, 4, 54, 49
7, 40955, Note_on_c, 4, 54, 0
7, 40980, Note_on_c, 4, 52, 49
7, 41015, Note_on_c, 4, 52, 0
7, 41040, Note_on_c, 4, 50, 49
7, 41075, Note_on_c, 4, 50, 0
7, 41100, Note_on_c, 4, 52, 49
7, 41135, Note_on_c, 4, 52, 0
7, 41160, Note_on_c, 4, 54, 49
7, 41195, Note_on_c, 4, 54, 0
7, 41220, Note_on_c, 4, 55, 49
7, 41255, Note_on_c, 4, 55, 0
7, 41280, Note_on_c, 4, 57, 49
7, 41315, Note_on_c, 4, 57, 0
7, 41340, Note_on_c, 4, 45, 49
7, 41375, Note_on_c, 4, 45, 0
7, 41400, Note_on_c, 4, 47, 49
7, 41435, Note_on_c, 4, 47, 0
7, 41460, Note_on_c, 4, 49, 49
7, 41495, Note_on_c, 4, 49, 0
7, 41520, Note_on_c, 4, 50, 49
7, 41555, Note_on_c, 4, 50, 0
7, 41580, Note_on_c, 4, 42, 49
7, 41610, Note_on_c, 4, 42, 0
7, 41610, Note_on_c, 4, 43, 49
7, 41640, Note_on_c, 4, 43, 0
7, 41640, Note_on_c, 4, 45, 49
7, 41675, Note_on_c, 4, 45, 0
7, 41700, Note_on_c, 4, 45, 49
7, 41735, Note_on_c, 4, 45, 0
7, 41760, Note_on_c, 4, 38, 88
7, 41880, Note_on_c, 4, 38, 0
7, 42240, Note_on_c, 4, 38, 88
7, 42360, Note_on_c, 4, 38, 0
7, 42360, Note_on_c, 4, 50, 88
7, 42515, Note_on_c, 4, 50, 0
7, 42540, Note_on_c, 4, 52, 88
7, 42570, Note_on_c, 4, 52, 0
7, 42570, Note_on_c, 4, 50, 88
7, 42600, Note_on_c, 4, 50, 0
7, 42600, Note_on_c, 4, 49, 88
7, 42635, Note_on_c, 4, 49, 0
7, 42660, Note_on_c, 4, 45, 88
7, 42695, Note_on_c, 4, 45, 0
7, 42720, Note_on_c, 4, 57, 88
7, 42875, Note_on_c, 4, 57, 0
7, 42900, Note_on_c, 4, 45, 88
7, 42930, Note_on_c, 4, 45, 0
7, 42930, Note_on_c, 4, 43, 88
7, 42960, Note_on_c, 4, 43, 0
7, 42960, Note_on_c, 4, 42, 88
7, 42995, Note_on_c, 4, 42, 0
7, 43020, Note_on_c, 4, 43, 88
7, 43055, Note_on_c, 4, 43, 0
7, 43080, Note_on_c, 4, 45, 88
7, 43200, Note_on_c, 4, 45, 0
7, 43200, Note_on_c, 4, 38, 88
7, 43235, Note_on_c, 4, 38, 0
7, 43260, Note_on_c, 4, 50, 88
7, 43290, Note_on_c, 4, 50, 0
7, 43290, Note_on_c, 4, 49, 88
7, 43320, Note_on_c, 4, 49, 0
7, 43320, Note_on_c, 4, 50, 88
7, 43355, Note_on_c, 4, 50, 0
7, 43380, Note_on_c, 4, 47, 88
7, 43415, Note_on_c, 4, 47, 0
7, 43440, Note_on_c, 4, 52, 88
7, 43475, Note_on_c, 4, 52, 0
7, 43500, Note_on_c, 4, 50, 88
7, 43530, Note_on_c, 4, 50, 0
7, 43530, Note_on_c, 4, 52, 88
7, 43560, Note_on_c, 4, 52, 0
7, 43560, Note_on_c, 4, 45, 88
7, 43595, Note_on_c, 4, 45, 0
7, 43620, Note_on_c, 4, 57, 88
7, 43650, Note_on_c, 4, 57, 0
7, 43650, Note_on_c, 4, 55, 88
7, 43680, Note_on_c, 4, 55, 0
7, 43680, Note_on_c, 4, 54, 88
7, 43715, Note_on_c, 4, 54, 0
7, 43740, Note_on_c, 4, 52, 88
7, 43775, Note_on_c, 4, 52, 0
7, 43800, Note_on_c, 4, 50, 88
7, 43835, Note_on_c, 4, 50, 0
7, 43860, Note_on_c, 4, 48, 88
7, 43890, Note_on_c, 4, 48, 0
7, 43890, Note_on_c, 4, 50, 88
7, 43920, Note_on_c, 4, 50, 0
7, 43920, Note_on_c, 4, 43, 88
7, 44040, Note_on_c, 4, 43, 0
7, 44160, Note_on_c, 4, 55, 88
7, 44315, Note_on_c, 4, 55, 0
7, 44340, Note_on_c, 4, 57, 88
7, 44370, Note_on_c, 4, 57, 0
7, 44370, Note_on_c, 4, 55, 88
7, 44400, Note_on_c, 4, 55, 0
7, 44400, Note_on_c, 4, 54, 88
7, 44435, Note_on_c, 4, 54, 0
7, 44460, Note_on_c, 4, 52, 88
7, 44495, Note_on_c, 4, 52, 0
7, 44520, Note_on_c, 4, 50, 88
7, 44555, Note_on_c, 4, 50, 0
7, 44580, Note_on_c, 4, 49, 88
7, 44615, Note_on_c, 4, 49, 0
7, 44640, Note_on_c, 4, 47, 88
7, 44760, Note_on_c, 4, 47, 0
7, 44820, Note_on_c, 4, 47, 88
7, 44855, Note_on_c, 4, 47, 0
7, 44880, Note_on_c, 4, 52, 88
7, 44915, Note_on_c, 4, 52, 0
7, 44940, Note_on_c, 4, 50, 88
7, 44975, Note_on_c, 4, 50, 0
7, 45000, Note_on_c, 4, 49, 88
7, 45035, Note_on_c, 4, 49, 0
7, 45060, Note_on_c, 4, 52, 88
7, 45095, Note_on_c, 4, 52, 0
7, 45120, Note_on_c, 4, 57, 88
7, 45155, Note_on_c, 4, 57, 0
7, 45180, Note_on_c, 4, 55, 88
7, 45215, Note_on_c, 4, 55, 0
7, 45240, Note_on_c, 4, 54, 88
7, 45275, Note_on_c, 4, 54, 0
7, 45300, Note_on_c, 4, 52, 88
7, 45335, Note_on_c, 4, 52, 0
7, 45360, Note_on_c, 4, 50, 88
7, 45395, Note_on_c, 4, 50, 0
7, 45420, Note_on_c, 4, 45, 88
7, 45455, Note_on_c, 4, 45, 0
7, 45480, Note_on_c, 4, 47, 88
7, 45515, Note_on_c, 4, 47, 0
7, 45540, Note_on_c, 4, 43, 88
7, 45575, Note_on_c, 4, 43, 0
7, 45600, Note_on_c, 4, 45, 88
7, 45635, Note_on_c, 4, 45, 0
7, 45660, Note_on_c, 4, 43, 88
7, 45690, Note_on_c, 4, 43, 0
7, 45690, Note_on_c, 4, 45, 88
7, 45720, Note_on_c, 4, 45, 0
7, 45720, Note_on_c, 4, 47, 88
7, 45755, Note_on_c, 4, 47, 0
7, 45780, Note_on_c, 4, 49, 88
7, 45815, Note_on_c, 4, 49, 0
7, 45840, Note_on_c, 4, 50, 88
7, 45875, Note_on_c, 4, 50, 0
7, 45900, Note_on_c, 4, 55, 88
7, 45935, Note_on_c, 4, 55, 0
7, 45960, Note_on_c, 4, 57, 88
7, 45995, Note_on_c, 4, 57, 0
7, 46020, Note_on_c, 4, 45, 88
7, 46055, Note_on_c, 4, 45, 0
7, 46080, Note_on_c, 4, 38, 88
7, 46200, Note_on_c, 4, 38, 0
7, 46440, End_track
8, 0, Start_track
8, 0, MIDI_port, 0
8, 0, Title_t, "Continuo"
8, 0, Program_c, 5, 6
8, 8, Control_c, 5, 11, 93
8, 360, Note_on_c, 5, 50, 75
8, 431, Note_on_c, 5, 50, 0
8, 840, Note_on_c, 5, 38, 75
8, 911, Note_on_c, 5, 38, 0
8, 960, Note_on_c, 5, 50, 75
8, 1115, Note_on_c, 5, 50, 0
8, 1140, Note_on_c, 5, 52, 75
8, 1158, Note_on_c, 5, 52, 0
8, 1170, Note_on_c, 5, 50, 75
8, 1188, Note_on_c, 5, 50, 0
8, 1200, Note_on_c, 5, 49, 75
8, 1235, Note_on_c, 5, 49, 0
8, 1260, Note_on_c, 5, 45, 75
8, 1295, Note_on_c, 5, 45, 0
8, 1320, Note_on_c, 5, 57, 75
8, 1475, Note_on_c, 5, 57, 0
8, 1500, Note_on_c, 5, 45, 75
8, 1518, Note_on_c, 5, 45, 0
8, 1530, Note_on_c, 5, 43, 75
8, 1548, Note_on_c, 5, 43, 0
8, 1560, Note_on_c, 5, 42, 75
8, 1595, Note_on_c, 5, 42, 0
8, 1620, Note_on_c, 5, 43, 75
8, 1655, Note_on_c, 5, 43, 0
8, 1680, Note_on_c, 5, 45, 75
8, 1751, Note_on_c, 5, 45, 0
8, 1800, Note_on_c, 5, 38, 75
8, 1835, Note_on_c, 5, 38, 0
8, 1860, Note_on_c, 5, 50, 75
8, 1878, Note_on_c, 5, 50, 0
8, 1890, Note_on_c, 5, 49, 75
8, 1908, Note_on_c, 5, 49, 0
8, 1920, Note_on_c, 5, 50, 75
8, 1955, Note_on_c, 5, 50, 0
8, 1980, Note_on_c, 5, 47, 75
8, 2015, Note_on_c, 5, 47, 0
8, 2040, Note_on_c, 5, 52, 75
8, 2075, Note_on_c, 5, 52, 0
8, 2100, Note_on_c, 5, 50, 75
8, 2118, Note_on_c, 5, 50, 0
8, 2130, Note_on_c, 5, 52, 75
8, 2148, Note_on_c, 5, 52, 0
8, 2160, Note_on_c, 5, 45, 75
8, 2195, Note_on_c, 5, 45, 0
8, 2220, Note_on_c, 5, 57, 75
8, 2238, Note_on_c, 5, 57, 0
8, 2250, Note_on_c, 5, 55, 75
8, 2268, Note_on_c, 5, 55, 0
8, 2280, Note_on_c, 5, 54, 75
8, 2315, Note_on_c, 5, 54, 0
8, 2340, Note_on_c, 5, 52, 75
8, 2375, Note_on_c, 5, 52, 0
8, 2400, Note_on_c, 5, 50, 75
8, 2435, Note_on_c, 5, 50, 0
8, 2460, Note_on_c, 5, 48, 75
8, 2478, Note_on_c, 5, 48, 0
8, 2490, Note_on_c, 5, 50, 75
8, 2508, Note_on_c, 5, 50, 0
8, 2520, Note_on_c, 5, 43, 75
8, 2591, Note_on_c, 5, 43, 0
8, 2760, Note_on_c, 5, 55, 75
8, 2915, Note_on_c, 5, 55, 0
8, 2940, Note_on_c, 5, 57, 75
8, 2958, Note_on_c, 5, 57, 0
8, 2970, Note_on_c, 5, 55, 75
8, 2988, Note_on_c, 5, 55, 0
8, 3000, Note_on_c, 5, 54, 75
8, 3035, Note_on_c, 5, 54, 0
8, 3060, Note_on_c, 5, 52, 75
8, 3095, Note_on_c, 5, 52, 0
8, 3120, Note_on_c, 5, 50, 75
8, 3155, Note_on_c, 5, 50, 0
8, 3180, Note_on_c, 5, 49, 75
8, 3215, Note_on_c, 5, 49, 0
8, 3240, Note_on_c, 5, 47, 75
8, 3311, Note_on_c, 5, 47, 0
8, 3420, Note_on_c, 5, 47, 75
8, 3455, Note_on_c, 5, 47, 0
8, 3480, Note_on_c, 5, 52, 75
8, 3515, Note_on_c, 5, 52, 0
8, 3540, Note_on_c, 5, 50, 75
8, 3575, Note_on_c, 5, 50, 0
8, 3600, Note_on_c, 5, 49, 75
8, 3635, Note_on_c, 5, 49, 0
8, 3660, Note_on_c, 5, 52, 75
8, 3695, Note_on_c, 5, 52, 0
8, 3720, Note_on_c, 5, 57, 75
8, 3755, Note_on_c, 5, 57, 0
8, 3780, Note_on_c, 5, 55, 75
8, 3815, Note_on_c, 5, 55, 0
8, 3840, Note_on_c, 5, 54, 75
8, 3875, Note_on_c, 5, 54, 0
8, 3900, Note_on_c, 5, 52, 75
8, 3935, Note_on_c, 5, 52, 0
8, 3960, Note_on_c, 5, 50, 75
8, 3995, Note_on_c, 5, 50, 0
8, 4020, Note_on_c, 5, 45, 75
8, 4055, Note_on_c, 5, 45, 0
8, 4080, Note_on_c, 5, 47, 75
8, 4115, Note_on_c, 5, 47, 0
8, 4140, Note_on_c, 5, 43, 75
8, 4175, Note_on_c, 5, 43, 0
8, 4200, Note_on_c, 5, 45, 75
8, 4235, Note_on_c, 5, 45, 0
8, 4260, Note_on_c, 5, 43, 75
8, 4278, Note_on_c, 5, 43, 0
8, 4290, Note_on_c, 5, 45, 75
8, 4308, Note_on_c, 5, 45, 0
8, 4320, Note_on_c, 5, 47, 75
8, 4355, Note_on_c, 5, 47, 0
8, 4380, Note_on_c, 5, 49, 75
8, 4415, Note_on_c, 5, 49, 0
8, 4440, Note_on_c, 5, 50, 75
8, 4475, Note_on_c, 5, 50, 0
8, 4500, Note_on_c, 5, 55, 75
8, 4535, Note_on_c, 5, 55, 0
8, 4560, Note_on_c, 5, 57, 75
8, 4595, Note_on_c, 5, 57, 0
8, 4620, Note_on_c, 5, 45, 75
8, 4655, Note_on_c, 5, 45, 0
8, 4680, Note_on_c, 5, 38, 75
8, 4751, Note_on_c, 5, 38, 0
8, 4800, Note_on_c, 5, 50, 75
8, 4871, Note_on_c, 5, 50, 0
8, 4920, Note_on_c, 5, 43, 49
8, 5075, Note_on_c, 5, 43, 0
8, 5100, Note_on_c, 5, 45, 49
8, 5118, Note_on_c, 5, 45, 0
8, 5130, Note_on_c, 5, 47, 49
8, 5148, Note_on_c, 5, 47, 0
8, 5160, Note_on_c, 5, 45, 49
8, 5195, Note_on_c, 5, 45, 0
8, 5220, Note_on_c, 5, 43, 49
8, 5255, Note_on_c, 5, 43, 0
8, 5280, Note_on_c, 5, 42, 49
8, 5315, Note_on_c, 5, 42, 0
8, 5340, Note_on_c, 5, 45, 49
8, 5375, Note_on_c, 5, 45, 0
8, 5400, Note_on_c, 5, 50, 49
8, 5435, Note_on_c, 5, 50, 0
8, 5460, Note_on_c, 5, 38, 49
8, 5478, Note_on_c, 5, 38, 0
8, 5490, Note_on_c, 5, 37, 49
8, 5508, Note_on_c, 5, 37, 0
8, 5520, Note_on_c, 5, 38, 49
8, 5555, Note_on_c, 5, 38, 0
8, 5580, Note_on_c, 5, 40, 49
8, 5598, Note_on_c, 5, 40, 0
8, 5610, Note_on_c, 5, 42, 49
8, 5628, Note_on_c, 5, 42, 0
8, 5640, Note_on_c, 5, 43, 49
8, 5675, Note_on_c, 5, 43, 0
8, 5700, Note_on_c, 5, 42, 49
8, 5718, Note_on_c, 5, 42, 0
8, 5730, Note_on_c, 5, 43, 49
8, 5748, Note_on_c, 5, 43, 0
8, 5760, Note_on_c, 5, 45, 49
8, 5831, Note_on_c, 5, 45, 0
8, 5940, Note_on_c, 5, 50, 49
8, 5975, Note_on_c, 5, 50, 0
8, 6000, Note_on_c, 5, 50, 49
8, 6035, Note_on_c, 5, 50, 0
8, 6060, Note_on_c, 5, 52, 49
8, 6078, Note_on_c, 5, 52, 0
8, 6090, Note_on_c, 5, 50, 49
8, 6108, Note_on_c, 5, 50, 0
8, 6120, Note_on_c, 5, 49, 49
8, 6155, Note_on_c, 5, 49, 0
8, 6180, Note_on_c, 5, 50, 49
8, 6198, Note_on_c, 5, 50, 0
8, 6210, Note_on_c, 5, 49, 49
8, 6228, Note_on_c, 5, 49, 0
8, 6240, Note_on_c, 5, 47, 49
8, 6275, Note_on_c, 5, 47, 0
8, 6300, Note_on_c, 5, 49, 49
8, 6318, Note_on_c, 5, 49, 0
8, 6330, Note_on_c, 5, 47, 49
8, 6348, Note_on_c, 5, 47, 0
8, 6360, Note_on_c, 5, 45, 49
8, 6395, Note_on_c, 5, 45, 0
8, 6540, Note_on_c, 5, 38, 49
8, 6575, Note_on_c, 5, 38, 0
8, 6600, Note_on_c, 5, 40, 49
8, 6635, Note_on_c, 5, 40, 0
8, 6660, Note_on_c, 5, 42, 49
8, 6695, Note_on_c, 5, 42, 0
8, 6720, Note_on_c, 5, 43, 49
8, 6755, Note_on_c, 5, 43, 0
8, 6780, Note_on_c, 5, 45, 49
8, 6815, Note_on_c, 5, 45, 0
8, 6840, Note_on_c, 5, 47, 49
8, 6875, Note_on_c, 5, 47, 0
8, 6900, Note_on_c, 5, 43, 49
8, 6935, Note_on_c, 5, 43, 0
8, 6960, Note_on_c, 5, 40, 49
8, 6995, Note_on_c, 5, 40, 0
8, 7020, Note_on_c, 5, 42, 49
8, 7038, Note_on_c, 5, 42, 0
8, 7050, Note_on_c, 5, 43, 49
8, 7068, Note_on_c, 5, 43, 0
8, 7080, Note_on_c, 5, 45, 49
8, 7115, Note_on_c, 5, 45, 0
8, 7140, Note_on_c, 5, 45, 49
8, 7175, Note_on_c, 5, 45, 0
8, 7200, Note_on_c, 5, 38, 49
8, 7271, Note_on_c, 5, 38, 0
8, 7620, Note_on_c, 5, 50, 49
8, 7638, Note_on_c, 5, 50, 0
8, 7650, Note_on_c, 5, 49, 49
8, 7668, Note_on_c, 5, 49, 0
8, 7680, Note_on_c, 5, 50, 49
8, 7715, Note_on_c, 5, 50, 0
8, 7740, Note_on_c, 5, 47, 49
8, 7775, Note_on_c, 5, 47, 0
8, 7800, Note_on_c, 5, 52, 49
8, 7835, Note_on_c, 5, 52, 0
8, 7860, Note_on_c, 5, 50, 49
8, 7878, Note_on_c, 5, 50, 0
8, 7890, Note_on_c, 5, 52, 49
8, 7908, Note_on_c, 5, 52, 0
8, 7920, Note_on_c, 5, 45, 49
8, 7955, Note_on_c, 5, 45, 0
8, 7980, Note_on_c, 5, 57, 49
8, 7998, Note_on_c, 5, 57, 0
8, 8010, Note_on_c, 5, 55, 49
8, 8028, Note_on_c, 5, 55, 0
8, 8040, Note_on_c, 5, 54, 49
8, 8075, Note_on_c, 5, 54, 0
8, 8100, Note_on_c, 5, 52, 49
8, 8135, Note_on_c, 5, 52, 0
8, 8160, Note_on_c, 5, 50, 49
8, 8195, Note_on_c, 5, 50, 0
8, 8220, Note_on_c, 5, 48, 49
8, 8238, Note_on_c, 5, 48, 0
8, 8250, Note_on_c, 5, 50, 49
8, 8268, Note_on_c, 5, 50, 0
8, 8280, Note_on_c, 5, 43, 49
8, 8351, Note_on_c, 5, 43, 0
8, 8520, Note_on_c, 5, 55, 49
8, 8675, Note_on_c, 5, 55, 0
8, 8700, Note_on_c, 5, 54, 49
8, 8718, Note_on_c, 5, 54, 0
8, 8730, Note_on_c, 5, 52, 49
8, 8748, Note_on_c, 5, 52, 0
8, 8760, Note_on_c, 5, 54, 49
8, 8795, Note_on_c, 5, 54, 0
8, 8820, Note_on_c, 5, 47, 49
8, 8855, Note_on_c, 5, 47, 0
8, 8880, Note_on_c, 5, 59, 49
8, 8915, Note_on_c, 5, 59, 0
8, 8940, Note_on_c, 5, 47, 49
8, 8975, Note_on_c, 5, 47, 0
8, 9000, Note_on_c, 5, 52, 49
8, 9035, Note_on_c, 5, 52, 0
8, 9060, Note_on_c, 5, 55, 49
8, 9078, Note_on_c, 5, 55, 0
8, 9090, Note_on_c, 5, 54, 49
8, 9108, Note_on_c, 5, 54, 0
8, 9120, Note_on_c, 5, 52, 49
8, 9155, Note_on_c, 5, 52, 0
8, 9180, Note_on_c, 5, 50, 49
8, 9215, Note_on_c, 5, 50, 0
8, 9240, Note_on_c, 5, 49, 49
8, 9275, Note_on_c, 5, 49, 0
8, 9300, Note_on_c, 5, 47, 49
8, 9335, Note_on_c, 5, 47, 0
8, 9360, Note_on_c, 5, 49, 49
8, 9395, Note_on_c, 5, 49, 0
8, 9420, Note_on_c, 5, 45, 49
8, 9455, Note_on_c, 5, 45, 0
8, 9480, Note_on_c, 5, 50, 49
8, 9515, Note_on_c, 5, 50, 0
8, 9540, Note_on_c, 5, 47, 49
8, 9575, Note_on_c, 5, 47, 0
8, 9600, Note_on_c, 5, 49, 49
8, 9635, Note_on_c, 5, 49, 0
8, 9660, Note_on_c, 5, 50, 49
8, 9695, Note_on_c, 5, 50, 0
8, 9720, Note_on_c, 5, 52, 49
8, 9755, Note_on_c, 5, 52, 0
8, 9780, Note_on_c, 5, 49, 49
8, 9815, Note_on_c, 5, 49, 0
8, 9840, Note_on_c, 5, 50, 49
8, 9875, Note_on_c, 5, 50, 0
8, 9900, Note_on_c, 5, 52, 49
8, 9935, Note_on_c, 5, 52, 0
8, 9960, Note_on_c, 5, 54, 49
8, 9995, Note_on_c, 5, 54, 0
8, 10020, Note_on_c, 5, 55, 49
8, 10055, Note_on_c, 5, 55, 0
8, 10080, Note_on_c, 5, 57, 49
8, 10151, Note_on_c, 5, 57, 0
8, 10260, Note_on_c, 5, 45, 49
8, 10295, Note_on_c, 5, 45, 0
8, 10320, Note_on_c, 5, 42, 49
8, 10355, Note_on_c, 5, 42, 0
8, 10380, Note_on_c, 5, 38, 49
8, 10415, Note_on_c, 5, 38, 0
8, 10440, Note_on_c, 5, 37, 49
8, 10475, Note_on_c, 5, 37, 0
8, 10500, Note_on_c, 5, 49, 49
8, 10518, Note_on_c, 5, 49, 0
8, 10530, Note_on_c, 5, 47, 49
8, 10548, Note_on_c, 5, 47, 0
8, 10560, Note_on_c, 5, 49, 49
8, 10595, Note_on_c, 5, 49, 0
8, 10620, Note_on_c, 5, 52, 49
8, 10655, Note_on_c, 5, 52, 0
8, 10680, Note_on_c, 5, 49, 49
8, 10715, Note_on_c, 5, 49, 0
8, 10740, Note_on_c, 5, 45, 49
8, 10775, Note_on_c, 5, 45, 0
8, 10800, Note_on_c, 5, 50, 49
8, 10871, Note_on_c, 5, 50, 0
8, 10980, Note_on_c, 5, 57, 49
8, 11015, Note_on_c, 5, 57, 0
8, 11040, Note_on_c, 5, 54, 49
8, 11075, Note_on_c, 5, 54, 0
8, 11100, Note_on_c, 5, 50, 49
8, 11135, Note_on_c, 5, 50, 0
8, 11160, Note_on_c, 5, 47, 49
8, 11195, Note_on_c, 5, 47, 0
8, 11220, Note_on_c, 5, 50, 49
8, 11238, Note_on_c, 5, 50, 0
8, 11250, Note_on_c, 5, 49, 49
8, 11268, Note_on_c, 5, 49, 0
8, 11280, Note_on_c, 5, 47, 49
8, 11315, Note_on_c, 5, 47, 0
8, 11340, Note_on_c, 5, 42, 49
8, 11375, Note_on_c, 5, 42, 0
8, 11400, Note_on_c, 5, 38, 49
8, 11435, Note_on_c, 5, 38, 0
8, 11460, Note_on_c, 5, 47, 49
8, 11495, Note_on_c, 5, 47, 0
8, 11520, Note_on_c, 5, 40, 49
8, 11591, Note_on_c, 5, 40, 0
8, 11700, Note_on_c, 5, 50, 49
8, 11735, Note_on_c, 5, 50, 0
8, 11760, Note_on_c, 5, 49, 49
8, 11795, Note_on_c, 5, 49, 0
8, 11820, Note_on_c, 5, 47, 49
8, 11855, Note_on_c, 5, 47, 0
8, 11880, Note_on_c, 5, 45, 49
8, 11951, Note_on_c, 5, 45, 0
8, 12360, Note_on_c, 5, 57, 49
8, 12431, Note_on_c, 5, 57, 0
8, 12480, Note_on_c, 5, 45, 49
8, 12635, Note_on_c, 5, 45, 0
8, 12660, Note_on_c, 5, 47, 49
8, 12678, Note_on_c, 5, 47, 0
8, 12690, Note_on_c, 5, 45, 49
8, 12708, Note_on_c, 5, 45, 0
8, 12720, Note_on_c, 5, 44, 49
8, 12755, Note_on_c, 5, 44, 0
8, 12780, Note_on_c, 5, 40, 49
8, 12815, Note_on_c, 5, 40, 0
8, 12840, Note_on_c, 5, 52, 49
8, 12978, Note_on_c, 5, 52, 0
8, 12990, Note_on_c, 5, 54, 49
8, 13008, Note_on_c, 5, 54, 0
8, 13020, Note_on_c, 5, 52, 49
8, 13038, Note_on_c, 5, 52, 0
8, 13050, Note_on_c, 5, 50, 49
8, 13068, Note_on_c, 5, 50, 0
8, 13080, Note_on_c, 5, 49, 49
8, 13115, Note_on_c, 5, 49, 0
8, 13140, Note_on_c, 5, 50, 49
8, 13175, Note_on_c, 5, 50, 0
8, 13200, Note_on_c, 5, 52, 49
8, 13235, Note_on_c, 5, 52, 0
8, 13260, Note_on_c, 5, 40, 49
8, 13295, Note_on_c, 5, 40, 0
8, 13320, Note_on_c, 5, 45, 49
8, 13355, Note_on_c, 5, 45, 0
8, 13380, Note_on_c, 5, 45, 49
8, 13398, Note_on_c, 5, 45, 0
8, 13410, Note_on_c, 5, 44, 49
8, 13428, Note_on_c, 5, 44, 0
8, 13440, Note_on_c, 5, 45, 49
8, 13475, Note_on_c, 5, 45, 0
8, 13500, Note_on_c, 5, 42, 49
8, 13535, Note_on_c, 5, 42, 0
8, 13560, Note_on_c, 5, 47, 49
8, 13595, Note_on_c, 5, 47, 0
8, 13620, Note_on_c, 5, 45, 49
8, 13638, Note_on_c, 5, 45, 0
8, 13650, Note_on_c, 5, 47, 49
8, 13668, Note_on_c, 5, 47, 0
8, 13680, Note_on_c, 5, 40, 49
8, 13715, Note_on_c, 5, 40, 0
8, 13740, Note_on_c, 5, 52, 49
8, 13758, Note_on_c, 5, 52, 0
8, 13770, Note_on_c, 5, 50, 49
8, 13788, Note_on_c, 5, 50, 0
8, 13800, Note_on_c, 5, 49, 49
8, 13835, Note_on_c, 5, 49, 0
8, 13860, Note_on_c, 5, 47, 49
8, 13895, Note_on_c, 5, 47, 0
8, 13920, Note_on_c, 5, 45, 49
8, 13955, Note_on_c, 5, 45, 0
8, 13980, Note_on_c, 5, 43, 49
8, 13998, Note_on_c, 5, 43, 0
8, 14010, Note_on_c, 5, 45, 49
8, 14028, Note_on_c, 5, 45, 0
8, 14040, Note_on_c, 5, 38, 49
8, 14111, Note_on_c, 5, 38, 0
8, 14280, Note_on_c, 5, 50, 49
8, 14435, Note_on_c, 5, 50, 0
8, 14460, Note_on_c, 5, 52, 49
8, 14478, Note_on_c, 5, 52, 0
8, 14490, Note_on_c, 5, 50, 49
8, 14508, Note_on_c, 5, 50, 0
8, 14520, Note_on_c, 5, 49, 49
8, 14555, Note_on_c, 5, 49, 0
8, 14580, Note_on_c, 5, 47, 49
8, 14615, Note_on_c, 5, 47, 0
8, 14640, Note_on_c, 5, 45, 49
8, 14675, Note_on_c, 5, 45, 0
8, 14700, Note_on_c, 5, 44, 49
8, 14735, Note_on_c, 5, 44, 0
8, 14760, Note_on_c, 5, 42, 49
8, 14831, Note_on_c, 5, 42, 0
8, 14940, Note_on_c, 5, 42, 49
8, 14975, Note_on_c, 5, 42, 0
8, 15000, Note_on_c, 5, 47, 49
8, 15035, Note_on_c, 5, 47, 0
8, 15060, Note_on_c, 5, 45, 49
8, 15095, Note_on_c, 5, 45, 0
8, 15120, Note_on_c, 5, 44, 49
8, 15155, Note_on_c, 5, 44, 0
8, 15180, Note_on_c, 5, 47, 49
8, 15215, Note_on_c, 5, 47, 0
8, 15240, Note_on_c, 5, 52, 49
8, 15275, Note_on_c, 5, 52, 0
8, 15300, Note_on_c, 5, 50, 49
8, 15335, Note_on_c, 5, 50, 0
8, 15360, Note_on_c, 5, 49, 49
8, 15395, Note_on_c, 5, 49, 0
8, 15420, Note_on_c, 5, 47, 49
8, 15455, Note_on_c, 5, 47, 0
8, 15480, Note_on_c, 5, 45, 49
8, 15515, Note_on_c, 5, 45, 0
8, 15540, Note_on_c, 5, 40, 49
8, 15575, Note_on_c, 5, 40, 0
8, 15600, Note_on_c, 5, 42, 49
8, 15635, Note_on_c, 5, 42, 0
8, 15660, Note_on_c, 5, 38, 49
8, 15695, Note_on_c, 5, 38, 0
8, 15720, Note_on_c, 5, 40, 49
8, 15755, Note_on_c, 5, 40, 0
8, 15780, Note_on_c, 5, 52, 49
8, 15815, Note_on_c, 5, 52, 0
8, 15840, Note_on_c, 5, 54, 49
8, 15875, Note_on_c, 5, 54, 0
8, 15900, Note_on_c, 5, 56, 49
8, 15935, Note_on_c, 5, 56, 0
8, 15960, Note_on_c, 5, 57, 49
8, 15995, Note_on_c, 5, 57, 0
8, 16020, Note_on_c, 5, 50, 49
8, 16055, Note_on_c, 5, 50, 0
8, 16080, Note_on_c, 5, 52, 49
8, 16115, Note_on_c, 5, 52, 0
8, 16140, Note_on_c, 5, 40, 49
8, 16175, Note_on_c, 5, 40, 0
8, 16200, Note_on_c, 5, 45, 75
8, 16271, Note_on_c, 5, 45, 0
8, 16680, Note_on_c, 5, 45, 75
8, 16751, Note_on_c, 5, 45, 0
8, 16800, Note_on_c, 5, 57, 75
8, 16955, Note_on_c, 5, 57, 0
8, 16980, Note_on_c, 5, 59, 75
8, 16998, Note_on_c, 5, 59, 0
8, 17010, Note_on_c, 5, 57, 75
8, 17028, Note_on_c, 5, 57, 0
8, 17040, Note_on_c, 5, 56, 75
8, 17075, Note_on_c, 5, 56, 0
8, 17100, Note_on_c, 5, 52, 75
8, 17135, Note_on_c, 5, 52, 0
8, 17160, Note_on_c, 5, 40, 75
8, 17315, Note_on_c, 5, 40, 0
8, 17340, Note_on_c, 5, 52, 75
8, 17358, Note_on_c, 5, 52, 0
8, 17370, Note_on_c, 5, 50, 75
8, 17388, Note_on_c, 5, 50, 0
8, 17400, Note_on_c, 5, 49, 75
8, 17435, Note_on_c, 5, 49, 0
8, 17460, Note_on_c, 5, 50, 75
8, 17495, Note_on_c, 5, 50, 0
8, 17520, Note_on_c, 5, 52, 75
8, 17555, Note_on_c, 5, 52, 0
8, 17580, Note_on_c, 5, 40, 75
8, 17615, Note_on_c, 5, 40, 0
8, 17640, Note_on_c, 5, 45, 75
8, 17675, Note_on_c, 5, 45, 0
8, 17700, Note_on_c, 5, 57, 75
8, 17735, Note_on_c, 5, 57, 0
8, 17820, Note_on_c, 5, 45, 75
8, 17838, Note_on_c, 5, 45, 0
8, 17850, Note_on_c, 5, 47, 75
8, 17868, Note_on_c, 5, 47, 0
8, 17880, Note_on_c, 5, 49, 75
8, 17915, Note_on_c, 5, 49, 0
8, 17940, Note_on_c, 5, 45, 75
8, 17975, Note_on_c, 5, 45, 0
8, 18000, Note_on_c, 5, 50, 75
8, 18035, Note_on_c, 5, 50, 0
8, 18060, Note_on_c, 5, 38, 75
8, 18095, Note_on_c, 5, 38, 0
8, 18180, Note_on_c, 5, 47, 75
8, 18198, Note_on_c, 5, 47, 0
8, 18210, Note_on_c, 5, 49, 75
8, 18228, Note_on_c, 5, 49, 0
8, 18240, Note_on_c, 5, 51, 75
8, 18275, Note_on_c, 5, 51, 0
8, 18300, Note_on_c, 5, 47, 75
8, 18335, Note_on_c, 5, 47, 0
8, 18360, Note_on_c, 5, 52, 75
8, 18395, Note_on_c, 5, 52, 0
8, 18420, Note_on_c, 5, 40, 75
8, 18455, Note_on_c, 5, 40, 0
8, 18540, Note_on_c, 5, 52, 75
8, 18575, Note_on_c, 5, 52, 0
8, 18600, Note_on_c, 5, 44, 75
8, 18635, Note_on_c, 5, 44, 0
8, 18660, Note_on_c, 5, 52, 75
8, 18695, Note_on_c, 5, 52, 0
8, 18720, Note_on_c, 5, 45, 75
8, 18755, Note_on_c, 5, 45, 0
8, 18780, Note_on_c, 5, 47, 75
8, 18815, Note_on_c, 5, 47, 0
8, 18840, Note_on_c, 5, 49, 75
8, 18875, Note_on_c, 5, 49, 0
8, 18900, Note_on_c, 5, 50, 75
8, 18935, Note_on_c, 5, 50, 0
8, 18960, Note_on_c, 5, 52, 75
8, 18995, Note_on_c, 5, 52, 0
8, 19020, Note_on_c, 5, 40, 75
8, 19055, Note_on_c, 5, 40, 0
8, 19080, Note_on_c, 5, 45, 75
8, 19151, Note_on_c, 5, 45, 0
8, 19260, Note_on_c, 5, 45, 49
8, 19295, Note_on_c, 5, 45, 0
8, 19320, Note_on_c, 5, 43, 49
8, 19355, Note_on_c, 5, 43, 0
8, 19380, Note_on_c, 5, 42, 49
8, 19415, Note_on_c, 5, 42, 0
8, 19440, Note_on_c, 5, 40, 49
8, 19511, Note_on_c, 5, 40, 0
8, 19620, Note_on_c, 5, 47, 49
8, 19655, Note_on_c, 5, 47, 0
8, 19680, Note_on_c, 5, 43, 49
8, 19715, Note_on_c, 5, 43, 0
8, 19740, Note_on_c, 5, 40, 49
8, 19775, Note_on_c, 5, 40, 0
8, 19800, Note_on_c, 5, 45, 49
8, 19871, Note_on_c, 5, 45, 0
8, 19980, Note_on_c, 5, 42, 49
8, 20015, Note_on_c, 5, 42, 0
8, 20040, Note_on_c, 5, 43, 49
8, 20075, Note_on_c, 5, 43, 0
8, 20100, Note_on_c, 5, 45, 49
8, 20135, Note_on_c, 5, 45, 0
8, 20160, Note_on_c, 5, 47, 49
8, 20231, Note_on_c, 5, 47, 0
8, 20340, Note_on_c, 5, 47, 49
8, 20375, Note_on_c, 5, 47, 0
8, 20400, Note_on_c, 5, 49, 49
8, 20435, Note_on_c, 5, 49, 0
8, 20460, Note_on_c, 5, 51, 49
8, 20495, Note_on_c, 5, 51, 0
8, 20520, Note_on_c, 5, 52, 49
8, 20591, Note_on_c, 5, 52, 0
8, 20700, Note_on_c, 5, 50, 49
8, 20735, Note_on_c, 5, 50, 0
8, 20760, Note_on_c, 5, 49, 49
8, 20795, Note_on_c, 5, 49, 0
8, 20820, Note_on_c, 5, 45, 49
8, 20855, Note_on_c, 5, 45, 0
8, 20880, Note_on_c, 5, 50, 49
8, 20951, Note_on_c, 5, 50, 0
8, 21060, Note_on_c, 5, 50, 49
8, 21095, Note_on_c, 5, 50, 0
8, 21120, Note_on_c, 5, 47, 49
8, 21155, Note_on_c, 5, 47, 0
8, 21180, Note_on_c, 5, 43, 49
8, 21215, Note_on_c, 5, 43, 0
8, 21240, Note_on_c, 5, 49, 49
8, 21275, Note_on_c, 5, 49, 0
8, 21300, Note_on_c, 5, 42, 49
8, 21335, Note_on_c, 5, 42, 0
8, 21360, Note_on_c, 5, 44, 49
8, 21395, Note_on_c, 5, 44, 0
8, 21420, Note_on_c, 5, 46, 49
8, 21455, Note_on_c, 5, 46, 0
8, 21480, Note_on_c, 5, 47, 49
8, 21515, Note_on_c, 5, 47, 0
8, 21540, Note_on_c, 5, 44, 49
8, 21575, Note_on_c, 5, 44, 0
8, 21600, Note_on_c, 5, 42, 49
8, 21635, Note_on_c, 5, 42, 0
8, 21660, Note_on_c, 5, 49, 49
8, 21695, Note_on_c, 5, 49, 0
8, 21720, Note_on_c, 5, 49, 49
8, 21755, Note_on_c, 5, 49, 0
8, 21780, Note_on_c, 5, 50, 49
8, 21815, Note_on_c, 5, 50, 0
8, 21840, Note_on_c, 5, 52, 49
8, 21875, Note_on_c, 5, 52, 0
8, 21900, Note_on_c, 5, 54, 49
8, 21918, Note_on_c, 5, 54, 0
8, 21930, Note_on_c, 5, 52, 49
8, 21948, Note_on_c, 5, 52, 0
8, 21960, Note_on_c, 5, 50, 49
8, 22031, Note_on_c, 5, 50, 0
8, 22080, Note_on_c, 5, 47, 49
8, 22151, Note_on_c, 5, 47, 0
8, 22440, Note_on_c, 5, 47, 49
8, 22511, Note_on_c, 5, 47, 0
8, 22560, Note_on_c, 5, 59, 49
8, 22715, Note_on_c, 5, 59, 0
8, 22740, Note_on_c, 5, 61, 49
8, 22758, Note_on_c, 5, 61, 0
8, 22770, Note_on_c, 5, 59, 49
8, 22788, Note_on_c, 5, 59, 0
8, 22800, Note_on_c, 5, 58, 49
8, 22871, Note_on_c, 5, 58, 0
8, 23100, Note_on_c, 5, 52, 49
8, 23135, Note_on_c, 5, 52, 0
8, 23160, Note_on_c, 5, 50, 49
8, 23195, Note_on_c, 5, 50, 0
8, 23220, Note_on_c, 5, 54, 49
8, 23255, Note_on_c, 5, 54, 0
8, 23280, Note_on_c, 5, 56, 49
8, 23315, Note_on_c, 5, 56, 0
8, 23340, Note_on_c, 5, 58, 49
8, 23375, Note_on_c, 5, 58, 0
8, 23400, Note_on_c, 5, 59, 49
8, 23435, Note_on_c, 5, 59, 0
8, 23460, Note_on_c, 5, 54, 49
8, 23495, Note_on_c, 5, 54, 0
8, 23520, Note_on_c, 5, 50, 49
8, 23555, Note_on_c, 5, 50, 0
8, 23580, Note_on_c, 5, 47, 49
8, 23615, Note_on_c, 5, 47, 0
8, 23640, Note_on_c, 5, 52, 49
8, 23795, Note_on_c, 5, 52, 0
8, 23820, Note_on_c, 5, 50, 49
8, 23838, Note_on_c, 5, 50, 0
8, 23850, Note_on_c, 5, 52, 49
8, 23868, Note_on_c, 5, 52, 0
8, 23880, Note_on_c, 5, 54, 49
8, 23915, Note_on_c, 5, 54, 0
8, 23940, Note_on_c, 5, 52, 49
8, 23975, Note_on_c, 5, 52, 0
8, 24000, Note_on_c, 5, 54, 49
8, 24035, Note_on_c, 5, 54, 0
8, 24060, Note_on_c, 5, 42, 49
8, 24095, Note_on_c, 5, 42, 0
8, 24120, Note_on_c, 5, 47, 49
8, 24191, Note_on_c, 5, 47, 0
8, 24300, Note_on_c, 5, 47, 75
8, 24335, Note_on_c, 5, 47, 0
8, 24360, Note_on_c, 5, 43, 75
8, 24395, Note_on_c, 5, 43, 0
8, 24420, Note_on_c, 5, 40, 75
8, 24455, Note_on_c, 5, 40, 0
8, 24480, Note_on_c, 5, 45, 75
8, 24551, Note_on_c, 5, 45, 0
8, 24660, Note_on_c, 5, 45, 75
8, 24695, Note_on_c, 5, 45, 0
8, 24720, Note_on_c, 5, 42, 75
8, 24755, Note_on_c, 5, 42, 0
8, 24780, Note_on_c, 5, 38, 75
8, 24815, Note_on_c, 5, 38, 0
8, 24840, Note_on_c, 5, 43, 75
8, 24911, Note_on_c, 5, 43, 0
8, 25080, Note_on_c, 5, 55, 75
8, 25235, Note_on_c, 5, 55, 0
8, 25260, Note_on_c, 5, 57, 75
8, 25278, Note_on_c, 5, 57, 0
8, 25290, Note_on_c, 5, 55, 75
8, 25308, Note_on_c, 5, 55, 0
8, 25320, Note_on_c, 5, 54, 75
8, 25355, Note_on_c, 5, 54, 0
8, 25380, Note_on_c, 5, 52, 75
8, 25415, Note_on_c, 5, 52, 0
8, 25440, Note_on_c, 5, 50, 75
8, 25475, Note_on_c, 5, 50, 0
8, 25500, Note_on_c, 5, 49, 75
8, 25535, Note_on_c, 5, 49, 0
8, 25560, Note_on_c, 5, 47, 75
8, 25595, Note_on_c, 5, 47, 0
8, 25620, Note_on_c, 5, 45, 75
8, 25655, Note_on_c, 5, 45, 0
8, 25680, Note_on_c, 5, 43, 75
8, 25715, Note_on_c, 5, 43, 0
8, 25740, Note_on_c, 5, 42, 75
8, 25775, Note_on_c, 5, 42, 0
8, 25800, Note_on_c, 5, 40, 75
8, 25835, Note_on_c, 5, 40, 0
8, 25860, Note_on_c, 5, 52, 75
8, 25955, Note_on_c, 5, 52, 0
8, 25980, Note_on_c, 5, 54, 75
8, 25998, Note_on_c, 5, 54, 0
8, 26010, Note_on_c, 5, 52, 75
8, 26028, Note_on_c, 5, 52, 0
8, 26040, Note_on_c, 5, 50, 75
8, 26075, Note_on_c, 5, 50, 0
8, 26100, Note_on_c, 5, 47, 75
8, 26135, Note_on_c, 5, 47, 0
8, 26160, Note_on_c, 5, 46, 75
8, 26195, Note_on_c, 5, 46, 0
8, 26220, Note_on_c, 5, 42, 75
8, 26255, Note_on_c, 5, 42, 0
8, 26280, Note_on_c, 5, 47, 75
8, 26315, Note_on_c, 5, 47, 0
8, 26340, Note_on_c, 5, 42, 75
8, 26375, Note_on_c, 5, 42, 0
8, 26400, Note_on_c, 5, 49, 75
8, 26435, Note_on_c, 5, 49, 0
8, 26460, Note_on_c, 5, 42, 75
8, 26495, Note_on_c, 5, 42, 0
8, 26520, Note_on_c, 5, 50, 75
8, 26555, Note_on_c, 5, 50, 0
8, 26580, Note_on_c, 5, 46, 75
8, 26615, Note_on_c, 5, 46, 0
8, 26640, Note_on_c, 5, 47, 75
8, 26675, Note_on_c, 5, 47, 0
8, 26700, Note_on_c, 5, 42, 75
8, 26735, Note_on_c, 5, 42, 0
8, 26760, Note_on_c, 5, 50, 75
8, 26795, Note_on_c, 5, 50, 0
8, 26820, Note_on_c, 5, 47, 75
8, 26855, Note_on_c, 5, 47, 0
8, 26880, Note_on_c, 5, 54, 75
8, 26915, Note_on_c, 5, 54, 0
8, 26940, Note_on_c, 5, 42, 75
8, 26975, Note_on_c, 5, 42, 0
8, 27000, Note_on_c, 5, 47, 49
8, 27071, Note_on_c, 5, 47, 0
8, 27180, Note_on_c, 5, 47, 49
8, 27215, Note_on_c, 5, 47, 0
8, 27240, Note_on_c, 5, 45, 49
8, 27275, Note_on_c, 5, 45, 0
8, 27300, Note_on_c, 5, 44, 49
8, 27335, Note_on_c, 5, 44, 0
8, 27360, Note_on_c, 5, 42, 49
8, 27431, Note_on_c, 5, 42, 0
8, 27540, Note_on_c, 5, 49, 49
8, 27575, Note_on_c, 5, 49, 0
8, 27600, Note_on_c, 5, 45, 49
8, 27635, Note_on_c, 5, 45, 0
8, 27660, Note_on_c, 5, 42, 49
8, 27695, Note_on_c, 5, 42, 0
8, 27720, Note_on_c, 5, 47, 49
8, 27791, Note_on_c, 5, 47, 0
8, 27900, Note_on_c, 5, 47, 49
8, 27935, Note_on_c, 5, 47, 0
8, 27960, Note_on_c, 5, 50, 49
8, 27995, Note_on_c, 5, 50, 0
8, 28020, Note_on_c, 5, 47, 49
8, 28055, Note_on_c, 5, 47, 0
8, 28080, Note_on_c, 5, 49, 49
8, 28151, Note_on_c, 5, 49, 0
8, 28260, Note_on_c, 5, 49, 49
8, 28295, Note_on_c, 5, 49, 0
8, 28320, Note_on_c, 5, 51, 49
8, 28355, Note_on_c, 5, 51, 0
8, 28380, Note_on_c, 5, 53, 49
8, 28415, Note_on_c, 5, 53, 0
8, 28440, Note_on_c, 5, 54, 49
8, 28475, Note_on_c, 5, 54, 0
8, 28500, Note_on_c, 5, 53, 49
8, 28535, Note_on_c, 5, 53, 0
8, 28560, Note_on_c, 5, 54, 49
8, 28595, Note_on_c, 5, 54, 0
8, 28620, Note_on_c, 5, 56, 49
8, 28655, Note_on_c, 5, 56, 0
8, 28680, Note_on_c, 5, 57, 49
8, 28715, Note_on_c, 5, 57, 0
8, 28740, Note_on_c, 5, 45, 49
8, 28835, Note_on_c, 5, 45, 0
8, 28860, Note_on_c, 5, 47, 49
8, 28878, Note_on_c, 5, 47, 0
8, 28890, Note_on_c, 5, 45, 49
8, 28908, Note_on_c, 5, 45, 0
8, 28920, Note_on_c, 5, 47, 49
8, 28955, Note_on_c, 5, 47, 0
8, 28980, Note_on_c, 5, 49, 49
8, 28998, Note_on_c, 5, 49, 0
8, 29010, Note_on_c, 5, 47, 49
8, 29028, Note_on_c, 5, 47, 0
8, 29040, Note_on_c, 5, 45, 49
8, 29075, Note_on_c, 5, 45, 0
8, 29100, Note_on_c, 5, 47, 49
8, 29118, Note_on_c, 5, 47, 0
8, 29130, Note_on_c, 5, 45, 49
8, 29148, Note_on_c, 5, 45, 0
8, 29160, Note_on_c, 5, 44, 49
8, 29195, Note_on_c, 5, 44, 0
8, 29220, Note_on_c, 5, 47, 49
8, 29255, Note_on_c, 5, 47, 0
8, 29280, Note_on_c, 5, 40, 49
8, 29315, Note_on_c, 5, 40, 0
8, 29340, Note_on_c, 5, 42, 49
8, 29375, Note_on_c, 5, 42, 0
8, 29400, Note_on_c, 5, 44, 49
8, 29435, Note_on_c, 5, 44, 0
8, 29460, Note_on_c, 5, 40, 49
8, 29495, Note_on_c, 5, 40, 0
8, 29520, Note_on_c, 5, 45, 49
8, 29555, Note_on_c, 5, 45, 0
8, 29580, Note_on_c, 5, 44, 49
8, 29615, Note_on_c, 5, 44, 0
8, 29640, Note_on_c, 5, 45, 49
8, 29675, Note_on_c, 5, 45, 0
8, 29700, Note_on_c, 5, 49, 49
8, 29735, Note_on_c, 5, 49, 0
8, 29760, Note_on_c, 5, 42, 49
8, 29795, Note_on_c, 5, 42, 0
8, 29820, Note_on_c, 5, 45, 49
8, 29855, Note_on_c, 5, 45, 0
8, 29880, Note_on_c, 5, 50, 49
8, 29951, Note_on_c, 5, 50, 0
8, 30000, Note_on_c, 5, 38, 49
8, 30071, Note_on_c, 5, 38, 0
8, 30360, Note_on_c, 5, 44, 49
8, 30395, Note_on_c, 5, 44, 0
8, 30420, Note_on_c, 5, 45, 49
8, 30455, Note_on_c, 5, 45, 0
8, 30480, Note_on_c, 5, 47, 49
8, 30515, Note_on_c, 5, 47, 0
8, 30540, Note_on_c, 5, 49, 49
8, 30558, Note_on_c, 5, 49, 0
8, 30570, Note_on_c, 5, 50, 49
8, 30588, Note_on_c, 5, 50, 0
8, 30600, Note_on_c, 5, 41, 49
8, 30671, Note_on_c, 5, 41, 0
8, 31020, Note_on_c, 5, 47, 49
8, 31055, Note_on_c, 5, 47, 0
8, 31080, Note_on_c, 5, 45, 49
8, 31115, Note_on_c, 5, 45, 0
8, 31140, Note_on_c, 5, 49, 49
8, 31175, Note_on_c, 5, 49, 0
8, 31200, Note_on_c, 5, 51, 49
8, 31235, Note_on_c, 5, 51, 0
8, 31260, Note_on_c, 5, 53, 49
8, 31295, Note_on_c, 5, 53, 0
8, 31320, Note_on_c, 5, 54, 49
8, 31355, Note_on_c, 5, 54, 0
8, 31380, Note_on_c, 5, 49, 49
8, 31415, Note_on_c, 5, 49, 0
8, 31440, Note_on_c, 5, 46, 49
8, 31475, Note_on_c, 5, 46, 0
8, 31500, Note_on_c, 5, 42, 49
8, 31535, Note_on_c, 5, 42, 0
8, 31560, Note_on_c, 5, 50, 49
8, 31595, Note_on_c, 5, 50, 0
8, 31620, Note_on_c, 5, 47, 49
8, 31655, Note_on_c, 5, 47, 0
8, 31680, Note_on_c, 5, 53, 49
8, 31715, Note_on_c, 5, 53, 0
8, 31740, Note_on_c, 5, 54, 49
8, 31775, Note_on_c, 5, 54, 0
8, 31800, Note_on_c, 5, 49, 49
8, 31871, Note_on_c, 5, 49, 0
8, 31920, Note_on_c, 5, 37, 49
8, 31991, Note_on_c, 5, 37, 0
8, 32040, Note_on_c, 5, 42, 49
8, 32075, Note_on_c, 5, 42, 0
8, 32100, Note_on_c, 5, 54, 49
8, 32118, Note_on_c, 5, 54, 0
8, 32130, Note_on_c, 5, 52, 49
8, 32148, Note_on_c, 5, 52, 0
8, 32160, Note_on_c, 5, 54, 49
8, 32195, Note_on_c, 5, 54, 0
8, 32220, Note_on_c, 5, 55, 49
8, 32238, Note_on_c, 5, 55, 0
8, 32250, Note_on_c, 5, 54, 49
8, 32268, Note_on_c, 5, 54, 0
8, 32280, Note_on_c, 5, 52, 49
8, 32315, Note_on_c, 5, 52, 0
8, 32340, Note_on_c, 5, 54, 49
8, 32358, Note_on_c, 5, 54, 0
8, 32370, Note_on_c, 5, 52, 49
8, 32388, Note_on_c, 5, 52, 0
8, 32400, Note_on_c, 5, 38, 49
8, 32471, Note_on_c, 5, 38, 0
8, 32520, Note_on_c, 5, 50, 49
8, 32591, Note_on_c, 5, 50, 0
8, 32640, Note_on_c, 5, 43, 49
8, 32795, Note_on_c, 5, 43, 0
8, 32820, Note_on_c, 5, 45, 49
8, 32838, Note_on_c, 5, 45, 0
8, 32850, Note_on_c, 5, 47, 49
8, 32868, Note_on_c, 5, 47, 0
8, 32880, Note_on_c, 5, 45, 49
8, 32915, Note_on_c, 5, 45, 0
8, 32940, Note_on_c, 5, 43, 49
8, 32975, Note_on_c, 5, 43, 0
8, 33000, Note_on_c, 5, 42, 49
8, 33035, Note_on_c, 5, 42, 0
8, 33060, Note_on_c, 5, 45, 49
8, 33095, Note_on_c, 5, 45, 0
8, 33120, Note_on_c, 5, 38, 49
8, 33155, Note_on_c, 5, 38, 0
8, 33180, Note_on_c, 5, 50, 49
8, 33198, Note_on_c, 5, 50, 0
8, 33210, Note_on_c, 5, 49, 49
8, 33228, Note_on_c, 5, 49, 0
8, 33240, Note_on_c, 5, 50, 49
8, 33275, Note_on_c, 5, 50, 0
8, 33300, Note_on_c, 5, 52, 49
8, 33318, Note_on_c, 5, 52, 0
8, 33330, Note_on_c, 5, 54, 49
8, 33348, Note_on_c, 5, 54, 0
8, 33360, Note_on_c, 5, 55, 49
8, 33395, Note_on_c, 5, 55, 0
8, 33420, Note_on_c, 5, 54, 49
8, 33438, Note_on_c, 5, 54, 0
8, 33450, Note_on_c, 5, 55, 49
8, 33468, Note_on_c, 5, 55, 0
8, 33480, Note_on_c, 5, 57, 49
8, 33551, Note_on_c, 5, 57, 0
8, 33660, Note_on_c, 5, 50, 49
8, 33695, Note_on_c, 5, 50, 0
8, 33720, Note_on_c, 5, 50, 49
8, 33755, Note_on_c, 5, 50, 0
8, 33780, Note_on_c, 5, 52, 49
8, 33798, Note_on_c, 5, 52, 0
8, 33810, Note_on_c, 5, 50, 49
8, 33828, Note_on_c, 5, 50, 0
8, 33840, Note_on_c, 5, 49, 49
8, 33875, Note_on_c, 5, 49, 0
8, 33900, Note_on_c, 5, 50, 49
8, 33918, Note_on_c, 5, 50, 0
8, 33930, Note_on_c, 5, 49, 49
8, 33948, Note_on_c, 5, 49, 0
8, 33960, Note_on_c, 5, 47, 49
8, 33995, Note_on_c, 5, 47, 0
8, 34020, Note_on_c, 5, 49, 49
8, 34038, Note_on_c, 5, 49, 0
8, 34050, Note_on_c, 5, 47, 49
8, 34068, Note_on_c, 5, 47, 0
8, 34080, Note_on_c, 5, 45, 49
8, 34115, Note_on_c, 5, 45, 0
8, 34260, Note_on_c, 5, 38, 49
8, 34295, Note_on_c, 5, 38, 0
8, 34320, Note_on_c, 5, 40, 49
8, 34355, Note_on_c, 5, 40, 0
8, 34380, Note_on_c, 5, 42, 49
8, 34415, Note_on_c, 5, 42, 0
8, 34440, Note_on_c, 5, 43, 49
8, 34475, Note_on_c, 5, 43, 0
8, 34500, Note_on_c, 5, 45, 49
8, 34535, Note_on_c, 5, 45, 0
8, 34560, Note_on_c, 5, 47, 49
8, 34595, Note_on_c, 5, 47, 0
8, 34620, Note_on_c, 5, 43, 49
8, 34655, Note_on_c, 5, 43, 0
8, 34680, Note_on_c, 5, 40, 49
8, 34715, Note_on_c, 5, 40, 0
8, 34740, Note_on_c, 5, 42, 49
8, 34758, Note_on_c, 5, 42, 0
8, 34770, Note_on_c, 5, 43, 49
8, 34788, Note_on_c, 5, 43, 0
8, 34800, Note_on_c, 5, 45, 49
8, 34835, Note_on_c, 5, 45, 0
8, 34860, Note_on_c, 5, 45, 49
8, 34895, Note_on_c, 5, 45, 0
8, 34920, Note_on_c, 5, 38, 49
8, 34991, Note_on_c, 5, 38, 0
8, 35340, Note_on_c, 5, 50, 49
8, 35358, Note_on_c, 5, 50, 0
8, 35370, Note_on_c, 5, 49, 49
8, 35388, Note_on_c, 5, 49, 0
8, 35400, Note_on_c, 5, 50, 49
8, 35435, Note_on_c, 5, 50, 0
8, 35460, Note_on_c, 5, 47, 49
8, 35495, Note_on_c, 5, 47, 0
8, 35520, Note_on_c, 5, 52, 49
8, 35555, Note_on_c, 5, 52, 0
8, 35580, Note_on_c, 5, 40, 49
8, 35615, Note_on_c, 5, 40, 0
8, 35640, Note_on_c, 5, 45, 49
8, 35711, Note_on_c, 5, 45, 0
8, 35760, Note_on_c, 5, 57, 49
8, 35831, Note_on_c, 5, 57, 0
8, 35880, Note_on_c, 5, 45, 49
8, 36035, Note_on_c, 5, 45, 0
8, 36060, Note_on_c, 5, 57, 49
8, 36078, Note_on_c, 5, 57, 0
8, 36090, Note_on_c, 5, 55, 49
8, 36108, Note_on_c, 5, 55, 0
8, 36120, Note_on_c, 5, 54, 49
8, 36155, Note_on_c, 5, 54, 0
8, 36180, Note_on_c, 5, 52, 49
8, 36215, Note_on_c, 5, 52, 0
8, 36240, Note_on_c, 5, 50, 49
8, 36275, Note_on_c, 5, 50, 0
8, 36300, Note_on_c, 5, 48, 49
8, 36318, Note_on_c, 5, 48, 0
8, 36330, Note_on_c, 5, 50, 49
8, 36348, Note_on_c, 5, 50, 0
8, 36360, Note_on_c, 5, 43, 49
8, 36431, Note_on_c, 5, 43, 0
8, 36600, Note_on_c, 5, 55, 49
8, 36755, Note_on_c, 5, 55, 0
8, 36780, Note_on_c, 5, 54, 49
8, 36798, Note_on_c, 5, 54, 0
8, 36810, Note_on_c, 5, 52, 49
8, 36828, Note_on_c, 5, 52, 0
8, 36840, Note_on_c, 5, 50, 49
8, 36875, Note_on_c, 5, 50, 0
8, 36900, Note_on_c, 5, 49, 49
8, 36935, Note_on_c, 5, 49, 0
8, 36960, Note_on_c, 5, 47, 49
8, 36995, Note_on_c, 5, 47, 0
8, 37020, Note_on_c, 5, 49, 49
8, 37038, Note_on_c, 5, 49, 0
8, 37050, Note_on_c, 5, 50, 49
8, 37068, Note_on_c, 5, 50, 0
8, 37080, Note_on_c, 5, 52, 49
8, 37151, Note_on_c, 5, 52, 0
8, 37260, Note_on_c, 5, 47, 49
8, 37295, Note_on_c, 5, 47, 0
8, 37320, Note_on_c, 5, 40, 49
8, 37355, Note_on_c, 5, 40, 0
8, 37380, Note_on_c, 5, 43, 49
8, 37415, Note_on_c, 5, 43, 0
8, 37440, Note_on_c, 5, 45, 49
8, 37475, Note_on_c, 5, 45, 0
8, 37500, Note_on_c, 5, 43, 49
8, 37535, Note_on_c, 5, 43, 0
8, 37560, Note_on_c, 5, 42, 49
8, 37595, Note_on_c, 5, 42, 0
8, 37620, Note_on_c, 5, 40, 49
8, 37655, Note_on_c, 5, 40, 0
8, 37680, Note_on_c, 5, 38, 49
8, 37715, Note_on_c, 5, 38, 0
8, 37740, Note_on_c, 5, 40, 49
8, 37775, Note_on_c, 5, 40, 0
8, 37800, Note_on_c, 5, 42, 49
8, 37835, Note_on_c, 5, 42, 0
8, 37860, Note_on_c, 5, 45, 49
8, 37895, Note_on_c, 5, 45, 0
8, 37920, Note_on_c, 5, 47, 49
8, 37955, Note_on_c, 5, 47, 0
8, 37980, Note_on_c, 5, 43, 49
8, 38015, Note_on_c, 5, 43, 0
8, 38040, Note_on_c, 5, 40, 49
8, 38075, Note_on_c, 5, 40, 0
8, 38100, Note_on_c, 5, 45, 49
8, 38135, Note_on_c, 5, 45, 0
8, 38160, Note_on_c, 5, 38, 49
8, 38195, Note_on_c, 5, 38, 0
8, 38220, Note_on_c, 5, 50, 49
8, 38238, Note_on_c, 5, 50, 0
8, 38250, Note_on_c, 5, 49, 49
8, 38268, Note_on_c, 5, 49, 0
8, 38280, Note_on_c, 5, 50, 49
8, 38315, Note_on_c, 5, 50, 0
8, 38340, Note_on_c, 5, 47, 49
8, 38375, Note_on_c, 5, 47, 0
8, 38400, Note_on_c, 5, 52, 49
8, 38435, Note_on_c, 5, 52, 0
8, 38460, Note_on_c, 5, 50, 49
8, 38478, Note_on_c, 5, 50, 0
8, 38490, Note_on_c, 5, 52, 49
8, 38508, Note_on_c, 5, 52, 0
8, 38520, Note_on_c, 5, 45, 49
8, 38538, Note_on_c, 5, 45, 0
8, 38550, Note_on_c, 5, 47, 49
8, 38568, Note_on_c, 5, 47, 0
8, 38580, Note_on_c, 5, 45, 49
8, 38598, Note_on_c, 5, 45, 0
8, 38610, Note_on_c, 5, 43, 49
8, 38628, Note_on_c, 5, 43, 0
8, 38640, Note_on_c, 5, 42, 49
8, 38675, Note_on_c, 5, 42, 0
8, 38700, Note_on_c, 5, 45, 49
8, 38735, Note_on_c, 5, 45, 0
8, 38760, Note_on_c, 5, 50, 49
8, 38795, Note_on_c, 5, 50, 0
8, 38820, Note_on_c, 5, 48, 49
8, 38838, Note_on_c, 5, 48, 0
8, 38850, Note_on_c, 5, 50, 49
8, 38868, Note_on_c, 5, 50, 0
8, 38880, Note_on_c, 5, 43, 49
8, 38915, Note_on_c, 5, 43, 0
8, 38940, Note_on_c, 5, 55, 49
8, 38958, Note_on_c, 5, 55, 0
8, 38970, Note_on_c, 5, 54, 49
8, 38988, Note_on_c, 5, 54, 0
8, 39000, Note_on_c, 5, 52, 49
8, 39035, Note_on_c, 5, 52, 0
8, 39060, Note_on_c, 5, 50, 49
8, 39095, Note_on_c, 5, 50, 0
8, 39120, Note_on_c, 5, 49, 49
8, 39155, Note_on_c, 5, 49, 0
8, 39180, Note_on_c, 5, 47, 49
8, 39215, Note_on_c, 5, 47, 0
8, 39240, Note_on_c, 5, 49, 49
8, 39275, Note_on_c, 5, 49, 0
8, 39300, Note_on_c, 5, 45, 49
8, 39335, Note_on_c, 5, 45, 0
8, 39360, Note_on_c, 5, 50, 49
8, 39431, Note_on_c, 5, 50, 0
8, 39540, Note_on_c, 5, 54, 49
8, 39575, Note_on_c, 5, 54, 0
8, 39600, Note_on_c, 5, 50, 49
8, 39635, Note_on_c, 5, 50, 0
8, 39660, Note_on_c, 5, 47, 49
8, 39695, Note_on_c, 5, 47, 0
8, 39720, Note_on_c, 5, 52, 49
8, 39791, Note_on_c, 5, 52, 0
8, 39900, Note_on_c, 5, 50, 49
8, 39935, Note_on_c, 5, 50, 0
8, 39960, Note_on_c, 5, 49, 49
8, 39995, Note_on_c, 5, 49, 0
8, 40020, Note_on_c, 5, 45, 49
8, 40055, Note_on_c, 5, 45, 0
8, 40080, Note_on_c, 5, 50, 49
8, 40151, Note_on_c, 5, 50, 0
8, 40260, Note_on_c, 5, 38, 49
8, 40295, Note_on_c, 5, 38, 0
8, 40320, Note_on_c, 5, 43, 49
8, 40391, Note_on_c, 5, 43, 0
8, 40500, Note_on_c, 5, 42, 49
8, 40535, Note_on_c, 5, 42, 0
8, 40560, Note_on_c, 5, 40, 49
8, 40595, Note_on_c, 5, 40, 0
8, 40620, Note_on_c, 5, 38, 49
8, 40655, Note_on_c, 5, 38, 0
8, 40680, Note_on_c, 5, 37, 49
8, 40715, Note_on_c, 5, 37, 0
8, 40740, Note_on_c, 5, 49, 49
8, 40758, Note_on_c, 5, 49, 0
8, 40770, Note_on_c, 5, 47, 49
8, 40788, Note_on_c, 5, 47, 0
8, 40800, Note_on_c, 5, 45, 49
8, 40835, Note_on_c, 5, 45, 0
8, 40860, Note_on_c, 5, 55, 49
8, 40895, Note_on_c, 5, 55, 0
8, 40920, Note_on_c, 5, 54, 49
8, 40955, Note_on_c, 5, 54, 0
8, 40980, Note_on_c, 5, 52, 49
8, 41015, Note_on_c, 5, 52, 0
8, 41040, Note_on_c, 5, 50, 49
8, 41075, Note_on_c, 5, 50, 0
8, 41100, Note_on_c, 5, 52, 49
8, 41135, Note_on_c, 5, 52, 0
8, 41160, Note_on_c, 5, 54, 49
8, 41195, Note_on_c, 5, 54, 0
8, 41220, Note_on_c, 5, 55, 49
8, 41255, Note_on_c, 5, 55, 0
8, 41280, Note_on_c, 5, 57, 49
8, 41315, Note_on_c, 5, 57, 0
8, 41340, Note_on_c, 5, 45, 49
8, 41375, Note_on_c, 5, 45, 0
8, 41400, Note_on_c, 5, 47, 49
8, 41435, Note_on_c, 5, 47, 0
8, 41460, Note_on_c, 5, 49, 49
8, 41495, Note_on_c, 5, 49, 0
8, 41520, Note_on_c, 5, 50, 49
8, 41555, Note_on_c, 5, 50, 0
8, 41580, Note_on_c, 5, 42, 49
8, 41598, Note_on_c, 5, 42, 0
8, 41610, Note_on_c, 5, 43, 49
8, 41628, Note_on_c, 5, 43, 0
8, 41640, Note_on_c, 5, 45, 49
8, 41675, Note_on_c, 5, 45, 0
8, 41700, Note_on_c, 5, 45, 49
8, 41735, Note_on_c, 5, 45, 0
8, 41760, Note_on_c, 5, 38, 88
8, 41831, Note_on_c, 5, 38, 0
8, 42240, Note_on_c, 5, 38, 88
8, 42311, Note_on_c, 5, 38, 0
8, 42360, Note_on_c, 5, 50, 88
8, 42515, Note_on_c, 5, 50, 0
8, 42540, Note_on_c, 5, 52, 88
8, 42558, Note_on_c, 5, 52, 0
8, 42570, Note_on_c, 5, 50, 88
8, 42588, Note_on_c, 5, 50, 0
8, 42600, Note_on_c, 5, 49, 88
8, 42635, Note_on_c, 5, 49, 0
8, 42660, Note_on_c, 5, 45, 88
8, 42695, Note_on_c, 5, 45, 0
8, 42720, Note_on_c, 5, 57, 88
8, 42875, Note_on_c, 5, 57, 0
8, 42900, Note_on_c, 5, 45, 88
8, 42918, Note_on_c, 5, 45, 0
8, 42930, Note_on_c, 5, 43, 88
8, 42948, Note_on_c, 5, 43, 0
8, 42960, Note_on_c, 5, 42, 88
8, 42995, Note_on_c, 5, 42, 0
8, 43020, Note_on_c, 5, 43, 88
8, 43055, Note_on_c, 5, 43, 0
8, 43080, Note_on_c, 5, 45, 88
8, 43151, Note_on_c, 5, 45, 0
8, 43200, Note_on_c, 5, 38, 88
8, 43235, Note_on_c, 5, 38, 0
8, 43260, Note_on_c, 5, 50, 88
8, 43278, Note_on_c, 5, 50, 0
8, 43290, Note_on_c, 5, 49, 88
8, 43308, Note_on_c, 5, 49, 0
8, 43320, Note_on_c, 5, 50, 88
8, 43355, Note_on_c, 5, 50, 0
8, 43380, Note_on_c, 5, 47, 88
8, 43415, Note_on_c, 5, 47, 0
8, 43440, Note_on_c, 5, 52, 88
8, 43475, Note_on_c, 5, 52, 0
8, 43500, Note_on_c, 5, 50, 88
8, 43518, Note_on_c, 5, 50, 0
8, 43530, Note_on_c, 5, 52, 88
8, 43548, Note_on_c, 5, 52, 0
8, 43560, Note_on_c, 5, 45, 88
8, 43595, Note_on_c, 5, 45, 0
8, 43620, Note_on_c, 5, 57, 88
8, 43638, Note_on_c, 5, 57, 0
8, 43650, Note_on_c, 5, 55, 88
8, 43668, Note_on_c, 5, 55, 0
8, 43680, Note_on_c, 5, 54, 88
8, 43715, Note_on_c, 5, 54, 0
8, 43740, Note_on_c, 5, 52, 88
8, 43775, Note_on_c, 5, 52, 0
8, 43800, Note_on_c, 5, 50, 88
8, 43835, Note_on_c, 5, 50, 0
8, 43860, Note_on_c, 5, 48, 88
8, 43878, Note_on_c, 5, 48, 0
8, 43890, Note_on_c, 5, 50, 88
8, 43908, Note_on_c, 5, 50, 0
8, 43920, Note_on_c, 5, 43, 88
8, 43991, Note_on_c, 5, 43, 0
8, 44160, Note_on_c, 5, 55, 88
8, 44315, Note_on_c, 5, 55, 0
8, 44340, Note_on_c, 5, 57, 88
8, 44358, Note_on_c, 5, 57, 0
8, 44370, Note_on_c, 5, 55, 88
8, 44388, Note_on_c, 5, 55, 0
8, 44400, Note_on_c, 5, 54, 88
8, 44435, Note_on_c, 5, 54, 0
8, 44460, Note_on_c, 5, 52, 88
8, 44495, Note_on_c, 5, 52, 0
8, 44520, Note_on_c, 5, 50, 88
8, 44555, Note_on_c, 5, 50, 0
8, 44580, Note_on_c, 5, 49, 88
8, 44615, Note_on_c, 5, 49, 0
8, 44640, Note_on_c, 5, 47, 88
8, 44711, Note_on_c, 5, 47, 0
8, 44820, Note_on_c, 5, 47, 88
8, 44855, Note_on_c, 5, 47, 0
8, 44880, Note_on_c, 5, 52, 88
8, 44915, Note_on_c, 5, 52, 0
8, 44940, Note_on_c, 5, 50, 88
8, 44975, Note_on_c, 5, 50, 0
8, 45000, Note_on_c, 5, 49, 88
8, 45035, Note_on_c, 5, 49, 0
8, 45060, Note_on_c, 5, 52, 88
8, 45095, Note_on_c, 5, 52, 0
8, 45120, Note_on_c, 5, 57, 88
8, 45155, Note_on_c, 5, 57, 0
8, 45180, Note_on_c, 5, 55, 88
8, 45215, Note_on_c, 5, 55, 0
8, 45240, Note_on_c, 5, 54, 88
8, 45275, Note_on_c, 5, 54, 0
8, 45300, Note_on_c, 5, 52, 88
8, 45335, Note_on_c, 5, 52, 0
8, 45360, Note_on_c, 5, 50, 88
8, 45395, Note_on_c, 5, 50, 0
8, 45420, Note_on_c, 5, 45, 88
8, 45455, Note_on_c, 5, 45, 0
8, 45480, Note_on_c, 5, 47, 88
8, 45515, Note_on_c, 5, 47, 0
8, 45540, Note_on_c, 5, 43, 88
8, 45575, Note_on_c, 5, 43, 0
8, 45600, Note_on_c, 5, 45, 88
8, 45635, Note_on_c, 5, 45, 0
8, 45660, Note_on_c, 5, 43, 88
8, 45678, Note_on_c, 5, 43, 0
8, 45690, Note_on_c, 5, 45, 88
8, 45708, Note_on_c, 5, 45, 0
8, 45720, Note_on_c, 5, 47, 88
8, 45755, Note_on_c, 5, 47, 0
8, 45780, Note_on_c, 5, 49, 88
8, 45815, Note_on_c, 5, 49, 0
8, 45840, Note_on_c, 5, 50, 88
8, 45875, Note_on_c, 5, 50, 0
8, 45900, Note_on_c, 5, 55, 88
8, 45935, Note_on_c, 5, 55, 0
8, 45960, Note_on_c, 5, 57, 88
8, 45995, Note_on_c, 5, 57, 0
8, 46020, Note_on_c, 5, 45, 88
8, 46055, Note_on_c, 5, 45, 0
8, 46080, Note_on_c, 5, 38, 88
8, 46151, Note_on_c, 5, 38, 0
8, 46440, End_track
0, 0, End_of_file
