0, 0, Header, 1, 9, 1024
1, 0, Start_track
1, 0, Time_signature, 4, 2, 24, 8
1, 0, Key_signature, -2, "minor"
1, 0, Tempo, 681818
1, 90112, End_track
2, 0, Start_track
2, 0, Title_t, "Instrument 1"
2, 3072, Note_on_c, 0, 69, 96
2, 4096, Note_off_c, 0, 69, 0
2, 4096, Note_on_c, 0, 70, 96
2, 5120, Note_off_c, 0, 70, 0
2, 5120, Note_on_c, 0, 72, 96
2, 6144, Note_off_c, 0, 72, 0
2, 6144, Note_on_c, 0, 74, 96
2, 7168, Note_off_c, 0, 74, 0
2, 7168, Note_on_c, 0, 69, 96
2, 7680, Note_off_c, 0, 69, 0
2, 7680, Note_on_c, 0, 71, 96
2, 8192, Note_off_c, 0, 71, 0
2, 8192, Note_on_c, 0, 72, 96
2, 10240, Note_off_c, 0, 72, 0
2, 13312, Note_on_c, 0, 67, 96
2, 14336, Note_off_c, 0, 67, 0
2, 14336, Note_on_c, 0, 67, 96
2, 15360, Note_off_c, 0, 67, 0
2, 15360, Note_on_c, 0, 69, 96
2, 16384, Note_off_c, 0, 69, 0
2, 16384, Note_on_c, 0, 70, 96
2, 17408, Note_off_c, 0, 70, 0
2, 17408, Note_on_c, 0, 72, 96
2, 18432, Note_off_c, 0, 72, 0
2, 18432, Note_on_c, 0, 69, 96
2, 20480, Note_off_c, 0, 69, 0
2, 23552, Note_on_c, 0, 65, 96
2, 24576, Note_off_c, 0, 65, 0
2, 24576, Note_on_c, 0, 65, 96
2, 25600, Note_off_c, 0, 65, 0
2, 25600, Note_on_c, 0, 67, 96
2, 26624, Note_off_c, 0, 67, 0
2, 26624, Note_on_c, 0, 69, 96
2, 27648, Note_off_c, 0, 69, 0
2, 27648, Note_on_c, 0, 70, 96
2, 28672, Note_off_c, 0, 70, 0
2, 28672, Note_on_c, 0, 72, 96
2, 30720, Note_off_c, 0, 72, 0
2, 31744, Note_on_c, 0, 74, 96
2, 32768, Note_off_c, 0, 74, 0
2, 32768, Note_on_c, 0, 70, 96
2, 33280, Note_off_c, 0, 70, 0
2, 33280, Note_on_c, 0, 72, 96
2, 33792, Note_off_c, 0, 72, 0
2, 33792, Note_on_c, 0, 74, 96
2, 34816, Note_off_c, 0, 74, 0
2, 34816, Note_on_c, 0, 72, 96
2, 35840, Note_off_c, 0, 72, 0
2, 35840, Note_on_c, 0, 72, 96
2, 36864, Note_off_c, 0, 72, 0
2, 36864, Note_on_c, 0, 70, 96
2, 38912, Note_off_c, 0, 70, 0
2, 41984, Note_on_c, 0, 74, 96
2, 43008, Note_off_c, 0, 74, 0
2, 43008, Note_on_c, 0, 74, 96
2, 44032, Note_off_c, 0, 74, 0
2, 44032, Note_on_c, 0, 74, 96
2, 45056, Note_off_c, 0, 74, 0
2, 45056, Note_on_c, 0, 72, 96
2, 46080, Note_off_c, 0, 72, 0
2, 46080, Note_on_c, 0, 72, 96
2, 47104, Note_off_c, 0, 72, 0
2, 47104, Note_on_c, 0, 70, 96
2, 48128, Note_off_c, 0, 70, 0
2, 48128, Note_on_c, 0, 70, 96
2, 49152, Note_off_c, 0, 70, 0
2, 49152, Note_on_c, 0, 69, 96
2, 51200, Note_off_c, 0, 69, 0
2, 52224, Note_on_c, 0, 69, 96
2, 53248, Note_off_c, 0, 69, 0
2, 53248, Note_on_c, 0, 70, 96
2, 54272, Note_off_c, 0, 70, 0
2, 54272, Note_on_c, 0, 69, 96
2, 55296, Note_off_c, 0, 69, 0
2, 55296, Note_on_c, 0, 67, 96
2, 56320, Note_off_c, 0, 67, 0
2, 56320, Note_on_c, 0, 67, 96
2, 57344, Note_off_c, 0, 67, 0
2, 57344, Note_on_c, 0, 65, 96
2, 58368, Note_off_c, 0, 65, 0
2, 58368, Note_on_c, 0, 65, 96
2, 59392, Note_off_c, 0, 65, 0
2, 59392, Note_on_c, 0, 64, 96
2, 61440, Note_off_c, 0, 64, 0
2, 64512, Note_on_c, 0, 67, 96
2, 65536, Note_off_c, 0, 67, 0
2, 65536, Note_on_c, 0, 67, 96
2, 66560, Note_off_c, 0, 67, 0
2, 66560, Note_on_c, 0, 69, 96
2, 67072, Note_off_c, 0, 69, 0
2, 67072, Note_on_c, 0, 70, 96
2, 67584, Note_off_c, 0, 70, 0
2, 67584, Note_on_c, 0, 72, 96
2, 68608, Note_off_c, 0, 72, 0
2, 68608, Note_on_c, 0, 70, 96
2, 69632, Note_off_c, 0, 70, 0
2, 69632, Note_on_c, 0, 69, 96
2, 71680, Note_off_c, 0, 69, 0
2, 71680, Note_on_c, 0, 67, 96
2, 73728, Note_off_c, 0, 67, 0
2, 74752, Note_on_c, 0, 67, 96
2, 75776, Note_off_c, 0, 67, 0
2, 75776, Note_on_c, 0, 67, 96
2, 76800, Note_off_c, 0, 67, 0
2, 76800, Note_on_c, 0, 69, 96
2, 77312, Note_off_c, 0, 69, 0
2, 77312, Note_on_c, 0, 71, 96
2, 77824, Note_off_c, 0, 71, 0
2, 77824, Note_on_c, 0, 72, 96
2, 78848, Note_off_c, 0, 72, 0
2, 78848, Note_on_c, 0, 70, 96
2, 79872, Note_off_c, 0, 70, 0
2, 79872, Note_on_c, 0, 69, 96
2, 81920, Note_off_c, 0, 69, 0
2, 81920, Note_on_c, 0, 69, 96
2, 90112, Note_off_c, 0, 69, 0
2, 90112, End_track
3, 0, Start_track
3, 0, Title_t, "Instrument 2"
3, 3072, Note_on_c, 1, 66, 96
3, 4096, Note_off_c, 1, 66, 0
3, 4096, Note_on_c, 1, 67, 96
3, 5120, Note_off_c, 1, 67, 0
3, 5120, Note_on_c, 1, 65, 96
3, 6144, Note_off_c, 1, 65, 0
3, 6144, Note_on_c, 1, 65, 96
3, 7168, Note_off_c, 1, 65, 0
3, 7168, Note_on_c, 1, 65, 96
3, 8192, Note_off_c, 1, 65, 0
3, 8192, Note_on_c, 1, 67, 96
3, 10240, Note_off_c, 1, 67, 0
3, 13312, Note_on_c, 1, 63, 96
3, 14336, Note_off_c, 1, 63, 0
3, 14336, Note_on_c, 1, 64, 96
3, 15360, Note_off_c, 1, 64, 0
3, 15360, Note_on_c, 1, 66, 96
3, 16384, Note_off_c, 1, 66, 0
3, 16384, Note_on_c, 1, 67, 96
3, 17408, Note_off_c, 1, 67, 0
3, 17408, Note_on_c, 1, 69, 96
3, 18432, Note_off_c, 1, 69, 0
3, 18432, Note_on_c, 1, 66, 96
3, 20480, Note_off_c, 1, 66, 0
3, 23552, Note_on_c, 1, 62, 96
3, 24576, Note_off_c, 1, 62, 0
3, 24576, Note_on_c, 1, 62, 96
3, 25600, Note_off_c, 1, 62, 0
3, 25600, Note_on_c, 1, 64, 96
3, 26624, Note_off_c, 1, 64, 0
3, 26624, Note_on_c, 1, 65, 96
3, 27648, Note_off_c, 1, 65, 0
3, 27648, Note_on_c, 1, 63, 96
3, 28672, Note_off_c, 1, 63, 0
3, 28672, Note_on_c, 1, 63, 96
3, 30720, Note_off_c, 1, 63, 0
3, 31744, Note_on_c, 1, 62, 96
3, 32768, Note_off_c, 1, 62, 0
3, 32768, Note_on_c, 1, 67, 96
3, 33280, Note_off_c, 1, 67, 0
3, 33280, Note_on_c, 1, 69, 96
3, 33792, Note_off_c, 1, 69, 0
3, 33792, Note_on_c, 1, 70, 96
3, 34816, Note_off_c, 1, 70, 0
3, 34816, Note_on_c, 1, 70, 96
3, 35840, Note_off_c, 1, 70, 0
3, 35840, Note_on_c, 1, 69, 96
3, 36864, Note_off_c, 1, 69, 0
3, 36864, Note_on_c, 1, 65, 96
3, 38912, Note_off_c, 1, 65, 0
3, 41984, Note_on_c, 1, 65, 96
3, 43008, Note_off_c, 1, 65, 0
3, 43008, Note_on_c, 1, 67, 96
3, 44032, Note_off_c, 1, 67, 0
3, 44032, Note_on_c, 1, 67, 96
3, 45056, Note_off_c, 1, 67, 0
3, 45056, Note_on_c, 1, 67, 96
3, 46080, Note_off_c, 1, 67, 0
3, 46080, Note_on_c, 1, 62, 96
3, 47104, Note_off_c, 1, 62, 0
3, 47104, Note_on_c, 1, 62, 96
3, 48128, Note_off_c, 1, 62, 0
3, 48128, Note_on_c, 1, 64, 96
3, 49152, Note_off_c, 1, 64, 0
3, 49152, Note_on_c, 1, 66, 96
3, 51200, Note_off_c, 1, 66, 0
3, 52224, Note_on_c, 1, 66, 96
3, 53248, Note_off_c, 1, 66, 0
3, 53248, Note_on_c, 1, 67, 96
3, 54272, Note_off_c, 1, 67, 0
3, 54272, Note_on_c, 1, 65, 96
3, 55296, Note_off_c, 1, 65, 0
3, 55296, Note_on_c, 1, 65, 96
3, 56320, Note_off_c, 1, 65, 0
3, 56320, Note_on_c, 1, 64, 96
3, 57344, Note_off_c, 1, 64, 0
3, 57344, Note_on_c, 1, 62, 96
3, 58368, Note_off_c, 1, 62, 0
3, 58368, Note_on_c, 1, 62, 96
3, 59392, Note_off_c, 1, 62, 0
3, 59392, Note_on_c, 1, 60, 96
3, 61440, Note_off_c, 1, 60, 0
3, 64512, Note_on_c, 1, 62, 96
3, 65536, Note_off_c, 1, 62, 0
3, 65536, Note_on_c, 1, 62, 96
3, 66048, Note_off_c, 1, 62, 0
3, 66048, Note_on_c, 1, 60, 96
3, 66560, Note_off_c, 1, 60, 0
3, 66560, Note_on_c, 1, 65, 96
3, 67584, Note_off_c, 1, 65, 0
3, 67584, Note_on_c, 1, 67, 96
3, 68096, Note_off_c, 1, 67, 0
3, 68096, Note_on_c, 1, 69, 96
3, 68608, Note_off_c, 1, 69, 0
3, 68608, Note_on_c, 1, 62, 96
3, 69120, Note_off_c, 1, 62, 0
3, 69120, Note_on_c, 1, 67, 96
3, 69632, Note_off_c, 1, 67, 0
3, 69632, Note_on_c, 1, 67, 96
3, 70656, Note_off_c, 1, 67, 0
3, 70656, Note_on_c, 1, 66, 96
3, 71680, Note_off_c, 1, 66, 0
3, 71680, Note_on_c, 1, 62, 96
3, 73728, Note_off_c, 1, 62, 0
3, 74752, Note_on_c, 1, 62, 96
3, 75776, Note_off_c, 1, 62, 0
3, 75776, Note_on_c, 1, 63, 96
3, 76800, Note_off_c, 1, 63, 0
3, 76800, Note_on_c, 1, 65, 96
3, 77824, Note_off_c, 1, 65, 0
3, 77824, Note_on_c, 1, 67, 96
3, 78848, Note_off_c, 1, 67, 0
3, 78848, Note_on_c, 1, 67, 96
3, 79872, Note_off_c, 1, 67, 0
3, 79872, Note_on_c, 1, 67, 96
3, 80384, Note_off_c, 1, 67, 0
3, 80384, Note_on_c, 1, 65, 96
3, 80896, Note_off_c, 1, 65, 0
3, 80896, Note_on_c, 1, 64, 96
3, 81920, Note_off_c, 1, 64, 0
3, 81920, Note_on_c, 1, 66, 96
3, 90112, Note_off_c, 1, 66, 0
3, 90112, End_track
4, 0, Start_track
4, 0, Title_t, "Instrument 3"
4, 3072, Note_on_c, 2, 62, 96
4, 4096, Note_off_c, 2, 62, 0
4, 4096, Note_on_c, 2, 62, 96
4, 5120, Note_off_c, 2, 62, 0
4, 5120, Note_on_c, 2, 60, 96
4, 6144, Note_off_c, 2, 60, 0
4, 6144, Note_on_c, 2, 58, 96
4, 7168, Note_off_c, 2, 58, 0
4, 7168, Note_on_c, 2, 65, 96
4, 8192, Note_off_c, 2, 65, 0
4, 8192, Note_on_c, 2, 63, 96
4, 10240, Note_off_c, 2, 63, 0
4, 13312, Note_on_c, 2, 60, 96
4, 14336, Note_off_c, 2, 60, 0
4, 14336, Note_on_c, 2, 60, 96
4, 15360, Note_off_c, 2, 60, 0
4, 15360, Note_on_c, 2, 60, 96
4, 16384, Note_off_c, 2, 60, 0
4, 16384, Note_on_c, 2, 62, 96
4, 17408, Note_off_c, 2, 62, 0
4, 17408, Note_on_c, 2, 63, 96
4, 18432, Note_off_c, 2, 63, 0
4, 18432, Note_on_c, 2, 62, 96
4, 20480, Note_off_c, 2, 62, 0
4, 23552, Note_on_c, 2, 57, 96
4, 24576, Note_off_c, 2, 57, 0
4, 24576, Note_on_c, 2, 58, 96
4, 25600, Note_off_c, 2, 58, 0
4, 25600, Note_on_c, 2, 58, 96
4, 26624, Note_off_c, 2, 58, 0
4, 26624, Note_on_c, 2, 60, 96
4, 27648, Note_off_c, 2, 60, 0
4, 27648, Note_on_c, 2, 58, 96
4, 28672, Note_off_c, 2, 58, 0
4, 28672, Note_on_c, 2, 65, 96
4, 30720, Note_off_c, 2, 65, 0
4, 31744, Note_on_c, 2, 65, 96
4, 32768, Note_off_c, 2, 65, 0
4, 32768, Note_on_c, 2, 63, 96
4, 33792, Note_off_c, 2, 63, 0
4, 33792, Note_on_c, 2, 65, 96
4, 34816, Note_off_c, 2, 65, 0
4, 34816, Note_on_c, 2, 65, 96
4, 35840, Note_off_c, 2, 65, 0
4, 35840, Note_on_c, 2, 60, 96
4, 36864, Note_off_c, 2, 60, 0
4, 36864, Note_on_c, 2, 62, 96
4, 38912, Note_off_c, 2, 62, 0
4, 41984, Note_on_c, 2, 58, 96
4, 43008, Note_off_c, 2, 58, 0
4, 43008, Note_on_c, 2, 58, 96
4, 44032, Note_off_c, 2, 58, 0
4, 44032, Note_on_c, 2, 58, 96
4, 45056, Note_off_c, 2, 58, 0
4, 45056, Note_on_c, 2, 58, 96
4, 46080, Note_off_c, 2, 58, 0
4, 46080, Note_on_c, 2, 57, 96
4, 48128, Note_off_c, 2, 57, 0
4, 48128, Note_on_c, 2, 55, 96
4, 49152, Note_off_c, 2, 55, 0
4, 49152, Note_on_c, 2, 57, 96
4, 51200, Note_off_c, 2, 57, 0
4, 52224, Note_on_c, 2, 62, 96
4, 53248, Note_off_c, 2, 62, 0
4, 53248, Note_on_c, 2, 62, 96
4, 54272, Note_off_c, 2, 62, 0
4, 54272, Note_on_c, 2, 60, 96
4, 55296, Note_off_c, 2, 60, 0
4, 55296, Note_on_c, 2, 62, 96
4, 56320, Note_off_c, 2, 62, 0
4, 56320, Note_on_c, 2, 55, 96
4, 57344, Note_off_c, 2, 55, 0
4, 57344, Note_on_c, 2, 57, 96
4, 58368, Note_off_c, 2, 57, 0
4, 58368, Note_on_c, 2, 55, 96
4, 59392, Note_off_c, 2, 55, 0
4, 59392, Note_on_c, 2, 55, 96
4, 61440, Note_off_c, 2, 55, 0
4, 64512, Note_on_c, 2, 55, 96
4, 65536, Note_off_c, 2, 55, 0
4, 65536, Note_on_c, 2, 55, 96
4, 66560, Note_off_c, 2, 55, 0
4, 66560, Note_on_c, 2, 62, 96
4, 67584, Note_off_c, 2, 62, 0
4, 67584, Note_on_c, 2, 60, 96
4, 68096, Note_off_c, 2, 60, 0
4, 68096, Note_on_c, 2, 57, 96
4, 68608, Note_off_c, 2, 57, 0
4, 68608, Note_on_c, 2, 58, 96
4, 69120, Note_off_c, 2, 58, 0
4, 69120, Note_on_c, 2, 55, 96
4, 69632, Note_off_c, 2, 55, 0
4, 69632, Note_on_c, 2, 63, 96
4, 70656, Note_off_c, 2, 63, 0
4, 70656, Note_on_c, 2, 57, 96
4, 71680, Note_off_c, 2, 57, 0
4, 71680, Note_on_c, 2, 58, 96
4, 73728, Note_off_c, 2, 58, 0
4, 74752, Note_on_c, 2, 59, 96
4, 75776, Note_off_c, 2, 59, 0
4, 75776, Note_on_c, 2, 60, 96
4, 76800, Note_off_c, 2, 60, 0
4, 76800, Note_on_c, 2, 65, 96
4, 77824, Note_off_c, 2, 65, 0
4, 77824, Note_on_c, 2, 63, 96
4, 78848, Note_off_c, 2, 63, 0
4, 78848, Note_on_c, 2, 62, 96
4, 79872, Note_off_c, 2, 62, 0
4, 79872, Note_on_c, 2, 61, 96
4, 80384, Note_off_c, 2, 61, 0
4, 80384, Note_on_c, 2, 62, 96
4, 81408, Note_off_c, 2, 62, 0
4, 81408, Note_on_c, 2, 61, 96
4, 81920, Note_off_c, 2, 61, 0
4, 81920, Note_on_c, 2, 62, 96
4, 90112, Note_off_c, 2, 62, 0
4, 90112, End_track
5, 0, Start_track
5, 0, Title_t, "Instrument 4"
5, 3072, Note_on_c, 3, 50, 96
5, 4096, Note_off_c, 3, 50, 0
5, 4096, Note_on_c, 3, 55, 96
5, 5120, Note_off_c, 3, 55, 0
5, 5120, Note_on_c, 3, 57, 96
5, 6144, Note_off_c, 3, 57, 0
5, 6144, Note_on_c, 3, 58, 96
5, 7168, Note_off_c, 3, 58, 0
5, 7168, Note_on_c, 3, 62, 96
5, 8192, Note_off_c, 3, 62, 0
5, 8192, Note_on_c, 3, 60, 96
5, 10240, Note_off_c, 3, 60, 0
5, 13312, Note_on_c, 3, 60, 96
5, 14336, Note_off_c, 3, 60, 0
5, 14336, Note_on_c, 3, 58, 96
5, 15360, Note_off_c, 3, 58, 0
5, 15360, Note_on_c, 3, 57, 96
5, 16384, Note_off_c, 3, 57, 0
5, 16384, Note_on_c, 3, 55, 96
5, 17408, Note_off_c, 3, 55, 0
5, 17408, Note_on_c, 3, 48, 96
5, 18432, Note_off_c, 3, 48, 0
5, 18432, Note_on_c, 3, 50, 96
5, 20480, Note_off_c, 3, 50, 0
5, 23552, Note_on_c, 3, 50, 96
5, 24064, Note_off_c, 3, 50, 0
5, 24064, Note_on_c, 3, 48, 96
5, 24576, Note_off_c, 3, 48, 0
5, 24576, Note_on_c, 3, 46, 96
5, 25088, Note_off_c, 3, 46, 0
5, 25088, Note_on_c, 3, 58, 96
5, 25600, Note_off_c, 3, 58, 0
5, 25600, Note_on_c, 3, 57, 96
5, 26112, Note_off_c, 3, 57, 0
5, 26112, Note_on_c, 3, 55, 96
5, 26624, Note_off_c, 3, 55, 0
5, 26624, Note_on_c, 3, 53, 96
5, 27648, Note_off_c, 3, 53, 0
5, 27648, Note_on_c, 3, 55, 96
5, 28672, Note_off_c, 3, 55, 0
5, 28672, Note_on_c, 3, 57, 96
5, 30720, Note_off_c, 3, 57, 0
5, 31744, Note_on_c, 3, 58, 96
5, 32768, Note_off_c, 3, 58, 0
5, 32768, Note_on_c, 3, 51, 96
5, 33792, Note_off_c, 3, 51, 0
5, 33792, Note_on_c, 3, 50, 96
5, 34304, Note_off_c, 3, 50, 0
5, 34304, Note_on_c, 3, 51, 96
5, 34816, Note_off_c, 3, 51, 0
5, 34816, Note_on_c, 3, 53, 96
5, 35840, Note_off_c, 3, 53, 0
5, 35840, Note_on_c, 3, 41, 96
5, 36864, Note_off_c, 3, 41, 0
5, 36864, Note_on_c, 3, 46, 96
5, 38912, Note_off_c, 3, 46, 0
5, 41984, Note_on_c, 3, 58, 96
5, 42496, Note_off_c, 3, 58, 0
5, 42496, Note_on_c, 3, 57, 96
5, 43008, Note_off_c, 3, 57, 0
5, 43008, Note_on_c, 3, 55, 96
5, 44032, Note_off_c, 3, 55, 0
5, 44032, Note_on_c, 3, 53, 96
5, 45056, Note_off_c, 3, 53, 0
5, 45056, Note_on_c, 3, 52, 96
5, 46080, Note_off_c, 3, 52, 0
5, 46080, Note_on_c, 3, 54, 96
5, 47104, Note_off_c, 3, 54, 0
5, 47104, Note_on_c, 3, 55, 96
5, 48128, Note_off_c, 3, 55, 0
5, 48128, Note_on_c, 3, 43, 96
5, 49152, Note_off_c, 3, 43, 0
5, 49152, Note_on_c, 3, 50, 96
5, 51200, Note_off_c, 3, 50, 0
5, 52224, Note_on_c, 3, 50, 96
5, 53248, Note_off_c, 3, 50, 0
5, 53248, Note_on_c, 3, 43, 96
5, 54272, Note_off_c, 3, 43, 0
5, 54272, Note_on_c, 3, 45, 96
5, 55296, Note_off_c, 3, 45, 0
5, 55296, Note_on_c, 3, 47, 96
5, 56320, Note_off_c, 3, 47, 0
5, 56320, Note_on_c, 3, 48, 96
5, 58368, Note_off_c, 3, 48, 0
5, 58368, Note_on_c, 3, 47, 96
5, 59392, Note_off_c, 3, 47, 0
5, 59392, Note_on_c, 3, 48, 96
5, 61440, Note_off_c, 3, 48, 0
5, 64512, Note_on_c, 3, 46, 96
5, 65536, Note_off_c, 3, 46, 0
5, 65536, Note_on_c, 3, 51, 96
5, 66560, Note_off_c, 3, 51, 0
5, 66560, Note_on_c, 3, 50, 96
5, 67584, Note_off_c, 3, 50, 0
5, 67584, Note_on_c, 3, 52, 96
5, 68096, Note_off_c, 3, 52, 0
5, 68096, Note_on_c, 3, 54, 96
5, 68608, Note_off_c, 3, 54, 0
5, 68608, Note_on_c, 3, 55, 96
5, 69632, Note_off_c, 3, 55, 0
5, 69632, Note_on_c, 3, 48, 96
5, 70656, Note_off_c, 3, 48, 0
5, 70656, Note_on_c, 3, 50, 96
5, 71680, Note_off_c, 3, 50, 0
5, 71680, Note_on_c, 3, 43, 96
5, 73728, Note_off_c, 3, 43, 0
5, 74752, Note_on_c, 3, 53, 96
5, 75776, Note_off_c, 3, 53, 0
5, 75776, Note_on_c, 3, 51, 96
5, 76800, Note_off_c, 3, 51, 0
5, 76800, Note_on_c, 3, 50, 96
5, 77824, Note_off_c, 3, 50, 0
5, 77824, Note_on_c, 3, 48, 96
5, 78848, Note_off_c, 3, 48, 0
5, 78848, Note_on_c, 3, 43, 96
5, 79872, Note_off_c, 3, 43, 0
5, 79872, Note_on_c, 3, 45, 96
5, 81920, Note_off_c, 3, 45, 0
5, 81920, Note_on_c, 3, 50, 96
5, 90112, Note_off_c, 3, 50, 0
5, 90112, End_track
6, 0, Start_track
6, 0, Title_t, "Instrument 5"
6, 3072, Note_on_c, 4, 86, 96
6, 3072, Note_on_c, 4, 81, 96
6, 3584, Note_off_c, 4, 86, 0
6, 3584, Note_on_c, 4, 84, 96
6, 4096, Note_off_c, 4, 84, 0
6, 4096, Note_off_c, 4, 81, 0
6, 4096, Note_on_c, 4, 82, 96
6, 4096, Note_on_c, 4, 79, 96
6, 5120, Note_off_c, 4, 82, 0
6, 5120, Note_on_c, 4, 89, 96
6, 5120, Note_off_c, 4, 79, 0
6, 5120, Note_on_c, 4, 84, 96
6, 5632, Note_off_c, 4, 89, 0
6, 5632, Note_on_c, 4, 87, 96
6, 6144, Note_off_c, 4, 87, 0
6, 6144, Note_on_c, 4, 86, 96
6, 6144, Note_off_c, 4, 84, 0
6, 6144, Note_on_c, 4, 77, 96
6, 7168, Note_off_c, 4, 86, 0
6, 7168, Note_on_c, 4, 86, 96
6, 7168, Note_off_c, 4, 77, 0
6, 7168, Note_on_c, 4, 77, 96
6, 8192, Note_off_c, 4, 86, 0
6, 8192, Note_off_c, 4, 77, 0
6, 8192, Note_on_c, 4, 79, 96
6, 8192, Note_on_c, 4, 84, 96
6, 8704, Note_off_c, 4, 79, 0
6, 8704, Note_on_c, 4, 87, 96
6, 8960, Note_off_c, 4, 87, 0
6, 8960, Note_on_c, 4, 86, 96
6, 9216, Note_off_c, 4, 86, 0
6, 9216, Note_on_c, 4, 84, 96
6, 9216, Note_off_c, 4, 84, 0
6, 9216, Note_on_c, 4, 87, 96
6, 9472, Note_off_c, 4, 84, 0
6, 9472, Note_on_c, 4, 82, 96
6, 9472, Note_off_c, 4, 87, 0
6, 9472, Note_on_c, 4, 86, 96
6, 9728, Note_off_c, 4, 82, 0
6, 9728, Note_on_c, 4, 80, 96
6, 9728, Note_off_c, 4, 86, 0
6, 9728, Note_on_c, 4, 84, 96
6, 9984, Note_off_c, 4, 80, 0
6, 9984, Note_on_c, 4, 79, 96
6, 9984, Note_off_c, 4, 84, 0
6, 9984, Note_on_c, 4, 82, 96
6, 10240, Note_off_c, 4, 79, 0
6, 10240, Note_on_c, 4, 77, 96
6, 10240, Note_off_c, 4, 82, 0
6, 10240, Note_on_c, 4, 80, 96
6, 10496, Note_off_c, 4, 77, 0
6, 10496, Note_on_c, 4, 87, 96
6, 10496, Note_off_c, 4, 80, 0
6, 10496, Note_on_c, 4, 79, 96
6, 10752, Note_off_c, 4, 87, 0
6, 10752, Note_on_c, 4, 86, 96
6, 10752, Note_off_c, 4, 79, 0
6, 10752, Note_on_c, 4, 77, 96
6, 11008, Note_off_c, 4, 86, 0
6, 11008, Note_on_c, 4, 84, 96
6, 11008, Note_off_c, 4, 77, 0
6, 11008, Note_on_c, 4, 87, 96
6, 11264, Note_off_c, 4, 84, 0
6, 11264, Note_on_c, 4, 83, 96
6, 11264, Note_off_c, 4, 87, 0
6, 11264, Note_on_c, 4, 86, 96
6, 11520, Note_off_c, 4, 83, 0
6, 11520, Note_on_c, 4, 80, 96
6, 11520, Note_off_c, 4, 86, 0
6, 11520, Note_on_c, 4, 84, 96
6, 11776, Note_off_c, 4, 80, 0
6, 11776, Note_on_c, 4, 79, 96
6, 11776, Note_off_c, 4, 84, 0
6, 11776, Note_on_c, 4, 83, 96
6, 12032, Note_off_c, 4, 79, 0
6, 12032, Note_on_c, 4, 77, 96
6, 12032, Note_off_c, 4, 83, 0
6, 12032, Note_on_c, 4, 80, 96
6, 12288, Note_off_c, 4, 77, 0
6, 12288, Note_off_c, 4, 80, 0
6, 12288, Note_on_c, 4, 75, 96
6, 12288, Note_on_c, 4, 79, 96
6, 12544, Note_off_c, 4, 75, 0
6, 12544, Note_on_c, 4, 86, 96
6, 12544, Note_off_c, 4, 79, 0
6, 12544, Note_on_c, 4, 77, 96
6, 12800, Note_off_c, 4, 86, 0
6, 12800, Note_on_c, 4, 84, 96
6, 12800, Note_off_c, 4, 77, 0
6, 12800, Note_on_c, 4, 75, 96
6, 13056, Note_off_c, 4, 84, 0
6, 13056, Note_on_c, 4, 83, 96
6, 13056, Note_off_c, 4, 75, 0
6, 13056, Note_on_c, 4, 74, 96
6, 13312, Note_off_c, 4, 83, 0
6, 13312, Note_on_c, 4, 84, 96
6, 13312, Note_off_c, 4, 74, 0
6, 13312, Note_on_c, 4, 75, 96
6, 13824, Note_off_c, 4, 75, 0
6, 13824, Note_on_c, 4, 77, 96
6, 14336, Note_off_c, 4, 84, 0
6, 14336, Note_on_c, 4, 84, 96
6, 14336, Note_off_c, 4, 77, 0
6, 14336, Note_on_c, 4, 79, 96
6, 15360, Note_off_c, 4, 84, 0
6, 15360, Note_on_c, 4, 84, 96
6, 15360, Note_off_c, 4, 79, 0
6, 15360, Note_on_c, 4, 78, 96
6, 15872, Note_off_c, 4, 78, 0
6, 15872, Note_on_c, 4, 81, 96
6, 16384, Note_off_c, 4, 84, 0
6, 16384, Note_off_c, 4, 81, 0
6, 16384, Note_on_c, 4, 82, 96
6, 16384, Note_on_c, 4, 74, 96
6, 17408, Note_off_c, 4, 82, 0
6, 17408, Note_on_c, 4, 81, 96
6, 17408, Note_off_c, 4, 74, 0
6, 17408, Note_on_c, 4, 72, 96
6, 17920, Note_off_c, 4, 81, 0
6, 17920, Note_on_c, 4, 79, 96
6, 17920, Note_off_c, 4, 72, 0
6, 17920, Note_on_c, 4, 70, 96
6, 18176, Note_off_c, 4, 70, 0
6, 18176, Note_on_c, 4, 69, 96
6, 18432, Note_off_c, 4, 79, 0
6, 18432, Note_on_c, 4, 86, 96
6, 18432, Note_off_c, 4, 69, 0
6, 18432, Note_on_c, 4, 81, 96
6, 18944, Note_off_c, 4, 86, 0
6, 18944, Note_on_c, 4, 84, 96
6, 19200, Note_off_c, 4, 84, 0
6, 19200, Note_on_c, 4, 82, 96
6, 19456, Note_off_c, 4, 82, 0
6, 19456, Note_on_c, 4, 81, 96
6, 19456, Note_off_c, 4, 81, 0
6, 19456, Note_on_c, 4, 84, 96
6, 19712, Note_off_c, 4, 81, 0
6, 19712, Note_on_c, 4, 79, 96
6, 19712, Note_off_c, 4, 84, 0
6, 19712, Note_on_c, 4, 82, 96
6, 19968, Note_off_c, 4, 79, 0
6, 19968, Note_on_c, 4, 78, 96
6, 19968, Note_off_c, 4, 82, 0
6, 19968, Note_on_c, 4, 81, 96
6, 20224, Note_off_c, 4, 78, 0
6, 20224, Note_on_c, 4, 76, 96
6, 20224, Note_off_c, 4, 81, 0
6, 20224, Note_on_c, 4, 79, 96
6, 20480, Note_off_c, 4, 76, 0
6, 20480, Note_off_c, 4, 79, 0
6, 20480, Note_on_c, 4, 74, 96
6, 20480, Note_on_c, 4, 78, 96
6, 20736, Note_off_c, 4, 74, 0
6, 20736, Note_on_c, 4, 84, 96
6, 20736, Note_off_c, 4, 78, 0
6, 20736, Note_on_c, 4, 76, 96
6, 20992, Note_off_c, 4, 84, 0
6, 20992, Note_on_c, 4, 82, 96
6, 20992, Note_off_c, 4, 76, 0
6, 20992, Note_on_c, 4, 74, 96
6, 21248, Note_off_c, 4, 82, 0
6, 21248, Note_on_c, 4, 81, 96
6, 21248, Note_off_c, 4, 74, 0
6, 21248, Note_on_c, 4, 84, 96
6, 21504, Note_off_c, 4, 81, 0
6, 21504, Note_on_c, 4, 79, 96
6, 21504, Note_off_c, 4, 84, 0
6, 21504, Note_on_c, 4, 82, 96
6, 21760, Note_off_c, 4, 79, 0
6, 21760, Note_on_c, 4, 78, 96
6, 21760, Note_off_c, 4, 82, 0
6, 21760, Note_on_c, 4, 81, 96
6, 22016, Note_off_c, 4, 78, 0
6, 22016, Note_on_c, 4, 87, 96
6, 22016, Note_off_c, 4, 81, 0
6, 22016, Note_on_c, 4, 79, 96
6, 22272, Note_off_c, 4, 87, 0
6, 22272, Note_on_c, 4, 86, 96
6, 22272, Note_off_c, 4, 79, 0
6, 22272, Note_on_c, 4, 78, 96
6, 22528, Note_off_c, 4, 86, 0
6, 22528, Note_on_c, 4, 84, 96
6, 22528, Note_off_c, 4, 78, 0
6, 22528, Note_on_c, 4, 87, 96
6, 22784, Note_off_c, 4, 84, 0
6, 22784, Note_on_c, 4, 82, 96
6, 22784, Note_off_c, 4, 87, 0
6, 22784, Note_on_c, 4, 86, 96
6, 23040, Note_off_c, 4, 82, 0
6, 23040, Note_on_c, 4, 81, 96
6, 23040, Note_off_c, 4, 86, 0
6, 23040, Note_on_c, 4, 84, 96
6, 23296, Note_off_c, 4, 81, 0
6, 23296, Note_on_c, 4, 79, 96
6, 23296, Note_off_c, 4, 84, 0
6, 23296, Note_on_c, 4, 82, 96
6, 23552, Note_off_c, 4, 79, 0
6, 23552, Note_on_c, 4, 77, 96
6, 23552, Note_off_c, 4, 82, 0
6, 23552, Note_on_c, 4, 81, 96
6, 24064, Note_off_c, 4, 77, 0
6, 24064, Note_on_c, 4, 75, 96
6, 24576, Note_off_c, 4, 75, 0
6, 24576, Note_off_c, 4, 81, 0
6, 24576, Note_on_c, 4, 74, 96
6, 24576, Note_on_c, 4, 86, 96
6, 25088, Note_off_c, 4, 74, 0
6, 25088, Note_on_c, 4, 86, 96
6, 25600, Note_off_c, 4, 86, 0
6, 25600, Note_on_c, 4, 84, 96
6, 25600, Note_off_c, 4, 86, 0
6, 25600, Note_on_c, 4, 79, 96
6, 26112, Note_off_c, 4, 84, 0
6, 26112, Note_on_c, 4, 82, 96
6, 26624, Note_off_c, 4, 82, 0
6, 26624, Note_on_c, 4, 81, 96
6, 26624, Note_off_c, 4, 79, 0
6, 26624, Note_on_c, 4, 72, 96
6, 27136, Note_off_c, 4, 72, 0
6, 27136, Note_on_c, 4, 74, 96
6, 27648, Note_off_c, 4, 81, 0
6, 27648, Note_on_c, 4, 79, 96
6, 27648, Note_off_c, 4, 74, 0
6, 27648, Note_on_c, 4, 75, 96
6, 28160, Note_off_c, 4, 75, 0
6, 28160, Note_on_c, 4, 74, 96
6, 28672, Note_off_c, 4, 79, 0
6, 28672, Note_off_c, 4, 74, 0
6, 28672, Note_on_c, 4, 77, 96
6, 28672, Note_on_c, 4, 72, 96
6, 29184, Note_off_c, 4, 77, 0
6, 29184, Note_on_c, 4, 84, 96
6, 29440, Note_off_c, 4, 84, 0
6, 29440, Note_on_c, 4, 82, 96
6, 29696, Note_off_c, 4, 82, 0
6, 29696, Note_on_c, 4, 81, 96
6, 29696, Note_off_c, 4, 72, 0
6, 29696, Note_on_c, 4, 84, 96
6, 29952, Note_off_c, 4, 81, 0
6, 29952, Note_on_c, 4, 79, 96
6, 29952, Note_off_c, 4, 84, 0
6, 29952, Note_on_c, 4, 82, 96
6, 30208, Note_off_c, 4, 79, 0
6, 30208, Note_on_c, 4, 77, 96
6, 30208, Note_off_c, 4, 82, 0
6, 30208, Note_on_c, 4, 81, 96
6, 30464, Note_off_c, 4, 77, 0
6, 30464, Note_on_c, 4, 87, 96
6, 30464, Note_off_c, 4, 81, 0
6, 30464, Note_on_c, 4, 79, 96
6, 30720, Note_off_c, 4, 87, 0
6, 30720, Note_on_c, 4, 86, 96
6, 30720, Note_off_c, 4, 79, 0
6, 30720, Note_on_c, 4, 77, 96
6, 30976, Note_off_c, 4, 86, 0
6, 30976, Note_on_c, 4, 84, 96
6, 30976, Note_off_c, 4, 77, 0
6, 30976, Note_on_c, 4, 87, 96
6, 31232, Note_off_c, 4, 84, 0
6, 31232, Note_on_c, 4, 82, 96
6, 31232, Note_off_c, 4, 87, 0
6, 31232, Note_on_c, 4, 86, 96
6, 31488, Note_off_c, 4, 82, 0
6, 31488, Note_on_c, 4, 81, 96
6, 31488, Note_off_c, 4, 86, 0
6, 31488, Note_on_c, 4, 84, 96
6, 31744, Note_off_c, 4, 81, 0
6, 31744, Note_on_c, 4, 82, 96
6, 31744, Note_off_c, 4, 84, 0
6, 31744, Note_on_c, 4, 82, 96
6, 32256, Note_off_c, 4, 82, 0
6, 32256, Note_on_c, 4, 80, 96
6, 32768, Note_off_c, 4, 82, 0
6, 32768, Note_off_c, 4, 80, 0
6, 32768, Note_on_c, 4, 82, 96
6, 32768, Note_on_c, 4, 79, 96
6, 33792, Note_off_c, 4, 82, 0
6, 33792, Note_on_c, 4, 82, 96
6, 33792, Note_off_c, 4, 79, 0
6, 33792, Note_on_c, 4, 77, 96
6, 34816, Note_off_c, 4, 82, 0
6, 34816, Note_on_c, 4, 77, 96
6, 34816, Note_off_c, 4, 77, 0
6, 34816, Note_on_c, 4, 72, 96
6, 35328, Note_off_c, 4, 77, 0
6, 35328, Note_on_c, 4, 79, 96
6, 35840, Note_off_c, 4, 79, 0
6, 35840, Note_on_c, 4, 81, 96
6, 35840, Note_off_c, 4, 72, 0
6, 35840, Note_on_c, 4, 77, 96
6, 36352, Note_off_c, 4, 77, 0
6, 36352, Note_on_c, 4, 75, 96
6, 36864, Note_off_c, 4, 81, 0
6, 36864, Note_off_c, 4, 75, 0
6, 36864, Note_on_c, 4, 82, 96
6, 36864, Note_on_c, 4, 74, 96
6, 37376, Note_off_c, 4, 82, 0
6, 37376, Note_on_c, 4, 86, 96
6, 37632, Note_off_c, 4, 86, 0
6, 37632, Note_on_c, 4, 84, 96
6, 37888, Note_off_c, 4, 84, 0
6, 37888, Note_on_c, 4, 82, 96
6, 37888, Note_off_c, 4, 74, 0
6, 37888, Note_on_c, 4, 86, 96
6, 38144, Note_off_c, 4, 82, 0
6, 38144, Note_on_c, 4, 80, 96
6, 38144, Note_off_c, 4, 86, 0
6, 38144, Note_on_c, 4, 84, 96
6, 38400, Note_off_c, 4, 80, 0
6, 38400, Note_on_c, 4, 79, 96
6, 38400, Note_off_c, 4, 84, 0
6, 38400, Note_on_c, 4, 82, 96
6, 38656, Note_off_c, 4, 79, 0
6, 38656, Note_on_c, 4, 77, 96
6, 38656, Note_off_c, 4, 82, 0
6, 38656, Note_on_c, 4, 80, 96
6, 38912, Note_off_c, 4, 77, 0
6, 38912, Note_on_c, 4, 75, 96
6, 38912, Note_off_c, 4, 80, 0
6, 38912, Note_on_c, 4, 79, 96
6, 39168, Note_off_c, 4, 75, 0
6, 39168, Note_on_c, 4, 86, 96
6, 39168, Note_off_c, 4, 79, 0
6, 39168, Note_on_c, 4, 77, 96
6, 39424, Note_off_c, 4, 86, 0
6, 39424, Note_on_c, 4, 84, 96
6, 39424, Note_off_c, 4, 77, 0
6, 39424, Note_on_c, 4, 75, 96
6, 39680, Note_off_c, 4, 84, 0
6, 39680, Note_on_c, 4, 82, 96
6, 39680, Note_off_c, 4, 75, 0
6, 39680, Note_on_c, 4, 86, 96
6, 39936, Note_off_c, 4, 82, 0
6, 39936, Note_on_c, 4, 81, 96
6, 39936, Note_off_c, 4, 86, 0
6, 39936, Note_on_c, 4, 84, 96
6, 40192, Note_off_c, 4, 81, 0
6, 40192, Note_on_c, 4, 79, 96
6, 40192, Note_off_c, 4, 84, 0
6, 40192, Note_on_c, 4, 82, 96
6, 40448, Note_off_c, 4, 79, 0
6, 40448, Note_on_c, 4, 77, 96
6, 40448, Note_off_c, 4, 82, 0
6, 40448, Note_on_c, 4, 81, 96
6, 40704, Note_off_c, 4, 77, 0
6, 40704, Note_on_c, 4, 75, 96
6, 40704, Note_off_c, 4, 81, 0
6, 40704, Note_on_c, 4, 79, 96
6, 40960, Note_off_c, 4, 75, 0
6, 40960, Note_off_c, 4, 79, 0
6, 40960, Note_on_c, 4, 74, 96
6, 40960, Note_on_c, 4, 77, 96
6, 41216, Note_off_c, 4, 74, 0
6, 41216, Note_on_c, 4, 84, 96
6, 41216, Note_off_c, 4, 77, 0
6, 41216, Note_on_c, 4, 75, 96
6, 41472, Note_off_c, 4, 84, 0
6, 41472, Note_on_c, 4, 82, 96
6, 41472, Note_off_c, 4, 75, 0
6, 41472, Note_on_c, 4, 74, 96
6, 41728, Note_off_c, 4, 82, 0
6, 41728, Note_on_c, 4, 81, 96
6, 41728, Note_off_c, 4, 74, 0
6, 41728, Note_on_c, 4, 72, 96
6, 41984, Note_off_c, 4, 81, 0
6, 41984, Note_on_c, 4, 82, 96
6, 41984, Note_off_c, 4, 72, 0
6, 41984, Note_on_c, 4, 74, 96
6, 42496, Note_off_c, 4, 74, 0
6, 42496, Note_on_c, 4, 72, 96
6, 43008, Note_off_c, 4, 82, 0
6, 43008, Note_on_c, 4, 82, 96
6, 43008, Note_off_c, 4, 72, 0
6, 43008, Note_on_c, 4, 70, 96
6, 43520, Note_off_c, 4, 82, 0
6, 43520, Note_on_c, 4, 81, 96
6, 44032, Note_off_c, 4, 81, 0
6, 44032, Note_on_c, 4, 79, 96
6, 44032, Note_off_c, 4, 70, 0
6, 44032, Note_on_c, 4, 70, 96
6, 45056, Note_off_c, 4, 79, 0
6, 45056, Note_off_c, 4, 70, 0
6, 45056, Note_on_c, 4, 79, 96
6, 45056, Note_on_c, 4, 72, 96
6, 45568, Note_off_c, 4, 72, 0
6, 45568, Note_on_c, 4, 67, 96
6, 46080, Note_off_c, 4, 79, 0
6, 46080, Note_on_c, 4, 81, 96
6, 46080, Note_off_c, 4, 67, 0
6, 46080, Note_on_c, 4, 74, 96
6, 47104, Note_off_c, 4, 81, 0
6, 47104, Note_on_c, 4, 82, 96
6, 47616, Note_off_c, 4, 82, 0
6, 47616, Note_on_c, 4, 86, 96
6, 48128, Note_off_c, 4, 74, 0
6, 48128, Note_on_c, 4, 79, 96
6, 48640, Note_off_c, 4, 86, 0
6, 48640, Note_on_c, 4, 85, 96
6, 49152, Note_off_c, 4, 85, 0
6, 49152, Note_off_c, 4, 79, 0
6, 49152, Note_on_c, 4, 86, 96
6, 49152, Note_on_c, 4, 78, 96
6, 49664, Note_off_c, 4, 86, 0
6, 49664, Note_on_c, 4, 87, 96
6, 49920, Note_off_c, 4, 87, 0
6, 49920, Note_on_c, 4, 86, 96
6, 50176, Note_off_c, 4, 86, 0
6, 50176, Note_on_c, 4, 84, 96
6, 50176, Note_off_c, 4, 78, 0
6, 50176, Note_on_c, 4, 87, 96
6, 50432, Note_off_c, 4, 84, 0
6, 50432, Note_on_c, 4, 82, 96
6, 50432, Note_off_c, 4, 87, 0
6, 50432, Note_on_c, 4, 86, 96
6, 50688, Note_off_c, 4, 82, 0
6, 50688, Note_on_c, 4, 81, 96
6, 50688, Note_off_c, 4, 86, 0
6, 50688, Note_on_c, 4, 84, 96
6, 50944, Note_off_c, 4, 81, 0
6, 50944, Note_on_c, 4, 79, 96
6, 50944, Note_off_c, 4, 84, 0
6, 50944, Note_on_c, 4, 82, 96
6, 51200, Note_off_c, 4, 79, 0
6, 51200, Note_on_c, 4, 78, 96
6, 51200, Note_off_c, 4, 82, 0
6, 51200, Note_on_c, 4, 81, 96
6, 51456, Note_off_c, 4, 78, 0
6, 51456, Note_on_c, 4, 76, 96
6, 51456, Note_off_c, 4, 81, 0
6, 51456, Note_on_c, 4, 79, 96
6, 51712, Note_off_c, 4, 76, 0
6, 51712, Note_on_c, 4, 74, 96
6, 51712, Note_off_c, 4, 79, 0
6, 51712, Note_on_c, 4, 78, 96
6, 51968, Note_off_c, 4, 74, 0
6, 51968, Note_on_c, 4, 73, 96
6, 51968, Note_off_c, 4, 78, 0
6, 51968, Note_on_c, 4, 76, 96
6, 52224, Note_off_c, 4, 73, 0
6, 52224, Note_on_c, 4, 74, 96
6, 52224, Note_off_c, 4, 76, 0
6, 52224, Note_on_c, 4, 78, 96
6, 53248, Note_off_c, 4, 78, 0
6, 53248, Note_on_c, 4, 70, 96
6, 53760, Note_off_c, 4, 74, 0
6, 53760, Note_on_c, 4, 75, 96
6, 54272, Note_off_c, 4, 75, 0
6, 54272, Note_on_c, 4, 77, 96
6, 54272, Note_off_c, 4, 70, 0
6, 54272, Note_on_c, 4, 72, 96
6, 54784, Note_off_c, 4, 77, 0
6, 54784, Note_on_c, 4, 75, 96
6, 55296, Note_off_c, 4, 75, 0
6, 55296, Note_on_c, 4, 74, 96
6, 55296, Note_off_c, 4, 72, 0
6, 55296, Note_on_c, 4, 79, 96
6, 56320, Note_off_c, 4, 74, 0
6, 56320, Note_on_c, 4, 76, 96
6, 56320, Note_off_c, 4, 79, 0
6, 56320, Note_on_c, 4, 72, 96
6, 57344, Note_off_c, 4, 76, 0
6, 57344, Note_off_c, 4, 72, 0
6, 57344, Note_on_c, 4, 77, 96
6, 57344, Note_on_c, 4, 74, 96
6, 58368, Note_off_c, 4, 77, 0
6, 58368, Note_on_c, 4, 79, 96
6, 58368, Note_off_c, 4, 74, 0
6, 58368, Note_on_c, 4, 74, 96
6, 59392, Note_off_c, 4, 79, 0
6, 59392, Note_on_c, 4, 79, 96
6, 59392, Note_off_c, 4, 74, 0
6, 59392, Note_on_c, 4, 76, 96
6, 59648, Note_off_c, 4, 79, 0
6, 59648, Note_on_c, 4, 84, 96
6, 59904, Note_off_c, 4, 84, 0
6, 59904, Note_on_c, 4, 82, 96
6, 60160, Note_off_c, 4, 82, 0
6, 60160, Note_on_c, 4, 80, 96
6, 60160, Note_off_c, 4, 76, 0
6, 60160, Note_on_c, 4, 84, 96
6, 60416, Note_off_c, 4, 80, 0
6, 60416, Note_on_c, 4, 79, 96
6, 60416, Note_off_c, 4, 84, 0
6, 60416, Note_on_c, 4, 82, 96
6, 60672, Note_off_c, 4, 79, 0
6, 60672, Note_on_c, 4, 77, 96
6, 60672, Note_off_c, 4, 82, 0
6, 60672, Note_on_c, 4, 80, 96
6, 60928, Note_off_c, 4, 77, 0
6, 60928, Note_on_c, 4, 76, 96
6, 60928, Note_off_c, 4, 80, 0
6, 60928, Note_on_c, 4, 79, 96
6, 61184, Note_off_c, 4, 76, 0
6, 61184, Note_on_c, 4, 85, 96
6, 61184, Note_off_c, 4, 79, 0
6, 61184, Note_on_c, 4, 77, 96
6, 61440, Note_off_c, 4, 85, 0
6, 61440, Note_off_c, 4, 77, 0
6, 61440, Note_on_c, 4, 84, 96
6, 61440, Note_on_c, 4, 76, 96
6, 61696, Note_off_c, 4, 84, 0
6, 61696, Note_on_c, 4, 82, 96
6, 61696, Note_off_c, 4, 76, 0
6, 61696, Note_on_c, 4, 85, 96
6, 61952, Note_off_c, 4, 82, 0
6, 61952, Note_on_c, 4, 80, 96
6, 61952, Note_off_c, 4, 85, 0
6, 61952, Note_on_c, 4, 84, 96
6, 62208, Note_off_c, 4, 80, 0
6, 62208, Note_on_c, 4, 79, 96
6, 62208, Note_off_c, 4, 84, 0
6, 62208, Note_on_c, 4, 82, 96
6, 62464, Note_off_c, 4, 79, 0
6, 62464, Note_on_c, 4, 78, 96
6, 62464, Note_off_c, 4, 82, 0
6, 62464, Note_on_c, 4, 81, 96
6, 62720, Note_off_c, 4, 78, 0
6, 62720, Note_on_c, 4, 87, 96
6, 62720, Note_off_c, 4, 81, 0
6, 62720, Note_on_c, 4, 79, 96
6, 62976, Note_off_c, 4, 87, 0
6, 62976, Note_on_c, 4, 86, 96
6, 62976, Note_off_c, 4, 79, 0
6, 62976, Note_on_c, 4, 78, 96
6, 63232, Note_off_c, 4, 86, 0
6, 63232, Note_on_c, 4, 84, 96
6, 63232, Note_off_c, 4, 78, 0
6, 63232, Note_on_c, 4, 87, 96
6, 63488, Note_off_c, 4, 84, 0
6, 63488, Note_on_c, 4, 82, 96
6, 63488, Note_off_c, 4, 87, 0
6, 63488, Note_on_c, 4, 86, 96
6, 63744, Note_off_c, 4, 82, 0
6, 63744, Note_on_c, 4, 81, 96
6, 63744, Note_off_c, 4, 86, 0
6, 63744, Note_on_c, 4, 84, 96
6, 64000, Note_off_c, 4, 81, 0
6, 64000, Note_on_c, 4, 79, 96
6, 64000, Note_off_c, 4, 84, 0
6, 64000, Note_on_c, 4, 82, 96
6, 64256, Note_off_c, 4, 79, 0
6, 64256, Note_on_c, 4, 78, 96
6, 64256, Note_off_c, 4, 82, 0
6, 64256, Note_on_c, 4, 81, 96
6, 64512, Note_off_c, 4, 78, 0
6, 64512, Note_on_c, 4, 79, 96
6, 64512, Note_off_c, 4, 81, 0
6, 64512, Note_on_c, 4, 79, 96
6, 65024, Note_off_c, 4, 79, 0
6, 65024, Note_on_c, 4, 82, 96
6, 65536, Note_off_c, 4, 79, 0
6, 65536, Note_on_c, 4, 79, 96
6, 66048, Note_off_c, 4, 82, 0
6, 66048, Note_on_c, 4, 84, 96
6, 66560, Note_off_c, 4, 79, 0
6, 66560, Note_on_c, 4, 77, 96
6, 66560, Note_off_c, 4, 84, 0
6, 66560, Note_on_c, 4, 86, 96
6, 67584, Note_off_c, 4, 77, 0
6, 67584, Note_on_c, 4, 76, 96
6, 67584, Note_off_c, 4, 86, 0
6, 67584, Note_on_c, 4, 79, 96
6, 68096, Note_off_c, 4, 76, 0
6, 68096, Note_on_c, 4, 75, 96
6, 68096, Note_off_c, 4, 79, 0
6, 68096, Note_on_c, 4, 72, 96
6, 68608, Note_off_c, 4, 75, 0
6, 68608, Note_on_c, 4, 74, 96
6, 68608, Note_off_c, 4, 72, 0
6, 68608, Note_on_c, 4, 79, 96
6, 69120, Note_off_c, 4, 79, 0
6, 69120, Note_on_c, 4, 70, 96
6, 69632, Note_off_c, 4, 74, 0
6, 69632, Note_off_c, 4, 70, 0
6, 69632, Note_on_c, 4, 75, 96
6, 69632, Note_on_c, 4, 72, 96
6, 70144, Note_off_c, 4, 72, 0
6, 70144, Note_on_c, 4, 70, 96
6, 70656, Note_off_c, 4, 75, 0
6, 70656, Note_on_c, 4, 74, 96
6, 70656, Note_off_c, 4, 70, 0
6, 70656, Note_on_c, 4, 69, 96
6, 71168, Note_off_c, 4, 69, 0
6, 71168, Note_on_c, 4, 78, 96
6, 71680, Note_off_c, 4, 74, 0
6, 71680, Note_on_c, 4, 74, 96
6, 71680, Note_off_c, 4, 78, 0
6, 71680, Note_on_c, 4, 79, 96
6, 72192, Note_off_c, 4, 74, 0
6, 72192, Note_on_c, 4, 80, 96
6, 72448, Note_off_c, 4, 80, 0
6, 72448, Note_on_c, 4, 79, 96
6, 72704, Note_off_c, 4, 79, 0
6, 72704, Note_on_c, 4, 77, 96
6, 72704, Note_off_c, 4, 79, 0
6, 72704, Note_on_c, 4, 80, 96
6, 72960, Note_off_c, 4, 77, 0
6, 72960, Note_on_c, 4, 75, 96
6, 72960, Note_off_c, 4, 80, 0
6, 72960, Note_on_c, 4, 79, 96
6, 73216, Note_off_c, 4, 75, 0
6, 73216, Note_on_c, 4, 74, 96
6, 73216, Note_off_c, 4, 79, 0
6, 73216, Note_on_c, 4, 77, 96
6, 73472, Note_off_c, 4, 74, 0
6, 73472, Note_on_c, 4, 84, 96
6, 73472, Note_off_c, 4, 77, 0
6, 73472, Note_on_c, 4, 75, 96
6, 73728, Note_off_c, 4, 84, 0
6, 73728, Note_off_c, 4, 75, 0
6, 73728, Note_on_c, 4, 83, 96
6, 73728, Note_on_c, 4, 74, 96
6, 73984, Note_off_c, 4, 83, 0
6, 73984, Note_on_c, 4, 81, 96
6, 73984, Note_off_c, 4, 74, 0
6, 73984, Note_on_c, 4, 84, 96
6, 74240, Note_off_c, 4, 81, 0
6, 74240, Note_on_c, 4, 79, 96
6, 74240, Note_off_c, 4, 84, 0
6, 74240, Note_on_c, 4, 81, 96
6, 74496, Note_off_c, 4, 79, 0
6, 74496, Note_on_c, 4, 78, 96
6, 74496, Note_off_c, 4, 81, 0
6, 74496, Note_on_c, 4, 81, 96
6, 74752, Note_off_c, 4, 78, 0
6, 74752, Note_on_c, 4, 79, 96
6, 74752, Note_off_c, 4, 81, 0
6, 74752, Note_on_c, 4, 79, 96
6, 75008, Note_off_c, 4, 79, 0
6, 75008, Note_on_c, 4, 77, 96
6, 75264, Note_off_c, 4, 77, 0
6, 75264, Note_on_c, 4, 75, 96
6, 75520, Note_off_c, 4, 75, 0
6, 75520, Note_on_c, 4, 74, 96
6, 75776, Note_off_c, 4, 79, 0
6, 75776, Note_on_c, 4, 84, 96
6, 75776, Note_off_c, 4, 74, 0
6, 75776, Note_on_c, 4, 72, 96
6, 76288, Note_off_c, 4, 72, 0
6, 76288, Note_on_c, 4, 79, 96
6, 76800, Note_off_c, 4, 84, 0
6, 76800, Note_on_c, 4, 86, 96
6, 76800, Note_off_c, 4, 79, 0
6, 76800, Note_on_c, 4, 77, 96
6, 77312, Note_off_c, 4, 77, 0
6, 77312, Note_on_c, 4, 75, 96
6, 77568, Note_off_c, 4, 75, 0
6, 77568, Note_on_c, 4, 74, 96
6, 77824, Note_off_c, 4, 86, 0
6, 77824, Note_off_c, 4, 74, 0
6, 77824, Note_on_c, 4, 79, 96
6, 77824, Note_on_c, 4, 75, 96
6, 78336, Note_off_c, 4, 75, 0
6, 78336, Note_on_c, 4, 77, 96
6, 78848, Note_off_c, 4, 77, 0
6, 78848, Note_on_c, 4, 79, 96
6, 79360, Note_off_c, 4, 79, 0
6, 79360, Note_on_c, 4, 77, 96
6, 79360, Note_off_c, 4, 79, 0
6, 79360, Note_on_c, 4, 74, 96
6, 79872, Note_off_c, 4, 77, 0
6, 79872, Note_on_c, 4, 76, 96
6, 79872, Note_off_c, 4, 74, 0
6, 79872, Note_on_c, 4, 81, 96
6, 80384, Note_off_c, 4, 76, 0
6, 80384, Note_on_c, 4, 77, 96
6, 80384, Note_off_c, 4, 81, 0
6, 80384, Note_on_c, 4, 74, 96
6, 80640, Note_off_c, 4, 77, 0
6, 80640, Note_on_c, 4, 79, 96
6, 80896, Note_off_c, 4, 79, 0
6, 80896, Note_on_c, 4, 81, 96
6, 80896, Note_off_c, 4, 74, 0
6, 80896, Note_on_c, 4, 76, 96
6, 81408, Note_off_c, 4, 81, 0
6, 81408, Note_on_c, 4, 79, 96
6, 81920, Note_off_c, 4, 79, 0
6, 81920, Note_off_c, 4, 76, 0
6, 81920, Note_on_c, 4, 78, 96
6, 81920, Note_on_c, 4, 74, 96
6, 82432, Note_off_c, 4, 78, 0
6, 82432, Note_on_c, 4, 87, 96
6, 82688, Note_off_c, 4, 87, 0
6, 82688, Note_on_c, 4, 86, 96
6, 82944, Note_off_c, 4, 86, 0
6, 82944, Note_on_c, 4, 84, 96
6, 82944, Note_off_c, 4, 74, 0
6, 82944, Note_on_c, 4, 87, 96
6, 83200, Note_off_c, 4, 84, 0
6, 83200, Note_on_c, 4, 82, 96
6, 83200, Note_off_c, 4, 87, 0
6, 83200, Note_on_c, 4, 86, 96
6, 83456, Note_off_c, 4, 82, 0
6, 83456, Note_on_c, 4, 81, 96
6, 83456, Note_off_c, 4, 86, 0
6, 83456, Note_on_c, 4, 84, 96
6, 83712, Note_off_c, 4, 81, 0
6, 83712, Note_on_c, 4, 79, 96
6, 83712, Note_off_c, 4, 84, 0
6, 83712, Note_on_c, 4, 82, 96
6, 83968, Note_off_c, 4, 79, 0
6, 83968, Note_on_c, 4, 78, 96
6, 83968, Note_off_c, 4, 82, 0
6, 83968, Note_on_c, 4, 81, 96
6, 84224, Note_off_c, 4, 78, 0
6, 84224, Note_on_c, 4, 82, 96
6, 84224, Note_off_c, 4, 81, 0
6, 84224, Note_on_c, 4, 79, 96
6, 84480, Note_off_c, 4, 82, 0
6, 84480, Note_on_c, 4, 81, 96
6, 84480, Note_off_c, 4, 79, 0
6, 84480, Note_on_c, 4, 78, 96
6, 84736, Note_off_c, 4, 81, 0
6, 84736, Note_on_c, 4, 79, 96
6, 84736, Note_off_c, 4, 78, 0
6, 84736, Note_on_c, 4, 82, 96
6, 84992, Note_off_c, 4, 79, 0
6, 84992, Note_on_c, 4, 78, 96
6, 84992, Note_off_c, 4, 82, 0
6, 84992, Note_on_c, 4, 81, 96
6, 85248, Note_off_c, 4, 78, 0
6, 85248, Note_on_c, 4, 76, 96
6, 85248, Note_off_c, 4, 81, 0
6, 85248, Note_on_c, 4, 79, 96
6, 85504, Note_off_c, 4, 76, 0
6, 85504, Note_on_c, 4, 74, 96
6, 85504, Note_off_c, 4, 79, 0
6, 85504, Note_on_c, 4, 78, 96
6, 85760, Note_off_c, 4, 74, 0
6, 85760, Note_on_c, 4, 73, 96
6, 85760, Note_off_c, 4, 78, 0
6, 85760, Note_on_c, 4, 76, 96
6, 86016, Note_off_c, 4, 73, 0
6, 86016, Note_off_c, 4, 76, 0
6, 86016, Note_on_c, 4, 74, 96
6, 86016, Note_on_c, 4, 78, 96
6, 90112, Note_off_c, 4, 74, 0
6, 90112, Note_off_c, 4, 78, 0
6, 90112, End_track
7, 0, Start_track
7, 0, Title_t, "Instrument 6"
7, 3072, Note_on_c, 5, 69, 96
7, 3072, Note_on_c, 5, 66, 96
7, 4096, Note_off_c, 5, 69, 0
7, 4096, Note_off_c, 5, 66, 0
7, 4096, Note_on_c, 5, 70, 96
7, 4096, Note_on_c, 5, 67, 96
7, 5120, Note_off_c, 5, 70, 0
7, 5120, Note_on_c, 5, 72, 96
7, 5120, Note_off_c, 5, 67, 0
7, 5120, Note_on_c, 5, 65, 96
7, 6144, Note_off_c, 5, 72, 0
7, 6144, Note_on_c, 5, 74, 96
7, 6144, Note_off_c, 5, 65, 0
7, 6144, Note_on_c, 5, 65, 96
7, 7168, Note_off_c, 5, 74, 0
7, 7168, Note_on_c, 5, 69, 96
7, 7168, Note_off_c, 5, 65, 0
7, 7168, Note_on_c, 5, 65, 96
7, 7680, Note_off_c, 5, 69, 0
7, 7680, Note_on_c, 5, 71, 96
7, 8192, Note_off_c, 5, 71, 0
7, 8192, Note_off_c, 5, 65, 0
7, 8192, Note_on_c, 5, 72, 96
7, 8192, Note_on_c, 5, 67, 96
7, 10240, Note_off_c, 5, 72, 0
7, 10240, Note_off_c, 5, 67, 0
7, 13312, Note_on_c, 5, 67, 96
7, 13312, Note_on_c, 5, 63, 96
7, 14336, Note_off_c, 5, 67, 0
7, 14336, Note_on_c, 5, 67, 96
7, 14336, Note_off_c, 5, 63, 0
7, 14336, Note_on_c, 5, 64, 96
7, 15360, Note_off_c, 5, 67, 0
7, 15360, Note_on_c, 5, 69, 96
7, 15360, Note_off_c, 5, 64, 0
7, 15360, Note_on_c, 5, 66, 96
7, 16384, Note_off_c, 5, 69, 0
7, 16384, Note_off_c, 5, 66, 0
7, 16384, Note_on_c, 5, 70, 96
7, 16384, Note_on_c, 5, 67, 96
7, 17408, Note_off_c, 5, 70, 0
7, 17408, Note_on_c, 5, 72, 96
7, 17408, Note_off_c, 5, 67, 0
7, 17408, Note_on_c, 5, 69, 96
7, 18432, Note_off_c, 5, 72, 0
7, 18432, Note_on_c, 5, 69, 96
7, 18432, Note_off_c, 5, 69, 0
7, 18432, Note_on_c, 5, 66, 96
7, 20480, Note_off_c, 5, 69, 0
7, 20480, Note_off_c, 5, 66, 0
7, 23552, Note_on_c, 5, 65, 96
7, 23552, Note_on_c, 5, 62, 96
7, 24576, Note_off_c, 5, 65, 0
7, 24576, Note_off_c, 5, 62, 0
7, 24576, Note_on_c, 5, 65, 96
7, 24576, Note_on_c, 5, 62, 96
7, 25600, Note_off_c, 5, 65, 0
7, 25600, Note_on_c, 5, 67, 96
7, 25600, Note_off_c, 5, 62, 0
7, 25600, Note_on_c, 5, 64, 96
7, 26624, Note_off_c, 5, 67, 0
7, 26624, Note_on_c, 5, 69, 96
7, 26624, Note_off_c, 5, 64, 0
7, 26624, Note_on_c, 5, 65, 96
7, 27648, Note_off_c, 5, 69, 0
7, 27648, Note_on_c, 5, 70, 96
7, 27648, Note_off_c, 5, 65, 0
7, 27648, Note_on_c, 5, 63, 96
7, 28672, Note_off_c, 5, 70, 0
7, 28672, Note_off_c, 5, 63, 0
7, 28672, Note_on_c, 5, 72, 96
7, 28672, Note_on_c, 5, 63, 96
7, 30720, Note_off_c, 5, 72, 0
7, 30720, Note_off_c, 5, 63, 0
7, 31744, Note_on_c, 5, 74, 96
7, 31744, Note_on_c, 5, 63, 96
7, 32256, Note_off_c, 5, 63, 0
7, 32256, Note_on_c, 5, 62, 96
7, 32768, Note_off_c, 5, 74, 0
7, 32768, Note_off_c, 5, 62, 0
7, 32768, Note_on_c, 5, 70, 96
7, 32768, Note_on_c, 5, 67, 96
7, 33280, Note_off_c, 5, 70, 0
7, 33280, Note_on_c, 5, 72, 96
7, 33280, Note_off_c, 5, 67, 0
7, 33280, Note_on_c, 5, 69, 96
7, 33792, Note_off_c, 5, 72, 0
7, 33792, Note_on_c, 5, 74, 96
7, 33792, Note_off_c, 5, 69, 0
7, 33792, Note_on_c, 5, 70, 96
7, 34816, Note_off_c, 5, 74, 0
7, 34816, Note_on_c, 5, 72, 96
7, 34816, Note_off_c, 5, 70, 0
7, 34816, Note_on_c, 5, 70, 96
7, 35840, Note_off_c, 5, 72, 0
7, 35840, Note_on_c, 5, 72, 96
7, 35840, Note_off_c, 5, 70, 0
7, 35840, Note_on_c, 5, 69, 96
7, 36864, Note_off_c, 5, 72, 0
7, 36864, Note_off_c, 5, 69, 0
7, 36864, Note_on_c, 5, 70, 96
7, 36864, Note_on_c, 5, 65, 96
7, 38912, Note_off_c, 5, 70, 0
7, 38912, Note_off_c, 5, 65, 0
7, 41984, Note_on_c, 5, 74, 96
7, 41984, Note_on_c, 5, 65, 96
7, 43008, Note_off_c, 5, 74, 0
7, 43008, Note_on_c, 5, 74, 96
7, 43008, Note_off_c, 5, 65, 0
7, 43008, Note_on_c, 5, 67, 96
7, 44032, Note_off_c, 5, 74, 0
7, 44032, Note_on_c, 5, 74, 96
7, 44032, Note_off_c, 5, 67, 0
7, 44032, Note_on_c, 5, 67, 96
7, 45056, Note_off_c, 5, 74, 0
7, 45056, Note_off_c, 5, 67, 0
7, 45056, Note_on_c, 5, 72, 96
7, 45056, Note_on_c, 5, 67, 96
7, 46080, Note_off_c, 5, 72, 0
7, 46080, Note_on_c, 5, 72, 96
7, 46080, Note_off_c, 5, 67, 0
7, 46080, Note_on_c, 5, 62, 96
7, 47104, Note_off_c, 5, 72, 0
7, 47104, Note_on_c, 5, 70, 96
7, 47104, Note_off_c, 5, 62, 0
7, 47104, Note_on_c, 5, 62, 96
7, 48128, Note_off_c, 5, 70, 0
7, 48128, Note_on_c, 5, 70, 96
7, 48128, Note_off_c, 5, 62, 0
7, 48128, Note_on_c, 5, 64, 96
7, 49152, Note_off_c, 5, 70, 0
7, 49152, Note_off_c, 5, 64, 0
7, 49152, Note_on_c, 5, 69, 96
7, 49152, Note_on_c, 5, 66, 96
7, 51200, Note_off_c, 5, 69, 0
7, 51200, Note_off_c, 5, 66, 0
7, 52224, Note_on_c, 5, 69, 96
7, 52224, Note_on_c, 5, 66, 96
7, 53248, Note_off_c, 5, 69, 0
7, 53248, Note_off_c, 5, 66, 0
7, 53248, Note_on_c, 5, 70, 96
7, 53248, Note_on_c, 5, 67, 96
7, 54272, Note_off_c, 5, 70, 0
7, 54272, Note_on_c, 5, 69, 96
7, 54272, Note_off_c, 5, 67, 0
7, 54272, Note_on_c, 5, 65, 96
7, 55296, Note_off_c, 5, 69, 0
7, 55296, Note_on_c, 5, 67, 96
7, 55296, Note_off_c, 5, 65, 0
7, 55296, Note_on_c, 5, 65, 96
7, 56320, Note_off_c, 5, 67, 0
7, 56320, Note_on_c, 5, 67, 96
7, 56320, Note_off_c, 5, 65, 0
7, 56320, Note_on_c, 5, 64, 96
7, 57344, Note_off_c, 5, 67, 0
7, 57344, Note_off_c, 5, 64, 0
7, 57344, Note_on_c, 5, 65, 96
7, 57344, Note_on_c, 5, 62, 96
7, 58368, Note_off_c, 5, 65, 0
7, 58368, Note_on_c, 5, 65, 96
7, 58368, Note_off_c, 5, 62, 0
7, 58368, Note_on_c, 5, 62, 96
7, 59392, Note_off_c, 5, 65, 0
7, 59392, Note_on_c, 5, 64, 96
7, 59392, Note_off_c, 5, 62, 0
7, 59392, Note_on_c, 5, 60, 96
7, 61440, Note_off_c, 5, 64, 0
7, 61440, Note_off_c, 5, 60, 0
7, 64512, Note_on_c, 5, 67, 96
7, 64512, Note_on_c, 5, 62, 96
7, 65536, Note_off_c, 5, 67, 0
7, 65536, Note_off_c, 5, 62, 0
7, 65536, Note_on_c, 5, 67, 96
7, 65536, Note_on_c, 5, 62, 96
7, 66048, Note_off_c, 5, 62, 0
7, 66048, Note_on_c, 5, 60, 96
7, 66560, Note_off_c, 5, 67, 0
7, 66560, Note_on_c, 5, 69, 96
7, 66560, Note_off_c, 5, 60, 0
7, 66560, Note_on_c, 5, 65, 96
7, 67072, Note_off_c, 5, 69, 0
7, 67072, Note_on_c, 5, 70, 96
7, 67584, Note_off_c, 5, 70, 0
7, 67584, Note_on_c, 5, 72, 96
7, 67584, Note_off_c, 5, 65, 0
7, 67584, Note_on_c, 5, 67, 96
7, 68096, Note_off_c, 5, 67, 0
7, 68096, Note_on_c, 5, 69, 96
7, 68608, Note_off_c, 5, 72, 0
7, 68608, Note_on_c, 5, 70, 96
7, 68608, Note_off_c, 5, 69, 0
7, 68608, Note_on_c, 5, 62, 96
7, 69120, Note_off_c, 5, 62, 0
7, 69120, Note_on_c, 5, 67, 96
7, 69632, Note_off_c, 5, 70, 0
7, 69632, Note_off_c, 5, 67, 0
7, 69632, Note_on_c, 5, 69, 96
7, 69632, Note_on_c, 5, 67, 96
7, 70656, Note_off_c, 5, 69, 0
7, 70656, Note_on_c, 5, 69, 96
7, 70656, Note_off_c, 5, 67, 0
7, 70656, Note_on_c, 5, 66, 96
7, 71680, Note_off_c, 5, 69, 0
7, 71680, Note_on_c, 5, 67, 96
7, 71680, Note_off_c, 5, 66, 0
7, 71680, Note_on_c, 5, 62, 96
7, 73728, Note_off_c, 5, 67, 0
7, 73728, Note_off_c, 5, 62, 0
7, 74752, Note_on_c, 5, 67, 96
7, 74752, Note_on_c, 5, 62, 96
7, 75776, Note_off_c, 5, 67, 0
7, 75776, Note_on_c, 5, 67, 96
7, 75776, Note_off_c, 5, 62, 0
7, 75776, Note_on_c, 5, 63, 96
7, 76800, Note_off_c, 5, 67, 0
7, 76800, Note_on_c, 5, 69, 96
7, 76800, Note_off_c, 5, 63, 0
7, 76800, Note_on_c, 5, 65, 96
7, 77312, Note_off_c, 5, 69, 0
7, 77312, Note_on_c, 5, 71, 96
7, 77824, Note_off_c, 5, 71, 0
7, 77824, Note_off_c, 5, 65, 0
7, 77824, Note_on_c, 5, 72, 96
7, 77824, Note_on_c, 5, 67, 96
7, 78848, Note_off_c, 5, 72, 0
7, 78848, Note_on_c, 5, 70, 96
7, 78848, Note_off_c, 5, 67, 0
7, 78848, Note_on_c, 5, 67, 96
7, 79872, Note_off_c, 5, 70, 0
7, 79872, Note_on_c, 5, 69, 96
7, 79872, Note_off_c, 5, 67, 0
7, 79872, Note_on_c, 5, 67, 96
7, 80384, Note_off_c, 5, 67, 0
7, 80384, Note_on_c, 5, 65, 96
7, 80896, Note_off_c, 5, 65, 0
7, 80896, Note_on_c, 5, 64, 96
7, 81920, Note_off_c, 5, 69, 0
7, 81920, Note_off_c, 5, 64, 0
7, 81920, Note_on_c, 5, 69, 96
7, 81920, Note_on_c, 5, 66, 96
7, 90112, Note_off_c, 5, 69, 0
7, 90112, Note_off_c, 5, 66, 0
7, 90112, End_track
8, 0, Start_track
8, 0, Title_t, "Instrument 7"
8, 3072, Note_on_c, 6, 62, 96
8, 4096, Note_off_c, 6, 62, 0
8, 4096, Note_on_c, 6, 62, 96
8, 5120, Note_off_c, 6, 62, 0
8, 5120, Note_on_c, 6, 60, 96
8, 6144, Note_off_c, 6, 60, 0
8, 6144, Note_on_c, 6, 58, 96
8, 7168, Note_off_c, 6, 58, 0
8, 7168, Note_on_c, 6, 65, 96
8, 8192, Note_off_c, 6, 65, 0
8, 8192, Note_on_c, 6, 63, 96
8, 10240, Note_off_c, 6, 63, 0
8, 13312, Note_on_c, 6, 60, 96
8, 14336, Note_off_c, 6, 60, 0
8, 14336, Note_on_c, 6, 60, 96
8, 15360, Note_off_c, 6, 60, 0
8, 15360, Note_on_c, 6, 60, 96
8, 16384, Note_off_c, 6, 60, 0
8, 16384, Note_on_c, 6, 62, 96
8, 17408, Note_off_c, 6, 62, 0
8, 17408, Note_on_c, 6, 63, 96
8, 18432, Note_off_c, 6, 63, 0
8, 18432, Note_on_c, 6, 62, 96
8, 20480, Note_off_c, 6, 62, 0
8, 23552, Note_on_c, 6, 57, 96
8, 24576, Note_off_c, 6, 57, 0
8, 24576, Note_on_c, 6, 58, 96
8, 25600, Note_off_c, 6, 58, 0
8, 25600, Note_on_c, 6, 58, 96
8, 26624, Note_off_c, 6, 58, 0
8, 26624, Note_on_c, 6, 60, 96
8, 27648, Note_off_c, 6, 60, 0
8, 27648, Note_on_c, 6, 58, 96
8, 28672, Note_off_c, 6, 58, 0
8, 28672, Note_on_c, 6, 65, 96
8, 30720, Note_off_c, 6, 65, 0
8, 31744, Note_on_c, 6, 65, 96
8, 32768, Note_off_c, 6, 65, 0
8, 32768, Note_on_c, 6, 63, 96
8, 33792, Note_off_c, 6, 63, 0
8, 33792, Note_on_c, 6, 65, 96
8, 34816, Note_off_c, 6, 65, 0
8, 34816, Note_on_c, 6, 65, 96
8, 35840, Note_off_c, 6, 65, 0
8, 35840, Note_on_c, 6, 60, 96
8, 36864, Note_off_c, 6, 60, 0
8, 36864, Note_on_c, 6, 62, 96
8, 38912, Note_off_c, 6, 62, 0
8, 41984, Note_on_c, 6, 58, 96
8, 43008, Note_off_c, 6, 58, 0
8, 43008, Note_on_c, 6, 58, 96
8, 44032, Note_off_c, 6, 58, 0
8, 44032, Note_on_c, 6, 58, 96
8, 45056, Note_off_c, 6, 58, 0
8, 45056, Note_on_c, 6, 58, 96
8, 46080, Note_off_c, 6, 58, 0
8, 46080, Note_on_c, 6, 57, 96
8, 47104, Note_off_c, 6, 57, 0
8, 47104, Note_on_c, 6, 57, 96
8, 48128, Note_off_c, 6, 57, 0
8, 48128, Note_on_c, 6, 55, 96
8, 49152, Note_off_c, 6, 55, 0
8, 49152, Note_on_c, 6, 57, 96
8, 51200, Note_off_c, 6, 57, 0
8, 52224, Note_on_c, 6, 62, 96
8, 53248, Note_off_c, 6, 62, 0
8, 53248, Note_on_c, 6, 62, 96
8, 54272, Note_off_c, 6, 62, 0
8, 54272, Note_on_c, 6, 60, 96
8, 55296, Note_off_c, 6, 60, 0
8, 55296, Note_on_c, 6, 62, 96
8, 56320, Note_off_c, 6, 62, 0
8, 56320, Note_on_c, 6, 55, 96
8, 57344, Note_off_c, 6, 55, 0
8, 57344, Note_on_c, 6, 57, 96
8, 58368, Note_off_c, 6, 57, 0
8, 58368, Note_on_c, 6, 55, 96
8, 59392, Note_off_c, 6, 55, 0
8, 59392, Note_on_c, 6, 55, 96
8, 61440, Note_off_c, 6, 55, 0
8, 64512, Note_on_c, 6, 55, 96
8, 65536, Note_off_c, 6, 55, 0
8, 65536, Note_on_c, 6, 55, 96
8, 66560, Note_off_c, 6, 55, 0
8, 66560, Note_on_c, 6, 62, 96
8, 67584, Note_off_c, 6, 62, 0
8, 67584, Note_on_c, 6, 60, 96
8, 68096, Note_off_c, 6, 60, 0
8, 68096, Note_on_c, 6, 57, 96
8, 68608, Note_off_c, 6, 57, 0
8, 68608, Note_on_c, 6, 58, 96
8, 69120, Note_off_c, 6, 58, 0
8, 69120, Note_on_c, 6, 55, 96
8, 69632, Note_off_c, 6, 55, 0
8, 69632, Note_on_c, 6, 63, 96
8, 70144, Note_off_c, 6, 63, 0
8, 70144, Note_on_c, 6, 63, 96
8, 70656, Note_off_c, 6, 63, 0
8, 70656, Note_on_c, 6, 57, 96
8, 71168, Note_off_c, 6, 57, 0
8, 71168, Note_on_c, 6, 57, 96
8, 71680, Note_off_c, 6, 57, 0
8, 71680, Note_on_c, 6, 58, 96
8, 73728, Note_off_c, 6, 58, 0
8, 74752, Note_on_c, 6, 59, 96
8, 75776, Note_off_c, 6, 59, 0
8, 75776, Note_on_c, 6, 60, 96
8, 76800, Note_off_c, 6, 60, 0
8, 76800, Note_on_c, 6, 65, 96
8, 77824, Note_off_c, 6, 65, 0
8, 77824, Note_on_c, 6, 63, 96
8, 78848, Note_off_c, 6, 63, 0
8, 78848, Note_on_c, 6, 62, 96
8, 79872, Note_off_c, 6, 62, 0
8, 79872, Note_on_c, 6, 61, 96
8, 80384, Note_off_c, 6, 61, 0
8, 80384, Note_on_c, 6, 62, 96
8, 80896, Note_off_c, 6, 62, 0
8, 80896, Note_on_c, 6, 62, 96
8, 81408, Note_off_c, 6, 62, 0
8, 81408, Note_on_c, 6, 61, 96
8, 81920, Note_off_c, 6, 61, 0
8, 81920, Note_on_c, 6, 62, 96
8, 90112, Note_off_c, 6, 62, 0
8, 90112, End_track
9, 0, Start_track
9, 0, Title_t, "Instrument 8"
9, 3072, Note_on_c, 7, 50, 96
9, 4096, Note_off_c, 7, 50, 0
9, 4096, Note_on_c, 7, 55, 96
9, 5120, Note_off_c, 7, 55, 0
9, 5120, Note_on_c, 7, 57, 96
9, 6144, Note_off_c, 7, 57, 0
9, 6144, Note_on_c, 7, 58, 96
9, 7168, Note_off_c, 7, 58, 0
9, 7168, Note_on_c, 7, 62, 96
9, 8192, Note_off_c, 7, 62, 0
9, 8192, Note_on_c, 7, 60, 96
9, 10240, Note_off_c, 7, 60, 0
9, 13312, Note_on_c, 7, 60, 96
9, 14336, Note_off_c, 7, 60, 0
9, 14336, Note_on_c, 7, 58, 96
9, 15360, Note_off_c, 7, 58, 0
9, 15360, Note_on_c, 7, 57, 96
9, 16384, Note_off_c, 7, 57, 0
9, 16384, Note_on_c, 7, 55, 96
9, 17408, Note_off_c, 7, 55, 0
9, 17408, Note_on_c, 7, 48, 96
9, 18432, Note_off_c, 7, 48, 0
9, 18432, Note_on_c, 7, 50, 96
9, 20480, Note_off_c, 7, 50, 0
9, 23552, Note_on_c, 7, 50, 96
9, 24064, Note_off_c, 7, 50, 0
9, 24064, Note_on_c, 7, 48, 96
9, 24576, Note_off_c, 7, 48, 0
9, 24576, Note_on_c, 7, 46, 96
9, 25088, Note_off_c, 7, 46, 0
9, 25088, Note_on_c, 7, 58, 96
9, 25600, Note_off_c, 7, 58, 0
9, 25600, Note_on_c, 7, 57, 96
9, 26112, Note_off_c, 7, 57, 0
9, 26112, Note_on_c, 7, 55, 96
9, 26624, Note_off_c, 7, 55, 0
9, 26624, Note_on_c, 7, 53, 96
9, 27648, Note_off_c, 7, 53, 0
9, 27648, Note_on_c, 7, 55, 96
9, 28672, Note_off_c, 7, 55, 0
9, 28672, Note_on_c, 7, 57, 96
9, 30720, Note_off_c, 7, 57, 0
9, 31744, Note_on_c, 7, 58, 96
9, 32768, Note_off_c, 7, 58, 0
9, 32768, Note_on_c, 7, 51, 96
9, 33792, Note_off_c, 7, 51, 0
9, 33792, Note_on_c, 7, 50, 96
9, 34304, Note_off_c, 7, 50, 0
9, 34304, Note_on_c, 7, 51, 96
9, 34816, Note_off_c, 7, 51, 0
9, 34816, Note_on_c, 7, 53, 96
9, 35840, Note_off_c, 7, 53, 0
9, 35840, Note_on_c, 7, 41, 96
9, 36864, Note_off_c, 7, 41, 0
9, 36864, Note_on_c, 7, 46, 96
9, 38912, Note_off_c, 7, 46, 0
9, 41984, Note_on_c, 7, 58, 96
9, 42496, Note_off_c, 7, 58, 0
9, 42496, Note_on_c, 7, 57, 96
9, 43008, Note_off_c, 7, 57, 0
9, 43008, Note_on_c, 7, 55, 96
9, 44032, Note_off_c, 7, 55, 0
9, 44032, Note_on_c, 7, 53, 96
9, 45056, Note_off_c, 7, 53, 0
9, 45056, Note_on_c, 7, 52, 96
9, 46080, Note_off_c, 7, 52, 0
9, 46080, Note_on_c, 7, 54, 96
9, 47104, Note_off_c, 7, 54, 0
9, 47104, Note_on_c, 7, 55, 96
9, 48128, Note_off_c, 7, 55, 0
9, 48128, Note_on_c, 7, 43, 96
9, 49152, Note_off_c, 7, 43, 0
9, 49152, Note_on_c, 7, 50, 96
9, 51200, Note_off_c, 7, 50, 0
9, 52224, Note_on_c, 7, 50, 96
9, 53248, Note_off_c, 7, 50, 0
9, 53248, Note_on_c, 7, 43, 96
9, 54272, Note_off_c, 7, 43, 0
9, 54272, Note_on_c, 7, 45, 96
9, 55296, Note_off_c, 7, 45, 0
9, 55296, Note_on_c, 7, 47, 96
9, 56320, Note_off_c, 7, 47, 0
9, 56320, Note_on_c, 7, 48, 96
9, 57344, Note_off_c, 7, 48, 0
9, 57344, Note_on_c, 7, 48, 96
9, 58368, Note_off_c, 7, 48, 0
9, 58368, Note_on_c, 7, 47, 96
9, 59392, Note_off_c, 7, 47, 0
9, 59392, Note_on_c, 7, 48, 96
9, 61440, Note_off_c, 7, 48, 0
9, 64512, Note_on_c, 7, 46, 96
9, 65536, Note_off_c, 7, 46, 0
9, 65536, Note_on_c, 7, 51, 96
9, 66560, Note_off_c, 7, 51, 0
9, 66560, Note_on_c, 7, 50, 96
9, 67584, Note_off_c, 7, 50, 0
9, 67584, Note_on_c, 7, 52, 96
9, 68096, Note_off_c, 7, 52, 0
9, 68096, Note_on_c, 7, 54, 96
9, 68608, Note_off_c, 7, 54, 0
9, 68608, Note_on_c, 7, 55, 96
9, 69632, Note_off_c, 7, 55, 0
9, 69632, Note_on_c, 7, 48, 96
9, 70656, Note_off_c, 7, 48, 0
9, 70656, Note_on_c, 7, 50, 96
9, 71680, Note_off_c, 7, 50, 0
9, 71680, Note_on_c, 7, 43, 96
9, 73728, Note_off_c, 7, 43, 0
9, 74752, Note_on_c, 7, 53, 96
9, 75776, Note_off_c, 7, 53, 0
9, 75776, Note_on_c, 7, 51, 96
9, 76800, Note_off_c, 7, 51, 0
9, 76800, Note_on_c, 7, 50, 96
9, 77824, Note_off_c, 7, 50, 0
9, 77824, Note_on_c, 7, 48, 96
9, 78848, Note_off_c, 7, 48, 0
9, 78848, Note_on_c, 7, 43, 96
9, 79872, Note_off_c, 7, 43, 0
9, 79872, Note_on_c, 7, 45, 96
9, 80896, Note_off_c, 7, 45, 0
9, 80896, Note_on_c, 7, 45, 96
9, 81920, Note_off_c, 7, 45, 0
9, 81920, Note_on_c, 7, 38, 96
9, 90112, Note_off_c, 7, 38, 0
9, 90112, End_track
0, 0, End_of_file
