0, 0, Header, 1, 5, 240
1, 0, Start_track
1, 0, Time_signature, 6, 2, 24, 8
1, 0, Key_signature, 0, "major"
1, 0, Tempo, 461538
1, 54960, Tempo, 468750
1, 55200, Tempo, 476190
1, 55440, Tempo, 491803
1, 55560, Tempo, 517241
1, 55704, Tempo, 530973
1, 55800, Tempo, 560747
1, 55920, Tempo, 576923
1, 56040, Tempo, 681818
1, 56160, Tempo, 674157
1, 56160, End_track
2, 0, Start_track
2, 0, MIDI_port, 0
2, 0, Title_t, "RH H"
2, 0, Program_c, 0, 6
2, 20400, Note_on_c, 0, 66, 64
2, 20640, Note_on_c, 0, 66, 0
2, 20640, Note_on_c, 0, 68, 64
2, 20880, Note_on_c, 0, 68, 0
2, 20880, Note_on_c, 0, 69, 64
2, 21840, Note_on_c, 0, 69, 0
2, 21960, Note_on_c, 0, 70, 64
2, 22080, Note_on_c, 0, 70, 0
2, 22080, Note_on_c, 0, 71, 64
2, 22560, Note_on_c, 0, 71, 0
2, 22560, Note_on_c, 0, 70, 64
2, 22680, Note_on_c, 0, 70, 0
2, 22680, Note_on_c, 0, 68, 64
2, 22800, Note_on_c, 0, 68, 0
2, 22800, Note_on_c, 0, 70, 64
2, 22920, Note_on_c, 0, 70, 0
2, 22920, Note_on_c, 0, 72, 64
2, 23040, Note_on_c, 0, 72, 0
2, 23040, Note_on_c, 0, 73, 64
2, 23400, Note_on_c, 0, 73, 0
2, 23400, Note_on_c, 0, 71, 64
2, 23520, Note_on_c, 0, 71, 0
2, 23520, Note_on_c, 0, 69, 64
2, 23640, Note_on_c, 0, 69, 0
2, 23640, Note_on_c, 0, 73, 64
2, 23760, Note_on_c, 0, 73, 0
2, 23760, Note_on_c, 0, 71, 64
2, 23880, Note_on_c, 0, 71, 0
2, 23880, Note_on_c, 0, 69, 64
2, 24000, Note_on_c, 0, 69, 0
2, 24000, Note_on_c, 0, 68, 64
2, 24480, Note_on_c, 0, 68, 0
2, 24480, Note_on_c, 0, 66, 64
2, 24600, Note_on_c, 0, 66, 0
2, 24600, Note_on_c, 0, 69, 64
2, 24720, Note_on_c, 0, 69, 0
2, 24720, Note_on_c, 0, 71, 64
2, 24840, Note_on_c, 0, 71, 0
2, 24840, Note_on_c, 0, 73, 64
2, 24960, Note_on_c, 0, 73, 0
2, 24960, Note_on_c, 0, 74, 64
2, 25320, Note_on_c, 0, 74, 0
2, 25320, Note_on_c, 0, 71, 64
2, 25440, Note_on_c, 0, 71, 0
2, 25440, Note_on_c, 0, 73, 64
2, 25560, Note_on_c, 0, 73, 0
2, 25560, Note_on_c, 0, 75, 64
2, 25680, Note_on_c, 0, 75, 0
2, 25680, Note_on_c, 0, 76, 64
2, 26040, Note_on_c, 0, 76, 0
2, 26040, Note_on_c, 0, 74, 64
2, 26160, Note_on_c, 0, 74, 0
2, 26160, Note_on_c, 0, 74, 64
2, 26280, Note_on_c, 0, 74, 0
2, 26280, Note_on_c, 0, 73, 64
2, 26400, Note_on_c, 0, 73, 0
2, 26400, Note_on_c, 0, 73, 64
2, 26520, Note_on_c, 0, 73, 0
2, 26520, Note_on_c, 0, 72, 64
2, 26640, Note_on_c, 0, 72, 0
2, 26640, Note_on_c, 0, 72, 64
2, 26880, Note_on_c, 0, 72, 0
2, 26880, Note_on_c, 0, 73, 64
2, 27600, Note_on_c, 0, 73, 0
2, 27600, Note_on_c, 0, 72, 64
2, 28080, Note_on_c, 0, 72, 0
2, 28080, Note_on_c, 0, 73, 64
2, 28200, Note_on_c, 0, 73, 0
2, 28200, Note_on_c, 0, 75, 64
2, 28320, Note_on_c, 0, 75, 0
2, 28320, Note_on_c, 0, 76, 64
2, 28440, Note_on_c, 0, 76, 0
2, 28440, Note_on_c, 0, 78, 64
2, 28560, Note_on_c, 0, 78, 0
2, 28560, Note_on_c, 0, 79, 64
2, 29040, Note_on_c, 0, 79, 0
2, 29040, Note_on_c, 0, 73, 64
2, 29280, Note_on_c, 0, 73, 0
2, 29280, Note_on_c, 0, 78, 64
2, 29400, Note_on_c, 0, 78, 0
2, 29400, Note_on_c, 0, 76, 64
2, 29520, Note_on_c, 0, 76, 0
2, 29520, Note_on_c, 0, 74, 64
2, 29640, Note_on_c, 0, 74, 0
2, 29640, Note_on_c, 0, 73, 64
2, 29760, Note_on_c, 0, 73, 0
2, 29760, Note_on_c, 0, 74, 64
2, 30240, Note_on_c, 0, 74, 0
2, 30240, Note_on_c, 0, 73, 64
2, 30480, Note_on_c, 0, 73, 0
2, 30480, Note_on_c, 0, 75, 64
2, 30720, Note_on_c, 0, 75, 0
2, 30720, Note_on_c, 0, 77, 64
2, 30960, Note_on_c, 0, 77, 0
2, 30960, Note_on_c, 0, 78, 64
2, 32160, Note_on_c, 0, 78, 0
2, 32160, Note_on_c, 0, 76, 64
2, 32640, Note_on_c, 0, 76, 0
2, 32640, Note_on_c, 0, 74, 64
2, 33360, Note_on_c, 0, 74, 0
2, 33360, Note_on_c, 0, 73, 64
2, 34080, Note_on_c, 0, 73, 0
2, 34080, Note_on_c, 0, 71, 64
2, 34680, Note_on_c, 0, 71, 0
2, 34680, Note_on_c, 0, 68, 64
2, 34800, Note_on_c, 0, 68, 0
2, 34800, Note_on_c, 0, 69, 64
2, 34920, Note_on_c, 0, 69, 0
2, 34920, Note_on_c, 0, 73, 64
2, 35040, Note_on_c, 0, 73, 0
2, 35040, Note_on_c, 0, 78, 64
2, 35160, Note_on_c, 0, 78, 0
2, 35160, Note_on_c, 0, 75, 64
2, 35280, Note_on_c, 0, 75, 0
2, 35280, Note_on_c, 0, 76, 64
2, 36240, Note_on_c, 0, 76, 0
2, 36240, Note_on_c, 0, 75, 64
2, 36360, Note_on_c, 0, 75, 0
2, 36360, Note_on_c, 0, 77, 64
2, 36480, Note_on_c, 0, 77, 0
2, 36480, Note_on_c, 0, 78, 64
2, 36960, Note_on_c, 0, 78, 0
2, 36960, Note_on_c, 0, 77, 64
2, 37080, Note_on_c, 0, 77, 0
2, 37080, Note_on_c, 0, 75, 64
2, 37200, Note_on_c, 0, 75, 0
2, 37200, Note_on_c, 0, 77, 64
2, 37320, Note_on_c, 0, 77, 0
2, 37320, Note_on_c, 0, 79, 64
2, 37440, Note_on_c, 0, 79, 0
2, 37440, Note_on_c, 0, 80, 64
2, 37800, Note_on_c, 0, 80, 0
2, 37800, Note_on_c, 0, 78, 64
2, 37920, Note_on_c, 0, 78, 0
2, 37920, Note_on_c, 0, 76, 64
2, 38040, Note_on_c, 0, 76, 0
2, 38040, Note_on_c, 0, 80, 64
2, 38160, Note_on_c, 0, 80, 0
2, 38160, Note_on_c, 0, 78, 64
2, 38280, Note_on_c, 0, 78, 0
2, 38280, Note_on_c, 0, 76, 64
2, 38400, Note_on_c, 0, 76, 0
2, 38400, Note_on_c, 0, 75, 64
2, 38880, Note_on_c, 0, 75, 0
2, 39000, Note_on_c, 0, 76, 64
2, 39120, Note_on_c, 0, 76, 0
2, 39120, Note_on_c, 0, 78, 64
2, 39240, Note_on_c, 0, 78, 0
2, 39240, Note_on_c, 0, 80, 64
2, 39360, Note_on_c, 0, 80, 0
2, 39360, Note_on_c, 0, 81, 64
2, 39720, Note_on_c, 0, 81, 0
2, 39720, Note_on_c, 0, 78, 64
2, 39840, Note_on_c, 0, 78, 0
2, 39840, Note_on_c, 0, 80, 64
2, 39960, Note_on_c, 0, 80, 0
2, 39960, Note_on_c, 0, 82, 64
2, 40080, Note_on_c, 0, 82, 0
2, 40080, Note_on_c, 0, 83, 64
2, 40440, Note_on_c, 0, 83, 0
2, 40440, Note_on_c, 0, 81, 64
2, 40560, Note_on_c, 0, 81, 0
2, 40560, Note_on_c, 0, 81, 64
2, 40680, Note_on_c, 0, 81, 0
2, 40680, Note_on_c, 0, 80, 64
2, 40800, Note_on_c, 0, 80, 0
2, 40800, Note_on_c, 0, 80, 64
2, 40920, Note_on_c, 0, 80, 0
2, 40920, Note_on_c, 0, 78, 64
2, 41040, Note_on_c, 0, 78, 0
2, 41040, Note_on_c, 0, 78, 64
2, 41160, Note_on_c, 0, 78, 0
2, 41160, Note_on_c, 0, 81, 64
2, 41220, Note_on_c, 0, 81, 0
2, 41220, Note_on_c, 0, 80, 64
2, 41280, Note_on_c, 0, 80, 0
2, 41280, Note_on_c, 0, 78, 64
2, 41400, Note_on_c, 0, 78, 0
2, 41400, Note_on_c, 0, 76, 64
2, 41520, Note_on_c, 0, 76, 0
2, 41520, Note_on_c, 0, 76, 64
2, 41640, Note_on_c, 0, 76, 0
2, 41640, Note_on_c, 0, 75, 64
2, 41760, Note_on_c, 0, 75, 0
2, 41760, Note_on_c, 0, 75, 64
2, 41880, Note_on_c, 0, 75, 0
2, 41880, Note_on_c, 0, 76, 64
2, 42000, Note_on_c, 0, 76, 0
2, 42000, Note_on_c, 0, 76, 64
2, 42120, Note_on_c, 0, 76, 0
2, 42120, Note_on_c, 0, 74, 64
2, 42240, Note_on_c, 0, 74, 0
2, 42240, Note_on_c, 0, 74, 64
2, 42360, Note_on_c, 0, 74, 0
2, 42360, Note_on_c, 0, 73, 64
2, 42480, Note_on_c, 0, 73, 0
2, 42480, Note_on_c, 0, 73, 64
2, 43080, Note_on_c, 0, 73, 0
2, 43080, Note_on_c, 0, 75, 64
2, 43200, Note_on_c, 0, 75, 0
2, 43200, Note_on_c, 0, 77, 64
2, 43320, Note_on_c, 0, 77, 0
2, 43320, Note_on_c, 0, 78, 64
2, 43440, Note_on_c, 0, 78, 0
2, 43440, Note_on_c, 0, 80, 64
2, 43680, Note_on_c, 0, 80, 0
2, 43680, Note_on_c, 0, 73, 64
2, 43920, Note_on_c, 0, 73, 0
2, 43920, Note_on_c, 0, 78, 64
2, 44400, Note_on_c, 0, 78, 0
2, 44400, Note_on_c, 0, 77, 64
2, 44640, Note_on_c, 0, 77, 0
2, 44640, Note_on_c, 0, 78, 64
2, 44760, Note_on_c, 0, 78, 0
2, 44760, Note_on_c, 0, 76, 64
2, 44880, Note_on_c, 0, 76, 0
2, 44880, Note_on_c, 0, 74, 64
2, 45000, Note_on_c, 0, 74, 0
2, 45000, Note_on_c, 0, 73, 64
2, 45120, Note_on_c, 0, 73, 0
2, 45120, Note_on_c, 0, 73, 64
2, 45240, Note_on_c, 0, 73, 0
2, 45240, Note_on_c, 0, 71, 64
2, 45360, Note_on_c, 0, 71, 0
2, 45360, Note_on_c, 0, 71, 64
2, 45480, Note_on_c, 0, 71, 0
2, 45480, Note_on_c, 0, 78, 64
2, 45600, Note_on_c, 0, 78, 0
2, 45600, Note_on_c, 0, 71, 64
2, 45720, Note_on_c, 0, 71, 0
2, 45720, Note_on_c, 0, 69, 64
2, 45840, Note_on_c, 0, 69, 0
2, 45840, Note_on_c, 0, 69, 64
2, 45960, Note_on_c, 0, 69, 0
2, 45960, Note_on_c, 0, 68, 64
2, 46080, Note_on_c, 0, 68, 0
2, 46080, Note_on_c, 0, 68, 64
2, 46440, Note_on_c, 0, 68, 0
2, 46440, Note_on_c, 0, 71, 64
2, 46560, Note_on_c, 0, 71, 0
2, 46560, Note_on_c, 0, 69, 64
2, 46680, Note_on_c, 0, 69, 0
2, 46680, Note_on_c, 0, 68, 64
2, 46800, Note_on_c, 0, 68, 0
2, 46800, Note_on_c, 0, 66, 64
2, 46920, Note_on_c, 0, 66, 0
2, 46920, Note_on_c, 0, 65, 64
2, 47040, Note_on_c, 0, 65, 0
2, 47040, Note_on_c, 0, 66, 64
2, 47160, Note_on_c, 0, 66, 0
2, 47160, Note_on_c, 0, 69, 64
2, 47280, Note_on_c, 0, 69, 0
2, 47280, Note_on_c, 0, 71, 64
2, 47400, Note_on_c, 0, 71, 0
2, 47400, Note_on_c, 0, 73, 64
2, 47520, Note_on_c, 0, 73, 0
2, 47520, Note_on_c, 0, 74, 64
2, 48360, Note_on_c, 0, 74, 0
2, 48360, Note_on_c, 0, 68, 64
2, 48480, Note_on_c, 0, 68, 0
2, 48480, Note_on_c, 0, 73, 64
2, 48600, Note_on_c, 0, 73, 0
2, 48600, Note_on_c, 0, 71, 64
2, 48720, Note_on_c, 0, 71, 0
2, 48720, Note_on_c, 0, 71, 64
2, 48840, Note_on_c, 0, 71, 0
2, 48840, Note_on_c, 0, 69, 64
2, 48960, Note_on_c, 0, 69, 0
2, 48960, Note_on_c, 0, 69, 64
2, 49800, Note_on_c, 0, 69, 0
2, 49800, Note_on_c, 0, 73, 64
2, 49920, Note_on_c, 0, 73, 0
2, 49920, Note_on_c, 0, 71, 64
2, 50040, Note_on_c, 0, 71, 0
2, 50040, Note_on_c, 0, 69, 64
2, 50160, Note_on_c, 0, 69, 0
2, 50160, Note_on_c, 0, 69, 64
2, 50280, Note_on_c, 0, 69, 0
2, 50280, Note_on_c, 0, 68, 64
2, 50400, Note_on_c, 0, 68, 0
2, 50400, Note_on_c, 0, 68, 64
2, 51240, Note_on_c, 0, 68, 0
2, 51240, Note_on_c, 0, 71, 64
2, 51360, Note_on_c, 0, 71, 0
2, 51360, Note_on_c, 0, 69, 64
2, 51480, Note_on_c, 0, 69, 0
2, 51480, Note_on_c, 0, 67, 64
2, 51600, Note_on_c, 0, 67, 0
2, 51600, Note_on_c, 0, 67, 64
2, 51720, Note_on_c, 0, 67, 0
2, 51720, Note_on_c, 0, 66, 64
2, 51840, Note_on_c, 0, 66, 0
2, 51840, Note_on_c, 0, 66, 64
2, 51960, Note_on_c, 0, 66, 0
2, 51960, Note_on_c, 0, 65, 64
2, 52080, Note_on_c, 0, 65, 0
2, 52080, Note_on_c, 0, 66, 64
2, 52320, Note_on_c, 0, 66, 0
2, 52320, Note_on_c, 0, 68, 64
2, 52560, Note_on_c, 0, 68, 0
2, 52560, Note_on_c, 0, 69, 64
2, 53520, Note_on_c, 0, 69, 0
2, 53520, Note_on_c, 0, 68, 64
2, 53640, Note_on_c, 0, 68, 0
2, 53640, Note_on_c, 0, 70, 64
2, 53760, Note_on_c, 0, 70, 0
2, 53760, Note_on_c, 0, 71, 64
2, 54240, Note_on_c, 0, 71, 0
2, 54240, Note_on_c, 0, 70, 64
2, 54360, Note_on_c, 0, 70, 0
2, 54360, Note_on_c, 0, 68, 64
2, 54480, Note_on_c, 0, 68, 0
2, 54480, Note_on_c, 0, 70, 64
2, 54600, Note_on_c, 0, 70, 0
2, 54600, Note_on_c, 0, 72, 64
2, 54720, Note_on_c, 0, 72, 0
2, 54720, Note_on_c, 0, 73, 64
2, 55080, Note_on_c, 0, 73, 0
2, 55080, Note_on_c, 0, 71, 64
2, 55200, Note_on_c, 0, 71, 0
2, 55200, Note_on_c, 0, 69, 64
2, 55320, Note_on_c, 0, 69, 0
2, 55320, Note_on_c, 0, 73, 64
2, 55440, Note_on_c, 0, 73, 0
2, 55440, Note_on_c, 0, 71, 64
2, 55560, Note_on_c, 0, 71, 0
2, 55560, Note_on_c, 0, 69, 64
2, 55680, Note_on_c, 0, 69, 0
2, 55680, Note_on_c, 0, 68, 64
2, 56160, Note_on_c, 0, 68, 0
2, 56160, Note_on_c, 0, 66, 64
2, 57600, Note_on_c, 0, 66, 0
2, 57600, End_track
3, 0, Start_track
3, 0, MIDI_port, 0
3, 0, Title_t, "RH L"
3, 0, Program_c, 1, 6
3, 4560, Note_on_c, 1, 61, 64
3, 4800, Note_on_c, 1, 61, 0
3, 4800, Note_on_c, 1, 63, 64
3, 5040, Note_on_c, 1, 63, 0
3, 5040, Note_on_c, 1, 64, 64
3, 6000, Note_on_c, 1, 64, 0
3, 6000, Note_on_c, 1, 63, 64
3, 6120, Note_on_c, 1, 63, 0
3, 6120, Note_on_c, 1, 65, 64
3, 6240, Note_on_c, 1, 65, 0
3, 6240, Note_on_c, 1, 66, 64
3, 6720, Note_on_c, 1, 66, 0
3, 6720, Note_on_c, 1, 65, 64
3, 6840, Note_on_c, 1, 65, 0
3, 6840, Note_on_c, 1, 63, 64
3, 6960, Note_on_c, 1, 63, 0
3, 6960, Note_on_c, 1, 65, 64
3, 7080, Note_on_c, 1, 65, 0
3, 7080, Note_on_c, 1, 67, 64
3, 7200, Note_on_c, 1, 67, 0
3, 7200, Note_on_c, 1, 68, 64
3, 7560, Note_on_c, 1, 68, 0
3, 7560, Note_on_c, 1, 66, 64
3, 7680, Note_on_c, 1, 66, 0
3, 7680, Note_on_c, 1, 64, 64
3, 7800, Note_on_c, 1, 64, 0
3, 7800, Note_on_c, 1, 68, 64
3, 7920, Note_on_c, 1, 68, 0
3, 7920, Note_on_c, 1, 66, 64
3, 8040, Note_on_c, 1, 66, 0
3, 8040, Note_on_c, 1, 64, 64
3, 8150, Note_on_c, 1, 64, 0
3, 8160, Note_on_c, 1, 64, 70
3, 8190, Note_on_c, 1, 64, 0
3, 8190, Note_on_c, 1, 63, 51
3, 8220, Note_on_c, 1, 63, 0
3, 8220, Note_on_c, 1, 64, 53
3, 8250, Note_on_c, 1, 64, 0
3, 8250, Note_on_c, 1, 63, 56
3, 8280, Note_on_c, 1, 63, 0
3, 8280, Note_on_c, 1, 64, 58
3, 8310, Note_on_c, 1, 64, 0
3, 8310, Note_on_c, 1, 63, 61
3, 8340, Note_on_c, 1, 63, 0
3, 8340, Note_on_c, 1, 64, 63
3, 8370, Note_on_c, 1, 64, 0
3, 8370, Note_on_c, 1, 63, 66
3, 8640, Note_on_c, 1, 63, 0
3, 8760, Note_on_c, 1, 64, 64
3, 8880, Note_on_c, 1, 64, 0
3, 8880, Note_on_c, 1, 66, 64
3, 9000, Note_on_c, 1, 66, 0
3, 9000, Note_on_c, 1, 68, 64
3, 9120, Note_on_c, 1, 68, 0
3, 9120, Note_on_c, 1, 69, 64
3, 9480, Note_on_c, 1, 69, 0
3, 9480, Note_on_c, 1, 66, 64
3, 9600, Note_on_c, 1, 66, 0
3, 9600, Note_on_c, 1, 68, 64
3, 9720, Note_on_c, 1, 68, 0
3, 9720, Note_on_c, 1, 70, 64
3, 9840, Note_on_c, 1, 70, 0
3, 9840, Note_on_c, 1, 71, 64
3, 10200, Note_on_c, 1, 71, 0
3, 10200, Note_on_c, 1, 71, 64
3, 10320, Note_on_c, 1, 71, 0
3, 10320, Note_on_c, 1, 71, 64
3, 10440, Note_on_c, 1, 71, 0
3, 10440, Note_on_c, 1, 69, 64
3, 10560, Note_on_c, 1, 69, 0
3, 10560, Note_on_c, 1, 69, 64
3, 10680, Note_on_c, 1, 69, 0
3, 10680, Note_on_c, 1, 68, 64
3, 10800, Note_on_c, 1, 68, 0
3, 10800, Note_on_c, 1, 68, 64
3, 10920, Note_on_c, 1, 68, 0
3, 10920, Note_on_c, 1, 66, 64
3, 11040, Note_on_c, 1, 66, 0
3, 11040, Note_on_c, 1, 66, 64
3, 11160, Note_on_c, 1, 66, 0
3, 11160, Note_on_c, 1, 64, 64
3, 11280, Note_on_c, 1, 64, 0
3, 11280, Note_on_c, 1, 64, 64
3, 11400, Note_on_c, 1, 64, 0
3, 11400, Note_on_c, 1, 63, 64
3, 11520, Note_on_c, 1, 63, 0
3, 11520, Note_on_c, 1, 63, 64
3, 11640, Note_on_c, 1, 63, 0
3, 11640, Note_on_c, 1, 64, 64
3, 11760, Note_on_c, 1, 64, 0
3, 11760, Note_on_c, 1, 64, 64
3, 11880, Note_on_c, 1, 64, 0
3, 11880, Note_on_c, 1, 62, 64
3, 12000, Note_on_c, 1, 62, 0
3, 12000, Note_on_c, 1, 62, 64
3, 12120, Note_on_c, 1, 62, 0
3, 12120, Note_on_c, 1, 61, 64
3, 12240, Note_on_c, 1, 61, 0
3, 12240, Note_on_c, 1, 61, 64
3, 12720, Note_on_c, 1, 61, 0
3, 12840, Note_on_c, 1, 63, 64
3, 12960, Note_on_c, 1, 63, 0
3, 12960, Note_on_c, 1, 65, 64
3, 13080, Note_on_c, 1, 65, 0
3, 13080, Note_on_c, 1, 66, 64
3, 13200, Note_on_c, 1, 66, 0
3, 13200, Note_on_c, 1, 68, 64
3, 13440, Note_on_c, 1, 68, 0
3, 13440, Note_on_c, 1, 61, 64
3, 13680, Note_on_c, 1, 61, 0
3, 13680, Note_on_c, 1, 66, 64
3, 14160, Note_on_c, 1, 66, 0
3, 14160, Note_on_c, 1, 65, 64
3, 14400, Note_on_c, 1, 65, 0
3, 14400, Note_on_c, 1, 66, 64
3, 15120, Note_on_c, 1, 66, 0
3, 15120, Note_on_c, 1, 64, 64
3, 15360, Note_on_c, 1, 64, 0
3, 15360, Note_on_c, 1, 66, 64
3, 15480, Note_on_c, 1, 66, 0
3, 15480, Note_on_c, 1, 68, 64
3, 15600, Note_on_c, 1, 68, 0
3, 15600, Note_on_c, 1, 69, 64
3, 15840, Note_on_c, 1, 69, 0
3, 15840, Note_on_c, 1, 68, 64
3, 16560, Note_on_c, 1, 68, 0
3, 16560, Note_on_c, 1, 66, 64
3, 17280, Note_on_c, 1, 66, 0
3, 17280, Note_on_c, 1, 64, 64
3, 17640, Note_on_c, 1, 64, 0
3, 17640, Note_on_c, 1, 66, 64
3, 17760, Note_on_c, 1, 66, 0
3, 17760, Note_on_c, 1, 67, 64
3, 18240, Note_on_c, 1, 67, 0
3, 18240, Note_on_c, 1, 66, 64
3, 18360, Note_on_c, 1, 66, 0
3, 18360, Note_on_c, 1, 64, 64
3, 18480, Note_on_c, 1, 64, 0
3, 18480, Note_on_c, 1, 62, 64
3, 18600, Note_on_c, 1, 62, 0
3, 18600, Note_on_c, 1, 61, 64
3, 18720, Note_on_c, 1, 61, 0
3, 18720, Note_on_c, 1, 62, 64
3, 19080, Note_on_c, 1, 62, 0
3, 19080, Note_on_c, 1, 64, 64
3, 19200, Note_on_c, 1, 64, 0
3, 19200, Note_on_c, 1, 66, 64
3, 19680, Note_on_c, 1, 66, 0
3, 19680, Note_on_c, 1, 64, 64
3, 19800, Note_on_c, 1, 64, 0
3, 19800, Note_on_c, 1, 62, 64
3, 19920, Note_on_c, 1, 62, 0
3, 19920, Note_on_c, 1, 61, 64
3, 20040, Note_on_c, 1, 61, 0
3, 20040, Note_on_c, 1, 59, 64
3, 20160, Note_on_c, 1, 59, 0
3, 20160, Note_on_c, 1, 61, 64
3, 20400, Note_on_c, 1, 61, 0
3, 20400, Note_on_c, 1, 63, 64
3, 20640, Note_on_c, 1, 63, 0
3, 20640, Note_on_c, 1, 65, 64
3, 20880, Note_on_c, 1, 65, 0
3, 20880, Note_on_c, 1, 66, 64
3, 21840, Note_on_c, 1, 66, 0
3, 21840, Note_on_c, 1, 68, 64
3, 22080, Note_on_c, 1, 68, 0
3, 22080, Note_on_c, 1, 66, 64
3, 22320, Note_on_c, 1, 66, 0
3, 22320, Note_on_c, 1, 65, 64
3, 22560, Note_on_c, 1, 65, 0
3, 22560, Note_on_c, 1, 66, 64
3, 22680, Note_on_c, 1, 66, 0
3, 22680, Note_on_c, 1, 65, 64
3, 22800, Note_on_c, 1, 65, 0
3, 22800, Note_on_c, 1, 66, 64
3, 23040, Note_on_c, 1, 66, 0
3, 23040, Note_on_c, 1, 68, 64
3, 23520, Note_on_c, 1, 68, 0
3, 23520, Note_on_c, 1, 66, 64
3, 23880, Note_on_c, 1, 66, 0
3, 23880, Note_on_c, 1, 64, 64
3, 24000, Note_on_c, 1, 64, 0
3, 24000, Note_on_c, 1, 62, 64
3, 24240, Note_on_c, 1, 62, 0
3, 24240, Note_on_c, 1, 61, 64
3, 24840, Note_on_c, 1, 61, 0
3, 24840, Note_on_c, 1, 68, 64
3, 24960, Note_on_c, 1, 68, 0
3, 24960, Note_on_c, 1, 69, 64
3, 25080, Note_on_c, 1, 69, 0
3, 25080, Note_on_c, 1, 71, 64
3, 25200, Note_on_c, 1, 71, 0
3, 25200, Note_on_c, 1, 64, 64
3, 25560, Note_on_c, 1, 64, 0
3, 25560, Note_on_c, 1, 69, 64
3, 25680, Note_on_c, 1, 69, 0
3, 25680, Note_on_c, 1, 71, 64
3, 25800, Note_on_c, 1, 71, 0
3, 25800, Note_on_c, 1, 73, 64
3, 25920, Note_on_c, 1, 73, 0
3, 25920, Note_on_c, 1, 66, 64
3, 26750, Note_on_c, 1, 66, 0
3, 26760, Note_on_c, 1, 66, 64
3, 26880, Note_on_c, 1, 66, 0
3, 26880, Note_on_c, 1, 66, 64
3, 27000, Note_on_c, 1, 66, 0
3, 27000, Note_on_c, 1, 64, 64
3, 27120, Note_on_c, 1, 64, 0
3, 27120, Note_on_c, 1, 64, 64
3, 27240, Note_on_c, 1, 64, 0
3, 27240, Note_on_c, 1, 63, 64
3, 27360, Note_on_c, 1, 63, 0
3, 27360, Note_on_c, 1, 63, 64
3, 27480, Note_on_c, 1, 63, 0
3, 27480, Note_on_c, 1, 68, 64
3, 27600, Note_on_c, 1, 68, 0
3, 27600, Note_on_c, 1, 68, 64
3, 27720, Note_on_c, 1, 68, 0
3, 27720, Note_on_c, 1, 66, 64
3, 27840, Note_on_c, 1, 66, 0
3, 27840, Note_on_c, 1, 66, 64
3, 27960, Note_on_c, 1, 66, 0
3, 27960, Note_on_c, 1, 64, 64
3, 28080, Note_on_c, 1, 64, 0
3, 28080, Note_on_c, 1, 64, 64
3, 28320, Note_on_c, 1, 64, 0
3, 28320, Note_on_c, 1, 73, 64
3, 28560, Note_on_c, 1, 73, 0
3, 28560, Note_on_c, 1, 71, 64
3, 28800, Note_on_c, 1, 71, 0
3, 28800, Note_on_c, 1, 70, 64
3, 29760, Note_on_c, 1, 70, 0
3, 29760, Note_on_c, 1, 71, 64
3, 29880, Note_on_c, 1, 71, 0
3, 29880, Note_on_c, 1, 69, 64
3, 30000, Note_on_c, 1, 69, 0
3, 30000, Note_on_c, 1, 68, 64
3, 30480, Note_on_c, 1, 68, 0
3, 30480, Note_on_c, 1, 69, 64
3, 30600, Note_on_c, 1, 69, 0
3, 30600, Note_on_c, 1, 71, 64
3, 30720, Note_on_c, 1, 71, 0
3, 30720, Note_on_c, 1, 69, 64
3, 30840, Note_on_c, 1, 69, 0
3, 30840, Note_on_c, 1, 68, 64
3, 30960, Note_on_c, 1, 68, 0
3, 30960, Note_on_c, 1, 66, 64
3, 31320, Note_on_c, 1, 66, 0
3, 31320, Note_on_c, 1, 68, 64
3, 31440, Note_on_c, 1, 68, 0
3, 31440, Note_on_c, 1, 69, 64
3, 31560, Note_on_c, 1, 69, 0
3, 31560, Note_on_c, 1, 66, 64
3, 31680, Note_on_c, 1, 66, 0
3, 31680, Note_on_c, 1, 68, 64
3, 31800, Note_on_c, 1, 68, 0
3, 31800, Note_on_c, 1, 69, 64
3, 31920, Note_on_c, 1, 69, 0
3, 31920, Note_on_c, 1, 71, 64
3, 32400, Note_on_c, 1, 71, 0
3, 32400, Note_on_c, 1, 73, 64
3, 32880, Note_on_c, 1, 73, 0
3, 32880, Note_on_c, 1, 66, 64
3, 33120, Note_on_c, 1, 66, 0
3, 33120, Note_on_c, 1, 71, 64
3, 33480, Note_on_c, 1, 71, 0
3, 33480, Note_on_c, 1, 64, 64
3, 33600, Note_on_c, 1, 64, 0
3, 33600, Note_on_c, 1, 66, 64
3, 33720, Note_on_c, 1, 66, 0
3, 33720, Note_on_c, 1, 68, 64
3, 33840, Note_on_c, 1, 68, 0
3, 33840, Note_on_c, 1, 69, 64
3, 34320, Note_on_c, 1, 69, 0
3, 34320, Note_on_c, 1, 62, 64
3, 34560, Note_on_c, 1, 62, 0
3, 34560, Note_on_c, 1, 61, 64
3, 35040, Note_on_c, 1, 61, 0
3, 35040, Note_on_c, 1, 69, 64
3, 35280, Note_on_c, 1, 69, 0
3, 35280, Note_on_c, 1, 68, 64
3, 35400, Note_on_c, 1, 68, 0
3, 35400, Note_on_c, 1, 73, 64
3, 35520, Note_on_c, 1, 73, 0
3, 35520, Note_on_c, 1, 73, 64
3, 35640, Note_on_c, 1, 73, 0
3, 35640, Note_on_c, 1, 71, 64
3, 35760, Note_on_c, 1, 71, 0
3, 35760, Note_on_c, 1, 71, 64
3, 35880, Note_on_c, 1, 71, 0
3, 35880, Note_on_c, 1, 70, 64
3, 36000, Note_on_c, 1, 70, 0
3, 36000, Note_on_c, 1, 70, 64
3, 36120, Note_on_c, 1, 70, 0
3, 36120, Note_on_c, 1, 71, 64
3, 36240, Note_on_c, 1, 71, 0
3, 36240, Note_on_c, 1, 71, 64
3, 36360, Note_on_c, 1, 71, 0
3, 36360, Note_on_c, 1, 69, 64
3, 36480, Note_on_c, 1, 69, 0
3, 36480, Note_on_c, 1, 69, 64
3, 36600, Note_on_c, 1, 69, 0
3, 36600, Note_on_c, 1, 68, 64
3, 36720, Note_on_c, 1, 68, 0
3, 36720, Note_on_c, 1, 68, 64
3, 37320, Note_on_c, 1, 68, 0
3, 37320, Note_on_c, 1, 70, 64
3, 37440, Note_on_c, 1, 70, 0
3, 37440, Note_on_c, 1, 72, 64
3, 37560, Note_on_c, 1, 72, 0
3, 37560, Note_on_c, 1, 73, 64
3, 37680, Note_on_c, 1, 73, 0
3, 37680, Note_on_c, 1, 75, 64
3, 37920, Note_on_c, 1, 75, 0
3, 37920, Note_on_c, 1, 68, 64
3, 38160, Note_on_c, 1, 68, 0
3, 38160, Note_on_c, 1, 73, 64
3, 38640, Note_on_c, 1, 73, 0
3, 38640, Note_on_c, 1, 72, 64
3, 38880, Note_on_c, 1, 72, 0
3, 38880, Note_on_c, 1, 73, 64
3, 39240, Note_on_c, 1, 73, 0
3, 39240, Note_on_c, 1, 71, 64
3, 39360, Note_on_c, 1, 71, 0
3, 39360, Note_on_c, 1, 73, 64
3, 39480, Note_on_c, 1, 73, 0
3, 39480, Note_on_c, 1, 75, 64
3, 39600, Note_on_c, 1, 75, 0
3, 39600, Note_on_c, 1, 76, 64
3, 39960, Note_on_c, 1, 76, 0
3, 39960, Note_on_c, 1, 73, 64
3, 40080, Note_on_c, 1, 73, 0
3, 40080, Note_on_c, 1, 75, 64
3, 40200, Note_on_c, 1, 75, 0
3, 40200, Note_on_c, 1, 77, 64
3, 40320, Note_on_c, 1, 77, 0
3, 40320, Note_on_c, 1, 78, 64
3, 40560, Note_on_c, 1, 78, 0
3, 40560, Note_on_c, 1, 66, 64
3, 40800, Note_on_c, 1, 66, 0
3, 40800, Note_on_c, 1, 65, 64
3, 41040, Note_on_c, 1, 65, 0
3, 41040, Note_on_c, 1, 66, 64
3, 41160, Note_on_c, 1, 66, 0
3, 41160, Note_on_c, 1, 61, 64
3, 41280, Note_on_c, 1, 61, 0
3, 41280, Note_on_c, 1, 66, 64
3, 41400, Note_on_c, 1, 66, 0
3, 41400, Note_on_c, 1, 68, 64
3, 41520, Note_on_c, 1, 68, 0
3, 41520, Note_on_c, 1, 69, 64
3, 41640, Note_on_c, 1, 69, 0
3, 41640, Note_on_c, 1, 66, 64
3, 41760, Note_on_c, 1, 66, 0
3, 41760, Note_on_c, 1, 69, 64
3, 42120, Note_on_c, 1, 69, 0
3, 42120, Note_on_c, 1, 66, 64
3, 42240, Note_on_c, 1, 66, 0
3, 42240, Note_on_c, 1, 68, 64
3, 42360, Note_on_c, 1, 68, 0
3, 42360, Note_on_c, 1, 69, 64
3, 42480, Note_on_c, 1, 69, 0
3, 42480, Note_on_c, 1, 65, 64
3, 42600, Note_on_c, 1, 65, 0
3, 42600, Note_on_c, 1, 61, 64
3, 42720, Note_on_c, 1, 61, 0
3, 42720, Note_on_c, 1, 66, 64
3, 42960, Note_on_c, 1, 66, 0
3, 42960, Note_on_c, 1, 61, 64
3, 43320, Note_on_c, 1, 61, 0
3, 43320, Note_on_c, 1, 63, 64
3, 43440, Note_on_c, 1, 63, 0
3, 43440, Note_on_c, 1, 65, 64
3, 43680, Note_on_c, 1, 65, 0
3, 43680, Note_on_c, 1, 66, 64
3, 43800, Note_on_c, 1, 66, 0
3, 43800, Note_on_c, 1, 64, 64
3, 43920, Note_on_c, 1, 64, 0
3, 43920, Note_on_c, 1, 62, 64
3, 44040, Note_on_c, 1, 62, 0
3, 44040, Note_on_c, 1, 61, 64
3, 44160, Note_on_c, 1, 61, 0
3, 44160, Note_on_c, 1, 59, 64
3, 44640, Note_on_c, 1, 59, 0
3, 44640, Note_on_c, 1, 57, 64
3, 44760, Note_on_c, 1, 57, 0
3, 44760, Note_on_c, 1, 61, 64
3, 44880, Note_on_c, 1, 61, 0
3, 44880, Note_on_c, 1, 66, 64
3, 46190, Note_on_c, 1, 66, 0
3, 46200, Note_on_c, 1, 66, 64
3, 46320, Note_on_c, 1, 66, 0
3, 46320, Note_on_c, 1, 64, 64
3, 46800, Note_on_c, 1, 64, 0
3, 46800, Note_on_c, 1, 62, 64
3, 47160, Note_on_c, 1, 62, 0
3, 47160, Note_on_c, 1, 66, 64
3, 47280, Note_on_c, 1, 66, 0
3, 47280, Note_on_c, 1, 68, 64
3, 47400, Note_on_c, 1, 68, 0
3, 47400, Note_on_c, 1, 70, 64
3, 47520, Note_on_c, 1, 70, 0
3, 47520, Note_on_c, 1, 71, 64
3, 47640, Note_on_c, 1, 71, 0
3, 47640, Note_on_c, 1, 69, 64
3, 47760, Note_on_c, 1, 69, 0
3, 47760, Note_on_c, 1, 68, 64
3, 47880, Note_on_c, 1, 68, 0
3, 47880, Note_on_c, 1, 66, 64
3, 48000, Note_on_c, 1, 66, 0
3, 48000, Note_on_c, 1, 65, 64
3, 48120, Note_on_c, 1, 65, 0
3, 48120, Note_on_c, 1, 66, 64
3, 48240, Note_on_c, 1, 66, 0
3, 48240, Note_on_c, 1, 65, 64
3, 48360, Note_on_c, 1, 65, 0
3, 48360, Note_on_c, 1, 66, 64
3, 48480, Note_on_c, 1, 66, 0
3, 48480, Note_on_c, 1, 68, 64
3, 49070, Note_on_c, 1, 68, 0
3, 49080, Note_on_c, 1, 68, 64
3, 49200, Note_on_c, 1, 68, 0
3, 49200, Note_on_c, 1, 66, 64
3, 49320, Note_on_c, 1, 66, 0
3, 49320, Note_on_c, 1, 64, 64
3, 49440, Note_on_c, 1, 64, 0
3, 49440, Note_on_c, 1, 64, 64
3, 49560, Note_on_c, 1, 64, 0
3, 49560, Note_on_c, 1, 63, 64
3, 49680, Note_on_c, 1, 63, 0
3, 49680, Note_on_c, 1, 63, 64
3, 50510, Note_on_c, 1, 63, 0
3, 50520, Note_on_c, 1, 66, 64
3, 50640, Note_on_c, 1, 66, 0
3, 50640, Note_on_c, 1, 64, 64
3, 50760, Note_on_c, 1, 64, 0
3, 50760, Note_on_c, 1, 62, 64
3, 50880, Note_on_c, 1, 62, 0
3, 50880, Note_on_c, 1, 62, 64
3, 51000, Note_on_c, 1, 62, 0
3, 51000, Note_on_c, 1, 61, 64
3, 51120, Note_on_c, 1, 61, 0
3, 51120, Note_on_c, 1, 61, 64
3, 52080, Note_on_c, 1, 61, 0
3, 52080, Note_on_c, 1, 59, 64
3, 52560, Note_on_c, 1, 59, 0
3, 52680, Note_on_c, 1, 68, 64
3, 52800, Note_on_c, 1, 68, 0
3, 52800, Note_on_c, 1, 66, 64
3, 52920, Note_on_c, 1, 66, 0
3, 52920, Note_on_c, 1, 64, 64
3, 53040, Note_on_c, 1, 64, 0
3, 53040, Note_on_c, 1, 64, 64
3, 53160, Note_on_c, 1, 64, 0
3, 53160, Note_on_c, 1, 63, 64
3, 53280, Note_on_c, 1, 63, 0
3, 53280, Note_on_c, 1, 63, 64
3, 53400, Note_on_c, 1, 63, 0
3, 53400, Note_on_c, 1, 64, 64
3, 53520, Note_on_c, 1, 64, 0
3, 53520, Note_on_c, 1, 64, 64
3, 53640, Note_on_c, 1, 64, 0
3, 53640, Note_on_c, 1, 62, 64
3, 53760, Note_on_c, 1, 62, 0
3, 53760, Note_on_c, 1, 62, 64
3, 53880, Note_on_c, 1, 62, 0
3, 53880, Note_on_c, 1, 61, 64
3, 54000, Note_on_c, 1, 61, 0
3, 54000, Note_on_c, 1, 61, 64
3, 54600, Note_on_c, 1, 61, 0
3, 54600, Note_on_c, 1, 63, 64
3, 54720, Note_on_c, 1, 63, 0
3, 54720, Note_on_c, 1, 64, 64
3, 54960, Note_on_c, 1, 64, 0
3, 54960, Note_on_c, 1, 66, 64
3, 55080, Note_on_c, 1, 66, 0
3, 55080, Note_on_c, 1, 64, 64
3, 55200, Note_on_c, 1, 64, 0
3, 55200, Note_on_c, 1, 66, 64
3, 55920, Note_on_c, 1, 66, 0
3, 55920, Note_on_c, 1, 65, 64
3, 56160, Note_on_c, 1, 65, 0
3, 56160, Note_on_c, 1, 66, 64
3, 57600, Note_on_c, 1, 66, 0
3, 57600, End_track
4, 0, Start_track
4, 0, MIDI_port, 0
4, 0, Title_t, "LH H"
4, 0, Program_c, 2, 6
4, 240, Note_on_c, 2, 54, 64
4, 480, Note_on_c, 2, 54, 0
4, 480, Note_on_c, 2, 56, 64
4, 720, Note_on_c, 2, 56, 0
4, 720, Note_on_c, 2, 57, 64
4, 1680, Note_on_c, 2, 57, 0
4, 1680, Note_on_c, 2, 56, 64
4, 1800, Note_on_c, 2, 56, 0
4, 1800, Note_on_c, 2, 58, 64
4, 1920, Note_on_c, 2, 58, 0
4, 1920, Note_on_c, 2, 59, 64
4, 2400, Note_on_c, 2, 59, 0
4, 2400, Note_on_c, 2, 58, 64
4, 2520, Note_on_c, 2, 58, 0
4, 2520, Note_on_c, 2, 56, 64
4, 2640, Note_on_c, 2, 56, 0
4, 2640, Note_on_c, 2, 58, 64
4, 2760, Note_on_c, 2, 58, 0
4, 2760, Note_on_c, 2, 60, 64
4, 2880, Note_on_c, 2, 60, 0
4, 2880, Note_on_c, 2, 61, 64
4, 3240, Note_on_c, 2, 61, 0
4, 3240, Note_on_c, 2, 59, 64
4, 3360, Note_on_c, 2, 59, 0
4, 3360, Note_on_c, 2, 57, 64
4, 3480, Note_on_c, 2, 57, 0
4, 3480, Note_on_c, 2, 61, 64
4, 3600, Note_on_c, 2, 61, 0
4, 3600, Note_on_c, 2, 59, 64
4, 3720, Note_on_c, 2, 59, 0
4, 3720, Note_on_c, 2, 57, 64
4, 3830, Note_on_c, 2, 57, 0
4, 3840, Note_on_c, 2, 57, 70
4, 3870, Note_on_c, 2, 57, 0
4, 3870, Note_on_c, 2, 56, 51
4, 3900, Note_on_c, 2, 56, 0
4, 3900, Note_on_c, 2, 57, 53
4, 3930, Note_on_c, 2, 57, 0
4, 3930, Note_on_c, 2, 56, 56
4, 3960, Note_on_c, 2, 56, 0
4, 3960, Note_on_c, 2, 57, 58
4, 3990, Note_on_c, 2, 57, 0
4, 3990, Note_on_c, 2, 56, 61
4, 4020, Note_on_c, 2, 56, 0
4, 4020, Note_on_c, 2, 57, 63
4, 4050, Note_on_c, 2, 57, 0
4, 4050, Note_on_c, 2, 56, 66
4, 4320, Note_on_c, 2, 56, 0
4, 4320, Note_on_c, 2, 54, 64
4, 5040, Note_on_c, 2, 54, 0
4, 5160, Note_on_c, 2, 61, 64
4, 5280, Note_on_c, 2, 61, 0
4, 5280, Note_on_c, 2, 61, 64
4, 5400, Note_on_c, 2, 61, 0
4, 5400, Note_on_c, 2, 59, 64
4, 5520, Note_on_c, 2, 59, 0
4, 5520, Note_on_c, 2, 59, 64
4, 5640, Note_on_c, 2, 59, 0
4, 5640, Note_on_c, 2, 58, 64
4, 5760, Note_on_c, 2, 58, 0
4, 5760, Note_on_c, 2, 58, 64
4, 5880, Note_on_c, 2, 58, 0
4, 5880, Note_on_c, 2, 59, 64
4, 6000, Note_on_c, 2, 59, 0
4, 6000, Note_on_c, 2, 59, 64
4, 6120, Note_on_c, 2, 59, 0
4, 6120, Note_on_c, 2, 57, 64
4, 6240, Note_on_c, 2, 57, 0
4, 6240, Note_on_c, 2, 57, 64
4, 6360, Note_on_c, 2, 57, 0
4, 6360, Note_on_c, 2, 56, 64
4, 6480, Note_on_c, 2, 56, 0
4, 6480, Note_on_c, 2, 56, 64
4, 7080, Note_on_c, 2, 56, 0
4, 7080, Note_on_c, 2, 58, 64
4, 7200, Note_on_c, 2, 58, 0
4, 7200, Note_on_c, 2, 60, 64
4, 7320, Note_on_c, 2, 60, 0
4, 7320, Note_on_c, 2, 61, 64
4, 7440, Note_on_c, 2, 61, 0
4, 7440, Note_on_c, 2, 63, 64
4, 7680, Note_on_c, 2, 63, 0
4, 7680, Note_on_c, 2, 56, 64
4, 7920, Note_on_c, 2, 56, 0
4, 7920, Note_on_c, 2, 61, 64
4, 8400, Note_on_c, 2, 61, 0
4, 8400, Note_on_c, 2, 60, 64
4, 8640, Note_on_c, 2, 60, 0
4, 8640, Note_on_c, 2, 61, 64
4, 9000, Note_on_c, 2, 61, 0
4, 9000, Note_on_c, 2, 59, 64
4, 9120, Note_on_c, 2, 59, 0
4, 9120, Note_on_c, 2, 61, 64
4, 9240, Note_on_c, 2, 61, 0
4, 9240, Note_on_c, 2, 63, 64
4, 9360, Note_on_c, 2, 63, 0
4, 9360, Note_on_c, 2, 64, 64
4, 9720, Note_on_c, 2, 64, 0
4, 9720, Note_on_c, 2, 61, 64
4, 9840, Note_on_c, 2, 61, 0
4, 9840, Note_on_c, 2, 63, 64
4, 9960, Note_on_c, 2, 63, 0
4, 9960, Note_on_c, 2, 65, 64
4, 10080, Note_on_c, 2, 65, 0
4, 10080, Note_on_c, 2, 66, 64
4, 10320, Note_on_c, 2, 66, 0
4, 10320, Note_on_c, 2, 61, 64
4, 10560, Note_on_c, 2, 61, 0
4, 10560, Note_on_c, 2, 59, 64
4, 10800, Note_on_c, 2, 59, 0
4, 10800, Note_on_c, 2, 61, 64
4, 11040, Note_on_c, 2, 61, 0
4, 11040, Note_on_c, 2, 57, 64
4, 11280, Note_on_c, 2, 57, 0
4, 11280, Note_on_c, 2, 54, 64
4, 11520, Note_on_c, 2, 54, 0
4, 11520, Note_on_c, 2, 59, 64
4, 12240, Note_on_c, 2, 59, 0
4, 12240, Note_on_c, 2, 53, 64
4, 12360, Note_on_c, 2, 53, 0
4, 12360, Note_on_c, 2, 49, 64
4, 12480, Note_on_c, 2, 49, 0
4, 12480, Note_on_c, 2, 54, 64
4, 12720, Note_on_c, 2, 54, 0
4, 12720, Note_on_c, 2, 61, 64
4, 13080, Note_on_c, 2, 61, 0
4, 13080, Note_on_c, 2, 63, 64
4, 13200, Note_on_c, 2, 63, 0
4, 13200, Note_on_c, 2, 65, 64
4, 13440, Note_on_c, 2, 65, 0
4, 13440, Note_on_c, 2, 66, 64
4, 13560, Note_on_c, 2, 66, 0
4, 13560, Note_on_c, 2, 64, 64
4, 13680, Note_on_c, 2, 64, 0
4, 13680, Note_on_c, 2, 62, 64
4, 13800, Note_on_c, 2, 62, 0
4, 13800, Note_on_c, 2, 61, 64
4, 13920, Note_on_c, 2, 61, 0
4, 13920, Note_on_c, 2, 59, 64
4, 14520, Note_on_c, 2, 59, 0
4, 14520, Note_on_c, 2, 57, 64
4, 14640, Note_on_c, 2, 57, 0
4, 14640, Note_on_c, 2, 59, 64
4, 14760, Note_on_c, 2, 59, 0
4, 14760, Note_on_c, 2, 61, 64
4, 14880, Note_on_c, 2, 61, 0
4, 14880, Note_on_c, 2, 62, 64
4, 15240, Note_on_c, 2, 62, 0
4, 15240, Note_on_c, 2, 61, 64
4, 15360, Note_on_c, 2, 61, 0
4, 15360, Note_on_c, 2, 63, 64
4, 15480, Note_on_c, 2, 63, 0
4, 15480, Note_on_c, 2, 65, 64
4, 15600, Note_on_c, 2, 65, 0
4, 15600, Note_on_c, 2, 66, 64
4, 15960, Note_on_c, 2, 66, 0
4, 15960, Note_on_c, 2, 66, 64
4, 16080, Note_on_c, 2, 66, 0
4, 16080, Note_on_c, 2, 64, 64
4, 16200, Note_on_c, 2, 64, 0
4, 16200, Note_on_c, 2, 63, 64
4, 16320, Note_on_c, 2, 63, 0
4, 16320, Note_on_c, 2, 61, 64
4, 16440, Note_on_c, 2, 61, 0
4, 16440, Note_on_c, 2, 59, 64
4, 16560, Note_on_c, 2, 59, 0
4, 16560, Note_on_c, 2, 58, 64
4, 16800, Note_on_c, 2, 58, 0
4, 16800, Note_on_c, 2, 60, 64
4, 16920, Note_on_c, 2, 60, 0
4, 16920, Note_on_c, 2, 61, 64
4, 17040, Note_on_c, 2, 61, 0
4, 17040, Note_on_c, 2, 63, 64
4, 17400, Note_on_c, 2, 63, 0
4, 17400, Note_on_c, 2, 63, 64
4, 17520, Note_on_c, 2, 63, 0
4, 17520, Note_on_c, 2, 61, 64
4, 17760, Note_on_c, 2, 61, 0
4, 17760, Note_on_c, 2, 59, 64
4, 18000, Note_on_c, 2, 59, 0
4, 18000, Note_on_c, 2, 58, 64
4, 18120, Note_on_c, 2, 58, 0
4, 18120, Note_on_c, 2, 59, 64
4, 18240, Note_on_c, 2, 59, 0
4, 18240, Note_on_c, 2, 61, 64
4, 18830, Note_on_c, 2, 61, 0
4, 18840, Note_on_c, 2, 61, 64
4, 18960, Note_on_c, 2, 61, 0
4, 18960, Note_on_c, 2, 59, 64
4, 19200, Note_on_c, 2, 59, 0
4, 19200, Note_on_c, 2, 57, 64
4, 19440, Note_on_c, 2, 57, 0
4, 19440, Note_on_c, 2, 56, 64
4, 19560, Note_on_c, 2, 56, 0
4, 19560, Note_on_c, 2, 57, 64
4, 19680, Note_on_c, 2, 57, 0
4, 19680, Note_on_c, 2, 59, 64
4, 20280, Note_on_c, 2, 59, 0
4, 20280, Note_on_c, 2, 62, 64
4, 20400, Note_on_c, 2, 62, 0
4, 20400, Note_on_c, 2, 61, 64
4, 20520, Note_on_c, 2, 61, 0
4, 20520, Note_on_c, 2, 59, 64
4, 20640, Note_on_c, 2, 59, 0
4, 20640, Note_on_c, 2, 59, 64
4, 20760, Note_on_c, 2, 59, 0
4, 20760, Note_on_c, 2, 57, 64
4, 20880, Note_on_c, 2, 57, 0
4, 20880, Note_on_c, 2, 57, 64
4, 21000, Note_on_c, 2, 57, 0
4, 21000, Note_on_c, 2, 59, 64
4, 21120, Note_on_c, 2, 59, 0
4, 21120, Note_on_c, 2, 61, 64
4, 21600, Note_on_c, 2, 61, 0
4, 21600, Note_on_c, 2, 59, 64
4, 22320, Note_on_c, 2, 59, 0
4, 22320, Note_on_c, 2, 61, 64
4, 23160, Note_on_c, 2, 61, 0
4, 23160, Note_on_c, 2, 63, 64
4, 23280, Note_on_c, 2, 63, 0
4, 23280, Note_on_c, 2, 65, 64
4, 23520, Note_on_c, 2, 65, 0
4, 23520, Note_on_c, 2, 66, 64
4, 23640, Note_on_c, 2, 66, 0
4, 23640, Note_on_c, 2, 64, 64
4, 23760, Note_on_c, 2, 64, 0
4, 23760, Note_on_c, 2, 62, 64
4, 23880, Note_on_c, 2, 62, 0
4, 23880, Note_on_c, 2, 61, 64
4, 24000, Note_on_c, 2, 61, 0
4, 24000, Note_on_c, 2, 59, 64
4, 24120, Note_on_c, 2, 59, 0
4, 24120, Note_on_c, 2, 57, 64
4, 24240, Note_on_c, 2, 57, 0
4, 24240, Note_on_c, 2, 56, 64
4, 24360, Note_on_c, 2, 56, 0
4, 24360, Note_on_c, 2, 59, 64
4, 24480, Note_on_c, 2, 59, 0
4, 24480, Note_on_c, 2, 57, 64
4, 24720, Note_on_c, 2, 57, 0
4, 40560, Note_on_c, 2, 54, 64
4, 40800, Note_on_c, 2, 54, 0
4, 40800, Note_on_c, 2, 56, 64
4, 41040, Note_on_c, 2, 56, 0
4, 41040, Note_on_c, 2, 57, 64
4, 42000, Note_on_c, 2, 57, 0
4, 42000, Note_on_c, 2, 56, 64
4, 42120, Note_on_c, 2, 56, 0
4, 42120, Note_on_c, 2, 58, 64
4, 42240, Note_on_c, 2, 58, 0
4, 42240, Note_on_c, 2, 59, 64
4, 42720, Note_on_c, 2, 59, 0
4, 42720, Note_on_c, 2, 58, 64
4, 42840, Note_on_c, 2, 58, 0
4, 42840, Note_on_c, 2, 56, 64
4, 42960, Note_on_c, 2, 56, 0
4, 42960, Note_on_c, 2, 58, 64
4, 43080, Note_on_c, 2, 58, 0
4, 43080, Note_on_c, 2, 60, 64
4, 43200, Note_on_c, 2, 60, 0
4, 43200, Note_on_c, 2, 61, 64
4, 43560, Note_on_c, 2, 61, 0
4, 43560, Note_on_c, 2, 59, 64
4, 43680, Note_on_c, 2, 59, 0
4, 43680, Note_on_c, 2, 57, 64
4, 43800, Note_on_c, 2, 57, 0
4, 43800, Note_on_c, 2, 61, 64
4, 43920, Note_on_c, 2, 61, 0
4, 43920, Note_on_c, 2, 59, 64
4, 44040, Note_on_c, 2, 59, 0
4, 44040, Note_on_c, 2, 57, 64
4, 44160, Note_on_c, 2, 57, 0
4, 44160, Note_on_c, 2, 56, 64
4, 44640, Note_on_c, 2, 56, 0
4, 44640, Note_on_c, 2, 54, 64
4, 44880, Note_on_c, 2, 54, 0
4, 44880, Note_on_c, 2, 57, 64
4, 45600, Note_on_c, 2, 57, 0
4, 45600, Note_on_c, 2, 54, 64
4, 45840, Note_on_c, 2, 54, 0
4, 45840, Note_on_c, 2, 59, 64
4, 46560, Note_on_c, 2, 59, 0
4, 46560, Note_on_c, 2, 61, 64
4, 46680, Note_on_c, 2, 61, 0
4, 46680, Note_on_c, 2, 59, 64
4, 46800, Note_on_c, 2, 59, 0
4, 46800, Note_on_c, 2, 57, 64
4, 47280, Note_on_c, 2, 57, 0
4, 47640, Note_on_c, 2, 54, 64
4, 47760, Note_on_c, 2, 54, 0
4, 47760, Note_on_c, 2, 59, 64
4, 48120, Note_on_c, 2, 59, 0
4, 48120, Note_on_c, 2, 57, 64
4, 48240, Note_on_c, 2, 57, 0
4, 48240, Note_on_c, 2, 56, 64
4, 48600, Note_on_c, 2, 56, 0
4, 48600, Note_on_c, 2, 56, 64
4, 48720, Note_on_c, 2, 56, 0
4, 48720, Note_on_c, 2, 61, 64
4, 49080, Note_on_c, 2, 61, 0
4, 49080, Note_on_c, 2, 64, 64
4, 49200, Note_on_c, 2, 64, 0
4, 49200, Note_on_c, 2, 63, 64
4, 49320, Note_on_c, 2, 63, 0
4, 49320, Note_on_c, 2, 61, 64
4, 49440, Note_on_c, 2, 61, 0
4, 49440, Note_on_c, 2, 61, 64
4, 49560, Note_on_c, 2, 61, 0
4, 49560, Note_on_c, 2, 59, 64
4, 49680, Note_on_c, 2, 59, 0
4, 49680, Note_on_c, 2, 59, 64
4, 50400, Note_on_c, 2, 59, 0
4, 50520, Note_on_c, 2, 62, 64
4, 50640, Note_on_c, 2, 62, 0
4, 50640, Note_on_c, 2, 61, 64
4, 50760, Note_on_c, 2, 61, 0
4, 50760, Note_on_c, 2, 59, 64
4, 50880, Note_on_c, 2, 59, 0
4, 50880, Note_on_c, 2, 59, 64
4, 51000, Note_on_c, 2, 59, 0
4, 51000, Note_on_c, 2, 57, 64
4, 51120, Note_on_c, 2, 57, 0
4, 51120, Note_on_c, 2, 57, 64
4, 52080, Note_on_c, 2, 57, 0
4, 52200, Note_on_c, 2, 57, 64
4, 52320, Note_on_c, 2, 57, 0
4, 52320, Note_on_c, 2, 56, 64
4, 52440, Note_on_c, 2, 56, 0
4, 52440, Note_on_c, 2, 54, 64
4, 52560, Note_on_c, 2, 54, 0
4, 52560, Note_on_c, 2, 53, 64
4, 52680, Note_on_c, 2, 53, 0
4, 52680, Note_on_c, 2, 59, 64
4, 52800, Note_on_c, 2, 59, 0
4, 52800, Note_on_c, 2, 57, 64
4, 52920, Note_on_c, 2, 57, 0
4, 52920, Note_on_c, 2, 56, 64
4, 53040, Note_on_c, 2, 56, 0
4, 53040, Note_on_c, 2, 56, 64
4, 53160, Note_on_c, 2, 56, 0
4, 53160, Note_on_c, 2, 54, 64
4, 53280, Note_on_c, 2, 54, 0
4, 53280, Note_on_c, 2, 54, 64
4, 53400, Note_on_c, 2, 54, 0
4, 53400, Note_on_c, 2, 56, 64
4, 53520, Note_on_c, 2, 56, 0
4, 53520, Note_on_c, 2, 56, 64
4, 53640, Note_on_c, 2, 56, 0
4, 53640, Note_on_c, 2, 54, 64
4, 53760, Note_on_c, 2, 54, 0
4, 53760, Note_on_c, 2, 54, 64
4, 53880, Note_on_c, 2, 54, 0
4, 53880, Note_on_c, 2, 53, 64
4, 54000, Note_on_c, 2, 53, 0
4, 54000, Note_on_c, 2, 53, 64
4, 54240, Note_on_c, 2, 53, 0
4, 54240, Note_on_c, 2, 54, 64
4, 54360, Note_on_c, 2, 54, 0
4, 54360, Note_on_c, 2, 53, 64
4, 54480, Note_on_c, 2, 53, 0
4, 54480, Note_on_c, 2, 54, 64
4, 54720, Note_on_c, 2, 54, 0
4, 54720, Note_on_c, 2, 56, 64
4, 54960, Note_on_c, 2, 56, 0
4, 54960, Note_on_c, 2, 61, 64
4, 55440, Note_on_c, 2, 61, 0
4, 55560, Note_on_c, 2, 54, 64
4, 55680, Note_on_c, 2, 54, 0
4, 55680, Note_on_c, 2, 61, 64
4, 55800, Note_on_c, 2, 61, 0
4, 55800, Note_on_c, 2, 59, 64
4, 55920, Note_on_c, 2, 59, 0
4, 55920, Note_on_c, 2, 59, 64
4, 56040, Note_on_c, 2, 59, 0
4, 56040, Note_on_c, 2, 58, 64
4, 56150, Note_on_c, 2, 58, 0
4, 56160, Note_on_c, 2, 58, 64
4, 57600, Note_on_c, 2, 58, 0
4, 57600, End_track
5, 0, Start_track
5, 0, MIDI_port, 0
5, 0, Title_t, "LH L"
5, 0, Program_c, 3, 6
5, 10320, Note_on_c, 3, 42, 64
5, 10560, Note_on_c, 3, 42, 0
5, 10560, Note_on_c, 3, 44, 64
5, 10800, Note_on_c, 3, 44, 0
5, 10800, Note_on_c, 3, 45, 64
5, 11760, Note_on_c, 3, 45, 0
5, 11760, Note_on_c, 3, 44, 64
5, 11880, Note_on_c, 3, 44, 0
5, 11880, Note_on_c, 3, 46, 64
5, 12000, Note_on_c, 3, 46, 0
5, 12000, Note_on_c, 3, 47, 64
5, 12480, Note_on_c, 3, 47, 0
5, 12480, Note_on_c, 3, 46, 64
5, 12600, Note_on_c, 3, 46, 0
5, 12600, Note_on_c, 3, 44, 64
5, 12720, Note_on_c, 3, 44, 0
5, 12720, Note_on_c, 3, 46, 64
5, 12840, Note_on_c, 3, 46, 0
5, 12840, Note_on_c, 3, 48, 64
5, 12960, Note_on_c, 3, 48, 0
5, 12960, Note_on_c, 3, 49, 64
5, 13320, Note_on_c, 3, 49, 0
5, 13320, Note_on_c, 3, 47, 64
5, 13440, Note_on_c, 3, 47, 0
5, 13440, Note_on_c, 3, 45, 64
5, 13560, Note_on_c, 3, 45, 0
5, 13560, Note_on_c, 3, 49, 64
5, 13680, Note_on_c, 3, 49, 0
5, 13680, Note_on_c, 3, 47, 64
5, 13800, Note_on_c, 3, 47, 0
5, 13800, Note_on_c, 3, 45, 64
5, 13910, Note_on_c, 3, 45, 0
5, 13920, Note_on_c, 3, 45, 70
5, 13950, Note_on_c, 3, 45, 0
5, 13950, Note_on_c, 3, 44, 51
5, 13980, Note_on_c, 3, 44, 0
5, 13980, Note_on_c, 3, 45, 53
5, 14010, Note_on_c, 3, 45, 0
5, 14010, Note_on_c, 3, 44, 56
5, 14040, Note_on_c, 3, 44, 0
5, 14040, Note_on_c, 3, 45, 58
5, 14070, Note_on_c, 3, 45, 0
5, 14070, Note_on_c, 3, 44, 61
5, 14100, Note_on_c, 3, 44, 0
5, 14100, Note_on_c, 3, 45, 63
5, 14130, Note_on_c, 3, 45, 0
5, 14130, Note_on_c, 3, 44, 66
5, 14400, Note_on_c, 3, 44, 0
5, 14400, Note_on_c, 3, 42, 64
5, 14760, Note_on_c, 3, 42, 0
5, 14760, Note_on_c, 3, 40, 64
5, 14880, Note_on_c, 3, 40, 0
5, 14880, Note_on_c, 3, 42, 64
5, 15000, Note_on_c, 3, 42, 0
5, 15000, Note_on_c, 3, 44, 64
5, 15120, Note_on_c, 3, 44, 0
5, 15120, Note_on_c, 3, 45, 64
5, 15720, Note_on_c, 3, 45, 0
5, 15720, Note_on_c, 3, 47, 64
5, 15840, Note_on_c, 3, 47, 0
5, 15840, Note_on_c, 3, 49, 64
5, 15960, Note_on_c, 3, 49, 0
5, 15960, Note_on_c, 3, 48, 64
5, 16080, Note_on_c, 3, 48, 0
5, 16080, Note_on_c, 3, 49, 64
5, 16200, Note_on_c, 3, 49, 0
5, 16200, Note_on_c, 3, 51, 64
5, 16320, Note_on_c, 3, 51, 0
5, 16320, Note_on_c, 3, 52, 64
5, 16680, Note_on_c, 3, 52, 0
5, 16680, Note_on_c, 3, 54, 64
5, 16800, Note_on_c, 3, 54, 0
5, 16800, Note_on_c, 3, 52, 64
5, 16920, Note_on_c, 3, 52, 0
5, 16920, Note_on_c, 3, 51, 64
5, 17040, Note_on_c, 3, 51, 0
5, 17040, Note_on_c, 3, 49, 64
5, 17160, Note_on_c, 3, 49, 0
5, 17160, Note_on_c, 3, 48, 64
5, 17280, Note_on_c, 3, 48, 0
5, 17280, Note_on_c, 3, 49, 64
5, 17640, Note_on_c, 3, 49, 0
5, 17640, Note_on_c, 3, 49, 64
5, 17760, Note_on_c, 3, 49, 0
5, 17760, Note_on_c, 3, 50, 64
5, 17880, Note_on_c, 3, 50, 0
5, 17880, Note_on_c, 3, 52, 64
5, 18000, Note_on_c, 3, 52, 0
5, 18000, Note_on_c, 3, 54, 64
5, 18360, Note_on_c, 3, 54, 0
5, 18360, Note_on_c, 3, 42, 64
5, 18480, Note_on_c, 3, 42, 0
5, 18480, Note_on_c, 3, 44, 64
5, 18600, Note_on_c, 3, 44, 0
5, 18600, Note_on_c, 3, 46, 64
5, 18720, Note_on_c, 3, 46, 0
5, 18720, Note_on_c, 3, 47, 64
5, 19080, Note_on_c, 3, 47, 0
5, 19080, Note_on_c, 3, 47, 64
5, 19200, Note_on_c, 3, 47, 0
5, 19200, Note_on_c, 3, 49, 64
5, 19320, Note_on_c, 3, 49, 0
5, 19320, Note_on_c, 3, 50, 64
5, 19440, Note_on_c, 3, 50, 0
5, 19440, Note_on_c, 3, 52, 64
5, 19800, Note_on_c, 3, 52, 0
5, 19800, Note_on_c, 3, 40, 64
5, 19920, Note_on_c, 3, 40, 0
5, 19920, Note_on_c, 3, 42, 64
5, 20040, Note_on_c, 3, 42, 0
5, 20040, Note_on_c, 3, 44, 64
5, 20160, Note_on_c, 3, 44, 0
5, 20160, Note_on_c, 3, 45, 64
5, 20280, Note_on_c, 3, 45, 0
5, 20280, Note_on_c, 3, 47, 64
5, 20400, Note_on_c, 3, 47, 0
5, 20400, Note_on_c, 3, 45, 64
5, 20520, Note_on_c, 3, 45, 0
5, 20520, Note_on_c, 3, 44, 64
5, 20640, Note_on_c, 3, 44, 0
5, 20640, Note_on_c, 3, 44, 64
5, 20760, Note_on_c, 3, 44, 0
5, 20760, Note_on_c, 3, 42, 64
5, 20880, Note_on_c, 3, 42, 0
5, 20880, Note_on_c, 3, 42, 64
5, 21000, Note_on_c, 3, 42, 0
5, 21000, Note_on_c, 3, 54, 64
5, 21120, Note_on_c, 3, 54, 0
5, 21120, Note_on_c, 3, 54, 64
5, 21240, Note_on_c, 3, 54, 0
5, 21240, Note_on_c, 3, 52, 64
5, 21360, Note_on_c, 3, 52, 0
5, 21360, Note_on_c, 3, 52, 64
5, 21480, Note_on_c, 3, 52, 0
5, 21480, Note_on_c, 3, 51, 64
5, 21600, Note_on_c, 3, 51, 0
5, 21600, Note_on_c, 3, 51, 64
5, 21720, Note_on_c, 3, 51, 0
5, 21720, Note_on_c, 3, 52, 64
5, 21840, Note_on_c, 3, 52, 0
5, 21840, Note_on_c, 3, 52, 64
5, 21960, Note_on_c, 3, 52, 0
5, 21960, Note_on_c, 3, 50, 64
5, 22080, Note_on_c, 3, 50, 0
5, 22080, Note_on_c, 3, 50, 64
5, 22200, Note_on_c, 3, 50, 0
5, 22200, Note_on_c, 3, 49, 64
5, 22320, Note_on_c, 3, 49, 0
5, 22320, Note_on_c, 3, 49, 64
5, 22920, Note_on_c, 3, 49, 0
5, 22920, Note_on_c, 3, 51, 64
5, 23040, Note_on_c, 3, 51, 0
5, 23040, Note_on_c, 3, 53, 64
5, 23160, Note_on_c, 3, 53, 0
5, 23160, Note_on_c, 3, 54, 64
5, 23280, Note_on_c, 3, 54, 0
5, 23280, Note_on_c, 3, 56, 64
5, 23520, Note_on_c, 3, 56, 0
5, 23520, Note_on_c, 3, 49, 64
5, 23760, Note_on_c, 3, 49, 0
5, 23760, Note_on_c, 3, 54, 64
5, 24240, Note_on_c, 3, 54, 0
5, 24240, Note_on_c, 3, 53, 64
5, 24480, Note_on_c, 3, 53, 0
5, 24480, Note_on_c, 3, 54, 64
5, 24840, Note_on_c, 3, 54, 0
5, 24840, Note_on_c, 3, 53, 64
5, 24960, Note_on_c, 3, 53, 0
5, 24960, Note_on_c, 3, 54, 64
5, 25080, Note_on_c, 3, 54, 0
5, 25080, Note_on_c, 3, 56, 64
5, 25200, Note_on_c, 3, 56, 0
5, 25200, Note_on_c, 3, 57, 64
5, 25560, Note_on_c, 3, 57, 0
5, 25560, Note_on_c, 3, 54, 64
5, 25680, Note_on_c, 3, 54, 0
5, 25680, Note_on_c, 3, 56, 64
5, 25800, Note_on_c, 3, 56, 0
5, 25800, Note_on_c, 3, 58, 64
5, 25920, Note_on_c, 3, 58, 0
5, 25920, Note_on_c, 3, 59, 64
5, 26040, Note_on_c, 3, 59, 0
5, 26040, Note_on_c, 3, 47, 64
5, 26160, Note_on_c, 3, 47, 0
5, 26160, Note_on_c, 3, 47, 64
5, 26280, Note_on_c, 3, 47, 0
5, 26280, Note_on_c, 3, 45, 64
5, 26400, Note_on_c, 3, 45, 0
5, 26400, Note_on_c, 3, 45, 64
5, 26520, Note_on_c, 3, 45, 0
5, 26520, Note_on_c, 3, 44, 64
5, 26640, Note_on_c, 3, 44, 0
5, 26640, Note_on_c, 3, 44, 64
5, 26760, Note_on_c, 3, 44, 0
5, 26760, Note_on_c, 3, 57, 64
5, 26880, Note_on_c, 3, 57, 0
5, 26880, Note_on_c, 3, 57, 64
5, 27000, Note_on_c, 3, 57, 0
5, 27000, Note_on_c, 3, 56, 64
5, 27120, Note_on_c, 3, 56, 0
5, 27120, Note_on_c, 3, 56, 64
5, 27240, Note_on_c, 3, 56, 0
5, 27240, Note_on_c, 3, 54, 64
5, 27360, Note_on_c, 3, 54, 0
5, 27360, Note_on_c, 3, 54, 64
5, 27600, Note_on_c, 3, 54, 0
5, 27600, Note_on_c, 3, 56, 64
5, 27840, Note_on_c, 3, 56, 0
5, 27840, Note_on_c, 3, 44, 64
5, 28080, Note_on_c, 3, 44, 0
5, 28080, Note_on_c, 3, 49, 64
5, 28440, Note_on_c, 3, 49, 0
5, 28440, Note_on_c, 3, 49, 64
5, 28560, Note_on_c, 3, 49, 0
5, 28560, Note_on_c, 3, 50, 64
5, 28680, Note_on_c, 3, 50, 0
5, 28680, Note_on_c, 3, 52, 64
5, 28800, Note_on_c, 3, 52, 0
5, 28800, Note_on_c, 3, 54, 64
5, 28920, Note_on_c, 3, 54, 0
5, 28920, Note_on_c, 3, 55, 64
5, 29040, Note_on_c, 3, 55, 0
5, 29040, Note_on_c, 3, 54, 64
5, 29160, Note_on_c, 3, 54, 0
5, 29160, Note_on_c, 3, 52, 64
5, 29280, Note_on_c, 3, 52, 0
5, 29280, Note_on_c, 3, 50, 64
5, 29400, Note_on_c, 3, 50, 0
5, 29400, Note_on_c, 3, 49, 64
5, 29520, Note_on_c, 3, 49, 0
5, 29520, Note_on_c, 3, 47, 64
5, 29640, Note_on_c, 3, 47, 0
5, 29640, Note_on_c, 3, 50, 64
5, 29760, Note_on_c, 3, 50, 0
5, 29760, Note_on_c, 3, 44, 64
5, 29880, Note_on_c, 3, 44, 0
5, 29880, Note_on_c, 3, 42, 64
5, 30000, Note_on_c, 3, 42, 0
5, 30000, Note_on_c, 3, 42, 64
5, 30120, Note_on_c, 3, 42, 0
5, 30120, Note_on_c, 3, 41, 64
5, 30240, Note_on_c, 3, 41, 0
5, 30240, Note_on_c, 3, 41, 64
5, 30360, Note_on_c, 3, 41, 0
5, 30360, Note_on_c, 3, 53, 64
5, 30480, Note_on_c, 3, 53, 0
5, 30480, Note_on_c, 3, 54, 64
5, 30600, Note_on_c, 3, 54, 0
5, 30600, Note_on_c, 3, 56, 64
5, 30720, Note_on_c, 3, 56, 0
5, 30720, Note_on_c, 3, 56, 64
5, 30840, Note_on_c, 3, 56, 0
5, 30840, Note_on_c, 3, 57, 64
5, 30960, Note_on_c, 3, 57, 0
5, 30960, Note_on_c, 3, 57, 64
5, 31080, Note_on_c, 3, 57, 0
5, 31080, Note_on_c, 3, 62, 64
5, 31200, Note_on_c, 3, 62, 0
5, 31200, Note_on_c, 3, 62, 64
5, 31320, Note_on_c, 3, 62, 0
5, 31320, Note_on_c, 3, 61, 64
5, 31440, Note_on_c, 3, 61, 0
5, 31440, Note_on_c, 3, 61, 64
5, 31560, Note_on_c, 3, 61, 0
5, 31560, Note_on_c, 3, 59, 64
5, 31680, Note_on_c, 3, 59, 0
5, 31680, Note_on_c, 3, 59, 64
5, 31800, Note_on_c, 3, 59, 0
5, 31800, Note_on_c, 3, 57, 64
5, 31920, Note_on_c, 3, 57, 0
5, 31920, Note_on_c, 3, 56, 64
5, 32040, Note_on_c, 3, 56, 0
5, 32040, Note_on_c, 3, 62, 64
5, 32160, Note_on_c, 3, 62, 0
5, 32160, Note_on_c, 3, 61, 64
5, 32280, Note_on_c, 3, 61, 0
5, 32280, Note_on_c, 3, 59, 64
5, 32400, Note_on_c, 3, 59, 0
5, 32400, Note_on_c, 3, 58, 64
5, 32520, Note_on_c, 3, 58, 0
5, 32520, Note_on_c, 3, 59, 64
5, 32640, Note_on_c, 3, 59, 0
5, 32640, Note_on_c, 3, 59, 64
5, 32760, Note_on_c, 3, 59, 0
5, 32760, Note_on_c, 3, 57, 64
5, 32880, Note_on_c, 3, 57, 0
5, 32880, Note_on_c, 3, 57, 64
5, 33000, Note_on_c, 3, 57, 0
5, 33000, Note_on_c, 3, 56, 64
5, 33120, Note_on_c, 3, 56, 0
5, 33120, Note_on_c, 3, 56, 64
5, 33240, Note_on_c, 3, 56, 0
5, 33240, Note_on_c, 3, 54, 64
5, 33360, Note_on_c, 3, 54, 0
5, 33360, Note_on_c, 3, 52, 64
5, 33480, Note_on_c, 3, 52, 0
5, 33480, Note_on_c, 3, 59, 64
5, 33600, Note_on_c, 3, 59, 0
5, 33600, Note_on_c, 3, 57, 64
5, 33720, Note_on_c, 3, 57, 0
5, 33720, Note_on_c, 3, 56, 64
5, 33840, Note_on_c, 3, 56, 0
5, 33840, Note_on_c, 3, 54, 64
5, 33960, Note_on_c, 3, 54, 0
5, 33960, Note_on_c, 3, 56, 64
5, 34080, Note_on_c, 3, 56, 0
5, 34080, Note_on_c, 3, 56, 64
5, 34200, Note_on_c, 3, 56, 0
5, 34200, Note_on_c, 3, 54, 64
5, 34320, Note_on_c, 3, 54, 0
5, 34320, Note_on_c, 3, 54, 64
5, 34440, Note_on_c, 3, 54, 0
5, 34440, Note_on_c, 3, 53, 64
5, 34560, Note_on_c, 3, 53, 0
5, 34560, Note_on_c, 3, 53, 64
5, 34800, Note_on_c, 3, 53, 0
5, 34800, Note_on_c, 3, 54, 64
5, 35040, Note_on_c, 3, 54, 0
5, 35040, Note_on_c, 3, 42, 64
5, 35280, Note_on_c, 3, 42, 0
5, 35280, Note_on_c, 3, 49, 64
5, 35400, Note_on_c, 3, 49, 0
5, 35400, Note_on_c, 3, 51, 64
5, 35520, Note_on_c, 3, 51, 0
5, 35520, Note_on_c, 3, 52, 64
5, 35640, Note_on_c, 3, 52, 0
5, 35640, Note_on_c, 3, 54, 64
5, 35760, Note_on_c, 3, 54, 0
5, 35760, Note_on_c, 3, 55, 64
5, 35880, Note_on_c, 3, 55, 0
5, 35880, Note_on_c, 3, 52, 64
5, 36000, Note_on_c, 3, 52, 0
5, 36000, Note_on_c, 3, 54, 64
5, 36120, Note_on_c, 3, 54, 0
5, 36120, Note_on_c, 3, 42, 64
5, 36240, Note_on_c, 3, 42, 0
5, 36240, Note_on_c, 3, 47, 64
5, 36360, Note_on_c, 3, 47, 0
5, 36360, Note_on_c, 3, 49, 64
5, 36480, Note_on_c, 3, 49, 0
5, 36480, Note_on_c, 3, 50, 64
5, 36600, Note_on_c, 3, 50, 0
5, 36600, Note_on_c, 3, 47, 64
5, 36720, Note_on_c, 3, 47, 0
5, 36720, Note_on_c, 3, 49, 64
5, 36840, Note_on_c, 3, 49, 0
5, 36840, Note_on_c, 3, 37, 64
5, 36960, Note_on_c, 3, 37, 0
5, 36960, Note_on_c, 3, 49, 64
5, 37080, Note_on_c, 3, 49, 0
5, 37080, Note_on_c, 3, 48, 64
5, 37200, Note_on_c, 3, 48, 0
5, 37200, Note_on_c, 3, 49, 64
5, 37320, Note_on_c, 3, 49, 0
5, 37320, Note_on_c, 3, 52, 64
5, 37440, Note_on_c, 3, 52, 0
5, 37440, Note_on_c, 3, 51, 64
5, 37560, Note_on_c, 3, 51, 0
5, 37560, Note_on_c, 3, 49, 64
5, 37680, Note_on_c, 3, 49, 0
5, 37680, Note_on_c, 3, 48, 64
5, 37800, Note_on_c, 3, 48, 0
5, 37800, Note_on_c, 3, 44, 64
5, 37920, Note_on_c, 3, 44, 0
5, 37920, Note_on_c, 3, 49, 64
5, 38040, Note_on_c, 3, 49, 0
5, 38040, Note_on_c, 3, 52, 64
5, 38160, Note_on_c, 3, 52, 0
5, 38160, Note_on_c, 3, 57, 64
5, 38280, Note_on_c, 3, 57, 0
5, 38280, Note_on_c, 3, 54, 64
5, 38400, Note_on_c, 3, 54, 0
5, 38400, Note_on_c, 3, 56, 64
5, 38520, Note_on_c, 3, 56, 0
5, 38520, Note_on_c, 3, 54, 64
5, 38640, Note_on_c, 3, 54, 0
5, 38640, Note_on_c, 3, 56, 64
5, 38760, Note_on_c, 3, 56, 0
5, 38760, Note_on_c, 3, 44, 64
5, 38880, Note_on_c, 3, 44, 0
5, 38880, Note_on_c, 3, 49, 64
5, 39120, Note_on_c, 3, 49, 0
5, 44880, Note_on_c, 3, 54, 64
5, 45120, Note_on_c, 3, 54, 0
5, 45120, Note_on_c, 3, 52, 64
5, 45360, Note_on_c, 3, 52, 0
5, 45360, Note_on_c, 3, 51, 64
5, 46320, Note_on_c, 3, 51, 0
5, 46320, Note_on_c, 3, 52, 64
5, 46440, Note_on_c, 3, 52, 0
5, 46440, Note_on_c, 3, 50, 64
5, 46560, Note_on_c, 3, 50, 0
5, 46560, Note_on_c, 3, 49, 64
5, 47040, Note_on_c, 3, 49, 0
5, 47040, Note_on_c, 3, 50, 64
5, 47160, Note_on_c, 3, 50, 0
5, 47160, Note_on_c, 3, 52, 64
5, 47280, Note_on_c, 3, 52, 0
5, 47280, Note_on_c, 3, 50, 64
5, 47400, Note_on_c, 3, 50, 0
5, 47400, Note_on_c, 3, 49, 64
5, 47520, Note_on_c, 3, 49, 0
5, 47520, Note_on_c, 3, 47, 64
5, 47880, Note_on_c, 3, 47, 0
5, 47880, Note_on_c, 3, 49, 64
5, 48000, Note_on_c, 3, 49, 0
5, 48000, Note_on_c, 3, 50, 64
5, 48120, Note_on_c, 3, 50, 0
5, 48120, Note_on_c, 3, 47, 64
5, 48240, Note_on_c, 3, 47, 0
5, 48240, Note_on_c, 3, 49, 64
5, 48360, Note_on_c, 3, 49, 0
5, 48360, Note_on_c, 3, 51, 64
5, 48480, Note_on_c, 3, 51, 0
5, 48480, Note_on_c, 3, 53, 64
5, 48960, Note_on_c, 3, 53, 0
5, 48960, Note_on_c, 3, 54, 64
5, 49800, Note_on_c, 3, 54, 0
5, 49800, Note_on_c, 3, 57, 64
5, 49920, Note_on_c, 3, 57, 0
5, 49920, Note_on_c, 3, 56, 64
5, 50040, Note_on_c, 3, 56, 0
5, 50040, Note_on_c, 3, 54, 64
5, 50160, Note_on_c, 3, 54, 0
5, 50160, Note_on_c, 3, 54, 64
5, 50280, Note_on_c, 3, 54, 0
5, 50280, Note_on_c, 3, 52, 64
5, 50400, Note_on_c, 3, 52, 0
5, 50400, Note_on_c, 3, 52, 64
5, 51240, Note_on_c, 3, 52, 0
5, 51240, Note_on_c, 3, 56, 64
5, 51360, Note_on_c, 3, 56, 0
5, 51360, Note_on_c, 3, 54, 64
5, 51480, Note_on_c, 3, 54, 0
5, 51480, Note_on_c, 3, 52, 64
5, 51600, Note_on_c, 3, 52, 0
5, 51600, Note_on_c, 3, 52, 64
5, 51720, Note_on_c, 3, 52, 0
5, 51720, Note_on_c, 3, 50, 64
5, 51840, Note_on_c, 3, 50, 0
5, 51840, Note_on_c, 3, 50, 64
5, 52560, Note_on_c, 3, 50, 0
5, 52560, Note_on_c, 3, 49, 64
5, 54840, Note_on_c, 3, 49, 0
5, 54840, Note_on_c, 3, 47, 64
5, 54960, Note_on_c, 3, 47, 0
5, 54960, Note_on_c, 3, 45, 64
5, 55080, Note_on_c, 3, 45, 0
5, 55080, Note_on_c, 3, 44, 64
5, 55200, Note_on_c, 3, 44, 0
5, 55200, Note_on_c, 3, 42, 64
5, 55320, Note_on_c, 3, 42, 0
5, 55320, Note_on_c, 3, 45, 64
5, 55440, Note_on_c, 3, 45, 0
5, 55440, Note_on_c, 3, 50, 64
5, 55560, Note_on_c, 3, 50, 0
5, 55560, Note_on_c, 3, 47, 64
5, 55680, Note_on_c, 3, 47, 0
5, 55680, Note_on_c, 3, 49, 64
5, 55920, Note_on_c, 3, 49, 0
5, 55920, Note_on_c, 3, 37, 64
5, 56160, Note_on_c, 3, 37, 0
5, 56160, Note_on_c, 3, 42, 64
5, 57600, Note_on_c, 3, 42, 0
5, 57600, End_track
0, 0, End_of_file
