0, 0, Header, 1, 4, 240
1, 0, Start_track
1, 0, Time_signature, 3, 2, 24, 8
1, 0, Key_signature, 0, "major"
1, 0, Tempo, 800000
1, 30360, Tempo, 833333
1, 30480, Tempo, 845070
1, 30600, Tempo, 895522
1, 30720, Tempo, 937500
1, 30832, Tempo, 1016949
1, 30960, Tempo, 1111111
1, 30960, End_track
2, 0, Start_track
2, 0, MIDI_port, 0
2, 0, Title_t, "RH H"
2, 0, Program_c, 0, 6
2, 120, Note_on_c, 0, 62, 64
2, 235, Note_on_c, 0, 62, 0
2, 240, Note_on_c, 0, 64, 64
2, 355, Note_on_c, 0, 64, 0
2, 360, Note_on_c, 0, 65, 64
2, 475, Note_on_c, 0, 65, 0
2, 480, Note_on_c, 0, 67, 64
2, 595, Note_on_c, 0, 67, 0
2, 600, Note_on_c, 0, 64, 64
2, 715, Note_on_c, 0, 64, 0
2, 720, Note_on_c, 0, 65, 64
2, 780, Note_on_c, 0, 65, 0
2, 780, Note_on_c, 0, 62, 64
2, 840, Note_on_c, 0, 62, 0
2, 840, Note_on_c, 0, 61, 64
2, 900, Note_on_c, 0, 61, 0
2, 900, Note_on_c, 0, 62, 64
2, 960, Note_on_c, 0, 62, 0
2, 960, Note_on_c, 0, 70, 74
2, 1140, Note_on_c, 0, 70, 0
2, 1200, Note_on_c, 0, 67, 72
2, 1222, Note_on_c, 0, 69, 41
2, 1224, Note_on_c, 0, 67, 0
2, 1244, Note_on_c, 0, 67, 43
2, 1246, Note_on_c, 0, 69, 0
2, 1266, Note_on_c, 0, 69, 45
2, 1268, Note_on_c, 0, 67, 0
2, 1288, Note_on_c, 0, 67, 48
2, 1290, Note_on_c, 0, 69, 0
2, 1310, Note_on_c, 0, 69, 50
2, 1312, Note_on_c, 0, 67, 0
2, 1332, Note_on_c, 0, 67, 52
2, 1334, Note_on_c, 0, 69, 0
2, 1354, Note_on_c, 0, 69, 54
2, 1356, Note_on_c, 0, 67, 0
2, 1376, Note_on_c, 0, 67, 57
2, 1378, Note_on_c, 0, 69, 0
2, 1398, Note_on_c, 0, 69, 59
2, 1400, Note_on_c, 0, 67, 0
2, 1420, Note_on_c, 0, 67, 61
2, 1422, Note_on_c, 0, 69, 0
2, 1440, Note_on_c, 0, 69, 72
2, 1442, Note_on_c, 0, 67, 0
2, 1740, Note_on_c, 0, 69, 0
2, 1740, Note_on_c, 0, 67, 64
2, 1800, Note_on_c, 0, 67, 0
2, 1800, Note_on_c, 0, 65, 64
2, 1860, Note_on_c, 0, 65, 0
2, 1860, Note_on_c, 0, 64, 64
2, 1920, Note_on_c, 0, 64, 0
2, 1920, Note_on_c, 0, 67, 64
2, 1980, Note_on_c, 0, 67, 0
2, 1980, Note_on_c, 0, 65, 64
2, 2040, Note_on_c, 0, 65, 0
2, 2040, Note_on_c, 0, 64, 64
2, 2100, Note_on_c, 0, 64, 0
2, 2100, Note_on_c, 0, 62, 64
2, 2160, Note_on_c, 0, 62, 0
2, 2160, Note_on_c, 0, 64, 64
2, 2280, Note_on_c, 0, 64, 0
2, 2280, Note_on_c, 0, 72, 64
2, 2460, Note_on_c, 0, 72, 0
2, 2460, Note_on_c, 0, 71, 64
2, 2520, Note_on_c, 0, 71, 0
2, 2520, Note_on_c, 0, 69, 64
2, 2580, Note_on_c, 0, 69, 0
2, 2580, Note_on_c, 0, 71, 64
2, 2635, Note_on_c, 0, 71, 0
2, 2640, Note_on_c, 0, 71, 64
2, 2700, Note_on_c, 0, 71, 0
2, 2700, Note_on_c, 0, 69, 64
2, 2760, Note_on_c, 0, 69, 0
2, 2760, Note_on_c, 0, 68, 64
2, 2820, Note_on_c, 0, 68, 0
2, 2820, Note_on_c, 0, 69, 64
2, 2875, Note_on_c, 0, 69, 0
2, 2880, Note_on_c, 0, 69, 64
2, 2940, Note_on_c, 0, 69, 0
2, 2940, Note_on_c, 0, 67, 64
2, 3000, Note_on_c, 0, 67, 0
2, 3000, Note_on_c, 0, 66, 64
2, 3060, Note_on_c, 0, 66, 0
2, 3060, Note_on_c, 0, 67, 64
2, 3120, Note_on_c, 0, 67, 0
2, 3120, Note_on_c, 0, 76, 74
2, 3300, Note_on_c, 0, 76, 0
2, 3360, Note_on_c, 0, 67, 64
2, 3600, Note_on_c, 0, 67, 0
2, 3600, Note_on_c, 0, 65, 64
2, 3720, Note_on_c, 0, 65, 0
2, 3720, Note_on_c, 0, 74, 64
2, 3900, Note_on_c, 0, 74, 0
2, 3900, Note_on_c, 0, 72, 64
2, 3960, Note_on_c, 0, 72, 0
2, 3960, Note_on_c, 0, 70, 64
2, 4020, Note_on_c, 0, 70, 0
2, 4020, Note_on_c, 0, 69, 64
2, 4080, Note_on_c, 0, 69, 0
2, 4080, Note_on_c, 0, 72, 64
2, 4140, Note_on_c, 0, 72, 0
2, 4140, Note_on_c, 0, 70, 64
2, 4200, Note_on_c, 0, 70, 0
2, 4200, Note_on_c, 0, 69, 64
2, 4260, Note_on_c, 0, 69, 0
2, 4260, Note_on_c, 0, 67, 64
2, 4320, Note_on_c, 0, 67, 0
2, 4320, Note_on_c, 0, 69, 64
2, 4560, Note_on_c, 0, 69, 0
2, 4560, Note_on_c, 0, 67, 64
2, 5160, Note_on_c, 0, 67, 0
2, 5160, Note_on_c, 0, 64, 64
2, 5280, Note_on_c, 0, 64, 0
2, 5280, Note_on_c, 0, 65, 64
2, 5400, Note_on_c, 0, 65, 0
2, 5400, Note_on_c, 0, 67, 64
2, 5520, Note_on_c, 0, 67, 0
2, 5520, Note_on_c, 0, 69, 64
2, 5640, Note_on_c, 0, 69, 0
2, 5640, Note_on_c, 0, 65, 64
2, 5760, Note_on_c, 0, 65, 0
2, 5760, Note_on_c, 0, 70, 64
2, 5820, Note_on_c, 0, 70, 0
2, 5820, Note_on_c, 0, 67, 64
2, 5880, Note_on_c, 0, 67, 0
2, 5880, Note_on_c, 0, 66, 64
2, 5940, Note_on_c, 0, 66, 0
2, 5940, Note_on_c, 0, 67, 64
2, 6000, Note_on_c, 0, 67, 0
2, 6000, Note_on_c, 0, 75, 74
2, 6180, Note_on_c, 0, 75, 0
2, 6240, Note_on_c, 0, 73, 80
2, 6395, Note_on_c, 0, 73, 0
2, 6400, Note_on_c, 0, 74, 52
2, 6420, Note_on_c, 0, 74, 0
2, 6420, Note_on_c, 0, 73, 55
2, 6440, Note_on_c, 0, 73, 0
2, 6440, Note_on_c, 0, 71, 59
2, 6460, Note_on_c, 0, 71, 0
2, 6460, Note_on_c, 0, 73, 62
2, 6480, Note_on_c, 0, 73, 0
2, 6480, Note_on_c, 0, 74, 64
2, 6710, Note_on_c, 0, 74, 0
2, 6720, Note_on_c, 0, 74, 74
2, 6900, Note_on_c, 0, 74, 0
2, 6960, Note_on_c, 0, 71, 64
2, 7110, Note_on_c, 0, 71, 0
2, 7120, Note_on_c, 0, 72, 51
2, 7140, Note_on_c, 0, 72, 0
2, 7140, Note_on_c, 0, 71, 54
2, 7160, Note_on_c, 0, 71, 0
2, 7160, Note_on_c, 0, 69, 58
2, 7180, Note_on_c, 0, 69, 0
2, 7180, Note_on_c, 0, 71, 62
2, 7200, Note_on_c, 0, 71, 0
2, 7200, Note_on_c, 0, 72, 64
2, 7430, Note_on_c, 0, 72, 0
2, 7440, Note_on_c, 0, 72, 74
2, 7620, Note_on_c, 0, 72, 0
2, 7680, Note_on_c, 0, 69, 64
2, 7830, Note_on_c, 0, 69, 0
2, 7840, Note_on_c, 0, 70, 53
2, 7860, Note_on_c, 0, 70, 0
2, 7860, Note_on_c, 0, 69, 56
2, 7880, Note_on_c, 0, 69, 0
2, 7880, Note_on_c, 0, 67, 60
2, 7900, Note_on_c, 0, 67, 0
2, 7900, Note_on_c, 0, 69, 63
2, 7920, Note_on_c, 0, 69, 0
2, 7920, Note_on_c, 0, 70, 64
2, 8760, Note_on_c, 0, 70, 0
2, 8760, Note_on_c, 0, 69, 64
2, 8880, Note_on_c, 0, 69, 0
2, 8880, Note_on_c, 0, 71, 64
2, 9000, Note_on_c, 0, 71, 0
2, 9000, Note_on_c, 0, 73, 64
2, 9120, Note_on_c, 0, 73, 0
2, 9120, Note_on_c, 0, 74, 64
2, 9240, Note_on_c, 0, 74, 0
2, 9240, Note_on_c, 0, 71, 64
2, 9360, Note_on_c, 0, 71, 0
2, 9360, Note_on_c, 0, 73, 64
2, 9420, Note_on_c, 0, 73, 0
2, 9420, Note_on_c, 0, 69, 64
2, 9480, Note_on_c, 0, 69, 0
2, 9480, Note_on_c, 0, 68, 64
2, 9540, Note_on_c, 0, 68, 0
2, 9540, Note_on_c, 0, 69, 64
2, 9600, Note_on_c, 0, 69, 0
2, 9600, Note_on_c, 0, 77, 74
2, 9780, Note_on_c, 0, 77, 0
2, 9840, Note_on_c, 0, 74, 72
2, 9862, Note_on_c, 0, 76, 41
2, 9864, Note_on_c, 0, 74, 0
2, 9884, Note_on_c, 0, 74, 43
2, 9886, Note_on_c, 0, 76, 0
2, 9906, Note_on_c, 0, 76, 45
2, 9908, Note_on_c, 0, 74, 0
2, 9928, Note_on_c, 0, 74, 48
2, 9930, Note_on_c, 0, 76, 0
2, 9950, Note_on_c, 0, 76, 50
2, 9952, Note_on_c, 0, 74, 0
2, 9972, Note_on_c, 0, 74, 52
2, 9974, Note_on_c, 0, 76, 0
2, 9994, Note_on_c, 0, 76, 54
2, 9996, Note_on_c, 0, 74, 0
2, 10016, Note_on_c, 0, 74, 57
2, 10018, Note_on_c, 0, 76, 0
2, 10038, Note_on_c, 0, 76, 59
2, 10040, Note_on_c, 0, 74, 0
2, 10060, Note_on_c, 0, 74, 61
2, 10062, Note_on_c, 0, 76, 0
2, 10080, Note_on_c, 0, 76, 72
2, 10084, Note_on_c, 0, 74, 0
2, 10200, Note_on_c, 0, 76, 0
2, 10200, Note_on_c, 0, 81, 64
2, 10380, Note_on_c, 0, 81, 0
2, 10380, Note_on_c, 0, 79, 64
2, 10440, Note_on_c, 0, 79, 0
2, 10440, Note_on_c, 0, 78, 64
2, 10500, Note_on_c, 0, 78, 0
2, 10500, Note_on_c, 0, 76, 64
2, 10560, Note_on_c, 0, 76, 0
2, 10560, Note_on_c, 0, 79, 64
2, 10620, Note_on_c, 0, 79, 0
2, 10620, Note_on_c, 0, 78, 64
2, 10680, Note_on_c, 0, 78, 0
2, 10680, Note_on_c, 0, 76, 64
2, 10740, Note_on_c, 0, 76, 0
2, 10740, Note_on_c, 0, 74, 64
2, 10800, Note_on_c, 0, 74, 0
2, 10800, Note_on_c, 0, 75, 64
2, 10860, Note_on_c, 0, 75, 0
2, 10860, Note_on_c, 0, 84, 64
2, 10920, Note_on_c, 0, 84, 0
2, 10920, Note_on_c, 0, 82, 64
2, 11040, Note_on_c, 0, 82, 0
2, 11100, Note_on_c, 0, 81, 64
2, 11160, Note_on_c, 0, 81, 0
2, 11160, Note_on_c, 0, 80, 64
2, 11220, Note_on_c, 0, 80, 0
2, 11220, Note_on_c, 0, 78, 64
2, 11280, Note_on_c, 0, 78, 0
2, 11280, Note_on_c, 0, 81, 64
2, 11340, Note_on_c, 0, 81, 0
2, 11340, Note_on_c, 0, 80, 64
2, 11400, Note_on_c, 0, 80, 0
2, 11400, Note_on_c, 0, 78, 64
2, 11460, Note_on_c, 0, 78, 0
2, 11460, Note_on_c, 0, 76, 64
2, 11520, Note_on_c, 0, 76, 0
2, 11520, Note_on_c, 0, 74, 64
2, 11580, Note_on_c, 0, 74, 0
2, 11580, Note_on_c, 0, 72, 64
2, 11640, Note_on_c, 0, 72, 0
2, 11640, Note_on_c, 0, 71, 64
2, 11700, Note_on_c, 0, 71, 0
2, 11700, Note_on_c, 0, 72, 64
2, 11750, Note_on_c, 0, 72, 0
2, 11760, Note_on_c, 0, 72, 64
2, 11820, Note_on_c, 0, 72, 0
2, 11820, Note_on_c, 0, 71, 64
2, 11880, Note_on_c, 0, 71, 0
2, 11880, Note_on_c, 0, 69, 64
2, 11940, Note_on_c, 0, 69, 0
2, 11940, Note_on_c, 0, 71, 64
2, 11990, Note_on_c, 0, 71, 0
2, 12000, Note_on_c, 0, 71, 64
2, 12060, Note_on_c, 0, 71, 0
2, 12060, Note_on_c, 0, 69, 64
2, 12120, Note_on_c, 0, 69, 0
2, 12120, Note_on_c, 0, 68, 64
2, 12180, Note_on_c, 0, 68, 0
2, 12180, Note_on_c, 0, 69, 64
2, 12240, Note_on_c, 0, 69, 0
2, 12240, Note_on_c, 0, 67, 64
2, 12540, Note_on_c, 0, 67, 0
2, 12540, Note_on_c, 0, 65, 64
2, 12600, Note_on_c, 0, 65, 0
2, 12600, Note_on_c, 0, 64, 64
2, 12660, Note_on_c, 0, 64, 0
2, 12660, Note_on_c, 0, 65, 64
2, 12710, Note_on_c, 0, 65, 0
2, 12720, Note_on_c, 0, 65, 64
2, 12780, Note_on_c, 0, 65, 0
2, 12780, Note_on_c, 0, 64, 64
2, 12840, Note_on_c, 0, 64, 0
2, 12840, Note_on_c, 0, 62, 64
2, 12900, Note_on_c, 0, 62, 0
2, 12900, Note_on_c, 0, 69, 64
2, 12950, Note_on_c, 0, 69, 0
2, 12960, Note_on_c, 0, 69, 64
2, 13980, Note_on_c, 0, 69, 0
2, 13980, Note_on_c, 0, 75, 64
2, 14040, Note_on_c, 0, 75, 0
2, 14040, Note_on_c, 0, 76, 64
2, 14100, Note_on_c, 0, 76, 0
2, 14100, Note_on_c, 0, 69, 64
2, 14160, Note_on_c, 0, 69, 0
2, 14160, Note_on_c, 0, 72, 64
2, 14220, Note_on_c, 0, 72, 0
2, 14220, Note_on_c, 0, 71, 64
2, 14280, Note_on_c, 0, 71, 0
2, 14280, Note_on_c, 0, 69, 64
2, 14340, Note_on_c, 0, 69, 0
2, 14340, Note_on_c, 0, 68, 64
2, 14400, Note_on_c, 0, 68, 0
2, 14400, Note_on_c, 0, 69, 68
2, 14420, Note_on_c, 0, 69, 0
2, 14420, Note_on_c, 0, 67, 56
2, 14440, Note_on_c, 0, 67, 0
2, 14440, Note_on_c, 0, 69, 64
2, 14700, Note_on_c, 0, 69, 0
2, 14700, Note_on_c, 0, 67, 64
2, 14760, Note_on_c, 0, 65, 64
2, 14764, Note_on_c, 0, 67, 0
2, 14820, Note_on_c, 0, 64, 64
2, 14825, Note_on_c, 0, 65, 0
2, 14877, Note_on_c, 0, 64, 0
2, 14880, Note_on_c, 0, 67, 64
2, 14940, Note_on_c, 0, 65, 64
2, 14949, Note_on_c, 0, 67, 0
2, 15000, Note_on_c, 0, 64, 64
2, 15003, Note_on_c, 0, 65, 0
2, 15060, Note_on_c, 0, 62, 64
2, 15065, Note_on_c, 0, 64, 0
2, 15118, Note_on_c, 0, 62, 0
2, 15120, Note_on_c, 0, 64, 64
2, 15240, Note_on_c, 0, 64, 0
2, 15240, Note_on_c, 0, 76, 64
2, 15360, Note_on_c, 0, 76, 0
2, 15360, Note_on_c, 0, 74, 64
2, 15480, Note_on_c, 0, 74, 0
2, 15480, Note_on_c, 0, 73, 64
2, 15600, Note_on_c, 0, 73, 0
2, 15600, Note_on_c, 0, 71, 64
2, 15720, Note_on_c, 0, 71, 0
2, 15720, Note_on_c, 0, 74, 64
2, 15840, Note_on_c, 0, 74, 0
2, 15840, Note_on_c, 0, 76, 64
2, 15900, Note_on_c, 0, 76, 0
2, 15900, Note_on_c, 0, 77, 64
2, 15960, Note_on_c, 0, 77, 0
2, 15960, Note_on_c, 0, 79, 80
2, 16020, Note_on_c, 0, 79, 0
2, 16020, Note_on_c, 0, 76, 64
2, 16080, Note_on_c, 0, 76, 0
2, 16080, Note_on_c, 0, 67, 74
2, 16260, Note_on_c, 0, 67, 0
2, 16320, Note_on_c, 0, 70, 64
2, 16620, Note_on_c, 0, 70, 0
2, 16620, Note_on_c, 0, 69, 64
2, 16680, Note_on_c, 0, 69, 0
2, 16680, Note_on_c, 0, 67, 64
2, 16740, Note_on_c, 0, 67, 0
2, 16740, Note_on_c, 0, 69, 64
2, 16790, Note_on_c, 0, 69, 0
2, 16800, Note_on_c, 0, 69, 64
2, 16860, Note_on_c, 0, 69, 0
2, 16860, Note_on_c, 0, 67, 64
2, 16920, Note_on_c, 0, 67, 0
2, 16920, Note_on_c, 0, 65, 64
2, 16980, Note_on_c, 0, 65, 0
2, 16980, Note_on_c, 0, 67, 64
2, 17030, Note_on_c, 0, 67, 0
2, 17040, Note_on_c, 0, 67, 64
2, 17100, Note_on_c, 0, 67, 0
2, 17100, Note_on_c, 0, 65, 64
2, 17160, Note_on_c, 0, 65, 0
2, 17160, Note_on_c, 0, 64, 64
2, 17220, Note_on_c, 0, 64, 0
2, 17220, Note_on_c, 0, 65, 64
2, 17270, Note_on_c, 0, 65, 0
2, 17280, Note_on_c, 0, 65, 64
2, 17580, Note_on_c, 0, 65, 0
2, 17580, Note_on_c, 0, 64, 64
2, 17640, Note_on_c, 0, 64, 0
2, 17640, Note_on_c, 0, 66, 64
2, 17700, Note_on_c, 0, 66, 0
2, 17700, Note_on_c, 0, 67, 64
2, 17760, Note_on_c, 0, 67, 0
2, 17760, Note_on_c, 0, 66, 64
2, 17820, Note_on_c, 0, 66, 0
2, 17820, Note_on_c, 0, 67, 64
2, 17880, Note_on_c, 0, 67, 0
2, 17880, Note_on_c, 0, 69, 64
2, 17940, Note_on_c, 0, 69, 0
2, 17940, Note_on_c, 0, 67, 64
2, 17990, Note_on_c, 0, 67, 0
2, 18000, Note_on_c, 0, 67, 64
2, 18060, Note_on_c, 0, 67, 0
2, 18060, Note_on_c, 0, 69, 64
2, 18120, Note_on_c, 0, 69, 0
2, 18120, Note_on_c, 0, 70, 64
2, 18180, Note_on_c, 0, 70, 0
2, 18180, Note_on_c, 0, 69, 64
2, 18230, Note_on_c, 0, 69, 0
2, 18240, Note_on_c, 0, 69, 64
2, 18300, Note_on_c, 0, 69, 0
2, 18300, Note_on_c, 0, 71, 64
2, 18360, Note_on_c, 0, 71, 0
2, 18360, Note_on_c, 0, 72, 64
2, 18420, Note_on_c, 0, 72, 0
2, 18420, Note_on_c, 0, 71, 64
2, 18470, Note_on_c, 0, 71, 0
2, 18480, Note_on_c, 0, 71, 64
2, 18540, Note_on_c, 0, 71, 0
2, 18540, Note_on_c, 0, 73, 64
2, 18600, Note_on_c, 0, 73, 0
2, 18600, Note_on_c, 0, 74, 64
2, 18660, Note_on_c, 0, 74, 0
2, 18660, Note_on_c, 0, 73, 64
2, 18710, Note_on_c, 0, 73, 0
2, 18720, Note_on_c, 0, 73, 64
2, 18840, Note_on_c, 0, 73, 0
2, 18840, Note_on_c, 0, 81, 64
2, 18960, Note_on_c, 0, 81, 0
2, 18960, Note_on_c, 0, 79, 64
2, 19080, Note_on_c, 0, 79, 0
2, 19080, Note_on_c, 0, 77, 64
2, 19200, Note_on_c, 0, 77, 0
2, 19200, Note_on_c, 0, 76, 64
2, 19320, Note_on_c, 0, 76, 0
2, 19320, Note_on_c, 0, 79, 64
2, 19440, Note_on_c, 0, 79, 0
2, 19440, Note_on_c, 0, 77, 64
2, 19500, Note_on_c, 0, 77, 0
2, 19500, Note_on_c, 0, 81, 64
2, 19560, Note_on_c, 0, 81, 0
2, 19560, Note_on_c, 0, 82, 64
2, 19620, Note_on_c, 0, 82, 0
2, 19620, Note_on_c, 0, 81, 64
2, 19680, Note_on_c, 0, 81, 0
2, 19680, Note_on_c, 0, 73, 64
2, 19920, Note_on_c, 0, 73, 0
2, 19920, Note_on_c, 0, 76, 64
2, 20280, Note_on_c, 0, 76, 0
2, 20280, Note_on_c, 0, 69, 64
2, 20400, Note_on_c, 0, 69, 0
2, 20400, Note_on_c, 0, 74, 64
2, 20640, Note_on_c, 0, 74, 0
2, 20640, Note_on_c, 0, 72, 64
2, 21000, Note_on_c, 0, 72, 0
2, 21000, Note_on_c, 0, 75, 64
2, 21180, Note_on_c, 0, 75, 0
2, 21180, Note_on_c, 0, 74, 64
2, 21240, Note_on_c, 0, 74, 0
2, 21240, Note_on_c, 0, 72, 64
2, 21300, Note_on_c, 0, 72, 0
2, 21300, Note_on_c, 0, 74, 64
2, 21350, Note_on_c, 0, 74, 0
2, 21360, Note_on_c, 0, 74, 64
2, 21420, Note_on_c, 0, 74, 0
2, 21420, Note_on_c, 0, 72, 64
2, 21480, Note_on_c, 0, 72, 0
2, 21480, Note_on_c, 0, 70, 64
2, 21540, Note_on_c, 0, 70, 0
2, 21540, Note_on_c, 0, 72, 64
2, 21590, Note_on_c, 0, 72, 0
2, 21600, Note_on_c, 0, 72, 64
2, 21660, Note_on_c, 0, 72, 0
2, 21660, Note_on_c, 0, 70, 64
2, 21720, Note_on_c, 0, 70, 0
2, 21720, Note_on_c, 0, 69, 64
2, 21780, Note_on_c, 0, 69, 0
2, 21780, Note_on_c, 0, 70, 64
2, 21840, Note_on_c, 0, 70, 0
2, 21840, Note_on_c, 0, 74, 64
2, 21900, Note_on_c, 0, 74, 0
2, 21900, Note_on_c, 0, 72, 64
2, 21960, Note_on_c, 0, 72, 0
2, 21960, Note_on_c, 0, 70, 64
2, 22020, Note_on_c, 0, 70, 0
2, 22020, Note_on_c, 0, 72, 64
2, 22070, Note_on_c, 0, 72, 0
2, 22080, Note_on_c, 0, 72, 64
2, 22140, Note_on_c, 0, 72, 0
2, 22140, Note_on_c, 0, 70, 64
2, 22200, Note_on_c, 0, 70, 0
2, 22200, Note_on_c, 0, 69, 64
2, 22260, Note_on_c, 0, 69, 0
2, 22260, Note_on_c, 0, 70, 64
2, 22310, Note_on_c, 0, 70, 0
2, 22320, Note_on_c, 0, 70, 64
2, 22380, Note_on_c, 0, 70, 0
2, 22380, Note_on_c, 0, 69, 64
2, 22440, Note_on_c, 0, 69, 0
2, 22440, Note_on_c, 0, 67, 64
2, 22500, Note_on_c, 0, 67, 0
2, 22500, Note_on_c, 0, 69, 64
2, 22560, Note_on_c, 0, 69, 0
2, 22560, Note_on_c, 0, 72, 64
2, 22620, Note_on_c, 0, 72, 0
2, 22620, Note_on_c, 0, 70, 64
2, 22680, Note_on_c, 0, 70, 0
2, 22680, Note_on_c, 0, 69, 64
2, 22740, Note_on_c, 0, 69, 0
2, 22740, Note_on_c, 0, 70, 64
2, 22790, Note_on_c, 0, 70, 0
2, 22800, Note_on_c, 0, 70, 64
2, 22860, Note_on_c, 0, 70, 0
2, 22860, Note_on_c, 0, 69, 64
2, 22920, Note_on_c, 0, 69, 0
2, 22920, Note_on_c, 0, 67, 64
2, 22980, Note_on_c, 0, 67, 0
2, 22980, Note_on_c, 0, 69, 64
2, 23030, Note_on_c, 0, 69, 0
2, 23040, Note_on_c, 0, 69, 64
2, 23100, Note_on_c, 0, 69, 0
2, 23100, Note_on_c, 0, 67, 64
2, 23160, Note_on_c, 0, 67, 0
2, 23160, Note_on_c, 0, 65, 64
2, 23220, Note_on_c, 0, 65, 0
2, 23220, Note_on_c, 0, 67, 64
2, 23280, Note_on_c, 0, 67, 0
2, 23280, Note_on_c, 0, 76, 74
2, 23460, Note_on_c, 0, 76, 0
2, 23520, Note_on_c, 0, 73, 72
2, 23542, Note_on_c, 0, 74, 41
2, 23544, Note_on_c, 0, 73, 0
2, 23564, Note_on_c, 0, 73, 43
2, 23566, Note_on_c, 0, 74, 0
2, 23586, Note_on_c, 0, 74, 45
2, 23588, Note_on_c, 0, 73, 0
2, 23608, Note_on_c, 0, 73, 48
2, 23610, Note_on_c, 0, 74, 0
2, 23630, Note_on_c, 0, 74, 50
2, 23632, Note_on_c, 0, 73, 0
2, 23652, Note_on_c, 0, 73, 52
2, 23654, Note_on_c, 0, 74, 0
2, 23674, Note_on_c, 0, 74, 54
2, 23676, Note_on_c, 0, 73, 0
2, 23696, Note_on_c, 0, 73, 57
2, 23698, Note_on_c, 0, 74, 0
2, 23718, Note_on_c, 0, 74, 59
2, 23720, Note_on_c, 0, 73, 0
2, 23740, Note_on_c, 0, 73, 61
2, 23742, Note_on_c, 0, 74, 0
2, 23760, Note_on_c, 0, 74, 64
2, 23764, Note_on_c, 0, 73, 0
2, 24060, Note_on_c, 0, 74, 0
2, 24060, Note_on_c, 0, 72, 64
2, 24120, Note_on_c, 0, 72, 0
2, 24120, Note_on_c, 0, 70, 64
2, 24180, Note_on_c, 0, 70, 0
2, 24180, Note_on_c, 0, 69, 64
2, 24240, Note_on_c, 0, 69, 0
2, 24240, Note_on_c, 0, 72, 64
2, 24300, Note_on_c, 0, 72, 0
2, 24300, Note_on_c, 0, 70, 64
2, 24360, Note_on_c, 0, 70, 0
2, 24360, Note_on_c, 0, 69, 64
2, 24420, Note_on_c, 0, 69, 0
2, 24420, Note_on_c, 0, 67, 64
2, 24480, Note_on_c, 0, 67, 0
2, 24480, Note_on_c, 0, 69, 64
2, 24600, Note_on_c, 0, 69, 0
2, 24600, Note_on_c, 0, 66, 64
2, 24720, Note_on_c, 0, 66, 0
2, 24720, Note_on_c, 0, 67, 64
2, 24840, Note_on_c, 0, 67, 0
2, 24840, Note_on_c, 0, 69, 64
2, 24960, Note_on_c, 0, 69, 0
2, 24960, Note_on_c, 0, 70, 64
2, 25080, Note_on_c, 0, 70, 0
2, 25080, Note_on_c, 0, 67, 64
2, 25200, Note_on_c, 0, 67, 0
2, 25200, Note_on_c, 0, 69, 64
2, 25260, Note_on_c, 0, 69, 0
2, 25260, Note_on_c, 0, 72, 64
2, 25320, Note_on_c, 0, 72, 0
2, 25320, Note_on_c, 0, 75, 64
2, 25500, Note_on_c, 0, 75, 0
2, 25500, Note_on_c, 0, 74, 64
2, 25560, Note_on_c, 0, 74, 0
2, 25560, Note_on_c, 0, 72, 64
2, 25620, Note_on_c, 0, 72, 0
2, 25620, Note_on_c, 0, 70, 64
2, 25680, Note_on_c, 0, 70, 0
2, 25680, Note_on_c, 0, 74, 64
2, 25740, Note_on_c, 0, 74, 0
2, 25740, Note_on_c, 0, 72, 64
2, 25800, Note_on_c, 0, 72, 0
2, 25800, Note_on_c, 0, 70, 64
2, 25860, Note_on_c, 0, 70, 0
2, 25860, Note_on_c, 0, 69, 64
2, 25920, Note_on_c, 0, 69, 0
2, 25920, Note_on_c, 0, 70, 64
2, 25980, Note_on_c, 0, 70, 0
2, 25980, Note_on_c, 0, 74, 64
2, 26040, Note_on_c, 0, 74, 0
2, 26040, Note_on_c, 0, 77, 64
2, 26220, Note_on_c, 0, 77, 0
2, 26220, Note_on_c, 0, 76, 64
2, 26280, Note_on_c, 0, 76, 0
2, 26280, Note_on_c, 0, 74, 64
2, 26340, Note_on_c, 0, 74, 0
2, 26340, Note_on_c, 0, 73, 64
2, 26400, Note_on_c, 0, 73, 0
2, 26400, Note_on_c, 0, 76, 64
2, 26460, Note_on_c, 0, 76, 0
2, 26460, Note_on_c, 0, 74, 64
2, 26520, Note_on_c, 0, 74, 0
2, 26520, Note_on_c, 0, 73, 64
2, 26580, Note_on_c, 0, 73, 0
2, 26580, Note_on_c, 0, 71, 64
2, 26640, Note_on_c, 0, 71, 0
2, 26640, Note_on_c, 0, 70, 64
2, 26700, Note_on_c, 0, 70, 0
2, 26700, Note_on_c, 0, 76, 64
2, 26760, Note_on_c, 0, 76, 0
2, 26760, Note_on_c, 0, 82, 64
2, 26940, Note_on_c, 0, 82, 0
2, 26940, Note_on_c, 0, 81, 64
2, 27000, Note_on_c, 0, 81, 0
2, 27000, Note_on_c, 0, 79, 64
2, 27060, Note_on_c, 0, 79, 0
2, 27060, Note_on_c, 0, 77, 64
2, 27120, Note_on_c, 0, 77, 0
2, 27120, Note_on_c, 0, 81, 64
2, 27180, Note_on_c, 0, 81, 0
2, 27180, Note_on_c, 0, 79, 64
2, 27240, Note_on_c, 0, 79, 0
2, 27240, Note_on_c, 0, 77, 64
2, 27300, Note_on_c, 0, 77, 0
2, 27300, Note_on_c, 0, 76, 64
2, 27360, Note_on_c, 0, 76, 0
2, 27360, Note_on_c, 0, 79, 64
2, 27420, Note_on_c, 0, 79, 0
2, 27420, Note_on_c, 0, 77, 64
2, 27480, Note_on_c, 0, 77, 0
2, 27480, Note_on_c, 0, 76, 64
2, 27540, Note_on_c, 0, 76, 0
2, 27540, Note_on_c, 0, 77, 64
2, 27590, Note_on_c, 0, 77, 0
2, 27600, Note_on_c, 0, 77, 64
2, 27660, Note_on_c, 0, 77, 0
2, 27660, Note_on_c, 0, 76, 64
2, 27720, Note_on_c, 0, 76, 0
2, 27720, Note_on_c, 0, 74, 64
2, 27780, Note_on_c, 0, 74, 0
2, 27780, Note_on_c, 0, 76, 64
2, 27830, Note_on_c, 0, 76, 0
2, 27840, Note_on_c, 0, 76, 64
2, 27900, Note_on_c, 0, 76, 0
2, 27900, Note_on_c, 0, 74, 64
2, 27960, Note_on_c, 0, 74, 0
2, 27960, Note_on_c, 0, 73, 64
2, 28020, Note_on_c, 0, 73, 0
2, 28020, Note_on_c, 0, 74, 64
2, 28080, Note_on_c, 0, 74, 0
2, 28080, Note_on_c, 0, 72, 64
2, 28380, Note_on_c, 0, 72, 0
2, 28380, Note_on_c, 0, 70, 64
2, 28440, Note_on_c, 0, 70, 0
2, 28440, Note_on_c, 0, 69, 64
2, 28500, Note_on_c, 0, 69, 0
2, 28500, Note_on_c, 0, 70, 64
2, 28550, Note_on_c, 0, 70, 0
2, 28560, Note_on_c, 0, 70, 64
2, 28620, Note_on_c, 0, 70, 0
2, 28620, Note_on_c, 0, 69, 64
2, 28680, Note_on_c, 0, 69, 0
2, 28680, Note_on_c, 0, 67, 64
2, 28740, Note_on_c, 0, 67, 0
2, 28740, Note_on_c, 0, 74, 64
2, 28800, Note_on_c, 0, 74, 0
2, 28800, Note_on_c, 0, 74, 64
2, 29820, Note_on_c, 0, 74, 0
2, 29820, Note_on_c, 0, 80, 64
2, 29880, Note_on_c, 0, 80, 0
2, 29880, Note_on_c, 0, 81, 64
2, 29940, Note_on_c, 0, 81, 0
2, 29940, Note_on_c, 0, 74, 64
2, 30000, Note_on_c, 0, 74, 0
2, 30000, Note_on_c, 0, 77, 64
2, 30060, Note_on_c, 0, 77, 0
2, 30060, Note_on_c, 0, 76, 64
2, 30120, Note_on_c, 0, 76, 0
2, 30120, Note_on_c, 0, 74, 64
2, 30180, Note_on_c, 0, 74, 0
2, 30180, Note_on_c, 0, 73, 64
2, 30240, Note_on_c, 0, 73, 0
2, 30240, Note_on_c, 0, 74, 64
2, 31680, Note_on_c, 0, 74, 0
2, 31680, End_track
3, 0, Start_track
3, 0, MIDI_port, 0
3, 0, Title_t, "RH L/LH H"
3, 0, Program_c, 1, 6
3, 1560, Note_on_c, 1, 57, 64
3, 1680, Note_on_c, 1, 57, 0
3, 1680, Note_on_c, 1, 59, 64
3, 1800, Note_on_c, 1, 59, 0
3, 1800, Note_on_c, 1, 60, 64
3, 1920, Note_on_c, 1, 60, 0
3, 1920, Note_on_c, 1, 62, 64
3, 2040, Note_on_c, 1, 62, 0
3, 2040, Note_on_c, 1, 59, 64
3, 2160, Note_on_c, 1, 59, 0
3, 2160, Note_on_c, 1, 60, 64
3, 2220, Note_on_c, 1, 60, 0
3, 2220, Note_on_c, 1, 57, 64
3, 2280, Note_on_c, 1, 57, 0
3, 2280, Note_on_c, 1, 56, 64
3, 2340, Note_on_c, 1, 56, 0
3, 2340, Note_on_c, 1, 57, 64
3, 2400, Note_on_c, 1, 57, 0
3, 2400, Note_on_c, 1, 65, 74
3, 2580, Note_on_c, 1, 65, 0
3, 2640, Note_on_c, 1, 62, 74
3, 2662, Note_on_c, 1, 64, 41
3, 2664, Note_on_c, 1, 62, 0
3, 2684, Note_on_c, 1, 62, 43
3, 2686, Note_on_c, 1, 64, 0
3, 2706, Note_on_c, 1, 64, 45
3, 2708, Note_on_c, 1, 62, 0
3, 2728, Note_on_c, 1, 62, 48
3, 2730, Note_on_c, 1, 64, 0
3, 2750, Note_on_c, 1, 64, 50
3, 2752, Note_on_c, 1, 62, 0
3, 2772, Note_on_c, 1, 62, 52
3, 2774, Note_on_c, 1, 64, 0
3, 2794, Note_on_c, 1, 64, 54
3, 2796, Note_on_c, 1, 62, 0
3, 2816, Note_on_c, 1, 62, 57
3, 2818, Note_on_c, 1, 64, 0
3, 2838, Note_on_c, 1, 64, 59
3, 2840, Note_on_c, 1, 62, 0
3, 2860, Note_on_c, 1, 62, 61
3, 2862, Note_on_c, 1, 64, 0
3, 2880, Note_on_c, 1, 64, 72
3, 2882, Note_on_c, 1, 62, 0
3, 3180, Note_on_c, 1, 64, 0
3, 3180, Note_on_c, 1, 62, 64
3, 3240, Note_on_c, 1, 62, 0
3, 3240, Note_on_c, 1, 61, 64
3, 3300, Note_on_c, 1, 61, 0
3, 3300, Note_on_c, 1, 59, 64
3, 3360, Note_on_c, 1, 59, 0
3, 3360, Note_on_c, 1, 62, 64
3, 3420, Note_on_c, 1, 62, 0
3, 3420, Note_on_c, 1, 61, 64
3, 3480, Note_on_c, 1, 61, 0
3, 3480, Note_on_c, 1, 59, 64
3, 3540, Note_on_c, 1, 59, 0
3, 3540, Note_on_c, 1, 57, 64
3, 3600, Note_on_c, 1, 57, 0
3, 3600, Note_on_c, 1, 62, 64
3, 3840, Note_on_c, 1, 62, 0
3, 4440, Note_on_c, 1, 65, 64
3, 4620, Note_on_c, 1, 65, 0
3, 4620, Note_on_c, 1, 64, 64
3, 4680, Note_on_c, 1, 64, 0
3, 4680, Note_on_c, 1, 62, 64
3, 4740, Note_on_c, 1, 62, 0
3, 4740, Note_on_c, 1, 64, 64
3, 4790, Note_on_c, 1, 64, 0
3, 4800, Note_on_c, 1, 64, 64
3, 4860, Note_on_c, 1, 64, 0
3, 4860, Note_on_c, 1, 62, 64
3, 4920, Note_on_c, 1, 62, 0
3, 4920, Note_on_c, 1, 61, 64
3, 4980, Note_on_c, 1, 61, 0
3, 4980, Note_on_c, 1, 62, 64
3, 5040, Note_on_c, 1, 62, 0
3, 5040, Note_on_c, 1, 61, 64
3, 5280, Note_on_c, 1, 61, 0
3, 5280, Note_on_c, 1, 62, 64
3, 5400, Note_on_c, 1, 62, 0
3, 5400, Note_on_c, 1, 64, 64
3, 5520, Note_on_c, 1, 64, 0
3, 5520, Note_on_c, 1, 61, 64
3, 5640, Note_on_c, 1, 61, 0
3, 5640, Note_on_c, 1, 62, 64
3, 5760, Note_on_c, 1, 62, 0
3, 5760, Note_on_c, 1, 63, 64
3, 5880, Note_on_c, 1, 63, 0
3, 5880, Note_on_c, 1, 62, 64
3, 6000, Note_on_c, 1, 62, 0
3, 6000, Note_on_c, 1, 67, 64
3, 6240, Note_on_c, 1, 67, 0
3, 6240, Note_on_c, 1, 64, 64
3, 6480, Note_on_c, 1, 64, 0
3, 6540, Note_on_c, 1, 69, 64
3, 6600, Note_on_c, 1, 69, 0
3, 6600, Note_on_c, 1, 67, 64
3, 6660, Note_on_c, 1, 67, 0
3, 6660, Note_on_c, 1, 69, 64
3, 6720, Note_on_c, 1, 69, 0
3, 6720, Note_on_c, 1, 65, 64
3, 6960, Note_on_c, 1, 65, 0
3, 6960, Note_on_c, 1, 62, 64
3, 7200, Note_on_c, 1, 62, 0
3, 7260, Note_on_c, 1, 67, 64
3, 7320, Note_on_c, 1, 67, 0
3, 7320, Note_on_c, 1, 65, 64
3, 7380, Note_on_c, 1, 65, 0
3, 7380, Note_on_c, 1, 67, 64
3, 7440, Note_on_c, 1, 67, 0
3, 7440, Note_on_c, 1, 63, 64
3, 7680, Note_on_c, 1, 63, 0
3, 7680, Note_on_c, 1, 60, 64
3, 7920, Note_on_c, 1, 60, 0
3, 8040, Note_on_c, 1, 69, 64
3, 8160, Note_on_c, 1, 69, 0
3, 8160, Note_on_c, 1, 67, 64
3, 8280, Note_on_c, 1, 67, 0
3, 8280, Note_on_c, 1, 65, 64
3, 8400, Note_on_c, 1, 65, 0
3, 8400, Note_on_c, 1, 64, 64
3, 8520, Note_on_c, 1, 64, 0
3, 8520, Note_on_c, 1, 67, 80
3, 8640, Note_on_c, 1, 67, 0
3, 8640, Note_on_c, 1, 61, 64
3, 8880, Note_on_c, 1, 61, 0
3, 8880, Note_on_c, 1, 62, 64
3, 9000, Note_on_c, 1, 62, 0
3, 9000, Note_on_c, 1, 64, 64
3, 9120, Note_on_c, 1, 64, 0
3, 9120, Note_on_c, 1, 57, 64
3, 9358, Note_on_c, 1, 57, 0
3, 9480, Note_on_c, 1, 64, 64
3, 9600, Note_on_c, 1, 64, 0
3, 9600, Note_on_c, 1, 62, 64
3, 9720, Note_on_c, 1, 62, 0
3, 9720, Note_on_c, 1, 61, 64
3, 9840, Note_on_c, 1, 61, 0
3, 9840, Note_on_c, 1, 59, 64
3, 9960, Note_on_c, 1, 59, 0
3, 9960, Note_on_c, 1, 62, 64
3, 10080, Note_on_c, 1, 62, 0
3, 10080, Note_on_c, 1, 61, 64
3, 10140, Note_on_c, 1, 61, 0
3, 10140, Note_on_c, 1, 64, 64
3, 10200, Note_on_c, 1, 64, 0
3, 10200, Note_on_c, 1, 65, 64
3, 10260, Note_on_c, 1, 65, 0
3, 10260, Note_on_c, 1, 64, 64
3, 10320, Note_on_c, 1, 64, 0
3, 10320, Note_on_c, 1, 57, 64
3, 10560, Note_on_c, 1, 57, 0
3, 10560, Note_on_c, 1, 60, 64
3, 10800, Note_on_c, 1, 60, 0
3, 10800, Note_on_c, 1, 58, 64
3, 10860, Note_on_c, 1, 58, 0
3, 10860, Note_on_c, 1, 62, 64
3, 10920, Note_on_c, 1, 62, 0
3, 10920, Note_on_c, 1, 63, 64
3, 10980, Note_on_c, 1, 63, 0
3, 10980, Note_on_c, 1, 62, 64
3, 11040, Note_on_c, 1, 62, 0
3, 11040, Note_on_c, 1, 59, 64
3, 11280, Note_on_c, 1, 59, 0
3, 11280, Note_on_c, 1, 64, 64
3, 11640, Note_on_c, 1, 64, 0
3, 12360, Note_on_c, 1, 57, 64
3, 12480, Note_on_c, 1, 57, 0
3, 12480, Note_on_c, 1, 59, 64
3, 12600, Note_on_c, 1, 59, 0
3, 12600, Note_on_c, 1, 61, 64
3, 12720, Note_on_c, 1, 61, 0
3, 12720, Note_on_c, 1, 62, 64
3, 12840, Note_on_c, 1, 62, 0
3, 12840, Note_on_c, 1, 59, 64
3, 12960, Note_on_c, 1, 59, 0
3, 12960, Note_on_c, 1, 60, 64
3, 13020, Note_on_c, 1, 60, 0
3, 13020, Note_on_c, 1, 57, 64
3, 13080, Note_on_c, 1, 57, 0
3, 13080, Note_on_c, 1, 56, 64
3, 13140, Note_on_c, 1, 56, 0
3, 13140, Note_on_c, 1, 57, 64
3, 13200, Note_on_c, 1, 57, 0
3, 13200, Note_on_c, 1, 65, 74
3, 13380, Note_on_c, 1, 65, 0
3, 13440, Note_on_c, 1, 62, 72
3, 13462, Note_on_c, 1, 62, 0
3, 13462, Note_on_c, 1, 64, 41
3, 13484, Note_on_c, 1, 62, 43
3, 13486, Note_on_c, 1, 64, 0
3, 13506, Note_on_c, 1, 64, 45
3, 13508, Note_on_c, 1, 62, 0
3, 13528, Note_on_c, 1, 62, 48
3, 13530, Note_on_c, 1, 64, 0
3, 13550, Note_on_c, 1, 64, 50
3, 13552, Note_on_c, 1, 62, 0
3, 13572, Note_on_c, 1, 62, 52
3, 13574, Note_on_c, 1, 64, 0
3, 13594, Note_on_c, 1, 64, 54
3, 13596, Note_on_c, 1, 62, 0
3, 13616, Note_on_c, 1, 62, 57
3, 13618, Note_on_c, 1, 64, 0
3, 13638, Note_on_c, 1, 64, 59
3, 13640, Note_on_c, 1, 62, 0
3, 13660, Note_on_c, 1, 62, 61
3, 13662, Note_on_c, 1, 64, 0
3, 13680, Note_on_c, 1, 64, 72
3, 13684, Note_on_c, 1, 62, 0
3, 13800, Note_on_c, 1, 64, 0
3, 13800, Note_on_c, 1, 65, 64
3, 13920, Note_on_c, 1, 65, 0
3, 13920, Note_on_c, 1, 59, 72
3, 13942, Note_on_c, 1, 60, 40
3, 13944, Note_on_c, 1, 59, 0
3, 13964, Note_on_c, 1, 59, 41
3, 13966, Note_on_c, 1, 60, 0
3, 13986, Note_on_c, 1, 60, 42
3, 13988, Note_on_c, 1, 59, 0
3, 14008, Note_on_c, 1, 59, 43
3, 14010, Note_on_c, 1, 60, 0
3, 14030, Note_on_c, 1, 60, 44
3, 14032, Note_on_c, 1, 59, 0
3, 14052, Note_on_c, 1, 59, 45
3, 14054, Note_on_c, 1, 60, 0
3, 14074, Note_on_c, 1, 60, 47
3, 14076, Note_on_c, 1, 59, 0
3, 14096, Note_on_c, 1, 59, 48
3, 14098, Note_on_c, 1, 60, 0
3, 14118, Note_on_c, 1, 60, 49
3, 14120, Note_on_c, 1, 59, 0
3, 14140, Note_on_c, 1, 59, 50
3, 14142, Note_on_c, 1, 60, 0
3, 14162, Note_on_c, 1, 60, 51
3, 14164, Note_on_c, 1, 59, 0
3, 14184, Note_on_c, 1, 59, 52
3, 14186, Note_on_c, 1, 60, 0
3, 14206, Note_on_c, 1, 60, 53
3, 14208, Note_on_c, 1, 59, 0
3, 14228, Note_on_c, 1, 59, 54
3, 14230, Note_on_c, 1, 60, 0
3, 14250, Note_on_c, 1, 60, 55
3, 14252, Note_on_c, 1, 59, 0
3, 14272, Note_on_c, 1, 59, 56
3, 14274, Note_on_c, 1, 60, 0
3, 14294, Note_on_c, 1, 60, 57
3, 14296, Note_on_c, 1, 59, 0
3, 14316, Note_on_c, 1, 59, 58
3, 14318, Note_on_c, 1, 60, 0
3, 14338, Note_on_c, 1, 60, 59
3, 14340, Note_on_c, 1, 59, 0
3, 14360, Note_on_c, 1, 59, 60
3, 14362, Note_on_c, 1, 60, 0
3, 14382, Note_on_c, 1, 60, 61
3, 14384, Note_on_c, 1, 59, 0
3, 14400, Note_on_c, 1, 57, 72
3, 14406, Note_on_c, 1, 60, 0
3, 14640, Note_on_c, 1, 57, 0
3, 17400, Note_on_c, 1, 62, 64
3, 17520, Note_on_c, 1, 62, 0
3, 17520, Note_on_c, 1, 60, 64
3, 17640, Note_on_c, 1, 60, 0
3, 17640, Note_on_c, 1, 58, 64
3, 17760, Note_on_c, 1, 58, 0
3, 17760, Note_on_c, 1, 57, 64
3, 17880, Note_on_c, 1, 57, 0
3, 17880, Note_on_c, 1, 60, 64
3, 18000, Note_on_c, 1, 60, 0
3, 18000, Note_on_c, 1, 58, 64
3, 18240, Note_on_c, 1, 58, 0
3, 18240, Note_on_c, 1, 62, 64
3, 18720, Note_on_c, 1, 62, 0
3, 18720, Note_on_c, 1, 55, 64
3, 18960, Note_on_c, 1, 55, 0
3, 19560, Note_on_c, 1, 62, 64
3, 19680, Note_on_c, 1, 62, 0
3, 19680, Note_on_c, 1, 64, 64
3, 19800, Note_on_c, 1, 64, 0
3, 19800, Note_on_c, 1, 65, 64
3, 19920, Note_on_c, 1, 65, 0
3, 19920, Note_on_c, 1, 67, 64
3, 20040, Note_on_c, 1, 67, 0
3, 20040, Note_on_c, 1, 64, 64
3, 20160, Note_on_c, 1, 64, 0
3, 20160, Note_on_c, 1, 65, 64
3, 20220, Note_on_c, 1, 65, 0
3, 20220, Note_on_c, 1, 62, 64
3, 20280, Note_on_c, 1, 62, 0
3, 20280, Note_on_c, 1, 61, 64
3, 20340, Note_on_c, 1, 61, 0
3, 20340, Note_on_c, 1, 62, 64
3, 20400, Note_on_c, 1, 62, 0
3, 20400, Note_on_c, 1, 70, 64
3, 20640, Note_on_c, 1, 70, 0
3, 20640, Note_on_c, 1, 67, 68
3, 20660, Note_on_c, 1, 67, 0
3, 20660, Note_on_c, 1, 66, 56
3, 20680, Note_on_c, 1, 66, 0
3, 20680, Note_on_c, 1, 67, 64
3, 20880, Note_on_c, 1, 67, 0
3, 20880, Note_on_c, 1, 69, 64
3, 21120, Note_on_c, 1, 69, 0
3, 21120, Note_on_c, 1, 54, 74
3, 21300, Note_on_c, 1, 54, 0
3, 21360, Note_on_c, 1, 57, 74
3, 21540, Note_on_c, 1, 57, 0
3, 21660, Note_on_c, 1, 55, 64
3, 21720, Note_on_c, 1, 55, 0
3, 21720, Note_on_c, 1, 54, 64
3, 21780, Note_on_c, 1, 54, 0
3, 21780, Note_on_c, 1, 55, 64
3, 21840, Note_on_c, 1, 55, 0
3, 21840, Note_on_c, 1, 52, 74
3, 22020, Note_on_c, 1, 52, 0
3, 22080, Note_on_c, 1, 55, 74
3, 22260, Note_on_c, 1, 55, 0
3, 22380, Note_on_c, 1, 53, 64
3, 22440, Note_on_c, 1, 53, 0
3, 22440, Note_on_c, 1, 52, 64
3, 22500, Note_on_c, 1, 52, 0
3, 22500, Note_on_c, 1, 53, 64
3, 22560, Note_on_c, 1, 53, 0
3, 22560, Note_on_c, 1, 50, 74
3, 22740, Note_on_c, 1, 50, 0
3, 22800, Note_on_c, 1, 53, 74
3, 22980, Note_on_c, 1, 53, 0
3, 23160, Note_on_c, 1, 53, 64
3, 23280, Note_on_c, 1, 53, 0
3, 23280, Note_on_c, 1, 55, 64
3, 23400, Note_on_c, 1, 55, 0
3, 23400, Note_on_c, 1, 57, 64
3, 23520, Note_on_c, 1, 57, 0
3, 23520, Note_on_c, 1, 58, 64
3, 23640, Note_on_c, 1, 58, 0
3, 23640, Note_on_c, 1, 55, 64
3, 23760, Note_on_c, 1, 55, 0
3, 23760, Note_on_c, 1, 57, 64
3, 23880, Note_on_c, 1, 57, 0
3, 23880, Note_on_c, 1, 53, 64
3, 24000, Note_on_c, 1, 53, 0
3, 24000, Note_on_c, 1, 55, 64
3, 24120, Note_on_c, 1, 55, 0
3, 24120, Note_on_c, 1, 57, 64
3, 24240, Note_on_c, 1, 57, 0
3, 24240, Note_on_c, 1, 55, 64
3, 24480, Note_on_c, 1, 55, 0
3, 24600, Note_on_c, 1, 57, 64
3, 24720, Note_on_c, 1, 57, 0
3, 24720, Note_on_c, 1, 55, 64
3, 24840, Note_on_c, 1, 55, 0
3, 24840, Note_on_c, 1, 54, 64
3, 24960, Note_on_c, 1, 54, 0
3, 24960, Note_on_c, 1, 52, 64
3, 25080, Note_on_c, 1, 52, 0
3, 25080, Note_on_c, 1, 55, 64
3, 25200, Note_on_c, 1, 55, 0
3, 25200, Note_on_c, 1, 54, 64
3, 25320, Note_on_c, 1, 54, 0
3, 25320, Note_on_c, 1, 58, 64
3, 25440, Note_on_c, 1, 58, 0
3, 25440, Note_on_c, 1, 57, 64
3, 25560, Note_on_c, 1, 57, 0
3, 25560, Note_on_c, 1, 55, 64
3, 25680, Note_on_c, 1, 55, 0
3, 25680, Note_on_c, 1, 54, 64
3, 25800, Note_on_c, 1, 54, 0
3, 25800, Note_on_c, 1, 57, 64
3, 25920, Note_on_c, 1, 57, 0
3, 25920, Note_on_c, 1, 55, 64
3, 26040, Note_on_c, 1, 55, 0
3, 26040, Note_on_c, 1, 60, 64
3, 26160, Note_on_c, 1, 60, 0
3, 26160, Note_on_c, 1, 59, 64
3, 26280, Note_on_c, 1, 59, 0
3, 26280, Note_on_c, 1, 57, 64
3, 26400, Note_on_c, 1, 57, 0
3, 26400, Note_on_c, 1, 56, 64
3, 26520, Note_on_c, 1, 56, 0
3, 26520, Note_on_c, 1, 59, 64
3, 26640, Note_on_c, 1, 59, 0
3, 26640, Note_on_c, 1, 57, 64
3, 26760, Note_on_c, 1, 57, 0
3, 26760, Note_on_c, 1, 65, 64
3, 26880, Note_on_c, 1, 65, 0
3, 26880, Note_on_c, 1, 64, 64
3, 27000, Note_on_c, 1, 64, 0
3, 27000, Note_on_c, 1, 62, 64
3, 27120, Note_on_c, 1, 62, 0
3, 27120, Note_on_c, 1, 61, 64
3, 27240, Note_on_c, 1, 61, 0
3, 27240, Note_on_c, 1, 64, 64
3, 27360, Note_on_c, 1, 64, 0
3, 27360, Note_on_c, 1, 62, 64
3, 27480, Note_on_c, 1, 62, 0
3, 28200, Note_on_c, 1, 62, 64
3, 28320, Note_on_c, 1, 62, 0
3, 28320, Note_on_c, 1, 64, 64
3, 28440, Note_on_c, 1, 64, 0
3, 28440, Note_on_c, 1, 66, 64
3, 28560, Note_on_c, 1, 66, 0
3, 28560, Note_on_c, 1, 67, 64
3, 28680, Note_on_c, 1, 67, 0
3, 28680, Note_on_c, 1, 64, 64
3, 28800, Note_on_c, 1, 64, 0
3, 28800, Note_on_c, 1, 65, 64
3, 28860, Note_on_c, 1, 65, 0
3, 28860, Note_on_c, 1, 62, 64
3, 28920, Note_on_c, 1, 62, 0
3, 28920, Note_on_c, 1, 61, 64
3, 28980, Note_on_c, 1, 61, 0
3, 28980, Note_on_c, 1, 62, 64
3, 29040, Note_on_c, 1, 62, 0
3, 29040, Note_on_c, 1, 70, 74
3, 29220, Note_on_c, 1, 70, 0
3, 29280, Note_on_c, 1, 67, 74
3, 29302, Note_on_c, 1, 69, 41
3, 29304, Note_on_c, 1, 67, 0
3, 29324, Note_on_c, 1, 67, 43
3, 29326, Note_on_c, 1, 69, 0
3, 29346, Note_on_c, 1, 69, 45
3, 29348, Note_on_c, 1, 67, 0
3, 29368, Note_on_c, 1, 67, 48
3, 29370, Note_on_c, 1, 69, 0
3, 29390, Note_on_c, 1, 69, 50
3, 29392, Note_on_c, 1, 67, 0
3, 29412, Note_on_c, 1, 67, 52
3, 29414, Note_on_c, 1, 69, 0
3, 29434, Note_on_c, 1, 69, 54
3, 29436, Note_on_c, 1, 67, 0
3, 29456, Note_on_c, 1, 67, 57
3, 29458, Note_on_c, 1, 69, 0
3, 29478, Note_on_c, 1, 69, 59
3, 29480, Note_on_c, 1, 67, 0
3, 29500, Note_on_c, 1, 67, 61
3, 29502, Note_on_c, 1, 69, 0
3, 29520, Note_on_c, 1, 69, 72
3, 29524, Note_on_c, 1, 67, 0
3, 29640, Note_on_c, 1, 69, 0
3, 29640, Note_on_c, 1, 70, 64
3, 29755, Note_on_c, 1, 70, 0
3, 29760, Note_on_c, 1, 64, 72
3, 29782, Note_on_c, 1, 64, 50
3, 29804, Note_on_c, 1, 64, 0
3, 29804, Note_on_c, 1, 65, 63
3, 29806, Note_on_c, 1, 64, 0
3, 29826, Note_on_c, 1, 64, 51
3, 29828, Note_on_c, 1, 65, 0
3, 29848, Note_on_c, 1, 65, 51
3, 29850, Note_on_c, 1, 64, 0
3, 29870, Note_on_c, 1, 64, 52
3, 29872, Note_on_c, 1, 65, 0
3, 29892, Note_on_c, 1, 65, 53
3, 29894, Note_on_c, 1, 64, 0
3, 29914, Note_on_c, 1, 64, 53
3, 29916, Note_on_c, 1, 65, 0
3, 29936, Note_on_c, 1, 65, 54
3, 29938, Note_on_c, 1, 64, 0
3, 29958, Note_on_c, 1, 64, 54
3, 29960, Note_on_c, 1, 65, 0
3, 29980, Note_on_c, 1, 65, 55
3, 29982, Note_on_c, 1, 64, 0
3, 30002, Note_on_c, 1, 64, 56
3, 30004, Note_on_c, 1, 65, 0
3, 30024, Note_on_c, 1, 65, 56
3, 30026, Note_on_c, 1, 64, 0
3, 30046, Note_on_c, 1, 64, 57
3, 30048, Note_on_c, 1, 65, 0
3, 30068, Note_on_c, 1, 65, 57
3, 30070, Note_on_c, 1, 64, 0
3, 30090, Note_on_c, 1, 64, 58
3, 30092, Note_on_c, 1, 65, 0
3, 30112, Note_on_c, 1, 65, 59
3, 30114, Note_on_c, 1, 64, 0
3, 30134, Note_on_c, 1, 64, 59
3, 30136, Note_on_c, 1, 65, 0
3, 30156, Note_on_c, 1, 65, 60
3, 30158, Note_on_c, 1, 64, 0
3, 30178, Note_on_c, 1, 64, 60
3, 30180, Note_on_c, 1, 65, 0
3, 30200, Note_on_c, 1, 65, 61
3, 30202, Note_on_c, 1, 64, 0
3, 30222, Note_on_c, 1, 64, 61
3, 30224, Note_on_c, 1, 65, 0
3, 30246, Note_on_c, 1, 64, 0
3, 30360, Note_on_c, 1, 72, 64
3, 30360, Note_on_c, 1, 69, 64
3, 30475, Note_on_c, 1, 69, 0
3, 30475, Note_on_c, 1, 72, 0
3, 30480, Note_on_c, 1, 67, 64
3, 30480, Note_on_c, 1, 70, 64
3, 30595, Note_on_c, 1, 70, 0
3, 30595, Note_on_c, 1, 67, 0
3, 30600, Note_on_c, 1, 69, 64
3, 30600, Note_on_c, 1, 66, 64
3, 30715, Note_on_c, 1, 66, 0
3, 30715, Note_on_c, 1, 69, 0
3, 30720, Note_on_c, 1, 64, 64
3, 30720, Note_on_c, 1, 67, 64
3, 30835, Note_on_c, 1, 67, 0
3, 30835, Note_on_c, 1, 64, 0
3, 30840, Note_on_c, 1, 67, 64
3, 30840, Note_on_c, 1, 70, 64
3, 30955, Note_on_c, 1, 70, 0
3, 30955, Note_on_c, 1, 67, 0
3, 30960, Note_on_c, 1, 66, 64
3, 30960, Note_on_c, 1, 69, 64
3, 31680, Note_on_c, 1, 69, 0
3, 31680, Note_on_c, 1, 66, 0
3, 31680, End_track
4, 0, Start_track
4, 0, MIDI_port, 0
4, 0, Title_t, "LH L"
4, 0, Program_c, 2, 6
4, 3720, Note_on_c, 2, 50, 64
4, 3840, Note_on_c, 2, 50, 0
4, 3840, Note_on_c, 2, 52, 64
4, 3960, Note_on_c, 2, 52, 0
4, 3960, Note_on_c, 2, 53, 64
4, 4080, Note_on_c, 2, 53, 0
4, 4080, Note_on_c, 2, 55, 64
4, 4200, Note_on_c, 2, 55, 0
4, 4200, Note_on_c, 2, 52, 64
4, 4320, Note_on_c, 2, 52, 0
4, 4320, Note_on_c, 2, 53, 64
4, 4380, Note_on_c, 2, 53, 0
4, 4380, Note_on_c, 2, 50, 64
4, 4440, Note_on_c, 2, 50, 0
4, 4440, Note_on_c, 2, 49, 64
4, 4500, Note_on_c, 2, 49, 0
4, 4500, Note_on_c, 2, 50, 64
4, 4560, Note_on_c, 2, 50, 0
4, 4560, Note_on_c, 2, 58, 72
4, 4740, Note_on_c, 2, 58, 0
4, 4800, Note_on_c, 2, 55, 72
4, 4822, Note_on_c, 2, 57, 41
4, 4824, Note_on_c, 2, 55, 0
4, 4844, Note_on_c, 2, 55, 43
4, 4846, Note_on_c, 2, 57, 0
4, 4866, Note_on_c, 2, 57, 45
4, 4868, Note_on_c, 2, 55, 0
4, 4888, Note_on_c, 2, 55, 48
4, 4890, Note_on_c, 2, 57, 0
4, 4910, Note_on_c, 2, 57, 50
4, 4912, Note_on_c, 2, 55, 0
4, 4932, Note_on_c, 2, 55, 52
4, 4934, Note_on_c, 2, 57, 0
4, 4954, Note_on_c, 2, 57, 54
4, 4956, Note_on_c, 2, 55, 0
4, 4976, Note_on_c, 2, 55, 57
4, 4978, Note_on_c, 2, 57, 0
4, 4998, Note_on_c, 2, 57, 59
4, 5000, Note_on_c, 2, 55, 0
4, 5020, Note_on_c, 2, 55, 61
4, 5022, Note_on_c, 2, 57, 0
4, 5040, Note_on_c, 2, 57, 72
4, 5044, Note_on_c, 2, 55, 0
4, 5340, Note_on_c, 2, 57, 0
4, 5340, Note_on_c, 2, 55, 64
4, 5400, Note_on_c, 2, 55, 0
4, 5400, Note_on_c, 2, 53, 64
4, 5460, Note_on_c, 2, 53, 0
4, 5460, Note_on_c, 2, 52, 64
4, 5520, Note_on_c, 2, 52, 0
4, 5520, Note_on_c, 2, 55, 64
4, 5580, Note_on_c, 2, 55, 0
4, 5580, Note_on_c, 2, 53, 64
4, 5640, Note_on_c, 2, 53, 0
4, 5640, Note_on_c, 2, 52, 64
4, 5700, Note_on_c, 2, 52, 0
4, 5700, Note_on_c, 2, 50, 64
4, 5760, Note_on_c, 2, 50, 0
4, 5760, Note_on_c, 2, 55, 64
4, 5880, Note_on_c, 2, 55, 0
4, 5880, Note_on_c, 2, 58, 64
4, 6060, Note_on_c, 2, 58, 0
4, 6060, Note_on_c, 2, 57, 64
4, 6120, Note_on_c, 2, 57, 0
4, 6120, Note_on_c, 2, 55, 64
4, 6180, Note_on_c, 2, 55, 0
4, 6180, Note_on_c, 2, 57, 64
4, 6230, Note_on_c, 2, 57, 0
4, 6240, Note_on_c, 2, 57, 64
4, 6300, Note_on_c, 2, 57, 0
4, 6300, Note_on_c, 2, 55, 64
4, 6360, Note_on_c, 2, 55, 0
4, 6360, Note_on_c, 2, 53, 64
4, 6420, Note_on_c, 2, 53, 0
4, 6420, Note_on_c, 2, 55, 64
4, 6470, Note_on_c, 2, 55, 0
4, 6480, Note_on_c, 2, 55, 64
4, 6540, Note_on_c, 2, 55, 0
4, 6540, Note_on_c, 2, 53, 64
4, 6600, Note_on_c, 2, 53, 0
4, 6600, Note_on_c, 2, 52, 64
4, 6660, Note_on_c, 2, 52, 0
4, 6660, Note_on_c, 2, 53, 64
4, 6720, Note_on_c, 2, 53, 0
4, 6720, Note_on_c, 2, 57, 64
4, 6780, Note_on_c, 2, 57, 0
4, 6780, Note_on_c, 2, 55, 64
4, 6840, Note_on_c, 2, 55, 0
4, 6840, Note_on_c, 2, 53, 64
4, 6900, Note_on_c, 2, 53, 0
4, 6900, Note_on_c, 2, 55, 64
4, 6950, Note_on_c, 2, 55, 0
4, 6960, Note_on_c, 2, 55, 64
4, 7020, Note_on_c, 2, 55, 0
4, 7020, Note_on_c, 2, 53, 64
4, 7080, Note_on_c, 2, 53, 0
4, 7080, Note_on_c, 2, 52, 64
4, 7140, Note_on_c, 2, 52, 0
4, 7140, Note_on_c, 2, 53, 64
4, 7200, Note_on_c, 2, 53, 0
4, 7200, Note_on_c, 2, 53, 64
4, 7250, Note_on_c, 2, 53, 0
4, 7260, Note_on_c, 2, 52, 64
4, 7320, Note_on_c, 2, 52, 0
4, 7320, Note_on_c, 2, 50, 64
4, 7380, Note_on_c, 2, 50, 0
4, 7380, Note_on_c, 2, 52, 64
4, 7440, Note_on_c, 2, 52, 0
4, 7440, Note_on_c, 2, 55, 64
4, 7500, Note_on_c, 2, 55, 0
4, 7500, Note_on_c, 2, 53, 64
4, 7560, Note_on_c, 2, 53, 0
4, 7560, Note_on_c, 2, 51, 64
4, 7620, Note_on_c, 2, 51, 0
4, 7620, Note_on_c, 2, 53, 64
4, 7670, Note_on_c, 2, 53, 0
4, 7680, Note_on_c, 2, 53, 64
4, 7740, Note_on_c, 2, 53, 0
4, 7740, Note_on_c, 2, 51, 64
4, 7800, Note_on_c, 2, 51, 0
4, 7800, Note_on_c, 2, 50, 64
4, 7860, Note_on_c, 2, 50, 0
4, 7860, Note_on_c, 2, 51, 64
4, 7910, Note_on_c, 2, 51, 0
4, 7920, Note_on_c, 2, 51, 64
4, 7980, Note_on_c, 2, 51, 0
4, 7980, Note_on_c, 2, 50, 64
4, 8040, Note_on_c, 2, 50, 0
4, 8040, Note_on_c, 2, 49, 64
4, 8100, Note_on_c, 2, 49, 0
4, 8100, Note_on_c, 2, 50, 64
4, 8160, Note_on_c, 2, 50, 0
4, 8160, Note_on_c, 2, 58, 74
4, 8340, Note_on_c, 2, 58, 0
4, 8400, Note_on_c, 2, 55, 68
4, 8422, Note_on_c, 2, 57, 41
4, 8424, Note_on_c, 2, 55, 0
4, 8444, Note_on_c, 2, 55, 43
4, 8446, Note_on_c, 2, 57, 0
4, 8466, Note_on_c, 2, 57, 45
4, 8468, Note_on_c, 2, 55, 0
4, 8488, Note_on_c, 2, 55, 48
4, 8490, Note_on_c, 2, 57, 0
4, 8510, Note_on_c, 2, 57, 50
4, 8512, Note_on_c, 2, 55, 0
4, 8532, Note_on_c, 2, 55, 52
4, 8534, Note_on_c, 2, 57, 0
4, 8554, Note_on_c, 2, 57, 54
4, 8556, Note_on_c, 2, 55, 0
4, 8576, Note_on_c, 2, 55, 57
4, 8578, Note_on_c, 2, 57, 0
4, 8598, Note_on_c, 2, 57, 59
4, 8600, Note_on_c, 2, 55, 0
4, 8620, Note_on_c, 2, 55, 61
4, 8622, Note_on_c, 2, 57, 0
4, 8640, Note_on_c, 2, 57, 72
4, 8644, Note_on_c, 2, 55, 0
4, 8940, Note_on_c, 2, 57, 0
4, 8940, Note_on_c, 2, 55, 64
4, 9000, Note_on_c, 2, 55, 0
4, 9000, Note_on_c, 2, 53, 64
4, 9060, Note_on_c, 2, 53, 0
4, 9060, Note_on_c, 2, 52, 64
4, 9120, Note_on_c, 2, 52, 0
4, 9120, Note_on_c, 2, 55, 64
4, 9180, Note_on_c, 2, 55, 0
4, 9180, Note_on_c, 2, 53, 64
4, 9240, Note_on_c, 2, 53, 0
4, 9240, Note_on_c, 2, 52, 64
4, 9300, Note_on_c, 2, 52, 0
4, 9300, Note_on_c, 2, 50, 64
4, 9360, Note_on_c, 2, 50, 0
4, 9360, Note_on_c, 2, 52, 64
4, 9480, Note_on_c, 2, 52, 0
4, 9480, Note_on_c, 2, 49, 64
4, 9600, Note_on_c, 2, 49, 0
4, 9600, Note_on_c, 2, 50, 64
4, 9720, Note_on_c, 2, 50, 0
4, 9720, Note_on_c, 2, 52, 64
4, 9840, Note_on_c, 2, 52, 0
4, 9840, Note_on_c, 2, 53, 64
4, 9960, Note_on_c, 2, 53, 0
4, 9960, Note_on_c, 2, 50, 64
4, 10080, Note_on_c, 2, 50, 0
4, 10080, Note_on_c, 2, 57, 64
4, 10320, Note_on_c, 2, 57, 0
4, 10320, Note_on_c, 2, 54, 64
4, 10440, Note_on_c, 2, 54, 0
4, 10440, Note_on_c, 2, 52, 64
4, 10560, Note_on_c, 2, 52, 0
4, 10560, Note_on_c, 2, 50, 64
4, 10680, Note_on_c, 2, 50, 0
4, 10680, Note_on_c, 2, 54, 64
4, 10800, Note_on_c, 2, 54, 0
4, 10800, Note_on_c, 2, 55, 64
4, 11040, Note_on_c, 2, 55, 0
4, 11040, Note_on_c, 2, 56, 64
4, 11160, Note_on_c, 2, 56, 0
4, 11160, Note_on_c, 2, 54, 64
4, 11280, Note_on_c, 2, 54, 0
4, 11280, Note_on_c, 2, 52, 64
4, 11400, Note_on_c, 2, 52, 0
4, 11400, Note_on_c, 2, 56, 64
4, 11520, Note_on_c, 2, 56, 0
4, 11520, Note_on_c, 2, 57, 64
4, 11640, Note_on_c, 2, 57, 0
4, 11640, Note_on_c, 2, 45, 64
4, 11760, Note_on_c, 2, 45, 0
4, 11760, Note_on_c, 2, 47, 64
4, 11880, Note_on_c, 2, 47, 0
4, 11880, Note_on_c, 2, 48, 64
4, 12000, Note_on_c, 2, 48, 0
4, 12000, Note_on_c, 2, 50, 64
4, 12120, Note_on_c, 2, 50, 0
4, 12120, Note_on_c, 2, 47, 64
4, 12240, Note_on_c, 2, 47, 0
4, 12240, Note_on_c, 2, 49, 64
4, 12300, Note_on_c, 2, 49, 0
4, 12300, Note_on_c, 2, 45, 64
4, 12360, Note_on_c, 2, 45, 0
4, 12360, Note_on_c, 2, 44, 64
4, 12420, Note_on_c, 2, 44, 0
4, 12420, Note_on_c, 2, 45, 64
4, 12480, Note_on_c, 2, 45, 0
4, 12480, Note_on_c, 2, 53, 64
4, 12718, Note_on_c, 2, 53, 0
4, 12720, Note_on_c, 2, 50, 74
4, 12742, Note_on_c, 2, 52, 45
4, 12744, Note_on_c, 2, 50, 0
4, 12764, Note_on_c, 2, 50, 47
4, 12766, Note_on_c, 2, 52, 0
4, 12786, Note_on_c, 2, 52, 48
4, 12788, Note_on_c, 2, 50, 0
4, 12808, Note_on_c, 2, 50, 50
4, 12810, Note_on_c, 2, 52, 0
4, 12830, Note_on_c, 2, 52, 52
4, 12832, Note_on_c, 2, 50, 0
4, 12852, Note_on_c, 2, 50, 54
4, 12854, Note_on_c, 2, 52, 0
4, 12874, Note_on_c, 2, 52, 56
4, 12876, Note_on_c, 2, 50, 0
4, 12896, Note_on_c, 2, 50, 58
4, 12898, Note_on_c, 2, 52, 0
4, 12918, Note_on_c, 2, 52, 59
4, 12920, Note_on_c, 2, 50, 0
4, 12940, Note_on_c, 2, 50, 61
4, 12942, Note_on_c, 2, 52, 0
4, 12960, Note_on_c, 2, 52, 72
4, 12964, Note_on_c, 2, 50, 0
4, 13080, Note_on_c, 2, 52, 0
4, 13080, Note_on_c, 2, 53, 64
4, 13200, Note_on_c, 2, 53, 0
4, 13200, Note_on_c, 2, 52, 64
4, 13260, Note_on_c, 2, 52, 0
4, 13260, Note_on_c, 2, 50, 64
4, 13320, Note_on_c, 2, 50, 0
4, 13320, Note_on_c, 2, 48, 64
4, 13380, Note_on_c, 2, 48, 0
4, 13380, Note_on_c, 2, 50, 64
4, 13430, Note_on_c, 2, 50, 0
4, 13440, Note_on_c, 2, 50, 64
4, 13500, Note_on_c, 2, 50, 0
4, 13500, Note_on_c, 2, 48, 64
4, 13560, Note_on_c, 2, 48, 0
4, 13560, Note_on_c, 2, 47, 64
4, 13620, Note_on_c, 2, 47, 0
4, 13620, Note_on_c, 2, 48, 64
4, 13670, Note_on_c, 2, 48, 0
4, 13680, Note_on_c, 2, 48, 64
4, 13800, Note_on_c, 2, 48, 0
4, 13800, Note_on_c, 2, 50, 64
4, 13920, Note_on_c, 2, 50, 0
4, 13920, Note_on_c, 2, 52, 64
4, 14040, Note_on_c, 2, 52, 0
4, 14040, Note_on_c, 2, 50, 64
4, 14160, Note_on_c, 2, 50, 0
4, 14160, Note_on_c, 2, 52, 64
4, 14373, Note_on_c, 2, 52, 0
4, 14520, Note_on_c, 2, 45, 64
4, 14640, Note_on_c, 2, 45, 0
4, 14640, Note_on_c, 2, 47, 64
4, 14760, Note_on_c, 2, 47, 0
4, 14760, Note_on_c, 2, 49, 64
4, 14880, Note_on_c, 2, 49, 0
4, 14880, Note_on_c, 2, 50, 64
4, 15000, Note_on_c, 2, 50, 0
4, 15000, Note_on_c, 2, 47, 64
4, 15120, Note_on_c, 2, 47, 0
4, 15120, Note_on_c, 2, 49, 64
4, 15180, Note_on_c, 2, 49, 0
4, 15180, Note_on_c, 2, 45, 64
4, 15240, Note_on_c, 2, 45, 0
4, 15240, Note_on_c, 2, 44, 64
4, 15300, Note_on_c, 2, 44, 0
4, 15300, Note_on_c, 2, 45, 64
4, 15360, Note_on_c, 2, 45, 0
4, 15360, Note_on_c, 2, 53, 74
4, 15540, Note_on_c, 2, 53, 0
4, 15600, Note_on_c, 2, 50, 74
4, 15622, Note_on_c, 2, 52, 41
4, 15624, Note_on_c, 2, 50, 0
4, 15644, Note_on_c, 2, 50, 43
4, 15646, Note_on_c, 2, 52, 0
4, 15666, Note_on_c, 2, 52, 45
4, 15668, Note_on_c, 2, 50, 0
4, 15688, Note_on_c, 2, 50, 48
4, 15690, Note_on_c, 2, 52, 0
4, 15710, Note_on_c, 2, 52, 50
4, 15712, Note_on_c, 2, 50, 0
4, 15732, Note_on_c, 2, 50, 52
4, 15734, Note_on_c, 2, 52, 0
4, 15754, Note_on_c, 2, 52, 54
4, 15756, Note_on_c, 2, 50, 0
4, 15776, Note_on_c, 2, 50, 57
4, 15778, Note_on_c, 2, 52, 0
4, 15798, Note_on_c, 2, 52, 59
4, 15800, Note_on_c, 2, 50, 0
4, 15820, Note_on_c, 2, 50, 61
4, 15822, Note_on_c, 2, 52, 0
4, 15840, Note_on_c, 2, 57, 72
4, 15844, Note_on_c, 2, 50, 0
4, 15960, Note_on_c, 2, 57, 0
4, 15960, Note_on_c, 2, 53, 64
4, 16080, Note_on_c, 2, 53, 0
4, 16080, Note_on_c, 2, 52, 64
4, 16200, Note_on_c, 2, 52, 0
4, 16200, Note_on_c, 2, 50, 64
4, 16320, Note_on_c, 2, 50, 0
4, 16320, Note_on_c, 2, 49, 64
4, 16440, Note_on_c, 2, 49, 0
4, 16440, Note_on_c, 2, 52, 64
4, 16560, Note_on_c, 2, 52, 0
4, 16560, Note_on_c, 2, 50, 64
4, 16620, Note_on_c, 2, 50, 0
4, 16620, Note_on_c, 2, 53, 64
4, 16680, Note_on_c, 2, 53, 0
4, 16680, Note_on_c, 2, 55, 64
4, 16740, Note_on_c, 2, 55, 0
4, 16740, Note_on_c, 2, 53, 64
4, 16800, Note_on_c, 2, 53, 0
4, 16800, Note_on_c, 2, 45, 74
4, 16980, Note_on_c, 2, 45, 0
4, 17040, Note_on_c, 2, 49, 74
4, 17062, Note_on_c, 2, 50, 41
4, 17064, Note_on_c, 2, 49, 0
4, 17084, Note_on_c, 2, 49, 43
4, 17086, Note_on_c, 2, 50, 0
4, 17106, Note_on_c, 2, 50, 46
4, 17108, Note_on_c, 2, 49, 0
4, 17128, Note_on_c, 2, 49, 48
4, 17130, Note_on_c, 2, 50, 0
4, 17150, Note_on_c, 2, 50, 50
4, 17152, Note_on_c, 2, 49, 0
4, 17172, Note_on_c, 2, 49, 53
4, 17174, Note_on_c, 2, 50, 0
4, 17194, Note_on_c, 2, 50, 55
4, 17196, Note_on_c, 2, 49, 0
4, 17216, Note_on_c, 2, 49, 57
4, 17218, Note_on_c, 2, 50, 0
4, 17238, Note_on_c, 2, 50, 60
4, 17240, Note_on_c, 2, 49, 0
4, 17260, Note_on_c, 2, 49, 61
4, 17262, Note_on_c, 2, 50, 0
4, 17280, Note_on_c, 2, 50, 72
4, 17284, Note_on_c, 2, 49, 0
4, 18000, Note_on_c, 2, 50, 0
4, 18120, Note_on_c, 2, 55, 64
4, 18240, Note_on_c, 2, 55, 0
4, 18240, Note_on_c, 2, 54, 64
4, 18360, Note_on_c, 2, 54, 0
4, 18360, Note_on_c, 2, 52, 64
4, 18480, Note_on_c, 2, 52, 0
4, 18480, Note_on_c, 2, 50, 64
4, 18600, Note_on_c, 2, 50, 0
4, 18600, Note_on_c, 2, 53, 64
4, 18720, Note_on_c, 2, 53, 0
4, 18720, Note_on_c, 2, 52, 64
4, 19020, Note_on_c, 2, 52, 0
4, 19020, Note_on_c, 2, 50, 64
4, 19080, Note_on_c, 2, 50, 0
4, 19080, Note_on_c, 2, 49, 64
4, 19140, Note_on_c, 2, 49, 0
4, 19140, Note_on_c, 2, 47, 64
4, 19200, Note_on_c, 2, 47, 0
4, 19200, Note_on_c, 2, 50, 64
4, 19260, Note_on_c, 2, 50, 0
4, 19260, Note_on_c, 2, 49, 64
4, 19320, Note_on_c, 2, 49, 0
4, 19320, Note_on_c, 2, 47, 64
4, 19380, Note_on_c, 2, 47, 0
4, 19380, Note_on_c, 2, 45, 64
4, 19440, Note_on_c, 2, 45, 0
4, 19440, Note_on_c, 2, 50, 64
4, 19680, Note_on_c, 2, 50, 0
4, 20280, Note_on_c, 2, 57, 64
4, 20400, Note_on_c, 2, 57, 0
4, 20400, Note_on_c, 2, 55, 64
4, 20520, Note_on_c, 2, 55, 0
4, 20520, Note_on_c, 2, 53, 64
4, 20640, Note_on_c, 2, 53, 0
4, 20640, Note_on_c, 2, 52, 64
4, 20760, Note_on_c, 2, 52, 0
4, 20760, Note_on_c, 2, 55, 64
4, 20880, Note_on_c, 2, 55, 0
4, 20880, Note_on_c, 2, 54, 64
4, 20940, Note_on_c, 2, 54, 0
4, 20940, Note_on_c, 2, 57, 64
4, 21000, Note_on_c, 2, 57, 0
4, 21000, Note_on_c, 2, 58, 64
4, 21060, Note_on_c, 2, 58, 0
4, 21060, Note_on_c, 2, 57, 64
4, 21120, Note_on_c, 2, 57, 0
4, 21120, Note_on_c, 2, 50, 64
4, 21300, Note_on_c, 2, 50, 0
4, 21360, Note_on_c, 2, 54, 64
4, 21540, Note_on_c, 2, 54, 0
4, 21600, Note_on_c, 2, 43, 64
4, 21840, Note_on_c, 2, 43, 0
4, 21840, Note_on_c, 2, 48, 64
4, 22020, Note_on_c, 2, 48, 0
4, 22080, Note_on_c, 2, 52, 64
4, 22260, Note_on_c, 2, 52, 0
4, 22320, Note_on_c, 2, 41, 64
4, 22560, Note_on_c, 2, 41, 0
4, 22560, Note_on_c, 2, 46, 64
4, 22740, Note_on_c, 2, 46, 0
4, 22800, Note_on_c, 2, 50, 64
4, 22980, Note_on_c, 2, 50, 0
4, 23040, Note_on_c, 2, 52, 64
4, 23760, Note_on_c, 2, 52, 0
4, 23760, Note_on_c, 2, 53, 64
4, 23880, Note_on_c, 2, 53, 0
4, 23880, Note_on_c, 2, 50, 64
4, 24000, Note_on_c, 2, 50, 0
4, 24000, Note_on_c, 2, 52, 64
4, 24120, Note_on_c, 2, 52, 0
4, 24120, Note_on_c, 2, 54, 64
4, 24240, Note_on_c, 2, 54, 0
4, 24360, Note_on_c, 2, 52, 64
4, 24480, Note_on_c, 2, 52, 0
4, 24480, Note_on_c, 2, 54, 64
4, 24540, Note_on_c, 2, 54, 0
4, 24540, Note_on_c, 2, 50, 64
4, 24600, Note_on_c, 2, 50, 0
4, 24600, Note_on_c, 2, 49, 64
4, 24660, Note_on_c, 2, 49, 0
4, 24660, Note_on_c, 2, 50, 64
4, 24720, Note_on_c, 2, 50, 0
4, 24720, Note_on_c, 2, 58, 64
4, 24840, Note_on_c, 2, 58, 0
4, 24840, Note_on_c, 2, 57, 64
4, 24960, Note_on_c, 2, 57, 0
4, 24960, Note_on_c, 2, 55, 64
4, 25080, Note_on_c, 2, 55, 0
4, 25080, Note_on_c, 2, 58, 64
4, 25200, Note_on_c, 2, 58, 0
4, 25200, Note_on_c, 2, 57, 64
4, 25320, Note_on_c, 2, 57, 0
4, 25320, Note_on_c, 2, 55, 64
4, 25440, Note_on_c, 2, 55, 0
4, 25440, Note_on_c, 2, 54, 64
4, 25560, Note_on_c, 2, 54, 0
4, 25560, Note_on_c, 2, 52, 64
4, 25680, Note_on_c, 2, 52, 0
4, 25680, Note_on_c, 2, 50, 64
4, 25800, Note_on_c, 2, 50, 0
4, 25800, Note_on_c, 2, 54, 64
4, 25920, Note_on_c, 2, 54, 0
4, 25920, Note_on_c, 2, 43, 64
4, 26040, Note_on_c, 2, 43, 0
4, 26040, Note_on_c, 2, 57, 64
4, 26160, Note_on_c, 2, 57, 0
4, 26160, Note_on_c, 2, 56, 64
4, 26280, Note_on_c, 2, 56, 0
4, 26280, Note_on_c, 2, 54, 64
4, 26400, Note_on_c, 2, 54, 0
4, 26400, Note_on_c, 2, 52, 64
4, 26520, Note_on_c, 2, 52, 0
4, 26520, Note_on_c, 2, 56, 64
4, 26640, Note_on_c, 2, 56, 0
4, 26640, Note_on_c, 2, 45, 64
4, 26760, Note_on_c, 2, 45, 0
4, 26760, Note_on_c, 2, 62, 64
4, 26880, Note_on_c, 2, 62, 0
4, 26880, Note_on_c, 2, 61, 64
4, 27000, Note_on_c, 2, 61, 0
4, 27000, Note_on_c, 2, 59, 64
4, 27120, Note_on_c, 2, 59, 0
4, 27120, Note_on_c, 2, 57, 64
4, 27240, Note_on_c, 2, 57, 0
4, 27240, Note_on_c, 2, 61, 64
4, 27360, Note_on_c, 2, 61, 0
4, 27480, Note_on_c, 2, 50, 64
4, 27600, Note_on_c, 2, 50, 0
4, 27600, Note_on_c, 2, 52, 64
4, 27720, Note_on_c, 2, 52, 0
4, 27720, Note_on_c, 2, 53, 64
4, 27840, Note_on_c, 2, 53, 0
4, 27840, Note_on_c, 2, 55, 64
4, 27960, Note_on_c, 2, 55, 0
4, 27960, Note_on_c, 2, 52, 64
4, 28080, Note_on_c, 2, 52, 0
4, 28080, Note_on_c, 2, 54, 64
4, 28140, Note_on_c, 2, 50, 64
4, 28148, Note_on_c, 2, 54, 0
4, 28200, Note_on_c, 2, 49, 64
4, 28203, Note_on_c, 2, 50, 0
4, 28260, Note_on_c, 2, 50, 64
4, 28267, Note_on_c, 2, 49, 0
4, 28320, Note_on_c, 2, 58, 74
4, 28325, Note_on_c, 2, 50, 0
4, 28500, Note_on_c, 2, 58, 0
4, 28560, Note_on_c, 2, 55, 68
4, 28582, Note_on_c, 2, 57, 41
4, 28584, Note_on_c, 2, 55, 0
4, 28604, Note_on_c, 2, 55, 43
4, 28606, Note_on_c, 2, 57, 0
4, 28626, Note_on_c, 2, 57, 45
4, 28628, Note_on_c, 2, 55, 0
4, 28648, Note_on_c, 2, 55, 48
4, 28650, Note_on_c, 2, 57, 0
4, 28670, Note_on_c, 2, 57, 50
4, 28672, Note_on_c, 2, 55, 0
4, 28692, Note_on_c, 2, 55, 52
4, 28694, Note_on_c, 2, 57, 0
4, 28714, Note_on_c, 2, 57, 54
4, 28716, Note_on_c, 2, 55, 0
4, 28736, Note_on_c, 2, 55, 57
4, 28738, Note_on_c, 2, 57, 0
4, 28758, Note_on_c, 2, 57, 59
4, 28760, Note_on_c, 2, 55, 0
4, 28780, Note_on_c, 2, 55, 61
4, 28782, Note_on_c, 2, 57, 0
4, 28800, Note_on_c, 2, 57, 72
4, 28804, Note_on_c, 2, 55, 0
4, 28920, Note_on_c, 2, 57, 0
4, 28920, Note_on_c, 2, 58, 64
4, 29040, Note_on_c, 2, 58, 0
4, 29040, Note_on_c, 2, 57, 64
4, 29100, Note_on_c, 2, 57, 0
4, 29100, Note_on_c, 2, 55, 64
4, 29160, Note_on_c, 2, 55, 0
4, 29160, Note_on_c, 2, 53, 64
4, 29220, Note_on_c, 2, 53, 0
4, 29220, Note_on_c, 2, 55, 64
4, 29270, Note_on_c, 2, 55, 0
4, 29280, Note_on_c, 2, 55, 64
4, 29340, Note_on_c, 2, 55, 0
4, 29340, Note_on_c, 2, 53, 64
4, 29400, Note_on_c, 2, 53, 0
4, 29400, Note_on_c, 2, 52, 64
4, 29460, Note_on_c, 2, 52, 0
4, 29460, Note_on_c, 2, 53, 64
4, 29510, Note_on_c, 2, 53, 0
4, 29520, Note_on_c, 2, 53, 64
4, 29640, Note_on_c, 2, 53, 0
4, 29640, Note_on_c, 2, 55, 64
4, 29760, Note_on_c, 2, 55, 0
4, 29760, Note_on_c, 2, 57, 64
4, 29880, Note_on_c, 2, 57, 0
4, 29880, Note_on_c, 2, 55, 64
4, 30000, Note_on_c, 2, 55, 0
4, 30000, Note_on_c, 2, 57, 64
4, 30240, Note_on_c, 2, 57, 0
4, 30240, Note_on_c, 2, 50, 80
4, 30355, Note_on_c, 2, 50, 0
4, 30360, Note_on_c, 2, 50, 80
4, 30360, Note_on_c, 2, 54, 64
4, 30475, Note_on_c, 2, 54, 0
4, 30480, Note_on_c, 2, 55, 64
4, 30480, Note_on_c, 2, 52, 64
4, 30595, Note_on_c, 2, 52, 0
4, 30595, Note_on_c, 2, 55, 0
4, 30600, Note_on_c, 2, 57, 64
4, 30600, Note_on_c, 2, 54, 64
4, 30715, Note_on_c, 2, 54, 0
4, 30715, Note_on_c, 2, 57, 0
4, 30720, Note_on_c, 2, 58, 64
4, 30720, Note_on_c, 2, 55, 64
4, 30835, Note_on_c, 2, 55, 0
4, 30835, Note_on_c, 2, 58, 0
4, 30840, Note_on_c, 2, 52, 64
4, 30840, Note_on_c, 2, 55, 64
4, 30955, Note_on_c, 2, 55, 0
4, 30955, Note_on_c, 2, 52, 0
4, 30955, Note_on_c, 2, 50, 0
4, 30960, Note_on_c, 2, 50, 64
4, 30960, Note_on_c, 2, 57, 64
4, 30960, Note_on_c, 2, 54, 64
4, 31680, Note_on_c, 2, 54, 0
4, 31680, Note_on_c, 2, 57, 0
4, 31680, Note_on_c, 2, 50, 0
4, 31680, End_track
0, 0, End_of_file
