0, 0, Header, 1, 15, 120
1, 0, Start_track
1, 0, MIDI_port, 0
1, 0, System_exclusive, 10, 65, 16, 66, 18, 64, 0, 127, 0, 65, 247
1, 0, MIDI_port, 0
1, 0, System_exclusive, 10, 65, 16, 66, 18, 64, 0, 127, 0, 65, 247
1, 0, MIDI_port, 0
1, 0, System_exclusive, 25, 65, 16, 66, 18, 64, 1, 16, 0, 4, 4, 0, 1, 0, 1, 2, 0, 0, 1, 2, 6, 3, 0, 0, 23, 247
1, 0, MIDI_port, 0
1, 0, System_exclusive, 10, 65, 16, 66, 18, 64, 16, 20, 1, 27, 247
1, 0, MIDI_port, 0
1, 0, System_exclusive, 10, 65, 16, 66, 18, 64, 1, 48, 3, 12, 247
1, 0, MIDI_port, 0
1, 0, System_exclusive, 25, 65, 16, 66, 18, 64, 1, 16, 1, 4, 3, 1, 1, 2, 1, 2, 1, 2, 1, 0, 0, 3, 1, 1, 23, 247
1, 0, MIDI_port, 0
1, 0, Time_signature, 3, 3, 12, 8
1, 0, Key_signature, 1, "major"
1, 0, Tempo, 750000
1, 76186, Tempo, 759494
1, 76608, Tempo, 750000
1, 76612, Tempo, 759494
1, 76616, Tempo, 750000
1, 76622, Tempo, 740741
1, 76624, Tempo, 750000
1, 76628, Tempo, 759494
1, 76632, Tempo, 769231
1, 76636, Tempo, 779221
1, 76642, Tempo, 789474
1, 76646, Tempo, 800000
1, 76650, Tempo, 810811
1, 76652, Tempo, 821918
1, 76656, Tempo, 845070
1, 76658, Tempo, 857143
1, 76660, Tempo, 869565
1, 76664, Tempo, 895522
1, 76732, Tempo, 909091
1, 76740, Tempo, 923077
1, 76748, Tempo, 937500
1, 76754, Tempo, 952381
1, 76764, Tempo, 967742
1, 76766, Tempo, 983607
1, 76772, Tempo, 1000000
1, 76776, Tempo, 1016949
1, 76788, Tempo, 1052632
1, 76796, Tempo, 1071429
1, 76800, Tempo, 1071429
1, 76806, Tempo, 1090909
1, 76808, Tempo, 1111111
1, 76810, Tempo, 1132075
1, 76812, Tempo, 1153846
1, 76814, Tempo, 1176471
1, 76816, Tempo, 1200000
1, 76818, Tempo, 1250000
1, 76820, Tempo, 1363636
1, 76822, Tempo, 1463415
1, 76824, Tempo, 1538462
1, 76826, Tempo, 1578947
1, 76828, Tempo, 1714286
1, 76830, Tempo, 1764706
1, 76832, Tempo, 1818182
1, 76834, Tempo, 1935484
1, 76836, Tempo, 2142857
1, 76838, Tempo, 2307692
1, 76844, Tempo, 2400000
1, 76846, Tempo, 2500000
1, 76852, Tempo, 2608696
1, 76860, Tempo, 2500000
1, 76866, Tempo, 2400000
1, 76868, Tempo, 2307692
1, 76874, Tempo, 2222222
1, 76876, Tempo, 2000000
1, 76878, Tempo, 1935484
1, 76880, Tempo, 1875000
1, 76884, Tempo, 1428571
1, 76886, Tempo, 1363636
1, 76888, Tempo, 1304348
1, 76892, Tempo, 1224490
1, 76894, Tempo, 1200000
1, 76900, Tempo, 1176471
1, 76912, Tempo, 1200000
1, 76928, Tempo, 1224490
1, 76930, Tempo, 1250000
1, 76940, Tempo, 1276596
1, 76944, Tempo, 1304348
1, 76952, Tempo, 1333333
1, 76954, Tempo, 1363636
1, 76960, Tempo, 1428571
1, 76966, Tempo, 1463415
1, 76968, Tempo, 1500000
1, 76972, Tempo, 1538462
1, 76976, Tempo, 1666667
1, 76980, Tempo, 1714286
1, 76982, Tempo, 1764706
1, 76984, Tempo, 1818182
1, 76986, Tempo, 1875000
1, 76990, Tempo, 2000000
1, 76992, Tempo, 2142857
1, 76994, Tempo, 2307692
1, 76996, Tempo, 2222222
1, 76998, Tempo, 2400000
1, 77000, Tempo, 2500000
1, 77002, Tempo, 2608696
1, 77004, Tempo, 2727273
1, 77006, Tempo, 3000000
1, 77008, Tempo, 3157895
1, 77012, Tempo, 3750000
1, 77016, Tempo, 4000000
1, 77020, Tempo, 4615385
1, 77022, Tempo, 5000000
1, 77028, Tempo, 5454545
1, 77030, Tempo, 6000000
1, 77036, Tempo, 6000000
1, 77038, Tempo, 6000000
1, 77068, Tempo, 6000000
1, 77084, Tempo, 6000000
1, 77088, Tempo, 6000000
1, 77090, Tempo, 6000000
1, 77090, End_track
2, 0, Start_track
2, 0, MIDI_port, 0
2, 0, Title_t, "Violin"
2, 0, Program_c, 0, 40
2, 0, Control_c, 0, 7, 100
2, 0, Control_c, 0, 10, 90
2, 60, Channel_aftertouch_c, 0, 70
2, 180, Note_on_c, 0, 79, 105
2, 262, Note_on_c, 0, 79, 0
2, 360, Note_on_c, 0, 81, 107
2, 433, Note_on_c, 0, 81, 0
2, 540, Note_on_c, 0, 83, 110
2, 602, Note_on_c, 0, 83, 0
2, 1260, Note_on_c, 0, 79, 107
2, 1315, Note_on_c, 0, 79, 0
2, 1440, Note_on_c, 0, 81, 102
2, 1495, Note_on_c, 0, 81, 0
2, 1620, Note_on_c, 0, 83, 105
2, 1682, Note_on_c, 0, 83, 0
2, 2370, Note_on_c, 0, 71, 82
2, 2400, Note_on_c, 0, 72, 102
2, 2411, Note_on_c, 0, 71, 0
2, 2430, Note_on_c, 0, 74, 113
2, 2432, Note_on_c, 0, 72, 0
2, 2460, Note_on_c, 0, 74, 0
2, 2460, Note_on_c, 0, 76, 112
2, 2490, Note_on_c, 0, 78, 113
2, 2494, Note_on_c, 0, 76, 0
2, 2520, Note_on_c, 0, 79, 105
2, 2526, Note_on_c, 0, 78, 0
2, 2550, Note_on_c, 0, 83, 110
2, 2551, Note_on_c, 0, 79, 0
2, 2571, Note_on_c, 0, 83, 0
2, 2580, Note_on_c, 0, 83, 105
2, 2610, Note_on_c, 0, 79, 105
2, 2615, Note_on_c, 0, 83, 0
2, 2630, Note_on_c, 0, 79, 0
2, 2640, Note_on_c, 0, 79, 102
2, 2670, Note_on_c, 0, 76, 107
2, 2672, Note_on_c, 0, 79, 0
2, 2693, Note_on_c, 0, 76, 0
2, 2700, Note_on_c, 0, 76, 102
2, 2725, Note_on_c, 0, 76, 0
2, 2730, Note_on_c, 0, 73, 100
2, 2760, Note_on_c, 0, 74, 98
2, 2763, Note_on_c, 0, 73, 0
2, 2790, Note_on_c, 0, 76, 95
2, 2792, Note_on_c, 0, 74, 0
2, 2820, Note_on_c, 0, 78, 102
2, 2829, Note_on_c, 0, 76, 0
2, 2848, Note_on_c, 0, 78, 0
2, 2850, Note_on_c, 0, 79, 82
2, 2880, Note_on_c, 0, 81, 119
2, 2884, Note_on_c, 0, 79, 0
2, 2910, Note_on_c, 0, 85, 105
2, 2917, Note_on_c, 0, 81, 0
2, 2929, Note_on_c, 0, 85, 0
2, 2940, Note_on_c, 0, 85, 110
2, 2968, Note_on_c, 0, 85, 0
2, 2970, Note_on_c, 0, 81, 98
2, 2988, Note_on_c, 0, 81, 0
2, 3000, Note_on_c, 0, 81, 98
2, 3026, Note_on_c, 0, 81, 0
2, 3030, Note_on_c, 0, 78, 105
2, 3050, Note_on_c, 0, 78, 0
2, 3060, Note_on_c, 0, 78, 107
2, 3087, Note_on_c, 0, 78, 0
2, 3090, Note_on_c, 0, 74, 100
2, 3120, Note_on_c, 0, 76, 105
2, 3127, Note_on_c, 0, 74, 0
2, 3150, Note_on_c, 0, 78, 110
2, 3157, Note_on_c, 0, 76, 0
2, 3179, Note_on_c, 0, 78, 0
2, 3180, Note_on_c, 0, 79, 85
2, 3210, Note_on_c, 0, 81, 113
2, 3215, Note_on_c, 0, 79, 0
2, 3240, Note_on_c, 0, 83, 113
2, 3246, Note_on_c, 0, 81, 0
2, 3270, Note_on_c, 0, 86, 105
2, 3276, Note_on_c, 0, 83, 0
2, 3294, Note_on_c, 0, 86, 0
2, 3300, Note_on_c, 0, 86, 105
2, 3330, Note_on_c, 0, 83, 105
2, 3335, Note_on_c, 0, 86, 0
2, 3351, Note_on_c, 0, 83, 0
2, 3360, Note_on_c, 0, 83, 100
2, 3390, Note_on_c, 0, 79, 102
2, 3394, Note_on_c, 0, 83, 0
2, 3410, Note_on_c, 0, 79, 0
2, 3420, Note_on_c, 0, 79, 102
2, 3448, Note_on_c, 0, 79, 0
2, 3450, Note_on_c, 0, 83, 105
2, 3472, Note_on_c, 0, 83, 0
2, 3480, Note_on_c, 0, 83, 102
2, 3510, Note_on_c, 0, 79, 102
2, 3513, Note_on_c, 0, 83, 0
2, 3531, Note_on_c, 0, 79, 0
2, 3540, Note_on_c, 0, 79, 93
2, 3570, Note_on_c, 0, 76, 87
2, 3572, Note_on_c, 0, 79, 0
2, 3590, Note_on_c, 0, 76, 0
2, 3600, Note_on_c, 0, 76, 105
2, 3629, Note_on_c, 0, 76, 0
2, 3630, Note_on_c, 0, 79, 102
2, 3653, Note_on_c, 0, 79, 0
2, 3660, Note_on_c, 0, 79, 91
2, 3690, Note_on_c, 0, 76, 102
2, 3696, Note_on_c, 0, 79, 0
2, 3710, Note_on_c, 0, 76, 0
2, 3720, Note_on_c, 0, 76, 95
2, 3750, Note_on_c, 0, 73, 105
2, 3756, Note_on_c, 0, 76, 0
2, 3770, Note_on_c, 0, 73, 0
2, 3780, Note_on_c, 0, 73, 105
2, 3807, Note_on_c, 0, 73, 0
2, 3810, Note_on_c, 0, 76, 100
2, 3833, Note_on_c, 0, 76, 0
2, 3840, Note_on_c, 0, 76, 95
2, 3864, Note_on_c, 0, 76, 0
2, 3870, Note_on_c, 0, 73, 102
2, 3886, Note_on_c, 0, 73, 0
2, 3900, Note_on_c, 0, 73, 100
2, 3929, Note_on_c, 0, 73, 0
2, 3930, Note_on_c, 0, 69, 95
2, 3953, Note_on_c, 0, 69, 0
2, 3960, Note_on_c, 0, 69, 98
2, 3990, Note_on_c, 0, 73, 105
2, 3996, Note_on_c, 0, 69, 0
2, 4007, Note_on_c, 0, 73, 0
2, 4020, Note_on_c, 0, 73, 98
2, 4050, Note_on_c, 0, 69, 100
2, 4052, Note_on_c, 0, 73, 0
2, 4071, Note_on_c, 0, 69, 0
2, 4080, Note_on_c, 0, 69, 98
2, 4110, Note_on_c, 0, 66, 95
2, 4112, Note_on_c, 0, 69, 0
2, 4131, Note_on_c, 0, 66, 0
2, 4140, Note_on_c, 0, 66, 113
2, 4170, Note_on_c, 0, 69, 107
2, 4176, Note_on_c, 0, 66, 0
2, 4200, Note_on_c, 0, 74, 102
2, 4203, Note_on_c, 0, 69, 0
2, 4230, Note_on_c, 0, 69, 107
2, 4236, Note_on_c, 0, 74, 0
2, 4260, Note_on_c, 0, 66, 98
2, 4262, Note_on_c, 0, 69, 0
2, 4290, Note_on_c, 0, 62, 91
2, 4292, Note_on_c, 0, 66, 0
2, 4320, Note_on_c, 0, 61, 91
2, 4325, Note_on_c, 0, 62, 0
2, 4350, Note_on_c, 0, 64, 87
2, 4353, Note_on_c, 0, 61, 0
2, 4377, Note_on_c, 0, 64, 0
2, 4380, Note_on_c, 0, 69, 105
2, 4408, Note_on_c, 0, 69, 0
2, 4410, Note_on_c, 0, 64, 91
2, 4440, Note_on_c, 0, 61, 119
2, 4441, Note_on_c, 0, 64, 0
2, 4469, Note_on_c, 0, 61, 0
2, 4470, Note_on_c, 0, 57, 89
2, 4500, Note_on_c, 0, 81, 105
2, 4503, Note_on_c, 0, 57, 0
2, 5236, Note_on_c, 0, 81, 0
2, 5250, Note_on_c, 0, 81, 102
2, 5280, Note_on_c, 0, 81, 0
2, 5280, Note_on_c, 0, 86, 105
2, 5310, Note_on_c, 0, 81, 91
2, 5315, Note_on_c, 0, 86, 0
2, 5340, Note_on_c, 0, 78, 102
2, 5343, Note_on_c, 0, 81, 0
2, 5370, Note_on_c, 0, 74, 102
2, 5372, Note_on_c, 0, 78, 0
2, 5398, Note_on_c, 0, 74, 0
2, 5400, Note_on_c, 0, 73, 110
2, 5430, Note_on_c, 0, 73, 0
2, 5430, Note_on_c, 0, 76, 98
2, 5460, Note_on_c, 0, 81, 98
2, 5463, Note_on_c, 0, 76, 0
2, 5490, Note_on_c, 0, 76, 105
2, 5498, Note_on_c, 0, 81, 0
2, 5520, Note_on_c, 0, 73, 102
2, 5522, Note_on_c, 0, 76, 0
2, 5550, Note_on_c, 0, 73, 0
2, 5550, Note_on_c, 0, 69, 105
2, 5575, Note_on_c, 0, 69, 0
2, 5580, Note_on_c, 0, 57, 100
2, 6321, Note_on_c, 0, 57, 0
2, 6690, Note_on_c, 0, 72, 100
2, 6710, Note_on_c, 0, 72, 0
2, 6720, Note_on_c, 0, 72, 100
2, 6741, Note_on_c, 0, 72, 0
2, 6750, Note_on_c, 0, 69, 105
2, 6770, Note_on_c, 0, 69, 0
2, 6780, Note_on_c, 0, 69, 98
2, 6805, Note_on_c, 0, 69, 0
2, 6810, Note_on_c, 0, 66, 100
2, 6831, Note_on_c, 0, 66, 0
2, 6840, Note_on_c, 0, 66, 93
2, 6867, Note_on_c, 0, 66, 0
2, 6870, Note_on_c, 0, 62, 87
2, 6890, Note_on_c, 0, 62, 0
2, 6900, Note_on_c, 0, 62, 89
2, 6927, Note_on_c, 0, 62, 0
2, 6930, Note_on_c, 0, 74, 105
2, 6949, Note_on_c, 0, 74, 0
2, 6960, Note_on_c, 0, 74, 95
2, 6978, Note_on_c, 0, 74, 0
2, 6990, Note_on_c, 0, 74, 100
2, 7012, Note_on_c, 0, 74, 0
2, 7020, Note_on_c, 0, 71, 100
2, 7047, Note_on_c, 0, 71, 0
2, 7050, Note_on_c, 0, 67, 95
2, 7066, Note_on_c, 0, 67, 0
2, 7080, Note_on_c, 0, 67, 98
2, 7108, Note_on_c, 0, 67, 0
2, 7110, Note_on_c, 0, 62, 95
2, 7128, Note_on_c, 0, 62, 0
2, 7140, Note_on_c, 0, 62, 89
2, 7165, Note_on_c, 0, 62, 0
2, 7170, Note_on_c, 0, 59, 93
2, 7194, Note_on_c, 0, 59, 0
2, 7200, Note_on_c, 0, 59, 82
2, 7225, Note_on_c, 0, 59, 0
2, 7230, Note_on_c, 0, 62, 100
2, 7247, Note_on_c, 0, 62, 0
2, 7260, Note_on_c, 0, 62, 100
2, 7290, Note_on_c, 0, 59, 102
2, 7294, Note_on_c, 0, 62, 0
2, 7316, Note_on_c, 0, 59, 0
2, 7320, Note_on_c, 0, 59, 82
2, 7350, Note_on_c, 0, 59, 0
2, 7350, Note_on_c, 0, 55, 91
2, 7373, Note_on_c, 0, 55, 0
2, 7380, Note_on_c, 0, 55, 102
2, 7458, Note_on_c, 0, 55, 0
2, 7590, Note_on_c, 0, 67, 85
2, 7620, Note_on_c, 0, 69, 102
2, 7626, Note_on_c, 0, 67, 0
2, 7650, Note_on_c, 0, 71, 98
2, 7654, Note_on_c, 0, 69, 0
2, 7675, Note_on_c, 0, 71, 0
2, 7680, Note_on_c, 0, 72, 91
2, 7710, Note_on_c, 0, 74, 105
2, 7712, Note_on_c, 0, 72, 0
2, 7740, Note_on_c, 0, 76, 107
2, 7744, Note_on_c, 0, 74, 0
2, 7770, Note_on_c, 0, 77, 107
2, 7776, Note_on_c, 0, 76, 0
2, 7800, Note_on_c, 0, 76, 107
2, 7811, Note_on_c, 0, 77, 0
2, 7830, Note_on_c, 0, 74, 105
2, 7833, Note_on_c, 0, 76, 0
2, 7860, Note_on_c, 0, 72, 91
2, 7866, Note_on_c, 0, 74, 0
2, 7890, Note_on_c, 0, 72, 0
2, 7890, Note_on_c, 0, 71, 95
2, 7920, Note_on_c, 0, 69, 105
2, 7926, Note_on_c, 0, 71, 0
2, 7949, Note_on_c, 0, 69, 0
2, 7950, Note_on_c, 0, 74, 87
2, 7970, Note_on_c, 0, 74, 0
2, 7980, Note_on_c, 0, 74, 100
2, 8010, Note_on_c, 0, 71, 100
2, 8015, Note_on_c, 0, 74, 0
2, 8029, Note_on_c, 0, 71, 0
2, 8040, Note_on_c, 0, 71, 89
2, 8070, Note_on_c, 0, 71, 0
2, 8070, Note_on_c, 0, 67, 95
2, 8088, Note_on_c, 0, 67, 0
2, 8100, Note_on_c, 0, 67, 87
2, 8128, Note_on_c, 0, 67, 0
2, 8130, Note_on_c, 0, 72, 100
2, 8150, Note_on_c, 0, 72, 0
2, 8160, Note_on_c, 0, 72, 102
2, 8190, Note_on_c, 0, 69, 105
2, 8192, Note_on_c, 0, 72, 0
2, 8209, Note_on_c, 0, 69, 0
2, 8220, Note_on_c, 0, 69, 93
2, 8250, Note_on_c, 0, 66, 107
2, 8252, Note_on_c, 0, 69, 0
2, 8274, Note_on_c, 0, 66, 0
2, 8280, Note_on_c, 0, 66, 100
2, 8310, Note_on_c, 0, 71, 91
2, 8314, Note_on_c, 0, 66, 0
2, 8332, Note_on_c, 0, 71, 0
2, 8340, Note_on_c, 0, 71, 95
2, 8370, Note_on_c, 0, 67, 85
2, 8378, Note_on_c, 0, 71, 0
2, 8388, Note_on_c, 0, 67, 0
2, 8400, Note_on_c, 0, 67, 95
2, 8430, Note_on_c, 0, 67, 0
2, 8430, Note_on_c, 0, 64, 100
2, 8450, Note_on_c, 0, 64, 0
2, 8460, Note_on_c, 0, 64, 100
2, 8490, Note_on_c, 0, 67, 98
2, 8494, Note_on_c, 0, 64, 0
2, 8520, Note_on_c, 0, 66, 105
2, 8527, Note_on_c, 0, 67, 0
2, 8548, Note_on_c, 0, 66, 0
2, 8550, Note_on_c, 0, 67, 91
2, 8580, Note_on_c, 0, 69, 113
2, 8585, Note_on_c, 0, 67, 0
2, 8610, Note_on_c, 0, 71, 113
2, 8614, Note_on_c, 0, 69, 0
2, 8640, Note_on_c, 0, 72, 110
2, 8648, Note_on_c, 0, 71, 0
2, 8670, Note_on_c, 0, 76, 98
2, 8672, Note_on_c, 0, 72, 0
2, 8691, Note_on_c, 0, 76, 0
2, 8700, Note_on_c, 0, 76, 105
2, 8730, Note_on_c, 0, 72, 107
2, 8736, Note_on_c, 0, 76, 0
2, 8750, Note_on_c, 0, 72, 0
2, 8760, Note_on_c, 0, 72, 95
2, 8790, Note_on_c, 0, 69, 100
2, 8795, Note_on_c, 0, 72, 0
2, 8814, Note_on_c, 0, 69, 0
2, 8820, Note_on_c, 0, 69, 100
2, 8844, Note_on_c, 0, 69, 0
2, 8850, Note_on_c, 0, 66, 85
2, 8880, Note_on_c, 0, 67, 89
2, 8890, Note_on_c, 0, 66, 0
2, 8910, Note_on_c, 0, 69, 105
2, 8912, Note_on_c, 0, 67, 0
2, 8940, Note_on_c, 0, 71, 107
2, 8941, Note_on_c, 0, 69, 0
2, 8970, Note_on_c, 0, 72, 110
2, 8972, Note_on_c, 0, 71, 0
2, 9000, Note_on_c, 0, 74, 105
2, 9007, Note_on_c, 0, 72, 0
2, 9030, Note_on_c, 0, 78, 102
2, 9035, Note_on_c, 0, 74, 0
2, 9050, Note_on_c, 0, 78, 0
2, 9060, Note_on_c, 0, 78, 102
2, 9090, Note_on_c, 0, 74, 89
2, 9095, Note_on_c, 0, 78, 0
2, 9109, Note_on_c, 0, 74, 0
2, 9120, Note_on_c, 0, 74, 95
2, 9148, Note_on_c, 0, 74, 0
2, 9150, Note_on_c, 0, 71, 100
2, 9171, Note_on_c, 0, 71, 0
2, 9180, Note_on_c, 0, 71, 91
2, 9210, Note_on_c, 0, 71, 0
2, 9210, Note_on_c, 0, 67, 82
2, 9240, Note_on_c, 0, 69, 89
2, 9242, Note_on_c, 0, 67, 0
2, 9270, Note_on_c, 0, 69, 0
2, 9270, Note_on_c, 0, 71, 95
2, 9299, Note_on_c, 0, 71, 0
2, 9300, Note_on_c, 0, 72, 93
2, 9330, Note_on_c, 0, 74, 110
2, 9332, Note_on_c, 0, 72, 0
2, 9360, Note_on_c, 0, 76, 113
2, 9366, Note_on_c, 0, 74, 0
2, 9390, Note_on_c, 0, 79, 105
2, 9393, Note_on_c, 0, 76, 0
2, 9411, Note_on_c, 0, 79, 0
2, 9420, Note_on_c, 0, 79, 102
2, 9450, Note_on_c, 0, 76, 105
2, 9455, Note_on_c, 0, 79, 0
2, 9467, Note_on_c, 0, 76, 0
2, 9480, Note_on_c, 0, 76, 98
2, 9510, Note_on_c, 0, 72, 98
2, 9513, Note_on_c, 0, 76, 0
2, 9534, Note_on_c, 0, 72, 0
2, 9540, Note_on_c, 0, 72, 93
2, 9570, Note_on_c, 0, 76, 102
2, 9572, Note_on_c, 0, 72, 0
2, 9589, Note_on_c, 0, 76, 0
2, 9600, Note_on_c, 0, 76, 100
2, 9630, Note_on_c, 0, 72, 107
2, 9633, Note_on_c, 0, 76, 0
2, 9653, Note_on_c, 0, 72, 0
2, 9660, Note_on_c, 0, 72, 95
2, 9686, Note_on_c, 0, 72, 0
2, 9690, Note_on_c, 0, 69, 98
2, 9713, Note_on_c, 0, 69, 0
2, 9720, Note_on_c, 0, 69, 105
2, 9750, Note_on_c, 0, 69, 0
2, 9750, Note_on_c, 0, 84, 105
2, 9780, Note_on_c, 0, 84, 0
2, 9780, Note_on_c, 0, 84, 100
2, 9810, Note_on_c, 0, 81, 102
2, 9812, Note_on_c, 0, 84, 0
2, 9831, Note_on_c, 0, 81, 0
2, 9840, Note_on_c, 0, 81, 98
2, 9868, Note_on_c, 0, 81, 0
2, 9870, Note_on_c, 0, 78, 113
2, 9890, Note_on_c, 0, 78, 0
2, 9900, Note_on_c, 0, 78, 107
2, 9925, Note_on_c, 0, 78, 0
2, 9930, Note_on_c, 0, 81, 100
2, 9951, Note_on_c, 0, 81, 0
2, 9960, Note_on_c, 0, 81, 105
2, 9986, Note_on_c, 0, 81, 0
2, 9990, Note_on_c, 0, 78, 105
2, 10006, Note_on_c, 0, 78, 0
2, 10020, Note_on_c, 0, 78, 100
2, 10050, Note_on_c, 0, 74, 89
2, 10052, Note_on_c, 0, 78, 0
2, 10071, Note_on_c, 0, 74, 0
2, 10080, Note_on_c, 0, 74, 105
2, 10110, Note_on_c, 0, 78, 110
2, 10110, Note_on_c, 0, 75, 45
2, 10115, Note_on_c, 0, 75, 0
2, 10117, Note_on_c, 0, 74, 0
2, 10129, Note_on_c, 0, 78, 0
2, 10140, Note_on_c, 0, 78, 107
2, 10167, Note_on_c, 0, 78, 0
2, 10170, Note_on_c, 0, 74, 89
2, 10191, Note_on_c, 0, 74, 0
2, 10200, Note_on_c, 0, 74, 102
2, 10230, Note_on_c, 0, 72, 102
2, 10234, Note_on_c, 0, 74, 0
2, 10256, Note_on_c, 0, 72, 0
2, 10260, Note_on_c, 0, 71, 110
2, 10289, Note_on_c, 0, 71, 0
2, 10290, Note_on_c, 0, 74, 98
2, 10320, Note_on_c, 0, 79, 107
2, 10329, Note_on_c, 0, 74, 0
2, 10350, Note_on_c, 0, 74, 105
2, 10353, Note_on_c, 0, 79, 0
2, 10380, Note_on_c, 0, 71, 105
2, 10384, Note_on_c, 0, 74, 0
2, 10410, Note_on_c, 0, 67, 102
2, 10414, Note_on_c, 0, 71, 0
2, 10436, Note_on_c, 0, 67, 0
2, 10440, Note_on_c, 0, 66, 113
2, 10470, Note_on_c, 0, 69, 102
2, 10474, Note_on_c, 0, 66, 0
2, 10500, Note_on_c, 0, 74, 100
2, 10504, Note_on_c, 0, 69, 0
2, 10530, Note_on_c, 0, 69, 105
2, 10535, Note_on_c, 0, 74, 0
2, 10560, Note_on_c, 0, 66, 107
2, 10565, Note_on_c, 0, 69, 0
2, 10590, Note_on_c, 0, 66, 0
2, 10590, Note_on_c, 0, 62, 91
2, 10620, Note_on_c, 0, 86, 110
2, 10622, Note_on_c, 0, 62, 0
2, 11348, Note_on_c, 0, 86, 0
2, 11370, Note_on_c, 0, 86, 107
2, 11400, Note_on_c, 0, 91, 105
2, 11406, Note_on_c, 0, 86, 0
2, 11430, Note_on_c, 0, 86, 95
2, 11432, Note_on_c, 0, 91, 0
2, 11460, Note_on_c, 0, 83, 105
2, 11465, Note_on_c, 0, 86, 0
2, 11490, Note_on_c, 0, 79, 87
2, 11494, Note_on_c, 0, 83, 0
2, 11520, Note_on_c, 0, 79, 0
2, 11520, Note_on_c, 0, 78, 105
2, 11550, Note_on_c, 0, 81, 110
2, 11553, Note_on_c, 0, 78, 0
2, 11580, Note_on_c, 0, 86, 110
2, 11585, Note_on_c, 0, 81, 0
2, 11610, Note_on_c, 0, 81, 102
2, 11612, Note_on_c, 0, 86, 0
2, 11640, Note_on_c, 0, 78, 100
2, 11645, Note_on_c, 0, 81, 0
2, 11670, Note_on_c, 0, 74, 107
2, 11673, Note_on_c, 0, 78, 0
2, 11696, Note_on_c, 0, 74, 0
2, 11700, Note_on_c, 0, 62, 105
2, 12433, Note_on_c, 0, 62, 0
2, 12452, Note_on_c, 0, 74, 105
2, 12473, Note_on_c, 0, 74, 0
2, 12483, Note_on_c, 0, 74, 98
2, 12510, Note_on_c, 0, 71, 105
2, 12515, Note_on_c, 0, 74, 0
2, 12528, Note_on_c, 0, 71, 0
2, 12538, Note_on_c, 0, 71, 98
2, 12566, Note_on_c, 0, 71, 0
2, 12569, Note_on_c, 0, 67, 98
2, 12589, Note_on_c, 0, 67, 0
2, 12598, Note_on_c, 0, 67, 102
2, 12626, Note_on_c, 0, 67, 0
2, 12629, Note_on_c, 0, 76, 107
2, 12648, Note_on_c, 0, 76, 0
2, 12660, Note_on_c, 0, 76, 107
2, 12684, Note_on_c, 0, 76, 0
2, 12689, Note_on_c, 0, 73, 107
2, 12707, Note_on_c, 0, 73, 0
2, 12718, Note_on_c, 0, 73, 105
2, 12747, Note_on_c, 0, 69, 100
2, 12749, Note_on_c, 0, 73, 0
2, 12766, Note_on_c, 0, 69, 0
2, 12777, Note_on_c, 0, 69, 89
2, 12805, Note_on_c, 0, 69, 0
2, 12811, Note_on_c, 0, 78, 107
2, 12828, Note_on_c, 0, 78, 0
2, 12839, Note_on_c, 0, 78, 107
2, 12867, Note_on_c, 0, 78, 0
2, 12871, Note_on_c, 0, 75, 105
2, 12887, Note_on_c, 0, 75, 0
2, 12900, Note_on_c, 0, 75, 105
2, 12930, Note_on_c, 0, 75, 0
2, 12930, Note_on_c, 0, 71, 95
2, 12951, Note_on_c, 0, 71, 0
2, 12960, Note_on_c, 0, 71, 98
2, 12990, Note_on_c, 0, 71, 0
2, 12990, Note_on_c, 0, 79, 102
2, 13009, Note_on_c, 0, 79, 0
2, 13020, Note_on_c, 0, 79, 105
2, 13050, Note_on_c, 0, 76, 113
2, 13051, Note_on_c, 0, 79, 0
2, 13065, Note_on_c, 0, 76, 0
2, 13080, Note_on_c, 0, 76, 102
2, 13109, Note_on_c, 0, 76, 0
2, 13110, Note_on_c, 0, 79, 107
2, 13128, Note_on_c, 0, 79, 0
2, 13140, Note_on_c, 0, 79, 102
2, 13170, Note_on_c, 0, 72, 105
2, 13172, Note_on_c, 0, 79, 0
2, 13187, Note_on_c, 0, 72, 0
2, 13200, Note_on_c, 0, 72, 91
2, 13230, Note_on_c, 0, 78, 110
2, 13231, Note_on_c, 0, 72, 0
2, 13249, Note_on_c, 0, 78, 0
2, 13260, Note_on_c, 0, 78, 107
2, 13290, Note_on_c, 0, 69, 85
2, 13292, Note_on_c, 0, 78, 0
2, 13313, Note_on_c, 0, 69, 0
2, 13320, Note_on_c, 0, 71, 113
2, 13350, Note_on_c, 0, 76, 100
2, 13353, Note_on_c, 0, 71, 0
2, 13380, Note_on_c, 0, 74, 102
2, 13386, Note_on_c, 0, 76, 0
2, 13410, Note_on_c, 0, 72, 110
2, 13417, Note_on_c, 0, 74, 0
2, 13440, Note_on_c, 0, 71, 113
2, 13451, Note_on_c, 0, 72, 0
2, 13470, Note_on_c, 0, 71, 0
2, 13470, Note_on_c, 0, 69, 95
2, 13498, Note_on_c, 0, 69, 0
2, 13500, Note_on_c, 0, 67, 107
2, 13557, Note_on_c, 0, 67, 0
2, 13560, Note_on_c, 0, 71, 113
2, 13612, Note_on_c, 0, 71, 0
2, 13620, Note_on_c, 0, 67, 100
2, 13680, Note_on_c, 0, 64, 105
2, 13681, Note_on_c, 0, 67, 0
2, 13876, Note_on_c, 0, 64, 0
2, 13890, Note_on_c, 0, 76, 105
2, 13910, Note_on_c, 0, 76, 0
2, 13920, Note_on_c, 0, 76, 100
2, 13950, Note_on_c, 0, 72, 105
2, 13954, Note_on_c, 0, 76, 0
2, 13967, Note_on_c, 0, 72, 0
2, 13980, Note_on_c, 0, 72, 105
2, 14008, Note_on_c, 0, 72, 0
2, 14010, Note_on_c, 0, 69, 107
2, 14027, Note_on_c, 0, 69, 0
2, 14040, Note_on_c, 0, 69, 102
2, 14067, Note_on_c, 0, 69, 0
2, 14070, Note_on_c, 0, 74, 102
2, 14088, Note_on_c, 0, 74, 0
2, 14100, Note_on_c, 0, 74, 102
2, 14126, Note_on_c, 0, 74, 0
2, 14130, Note_on_c, 0, 69, 102
2, 14149, Note_on_c, 0, 69, 0
2, 14160, Note_on_c, 0, 69, 100
2, 14184, Note_on_c, 0, 69, 0
2, 14190, Note_on_c, 0, 66, 105
2, 14220, Note_on_c, 0, 66, 0
2, 14220, Note_on_c, 0, 62, 100
2, 14250, Note_on_c, 0, 74, 100
2, 14253, Note_on_c, 0, 62, 0
2, 14271, Note_on_c, 0, 74, 0
2, 14280, Note_on_c, 0, 79, 107
2, 14331, Note_on_c, 0, 79, 0
2, 14370, Note_on_c, 0, 76, 105
2, 14394, Note_on_c, 0, 76, 0
2, 14400, Note_on_c, 0, 78, 116
2, 14444, Note_on_c, 0, 78, 0
2, 14490, Note_on_c, 0, 71, 110
2, 14513, Note_on_c, 0, 71, 0
2, 14520, Note_on_c, 0, 76, 113
2, 14573, Note_on_c, 0, 76, 0
2, 14610, Note_on_c, 0, 76, 95
2, 14640, Note_on_c, 0, 74, 102
2, 14647, Note_on_c, 0, 76, 0
2, 14670, Note_on_c, 0, 72, 105
2, 14675, Note_on_c, 0, 74, 0
2, 14700, Note_on_c, 0, 71, 110
2, 14705, Note_on_c, 0, 72, 0
2, 14730, Note_on_c, 0, 69, 93
2, 14731, Note_on_c, 0, 71, 0
2, 14757, Note_on_c, 0, 69, 0
2, 14760, Note_on_c, 0, 71, 116
2, 14790, Note_on_c, 0, 72, 107
2, 14796, Note_on_c, 0, 71, 0
2, 14818, Note_on_c, 0, 72, 0
2, 14820, Note_on_c, 0, 69, 122
2, 14910, Note_on_c, 0, 67, 119
2, 14917, Note_on_c, 0, 69, 0
2, 14928, Note_on_c, 0, 67, 0
2, 14940, Note_on_c, 0, 67, 95
2, 14970, Note_on_c, 0, 67, 0
2, 14970, Note_on_c, 0, 79, 95
2, 15000, Note_on_c, 0, 79, 0
2, 15000, Note_on_c, 0, 74, 95
2, 15030, Note_on_c, 0, 74, 0
2, 15030, Note_on_c, 0, 71, 95
2, 15045, Control_c, 0, 7, 64
2, 15060, Note_on_c, 0, 71, 0
2, 15060, Note_on_c, 0, 67, 95
2, 15090, Note_on_c, 0, 67, 0
2, 15090, Note_on_c, 0, 62, 95
2, 15120, Note_on_c, 0, 62, 0
2, 15120, Note_on_c, 0, 65, 95
2, 15150, Note_on_c, 0, 65, 0
2, 15150, Note_on_c, 0, 71, 95
2, 15180, Note_on_c, 0, 71, 0
2, 15180, Note_on_c, 0, 74, 95
2, 15210, Note_on_c, 0, 74, 0
2, 15210, Note_on_c, 0, 69, 95
2, 15240, Note_on_c, 0, 69, 0
2, 15240, Note_on_c, 0, 67, 95
2, 15270, Note_on_c, 0, 67, 0
2, 15270, Note_on_c, 0, 65, 95
2, 15300, Note_on_c, 0, 65, 0
2, 15300, Note_on_c, 0, 64, 95
2, 15330, Note_on_c, 0, 64, 0
2, 15330, Note_on_c, 0, 79, 95
2, 15360, Note_on_c, 0, 79, 0
2, 15360, Note_on_c, 0, 76, 95
2, 15390, Note_on_c, 0, 76, 0
2, 15390, Note_on_c, 0, 72, 95
2, 15420, Note_on_c, 0, 72, 0
2, 15420, Note_on_c, 0, 67, 95
2, 15450, Note_on_c, 0, 67, 0
2, 15450, Note_on_c, 0, 64, 95
2, 15480, Note_on_c, 0, 64, 0
2, 15480, Note_on_c, 0, 67, 95
2, 15510, Note_on_c, 0, 67, 0
2, 15510, Note_on_c, 0, 72, 95
2, 15540, Note_on_c, 0, 72, 0
2, 15540, Note_on_c, 0, 76, 95
2, 15570, Note_on_c, 0, 76, 0
2, 15570, Note_on_c, 0, 71, 95
2, 15600, Note_on_c, 0, 71, 0
2, 15600, Note_on_c, 0, 69, 95
2, 15630, Note_on_c, 0, 69, 0
2, 15630, Note_on_c, 0, 67, 95
2, 15660, Note_on_c, 0, 67, 0
2, 15660, Note_on_c, 0, 66, 95
2, 15690, Note_on_c, 0, 66, 0
2, 15690, Note_on_c, 0, 81, 95
2, 15720, Note_on_c, 0, 81, 0
2, 15720, Note_on_c, 0, 78, 95
2, 15750, Note_on_c, 0, 78, 0
2, 15750, Note_on_c, 0, 74, 95
2, 15780, Note_on_c, 0, 74, 0
2, 15780, Note_on_c, 0, 69, 95
2, 15810, Note_on_c, 0, 69, 0
2, 15810, Note_on_c, 0, 66, 95
2, 15840, Note_on_c, 0, 66, 0
2, 15840, Note_on_c, 0, 69, 95
2, 15870, Note_on_c, 0, 69, 0
2, 15870, Note_on_c, 0, 72, 95
2, 15900, Note_on_c, 0, 72, 0
2, 15900, Note_on_c, 0, 78, 95
2, 15930, Note_on_c, 0, 78, 0
2, 15930, Note_on_c, 0, 81, 95
2, 15960, Note_on_c, 0, 81, 0
2, 15960, Note_on_c, 0, 74, 95
2, 15990, Note_on_c, 0, 74, 0
2, 15990, Note_on_c, 0, 72, 95
2, 16020, Note_on_c, 0, 72, 0
2, 16020, Note_on_c, 0, 71, 95
2, 16050, Note_on_c, 0, 71, 0
2, 16050, Note_on_c, 0, 74, 95
2, 16080, Note_on_c, 0, 74, 0
2, 16080, Note_on_c, 0, 79, 95
2, 16110, Note_on_c, 0, 79, 0
2, 16110, Note_on_c, 0, 74, 95
2, 16140, Note_on_c, 0, 74, 0
2, 16140, Note_on_c, 0, 71, 95
2, 16170, Note_on_c, 0, 71, 0
2, 16170, Note_on_c, 0, 67, 95
2, 16200, Note_on_c, 0, 67, 0
2, 16200, Note_on_c, 0, 66, 95
2, 16230, Note_on_c, 0, 66, 0
2, 16230, Note_on_c, 0, 69, 95
2, 16260, Note_on_c, 0, 69, 0
2, 16260, Note_on_c, 0, 74, 95
2, 16290, Note_on_c, 0, 74, 0
2, 16290, Note_on_c, 0, 69, 95
2, 16320, Note_on_c, 0, 69, 0
2, 16320, Note_on_c, 0, 66, 95
2, 16350, Note_on_c, 0, 66, 0
2, 16350, Note_on_c, 0, 62, 95
2, 16380, Note_on_c, 0, 62, 0
2, 16380, Note_on_c, 0, 59, 95
2, 16410, Note_on_c, 0, 59, 0
2, 16410, Note_on_c, 0, 55, 95
2, 16440, Note_on_c, 0, 55, 0
2, 16440, Note_on_c, 0, 59, 95
2, 16470, Note_on_c, 0, 59, 0
2, 16470, Note_on_c, 0, 62, 95
2, 16500, Note_on_c, 0, 62, 0
2, 16500, Note_on_c, 0, 67, 95
2, 16530, Note_on_c, 0, 67, 0
2, 16530, Note_on_c, 0, 71, 95
2, 16560, Note_on_c, 0, 71, 0
2, 16560, Note_on_c, 0, 74, 95
2, 16590, Note_on_c, 0, 74, 0
2, 16590, Note_on_c, 0, 71, 95
2, 16620, Note_on_c, 0, 71, 0
2, 16620, Note_on_c, 0, 67, 95
2, 16650, Note_on_c, 0, 67, 0
2, 16650, Note_on_c, 0, 65, 95
2, 16680, Note_on_c, 0, 65, 0
2, 16680, Note_on_c, 0, 64, 95
2, 16710, Note_on_c, 0, 64, 0
2, 16710, Note_on_c, 0, 62, 95
2, 16740, Note_on_c, 0, 62, 0
2, 16740, Note_on_c, 0, 64, 95
2, 16770, Note_on_c, 0, 64, 0
2, 16770, Note_on_c, 0, 60, 95
2, 16800, Note_on_c, 0, 60, 0
2, 16800, Note_on_c, 0, 64, 95
2, 16830, Note_on_c, 0, 64, 0
2, 16830, Note_on_c, 0, 67, 95
2, 16860, Note_on_c, 0, 67, 0
2, 16860, Note_on_c, 0, 72, 95
2, 16890, Note_on_c, 0, 72, 0
2, 16890, Note_on_c, 0, 76, 95
2, 16920, Note_on_c, 0, 76, 0
2, 16920, Note_on_c, 0, 79, 95
2, 16950, Note_on_c, 0, 79, 0
2, 16950, Note_on_c, 0, 76, 95
2, 16980, Note_on_c, 0, 76, 0
2, 16980, Note_on_c, 0, 72, 95
2, 17010, Note_on_c, 0, 72, 0
2, 17010, Note_on_c, 0, 71, 95
2, 17040, Note_on_c, 0, 71, 0
2, 17040, Note_on_c, 0, 69, 95
2, 17070, Note_on_c, 0, 69, 0
2, 17070, Note_on_c, 0, 67, 95
2, 17100, Note_on_c, 0, 67, 0
2, 17100, Note_on_c, 0, 66, 95
2, 17130, Note_on_c, 0, 66, 0
2, 17130, Note_on_c, 0, 69, 95
2, 17160, Note_on_c, 0, 69, 0
2, 17160, Note_on_c, 0, 74, 95
2, 17190, Note_on_c, 0, 74, 0
2, 17190, Note_on_c, 0, 78, 95
2, 17220, Note_on_c, 0, 78, 0
2, 17220, Note_on_c, 0, 81, 95
2, 17250, Note_on_c, 0, 81, 0
2, 17250, Note_on_c, 0, 83, 95
2, 17280, Note_on_c, 0, 83, 0
2, 17280, Note_on_c, 0, 84, 95
2, 17310, Note_on_c, 0, 84, 0
2, 17310, Note_on_c, 0, 81, 95
2, 17340, Note_on_c, 0, 81, 0
2, 17340, Note_on_c, 0, 78, 95
2, 17370, Note_on_c, 0, 78, 0
2, 17370, Note_on_c, 0, 76, 95
2, 17400, Note_on_c, 0, 76, 0
2, 17400, Note_on_c, 0, 74, 95
2, 17430, Note_on_c, 0, 74, 0
2, 17430, Note_on_c, 0, 72, 95
2, 17460, Note_on_c, 0, 72, 0
2, 17460, Note_on_c, 0, 71, 95
2, 17490, Note_on_c, 0, 71, 0
2, 17490, Note_on_c, 0, 67, 95
2, 17520, Note_on_c, 0, 67, 0
2, 17520, Note_on_c, 0, 71, 95
2, 17550, Note_on_c, 0, 71, 0
2, 17550, Note_on_c, 0, 74, 95
2, 17580, Note_on_c, 0, 74, 0
2, 17580, Note_on_c, 0, 79, 95
2, 17610, Note_on_c, 0, 79, 0
2, 17610, Note_on_c, 0, 83, 95
2, 17640, Note_on_c, 0, 83, 0
2, 17640, Note_on_c, 0, 64, 95
2, 17670, Note_on_c, 0, 64, 0
2, 17670, Note_on_c, 0, 72, 95
2, 17700, Note_on_c, 0, 72, 0
2, 17700, Note_on_c, 0, 79, 95
2, 17730, Note_on_c, 0, 79, 0
2, 17730, Note_on_c, 0, 83, 95
2, 17760, Note_on_c, 0, 83, 0
2, 17760, Note_on_c, 0, 81, 95
2, 17790, Note_on_c, 0, 81, 0
2, 17790, Note_on_c, 0, 79, 95
2, 17820, Note_on_c, 0, 79, 0
2, 17820, Note_on_c, 0, 81, 95
2, 17850, Note_on_c, 0, 81, 0
2, 17850, Note_on_c, 0, 66, 95
2, 17880, Note_on_c, 0, 66, 0
2, 17880, Note_on_c, 0, 69, 95
2, 17910, Note_on_c, 0, 69, 0
2, 17910, Note_on_c, 0, 74, 95
2, 17940, Note_on_c, 0, 74, 0
2, 17940, Note_on_c, 0, 78, 95
2, 17970, Note_on_c, 0, 78, 0
2, 17970, Note_on_c, 0, 81, 95
2, 18000, Note_on_c, 0, 81, 0
2, 18000, Note_on_c, 0, 62, 95
2, 18030, Note_on_c, 0, 62, 0
2, 18030, Note_on_c, 0, 66, 95
2, 18060, Note_on_c, 0, 66, 0
2, 18060, Note_on_c, 0, 71, 95
2, 18090, Note_on_c, 0, 71, 0
2, 18090, Note_on_c, 0, 81, 95
2, 18120, Note_on_c, 0, 81, 0
2, 18120, Note_on_c, 0, 79, 95
2, 18150, Note_on_c, 0, 79, 0
2, 18150, Note_on_c, 0, 78, 95
2, 18180, Note_on_c, 0, 78, 0
2, 18180, Note_on_c, 0, 79, 95
2, 18210, Note_on_c, 0, 79, 0
2, 18210, Note_on_c, 0, 64, 95
2, 18240, Note_on_c, 0, 64, 0
2, 18240, Note_on_c, 0, 67, 95
2, 18270, Note_on_c, 0, 67, 0
2, 18270, Note_on_c, 0, 71, 95
2, 18300, Note_on_c, 0, 71, 0
2, 18300, Note_on_c, 0, 76, 95
2, 18330, Note_on_c, 0, 76, 0
2, 18330, Note_on_c, 0, 79, 95
2, 18360, Note_on_c, 0, 79, 0
2, 18360, Note_on_c, 0, 61, 95
2, 18390, Note_on_c, 0, 61, 0
2, 18390, Note_on_c, 0, 64, 95
2, 18420, Note_on_c, 0, 64, 0
2, 18420, Note_on_c, 0, 69, 95
2, 18450, Note_on_c, 0, 69, 0
2, 18450, Note_on_c, 0, 79, 95
2, 18480, Note_on_c, 0, 79, 0
2, 18480, Note_on_c, 0, 78, 95
2, 18510, Note_on_c, 0, 78, 0
2, 18510, Note_on_c, 0, 76, 95
2, 18540, Note_on_c, 0, 76, 0
2, 18540, Note_on_c, 0, 78, 95
2, 18570, Note_on_c, 0, 78, 0
2, 18570, Note_on_c, 0, 81, 95
2, 18600, Note_on_c, 0, 81, 0
2, 18600, Note_on_c, 0, 86, 95
2, 18630, Note_on_c, 0, 86, 0
2, 18630, Note_on_c, 0, 81, 95
2, 18660, Note_on_c, 0, 81, 0
2, 18660, Note_on_c, 0, 78, 95
2, 18690, Note_on_c, 0, 78, 0
2, 18690, Note_on_c, 0, 74, 95
2, 18720, Note_on_c, 0, 74, 0
2, 18720, Note_on_c, 0, 73, 95
2, 18750, Note_on_c, 0, 73, 0
2, 18750, Note_on_c, 0, 76, 95
2, 18780, Note_on_c, 0, 76, 0
2, 18780, Note_on_c, 0, 81, 95
2, 18810, Note_on_c, 0, 81, 0
2, 18810, Note_on_c, 0, 76, 95
2, 18840, Note_on_c, 0, 76, 0
2, 18840, Note_on_c, 0, 73, 95
2, 18870, Note_on_c, 0, 73, 0
2, 18870, Note_on_c, 0, 69, 95
2, 18900, Note_on_c, 0, 69, 0
2, 18900, Note_on_c, 0, 66, 95
2, 18930, Note_on_c, 0, 66, 0
2, 18930, Note_on_c, 0, 74, 95
2, 18960, Note_on_c, 0, 74, 0
2, 18960, Note_on_c, 0, 69, 95
2, 18990, Note_on_c, 0, 69, 0
2, 18990, Note_on_c, 0, 66, 95
2, 19020, Note_on_c, 0, 66, 0
2, 19020, Note_on_c, 0, 62, 95
2, 19050, Note_on_c, 0, 62, 0
2, 19050, Note_on_c, 0, 57, 95
2, 19080, Note_on_c, 0, 57, 0
2, 19080, Note_on_c, 0, 60, 95
2, 19110, Note_on_c, 0, 60, 0
2, 19110, Note_on_c, 0, 66, 95
2, 19140, Note_on_c, 0, 66, 0
2, 19140, Note_on_c, 0, 69, 95
2, 19170, Note_on_c, 0, 69, 0
2, 19170, Note_on_c, 0, 64, 95
2, 19200, Note_on_c, 0, 64, 0
2, 19200, Note_on_c, 0, 62, 95
2, 19230, Note_on_c, 0, 62, 0
2, 19230, Note_on_c, 0, 60, 95
2, 19260, Note_on_c, 0, 60, 0
2, 19260, Note_on_c, 0, 59, 95
2, 19290, Note_on_c, 0, 59, 0
2, 19290, Note_on_c, 0, 74, 95
2, 19320, Note_on_c, 0, 74, 0
2, 19320, Note_on_c, 0, 71, 95
2, 19350, Note_on_c, 0, 71, 0
2, 19350, Note_on_c, 0, 67, 95
2, 19380, Note_on_c, 0, 67, 0
2, 19380, Note_on_c, 0, 62, 95
2, 19410, Note_on_c, 0, 62, 0
2, 19410, Note_on_c, 0, 59, 95
2, 19440, Note_on_c, 0, 59, 0
2, 19440, Note_on_c, 0, 62, 95
2, 19470, Note_on_c, 0, 62, 0
2, 19470, Note_on_c, 0, 67, 95
2, 19500, Note_on_c, 0, 67, 0
2, 19500, Note_on_c, 0, 71, 95
2, 19530, Note_on_c, 0, 71, 0
2, 19530, Note_on_c, 0, 66, 95
2, 19560, Note_on_c, 0, 66, 0
2, 19560, Note_on_c, 0, 64, 95
2, 19590, Note_on_c, 0, 64, 0
2, 19590, Note_on_c, 0, 62, 95
2, 19620, Note_on_c, 0, 62, 0
2, 19620, Note_on_c, 0, 61, 95
2, 19650, Note_on_c, 0, 61, 0
2, 19650, Note_on_c, 0, 76, 95
2, 19680, Note_on_c, 0, 76, 0
2, 19680, Note_on_c, 0, 73, 95
2, 19710, Note_on_c, 0, 73, 0
2, 19710, Note_on_c, 0, 69, 95
2, 19740, Note_on_c, 0, 69, 0
2, 19740, Note_on_c, 0, 64, 95
2, 19770, Note_on_c, 0, 64, 0
2, 19770, Note_on_c, 0, 61, 95
2, 19800, Note_on_c, 0, 61, 0
2, 19800, Note_on_c, 0, 64, 95
2, 19830, Note_on_c, 0, 64, 0
2, 19830, Note_on_c, 0, 67, 95
2, 19860, Note_on_c, 0, 67, 0
2, 19860, Note_on_c, 0, 73, 95
2, 19890, Note_on_c, 0, 73, 0
2, 19890, Note_on_c, 0, 76, 95
2, 19920, Note_on_c, 0, 76, 0
2, 19920, Note_on_c, 0, 69, 95
2, 19950, Note_on_c, 0, 69, 0
2, 19950, Note_on_c, 0, 67, 95
2, 19980, Note_on_c, 0, 67, 0
2, 19980, Note_on_c, 0, 66, 95
2, 20010, Note_on_c, 0, 66, 0
2, 20010, Note_on_c, 0, 69, 95
2, 20040, Note_on_c, 0, 69, 0
2, 20040, Note_on_c, 0, 74, 95
2, 20070, Note_on_c, 0, 74, 0
2, 20070, Note_on_c, 0, 69, 95
2, 20100, Note_on_c, 0, 69, 0
2, 20100, Note_on_c, 0, 66, 95
2, 20130, Note_on_c, 0, 66, 0
2, 20130, Note_on_c, 0, 62, 95
2, 20160, Note_on_c, 0, 62, 0
2, 20160, Note_on_c, 0, 61, 95
2, 20190, Note_on_c, 0, 61, 0
2, 20190, Note_on_c, 0, 64, 95
2, 20220, Note_on_c, 0, 64, 0
2, 20220, Note_on_c, 0, 69, 95
2, 20250, Note_on_c, 0, 69, 0
2, 20250, Note_on_c, 0, 64, 95
2, 20280, Note_on_c, 0, 64, 0
2, 20280, Note_on_c, 0, 61, 95
2, 20310, Note_on_c, 0, 61, 0
2, 20310, Note_on_c, 0, 57, 95
2, 20340, Note_on_c, 0, 57, 0
2, 20340, Note_on_c, 0, 66, 95
2, 20370, Note_on_c, 0, 66, 0
2, 20370, Note_on_c, 0, 62, 95
2, 20400, Note_on_c, 0, 62, 0
2, 20400, Note_on_c, 0, 66, 95
2, 20430, Note_on_c, 0, 66, 0
2, 20430, Note_on_c, 0, 69, 95
2, 20460, Note_on_c, 0, 69, 0
2, 20460, Note_on_c, 0, 74, 95
2, 20490, Note_on_c, 0, 74, 0
2, 20490, Note_on_c, 0, 78, 95
2, 20520, Note_on_c, 0, 78, 0
2, 20520, Note_on_c, 0, 81, 95
2, 20550, Note_on_c, 0, 81, 0
2, 20550, Note_on_c, 0, 79, 95
2, 20580, Note_on_c, 0, 79, 0
2, 20580, Note_on_c, 0, 78, 95
2, 20610, Note_on_c, 0, 78, 0
2, 20610, Note_on_c, 0, 76, 95
2, 20640, Note_on_c, 0, 76, 0
2, 20640, Note_on_c, 0, 74, 95
2, 20670, Note_on_c, 0, 74, 0
2, 20670, Note_on_c, 0, 72, 95
2, 20700, Note_on_c, 0, 72, 0
2, 20700, Note_on_c, 0, 71, 95
2, 20730, Note_on_c, 0, 71, 0
2, 20730, Note_on_c, 0, 62, 95
2, 20760, Note_on_c, 0, 62, 0
2, 20760, Note_on_c, 0, 67, 95
2, 20790, Note_on_c, 0, 67, 0
2, 20790, Note_on_c, 0, 71, 95
2, 20820, Note_on_c, 0, 71, 0
2, 20820, Note_on_c, 0, 74, 95
2, 20850, Note_on_c, 0, 74, 0
2, 20850, Note_on_c, 0, 79, 95
2, 20880, Note_on_c, 0, 79, 0
2, 20880, Note_on_c, 0, 83, 95
2, 20910, Note_on_c, 0, 83, 0
2, 20910, Note_on_c, 0, 81, 95
2, 20940, Note_on_c, 0, 81, 0
2, 20940, Note_on_c, 0, 79, 95
2, 20970, Note_on_c, 0, 79, 0
2, 20970, Note_on_c, 0, 78, 95
2, 21000, Note_on_c, 0, 78, 0
2, 21000, Note_on_c, 0, 76, 95
2, 21030, Note_on_c, 0, 76, 0
2, 21030, Note_on_c, 0, 74, 95
2, 21060, Note_on_c, 0, 74, 0
2, 21060, Note_on_c, 0, 73, 95
2, 21090, Note_on_c, 0, 73, 0
2, 21090, Note_on_c, 0, 69, 95
2, 21120, Note_on_c, 0, 69, 0
2, 21120, Note_on_c, 0, 73, 95
2, 21150, Note_on_c, 0, 73, 0
2, 21150, Note_on_c, 0, 76, 95
2, 21180, Note_on_c, 0, 76, 0
2, 21180, Note_on_c, 0, 79, 95
2, 21210, Note_on_c, 0, 79, 0
2, 21210, Note_on_c, 0, 78, 95
2, 21240, Note_on_c, 0, 78, 0
2, 21240, Note_on_c, 0, 76, 95
2, 21270, Note_on_c, 0, 76, 0
2, 21270, Note_on_c, 0, 74, 95
2, 21300, Note_on_c, 0, 74, 0
2, 21300, Note_on_c, 0, 73, 95
2, 21330, Note_on_c, 0, 73, 0
2, 21330, Note_on_c, 0, 71, 95
2, 21360, Note_on_c, 0, 71, 0
2, 21360, Note_on_c, 0, 69, 95
2, 21390, Note_on_c, 0, 69, 0
2, 21390, Note_on_c, 0, 67, 95
2, 21420, Note_on_c, 0, 67, 0
2, 21420, Note_on_c, 0, 66, 95
2, 21450, Note_on_c, 0, 66, 0
2, 21450, Note_on_c, 0, 62, 95
2, 21480, Note_on_c, 0, 62, 0
2, 21480, Note_on_c, 0, 66, 95
2, 21510, Note_on_c, 0, 66, 0
2, 21510, Note_on_c, 0, 69, 95
2, 21540, Note_on_c, 0, 69, 0
2, 21540, Note_on_c, 0, 74, 95
2, 21570, Note_on_c, 0, 74, 0
2, 21570, Note_on_c, 0, 78, 95
2, 21600, Note_on_c, 0, 78, 0
2, 21600, Note_on_c, 0, 59, 95
2, 21630, Note_on_c, 0, 59, 0
2, 21630, Note_on_c, 0, 67, 95
2, 21660, Note_on_c, 0, 67, 0
2, 21660, Note_on_c, 0, 74, 95
2, 21690, Note_on_c, 0, 74, 0
2, 21690, Note_on_c, 0, 78, 95
2, 21720, Note_on_c, 0, 78, 0
2, 21720, Note_on_c, 0, 76, 95
2, 21750, Note_on_c, 0, 76, 0
2, 21750, Note_on_c, 0, 74, 95
2, 21780, Note_on_c, 0, 74, 0
2, 21780, Note_on_c, 0, 76, 95
2, 21810, Note_on_c, 0, 76, 0
2, 21810, Note_on_c, 0, 61, 95
2, 21840, Note_on_c, 0, 61, 0
2, 21840, Note_on_c, 0, 64, 95
2, 21870, Note_on_c, 0, 64, 0
2, 21870, Note_on_c, 0, 69, 95
2, 21900, Note_on_c, 0, 69, 0
2, 21900, Note_on_c, 0, 73, 95
2, 21930, Note_on_c, 0, 73, 0
2, 21930, Note_on_c, 0, 76, 95
2, 21960, Note_on_c, 0, 76, 0
2, 21960, Note_on_c, 0, 57, 95
2, 21990, Note_on_c, 0, 57, 0
2, 21990, Note_on_c, 0, 66, 95
2, 22020, Note_on_c, 0, 66, 0
2, 22020, Note_on_c, 0, 73, 95
2, 22050, Note_on_c, 0, 73, 0
2, 22050, Note_on_c, 0, 76, 95
2, 22080, Note_on_c, 0, 76, 0
2, 22080, Note_on_c, 0, 74, 95
2, 22110, Note_on_c, 0, 74, 0
2, 22110, Note_on_c, 0, 73, 95
2, 22140, Note_on_c, 0, 73, 0
2, 22140, Note_on_c, 0, 74, 95
2, 22170, Note_on_c, 0, 74, 0
2, 22170, Note_on_c, 0, 59, 95
2, 22200, Note_on_c, 0, 59, 0
2, 22200, Note_on_c, 0, 62, 95
2, 22230, Note_on_c, 0, 62, 0
2, 22230, Note_on_c, 0, 66, 95
2, 22260, Note_on_c, 0, 66, 0
2, 22260, Note_on_c, 0, 71, 95
2, 22290, Note_on_c, 0, 71, 0
2, 22290, Note_on_c, 0, 74, 95
2, 22320, Note_on_c, 0, 74, 0
2, 22320, Note_on_c, 0, 56, 95
2, 22350, Note_on_c, 0, 56, 0
2, 22350, Note_on_c, 0, 64, 95
2, 22380, Note_on_c, 0, 64, 0
2, 22380, Note_on_c, 0, 71, 95
2, 22410, Note_on_c, 0, 71, 0
2, 22410, Note_on_c, 0, 74, 95
2, 22440, Note_on_c, 0, 74, 0
2, 22440, Note_on_c, 0, 73, 95
2, 22470, Note_on_c, 0, 73, 0
2, 22470, Note_on_c, 0, 71, 95
2, 22500, Note_on_c, 0, 71, 0
2, 22500, Note_on_c, 0, 73, 95
2, 22530, Note_on_c, 0, 73, 0
2, 22530, Note_on_c, 0, 81, 95
2, 22560, Note_on_c, 0, 81, 0
2, 22560, Note_on_c, 0, 81, 95
2, 22590, Note_on_c, 0, 81, 0
2, 22590, Note_on_c, 0, 76, 95
2, 22620, Note_on_c, 0, 76, 0
2, 22620, Note_on_c, 0, 76, 95
2, 22650, Note_on_c, 0, 76, 0
2, 22650, Note_on_c, 0, 73, 95
2, 22680, Note_on_c, 0, 73, 0
2, 22680, Note_on_c, 0, 73, 95
2, 22710, Note_on_c, 0, 73, 0
2, 22710, Note_on_c, 0, 76, 95
2, 22740, Note_on_c, 0, 76, 0
2, 22740, Note_on_c, 0, 76, 95
2, 22770, Note_on_c, 0, 76, 0
2, 22770, Note_on_c, 0, 73, 95
2, 22800, Note_on_c, 0, 73, 0
2, 22800, Note_on_c, 0, 73, 95
2, 22830, Note_on_c, 0, 73, 0
2, 22830, Note_on_c, 0, 69, 95
2, 22860, Note_on_c, 0, 69, 0
2, 22860, Note_on_c, 0, 69, 95
2, 22890, Note_on_c, 0, 69, 0
2, 22890, Note_on_c, 0, 79, 95
2, 22920, Note_on_c, 0, 79, 0
2, 22920, Note_on_c, 0, 79, 95
2, 22950, Note_on_c, 0, 79, 0
2, 22950, Note_on_c, 0, 76, 95
2, 22980, Note_on_c, 0, 76, 0
2, 22980, Note_on_c, 0, 76, 95
2, 23010, Note_on_c, 0, 76, 0
2, 23010, Note_on_c, 0, 73, 95
2, 23040, Note_on_c, 0, 73, 0
2, 23040, Note_on_c, 0, 73, 95
2, 23070, Note_on_c, 0, 73, 0
2, 23070, Note_on_c, 0, 69, 95
2, 23100, Note_on_c, 0, 69, 0
2, 23100, Note_on_c, 0, 73, 95
2, 23130, Note_on_c, 0, 73, 0
2, 23130, Note_on_c, 0, 76, 95
2, 23160, Note_on_c, 0, 76, 0
2, 23160, Note_on_c, 0, 81, 95
2, 23190, Note_on_c, 0, 81, 0
2, 23190, Note_on_c, 0, 76, 95
2, 23220, Note_on_c, 0, 76, 0
2, 23220, Note_on_c, 0, 73, 95
2, 23250, Note_on_c, 0, 73, 0
2, 23250, Note_on_c, 0, 78, 95
2, 23280, Note_on_c, 0, 78, 0
2, 23280, Note_on_c, 0, 78, 95
2, 23310, Note_on_c, 0, 78, 0
2, 23310, Note_on_c, 0, 73, 95
2, 23340, Note_on_c, 0, 73, 0
2, 23340, Note_on_c, 0, 73, 95
2, 23370, Note_on_c, 0, 73, 0
2, 23370, Note_on_c, 0, 70, 95
2, 23400, Note_on_c, 0, 70, 0
2, 23400, Note_on_c, 0, 70, 95
2, 23430, Note_on_c, 0, 70, 0
2, 23430, Note_on_c, 0, 73, 95
2, 23460, Note_on_c, 0, 73, 0
2, 23460, Note_on_c, 0, 73, 95
2, 23490, Note_on_c, 0, 73, 0
2, 23490, Note_on_c, 0, 70, 95
2, 23520, Note_on_c, 0, 70, 0
2, 23520, Note_on_c, 0, 70, 95
2, 23550, Note_on_c, 0, 70, 0
2, 23550, Note_on_c, 0, 66, 95
2, 23580, Note_on_c, 0, 66, 0
2, 23580, Note_on_c, 0, 66, 95
2, 23610, Note_on_c, 0, 66, 0
2, 23610, Note_on_c, 0, 76, 95
2, 23640, Note_on_c, 0, 76, 0
2, 23640, Note_on_c, 0, 76, 95
2, 23670, Note_on_c, 0, 76, 0
2, 23670, Note_on_c, 0, 73, 95
2, 23700, Note_on_c, 0, 73, 0
2, 23700, Note_on_c, 0, 73, 95
2, 23730, Note_on_c, 0, 73, 0
2, 23730, Note_on_c, 0, 70, 95
2, 23760, Note_on_c, 0, 70, 0
2, 23760, Note_on_c, 0, 70, 95
2, 23790, Note_on_c, 0, 70, 0
2, 23790, Note_on_c, 0, 66, 95
2, 23820, Note_on_c, 0, 66, 0
2, 23820, Note_on_c, 0, 70, 95
2, 23850, Note_on_c, 0, 70, 0
2, 23850, Note_on_c, 0, 73, 95
2, 23880, Note_on_c, 0, 73, 0
2, 23880, Note_on_c, 0, 78, 95
2, 23910, Note_on_c, 0, 78, 0
2, 23910, Note_on_c, 0, 73, 95
2, 23940, Note_on_c, 0, 73, 0
2, 23940, Note_on_c, 0, 75, 95
2, 23970, Note_on_c, 0, 75, 0
2, 23970, Note_on_c, 0, 83, 95
2, 24000, Note_on_c, 0, 83, 0
2, 24000, Note_on_c, 0, 83, 95
2, 24030, Note_on_c, 0, 83, 0
2, 24030, Note_on_c, 0, 78, 95
2, 24060, Note_on_c, 0, 78, 0
2, 24060, Note_on_c, 0, 78, 95
2, 24090, Note_on_c, 0, 78, 0
2, 24090, Note_on_c, 0, 75, 95
2, 24120, Note_on_c, 0, 75, 0
2, 24120, Note_on_c, 0, 75, 95
2, 24150, Note_on_c, 0, 75, 0
2, 24150, Note_on_c, 0, 78, 95
2, 24180, Note_on_c, 0, 78, 0
2, 24180, Note_on_c, 0, 78, 95
2, 24210, Note_on_c, 0, 78, 0
2, 24210, Note_on_c, 0, 75, 95
2, 24240, Note_on_c, 0, 75, 0
2, 24240, Note_on_c, 0, 75, 95
2, 24270, Note_on_c, 0, 75, 0
2, 24270, Note_on_c, 0, 71, 95
2, 24300, Note_on_c, 0, 71, 0
2, 24300, Note_on_c, 0, 71, 95
2, 24330, Note_on_c, 0, 71, 0
2, 24330, Note_on_c, 0, 81, 95
2, 24360, Note_on_c, 0, 81, 0
2, 24360, Note_on_c, 0, 81, 95
2, 24390, Note_on_c, 0, 81, 0
2, 24390, Note_on_c, 0, 78, 95
2, 24420, Note_on_c, 0, 78, 0
2, 24420, Note_on_c, 0, 78, 95
2, 24450, Note_on_c, 0, 78, 0
2, 24450, Note_on_c, 0, 75, 95
2, 24480, Note_on_c, 0, 75, 0
2, 24480, Note_on_c, 0, 75, 95
2, 24510, Note_on_c, 0, 75, 0
2, 24510, Note_on_c, 0, 71, 95
2, 24540, Note_on_c, 0, 71, 0
2, 24540, Note_on_c, 0, 75, 95
2, 24570, Note_on_c, 0, 75, 0
2, 24570, Note_on_c, 0, 78, 95
2, 24600, Note_on_c, 0, 78, 0
2, 24600, Note_on_c, 0, 83, 95
2, 24630, Note_on_c, 0, 83, 0
2, 24630, Note_on_c, 0, 75, 95
2, 24660, Note_on_c, 0, 75, 0
2, 24660, Note_on_c, 0, 76, 95
2, 24720, Note_on_c, 0, 76, 0
2, 24840, Note_on_c, 0, 78, 95
2, 24900, Note_on_c, 0, 78, 0
2, 25020, Note_on_c, 0, 83, 95
2, 25770, Note_on_c, 0, 83, 0
2, 25770, Note_on_c, 0, 71, 95
2, 25800, Note_on_c, 0, 71, 0
2, 25800, Note_on_c, 0, 71, 95
2, 25830, Note_on_c, 0, 71, 0
2, 25830, Note_on_c, 0, 68, 95
2, 25860, Note_on_c, 0, 68, 0
2, 25860, Note_on_c, 0, 68, 95
2, 25890, Note_on_c, 0, 68, 0
2, 25890, Note_on_c, 0, 64, 95
2, 25920, Note_on_c, 0, 64, 0
2, 25920, Note_on_c, 0, 64, 95
2, 25950, Note_on_c, 0, 64, 0
2, 25950, Note_on_c, 0, 73, 95
2, 25980, Note_on_c, 0, 73, 0
2, 25980, Note_on_c, 0, 73, 95
2, 26010, Note_on_c, 0, 73, 0
2, 26010, Note_on_c, 0, 70, 95
2, 26040, Note_on_c, 0, 70, 0
2, 26040, Note_on_c, 0, 70, 95
2, 26070, Note_on_c, 0, 70, 0
2, 26070, Note_on_c, 0, 66, 95
2, 26100, Note_on_c, 0, 66, 0
2, 26100, Note_on_c, 0, 66, 95
2, 26130, Note_on_c, 0, 66, 0
2, 26130, Note_on_c, 0, 75, 95
2, 26160, Note_on_c, 0, 75, 0
2, 26160, Note_on_c, 0, 75, 95
2, 26190, Note_on_c, 0, 75, 0
2, 26190, Note_on_c, 0, 71, 95
2, 26220, Note_on_c, 0, 71, 0
2, 26220, Note_on_c, 0, 71, 95
2, 26250, Note_on_c, 0, 71, 0
2, 26250, Note_on_c, 0, 67, 95
2, 26280, Note_on_c, 0, 67, 0
2, 26280, Note_on_c, 0, 67, 95
2, 26310, Note_on_c, 0, 67, 0
2, 26310, Note_on_c, 0, 76, 95
2, 26340, Note_on_c, 0, 76, 0
2, 26340, Note_on_c, 0, 76, 95
2, 26370, Note_on_c, 0, 76, 0
2, 26370, Note_on_c, 0, 72, 95
2, 26400, Note_on_c, 0, 72, 0
2, 26400, Note_on_c, 0, 72, 95
2, 26430, Note_on_c, 0, 72, 0
2, 26430, Note_on_c, 0, 76, 95
2, 26460, Note_on_c, 0, 76, 0
2, 26460, Note_on_c, 0, 76, 95
2, 26490, Note_on_c, 0, 76, 0
2, 26490, Note_on_c, 0, 69, 95
2, 26520, Note_on_c, 0, 69, 0
2, 26520, Note_on_c, 0, 69, 95
2, 26550, Note_on_c, 0, 69, 0
2, 26550, Note_on_c, 0, 75, 95
2, 26580, Note_on_c, 0, 75, 0
2, 26580, Note_on_c, 0, 75, 95
2, 26610, Note_on_c, 0, 75, 0
2, 26610, Note_on_c, 0, 66, 95
2, 26640, Note_on_c, 0, 66, 0
2, 26640, Note_on_c, 0, 67, 95
2, 26670, Note_on_c, 0, 67, 0
2, 26670, Note_on_c, 0, 72, 95
2, 26700, Note_on_c, 0, 72, 0
2, 26700, Note_on_c, 0, 71, 95
2, 26730, Note_on_c, 0, 71, 0
2, 26730, Note_on_c, 0, 69, 95
2, 26760, Note_on_c, 0, 69, 0
2, 26760, Note_on_c, 0, 67, 95
2, 26790, Note_on_c, 0, 67, 0
2, 26790, Note_on_c, 0, 66, 95
2, 26820, Note_on_c, 0, 66, 0
2, 26820, Note_on_c, 0, 64, 95
2, 26880, Note_on_c, 0, 64, 0
2, 26880, Note_on_c, 0, 67, 95
2, 26940, Note_on_c, 0, 67, 0
2, 26940, Note_on_c, 0, 64, 95
2, 27000, Note_on_c, 0, 64, 0
2, 27000, Note_on_c, 0, 60, 95
2, 27180, Note_on_c, 0, 60, 0
2, 27180, Note_on_c, 0, 60, 95
2, 27210, Note_on_c, 0, 60, 0
2, 27210, Note_on_c, 0, 72, 95
2, 27240, Note_on_c, 0, 72, 0
2, 27240, Note_on_c, 0, 72, 95
2, 27270, Note_on_c, 0, 72, 0
2, 27270, Note_on_c, 0, 69, 95
2, 27300, Note_on_c, 0, 69, 0
2, 27300, Note_on_c, 0, 69, 95
2, 27330, Note_on_c, 0, 69, 0
2, 27330, Note_on_c, 0, 66, 95
2, 27360, Note_on_c, 0, 66, 0
2, 27360, Note_on_c, 0, 66, 95
2, 27390, Note_on_c, 0, 66, 0
2, 27390, Note_on_c, 0, 83, 95
2, 27420, Note_on_c, 0, 83, 0
2, 27420, Note_on_c, 0, 83, 95
2, 27450, Note_on_c, 0, 83, 0
2, 27450, Note_on_c, 0, 78, 95
2, 27480, Note_on_c, 0, 78, 0
2, 27480, Note_on_c, 0, 78, 95
2, 27510, Note_on_c, 0, 78, 0
2, 27510, Note_on_c, 0, 75, 95
2, 27540, Note_on_c, 0, 75, 0
2, 27540, Note_on_c, 0, 76, 95
2, 27600, Note_on_c, 0, 76, 0
2, 27630, Note_on_c, 0, 76, 95
2, 27660, Note_on_c, 0, 76, 0
2, 27660, Note_on_c, 0, 81, 95
2, 27720, Note_on_c, 0, 81, 0
2, 27750, Note_on_c, 0, 78, 95
2, 27780, Note_on_c, 0, 78, 0
2, 27780, Note_on_c, 0, 79, 95
2, 27840, Note_on_c, 0, 79, 0
2, 27870, Note_on_c, 0, 72, 95
2, 27900, Note_on_c, 0, 72, 0
2, 27900, Note_on_c, 0, 77, 95
2, 27960, Note_on_c, 0, 77, 0
2, 27990, Note_on_c, 0, 75, 95
2, 28020, Note_on_c, 0, 75, 0
2, 28020, Note_on_c, 0, 76, 95
2, 28080, Note_on_c, 0, 76, 0
2, 28110, Note_on_c, 0, 78, 95
2, 28140, Note_on_c, 0, 78, 0
2, 28140, Note_on_c, 0, 75, 95
2, 28230, Note_on_c, 0, 75, 0
2, 28230, Note_on_c, 0, 76, 95
2, 28260, Note_on_c, 0, 76, 0
2, 28260, Note_on_c, 0, 76, 95
2, 28378, Note_on_c, 0, 76, 0
2, 28500, Note_on_c, 0, 76, 82
2, 28560, Note_on_c, 0, 78, 74
2, 28567, Note_on_c, 0, 76, 0
2, 28620, Note_on_c, 0, 79, 78
2, 28624, Note_on_c, 0, 78, 0
2, 28686, Note_on_c, 0, 79, 0
2, 28860, Note_on_c, 0, 78, 66
2, 28917, Note_on_c, 0, 78, 0
2, 28920, Note_on_c, 0, 81, 76
2, 28980, Note_on_c, 0, 75, 66
2, 28985, Note_on_c, 0, 81, 0
2, 29046, Note_on_c, 0, 75, 0
2, 29220, Note_on_c, 0, 76, 68
2, 29277, Note_on_c, 0, 76, 0
2, 29280, Note_on_c, 0, 80, 80
2, 29338, Note_on_c, 0, 80, 0
2, 29340, Note_on_c, 0, 81, 68
2, 29408, Note_on_c, 0, 81, 0
2, 29580, Note_on_c, 0, 81, 70
2, 29640, Note_on_c, 0, 78, 72
2, 29643, Note_on_c, 0, 81, 0
2, 29700, Note_on_c, 0, 79, 66
2, 29701, Note_on_c, 0, 78, 0
2, 29758, Note_on_c, 0, 79, 0
2, 33300, Note_on_c, 0, 76, 110
2, 33654, Control_c, 0, 7, 64
2, 33675, Note_on_c, 0, 81, 120
2, 33688, Note_on_c, 0, 76, 0
2, 33690, Note_on_c, 0, 80, 105
2, 33699, Note_on_c, 0, 81, 0
2, 33705, Note_on_c, 0, 78, 120
2, 33713, Note_on_c, 0, 80, 0
2, 33720, Note_on_c, 0, 76, 127
2, 33722, Note_on_c, 0, 78, 0
2, 33735, Note_on_c, 0, 81, 123
2, 33740, Note_on_c, 0, 76, 0
2, 33750, Note_on_c, 0, 80, 127
2, 33754, Note_on_c, 0, 81, 0
2, 33765, Note_on_c, 0, 78, 120
2, 33771, Note_on_c, 0, 80, 0
2, 33780, Note_on_c, 0, 76, 127
2, 33781, Note_on_c, 0, 78, 0
2, 33793, Note_on_c, 0, 76, 0
2, 33795, Note_on_c, 0, 74, 120
2, 33807, Note_on_c, 0, 74, 0
2, 33810, Note_on_c, 0, 72, 127
2, 33825, Note_on_c, 0, 72, 0
2, 33825, Note_on_c, 0, 71, 127
2, 33836, Note_on_c, 0, 71, 0
2, 33840, Note_on_c, 0, 69, 117
2, 33855, Note_on_c, 0, 71, 127
2, 33860, Note_on_c, 0, 69, 0
2, 33870, Note_on_c, 0, 71, 0
2, 33870, Note_on_c, 0, 72, 127
2, 33879, Note_on_c, 0, 72, 0
2, 33885, Note_on_c, 0, 74, 127
2, 33900, Note_on_c, 0, 76, 127
2, 33904, Note_on_c, 0, 74, 0
2, 33915, Note_on_c, 0, 78, 127
2, 33923, Note_on_c, 0, 76, 0
2, 33930, Note_on_c, 0, 80, 127
2, 33937, Note_on_c, 0, 78, 0
2, 33944, Note_on_c, 0, 80, 0
2, 33945, Note_on_c, 0, 76, 123
2, 33960, Note_on_c, 0, 81, 127
2, 33967, Note_on_c, 0, 76, 0
2, 33975, Note_on_c, 0, 79, 127
2, 33981, Note_on_c, 0, 81, 0
2, 33990, Note_on_c, 0, 77, 127
2, 33994, Note_on_c, 0, 79, 0
2, 34005, Note_on_c, 0, 76, 127
2, 34006, Note_on_c, 0, 77, 0
2, 34020, Note_on_c, 0, 77, 127
2, 34022, Note_on_c, 0, 76, 0
2, 34035, Note_on_c, 0, 76, 120
2, 34042, Note_on_c, 0, 77, 0
2, 34050, Note_on_c, 0, 74, 127
2, 34051, Note_on_c, 0, 76, 0
2, 34065, Note_on_c, 0, 72, 127
2, 34067, Note_on_c, 0, 74, 0
2, 34080, Note_on_c, 0, 72, 0
2, 34080, Note_on_c, 0, 76, 127
2, 34095, Note_on_c, 0, 74, 127
2, 34102, Note_on_c, 0, 76, 0
2, 34110, Note_on_c, 0, 72, 127
2, 34111, Note_on_c, 0, 74, 0
2, 34125, Note_on_c, 0, 71, 120
2, 34128, Note_on_c, 0, 72, 0
2, 34140, Note_on_c, 0, 74, 127
2, 34141, Note_on_c, 0, 71, 0
2, 34155, Note_on_c, 0, 72, 127
2, 34164, Note_on_c, 0, 74, 0
2, 34170, Note_on_c, 0, 71, 127
2, 34173, Note_on_c, 0, 72, 0
2, 34185, Note_on_c, 0, 69, 127
2, 34188, Note_on_c, 0, 71, 0
2, 34200, Note_on_c, 0, 68, 123
2, 34204, Note_on_c, 0, 69, 0
2, 34215, Note_on_c, 0, 69, 117
2, 34218, Note_on_c, 0, 68, 0
2, 34230, Note_on_c, 0, 71, 117
2, 34232, Note_on_c, 0, 69, 0
2, 34245, Note_on_c, 0, 72, 127
2, 34248, Note_on_c, 0, 71, 0
2, 34260, Note_on_c, 0, 74, 127
2, 34261, Note_on_c, 0, 72, 0
2, 34275, Note_on_c, 0, 72, 127
2, 34278, Note_on_c, 0, 74, 0
2, 34290, Note_on_c, 0, 71, 127
2, 34294, Note_on_c, 0, 72, 0
2, 34303, Note_on_c, 0, 71, 0
2, 34305, Note_on_c, 0, 69, 127
2, 34320, Note_on_c, 0, 69, 0
2, 34320, Note_on_c, 0, 68, 127
2, 34335, Note_on_c, 0, 66, 94
2, 34336, Note_on_c, 0, 68, 0
2, 34350, Note_on_c, 0, 64, 123
2, 34353, Note_on_c, 0, 66, 0
2, 34365, Note_on_c, 0, 62, 127
2, 34368, Note_on_c, 0, 64, 0
2, 34379, Note_on_c, 0, 62, 0
2, 34380, Note_on_c, 0, 60, 127
2, 34395, Note_on_c, 0, 60, 0
2, 34395, Note_on_c, 0, 57, 127
2, 34410, Note_on_c, 0, 59, 127
2, 34416, Note_on_c, 0, 57, 0
2, 34425, Note_on_c, 0, 60, 127
2, 34430, Note_on_c, 0, 59, 0
2, 34435, Note_on_c, 0, 60, 0
2, 34440, Note_on_c, 0, 62, 127
2, 34455, Note_on_c, 0, 64, 127
2, 34459, Note_on_c, 0, 62, 0
2, 34470, Note_on_c, 0, 66, 120
2, 34477, Note_on_c, 0, 64, 0
2, 34485, Note_on_c, 0, 68, 127
2, 34490, Note_on_c, 0, 66, 0
2, 34496, Note_on_c, 0, 68, 0
2, 34500, Note_on_c, 0, 69, 127
2, 34500, Note_on_c, 0, 67, 85
2, 34511, Note_on_c, 0, 67, 0
2, 34515, Note_on_c, 0, 71, 123
2, 34530, Note_on_c, 0, 72, 102
2, 34533, Note_on_c, 0, 71, 0
2, 34535, Note_on_c, 0, 69, 0
2, 34542, Note_on_c, 0, 72, 0
2, 34545, Note_on_c, 0, 69, 120
2, 34557, Note_on_c, 0, 69, 0
2, 34560, Note_on_c, 0, 68, 127
2, 34575, Note_on_c, 0, 64, 127
2, 34576, Note_on_c, 0, 68, 0
2, 34590, Note_on_c, 0, 66, 127
2, 34592, Note_on_c, 0, 64, 0
2, 34605, Note_on_c, 0, 68, 127
2, 34607, Note_on_c, 0, 66, 0
2, 34618, Note_on_c, 0, 68, 0
2, 34620, Note_on_c, 0, 69, 127
2, 34635, Note_on_c, 0, 71, 114
2, 34637, Note_on_c, 0, 69, 0
2, 34650, Note_on_c, 0, 72, 91
2, 34653, Note_on_c, 0, 71, 0
2, 34663, Note_on_c, 0, 72, 0
2, 34665, Note_on_c, 0, 74, 123
2, 34680, Note_on_c, 0, 76, 127
2, 34681, Note_on_c, 0, 74, 0
2, 34695, Note_on_c, 0, 74, 127
2, 34697, Note_on_c, 0, 76, 0
2, 34710, Note_on_c, 0, 72, 99
2, 34719, Note_on_c, 0, 74, 0
2, 34725, Note_on_c, 0, 72, 0
2, 34725, Note_on_c, 0, 71, 127
2, 34740, Note_on_c, 0, 72, 127
2, 34746, Note_on_c, 0, 71, 0
2, 34755, Note_on_c, 0, 72, 0
2, 34755, Note_on_c, 0, 69, 127
2, 34770, Note_on_c, 0, 71, 127
2, 34771, Note_on_c, 0, 69, 0
2, 34783, Note_on_c, 0, 71, 0
2, 34785, Note_on_c, 0, 72, 127
2, 34796, Note_on_c, 0, 72, 0
2, 34800, Note_on_c, 0, 74, 127
2, 34815, Note_on_c, 0, 76, 117
2, 34818, Note_on_c, 0, 74, 0
2, 34830, Note_on_c, 0, 78, 127
2, 34832, Note_on_c, 0, 76, 0
2, 34845, Note_on_c, 0, 80, 127
2, 34851, Note_on_c, 0, 78, 0
2, 34860, Note_on_c, 0, 81, 123
2, 34866, Note_on_c, 0, 80, 0
2, 34875, Note_on_c, 0, 76, 127
2, 34879, Note_on_c, 0, 81, 0
2, 34890, Note_on_c, 0, 78, 127
2, 34901, Note_on_c, 0, 76, 0
2, 34905, Note_on_c, 0, 80, 127
2, 34912, Note_on_c, 0, 78, 0
2, 34916, Note_on_c, 0, 80, 0
2, 34920, Note_on_c, 0, 81, 127
2, 34935, Note_on_c, 0, 83, 127
2, 34939, Note_on_c, 0, 81, 0
2, 34950, Note_on_c, 0, 84, 127
2, 34951, Note_on_c, 0, 83, 0
2, 34965, Note_on_c, 0, 86, 127
2, 34966, Note_on_c, 0, 84, 0
2, 34980, Note_on_c, 0, 88, 127
2, 34981, Note_on_c, 0, 86, 0
2, 34995, Note_on_c, 0, 86, 127
2, 35000, Note_on_c, 0, 88, 0
2, 35010, Note_on_c, 0, 84, 127
2, 35015, Note_on_c, 0, 86, 0
2, 35025, Note_on_c, 0, 83, 127
2, 35026, Note_on_c, 0, 84, 0
2, 35040, Note_on_c, 0, 81, 127
2, 35041, Note_on_c, 0, 83, 0
2, 35055, Note_on_c, 0, 79, 127
2, 35056, Note_on_c, 0, 81, 0
2, 35069, Note_on_c, 0, 79, 0
2, 35070, Note_on_c, 0, 77, 127
2, 35085, Note_on_c, 0, 77, 0
2, 35085, Note_on_c, 0, 76, 105
2, 35099, Note_on_c, 0, 76, 0
2, 35100, Note_on_c, 0, 77, 127
2, 35115, Note_on_c, 0, 76, 123
2, 35116, Note_on_c, 0, 77, 0
2, 35129, Note_on_c, 0, 76, 0
2, 35130, Note_on_c, 0, 74, 111
2, 35145, Note_on_c, 0, 76, 127
2, 35148, Note_on_c, 0, 74, 0
2, 35160, Note_on_c, 0, 77, 127
2, 35165, Note_on_c, 0, 76, 0
2, 35175, Note_on_c, 0, 79, 127
2, 35176, Note_on_c, 0, 77, 0
2, 35190, Note_on_c, 0, 79, 0
2, 35190, Note_on_c, 0, 81, 127
2, 35205, Note_on_c, 0, 79, 123
2, 35210, Note_on_c, 0, 81, 0
2, 35220, Note_on_c, 0, 77, 127
2, 35223, Note_on_c, 0, 79, 0
2, 35235, Note_on_c, 0, 76, 127
2, 35236, Note_on_c, 0, 77, 0
2, 35250, Note_on_c, 0, 74, 108
2, 35251, Note_on_c, 0, 76, 0
2, 35265, Note_on_c, 0, 74, 0
2, 35265, Note_on_c, 0, 72, 127
2, 35280, Note_on_c, 0, 71, 127
2, 35284, Note_on_c, 0, 72, 0
2, 35295, Note_on_c, 0, 72, 127
2, 35301, Note_on_c, 0, 71, 0
2, 35310, Note_on_c, 0, 74, 127
2, 35312, Note_on_c, 0, 72, 0
2, 35325, Note_on_c, 0, 72, 127
2, 35330, Note_on_c, 0, 74, 0
2, 35340, Note_on_c, 0, 71, 127
2, 35343, Note_on_c, 0, 72, 0
2, 35355, Note_on_c, 0, 71, 0
2, 35355, Note_on_c, 0, 69, 127
2, 35370, Note_on_c, 0, 69, 0
2, 35370, Note_on_c, 0, 68, 114
2, 35385, Note_on_c, 0, 66, 96
2, 35390, Note_on_c, 0, 68, 0
2, 35400, Note_on_c, 0, 64, 123
2, 35404, Note_on_c, 0, 66, 0
2, 35412, Note_on_c, 0, 64, 0
2, 35415, Note_on_c, 0, 62, 111
2, 35430, Note_on_c, 0, 60, 120
2, 35441, Note_on_c, 0, 62, 0
2, 35445, Note_on_c, 0, 60, 0
2, 35445, Note_on_c, 0, 59, 127
2, 35460, Note_on_c, 0, 57, 127
2, 35461, Note_on_c, 0, 59, 0
2, 35475, Note_on_c, 0, 60, 127
2, 35480, Note_on_c, 0, 57, 0
2, 35490, Note_on_c, 0, 60, 0
2, 35490, Note_on_c, 0, 59, 127
2, 35504, Note_on_c, 0, 59, 0
2, 35505, Note_on_c, 0, 57, 123
2, 35515, Note_on_c, 0, 57, 0
2, 35520, Note_on_c, 0, 64, 127
2, 35535, Note_on_c, 0, 62, 127
2, 35538, Note_on_c, 0, 64, 0
2, 35550, Note_on_c, 0, 60, 114
2, 35556, Note_on_c, 0, 62, 0
2, 35564, Note_on_c, 0, 60, 0
2, 35565, Note_on_c, 0, 59, 127
2, 35580, Note_on_c, 0, 57, 127
2, 35581, Note_on_c, 0, 59, 0
2, 35595, Note_on_c, 0, 59, 127
2, 35598, Note_on_c, 0, 57, 0
2, 35610, Note_on_c, 0, 60, 127
2, 35616, Note_on_c, 0, 59, 0
2, 35625, Note_on_c, 0, 62, 127
2, 35629, Note_on_c, 0, 60, 0
2, 35634, Note_on_c, 0, 62, 0
2, 35640, Note_on_c, 0, 64, 127
2, 35655, Note_on_c, 0, 66, 127
2, 35665, Note_on_c, 0, 64, 0
2, 35670, Note_on_c, 0, 68, 127
2, 35678, Note_on_c, 0, 66, 0
2, 35684, Note_on_c, 0, 68, 0
2, 35685, Note_on_c, 0, 64, 102
2, 35699, Note_on_c, 0, 64, 0
2, 35700, Note_on_c, 0, 69, 127
2, 35715, Note_on_c, 0, 71, 127
2, 35717, Note_on_c, 0, 69, 0
2, 35730, Note_on_c, 0, 72, 127
2, 35732, Note_on_c, 0, 71, 0
2, 35745, Note_on_c, 0, 71, 127
2, 35748, Note_on_c, 0, 72, 0
2, 35760, Note_on_c, 0, 69, 127
2, 35761, Note_on_c, 0, 71, 0
2, 35775, Note_on_c, 0, 67, 127
2, 35776, Note_on_c, 0, 69, 0
2, 35787, Note_on_c, 0, 67, 0
2, 35790, Note_on_c, 0, 65, 127
2, 35805, Note_on_c, 0, 64, 127
2, 35806, Note_on_c, 0, 65, 0
2, 35820, Note_on_c, 0, 62, 127
2, 35821, Note_on_c, 0, 64, 0
2, 35835, Note_on_c, 0, 65, 127
2, 35837, Note_on_c, 0, 62, 0
2, 35849, Note_on_c, 0, 65, 0
2, 35850, Note_on_c, 0, 64, 127
2, 35865, Note_on_c, 0, 64, 0
2, 35865, Note_on_c, 0, 62, 111
2, 35878, Note_on_c, 0, 62, 0
2, 35880, Note_on_c, 0, 69, 127
2, 35895, Note_on_c, 0, 67, 127
2, 35899, Note_on_c, 0, 69, 0
2, 35910, Note_on_c, 0, 65, 127
2, 35917, Note_on_c, 0, 67, 0
2, 35925, Note_on_c, 0, 65, 0
2, 35925, Note_on_c, 0, 64, 127
2, 35940, Note_on_c, 0, 62, 127
2, 35942, Note_on_c, 0, 64, 0
2, 35955, Note_on_c, 0, 64, 127
2, 35958, Note_on_c, 0, 62, 0
2, 35970, Note_on_c, 0, 65, 127
2, 35977, Note_on_c, 0, 64, 0
2, 35982, Note_on_c, 0, 65, 0
2, 35985, Note_on_c, 0, 67, 127
2, 36000, Note_on_c, 0, 69, 111
2, 36002, Note_on_c, 0, 67, 0
2, 36015, Note_on_c, 0, 71, 127
2, 36020, Note_on_c, 0, 69, 0
2, 36030, Note_on_c, 0, 73, 127
2, 36039, Note_on_c, 0, 71, 0
2, 36042, Note_on_c, 0, 73, 0
2, 36045, Note_on_c, 0, 69, 90
2, 36059, Note_on_c, 0, 69, 0
2, 36060, Note_on_c, 0, 74, 127
2, 36075, Note_on_c, 0, 74, 0
2, 36075, Note_on_c, 0, 76, 120
2, 36088, Note_on_c, 0, 76, 0
2, 36090, Note_on_c, 0, 77, 127
2, 36105, Note_on_c, 0, 76, 127
2, 36109, Note_on_c, 0, 77, 0
2, 36120, Note_on_c, 0, 74, 127
2, 36127, Note_on_c, 0, 76, 0
2, 36135, Note_on_c, 0, 72, 127
2, 36137, Note_on_c, 0, 74, 0
2, 36150, Note_on_c, 0, 72, 0
2, 36150, Note_on_c, 0, 71, 120
2, 36162, Note_on_c, 0, 71, 0
2, 36165, Note_on_c, 0, 69, 127
2, 36178, Note_on_c, 0, 69, 0
2, 36180, Note_on_c, 0, 55, 127
2, 36194, Note_on_c, 0, 55, 0
2, 36195, Note_on_c, 0, 59, 127
2, 36209, Note_on_c, 0, 59, 0
2, 36210, Note_on_c, 0, 57, 127
2, 36224, Note_on_c, 0, 57, 0
2, 36225, Note_on_c, 0, 55, 105
2, 36239, Note_on_c, 0, 55, 0
2, 36240, Note_on_c, 0, 62, 127
2, 36254, Note_on_c, 0, 62, 0
2, 36255, Note_on_c, 0, 60, 127
2, 36269, Note_on_c, 0, 60, 0
2, 36270, Note_on_c, 0, 59, 127
2, 36284, Note_on_c, 0, 59, 0
2, 36285, Note_on_c, 0, 57, 127
2, 36299, Note_on_c, 0, 57, 0
2, 36300, Note_on_c, 0, 55, 127
2, 36314, Note_on_c, 0, 55, 0
2, 36315, Note_on_c, 0, 57, 127
2, 36329, Note_on_c, 0, 57, 0
2, 36330, Note_on_c, 0, 59, 127
2, 36344, Note_on_c, 0, 59, 0
2, 36345, Note_on_c, 0, 60, 120
2, 36359, Note_on_c, 0, 60, 0
2, 36360, Note_on_c, 0, 62, 127
2, 36374, Note_on_c, 0, 62, 0
2, 36375, Note_on_c, 0, 64, 127
2, 36389, Note_on_c, 0, 64, 0
2, 36390, Note_on_c, 0, 65, 127
2, 36404, Note_on_c, 0, 65, 0
2, 36405, Note_on_c, 0, 62, 123
2, 36419, Note_on_c, 0, 62, 0
2, 36420, Note_on_c, 0, 67, 127
2, 36434, Note_on_c, 0, 67, 0
2, 36435, Note_on_c, 0, 69, 127
2, 36449, Note_on_c, 0, 69, 0
2, 36450, Note_on_c, 0, 71, 127
2, 36464, Note_on_c, 0, 71, 0
2, 36465, Note_on_c, 0, 69, 127
2, 36479, Note_on_c, 0, 69, 0
2, 36480, Note_on_c, 0, 67, 127
2, 36494, Note_on_c, 0, 67, 0
2, 36495, Note_on_c, 0, 65, 127
2, 36509, Note_on_c, 0, 65, 0
2, 36510, Note_on_c, 0, 64, 108
2, 36524, Note_on_c, 0, 64, 0
2, 36525, Note_on_c, 0, 62, 127
2, 36539, Note_on_c, 0, 62, 0
2, 36540, Note_on_c, 0, 60, 127
2, 36554, Note_on_c, 0, 60, 0
2, 36555, Note_on_c, 0, 64, 127
2, 36569, Note_on_c, 0, 64, 0
2, 36570, Note_on_c, 0, 62, 127
2, 36584, Note_on_c, 0, 62, 0
2, 36585, Note_on_c, 0, 60, 114
2, 36599, Note_on_c, 0, 60, 0
2, 36600, Note_on_c, 0, 67, 127
2, 36614, Note_on_c, 0, 67, 0
2, 36615, Note_on_c, 0, 65, 127
2, 36629, Note_on_c, 0, 65, 0
2, 36630, Note_on_c, 0, 64, 127
2, 36644, Note_on_c, 0, 64, 0
2, 36645, Note_on_c, 0, 62, 127
2, 36659, Note_on_c, 0, 62, 0
2, 36660, Note_on_c, 0, 60, 120
2, 36674, Note_on_c, 0, 60, 0
2, 36675, Note_on_c, 0, 62, 127
2, 36689, Note_on_c, 0, 62, 0
2, 36690, Note_on_c, 0, 64, 127
2, 36704, Note_on_c, 0, 64, 0
2, 36705, Note_on_c, 0, 65, 127
2, 36719, Note_on_c, 0, 65, 0
2, 36720, Note_on_c, 0, 67, 127
2, 36734, Note_on_c, 0, 67, 0
2, 36735, Note_on_c, 0, 69, 127
2, 36749, Note_on_c, 0, 69, 0
2, 36750, Note_on_c, 0, 71, 127
2, 36764, Note_on_c, 0, 71, 0
2, 36765, Note_on_c, 0, 67, 90
2, 36779, Note_on_c, 0, 67, 0
2, 36780, Note_on_c, 0, 72, 120
2, 36794, Note_on_c, 0, 72, 0
2, 36795, Note_on_c, 0, 74, 127
2, 36809, Note_on_c, 0, 74, 0
2, 36810, Note_on_c, 0, 76, 127
2, 36824, Note_on_c, 0, 76, 0
2, 36825, Note_on_c, 0, 74, 127
2, 36839, Note_on_c, 0, 74, 0
2, 36840, Note_on_c, 0, 72, 127
2, 36854, Note_on_c, 0, 72, 0
2, 36855, Note_on_c, 0, 71, 127
2, 36869, Note_on_c, 0, 71, 0
2, 36870, Note_on_c, 0, 69, 127
2, 36884, Note_on_c, 0, 69, 0
2, 36885, Note_on_c, 0, 67, 127
2, 36899, Note_on_c, 0, 67, 0
2, 36900, Note_on_c, 0, 65, 127
2, 36914, Note_on_c, 0, 65, 0
2, 36915, Note_on_c, 0, 69, 123
2, 36929, Note_on_c, 0, 69, 0
2, 36930, Note_on_c, 0, 71, 127
2, 36945, Note_on_c, 0, 72, 127
2, 36959, Note_on_c, 0, 72, 0
2, 36959, Note_on_c, 0, 71, 0
2, 36960, Note_on_c, 0, 74, 127
2, 36974, Note_on_c, 0, 74, 0
2, 36975, Note_on_c, 0, 76, 127
2, 36989, Note_on_c, 0, 76, 0
2, 36990, Note_on_c, 0, 77, 127
2, 37004, Note_on_c, 0, 77, 0
2, 37005, Note_on_c, 0, 76, 127
2, 37019, Note_on_c, 0, 76, 0
2, 37020, Note_on_c, 0, 74, 117
2, 37034, Note_on_c, 0, 74, 0
2, 37035, Note_on_c, 0, 72, 127
2, 37049, Note_on_c, 0, 72, 0
2, 37050, Note_on_c, 0, 71, 127
2, 37064, Note_on_c, 0, 71, 0
2, 37065, Note_on_c, 0, 69, 127
2, 37079, Note_on_c, 0, 69, 0
2, 37080, Note_on_c, 0, 67, 127
2, 37094, Note_on_c, 0, 67, 0
2, 37095, Note_on_c, 0, 71, 108
2, 37109, Note_on_c, 0, 71, 0
2, 37110, Note_on_c, 0, 72, 127
2, 37124, Note_on_c, 0, 72, 0
2, 37125, Note_on_c, 0, 74, 127
2, 37139, Note_on_c, 0, 74, 0
2, 37140, Note_on_c, 0, 76, 127
2, 37154, Note_on_c, 0, 76, 0
2, 37155, Note_on_c, 0, 77, 127
2, 37169, Note_on_c, 0, 77, 0
2, 37170, Note_on_c, 0, 79, 127
2, 37184, Note_on_c, 0, 79, 0
2, 37185, Note_on_c, 0, 77, 127
2, 37199, Note_on_c, 0, 77, 0
2, 37200, Note_on_c, 0, 76, 127
2, 37214, Note_on_c, 0, 76, 0
2, 37215, Note_on_c, 0, 74, 127
2, 37229, Note_on_c, 0, 74, 0
2, 37230, Note_on_c, 0, 72, 114
2, 37244, Note_on_c, 0, 72, 0
2, 37245, Note_on_c, 0, 71, 127
2, 37259, Note_on_c, 0, 71, 0
2, 37260, Note_on_c, 0, 69, 127
2, 37274, Note_on_c, 0, 69, 0
2, 37275, Note_on_c, 0, 72, 127
2, 37289, Note_on_c, 0, 72, 0
2, 37290, Note_on_c, 0, 74, 127
2, 37304, Note_on_c, 0, 74, 0
2, 37305, Note_on_c, 0, 76, 127
2, 37319, Note_on_c, 0, 76, 0
2, 37320, Note_on_c, 0, 77, 127
2, 37334, Note_on_c, 0, 77, 0
2, 37335, Note_on_c, 0, 79, 127
2, 37349, Note_on_c, 0, 79, 0
2, 37350, Note_on_c, 0, 81, 127
2, 37364, Note_on_c, 0, 81, 0
2, 37365, Note_on_c, 0, 79, 127
2, 37379, Note_on_c, 0, 79, 0
2, 37380, Note_on_c, 0, 77, 127
2, 37395, Note_on_c, 0, 76, 127
2, 37409, Note_on_c, 0, 76, 0
2, 37409, Note_on_c, 0, 77, 0
2, 37410, Note_on_c, 0, 74, 127
2, 37424, Note_on_c, 0, 74, 0
2, 37425, Note_on_c, 0, 72, 127
2, 37439, Note_on_c, 0, 72, 0
2, 37440, Note_on_c, 0, 71, 127
2, 37440, Note_on_c, 0, 71, 102
2, 37454, Note_on_c, 0, 71, 0
2, 37454, Note_on_c, 0, 71, 0
2, 37455, Note_on_c, 0, 74, 99
2, 37469, Note_on_c, 0, 74, 0
2, 37470, Note_on_c, 0, 76, 127
2, 37484, Note_on_c, 0, 76, 0
2, 37485, Note_on_c, 0, 77, 108
2, 37499, Note_on_c, 0, 77, 0
2, 37500, Note_on_c, 0, 79, 123
2, 37514, Note_on_c, 0, 79, 0
2, 37515, Note_on_c, 0, 81, 117
2, 37529, Note_on_c, 0, 81, 0
2, 37530, Note_on_c, 0, 83, 127
2, 37544, Note_on_c, 0, 83, 0
2, 37545, Note_on_c, 0, 81, 127
2, 37559, Note_on_c, 0, 81, 0
2, 37560, Note_on_c, 0, 79, 127
2, 37574, Note_on_c, 0, 79, 0
2, 37575, Note_on_c, 0, 77, 127
2, 37589, Note_on_c, 0, 77, 0
2, 37590, Note_on_c, 0, 76, 120
2, 37604, Note_on_c, 0, 76, 0
2, 37605, Note_on_c, 0, 74, 127
2, 37619, Note_on_c, 0, 74, 0
2, 37620, Note_on_c, 0, 72, 127
2, 37675, Note_on_c, 0, 72, 0
2, 37800, Note_on_c, 0, 74, 82
2, 37859, Note_on_c, 0, 74, 0
2, 37980, Note_on_c, 0, 76, 87
2, 38033, Note_on_c, 0, 76, 0
2, 38700, Note_on_c, 0, 64, 80
2, 38700, Note_on_c, 0, 72, 87
2, 38700, Note_on_c, 0, 55, 85
2, 38755, Note_on_c, 0, 64, 0
2, 38756, Note_on_c, 0, 72, 0
2, 38758, Note_on_c, 0, 55, 0
2, 38880, Note_on_c, 0, 67, 82
2, 38880, Note_on_c, 0, 74, 98
2, 38880, Note_on_c, 0, 59, 98
2, 38927, Note_on_c, 0, 67, 0
2, 38928, Note_on_c, 0, 59, 0
2, 38929, Note_on_c, 0, 74, 0
2, 39060, Note_on_c, 0, 76, 91
2, 39060, Note_on_c, 0, 60, 64
2, 39060, Note_on_c, 0, 67, 76
2, 39106, Note_on_c, 0, 76, 0
2, 39107, Note_on_c, 0, 60, 0
2, 39111, Note_on_c, 0, 67, 0
2, 39120, Note_on_c, 0, 65, 91
2, 39120, Note_on_c, 0, 74, 91
2, 39163, Note_on_c, 0, 74, 0
2, 39165, Note_on_c, 0, 65, 0
2, 39180, Note_on_c, 0, 64, 93
2, 39180, Note_on_c, 0, 72, 93
2, 39246, Note_on_c, 0, 72, 0
2, 39246, Note_on_c, 0, 64, 0
2, 39300, Note_on_c, 0, 64, 85
2, 39300, Note_on_c, 0, 72, 89
2, 39321, Note_on_c, 0, 72, 0
2, 39328, Note_on_c, 0, 64, 0
2, 39330, Note_on_c, 0, 65, 102
2, 39330, Note_on_c, 0, 74, 93
2, 39347, Note_on_c, 0, 74, 0
2, 39355, Note_on_c, 0, 65, 0
2, 39360, Note_on_c, 0, 67, 85
2, 39360, Note_on_c, 0, 76, 91
2, 39402, Note_on_c, 0, 67, 0
2, 39403, Note_on_c, 0, 76, 0
2, 39420, Note_on_c, 0, 74, 80
2, 39420, Note_on_c, 0, 65, 66
2, 39473, Note_on_c, 0, 74, 0
2, 39476, Note_on_c, 0, 65, 0
2, 39480, Note_on_c, 0, 64, 91
2, 39480, Note_on_c, 0, 72, 95
2, 39528, Note_on_c, 0, 72, 0
2, 39530, Note_on_c, 0, 64, 0
2, 39540, Note_on_c, 0, 62, 85
2, 39540, Note_on_c, 0, 71, 87
2, 39606, Note_on_c, 0, 71, 0
2, 39607, Note_on_c, 0, 62, 0
2, 39660, Note_on_c, 0, 62, 82
2, 39660, Note_on_c, 0, 71, 98
2, 39681, Note_on_c, 0, 71, 0
2, 39685, Note_on_c, 0, 62, 0
2, 39690, Note_on_c, 0, 64, 87
2, 39690, Note_on_c, 0, 72, 89
2, 39707, Note_on_c, 0, 72, 0
2, 39718, Note_on_c, 0, 64, 0
2, 39720, Note_on_c, 0, 74, 89
2, 39720, Note_on_c, 0, 65, 70
2, 39770, Note_on_c, 0, 74, 0
2, 39771, Note_on_c, 0, 65, 0
2, 39780, Note_on_c, 0, 72, 87
2, 39780, Note_on_c, 0, 64, 91
2, 39823, Note_on_c, 0, 64, 0
2, 39823, Note_on_c, 0, 72, 0
2, 39840, Note_on_c, 0, 55, 85
2, 39840, Note_on_c, 0, 64, 93
2, 39885, Note_on_c, 0, 64, 0
2, 39889, Note_on_c, 0, 55, 0
2, 39900, Note_on_c, 0, 67, 93
2, 39900, Note_on_c, 0, 58, 102
2, 39984, Note_on_c, 0, 67, 0
2, 39990, Note_on_c, 0, 58, 0
2, 40020, Note_on_c, 0, 65, 85
2, 40020, Note_on_c, 0, 57, 70
2, 40062, Note_on_c, 0, 65, 0
2, 40063, Note_on_c, 0, 57, 0
2, 40080, Note_on_c, 0, 69, 87
2, 40080, Note_on_c, 0, 60, 85
2, 40172, Note_on_c, 0, 69, 0
2, 40191, Note_on_c, 0, 60, 0
2, 40200, Note_on_c, 0, 67, 87
2, 40200, Note_on_c, 0, 59, 82
2, 40242, Note_on_c, 0, 67, 0
2, 40246, Note_on_c, 0, 59, 0
2, 40260, Note_on_c, 0, 71, 89
2, 40260, Note_on_c, 0, 62, 91
2, 40365, Note_on_c, 0, 71, 0
2, 40367, Note_on_c, 0, 62, 0
2, 40380, Note_on_c, 0, 69, 89
2, 40380, Note_on_c, 0, 60, 78
2, 40427, Note_on_c, 0, 69, 0
2, 40429, Note_on_c, 0, 60, 0
2, 40440, Note_on_c, 0, 72, 100
2, 40440, Note_on_c, 0, 64, 80
2, 40549, Note_on_c, 0, 64, 0
2, 40549, Note_on_c, 0, 72, 0
2, 40560, Note_on_c, 0, 71, 93
2, 40560, Note_on_c, 0, 62, 93
2, 40605, Note_on_c, 0, 71, 0
2, 40606, Note_on_c, 0, 62, 0
2, 40620, Note_on_c, 0, 65, 95
2, 40620, Note_on_c, 0, 74, 100
2, 40740, Note_on_c, 0, 64, 82
2, 40740, Note_on_c, 0, 72, 100
2, 40743, Note_on_c, 0, 74, 0
2, 40746, Note_on_c, 0, 65, 0
2, 40782, Note_on_c, 0, 72, 0
2, 40785, Note_on_c, 0, 64, 0
2, 40800, Note_on_c, 0, 67, 100
2, 40800, Note_on_c, 0, 76, 100
2, 40917, Note_on_c, 0, 67, 0
2, 40919, Note_on_c, 0, 76, 0
2, 40920, Note_on_c, 0, 76, 93
2, 40920, Note_on_c, 0, 67, 89
2, 40978, Note_on_c, 0, 67, 0
2, 40980, Note_on_c, 0, 76, 0
2, 40980, Note_on_c, 0, 72, 87
2, 40980, Note_on_c, 0, 64, 80
2, 41030, Note_on_c, 0, 64, 0
2, 41033, Note_on_c, 0, 72, 0
2, 41040, Note_on_c, 0, 69, 87
2, 41040, Note_on_c, 0, 60, 68
2, 41236, Note_on_c, 0, 69, 0
2, 41250, Note_on_c, 0, 69, 105
2, 41268, Note_on_c, 0, 69, 0
2, 41280, Note_on_c, 0, 69, 89
2, 41284, Note_on_c, 0, 60, 0
2, 41310, Note_on_c, 0, 65, 87
2, 41315, Note_on_c, 0, 69, 0
2, 41331, Note_on_c, 0, 65, 0
2, 41340, Note_on_c, 0, 65, 100
2, 41369, Note_on_c, 0, 65, 0
2, 41370, Note_on_c, 0, 62, 85
2, 41389, Note_on_c, 0, 62, 0
2, 41400, Note_on_c, 0, 62, 85
2, 41430, Note_on_c, 0, 67, 95
2, 41431, Note_on_c, 0, 62, 0
2, 41449, Note_on_c, 0, 67, 0
2, 41460, Note_on_c, 0, 67, 89
2, 41490, Note_on_c, 0, 62, 89
2, 41491, Note_on_c, 0, 67, 0
2, 41509, Note_on_c, 0, 62, 0
2, 41520, Note_on_c, 0, 62, 87
2, 41550, Note_on_c, 0, 62, 0
2, 41550, Note_on_c, 0, 59, 95
2, 41579, Note_on_c, 0, 59, 0
2, 41580, Note_on_c, 0, 55, 102
2, 41610, Note_on_c, 0, 67, 93
2, 41615, Note_on_c, 0, 55, 0
2, 41633, Note_on_c, 0, 67, 0
2, 41640, Note_on_c, 0, 72, 102
2, 41701, Note_on_c, 0, 72, 0
2, 41730, Note_on_c, 0, 69, 100
2, 41753, Note_on_c, 0, 69, 0
2, 41760, Note_on_c, 0, 71, 98
2, 41820, Note_on_c, 0, 71, 0
2, 41850, Note_on_c, 0, 64, 87
2, 41875, Note_on_c, 0, 64, 0
2, 41880, Note_on_c, 0, 69, 100
2, 41931, Note_on_c, 0, 69, 0
2, 41970, Note_on_c, 0, 69, 89
2, 42000, Note_on_c, 0, 67, 95
2, 42005, Note_on_c, 0, 69, 0
2, 42030, Note_on_c, 0, 65, 102
2, 42037, Note_on_c, 0, 67, 0
2, 42060, Note_on_c, 0, 65, 0
2, 42060, Note_on_c, 0, 64, 102
2, 42086, Note_on_c, 0, 64, 0
2, 42090, Note_on_c, 0, 62, 87
2, 42117, Note_on_c, 0, 62, 0
2, 42120, Note_on_c, 0, 64, 102
2, 42150, Note_on_c, 0, 65, 100
2, 42153, Note_on_c, 0, 64, 0
2, 42180, Note_on_c, 0, 62, 102
2, 42184, Note_on_c, 0, 65, 0
2, 42264, Note_on_c, 0, 62, 0
2, 42270, Note_on_c, 0, 60, 98
2, 42289, Note_on_c, 0, 60, 0
2, 42300, Note_on_c, 0, 60, 91
2, 42330, Note_on_c, 0, 62, 91
2, 42332, Note_on_c, 0, 60, 0
2, 42360, Note_on_c, 0, 64, 102
2, 42368, Note_on_c, 0, 62, 0
2, 42390, Note_on_c, 0, 65, 95
2, 42396, Note_on_c, 0, 64, 0
2, 42420, Note_on_c, 0, 67, 95
2, 42427, Note_on_c, 0, 65, 0
2, 42450, Note_on_c, 0, 60, 80
2, 42453, Note_on_c, 0, 67, 0
2, 42480, Note_on_c, 0, 60, 0
2, 42480, Note_on_c, 0, 58, 100
2, 42510, Note_on_c, 0, 57, 80
2, 42514, Note_on_c, 0, 58, 0
2, 42540, Note_on_c, 0, 58, 105
2, 42545, Note_on_c, 0, 57, 0
2, 42566, Note_on_c, 0, 58, 0
2, 42570, Note_on_c, 0, 62, 89
2, 42600, Note_on_c, 0, 62, 0
2, 42600, Note_on_c, 0, 60, 89
2, 42630, Note_on_c, 0, 58, 95
2, 42634, Note_on_c, 0, 60, 0
2, 42660, Note_on_c, 0, 58, 0
2, 42660, Note_on_c, 0, 57, 85
2, 42690, Note_on_c, 0, 67, 87
2, 42694, Note_on_c, 0, 57, 0
2, 42720, Note_on_c, 0, 65, 87
2, 42726, Note_on_c, 0, 67, 0
2, 42750, Note_on_c, 0, 64, 102
2, 42761, Note_on_c, 0, 65, 0
2, 42780, Note_on_c, 0, 62, 80
2, 42781, Note_on_c, 0, 64, 0
2, 42809, Note_on_c, 0, 62, 0
2, 42810, Note_on_c, 0, 72, 95
2, 42833, Note_on_c, 0, 72, 0
2, 42840, Note_on_c, 0, 71, 89
2, 42870, Note_on_c, 0, 69, 87
2, 42874, Note_on_c, 0, 71, 0
2, 42900, Note_on_c, 0, 67, 98
2, 42906, Note_on_c, 0, 69, 0
2, 42928, Note_on_c, 0, 67, 0
2, 42930, Note_on_c, 0, 65, 57
2, 42960, Note_on_c, 0, 67, 102
2, 42963, Note_on_c, 0, 65, 0
2, 42990, Note_on_c, 0, 69, 102
2, 42999, Note_on_c, 0, 67, 0
2, 43010, Note_on_c, 0, 69, 0
2, 43020, Note_on_c, 0, 59, 100
2, 43050, Note_on_c, 0, 57, 82
2, 43054, Note_on_c, 0, 59, 0
2, 43080, Note_on_c, 0, 55, 82
2, 43085, Note_on_c, 0, 57, 0
2, 43110, Note_on_c, 0, 57, 85
2, 43113, Note_on_c, 0, 55, 0
2, 43140, Note_on_c, 0, 59, 93
2, 43147, Note_on_c, 0, 57, 0
2, 43170, Note_on_c, 0, 60, 91
2, 43173, Note_on_c, 0, 59, 0
2, 43200, Note_on_c, 0, 60, 0
2, 43200, Note_on_c, 0, 62, 102
2, 43230, Note_on_c, 0, 64, 89
2, 43238, Note_on_c, 0, 62, 0
2, 43260, Note_on_c, 0, 65, 91
2, 43263, Note_on_c, 0, 64, 0
2, 43286, Note_on_c, 0, 65, 0
2, 43290, Note_on_c, 0, 69, 87
2, 43320, Note_on_c, 0, 67, 100
2, 43322, Note_on_c, 0, 69, 0
2, 43350, Note_on_c, 0, 65, 76
2, 43351, Note_on_c, 0, 67, 0
2, 43379, Note_on_c, 0, 65, 0
2, 43380, Note_on_c, 0, 64, 105
2, 43410, Note_on_c, 0, 67, 98
2, 43413, Note_on_c, 0, 64, 0
2, 43439, Note_on_c, 0, 67, 0
2, 43440, Note_on_c, 0, 72, 105
2, 43470, Note_on_c, 0, 67, 102
2, 43473, Note_on_c, 0, 72, 0
2, 43500, Note_on_c, 0, 64, 110
2, 43501, Note_on_c, 0, 67, 0
2, 43530, Note_on_c, 0, 60, 98
2, 43532, Note_on_c, 0, 64, 0
2, 43552, Note_on_c, 0, 60, 0
2, 43560, Note_on_c, 0, 59, 102
2, 43589, Note_on_c, 0, 59, 0
2, 43590, Note_on_c, 0, 62, 102
2, 43620, Note_on_c, 0, 67, 93
2, 43623, Note_on_c, 0, 62, 0
2, 43650, Note_on_c, 0, 62, 107
2, 43653, Note_on_c, 0, 67, 0
2, 43680, Note_on_c, 0, 59, 89
2, 43681, Note_on_c, 0, 62, 0
2, 43710, Note_on_c, 0, 55, 95
2, 43711, Note_on_c, 0, 59, 0
2, 43740, Note_on_c, 0, 64, 105
2, 43745, Note_on_c, 0, 55, 0
2, 43770, Note_on_c, 0, 67, 72
2, 43773, Note_on_c, 0, 64, 0
2, 43798, Note_on_c, 0, 67, 0
2, 43800, Note_on_c, 0, 72, 87
2, 43830, Note_on_c, 0, 74, 102
2, 43837, Note_on_c, 0, 72, 0
2, 43860, Note_on_c, 0, 76, 105
2, 43862, Note_on_c, 0, 74, 0
2, 43890, Note_on_c, 0, 67, 98
2, 43891, Note_on_c, 0, 76, 0
2, 43912, Note_on_c, 0, 67, 0
2, 43920, Note_on_c, 0, 57, 87
2, 43950, Note_on_c, 0, 66, 91
2, 43953, Note_on_c, 0, 57, 0
2, 43980, Note_on_c, 0, 72, 98
2, 43984, Note_on_c, 0, 66, 0
2, 44010, Note_on_c, 0, 76, 98
2, 44014, Note_on_c, 0, 72, 0
2, 44040, Note_on_c, 0, 74, 102
2, 44043, Note_on_c, 0, 76, 0
2, 44070, Note_on_c, 0, 72, 113
2, 44073, Note_on_c, 0, 74, 0
2, 44100, Note_on_c, 0, 74, 105
2, 44107, Note_on_c, 0, 72, 0
2, 44123, Note_on_c, 0, 74, 0
2, 44130, Note_on_c, 0, 66, 107
2, 44160, Note_on_c, 0, 71, 100
2, 44165, Note_on_c, 0, 66, 0
2, 44190, Note_on_c, 0, 72, 100
2, 44201, Note_on_c, 0, 71, 0
2, 44220, Note_on_c, 0, 74, 105
2, 44223, Note_on_c, 0, 72, 0
2, 44244, Note_on_c, 0, 74, 0
2, 44250, Note_on_c, 0, 66, 95
2, 44275, Note_on_c, 0, 66, 0
2, 44280, Note_on_c, 0, 55, 87
2, 44310, Note_on_c, 0, 55, 0
2, 44310, Note_on_c, 0, 64, 98
2, 44340, Note_on_c, 0, 71, 95
2, 44347, Note_on_c, 0, 64, 0
2, 44370, Note_on_c, 0, 74, 87
2, 44372, Note_on_c, 0, 71, 0
2, 44400, Note_on_c, 0, 72, 95
2, 44408, Note_on_c, 0, 74, 0
2, 44430, Note_on_c, 0, 71, 100
2, 44434, Note_on_c, 0, 72, 0
2, 44456, Note_on_c, 0, 71, 0
2, 44460, Note_on_c, 0, 72, 85
2, 44490, Note_on_c, 0, 72, 0
2, 44490, Note_on_c, 0, 76, 95
2, 44512, Note_on_c, 0, 76, 0
2, 44520, Note_on_c, 0, 81, 89
2, 44550, Note_on_c, 0, 83, 110
2, 44559, Note_on_c, 0, 81, 0
2, 44580, Note_on_c, 0, 84, 107
2, 44582, Note_on_c, 0, 83, 0
2, 44610, Note_on_c, 0, 79, 100
2, 44611, Note_on_c, 0, 84, 0
2, 44640, Note_on_c, 0, 78, 113
2, 44643, Note_on_c, 0, 79, 0
2, 44670, Note_on_c, 0, 79, 102
2, 44677, Note_on_c, 0, 78, 0
2, 44700, Note_on_c, 0, 81, 102
2, 44707, Note_on_c, 0, 79, 0
2, 44730, Note_on_c, 0, 76, 93
2, 44731, Note_on_c, 0, 81, 0
2, 44760, Note_on_c, 0, 74, 87
2, 44764, Note_on_c, 0, 76, 0
2, 44790, Note_on_c, 0, 72, 105
2, 44793, Note_on_c, 0, 74, 0
2, 44820, Note_on_c, 0, 71, 102
2, 44824, Note_on_c, 0, 72, 0
2, 44848, Note_on_c, 0, 71, 0
2, 44850, Note_on_c, 0, 74, 102
2, 44880, Note_on_c, 0, 79, 107
2, 44888, Note_on_c, 0, 74, 0
2, 44910, Note_on_c, 0, 74, 98
2, 44911, Note_on_c, 0, 79, 0
2, 44940, Note_on_c, 0, 71, 100
2, 44948, Note_on_c, 0, 74, 0
2, 44970, Note_on_c, 0, 71, 0
2, 44970, Note_on_c, 0, 67, 89
2, 44991, Note_on_c, 0, 67, 0
2, 45000, Note_on_c, 0, 66, 89
2, 45029, Note_on_c, 0, 66, 0
2, 45030, Note_on_c, 0, 69, 87
2, 45060, Note_on_c, 0, 74, 102
2, 45062, Note_on_c, 0, 69, 0
2, 45090, Note_on_c, 0, 69, 102
2, 45091, Note_on_c, 0, 74, 0
2, 45120, Note_on_c, 0, 69, 0
2, 45120, Note_on_c, 0, 66, 107
2, 45150, Note_on_c, 0, 69, 87
2, 45157, Note_on_c, 0, 66, 0
2, 45174, Note_on_c, 0, 69, 0
2, 45180, Note_on_c, 0, 67, 98
2, 45210, Note_on_c, 0, 69, 102
2, 45218, Note_on_c, 0, 67, 0
2, 45240, Note_on_c, 0, 71, 107
2, 45247, Note_on_c, 0, 69, 0
2, 45270, Note_on_c, 0, 72, 107
2, 45278, Note_on_c, 0, 71, 0
2, 45300, Note_on_c, 0, 72, 0
2, 45300, Note_on_c, 0, 74, 105
2, 45330, Note_on_c, 0, 67, 98
2, 45336, Note_on_c, 0, 74, 0
2, 45358, Note_on_c, 0, 67, 0
2, 45360, Note_on_c, 0, 65, 102
2, 45390, Note_on_c, 0, 64, 93
2, 45398, Note_on_c, 0, 65, 0
2, 45420, Note_on_c, 0, 65, 95
2, 45423, Note_on_c, 0, 64, 0
2, 45447, Note_on_c, 0, 65, 0
2, 45450, Note_on_c, 0, 69, 102
2, 45480, Note_on_c, 0, 67, 102
2, 45488, Note_on_c, 0, 69, 0
2, 45510, Note_on_c, 0, 65, 91
2, 45512, Note_on_c, 0, 67, 0
2, 45540, Note_on_c, 0, 64, 102
2, 45543, Note_on_c, 0, 65, 0
2, 45568, Note_on_c, 0, 64, 0
2, 45570, Note_on_c, 0, 74, 100
2, 45600, Note_on_c, 0, 72, 105
2, 45604, Note_on_c, 0, 74, 0
2, 45630, Note_on_c, 0, 71, 91
2, 45634, Note_on_c, 0, 72, 0
2, 45660, Note_on_c, 0, 69, 87
2, 45662, Note_on_c, 0, 71, 0
2, 45684, Note_on_c, 0, 69, 0
2, 45690, Note_on_c, 0, 79, 100
2, 45712, Note_on_c, 0, 79, 0
2, 45720, Note_on_c, 0, 78, 105
2, 45749, Note_on_c, 0, 78, 0
2, 45750, Note_on_c, 0, 76, 93
2, 45780, Note_on_c, 0, 74, 87
2, 45786, Note_on_c, 0, 76, 0
2, 45810, Note_on_c, 0, 74, 0
2, 45810, Note_on_c, 0, 72, 89
2, 45840, Note_on_c, 0, 74, 116
2, 45841, Note_on_c, 0, 72, 0
2, 45870, Note_on_c, 0, 76, 100
2, 45875, Note_on_c, 0, 74, 0
2, 45900, Note_on_c, 0, 66, 89
2, 45903, Note_on_c, 0, 76, 0
2, 45930, Note_on_c, 0, 64, 78
2, 45934, Note_on_c, 0, 66, 0
2, 45960, Note_on_c, 0, 62, 85
2, 45965, Note_on_c, 0, 64, 0
2, 45990, Note_on_c, 0, 64, 85
2, 45996, Note_on_c, 0, 62, 0
2, 46020, Note_on_c, 0, 66, 105
2, 46022, Note_on_c, 0, 64, 0
2, 46048, Note_on_c, 0, 66, 0
2, 46050, Note_on_c, 0, 67, 89
2, 46080, Note_on_c, 0, 69, 102
2, 46085, Note_on_c, 0, 67, 0
2, 46110, Note_on_c, 0, 71, 91
2, 46114, Note_on_c, 0, 69, 0
2, 46138, Note_on_c, 0, 71, 0
2, 46140, Note_on_c, 0, 72, 98
2, 46170, Note_on_c, 0, 76, 85
2, 46171, Note_on_c, 0, 72, 0
2, 46200, Note_on_c, 0, 74, 82
2, 46204, Note_on_c, 0, 76, 0
2, 46230, Note_on_c, 0, 72, 105
2, 46239, Note_on_c, 0, 74, 0
2, 46254, Note_on_c, 0, 72, 0
2, 46260, Note_on_c, 0, 71, 105
2, 46290, Note_on_c, 0, 71, 0
2, 46290, Note_on_c, 0, 74, 85
2, 46320, Note_on_c, 0, 79, 87
2, 46323, Note_on_c, 0, 74, 0
2, 46350, Note_on_c, 0, 81, 105
2, 46353, Note_on_c, 0, 79, 0
2, 46380, Note_on_c, 0, 83, 110
2, 46385, Note_on_c, 0, 81, 0
2, 46410, Note_on_c, 0, 74, 105
2, 46412, Note_on_c, 0, 83, 0
2, 46433, Note_on_c, 0, 74, 0
2, 46440, Note_on_c, 0, 64, 87
2, 46470, Note_on_c, 0, 64, 0
2, 46470, Note_on_c, 0, 73, 100
2, 46500, Note_on_c, 0, 73, 0
2, 46500, Note_on_c, 0, 79, 85
2, 46530, Note_on_c, 0, 83, 87
2, 46535, Note_on_c, 0, 79, 0
2, 46560, Note_on_c, 0, 81, 91
2, 46566, Note_on_c, 0, 83, 0
2, 46590, Note_on_c, 0, 79, 105
2, 46594, Note_on_c, 0, 81, 0
2, 46620, Note_on_c, 0, 81, 102
2, 46629, Note_on_c, 0, 79, 0
2, 46648, Note_on_c, 0, 81, 0
2, 46650, Note_on_c, 0, 73, 107
2, 46680, Note_on_c, 0, 73, 0
2, 46680, Note_on_c, 0, 78, 107
2, 46710, Note_on_c, 0, 79, 89
2, 46740, Note_on_c, 0, 78, 0
2, 46740, Note_on_c, 0, 81, 95
2, 46745, Note_on_c, 0, 79, 0
2, 46767, Note_on_c, 0, 81, 0
2, 46770, Note_on_c, 0, 73, 87
2, 46799, Note_on_c, 0, 73, 0
2, 46800, Note_on_c, 0, 62, 85
2, 46829, Note_on_c, 0, 62, 0
2, 46830, Note_on_c, 0, 71, 80
2, 46860, Note_on_c, 0, 78, 107
2, 46862, Note_on_c, 0, 71, 0
2, 46883, Note_on_c, 0, 78, 0
2, 46890, Note_on_c, 0, 81, 102
2, 46920, Note_on_c, 0, 79, 105
2, 46925, Note_on_c, 0, 81, 0
2, 46950, Note_on_c, 0, 78, 116
2, 46952, Note_on_c, 0, 79, 0
2, 46980, Note_on_c, 0, 79, 98
2, 46985, Note_on_c, 0, 78, 0
2, 47010, Note_on_c, 0, 71, 107
2, 47011, Note_on_c, 0, 79, 0
2, 47033, Note_on_c, 0, 71, 0
2, 47040, Note_on_c, 0, 76, 105
2, 47070, Note_on_c, 0, 78, 105
2, 47078, Note_on_c, 0, 76, 0
2, 47100, Note_on_c, 0, 79, 82
2, 47107, Note_on_c, 0, 78, 0
2, 47128, Note_on_c, 0, 79, 0
2, 47130, Note_on_c, 0, 74, 82
2, 47160, Note_on_c, 0, 73, 102
2, 47161, Note_on_c, 0, 74, 0
2, 47190, Note_on_c, 0, 74, 100
2, 47196, Note_on_c, 0, 73, 0
2, 47220, Note_on_c, 0, 76, 95
2, 47221, Note_on_c, 0, 74, 0
2, 47250, Note_on_c, 0, 71, 82
2, 47251, Note_on_c, 0, 76, 0
2, 47280, Note_on_c, 0, 69, 74
2, 47283, Note_on_c, 0, 71, 0
2, 47310, Note_on_c, 0, 67, 89
2, 47312, Note_on_c, 0, 69, 0
2, 47340, Note_on_c, 0, 66, 93
2, 47344, Note_on_c, 0, 67, 0
2, 47370, Note_on_c, 0, 74, 100
2, 47371, Note_on_c, 0, 66, 0
2, 47387, Note_on_c, 0, 74, 0
2, 47400, Note_on_c, 0, 74, 100
2, 47427, Note_on_c, 0, 74, 0
2, 47430, Note_on_c, 0, 69, 98
2, 47447, Note_on_c, 0, 69, 0
2, 47460, Note_on_c, 0, 69, 100
2, 47488, Note_on_c, 0, 69, 0
2, 47490, Note_on_c, 0, 66, 105
2, 47505, Note_on_c, 0, 66, 0
2, 47520, Note_on_c, 0, 66, 107
2, 47547, Note_on_c, 0, 66, 0
2, 47550, Note_on_c, 0, 69, 95
2, 47565, Note_on_c, 0, 69, 0
2, 47580, Note_on_c, 0, 69, 91
2, 47603, Note_on_c, 0, 69, 0
2, 47610, Note_on_c, 0, 66, 85
2, 47624, Note_on_c, 0, 66, 0
2, 47640, Note_on_c, 0, 66, 80
2, 47664, Note_on_c, 0, 66, 0
2, 47670, Note_on_c, 0, 62, 66
2, 47689, Note_on_c, 0, 62, 0
2, 47700, Note_on_c, 0, 62, 82
2, 47729, Note_on_c, 0, 62, 0
2, 47730, Note_on_c, 0, 72, 85
2, 47745, Note_on_c, 0, 72, 0
2, 47760, Note_on_c, 0, 72, 82
2, 47787, Note_on_c, 0, 72, 0
2, 47790, Note_on_c, 0, 69, 82
2, 47807, Note_on_c, 0, 69, 0
2, 47820, Note_on_c, 0, 69, 93
2, 47845, Note_on_c, 0, 69, 0
2, 47850, Note_on_c, 0, 66, 82
2, 47862, Note_on_c, 0, 66, 0
2, 47880, Note_on_c, 0, 66, 95
2, 47910, Note_on_c, 0, 62, 85
2, 47911, Note_on_c, 0, 66, 0
2, 47940, Note_on_c, 0, 66, 91
2, 47945, Note_on_c, 0, 62, 0
2, 47970, Note_on_c, 0, 69, 85
2, 47973, Note_on_c, 0, 66, 0
2, 48000, Note_on_c, 0, 74, 87
2, 48006, Note_on_c, 0, 69, 0
2, 48030, Note_on_c, 0, 72, 85
2, 48035, Note_on_c, 0, 74, 0
2, 48060, Note_on_c, 0, 71, 98
2, 48070, Note_on_c, 0, 72, 0
2, 48088, Note_on_c, 0, 71, 0
2, 48090, Note_on_c, 0, 67, 78
2, 48109, Note_on_c, 0, 67, 0
2, 48120, Note_on_c, 0, 67, 80
2, 48150, Note_on_c, 0, 62, 89
2, 48152, Note_on_c, 0, 67, 0
2, 48169, Note_on_c, 0, 62, 0
2, 48180, Note_on_c, 0, 62, 85
2, 48208, Note_on_c, 0, 62, 0
2, 48210, Note_on_c, 0, 59, 82
2, 48229, Note_on_c, 0, 59, 0
2, 48240, Note_on_c, 0, 59, 68
2, 48270, Note_on_c, 0, 62, 85
2, 48272, Note_on_c, 0, 59, 0
2, 48290, Note_on_c, 0, 62, 0
2, 48300, Note_on_c, 0, 62, 74
2, 48300, Note_on_c, 0, 64, 80
2, 48313, Note_on_c, 0, 64, 0
2, 48328, Note_on_c, 0, 62, 0
2, 48330, Note_on_c, 0, 59, 87
2, 48351, Note_on_c, 0, 59, 0
2, 48360, Note_on_c, 0, 59, 89
2, 48387, Note_on_c, 0, 59, 0
2, 48390, Note_on_c, 0, 55, 95
2, 48413, Note_on_c, 0, 55, 0
2, 48420, Note_on_c, 0, 55, 82
2, 48450, Note_on_c, 0, 65, 74
2, 48453, Note_on_c, 0, 55, 0
2, 48471, Note_on_c, 0, 65, 0
2, 48480, Note_on_c, 0, 65, 87
2, 48510, Note_on_c, 0, 62, 82
2, 48514, Note_on_c, 0, 65, 0
2, 48532, Note_on_c, 0, 62, 0
2, 48540, Note_on_c, 0, 62, 80
2, 48561, Note_on_c, 0, 62, 0
2, 48570, Note_on_c, 0, 59, 95
2, 48590, Note_on_c, 0, 59, 0
2, 48600, Note_on_c, 0, 59, 87
2, 48630, Note_on_c, 0, 55, 87
2, 48634, Note_on_c, 0, 59, 0
2, 48660, Note_on_c, 0, 59, 98
2, 48666, Note_on_c, 0, 55, 0
2, 48690, Note_on_c, 0, 62, 87
2, 48696, Note_on_c, 0, 59, 0
2, 48720, Note_on_c, 0, 67, 89
2, 48728, Note_on_c, 0, 62, 0
2, 48750, Note_on_c, 0, 65, 78
2, 48753, Note_on_c, 0, 67, 0
2, 48780, Note_on_c, 0, 65, 0
2, 48780, Note_on_c, 0, 64, 82
2, 48810, Note_on_c, 0, 75, 51
2, 48810, Note_on_c, 0, 76, 89
2, 48814, Note_on_c, 0, 64, 0
2, 48817, Note_on_c, 0, 75, 0
2, 48829, Note_on_c, 0, 76, 0
2, 48840, Note_on_c, 0, 76, 82
2, 48870, Note_on_c, 0, 72, 100
2, 48874, Note_on_c, 0, 76, 0
2, 48891, Note_on_c, 0, 72, 0
2, 48900, Note_on_c, 0, 72, 91
2, 48930, Note_on_c, 0, 69, 102
2, 48936, Note_on_c, 0, 72, 0
2, 48951, Note_on_c, 0, 69, 0
2, 48960, Note_on_c, 0, 69, 87
2, 48990, Note_on_c, 0, 74, 95
2, 48997, Note_on_c, 0, 69, 0
2, 49010, Note_on_c, 0, 74, 0
2, 49020, Note_on_c, 0, 74, 91
2, 49050, Note_on_c, 0, 71, 91
2, 49053, Note_on_c, 0, 74, 0
2, 49069, Note_on_c, 0, 71, 0
2, 49080, Note_on_c, 0, 71, 82
2, 49110, Note_on_c, 0, 67, 85
2, 49111, Note_on_c, 0, 71, 0
2, 49133, Note_on_c, 0, 67, 0
2, 49140, Note_on_c, 0, 67, 82
2, 49170, Note_on_c, 0, 72, 91
2, 49174, Note_on_c, 0, 67, 0
2, 49189, Note_on_c, 0, 72, 0
2, 49200, Note_on_c, 0, 72, 89
2, 49230, Note_on_c, 0, 69, 93
2, 49235, Note_on_c, 0, 72, 0
2, 49248, Note_on_c, 0, 69, 0
2, 49260, Note_on_c, 0, 69, 80
2, 49290, Note_on_c, 0, 66, 93
2, 49293, Note_on_c, 0, 69, 0
2, 49310, Note_on_c, 0, 66, 0
2, 49320, Note_on_c, 0, 66, 80
2, 49350, Note_on_c, 0, 71, 89
2, 49353, Note_on_c, 0, 66, 0
2, 49371, Note_on_c, 0, 71, 0
2, 49380, Note_on_c, 0, 71, 87
2, 49410, Note_on_c, 0, 67, 82
2, 49419, Note_on_c, 0, 71, 0
2, 49428, Note_on_c, 0, 67, 0
2, 49440, Note_on_c, 0, 67, 85
2, 49470, Note_on_c, 0, 67, 0
2, 49470, Note_on_c, 0, 64, 87
2, 49490, Note_on_c, 0, 64, 0
2, 49500, Note_on_c, 0, 64, 89
2, 49529, Note_on_c, 0, 64, 0
2, 49530, Note_on_c, 0, 67, 87
2, 49560, Note_on_c, 0, 66, 93
2, 49567, Note_on_c, 0, 67, 0
2, 49588, Note_on_c, 0, 66, 0
2, 49590, Note_on_c, 0, 67, 82
2, 49620, Note_on_c, 0, 69, 89
2, 49625, Note_on_c, 0, 67, 0
2, 49650, Note_on_c, 0, 71, 98
2, 49654, Note_on_c, 0, 69, 0
2, 49680, Note_on_c, 0, 72, 102
2, 49686, Note_on_c, 0, 71, 0
2, 49710, Note_on_c, 0, 72, 0
2, 49710, Note_on_c, 0, 76, 98
2, 49735, Note_on_c, 0, 76, 0
2, 49740, Note_on_c, 0, 76, 102
2, 49770, Note_on_c, 0, 72, 102
2, 49774, Note_on_c, 0, 76, 0
2, 49791, Note_on_c, 0, 72, 0
2, 49800, Note_on_c, 0, 72, 95
2, 49829, Note_on_c, 0, 72, 0
2, 49830, Note_on_c, 0, 69, 93
2, 49854, Note_on_c, 0, 69, 0
2, 49860, Note_on_c, 0, 69, 91
2, 49889, Note_on_c, 0, 69, 0
2, 49890, Note_on_c, 0, 66, 87
2, 49920, Note_on_c, 0, 67, 85
2, 49926, Note_on_c, 0, 66, 0
2, 49950, Note_on_c, 0, 69, 100
2, 49951, Note_on_c, 0, 67, 0
2, 49980, Note_on_c, 0, 71, 93
2, 49983, Note_on_c, 0, 69, 0
2, 50010, Note_on_c, 0, 72, 110
2, 50015, Note_on_c, 0, 71, 0
2, 50040, Note_on_c, 0, 74, 100
2, 50045, Note_on_c, 0, 72, 0
2, 50070, Note_on_c, 0, 78, 89
2, 50073, Note_on_c, 0, 74, 0
2, 50090, Note_on_c, 0, 78, 0
2, 50100, Note_on_c, 0, 78, 100
2, 50130, Note_on_c, 0, 78, 0
2, 50130, Note_on_c, 0, 74, 89
2, 50150, Note_on_c, 0, 74, 0
2, 50160, Note_on_c, 0, 74, 78
2, 50190, Note_on_c, 0, 71, 87
2, 50191, Note_on_c, 0, 74, 0
2, 50210, Note_on_c, 0, 71, 0
2, 50220, Note_on_c, 0, 71, 93
2, 50250, Note_on_c, 0, 71, 0
2, 50250, Note_on_c, 0, 67, 80
2, 50280, Note_on_c, 0, 69, 89
2, 50286, Note_on_c, 0, 67, 0
2, 50310, Note_on_c, 0, 71, 98
2, 50311, Note_on_c, 0, 69, 0
2, 50336, Note_on_c, 0, 71, 0
2, 50340, Note_on_c, 0, 72, 93
2, 50370, Note_on_c, 0, 74, 113
2, 50376, Note_on_c, 0, 72, 0
2, 50400, Note_on_c, 0, 76, 107
2, 50408, Note_on_c, 0, 74, 0
2, 50430, Note_on_c, 0, 76, 0
2, 50430, Note_on_c, 0, 79, 107
2, 50451, Note_on_c, 0, 79, 0
2, 50460, Note_on_c, 0, 79, 93
2, 50490, Note_on_c, 0, 76, 102
2, 50494, Note_on_c, 0, 79, 0
2, 50512, Note_on_c, 0, 76, 0
2, 50520, Note_on_c, 0, 76, 82
2, 50550, Note_on_c, 0, 76, 0
2, 50550, Note_on_c, 0, 72, 95
2, 50569, Note_on_c, 0, 72, 0
2, 50580, Note_on_c, 0, 72, 95
2, 50610, Note_on_c, 0, 76, 87
2, 50612, Note_on_c, 0, 72, 0
2, 50628, Note_on_c, 0, 76, 0
2, 50640, Note_on_c, 0, 76, 89
2, 50670, Note_on_c, 0, 72, 95
2, 50672, Note_on_c, 0, 76, 0
2, 50692, Note_on_c, 0, 72, 0
2, 50700, Note_on_c, 0, 72, 89
2, 50727, Note_on_c, 0, 72, 0
2, 50730, Note_on_c, 0, 69, 87
2, 50750, Note_on_c, 0, 69, 0
2, 50760, Note_on_c, 0, 69, 100
2, 50788, Note_on_c, 0, 69, 0
2, 50790, Note_on_c, 0, 84, 98
2, 50810, Note_on_c, 0, 84, 0
2, 50820, Note_on_c, 0, 84, 100
2, 50848, Note_on_c, 0, 84, 0
2, 50850, Note_on_c, 0, 81, 100
2, 50867, Note_on_c, 0, 81, 0
2, 50880, Note_on_c, 0, 81, 87
2, 50910, Note_on_c, 0, 78, 105
2, 50912, Note_on_c, 0, 81, 0
2, 50932, Note_on_c, 0, 78, 0
2, 50940, Note_on_c, 0, 78, 100
2, 50970, Note_on_c, 0, 81, 91
2, 50973, Note_on_c, 0, 78, 0
2, 50991, Note_on_c, 0, 81, 0
2, 51000, Note_on_c, 0, 81, 91
2, 51025, Note_on_c, 0, 81, 0
2, 51030, Note_on_c, 0, 78, 100
2, 51052, Note_on_c, 0, 78, 0
2, 51060, Note_on_c, 0, 78, 102
2, 51087, Note_on_c, 0, 78, 0
2, 51090, Note_on_c, 0, 74, 89
2, 51109, Note_on_c, 0, 74, 0
2, 51120, Note_on_c, 0, 74, 91
2, 51150, Note_on_c, 0, 78, 105
2, 51156, Note_on_c, 0, 74, 0
2, 51167, Note_on_c, 0, 78, 0
2, 51180, Note_on_c, 0, 78, 102
2, 51208, Note_on_c, 0, 78, 0
2, 51210, Note_on_c, 0, 74, 93
2, 51227, Note_on_c, 0, 74, 0
2, 51240, Note_on_c, 0, 74, 98
2, 51266, Note_on_c, 0, 74, 0
2, 51270, Note_on_c, 0, 78, 110
2, 51291, Note_on_c, 0, 78, 0
2, 51300, Note_on_c, 0, 79, 100
2, 51362, Note_on_c, 0, 79, 0
2, 51540, Note_on_c, 0, 79, 91
2, 51598, Note_on_c, 0, 79, 0
2, 51600, Note_on_c, 0, 81, 100
2, 51654, Note_on_c, 0, 81, 0
2, 51660, Note_on_c, 0, 83, 105
2, 51720, Note_on_c, 0, 83, 0
2, 51900, Note_on_c, 0, 76, 91
2, 51959, Note_on_c, 0, 76, 0
2, 51960, Note_on_c, 0, 78, 107
2, 52013, Note_on_c, 0, 78, 0
2, 52020, Note_on_c, 0, 79, 102
2, 52075, Note_on_c, 0, 79, 0
2, 52260, Note_on_c, 0, 81, 89
2, 52312, Note_on_c, 0, 81, 0
2, 52320, Note_on_c, 0, 83, 107
2, 52374, Note_on_c, 0, 83, 0
2, 52380, Note_on_c, 0, 84, 107
2, 52440, Note_on_c, 0, 84, 0
2, 52500, Note_on_c, 0, 85, 113
2, 52551, Note_on_c, 0, 85, 0
2, 52560, Note_on_c, 0, 86, 105
2, 52620, Note_on_c, 0, 86, 0
2, 52680, Note_on_c, 0, 78, 107
2, 52731, Note_on_c, 0, 78, 0
2, 52740, Note_on_c, 0, 79, 91
2, 52800, Note_on_c, 0, 79, 0
2, 52860, Note_on_c, 0, 76, 100
2, 52910, Note_on_c, 0, 76, 0
2, 52920, Note_on_c, 0, 73, 105
2, 53015, Note_on_c, 0, 73, 0
2, 53040, Note_on_c, 0, 74, 91
2, 53091, Note_on_c, 0, 74, 0
2, 53100, Note_on_c, 0, 71, 100
2, 53193, Note_on_c, 0, 71, 0
2, 53220, Note_on_c, 0, 73, 105
2, 53337, Note_on_c, 0, 73, 0
2, 53340, Note_on_c, 0, 71, 110
2, 53370, Note_on_c, 0, 70, 102
2, 53373, Note_on_c, 0, 71, 0
2, 53400, Note_on_c, 0, 71, 105
2, 53403, Note_on_c, 0, 70, 0
2, 53487, Note_on_c, 0, 71, 0
2, 53490, Note_on_c, 0, 69, 105
2, 53520, Note_on_c, 0, 67, 105
2, 53526, Note_on_c, 0, 69, 0
2, 53550, Note_on_c, 0, 66, 107
2, 53554, Note_on_c, 0, 67, 0
2, 53580, Note_on_c, 0, 67, 85
2, 53585, Note_on_c, 0, 66, 0
2, 53610, Note_on_c, 0, 64, 93
2, 53611, Note_on_c, 0, 67, 0
2, 53640, Note_on_c, 0, 61, 110
2, 53641, Note_on_c, 0, 64, 0
2, 53700, Note_on_c, 0, 59, 87
2, 53701, Note_on_c, 0, 61, 0
2, 53756, Note_on_c, 0, 59, 0
2, 53760, Note_on_c, 0, 74, 105
2, 53872, Note_on_c, 0, 74, 0
2, 53880, Note_on_c, 0, 73, 105
2, 53910, Note_on_c, 0, 71, 102
2, 53913, Note_on_c, 0, 73, 0
2, 53940, Note_on_c, 0, 71, 0
2, 53940, Note_on_c, 0, 69, 100
2, 54053, Note_on_c, 0, 69, 0
2, 54060, Note_on_c, 0, 67, 102
2, 54115, Note_on_c, 0, 67, 0
2, 54120, Note_on_c, 0, 79, 105
2, 54238, Note_on_c, 0, 79, 0
2, 54240, Note_on_c, 0, 78, 87
2, 54270, Note_on_c, 0, 76, 102
2, 54275, Note_on_c, 0, 78, 0
2, 54300, Note_on_c, 0, 76, 0
2, 54300, Note_on_c, 0, 74, 102
2, 54412, Note_on_c, 0, 74, 0
2, 54420, Note_on_c, 0, 79, 85
2, 54480, Note_on_c, 0, 78, 76
2, 54482, Note_on_c, 0, 79, 0
2, 54540, Note_on_c, 0, 76, 80
2, 54546, Note_on_c, 0, 78, 0
2, 54600, Note_on_c, 0, 74, 85
2, 54602, Note_on_c, 0, 76, 0
2, 54660, Note_on_c, 0, 73, 80
2, 54665, Note_on_c, 0, 74, 0
2, 54720, Note_on_c, 0, 71, 85
2, 54728, Note_on_c, 0, 73, 0
2, 54780, Note_on_c, 0, 71, 0
2, 54780, Note_on_c, 0, 66, 98
2, 54839, Note_on_c, 0, 66, 0
2, 54840, Note_on_c, 0, 71, 87
2, 54946, Note_on_c, 0, 71, 0
2, 54960, Note_on_c, 0, 64, 85
2, 55020, Note_on_c, 0, 69, 82
2, 55026, Note_on_c, 0, 64, 0
2, 55130, Note_on_c, 0, 69, 0
2, 55140, Note_on_c, 0, 62, 82
2, 55199, Note_on_c, 0, 62, 0
2, 55200, Note_on_c, 0, 71, 85
2, 55315, Note_on_c, 0, 71, 0
2, 55320, Note_on_c, 0, 78, 91
2, 55379, Note_on_c, 0, 78, 0
2, 55380, Note_on_c, 0, 79, 87
2, 55438, Note_on_c, 0, 79, 0
2, 55440, Note_on_c, 0, 73, 87
2, 55497, Note_on_c, 0, 73, 0
2, 55500, Note_on_c, 0, 78, 105
2, 55530, Note_on_c, 0, 76, 82
2, 55532, Note_on_c, 0, 78, 0
2, 55551, Note_on_c, 0, 76, 0
2, 55560, Note_on_c, 0, 74, 100
2, 55590, Note_on_c, 0, 73, 100
2, 55591, Note_on_c, 0, 74, 0
2, 55619, Note_on_c, 0, 73, 0
2, 55620, Note_on_c, 0, 71, 93
2, 55669, Note_on_c, 0, 71, 0
2, 55680, Note_on_c, 0, 79, 102
2, 55704, Note_on_c, 0, 79, 0
2, 55710, Note_on_c, 0, 78, 93
2, 55734, Note_on_c, 0, 78, 0
2, 55740, Note_on_c, 0, 76, 89
2, 55769, Note_on_c, 0, 76, 0
2, 55770, Note_on_c, 0, 74, 82
2, 55798, Note_on_c, 0, 74, 0
2, 55800, Note_on_c, 0, 73, 105
2, 55823, Note_on_c, 0, 73, 0
2, 55830, Note_on_c, 0, 70, 105
2, 55853, Note_on_c, 0, 70, 0
2, 55860, Note_on_c, 0, 71, 98
2, 56000, Note_on_c, 0, 71, 0
2, 56010, Note_on_c, 0, 76, 98
2, 56034, Note_on_c, 0, 76, 0
2, 56040, Note_on_c, 0, 76, 91
2, 56070, Note_on_c, 0, 71, 85
2, 56071, Note_on_c, 0, 76, 0
2, 56090, Note_on_c, 0, 71, 0
2, 56100, Note_on_c, 0, 71, 82
2, 56130, Note_on_c, 0, 68, 95
2, 56131, Note_on_c, 0, 71, 0
2, 56152, Note_on_c, 0, 68, 0
2, 56160, Note_on_c, 0, 68, 91
2, 56190, Note_on_c, 0, 71, 87
2, 56192, Note_on_c, 0, 68, 0
2, 56210, Note_on_c, 0, 71, 0
2, 56220, Note_on_c, 0, 71, 85
2, 56250, Note_on_c, 0, 68, 91
2, 56252, Note_on_c, 0, 71, 0
2, 56271, Note_on_c, 0, 68, 0
2, 56280, Note_on_c, 0, 68, 91
2, 56310, Note_on_c, 0, 64, 87
2, 56312, Note_on_c, 0, 68, 0
2, 56331, Note_on_c, 0, 64, 0
2, 56340, Note_on_c, 0, 64, 98
2, 56370, Note_on_c, 0, 74, 102
2, 56371, Note_on_c, 0, 64, 0
2, 56390, Note_on_c, 0, 74, 0
2, 56400, Note_on_c, 0, 74, 87
2, 56427, Note_on_c, 0, 74, 0
2, 56430, Note_on_c, 0, 71, 91
2, 56452, Note_on_c, 0, 71, 0
2, 56460, Note_on_c, 0, 71, 78
2, 56490, Note_on_c, 0, 71, 0
2, 56490, Note_on_c, 0, 68, 93
2, 56513, Note_on_c, 0, 68, 0
2, 56520, Note_on_c, 0, 68, 85
2, 56550, Note_on_c, 0, 64, 82
2, 56553, Note_on_c, 0, 68, 0
2, 56580, Note_on_c, 0, 68, 85
2, 56587, Note_on_c, 0, 64, 0
2, 56610, Note_on_c, 0, 71, 72
2, 56613, Note_on_c, 0, 68, 0
2, 56640, Note_on_c, 0, 76, 95
2, 56646, Note_on_c, 0, 71, 0
2, 56670, Note_on_c, 0, 71, 98
2, 56674, Note_on_c, 0, 76, 0
2, 56700, Note_on_c, 0, 68, 102
2, 56704, Note_on_c, 0, 71, 0
2, 56730, Note_on_c, 0, 73, 102
2, 56736, Note_on_c, 0, 68, 0
2, 56750, Note_on_c, 0, 73, 0
2, 56760, Note_on_c, 0, 73, 100
2, 56788, Note_on_c, 0, 73, 0
2, 56790, Note_on_c, 0, 68, 87
2, 56811, Note_on_c, 0, 68, 0
2, 56820, Note_on_c, 0, 68, 89
2, 56847, Note_on_c, 0, 68, 0
2, 56880, Note_on_c, 0, 65, 89
2, 56910, Note_on_c, 0, 68, 100
2, 56914, Note_on_c, 0, 65, 0
2, 56929, Note_on_c, 0, 68, 0
2, 56940, Note_on_c, 0, 68, 80
2, 56970, Note_on_c, 0, 65, 91
2, 56974, Note_on_c, 0, 68, 0
2, 56991, Note_on_c, 0, 65, 0
2, 57000, Note_on_c, 0, 65, 85
2, 57030, Note_on_c, 0, 61, 82
2, 57035, Note_on_c, 0, 65, 0
2, 57056, Note_on_c, 0, 61, 0
2, 57060, Note_on_c, 0, 61, 70
2, 57090, Note_on_c, 0, 61, 0
2, 57090, Note_on_c, 0, 71, 91
2, 57112, Note_on_c, 0, 71, 0
2, 57120, Note_on_c, 0, 71, 87
2, 57145, Note_on_c, 0, 71, 0
2, 57150, Note_on_c, 0, 68, 100
2, 57175, Note_on_c, 0, 68, 0
2, 57180, Note_on_c, 0, 68, 85
2, 57209, Note_on_c, 0, 68, 0
2, 57210, Note_on_c, 0, 65, 87
2, 57231, Note_on_c, 0, 65, 0
2, 57240, Note_on_c, 0, 65, 85
2, 57270, Note_on_c, 0, 61, 82
2, 57273, Note_on_c, 0, 65, 0
2, 57300, Note_on_c, 0, 65, 87
2, 57304, Note_on_c, 0, 61, 0
2, 57330, Note_on_c, 0, 68, 82
2, 57336, Note_on_c, 0, 65, 0
2, 57360, Note_on_c, 0, 71, 87
2, 57367, Note_on_c, 0, 68, 0
2, 57390, Note_on_c, 0, 68, 82
2, 57392, Note_on_c, 0, 71, 0
2, 57417, Note_on_c, 0, 68, 0
2, 57420, Note_on_c, 0, 73, 80
2, 57450, Note_on_c, 0, 78, 100
2, 57455, Note_on_c, 0, 73, 0
2, 57472, Note_on_c, 0, 78, 0
2, 57480, Note_on_c, 0, 78, 102
2, 57510, Note_on_c, 0, 73, 95
2, 57514, Note_on_c, 0, 78, 0
2, 57530, Note_on_c, 0, 73, 0
2, 57540, Note_on_c, 0, 73, 87
2, 57570, Note_on_c, 0, 70, 87
2, 57574, Note_on_c, 0, 73, 0
2, 57584, Note_on_c, 0, 70, 0
2, 57600, Note_on_c, 0, 70, 105
2, 57630, Note_on_c, 0, 73, 91
2, 57636, Note_on_c, 0, 70, 0
2, 57652, Note_on_c, 0, 73, 0
2, 57660, Note_on_c, 0, 73, 100
2, 57690, Note_on_c, 0, 70, 76
2, 57691, Note_on_c, 0, 73, 0
2, 57711, Note_on_c, 0, 70, 0
2, 57720, Note_on_c, 0, 70, 85
2, 57750, Note_on_c, 0, 70, 0
2, 57750, Note_on_c, 0, 66, 68
2, 57774, Note_on_c, 0, 66, 0
2, 57780, Note_on_c, 0, 66, 87
2, 57810, Note_on_c, 0, 76, 95
2, 57814, Note_on_c, 0, 66, 0
2, 57829, Note_on_c, 0, 76, 0
2, 57840, Note_on_c, 0, 76, 91
2, 57870, Note_on_c, 0, 73, 102
2, 57873, Note_on_c, 0, 76, 0
2, 57889, Note_on_c, 0, 73, 0
2, 57900, Note_on_c, 0, 73, 100
2, 57930, Note_on_c, 0, 73, 0
2, 57930, Note_on_c, 0, 70, 85
2, 57950, Note_on_c, 0, 70, 0
2, 57960, Note_on_c, 0, 70, 85
2, 57990, Note_on_c, 0, 66, 82
2, 57994, Note_on_c, 0, 70, 0
2, 58020, Note_on_c, 0, 70, 89
2, 58027, Note_on_c, 0, 66, 0
2, 58050, Note_on_c, 0, 73, 98
2, 58058, Note_on_c, 0, 70, 0
2, 58080, Note_on_c, 0, 78, 82
2, 58085, Note_on_c, 0, 73, 0
2, 58110, Note_on_c, 0, 76, 80
2, 58114, Note_on_c, 0, 78, 0
2, 58140, Note_on_c, 0, 74, 89
2, 58141, Note_on_c, 0, 76, 0
2, 58170, Note_on_c, 0, 78, 85
2, 58175, Note_on_c, 0, 74, 0
2, 58200, Note_on_c, 0, 83, 87
2, 58204, Note_on_c, 0, 78, 0
2, 58230, Note_on_c, 0, 78, 89
2, 58235, Note_on_c, 0, 83, 0
2, 58260, Note_on_c, 0, 74, 87
2, 58266, Note_on_c, 0, 78, 0
2, 58289, Note_on_c, 0, 74, 0
2, 58290, Note_on_c, 0, 71, 91
2, 58309, Note_on_c, 0, 71, 0
2, 58320, Note_on_c, 0, 70, 110
2, 58350, Note_on_c, 0, 73, 105
2, 58352, Note_on_c, 0, 70, 0
2, 58380, Note_on_c, 0, 78, 100
2, 58383, Note_on_c, 0, 73, 0
2, 58410, Note_on_c, 0, 73, 105
2, 58413, Note_on_c, 0, 78, 0
2, 58440, Note_on_c, 0, 70, 100
2, 58441, Note_on_c, 0, 73, 0
2, 58470, Note_on_c, 0, 70, 0
2, 58470, Note_on_c, 0, 66, 100
2, 58494, Note_on_c, 0, 66, 0
2, 58500, Note_on_c, 0, 59, 105
2, 58574, Note_on_c, 0, 59, 0
2, 58680, Note_on_c, 0, 71, 85
2, 58744, Note_on_c, 0, 71, 0
2, 58860, Note_on_c, 0, 70, 102
2, 58920, Note_on_c, 0, 70, 0
2, 59040, Note_on_c, 0, 73, 113
2, 59086, Note_on_c, 0, 73, 0
2, 59220, Note_on_c, 0, 74, 100
2, 59250, Note_on_c, 0, 74, 0
2, 59250, Note_on_c, 0, 78, 100
2, 59268, Note_on_c, 0, 78, 0
2, 59280, Note_on_c, 0, 78, 98
2, 59306, Note_on_c, 0, 78, 0
2, 59310, Note_on_c, 0, 75, 107
2, 59329, Note_on_c, 0, 75, 0
2, 59340, Note_on_c, 0, 75, 98
2, 59370, Note_on_c, 0, 75, 0
2, 59370, Note_on_c, 0, 71, 87
2, 59391, Note_on_c, 0, 71, 0
2, 59400, Note_on_c, 0, 71, 98
2, 59427, Note_on_c, 0, 71, 0
2, 59430, Note_on_c, 0, 80, 102
2, 59451, Note_on_c, 0, 80, 0
2, 59460, Note_on_c, 0, 80, 95
2, 59490, Note_on_c, 0, 80, 0
2, 59490, Note_on_c, 0, 77, 95
2, 59507, Note_on_c, 0, 77, 0
2, 59520, Note_on_c, 0, 77, 89
2, 59548, Note_on_c, 0, 77, 0
2, 59550, Note_on_c, 0, 73, 98
2, 59572, Note_on_c, 0, 73, 0
2, 59580, Note_on_c, 0, 73, 91
2, 59606, Note_on_c, 0, 73, 0
2, 59610, Note_on_c, 0, 82, 105
2, 59630, Note_on_c, 0, 82, 0
2, 59640, Note_on_c, 0, 82, 95
2, 59665, Note_on_c, 0, 82, 0
2, 59670, Note_on_c, 0, 78, 102
2, 59690, Note_on_c, 0, 78, 0
2, 59700, Note_on_c, 0, 78, 100
2, 59730, Note_on_c, 0, 74, 98
2, 59731, Note_on_c, 0, 78, 0
2, 59751, Note_on_c, 0, 74, 0
2, 59760, Note_on_c, 0, 74, 91
2, 59790, Note_on_c, 0, 83, 98
2, 59791, Note_on_c, 0, 74, 0
2, 59809, Note_on_c, 0, 83, 0
2, 59820, Note_on_c, 0, 83, 100
2, 59848, Note_on_c, 0, 83, 0
2, 59850, Note_on_c, 0, 79, 95
2, 59867, Note_on_c, 0, 79, 0
2, 59880, Note_on_c, 0, 79, 100
2, 59910, Note_on_c, 0, 79, 0
2, 59910, Note_on_c, 0, 83, 107
2, 59930, Note_on_c, 0, 83, 0
2, 59940, Note_on_c, 0, 83, 100
2, 59967, Note_on_c, 0, 83, 0
2, 59970, Note_on_c, 0, 76, 95
2, 59991, Note_on_c, 0, 76, 0
2, 60000, Note_on_c, 0, 76, 89
2, 60028, Note_on_c, 0, 76, 0
2, 60030, Note_on_c, 0, 82, 100
2, 60050, Note_on_c, 0, 82, 0
2, 60060, Note_on_c, 0, 82, 100
2, 60087, Note_on_c, 0, 82, 0
2, 60090, Note_on_c, 0, 83, 87
2, 60111, Note_on_c, 0, 83, 0
2, 60120, Note_on_c, 0, 83, 98
2, 60150, Note_on_c, 0, 79, 100
2, 60151, Note_on_c, 0, 83, 0
2, 60180, Note_on_c, 0, 78, 110
2, 60190, Note_on_c, 0, 79, 0
2, 60210, Note_on_c, 0, 76, 100
2, 60215, Note_on_c, 0, 78, 0
2, 60240, Note_on_c, 0, 74, 85
2, 60242, Note_on_c, 0, 76, 0
2, 60270, Note_on_c, 0, 73, 113
2, 60274, Note_on_c, 0, 74, 0
2, 60300, Note_on_c, 0, 73, 0
2, 60300, Note_on_c, 0, 71, 100
2, 60356, Note_on_c, 0, 71, 0
2, 60360, Note_on_c, 0, 74, 102
2, 60412, Note_on_c, 0, 74, 0
2, 60420, Note_on_c, 0, 71, 107
2, 60480, Note_on_c, 0, 71, 0
2, 60480, Note_on_c, 0, 67, 110
2, 60666, Note_on_c, 0, 67, 0
2, 60690, Note_on_c, 0, 79, 95
2, 60719, Note_on_c, 0, 79, 0
2, 60720, Note_on_c, 0, 79, 89
2, 60749, Note_on_c, 0, 79, 0
2, 60750, Note_on_c, 0, 76, 82
2, 60779, Note_on_c, 0, 76, 0
2, 60780, Note_on_c, 0, 76, 82
2, 60809, Note_on_c, 0, 76, 0
2, 60810, Note_on_c, 0, 73, 107
2, 60839, Note_on_c, 0, 73, 0
2, 60840, Note_on_c, 0, 73, 102
2, 60869, Note_on_c, 0, 73, 0
2, 60870, Note_on_c, 0, 78, 98
2, 60899, Note_on_c, 0, 78, 0
2, 60900, Note_on_c, 0, 78, 100
2, 60929, Note_on_c, 0, 78, 0
2, 60930, Note_on_c, 0, 73, 93
2, 60959, Note_on_c, 0, 73, 0
2, 60960, Note_on_c, 0, 73, 93
2, 60989, Note_on_c, 0, 73, 0
2, 60990, Note_on_c, 0, 70, 102
2, 61019, Note_on_c, 0, 70, 0
2, 61020, Note_on_c, 0, 71, 105
2, 61079, Note_on_c, 0, 71, 0
2, 61110, Note_on_c, 0, 71, 100
2, 61139, Note_on_c, 0, 71, 0
2, 61140, Note_on_c, 0, 76, 107
2, 61169, Note_on_c, 0, 76, 0
2, 61230, Note_on_c, 0, 73, 113
2, 61259, Note_on_c, 0, 73, 0
2, 61260, Note_on_c, 0, 74, 105
2, 61289, Note_on_c, 0, 74, 0
2, 61350, Note_on_c, 0, 67, 95
2, 61379, Note_on_c, 0, 67, 0
2, 61380, Note_on_c, 0, 72, 116
2, 61439, Note_on_c, 0, 72, 0
2, 61470, Note_on_c, 0, 70, 107
2, 61499, Note_on_c, 0, 70, 0
2, 61500, Note_on_c, 0, 71, 105
2, 61559, Note_on_c, 0, 71, 0
2, 61590, Note_on_c, 0, 73, 102
2, 61619, Note_on_c, 0, 73, 0
2, 61620, Note_on_c, 0, 70, 105
2, 61709, Note_on_c, 0, 70, 0
2, 61710, Note_on_c, 0, 71, 102
2, 61739, Note_on_c, 0, 71, 0
2, 61740, Note_on_c, 0, 71, 93
2, 61769, Note_on_c, 0, 71, 0
2, 61770, Note_on_c, 0, 66, 107
2, 61799, Note_on_c, 0, 66, 0
2, 61800, Note_on_c, 0, 66, 89
2, 61829, Note_on_c, 0, 66, 0
2, 61830, Note_on_c, 0, 62, 102
2, 61859, Note_on_c, 0, 62, 0
2, 61860, Note_on_c, 0, 62, 100
2, 61889, Note_on_c, 0, 62, 0
2, 61890, Note_on_c, 0, 59, 100
2, 61919, Note_on_c, 0, 59, 0
2, 61920, Note_on_c, 0, 59, 107
2, 62009, Note_on_c, 0, 59, 0
2, 62100, Note_on_c, 0, 79, 105
2, 62182, Note_on_c, 0, 79, 0
2, 62280, Note_on_c, 0, 81, 107
2, 62353, Note_on_c, 0, 81, 0
2, 62460, Note_on_c, 0, 83, 110
2, 62522, Note_on_c, 0, 83, 0
2, 63180, Note_on_c, 0, 79, 107
2, 63235, Note_on_c, 0, 79, 0
2, 63360, Note_on_c, 0, 81, 102
2, 63415, Note_on_c, 0, 81, 0
2, 63540, Note_on_c, 0, 83, 105
2, 63602, Note_on_c, 0, 83, 0
2, 64290, Note_on_c, 0, 71, 82
2, 64320, Note_on_c, 0, 72, 102
2, 64331, Note_on_c, 0, 71, 0
2, 64350, Note_on_c, 0, 74, 113
2, 64352, Note_on_c, 0, 72, 0
2, 64380, Note_on_c, 0, 74, 0
2, 64380, Note_on_c, 0, 76, 112
2, 64410, Note_on_c, 0, 78, 113
2, 64414, Note_on_c, 0, 76, 0
2, 64440, Note_on_c, 0, 79, 105
2, 64446, Note_on_c, 0, 78, 0
2, 64470, Note_on_c, 0, 83, 110
2, 64471, Note_on_c, 0, 79, 0
2, 64491, Note_on_c, 0, 83, 0
2, 64500, Note_on_c, 0, 83, 105
2, 64530, Note_on_c, 0, 79, 105
2, 64535, Note_on_c, 0, 83, 0
2, 64550, Note_on_c, 0, 79, 0
2, 64560, Note_on_c, 0, 79, 102
2, 64590, Note_on_c, 0, 76, 107
2, 64592, Note_on_c, 0, 79, 0
2, 64613, Note_on_c, 0, 76, 0
2, 64620, Note_on_c, 0, 76, 102
2, 64645, Note_on_c, 0, 76, 0
2, 64650, Note_on_c, 0, 73, 100
2, 64680, Note_on_c, 0, 74, 98
2, 64683, Note_on_c, 0, 73, 0
2, 64710, Note_on_c, 0, 76, 95
2, 64712, Note_on_c, 0, 74, 0
2, 64740, Note_on_c, 0, 78, 102
2, 64749, Note_on_c, 0, 76, 0
2, 64768, Note_on_c, 0, 78, 0
2, 64770, Note_on_c, 0, 79, 82
2, 64800, Note_on_c, 0, 81, 119
2, 64804, Note_on_c, 0, 79, 0
2, 64830, Note_on_c, 0, 85, 105
2, 64837, Note_on_c, 0, 81, 0
2, 64849, Note_on_c, 0, 85, 0
2, 64860, Note_on_c, 0, 85, 110
2, 64888, Note_on_c, 0, 85, 0
2, 64890, Note_on_c, 0, 81, 98
2, 64908, Note_on_c, 0, 81, 0
2, 64920, Note_on_c, 0, 81, 98
2, 64946, Note_on_c, 0, 81, 0
2, 64950, Note_on_c, 0, 78, 105
2, 64970, Note_on_c, 0, 78, 0
2, 64980, Note_on_c, 0, 78, 107
2, 65007, Note_on_c, 0, 78, 0
2, 65010, Note_on_c, 0, 74, 100
2, 65040, Note_on_c, 0, 76, 105
2, 65047, Note_on_c, 0, 74, 0
2, 65070, Note_on_c, 0, 78, 110
2, 65077, Note_on_c, 0, 76, 0
2, 65099, Note_on_c, 0, 78, 0
2, 65100, Note_on_c, 0, 79, 85
2, 65130, Note_on_c, 0, 81, 113
2, 65135, Note_on_c, 0, 79, 0
2, 65160, Note_on_c, 0, 83, 113
2, 65166, Note_on_c, 0, 81, 0
2, 65190, Note_on_c, 0, 86, 105
2, 65196, Note_on_c, 0, 83, 0
2, 65214, Note_on_c, 0, 86, 0
2, 65220, Note_on_c, 0, 86, 105
2, 65250, Note_on_c, 0, 83, 105
2, 65255, Note_on_c, 0, 86, 0
2, 65271, Note_on_c, 0, 83, 0
2, 65280, Note_on_c, 0, 83, 100
2, 65310, Note_on_c, 0, 79, 102
2, 65314, Note_on_c, 0, 83, 0
2, 65330, Note_on_c, 0, 79, 0
2, 65340, Note_on_c, 0, 79, 102
2, 65368, Note_on_c, 0, 79, 0
2, 65370, Note_on_c, 0, 83, 105
2, 65392, Note_on_c, 0, 83, 0
2, 65400, Note_on_c, 0, 83, 102
2, 65430, Note_on_c, 0, 79, 102
2, 65433, Note_on_c, 0, 83, 0
2, 65451, Note_on_c, 0, 79, 0
2, 65460, Note_on_c, 0, 79, 93
2, 65490, Note_on_c, 0, 76, 87
2, 65492, Note_on_c, 0, 79, 0
2, 65510, Note_on_c, 0, 76, 0
2, 65520, Note_on_c, 0, 76, 105
2, 65549, Note_on_c, 0, 76, 0
2, 65550, Note_on_c, 0, 79, 102
2, 65573, Note_on_c, 0, 79, 0
2, 65580, Note_on_c, 0, 79, 91
2, 65610, Note_on_c, 0, 76, 102
2, 65616, Note_on_c, 0, 79, 0
2, 65630, Note_on_c, 0, 76, 0
2, 65640, Note_on_c, 0, 76, 95
2, 65670, Note_on_c, 0, 73, 105
2, 65676, Note_on_c, 0, 76, 0
2, 65690, Note_on_c, 0, 73, 0
2, 65700, Note_on_c, 0, 73, 105
2, 65727, Note_on_c, 0, 73, 0
2, 65730, Note_on_c, 0, 76, 100
2, 65753, Note_on_c, 0, 76, 0
2, 65760, Note_on_c, 0, 76, 95
2, 65784, Note_on_c, 0, 76, 0
2, 65790, Note_on_c, 0, 73, 102
2, 65806, Note_on_c, 0, 73, 0
2, 65820, Note_on_c, 0, 73, 100
2, 65849, Note_on_c, 0, 73, 0
2, 65850, Note_on_c, 0, 69, 95
2, 65873, Note_on_c, 0, 69, 0
2, 65880, Note_on_c, 0, 69, 98
2, 65910, Note_on_c, 0, 73, 105
2, 65916, Note_on_c, 0, 69, 0
2, 65927, Note_on_c, 0, 73, 0
2, 65940, Note_on_c, 0, 73, 98
2, 65970, Note_on_c, 0, 69, 100
2, 65972, Note_on_c, 0, 73, 0
2, 65991, Note_on_c, 0, 69, 0
2, 66000, Note_on_c, 0, 69, 98
2, 66030, Note_on_c, 0, 66, 95
2, 66032, Note_on_c, 0, 69, 0
2, 66051, Note_on_c, 0, 66, 0
2, 66060, Note_on_c, 0, 66, 113
2, 66090, Note_on_c, 0, 69, 107
2, 66096, Note_on_c, 0, 66, 0
2, 66120, Note_on_c, 0, 74, 102
2, 66123, Note_on_c, 0, 69, 0
2, 66150, Note_on_c, 0, 69, 107
2, 66156, Note_on_c, 0, 74, 0
2, 66180, Note_on_c, 0, 66, 98
2, 66182, Note_on_c, 0, 69, 0
2, 66210, Note_on_c, 0, 62, 91
2, 66212, Note_on_c, 0, 66, 0
2, 66240, Note_on_c, 0, 61, 91
2, 66245, Note_on_c, 0, 62, 0
2, 66270, Note_on_c, 0, 64, 87
2, 66273, Note_on_c, 0, 61, 0
2, 66297, Note_on_c, 0, 64, 0
2, 66300, Note_on_c, 0, 69, 105
2, 66328, Note_on_c, 0, 69, 0
2, 66330, Note_on_c, 0, 64, 91
2, 66360, Note_on_c, 0, 61, 119
2, 66361, Note_on_c, 0, 64, 0
2, 66389, Note_on_c, 0, 61, 0
2, 66390, Note_on_c, 0, 57, 89
2, 66420, Note_on_c, 0, 81, 105
2, 66423, Note_on_c, 0, 57, 0
2, 67156, Note_on_c, 0, 81, 0
2, 67170, Note_on_c, 0, 81, 102
2, 67200, Note_on_c, 0, 81, 0
2, 67200, Note_on_c, 0, 86, 105
2, 67230, Note_on_c, 0, 81, 91
2, 67235, Note_on_c, 0, 86, 0
2, 67260, Note_on_c, 0, 78, 102
2, 67263, Note_on_c, 0, 81, 0
2, 67290, Note_on_c, 0, 74, 102
2, 67292, Note_on_c, 0, 78, 0
2, 67318, Note_on_c, 0, 74, 0
2, 67320, Note_on_c, 0, 73, 110
2, 67350, Note_on_c, 0, 73, 0
2, 67350, Note_on_c, 0, 76, 98
2, 67380, Note_on_c, 0, 81, 98
2, 67383, Note_on_c, 0, 76, 0
2, 67410, Note_on_c, 0, 76, 105
2, 67418, Note_on_c, 0, 81, 0
2, 67440, Note_on_c, 0, 73, 102
2, 67442, Note_on_c, 0, 76, 0
2, 67470, Note_on_c, 0, 73, 0
2, 67470, Note_on_c, 0, 69, 105
2, 67495, Note_on_c, 0, 69, 0
2, 67500, Note_on_c, 0, 57, 100
2, 68241, Note_on_c, 0, 57, 0
2, 68610, Note_on_c, 0, 72, 100
2, 68630, Note_on_c, 0, 72, 0
2, 68640, Note_on_c, 0, 72, 100
2, 68661, Note_on_c, 0, 72, 0
2, 68670, Note_on_c, 0, 69, 105
2, 68690, Note_on_c, 0, 69, 0
2, 68700, Note_on_c, 0, 69, 98
2, 68725, Note_on_c, 0, 69, 0
2, 68730, Note_on_c, 0, 66, 100
2, 68751, Note_on_c, 0, 66, 0
2, 68760, Note_on_c, 0, 66, 93
2, 68787, Note_on_c, 0, 66, 0
2, 68790, Note_on_c, 0, 62, 87
2, 68810, Note_on_c, 0, 62, 0
2, 68820, Note_on_c, 0, 62, 89
2, 68847, Note_on_c, 0, 62, 0
2, 68850, Note_on_c, 0, 74, 105
2, 68869, Note_on_c, 0, 74, 0
2, 68880, Note_on_c, 0, 74, 95
2, 68898, Note_on_c, 0, 74, 0
2, 68910, Note_on_c, 0, 74, 100
2, 68932, Note_on_c, 0, 74, 0
2, 68940, Note_on_c, 0, 71, 100
2, 68967, Note_on_c, 0, 71, 0
2, 68970, Note_on_c, 0, 67, 95
2, 68986, Note_on_c, 0, 67, 0
2, 69000, Note_on_c, 0, 67, 98
2, 69028, Note_on_c, 0, 67, 0
2, 69030, Note_on_c, 0, 62, 95
2, 69048, Note_on_c, 0, 62, 0
2, 69060, Note_on_c, 0, 62, 89
2, 69085, Note_on_c, 0, 62, 0
2, 69090, Note_on_c, 0, 59, 93
2, 69114, Note_on_c, 0, 59, 0
2, 69120, Note_on_c, 0, 59, 82
2, 69145, Note_on_c, 0, 59, 0
2, 69150, Note_on_c, 0, 62, 100
2, 69167, Note_on_c, 0, 62, 0
2, 69180, Note_on_c, 0, 62, 100
2, 69210, Note_on_c, 0, 59, 102
2, 69214, Note_on_c, 0, 62, 0
2, 69236, Note_on_c, 0, 59, 0
2, 69240, Note_on_c, 0, 59, 82
2, 69270, Note_on_c, 0, 59, 0
2, 69270, Note_on_c, 0, 55, 91
2, 69293, Note_on_c, 0, 55, 0
2, 69300, Note_on_c, 0, 55, 102
2, 69378, Note_on_c, 0, 55, 0
2, 69510, Note_on_c, 0, 67, 85
2, 69540, Note_on_c, 0, 69, 102
2, 69546, Note_on_c, 0, 67, 0
2, 69570, Note_on_c, 0, 71, 98
2, 69574, Note_on_c, 0, 69, 0
2, 69595, Note_on_c, 0, 71, 0
2, 69600, Note_on_c, 0, 72, 91
2, 69630, Note_on_c, 0, 74, 105
2, 69632, Note_on_c, 0, 72, 0
2, 69660, Note_on_c, 0, 76, 107
2, 69664, Note_on_c, 0, 74, 0
2, 69690, Note_on_c, 0, 77, 107
2, 69696, Note_on_c, 0, 76, 0
2, 69720, Note_on_c, 0, 76, 107
2, 69731, Note_on_c, 0, 77, 0
2, 69750, Note_on_c, 0, 74, 105
2, 69753, Note_on_c, 0, 76, 0
2, 69780, Note_on_c, 0, 72, 91
2, 69786, Note_on_c, 0, 74, 0
2, 69810, Note_on_c, 0, 72, 0
2, 69810, Note_on_c, 0, 71, 95
2, 69840, Note_on_c, 0, 69, 105
2, 69846, Note_on_c, 0, 71, 0
2, 69869, Note_on_c, 0, 69, 0
2, 69870, Note_on_c, 0, 74, 87
2, 69890, Note_on_c, 0, 74, 0
2, 69900, Note_on_c, 0, 74, 100
2, 69930, Note_on_c, 0, 71, 100
2, 69935, Note_on_c, 0, 74, 0
2, 69949, Note_on_c, 0, 71, 0
2, 69960, Note_on_c, 0, 71, 89
2, 69990, Note_on_c, 0, 71, 0
2, 69990, Note_on_c, 0, 67, 95
2, 70008, Note_on_c, 0, 67, 0
2, 70020, Note_on_c, 0, 67, 87
2, 70048, Note_on_c, 0, 67, 0
2, 70050, Note_on_c, 0, 72, 100
2, 70070, Note_on_c, 0, 72, 0
2, 70080, Note_on_c, 0, 72, 102
2, 70110, Note_on_c, 0, 69, 105
2, 70112, Note_on_c, 0, 72, 0
2, 70129, Note_on_c, 0, 69, 0
2, 70140, Note_on_c, 0, 69, 93
2, 70170, Note_on_c, 0, 66, 107
2, 70172, Note_on_c, 0, 69, 0
2, 70194, Note_on_c, 0, 66, 0
2, 70200, Note_on_c, 0, 66, 100
2, 70230, Note_on_c, 0, 71, 91
2, 70234, Note_on_c, 0, 66, 0
2, 70252, Note_on_c, 0, 71, 0
2, 70260, Note_on_c, 0, 71, 95
2, 70290, Note_on_c, 0, 67, 85
2, 70298, Note_on_c, 0, 71, 0
2, 70308, Note_on_c, 0, 67, 0
2, 70320, Note_on_c, 0, 67, 95
2, 70350, Note_on_c, 0, 67, 0
2, 70350, Note_on_c, 0, 64, 100
2, 70370, Note_on_c, 0, 64, 0
2, 70380, Note_on_c, 0, 64, 100
2, 70410, Note_on_c, 0, 67, 98
2, 70414, Note_on_c, 0, 64, 0
2, 70440, Note_on_c, 0, 66, 105
2, 70447, Note_on_c, 0, 67, 0
2, 70468, Note_on_c, 0, 66, 0
2, 70470, Note_on_c, 0, 67, 91
2, 70500, Note_on_c, 0, 69, 113
2, 70505, Note_on_c, 0, 67, 0
2, 70530, Note_on_c, 0, 71, 113
2, 70534, Note_on_c, 0, 69, 0
2, 70560, Note_on_c, 0, 72, 110
2, 70568, Note_on_c, 0, 71, 0
2, 70590, Note_on_c, 0, 76, 98
2, 70592, Note_on_c, 0, 72, 0
2, 70611, Note_on_c, 0, 76, 0
2, 70620, Note_on_c, 0, 76, 105
2, 70650, Note_on_c, 0, 72, 107
2, 70656, Note_on_c, 0, 76, 0
2, 70670, Note_on_c, 0, 72, 0
2, 70680, Note_on_c, 0, 72, 95
2, 70710, Note_on_c, 0, 69, 100
2, 70715, Note_on_c, 0, 72, 0
2, 70734, Note_on_c, 0, 69, 0
2, 70740, Note_on_c, 0, 69, 100
2, 70764, Note_on_c, 0, 69, 0
2, 70770, Note_on_c, 0, 66, 85
2, 70800, Note_on_c, 0, 67, 89
2, 70810, Note_on_c, 0, 66, 0
2, 70830, Note_on_c, 0, 69, 105
2, 70832, Note_on_c, 0, 67, 0
2, 70860, Note_on_c, 0, 71, 107
2, 70861, Note_on_c, 0, 69, 0
2, 70890, Note_on_c, 0, 72, 110
2, 70892, Note_on_c, 0, 71, 0
2, 70920, Note_on_c, 0, 74, 105
2, 70927, Note_on_c, 0, 72, 0
2, 70950, Note_on_c, 0, 78, 102
2, 70955, Note_on_c, 0, 74, 0
2, 70970, Note_on_c, 0, 78, 0
2, 70980, Note_on_c, 0, 78, 102
2, 71010, Note_on_c, 0, 74, 89
2, 71015, Note_on_c, 0, 78, 0
2, 71029, Note_on_c, 0, 74, 0
2, 71040, Note_on_c, 0, 74, 95
2, 71068, Note_on_c, 0, 74, 0
2, 71070, Note_on_c, 0, 71, 100
2, 71091, Note_on_c, 0, 71, 0
2, 71100, Note_on_c, 0, 71, 91
2, 71130, Note_on_c, 0, 71, 0
2, 71130, Note_on_c, 0, 67, 82
2, 71160, Note_on_c, 0, 69, 89
2, 71162, Note_on_c, 0, 67, 0
2, 71190, Note_on_c, 0, 69, 0
2, 71190, Note_on_c, 0, 71, 95
2, 71219, Note_on_c, 0, 71, 0
2, 71220, Note_on_c, 0, 72, 93
2, 71250, Note_on_c, 0, 74, 110
2, 71252, Note_on_c, 0, 72, 0
2, 71280, Note_on_c, 0, 76, 113
2, 71286, Note_on_c, 0, 74, 0
2, 71310, Note_on_c, 0, 79, 105
2, 71313, Note_on_c, 0, 76, 0
2, 71331, Note_on_c, 0, 79, 0
2, 71340, Note_on_c, 0, 79, 102
2, 71370, Note_on_c, 0, 76, 105
2, 71375, Note_on_c, 0, 79, 0
2, 71387, Note_on_c, 0, 76, 0
2, 71400, Note_on_c, 0, 76, 98
2, 71430, Note_on_c, 0, 72, 98
2, 71433, Note_on_c, 0, 76, 0
2, 71454, Note_on_c, 0, 72, 0
2, 71460, Note_on_c, 0, 72, 93
2, 71490, Note_on_c, 0, 76, 102
2, 71492, Note_on_c, 0, 72, 0
2, 71509, Note_on_c, 0, 76, 0
2, 71520, Note_on_c, 0, 76, 100
2, 71550, Note_on_c, 0, 72, 107
2, 71553, Note_on_c, 0, 76, 0
2, 71573, Note_on_c, 0, 72, 0
2, 71580, Note_on_c, 0, 72, 95
2, 71606, Note_on_c, 0, 72, 0
2, 71610, Note_on_c, 0, 69, 98
2, 71633, Note_on_c, 0, 69, 0
2, 71640, Note_on_c, 0, 69, 105
2, 71670, Note_on_c, 0, 69, 0
2, 71670, Note_on_c, 0, 84, 105
2, 71700, Note_on_c, 0, 84, 0
2, 71700, Note_on_c, 0, 84, 100
2, 71730, Note_on_c, 0, 81, 102
2, 71732, Note_on_c, 0, 84, 0
2, 71751, Note_on_c, 0, 81, 0
2, 71760, Note_on_c, 0, 81, 98
2, 71788, Note_on_c, 0, 81, 0
2, 71790, Note_on_c, 0, 78, 113
2, 71810, Note_on_c, 0, 78, 0
2, 71820, Note_on_c, 0, 78, 107
2, 71845, Note_on_c, 0, 78, 0
2, 71850, Note_on_c, 0, 81, 100
2, 71871, Note_on_c, 0, 81, 0
2, 71880, Note_on_c, 0, 81, 105
2, 71906, Note_on_c, 0, 81, 0
2, 71910, Note_on_c, 0, 78, 105
2, 71926, Note_on_c, 0, 78, 0
2, 71940, Note_on_c, 0, 78, 100
2, 71970, Note_on_c, 0, 74, 89
2, 71972, Note_on_c, 0, 78, 0
2, 71991, Note_on_c, 0, 74, 0
2, 72000, Note_on_c, 0, 74, 105
2, 72030, Note_on_c, 0, 78, 110
2, 72030, Note_on_c, 0, 75, 45
2, 72035, Note_on_c, 0, 75, 0
2, 72037, Note_on_c, 0, 74, 0
2, 72049, Note_on_c, 0, 78, 0
2, 72060, Note_on_c, 0, 78, 107
2, 72087, Note_on_c, 0, 78, 0
2, 72090, Note_on_c, 0, 74, 89
2, 72111, Note_on_c, 0, 74, 0
2, 72120, Note_on_c, 0, 74, 102
2, 72150, Note_on_c, 0, 72, 102
2, 72154, Note_on_c, 0, 74, 0
2, 72176, Note_on_c, 0, 72, 0
2, 72180, Note_on_c, 0, 71, 110
2, 72209, Note_on_c, 0, 71, 0
2, 72210, Note_on_c, 0, 74, 98
2, 72240, Note_on_c, 0, 79, 107
2, 72249, Note_on_c, 0, 74, 0
2, 72270, Note_on_c, 0, 74, 105
2, 72273, Note_on_c, 0, 79, 0
2, 72300, Note_on_c, 0, 71, 105
2, 72304, Note_on_c, 0, 74, 0
2, 72330, Note_on_c, 0, 67, 102
2, 72334, Note_on_c, 0, 71, 0
2, 72356, Note_on_c, 0, 67, 0
2, 72360, Note_on_c, 0, 66, 113
2, 72390, Note_on_c, 0, 69, 102
2, 72394, Note_on_c, 0, 66, 0
2, 72420, Note_on_c, 0, 74, 100
2, 72424, Note_on_c, 0, 69, 0
2, 72450, Note_on_c, 0, 69, 105
2, 72455, Note_on_c, 0, 74, 0
2, 72480, Note_on_c, 0, 66, 107
2, 72485, Note_on_c, 0, 69, 0
2, 72510, Note_on_c, 0, 66, 0
2, 72510, Note_on_c, 0, 62, 91
2, 72540, Note_on_c, 0, 86, 110
2, 72542, Note_on_c, 0, 62, 0
2, 73268, Note_on_c, 0, 86, 0
2, 73290, Note_on_c, 0, 86, 107
2, 73320, Note_on_c, 0, 91, 105
2, 73326, Note_on_c, 0, 86, 0
2, 73350, Note_on_c, 0, 86, 95
2, 73352, Note_on_c, 0, 91, 0
2, 73380, Note_on_c, 0, 83, 105
2, 73385, Note_on_c, 0, 86, 0
2, 73410, Note_on_c, 0, 79, 87
2, 73414, Note_on_c, 0, 83, 0
2, 73440, Note_on_c, 0, 79, 0
2, 73440, Note_on_c, 0, 78, 105
2, 73470, Note_on_c, 0, 81, 110
2, 73473, Note_on_c, 0, 78, 0
2, 73500, Note_on_c, 0, 86, 110
2, 73505, Note_on_c, 0, 81, 0
2, 73530, Note_on_c, 0, 81, 102
2, 73532, Note_on_c, 0, 86, 0
2, 73560, Note_on_c, 0, 78, 100
2, 73565, Note_on_c, 0, 81, 0
2, 73590, Note_on_c, 0, 74, 107
2, 73593, Note_on_c, 0, 78, 0
2, 73616, Note_on_c, 0, 74, 0
2, 73620, Note_on_c, 0, 62, 105
2, 74353, Note_on_c, 0, 62, 0
2, 74372, Note_on_c, 0, 74, 105
2, 74393, Note_on_c, 0, 74, 0
2, 74403, Note_on_c, 0, 74, 98
2, 74430, Note_on_c, 0, 71, 105
2, 74435, Note_on_c, 0, 74, 0
2, 74448, Note_on_c, 0, 71, 0
2, 74458, Note_on_c, 0, 71, 98
2, 74486, Note_on_c, 0, 71, 0
2, 74489, Note_on_c, 0, 67, 98
2, 74509, Note_on_c, 0, 67, 0
2, 74518, Note_on_c, 0, 67, 102
2, 74546, Note_on_c, 0, 67, 0
2, 74549, Note_on_c, 0, 76, 107
2, 74568, Note_on_c, 0, 76, 0
2, 74580, Note_on_c, 0, 76, 107
2, 74604, Note_on_c, 0, 76, 0
2, 74609, Note_on_c, 0, 73, 107
2, 74627, Note_on_c, 0, 73, 0
2, 74638, Note_on_c, 0, 73, 105
2, 74667, Note_on_c, 0, 69, 100
2, 74669, Note_on_c, 0, 73, 0
2, 74686, Note_on_c, 0, 69, 0
2, 74697, Note_on_c, 0, 69, 89
2, 74725, Note_on_c, 0, 69, 0
2, 74731, Note_on_c, 0, 78, 107
2, 74748, Note_on_c, 0, 78, 0
2, 74759, Note_on_c, 0, 78, 107
2, 74787, Note_on_c, 0, 78, 0
2, 74791, Note_on_c, 0, 75, 105
2, 74807, Note_on_c, 0, 75, 0
2, 74820, Note_on_c, 0, 75, 105
2, 74850, Note_on_c, 0, 75, 0
2, 74850, Note_on_c, 0, 71, 95
2, 74871, Note_on_c, 0, 71, 0
2, 74880, Note_on_c, 0, 71, 98
2, 74910, Note_on_c, 0, 71, 0
2, 74910, Note_on_c, 0, 79, 102
2, 74929, Note_on_c, 0, 79, 0
2, 74940, Note_on_c, 0, 79, 105
2, 74970, Note_on_c, 0, 76, 113
2, 74971, Note_on_c, 0, 79, 0
2, 74985, Note_on_c, 0, 76, 0
2, 75000, Note_on_c, 0, 76, 102
2, 75029, Note_on_c, 0, 76, 0
2, 75030, Note_on_c, 0, 79, 107
2, 75048, Note_on_c, 0, 79, 0
2, 75060, Note_on_c, 0, 79, 102
2, 75090, Note_on_c, 0, 72, 105
2, 75092, Note_on_c, 0, 79, 0
2, 75107, Note_on_c, 0, 72, 0
2, 75120, Note_on_c, 0, 72, 91
2, 75150, Note_on_c, 0, 78, 110
2, 75151, Note_on_c, 0, 72, 0
2, 75169, Note_on_c, 0, 78, 0
2, 75180, Note_on_c, 0, 78, 107
2, 75210, Note_on_c, 0, 69, 85
2, 75212, Note_on_c, 0, 78, 0
2, 75233, Note_on_c, 0, 69, 0
2, 75240, Note_on_c, 0, 71, 113
2, 75270, Note_on_c, 0, 76, 100
2, 75273, Note_on_c, 0, 71, 0
2, 75300, Note_on_c, 0, 74, 102
2, 75306, Note_on_c, 0, 76, 0
2, 75330, Note_on_c, 0, 72, 110
2, 75337, Note_on_c, 0, 74, 0
2, 75360, Note_on_c, 0, 71, 113
2, 75371, Note_on_c, 0, 72, 0
2, 75390, Note_on_c, 0, 71, 0
2, 75390, Note_on_c, 0, 69, 95
2, 75418, Note_on_c, 0, 69, 0
2, 75420, Note_on_c, 0, 67, 107
2, 75477, Note_on_c, 0, 67, 0
2, 75480, Note_on_c, 0, 71, 113
2, 75532, Note_on_c, 0, 71, 0
2, 75540, Note_on_c, 0, 67, 100
2, 75600, Note_on_c, 0, 64, 105
2, 75601, Note_on_c, 0, 67, 0
2, 75796, Note_on_c, 0, 64, 0
2, 75810, Note_on_c, 0, 76, 105
2, 75830, Note_on_c, 0, 76, 0
2, 75840, Note_on_c, 0, 76, 100
2, 75870, Note_on_c, 0, 72, 105
2, 75874, Note_on_c, 0, 76, 0
2, 75887, Note_on_c, 0, 72, 0
2, 75900, Note_on_c, 0, 72, 105
2, 75928, Note_on_c, 0, 72, 0
2, 75930, Note_on_c, 0, 69, 107
2, 75947, Note_on_c, 0, 69, 0
2, 75960, Note_on_c, 0, 69, 102
2, 75987, Note_on_c, 0, 69, 0
2, 75990, Note_on_c, 0, 74, 102
2, 76008, Note_on_c, 0, 74, 0
2, 76020, Note_on_c, 0, 74, 102
2, 76046, Note_on_c, 0, 74, 0
2, 76050, Note_on_c, 0, 69, 102
2, 76069, Note_on_c, 0, 69, 0
2, 76080, Note_on_c, 0, 69, 100
2, 76104, Note_on_c, 0, 69, 0
2, 76110, Note_on_c, 0, 66, 105
2, 76140, Note_on_c, 0, 66, 0
2, 76140, Note_on_c, 0, 62, 100
2, 76170, Note_on_c, 0, 74, 100
2, 76173, Note_on_c, 0, 62, 0
2, 76191, Note_on_c, 0, 74, 0
2, 76200, Note_on_c, 0, 79, 107
2, 76251, Note_on_c, 0, 79, 0
2, 76290, Note_on_c, 0, 76, 105
2, 76314, Note_on_c, 0, 76, 0
2, 76320, Note_on_c, 0, 78, 116
2, 76364, Note_on_c, 0, 78, 0
2, 76410, Note_on_c, 0, 71, 110
2, 76433, Note_on_c, 0, 71, 0
2, 76440, Note_on_c, 0, 76, 113
2, 76493, Note_on_c, 0, 76, 0
2, 76530, Note_on_c, 0, 76, 95
2, 76560, Note_on_c, 0, 74, 102
2, 76567, Note_on_c, 0, 76, 0
2, 76590, Note_on_c, 0, 72, 105
2, 76595, Note_on_c, 0, 74, 0
2, 76620, Note_on_c, 0, 71, 110
2, 76625, Note_on_c, 0, 72, 0
2, 76650, Note_on_c, 0, 69, 93
2, 76651, Note_on_c, 0, 71, 0
2, 76677, Note_on_c, 0, 69, 0
2, 76680, Note_on_c, 0, 71, 116
2, 76710, Note_on_c, 0, 72, 107
2, 76716, Note_on_c, 0, 71, 0
2, 76738, Note_on_c, 0, 72, 0
2, 76740, Note_on_c, 0, 69, 122
2, 76828, Note_on_c, 0, 69, 0
2, 76830, Note_on_c, 0, 67, 127
2, 76856, Note_on_c, 0, 67, 0
2, 76860, Note_on_c, 0, 67, 102
2, 77040, Note_on_c, 0, 67, 0
2, 77040, End_track
3, 0, Start_track
3, 0, MIDI_port, 0
3, 0, Title_t, "Flute 1"
3, 0, Program_c, 1, 73
3, 0, Control_c, 1, 7, 100
3, 0, Control_c, 1, 10, 100
3, 60, Channel_aftertouch_c, 1, 90
3, 180, Note_on_c, 1, 86, 120
3, 580, Note_on_c, 1, 86, 0
3, 600, Note_on_c, 1, 84, 112
3, 645, Note_on_c, 1, 84, 0
3, 660, Note_on_c, 1, 83, 108
3, 706, Note_on_c, 1, 83, 0
3, 780, Note_on_c, 1, 83, 110
3, 803, Note_on_c, 1, 83, 0
3, 810, Note_on_c, 1, 84, 110
3, 829, Note_on_c, 1, 84, 0
3, 840, Note_on_c, 1, 86, 112
3, 886, Note_on_c, 1, 86, 0
3, 900, Note_on_c, 1, 84, 112
3, 957, Note_on_c, 1, 84, 0
3, 960, Note_on_c, 1, 83, 112
3, 1011, Note_on_c, 1, 83, 0
3, 1020, Note_on_c, 1, 81, 101
3, 1077, Note_on_c, 1, 81, 0
3, 1140, Note_on_c, 1, 81, 88
3, 1168, Note_on_c, 1, 81, 0
3, 1170, Note_on_c, 1, 83, 108
3, 1197, Note_on_c, 1, 83, 0
3, 1200, Note_on_c, 1, 84, 110
3, 1231, Note_on_c, 1, 84, 0
3, 1260, Note_on_c, 1, 83, 97
3, 1284, Note_on_c, 1, 83, 0
3, 1290, Note_on_c, 1, 86, 97
3, 1316, Note_on_c, 1, 86, 0
3, 1320, Note_on_c, 1, 91, 110
3, 1350, Note_on_c, 1, 91, 0
3, 1350, Note_on_c, 1, 86, 103
3, 1380, Note_on_c, 1, 83, 112
3, 1381, Note_on_c, 1, 86, 0
3, 1410, Note_on_c, 1, 79, 95
3, 1411, Note_on_c, 1, 83, 0
3, 1435, Note_on_c, 1, 79, 0
3, 1440, Note_on_c, 1, 78, 110
3, 1469, Note_on_c, 1, 78, 0
3, 1470, Note_on_c, 1, 81, 115
3, 1500, Note_on_c, 1, 81, 0
3, 1500, Note_on_c, 1, 86, 115
3, 1526, Note_on_c, 1, 86, 0
3, 1530, Note_on_c, 1, 81, 115
3, 1560, Note_on_c, 1, 78, 112
3, 1566, Note_on_c, 1, 81, 0
3, 1589, Note_on_c, 1, 78, 0
3, 1590, Note_on_c, 1, 74, 103
3, 1617, Note_on_c, 1, 74, 0
3, 1620, Note_on_c, 1, 83, 112
3, 1670, Note_on_c, 1, 83, 0
3, 1680, Note_on_c, 1, 81, 115
3, 1723, Note_on_c, 1, 81, 0
3, 1740, Note_on_c, 1, 79, 110
3, 1794, Note_on_c, 1, 79, 0
3, 1860, Note_on_c, 1, 79, 112
3, 1880, Note_on_c, 1, 79, 0
3, 1890, Note_on_c, 1, 81, 110
3, 1909, Note_on_c, 1, 81, 0
3, 1920, Note_on_c, 1, 83, 112
3, 1963, Note_on_c, 1, 83, 0
3, 1980, Note_on_c, 1, 81, 112
3, 2036, Note_on_c, 1, 81, 0
3, 2040, Note_on_c, 1, 79, 97
3, 2088, Note_on_c, 1, 79, 0
3, 2100, Note_on_c, 1, 78, 105
3, 2162, Note_on_c, 1, 78, 0
3, 2220, Note_on_c, 1, 78, 120
3, 2241, Note_on_c, 1, 78, 0
3, 2250, Note_on_c, 1, 79, 108
3, 2270, Note_on_c, 1, 79, 0
3, 2280, Note_on_c, 1, 81, 108
3, 2321, Note_on_c, 1, 81, 0
3, 2340, Note_on_c, 1, 79, 110
3, 2715, Note_on_c, 1, 79, 0
3, 2730, Note_on_c, 1, 76, 115
3, 2760, Note_on_c, 1, 78, 110
3, 2765, Note_on_c, 1, 76, 0
3, 2787, Note_on_c, 1, 78, 0
3, 2790, Note_on_c, 1, 79, 108
3, 2820, Note_on_c, 1, 81, 123
3, 2823, Note_on_c, 1, 79, 0
3, 2850, Note_on_c, 1, 83, 117
3, 2854, Note_on_c, 1, 81, 0
3, 2880, Note_on_c, 1, 85, 120
3, 2890, Note_on_c, 1, 83, 0
3, 2910, Note_on_c, 1, 81, 97
3, 2911, Note_on_c, 1, 85, 0
3, 2940, Note_on_c, 1, 78, 112
3, 2950, Note_on_c, 1, 81, 0
3, 2968, Note_on_c, 1, 78, 0
3, 2970, Note_on_c, 1, 73, 123
3, 3000, Note_on_c, 1, 78, 117
3, 3001, Note_on_c, 1, 73, 0
3, 3030, Note_on_c, 1, 81, 103
3, 3033, Note_on_c, 1, 78, 0
3, 3053, Note_on_c, 1, 81, 0
3, 3060, Note_on_c, 1, 74, 115
3, 3104, Note_on_c, 1, 74, 0
3, 3120, Note_on_c, 1, 83, 117
3, 3466, Note_on_c, 1, 83, 0
3, 3480, Note_on_c, 1, 79, 115
3, 3540, Note_on_c, 1, 83, 115
3, 3542, Note_on_c, 1, 79, 0
3, 3592, Note_on_c, 1, 83, 0
3, 3600, Note_on_c, 1, 88, 123
3, 3810, Note_on_c, 1, 69, 97
3, 3811, Note_on_c, 1, 88, 0
3, 3833, Note_on_c, 1, 69, 0
3, 3840, Note_on_c, 1, 69, 95
3, 3870, Note_on_c, 1, 73, 112
3, 3871, Note_on_c, 1, 69, 0
3, 3888, Note_on_c, 1, 73, 0
3, 3900, Note_on_c, 1, 73, 117
3, 3930, Note_on_c, 1, 76, 112
3, 3931, Note_on_c, 1, 73, 0
3, 3951, Note_on_c, 1, 76, 0
3, 3960, Note_on_c, 1, 76, 110
3, 3990, Note_on_c, 1, 73, 120
3, 3991, Note_on_c, 1, 76, 0
3, 4007, Note_on_c, 1, 73, 0
3, 4020, Note_on_c, 1, 73, 126
3, 4047, Note_on_c, 1, 73, 0
3, 4050, Note_on_c, 1, 76, 115
3, 4071, Note_on_c, 1, 76, 0
3, 4080, Note_on_c, 1, 76, 105
3, 4108, Note_on_c, 1, 76, 0
3, 4110, Note_on_c, 1, 81, 110
3, 4132, Note_on_c, 1, 81, 0
3, 4140, Note_on_c, 1, 81, 120
3, 4549, Note_on_c, 1, 81, 0
3, 4560, Note_on_c, 1, 79, 115
3, 4606, Note_on_c, 1, 79, 0
3, 4620, Note_on_c, 1, 78, 120
3, 4675, Note_on_c, 1, 78, 0
3, 4740, Note_on_c, 1, 78, 112
3, 4766, Note_on_c, 1, 78, 0
3, 4770, Note_on_c, 1, 79, 108
3, 4790, Note_on_c, 1, 79, 0
3, 4800, Note_on_c, 1, 81, 115
3, 4842, Note_on_c, 1, 81, 0
3, 4860, Note_on_c, 1, 79, 117
3, 4912, Note_on_c, 1, 79, 0
3, 4920, Note_on_c, 1, 78, 126
3, 4968, Note_on_c, 1, 78, 0
3, 4980, Note_on_c, 1, 76, 115
3, 5034, Note_on_c, 1, 76, 0
3, 5100, Note_on_c, 1, 76, 112
3, 5126, Note_on_c, 1, 76, 0
3, 5130, Note_on_c, 1, 78, 115
3, 5154, Note_on_c, 1, 78, 0
3, 5160, Note_on_c, 1, 79, 108
3, 5201, Note_on_c, 1, 79, 0
3, 5220, Note_on_c, 1, 78, 120
3, 5288, Note_on_c, 1, 78, 0
3, 5400, Note_on_c, 1, 76, 115
3, 5463, Note_on_c, 1, 76, 0
3, 5580, Note_on_c, 1, 74, 112
3, 5642, Note_on_c, 1, 74, 0
3, 6360, Note_on_c, 1, 81, 112
3, 6390, Note_on_c, 1, 83, 123
3, 6392, Note_on_c, 1, 81, 0
3, 6418, Note_on_c, 1, 83, 0
3, 6420, Note_on_c, 1, 81, 123
3, 6440, Note_on_c, 1, 81, 0
3, 6450, Note_on_c, 1, 83, 126
3, 6474, Note_on_c, 1, 83, 0
3, 6480, Note_on_c, 1, 84, 117
3, 6507, Note_on_c, 1, 84, 0
3, 6510, Note_on_c, 1, 83, 127
3, 6537, Note_on_c, 1, 83, 0
3, 6540, Note_on_c, 1, 81, 123
3, 6565, Note_on_c, 1, 81, 0
3, 6570, Note_on_c, 1, 83, 123
3, 6590, Note_on_c, 1, 83, 0
3, 6600, Note_on_c, 1, 84, 117
3, 6690, Note_on_c, 1, 83, 120
3, 6696, Note_on_c, 1, 84, 0
3, 6714, Note_on_c, 1, 83, 0
3, 6720, Note_on_c, 1, 81, 120
3, 6747, Note_on_c, 1, 81, 0
3, 6750, Note_on_c, 1, 83, 117
3, 6780, Note_on_c, 1, 84, 117
3, 6784, Note_on_c, 1, 83, 0
3, 6810, Note_on_c, 1, 84, 0
3, 6810, Note_on_c, 1, 83, 115
3, 6834, Note_on_c, 1, 83, 0
3, 6840, Note_on_c, 1, 84, 117
3, 6869, Note_on_c, 1, 84, 0
3, 6870, Note_on_c, 1, 88, 115
3, 6900, Note_on_c, 1, 86, 117
3, 6905, Note_on_c, 1, 88, 0
3, 6930, Note_on_c, 1, 84, 120
3, 6935, Note_on_c, 1, 86, 0
3, 6960, Note_on_c, 1, 83, 120
3, 6970, Note_on_c, 1, 84, 0
3, 6990, Note_on_c, 1, 81, 105
3, 6994, Note_on_c, 1, 83, 0
3, 7017, Note_on_c, 1, 81, 0
3, 7020, Note_on_c, 1, 83, 123
3, 7048, Note_on_c, 1, 83, 0
3, 7050, Note_on_c, 1, 81, 120
3, 7080, Note_on_c, 1, 83, 126
3, 7088, Note_on_c, 1, 81, 0
3, 7110, Note_on_c, 1, 84, 120
3, 7115, Note_on_c, 1, 83, 0
3, 7140, Note_on_c, 1, 83, 123
3, 7143, Note_on_c, 1, 84, 0
3, 7170, Note_on_c, 1, 84, 120
3, 7180, Note_on_c, 1, 83, 0
3, 7200, Note_on_c, 1, 86, 120
3, 7203, Note_on_c, 1, 84, 0
3, 7230, Note_on_c, 1, 86, 0
3, 7230, Note_on_c, 1, 84, 117
3, 7260, Note_on_c, 1, 84, 0
3, 7260, Note_on_c, 1, 83, 127
3, 7290, Note_on_c, 1, 84, 120
3, 7296, Note_on_c, 1, 83, 0
3, 7313, Note_on_c, 1, 84, 0
3, 7320, Note_on_c, 1, 86, 120
3, 7407, Note_on_c, 1, 86, 0
3, 7410, Note_on_c, 1, 84, 115
3, 7440, Note_on_c, 1, 83, 120
3, 7446, Note_on_c, 1, 84, 0
3, 7470, Note_on_c, 1, 84, 115
3, 7473, Note_on_c, 1, 83, 0
3, 7500, Note_on_c, 1, 86, 112
3, 7505, Note_on_c, 1, 84, 0
3, 7530, Note_on_c, 1, 84, 103
3, 7533, Note_on_c, 1, 86, 0
3, 7558, Note_on_c, 1, 84, 0
3, 7560, Note_on_c, 1, 86, 117
3, 7590, Note_on_c, 1, 89, 120
3, 7592, Note_on_c, 1, 86, 0
3, 7620, Note_on_c, 1, 88, 115
3, 7624, Note_on_c, 1, 89, 0
3, 7650, Note_on_c, 1, 86, 115
3, 7658, Note_on_c, 1, 88, 0
3, 7680, Note_on_c, 1, 84, 117
3, 7685, Note_on_c, 1, 86, 0
3, 7710, Note_on_c, 1, 83, 101
3, 7711, Note_on_c, 1, 84, 0
3, 7737, Note_on_c, 1, 83, 0
3, 7740, Note_on_c, 1, 84, 123
3, 7770, Note_on_c, 1, 86, 117
3, 7775, Note_on_c, 1, 84, 0
3, 7800, Note_on_c, 1, 84, 127
3, 7808, Note_on_c, 1, 86, 0
3, 7830, Note_on_c, 1, 86, 117
3, 7834, Note_on_c, 1, 84, 0
3, 7858, Note_on_c, 1, 86, 0
3, 7860, Note_on_c, 1, 88, 126
3, 7959, Note_on_c, 1, 88, 0
3, 7980, Note_on_c, 1, 86, 115
3, 8010, Note_on_c, 1, 84, 115
3, 8011, Note_on_c, 1, 86, 0
3, 8035, Note_on_c, 1, 84, 0
3, 8040, Note_on_c, 1, 86, 123
3, 8122, Note_on_c, 1, 86, 0
3, 8160, Note_on_c, 1, 84, 110
3, 8190, Note_on_c, 1, 83, 112
3, 8195, Note_on_c, 1, 84, 0
3, 8215, Note_on_c, 1, 83, 0
3, 8220, Note_on_c, 1, 84, 120
3, 8312, Note_on_c, 1, 84, 0
3, 8340, Note_on_c, 1, 83, 115
3, 8370, Note_on_c, 1, 81, 123
3, 8378, Note_on_c, 1, 83, 0
3, 8391, Note_on_c, 1, 81, 0
3, 8400, Note_on_c, 1, 83, 120
3, 8470, Note_on_c, 1, 83, 0
3, 8490, Note_on_c, 1, 79, 108
3, 8520, Note_on_c, 1, 81, 120
3, 8526, Note_on_c, 1, 79, 0
3, 8550, Note_on_c, 1, 83, 115
3, 8554, Note_on_c, 1, 81, 0
3, 8580, Note_on_c, 1, 84, 103
3, 8580, Note_on_c, 1, 83, 99
3, 8581, Note_on_c, 1, 83, 0
3, 8606, Note_on_c, 1, 83, 0
3, 8610, Note_on_c, 1, 86, 95
3, 8612, Note_on_c, 1, 84, 0
3, 8640, Note_on_c, 1, 88, 115
3, 8649, Note_on_c, 1, 86, 0
3, 8670, Note_on_c, 1, 84, 101
3, 8679, Note_on_c, 1, 88, 0
3, 8700, Note_on_c, 1, 81, 110
3, 8710, Note_on_c, 1, 84, 0
3, 8730, Note_on_c, 1, 76, 108
3, 8736, Note_on_c, 1, 81, 0
3, 8760, Note_on_c, 1, 81, 120
3, 8765, Note_on_c, 1, 76, 0
3, 8790, Note_on_c, 1, 81, 0
3, 8790, Note_on_c, 1, 84, 115
3, 8818, Note_on_c, 1, 84, 0
3, 8820, Note_on_c, 1, 78, 123
3, 8863, Note_on_c, 1, 78, 0
3, 8880, Note_on_c, 1, 86, 120
3, 9181, Note_on_c, 1, 86, 0
3, 9210, Note_on_c, 1, 83, 105
3, 9240, Note_on_c, 1, 83, 0
3, 9240, Note_on_c, 1, 84, 99
3, 9270, Note_on_c, 1, 86, 105
3, 9277, Note_on_c, 1, 84, 0
3, 9300, Note_on_c, 1, 88, 101
3, 9308, Note_on_c, 1, 86, 0
3, 9330, Note_on_c, 1, 90, 115
3, 9335, Note_on_c, 1, 88, 0
3, 9360, Note_on_c, 1, 91, 108
3, 9363, Note_on_c, 1, 90, 0
3, 9390, Note_on_c, 1, 88, 103
3, 9397, Note_on_c, 1, 91, 0
3, 9420, Note_on_c, 1, 84, 105
3, 9429, Note_on_c, 1, 88, 0
3, 9450, Note_on_c, 1, 79, 95
3, 9452, Note_on_c, 1, 84, 0
3, 9480, Note_on_c, 1, 84, 112
3, 9487, Note_on_c, 1, 79, 0
3, 9509, Note_on_c, 1, 84, 0
3, 9510, Note_on_c, 1, 88, 112
3, 9534, Note_on_c, 1, 88, 0
3, 9540, Note_on_c, 1, 84, 127
3, 10096, Note_on_c, 1, 84, 0
3, 10110, Note_on_c, 1, 74, 101
3, 10140, Note_on_c, 1, 78, 123
3, 10146, Note_on_c, 1, 74, 0
3, 10167, Note_on_c, 1, 78, 0
3, 10170, Note_on_c, 1, 81, 110
3, 10191, Note_on_c, 1, 81, 0
3, 10200, Note_on_c, 1, 81, 110
3, 10228, Note_on_c, 1, 81, 0
3, 10230, Note_on_c, 1, 86, 115
3, 10250, Note_on_c, 1, 86, 0
3, 10260, Note_on_c, 1, 86, 120
3, 10661, Note_on_c, 1, 86, 0
3, 10680, Note_on_c, 1, 84, 117
3, 10720, Note_on_c, 1, 84, 0
3, 10740, Note_on_c, 1, 83, 112
3, 10795, Note_on_c, 1, 83, 0
3, 10860, Note_on_c, 1, 83, 115
3, 10881, Note_on_c, 1, 83, 0
3, 10890, Note_on_c, 1, 84, 120
3, 10910, Note_on_c, 1, 84, 0
3, 10920, Note_on_c, 1, 86, 117
3, 10969, Note_on_c, 1, 86, 0
3, 10980, Note_on_c, 1, 84, 115
3, 11036, Note_on_c, 1, 84, 0
3, 11040, Note_on_c, 1, 83, 115
3, 11089, Note_on_c, 1, 83, 0
3, 11100, Note_on_c, 1, 81, 112
3, 11159, Note_on_c, 1, 81, 0
3, 11220, Note_on_c, 1, 81, 115
3, 11247, Note_on_c, 1, 81, 0
3, 11250, Note_on_c, 1, 83, 117
3, 11275, Note_on_c, 1, 83, 0
3, 11280, Note_on_c, 1, 84, 117
3, 11322, Note_on_c, 1, 84, 0
3, 11340, Note_on_c, 1, 83, 115
3, 11370, Note_on_c, 1, 84, 117
3, 11379, Note_on_c, 1, 83, 0
3, 11392, Note_on_c, 1, 84, 0
3, 11400, Note_on_c, 1, 86, 112
3, 11430, Note_on_c, 1, 83, 115
3, 11434, Note_on_c, 1, 86, 0
3, 11458, Note_on_c, 1, 83, 0
3, 11460, Note_on_c, 1, 79, 97
3, 11488, Note_on_c, 1, 79, 0
3, 11490, Note_on_c, 1, 83, 115
3, 11520, Note_on_c, 1, 81, 112
3, 11529, Note_on_c, 1, 83, 0
3, 11550, Note_on_c, 1, 78, 120
3, 11552, Note_on_c, 1, 81, 0
3, 11580, Note_on_c, 1, 74, 97
3, 11581, Note_on_c, 1, 78, 0
3, 11608, Note_on_c, 1, 74, 0
3, 11610, Note_on_c, 1, 78, 117
3, 11640, Note_on_c, 1, 81, 110
3, 11641, Note_on_c, 1, 78, 0
3, 11668, Note_on_c, 1, 81, 0
3, 11670, Note_on_c, 1, 84, 115
3, 11696, Note_on_c, 1, 84, 0
3, 11700, Note_on_c, 1, 83, 120
3, 11755, Note_on_c, 1, 83, 0
3, 11760, Note_on_c, 1, 81, 117
3, 11805, Note_on_c, 1, 81, 0
3, 11820, Note_on_c, 1, 79, 112
3, 11884, Note_on_c, 1, 79, 0
3, 11940, Note_on_c, 1, 79, 115
3, 11964, Note_on_c, 1, 79, 0
3, 11970, Note_on_c, 1, 81, 108
3, 11993, Note_on_c, 1, 81, 0
3, 12000, Note_on_c, 1, 83, 117
3, 12048, Note_on_c, 1, 83, 0
3, 12060, Note_on_c, 1, 81, 112
3, 12112, Note_on_c, 1, 81, 0
3, 12120, Note_on_c, 1, 79, 108
3, 12168, Note_on_c, 1, 79, 0
3, 12180, Note_on_c, 1, 78, 115
3, 12248, Note_on_c, 1, 78, 0
3, 12300, Note_on_c, 1, 78, 112
3, 12322, Note_on_c, 1, 78, 0
3, 12330, Note_on_c, 1, 79, 108
3, 12355, Note_on_c, 1, 79, 0
3, 12360, Note_on_c, 1, 81, 112
3, 12413, Note_on_c, 1, 81, 0
3, 12420, Note_on_c, 1, 79, 99
3, 12466, Note_on_c, 1, 79, 0
3, 12480, Note_on_c, 1, 74, 90
3, 12501, Note_on_c, 1, 74, 0
3, 12510, Note_on_c, 1, 76, 120
3, 12533, Note_on_c, 1, 76, 0
3, 12540, Note_on_c, 1, 77, 115
3, 12624, Note_on_c, 1, 77, 0
3, 12660, Note_on_c, 1, 76, 115
3, 12683, Note_on_c, 1, 76, 0
3, 12690, Note_on_c, 1, 78, 117
3, 12712, Note_on_c, 1, 78, 0
3, 12720, Note_on_c, 1, 79, 112
3, 12813, Note_on_c, 1, 79, 0
3, 12840, Note_on_c, 1, 78, 120
3, 12862, Note_on_c, 1, 78, 0
3, 12870, Note_on_c, 1, 79, 115
3, 12888, Note_on_c, 1, 79, 0
3, 12900, Note_on_c, 1, 81, 112
3, 13004, Note_on_c, 1, 81, 0
3, 13020, Note_on_c, 1, 79, 112
3, 13043, Note_on_c, 1, 79, 0
3, 13050, Note_on_c, 1, 81, 123
3, 13071, Note_on_c, 1, 81, 0
3, 13080, Note_on_c, 1, 83, 112
3, 13177, Note_on_c, 1, 83, 0
3, 13200, Note_on_c, 1, 81, 108
3, 13220, Note_on_c, 1, 81, 0
3, 13230, Note_on_c, 1, 83, 117
3, 13253, Note_on_c, 1, 83, 0
3, 13260, Note_on_c, 1, 84, 117
3, 13372, Note_on_c, 1, 84, 0
3, 13380, Note_on_c, 1, 83, 120
3, 13406, Note_on_c, 1, 83, 0
3, 13410, Note_on_c, 1, 84, 117
3, 13432, Note_on_c, 1, 84, 0
3, 13440, Note_on_c, 1, 86, 117
3, 13509, Note_on_c, 1, 86, 0
3, 13530, Note_on_c, 1, 76, 112
3, 13560, Note_on_c, 1, 77, 115
3, 13567, Note_on_c, 1, 76, 0
3, 13590, Note_on_c, 1, 79, 112
3, 13592, Note_on_c, 1, 77, 0
3, 13620, Note_on_c, 1, 81, 126
3, 13626, Note_on_c, 1, 79, 0
3, 13650, Note_on_c, 1, 83, 117
3, 13655, Note_on_c, 1, 81, 0
3, 13680, Note_on_c, 1, 84, 120
3, 13689, Note_on_c, 1, 83, 0
3, 13706, Note_on_c, 1, 84, 0
3, 13710, Note_on_c, 1, 88, 112
3, 13731, Note_on_c, 1, 88, 0
3, 13740, Note_on_c, 1, 88, 115
3, 13770, Note_on_c, 1, 84, 117
3, 13775, Note_on_c, 1, 88, 0
3, 13792, Note_on_c, 1, 84, 0
3, 13800, Note_on_c, 1, 84, 108
3, 13830, Note_on_c, 1, 81, 112
3, 13836, Note_on_c, 1, 84, 0
3, 13852, Note_on_c, 1, 81, 0
3, 13860, Note_on_c, 1, 81, 110
3, 13889, Note_on_c, 1, 81, 0
3, 13890, Note_on_c, 1, 84, 120
3, 13911, Note_on_c, 1, 84, 0
3, 13920, Note_on_c, 1, 84, 112
3, 13950, Note_on_c, 1, 81, 115
3, 13953, Note_on_c, 1, 84, 0
3, 13972, Note_on_c, 1, 81, 0
3, 13980, Note_on_c, 1, 81, 108
3, 14010, Note_on_c, 1, 78, 117
3, 14011, Note_on_c, 1, 81, 0
3, 14032, Note_on_c, 1, 78, 0
3, 14040, Note_on_c, 1, 78, 105
3, 14067, Note_on_c, 1, 78, 0
3, 14070, Note_on_c, 1, 81, 110
3, 14091, Note_on_c, 1, 81, 0
3, 14100, Note_on_c, 1, 81, 108
3, 14130, Note_on_c, 1, 78, 112
3, 14133, Note_on_c, 1, 81, 0
3, 14149, Note_on_c, 1, 78, 0
3, 14160, Note_on_c, 1, 78, 103
3, 14188, Note_on_c, 1, 78, 0
3, 14190, Note_on_c, 1, 74, 105
3, 14215, Note_on_c, 1, 74, 0
3, 14220, Note_on_c, 1, 86, 123
3, 14292, Note_on_c, 1, 86, 0
3, 14310, Note_on_c, 1, 79, 112
3, 14331, Note_on_c, 1, 79, 0
3, 14340, Note_on_c, 1, 84, 120
3, 14397, Note_on_c, 1, 84, 0
3, 14430, Note_on_c, 1, 81, 120
3, 14452, Note_on_c, 1, 81, 0
3, 14460, Note_on_c, 1, 83, 120
3, 14517, Note_on_c, 1, 83, 0
3, 14550, Note_on_c, 1, 76, 105
3, 14572, Note_on_c, 1, 76, 0
3, 14580, Note_on_c, 1, 81, 117
3, 14652, Note_on_c, 1, 81, 0
3, 14670, Note_on_c, 1, 78, 123
3, 14690, Note_on_c, 1, 78, 0
3, 14700, Note_on_c, 1, 79, 117
3, 14778, Note_on_c, 1, 79, 0
3, 14790, Note_on_c, 1, 81, 115
3, 14816, Note_on_c, 1, 81, 0
3, 14820, Note_on_c, 1, 78, 126
3, 14907, Note_on_c, 1, 78, 0
3, 14910, Note_on_c, 1, 79, 112
3, 14929, Note_on_c, 1, 79, 0
3, 14940, Note_on_c, 1, 79, 105
3, 15060, Note_on_c, 1, 79, 0
3, 16020, Note_on_c, 1, 86, 105
3, 16440, Note_on_c, 1, 86, 0
3, 18540, Note_on_c, 1, 74, 105
3, 18570, Note_on_c, 1, 74, 0
3, 18570, Note_on_c, 1, 78, 105
3, 18600, Note_on_c, 1, 78, 0
3, 18600, Note_on_c, 1, 81, 105
3, 18630, Note_on_c, 1, 81, 0
3, 18630, Note_on_c, 1, 78, 105
3, 18660, Note_on_c, 1, 78, 0
3, 18660, Note_on_c, 1, 74, 105
3, 18690, Note_on_c, 1, 74, 0
3, 18690, Note_on_c, 1, 78, 105
3, 18720, Note_on_c, 1, 78, 0
3, 18720, Note_on_c, 1, 76, 105
3, 18750, Note_on_c, 1, 76, 0
3, 18750, Note_on_c, 1, 73, 105
3, 18780, Note_on_c, 1, 73, 0
3, 18780, Note_on_c, 1, 69, 105
3, 18810, Note_on_c, 1, 69, 0
3, 18810, Note_on_c, 1, 73, 105
3, 18840, Note_on_c, 1, 73, 0
3, 18840, Note_on_c, 1, 76, 105
3, 18870, Note_on_c, 1, 76, 0
3, 18870, Note_on_c, 1, 79, 105
3, 18900, Note_on_c, 1, 79, 0
3, 18900, Note_on_c, 1, 78, 105
3, 19020, Note_on_c, 1, 78, 0
3, 19980, Note_on_c, 1, 81, 105
3, 20400, Note_on_c, 1, 81, 0
3, 22560, Note_on_c, 1, 76, 105
3, 22590, Note_on_c, 1, 76, 0
3, 22590, Note_on_c, 1, 78, 105
3, 22620, Note_on_c, 1, 78, 0
3, 22620, Note_on_c, 1, 76, 105
3, 22650, Note_on_c, 1, 76, 0
3, 22650, Note_on_c, 1, 78, 105
3, 22680, Note_on_c, 1, 78, 0
3, 22680, Note_on_c, 1, 79, 105
3, 22710, Note_on_c, 1, 79, 0
3, 22710, Note_on_c, 1, 78, 105
3, 22740, Note_on_c, 1, 78, 0
3, 22740, Note_on_c, 1, 76, 105
3, 22770, Note_on_c, 1, 76, 0
3, 22770, Note_on_c, 1, 78, 105
3, 22800, Note_on_c, 1, 78, 0
3, 22800, Note_on_c, 1, 79, 105
3, 22890, Note_on_c, 1, 79, 0
3, 22890, Note_on_c, 1, 78, 105
3, 22920, Note_on_c, 1, 78, 0
3, 22920, Note_on_c, 1, 76, 105
3, 22950, Note_on_c, 1, 76, 0
3, 22950, Note_on_c, 1, 78, 105
3, 22980, Note_on_c, 1, 78, 0
3, 22980, Note_on_c, 1, 79, 105
3, 23010, Note_on_c, 1, 79, 0
3, 23010, Note_on_c, 1, 78, 105
3, 23040, Note_on_c, 1, 78, 0
3, 23040, Note_on_c, 1, 79, 105
3, 23070, Note_on_c, 1, 79, 0
3, 23070, Note_on_c, 1, 83, 105
3, 23100, Note_on_c, 1, 83, 0
3, 23100, Note_on_c, 1, 81, 105
3, 23130, Note_on_c, 1, 81, 0
3, 23130, Note_on_c, 1, 79, 105
3, 23160, Note_on_c, 1, 79, 0
3, 23160, Note_on_c, 1, 78, 105
3, 23190, Note_on_c, 1, 78, 0
3, 23190, Note_on_c, 1, 76, 105
3, 23220, Note_on_c, 1, 76, 0
3, 23220, Note_on_c, 1, 78, 105
3, 23970, Note_on_c, 1, 78, 0
3, 23970, Note_on_c, 1, 76, 105
3, 24000, Note_on_c, 1, 76, 0
3, 24000, Note_on_c, 1, 78, 105
3, 24030, Note_on_c, 1, 78, 0
3, 24030, Note_on_c, 1, 79, 105
3, 24060, Note_on_c, 1, 79, 0
3, 24060, Note_on_c, 1, 78, 105
3, 24090, Note_on_c, 1, 78, 0
3, 24090, Note_on_c, 1, 79, 105
3, 24120, Note_on_c, 1, 79, 0
3, 24120, Note_on_c, 1, 81, 105
3, 24150, Note_on_c, 1, 81, 0
3, 24150, Note_on_c, 1, 79, 105
3, 24180, Note_on_c, 1, 79, 0
3, 24180, Note_on_c, 1, 78, 105
3, 24210, Note_on_c, 1, 78, 0
3, 24210, Note_on_c, 1, 79, 105
3, 24240, Note_on_c, 1, 79, 0
3, 24240, Note_on_c, 1, 81, 105
3, 24330, Note_on_c, 1, 81, 0
3, 24330, Note_on_c, 1, 79, 105
3, 24360, Note_on_c, 1, 79, 0
3, 24360, Note_on_c, 1, 78, 105
3, 24390, Note_on_c, 1, 78, 0
3, 24390, Note_on_c, 1, 79, 105
3, 24420, Note_on_c, 1, 79, 0
3, 24420, Note_on_c, 1, 81, 105
3, 24450, Note_on_c, 1, 81, 0
3, 24450, Note_on_c, 1, 79, 105
3, 24480, Note_on_c, 1, 79, 0
3, 24480, Note_on_c, 1, 81, 105
3, 24510, Note_on_c, 1, 81, 0
3, 24510, Note_on_c, 1, 84, 105
3, 24540, Note_on_c, 1, 84, 0
3, 24540, Note_on_c, 1, 83, 105
3, 24570, Note_on_c, 1, 83, 0
3, 24570, Note_on_c, 1, 81, 105
3, 24600, Note_on_c, 1, 81, 0
3, 24600, Note_on_c, 1, 79, 105
3, 24630, Note_on_c, 1, 79, 0
3, 24630, Note_on_c, 1, 78, 105
3, 24660, Note_on_c, 1, 78, 0
3, 24660, Note_on_c, 1, 79, 105
3, 24690, Note_on_c, 1, 79, 0
3, 24690, Note_on_c, 1, 83, 105
3, 24720, Note_on_c, 1, 83, 0
3, 24720, Note_on_c, 1, 88, 105
3, 24750, Note_on_c, 1, 88, 0
3, 24750, Note_on_c, 1, 83, 105
3, 24780, Note_on_c, 1, 83, 0
3, 24780, Note_on_c, 1, 79, 105
3, 24810, Note_on_c, 1, 79, 0
3, 24810, Note_on_c, 1, 76, 105
3, 24840, Note_on_c, 1, 76, 0
3, 24840, Note_on_c, 1, 75, 105
3, 24870, Note_on_c, 1, 75, 0
3, 24870, Note_on_c, 1, 78, 105
3, 24900, Note_on_c, 1, 78, 0
3, 24900, Note_on_c, 1, 83, 105
3, 24930, Note_on_c, 1, 83, 0
3, 24930, Note_on_c, 1, 78, 105
3, 24960, Note_on_c, 1, 78, 0
3, 24960, Note_on_c, 1, 75, 105
3, 24990, Note_on_c, 1, 75, 0
3, 24990, Note_on_c, 1, 71, 105
3, 25020, Note_on_c, 1, 71, 0
3, 25020, Note_on_c, 1, 83, 105
3, 25080, Note_on_c, 1, 83, 0
3, 25080, Note_on_c, 1, 81, 105
3, 25140, Note_on_c, 1, 81, 0
3, 25140, Note_on_c, 1, 79, 105
3, 25200, Note_on_c, 1, 79, 0
3, 25260, Note_on_c, 1, 79, 105
3, 25290, Note_on_c, 1, 79, 0
3, 25290, Note_on_c, 1, 81, 105
3, 25320, Note_on_c, 1, 81, 0
3, 25320, Note_on_c, 1, 83, 105
3, 25380, Note_on_c, 1, 83, 0
3, 25380, Note_on_c, 1, 81, 105
3, 25440, Note_on_c, 1, 81, 0
3, 25440, Note_on_c, 1, 79, 105
3, 25500, Note_on_c, 1, 79, 0
3, 25500, Note_on_c, 1, 78, 105
3, 25560, Note_on_c, 1, 78, 0
3, 25620, Note_on_c, 1, 78, 105
3, 25650, Note_on_c, 1, 78, 0
3, 25650, Note_on_c, 1, 79, 105
3, 25680, Note_on_c, 1, 79, 0
3, 25680, Note_on_c, 1, 81, 105
3, 25740, Note_on_c, 1, 81, 0
3, 25740, Note_on_c, 1, 79, 105
3, 25800, Note_on_c, 1, 79, 0
3, 25800, Note_on_c, 1, 71, 105
3, 25830, Note_on_c, 1, 71, 0
3, 25830, Note_on_c, 1, 73, 105
3, 25860, Note_on_c, 1, 73, 0
3, 25860, Note_on_c, 1, 74, 105
3, 25980, Note_on_c, 1, 74, 0
3, 25980, Note_on_c, 1, 73, 105
3, 26010, Note_on_c, 1, 73, 0
3, 26010, Note_on_c, 1, 75, 105
3, 26040, Note_on_c, 1, 75, 0
3, 26040, Note_on_c, 1, 76, 105
3, 26160, Note_on_c, 1, 76, 0
3, 26160, Note_on_c, 1, 75, 105
3, 26190, Note_on_c, 1, 75, 0
3, 26190, Note_on_c, 1, 76, 105
3, 26220, Note_on_c, 1, 76, 0
3, 26220, Note_on_c, 1, 78, 105
3, 26340, Note_on_c, 1, 78, 0
3, 26340, Note_on_c, 1, 76, 105
3, 26370, Note_on_c, 1, 76, 0
3, 26370, Note_on_c, 1, 78, 105
3, 26400, Note_on_c, 1, 78, 0
3, 26400, Note_on_c, 1, 79, 105
3, 26520, Note_on_c, 1, 79, 0
3, 26520, Note_on_c, 1, 78, 105
3, 26550, Note_on_c, 1, 78, 0
3, 26550, Note_on_c, 1, 79, 105
3, 26580, Note_on_c, 1, 79, 0
3, 26580, Note_on_c, 1, 81, 105
3, 26700, Note_on_c, 1, 81, 0
3, 26700, Note_on_c, 1, 79, 105
3, 26730, Note_on_c, 1, 79, 0
3, 26730, Note_on_c, 1, 81, 105
3, 26760, Note_on_c, 1, 81, 0
3, 26760, Note_on_c, 1, 83, 105
3, 26850, Note_on_c, 1, 83, 0
3, 26850, Note_on_c, 1, 72, 105
3, 26880, Note_on_c, 1, 72, 0
3, 26880, Note_on_c, 1, 74, 105
3, 26910, Note_on_c, 1, 74, 0
3, 26910, Note_on_c, 1, 76, 105
3, 26940, Note_on_c, 1, 76, 0
3, 26940, Note_on_c, 1, 78, 105
3, 26970, Note_on_c, 1, 78, 0
3, 26970, Note_on_c, 1, 80, 105
3, 27000, Note_on_c, 1, 80, 0
3, 27000, Note_on_c, 1, 81, 105
3, 27030, Note_on_c, 1, 81, 0
3, 27030, Note_on_c, 1, 84, 105
3, 27060, Note_on_c, 1, 84, 0
3, 27060, Note_on_c, 1, 84, 105
3, 27090, Note_on_c, 1, 84, 0
3, 27090, Note_on_c, 1, 81, 105
3, 27120, Note_on_c, 1, 81, 0
3, 27120, Note_on_c, 1, 81, 105
3, 27150, Note_on_c, 1, 81, 0
3, 27150, Note_on_c, 1, 77, 105
3, 27180, Note_on_c, 1, 77, 0
3, 27180, Note_on_c, 1, 77, 105
3, 27210, Note_on_c, 1, 77, 0
3, 27210, Note_on_c, 1, 81, 105
3, 27240, Note_on_c, 1, 81, 0
3, 27240, Note_on_c, 1, 81, 105
3, 27270, Note_on_c, 1, 81, 0
3, 27270, Note_on_c, 1, 77, 105
3, 27300, Note_on_c, 1, 77, 0
3, 27300, Note_on_c, 1, 77, 105
3, 27330, Note_on_c, 1, 77, 0
3, 27330, Note_on_c, 1, 75, 105
3, 27360, Note_on_c, 1, 75, 0
3, 27360, Note_on_c, 1, 75, 105
3, 27390, Note_on_c, 1, 75, 0
3, 27390, Note_on_c, 1, 78, 105
3, 27420, Note_on_c, 1, 78, 0
3, 27420, Note_on_c, 1, 78, 105
3, 27450, Note_on_c, 1, 78, 0
3, 27450, Note_on_c, 1, 75, 105
3, 27480, Note_on_c, 1, 75, 0
3, 27480, Note_on_c, 1, 75, 105
3, 27510, Note_on_c, 1, 75, 0
3, 27510, Note_on_c, 1, 71, 105
3, 27540, Note_on_c, 1, 71, 0
3, 27540, Note_on_c, 1, 71, 105
3, 27570, Note_on_c, 1, 71, 0
3, 27570, Note_on_c, 1, 83, 105
3, 27600, Note_on_c, 1, 83, 0
3, 27600, Note_on_c, 1, 88, 105
3, 27660, Note_on_c, 1, 88, 0
3, 27690, Note_on_c, 1, 84, 105
3, 27720, Note_on_c, 1, 84, 0
3, 27720, Note_on_c, 1, 86, 105
3, 27780, Note_on_c, 1, 86, 0
3, 27810, Note_on_c, 1, 79, 105
3, 27840, Note_on_c, 1, 79, 0
3, 27840, Note_on_c, 1, 84, 105
3, 27900, Note_on_c, 1, 84, 0
3, 27930, Note_on_c, 1, 84, 105
3, 27960, Note_on_c, 1, 84, 0
3, 27960, Note_on_c, 1, 83, 105
3, 27990, Note_on_c, 1, 83, 0
3, 27990, Note_on_c, 1, 81, 105
3, 28020, Note_on_c, 1, 81, 0
3, 28020, Note_on_c, 1, 79, 105
3, 28050, Note_on_c, 1, 79, 0
3, 28050, Note_on_c, 1, 78, 105
3, 28080, Note_on_c, 1, 78, 0
3, 28080, Note_on_c, 1, 79, 105
3, 28110, Note_on_c, 1, 79, 0
3, 28110, Note_on_c, 1, 81, 105
3, 28140, Note_on_c, 1, 81, 0
3, 28140, Note_on_c, 1, 78, 105
3, 28230, Note_on_c, 1, 78, 0
3, 28230, Note_on_c, 1, 76, 105
3, 28260, Note_on_c, 1, 76, 0
3, 28260, Note_on_c, 1, 76, 105
3, 28288, Note_on_c, 1, 76, 0
3, 28290, Note_on_c, 1, 83, 105
3, 28320, Note_on_c, 1, 81, 105
3, 28321, Note_on_c, 1, 83, 0
3, 28350, Note_on_c, 1, 79, 105
3, 28352, Note_on_c, 1, 81, 0
3, 28380, Note_on_c, 1, 78, 105
3, 28384, Note_on_c, 1, 79, 0
3, 28410, Note_on_c, 1, 81, 105
3, 28413, Note_on_c, 1, 78, 0
3, 28440, Note_on_c, 1, 81, 0
3, 28440, Note_on_c, 1, 79, 105
3, 28483, Note_on_c, 1, 79, 0
3, 28500, Note_on_c, 1, 78, 117
3, 28530, Note_on_c, 1, 78, 0
3, 28530, Note_on_c, 1, 76, 90
3, 28560, Note_on_c, 1, 75, 78
3, 28561, Note_on_c, 1, 76, 0
3, 28590, Note_on_c, 1, 78, 103
3, 28591, Note_on_c, 1, 75, 0
3, 28620, Note_on_c, 1, 78, 0
3, 28620, Note_on_c, 1, 76, 80
3, 28643, Note_on_c, 1, 76, 0
3, 28650, Note_on_c, 1, 83, 97
3, 28680, Note_on_c, 1, 81, 110
3, 28682, Note_on_c, 1, 83, 0
3, 28710, Note_on_c, 1, 79, 117
3, 28714, Note_on_c, 1, 81, 0
3, 28740, Note_on_c, 1, 78, 115
3, 28743, Note_on_c, 1, 79, 0
3, 28770, Note_on_c, 1, 81, 103
3, 28775, Note_on_c, 1, 78, 0
3, 28799, Note_on_c, 1, 81, 0
3, 28800, Note_on_c, 1, 79, 115
3, 28830, Note_on_c, 1, 79, 0
3, 28830, Note_on_c, 1, 83, 101
3, 28860, Note_on_c, 1, 83, 0
3, 28860, Note_on_c, 1, 81, 110
3, 28890, Note_on_c, 1, 79, 97
3, 28894, Note_on_c, 1, 81, 0
3, 28920, Note_on_c, 1, 78, 103
3, 28923, Note_on_c, 1, 79, 0
3, 28948, Note_on_c, 1, 78, 0
3, 28950, Note_on_c, 1, 76, 68
3, 28980, Note_on_c, 1, 75, 88
3, 28987, Note_on_c, 1, 76, 0
3, 29010, Note_on_c, 1, 78, 110
3, 29014, Note_on_c, 1, 75, 0
3, 29037, Note_on_c, 1, 78, 0
3, 29040, Note_on_c, 1, 79, 99
3, 29067, Note_on_c, 1, 79, 0
3, 29070, Note_on_c, 1, 81, 99
3, 29100, Note_on_c, 1, 83, 110
3, 29104, Note_on_c, 1, 81, 0
3, 29129, Note_on_c, 1, 83, 0
3, 29130, Note_on_c, 1, 78, 101
3, 29157, Note_on_c, 1, 78, 0
3, 29160, Note_on_c, 1, 79, 110
3, 29203, Note_on_c, 1, 79, 0
3, 29216, Note_on_c, 1, 81, 110
3, 29234, Note_on_c, 1, 80, 112
3, 29237, Note_on_c, 1, 81, 0
3, 29250, Note_on_c, 1, 81, 105
3, 29252, Note_on_c, 1, 80, 0
3, 29266, Note_on_c, 1, 80, 115
3, 29268, Note_on_c, 1, 81, 0
3, 29280, Note_on_c, 1, 81, 103
3, 29283, Note_on_c, 1, 80, 0
3, 29296, Note_on_c, 1, 80, 110
3, 29299, Note_on_c, 1, 81, 0
3, 29311, Note_on_c, 1, 78, 123
3, 29312, Note_on_c, 1, 80, 0
3, 29326, Note_on_c, 1, 80, 105
3, 29332, Note_on_c, 1, 78, 0
3, 29343, Note_on_c, 1, 81, 112
3, 29344, Note_on_c, 1, 80, 0
3, 29368, Note_on_c, 1, 81, 0
3, 29373, Note_on_c, 1, 76, 105
3, 29402, Note_on_c, 1, 78, 123
3, 29405, Note_on_c, 1, 76, 0
3, 29430, Note_on_c, 1, 79, 115
3, 29434, Note_on_c, 1, 78, 0
3, 29462, Note_on_c, 1, 81, 112
3, 29465, Note_on_c, 1, 79, 0
3, 29489, Note_on_c, 1, 81, 0
3, 29489, Note_on_c, 1, 76, 103
3, 29517, Note_on_c, 1, 76, 0
3, 29517, Note_on_c, 1, 77, 120
3, 29558, Note_on_c, 1, 77, 0
3, 29576, Note_on_c, 1, 79, 115
3, 29593, Note_on_c, 1, 79, 0
3, 29593, Note_on_c, 1, 78, 117
3, 29608, Note_on_c, 1, 79, 95
3, 29609, Note_on_c, 1, 78, 0
3, 29622, Note_on_c, 1, 78, 101
3, 29624, Note_on_c, 1, 79, 0
3, 29637, Note_on_c, 1, 79, 95
3, 29639, Note_on_c, 1, 78, 0
3, 29652, Note_on_c, 1, 78, 120
3, 29654, Note_on_c, 1, 79, 0
3, 29670, Note_on_c, 1, 78, 0
3, 29670, Note_on_c, 1, 76, 82
3, 29683, Note_on_c, 1, 78, 97
3, 29686, Note_on_c, 1, 76, 0
3, 29700, Note_on_c, 1, 79, 95
3, 29703, Note_on_c, 1, 78, 0
3, 29717, Control_c, 1, 7, 61
3, 29722, Control_c, 1, 7, 63
3, 29727, Control_c, 1, 7, 63
3, 29730, Note_on_c, 1, 83, 115
3, 29731, Note_on_c, 1, 79, 0
3, 29732, Control_c, 1, 7, 64
3, 29744, Control_c, 1, 7, 64
3, 29744, Control_c, 1, 7, 67
3, 29754, Control_c, 1, 7, 68
3, 29760, Note_on_c, 1, 85, 117
3, 29760, Control_c, 1, 7, 69
3, 29766, Note_on_c, 1, 83, 0
3, 29771, Control_c, 1, 7, 72
3, 29773, Control_c, 1, 7, 73
3, 29779, Control_c, 1, 7, 74
3, 29784, Control_c, 1, 7, 77
3, 29789, Control_c, 1, 7, 78
3, 29790, Note_on_c, 1, 86, 110
3, 29794, Note_on_c, 1, 85, 0
3, 29811, Control_c, 1, 7, 82
3, 29820, Note_on_c, 1, 88, 108
3, 29821, Note_on_c, 1, 86, 0
3, 29823, Control_c, 1, 7, 83
3, 29831, Control_c, 1, 7, 84
3, 29831, Control_c, 1, 7, 86
3, 29850, Note_on_c, 1, 88, 0
3, 29850, Note_on_c, 1, 85, 112
3, 29852, Control_c, 1, 7, 88
3, 29855, Control_c, 1, 7, 89
3, 29865, Control_c, 1, 7, 91
3, 29870, Control_c, 1, 7, 93
3, 29875, Control_c, 1, 7, 95
3, 29878, Note_on_c, 1, 85, 0
3, 29880, Note_on_c, 1, 82, 120
3, 29880, Control_c, 1, 7, 99
3, 29893, Control_c, 1, 7, 99
3, 29899, Note_on_c, 1, 82, 0
3, 29909, Control_c, 1, 7, 100
3, 29910, Note_on_c, 1, 85, 123
3, 29920, Control_c, 1, 7, 101
3, 29923, Control_c, 1, 7, 101
3, 29935, Control_c, 1, 7, 102
3, 29938, Note_on_c, 1, 85, 0
3, 29940, Note_on_c, 1, 83, 97
3, 29953, Control_c, 1, 7, 103
3, 29958, Control_c, 1, 7, 103
3, 29958, Control_c, 1, 7, 104
3, 29968, Control_c, 1, 7, 105
3, 29970, Note_on_c, 1, 85, 103
3, 29972, Note_on_c, 1, 83, 0
3, 29973, Control_c, 1, 7, 106
3, 29979, Control_c, 1, 7, 107
3, 29984, Control_c, 1, 7, 109
3, 29984, Control_c, 1, 7, 109
3, 30000, Note_on_c, 1, 86, 103
3, 30001, Control_c, 1, 7, 111
3, 30002, Note_on_c, 1, 85, 0
3, 30010, Control_c, 1, 7, 111
3, 30010, Control_c, 1, 7, 112
3, 30030, Note_on_c, 1, 83, 112
3, 30030, Control_c, 1, 7, 114
3, 30032, Note_on_c, 1, 86, 0
3, 30037, Control_c, 1, 7, 114
3, 30042, Control_c, 1, 7, 116
3, 30042, Control_c, 1, 7, 117
3, 30047, Control_c, 1, 7, 118
3, 30060, Note_on_c, 1, 83, 0
3, 30060, Note_on_c, 1, 80, 112
3, 30083, Note_on_c, 1, 80, 0
3, 30088, Control_c, 1, 7, 118
3, 30088, Control_c, 1, 7, 120
3, 30090, Note_on_c, 1, 83, 112
3, 30096, Control_c, 1, 7, 120
3, 30104, Control_c, 1, 7, 121
3, 30109, Control_c, 1, 7, 122
3, 30120, Note_on_c, 1, 82, 120
3, 30123, Note_on_c, 1, 83, 0
3, 30150, Note_on_c, 1, 83, 112
3, 30152, Note_on_c, 1, 82, 0
3, 30180, Note_on_c, 1, 85, 117
3, 30184, Note_on_c, 1, 83, 0
3, 30210, Note_on_c, 1, 82, 120
3, 30211, Note_on_c, 1, 85, 0
3, 30240, Note_on_c, 1, 78, 101
3, 30242, Note_on_c, 1, 82, 0
3, 30288, Control_c, 1, 7, 121
3, 30306, Control_c, 1, 7, 120
3, 30319, Control_c, 1, 7, 119
3, 30329, Control_c, 1, 7, 118
3, 30341, Control_c, 1, 7, 117
3, 30371, Control_c, 1, 7, 115
3, 30376, Control_c, 1, 7, 114
3, 30447, Control_c, 1, 7, 114
3, 30452, Control_c, 1, 7, 113
3, 30455, Note_on_c, 1, 78, 0
3, 30480, Note_on_c, 1, 76, 112
3, 30620, Note_on_c, 1, 76, 0
3, 30630, Note_on_c, 1, 73, 117
3, 30660, Note_on_c, 1, 73, 0
3, 30660, Note_on_c, 1, 74, 92
3, 30688, Control_c, 1, 7, 114
3, 30690, Note_on_c, 1, 76, 112
3, 30694, Note_on_c, 1, 74, 0
3, 30720, Note_on_c, 1, 78, 117
3, 30728, Note_on_c, 1, 76, 0
3, 30750, Note_on_c, 1, 74, 97
3, 30751, Note_on_c, 1, 78, 0
3, 30761, Control_c, 1, 7, 114
3, 30777, Note_on_c, 1, 74, 0
3, 30780, Note_on_c, 1, 79, 112
3, 30795, Control_c, 1, 7, 115
3, 30800, Control_c, 1, 7, 116
3, 30805, Control_c, 1, 7, 116
3, 30805, Control_c, 1, 7, 117
3, 30972, Note_on_c, 1, 79, 0
3, 30990, Note_on_c, 1, 76, 105
3, 31020, Note_on_c, 1, 78, 117
3, 31023, Note_on_c, 1, 76, 0
3, 31050, Note_on_c, 1, 79, 112
3, 31055, Note_on_c, 1, 78, 0
3, 31080, Note_on_c, 1, 81, 112
3, 31086, Note_on_c, 1, 79, 0
3, 31108, Note_on_c, 1, 81, 0
3, 31110, Note_on_c, 1, 78, 123
3, 31140, Note_on_c, 1, 83, 110
3, 31141, Note_on_c, 1, 78, 0
3, 31336, Note_on_c, 1, 83, 0
3, 31350, Note_on_c, 1, 79, 108
3, 31365, Control_c, 1, 7, 117
3, 31370, Control_c, 1, 7, 118
3, 31380, Note_on_c, 1, 81, 115
3, 31380, Control_c, 1, 7, 119
3, 31380, Control_c, 1, 7, 120
3, 31382, Note_on_c, 1, 79, 0
3, 31407, Control_c, 1, 7, 120
3, 31410, Note_on_c, 1, 83, 115
3, 31412, Control_c, 1, 7, 122
3, 31418, Note_on_c, 1, 81, 0
3, 31420, Control_c, 1, 7, 124
3, 31423, Control_c, 1, 7, 125
3, 31440, Note_on_c, 1, 84, 112
3, 31445, Note_on_c, 1, 83, 0
3, 31445, Control_c, 1, 7, 126
3, 31470, Note_on_c, 1, 81, 115
3, 31473, Note_on_c, 1, 84, 0
3, 31493, Control_c, 1, 7, 125
3, 31500, Note_on_c, 1, 86, 115
3, 31504, Note_on_c, 1, 81, 0
3, 31682, Note_on_c, 1, 86, 0
3, 31710, Note_on_c, 1, 83, 86
3, 31740, Note_on_c, 1, 84, 108
3, 31744, Note_on_c, 1, 83, 0
3, 31770, Note_on_c, 1, 86, 115
3, 31777, Note_on_c, 1, 84, 0
3, 31800, Note_on_c, 1, 88, 112
3, 31806, Note_on_c, 1, 86, 0
3, 31830, Note_on_c, 1, 84, 115
3, 31831, Note_on_c, 1, 88, 0
3, 31850, Note_on_c, 1, 84, 0
3, 31860, Note_on_c, 1, 89, 115
3, 31890, Note_on_c, 1, 88, 112
3, 31896, Note_on_c, 1, 89, 0
3, 31920, Note_on_c, 1, 86, 115
3, 31925, Note_on_c, 1, 88, 0
3, 31950, Note_on_c, 1, 84, 110
3, 31953, Note_on_c, 1, 86, 0
3, 31978, Note_on_c, 1, 84, 0
3, 31980, Note_on_c, 1, 83, 95
3, 32006, Note_on_c, 1, 83, 0
3, 32010, Note_on_c, 1, 86, 117
3, 32032, Note_on_c, 1, 86, 0
3, 32040, Note_on_c, 1, 88, 112
3, 32070, Note_on_c, 1, 86, 112
3, 32078, Note_on_c, 1, 88, 0
3, 32100, Note_on_c, 1, 84, 117
3, 32106, Note_on_c, 1, 86, 0
3, 32130, Note_on_c, 1, 83, 110
3, 32135, Note_on_c, 1, 84, 0
3, 32160, Note_on_c, 1, 81, 92
3, 32164, Note_on_c, 1, 83, 0
3, 32187, Note_on_c, 1, 81, 0
3, 32190, Note_on_c, 1, 84, 117
3, 32216, Note_on_c, 1, 84, 0
3, 32220, Note_on_c, 1, 86, 112
3, 32423, Note_on_c, 1, 86, 0
3, 32460, Note_on_c, 1, 84, 110
3, 32490, Note_on_c, 1, 83, 115
3, 32494, Note_on_c, 1, 84, 0
3, 32520, Note_on_c, 1, 84, 115
3, 32525, Note_on_c, 1, 83, 0
3, 32598, Note_on_c, 1, 84, 0
3, 32610, Note_on_c, 1, 84, 115
3, 32640, Note_on_c, 1, 83, 103
3, 32646, Note_on_c, 1, 84, 0
3, 32670, Note_on_c, 1, 83, 0
3, 32670, Note_on_c, 1, 81, 88
3, 32700, Note_on_c, 1, 80, 82
3, 32704, Note_on_c, 1, 81, 0
3, 32730, Note_on_c, 1, 83, 95
3, 32734, Note_on_c, 1, 80, 0
3, 32760, Note_on_c, 1, 83, 0
3, 32760, Note_on_c, 1, 76, 92
3, 32801, Note_on_c, 1, 76, 0
3, 32820, Note_on_c, 1, 88, 115
3, 32957, Note_on_c, 1, 88, 0
3, 32970, Note_on_c, 1, 88, 105
3, 32999, Note_on_c, 1, 86, 105
3, 33005, Note_on_c, 1, 88, 0
3, 33029, Note_on_c, 1, 84, 115
3, 33034, Note_on_c, 1, 86, 0
3, 33058, Note_on_c, 1, 83, 101
3, 33059, Note_on_c, 1, 84, 0
3, 33089, Note_on_c, 1, 86, 84
3, 33095, Note_on_c, 1, 83, 0
3, 33117, Note_on_c, 1, 80, 112
3, 33122, Note_on_c, 1, 86, 0
3, 33165, Note_on_c, 1, 80, 0
3, 33175, Note_on_c, 1, 83, 112
3, 33190, Note_on_c, 1, 81, 110
3, 33191, Note_on_c, 1, 83, 0
3, 33201, Note_on_c, 1, 83, 95
3, 33203, Note_on_c, 1, 81, 0
3, 33215, Note_on_c, 1, 81, 108
3, 33216, Note_on_c, 1, 83, 0
3, 33224, Note_on_c, 1, 83, 95
3, 33227, Note_on_c, 1, 81, 0
3, 33236, Note_on_c, 1, 81, 112
3, 33239, Note_on_c, 1, 83, 0
3, 33247, Note_on_c, 1, 83, 97
3, 33252, Note_on_c, 1, 81, 0
3, 33293, Note_on_c, 1, 83, 0
3, 33300, Note_on_c, 1, 81, 110
3, 33330, Note_on_c, 1, 84, 99
3, 33337, Note_on_c, 1, 81, 0
3, 33360, Note_on_c, 1, 88, 105
3, 33364, Note_on_c, 1, 84, 0
3, 33372, Control_c, 1, 7, 124
3, 33375, Control_c, 1, 7, 121
3, 33385, Control_c, 1, 7, 116
3, 33390, Note_on_c, 1, 84, 115
3, 33390, Control_c, 1, 7, 113
3, 33395, Note_on_c, 1, 88, 0
3, 33400, Control_c, 1, 7, 111
3, 33400, Control_c, 1, 7, 104
3, 33410, Control_c, 1, 7, 103
3, 33415, Control_c, 1, 7, 101
3, 33420, Note_on_c, 1, 81, 115
3, 33420, Control_c, 1, 7, 100
3, 33421, Note_on_c, 1, 84, 0
3, 33427, Control_c, 1, 7, 98
3, 33432, Control_c, 1, 7, 95
3, 33437, Control_c, 1, 7, 95
3, 33442, Control_c, 1, 7, 94
3, 33447, Control_c, 1, 7, 92
3, 33450, Note_on_c, 1, 84, 99
3, 33452, Control_c, 1, 7, 91
3, 33453, Note_on_c, 1, 81, 0
3, 33463, Control_c, 1, 7, 88
3, 33468, Control_c, 1, 7, 85
3, 33469, Note_on_c, 1, 84, 0
3, 33474, Control_c, 1, 7, 82
3, 33480, Note_on_c, 1, 83, 112
3, 33480, Control_c, 1, 7, 80
3, 33485, Control_c, 1, 7, 74
3, 33496, Control_c, 1, 7, 72
3, 33501, Control_c, 1, 7, 71
3, 33506, Control_c, 1, 7, 69
3, 33510, Note_on_c, 1, 83, 0
3, 33510, Note_on_c, 1, 80, 108
3, 33511, Control_c, 1, 7, 67
3, 33518, Control_c, 1, 7, 65
3, 33523, Control_c, 1, 7, 64
3, 33540, Note_on_c, 1, 76, 105
3, 33544, Note_on_c, 1, 80, 0
3, 33570, Note_on_c, 1, 80, 105
3, 33573, Note_on_c, 1, 76, 0
3, 33595, Control_c, 1, 7, 64
3, 33595, Control_c, 1, 7, 63
3, 33600, Note_on_c, 1, 83, 92
3, 33607, Note_on_c, 1, 80, 0
3, 33630, Note_on_c, 1, 86, 117
3, 33631, Note_on_c, 1, 83, 0
3, 33660, Note_on_c, 1, 86, 0
3, 33660, Note_on_c, 1, 84, 115
3, 33715, Note_on_c, 1, 84, 0
3, 33720, Note_on_c, 1, 83, 115
3, 33764, Note_on_c, 1, 83, 0
3, 33780, Note_on_c, 1, 81, 108
3, 33829, Note_on_c, 1, 81, 0
3, 33900, Note_on_c, 1, 81, 101
3, 33927, Note_on_c, 1, 81, 0
3, 33930, Note_on_c, 1, 83, 115
3, 33952, Note_on_c, 1, 83, 0
3, 33960, Note_on_c, 1, 84, 108
3, 34008, Note_on_c, 1, 84, 0
3, 34020, Note_on_c, 1, 83, 95
3, 34080, Note_on_c, 1, 81, 112
3, 34086, Note_on_c, 1, 83, 0
3, 34131, Note_on_c, 1, 81, 0
3, 34140, Note_on_c, 1, 80, 115
3, 34191, Note_on_c, 1, 80, 0
3, 34260, Note_on_c, 1, 80, 86
3, 34284, Note_on_c, 1, 80, 0
3, 34290, Note_on_c, 1, 81, 95
3, 34312, Note_on_c, 1, 81, 0
3, 34320, Note_on_c, 1, 83, 112
3, 34364, Note_on_c, 1, 83, 0
3, 34440, Note_on_c, 1, 76, 110
3, 34468, Note_on_c, 1, 76, 0
3, 34470, Note_on_c, 1, 74, 117
3, 34492, Note_on_c, 1, 74, 0
3, 34500, Note_on_c, 1, 76, 110
3, 34544, Note_on_c, 1, 76, 0
3, 34620, Note_on_c, 1, 74, 115
3, 34647, Note_on_c, 1, 74, 0
3, 34650, Note_on_c, 1, 72, 112
3, 34669, Note_on_c, 1, 72, 0
3, 34680, Note_on_c, 1, 74, 110
3, 34726, Note_on_c, 1, 74, 0
3, 34740, Note_on_c, 1, 72, 110
3, 34793, Note_on_c, 1, 72, 0
3, 34920, Note_on_c, 1, 76, 105
3, 34981, Note_on_c, 1, 76, 0
3, 35100, Note_on_c, 1, 80, 110
3, 35165, Note_on_c, 1, 80, 0
3, 35280, Note_on_c, 1, 83, 108
3, 35325, Note_on_c, 1, 83, 0
3, 35460, Note_on_c, 1, 76, 112
3, 35517, Note_on_c, 1, 76, 0
3, 35580, Note_on_c, 1, 72, 115
3, 35610, Note_on_c, 1, 71, 112
3, 35614, Note_on_c, 1, 72, 0
3, 35634, Note_on_c, 1, 71, 0
3, 35640, Note_on_c, 1, 72, 115
3, 35677, Note_on_c, 1, 72, 0
3, 35760, Note_on_c, 1, 76, 112
3, 35811, Note_on_c, 1, 76, 0
3, 35820, Note_on_c, 1, 81, 115
3, 35875, Note_on_c, 1, 81, 0
3, 35880, Note_on_c, 1, 77, 110
3, 35927, Note_on_c, 1, 77, 0
3, 35940, Note_on_c, 1, 77, 115
3, 35969, Note_on_c, 1, 77, 0
3, 35970, Note_on_c, 1, 76, 112
3, 35993, Note_on_c, 1, 76, 0
3, 36000, Note_on_c, 1, 77, 110
3, 36050, Note_on_c, 1, 77, 0
3, 36120, Note_on_c, 1, 69, 99
3, 36170, Note_on_c, 1, 69, 0
3, 36180, Note_on_c, 1, 74, 112
3, 36235, Note_on_c, 1, 74, 0
3, 36240, Note_on_c, 1, 71, 108
3, 36291, Note_on_c, 1, 71, 0
3, 36300, Note_on_c, 1, 71, 110
3, 36328, Note_on_c, 1, 71, 0
3, 36330, Note_on_c, 1, 69, 112
3, 36353, Note_on_c, 1, 69, 0
3, 36360, Note_on_c, 1, 71, 115
3, 36421, Note_on_c, 1, 71, 0
3, 36480, Note_on_c, 1, 74, 99
3, 36533, Note_on_c, 1, 74, 0
3, 36540, Note_on_c, 1, 79, 112
3, 36597, Note_on_c, 1, 79, 0
3, 36600, Note_on_c, 1, 76, 110
3, 36651, Note_on_c, 1, 76, 0
3, 36660, Note_on_c, 1, 76, 105
3, 36686, Note_on_c, 1, 76, 0
3, 36690, Note_on_c, 1, 74, 112
3, 36709, Note_on_c, 1, 74, 0
3, 36720, Note_on_c, 1, 76, 115
3, 36774, Note_on_c, 1, 76, 0
3, 36840, Note_on_c, 1, 79, 110
3, 36887, Note_on_c, 1, 79, 0
3, 36900, Note_on_c, 1, 84, 117
3, 36960, Note_on_c, 1, 81, 105
3, 36962, Note_on_c, 1, 84, 0
3, 37018, Note_on_c, 1, 81, 0
3, 37020, Note_on_c, 1, 77, 110
3, 37070, Note_on_c, 1, 77, 0
3, 37140, Note_on_c, 1, 83, 117
3, 37200, Note_on_c, 1, 79, 112
3, 37204, Note_on_c, 1, 83, 0
3, 37252, Note_on_c, 1, 79, 0
3, 37320, Note_on_c, 1, 84, 115
3, 37380, Note_on_c, 1, 84, 0
3, 37380, Note_on_c, 1, 81, 112
3, 37432, Note_on_c, 1, 81, 0
3, 37500, Note_on_c, 1, 86, 117
3, 37558, Note_on_c, 1, 86, 0
3, 37560, Note_on_c, 1, 83, 112
3, 37601, Note_on_c, 1, 83, 0
3, 37620, Note_on_c, 1, 79, 118
3, 37660, Control_c, 1, 7, 63
3, 37665, Control_c, 1, 7, 64
3, 37672, Control_c, 1, 7, 66
3, 37681, Control_c, 1, 7, 67
3, 37690, Control_c, 1, 7, 74
3, 37695, Control_c, 1, 7, 76
3, 37700, Control_c, 1, 7, 84
3, 37705, Control_c, 1, 7, 85
3, 37711, Control_c, 1, 7, 86
3, 37715, Control_c, 1, 7, 88
3, 37730, Control_c, 1, 7, 90
3, 37760, Control_c, 1, 7, 95
3, 37765, Control_c, 1, 7, 96
3, 37773, Control_c, 1, 7, 97
3, 37775, Control_c, 1, 7, 103
3, 37780, Control_c, 1, 7, 104
3, 37785, Control_c, 1, 7, 105
3, 37790, Control_c, 1, 7, 113
3, 37800, Control_c, 1, 7, 114
3, 37806, Control_c, 1, 7, 118
3, 37811, Control_c, 1, 7, 121
3, 37816, Control_c, 1, 7, 122
3, 37826, Control_c, 1, 7, 122
3, 37826, Control_c, 1, 7, 123
3, 37845, Control_c, 1, 7, 124
3, 37852, Control_c, 1, 7, 125
3, 38022, Control_c, 1, 7, 124
3, 38030, Note_on_c, 1, 79, 0
3, 38040, Note_on_c, 1, 77, 115
3, 38092, Note_on_c, 1, 77, 0
3, 38100, Note_on_c, 1, 76, 115
3, 38115, Control_c, 1, 7, 124
3, 38120, Control_c, 1, 7, 123
3, 38130, Control_c, 1, 7, 122
3, 38135, Control_c, 1, 7, 122
3, 38148, Note_on_c, 1, 76, 0
3, 38165, Control_c, 1, 7, 120
3, 38170, Control_c, 1, 7, 119
3, 38175, Control_c, 1, 7, 118
3, 38180, Control_c, 1, 7, 117
3, 38200, Control_c, 1, 7, 114
3, 38205, Control_c, 1, 7, 113
3, 38210, Control_c, 1, 7, 112
3, 38220, Note_on_c, 1, 76, 110
3, 38220, Control_c, 1, 7, 110
3, 38224, Control_c, 1, 7, 109
3, 38228, Control_c, 1, 7, 107
3, 38233, Control_c, 1, 7, 106
3, 38238, Control_c, 1, 7, 104
3, 38240, Note_on_c, 1, 76, 0
3, 38245, Control_c, 1, 7, 103
3, 38250, Note_on_c, 1, 77, 117
3, 38250, Control_c, 1, 7, 101
3, 38255, Control_c, 1, 7, 101
3, 38260, Control_c, 1, 7, 98
3, 38265, Control_c, 1, 7, 97
3, 38267, Note_on_c, 1, 77, 0
3, 38271, Control_c, 1, 7, 95
3, 38279, Control_c, 1, 7, 93
3, 38280, Note_on_c, 1, 79, 112
3, 38285, Control_c, 1, 7, 90
3, 38290, Control_c, 1, 7, 86
3, 38295, Control_c, 1, 7, 81
3, 38300, Control_c, 1, 7, 79
3, 38305, Control_c, 1, 7, 78
3, 38310, Control_c, 1, 7, 76
3, 38315, Control_c, 1, 7, 74
3, 38320, Control_c, 1, 7, 73
3, 38325, Control_c, 1, 7, 72
3, 38328, Note_on_c, 1, 79, 0
3, 38338, Control_c, 1, 7, 72
3, 38340, Note_on_c, 1, 77, 110
3, 38340, Control_c, 1, 7, 71
3, 38345, Control_c, 1, 7, 70
3, 38350, Control_c, 1, 7, 70
3, 38392, Control_c, 1, 7, 68
3, 38395, Note_on_c, 1, 77, 0
3, 38400, Note_on_c, 1, 76, 115
3, 38400, Control_c, 1, 7, 68
3, 38405, Control_c, 1, 7, 67
3, 38410, Control_c, 1, 7, 66
3, 38415, Control_c, 1, 7, 66
3, 38450, Note_on_c, 1, 76, 0
3, 38460, Note_on_c, 1, 74, 112
3, 38464, Control_c, 1, 7, 65
3, 38516, Note_on_c, 1, 74, 0
3, 38580, Note_on_c, 1, 74, 109
3, 38605, Note_on_c, 1, 74, 0
3, 38610, Note_on_c, 1, 76, 115
3, 38634, Note_on_c, 1, 76, 0
3, 38640, Note_on_c, 1, 77, 105
3, 38671, Note_on_c, 1, 77, 0
3, 38700, Note_on_c, 1, 76, 95
3, 38726, Note_on_c, 1, 76, 0
3, 38730, Note_on_c, 1, 79, 101
3, 38760, Note_on_c, 1, 84, 115
3, 38761, Note_on_c, 1, 79, 0
3, 38786, Note_on_c, 1, 84, 0
3, 38790, Note_on_c, 1, 79, 97
3, 38818, Note_on_c, 1, 79, 0
3, 38820, Note_on_c, 1, 76, 110
3, 38847, Note_on_c, 1, 76, 0
3, 38850, Note_on_c, 1, 72, 99
3, 38879, Note_on_c, 1, 72, 0
3, 38880, Note_on_c, 1, 71, 115
3, 38907, Note_on_c, 1, 71, 0
3, 38910, Note_on_c, 1, 74, 108
3, 38937, Note_on_c, 1, 74, 0
3, 38940, Note_on_c, 1, 79, 115
3, 38966, Note_on_c, 1, 79, 0
3, 38970, Note_on_c, 1, 74, 105
3, 38997, Note_on_c, 1, 74, 0
3, 39000, Note_on_c, 1, 71, 112
3, 39025, Note_on_c, 1, 71, 0
3, 39030, Note_on_c, 1, 67, 92
3, 39060, Note_on_c, 1, 72, 115
3, 39073, Note_on_c, 1, 67, 0
3, 39128, Note_on_c, 1, 72, 0
3, 39240, Note_on_c, 1, 76, 115
3, 39301, Note_on_c, 1, 76, 0
3, 39420, Note_on_c, 1, 74, 115
3, 39485, Note_on_c, 1, 74, 0
3, 39600, Note_on_c, 1, 77, 120
3, 39653, Note_on_c, 1, 77, 0
3, 39780, Note_on_c, 1, 76, 108
3, 39807, Note_on_c, 1, 76, 0
3, 39810, Note_on_c, 1, 79, 112
3, 39828, Note_on_c, 1, 79, 0
3, 39840, Note_on_c, 1, 79, 115
3, 39870, Note_on_c, 1, 77, 117
3, 39875, Note_on_c, 1, 79, 0
3, 39900, Note_on_c, 1, 76, 112
3, 39906, Note_on_c, 1, 77, 0
3, 39930, Note_on_c, 1, 74, 115
3, 39937, Note_on_c, 1, 76, 0
3, 39959, Note_on_c, 1, 74, 0
3, 39960, Note_on_c, 1, 72, 95
3, 39983, Note_on_c, 1, 72, 0
3, 39990, Note_on_c, 1, 81, 117
3, 40007, Note_on_c, 1, 81, 0
3, 40020, Note_on_c, 1, 81, 115
3, 40048, Note_on_c, 1, 81, 0
3, 40050, Note_on_c, 1, 79, 115
3, 40080, Note_on_c, 1, 78, 126
3, 40087, Note_on_c, 1, 79, 0
3, 40109, Note_on_c, 1, 78, 0
3, 40110, Note_on_c, 1, 76, 110
3, 40140, Note_on_c, 1, 74, 115
3, 40141, Note_on_c, 1, 76, 0
3, 40163, Note_on_c, 1, 74, 0
3, 40170, Note_on_c, 1, 83, 115
3, 40189, Note_on_c, 1, 83, 0
3, 40200, Note_on_c, 1, 83, 115
3, 40230, Note_on_c, 1, 81, 117
3, 40236, Note_on_c, 1, 83, 0
3, 40260, Note_on_c, 1, 80, 123
3, 40270, Note_on_c, 1, 81, 0
3, 40290, Note_on_c, 1, 78, 117
3, 40296, Note_on_c, 1, 80, 0
3, 40320, Note_on_c, 1, 76, 115
3, 40324, Note_on_c, 1, 78, 0
3, 40346, Note_on_c, 1, 76, 0
3, 40350, Note_on_c, 1, 84, 123
3, 40370, Note_on_c, 1, 84, 0
3, 40380, Note_on_c, 1, 84, 120
3, 40408, Note_on_c, 1, 84, 0
3, 40410, Note_on_c, 1, 81, 117
3, 40431, Note_on_c, 1, 81, 0
3, 40440, Note_on_c, 1, 81, 112
3, 40466, Note_on_c, 1, 81, 0
3, 40470, Note_on_c, 1, 84, 123
3, 40492, Note_on_c, 1, 84, 0
3, 40500, Note_on_c, 1, 84, 97
3, 40530, Note_on_c, 1, 84, 0
3, 40530, Note_on_c, 1, 77, 110
3, 40553, Note_on_c, 1, 77, 0
3, 40560, Note_on_c, 1, 77, 95
3, 40590, Note_on_c, 1, 83, 117
3, 40592, Note_on_c, 1, 77, 0
3, 40609, Note_on_c, 1, 83, 0
3, 40620, Note_on_c, 1, 83, 112
3, 40650, Note_on_c, 1, 74, 101
3, 40652, Note_on_c, 1, 83, 0
3, 40680, Note_on_c, 1, 76, 126
3, 40681, Note_on_c, 1, 74, 0
3, 40710, Note_on_c, 1, 77, 120
3, 40717, Note_on_c, 1, 76, 0
3, 40740, Note_on_c, 1, 79, 115
3, 40747, Note_on_c, 1, 77, 0
3, 40770, Note_on_c, 1, 77, 115
3, 40775, Note_on_c, 1, 79, 0
3, 40800, Note_on_c, 1, 76, 108
3, 40808, Note_on_c, 1, 77, 0
3, 40830, Note_on_c, 1, 76, 0
3, 40830, Note_on_c, 1, 74, 92
3, 40860, Note_on_c, 1, 72, 115
3, 40862, Note_on_c, 1, 74, 0
3, 40890, Note_on_c, 1, 69, 110
3, 40891, Control_c, 1, 7, 64
3, 40893, Note_on_c, 1, 72, 0
3, 40907, Control_c, 1, 7, 65
3, 40920, Note_on_c, 1, 70, 120
3, 40927, Note_on_c, 1, 69, 0
3, 40931, Control_c, 1, 7, 66
3, 40932, Control_c, 1, 7, 68
3, 40937, Control_c, 1, 7, 69
3, 40942, Control_c, 1, 7, 71
3, 40950, Note_on_c, 1, 72, 101
3, 40952, Control_c, 1, 7, 76
3, 40955, Control_c, 1, 7, 76
3, 40956, Note_on_c, 1, 70, 0
3, 40961, Control_c, 1, 7, 78
3, 40966, Control_c, 1, 7, 80
3, 40976, Control_c, 1, 7, 81
3, 40980, Note_on_c, 1, 74, 115
3, 40981, Control_c, 1, 7, 83
3, 40985, Control_c, 1, 7, 86
3, 40990, Control_c, 1, 7, 87
3, 40992, Note_on_c, 1, 72, 0
3, 41007, Control_c, 1, 7, 89
3, 41010, Note_on_c, 1, 76, 115
3, 41012, Control_c, 1, 7, 91
3, 41015, Note_on_c, 1, 74, 0
3, 41020, Control_c, 1, 7, 95
3, 41025, Control_c, 1, 7, 98
3, 41028, Note_on_c, 1, 76, 0
3, 41030, Control_c, 1, 7, 99
3, 41036, Control_c, 1, 7, 99
3, 41040, Note_on_c, 1, 77, 110
3, 41041, Control_c, 1, 7, 101
3, 41050, Control_c, 1, 7, 101
3, 41052, Control_c, 1, 7, 103
3, 41070, Note_on_c, 1, 81, 112
3, 41072, Note_on_c, 1, 77, 0
3, 41075, Control_c, 1, 7, 105
3, 41087, Control_c, 1, 7, 106
3, 41091, Note_on_c, 1, 81, 0
3, 41100, Note_on_c, 1, 81, 115
3, 41125, Control_c, 1, 7, 107
3, 41125, Control_c, 1, 7, 107
3, 41130, Note_on_c, 1, 77, 110
3, 41133, Note_on_c, 1, 81, 0
3, 41149, Note_on_c, 1, 77, 0
3, 41160, Note_on_c, 1, 77, 110
3, 41190, Note_on_c, 1, 74, 112
3, 41195, Note_on_c, 1, 77, 0
3, 41210, Control_c, 1, 7, 108
3, 41212, Note_on_c, 1, 74, 0
3, 41220, Note_on_c, 1, 74, 115
3, 41231, Control_c, 1, 7, 109
3, 41250, Note_on_c, 1, 74, 0
3, 41250, Note_on_c, 1, 77, 117
3, 41250, Control_c, 1, 7, 109
3, 41255, Control_c, 1, 7, 111
3, 41260, Control_c, 1, 7, 111
3, 41272, Note_on_c, 1, 77, 0
3, 41280, Note_on_c, 1, 77, 110
3, 41309, Note_on_c, 1, 77, 0
3, 41310, Note_on_c, 1, 74, 112
3, 41327, Note_on_c, 1, 74, 0
3, 41340, Note_on_c, 1, 74, 97
3, 41370, Note_on_c, 1, 71, 115
3, 41374, Note_on_c, 1, 74, 0
3, 41393, Note_on_c, 1, 71, 0
3, 41400, Note_on_c, 1, 71, 110
3, 41430, Note_on_c, 1, 71, 0
3, 41430, Note_on_c, 1, 74, 110
3, 41448, Note_on_c, 1, 74, 0
3, 41460, Note_on_c, 1, 74, 115
3, 41485, Note_on_c, 1, 74, 0
3, 41490, Note_on_c, 1, 71, 115
3, 41510, Note_on_c, 1, 71, 0
3, 41520, Note_on_c, 1, 71, 103
3, 41550, Note_on_c, 1, 71, 0
3, 41550, Note_on_c, 1, 67, 112
3, 41578, Note_on_c, 1, 67, 0
3, 41580, Note_on_c, 1, 79, 123
3, 41615, Control_c, 1, 7, 111
3, 41620, Control_c, 1, 7, 109
3, 41625, Control_c, 1, 7, 109
3, 41635, Control_c, 1, 7, 108
3, 41643, Note_on_c, 1, 79, 0
3, 41645, Control_c, 1, 7, 106
3, 41648, Control_c, 1, 7, 103
3, 41653, Control_c, 1, 7, 101
3, 41658, Control_c, 1, 7, 101
3, 41668, Control_c, 1, 7, 100
3, 41668, Control_c, 1, 7, 99
3, 41670, Note_on_c, 1, 72, 115
3, 41675, Control_c, 1, 7, 98
3, 41691, Note_on_c, 1, 72, 0
3, 41700, Note_on_c, 1, 77, 117
3, 41701, Control_c, 1, 7, 95
3, 41710, Control_c, 1, 7, 91
3, 41715, Control_c, 1, 7, 89
3, 41720, Control_c, 1, 7, 86
3, 41720, Control_c, 1, 7, 85
3, 41730, Control_c, 1, 7, 84
3, 41740, Control_c, 1, 7, 82
3, 41747, Control_c, 1, 7, 80
3, 41752, Control_c, 1, 7, 78
3, 41753, Control_c, 1, 7, 77
3, 41763, Note_on_c, 1, 77, 0
3, 41765, Control_c, 1, 7, 76
3, 41768, Control_c, 1, 7, 75
3, 41773, Control_c, 1, 7, 74
3, 41790, Note_on_c, 1, 74, 120
3, 41795, Control_c, 1, 7, 72
3, 41809, Note_on_c, 1, 74, 0
3, 41820, Note_on_c, 1, 76, 115
3, 41855, Control_c, 1, 7, 71
3, 41874, Note_on_c, 1, 76, 0
3, 41910, Note_on_c, 1, 69, 101
3, 41915, Control_c, 1, 7, 70
3, 41926, Control_c, 1, 7, 69
3, 41932, Note_on_c, 1, 69, 0
3, 41940, Note_on_c, 1, 74, 115
3, 41960, Control_c, 1, 7, 68
3, 41994, Note_on_c, 1, 74, 0
3, 42024, Control_c, 1, 7, 68
3, 42030, Note_on_c, 1, 71, 120
3, 42049, Control_c, 1, 7, 69
3, 42050, Note_on_c, 1, 71, 0
3, 42060, Note_on_c, 1, 72, 115
3, 42115, Control_c, 1, 7, 68
3, 42121, Note_on_c, 1, 72, 0
3, 42137, Control_c, 1, 7, 67
3, 42150, Note_on_c, 1, 74, 110
3, 42173, Note_on_c, 1, 74, 0
3, 42176, Control_c, 1, 7, 66
3, 42180, Note_on_c, 1, 71, 123
3, 42270, Note_on_c, 1, 71, 0
3, 42270, Note_on_c, 1, 72, 112
3, 42291, Note_on_c, 1, 72, 0
3, 42300, Note_on_c, 1, 72, 112
3, 42368, Note_on_c, 1, 72, 0
3, 43286, Control_c, 1, 7, 65
3, 43327, Control_c, 1, 7, 66
3, 43332, Control_c, 1, 7, 66
3, 43337, Control_c, 1, 7, 67
3, 43342, Control_c, 1, 7, 68
3, 43351, Control_c, 1, 7, 68
3, 43356, Control_c, 1, 7, 70
3, 43361, Control_c, 1, 7, 72
3, 43371, Control_c, 1, 7, 80
3, 43377, Control_c, 1, 7, 89
3, 43380, Note_on_c, 1, 79, 117
3, 43385, Control_c, 1, 7, 103
3, 43390, Control_c, 1, 7, 105
3, 43395, Control_c, 1, 7, 106
3, 43400, Control_c, 1, 7, 109
3, 43405, Control_c, 1, 7, 113
3, 43425, Control_c, 1, 7, 120
3, 43755, Note_on_c, 1, 79, 0
3, 43811, Control_c, 1, 7, 117
3, 43816, Control_c, 1, 7, 112
3, 43816, Control_c, 1, 7, 105
3, 43826, Control_c, 1, 7, 101
3, 43830, Control_c, 1, 7, 96
3, 43835, Control_c, 1, 7, 87
3, 43837, Control_c, 1, 7, 82
3, 43847, Control_c, 1, 7, 78
3, 43852, Control_c, 1, 7, 73
3, 43859, Control_c, 1, 7, 69
3, 43867, Control_c, 1, 7, 68
3, 43867, Control_c, 1, 7, 65
3, 43872, Control_c, 1, 7, 64
3, 43940, Control_c, 1, 7, 59
3, 44682, Control_c, 1, 7, 64
3, 44687, Control_c, 1, 7, 73
3, 44692, Control_c, 1, 7, 78
3, 44701, Control_c, 1, 7, 84
3, 44707, Control_c, 1, 7, 88
3, 44712, Control_c, 1, 7, 89
3, 44717, Control_c, 1, 7, 91
3, 44722, Control_c, 1, 7, 93
3, 44731, Control_c, 1, 7, 94
3, 44739, Control_c, 1, 7, 95
3, 44739, Control_c, 1, 7, 97
3, 44744, Control_c, 1, 7, 97
3, 44755, Control_c, 1, 7, 100
3, 44760, Control_c, 1, 7, 101
3, 44765, Control_c, 1, 7, 102
3, 44770, Control_c, 1, 7, 103
3, 44775, Control_c, 1, 7, 105
3, 44785, Control_c, 1, 7, 107
3, 44785, Control_c, 1, 7, 108
3, 44810, Control_c, 1, 7, 111
3, 44815, Control_c, 1, 7, 113
3, 44820, Note_on_c, 1, 86, 115
3, 44824, Control_c, 1, 7, 114
3, 44829, Control_c, 1, 7, 114
3, 44835, Control_c, 1, 7, 116
3, 44840, Control_c, 1, 7, 116
3, 44848, Control_c, 1, 7, 118
3, 44850, Control_c, 1, 7, 119
3, 44860, Control_c, 1, 7, 120
3, 44861, Control_c, 1, 7, 121
3, 44885, Control_c, 1, 7, 124
3, 44903, Control_c, 1, 7, 124
3, 44916, Control_c, 1, 7, 125
3, 44944, Control_c, 1, 7, 124
3, 44958, Control_c, 1, 7, 124
3, 45107, Control_c, 1, 7, 123
3, 45125, Control_c, 1, 7, 122
3, 45125, Control_c, 1, 7, 122
3, 45130, Control_c, 1, 7, 121
3, 45151, Control_c, 1, 7, 119
3, 45157, Control_c, 1, 7, 118
3, 45162, Control_c, 1, 7, 116
3, 45167, Control_c, 1, 7, 115
3, 45174, Control_c, 1, 7, 114
3, 45179, Control_c, 1, 7, 113
3, 45185, Control_c, 1, 7, 113
3, 45190, Control_c, 1, 7, 112
3, 45195, Control_c, 1, 7, 111
3, 45205, Control_c, 1, 7, 110
3, 45209, Note_on_c, 1, 86, 0
3, 45214, Control_c, 1, 7, 108
3, 45219, Control_c, 1, 7, 105
3, 45222, Control_c, 1, 7, 104
3, 45230, Control_c, 1, 7, 103
3, 45240, Control_c, 1, 7, 100
3, 45247, Control_c, 1, 7, 97
3, 45252, Control_c, 1, 7, 95
3, 45257, Control_c, 1, 7, 94
3, 45262, Control_c, 1, 7, 92
3, 45271, Control_c, 1, 7, 91
3, 45278, Control_c, 1, 7, 88
3, 45283, Control_c, 1, 7, 86
3, 45288, Control_c, 1, 7, 85
3, 45288, Control_c, 1, 7, 84
3, 45293, Control_c, 1, 7, 83
3, 45313, Control_c, 1, 7, 82
3, 45318, Control_c, 1, 7, 81
3, 45323, Control_c, 1, 7, 80
3, 45328, Control_c, 1, 7, 80
3, 45336, Control_c, 1, 7, 79
3, 45341, Control_c, 1, 7, 78
3, 45341, Control_c, 1, 7, 76
3, 45361, Control_c, 1, 7, 75
3, 45366, Control_c, 1, 7, 72
3, 45371, Control_c, 1, 7, 71
3, 45376, Control_c, 1, 7, 70
3, 45381, Control_c, 1, 7, 70
3, 45386, Control_c, 1, 7, 69
3, 45390, Control_c, 1, 7, 68
3, 45398, Control_c, 1, 7, 68
3, 45398, Control_c, 1, 7, 67
3, 45416, Control_c, 1, 7, 66
3, 46320, Note_on_c, 1, 79, 112
3, 46366, Note_on_c, 1, 79, 0
3, 46380, Note_on_c, 1, 76, 108
3, 46431, Note_on_c, 1, 76, 0
3, 46440, Note_on_c, 1, 73, 120
3, 46499, Note_on_c, 1, 73, 0
3, 46680, Note_on_c, 1, 78, 105
3, 46721, Note_on_c, 1, 78, 0
3, 46740, Note_on_c, 1, 74, 110
3, 46784, Note_on_c, 1, 74, 0
3, 46800, Note_on_c, 1, 71, 99
3, 46860, Note_on_c, 1, 71, 0
3, 47040, Note_on_c, 1, 71, 97
3, 47095, Note_on_c, 1, 71, 0
3, 47100, Note_on_c, 1, 79, 95
3, 47150, Note_on_c, 1, 79, 0
3, 47160, Note_on_c, 1, 76, 120
3, 47212, Note_on_c, 1, 76, 0
3, 48120, Note_on_c, 1, 83, 112
3, 48143, Note_on_c, 1, 83, 0
3, 48150, Note_on_c, 1, 84, 117
3, 48174, Note_on_c, 1, 84, 0
3, 48180, Note_on_c, 1, 83, 115
3, 48198, Note_on_c, 1, 83, 0
3, 48210, Note_on_c, 1, 84, 115
3, 48228, Note_on_c, 1, 84, 0
3, 48240, Note_on_c, 1, 86, 117
3, 48262, Note_on_c, 1, 86, 0
3, 48270, Note_on_c, 1, 84, 115
3, 48286, Note_on_c, 1, 84, 0
3, 48300, Note_on_c, 1, 83, 117
3, 48317, Note_on_c, 1, 83, 0
3, 48330, Note_on_c, 1, 84, 117
3, 48345, Note_on_c, 1, 84, 0
3, 48360, Note_on_c, 1, 86, 117
3, 48442, Note_on_c, 1, 86, 0
3, 48450, Note_on_c, 1, 84, 112
3, 48474, Note_on_c, 1, 84, 0
3, 48480, Note_on_c, 1, 83, 115
3, 48499, Note_on_c, 1, 83, 0
3, 48510, Note_on_c, 1, 84, 117
3, 48536, Note_on_c, 1, 84, 0
3, 48540, Note_on_c, 1, 86, 115
3, 48563, Note_on_c, 1, 86, 0
3, 48570, Note_on_c, 1, 84, 117
3, 48592, Note_on_c, 1, 84, 0
3, 48600, Note_on_c, 1, 86, 117
3, 48625, Note_on_c, 1, 86, 0
3, 48630, Note_on_c, 1, 89, 112
3, 48655, Note_on_c, 1, 89, 0
3, 48660, Note_on_c, 1, 88, 112
3, 48682, Note_on_c, 1, 88, 0
3, 48690, Note_on_c, 1, 86, 112
3, 48716, Note_on_c, 1, 86, 0
3, 48720, Note_on_c, 1, 84, 117
3, 48746, Note_on_c, 1, 84, 0
3, 48750, Note_on_c, 1, 83, 97
3, 48774, Note_on_c, 1, 83, 0
3, 48780, Note_on_c, 1, 84, 117
3, 48802, Note_on_c, 1, 84, 0
3, 48810, Note_on_c, 1, 86, 115
3, 48831, Note_on_c, 1, 86, 0
3, 48840, Note_on_c, 1, 84, 126
3, 48858, Note_on_c, 1, 84, 0
3, 48870, Note_on_c, 1, 86, 123
3, 48887, Note_on_c, 1, 86, 0
3, 48900, Note_on_c, 1, 88, 120
3, 49003, Note_on_c, 1, 88, 0
3, 49020, Note_on_c, 1, 86, 117
3, 49042, Note_on_c, 1, 86, 0
3, 49050, Note_on_c, 1, 84, 115
3, 49070, Note_on_c, 1, 84, 0
3, 49080, Note_on_c, 1, 86, 120
3, 49174, Note_on_c, 1, 86, 0
3, 49200, Note_on_c, 1, 84, 115
3, 49228, Note_on_c, 1, 84, 0
3, 49230, Note_on_c, 1, 83, 120
3, 49245, Note_on_c, 1, 83, 0
3, 49260, Note_on_c, 1, 84, 115
3, 49367, Note_on_c, 1, 84, 0
3, 49380, Note_on_c, 1, 83, 120
3, 49403, Note_on_c, 1, 83, 0
3, 49410, Note_on_c, 1, 81, 123
3, 49430, Note_on_c, 1, 81, 0
3, 49440, Note_on_c, 1, 83, 115
3, 49521, Note_on_c, 1, 83, 0
3, 49530, Note_on_c, 1, 79, 108
3, 49555, Note_on_c, 1, 79, 0
3, 49560, Note_on_c, 1, 81, 115
3, 49584, Note_on_c, 1, 81, 0
3, 49590, Note_on_c, 1, 83, 110
3, 49616, Note_on_c, 1, 83, 0
3, 49620, Note_on_c, 1, 84, 112
3, 49644, Note_on_c, 1, 84, 0
3, 49650, Note_on_c, 1, 86, 108
3, 49669, Note_on_c, 1, 86, 0
3, 49680, Note_on_c, 1, 88, 112
3, 49710, Note_on_c, 1, 84, 115
3, 49712, Note_on_c, 1, 88, 0
3, 49732, Note_on_c, 1, 84, 0
3, 49740, Note_on_c, 1, 81, 110
3, 49765, Note_on_c, 1, 81, 0
3, 49770, Note_on_c, 1, 76, 115
3, 49793, Note_on_c, 1, 76, 0
3, 49800, Note_on_c, 1, 81, 115
3, 49817, Note_on_c, 1, 81, 0
3, 49830, Note_on_c, 1, 84, 120
3, 49849, Note_on_c, 1, 84, 0
3, 49860, Note_on_c, 1, 78, 112
3, 49898, Note_on_c, 1, 78, 0
3, 49920, Note_on_c, 1, 86, 127
3, 50230, Note_on_c, 1, 86, 0
3, 50250, Note_on_c, 1, 83, 92
3, 50274, Note_on_c, 1, 83, 0
3, 50280, Note_on_c, 1, 84, 97
3, 50304, Note_on_c, 1, 84, 0
3, 50310, Note_on_c, 1, 86, 101
3, 50335, Note_on_c, 1, 86, 0
3, 50340, Note_on_c, 1, 88, 86
3, 50356, Note_on_c, 1, 88, 0
3, 50370, Note_on_c, 1, 90, 108
3, 50392, Note_on_c, 1, 90, 0
3, 50400, Note_on_c, 1, 91, 112
3, 50428, Note_on_c, 1, 91, 0
3, 50430, Note_on_c, 1, 88, 108
3, 50450, Note_on_c, 1, 88, 0
3, 50460, Note_on_c, 1, 84, 115
3, 50484, Note_on_c, 1, 84, 0
3, 50490, Note_on_c, 1, 79, 110
3, 50512, Note_on_c, 1, 79, 0
3, 50520, Note_on_c, 1, 84, 115
3, 50536, Note_on_c, 1, 84, 0
3, 50550, Note_on_c, 1, 88, 115
3, 50566, Note_on_c, 1, 88, 0
3, 50580, Note_on_c, 1, 84, 126
3, 51147, Note_on_c, 1, 84, 0
3, 51150, Note_on_c, 1, 74, 117
3, 51168, Note_on_c, 1, 74, 0
3, 51180, Note_on_c, 1, 78, 123
3, 51201, Note_on_c, 1, 78, 0
3, 51210, Note_on_c, 1, 81, 115
3, 51225, Note_on_c, 1, 81, 0
3, 51240, Note_on_c, 1, 81, 117
3, 51261, Note_on_c, 1, 81, 0
3, 51270, Note_on_c, 1, 84, 120
3, 51294, Note_on_c, 1, 84, 0
3, 51300, Note_on_c, 1, 83, 112
3, 51330, Note_on_c, 1, 86, 117
3, 51335, Note_on_c, 1, 83, 0
3, 51360, Note_on_c, 1, 84, 117
3, 51365, Note_on_c, 1, 86, 0
3, 51390, Note_on_c, 1, 83, 123
3, 51393, Note_on_c, 1, 84, 0
3, 51420, Note_on_c, 1, 81, 126
3, 51424, Note_on_c, 1, 83, 0
3, 51450, Note_on_c, 1, 84, 117
3, 51451, Note_on_c, 1, 81, 0
3, 51480, Note_on_c, 1, 83, 127
3, 51481, Note_on_c, 1, 84, 0
3, 51525, Note_on_c, 1, 83, 0
3, 51540, Note_on_c, 1, 81, 115
3, 51570, Note_on_c, 1, 79, 117
3, 51576, Note_on_c, 1, 81, 0
3, 51600, Note_on_c, 1, 78, 126
3, 51603, Note_on_c, 1, 79, 0
3, 51630, Note_on_c, 1, 81, 110
3, 51631, Note_on_c, 1, 78, 0
3, 51656, Note_on_c, 1, 81, 0
3, 51660, Note_on_c, 1, 79, 127
3, 51688, Note_on_c, 1, 79, 0
3, 51690, Note_on_c, 1, 83, 110
3, 51720, Note_on_c, 1, 81, 115
3, 51723, Note_on_c, 1, 83, 0
3, 51750, Note_on_c, 1, 79, 127
3, 51755, Note_on_c, 1, 81, 0
3, 51780, Note_on_c, 1, 78, 123
3, 51783, Note_on_c, 1, 79, 0
3, 51809, Note_on_c, 1, 78, 0
3, 51810, Note_on_c, 1, 81, 110
3, 51840, Note_on_c, 1, 79, 126
3, 51842, Note_on_c, 1, 81, 0
3, 51890, Note_on_c, 1, 79, 0
3, 51900, Note_on_c, 1, 78, 126
3, 51930, Note_on_c, 1, 76, 103
3, 51931, Note_on_c, 1, 78, 0
3, 51958, Note_on_c, 1, 76, 0
3, 51960, Note_on_c, 1, 75, 105
3, 51990, Note_on_c, 1, 78, 90
3, 51992, Note_on_c, 1, 75, 0
3, 52017, Note_on_c, 1, 78, 0
3, 52020, Note_on_c, 1, 76, 115
3, 52049, Note_on_c, 1, 76, 0
3, 52050, Note_on_c, 1, 88, 110
3, 52080, Note_on_c, 1, 86, 110
3, 52083, Note_on_c, 1, 88, 0
3, 52108, Note_on_c, 1, 86, 0
3, 52110, Note_on_c, 1, 84, 117
3, 52138, Note_on_c, 1, 84, 0
3, 52140, Note_on_c, 1, 83, 115
3, 52165, Note_on_c, 1, 83, 0
3, 52170, Note_on_c, 1, 86, 115
3, 52197, Note_on_c, 1, 86, 0
3, 52200, Note_on_c, 1, 84, 117
3, 52246, Note_on_c, 1, 84, 0
3, 52260, Note_on_c, 1, 83, 112
3, 52290, Note_on_c, 1, 81, 115
3, 52296, Note_on_c, 1, 83, 0
3, 52320, Note_on_c, 1, 81, 0
3, 52320, Note_on_c, 1, 80, 120
3, 52350, Note_on_c, 1, 80, 0
3, 52350, Note_on_c, 1, 83, 95
3, 52379, Note_on_c, 1, 83, 0
3, 52380, Note_on_c, 1, 81, 112
3, 52396, Note_on_c, 1, 81, 0
3, 52405, Note_on_c, 1, 81, 115
3, 52436, Note_on_c, 1, 79, 117
3, 52444, Note_on_c, 1, 81, 0
3, 52467, Note_on_c, 1, 77, 115
3, 52471, Note_on_c, 1, 79, 0
3, 52497, Note_on_c, 1, 77, 0
3, 52499, Note_on_c, 1, 76, 95
3, 52525, Note_on_c, 1, 76, 0
3, 52525, Note_on_c, 1, 79, 126
3, 52556, Note_on_c, 1, 79, 0
3, 52560, Note_on_c, 1, 77, 123
3, 52600, Note_on_c, 1, 77, 0
3, 52618, Note_on_c, 1, 79, 123
3, 52629, Note_on_c, 1, 78, 123
3, 52630, Note_on_c, 1, 79, 0
3, 52639, Note_on_c, 1, 78, 0
3, 52641, Note_on_c, 1, 79, 95
3, 52652, Note_on_c, 1, 78, 112
3, 52654, Note_on_c, 1, 79, 0
3, 52662, Note_on_c, 1, 78, 0
3, 52662, Note_on_c, 1, 79, 86
3, 52672, Note_on_c, 1, 78, 101
3, 52674, Note_on_c, 1, 79, 0
3, 52683, Note_on_c, 1, 78, 0
3, 52684, Note_on_c, 1, 79, 97
3, 52693, Note_on_c, 1, 78, 92
3, 52696, Note_on_c, 1, 79, 0
3, 52701, Note_on_c, 1, 79, 67
3, 52708, Note_on_c, 1, 79, 0
3, 52715, Note_on_c, 1, 78, 0
3, 52716, Note_on_c, 1, 76, 110
3, 52729, Note_on_c, 1, 78, 112
3, 52732, Note_on_c, 1, 76, 0
3, 52740, Note_on_c, 1, 78, 0
3, 52744, Note_on_c, 1, 79, 110
3, 52769, Note_on_c, 1, 79, 0
3, 52771, Note_on_c, 1, 83, 126
3, 52795, Note_on_c, 1, 83, 0
3, 52800, Note_on_c, 1, 85, 110
3, 52822, Note_on_c, 1, 85, 0
3, 52829, Note_on_c, 1, 86, 117
3, 52852, Note_on_c, 1, 86, 0
3, 52858, Note_on_c, 1, 88, 115
3, 52879, Note_on_c, 1, 88, 0
3, 52887, Note_on_c, 1, 85, 115
3, 52911, Note_on_c, 1, 85, 0
3, 52920, Note_on_c, 1, 82, 123
3, 52945, Note_on_c, 1, 82, 0
3, 52950, Note_on_c, 1, 85, 117
3, 52971, Note_on_c, 1, 85, 0
3, 52980, Note_on_c, 1, 83, 108
3, 53009, Note_on_c, 1, 83, 0
3, 53010, Note_on_c, 1, 85, 117
3, 53037, Note_on_c, 1, 85, 0
3, 53040, Note_on_c, 1, 86, 112
3, 53067, Note_on_c, 1, 86, 0
3, 53070, Note_on_c, 1, 83, 115
3, 53094, Note_on_c, 1, 83, 0
3, 53100, Note_on_c, 1, 80, 115
3, 53126, Note_on_c, 1, 80, 0
3, 53130, Note_on_c, 1, 83, 115
3, 53153, Note_on_c, 1, 83, 0
3, 53160, Note_on_c, 1, 82, 120
3, 53181, Note_on_c, 1, 82, 0
3, 53190, Note_on_c, 1, 83, 115
3, 53211, Note_on_c, 1, 83, 0
3, 53220, Note_on_c, 1, 85, 112
3, 53243, Note_on_c, 1, 85, 0
3, 53250, Note_on_c, 1, 82, 117
3, 53270, Note_on_c, 1, 82, 0
3, 53280, Note_on_c, 1, 78, 123
3, 53518, Note_on_c, 1, 78, 0
3, 53520, Note_on_c, 1, 76, 115
3, 53663, Note_on_c, 1, 76, 0
3, 53670, Note_on_c, 1, 73, 117
3, 53700, Note_on_c, 1, 74, 99
3, 53704, Note_on_c, 1, 73, 0
3, 53730, Note_on_c, 1, 76, 95
3, 53732, Note_on_c, 1, 74, 0
3, 53759, Note_on_c, 1, 76, 0
3, 53760, Note_on_c, 1, 78, 120
3, 53790, Note_on_c, 1, 78, 0
3, 53790, Note_on_c, 1, 74, 112
3, 53820, Note_on_c, 1, 79, 108
3, 53821, Note_on_c, 1, 74, 0
3, 54017, Note_on_c, 1, 79, 0
3, 54030, Note_on_c, 1, 78, 117
3, 54057, Note_on_c, 1, 78, 0
3, 54060, Note_on_c, 1, 79, 97
3, 54090, Note_on_c, 1, 81, 115
3, 54091, Note_on_c, 1, 79, 0
3, 54120, Note_on_c, 1, 83, 117
3, 54126, Note_on_c, 1, 81, 0
3, 54150, Note_on_c, 1, 79, 105
3, 54153, Note_on_c, 1, 83, 0
3, 54177, Note_on_c, 1, 79, 0
3, 54180, Note_on_c, 1, 84, 117
3, 54380, Note_on_c, 1, 84, 0
3, 54390, Note_on_c, 1, 82, 82
3, 54420, Note_on_c, 1, 83, 78
3, 54423, Note_on_c, 1, 82, 0
3, 54450, Note_on_c, 1, 85, 108
3, 54455, Note_on_c, 1, 83, 0
3, 54480, Note_on_c, 1, 86, 101
3, 54485, Note_on_c, 1, 85, 0
3, 54510, Note_on_c, 1, 83, 117
3, 54514, Note_on_c, 1, 86, 0
3, 54536, Note_on_c, 1, 83, 0
3, 54540, Note_on_c, 1, 88, 120
3, 54737, Note_on_c, 1, 88, 0
3, 54750, Note_on_c, 1, 73, 115
3, 54780, Note_on_c, 1, 74, 112
3, 54788, Note_on_c, 1, 73, 0
3, 54810, Note_on_c, 1, 76, 112
3, 54811, Note_on_c, 1, 74, 0
3, 54840, Note_on_c, 1, 78, 108
3, 54847, Note_on_c, 1, 76, 0
3, 54870, Note_on_c, 1, 74, 115
3, 54875, Note_on_c, 1, 78, 0
3, 54896, Note_on_c, 1, 74, 0
3, 54900, Note_on_c, 1, 79, 110
3, 54930, Note_on_c, 1, 78, 117
3, 54939, Note_on_c, 1, 79, 0
3, 54960, Note_on_c, 1, 76, 105
3, 54961, Note_on_c, 1, 78, 0
3, 54990, Note_on_c, 1, 74, 95
3, 54995, Note_on_c, 1, 76, 0
3, 55020, Note_on_c, 1, 73, 123
3, 55024, Note_on_c, 1, 74, 0
3, 55050, Note_on_c, 1, 73, 0
3, 55050, Note_on_c, 1, 74, 110
3, 55065, Note_on_c, 1, 76, 115
3, 55070, Note_on_c, 1, 74, 0
3, 55080, Note_on_c, 1, 78, 123
3, 55084, Note_on_c, 1, 76, 0
3, 55110, Note_on_c, 1, 76, 126
3, 55114, Note_on_c, 1, 78, 0
3, 55140, Note_on_c, 1, 74, 112
3, 55142, Note_on_c, 1, 76, 0
3, 55170, Note_on_c, 1, 73, 115
3, 55173, Note_on_c, 1, 74, 0
3, 55200, Note_on_c, 1, 71, 101
3, 55201, Note_on_c, 1, 73, 0
3, 55228, Note_on_c, 1, 71, 0
3, 55230, Note_on_c, 1, 73, 115
3, 55244, Note_on_c, 1, 73, 0
3, 55245, Note_on_c, 1, 74, 112
3, 55259, Note_on_c, 1, 74, 0
3, 55260, Note_on_c, 1, 76, 123
3, 55320, Note_on_c, 1, 88, 101
3, 55332, Note_on_c, 1, 76, 0
3, 55487, Note_on_c, 1, 88, 0
3, 55500, Note_on_c, 1, 86, 105
3, 55526, Note_on_c, 1, 86, 0
3, 55530, Note_on_c, 1, 85, 117
3, 55554, Note_on_c, 1, 85, 0
3, 55560, Note_on_c, 1, 86, 117
3, 55634, Note_on_c, 1, 86, 0
3, 55650, Note_on_c, 1, 86, 115
3, 55680, Note_on_c, 1, 85, 117
3, 55687, Note_on_c, 1, 86, 0
3, 55710, Note_on_c, 1, 85, 0
3, 55710, Note_on_c, 1, 83, 105
3, 55740, Note_on_c, 1, 82, 110
3, 55747, Note_on_c, 1, 83, 0
3, 55770, Note_on_c, 1, 85, 123
3, 55773, Note_on_c, 1, 82, 0
3, 55800, Note_on_c, 1, 85, 0
3, 55800, Note_on_c, 1, 78, 123
3, 55860, Note_on_c, 1, 83, 120
3, 55861, Note_on_c, 1, 78, 0
3, 55920, Note_on_c, 1, 81, 126
3, 55921, Note_on_c, 1, 83, 0
3, 55980, Note_on_c, 1, 80, 123
3, 55985, Note_on_c, 1, 81, 0
3, 56710, Note_on_c, 1, 80, 0
3, 56730, Note_on_c, 1, 78, 123
3, 56760, Note_on_c, 1, 80, 117
3, 56768, Note_on_c, 1, 78, 0
3, 56790, Note_on_c, 1, 81, 112
3, 56794, Note_on_c, 1, 80, 0
3, 56820, Note_on_c, 1, 80, 117
3, 56825, Note_on_c, 1, 81, 0
3, 56850, Note_on_c, 1, 81, 110
3, 56853, Note_on_c, 1, 80, 0
3, 56880, Note_on_c, 1, 83, 112
3, 56886, Note_on_c, 1, 81, 0
3, 56910, Note_on_c, 1, 81, 115
3, 56915, Note_on_c, 1, 83, 0
3, 56940, Note_on_c, 1, 80, 117
3, 56944, Note_on_c, 1, 81, 0
3, 56970, Note_on_c, 1, 81, 112
3, 56978, Note_on_c, 1, 80, 0
3, 57000, Note_on_c, 1, 83, 115
3, 57001, Note_on_c, 1, 81, 0
3, 57073, Note_on_c, 1, 83, 0
3, 57090, Note_on_c, 1, 81, 112
3, 57120, Note_on_c, 1, 80, 108
3, 57124, Note_on_c, 1, 81, 0
3, 57150, Note_on_c, 1, 81, 112
3, 57152, Note_on_c, 1, 80, 0
3, 57180, Note_on_c, 1, 83, 117
3, 57187, Note_on_c, 1, 81, 0
3, 57210, Note_on_c, 1, 83, 0
3, 57210, Note_on_c, 1, 81, 110
3, 57240, Note_on_c, 1, 83, 117
3, 57246, Note_on_c, 1, 81, 0
3, 57270, Note_on_c, 1, 86, 117
3, 57276, Note_on_c, 1, 83, 0
3, 57300, Note_on_c, 1, 85, 112
3, 57306, Note_on_c, 1, 86, 0
3, 57330, Note_on_c, 1, 83, 115
3, 57334, Note_on_c, 1, 85, 0
3, 57360, Note_on_c, 1, 82, 123
3, 57365, Note_on_c, 1, 83, 0
3, 57390, Note_on_c, 1, 83, 117
3, 57391, Note_on_c, 1, 82, 0
3, 57418, Note_on_c, 1, 83, 0
3, 57420, Note_on_c, 1, 82, 127
3, 58135, Note_on_c, 1, 82, 0
3, 58140, Note_on_c, 1, 83, 95
3, 58215, Note_on_c, 1, 83, 0
3, 58320, Note_on_c, 1, 85, 108
3, 58396, Note_on_c, 1, 85, 0
3, 58500, Note_on_c, 1, 86, 117
3, 58542, Note_on_c, 1, 86, 0
3, 58560, Note_on_c, 1, 85, 112
3, 58606, Note_on_c, 1, 85, 0
3, 58620, Note_on_c, 1, 83, 110
3, 58682, Note_on_c, 1, 83, 0
3, 58740, Note_on_c, 1, 83, 112
3, 58762, Note_on_c, 1, 83, 0
3, 58770, Note_on_c, 1, 85, 112
3, 58790, Note_on_c, 1, 85, 0
3, 58800, Note_on_c, 1, 86, 112
3, 58847, Note_on_c, 1, 86, 0
3, 58860, Note_on_c, 1, 85, 115
3, 58916, Note_on_c, 1, 85, 0
3, 58920, Note_on_c, 1, 83, 110
3, 58966, Note_on_c, 1, 83, 0
3, 58980, Note_on_c, 1, 82, 115
3, 59041, Note_on_c, 1, 82, 0
3, 59100, Note_on_c, 1, 82, 112
3, 59126, Note_on_c, 1, 82, 0
3, 59130, Note_on_c, 1, 83, 110
3, 59154, Note_on_c, 1, 83, 0
3, 59160, Note_on_c, 1, 85, 103
3, 59205, Note_on_c, 1, 85, 0
3, 59220, Note_on_c, 1, 83, 105
3, 59268, Note_on_c, 1, 83, 0
3, 59280, Note_on_c, 1, 81, 92
3, 59347, Note_on_c, 1, 81, 0
3, 59400, Note_on_c, 1, 83, 99
3, 59443, Note_on_c, 1, 83, 0
3, 59460, Note_on_c, 1, 85, 110
3, 59525, Note_on_c, 1, 85, 0
3, 59580, Note_on_c, 1, 85, 112
3, 59630, Note_on_c, 1, 85, 0
3, 59640, Note_on_c, 1, 86, 110
3, 59699, Note_on_c, 1, 86, 0
3, 59760, Note_on_c, 1, 86, 105
3, 59814, Note_on_c, 1, 86, 0
3, 59820, Note_on_c, 1, 91, 110
3, 59894, Note_on_c, 1, 91, 0
3, 59940, Note_on_c, 1, 91, 115
3, 59987, Note_on_c, 1, 91, 0
3, 60000, Note_on_c, 1, 85, 112
3, 60056, Note_on_c, 1, 85, 0
3, 60060, Note_on_c, 1, 82, 115
3, 60114, Note_on_c, 1, 82, 0
3, 60120, Note_on_c, 1, 78, 112
3, 60170, Note_on_c, 1, 78, 0
3, 60180, Note_on_c, 1, 83, 108
3, 60244, Note_on_c, 1, 83, 0
3, 60510, Note_on_c, 1, 91, 112
3, 60539, Note_on_c, 1, 91, 0
3, 60540, Note_on_c, 1, 91, 103
3, 60569, Note_on_c, 1, 91, 0
3, 60570, Note_on_c, 1, 88, 97
3, 60599, Note_on_c, 1, 88, 0
3, 60600, Note_on_c, 1, 88, 97
3, 60629, Note_on_c, 1, 88, 0
3, 60630, Note_on_c, 1, 84, 115
3, 60659, Note_on_c, 1, 84, 0
3, 60660, Note_on_c, 1, 84, 99
3, 60689, Note_on_c, 1, 84, 0
3, 60690, Note_on_c, 1, 88, 99
3, 60719, Note_on_c, 1, 88, 0
3, 60720, Note_on_c, 1, 88, 99
3, 60749, Note_on_c, 1, 88, 0
3, 60750, Note_on_c, 1, 84, 112
3, 60779, Note_on_c, 1, 84, 0
3, 60780, Note_on_c, 1, 84, 97
3, 60809, Note_on_c, 1, 84, 0
3, 60810, Note_on_c, 1, 82, 112
3, 60839, Note_on_c, 1, 82, 0
3, 60840, Note_on_c, 1, 82, 101
3, 60869, Note_on_c, 1, 82, 0
3, 60870, Note_on_c, 1, 85, 115
3, 60899, Note_on_c, 1, 85, 0
3, 60900, Note_on_c, 1, 85, 110
3, 60929, Note_on_c, 1, 85, 0
3, 60930, Note_on_c, 1, 82, 108
3, 60959, Note_on_c, 1, 82, 0
3, 60960, Note_on_c, 1, 82, 97
3, 60989, Note_on_c, 1, 82, 0
3, 60990, Note_on_c, 1, 78, 110
3, 61019, Note_on_c, 1, 78, 0
3, 61020, Note_on_c, 1, 83, 103
3, 61049, Note_on_c, 1, 83, 0
3, 61050, Note_on_c, 1, 78, 120
3, 61079, Note_on_c, 1, 78, 0
3, 61080, Note_on_c, 1, 83, 120
3, 61139, Note_on_c, 1, 83, 0
3, 61170, Note_on_c, 1, 79, 115
3, 61199, Note_on_c, 1, 79, 0
3, 61200, Note_on_c, 1, 81, 117
3, 61259, Note_on_c, 1, 81, 0
3, 61290, Note_on_c, 1, 74, 110
3, 61319, Note_on_c, 1, 74, 0
3, 61320, Note_on_c, 1, 79, 115
3, 61379, Note_on_c, 1, 79, 0
3, 61410, Note_on_c, 1, 79, 108
3, 61439, Note_on_c, 1, 79, 0
3, 61440, Note_on_c, 1, 78, 108
3, 61469, Note_on_c, 1, 78, 0
3, 61470, Note_on_c, 1, 76, 99
3, 61499, Note_on_c, 1, 76, 0
3, 61500, Note_on_c, 1, 74, 101
3, 61529, Note_on_c, 1, 74, 0
3, 61530, Note_on_c, 1, 73, 120
3, 61559, Note_on_c, 1, 73, 0
3, 61560, Note_on_c, 1, 74, 108
3, 61589, Note_on_c, 1, 74, 0
3, 61590, Note_on_c, 1, 76, 115
3, 61619, Note_on_c, 1, 76, 0
3, 61620, Note_on_c, 1, 73, 127
3, 61709, Note_on_c, 1, 73, 0
3, 61710, Note_on_c, 1, 71, 112
3, 61739, Note_on_c, 1, 71, 0
3, 61740, Note_on_c, 1, 71, 108
3, 61769, Note_on_c, 1, 71, 0
3, 61770, Note_on_c, 1, 74, 103
3, 61799, Note_on_c, 1, 74, 0
3, 61800, Note_on_c, 1, 74, 115
3, 61829, Note_on_c, 1, 74, 0
3, 61830, Note_on_c, 1, 78, 110
3, 61859, Note_on_c, 1, 78, 0
3, 61860, Note_on_c, 1, 78, 110
3, 61889, Note_on_c, 1, 78, 0
3, 61890, Note_on_c, 1, 83, 110
3, 61919, Note_on_c, 1, 83, 0
3, 61920, Note_on_c, 1, 83, 117
3, 62069, Note_on_c, 1, 83, 0
3, 62100, Note_on_c, 1, 86, 120
3, 62500, Note_on_c, 1, 86, 0
3, 62520, Note_on_c, 1, 84, 112
3, 62565, Note_on_c, 1, 84, 0
3, 62580, Note_on_c, 1, 83, 108
3, 62626, Note_on_c, 1, 83, 0
3, 62700, Note_on_c, 1, 83, 110
3, 62723, Note_on_c, 1, 83, 0
3, 62730, Note_on_c, 1, 84, 110
3, 62749, Note_on_c, 1, 84, 0
3, 62760, Note_on_c, 1, 86, 112
3, 62806, Note_on_c, 1, 86, 0
3, 62820, Note_on_c, 1, 84, 112
3, 62877, Note_on_c, 1, 84, 0
3, 62880, Note_on_c, 1, 83, 112
3, 62931, Note_on_c, 1, 83, 0
3, 62940, Note_on_c, 1, 81, 101
3, 62997, Note_on_c, 1, 81, 0
3, 63060, Note_on_c, 1, 81, 88
3, 63088, Note_on_c, 1, 81, 0
3, 63090, Note_on_c, 1, 83, 108
3, 63117, Note_on_c, 1, 83, 0
3, 63120, Note_on_c, 1, 84, 110
3, 63151, Note_on_c, 1, 84, 0
3, 63180, Note_on_c, 1, 83, 97
3, 63204, Note_on_c, 1, 83, 0
3, 63210, Note_on_c, 1, 86, 97
3, 63236, Note_on_c, 1, 86, 0
3, 63240, Note_on_c, 1, 91, 110
3, 63270, Note_on_c, 1, 91, 0
3, 63270, Note_on_c, 1, 86, 103
3, 63300, Note_on_c, 1, 83, 112
3, 63301, Note_on_c, 1, 86, 0
3, 63330, Note_on_c, 1, 79, 95
3, 63331, Note_on_c, 1, 83, 0
3, 63355, Note_on_c, 1, 79, 0
3, 63360, Note_on_c, 1, 78, 110
3, 63389, Note_on_c, 1, 78, 0
3, 63390, Note_on_c, 1, 81, 115
3, 63420, Note_on_c, 1, 81, 0
3, 63420, Note_on_c, 1, 86, 115
3, 63446, Note_on_c, 1, 86, 0
3, 63450, Note_on_c, 1, 81, 115
3, 63480, Note_on_c, 1, 78, 112
3, 63486, Note_on_c, 1, 81, 0
3, 63509, Note_on_c, 1, 78, 0
3, 63510, Note_on_c, 1, 74, 103
3, 63537, Note_on_c, 1, 74, 0
3, 63540, Note_on_c, 1, 83, 112
3, 63590, Note_on_c, 1, 83, 0
3, 63600, Note_on_c, 1, 81, 115
3, 63643, Note_on_c, 1, 81, 0
3, 63660, Note_on_c, 1, 79, 110
3, 63714, Note_on_c, 1, 79, 0
3, 63780, Note_on_c, 1, 79, 112
3, 63800, Note_on_c, 1, 79, 0
3, 63810, Note_on_c, 1, 81, 110
3, 63829, Note_on_c, 1, 81, 0
3, 63840, Note_on_c, 1, 83, 112
3, 63883, Note_on_c, 1, 83, 0
3, 63900, Note_on_c, 1, 81, 112
3, 63956, Note_on_c, 1, 81, 0
3, 63960, Note_on_c, 1, 79, 97
3, 64008, Note_on_c, 1, 79, 0
3, 64020, Note_on_c, 1, 78, 105
3, 64082, Note_on_c, 1, 78, 0
3, 64140, Note_on_c, 1, 78, 120
3, 64161, Note_on_c, 1, 78, 0
3, 64170, Note_on_c, 1, 79, 108
3, 64190, Note_on_c, 1, 79, 0
3, 64200, Note_on_c, 1, 81, 108
3, 64241, Note_on_c, 1, 81, 0
3, 64260, Note_on_c, 1, 79, 110
3, 64635, Note_on_c, 1, 79, 0
3, 64650, Note_on_c, 1, 76, 115
3, 64680, Note_on_c, 1, 78, 110
3, 64685, Note_on_c, 1, 76, 0
3, 64707, Note_on_c, 1, 78, 0
3, 64710, Note_on_c, 1, 79, 108
3, 64740, Note_on_c, 1, 81, 123
3, 64743, Note_on_c, 1, 79, 0
3, 64770, Note_on_c, 1, 83, 117
3, 64774, Note_on_c, 1, 81, 0
3, 64800, Note_on_c, 1, 85, 120
3, 64810, Note_on_c, 1, 83, 0
3, 64830, Note_on_c, 1, 81, 97
3, 64831, Note_on_c, 1, 85, 0
3, 64860, Note_on_c, 1, 78, 112
3, 64870, Note_on_c, 1, 81, 0
3, 64888, Note_on_c, 1, 78, 0
3, 64890, Note_on_c, 1, 73, 123
3, 64920, Note_on_c, 1, 78, 117
3, 64921, Note_on_c, 1, 73, 0
3, 64950, Note_on_c, 1, 81, 103
3, 64953, Note_on_c, 1, 78, 0
3, 64973, Note_on_c, 1, 81, 0
3, 64980, Note_on_c, 1, 74, 115
3, 65024, Note_on_c, 1, 74, 0
3, 65040, Note_on_c, 1, 83, 117
3, 65386, Note_on_c, 1, 83, 0
3, 65400, Note_on_c, 1, 79, 115
3, 65460, Note_on_c, 1, 83, 115
3, 65462, Note_on_c, 1, 79, 0
3, 65512, Note_on_c, 1, 83, 0
3, 65520, Note_on_c, 1, 88, 123
3, 65730, Note_on_c, 1, 69, 97
3, 65731, Note_on_c, 1, 88, 0
3, 65753, Note_on_c, 1, 69, 0
3, 65760, Note_on_c, 1, 69, 95
3, 65790, Note_on_c, 1, 73, 112
3, 65791, Note_on_c, 1, 69, 0
3, 65808, Note_on_c, 1, 73, 0
3, 65820, Note_on_c, 1, 73, 117
3, 65850, Note_on_c, 1, 76, 112
3, 65851, Note_on_c, 1, 73, 0
3, 65871, Note_on_c, 1, 76, 0
3, 65880, Note_on_c, 1, 76, 110
3, 65910, Note_on_c, 1, 73, 120
3, 65911, Note_on_c, 1, 76, 0
3, 65927, Note_on_c, 1, 73, 0
3, 65940, Note_on_c, 1, 73, 126
3, 65967, Note_on_c, 1, 73, 0
3, 65970, Note_on_c, 1, 76, 115
3, 65991, Note_on_c, 1, 76, 0
3, 66000, Note_on_c, 1, 76, 105
3, 66028, Note_on_c, 1, 76, 0
3, 66030, Note_on_c, 1, 81, 110
3, 66052, Note_on_c, 1, 81, 0
3, 66060, Note_on_c, 1, 81, 120
3, 66469, Note_on_c, 1, 81, 0
3, 66480, Note_on_c, 1, 79, 115
3, 66526, Note_on_c, 1, 79, 0
3, 66540, Note_on_c, 1, 78, 120
3, 66595, Note_on_c, 1, 78, 0
3, 66660, Note_on_c, 1, 78, 112
3, 66686, Note_on_c, 1, 78, 0
3, 66690, Note_on_c, 1, 79, 108
3, 66710, Note_on_c, 1, 79, 0
3, 66720, Note_on_c, 1, 81, 115
3, 66762, Note_on_c, 1, 81, 0
3, 66780, Note_on_c, 1, 79, 117
3, 66832, Note_on_c, 1, 79, 0
3, 66840, Note_on_c, 1, 78, 126
3, 66888, Note_on_c, 1, 78, 0
3, 66900, Note_on_c, 1, 76, 115
3, 66954, Note_on_c, 1, 76, 0
3, 67020, Note_on_c, 1, 76, 112
3, 67046, Note_on_c, 1, 76, 0
3, 67050, Note_on_c, 1, 78, 115
3, 67074, Note_on_c, 1, 78, 0
3, 67080, Note_on_c, 1, 79, 108
3, 67121, Note_on_c, 1, 79, 0
3, 67140, Note_on_c, 1, 78, 120
3, 67208, Note_on_c, 1, 78, 0
3, 67320, Note_on_c, 1, 76, 115
3, 67383, Note_on_c, 1, 76, 0
3, 67500, Note_on_c, 1, 74, 112
3, 67562, Note_on_c, 1, 74, 0
3, 68280, Note_on_c, 1, 81, 112
3, 68310, Note_on_c, 1, 83, 123
3, 68312, Note_on_c, 1, 81, 0
3, 68338, Note_on_c, 1, 83, 0
3, 68340, Note_on_c, 1, 81, 123
3, 68360, Note_on_c, 1, 81, 0
3, 68370, Note_on_c, 1, 83, 126
3, 68394, Note_on_c, 1, 83, 0
3, 68400, Note_on_c, 1, 84, 117
3, 68427, Note_on_c, 1, 84, 0
3, 68430, Note_on_c, 1, 83, 127
3, 68457, Note_on_c, 1, 83, 0
3, 68460, Note_on_c, 1, 81, 123
3, 68485, Note_on_c, 1, 81, 0
3, 68490, Note_on_c, 1, 83, 123
3, 68510, Note_on_c, 1, 83, 0
3, 68520, Note_on_c, 1, 84, 117
3, 68610, Note_on_c, 1, 83, 120
3, 68616, Note_on_c, 1, 84, 0
3, 68634, Note_on_c, 1, 83, 0
3, 68640, Note_on_c, 1, 81, 120
3, 68667, Note_on_c, 1, 81, 0
3, 68670, Note_on_c, 1, 83, 117
3, 68700, Note_on_c, 1, 84, 117
3, 68704, Note_on_c, 1, 83, 0
3, 68730, Note_on_c, 1, 84, 0
3, 68730, Note_on_c, 1, 83, 115
3, 68754, Note_on_c, 1, 83, 0
3, 68760, Note_on_c, 1, 84, 117
3, 68789, Note_on_c, 1, 84, 0
3, 68790, Note_on_c, 1, 88, 115
3, 68820, Note_on_c, 1, 86, 117
3, 68825, Note_on_c, 1, 88, 0
3, 68850, Note_on_c, 1, 84, 120
3, 68855, Note_on_c, 1, 86, 0
3, 68880, Note_on_c, 1, 83, 120
3, 68890, Note_on_c, 1, 84, 0
3, 68910, Note_on_c, 1, 81, 105
3, 68914, Note_on_c, 1, 83, 0
3, 68937, Note_on_c, 1, 81, 0
3, 68940, Note_on_c, 1, 83, 123
3, 68968, Note_on_c, 1, 83, 0
3, 68970, Note_on_c, 1, 81, 120
3, 69000, Note_on_c, 1, 83, 126
3, 69008, Note_on_c, 1, 81, 0
3, 69030, Note_on_c, 1, 84, 120
3, 69035, Note_on_c, 1, 83, 0
3, 69060, Note_on_c, 1, 83, 123
3, 69063, Note_on_c, 1, 84, 0
3, 69090, Note_on_c, 1, 84, 120
3, 69100, Note_on_c, 1, 83, 0
3, 69120, Note_on_c, 1, 86, 120
3, 69123, Note_on_c, 1, 84, 0
3, 69150, Note_on_c, 1, 86, 0
3, 69150, Note_on_c, 1, 84, 117
3, 69180, Note_on_c, 1, 84, 0
3, 69180, Note_on_c, 1, 83, 127
3, 69210, Note_on_c, 1, 84, 120
3, 69216, Note_on_c, 1, 83, 0
3, 69233, Note_on_c, 1, 84, 0
3, 69240, Note_on_c, 1, 86, 120
3, 69327, Note_on_c, 1, 86, 0
3, 69330, Note_on_c, 1, 84, 115
3, 69360, Note_on_c, 1, 83, 120
3, 69366, Note_on_c, 1, 84, 0
3, 69390, Note_on_c, 1, 84, 115
3, 69393, Note_on_c, 1, 83, 0
3, 69420, Note_on_c, 1, 86, 112
3, 69425, Note_on_c, 1, 84, 0
3, 69450, Note_on_c, 1, 84, 103
3, 69453, Note_on_c, 1, 86, 0
3, 69478, Note_on_c, 1, 84, 0
3, 69480, Note_on_c, 1, 86, 117
3, 69510, Note_on_c, 1, 89, 120
3, 69512, Note_on_c, 1, 86, 0
3, 69540, Note_on_c, 1, 88, 115
3, 69544, Note_on_c, 1, 89, 0
3, 69570, Note_on_c, 1, 86, 115
3, 69578, Note_on_c, 1, 88, 0
3, 69600, Note_on_c, 1, 84, 117
3, 69605, Note_on_c, 1, 86, 0
3, 69630, Note_on_c, 1, 83, 101
3, 69631, Note_on_c, 1, 84, 0
3, 69657, Note_on_c, 1, 83, 0
3, 69660, Note_on_c, 1, 84, 123
3, 69690, Note_on_c, 1, 86, 117
3, 69695, Note_on_c, 1, 84, 0
3, 69720, Note_on_c, 1, 84, 127
3, 69728, Note_on_c, 1, 86, 0
3, 69750, Note_on_c, 1, 86, 117
3, 69754, Note_on_c, 1, 84, 0
3, 69778, Note_on_c, 1, 86, 0
3, 69780, Note_on_c, 1, 88, 126
3, 69879, Note_on_c, 1, 88, 0
3, 69900, Note_on_c, 1, 86, 115
3, 69930, Note_on_c, 1, 84, 115
3, 69931, Note_on_c, 1, 86, 0
3, 69955, Note_on_c, 1, 84, 0
3, 69960, Note_on_c, 1, 86, 123
3, 70042, Note_on_c, 1, 86, 0
3, 70080, Note_on_c, 1, 84, 110
3, 70110, Note_on_c, 1, 83, 112
3, 70115, Note_on_c, 1, 84, 0
3, 70135, Note_on_c, 1, 83, 0
3, 70140, Note_on_c, 1, 84, 120
3, 70232, Note_on_c, 1, 84, 0
3, 70260, Note_on_c, 1, 83, 115
3, 70290, Note_on_c, 1, 81, 123
3, 70298, Note_on_c, 1, 83, 0
3, 70311, Note_on_c, 1, 81, 0
3, 70320, Note_on_c, 1, 83, 120
3, 70390, Note_on_c, 1, 83, 0
3, 70410, Note_on_c, 1, 79, 108
3, 70440, Note_on_c, 1, 81, 120
3, 70446, Note_on_c, 1, 79, 0
3, 70470, Note_on_c, 1, 83, 115
3, 70474, Note_on_c, 1, 81, 0
3, 70500, Note_on_c, 1, 84, 103
3, 70500, Note_on_c, 1, 83, 99
3, 70501, Note_on_c, 1, 83, 0
3, 70526, Note_on_c, 1, 83, 0
3, 70530, Note_on_c, 1, 86, 95
3, 70532, Note_on_c, 1, 84, 0
3, 70560, Note_on_c, 1, 88, 115
3, 70569, Note_on_c, 1, 86, 0
3, 70590, Note_on_c, 1, 84, 101
3, 70599, Note_on_c, 1, 88, 0
3, 70620, Note_on_c, 1, 81, 110
3, 70630, Note_on_c, 1, 84, 0
3, 70650, Note_on_c, 1, 76, 108
3, 70656, Note_on_c, 1, 81, 0
3, 70680, Note_on_c, 1, 81, 120
3, 70685, Note_on_c, 1, 76, 0
3, 70710, Note_on_c, 1, 81, 0
3, 70710, Note_on_c, 1, 84, 115
3, 70738, Note_on_c, 1, 84, 0
3, 70740, Note_on_c, 1, 78, 123
3, 70783, Note_on_c, 1, 78, 0
3, 70800, Note_on_c, 1, 86, 120
3, 71101, Note_on_c, 1, 86, 0
3, 71130, Note_on_c, 1, 83, 105
3, 71160, Note_on_c, 1, 83, 0
3, 71160, Note_on_c, 1, 84, 99
3, 71190, Note_on_c, 1, 86, 105
3, 71197, Note_on_c, 1, 84, 0
3, 71220, Note_on_c, 1, 88, 101
3, 71228, Note_on_c, 1, 86, 0
3, 71250, Note_on_c, 1, 90, 115
3, 71255, Note_on_c, 1, 88, 0
3, 71280, Note_on_c, 1, 91, 108
3, 71283, Note_on_c, 1, 90, 0
3, 71310, Note_on_c, 1, 88, 103
3, 71317, Note_on_c, 1, 91, 0
3, 71340, Note_on_c, 1, 84, 105
3, 71349, Note_on_c, 1, 88, 0
3, 71370, Note_on_c, 1, 79, 95
3, 71372, Note_on_c, 1, 84, 0
3, 71400, Note_on_c, 1, 84, 112
3, 71407, Note_on_c, 1, 79, 0
3, 71429, Note_on_c, 1, 84, 0
3, 71430, Note_on_c, 1, 88, 112
3, 71454, Note_on_c, 1, 88, 0
3, 71460, Note_on_c, 1, 84, 127
3, 72016, Note_on_c, 1, 84, 0
3, 72030, Note_on_c, 1, 74, 101
3, 72060, Note_on_c, 1, 78, 123
3, 72066, Note_on_c, 1, 74, 0
3, 72087, Note_on_c, 1, 78, 0
3, 72090, Note_on_c, 1, 81, 110
3, 72111, Note_on_c, 1, 81, 0
3, 72120, Note_on_c, 1, 81, 110
3, 72148, Note_on_c, 1, 81, 0
3, 72150, Note_on_c, 1, 86, 115
3, 72170, Note_on_c, 1, 86, 0
3, 72180, Note_on_c, 1, 86, 120
3, 72581, Note_on_c, 1, 86, 0
3, 72600, Note_on_c, 1, 84, 117
3, 72640, Note_on_c, 1, 84, 0
3, 72660, Note_on_c, 1, 83, 112
3, 72715, Note_on_c, 1, 83, 0
3, 72780, Note_on_c, 1, 83, 115
3, 72801, Note_on_c, 1, 83, 0
3, 72810, Note_on_c, 1, 84, 120
3, 72830, Note_on_c, 1, 84, 0
3, 72840, Note_on_c, 1, 86, 117
3, 72889, Note_on_c, 1, 86, 0
3, 72900, Note_on_c, 1, 84, 115
3, 72956, Note_on_c, 1, 84, 0
3, 72960, Note_on_c, 1, 83, 115
3, 73009, Note_on_c, 1, 83, 0
3, 73020, Note_on_c, 1, 81, 112
3, 73079, Note_on_c, 1, 81, 0
3, 73140, Note_on_c, 1, 81, 115
3, 73167, Note_on_c, 1, 81, 0
3, 73170, Note_on_c, 1, 83, 117
3, 73195, Note_on_c, 1, 83, 0
3, 73200, Note_on_c, 1, 84, 117
3, 73242, Note_on_c, 1, 84, 0
3, 73260, Note_on_c, 1, 83, 115
3, 73290, Note_on_c, 1, 84, 117
3, 73299, Note_on_c, 1, 83, 0
3, 73312, Note_on_c, 1, 84, 0
3, 73320, Note_on_c, 1, 86, 112
3, 73350, Note_on_c, 1, 83, 115
3, 73354, Note_on_c, 1, 86, 0
3, 73378, Note_on_c, 1, 83, 0
3, 73380, Note_on_c, 1, 79, 97
3, 73408, Note_on_c, 1, 79, 0
3, 73410, Note_on_c, 1, 83, 115
3, 73440, Note_on_c, 1, 81, 112
3, 73449, Note_on_c, 1, 83, 0
3, 73470, Note_on_c, 1, 78, 120
3, 73472, Note_on_c, 1, 81, 0
3, 73500, Note_on_c, 1, 74, 97
3, 73501, Note_on_c, 1, 78, 0
3, 73528, Note_on_c, 1, 74, 0
3, 73530, Note_on_c, 1, 78, 117
3, 73560, Note_on_c, 1, 81, 110
3, 73561, Note_on_c, 1, 78, 0
3, 73588, Note_on_c, 1, 81, 0
3, 73590, Note_on_c, 1, 84, 115
3, 73616, Note_on_c, 1, 84, 0
3, 73620, Note_on_c, 1, 83, 120
3, 73675, Note_on_c, 1, 83, 0
3, 73680, Note_on_c, 1, 81, 117
3, 73725, Note_on_c, 1, 81, 0
3, 73740, Note_on_c, 1, 79, 112
3, 73804, Note_on_c, 1, 79, 0
3, 73860, Note_on_c, 1, 79, 115
3, 73884, Note_on_c, 1, 79, 0
3, 73890, Note_on_c, 1, 81, 108
3, 73913, Note_on_c, 1, 81, 0
3, 73920, Note_on_c, 1, 83, 117
3, 73968, Note_on_c, 1, 83, 0
3, 73980, Note_on_c, 1, 81, 112
3, 74032, Note_on_c, 1, 81, 0
3, 74040, Note_on_c, 1, 79, 108
3, 74088, Note_on_c, 1, 79, 0
3, 74100, Note_on_c, 1, 78, 115
3, 74168, Note_on_c, 1, 78, 0
3, 74220, Note_on_c, 1, 78, 112
3, 74242, Note_on_c, 1, 78, 0
3, 74250, Note_on_c, 1, 79, 108
3, 74275, Note_on_c, 1, 79, 0
3, 74280, Note_on_c, 1, 81, 112
3, 74333, Note_on_c, 1, 81, 0
3, 74340, Note_on_c, 1, 79, 99
3, 74386, Note_on_c, 1, 79, 0
3, 74400, Note_on_c, 1, 74, 90
3, 74421, Note_on_c, 1, 74, 0
3, 74430, Note_on_c, 1, 76, 120
3, 74453, Note_on_c, 1, 76, 0
3, 74460, Note_on_c, 1, 77, 115
3, 74544, Note_on_c, 1, 77, 0
3, 74580, Note_on_c, 1, 76, 115
3, 74603, Note_on_c, 1, 76, 0
3, 74610, Note_on_c, 1, 78, 117
3, 74632, Note_on_c, 1, 78, 0
3, 74640, Note_on_c, 1, 79, 112
3, 74733, Note_on_c, 1, 79, 0
3, 74760, Note_on_c, 1, 78, 120
3, 74782, Note_on_c, 1, 78, 0
3, 74790, Note_on_c, 1, 79, 115
3, 74808, Note_on_c, 1, 79, 0
3, 74820, Note_on_c, 1, 81, 112
3, 74924, Note_on_c, 1, 81, 0
3, 74940, Note_on_c, 1, 79, 112
3, 74963, Note_on_c, 1, 79, 0
3, 74970, Note_on_c, 1, 81, 123
3, 74991, Note_on_c, 1, 81, 0
3, 75000, Note_on_c, 1, 83, 112
3, 75097, Note_on_c, 1, 83, 0
3, 75120, Note_on_c, 1, 81, 108
3, 75140, Note_on_c, 1, 81, 0
3, 75150, Note_on_c, 1, 83, 117
3, 75173, Note_on_c, 1, 83, 0
3, 75180, Note_on_c, 1, 84, 117
3, 75292, Note_on_c, 1, 84, 0
3, 75300, Note_on_c, 1, 83, 120
3, 75326, Note_on_c, 1, 83, 0
3, 75330, Note_on_c, 1, 84, 117
3, 75352, Note_on_c, 1, 84, 0
3, 75360, Note_on_c, 1, 86, 117
3, 75429, Note_on_c, 1, 86, 0
3, 75450, Note_on_c, 1, 76, 112
3, 75480, Note_on_c, 1, 77, 115
3, 75487, Note_on_c, 1, 76, 0
3, 75510, Note_on_c, 1, 79, 112
3, 75512, Note_on_c, 1, 77, 0
3, 75540, Note_on_c, 1, 81, 126
3, 75546, Note_on_c, 1, 79, 0
3, 75570, Note_on_c, 1, 83, 117
3, 75575, Note_on_c, 1, 81, 0
3, 75600, Note_on_c, 1, 84, 120
3, 75609, Note_on_c, 1, 83, 0
3, 75626, Note_on_c, 1, 84, 0
3, 75630, Note_on_c, 1, 88, 112
3, 75651, Note_on_c, 1, 88, 0
3, 75660, Note_on_c, 1, 88, 115
3, 75690, Note_on_c, 1, 84, 117
3, 75695, Note_on_c, 1, 88, 0
3, 75712, Note_on_c, 1, 84, 0
3, 75720, Note_on_c, 1, 84, 108
3, 75750, Note_on_c, 1, 81, 112
3, 75756, Note_on_c, 1, 84, 0
3, 75772, Note_on_c, 1, 81, 0
3, 75780, Note_on_c, 1, 81, 110
3, 75809, Note_on_c, 1, 81, 0
3, 75810, Note_on_c, 1, 84, 120
3, 75831, Note_on_c, 1, 84, 0
3, 75840, Note_on_c, 1, 84, 112
3, 75870, Note_on_c, 1, 81, 115
3, 75873, Note_on_c, 1, 84, 0
3, 75892, Note_on_c, 1, 81, 0
3, 75900, Note_on_c, 1, 81, 108
3, 75930, Note_on_c, 1, 78, 117
3, 75931, Note_on_c, 1, 81, 0
3, 75952, Note_on_c, 1, 78, 0
3, 75960, Note_on_c, 1, 78, 105
3, 75987, Note_on_c, 1, 78, 0
3, 75990, Note_on_c, 1, 81, 110
3, 76011, Note_on_c, 1, 81, 0
3, 76020, Note_on_c, 1, 81, 108
3, 76050, Note_on_c, 1, 78, 112
3, 76053, Note_on_c, 1, 81, 0
3, 76069, Note_on_c, 1, 78, 0
3, 76080, Note_on_c, 1, 78, 103
3, 76108, Note_on_c, 1, 78, 0
3, 76110, Note_on_c, 1, 74, 105
3, 76135, Note_on_c, 1, 74, 0
3, 76140, Note_on_c, 1, 86, 123
3, 76212, Note_on_c, 1, 86, 0
3, 76230, Note_on_c, 1, 79, 112
3, 76251, Note_on_c, 1, 79, 0
3, 76260, Note_on_c, 1, 84, 120
3, 76317, Note_on_c, 1, 84, 0
3, 76350, Note_on_c, 1, 81, 120
3, 76372, Note_on_c, 1, 81, 0
3, 76380, Note_on_c, 1, 83, 120
3, 76437, Note_on_c, 1, 83, 0
3, 76470, Note_on_c, 1, 76, 105
3, 76492, Note_on_c, 1, 76, 0
3, 76500, Note_on_c, 1, 81, 117
3, 76572, Note_on_c, 1, 81, 0
3, 76590, Note_on_c, 1, 78, 123
3, 76610, Note_on_c, 1, 78, 0
3, 76620, Note_on_c, 1, 79, 117
3, 76698, Note_on_c, 1, 79, 0
3, 76710, Note_on_c, 1, 81, 115
3, 76736, Note_on_c, 1, 81, 0
3, 76740, Note_on_c, 1, 78, 126
3, 76826, Note_on_c, 1, 78, 0
3, 76830, Note_on_c, 1, 79, 112
3, 76856, Note_on_c, 1, 79, 0
3, 76860, Note_on_c, 1, 79, 117
3, 77035, Note_on_c, 1, 79, 0
3, 77035, End_track
4, 0, Start_track
4, 0, MIDI_port, 0
4, 0, Title_t, "Flute 2"
4, 0, Program_c, 2, 73
4, 0, Control_c, 2, 7, 100
4, 0, Control_c, 2, 10, 30
4, 12, Channel_aftertouch_c, 2, 100
4, 180, Note_on_c, 2, 83, 99
4, 210, Note_on_c, 2, 86, 99
4, 212, Note_on_c, 2, 83, 0
4, 240, Note_on_c, 2, 91, 112
4, 241, Note_on_c, 2, 86, 0
4, 270, Note_on_c, 2, 86, 112
4, 272, Note_on_c, 2, 91, 0
4, 300, Note_on_c, 2, 83, 117
4, 303, Note_on_c, 2, 86, 0
4, 329, Note_on_c, 2, 83, 0
4, 330, Note_on_c, 2, 79, 99
4, 352, Note_on_c, 2, 79, 0
4, 360, Note_on_c, 2, 78, 120
4, 390, Note_on_c, 2, 78, 0
4, 390, Note_on_c, 2, 81, 110
4, 420, Note_on_c, 2, 86, 120
4, 421, Note_on_c, 2, 81, 0
4, 450, Note_on_c, 2, 81, 110
4, 452, Note_on_c, 2, 86, 0
4, 480, Note_on_c, 2, 78, 117
4, 482, Note_on_c, 2, 81, 0
4, 509, Note_on_c, 2, 78, 0
4, 510, Note_on_c, 2, 74, 90
4, 533, Note_on_c, 2, 74, 0
4, 540, Note_on_c, 2, 83, 110
4, 586, Note_on_c, 2, 83, 0
4, 600, Note_on_c, 2, 81, 103
4, 646, Note_on_c, 2, 81, 0
4, 660, Note_on_c, 2, 79, 95
4, 716, Note_on_c, 2, 79, 0
4, 780, Note_on_c, 2, 79, 110
4, 803, Note_on_c, 2, 79, 0
4, 810, Note_on_c, 2, 81, 88
4, 832, Note_on_c, 2, 81, 0
4, 840, Note_on_c, 2, 83, 112
4, 888, Note_on_c, 2, 83, 0
4, 900, Note_on_c, 2, 81, 110
4, 949, Note_on_c, 2, 81, 0
4, 960, Note_on_c, 2, 79, 95
4, 1009, Note_on_c, 2, 79, 0
4, 1020, Note_on_c, 2, 78, 110
4, 1089, Note_on_c, 2, 78, 0
4, 1140, Note_on_c, 2, 78, 110
4, 1164, Note_on_c, 2, 78, 0
4, 1170, Note_on_c, 2, 79, 105
4, 1193, Note_on_c, 2, 79, 0
4, 1200, Note_on_c, 2, 81, 112
4, 1251, Note_on_c, 2, 81, 0
4, 1260, Note_on_c, 2, 74, 108
4, 1679, Note_on_c, 2, 74, 0
4, 1680, Note_on_c, 2, 72, 115
4, 1727, Note_on_c, 2, 72, 0
4, 1740, Note_on_c, 2, 71, 112
4, 1802, Note_on_c, 2, 71, 0
4, 1860, Note_on_c, 2, 71, 112
4, 1884, Note_on_c, 2, 71, 0
4, 1890, Note_on_c, 2, 72, 115
4, 1913, Note_on_c, 2, 72, 0
4, 1920, Note_on_c, 2, 74, 108
4, 1970, Note_on_c, 2, 74, 0
4, 1980, Note_on_c, 2, 72, 110
4, 2039, Note_on_c, 2, 72, 0
4, 2040, Note_on_c, 2, 71, 112
4, 2094, Note_on_c, 2, 71, 0
4, 2100, Note_on_c, 2, 69, 112
4, 2167, Note_on_c, 2, 69, 0
4, 2220, Note_on_c, 2, 69, 95
4, 2250, Note_on_c, 2, 71, 123
4, 2251, Note_on_c, 2, 69, 0
4, 2280, Note_on_c, 2, 72, 112
4, 2282, Note_on_c, 2, 71, 0
4, 2321, Note_on_c, 2, 72, 0
4, 2340, Note_on_c, 2, 71, 92
4, 2370, Note_on_c, 2, 74, 95
4, 2373, Note_on_c, 2, 71, 0
4, 2400, Note_on_c, 2, 76, 115
4, 2407, Note_on_c, 2, 74, 0
4, 2430, Note_on_c, 2, 78, 117
4, 2442, Note_on_c, 2, 76, 0
4, 2457, Note_on_c, 2, 78, 0
4, 2460, Note_on_c, 2, 79, 110
4, 2486, Note_on_c, 2, 79, 0
4, 2490, Note_on_c, 2, 81, 112
4, 2516, Note_on_c, 2, 81, 0
4, 2520, Note_on_c, 2, 83, 115
4, 2550, Note_on_c, 2, 79, 101
4, 2552, Note_on_c, 2, 83, 0
4, 2580, Note_on_c, 2, 76, 103
4, 2587, Note_on_c, 2, 79, 0
4, 2610, Note_on_c, 2, 71, 108
4, 2613, Note_on_c, 2, 76, 0
4, 2640, Note_on_c, 2, 76, 108
4, 2646, Note_on_c, 2, 71, 0
4, 2669, Note_on_c, 2, 76, 0
4, 2670, Note_on_c, 2, 79, 110
4, 2700, Note_on_c, 2, 73, 115
4, 2701, Note_on_c, 2, 79, 0
4, 2749, Note_on_c, 2, 73, 0
4, 2760, Note_on_c, 2, 81, 117
4, 3077, Note_on_c, 2, 81, 0
4, 3090, Note_on_c, 2, 78, 117
4, 3120, Note_on_c, 2, 78, 0
4, 3120, Note_on_c, 2, 79, 99
4, 3150, Note_on_c, 2, 81, 112
4, 3152, Note_on_c, 2, 79, 0
4, 3180, Note_on_c, 2, 83, 120
4, 3188, Note_on_c, 2, 81, 0
4, 3210, Note_on_c, 2, 84, 120
4, 3218, Note_on_c, 2, 83, 0
4, 3238, Note_on_c, 2, 84, 0
4, 3240, Note_on_c, 2, 86, 117
4, 3270, Note_on_c, 2, 83, 108
4, 3276, Note_on_c, 2, 86, 0
4, 3300, Note_on_c, 2, 79, 110
4, 3306, Note_on_c, 2, 83, 0
4, 3330, Note_on_c, 2, 74, 97
4, 3331, Note_on_c, 2, 79, 0
4, 3360, Note_on_c, 2, 79, 117
4, 3367, Note_on_c, 2, 74, 0
4, 3390, Note_on_c, 2, 83, 117
4, 3391, Note_on_c, 2, 79, 0
4, 3420, Note_on_c, 2, 83, 0
4, 3420, Note_on_c, 2, 79, 127
4, 3982, Note_on_c, 2, 79, 0
4, 3990, Note_on_c, 2, 69, 117
4, 4010, Note_on_c, 2, 69, 0
4, 4020, Note_on_c, 2, 69, 115
4, 4048, Note_on_c, 2, 69, 0
4, 4050, Note_on_c, 2, 73, 112
4, 4071, Note_on_c, 2, 73, 0
4, 4080, Note_on_c, 2, 73, 112
4, 4108, Note_on_c, 2, 73, 0
4, 4110, Note_on_c, 2, 76, 99
4, 4140, Note_on_c, 2, 76, 0
4, 4140, Note_on_c, 2, 74, 123
4, 4170, Note_on_c, 2, 78, 123
4, 4172, Note_on_c, 2, 74, 0
4, 4200, Note_on_c, 2, 81, 117
4, 4202, Note_on_c, 2, 78, 0
4, 4230, Note_on_c, 2, 78, 120
4, 4236, Note_on_c, 2, 81, 0
4, 4260, Note_on_c, 2, 74, 117
4, 4261, Note_on_c, 2, 78, 0
4, 4290, Note_on_c, 2, 78, 112
4, 4293, Note_on_c, 2, 74, 0
4, 4320, Note_on_c, 2, 76, 115
4, 4323, Note_on_c, 2, 78, 0
4, 4350, Note_on_c, 2, 73, 117
4, 4355, Note_on_c, 2, 76, 0
4, 4380, Note_on_c, 2, 69, 110
4, 4382, Note_on_c, 2, 73, 0
4, 4410, Note_on_c, 2, 73, 123
4, 4414, Note_on_c, 2, 69, 0
4, 4440, Note_on_c, 2, 76, 112
4, 4444, Note_on_c, 2, 73, 0
4, 4470, Note_on_c, 2, 79, 115
4, 4472, Note_on_c, 2, 76, 0
4, 4493, Note_on_c, 2, 79, 0
4, 4500, Note_on_c, 2, 78, 123
4, 4550, Note_on_c, 2, 78, 0
4, 4560, Note_on_c, 2, 76, 112
4, 4607, Note_on_c, 2, 76, 0
4, 4620, Note_on_c, 2, 74, 120
4, 4687, Note_on_c, 2, 74, 0
4, 4740, Note_on_c, 2, 74, 112
4, 4770, Note_on_c, 2, 76, 115
4, 4771, Note_on_c, 2, 74, 0
4, 4793, Note_on_c, 2, 76, 0
4, 4800, Note_on_c, 2, 78, 115
4, 4846, Note_on_c, 2, 78, 0
4, 4860, Note_on_c, 2, 76, 112
4, 4914, Note_on_c, 2, 76, 0
4, 4920, Note_on_c, 2, 74, 110
4, 4971, Note_on_c, 2, 74, 0
4, 4980, Note_on_c, 2, 73, 120
4, 5045, Note_on_c, 2, 73, 0
4, 5100, Note_on_c, 2, 73, 115
4, 5125, Note_on_c, 2, 73, 0
4, 5130, Note_on_c, 2, 74, 117
4, 5157, Note_on_c, 2, 74, 0
4, 5160, Note_on_c, 2, 76, 108
4, 5209, Note_on_c, 2, 76, 0
4, 5220, Note_on_c, 2, 74, 115
4, 5302, Note_on_c, 2, 74, 0
4, 5400, Note_on_c, 2, 73, 120
4, 5479, Note_on_c, 2, 73, 0
4, 5580, Note_on_c, 2, 74, 97
4, 5642, Note_on_c, 2, 74, 0
4, 6360, Note_on_c, 2, 78, 117
4, 6390, Note_on_c, 2, 79, 115
4, 6391, Note_on_c, 2, 78, 0
4, 6420, Note_on_c, 2, 78, 126
4, 6425, Note_on_c, 2, 79, 0
4, 6443, Note_on_c, 2, 78, 0
4, 6450, Note_on_c, 2, 79, 117
4, 6473, Note_on_c, 2, 79, 0
4, 6480, Note_on_c, 2, 81, 115
4, 6510, Note_on_c, 2, 79, 127
4, 6516, Note_on_c, 2, 81, 0
4, 6540, Note_on_c, 2, 78, 123
4, 6541, Note_on_c, 2, 79, 0
4, 6565, Note_on_c, 2, 78, 0
4, 6570, Note_on_c, 2, 79, 126
4, 6591, Note_on_c, 2, 79, 0
4, 6600, Note_on_c, 2, 81, 117
4, 6686, Note_on_c, 2, 81, 0
4, 6690, Note_on_c, 2, 79, 120
4, 6718, Note_on_c, 2, 79, 0
4, 6720, Note_on_c, 2, 78, 123
4, 6744, Note_on_c, 2, 78, 0
4, 6750, Note_on_c, 2, 79, 115
4, 6780, Note_on_c, 2, 81, 117
4, 6787, Note_on_c, 2, 79, 0
4, 6808, Note_on_c, 2, 81, 0
4, 6810, Note_on_c, 2, 79, 115
4, 6840, Note_on_c, 2, 81, 120
4, 6844, Note_on_c, 2, 79, 0
4, 6870, Note_on_c, 2, 84, 123
4, 6872, Note_on_c, 2, 81, 0
4, 6900, Note_on_c, 2, 83, 115
4, 6907, Note_on_c, 2, 84, 0
4, 6929, Note_on_c, 2, 81, 117
4, 6936, Note_on_c, 2, 83, 0
4, 6960, Note_on_c, 2, 81, 0
4, 6960, Note_on_c, 2, 79, 105
4, 6990, Note_on_c, 2, 78, 126
4, 6995, Note_on_c, 2, 79, 0
4, 7018, Note_on_c, 2, 78, 0
4, 7020, Note_on_c, 2, 79, 112
4, 7080, Note_on_c, 2, 74, 95
4, 7086, Note_on_c, 2, 79, 0
4, 7110, Note_on_c, 2, 76, 120
4, 7112, Note_on_c, 2, 74, 0
4, 7140, Note_on_c, 2, 74, 110
4, 7144, Note_on_c, 2, 76, 0
4, 7170, Note_on_c, 2, 74, 0
4, 7170, Note_on_c, 2, 76, 123
4, 7200, Note_on_c, 2, 77, 112
4, 7200, Note_on_c, 2, 77, 120
4, 7205, Note_on_c, 2, 76, 0
4, 7230, Note_on_c, 2, 76, 127
4, 7239, Note_on_c, 2, 77, 0
4, 7240, Note_on_c, 2, 77, 0
4, 7260, Note_on_c, 2, 74, 120
4, 7263, Note_on_c, 2, 76, 0
4, 7290, Note_on_c, 2, 76, 123
4, 7300, Note_on_c, 2, 74, 0
4, 7320, Note_on_c, 2, 77, 117
4, 7324, Note_on_c, 2, 76, 0
4, 7407, Note_on_c, 2, 77, 0
4, 7410, Note_on_c, 2, 76, 110
4, 7436, Note_on_c, 2, 76, 0
4, 7440, Note_on_c, 2, 74, 97
4, 7470, Note_on_c, 2, 76, 123
4, 7473, Note_on_c, 2, 74, 0
4, 7500, Note_on_c, 2, 77, 112
4, 7507, Note_on_c, 2, 76, 0
4, 7530, Note_on_c, 2, 76, 126
4, 7538, Note_on_c, 2, 77, 0
4, 7560, Note_on_c, 2, 77, 115
4, 7565, Note_on_c, 2, 76, 0
4, 7590, Note_on_c, 2, 77, 0
4, 7590, Note_on_c, 2, 81, 105
4, 7620, Note_on_c, 2, 79, 108
4, 7629, Note_on_c, 2, 81, 0
4, 7650, Note_on_c, 2, 77, 112
4, 7654, Note_on_c, 2, 79, 0
4, 7680, Note_on_c, 2, 76, 115
4, 7687, Note_on_c, 2, 77, 0
4, 7710, Note_on_c, 2, 74, 97
4, 7713, Note_on_c, 2, 76, 0
4, 7735, Note_on_c, 2, 74, 0
4, 7740, Note_on_c, 2, 76, 115
4, 7776, Note_on_c, 2, 76, 0
4, 7800, Note_on_c, 2, 79, 108
4, 7834, Note_on_c, 2, 79, 0
4, 7860, Note_on_c, 2, 84, 115
4, 7968, Note_on_c, 2, 84, 0
4, 7980, Note_on_c, 2, 83, 112
4, 8010, Note_on_c, 2, 83, 0
4, 8010, Note_on_c, 2, 81, 117
4, 8033, Note_on_c, 2, 81, 0
4, 8040, Note_on_c, 2, 83, 110
4, 8136, Note_on_c, 2, 83, 0
4, 8160, Note_on_c, 2, 81, 105
4, 8190, Note_on_c, 2, 79, 112
4, 8193, Note_on_c, 2, 81, 0
4, 8216, Note_on_c, 2, 79, 0
4, 8220, Note_on_c, 2, 81, 117
4, 8322, Note_on_c, 2, 81, 0
4, 8340, Note_on_c, 2, 79, 115
4, 8370, Note_on_c, 2, 78, 115
4, 8372, Note_on_c, 2, 79, 0
4, 8395, Note_on_c, 2, 78, 0
4, 8400, Note_on_c, 2, 79, 110
4, 8495, Note_on_c, 2, 79, 0
4, 8520, Note_on_c, 2, 84, 117
4, 8826, Note_on_c, 2, 84, 0
4, 8850, Note_on_c, 2, 81, 90
4, 8880, Note_on_c, 2, 83, 115
4, 8882, Note_on_c, 2, 81, 0
4, 8910, Note_on_c, 2, 84, 117
4, 8917, Note_on_c, 2, 83, 0
4, 8940, Note_on_c, 2, 86, 115
4, 8944, Note_on_c, 2, 84, 0
4, 8970, Note_on_c, 2, 88, 120
4, 8976, Note_on_c, 2, 86, 0
4, 9000, Note_on_c, 2, 78, 126
4, 9004, Note_on_c, 2, 88, 0
4, 9030, Note_on_c, 2, 78, 0
4, 9030, Note_on_c, 2, 86, 101
4, 9060, Note_on_c, 2, 83, 117
4, 9083, Note_on_c, 2, 83, 0
4, 9083, Note_on_c, 2, 86, 0
4, 9090, Note_on_c, 2, 78, 120
4, 9119, Note_on_c, 2, 78, 0
4, 9120, Note_on_c, 2, 83, 108
4, 9150, Note_on_c, 2, 86, 115
4, 9155, Note_on_c, 2, 83, 0
4, 9180, Note_on_c, 2, 79, 110
4, 9181, Note_on_c, 2, 86, 0
4, 9225, Note_on_c, 2, 79, 0
4, 9240, Note_on_c, 2, 88, 117
4, 9571, Note_on_c, 2, 88, 0
4, 9600, Note_on_c, 2, 84, 110
4, 9660, Note_on_c, 2, 84, 0
4, 9660, Note_on_c, 2, 88, 110
4, 9720, Note_on_c, 2, 81, 112
4, 9721, Note_on_c, 2, 88, 0
4, 9921, Note_on_c, 2, 81, 0
4, 9930, Note_on_c, 2, 74, 112
4, 9952, Note_on_c, 2, 74, 0
4, 9960, Note_on_c, 2, 74, 103
4, 9989, Note_on_c, 2, 74, 0
4, 9990, Note_on_c, 2, 78, 112
4, 10012, Note_on_c, 2, 78, 0
4, 10020, Note_on_c, 2, 78, 92
4, 10047, Note_on_c, 2, 78, 0
4, 10050, Note_on_c, 2, 81, 108
4, 10076, Note_on_c, 2, 81, 0
4, 10080, Note_on_c, 2, 81, 115
4, 10108, Note_on_c, 2, 81, 0
4, 10110, Note_on_c, 2, 86, 115
4, 10132, Note_on_c, 2, 86, 0
4, 10140, Note_on_c, 2, 86, 110
4, 10169, Note_on_c, 2, 86, 0
4, 10170, Note_on_c, 2, 81, 115
4, 10189, Note_on_c, 2, 81, 0
4, 10200, Note_on_c, 2, 81, 99
4, 10230, Note_on_c, 2, 78, 120
4, 10231, Note_on_c, 2, 81, 0
4, 10260, Note_on_c, 2, 79, 108
4, 10262, Note_on_c, 2, 78, 0
4, 10290, Note_on_c, 2, 83, 115
4, 10293, Note_on_c, 2, 79, 0
4, 10320, Note_on_c, 2, 86, 123
4, 10323, Note_on_c, 2, 83, 0
4, 10350, Note_on_c, 2, 83, 112
4, 10355, Note_on_c, 2, 86, 0
4, 10380, Note_on_c, 2, 79, 126
4, 10385, Note_on_c, 2, 83, 0
4, 10410, Note_on_c, 2, 83, 115
4, 10412, Note_on_c, 2, 79, 0
4, 10440, Note_on_c, 2, 81, 115
4, 10447, Note_on_c, 2, 83, 0
4, 10470, Note_on_c, 2, 78, 117
4, 10474, Note_on_c, 2, 81, 0
4, 10500, Note_on_c, 2, 74, 92
4, 10502, Note_on_c, 2, 78, 0
4, 10530, Note_on_c, 2, 78, 120
4, 10535, Note_on_c, 2, 74, 0
4, 10560, Note_on_c, 2, 81, 101
4, 10562, Note_on_c, 2, 78, 0
4, 10590, Note_on_c, 2, 84, 115
4, 10594, Note_on_c, 2, 81, 0
4, 10620, Note_on_c, 2, 83, 108
4, 10626, Note_on_c, 2, 84, 0
4, 10677, Note_on_c, 2, 83, 0
4, 10680, Note_on_c, 2, 81, 115
4, 10725, Note_on_c, 2, 81, 0
4, 10740, Note_on_c, 2, 79, 112
4, 10798, Note_on_c, 2, 79, 0
4, 10860, Note_on_c, 2, 79, 112
4, 10883, Note_on_c, 2, 79, 0
4, 10890, Note_on_c, 2, 81, 115
4, 10915, Note_on_c, 2, 81, 0
4, 10920, Note_on_c, 2, 83, 110
4, 10966, Note_on_c, 2, 83, 0
4, 10980, Note_on_c, 2, 81, 112
4, 11034, Note_on_c, 2, 81, 0
4, 11040, Note_on_c, 2, 79, 112
4, 11090, Note_on_c, 2, 79, 0
4, 11100, Note_on_c, 2, 78, 115
4, 11166, Note_on_c, 2, 78, 0
4, 11220, Note_on_c, 2, 78, 110
4, 11245, Note_on_c, 2, 78, 0
4, 11250, Note_on_c, 2, 79, 112
4, 11276, Note_on_c, 2, 79, 0
4, 11280, Note_on_c, 2, 81, 112
4, 11332, Note_on_c, 2, 81, 0
4, 11340, Note_on_c, 2, 74, 108
4, 11748, Note_on_c, 2, 74, 0
4, 11760, Note_on_c, 2, 72, 110
4, 11806, Note_on_c, 2, 72, 0
4, 11820, Note_on_c, 2, 71, 115
4, 11882, Note_on_c, 2, 71, 0
4, 11940, Note_on_c, 2, 71, 112
4, 11962, Note_on_c, 2, 71, 0
4, 11970, Note_on_c, 2, 72, 115
4, 11992, Note_on_c, 2, 72, 0
4, 12000, Note_on_c, 2, 74, 97
4, 12049, Note_on_c, 2, 74, 0
4, 12060, Note_on_c, 2, 72, 112
4, 12113, Note_on_c, 2, 72, 0
4, 12120, Note_on_c, 2, 71, 108
4, 12174, Note_on_c, 2, 71, 0
4, 12180, Note_on_c, 2, 69, 108
4, 12251, Note_on_c, 2, 69, 0
4, 12300, Note_on_c, 2, 69, 95
4, 12326, Note_on_c, 2, 69, 0
4, 12330, Note_on_c, 2, 71, 115
4, 12360, Note_on_c, 2, 71, 0
4, 12360, Note_on_c, 2, 72, 115
4, 12415, Note_on_c, 2, 72, 0
4, 12420, Note_on_c, 2, 71, 112
4, 12470, Note_on_c, 2, 71, 0
4, 12480, Note_on_c, 2, 71, 112
4, 12504, Note_on_c, 2, 71, 0
4, 12510, Note_on_c, 2, 72, 117
4, 12530, Note_on_c, 2, 72, 0
4, 12540, Note_on_c, 2, 74, 101
4, 12651, Note_on_c, 2, 74, 0
4, 12660, Note_on_c, 2, 72, 117
4, 12683, Note_on_c, 2, 72, 0
4, 12690, Note_on_c, 2, 74, 110
4, 12710, Note_on_c, 2, 74, 0
4, 12720, Note_on_c, 2, 76, 112
4, 12835, Note_on_c, 2, 76, 0
4, 12840, Note_on_c, 2, 74, 112
4, 12863, Note_on_c, 2, 74, 0
4, 12870, Note_on_c, 2, 76, 115
4, 12891, Note_on_c, 2, 76, 0
4, 12900, Note_on_c, 2, 78, 103
4, 13016, Note_on_c, 2, 78, 0
4, 13020, Note_on_c, 2, 76, 92
4, 13043, Note_on_c, 2, 76, 0
4, 13050, Note_on_c, 2, 78, 117
4, 13073, Note_on_c, 2, 78, 0
4, 13080, Note_on_c, 2, 79, 112
4, 13186, Note_on_c, 2, 79, 0
4, 13200, Note_on_c, 2, 78, 120
4, 13222, Note_on_c, 2, 78, 0
4, 13230, Note_on_c, 2, 79, 110
4, 13257, Note_on_c, 2, 79, 0
4, 13260, Note_on_c, 2, 81, 117
4, 13375, Note_on_c, 2, 81, 0
4, 13380, Note_on_c, 2, 79, 108
4, 13403, Note_on_c, 2, 79, 0
4, 13410, Note_on_c, 2, 81, 112
4, 13430, Note_on_c, 2, 81, 0
4, 13440, Note_on_c, 2, 83, 112
4, 13509, Note_on_c, 2, 83, 0
4, 13530, Note_on_c, 2, 72, 101
4, 13560, Note_on_c, 2, 74, 117
4, 13566, Note_on_c, 2, 72, 0
4, 13590, Note_on_c, 2, 76, 115
4, 13593, Note_on_c, 2, 74, 0
4, 13620, Note_on_c, 2, 77, 99
4, 13629, Note_on_c, 2, 76, 0
4, 13645, Note_on_c, 2, 77, 0
4, 13650, Note_on_c, 2, 74, 88
4, 13680, Note_on_c, 2, 79, 112
4, 13685, Note_on_c, 2, 74, 0
4, 13710, Note_on_c, 2, 84, 112
4, 13712, Note_on_c, 2, 79, 0
4, 13732, Note_on_c, 2, 84, 0
4, 13740, Note_on_c, 2, 84, 117
4, 13770, Note_on_c, 2, 79, 110
4, 13774, Note_on_c, 2, 84, 0
4, 13792, Note_on_c, 2, 79, 0
4, 13800, Note_on_c, 2, 79, 108
4, 13830, Note_on_c, 2, 79, 0
4, 13830, Note_on_c, 2, 76, 115
4, 13852, Note_on_c, 2, 76, 0
4, 13860, Note_on_c, 2, 76, 110
4, 13890, Note_on_c, 2, 76, 0
4, 13890, Note_on_c, 2, 81, 108
4, 13912, Note_on_c, 2, 81, 0
4, 13920, Note_on_c, 2, 81, 110
4, 13950, Note_on_c, 2, 76, 105
4, 13954, Note_on_c, 2, 81, 0
4, 13970, Note_on_c, 2, 76, 0
4, 13980, Note_on_c, 2, 76, 103
4, 14010, Note_on_c, 2, 74, 110
4, 14013, Note_on_c, 2, 76, 0
4, 14031, Note_on_c, 2, 74, 0
4, 14040, Note_on_c, 2, 74, 112
4, 14070, Note_on_c, 2, 78, 108
4, 14075, Note_on_c, 2, 74, 0
4, 14090, Note_on_c, 2, 78, 0
4, 14100, Note_on_c, 2, 78, 105
4, 14128, Note_on_c, 2, 78, 0
4, 14130, Note_on_c, 2, 74, 95
4, 14153, Note_on_c, 2, 74, 0
4, 14160, Note_on_c, 2, 74, 101
4, 14190, Note_on_c, 2, 78, 112
4, 14195, Note_on_c, 2, 74, 0
4, 14212, Note_on_c, 2, 78, 0
4, 14220, Note_on_c, 2, 79, 110
4, 14284, Note_on_c, 2, 79, 0
4, 14310, Note_on_c, 2, 83, 105
4, 14331, Note_on_c, 2, 83, 0
4, 14340, Note_on_c, 2, 81, 115
4, 14340, Note_on_c, 2, 83, 67
4, 14341, Note_on_c, 2, 83, 0
4, 14404, Note_on_c, 2, 81, 0
4, 14430, Note_on_c, 2, 78, 120
4, 14448, Note_on_c, 2, 78, 0
4, 14460, Note_on_c, 2, 79, 115
4, 14521, Note_on_c, 2, 79, 0
4, 14550, Note_on_c, 2, 79, 99
4, 14577, Note_on_c, 2, 79, 0
4, 14580, Note_on_c, 2, 76, 117
4, 14634, Note_on_c, 2, 76, 0
4, 14670, Note_on_c, 2, 69, 97
4, 14690, Note_on_c, 2, 69, 0
4, 14700, Note_on_c, 2, 76, 120
4, 14771, Note_on_c, 2, 76, 0
4, 14790, Note_on_c, 2, 76, 112
4, 14814, Note_on_c, 2, 76, 0
4, 14820, Note_on_c, 2, 74, 110
4, 14880, Note_on_c, 2, 72, 123
4, 14881, Note_on_c, 2, 74, 0
4, 14940, Note_on_c, 2, 71, 105
4, 14941, Note_on_c, 2, 72, 0
4, 15060, Note_on_c, 2, 71, 0
4, 16020, Note_on_c, 2, 79, 105
4, 16050, Note_on_c, 2, 79, 0
4, 16050, Note_on_c, 2, 83, 105
4, 16080, Note_on_c, 2, 83, 0
4, 16080, Note_on_c, 2, 86, 105
4, 16110, Note_on_c, 2, 86, 0
4, 16110, Note_on_c, 2, 83, 105
4, 16140, Note_on_c, 2, 83, 0
4, 16140, Note_on_c, 2, 79, 105
4, 16170, Note_on_c, 2, 79, 0
4, 16170, Note_on_c, 2, 83, 105
4, 16200, Note_on_c, 2, 83, 0
4, 16200, Note_on_c, 2, 81, 105
4, 16230, Note_on_c, 2, 81, 0
4, 16230, Note_on_c, 2, 78, 105
4, 16260, Note_on_c, 2, 78, 0
4, 16260, Note_on_c, 2, 74, 105
4, 16290, Note_on_c, 2, 74, 0
4, 16290, Note_on_c, 2, 78, 105
4, 16320, Note_on_c, 2, 78, 0
4, 16320, Note_on_c, 2, 81, 105
4, 16350, Note_on_c, 2, 81, 0
4, 16350, Note_on_c, 2, 84, 105
4, 16380, Note_on_c, 2, 84, 0
4, 16380, Note_on_c, 2, 83, 105
4, 16440, Note_on_c, 2, 83, 0
4, 18540, Note_on_c, 2, 81, 105
4, 19020, Note_on_c, 2, 81, 0
4, 19980, Note_on_c, 2, 74, 105
4, 20010, Note_on_c, 2, 74, 0
4, 20010, Note_on_c, 2, 78, 105
4, 20040, Note_on_c, 2, 78, 0
4, 20040, Note_on_c, 2, 81, 105
4, 20070, Note_on_c, 2, 81, 0
4, 20070, Note_on_c, 2, 78, 105
4, 20100, Note_on_c, 2, 78, 0
4, 20100, Note_on_c, 2, 74, 105
4, 20130, Note_on_c, 2, 74, 0
4, 20130, Note_on_c, 2, 78, 105
4, 20160, Note_on_c, 2, 78, 0
4, 20160, Note_on_c, 2, 76, 105
4, 20190, Note_on_c, 2, 76, 0
4, 20190, Note_on_c, 2, 73, 105
4, 20220, Note_on_c, 2, 73, 0
4, 20220, Note_on_c, 2, 69, 105
4, 20250, Note_on_c, 2, 69, 0
4, 20250, Note_on_c, 2, 73, 105
4, 20280, Note_on_c, 2, 73, 0
4, 20280, Note_on_c, 2, 76, 105
4, 20310, Note_on_c, 2, 76, 0
4, 20310, Note_on_c, 2, 79, 105
4, 20340, Note_on_c, 2, 79, 0
4, 20340, Note_on_c, 2, 78, 105
4, 20400, Note_on_c, 2, 78, 0
4, 22560, Note_on_c, 2, 73, 105
4, 22590, Note_on_c, 2, 73, 0
4, 22590, Note_on_c, 2, 74, 105
4, 22620, Note_on_c, 2, 74, 0
4, 22620, Note_on_c, 2, 73, 105
4, 22650, Note_on_c, 2, 73, 0
4, 22650, Note_on_c, 2, 74, 105
4, 22680, Note_on_c, 2, 74, 0
4, 22680, Note_on_c, 2, 76, 105
4, 22710, Note_on_c, 2, 76, 0
4, 22710, Note_on_c, 2, 74, 105
4, 22740, Note_on_c, 2, 74, 0
4, 22740, Note_on_c, 2, 73, 105
4, 22770, Note_on_c, 2, 73, 0
4, 22770, Note_on_c, 2, 74, 105
4, 22800, Note_on_c, 2, 74, 0
4, 22800, Note_on_c, 2, 76, 105
4, 22890, Note_on_c, 2, 76, 0
4, 22890, Note_on_c, 2, 74, 105
4, 22920, Note_on_c, 2, 74, 0
4, 22920, Note_on_c, 2, 73, 105
4, 22950, Note_on_c, 2, 73, 0
4, 22950, Note_on_c, 2, 74, 105
4, 22980, Note_on_c, 2, 74, 0
4, 22980, Note_on_c, 2, 76, 105
4, 23010, Note_on_c, 2, 76, 0
4, 23010, Note_on_c, 2, 74, 105
4, 23040, Note_on_c, 2, 74, 0
4, 23040, Note_on_c, 2, 76, 105
4, 23070, Note_on_c, 2, 76, 0
4, 23070, Note_on_c, 2, 79, 105
4, 23100, Note_on_c, 2, 79, 0
4, 23100, Note_on_c, 2, 78, 105
4, 23130, Note_on_c, 2, 78, 0
4, 23130, Note_on_c, 2, 76, 105
4, 23160, Note_on_c, 2, 76, 0
4, 23160, Note_on_c, 2, 74, 105
4, 23190, Note_on_c, 2, 74, 0
4, 23190, Note_on_c, 2, 73, 105
4, 23220, Note_on_c, 2, 73, 0
4, 23220, Note_on_c, 2, 76, 105
4, 23940, Note_on_c, 2, 76, 0
4, 23940, Note_on_c, 2, 75, 105
4, 23970, Note_on_c, 2, 75, 0
4, 23970, Note_on_c, 2, 73, 105
4, 24000, Note_on_c, 2, 73, 0
4, 24000, Note_on_c, 2, 75, 105
4, 24030, Note_on_c, 2, 75, 0
4, 24030, Note_on_c, 2, 76, 105
4, 24060, Note_on_c, 2, 76, 0
4, 24060, Note_on_c, 2, 75, 105
4, 24090, Note_on_c, 2, 75, 0
4, 24090, Note_on_c, 2, 76, 105
4, 24120, Note_on_c, 2, 76, 0
4, 24120, Note_on_c, 2, 78, 105
4, 24150, Note_on_c, 2, 78, 0
4, 24150, Note_on_c, 2, 76, 105
4, 24180, Note_on_c, 2, 76, 0
4, 24180, Note_on_c, 2, 75, 105
4, 24210, Note_on_c, 2, 75, 0
4, 24210, Note_on_c, 2, 76, 105
4, 24240, Note_on_c, 2, 76, 0
4, 24240, Note_on_c, 2, 78, 105
4, 24330, Note_on_c, 2, 78, 0
4, 24330, Note_on_c, 2, 76, 105
4, 24360, Note_on_c, 2, 76, 0
4, 24360, Note_on_c, 2, 75, 105
4, 24390, Note_on_c, 2, 75, 0
4, 24390, Note_on_c, 2, 76, 105
4, 24420, Note_on_c, 2, 76, 0
4, 24420, Note_on_c, 2, 78, 105
4, 24450, Note_on_c, 2, 78, 0
4, 24450, Note_on_c, 2, 76, 105
4, 24480, Note_on_c, 2, 76, 0
4, 24480, Note_on_c, 2, 78, 105
4, 24510, Note_on_c, 2, 78, 0
4, 24510, Note_on_c, 2, 81, 105
4, 24540, Note_on_c, 2, 81, 0
4, 24540, Note_on_c, 2, 79, 105
4, 24570, Note_on_c, 2, 79, 0
4, 24570, Note_on_c, 2, 78, 105
4, 24600, Note_on_c, 2, 78, 0
4, 24600, Note_on_c, 2, 76, 105
4, 24630, Note_on_c, 2, 76, 0
4, 24630, Note_on_c, 2, 75, 105
4, 24660, Note_on_c, 2, 75, 0
4, 24660, Note_on_c, 2, 76, 105
4, 24690, Note_on_c, 2, 76, 0
4, 24690, Note_on_c, 2, 79, 105
4, 24720, Note_on_c, 2, 79, 0
4, 24720, Note_on_c, 2, 83, 105
4, 24750, Note_on_c, 2, 83, 0
4, 24750, Note_on_c, 2, 79, 105
4, 24780, Note_on_c, 2, 79, 0
4, 24780, Note_on_c, 2, 76, 105
4, 24810, Note_on_c, 2, 76, 0
4, 24810, Note_on_c, 2, 79, 105
4, 24840, Note_on_c, 2, 79, 0
4, 24840, Note_on_c, 2, 78, 105
4, 24870, Note_on_c, 2, 78, 0
4, 24870, Note_on_c, 2, 75, 105
4, 24900, Note_on_c, 2, 75, 0
4, 24900, Note_on_c, 2, 71, 105
4, 24930, Note_on_c, 2, 71, 0
4, 24930, Note_on_c, 2, 75, 105
4, 24960, Note_on_c, 2, 75, 0
4, 24960, Note_on_c, 2, 78, 105
4, 24990, Note_on_c, 2, 78, 0
4, 24990, Note_on_c, 2, 81, 105
4, 25020, Note_on_c, 2, 81, 0
4, 25020, Note_on_c, 2, 79, 105
4, 25080, Note_on_c, 2, 79, 0
4, 25080, Note_on_c, 2, 78, 105
4, 25140, Note_on_c, 2, 78, 0
4, 25140, Note_on_c, 2, 76, 105
4, 25200, Note_on_c, 2, 76, 0
4, 25260, Note_on_c, 2, 76, 105
4, 25290, Note_on_c, 2, 76, 0
4, 25290, Note_on_c, 2, 78, 105
4, 25320, Note_on_c, 2, 78, 0
4, 25320, Note_on_c, 2, 79, 105
4, 25380, Note_on_c, 2, 79, 0
4, 25380, Note_on_c, 2, 78, 105
4, 25440, Note_on_c, 2, 78, 0
4, 25440, Note_on_c, 2, 76, 105
4, 25500, Note_on_c, 2, 76, 0
4, 25500, Note_on_c, 2, 75, 105
4, 25560, Note_on_c, 2, 75, 0
4, 25620, Note_on_c, 2, 75, 105
4, 25650, Note_on_c, 2, 75, 0
4, 25650, Note_on_c, 2, 76, 105
4, 25680, Note_on_c, 2, 76, 0
4, 25680, Note_on_c, 2, 78, 105
4, 25740, Note_on_c, 2, 78, 0
4, 25740, Note_on_c, 2, 76, 105
4, 25800, Note_on_c, 2, 76, 0
4, 25800, Note_on_c, 2, 67, 105
4, 25830, Note_on_c, 2, 67, 0
4, 25830, Note_on_c, 2, 69, 105
4, 25860, Note_on_c, 2, 69, 0
4, 25860, Note_on_c, 2, 71, 105
4, 25980, Note_on_c, 2, 71, 0
4, 25980, Note_on_c, 2, 69, 105
4, 26010, Note_on_c, 2, 69, 0
4, 26010, Note_on_c, 2, 71, 105
4, 26040, Note_on_c, 2, 71, 0
4, 26040, Note_on_c, 2, 73, 105
4, 26160, Note_on_c, 2, 73, 0
4, 26160, Note_on_c, 2, 71, 105
4, 26190, Note_on_c, 2, 71, 0
4, 26190, Note_on_c, 2, 73, 105
4, 26220, Note_on_c, 2, 73, 0
4, 26220, Note_on_c, 2, 75, 105
4, 26340, Note_on_c, 2, 75, 0
4, 26340, Note_on_c, 2, 76, 105
4, 26370, Note_on_c, 2, 76, 0
4, 26370, Note_on_c, 2, 75, 105
4, 26400, Note_on_c, 2, 75, 0
4, 26400, Note_on_c, 2, 76, 105
4, 26520, Note_on_c, 2, 76, 0
4, 26520, Note_on_c, 2, 75, 105
4, 26550, Note_on_c, 2, 75, 0
4, 26550, Note_on_c, 2, 76, 105
4, 26580, Note_on_c, 2, 76, 0
4, 26580, Note_on_c, 2, 78, 105
4, 26700, Note_on_c, 2, 78, 0
4, 26700, Note_on_c, 2, 76, 105
4, 26730, Note_on_c, 2, 76, 0
4, 26730, Note_on_c, 2, 78, 105
4, 26760, Note_on_c, 2, 78, 0
4, 26760, Note_on_c, 2, 79, 105
4, 26850, Note_on_c, 2, 79, 0
4, 26850, Note_on_c, 2, 69, 105
4, 26880, Note_on_c, 2, 69, 0
4, 26880, Note_on_c, 2, 71, 105
4, 26910, Note_on_c, 2, 71, 0
4, 26910, Note_on_c, 2, 72, 105
4, 26940, Note_on_c, 2, 72, 0
4, 26940, Note_on_c, 2, 74, 105
4, 26970, Note_on_c, 2, 74, 0
4, 26970, Note_on_c, 2, 71, 105
4, 27000, Note_on_c, 2, 71, 0
4, 27000, Note_on_c, 2, 76, 105
4, 27030, Note_on_c, 2, 76, 0
4, 27030, Note_on_c, 2, 81, 105
4, 27060, Note_on_c, 2, 81, 0
4, 27060, Note_on_c, 2, 81, 105
4, 27090, Note_on_c, 2, 81, 0
4, 27090, Note_on_c, 2, 76, 105
4, 27120, Note_on_c, 2, 76, 0
4, 27120, Note_on_c, 2, 76, 105
4, 27150, Note_on_c, 2, 76, 0
4, 27150, Note_on_c, 2, 72, 105
4, 27180, Note_on_c, 2, 72, 0
4, 27180, Note_on_c, 2, 72, 105
4, 27210, Note_on_c, 2, 72, 0
4, 27210, Note_on_c, 2, 77, 105
4, 27240, Note_on_c, 2, 77, 0
4, 27240, Note_on_c, 2, 77, 105
4, 27270, Note_on_c, 2, 77, 0
4, 27270, Note_on_c, 2, 72, 105
4, 27300, Note_on_c, 2, 72, 0
4, 27300, Note_on_c, 2, 72, 105
4, 27330, Note_on_c, 2, 72, 0
4, 27330, Note_on_c, 2, 71, 105
4, 27360, Note_on_c, 2, 71, 0
4, 27360, Note_on_c, 2, 71, 105
4, 27390, Note_on_c, 2, 71, 0
4, 27390, Note_on_c, 2, 75, 105
4, 27420, Note_on_c, 2, 75, 0
4, 27420, Note_on_c, 2, 75, 105
4, 27450, Note_on_c, 2, 75, 0
4, 27450, Note_on_c, 2, 71, 105
4, 27480, Note_on_c, 2, 71, 0
4, 27480, Note_on_c, 2, 71, 105
4, 27510, Note_on_c, 2, 71, 0
4, 27510, Note_on_c, 2, 78, 105
4, 27540, Note_on_c, 2, 78, 0
4, 27540, Note_on_c, 2, 79, 105
4, 27570, Note_on_c, 2, 79, 0
4, 27570, Note_on_c, 2, 76, 105
4, 27600, Note_on_c, 2, 76, 0
4, 27600, Note_on_c, 2, 79, 105
4, 27660, Note_on_c, 2, 79, 0
4, 27690, Note_on_c, 2, 81, 105
4, 27720, Note_on_c, 2, 81, 0
4, 27720, Note_on_c, 2, 78, 105
4, 27780, Note_on_c, 2, 78, 0
4, 27810, Note_on_c, 2, 71, 105
4, 27840, Note_on_c, 2, 71, 0
4, 27840, Note_on_c, 2, 76, 105
4, 27900, Note_on_c, 2, 76, 0
4, 27930, Note_on_c, 2, 81, 105
4, 27960, Note_on_c, 2, 81, 0
4, 27960, Note_on_c, 2, 79, 105
4, 27990, Note_on_c, 2, 79, 0
4, 27990, Note_on_c, 2, 78, 105
4, 28020, Note_on_c, 2, 78, 0
4, 28020, Note_on_c, 2, 76, 105
4, 28050, Note_on_c, 2, 76, 0
4, 28050, Note_on_c, 2, 75, 105
4, 28080, Note_on_c, 2, 75, 0
4, 28080, Note_on_c, 2, 76, 105
4, 28110, Note_on_c, 2, 76, 0
4, 28110, Note_on_c, 2, 72, 105
4, 28140, Note_on_c, 2, 72, 0
4, 28140, Note_on_c, 2, 71, 105
4, 28200, Note_on_c, 2, 71, 0
4, 28200, Note_on_c, 2, 71, 105
4, 28260, Note_on_c, 2, 71, 0
4, 28260, Note_on_c, 2, 71, 105
4, 28379, Note_on_c, 2, 71, 0
4, 28470, Note_on_c, 2, 83, 115
4, 28500, Note_on_c, 2, 81, 112
4, 28504, Note_on_c, 2, 83, 0
4, 28530, Note_on_c, 2, 79, 112
4, 28533, Note_on_c, 2, 81, 0
4, 28560, Note_on_c, 2, 78, 117
4, 28566, Note_on_c, 2, 79, 0
4, 28590, Note_on_c, 2, 81, 112
4, 28591, Note_on_c, 2, 78, 0
4, 28620, Note_on_c, 2, 79, 110
4, 28621, Note_on_c, 2, 81, 0
4, 28676, Note_on_c, 2, 78, 112
4, 28683, Note_on_c, 2, 79, 0
4, 28709, Note_on_c, 2, 76, 112
4, 28714, Note_on_c, 2, 78, 0
4, 28740, Note_on_c, 2, 75, 123
4, 28742, Note_on_c, 2, 76, 0
4, 28769, Note_on_c, 2, 78, 115
4, 28775, Note_on_c, 2, 75, 0
4, 28800, Note_on_c, 2, 76, 110
4, 28806, Note_on_c, 2, 78, 0
4, 28831, Note_on_c, 2, 74, 112
4, 28835, Note_on_c, 2, 76, 0
4, 28860, Note_on_c, 2, 72, 95
4, 28862, Note_on_c, 2, 74, 0
4, 28888, Note_on_c, 2, 71, 120
4, 28893, Note_on_c, 2, 72, 0
4, 28920, Note_on_c, 2, 71, 0
4, 28923, Note_on_c, 2, 69, 126
4, 28929, Note_on_c, 2, 71, 95
4, 28932, Note_on_c, 2, 69, 0
4, 28942, Note_on_c, 2, 69, 105
4, 28943, Note_on_c, 2, 71, 0
4, 28962, Note_on_c, 2, 67, 112
4, 28963, Note_on_c, 2, 69, 0
4, 28976, Note_on_c, 2, 69, 115
4, 28979, Note_on_c, 2, 67, 0
4, 28989, Note_on_c, 2, 71, 112
4, 28991, Note_on_c, 2, 69, 0
4, 29037, Note_on_c, 2, 71, 0
4, 29190, Note_on_c, 2, 76, 97
4, 29220, Note_on_c, 2, 74, 105
4, 29226, Note_on_c, 2, 76, 0
4, 29250, Note_on_c, 2, 72, 112
4, 29254, Note_on_c, 2, 74, 0
4, 29280, Note_on_c, 2, 72, 0
4, 29280, Note_on_c, 2, 71, 110
4, 29310, Note_on_c, 2, 74, 112
4, 29316, Note_on_c, 2, 71, 0
4, 29340, Note_on_c, 2, 72, 123
4, 29343, Note_on_c, 2, 74, 0
4, 29397, Note_on_c, 2, 72, 0
4, 29550, Note_on_c, 2, 74, 112
4, 29580, Note_on_c, 2, 72, 112
4, 29587, Note_on_c, 2, 74, 0
4, 29610, Note_on_c, 2, 71, 108
4, 29612, Note_on_c, 2, 72, 0
4, 29640, Note_on_c, 2, 69, 90
4, 29641, Note_on_c, 2, 71, 0
4, 29670, Note_on_c, 2, 72, 115
4, 29675, Note_on_c, 2, 69, 0
4, 29700, Note_on_c, 2, 71, 117
4, 29703, Note_on_c, 2, 72, 0
4, 29755, Note_on_c, 2, 71, 0
4, 29760, Control_c, 2, 7, 61
4, 29760, Control_c, 2, 7, 62
4, 29779, Control_c, 2, 7, 63
4, 29801, Control_c, 2, 7, 64
4, 29806, Control_c, 2, 7, 65
4, 29811, Control_c, 2, 7, 66
4, 29816, Control_c, 2, 7, 68
4, 29820, Note_on_c, 2, 79, 117
4, 29828, Control_c, 2, 7, 68
4, 29831, Control_c, 2, 7, 71
4, 29836, Control_c, 2, 7, 72
4, 29841, Control_c, 2, 7, 74
4, 29846, Control_c, 2, 7, 74
4, 29857, Control_c, 2, 7, 76
4, 29860, Control_c, 2, 7, 77
4, 29865, Control_c, 2, 7, 79
4, 29870, Control_c, 2, 7, 80
4, 29875, Control_c, 2, 7, 81
4, 29883, Control_c, 2, 7, 82
4, 29890, Control_c, 2, 7, 84
4, 29893, Control_c, 2, 7, 84
4, 29898, Control_c, 2, 7, 85
4, 29904, Control_c, 2, 7, 86
4, 29909, Control_c, 2, 7, 87
4, 29915, Control_c, 2, 7, 89
4, 29918, Note_on_c, 2, 79, 0
4, 29923, Control_c, 2, 7, 98
4, 29928, Control_c, 2, 7, 100
4, 29938, Control_c, 2, 7, 105
4, 29940, Note_on_c, 2, 78, 123
4, 29948, Control_c, 2, 7, 107
4, 29953, Control_c, 2, 7, 109
4, 29958, Control_c, 2, 7, 111
4, 29968, Control_c, 2, 7, 113
4, 29970, Note_on_c, 2, 76, 103
4, 29974, Note_on_c, 2, 78, 0
4, 29979, Control_c, 2, 7, 114
4, 29984, Control_c, 2, 7, 118
4, 29984, Control_c, 2, 7, 118
4, 29994, Control_c, 2, 7, 120
4, 29994, Control_c, 2, 7, 121
4, 30000, Note_on_c, 2, 78, 120
4, 30010, Note_on_c, 2, 76, 0
4, 30020, Control_c, 2, 7, 122
4, 30025, Control_c, 2, 7, 122
4, 30030, Control_c, 2, 7, 123
4, 30030, Control_c, 2, 7, 124
4, 30047, Control_c, 2, 7, 125
4, 30057, Control_c, 2, 7, 126
4, 30074, Control_c, 2, 7, 126
4, 30079, Control_c, 2, 7, 127
4, 30091, Note_on_c, 2, 78, 0
4, 30120, Note_on_c, 2, 76, 117
4, 30150, Note_on_c, 2, 74, 105
4, 30151, Note_on_c, 2, 76, 0
4, 30180, Note_on_c, 2, 76, 112
4, 30185, Note_on_c, 2, 74, 0
4, 30254, Note_on_c, 2, 76, 0
4, 30270, Note_on_c, 2, 76, 112
4, 30300, Note_on_c, 2, 74, 115
4, 30304, Note_on_c, 2, 76, 0
4, 30330, Note_on_c, 2, 76, 112
4, 30335, Note_on_c, 2, 74, 0
4, 30360, Note_on_c, 2, 78, 112
4, 30364, Note_on_c, 2, 76, 0
4, 30390, Note_on_c, 2, 74, 110
4, 30393, Note_on_c, 2, 78, 0
4, 30419, Note_on_c, 2, 74, 0
4, 30420, Note_on_c, 2, 71, 92
4, 30450, Note_on_c, 2, 74, 110
4, 30453, Note_on_c, 2, 71, 0
4, 30480, Note_on_c, 2, 73, 126
4, 30486, Note_on_c, 2, 74, 0
4, 30510, Note_on_c, 2, 74, 112
4, 30517, Note_on_c, 2, 73, 0
4, 30540, Note_on_c, 2, 76, 112
4, 30545, Note_on_c, 2, 74, 0
4, 30570, Note_on_c, 2, 73, 115
4, 30573, Note_on_c, 2, 76, 0
4, 30600, Note_on_c, 2, 70, 123
4, 30602, Note_on_c, 2, 73, 0
4, 30642, Note_on_c, 2, 70, 0
4, 30660, Note_on_c, 2, 71, 112
4, 30688, Control_c, 2, 7, 126
4, 30704, Control_c, 2, 7, 125
4, 30709, Control_c, 2, 7, 124
4, 30755, Control_c, 2, 7, 122
4, 30756, Control_c, 2, 7, 121
4, 30766, Control_c, 2, 7, 120
4, 30771, Control_c, 2, 7, 119
4, 30775, Control_c, 2, 7, 117
4, 30790, Note_on_c, 2, 71, 0
4, 30810, Note_on_c, 2, 71, 112
4, 30840, Note_on_c, 2, 73, 115
4, 30845, Note_on_c, 2, 71, 0
4, 30870, Note_on_c, 2, 74, 101
4, 30875, Note_on_c, 2, 73, 0
4, 30900, Note_on_c, 2, 76, 115
4, 30905, Note_on_c, 2, 74, 0
4, 30930, Note_on_c, 2, 73, 120
4, 30933, Note_on_c, 2, 76, 0
4, 30960, Note_on_c, 2, 69, 108
4, 30963, Note_on_c, 2, 73, 0
4, 31004, Note_on_c, 2, 69, 0
4, 31020, Note_on_c, 2, 74, 110
4, 31153, Note_on_c, 2, 74, 0
4, 31170, Note_on_c, 2, 74, 108
4, 31200, Note_on_c, 2, 76, 112
4, 31207, Note_on_c, 2, 74, 0
4, 31230, Note_on_c, 2, 78, 120
4, 31236, Note_on_c, 2, 76, 0
4, 31260, Note_on_c, 2, 79, 103
4, 31263, Note_on_c, 2, 78, 0
4, 31290, Note_on_c, 2, 76, 120
4, 31295, Note_on_c, 2, 79, 0
4, 31320, Note_on_c, 2, 78, 120
4, 31324, Note_on_c, 2, 76, 0
4, 31346, Control_c, 2, 7, 116
4, 31508, Note_on_c, 2, 78, 0
4, 31530, Note_on_c, 2, 78, 123
4, 31560, Note_on_c, 2, 80, 115
4, 31568, Note_on_c, 2, 78, 0
4, 31590, Note_on_c, 2, 82, 120
4, 31596, Note_on_c, 2, 80, 0
4, 31620, Note_on_c, 2, 83, 97
4, 31625, Note_on_c, 2, 82, 0
4, 31650, Note_on_c, 2, 80, 123
4, 31654, Note_on_c, 2, 83, 0
4, 31678, Note_on_c, 2, 80, 0
4, 31680, Note_on_c, 2, 76, 92
4, 31728, Note_on_c, 2, 76, 0
4, 31740, Note_on_c, 2, 81, 115
4, 31770, Note_on_c, 2, 83, 110
4, 31778, Note_on_c, 2, 81, 0
4, 31800, Note_on_c, 2, 84, 112
4, 31805, Note_on_c, 2, 83, 0
4, 31870, Note_on_c, 2, 84, 0
4, 31920, Note_on_c, 2, 83, 117
4, 31950, Note_on_c, 2, 81, 112
4, 31953, Note_on_c, 2, 83, 0
4, 31980, Note_on_c, 2, 83, 110
4, 31987, Note_on_c, 2, 81, 0
4, 32046, Note_on_c, 2, 83, 0
4, 32100, Note_on_c, 2, 81, 112
4, 32130, Note_on_c, 2, 80, 115
4, 32135, Note_on_c, 2, 81, 0
4, 32160, Note_on_c, 2, 81, 108
4, 32164, Note_on_c, 2, 80, 0
4, 32239, Note_on_c, 2, 81, 0
4, 32250, Note_on_c, 2, 84, 112
4, 32280, Note_on_c, 2, 83, 115
4, 32286, Note_on_c, 2, 84, 0
4, 32310, Note_on_c, 2, 81, 115
4, 32315, Note_on_c, 2, 83, 0
4, 32340, Note_on_c, 2, 80, 117
4, 32347, Note_on_c, 2, 81, 0
4, 32370, Note_on_c, 2, 83, 110
4, 32374, Note_on_c, 2, 80, 0
4, 32400, Note_on_c, 2, 83, 0
4, 32400, Note_on_c, 2, 76, 90
4, 32430, Note_on_c, 2, 83, 99
4, 32431, Note_on_c, 2, 76, 0
4, 32460, Note_on_c, 2, 81, 112
4, 32465, Note_on_c, 2, 83, 0
4, 32490, Note_on_c, 2, 79, 112
4, 32497, Note_on_c, 2, 81, 0
4, 32512, Control_c, 2, 7, 121
4, 32517, Control_c, 2, 7, 122
4, 32520, Note_on_c, 2, 77, 120
4, 32520, Control_c, 2, 7, 122
4, 32525, Control_c, 2, 7, 124
4, 32526, Note_on_c, 2, 79, 0
4, 32538, Control_c, 2, 7, 125
4, 32538, Control_c, 2, 7, 126
4, 32550, Note_on_c, 2, 81, 110
4, 32552, Note_on_c, 2, 77, 0
4, 32578, Note_on_c, 2, 81, 0
4, 32580, Note_on_c, 2, 74, 99
4, 32760, Note_on_c, 2, 74, 0
4, 32790, Note_on_c, 2, 74, 108
4, 32820, Note_on_c, 2, 72, 108
4, 32827, Note_on_c, 2, 74, 0
4, 32850, Note_on_c, 2, 71, 110
4, 32854, Note_on_c, 2, 72, 0
4, 32880, Note_on_c, 2, 69, 117
4, 32885, Note_on_c, 2, 71, 0
4, 32910, Note_on_c, 2, 72, 99
4, 32914, Note_on_c, 2, 69, 0
4, 32940, Note_on_c, 2, 72, 0
4, 32940, Note_on_c, 2, 65, 97
4, 32988, Note_on_c, 2, 65, 0
4, 33000, Note_on_c, 2, 77, 117
4, 33130, Note_on_c, 2, 77, 0
4, 33150, Note_on_c, 2, 76, 115
4, 33180, Note_on_c, 2, 74, 112
4, 33188, Note_on_c, 2, 76, 0
4, 33210, Note_on_c, 2, 72, 108
4, 33216, Note_on_c, 2, 74, 0
4, 33238, Note_on_c, 2, 72, 0
4, 33240, Note_on_c, 2, 71, 90
4, 33270, Note_on_c, 2, 74, 95
4, 33273, Note_on_c, 2, 71, 0
4, 33300, Note_on_c, 2, 72, 95
4, 33302, Note_on_c, 2, 74, 0
4, 33322, Control_c, 2, 7, 122
4, 33322, Control_c, 2, 7, 114
4, 33327, Control_c, 2, 7, 114
4, 33330, Note_on_c, 2, 72, 0
4, 33330, Note_on_c, 2, 76, 115
4, 33335, Control_c, 2, 7, 113
4, 33342, Control_c, 2, 7, 111
4, 33347, Control_c, 2, 7, 110
4, 33352, Control_c, 2, 7, 109
4, 33357, Control_c, 2, 7, 109
4, 33360, Note_on_c, 2, 81, 110
4, 33362, Note_on_c, 2, 76, 0
4, 33364, Control_c, 2, 7, 108
4, 33370, Control_c, 2, 7, 107
4, 33372, Control_c, 2, 7, 106
4, 33380, Control_c, 2, 7, 105
4, 33380, Control_c, 2, 7, 103
4, 33390, Note_on_c, 2, 76, 112
4, 33390, Control_c, 2, 7, 103
4, 33393, Note_on_c, 2, 81, 0
4, 33400, Control_c, 2, 7, 101
4, 33405, Control_c, 2, 7, 99
4, 33410, Control_c, 2, 7, 98
4, 33415, Control_c, 2, 7, 95
4, 33420, Note_on_c, 2, 72, 97
4, 33420, Control_c, 2, 7, 124
4, 33420, Control_c, 2, 7, 95
4, 33422, Note_on_c, 2, 76, 0
4, 33427, Control_c, 2, 7, 121
4, 33432, Control_c, 2, 7, 120
4, 33432, Control_c, 2, 7, 90
4, 33437, Control_c, 2, 7, 118
4, 33437, Control_c, 2, 7, 88
4, 33442, Control_c, 2, 7, 116
4, 33442, Control_c, 2, 7, 85
4, 33447, Note_on_c, 2, 72, 0
4, 33447, Control_c, 2, 7, 114
4, 33447, Control_c, 2, 7, 84
4, 33450, Note_on_c, 2, 69, 72
4, 33458, Control_c, 2, 7, 113
4, 33458, Control_c, 2, 7, 82
4, 33463, Control_c, 2, 7, 110
4, 33463, Control_c, 2, 7, 80
4, 33473, Control_c, 2, 7, 108
4, 33473, Control_c, 2, 7, 79
4, 33478, Control_c, 2, 7, 78
4, 33480, Note_on_c, 2, 68, 99
4, 33480, Control_c, 2, 7, 105
4, 33480, Control_c, 2, 7, 77
4, 33486, Note_on_c, 2, 69, 0
4, 33491, Control_c, 2, 7, 103
4, 33491, Control_c, 2, 7, 76
4, 33496, Control_c, 2, 7, 99
4, 33496, Control_c, 2, 7, 76
4, 33496, Control_c, 2, 7, 75
4, 33501, Control_c, 2, 7, 98
4, 33501, Control_c, 2, 7, 74
4, 33506, Control_c, 2, 7, 97
4, 33510, Note_on_c, 2, 71, 80
4, 33518, Note_on_c, 2, 68, 0
4, 33518, Control_c, 2, 7, 95
4, 33518, Control_c, 2, 7, 74
4, 33523, Control_c, 2, 7, 93
4, 33528, Control_c, 2, 7, 92
4, 33528, Control_c, 2, 7, 73
4, 33534, Control_c, 2, 7, 89
4, 33540, Note_on_c, 2, 76, 105
4, 33545, Note_on_c, 2, 71, 0
4, 33545, Control_c, 2, 7, 89
4, 33550, Control_c, 2, 7, 87
4, 33550, Control_c, 2, 7, 72
4, 33566, Control_c, 2, 7, 85
4, 33566, Control_c, 2, 7, 72
4, 33570, Note_on_c, 2, 71, 112
4, 33571, Control_c, 2, 7, 84
4, 33571, Control_c, 2, 7, 71
4, 33575, Note_on_c, 2, 76, 0
4, 33578, Control_c, 2, 7, 84
4, 33580, Control_c, 2, 7, 82
4, 33590, Control_c, 2, 7, 82
4, 33590, Control_c, 2, 7, 81
4, 33600, Note_on_c, 2, 68, 112
4, 33600, Control_c, 2, 7, 80
4, 33602, Note_on_c, 2, 71, 0
4, 33607, Control_c, 2, 7, 78
4, 33607, Control_c, 2, 7, 70
4, 33612, Control_c, 2, 7, 76
4, 33617, Control_c, 2, 7, 75
4, 33622, Control_c, 2, 7, 74
4, 33627, Control_c, 2, 7, 73
4, 33630, Note_on_c, 2, 71, 110
4, 33634, Note_on_c, 2, 68, 0
4, 33636, Control_c, 2, 7, 72
4, 33639, Control_c, 2, 7, 71
4, 33644, Control_c, 2, 7, 70
4, 33649, Control_c, 2, 7, 70
4, 33659, Note_on_c, 2, 71, 0
4, 33660, Note_on_c, 2, 76, 112
4, 33705, Note_on_c, 2, 76, 0
4, 33720, Note_on_c, 2, 74, 115
4, 33765, Control_c, 2, 7, 66
4, 33766, Note_on_c, 2, 74, 0
4, 33771, Control_c, 2, 7, 66
4, 33776, Control_c, 2, 7, 65
4, 33780, Note_on_c, 2, 72, 110
4, 33785, Control_c, 2, 7, 69
4, 33793, Control_c, 2, 7, 64
4, 33795, Control_c, 2, 7, 64
4, 33824, Note_on_c, 2, 72, 0
4, 33825, Control_c, 2, 7, 68
4, 33840, Control_c, 2, 7, 67
4, 33845, Control_c, 2, 7, 66
4, 33900, Note_on_c, 2, 72, 108
4, 33905, Control_c, 2, 7, 67
4, 33923, Note_on_c, 2, 72, 0
4, 33930, Note_on_c, 2, 74, 112
4, 33951, Note_on_c, 2, 74, 0
4, 33960, Note_on_c, 2, 76, 103
4, 34002, Note_on_c, 2, 76, 0
4, 34020, Note_on_c, 2, 74, 112
4, 34071, Note_on_c, 2, 74, 0
4, 34080, Note_on_c, 2, 72, 115
4, 34126, Note_on_c, 2, 72, 0
4, 34140, Note_on_c, 2, 71, 115
4, 34191, Note_on_c, 2, 71, 0
4, 34260, Note_on_c, 2, 71, 105
4, 34284, Note_on_c, 2, 71, 0
4, 34290, Note_on_c, 2, 72, 112
4, 34312, Note_on_c, 2, 72, 0
4, 34320, Note_on_c, 2, 74, 112
4, 34374, Note_on_c, 2, 74, 0
4, 34440, Note_on_c, 2, 72, 112
4, 34468, Note_on_c, 2, 72, 0
4, 34470, Note_on_c, 2, 71, 120
4, 34493, Note_on_c, 2, 71, 0
4, 34500, Note_on_c, 2, 72, 112
4, 34557, Note_on_c, 2, 72, 0
4, 34620, Note_on_c, 2, 71, 115
4, 34644, Note_on_c, 2, 71, 0
4, 34650, Note_on_c, 2, 69, 120
4, 34672, Note_on_c, 2, 69, 0
4, 34680, Note_on_c, 2, 71, 112
4, 34734, Note_on_c, 2, 71, 0
4, 34740, Note_on_c, 2, 69, 117
4, 34798, Note_on_c, 2, 69, 0
4, 34920, Note_on_c, 2, 72, 105
4, 34979, Note_on_c, 2, 72, 0
4, 35100, Note_on_c, 2, 71, 103
4, 35166, Note_on_c, 2, 71, 0
4, 35280, Note_on_c, 2, 74, 110
4, 35344, Note_on_c, 2, 74, 0
4, 35400, Note_on_c, 2, 76, 101
4, 35451, Note_on_c, 2, 76, 0
4, 35460, Note_on_c, 2, 76, 115
4, 35537, Note_on_c, 2, 76, 0
4, 35580, Note_on_c, 2, 69, 112
4, 35610, Note_on_c, 2, 68, 101
4, 35613, Note_on_c, 2, 69, 0
4, 35635, Note_on_c, 2, 68, 0
4, 35640, Note_on_c, 2, 69, 110
4, 35696, Note_on_c, 2, 69, 0
4, 35760, Note_on_c, 2, 73, 117
4, 35813, Note_on_c, 2, 73, 0
4, 35820, Note_on_c, 2, 77, 117
4, 35871, Note_on_c, 2, 77, 0
4, 35880, Note_on_c, 2, 74, 110
4, 35928, Note_on_c, 2, 74, 0
4, 35940, Note_on_c, 2, 74, 112
4, 35967, Note_on_c, 2, 74, 0
4, 35970, Note_on_c, 2, 73, 120
4, 35994, Note_on_c, 2, 73, 0
4, 36000, Note_on_c, 2, 74, 112
4, 36052, Note_on_c, 2, 74, 0
4, 36120, Note_on_c, 2, 72, 108
4, 36176, Note_on_c, 2, 72, 0
4, 36180, Note_on_c, 2, 71, 112
4, 36235, Note_on_c, 2, 71, 0
4, 36240, Note_on_c, 2, 67, 110
4, 36291, Note_on_c, 2, 67, 0
4, 36300, Note_on_c, 2, 67, 112
4, 36327, Note_on_c, 2, 67, 0
4, 36330, Note_on_c, 2, 66, 112
4, 36355, Note_on_c, 2, 66, 0
4, 36360, Note_on_c, 2, 67, 99
4, 36422, Note_on_c, 2, 67, 0
4, 36480, Note_on_c, 2, 71, 112
4, 36532, Note_on_c, 2, 71, 0
4, 36540, Note_on_c, 2, 76, 112
4, 36597, Note_on_c, 2, 76, 0
4, 36600, Note_on_c, 2, 72, 115
4, 36651, Note_on_c, 2, 72, 0
4, 36660, Note_on_c, 2, 72, 112
4, 36685, Note_on_c, 2, 72, 0
4, 36690, Note_on_c, 2, 71, 123
4, 36715, Note_on_c, 2, 71, 0
4, 36720, Note_on_c, 2, 72, 117
4, 36774, Note_on_c, 2, 72, 0
4, 36840, Note_on_c, 2, 76, 110
4, 36882, Note_on_c, 2, 76, 0
4, 36900, Note_on_c, 2, 81, 117
4, 36960, Note_on_c, 2, 77, 112
4, 36963, Note_on_c, 2, 81, 0
4, 37019, Note_on_c, 2, 77, 0
4, 37020, Note_on_c, 2, 69, 112
4, 37070, Note_on_c, 2, 69, 0
4, 37140, Note_on_c, 2, 79, 120
4, 37200, Note_on_c, 2, 71, 112
4, 37200, Note_on_c, 2, 73, 61
4, 37202, Note_on_c, 2, 79, 0
4, 37203, Note_on_c, 2, 73, 0
4, 37261, Note_on_c, 2, 71, 0
4, 37320, Note_on_c, 2, 81, 95
4, 37380, Note_on_c, 2, 72, 110
4, 37381, Note_on_c, 2, 81, 0
4, 37436, Note_on_c, 2, 72, 0
4, 37500, Note_on_c, 2, 79, 103
4, 37525, Control_c, 2, 7, 67
4, 37535, Control_c, 2, 7, 68
4, 37554, Control_c, 2, 7, 68
4, 37554, Control_c, 2, 7, 69
4, 37558, Note_on_c, 2, 79, 0
4, 37560, Note_on_c, 2, 74, 112
4, 37565, Control_c, 2, 7, 70
4, 37580, Control_c, 2, 7, 72
4, 37590, Control_c, 2, 7, 73
4, 37600, Control_c, 2, 7, 76
4, 37606, Control_c, 2, 7, 80
4, 37611, Note_on_c, 2, 74, 0
4, 37611, Control_c, 2, 7, 83
4, 37620, Note_on_c, 2, 76, 110
4, 37620, Control_c, 2, 7, 86
4, 37625, Control_c, 2, 7, 86
4, 37630, Control_c, 2, 7, 88
4, 37635, Control_c, 2, 7, 90
4, 37641, Note_on_c, 2, 76, 0
4, 37645, Control_c, 2, 7, 91
4, 37650, Note_on_c, 2, 79, 92
4, 37651, Control_c, 2, 7, 93
4, 37660, Control_c, 2, 7, 95
4, 37660, Control_c, 2, 7, 97
4, 37665, Control_c, 2, 7, 98
4, 37676, Note_on_c, 2, 79, 0
4, 37677, Control_c, 2, 7, 99
4, 37680, Note_on_c, 2, 84, 120
4, 37685, Control_c, 2, 7, 102
4, 37690, Control_c, 2, 7, 104
4, 37706, Note_on_c, 2, 84, 0
4, 37710, Note_on_c, 2, 79, 99
4, 37711, Control_c, 2, 7, 106
4, 37715, Control_c, 2, 7, 107
4, 37720, Control_c, 2, 7, 109
4, 37725, Control_c, 2, 7, 109
4, 37735, Note_on_c, 2, 79, 0
4, 37740, Note_on_c, 2, 76, 112
4, 37763, Note_on_c, 2, 76, 0
4, 37770, Note_on_c, 2, 72, 88
4, 37800, Note_on_c, 2, 71, 105
4, 37801, Note_on_c, 2, 72, 0
4, 37820, Control_c, 2, 7, 109
4, 37825, Note_on_c, 2, 71, 0
4, 37830, Note_on_c, 2, 74, 110
4, 37854, Note_on_c, 2, 74, 0
4, 37856, Control_c, 2, 7, 108
4, 37860, Note_on_c, 2, 79, 117
4, 37861, Control_c, 2, 7, 107
4, 37866, Control_c, 2, 7, 107
4, 37876, Control_c, 2, 7, 106
4, 37885, Note_on_c, 2, 79, 0
4, 37890, Note_on_c, 2, 74, 115
4, 37895, Control_c, 2, 7, 105
4, 37916, Note_on_c, 2, 74, 0
4, 37920, Note_on_c, 2, 71, 120
4, 37935, Control_c, 2, 7, 105
4, 37945, Control_c, 2, 7, 106
4, 37947, Note_on_c, 2, 71, 0
4, 37950, Note_on_c, 2, 67, 115
4, 37952, Control_c, 2, 7, 107
4, 37960, Control_c, 2, 7, 109
4, 37965, Control_c, 2, 7, 111
4, 37970, Control_c, 2, 7, 112
4, 37977, Note_on_c, 2, 67, 0
4, 37980, Note_on_c, 2, 76, 115
4, 37985, Control_c, 2, 7, 113
4, 37990, Control_c, 2, 7, 113
4, 37990, Control_c, 2, 7, 114
4, 38030, Note_on_c, 2, 76, 0
4, 38040, Note_on_c, 2, 74, 112
4, 38087, Note_on_c, 2, 74, 0
4, 38100, Note_on_c, 2, 72, 112
4, 38130, Control_c, 2, 7, 113
4, 38134, Control_c, 2, 7, 113
4, 38144, Control_c, 2, 7, 112
4, 38157, Control_c, 2, 7, 111
4, 38160, Note_on_c, 2, 72, 0
4, 38179, Control_c, 2, 7, 111
4, 38179, Control_c, 2, 7, 109
4, 38184, Control_c, 2, 7, 109
4, 38214, Control_c, 2, 7, 108
4, 38220, Note_on_c, 2, 72, 115
4, 38228, Control_c, 2, 7, 107
4, 38240, Note_on_c, 2, 72, 0
4, 38245, Control_c, 2, 7, 106
4, 38249, Control_c, 2, 7, 105
4, 38250, Note_on_c, 2, 74, 115
4, 38255, Control_c, 2, 7, 105
4, 38274, Note_on_c, 2, 74, 0
4, 38275, Control_c, 2, 7, 104
4, 38280, Note_on_c, 2, 76, 110
4, 38289, Control_c, 2, 7, 103
4, 38294, Control_c, 2, 7, 103
4, 38299, Control_c, 2, 7, 101
4, 38304, Control_c, 2, 7, 101
4, 38314, Control_c, 2, 7, 100
4, 38319, Control_c, 2, 7, 99
4, 38324, Control_c, 2, 7, 98
4, 38328, Note_on_c, 2, 76, 0
4, 38333, Control_c, 2, 7, 97
4, 38338, Control_c, 2, 7, 96
4, 38340, Note_on_c, 2, 74, 110
4, 38345, Control_c, 2, 7, 94
4, 38349, Control_c, 2, 7, 93
4, 38369, Control_c, 2, 7, 91
4, 38374, Control_c, 2, 7, 90
4, 38395, Note_on_c, 2, 74, 0
4, 38400, Note_on_c, 2, 72, 110
4, 38400, Control_c, 2, 7, 88
4, 38424, Control_c, 2, 7, 86
4, 38424, Control_c, 2, 7, 85
4, 38439, Control_c, 2, 7, 84
4, 38444, Control_c, 2, 7, 83
4, 38444, Control_c, 2, 7, 82
4, 38453, Note_on_c, 2, 72, 0
4, 38458, Control_c, 2, 7, 81
4, 38460, Note_on_c, 2, 71, 117
4, 38465, Control_c, 2, 7, 80
4, 38473, Control_c, 2, 7, 78
4, 38478, Control_c, 2, 7, 77
4, 38483, Control_c, 2, 7, 76
4, 38488, Control_c, 2, 7, 74
4, 38493, Control_c, 2, 7, 72
4, 38503, Control_c, 2, 7, 71
4, 38503, Control_c, 2, 7, 69
4, 38513, Control_c, 2, 7, 68
4, 38517, Note_on_c, 2, 71, 0
4, 38545, Control_c, 2, 7, 68
4, 38580, Note_on_c, 2, 71, 110
4, 38607, Note_on_c, 2, 71, 0
4, 38610, Note_on_c, 2, 72, 112
4, 38635, Note_on_c, 2, 72, 0
4, 38635, Control_c, 2, 7, 67
4, 38640, Note_on_c, 2, 74, 110
4, 38683, Note_on_c, 2, 74, 0
4, 38700, Note_on_c, 2, 72, 115
4, 38724, Note_on_c, 2, 72, 0
4, 38730, Note_on_c, 2, 76, 112
4, 38755, Note_on_c, 2, 76, 0
4, 38760, Note_on_c, 2, 79, 115
4, 38782, Note_on_c, 2, 79, 0
4, 38790, Note_on_c, 2, 76, 115
4, 38816, Note_on_c, 2, 76, 0
4, 38820, Note_on_c, 2, 72, 123
4, 38850, Note_on_c, 2, 72, 0
4, 38850, Note_on_c, 2, 76, 115
4, 38875, Note_on_c, 2, 76, 0
4, 38880, Note_on_c, 2, 74, 112
4, 38906, Note_on_c, 2, 74, 0
4, 38910, Note_on_c, 2, 71, 105
4, 38940, Note_on_c, 2, 67, 117
4, 38942, Note_on_c, 2, 71, 0
4, 38968, Note_on_c, 2, 67, 0
4, 38970, Note_on_c, 2, 71, 112
4, 38995, Note_on_c, 2, 71, 0
4, 39000, Note_on_c, 2, 74, 112
4, 39023, Note_on_c, 2, 74, 0
4, 39030, Note_on_c, 2, 77, 115
4, 39060, Note_on_c, 2, 76, 108
4, 39063, Note_on_c, 2, 77, 0
4, 39121, Note_on_c, 2, 76, 0
4, 39240, Note_on_c, 2, 72, 115
4, 39302, Note_on_c, 2, 72, 0
4, 39420, Note_on_c, 2, 71, 99
4, 39485, Note_on_c, 2, 71, 0
4, 39600, Note_on_c, 2, 74, 105
4, 39655, Note_on_c, 2, 74, 0
4, 39810, Note_on_c, 2, 72, 99
4, 39839, Note_on_c, 2, 72, 0
4, 39840, Note_on_c, 2, 76, 115
4, 39870, Note_on_c, 2, 79, 112
4, 39873, Note_on_c, 2, 76, 0
4, 39892, Note_on_c, 2, 79, 0
4, 39900, Note_on_c, 2, 84, 120
4, 39952, Note_on_c, 2, 84, 0
4, 39990, Note_on_c, 2, 72, 92
4, 40019, Note_on_c, 2, 72, 0
4, 40020, Note_on_c, 2, 77, 112
4, 40050, Note_on_c, 2, 81, 117
4, 40054, Note_on_c, 2, 77, 0
4, 40075, Note_on_c, 2, 81, 0
4, 40080, Note_on_c, 2, 86, 117
4, 40132, Note_on_c, 2, 86, 0
4, 40170, Note_on_c, 2, 74, 78
4, 40200, Note_on_c, 2, 74, 0
4, 40200, Note_on_c, 2, 79, 110
4, 40230, Note_on_c, 2, 83, 115
4, 40232, Note_on_c, 2, 79, 0
4, 40250, Note_on_c, 2, 83, 0
4, 40260, Note_on_c, 2, 88, 117
4, 40311, Note_on_c, 2, 88, 0
4, 40350, Note_on_c, 2, 76, 112
4, 40377, Note_on_c, 2, 76, 0
4, 40380, Note_on_c, 2, 81, 120
4, 40408, Note_on_c, 2, 81, 0
4, 40410, Note_on_c, 2, 84, 105
4, 40427, Note_on_c, 2, 84, 0
4, 40440, Note_on_c, 2, 84, 115
4, 40470, Note_on_c, 2, 81, 117
4, 40471, Note_on_c, 2, 84, 0
4, 40490, Note_on_c, 2, 81, 0
4, 40500, Note_on_c, 2, 81, 112
4, 40530, Note_on_c, 2, 81, 0
4, 40530, Note_on_c, 2, 74, 112
4, 40550, Note_on_c, 2, 74, 0
4, 40560, Note_on_c, 2, 74, 110
4, 40585, Note_on_c, 2, 74, 0
4, 40590, Note_on_c, 2, 79, 103
4, 40611, Note_on_c, 2, 79, 0
4, 40620, Note_on_c, 2, 79, 112
4, 40650, Note_on_c, 2, 67, 110
4, 40652, Note_on_c, 2, 79, 0
4, 40668, Note_on_c, 2, 67, 0
4, 40680, Note_on_c, 2, 67, 115
4, 40851, Control_c, 2, 7, 67
4, 40861, Control_c, 2, 7, 68
4, 40868, Control_c, 2, 7, 68
4, 40886, Note_on_c, 2, 67, 0
4, 40890, Note_on_c, 2, 65, 112
4, 40891, Control_c, 2, 7, 71
4, 40896, Control_c, 2, 7, 72
4, 40902, Control_c, 2, 7, 74
4, 40912, Control_c, 2, 7, 79
4, 40912, Control_c, 2, 7, 81
4, 40920, Note_on_c, 2, 67, 117
4, 40923, Control_c, 2, 7, 82
4, 40926, Note_on_c, 2, 65, 0
4, 40931, Control_c, 2, 7, 85
4, 40937, Control_c, 2, 7, 88
4, 40942, Control_c, 2, 7, 91
4, 40947, Control_c, 2, 7, 94
4, 40950, Note_on_c, 2, 69, 112
4, 40952, Control_c, 2, 7, 95
4, 40956, Note_on_c, 2, 67, 0
4, 40961, Control_c, 2, 7, 97
4, 40966, Control_c, 2, 7, 99
4, 40976, Control_c, 2, 7, 102
4, 40980, Note_on_c, 2, 70, 110
4, 40981, Control_c, 2, 7, 106
4, 40989, Note_on_c, 2, 69, 0
4, 40990, Control_c, 2, 7, 107
4, 40995, Control_c, 2, 7, 110
4, 40997, Control_c, 2, 7, 111
4, 41002, Note_on_c, 2, 70, 0
4, 41007, Control_c, 2, 7, 112
4, 41010, Note_on_c, 2, 67, 108
4, 41012, Control_c, 2, 7, 113
4, 41020, Control_c, 2, 7, 115
4, 41025, Control_c, 2, 7, 117
4, 41036, Control_c, 2, 7, 118
4, 41040, Note_on_c, 2, 67, 0
4, 41040, Note_on_c, 2, 72, 115
4, 41063, Note_on_c, 2, 72, 0
4, 41070, Note_on_c, 2, 77, 112
4, 41089, Note_on_c, 2, 77, 0
4, 41096, Control_c, 2, 7, 117
4, 41100, Note_on_c, 2, 77, 117
4, 41120, Control_c, 2, 7, 116
4, 41129, Note_on_c, 2, 77, 0
4, 41130, Note_on_c, 2, 72, 110
4, 41143, Control_c, 2, 7, 116
4, 41148, Control_c, 2, 7, 115
4, 41152, Note_on_c, 2, 72, 0
4, 41160, Note_on_c, 2, 72, 112
4, 41165, Control_c, 2, 7, 114
4, 41189, Note_on_c, 2, 72, 0
4, 41190, Note_on_c, 2, 69, 120
4, 41212, Note_on_c, 2, 69, 0
4, 41220, Note_on_c, 2, 69, 112
4, 41244, Note_on_c, 2, 69, 0
4, 41250, Note_on_c, 2, 74, 115
4, 41271, Note_on_c, 2, 74, 0
4, 41280, Note_on_c, 2, 74, 115
4, 41304, Note_on_c, 2, 74, 0
4, 41310, Note_on_c, 2, 69, 115
4, 41329, Note_on_c, 2, 69, 0
4, 41340, Note_on_c, 2, 69, 110
4, 41369, Note_on_c, 2, 69, 0
4, 41370, Note_on_c, 2, 67, 117
4, 41392, Note_on_c, 2, 67, 0
4, 41400, Note_on_c, 2, 67, 115
4, 41426, Control_c, 2, 7, 111
4, 41427, Note_on_c, 2, 67, 0
4, 41430, Note_on_c, 2, 71, 110
4, 41435, Control_c, 2, 7, 107
4, 41445, Control_c, 2, 7, 104
4, 41449, Note_on_c, 2, 71, 0
4, 41454, Control_c, 2, 7, 103
4, 41460, Note_on_c, 2, 71, 115
4, 41460, Control_c, 2, 7, 100
4, 41470, Control_c, 2, 7, 98
4, 41474, Control_c, 2, 7, 96
4, 41479, Control_c, 2, 7, 93
4, 41487, Control_c, 2, 7, 92
4, 41490, Note_on_c, 2, 71, 0
4, 41490, Note_on_c, 2, 67, 120
4, 41491, Control_c, 2, 7, 91
4, 41500, Control_c, 2, 7, 91
4, 41507, Note_on_c, 2, 67, 0
4, 41507, Control_c, 2, 7, 89
4, 41515, Control_c, 2, 7, 89
4, 41520, Note_on_c, 2, 67, 103
4, 41520, Control_c, 2, 7, 88
4, 41531, Control_c, 2, 7, 86
4, 41531, Control_c, 2, 7, 84
4, 41539, Control_c, 2, 7, 83
4, 41542, Control_c, 2, 7, 82
4, 41548, Note_on_c, 2, 67, 0
4, 41550, Note_on_c, 2, 71, 117
4, 41555, Control_c, 2, 7, 81
4, 41560, Control_c, 2, 7, 80
4, 41562, Control_c, 2, 7, 79
4, 41569, Control_c, 2, 7, 78
4, 41572, Note_on_c, 2, 71, 0
4, 41579, Control_c, 2, 7, 77
4, 41580, Note_on_c, 2, 72, 127
4, 41580, Control_c, 2, 7, 76
4, 41590, Control_c, 2, 7, 75
4, 41590, Control_c, 2, 7, 74
4, 41620, Control_c, 2, 7, 71
4, 41625, Control_c, 2, 7, 70
4, 41635, Control_c, 2, 7, 69
4, 41636, Note_on_c, 2, 72, 0
4, 41641, Control_c, 2, 7, 68
4, 41648, Control_c, 2, 7, 66
4, 41650, Control_c, 2, 7, 66
4, 41653, Control_c, 2, 7, 65
4, 41668, Control_c, 2, 7, 64
4, 41670, Note_on_c, 2, 76, 115
4, 41687, Note_on_c, 2, 76, 0
4, 41700, Note_on_c, 2, 74, 112
4, 41755, Note_on_c, 2, 74, 0
4, 41790, Note_on_c, 2, 71, 108
4, 41810, Note_on_c, 2, 71, 0
4, 41820, Note_on_c, 2, 72, 115
4, 41881, Note_on_c, 2, 72, 0
4, 41910, Note_on_c, 2, 72, 108
4, 41915, Control_c, 2, 7, 65
4, 41930, Note_on_c, 2, 72, 0
4, 41940, Note_on_c, 2, 69, 123
4, 42009, Note_on_c, 2, 69, 0
4, 42019, Control_c, 2, 7, 66
4, 42030, Note_on_c, 2, 74, 112
4, 42049, Note_on_c, 2, 74, 0
4, 42060, Note_on_c, 2, 67, 126
4, 42132, Note_on_c, 2, 67, 0
4, 42150, Note_on_c, 2, 69, 120
4, 42168, Note_on_c, 2, 69, 0
4, 42180, Note_on_c, 2, 67, 115
4, 42229, Note_on_c, 2, 67, 0
4, 42240, Note_on_c, 2, 67, 112
4, 42290, Note_on_c, 2, 67, 0
4, 42300, Note_on_c, 2, 67, 120
4, 42376, Note_on_c, 2, 67, 0
4, 43380, Note_on_c, 2, 72, 123
4, 43395, Control_c, 2, 7, 63
4, 43395, Control_c, 2, 7, 66
4, 43410, Note_on_c, 2, 72, 0
4, 43410, Note_on_c, 2, 76, 117
4, 43420, Control_c, 2, 7, 67
4, 43425, Control_c, 2, 7, 72
4, 43430, Control_c, 2, 7, 78
4, 43438, Note_on_c, 2, 76, 0
4, 43440, Note_on_c, 2, 79, 115
4, 43440, Control_c, 2, 7, 81
4, 43445, Control_c, 2, 7, 84
4, 43447, Control_c, 2, 7, 88
4, 43452, Control_c, 2, 7, 89
4, 43460, Control_c, 2, 7, 94
4, 43464, Control_c, 2, 7, 103
4, 43470, Note_on_c, 2, 76, 117
4, 43473, Control_c, 2, 7, 103
4, 43475, Control_c, 2, 7, 105
4, 43477, Note_on_c, 2, 79, 0
4, 43482, Control_c, 2, 7, 108
4, 43487, Control_c, 2, 7, 110
4, 43492, Control_c, 2, 7, 112
4, 43498, Note_on_c, 2, 76, 0
4, 43500, Note_on_c, 2, 72, 127
4, 43505, Control_c, 2, 7, 114
4, 43505, Control_c, 2, 7, 116
4, 43515, Control_c, 2, 7, 116
4, 43515, Control_c, 2, 7, 117
4, 43520, Control_c, 2, 7, 118
4, 43525, Control_c, 2, 7, 118
4, 43530, Note_on_c, 2, 72, 0
4, 43530, Note_on_c, 2, 76, 117
4, 43540, Control_c, 2, 7, 119
4, 43554, Note_on_c, 2, 76, 0
4, 43560, Note_on_c, 2, 74, 117
4, 43585, Control_c, 2, 7, 120
4, 43587, Note_on_c, 2, 74, 0
4, 43590, Note_on_c, 2, 71, 123
4, 43595, Control_c, 2, 7, 121
4, 43620, Note_on_c, 2, 67, 117
4, 43622, Note_on_c, 2, 71, 0
4, 43650, Note_on_c, 2, 67, 0
4, 43650, Note_on_c, 2, 71, 105
4, 43675, Note_on_c, 2, 71, 0
4, 43680, Note_on_c, 2, 74, 115
4, 43685, Control_c, 2, 7, 120
4, 43690, Control_c, 2, 7, 118
4, 43690, Control_c, 2, 7, 118
4, 43695, Control_c, 2, 7, 117
4, 43700, Control_c, 2, 7, 116
4, 43705, Note_on_c, 2, 74, 0
4, 43705, Control_c, 2, 7, 116
4, 43710, Note_on_c, 2, 77, 115
4, 43715, Control_c, 2, 7, 115
4, 43720, Control_c, 2, 7, 114
4, 43725, Control_c, 2, 7, 113
4, 43730, Control_c, 2, 7, 112
4, 43735, Note_on_c, 2, 77, 0
4, 43740, Note_on_c, 2, 76, 120
4, 43745, Control_c, 2, 7, 110
4, 43750, Control_c, 2, 7, 103
4, 43755, Control_c, 2, 7, 98
4, 43760, Control_c, 2, 7, 93
4, 43765, Control_c, 2, 7, 88
4, 43770, Control_c, 2, 7, 87
4, 43773, Control_c, 2, 7, 85
4, 43778, Control_c, 2, 7, 83
4, 43788, Control_c, 2, 7, 81
4, 43788, Control_c, 2, 7, 80
4, 43796, Control_c, 2, 7, 79
4, 43799, Note_on_c, 2, 76, 0
4, 43804, Control_c, 2, 7, 78
4, 43806, Control_c, 2, 7, 76
4, 43811, Control_c, 2, 7, 76
4, 43816, Control_c, 2, 7, 75
4, 43821, Control_c, 2, 7, 74
4, 43821, Control_c, 2, 7, 74
4, 43842, Control_c, 2, 7, 72
4, 43864, Control_c, 2, 7, 71
4, 43872, Control_c, 2, 7, 70
4, 43877, Control_c, 2, 7, 69
4, 43893, Control_c, 2, 7, 68
4, 43898, Control_c, 2, 7, 68
4, 43903, Control_c, 2, 7, 67
4, 43903, Control_c, 2, 7, 66
4, 43912, Control_c, 2, 7, 66
4, 43958, Control_c, 2, 7, 64
4, 44820, Note_on_c, 2, 79, 115
4, 44824, Control_c, 2, 7, 63
4, 44830, Control_c, 2, 7, 65
4, 44835, Control_c, 2, 7, 68
4, 44840, Control_c, 2, 7, 72
4, 44843, Note_on_c, 2, 79, 0
4, 44845, Control_c, 2, 7, 73
4, 44850, Note_on_c, 2, 83, 123
4, 44850, Control_c, 2, 7, 75
4, 44855, Control_c, 2, 7, 79
4, 44861, Control_c, 2, 7, 80
4, 44866, Control_c, 2, 7, 83
4, 44875, Control_c, 2, 7, 89
4, 44876, Note_on_c, 2, 83, 0
4, 44880, Note_on_c, 2, 86, 117
4, 44883, Control_c, 2, 7, 92
4, 44888, Control_c, 2, 7, 93
4, 44888, Control_c, 2, 7, 97
4, 44898, Control_c, 2, 7, 97
4, 44905, Note_on_c, 2, 86, 0
4, 44908, Control_c, 2, 7, 103
4, 44910, Note_on_c, 2, 83, 115
4, 44911, Control_c, 2, 7, 105
4, 44915, Control_c, 2, 7, 106
4, 44920, Control_c, 2, 7, 107
4, 44925, Control_c, 2, 7, 113
4, 44939, Note_on_c, 2, 83, 0
4, 44940, Note_on_c, 2, 79, 126
4, 44953, Control_c, 2, 7, 116
4, 44958, Control_c, 2, 7, 118
4, 44958, Control_c, 2, 7, 120
4, 44968, Control_c, 2, 7, 120
4, 44970, Note_on_c, 2, 79, 0
4, 44970, Note_on_c, 2, 83, 117
4, 44970, Control_c, 2, 7, 121
4, 44985, Control_c, 2, 7, 122
4, 44996, Note_on_c, 2, 83, 0
4, 45000, Note_on_c, 2, 81, 117
4, 45001, Control_c, 2, 7, 124
4, 45029, Note_on_c, 2, 81, 0
4, 45030, Note_on_c, 2, 78, 123
4, 45030, Control_c, 2, 7, 125
4, 45035, Control_c, 2, 7, 126
4, 45040, Control_c, 2, 7, 126
4, 45058, Note_on_c, 2, 78, 0
4, 45060, Note_on_c, 2, 74, 108
4, 45065, Control_c, 2, 7, 127
4, 45090, Note_on_c, 2, 78, 127
4, 45092, Note_on_c, 2, 74, 0
4, 45113, Note_on_c, 2, 78, 0
4, 45120, Note_on_c, 2, 81, 97
4, 45146, Note_on_c, 2, 81, 0
4, 45150, Note_on_c, 2, 84, 117
4, 45172, Control_c, 2, 7, 126
4, 45174, Note_on_c, 2, 84, 0
4, 45180, Note_on_c, 2, 83, 117
4, 45190, Control_c, 2, 7, 124
4, 45200, Control_c, 2, 7, 123
4, 45205, Control_c, 2, 7, 121
4, 45210, Control_c, 2, 7, 109
4, 45214, Control_c, 2, 7, 101
4, 45222, Control_c, 2, 7, 99
4, 45230, Control_c, 2, 7, 97
4, 45233, Note_on_c, 2, 83, 0
4, 45233, Control_c, 2, 7, 88
4, 45240, Control_c, 2, 7, 86
4, 45247, Control_c, 2, 7, 78
4, 45257, Control_c, 2, 7, 74
4, 45262, Control_c, 2, 7, 73
4, 45262, Control_c, 2, 7, 69
4, 45271, Control_c, 2, 7, 68
4, 45278, Control_c, 2, 7, 66
4, 45283, Control_c, 2, 7, 65
4, 45288, Control_c, 2, 7, 64
4, 45331, Control_c, 2, 7, 65
4, 45346, Control_c, 2, 7, 64
4, 46500, Note_on_c, 2, 79, 115
4, 46552, Note_on_c, 2, 79, 0
4, 46560, Note_on_c, 2, 76, 112
4, 46614, Note_on_c, 2, 76, 0
4, 46620, Note_on_c, 2, 73, 115
4, 46675, Note_on_c, 2, 73, 0
4, 46860, Note_on_c, 2, 78, 112
4, 46915, Note_on_c, 2, 78, 0
4, 46920, Note_on_c, 2, 74, 108
4, 46976, Note_on_c, 2, 74, 0
4, 46980, Note_on_c, 2, 71, 99
4, 47041, Note_on_c, 2, 71, 0
4, 47220, Note_on_c, 2, 76, 105
4, 47271, Note_on_c, 2, 76, 0
4, 47280, Note_on_c, 2, 73, 110
4, 47334, Note_on_c, 2, 73, 0
4, 47340, Note_on_c, 2, 74, 110
4, 47400, Note_on_c, 2, 74, 0
4, 48120, Note_on_c, 2, 74, 126
4, 48150, Note_on_c, 2, 76, 115
4, 48152, Note_on_c, 2, 74, 0
4, 48179, Note_on_c, 2, 76, 0
4, 48180, Note_on_c, 2, 74, 117
4, 48204, Note_on_c, 2, 74, 0
4, 48210, Note_on_c, 2, 76, 115
4, 48230, Note_on_c, 2, 76, 0
4, 48240, Note_on_c, 2, 77, 110
4, 48270, Note_on_c, 2, 76, 115
4, 48272, Note_on_c, 2, 77, 0
4, 48298, Note_on_c, 2, 76, 0
4, 48300, Note_on_c, 2, 74, 115
4, 48330, Note_on_c, 2, 76, 120
4, 48334, Note_on_c, 2, 74, 0
4, 48354, Note_on_c, 2, 76, 0
4, 48360, Note_on_c, 2, 77, 105
4, 48449, Note_on_c, 2, 77, 0
4, 48450, Note_on_c, 2, 76, 115
4, 48480, Note_on_c, 2, 74, 117
4, 48489, Note_on_c, 2, 76, 0
4, 48510, Note_on_c, 2, 76, 115
4, 48515, Note_on_c, 2, 74, 0
4, 48540, Note_on_c, 2, 77, 112
4, 48541, Note_on_c, 2, 76, 0
4, 48568, Note_on_c, 2, 77, 0
4, 48570, Note_on_c, 2, 76, 112
4, 48595, Note_on_c, 2, 76, 0
4, 48600, Note_on_c, 2, 77, 117
4, 48630, Note_on_c, 2, 81, 108
4, 48633, Note_on_c, 2, 77, 0
4, 48660, Note_on_c, 2, 79, 110
4, 48664, Note_on_c, 2, 81, 0
4, 48690, Note_on_c, 2, 77, 115
4, 48695, Note_on_c, 2, 79, 0
4, 48720, Note_on_c, 2, 76, 117
4, 48722, Note_on_c, 2, 77, 0
4, 48744, Note_on_c, 2, 76, 0
4, 48750, Note_on_c, 2, 74, 92
4, 48780, Note_on_c, 2, 76, 99
4, 48785, Note_on_c, 2, 74, 0
4, 48825, Note_on_c, 2, 76, 0
4, 48840, Note_on_c, 2, 79, 105
4, 48887, Note_on_c, 2, 79, 0
4, 48900, Note_on_c, 2, 84, 110
4, 48930, Note_on_c, 2, 83, 25
4, 48942, Note_on_c, 2, 83, 0
4, 49000, Note_on_c, 2, 84, 0
4, 49020, Note_on_c, 2, 83, 115
4, 49047, Note_on_c, 2, 83, 0
4, 49050, Note_on_c, 2, 81, 117
4, 49071, Note_on_c, 2, 81, 0
4, 49080, Note_on_c, 2, 83, 115
4, 49181, Note_on_c, 2, 83, 0
4, 49200, Note_on_c, 2, 81, 120
4, 49225, Note_on_c, 2, 81, 0
4, 49230, Note_on_c, 2, 79, 115
4, 49249, Note_on_c, 2, 79, 0
4, 49260, Note_on_c, 2, 81, 112
4, 49365, Note_on_c, 2, 81, 0
4, 49380, Note_on_c, 2, 79, 110
4, 49404, Note_on_c, 2, 79, 0
4, 49410, Note_on_c, 2, 78, 108
4, 49432, Note_on_c, 2, 78, 0
4, 49440, Note_on_c, 2, 79, 112
4, 49539, Note_on_c, 2, 79, 0
4, 49560, Note_on_c, 2, 84, 127
4, 49890, Note_on_c, 2, 81, 103
4, 49891, Note_on_c, 2, 84, 0
4, 49920, Note_on_c, 2, 83, 117
4, 49921, Note_on_c, 2, 81, 0
4, 49950, Note_on_c, 2, 84, 110
4, 49957, Note_on_c, 2, 83, 0
4, 49977, Note_on_c, 2, 84, 0
4, 49980, Note_on_c, 2, 86, 110
4, 50010, Note_on_c, 2, 88, 105
4, 50014, Note_on_c, 2, 86, 0
4, 50036, Note_on_c, 2, 88, 0
4, 50040, Note_on_c, 2, 78, 99
4, 50068, Note_on_c, 2, 78, 0
4, 50070, Note_on_c, 2, 86, 99
4, 50098, Note_on_c, 2, 86, 0
4, 50100, Note_on_c, 2, 83, 99
4, 50122, Note_on_c, 2, 83, 0
4, 50130, Note_on_c, 2, 78, 112
4, 50152, Note_on_c, 2, 78, 0
4, 50160, Note_on_c, 2, 83, 112
4, 50182, Note_on_c, 2, 83, 0
4, 50190, Note_on_c, 2, 86, 115
4, 50216, Note_on_c, 2, 86, 0
4, 50220, Note_on_c, 2, 79, 112
4, 50256, Note_on_c, 2, 79, 0
4, 50280, Note_on_c, 2, 88, 127
4, 50618, Note_on_c, 2, 88, 0
4, 50640, Note_on_c, 2, 84, 110
4, 50688, Note_on_c, 2, 84, 0
4, 50700, Note_on_c, 2, 88, 115
4, 50751, Note_on_c, 2, 88, 0
4, 50760, Note_on_c, 2, 81, 125
4, 50955, Note_on_c, 2, 81, 0
4, 50970, Note_on_c, 2, 74, 115
4, 50993, Note_on_c, 2, 74, 0
4, 51000, Note_on_c, 2, 74, 108
4, 51028, Note_on_c, 2, 74, 0
4, 51030, Note_on_c, 2, 78, 110
4, 51050, Note_on_c, 2, 78, 0
4, 51060, Note_on_c, 2, 78, 110
4, 51087, Note_on_c, 2, 78, 0
4, 51090, Note_on_c, 2, 81, 97
4, 51110, Note_on_c, 2, 81, 0
4, 51120, Note_on_c, 2, 81, 115
4, 51147, Note_on_c, 2, 81, 0
4, 51150, Note_on_c, 2, 86, 112
4, 51170, Note_on_c, 2, 86, 0
4, 51180, Note_on_c, 2, 86, 115
4, 51208, Note_on_c, 2, 86, 0
4, 51210, Note_on_c, 2, 81, 115
4, 51228, Note_on_c, 2, 81, 0
4, 51240, Note_on_c, 2, 81, 105
4, 51267, Note_on_c, 2, 81, 0
4, 51270, Note_on_c, 2, 78, 115
4, 51298, Note_on_c, 2, 78, 0
4, 51300, Note_on_c, 2, 74, 117
4, 51382, Note_on_c, 2, 74, 0
4, 51510, Note_on_c, 2, 86, 97
4, 51540, Note_on_c, 2, 84, 110
4, 51544, Note_on_c, 2, 86, 0
4, 51570, Note_on_c, 2, 83, 112
4, 51578, Note_on_c, 2, 84, 0
4, 51600, Note_on_c, 2, 81, 112
4, 51603, Note_on_c, 2, 83, 0
4, 51630, Note_on_c, 2, 84, 115
4, 51633, Note_on_c, 2, 81, 0
4, 51660, Note_on_c, 2, 83, 123
4, 51663, Note_on_c, 2, 84, 0
4, 51718, Note_on_c, 2, 83, 0
4, 51870, Note_on_c, 2, 83, 110
4, 51900, Note_on_c, 2, 81, 110
4, 51904, Note_on_c, 2, 83, 0
4, 51930, Note_on_c, 2, 79, 92
4, 51932, Note_on_c, 2, 81, 0
4, 51960, Note_on_c, 2, 78, 101
4, 51964, Note_on_c, 2, 79, 0
4, 51990, Note_on_c, 2, 81, 95
4, 51994, Note_on_c, 2, 78, 0
4, 52016, Note_on_c, 2, 81, 0
4, 52020, Note_on_c, 2, 79, 95
4, 52075, Note_on_c, 2, 79, 0
4, 52230, Note_on_c, 2, 88, 110
4, 52260, Note_on_c, 2, 86, 112
4, 52267, Note_on_c, 2, 88, 0
4, 52290, Note_on_c, 2, 84, 117
4, 52294, Note_on_c, 2, 86, 0
4, 52320, Note_on_c, 2, 83, 115
4, 52323, Note_on_c, 2, 84, 0
4, 52350, Note_on_c, 2, 86, 115
4, 52351, Note_on_c, 2, 83, 0
4, 52375, Note_on_c, 2, 86, 0
4, 52380, Note_on_c, 2, 84, 120
4, 52426, Note_on_c, 2, 84, 0
4, 52439, Note_on_c, 2, 86, 115
4, 52451, Note_on_c, 2, 85, 115
4, 52453, Note_on_c, 2, 86, 0
4, 52464, Note_on_c, 2, 86, 101
4, 52465, Note_on_c, 2, 85, 0
4, 52476, Note_on_c, 2, 85, 105
4, 52479, Note_on_c, 2, 86, 0
4, 52489, Note_on_c, 2, 86, 97
4, 52490, Note_on_c, 2, 85, 0
4, 52495, Note_on_c, 2, 85, 92
4, 52497, Note_on_c, 2, 86, 0
4, 52504, Note_on_c, 2, 86, 86
4, 52509, Note_on_c, 2, 85, 0
4, 52517, Note_on_c, 2, 85, 67
4, 52519, Note_on_c, 2, 86, 0
4, 52531, Note_on_c, 2, 83, 110
4, 52534, Note_on_c, 2, 85, 0
4, 52547, Note_on_c, 2, 85, 110
4, 52552, Note_on_c, 2, 83, 0
4, 52560, Note_on_c, 2, 86, 115
4, 52567, Note_on_c, 2, 85, 0
4, 52583, Note_on_c, 2, 86, 0
4, 52590, Note_on_c, 2, 86, 112
4, 52620, Note_on_c, 2, 84, 112
4, 52623, Note_on_c, 2, 86, 0
4, 52650, Note_on_c, 2, 83, 123
4, 52653, Note_on_c, 2, 84, 0
4, 52680, Note_on_c, 2, 81, 115
4, 52684, Note_on_c, 2, 83, 0
4, 52710, Note_on_c, 2, 84, 117
4, 52712, Note_on_c, 2, 81, 0
4, 52740, Note_on_c, 2, 83, 117
4, 52742, Note_on_c, 2, 84, 0
4, 52785, Note_on_c, 2, 83, 0
4, 52800, Note_on_c, 2, 79, 115
4, 52830, Note_on_c, 2, 78, 117
4, 52831, Note_on_c, 2, 79, 0
4, 52855, Note_on_c, 2, 78, 0
4, 52860, Note_on_c, 2, 79, 112
4, 52954, Note_on_c, 2, 79, 0
4, 52980, Note_on_c, 2, 78, 123
4, 53010, Note_on_c, 2, 76, 112
4, 53014, Note_on_c, 2, 78, 0
4, 53037, Note_on_c, 2, 76, 0
4, 53040, Note_on_c, 2, 78, 120
4, 53137, Note_on_c, 2, 78, 0
4, 53160, Note_on_c, 2, 76, 108
4, 53190, Note_on_c, 2, 74, 97
4, 53191, Note_on_c, 2, 76, 0
4, 53216, Note_on_c, 2, 74, 0
4, 53220, Note_on_c, 2, 76, 123
4, 53295, Note_on_c, 2, 76, 0
4, 53310, Note_on_c, 2, 76, 115
4, 53340, Note_on_c, 2, 74, 117
4, 53344, Note_on_c, 2, 76, 0
4, 53370, Note_on_c, 2, 76, 112
4, 53372, Note_on_c, 2, 74, 0
4, 53400, Note_on_c, 2, 78, 126
4, 53409, Note_on_c, 2, 76, 0
4, 53430, Note_on_c, 2, 78, 0
4, 53430, Note_on_c, 2, 74, 123
4, 53459, Note_on_c, 2, 74, 0
4, 53460, Note_on_c, 2, 71, 110
4, 53490, Note_on_c, 2, 74, 112
4, 53493, Note_on_c, 2, 71, 0
4, 53520, Note_on_c, 2, 73, 117
4, 53522, Note_on_c, 2, 74, 0
4, 53550, Note_on_c, 2, 74, 115
4, 53556, Note_on_c, 2, 73, 0
4, 53580, Note_on_c, 2, 76, 120
4, 53585, Note_on_c, 2, 74, 0
4, 53610, Note_on_c, 2, 73, 123
4, 53616, Note_on_c, 2, 76, 0
4, 53640, Note_on_c, 2, 73, 0
4, 53640, Note_on_c, 2, 70, 123
4, 53691, Note_on_c, 2, 70, 0
4, 53700, Note_on_c, 2, 71, 108
4, 53823, Note_on_c, 2, 71, 0
4, 53850, Note_on_c, 2, 71, 95
4, 53880, Note_on_c, 2, 73, 108
4, 53885, Note_on_c, 2, 71, 0
4, 53910, Note_on_c, 2, 74, 112
4, 53914, Note_on_c, 2, 73, 0
4, 53940, Note_on_c, 2, 76, 110
4, 53946, Note_on_c, 2, 74, 0
4, 53970, Note_on_c, 2, 73, 115
4, 53971, Note_on_c, 2, 76, 0
4, 54000, Note_on_c, 2, 73, 0
4, 54000, Note_on_c, 2, 69, 101
4, 54051, Note_on_c, 2, 69, 0
4, 54060, Note_on_c, 2, 76, 120
4, 54191, Note_on_c, 2, 76, 0
4, 54210, Note_on_c, 2, 76, 101
4, 54240, Note_on_c, 2, 78, 120
4, 54248, Note_on_c, 2, 76, 0
4, 54270, Note_on_c, 2, 79, 112
4, 54274, Note_on_c, 2, 78, 0
4, 54300, Note_on_c, 2, 81, 115
4, 54304, Note_on_c, 2, 79, 0
4, 54330, Note_on_c, 2, 78, 120
4, 54332, Note_on_c, 2, 81, 0
4, 54360, Note_on_c, 2, 74, 108
4, 54363, Note_on_c, 2, 78, 0
4, 54411, Note_on_c, 2, 74, 0
4, 54420, Note_on_c, 2, 79, 115
4, 54554, Note_on_c, 2, 79, 0
4, 54570, Note_on_c, 2, 83, 105
4, 54597, Note_on_c, 2, 83, 0
4, 54600, Note_on_c, 2, 82, 108
4, 54630, Note_on_c, 2, 83, 112
4, 54638, Note_on_c, 2, 82, 0
4, 54660, Note_on_c, 2, 85, 117
4, 54664, Note_on_c, 2, 83, 0
4, 54690, Note_on_c, 2, 82, 120
4, 54694, Note_on_c, 2, 85, 0
4, 54720, Note_on_c, 2, 78, 110
4, 54723, Note_on_c, 2, 82, 0
4, 54758, Note_on_c, 2, 78, 0
4, 54780, Note_on_c, 2, 83, 117
4, 54918, Note_on_c, 2, 83, 0
4, 54930, Note_on_c, 2, 81, 99
4, 54960, Note_on_c, 2, 79, 108
4, 54963, Note_on_c, 2, 81, 0
4, 54990, Note_on_c, 2, 78, 117
4, 54997, Note_on_c, 2, 79, 0
4, 55020, Note_on_c, 2, 76, 99
4, 55021, Note_on_c, 2, 78, 0
4, 55050, Note_on_c, 2, 78, 117
4, 55056, Note_on_c, 2, 76, 0
4, 55065, Note_on_c, 2, 79, 108
4, 55072, Note_on_c, 2, 78, 0
4, 55080, Note_on_c, 2, 81, 112
4, 55081, Note_on_c, 2, 79, 0
4, 55110, Note_on_c, 2, 79, 115
4, 55112, Note_on_c, 2, 81, 0
4, 55140, Note_on_c, 2, 78, 123
4, 55147, Note_on_c, 2, 79, 0
4, 55170, Note_on_c, 2, 76, 108
4, 55174, Note_on_c, 2, 78, 0
4, 55200, Note_on_c, 2, 74, 105
4, 55204, Note_on_c, 2, 76, 0
4, 55230, Note_on_c, 2, 76, 112
4, 55232, Note_on_c, 2, 74, 0
4, 55245, Note_on_c, 2, 78, 117
4, 55255, Note_on_c, 2, 76, 0
4, 55260, Note_on_c, 2, 79, 108
4, 55273, Note_on_c, 2, 78, 0
4, 55276, Note_on_c, 2, 79, 0
4, 55290, Note_on_c, 2, 86, 115
4, 55320, Note_on_c, 2, 85, 112
4, 55322, Note_on_c, 2, 86, 0
4, 55350, Note_on_c, 2, 83, 115
4, 55356, Note_on_c, 2, 85, 0
4, 55380, Note_on_c, 2, 82, 126
4, 55384, Note_on_c, 2, 83, 0
4, 55410, Note_on_c, 2, 82, 0
4, 55410, Note_on_c, 2, 85, 117
4, 55440, Note_on_c, 2, 78, 103
4, 55442, Note_on_c, 2, 85, 0
4, 55470, Note_on_c, 2, 85, 110
4, 55473, Note_on_c, 2, 78, 0
4, 55494, Note_on_c, 2, 85, 0
4, 55500, Note_on_c, 2, 83, 95
4, 55530, Note_on_c, 2, 81, 112
4, 55540, Note_on_c, 2, 83, 0
4, 55560, Note_on_c, 2, 79, 117
4, 55566, Note_on_c, 2, 81, 0
4, 55590, Note_on_c, 2, 79, 0
4, 55590, Note_on_c, 2, 83, 115
4, 55620, Note_on_c, 2, 76, 112
4, 55623, Note_on_c, 2, 83, 0
4, 55835, Note_on_c, 2, 76, 0
4, 55860, Note_on_c, 2, 74, 108
4, 55890, Note_on_c, 2, 73, 115
4, 55892, Note_on_c, 2, 74, 0
4, 55920, Note_on_c, 2, 74, 115
4, 55923, Note_on_c, 2, 73, 0
4, 55968, Note_on_c, 2, 74, 0
4, 55980, Note_on_c, 2, 74, 110
4, 56674, Note_on_c, 2, 74, 0
4, 56700, Note_on_c, 2, 73, 108
4, 56730, Note_on_c, 2, 75, 103
4, 56739, Note_on_c, 2, 73, 0
4, 56760, Note_on_c, 2, 75, 0
4, 56760, Note_on_c, 2, 77, 103
4, 56790, Note_on_c, 2, 78, 110
4, 56791, Note_on_c, 2, 77, 0
4, 56819, Note_on_c, 2, 78, 0
4, 56820, Note_on_c, 2, 77, 105
4, 56850, Note_on_c, 2, 77, 0
4, 56850, Note_on_c, 2, 78, 92
4, 56880, Note_on_c, 2, 80, 115
4, 56884, Note_on_c, 2, 78, 0
4, 56910, Note_on_c, 2, 78, 120
4, 56918, Note_on_c, 2, 80, 0
4, 56940, Note_on_c, 2, 77, 112
4, 56943, Note_on_c, 2, 78, 0
4, 56970, Note_on_c, 2, 78, 115
4, 56974, Note_on_c, 2, 77, 0
4, 57000, Note_on_c, 2, 80, 123
4, 57005, Note_on_c, 2, 78, 0
4, 57079, Note_on_c, 2, 80, 0
4, 57090, Note_on_c, 2, 78, 110
4, 57120, Note_on_c, 2, 77, 101
4, 57122, Note_on_c, 2, 78, 0
4, 57150, Note_on_c, 2, 78, 126
4, 57157, Note_on_c, 2, 77, 0
4, 57180, Note_on_c, 2, 80, 115
4, 57183, Note_on_c, 2, 78, 0
4, 57210, Note_on_c, 2, 78, 126
4, 57211, Note_on_c, 2, 80, 0
4, 57240, Note_on_c, 2, 80, 120
4, 57245, Note_on_c, 2, 78, 0
4, 57270, Note_on_c, 2, 83, 99
4, 57273, Note_on_c, 2, 80, 0
4, 57300, Note_on_c, 2, 81, 117
4, 57305, Note_on_c, 2, 83, 0
4, 57330, Note_on_c, 2, 80, 123
4, 57337, Note_on_c, 2, 81, 0
4, 57360, Note_on_c, 2, 78, 123
4, 57364, Note_on_c, 2, 80, 0
4, 57390, Note_on_c, 2, 80, 112
4, 57395, Note_on_c, 2, 78, 0
4, 57416, Note_on_c, 2, 80, 0
4, 57420, Note_on_c, 2, 76, 115
4, 58133, Note_on_c, 2, 76, 0
4, 58140, Note_on_c, 2, 74, 117
4, 58208, Note_on_c, 2, 74, 0
4, 58320, Note_on_c, 2, 78, 112
4, 58398, Note_on_c, 2, 78, 0
4, 58500, Note_on_c, 2, 78, 117
4, 58553, Note_on_c, 2, 78, 0
4, 58560, Note_on_c, 2, 76, 108
4, 58607, Note_on_c, 2, 76, 0
4, 58620, Note_on_c, 2, 74, 99
4, 58683, Note_on_c, 2, 74, 0
4, 58740, Note_on_c, 2, 74, 112
4, 58760, Note_on_c, 2, 74, 0
4, 58770, Note_on_c, 2, 76, 117
4, 58792, Note_on_c, 2, 76, 0
4, 58800, Note_on_c, 2, 78, 97
4, 58855, Note_on_c, 2, 78, 0
4, 58860, Note_on_c, 2, 76, 99
4, 58918, Note_on_c, 2, 76, 0
4, 58920, Note_on_c, 2, 74, 112
4, 58971, Note_on_c, 2, 74, 0
4, 58980, Note_on_c, 2, 73, 115
4, 59045, Note_on_c, 2, 73, 0
4, 59100, Note_on_c, 2, 73, 108
4, 59124, Note_on_c, 2, 73, 0
4, 59130, Note_on_c, 2, 74, 108
4, 59153, Note_on_c, 2, 74, 0
4, 59160, Note_on_c, 2, 76, 103
4, 59217, Note_on_c, 2, 76, 0
4, 59220, Note_on_c, 2, 74, 105
4, 59266, Note_on_c, 2, 74, 0
4, 59280, Note_on_c, 2, 78, 117
4, 59354, Note_on_c, 2, 78, 0
4, 59400, Note_on_c, 2, 76, 105
4, 59448, Note_on_c, 2, 76, 0
4, 59460, Note_on_c, 2, 83, 108
4, 59540, Note_on_c, 2, 83, 0
4, 59580, Note_on_c, 2, 78, 99
4, 59631, Note_on_c, 2, 78, 0
4, 59640, Note_on_c, 2, 85, 108
4, 59723, Note_on_c, 2, 85, 0
4, 59760, Note_on_c, 2, 79, 101
4, 59798, Note_on_c, 2, 79, 0
4, 59820, Note_on_c, 2, 86, 112
4, 59890, Note_on_c, 2, 86, 0
4, 59940, Note_on_c, 2, 88, 112
4, 59991, Note_on_c, 2, 88, 0
4, 60000, Note_on_c, 2, 82, 103
4, 60053, Note_on_c, 2, 82, 0
4, 60060, Note_on_c, 2, 78, 108
4, 60117, Note_on_c, 2, 78, 0
4, 60120, Note_on_c, 2, 71, 97
4, 60175, Note_on_c, 2, 71, 0
4, 60180, Note_on_c, 2, 78, 117
4, 60254, Note_on_c, 2, 78, 0
4, 60510, Note_on_c, 2, 88, 115
4, 60539, Note_on_c, 2, 88, 0
4, 60540, Note_on_c, 2, 88, 110
4, 60569, Note_on_c, 2, 88, 0
4, 60570, Note_on_c, 2, 83, 108
4, 60599, Note_on_c, 2, 83, 0
4, 60600, Note_on_c, 2, 83, 110
4, 60629, Note_on_c, 2, 83, 0
4, 60630, Note_on_c, 2, 79, 115
4, 60659, Note_on_c, 2, 79, 0
4, 60660, Note_on_c, 2, 79, 99
4, 60689, Note_on_c, 2, 79, 0
4, 60690, Note_on_c, 2, 84, 105
4, 60719, Note_on_c, 2, 84, 0
4, 60720, Note_on_c, 2, 84, 110
4, 60749, Note_on_c, 2, 84, 0
4, 60750, Note_on_c, 2, 79, 97
4, 60779, Note_on_c, 2, 79, 0
4, 60780, Note_on_c, 2, 79, 95
4, 60809, Note_on_c, 2, 79, 0
4, 60810, Note_on_c, 2, 78, 110
4, 60839, Note_on_c, 2, 78, 0
4, 60840, Note_on_c, 2, 78, 117
4, 60869, Note_on_c, 2, 78, 0
4, 60870, Note_on_c, 2, 82, 110
4, 60899, Note_on_c, 2, 82, 0
4, 60900, Note_on_c, 2, 82, 105
4, 60929, Note_on_c, 2, 82, 0
4, 60930, Note_on_c, 2, 78, 97
4, 60959, Note_on_c, 2, 78, 0
4, 60960, Note_on_c, 2, 78, 97
4, 60989, Note_on_c, 2, 78, 0
4, 60990, Note_on_c, 2, 73, 86
4, 61019, Note_on_c, 2, 73, 0
4, 61020, Note_on_c, 2, 74, 95
4, 61049, Note_on_c, 2, 74, 0
4, 61050, Note_on_c, 2, 71, 90
4, 61079, Note_on_c, 2, 71, 0
4, 61080, Note_on_c, 2, 74, 117
4, 61139, Note_on_c, 2, 74, 0
4, 61170, Note_on_c, 2, 76, 112
4, 61199, Note_on_c, 2, 76, 0
4, 61200, Note_on_c, 2, 73, 123
4, 61259, Note_on_c, 2, 73, 0
4, 61290, Note_on_c, 2, 78, 117
4, 61319, Note_on_c, 2, 78, 0
4, 61320, Note_on_c, 2, 74, 103
4, 61379, Note_on_c, 2, 74, 0
4, 61410, Note_on_c, 2, 76, 108
4, 61439, Note_on_c, 2, 76, 0
4, 61440, Note_on_c, 2, 74, 112
4, 61469, Note_on_c, 2, 74, 0
4, 61470, Note_on_c, 2, 73, 112
4, 61499, Note_on_c, 2, 73, 0
4, 61500, Note_on_c, 2, 71, 92
4, 61529, Note_on_c, 2, 71, 0
4, 61530, Note_on_c, 2, 70, 115
4, 61559, Note_on_c, 2, 70, 0
4, 61560, Note_on_c, 2, 71, 97
4, 61589, Note_on_c, 2, 71, 0
4, 61590, Note_on_c, 2, 73, 120
4, 61619, Note_on_c, 2, 73, 0
4, 61620, Note_on_c, 2, 70, 126
4, 61709, Note_on_c, 2, 70, 0
4, 61710, Note_on_c, 2, 71, 97
4, 61739, Note_on_c, 2, 71, 0
4, 61740, Note_on_c, 2, 71, 115
4, 61769, Note_on_c, 2, 71, 0
4, 61770, Note_on_c, 2, 74, 112
4, 61799, Note_on_c, 2, 74, 0
4, 61800, Note_on_c, 2, 74, 112
4, 61829, Note_on_c, 2, 74, 0
4, 61830, Note_on_c, 2, 78, 110
4, 61859, Note_on_c, 2, 78, 0
4, 61860, Note_on_c, 2, 78, 115
4, 61889, Note_on_c, 2, 78, 0
4, 61890, Note_on_c, 2, 83, 101
4, 61919, Note_on_c, 2, 83, 0
4, 61920, Note_on_c, 2, 83, 115
4, 62069, Note_on_c, 2, 83, 0
4, 62100, Note_on_c, 2, 83, 99
4, 62130, Note_on_c, 2, 86, 99
4, 62132, Note_on_c, 2, 83, 0
4, 62160, Note_on_c, 2, 91, 112
4, 62161, Note_on_c, 2, 86, 0
4, 62190, Note_on_c, 2, 86, 112
4, 62192, Note_on_c, 2, 91, 0
4, 62220, Note_on_c, 2, 83, 117
4, 62223, Note_on_c, 2, 86, 0
4, 62249, Note_on_c, 2, 83, 0
4, 62250, Note_on_c, 2, 79, 99
4, 62272, Note_on_c, 2, 79, 0
4, 62280, Note_on_c, 2, 78, 120
4, 62310, Note_on_c, 2, 78, 0
4, 62310, Note_on_c, 2, 81, 110
4, 62340, Note_on_c, 2, 86, 120
4, 62341, Note_on_c, 2, 81, 0
4, 62370, Note_on_c, 2, 81, 110
4, 62372, Note_on_c, 2, 86, 0
4, 62400, Note_on_c, 2, 78, 117
4, 62402, Note_on_c, 2, 81, 0
4, 62429, Note_on_c, 2, 78, 0
4, 62430, Note_on_c, 2, 74, 90
4, 62453, Note_on_c, 2, 74, 0
4, 62460, Note_on_c, 2, 83, 110
4, 62506, Note_on_c, 2, 83, 0
4, 62520, Note_on_c, 2, 81, 103
4, 62566, Note_on_c, 2, 81, 0
4, 62580, Note_on_c, 2, 79, 95
4, 62636, Note_on_c, 2, 79, 0
4, 62700, Note_on_c, 2, 79, 110
4, 62723, Note_on_c, 2, 79, 0
4, 62730, Note_on_c, 2, 81, 88
4, 62752, Note_on_c, 2, 81, 0
4, 62760, Note_on_c, 2, 83, 112
4, 62808, Note_on_c, 2, 83, 0
4, 62820, Note_on_c, 2, 81, 110
4, 62869, Note_on_c, 2, 81, 0
4, 62880, Note_on_c, 2, 79, 95
4, 62929, Note_on_c, 2, 79, 0
4, 62940, Note_on_c, 2, 78, 110
4, 63009, Note_on_c, 2, 78, 0
4, 63060, Note_on_c, 2, 78, 110
4, 63084, Note_on_c, 2, 78, 0
4, 63090, Note_on_c, 2, 79, 105
4, 63113, Note_on_c, 2, 79, 0
4, 63120, Note_on_c, 2, 81, 112
4, 63171, Note_on_c, 2, 81, 0
4, 63180, Note_on_c, 2, 74, 108
4, 63599, Note_on_c, 2, 74, 0
4, 63600, Note_on_c, 2, 72, 115
4, 63647, Note_on_c, 2, 72, 0
4, 63660, Note_on_c, 2, 71, 112
4, 63722, Note_on_c, 2, 71, 0
4, 63780, Note_on_c, 2, 71, 112
4, 63804, Note_on_c, 2, 71, 0
4, 63810, Note_on_c, 2, 72, 115
4, 63833, Note_on_c, 2, 72, 0
4, 63840, Note_on_c, 2, 74, 108
4, 63890, Note_on_c, 2, 74, 0
4, 63900, Note_on_c, 2, 72, 110
4, 63959, Note_on_c, 2, 72, 0
4, 63960, Note_on_c, 2, 71, 112
4, 64014, Note_on_c, 2, 71, 0
4, 64020, Note_on_c, 2, 69, 112
4, 64087, Note_on_c, 2, 69, 0
4, 64140, Note_on_c, 2, 69, 95
4, 64170, Note_on_c, 2, 71, 123
4, 64171, Note_on_c, 2, 69, 0
4, 64200, Note_on_c, 2, 72, 112
4, 64202, Note_on_c, 2, 71, 0
4, 64241, Note_on_c, 2, 72, 0
4, 64260, Note_on_c, 2, 71, 92
4, 64290, Note_on_c, 2, 74, 95
4, 64293, Note_on_c, 2, 71, 0
4, 64320, Note_on_c, 2, 76, 115
4, 64327, Note_on_c, 2, 74, 0
4, 64350, Note_on_c, 2, 78, 117
4, 64362, Note_on_c, 2, 76, 0
4, 64377, Note_on_c, 2, 78, 0
4, 64380, Note_on_c, 2, 79, 110
4, 64406, Note_on_c, 2, 79, 0
4, 64410, Note_on_c, 2, 81, 112
4, 64436, Note_on_c, 2, 81, 0
4, 64440, Note_on_c, 2, 83, 115
4, 64470, Note_on_c, 2, 79, 101
4, 64472, Note_on_c, 2, 83, 0
4, 64500, Note_on_c, 2, 76, 103
4, 64507, Note_on_c, 2, 79, 0
4, 64530, Note_on_c, 2, 71, 108
4, 64533, Note_on_c, 2, 76, 0
4, 64560, Note_on_c, 2, 76, 108
4, 64566, Note_on_c, 2, 71, 0
4, 64589, Note_on_c, 2, 76, 0
4, 64590, Note_on_c, 2, 79, 110
4, 64620, Note_on_c, 2, 73, 115
4, 64621, Note_on_c, 2, 79, 0
4, 64669, Note_on_c, 2, 73, 0
4, 64680, Note_on_c, 2, 81, 117
4, 64997, Note_on_c, 2, 81, 0
4, 65010, Note_on_c, 2, 78, 117
4, 65040, Note_on_c, 2, 78, 0
4, 65040, Note_on_c, 2, 79, 99
4, 65070, Note_on_c, 2, 81, 112
4, 65072, Note_on_c, 2, 79, 0
4, 65100, Note_on_c, 2, 83, 120
4, 65108, Note_on_c, 2, 81, 0
4, 65130, Note_on_c, 2, 84, 120
4, 65138, Note_on_c, 2, 83, 0
4, 65158, Note_on_c, 2, 84, 0
4, 65160, Note_on_c, 2, 86, 117
4, 65190, Note_on_c, 2, 83, 108
4, 65196, Note_on_c, 2, 86, 0
4, 65220, Note_on_c, 2, 79, 110
4, 65226, Note_on_c, 2, 83, 0
4, 65250, Note_on_c, 2, 74, 97
4, 65251, Note_on_c, 2, 79, 0
4, 65280, Note_on_c, 2, 79, 117
4, 65287, Note_on_c, 2, 74, 0
4, 65310, Note_on_c, 2, 83, 117
4, 65311, Note_on_c, 2, 79, 0
4, 65340, Note_on_c, 2, 83, 0
4, 65340, Note_on_c, 2, 79, 127
4, 65902, Note_on_c, 2, 79, 0
4, 65910, Note_on_c, 2, 69, 117
4, 65930, Note_on_c, 2, 69, 0
4, 65940, Note_on_c, 2, 69, 115
4, 65968, Note_on_c, 2, 69, 0
4, 65970, Note_on_c, 2, 73, 112
4, 65991, Note_on_c, 2, 73, 0
4, 66000, Note_on_c, 2, 73, 112
4, 66028, Note_on_c, 2, 73, 0
4, 66030, Note_on_c, 2, 76, 99
4, 66060, Note_on_c, 2, 76, 0
4, 66060, Note_on_c, 2, 74, 123
4, 66090, Note_on_c, 2, 78, 123
4, 66092, Note_on_c, 2, 74, 0
4, 66120, Note_on_c, 2, 81, 117
4, 66122, Note_on_c, 2, 78, 0
4, 66150, Note_on_c, 2, 78, 120
4, 66156, Note_on_c, 2, 81, 0
4, 66180, Note_on_c, 2, 74, 117
4, 66181, Note_on_c, 2, 78, 0
4, 66210, Note_on_c, 2, 78, 112
4, 66213, Note_on_c, 2, 74, 0
4, 66240, Note_on_c, 2, 76, 115
4, 66243, Note_on_c, 2, 78, 0
4, 66270, Note_on_c, 2, 73, 117
4, 66275, Note_on_c, 2, 76, 0
4, 66300, Note_on_c, 2, 69, 110
4, 66302, Note_on_c, 2, 73, 0
4, 66330, Note_on_c, 2, 73, 123
4, 66334, Note_on_c, 2, 69, 0
4, 66360, Note_on_c, 2, 76, 112
4, 66364, Note_on_c, 2, 73, 0
4, 66390, Note_on_c, 2, 79, 115
4, 66392, Note_on_c, 2, 76, 0
4, 66413, Note_on_c, 2, 79, 0
4, 66420, Note_on_c, 2, 78, 123
4, 66470, Note_on_c, 2, 78, 0
4, 66480, Note_on_c, 2, 76, 112
4, 66527, Note_on_c, 2, 76, 0
4, 66540, Note_on_c, 2, 74, 120
4, 66607, Note_on_c, 2, 74, 0
4, 66660, Note_on_c, 2, 74, 112
4, 66690, Note_on_c, 2, 76, 115
4, 66691, Note_on_c, 2, 74, 0
4, 66713, Note_on_c, 2, 76, 0
4, 66720, Note_on_c, 2, 78, 115
4, 66766, Note_on_c, 2, 78, 0
4, 66780, Note_on_c, 2, 76, 112
4, 66834, Note_on_c, 2, 76, 0
4, 66840, Note_on_c, 2, 74, 110
4, 66891, Note_on_c, 2, 74, 0
4, 66900, Note_on_c, 2, 73, 120
4, 66965, Note_on_c, 2, 73, 0
4, 67020, Note_on_c, 2, 73, 115
4, 67045, Note_on_c, 2, 73, 0
4, 67050, Note_on_c, 2, 74, 117
4, 67077, Note_on_c, 2, 74, 0
4, 67080, Note_on_c, 2, 76, 108
4, 67129, Note_on_c, 2, 76, 0
4, 67140, Note_on_c, 2, 74, 115
4, 67222, Note_on_c, 2, 74, 0
4, 67320, Note_on_c, 2, 73, 120
4, 67399, Note_on_c, 2, 73, 0
4, 67500, Note_on_c, 2, 74, 97
4, 67562, Note_on_c, 2, 74, 0
4, 68280, Note_on_c, 2, 78, 117
4, 68310, Note_on_c, 2, 79, 115
4, 68311, Note_on_c, 2, 78, 0
4, 68340, Note_on_c, 2, 78, 126
4, 68345, Note_on_c, 2, 79, 0
4, 68363, Note_on_c, 2, 78, 0
4, 68370, Note_on_c, 2, 79, 117
4, 68393, Note_on_c, 2, 79, 0
4, 68400, Note_on_c, 2, 81, 115
4, 68430, Note_on_c, 2, 79, 127
4, 68436, Note_on_c, 2, 81, 0
4, 68460, Note_on_c, 2, 78, 123
4, 68461, Note_on_c, 2, 79, 0
4, 68485, Note_on_c, 2, 78, 0
4, 68490, Note_on_c, 2, 79, 126
4, 68511, Note_on_c, 2, 79, 0
4, 68520, Note_on_c, 2, 81, 117
4, 68606, Note_on_c, 2, 81, 0
4, 68610, Note_on_c, 2, 79, 120
4, 68638, Note_on_c, 2, 79, 0
4, 68640, Note_on_c, 2, 78, 123
4, 68664, Note_on_c, 2, 78, 0
4, 68670, Note_on_c, 2, 79, 115
4, 68700, Note_on_c, 2, 81, 117
4, 68707, Note_on_c, 2, 79, 0
4, 68728, Note_on_c, 2, 81, 0
4, 68730, Note_on_c, 2, 79, 115
4, 68760, Note_on_c, 2, 81, 120
4, 68764, Note_on_c, 2, 79, 0
4, 68790, Note_on_c, 2, 84, 123
4, 68792, Note_on_c, 2, 81, 0
4, 68820, Note_on_c, 2, 83, 115
4, 68827, Note_on_c, 2, 84, 0
4, 68849, Note_on_c, 2, 81, 117
4, 68856, Note_on_c, 2, 83, 0
4, 68880, Note_on_c, 2, 81, 0
4, 68880, Note_on_c, 2, 79, 105
4, 68910, Note_on_c, 2, 78, 126
4, 68915, Note_on_c, 2, 79, 0
4, 68938, Note_on_c, 2, 78, 0
4, 68940, Note_on_c, 2, 79, 112
4, 69000, Note_on_c, 2, 74, 95
4, 69006, Note_on_c, 2, 79, 0
4, 69030, Note_on_c, 2, 76, 120
4, 69032, Note_on_c, 2, 74, 0
4, 69060, Note_on_c, 2, 74, 110
4, 69064, Note_on_c, 2, 76, 0
4, 69090, Note_on_c, 2, 74, 0
4, 69090, Note_on_c, 2, 76, 123
4, 69120, Note_on_c, 2, 77, 112
4, 69120, Note_on_c, 2, 77, 120
4, 69125, Note_on_c, 2, 76, 0
4, 69150, Note_on_c, 2, 76, 127
4, 69159, Note_on_c, 2, 77, 0
4, 69160, Note_on_c, 2, 77, 0
4, 69180, Note_on_c, 2, 74, 120
4, 69183, Note_on_c, 2, 76, 0
4, 69210, Note_on_c, 2, 76, 123
4, 69220, Note_on_c, 2, 74, 0
4, 69240, Note_on_c, 2, 77, 117
4, 69244, Note_on_c, 2, 76, 0
4, 69327, Note_on_c, 2, 77, 0
4, 69330, Note_on_c, 2, 76, 110
4, 69356, Note_on_c, 2, 76, 0
4, 69360, Note_on_c, 2, 74, 97
4, 69390, Note_on_c, 2, 76, 123
4, 69393, Note_on_c, 2, 74, 0
4, 69420, Note_on_c, 2, 77, 112
4, 69427, Note_on_c, 2, 76, 0
4, 69450, Note_on_c, 2, 76, 126
4, 69458, Note_on_c, 2, 77, 0
4, 69480, Note_on_c, 2, 77, 115
4, 69485, Note_on_c, 2, 76, 0
4, 69510, Note_on_c, 2, 77, 0
4, 69510, Note_on_c, 2, 81, 105
4, 69540, Note_on_c, 2, 79, 108
4, 69549, Note_on_c, 2, 81, 0
4, 69570, Note_on_c, 2, 77, 112
4, 69574, Note_on_c, 2, 79, 0
4, 69600, Note_on_c, 2, 76, 115
4, 69607, Note_on_c, 2, 77, 0
4, 69630, Note_on_c, 2, 74, 97
4, 69633, Note_on_c, 2, 76, 0
4, 69655, Note_on_c, 2, 74, 0
4, 69660, Note_on_c, 2, 76, 115
4, 69696, Note_on_c, 2, 76, 0
4, 69720, Note_on_c, 2, 79, 108
4, 69754, Note_on_c, 2, 79, 0
4, 69780, Note_on_c, 2, 84, 115
4, 69888, Note_on_c, 2, 84, 0
4, 69900, Note_on_c, 2, 83, 112
4, 69930, Note_on_c, 2, 83, 0
4, 69930, Note_on_c, 2, 81, 117
4, 69953, Note_on_c, 2, 81, 0
4, 69960, Note_on_c, 2, 83, 110
4, 70056, Note_on_c, 2, 83, 0
4, 70080, Note_on_c, 2, 81, 105
4, 70110, Note_on_c, 2, 79, 112
4, 70113, Note_on_c, 2, 81, 0
4, 70136, Note_on_c, 2, 79, 0
4, 70140, Note_on_c, 2, 81, 117
4, 70242, Note_on_c, 2, 81, 0
4, 70260, Note_on_c, 2, 79, 115
4, 70290, Note_on_c, 2, 78, 115
4, 70292, Note_on_c, 2, 79, 0
4, 70315, Note_on_c, 2, 78, 0
4, 70320, Note_on_c, 2, 79, 110
4, 70415, Note_on_c, 2, 79, 0
4, 70440, Note_on_c, 2, 84, 117
4, 70746, Note_on_c, 2, 84, 0
4, 70770, Note_on_c, 2, 81, 90
4, 70800, Note_on_c, 2, 83, 115
4, 70802, Note_on_c, 2, 81, 0
4, 70830, Note_on_c, 2, 84, 117
4, 70837, Note_on_c, 2, 83, 0
4, 70860, Note_on_c, 2, 86, 115
4, 70864, Note_on_c, 2, 84, 0
4, 70890, Note_on_c, 2, 88, 120
4, 70896, Note_on_c, 2, 86, 0
4, 70920, Note_on_c, 2, 78, 126
4, 70924, Note_on_c, 2, 88, 0
4, 70950, Note_on_c, 2, 78, 0
4, 70950, Note_on_c, 2, 86, 101
4, 70980, Note_on_c, 2, 83, 117
4, 71003, Note_on_c, 2, 83, 0
4, 71003, Note_on_c, 2, 86, 0
4, 71010, Note_on_c, 2, 78, 120
4, 71039, Note_on_c, 2, 78, 0
4, 71040, Note_on_c, 2, 83, 108
4, 71070, Note_on_c, 2, 86, 115
4, 71075, Note_on_c, 2, 83, 0
4, 71100, Note_on_c, 2, 79, 110
4, 71101, Note_on_c, 2, 86, 0
4, 71145, Note_on_c, 2, 79, 0
4, 71160, Note_on_c, 2, 88, 117
4, 71491, Note_on_c, 2, 88, 0
4, 71520, Note_on_c, 2, 84, 110
4, 71580, Note_on_c, 2, 84, 0
4, 71580, Note_on_c, 2, 88, 110
4, 71640, Note_on_c, 2, 81, 112
4, 71641, Note_on_c, 2, 88, 0
4, 71841, Note_on_c, 2, 81, 0
4, 71850, Note_on_c, 2, 74, 112
4, 71872, Note_on_c, 2, 74, 0
4, 71880, Note_on_c, 2, 74, 103
4, 71909, Note_on_c, 2, 74, 0
4, 71910, Note_on_c, 2, 78, 112
4, 71932, Note_on_c, 2, 78, 0
4, 71940, Note_on_c, 2, 78, 92
4, 71967, Note_on_c, 2, 78, 0
4, 71970, Note_on_c, 2, 81, 108
4, 71996, Note_on_c, 2, 81, 0
4, 72000, Note_on_c, 2, 81, 115
4, 72028, Note_on_c, 2, 81, 0
4, 72030, Note_on_c, 2, 86, 115
4, 72052, Note_on_c, 2, 86, 0
4, 72060, Note_on_c, 2, 86, 110
4, 72089, Note_on_c, 2, 86, 0
4, 72090, Note_on_c, 2, 81, 115
4, 72109, Note_on_c, 2, 81, 0
4, 72120, Note_on_c, 2, 81, 99
4, 72150, Note_on_c, 2, 78, 120
4, 72151, Note_on_c, 2, 81, 0
4, 72180, Note_on_c, 2, 79, 108
4, 72182, Note_on_c, 2, 78, 0
4, 72210, Note_on_c, 2, 83, 115
4, 72213, Note_on_c, 2, 79, 0
4, 72240, Note_on_c, 2, 86, 123
4, 72243, Note_on_c, 2, 83, 0
4, 72270, Note_on_c, 2, 83, 112
4, 72275, Note_on_c, 2, 86, 0
4, 72300, Note_on_c, 2, 79, 126
4, 72305, Note_on_c, 2, 83, 0
4, 72330, Note_on_c, 2, 83, 115
4, 72332, Note_on_c, 2, 79, 0
4, 72360, Note_on_c, 2, 81, 115
4, 72367, Note_on_c, 2, 83, 0
4, 72390, Note_on_c, 2, 78, 117
4, 72394, Note_on_c, 2, 81, 0
4, 72420, Note_on_c, 2, 74, 92
4, 72422, Note_on_c, 2, 78, 0
4, 72450, Note_on_c, 2, 78, 120
4, 72455, Note_on_c, 2, 74, 0
4, 72480, Note_on_c, 2, 81, 101
4, 72482, Note_on_c, 2, 78, 0
4, 72510, Note_on_c, 2, 84, 115
4, 72514, Note_on_c, 2, 81, 0
4, 72540, Note_on_c, 2, 83, 108
4, 72546, Note_on_c, 2, 84, 0
4, 72597, Note_on_c, 2, 83, 0
4, 72600, Note_on_c, 2, 81, 115
4, 72645, Note_on_c, 2, 81, 0
4, 72660, Note_on_c, 2, 79, 112
4, 72718, Note_on_c, 2, 79, 0
4, 72780, Note_on_c, 2, 79, 112
4, 72803, Note_on_c, 2, 79, 0
4, 72810, Note_on_c, 2, 81, 115
4, 72835, Note_on_c, 2, 81, 0
4, 72840, Note_on_c, 2, 83, 110
4, 72886, Note_on_c, 2, 83, 0
4, 72900, Note_on_c, 2, 81, 112
4, 72954, Note_on_c, 2, 81, 0
4, 72960, Note_on_c, 2, 79, 112
4, 73010, Note_on_c, 2, 79, 0
4, 73020, Note_on_c, 2, 78, 115
4, 73086, Note_on_c, 2, 78, 0
4, 73140, Note_on_c, 2, 78, 110
4, 73165, Note_on_c, 2, 78, 0
4, 73170, Note_on_c, 2, 79, 112
4, 73196, Note_on_c, 2, 79, 0
4, 73200, Note_on_c, 2, 81, 112
4, 73252, Note_on_c, 2, 81, 0
4, 73260, Note_on_c, 2, 74, 108
4, 73668, Note_on_c, 2, 74, 0
4, 73680, Note_on_c, 2, 72, 110
4, 73726, Note_on_c, 2, 72, 0
4, 73740, Note_on_c, 2, 71, 115
4, 73802, Note_on_c, 2, 71, 0
4, 73860, Note_on_c, 2, 71, 112
4, 73882, Note_on_c, 2, 71, 0
4, 73890, Note_on_c, 2, 72, 115
4, 73912, Note_on_c, 2, 72, 0
4, 73920, Note_on_c, 2, 74, 97
4, 73969, Note_on_c, 2, 74, 0
4, 73980, Note_on_c, 2, 72, 112
4, 74033, Note_on_c, 2, 72, 0
4, 74040, Note_on_c, 2, 71, 108
4, 74094, Note_on_c, 2, 71, 0
4, 74100, Note_on_c, 2, 69, 108
4, 74171, Note_on_c, 2, 69, 0
4, 74220, Note_on_c, 2, 69, 95
4, 74246, Note_on_c, 2, 69, 0
4, 74250, Note_on_c, 2, 71, 115
4, 74280, Note_on_c, 2, 71, 0
4, 74280, Note_on_c, 2, 72, 115
4, 74335, Note_on_c, 2, 72, 0
4, 74340, Note_on_c, 2, 71, 112
4, 74390, Note_on_c, 2, 71, 0
4, 74400, Note_on_c, 2, 71, 112
4, 74424, Note_on_c, 2, 71, 0
4, 74430, Note_on_c, 2, 72, 117
4, 74450, Note_on_c, 2, 72, 0
4, 74460, Note_on_c, 2, 74, 101
4, 74571, Note_on_c, 2, 74, 0
4, 74580, Note_on_c, 2, 72, 117
4, 74603, Note_on_c, 2, 72, 0
4, 74610, Note_on_c, 2, 74, 110
4, 74630, Note_on_c, 2, 74, 0
4, 74640, Note_on_c, 2, 76, 112
4, 74755, Note_on_c, 2, 76, 0
4, 74760, Note_on_c, 2, 74, 112
4, 74783, Note_on_c, 2, 74, 0
4, 74790, Note_on_c, 2, 76, 115
4, 74811, Note_on_c, 2, 76, 0
4, 74820, Note_on_c, 2, 78, 103
4, 74936, Note_on_c, 2, 78, 0
4, 74940, Note_on_c, 2, 76, 92
4, 74963, Note_on_c, 2, 76, 0
4, 74970, Note_on_c, 2, 78, 117
4, 74993, Note_on_c, 2, 78, 0
4, 75000, Note_on_c, 2, 79, 112
4, 75106, Note_on_c, 2, 79, 0
4, 75120, Note_on_c, 2, 78, 120
4, 75142, Note_on_c, 2, 78, 0
4, 75150, Note_on_c, 2, 79, 110
4, 75177, Note_on_c, 2, 79, 0
4, 75180, Note_on_c, 2, 81, 117
4, 75295, Note_on_c, 2, 81, 0
4, 75300, Note_on_c, 2, 79, 108
4, 75323, Note_on_c, 2, 79, 0
4, 75330, Note_on_c, 2, 81, 112
4, 75350, Note_on_c, 2, 81, 0
4, 75360, Note_on_c, 2, 83, 112
4, 75429, Note_on_c, 2, 83, 0
4, 75450, Note_on_c, 2, 72, 101
4, 75480, Note_on_c, 2, 74, 117
4, 75486, Note_on_c, 2, 72, 0
4, 75510, Note_on_c, 2, 76, 115
4, 75513, Note_on_c, 2, 74, 0
4, 75540, Note_on_c, 2, 77, 99
4, 75549, Note_on_c, 2, 76, 0
4, 75565, Note_on_c, 2, 77, 0
4, 75570, Note_on_c, 2, 74, 88
4, 75600, Note_on_c, 2, 79, 112
4, 75605, Note_on_c, 2, 74, 0
4, 75630, Note_on_c, 2, 84, 112
4, 75632, Note_on_c, 2, 79, 0
4, 75652, Note_on_c, 2, 84, 0
4, 75660, Note_on_c, 2, 84, 117
4, 75690, Note_on_c, 2, 79, 110
4, 75694, Note_on_c, 2, 84, 0
4, 75712, Note_on_c, 2, 79, 0
4, 75720, Note_on_c, 2, 79, 108
4, 75750, Note_on_c, 2, 79, 0
4, 75750, Note_on_c, 2, 76, 115
4, 75772, Note_on_c, 2, 76, 0
4, 75780, Note_on_c, 2, 76, 110
4, 75810, Note_on_c, 2, 76, 0
4, 75810, Note_on_c, 2, 81, 108
4, 75832, Note_on_c, 2, 81, 0
4, 75840, Note_on_c, 2, 81, 110
4, 75870, Note_on_c, 2, 76, 105
4, 75874, Note_on_c, 2, 81, 0
4, 75890, Note_on_c, 2, 76, 0
4, 75900, Note_on_c, 2, 76, 103
4, 75930, Note_on_c, 2, 74, 110
4, 75933, Note_on_c, 2, 76, 0
4, 75951, Note_on_c, 2, 74, 0
4, 75960, Note_on_c, 2, 74, 112
4, 75990, Note_on_c, 2, 78, 108
4, 75995, Note_on_c, 2, 74, 0
4, 76010, Note_on_c, 2, 78, 0
4, 76020, Note_on_c, 2, 78, 105
4, 76048, Note_on_c, 2, 78, 0
4, 76050, Note_on_c, 2, 74, 95
4, 76073, Note_on_c, 2, 74, 0
4, 76080, Note_on_c, 2, 74, 101
4, 76110, Note_on_c, 2, 78, 112
4, 76115, Note_on_c, 2, 74, 0
4, 76132, Note_on_c, 2, 78, 0
4, 76140, Note_on_c, 2, 79, 110
4, 76204, Note_on_c, 2, 79, 0
4, 76230, Note_on_c, 2, 83, 105
4, 76251, Note_on_c, 2, 83, 0
4, 76260, Note_on_c, 2, 81, 115
4, 76260, Note_on_c, 2, 83, 67
4, 76261, Note_on_c, 2, 83, 0
4, 76324, Note_on_c, 2, 81, 0
4, 76350, Note_on_c, 2, 78, 120
4, 76368, Note_on_c, 2, 78, 0
4, 76380, Note_on_c, 2, 79, 115
4, 76441, Note_on_c, 2, 79, 0
4, 76470, Note_on_c, 2, 79, 99
4, 76497, Note_on_c, 2, 79, 0
4, 76500, Note_on_c, 2, 76, 117
4, 76554, Note_on_c, 2, 76, 0
4, 76590, Note_on_c, 2, 69, 97
4, 76610, Note_on_c, 2, 69, 0
4, 76620, Note_on_c, 2, 76, 120
4, 76691, Note_on_c, 2, 76, 0
4, 76710, Note_on_c, 2, 76, 112
4, 76734, Note_on_c, 2, 76, 0
4, 76740, Note_on_c, 2, 74, 110
4, 76800, Note_on_c, 2, 72, 123
4, 76801, Note_on_c, 2, 74, 0
4, 76860, Note_on_c, 2, 71, 123
4, 76861, Note_on_c, 2, 72, 0
4, 77035, Note_on_c, 2, 71, 0
4, 77035, End_track
5, 0, Start_track
5, 0, MIDI_port, 0
5, 0, Title_t, "Vn sec 1"
5, 0, Program_c, 3, 48
5, 0, Control_c, 3, 7, 90
5, 0, Control_c, 3, 10, 10
5, 180, Note_on_c, 3, 79, 113
5, 258, Note_on_c, 3, 79, 0
5, 360, Note_on_c, 3, 81, 107
5, 418, Note_on_c, 3, 81, 0
5, 540, Note_on_c, 3, 83, 107
5, 604, Note_on_c, 3, 83, 0
5, 1260, Note_on_c, 3, 79, 113
5, 1332, Note_on_c, 3, 79, 0
5, 1440, Note_on_c, 3, 81, 110
5, 1502, Note_on_c, 3, 81, 0
5, 1620, Note_on_c, 3, 83, 102
5, 1687, Note_on_c, 3, 83, 0
5, 2550, Note_on_c, 3, 83, 102
5, 2569, Note_on_c, 3, 83, 0
5, 2580, Note_on_c, 3, 83, 100
5, 2600, Note_on_c, 3, 83, 0
5, 2610, Note_on_c, 3, 79, 102
5, 2629, Note_on_c, 3, 79, 0
5, 2640, Note_on_c, 3, 79, 98
5, 2667, Note_on_c, 3, 79, 0
5, 2670, Note_on_c, 3, 76, 91
5, 2692, Note_on_c, 3, 76, 0
5, 2700, Note_on_c, 3, 73, 95
5, 2787, Note_on_c, 3, 73, 0
5, 2910, Note_on_c, 3, 85, 102
5, 2926, Note_on_c, 3, 85, 0
5, 2940, Note_on_c, 3, 85, 100
5, 2966, Note_on_c, 3, 85, 0
5, 2970, Note_on_c, 3, 81, 85
5, 2986, Note_on_c, 3, 81, 0
5, 3000, Note_on_c, 3, 81, 85
5, 3019, Note_on_c, 3, 81, 0
5, 3030, Note_on_c, 3, 78, 91
5, 3056, Note_on_c, 3, 78, 0
5, 3060, Note_on_c, 3, 74, 98
5, 3149, Note_on_c, 3, 74, 0
5, 3270, Note_on_c, 3, 86, 102
5, 3287, Note_on_c, 3, 86, 0
5, 3300, Note_on_c, 3, 86, 105
5, 3322, Note_on_c, 3, 86, 0
5, 3330, Note_on_c, 3, 83, 105
5, 3346, Note_on_c, 3, 83, 0
5, 3360, Note_on_c, 3, 83, 89
5, 3382, Note_on_c, 3, 83, 0
5, 3390, Note_on_c, 3, 79, 113
5, 3407, Note_on_c, 3, 79, 0
5, 3420, Note_on_c, 3, 79, 102
5, 3494, Note_on_c, 3, 79, 0
5, 3630, Note_on_c, 3, 79, 105
5, 3650, Note_on_c, 3, 79, 0
5, 3660, Note_on_c, 3, 79, 100
5, 3681, Note_on_c, 3, 79, 0
5, 3690, Note_on_c, 3, 76, 105
5, 3707, Note_on_c, 3, 76, 0
5, 3720, Note_on_c, 3, 76, 98
5, 3741, Note_on_c, 3, 76, 0
5, 3750, Note_on_c, 3, 73, 102
5, 3768, Note_on_c, 3, 73, 0
5, 3780, Note_on_c, 3, 73, 105
5, 3850, Note_on_c, 3, 73, 0
5, 3990, Note_on_c, 3, 64, 102
5, 4009, Note_on_c, 3, 64, 0
5, 4020, Note_on_c, 3, 64, 95
5, 4042, Note_on_c, 3, 64, 0
5, 4050, Note_on_c, 3, 69, 102
5, 4067, Note_on_c, 3, 69, 0
5, 4080, Note_on_c, 3, 69, 102
5, 4102, Note_on_c, 3, 69, 0
5, 4110, Note_on_c, 3, 73, 110
5, 4130, Note_on_c, 3, 73, 0
5, 4140, Note_on_c, 3, 74, 102
5, 4230, Note_on_c, 3, 74, 0
5, 4320, Note_on_c, 3, 76, 110
5, 4402, Note_on_c, 3, 76, 0
5, 4500, Note_on_c, 3, 78, 116
5, 4577, Note_on_c, 3, 78, 0
5, 5220, Note_on_c, 3, 74, 110
5, 5288, Note_on_c, 3, 74, 0
5, 5400, Note_on_c, 3, 76, 113
5, 5458, Note_on_c, 3, 76, 0
5, 5580, Note_on_c, 3, 78, 110
5, 5635, Note_on_c, 3, 78, 0
5, 5640, Note_on_c, 3, 76, 102
5, 5693, Note_on_c, 3, 76, 0
5, 5700, Note_on_c, 3, 74, 100
5, 5768, Note_on_c, 3, 74, 0
5, 5820, Note_on_c, 3, 74, 105
5, 5838, Note_on_c, 3, 74, 0
5, 5850, Note_on_c, 3, 76, 113
5, 5871, Note_on_c, 3, 76, 0
5, 5880, Note_on_c, 3, 78, 110
5, 5935, Note_on_c, 3, 78, 0
5, 5940, Note_on_c, 3, 76, 100
5, 5994, Note_on_c, 3, 76, 0
5, 6000, Note_on_c, 3, 74, 105
5, 6047, Note_on_c, 3, 74, 0
5, 6060, Note_on_c, 3, 73, 107
5, 6124, Note_on_c, 3, 73, 0
5, 6180, Note_on_c, 3, 73, 110
5, 6200, Note_on_c, 3, 73, 0
5, 6210, Note_on_c, 3, 74, 105
5, 6230, Note_on_c, 3, 74, 0
5, 6240, Note_on_c, 3, 76, 102
5, 6286, Note_on_c, 3, 76, 0
5, 6300, Note_on_c, 3, 74, 116
5, 6403, Note_on_c, 3, 74, 0
5, 6690, Note_on_c, 3, 72, 105
5, 6708, Note_on_c, 3, 72, 0
5, 6720, Note_on_c, 3, 72, 98
5, 6742, Note_on_c, 3, 72, 0
5, 6750, Note_on_c, 3, 69, 105
5, 6768, Note_on_c, 3, 69, 0
5, 6780, Note_on_c, 3, 69, 87
5, 6807, Note_on_c, 3, 69, 0
5, 6810, Note_on_c, 3, 66, 105
5, 6828, Note_on_c, 3, 66, 0
5, 6840, Note_on_c, 3, 66, 91
5, 6870, Note_on_c, 3, 62, 102
5, 6872, Note_on_c, 3, 66, 0
5, 6889, Note_on_c, 3, 62, 0
5, 6900, Note_on_c, 3, 62, 95
5, 6927, Note_on_c, 3, 62, 0
5, 6930, Note_on_c, 3, 74, 105
5, 6948, Note_on_c, 3, 74, 0
5, 6960, Note_on_c, 3, 74, 107
5, 6978, Note_on_c, 3, 74, 0
5, 6990, Note_on_c, 3, 74, 105
5, 7008, Note_on_c, 3, 74, 0
5, 7020, Note_on_c, 3, 74, 102
5, 7084, Note_on_c, 3, 74, 0
5, 7410, Note_on_c, 3, 77, 98
5, 7425, Note_on_c, 3, 77, 0
5, 7440, Note_on_c, 3, 77, 102
5, 7463, Note_on_c, 3, 77, 0
5, 7470, Note_on_c, 3, 74, 100
5, 7486, Note_on_c, 3, 74, 0
5, 7500, Note_on_c, 3, 74, 89
5, 7523, Note_on_c, 3, 74, 0
5, 7530, Note_on_c, 3, 71, 85
5, 7551, Note_on_c, 3, 71, 0
5, 7560, Note_on_c, 3, 71, 102
5, 7620, Note_on_c, 3, 72, 116
5, 7621, Note_on_c, 3, 71, 0
5, 7650, Note_on_c, 3, 74, 105
5, 7655, Note_on_c, 3, 72, 0
5, 7680, Note_on_c, 3, 76, 110
5, 7686, Note_on_c, 3, 74, 0
5, 7710, Note_on_c, 3, 77, 110
5, 7714, Note_on_c, 3, 76, 0
5, 7740, Note_on_c, 3, 76, 105
5, 7743, Note_on_c, 3, 77, 0
5, 7770, Note_on_c, 3, 77, 116
5, 7774, Note_on_c, 3, 76, 0
5, 7800, Note_on_c, 3, 76, 102
5, 7802, Note_on_c, 3, 77, 0
5, 7830, Note_on_c, 3, 74, 102
5, 7838, Note_on_c, 3, 76, 0
5, 7860, Note_on_c, 3, 72, 107
5, 7867, Note_on_c, 3, 74, 0
5, 7890, Note_on_c, 3, 71, 78
5, 7891, Note_on_c, 3, 72, 0
5, 7917, Note_on_c, 3, 71, 0
5, 7920, Note_on_c, 3, 69, 95
5, 7949, Note_on_c, 3, 69, 0
5, 7950, Note_on_c, 3, 74, 102
5, 7971, Note_on_c, 3, 74, 0
5, 7980, Note_on_c, 3, 74, 105
5, 8010, Note_on_c, 3, 71, 100
5, 8012, Note_on_c, 3, 74, 0
5, 8032, Note_on_c, 3, 71, 0
5, 8040, Note_on_c, 3, 71, 98
5, 8070, Note_on_c, 3, 67, 102
5, 8071, Note_on_c, 3, 71, 0
5, 8093, Note_on_c, 3, 67, 0
5, 8100, Note_on_c, 3, 67, 102
5, 8128, Note_on_c, 3, 67, 0
5, 8130, Note_on_c, 3, 72, 105
5, 8149, Note_on_c, 3, 72, 0
5, 8160, Note_on_c, 3, 72, 102
5, 8190, Note_on_c, 3, 69, 105
5, 8192, Note_on_c, 3, 72, 0
5, 8208, Note_on_c, 3, 69, 0
5, 8220, Note_on_c, 3, 69, 98
5, 8249, Note_on_c, 3, 69, 0
5, 8250, Note_on_c, 3, 66, 110
5, 8269, Note_on_c, 3, 66, 0
5, 8280, Note_on_c, 3, 66, 100
5, 8304, Note_on_c, 3, 66, 0
5, 8310, Note_on_c, 3, 71, 105
5, 8329, Note_on_c, 3, 71, 0
5, 8340, Note_on_c, 3, 71, 100
5, 8368, Note_on_c, 3, 71, 0
5, 8370, Note_on_c, 3, 67, 102
5, 8391, Note_on_c, 3, 67, 0
5, 8400, Note_on_c, 3, 67, 98
5, 8428, Note_on_c, 3, 67, 0
5, 8430, Note_on_c, 3, 64, 107
5, 8447, Note_on_c, 3, 64, 0
5, 8460, Note_on_c, 3, 64, 102
5, 8532, Note_on_c, 3, 64, 0
5, 8670, Note_on_c, 3, 76, 100
5, 8689, Note_on_c, 3, 76, 0
5, 8700, Note_on_c, 3, 76, 105
5, 8730, Note_on_c, 3, 72, 105
5, 8733, Note_on_c, 3, 76, 0
5, 8749, Note_on_c, 3, 72, 0
5, 8760, Note_on_c, 3, 72, 102
5, 8788, Note_on_c, 3, 72, 0
5, 8790, Note_on_c, 3, 69, 105
5, 8809, Note_on_c, 3, 69, 0
5, 8820, Note_on_c, 3, 69, 105
5, 8885, Note_on_c, 3, 69, 0
5, 9030, Note_on_c, 3, 78, 105
5, 9051, Note_on_c, 3, 78, 0
5, 9060, Note_on_c, 3, 78, 95
5, 9087, Note_on_c, 3, 78, 0
5, 9090, Note_on_c, 3, 74, 85
5, 9108, Note_on_c, 3, 74, 0
5, 9120, Note_on_c, 3, 74, 82
5, 9145, Note_on_c, 3, 74, 0
5, 9150, Note_on_c, 3, 71, 100
5, 9169, Note_on_c, 3, 71, 0
5, 9180, Note_on_c, 3, 71, 102
5, 9238, Note_on_c, 3, 71, 0
5, 9390, Note_on_c, 3, 79, 105
5, 9411, Note_on_c, 3, 79, 0
5, 9420, Note_on_c, 3, 79, 102
5, 9450, Note_on_c, 3, 76, 102
5, 9454, Note_on_c, 3, 79, 0
5, 9470, Note_on_c, 3, 76, 0
5, 9480, Note_on_c, 3, 76, 102
5, 9506, Note_on_c, 3, 76, 0
5, 9510, Note_on_c, 3, 72, 105
5, 9532, Note_on_c, 3, 72, 0
5, 9540, Note_on_c, 3, 72, 105
5, 9590, Note_on_c, 3, 72, 0
5, 9750, Note_on_c, 3, 84, 110
5, 9769, Note_on_c, 3, 84, 0
5, 9780, Note_on_c, 3, 84, 105
5, 9810, Note_on_c, 3, 81, 105
5, 9812, Note_on_c, 3, 84, 0
5, 9829, Note_on_c, 3, 81, 0
5, 9840, Note_on_c, 3, 81, 100
5, 9865, Note_on_c, 3, 81, 0
5, 9870, Note_on_c, 3, 78, 105
5, 9887, Note_on_c, 3, 78, 0
5, 9900, Note_on_c, 3, 78, 113
5, 9960, Note_on_c, 3, 78, 0
5, 10110, Note_on_c, 3, 78, 116
5, 10125, Note_on_c, 3, 78, 0
5, 10140, Note_on_c, 3, 78, 107
5, 10160, Note_on_c, 3, 78, 0
5, 10170, Note_on_c, 3, 74, 91
5, 10187, Note_on_c, 3, 74, 0
5, 10200, Note_on_c, 3, 74, 107
5, 10215, Note_on_c, 3, 74, 0
5, 10230, Note_on_c, 3, 74, 100
5, 10248, Note_on_c, 3, 74, 0
5, 10260, Note_on_c, 3, 79, 105
5, 10335, Note_on_c, 3, 79, 0
5, 10440, Note_on_c, 3, 81, 105
5, 10517, Note_on_c, 3, 81, 0
5, 10620, Note_on_c, 3, 83, 105
5, 10689, Note_on_c, 3, 83, 0
5, 11340, Note_on_c, 3, 79, 107
5, 11440, Note_on_c, 3, 79, 0
5, 11520, Note_on_c, 3, 81, 119
5, 11592, Note_on_c, 3, 81, 0
5, 11700, Note_on_c, 3, 83, 110
5, 11756, Note_on_c, 3, 83, 0
5, 11880, Note_on_c, 3, 86, 110
5, 11944, Note_on_c, 3, 86, 0
5, 12060, Note_on_c, 3, 81, 100
5, 12124, Note_on_c, 3, 81, 0
5, 12240, Note_on_c, 3, 84, 100
5, 12293, Note_on_c, 3, 84, 0
5, 12420, Note_on_c, 3, 83, 107
5, 12461, Note_on_c, 3, 83, 0
5, 12540, Note_on_c, 3, 67, 100
5, 12586, Note_on_c, 3, 67, 0
5, 12600, Note_on_c, 3, 67, 107
5, 12653, Note_on_c, 3, 67, 0
5, 12720, Note_on_c, 3, 69, 107
5, 12767, Note_on_c, 3, 69, 0
5, 12780, Note_on_c, 3, 69, 110
5, 12836, Note_on_c, 3, 69, 0
5, 12900, Note_on_c, 3, 71, 102
5, 12950, Note_on_c, 3, 71, 0
5, 12960, Note_on_c, 3, 71, 107
5, 13005, Note_on_c, 3, 71, 0
5, 13080, Note_on_c, 3, 71, 98
5, 13128, Note_on_c, 3, 71, 0
5, 13140, Note_on_c, 3, 76, 110
5, 13200, Note_on_c, 3, 69, 105
5, 13204, Note_on_c, 3, 76, 0
5, 13255, Note_on_c, 3, 69, 0
5, 13260, Note_on_c, 3, 74, 102
5, 13306, Note_on_c, 3, 74, 0
5, 13320, Note_on_c, 3, 74, 100
5, 13348, Note_on_c, 3, 74, 0
5, 13350, Note_on_c, 3, 76, 110
5, 13380, Note_on_c, 3, 74, 105
5, 13382, Note_on_c, 3, 76, 0
5, 13410, Note_on_c, 3, 72, 119
5, 13419, Note_on_c, 3, 74, 0
5, 13440, Note_on_c, 3, 71, 113
5, 13445, Note_on_c, 3, 72, 0
5, 13470, Note_on_c, 3, 69, 91
5, 13473, Note_on_c, 3, 71, 0
5, 13500, Note_on_c, 3, 67, 119
5, 13506, Note_on_c, 3, 69, 0
5, 13558, Note_on_c, 3, 67, 0
5, 13560, Note_on_c, 3, 71, 116
5, 13620, Note_on_c, 3, 67, 119
5, 13622, Note_on_c, 3, 71, 0
5, 13679, Note_on_c, 3, 67, 0
5, 13680, Note_on_c, 3, 64, 116
5, 13860, Note_on_c, 3, 64, 0
5, 13890, Note_on_c, 3, 76, 107
5, 13908, Note_on_c, 3, 76, 0
5, 13920, Note_on_c, 3, 76, 102
5, 13943, Note_on_c, 3, 76, 0
5, 13950, Note_on_c, 3, 72, 107
5, 13968, Note_on_c, 3, 72, 0
5, 13980, Note_on_c, 3, 72, 102
5, 14003, Note_on_c, 3, 72, 0
5, 14010, Note_on_c, 3, 69, 107
5, 14027, Note_on_c, 3, 69, 0
5, 14040, Note_on_c, 3, 69, 105
5, 14063, Note_on_c, 3, 69, 0
5, 14070, Note_on_c, 3, 74, 100
5, 14087, Note_on_c, 3, 74, 0
5, 14100, Note_on_c, 3, 74, 105
5, 14122, Note_on_c, 3, 74, 0
5, 14130, Note_on_c, 3, 69, 102
5, 14148, Note_on_c, 3, 69, 0
5, 14160, Note_on_c, 3, 69, 89
5, 14183, Note_on_c, 3, 69, 0
5, 14190, Note_on_c, 3, 66, 105
5, 14216, Note_on_c, 3, 66, 0
5, 14220, Note_on_c, 3, 62, 91
5, 14250, Note_on_c, 3, 62, 0
5, 14250, Note_on_c, 3, 74, 107
5, 14273, Note_on_c, 3, 74, 0
5, 14280, Note_on_c, 3, 79, 107
5, 14333, Note_on_c, 3, 79, 0
5, 14370, Note_on_c, 3, 76, 113
5, 14393, Note_on_c, 3, 76, 0
5, 14400, Note_on_c, 3, 78, 113
5, 14455, Note_on_c, 3, 78, 0
5, 14490, Note_on_c, 3, 71, 100
5, 14511, Note_on_c, 3, 71, 0
5, 14520, Note_on_c, 3, 76, 107
5, 14562, Note_on_c, 3, 76, 0
5, 14610, Note_on_c, 3, 76, 102
5, 14640, Note_on_c, 3, 74, 105
5, 14644, Note_on_c, 3, 76, 0
5, 14670, Note_on_c, 3, 72, 105
5, 14677, Note_on_c, 3, 74, 0
5, 14700, Note_on_c, 3, 71, 110
5, 14703, Note_on_c, 3, 72, 0
5, 14727, Note_on_c, 3, 71, 0
5, 14730, Note_on_c, 3, 69, 93
5, 14760, Note_on_c, 3, 71, 116
5, 14761, Note_on_c, 3, 69, 0
5, 14790, Note_on_c, 3, 72, 110
5, 14795, Note_on_c, 3, 71, 0
5, 14817, Note_on_c, 3, 72, 0
5, 14820, Note_on_c, 3, 69, 119
5, 14910, Note_on_c, 3, 67, 105
5, 14922, Note_on_c, 3, 69, 0
5, 14923, Note_on_c, 3, 67, 0
5, 14940, Note_on_c, 3, 67, 95
5, 15060, Note_on_c, 3, 67, 0
5, 16020, Note_on_c, 3, 79, 95
5, 16080, Note_on_c, 3, 79, 0
5, 16200, Note_on_c, 3, 81, 95
5, 16260, Note_on_c, 3, 81, 0
5, 16380, Note_on_c, 3, 83, 95
5, 16440, Note_on_c, 3, 83, 0
5, 18540, Note_on_c, 3, 74, 95
5, 18600, Note_on_c, 3, 74, 0
5, 18720, Note_on_c, 3, 76, 95
5, 18780, Note_on_c, 3, 76, 0
5, 18900, Note_on_c, 3, 78, 95
5, 18960, Note_on_c, 3, 78, 0
5, 19980, Note_on_c, 3, 74, 95
5, 20040, Note_on_c, 3, 74, 0
5, 20160, Note_on_c, 3, 76, 95
5, 20220, Note_on_c, 3, 76, 0
5, 20340, Note_on_c, 3, 78, 95
5, 20400, Note_on_c, 3, 78, 0
5, 22500, Note_on_c, 3, 57, 95
5, 23220, Note_on_c, 3, 57, 0
5, 23280, Note_on_c, 3, 73, 95
5, 23310, Note_on_c, 3, 73, 0
5, 23310, Note_on_c, 3, 74, 95
5, 23340, Note_on_c, 3, 74, 0
5, 23340, Note_on_c, 3, 73, 95
5, 23370, Note_on_c, 3, 73, 0
5, 23370, Note_on_c, 3, 74, 95
5, 23400, Note_on_c, 3, 74, 0
5, 23400, Note_on_c, 3, 76, 95
5, 23430, Note_on_c, 3, 76, 0
5, 23430, Note_on_c, 3, 74, 95
5, 23460, Note_on_c, 3, 74, 0
5, 23460, Note_on_c, 3, 73, 95
5, 23490, Note_on_c, 3, 73, 0
5, 23490, Note_on_c, 3, 74, 95
5, 23520, Note_on_c, 3, 74, 0
5, 23520, Note_on_c, 3, 76, 95
5, 23610, Note_on_c, 3, 76, 0
5, 23610, Note_on_c, 3, 74, 95
5, 23640, Note_on_c, 3, 74, 0
5, 23640, Note_on_c, 3, 73, 95
5, 23670, Note_on_c, 3, 73, 0
5, 23670, Note_on_c, 3, 74, 95
5, 23700, Note_on_c, 3, 74, 0
5, 23700, Note_on_c, 3, 76, 95
5, 23730, Note_on_c, 3, 76, 0
5, 23730, Note_on_c, 3, 74, 95
5, 23760, Note_on_c, 3, 74, 0
5, 23760, Note_on_c, 3, 76, 95
5, 23790, Note_on_c, 3, 76, 0
5, 23790, Note_on_c, 3, 79, 95
5, 23820, Note_on_c, 3, 79, 0
5, 23820, Note_on_c, 3, 78, 95
5, 23850, Note_on_c, 3, 78, 0
5, 23850, Note_on_c, 3, 76, 95
5, 23880, Note_on_c, 3, 76, 0
5, 23880, Note_on_c, 3, 74, 95
5, 23910, Note_on_c, 3, 74, 0
5, 23910, Note_on_c, 3, 73, 95
5, 23940, Note_on_c, 3, 73, 0
5, 23940, Note_on_c, 3, 75, 95
5, 24660, Note_on_c, 3, 75, 0
5, 24660, Note_on_c, 3, 76, 95
5, 24720, Note_on_c, 3, 76, 0
5, 24840, Note_on_c, 3, 78, 95
5, 24900, Note_on_c, 3, 78, 0
5, 25020, Note_on_c, 3, 79, 95
5, 25080, Note_on_c, 3, 79, 0
5, 25200, Note_on_c, 3, 83, 95
5, 25260, Note_on_c, 3, 83, 0
5, 25380, Note_on_c, 3, 78, 95
5, 25440, Note_on_c, 3, 78, 0
5, 25560, Note_on_c, 3, 81, 95
5, 25620, Note_on_c, 3, 81, 0
5, 25740, Note_on_c, 3, 79, 95
5, 25800, Note_on_c, 3, 79, 0
5, 25860, Note_on_c, 3, 64, 95
5, 25920, Note_on_c, 3, 64, 0
5, 25920, Note_on_c, 3, 64, 95
5, 25980, Note_on_c, 3, 64, 0
5, 26040, Note_on_c, 3, 66, 95
5, 26100, Note_on_c, 3, 66, 0
5, 26100, Note_on_c, 3, 66, 95
5, 26160, Note_on_c, 3, 66, 0
5, 26220, Note_on_c, 3, 67, 95
5, 26280, Note_on_c, 3, 67, 0
5, 26280, Note_on_c, 3, 67, 95
5, 26340, Note_on_c, 3, 67, 0
5, 26400, Note_on_c, 3, 67, 95
5, 26460, Note_on_c, 3, 67, 0
5, 26460, Note_on_c, 3, 72, 95
5, 26520, Note_on_c, 3, 72, 0
5, 26520, Note_on_c, 3, 66, 95
5, 26580, Note_on_c, 3, 66, 0
5, 26580, Note_on_c, 3, 71, 95
5, 26640, Note_on_c, 3, 71, 0
5, 26640, Note_on_c, 3, 71, 95
5, 26670, Note_on_c, 3, 71, 0
5, 26670, Note_on_c, 3, 72, 95
5, 26700, Note_on_c, 3, 72, 0
5, 26700, Note_on_c, 3, 71, 95
5, 26730, Note_on_c, 3, 71, 0
5, 26730, Note_on_c, 3, 69, 95
5, 26760, Note_on_c, 3, 69, 0
5, 26760, Note_on_c, 3, 67, 95
5, 26790, Note_on_c, 3, 67, 0
5, 26790, Note_on_c, 3, 66, 95
5, 26820, Note_on_c, 3, 66, 0
5, 26820, Note_on_c, 3, 64, 95
5, 26880, Note_on_c, 3, 64, 0
5, 26880, Note_on_c, 3, 67, 95
5, 26940, Note_on_c, 3, 67, 0
5, 26940, Note_on_c, 3, 64, 95
5, 27000, Note_on_c, 3, 64, 0
5, 27000, Note_on_c, 3, 60, 95
5, 27210, Note_on_c, 3, 60, 0
5, 27210, Note_on_c, 3, 72, 95
5, 27240, Note_on_c, 3, 72, 0
5, 27240, Note_on_c, 3, 72, 95
5, 27270, Note_on_c, 3, 72, 0
5, 27270, Note_on_c, 3, 69, 95
5, 27300, Note_on_c, 3, 69, 0
5, 27300, Note_on_c, 3, 69, 95
5, 27330, Note_on_c, 3, 69, 0
5, 27330, Note_on_c, 3, 66, 95
5, 27360, Note_on_c, 3, 66, 0
5, 27360, Note_on_c, 3, 66, 95
5, 27390, Note_on_c, 3, 66, 0
5, 27390, Note_on_c, 3, 83, 95
5, 27420, Note_on_c, 3, 83, 0
5, 27420, Note_on_c, 3, 83, 95
5, 27450, Note_on_c, 3, 83, 0
5, 27450, Note_on_c, 3, 78, 95
5, 27480, Note_on_c, 3, 78, 0
5, 27480, Note_on_c, 3, 78, 95
5, 27510, Note_on_c, 3, 78, 0
5, 27510, Note_on_c, 3, 75, 95
5, 27540, Note_on_c, 3, 75, 0
5, 27540, Note_on_c, 3, 76, 95
5, 27600, Note_on_c, 3, 76, 0
5, 27630, Note_on_c, 3, 76, 95
5, 27660, Note_on_c, 3, 76, 0
5, 27660, Note_on_c, 3, 81, 95
5, 27720, Note_on_c, 3, 81, 0
5, 27750, Note_on_c, 3, 78, 95
5, 27780, Note_on_c, 3, 78, 0
5, 27780, Note_on_c, 3, 79, 95
5, 27840, Note_on_c, 3, 79, 0
5, 27870, Note_on_c, 3, 72, 95
5, 27900, Note_on_c, 3, 72, 0
5, 27900, Note_on_c, 3, 77, 95
5, 27960, Note_on_c, 3, 77, 0
5, 27990, Note_on_c, 3, 75, 95
5, 28020, Note_on_c, 3, 75, 0
5, 28020, Note_on_c, 3, 76, 95
5, 28080, Note_on_c, 3, 76, 0
5, 28110, Note_on_c, 3, 78, 95
5, 28140, Note_on_c, 3, 78, 0
5, 28140, Note_on_c, 3, 75, 95
5, 28230, Note_on_c, 3, 75, 0
5, 28230, Note_on_c, 3, 76, 95
5, 28260, Note_on_c, 3, 76, 0
5, 28260, Note_on_c, 3, 76, 95
5, 28376, Note_on_c, 3, 76, 0
5, 28500, Note_on_c, 3, 76, 82
5, 28555, Note_on_c, 3, 76, 0
5, 28560, Note_on_c, 3, 78, 100
5, 28613, Note_on_c, 3, 78, 0
5, 28620, Note_on_c, 3, 79, 89
5, 28685, Note_on_c, 3, 79, 0
5, 28860, Note_on_c, 3, 78, 105
5, 28919, Note_on_c, 3, 78, 0
5, 28920, Note_on_c, 3, 81, 105
5, 28980, Note_on_c, 3, 75, 110
5, 28982, Note_on_c, 3, 81, 0
5, 29045, Note_on_c, 3, 75, 0
5, 29220, Note_on_c, 3, 76, 102
5, 29280, Note_on_c, 3, 80, 110
5, 29283, Note_on_c, 3, 76, 0
5, 29340, Note_on_c, 3, 80, 0
5, 29340, Note_on_c, 3, 81, 95
5, 29400, Note_on_c, 3, 81, 0
5, 29580, Note_on_c, 3, 81, 102
5, 29639, Note_on_c, 3, 81, 0
5, 29640, Note_on_c, 3, 78, 116
5, 29700, Note_on_c, 3, 79, 102
5, 29703, Note_on_c, 3, 78, 0
5, 29760, Note_on_c, 3, 79, 0
5, 33300, Note_on_c, 3, 81, 100
5, 33342, Note_on_c, 3, 81, 0
5, 33480, Note_on_c, 3, 83, 113
5, 33518, Note_on_c, 3, 83, 0
5, 33660, Note_on_c, 3, 84, 105
5, 33702, Note_on_c, 3, 84, 0
5, 34380, Note_on_c, 3, 76, 107
5, 34790, Note_on_c, 3, 76, 0
5, 34800, Note_on_c, 3, 74, 105
5, 34855, Note_on_c, 3, 74, 0
5, 34860, Note_on_c, 3, 72, 110
5, 34919, Note_on_c, 3, 72, 0
5, 34980, Note_on_c, 3, 72, 110
5, 34999, Note_on_c, 3, 72, 0
5, 35010, Note_on_c, 3, 74, 116
5, 35031, Note_on_c, 3, 74, 0
5, 35040, Note_on_c, 3, 76, 105
5, 35096, Note_on_c, 3, 76, 0
5, 35100, Note_on_c, 3, 74, 105
5, 35155, Note_on_c, 3, 74, 0
5, 35160, Note_on_c, 3, 72, 105
5, 35212, Note_on_c, 3, 72, 0
5, 35220, Note_on_c, 3, 71, 105
5, 35276, Note_on_c, 3, 71, 0
5, 35340, Note_on_c, 3, 71, 107
5, 35361, Note_on_c, 3, 71, 0
5, 35370, Note_on_c, 3, 72, 116
5, 35395, Note_on_c, 3, 72, 0
5, 35400, Note_on_c, 3, 74, 105
5, 35450, Note_on_c, 3, 74, 0
5, 35460, Note_on_c, 3, 74, 100
5, 35518, Note_on_c, 3, 74, 0
5, 35520, Note_on_c, 3, 72, 119
5, 35550, Note_on_c, 3, 71, 116
5, 35551, Note_on_c, 3, 72, 0
5, 35570, Note_on_c, 3, 71, 0
5, 35580, Note_on_c, 3, 72, 116
5, 35640, Note_on_c, 3, 72, 0
5, 35700, Note_on_c, 3, 76, 100
5, 35752, Note_on_c, 3, 76, 0
5, 35760, Note_on_c, 3, 81, 113
5, 35814, Note_on_c, 3, 81, 0
5, 35820, Note_on_c, 3, 77, 107
5, 35873, Note_on_c, 3, 77, 0
5, 35880, Note_on_c, 3, 77, 100
5, 35904, Note_on_c, 3, 77, 0
5, 35910, Note_on_c, 3, 76, 116
5, 35935, Note_on_c, 3, 76, 0
5, 35940, Note_on_c, 3, 77, 105
5, 36005, Note_on_c, 3, 77, 0
5, 36060, Note_on_c, 3, 69, 98
5, 36117, Note_on_c, 3, 69, 0
5, 36120, Note_on_c, 3, 74, 107
5, 36176, Note_on_c, 3, 74, 0
5, 36180, Note_on_c, 3, 71, 110
5, 36228, Note_on_c, 3, 71, 0
5, 36240, Note_on_c, 3, 71, 113
5, 36270, Note_on_c, 3, 69, 116
5, 36276, Note_on_c, 3, 71, 0
5, 36294, Note_on_c, 3, 69, 0
5, 36300, Note_on_c, 3, 71, 113
5, 36375, Note_on_c, 3, 71, 0
5, 36420, Note_on_c, 3, 74, 105
5, 36470, Note_on_c, 3, 74, 0
5, 36480, Note_on_c, 3, 79, 107
5, 36535, Note_on_c, 3, 79, 0
5, 36540, Note_on_c, 3, 76, 105
5, 36587, Note_on_c, 3, 76, 0
5, 36600, Note_on_c, 3, 76, 105
5, 36629, Note_on_c, 3, 76, 0
5, 36630, Note_on_c, 3, 74, 119
5, 36654, Note_on_c, 3, 74, 0
5, 36660, Note_on_c, 3, 76, 105
5, 36736, Note_on_c, 3, 76, 0
5, 36780, Note_on_c, 3, 79, 100
5, 36829, Note_on_c, 3, 79, 0
5, 36840, Note_on_c, 3, 84, 113
5, 36894, Note_on_c, 3, 84, 0
5, 36900, Note_on_c, 3, 81, 100
5, 36955, Note_on_c, 3, 81, 0
5, 36960, Note_on_c, 3, 77, 113
5, 37021, Note_on_c, 3, 77, 0
5, 37080, Note_on_c, 3, 83, 107
5, 37131, Note_on_c, 3, 83, 0
5, 37140, Note_on_c, 3, 79, 107
5, 37202, Note_on_c, 3, 79, 0
5, 37260, Note_on_c, 3, 84, 110
5, 37320, Note_on_c, 3, 84, 0
5, 37320, Note_on_c, 3, 81, 119
5, 37381, Note_on_c, 3, 81, 0
5, 37440, Note_on_c, 3, 86, 110
5, 37498, Note_on_c, 3, 86, 0
5, 37500, Note_on_c, 3, 83, 119
5, 37554, Note_on_c, 3, 83, 0
5, 37620, Note_on_c, 3, 79, 105
5, 37675, Note_on_c, 3, 79, 0
5, 37680, Note_on_c, 3, 76, 116
5, 37741, Note_on_c, 3, 76, 0
5, 37800, Note_on_c, 3, 77, 116
5, 37850, Note_on_c, 3, 77, 0
5, 37860, Note_on_c, 3, 74, 107
5, 37912, Note_on_c, 3, 74, 0
5, 37980, Note_on_c, 3, 55, 107
5, 39801, Note_on_c, 3, 55, 0
5, 39900, Note_on_c, 3, 72, 107
5, 39945, Note_on_c, 3, 72, 0
5, 39960, Note_on_c, 3, 72, 119
5, 40024, Note_on_c, 3, 72, 0
5, 40080, Note_on_c, 3, 74, 107
5, 40119, Note_on_c, 3, 74, 0
5, 40140, Note_on_c, 3, 74, 116
5, 40212, Note_on_c, 3, 74, 0
5, 40260, Note_on_c, 3, 76, 105
5, 40306, Note_on_c, 3, 76, 0
5, 40320, Note_on_c, 3, 76, 102
5, 40376, Note_on_c, 3, 76, 0
5, 40440, Note_on_c, 3, 76, 95
5, 40494, Note_on_c, 3, 76, 0
5, 40500, Note_on_c, 3, 81, 105
5, 40556, Note_on_c, 3, 81, 0
5, 40560, Note_on_c, 3, 74, 98
5, 40615, Note_on_c, 3, 74, 0
5, 40620, Note_on_c, 3, 79, 98
5, 40672, Note_on_c, 3, 79, 0
5, 40680, Note_on_c, 3, 79, 93
5, 40710, Note_on_c, 3, 79, 0
5, 40710, Note_on_c, 3, 77, 95
5, 40740, Note_on_c, 3, 76, 89
5, 40745, Note_on_c, 3, 77, 0
5, 40770, Note_on_c, 3, 74, 100
5, 40775, Note_on_c, 3, 76, 0
5, 40800, Note_on_c, 3, 74, 0
5, 40800, Note_on_c, 3, 72, 82
5, 40902, Note_on_c, 3, 72, 0
5, 40920, Note_on_c, 3, 76, 105
5, 40980, Note_on_c, 3, 76, 0
5, 40980, Note_on_c, 3, 72, 91
5, 41040, Note_on_c, 3, 69, 98
5, 41041, Note_on_c, 3, 72, 0
5, 41233, Note_on_c, 3, 69, 0
5, 41250, Note_on_c, 3, 69, 102
5, 41266, Note_on_c, 3, 69, 0
5, 41280, Note_on_c, 3, 69, 91
5, 41310, Note_on_c, 3, 69, 0
5, 41310, Note_on_c, 3, 65, 102
5, 41330, Note_on_c, 3, 65, 0
5, 41340, Note_on_c, 3, 65, 89
5, 41366, Note_on_c, 3, 65, 0
5, 41370, Note_on_c, 3, 62, 89
5, 41385, Note_on_c, 3, 62, 0
5, 41400, Note_on_c, 3, 62, 98
5, 41429, Note_on_c, 3, 62, 0
5, 41430, Note_on_c, 3, 67, 93
5, 41450, Note_on_c, 3, 67, 0
5, 41460, Note_on_c, 3, 67, 102
5, 41485, Note_on_c, 3, 67, 0
5, 41490, Note_on_c, 3, 62, 93
5, 41504, Note_on_c, 3, 62, 0
5, 41520, Note_on_c, 3, 62, 85
5, 41545, Note_on_c, 3, 62, 0
5, 41550, Note_on_c, 3, 59, 85
5, 41575, Note_on_c, 3, 59, 0
5, 41580, Note_on_c, 3, 55, 82
5, 41610, Note_on_c, 3, 67, 102
5, 41612, Note_on_c, 3, 55, 0
5, 41632, Note_on_c, 3, 67, 0
5, 41640, Note_on_c, 3, 72, 110
5, 41687, Note_on_c, 3, 72, 0
5, 41730, Note_on_c, 3, 69, 105
5, 41752, Note_on_c, 3, 69, 0
5, 41760, Note_on_c, 3, 71, 100
5, 41808, Note_on_c, 3, 71, 0
5, 41850, Note_on_c, 3, 64, 87
5, 41874, Note_on_c, 3, 64, 0
5, 41880, Note_on_c, 3, 69, 100
5, 41933, Note_on_c, 3, 69, 0
5, 41970, Note_on_c, 3, 69, 87
5, 42000, Note_on_c, 3, 67, 95
5, 42002, Note_on_c, 3, 69, 0
5, 42030, Note_on_c, 3, 65, 98
5, 42039, Note_on_c, 3, 67, 0
5, 42060, Note_on_c, 3, 64, 105
5, 42061, Note_on_c, 3, 65, 0
5, 42088, Note_on_c, 3, 64, 0
5, 42090, Note_on_c, 3, 62, 91
5, 42117, Note_on_c, 3, 62, 0
5, 42120, Note_on_c, 3, 64, 107
5, 42150, Note_on_c, 3, 65, 102
5, 42157, Note_on_c, 3, 64, 0
5, 42179, Note_on_c, 3, 65, 0
5, 42180, Note_on_c, 3, 62, 113
5, 42270, Note_on_c, 3, 60, 78
5, 42272, Note_on_c, 3, 62, 0
5, 42290, Note_on_c, 3, 60, 0
5, 42300, Note_on_c, 3, 60, 87
5, 42343, Note_on_c, 3, 60, 0
5, 42360, Note_on_c, 3, 60, 82
5, 42390, Note_on_c, 3, 60, 0
5, 42390, Note_on_c, 3, 62, 89
5, 42420, Note_on_c, 3, 64, 93
5, 42430, Note_on_c, 3, 62, 0
5, 42450, Note_on_c, 3, 65, 100
5, 42457, Note_on_c, 3, 64, 0
5, 42480, Note_on_c, 3, 67, 87
5, 42485, Note_on_c, 3, 65, 0
5, 42535, Note_on_c, 3, 67, 0
5, 42630, Note_on_c, 3, 62, 87
5, 42660, Note_on_c, 3, 62, 0
5, 42660, Note_on_c, 3, 60, 82
5, 42690, Note_on_c, 3, 58, 82
5, 42691, Note_on_c, 3, 60, 0
5, 42720, Note_on_c, 3, 57, 74
5, 42724, Note_on_c, 3, 58, 0
5, 42750, Note_on_c, 3, 67, 82
5, 42756, Note_on_c, 3, 57, 0
5, 42780, Note_on_c, 3, 65, 91
5, 42790, Note_on_c, 3, 67, 0
5, 42810, Note_on_c, 3, 64, 95
5, 42817, Note_on_c, 3, 65, 0
5, 42838, Note_on_c, 3, 64, 0
5, 42840, Note_on_c, 3, 62, 85
5, 42870, Note_on_c, 3, 72, 82
5, 42871, Note_on_c, 3, 62, 0
5, 42900, Note_on_c, 3, 71, 87
5, 42903, Note_on_c, 3, 72, 0
5, 42930, Note_on_c, 3, 69, 82
5, 42937, Note_on_c, 3, 71, 0
5, 42960, Note_on_c, 3, 67, 80
5, 42966, Note_on_c, 3, 69, 0
5, 42989, Note_on_c, 3, 67, 0
5, 42990, Note_on_c, 3, 65, 64
5, 43020, Note_on_c, 3, 65, 0
5, 43020, Note_on_c, 3, 67, 82
5, 43050, Note_on_c, 3, 69, 89
5, 43054, Note_on_c, 3, 67, 0
5, 43079, Note_on_c, 3, 69, 0
5, 43080, Note_on_c, 3, 59, 85
5, 43110, Note_on_c, 3, 57, 72
5, 43113, Note_on_c, 3, 59, 0
5, 43140, Note_on_c, 3, 55, 68
5, 43143, Note_on_c, 3, 57, 0
5, 43170, Note_on_c, 3, 57, 64
5, 43174, Note_on_c, 3, 55, 0
5, 43200, Note_on_c, 3, 59, 70
5, 43207, Note_on_c, 3, 57, 0
5, 43230, Note_on_c, 3, 60, 85
5, 43232, Note_on_c, 3, 59, 0
5, 43260, Note_on_c, 3, 60, 0
5, 43260, Note_on_c, 3, 62, 72
5, 43290, Note_on_c, 3, 65, 93
5, 43291, Note_on_c, 3, 62, 0
5, 43320, Note_on_c, 3, 64, 85
5, 43327, Note_on_c, 3, 65, 0
5, 43350, Note_on_c, 3, 64, 0
5, 43350, Note_on_c, 3, 62, 74
5, 43377, Note_on_c, 3, 62, 0
5, 43380, Note_on_c, 3, 64, 100
5, 43447, Note_on_c, 3, 64, 0
5, 43560, Note_on_c, 3, 62, 102
5, 43645, Note_on_c, 3, 62, 0
5, 43740, Note_on_c, 3, 60, 78
5, 43801, Note_on_c, 3, 60, 0
5, 43980, Note_on_c, 3, 72, 102
5, 44028, Note_on_c, 3, 72, 0
5, 44040, Note_on_c, 3, 69, 89
5, 44085, Note_on_c, 3, 69, 0
5, 44100, Note_on_c, 3, 66, 95
5, 44170, Note_on_c, 3, 66, 0
5, 44340, Note_on_c, 3, 71, 95
5, 44392, Note_on_c, 3, 71, 0
5, 44400, Note_on_c, 3, 67, 93
5, 44454, Note_on_c, 3, 67, 0
5, 44460, Note_on_c, 3, 64, 100
5, 44525, Note_on_c, 3, 64, 0
5, 44700, Note_on_c, 3, 81, 98
5, 44750, Note_on_c, 3, 81, 0
5, 44760, Note_on_c, 3, 78, 98
5, 44809, Note_on_c, 3, 78, 0
5, 44820, Note_on_c, 3, 79, 95
5, 44883, Note_on_c, 3, 79, 0
5, 45000, Note_on_c, 3, 81, 102
5, 45063, Note_on_c, 3, 81, 0
5, 45180, Note_on_c, 3, 83, 89
5, 45233, Note_on_c, 3, 83, 0
5, 45240, Note_on_c, 3, 67, 68
5, 45270, Note_on_c, 3, 69, 82
5, 45271, Note_on_c, 3, 67, 0
5, 45300, Note_on_c, 3, 71, 85
5, 45313, Note_on_c, 3, 69, 0
5, 45330, Note_on_c, 3, 72, 102
5, 45335, Note_on_c, 3, 71, 0
5, 45360, Note_on_c, 3, 74, 82
5, 45361, Note_on_c, 3, 72, 0
5, 45406, Note_on_c, 3, 74, 0
5, 45510, Note_on_c, 3, 69, 91
5, 45540, Note_on_c, 3, 67, 95
5, 45550, Note_on_c, 3, 69, 0
5, 45568, Note_on_c, 3, 67, 0
5, 45570, Note_on_c, 3, 65, 74
5, 45600, Note_on_c, 3, 64, 85
5, 45607, Note_on_c, 3, 65, 0
5, 45630, Note_on_c, 3, 64, 0
5, 45630, Note_on_c, 3, 74, 87
5, 45660, Note_on_c, 3, 72, 89
5, 45669, Note_on_c, 3, 74, 0
5, 45690, Note_on_c, 3, 71, 98
5, 45695, Note_on_c, 3, 72, 0
5, 45719, Note_on_c, 3, 71, 0
5, 45720, Note_on_c, 3, 69, 68
5, 45750, Note_on_c, 3, 79, 95
5, 45752, Note_on_c, 3, 69, 0
5, 45780, Note_on_c, 3, 78, 95
5, 45787, Note_on_c, 3, 79, 0
5, 45810, Note_on_c, 3, 78, 0
5, 45810, Note_on_c, 3, 76, 85
5, 45840, Note_on_c, 3, 74, 87
5, 45847, Note_on_c, 3, 76, 0
5, 45867, Note_on_c, 3, 74, 0
5, 45870, Note_on_c, 3, 72, 64
5, 45900, Note_on_c, 3, 74, 91
5, 45904, Note_on_c, 3, 72, 0
5, 45930, Note_on_c, 3, 76, 87
5, 45938, Note_on_c, 3, 74, 0
5, 45958, Note_on_c, 3, 76, 0
5, 45960, Note_on_c, 3, 66, 85
5, 45990, Note_on_c, 3, 64, 87
5, 45991, Note_on_c, 3, 66, 0
5, 46020, Note_on_c, 3, 62, 74
5, 46022, Note_on_c, 3, 64, 0
5, 46050, Note_on_c, 3, 64, 82
5, 46057, Note_on_c, 3, 62, 0
5, 46080, Note_on_c, 3, 66, 105
5, 46081, Note_on_c, 3, 64, 0
5, 46108, Note_on_c, 3, 66, 0
5, 46110, Note_on_c, 3, 67, 82
5, 46140, Note_on_c, 3, 69, 107
5, 46143, Note_on_c, 3, 67, 0
5, 46170, Note_on_c, 3, 72, 91
5, 46173, Note_on_c, 3, 69, 0
5, 46200, Note_on_c, 3, 71, 105
5, 46208, Note_on_c, 3, 72, 0
5, 46230, Note_on_c, 3, 69, 102
5, 46234, Note_on_c, 3, 71, 0
5, 46260, Note_on_c, 3, 69, 0
5, 46260, Note_on_c, 3, 67, 98
5, 46318, Note_on_c, 3, 67, 0
5, 47400, Note_on_c, 3, 78, 119
5, 47423, Note_on_c, 3, 78, 0
5, 47430, Note_on_c, 3, 79, 102
5, 47460, Note_on_c, 3, 79, 0
5, 47460, Note_on_c, 3, 78, 116
5, 47481, Note_on_c, 3, 78, 0
5, 47490, Note_on_c, 3, 79, 102
5, 47510, Note_on_c, 3, 79, 0
5, 47520, Note_on_c, 3, 81, 105
5, 47545, Note_on_c, 3, 81, 0
5, 47550, Note_on_c, 3, 79, 102
5, 47572, Note_on_c, 3, 79, 0
5, 47580, Note_on_c, 3, 78, 110
5, 47599, Note_on_c, 3, 78, 0
5, 47610, Note_on_c, 3, 79, 110
5, 47626, Note_on_c, 3, 79, 0
5, 47640, Note_on_c, 3, 81, 107
5, 47718, Note_on_c, 3, 81, 0
5, 47730, Note_on_c, 3, 79, 102
5, 47753, Note_on_c, 3, 79, 0
5, 47760, Note_on_c, 3, 78, 110
5, 47782, Note_on_c, 3, 78, 0
5, 47790, Note_on_c, 3, 79, 102
5, 47815, Note_on_c, 3, 79, 0
5, 47820, Note_on_c, 3, 81, 105
5, 47848, Note_on_c, 3, 81, 0
5, 47850, Note_on_c, 3, 79, 105
5, 47871, Note_on_c, 3, 79, 0
5, 47880, Note_on_c, 3, 81, 116
5, 47910, Note_on_c, 3, 84, 107
5, 47912, Note_on_c, 3, 81, 0
5, 47934, Note_on_c, 3, 84, 0
5, 47940, Note_on_c, 3, 83, 102
5, 47964, Note_on_c, 3, 83, 0
5, 47970, Note_on_c, 3, 81, 100
5, 47997, Note_on_c, 3, 81, 0
5, 48000, Note_on_c, 3, 79, 102
5, 48030, Note_on_c, 3, 78, 107
5, 48035, Note_on_c, 3, 79, 0
5, 48048, Note_on_c, 3, 78, 0
5, 48060, Note_on_c, 3, 79, 102
5, 48803, Note_on_c, 3, 79, 0
5, 48810, Note_on_c, 3, 76, 100
5, 48825, Note_on_c, 3, 76, 0
5, 48840, Note_on_c, 3, 76, 102
5, 48860, Note_on_c, 3, 76, 0
5, 48870, Note_on_c, 3, 72, 98
5, 48885, Note_on_c, 3, 72, 0
5, 48900, Note_on_c, 3, 72, 105
5, 48928, Note_on_c, 3, 72, 0
5, 48930, Note_on_c, 3, 69, 105
5, 48949, Note_on_c, 3, 69, 0
5, 48960, Note_on_c, 3, 69, 102
5, 48988, Note_on_c, 3, 69, 0
5, 48990, Note_on_c, 3, 74, 102
5, 49012, Note_on_c, 3, 74, 0
5, 49020, Note_on_c, 3, 74, 95
5, 49046, Note_on_c, 3, 74, 0
5, 49050, Note_on_c, 3, 71, 98
5, 49068, Note_on_c, 3, 71, 0
5, 49080, Note_on_c, 3, 71, 98
5, 49108, Note_on_c, 3, 71, 0
5, 49110, Note_on_c, 3, 67, 105
5, 49127, Note_on_c, 3, 67, 0
5, 49140, Note_on_c, 3, 67, 102
5, 49162, Note_on_c, 3, 67, 0
5, 49170, Note_on_c, 3, 72, 107
5, 49190, Note_on_c, 3, 72, 0
5, 49200, Note_on_c, 3, 72, 105
5, 49221, Note_on_c, 3, 72, 0
5, 49230, Note_on_c, 3, 69, 107
5, 49249, Note_on_c, 3, 69, 0
5, 49260, Note_on_c, 3, 69, 100
5, 49285, Note_on_c, 3, 69, 0
5, 49290, Note_on_c, 3, 66, 107
5, 49308, Note_on_c, 3, 66, 0
5, 49320, Note_on_c, 3, 66, 105
5, 49350, Note_on_c, 3, 71, 98
5, 49353, Note_on_c, 3, 66, 0
5, 49370, Note_on_c, 3, 71, 0
5, 49380, Note_on_c, 3, 71, 100
5, 49404, Note_on_c, 3, 71, 0
5, 49410, Note_on_c, 3, 67, 107
5, 49426, Note_on_c, 3, 67, 0
5, 49440, Note_on_c, 3, 67, 102
5, 49467, Note_on_c, 3, 67, 0
5, 49470, Note_on_c, 3, 64, 107
5, 49486, Note_on_c, 3, 64, 0
5, 49500, Note_on_c, 3, 64, 102
5, 49557, Note_on_c, 3, 64, 0
5, 49710, Note_on_c, 3, 76, 102
5, 49730, Note_on_c, 3, 76, 0
5, 49740, Note_on_c, 3, 76, 95
5, 49770, Note_on_c, 3, 72, 102
5, 49773, Note_on_c, 3, 76, 0
5, 49785, Note_on_c, 3, 72, 0
5, 49800, Note_on_c, 3, 72, 89
5, 49824, Note_on_c, 3, 72, 0
5, 49830, Note_on_c, 3, 69, 100
5, 49850, Note_on_c, 3, 69, 0
5, 49860, Note_on_c, 3, 69, 98
5, 49916, Note_on_c, 3, 69, 0
5, 50070, Note_on_c, 3, 78, 105
5, 50092, Note_on_c, 3, 78, 0
5, 50100, Note_on_c, 3, 78, 100
5, 50128, Note_on_c, 3, 78, 0
5, 50130, Note_on_c, 3, 74, 89
5, 50148, Note_on_c, 3, 74, 0
5, 50160, Note_on_c, 3, 74, 87
5, 50186, Note_on_c, 3, 74, 0
5, 50190, Note_on_c, 3, 71, 89
5, 50210, Note_on_c, 3, 71, 0
5, 50220, Note_on_c, 3, 71, 102
5, 50271, Note_on_c, 3, 71, 0
5, 50430, Note_on_c, 3, 79, 93
5, 50453, Note_on_c, 3, 79, 0
5, 50460, Note_on_c, 3, 79, 93
5, 50490, Note_on_c, 3, 76, 98
5, 50492, Note_on_c, 3, 79, 0
5, 50510, Note_on_c, 3, 76, 0
5, 50520, Note_on_c, 3, 76, 95
5, 50546, Note_on_c, 3, 76, 0
5, 50550, Note_on_c, 3, 72, 102
5, 50571, Note_on_c, 3, 72, 0
5, 50580, Note_on_c, 3, 72, 105
5, 50627, Note_on_c, 3, 72, 0
5, 50790, Note_on_c, 3, 84, 107
5, 50811, Note_on_c, 3, 84, 0
5, 50820, Note_on_c, 3, 84, 102
5, 50850, Note_on_c, 3, 84, 0
5, 50850, Note_on_c, 3, 81, 100
5, 50869, Note_on_c, 3, 81, 0
5, 50880, Note_on_c, 3, 81, 105
5, 50910, Note_on_c, 3, 81, 0
5, 50910, Note_on_c, 3, 78, 102
5, 50928, Note_on_c, 3, 78, 0
5, 50940, Note_on_c, 3, 78, 107
5, 51003, Note_on_c, 3, 78, 0
5, 51150, Note_on_c, 3, 78, 100
5, 51167, Note_on_c, 3, 78, 0
5, 51180, Note_on_c, 3, 78, 107
5, 51205, Note_on_c, 3, 78, 0
5, 51210, Note_on_c, 3, 74, 91
5, 51225, Note_on_c, 3, 74, 0
5, 51240, Note_on_c, 3, 74, 98
5, 51261, Note_on_c, 3, 74, 0
5, 51270, Note_on_c, 3, 78, 110
5, 51285, Note_on_c, 3, 78, 0
5, 51300, Note_on_c, 3, 79, 107
5, 51365, Note_on_c, 3, 79, 0
5, 51540, Note_on_c, 3, 79, 105
5, 51595, Note_on_c, 3, 79, 0
5, 51600, Note_on_c, 3, 81, 113
5, 51653, Note_on_c, 3, 81, 0
5, 51660, Note_on_c, 3, 83, 100
5, 51716, Note_on_c, 3, 83, 0
5, 51900, Note_on_c, 3, 76, 107
5, 51952, Note_on_c, 3, 76, 0
5, 51960, Note_on_c, 3, 78, 113
5, 52010, Note_on_c, 3, 78, 0
5, 52020, Note_on_c, 3, 79, 102
5, 52081, Note_on_c, 3, 79, 0
5, 52260, Note_on_c, 3, 81, 105
5, 52318, Note_on_c, 3, 81, 0
5, 52320, Note_on_c, 3, 83, 107
5, 52371, Note_on_c, 3, 83, 0
5, 52380, Note_on_c, 3, 84, 105
5, 52436, Note_on_c, 3, 84, 0
5, 52500, Note_on_c, 3, 81, 100
5, 52555, Note_on_c, 3, 81, 0
5, 52560, Note_on_c, 3, 81, 107
5, 52621, Note_on_c, 3, 81, 0
5, 52680, Note_on_c, 3, 81, 105
5, 52733, Note_on_c, 3, 81, 0
5, 52740, Note_on_c, 3, 79, 107
5, 52808, Note_on_c, 3, 79, 0
5, 53760, Note_on_c, 3, 78, 110
5, 53810, Note_on_c, 3, 78, 0
5, 53820, Note_on_c, 3, 79, 100
5, 53888, Note_on_c, 3, 79, 0
5, 53940, Note_on_c, 3, 76, 102
5, 53997, Note_on_c, 3, 76, 0
5, 54000, Note_on_c, 3, 74, 98
5, 54070, Note_on_c, 3, 74, 0
5, 54120, Note_on_c, 3, 83, 107
5, 54171, Note_on_c, 3, 83, 0
5, 54180, Note_on_c, 3, 84, 102
5, 54250, Note_on_c, 3, 84, 0
5, 54300, Note_on_c, 3, 81, 102
5, 54357, Note_on_c, 3, 81, 0
5, 54360, Note_on_c, 3, 79, 107
5, 54420, Note_on_c, 3, 79, 0
5, 56040, Note_on_c, 3, 71, 105
5, 56070, Note_on_c, 3, 71, 0
5, 56070, Note_on_c, 3, 73, 105
5, 56100, Note_on_c, 3, 71, 107
5, 56105, Note_on_c, 3, 73, 0
5, 56130, Note_on_c, 3, 73, 105
5, 56139, Note_on_c, 3, 71, 0
5, 56153, Note_on_c, 3, 73, 0
5, 56160, Note_on_c, 3, 74, 98
5, 56190, Note_on_c, 3, 73, 105
5, 56195, Note_on_c, 3, 74, 0
5, 56220, Note_on_c, 3, 71, 102
5, 56222, Note_on_c, 3, 73, 0
5, 56250, Note_on_c, 3, 73, 105
5, 56257, Note_on_c, 3, 71, 0
5, 56273, Note_on_c, 3, 73, 0
5, 56280, Note_on_c, 3, 74, 100
5, 56367, Note_on_c, 3, 74, 0
5, 56370, Note_on_c, 3, 73, 107
5, 56400, Note_on_c, 3, 73, 0
5, 56400, Note_on_c, 3, 71, 100
5, 56430, Note_on_c, 3, 73, 105
5, 56439, Note_on_c, 3, 71, 0
5, 56460, Note_on_c, 3, 74, 105
5, 56464, Note_on_c, 3, 73, 0
5, 56489, Note_on_c, 3, 74, 0
5, 56490, Note_on_c, 3, 73, 107
5, 56520, Note_on_c, 3, 74, 87
5, 56528, Note_on_c, 3, 73, 0
5, 56550, Note_on_c, 3, 78, 98
5, 56555, Note_on_c, 3, 74, 0
5, 56580, Note_on_c, 3, 76, 76
5, 56581, Note_on_c, 3, 78, 0
5, 56610, Note_on_c, 3, 74, 82
5, 56613, Note_on_c, 3, 76, 0
5, 56640, Note_on_c, 3, 73, 110
5, 56648, Note_on_c, 3, 74, 0
5, 56670, Note_on_c, 3, 71, 78
5, 56675, Note_on_c, 3, 73, 0
5, 56700, Note_on_c, 3, 73, 105
5, 56703, Note_on_c, 3, 71, 0
5, 57438, Note_on_c, 3, 73, 0
5, 57450, Note_on_c, 3, 71, 107
5, 57480, Note_on_c, 3, 73, 100
5, 57486, Note_on_c, 3, 71, 0
5, 57510, Note_on_c, 3, 74, 105
5, 57515, Note_on_c, 3, 73, 0
5, 57540, Note_on_c, 3, 73, 107
5, 57542, Note_on_c, 3, 74, 0
5, 57570, Note_on_c, 3, 74, 105
5, 57575, Note_on_c, 3, 73, 0
5, 57597, Note_on_c, 3, 74, 0
5, 57600, Note_on_c, 3, 76, 102
5, 57630, Note_on_c, 3, 74, 110
5, 57634, Note_on_c, 3, 76, 0
5, 57660, Note_on_c, 3, 73, 105
5, 57666, Note_on_c, 3, 74, 0
5, 57690, Note_on_c, 3, 74, 105
5, 57694, Note_on_c, 3, 73, 0
5, 57719, Note_on_c, 3, 74, 0
5, 57720, Note_on_c, 3, 76, 107
5, 57806, Note_on_c, 3, 76, 0
5, 57810, Note_on_c, 3, 74, 98
5, 57840, Note_on_c, 3, 73, 105
5, 57844, Note_on_c, 3, 74, 0
5, 57870, Note_on_c, 3, 74, 100
5, 57875, Note_on_c, 3, 73, 0
5, 57900, Note_on_c, 3, 76, 102
5, 57905, Note_on_c, 3, 74, 0
5, 57930, Note_on_c, 3, 76, 0
5, 57930, Note_on_c, 3, 74, 107
5, 57955, Note_on_c, 3, 74, 0
5, 57960, Note_on_c, 3, 76, 105
5, 57990, Note_on_c, 3, 79, 93
5, 57993, Note_on_c, 3, 76, 0
5, 58020, Note_on_c, 3, 78, 100
5, 58025, Note_on_c, 3, 79, 0
5, 58050, Note_on_c, 3, 76, 85
5, 58055, Note_on_c, 3, 78, 0
5, 58080, Note_on_c, 3, 74, 85
5, 58083, Note_on_c, 3, 76, 0
5, 58110, Note_on_c, 3, 73, 113
5, 58115, Note_on_c, 3, 74, 0
5, 58140, Note_on_c, 3, 73, 0
5, 58140, Note_on_c, 3, 66, 105
5, 58561, Note_on_c, 3, 66, 0
5, 58680, Note_on_c, 3, 71, 98
5, 58749, Note_on_c, 3, 71, 0
5, 58860, Note_on_c, 3, 70, 95
5, 58929, Note_on_c, 3, 70, 0
5, 59040, Note_on_c, 3, 73, 110
5, 59104, Note_on_c, 3, 73, 0
5, 59220, Note_on_c, 3, 74, 93
5, 59264, Note_on_c, 3, 74, 0
5, 59280, Note_on_c, 3, 66, 110
5, 59310, Note_on_c, 3, 68, 107
5, 59312, Note_on_c, 3, 66, 0
5, 59332, Note_on_c, 3, 68, 0
5, 59340, Note_on_c, 3, 69, 102
5, 59436, Note_on_c, 3, 69, 0
5, 59460, Note_on_c, 3, 68, 102
5, 59486, Note_on_c, 3, 68, 0
5, 59490, Note_on_c, 3, 70, 100
5, 59514, Note_on_c, 3, 70, 0
5, 59520, Note_on_c, 3, 71, 98
5, 59625, Note_on_c, 3, 71, 0
5, 59640, Note_on_c, 3, 70, 105
5, 59664, Note_on_c, 3, 70, 0
5, 59670, Note_on_c, 3, 71, 85
5, 59696, Note_on_c, 3, 71, 0
5, 59700, Note_on_c, 3, 73, 110
5, 59801, Note_on_c, 3, 73, 0
5, 59820, Note_on_c, 3, 71, 100
5, 59844, Note_on_c, 3, 71, 0
5, 59850, Note_on_c, 3, 73, 100
5, 59870, Note_on_c, 3, 73, 0
5, 59880, Note_on_c, 3, 74, 100
5, 59990, Note_on_c, 3, 74, 0
5, 60000, Note_on_c, 3, 73, 102
5, 60022, Note_on_c, 3, 73, 0
5, 60030, Note_on_c, 3, 74, 100
5, 60050, Note_on_c, 3, 74, 0
5, 60060, Note_on_c, 3, 76, 93
5, 60164, Note_on_c, 3, 76, 0
5, 60180, Note_on_c, 3, 74, 95
5, 60210, Note_on_c, 3, 76, 105
5, 60212, Note_on_c, 3, 74, 0
5, 60239, Note_on_c, 3, 76, 0
5, 60240, Note_on_c, 3, 78, 107
5, 60330, Note_on_c, 3, 67, 98
5, 60334, Note_on_c, 3, 78, 0
5, 60360, Note_on_c, 3, 69, 107
5, 60369, Note_on_c, 3, 67, 0
5, 60390, Note_on_c, 3, 71, 116
5, 60396, Note_on_c, 3, 69, 0
5, 60420, Note_on_c, 3, 71, 0
5, 60420, Note_on_c, 3, 73, 105
5, 60450, Note_on_c, 3, 75, 102
5, 60458, Note_on_c, 3, 73, 0
5, 60471, Note_on_c, 3, 75, 0
5, 60480, Note_on_c, 3, 76, 107
5, 60690, Note_on_c, 3, 79, 95
5, 60697, Note_on_c, 3, 76, 0
5, 60719, Note_on_c, 3, 79, 0
5, 60720, Note_on_c, 3, 79, 89
5, 60749, Note_on_c, 3, 79, 0
5, 60750, Note_on_c, 3, 76, 82
5, 60779, Note_on_c, 3, 76, 0
5, 60780, Note_on_c, 3, 76, 82
5, 60809, Note_on_c, 3, 76, 0
5, 60810, Note_on_c, 3, 73, 107
5, 60839, Note_on_c, 3, 73, 0
5, 60840, Note_on_c, 3, 73, 102
5, 60869, Note_on_c, 3, 73, 0
5, 60870, Note_on_c, 3, 78, 98
5, 60899, Note_on_c, 3, 78, 0
5, 60900, Note_on_c, 3, 78, 100
5, 60929, Note_on_c, 3, 78, 0
5, 60930, Note_on_c, 3, 73, 93
5, 60959, Note_on_c, 3, 73, 0
5, 60960, Note_on_c, 3, 73, 93
5, 60989, Note_on_c, 3, 73, 0
5, 60990, Note_on_c, 3, 70, 102
5, 61019, Note_on_c, 3, 70, 0
5, 61020, Note_on_c, 3, 71, 105
5, 61079, Note_on_c, 3, 71, 0
5, 61110, Note_on_c, 3, 71, 100
5, 61139, Note_on_c, 3, 71, 0
5, 61140, Note_on_c, 3, 76, 107
5, 61169, Note_on_c, 3, 76, 0
5, 61230, Note_on_c, 3, 73, 113
5, 61259, Note_on_c, 3, 73, 0
5, 61260, Note_on_c, 3, 74, 105
5, 61289, Note_on_c, 3, 74, 0
5, 61350, Note_on_c, 3, 67, 95
5, 61379, Note_on_c, 3, 67, 0
5, 61380, Note_on_c, 3, 72, 116
5, 61439, Note_on_c, 3, 72, 0
5, 61470, Note_on_c, 3, 70, 107
5, 61499, Note_on_c, 3, 70, 0
5, 61500, Note_on_c, 3, 71, 105
5, 61559, Note_on_c, 3, 71, 0
5, 61590, Note_on_c, 3, 67, 100
5, 61612, Note_on_c, 3, 67, 0
5, 61620, Note_on_c, 3, 66, 105
5, 61667, Note_on_c, 3, 66, 0
5, 61680, Note_on_c, 3, 66, 107
5, 61728, Note_on_c, 3, 66, 0
5, 61740, Note_on_c, 3, 66, 107
5, 61757, Note_on_c, 3, 66, 0
5, 61770, Note_on_c, 3, 66, 107
5, 61787, Note_on_c, 3, 66, 0
5, 61800, Note_on_c, 3, 66, 110
5, 61822, Note_on_c, 3, 66, 0
5, 61830, Note_on_c, 3, 62, 93
5, 61848, Note_on_c, 3, 62, 0
5, 61860, Note_on_c, 3, 62, 98
5, 61885, Note_on_c, 3, 62, 0
5, 61890, Note_on_c, 3, 59, 89
5, 61907, Note_on_c, 3, 59, 0
5, 61920, Note_on_c, 3, 59, 107
5, 62037, Note_on_c, 3, 59, 0
5, 62100, Note_on_c, 3, 79, 113
5, 62178, Note_on_c, 3, 79, 0
5, 62280, Note_on_c, 3, 81, 107
5, 62338, Note_on_c, 3, 81, 0
5, 62460, Note_on_c, 3, 83, 107
5, 62524, Note_on_c, 3, 83, 0
5, 63180, Note_on_c, 3, 79, 113
5, 63252, Note_on_c, 3, 79, 0
5, 63360, Note_on_c, 3, 81, 110
5, 63422, Note_on_c, 3, 81, 0
5, 63540, Note_on_c, 3, 83, 102
5, 63607, Note_on_c, 3, 83, 0
5, 64470, Note_on_c, 3, 83, 102
5, 64489, Note_on_c, 3, 83, 0
5, 64500, Note_on_c, 3, 83, 100
5, 64520, Note_on_c, 3, 83, 0
5, 64530, Note_on_c, 3, 79, 102
5, 64549, Note_on_c, 3, 79, 0
5, 64560, Note_on_c, 3, 79, 98
5, 64587, Note_on_c, 3, 79, 0
5, 64590, Note_on_c, 3, 76, 91
5, 64612, Note_on_c, 3, 76, 0
5, 64620, Note_on_c, 3, 73, 95
5, 64707, Note_on_c, 3, 73, 0
5, 64830, Note_on_c, 3, 85, 102
5, 64846, Note_on_c, 3, 85, 0
5, 64860, Note_on_c, 3, 85, 100
5, 64886, Note_on_c, 3, 85, 0
5, 64890, Note_on_c, 3, 81, 85
5, 64906, Note_on_c, 3, 81, 0
5, 64920, Note_on_c, 3, 81, 85
5, 64939, Note_on_c, 3, 81, 0
5, 64950, Note_on_c, 3, 78, 91
5, 64976, Note_on_c, 3, 78, 0
5, 64980, Note_on_c, 3, 74, 98
5, 65069, Note_on_c, 3, 74, 0
5, 65190, Note_on_c, 3, 86, 102
5, 65207, Note_on_c, 3, 86, 0
5, 65220, Note_on_c, 3, 86, 105
5, 65242, Note_on_c, 3, 86, 0
5, 65250, Note_on_c, 3, 83, 105
5, 65266, Note_on_c, 3, 83, 0
5, 65280, Note_on_c, 3, 83, 89
5, 65302, Note_on_c, 3, 83, 0
5, 65310, Note_on_c, 3, 79, 113
5, 65327, Note_on_c, 3, 79, 0
5, 65340, Note_on_c, 3, 79, 102
5, 65414, Note_on_c, 3, 79, 0
5, 65550, Note_on_c, 3, 79, 105
5, 65570, Note_on_c, 3, 79, 0
5, 65580, Note_on_c, 3, 79, 100
5, 65601, Note_on_c, 3, 79, 0
5, 65610, Note_on_c, 3, 76, 105
5, 65627, Note_on_c, 3, 76, 0
5, 65640, Note_on_c, 3, 76, 98
5, 65661, Note_on_c, 3, 76, 0
5, 65670, Note_on_c, 3, 73, 102
5, 65688, Note_on_c, 3, 73, 0
5, 65700, Note_on_c, 3, 73, 105
5, 65770, Note_on_c, 3, 73, 0
5, 65910, Note_on_c, 3, 64, 102
5, 65929, Note_on_c, 3, 64, 0
5, 65940, Note_on_c, 3, 64, 95
5, 65962, Note_on_c, 3, 64, 0
5, 65970, Note_on_c, 3, 69, 102
5, 65987, Note_on_c, 3, 69, 0
5, 66000, Note_on_c, 3, 69, 102
5, 66022, Note_on_c, 3, 69, 0
5, 66030, Note_on_c, 3, 73, 110
5, 66050, Note_on_c, 3, 73, 0
5, 66060, Note_on_c, 3, 74, 102
5, 66150, Note_on_c, 3, 74, 0
5, 66240, Note_on_c, 3, 76, 110
5, 66322, Note_on_c, 3, 76, 0
5, 66420, Note_on_c, 3, 78, 116
5, 66497, Note_on_c, 3, 78, 0
5, 67140, Note_on_c, 3, 74, 110
5, 67208, Note_on_c, 3, 74, 0
5, 67320, Note_on_c, 3, 76, 113
5, 67378, Note_on_c, 3, 76, 0
5, 67500, Note_on_c, 3, 78, 110
5, 67555, Note_on_c, 3, 78, 0
5, 67560, Note_on_c, 3, 76, 102
5, 67613, Note_on_c, 3, 76, 0
5, 67620, Note_on_c, 3, 74, 100
5, 67688, Note_on_c, 3, 74, 0
5, 67740, Note_on_c, 3, 74, 105
5, 67758, Note_on_c, 3, 74, 0
5, 67770, Note_on_c, 3, 76, 113
5, 67791, Note_on_c, 3, 76, 0
5, 67800, Note_on_c, 3, 78, 110
5, 67855, Note_on_c, 3, 78, 0
5, 67860, Note_on_c, 3, 76, 100
5, 67914, Note_on_c, 3, 76, 0
5, 67920, Note_on_c, 3, 74, 105
5, 67967, Note_on_c, 3, 74, 0
5, 67980, Note_on_c, 3, 73, 107
5, 68044, Note_on_c, 3, 73, 0
5, 68100, Note_on_c, 3, 73, 110
5, 68120, Note_on_c, 3, 73, 0
5, 68130, Note_on_c, 3, 74, 105
5, 68150, Note_on_c, 3, 74, 0
5, 68160, Note_on_c, 3, 76, 102
5, 68206, Note_on_c, 3, 76, 0
5, 68220, Note_on_c, 3, 74, 116
5, 68323, Note_on_c, 3, 74, 0
5, 68610, Note_on_c, 3, 72, 105
5, 68628, Note_on_c, 3, 72, 0
5, 68640, Note_on_c, 3, 72, 98
5, 68662, Note_on_c, 3, 72, 0
5, 68670, Note_on_c, 3, 69, 105
5, 68688, Note_on_c, 3, 69, 0
5, 68700, Note_on_c, 3, 69, 87
5, 68727, Note_on_c, 3, 69, 0
5, 68730, Note_on_c, 3, 66, 105
5, 68748, Note_on_c, 3, 66, 0
5, 68760, Note_on_c, 3, 66, 91
5, 68790, Note_on_c, 3, 62, 102
5, 68792, Note_on_c, 3, 66, 0
5, 68809, Note_on_c, 3, 62, 0
5, 68820, Note_on_c, 3, 62, 95
5, 68847, Note_on_c, 3, 62, 0
5, 68850, Note_on_c, 3, 74, 105
5, 68868, Note_on_c, 3, 74, 0
5, 68880, Note_on_c, 3, 74, 107
5, 68898, Note_on_c, 3, 74, 0
5, 68910, Note_on_c, 3, 74, 105
5, 68928, Note_on_c, 3, 74, 0
5, 68940, Note_on_c, 3, 74, 102
5, 69004, Note_on_c, 3, 74, 0
5, 69330, Note_on_c, 3, 77, 98
5, 69345, Note_on_c, 3, 77, 0
5, 69360, Note_on_c, 3, 77, 102
5, 69383, Note_on_c, 3, 77, 0
5, 69390, Note_on_c, 3, 74, 100
5, 69406, Note_on_c, 3, 74, 0
5, 69420, Note_on_c, 3, 74, 89
5, 69443, Note_on_c, 3, 74, 0
5, 69450, Note_on_c, 3, 71, 85
5, 69471, Note_on_c, 3, 71, 0
5, 69480, Note_on_c, 3, 71, 102
5, 69540, Note_on_c, 3, 72, 116
5, 69541, Note_on_c, 3, 71, 0
5, 69570, Note_on_c, 3, 74, 105
5, 69575, Note_on_c, 3, 72, 0
5, 69600, Note_on_c, 3, 76, 110
5, 69606, Note_on_c, 3, 74, 0
5, 69630, Note_on_c, 3, 77, 110
5, 69634, Note_on_c, 3, 76, 0
5, 69660, Note_on_c, 3, 76, 105
5, 69663, Note_on_c, 3, 77, 0
5, 69690, Note_on_c, 3, 77, 116
5, 69694, Note_on_c, 3, 76, 0
5, 69720, Note_on_c, 3, 76, 102
5, 69722, Note_on_c, 3, 77, 0
5, 69750, Note_on_c, 3, 74, 102
5, 69758, Note_on_c, 3, 76, 0
5, 69780, Note_on_c, 3, 72, 107
5, 69787, Note_on_c, 3, 74, 0
5, 69810, Note_on_c, 3, 71, 78
5, 69811, Note_on_c, 3, 72, 0
5, 69837, Note_on_c, 3, 71, 0
5, 69840, Note_on_c, 3, 69, 95
5, 69869, Note_on_c, 3, 69, 0
5, 69870, Note_on_c, 3, 74, 102
5, 69891, Note_on_c, 3, 74, 0
5, 69900, Note_on_c, 3, 74, 105
5, 69930, Note_on_c, 3, 71, 100
5, 69932, Note_on_c, 3, 74, 0
5, 69952, Note_on_c, 3, 71, 0
5, 69960, Note_on_c, 3, 71, 98
5, 69990, Note_on_c, 3, 67, 102
5, 69991, Note_on_c, 3, 71, 0
5, 70013, Note_on_c, 3, 67, 0
5, 70020, Note_on_c, 3, 67, 102
5, 70048, Note_on_c, 3, 67, 0
5, 70050, Note_on_c, 3, 72, 105
5, 70069, Note_on_c, 3, 72, 0
5, 70080, Note_on_c, 3, 72, 102
5, 70110, Note_on_c, 3, 69, 105
5, 70112, Note_on_c, 3, 72, 0
5, 70128, Note_on_c, 3, 69, 0
5, 70140, Note_on_c, 3, 69, 98
5, 70169, Note_on_c, 3, 69, 0
5, 70170, Note_on_c, 3, 66, 110
5, 70189, Note_on_c, 3, 66, 0
5, 70200, Note_on_c, 3, 66, 100
5, 70224, Note_on_c, 3, 66, 0
5, 70230, Note_on_c, 3, 71, 105
5, 70249, Note_on_c, 3, 71, 0
5, 70260, Note_on_c, 3, 71, 100
5, 70288, Note_on_c, 3, 71, 0
5, 70290, Note_on_c, 3, 67, 102
5, 70311, Note_on_c, 3, 67, 0
5, 70320, Note_on_c, 3, 67, 98
5, 70348, Note_on_c, 3, 67, 0
5, 70350, Note_on_c, 3, 64, 107
5, 70367, Note_on_c, 3, 64, 0
5, 70380, Note_on_c, 3, 64, 102
5, 70452, Note_on_c, 3, 64, 0
5, 70590, Note_on_c, 3, 76, 100
5, 70609, Note_on_c, 3, 76, 0
5, 70620, Note_on_c, 3, 76, 105
5, 70650, Note_on_c, 3, 72, 105
5, 70653, Note_on_c, 3, 76, 0
5, 70669, Note_on_c, 3, 72, 0
5, 70680, Note_on_c, 3, 72, 102
5, 70708, Note_on_c, 3, 72, 0
5, 70710, Note_on_c, 3, 69, 105
5, 70729, Note_on_c, 3, 69, 0
5, 70740, Note_on_c, 3, 69, 105
5, 70805, Note_on_c, 3, 69, 0
5, 70950, Note_on_c, 3, 78, 105
5, 70971, Note_on_c, 3, 78, 0
5, 70980, Note_on_c, 3, 78, 95
5, 71007, Note_on_c, 3, 78, 0
5, 71010, Note_on_c, 3, 74, 85
5, 71028, Note_on_c, 3, 74, 0
5, 71040, Note_on_c, 3, 74, 82
5, 71065, Note_on_c, 3, 74, 0
5, 71070, Note_on_c, 3, 71, 100
5, 71089, Note_on_c, 3, 71, 0
5, 71100, Note_on_c, 3, 71, 102
5, 71158, Note_on_c, 3, 71, 0
5, 71310, Note_on_c, 3, 79, 105
5, 71331, Note_on_c, 3, 79, 0
5, 71340, Note_on_c, 3, 79, 102
5, 71370, Note_on_c, 3, 76, 102
5, 71374, Note_on_c, 3, 79, 0
5, 71390, Note_on_c, 3, 76, 0
5, 71400, Note_on_c, 3, 76, 102
5, 71426, Note_on_c, 3, 76, 0
5, 71430, Note_on_c, 3, 72, 105
5, 71452, Note_on_c, 3, 72, 0
5, 71460, Note_on_c, 3, 72, 105
5, 71510, Note_on_c, 3, 72, 0
5, 71670, Note_on_c, 3, 84, 110
5, 71689, Note_on_c, 3, 84, 0
5, 71700, Note_on_c, 3, 84, 105
5, 71730, Note_on_c, 3, 81, 105
5, 71732, Note_on_c, 3, 84, 0
5, 71749, Note_on_c, 3, 81, 0
5, 71760, Note_on_c, 3, 81, 100
5, 71785, Note_on_c, 3, 81, 0
5, 71790, Note_on_c, 3, 78, 105
5, 71807, Note_on_c, 3, 78, 0
5, 71820, Note_on_c, 3, 78, 113
5, 71880, Note_on_c, 3, 78, 0
5, 72030, Note_on_c, 3, 78, 116
5, 72045, Note_on_c, 3, 78, 0
5, 72060, Note_on_c, 3, 78, 107
5, 72080, Note_on_c, 3, 78, 0
5, 72090, Note_on_c, 3, 74, 91
5, 72107, Note_on_c, 3, 74, 0
5, 72120, Note_on_c, 3, 74, 107
5, 72135, Note_on_c, 3, 74, 0
5, 72150, Note_on_c, 3, 74, 100
5, 72168, Note_on_c, 3, 74, 0
5, 72180, Note_on_c, 3, 79, 105
5, 72255, Note_on_c, 3, 79, 0
5, 72360, Note_on_c, 3, 81, 105
5, 72437, Note_on_c, 3, 81, 0
5, 72540, Note_on_c, 3, 83, 105
5, 72609, Note_on_c, 3, 83, 0
5, 73260, Note_on_c, 3, 79, 107
5, 73360, Note_on_c, 3, 79, 0
5, 73440, Note_on_c, 3, 81, 119
5, 73512, Note_on_c, 3, 81, 0
5, 73620, Note_on_c, 3, 83, 110
5, 73676, Note_on_c, 3, 83, 0
5, 73800, Note_on_c, 3, 86, 110
5, 73864, Note_on_c, 3, 86, 0
5, 73980, Note_on_c, 3, 81, 100
5, 74044, Note_on_c, 3, 81, 0
5, 74160, Note_on_c, 3, 84, 100
5, 74213, Note_on_c, 3, 84, 0
5, 74340, Note_on_c, 3, 83, 107
5, 74381, Note_on_c, 3, 83, 0
5, 74460, Note_on_c, 3, 67, 100
5, 74506, Note_on_c, 3, 67, 0
5, 74520, Note_on_c, 3, 67, 107
5, 74573, Note_on_c, 3, 67, 0
5, 74640, Note_on_c, 3, 69, 107
5, 74687, Note_on_c, 3, 69, 0
5, 74700, Note_on_c, 3, 69, 110
5, 74756, Note_on_c, 3, 69, 0
5, 74820, Note_on_c, 3, 71, 102
5, 74870, Note_on_c, 3, 71, 0
5, 74880, Note_on_c, 3, 71, 107
5, 74925, Note_on_c, 3, 71, 0
5, 75000, Note_on_c, 3, 71, 98
5, 75048, Note_on_c, 3, 71, 0
5, 75060, Note_on_c, 3, 76, 110
5, 75120, Note_on_c, 3, 69, 105
5, 75124, Note_on_c, 3, 76, 0
5, 75175, Note_on_c, 3, 69, 0
5, 75180, Note_on_c, 3, 74, 102
5, 75226, Note_on_c, 3, 74, 0
5, 75240, Note_on_c, 3, 74, 100
5, 75268, Note_on_c, 3, 74, 0
5, 75270, Note_on_c, 3, 76, 110
5, 75300, Note_on_c, 3, 74, 105
5, 75302, Note_on_c, 3, 76, 0
5, 75330, Note_on_c, 3, 72, 119
5, 75339, Note_on_c, 3, 74, 0
5, 75360, Note_on_c, 3, 71, 113
5, 75365, Note_on_c, 3, 72, 0
5, 75390, Note_on_c, 3, 69, 91
5, 75393, Note_on_c, 3, 71, 0
5, 75420, Note_on_c, 3, 67, 119
5, 75426, Note_on_c, 3, 69, 0
5, 75478, Note_on_c, 3, 67, 0
5, 75480, Note_on_c, 3, 71, 116
5, 75540, Note_on_c, 3, 67, 119
5, 75542, Note_on_c, 3, 71, 0
5, 75599, Note_on_c, 3, 67, 0
5, 75600, Note_on_c, 3, 64, 116
5, 75780, Note_on_c, 3, 64, 0
5, 75810, Note_on_c, 3, 76, 107
5, 75828, Note_on_c, 3, 76, 0
5, 75840, Note_on_c, 3, 76, 102
5, 75863, Note_on_c, 3, 76, 0
5, 75870, Note_on_c, 3, 72, 107
5, 75888, Note_on_c, 3, 72, 0
5, 75900, Note_on_c, 3, 72, 102
5, 75923, Note_on_c, 3, 72, 0
5, 75930, Note_on_c, 3, 69, 107
5, 75947, Note_on_c, 3, 69, 0
5, 75960, Note_on_c, 3, 69, 105
5, 75983, Note_on_c, 3, 69, 0
5, 75990, Note_on_c, 3, 74, 100
5, 76007, Note_on_c, 3, 74, 0
5, 76020, Note_on_c, 3, 74, 105
5, 76042, Note_on_c, 3, 74, 0
5, 76050, Note_on_c, 3, 69, 102
5, 76068, Note_on_c, 3, 69, 0
5, 76080, Note_on_c, 3, 69, 89
5, 76103, Note_on_c, 3, 69, 0
5, 76110, Note_on_c, 3, 66, 105
5, 76136, Note_on_c, 3, 66, 0
5, 76140, Note_on_c, 3, 62, 91
5, 76170, Note_on_c, 3, 62, 0
5, 76170, Note_on_c, 3, 74, 107
5, 76193, Note_on_c, 3, 74, 0
5, 76200, Note_on_c, 3, 79, 107
5, 76253, Note_on_c, 3, 79, 0
5, 76290, Note_on_c, 3, 76, 113
5, 76313, Note_on_c, 3, 76, 0
5, 76320, Note_on_c, 3, 78, 113
5, 76375, Note_on_c, 3, 78, 0
5, 76410, Note_on_c, 3, 71, 100
5, 76431, Note_on_c, 3, 71, 0
5, 76440, Note_on_c, 3, 76, 107
5, 76482, Note_on_c, 3, 76, 0
5, 76530, Note_on_c, 3, 76, 102
5, 76560, Note_on_c, 3, 74, 105
5, 76564, Note_on_c, 3, 76, 0
5, 76590, Note_on_c, 3, 72, 105
5, 76597, Note_on_c, 3, 74, 0
5, 76620, Note_on_c, 3, 71, 110
5, 76623, Note_on_c, 3, 72, 0
5, 76647, Note_on_c, 3, 71, 0
5, 76650, Note_on_c, 3, 69, 93
5, 76680, Note_on_c, 3, 71, 116
5, 76681, Note_on_c, 3, 69, 0
5, 76710, Note_on_c, 3, 72, 110
5, 76715, Note_on_c, 3, 71, 0
5, 76737, Note_on_c, 3, 72, 0
5, 76740, Note_on_c, 3, 69, 119
5, 76829, Note_on_c, 3, 69, 0
5, 76830, Note_on_c, 3, 67, 127
5, 76856, Note_on_c, 3, 67, 0
5, 76860, Note_on_c, 3, 67, 116
5, 77040, Note_on_c, 3, 67, 0
5, 77040, End_track
6, 0, Start_track
6, 0, MIDI_port, 0
6, 0, Title_t, "Vn sec 2"
6, 0, Program_c, 4, 48
6, 0, Control_c, 4, 7, 90
6, 0, Control_c, 4, 10, 110
6, 180, Note_on_c, 4, 74, 102
6, 250, Note_on_c, 4, 74, 0
6, 360, Note_on_c, 4, 78, 110
6, 414, Note_on_c, 4, 78, 0
6, 540, Note_on_c, 4, 79, 102
6, 583, Note_on_c, 4, 79, 0
6, 1260, Note_on_c, 4, 74, 105
6, 1327, Note_on_c, 4, 74, 0
6, 1440, Note_on_c, 4, 78, 107
6, 1500, Note_on_c, 4, 78, 0
6, 1620, Note_on_c, 4, 79, 102
6, 1670, Note_on_c, 4, 79, 0
6, 2550, Note_on_c, 4, 79, 100
6, 2568, Note_on_c, 4, 79, 0
6, 2580, Note_on_c, 4, 79, 98
6, 2597, Note_on_c, 4, 79, 0
6, 2610, Note_on_c, 4, 79, 100
6, 2624, Note_on_c, 4, 79, 0
6, 2640, Note_on_c, 4, 79, 100
6, 2654, Note_on_c, 4, 79, 0
6, 2670, Note_on_c, 4, 79, 102
6, 2684, Note_on_c, 4, 79, 0
6, 2700, Note_on_c, 4, 79, 105
6, 2777, Note_on_c, 4, 79, 0
6, 2910, Note_on_c, 4, 81, 98
6, 2924, Note_on_c, 4, 81, 0
6, 2940, Note_on_c, 4, 81, 93
6, 2952, Note_on_c, 4, 81, 0
6, 2970, Note_on_c, 4, 81, 91
6, 2981, Note_on_c, 4, 81, 0
6, 3000, Note_on_c, 4, 81, 102
6, 3012, Note_on_c, 4, 81, 0
6, 3030, Note_on_c, 4, 81, 102
6, 3043, Note_on_c, 4, 81, 0
6, 3060, Note_on_c, 4, 81, 105
6, 3105, Note_on_c, 4, 81, 0
6, 3270, Note_on_c, 4, 83, 100
6, 3286, Note_on_c, 4, 83, 0
6, 3300, Note_on_c, 4, 83, 98
6, 3315, Note_on_c, 4, 83, 0
6, 3330, Note_on_c, 4, 83, 100
6, 3343, Note_on_c, 4, 83, 0
6, 3360, Note_on_c, 4, 83, 98
6, 3373, Note_on_c, 4, 83, 0
6, 3390, Note_on_c, 4, 83, 100
6, 3403, Note_on_c, 4, 83, 0
6, 3420, Note_on_c, 4, 83, 102
6, 3476, Note_on_c, 4, 83, 0
6, 3630, Note_on_c, 4, 76, 91
6, 3644, Note_on_c, 4, 76, 0
6, 3660, Note_on_c, 4, 76, 100
6, 3674, Note_on_c, 4, 76, 0
6, 3690, Note_on_c, 4, 76, 98
6, 3701, Note_on_c, 4, 76, 0
6, 3720, Note_on_c, 4, 76, 98
6, 3731, Note_on_c, 4, 76, 0
6, 3750, Note_on_c, 4, 76, 100
6, 3760, Note_on_c, 4, 76, 0
6, 3780, Note_on_c, 4, 76, 102
6, 3832, Note_on_c, 4, 76, 0
6, 3990, Note_on_c, 4, 69, 102
6, 4004, Note_on_c, 4, 69, 0
6, 4020, Note_on_c, 4, 69, 100
6, 4033, Note_on_c, 4, 69, 0
6, 4050, Note_on_c, 4, 69, 93
6, 4060, Note_on_c, 4, 69, 0
6, 4080, Note_on_c, 4, 69, 98
6, 4091, Note_on_c, 4, 69, 0
6, 4110, Note_on_c, 4, 69, 100
6, 4121, Note_on_c, 4, 69, 0
6, 4140, Note_on_c, 4, 69, 102
6, 4209, Note_on_c, 4, 69, 0
6, 4320, Note_on_c, 4, 73, 110
6, 4410, Note_on_c, 4, 73, 0
6, 4500, Note_on_c, 4, 74, 102
6, 4549, Note_on_c, 4, 74, 0
6, 5220, Note_on_c, 4, 69, 107
6, 5302, Note_on_c, 4, 69, 0
6, 5400, Note_on_c, 4, 73, 110
6, 5476, Note_on_c, 4, 73, 0
6, 5580, Note_on_c, 4, 69, 102
6, 5633, Note_on_c, 4, 69, 0
6, 5640, Note_on_c, 4, 67, 102
6, 5690, Note_on_c, 4, 67, 0
6, 5700, Note_on_c, 4, 66, 110
6, 5764, Note_on_c, 4, 66, 0
6, 5820, Note_on_c, 4, 66, 110
6, 5839, Note_on_c, 4, 66, 0
6, 5850, Note_on_c, 4, 67, 100
6, 5868, Note_on_c, 4, 67, 0
6, 5880, Note_on_c, 4, 69, 105
6, 5925, Note_on_c, 4, 69, 0
6, 5940, Note_on_c, 4, 67, 105
6, 5994, Note_on_c, 4, 67, 0
6, 6000, Note_on_c, 4, 66, 107
6, 6049, Note_on_c, 4, 66, 0
6, 6060, Note_on_c, 4, 64, 105
6, 6117, Note_on_c, 4, 64, 0
6, 6180, Note_on_c, 4, 64, 105
6, 6199, Note_on_c, 4, 64, 0
6, 6210, Note_on_c, 4, 66, 105
6, 6232, Note_on_c, 4, 66, 0
6, 6240, Note_on_c, 4, 67, 102
6, 6279, Note_on_c, 4, 67, 0
6, 6300, Note_on_c, 4, 66, 116
6, 6352, Note_on_c, 4, 66, 0
6, 6690, Note_on_c, 4, 69, 105
6, 6707, Note_on_c, 4, 69, 0
6, 6720, Note_on_c, 4, 69, 98
6, 6738, Note_on_c, 4, 69, 0
6, 6750, Note_on_c, 4, 66, 107
6, 6765, Note_on_c, 4, 66, 0
6, 6780, Note_on_c, 4, 66, 107
6, 6805, Note_on_c, 4, 66, 0
6, 6810, Note_on_c, 4, 62, 85
6, 6828, Note_on_c, 4, 62, 0
6, 6840, Note_on_c, 4, 62, 89
6, 6869, Note_on_c, 4, 62, 0
6, 6870, Note_on_c, 4, 66, 100
6, 6900, Note_on_c, 4, 67, 70
6, 6902, Note_on_c, 4, 66, 0
6, 6930, Note_on_c, 4, 69, 110
6, 6934, Note_on_c, 4, 67, 0
6, 6960, Note_on_c, 4, 71, 107
6, 6967, Note_on_c, 4, 69, 0
6, 6990, Note_on_c, 4, 72, 107
6, 6997, Note_on_c, 4, 71, 0
6, 7020, Note_on_c, 4, 71, 127
6, 7024, Note_on_c, 4, 72, 0
6, 7092, Note_on_c, 4, 71, 0
6, 7410, Note_on_c, 4, 74, 98
6, 7426, Note_on_c, 4, 74, 0
6, 7440, Note_on_c, 4, 74, 85
6, 7440, Note_on_c, 4, 72, 91
6, 7450, Note_on_c, 4, 72, 0
6, 7453, Note_on_c, 4, 74, 0
6, 7470, Note_on_c, 4, 74, 98
6, 7486, Note_on_c, 4, 74, 0
6, 7500, Note_on_c, 4, 74, 93
6, 7513, Note_on_c, 4, 74, 0
6, 7530, Note_on_c, 4, 74, 105
6, 7545, Note_on_c, 4, 74, 0
6, 7560, Note_on_c, 4, 74, 107
6, 7590, Note_on_c, 4, 74, 0
6, 7590, Note_on_c, 4, 67, 82
6, 7620, Note_on_c, 4, 69, 110
6, 7624, Note_on_c, 4, 67, 0
6, 7650, Note_on_c, 4, 71, 113
6, 7659, Note_on_c, 4, 69, 0
6, 7680, Note_on_c, 4, 72, 110
6, 7691, Note_on_c, 4, 71, 0
6, 7710, Note_on_c, 4, 74, 107
6, 7712, Note_on_c, 4, 72, 0
6, 7740, Note_on_c, 4, 72, 110
6, 7744, Note_on_c, 4, 74, 0
6, 7795, Note_on_c, 4, 72, 0
6, 7860, Note_on_c, 4, 76, 105
6, 7920, Note_on_c, 4, 69, 100
6, 7924, Note_on_c, 4, 76, 0
6, 7980, Note_on_c, 4, 71, 110
6, 7984, Note_on_c, 4, 69, 0
6, 8040, Note_on_c, 4, 74, 93
6, 8047, Note_on_c, 4, 71, 0
6, 8100, Note_on_c, 4, 67, 93
6, 8101, Note_on_c, 4, 74, 0
6, 8158, Note_on_c, 4, 67, 0
6, 8160, Note_on_c, 4, 69, 110
6, 8220, Note_on_c, 4, 72, 105
6, 8221, Note_on_c, 4, 69, 0
6, 8275, Note_on_c, 4, 72, 0
6, 8280, Note_on_c, 4, 66, 102
6, 8340, Note_on_c, 4, 67, 105
6, 8341, Note_on_c, 4, 66, 0
6, 8400, Note_on_c, 4, 71, 93
6, 8405, Note_on_c, 4, 67, 0
6, 8460, Note_on_c, 4, 71, 0
6, 8460, Note_on_c, 4, 64, 85
6, 8520, Note_on_c, 4, 76, 107
6, 8524, Note_on_c, 4, 64, 0
6, 8580, Note_on_c, 4, 74, 100
6, 8582, Note_on_c, 4, 76, 0
6, 8640, Note_on_c, 4, 72, 87
6, 8641, Note_on_c, 4, 74, 0
6, 8670, Note_on_c, 4, 76, 102
6, 8672, Note_on_c, 4, 72, 0
6, 8686, Note_on_c, 4, 76, 0
6, 8700, Note_on_c, 4, 76, 100
6, 8715, Note_on_c, 4, 76, 0
6, 8730, Note_on_c, 4, 76, 105
6, 8747, Note_on_c, 4, 76, 0
6, 8760, Note_on_c, 4, 76, 100
6, 8775, Note_on_c, 4, 76, 0
6, 8790, Note_on_c, 4, 76, 98
6, 8809, Note_on_c, 4, 76, 0
6, 8820, Note_on_c, 4, 78, 105
6, 8869, Note_on_c, 4, 78, 0
6, 8880, Note_on_c, 4, 78, 107
6, 8935, Note_on_c, 4, 78, 0
6, 8940, Note_on_c, 4, 76, 105
6, 9000, Note_on_c, 4, 74, 98
6, 9003, Note_on_c, 4, 76, 0
6, 9026, Note_on_c, 4, 74, 0
6, 9030, Note_on_c, 4, 78, 107
6, 9047, Note_on_c, 4, 78, 0
6, 9060, Note_on_c, 4, 78, 107
6, 9074, Note_on_c, 4, 78, 0
6, 9090, Note_on_c, 4, 78, 105
6, 9105, Note_on_c, 4, 78, 0
6, 9120, Note_on_c, 4, 78, 107
6, 9135, Note_on_c, 4, 78, 0
6, 9150, Note_on_c, 4, 78, 100
6, 9173, Note_on_c, 4, 78, 0
6, 9180, Note_on_c, 4, 79, 100
6, 9230, Note_on_c, 4, 79, 0
6, 9240, Note_on_c, 4, 79, 105
6, 9300, Note_on_c, 4, 78, 100
6, 9304, Note_on_c, 4, 79, 0
6, 9360, Note_on_c, 4, 76, 87
6, 9363, Note_on_c, 4, 78, 0
6, 9389, Note_on_c, 4, 76, 0
6, 9390, Note_on_c, 4, 79, 82
6, 9406, Note_on_c, 4, 79, 0
6, 9420, Note_on_c, 4, 79, 91
6, 9436, Note_on_c, 4, 79, 0
6, 9450, Note_on_c, 4, 79, 93
6, 9465, Note_on_c, 4, 79, 0
6, 9480, Note_on_c, 4, 79, 98
6, 9495, Note_on_c, 4, 79, 0
6, 9510, Note_on_c, 4, 79, 100
6, 9527, Note_on_c, 4, 79, 0
6, 9540, Note_on_c, 4, 81, 107
6, 9615, Note_on_c, 4, 81, 0
6, 9750, Note_on_c, 4, 81, 105
6, 9768, Note_on_c, 4, 81, 0
6, 9780, Note_on_c, 4, 81, 102
6, 9797, Note_on_c, 4, 81, 0
6, 9810, Note_on_c, 4, 81, 100
6, 9824, Note_on_c, 4, 81, 0
6, 9840, Note_on_c, 4, 81, 100
6, 9856, Note_on_c, 4, 81, 0
6, 9870, Note_on_c, 4, 81, 98
6, 9886, Note_on_c, 4, 81, 0
6, 9900, Note_on_c, 4, 81, 105
6, 9961, Note_on_c, 4, 81, 0
6, 10110, Note_on_c, 4, 69, 87
6, 10126, Note_on_c, 4, 69, 0
6, 10140, Note_on_c, 4, 69, 100
6, 10168, Note_on_c, 4, 69, 0
6, 10170, Note_on_c, 4, 74, 100
6, 10187, Note_on_c, 4, 74, 0
6, 10200, Note_on_c, 4, 74, 105
6, 10223, Note_on_c, 4, 74, 0
6, 10230, Note_on_c, 4, 78, 105
6, 10258, Note_on_c, 4, 78, 0
6, 10260, Note_on_c, 4, 74, 116
6, 10333, Note_on_c, 4, 74, 0
6, 10440, Note_on_c, 4, 78, 116
6, 10508, Note_on_c, 4, 78, 0
6, 10620, Note_on_c, 4, 79, 102
6, 10677, Note_on_c, 4, 79, 0
6, 11340, Note_on_c, 4, 74, 107
6, 11425, Note_on_c, 4, 74, 0
6, 11520, Note_on_c, 4, 78, 113
6, 11596, Note_on_c, 4, 78, 0
6, 11700, Note_on_c, 4, 79, 107
6, 11748, Note_on_c, 4, 79, 0
6, 11880, Note_on_c, 4, 83, 105
6, 11948, Note_on_c, 4, 83, 0
6, 12060, Note_on_c, 4, 78, 107
6, 12118, Note_on_c, 4, 78, 0
6, 12240, Note_on_c, 4, 81, 105
6, 12296, Note_on_c, 4, 81, 0
6, 12420, Note_on_c, 4, 79, 95
6, 12458, Note_on_c, 4, 79, 0
6, 12540, Note_on_c, 4, 62, 105
6, 12580, Note_on_c, 4, 62, 0
6, 12600, Note_on_c, 4, 64, 98
6, 12687, Note_on_c, 4, 64, 0
6, 12720, Note_on_c, 4, 64, 105
6, 12769, Note_on_c, 4, 64, 0
6, 12780, Note_on_c, 4, 66, 110
6, 12844, Note_on_c, 4, 66, 0
6, 12900, Note_on_c, 4, 66, 107
6, 12948, Note_on_c, 4, 66, 0
6, 12960, Note_on_c, 4, 67, 105
6, 13009, Note_on_c, 4, 67, 0
6, 13080, Note_on_c, 4, 67, 100
6, 13119, Note_on_c, 4, 67, 0
6, 13140, Note_on_c, 4, 72, 107
6, 13170, Note_on_c, 4, 74, 100
6, 13176, Note_on_c, 4, 72, 0
6, 13200, Note_on_c, 4, 72, 102
6, 13201, Note_on_c, 4, 74, 0
6, 13230, Note_on_c, 4, 71, 113
6, 13239, Note_on_c, 4, 72, 0
6, 13260, Note_on_c, 4, 69, 113
6, 13264, Note_on_c, 4, 71, 0
6, 13320, Note_on_c, 4, 67, 100
6, 13321, Note_on_c, 4, 69, 0
6, 13376, Note_on_c, 4, 67, 0
6, 13380, Note_on_c, 4, 62, 113
6, 13439, Note_on_c, 4, 62, 0
6, 13440, Note_on_c, 4, 67, 113
6, 13497, Note_on_c, 4, 67, 0
6, 13500, Note_on_c, 4, 71, 105
6, 13558, Note_on_c, 4, 71, 0
6, 13560, Note_on_c, 4, 67, 107
6, 13614, Note_on_c, 4, 67, 0
6, 13620, Note_on_c, 4, 64, 102
6, 13679, Note_on_c, 4, 64, 0
6, 13680, Note_on_c, 4, 60, 102
6, 13861, Note_on_c, 4, 60, 0
6, 13890, Note_on_c, 4, 64, 98
6, 13909, Note_on_c, 4, 64, 0
6, 13920, Note_on_c, 4, 64, 98
6, 13945, Note_on_c, 4, 64, 0
6, 13950, Note_on_c, 4, 69, 102
6, 13968, Note_on_c, 4, 69, 0
6, 13980, Note_on_c, 4, 69, 93
6, 14005, Note_on_c, 4, 69, 0
6, 14010, Note_on_c, 4, 74, 93
6, 14028, Note_on_c, 4, 74, 0
6, 14040, Note_on_c, 4, 74, 102
6, 14065, Note_on_c, 4, 74, 0
6, 14070, Note_on_c, 4, 69, 100
6, 14089, Note_on_c, 4, 69, 0
6, 14100, Note_on_c, 4, 69, 105
6, 14114, Note_on_c, 4, 69, 0
6, 14130, Note_on_c, 4, 69, 102
6, 14144, Note_on_c, 4, 69, 0
6, 14160, Note_on_c, 4, 69, 100
6, 14178, Note_on_c, 4, 69, 0
6, 14190, Note_on_c, 4, 71, 100
6, 14206, Note_on_c, 4, 71, 0
6, 14220, Note_on_c, 4, 71, 110
6, 14248, Note_on_c, 4, 71, 0
6, 14250, Note_on_c, 4, 74, 105
6, 14279, Note_on_c, 4, 74, 0
6, 14280, Note_on_c, 4, 71, 113
6, 14330, Note_on_c, 4, 71, 0
6, 14370, Note_on_c, 4, 72, 102
6, 14388, Note_on_c, 4, 72, 0
6, 14400, Note_on_c, 4, 69, 116
6, 14448, Note_on_c, 4, 69, 0
6, 14490, Note_on_c, 4, 74, 105
6, 14512, Note_on_c, 4, 74, 0
6, 14520, Note_on_c, 4, 72, 113
6, 14562, Note_on_c, 4, 72, 0
6, 14610, Note_on_c, 4, 72, 110
6, 14640, Note_on_c, 4, 71, 107
6, 14647, Note_on_c, 4, 72, 0
6, 14670, Note_on_c, 4, 69, 107
6, 14675, Note_on_c, 4, 71, 0
6, 14700, Note_on_c, 4, 67, 110
6, 14708, Note_on_c, 4, 69, 0
6, 14725, Note_on_c, 4, 67, 0
6, 14730, Note_on_c, 4, 66, 107
6, 14755, Note_on_c, 4, 66, 0
6, 14760, Note_on_c, 4, 67, 98
6, 14784, Note_on_c, 4, 67, 0
6, 14790, Note_on_c, 4, 76, 107
6, 14816, Note_on_c, 4, 76, 0
6, 14820, Note_on_c, 4, 69, 107
6, 14874, Note_on_c, 4, 69, 0
6, 14880, Note_on_c, 4, 74, 102
6, 14921, Note_on_c, 4, 74, 0
6, 14940, Note_on_c, 4, 74, 95
6, 15060, Note_on_c, 4, 74, 0
6, 16020, Note_on_c, 4, 74, 95
6, 16080, Note_on_c, 4, 74, 0
6, 16200, Note_on_c, 4, 78, 95
6, 16260, Note_on_c, 4, 78, 0
6, 16380, Note_on_c, 4, 79, 95
6, 16440, Note_on_c, 4, 79, 0
6, 18540, Note_on_c, 4, 69, 95
6, 18600, Note_on_c, 4, 69, 0
6, 18720, Note_on_c, 4, 73, 95
6, 18780, Note_on_c, 4, 73, 0
6, 18900, Note_on_c, 4, 74, 95
6, 18960, Note_on_c, 4, 74, 0
6, 19980, Note_on_c, 4, 69, 95
6, 20040, Note_on_c, 4, 69, 0
6, 20160, Note_on_c, 4, 73, 95
6, 20220, Note_on_c, 4, 73, 0
6, 20340, Note_on_c, 4, 74, 95
6, 20400, Note_on_c, 4, 74, 0
6, 22500, Note_on_c, 4, 74, 95
6, 23220, Note_on_c, 4, 74, 0
6, 23280, Note_on_c, 4, 70, 95
6, 23310, Note_on_c, 4, 70, 0
6, 23310, Note_on_c, 4, 71, 95
6, 23340, Note_on_c, 4, 71, 0
6, 23340, Note_on_c, 4, 70, 95
6, 23370, Note_on_c, 4, 70, 0
6, 23370, Note_on_c, 4, 71, 95
6, 23400, Note_on_c, 4, 71, 0
6, 23400, Note_on_c, 4, 73, 95
6, 23430, Note_on_c, 4, 73, 0
6, 23430, Note_on_c, 4, 71, 95
6, 23460, Note_on_c, 4, 71, 0
6, 23460, Note_on_c, 4, 70, 95
6, 23490, Note_on_c, 4, 70, 0
6, 23490, Note_on_c, 4, 71, 95
6, 23520, Note_on_c, 4, 71, 0
6, 23520, Note_on_c, 4, 73, 95
6, 23610, Note_on_c, 4, 73, 0
6, 23610, Note_on_c, 4, 71, 95
6, 23640, Note_on_c, 4, 71, 0
6, 23640, Note_on_c, 4, 70, 95
6, 23670, Note_on_c, 4, 70, 0
6, 23670, Note_on_c, 4, 71, 95
6, 23700, Note_on_c, 4, 71, 0
6, 23700, Note_on_c, 4, 73, 95
6, 23730, Note_on_c, 4, 73, 0
6, 23730, Note_on_c, 4, 71, 95
6, 23760, Note_on_c, 4, 71, 0
6, 23760, Note_on_c, 4, 73, 95
6, 23790, Note_on_c, 4, 73, 0
6, 23790, Note_on_c, 4, 76, 95
6, 23820, Note_on_c, 4, 76, 0
6, 23820, Note_on_c, 4, 74, 95
6, 23850, Note_on_c, 4, 74, 0
6, 23850, Note_on_c, 4, 73, 95
6, 23880, Note_on_c, 4, 73, 0
6, 23880, Note_on_c, 4, 71, 95
6, 23910, Note_on_c, 4, 71, 0
6, 23910, Note_on_c, 4, 73, 95
6, 23940, Note_on_c, 4, 73, 0
6, 23940, Note_on_c, 4, 69, 95
6, 24660, Note_on_c, 4, 69, 0
6, 24660, Note_on_c, 4, 67, 95
6, 24720, Note_on_c, 4, 67, 0
6, 24840, Note_on_c, 4, 75, 95
6, 24900, Note_on_c, 4, 75, 0
6, 25020, Note_on_c, 4, 76, 95
6, 25080, Note_on_c, 4, 76, 0
6, 25200, Note_on_c, 4, 79, 95
6, 25260, Note_on_c, 4, 79, 0
6, 25380, Note_on_c, 4, 75, 95
6, 25440, Note_on_c, 4, 75, 0
6, 25560, Note_on_c, 4, 78, 95
6, 25620, Note_on_c, 4, 78, 0
6, 25740, Note_on_c, 4, 76, 95
6, 25800, Note_on_c, 4, 76, 0
6, 25860, Note_on_c, 4, 59, 95
6, 25920, Note_on_c, 4, 59, 0
6, 25920, Note_on_c, 4, 61, 95
6, 25980, Note_on_c, 4, 61, 0
6, 26040, Note_on_c, 4, 61, 95
6, 26100, Note_on_c, 4, 61, 0
6, 26100, Note_on_c, 4, 63, 95
6, 26160, Note_on_c, 4, 63, 0
6, 26220, Note_on_c, 4, 63, 95
6, 26280, Note_on_c, 4, 63, 0
6, 26280, Note_on_c, 4, 64, 95
6, 26340, Note_on_c, 4, 64, 0
6, 26400, Note_on_c, 4, 64, 95
6, 26460, Note_on_c, 4, 64, 0
6, 26460, Note_on_c, 4, 69, 95
6, 26490, Note_on_c, 4, 69, 0
6, 26490, Note_on_c, 4, 71, 95
6, 26520, Note_on_c, 4, 71, 0
6, 26520, Note_on_c, 4, 69, 95
6, 26550, Note_on_c, 4, 69, 0
6, 26550, Note_on_c, 4, 67, 95
6, 26580, Note_on_c, 4, 67, 0
6, 26580, Note_on_c, 4, 66, 95
6, 26640, Note_on_c, 4, 66, 0
6, 26640, Note_on_c, 4, 64, 95
6, 26700, Note_on_c, 4, 64, 0
6, 26700, Note_on_c, 4, 59, 95
6, 26760, Note_on_c, 4, 59, 0
6, 26760, Note_on_c, 4, 64, 95
6, 26820, Note_on_c, 4, 64, 0
6, 26820, Note_on_c, 4, 67, 95
6, 26880, Note_on_c, 4, 67, 0
6, 26880, Note_on_c, 4, 64, 95
6, 26940, Note_on_c, 4, 64, 0
6, 26940, Note_on_c, 4, 60, 95
6, 27000, Note_on_c, 4, 60, 0
6, 27000, Note_on_c, 4, 57, 95
6, 27210, Note_on_c, 4, 57, 0
6, 27210, Note_on_c, 4, 60, 95
6, 27240, Note_on_c, 4, 60, 0
6, 27240, Note_on_c, 4, 60, 95
6, 27270, Note_on_c, 4, 60, 0
6, 27270, Note_on_c, 4, 65, 95
6, 27300, Note_on_c, 4, 65, 0
6, 27300, Note_on_c, 4, 65, 95
6, 27330, Note_on_c, 4, 65, 0
6, 27330, Note_on_c, 4, 59, 95
6, 27360, Note_on_c, 4, 59, 0
6, 27360, Note_on_c, 4, 59, 95
6, 27390, Note_on_c, 4, 59, 0
6, 27390, Note_on_c, 4, 66, 95
6, 27420, Note_on_c, 4, 66, 0
6, 27420, Note_on_c, 4, 66, 95
6, 27450, Note_on_c, 4, 66, 0
6, 27450, Note_on_c, 4, 66, 95
6, 27480, Note_on_c, 4, 66, 0
6, 27480, Note_on_c, 4, 66, 95
6, 27510, Note_on_c, 4, 66, 0
6, 27510, Note_on_c, 4, 67, 95
6, 27540, Note_on_c, 4, 67, 0
6, 27540, Note_on_c, 4, 67, 95
6, 27600, Note_on_c, 4, 67, 0
6, 27630, Note_on_c, 4, 76, 95
6, 27660, Note_on_c, 4, 76, 0
6, 27660, Note_on_c, 4, 76, 95
6, 27720, Note_on_c, 4, 76, 0
6, 27750, Note_on_c, 4, 74, 95
6, 27780, Note_on_c, 4, 74, 0
6, 27780, Note_on_c, 4, 74, 95
6, 27840, Note_on_c, 4, 74, 0
6, 27870, Note_on_c, 4, 72, 95
6, 27900, Note_on_c, 4, 72, 0
6, 27900, Note_on_c, 4, 72, 95
6, 27960, Note_on_c, 4, 72, 0
6, 27990, Note_on_c, 4, 71, 95
6, 28020, Note_on_c, 4, 71, 0
6, 28020, Note_on_c, 4, 64, 95
6, 28080, Note_on_c, 4, 64, 0
6, 28110, Note_on_c, 4, 72, 95
6, 28140, Note_on_c, 4, 72, 0
6, 28140, Note_on_c, 4, 66, 95
6, 28200, Note_on_c, 4, 66, 0
6, 28200, Note_on_c, 4, 71, 95
6, 28260, Note_on_c, 4, 71, 0
6, 28260, Note_on_c, 4, 71, 95
6, 28379, Note_on_c, 4, 71, 0
6, 28500, Note_on_c, 4, 71, 102
6, 28555, Note_on_c, 4, 71, 0
6, 28560, Note_on_c, 4, 75, 107
6, 28612, Note_on_c, 4, 75, 0
6, 28620, Note_on_c, 4, 76, 98
6, 28683, Note_on_c, 4, 76, 0
6, 28860, Note_on_c, 4, 72, 105
6, 28910, Note_on_c, 4, 72, 0
6, 28920, Note_on_c, 4, 72, 105
6, 28972, Note_on_c, 4, 72, 0
6, 28980, Note_on_c, 4, 66, 107
6, 29036, Note_on_c, 4, 66, 0
6, 29220, Note_on_c, 4, 71, 85
6, 29280, Note_on_c, 4, 76, 113
6, 29283, Note_on_c, 4, 71, 0
6, 29335, Note_on_c, 4, 76, 0
6, 29340, Note_on_c, 4, 76, 100
6, 29393, Note_on_c, 4, 76, 0
6, 29580, Note_on_c, 4, 78, 105
6, 29635, Note_on_c, 4, 78, 0
6, 29640, Note_on_c, 4, 74, 102
6, 29692, Note_on_c, 4, 74, 0
6, 29700, Note_on_c, 4, 74, 105
6, 29757, Note_on_c, 4, 74, 0
6, 33300, Note_on_c, 4, 76, 105
6, 33359, Note_on_c, 4, 76, 0
6, 33480, Note_on_c, 4, 80, 107
6, 33534, Note_on_c, 4, 80, 0
6, 33660, Note_on_c, 4, 81, 98
6, 33704, Note_on_c, 4, 81, 0
6, 34380, Note_on_c, 4, 72, 100
6, 34440, Note_on_c, 4, 69, 105
6, 34447, Note_on_c, 4, 72, 0
6, 34495, Note_on_c, 4, 69, 0
6, 34500, Note_on_c, 4, 64, 91
6, 34560, Note_on_c, 4, 64, 0
6, 34560, Note_on_c, 4, 71, 105
6, 34620, Note_on_c, 4, 69, 105
6, 34621, Note_on_c, 4, 71, 0
6, 34680, Note_on_c, 4, 69, 0
6, 34680, Note_on_c, 4, 68, 107
6, 34740, Note_on_c, 4, 72, 105
6, 34741, Note_on_c, 4, 68, 0
6, 34800, Note_on_c, 4, 72, 0
6, 34800, Note_on_c, 4, 71, 89
6, 34860, Note_on_c, 4, 69, 102
6, 34861, Note_on_c, 4, 71, 0
6, 34907, Note_on_c, 4, 69, 0
6, 34980, Note_on_c, 4, 69, 105
6, 35002, Note_on_c, 4, 69, 0
6, 35010, Note_on_c, 4, 71, 107
6, 35032, Note_on_c, 4, 71, 0
6, 35040, Note_on_c, 4, 72, 100
6, 35081, Note_on_c, 4, 72, 0
6, 35100, Note_on_c, 4, 71, 105
6, 35160, Note_on_c, 4, 69, 107
6, 35163, Note_on_c, 4, 71, 0
6, 35213, Note_on_c, 4, 69, 0
6, 35220, Note_on_c, 4, 68, 110
6, 35263, Note_on_c, 4, 68, 0
6, 35340, Note_on_c, 4, 68, 93
6, 35361, Note_on_c, 4, 68, 0
6, 35370, Note_on_c, 4, 69, 102
6, 35390, Note_on_c, 4, 69, 0
6, 35400, Note_on_c, 4, 71, 95
6, 35436, Note_on_c, 4, 71, 0
6, 35460, Note_on_c, 4, 71, 102
6, 35520, Note_on_c, 4, 69, 113
6, 35531, Note_on_c, 4, 71, 0
6, 35550, Note_on_c, 4, 68, 105
6, 35555, Note_on_c, 4, 69, 0
6, 35578, Note_on_c, 4, 68, 0
6, 35580, Note_on_c, 4, 69, 107
6, 35614, Note_on_c, 4, 69, 0
6, 35700, Note_on_c, 4, 72, 98
6, 35751, Note_on_c, 4, 72, 0
6, 35760, Note_on_c, 4, 73, 105
6, 35812, Note_on_c, 4, 73, 0
6, 35820, Note_on_c, 4, 74, 102
6, 35864, Note_on_c, 4, 74, 0
6, 35880, Note_on_c, 4, 74, 107
6, 35903, Note_on_c, 4, 74, 0
6, 35910, Note_on_c, 4, 73, 102
6, 35931, Note_on_c, 4, 73, 0
6, 35940, Note_on_c, 4, 74, 105
6, 35985, Note_on_c, 4, 74, 0
6, 36060, Note_on_c, 4, 65, 93
6, 36107, Note_on_c, 4, 65, 0
6, 36120, Note_on_c, 4, 66, 110
6, 36169, Note_on_c, 4, 66, 0
6, 36180, Note_on_c, 4, 67, 95
6, 36225, Note_on_c, 4, 67, 0
6, 36240, Note_on_c, 4, 67, 105
6, 36268, Note_on_c, 4, 67, 0
6, 36270, Note_on_c, 4, 66, 107
6, 36292, Note_on_c, 4, 66, 0
6, 36300, Note_on_c, 4, 67, 105
6, 36342, Note_on_c, 4, 67, 0
6, 36420, Note_on_c, 4, 71, 100
6, 36454, Note_on_c, 4, 71, 0
6, 36480, Note_on_c, 4, 71, 98
6, 36533, Note_on_c, 4, 71, 0
6, 36540, Note_on_c, 4, 72, 93
6, 36581, Note_on_c, 4, 72, 0
6, 36600, Note_on_c, 4, 72, 102
6, 36629, Note_on_c, 4, 72, 0
6, 36630, Note_on_c, 4, 71, 105
6, 36650, Note_on_c, 4, 71, 0
6, 36660, Note_on_c, 4, 72, 102
6, 36702, Note_on_c, 4, 72, 0
6, 36780, Note_on_c, 4, 76, 102
6, 36807, Note_on_c, 4, 76, 0
6, 36840, Note_on_c, 4, 76, 105
6, 36893, Note_on_c, 4, 76, 0
6, 36900, Note_on_c, 4, 77, 102
6, 36959, Note_on_c, 4, 77, 0
6, 36960, Note_on_c, 4, 69, 93
6, 37013, Note_on_c, 4, 69, 0
6, 37080, Note_on_c, 4, 74, 105
6, 37137, Note_on_c, 4, 74, 0
6, 37140, Note_on_c, 4, 71, 102
6, 37186, Note_on_c, 4, 71, 0
6, 37260, Note_on_c, 4, 76, 105
6, 37320, Note_on_c, 4, 72, 110
6, 37321, Note_on_c, 4, 76, 0
6, 37368, Note_on_c, 4, 72, 0
6, 37440, Note_on_c, 4, 79, 102
6, 37498, Note_on_c, 4, 79, 0
6, 37500, Note_on_c, 4, 74, 107
6, 37547, Note_on_c, 4, 74, 0
6, 37620, Note_on_c, 4, 76, 102
6, 37679, Note_on_c, 4, 76, 0
6, 37680, Note_on_c, 4, 72, 107
6, 37725, Note_on_c, 4, 72, 0
6, 37800, Note_on_c, 4, 74, 105
6, 37850, Note_on_c, 4, 74, 0
6, 37860, Note_on_c, 4, 71, 105
6, 37888, Note_on_c, 4, 71, 0
6, 37980, Note_on_c, 4, 55, 105
6, 39797, Note_on_c, 4, 55, 0
6, 39900, Note_on_c, 4, 67, 107
6, 39952, Note_on_c, 4, 67, 0
6, 39960, Note_on_c, 4, 65, 102
6, 40041, Note_on_c, 4, 65, 0
6, 40080, Note_on_c, 4, 69, 105
6, 40134, Note_on_c, 4, 69, 0
6, 40140, Note_on_c, 4, 67, 105
6, 40205, Note_on_c, 4, 67, 0
6, 40260, Note_on_c, 4, 71, 105
6, 40316, Note_on_c, 4, 71, 0
6, 40320, Note_on_c, 4, 69, 100
6, 40386, Note_on_c, 4, 69, 0
6, 40440, Note_on_c, 4, 72, 89
6, 40470, Note_on_c, 4, 72, 0
6, 40500, Note_on_c, 4, 77, 89
6, 40530, Note_on_c, 4, 79, 87
6, 40533, Note_on_c, 4, 77, 0
6, 40560, Note_on_c, 4, 77, 87
6, 40568, Note_on_c, 4, 79, 0
6, 40590, Note_on_c, 4, 76, 95
6, 40594, Note_on_c, 4, 77, 0
6, 40620, Note_on_c, 4, 74, 105
6, 40629, Note_on_c, 4, 76, 0
6, 40676, Note_on_c, 4, 74, 0
6, 40680, Note_on_c, 4, 72, 87
6, 40736, Note_on_c, 4, 72, 0
6, 40740, Note_on_c, 4, 67, 89
6, 40800, Note_on_c, 4, 72, 93
6, 40802, Note_on_c, 4, 67, 0
6, 40860, Note_on_c, 4, 76, 102
6, 40861, Note_on_c, 4, 72, 0
6, 40920, Note_on_c, 4, 72, 95
6, 40923, Note_on_c, 4, 76, 0
6, 40979, Note_on_c, 4, 72, 0
6, 40980, Note_on_c, 4, 69, 87
6, 41036, Note_on_c, 4, 69, 0
6, 41040, Note_on_c, 4, 65, 93
6, 41233, Note_on_c, 4, 65, 0
6, 41250, Note_on_c, 4, 57, 93
6, 41263, Note_on_c, 4, 57, 0
6, 41280, Note_on_c, 4, 57, 102
6, 41302, Note_on_c, 4, 57, 0
6, 41310, Note_on_c, 4, 62, 100
6, 41327, Note_on_c, 4, 62, 0
6, 41340, Note_on_c, 4, 62, 95
6, 41364, Note_on_c, 4, 62, 0
6, 41370, Note_on_c, 4, 67, 102
6, 41386, Note_on_c, 4, 67, 0
6, 41400, Note_on_c, 4, 67, 98
6, 41423, Note_on_c, 4, 67, 0
6, 41430, Note_on_c, 4, 62, 102
6, 41448, Note_on_c, 4, 62, 0
6, 41460, Note_on_c, 4, 62, 102
6, 41474, Note_on_c, 4, 62, 0
6, 41490, Note_on_c, 4, 62, 98
6, 41505, Note_on_c, 4, 62, 0
6, 41520, Note_on_c, 4, 62, 102
6, 41539, Note_on_c, 4, 62, 0
6, 41550, Note_on_c, 4, 64, 102
6, 41565, Note_on_c, 4, 64, 0
6, 41580, Note_on_c, 4, 64, 100
6, 41603, Note_on_c, 4, 64, 0
6, 41610, Note_on_c, 4, 67, 100
6, 41633, Note_on_c, 4, 67, 0
6, 41640, Note_on_c, 4, 64, 107
6, 41692, Note_on_c, 4, 64, 0
6, 41730, Note_on_c, 4, 65, 100
6, 41749, Note_on_c, 4, 65, 0
6, 41760, Note_on_c, 4, 62, 102
6, 41808, Note_on_c, 4, 62, 0
6, 41850, Note_on_c, 4, 67, 100
6, 41869, Note_on_c, 4, 67, 0
6, 41880, Note_on_c, 4, 65, 100
6, 41926, Note_on_c, 4, 65, 0
6, 41970, Note_on_c, 4, 65, 100
6, 42000, Note_on_c, 4, 64, 102
6, 42004, Note_on_c, 4, 65, 0
6, 42030, Note_on_c, 4, 62, 102
6, 42035, Note_on_c, 4, 64, 0
6, 42060, Note_on_c, 4, 60, 80
6, 42067, Note_on_c, 4, 62, 0
6, 42089, Note_on_c, 4, 60, 0
6, 42090, Note_on_c, 4, 59, 100
6, 42118, Note_on_c, 4, 59, 0
6, 42120, Note_on_c, 4, 60, 98
6, 42144, Note_on_c, 4, 60, 0
6, 42150, Note_on_c, 4, 69, 102
6, 42179, Note_on_c, 4, 69, 0
6, 42180, Note_on_c, 4, 62, 98
6, 42240, Note_on_c, 4, 65, 98
6, 42245, Note_on_c, 4, 62, 0
6, 42293, Note_on_c, 4, 65, 0
6, 42300, Note_on_c, 4, 64, 102
6, 42365, Note_on_c, 4, 64, 0
6, 42420, Note_on_c, 4, 60, 82
6, 42449, Note_on_c, 4, 60, 0
6, 42450, Note_on_c, 4, 62, 98
6, 42480, Note_on_c, 4, 64, 102
6, 42488, Note_on_c, 4, 62, 0
6, 42510, Note_on_c, 4, 65, 102
6, 42515, Note_on_c, 4, 64, 0
6, 42540, Note_on_c, 4, 65, 0
6, 42540, Note_on_c, 4, 67, 93
6, 42586, Note_on_c, 4, 67, 0
6, 42690, Note_on_c, 4, 62, 89
6, 42720, Note_on_c, 4, 60, 85
6, 42727, Note_on_c, 4, 62, 0
6, 42750, Note_on_c, 4, 58, 98
6, 42751, Note_on_c, 4, 60, 0
6, 42780, Note_on_c, 4, 57, 82
6, 42784, Note_on_c, 4, 58, 0
6, 42808, Note_on_c, 4, 57, 0
6, 42810, Note_on_c, 4, 67, 80
6, 42840, Note_on_c, 4, 65, 102
6, 42847, Note_on_c, 4, 67, 0
6, 42870, Note_on_c, 4, 64, 102
6, 42877, Note_on_c, 4, 65, 0
6, 42896, Note_on_c, 4, 64, 0
6, 42900, Note_on_c, 4, 62, 82
6, 42930, Note_on_c, 4, 72, 85
6, 42933, Note_on_c, 4, 62, 0
6, 42960, Note_on_c, 4, 71, 85
6, 42961, Note_on_c, 4, 72, 0
6, 42985, Note_on_c, 4, 71, 0
6, 42990, Note_on_c, 4, 69, 64
6, 43019, Note_on_c, 4, 69, 0
6, 43020, Note_on_c, 4, 77, 102
6, 43080, Note_on_c, 4, 74, 82
6, 43091, Note_on_c, 4, 77, 0
6, 43136, Note_on_c, 4, 74, 0
6, 43140, Note_on_c, 4, 71, 87
6, 43199, Note_on_c, 4, 71, 0
6, 43200, Note_on_c, 4, 67, 80
6, 43230, Note_on_c, 4, 69, 100
6, 43235, Note_on_c, 4, 67, 0
6, 43260, Note_on_c, 4, 71, 100
6, 43266, Note_on_c, 4, 69, 0
6, 43290, Note_on_c, 4, 74, 91
6, 43293, Note_on_c, 4, 71, 0
6, 43320, Note_on_c, 4, 72, 100
6, 43325, Note_on_c, 4, 74, 0
6, 43350, Note_on_c, 4, 72, 0
6, 43350, Note_on_c, 4, 71, 105
6, 43380, Note_on_c, 4, 72, 100
6, 43383, Note_on_c, 4, 71, 0
6, 43439, Note_on_c, 4, 72, 0
6, 43560, Note_on_c, 4, 74, 100
6, 43636, Note_on_c, 4, 74, 0
6, 43740, Note_on_c, 4, 76, 102
6, 43796, Note_on_c, 4, 76, 0
6, 43800, Note_on_c, 4, 72, 102
6, 43852, Note_on_c, 4, 72, 0
6, 43860, Note_on_c, 4, 69, 91
6, 43909, Note_on_c, 4, 69, 0
6, 43920, Note_on_c, 4, 66, 98
6, 43984, Note_on_c, 4, 66, 0
6, 44160, Note_on_c, 4, 71, 102
6, 44213, Note_on_c, 4, 71, 0
6, 44220, Note_on_c, 4, 67, 102
6, 44269, Note_on_c, 4, 67, 0
6, 44280, Note_on_c, 4, 64, 102
6, 44323, Note_on_c, 4, 64, 0
6, 44520, Note_on_c, 4, 64, 95
6, 44575, Note_on_c, 4, 64, 0
6, 44580, Note_on_c, 4, 72, 105
6, 44634, Note_on_c, 4, 72, 0
6, 44640, Note_on_c, 4, 69, 105
6, 44701, Note_on_c, 4, 69, 0
6, 44820, Note_on_c, 4, 74, 105
6, 44874, Note_on_c, 4, 74, 0
6, 45000, Note_on_c, 4, 78, 110
6, 45049, Note_on_c, 4, 78, 0
6, 45180, Note_on_c, 4, 79, 100
6, 45229, Note_on_c, 4, 79, 0
6, 45300, Note_on_c, 4, 67, 102
6, 45330, Note_on_c, 4, 69, 102
6, 45331, Note_on_c, 4, 67, 0
6, 45357, Note_on_c, 4, 69, 0
6, 45360, Note_on_c, 4, 71, 85
6, 45390, Note_on_c, 4, 72, 102
6, 45392, Note_on_c, 4, 71, 0
6, 45420, Note_on_c, 4, 74, 105
6, 45423, Note_on_c, 4, 72, 0
6, 45468, Note_on_c, 4, 74, 0
6, 45570, Note_on_c, 4, 69, 98
6, 45600, Note_on_c, 4, 67, 87
6, 45606, Note_on_c, 4, 69, 0
6, 45626, Note_on_c, 4, 67, 0
6, 45630, Note_on_c, 4, 65, 93
6, 45660, Note_on_c, 4, 64, 87
6, 45663, Note_on_c, 4, 65, 0
6, 45690, Note_on_c, 4, 74, 95
6, 45691, Note_on_c, 4, 64, 0
6, 45720, Note_on_c, 4, 72, 102
6, 45727, Note_on_c, 4, 74, 0
6, 45750, Note_on_c, 4, 71, 85
6, 45753, Note_on_c, 4, 72, 0
6, 45780, Note_on_c, 4, 69, 95
6, 45782, Note_on_c, 4, 71, 0
6, 45806, Note_on_c, 4, 69, 0
6, 45810, Note_on_c, 4, 79, 93
6, 45840, Note_on_c, 4, 78, 102
6, 45844, Note_on_c, 4, 79, 0
6, 45870, Note_on_c, 4, 76, 100
6, 45877, Note_on_c, 4, 78, 0
6, 45891, Note_on_c, 4, 76, 0
6, 45900, Note_on_c, 4, 84, 113
6, 45943, Note_on_c, 4, 84, 0
6, 45960, Note_on_c, 4, 81, 93
6, 46004, Note_on_c, 4, 81, 0
6, 46020, Note_on_c, 4, 78, 105
6, 46054, Note_on_c, 4, 78, 0
6, 46080, Note_on_c, 4, 74, 95
6, 46109, Note_on_c, 4, 74, 0
6, 46110, Note_on_c, 4, 76, 105
6, 46140, Note_on_c, 4, 78, 107
6, 46142, Note_on_c, 4, 76, 0
6, 46170, Note_on_c, 4, 81, 98
6, 46171, Note_on_c, 4, 78, 0
6, 46200, Note_on_c, 4, 79, 102
6, 46203, Note_on_c, 4, 81, 0
6, 46230, Note_on_c, 4, 78, 107
6, 46231, Note_on_c, 4, 79, 0
6, 46256, Note_on_c, 4, 78, 0
6, 46260, Note_on_c, 4, 79, 105
6, 46321, Note_on_c, 4, 79, 0
6, 47400, Note_on_c, 4, 69, 110
6, 47430, Note_on_c, 4, 71, 105
6, 47434, Note_on_c, 4, 69, 0
6, 47460, Note_on_c, 4, 69, 119
6, 47467, Note_on_c, 4, 71, 0
6, 47490, Note_on_c, 4, 71, 110
6, 47495, Note_on_c, 4, 69, 0
6, 47520, Note_on_c, 4, 72, 107
6, 47526, Note_on_c, 4, 71, 0
6, 47550, Note_on_c, 4, 71, 113
6, 47553, Note_on_c, 4, 72, 0
6, 47579, Note_on_c, 4, 71, 0
6, 47580, Note_on_c, 4, 69, 110
6, 47610, Note_on_c, 4, 71, 110
6, 47613, Note_on_c, 4, 69, 0
6, 47640, Note_on_c, 4, 72, 113
6, 47645, Note_on_c, 4, 71, 0
6, 47723, Note_on_c, 4, 72, 0
6, 47730, Note_on_c, 4, 71, 105
6, 47760, Note_on_c, 4, 69, 107
6, 47763, Note_on_c, 4, 71, 0
6, 47790, Note_on_c, 4, 71, 98
6, 47795, Note_on_c, 4, 69, 0
6, 47820, Note_on_c, 4, 72, 95
6, 47823, Note_on_c, 4, 71, 0
6, 47846, Note_on_c, 4, 72, 0
6, 47850, Note_on_c, 4, 71, 102
6, 47880, Note_on_c, 4, 72, 100
6, 47887, Note_on_c, 4, 71, 0
6, 47910, Note_on_c, 4, 76, 87
6, 47913, Note_on_c, 4, 72, 0
6, 47940, Note_on_c, 4, 74, 91
6, 47943, Note_on_c, 4, 76, 0
6, 47970, Note_on_c, 4, 72, 100
6, 47974, Note_on_c, 4, 74, 0
6, 48000, Note_on_c, 4, 71, 102
6, 48003, Note_on_c, 4, 72, 0
6, 48030, Note_on_c, 4, 69, 85
6, 48031, Note_on_c, 4, 71, 0
6, 48058, Note_on_c, 4, 69, 0
6, 48060, Note_on_c, 4, 71, 102
6, 48775, Note_on_c, 4, 71, 0
6, 48780, Note_on_c, 4, 76, 98
6, 48825, Note_on_c, 4, 76, 0
6, 48900, Note_on_c, 4, 76, 105
6, 48955, Note_on_c, 4, 76, 0
6, 48960, Note_on_c, 4, 69, 102
6, 49016, Note_on_c, 4, 69, 0
6, 49020, Note_on_c, 4, 71, 105
6, 49077, Note_on_c, 4, 71, 0
6, 49080, Note_on_c, 4, 74, 102
6, 49137, Note_on_c, 4, 74, 0
6, 49140, Note_on_c, 4, 67, 100
6, 49197, Note_on_c, 4, 67, 0
6, 49200, Note_on_c, 4, 69, 102
6, 49256, Note_on_c, 4, 69, 0
6, 49260, Note_on_c, 4, 72, 102
6, 49310, Note_on_c, 4, 72, 0
6, 49320, Note_on_c, 4, 66, 100
6, 49374, Note_on_c, 4, 66, 0
6, 49380, Note_on_c, 4, 67, 105
6, 49436, Note_on_c, 4, 67, 0
6, 49440, Note_on_c, 4, 71, 102
6, 49493, Note_on_c, 4, 71, 0
6, 49500, Note_on_c, 4, 64, 98
6, 49556, Note_on_c, 4, 64, 0
6, 49560, Note_on_c, 4, 76, 105
6, 49617, Note_on_c, 4, 76, 0
6, 49620, Note_on_c, 4, 74, 80
6, 49679, Note_on_c, 4, 74, 0
6, 49680, Note_on_c, 4, 72, 100
6, 49710, Note_on_c, 4, 76, 98
6, 49712, Note_on_c, 4, 72, 0
6, 49725, Note_on_c, 4, 76, 0
6, 49740, Note_on_c, 4, 76, 89
6, 49755, Note_on_c, 4, 76, 0
6, 49770, Note_on_c, 4, 76, 85
6, 49784, Note_on_c, 4, 76, 0
6, 49800, Note_on_c, 4, 76, 82
6, 49813, Note_on_c, 4, 76, 0
6, 49830, Note_on_c, 4, 76, 89
6, 49845, Note_on_c, 4, 76, 0
6, 49860, Note_on_c, 4, 78, 102
6, 49907, Note_on_c, 4, 78, 0
6, 49920, Note_on_c, 4, 78, 113
6, 49972, Note_on_c, 4, 78, 0
6, 49980, Note_on_c, 4, 76, 110
6, 50040, Note_on_c, 4, 74, 105
6, 50041, Note_on_c, 4, 76, 0
6, 50066, Note_on_c, 4, 74, 0
6, 50070, Note_on_c, 4, 78, 102
6, 50091, Note_on_c, 4, 78, 0
6, 50100, Note_on_c, 4, 78, 107
6, 50117, Note_on_c, 4, 78, 0
6, 50130, Note_on_c, 4, 78, 98
6, 50143, Note_on_c, 4, 78, 0
6, 50160, Note_on_c, 4, 78, 107
6, 50175, Note_on_c, 4, 78, 0
6, 50190, Note_on_c, 4, 78, 100
6, 50204, Note_on_c, 4, 78, 0
6, 50220, Note_on_c, 4, 79, 102
6, 50259, Note_on_c, 4, 79, 0
6, 50280, Note_on_c, 4, 79, 107
6, 50333, Note_on_c, 4, 79, 0
6, 50340, Note_on_c, 4, 78, 102
6, 50395, Note_on_c, 4, 78, 0
6, 50400, Note_on_c, 4, 76, 102
6, 50423, Note_on_c, 4, 76, 0
6, 50430, Note_on_c, 4, 79, 105
6, 50445, Note_on_c, 4, 79, 0
6, 50460, Note_on_c, 4, 79, 102
6, 50476, Note_on_c, 4, 79, 0
6, 50490, Note_on_c, 4, 79, 87
6, 50505, Note_on_c, 4, 79, 0
6, 50520, Note_on_c, 4, 79, 105
6, 50535, Note_on_c, 4, 79, 0
6, 50550, Note_on_c, 4, 79, 107
6, 50566, Note_on_c, 4, 79, 0
6, 50580, Note_on_c, 4, 81, 105
6, 50630, Note_on_c, 4, 81, 0
6, 50790, Note_on_c, 4, 81, 100
6, 50804, Note_on_c, 4, 81, 0
6, 50820, Note_on_c, 4, 81, 100
6, 50834, Note_on_c, 4, 81, 0
6, 50850, Note_on_c, 4, 81, 98
6, 50863, Note_on_c, 4, 81, 0
6, 50880, Note_on_c, 4, 81, 100
6, 50892, Note_on_c, 4, 81, 0
6, 50910, Note_on_c, 4, 81, 100
6, 50925, Note_on_c, 4, 81, 0
6, 50940, Note_on_c, 4, 81, 102
6, 50982, Note_on_c, 4, 81, 0
6, 51150, Note_on_c, 4, 69, 98
6, 51165, Note_on_c, 4, 69, 0
6, 51180, Note_on_c, 4, 69, 89
6, 51201, Note_on_c, 4, 69, 0
6, 51210, Note_on_c, 4, 74, 100
6, 51226, Note_on_c, 4, 74, 0
6, 51240, Note_on_c, 4, 74, 102
6, 51252, Note_on_c, 4, 74, 0
6, 51270, Note_on_c, 4, 74, 102
6, 51283, Note_on_c, 4, 74, 0
6, 51300, Note_on_c, 4, 74, 102
6, 51345, Note_on_c, 4, 74, 0
6, 51540, Note_on_c, 4, 74, 98
6, 51600, Note_on_c, 4, 78, 110
6, 51603, Note_on_c, 4, 74, 0
6, 51656, Note_on_c, 4, 78, 0
6, 51660, Note_on_c, 4, 79, 105
6, 51709, Note_on_c, 4, 79, 0
6, 51900, Note_on_c, 4, 71, 113
6, 51953, Note_on_c, 4, 71, 0
6, 51960, Note_on_c, 4, 75, 110
6, 52007, Note_on_c, 4, 75, 0
6, 52020, Note_on_c, 4, 76, 105
6, 52078, Note_on_c, 4, 76, 0
6, 52260, Note_on_c, 4, 76, 107
6, 52316, Note_on_c, 4, 76, 0
6, 52320, Note_on_c, 4, 80, 107
6, 52371, Note_on_c, 4, 80, 0
6, 52380, Note_on_c, 4, 81, 107
6, 52437, Note_on_c, 4, 81, 0
6, 52500, Note_on_c, 4, 76, 110
6, 52554, Note_on_c, 4, 76, 0
6, 52560, Note_on_c, 4, 77, 102
6, 52630, Note_on_c, 4, 77, 0
6, 52680, Note_on_c, 4, 74, 100
6, 52723, Note_on_c, 4, 74, 0
6, 52740, Note_on_c, 4, 74, 100
6, 52792, Note_on_c, 4, 74, 0
6, 53760, Note_on_c, 4, 74, 102
6, 53820, Note_on_c, 4, 74, 0
6, 53820, Note_on_c, 4, 71, 116
6, 53878, Note_on_c, 4, 71, 0
6, 53940, Note_on_c, 4, 69, 110
6, 53987, Note_on_c, 4, 69, 0
6, 54000, Note_on_c, 4, 69, 119
6, 54052, Note_on_c, 4, 69, 0
6, 54120, Note_on_c, 4, 79, 105
6, 54174, Note_on_c, 4, 79, 0
6, 54180, Note_on_c, 4, 76, 110
6, 54251, Note_on_c, 4, 76, 0
6, 54300, Note_on_c, 4, 74, 105
6, 54343, Note_on_c, 4, 74, 0
6, 54360, Note_on_c, 4, 74, 102
6, 54408, Note_on_c, 4, 74, 0
6, 56040, Note_on_c, 4, 68, 113
6, 56070, Note_on_c, 4, 69, 98
6, 56071, Note_on_c, 4, 68, 0
6, 56100, Note_on_c, 4, 68, 110
6, 56104, Note_on_c, 4, 69, 0
6, 56130, Note_on_c, 4, 69, 102
6, 56131, Note_on_c, 4, 68, 0
6, 56160, Note_on_c, 4, 71, 107
6, 56165, Note_on_c, 4, 69, 0
6, 56190, Note_on_c, 4, 69, 107
6, 56195, Note_on_c, 4, 71, 0
6, 56220, Note_on_c, 4, 68, 105
6, 56227, Note_on_c, 4, 69, 0
6, 56250, Note_on_c, 4, 69, 102
6, 56254, Note_on_c, 4, 68, 0
6, 56280, Note_on_c, 4, 69, 0
6, 56280, Note_on_c, 4, 71, 105
6, 56358, Note_on_c, 4, 71, 0
6, 56370, Note_on_c, 4, 69, 95
6, 56400, Note_on_c, 4, 68, 102
6, 56407, Note_on_c, 4, 69, 0
6, 56430, Note_on_c, 4, 69, 95
6, 56432, Note_on_c, 4, 68, 0
6, 56460, Note_on_c, 4, 71, 100
6, 56465, Note_on_c, 4, 69, 0
6, 56488, Note_on_c, 4, 71, 0
6, 56490, Note_on_c, 4, 69, 105
6, 56520, Note_on_c, 4, 71, 102
6, 56526, Note_on_c, 4, 69, 0
6, 56550, Note_on_c, 4, 74, 98
6, 56551, Note_on_c, 4, 71, 0
6, 56580, Note_on_c, 4, 73, 105
6, 56585, Note_on_c, 4, 74, 0
6, 56610, Note_on_c, 4, 71, 98
6, 56615, Note_on_c, 4, 73, 0
6, 56639, Note_on_c, 4, 71, 0
6, 56640, Note_on_c, 4, 69, 87
6, 56670, Note_on_c, 4, 68, 102
6, 56676, Note_on_c, 4, 69, 0
6, 56694, Note_on_c, 4, 68, 0
6, 56700, Note_on_c, 4, 71, 107
6, 57416, Note_on_c, 4, 71, 0
6, 57420, Note_on_c, 4, 66, 107
6, 57450, Note_on_c, 4, 68, 98
6, 57462, Note_on_c, 4, 66, 0
6, 57480, Note_on_c, 4, 70, 100
6, 57485, Note_on_c, 4, 68, 0
6, 57510, Note_on_c, 4, 70, 0
6, 57510, Note_on_c, 4, 71, 95
6, 57540, Note_on_c, 4, 70, 110
6, 57541, Note_on_c, 4, 71, 0
6, 57570, Note_on_c, 4, 71, 91
6, 57574, Note_on_c, 4, 70, 0
6, 57600, Note_on_c, 4, 73, 107
6, 57604, Note_on_c, 4, 71, 0
6, 57630, Note_on_c, 4, 71, 102
6, 57631, Note_on_c, 4, 73, 0
6, 57660, Note_on_c, 4, 70, 110
6, 57664, Note_on_c, 4, 71, 0
6, 57690, Note_on_c, 4, 71, 102
6, 57694, Note_on_c, 4, 70, 0
6, 57720, Note_on_c, 4, 73, 113
6, 57723, Note_on_c, 4, 71, 0
6, 57793, Note_on_c, 4, 73, 0
6, 57810, Note_on_c, 4, 71, 102
6, 57840, Note_on_c, 4, 70, 105
6, 57843, Note_on_c, 4, 71, 0
6, 57870, Note_on_c, 4, 71, 100
6, 57873, Note_on_c, 4, 70, 0
6, 57900, Note_on_c, 4, 73, 110
6, 57903, Note_on_c, 4, 71, 0
6, 57928, Note_on_c, 4, 73, 0
6, 57930, Note_on_c, 4, 71, 102
6, 57960, Note_on_c, 4, 73, 107
6, 57965, Note_on_c, 4, 71, 0
6, 57990, Note_on_c, 4, 73, 0
6, 57990, Note_on_c, 4, 76, 91
6, 58020, Note_on_c, 4, 74, 102
6, 58027, Note_on_c, 4, 76, 0
6, 58050, Note_on_c, 4, 73, 110
6, 58057, Note_on_c, 4, 74, 0
6, 58080, Note_on_c, 4, 71, 102
6, 58081, Note_on_c, 4, 73, 0
6, 58110, Note_on_c, 4, 73, 105
6, 58113, Note_on_c, 4, 71, 0
6, 58136, Note_on_c, 4, 73, 0
6, 58140, Note_on_c, 4, 66, 119
6, 58562, Note_on_c, 4, 66, 0
6, 58680, Note_on_c, 4, 66, 110
6, 58743, Note_on_c, 4, 66, 0
6, 58860, Note_on_c, 4, 67, 102
6, 58896, Note_on_c, 4, 67, 0
6, 59040, Note_on_c, 4, 70, 116
6, 59086, Note_on_c, 4, 70, 0
6, 59220, Note_on_c, 4, 71, 102
6, 59274, Note_on_c, 4, 71, 0
6, 59280, Note_on_c, 4, 62, 102
6, 59309, Note_on_c, 4, 62, 0
6, 59310, Note_on_c, 4, 64, 110
6, 59340, Note_on_c, 4, 66, 110
6, 59346, Note_on_c, 4, 64, 0
6, 59440, Note_on_c, 4, 66, 0
6, 59460, Note_on_c, 4, 64, 105
6, 59488, Note_on_c, 4, 64, 0
6, 59490, Note_on_c, 4, 66, 105
6, 59517, Note_on_c, 4, 66, 0
6, 59520, Note_on_c, 4, 68, 110
6, 59630, Note_on_c, 4, 68, 0
6, 59640, Note_on_c, 4, 66, 110
6, 59666, Note_on_c, 4, 66, 0
6, 59670, Note_on_c, 4, 68, 107
6, 59690, Note_on_c, 4, 68, 0
6, 59700, Note_on_c, 4, 70, 110
6, 59790, Note_on_c, 4, 70, 0
6, 59820, Note_on_c, 4, 71, 100
6, 59847, Note_on_c, 4, 71, 0
6, 59850, Note_on_c, 4, 70, 102
6, 59869, Note_on_c, 4, 70, 0
6, 59880, Note_on_c, 4, 71, 105
6, 59980, Note_on_c, 4, 71, 0
6, 60000, Note_on_c, 4, 70, 105
6, 60023, Note_on_c, 4, 70, 0
6, 60030, Note_on_c, 4, 71, 98
6, 60060, Note_on_c, 4, 73, 116
6, 60063, Note_on_c, 4, 71, 0
6, 60172, Note_on_c, 4, 73, 0
6, 60180, Note_on_c, 4, 71, 100
6, 60208, Note_on_c, 4, 71, 0
6, 60210, Note_on_c, 4, 73, 107
6, 60231, Note_on_c, 4, 73, 0
6, 60240, Note_on_c, 4, 74, 100
6, 60299, Note_on_c, 4, 74, 0
6, 60330, Note_on_c, 4, 64, 102
6, 60360, Note_on_c, 4, 66, 105
6, 60361, Note_on_c, 4, 64, 0
6, 60387, Note_on_c, 4, 66, 0
6, 60390, Note_on_c, 4, 62, 102
6, 60418, Note_on_c, 4, 62, 0
6, 60420, Note_on_c, 4, 64, 110
6, 60450, Note_on_c, 4, 66, 110
6, 60454, Note_on_c, 4, 64, 0
6, 60469, Note_on_c, 4, 66, 0
6, 60480, Note_on_c, 4, 67, 113
6, 60480, Note_on_c, 4, 67, 0
6, 60690, Note_on_c, 4, 67, 105
6, 60708, Note_on_c, 4, 67, 0
6, 60720, Note_on_c, 4, 67, 98
6, 60743, Note_on_c, 4, 67, 0
6, 60750, Note_on_c, 4, 72, 105
6, 60766, Note_on_c, 4, 72, 0
6, 60780, Note_on_c, 4, 72, 102
6, 60804, Note_on_c, 4, 72, 0
6, 60810, Note_on_c, 4, 66, 105
6, 60826, Note_on_c, 4, 66, 0
6, 60840, Note_on_c, 4, 66, 107
6, 60858, Note_on_c, 4, 66, 0
6, 60870, Note_on_c, 4, 66, 107
6, 60885, Note_on_c, 4, 66, 0
6, 60900, Note_on_c, 4, 66, 105
6, 60916, Note_on_c, 4, 66, 0
6, 60930, Note_on_c, 4, 66, 107
6, 60946, Note_on_c, 4, 66, 0
6, 60960, Note_on_c, 4, 66, 107
6, 60976, Note_on_c, 4, 66, 0
6, 60990, Note_on_c, 4, 66, 110
6, 61005, Note_on_c, 4, 66, 0
6, 61020, Note_on_c, 4, 66, 110
6, 61061, Note_on_c, 4, 66, 0
6, 61110, Note_on_c, 4, 71, 102
6, 61126, Note_on_c, 4, 71, 0
6, 61140, Note_on_c, 4, 71, 113
6, 61175, Note_on_c, 4, 71, 0
6, 61230, Note_on_c, 4, 69, 107
6, 61244, Note_on_c, 4, 69, 0
6, 61260, Note_on_c, 4, 69, 107
6, 61292, Note_on_c, 4, 69, 0
6, 61350, Note_on_c, 4, 67, 105
6, 61364, Note_on_c, 4, 67, 0
6, 61380, Note_on_c, 4, 67, 102
6, 61408, Note_on_c, 4, 67, 0
6, 61470, Note_on_c, 4, 66, 107
6, 61489, Note_on_c, 4, 66, 0
6, 61500, Note_on_c, 4, 59, 95
6, 61550, Note_on_c, 4, 59, 0
6, 61590, Note_on_c, 4, 67, 105
6, 61612, Note_on_c, 4, 67, 0
6, 61620, Note_on_c, 4, 61, 110
6, 61675, Note_on_c, 4, 61, 0
6, 61680, Note_on_c, 4, 66, 110
6, 61724, Note_on_c, 4, 66, 0
6, 61740, Note_on_c, 4, 66, 110
6, 61757, Note_on_c, 4, 66, 0
6, 61770, Note_on_c, 4, 66, 105
6, 61784, Note_on_c, 4, 66, 0
6, 61800, Note_on_c, 4, 66, 95
6, 61824, Note_on_c, 4, 66, 0
6, 61830, Note_on_c, 4, 62, 93
6, 61846, Note_on_c, 4, 62, 0
6, 61860, Note_on_c, 4, 62, 100
6, 61879, Note_on_c, 4, 62, 0
6, 61890, Note_on_c, 4, 59, 102
6, 61905, Note_on_c, 4, 59, 0
6, 61920, Note_on_c, 4, 59, 110
6, 62040, Note_on_c, 4, 59, 0
6, 62100, Note_on_c, 4, 74, 102
6, 62170, Note_on_c, 4, 74, 0
6, 62280, Note_on_c, 4, 78, 110
6, 62334, Note_on_c, 4, 78, 0
6, 62460, Note_on_c, 4, 79, 102
6, 62503, Note_on_c, 4, 79, 0
6, 63180, Note_on_c, 4, 74, 105
6, 63247, Note_on_c, 4, 74, 0
6, 63360, Note_on_c, 4, 78, 107
6, 63420, Note_on_c, 4, 78, 0
6, 63540, Note_on_c, 4, 79, 102
6, 63590, Note_on_c, 4, 79, 0
6, 64470, Note_on_c, 4, 79, 100
6, 64488, Note_on_c, 4, 79, 0
6, 64500, Note_on_c, 4, 79, 98
6, 64517, Note_on_c, 4, 79, 0
6, 64530, Note_on_c, 4, 79, 100
6, 64544, Note_on_c, 4, 79, 0
6, 64560, Note_on_c, 4, 79, 100
6, 64574, Note_on_c, 4, 79, 0
6, 64590, Note_on_c, 4, 79, 102
6, 64604, Note_on_c, 4, 79, 0
6, 64620, Note_on_c, 4, 79, 105
6, 64697, Note_on_c, 4, 79, 0
6, 64830, Note_on_c, 4, 81, 98
6, 64844, Note_on_c, 4, 81, 0
6, 64860, Note_on_c, 4, 81, 93
6, 64872, Note_on_c, 4, 81, 0
6, 64890, Note_on_c, 4, 81, 91
6, 64901, Note_on_c, 4, 81, 0
6, 64920, Note_on_c, 4, 81, 102
6, 64932, Note_on_c, 4, 81, 0
6, 64950, Note_on_c, 4, 81, 102
6, 64963, Note_on_c, 4, 81, 0
6, 64980, Note_on_c, 4, 81, 105
6, 65025, Note_on_c, 4, 81, 0
6, 65190, Note_on_c, 4, 83, 100
6, 65206, Note_on_c, 4, 83, 0
6, 65220, Note_on_c, 4, 83, 98
6, 65235, Note_on_c, 4, 83, 0
6, 65250, Note_on_c, 4, 83, 100
6, 65263, Note_on_c, 4, 83, 0
6, 65280, Note_on_c, 4, 83, 98
6, 65293, Note_on_c, 4, 83, 0
6, 65310, Note_on_c, 4, 83, 100
6, 65323, Note_on_c, 4, 83, 0
6, 65340, Note_on_c, 4, 83, 102
6, 65396, Note_on_c, 4, 83, 0
6, 65550, Note_on_c, 4, 76, 91
6, 65564, Note_on_c, 4, 76, 0
6, 65580, Note_on_c, 4, 76, 100
6, 65594, Note_on_c, 4, 76, 0
6, 65610, Note_on_c, 4, 76, 98
6, 65621, Note_on_c, 4, 76, 0
6, 65640, Note_on_c, 4, 76, 98
6, 65651, Note_on_c, 4, 76, 0
6, 65670, Note_on_c, 4, 76, 100
6, 65680, Note_on_c, 4, 76, 0
6, 65700, Note_on_c, 4, 76, 102
6, 65752, Note_on_c, 4, 76, 0
6, 65910, Note_on_c, 4, 69, 102
6, 65924, Note_on_c, 4, 69, 0
6, 65940, Note_on_c, 4, 69, 100
6, 65953, Note_on_c, 4, 69, 0
6, 65970, Note_on_c, 4, 69, 93
6, 65980, Note_on_c, 4, 69, 0
6, 66000, Note_on_c, 4, 69, 98
6, 66011, Note_on_c, 4, 69, 0
6, 66030, Note_on_c, 4, 69, 100
6, 66041, Note_on_c, 4, 69, 0
6, 66060, Note_on_c, 4, 69, 102
6, 66129, Note_on_c, 4, 69, 0
6, 66240, Note_on_c, 4, 73, 110
6, 66330, Note_on_c, 4, 73, 0
6, 66420, Note_on_c, 4, 74, 102
6, 66469, Note_on_c, 4, 74, 0
6, 67140, Note_on_c, 4, 69, 107
6, 67222, Note_on_c, 4, 69, 0
6, 67320, Note_on_c, 4, 73, 110
6, 67396, Note_on_c, 4, 73, 0
6, 67500, Note_on_c, 4, 69, 102
6, 67553, Note_on_c, 4, 69, 0
6, 67560, Note_on_c, 4, 67, 102
6, 67610, Note_on_c, 4, 67, 0
6, 67620, Note_on_c, 4, 66, 110
6, 67684, Note_on_c, 4, 66, 0
6, 67740, Note_on_c, 4, 66, 110
6, 67759, Note_on_c, 4, 66, 0
6, 67770, Note_on_c, 4, 67, 100
6, 67788, Note_on_c, 4, 67, 0
6, 67800, Note_on_c, 4, 69, 105
6, 67845, Note_on_c, 4, 69, 0
6, 67860, Note_on_c, 4, 67, 105
6, 67914, Note_on_c, 4, 67, 0
6, 67920, Note_on_c, 4, 66, 107
6, 67969, Note_on_c, 4, 66, 0
6, 67980, Note_on_c, 4, 64, 105
6, 68037, Note_on_c, 4, 64, 0
6, 68100, Note_on_c, 4, 64, 105
6, 68119, Note_on_c, 4, 64, 0
6, 68130, Note_on_c, 4, 66, 105
6, 68152, Note_on_c, 4, 66, 0
6, 68160, Note_on_c, 4, 67, 102
6, 68199, Note_on_c, 4, 67, 0
6, 68220, Note_on_c, 4, 66, 116
6, 68272, Note_on_c, 4, 66, 0
6, 68610, Note_on_c, 4, 69, 105
6, 68627, Note_on_c, 4, 69, 0
6, 68640, Note_on_c, 4, 69, 98
6, 68658, Note_on_c, 4, 69, 0
6, 68670, Note_on_c, 4, 66, 107
6, 68685, Note_on_c, 4, 66, 0
6, 68700, Note_on_c, 4, 66, 107
6, 68725, Note_on_c, 4, 66, 0
6, 68730, Note_on_c, 4, 62, 85
6, 68748, Note_on_c, 4, 62, 0
6, 68760, Note_on_c, 4, 62, 89
6, 68789, Note_on_c, 4, 62, 0
6, 68790, Note_on_c, 4, 66, 100
6, 68820, Note_on_c, 4, 67, 70
6, 68822, Note_on_c, 4, 66, 0
6, 68850, Note_on_c, 4, 69, 110
6, 68854, Note_on_c, 4, 67, 0
6, 68880, Note_on_c, 4, 71, 107
6, 68887, Note_on_c, 4, 69, 0
6, 68910, Note_on_c, 4, 72, 107
6, 68917, Note_on_c, 4, 71, 0
6, 68940, Note_on_c, 4, 71, 127
6, 68944, Note_on_c, 4, 72, 0
6, 69012, Note_on_c, 4, 71, 0
6, 69330, Note_on_c, 4, 74, 98
6, 69346, Note_on_c, 4, 74, 0
6, 69360, Note_on_c, 4, 74, 85
6, 69360, Note_on_c, 4, 72, 91
6, 69370, Note_on_c, 4, 72, 0
6, 69373, Note_on_c, 4, 74, 0
6, 69390, Note_on_c, 4, 74, 98
6, 69406, Note_on_c, 4, 74, 0
6, 69420, Note_on_c, 4, 74, 93
6, 69433, Note_on_c, 4, 74, 0
6, 69450, Note_on_c, 4, 74, 105
6, 69465, Note_on_c, 4, 74, 0
6, 69480, Note_on_c, 4, 74, 107
6, 69510, Note_on_c, 4, 74, 0
6, 69510, Note_on_c, 4, 67, 82
6, 69540, Note_on_c, 4, 69, 110
6, 69544, Note_on_c, 4, 67, 0
6, 69570, Note_on_c, 4, 71, 113
6, 69579, Note_on_c, 4, 69, 0
6, 69600, Note_on_c, 4, 72, 110
6, 69611, Note_on_c, 4, 71, 0
6, 69630, Note_on_c, 4, 74, 107
6, 69632, Note_on_c, 4, 72, 0
6, 69660, Note_on_c, 4, 72, 110
6, 69664, Note_on_c, 4, 74, 0
6, 69715, Note_on_c, 4, 72, 0
6, 69780, Note_on_c, 4, 76, 105
6, 69840, Note_on_c, 4, 69, 100
6, 69844, Note_on_c, 4, 76, 0
6, 69900, Note_on_c, 4, 71, 110
6, 69904, Note_on_c, 4, 69, 0
6, 69960, Note_on_c, 4, 74, 93
6, 69967, Note_on_c, 4, 71, 0
6, 70020, Note_on_c, 4, 67, 93
6, 70021, Note_on_c, 4, 74, 0
6, 70078, Note_on_c, 4, 67, 0
6, 70080, Note_on_c, 4, 69, 110
6, 70140, Note_on_c, 4, 72, 105
6, 70141, Note_on_c, 4, 69, 0
6, 70195, Note_on_c, 4, 72, 0
6, 70200, Note_on_c, 4, 66, 102
6, 70260, Note_on_c, 4, 67, 105
6, 70261, Note_on_c, 4, 66, 0
6, 70320, Note_on_c, 4, 71, 93
6, 70325, Note_on_c, 4, 67, 0
6, 70380, Note_on_c, 4, 71, 0
6, 70380, Note_on_c, 4, 64, 85
6, 70440, Note_on_c, 4, 76, 107
6, 70444, Note_on_c, 4, 64, 0
6, 70500, Note_on_c, 4, 74, 100
6, 70502, Note_on_c, 4, 76, 0
6, 70560, Note_on_c, 4, 72, 87
6, 70561, Note_on_c, 4, 74, 0
6, 70590, Note_on_c, 4, 76, 102
6, 70592, Note_on_c, 4, 72, 0
6, 70606, Note_on_c, 4, 76, 0
6, 70620, Note_on_c, 4, 76, 100
6, 70635, Note_on_c, 4, 76, 0
6, 70650, Note_on_c, 4, 76, 105
6, 70667, Note_on_c, 4, 76, 0
6, 70680, Note_on_c, 4, 76, 100
6, 70695, Note_on_c, 4, 76, 0
6, 70710, Note_on_c, 4, 76, 98
6, 70729, Note_on_c, 4, 76, 0
6, 70740, Note_on_c, 4, 78, 105
6, 70789, Note_on_c, 4, 78, 0
6, 70800, Note_on_c, 4, 78, 107
6, 70855, Note_on_c, 4, 78, 0
6, 70860, Note_on_c, 4, 76, 105
6, 70920, Note_on_c, 4, 74, 98
6, 70923, Note_on_c, 4, 76, 0
6, 70946, Note_on_c, 4, 74, 0
6, 70950, Note_on_c, 4, 78, 107
6, 70967, Note_on_c, 4, 78, 0
6, 70980, Note_on_c, 4, 78, 107
6, 70994, Note_on_c, 4, 78, 0
6, 71010, Note_on_c, 4, 78, 105
6, 71025, Note_on_c, 4, 78, 0
6, 71040, Note_on_c, 4, 78, 107
6, 71055, Note_on_c, 4, 78, 0
6, 71070, Note_on_c, 4, 78, 100
6, 71093, Note_on_c, 4, 78, 0
6, 71100, Note_on_c, 4, 79, 100
6, 71150, Note_on_c, 4, 79, 0
6, 71160, Note_on_c, 4, 79, 105
6, 71220, Note_on_c, 4, 78, 100
6, 71224, Note_on_c, 4, 79, 0
6, 71280, Note_on_c, 4, 76, 87
6, 71283, Note_on_c, 4, 78, 0
6, 71309, Note_on_c, 4, 76, 0
6, 71310, Note_on_c, 4, 79, 82
6, 71326, Note_on_c, 4, 79, 0
6, 71340, Note_on_c, 4, 79, 91
6, 71356, Note_on_c, 4, 79, 0
6, 71370, Note_on_c, 4, 79, 93
6, 71385, Note_on_c, 4, 79, 0
6, 71400, Note_on_c, 4, 79, 98
6, 71415, Note_on_c, 4, 79, 0
6, 71430, Note_on_c, 4, 79, 100
6, 71447, Note_on_c, 4, 79, 0
6, 71460, Note_on_c, 4, 81, 107
6, 71535, Note_on_c, 4, 81, 0
6, 71670, Note_on_c, 4, 81, 105
6, 71688, Note_on_c, 4, 81, 0
6, 71700, Note_on_c, 4, 81, 102
6, 71717, Note_on_c, 4, 81, 0
6, 71730, Note_on_c, 4, 81, 100
6, 71744, Note_on_c, 4, 81, 0
6, 71760, Note_on_c, 4, 81, 100
6, 71776, Note_on_c, 4, 81, 0
6, 71790, Note_on_c, 4, 81, 98
6, 71806, Note_on_c, 4, 81, 0
6, 71820, Note_on_c, 4, 81, 105
6, 71881, Note_on_c, 4, 81, 0
6, 72030, Note_on_c, 4, 69, 87
6, 72046, Note_on_c, 4, 69, 0
6, 72060, Note_on_c, 4, 69, 100
6, 72088, Note_on_c, 4, 69, 0
6, 72090, Note_on_c, 4, 74, 100
6, 72107, Note_on_c, 4, 74, 0
6, 72120, Note_on_c, 4, 74, 105
6, 72143, Note_on_c, 4, 74, 0
6, 72150, Note_on_c, 4, 78, 105
6, 72178, Note_on_c, 4, 78, 0
6, 72180, Note_on_c, 4, 74, 116
6, 72253, Note_on_c, 4, 74, 0
6, 72360, Note_on_c, 4, 78, 116
6, 72428, Note_on_c, 4, 78, 0
6, 72540, Note_on_c, 4, 79, 102
6, 72597, Note_on_c, 4, 79, 0
6, 73260, Note_on_c, 4, 74, 107
6, 73345, Note_on_c, 4, 74, 0
6, 73440, Note_on_c, 4, 78, 113
6, 73516, Note_on_c, 4, 78, 0
6, 73620, Note_on_c, 4, 79, 107
6, 73668, Note_on_c, 4, 79, 0
6, 73800, Note_on_c, 4, 83, 105
6, 73868, Note_on_c, 4, 83, 0
6, 73980, Note_on_c, 4, 78, 107
6, 74038, Note_on_c, 4, 78, 0
6, 74160, Note_on_c, 4, 81, 105
6, 74216, Note_on_c, 4, 81, 0
6, 74340, Note_on_c, 4, 79, 95
6, 74378, Note_on_c, 4, 79, 0
6, 74460, Note_on_c, 4, 62, 105
6, 74500, Note_on_c, 4, 62, 0
6, 74520, Note_on_c, 4, 64, 98
6, 74607, Note_on_c, 4, 64, 0
6, 74640, Note_on_c, 4, 64, 105
6, 74689, Note_on_c, 4, 64, 0
6, 74700, Note_on_c, 4, 66, 110
6, 74764, Note_on_c, 4, 66, 0
6, 74820, Note_on_c, 4, 66, 107
6, 74868, Note_on_c, 4, 66, 0
6, 74880, Note_on_c, 4, 67, 105
6, 74929, Note_on_c, 4, 67, 0
6, 75000, Note_on_c, 4, 67, 100
6, 75039, Note_on_c, 4, 67, 0
6, 75060, Note_on_c, 4, 72, 107
6, 75090, Note_on_c, 4, 74, 100
6, 75096, Note_on_c, 4, 72, 0
6, 75120, Note_on_c, 4, 72, 102
6, 75121, Note_on_c, 4, 74, 0
6, 75150, Note_on_c, 4, 71, 113
6, 75159, Note_on_c, 4, 72, 0
6, 75180, Note_on_c, 4, 69, 113
6, 75184, Note_on_c, 4, 71, 0
6, 75240, Note_on_c, 4, 67, 100
6, 75241, Note_on_c, 4, 69, 0
6, 75296, Note_on_c, 4, 67, 0
6, 75300, Note_on_c, 4, 62, 113
6, 75359, Note_on_c, 4, 62, 0
6, 75360, Note_on_c, 4, 67, 113
6, 75417, Note_on_c, 4, 67, 0
6, 75420, Note_on_c, 4, 71, 105
6, 75478, Note_on_c, 4, 71, 0
6, 75480, Note_on_c, 4, 67, 107
6, 75534, Note_on_c, 4, 67, 0
6, 75540, Note_on_c, 4, 64, 102
6, 75599, Note_on_c, 4, 64, 0
6, 75600, Note_on_c, 4, 60, 102
6, 75781, Note_on_c, 4, 60, 0
6, 75810, Note_on_c, 4, 64, 98
6, 75829, Note_on_c, 4, 64, 0
6, 75840, Note_on_c, 4, 64, 98
6, 75865, Note_on_c, 4, 64, 0
6, 75870, Note_on_c, 4, 69, 102
6, 75888, Note_on_c, 4, 69, 0
6, 75900, Note_on_c, 4, 69, 93
6, 75925, Note_on_c, 4, 69, 0
6, 75930, Note_on_c, 4, 74, 93
6, 75948, Note_on_c, 4, 74, 0
6, 75960, Note_on_c, 4, 74, 102
6, 75985, Note_on_c, 4, 74, 0
6, 75990, Note_on_c, 4, 69, 100
6, 76009, Note_on_c, 4, 69, 0
6, 76020, Note_on_c, 4, 69, 105
6, 76034, Note_on_c, 4, 69, 0
6, 76050, Note_on_c, 4, 69, 102
6, 76064, Note_on_c, 4, 69, 0
6, 76080, Note_on_c, 4, 69, 100
6, 76098, Note_on_c, 4, 69, 0
6, 76110, Note_on_c, 4, 71, 100
6, 76126, Note_on_c, 4, 71, 0
6, 76140, Note_on_c, 4, 71, 110
6, 76168, Note_on_c, 4, 71, 0
6, 76170, Note_on_c, 4, 74, 105
6, 76199, Note_on_c, 4, 74, 0
6, 76200, Note_on_c, 4, 71, 113
6, 76250, Note_on_c, 4, 71, 0
6, 76290, Note_on_c, 4, 72, 102
6, 76308, Note_on_c, 4, 72, 0
6, 76320, Note_on_c, 4, 69, 116
6, 76368, Note_on_c, 4, 69, 0
6, 76410, Note_on_c, 4, 74, 105
6, 76432, Note_on_c, 4, 74, 0
6, 76440, Note_on_c, 4, 72, 113
6, 76482, Note_on_c, 4, 72, 0
6, 76530, Note_on_c, 4, 72, 110
6, 76560, Note_on_c, 4, 71, 107
6, 76567, Note_on_c, 4, 72, 0
6, 76590, Note_on_c, 4, 69, 107
6, 76595, Note_on_c, 4, 71, 0
6, 76620, Note_on_c, 4, 67, 110
6, 76628, Note_on_c, 4, 69, 0
6, 76645, Note_on_c, 4, 67, 0
6, 76650, Note_on_c, 4, 66, 107
6, 76675, Note_on_c, 4, 66, 0
6, 76680, Note_on_c, 4, 67, 98
6, 76704, Note_on_c, 4, 67, 0
6, 76710, Note_on_c, 4, 76, 107
6, 76736, Note_on_c, 4, 76, 0
6, 76740, Note_on_c, 4, 69, 107
6, 76794, Note_on_c, 4, 69, 0
6, 76800, Note_on_c, 4, 74, 102
6, 76841, Note_on_c, 4, 74, 0
6, 76860, Note_on_c, 4, 74, 113
6, 77040, Note_on_c, 4, 74, 0
6, 77040, End_track
7, 0, Start_track
7, 0, MIDI_port, 0
7, 0, Title_t, "Viola sec"
7, 0, Program_c, 5, 48
7, 0, Control_c, 5, 7, 90
7, 0, Control_c, 5, 10, 20
7, 180, Note_on_c, 5, 71, 64
7, 240, Note_on_c, 5, 71, 0
7, 360, Note_on_c, 5, 69, 64
7, 420, Note_on_c, 5, 69, 0
7, 540, Note_on_c, 5, 67, 64
7, 600, Note_on_c, 5, 67, 0
7, 1260, Note_on_c, 5, 71, 64
7, 1320, Note_on_c, 5, 71, 0
7, 1440, Note_on_c, 5, 69, 64
7, 1500, Note_on_c, 5, 69, 0
7, 1620, Note_on_c, 5, 67, 64
7, 1680, Note_on_c, 5, 67, 0
7, 1800, Note_on_c, 5, 55, 64
7, 1860, Note_on_c, 5, 55, 0
7, 1980, Note_on_c, 5, 62, 64
7, 2040, Note_on_c, 5, 62, 0
7, 2160, Note_on_c, 5, 50, 64
7, 2220, Note_on_c, 5, 50, 0
7, 2340, Note_on_c, 5, 55, 64
7, 2400, Note_on_c, 5, 55, 0
7, 2550, Note_on_c, 5, 64, 64
7, 2580, Note_on_c, 5, 64, 0
7, 2580, Note_on_c, 5, 64, 64
7, 2610, Note_on_c, 5, 64, 0
7, 2610, Note_on_c, 5, 64, 64
7, 2640, Note_on_c, 5, 64, 0
7, 2640, Note_on_c, 5, 64, 64
7, 2670, Note_on_c, 5, 64, 0
7, 2670, Note_on_c, 5, 64, 64
7, 2700, Note_on_c, 5, 64, 0
7, 2700, Note_on_c, 5, 64, 64
7, 2760, Note_on_c, 5, 64, 0
7, 2910, Note_on_c, 5, 66, 64
7, 2940, Note_on_c, 5, 66, 0
7, 2940, Note_on_c, 5, 66, 64
7, 2970, Note_on_c, 5, 66, 0
7, 2970, Note_on_c, 5, 66, 64
7, 3000, Note_on_c, 5, 66, 0
7, 3000, Note_on_c, 5, 66, 64
7, 3030, Note_on_c, 5, 66, 0
7, 3030, Note_on_c, 5, 66, 64
7, 3060, Note_on_c, 5, 66, 0
7, 3060, Note_on_c, 5, 66, 64
7, 3120, Note_on_c, 5, 66, 0
7, 3270, Note_on_c, 5, 67, 64
7, 3300, Note_on_c, 5, 67, 0
7, 3300, Note_on_c, 5, 67, 64
7, 3330, Note_on_c, 5, 67, 0
7, 3330, Note_on_c, 5, 67, 64
7, 3360, Note_on_c, 5, 67, 0
7, 3360, Note_on_c, 5, 67, 64
7, 3390, Note_on_c, 5, 67, 0
7, 3390, Note_on_c, 5, 67, 64
7, 3420, Note_on_c, 5, 67, 0
7, 3420, Note_on_c, 5, 67, 64
7, 3480, Note_on_c, 5, 67, 0
7, 3630, Note_on_c, 5, 64, 64
7, 3660, Note_on_c, 5, 64, 0
7, 3660, Note_on_c, 5, 64, 64
7, 3690, Note_on_c, 5, 64, 0
7, 3690, Note_on_c, 5, 64, 64
7, 3720, Note_on_c, 5, 64, 0
7, 3720, Note_on_c, 5, 64, 64
7, 3750, Note_on_c, 5, 64, 0
7, 3750, Note_on_c, 5, 64, 64
7, 3780, Note_on_c, 5, 64, 0
7, 3780, Note_on_c, 5, 69, 64
7, 3840, Note_on_c, 5, 69, 0
7, 3990, Note_on_c, 5, 64, 64
7, 4020, Note_on_c, 5, 64, 0
7, 4020, Note_on_c, 5, 64, 64
7, 4050, Note_on_c, 5, 64, 0
7, 4050, Note_on_c, 5, 64, 64
7, 4080, Note_on_c, 5, 64, 0
7, 4080, Note_on_c, 5, 64, 64
7, 4110, Note_on_c, 5, 64, 0
7, 4110, Note_on_c, 5, 64, 64
7, 4140, Note_on_c, 5, 64, 0
7, 4140, Note_on_c, 5, 66, 64
7, 4200, Note_on_c, 5, 66, 0
7, 4320, Note_on_c, 5, 64, 64
7, 4380, Note_on_c, 5, 64, 0
7, 4500, Note_on_c, 5, 62, 64
7, 4560, Note_on_c, 5, 62, 0
7, 5220, Note_on_c, 5, 66, 64
7, 5280, Note_on_c, 5, 66, 0
7, 5400, Note_on_c, 5, 64, 64
7, 5460, Note_on_c, 5, 64, 0
7, 5580, Note_on_c, 5, 62, 64
7, 5640, Note_on_c, 5, 62, 0
7, 5760, Note_on_c, 5, 50, 64
7, 5820, Note_on_c, 5, 50, 0
7, 5940, Note_on_c, 5, 57, 64
7, 6000, Note_on_c, 5, 57, 0
7, 6120, Note_on_c, 5, 69, 64
7, 6180, Note_on_c, 5, 69, 0
7, 6300, Note_on_c, 5, 62, 64
7, 6360, Note_on_c, 5, 62, 0
7, 6690, Note_on_c, 5, 69, 64
7, 6720, Note_on_c, 5, 69, 0
7, 6720, Note_on_c, 5, 69, 64
7, 6750, Note_on_c, 5, 69, 0
7, 6750, Note_on_c, 5, 66, 64
7, 6780, Note_on_c, 5, 66, 0
7, 6780, Note_on_c, 5, 66, 64
7, 6810, Note_on_c, 5, 66, 0
7, 6810, Note_on_c, 5, 62, 64
7, 6840, Note_on_c, 5, 62, 0
7, 6840, Note_on_c, 5, 62, 64
7, 6900, Note_on_c, 5, 62, 0
7, 6900, Note_on_c, 5, 62, 64
7, 6930, Note_on_c, 5, 62, 0
7, 6930, Note_on_c, 5, 66, 64
7, 6960, Note_on_c, 5, 66, 0
7, 6960, Note_on_c, 5, 67, 64
7, 6990, Note_on_c, 5, 67, 0
7, 6990, Note_on_c, 5, 69, 64
7, 7020, Note_on_c, 5, 69, 0
7, 7020, Note_on_c, 5, 67, 64
7, 7080, Note_on_c, 5, 67, 0
7, 7410, Note_on_c, 5, 71, 64
7, 7440, Note_on_c, 5, 71, 0
7, 7440, Note_on_c, 5, 71, 64
7, 7470, Note_on_c, 5, 71, 0
7, 7470, Note_on_c, 5, 71, 64
7, 7500, Note_on_c, 5, 71, 0
7, 7500, Note_on_c, 5, 71, 64
7, 7530, Note_on_c, 5, 71, 0
7, 7530, Note_on_c, 5, 71, 64
7, 7560, Note_on_c, 5, 71, 0
7, 7560, Note_on_c, 5, 71, 64
7, 7620, Note_on_c, 5, 71, 0
7, 7620, Note_on_c, 5, 67, 64
7, 7650, Note_on_c, 5, 67, 0
7, 7650, Note_on_c, 5, 67, 64
7, 7680, Note_on_c, 5, 67, 0
7, 7680, Note_on_c, 5, 67, 64
7, 7710, Note_on_c, 5, 67, 0
7, 7710, Note_on_c, 5, 67, 64
7, 7740, Note_on_c, 5, 67, 0
7, 7740, Note_on_c, 5, 67, 64
7, 7800, Note_on_c, 5, 67, 0
7, 7800, Note_on_c, 5, 64, 64
7, 7860, Note_on_c, 5, 64, 0
7, 7860, Note_on_c, 5, 69, 64
7, 7950, Note_on_c, 5, 69, 0
7, 7950, Note_on_c, 5, 66, 64
7, 7980, Note_on_c, 5, 66, 0
7, 7980, Note_on_c, 5, 66, 64
7, 8010, Note_on_c, 5, 66, 0
7, 8010, Note_on_c, 5, 62, 64
7, 8040, Note_on_c, 5, 62, 0
7, 8040, Note_on_c, 5, 62, 64
7, 8070, Note_on_c, 5, 62, 0
7, 8070, Note_on_c, 5, 67, 64
7, 8100, Note_on_c, 5, 67, 0
7, 8100, Note_on_c, 5, 67, 64
7, 8130, Note_on_c, 5, 67, 0
7, 8130, Note_on_c, 5, 64, 64
7, 8160, Note_on_c, 5, 64, 0
7, 8160, Note_on_c, 5, 64, 64
7, 8190, Note_on_c, 5, 64, 0
7, 8190, Note_on_c, 5, 60, 64
7, 8220, Note_on_c, 5, 60, 0
7, 8220, Note_on_c, 5, 60, 64
7, 8250, Note_on_c, 5, 60, 0
7, 8250, Note_on_c, 5, 66, 64
7, 8280, Note_on_c, 5, 66, 0
7, 8280, Note_on_c, 5, 66, 64
7, 8310, Note_on_c, 5, 66, 0
7, 8310, Note_on_c, 5, 62, 64
7, 8340, Note_on_c, 5, 62, 0
7, 8340, Note_on_c, 5, 62, 64
7, 8370, Note_on_c, 5, 62, 0
7, 8370, Note_on_c, 5, 59, 64
7, 8400, Note_on_c, 5, 59, 0
7, 8400, Note_on_c, 5, 59, 64
7, 8430, Note_on_c, 5, 59, 0
7, 8430, Note_on_c, 5, 55, 64
7, 8460, Note_on_c, 5, 55, 0
7, 8460, Note_on_c, 5, 55, 64
7, 8520, Note_on_c, 5, 55, 0
7, 8520, Note_on_c, 5, 72, 64
7, 8580, Note_on_c, 5, 72, 0
7, 8580, Note_on_c, 5, 71, 64
7, 8640, Note_on_c, 5, 71, 0
7, 8640, Note_on_c, 5, 69, 64
7, 8670, Note_on_c, 5, 69, 0
7, 8670, Note_on_c, 5, 69, 64
7, 8700, Note_on_c, 5, 69, 0
7, 8700, Note_on_c, 5, 69, 64
7, 8730, Note_on_c, 5, 69, 0
7, 8730, Note_on_c, 5, 69, 64
7, 8760, Note_on_c, 5, 69, 0
7, 8760, Note_on_c, 5, 69, 64
7, 8790, Note_on_c, 5, 69, 0
7, 8790, Note_on_c, 5, 69, 64
7, 8820, Note_on_c, 5, 69, 0
7, 8820, Note_on_c, 5, 69, 64
7, 8880, Note_on_c, 5, 69, 0
7, 8880, Note_on_c, 5, 74, 64
7, 8940, Note_on_c, 5, 74, 0
7, 8940, Note_on_c, 5, 72, 64
7, 9000, Note_on_c, 5, 72, 0
7, 9000, Note_on_c, 5, 71, 64
7, 9030, Note_on_c, 5, 71, 0
7, 9030, Note_on_c, 5, 71, 64
7, 9060, Note_on_c, 5, 71, 0
7, 9060, Note_on_c, 5, 71, 64
7, 9090, Note_on_c, 5, 71, 0
7, 9090, Note_on_c, 5, 71, 64
7, 9120, Note_on_c, 5, 71, 0
7, 9120, Note_on_c, 5, 71, 64
7, 9150, Note_on_c, 5, 71, 0
7, 9150, Note_on_c, 5, 71, 64
7, 9180, Note_on_c, 5, 71, 0
7, 9180, Note_on_c, 5, 71, 64
7, 9240, Note_on_c, 5, 71, 0
7, 9240, Note_on_c, 5, 76, 64
7, 9300, Note_on_c, 5, 76, 0
7, 9300, Note_on_c, 5, 74, 64
7, 9360, Note_on_c, 5, 74, 0
7, 9360, Note_on_c, 5, 72, 64
7, 9390, Note_on_c, 5, 72, 0
7, 9390, Note_on_c, 5, 72, 64
7, 9420, Note_on_c, 5, 72, 0
7, 9420, Note_on_c, 5, 72, 64
7, 9450, Note_on_c, 5, 72, 0
7, 9450, Note_on_c, 5, 72, 64
7, 9480, Note_on_c, 5, 72, 0
7, 9480, Note_on_c, 5, 72, 64
7, 9510, Note_on_c, 5, 72, 0
7, 9510, Note_on_c, 5, 72, 64
7, 9540, Note_on_c, 5, 72, 0
7, 9540, Note_on_c, 5, 72, 64
7, 9600, Note_on_c, 5, 72, 0
7, 9750, Note_on_c, 5, 69, 64
7, 9780, Note_on_c, 5, 69, 0
7, 9780, Note_on_c, 5, 69, 64
7, 9810, Note_on_c, 5, 69, 0
7, 9810, Note_on_c, 5, 69, 64
7, 9840, Note_on_c, 5, 69, 0
7, 9840, Note_on_c, 5, 69, 64
7, 9870, Note_on_c, 5, 69, 0
7, 9870, Note_on_c, 5, 69, 64
7, 9900, Note_on_c, 5, 69, 0
7, 9900, Note_on_c, 5, 74, 64
7, 9960, Note_on_c, 5, 74, 0
7, 10110, Note_on_c, 5, 69, 64
7, 10140, Note_on_c, 5, 69, 0
7, 10140, Note_on_c, 5, 69, 64
7, 10170, Note_on_c, 5, 69, 0
7, 10170, Note_on_c, 5, 69, 64
7, 10200, Note_on_c, 5, 69, 0
7, 10200, Note_on_c, 5, 69, 64
7, 10230, Note_on_c, 5, 69, 0
7, 10230, Note_on_c, 5, 69, 64
7, 10260, Note_on_c, 5, 69, 0
7, 10260, Note_on_c, 5, 71, 64
7, 10320, Note_on_c, 5, 71, 0
7, 10440, Note_on_c, 5, 69, 64
7, 10500, Note_on_c, 5, 69, 0
7, 10620, Note_on_c, 5, 67, 64
7, 10680, Note_on_c, 5, 67, 0
7, 11340, Note_on_c, 5, 71, 64
7, 11400, Note_on_c, 5, 71, 0
7, 11520, Note_on_c, 5, 69, 64
7, 11580, Note_on_c, 5, 69, 0
7, 11700, Note_on_c, 5, 67, 64
7, 11760, Note_on_c, 5, 67, 0
7, 11880, Note_on_c, 5, 55, 64
7, 11940, Note_on_c, 5, 55, 0
7, 12060, Note_on_c, 5, 62, 64
7, 12120, Note_on_c, 5, 62, 0
7, 12240, Note_on_c, 5, 50, 64
7, 12300, Note_on_c, 5, 50, 0
7, 12420, Note_on_c, 5, 55, 64
7, 12480, Note_on_c, 5, 55, 0
7, 12540, Note_on_c, 5, 59, 64
7, 12600, Note_on_c, 5, 59, 0
7, 12600, Note_on_c, 5, 60, 64
7, 12660, Note_on_c, 5, 60, 0
7, 12720, Note_on_c, 5, 61, 64
7, 12780, Note_on_c, 5, 61, 0
7, 12780, Note_on_c, 5, 62, 64
7, 12840, Note_on_c, 5, 62, 0
7, 12900, Note_on_c, 5, 63, 64
7, 12960, Note_on_c, 5, 63, 0
7, 12960, Note_on_c, 5, 64, 64
7, 13020, Note_on_c, 5, 64, 0
7, 13080, Note_on_c, 5, 64, 64
7, 13140, Note_on_c, 5, 64, 0
7, 13140, Note_on_c, 5, 67, 64
7, 13200, Note_on_c, 5, 67, 0
7, 13200, Note_on_c, 5, 62, 64
7, 13260, Note_on_c, 5, 62, 0
7, 13260, Note_on_c, 5, 66, 64
7, 13320, Note_on_c, 5, 66, 0
7, 13320, Note_on_c, 5, 59, 64
7, 13380, Note_on_c, 5, 59, 0
7, 13380, Note_on_c, 5, 67, 64
7, 13440, Note_on_c, 5, 67, 0
7, 13440, Note_on_c, 5, 62, 64
7, 13500, Note_on_c, 5, 62, 0
7, 13500, Note_on_c, 5, 64, 64
7, 13560, Note_on_c, 5, 64, 0
7, 13560, Note_on_c, 5, 67, 64
7, 13620, Note_on_c, 5, 67, 0
7, 13620, Note_on_c, 5, 64, 64
7, 13680, Note_on_c, 5, 64, 0
7, 13680, Note_on_c, 5, 60, 64
7, 13890, Note_on_c, 5, 60, 0
7, 13890, Note_on_c, 5, 60, 64
7, 13920, Note_on_c, 5, 60, 0
7, 13920, Note_on_c, 5, 60, 64
7, 13950, Note_on_c, 5, 60, 0
7, 13950, Note_on_c, 5, 64, 64
7, 13980, Note_on_c, 5, 64, 0
7, 13980, Note_on_c, 5, 64, 64
7, 14010, Note_on_c, 5, 64, 0
7, 14010, Note_on_c, 5, 69, 64
7, 14040, Note_on_c, 5, 69, 0
7, 14040, Note_on_c, 5, 69, 64
7, 14070, Note_on_c, 5, 69, 0
7, 14070, Note_on_c, 5, 62, 64
7, 14100, Note_on_c, 5, 62, 0
7, 14100, Note_on_c, 5, 62, 64
7, 14130, Note_on_c, 5, 62, 0
7, 14130, Note_on_c, 5, 62, 64
7, 14160, Note_on_c, 5, 62, 0
7, 14160, Note_on_c, 5, 62, 64
7, 14190, Note_on_c, 5, 62, 0
7, 14190, Note_on_c, 5, 62, 64
7, 14220, Note_on_c, 5, 62, 0
7, 14220, Note_on_c, 5, 62, 64
7, 14250, Note_on_c, 5, 62, 0
7, 14250, Note_on_c, 5, 67, 64
7, 14280, Note_on_c, 5, 67, 0
7, 14280, Note_on_c, 5, 71, 64
7, 14340, Note_on_c, 5, 71, 0
7, 14370, Note_on_c, 5, 69, 64
7, 14400, Note_on_c, 5, 69, 0
7, 14400, Note_on_c, 5, 69, 64
7, 14460, Note_on_c, 5, 69, 0
7, 14490, Note_on_c, 5, 67, 64
7, 14520, Note_on_c, 5, 67, 0
7, 14520, Note_on_c, 5, 67, 64
7, 14580, Note_on_c, 5, 67, 0
7, 14610, Note_on_c, 5, 64, 64
7, 14640, Note_on_c, 5, 64, 0
7, 14640, Note_on_c, 5, 66, 64
7, 14700, Note_on_c, 5, 66, 0
7, 14700, Note_on_c, 5, 59, 64
7, 14760, Note_on_c, 5, 59, 0
7, 14760, Note_on_c, 5, 64, 64
7, 14820, Note_on_c, 5, 64, 0
7, 14820, Note_on_c, 5, 66, 64
7, 14880, Note_on_c, 5, 66, 0
7, 14880, Note_on_c, 5, 69, 64
7, 14940, Note_on_c, 5, 69, 0
7, 14940, Note_on_c, 5, 71, 64
7, 15060, Note_on_c, 5, 71, 0
7, 16020, Note_on_c, 5, 71, 64
7, 16080, Note_on_c, 5, 71, 0
7, 16200, Note_on_c, 5, 69, 64
7, 16260, Note_on_c, 5, 69, 0
7, 16380, Note_on_c, 5, 67, 64
7, 16440, Note_on_c, 5, 67, 0
7, 18540, Note_on_c, 5, 66, 64
7, 18600, Note_on_c, 5, 66, 0
7, 18720, Note_on_c, 5, 64, 64
7, 18780, Note_on_c, 5, 64, 0
7, 18900, Note_on_c, 5, 62, 64
7, 18960, Note_on_c, 5, 62, 0
7, 19980, Note_on_c, 5, 66, 64
7, 20040, Note_on_c, 5, 66, 0
7, 20160, Note_on_c, 5, 64, 64
7, 20220, Note_on_c, 5, 64, 0
7, 20340, Note_on_c, 5, 62, 64
7, 20400, Note_on_c, 5, 62, 0
7, 22500, Note_on_c, 5, 57, 64
7, 23220, Note_on_c, 5, 57, 0
7, 23220, Note_on_c, 5, 58, 64
7, 23940, Note_on_c, 5, 58, 0
7, 23940, Note_on_c, 5, 59, 64
7, 25080, Note_on_c, 5, 59, 0
7, 25200, Note_on_c, 5, 64, 64
7, 25260, Note_on_c, 5, 64, 0
7, 25380, Note_on_c, 5, 71, 64
7, 25440, Note_on_c, 5, 71, 0
7, 25560, Note_on_c, 5, 59, 64
7, 25620, Note_on_c, 5, 59, 0
7, 25740, Note_on_c, 5, 64, 64
7, 25800, Note_on_c, 5, 64, 0
7, 25860, Note_on_c, 5, 56, 64
7, 25920, Note_on_c, 5, 56, 0
7, 25920, Note_on_c, 5, 57, 64
7, 25980, Note_on_c, 5, 57, 0
7, 26040, Note_on_c, 5, 58, 64
7, 26100, Note_on_c, 5, 58, 0
7, 26100, Note_on_c, 5, 59, 64
7, 26160, Note_on_c, 5, 59, 0
7, 26220, Note_on_c, 5, 59, 64
7, 26280, Note_on_c, 5, 59, 0
7, 26280, Note_on_c, 5, 60, 64
7, 26340, Note_on_c, 5, 60, 0
7, 26400, Note_on_c, 5, 60, 64
7, 26460, Note_on_c, 5, 60, 0
7, 26460, Note_on_c, 5, 64, 64
7, 26520, Note_on_c, 5, 64, 0
7, 26520, Note_on_c, 5, 59, 64
7, 26580, Note_on_c, 5, 59, 0
7, 26580, Note_on_c, 5, 63, 64
7, 26640, Note_on_c, 5, 63, 0
7, 26640, Note_on_c, 5, 67, 64
7, 26700, Note_on_c, 5, 67, 0
7, 26700, Note_on_c, 5, 64, 64
7, 26760, Note_on_c, 5, 64, 0
7, 26760, Note_on_c, 5, 59, 64
7, 26820, Note_on_c, 5, 59, 0
7, 26820, Note_on_c, 5, 60, 64
7, 26880, Note_on_c, 5, 60, 0
7, 26880, Note_on_c, 5, 64, 64
7, 26940, Note_on_c, 5, 64, 0
7, 26940, Note_on_c, 5, 60, 64
7, 27000, Note_on_c, 5, 60, 0
7, 27000, Note_on_c, 5, 57, 64
7, 27210, Note_on_c, 5, 57, 0
7, 27210, Note_on_c, 5, 57, 64
7, 27240, Note_on_c, 5, 57, 0
7, 27240, Note_on_c, 5, 57, 64
7, 27270, Note_on_c, 5, 57, 0
7, 27270, Note_on_c, 5, 60, 64
7, 27300, Note_on_c, 5, 60, 0
7, 27300, Note_on_c, 5, 60, 64
7, 27330, Note_on_c, 5, 60, 0
7, 27330, Note_on_c, 5, 66, 64
7, 27360, Note_on_c, 5, 66, 0
7, 27360, Note_on_c, 5, 66, 64
7, 27390, Note_on_c, 5, 66, 0
7, 27390, Note_on_c, 5, 59, 64
7, 27420, Note_on_c, 5, 59, 0
7, 27420, Note_on_c, 5, 59, 64
7, 27450, Note_on_c, 5, 59, 0
7, 27450, Note_on_c, 5, 59, 64
7, 27480, Note_on_c, 5, 59, 0
7, 27480, Note_on_c, 5, 59, 64
7, 27510, Note_on_c, 5, 59, 0
7, 27510, Note_on_c, 5, 59, 64
7, 27540, Note_on_c, 5, 59, 0
7, 27540, Note_on_c, 5, 59, 64
7, 27600, Note_on_c, 5, 59, 0
7, 27630, Note_on_c, 5, 60, 64
7, 27660, Note_on_c, 5, 60, 0
7, 27660, Note_on_c, 5, 60, 64
7, 27720, Note_on_c, 5, 60, 0
7, 27750, Note_on_c, 5, 59, 64
7, 27780, Note_on_c, 5, 59, 0
7, 27780, Note_on_c, 5, 59, 64
7, 27840, Note_on_c, 5, 59, 0
7, 27870, Note_on_c, 5, 57, 64
7, 27900, Note_on_c, 5, 57, 0
7, 27900, Note_on_c, 5, 57, 64
7, 27960, Note_on_c, 5, 57, 0
7, 27990, Note_on_c, 5, 66, 64
7, 28020, Note_on_c, 5, 66, 0
7, 28020, Note_on_c, 5, 72, 64
7, 28080, Note_on_c, 5, 72, 0
7, 28140, Note_on_c, 5, 66, 64
7, 28140, Note_on_c, 5, 71, 64
7, 28199, Note_on_c, 5, 71, 0
7, 28199, Note_on_c, 5, 66, 0
7, 28200, Note_on_c, 5, 69, 64
7, 28259, Note_on_c, 5, 69, 0
7, 28260, Note_on_c, 5, 67, 64
7, 28439, Note_on_c, 5, 67, 0
7, 28500, Note_on_c, 5, 71, 105
7, 28559, Note_on_c, 5, 71, 0
7, 28560, Note_on_c, 5, 71, 116
7, 28619, Note_on_c, 5, 71, 0
7, 28620, Note_on_c, 5, 71, 116
7, 28679, Note_on_c, 5, 71, 0
7, 28860, Note_on_c, 5, 60, 100
7, 28919, Note_on_c, 5, 60, 0
7, 28920, Note_on_c, 5, 64, 100
7, 28979, Note_on_c, 5, 64, 0
7, 28980, Note_on_c, 5, 71, 113
7, 29039, Note_on_c, 5, 71, 0
7, 29220, Note_on_c, 5, 64, 89
7, 29279, Note_on_c, 5, 64, 0
7, 29280, Note_on_c, 5, 71, 105
7, 29339, Note_on_c, 5, 71, 0
7, 29340, Note_on_c, 5, 72, 105
7, 29399, Note_on_c, 5, 72, 0
7, 29580, Note_on_c, 5, 69, 102
7, 29639, Note_on_c, 5, 69, 0
7, 29640, Note_on_c, 5, 69, 113
7, 29699, Note_on_c, 5, 69, 0
7, 29700, Note_on_c, 5, 71, 107
7, 29759, Note_on_c, 5, 71, 0
7, 33300, Note_on_c, 5, 72, 100
7, 33359, Note_on_c, 5, 72, 0
7, 33480, Note_on_c, 5, 71, 100
7, 33539, Note_on_c, 5, 71, 0
7, 33660, Note_on_c, 5, 69, 110
7, 33719, Note_on_c, 5, 69, 0
7, 33840, Note_on_c, 5, 57, 87
7, 33899, Note_on_c, 5, 57, 0
7, 34020, Note_on_c, 5, 62, 100
7, 34079, Note_on_c, 5, 62, 0
7, 34200, Note_on_c, 5, 64, 105
7, 34259, Note_on_c, 5, 64, 0
7, 34380, Note_on_c, 5, 69, 102
7, 34439, Note_on_c, 5, 69, 0
7, 34440, Note_on_c, 5, 64, 98
7, 34499, Note_on_c, 5, 64, 0
7, 34500, Note_on_c, 5, 60, 91
7, 34559, Note_on_c, 5, 60, 0
7, 34560, Note_on_c, 5, 68, 107
7, 34619, Note_on_c, 5, 68, 0
7, 34620, Note_on_c, 5, 64, 95
7, 34679, Note_on_c, 5, 64, 0
7, 34680, Note_on_c, 5, 59, 107
7, 34739, Note_on_c, 5, 59, 0
7, 34740, Note_on_c, 5, 69, 113
7, 34799, Note_on_c, 5, 69, 0
7, 34920, Note_on_c, 5, 64, 110
7, 34979, Note_on_c, 5, 64, 0
7, 35100, Note_on_c, 5, 71, 110
7, 35159, Note_on_c, 5, 71, 0
7, 35280, Note_on_c, 5, 68, 110
7, 35339, Note_on_c, 5, 68, 0
7, 35460, Note_on_c, 5, 64, 113
7, 35519, Note_on_c, 5, 64, 0
7, 35700, Note_on_c, 5, 69, 107
7, 35759, Note_on_c, 5, 69, 0
7, 35760, Note_on_c, 5, 69, 113
7, 35819, Note_on_c, 5, 69, 0
7, 35820, Note_on_c, 5, 69, 113
7, 35879, Note_on_c, 5, 69, 0
7, 36060, Note_on_c, 5, 62, 102
7, 36119, Note_on_c, 5, 62, 0
7, 36120, Note_on_c, 5, 62, 107
7, 36179, Note_on_c, 5, 62, 0
7, 36180, Note_on_c, 5, 62, 113
7, 36239, Note_on_c, 5, 62, 0
7, 36420, Note_on_c, 5, 67, 107
7, 36479, Note_on_c, 5, 67, 0
7, 36480, Note_on_c, 5, 67, 107
7, 36539, Note_on_c, 5, 67, 0
7, 36540, Note_on_c, 5, 67, 113
7, 36599, Note_on_c, 5, 67, 0
7, 36780, Note_on_c, 5, 72, 105
7, 36839, Note_on_c, 5, 72, 0
7, 36840, Note_on_c, 5, 72, 107
7, 36899, Note_on_c, 5, 72, 0
7, 36900, Note_on_c, 5, 72, 110
7, 36959, Note_on_c, 5, 72, 0
7, 36960, Note_on_c, 5, 69, 107
7, 37019, Note_on_c, 5, 69, 0
7, 37080, Note_on_c, 5, 67, 100
7, 37139, Note_on_c, 5, 67, 0
7, 37140, Note_on_c, 5, 71, 105
7, 37199, Note_on_c, 5, 71, 0
7, 37260, Note_on_c, 5, 69, 105
7, 37319, Note_on_c, 5, 69, 0
7, 37320, Note_on_c, 5, 72, 105
7, 37379, Note_on_c, 5, 72, 0
7, 37440, Note_on_c, 5, 71, 100
7, 37499, Note_on_c, 5, 71, 0
7, 37500, Note_on_c, 5, 74, 107
7, 37559, Note_on_c, 5, 74, 0
7, 37620, Note_on_c, 5, 72, 105
7, 37679, Note_on_c, 5, 72, 0
7, 37680, Note_on_c, 5, 67, 100
7, 37739, Note_on_c, 5, 67, 0
7, 37800, Note_on_c, 5, 71, 100
7, 37859, Note_on_c, 5, 71, 0
7, 37860, Note_on_c, 5, 62, 102
7, 37919, Note_on_c, 5, 62, 0
7, 37980, Note_on_c, 5, 55, 113
7, 39779, Note_on_c, 5, 55, 0
7, 39900, Note_on_c, 5, 64, 102
7, 39960, Note_on_c, 5, 64, 0
7, 39960, Note_on_c, 5, 60, 107
7, 40048, Note_on_c, 5, 60, 0
7, 40080, Note_on_c, 5, 66, 107
7, 40139, Note_on_c, 5, 66, 0
7, 40140, Note_on_c, 5, 62, 105
7, 40225, Note_on_c, 5, 62, 0
7, 40260, Note_on_c, 5, 68, 105
7, 40317, Note_on_c, 5, 68, 0
7, 40320, Note_on_c, 5, 64, 102
7, 40395, Note_on_c, 5, 64, 0
7, 40440, Note_on_c, 5, 69, 100
7, 40496, Note_on_c, 5, 69, 0
7, 40500, Note_on_c, 5, 72, 102
7, 40554, Note_on_c, 5, 72, 0
7, 40560, Note_on_c, 5, 67, 102
7, 40620, Note_on_c, 5, 67, 0
7, 40620, Note_on_c, 5, 71, 98
7, 40680, Note_on_c, 5, 71, 0
7, 40680, Note_on_c, 5, 64, 91
7, 40740, Note_on_c, 5, 72, 91
7, 40745, Note_on_c, 5, 64, 0
7, 40800, Note_on_c, 5, 67, 100
7, 40805, Note_on_c, 5, 72, 0
7, 40860, Note_on_c, 5, 69, 100
7, 40868, Note_on_c, 5, 67, 0
7, 40920, Note_on_c, 5, 72, 100
7, 40922, Note_on_c, 5, 69, 0
7, 40980, Note_on_c, 5, 69, 102
7, 40981, Note_on_c, 5, 72, 0
7, 41034, Note_on_c, 5, 69, 0
7, 41040, Note_on_c, 5, 65, 105
7, 41244, Note_on_c, 5, 65, 0
7, 41250, Note_on_c, 5, 53, 89
7, 41265, Note_on_c, 5, 53, 0
7, 41280, Note_on_c, 5, 53, 91
7, 41304, Note_on_c, 5, 53, 0
7, 41310, Note_on_c, 5, 57, 107
7, 41324, Note_on_c, 5, 57, 0
7, 41340, Note_on_c, 5, 57, 93
7, 41365, Note_on_c, 5, 57, 0
7, 41370, Note_on_c, 5, 62, 89
7, 41389, Note_on_c, 5, 62, 0
7, 41400, Note_on_c, 5, 62, 100
7, 41426, Note_on_c, 5, 62, 0
7, 41430, Note_on_c, 5, 55, 98
7, 41445, Note_on_c, 5, 55, 0
7, 41460, Note_on_c, 5, 55, 102
7, 41473, Note_on_c, 5, 55, 0
7, 41490, Note_on_c, 5, 55, 98
7, 41500, Note_on_c, 5, 55, 0
7, 41520, Note_on_c, 5, 55, 105
7, 41531, Note_on_c, 5, 55, 0
7, 41550, Note_on_c, 5, 55, 102
7, 41562, Note_on_c, 5, 55, 0
7, 41580, Note_on_c, 5, 55, 105
7, 41605, Note_on_c, 5, 55, 0
7, 41610, Note_on_c, 5, 60, 100
7, 41630, Note_on_c, 5, 60, 0
7, 41640, Note_on_c, 5, 64, 105
7, 41696, Note_on_c, 5, 64, 0
7, 41730, Note_on_c, 5, 62, 105
7, 41742, Note_on_c, 5, 62, 0
7, 41760, Note_on_c, 5, 62, 110
7, 41810, Note_on_c, 5, 62, 0
7, 41850, Note_on_c, 5, 60, 107
7, 41865, Note_on_c, 5, 60, 0
7, 41880, Note_on_c, 5, 60, 100
7, 41921, Note_on_c, 5, 60, 0
7, 41970, Note_on_c, 5, 57, 102
7, 41990, Note_on_c, 5, 57, 0
7, 42000, Note_on_c, 5, 59, 113
7, 42060, Note_on_c, 5, 52, 76
7, 42061, Note_on_c, 5, 59, 0
7, 42120, Note_on_c, 5, 52, 0
7, 42120, Note_on_c, 5, 57, 102
7, 42180, Note_on_c, 5, 59, 113
7, 42182, Note_on_c, 5, 57, 0
7, 42235, Note_on_c, 5, 59, 0
7, 42240, Note_on_c, 5, 62, 105
7, 42290, Note_on_c, 5, 62, 0
7, 42300, Note_on_c, 5, 64, 110
7, 42356, Note_on_c, 5, 64, 0
7, 43380, Note_on_c, 5, 67, 100
7, 43464, Note_on_c, 5, 67, 0
7, 43560, Note_on_c, 5, 71, 107
7, 43638, Note_on_c, 5, 71, 0
7, 43740, Note_on_c, 5, 72, 107
7, 43794, Note_on_c, 5, 72, 0
7, 43800, Note_on_c, 5, 64, 102
7, 43854, Note_on_c, 5, 64, 0
7, 43860, Note_on_c, 5, 60, 98
7, 43893, Note_on_c, 5, 60, 0
7, 43920, Note_on_c, 5, 57, 98
7, 43973, Note_on_c, 5, 57, 0
7, 44160, Note_on_c, 5, 62, 102
7, 44211, Note_on_c, 5, 62, 0
7, 44220, Note_on_c, 5, 59, 100
7, 44272, Note_on_c, 5, 59, 0
7, 44280, Note_on_c, 5, 55, 105
7, 44330, Note_on_c, 5, 55, 0
7, 44520, Note_on_c, 5, 60, 98
7, 44575, Note_on_c, 5, 60, 0
7, 44580, Note_on_c, 5, 57, 102
7, 44628, Note_on_c, 5, 57, 0
7, 44640, Note_on_c, 5, 62, 107
7, 44698, Note_on_c, 5, 62, 0
7, 44820, Note_on_c, 5, 71, 110
7, 44875, Note_on_c, 5, 71, 0
7, 45000, Note_on_c, 5, 69, 105
7, 45056, Note_on_c, 5, 69, 0
7, 45180, Note_on_c, 5, 67, 107
7, 45230, Note_on_c, 5, 67, 0
7, 46320, Note_on_c, 5, 71, 107
7, 46374, Note_on_c, 5, 71, 0
7, 46380, Note_on_c, 5, 67, 116
7, 46426, Note_on_c, 5, 67, 0
7, 46440, Note_on_c, 5, 64, 102
7, 46497, Note_on_c, 5, 64, 0
7, 46682, Note_on_c, 5, 69, 102
7, 46729, Note_on_c, 5, 69, 0
7, 46743, Note_on_c, 5, 66, 107
7, 46790, Note_on_c, 5, 66, 0
7, 46805, Note_on_c, 5, 62, 105
7, 46865, Note_on_c, 5, 62, 0
7, 47043, Note_on_c, 5, 67, 100
7, 47093, Note_on_c, 5, 67, 0
7, 47104, Note_on_c, 5, 64, 100
7, 47153, Note_on_c, 5, 64, 0
7, 47162, Note_on_c, 5, 69, 98
7, 47212, Note_on_c, 5, 69, 0
7, 48810, Note_on_c, 5, 67, 98
7, 48826, Note_on_c, 5, 67, 0
7, 48840, Note_on_c, 5, 67, 100
7, 48866, Note_on_c, 5, 67, 0
7, 48870, Note_on_c, 5, 64, 105
7, 48884, Note_on_c, 5, 64, 0
7, 48900, Note_on_c, 5, 64, 98
7, 48919, Note_on_c, 5, 64, 0
7, 48930, Note_on_c, 5, 69, 102
7, 48946, Note_on_c, 5, 69, 0
7, 48960, Note_on_c, 5, 69, 102
7, 48977, Note_on_c, 5, 69, 0
7, 48990, Note_on_c, 5, 66, 107
7, 49005, Note_on_c, 5, 66, 0
7, 49020, Note_on_c, 5, 66, 102
7, 49038, Note_on_c, 5, 66, 0
7, 49050, Note_on_c, 5, 62, 98
7, 49063, Note_on_c, 5, 62, 0
7, 49080, Note_on_c, 5, 62, 98
7, 49097, Note_on_c, 5, 62, 0
7, 49110, Note_on_c, 5, 67, 100
7, 49123, Note_on_c, 5, 67, 0
7, 49140, Note_on_c, 5, 67, 100
7, 49157, Note_on_c, 5, 67, 0
7, 49170, Note_on_c, 5, 64, 102
7, 49184, Note_on_c, 5, 64, 0
7, 49200, Note_on_c, 5, 64, 95
7, 49217, Note_on_c, 5, 64, 0
7, 49230, Note_on_c, 5, 60, 98
7, 49242, Note_on_c, 5, 60, 0
7, 49260, Note_on_c, 5, 60, 100
7, 49282, Note_on_c, 5, 60, 0
7, 49290, Note_on_c, 5, 66, 98
7, 49304, Note_on_c, 5, 66, 0
7, 49320, Note_on_c, 5, 66, 107
7, 49336, Note_on_c, 5, 66, 0
7, 49350, Note_on_c, 5, 62, 85
7, 49366, Note_on_c, 5, 62, 0
7, 49380, Note_on_c, 5, 62, 100
7, 49400, Note_on_c, 5, 62, 0
7, 49410, Note_on_c, 5, 59, 91
7, 49429, Note_on_c, 5, 59, 0
7, 49440, Note_on_c, 5, 59, 100
7, 49458, Note_on_c, 5, 59, 0
7, 49470, Note_on_c, 5, 55, 105
7, 49482, Note_on_c, 5, 55, 0
7, 49500, Note_on_c, 5, 55, 116
7, 49549, Note_on_c, 5, 55, 0
7, 49560, Note_on_c, 5, 72, 107
7, 49616, Note_on_c, 5, 72, 0
7, 49620, Note_on_c, 5, 71, 107
7, 49672, Note_on_c, 5, 71, 0
7, 49680, Note_on_c, 5, 69, 105
7, 49698, Note_on_c, 5, 69, 0
7, 49710, Note_on_c, 5, 69, 105
7, 49728, Note_on_c, 5, 69, 0
7, 49740, Note_on_c, 5, 69, 95
7, 49752, Note_on_c, 5, 69, 0
7, 49770, Note_on_c, 5, 69, 102
7, 49783, Note_on_c, 5, 69, 0
7, 49800, Note_on_c, 5, 69, 100
7, 49811, Note_on_c, 5, 69, 0
7, 49830, Note_on_c, 5, 69, 102
7, 49842, Note_on_c, 5, 69, 0
7, 49860, Note_on_c, 5, 69, 107
7, 49913, Note_on_c, 5, 69, 0
7, 49920, Note_on_c, 5, 74, 102
7, 49973, Note_on_c, 5, 74, 0
7, 49980, Note_on_c, 5, 72, 105
7, 50033, Note_on_c, 5, 72, 0
7, 50040, Note_on_c, 5, 71, 107
7, 50059, Note_on_c, 5, 71, 0
7, 50070, Note_on_c, 5, 71, 95
7, 50088, Note_on_c, 5, 71, 0
7, 50100, Note_on_c, 5, 71, 105
7, 50115, Note_on_c, 5, 71, 0
7, 50130, Note_on_c, 5, 71, 89
7, 50143, Note_on_c, 5, 71, 0
7, 50160, Note_on_c, 5, 71, 102
7, 50173, Note_on_c, 5, 71, 0
7, 50190, Note_on_c, 5, 71, 100
7, 50204, Note_on_c, 5, 71, 0
7, 50220, Note_on_c, 5, 71, 102
7, 50265, Note_on_c, 5, 71, 0
7, 50280, Note_on_c, 5, 76, 105
7, 50333, Note_on_c, 5, 76, 0
7, 50340, Note_on_c, 5, 74, 100
7, 50385, Note_on_c, 5, 74, 0
7, 50400, Note_on_c, 5, 72, 107
7, 50417, Note_on_c, 5, 72, 0
7, 50430, Note_on_c, 5, 72, 102
7, 50442, Note_on_c, 5, 72, 0
7, 50460, Note_on_c, 5, 72, 93
7, 50476, Note_on_c, 5, 72, 0
7, 50490, Note_on_c, 5, 72, 102
7, 50506, Note_on_c, 5, 72, 0
7, 50520, Note_on_c, 5, 72, 95
7, 50537, Note_on_c, 5, 72, 0
7, 50550, Note_on_c, 5, 72, 98
7, 50567, Note_on_c, 5, 72, 0
7, 50580, Note_on_c, 5, 72, 102
7, 50621, Note_on_c, 5, 72, 0
7, 50790, Note_on_c, 5, 69, 85
7, 50802, Note_on_c, 5, 69, 0
7, 50820, Note_on_c, 5, 69, 100
7, 50833, Note_on_c, 5, 69, 0
7, 50850, Note_on_c, 5, 69, 100
7, 50863, Note_on_c, 5, 69, 0
7, 50880, Note_on_c, 5, 69, 98
7, 50890, Note_on_c, 5, 69, 0
7, 50910, Note_on_c, 5, 69, 100
7, 50924, Note_on_c, 5, 69, 0
7, 50940, Note_on_c, 5, 74, 95
7, 50981, Note_on_c, 5, 74, 0
7, 51150, Note_on_c, 5, 69, 89
7, 51162, Note_on_c, 5, 69, 0
7, 51180, Note_on_c, 5, 69, 98
7, 51193, Note_on_c, 5, 69, 0
7, 51210, Note_on_c, 5, 69, 98
7, 51222, Note_on_c, 5, 69, 0
7, 51240, Note_on_c, 5, 69, 100
7, 51252, Note_on_c, 5, 69, 0
7, 51270, Note_on_c, 5, 69, 100
7, 51284, Note_on_c, 5, 69, 0
7, 51300, Note_on_c, 5, 71, 102
7, 51372, Note_on_c, 5, 71, 0
7, 51540, Note_on_c, 5, 62, 91
7, 51567, Note_on_c, 5, 62, 0
7, 51600, Note_on_c, 5, 62, 93
7, 51620, Note_on_c, 5, 62, 0
7, 51660, Note_on_c, 5, 62, 102
7, 51705, Note_on_c, 5, 62, 0
7, 51900, Note_on_c, 5, 59, 95
7, 51940, Note_on_c, 5, 59, 0
7, 51960, Note_on_c, 5, 59, 100
7, 51988, Note_on_c, 5, 59, 0
7, 52020, Note_on_c, 5, 59, 100
7, 52067, Note_on_c, 5, 59, 0
7, 52260, Note_on_c, 5, 64, 100
7, 52297, Note_on_c, 5, 64, 0
7, 52320, Note_on_c, 5, 64, 100
7, 52355, Note_on_c, 5, 64, 0
7, 52380, Note_on_c, 5, 64, 102
7, 52425, Note_on_c, 5, 64, 0
7, 52500, Note_on_c, 5, 69, 105
7, 52547, Note_on_c, 5, 69, 0
7, 52560, Note_on_c, 5, 69, 107
7, 52632, Note_on_c, 5, 69, 0
7, 52680, Note_on_c, 5, 69, 107
7, 52732, Note_on_c, 5, 69, 0
7, 52740, Note_on_c, 5, 71, 93
7, 52800, Note_on_c, 5, 71, 0
7, 53760, Note_on_c, 5, 71, 102
7, 53820, Note_on_c, 5, 67, 113
7, 53821, Note_on_c, 5, 71, 0
7, 53887, Note_on_c, 5, 67, 0
7, 53940, Note_on_c, 5, 61, 113
7, 53991, Note_on_c, 5, 61, 0
7, 54000, Note_on_c, 5, 62, 105
7, 54077, Note_on_c, 5, 62, 0
7, 54120, Note_on_c, 5, 64, 102
7, 54178, Note_on_c, 5, 64, 0
7, 54180, Note_on_c, 5, 60, 102
7, 54246, Note_on_c, 5, 60, 0
7, 54300, Note_on_c, 5, 66, 105
7, 54348, Note_on_c, 5, 66, 0
7, 54360, Note_on_c, 5, 67, 102
7, 54419, Note_on_c, 5, 67, 0
7, 55980, Note_on_c, 5, 59, 113
7, 56697, Note_on_c, 5, 59, 0
7, 56700, Note_on_c, 5, 68, 100
7, 57420, Note_on_c, 5, 61, 107
7, 57430, Note_on_c, 5, 68, 0
7, 58012, Note_on_c, 5, 61, 0
7, 58020, Note_on_c, 5, 54, 113
7, 58076, Note_on_c, 5, 54, 0
7, 58080, Note_on_c, 5, 66, 100
7, 58132, Note_on_c, 5, 66, 0
7, 58140, Note_on_c, 5, 66, 110
7, 58572, Note_on_c, 5, 66, 0
7, 58680, Note_on_c, 5, 62, 102
7, 58750, Note_on_c, 5, 62, 0
7, 58860, Note_on_c, 5, 64, 100
7, 58934, Note_on_c, 5, 64, 0
7, 59040, Note_on_c, 5, 64, 100
7, 59102, Note_on_c, 5, 64, 0
7, 59220, Note_on_c, 5, 66, 107
7, 59271, Note_on_c, 5, 66, 0
7, 59340, Note_on_c, 5, 59, 100
7, 59385, Note_on_c, 5, 59, 0
7, 59400, Note_on_c, 5, 59, 102
7, 59459, Note_on_c, 5, 59, 0
7, 59520, Note_on_c, 5, 61, 105
7, 59570, Note_on_c, 5, 61, 0
7, 59580, Note_on_c, 5, 61, 113
7, 59652, Note_on_c, 5, 61, 0
7, 59700, Note_on_c, 5, 62, 102
7, 59741, Note_on_c, 5, 62, 0
7, 59760, Note_on_c, 5, 62, 107
7, 59814, Note_on_c, 5, 62, 0
7, 59880, Note_on_c, 5, 62, 102
7, 59929, Note_on_c, 5, 62, 0
7, 59940, Note_on_c, 5, 64, 105
7, 59970, Note_on_c, 5, 66, 102
7, 59974, Note_on_c, 5, 64, 0
7, 60000, Note_on_c, 5, 64, 116
7, 60008, Note_on_c, 5, 66, 0
7, 60030, Note_on_c, 5, 62, 110
7, 60031, Note_on_c, 5, 64, 0
7, 60060, Note_on_c, 5, 61, 102
7, 60064, Note_on_c, 5, 62, 0
7, 60118, Note_on_c, 5, 61, 0
7, 60120, Note_on_c, 5, 59, 85
7, 60180, Note_on_c, 5, 66, 107
7, 60183, Note_on_c, 5, 59, 0
7, 60229, Note_on_c, 5, 66, 0
7, 60240, Note_on_c, 5, 71, 110
7, 60346, Note_on_c, 5, 71, 0
7, 60360, Note_on_c, 5, 71, 105
7, 60418, Note_on_c, 5, 71, 0
7, 60420, Note_on_c, 5, 67, 107
7, 60473, Note_on_c, 5, 67, 0
7, 60480, Note_on_c, 5, 64, 105
7, 60685, Note_on_c, 5, 64, 0
7, 60690, Note_on_c, 5, 64, 102
7, 60706, Note_on_c, 5, 64, 0
7, 60720, Note_on_c, 5, 64, 95
7, 60742, Note_on_c, 5, 64, 0
7, 60750, Note_on_c, 5, 67, 102
7, 60766, Note_on_c, 5, 67, 0
7, 60780, Note_on_c, 5, 67, 105
7, 60802, Note_on_c, 5, 67, 0
7, 60810, Note_on_c, 5, 61, 102
7, 60826, Note_on_c, 5, 61, 0
7, 60840, Note_on_c, 5, 61, 107
7, 60857, Note_on_c, 5, 61, 0
7, 60870, Note_on_c, 5, 61, 102
7, 60883, Note_on_c, 5, 61, 0
7, 60900, Note_on_c, 5, 61, 105
7, 60913, Note_on_c, 5, 61, 0
7, 60930, Note_on_c, 5, 61, 107
7, 60944, Note_on_c, 5, 61, 0
7, 60960, Note_on_c, 5, 61, 100
7, 60976, Note_on_c, 5, 61, 0
7, 60990, Note_on_c, 5, 62, 102
7, 61005, Note_on_c, 5, 62, 0
7, 61020, Note_on_c, 5, 62, 107
7, 61058, Note_on_c, 5, 62, 0
7, 61110, Note_on_c, 5, 62, 100
7, 61125, Note_on_c, 5, 62, 0
7, 61140, Note_on_c, 5, 67, 107
7, 61181, Note_on_c, 5, 67, 0
7, 61230, Note_on_c, 5, 66, 110
7, 61246, Note_on_c, 5, 66, 0
7, 61260, Note_on_c, 5, 66, 113
7, 61286, Note_on_c, 5, 66, 0
7, 61350, Note_on_c, 5, 64, 110
7, 61363, Note_on_c, 5, 64, 0
7, 61380, Note_on_c, 5, 64, 107
7, 61414, Note_on_c, 5, 64, 0
7, 61470, Note_on_c, 5, 61, 107
7, 61484, Note_on_c, 5, 61, 0
7, 61500, Note_on_c, 5, 67, 107
7, 61540, Note_on_c, 5, 67, 0
7, 61590, Note_on_c, 5, 61, 113
7, 61610, Note_on_c, 5, 61, 0
7, 61620, Note_on_c, 5, 66, 110
7, 61678, Note_on_c, 5, 66, 0
7, 61680, Note_on_c, 5, 64, 107
7, 61733, Note_on_c, 5, 64, 0
7, 61740, Note_on_c, 5, 62, 110
7, 61760, Note_on_c, 5, 62, 0
7, 61770, Note_on_c, 5, 66, 107
7, 61788, Note_on_c, 5, 66, 0
7, 61800, Note_on_c, 5, 66, 110
7, 61822, Note_on_c, 5, 66, 0
7, 61830, Note_on_c, 5, 62, 98
7, 61846, Note_on_c, 5, 62, 0
7, 61860, Note_on_c, 5, 62, 98
7, 61879, Note_on_c, 5, 62, 0
7, 61890, Note_on_c, 5, 59, 102
7, 61905, Note_on_c, 5, 59, 0
7, 61920, Note_on_c, 5, 59, 107
7, 62038, Note_on_c, 5, 59, 0
7, 62100, Note_on_c, 5, 71, 116
7, 62139, Note_on_c, 5, 71, 0
7, 62280, Note_on_c, 5, 69, 110
7, 62323, Note_on_c, 5, 69, 0
7, 62460, Note_on_c, 5, 67, 98
7, 62495, Note_on_c, 5, 67, 0
7, 63180, Note_on_c, 5, 71, 64
7, 63240, Note_on_c, 5, 71, 0
7, 63360, Note_on_c, 5, 69, 64
7, 63420, Note_on_c, 5, 69, 0
7, 63540, Note_on_c, 5, 67, 64
7, 63600, Note_on_c, 5, 67, 0
7, 63720, Note_on_c, 5, 55, 64
7, 63780, Note_on_c, 5, 55, 0
7, 63900, Note_on_c, 5, 62, 64
7, 63960, Note_on_c, 5, 62, 0
7, 64080, Note_on_c, 5, 50, 64
7, 64140, Note_on_c, 5, 50, 0
7, 64260, Note_on_c, 5, 55, 64
7, 64320, Note_on_c, 5, 55, 0
7, 64470, Note_on_c, 5, 64, 64
7, 64500, Note_on_c, 5, 64, 0
7, 64500, Note_on_c, 5, 64, 64
7, 64530, Note_on_c, 5, 64, 0
7, 64530, Note_on_c, 5, 64, 64
7, 64560, Note_on_c, 5, 64, 0
7, 64560, Note_on_c, 5, 64, 64
7, 64590, Note_on_c, 5, 64, 0
7, 64590, Note_on_c, 5, 64, 64
7, 64620, Note_on_c, 5, 64, 0
7, 64620, Note_on_c, 5, 64, 64
7, 64680, Note_on_c, 5, 64, 0
7, 64830, Note_on_c, 5, 66, 64
7, 64860, Note_on_c, 5, 66, 0
7, 64860, Note_on_c, 5, 66, 64
7, 64890, Note_on_c, 5, 66, 0
7, 64890, Note_on_c, 5, 66, 64
7, 64920, Note_on_c, 5, 66, 0
7, 64920, Note_on_c, 5, 66, 64
7, 64950, Note_on_c, 5, 66, 0
7, 64950, Note_on_c, 5, 66, 64
7, 64980, Note_on_c, 5, 66, 0
7, 64980, Note_on_c, 5, 66, 64
7, 65040, Note_on_c, 5, 66, 0
7, 65190, Note_on_c, 5, 67, 64
7, 65220, Note_on_c, 5, 67, 0
7, 65220, Note_on_c, 5, 67, 64
7, 65250, Note_on_c, 5, 67, 0
7, 65250, Note_on_c, 5, 67, 64
7, 65280, Note_on_c, 5, 67, 0
7, 65280, Note_on_c, 5, 67, 64
7, 65310, Note_on_c, 5, 67, 0
7, 65310, Note_on_c, 5, 67, 64
7, 65340, Note_on_c, 5, 67, 0
7, 65340, Note_on_c, 5, 67, 64
7, 65400, Note_on_c, 5, 67, 0
7, 65550, Note_on_c, 5, 64, 64
7, 65580, Note_on_c, 5, 64, 0
7, 65580, Note_on_c, 5, 64, 64
7, 65610, Note_on_c, 5, 64, 0
7, 65610, Note_on_c, 5, 64, 64
7, 65640, Note_on_c, 5, 64, 0
7, 65640, Note_on_c, 5, 64, 64
7, 65670, Note_on_c, 5, 64, 0
7, 65670, Note_on_c, 5, 64, 64
7, 65700, Note_on_c, 5, 64, 0
7, 65700, Note_on_c, 5, 69, 64
7, 65760, Note_on_c, 5, 69, 0
7, 65910, Note_on_c, 5, 64, 64
7, 65940, Note_on_c, 5, 64, 0
7, 65940, Note_on_c, 5, 64, 64
7, 65970, Note_on_c, 5, 64, 0
7, 65970, Note_on_c, 5, 64, 64
7, 66000, Note_on_c, 5, 64, 0
7, 66000, Note_on_c, 5, 64, 64
7, 66030, Note_on_c, 5, 64, 0
7, 66030, Note_on_c, 5, 64, 64
7, 66060, Note_on_c, 5, 64, 0
7, 66060, Note_on_c, 5, 66, 64
7, 66120, Note_on_c, 5, 66, 0
7, 66240, Note_on_c, 5, 64, 64
7, 66300, Note_on_c, 5, 64, 0
7, 66420, Note_on_c, 5, 62, 64
7, 66480, Note_on_c, 5, 62, 0
7, 67140, Note_on_c, 5, 66, 64
7, 67200, Note_on_c, 5, 66, 0
7, 67320, Note_on_c, 5, 64, 64
7, 67380, Note_on_c, 5, 64, 0
7, 67500, Note_on_c, 5, 62, 64
7, 67560, Note_on_c, 5, 62, 0
7, 67680, Note_on_c, 5, 50, 64
7, 67740, Note_on_c, 5, 50, 0
7, 67860, Note_on_c, 5, 57, 64
7, 67920, Note_on_c, 5, 57, 0
7, 68040, Note_on_c, 5, 69, 64
7, 68100, Note_on_c, 5, 69, 0
7, 68220, Note_on_c, 5, 62, 64
7, 68280, Note_on_c, 5, 62, 0
7, 68610, Note_on_c, 5, 69, 64
7, 68640, Note_on_c, 5, 69, 0
7, 68640, Note_on_c, 5, 69, 64
7, 68670, Note_on_c, 5, 69, 0
7, 68670, Note_on_c, 5, 66, 64
7, 68700, Note_on_c, 5, 66, 0
7, 68700, Note_on_c, 5, 66, 64
7, 68730, Note_on_c, 5, 66, 0
7, 68730, Note_on_c, 5, 62, 64
7, 68760, Note_on_c, 5, 62, 0
7, 68760, Note_on_c, 5, 62, 64
7, 68820, Note_on_c, 5, 62, 0
7, 68820, Note_on_c, 5, 62, 64
7, 68850, Note_on_c, 5, 62, 0
7, 68850, Note_on_c, 5, 66, 64
7, 68880, Note_on_c, 5, 66, 0
7, 68880, Note_on_c, 5, 67, 64
7, 68910, Note_on_c, 5, 67, 0
7, 68910, Note_on_c, 5, 69, 64
7, 68940, Note_on_c, 5, 69, 0
7, 68940, Note_on_c, 5, 67, 64
7, 69000, Note_on_c, 5, 67, 0
7, 69330, Note_on_c, 5, 71, 64
7, 69360, Note_on_c, 5, 71, 0
7, 69360, Note_on_c, 5, 71, 64
7, 69390, Note_on_c, 5, 71, 0
7, 69390, Note_on_c, 5, 71, 64
7, 69420, Note_on_c, 5, 71, 0
7, 69420, Note_on_c, 5, 71, 64
7, 69450, Note_on_c, 5, 71, 0
7, 69450, Note_on_c, 5, 71, 64
7, 69480, Note_on_c, 5, 71, 0
7, 69480, Note_on_c, 5, 71, 64
7, 69540, Note_on_c, 5, 71, 0
7, 69540, Note_on_c, 5, 67, 64
7, 69570, Note_on_c, 5, 67, 0
7, 69570, Note_on_c, 5, 67, 64
7, 69600, Note_on_c, 5, 67, 0
7, 69600, Note_on_c, 5, 67, 64
7, 69630, Note_on_c, 5, 67, 0
7, 69630, Note_on_c, 5, 67, 64
7, 69660, Note_on_c, 5, 67, 0
7, 69660, Note_on_c, 5, 67, 64
7, 69720, Note_on_c, 5, 67, 0
7, 69720, Note_on_c, 5, 64, 64
7, 69780, Note_on_c, 5, 64, 0
7, 69780, Note_on_c, 5, 69, 64
7, 69870, Note_on_c, 5, 69, 0
7, 69870, Note_on_c, 5, 66, 64
7, 69900, Note_on_c, 5, 66, 0
7, 69900, Note_on_c, 5, 66, 64
7, 69930, Note_on_c, 5, 66, 0
7, 69930, Note_on_c, 5, 62, 64
7, 69960, Note_on_c, 5, 62, 0
7, 69960, Note_on_c, 5, 62, 64
7, 69990, Note_on_c, 5, 62, 0
7, 69990, Note_on_c, 5, 67, 64
7, 70020, Note_on_c, 5, 67, 0
7, 70020, Note_on_c, 5, 67, 64
7, 70050, Note_on_c, 5, 67, 0
7, 70050, Note_on_c, 5, 64, 64
7, 70080, Note_on_c, 5, 64, 0
7, 70080, Note_on_c, 5, 64, 64
7, 70110, Note_on_c, 5, 64, 0
7, 70110, Note_on_c, 5, 60, 64
7, 70140, Note_on_c, 5, 60, 0
7, 70140, Note_on_c, 5, 60, 64
7, 70170, Note_on_c, 5, 60, 0
7, 70170, Note_on_c, 5, 66, 64
7, 70200, Note_on_c, 5, 66, 0
7, 70200, Note_on_c, 5, 66, 64
7, 70230, Note_on_c, 5, 66, 0
7, 70230, Note_on_c, 5, 62, 64
7, 70260, Note_on_c, 5, 62, 0
7, 70260, Note_on_c, 5, 62, 64
7, 70290, Note_on_c, 5, 62, 0
7, 70290, Note_on_c, 5, 59, 64
7, 70320, Note_on_c, 5, 59, 0
7, 70320, Note_on_c, 5, 59, 64
7, 70350, Note_on_c, 5, 59, 0
7, 70350, Note_on_c, 5, 55, 64
7, 70380, Note_on_c, 5, 55, 0
7, 70380, Note_on_c, 5, 55, 64
7, 70440, Note_on_c, 5, 55, 0
7, 70440, Note_on_c, 5, 72, 64
7, 70500, Note_on_c, 5, 72, 0
7, 70500, Note_on_c, 5, 71, 64
7, 70560, Note_on_c, 5, 71, 0
7, 70560, Note_on_c, 5, 69, 64
7, 70590, Note_on_c, 5, 69, 0
7, 70590, Note_on_c, 5, 69, 64
7, 70620, Note_on_c, 5, 69, 0
7, 70620, Note_on_c, 5, 69, 64
7, 70650, Note_on_c, 5, 69, 0
7, 70650, Note_on_c, 5, 69, 64
7, 70680, Note_on_c, 5, 69, 0
7, 70680, Note_on_c, 5, 69, 64
7, 70710, Note_on_c, 5, 69, 0
7, 70710, Note_on_c, 5, 69, 64
7, 70740, Note_on_c, 5, 69, 0
7, 70740, Note_on_c, 5, 69, 64
7, 70800, Note_on_c, 5, 69, 0
7, 70800, Note_on_c, 5, 74, 64
7, 70860, Note_on_c, 5, 74, 0
7, 70860, Note_on_c, 5, 72, 64
7, 70920, Note_on_c, 5, 72, 0
7, 70920, Note_on_c, 5, 71, 64
7, 70950, Note_on_c, 5, 71, 0
7, 70950, Note_on_c, 5, 71, 64
7, 70980, Note_on_c, 5, 71, 0
7, 70980, Note_on_c, 5, 71, 64
7, 71010, Note_on_c, 5, 71, 0
7, 71010, Note_on_c, 5, 71, 64
7, 71040, Note_on_c, 5, 71, 0
7, 71040, Note_on_c, 5, 71, 64
7, 71070, Note_on_c, 5, 71, 0
7, 71070, Note_on_c, 5, 71, 64
7, 71100, Note_on_c, 5, 71, 0
7, 71100, Note_on_c, 5, 71, 64
7, 71160, Note_on_c, 5, 71, 0
7, 71160, Note_on_c, 5, 76, 64
7, 71220, Note_on_c, 5, 76, 0
7, 71220, Note_on_c, 5, 74, 64
7, 71280, Note_on_c, 5, 74, 0
7, 71280, Note_on_c, 5, 72, 64
7, 71310, Note_on_c, 5, 72, 0
7, 71310, Note_on_c, 5, 72, 64
7, 71340, Note_on_c, 5, 72, 0
7, 71340, Note_on_c, 5, 72, 64
7, 71370, Note_on_c, 5, 72, 0
7, 71370, Note_on_c, 5, 72, 64
7, 71400, Note_on_c, 5, 72, 0
7, 71400, Note_on_c, 5, 72, 64
7, 71430, Note_on_c, 5, 72, 0
7, 71430, Note_on_c, 5, 72, 64
7, 71460, Note_on_c, 5, 72, 0
7, 71460, Note_on_c, 5, 72, 64
7, 71520, Note_on_c, 5, 72, 0
7, 71670, Note_on_c, 5, 69, 64
7, 71700, Note_on_c, 5, 69, 0
7, 71700, Note_on_c, 5, 69, 64
7, 71730, Note_on_c, 5, 69, 0
7, 71730, Note_on_c, 5, 69, 64
7, 71760, Note_on_c, 5, 69, 0
7, 71760, Note_on_c, 5, 69, 64
7, 71790, Note_on_c, 5, 69, 0
7, 71790, Note_on_c, 5, 69, 64
7, 71820, Note_on_c, 5, 69, 0
7, 71820, Note_on_c, 5, 74, 64
7, 71880, Note_on_c, 5, 74, 0
7, 72030, Note_on_c, 5, 69, 64
7, 72060, Note_on_c, 5, 69, 0
7, 72060, Note_on_c, 5, 69, 64
7, 72090, Note_on_c, 5, 69, 0
7, 72090, Note_on_c, 5, 69, 64
7, 72120, Note_on_c, 5, 69, 0
7, 72120, Note_on_c, 5, 69, 64
7, 72150, Note_on_c, 5, 69, 0
7, 72150, Note_on_c, 5, 69, 64
7, 72180, Note_on_c, 5, 69, 0
7, 72180, Note_on_c, 5, 71, 64
7, 72240, Note_on_c, 5, 71, 0
7, 72360, Note_on_c, 5, 69, 64
7, 72420, Note_on_c, 5, 69, 0
7, 72540, Note_on_c, 5, 67, 64
7, 72600, Note_on_c, 5, 67, 0
7, 73260, Note_on_c, 5, 71, 64
7, 73320, Note_on_c, 5, 71, 0
7, 73440, Note_on_c, 5, 69, 64
7, 73500, Note_on_c, 5, 69, 0
7, 73620, Note_on_c, 5, 67, 64
7, 73680, Note_on_c, 5, 67, 0
7, 73800, Note_on_c, 5, 55, 64
7, 73860, Note_on_c, 5, 55, 0
7, 73980, Note_on_c, 5, 62, 64
7, 74040, Note_on_c, 5, 62, 0
7, 74160, Note_on_c, 5, 50, 64
7, 74220, Note_on_c, 5, 50, 0
7, 74340, Note_on_c, 5, 55, 64
7, 74400, Note_on_c, 5, 55, 0
7, 74460, Note_on_c, 5, 59, 64
7, 74520, Note_on_c, 5, 59, 0
7, 74520, Note_on_c, 5, 60, 64
7, 74580, Note_on_c, 5, 60, 0
7, 74640, Note_on_c, 5, 61, 64
7, 74700, Note_on_c, 5, 61, 0
7, 74700, Note_on_c, 5, 62, 64
7, 74760, Note_on_c, 5, 62, 0
7, 74820, Note_on_c, 5, 63, 64
7, 74880, Note_on_c, 5, 63, 0
7, 74880, Note_on_c, 5, 64, 64
7, 74940, Note_on_c, 5, 64, 0
7, 75000, Note_on_c, 5, 64, 64
7, 75060, Note_on_c, 5, 64, 0
7, 75060, Note_on_c, 5, 67, 64
7, 75120, Note_on_c, 5, 67, 0
7, 75120, Note_on_c, 5, 62, 64
7, 75180, Note_on_c, 5, 62, 0
7, 75180, Note_on_c, 5, 66, 64
7, 75240, Note_on_c, 5, 66, 0
7, 75240, Note_on_c, 5, 59, 64
7, 75300, Note_on_c, 5, 59, 0
7, 75300, Note_on_c, 5, 67, 64
7, 75360, Note_on_c, 5, 67, 0
7, 75360, Note_on_c, 5, 62, 64
7, 75420, Note_on_c, 5, 62, 0
7, 75420, Note_on_c, 5, 64, 64
7, 75480, Note_on_c, 5, 64, 0
7, 75480, Note_on_c, 5, 67, 64
7, 75540, Note_on_c, 5, 67, 0
7, 75540, Note_on_c, 5, 64, 64
7, 75600, Note_on_c, 5, 64, 0
7, 75600, Note_on_c, 5, 60, 64
7, 75810, Note_on_c, 5, 60, 0
7, 75810, Note_on_c, 5, 60, 64
7, 75840, Note_on_c, 5, 60, 0
7, 75840, Note_on_c, 5, 60, 64
7, 75870, Note_on_c, 5, 60, 0
7, 75870, Note_on_c, 5, 64, 64
7, 75900, Note_on_c, 5, 64, 0
7, 75900, Note_on_c, 5, 64, 64
7, 75930, Note_on_c, 5, 64, 0
7, 75930, Note_on_c, 5, 69, 64
7, 75960, Note_on_c, 5, 69, 0
7, 75960, Note_on_c, 5, 69, 64
7, 75990, Note_on_c, 5, 69, 0
7, 75990, Note_on_c, 5, 62, 64
7, 76020, Note_on_c, 5, 62, 0
7, 76020, Note_on_c, 5, 62, 64
7, 76050, Note_on_c, 5, 62, 0
7, 76050, Note_on_c, 5, 62, 64
7, 76080, Note_on_c, 5, 62, 0
7, 76080, Note_on_c, 5, 62, 64
7, 76110, Note_on_c, 5, 62, 0
7, 76110, Note_on_c, 5, 62, 64
7, 76140, Note_on_c, 5, 62, 0
7, 76140, Note_on_c, 5, 62, 64
7, 76170, Note_on_c, 5, 62, 0
7, 76170, Note_on_c, 5, 67, 64
7, 76200, Note_on_c, 5, 67, 0
7, 76200, Note_on_c, 5, 71, 64
7, 76260, Note_on_c, 5, 71, 0
7, 76290, Note_on_c, 5, 69, 64
7, 76320, Note_on_c, 5, 69, 0
7, 76320, Note_on_c, 5, 69, 64
7, 76380, Note_on_c, 5, 69, 0
7, 76410, Note_on_c, 5, 67, 64
7, 76440, Note_on_c, 5, 67, 0
7, 76440, Note_on_c, 5, 67, 64
7, 76500, Note_on_c, 5, 67, 0
7, 76530, Note_on_c, 5, 64, 64
7, 76560, Note_on_c, 5, 64, 0
7, 76560, Note_on_c, 5, 66, 64
7, 76620, Note_on_c, 5, 66, 0
7, 76620, Note_on_c, 5, 59, 64
7, 76680, Note_on_c, 5, 59, 0
7, 76680, Note_on_c, 5, 64, 64
7, 76740, Note_on_c, 5, 64, 0
7, 76740, Note_on_c, 5, 66, 64
7, 76800, Note_on_c, 5, 66, 0
7, 76800, Note_on_c, 5, 69, 64
7, 76860, Note_on_c, 5, 69, 0
7, 76860, Note_on_c, 5, 71, 64
7, 77040, Note_on_c, 5, 71, 0
7, 77040, End_track
8, 0, Start_track
8, 0, MIDI_port, 0
8, 0, Title_t, "Cello sec"
8, 0, Program_c, 6, 48
8, 0, Control_c, 6, 7, 90
8, 0, Control_c, 6, 10, 100
8, 180, Note_on_c, 6, 55, 59
8, 240, Note_on_c, 6, 55, 0
8, 360, Note_on_c, 6, 50, 59
8, 420, Note_on_c, 6, 50, 0
8, 540, Note_on_c, 6, 43, 59
8, 600, Note_on_c, 6, 43, 0
8, 720, Note_on_c, 6, 55, 59
8, 780, Note_on_c, 6, 55, 0
8, 900, Note_on_c, 6, 50, 59
8, 960, Note_on_c, 6, 50, 0
8, 1080, Note_on_c, 6, 38, 59
8, 1140, Note_on_c, 6, 38, 0
8, 1260, Note_on_c, 6, 43, 59
8, 1320, Note_on_c, 6, 43, 0
8, 1440, Note_on_c, 6, 50, 59
8, 1500, Note_on_c, 6, 50, 0
8, 1620, Note_on_c, 6, 55, 59
8, 1680, Note_on_c, 6, 55, 0
8, 1800, Note_on_c, 6, 55, 59
8, 1860, Note_on_c, 6, 55, 0
8, 1980, Note_on_c, 6, 62, 59
8, 2040, Note_on_c, 6, 62, 0
8, 2160, Note_on_c, 6, 50, 59
8, 2220, Note_on_c, 6, 50, 0
8, 2340, Note_on_c, 6, 55, 59
8, 2400, Note_on_c, 6, 55, 0
8, 2400, Note_on_c, 6, 55, 59
8, 2460, Note_on_c, 6, 55, 0
8, 2460, Note_on_c, 6, 54, 59
8, 2520, Note_on_c, 6, 54, 0
8, 2520, Note_on_c, 6, 52, 59
8, 2580, Note_on_c, 6, 52, 0
8, 2580, Note_on_c, 6, 55, 59
8, 2640, Note_on_c, 6, 55, 0
8, 2640, Note_on_c, 6, 52, 59
8, 2700, Note_on_c, 6, 52, 0
8, 2700, Note_on_c, 6, 45, 59
8, 2760, Note_on_c, 6, 45, 0
8, 2760, Note_on_c, 6, 57, 59
8, 2820, Note_on_c, 6, 57, 0
8, 2820, Note_on_c, 6, 55, 59
8, 2880, Note_on_c, 6, 55, 0
8, 2880, Note_on_c, 6, 54, 59
8, 2940, Note_on_c, 6, 54, 0
8, 2940, Note_on_c, 6, 57, 59
8, 3000, Note_on_c, 6, 57, 0
8, 3000, Note_on_c, 6, 54, 59
8, 3060, Note_on_c, 6, 54, 0
8, 3060, Note_on_c, 6, 47, 59
8, 3120, Note_on_c, 6, 47, 0
8, 3120, Note_on_c, 6, 59, 59
8, 3180, Note_on_c, 6, 59, 0
8, 3180, Note_on_c, 6, 57, 59
8, 3240, Note_on_c, 6, 57, 0
8, 3240, Note_on_c, 6, 55, 59
8, 3300, Note_on_c, 6, 55, 0
8, 3300, Note_on_c, 6, 59, 59
8, 3360, Note_on_c, 6, 59, 0
8, 3360, Note_on_c, 6, 55, 59
8, 3420, Note_on_c, 6, 55, 0
8, 3420, Note_on_c, 6, 52, 59
8, 3480, Note_on_c, 6, 52, 0
8, 3480, Note_on_c, 6, 64, 59
8, 3540, Note_on_c, 6, 64, 0
8, 3540, Note_on_c, 6, 62, 59
8, 3600, Note_on_c, 6, 62, 0
8, 3600, Note_on_c, 6, 61, 59
8, 3630, Note_on_c, 6, 61, 0
8, 3630, Note_on_c, 6, 64, 59
8, 3660, Note_on_c, 6, 64, 0
8, 3660, Note_on_c, 6, 64, 59
8, 3690, Note_on_c, 6, 64, 0
8, 3690, Note_on_c, 6, 61, 59
8, 3720, Note_on_c, 6, 61, 0
8, 3720, Note_on_c, 6, 61, 59
8, 3750, Note_on_c, 6, 61, 0
8, 3750, Note_on_c, 6, 57, 59
8, 3780, Note_on_c, 6, 57, 0
8, 3780, Note_on_c, 6, 57, 59
8, 3810, Note_on_c, 6, 57, 0
8, 3810, Note_on_c, 6, 61, 59
8, 3840, Note_on_c, 6, 61, 0
8, 3840, Note_on_c, 6, 61, 59
8, 3870, Note_on_c, 6, 61, 0
8, 3870, Note_on_c, 6, 57, 59
8, 3900, Note_on_c, 6, 57, 0
8, 3900, Note_on_c, 6, 57, 59
8, 3930, Note_on_c, 6, 57, 0
8, 3930, Note_on_c, 6, 54, 59
8, 3960, Note_on_c, 6, 54, 0
8, 3960, Note_on_c, 6, 54, 59
8, 3990, Note_on_c, 6, 54, 0
8, 3990, Note_on_c, 6, 57, 59
8, 4020, Note_on_c, 6, 57, 0
8, 4020, Note_on_c, 6, 57, 59
8, 4050, Note_on_c, 6, 57, 0
8, 4050, Note_on_c, 6, 54, 59
8, 4080, Note_on_c, 6, 54, 0
8, 4080, Note_on_c, 6, 54, 59
8, 4110, Note_on_c, 6, 54, 0
8, 4110, Note_on_c, 6, 50, 59
8, 4140, Note_on_c, 6, 50, 0
8, 4140, Note_on_c, 6, 50, 59
8, 4200, Note_on_c, 6, 50, 0
8, 4320, Note_on_c, 6, 45, 59
8, 4380, Note_on_c, 6, 45, 0
8, 4500, Note_on_c, 6, 38, 59
8, 4560, Note_on_c, 6, 38, 0
8, 4680, Note_on_c, 6, 50, 59
8, 4740, Note_on_c, 6, 50, 0
8, 4860, Note_on_c, 6, 45, 59
8, 4920, Note_on_c, 6, 45, 0
8, 5040, Note_on_c, 6, 57, 59
8, 5100, Note_on_c, 6, 57, 0
8, 5220, Note_on_c, 6, 50, 59
8, 5280, Note_on_c, 6, 50, 0
8, 5400, Note_on_c, 6, 57, 59
8, 5460, Note_on_c, 6, 57, 0
8, 5580, Note_on_c, 6, 62, 59
8, 5640, Note_on_c, 6, 62, 0
8, 5760, Note_on_c, 6, 50, 59
8, 5820, Note_on_c, 6, 50, 0
8, 5940, Note_on_c, 6, 57, 59
8, 6000, Note_on_c, 6, 57, 0
8, 6120, Note_on_c, 6, 69, 59
8, 6180, Note_on_c, 6, 69, 0
8, 6300, Note_on_c, 6, 62, 59
8, 6330, Note_on_c, 6, 62, 0
8, 6330, Note_on_c, 6, 62, 59
8, 6360, Note_on_c, 6, 62, 0
8, 6360, Note_on_c, 6, 62, 59
8, 6390, Note_on_c, 6, 62, 0
8, 6390, Note_on_c, 6, 57, 59
8, 6420, Note_on_c, 6, 57, 0
8, 6420, Note_on_c, 6, 57, 59
8, 6450, Note_on_c, 6, 57, 0
8, 6450, Note_on_c, 6, 54, 59
8, 6480, Note_on_c, 6, 54, 0
8, 6480, Note_on_c, 6, 54, 59
8, 6510, Note_on_c, 6, 54, 0
8, 6510, Note_on_c, 6, 57, 59
8, 6540, Note_on_c, 6, 57, 0
8, 6540, Note_on_c, 6, 57, 59
8, 6570, Note_on_c, 6, 57, 0
8, 6570, Note_on_c, 6, 54, 59
8, 6600, Note_on_c, 6, 54, 0
8, 6600, Note_on_c, 6, 54, 59
8, 6630, Note_on_c, 6, 54, 0
8, 6630, Note_on_c, 6, 50, 59
8, 6660, Note_on_c, 6, 50, 0
8, 6660, Note_on_c, 6, 50, 59
8, 6720, Note_on_c, 6, 50, 0
8, 6870, Note_on_c, 6, 50, 59
8, 6900, Note_on_c, 6, 50, 0
8, 6900, Note_on_c, 6, 50, 59
8, 6930, Note_on_c, 6, 50, 0
8, 6930, Note_on_c, 6, 50, 59
8, 6960, Note_on_c, 6, 50, 0
8, 6960, Note_on_c, 6, 50, 59
8, 6990, Note_on_c, 6, 50, 0
8, 6990, Note_on_c, 6, 50, 59
8, 7020, Note_on_c, 6, 50, 0
8, 7020, Note_on_c, 6, 43, 59
8, 7050, Note_on_c, 6, 43, 0
8, 7050, Note_on_c, 6, 67, 59
8, 7080, Note_on_c, 6, 67, 0
8, 7080, Note_on_c, 6, 67, 59
8, 7110, Note_on_c, 6, 67, 0
8, 7110, Note_on_c, 6, 62, 59
8, 7140, Note_on_c, 6, 62, 0
8, 7140, Note_on_c, 6, 62, 59
8, 7170, Note_on_c, 6, 62, 0
8, 7170, Note_on_c, 6, 59, 59
8, 7200, Note_on_c, 6, 59, 0
8, 7200, Note_on_c, 6, 59, 59
8, 7230, Note_on_c, 6, 59, 0
8, 7230, Note_on_c, 6, 62, 59
8, 7260, Note_on_c, 6, 62, 0
8, 7260, Note_on_c, 6, 62, 59
8, 7290, Note_on_c, 6, 62, 0
8, 7290, Note_on_c, 6, 59, 59
8, 7320, Note_on_c, 6, 59, 0
8, 7320, Note_on_c, 6, 59, 59
8, 7350, Note_on_c, 6, 59, 0
8, 7350, Note_on_c, 6, 55, 59
8, 7380, Note_on_c, 6, 55, 0
8, 7380, Note_on_c, 6, 55, 59
8, 7410, Note_on_c, 6, 55, 0
8, 7410, Note_on_c, 6, 50, 59
8, 7440, Note_on_c, 6, 50, 0
8, 7440, Note_on_c, 6, 50, 59
8, 7470, Note_on_c, 6, 50, 0
8, 7470, Note_on_c, 6, 47, 59
8, 7500, Note_on_c, 6, 47, 0
8, 7500, Note_on_c, 6, 47, 59
8, 7530, Note_on_c, 6, 47, 0
8, 7530, Note_on_c, 6, 43, 59
8, 7560, Note_on_c, 6, 43, 0
8, 7560, Note_on_c, 6, 43, 59
8, 7590, Note_on_c, 6, 43, 0
8, 7590, Note_on_c, 6, 55, 59
8, 7620, Note_on_c, 6, 55, 0
8, 7620, Note_on_c, 6, 55, 59
8, 7650, Note_on_c, 6, 55, 0
8, 7650, Note_on_c, 6, 55, 59
8, 7680, Note_on_c, 6, 55, 0
8, 7680, Note_on_c, 6, 55, 59
8, 7710, Note_on_c, 6, 55, 0
8, 7710, Note_on_c, 6, 55, 59
8, 7740, Note_on_c, 6, 55, 0
8, 7740, Note_on_c, 6, 48, 59
8, 7800, Note_on_c, 6, 48, 0
8, 7800, Note_on_c, 6, 60, 59
8, 7860, Note_on_c, 6, 60, 0
8, 7860, Note_on_c, 6, 57, 59
8, 7920, Note_on_c, 6, 57, 0
8, 7920, Note_on_c, 6, 54, 59
8, 7980, Note_on_c, 6, 54, 0
8, 7980, Note_on_c, 6, 59, 59
8, 8040, Note_on_c, 6, 59, 0
8, 8040, Note_on_c, 6, 55, 59
8, 8100, Note_on_c, 6, 55, 0
8, 8100, Note_on_c, 6, 52, 59
8, 8160, Note_on_c, 6, 52, 0
8, 8160, Note_on_c, 6, 57, 59
8, 8220, Note_on_c, 6, 57, 0
8, 8220, Note_on_c, 6, 54, 59
8, 8280, Note_on_c, 6, 54, 0
8, 8280, Note_on_c, 6, 50, 59
8, 8340, Note_on_c, 6, 50, 0
8, 8340, Note_on_c, 6, 55, 59
8, 8400, Note_on_c, 6, 55, 0
8, 8400, Note_on_c, 6, 52, 59
8, 8460, Note_on_c, 6, 52, 0
8, 8460, Note_on_c, 6, 48, 59
8, 8580, Note_on_c, 6, 48, 0
8, 8700, Note_on_c, 6, 48, 59
8, 8760, Note_on_c, 6, 48, 0
8, 8760, Note_on_c, 6, 45, 59
8, 8820, Note_on_c, 6, 45, 0
8, 8820, Note_on_c, 6, 50, 59
8, 8940, Note_on_c, 6, 50, 0
8, 9060, Note_on_c, 6, 50, 59
8, 9120, Note_on_c, 6, 50, 0
8, 9120, Note_on_c, 6, 47, 59
8, 9180, Note_on_c, 6, 47, 0
8, 9180, Note_on_c, 6, 52, 59
8, 9300, Note_on_c, 6, 52, 0
8, 9420, Note_on_c, 6, 52, 59
8, 9480, Note_on_c, 6, 52, 0
8, 9480, Note_on_c, 6, 48, 59
8, 9540, Note_on_c, 6, 48, 0
8, 9540, Note_on_c, 6, 45, 59
8, 9570, Note_on_c, 6, 45, 0
8, 9570, Note_on_c, 6, 60, 59
8, 9600, Note_on_c, 6, 60, 0
8, 9600, Note_on_c, 6, 60, 59
8, 9630, Note_on_c, 6, 60, 0
8, 9630, Note_on_c, 6, 57, 59
8, 9660, Note_on_c, 6, 57, 0
8, 9660, Note_on_c, 6, 57, 59
8, 9690, Note_on_c, 6, 57, 0
8, 9690, Note_on_c, 6, 54, 59
8, 9720, Note_on_c, 6, 54, 0
8, 9720, Note_on_c, 6, 54, 59
8, 9750, Note_on_c, 6, 54, 0
8, 9750, Note_on_c, 6, 57, 59
8, 9780, Note_on_c, 6, 57, 0
8, 9780, Note_on_c, 6, 57, 59
8, 9810, Note_on_c, 6, 57, 0
8, 9810, Note_on_c, 6, 54, 59
8, 9840, Note_on_c, 6, 54, 0
8, 9840, Note_on_c, 6, 54, 59
8, 9870, Note_on_c, 6, 54, 0
8, 9870, Note_on_c, 6, 50, 59
8, 9900, Note_on_c, 6, 50, 0
8, 9900, Note_on_c, 6, 50, 59
8, 9930, Note_on_c, 6, 50, 0
8, 9930, Note_on_c, 6, 54, 59
8, 9960, Note_on_c, 6, 54, 0
8, 9960, Note_on_c, 6, 54, 59
8, 9990, Note_on_c, 6, 54, 0
8, 9990, Note_on_c, 6, 50, 59
8, 10020, Note_on_c, 6, 50, 0
8, 10020, Note_on_c, 6, 50, 59
8, 10050, Note_on_c, 6, 50, 0
8, 10050, Note_on_c, 6, 47, 59
8, 10080, Note_on_c, 6, 47, 0
8, 10080, Note_on_c, 6, 47, 59
8, 10110, Note_on_c, 6, 47, 0
8, 10110, Note_on_c, 6, 50, 59
8, 10140, Note_on_c, 6, 50, 0
8, 10140, Note_on_c, 6, 50, 59
8, 10170, Note_on_c, 6, 50, 0
8, 10170, Note_on_c, 6, 47, 59
8, 10200, Note_on_c, 6, 47, 0
8, 10200, Note_on_c, 6, 47, 59
8, 10230, Note_on_c, 6, 47, 0
8, 10230, Note_on_c, 6, 43, 59
8, 10260, Note_on_c, 6, 43, 0
8, 10260, Note_on_c, 6, 43, 59
8, 10320, Note_on_c, 6, 43, 0
8, 10440, Note_on_c, 6, 50, 59
8, 10500, Note_on_c, 6, 50, 0
8, 10620, Note_on_c, 6, 55, 59
8, 10680, Note_on_c, 6, 55, 0
8, 10800, Note_on_c, 6, 43, 59
8, 10860, Note_on_c, 6, 43, 0
8, 10980, Note_on_c, 6, 38, 59
8, 11040, Note_on_c, 6, 38, 0
8, 11160, Note_on_c, 6, 50, 59
8, 11220, Note_on_c, 6, 50, 0
8, 11340, Note_on_c, 6, 55, 59
8, 11400, Note_on_c, 6, 55, 0
8, 11520, Note_on_c, 6, 50, 59
8, 11580, Note_on_c, 6, 50, 0
8, 11700, Note_on_c, 6, 43, 59
8, 11760, Note_on_c, 6, 43, 0
8, 11880, Note_on_c, 6, 55, 59
8, 11940, Note_on_c, 6, 55, 0
8, 12060, Note_on_c, 6, 62, 59
8, 12120, Note_on_c, 6, 62, 0
8, 12240, Note_on_c, 6, 50, 59
8, 12300, Note_on_c, 6, 50, 0
8, 12420, Note_on_c, 6, 55, 59
8, 12480, Note_on_c, 6, 55, 0
8, 12540, Note_on_c, 6, 43, 59
8, 12600, Note_on_c, 6, 43, 0
8, 12600, Note_on_c, 6, 48, 59
8, 12660, Note_on_c, 6, 48, 0
8, 12720, Note_on_c, 6, 45, 59
8, 12780, Note_on_c, 6, 45, 0
8, 12780, Note_on_c, 6, 50, 59
8, 12840, Note_on_c, 6, 50, 0
8, 12900, Note_on_c, 6, 47, 59
8, 12960, Note_on_c, 6, 47, 0
8, 12960, Note_on_c, 6, 52, 59
8, 13020, Note_on_c, 6, 52, 0
8, 13080, Note_on_c, 6, 50, 59
8, 13140, Note_on_c, 6, 50, 0
8, 13140, Note_on_c, 6, 48, 59
8, 13200, Note_on_c, 6, 48, 0
8, 13200, Note_on_c, 6, 50, 59
8, 13260, Note_on_c, 6, 50, 0
8, 13260, Note_on_c, 6, 38, 59
8, 13320, Note_on_c, 6, 38, 0
8, 13320, Note_on_c, 6, 43, 59
8, 13380, Note_on_c, 6, 43, 0
8, 13380, Note_on_c, 6, 55, 59
8, 13440, Note_on_c, 6, 55, 0
8, 13440, Note_on_c, 6, 53, 59
8, 13500, Note_on_c, 6, 53, 0
8, 13500, Note_on_c, 6, 52, 59
8, 13740, Note_on_c, 6, 52, 0
8, 13740, Note_on_c, 6, 55, 59
8, 13800, Note_on_c, 6, 55, 0
8, 13800, Note_on_c, 6, 52, 59
8, 13860, Note_on_c, 6, 52, 0
8, 13860, Note_on_c, 6, 48, 59
8, 14070, Note_on_c, 6, 48, 0
8, 14070, Note_on_c, 6, 60, 59
8, 14100, Note_on_c, 6, 60, 0
8, 14100, Note_on_c, 6, 60, 59
8, 14130, Note_on_c, 6, 60, 0
8, 14130, Note_on_c, 6, 48, 59
8, 14160, Note_on_c, 6, 48, 0
8, 14160, Note_on_c, 6, 48, 59
8, 14190, Note_on_c, 6, 48, 0
8, 14190, Note_on_c, 6, 47, 59
8, 14220, Note_on_c, 6, 47, 0
8, 14220, Note_on_c, 6, 47, 59
8, 14280, Note_on_c, 6, 47, 0
8, 14280, Note_on_c, 6, 52, 59
8, 14340, Note_on_c, 6, 52, 0
8, 14340, Note_on_c, 6, 45, 59
8, 14400, Note_on_c, 6, 45, 0
8, 14400, Note_on_c, 6, 50, 59
8, 14460, Note_on_c, 6, 50, 0
8, 14460, Note_on_c, 6, 43, 59
8, 14520, Note_on_c, 6, 43, 0
8, 14520, Note_on_c, 6, 48, 59
8, 14640, Note_on_c, 6, 48, 0
8, 14640, Note_on_c, 6, 50, 59
8, 14700, Note_on_c, 6, 50, 0
8, 14700, Note_on_c, 6, 52, 59
8, 14760, Note_on_c, 6, 52, 0
8, 14760, Note_on_c, 6, 48, 59
8, 14820, Note_on_c, 6, 48, 0
8, 14820, Note_on_c, 6, 50, 59
8, 14880, Note_on_c, 6, 50, 0
8, 14880, Note_on_c, 6, 38, 59
8, 14940, Note_on_c, 6, 38, 0
8, 14940, Note_on_c, 6, 43, 59
8, 15000, Note_on_c, 6, 43, 0
8, 15300, Note_on_c, 6, 43, 59
8, 15360, Note_on_c, 6, 43, 0
8, 15660, Note_on_c, 6, 43, 59
8, 15720, Note_on_c, 6, 43, 0
8, 16020, Note_on_c, 6, 55, 59
8, 16080, Note_on_c, 6, 55, 0
8, 16200, Note_on_c, 6, 50, 59
8, 16260, Note_on_c, 6, 50, 0
8, 16380, Note_on_c, 6, 43, 59
8, 16440, Note_on_c, 6, 43, 0
8, 16740, Note_on_c, 6, 43, 59
8, 16800, Note_on_c, 6, 43, 0
8, 17100, Note_on_c, 6, 43, 59
8, 17160, Note_on_c, 6, 43, 0
8, 17460, Note_on_c, 6, 43, 59
8, 17520, Note_on_c, 6, 43, 0
8, 17700, Note_on_c, 6, 52, 59
8, 17760, Note_on_c, 6, 52, 0
8, 17760, Note_on_c, 6, 48, 59
8, 17820, Note_on_c, 6, 48, 0
8, 17820, Note_on_c, 6, 42, 59
8, 17880, Note_on_c, 6, 42, 0
8, 18060, Note_on_c, 6, 50, 59
8, 18120, Note_on_c, 6, 50, 0
8, 18120, Note_on_c, 6, 47, 59
8, 18180, Note_on_c, 6, 47, 0
8, 18180, Note_on_c, 6, 40, 59
8, 18240, Note_on_c, 6, 40, 0
8, 18420, Note_on_c, 6, 49, 59
8, 18480, Note_on_c, 6, 49, 0
8, 18480, Note_on_c, 6, 45, 59
8, 18540, Note_on_c, 6, 45, 0
8, 18540, Note_on_c, 6, 50, 59
8, 18600, Note_on_c, 6, 50, 0
8, 18720, Note_on_c, 6, 45, 59
8, 18780, Note_on_c, 6, 45, 0
8, 18900, Note_on_c, 6, 38, 59
8, 18960, Note_on_c, 6, 38, 0
8, 19260, Note_on_c, 6, 38, 59
8, 19320, Note_on_c, 6, 38, 0
8, 19620, Note_on_c, 6, 38, 59
8, 19680, Note_on_c, 6, 38, 0
8, 19980, Note_on_c, 6, 38, 59
8, 20040, Note_on_c, 6, 38, 0
8, 20160, Note_on_c, 6, 45, 59
8, 20220, Note_on_c, 6, 45, 0
8, 20340, Note_on_c, 6, 50, 59
8, 20400, Note_on_c, 6, 50, 0
8, 20700, Note_on_c, 6, 50, 59
8, 20760, Note_on_c, 6, 50, 0
8, 21060, Note_on_c, 6, 50, 59
8, 21120, Note_on_c, 6, 50, 0
8, 21420, Note_on_c, 6, 50, 59
8, 21480, Note_on_c, 6, 50, 0
8, 21660, Note_on_c, 6, 59, 59
8, 21720, Note_on_c, 6, 59, 0
8, 21720, Note_on_c, 6, 55, 59
8, 21780, Note_on_c, 6, 55, 0
8, 21780, Note_on_c, 6, 49, 59
8, 21840, Note_on_c, 6, 49, 0
8, 22020, Note_on_c, 6, 57, 59
8, 22080, Note_on_c, 6, 57, 0
8, 22080, Note_on_c, 6, 54, 59
8, 22140, Note_on_c, 6, 54, 0
8, 22140, Note_on_c, 6, 47, 59
8, 22200, Note_on_c, 6, 47, 0
8, 22380, Note_on_c, 6, 56, 59
8, 22440, Note_on_c, 6, 56, 0
8, 22440, Note_on_c, 6, 52, 59
8, 22500, Note_on_c, 6, 52, 0
8, 22500, Note_on_c, 6, 45, 59
8, 22560, Note_on_c, 6, 45, 0
8, 23220, Note_on_c, 6, 46, 59
8, 23280, Note_on_c, 6, 46, 0
8, 23940, Note_on_c, 6, 47, 59
8, 24000, Note_on_c, 6, 47, 0
8, 24660, Note_on_c, 6, 52, 59
8, 24720, Note_on_c, 6, 52, 0
8, 24840, Note_on_c, 6, 47, 59
8, 24900, Note_on_c, 6, 47, 0
8, 25020, Note_on_c, 6, 40, 59
8, 25080, Note_on_c, 6, 40, 0
8, 25200, Note_on_c, 6, 64, 59
8, 25260, Note_on_c, 6, 64, 0
8, 25380, Note_on_c, 6, 71, 59
8, 25440, Note_on_c, 6, 71, 0
8, 25560, Note_on_c, 6, 59, 59
8, 25620, Note_on_c, 6, 59, 0
8, 25740, Note_on_c, 6, 64, 59
8, 25800, Note_on_c, 6, 64, 0
8, 25860, Note_on_c, 6, 52, 59
8, 25920, Note_on_c, 6, 52, 0
8, 25920, Note_on_c, 6, 57, 59
8, 25980, Note_on_c, 6, 57, 0
8, 26040, Note_on_c, 6, 54, 59
8, 26100, Note_on_c, 6, 54, 0
8, 26100, Note_on_c, 6, 59, 59
8, 26160, Note_on_c, 6, 59, 0
8, 26220, Note_on_c, 6, 55, 59
8, 26280, Note_on_c, 6, 55, 0
8, 26280, Note_on_c, 6, 60, 59
8, 26340, Note_on_c, 6, 60, 0
8, 26400, Note_on_c, 6, 59, 59
8, 26460, Note_on_c, 6, 59, 0
8, 26460, Note_on_c, 6, 57, 59
8, 26520, Note_on_c, 6, 57, 0
8, 26520, Note_on_c, 6, 59, 59
8, 26580, Note_on_c, 6, 59, 0
8, 26580, Note_on_c, 6, 47, 59
8, 26640, Note_on_c, 6, 47, 0
8, 26640, Note_on_c, 6, 40, 59
8, 26700, Note_on_c, 6, 40, 0
8, 26700, Note_on_c, 6, 52, 59
8, 26760, Note_on_c, 6, 52, 0
8, 26760, Note_on_c, 6, 50, 59
8, 26820, Note_on_c, 6, 50, 0
8, 26820, Note_on_c, 6, 48, 59
8, 27060, Note_on_c, 6, 48, 0
8, 27060, Note_on_c, 6, 52, 59
8, 27120, Note_on_c, 6, 52, 0
8, 27120, Note_on_c, 6, 48, 59
8, 27180, Note_on_c, 6, 48, 0
8, 27180, Note_on_c, 6, 45, 59
8, 27390, Note_on_c, 6, 45, 0
8, 27390, Note_on_c, 6, 57, 59
8, 27420, Note_on_c, 6, 57, 0
8, 27420, Note_on_c, 6, 57, 59
8, 27450, Note_on_c, 6, 57, 0
8, 27450, Note_on_c, 6, 45, 59
8, 27480, Note_on_c, 6, 45, 0
8, 27480, Note_on_c, 6, 45, 59
8, 27510, Note_on_c, 6, 45, 0
8, 27510, Note_on_c, 6, 43, 59
8, 27540, Note_on_c, 6, 43, 0
8, 27540, Note_on_c, 6, 43, 59
8, 27600, Note_on_c, 6, 43, 0
8, 27600, Note_on_c, 6, 48, 59
8, 27660, Note_on_c, 6, 48, 0
8, 27660, Note_on_c, 6, 42, 59
8, 27720, Note_on_c, 6, 42, 0
8, 27720, Note_on_c, 6, 47, 59
8, 27780, Note_on_c, 6, 47, 0
8, 27780, Note_on_c, 6, 52, 59
8, 27840, Note_on_c, 6, 52, 0
8, 27840, Note_on_c, 6, 45, 59
8, 27900, Note_on_c, 6, 45, 0
8, 27900, Note_on_c, 6, 57, 59
8, 27960, Note_on_c, 6, 57, 0
8, 27960, Note_on_c, 6, 59, 59
8, 28020, Note_on_c, 6, 59, 0
8, 28020, Note_on_c, 6, 60, 59
8, 28080, Note_on_c, 6, 60, 0
8, 28080, Note_on_c, 6, 57, 59
8, 28140, Note_on_c, 6, 57, 0
8, 28140, Note_on_c, 6, 59, 59
8, 28200, Note_on_c, 6, 59, 0
8, 28200, Note_on_c, 6, 47, 59
8, 28260, Note_on_c, 6, 47, 0
8, 28260, Note_on_c, 6, 40, 59
8, 28290, Control_c, 6, 7, 63
8, 28293, Control_c, 6, 7, 62
8, 28300, Control_c, 6, 7, 60
8, 28305, Control_c, 6, 7, 54
8, 28310, Control_c, 6, 7, 51
8, 28310, Control_c, 6, 7, 49
8, 28320, Note_on_c, 6, 52, 97
8, 28380, Note_on_c, 6, 51, 97
8, 28385, Note_on_c, 6, 52, 0
8, 28440, Note_on_c, 6, 40, 0
8, 28440, Note_on_c, 6, 52, 82
8, 28441, Note_on_c, 6, 51, 0
8, 28461, Control_c, 6, 7, 46
8, 28466, Control_c, 6, 7, 45
8, 28471, Control_c, 6, 7, 44
8, 28475, Control_c, 6, 7, 43
8, 28500, Note_on_c, 6, 55, 100
8, 28505, Note_on_c, 6, 52, 0
8, 28560, Note_on_c, 6, 59, 102
8, 28561, Note_on_c, 6, 55, 0
8, 28620, Note_on_c, 6, 52, 84
8, 28621, Note_on_c, 6, 59, 0
8, 28676, Note_on_c, 6, 52, 0
8, 28680, Note_on_c, 6, 45, 100
8, 28740, Note_on_c, 6, 47, 97
8, 28744, Note_on_c, 6, 45, 0
8, 28800, Note_on_c, 6, 40, 77
8, 28805, Note_on_c, 6, 47, 0
8, 28860, Note_on_c, 6, 45, 82
8, 28865, Note_on_c, 6, 40, 0
8, 28920, Note_on_c, 6, 45, 0
8, 28920, Note_on_c, 6, 48, 86
8, 28925, Control_c, 6, 7, 44
8, 28942, Control_c, 6, 7, 45
8, 28960, Control_c, 6, 7, 45
8, 28960, Control_c, 6, 7, 46
8, 28972, Control_c, 6, 7, 47
8, 28972, Control_c, 6, 7, 47
8, 28980, Note_on_c, 6, 47, 86
8, 28983, Note_on_c, 6, 48, 0
8, 28986, Control_c, 6, 7, 48
8, 28988, Control_c, 6, 7, 49
8, 29015, Control_c, 6, 7, 49
8, 29021, Control_c, 6, 7, 50
8, 29026, Control_c, 6, 7, 51
8, 29031, Control_c, 6, 7, 51
8, 29040, Note_on_c, 6, 59, 93
8, 29045, Note_on_c, 6, 47, 0
8, 29052, Control_c, 6, 7, 52
8, 29055, Control_c, 6, 7, 53
8, 29060, Control_c, 6, 7, 54
8, 29060, Control_c, 6, 7, 55
8, 29080, Control_c, 6, 7, 57
8, 29100, Note_on_c, 6, 47, 97
8, 29101, Note_on_c, 6, 59, 0
8, 29101, Control_c, 6, 7, 59
8, 29119, Control_c, 6, 7, 59
8, 29124, Control_c, 6, 7, 60
8, 29129, Control_c, 6, 7, 63
8, 29129, Control_c, 6, 7, 63
8, 29157, Note_on_c, 6, 47, 0
8, 29165, Control_c, 6, 7, 64
8, 29173, Control_c, 6, 7, 64
8, 29220, Note_on_c, 6, 52, 100
8, 29278, Note_on_c, 6, 52, 0
8, 29280, Note_on_c, 6, 40, 86
8, 29340, Note_on_c, 6, 45, 90
8, 29341, Note_on_c, 6, 40, 0
8, 29410, Note_on_c, 6, 45, 0
8, 29580, Note_on_c, 6, 50, 102
8, 29640, Note_on_c, 6, 38, 95
8, 29641, Note_on_c, 6, 50, 0
8, 29700, Note_on_c, 6, 55, 97
8, 29705, Note_on_c, 6, 38, 0
8, 29757, Note_on_c, 6, 55, 0
8, 29760, Note_on_c, 6, 52, 88
8, 29820, Note_on_c, 6, 49, 90
8, 29823, Note_on_c, 6, 52, 0
8, 29880, Note_on_c, 6, 54, 82
8, 29885, Note_on_c, 6, 49, 0
8, 29940, Note_on_c, 6, 50, 77
8, 29948, Note_on_c, 6, 54, 0
8, 30000, Note_on_c, 6, 47, 82
8, 30001, Note_on_c, 6, 50, 0
8, 30060, Note_on_c, 6, 52, 77
8, 30063, Note_on_c, 6, 47, 0
8, 30120, Note_on_c, 6, 49, 95
8, 30128, Note_on_c, 6, 52, 0
8, 30180, Note_on_c, 6, 47, 90
8, 30181, Note_on_c, 6, 49, 0
8, 30236, Note_on_c, 6, 47, 0
8, 30240, Note_on_c, 6, 46, 100
8, 30298, Note_on_c, 6, 46, 0
8, 30300, Note_on_c, 6, 47, 82
8, 30360, Note_on_c, 6, 50, 77
8, 30365, Note_on_c, 6, 47, 0
8, 30419, Note_on_c, 6, 50, 0
8, 30420, Note_on_c, 6, 44, 102
8, 30480, Note_on_c, 6, 44, 0
8, 30480, Note_on_c, 6, 46, 97
8, 30540, Note_on_c, 6, 49, 95
8, 30542, Note_on_c, 6, 46, 0
8, 30594, Note_on_c, 6, 49, 0
8, 30600, Note_on_c, 6, 42, 93
8, 30656, Note_on_c, 6, 42, 0
8, 30660, Note_on_c, 6, 47, 80
8, 30709, Control_c, 6, 7, 64
8, 30720, Note_on_c, 6, 50, 77
8, 30734, Note_on_c, 6, 47, 0
8, 30775, Note_on_c, 6, 50, 0
8, 30780, Note_on_c, 6, 40, 86
8, 30840, Note_on_c, 6, 45, 80
8, 30845, Note_on_c, 6, 40, 0
8, 30890, Control_c, 6, 7, 64
8, 30900, Note_on_c, 6, 49, 82
8, 30908, Note_on_c, 6, 45, 0
8, 30910, Control_c, 6, 7, 63
8, 30925, Control_c, 6, 7, 63
8, 30935, Control_c, 6, 7, 62
8, 30952, Note_on_c, 6, 49, 0
8, 30956, Control_c, 6, 7, 61
8, 30960, Note_on_c, 6, 38, 93
8, 31001, Control_c, 6, 7, 60
8, 31015, Note_on_c, 6, 38, 0
8, 31020, Note_on_c, 6, 50, 77
8, 31050, Note_on_c, 6, 52, 95
8, 31060, Note_on_c, 6, 50, 0
8, 31080, Note_on_c, 6, 54, 100
8, 31085, Control_c, 6, 7, 61
8, 31090, Note_on_c, 6, 52, 0
8, 31107, Note_on_c, 6, 54, 0
8, 31110, Note_on_c, 6, 50, 93
8, 31137, Note_on_c, 6, 50, 0
8, 31140, Note_on_c, 6, 55, 97
8, 31170, Note_on_c, 6, 54, 84
8, 31176, Note_on_c, 6, 55, 0
8, 31192, Note_on_c, 6, 54, 0
8, 31200, Note_on_c, 6, 55, 71
8, 31230, Note_on_c, 6, 57, 102
8, 31233, Note_on_c, 6, 55, 0
8, 31260, Note_on_c, 6, 59, 100
8, 31268, Note_on_c, 6, 57, 0
8, 31290, Note_on_c, 6, 60, 95
8, 31301, Note_on_c, 6, 59, 0
8, 31315, Note_on_c, 6, 60, 0
8, 31320, Note_on_c, 6, 62, 102
8, 31380, Note_on_c, 6, 50, 82
8, 31392, Note_on_c, 6, 62, 0
8, 31440, Note_on_c, 6, 48, 54
8, 31448, Note_on_c, 6, 50, 0
8, 31498, Note_on_c, 6, 48, 0
8, 31500, Note_on_c, 6, 47, 97
8, 31548, Note_on_c, 6, 47, 0
8, 31560, Note_on_c, 6, 52, 93
8, 31619, Note_on_c, 6, 52, 0
8, 31620, Note_on_c, 6, 40, 86
8, 31676, Note_on_c, 6, 40, 0
8, 31680, Note_on_c, 6, 45, 84
8, 31720, Control_c, 6, 7, 59
8, 31725, Control_c, 6, 7, 59
8, 31736, Note_on_c, 6, 45, 0
8, 31740, Note_on_c, 6, 57, 90
8, 31741, Control_c, 6, 7, 58
8, 31749, Control_c, 6, 7, 57
8, 31754, Control_c, 6, 7, 56
8, 31759, Control_c, 6, 7, 55
8, 31788, Control_c, 6, 7, 54
8, 31797, Note_on_c, 6, 57, 0
8, 31800, Note_on_c, 6, 45, 100
8, 31811, Control_c, 6, 7, 53
8, 31826, Control_c, 6, 7, 52
8, 31841, Control_c, 6, 7, 51
8, 31846, Control_c, 6, 7, 50
8, 31851, Control_c, 6, 7, 49
8, 31855, Control_c, 6, 7, 49
8, 31857, Note_on_c, 6, 45, 0
8, 31860, Note_on_c, 6, 50, 84
8, 31885, Control_c, 6, 7, 46
8, 31911, Control_c, 6, 7, 45
8, 31920, Note_on_c, 6, 55, 86
8, 31925, Note_on_c, 6, 50, 0
8, 31978, Note_on_c, 6, 55, 0
8, 31980, Note_on_c, 6, 43, 97
8, 32025, Control_c, 6, 7, 45
8, 32039, Note_on_c, 6, 43, 0
8, 32040, Note_on_c, 6, 48, 84
8, 32045, Control_c, 6, 7, 44
8, 32061, Control_c, 6, 7, 43
8, 32066, Control_c, 6, 7, 43
8, 32100, Note_on_c, 6, 53, 86
8, 32106, Note_on_c, 6, 48, 0
8, 32140, Note_on_c, 6, 53, 0
8, 32160, Note_on_c, 6, 41, 84
8, 32192, Control_c, 6, 7, 41
8, 32212, Note_on_c, 6, 41, 0
8, 32220, Note_on_c, 6, 47, 77
8, 32225, Control_c, 6, 7, 40
8, 32230, Control_c, 6, 7, 39
8, 32260, Control_c, 6, 7, 39
8, 32262, Control_c, 6, 7, 38
8, 32280, Note_on_c, 6, 44, 75
8, 32296, Note_on_c, 6, 47, 0
8, 32340, Note_on_c, 6, 40, 75
8, 32343, Note_on_c, 6, 44, 0
8, 32400, Note_on_c, 6, 40, 0
8, 32400, Note_on_c, 6, 45, 75
8, 32460, Note_on_c, 6, 57, 80
8, 32463, Note_on_c, 6, 45, 0
8, 32519, Note_on_c, 6, 57, 0
8, 32520, Note_on_c, 6, 45, 75
8, 32580, Note_on_c, 6, 47, 82
8, 32586, Note_on_c, 6, 45, 0
8, 32640, Note_on_c, 6, 59, 84
8, 32648, Note_on_c, 6, 47, 0
8, 32700, Note_on_c, 6, 47, 93
8, 32705, Note_on_c, 6, 59, 0
8, 32752, Note_on_c, 6, 47, 0
8, 32760, Note_on_c, 6, 48, 82
8, 32820, Note_on_c, 6, 45, 82
8, 32825, Note_on_c, 6, 48, 0
8, 32880, Note_on_c, 6, 48, 84
8, 32883, Note_on_c, 6, 45, 0
8, 32940, Note_on_c, 6, 50, 82
8, 32943, Note_on_c, 6, 48, 0
8, 33000, Note_on_c, 6, 47, 82
8, 33002, Note_on_c, 6, 50, 0
8, 33060, Note_on_c, 6, 50, 82
8, 33063, Note_on_c, 6, 47, 0
8, 33120, Note_on_c, 6, 50, 0
8, 33120, Note_on_c, 6, 52, 75
8, 33180, Note_on_c, 6, 54, 105
8, 33186, Note_on_c, 6, 52, 0
8, 33240, Note_on_c, 6, 56, 95
8, 33242, Note_on_c, 6, 54, 0
8, 33275, Control_c, 6, 7, 38
8, 33290, Note_on_c, 6, 56, 0
8, 33300, Note_on_c, 6, 57, 97
8, 33370, Note_on_c, 6, 57, 0
8, 33458, Control_c, 6, 7, 39
8, 33463, Control_c, 6, 7, 39
8, 33479, Control_c, 6, 7, 40
8, 33480, Note_on_c, 6, 52, 100
8, 33480, Control_c, 6, 7, 41
8, 33491, Control_c, 6, 7, 41
8, 33496, Control_c, 6, 7, 43
8, 33496, Control_c, 6, 7, 43
8, 33523, Control_c, 6, 7, 46
8, 33528, Control_c, 6, 7, 47
8, 33533, Control_c, 6, 7, 49
8, 33544, Control_c, 6, 7, 49
8, 33549, Control_c, 6, 7, 50
8, 33556, Note_on_c, 6, 52, 0
8, 33556, Control_c, 6, 7, 51
8, 33556, Control_c, 6, 7, 51
8, 33561, Control_c, 6, 7, 52
8, 33566, Control_c, 6, 7, 53
8, 33571, Control_c, 6, 7, 55
8, 33585, Control_c, 6, 7, 56
8, 33585, Control_c, 6, 7, 57
8, 33600, Control_c, 6, 7, 59
8, 33612, Control_c, 6, 7, 60
8, 33612, Control_c, 6, 7, 62
8, 33622, Control_c, 6, 7, 63
8, 33622, Control_c, 6, 7, 64
8, 33660, Note_on_c, 6, 45, 97
8, 33688, Control_c, 6, 7, 64
8, 33743, Note_on_c, 6, 45, 0
8, 34380, Note_on_c, 6, 45, 75
8, 34450, Note_on_c, 6, 45, 0
8, 34560, Note_on_c, 6, 52, 77
8, 34627, Note_on_c, 6, 52, 0
8, 34740, Note_on_c, 6, 57, 82
8, 34809, Note_on_c, 6, 57, 0
8, 34920, Note_on_c, 6, 45, 73
8, 35037, Note_on_c, 6, 45, 0
8, 35100, Note_on_c, 6, 50, 95
8, 35160, Note_on_c, 6, 50, 0
8, 35280, Note_on_c, 6, 52, 95
8, 35347, Note_on_c, 6, 52, 0
8, 35460, Note_on_c, 6, 45, 86
8, 35527, Note_on_c, 6, 45, 0
8, 35700, Note_on_c, 6, 57, 102
8, 35751, Note_on_c, 6, 57, 0
8, 35760, Note_on_c, 6, 45, 77
8, 35816, Note_on_c, 6, 45, 0
8, 35820, Note_on_c, 6, 38, 102
8, 35876, Note_on_c, 6, 38, 0
8, 36060, Note_on_c, 6, 62, 102
8, 36110, Note_on_c, 6, 62, 0
8, 36120, Note_on_c, 6, 50, 86
8, 36171, Note_on_c, 6, 50, 0
8, 36180, Note_on_c, 6, 43, 111
8, 36240, Note_on_c, 6, 43, 0
8, 36420, Note_on_c, 6, 55, 105
8, 36472, Note_on_c, 6, 55, 0
8, 36480, Note_on_c, 6, 43, 97
8, 36536, Note_on_c, 6, 43, 0
8, 36540, Note_on_c, 6, 36, 108
8, 36585, Note_on_c, 6, 36, 0
8, 36780, Note_on_c, 6, 60, 102
8, 36836, Note_on_c, 6, 60, 0
8, 36840, Note_on_c, 6, 48, 95
8, 36888, Note_on_c, 6, 48, 0
8, 36900, Note_on_c, 6, 41, 100
8, 36954, Note_on_c, 6, 41, 0
8, 36960, Note_on_c, 6, 53, 100
8, 37015, Note_on_c, 6, 53, 0
8, 37080, Note_on_c, 6, 43, 97
8, 37126, Note_on_c, 6, 43, 0
8, 37140, Note_on_c, 6, 55, 100
8, 37194, Note_on_c, 6, 55, 0
8, 37260, Note_on_c, 6, 45, 102
8, 37310, Note_on_c, 6, 45, 0
8, 37320, Note_on_c, 6, 57, 80
8, 37358, Note_on_c, 6, 57, 0
8, 37440, Note_on_c, 6, 47, 102
8, 37496, Note_on_c, 6, 47, 0
8, 37500, Note_on_c, 6, 59, 100
8, 37563, Note_on_c, 6, 59, 0
8, 37620, Note_on_c, 6, 48, 102
8, 37672, Note_on_c, 6, 48, 0
8, 37800, Note_on_c, 6, 55, 90
8, 37861, Note_on_c, 6, 55, 0
8, 37980, Note_on_c, 6, 60, 102
8, 38027, Note_on_c, 6, 60, 0
8, 38160, Note_on_c, 6, 48, 90
8, 38228, Note_on_c, 6, 48, 0
8, 38340, Note_on_c, 6, 55, 102
8, 38392, Note_on_c, 6, 55, 0
8, 38520, Note_on_c, 6, 43, 102
8, 38577, Note_on_c, 6, 43, 0
8, 38700, Note_on_c, 6, 48, 100
8, 38745, Note_on_c, 6, 48, 0
8, 38880, Note_on_c, 6, 43, 97
8, 38934, Note_on_c, 6, 43, 0
8, 39060, Note_on_c, 6, 36, 86
8, 39125, Note_on_c, 6, 36, 0
8, 39240, Note_on_c, 6, 48, 82
8, 39297, Note_on_c, 6, 48, 0
8, 39420, Note_on_c, 6, 43, 88
8, 39470, Note_on_c, 6, 43, 0
8, 39600, Note_on_c, 6, 55, 73
8, 39652, Note_on_c, 6, 55, 0
8, 39780, Note_on_c, 6, 48, 82
8, 39832, Note_on_c, 6, 48, 0
8, 39900, Note_on_c, 6, 36, 73
8, 39941, Note_on_c, 6, 36, 0
8, 39960, Note_on_c, 6, 41, 82
8, 40014, Note_on_c, 6, 41, 0
8, 40080, Note_on_c, 6, 38, 80
8, 40138, Note_on_c, 6, 38, 0
8, 40140, Note_on_c, 6, 43, 90
8, 40187, Note_on_c, 6, 43, 0
8, 40260, Note_on_c, 6, 40, 77
8, 40310, Note_on_c, 6, 40, 0
8, 40320, Note_on_c, 6, 45, 75
8, 40388, Note_on_c, 6, 45, 0
8, 40440, Note_on_c, 6, 43, 77
8, 40490, Note_on_c, 6, 43, 0
8, 40500, Note_on_c, 6, 41, 97
8, 40555, Note_on_c, 6, 41, 0
8, 40560, Note_on_c, 6, 43, 102
8, 40584, Note_on_c, 6, 43, 0
8, 40590, Note_on_c, 6, 41, 97
8, 40619, Note_on_c, 6, 41, 0
8, 40620, Note_on_c, 6, 43, 111
8, 40679, Note_on_c, 6, 43, 0
8, 40680, Note_on_c, 6, 36, 90
8, 40740, Note_on_c, 6, 48, 88
8, 40741, Note_on_c, 6, 36, 0
8, 40790, Note_on_c, 6, 48, 0
8, 40800, Note_on_c, 6, 46, 90
8, 40846, Note_on_c, 6, 46, 0
8, 40860, Note_on_c, 6, 45, 95
8, 41064, Note_on_c, 6, 45, 0
8, 41100, Note_on_c, 6, 48, 86
8, 41159, Note_on_c, 6, 48, 0
8, 41160, Note_on_c, 6, 45, 84
8, 41220, Note_on_c, 6, 41, 97
8, 41221, Note_on_c, 6, 45, 0
8, 41404, Note_on_c, 6, 41, 0
8, 41430, Note_on_c, 6, 53, 97
8, 41447, Note_on_c, 6, 53, 0
8, 41460, Note_on_c, 6, 53, 97
8, 41486, Note_on_c, 6, 53, 0
8, 41490, Note_on_c, 6, 41, 88
8, 41506, Note_on_c, 6, 41, 0
8, 41520, Note_on_c, 6, 41, 100
8, 41546, Note_on_c, 6, 41, 0
8, 41550, Note_on_c, 6, 40, 100
8, 41569, Note_on_c, 6, 40, 0
8, 41580, Note_on_c, 6, 40, 105
8, 41635, Note_on_c, 6, 40, 0
8, 41640, Note_on_c, 6, 45, 100
8, 41691, Note_on_c, 6, 45, 0
8, 41700, Note_on_c, 6, 38, 90
8, 41753, Note_on_c, 6, 38, 0
8, 41760, Note_on_c, 6, 43, 84
8, 41820, Note_on_c, 6, 48, 90
8, 41824, Note_on_c, 6, 43, 0
8, 41875, Note_on_c, 6, 48, 0
8, 41880, Note_on_c, 6, 41, 97
8, 41936, Note_on_c, 6, 41, 0
8, 41940, Note_on_c, 6, 53, 86
8, 42000, Note_on_c, 6, 55, 100
8, 42002, Note_on_c, 6, 53, 0
8, 42060, Note_on_c, 6, 57, 100
8, 42067, Note_on_c, 6, 55, 0
8, 42120, Note_on_c, 6, 53, 97
8, 42123, Note_on_c, 6, 57, 0
8, 42178, Note_on_c, 6, 53, 0
8, 42180, Note_on_c, 6, 55, 95
8, 42240, Note_on_c, 6, 55, 0
8, 42240, Note_on_c, 6, 43, 100
8, 42297, Note_on_c, 6, 43, 0
8, 42300, Note_on_c, 6, 36, 97
8, 42367, Note_on_c, 6, 36, 0
8, 42660, Note_on_c, 6, 36, 97
8, 42737, Note_on_c, 6, 36, 0
8, 43020, Note_on_c, 6, 36, 82
8, 43090, Note_on_c, 6, 36, 0
8, 43380, Note_on_c, 6, 48, 86
8, 43433, Note_on_c, 6, 48, 0
8, 43560, Note_on_c, 6, 43, 80
8, 43618, Note_on_c, 6, 43, 0
8, 43740, Note_on_c, 6, 36, 82
8, 43801, Note_on_c, 6, 36, 0
8, 43980, Note_on_c, 6, 45, 97
8, 44028, Note_on_c, 6, 45, 0
8, 44040, Note_on_c, 6, 42, 97
8, 44098, Note_on_c, 6, 42, 0
8, 44100, Note_on_c, 6, 47, 102
8, 44151, Note_on_c, 6, 47, 0
8, 44340, Note_on_c, 6, 43, 93
8, 44383, Note_on_c, 6, 43, 0
8, 44400, Note_on_c, 6, 40, 88
8, 44458, Note_on_c, 6, 40, 0
8, 44460, Note_on_c, 6, 45, 95
8, 44511, Note_on_c, 6, 45, 0
8, 44700, Note_on_c, 6, 42, 90
8, 44739, Note_on_c, 6, 42, 0
8, 44760, Note_on_c, 6, 38, 93
8, 44805, Note_on_c, 6, 38, 0
8, 44820, Note_on_c, 6, 43, 97
8, 44861, Note_on_c, 6, 43, 0
8, 45000, Note_on_c, 6, 38, 102
8, 45046, Note_on_c, 6, 38, 0
8, 45180, Note_on_c, 6, 43, 100
8, 45222, Note_on_c, 6, 43, 0
8, 45540, Note_on_c, 6, 43, 97
8, 45587, Note_on_c, 6, 43, 0
8, 45900, Note_on_c, 6, 43, 93
8, 45960, Note_on_c, 6, 43, 0
8, 46260, Note_on_c, 6, 43, 90
8, 46326, Note_on_c, 6, 43, 0
8, 46500, Note_on_c, 6, 52, 97
8, 46537, Note_on_c, 6, 52, 0
8, 46560, Note_on_c, 6, 49, 95
8, 46604, Note_on_c, 6, 49, 0
8, 46620, Note_on_c, 6, 54, 108
8, 46662, Note_on_c, 6, 54, 0
8, 46860, Note_on_c, 6, 50, 97
8, 46900, Note_on_c, 6, 50, 0
8, 46920, Note_on_c, 6, 47, 90
8, 46964, Note_on_c, 6, 47, 0
8, 46980, Note_on_c, 6, 52, 100
8, 47029, Note_on_c, 6, 52, 0
8, 47220, Note_on_c, 6, 49, 84
8, 47252, Note_on_c, 6, 49, 0
8, 47280, Note_on_c, 6, 45, 95
8, 47324, Note_on_c, 6, 45, 0
8, 47340, Note_on_c, 6, 50, 95
8, 47387, Note_on_c, 6, 50, 0
8, 47550, Note_on_c, 6, 62, 100
8, 47569, Note_on_c, 6, 62, 0
8, 47580, Note_on_c, 6, 62, 100
8, 47603, Note_on_c, 6, 62, 0
8, 47610, Note_on_c, 6, 57, 93
8, 47625, Note_on_c, 6, 57, 0
8, 47640, Note_on_c, 6, 57, 88
8, 47665, Note_on_c, 6, 57, 0
8, 47670, Note_on_c, 6, 54, 90
8, 47686, Note_on_c, 6, 54, 0
8, 47700, Note_on_c, 6, 54, 105
8, 47725, Note_on_c, 6, 54, 0
8, 47730, Note_on_c, 6, 57, 80
8, 47746, Note_on_c, 6, 57, 0
8, 47760, Note_on_c, 6, 57, 90
8, 47781, Note_on_c, 6, 57, 0
8, 47790, Note_on_c, 6, 54, 102
8, 47805, Note_on_c, 6, 54, 0
8, 47820, Note_on_c, 6, 54, 100
8, 47844, Note_on_c, 6, 54, 0
8, 47850, Note_on_c, 6, 50, 77
8, 47869, Note_on_c, 6, 50, 0
8, 47880, Note_on_c, 6, 50, 82
8, 47922, Note_on_c, 6, 50, 0
8, 47940, Note_on_c, 6, 62, 93
8, 47963, Note_on_c, 6, 62, 0
8, 48000, Note_on_c, 6, 50, 97
8, 48039, Note_on_c, 6, 50, 0
8, 48060, Note_on_c, 6, 43, 95
8, 48109, Note_on_c, 6, 43, 0
8, 48270, Note_on_c, 6, 55, 102
8, 48287, Note_on_c, 6, 55, 0
8, 48300, Note_on_c, 6, 55, 100
8, 48322, Note_on_c, 6, 55, 0
8, 48330, Note_on_c, 6, 50, 93
8, 48345, Note_on_c, 6, 50, 0
8, 48360, Note_on_c, 6, 50, 88
8, 48383, Note_on_c, 6, 50, 0
8, 48390, Note_on_c, 6, 47, 102
8, 48406, Note_on_c, 6, 47, 0
8, 48420, Note_on_c, 6, 47, 100
8, 48442, Note_on_c, 6, 47, 0
8, 48450, Note_on_c, 6, 50, 95
8, 48465, Note_on_c, 6, 50, 0
8, 48480, Note_on_c, 6, 50, 97
8, 48500, Note_on_c, 6, 50, 0
8, 48510, Note_on_c, 6, 47, 100
8, 48522, Note_on_c, 6, 47, 0
8, 48540, Note_on_c, 6, 47, 105
8, 48557, Note_on_c, 6, 47, 0
8, 48570, Note_on_c, 6, 43, 105
8, 48585, Note_on_c, 6, 43, 0
8, 48600, Note_on_c, 6, 43, 105
8, 48646, Note_on_c, 6, 43, 0
8, 48660, Note_on_c, 6, 55, 97
8, 48708, Note_on_c, 6, 55, 0
8, 48720, Note_on_c, 6, 43, 97
8, 48765, Note_on_c, 6, 43, 0
8, 48780, Note_on_c, 6, 48, 93
8, 48830, Note_on_c, 6, 48, 0
8, 48840, Note_on_c, 6, 60, 100
8, 48890, Note_on_c, 6, 60, 0
8, 48900, Note_on_c, 6, 57, 95
8, 48955, Note_on_c, 6, 57, 0
8, 48960, Note_on_c, 6, 54, 97
8, 49012, Note_on_c, 6, 54, 0
8, 49020, Note_on_c, 6, 59, 100
8, 49076, Note_on_c, 6, 59, 0
8, 49080, Note_on_c, 6, 55, 90
8, 49139, Note_on_c, 6, 55, 0
8, 49140, Note_on_c, 6, 52, 82
8, 49189, Note_on_c, 6, 52, 0
8, 49200, Note_on_c, 6, 57, 100
8, 49250, Note_on_c, 6, 57, 0
8, 49260, Note_on_c, 6, 54, 105
8, 49317, Note_on_c, 6, 54, 0
8, 49320, Note_on_c, 6, 50, 84
8, 49370, Note_on_c, 6, 50, 0
8, 49380, Note_on_c, 6, 55, 95
8, 49438, Note_on_c, 6, 55, 0
8, 49440, Note_on_c, 6, 52, 102
8, 49491, Note_on_c, 6, 52, 0
8, 49500, Note_on_c, 6, 48, 100
8, 49623, Note_on_c, 6, 48, 0
8, 49740, Note_on_c, 6, 48, 100
8, 49784, Note_on_c, 6, 48, 0
8, 49800, Note_on_c, 6, 45, 97
8, 49860, Note_on_c, 6, 45, 0
8, 49860, Note_on_c, 6, 50, 100
8, 49975, Note_on_c, 6, 50, 0
8, 50100, Note_on_c, 6, 50, 95
8, 50149, Note_on_c, 6, 50, 0
8, 50160, Note_on_c, 6, 47, 100
8, 50220, Note_on_c, 6, 47, 0
8, 50220, Note_on_c, 6, 52, 105
8, 50326, Note_on_c, 6, 52, 0
8, 50460, Note_on_c, 6, 52, 93
8, 50514, Note_on_c, 6, 52, 0
8, 50520, Note_on_c, 6, 48, 86
8, 50580, Note_on_c, 6, 48, 0
8, 50580, Note_on_c, 6, 45, 97
8, 50601, Note_on_c, 6, 45, 0
8, 50610, Note_on_c, 6, 60, 97
8, 50626, Note_on_c, 6, 60, 0
8, 50640, Note_on_c, 6, 60, 97
8, 50659, Note_on_c, 6, 60, 0
8, 50670, Note_on_c, 6, 57, 97
8, 50688, Note_on_c, 6, 57, 0
8, 50700, Note_on_c, 6, 57, 80
8, 50722, Note_on_c, 6, 57, 0
8, 50730, Note_on_c, 6, 54, 102
8, 50747, Note_on_c, 6, 54, 0
8, 50760, Note_on_c, 6, 54, 108
8, 50787, Note_on_c, 6, 54, 0
8, 50790, Note_on_c, 6, 57, 84
8, 50806, Note_on_c, 6, 57, 0
8, 50820, Note_on_c, 6, 57, 97
8, 50838, Note_on_c, 6, 57, 0
8, 50850, Note_on_c, 6, 54, 105
8, 50866, Note_on_c, 6, 54, 0
8, 50880, Note_on_c, 6, 54, 102
8, 50899, Note_on_c, 6, 54, 0
8, 50910, Note_on_c, 6, 50, 86
8, 50926, Note_on_c, 6, 50, 0
8, 50940, Note_on_c, 6, 50, 100
8, 50959, Note_on_c, 6, 50, 0
8, 50970, Note_on_c, 6, 54, 105
8, 50985, Note_on_c, 6, 54, 0
8, 51000, Note_on_c, 6, 54, 105
8, 51020, Note_on_c, 6, 54, 0
8, 51030, Note_on_c, 6, 50, 88
8, 51046, Note_on_c, 6, 50, 0
8, 51060, Note_on_c, 6, 50, 100
8, 51082, Note_on_c, 6, 50, 0
8, 51090, Note_on_c, 6, 47, 97
8, 51105, Note_on_c, 6, 47, 0
8, 51120, Note_on_c, 6, 47, 102
8, 51143, Note_on_c, 6, 47, 0
8, 51150, Note_on_c, 6, 50, 97
8, 51165, Note_on_c, 6, 50, 0
8, 51180, Note_on_c, 6, 50, 97
8, 51202, Note_on_c, 6, 50, 0
8, 51210, Note_on_c, 6, 47, 108
8, 51226, Note_on_c, 6, 47, 0
8, 51240, Note_on_c, 6, 47, 102
8, 51262, Note_on_c, 6, 47, 0
8, 51270, Note_on_c, 6, 43, 100
8, 51289, Note_on_c, 6, 43, 0
8, 51300, Note_on_c, 6, 43, 108
8, 51360, Note_on_c, 6, 47, 108
8, 51362, Note_on_c, 6, 43, 0
8, 51417, Note_on_c, 6, 47, 0
8, 51420, Note_on_c, 6, 50, 100
8, 51473, Note_on_c, 6, 50, 0
8, 51480, Note_on_c, 6, 55, 108
8, 51530, Note_on_c, 6, 55, 0
8, 51540, Note_on_c, 6, 47, 111
8, 51597, Note_on_c, 6, 47, 0
8, 51600, Note_on_c, 6, 50, 100
8, 51658, Note_on_c, 6, 50, 0
8, 51660, Note_on_c, 6, 43, 97
8, 51720, Note_on_c, 6, 45, 95
8, 51726, Note_on_c, 6, 43, 0
8, 51780, Note_on_c, 6, 47, 93
8, 51781, Note_on_c, 6, 45, 0
8, 51838, Note_on_c, 6, 47, 0
8, 51840, Note_on_c, 6, 40, 82
8, 51900, Note_on_c, 6, 43, 86
8, 51902, Note_on_c, 6, 40, 0
8, 51960, Note_on_c, 6, 47, 102
8, 51963, Note_on_c, 6, 43, 0
8, 52017, Note_on_c, 6, 47, 0
8, 52020, Note_on_c, 6, 52, 95
8, 52079, Note_on_c, 6, 52, 0
8, 52080, Note_on_c, 6, 54, 108
8, 52140, Note_on_c, 6, 56, 108
8, 52147, Note_on_c, 6, 54, 0
8, 52195, Note_on_c, 6, 56, 0
8, 52200, Note_on_c, 6, 57, 95
8, 52246, Note_on_c, 6, 57, 0
8, 52260, Note_on_c, 6, 48, 93
8, 52312, Note_on_c, 6, 48, 0
8, 52320, Note_on_c, 6, 52, 97
8, 52380, Note_on_c, 6, 45, 97
8, 52381, Note_on_c, 6, 52, 0
8, 52434, Note_on_c, 6, 45, 0
8, 52440, Note_on_c, 6, 57, 97
8, 52495, Note_on_c, 6, 57, 0
8, 52500, Note_on_c, 6, 45, 102
8, 52550, Note_on_c, 6, 45, 0
8, 52560, Note_on_c, 6, 38, 100
8, 52615, Note_on_c, 6, 38, 0
8, 52620, Note_on_c, 6, 50, 100
8, 52680, Note_on_c, 6, 38, 100
8, 52684, Note_on_c, 6, 50, 0
8, 52736, Note_on_c, 6, 38, 0
8, 52740, Note_on_c, 6, 55, 102
8, 52791, Note_on_c, 6, 55, 0
8, 52800, Note_on_c, 6, 52, 100
8, 52857, Note_on_c, 6, 52, 0
8, 52860, Note_on_c, 6, 49, 90
8, 52914, Note_on_c, 6, 49, 0
8, 52920, Note_on_c, 6, 54, 102
8, 52979, Note_on_c, 6, 54, 0
8, 52980, Note_on_c, 6, 50, 88
8, 53039, Note_on_c, 6, 50, 0
8, 53040, Note_on_c, 6, 47, 84
8, 53092, Note_on_c, 6, 47, 0
8, 53100, Note_on_c, 6, 52, 100
8, 53156, Note_on_c, 6, 52, 0
8, 53160, Note_on_c, 6, 49, 108
8, 53214, Note_on_c, 6, 49, 0
8, 53220, Note_on_c, 6, 47, 97
8, 53275, Note_on_c, 6, 47, 0
8, 53280, Note_on_c, 6, 46, 102
8, 53336, Note_on_c, 6, 46, 0
8, 53338, Note_on_c, 6, 47, 100
8, 53397, Note_on_c, 6, 47, 0
8, 53398, Note_on_c, 6, 50, 97
8, 53441, Note_on_c, 6, 50, 0
8, 53460, Note_on_c, 6, 43, 77
8, 53511, Note_on_c, 6, 43, 0
8, 53520, Note_on_c, 6, 52, 82
8, 53580, Note_on_c, 6, 49, 97
8, 53585, Note_on_c, 6, 52, 0
8, 53640, Note_on_c, 6, 54, 88
8, 53642, Note_on_c, 6, 49, 0
8, 53700, Note_on_c, 6, 47, 90
8, 53702, Note_on_c, 6, 54, 0
8, 53730, Note_on_c, 6, 49, 73
8, 53731, Note_on_c, 6, 47, 0
8, 53760, Note_on_c, 6, 50, 97
8, 53765, Note_on_c, 6, 49, 0
8, 53790, Note_on_c, 6, 47, 82
8, 53792, Note_on_c, 6, 50, 0
8, 53820, Note_on_c, 6, 52, 65
8, 53823, Note_on_c, 6, 47, 0
8, 53880, Note_on_c, 6, 45, 90
8, 53881, Note_on_c, 6, 52, 0
8, 53910, Note_on_c, 6, 47, 93
8, 53914, Note_on_c, 6, 45, 0
8, 53940, Note_on_c, 6, 49, 84
8, 53943, Note_on_c, 6, 47, 0
8, 53970, Note_on_c, 6, 45, 75
8, 53972, Note_on_c, 6, 49, 0
8, 54000, Note_on_c, 6, 50, 100
8, 54005, Note_on_c, 6, 45, 0
8, 54060, Note_on_c, 6, 52, 80
8, 54062, Note_on_c, 6, 50, 0
8, 54090, Note_on_c, 6, 54, 108
8, 54094, Note_on_c, 6, 52, 0
8, 54120, Note_on_c, 6, 54, 0
8, 54120, Note_on_c, 6, 55, 100
8, 54150, Note_on_c, 6, 52, 93
8, 54152, Note_on_c, 6, 55, 0
8, 54179, Note_on_c, 6, 52, 0
8, 54180, Note_on_c, 6, 57, 86
8, 54233, Note_on_c, 6, 57, 0
8, 54240, Note_on_c, 6, 50, 90
8, 54270, Note_on_c, 6, 52, 97
8, 54272, Note_on_c, 6, 50, 0
8, 54300, Note_on_c, 6, 52, 0
8, 54300, Note_on_c, 6, 54, 100
8, 54330, Note_on_c, 6, 50, 86
8, 54334, Note_on_c, 6, 54, 0
8, 54360, Note_on_c, 6, 55, 86
8, 54363, Note_on_c, 6, 50, 0
8, 54420, Note_on_c, 6, 52, 90
8, 54421, Note_on_c, 6, 55, 0
8, 54480, Note_on_c, 6, 50, 95
8, 54481, Note_on_c, 6, 52, 0
8, 54540, Note_on_c, 6, 49, 93
8, 54549, Note_on_c, 6, 50, 0
8, 54600, Note_on_c, 6, 49, 0
8, 54600, Note_on_c, 6, 47, 82
8, 54660, Note_on_c, 6, 46, 82
8, 54661, Note_on_c, 6, 47, 0
8, 54720, Note_on_c, 6, 47, 90
8, 54723, Note_on_c, 6, 46, 0
8, 54777, Note_on_c, 6, 47, 0
8, 54780, Note_on_c, 6, 59, 88
8, 54833, Note_on_c, 6, 59, 0
8, 54840, Note_on_c, 6, 50, 95
8, 54900, Note_on_c, 6, 52, 93
8, 54901, Note_on_c, 6, 50, 0
8, 54960, Note_on_c, 6, 52, 0
8, 54960, Note_on_c, 6, 55, 100
8, 55020, Note_on_c, 6, 57, 95
8, 55026, Note_on_c, 6, 55, 0
8, 55077, Note_on_c, 6, 57, 0
8, 55080, Note_on_c, 6, 50, 105
8, 55139, Note_on_c, 6, 50, 0
8, 55140, Note_on_c, 6, 54, 95
8, 55200, Note_on_c, 6, 55, 95
8, 55204, Note_on_c, 6, 54, 0
8, 55260, Note_on_c, 6, 49, 105
8, 55262, Note_on_c, 6, 55, 0
8, 55319, Note_on_c, 6, 49, 0
8, 55320, Note_on_c, 6, 50, 88
8, 55379, Note_on_c, 6, 50, 0
8, 55380, Note_on_c, 6, 52, 90
8, 55440, Note_on_c, 6, 46, 100
8, 55443, Note_on_c, 6, 52, 0
8, 55500, Note_on_c, 6, 47, 95
8, 55503, Note_on_c, 6, 46, 0
8, 55560, Note_on_c, 6, 59, 95
8, 55561, Note_on_c, 6, 47, 0
8, 55620, Note_on_c, 6, 55, 90
8, 55621, Note_on_c, 6, 59, 0
8, 55680, Note_on_c, 6, 52, 93
8, 55686, Note_on_c, 6, 55, 0
8, 55738, Note_on_c, 6, 52, 0
8, 55740, Note_on_c, 6, 49, 97
8, 55800, Note_on_c, 6, 50, 84
8, 55804, Note_on_c, 6, 49, 0
8, 55830, Note_on_c, 6, 49, 102
8, 55833, Note_on_c, 6, 50, 0
8, 55857, Note_on_c, 6, 49, 0
8, 55860, Note_on_c, 6, 47, 80
8, 55890, Note_on_c, 6, 47, 0
8, 55890, Note_on_c, 6, 45, 77
8, 55920, Note_on_c, 6, 45, 0
8, 55920, Note_on_c, 6, 43, 88
8, 55950, Note_on_c, 6, 42, 86
8, 55955, Note_on_c, 6, 43, 0
8, 55980, Note_on_c, 6, 52, 100
8, 55983, Note_on_c, 6, 42, 0
8, 56700, Note_on_c, 6, 53, 102
8, 56721, Note_on_c, 6, 52, 0
8, 57420, Note_on_c, 6, 54, 105
8, 57429, Note_on_c, 6, 53, 0
8, 58140, Note_on_c, 6, 59, 97
8, 58144, Note_on_c, 6, 54, 0
8, 58234, Note_on_c, 6, 59, 0
8, 58320, Note_on_c, 6, 54, 105
8, 58390, Note_on_c, 6, 54, 0
8, 58500, Note_on_c, 6, 47, 102
8, 59282, Note_on_c, 6, 47, 0
8, 59340, Note_on_c, 6, 47, 100
8, 59400, Note_on_c, 6, 52, 100
8, 59402, Note_on_c, 6, 47, 0
8, 59450, Note_on_c, 6, 52, 0
8, 59520, Note_on_c, 6, 49, 105
8, 59578, Note_on_c, 6, 49, 0
8, 59580, Note_on_c, 6, 54, 102
8, 59642, Note_on_c, 6, 54, 0
8, 59700, Note_on_c, 6, 50, 105
8, 59757, Note_on_c, 6, 50, 0
8, 59760, Note_on_c, 6, 55, 97
8, 59812, Note_on_c, 6, 55, 0
8, 59880, Note_on_c, 6, 54, 108
8, 59938, Note_on_c, 6, 54, 0
8, 59940, Note_on_c, 6, 52, 95
8, 59999, Note_on_c, 6, 52, 0
8, 60000, Note_on_c, 6, 54, 108
8, 60060, Note_on_c, 6, 42, 82
8, 60061, Note_on_c, 6, 54, 0
8, 60120, Note_on_c, 6, 42, 0
8, 60120, Note_on_c, 6, 47, 97
8, 60180, Note_on_c, 6, 59, 93
8, 60184, Note_on_c, 6, 47, 0
8, 60240, Note_on_c, 6, 57, 93
8, 60243, Note_on_c, 6, 59, 0
8, 60300, Note_on_c, 6, 55, 111
8, 60306, Note_on_c, 6, 57, 0
8, 60540, Note_on_c, 6, 59, 97
8, 60543, Note_on_c, 6, 55, 0
8, 60600, Note_on_c, 6, 55, 111
8, 60606, Note_on_c, 6, 59, 0
8, 60652, Note_on_c, 6, 55, 0
8, 60660, Note_on_c, 6, 52, 90
8, 60869, Note_on_c, 6, 52, 0
8, 60870, Note_on_c, 6, 64, 80
8, 60899, Note_on_c, 6, 64, 0
8, 60900, Note_on_c, 6, 64, 93
8, 60929, Note_on_c, 6, 64, 0
8, 60930, Note_on_c, 6, 52, 86
8, 60959, Note_on_c, 6, 52, 0
8, 60960, Note_on_c, 6, 52, 95
8, 60989, Note_on_c, 6, 52, 0
8, 60990, Note_on_c, 6, 50, 97
8, 61019, Note_on_c, 6, 50, 0
8, 61020, Note_on_c, 6, 50, 100
8, 61079, Note_on_c, 6, 50, 0
8, 61080, Note_on_c, 6, 55, 93
8, 61139, Note_on_c, 6, 55, 0
8, 61140, Note_on_c, 6, 49, 102
8, 61199, Note_on_c, 6, 49, 0
8, 61200, Note_on_c, 6, 54, 105
8, 61259, Note_on_c, 6, 54, 0
8, 61260, Note_on_c, 6, 47, 100
8, 61319, Note_on_c, 6, 47, 0
8, 61320, Note_on_c, 6, 52, 108
8, 61439, Note_on_c, 6, 52, 0
8, 61440, Note_on_c, 6, 54, 102
8, 61499, Note_on_c, 6, 54, 0
8, 61500, Note_on_c, 6, 55, 97
8, 61559, Note_on_c, 6, 55, 0
8, 61560, Note_on_c, 6, 52, 100
8, 61619, Note_on_c, 6, 52, 0
8, 61620, Note_on_c, 6, 54, 100
8, 61679, Note_on_c, 6, 54, 0
8, 61680, Note_on_c, 6, 42, 82
8, 61739, Note_on_c, 6, 42, 0
8, 61740, Note_on_c, 6, 59, 97
8, 61769, Note_on_c, 6, 59, 0
8, 61770, Note_on_c, 6, 54, 97
8, 61799, Note_on_c, 6, 54, 0
8, 61800, Note_on_c, 6, 54, 90
8, 61829, Note_on_c, 6, 54, 0
8, 61830, Note_on_c, 6, 50, 95
8, 61859, Note_on_c, 6, 50, 0
8, 61860, Note_on_c, 6, 50, 97
8, 61889, Note_on_c, 6, 50, 0
8, 61890, Note_on_c, 6, 47, 108
8, 61919, Note_on_c, 6, 47, 0
8, 61920, Note_on_c, 6, 47, 100
8, 61949, Note_on_c, 6, 47, 0
8, 61950, Note_on_c, 6, 50, 97
8, 61979, Note_on_c, 6, 50, 0
8, 61980, Note_on_c, 6, 50, 100
8, 62009, Note_on_c, 6, 50, 0
8, 62010, Note_on_c, 6, 47, 105
8, 62039, Note_on_c, 6, 47, 0
8, 62040, Note_on_c, 6, 47, 100
8, 62069, Note_on_c, 6, 47, 0
8, 62070, Note_on_c, 6, 43, 97
8, 62099, Note_on_c, 6, 43, 0
8, 62100, Note_on_c, 6, 43, 105
8, 62159, Note_on_c, 6, 43, 0
8, 62280, Note_on_c, 6, 50, 93
8, 62339, Note_on_c, 6, 50, 0
8, 62460, Note_on_c, 6, 55, 95
8, 62519, Note_on_c, 6, 55, 0
8, 62640, Note_on_c, 6, 43, 97
8, 62694, Note_on_c, 6, 43, 0
8, 62820, Note_on_c, 6, 50, 97
8, 62865, Note_on_c, 6, 50, 0
8, 63000, Note_on_c, 6, 38, 90
8, 63050, Note_on_c, 6, 38, 0
8, 63180, Note_on_c, 6, 43, 59
8, 63240, Note_on_c, 6, 43, 0
8, 63360, Note_on_c, 6, 50, 59
8, 63420, Note_on_c, 6, 50, 0
8, 63540, Note_on_c, 6, 55, 59
8, 63600, Note_on_c, 6, 55, 0
8, 63720, Note_on_c, 6, 55, 59
8, 63780, Note_on_c, 6, 55, 0
8, 63900, Note_on_c, 6, 62, 59
8, 63960, Note_on_c, 6, 62, 0
8, 64080, Note_on_c, 6, 50, 59
8, 64140, Note_on_c, 6, 50, 0
8, 64260, Note_on_c, 6, 55, 59
8, 64320, Note_on_c, 6, 55, 0
8, 64320, Note_on_c, 6, 55, 59
8, 64380, Note_on_c, 6, 55, 0
8, 64380, Note_on_c, 6, 54, 59
8, 64440, Note_on_c, 6, 54, 0
8, 64440, Note_on_c, 6, 52, 59
8, 64500, Note_on_c, 6, 52, 0
8, 64500, Note_on_c, 6, 55, 59
8, 64560, Note_on_c, 6, 55, 0
8, 64560, Note_on_c, 6, 52, 59
8, 64620, Note_on_c, 6, 52, 0
8, 64620, Note_on_c, 6, 45, 59
8, 64680, Note_on_c, 6, 45, 0
8, 64680, Note_on_c, 6, 57, 59
8, 64740, Note_on_c, 6, 57, 0
8, 64740, Note_on_c, 6, 55, 59
8, 64800, Note_on_c, 6, 55, 0
8, 64800, Note_on_c, 6, 54, 59
8, 64860, Note_on_c, 6, 54, 0
8, 64860, Note_on_c, 6, 57, 59
8, 64920, Note_on_c, 6, 57, 0
8, 64920, Note_on_c, 6, 54, 59
8, 64980, Note_on_c, 6, 54, 0
8, 64980, Note_on_c, 6, 47, 59
8, 65040, Note_on_c, 6, 47, 0
8, 65040, Note_on_c, 6, 59, 59
8, 65100, Note_on_c, 6, 59, 0
8, 65100, Note_on_c, 6, 57, 59
8, 65160, Note_on_c, 6, 57, 0
8, 65160, Note_on_c, 6, 55, 59
8, 65220, Note_on_c, 6, 55, 0
8, 65220, Note_on_c, 6, 59, 59
8, 65280, Note_on_c, 6, 59, 0
8, 65280, Note_on_c, 6, 55, 59
8, 65340, Note_on_c, 6, 55, 0
8, 65340, Note_on_c, 6, 52, 59
8, 65400, Note_on_c, 6, 52, 0
8, 65400, Note_on_c, 6, 64, 59
8, 65460, Note_on_c, 6, 64, 0
8, 65460, Note_on_c, 6, 62, 59
8, 65520, Note_on_c, 6, 62, 0
8, 65520, Note_on_c, 6, 61, 59
8, 65550, Note_on_c, 6, 61, 0
8, 65550, Note_on_c, 6, 64, 59
8, 65580, Note_on_c, 6, 64, 0
8, 65580, Note_on_c, 6, 64, 59
8, 65610, Note_on_c, 6, 64, 0
8, 65610, Note_on_c, 6, 61, 59
8, 65640, Note_on_c, 6, 61, 0
8, 65640, Note_on_c, 6, 61, 59
8, 65670, Note_on_c, 6, 61, 0
8, 65670, Note_on_c, 6, 57, 59
8, 65700, Note_on_c, 6, 57, 0
8, 65700, Note_on_c, 6, 57, 59
8, 65730, Note_on_c, 6, 57, 0
8, 65730, Note_on_c, 6, 61, 59
8, 65760, Note_on_c, 6, 61, 0
8, 65760, Note_on_c, 6, 61, 59
8, 65790, Note_on_c, 6, 61, 0
8, 65790, Note_on_c, 6, 57, 59
8, 65820, Note_on_c, 6, 57, 0
8, 65820, Note_on_c, 6, 57, 59
8, 65850, Note_on_c, 6, 57, 0
8, 65850, Note_on_c, 6, 54, 59
8, 65880, Note_on_c, 6, 54, 0
8, 65880, Note_on_c, 6, 54, 59
8, 65910, Note_on_c, 6, 54, 0
8, 65910, Note_on_c, 6, 57, 59
8, 65940, Note_on_c, 6, 57, 0
8, 65940, Note_on_c, 6, 57, 59
8, 65970, Note_on_c, 6, 57, 0
8, 65970, Note_on_c, 6, 54, 59
8, 66000, Note_on_c, 6, 54, 0
8, 66000, Note_on_c, 6, 54, 59
8, 66030, Note_on_c, 6, 54, 0
8, 66030, Note_on_c, 6, 50, 59
8, 66060, Note_on_c, 6, 50, 0
8, 66060, Note_on_c, 6, 50, 59
8, 66120, Note_on_c, 6, 50, 0
8, 66240, Note_on_c, 6, 45, 59
8, 66300, Note_on_c, 6, 45, 0
8, 66420, Note_on_c, 6, 38, 59
8, 66480, Note_on_c, 6, 38, 0
8, 66600, Note_on_c, 6, 50, 59
8, 66660, Note_on_c, 6, 50, 0
8, 66780, Note_on_c, 6, 45, 59
8, 66840, Note_on_c, 6, 45, 0
8, 66960, Note_on_c, 6, 57, 59
8, 67020, Note_on_c, 6, 57, 0
8, 67140, Note_on_c, 6, 50, 59
8, 67200, Note_on_c, 6, 50, 0
8, 67320, Note_on_c, 6, 57, 59
8, 67380, Note_on_c, 6, 57, 0
8, 67500, Note_on_c, 6, 62, 59
8, 67560, Note_on_c, 6, 62, 0
8, 67680, Note_on_c, 6, 50, 59
8, 67740, Note_on_c, 6, 50, 0
8, 67860, Note_on_c, 6, 57, 59
8, 67920, Note_on_c, 6, 57, 0
8, 68040, Note_on_c, 6, 69, 59
8, 68100, Note_on_c, 6, 69, 0
8, 68220, Note_on_c, 6, 62, 59
8, 68250, Note_on_c, 6, 62, 0
8, 68250, Note_on_c, 6, 62, 59
8, 68280, Note_on_c, 6, 62, 0
8, 68280, Note_on_c, 6, 62, 59
8, 68310, Note_on_c, 6, 62, 0
8, 68310, Note_on_c, 6, 57, 59
8, 68340, Note_on_c, 6, 57, 0
8, 68340, Note_on_c, 6, 57, 59
8, 68370, Note_on_c, 6, 57, 0
8, 68370, Note_on_c, 6, 54, 59
8, 68400, Note_on_c, 6, 54, 0
8, 68400, Note_on_c, 6, 54, 59
8, 68430, Note_on_c, 6, 54, 0
8, 68430, Note_on_c, 6, 57, 59
8, 68460, Note_on_c, 6, 57, 0
8, 68460, Note_on_c, 6, 57, 59
8, 68490, Note_on_c, 6, 57, 0
8, 68490, Note_on_c, 6, 54, 59
8, 68520, Note_on_c, 6, 54, 0
8, 68520, Note_on_c, 6, 54, 59
8, 68550, Note_on_c, 6, 54, 0
8, 68550, Note_on_c, 6, 50, 59
8, 68580, Note_on_c, 6, 50, 0
8, 68580, Note_on_c, 6, 50, 59
8, 68640, Note_on_c, 6, 50, 0
8, 68790, Note_on_c, 6, 50, 59
8, 68820, Note_on_c, 6, 50, 0
8, 68820, Note_on_c, 6, 50, 59
8, 68850, Note_on_c, 6, 50, 0
8, 68850, Note_on_c, 6, 50, 59
8, 68880, Note_on_c, 6, 50, 0
8, 68880, Note_on_c, 6, 50, 59
8, 68910, Note_on_c, 6, 50, 0
8, 68910, Note_on_c, 6, 50, 59
8, 68940, Note_on_c, 6, 50, 0
8, 68940, Note_on_c, 6, 43, 59
8, 68970, Note_on_c, 6, 43, 0
8, 68970, Note_on_c, 6, 67, 59
8, 69000, Note_on_c, 6, 67, 0
8, 69000, Note_on_c, 6, 67, 59
8, 69030, Note_on_c, 6, 67, 0
8, 69030, Note_on_c, 6, 62, 59
8, 69060, Note_on_c, 6, 62, 0
8, 69060, Note_on_c, 6, 62, 59
8, 69090, Note_on_c, 6, 62, 0
8, 69090, Note_on_c, 6, 59, 59
8, 69120, Note_on_c, 6, 59, 0
8, 69120, Note_on_c, 6, 59, 59
8, 69150, Note_on_c, 6, 59, 0
8, 69150, Note_on_c, 6, 62, 59
8, 69180, Note_on_c, 6, 62, 0
8, 69180, Note_on_c, 6, 62, 59
8, 69210, Note_on_c, 6, 62, 0
8, 69210, Note_on_c, 6, 59, 59
8, 69240, Note_on_c, 6, 59, 0
8, 69240, Note_on_c, 6, 59, 59
8, 69270, Note_on_c, 6, 59, 0
8, 69270, Note_on_c, 6, 55, 59
8, 69300, Note_on_c, 6, 55, 0
8, 69300, Note_on_c, 6, 55, 59
8, 69330, Note_on_c, 6, 55, 0
8, 69330, Note_on_c, 6, 50, 59
8, 69360, Note_on_c, 6, 50, 0
8, 69360, Note_on_c, 6, 50, 59
8, 69390, Note_on_c, 6, 50, 0
8, 69390, Note_on_c, 6, 47, 59
8, 69420, Note_on_c, 6, 47, 0
8, 69420, Note_on_c, 6, 47, 59
8, 69450, Note_on_c, 6, 47, 0
8, 69450, Note_on_c, 6, 43, 59
8, 69480, Note_on_c, 6, 43, 0
8, 69480, Note_on_c, 6, 43, 59
8, 69510, Note_on_c, 6, 43, 0
8, 69510, Note_on_c, 6, 55, 59
8, 69540, Note_on_c, 6, 55, 0
8, 69540, Note_on_c, 6, 55, 59
8, 69570, Note_on_c, 6, 55, 0
8, 69570, Note_on_c, 6, 55, 59
8, 69600, Note_on_c, 6, 55, 0
8, 69600, Note_on_c, 6, 55, 59
8, 69630, Note_on_c, 6, 55, 0
8, 69630, Note_on_c, 6, 55, 59
8, 69660, Note_on_c, 6, 55, 0
8, 69660, Note_on_c, 6, 48, 59
8, 69720, Note_on_c, 6, 48, 0
8, 69720, Note_on_c, 6, 60, 59
8, 69780, Note_on_c, 6, 60, 0
8, 69780, Note_on_c, 6, 57, 59
8, 69840, Note_on_c, 6, 57, 0
8, 69840, Note_on_c, 6, 54, 59
8, 69900, Note_on_c, 6, 54, 0
8, 69900, Note_on_c, 6, 59, 59
8, 69960, Note_on_c, 6, 59, 0
8, 69960, Note_on_c, 6, 55, 59
8, 70020, Note_on_c, 6, 55, 0
8, 70020, Note_on_c, 6, 52, 59
8, 70080, Note_on_c, 6, 52, 0
8, 70080, Note_on_c, 6, 57, 59
8, 70140, Note_on_c, 6, 57, 0
8, 70140, Note_on_c, 6, 54, 59
8, 70200, Note_on_c, 6, 54, 0
8, 70200, Note_on_c, 6, 50, 59
8, 70260, Note_on_c, 6, 50, 0
8, 70260, Note_on_c, 6, 55, 59
8, 70320, Note_on_c, 6, 55, 0
8, 70320, Note_on_c, 6, 52, 59
8, 70380, Note_on_c, 6, 52, 0
8, 70380, Note_on_c, 6, 48, 59
8, 70500, Note_on_c, 6, 48, 0
8, 70620, Note_on_c, 6, 48, 59
8, 70680, Note_on_c, 6, 48, 0
8, 70680, Note_on_c, 6, 45, 59
8, 70740, Note_on_c, 6, 45, 0
8, 70740, Note_on_c, 6, 50, 59
8, 70860, Note_on_c, 6, 50, 0
8, 70980, Note_on_c, 6, 50, 59
8, 71040, Note_on_c, 6, 50, 0
8, 71040, Note_on_c, 6, 47, 59
8, 71100, Note_on_c, 6, 47, 0
8, 71100, Note_on_c, 6, 52, 59
8, 71220, Note_on_c, 6, 52, 0
8, 71340, Note_on_c, 6, 52, 59
8, 71400, Note_on_c, 6, 52, 0
8, 71400, Note_on_c, 6, 48, 59
8, 71460, Note_on_c, 6, 48, 0
8, 71460, Note_on_c, 6, 45, 59
8, 71490, Note_on_c, 6, 45, 0
8, 71490, Note_on_c, 6, 60, 59
8, 71520, Note_on_c, 6, 60, 0
8, 71520, Note_on_c, 6, 60, 59
8, 71550, Note_on_c, 6, 60, 0
8, 71550, Note_on_c, 6, 57, 59
8, 71580, Note_on_c, 6, 57, 0
8, 71580, Note_on_c, 6, 57, 59
8, 71610, Note_on_c, 6, 57, 0
8, 71610, Note_on_c, 6, 54, 59
8, 71640, Note_on_c, 6, 54, 0
8, 71640, Note_on_c, 6, 54, 59
8, 71670, Note_on_c, 6, 54, 0
8, 71670, Note_on_c, 6, 57, 59
8, 71700, Note_on_c, 6, 57, 0
8, 71700, Note_on_c, 6, 57, 59
8, 71730, Note_on_c, 6, 57, 0
8, 71730, Note_on_c, 6, 54, 59
8, 71760, Note_on_c, 6, 54, 0
8, 71760, Note_on_c, 6, 54, 59
8, 71790, Note_on_c, 6, 54, 0
8, 71790, Note_on_c, 6, 50, 59
8, 71820, Note_on_c, 6, 50, 0
8, 71820, Note_on_c, 6, 50, 59
8, 71850, Note_on_c, 6, 50, 0
8, 71850, Note_on_c, 6, 54, 59
8, 71880, Note_on_c, 6, 54, 0
8, 71880, Note_on_c, 6, 54, 59
8, 71910, Note_on_c, 6, 54, 0
8, 71910, Note_on_c, 6, 50, 59
8, 71940, Note_on_c, 6, 50, 0
8, 71940, Note_on_c, 6, 50, 59
8, 71970, Note_on_c, 6, 50, 0
8, 71970, Note_on_c, 6, 47, 59
8, 72000, Note_on_c, 6, 47, 0
8, 72000, Note_on_c, 6, 47, 59
8, 72030, Note_on_c, 6, 47, 0
8, 72030, Note_on_c, 6, 50, 59
8, 72060, Note_on_c, 6, 50, 0
8, 72060, Note_on_c, 6, 50, 59
8, 72090, Note_on_c, 6, 50, 0
8, 72090, Note_on_c, 6, 47, 59
8, 72120, Note_on_c, 6, 47, 0
8, 72120, Note_on_c, 6, 47, 59
8, 72150, Note_on_c, 6, 47, 0
8, 72150, Note_on_c, 6, 43, 59
8, 72180, Note_on_c, 6, 43, 0
8, 72180, Note_on_c, 6, 43, 59
8, 72240, Note_on_c, 6, 43, 0
8, 72360, Note_on_c, 6, 50, 59
8, 72420, Note_on_c, 6, 50, 0
8, 72540, Note_on_c, 6, 55, 59
8, 72600, Note_on_c, 6, 55, 0
8, 72720, Note_on_c, 6, 43, 59
8, 72780, Note_on_c, 6, 43, 0
8, 72900, Note_on_c, 6, 38, 59
8, 72960, Note_on_c, 6, 38, 0
8, 73080, Note_on_c, 6, 50, 59
8, 73140, Note_on_c, 6, 50, 0
8, 73260, Note_on_c, 6, 55, 59
8, 73320, Note_on_c, 6, 55, 0
8, 73440, Note_on_c, 6, 50, 59
8, 73500, Note_on_c, 6, 50, 0
8, 73620, Note_on_c, 6, 43, 59
8, 73680, Note_on_c, 6, 43, 0
8, 73800, Note_on_c, 6, 55, 59
8, 73860, Note_on_c, 6, 55, 0
8, 73980, Note_on_c, 6, 62, 59
8, 74040, Note_on_c, 6, 62, 0
8, 74160, Note_on_c, 6, 50, 59
8, 74220, Note_on_c, 6, 50, 0
8, 74340, Note_on_c, 6, 55, 59
8, 74400, Note_on_c, 6, 55, 0
8, 74460, Note_on_c, 6, 43, 59
8, 74520, Note_on_c, 6, 43, 0
8, 74520, Note_on_c, 6, 48, 59
8, 74580, Note_on_c, 6, 48, 0
8, 74640, Note_on_c, 6, 45, 59
8, 74700, Note_on_c, 6, 45, 0
8, 74700, Note_on_c, 6, 50, 59
8, 74760, Note_on_c, 6, 50, 0
8, 74820, Note_on_c, 6, 47, 59
8, 74880, Note_on_c, 6, 47, 0
8, 74880, Note_on_c, 6, 52, 59
8, 74940, Note_on_c, 6, 52, 0
8, 75000, Note_on_c, 6, 50, 59
8, 75060, Note_on_c, 6, 50, 0
8, 75060, Note_on_c, 6, 48, 59
8, 75120, Note_on_c, 6, 48, 0
8, 75120, Note_on_c, 6, 50, 59
8, 75180, Note_on_c, 6, 50, 0
8, 75180, Note_on_c, 6, 38, 59
8, 75240, Note_on_c, 6, 38, 0
8, 75240, Note_on_c, 6, 43, 59
8, 75300, Note_on_c, 6, 43, 0
8, 75300, Note_on_c, 6, 55, 59
8, 75360, Note_on_c, 6, 55, 0
8, 75360, Note_on_c, 6, 53, 59
8, 75420, Note_on_c, 6, 53, 0
8, 75420, Note_on_c, 6, 52, 59
8, 75660, Note_on_c, 6, 52, 0
8, 75660, Note_on_c, 6, 55, 59
8, 75720, Note_on_c, 6, 55, 0
8, 75720, Note_on_c, 6, 52, 59
8, 75780, Note_on_c, 6, 52, 0
8, 75780, Note_on_c, 6, 48, 59
8, 75990, Note_on_c, 6, 48, 0
8, 75990, Note_on_c, 6, 60, 59
8, 76020, Note_on_c, 6, 60, 0
8, 76020, Note_on_c, 6, 60, 59
8, 76050, Note_on_c, 6, 60, 0
8, 76050, Note_on_c, 6, 48, 59
8, 76080, Note_on_c, 6, 48, 0
8, 76080, Note_on_c, 6, 48, 59
8, 76110, Note_on_c, 6, 48, 0
8, 76110, Note_on_c, 6, 47, 59
8, 76140, Note_on_c, 6, 47, 0
8, 76140, Note_on_c, 6, 47, 59
8, 76200, Note_on_c, 6, 47, 0
8, 76200, Note_on_c, 6, 52, 59
8, 76260, Note_on_c, 6, 52, 0
8, 76260, Note_on_c, 6, 45, 59
8, 76320, Note_on_c, 6, 45, 0
8, 76320, Note_on_c, 6, 50, 59
8, 76380, Note_on_c, 6, 50, 0
8, 76380, Note_on_c, 6, 43, 59
8, 76440, Note_on_c, 6, 43, 0
8, 76440, Note_on_c, 6, 48, 59
8, 76560, Note_on_c, 6, 48, 0
8, 76560, Note_on_c, 6, 50, 59
8, 76620, Note_on_c, 6, 50, 0
8, 76620, Note_on_c, 6, 52, 59
8, 76680, Note_on_c, 6, 52, 0
8, 76680, Note_on_c, 6, 48, 59
8, 76740, Note_on_c, 6, 48, 0
8, 76740, Note_on_c, 6, 50, 59
8, 76800, Note_on_c, 6, 50, 0
8, 76800, Note_on_c, 6, 38, 59
8, 76860, Note_on_c, 6, 38, 0
8, 76860, Note_on_c, 6, 43, 59
8, 77040, Note_on_c, 6, 43, 0
8, 77040, End_track
9, 0, Start_track
9, 0, MIDI_port, 0
9, 0, Title_t, "Bass Viol sec"
9, 0, Program_c, 7, 43
9, 0, Control_c, 7, 7, 90
9, 0, Control_c, 7, 10, 127
9, 180, Note_on_c, 7, 55, 95
9, 239, Note_on_c, 7, 55, 0
9, 360, Note_on_c, 7, 50, 93
9, 430, Note_on_c, 7, 50, 0
9, 540, Note_on_c, 7, 43, 90
9, 632, Note_on_c, 7, 43, 0
9, 1260, Note_on_c, 7, 43, 80
9, 1344, Note_on_c, 7, 43, 0
9, 1440, Note_on_c, 7, 50, 77
9, 1519, Note_on_c, 7, 50, 0
9, 1620, Note_on_c, 7, 55, 80
9, 1692, Note_on_c, 7, 55, 0
9, 2580, Note_on_c, 7, 55, 82
9, 2630, Note_on_c, 7, 55, 0
9, 2640, Note_on_c, 7, 52, 82
9, 2694, Note_on_c, 7, 52, 0
9, 2700, Note_on_c, 7, 57, 80
9, 2783, Note_on_c, 7, 57, 0
9, 2940, Note_on_c, 7, 57, 82
9, 2985, Note_on_c, 7, 57, 0
9, 3000, Note_on_c, 7, 54, 95
9, 3045, Note_on_c, 7, 54, 0
9, 3060, Note_on_c, 7, 59, 88
9, 3125, Note_on_c, 7, 59, 0
9, 3300, Note_on_c, 7, 59, 80
9, 3349, Note_on_c, 7, 59, 0
9, 3360, Note_on_c, 7, 55, 84
9, 3405, Note_on_c, 7, 55, 0
9, 3420, Note_on_c, 7, 52, 80
9, 3492, Note_on_c, 7, 52, 0
9, 3660, Note_on_c, 7, 52, 80
9, 3705, Note_on_c, 7, 52, 0
9, 3720, Note_on_c, 7, 49, 97
9, 3774, Note_on_c, 7, 49, 0
9, 3780, Note_on_c, 7, 45, 90
9, 3836, Note_on_c, 7, 45, 0
9, 3840, Note_on_c, 7, 49, 93
9, 3881, Note_on_c, 7, 49, 0
9, 3900, Note_on_c, 7, 45, 95
9, 3949, Note_on_c, 7, 45, 0
9, 3960, Note_on_c, 7, 42, 86
9, 4012, Note_on_c, 7, 42, 0
9, 4020, Note_on_c, 7, 45, 82
9, 4065, Note_on_c, 7, 45, 0
9, 4080, Note_on_c, 7, 42, 86
9, 4123, Note_on_c, 7, 42, 0
9, 4140, Note_on_c, 7, 38, 86
9, 4205, Note_on_c, 7, 38, 0
9, 4320, Note_on_c, 7, 45, 82
9, 4379, Note_on_c, 7, 45, 0
9, 4500, Note_on_c, 7, 50, 82
9, 4567, Note_on_c, 7, 50, 0
9, 5220, Note_on_c, 7, 50, 80
9, 5315, Note_on_c, 7, 50, 0
9, 5400, Note_on_c, 7, 45, 73
9, 5490, Note_on_c, 7, 45, 0
9, 5580, Note_on_c, 7, 38, 58
9, 5685, Note_on_c, 7, 38, 0
9, 6870, Note_on_c, 7, 50, 65
9, 6881, Note_on_c, 7, 50, 0
9, 6900, Note_on_c, 7, 50, 82
9, 6918, Note_on_c, 7, 50, 0
9, 6930, Note_on_c, 7, 50, 82
9, 6942, Note_on_c, 7, 50, 0
9, 6960, Note_on_c, 7, 50, 88
9, 6976, Note_on_c, 7, 50, 0
9, 6990, Note_on_c, 7, 50, 88
9, 7018, Note_on_c, 7, 50, 0
9, 7020, Note_on_c, 7, 43, 93
9, 7105, Note_on_c, 7, 43, 0
9, 7590, Note_on_c, 7, 55, 84
9, 7601, Note_on_c, 7, 55, 0
9, 7620, Note_on_c, 7, 55, 88
9, 7634, Note_on_c, 7, 55, 0
9, 7650, Note_on_c, 7, 55, 93
9, 7666, Note_on_c, 7, 55, 0
9, 7680, Note_on_c, 7, 55, 102
9, 7696, Note_on_c, 7, 55, 0
9, 7710, Note_on_c, 7, 55, 100
9, 7726, Note_on_c, 7, 55, 0
9, 7740, Note_on_c, 7, 48, 102
9, 7797, Note_on_c, 7, 48, 0
9, 7800, Note_on_c, 7, 60, 97
9, 7860, Note_on_c, 7, 57, 93
9, 7868, Note_on_c, 7, 60, 0
9, 7920, Note_on_c, 7, 57, 0
9, 7920, Note_on_c, 7, 54, 77
9, 7975, Note_on_c, 7, 54, 0
9, 7980, Note_on_c, 7, 59, 97
9, 8040, Note_on_c, 7, 55, 95
9, 8045, Note_on_c, 7, 59, 0
9, 8100, Note_on_c, 7, 52, 100
9, 8101, Note_on_c, 7, 55, 0
9, 8152, Note_on_c, 7, 52, 0
9, 8160, Note_on_c, 7, 57, 84
9, 8214, Note_on_c, 7, 57, 0
9, 8220, Note_on_c, 7, 54, 84
9, 8280, Note_on_c, 7, 50, 86
9, 8285, Note_on_c, 7, 54, 0
9, 8340, Note_on_c, 7, 55, 93
9, 8347, Note_on_c, 7, 50, 0
9, 8400, Note_on_c, 7, 52, 86
9, 8412, Note_on_c, 7, 55, 0
9, 8460, Note_on_c, 7, 48, 86
9, 8461, Note_on_c, 7, 52, 0
9, 8525, Note_on_c, 7, 48, 0
9, 8700, Note_on_c, 7, 48, 100
9, 8760, Note_on_c, 7, 48, 0
9, 8760, Note_on_c, 7, 45, 82
9, 8820, Note_on_c, 7, 45, 0
9, 8820, Note_on_c, 7, 50, 97
9, 8895, Note_on_c, 7, 50, 0
9, 9060, Note_on_c, 7, 50, 95
9, 9116, Note_on_c, 7, 50, 0
9, 9120, Note_on_c, 7, 47, 80
9, 9180, Note_on_c, 7, 52, 97
9, 9181, Note_on_c, 7, 47, 0
9, 9250, Note_on_c, 7, 52, 0
9, 9420, Note_on_c, 7, 52, 95
9, 9480, Note_on_c, 7, 52, 0
9, 9480, Note_on_c, 7, 48, 82
9, 9535, Note_on_c, 7, 48, 0
9, 9540, Note_on_c, 7, 45, 100
9, 9704, Note_on_c, 7, 45, 0
9, 9780, Note_on_c, 7, 57, 97
9, 9828, Note_on_c, 7, 57, 0
9, 9840, Note_on_c, 7, 54, 95
9, 9885, Note_on_c, 7, 54, 0
9, 9900, Note_on_c, 7, 50, 100
9, 10033, Note_on_c, 7, 50, 0
9, 10140, Note_on_c, 7, 50, 100
9, 10191, Note_on_c, 7, 50, 0
9, 10200, Note_on_c, 7, 47, 95
9, 10247, Note_on_c, 7, 47, 0
9, 10260, Note_on_c, 7, 43, 93
9, 10335, Note_on_c, 7, 43, 0
9, 10440, Note_on_c, 7, 50, 84
9, 10521, Note_on_c, 7, 50, 0
9, 10620, Note_on_c, 7, 55, 90
9, 10690, Note_on_c, 7, 55, 0
9, 11340, Note_on_c, 7, 55, 84
9, 11423, Note_on_c, 7, 55, 0
9, 11520, Note_on_c, 7, 50, 88
9, 11604, Note_on_c, 7, 50, 0
9, 11700, Note_on_c, 7, 43, 73
9, 11792, Note_on_c, 7, 43, 0
9, 12540, Note_on_c, 7, 43, 86
9, 12596, Note_on_c, 7, 43, 0
9, 12600, Note_on_c, 7, 48, 88
9, 12668, Note_on_c, 7, 48, 0
9, 12720, Note_on_c, 7, 45, 82
9, 12774, Note_on_c, 7, 45, 0
9, 12780, Note_on_c, 7, 50, 82
9, 12843, Note_on_c, 7, 50, 0
9, 12900, Note_on_c, 7, 47, 82
9, 12952, Note_on_c, 7, 47, 0
9, 12960, Note_on_c, 7, 52, 80
9, 13023, Note_on_c, 7, 52, 0
9, 13080, Note_on_c, 7, 50, 86
9, 13137, Note_on_c, 7, 50, 0
9, 13140, Note_on_c, 7, 48, 80
9, 13198, Note_on_c, 7, 48, 0
9, 13200, Note_on_c, 7, 50, 59
9, 13259, Note_on_c, 7, 50, 0
9, 13260, Note_on_c, 7, 38, 86
9, 13320, Note_on_c, 7, 43, 95
9, 13326, Note_on_c, 7, 38, 0
9, 13376, Note_on_c, 7, 43, 0
9, 13380, Note_on_c, 7, 55, 86
9, 13440, Note_on_c, 7, 53, 105
9, 13442, Note_on_c, 7, 55, 0
9, 13496, Note_on_c, 7, 53, 0
9, 13500, Note_on_c, 7, 52, 100
9, 13723, Note_on_c, 7, 52, 0
9, 13740, Note_on_c, 7, 55, 102
9, 13786, Note_on_c, 7, 55, 0
9, 13800, Note_on_c, 7, 52, 97
9, 13852, Note_on_c, 7, 52, 0
9, 13860, Note_on_c, 7, 48, 90
9, 14047, Note_on_c, 7, 48, 0
9, 14070, Note_on_c, 7, 60, 108
9, 14088, Note_on_c, 7, 60, 0
9, 14100, Note_on_c, 7, 60, 102
9, 14127, Note_on_c, 7, 60, 0
9, 14130, Note_on_c, 7, 48, 108
9, 14148, Note_on_c, 7, 48, 0
9, 14160, Note_on_c, 7, 48, 100
9, 14181, Note_on_c, 7, 48, 0
9, 14190, Note_on_c, 7, 47, 100
9, 14203, Note_on_c, 7, 47, 0
9, 14220, Note_on_c, 7, 47, 100
9, 14280, Note_on_c, 7, 47, 0
9, 14280, Note_on_c, 7, 52, 100
9, 14334, Note_on_c, 7, 52, 0
9, 14340, Note_on_c, 7, 45, 88
9, 14400, Note_on_c, 7, 50, 97
9, 14403, Note_on_c, 7, 45, 0
9, 14456, Note_on_c, 7, 50, 0
9, 14460, Note_on_c, 7, 43, 97
9, 14518, Note_on_c, 7, 43, 0
9, 14520, Note_on_c, 7, 48, 97
9, 14640, Note_on_c, 7, 50, 108
9, 14641, Note_on_c, 7, 48, 0
9, 14700, Note_on_c, 7, 52, 95
9, 14706, Note_on_c, 7, 50, 0
9, 14760, Note_on_c, 7, 48, 114
9, 14765, Note_on_c, 7, 52, 0
9, 14820, Note_on_c, 7, 50, 100
9, 14829, Note_on_c, 7, 48, 0
9, 14880, Note_on_c, 7, 38, 88
9, 14888, Note_on_c, 7, 50, 0
9, 14940, Note_on_c, 7, 43, 102
9, 14945, Note_on_c, 7, 38, 0
9, 15029, Note_on_c, 7, 43, 0
9, 15300, Note_on_c, 7, 43, 82
9, 15424, Note_on_c, 7, 43, 0
9, 15660, Note_on_c, 7, 43, 97
9, 15752, Note_on_c, 7, 43, 0
9, 16020, Note_on_c, 7, 55, 84
9, 16122, Note_on_c, 7, 55, 0
9, 16200, Note_on_c, 7, 50, 80
9, 16258, Note_on_c, 7, 50, 0
9, 16380, Note_on_c, 7, 43, 95
9, 16451, Note_on_c, 7, 43, 0
9, 16740, Note_on_c, 7, 43, 82
9, 16853, Note_on_c, 7, 43, 0
9, 17100, Note_on_c, 7, 43, 82
9, 17202, Note_on_c, 7, 43, 0
9, 17460, Note_on_c, 7, 43, 77
9, 17562, Note_on_c, 7, 43, 0
9, 18540, Note_on_c, 7, 50, 95
9, 18639, Note_on_c, 7, 50, 0
9, 18720, Note_on_c, 7, 45, 80
9, 18826, Note_on_c, 7, 45, 0
9, 18900, Note_on_c, 7, 38, 80
9, 19017, Note_on_c, 7, 38, 0
9, 19260, Note_on_c, 7, 38, 77
9, 19352, Note_on_c, 7, 38, 0
9, 19620, Note_on_c, 7, 38, 77
9, 19703, Note_on_c, 7, 38, 0
9, 19980, Note_on_c, 7, 38, 77
9, 20081, Note_on_c, 7, 38, 0
9, 20160, Note_on_c, 7, 45, 84
9, 20235, Note_on_c, 7, 45, 0
9, 20340, Note_on_c, 7, 50, 95
9, 20409, Note_on_c, 7, 50, 0
9, 20700, Note_on_c, 7, 50, 95
9, 20785, Note_on_c, 7, 50, 0
9, 21060, Note_on_c, 7, 50, 95
9, 21142, Note_on_c, 7, 50, 0
9, 21420, Note_on_c, 7, 50, 97
9, 21485, Note_on_c, 7, 50, 0
9, 22500, Note_on_c, 7, 45, 80
9, 22583, Note_on_c, 7, 45, 0
9, 23220, Note_on_c, 7, 46, 97
9, 23299, Note_on_c, 7, 46, 0
9, 23940, Note_on_c, 7, 47, 93
9, 23998, Note_on_c, 7, 47, 0
9, 24660, Note_on_c, 7, 52, 95
9, 24724, Note_on_c, 7, 52, 0
9, 24840, Note_on_c, 7, 47, 93
9, 24907, Note_on_c, 7, 47, 0
9, 25020, Note_on_c, 7, 40, 77
9, 25083, Note_on_c, 7, 40, 0
9, 25860, Note_on_c, 7, 52, 97
9, 25918, Note_on_c, 7, 52, 0
9, 25920, Note_on_c, 7, 57, 100
9, 25992, Note_on_c, 7, 57, 0
9, 26040, Note_on_c, 7, 54, 108
9, 26091, Note_on_c, 7, 54, 0
9, 26100, Note_on_c, 7, 59, 100
9, 26160, Note_on_c, 7, 59, 0
9, 26220, Note_on_c, 7, 55, 102
9, 26267, Note_on_c, 7, 55, 0
9, 26280, Note_on_c, 7, 60, 102
9, 26345, Note_on_c, 7, 60, 0
9, 26400, Note_on_c, 7, 59, 97
9, 26449, Note_on_c, 7, 59, 0
9, 26460, Note_on_c, 7, 57, 100
9, 26514, Note_on_c, 7, 57, 0
9, 26520, Note_on_c, 7, 59, 97
9, 26567, Note_on_c, 7, 59, 0
9, 26580, Note_on_c, 7, 47, 84
9, 26639, Note_on_c, 7, 47, 0
9, 26640, Note_on_c, 7, 40, 88
9, 26696, Note_on_c, 7, 40, 0
9, 26700, Note_on_c, 7, 52, 102
9, 26760, Note_on_c, 7, 50, 97
9, 26768, Note_on_c, 7, 52, 0
9, 26820, Note_on_c, 7, 48, 93
9, 26827, Note_on_c, 7, 50, 0
9, 27015, Note_on_c, 7, 48, 0
9, 27060, Note_on_c, 7, 52, 86
9, 27114, Note_on_c, 7, 52, 0
9, 27120, Note_on_c, 7, 48, 84
9, 27177, Note_on_c, 7, 48, 0
9, 27180, Note_on_c, 7, 45, 95
9, 27374, Note_on_c, 7, 45, 0
9, 27390, Note_on_c, 7, 57, 102
9, 27406, Note_on_c, 7, 57, 0
9, 27420, Note_on_c, 7, 57, 102
9, 27443, Note_on_c, 7, 57, 0
9, 27450, Note_on_c, 7, 45, 105
9, 27468, Note_on_c, 7, 45, 0
9, 27480, Note_on_c, 7, 45, 100
9, 27500, Note_on_c, 7, 45, 0
9, 27510, Note_on_c, 7, 43, 97
9, 27523, Note_on_c, 7, 43, 0
9, 27540, Note_on_c, 7, 43, 105
9, 27594, Note_on_c, 7, 43, 0
9, 27600, Note_on_c, 7, 48, 95
9, 27643, Note_on_c, 7, 48, 0
9, 27660, Note_on_c, 7, 42, 111
9, 27714, Note_on_c, 7, 42, 0
9, 27720, Note_on_c, 7, 47, 95
9, 27771, Note_on_c, 7, 47, 0
9, 27780, Note_on_c, 7, 40, 88
9, 27840, Note_on_c, 7, 45, 100
9, 27841, Note_on_c, 7, 40, 0
9, 27960, Note_on_c, 7, 47, 105
9, 27961, Note_on_c, 7, 45, 0
9, 28020, Note_on_c, 7, 48, 100
9, 28027, Note_on_c, 7, 47, 0
9, 28078, Note_on_c, 7, 48, 0
9, 28080, Note_on_c, 7, 45, 102
9, 28140, Note_on_c, 7, 47, 105
9, 28150, Note_on_c, 7, 45, 0
9, 28183, Note_on_c, 7, 47, 0
9, 28200, Note_on_c, 7, 47, 97
9, 28260, Note_on_c, 7, 40, 93
9, 28263, Note_on_c, 7, 47, 0
9, 28374, Note_on_c, 7, 40, 0
9, 28500, Note_on_c, 7, 43, 88
9, 28554, Note_on_c, 7, 43, 0
9, 28560, Note_on_c, 7, 47, 90
9, 28620, Note_on_c, 7, 52, 82
9, 28621, Note_on_c, 7, 47, 0
9, 28677, Note_on_c, 7, 52, 0
9, 28860, Note_on_c, 7, 45, 97
9, 28907, Note_on_c, 7, 45, 0
9, 28920, Note_on_c, 7, 48, 80
9, 28980, Note_on_c, 7, 47, 93
9, 28986, Note_on_c, 7, 48, 0
9, 29052, Note_on_c, 7, 47, 0
9, 29220, Note_on_c, 7, 52, 95
9, 29272, Note_on_c, 7, 52, 0
9, 29280, Note_on_c, 7, 40, 67
9, 29337, Note_on_c, 7, 40, 0
9, 29340, Note_on_c, 7, 45, 80
9, 29430, Note_on_c, 7, 45, 0
9, 29580, Note_on_c, 7, 50, 69
9, 29639, Note_on_c, 7, 50, 0
9, 29640, Note_on_c, 7, 38, 69
9, 29700, Note_on_c, 7, 43, 77
9, 29703, Note_on_c, 7, 38, 0
9, 29773, Note_on_c, 7, 43, 0
9, 33300, Note_on_c, 7, 57, 95
9, 33372, Note_on_c, 7, 57, 0
9, 33480, Note_on_c, 7, 52, 95
9, 33553, Note_on_c, 7, 52, 0
9, 33660, Note_on_c, 7, 45, 88
9, 33735, Note_on_c, 7, 45, 0
9, 34380, Note_on_c, 7, 45, 59
9, 34432, Note_on_c, 7, 45, 0
9, 34558, Note_on_c, 7, 52, 71
9, 34612, Note_on_c, 7, 52, 0
9, 34739, Note_on_c, 7, 57, 80
9, 34779, Note_on_c, 7, 57, 0
9, 34918, Note_on_c, 7, 45, 77
9, 34950, Note_on_c, 7, 45, 0
9, 35103, Note_on_c, 7, 50, 86
9, 35144, Note_on_c, 7, 50, 0
9, 35281, Note_on_c, 7, 52, 77
9, 35317, Note_on_c, 7, 52, 0
9, 35459, Note_on_c, 7, 45, 80
9, 35499, Note_on_c, 7, 45, 0
9, 35700, Note_on_c, 7, 57, 82
9, 35754, Note_on_c, 7, 57, 0
9, 35760, Note_on_c, 7, 45, 75
9, 35812, Note_on_c, 7, 45, 0
9, 35820, Note_on_c, 7, 38, 82
9, 35878, Note_on_c, 7, 38, 0
9, 36060, Note_on_c, 7, 62, 82
9, 36112, Note_on_c, 7, 62, 0
9, 36120, Note_on_c, 7, 50, 65
9, 36166, Note_on_c, 7, 50, 0
9, 36180, Note_on_c, 7, 43, 84
9, 36234, Note_on_c, 7, 43, 0
9, 36420, Note_on_c, 7, 43, 73
9, 36456, Note_on_c, 7, 43, 0
9, 36480, Note_on_c, 7, 55, 67
9, 36525, Note_on_c, 7, 55, 0
9, 36540, Note_on_c, 7, 48, 80
9, 36601, Note_on_c, 7, 48, 0
9, 36780, Note_on_c, 7, 60, 88
9, 36823, Note_on_c, 7, 60, 0
9, 36840, Note_on_c, 7, 48, 77
9, 36882, Note_on_c, 7, 48, 0
9, 36900, Note_on_c, 7, 41, 93
9, 36934, Note_on_c, 7, 41, 0
9, 36960, Note_on_c, 7, 53, 84
9, 37019, Note_on_c, 7, 53, 0
9, 37080, Note_on_c, 7, 43, 93
9, 37116, Note_on_c, 7, 43, 0
9, 37140, Note_on_c, 7, 55, 80
9, 37202, Note_on_c, 7, 55, 0
9, 37260, Note_on_c, 7, 45, 90
9, 37307, Note_on_c, 7, 45, 0
9, 37320, Note_on_c, 7, 57, 88
9, 37383, Note_on_c, 7, 57, 0
9, 37440, Note_on_c, 7, 47, 100
9, 37477, Note_on_c, 7, 47, 0
9, 37500, Note_on_c, 7, 59, 93
9, 37541, Note_on_c, 7, 59, 0
9, 37620, Note_on_c, 7, 48, 93
9, 37671, Note_on_c, 7, 48, 0
9, 37800, Note_on_c, 7, 55, 80
9, 37852, Note_on_c, 7, 55, 0
9, 37980, Note_on_c, 7, 60, 88
9, 38022, Note_on_c, 7, 60, 0
9, 38700, Note_on_c, 7, 60, 86
9, 38756, Note_on_c, 7, 60, 0
9, 38880, Note_on_c, 7, 55, 84
9, 38942, Note_on_c, 7, 55, 0
9, 39060, Note_on_c, 7, 48, 82
9, 39122, Note_on_c, 7, 48, 0
9, 39240, Note_on_c, 7, 60, 93
9, 39283, Note_on_c, 7, 60, 0
9, 39420, Note_on_c, 7, 55, 105
9, 39463, Note_on_c, 7, 55, 0
9, 39600, Note_on_c, 7, 43, 97
9, 39645, Note_on_c, 7, 43, 0
9, 39780, Note_on_c, 7, 48, 100
9, 39818, Note_on_c, 7, 48, 0
9, 39900, Note_on_c, 7, 48, 95
9, 39942, Note_on_c, 7, 48, 0
9, 39960, Note_on_c, 7, 53, 100
9, 40010, Note_on_c, 7, 53, 0
9, 40080, Note_on_c, 7, 50, 97
9, 40125, Note_on_c, 7, 50, 0
9, 40140, Note_on_c, 7, 55, 100
9, 40186, Note_on_c, 7, 55, 0
9, 40260, Note_on_c, 7, 52, 102
9, 40307, Note_on_c, 7, 52, 0
9, 40320, Note_on_c, 7, 57, 97
9, 40376, Note_on_c, 7, 57, 0
9, 40440, Note_on_c, 7, 55, 97
9, 40488, Note_on_c, 7, 55, 0
9, 40500, Note_on_c, 7, 53, 102
9, 40548, Note_on_c, 7, 53, 0
9, 40560, Note_on_c, 7, 55, 102
9, 40607, Note_on_c, 7, 55, 0
9, 40620, Note_on_c, 7, 43, 100
9, 40672, Note_on_c, 7, 43, 0
9, 40680, Note_on_c, 7, 48, 100
9, 40800, Note_on_c, 7, 46, 102
9, 40807, Note_on_c, 7, 48, 0
9, 40855, Note_on_c, 7, 46, 0
9, 40860, Note_on_c, 7, 45, 95
9, 41052, Note_on_c, 7, 45, 0
9, 41100, Note_on_c, 7, 48, 97
9, 41158, Note_on_c, 7, 48, 0
9, 41160, Note_on_c, 7, 45, 100
9, 41217, Note_on_c, 7, 45, 0
9, 41220, Note_on_c, 7, 41, 102
9, 41410, Note_on_c, 7, 41, 0
9, 41430, Note_on_c, 7, 53, 100
9, 41447, Note_on_c, 7, 53, 0
9, 41460, Note_on_c, 7, 53, 97
9, 41487, Note_on_c, 7, 53, 0
9, 41490, Note_on_c, 7, 41, 97
9, 41507, Note_on_c, 7, 41, 0
9, 41520, Note_on_c, 7, 41, 100
9, 41542, Note_on_c, 7, 41, 0
9, 41550, Note_on_c, 7, 40, 95
9, 41568, Note_on_c, 7, 40, 0
9, 41580, Note_on_c, 7, 40, 97
9, 41638, Note_on_c, 7, 40, 0
9, 41640, Note_on_c, 7, 45, 97
9, 41698, Note_on_c, 7, 45, 0
9, 41700, Note_on_c, 7, 38, 97
9, 41751, Note_on_c, 7, 38, 0
9, 41760, Note_on_c, 7, 43, 102
9, 41815, Note_on_c, 7, 43, 0
9, 41820, Note_on_c, 7, 48, 93
9, 41870, Note_on_c, 7, 48, 0
9, 41880, Note_on_c, 7, 41, 100
9, 41993, Note_on_c, 7, 41, 0
9, 42000, Note_on_c, 7, 43, 102
9, 42060, Note_on_c, 7, 45, 102
9, 42062, Note_on_c, 7, 43, 0
9, 42117, Note_on_c, 7, 45, 0
9, 42120, Note_on_c, 7, 41, 108
9, 42176, Note_on_c, 7, 41, 0
9, 42180, Note_on_c, 7, 43, 117
9, 42300, Note_on_c, 7, 48, 105
9, 42308, Note_on_c, 7, 43, 0
9, 42352, Note_on_c, 7, 48, 0
9, 42660, Note_on_c, 7, 48, 95
9, 42736, Note_on_c, 7, 48, 0
9, 43020, Note_on_c, 7, 48, 82
9, 43087, Note_on_c, 7, 48, 0
9, 43380, Note_on_c, 7, 48, 100
9, 43460, Note_on_c, 7, 48, 0
9, 43560, Note_on_c, 7, 55, 100
9, 43601, Note_on_c, 7, 55, 0
9, 43740, Note_on_c, 7, 60, 93
9, 43796, Note_on_c, 7, 60, 0
9, 43980, Note_on_c, 7, 57, 100
9, 44024, Note_on_c, 7, 57, 0
9, 44040, Note_on_c, 7, 54, 100
9, 44089, Note_on_c, 7, 54, 0
9, 44100, Note_on_c, 7, 59, 100
9, 44163, Note_on_c, 7, 59, 0
9, 44340, Note_on_c, 7, 55, 100
9, 44384, Note_on_c, 7, 55, 0
9, 44400, Note_on_c, 7, 52, 100
9, 44448, Note_on_c, 7, 52, 0
9, 44460, Note_on_c, 7, 57, 102
9, 44528, Note_on_c, 7, 57, 0
9, 44700, Note_on_c, 7, 54, 102
9, 44749, Note_on_c, 7, 54, 0
9, 44760, Note_on_c, 7, 50, 95
9, 44807, Note_on_c, 7, 50, 0
9, 44820, Note_on_c, 7, 55, 102
9, 44871, Note_on_c, 7, 55, 0
9, 45000, Note_on_c, 7, 50, 95
9, 45052, Note_on_c, 7, 50, 0
9, 45180, Note_on_c, 7, 43, 86
9, 45230, Note_on_c, 7, 43, 0
9, 45540, Note_on_c, 7, 43, 97
9, 45585, Note_on_c, 7, 43, 0
9, 45900, Note_on_c, 7, 43, 86
9, 45949, Note_on_c, 7, 43, 0
9, 46260, Note_on_c, 7, 43, 88
9, 46319, Note_on_c, 7, 43, 0
9, 48840, Note_on_c, 7, 60, 97
9, 48891, Note_on_c, 7, 60, 0
9, 48900, Note_on_c, 7, 57, 97
9, 48952, Note_on_c, 7, 57, 0
9, 48960, Note_on_c, 7, 54, 100
9, 49014, Note_on_c, 7, 54, 0
9, 49020, Note_on_c, 7, 59, 100
9, 49068, Note_on_c, 7, 59, 0
9, 49080, Note_on_c, 7, 55, 97
9, 49134, Note_on_c, 7, 55, 0
9, 49140, Note_on_c, 7, 52, 102
9, 49195, Note_on_c, 7, 52, 0
9, 49200, Note_on_c, 7, 57, 100
9, 49250, Note_on_c, 7, 57, 0
9, 49260, Note_on_c, 7, 54, 100
9, 49320, Note_on_c, 7, 50, 95
9, 49321, Note_on_c, 7, 54, 0
9, 49371, Note_on_c, 7, 50, 0
9, 49380, Note_on_c, 7, 55, 102
9, 49427, Note_on_c, 7, 55, 0
9, 49440, Note_on_c, 7, 52, 102
9, 49493, Note_on_c, 7, 52, 0
9, 49500, Note_on_c, 7, 48, 97
9, 49629, Note_on_c, 7, 48, 0
9, 49740, Note_on_c, 7, 48, 95
9, 49795, Note_on_c, 7, 48, 0
9, 49800, Note_on_c, 7, 45, 95
9, 49859, Note_on_c, 7, 45, 0
9, 49860, Note_on_c, 7, 50, 102
9, 49966, Note_on_c, 7, 50, 0
9, 50100, Note_on_c, 7, 50, 102
9, 50151, Note_on_c, 7, 50, 0
9, 50160, Note_on_c, 7, 47, 97
9, 50220, Note_on_c, 7, 52, 111
9, 50222, Note_on_c, 7, 47, 0
9, 50298, Note_on_c, 7, 52, 0
9, 50460, Note_on_c, 7, 52, 105
9, 50515, Note_on_c, 7, 52, 0
9, 50520, Note_on_c, 7, 48, 97
9, 50575, Note_on_c, 7, 48, 0
9, 50580, Note_on_c, 7, 45, 102
9, 50722, Note_on_c, 7, 45, 0
9, 50820, Note_on_c, 7, 57, 105
9, 50870, Note_on_c, 7, 57, 0
9, 50880, Note_on_c, 7, 54, 108
9, 50933, Note_on_c, 7, 54, 0
9, 50940, Note_on_c, 7, 50, 111
9, 50998, Note_on_c, 7, 50, 0
9, 51180, Note_on_c, 7, 50, 105
9, 51227, Note_on_c, 7, 50, 0
9, 51240, Note_on_c, 7, 47, 105
9, 51297, Note_on_c, 7, 47, 0
9, 51300, Note_on_c, 7, 43, 105
9, 51366, Note_on_c, 7, 43, 0
9, 51540, Note_on_c, 7, 47, 102
9, 51594, Note_on_c, 7, 47, 0
9, 51600, Note_on_c, 7, 50, 97
9, 51659, Note_on_c, 7, 50, 0
9, 51660, Note_on_c, 7, 43, 97
9, 51714, Note_on_c, 7, 43, 0
9, 51900, Note_on_c, 7, 43, 102
9, 51955, Note_on_c, 7, 43, 0
9, 51960, Note_on_c, 7, 47, 100
9, 52018, Note_on_c, 7, 47, 0
9, 52020, Note_on_c, 7, 40, 97
9, 52087, Note_on_c, 7, 40, 0
9, 52260, Note_on_c, 7, 48, 102
9, 52316, Note_on_c, 7, 48, 0
9, 52320, Note_on_c, 7, 52, 100
9, 52372, Note_on_c, 7, 52, 0
9, 52380, Note_on_c, 7, 45, 97
9, 52436, Note_on_c, 7, 45, 0
9, 52500, Note_on_c, 7, 45, 105
9, 52550, Note_on_c, 7, 45, 0
9, 52560, Note_on_c, 7, 38, 97
9, 52609, Note_on_c, 7, 38, 0
9, 52680, Note_on_c, 7, 38, 97
9, 52731, Note_on_c, 7, 38, 0
9, 52740, Note_on_c, 7, 43, 105
9, 52790, Note_on_c, 7, 43, 0
9, 53580, Note_on_c, 7, 55, 73
9, 53609, Note_on_c, 7, 55, 0
9, 53760, Note_on_c, 7, 47, 82
9, 53819, Note_on_c, 7, 47, 0
9, 53820, Note_on_c, 7, 52, 90
9, 53909, Note_on_c, 7, 52, 0
9, 53940, Note_on_c, 7, 45, 95
9, 53999, Note_on_c, 7, 45, 0
9, 54000, Note_on_c, 7, 50, 88
9, 54089, Note_on_c, 7, 50, 0
9, 54120, Note_on_c, 7, 52, 80
9, 54179, Note_on_c, 7, 52, 0
9, 54180, Note_on_c, 7, 45, 88
9, 54269, Note_on_c, 7, 45, 0
9, 54300, Note_on_c, 7, 50, 97
9, 54359, Note_on_c, 7, 50, 0
9, 54360, Note_on_c, 7, 43, 102
9, 54419, Note_on_c, 7, 43, 0
9, 56700, Note_on_c, 7, 41, 84
9, 56879, Note_on_c, 7, 41, 0
9, 57420, Note_on_c, 7, 42, 86
9, 57539, Note_on_c, 7, 42, 0
9, 58140, Note_on_c, 7, 47, 80
9, 58229, Note_on_c, 7, 47, 0
9, 58320, Note_on_c, 7, 42, 80
9, 58409, Note_on_c, 7, 42, 0
9, 58500, Note_on_c, 7, 47, 97
9, 59309, Note_on_c, 7, 47, 0
9, 59340, Note_on_c, 7, 47, 77
9, 59399, Note_on_c, 7, 47, 0
9, 59400, Note_on_c, 7, 52, 86
9, 59459, Note_on_c, 7, 52, 0
9, 59520, Note_on_c, 7, 49, 97
9, 59579, Note_on_c, 7, 49, 0
9, 59580, Note_on_c, 7, 54, 95
9, 59639, Note_on_c, 7, 54, 0
9, 59700, Note_on_c, 7, 50, 82
9, 59759, Note_on_c, 7, 50, 0
9, 59760, Note_on_c, 7, 55, 82
9, 59849, Note_on_c, 7, 55, 0
9, 59880, Note_on_c, 7, 54, 77
9, 59939, Note_on_c, 7, 54, 0
9, 59940, Note_on_c, 7, 52, 86
9, 59999, Note_on_c, 7, 52, 0
9, 60000, Note_on_c, 7, 54, 95
9, 60059, Note_on_c, 7, 54, 0
9, 60060, Note_on_c, 7, 42, 69
9, 60119, Note_on_c, 7, 42, 0
9, 60120, Note_on_c, 7, 47, 82
9, 60179, Note_on_c, 7, 47, 0
9, 60180, Note_on_c, 7, 59, 77
9, 60239, Note_on_c, 7, 59, 0
9, 60240, Note_on_c, 7, 57, 86
9, 60299, Note_on_c, 7, 57, 0
9, 60300, Note_on_c, 7, 55, 80
9, 60539, Note_on_c, 7, 55, 0
9, 60540, Note_on_c, 7, 59, 84
9, 60599, Note_on_c, 7, 59, 0
9, 60600, Note_on_c, 7, 55, 80
9, 60659, Note_on_c, 7, 55, 0
9, 60660, Note_on_c, 7, 52, 90
9, 60869, Note_on_c, 7, 52, 0
9, 60870, Note_on_c, 7, 64, 80
9, 60899, Note_on_c, 7, 64, 0
9, 60900, Note_on_c, 7, 64, 93
9, 60929, Note_on_c, 7, 64, 0
9, 60930, Note_on_c, 7, 52, 86
9, 60959, Note_on_c, 7, 52, 0
9, 60960, Note_on_c, 7, 52, 95
9, 60989, Note_on_c, 7, 52, 0
9, 60990, Note_on_c, 7, 50, 97
9, 61019, Note_on_c, 7, 50, 0
9, 61020, Note_on_c, 7, 50, 100
9, 61079, Note_on_c, 7, 50, 0
9, 61080, Note_on_c, 7, 55, 93
9, 61139, Note_on_c, 7, 55, 0
9, 61140, Note_on_c, 7, 49, 102
9, 61199, Note_on_c, 7, 49, 0
9, 61200, Note_on_c, 7, 54, 105
9, 61259, Note_on_c, 7, 54, 0
9, 61260, Note_on_c, 7, 47, 100
9, 61319, Note_on_c, 7, 47, 0
9, 61320, Note_on_c, 7, 52, 108
9, 61439, Note_on_c, 7, 52, 0
9, 61440, Note_on_c, 7, 54, 102
9, 61499, Note_on_c, 7, 54, 0
9, 61500, Note_on_c, 7, 55, 97
9, 61559, Note_on_c, 7, 55, 0
9, 61560, Note_on_c, 7, 52, 100
9, 61619, Note_on_c, 7, 52, 0
9, 61620, Note_on_c, 7, 54, 100
9, 61679, Note_on_c, 7, 54, 0
9, 61680, Note_on_c, 7, 42, 82
9, 61739, Note_on_c, 7, 42, 0
9, 61740, Note_on_c, 7, 47, 86
9, 61770, Note_on_c, 7, 54, 102
9, 61799, Note_on_c, 7, 54, 0
9, 61799, Note_on_c, 7, 47, 0
9, 61800, Note_on_c, 7, 54, 100
9, 61829, Note_on_c, 7, 54, 0
9, 61830, Note_on_c, 7, 50, 93
9, 61859, Note_on_c, 7, 50, 0
9, 61860, Note_on_c, 7, 50, 97
9, 61889, Note_on_c, 7, 50, 0
9, 61890, Note_on_c, 7, 47, 95
9, 61919, Note_on_c, 7, 47, 0
9, 61920, Note_on_c, 7, 47, 97
9, 61949, Note_on_c, 7, 47, 0
9, 61950, Note_on_c, 7, 50, 97
9, 61979, Note_on_c, 7, 50, 0
9, 61980, Note_on_c, 7, 50, 100
9, 62009, Note_on_c, 7, 50, 0
9, 62010, Note_on_c, 7, 47, 97
9, 62039, Note_on_c, 7, 47, 0
9, 62040, Note_on_c, 7, 47, 97
9, 62069, Note_on_c, 7, 47, 0
9, 62070, Note_on_c, 7, 43, 97
9, 62099, Note_on_c, 7, 43, 0
9, 62100, Note_on_c, 7, 43, 100
9, 62159, Note_on_c, 7, 43, 0
9, 62280, Note_on_c, 7, 50, 88
9, 62339, Note_on_c, 7, 50, 0
9, 62460, Note_on_c, 7, 55, 88
9, 62519, Note_on_c, 7, 55, 0
9, 63180, Note_on_c, 7, 43, 80
9, 63264, Note_on_c, 7, 43, 0
9, 63360, Note_on_c, 7, 50, 77
9, 63439, Note_on_c, 7, 50, 0
9, 63540, Note_on_c, 7, 55, 80
9, 63612, Note_on_c, 7, 55, 0
9, 64500, Note_on_c, 7, 55, 82
9, 64550, Note_on_c, 7, 55, 0
9, 64560, Note_on_c, 7, 52, 82
9, 64614, Note_on_c, 7, 52, 0
9, 64620, Note_on_c, 7, 57, 80
9, 64703, Note_on_c, 7, 57, 0
9, 64860, Note_on_c, 7, 57, 82
9, 64905, Note_on_c, 7, 57, 0
9, 64920, Note_on_c, 7, 54, 95
9, 64965, Note_on_c, 7, 54, 0
9, 64980, Note_on_c, 7, 59, 88
9, 65045, Note_on_c, 7, 59, 0
9, 65220, Note_on_c, 7, 59, 80
9, 65269, Note_on_c, 7, 59, 0
9, 65280, Note_on_c, 7, 55, 84
9, 65325, Note_on_c, 7, 55, 0
9, 65340, Note_on_c, 7, 52, 80
9, 65412, Note_on_c, 7, 52, 0
9, 65580, Note_on_c, 7, 52, 80
9, 65625, Note_on_c, 7, 52, 0
9, 65640, Note_on_c, 7, 49, 97
9, 65694, Note_on_c, 7, 49, 0
9, 65700, Note_on_c, 7, 45, 90
9, 65756, Note_on_c, 7, 45, 0
9, 65760, Note_on_c, 7, 49, 93
9, 65801, Note_on_c, 7, 49, 0
9, 65820, Note_on_c, 7, 45, 95
9, 65869, Note_on_c, 7, 45, 0
9, 65880, Note_on_c, 7, 42, 86
9, 65932, Note_on_c, 7, 42, 0
9, 65940, Note_on_c, 7, 45, 82
9, 65985, Note_on_c, 7, 45, 0
9, 66000, Note_on_c, 7, 42, 86
9, 66043, Note_on_c, 7, 42, 0
9, 66060, Note_on_c, 7, 38, 86
9, 66125, Note_on_c, 7, 38, 0
9, 66240, Note_on_c, 7, 45, 82
9, 66299, Note_on_c, 7, 45, 0
9, 66420, Note_on_c, 7, 50, 82
9, 66487, Note_on_c, 7, 50, 0
9, 67140, Note_on_c, 7, 50, 80
9, 67235, Note_on_c, 7, 50, 0
9, 67320, Note_on_c, 7, 45, 73
9, 67410, Note_on_c, 7, 45, 0
9, 67500, Note_on_c, 7, 38, 58
9, 67605, Note_on_c, 7, 38, 0
9, 68790, Note_on_c, 7, 50, 65
9, 68801, Note_on_c, 7, 50, 0
9, 68820, Note_on_c, 7, 50, 82
9, 68838, Note_on_c, 7, 50, 0
9, 68850, Note_on_c, 7, 50, 82
9, 68862, Note_on_c, 7, 50, 0
9, 68880, Note_on_c, 7, 50, 88
9, 68896, Note_on_c, 7, 50, 0
9, 68910, Note_on_c, 7, 50, 88
9, 68938, Note_on_c, 7, 50, 0
9, 68940, Note_on_c, 7, 43, 93
9, 69025, Note_on_c, 7, 43, 0
9, 69510, Note_on_c, 7, 55, 84
9, 69521, Note_on_c, 7, 55, 0
9, 69540, Note_on_c, 7, 55, 88
9, 69554, Note_on_c, 7, 55, 0
9, 69570, Note_on_c, 7, 55, 93
9, 69586, Note_on_c, 7, 55, 0
9, 69600, Note_on_c, 7, 55, 102
9, 69616, Note_on_c, 7, 55, 0
9, 69630, Note_on_c, 7, 55, 100
9, 69646, Note_on_c, 7, 55, 0
9, 69660, Note_on_c, 7, 48, 102
9, 69717, Note_on_c, 7, 48, 0
9, 69720, Note_on_c, 7, 60, 97
9, 69780, Note_on_c, 7, 57, 93
9, 69788, Note_on_c, 7, 60, 0
9, 69840, Note_on_c, 7, 57, 0
9, 69840, Note_on_c, 7, 54, 77
9, 69895, Note_on_c, 7, 54, 0
9, 69900, Note_on_c, 7, 59, 97
9, 69960, Note_on_c, 7, 55, 95
9, 69965, Note_on_c, 7, 59, 0
9, 70020, Note_on_c, 7, 52, 100
9, 70021, Note_on_c, 7, 55, 0
9, 70072, Note_on_c, 7, 52, 0
9, 70080, Note_on_c, 7, 57, 84
9, 70134, Note_on_c, 7, 57, 0
9, 70140, Note_on_c, 7, 54, 84
9, 70200, Note_on_c, 7, 50, 86
9, 70205, Note_on_c, 7, 54, 0
9, 70260, Note_on_c, 7, 55, 93
9, 70267, Note_on_c, 7, 50, 0
9, 70320, Note_on_c, 7, 52, 86
9, 70332, Note_on_c, 7, 55, 0
9, 70380, Note_on_c, 7, 48, 86
9, 70381, Note_on_c, 7, 52, 0
9, 70445, Note_on_c, 7, 48, 0
9, 70620, Note_on_c, 7, 48, 100
9, 70680, Note_on_c, 7, 48, 0
9, 70680, Note_on_c, 7, 45, 82
9, 70740, Note_on_c, 7, 45, 0
9, 70740, Note_on_c, 7, 50, 97
9, 70815, Note_on_c, 7, 50, 0
9, 70980, Note_on_c, 7, 50, 95
9, 71036, Note_on_c, 7, 50, 0
9, 71040, Note_on_c, 7, 47, 80
9, 71100, Note_on_c, 7, 52, 97
9, 71101, Note_on_c, 7, 47, 0
9, 71170, Note_on_c, 7, 52, 0
9, 71340, Note_on_c, 7, 52, 95
9, 71400, Note_on_c, 7, 52, 0
9, 71400, Note_on_c, 7, 48, 82
9, 71455, Note_on_c, 7, 48, 0
9, 71460, Note_on_c, 7, 45, 100
9, 71624, Note_on_c, 7, 45, 0
9, 71700, Note_on_c, 7, 57, 97
9, 71748, Note_on_c, 7, 57, 0
9, 71760, Note_on_c, 7, 54, 95
9, 71805, Note_on_c, 7, 54, 0
9, 71820, Note_on_c, 7, 50, 100
9, 71953, Note_on_c, 7, 50, 0
9, 72060, Note_on_c, 7, 50, 100
9, 72111, Note_on_c, 7, 50, 0
9, 72120, Note_on_c, 7, 47, 95
9, 72167, Note_on_c, 7, 47, 0
9, 72180, Note_on_c, 7, 43, 93
9, 72255, Note_on_c, 7, 43, 0
9, 72360, Note_on_c, 7, 50, 84
9, 72441, Note_on_c, 7, 50, 0
9, 72540, Note_on_c, 7, 55, 90
9, 72610, Note_on_c, 7, 55, 0
9, 73260, Note_on_c, 7, 55, 84
9, 73343, Note_on_c, 7, 55, 0
9, 73440, Note_on_c, 7, 50, 88
9, 73524, Note_on_c, 7, 50, 0
9, 73620, Note_on_c, 7, 43, 73
9, 73712, Note_on_c, 7, 43, 0
9, 74460, Note_on_c, 7, 43, 86
9, 74516, Note_on_c, 7, 43, 0
9, 74520, Note_on_c, 7, 48, 88
9, 74588, Note_on_c, 7, 48, 0
9, 74640, Note_on_c, 7, 45, 82
9, 74694, Note_on_c, 7, 45, 0
9, 74700, Note_on_c, 7, 50, 82
9, 74763, Note_on_c, 7, 50, 0
9, 74820, Note_on_c, 7, 47, 82
9, 74872, Note_on_c, 7, 47, 0
9, 74880, Note_on_c, 7, 52, 80
9, 74943, Note_on_c, 7, 52, 0
9, 75000, Note_on_c, 7, 50, 86
9, 75057, Note_on_c, 7, 50, 0
9, 75060, Note_on_c, 7, 48, 80
9, 75118, Note_on_c, 7, 48, 0
9, 75120, Note_on_c, 7, 50, 59
9, 75179, Note_on_c, 7, 50, 0
9, 75180, Note_on_c, 7, 38, 86
9, 75240, Note_on_c, 7, 43, 95
9, 75246, Note_on_c, 7, 38, 0
9, 75296, Note_on_c, 7, 43, 0
9, 75300, Note_on_c, 7, 55, 86
9, 75360, Note_on_c, 7, 53, 105
9, 75362, Note_on_c, 7, 55, 0
9, 75416, Note_on_c, 7, 53, 0
9, 75420, Note_on_c, 7, 52, 100
9, 75643, Note_on_c, 7, 52, 0
9, 75660, Note_on_c, 7, 55, 102
9, 75706, Note_on_c, 7, 55, 0
9, 75720, Note_on_c, 7, 52, 97
9, 75772, Note_on_c, 7, 52, 0
9, 75780, Note_on_c, 7, 48, 90
9, 75967, Note_on_c, 7, 48, 0
9, 75990, Note_on_c, 7, 60, 108
9, 76008, Note_on_c, 7, 60, 0
9, 76020, Note_on_c, 7, 60, 102
9, 76047, Note_on_c, 7, 60, 0
9, 76050, Note_on_c, 7, 48, 108
9, 76068, Note_on_c, 7, 48, 0
9, 76080, Note_on_c, 7, 48, 100
9, 76101, Note_on_c, 7, 48, 0
9, 76110, Note_on_c, 7, 47, 100
9, 76123, Note_on_c, 7, 47, 0
9, 76140, Note_on_c, 7, 47, 100
9, 76200, Note_on_c, 7, 47, 0
9, 76200, Note_on_c, 7, 52, 100
9, 76254, Note_on_c, 7, 52, 0
9, 76260, Note_on_c, 7, 45, 88
9, 76320, Note_on_c, 7, 50, 97
9, 76323, Note_on_c, 7, 45, 0
9, 76376, Note_on_c, 7, 50, 0
9, 76380, Note_on_c, 7, 43, 97
9, 76438, Note_on_c, 7, 43, 0
9, 76440, Note_on_c, 7, 48, 97
9, 76560, Note_on_c, 7, 50, 108
9, 76561, Note_on_c, 7, 48, 0
9, 76620, Note_on_c, 7, 52, 95
9, 76626, Note_on_c, 7, 50, 0
9, 76680, Note_on_c, 7, 48, 114
9, 76685, Note_on_c, 7, 52, 0
9, 76740, Note_on_c, 7, 50, 100
9, 76749, Note_on_c, 7, 48, 0
9, 76800, Note_on_c, 7, 38, 88
9, 76808, Note_on_c, 7, 50, 0
9, 76860, Note_on_c, 7, 43, 102
9, 76865, Note_on_c, 7, 38, 0
9, 77040, Note_on_c, 7, 43, 0
9, 77040, End_track
10, 0, Start_track
10, 0, MIDI_port, 0
10, 0, Title_t, "Continuo"
10, 0, Program_c, 8, 6
10, 0, Control_c, 8, 7, 90
10, 0, Control_c, 8, 10, 76
10, 180, Note_on_c, 8, 55, 104
10, 180, Note_on_c, 8, 79, 104
10, 240, Note_on_c, 8, 79, 0
10, 240, Note_on_c, 8, 55, 0
10, 360, Note_on_c, 8, 50, 104
10, 360, Note_on_c, 8, 74, 104
10, 420, Note_on_c, 8, 74, 0
10, 420, Note_on_c, 8, 50, 0
10, 540, Note_on_c, 8, 43, 104
10, 540, Note_on_c, 8, 67, 104
10, 600, Note_on_c, 8, 67, 0
10, 600, Note_on_c, 8, 43, 0
10, 720, Note_on_c, 8, 55, 104
10, 720, Note_on_c, 8, 79, 104
10, 780, Note_on_c, 8, 79, 0
10, 780, Note_on_c, 8, 55, 0
10, 900, Note_on_c, 8, 50, 104
10, 900, Note_on_c, 8, 74, 104
10, 960, Note_on_c, 8, 74, 0
10, 960, Note_on_c, 8, 50, 0
10, 1080, Note_on_c, 8, 38, 104
10, 1080, Note_on_c, 8, 62, 104
10, 1140, Note_on_c, 8, 62, 0
10, 1140, Note_on_c, 8, 38, 0
10, 1260, Note_on_c, 8, 43, 104
10, 1260, Note_on_c, 8, 67, 104
10, 1320, Note_on_c, 8, 67, 0
10, 1320, Note_on_c, 8, 43, 0
10, 1440, Note_on_c, 8, 50, 104
10, 1440, Note_on_c, 8, 74, 104
10, 1500, Note_on_c, 8, 74, 0
10, 1500, Note_on_c, 8, 50, 0
10, 1620, Note_on_c, 8, 55, 104
10, 1620, Note_on_c, 8, 79, 104
10, 1680, Note_on_c, 8, 79, 0
10, 1680, Note_on_c, 8, 55, 0
10, 1800, Note_on_c, 8, 55, 104
10, 1800, Note_on_c, 8, 79, 104
10, 1860, Note_on_c, 8, 79, 0
10, 1860, Note_on_c, 8, 55, 0
10, 1980, Note_on_c, 8, 62, 104
10, 1980, Note_on_c, 8, 86, 104
10, 2040, Note_on_c, 8, 86, 0
10, 2040, Note_on_c, 8, 62, 0
10, 2160, Note_on_c, 8, 50, 104
10, 2160, Note_on_c, 8, 74, 104
10, 2220, Note_on_c, 8, 74, 0
10, 2220, Note_on_c, 8, 50, 0
10, 2340, Note_on_c, 8, 55, 104
10, 2340, Note_on_c, 8, 79, 104
10, 2400, Note_on_c, 8, 79, 0
10, 2400, Note_on_c, 8, 55, 0
10, 2400, Note_on_c, 8, 55, 104
10, 2400, Note_on_c, 8, 79, 104
10, 2460, Note_on_c, 8, 79, 0
10, 2460, Note_on_c, 8, 55, 0
10, 2460, Note_on_c, 8, 54, 104
10, 2460, Note_on_c, 8, 78, 104
10, 2520, Note_on_c, 8, 78, 0
10, 2520, Note_on_c, 8, 54, 0
10, 2520, Note_on_c, 8, 52, 104
10, 2520, Note_on_c, 8, 76, 104
10, 2580, Note_on_c, 8, 76, 0
10, 2580, Note_on_c, 8, 52, 0
10, 2580, Note_on_c, 8, 55, 104
10, 2580, Note_on_c, 8, 79, 104
10, 2640, Note_on_c, 8, 79, 0
10, 2640, Note_on_c, 8, 55, 0
10, 2640, Note_on_c, 8, 52, 104
10, 2640, Note_on_c, 8, 76, 104
10, 2700, Note_on_c, 8, 76, 0
10, 2700, Note_on_c, 8, 52, 0
10, 2700, Note_on_c, 8, 45, 104
10, 2700, Note_on_c, 8, 69, 104
10, 2760, Note_on_c, 8, 69, 0
10, 2760, Note_on_c, 8, 45, 0
10, 2760, Note_on_c, 8, 57, 104
10, 2760, Note_on_c, 8, 81, 104
10, 2820, Note_on_c, 8, 81, 0
10, 2820, Note_on_c, 8, 57, 0
10, 2820, Note_on_c, 8, 55, 104
10, 2820, Note_on_c, 8, 79, 104
10, 2880, Note_on_c, 8, 79, 0
10, 2880, Note_on_c, 8, 55, 0
10, 2880, Note_on_c, 8, 54, 104
10, 2880, Note_on_c, 8, 78, 104
10, 2940, Note_on_c, 8, 78, 0
10, 2940, Note_on_c, 8, 54, 0
10, 2940, Note_on_c, 8, 57, 104
10, 2940, Note_on_c, 8, 81, 104
10, 3000, Note_on_c, 8, 81, 0
10, 3000, Note_on_c, 8, 57, 0
10, 3000, Note_on_c, 8, 54, 104
10, 3000, Note_on_c, 8, 78, 104
10, 3060, Note_on_c, 8, 78, 0
10, 3060, Note_on_c, 8, 54, 0
10, 3060, Note_on_c, 8, 47, 104
10, 3060, Note_on_c, 8, 71, 104
10, 3120, Note_on_c, 8, 71, 0
10, 3120, Note_on_c, 8, 47, 0
10, 3120, Note_on_c, 8, 59, 104
10, 3120, Note_on_c, 8, 83, 104
10, 3180, Note_on_c, 8, 83, 0
10, 3180, Note_on_c, 8, 59, 0
10, 3180, Note_on_c, 8, 57, 104
10, 3180, Note_on_c, 8, 81, 104
10, 3240, Note_on_c, 8, 81, 0
10, 3240, Note_on_c, 8, 57, 0
10, 3240, Note_on_c, 8, 55, 104
10, 3240, Note_on_c, 8, 79, 104
10, 3300, Note_on_c, 8, 79, 0
10, 3300, Note_on_c, 8, 55, 0
10, 3300, Note_on_c, 8, 59, 104
10, 3300, Note_on_c, 8, 83, 104
10, 3360, Note_on_c, 8, 83, 0
10, 3360, Note_on_c, 8, 59, 0
10, 3360, Note_on_c, 8, 55, 104
10, 3360, Note_on_c, 8, 79, 104
10, 3420, Note_on_c, 8, 79, 0
10, 3420, Note_on_c, 8, 55, 0
10, 3420, Note_on_c, 8, 52, 104
10, 3420, Note_on_c, 8, 76, 104
10, 3480, Note_on_c, 8, 76, 0
10, 3480, Note_on_c, 8, 52, 0
10, 3480, Note_on_c, 8, 64, 104
10, 3480, Note_on_c, 8, 88, 104
10, 3540, Note_on_c, 8, 88, 0
10, 3540, Note_on_c, 8, 64, 0
10, 3540, Note_on_c, 8, 62, 104
10, 3540, Note_on_c, 8, 86, 104
10, 3600, Note_on_c, 8, 86, 0
10, 3600, Note_on_c, 8, 62, 0
10, 3600, Note_on_c, 8, 61, 104
10, 3600, Note_on_c, 8, 85, 104
10, 3630, Note_on_c, 8, 85, 0
10, 3630, Note_on_c, 8, 61, 0
10, 3630, Note_on_c, 8, 64, 104
10, 3630, Note_on_c, 8, 88, 104
10, 3660, Note_on_c, 8, 88, 0
10, 3660, Note_on_c, 8, 64, 0
10, 3660, Note_on_c, 8, 64, 104
10, 3660, Note_on_c, 8, 88, 104
10, 3690, Note_on_c, 8, 88, 0
10, 3690, Note_on_c, 8, 64, 0
10, 3690, Note_on_c, 8, 61, 104
10, 3690, Note_on_c, 8, 85, 104
10, 3720, Note_on_c, 8, 85, 0
10, 3720, Note_on_c, 8, 61, 0
10, 3720, Note_on_c, 8, 61, 104
10, 3720, Note_on_c, 8, 85, 104
10, 3750, Note_on_c, 8, 85, 0
10, 3750, Note_on_c, 8, 61, 0
10, 3750, Note_on_c, 8, 57, 104
10, 3750, Note_on_c, 8, 81, 104
10, 3780, Note_on_c, 8, 81, 0
10, 3780, Note_on_c, 8, 57, 0
10, 3780, Note_on_c, 8, 57, 104
10, 3780, Note_on_c, 8, 81, 104
10, 3810, Note_on_c, 8, 81, 0
10, 3810, Note_on_c, 8, 57, 0
10, 3810, Note_on_c, 8, 61, 104
10, 3810, Note_on_c, 8, 85, 104
10, 3840, Note_on_c, 8, 85, 0
10, 3840, Note_on_c, 8, 61, 0
10, 3840, Note_on_c, 8, 61, 104
10, 3840, Note_on_c, 8, 85, 104
10, 3870, Note_on_c, 8, 85, 0
10, 3870, Note_on_c, 8, 61, 0
10, 3870, Note_on_c, 8, 57, 104
10, 3870, Note_on_c, 8, 81, 104
10, 3900, Note_on_c, 8, 81, 0
10, 3900, Note_on_c, 8, 57, 0
10, 3900, Note_on_c, 8, 57, 104
10, 3900, Note_on_c, 8, 81, 104
10, 3930, Note_on_c, 8, 81, 0
10, 3930, Note_on_c, 8, 57, 0
10, 3930, Note_on_c, 8, 54, 104
10, 3930, Note_on_c, 8, 78, 104
10, 3960, Note_on_c, 8, 78, 0
10, 3960, Note_on_c, 8, 54, 0
10, 3960, Note_on_c, 8, 54, 104
10, 3960, Note_on_c, 8, 78, 104
10, 3990, Note_on_c, 8, 78, 0
10, 3990, Note_on_c, 8, 54, 0
10, 3990, Note_on_c, 8, 57, 104
10, 3990, Note_on_c, 8, 81, 104
10, 4020, Note_on_c, 8, 81, 0
10, 4020, Note_on_c, 8, 57, 0
10, 4020, Note_on_c, 8, 57, 104
10, 4020, Note_on_c, 8, 81, 104
10, 4050, Note_on_c, 8, 81, 0
10, 4050, Note_on_c, 8, 57, 0
10, 4050, Note_on_c, 8, 54, 104
10, 4050, Note_on_c, 8, 78, 104
10, 4080, Note_on_c, 8, 78, 0
10, 4080, Note_on_c, 8, 54, 0
10, 4080, Note_on_c, 8, 54, 104
10, 4080, Note_on_c, 8, 78, 104
10, 4110, Note_on_c, 8, 78, 0
10, 4110, Note_on_c, 8, 54, 0
10, 4110, Note_on_c, 8, 50, 104
10, 4110, Note_on_c, 8, 74, 104
10, 4140, Note_on_c, 8, 74, 0
10, 4140, Note_on_c, 8, 50, 0
10, 4140, Note_on_c, 8, 50, 104
10, 4140, Note_on_c, 8, 74, 104
10, 4200, Note_on_c, 8, 74, 0
10, 4200, Note_on_c, 8, 50, 0
10, 4320, Note_on_c, 8, 45, 104
10, 4320, Note_on_c, 8, 69, 104
10, 4380, Note_on_c, 8, 69, 0
10, 4380, Note_on_c, 8, 45, 0
10, 4500, Note_on_c, 8, 38, 104
10, 4500, Note_on_c, 8, 62, 104
10, 4560, Note_on_c, 8, 62, 0
10, 4560, Note_on_c, 8, 38, 0
10, 4680, Note_on_c, 8, 50, 104
10, 4680, Note_on_c, 8, 74, 104
10, 4740, Note_on_c, 8, 74, 0
10, 4740, Note_on_c, 8, 50, 0
10, 4860, Note_on_c, 8, 45, 104
10, 4860, Note_on_c, 8, 69, 104
10, 4920, Note_on_c, 8, 69, 0
10, 4920, Note_on_c, 8, 45, 0
10, 5040, Note_on_c, 8, 57, 104
10, 5040, Note_on_c, 8, 81, 104
10, 5100, Note_on_c, 8, 81, 0
10, 5100, Note_on_c, 8, 57, 0
10, 5220, Note_on_c, 8, 50, 104
10, 5220, Note_on_c, 8, 74, 104
10, 5280, Note_on_c, 8, 74, 0
10, 5280, Note_on_c, 8, 50, 0
10, 5400, Note_on_c, 8, 57, 104
10, 5400, Note_on_c, 8, 81, 104
10, 5460, Note_on_c, 8, 81, 0
10, 5460, Note_on_c, 8, 57, 0
10, 5580, Note_on_c, 8, 62, 104
10, 5580, Note_on_c, 8, 86, 104
10, 5640, Note_on_c, 8, 86, 0
10, 5640, Note_on_c, 8, 62, 0
10, 5760, Note_on_c, 8, 50, 104
10, 5760, Note_on_c, 8, 74, 104
10, 5820, Note_on_c, 8, 74, 0
10, 5820, Note_on_c, 8, 50, 0
10, 5940, Note_on_c, 8, 57, 104
10, 5940, Note_on_c, 8, 81, 104
10, 6000, Note_on_c, 8, 81, 0
10, 6000, Note_on_c, 8, 57, 0
10, 6120, Note_on_c, 8, 69, 104
10, 6120, Note_on_c, 8, 93, 104
10, 6180, Note_on_c, 8, 93, 0
10, 6180, Note_on_c, 8, 69, 0
10, 6300, Note_on_c, 8, 62, 104
10, 6300, Note_on_c, 8, 86, 104
10, 6330, Note_on_c, 8, 86, 0
10, 6330, Note_on_c, 8, 62, 0
10, 6330, Note_on_c, 8, 62, 104
10, 6330, Note_on_c, 8, 86, 104
10, 6360, Note_on_c, 8, 86, 0
10, 6360, Note_on_c, 8, 62, 0
10, 6360, Note_on_c, 8, 62, 104
10, 6360, Note_on_c, 8, 86, 104
10, 6390, Note_on_c, 8, 86, 0
10, 6390, Note_on_c, 8, 62, 0
10, 6390, Note_on_c, 8, 57, 104
10, 6390, Note_on_c, 8, 81, 104
10, 6420, Note_on_c, 8, 81, 0
10, 6420, Note_on_c, 8, 57, 0
10, 6420, Note_on_c, 8, 57, 104
10, 6420, Note_on_c, 8, 81, 104
10, 6450, Note_on_c, 8, 81, 0
10, 6450, Note_on_c, 8, 57, 0
10, 6450, Note_on_c, 8, 54, 104
10, 6450, Note_on_c, 8, 78, 104
10, 6480, Note_on_c, 8, 78, 0
10, 6480, Note_on_c, 8, 54, 0
10, 6480, Note_on_c, 8, 54, 104
10, 6480, Note_on_c, 8, 78, 104
10, 6510, Note_on_c, 8, 78, 0
10, 6510, Note_on_c, 8, 54, 0
10, 6510, Note_on_c, 8, 57, 104
10, 6510, Note_on_c, 8, 81, 104
10, 6540, Note_on_c, 8, 81, 0
10, 6540, Note_on_c, 8, 57, 0
10, 6540, Note_on_c, 8, 57, 104
10, 6540, Note_on_c, 8, 81, 104
10, 6570, Note_on_c, 8, 81, 0
10, 6570, Note_on_c, 8, 57, 0
10, 6570, Note_on_c, 8, 54, 104
10, 6570, Note_on_c, 8, 78, 104
10, 6600, Note_on_c, 8, 78, 0
10, 6600, Note_on_c, 8, 54, 0
10, 6600, Note_on_c, 8, 54, 104
10, 6600, Note_on_c, 8, 78, 104
10, 6630, Note_on_c, 8, 78, 0
10, 6630, Note_on_c, 8, 54, 0
10, 6630, Note_on_c, 8, 50, 104
10, 6630, Note_on_c, 8, 74, 104
10, 6660, Note_on_c, 8, 74, 0
10, 6660, Note_on_c, 8, 50, 0
10, 6660, Note_on_c, 8, 50, 104
10, 6660, Note_on_c, 8, 74, 104
10, 6720, Note_on_c, 8, 74, 0
10, 6720, Note_on_c, 8, 50, 0
10, 6870, Note_on_c, 8, 50, 104
10, 6870, Note_on_c, 8, 74, 104
10, 6900, Note_on_c, 8, 74, 0
10, 6900, Note_on_c, 8, 50, 0
10, 6900, Note_on_c, 8, 50, 104
10, 6900, Note_on_c, 8, 74, 104
10, 6930, Note_on_c, 8, 74, 0
10, 6930, Note_on_c, 8, 50, 0
10, 6930, Note_on_c, 8, 50, 104
10, 6930, Note_on_c, 8, 74, 104
10, 6960, Note_on_c, 8, 74, 0
10, 6960, Note_on_c, 8, 50, 0
10, 6960, Note_on_c, 8, 50, 104
10, 6960, Note_on_c, 8, 74, 104
10, 6990, Note_on_c, 8, 74, 0
10, 6990, Note_on_c, 8, 50, 0
10, 6990, Note_on_c, 8, 50, 104
10, 6990, Note_on_c, 8, 74, 104
10, 7020, Note_on_c, 8, 74, 0
10, 7020, Note_on_c, 8, 50, 0
10, 7020, Note_on_c, 8, 43, 104
10, 7020, Note_on_c, 8, 67, 104
10, 7050, Note_on_c, 8, 67, 0
10, 7050, Note_on_c, 8, 43, 0
10, 7050, Note_on_c, 8, 67, 104
10, 7050, Note_on_c, 8, 91, 104
10, 7080, Note_on_c, 8, 91, 0
10, 7080, Note_on_c, 8, 67, 0
10, 7080, Note_on_c, 8, 67, 104
10, 7080, Note_on_c, 8, 91, 104
10, 7110, Note_on_c, 8, 91, 0
10, 7110, Note_on_c, 8, 67, 0
10, 7110, Note_on_c, 8, 62, 104
10, 7110, Note_on_c, 8, 86, 104
10, 7140, Note_on_c, 8, 86, 0
10, 7140, Note_on_c, 8, 62, 0
10, 7140, Note_on_c, 8, 62, 104
10, 7140, Note_on_c, 8, 86, 104
10, 7170, Note_on_c, 8, 86, 0
10, 7170, Note_on_c, 8, 62, 0
10, 7170, Note_on_c, 8, 59, 104
10, 7170, Note_on_c, 8, 83, 104
10, 7200, Note_on_c, 8, 83, 0
10, 7200, Note_on_c, 8, 59, 0
10, 7200, Note_on_c, 8, 59, 104
10, 7200, Note_on_c, 8, 83, 104
10, 7230, Note_on_c, 8, 83, 0
10, 7230, Note_on_c, 8, 59, 0
10, 7230, Note_on_c, 8, 62, 104
10, 7230, Note_on_c, 8, 86, 104
10, 7260, Note_on_c, 8, 86, 0
10, 7260, Note_on_c, 8, 62, 0
10, 7260, Note_on_c, 8, 62, 104
10, 7260, Note_on_c, 8, 86, 104
10, 7290, Note_on_c, 8, 86, 0
10, 7290, Note_on_c, 8, 62, 0
10, 7290, Note_on_c, 8, 59, 104
10, 7290, Note_on_c, 8, 83, 104
10, 7320, Note_on_c, 8, 83, 0
10, 7320, Note_on_c, 8, 59, 0
10, 7320, Note_on_c, 8, 59, 104
10, 7320, Note_on_c, 8, 83, 104
10, 7350, Note_on_c, 8, 83, 0
10, 7350, Note_on_c, 8, 59, 0
10, 7350, Note_on_c, 8, 55, 104
10, 7350, Note_on_c, 8, 79, 104
10, 7380, Note_on_c, 8, 79, 0
10, 7380, Note_on_c, 8, 55, 0
10, 7380, Note_on_c, 8, 55, 104
10, 7380, Note_on_c, 8, 79, 104
10, 7410, Note_on_c, 8, 79, 0
10, 7410, Note_on_c, 8, 55, 0
10, 7410, Note_on_c, 8, 50, 104
10, 7410, Note_on_c, 8, 74, 104
10, 7440, Note_on_c, 8, 74, 0
10, 7440, Note_on_c, 8, 50, 0
10, 7440, Note_on_c, 8, 50, 104
10, 7440, Note_on_c, 8, 74, 104
10, 7470, Note_on_c, 8, 74, 0
10, 7470, Note_on_c, 8, 50, 0
10, 7470, Note_on_c, 8, 47, 104
10, 7470, Note_on_c, 8, 71, 104
10, 7500, Note_on_c, 8, 71, 0
10, 7500, Note_on_c, 8, 47, 0
10, 7500, Note_on_c, 8, 47, 104
10, 7500, Note_on_c, 8, 71, 104
10, 7530, Note_on_c, 8, 71, 0
10, 7530, Note_on_c, 8, 47, 0
10, 7530, Note_on_c, 8, 43, 104
10, 7530, Note_on_c, 8, 67, 104
10, 7560, Note_on_c, 8, 67, 0
10, 7560, Note_on_c, 8, 43, 0
10, 7560, Note_on_c, 8, 43, 104
10, 7560, Note_on_c, 8, 67, 104
10, 7590, Note_on_c, 8, 67, 0
10, 7590, Note_on_c, 8, 43, 0
10, 7590, Note_on_c, 8, 55, 104
10, 7590, Note_on_c, 8, 79, 104
10, 7620, Note_on_c, 8, 79, 0
10, 7620, Note_on_c, 8, 55, 0
10, 7620, Note_on_c, 8, 55, 104
10, 7620, Note_on_c, 8, 79, 104
10, 7650, Note_on_c, 8, 79, 0
10, 7650, Note_on_c, 8, 55, 0
10, 7650, Note_on_c, 8, 55, 104
10, 7650, Note_on_c, 8, 79, 104
10, 7680, Note_on_c, 8, 79, 0
10, 7680, Note_on_c, 8, 55, 0
10, 7680, Note_on_c, 8, 55, 104
10, 7680, Note_on_c, 8, 79, 104
10, 7710, Note_on_c, 8, 79, 0
10, 7710, Note_on_c, 8, 55, 0
10, 7710, Note_on_c, 8, 55, 104
10, 7710, Note_on_c, 8, 79, 104
10, 7740, Note_on_c, 8, 79, 0
10, 7740, Note_on_c, 8, 55, 0
10, 7740, Note_on_c, 8, 48, 104
10, 7740, Note_on_c, 8, 72, 104
10, 7800, Note_on_c, 8, 72, 0
10, 7800, Note_on_c, 8, 48, 0
10, 7800, Note_on_c, 8, 60, 104
10, 7800, Note_on_c, 8, 84, 104
10, 7860, Note_on_c, 8, 84, 0
10, 7860, Note_on_c, 8, 60, 0
10, 7860, Note_on_c, 8, 57, 104
10, 7860, Note_on_c, 8, 81, 104
10, 7920, Note_on_c, 8, 81, 0
10, 7920, Note_on_c, 8, 57, 0
10, 7920, Note_on_c, 8, 54, 104
10, 7920, Note_on_c, 8, 78, 104
10, 7980, Note_on_c, 8, 78, 0
10, 7980, Note_on_c, 8, 54, 0
10, 7980, Note_on_c, 8, 59, 104
10, 7980, Note_on_c, 8, 83, 104
10, 8040, Note_on_c, 8, 83, 0
10, 8040, Note_on_c, 8, 59, 0
10, 8040, Note_on_c, 8, 55, 104
10, 8040, Note_on_c, 8, 79, 104
10, 8100, Note_on_c, 8, 79, 0
10, 8100, Note_on_c, 8, 55, 0
10, 8100, Note_on_c, 8, 52, 104
10, 8100, Note_on_c, 8, 76, 104
10, 8160, Note_on_c, 8, 76, 0
10, 8160, Note_on_c, 8, 52, 0
10, 8160, Note_on_c, 8, 57, 104
10, 8160, Note_on_c, 8, 81, 104
10, 8220, Note_on_c, 8, 81, 0
10, 8220, Note_on_c, 8, 57, 0
10, 8220, Note_on_c, 8, 54, 104
10, 8220, Note_on_c, 8, 78, 104
10, 8280, Note_on_c, 8, 78, 0
10, 8280, Note_on_c, 8, 54, 0
10, 8280, Note_on_c, 8, 50, 104
10, 8280, Note_on_c, 8, 74, 104
10, 8340, Note_on_c, 8, 74, 0
10, 8340, Note_on_c, 8, 50, 0
10, 8340, Note_on_c, 8, 55, 104
10, 8340, Note_on_c, 8, 79, 104
10, 8400, Note_on_c, 8, 79, 0
10, 8400, Note_on_c, 8, 55, 0
10, 8400, Note_on_c, 8, 52, 104
10, 8400, Note_on_c, 8, 76, 104
10, 8460, Note_on_c, 8, 76, 0
10, 8460, Note_on_c, 8, 52, 0
10, 8460, Note_on_c, 8, 48, 104
10, 8460, Note_on_c, 8, 72, 104
10, 8580, Note_on_c, 8, 72, 0
10, 8580, Note_on_c, 8, 48, 0
10, 8700, Note_on_c, 8, 48, 104
10, 8700, Note_on_c, 8, 72, 104
10, 8760, Note_on_c, 8, 72, 0
10, 8760, Note_on_c, 8, 48, 0
10, 8760, Note_on_c, 8, 45, 104
10, 8760, Note_on_c, 8, 69, 104
10, 8820, Note_on_c, 8, 69, 0
10, 8820, Note_on_c, 8, 45, 0
10, 8820, Note_on_c, 8, 50, 104
10, 8820, Note_on_c, 8, 74, 104
10, 8940, Note_on_c, 8, 74, 0
10, 8940, Note_on_c, 8, 50, 0
10, 9060, Note_on_c, 8, 50, 104
10, 9060, Note_on_c, 8, 74, 104
10, 9120, Note_on_c, 8, 74, 0
10, 9120, Note_on_c, 8, 50, 0
10, 9120, Note_on_c, 8, 47, 104
10, 9120, Note_on_c, 8, 71, 104
10, 9180, Note_on_c, 8, 71, 0
10, 9180, Note_on_c, 8, 47, 0
10, 9180, Note_on_c, 8, 52, 104
10, 9180, Note_on_c, 8, 76, 104
10, 9300, Note_on_c, 8, 76, 0
10, 9300, Note_on_c, 8, 52, 0
10, 9420, Note_on_c, 8, 52, 104
10, 9420, Note_on_c, 8, 76, 104
10, 9480, Note_on_c, 8, 76, 0
10, 9480, Note_on_c, 8, 52, 0
10, 9480, Note_on_c, 8, 48, 104
10, 9480, Note_on_c, 8, 72, 104
10, 9540, Note_on_c, 8, 72, 0
10, 9540, Note_on_c, 8, 48, 0
10, 9540, Note_on_c, 8, 45, 104
10, 9540, Note_on_c, 8, 69, 104
10, 9570, Note_on_c, 8, 69, 0
10, 9570, Note_on_c, 8, 45, 0
10, 9570, Note_on_c, 8, 60, 104
10, 9570, Note_on_c, 8, 84, 104
10, 9600, Note_on_c, 8, 84, 0
10, 9600, Note_on_c, 8, 60, 0
10, 9600, Note_on_c, 8, 60, 104
10, 9600, Note_on_c, 8, 84, 104
10, 9630, Note_on_c, 8, 84, 0
10, 9630, Note_on_c, 8, 60, 0
10, 9630, Note_on_c, 8, 57, 104
10, 9630, Note_on_c, 8, 81, 104
10, 9660, Note_on_c, 8, 81, 0
10, 9660, Note_on_c, 8, 57, 0
10, 9660, Note_on_c, 8, 57, 104
10, 9660, Note_on_c, 8, 81, 104
10, 9690, Note_on_c, 8, 81, 0
10, 9690, Note_on_c, 8, 57, 0
10, 9690, Note_on_c, 8, 54, 104
10, 9690, Note_on_c, 8, 78, 104
10, 9720, Note_on_c, 8, 78, 0
10, 9720, Note_on_c, 8, 54, 0
10, 9720, Note_on_c, 8, 54, 104
10, 9720, Note_on_c, 8, 78, 104
10, 9750, Note_on_c, 8, 78, 0
10, 9750, Note_on_c, 8, 54, 0
10, 9750, Note_on_c, 8, 57, 104
10, 9750, Note_on_c, 8, 81, 104
10, 9780, Note_on_c, 8, 81, 0
10, 9780, Note_on_c, 8, 57, 0
10, 9780, Note_on_c, 8, 57, 104
10, 9780, Note_on_c, 8, 81, 104
10, 9810, Note_on_c, 8, 81, 0
10, 9810, Note_on_c, 8, 57, 0
10, 9810, Note_on_c, 8, 54, 104
10, 9810, Note_on_c, 8, 78, 104
10, 9840, Note_on_c, 8, 78, 0
10, 9840, Note_on_c, 8, 54, 0
10, 9840, Note_on_c, 8, 54, 104
10, 9840, Note_on_c, 8, 78, 104
10, 9870, Note_on_c, 8, 78, 0
10, 9870, Note_on_c, 8, 54, 0
10, 9870, Note_on_c, 8, 50, 104
10, 9870, Note_on_c, 8, 74, 104
10, 9900, Note_on_c, 8, 74, 0
10, 9900, Note_on_c, 8, 50, 0
10, 9900, Note_on_c, 8, 50, 104
10, 9900, Note_on_c, 8, 74, 104
10, 9930, Note_on_c, 8, 74, 0
10, 9930, Note_on_c, 8, 50, 0
10, 9930, Note_on_c, 8, 54, 104
10, 9930, Note_on_c, 8, 78, 104
10, 9960, Note_on_c, 8, 78, 0
10, 9960, Note_on_c, 8, 54, 0
10, 9960, Note_on_c, 8, 54, 104
10, 9960, Note_on_c, 8, 78, 104
10, 9990, Note_on_c, 8, 78, 0
10, 9990, Note_on_c, 8, 54, 0
10, 9990, Note_on_c, 8, 50, 104
10, 9990, Note_on_c, 8, 74, 104
10, 10020, Note_on_c, 8, 74, 0
10, 10020, Note_on_c, 8, 50, 0
10, 10020, Note_on_c, 8, 50, 104
10, 10020, Note_on_c, 8, 74, 104
10, 10050, Note_on_c, 8, 74, 0
10, 10050, Note_on_c, 8, 50, 0
10, 10050, Note_on_c, 8, 47, 104
10, 10050, Note_on_c, 8, 71, 104
10, 10080, Note_on_c, 8, 71, 0
10, 10080, Note_on_c, 8, 47, 0
10, 10080, Note_on_c, 8, 47, 104
10, 10080, Note_on_c, 8, 71, 104
10, 10110, Note_on_c, 8, 71, 0
10, 10110, Note_on_c, 8, 47, 0
10, 10110, Note_on_c, 8, 50, 104
10, 10110, Note_on_c, 8, 74, 104
10, 10140, Note_on_c, 8, 74, 0
10, 10140, Note_on_c, 8, 50, 0
10, 10140, Note_on_c, 8, 50, 104
10, 10140, Note_on_c, 8, 74, 104
10, 10170, Note_on_c, 8, 74, 0
10, 10170, Note_on_c, 8, 50, 0
10, 10170, Note_on_c, 8, 47, 104
10, 10170, Note_on_c, 8, 71, 104
10, 10200, Note_on_c, 8, 71, 0
10, 10200, Note_on_c, 8, 47, 0
10, 10200, Note_on_c, 8, 47, 104
10, 10200, Note_on_c, 8, 71, 104
10, 10230, Note_on_c, 8, 71, 0
10, 10230, Note_on_c, 8, 47, 0
10, 10230, Note_on_c, 8, 43, 104
10, 10230, Note_on_c, 8, 67, 104
10, 10260, Note_on_c, 8, 67, 0
10, 10260, Note_on_c, 8, 43, 0
10, 10260, Note_on_c, 8, 43, 104
10, 10260, Note_on_c, 8, 67, 104
10, 10320, Note_on_c, 8, 67, 0
10, 10320, Note_on_c, 8, 43, 0
10, 10440, Note_on_c, 8, 50, 104
10, 10440, Note_on_c, 8, 74, 104
10, 10500, Note_on_c, 8, 74, 0
10, 10500, Note_on_c, 8, 50, 0
10, 10620, Note_on_c, 8, 55, 104
10, 10620, Note_on_c, 8, 79, 104
10, 10680, Note_on_c, 8, 79, 0
10, 10680, Note_on_c, 8, 55, 0
10, 10800, Note_on_c, 8, 43, 104
10, 10800, Note_on_c, 8, 67, 104
10, 10860, Note_on_c, 8, 67, 0
10, 10860, Note_on_c, 8, 43, 0
10, 10980, Note_on_c, 8, 38, 104
10, 10980, Note_on_c, 8, 62, 104
10, 11040, Note_on_c, 8, 62, 0
10, 11040, Note_on_c, 8, 38, 0
10, 11160, Note_on_c, 8, 50, 104
10, 11160, Note_on_c, 8, 74, 104
10, 11220, Note_on_c, 8, 74, 0
10, 11220, Note_on_c, 8, 50, 0
10, 11340, Note_on_c, 8, 55, 104
10, 11340, Note_on_c, 8, 79, 104
10, 11400, Note_on_c, 8, 79, 0
10, 11400, Note_on_c, 8, 55, 0
10, 11520, Note_on_c, 8, 50, 104
10, 11520, Note_on_c, 8, 74, 104
10, 11580, Note_on_c, 8, 74, 0
10, 11580, Note_on_c, 8, 50, 0
10, 11700, Note_on_c, 8, 43, 104
10, 11700, Note_on_c, 8, 67, 104
10, 11760, Note_on_c, 8, 67, 0
10, 11760, Note_on_c, 8, 43, 0
10, 11880, Note_on_c, 8, 55, 104
10, 11880, Note_on_c, 8, 79, 104
10, 11940, Note_on_c, 8, 79, 0
10, 11940, Note_on_c, 8, 55, 0
10, 12060, Note_on_c, 8, 62, 104
10, 12060, Note_on_c, 8, 86, 104
10, 12120, Note_on_c, 8, 86, 0
10, 12120, Note_on_c, 8, 62, 0
10, 12240, Note_on_c, 8, 50, 104
10, 12240, Note_on_c, 8, 74, 104
10, 12300, Note_on_c, 8, 74, 0
10, 12300, Note_on_c, 8, 50, 0
10, 12420, Note_on_c, 8, 55, 104
10, 12420, Note_on_c, 8, 79, 104
10, 12480, Note_on_c, 8, 79, 0
10, 12480, Note_on_c, 8, 55, 0
10, 12540, Note_on_c, 8, 43, 104
10, 12540, Note_on_c, 8, 67, 104
10, 12600, Note_on_c, 8, 67, 0
10, 12600, Note_on_c, 8, 43, 0
10, 12600, Note_on_c, 8, 48, 104
10, 12600, Note_on_c, 8, 72, 104
10, 12660, Note_on_c, 8, 72, 0
10, 12660, Note_on_c, 8, 48, 0
10, 12720, Note_on_c, 8, 45, 104
10, 12720, Note_on_c, 8, 69, 104
10, 12780, Note_on_c, 8, 69, 0
10, 12780, Note_on_c, 8, 45, 0
10, 12780, Note_on_c, 8, 50, 104
10, 12780, Note_on_c, 8, 74, 104
10, 12840, Note_on_c, 8, 74, 0
10, 12840, Note_on_c, 8, 50, 0
10, 12900, Note_on_c, 8, 47, 104
10, 12900, Note_on_c, 8, 71, 104
10, 12960, Note_on_c, 8, 71, 0
10, 12960, Note_on_c, 8, 47, 0
10, 12960, Note_on_c, 8, 52, 104
10, 12960, Note_on_c, 8, 76, 104
10, 13020, Note_on_c, 8, 76, 0
10, 13020, Note_on_c, 8, 52, 0
10, 13080, Note_on_c, 8, 50, 104
10, 13080, Note_on_c, 8, 74, 104
10, 13140, Note_on_c, 8, 74, 0
10, 13140, Note_on_c, 8, 50, 0
10, 13140, Note_on_c, 8, 48, 104
10, 13140, Note_on_c, 8, 72, 104
10, 13200, Note_on_c, 8, 72, 0
10, 13200, Note_on_c, 8, 48, 0
10, 13200, Note_on_c, 8, 50, 104
10, 13200, Note_on_c, 8, 74, 104
10, 13260, Note_on_c, 8, 74, 0
10, 13260, Note_on_c, 8, 50, 0
10, 13260, Note_on_c, 8, 38, 104
10, 13260, Note_on_c, 8, 62, 104
10, 13320, Note_on_c, 8, 62, 0
10, 13320, Note_on_c, 8, 38, 0
10, 13320, Note_on_c, 8, 43, 104
10, 13320, Note_on_c, 8, 67, 104
10, 13380, Note_on_c, 8, 67, 0
10, 13380, Note_on_c, 8, 43, 0
10, 13380, Note_on_c, 8, 55, 104
10, 13380, Note_on_c, 8, 79, 104
10, 13440, Note_on_c, 8, 79, 0
10, 13440, Note_on_c, 8, 55, 0
10, 13440, Note_on_c, 8, 53, 104
10, 13440, Note_on_c, 8, 77, 104
10, 13500, Note_on_c, 8, 77, 0
10, 13500, Note_on_c, 8, 53, 0
10, 13500, Note_on_c, 8, 52, 104
10, 13500, Note_on_c, 8, 76, 104
10, 13740, Note_on_c, 8, 76, 0
10, 13740, Note_on_c, 8, 52, 0
10, 13740, Note_on_c, 8, 55, 104
10, 13740, Note_on_c, 8, 79, 104
10, 13800, Note_on_c, 8, 79, 0
10, 13800, Note_on_c, 8, 55, 0
10, 13800, Note_on_c, 8, 52, 104
10, 13800, Note_on_c, 8, 76, 104
10, 13860, Note_on_c, 8, 76, 0
10, 13860, Note_on_c, 8, 52, 0
10, 13860, Note_on_c, 8, 48, 104
10, 13860, Note_on_c, 8, 72, 104
10, 14070, Note_on_c, 8, 72, 0
10, 14070, Note_on_c, 8, 48, 0
10, 14070, Note_on_c, 8, 60, 104
10, 14070, Note_on_c, 8, 84, 104
10, 14100, Note_on_c, 8, 84, 0
10, 14100, Note_on_c, 8, 60, 0
10, 14100, Note_on_c, 8, 60, 104
10, 14100, Note_on_c, 8, 84, 104
10, 14130, Note_on_c, 8, 84, 0
10, 14130, Note_on_c, 8, 60, 0
10, 14130, Note_on_c, 8, 48, 104
10, 14130, Note_on_c, 8, 72, 104
10, 14160, Note_on_c, 8, 72, 0
10, 14160, Note_on_c, 8, 48, 0
10, 14160, Note_on_c, 8, 48, 104
10, 14160, Note_on_c, 8, 72, 104
10, 14190, Note_on_c, 8, 72, 0
10, 14190, Note_on_c, 8, 48, 0
10, 14190, Note_on_c, 8, 47, 104
10, 14190, Note_on_c, 8, 71, 104
10, 14220, Note_on_c, 8, 71, 0
10, 14220, Note_on_c, 8, 47, 0
10, 14220, Note_on_c, 8, 47, 104
10, 14220, Note_on_c, 8, 71, 104
10, 14280, Note_on_c, 8, 71, 0
10, 14280, Note_on_c, 8, 47, 0
10, 14280, Note_on_c, 8, 52, 104
10, 14280, Note_on_c, 8, 76, 104
10, 14340, Note_on_c, 8, 76, 0
10, 14340, Note_on_c, 8, 52, 0
10, 14340, Note_on_c, 8, 45, 104
10, 14340, Note_on_c, 8, 69, 104
10, 14400, Note_on_c, 8, 69, 0
10, 14400, Note_on_c, 8, 45, 0
10, 14400, Note_on_c, 8, 50, 104
10, 14400, Note_on_c, 8, 74, 104
10, 14460, Note_on_c, 8, 74, 0
10, 14460, Note_on_c, 8, 50, 0
10, 14460, Note_on_c, 8, 43, 104
10, 14460, Note_on_c, 8, 67, 104
10, 14520, Note_on_c, 8, 67, 0
10, 14520, Note_on_c, 8, 43, 0
10, 14520, Note_on_c, 8, 48, 104
10, 14520, Note_on_c, 8, 72, 104
10, 14640, Note_on_c, 8, 72, 0
10, 14640, Note_on_c, 8, 48, 0
10, 14640, Note_on_c, 8, 50, 104
10, 14640, Note_on_c, 8, 74, 104
10, 14700, Note_on_c, 8, 74, 0
10, 14700, Note_on_c, 8, 50, 0
10, 14700, Note_on_c, 8, 52, 104
10, 14700, Note_on_c, 8, 76, 104
10, 14760, Note_on_c, 8, 76, 0
10, 14760, Note_on_c, 8, 52, 0
10, 14760, Note_on_c, 8, 48, 104
10, 14760, Note_on_c, 8, 72, 104
10, 14820, Note_on_c, 8, 72, 0
10, 14820, Note_on_c, 8, 48, 0
10, 14820, Note_on_c, 8, 50, 104
10, 14820, Note_on_c, 8, 74, 104
10, 14880, Note_on_c, 8, 74, 0
10, 14880, Note_on_c, 8, 50, 0
10, 14880, Note_on_c, 8, 38, 104
10, 14880, Note_on_c, 8, 62, 104
10, 14940, Note_on_c, 8, 62, 0
10, 14940, Note_on_c, 8, 38, 0
10, 14940, Note_on_c, 8, 43, 104
10, 14940, Note_on_c, 8, 67, 104
10, 15000, Note_on_c, 8, 67, 0
10, 15000, Note_on_c, 8, 43, 0
10, 15300, Note_on_c, 8, 43, 104
10, 15300, Note_on_c, 8, 67, 104
10, 15360, Note_on_c, 8, 67, 0
10, 15360, Note_on_c, 8, 43, 0
10, 15660, Note_on_c, 8, 43, 104
10, 15660, Note_on_c, 8, 67, 104
10, 15720, Note_on_c, 8, 67, 0
10, 15720, Note_on_c, 8, 43, 0
10, 16020, Note_on_c, 8, 55, 104
10, 16020, Note_on_c, 8, 79, 104
10, 16080, Note_on_c, 8, 79, 0
10, 16080, Note_on_c, 8, 55, 0
10, 16200, Note_on_c, 8, 50, 104
10, 16200, Note_on_c, 8, 74, 104
10, 16260, Note_on_c, 8, 74, 0
10, 16260, Note_on_c, 8, 50, 0
10, 16380, Note_on_c, 8, 43, 104
10, 16380, Note_on_c, 8, 67, 104
10, 16440, Note_on_c, 8, 67, 0
10, 16440, Note_on_c, 8, 43, 0
10, 16740, Note_on_c, 8, 43, 104
10, 16740, Note_on_c, 8, 67, 104
10, 16800, Note_on_c, 8, 67, 0
10, 16800, Note_on_c, 8, 43, 0
10, 17100, Note_on_c, 8, 43, 104
10, 17100, Note_on_c, 8, 67, 104
10, 17160, Note_on_c, 8, 67, 0
10, 17160, Note_on_c, 8, 43, 0
10, 17460, Note_on_c, 8, 43, 104
10, 17460, Note_on_c, 8, 67, 104
10, 17520, Note_on_c, 8, 67, 0
10, 17520, Note_on_c, 8, 43, 0
10, 17700, Note_on_c, 8, 52, 104
10, 17700, Note_on_c, 8, 76, 104
10, 17760, Note_on_c, 8, 76, 0
10, 17760, Note_on_c, 8, 52, 0
10, 17760, Note_on_c, 8, 48, 104
10, 17760, Note_on_c, 8, 72, 104
10, 17820, Note_on_c, 8, 72, 0
10, 17820, Note_on_c, 8, 48, 0
10, 17820, Note_on_c, 8, 42, 104
10, 17820, Note_on_c, 8, 66, 104
10, 17880, Note_on_c, 8, 66, 0
10, 17880, Note_on_c, 8, 42, 0
10, 18060, Note_on_c, 8, 50, 104
10, 18060, Note_on_c, 8, 74, 104
10, 18120, Note_on_c, 8, 74, 0
10, 18120, Note_on_c, 8, 50, 0
10, 18120, Note_on_c, 8, 47, 104
10, 18120, Note_on_c, 8, 71, 104
10, 18180, Note_on_c, 8, 71, 0
10, 18180, Note_on_c, 8, 47, 0
10, 18180, Note_on_c, 8, 40, 104
10, 18180, Note_on_c, 8, 64, 104
10, 18240, Note_on_c, 8, 64, 0
10, 18240, Note_on_c, 8, 40, 0
10, 18420, Note_on_c, 8, 49, 104
10, 18420, Note_on_c, 8, 73, 104
10, 18480, Note_on_c, 8, 73, 0
10, 18480, Note_on_c, 8, 49, 0
10, 18480, Note_on_c, 8, 45, 104
10, 18480, Note_on_c, 8, 69, 104
10, 18540, Note_on_c, 8, 69, 0
10, 18540, Note_on_c, 8, 45, 0
10, 18540, Note_on_c, 8, 50, 104
10, 18540, Note_on_c, 8, 74, 104
10, 18600, Note_on_c, 8, 74, 0
10, 18600, Note_on_c, 8, 50, 0
10, 18720, Note_on_c, 8, 45, 104
10, 18720, Note_on_c, 8, 69, 104
10, 18780, Note_on_c, 8, 69, 0
10, 18780, Note_on_c, 8, 45, 0
10, 18900, Note_on_c, 8, 38, 104
10, 18900, Note_on_c, 8, 62, 104
10, 18960, Note_on_c, 8, 62, 0
10, 18960, Note_on_c, 8, 38, 0
10, 19260, Note_on_c, 8, 38, 104
10, 19260, Note_on_c, 8, 62, 104
10, 19320, Note_on_c, 8, 62, 0
10, 19320, Note_on_c, 8, 38, 0
10, 19620, Note_on_c, 8, 38, 104
10, 19620, Note_on_c, 8, 62, 104
10, 19680, Note_on_c, 8, 62, 0
10, 19680, Note_on_c, 8, 38, 0
10, 19980, Note_on_c, 8, 38, 104
10, 19980, Note_on_c, 8, 62, 104
10, 20040, Note_on_c, 8, 62, 0
10, 20040, Note_on_c, 8, 38, 0
10, 20160, Note_on_c, 8, 45, 104
10, 20160, Note_on_c, 8, 69, 104
10, 20220, Note_on_c, 8, 69, 0
10, 20220, Note_on_c, 8, 45, 0
10, 20340, Note_on_c, 8, 50, 104
10, 20340, Note_on_c, 8, 74, 104
10, 20400, Note_on_c, 8, 74, 0
10, 20400, Note_on_c, 8, 50, 0
10, 20700, Note_on_c, 8, 50, 104
10, 20700, Note_on_c, 8, 74, 104
10, 20760, Note_on_c, 8, 74, 0
10, 20760, Note_on_c, 8, 50, 0
10, 21060, Note_on_c, 8, 50, 104
10, 21060, Note_on_c, 8, 74, 104
10, 21120, Note_on_c, 8, 74, 0
10, 21120, Note_on_c, 8, 50, 0
10, 21420, Note_on_c, 8, 50, 104
10, 21420, Note_on_c, 8, 74, 104
10, 21480, Note_on_c, 8, 74, 0
10, 21480, Note_on_c, 8, 50, 0
10, 21660, Note_on_c, 8, 59, 104
10, 21660, Note_on_c, 8, 83, 104
10, 21720, Note_on_c, 8, 83, 0
10, 21720, Note_on_c, 8, 59, 0
10, 21720, Note_on_c, 8, 55, 104
10, 21720, Note_on_c, 8, 79, 104
10, 21780, Note_on_c, 8, 79, 0
10, 21780, Note_on_c, 8, 55, 0
10, 21780, Note_on_c, 8, 49, 104
10, 21780, Note_on_c, 8, 73, 104
10, 21840, Note_on_c, 8, 73, 0
10, 21840, Note_on_c, 8, 49, 0
10, 22020, Note_on_c, 8, 57, 104
10, 22020, Note_on_c, 8, 81, 104
10, 22080, Note_on_c, 8, 81, 0
10, 22080, Note_on_c, 8, 57, 0
10, 22080, Note_on_c, 8, 54, 104
10, 22080, Note_on_c, 8, 78, 104
10, 22140, Note_on_c, 8, 78, 0
10, 22140, Note_on_c, 8, 54, 0
10, 22140, Note_on_c, 8, 47, 104
10, 22140, Note_on_c, 8, 71, 104
10, 22200, Note_on_c, 8, 71, 0
10, 22200, Note_on_c, 8, 47, 0
10, 22380, Note_on_c, 8, 56, 104
10, 22380, Note_on_c, 8, 80, 104
10, 22440, Note_on_c, 8, 80, 0
10, 22440, Note_on_c, 8, 56, 0
10, 22440, Note_on_c, 8, 52, 104
10, 22440, Note_on_c, 8, 76, 104
10, 22500, Note_on_c, 8, 76, 0
10, 22500, Note_on_c, 8, 52, 0
10, 22500, Note_on_c, 8, 45, 104
10, 22500, Note_on_c, 8, 69, 104
10, 22560, Note_on_c, 8, 69, 0
10, 22560, Note_on_c, 8, 45, 0
10, 23220, Note_on_c, 8, 46, 104
10, 23220, Note_on_c, 8, 70, 104
10, 23280, Note_on_c, 8, 70, 0
10, 23280, Note_on_c, 8, 46, 0
10, 23940, Note_on_c, 8, 47, 104
10, 23940, Note_on_c, 8, 71, 104
10, 24000, Note_on_c, 8, 71, 0
10, 24000, Note_on_c, 8, 47, 0
10, 24660, Note_on_c, 8, 52, 104
10, 24660, Note_on_c, 8, 76, 104
10, 24720, Note_on_c, 8, 76, 0
10, 24720, Note_on_c, 8, 52, 0
10, 24840, Note_on_c, 8, 47, 104
10, 24840, Note_on_c, 8, 71, 104
10, 24900, Note_on_c, 8, 71, 0
10, 24900, Note_on_c, 8, 47, 0
10, 25020, Note_on_c, 8, 40, 104
10, 25020, Note_on_c, 8, 64, 104
10, 25080, Note_on_c, 8, 64, 0
10, 25080, Note_on_c, 8, 40, 0
10, 25200, Note_on_c, 8, 64, 104
10, 25200, Note_on_c, 8, 88, 104
10, 25260, Note_on_c, 8, 88, 0
10, 25260, Note_on_c, 8, 64, 0
10, 25380, Note_on_c, 8, 71, 104
10, 25380, Note_on_c, 8, 95, 104
10, 25440, Note_on_c, 8, 95, 0
10, 25440, Note_on_c, 8, 71, 0
10, 25560, Note_on_c, 8, 59, 104
10, 25560, Note_on_c, 8, 83, 104
10, 25620, Note_on_c, 8, 83, 0
10, 25620, Note_on_c, 8, 59, 0
10, 25740, Note_on_c, 8, 64, 104
10, 25740, Note_on_c, 8, 88, 104
10, 25800, Note_on_c, 8, 88, 0
10, 25800, Note_on_c, 8, 64, 0
10, 25860, Note_on_c, 8, 52, 104
10, 25860, Note_on_c, 8, 76, 104
10, 25920, Note_on_c, 8, 76, 0
10, 25920, Note_on_c, 8, 52, 0
10, 25920, Note_on_c, 8, 57, 104
10, 25920, Note_on_c, 8, 81, 104
10, 25980, Note_on_c, 8, 81, 0
10, 25980, Note_on_c, 8, 57, 0
10, 26040, Note_on_c, 8, 54, 104
10, 26040, Note_on_c, 8, 78, 104
10, 26100, Note_on_c, 8, 78, 0
10, 26100, Note_on_c, 8, 54, 0
10, 26100, Note_on_c, 8, 59, 104
10, 26100, Note_on_c, 8, 83, 104
10, 26160, Note_on_c, 8, 83, 0
10, 26160, Note_on_c, 8, 59, 0
10, 26220, Note_on_c, 8, 55, 104
10, 26220, Note_on_c, 8, 79, 104
10, 26280, Note_on_c, 8, 79, 0
10, 26280, Note_on_c, 8, 55, 0
10, 26280, Note_on_c, 8, 60, 104
10, 26280, Note_on_c, 8, 84, 104
10, 26340, Note_on_c, 8, 84, 0
10, 26340, Note_on_c, 8, 60, 0
10, 26400, Note_on_c, 8, 59, 104
10, 26400, Note_on_c, 8, 83, 104
10, 26460, Note_on_c, 8, 83, 0
10, 26460, Note_on_c, 8, 59, 0
10, 26460, Note_on_c, 8, 57, 104
10, 26460, Note_on_c, 8, 81, 104
10, 26520, Note_on_c, 8, 81, 0
10, 26520, Note_on_c, 8, 57, 0
10, 26520, Note_on_c, 8, 59, 104
10, 26520, Note_on_c, 8, 83, 104
10, 26580, Note_on_c, 8, 83, 0
10, 26580, Note_on_c, 8, 59, 0
10, 26580, Note_on_c, 8, 47, 104
10, 26580, Note_on_c, 8, 71, 104
10, 26640, Note_on_c, 8, 71, 0
10, 26640, Note_on_c, 8, 47, 0
10, 26640, Note_on_c, 8, 40, 104
10, 26640, Note_on_c, 8, 64, 104
10, 26700, Note_on_c, 8, 64, 0
10, 26700, Note_on_c, 8, 40, 0
10, 26700, Note_on_c, 8, 52, 104
10, 26700, Note_on_c, 8, 76, 104
10, 26760, Note_on_c, 8, 76, 0
10, 26760, Note_on_c, 8, 52, 0
10, 26760, Note_on_c, 8, 50, 104
10, 26760, Note_on_c, 8, 74, 104
10, 26820, Note_on_c, 8, 74, 0
10, 26820, Note_on_c, 8, 50, 0
10, 26820, Note_on_c, 8, 48, 104
10, 26820, Note_on_c, 8, 72, 104
10, 27060, Note_on_c, 8, 72, 0
10, 27060, Note_on_c, 8, 48, 0
10, 27060, Note_on_c, 8, 52, 104
10, 27060, Note_on_c, 8, 76, 104
10, 27120, Note_on_c, 8, 76, 0
10, 27120, Note_on_c, 8, 52, 0
10, 27120, Note_on_c, 8, 48, 104
10, 27120, Note_on_c, 8, 72, 104
10, 27180, Note_on_c, 8, 72, 0
10, 27180, Note_on_c, 8, 48, 0
10, 27180, Note_on_c, 8, 45, 104
10, 27180, Note_on_c, 8, 69, 104
10, 27390, Note_on_c, 8, 69, 0
10, 27390, Note_on_c, 8, 45, 0
10, 27390, Note_on_c, 8, 57, 104
10, 27390, Note_on_c, 8, 81, 104
10, 27420, Note_on_c, 8, 81, 0
10, 27420, Note_on_c, 8, 57, 0
10, 27420, Note_on_c, 8, 57, 104
10, 27420, Note_on_c, 8, 81, 104
10, 27450, Note_on_c, 8, 81, 0
10, 27450, Note_on_c, 8, 57, 0
10, 27450, Note_on_c, 8, 45, 104
10, 27450, Note_on_c, 8, 69, 104
10, 27480, Note_on_c, 8, 69, 0
10, 27480, Note_on_c, 8, 45, 0
10, 27480, Note_on_c, 8, 45, 104
10, 27480, Note_on_c, 8, 69, 104
10, 27510, Note_on_c, 8, 69, 0
10, 27510, Note_on_c, 8, 45, 0
10, 27510, Note_on_c, 8, 43, 104
10, 27510, Note_on_c, 8, 67, 104
10, 27540, Note_on_c, 8, 67, 0
10, 27540, Note_on_c, 8, 43, 0
10, 27540, Note_on_c, 8, 43, 104
10, 27540, Note_on_c, 8, 67, 104
10, 27600, Note_on_c, 8, 67, 0
10, 27600, Note_on_c, 8, 43, 0
10, 27600, Note_on_c, 8, 48, 104
10, 27600, Note_on_c, 8, 72, 104
10, 27660, Note_on_c, 8, 72, 0
10, 27660, Note_on_c, 8, 48, 0
10, 27660, Note_on_c, 8, 42, 104
10, 27660, Note_on_c, 8, 66, 104
10, 27720, Note_on_c, 8, 66, 0
10, 27720, Note_on_c, 8, 42, 0
10, 27720, Note_on_c, 8, 47, 104
10, 27720, Note_on_c, 8, 71, 104
10, 27780, Note_on_c, 8, 71, 0
10, 27780, Note_on_c, 8, 47, 0
10, 27780, Note_on_c, 8, 52, 104
10, 27780, Note_on_c, 8, 76, 104
10, 27840, Note_on_c, 8, 76, 0
10, 27840, Note_on_c, 8, 52, 0
10, 27840, Note_on_c, 8, 45, 104
10, 27840, Note_on_c, 8, 69, 104
10, 27900, Note_on_c, 8, 69, 0
10, 27900, Note_on_c, 8, 45, 0
10, 27900, Note_on_c, 8, 57, 104
10, 27900, Note_on_c, 8, 81, 104
10, 27960, Note_on_c, 8, 81, 0
10, 27960, Note_on_c, 8, 57, 0
10, 27960, Note_on_c, 8, 59, 104
10, 27960, Note_on_c, 8, 83, 104
10, 28020, Note_on_c, 8, 83, 0
10, 28020, Note_on_c, 8, 59, 0
10, 28020, Note_on_c, 8, 60, 104
10, 28020, Note_on_c, 8, 84, 104
10, 28080, Note_on_c, 8, 84, 0
10, 28080, Note_on_c, 8, 60, 0
10, 28080, Note_on_c, 8, 57, 104
10, 28080, Note_on_c, 8, 81, 104
10, 28140, Note_on_c, 8, 81, 0
10, 28140, Note_on_c, 8, 57, 0
10, 28140, Note_on_c, 8, 59, 104
10, 28140, Note_on_c, 8, 83, 104
10, 28200, Note_on_c, 8, 83, 0
10, 28200, Note_on_c, 8, 59, 0
10, 28200, Note_on_c, 8, 47, 104
10, 28200, Note_on_c, 8, 71, 104
10, 28260, Note_on_c, 8, 71, 0
10, 28260, Note_on_c, 8, 47, 0
10, 28260, Note_on_c, 8, 40, 104
10, 28260, Note_on_c, 8, 64, 104
10, 28320, Note_on_c, 8, 52, 127
10, 28320, Note_on_c, 8, 76, 127
10, 28380, Note_on_c, 8, 51, 127
10, 28380, Note_on_c, 8, 75, 127
10, 28385, Note_on_c, 8, 76, 0
10, 28385, Note_on_c, 8, 52, 0
10, 28440, Note_on_c, 8, 40, 0
10, 28440, Note_on_c, 8, 64, 0
10, 28440, Note_on_c, 8, 52, 127
10, 28440, Note_on_c, 8, 76, 127
10, 28441, Note_on_c, 8, 75, 0
10, 28441, Note_on_c, 8, 51, 0
10, 28500, Note_on_c, 8, 55, 127
10, 28500, Note_on_c, 8, 79, 127
10, 28505, Note_on_c, 8, 52, 0
10, 28505, Note_on_c, 8, 76, 0
10, 28560, Note_on_c, 8, 59, 127
10, 28560, Note_on_c, 8, 83, 127
10, 28561, Note_on_c, 8, 55, 0
10, 28561, Note_on_c, 8, 79, 0
10, 28620, Note_on_c, 8, 52, 127
10, 28620, Note_on_c, 8, 76, 127
10, 28621, Note_on_c, 8, 59, 0
10, 28621, Note_on_c, 8, 83, 0
10, 28676, Note_on_c, 8, 52, 0
10, 28676, Note_on_c, 8, 76, 0
10, 28680, Note_on_c, 8, 45, 127
10, 28680, Note_on_c, 8, 69, 127
10, 28740, Note_on_c, 8, 47, 127
10, 28740, Note_on_c, 8, 71, 127
10, 28744, Note_on_c, 8, 69, 0
10, 28744, Note_on_c, 8, 45, 0
10, 28800, Note_on_c, 8, 40, 122
10, 28800, Note_on_c, 8, 64, 122
10, 28805, Note_on_c, 8, 47, 0
10, 28805, Note_on_c, 8, 71, 0
10, 28860, Note_on_c, 8, 45, 127
10, 28860, Note_on_c, 8, 69, 127
10, 28865, Note_on_c, 8, 40, 0
10, 28865, Note_on_c, 8, 64, 0
10, 28920, Note_on_c, 8, 45, 0
10, 28920, Note_on_c, 8, 69, 0
10, 28920, Note_on_c, 8, 48, 127
10, 28920, Note_on_c, 8, 72, 127
10, 28980, Note_on_c, 8, 59, 127
10, 28980, Note_on_c, 8, 83, 127
10, 28983, Note_on_c, 8, 72, 0
10, 28983, Note_on_c, 8, 48, 0
10, 29010, Note_on_c, 8, 60, 127
10, 29010, Note_on_c, 8, 84, 127
10, 29016, Note_on_c, 8, 59, 0
10, 29016, Note_on_c, 8, 83, 0
10, 29040, Note_on_c, 8, 59, 127
10, 29040, Note_on_c, 8, 83, 127
10, 29050, Note_on_c, 8, 60, 0
10, 29050, Note_on_c, 8, 84, 0
10, 29070, Note_on_c, 8, 57, 127
10, 29070, Note_on_c, 8, 81, 127
10, 29080, Note_on_c, 8, 59, 0
10, 29080, Note_on_c, 8, 83, 0
10, 29100, Note_on_c, 8, 55, 127
10, 29100, Note_on_c, 8, 79, 127
10, 29101, Note_on_c, 8, 57, 0
10, 29101, Note_on_c, 8, 81, 0
10, 29130, Note_on_c, 8, 54, 127
10, 29130, Note_on_c, 8, 78, 127
10, 29137, Note_on_c, 8, 55, 0
10, 29137, Note_on_c, 8, 79, 0
10, 29160, Note_on_c, 8, 52, 127
10, 29160, Note_on_c, 8, 76, 127
10, 29163, Note_on_c, 8, 54, 0
10, 29163, Note_on_c, 8, 78, 0
10, 29214, Note_on_c, 8, 52, 0
10, 29214, Note_on_c, 8, 76, 0
10, 29220, Note_on_c, 8, 40, 127
10, 29220, Note_on_c, 8, 64, 127
10, 29279, Note_on_c, 8, 64, 0
10, 29279, Note_on_c, 8, 40, 0
10, 29280, Note_on_c, 8, 52, 125
10, 29280, Note_on_c, 8, 76, 125
10, 29336, Note_on_c, 8, 76, 0
10, 29336, Note_on_c, 8, 52, 0
10, 29340, Note_on_c, 8, 57, 127
10, 29340, Note_on_c, 8, 81, 127
10, 29370, Note_on_c, 8, 59, 127
10, 29370, Note_on_c, 8, 83, 127
10, 29378, Note_on_c, 8, 81, 0
10, 29378, Note_on_c, 8, 57, 0
10, 29400, Note_on_c, 8, 57, 127
10, 29400, Note_on_c, 8, 81, 127
10, 29406, Note_on_c, 8, 59, 0
10, 29406, Note_on_c, 8, 83, 0
10, 29430, Note_on_c, 8, 55, 127
10, 29430, Note_on_c, 8, 79, 127
10, 29443, Note_on_c, 8, 57, 0
10, 29443, Note_on_c, 8, 81, 0
10, 29460, Note_on_c, 8, 54, 127
10, 29460, Note_on_c, 8, 78, 127
10, 29467, Note_on_c, 8, 55, 0
10, 29467, Note_on_c, 8, 79, 0
10, 29489, Note_on_c, 8, 54, 0
10, 29489, Note_on_c, 8, 78, 0
10, 29490, Note_on_c, 8, 52, 125
10, 29490, Note_on_c, 8, 76, 125
10, 29515, Note_on_c, 8, 76, 0
10, 29515, Note_on_c, 8, 52, 0
10, 29520, Note_on_c, 8, 50, 127
10, 29520, Note_on_c, 8, 74, 127
10, 29580, Note_on_c, 8, 38, 127
10, 29580, Note_on_c, 8, 62, 127
10, 29585, Note_on_c, 8, 74, 0
10, 29585, Note_on_c, 8, 50, 0
10, 29640, Note_on_c, 8, 50, 127
10, 29640, Note_on_c, 8, 74, 127
10, 29642, Note_on_c, 8, 38, 0
10, 29642, Note_on_c, 8, 62, 0
10, 29700, Note_on_c, 8, 55, 127
10, 29700, Note_on_c, 8, 79, 127
10, 29707, Note_on_c, 8, 50, 0
10, 29707, Note_on_c, 8, 74, 0
10, 29730, Note_on_c, 8, 54, 127
10, 29730, Note_on_c, 8, 78, 127
10, 29739, Note_on_c, 8, 55, 0
10, 29739, Note_on_c, 8, 79, 0
10, 29760, Note_on_c, 8, 52, 127
10, 29760, Note_on_c, 8, 76, 127
10, 29774, Note_on_c, 8, 54, 0
10, 29774, Note_on_c, 8, 78, 0
10, 29790, Note_on_c, 8, 50, 127
10, 29790, Note_on_c, 8, 74, 127
10, 29796, Note_on_c, 8, 52, 0
10, 29796, Note_on_c, 8, 76, 0
10, 29820, Note_on_c, 8, 49, 127
10, 29820, Note_on_c, 8, 73, 127
10, 29826, Note_on_c, 8, 50, 0
10, 29826, Note_on_c, 8, 74, 0
10, 29847, Note_on_c, 8, 49, 0
10, 29847, Note_on_c, 8, 73, 0
10, 29850, Note_on_c, 8, 52, 127
10, 29850, Note_on_c, 8, 76, 127
10, 29880, Note_on_c, 8, 54, 127
10, 29880, Note_on_c, 8, 78, 127
10, 29888, Note_on_c, 8, 76, 0
10, 29888, Note_on_c, 8, 52, 0
10, 29910, Note_on_c, 8, 52, 127
10, 29910, Note_on_c, 8, 76, 127
10, 29920, Note_on_c, 8, 54, 0
10, 29920, Note_on_c, 8, 78, 0
10, 29940, Note_on_c, 8, 50, 127
10, 29940, Note_on_c, 8, 74, 127
10, 29941, Note_on_c, 8, 52, 0
10, 29941, Note_on_c, 8, 76, 0
10, 29970, Note_on_c, 8, 49, 127
10, 29970, Note_on_c, 8, 73, 127
10, 29973, Note_on_c, 8, 50, 0
10, 29973, Note_on_c, 8, 74, 0
10, 30000, Note_on_c, 8, 47, 127
10, 30000, Note_on_c, 8, 71, 127
10, 30005, Note_on_c, 8, 49, 0
10, 30005, Note_on_c, 8, 73, 0
10, 30030, Note_on_c, 8, 50, 127
10, 30030, Note_on_c, 8, 74, 127
10, 30031, Note_on_c, 8, 47, 0
10, 30031, Note_on_c, 8, 71, 0
10, 30060, Note_on_c, 8, 52, 127
10, 30060, Note_on_c, 8, 76, 127
10, 30064, Note_on_c, 8, 50, 0
10, 30064, Note_on_c, 8, 74, 0
10, 30090, Note_on_c, 8, 50, 127
10, 30090, Note_on_c, 8, 74, 127
10, 30099, Note_on_c, 8, 52, 0
10, 30099, Note_on_c, 8, 76, 0
10, 30120, Note_on_c, 8, 49, 127
10, 30120, Note_on_c, 8, 73, 127
10, 30123, Note_on_c, 8, 50, 0
10, 30123, Note_on_c, 8, 74, 0
10, 30150, Note_on_c, 8, 50, 127
10, 30150, Note_on_c, 8, 74, 127
10, 30156, Note_on_c, 8, 49, 0
10, 30156, Note_on_c, 8, 73, 0
10, 30180, Note_on_c, 8, 47, 127
10, 30180, Note_on_c, 8, 71, 127
10, 30190, Note_on_c, 8, 50, 0
10, 30190, Note_on_c, 8, 74, 0
10, 30210, Note_on_c, 8, 49, 127
10, 30210, Note_on_c, 8, 73, 127
10, 30216, Note_on_c, 8, 47, 0
10, 30216, Note_on_c, 8, 71, 0
10, 30240, Note_on_c, 8, 46, 127
10, 30240, Note_on_c, 8, 70, 127
10, 30244, Note_on_c, 8, 49, 0
10, 30244, Note_on_c, 8, 73, 0
10, 30270, Note_on_c, 8, 49, 127
10, 30270, Note_on_c, 8, 73, 127
10, 30278, Note_on_c, 8, 46, 0
10, 30278, Note_on_c, 8, 70, 0
10, 30300, Note_on_c, 8, 47, 127
10, 30300, Note_on_c, 8, 71, 127
10, 30301, Note_on_c, 8, 49, 0
10, 30301, Note_on_c, 8, 73, 0
10, 30330, Note_on_c, 8, 49, 127
10, 30330, Note_on_c, 8, 73, 127
10, 30336, Note_on_c, 8, 47, 0
10, 30336, Note_on_c, 8, 71, 0
10, 30360, Note_on_c, 8, 50, 125
10, 30360, Note_on_c, 8, 74, 125
10, 30366, Note_on_c, 8, 49, 0
10, 30366, Note_on_c, 8, 73, 0
10, 30390, Note_on_c, 8, 47, 127
10, 30390, Note_on_c, 8, 71, 127
10, 30398, Note_on_c, 8, 50, 0
10, 30398, Note_on_c, 8, 74, 0
10, 30420, Note_on_c, 8, 47, 0
10, 30420, Note_on_c, 8, 71, 0
10, 30420, Note_on_c, 8, 44, 127
10, 30420, Note_on_c, 8, 68, 127
10, 30442, Note_on_c, 8, 68, 0
10, 30442, Note_on_c, 8, 44, 0
10, 30450, Note_on_c, 8, 47, 127
10, 30450, Note_on_c, 8, 71, 127
10, 30480, Note_on_c, 8, 46, 127
10, 30480, Note_on_c, 8, 70, 127
10, 30488, Note_on_c, 8, 71, 0
10, 30488, Note_on_c, 8, 47, 0
10, 30508, Note_on_c, 8, 46, 0
10, 30508, Note_on_c, 8, 70, 0
10, 30510, Note_on_c, 8, 47, 125
10, 30510, Note_on_c, 8, 71, 125
10, 30540, Note_on_c, 8, 49, 127
10, 30540, Note_on_c, 8, 73, 127
10, 30541, Note_on_c, 8, 71, 0
10, 30541, Note_on_c, 8, 47, 0
10, 30570, Note_on_c, 8, 46, 127
10, 30570, Note_on_c, 8, 70, 127
10, 30580, Note_on_c, 8, 49, 0
10, 30580, Note_on_c, 8, 73, 0
10, 30599, Note_on_c, 8, 46, 0
10, 30599, Note_on_c, 8, 70, 0
10, 30600, Note_on_c, 8, 42, 127
10, 30600, Note_on_c, 8, 66, 127
10, 30629, Note_on_c, 8, 66, 0
10, 30629, Note_on_c, 8, 42, 0
10, 30630, Note_on_c, 8, 54, 127
10, 30630, Note_on_c, 8, 78, 127
10, 30660, Note_on_c, 8, 47, 114
10, 30660, Note_on_c, 8, 71, 114
10, 30668, Note_on_c, 8, 78, 0
10, 30668, Note_on_c, 8, 54, 0
10, 30690, Note_on_c, 8, 49, 127
10, 30690, Note_on_c, 8, 73, 127
10, 30691, Note_on_c, 8, 47, 0
10, 30691, Note_on_c, 8, 71, 0
10, 30719, Note_on_c, 8, 49, 0
10, 30719, Note_on_c, 8, 73, 0
10, 30720, Note_on_c, 8, 50, 118
10, 30720, Note_on_c, 8, 74, 118
10, 30745, Note_on_c, 8, 74, 0
10, 30745, Note_on_c, 8, 50, 0
10, 30750, Note_on_c, 8, 47, 127
10, 30750, Note_on_c, 8, 71, 127
10, 30780, Note_on_c, 8, 40, 127
10, 30780, Note_on_c, 8, 64, 127
10, 30782, Note_on_c, 8, 71, 0
10, 30782, Note_on_c, 8, 47, 0
10, 30808, Note_on_c, 8, 40, 0
10, 30808, Note_on_c, 8, 64, 0
10, 30810, Note_on_c, 8, 52, 127
10, 30810, Note_on_c, 8, 76, 127
10, 30840, Note_on_c, 8, 46, 127
10, 30840, Note_on_c, 8, 70, 127
10, 30848, Note_on_c, 8, 76, 0
10, 30848, Note_on_c, 8, 52, 0
10, 30870, Note_on_c, 8, 46, 0
10, 30870, Note_on_c, 8, 70, 0
10, 30870, Note_on_c, 8, 47, 120
10, 30870, Note_on_c, 8, 71, 120
10, 30900, Note_on_c, 8, 49, 118
10, 30900, Note_on_c, 8, 73, 118
10, 30915, Note_on_c, 8, 71, 0
10, 30915, Note_on_c, 8, 47, 0
10, 30930, Note_on_c, 8, 46, 116
10, 30930, Note_on_c, 8, 70, 116
10, 30934, Note_on_c, 8, 49, 0
10, 30934, Note_on_c, 8, 73, 0
10, 30951, Note_on_c, 8, 46, 0
10, 30951, Note_on_c, 8, 70, 0
10, 30960, Note_on_c, 8, 38, 125
10, 30960, Note_on_c, 8, 62, 125
10, 30990, Note_on_c, 8, 45, 127
10, 30990, Note_on_c, 8, 69, 127
10, 30996, Note_on_c, 8, 62, 0
10, 30996, Note_on_c, 8, 38, 0
10, 31011, Note_on_c, 8, 45, 0
10, 31011, Note_on_c, 8, 69, 0
10, 31020, Note_on_c, 8, 50, 120
10, 31020, Note_on_c, 8, 74, 120
10, 31050, Note_on_c, 8, 52, 127
10, 31050, Note_on_c, 8, 76, 127
10, 31059, Note_on_c, 8, 74, 0
10, 31059, Note_on_c, 8, 50, 0
10, 31080, Note_on_c, 8, 54, 127
10, 31080, Note_on_c, 8, 78, 127
10, 31092, Note_on_c, 8, 52, 0
10, 31092, Note_on_c, 8, 76, 0
10, 31109, Note_on_c, 8, 54, 0
10, 31109, Note_on_c, 8, 78, 0
10, 31110, Note_on_c, 8, 50, 118
10, 31110, Note_on_c, 8, 74, 118
10, 31140, Note_on_c, 8, 55, 127
10, 31140, Note_on_c, 8, 79, 127
10, 31142, Note_on_c, 8, 74, 0
10, 31142, Note_on_c, 8, 50, 0
10, 31170, Note_on_c, 8, 54, 127
10, 31170, Note_on_c, 8, 78, 127
10, 31176, Note_on_c, 8, 55, 0
10, 31176, Note_on_c, 8, 79, 0
10, 31192, Note_on_c, 8, 54, 0
10, 31192, Note_on_c, 8, 78, 0
10, 31200, Note_on_c, 8, 55, 116
10, 31200, Note_on_c, 8, 79, 116
10, 31230, Note_on_c, 8, 57, 127
10, 31230, Note_on_c, 8, 81, 127
10, 31233, Note_on_c, 8, 79, 0
10, 31233, Note_on_c, 8, 55, 0
10, 31260, Note_on_c, 8, 59, 127
10, 31260, Note_on_c, 8, 83, 127
10, 31268, Note_on_c, 8, 57, 0
10, 31268, Note_on_c, 8, 81, 0
10, 31290, Note_on_c, 8, 60, 127
10, 31290, Note_on_c, 8, 84, 127
10, 31301, Note_on_c, 8, 59, 0
10, 31301, Note_on_c, 8, 83, 0
10, 31315, Note_on_c, 8, 60, 0
10, 31315, Note_on_c, 8, 84, 0
10, 31320, Note_on_c, 8, 62, 127
10, 31320, Note_on_c, 8, 86, 127
10, 31380, Note_on_c, 8, 50, 127
10, 31380, Note_on_c, 8, 74, 127
10, 31392, Note_on_c, 8, 86, 0
10, 31392, Note_on_c, 8, 62, 0
10, 31440, Note_on_c, 8, 48, 99
10, 31440, Note_on_c, 8, 72, 99
10, 31448, Note_on_c, 8, 50, 0
10, 31448, Note_on_c, 8, 74, 0
10, 31496, Note_on_c, 8, 48, 0
10, 31496, Note_on_c, 8, 72, 0
10, 31500, Note_on_c, 8, 47, 127
10, 31500, Note_on_c, 8, 71, 127
10, 31548, Note_on_c, 8, 71, 0
10, 31548, Note_on_c, 8, 47, 0
10, 31560, Note_on_c, 8, 52, 127
10, 31560, Note_on_c, 8, 76, 127
10, 31560, Control_c, 8, 7, 61
10, 31600, Control_c, 8, 7, 61
10, 31601, Control_c, 8, 7, 60
10, 31606, Control_c, 8, 7, 59
10, 31611, Control_c, 8, 7, 57
10, 31619, Note_on_c, 8, 76, 0
10, 31619, Note_on_c, 8, 52, 0
10, 31619, Control_c, 8, 7, 57
10, 31620, Note_on_c, 8, 40, 127
10, 31620, Note_on_c, 8, 64, 127
10, 31624, Control_c, 8, 7, 56
10, 31625, Control_c, 8, 7, 55
10, 31645, Control_c, 8, 7, 54
10, 31650, Control_c, 8, 7, 53
10, 31655, Control_c, 8, 7, 51
10, 31659, Control_c, 8, 7, 49
10, 31664, Control_c, 8, 7, 48
10, 31669, Control_c, 8, 7, 47
10, 31676, Note_on_c, 8, 64, 0
10, 31676, Note_on_c, 8, 40, 0
10, 31676, Control_c, 8, 7, 45
10, 31680, Note_on_c, 8, 45, 127
10, 31680, Note_on_c, 8, 69, 127
10, 31683, Control_c, 8, 7, 45
10, 31687, Control_c, 8, 7, 43
10, 31692, Control_c, 8, 7, 43
10, 31712, Control_c, 8, 7, 42
10, 31736, Note_on_c, 8, 69, 0
10, 31736, Note_on_c, 8, 45, 0
10, 31740, Note_on_c, 8, 57, 127
10, 31740, Note_on_c, 8, 81, 127
10, 31797, Note_on_c, 8, 81, 0
10, 31797, Note_on_c, 8, 57, 0
10, 31800, Note_on_c, 8, 45, 127
10, 31800, Note_on_c, 8, 69, 127
10, 31857, Note_on_c, 8, 69, 0
10, 31857, Note_on_c, 8, 45, 0
10, 31860, Note_on_c, 8, 50, 127
10, 31860, Note_on_c, 8, 74, 127
10, 31895, Control_c, 8, 7, 41
10, 31901, Control_c, 8, 7, 41
10, 31920, Note_on_c, 8, 55, 127
10, 31920, Note_on_c, 8, 79, 127
10, 31925, Note_on_c, 8, 74, 0
10, 31925, Note_on_c, 8, 50, 0
10, 31945, Control_c, 8, 7, 39
10, 31978, Note_on_c, 8, 55, 0
10, 31978, Note_on_c, 8, 79, 0
10, 31980, Note_on_c, 8, 43, 127
10, 31980, Note_on_c, 8, 67, 127
10, 31990, Control_c, 8, 7, 39
10, 31992, Control_c, 8, 7, 38
10, 31997, Control_c, 8, 7, 37
10, 32039, Note_on_c, 8, 67, 0
10, 32039, Note_on_c, 8, 43, 0
10, 32040, Note_on_c, 8, 48, 127
10, 32040, Note_on_c, 8, 72, 127
10, 32045, Control_c, 8, 7, 36
10, 32088, Control_c, 8, 7, 36
10, 32100, Note_on_c, 8, 53, 127
10, 32100, Note_on_c, 8, 77, 127
10, 32106, Note_on_c, 8, 72, 0
10, 32106, Note_on_c, 8, 48, 0
10, 32140, Note_on_c, 8, 53, 0
10, 32140, Note_on_c, 8, 77, 0
10, 32160, Note_on_c, 8, 41, 127
10, 32160, Note_on_c, 8, 65, 127
10, 32212, Note_on_c, 8, 65, 0
10, 32212, Note_on_c, 8, 41, 0
10, 32220, Note_on_c, 8, 47, 127
10, 32220, Note_on_c, 8, 71, 127
10, 32250, Note_on_c, 8, 45, 127
10, 32250, Note_on_c, 8, 69, 127
10, 32257, Note_on_c, 8, 71, 0
10, 32257, Note_on_c, 8, 47, 0
10, 32280, Note_on_c, 8, 44, 127
10, 32280, Note_on_c, 8, 68, 127
10, 32281, Note_on_c, 8, 45, 0
10, 32281, Note_on_c, 8, 69, 0
10, 32310, Note_on_c, 8, 42, 127
10, 32310, Note_on_c, 8, 66, 127
10, 32320, Note_on_c, 8, 44, 0
10, 32320, Note_on_c, 8, 68, 0
10, 32330, Control_c, 8, 7, 37
10, 32330, Control_c, 8, 7, 38
10, 32340, Note_on_c, 8, 40, 120
10, 32340, Note_on_c, 8, 64, 120
10, 32340, Control_c, 8, 7, 39
10, 32344, Note_on_c, 8, 42, 0
10, 32344, Note_on_c, 8, 66, 0
10, 32345, Control_c, 8, 7, 40
10, 32352, Control_c, 8, 7, 42
10, 32357, Control_c, 8, 7, 43
10, 32362, Control_c, 8, 7, 47
10, 32367, Control_c, 8, 7, 53
10, 32370, Note_on_c, 8, 44, 127
10, 32370, Note_on_c, 8, 68, 127
10, 32374, Note_on_c, 8, 40, 0
10, 32374, Note_on_c, 8, 64, 0
10, 32375, Control_c, 8, 7, 54
10, 32379, Control_c, 8, 7, 58
10, 32384, Control_c, 8, 7, 59
10, 32394, Control_c, 8, 7, 61
10, 32398, Note_on_c, 8, 44, 0
10, 32398, Note_on_c, 8, 68, 0
10, 32400, Note_on_c, 8, 45, 127
10, 32400, Note_on_c, 8, 69, 127
10, 32400, Control_c, 8, 7, 62
10, 32405, Control_c, 8, 7, 63
10, 32410, Control_c, 8, 7, 64
10, 32428, Control_c, 8, 7, 68
10, 32435, Control_c, 8, 7, 68
10, 32460, Note_on_c, 8, 57, 127
10, 32460, Note_on_c, 8, 81, 127
10, 32465, Note_on_c, 8, 69, 0
10, 32465, Note_on_c, 8, 45, 0
10, 32465, Control_c, 8, 7, 68
10, 32480, Control_c, 8, 7, 67
10, 32520, Note_on_c, 8, 45, 127
10, 32520, Note_on_c, 8, 69, 127
10, 32520, Control_c, 8, 7, 66
10, 32525, Control_c, 8, 7, 65
10, 32528, Note_on_c, 8, 57, 0
10, 32528, Note_on_c, 8, 81, 0
10, 32533, Control_c, 8, 7, 64
10, 32548, Control_c, 8, 7, 64
10, 32553, Control_c, 8, 7, 63
10, 32565, Note_on_c, 8, 45, 0
10, 32565, Note_on_c, 8, 69, 0
10, 32580, Note_on_c, 8, 47, 127
10, 32580, Note_on_c, 8, 71, 127
10, 32640, Note_on_c, 8, 59, 127
10, 32640, Note_on_c, 8, 83, 127
10, 32641, Note_on_c, 8, 71, 0
10, 32641, Note_on_c, 8, 47, 0
10, 32656, Control_c, 8, 7, 57
10, 32675, Control_c, 8, 7, 56
10, 32680, Control_c, 8, 7, 55
10, 32694, Note_on_c, 8, 59, 0
10, 32694, Note_on_c, 8, 83, 0
10, 32700, Note_on_c, 8, 47, 127
10, 32700, Note_on_c, 8, 71, 127
10, 32709, Control_c, 8, 7, 54
10, 32719, Control_c, 8, 7, 53
10, 32724, Control_c, 8, 7, 51
10, 32752, Control_c, 8, 7, 50
10, 32756, Note_on_c, 8, 71, 0
10, 32756, Note_on_c, 8, 47, 0
10, 32757, Control_c, 8, 7, 49
10, 32760, Note_on_c, 8, 48, 127
10, 32760, Note_on_c, 8, 72, 127
10, 32761, Control_c, 8, 7, 47
10, 32765, Control_c, 8, 7, 47
10, 32770, Control_c, 8, 7, 48
10, 32790, Note_on_c, 8, 47, 127
10, 32790, Note_on_c, 8, 71, 127
10, 32795, Control_c, 8, 7, 50
10, 32796, Note_on_c, 8, 72, 0
10, 32796, Note_on_c, 8, 48, 0
10, 32800, Control_c, 8, 7, 52
10, 32806, Control_c, 8, 7, 53
10, 32815, Note_on_c, 8, 47, 0
10, 32815, Note_on_c, 8, 71, 0
10, 32816, Control_c, 8, 7, 53
10, 32816, Control_c, 8, 7, 55
10, 32820, Note_on_c, 8, 45, 127
10, 32820, Note_on_c, 8, 69, 127
10, 32830, Control_c, 8, 7, 56
10, 32842, Control_c, 8, 7, 57
10, 32850, Note_on_c, 8, 47, 127
10, 32850, Note_on_c, 8, 71, 127
10, 32855, Control_c, 8, 7, 57
10, 32858, Note_on_c, 8, 69, 0
10, 32858, Note_on_c, 8, 45, 0
10, 32880, Note_on_c, 8, 48, 127
10, 32880, Note_on_c, 8, 72, 127
10, 32890, Control_c, 8, 7, 60
10, 32893, Note_on_c, 8, 47, 0
10, 32893, Note_on_c, 8, 71, 0
10, 32898, Control_c, 8, 7, 61
10, 32904, Note_on_c, 8, 48, 0
10, 32904, Note_on_c, 8, 72, 0
10, 32910, Note_on_c, 8, 45, 127
10, 32910, Note_on_c, 8, 69, 127
10, 32929, Control_c, 8, 7, 62
10, 32940, Note_on_c, 8, 50, 127
10, 32940, Note_on_c, 8, 74, 127
10, 32944, Note_on_c, 8, 69, 0
10, 32944, Note_on_c, 8, 45, 0
10, 32970, Note_on_c, 8, 48, 127
10, 32970, Note_on_c, 8, 72, 127
10, 32971, Note_on_c, 8, 50, 0
10, 32971, Note_on_c, 8, 74, 0
10, 32981, Control_c, 8, 7, 63
10, 32997, Note_on_c, 8, 48, 0
10, 32997, Note_on_c, 8, 72, 0
10, 33000, Note_on_c, 8, 47, 127
10, 33000, Note_on_c, 8, 71, 127
10, 33030, Note_on_c, 8, 48, 127
10, 33030, Note_on_c, 8, 72, 127
10, 33036, Note_on_c, 8, 71, 0
10, 33036, Note_on_c, 8, 47, 0
10, 33060, Note_on_c, 8, 50, 127
10, 33060, Note_on_c, 8, 74, 127
10, 33068, Note_on_c, 8, 48, 0
10, 33068, Note_on_c, 8, 72, 0
10, 33083, Note_on_c, 8, 50, 0
10, 33083, Note_on_c, 8, 74, 0
10, 33090, Note_on_c, 8, 47, 127
10, 33090, Note_on_c, 8, 71, 127
10, 33120, Note_on_c, 8, 52, 127
10, 33120, Note_on_c, 8, 76, 127
10, 33128, Note_on_c, 8, 71, 0
10, 33128, Note_on_c, 8, 47, 0
10, 33180, Note_on_c, 8, 54, 127
10, 33180, Note_on_c, 8, 78, 127
10, 33187, Note_on_c, 8, 52, 0
10, 33187, Note_on_c, 8, 76, 0
10, 33240, Note_on_c, 8, 56, 127
10, 33240, Note_on_c, 8, 80, 127
10, 33252, Note_on_c, 8, 54, 0
10, 33252, Note_on_c, 8, 78, 0
10, 33297, Note_on_c, 8, 56, 0
10, 33297, Note_on_c, 8, 80, 0
10, 33300, Note_on_c, 8, 57, 127
10, 33300, Note_on_c, 8, 81, 127
10, 33370, Note_on_c, 8, 81, 0
10, 33370, Note_on_c, 8, 57, 0
10, 33480, Note_on_c, 8, 52, 127
10, 33480, Note_on_c, 8, 76, 127
10, 33556, Note_on_c, 8, 76, 0
10, 33556, Note_on_c, 8, 52, 0
10, 33660, Note_on_c, 8, 45, 127
10, 33660, Note_on_c, 8, 69, 127
10, 33743, Note_on_c, 8, 69, 0
10, 33743, Note_on_c, 8, 45, 0
10, 33840, Note_on_c, 8, 57, 127
10, 33840, Note_on_c, 8, 81, 127
10, 33930, Note_on_c, 8, 81, 0
10, 33930, Note_on_c, 8, 57, 0
10, 34020, Note_on_c, 8, 62, 127
10, 34020, Note_on_c, 8, 86, 127
10, 34074, Note_on_c, 8, 86, 0
10, 34074, Note_on_c, 8, 62, 0
10, 34200, Note_on_c, 8, 64, 127
10, 34200, Note_on_c, 8, 88, 127
10, 34245, Note_on_c, 8, 88, 0
10, 34245, Note_on_c, 8, 64, 0
10, 34380, Note_on_c, 8, 57, 127
10, 34380, Note_on_c, 8, 81, 127
10, 34433, Note_on_c, 8, 81, 0
10, 34433, Note_on_c, 8, 57, 0
10, 34560, Note_on_c, 8, 52, 127
10, 34560, Note_on_c, 8, 76, 127
10, 34617, Note_on_c, 8, 76, 0
10, 34617, Note_on_c, 8, 52, 0
10, 34740, Note_on_c, 8, 45, 127
10, 34740, Note_on_c, 8, 69, 127
10, 34807, Note_on_c, 8, 69, 0
10, 34807, Note_on_c, 8, 45, 0
10, 34920, Note_on_c, 8, 57, 127
10, 34920, Note_on_c, 8, 81, 127
10, 34981, Note_on_c, 8, 81, 0
10, 34981, Note_on_c, 8, 57, 0
10, 35100, Note_on_c, 8, 50, 127
10, 35100, Note_on_c, 8, 74, 127
10, 35160, Note_on_c, 8, 74, 0
10, 35160, Note_on_c, 8, 50, 0
10, 35280, Note_on_c, 8, 52, 127
10, 35280, Note_on_c, 8, 76, 127
10, 35347, Note_on_c, 8, 76, 0
10, 35347, Note_on_c, 8, 52, 0
10, 35460, Note_on_c, 8, 45, 127
10, 35460, Note_on_c, 8, 69, 127
10, 35527, Note_on_c, 8, 69, 0
10, 35527, Note_on_c, 8, 45, 0
10, 35700, Note_on_c, 8, 57, 127
10, 35700, Note_on_c, 8, 81, 127
10, 35751, Note_on_c, 8, 81, 0
10, 35751, Note_on_c, 8, 57, 0
10, 35760, Note_on_c, 8, 45, 122
10, 35760, Note_on_c, 8, 69, 122
10, 35816, Note_on_c, 8, 69, 0
10, 35816, Note_on_c, 8, 45, 0
10, 35820, Note_on_c, 8, 38, 127
10, 35820, Note_on_c, 8, 62, 127
10, 35876, Note_on_c, 8, 62, 0
10, 35876, Note_on_c, 8, 38, 0
10, 36060, Note_on_c, 8, 62, 127
10, 36060, Note_on_c, 8, 86, 127
10, 36110, Note_on_c, 8, 86, 0
10, 36110, Note_on_c, 8, 62, 0
10, 36120, Note_on_c, 8, 50, 127
10, 36120, Note_on_c, 8, 74, 127
10, 36171, Note_on_c, 8, 74, 0
10, 36171, Note_on_c, 8, 50, 0
10, 36180, Note_on_c, 8, 43, 127
10, 36180, Note_on_c, 8, 67, 127
10, 36240, Note_on_c, 8, 67, 0
10, 36240, Note_on_c, 8, 43, 0
10, 36420, Note_on_c, 8, 55, 127
10, 36420, Note_on_c, 8, 79, 127
10, 36472, Note_on_c, 8, 79, 0
10, 36472, Note_on_c, 8, 55, 0
10, 36480, Note_on_c, 8, 43, 127
10, 36480, Note_on_c, 8, 67, 127
10, 36536, Note_on_c, 8, 67, 0
10, 36536, Note_on_c, 8, 43, 0
10, 36540, Note_on_c, 8, 36, 127
10, 36540, Note_on_c, 8, 60, 127
10, 36585, Note_on_c, 8, 60, 0
10, 36585, Note_on_c, 8, 36, 0
10, 36780, Note_on_c, 8, 60, 127
10, 36780, Note_on_c, 8, 84, 127
10, 36836, Note_on_c, 8, 84, 0
10, 36836, Note_on_c, 8, 60, 0
10, 36840, Note_on_c, 8, 48, 127
10, 36840, Note_on_c, 8, 72, 127
10, 36888, Note_on_c, 8, 72, 0
10, 36888, Note_on_c, 8, 48, 0
10, 36900, Note_on_c, 8, 41, 127
10, 36900, Note_on_c, 8, 65, 127
10, 36954, Note_on_c, 8, 65, 0
10, 36954, Note_on_c, 8, 41, 0
10, 36960, Note_on_c, 8, 53, 127
10, 36960, Note_on_c, 8, 77, 127
10, 37015, Note_on_c, 8, 77, 0
10, 37015, Note_on_c, 8, 53, 0
10, 37080, Note_on_c, 8, 43, 127
10, 37080, Note_on_c, 8, 67, 127
10, 37126, Note_on_c, 8, 67, 0
10, 37126, Note_on_c, 8, 43, 0
10, 37140, Note_on_c, 8, 55, 127
10, 37140, Note_on_c, 8, 79, 127
10, 37194, Note_on_c, 8, 79, 0
10, 37194, Note_on_c, 8, 55, 0
10, 37260, Note_on_c, 8, 45, 127
10, 37260, Note_on_c, 8, 69, 127
10, 37310, Note_on_c, 8, 69, 0
10, 37310, Note_on_c, 8, 45, 0
10, 37320, Note_on_c, 8, 57, 125
10, 37320, Note_on_c, 8, 81, 125
10, 37358, Note_on_c, 8, 81, 0
10, 37358, Note_on_c, 8, 57, 0
10, 37440, Note_on_c, 8, 47, 127
10, 37440, Note_on_c, 8, 71, 127
10, 37496, Note_on_c, 8, 71, 0
10, 37496, Note_on_c, 8, 47, 0
10, 37500, Note_on_c, 8, 59, 127
10, 37500, Note_on_c, 8, 83, 127
10, 37563, Note_on_c, 8, 83, 0
10, 37563, Note_on_c, 8, 59, 0
10, 37620, Note_on_c, 8, 48, 127
10, 37620, Note_on_c, 8, 72, 127
10, 37672, Note_on_c, 8, 72, 0
10, 37672, Note_on_c, 8, 48, 0
10, 37800, Note_on_c, 8, 55, 127
10, 37800, Note_on_c, 8, 79, 127
10, 37861, Note_on_c, 8, 79, 0
10, 37861, Note_on_c, 8, 55, 0
10, 37980, Note_on_c, 8, 60, 127
10, 37980, Note_on_c, 8, 84, 127
10, 38027, Note_on_c, 8, 84, 0
10, 38027, Note_on_c, 8, 60, 0
10, 38160, Note_on_c, 8, 48, 127
10, 38160, Note_on_c, 8, 72, 127
10, 38228, Note_on_c, 8, 72, 0
10, 38228, Note_on_c, 8, 48, 0
10, 38340, Note_on_c, 8, 55, 127
10, 38340, Note_on_c, 8, 79, 127
10, 38392, Note_on_c, 8, 79, 0
10, 38392, Note_on_c, 8, 55, 0
10, 38520, Note_on_c, 8, 43, 127
10, 38520, Note_on_c, 8, 67, 127
10, 38577, Note_on_c, 8, 67, 0
10, 38577, Note_on_c, 8, 43, 0
10, 38700, Note_on_c, 8, 48, 127
10, 38700, Note_on_c, 8, 72, 127
10, 38745, Note_on_c, 8, 72, 0
10, 38745, Note_on_c, 8, 48, 0
10, 38880, Note_on_c, 8, 43, 127
10, 38880, Note_on_c, 8, 67, 127
10, 38934, Note_on_c, 8, 67, 0
10, 38934, Note_on_c, 8, 43, 0
10, 39060, Note_on_c, 8, 36, 127
10, 39060, Note_on_c, 8, 60, 127
10, 39125, Note_on_c, 8, 60, 0
10, 39125, Note_on_c, 8, 36, 0
10, 39240, Note_on_c, 8, 48, 127
10, 39240, Note_on_c, 8, 72, 127
10, 39297, Note_on_c, 8, 72, 0
10, 39297, Note_on_c, 8, 48, 0
10, 39420, Note_on_c, 8, 43, 127
10, 39420, Note_on_c, 8, 67, 127
10, 39470, Note_on_c, 8, 67, 0
10, 39470, Note_on_c, 8, 43, 0
10, 39600, Note_on_c, 8, 55, 118
10, 39600, Note_on_c, 8, 79, 118
10, 39652, Note_on_c, 8, 79, 0
10, 39652, Note_on_c, 8, 55, 0
10, 39780, Note_on_c, 8, 48, 127
10, 39780, Note_on_c, 8, 72, 127
10, 39832, Note_on_c, 8, 72, 0
10, 39832, Note_on_c, 8, 48, 0
10, 39900, Note_on_c, 8, 36, 118
10, 39900, Note_on_c, 8, 60, 118
10, 39941, Note_on_c, 8, 60, 0
10, 39941, Note_on_c, 8, 36, 0
10, 39960, Note_on_c, 8, 41, 127
10, 39960, Note_on_c, 8, 65, 127
10, 40014, Note_on_c, 8, 65, 0
10, 40014, Note_on_c, 8, 41, 0
10, 40080, Note_on_c, 8, 38, 125
10, 40080, Note_on_c, 8, 62, 125
10, 40138, Note_on_c, 8, 62, 0
10, 40138, Note_on_c, 8, 38, 0
10, 40140, Note_on_c, 8, 43, 127
10, 40140, Note_on_c, 8, 67, 127
10, 40187, Note_on_c, 8, 67, 0
10, 40187, Note_on_c, 8, 43, 0
10, 40260, Note_on_c, 8, 40, 122
10, 40260, Note_on_c, 8, 64, 122
10, 40310, Note_on_c, 8, 64, 0
10, 40310, Note_on_c, 8, 40, 0
10, 40320, Note_on_c, 8, 45, 120
10, 40320, Note_on_c, 8, 69, 120
10, 40388, Note_on_c, 8, 69, 0
10, 40388, Note_on_c, 8, 45, 0
10, 40440, Note_on_c, 8, 43, 122
10, 40440, Note_on_c, 8, 67, 122
10, 40490, Note_on_c, 8, 67, 0
10, 40490, Note_on_c, 8, 43, 0
10, 40500, Note_on_c, 8, 41, 127
10, 40500, Note_on_c, 8, 65, 127
10, 40555, Note_on_c, 8, 65, 0
10, 40555, Note_on_c, 8, 41, 0
10, 40560, Note_on_c, 8, 43, 127
10, 40560, Note_on_c, 8, 67, 127
10, 40584, Note_on_c, 8, 67, 0
10, 40584, Note_on_c, 8, 43, 0
10, 40590, Note_on_c, 8, 41, 127
10, 40590, Note_on_c, 8, 65, 127
10, 40619, Note_on_c, 8, 65, 0
10, 40619, Note_on_c, 8, 41, 0
10, 40620, Note_on_c, 8, 43, 127
10, 40620, Note_on_c, 8, 67, 127
10, 40679, Note_on_c, 8, 67, 0
10, 40679, Note_on_c, 8, 43, 0
10, 40680, Note_on_c, 8, 36, 127
10, 40680, Note_on_c, 8, 60, 127
10, 40740, Note_on_c, 8, 48, 127
10, 40740, Note_on_c, 8, 72, 127
10, 40741, Note_on_c, 8, 60, 0
10, 40741, Note_on_c, 8, 36, 0
10, 40790, Note_on_c, 8, 48, 0
10, 40790, Note_on_c, 8, 72, 0
10, 40800, Note_on_c, 8, 46, 127
10, 40800, Note_on_c, 8, 70, 127
10, 40846, Note_on_c, 8, 70, 0
10, 40846, Note_on_c, 8, 46, 0
10, 40860, Note_on_c, 8, 45, 127
10, 40860, Note_on_c, 8, 69, 127
10, 41064, Note_on_c, 8, 69, 0
10, 41064, Note_on_c, 8, 45, 0
10, 41100, Note_on_c, 8, 48, 127
10, 41100, Note_on_c, 8, 72, 127
10, 41159, Note_on_c, 8, 72, 0
10, 41159, Note_on_c, 8, 48, 0
10, 41160, Note_on_c, 8, 45, 127
10, 41160, Note_on_c, 8, 69, 127
10, 41220, Note_on_c, 8, 41, 127
10, 41220, Note_on_c, 8, 65, 127
10, 41221, Note_on_c, 8, 69, 0
10, 41221, Note_on_c, 8, 45, 0
10, 41404, Note_on_c, 8, 41, 0
10, 41404, Note_on_c, 8, 65, 0
10, 41430, Note_on_c, 8, 53, 127
10, 41430, Note_on_c, 8, 77, 127
10, 41447, Note_on_c, 8, 77, 0
10, 41447, Note_on_c, 8, 53, 0
10, 41460, Note_on_c, 8, 53, 127
10, 41460, Note_on_c, 8, 77, 127
10, 41486, Note_on_c, 8, 77, 0
10, 41486, Note_on_c, 8, 53, 0
10, 41490, Note_on_c, 8, 41, 127
10, 41490, Note_on_c, 8, 65, 127
10, 41506, Note_on_c, 8, 65, 0
10, 41506, Note_on_c, 8, 41, 0
10, 41520, Note_on_c, 8, 41, 127
10, 41520, Note_on_c, 8, 65, 127
10, 41546, Note_on_c, 8, 65, 0
10, 41546, Note_on_c, 8, 41, 0
10, 41550, Note_on_c, 8, 40, 127
10, 41550, Note_on_c, 8, 64, 127
10, 41569, Note_on_c, 8, 64, 0
10, 41569, Note_on_c, 8, 40, 0
10, 41580, Note_on_c, 8, 40, 127
10, 41580, Note_on_c, 8, 64, 127
10, 41635, Note_on_c, 8, 64, 0
10, 41635, Note_on_c, 8, 40, 0
10, 41640, Note_on_c, 8, 45, 127
10, 41640, Note_on_c, 8, 69, 127
10, 41691, Note_on_c, 8, 69, 0
10, 41691, Note_on_c, 8, 45, 0
10, 41700, Note_on_c, 8, 38, 127
10, 41700, Note_on_c, 8, 62, 127
10, 41753, Note_on_c, 8, 62, 0
10, 41753, Note_on_c, 8, 38, 0
10, 41760, Note_on_c, 8, 43, 127
10, 41760, Note_on_c, 8, 67, 127
10, 41820, Note_on_c, 8, 48, 127
10, 41820, Note_on_c, 8, 72, 127
10, 41824, Note_on_c, 8, 67, 0
10, 41824, Note_on_c, 8, 43, 0
10, 41875, Note_on_c, 8, 48, 0
10, 41875, Note_on_c, 8, 72, 0
10, 41880, Note_on_c, 8, 41, 127
10, 41880, Note_on_c, 8, 65, 127
10, 41936, Note_on_c, 8, 65, 0
10, 41936, Note_on_c, 8, 41, 0
10, 41940, Note_on_c, 8, 53, 127
10, 41940, Note_on_c, 8, 77, 127
10, 42000, Note_on_c, 8, 55, 127
10, 42000, Note_on_c, 8, 79, 127
10, 42002, Note_on_c, 8, 77, 0
10, 42002, Note_on_c, 8, 53, 0
10, 42060, Note_on_c, 8, 57, 127
10, 42060, Note_on_c, 8, 81, 127
10, 42067, Note_on_c, 8, 55, 0
10, 42067, Note_on_c, 8, 79, 0
10, 42120, Note_on_c, 8, 53, 127
10, 42120, Note_on_c, 8, 77, 127
10, 42123, Note_on_c, 8, 57, 0
10, 42123, Note_on_c, 8, 81, 0
10, 42178, Note_on_c, 8, 53, 0
10, 42178, Note_on_c, 8, 77, 0
10, 42180, Note_on_c, 8, 55, 127
10, 42180, Note_on_c, 8, 79, 127
10, 42240, Note_on_c, 8, 79, 0
10, 42240, Note_on_c, 8, 55, 0
10, 42240, Note_on_c, 8, 43, 127
10, 42240, Note_on_c, 8, 67, 127
10, 42297, Note_on_c, 8, 67, 0
10, 42297, Note_on_c, 8, 43, 0
10, 42300, Note_on_c, 8, 36, 127
10, 42300, Note_on_c, 8, 60, 127
10, 42367, Note_on_c, 8, 60, 0
10, 42367, Note_on_c, 8, 36, 0
10, 42660, Note_on_c, 8, 36, 127
10, 42660, Note_on_c, 8, 60, 127
10, 42737, Note_on_c, 8, 60, 0
10, 42737, Note_on_c, 8, 36, 0
10, 43020, Note_on_c, 8, 36, 127
10, 43020, Note_on_c, 8, 60, 127
10, 43090, Note_on_c, 8, 60, 0
10, 43090, Note_on_c, 8, 36, 0
10, 43380, Note_on_c, 8, 48, 127
10, 43380, Note_on_c, 8, 72, 127
10, 43433, Note_on_c, 8, 72, 0
10, 43433, Note_on_c, 8, 48, 0
10, 43560, Note_on_c, 8, 43, 125
10, 43560, Note_on_c, 8, 67, 125
10, 43618, Note_on_c, 8, 67, 0
10, 43618, Note_on_c, 8, 43, 0
10, 43740, Note_on_c, 8, 36, 127
10, 43740, Note_on_c, 8, 60, 127
10, 43801, Note_on_c, 8, 60, 0
10, 43801, Note_on_c, 8, 36, 0
10, 43980, Note_on_c, 8, 45, 127
10, 43980, Note_on_c, 8, 69, 127
10, 44028, Note_on_c, 8, 69, 0
10, 44028, Note_on_c, 8, 45, 0
10, 44040, Note_on_c, 8, 41, 127
10, 44040, Note_on_c, 8, 65, 127
10, 44098, Note_on_c, 8, 65, 0
10, 44098, Note_on_c, 8, 41, 0
10, 44100, Note_on_c, 8, 47, 127
10, 44100, Note_on_c, 8, 71, 127
10, 44151, Note_on_c, 8, 71, 0
10, 44151, Note_on_c, 8, 47, 0
10, 44340, Note_on_c, 8, 43, 127
10, 44340, Note_on_c, 8, 67, 127
10, 44383, Note_on_c, 8, 67, 0
10, 44383, Note_on_c, 8, 43, 0
10, 44400, Note_on_c, 8, 40, 127
10, 44400, Note_on_c, 8, 64, 127
10, 44458, Note_on_c, 8, 64, 0
10, 44458, Note_on_c, 8, 40, 0
10, 44460, Note_on_c, 8, 45, 127
10, 44460, Note_on_c, 8, 69, 127
10, 44511, Note_on_c, 8, 69, 0
10, 44511, Note_on_c, 8, 45, 0
10, 44700, Note_on_c, 8, 42, 127
10, 44700, Note_on_c, 8, 66, 127
10, 44739, Note_on_c, 8, 66, 0
10, 44739, Note_on_c, 8, 42, 0
10, 44760, Note_on_c, 8, 38, 127
10, 44760, Note_on_c, 8, 62, 127
10, 44805, Note_on_c, 8, 62, 0
10, 44805, Note_on_c, 8, 38, 0
10, 44820, Note_on_c, 8, 43, 127
10, 44820, Note_on_c, 8, 67, 127
10, 44861, Note_on_c, 8, 67, 0
10, 44861, Note_on_c, 8, 43, 0
10, 45000, Note_on_c, 8, 38, 127
10, 45000, Note_on_c, 8, 62, 127
10, 45046, Note_on_c, 8, 62, 0
10, 45046, Note_on_c, 8, 38, 0
10, 45180, Note_on_c, 8, 43, 127
10, 45180, Note_on_c, 8, 67, 127
10, 45222, Note_on_c, 8, 67, 0
10, 45222, Note_on_c, 8, 43, 0
10, 45540, Note_on_c, 8, 43, 127
10, 45540, Note_on_c, 8, 67, 127
10, 45587, Note_on_c, 8, 67, 0
10, 45587, Note_on_c, 8, 43, 0
10, 45900, Note_on_c, 8, 43, 127
10, 45900, Note_on_c, 8, 67, 127
10, 45960, Note_on_c, 8, 67, 0
10, 45960, Note_on_c, 8, 43, 0
10, 46260, Note_on_c, 8, 43, 127
10, 46260, Note_on_c, 8, 67, 127
10, 46326, Note_on_c, 8, 67, 0
10, 46326, Note_on_c, 8, 43, 0
10, 46500, Note_on_c, 8, 52, 127
10, 46500, Note_on_c, 8, 76, 127
10, 46537, Note_on_c, 8, 76, 0
10, 46537, Note_on_c, 8, 52, 0
10, 46560, Note_on_c, 8, 49, 127
10, 46560, Note_on_c, 8, 73, 127
10, 46604, Note_on_c, 8, 73, 0
10, 46604, Note_on_c, 8, 49, 0
10, 46620, Note_on_c, 8, 54, 127
10, 46620, Note_on_c, 8, 78, 127
10, 46662, Note_on_c, 8, 78, 0
10, 46662, Note_on_c, 8, 54, 0
10, 46860, Note_on_c, 8, 50, 127
10, 46860, Note_on_c, 8, 74, 127
10, 46900, Note_on_c, 8, 74, 0
10, 46900, Note_on_c, 8, 50, 0
10, 46920, Note_on_c, 8, 47, 127
10, 46920, Note_on_c, 8, 71, 127
10, 46964, Note_on_c, 8, 71, 0
10, 46964, Note_on_c, 8, 47, 0
10, 46980, Note_on_c, 8, 52, 127
10, 46980, Note_on_c, 8, 76, 127
10, 47029, Note_on_c, 8, 76, 0
10, 47029, Note_on_c, 8, 52, 0
10, 47220, Note_on_c, 8, 49, 127
10, 47220, Note_on_c, 8, 73, 127
10, 47252, Note_on_c, 8, 73, 0
10, 47252, Note_on_c, 8, 49, 0
10, 47280, Note_on_c, 8, 45, 127
10, 47280, Note_on_c, 8, 69, 127
10, 47324, Note_on_c, 8, 69, 0
10, 47324, Note_on_c, 8, 45, 0
10, 47340, Note_on_c, 8, 50, 127
10, 47340, Note_on_c, 8, 74, 127
10, 47387, Note_on_c, 8, 74, 0
10, 47387, Note_on_c, 8, 50, 0
10, 47550, Note_on_c, 8, 62, 127
10, 47550, Note_on_c, 8, 86, 127
10, 47569, Note_on_c, 8, 86, 0
10, 47569, Note_on_c, 8, 62, 0
10, 47580, Note_on_c, 8, 62, 127
10, 47580, Note_on_c, 8, 86, 127
10, 47603, Note_on_c, 8, 86, 0
10, 47603, Note_on_c, 8, 62, 0
10, 47610, Note_on_c, 8, 57, 127
10, 47610, Note_on_c, 8, 81, 127
10, 47625, Note_on_c, 8, 81, 0
10, 47625, Note_on_c, 8, 57, 0
10, 47640, Note_on_c, 8, 57, 127
10, 47640, Note_on_c, 8, 81, 127
10, 47665, Note_on_c, 8, 81, 0
10, 47665, Note_on_c, 8, 57, 0
10, 47670, Note_on_c, 8, 54, 127
10, 47670, Note_on_c, 8, 78, 127
10, 47686, Note_on_c, 8, 78, 0
10, 47686, Note_on_c, 8, 54, 0
10, 47700, Note_on_c, 8, 54, 127
10, 47700, Note_on_c, 8, 78, 127
10, 47725, Note_on_c, 8, 78, 0
10, 47725, Note_on_c, 8, 54, 0
10, 47730, Note_on_c, 8, 57, 125
10, 47730, Note_on_c, 8, 81, 125
10, 47746, Note_on_c, 8, 81, 0
10, 47746, Note_on_c, 8, 57, 0
10, 47760, Note_on_c, 8, 57, 127
10, 47760, Note_on_c, 8, 81, 127
10, 47781, Note_on_c, 8, 81, 0
10, 47781, Note_on_c, 8, 57, 0
10, 47790, Note_on_c, 8, 54, 127
10, 47790, Note_on_c, 8, 78, 127
10, 47805, Note_on_c, 8, 78, 0
10, 47805, Note_on_c, 8, 54, 0
10, 47820, Note_on_c, 8, 54, 127
10, 47820, Note_on_c, 8, 78, 127
10, 47844, Note_on_c, 8, 78, 0
10, 47844, Note_on_c, 8, 54, 0
10, 47850, Note_on_c, 8, 50, 122
10, 47850, Note_on_c, 8, 74, 122
10, 47869, Note_on_c, 8, 74, 0
10, 47869, Note_on_c, 8, 50, 0
10, 47880, Note_on_c, 8, 50, 127
10, 47880, Note_on_c, 8, 74, 127
10, 47922, Note_on_c, 8, 74, 0
10, 47922, Note_on_c, 8, 50, 0
10, 47940, Note_on_c, 8, 62, 127
10, 47940, Note_on_c, 8, 86, 127
10, 47963, Note_on_c, 8, 86, 0
10, 47963, Note_on_c, 8, 62, 0
10, 48000, Note_on_c, 8, 50, 127
10, 48000, Note_on_c, 8, 74, 127
10, 48039, Note_on_c, 8, 74, 0
10, 48039, Note_on_c, 8, 50, 0
10, 48060, Note_on_c, 8, 43, 127
10, 48060, Note_on_c, 8, 67, 127
10, 48109, Note_on_c, 8, 67, 0
10, 48109, Note_on_c, 8, 43, 0
10, 48270, Note_on_c, 8, 55, 127
10, 48270, Note_on_c, 8, 79, 127
10, 48287, Note_on_c, 8, 79, 0
10, 48287, Note_on_c, 8, 55, 0
10, 48300, Note_on_c, 8, 55, 127
10, 48300, Note_on_c, 8, 79, 127
10, 48322, Note_on_c, 8, 79, 0
10, 48322, Note_on_c, 8, 55, 0
10, 48330, Note_on_c, 8, 50, 127
10, 48330, Note_on_c, 8, 74, 127
10, 48345, Note_on_c, 8, 74, 0
10, 48345, Note_on_c, 8, 50, 0
10, 48360, Note_on_c, 8, 50, 127
10, 48360, Note_on_c, 8, 74, 127
10, 48383, Note_on_c, 8, 74, 0
10, 48383, Note_on_c, 8, 50, 0
10, 48390, Note_on_c, 8, 47, 127
10, 48390, Note_on_c, 8, 71, 127
10, 48406, Note_on_c, 8, 71, 0
10, 48406, Note_on_c, 8, 47, 0
10, 48420, Note_on_c, 8, 47, 127
10, 48420, Note_on_c, 8, 71, 127
10, 48442, Note_on_c, 8, 71, 0
10, 48442, Note_on_c, 8, 47, 0
10, 48450, Note_on_c, 8, 50, 127
10, 48450, Note_on_c, 8, 74, 127
10, 48465, Note_on_c, 8, 74, 0
10, 48465, Note_on_c, 8, 50, 0
10, 48480, Note_on_c, 8, 50, 127
10, 48480, Note_on_c, 8, 74, 127
10, 48500, Note_on_c, 8, 74, 0
10, 48500, Note_on_c, 8, 50, 0
10, 48510, Note_on_c, 8, 47, 127
10, 48510, Note_on_c, 8, 71, 127
10, 48522, Note_on_c, 8, 71, 0
10, 48522, Note_on_c, 8, 47, 0
10, 48540, Note_on_c, 8, 47, 127
10, 48540, Note_on_c, 8, 71, 127
10, 48557, Note_on_c, 8, 71, 0
10, 48557, Note_on_c, 8, 47, 0
10, 48570, Note_on_c, 8, 43, 127
10, 48570, Note_on_c, 8, 67, 127
10, 48585, Note_on_c, 8, 67, 0
10, 48585, Note_on_c, 8, 43, 0
10, 48600, Note_on_c, 8, 43, 127
10, 48600, Note_on_c, 8, 67, 127
10, 48646, Note_on_c, 8, 67, 0
10, 48646, Note_on_c, 8, 43, 0
10, 48660, Note_on_c, 8, 55, 127
10, 48660, Note_on_c, 8, 79, 127
10, 48708, Note_on_c, 8, 79, 0
10, 48708, Note_on_c, 8, 55, 0
10, 48720, Note_on_c, 8, 43, 127
10, 48720, Note_on_c, 8, 67, 127
10, 48765, Note_on_c, 8, 67, 0
10, 48765, Note_on_c, 8, 43, 0
10, 48780, Note_on_c, 8, 48, 127
10, 48780, Note_on_c, 8, 72, 127
10, 48830, Note_on_c, 8, 72, 0
10, 48830, Note_on_c, 8, 48, 0
10, 48840, Note_on_c, 8, 60, 127
10, 48840, Note_on_c, 8, 84, 127
10, 48890, Note_on_c, 8, 84, 0
10, 48890, Note_on_c, 8, 60, 0
10, 48900, Note_on_c, 8, 57, 127
10, 48900, Note_on_c, 8, 81, 127
10, 48955, Note_on_c, 8, 81, 0
10, 48955, Note_on_c, 8, 57, 0
10, 48960, Note_on_c, 8, 54, 127
10, 48960, Note_on_c, 8, 78, 127
10, 49012, Note_on_c, 8, 78, 0
10, 49012, Note_on_c, 8, 54, 0
10, 49020, Note_on_c, 8, 59, 127
10, 49020, Note_on_c, 8, 83, 127
10, 49076, Note_on_c, 8, 83, 0
10, 49076, Note_on_c, 8, 59, 0
10, 49080, Note_on_c, 8, 55, 127
10, 49080, Note_on_c, 8, 79, 127
10, 49139, Note_on_c, 8, 79, 0
10, 49139, Note_on_c, 8, 55, 0
10, 49140, Note_on_c, 8, 52, 127
10, 49140, Note_on_c, 8, 76, 127
10, 49189, Note_on_c, 8, 76, 0
10, 49189, Note_on_c, 8, 52, 0
10, 49200, Note_on_c, 8, 57, 127
10, 49200, Note_on_c, 8, 81, 127
10, 49250, Note_on_c, 8, 81, 0
10, 49250, Note_on_c, 8, 57, 0
10, 49260, Note_on_c, 8, 54, 127
10, 49260, Note_on_c, 8, 78, 127
10, 49317, Note_on_c, 8, 78, 0
10, 49317, Note_on_c, 8, 54, 0
10, 49320, Note_on_c, 8, 50, 127
10, 49320, Note_on_c, 8, 74, 127
10, 49370, Note_on_c, 8, 74, 0
10, 49370, Note_on_c, 8, 50, 0
10, 49380, Note_on_c, 8, 55, 127
10, 49380, Note_on_c, 8, 79, 127
10, 49438, Note_on_c, 8, 79, 0
10, 49438, Note_on_c, 8, 55, 0
10, 49440, Note_on_c, 8, 52, 127
10, 49440, Note_on_c, 8, 76, 127
10, 49491, Note_on_c, 8, 76, 0
10, 49491, Note_on_c, 8, 52, 0
10, 49500, Note_on_c, 8, 48, 127
10, 49500, Note_on_c, 8, 72, 127
10, 49623, Note_on_c, 8, 72, 0
10, 49623, Note_on_c, 8, 48, 0
10, 49740, Note_on_c, 8, 48, 127
10, 49740, Note_on_c, 8, 72, 127
10, 49784, Note_on_c, 8, 72, 0
10, 49784, Note_on_c, 8, 48, 0
10, 49800, Note_on_c, 8, 45, 127
10, 49800, Note_on_c, 8, 69, 127
10, 49860, Note_on_c, 8, 69, 0
10, 49860, Note_on_c, 8, 45, 0
10, 49860, Note_on_c, 8, 50, 127
10, 49860, Note_on_c, 8, 74, 127
10, 49975, Note_on_c, 8, 74, 0
10, 49975, Note_on_c, 8, 50, 0
10, 50100, Note_on_c, 8, 50, 127
10, 50100, Note_on_c, 8, 74, 127
10, 50149, Note_on_c, 8, 74, 0
10, 50149, Note_on_c, 8, 50, 0
10, 50160, Note_on_c, 8, 47, 127
10, 50160, Note_on_c, 8, 71, 127
10, 50220, Note_on_c, 8, 71, 0
10, 50220, Note_on_c, 8, 47, 0
10, 50220, Note_on_c, 8, 52, 127
10, 50220, Note_on_c, 8, 76, 127
10, 50326, Note_on_c, 8, 76, 0
10, 50326, Note_on_c, 8, 52, 0
10, 50460, Note_on_c, 8, 52, 127
10, 50460, Note_on_c, 8, 76, 127
10, 50514, Note_on_c, 8, 76, 0
10, 50514, Note_on_c, 8, 52, 0
10, 50520, Note_on_c, 8, 48, 127
10, 50520, Note_on_c, 8, 72, 127
10, 50580, Note_on_c, 8, 72, 0
10, 50580, Note_on_c, 8, 48, 0
10, 50580, Note_on_c, 8, 45, 127
10, 50580, Note_on_c, 8, 69, 127
10, 50601, Note_on_c, 8, 69, 0
10, 50601, Note_on_c, 8, 45, 0
10, 50610, Note_on_c, 8, 60, 127
10, 50610, Note_on_c, 8, 84, 127
10, 50626, Note_on_c, 8, 84, 0
10, 50626, Note_on_c, 8, 60, 0
10, 50640, Note_on_c, 8, 60, 127
10, 50640, Note_on_c, 8, 84, 127
10, 50659, Note_on_c, 8, 84, 0
10, 50659, Note_on_c, 8, 60, 0
10, 50670, Note_on_c, 8, 57, 127
10, 50670, Note_on_c, 8, 81, 127
10, 50688, Note_on_c, 8, 81, 0
10, 50688, Note_on_c, 8, 57, 0
10, 50700, Note_on_c, 8, 57, 125
10, 50700, Note_on_c, 8, 81, 125
10, 50722, Note_on_c, 8, 81, 0
10, 50722, Note_on_c, 8, 57, 0
10, 50730, Note_on_c, 8, 54, 127
10, 50730, Note_on_c, 8, 78, 127
10, 50747, Note_on_c, 8, 78, 0
10, 50747, Note_on_c, 8, 54, 0
10, 50760, Note_on_c, 8, 54, 127
10, 50760, Note_on_c, 8, 78, 127
10, 50787, Note_on_c, 8, 78, 0
10, 50787, Note_on_c, 8, 54, 0
10, 50790, Note_on_c, 8, 57, 127
10, 50790, Note_on_c, 8, 81, 127
10, 50806, Note_on_c, 8, 81, 0
10, 50806, Note_on_c, 8, 57, 0
10, 50820, Note_on_c, 8, 57, 127
10, 50820, Note_on_c, 8, 81, 127
10, 50838, Note_on_c, 8, 81, 0
10, 50838, Note_on_c, 8, 57, 0
10, 50850, Note_on_c, 8, 54, 127
10, 50850, Note_on_c, 8, 78, 127
10, 50866, Note_on_c, 8, 78, 0
10, 50866, Note_on_c, 8, 54, 0
10, 50880, Note_on_c, 8, 54, 127
10, 50880, Note_on_c, 8, 78, 127
10, 50899, Note_on_c, 8, 78, 0
10, 50899, Note_on_c, 8, 54, 0
10, 50910, Note_on_c, 8, 50, 127
10, 50910, Note_on_c, 8, 74, 127
10, 50926, Note_on_c, 8, 74, 0
10, 50926, Note_on_c, 8, 50, 0
10, 50940, Note_on_c, 8, 50, 127
10, 50940, Note_on_c, 8, 74, 127
10, 50959, Note_on_c, 8, 74, 0
10, 50959, Note_on_c, 8, 50, 0
10, 50970, Note_on_c, 8, 54, 127
10, 50970, Note_on_c, 8, 78, 127
10, 50985, Note_on_c, 8, 78, 0
10, 50985, Note_on_c, 8, 54, 0
10, 51000, Note_on_c, 8, 54, 127
10, 51000, Note_on_c, 8, 78, 127
10, 51020, Note_on_c, 8, 78, 0
10, 51020, Note_on_c, 8, 54, 0
10, 51030, Note_on_c, 8, 50, 127
10, 51030, Note_on_c, 8, 74, 127
10, 51046, Note_on_c, 8, 74, 0
10, 51046, Note_on_c, 8, 50, 0
10, 51060, Note_on_c, 8, 50, 127
10, 51060, Note_on_c, 8, 74, 127
10, 51082, Note_on_c, 8, 74, 0
10, 51082, Note_on_c, 8, 50, 0
10, 51090, Note_on_c, 8, 47, 127
10, 51090, Note_on_c, 8, 71, 127
10, 51105, Note_on_c, 8, 71, 0
10, 51105, Note_on_c, 8, 47, 0
10, 51120, Note_on_c, 8, 47, 127
10, 51120, Note_on_c, 8, 71, 127
10, 51143, Note_on_c, 8, 71, 0
10, 51143, Note_on_c, 8, 47, 0
10, 51150, Note_on_c, 8, 50, 127
10, 51150, Note_on_c, 8, 74, 127
10, 51165, Note_on_c, 8, 74, 0
10, 51165, Note_on_c, 8, 50, 0
10, 51180, Note_on_c, 8, 50, 127
10, 51180, Note_on_c, 8, 74, 127
10, 51202, Note_on_c, 8, 74, 0
10, 51202, Note_on_c, 8, 50, 0
10, 51210, Note_on_c, 8, 47, 127
10, 51210, Note_on_c, 8, 71, 127
10, 51226, Note_on_c, 8, 71, 0
10, 51226, Note_on_c, 8, 47, 0
10, 51240, Note_on_c, 8, 47, 127
10, 51240, Note_on_c, 8, 71, 127
10, 51262, Note_on_c, 8, 71, 0
10, 51262, Note_on_c, 8, 47, 0
10, 51270, Note_on_c, 8, 43, 127
10, 51270, Note_on_c, 8, 67, 127
10, 51289, Note_on_c, 8, 67, 0
10, 51289, Note_on_c, 8, 43, 0
10, 51300, Note_on_c, 8, 43, 127
10, 51300, Note_on_c, 8, 67, 127
10, 51360, Note_on_c, 8, 47, 127
10, 51360, Note_on_c, 8, 71, 127
10, 51362, Note_on_c, 8, 67, 0
10, 51362, Note_on_c, 8, 43, 0
10, 51417, Note_on_c, 8, 47, 0
10, 51417, Note_on_c, 8, 71, 0
10, 51420, Note_on_c, 8, 50, 127
10, 51420, Note_on_c, 8, 74, 127
10, 51473, Note_on_c, 8, 74, 0
10, 51473, Note_on_c, 8, 50, 0
10, 51480, Note_on_c, 8, 55, 127
10, 51480, Note_on_c, 8, 79, 127
10, 51530, Note_on_c, 8, 79, 0
10, 51530, Note_on_c, 8, 55, 0
10, 51540, Note_on_c, 8, 47, 127
10, 51540, Note_on_c, 8, 71, 127
10, 51597, Note_on_c, 8, 71, 0
10, 51597, Note_on_c, 8, 47, 0
10, 51600, Note_on_c, 8, 50, 127
10, 51600, Note_on_c, 8, 74, 127
10, 51658, Note_on_c, 8, 74, 0
10, 51658, Note_on_c, 8, 50, 0
10, 51660, Note_on_c, 8, 43, 127
10, 51660, Note_on_c, 8, 67, 127
10, 51720, Note_on_c, 8, 45, 127
10, 51720, Note_on_c, 8, 69, 127
10, 51726, Note_on_c, 8, 67, 0
10, 51726, Note_on_c, 8, 43, 0
10, 51780, Note_on_c, 8, 47, 127
10, 51780, Note_on_c, 8, 71, 127
10, 51781, Note_on_c, 8, 45, 0
10, 51781, Note_on_c, 8, 69, 0
10, 51838, Note_on_c, 8, 47, 0
10, 51838, Note_on_c, 8, 71, 0
10, 51840, Note_on_c, 8, 40, 127
10, 51840, Note_on_c, 8, 64, 127
10, 51900, Note_on_c, 8, 43, 127
10, 51900, Note_on_c, 8, 67, 127
10, 51902, Note_on_c, 8, 64, 0
10, 51902, Note_on_c, 8, 40, 0
10, 51960, Note_on_c, 8, 47, 127
10, 51960, Note_on_c, 8, 71, 127
10, 51963, Note_on_c, 8, 43, 0
10, 51963, Note_on_c, 8, 67, 0
10, 52017, Note_on_c, 8, 47, 0
10, 52017, Note_on_c, 8, 71, 0
10, 52020, Note_on_c, 8, 52, 127
10, 52020, Note_on_c, 8, 76, 127
10, 52079, Note_on_c, 8, 76, 0
10, 52079, Note_on_c, 8, 52, 0
10, 52080, Note_on_c, 8, 54, 127
10, 52080, Note_on_c, 8, 78, 127
10, 52140, Note_on_c, 8, 56, 127
10, 52140, Note_on_c, 8, 80, 127
10, 52147, Note_on_c, 8, 78, 0
10, 52147, Note_on_c, 8, 54, 0
10, 52195, Note_on_c, 8, 56, 0
10, 52195, Note_on_c, 8, 80, 0
10, 52200, Note_on_c, 8, 57, 127
10, 52200, Note_on_c, 8, 81, 127
10, 52246, Note_on_c, 8, 81, 0
10, 52246, Note_on_c, 8, 57, 0
10, 52260, Note_on_c, 8, 48, 127
10, 52260, Note_on_c, 8, 72, 127
10, 52312, Note_on_c, 8, 72, 0
10, 52312, Note_on_c, 8, 48, 0
10, 52320, Note_on_c, 8, 52, 127
10, 52320, Note_on_c, 8, 76, 127
10, 52380, Note_on_c, 8, 45, 127
10, 52380, Note_on_c, 8, 69, 127
10, 52381, Note_on_c, 8, 76, 0
10, 52381, Note_on_c, 8, 52, 0
10, 52434, Note_on_c, 8, 45, 0
10, 52434, Note_on_c, 8, 69, 0
10, 52440, Note_on_c, 8, 57, 127
10, 52440, Note_on_c, 8, 81, 127
10, 52495, Note_on_c, 8, 81, 0
10, 52495, Note_on_c, 8, 57, 0
10, 52500, Note_on_c, 8, 45, 127
10, 52500, Note_on_c, 8, 69, 127
10, 52550, Note_on_c, 8, 69, 0
10, 52550, Note_on_c, 8, 45, 0
10, 52560, Note_on_c, 8, 38, 127
10, 52560, Note_on_c, 8, 62, 127
10, 52613, Note_on_c, 8, 38, 0
10, 52616, Note_on_c, 8, 62, 0
10, 52620, Note_on_c, 8, 50, 127
10, 52620, Note_on_c, 8, 74, 127
10, 52670, Note_on_c, 8, 74, 0
10, 52680, Note_on_c, 8, 62, 127
10, 52680, Note_on_c, 8, 38, 127
10, 52681, Note_on_c, 8, 50, 0
10, 52725, Note_on_c, 8, 38, 0
10, 52728, Note_on_c, 8, 62, 0
10, 52740, Note_on_c, 8, 55, 127
10, 52740, Note_on_c, 8, 79, 127
10, 52770, Note_on_c, 8, 54, 127
10, 52770, Note_on_c, 8, 78, 127
10, 52783, Note_on_c, 8, 79, 0
10, 52783, Note_on_c, 8, 55, 0
10, 52800, Note_on_c, 8, 52, 127
10, 52800, Note_on_c, 8, 76, 127
10, 52803, Note_on_c, 8, 54, 0
10, 52803, Note_on_c, 8, 78, 0
10, 52830, Note_on_c, 8, 50, 127
10, 52830, Note_on_c, 8, 74, 127
10, 52835, Note_on_c, 8, 52, 0
10, 52835, Note_on_c, 8, 76, 0
10, 52860, Note_on_c, 8, 49, 127
10, 52860, Note_on_c, 8, 73, 127
10, 52868, Note_on_c, 8, 50, 0
10, 52868, Note_on_c, 8, 74, 0
10, 52888, Note_on_c, 8, 49, 0
10, 52888, Note_on_c, 8, 73, 0
10, 52890, Note_on_c, 8, 52, 127
10, 52890, Note_on_c, 8, 76, 127
10, 52920, Note_on_c, 8, 54, 127
10, 52920, Note_on_c, 8, 78, 127
10, 52920, Note_on_c, 8, 78, 127
10, 52920, Note_on_c, 8, 102, 127
10, 52924, Note_on_c, 8, 76, 0
10, 52924, Note_on_c, 8, 52, 0
10, 52950, Note_on_c, 8, 52, 127
10, 52950, Note_on_c, 8, 76, 127
10, 52955, Note_on_c, 8, 78, 0
10, 52955, Note_on_c, 8, 54, 0
10, 52955, Note_on_c, 8, 78, 0
10, 52955, Note_on_c, 8, 102, 0
10, 52980, Note_on_c, 8, 50, 127
10, 52980, Note_on_c, 8, 74, 127
10, 52982, Note_on_c, 8, 76, 0
10, 52982, Note_on_c, 8, 52, 0
10, 53010, Note_on_c, 8, 49, 127
10, 53010, Note_on_c, 8, 73, 127
10, 53012, Note_on_c, 8, 50, 0
10, 53012, Note_on_c, 8, 74, 0
10, 53040, Note_on_c, 8, 49, 0
10, 53040, Note_on_c, 8, 73, 0
10, 53040, Note_on_c, 8, 47, 125
10, 53040, Note_on_c, 8, 71, 125
10, 53070, Note_on_c, 8, 50, 127
10, 53070, Note_on_c, 8, 74, 127
10, 53078, Note_on_c, 8, 71, 0
10, 53078, Note_on_c, 8, 47, 0
10, 53100, Note_on_c, 8, 52, 127
10, 53100, Note_on_c, 8, 76, 127
10, 53104, Note_on_c, 8, 50, 0
10, 53104, Note_on_c, 8, 74, 0
10, 53130, Note_on_c, 8, 50, 127
10, 53130, Note_on_c, 8, 74, 127
10, 53138, Note_on_c, 8, 52, 0
10, 53138, Note_on_c, 8, 76, 0
10, 53160, Note_on_c, 8, 49, 127
10, 53160, Note_on_c, 8, 73, 127
10, 53170, Note_on_c, 8, 50, 0
10, 53170, Note_on_c, 8, 74, 0
10, 53190, Note_on_c, 8, 50, 125
10, 53190, Note_on_c, 8, 74, 125
10, 53193, Note_on_c, 8, 49, 0
10, 53193, Note_on_c, 8, 73, 0
10, 53220, Note_on_c, 8, 50, 0
10, 53220, Note_on_c, 8, 74, 0
10, 53220, Note_on_c, 8, 47, 127
10, 53220, Note_on_c, 8, 71, 127
10, 53250, Note_on_c, 8, 49, 127
10, 53250, Note_on_c, 8, 73, 127
10, 53252, Note_on_c, 8, 71, 0
10, 53252, Note_on_c, 8, 47, 0
10, 53274, Note_on_c, 8, 49, 0
10, 53274, Note_on_c, 8, 73, 0
10, 53280, Note_on_c, 8, 46, 127
10, 53280, Note_on_c, 8, 70, 127
10, 53310, Note_on_c, 8, 54, 127
10, 53310, Note_on_c, 8, 78, 127
10, 53312, Note_on_c, 8, 70, 0
10, 53312, Note_on_c, 8, 46, 0
10, 53340, Note_on_c, 8, 59, 127
10, 53340, Note_on_c, 8, 83, 127
10, 53345, Note_on_c, 8, 54, 0
10, 53345, Note_on_c, 8, 78, 0
10, 53370, Note_on_c, 8, 57, 127
10, 53370, Note_on_c, 8, 81, 127
10, 53377, Note_on_c, 8, 59, 0
10, 53377, Note_on_c, 8, 83, 0
10, 53400, Note_on_c, 8, 55, 127
10, 53400, Note_on_c, 8, 79, 127
10, 53410, Note_on_c, 8, 57, 0
10, 53410, Note_on_c, 8, 81, 0
10, 53430, Note_on_c, 8, 54, 127
10, 53430, Note_on_c, 8, 78, 127
10, 53431, Note_on_c, 8, 55, 0
10, 53431, Note_on_c, 8, 79, 0
10, 53454, Note_on_c, 8, 54, 0
10, 53454, Note_on_c, 8, 78, 0
10, 53460, Note_on_c, 8, 55, 127
10, 53460, Note_on_c, 8, 79, 127
10, 53490, Note_on_c, 8, 59, 127
10, 53490, Note_on_c, 8, 83, 127
10, 53492, Note_on_c, 8, 79, 0
10, 53492, Note_on_c, 8, 55, 0
10, 53520, Note_on_c, 8, 59, 0
10, 53520, Note_on_c, 8, 83, 0
10, 53520, Note_on_c, 8, 52, 127
10, 53520, Note_on_c, 8, 76, 127
10, 53550, Note_on_c, 8, 76, 0
10, 53550, Note_on_c, 8, 52, 0
10, 53550, Note_on_c, 8, 50, 127
10, 53550, Note_on_c, 8, 74, 127
10, 53580, Note_on_c, 8, 49, 127
10, 53580, Note_on_c, 8, 73, 127
10, 53583, Note_on_c, 8, 74, 0
10, 53583, Note_on_c, 8, 50, 0
10, 53610, Note_on_c, 8, 49, 0
10, 53610, Note_on_c, 8, 73, 0
10, 53610, Note_on_c, 8, 52, 127
10, 53610, Note_on_c, 8, 76, 127
10, 53640, Note_on_c, 8, 54, 127
10, 53640, Note_on_c, 8, 78, 127
10, 53641, Note_on_c, 8, 76, 0
10, 53641, Note_on_c, 8, 52, 0
10, 53670, Note_on_c, 8, 42, 122
10, 53670, Note_on_c, 8, 66, 122
10, 53671, Note_on_c, 8, 54, 0
10, 53671, Note_on_c, 8, 78, 0
10, 53698, Note_on_c, 8, 42, 0
10, 53698, Note_on_c, 8, 66, 0
10, 53700, Note_on_c, 8, 47, 125
10, 53700, Note_on_c, 8, 71, 125
10, 53730, Note_on_c, 8, 49, 127
10, 53730, Note_on_c, 8, 73, 127
10, 53734, Note_on_c, 8, 71, 0
10, 53734, Note_on_c, 8, 47, 0
10, 53758, Note_on_c, 8, 49, 0
10, 53758, Note_on_c, 8, 73, 0
10, 53760, Note_on_c, 8, 50, 127
10, 53760, Note_on_c, 8, 74, 127
10, 53789, Note_on_c, 8, 74, 0
10, 53789, Note_on_c, 8, 50, 0
10, 53790, Note_on_c, 8, 47, 127
10, 53790, Note_on_c, 8, 71, 127
10, 53820, Note_on_c, 8, 52, 127
10, 53820, Note_on_c, 8, 76, 127
10, 53822, Note_on_c, 8, 71, 0
10, 53822, Note_on_c, 8, 47, 0
10, 53850, Note_on_c, 8, 40, 125
10, 53850, Note_on_c, 8, 64, 125
10, 53856, Note_on_c, 8, 52, 0
10, 53856, Note_on_c, 8, 76, 0
10, 53880, Note_on_c, 8, 45, 127
10, 53880, Note_on_c, 8, 69, 127
10, 53884, Note_on_c, 8, 40, 0
10, 53884, Note_on_c, 8, 64, 0
10, 53908, Note_on_c, 8, 45, 0
10, 53908, Note_on_c, 8, 69, 0
10, 53910, Note_on_c, 8, 47, 122
10, 53910, Note_on_c, 8, 71, 122
10, 53940, Note_on_c, 8, 49, 127
10, 53940, Note_on_c, 8, 73, 127
10, 53943, Note_on_c, 8, 71, 0
10, 53943, Note_on_c, 8, 47, 0
10, 53967, Note_on_c, 8, 49, 0
10, 53967, Note_on_c, 8, 73, 0
10, 53970, Note_on_c, 8, 45, 127
10, 53970, Note_on_c, 8, 69, 127
10, 53995, Note_on_c, 8, 69, 0
10, 53995, Note_on_c, 8, 45, 0
10, 54000, Note_on_c, 8, 50, 127
10, 54000, Note_on_c, 8, 74, 127
10, 54024, Note_on_c, 8, 74, 0
10, 54024, Note_on_c, 8, 50, 0
10, 54030, Note_on_c, 8, 38, 127
10, 54030, Note_on_c, 8, 62, 127
10, 54060, Note_on_c, 8, 52, 127
10, 54060, Note_on_c, 8, 76, 127
10, 54062, Note_on_c, 8, 62, 0
10, 54062, Note_on_c, 8, 38, 0
10, 54090, Note_on_c, 8, 54, 127
10, 54090, Note_on_c, 8, 78, 127
10, 54098, Note_on_c, 8, 52, 0
10, 54098, Note_on_c, 8, 76, 0
10, 54120, Note_on_c, 8, 55, 127
10, 54120, Note_on_c, 8, 79, 127
10, 54128, Note_on_c, 8, 54, 0
10, 54128, Note_on_c, 8, 78, 0
10, 54150, Note_on_c, 8, 52, 127
10, 54150, Note_on_c, 8, 76, 127
10, 54154, Note_on_c, 8, 55, 0
10, 54154, Note_on_c, 8, 79, 0
10, 54180, Note_on_c, 8, 57, 127
10, 54180, Note_on_c, 8, 81, 127
10, 54186, Note_on_c, 8, 52, 0
10, 54186, Note_on_c, 8, 76, 0
10, 54207, Note_on_c, 8, 57, 0
10, 54207, Note_on_c, 8, 81, 0
10, 54210, Note_on_c, 8, 45, 122
10, 54210, Note_on_c, 8, 69, 122
10, 54240, Note_on_c, 8, 50, 127
10, 54240, Note_on_c, 8, 74, 127
10, 54241, Note_on_c, 8, 69, 0
10, 54241, Note_on_c, 8, 45, 0
10, 54270, Note_on_c, 8, 52, 127
10, 54270, Note_on_c, 8, 76, 127
10, 54271, Note_on_c, 8, 50, 0
10, 54271, Note_on_c, 8, 74, 0
10, 54300, Note_on_c, 8, 54, 127
10, 54300, Note_on_c, 8, 78, 127
10, 54308, Note_on_c, 8, 52, 0
10, 54308, Note_on_c, 8, 76, 0
10, 54330, Note_on_c, 8, 50, 127
10, 54330, Note_on_c, 8, 74, 127
10, 54334, Note_on_c, 8, 54, 0
10, 54334, Note_on_c, 8, 78, 0
10, 54358, Note_on_c, 8, 50, 0
10, 54358, Note_on_c, 8, 74, 0
10, 54360, Note_on_c, 8, 55, 127
10, 54360, Note_on_c, 8, 79, 127
10, 54420, Note_on_c, 8, 52, 127
10, 54420, Note_on_c, 8, 76, 127
10, 54426, Note_on_c, 8, 79, 0
10, 54426, Note_on_c, 8, 55, 0
10, 54472, Note_on_c, 8, 52, 0
10, 54472, Note_on_c, 8, 76, 0
10, 54480, Note_on_c, 8, 50, 127
10, 54480, Note_on_c, 8, 74, 127
10, 54540, Note_on_c, 8, 49, 127
10, 54540, Note_on_c, 8, 73, 127
10, 54544, Note_on_c, 8, 74, 0
10, 54544, Note_on_c, 8, 50, 0
10, 54595, Note_on_c, 8, 49, 0
10, 54595, Note_on_c, 8, 73, 0
10, 54600, Note_on_c, 8, 47, 127
10, 54600, Note_on_c, 8, 71, 127
10, 54660, Note_on_c, 8, 46, 127
10, 54660, Note_on_c, 8, 70, 127
10, 54670, Note_on_c, 8, 71, 0
10, 54670, Note_on_c, 8, 47, 0
10, 54720, Note_on_c, 8, 47, 127
10, 54720, Note_on_c, 8, 71, 127
10, 54721, Note_on_c, 8, 46, 0
10, 54721, Note_on_c, 8, 70, 0
10, 54750, Note_on_c, 8, 46, 127
10, 54750, Note_on_c, 8, 70, 127
10, 54755, Note_on_c, 8, 47, 0
10, 54755, Note_on_c, 8, 71, 0
10, 54780, Note_on_c, 8, 47, 127
10, 54780, Note_on_c, 8, 71, 127
10, 54785, Note_on_c, 8, 46, 0
10, 54785, Note_on_c, 8, 70, 0
10, 54808, Note_on_c, 8, 47, 0
10, 54808, Note_on_c, 8, 71, 0
10, 54810, Note_on_c, 8, 49, 127
10, 54810, Note_on_c, 8, 73, 127
10, 54838, Note_on_c, 8, 73, 0
10, 54838, Note_on_c, 8, 49, 0
10, 54840, Note_on_c, 8, 50, 127
10, 54840, Note_on_c, 8, 74, 127
10, 54869, Note_on_c, 8, 74, 0
10, 54869, Note_on_c, 8, 50, 0
10, 54870, Note_on_c, 8, 47, 127
10, 54870, Note_on_c, 8, 71, 127
10, 54900, Note_on_c, 8, 71, 0
10, 54900, Note_on_c, 8, 47, 0
10, 54900, Note_on_c, 8, 52, 127
10, 54900, Note_on_c, 8, 76, 127
10, 54960, Note_on_c, 8, 55, 127
10, 54960, Note_on_c, 8, 79, 127
10, 54961, Note_on_c, 8, 76, 0
10, 54961, Note_on_c, 8, 52, 0
10, 55020, Note_on_c, 8, 57, 127
10, 55020, Note_on_c, 8, 81, 127
10, 55021, Note_on_c, 8, 55, 0
10, 55021, Note_on_c, 8, 79, 0
10, 55071, Note_on_c, 8, 57, 0
10, 55071, Note_on_c, 8, 81, 0
10, 55080, Note_on_c, 8, 50, 127
10, 55080, Note_on_c, 8, 74, 127
10, 55140, Note_on_c, 8, 74, 0
10, 55140, Note_on_c, 8, 50, 0
10, 55140, Note_on_c, 8, 54, 127
10, 55140, Note_on_c, 8, 78, 127
10, 55200, Note_on_c, 8, 55, 127
10, 55200, Note_on_c, 8, 79, 127
10, 55206, Note_on_c, 8, 78, 0
10, 55206, Note_on_c, 8, 54, 0
10, 55255, Note_on_c, 8, 55, 0
10, 55255, Note_on_c, 8, 79, 0
10, 55260, Note_on_c, 8, 49, 127
10, 55260, Note_on_c, 8, 73, 127
10, 55290, Note_on_c, 8, 47, 125
10, 55290, Note_on_c, 8, 71, 125
10, 55293, Note_on_c, 8, 73, 0
10, 55293, Note_on_c, 8, 49, 0
10, 55320, Note_on_c, 8, 49, 127
10, 55320, Note_on_c, 8, 73, 127
10, 55327, Note_on_c, 8, 47, 0
10, 55327, Note_on_c, 8, 71, 0
10, 55350, Note_on_c, 8, 50, 127
10, 55350, Note_on_c, 8, 74, 127
10, 55353, Note_on_c, 8, 49, 0
10, 55353, Note_on_c, 8, 73, 0
10, 55380, Note_on_c, 8, 52, 125
10, 55380, Note_on_c, 8, 76, 125
10, 55383, Note_on_c, 8, 50, 0
10, 55383, Note_on_c, 8, 74, 0
10, 55410, Note_on_c, 8, 49, 127
10, 55410, Note_on_c, 8, 73, 127
10, 55416, Note_on_c, 8, 52, 0
10, 55416, Note_on_c, 8, 76, 0
10, 55440, Note_on_c, 8, 46, 114
10, 55440, Note_on_c, 8, 70, 114
10, 55446, Note_on_c, 8, 49, 0
10, 55446, Note_on_c, 8, 73, 0
10, 55500, Note_on_c, 8, 47, 127
10, 55500, Note_on_c, 8, 71, 127
10, 55505, Note_on_c, 8, 46, 0
10, 55505, Note_on_c, 8, 70, 0
10, 55557, Note_on_c, 8, 47, 0
10, 55557, Note_on_c, 8, 71, 0
10, 55560, Note_on_c, 8, 59, 127
10, 55560, Note_on_c, 8, 83, 127
10, 55590, Note_on_c, 8, 57, 127
10, 55590, Note_on_c, 8, 81, 127
10, 55598, Note_on_c, 8, 83, 0
10, 55598, Note_on_c, 8, 59, 0
10, 55620, Note_on_c, 8, 55, 127
10, 55620, Note_on_c, 8, 79, 127
10, 55626, Note_on_c, 8, 57, 0
10, 55626, Note_on_c, 8, 81, 0
10, 55650, Note_on_c, 8, 54, 127
10, 55650, Note_on_c, 8, 78, 127
10, 55654, Note_on_c, 8, 55, 0
10, 55654, Note_on_c, 8, 79, 0
10, 55680, Note_on_c, 8, 52, 122
10, 55680, Note_on_c, 8, 76, 122
10, 55683, Note_on_c, 8, 54, 0
10, 55683, Note_on_c, 8, 78, 0
10, 55710, Note_on_c, 8, 50, 127
10, 55710, Note_on_c, 8, 74, 127
10, 55715, Note_on_c, 8, 52, 0
10, 55715, Note_on_c, 8, 76, 0
10, 55740, Note_on_c, 8, 49, 127
10, 55740, Note_on_c, 8, 73, 127
10, 55746, Note_on_c, 8, 50, 0
10, 55746, Note_on_c, 8, 74, 0
10, 55767, Note_on_c, 8, 49, 0
10, 55767, Note_on_c, 8, 73, 0
10, 55770, Note_on_c, 8, 52, 127
10, 55770, Note_on_c, 8, 76, 127
10, 55800, Note_on_c, 8, 50, 127
10, 55800, Note_on_c, 8, 74, 127
10, 55802, Note_on_c, 8, 76, 0
10, 55802, Note_on_c, 8, 52, 0
10, 55830, Note_on_c, 8, 49, 118
10, 55830, Note_on_c, 8, 73, 118
10, 55835, Note_on_c, 8, 50, 0
10, 55835, Note_on_c, 8, 74, 0
10, 55860, Note_on_c, 8, 47, 116
10, 55860, Note_on_c, 8, 71, 116
10, 55865, Note_on_c, 8, 49, 0
10, 55865, Note_on_c, 8, 73, 0
10, 55885, Note_on_c, 8, 47, 0
10, 55885, Note_on_c, 8, 71, 0
10, 55890, Note_on_c, 8, 45, 127
10, 55890, Note_on_c, 8, 69, 127
10, 55920, Note_on_c, 8, 43, 127
10, 55920, Note_on_c, 8, 67, 127
10, 55922, Note_on_c, 8, 69, 0
10, 55922, Note_on_c, 8, 45, 0
10, 55950, Note_on_c, 8, 42, 122
10, 55950, Note_on_c, 8, 66, 122
10, 55957, Note_on_c, 8, 43, 0
10, 55957, Note_on_c, 8, 67, 0
10, 55980, Note_on_c, 8, 40, 122
10, 55980, Note_on_c, 8, 52, 127
10, 55980, Note_on_c, 8, 64, 122
10, 55980, Note_on_c, 8, 76, 127
10, 55983, Note_on_c, 8, 42, 0
10, 55983, Note_on_c, 8, 66, 0
10, 56052, Note_on_c, 8, 64, 0
10, 56052, Note_on_c, 8, 52, 0
10, 56052, Note_on_c, 8, 76, 0
10, 56052, Note_on_c, 8, 40, 0
10, 56700, Note_on_c, 8, 53, 127
10, 56700, Note_on_c, 8, 41, 127
10, 56700, Note_on_c, 8, 77, 127
10, 56700, Note_on_c, 8, 65, 127
10, 56762, Note_on_c, 8, 65, 0
10, 56762, Note_on_c, 8, 41, 0
10, 56763, Note_on_c, 8, 77, 0
10, 56763, Note_on_c, 8, 53, 0
10, 57420, Note_on_c, 8, 54, 127
10, 57420, Note_on_c, 8, 42, 127
10, 57420, Note_on_c, 8, 78, 127
10, 57420, Note_on_c, 8, 66, 127
10, 57479, Note_on_c, 8, 78, 0
10, 57479, Note_on_c, 8, 54, 0
10, 57482, Note_on_c, 8, 42, 0
10, 57482, Note_on_c, 8, 66, 0
10, 58140, Note_on_c, 8, 59, 127
10, 58140, Note_on_c, 8, 83, 127
10, 58183, Note_on_c, 8, 83, 0
10, 58183, Note_on_c, 8, 59, 0
10, 58320, Note_on_c, 8, 54, 127
10, 58320, Note_on_c, 8, 78, 127
10, 58361, Note_on_c, 8, 78, 0
10, 58361, Note_on_c, 8, 54, 0
10, 58500, Note_on_c, 8, 47, 127
10, 58500, Note_on_c, 8, 71, 127
10, 59280, Note_on_c, 8, 71, 0
10, 59280, Note_on_c, 8, 47, 0
10, 59340, Note_on_c, 8, 47, 127
10, 59340, Note_on_c, 8, 71, 127
10, 59400, Note_on_c, 8, 52, 127
10, 59400, Note_on_c, 8, 76, 127
10, 59405, Note_on_c, 8, 71, 0
10, 59405, Note_on_c, 8, 47, 0
10, 59464, Note_on_c, 8, 52, 0
10, 59464, Note_on_c, 8, 76, 0
10, 59520, Note_on_c, 8, 49, 127
10, 59520, Note_on_c, 8, 73, 127
10, 59580, Note_on_c, 8, 54, 127
10, 59580, Note_on_c, 8, 78, 127
10, 59581, Note_on_c, 8, 73, 0
10, 59581, Note_on_c, 8, 49, 0
10, 59631, Note_on_c, 8, 54, 0
10, 59631, Note_on_c, 8, 78, 0
10, 59700, Note_on_c, 8, 50, 127
10, 59700, Note_on_c, 8, 74, 127
10, 59755, Note_on_c, 8, 74, 0
10, 59755, Note_on_c, 8, 50, 0
10, 59760, Note_on_c, 8, 55, 127
10, 59760, Note_on_c, 8, 79, 127
10, 59835, Note_on_c, 8, 79, 0
10, 59835, Note_on_c, 8, 55, 0
10, 59880, Note_on_c, 8, 54, 127
10, 59880, Note_on_c, 8, 78, 127
10, 59938, Note_on_c, 8, 78, 0
10, 59938, Note_on_c, 8, 54, 0
10, 59940, Note_on_c, 8, 52, 127
10, 59940, Note_on_c, 8, 76, 127
10, 60000, Note_on_c, 8, 54, 127
10, 60000, Note_on_c, 8, 78, 127
10, 60001, Note_on_c, 8, 76, 0
10, 60001, Note_on_c, 8, 52, 0
10, 60054, Note_on_c, 8, 54, 0
10, 60054, Note_on_c, 8, 78, 0
10, 60060, Note_on_c, 8, 42, 127
10, 60060, Note_on_c, 8, 66, 127
10, 60117, Note_on_c, 8, 66, 0
10, 60117, Note_on_c, 8, 42, 0
10, 60120, Note_on_c, 8, 47, 127
10, 60120, Note_on_c, 8, 71, 127
10, 60172, Note_on_c, 8, 71, 0
10, 60172, Note_on_c, 8, 47, 0
10, 60180, Note_on_c, 8, 59, 127
10, 60180, Note_on_c, 8, 83, 127
10, 60240, Note_on_c, 8, 57, 127
10, 60240, Note_on_c, 8, 81, 127
10, 60246, Note_on_c, 8, 83, 0
10, 60246, Note_on_c, 8, 59, 0
10, 60300, Note_on_c, 8, 55, 127
10, 60300, Note_on_c, 8, 79, 127
10, 60306, Note_on_c, 8, 57, 0
10, 60306, Note_on_c, 8, 81, 0
10, 60540, Note_on_c, 8, 59, 127
10, 60540, Note_on_c, 8, 83, 127
10, 60544, Note_on_c, 8, 55, 0
10, 60544, Note_on_c, 8, 79, 0
10, 60595, Note_on_c, 8, 59, 0
10, 60595, Note_on_c, 8, 83, 0
10, 60600, Note_on_c, 8, 55, 127
10, 60600, Note_on_c, 8, 79, 127
10, 60641, Note_on_c, 8, 79, 0
10, 60641, Note_on_c, 8, 55, 0
10, 60660, Note_on_c, 8, 52, 127
10, 60660, Note_on_c, 8, 76, 127
10, 60869, Note_on_c, 8, 76, 0
10, 60869, Note_on_c, 8, 52, 0
10, 60870, Note_on_c, 8, 64, 125
10, 60870, Note_on_c, 8, 88, 125
10, 60899, Note_on_c, 8, 88, 0
10, 60899, Note_on_c, 8, 64, 0
10, 60900, Note_on_c, 8, 64, 127
10, 60900, Note_on_c, 8, 88, 127
10, 60929, Note_on_c, 8, 88, 0
10, 60929, Note_on_c, 8, 64, 0
10, 60930, Note_on_c, 8, 52, 127
10, 60930, Note_on_c, 8, 76, 127
10, 60959, Note_on_c, 8, 76, 0
10, 60959, Note_on_c, 8, 52, 0
10, 60960, Note_on_c, 8, 52, 127
10, 60960, Note_on_c, 8, 76, 127
10, 60989, Note_on_c, 8, 76, 0
10, 60989, Note_on_c, 8, 52, 0
10, 60990, Note_on_c, 8, 50, 127
10, 60990, Note_on_c, 8, 74, 127
10, 61019, Note_on_c, 8, 74, 0
10, 61019, Note_on_c, 8, 50, 0
10, 61020, Note_on_c, 8, 50, 127
10, 61020, Note_on_c, 8, 74, 127
10, 61079, Note_on_c, 8, 74, 0
10, 61079, Note_on_c, 8, 50, 0
10, 61080, Note_on_c, 8, 55, 127
10, 61080, Note_on_c, 8, 79, 127
10, 61139, Note_on_c, 8, 79, 0
10, 61139, Note_on_c, 8, 55, 0
10, 61140, Note_on_c, 8, 49, 127
10, 61140, Note_on_c, 8, 73, 127
10, 61199, Note_on_c, 8, 73, 0
10, 61199, Note_on_c, 8, 49, 0
10, 61200, Note_on_c, 8, 54, 127
10, 61200, Note_on_c, 8, 78, 127
10, 61259, Note_on_c, 8, 78, 0
10, 61259, Note_on_c, 8, 54, 0
10, 61260, Note_on_c, 8, 47, 127
10, 61260, Note_on_c, 8, 71, 127
10, 61319, Note_on_c, 8, 71, 0
10, 61319, Note_on_c, 8, 47, 0
10, 61320, Note_on_c, 8, 52, 127
10, 61320, Note_on_c, 8, 76, 127
10, 61439, Note_on_c, 8, 76, 0
10, 61439, Note_on_c, 8, 52, 0
10, 61440, Note_on_c, 8, 54, 127
10, 61440, Note_on_c, 8, 78, 127
10, 61499, Note_on_c, 8, 78, 0
10, 61499, Note_on_c, 8, 54, 0
10, 61500, Note_on_c, 8, 55, 127
10, 61500, Note_on_c, 8, 79, 127
10, 61559, Note_on_c, 8, 79, 0
10, 61559, Note_on_c, 8, 55, 0
10, 61560, Note_on_c, 8, 52, 127
10, 61560, Note_on_c, 8, 76, 127
10, 61619, Note_on_c, 8, 76, 0
10, 61619, Note_on_c, 8, 52, 0
10, 61620, Note_on_c, 8, 54, 127
10, 61620, Note_on_c, 8, 78, 127
10, 61679, Note_on_c, 8, 78, 0
10, 61679, Note_on_c, 8, 54, 0
10, 61680, Note_on_c, 8, 42, 127
10, 61680, Note_on_c, 8, 66, 127
10, 61739, Note_on_c, 8, 66, 0
10, 61739, Note_on_c, 8, 42, 0
10, 61740, Note_on_c, 8, 59, 127
10, 61740, Note_on_c, 8, 83, 127
10, 61769, Note_on_c, 8, 83, 0
10, 61769, Note_on_c, 8, 59, 0
10, 61770, Note_on_c, 8, 54, 127
10, 61770, Note_on_c, 8, 78, 127
10, 61799, Note_on_c, 8, 78, 0
10, 61799, Note_on_c, 8, 54, 0
10, 61800, Note_on_c, 8, 54, 127
10, 61800, Note_on_c, 8, 78, 127
10, 61829, Note_on_c, 8, 78, 0
10, 61829, Note_on_c, 8, 54, 0
10, 61830, Note_on_c, 8, 50, 127
10, 61830, Note_on_c, 8, 74, 127
10, 61859, Note_on_c, 8, 74, 0
10, 61859, Note_on_c, 8, 50, 0
10, 61860, Note_on_c, 8, 50, 127
10, 61860, Note_on_c, 8, 74, 127
10, 61889, Note_on_c, 8, 74, 0
10, 61889, Note_on_c, 8, 50, 0
10, 61890, Note_on_c, 8, 47, 127
10, 61890, Note_on_c, 8, 71, 127
10, 61919, Note_on_c, 8, 71, 0
10, 61919, Note_on_c, 8, 47, 0
10, 61920, Note_on_c, 8, 47, 127
10, 61920, Note_on_c, 8, 71, 127
10, 61949, Note_on_c, 8, 71, 0
10, 61949, Note_on_c, 8, 47, 0
10, 61950, Note_on_c, 8, 50, 127
10, 61950, Note_on_c, 8, 74, 127
10, 61979, Note_on_c, 8, 74, 0
10, 61979, Note_on_c, 8, 50, 0
10, 61980, Note_on_c, 8, 50, 127
10, 61980, Note_on_c, 8, 74, 127
10, 62009, Note_on_c, 8, 74, 0
10, 62009, Note_on_c, 8, 50, 0
10, 62010, Note_on_c, 8, 47, 127
10, 62010, Note_on_c, 8, 71, 127
10, 62039, Note_on_c, 8, 71, 0
10, 62039, Note_on_c, 8, 47, 0
10, 62040, Note_on_c, 8, 47, 127
10, 62040, Note_on_c, 8, 71, 127
10, 62069, Note_on_c, 8, 71, 0
10, 62069, Note_on_c, 8, 47, 0
10, 62070, Note_on_c, 8, 43, 127
10, 62070, Note_on_c, 8, 67, 127
10, 62099, Note_on_c, 8, 67, 0
10, 62099, Note_on_c, 8, 43, 0
10, 62100, Note_on_c, 8, 43, 127
10, 62100, Note_on_c, 8, 67, 127
10, 62159, Note_on_c, 8, 67, 0
10, 62159, Note_on_c, 8, 43, 0
10, 62280, Note_on_c, 8, 50, 127
10, 62280, Note_on_c, 8, 74, 127
10, 62339, Note_on_c, 8, 74, 0
10, 62339, Note_on_c, 8, 50, 0
10, 62460, Note_on_c, 8, 55, 127
10, 62460, Note_on_c, 8, 79, 127
10, 62519, Note_on_c, 8, 79, 0
10, 62519, Note_on_c, 8, 55, 0
10, 62640, Note_on_c, 8, 43, 127
10, 62640, Note_on_c, 8, 67, 127
10, 62694, Note_on_c, 8, 67, 0
10, 62694, Note_on_c, 8, 43, 0
10, 62820, Note_on_c, 8, 50, 127
10, 62820, Note_on_c, 8, 74, 127
10, 62865, Note_on_c, 8, 74, 0
10, 62865, Note_on_c, 8, 50, 0
10, 63000, Note_on_c, 8, 38, 127
10, 63000, Note_on_c, 8, 62, 127
10, 63050, Note_on_c, 8, 62, 0
10, 63050, Note_on_c, 8, 38, 0
10, 63180, Note_on_c, 8, 43, 104
10, 63180, Note_on_c, 8, 67, 104
10, 63240, Note_on_c, 8, 67, 0
10, 63240, Note_on_c, 8, 43, 0
10, 63360, Note_on_c, 8, 50, 104
10, 63360, Note_on_c, 8, 74, 104
10, 63420, Note_on_c, 8, 74, 0
10, 63420, Note_on_c, 8, 50, 0
10, 63540, Note_on_c, 8, 55, 104
10, 63540, Note_on_c, 8, 79, 104
10, 63600, Note_on_c, 8, 79, 0
10, 63600, Note_on_c, 8, 55, 0
10, 63720, Note_on_c, 8, 55, 104
10, 63720, Note_on_c, 8, 79, 104
10, 63780, Note_on_c, 8, 79, 0
10, 63780, Note_on_c, 8, 55, 0
10, 63900, Note_on_c, 8, 62, 104
10, 63900, Note_on_c, 8, 86, 104
10, 63960, Note_on_c, 8, 86, 0
10, 63960, Note_on_c, 8, 62, 0
10, 64080, Note_on_c, 8, 50, 104
10, 64080, Note_on_c, 8, 74, 104
10, 64140, Note_on_c, 8, 74, 0
10, 64140, Note_on_c, 8, 50, 0
10, 64260, Note_on_c, 8, 55, 104
10, 64260, Note_on_c, 8, 79, 104
10, 64320, Note_on_c, 8, 79, 0
10, 64320, Note_on_c, 8, 55, 0
10, 64320, Note_on_c, 8, 55, 104
10, 64320, Note_on_c, 8, 79, 104
10, 64380, Note_on_c, 8, 79, 0
10, 64380, Note_on_c, 8, 55, 0
10, 64380, Note_on_c, 8, 54, 104
10, 64380, Note_on_c, 8, 78, 104
10, 64440, Note_on_c, 8, 78, 0
10, 64440, Note_on_c, 8, 54, 0
10, 64440, Note_on_c, 8, 52, 104
10, 64440, Note_on_c, 8, 76, 104
10, 64500, Note_on_c, 8, 76, 0
10, 64500, Note_on_c, 8, 52, 0
10, 64500, Note_on_c, 8, 55, 104
10, 64500, Note_on_c, 8, 79, 104
10, 64560, Note_on_c, 8, 79, 0
10, 64560, Note_on_c, 8, 55, 0
10, 64560, Note_on_c, 8, 52, 104
10, 64560, Note_on_c, 8, 76, 104
10, 64620, Note_on_c, 8, 76, 0
10, 64620, Note_on_c, 8, 52, 0
10, 64620, Note_on_c, 8, 45, 104
10, 64620, Note_on_c, 8, 69, 104
10, 64680, Note_on_c, 8, 69, 0
10, 64680, Note_on_c, 8, 45, 0
10, 64680, Note_on_c, 8, 57, 104
10, 64680, Note_on_c, 8, 81, 104
10, 64740, Note_on_c, 8, 81, 0
10, 64740, Note_on_c, 8, 57, 0
10, 64740, Note_on_c, 8, 55, 104
10, 64740, Note_on_c, 8, 79, 104
10, 64800, Note_on_c, 8, 79, 0
10, 64800, Note_on_c, 8, 55, 0
10, 64800, Note_on_c, 8, 54, 104
10, 64800, Note_on_c, 8, 78, 104
10, 64860, Note_on_c, 8, 78, 0
10, 64860, Note_on_c, 8, 54, 0
10, 64860, Note_on_c, 8, 57, 104
10, 64860, Note_on_c, 8, 81, 104
10, 64920, Note_on_c, 8, 81, 0
10, 64920, Note_on_c, 8, 57, 0
10, 64920, Note_on_c, 8, 54, 104
10, 64920, Note_on_c, 8, 78, 104
10, 64980, Note_on_c, 8, 78, 0
10, 64980, Note_on_c, 8, 54, 0
10, 64980, Note_on_c, 8, 47, 104
10, 64980, Note_on_c, 8, 71, 104
10, 65040, Note_on_c, 8, 71, 0
10, 65040, Note_on_c, 8, 47, 0
10, 65040, Note_on_c, 8, 59, 104
10, 65040, Note_on_c, 8, 83, 104
10, 65100, Note_on_c, 8, 83, 0
10, 65100, Note_on_c, 8, 59, 0
10, 65100, Note_on_c, 8, 57, 104
10, 65100, Note_on_c, 8, 81, 104
10, 65160, Note_on_c, 8, 81, 0
10, 65160, Note_on_c, 8, 57, 0
10, 65160, Note_on_c, 8, 55, 104
10, 65160, Note_on_c, 8, 79, 104
10, 65220, Note_on_c, 8, 79, 0
10, 65220, Note_on_c, 8, 55, 0
10, 65220, Note_on_c, 8, 59, 104
10, 65220, Note_on_c, 8, 83, 104
10, 65280, Note_on_c, 8, 83, 0
10, 65280, Note_on_c, 8, 59, 0
10, 65280, Note_on_c, 8, 55, 104
10, 65280, Note_on_c, 8, 79, 104
10, 65340, Note_on_c, 8, 79, 0
10, 65340, Note_on_c, 8, 55, 0
10, 65340, Note_on_c, 8, 52, 104
10, 65340, Note_on_c, 8, 76, 104
10, 65400, Note_on_c, 8, 76, 0
10, 65400, Note_on_c, 8, 52, 0
10, 65400, Note_on_c, 8, 64, 104
10, 65400, Note_on_c, 8, 88, 104
10, 65460, Note_on_c, 8, 88, 0
10, 65460, Note_on_c, 8, 64, 0
10, 65460, Note_on_c, 8, 62, 104
10, 65460, Note_on_c, 8, 86, 104
10, 65520, Note_on_c, 8, 86, 0
10, 65520, Note_on_c, 8, 62, 0
10, 65520, Note_on_c, 8, 61, 104
10, 65520, Note_on_c, 8, 85, 104
10, 65550, Note_on_c, 8, 85, 0
10, 65550, Note_on_c, 8, 61, 0
10, 65550, Note_on_c, 8, 64, 104
10, 65550, Note_on_c, 8, 88, 104
10, 65580, Note_on_c, 8, 88, 0
10, 65580, Note_on_c, 8, 64, 0
10, 65580, Note_on_c, 8, 64, 104
10, 65580, Note_on_c, 8, 88, 104
10, 65610, Note_on_c, 8, 88, 0
10, 65610, Note_on_c, 8, 64, 0
10, 65610, Note_on_c, 8, 61, 104
10, 65610, Note_on_c, 8, 85, 104
10, 65640, Note_on_c, 8, 85, 0
10, 65640, Note_on_c, 8, 61, 0
10, 65640, Note_on_c, 8, 61, 104
10, 65640, Note_on_c, 8, 85, 104
10, 65670, Note_on_c, 8, 85, 0
10, 65670, Note_on_c, 8, 61, 0
10, 65670, Note_on_c, 8, 57, 104
10, 65670, Note_on_c, 8, 81, 104
10, 65700, Note_on_c, 8, 81, 0
10, 65700, Note_on_c, 8, 57, 0
10, 65700, Note_on_c, 8, 57, 104
10, 65700, Note_on_c, 8, 81, 104
10, 65730, Note_on_c, 8, 81, 0
10, 65730, Note_on_c, 8, 57, 0
10, 65730, Note_on_c, 8, 61, 104
10, 65730, Note_on_c, 8, 85, 104
10, 65760, Note_on_c, 8, 85, 0
10, 65760, Note_on_c, 8, 61, 0
10, 65760, Note_on_c, 8, 61, 104
10, 65760, Note_on_c, 8, 85, 104
10, 65790, Note_on_c, 8, 85, 0
10, 65790, Note_on_c, 8, 61, 0
10, 65790, Note_on_c, 8, 57, 104
10, 65790, Note_on_c, 8, 81, 104
10, 65820, Note_on_c, 8, 81, 0
10, 65820, Note_on_c, 8, 57, 0
10, 65820, Note_on_c, 8, 57, 104
10, 65820, Note_on_c, 8, 81, 104
10, 65850, Note_on_c, 8, 81, 0
10, 65850, Note_on_c, 8, 57, 0
10, 65850, Note_on_c, 8, 54, 104
10, 65850, Note_on_c, 8, 78, 104
10, 65880, Note_on_c, 8, 78, 0
10, 65880, Note_on_c, 8, 54, 0
10, 65880, Note_on_c, 8, 54, 104
10, 65880, Note_on_c, 8, 78, 104
10, 65910, Note_on_c, 8, 78, 0
10, 65910, Note_on_c, 8, 54, 0
10, 65910, Note_on_c, 8, 57, 104
10, 65910, Note_on_c, 8, 81, 104
10, 65940, Note_on_c, 8, 81, 0
10, 65940, Note_on_c, 8, 57, 0
10, 65940, Note_on_c, 8, 57, 104
10, 65940, Note_on_c, 8, 81, 104
10, 65970, Note_on_c, 8, 81, 0
10, 65970, Note_on_c, 8, 57, 0
10, 65970, Note_on_c, 8, 54, 104
10, 65970, Note_on_c, 8, 78, 104
10, 66000, Note_on_c, 8, 78, 0
10, 66000, Note_on_c, 8, 54, 0
10, 66000, Note_on_c, 8, 54, 104
10, 66000, Note_on_c, 8, 78, 104
10, 66030, Note_on_c, 8, 78, 0
10, 66030, Note_on_c, 8, 54, 0
10, 66030, Note_on_c, 8, 50, 104
10, 66030, Note_on_c, 8, 74, 104
10, 66060, Note_on_c, 8, 74, 0
10, 66060, Note_on_c, 8, 50, 0
10, 66060, Note_on_c, 8, 50, 104
10, 66060, Note_on_c, 8, 74, 104
10, 66120, Note_on_c, 8, 74, 0
10, 66120, Note_on_c, 8, 50, 0
10, 66240, Note_on_c, 8, 45, 104
10, 66240, Note_on_c, 8, 69, 104
10, 66300, Note_on_c, 8, 69, 0
10, 66300, Note_on_c, 8, 45, 0
10, 66420, Note_on_c, 8, 38, 104
10, 66420, Note_on_c, 8, 62, 104
10, 66480, Note_on_c, 8, 62, 0
10, 66480, Note_on_c, 8, 38, 0
10, 66600, Note_on_c, 8, 50, 104
10, 66600, Note_on_c, 8, 74, 104
10, 66660, Note_on_c, 8, 74, 0
10, 66660, Note_on_c, 8, 50, 0
10, 66780, Note_on_c, 8, 45, 104
10, 66780, Note_on_c, 8, 69, 104
10, 66840, Note_on_c, 8, 69, 0
10, 66840, Note_on_c, 8, 45, 0
10, 66960, Note_on_c, 8, 57, 104
10, 66960, Note_on_c, 8, 81, 104
10, 67020, Note_on_c, 8, 81, 0
10, 67020, Note_on_c, 8, 57, 0
10, 67140, Note_on_c, 8, 50, 104
10, 67140, Note_on_c, 8, 74, 104
10, 67200, Note_on_c, 8, 74, 0
10, 67200, Note_on_c, 8, 50, 0
10, 67320, Note_on_c, 8, 57, 104
10, 67320, Note_on_c, 8, 81, 104
10, 67380, Note_on_c, 8, 81, 0
10, 67380, Note_on_c, 8, 57, 0
10, 67500, Note_on_c, 8, 62, 104
10, 67500, Note_on_c, 8, 86, 104
10, 67560, Note_on_c, 8, 86, 0
10, 67560, Note_on_c, 8, 62, 0
10, 67680, Note_on_c, 8, 50, 104
10, 67680, Note_on_c, 8, 74, 104
10, 67740, Note_on_c, 8, 74, 0
10, 67740, Note_on_c, 8, 50, 0
10, 67860, Note_on_c, 8, 57, 104
10, 67860, Note_on_c, 8, 81, 104
10, 67920, Note_on_c, 8, 81, 0
10, 67920, Note_on_c, 8, 57, 0
10, 68040, Note_on_c, 8, 69, 104
10, 68040, Note_on_c, 8, 93, 104
10, 68100, Note_on_c, 8, 93, 0
10, 68100, Note_on_c, 8, 69, 0
10, 68220, Note_on_c, 8, 62, 104
10, 68220, Note_on_c, 8, 86, 104
10, 68250, Note_on_c, 8, 86, 0
10, 68250, Note_on_c, 8, 62, 0
10, 68250, Note_on_c, 8, 62, 104
10, 68250, Note_on_c, 8, 86, 104
10, 68280, Note_on_c, 8, 86, 0
10, 68280, Note_on_c, 8, 62, 0
10, 68280, Note_on_c, 8, 62, 104
10, 68280, Note_on_c, 8, 86, 104
10, 68310, Note_on_c, 8, 86, 0
10, 68310, Note_on_c, 8, 62, 0
10, 68310, Note_on_c, 8, 57, 104
10, 68310, Note_on_c, 8, 81, 104
10, 68340, Note_on_c, 8, 81, 0
10, 68340, Note_on_c, 8, 57, 0
10, 68340, Note_on_c, 8, 57, 104
10, 68340, Note_on_c, 8, 81, 104
10, 68370, Note_on_c, 8, 81, 0
10, 68370, Note_on_c, 8, 57, 0
10, 68370, Note_on_c, 8, 54, 104
10, 68370, Note_on_c, 8, 78, 104
10, 68400, Note_on_c, 8, 78, 0
10, 68400, Note_on_c, 8, 54, 0
10, 68400, Note_on_c, 8, 54, 104
10, 68400, Note_on_c, 8, 78, 104
10, 68430, Note_on_c, 8, 78, 0
10, 68430, Note_on_c, 8, 54, 0
10, 68430, Note_on_c, 8, 57, 104
10, 68430, Note_on_c, 8, 81, 104
10, 68460, Note_on_c, 8, 81, 0
10, 68460, Note_on_c, 8, 57, 0
10, 68460, Note_on_c, 8, 57, 104
10, 68460, Note_on_c, 8, 81, 104
10, 68490, Note_on_c, 8, 81, 0
10, 68490, Note_on_c, 8, 57, 0
10, 68490, Note_on_c, 8, 54, 104
10, 68490, Note_on_c, 8, 78, 104
10, 68520, Note_on_c, 8, 78, 0
10, 68520, Note_on_c, 8, 54, 0
10, 68520, Note_on_c, 8, 54, 104
10, 68520, Note_on_c, 8, 78, 104
10, 68550, Note_on_c, 8, 78, 0
10, 68550, Note_on_c, 8, 54, 0
10, 68550, Note_on_c, 8, 50, 104
10, 68550, Note_on_c, 8, 74, 104
10, 68580, Note_on_c, 8, 74, 0
10, 68580, Note_on_c, 8, 50, 0
10, 68580, Note_on_c, 8, 50, 104
10, 68580, Note_on_c, 8, 74, 104
10, 68640, Note_on_c, 8, 74, 0
10, 68640, Note_on_c, 8, 50, 0
10, 68790, Note_on_c, 8, 50, 104
10, 68790, Note_on_c, 8, 74, 104
10, 68820, Note_on_c, 8, 74, 0
10, 68820, Note_on_c, 8, 50, 0
10, 68820, Note_on_c, 8, 50, 104
10, 68820, Note_on_c, 8, 74, 104
10, 68850, Note_on_c, 8, 74, 0
10, 68850, Note_on_c, 8, 50, 0
10, 68850, Note_on_c, 8, 50, 104
10, 68850, Note_on_c, 8, 74, 104
10, 68880, Note_on_c, 8, 74, 0
10, 68880, Note_on_c, 8, 50, 0
10, 68880, Note_on_c, 8, 50, 104
10, 68880, Note_on_c, 8, 74, 104
10, 68910, Note_on_c, 8, 74, 0
10, 68910, Note_on_c, 8, 50, 0
10, 68910, Note_on_c, 8, 50, 104
10, 68910, Note_on_c, 8, 74, 104
10, 68940, Note_on_c, 8, 74, 0
10, 68940, Note_on_c, 8, 50, 0
10, 68940, Note_on_c, 8, 43, 104
10, 68940, Note_on_c, 8, 67, 104
10, 68970, Note_on_c, 8, 67, 0
10, 68970, Note_on_c, 8, 43, 0
10, 68970, Note_on_c, 8, 67, 104
10, 68970, Note_on_c, 8, 91, 104
10, 69000, Note_on_c, 8, 91, 0
10, 69000, Note_on_c, 8, 67, 0
10, 69000, Note_on_c, 8, 67, 104
10, 69000, Note_on_c, 8, 91, 104
10, 69030, Note_on_c, 8, 91, 0
10, 69030, Note_on_c, 8, 67, 0
10, 69030, Note_on_c, 8, 62, 104
10, 69030, Note_on_c, 8, 86, 104
10, 69060, Note_on_c, 8, 86, 0
10, 69060, Note_on_c, 8, 62, 0
10, 69060, Note_on_c, 8, 62, 104
10, 69060, Note_on_c, 8, 86, 104
10, 69090, Note_on_c, 8, 86, 0
10, 69090, Note_on_c, 8, 62, 0
10, 69090, Note_on_c, 8, 59, 104
10, 69090, Note_on_c, 8, 83, 104
10, 69120, Note_on_c, 8, 83, 0
10, 69120, Note_on_c, 8, 59, 0
10, 69120, Note_on_c, 8, 59, 104
10, 69120, Note_on_c, 8, 83, 104
10, 69150, Note_on_c, 8, 83, 0
10, 69150, Note_on_c, 8, 59, 0
10, 69150, Note_on_c, 8, 62, 104
10, 69150, Note_on_c, 8, 86, 104
10, 69180, Note_on_c, 8, 86, 0
10, 69180, Note_on_c, 8, 62, 0
10, 69180, Note_on_c, 8, 62, 104
10, 69180, Note_on_c, 8, 86, 104
10, 69210, Note_on_c, 8, 86, 0
10, 69210, Note_on_c, 8, 62, 0
10, 69210, Note_on_c, 8, 59, 104
10, 69210, Note_on_c, 8, 83, 104
10, 69240, Note_on_c, 8, 83, 0
10, 69240, Note_on_c, 8, 59, 0
10, 69240, Note_on_c, 8, 59, 104
10, 69240, Note_on_c, 8, 83, 104
10, 69270, Note_on_c, 8, 83, 0
10, 69270, Note_on_c, 8, 59, 0
10, 69270, Note_on_c, 8, 55, 104
10, 69270, Note_on_c, 8, 79, 104
10, 69300, Note_on_c, 8, 79, 0
10, 69300, Note_on_c, 8, 55, 0
10, 69300, Note_on_c, 8, 55, 104
10, 69300, Note_on_c, 8, 79, 104
10, 69330, Note_on_c, 8, 79, 0
10, 69330, Note_on_c, 8, 55, 0
10, 69330, Note_on_c, 8, 50, 104
10, 69330, Note_on_c, 8, 74, 104
10, 69360, Note_on_c, 8, 74, 0
10, 69360, Note_on_c, 8, 50, 0
10, 69360, Note_on_c, 8, 50, 104
10, 69360, Note_on_c, 8, 74, 104
10, 69390, Note_on_c, 8, 74, 0
10, 69390, Note_on_c, 8, 50, 0
10, 69390, Note_on_c, 8, 47, 104
10, 69390, Note_on_c, 8, 71, 104
10, 69420, Note_on_c, 8, 71, 0
10, 69420, Note_on_c, 8, 47, 0
10, 69420, Note_on_c, 8, 47, 104
10, 69420, Note_on_c, 8, 71, 104
10, 69450, Note_on_c, 8, 71, 0
10, 69450, Note_on_c, 8, 47, 0
10, 69450, Note_on_c, 8, 43, 104
10, 69450, Note_on_c, 8, 67, 104
10, 69480, Note_on_c, 8, 67, 0
10, 69480, Note_on_c, 8, 43, 0
10, 69480, Note_on_c, 8, 43, 104
10, 69480, Note_on_c, 8, 67, 104
10, 69510, Note_on_c, 8, 67, 0
10, 69510, Note_on_c, 8, 43, 0
10, 69510, Note_on_c, 8, 55, 104
10, 69510, Note_on_c, 8, 79, 104
10, 69540, Note_on_c, 8, 79, 0
10, 69540, Note_on_c, 8, 55, 0
10, 69540, Note_on_c, 8, 55, 104
10, 69540, Note_on_c, 8, 79, 104
10, 69570, Note_on_c, 8, 79, 0
10, 69570, Note_on_c, 8, 55, 0
10, 69570, Note_on_c, 8, 55, 104
10, 69570, Note_on_c, 8, 79, 104
10, 69600, Note_on_c, 8, 79, 0
10, 69600, Note_on_c, 8, 55, 0
10, 69600, Note_on_c, 8, 55, 104
10, 69600, Note_on_c, 8, 79, 104
10, 69630, Note_on_c, 8, 79, 0
10, 69630, Note_on_c, 8, 55, 0
10, 69630, Note_on_c, 8, 55, 104
10, 69630, Note_on_c, 8, 79, 104
10, 69660, Note_on_c, 8, 79, 0
10, 69660, Note_on_c, 8, 55, 0
10, 69660, Note_on_c, 8, 48, 104
10, 69660, Note_on_c, 8, 72, 104
10, 69720, Note_on_c, 8, 72, 0
10, 69720, Note_on_c, 8, 48, 0
10, 69720, Note_on_c, 8, 60, 104
10, 69720, Note_on_c, 8, 84, 104
10, 69780, Note_on_c, 8, 84, 0
10, 69780, Note_on_c, 8, 60, 0
10, 69780, Note_on_c, 8, 57, 104
10, 69780, Note_on_c, 8, 81, 104
10, 69840, Note_on_c, 8, 81, 0
10, 69840, Note_on_c, 8, 57, 0
10, 69840, Note_on_c, 8, 54, 104
10, 69840, Note_on_c, 8, 78, 104
10, 69900, Note_on_c, 8, 78, 0
10, 69900, Note_on_c, 8, 54, 0
10, 69900, Note_on_c, 8, 59, 104
10, 69900, Note_on_c, 8, 83, 104
10, 69960, Note_on_c, 8, 83, 0
10, 69960, Note_on_c, 8, 59, 0
10, 69960, Note_on_c, 8, 55, 104
10, 69960, Note_on_c, 8, 79, 104
10, 70020, Note_on_c, 8, 79, 0
10, 70020, Note_on_c, 8, 55, 0
10, 70020, Note_on_c, 8, 52, 104
10, 70020, Note_on_c, 8, 76, 104
10, 70080, Note_on_c, 8, 76, 0
10, 70080, Note_on_c, 8, 52, 0
10, 70080, Note_on_c, 8, 57, 104
10, 70080, Note_on_c, 8, 81, 104
10, 70140, Note_on_c, 8, 81, 0
10, 70140, Note_on_c, 8, 57, 0
10, 70140, Note_on_c, 8, 54, 104
10, 70140, Note_on_c, 8, 78, 104
10, 70200, Note_on_c, 8, 78, 0
10, 70200, Note_on_c, 8, 54, 0
10, 70200, Note_on_c, 8, 50, 104
10, 70200, Note_on_c, 8, 74, 104
10, 70260, Note_on_c, 8, 74, 0
10, 70260, Note_on_c, 8, 50, 0
10, 70260, Note_on_c, 8, 55, 104
10, 70260, Note_on_c, 8, 79, 104
10, 70320, Note_on_c, 8, 79, 0
10, 70320, Note_on_c, 8, 55, 0
10, 70320, Note_on_c, 8, 52, 104
10, 70320, Note_on_c, 8, 76, 104
10, 70380, Note_on_c, 8, 76, 0
10, 70380, Note_on_c, 8, 52, 0
10, 70380, Note_on_c, 8, 48, 104
10, 70380, Note_on_c, 8, 72, 104
10, 70500, Note_on_c, 8, 72, 0
10, 70500, Note_on_c, 8, 48, 0
10, 70620, Note_on_c, 8, 48, 104
10, 70620, Note_on_c, 8, 72, 104
10, 70680, Note_on_c, 8, 72, 0
10, 70680, Note_on_c, 8, 48, 0
10, 70680, Note_on_c, 8, 45, 104
10, 70680, Note_on_c, 8, 69, 104
10, 70740, Note_on_c, 8, 69, 0
10, 70740, Note_on_c, 8, 45, 0
10, 70740, Note_on_c, 8, 50, 104
10, 70740, Note_on_c, 8, 74, 104
10, 70860, Note_on_c, 8, 74, 0
10, 70860, Note_on_c, 8, 50, 0
10, 70980, Note_on_c, 8, 50, 104
10, 70980, Note_on_c, 8, 74, 104
10, 71040, Note_on_c, 8, 74, 0
10, 71040, Note_on_c, 8, 50, 0
10, 71040, Note_on_c, 8, 47, 104
10, 71040, Note_on_c, 8, 71, 104
10, 71100, Note_on_c, 8, 71, 0
10, 71100, Note_on_c, 8, 47, 0
10, 71100, Note_on_c, 8, 52, 104
10, 71100, Note_on_c, 8, 76, 104
10, 71220, Note_on_c, 8, 76, 0
10, 71220, Note_on_c, 8, 52, 0
10, 71340, Note_on_c, 8, 52, 104
10, 71340, Note_on_c, 8, 76, 104
10, 71400, Note_on_c, 8, 76, 0
10, 71400, Note_on_c, 8, 52, 0
10, 71400, Note_on_c, 8, 48, 104
10, 71400, Note_on_c, 8, 72, 104
10, 71460, Note_on_c, 8, 72, 0
10, 71460, Note_on_c, 8, 48, 0
10, 71460, Note_on_c, 8, 45, 104
10, 71460, Note_on_c, 8, 69, 104
10, 71490, Note_on_c, 8, 69, 0
10, 71490, Note_on_c, 8, 45, 0
10, 71490, Note_on_c, 8, 60, 104
10, 71490, Note_on_c, 8, 84, 104
10, 71520, Note_on_c, 8, 84, 0
10, 71520, Note_on_c, 8, 60, 0
10, 71520, Note_on_c, 8, 60, 104
10, 71520, Note_on_c, 8, 84, 104
10, 71550, Note_on_c, 8, 84, 0
10, 71550, Note_on_c, 8, 60, 0
10, 71550, Note_on_c, 8, 57, 104
10, 71550, Note_on_c, 8, 81, 104
10, 71580, Note_on_c, 8, 81, 0
10, 71580, Note_on_c, 8, 57, 0
10, 71580, Note_on_c, 8, 57, 104
10, 71580, Note_on_c, 8, 81, 104
10, 71610, Note_on_c, 8, 81, 0
10, 71610, Note_on_c, 8, 57, 0
10, 71610, Note_on_c, 8, 54, 104
10, 71610, Note_on_c, 8, 78, 104
10, 71640, Note_on_c, 8, 78, 0
10, 71640, Note_on_c, 8, 54, 0
10, 71640, Note_on_c, 8, 54, 104
10, 71640, Note_on_c, 8, 78, 104
10, 71670, Note_on_c, 8, 78, 0
10, 71670, Note_on_c, 8, 54, 0
10, 71670, Note_on_c, 8, 57, 104
10, 71670, Note_on_c, 8, 81, 104
10, 71700, Note_on_c, 8, 81, 0
10, 71700, Note_on_c, 8, 57, 0
10, 71700, Note_on_c, 8, 57, 104
10, 71700, Note_on_c, 8, 81, 104
10, 71730, Note_on_c, 8, 81, 0
10, 71730, Note_on_c, 8, 57, 0
10, 71730, Note_on_c, 8, 54, 104
10, 71730, Note_on_c, 8, 78, 104
10, 71760, Note_on_c, 8, 78, 0
10, 71760, Note_on_c, 8, 54, 0
10, 71760, Note_on_c, 8, 54, 104
10, 71760, Note_on_c, 8, 78, 104
10, 71790, Note_on_c, 8, 78, 0
10, 71790, Note_on_c, 8, 54, 0
10, 71790, Note_on_c, 8, 50, 104
10, 71790, Note_on_c, 8, 74, 104
10, 71820, Note_on_c, 8, 74, 0
10, 71820, Note_on_c, 8, 50, 0
10, 71820, Note_on_c, 8, 50, 104
10, 71820, Note_on_c, 8, 74, 104
10, 71850, Note_on_c, 8, 74, 0
10, 71850, Note_on_c, 8, 50, 0
10, 71850, Note_on_c, 8, 54, 104
10, 71850, Note_on_c, 8, 78, 104
10, 71880, Note_on_c, 8, 78, 0
10, 71880, Note_on_c, 8, 54, 0
10, 71880, Note_on_c, 8, 54, 104
10, 71880, Note_on_c, 8, 78, 104
10, 71910, Note_on_c, 8, 78, 0
10, 71910, Note_on_c, 8, 54, 0
10, 71910, Note_on_c, 8, 50, 104
10, 71910, Note_on_c, 8, 74, 104
10, 71940, Note_on_c, 8, 74, 0
10, 71940, Note_on_c, 8, 50, 0
10, 71940, Note_on_c, 8, 50, 104
10, 71940, Note_on_c, 8, 74, 104
10, 71970, Note_on_c, 8, 74, 0
10, 71970, Note_on_c, 8, 50, 0
10, 71970, Note_on_c, 8, 47, 104
10, 71970, Note_on_c, 8, 71, 104
10, 72000, Note_on_c, 8, 71, 0
10, 72000, Note_on_c, 8, 47, 0
10, 72000, Note_on_c, 8, 47, 104
10, 72000, Note_on_c, 8, 71, 104
10, 72030, Note_on_c, 8, 71, 0
10, 72030, Note_on_c, 8, 47, 0
10, 72030, Note_on_c, 8, 50, 104
10, 72030, Note_on_c, 8, 74, 104
10, 72060, Note_on_c, 8, 74, 0
10, 72060, Note_on_c, 8, 50, 0
10, 72060, Note_on_c, 8, 50, 104
10, 72060, Note_on_c, 8, 74, 104
10, 72090, Note_on_c, 8, 74, 0
10, 72090, Note_on_c, 8, 50, 0
10, 72090, Note_on_c, 8, 47, 104
10, 72090, Note_on_c, 8, 71, 104
10, 72120, Note_on_c, 8, 71, 0
10, 72120, Note_on_c, 8, 47, 0
10, 72120, Note_on_c, 8, 47, 104
10, 72120, Note_on_c, 8, 71, 104
10, 72150, Note_on_c, 8, 71, 0
10, 72150, Note_on_c, 8, 47, 0
10, 72150, Note_on_c, 8, 43, 104
10, 72150, Note_on_c, 8, 67, 104
10, 72180, Note_on_c, 8, 67, 0
10, 72180, Note_on_c, 8, 43, 0
10, 72180, Note_on_c, 8, 43, 104
10, 72180, Note_on_c, 8, 67, 104
10, 72240, Note_on_c, 8, 67, 0
10, 72240, Note_on_c, 8, 43, 0
10, 72360, Note_on_c, 8, 50, 104
10, 72360, Note_on_c, 8, 74, 104
10, 72420, Note_on_c, 8, 74, 0
10, 72420, Note_on_c, 8, 50, 0
10, 72540, Note_on_c, 8, 55, 104
10, 72540, Note_on_c, 8, 79, 104
10, 72600, Note_on_c, 8, 79, 0
10, 72600, Note_on_c, 8, 55, 0
10, 72720, Note_on_c, 8, 43, 104
10, 72720, Note_on_c, 8, 67, 104
10, 72780, Note_on_c, 8, 67, 0
10, 72780, Note_on_c, 8, 43, 0
10, 72900, Note_on_c, 8, 38, 104
10, 72900, Note_on_c, 8, 62, 104
10, 72960, Note_on_c, 8, 62, 0
10, 72960, Note_on_c, 8, 38, 0
10, 73080, Note_on_c, 8, 50, 104
10, 73080, Note_on_c, 8, 74, 104
10, 73140, Note_on_c, 8, 74, 0
10, 73140, Note_on_c, 8, 50, 0
10, 73260, Note_on_c, 8, 55, 104
10, 73260, Note_on_c, 8, 79, 104
10, 73320, Note_on_c, 8, 79, 0
10, 73320, Note_on_c, 8, 55, 0
10, 73440, Note_on_c, 8, 50, 104
10, 73440, Note_on_c, 8, 74, 104
10, 73500, Note_on_c, 8, 74, 0
10, 73500, Note_on_c, 8, 50, 0
10, 73620, Note_on_c, 8, 43, 104
10, 73620, Note_on_c, 8, 67, 104
10, 73680, Note_on_c, 8, 67, 0
10, 73680, Note_on_c, 8, 43, 0
10, 73800, Note_on_c, 8, 55, 104
10, 73800, Note_on_c, 8, 79, 104
10, 73860, Note_on_c, 8, 79, 0
10, 73860, Note_on_c, 8, 55, 0
10, 73980, Note_on_c, 8, 62, 104
10, 73980, Note_on_c, 8, 86, 104
10, 74040, Note_on_c, 8, 86, 0
10, 74040, Note_on_c, 8, 62, 0
10, 74160, Note_on_c, 8, 50, 104
10, 74160, Note_on_c, 8, 74, 104
10, 74220, Note_on_c, 8, 74, 0
10, 74220, Note_on_c, 8, 50, 0
10, 74340, Note_on_c, 8, 55, 104
10, 74340, Note_on_c, 8, 79, 104
10, 74400, Note_on_c, 8, 79, 0
10, 74400, Note_on_c, 8, 55, 0
10, 74460, Note_on_c, 8, 43, 104
10, 74460, Note_on_c, 8, 67, 104
10, 74520, Note_on_c, 8, 67, 0
10, 74520, Note_on_c, 8, 43, 0
10, 74520, Note_on_c, 8, 48, 104
10, 74520, Note_on_c, 8, 72, 104
10, 74580, Note_on_c, 8, 72, 0
10, 74580, Note_on_c, 8, 48, 0
10, 74640, Note_on_c, 8, 45, 104
10, 74640, Note_on_c, 8, 69, 104
10, 74700, Note_on_c, 8, 69, 0
10, 74700, Note_on_c, 8, 45, 0
10, 74700, Note_on_c, 8, 50, 104
10, 74700, Note_on_c, 8, 74, 104
10, 74760, Note_on_c, 8, 74, 0
10, 74760, Note_on_c, 8, 50, 0
10, 74820, Note_on_c, 8, 47, 104
10, 74820, Note_on_c, 8, 71, 104
10, 74880, Note_on_c, 8, 71, 0
10, 74880, Note_on_c, 8, 47, 0
10, 74880, Note_on_c, 8, 52, 104
10, 74880, Note_on_c, 8, 76, 104
10, 74940, Note_on_c, 8, 76, 0
10, 74940, Note_on_c, 8, 52, 0
10, 75000, Note_on_c, 8, 50, 104
10, 75000, Note_on_c, 8, 74, 104
10, 75060, Note_on_c, 8, 74, 0
10, 75060, Note_on_c, 8, 50, 0
10, 75060, Note_on_c, 8, 48, 104
10, 75060, Note_on_c, 8, 72, 104
10, 75120, Note_on_c, 8, 72, 0
10, 75120, Note_on_c, 8, 48, 0
10, 75120, Note_on_c, 8, 50, 104
10, 75120, Note_on_c, 8, 74, 104
10, 75180, Note_on_c, 8, 74, 0
10, 75180, Note_on_c, 8, 50, 0
10, 75180, Note_on_c, 8, 38, 104
10, 75180, Note_on_c, 8, 62, 104
10, 75240, Note_on_c, 8, 62, 0
10, 75240, Note_on_c, 8, 38, 0
10, 75240, Note_on_c, 8, 43, 104
10, 75240, Note_on_c, 8, 67, 104
10, 75300, Note_on_c, 8, 67, 0
10, 75300, Note_on_c, 8, 43, 0
10, 75300, Note_on_c, 8, 55, 104
10, 75300, Note_on_c, 8, 79, 104
10, 75360, Note_on_c, 8, 79, 0
10, 75360, Note_on_c, 8, 55, 0
10, 75360, Note_on_c, 8, 53, 104
10, 75360, Note_on_c, 8, 77, 104
10, 75420, Note_on_c, 8, 77, 0
10, 75420, Note_on_c, 8, 53, 0
10, 75420, Note_on_c, 8, 52, 104
10, 75420, Note_on_c, 8, 76, 104
10, 75660, Note_on_c, 8, 76, 0
10, 75660, Note_on_c, 8, 52, 0
10, 75660, Note_on_c, 8, 55, 104
10, 75660, Note_on_c, 8, 79, 104
10, 75720, Note_on_c, 8, 79, 0
10, 75720, Note_on_c, 8, 55, 0
10, 75720, Note_on_c, 8, 52, 104
10, 75720, Note_on_c, 8, 76, 104
10, 75780, Note_on_c, 8, 76, 0
10, 75780, Note_on_c, 8, 52, 0
10, 75780, Note_on_c, 8, 48, 104
10, 75780, Note_on_c, 8, 72, 104
10, 75990, Note_on_c, 8, 72, 0
10, 75990, Note_on_c, 8, 48, 0
10, 75990, Note_on_c, 8, 60, 104
10, 75990, Note_on_c, 8, 84, 104
10, 76020, Note_on_c, 8, 84, 0
10, 76020, Note_on_c, 8, 60, 0
10, 76020, Note_on_c, 8, 60, 104
10, 76020, Note_on_c, 8, 84, 104
10, 76050, Note_on_c, 8, 84, 0
10, 76050, Note_on_c, 8, 60, 0
10, 76050, Note_on_c, 8, 48, 104
10, 76050, Note_on_c, 8, 72, 104
10, 76080, Note_on_c, 8, 72, 0
10, 76080, Note_on_c, 8, 48, 0
10, 76080, Note_on_c, 8, 48, 104
10, 76080, Note_on_c, 8, 72, 104
10, 76110, Note_on_c, 8, 72, 0
10, 76110, Note_on_c, 8, 48, 0
10, 76110, Note_on_c, 8, 47, 104
10, 76110, Note_on_c, 8, 71, 104
10, 76140, Note_on_c, 8, 71, 0
10, 76140, Note_on_c, 8, 47, 0
10, 76140, Note_on_c, 8, 47, 104
10, 76140, Note_on_c, 8, 71, 104
10, 76200, Note_on_c, 8, 71, 0
10, 76200, Note_on_c, 8, 47, 0
10, 76200, Note_on_c, 8, 52, 104
10, 76200, Note_on_c, 8, 76, 104
10, 76260, Note_on_c, 8, 76, 0
10, 76260, Note_on_c, 8, 52, 0
10, 76260, Note_on_c, 8, 45, 104
10, 76260, Note_on_c, 8, 69, 104
10, 76320, Note_on_c, 8, 69, 0
10, 76320, Note_on_c, 8, 45, 0
10, 76320, Note_on_c, 8, 50, 104
10, 76320, Note_on_c, 8, 74, 104
10, 76380, Note_on_c, 8, 74, 0
10, 76380, Note_on_c, 8, 50, 0
10, 76380, Note_on_c, 8, 43, 104
10, 76380, Note_on_c, 8, 67, 104
10, 76440, Note_on_c, 8, 67, 0
10, 76440, Note_on_c, 8, 43, 0
10, 76440, Note_on_c, 8, 48, 104
10, 76440, Note_on_c, 8, 72, 104
10, 76560, Note_on_c, 8, 72, 0
10, 76560, Note_on_c, 8, 48, 0
10, 76560, Note_on_c, 8, 50, 104
10, 76560, Note_on_c, 8, 74, 104
10, 76620, Note_on_c, 8, 74, 0
10, 76620, Note_on_c, 8, 50, 0
10, 76620, Note_on_c, 8, 52, 104
10, 76620, Note_on_c, 8, 76, 104
10, 76680, Note_on_c, 8, 76, 0
10, 76680, Note_on_c, 8, 52, 0
10, 76680, Note_on_c, 8, 48, 104
10, 76680, Note_on_c, 8, 72, 104
10, 76740, Note_on_c, 8, 72, 0
10, 76740, Note_on_c, 8, 48, 0
10, 76740, Note_on_c, 8, 50, 104
10, 76740, Note_on_c, 8, 74, 104
10, 76800, Note_on_c, 8, 74, 0
10, 76800, Note_on_c, 8, 50, 0
10, 76800, Note_on_c, 8, 38, 104
10, 76800, Note_on_c, 8, 62, 104
10, 76860, Note_on_c, 8, 62, 0
10, 76860, Note_on_c, 8, 38, 0
10, 76860, Note_on_c, 8, 43, 104
10, 76860, Note_on_c, 8, 67, 104
10, 77040, Note_on_c, 8, 67, 0
10, 77040, Note_on_c, 8, 43, 0
10, 77040, End_track
11, 0, Start_track
11, 0, MIDI_port, 0
11, 0, End_track
12, 0, Start_track
12, 0, MIDI_port, 0
12, 0, Title_t, "Brandenburg"
12, 0, End_track
13, 0, Start_track
13, 0, MIDI_port, 0
13, 0, Title_t, "Concerto #4"
13, 0, End_track
14, 0, Start_track
14, 0, MIDI_port, 0
14, 0, Title_t, "by J.S.Bach"
14, 0, End_track
15, 0, Start_track
15, 0, MIDI_port, 0
15, 0, Title_t, "1st Mvt."
15, 0, End_track
0, 0, End_of_file
