0, 0, Header, 1, 27, 240
1, 0, Start_track
1, 0, Time_signature, 4, 2, 24, 8
1, 0, Tempo, 750000
1, 0, Marker_t, "Section A"
1, 45192, Tempo, 779221
1, 45408, Tempo, 810811
1, 45756, Tempo, 869565
1, 46080, Time_signature, 9, 3, 36, 8
1, 46080, Tempo, 434783
1, 46080, Marker_t, "Section B"
1, 46308, Tempo, 370370
1, 199920, Tempo, 377358
1, 200280, Tempo, 392157
1, 200520, Time_signature, 4, 2, 24, 8
1, 200520, Tempo, 750000
1, 200520, Marker_t, "Section C (Closing)"
1, 219252, Tempo, 779221
1, 219576, Tempo, 845070
1, 219720, Time_signature, 9, 3, 36, 8
1, 219720, Tempo, 370370
1, 219720, Marker_t, "Section B Repeat"
1, 374604, Tempo, 382166
1, 374904, Tempo, 392157
1, 375084, Tempo, 437956
1, 375240, Time_signature, 4, 2, 24, 8
1, 375240, Tempo, 750000
1, 375240, Marker_t, "Section C (Closing) Repeat"
1, 393588, Tempo, 789474
1, 393840, Tempo, 821918
1, 394332, Tempo, 983607
1, 394380, Tempo, 1875000
1, 394440, Tempo, 750000
1, 394440, End_track
2, 0, Start_track
2, 0, Title_t, "Trumpet"
2, 0, Program_c, 0, 56
2, 0, Control_c, 0, 7, 127
2, 896, Note_on_c, 0, 81, 116
2, 923, Note_off_c, 0, 81, 64
2, 955, Note_on_c, 0, 81, 100
2, 1216, Note_off_c, 0, 81, 64
2, 1855, Note_on_c, 0, 86, 113
2, 1881, Note_off_c, 0, 86, 64
2, 1915, Note_on_c, 0, 86, 105
2, 2186, Note_off_c, 0, 86, 64
2, 2821, Note_on_c, 0, 74, 102
2, 2856, Note_off_c, 0, 74, 64
2, 2888, Note_on_c, 0, 81, 98
2, 3141, Note_off_c, 0, 81, 64
2, 3774, Note_on_c, 0, 78, 89
2, 3804, Note_off_c, 0, 78, 64
2, 3835, Note_on_c, 0, 79, 102
2, 4163, Note_off_c, 0, 79, 64
2, 4265, Note_on_c, 0, 79, 89
2, 4297, Note_off_c, 0, 79, 64
2, 4327, Note_on_c, 0, 79, 100
2, 4396, Note_off_c, 0, 79, 64
2, 4508, Note_on_c, 0, 76, 85
2, 4553, Note_off_c, 0, 76, 64
2, 4571, Note_on_c, 0, 81, 102
2, 4639, Note_off_c, 0, 81, 64
2, 4746, Note_on_c, 0, 76, 91
2, 4780, Note_off_c, 0, 76, 64
2, 4805, Note_on_c, 0, 78, 98
2, 4915, Note_off_c, 0, 78, 64
2, 5041, Note_on_c, 0, 74, 100
2, 5181, Note_off_c, 0, 74, 64
2, 8596, Note_on_c, 0, 85, 116
2, 8619, Note_off_c, 0, 85, 64
2, 8647, Note_on_c, 0, 85, 105
2, 8886, Note_off_c, 0, 85, 64
2, 9560, Note_on_c, 0, 81, 116
2, 9584, Note_off_c, 0, 81, 64
2, 9618, Note_on_c, 0, 81, 107
2, 9859, Note_off_c, 0, 81, 64
2, 10496, Note_on_c, 0, 74, 116
2, 10523, Note_off_c, 0, 74, 64
2, 10563, Note_on_c, 0, 76, 105
2, 10832, Note_off_c, 0, 76, 64
2, 11450, Note_on_c, 0, 85, 89
2, 11480, Note_off_c, 0, 85, 64
2, 11514, Note_on_c, 0, 83, 110
2, 11829, Note_off_c, 0, 83, 64
2, 11937, Note_on_c, 0, 83, 95
2, 11968, Note_off_c, 0, 83, 64
2, 11997, Note_on_c, 0, 83, 100
2, 12086, Note_off_c, 0, 83, 64
2, 12188, Note_on_c, 0, 81, 87
2, 12223, Note_off_c, 0, 81, 64
2, 12249, Note_on_c, 0, 83, 98
2, 12332, Note_off_c, 0, 83, 64
2, 12428, Note_on_c, 0, 80, 95
2, 12460, Note_off_c, 0, 80, 64
2, 12488, Note_on_c, 0, 81, 102
2, 12594, Note_off_c, 0, 81, 64
2, 12724, Note_on_c, 0, 85, 100
2, 12832, Note_off_c, 0, 85, 64
2, 22262, Note_on_c, 0, 80, 78
2, 22299, Note_off_c, 0, 80, 64
2, 22326, Note_on_c, 0, 81, 98
2, 22397, Note_off_c, 0, 81, 64
2, 22494, Note_on_c, 0, 83, 89
2, 22526, Note_off_c, 0, 83, 64
2, 22563, Note_on_c, 0, 81, 100
2, 22643, Note_on_c, 0, 80, 80
2, 22646, Note_off_c, 0, 81, 64
2, 22671, Note_off_c, 0, 80, 64
2, 22675, Note_on_c, 0, 81, 82
2, 22697, Note_on_c, 0, 80, 80
2, 22699, Note_off_c, 0, 81, 64
2, 22723, Note_off_c, 0, 80, 64
2, 22726, Note_on_c, 0, 81, 82
2, 22744, Note_on_c, 0, 80, 70
2, 22748, Note_off_c, 0, 81, 64
2, 22767, Note_on_c, 0, 81, 72
2, 22770, Note_off_c, 0, 80, 64
2, 22795, Note_on_c, 0, 80, 95
2, 22801, Note_off_c, 0, 81, 64
2, 22901, Note_off_c, 0, 80, 64
2, 22976, Note_on_c, 0, 81, 105
2, 23003, Note_off_c, 0, 81, 64
2, 23043, Note_on_c, 0, 81, 102
2, 23761, Note_off_c, 0, 81, 64
2, 61552, Note_on_c, 0, 81, 102
2, 61656, Note_off_c, 0, 81, 64
2, 61907, Note_on_c, 0, 79, 113
2, 62031, Note_off_c, 0, 79, 64
2, 62268, Note_on_c, 0, 78, 105
2, 62371, Note_off_c, 0, 78, 64
2, 62621, Note_on_c, 0, 78, 100
2, 62718, Note_off_c, 0, 78, 64
2, 62970, Note_on_c, 0, 81, 87
2, 63089, Note_off_c, 0, 81, 64
2, 63356, Note_on_c, 0, 83, 95
2, 63474, Note_off_c, 0, 83, 64
2, 63710, Note_on_c, 0, 79, 98
2, 63833, Note_off_c, 0, 79, 64
2, 64070, Note_on_c, 0, 78, 87
2, 64190, Note_off_c, 0, 78, 64
2, 64418, Note_on_c, 0, 76, 85
2, 64565, Note_off_c, 0, 76, 64
2, 64779, Note_on_c, 0, 81, 93
2, 64909, Note_off_c, 0, 81, 64
2, 65139, Note_on_c, 0, 79, 82
2, 65280, Note_off_c, 0, 79, 64
2, 65510, Note_on_c, 0, 78, 95
2, 65643, Note_off_c, 0, 78, 64
2, 65863, Note_on_c, 0, 83, 98
2, 65993, Note_off_c, 0, 83, 64
2, 66234, Note_on_c, 0, 81, 87
2, 66365, Note_off_c, 0, 81, 64
2, 66581, Note_on_c, 0, 79, 100
2, 66672, Note_off_c, 0, 79, 64
2, 66812, Note_on_c, 0, 76, 80
2, 66880, Note_off_c, 0, 76, 64
2, 66936, Note_on_c, 0, 79, 85
2, 67699, Note_off_c, 0, 79, 64
2, 67798, Note_on_c, 0, 76, 82
2, 67859, Note_off_c, 0, 76, 64
2, 67895, Note_on_c, 0, 78, 80
2, 67955, Note_off_c, 0, 78, 64
2, 68025, Note_on_c, 0, 79, 100
2, 68129, Note_off_c, 0, 79, 64
2, 68129, Note_on_c, 0, 81, 80
2, 68185, Note_off_c, 0, 81, 64
2, 68244, Note_on_c, 0, 78, 91
2, 68297, Note_off_c, 0, 78, 64
2, 68370, Note_on_c, 0, 79, 100
2, 68475, Note_off_c, 0, 79, 64
2, 68482, Note_on_c, 0, 78, 82
2, 68558, Note_off_c, 0, 78, 64
2, 68599, Note_on_c, 0, 76, 82
2, 68657, Note_off_c, 0, 76, 64
2, 68725, Note_on_c, 0, 78, 105
2, 68819, Note_off_c, 0, 78, 64
2, 68837, Note_on_c, 0, 81, 78
2, 68903, Note_off_c, 0, 81, 64
2, 68946, Note_on_c, 0, 79, 87
2, 69000, Note_off_c, 0, 79, 64
2, 69072, Note_on_c, 0, 81, 100
2, 69166, Note_off_c, 0, 81, 64
2, 69310, Note_on_c, 0, 83, 87
2, 69378, Note_off_c, 0, 83, 64
2, 69425, Note_on_c, 0, 76, 93
2, 69539, Note_off_c, 0, 76, 64
2, 69674, Note_on_c, 0, 81, 89
2, 69731, Note_off_c, 0, 81, 64
2, 69810, Note_on_c, 0, 78, 102
2, 70021, Note_off_c, 0, 78, 64
2, 70932, Note_on_c, 0, 81, 110
2, 71105, Note_off_c, 0, 81, 64
2, 71997, Note_on_c, 0, 86, 105
2, 72176, Note_off_c, 0, 86, 64
2, 92517, Note_on_c, 0, 81, 113
2, 92665, Note_off_c, 0, 81, 64
2, 93601, Note_on_c, 0, 85, 105
2, 93770, Note_off_c, 0, 85, 64
2, 94691, Note_on_c, 0, 88, 116
2, 94865, Note_off_c, 0, 88, 64
2, 106896, Note_on_c, 0, 81, 110
2, 107016, Note_off_c, 0, 81, 64
2, 107240, Note_on_c, 0, 79, 107
2, 107371, Note_off_c, 0, 79, 64
2, 107603, Note_on_c, 0, 78, 100
2, 107722, Note_off_c, 0, 78, 64
2, 107983, Note_on_c, 0, 83, 107
2, 108098, Note_off_c, 0, 83, 64
2, 108314, Note_on_c, 0, 81, 105
2, 108440, Note_off_c, 0, 81, 64
2, 108687, Note_on_c, 0, 80, 105
2, 108813, Note_off_c, 0, 80, 64
2, 109043, Note_on_c, 0, 85, 95
2, 109182, Note_off_c, 0, 85, 64
2, 109382, Note_on_c, 0, 83, 98
2, 109526, Note_off_c, 0, 83, 64
2, 109742, Note_on_c, 0, 81, 107
2, 109886, Note_off_c, 0, 81, 64
2, 110109, Note_on_c, 0, 81, 102
2, 110247, Note_off_c, 0, 81, 64
2, 110490, Note_on_c, 0, 81, 105
2, 110630, Note_off_c, 0, 81, 64
2, 110845, Note_on_c, 0, 81, 102
2, 110987, Note_off_c, 0, 81, 64
2, 111234, Note_on_c, 0, 80, 105
2, 111354, Note_off_c, 0, 80, 64
2, 111574, Note_on_c, 0, 81, 102
2, 111704, Note_off_c, 0, 81, 64
2, 111935, Note_on_c, 0, 83, 107
2, 112703, Note_off_c, 0, 83, 64
2, 112746, Note_on_c, 0, 85, 87
2, 112812, Note_off_c, 0, 85, 64
2, 112843, Note_on_c, 0, 86, 82
2, 112901, Note_off_c, 0, 86, 64
2, 112989, Note_on_c, 0, 85, 102
2, 113093, Note_off_c, 0, 85, 64
2, 113222, Note_on_c, 0, 83, 78
2, 113282, Note_off_c, 0, 83, 64
2, 113351, Note_on_c, 0, 81, 98
2, 113457, Note_off_c, 0, 81, 64
2, 113577, Note_on_c, 0, 83, 80
2, 113631, Note_off_c, 0, 83, 64
2, 113705, Note_on_c, 0, 81, 98
2, 113748, Note_on_c, 0, 80, 100
2, 113759, Note_off_c, 0, 81, 64
2, 113793, Note_on_c, 0, 81, 80
2, 113795, Note_off_c, 0, 80, 64
2, 113828, Note_on_c, 0, 80, 64
2, 113852, Note_off_c, 0, 81, 64
2, 113883, Note_off_c, 0, 80, 64
2, 113934, Note_on_c, 0, 81, 91
2, 113986, Note_off_c, 0, 81, 64
2, 114065, Note_on_c, 0, 81, 102
2, 114438, Note_off_c, 0, 81, 64
2, 127297, Note_on_c, 0, 66, 70
2, 127349, Note_off_c, 0, 66, 64
2, 127423, Note_on_c, 0, 66, 89
2, 127563, Note_off_c, 0, 66, 64
2, 127650, Note_on_c, 0, 66, 64
2, 127711, Note_off_c, 0, 66, 64
2, 127779, Note_on_c, 0, 66, 87
2, 127911, Note_off_c, 0, 66, 64
2, 128013, Note_on_c, 0, 66, 63
2, 128070, Note_off_c, 0, 66, 64
2, 128138, Note_on_c, 0, 66, 85
2, 128292, Note_off_c, 0, 66, 64
2, 137010, Note_on_c, 0, 78, 78
2, 137066, Note_off_c, 0, 78, 64
2, 137130, Note_on_c, 0, 78, 89
2, 137278, Note_off_c, 0, 78, 64
2, 137357, Note_on_c, 0, 78, 87
2, 137415, Note_off_c, 0, 78, 64
2, 137483, Note_on_c, 0, 78, 95
2, 137634, Note_off_c, 0, 78, 64
2, 138084, Note_on_c, 0, 66, 85
2, 138137, Note_off_c, 0, 66, 64
2, 138209, Note_on_c, 0, 66, 80
2, 138365, Note_off_c, 0, 66, 64
2, 138457, Note_on_c, 0, 66, 68
2, 138502, Note_off_c, 0, 66, 64
2, 138579, Note_on_c, 0, 66, 95
2, 138731, Note_off_c, 0, 66, 64
2, 200531, Note_on_c, 0, 86, 113
2, 200819, Note_off_c, 0, 86, 64
2, 205250, Note_on_c, 0, 85, 105
2, 205280, Note_off_c, 0, 85, 64
2, 205313, Note_on_c, 0, 86, 102
2, 205565, Note_off_c, 0, 86, 64
2, 206210, Note_on_c, 0, 81, 105
2, 206239, Note_off_c, 0, 81, 64
2, 206273, Note_on_c, 0, 83, 102
2, 206519, Note_off_c, 0, 83, 64
2, 207180, Note_on_c, 0, 79, 107
2, 207209, Note_off_c, 0, 79, 64
2, 207242, Note_on_c, 0, 81, 102
2, 207489, Note_off_c, 0, 81, 64
2, 208134, Note_on_c, 0, 78, 85
2, 208164, Note_off_c, 0, 78, 64
2, 208199, Note_on_c, 0, 79, 102
2, 208475, Note_off_c, 0, 79, 64
2, 208623, Note_on_c, 0, 79, 91
2, 208654, Note_off_c, 0, 79, 64
2, 208679, Note_on_c, 0, 79, 102
2, 208744, Note_off_c, 0, 79, 64
2, 208855, Note_on_c, 0, 76, 80
2, 208894, Note_off_c, 0, 76, 64
2, 208919, Note_on_c, 0, 81, 98
2, 208989, Note_off_c, 0, 81, 64
2, 209098, Note_on_c, 0, 76, 80
2, 209134, Note_off_c, 0, 76, 64
2, 209165, Note_on_c, 0, 78, 95
2, 209267, Note_off_c, 0, 78, 64
2, 209405, Note_on_c, 0, 74, 93
2, 209524, Note_off_c, 0, 74, 64
2, 218933, Note_on_c, 0, 81, 107
2, 218960, Note_off_c, 0, 81, 64
2, 218993, Note_on_c, 0, 81, 107
2, 219074, Note_off_c, 0, 81, 64
2, 219170, Note_on_c, 0, 83, 85
2, 219203, Note_off_c, 0, 83, 64
2, 219235, Note_on_c, 0, 81, 110
2, 219379, Note_off_c, 0, 81, 64
2, 219472, Note_on_c, 0, 81, 98
2, 219495, Note_on_c, 0, 79, 87
2, 219498, Note_off_c, 0, 81, 64
2, 219520, Note_off_c, 0, 79, 64
2, 219521, Note_on_c, 0, 81, 87
2, 219547, Note_on_c, 0, 79, 89
2, 219560, Note_off_c, 0, 81, 64
2, 219625, Note_off_c, 0, 79, 64
2, 219651, Note_on_c, 0, 78, 95
2, 219680, Note_off_c, 0, 78, 64
2, 219717, Note_on_c, 0, 78, 107
2, 220115, Note_off_c, 0, 78, 64
2, 289898, Note_on_c, 0, 81, 107
2, 290147, Note_off_c, 0, 81, 64
2, 291213, Note_on_c, 0, 76, 78
2, 291282, Note_off_c, 0, 76, 64
2, 291350, Note_on_c, 0, 76, 98
2, 291458, Note_on_c, 0, 79, 70
2, 291473, Note_off_c, 0, 76, 64
2, 291525, Note_off_c, 0, 79, 64
2, 291577, Note_on_c, 0, 78, 66
2, 291615, Note_off_c, 0, 78, 64
2, 291698, Note_on_c, 0, 78, 98
2, 291804, Note_on_c, 0, 81, 64
2, 291811, Note_off_c, 0, 78, 64
2, 291858, Note_off_c, 0, 81, 64
2, 291915, Note_on_c, 0, 79, 68
2, 291951, Note_off_c, 0, 79, 64
2, 292067, Note_on_c, 0, 79, 102
2, 292229, Note_off_c, 0, 79, 64
2, 292427, Note_on_c, 0, 81, 91
2, 292558, Note_off_c, 0, 81, 64
2, 292779, Note_on_c, 0, 79, 85
2, 292905, Note_off_c, 0, 79, 64
2, 293130, Note_on_c, 0, 78, 85
2, 293251, Note_off_c, 0, 78, 64
2, 293370, Note_on_c, 0, 74, 82
2, 293429, Note_off_c, 0, 74, 64
2, 293510, Note_on_c, 0, 74, 100
2, 293613, Note_off_c, 0, 74, 64
2, 293613, Note_on_c, 0, 78, 76
2, 293687, Note_off_c, 0, 78, 64
2, 293732, Note_on_c, 0, 76, 64
2, 293768, Note_off_c, 0, 76, 64
2, 293858, Note_on_c, 0, 76, 98
2, 293966, Note_off_c, 0, 76, 64
2, 293971, Note_on_c, 0, 79, 64
2, 294027, Note_off_c, 0, 79, 64
2, 294083, Note_on_c, 0, 78, 74
2, 294122, Note_off_c, 0, 78, 64
2, 294225, Note_on_c, 0, 78, 102
2, 294423, Note_off_c, 0, 78, 64
2, 296745, Note_on_c, 0, 81, 105
2, 296896, Note_off_c, 0, 81, 64
2, 297108, Note_on_c, 0, 81, 93
2, 297256, Note_off_c, 0, 81, 64
2, 297489, Note_on_c, 0, 83, 113
2, 297659, Note_off_c, 0, 83, 64
2, 321430, Note_on_c, 0, 62, 63
2, 321479, Note_off_c, 0, 62, 64
2, 321558, Note_on_c, 0, 62, 85
2, 321693, Note_off_c, 0, 62, 64
2, 321794, Note_on_c, 0, 62, 78
2, 321853, Note_off_c, 0, 62, 64
2, 321925, Note_on_c, 0, 62, 87
2, 322060, Note_off_c, 0, 62, 64
2, 322159, Note_on_c, 0, 62, 64
2, 322209, Note_off_c, 0, 62, 64
2, 322298, Note_on_c, 0, 62, 95
2, 322449, Note_off_c, 0, 62, 64
2, 323610, Note_on_c, 0, 62, 76
2, 323660, Note_off_c, 0, 62, 64
2, 323741, Note_on_c, 0, 62, 91
2, 323878, Note_off_c, 0, 62, 64
2, 323973, Note_on_c, 0, 62, 78
2, 324035, Note_off_c, 0, 62, 64
2, 324118, Note_on_c, 0, 62, 95
2, 324238, Note_off_c, 0, 62, 64
2, 324339, Note_on_c, 0, 62, 82
2, 324402, Note_off_c, 0, 62, 64
2, 324485, Note_on_c, 0, 62, 89
2, 324618, Note_off_c, 0, 62, 64
2, 364801, Note_on_c, 0, 81, 98
2, 364918, Note_off_c, 0, 81, 64
2, 365154, Note_on_c, 0, 79, 98
2, 365274, Note_off_c, 0, 79, 64
2, 365514, Note_on_c, 0, 78, 95
2, 365638, Note_off_c, 0, 78, 64
2, 365874, Note_on_c, 0, 78, 89
2, 366009, Note_off_c, 0, 78, 64
2, 366221, Note_on_c, 0, 81, 85
2, 366340, Note_off_c, 0, 81, 64
2, 366578, Note_on_c, 0, 83, 95
2, 366687, Note_off_c, 0, 83, 64
2, 366939, Note_on_c, 0, 79, 89
2, 367056, Note_off_c, 0, 79, 64
2, 367276, Note_on_c, 0, 78, 85
2, 367398, Note_off_c, 0, 78, 64
2, 367634, Note_on_c, 0, 76, 93
2, 367771, Note_off_c, 0, 76, 64
2, 368005, Note_on_c, 0, 81, 95
2, 368126, Note_off_c, 0, 81, 64
2, 368366, Note_on_c, 0, 79, 93
2, 368489, Note_off_c, 0, 79, 64
2, 368718, Note_on_c, 0, 78, 89
2, 368858, Note_off_c, 0, 78, 64
2, 369099, Note_on_c, 0, 83, 91
2, 369222, Note_off_c, 0, 83, 64
2, 369472, Note_on_c, 0, 81, 89
2, 369593, Note_off_c, 0, 81, 64
2, 369819, Note_on_c, 0, 79, 91
2, 369918, Note_off_c, 0, 79, 64
2, 370048, Note_on_c, 0, 76, 85
2, 370116, Note_off_c, 0, 76, 64
2, 370179, Note_on_c, 0, 79, 98
2, 371038, Note_off_c, 0, 79, 64
2, 371049, Note_on_c, 0, 76, 82
2, 371123, Note_off_c, 0, 76, 64
2, 371158, Note_on_c, 0, 78, 82
2, 371216, Note_off_c, 0, 78, 64
2, 371287, Note_on_c, 0, 79, 100
2, 371394, Note_off_c, 0, 79, 64
2, 371394, Note_on_c, 0, 81, 78
2, 371461, Note_off_c, 0, 81, 64
2, 371504, Note_on_c, 0, 78, 78
2, 371553, Note_off_c, 0, 78, 64
2, 371632, Note_on_c, 0, 79, 100
2, 371745, Note_off_c, 0, 79, 64
2, 371751, Note_on_c, 0, 78, 76
2, 371819, Note_off_c, 0, 78, 64
2, 371855, Note_on_c, 0, 76, 76
2, 371916, Note_off_c, 0, 76, 64
2, 371983, Note_on_c, 0, 78, 98
2, 372075, Note_off_c, 0, 78, 64
2, 372087, Note_on_c, 0, 81, 70
2, 372152, Note_off_c, 0, 81, 64
2, 372192, Note_on_c, 0, 79, 80
2, 372257, Note_off_c, 0, 79, 64
2, 372323, Note_on_c, 0, 81, 100
2, 372423, Note_off_c, 0, 81, 64
2, 372546, Note_on_c, 0, 83, 82
2, 372623, Note_off_c, 0, 83, 64
2, 372669, Note_on_c, 0, 76, 89
2, 372782, Note_off_c, 0, 76, 64
2, 372930, Note_on_c, 0, 81, 85
2, 372989, Note_off_c, 0, 81, 64
2, 373070, Note_on_c, 0, 78, 102
2, 373266, Note_off_c, 0, 78, 64
2, 374163, Note_on_c, 0, 81, 113
2, 374314, Note_off_c, 0, 81, 64
2, 374314, End_track
3, 0, Start_track
3, 0, Title_t, "Trumpet"
3, 0, Program_c, 1, 56
3, 0, Control_c, 1, 7, 127
3, 899, Note_on_c, 1, 78, 113
3, 924, Note_off_c, 1, 78, 64
3, 956, Note_on_c, 1, 78, 105
3, 1221, Note_off_c, 1, 78, 64
3, 1854, Note_on_c, 1, 81, 113
3, 1884, Note_off_c, 1, 81, 64
3, 1920, Note_on_c, 1, 81, 113
3, 2179, Note_off_c, 1, 81, 64
3, 2816, Note_on_c, 1, 79, 113
3, 2853, Note_off_c, 1, 79, 64
3, 2885, Note_on_c, 1, 81, 100
3, 3144, Note_off_c, 1, 81, 64
3, 3764, Note_on_c, 1, 74, 102
3, 3795, Note_off_c, 1, 74, 64
3, 3824, Note_on_c, 1, 76, 98
3, 4170, Note_off_c, 1, 76, 64
3, 4266, Note_on_c, 1, 76, 95
3, 4300, Note_off_c, 1, 76, 64
3, 4331, Note_on_c, 1, 76, 102
3, 4428, Note_off_c, 1, 76, 64
3, 4560, Note_on_c, 1, 76, 95
3, 4664, Note_off_c, 1, 76, 64
3, 4792, Note_on_c, 1, 74, 98
3, 4905, Note_off_c, 1, 74, 64
3, 5037, Note_on_c, 1, 69, 100
3, 5164, Note_off_c, 1, 69, 64
3, 8588, Note_on_c, 1, 81, 116
3, 8614, Note_off_c, 1, 81, 64
3, 8650, Note_on_c, 1, 81, 107
3, 8897, Note_off_c, 1, 81, 64
3, 9538, Note_on_c, 1, 79, 116
3, 9569, Note_off_c, 1, 79, 64
3, 9608, Note_on_c, 1, 78, 113
3, 9870, Note_off_c, 1, 78, 64
3, 10513, Note_on_c, 1, 81, 110
3, 10539, Note_off_c, 1, 81, 64
3, 10575, Note_on_c, 1, 81, 110
3, 10831, Note_off_c, 1, 81, 64
3, 11452, Note_on_c, 1, 81, 100
3, 11480, Note_off_c, 1, 81, 64
3, 11514, Note_on_c, 1, 78, 105
3, 11839, Note_off_c, 1, 78, 64
3, 11953, Note_on_c, 1, 78, 93
3, 11984, Note_off_c, 1, 78, 64
3, 12006, Note_on_c, 1, 76, 105
3, 12111, Note_off_c, 1, 76, 64
3, 12249, Note_on_c, 1, 76, 102
3, 12330, Note_off_c, 1, 76, 64
3, 12479, Note_on_c, 1, 76, 100
3, 12584, Note_off_c, 1, 76, 64
3, 12726, Note_on_c, 1, 81, 107
3, 12823, Note_off_c, 1, 81, 64
3, 22268, Note_on_c, 1, 76, 116
3, 22295, Note_off_c, 1, 76, 64
3, 22321, Note_on_c, 1, 76, 102
3, 22407, Note_off_c, 1, 76, 64
3, 22502, Note_on_c, 1, 78, 100
3, 22532, Note_off_c, 1, 78, 64
3, 22563, Note_on_c, 1, 76, 119
3, 22728, Note_off_c, 1, 76, 64
3, 22803, Note_on_c, 1, 76, 116
3, 22919, Note_off_c, 1, 76, 64
3, 23043, Note_on_c, 1, 76, 116
3, 23758, Note_off_c, 1, 76, 64
3, 61557, Note_on_c, 1, 76, 102
3, 61674, Note_off_c, 1, 76, 64
3, 61905, Note_on_c, 1, 76, 102
3, 62016, Note_off_c, 1, 76, 64
3, 62265, Note_on_c, 1, 74, 98
3, 62385, Note_off_c, 1, 74, 64
3, 62625, Note_on_c, 1, 74, 102
3, 62735, Note_off_c, 1, 74, 64
3, 62976, Note_on_c, 1, 78, 91
3, 63093, Note_off_c, 1, 78, 64
3, 63350, Note_on_c, 1, 79, 100
3, 63465, Note_off_c, 1, 79, 64
3, 63707, Note_on_c, 1, 76, 95
3, 63827, Note_off_c, 1, 76, 64
3, 64063, Note_on_c, 1, 74, 89
3, 64187, Note_off_c, 1, 74, 64
3, 64423, Note_on_c, 1, 69, 82
3, 64563, Note_off_c, 1, 69, 64
3, 64785, Note_on_c, 1, 78, 93
3, 64905, Note_off_c, 1, 78, 64
3, 65154, Note_on_c, 1, 76, 87
3, 65280, Note_off_c, 1, 76, 64
3, 65505, Note_on_c, 1, 74, 89
3, 65636, Note_off_c, 1, 74, 64
3, 65874, Note_on_c, 1, 76, 85
3, 66000, Note_off_c, 1, 76, 64
3, 66228, Note_on_c, 1, 78, 85
3, 66351, Note_off_c, 1, 78, 64
3, 66588, Note_on_c, 1, 83, 89
3, 66691, Note_off_c, 1, 83, 64
3, 66822, Note_on_c, 1, 79, 78
3, 66887, Note_off_c, 1, 79, 64
3, 66939, Note_on_c, 1, 76, 93
3, 67704, Note_off_c, 1, 76, 64
3, 67793, Note_on_c, 1, 69, 85
3, 67854, Note_off_c, 1, 69, 64
3, 67911, Note_on_c, 1, 74, 98
3, 67969, Note_off_c, 1, 74, 64
3, 68030, Note_on_c, 1, 76, 95
3, 68118, Note_off_c, 1, 76, 64
3, 68138, Note_on_c, 1, 69, 62
3, 68192, Note_off_c, 1, 69, 64
3, 68252, Note_on_c, 1, 74, 85
3, 68311, Note_off_c, 1, 74, 64
3, 68379, Note_on_c, 1, 76, 100
3, 68473, Note_off_c, 1, 76, 64
3, 68493, Note_on_c, 1, 74, 80
3, 68558, Note_off_c, 1, 74, 64
3, 68608, Note_on_c, 1, 73, 89
3, 68662, Note_off_c, 1, 73, 64
3, 68732, Note_on_c, 1, 74, 93
3, 68837, Note_off_c, 1, 74, 64
3, 68959, Note_on_c, 1, 69, 82
3, 69031, Note_off_c, 1, 69, 64
3, 69090, Note_on_c, 1, 66, 85
3, 69180, Note_off_c, 1, 66, 64
3, 69303, Note_on_c, 1, 62, 82
3, 69373, Note_off_c, 1, 62, 64
3, 69431, Note_on_c, 1, 69, 82
3, 69522, Note_off_c, 1, 69, 64
3, 69665, Note_on_c, 1, 76, 91
3, 69726, Note_off_c, 1, 76, 64
3, 69792, Note_on_c, 1, 74, 95
3, 70043, Note_off_c, 1, 74, 64
3, 70937, Note_on_c, 1, 78, 105
3, 71132, Note_off_c, 1, 78, 64
3, 71990, Note_on_c, 1, 81, 102
3, 72185, Note_off_c, 1, 81, 64
3, 92510, Note_on_c, 1, 76, 98
3, 92688, Note_off_c, 1, 76, 64
3, 93599, Note_on_c, 1, 81, 100
3, 93770, Note_off_c, 1, 81, 64
3, 94685, Note_on_c, 1, 85, 110
3, 94862, Note_off_c, 1, 85, 64
3, 106880, Note_on_c, 1, 76, 113
3, 107007, Note_off_c, 1, 76, 64
3, 107238, Note_on_c, 1, 76, 113
3, 107373, Note_off_c, 1, 76, 64
3, 107609, Note_on_c, 1, 74, 105
3, 107744, Note_off_c, 1, 74, 64
3, 107969, Note_on_c, 1, 74, 105
3, 108096, Note_off_c, 1, 74, 64
3, 108318, Note_on_c, 1, 76, 105
3, 108455, Note_off_c, 1, 76, 64
3, 108690, Note_on_c, 1, 76, 110
3, 108831, Note_off_c, 1, 76, 64
3, 109043, Note_on_c, 1, 76, 107
3, 109189, Note_off_c, 1, 76, 64
3, 109398, Note_on_c, 1, 78, 98
3, 109536, Note_off_c, 1, 78, 64
3, 109747, Note_on_c, 1, 78, 105
3, 109888, Note_off_c, 1, 78, 64
3, 110118, Note_on_c, 1, 78, 89
3, 110253, Note_off_c, 1, 78, 64
3, 110478, Note_on_c, 1, 76, 100
3, 110622, Note_off_c, 1, 76, 64
3, 110852, Note_on_c, 1, 74, 100
3, 110991, Note_off_c, 1, 74, 64
3, 111223, Note_on_c, 1, 76, 102
3, 111362, Note_off_c, 1, 76, 64
3, 111583, Note_on_c, 1, 78, 91
3, 111729, Note_off_c, 1, 78, 64
3, 111935, Note_on_c, 1, 76, 105
3, 113090, Note_off_c, 1, 76, 64
3, 113234, Note_on_c, 1, 76, 85
3, 113295, Note_off_c, 1, 76, 64
3, 113351, Note_on_c, 1, 76, 98
3, 113453, Note_off_c, 1, 76, 64
3, 113594, Note_on_c, 1, 78, 82
3, 113655, Note_off_c, 1, 78, 64
3, 113709, Note_on_c, 1, 76, 105
3, 113813, Note_off_c, 1, 76, 64
3, 113957, Note_on_c, 1, 76, 105
3, 114006, Note_off_c, 1, 76, 64
3, 114089, Note_on_c, 1, 76, 116
3, 114441, Note_off_c, 1, 76, 64
3, 127286, Note_on_c, 1, 66, 82
3, 127340, Note_off_c, 1, 66, 64
3, 127407, Note_on_c, 1, 66, 89
3, 127544, Note_off_c, 1, 66, 64
3, 127646, Note_on_c, 1, 66, 82
3, 127707, Note_off_c, 1, 66, 64
3, 127774, Note_on_c, 1, 66, 87
3, 127913, Note_off_c, 1, 66, 64
3, 128019, Note_on_c, 1, 66, 82
3, 128078, Note_off_c, 1, 66, 64
3, 128147, Note_on_c, 1, 66, 82
3, 128285, Note_off_c, 1, 66, 64
3, 138083, Note_on_c, 1, 66, 85
3, 138133, Note_off_c, 1, 66, 64
3, 138214, Note_on_c, 1, 66, 74
3, 138367, Note_off_c, 1, 66, 64
3, 138446, Note_on_c, 1, 66, 66
3, 138509, Note_off_c, 1, 66, 64
3, 138578, Note_on_c, 1, 66, 72
3, 138734, Note_off_c, 1, 66, 64
3, 200522, Note_on_c, 1, 81, 116
3, 200797, Note_off_c, 1, 81, 64
3, 205249, Note_on_c, 1, 81, 113
3, 205272, Note_off_c, 1, 81, 64
3, 205309, Note_on_c, 1, 81, 110
3, 205572, Note_off_c, 1, 81, 64
3, 206206, Note_on_c, 1, 78, 102
3, 206234, Note_off_c, 1, 78, 64
3, 206270, Note_on_c, 1, 74, 107
3, 206535, Note_off_c, 1, 74, 64
3, 207175, Note_on_c, 1, 76, 113
3, 207202, Note_off_c, 1, 76, 64
3, 207234, Note_on_c, 1, 76, 105
3, 207498, Note_off_c, 1, 76, 64
3, 208136, Note_on_c, 1, 74, 102
3, 208165, Note_off_c, 1, 74, 64
3, 208200, Note_on_c, 1, 76, 102
3, 208532, Note_off_c, 1, 76, 64
3, 208616, Note_on_c, 1, 76, 98
3, 208649, Note_off_c, 1, 76, 64
3, 208678, Note_on_c, 1, 76, 105
3, 208752, Note_off_c, 1, 76, 64
3, 208918, Note_on_c, 1, 76, 100
3, 209002, Note_off_c, 1, 76, 64
3, 209167, Note_on_c, 1, 74, 107
3, 209248, Note_off_c, 1, 74, 64
3, 209414, Note_on_c, 1, 69, 110
3, 209504, Note_off_c, 1, 69, 64
3, 218934, Note_on_c, 1, 76, 105
3, 218971, Note_off_c, 1, 76, 64
3, 218995, Note_on_c, 1, 78, 105
3, 219069, Note_off_c, 1, 78, 64
3, 219166, Note_on_c, 1, 79, 87
3, 219206, Note_off_c, 1, 79, 64
3, 219236, Note_on_c, 1, 78, 105
3, 219305, Note_off_c, 1, 78, 64
3, 219306, Note_on_c, 1, 76, 91
3, 219331, Note_off_c, 1, 76, 64
3, 219336, Note_on_c, 1, 78, 85
3, 219364, Note_off_c, 1, 78, 64
3, 219365, Note_on_c, 1, 76, 68
3, 219386, Note_off_c, 1, 76, 64
3, 219386, Note_on_c, 1, 78, 87
3, 219406, Note_on_c, 1, 76, 72
3, 219411, Note_off_c, 1, 78, 64
3, 219433, Note_off_c, 1, 76, 64
3, 219433, Note_on_c, 1, 78, 85
3, 219456, Note_on_c, 1, 76, 85
3, 219460, Note_off_c, 1, 78, 64
3, 219579, Note_off_c, 1, 76, 64
3, 219646, Note_on_c, 1, 74, 116
3, 219672, Note_off_c, 1, 74, 64
3, 219711, Note_on_c, 1, 74, 116
3, 220072, Note_off_c, 1, 74, 64
3, 289903, Note_on_c, 1, 76, 107
3, 290133, Note_off_c, 1, 76, 64
3, 291226, Note_on_c, 1, 69, 85
3, 291282, Note_off_c, 1, 69, 64
3, 291357, Note_on_c, 1, 69, 95
3, 291464, Note_on_c, 1, 76, 78
3, 291469, Note_off_c, 1, 69, 64
3, 291536, Note_off_c, 1, 76, 64
3, 291572, Note_on_c, 1, 74, 80
3, 291624, Note_off_c, 1, 74, 64
3, 291710, Note_on_c, 1, 74, 102
3, 291811, Note_off_c, 1, 74, 64
3, 291820, Note_on_c, 1, 78, 66
3, 291874, Note_off_c, 1, 78, 64
3, 291923, Note_on_c, 1, 76, 80
3, 291970, Note_off_c, 1, 76, 64
3, 292069, Note_on_c, 1, 76, 105
3, 292229, Note_off_c, 1, 76, 64
3, 292409, Note_on_c, 1, 76, 91
3, 292551, Note_off_c, 1, 76, 64
3, 292763, Note_on_c, 1, 76, 85
3, 292905, Note_off_c, 1, 76, 64
3, 293134, Note_on_c, 1, 74, 93
3, 293255, Note_off_c, 1, 74, 64
3, 293388, Note_on_c, 1, 66, 78
3, 293445, Note_off_c, 1, 66, 64
3, 293503, Note_on_c, 1, 66, 98
3, 293613, Note_on_c, 1, 74, 74
3, 293624, Note_off_c, 1, 66, 64
3, 293702, Note_off_c, 1, 74, 64
3, 293717, Note_on_c, 1, 69, 74
3, 293768, Note_off_c, 1, 69, 64
3, 293858, Note_on_c, 1, 69, 89
3, 293978, Note_off_c, 1, 69, 64
3, 293991, Note_on_c, 1, 76, 82
3, 294054, Note_off_c, 1, 76, 64
3, 294090, Note_on_c, 1, 74, 85
3, 294144, Note_off_c, 1, 74, 64
3, 294237, Note_on_c, 1, 74, 93
3, 294417, Note_off_c, 1, 74, 64
3, 296739, Note_on_c, 1, 78, 102
3, 296882, Note_off_c, 1, 78, 64
3, 297108, Note_on_c, 1, 78, 105
3, 297256, Note_off_c, 1, 78, 64
3, 297468, Note_on_c, 1, 79, 110
3, 297643, Note_off_c, 1, 79, 64
3, 321417, Note_on_c, 1, 62, 70
3, 321470, Note_off_c, 1, 62, 64
3, 321552, Note_on_c, 1, 62, 85
3, 321675, Note_off_c, 1, 62, 64
3, 321790, Note_on_c, 1, 62, 57
3, 321844, Note_off_c, 1, 62, 64
3, 321927, Note_on_c, 1, 62, 74
3, 322044, Note_off_c, 1, 62, 64
3, 322168, Note_on_c, 1, 62, 68
3, 322224, Note_off_c, 1, 62, 64
3, 322303, Note_on_c, 1, 62, 80
3, 322451, Note_off_c, 1, 62, 64
3, 323603, Note_on_c, 1, 62, 68
3, 323653, Note_off_c, 1, 62, 64
3, 323734, Note_on_c, 1, 62, 85
3, 323867, Note_off_c, 1, 62, 64
3, 323970, Note_on_c, 1, 62, 66
3, 324027, Note_off_c, 1, 62, 64
3, 324108, Note_on_c, 1, 62, 85
3, 324236, Note_off_c, 1, 62, 64
3, 324357, Note_on_c, 1, 62, 66
3, 324405, Note_off_c, 1, 62, 64
3, 324485, Note_on_c, 1, 62, 85
3, 324645, Note_off_c, 1, 62, 64
3, 364796, Note_on_c, 1, 76, 93
3, 364916, Note_off_c, 1, 76, 64
3, 365154, Note_on_c, 1, 76, 91
3, 365274, Note_off_c, 1, 76, 64
3, 365505, Note_on_c, 1, 74, 89
3, 365633, Note_off_c, 1, 74, 64
3, 365863, Note_on_c, 1, 74, 89
3, 365975, Note_off_c, 1, 74, 64
3, 366210, Note_on_c, 1, 78, 89
3, 366336, Note_off_c, 1, 78, 64
3, 366578, Note_on_c, 1, 79, 100
3, 366709, Note_off_c, 1, 79, 64
3, 366945, Note_on_c, 1, 76, 95
3, 367062, Note_off_c, 1, 76, 64
3, 367312, Note_on_c, 1, 74, 93
3, 367425, Note_off_c, 1, 74, 64
3, 367641, Note_on_c, 1, 69, 85
3, 367775, Note_off_c, 1, 69, 64
3, 368010, Note_on_c, 1, 78, 91
3, 368131, Note_off_c, 1, 78, 64
3, 368370, Note_on_c, 1, 76, 82
3, 368489, Note_off_c, 1, 76, 64
3, 368730, Note_on_c, 1, 74, 87
3, 368864, Note_off_c, 1, 74, 64
3, 369110, Note_on_c, 1, 76, 85
3, 369229, Note_off_c, 1, 76, 64
3, 369470, Note_on_c, 1, 78, 89
3, 369589, Note_off_c, 1, 78, 64
3, 369834, Note_on_c, 1, 83, 87
3, 369942, Note_off_c, 1, 83, 64
3, 370061, Note_on_c, 1, 79, 76
3, 370124, Note_off_c, 1, 79, 64
3, 370187, Note_on_c, 1, 76, 95
3, 370968, Note_off_c, 1, 76, 64
3, 371018, Note_on_c, 1, 69, 74
3, 371096, Note_off_c, 1, 69, 64
3, 371137, Note_on_c, 1, 74, 82
3, 371195, Note_off_c, 1, 74, 64
3, 371267, Note_on_c, 1, 76, 100
3, 371360, Note_off_c, 1, 76, 64
3, 371369, Note_on_c, 1, 69, 80
3, 371438, Note_off_c, 1, 69, 64
3, 371492, Note_on_c, 1, 74, 80
3, 371546, Note_off_c, 1, 74, 64
3, 371632, Note_on_c, 1, 76, 102
3, 371740, Note_on_c, 1, 74, 70
3, 371753, Note_off_c, 1, 76, 64
3, 371821, Note_off_c, 1, 74, 64
3, 371844, Note_on_c, 1, 73, 66
3, 371907, Note_off_c, 1, 73, 64
3, 371974, Note_on_c, 1, 74, 89
3, 372071, Note_off_c, 1, 74, 64
3, 372201, Note_on_c, 1, 69, 85
3, 372271, Note_off_c, 1, 69, 64
3, 372330, Note_on_c, 1, 66, 91
3, 372413, Note_off_c, 1, 66, 64
3, 372543, Note_on_c, 1, 62, 85
3, 372604, Note_off_c, 1, 62, 64
3, 372672, Note_on_c, 1, 69, 87
3, 372764, Note_off_c, 1, 69, 64
3, 372910, Note_on_c, 1, 76, 82
3, 372975, Note_off_c, 1, 76, 64
3, 373047, Note_on_c, 1, 74, 107
3, 373245, Note_off_c, 1, 74, 64
3, 374163, Note_on_c, 1, 78, 113
3, 374334, Note_off_c, 1, 78, 64
3, 374334, End_track
4, 0, Start_track
4, 0, Title_t, "TrumpetBass"
4, 0, Program_c, 2, 56
4, 0, Control_c, 2, 7, 127
4, 890, Note_on_c, 2, 74, 122
4, 920, Note_off_c, 2, 74, 64
4, 953, Note_on_c, 2, 74, 107
4, 1211, Note_off_c, 2, 74, 64
4, 1857, Note_on_c, 2, 78, 110
4, 1887, Note_off_c, 2, 78, 64
4, 1920, Note_on_c, 2, 78, 107
4, 2190, Note_off_c, 2, 78, 64
4, 2811, Note_on_c, 2, 62, 113
4, 2840, Note_off_c, 2, 62, 64
4, 2872, Note_on_c, 2, 62, 107
4, 3141, Note_off_c, 2, 62, 64
4, 3774, Note_on_c, 2, 69, 93
4, 3807, Note_off_c, 2, 69, 64
4, 3832, Note_on_c, 2, 76, 93
4, 4167, Note_off_c, 2, 76, 64
4, 4263, Note_on_c, 2, 76, 95
4, 4306, Note_off_c, 2, 76, 64
4, 4328, Note_on_c, 2, 69, 93
4, 4432, Note_off_c, 2, 69, 64
4, 4569, Note_on_c, 2, 69, 107
4, 4662, Note_off_c, 2, 69, 64
4, 4798, Note_on_c, 2, 69, 102
4, 4904, Note_off_c, 2, 69, 64
4, 5048, Note_on_c, 2, 66, 105
4, 5154, Note_off_c, 2, 66, 64
4, 8591, Note_on_c, 2, 76, 119
4, 8614, Note_off_c, 2, 76, 64
4, 8649, Note_on_c, 2, 76, 107
4, 8908, Note_off_c, 2, 76, 64
4, 9538, Note_on_c, 2, 76, 102
4, 9567, Note_off_c, 2, 76, 64
4, 9605, Note_on_c, 2, 69, 113
4, 9868, Note_off_c, 2, 69, 64
4, 10504, Note_on_c, 2, 69, 113
4, 10531, Note_off_c, 2, 69, 64
4, 10563, Note_on_c, 2, 69, 105
4, 10821, Note_off_c, 2, 69, 64
4, 11450, Note_on_c, 2, 78, 102
4, 11480, Note_off_c, 2, 78, 64
4, 11511, Note_on_c, 2, 74, 105
4, 11835, Note_off_c, 2, 74, 64
4, 11948, Note_on_c, 2, 74, 105
4, 11982, Note_off_c, 2, 74, 64
4, 12011, Note_on_c, 2, 74, 105
4, 12099, Note_off_c, 2, 74, 64
4, 12249, Note_on_c, 2, 74, 110
4, 12333, Note_off_c, 2, 74, 64
4, 12490, Note_on_c, 2, 69, 116
4, 12590, Note_off_c, 2, 69, 64
4, 12739, Note_on_c, 2, 76, 122
4, 12830, Note_off_c, 2, 76, 64
4, 22252, Note_on_c, 2, 74, 119
4, 22293, Note_off_c, 2, 74, 64
4, 22312, Note_on_c, 2, 69, 110
4, 22396, Note_off_c, 2, 69, 64
4, 22492, Note_on_c, 2, 74, 110
4, 22520, Note_off_c, 2, 74, 64
4, 22556, Note_on_c, 2, 74, 107
4, 22715, Note_off_c, 2, 74, 64
4, 22799, Note_on_c, 2, 74, 107
4, 22923, Note_off_c, 2, 74, 64
4, 23042, Note_on_c, 2, 69, 116
4, 23765, Note_off_c, 2, 69, 64
4, 67910, Note_on_c, 2, 69, 100
4, 67969, Note_off_c, 2, 69, 64
4, 68025, Note_on_c, 2, 69, 98
4, 68151, Note_off_c, 2, 69, 64
4, 68259, Note_on_c, 2, 69, 110
4, 68316, Note_off_c, 2, 69, 64
4, 68372, Note_on_c, 2, 69, 100
4, 68477, Note_off_c, 2, 69, 64
4, 68608, Note_on_c, 2, 69, 87
4, 68669, Note_off_c, 2, 69, 64
4, 68739, Note_on_c, 2, 69, 95
4, 68856, Note_off_c, 2, 69, 64
4, 68972, Note_on_c, 2, 76, 82
4, 69035, Note_off_c, 2, 76, 64
4, 69096, Note_on_c, 2, 74, 100
4, 69188, Note_off_c, 2, 74, 64
4, 69314, Note_on_c, 2, 74, 85
4, 69370, Note_off_c, 2, 74, 64
4, 69441, Note_on_c, 2, 74, 100
4, 69530, Note_off_c, 2, 74, 64
4, 69661, Note_on_c, 2, 69, 87
4, 69726, Note_off_c, 2, 69, 64
4, 69803, Note_on_c, 2, 69, 107
4, 69985, Note_off_c, 2, 69, 64
4, 70930, Note_on_c, 2, 74, 105
4, 71108, Note_off_c, 2, 74, 64
4, 71997, Note_on_c, 2, 78, 116
4, 72195, Note_off_c, 2, 78, 64
4, 92507, Note_on_c, 2, 69, 107
4, 92690, Note_off_c, 2, 69, 64
4, 93609, Note_on_c, 2, 76, 113
4, 93781, Note_off_c, 2, 76, 64
4, 94684, Note_on_c, 2, 81, 116
4, 94864, Note_off_c, 2, 81, 64
4, 106896, Note_on_c, 2, 69, 107
4, 107034, Note_off_c, 2, 69, 64
4, 107254, Note_on_c, 2, 69, 113
4, 107400, Note_off_c, 2, 69, 64
4, 107603, Note_on_c, 2, 69, 110
4, 107783, Note_off_c, 2, 69, 64
4, 114076, Note_on_c, 2, 69, 113
4, 114467, Note_off_c, 2, 69, 64
4, 127282, Note_on_c, 2, 66, 78
4, 127338, Note_off_c, 2, 66, 64
4, 127406, Note_on_c, 2, 66, 82
4, 127543, Note_off_c, 2, 66, 64
4, 127640, Note_on_c, 2, 66, 68
4, 127696, Note_off_c, 2, 66, 64
4, 127768, Note_on_c, 2, 66, 72
4, 127890, Note_off_c, 2, 66, 64
4, 128006, Note_on_c, 2, 66, 68
4, 128069, Note_off_c, 2, 66, 64
4, 128139, Note_on_c, 2, 66, 78
4, 128295, Note_off_c, 2, 66, 64
4, 138089, Note_on_c, 2, 66, 59
4, 138132, Note_off_c, 2, 66, 64
4, 138206, Note_on_c, 2, 66, 70
4, 138354, Note_off_c, 2, 66, 64
4, 138435, Note_on_c, 2, 66, 66
4, 138489, Note_off_c, 2, 66, 64
4, 138567, Note_on_c, 2, 66, 70
4, 138741, Note_off_c, 2, 66, 64
4, 200512, Note_on_c, 2, 78, 116
4, 200819, Note_off_c, 2, 78, 64
4, 205249, Note_on_c, 2, 76, 107
4, 205276, Note_off_c, 2, 76, 64
4, 205308, Note_on_c, 2, 78, 105
4, 205555, Note_off_c, 2, 78, 64
4, 206198, Note_on_c, 2, 74, 110
4, 206228, Note_off_c, 2, 74, 64
4, 206267, Note_on_c, 2, 62, 116
4, 206511, Note_off_c, 2, 62, 64
4, 207176, Note_on_c, 2, 76, 122
4, 207209, Note_off_c, 2, 76, 64
4, 207242, Note_on_c, 2, 69, 110
4, 207509, Note_off_c, 2, 69, 64
4, 208150, Note_on_c, 2, 69, 116
4, 208203, Note_off_c, 2, 69, 64
4, 208210, Note_on_c, 2, 76, 113
4, 208502, Note_off_c, 2, 76, 64
4, 208604, Note_on_c, 2, 76, 107
4, 208650, Note_off_c, 2, 76, 64
4, 208674, Note_on_c, 2, 69, 105
4, 208752, Note_off_c, 2, 69, 64
4, 208925, Note_on_c, 2, 69, 116
4, 208995, Note_off_c, 2, 69, 64
4, 209162, Note_on_c, 2, 69, 116
4, 209236, Note_off_c, 2, 69, 64
4, 209418, Note_on_c, 2, 66, 105
4, 209490, Note_off_c, 2, 66, 64
4, 218931, Note_on_c, 2, 69, 116
4, 218972, Note_off_c, 2, 69, 64
4, 218993, Note_on_c, 2, 62, 110
4, 219065, Note_off_c, 2, 62, 64
4, 219174, Note_on_c, 2, 62, 107
4, 219225, Note_off_c, 2, 62, 64
4, 219234, Note_on_c, 2, 69, 119
4, 219548, Note_off_c, 2, 69, 64
4, 219653, Note_on_c, 2, 69, 116
4, 219680, Note_off_c, 2, 69, 64
4, 219725, Note_on_c, 2, 69, 119
4, 220104, Note_off_c, 2, 69, 64
4, 289917, Note_on_c, 2, 69, 113
4, 290097, Note_off_c, 2, 69, 64
4, 291224, Note_on_c, 2, 69, 102
4, 291276, Note_off_c, 2, 69, 64
4, 291349, Note_on_c, 2, 69, 105
4, 291465, Note_off_c, 2, 69, 64
4, 291584, Note_on_c, 2, 69, 89
4, 291633, Note_off_c, 2, 69, 64
4, 291716, Note_on_c, 2, 69, 102
4, 291824, Note_off_c, 2, 69, 64
4, 291957, Note_on_c, 2, 69, 80
4, 292000, Note_off_c, 2, 69, 64
4, 292076, Note_on_c, 2, 69, 110
4, 292209, Note_off_c, 2, 69, 64
4, 292437, Note_on_c, 2, 69, 98
4, 292569, Note_off_c, 2, 69, 64
4, 292792, Note_on_c, 2, 69, 100
4, 292927, Note_off_c, 2, 69, 64
4, 293145, Note_on_c, 2, 69, 105
4, 293265, Note_off_c, 2, 69, 64
4, 293370, Note_on_c, 2, 69, 87
4, 293418, Note_off_c, 2, 69, 64
4, 293498, Note_on_c, 2, 69, 100
4, 293624, Note_off_c, 2, 69, 64
4, 293744, Note_on_c, 2, 69, 105
4, 293804, Note_off_c, 2, 69, 64
4, 293863, Note_on_c, 2, 69, 98
4, 293976, Note_off_c, 2, 69, 64
4, 294099, Note_on_c, 2, 69, 102
4, 294144, Note_off_c, 2, 69, 64
4, 294221, Note_on_c, 2, 69, 107
4, 294380, Note_off_c, 2, 69, 64
4, 296747, Note_on_c, 2, 74, 107
4, 296871, Note_off_c, 2, 74, 64
4, 297108, Note_on_c, 2, 74, 107
4, 297254, Note_off_c, 2, 74, 64
4, 297470, Note_on_c, 2, 74, 102
4, 297625, Note_off_c, 2, 74, 64
4, 321416, Note_on_c, 2, 62, 62
4, 321470, Note_off_c, 2, 62, 64
4, 321554, Note_on_c, 2, 62, 87
4, 321687, Note_off_c, 2, 62, 64
4, 321788, Note_on_c, 2, 62, 66
4, 321844, Note_off_c, 2, 62, 64
4, 321923, Note_on_c, 2, 62, 80
4, 322042, Note_off_c, 2, 62, 64
4, 322159, Note_on_c, 2, 62, 72
4, 322213, Note_off_c, 2, 62, 64
4, 322298, Note_on_c, 2, 62, 91
4, 322432, Note_off_c, 2, 62, 64
4, 323619, Note_on_c, 2, 62, 60
4, 323673, Note_off_c, 2, 62, 64
4, 323756, Note_on_c, 2, 62, 87
4, 323885, Note_off_c, 2, 62, 64
4, 323981, Note_on_c, 2, 62, 72
4, 324033, Note_off_c, 2, 62, 64
4, 324112, Note_on_c, 2, 62, 82
4, 324222, Note_off_c, 2, 62, 64
4, 324344, Note_on_c, 2, 62, 80
4, 324397, Note_off_c, 2, 62, 64
4, 324483, Note_on_c, 2, 62, 95
4, 324609, Note_off_c, 2, 62, 64
4, 364803, Note_on_c, 2, 69, 110
4, 364942, Note_off_c, 2, 69, 64
4, 365152, Note_on_c, 2, 69, 110
4, 365301, Note_off_c, 2, 69, 64
4, 365516, Note_on_c, 2, 69, 113
4, 365683, Note_off_c, 2, 69, 64
4, 371146, Note_on_c, 2, 69, 102
4, 371205, Note_off_c, 2, 69, 64
4, 371263, Note_on_c, 2, 69, 100
4, 371357, Note_off_c, 2, 69, 64
4, 371495, Note_on_c, 2, 69, 87
4, 371555, Note_off_c, 2, 69, 64
4, 371630, Note_on_c, 2, 69, 98
4, 371729, Note_off_c, 2, 69, 64
4, 371844, Note_on_c, 2, 69, 82
4, 371906, Note_off_c, 2, 69, 64
4, 371988, Note_on_c, 2, 69, 98
4, 372086, Note_off_c, 2, 69, 64
4, 372208, Note_on_c, 2, 76, 85
4, 372275, Note_off_c, 2, 76, 64
4, 372334, Note_on_c, 2, 74, 87
4, 372419, Note_off_c, 2, 74, 64
4, 372559, Note_on_c, 2, 74, 95
4, 372621, Note_off_c, 2, 74, 64
4, 372690, Note_on_c, 2, 74, 105
4, 372788, Note_off_c, 2, 74, 64
4, 372910, Note_on_c, 2, 69, 100
4, 372960, Note_off_c, 2, 69, 64
4, 373067, Note_on_c, 2, 69, 107
4, 373256, Note_off_c, 2, 69, 64
4, 374174, Note_on_c, 2, 74, 113
4, 374330, Note_off_c, 2, 74, 64
4, 374330, End_track
5, 0, Start_track
5, 0, Title_t, "Timpani"
5, 0, Program_c, 3, 47
5, 0, Control_c, 3, 7, 100
5, 889, Note_on_c, 3, 50, 107
5, 913, Note_off_c, 3, 50, 64
5, 929, Note_on_c, 3, 50, 122
5, 951, Note_off_c, 3, 50, 64
5, 967, Note_on_c, 3, 50, 119
5, 994, Note_off_c, 3, 50, 64
5, 1837, Note_on_c, 3, 50, 102
5, 1861, Note_off_c, 3, 50, 64
5, 1872, Note_on_c, 3, 50, 119
5, 1898, Note_off_c, 3, 50, 64
5, 1904, Note_on_c, 3, 50, 113
5, 1939, Note_off_c, 3, 50, 64
5, 2816, Note_on_c, 3, 50, 116
5, 2835, Note_off_c, 3, 50, 64
5, 2843, Note_on_c, 3, 50, 127
5, 2864, Note_off_c, 3, 50, 64
5, 2877, Note_on_c, 3, 50, 113
5, 2901, Note_off_c, 3, 50, 64
5, 3770, Note_on_c, 3, 50, 116
5, 3793, Note_off_c, 3, 50, 64
5, 3794, Note_on_c, 3, 50, 113
5, 3824, Note_off_c, 3, 50, 64
5, 3830, Note_on_c, 3, 50, 113
5, 3867, Note_off_c, 3, 50, 64
5, 4122, Note_on_c, 3, 50, 105
5, 4149, Note_off_c, 3, 50, 64
5, 4178, Note_on_c, 3, 50, 95
5, 4208, Note_off_c, 3, 50, 64
5, 4234, Note_on_c, 3, 50, 102
5, 4265, Note_off_c, 3, 50, 64
5, 4305, Note_on_c, 3, 45, 122
5, 4359, Note_off_c, 3, 45, 64
5, 4570, Note_on_c, 3, 45, 122
5, 4621, Note_off_c, 3, 45, 64
5, 4823, Note_on_c, 3, 50, 127
5, 4869, Note_off_c, 3, 50, 64
5, 8595, Note_on_c, 3, 45, 107
5, 8610, Note_off_c, 3, 45, 64
5, 8614, Note_on_c, 3, 45, 127
5, 8636, Note_off_c, 3, 45, 64
5, 8648, Note_on_c, 3, 45, 113
5, 8673, Note_off_c, 3, 45, 64
5, 9532, Note_on_c, 3, 45, 105
5, 9547, Note_off_c, 3, 45, 64
5, 9561, Note_on_c, 3, 45, 122
5, 9586, Note_off_c, 3, 45, 64
5, 9594, Note_on_c, 3, 45, 105
5, 9627, Note_off_c, 3, 45, 64
5, 10497, Note_on_c, 3, 45, 113
5, 10516, Note_off_c, 3, 45, 64
5, 10526, Note_on_c, 3, 45, 122
5, 10553, Note_off_c, 3, 45, 64
5, 10563, Note_on_c, 3, 45, 105
5, 10595, Note_off_c, 3, 45, 64
5, 11450, Note_on_c, 3, 45, 105
5, 11467, Note_off_c, 3, 45, 64
5, 11472, Note_on_c, 3, 45, 127
5, 11496, Note_off_c, 3, 45, 64
5, 11510, Note_on_c, 3, 45, 113
5, 11545, Note_off_c, 3, 45, 64
5, 11820, Note_on_c, 3, 45, 105
5, 11849, Note_off_c, 3, 45, 64
5, 11882, Note_on_c, 3, 45, 105
5, 11912, Note_off_c, 3, 45, 64
5, 11945, Note_on_c, 3, 45, 105
5, 11980, Note_off_c, 3, 45, 64
5, 12011, Note_on_c, 3, 50, 127
5, 12056, Note_off_c, 3, 50, 64
5, 12438, Note_on_c, 3, 50, 116
5, 12468, Note_off_c, 3, 50, 64
5, 12504, Note_on_c, 3, 45, 119
5, 12561, Note_off_c, 3, 45, 64
5, 22260, Note_on_c, 3, 50, 113
5, 22294, Note_off_c, 3, 50, 64
5, 22324, Note_on_c, 3, 45, 110
5, 22391, Note_off_c, 3, 45, 64
5, 22495, Note_on_c, 3, 50, 105
5, 22526, Note_off_c, 3, 50, 64
5, 22562, Note_on_c, 3, 50, 110
5, 22627, Note_off_c, 3, 50, 64
5, 23070, Note_on_c, 3, 45, 119
5, 23144, Note_off_c, 3, 45, 64
5, 67910, Note_on_c, 3, 45, 116
5, 67960, Note_off_c, 3, 45, 64
5, 68034, Note_on_c, 3, 45, 105
5, 68111, Note_off_c, 3, 45, 64
5, 68252, Note_on_c, 3, 45, 105
5, 68309, Note_off_c, 3, 45, 64
5, 68378, Note_on_c, 3, 45, 119
5, 68446, Note_off_c, 3, 45, 64
5, 68588, Note_on_c, 3, 45, 116
5, 68657, Note_off_c, 3, 45, 64
5, 68723, Note_on_c, 3, 50, 119
5, 68813, Note_off_c, 3, 50, 64
5, 69306, Note_on_c, 3, 50, 102
5, 69368, Note_off_c, 3, 50, 64
5, 69452, Note_on_c, 3, 45, 122
5, 69522, Note_off_c, 3, 45, 64
5, 69674, Note_on_c, 3, 45, 102
5, 69740, Note_off_c, 3, 45, 64
5, 69798, Note_on_c, 3, 50, 127
5, 69880, Note_off_c, 3, 50, 64
5, 70941, Note_on_c, 3, 50, 119
5, 71052, Note_off_c, 3, 50, 64
5, 71997, Note_on_c, 3, 50, 119
5, 72113, Note_off_c, 3, 50, 64
5, 92517, Note_on_c, 3, 45, 127
5, 92613, Note_off_c, 3, 45, 64
5, 93616, Note_on_c, 3, 45, 127
5, 93734, Note_off_c, 3, 45, 64
5, 94672, Note_on_c, 3, 45, 119
5, 94796, Note_off_c, 3, 45, 64
5, 106899, Note_on_c, 3, 45, 113
5, 107007, Note_off_c, 3, 45, 64
5, 107246, Note_on_c, 3, 45, 116
5, 107342, Note_off_c, 3, 45, 64
5, 107603, Note_on_c, 3, 50, 122
5, 107707, Note_off_c, 3, 50, 64
5, 114075, Note_on_c, 3, 45, 119
5, 114212, Note_off_c, 3, 45, 64
5, 200529, Note_on_c, 3, 50, 122
5, 200608, Note_off_c, 3, 50, 64
5, 205244, Note_on_c, 3, 45, 119
5, 205287, Note_off_c, 3, 45, 64
5, 205308, Note_on_c, 3, 50, 119
5, 205366, Note_off_c, 3, 50, 64
5, 206201, Note_on_c, 3, 50, 113
5, 206228, Note_off_c, 3, 50, 64
5, 206261, Note_on_c, 3, 50, 110
5, 206317, Note_off_c, 3, 50, 64
5, 207175, Note_on_c, 3, 45, 119
5, 207202, Note_off_c, 3, 45, 64
5, 207237, Note_on_c, 3, 45, 119
5, 207308, Note_off_c, 3, 45, 64
5, 208134, Note_on_c, 3, 50, 102
5, 208160, Note_off_c, 3, 50, 64
5, 208192, Note_on_c, 3, 50, 107
5, 208237, Note_off_c, 3, 50, 64
5, 208487, Note_on_c, 3, 50, 110
5, 208516, Note_off_c, 3, 50, 64
5, 208550, Note_on_c, 3, 50, 105
5, 208581, Note_off_c, 3, 50, 64
5, 208610, Note_on_c, 3, 50, 105
5, 208640, Note_off_c, 3, 50, 64
5, 208668, Note_on_c, 3, 45, 127
5, 208732, Note_off_c, 3, 45, 64
5, 208923, Note_on_c, 3, 45, 127
5, 208989, Note_off_c, 3, 45, 64
5, 209168, Note_on_c, 3, 50, 127
5, 209206, Note_off_c, 3, 50, 64
5, 218940, Note_on_c, 3, 45, 127
5, 218987, Note_off_c, 3, 45, 64
5, 218998, Note_on_c, 3, 50, 127
5, 219056, Note_off_c, 3, 50, 64
5, 219175, Note_on_c, 3, 50, 110
5, 219219, Note_off_c, 3, 50, 64
5, 219235, Note_on_c, 3, 45, 119
5, 219309, Note_off_c, 3, 45, 64
5, 219417, Note_on_c, 3, 45, 107
5, 219447, Note_off_c, 3, 45, 64
5, 219485, Note_on_c, 3, 45, 119
5, 219552, Note_off_c, 3, 45, 64
5, 219667, Note_on_c, 3, 45, 105
5, 219705, Note_off_c, 3, 45, 64
5, 219718, Note_on_c, 3, 50, 127
5, 219827, Note_off_c, 3, 50, 64
5, 289919, Note_on_c, 3, 45, 116
5, 290042, Note_off_c, 3, 45, 64
5, 290985, Note_on_c, 3, 45, 107
5, 291125, Note_off_c, 3, 45, 64
5, 292439, Note_on_c, 3, 45, 107
5, 292551, Note_off_c, 3, 45, 64
5, 292790, Note_on_c, 3, 45, 113
5, 292909, Note_off_c, 3, 45, 64
5, 293168, Note_on_c, 3, 50, 119
5, 293280, Note_off_c, 3, 50, 64
5, 294239, Note_on_c, 3, 50, 107
5, 294362, Note_off_c, 3, 50, 64
5, 295317, Note_on_c, 3, 50, 107
5, 295451, Note_off_c, 3, 50, 64
5, 296756, Note_on_c, 3, 50, 110
5, 296856, Note_off_c, 3, 50, 64
5, 297119, Note_on_c, 3, 50, 116
5, 297216, Note_off_c, 3, 50, 64
5, 297481, Note_on_c, 3, 50, 119
5, 297579, Note_off_c, 3, 50, 64
5, 322554, Note_on_c, 3, 50, 102
5, 322595, Note_off_c, 3, 50, 64
5, 322680, Note_on_c, 3, 50, 102
5, 322762, Note_off_c, 3, 50, 64
5, 322904, Note_on_c, 3, 50, 95
5, 322956, Note_off_c, 3, 50, 64
5, 323027, Note_on_c, 3, 50, 105
5, 323106, Note_off_c, 3, 50, 64
5, 323262, Note_on_c, 3, 50, 102
5, 323306, Note_off_c, 3, 50, 64
5, 323394, Note_on_c, 3, 50, 110
5, 323477, Note_off_c, 3, 50, 64
5, 323624, Note_on_c, 3, 50, 102
5, 323675, Note_off_c, 3, 50, 64
5, 323750, Note_on_c, 3, 50, 107
5, 323819, Note_off_c, 3, 50, 64
5, 323981, Note_on_c, 3, 50, 102
5, 324033, Note_off_c, 3, 50, 64
5, 324101, Note_on_c, 3, 50, 105
5, 324171, Note_off_c, 3, 50, 64
5, 324344, Note_on_c, 3, 50, 102
5, 324395, Note_off_c, 3, 50, 64
5, 324479, Note_on_c, 3, 50, 110
5, 324589, Note_off_c, 3, 50, 64
5, 364796, Note_on_c, 3, 45, 122
5, 364895, Note_off_c, 3, 45, 64
5, 365153, Note_on_c, 3, 45, 119
5, 365246, Note_off_c, 3, 45, 64
5, 365501, Note_on_c, 3, 50, 119
5, 365589, Note_off_c, 3, 50, 64
5, 371166, Note_on_c, 3, 45, 107
5, 371220, Note_off_c, 3, 45, 64
5, 371288, Note_on_c, 3, 45, 107
5, 371367, Note_off_c, 3, 45, 64
5, 371511, Note_on_c, 3, 45, 116
5, 371560, Note_off_c, 3, 45, 64
5, 371637, Note_on_c, 3, 45, 119
5, 371700, Note_off_c, 3, 45, 64
5, 371870, Note_on_c, 3, 45, 119
5, 371929, Note_off_c, 3, 45, 64
5, 372000, Note_on_c, 3, 50, 119
5, 372093, Note_off_c, 3, 50, 64
5, 372554, Note_on_c, 3, 50, 107
5, 372626, Note_off_c, 3, 50, 64
5, 372698, Note_on_c, 3, 45, 122
5, 372762, Note_off_c, 3, 45, 64
5, 372932, Note_on_c, 3, 45, 122
5, 373000, Note_off_c, 3, 45, 64
5, 373054, Note_on_c, 3, 50, 122
5, 373142, Note_off_c, 3, 50, 64
5, 374163, Note_on_c, 3, 50, 119
5, 374291, Note_off_c, 3, 50, 64
5, 374291, End_track
6, 0, Start_track
6, 0, Title_t, "Oboe"
6, 0, Program_c, 4, 68
6, 0, Control_c, 4, 7, 100
6, 1262, Note_on_c, 4, 64, 85
6, 1300, Note_off_c, 4, 64, 64
6, 1316, Note_on_c, 4, 66, 91
6, 1353, Note_off_c, 4, 66, 64
6, 1370, Note_on_c, 4, 62, 89
6, 1417, Note_off_c, 4, 62, 64
6, 1438, Note_on_c, 4, 69, 89
6, 2182, Note_off_c, 4, 69, 64
6, 2211, Note_on_c, 4, 67, 76
6, 2242, Note_off_c, 4, 67, 64
6, 2269, Note_on_c, 4, 69, 80
6, 2307, Note_off_c, 4, 69, 64
6, 2325, Note_on_c, 4, 66, 85
6, 2360, Note_off_c, 4, 66, 64
6, 2394, Note_on_c, 4, 67, 91
6, 3128, Note_off_c, 4, 67, 64
6, 3162, Note_on_c, 4, 66, 82
6, 3198, Note_off_c, 4, 66, 64
6, 3219, Note_on_c, 4, 67, 85
6, 3262, Note_off_c, 4, 67, 64
6, 3279, Note_on_c, 4, 64, 82
6, 3325, Note_off_c, 4, 64, 64
6, 3340, Note_on_c, 4, 66, 70
6, 3392, Note_off_c, 4, 66, 64
6, 3402, Note_on_c, 4, 67, 76
6, 3453, Note_off_c, 4, 67, 64
6, 3461, Note_on_c, 4, 69, 68
6, 3502, Note_off_c, 4, 69, 64
6, 3517, Note_on_c, 4, 71, 89
6, 3570, Note_off_c, 4, 71, 64
6, 3580, Note_on_c, 4, 73, 74
6, 3624, Note_off_c, 4, 73, 64
6, 3638, Note_on_c, 4, 74, 82
6, 3690, Note_off_c, 4, 74, 64
6, 3697, Note_on_c, 4, 76, 100
6, 3746, Note_off_c, 4, 76, 64
6, 3751, Note_on_c, 4, 78, 91
6, 3793, Note_off_c, 4, 78, 64
6, 3813, Note_on_c, 4, 79, 87
6, 4172, Note_off_c, 4, 79, 64
6, 4268, Note_on_c, 4, 79, 87
6, 4305, Note_off_c, 4, 79, 64
6, 4323, Note_on_c, 4, 79, 85
6, 4428, Note_off_c, 4, 79, 64
6, 4500, Note_on_c, 4, 76, 82
6, 4546, Note_off_c, 4, 76, 64
6, 4563, Note_on_c, 4, 81, 100
6, 4648, Note_off_c, 4, 81, 64
6, 4730, Note_on_c, 4, 76, 80
6, 4776, Note_off_c, 4, 76, 64
6, 4792, Note_on_c, 4, 78, 95
6, 4912, Note_off_c, 4, 78, 64
6, 5031, Note_on_c, 4, 74, 87
6, 5139, Note_off_c, 4, 74, 64
6, 5265, Note_on_c, 4, 81, 95
6, 5770, Note_off_c, 4, 81, 64
6, 5798, Note_on_c, 4, 79, 76
6, 5836, Note_off_c, 4, 79, 64
6, 5859, Note_on_c, 4, 81, 85
6, 5899, Note_off_c, 4, 81, 64
6, 5913, Note_on_c, 4, 78, 82
6, 5961, Note_off_c, 4, 78, 64
6, 5984, Note_on_c, 4, 83, 87
6, 6081, Note_off_c, 4, 83, 64
6, 6168, Note_on_c, 4, 81, 87
6, 6210, Note_off_c, 4, 81, 64
6, 6232, Note_on_c, 4, 79, 89
6, 6584, Note_off_c, 4, 79, 64
6, 6655, Note_on_c, 4, 78, 95
6, 6689, Note_off_c, 4, 78, 64
6, 6717, Note_on_c, 4, 79, 87
6, 7000, Note_off_c, 4, 79, 64
6, 7027, Note_on_c, 4, 78, 95
6, 7064, Note_off_c, 4, 78, 64
6, 7086, Note_on_c, 4, 79, 91
6, 7120, Note_off_c, 4, 79, 64
6, 7142, Note_on_c, 4, 76, 85
6, 7186, Note_off_c, 4, 76, 64
6, 7214, Note_on_c, 4, 72, 85
6, 7722, Note_off_c, 4, 72, 64
6, 7745, Note_on_c, 4, 71, 85
6, 7785, Note_off_c, 4, 71, 64
6, 7807, Note_on_c, 4, 72, 82
6, 7845, Note_off_c, 4, 72, 64
6, 7859, Note_on_c, 4, 69, 76
6, 7912, Note_off_c, 4, 69, 64
6, 7926, Note_on_c, 4, 71, 89
6, 8018, Note_off_c, 4, 71, 64
6, 8100, Note_on_c, 4, 73, 80
6, 8138, Note_off_c, 4, 73, 64
6, 8161, Note_on_c, 4, 74, 89
6, 8495, Note_off_c, 4, 74, 64
6, 8577, Note_on_c, 4, 76, 80
6, 8626, Note_off_c, 4, 76, 64
6, 8646, Note_on_c, 4, 73, 93
6, 8740, Note_off_c, 4, 73, 64
6, 8824, Note_on_c, 4, 76, 85
6, 8864, Note_off_c, 4, 76, 64
6, 8881, Note_on_c, 4, 76, 87
6, 8956, Note_off_c, 4, 76, 64
6, 9051, Note_on_c, 4, 79, 82
6, 9091, Note_off_c, 4, 79, 64
6, 9115, Note_on_c, 4, 79, 87
6, 9392, Note_off_c, 4, 79, 64
6, 9431, Note_on_c, 4, 71, 87
6, 9473, Note_off_c, 4, 71, 64
6, 9487, Note_on_c, 4, 73, 95
6, 9522, Note_off_c, 4, 73, 64
6, 9538, Note_on_c, 4, 69, 85
6, 9583, Note_off_c, 4, 69, 64
6, 9609, Note_on_c, 4, 78, 102
6, 10366, Note_off_c, 4, 78, 64
6, 10388, Note_on_c, 4, 76, 74
6, 10426, Note_off_c, 4, 76, 64
6, 10446, Note_on_c, 4, 78, 102
6, 10485, Note_off_c, 4, 78, 64
6, 10500, Note_on_c, 4, 74, 89
6, 10545, Note_off_c, 4, 74, 64
6, 10568, Note_on_c, 4, 76, 85
6, 11131, Note_off_c, 4, 76, 64
6, 11162, Note_on_c, 4, 81, 89
6, 11211, Note_on_c, 4, 80, 80
6, 11213, Note_off_c, 4, 81, 64
6, 11256, Note_off_c, 4, 80, 64
6, 11268, Note_on_c, 4, 78, 72
6, 11314, Note_off_c, 4, 78, 64
6, 11325, Note_on_c, 4, 76, 87
6, 11372, Note_off_c, 4, 76, 64
6, 11383, Note_on_c, 4, 74, 80
6, 11417, Note_off_c, 4, 74, 64
6, 11441, Note_on_c, 4, 73, 98
6, 11481, Note_off_c, 4, 73, 64
6, 11516, Note_on_c, 4, 74, 98
6, 11851, Note_off_c, 4, 74, 64
6, 11941, Note_on_c, 4, 74, 93
6, 11975, Note_off_c, 4, 74, 64
6, 11996, Note_on_c, 4, 74, 91
6, 12101, Note_off_c, 4, 74, 64
6, 12185, Note_on_c, 4, 71, 80
6, 12233, Note_off_c, 4, 71, 64
6, 12247, Note_on_c, 4, 76, 85
6, 12348, Note_off_c, 4, 76, 64
6, 12424, Note_on_c, 4, 74, 85
6, 12469, Note_off_c, 4, 74, 64
6, 12485, Note_on_c, 4, 73, 85
6, 12598, Note_off_c, 4, 73, 64
6, 12721, Note_on_c, 4, 69, 87
6, 12830, Note_off_c, 4, 69, 64
6, 12958, Note_on_c, 4, 78, 95
6, 13454, Note_off_c, 4, 78, 64
6, 13492, Note_on_c, 4, 78, 68
6, 13538, Note_off_c, 4, 78, 64
6, 13558, Note_on_c, 4, 80, 80
6, 13597, Note_off_c, 4, 80, 64
6, 13615, Note_on_c, 4, 81, 87
6, 13657, Note_off_c, 4, 81, 64
6, 13672, Note_on_c, 4, 83, 85
6, 13722, Note_off_c, 4, 83, 64
6, 13732, Note_on_c, 4, 81, 95
6, 13767, Note_off_c, 4, 81, 64
6, 13786, Note_on_c, 4, 83, 87
6, 13827, Note_off_c, 4, 83, 64
6, 13839, Note_on_c, 4, 80, 89
6, 13879, Note_off_c, 4, 80, 64
6, 13903, Note_on_c, 4, 73, 85
6, 14004, Note_off_c, 4, 73, 64
6, 14090, Note_on_c, 4, 83, 85
6, 14133, Note_off_c, 4, 83, 64
6, 14147, Note_on_c, 4, 81, 91
6, 14251, Note_off_c, 4, 81, 64
6, 14327, Note_on_c, 4, 80, 80
6, 14364, Note_off_c, 4, 80, 64
6, 14388, Note_on_c, 4, 81, 89
6, 14673, Note_off_c, 4, 81, 64
6, 14705, Note_on_c, 4, 80, 82
6, 14744, Note_off_c, 4, 80, 64
6, 14763, Note_on_c, 4, 81, 89
6, 14800, Note_off_c, 4, 81, 64
6, 14818, Note_on_c, 4, 78, 89
6, 14855, Note_off_c, 4, 78, 64
6, 14883, Note_on_c, 4, 74, 85
6, 15384, Note_off_c, 4, 74, 64
6, 15415, Note_on_c, 4, 73, 76
6, 15451, Note_off_c, 4, 73, 64
6, 15470, Note_on_c, 4, 74, 85
6, 15508, Note_off_c, 4, 74, 64
6, 15528, Note_on_c, 4, 71, 80
6, 15579, Note_off_c, 4, 71, 64
6, 15594, Note_on_c, 4, 73, 85
6, 15683, Note_off_c, 4, 73, 64
6, 15771, Note_on_c, 4, 74, 80
6, 15826, Note_off_c, 4, 74, 64
6, 15834, Note_on_c, 4, 76, 91
6, 15943, Note_off_c, 4, 76, 64
6, 16008, Note_on_c, 4, 78, 64
6, 16057, Note_off_c, 4, 78, 64
6, 16073, Note_on_c, 4, 80, 95
6, 16154, Note_off_c, 4, 80, 64
6, 16242, Note_on_c, 4, 81, 87
6, 16292, Note_off_c, 4, 81, 64
6, 16307, Note_on_c, 4, 71, 91
6, 16584, Note_off_c, 4, 71, 64
6, 16604, Note_on_c, 4, 69, 91
6, 16647, Note_off_c, 4, 69, 64
6, 16661, Note_on_c, 4, 71, 82
6, 16694, Note_off_c, 4, 71, 64
6, 16718, Note_on_c, 4, 68, 87
6, 16764, Note_off_c, 4, 68, 64
6, 16792, Note_on_c, 4, 74, 87
6, 17071, Note_off_c, 4, 74, 64
6, 17098, Note_on_c, 4, 73, 85
6, 17134, Note_off_c, 4, 73, 64
6, 17158, Note_on_c, 4, 74, 87
6, 17192, Note_off_c, 4, 74, 64
6, 17208, Note_on_c, 4, 71, 89
6, 17245, Note_off_c, 4, 71, 64
6, 17277, Note_on_c, 4, 73, 91
6, 17576, Note_off_c, 4, 73, 64
6, 17600, Note_on_c, 4, 71, 80
6, 17638, Note_off_c, 4, 71, 64
6, 17655, Note_on_c, 4, 73, 98
6, 17691, Note_off_c, 4, 73, 64
6, 17706, Note_on_c, 4, 69, 91
6, 17754, Note_off_c, 4, 69, 64
6, 17776, Note_on_c, 4, 76, 93
6, 18026, Note_off_c, 4, 76, 64
6, 18063, Note_on_c, 4, 74, 87
6, 18097, Note_off_c, 4, 74, 64
6, 18116, Note_on_c, 4, 76, 80
6, 18156, Note_off_c, 4, 76, 64
6, 18174, Note_on_c, 4, 73, 78
6, 18212, Note_off_c, 4, 73, 64
6, 18237, Note_on_c, 4, 74, 85
6, 18519, Note_off_c, 4, 74, 64
6, 18541, Note_on_c, 4, 73, 70
6, 18584, Note_off_c, 4, 73, 64
6, 18599, Note_on_c, 4, 74, 85
6, 18631, Note_off_c, 4, 74, 64
6, 18650, Note_on_c, 4, 71, 89
6, 18703, Note_off_c, 4, 71, 64
6, 18728, Note_on_c, 4, 77, 91
6, 18987, Note_off_c, 4, 77, 64
6, 19009, Note_on_c, 4, 76, 78
6, 19048, Note_off_c, 4, 76, 64
6, 19067, Note_on_c, 4, 77, 87
6, 19109, Note_off_c, 4, 77, 64
6, 19125, Note_on_c, 4, 74, 87
6, 19165, Note_off_c, 4, 74, 64
6, 19199, Note_on_c, 4, 76, 91
6, 19479, Note_off_c, 4, 76, 64
6, 19501, Note_on_c, 4, 74, 82
6, 19538, Note_off_c, 4, 74, 64
6, 19557, Note_on_c, 4, 76, 80
6, 19596, Note_off_c, 4, 76, 64
6, 19611, Note_on_c, 4, 72, 74
6, 19650, Note_off_c, 4, 72, 64
6, 19687, Note_on_c, 4, 74, 85
6, 19953, Note_off_c, 4, 74, 64
6, 19974, Note_on_c, 4, 72, 80
6, 20007, Note_off_c, 4, 72, 64
6, 20025, Note_on_c, 4, 74, 82
6, 20068, Note_off_c, 4, 74, 64
6, 20082, Note_on_c, 4, 71, 82
6, 20121, Note_off_c, 4, 71, 64
6, 20154, Note_on_c, 4, 72, 87
6, 20424, Note_off_c, 4, 72, 64
6, 20452, Note_on_c, 4, 71, 85
6, 20490, Note_off_c, 4, 71, 64
6, 20504, Note_on_c, 4, 72, 87
6, 20535, Note_off_c, 4, 72, 64
6, 20557, Note_on_c, 4, 69, 85
6, 20610, Note_off_c, 4, 69, 64
6, 20640, Note_on_c, 4, 79, 87
6, 21151, Note_off_c, 4, 79, 64
6, 21178, Note_on_c, 4, 78, 89
6, 21218, Note_off_c, 4, 78, 64
6, 21238, Note_on_c, 4, 79, 95
6, 21277, Note_off_c, 4, 79, 64
6, 21293, Note_on_c, 4, 76, 85
6, 21345, Note_off_c, 4, 76, 64
6, 21363, Note_on_c, 4, 78, 82
6, 21467, Note_off_c, 4, 78, 64
6, 21548, Note_on_c, 4, 80, 87
6, 21587, Note_off_c, 4, 80, 64
6, 21605, Note_on_c, 4, 81, 91
6, 21898, Note_off_c, 4, 81, 64
6, 22008, Note_on_c, 4, 83, 76
6, 22054, Note_off_c, 4, 83, 64
6, 22069, Note_on_c, 4, 74, 98
6, 22233, Note_off_c, 4, 74, 64
6, 22316, Note_on_c, 4, 73, 82
6, 22450, Note_off_c, 4, 73, 64
6, 22499, Note_on_c, 4, 71, 82
6, 22541, Note_off_c, 4, 71, 64
6, 22568, Note_on_c, 4, 73, 95
6, 22631, Note_on_c, 4, 71, 64
6, 22639, Note_off_c, 4, 73, 64
6, 22664, Note_off_c, 4, 71, 64
6, 22666, Note_on_c, 4, 73, 57
6, 22688, Note_on_c, 4, 71, 60
6, 22690, Note_off_c, 4, 73, 64
6, 22717, Note_on_c, 4, 73, 82
6, 22718, Note_off_c, 4, 71, 64
6, 22740, Note_off_c, 4, 73, 64
6, 22742, Note_on_c, 4, 71, 64
6, 22765, Note_on_c, 4, 73, 93
6, 22768, Note_off_c, 4, 71, 64
6, 22791, Note_on_c, 4, 71, 82
6, 22800, Note_off_c, 4, 73, 64
6, 22906, Note_off_c, 4, 71, 64
6, 22976, Note_on_c, 4, 69, 89
6, 23008, Note_off_c, 4, 69, 64
6, 23038, Note_on_c, 4, 69, 91
6, 23781, Note_off_c, 4, 69, 64
6, 50594, Note_on_c, 4, 81, 82
6, 50651, Note_off_c, 4, 81, 64
6, 50727, Note_on_c, 4, 81, 100
6, 50835, Note_on_c, 4, 83, 74
6, 50850, Note_off_c, 4, 81, 64
6, 50887, Note_off_c, 4, 83, 64
6, 50954, Note_on_c, 4, 79, 87
6, 51008, Note_off_c, 4, 79, 64
6, 51083, Note_on_c, 4, 79, 98
6, 51189, Note_on_c, 4, 81, 68
6, 51207, Note_off_c, 4, 79, 64
6, 51261, Note_off_c, 4, 81, 64
6, 51317, Note_on_c, 4, 78, 85
6, 51375, Note_off_c, 4, 78, 64
6, 51452, Note_on_c, 4, 78, 95
6, 51560, Note_on_c, 4, 79, 63
6, 51580, Note_off_c, 4, 78, 64
6, 51629, Note_off_c, 4, 79, 64
6, 51688, Note_on_c, 4, 81, 72
6, 51740, Note_off_c, 4, 81, 64
6, 51814, Note_on_c, 4, 83, 98
6, 51918, Note_on_c, 4, 84, 68
6, 51938, Note_off_c, 4, 83, 64
6, 51983, Note_off_c, 4, 84, 64
6, 52041, Note_on_c, 4, 81, 78
6, 52091, Note_off_c, 4, 81, 64
6, 52167, Note_on_c, 4, 81, 98
6, 52269, Note_on_c, 4, 83, 66
6, 52295, Note_off_c, 4, 81, 64
6, 52336, Note_off_c, 4, 83, 64
6, 52406, Note_on_c, 4, 79, 72
6, 52464, Note_off_c, 4, 79, 64
6, 52548, Note_on_c, 4, 79, 87
6, 52680, Note_off_c, 4, 79, 64
6, 52777, Note_on_c, 4, 79, 64
6, 52836, Note_off_c, 4, 79, 64
6, 52910, Note_on_c, 4, 79, 74
6, 53045, Note_off_c, 4, 79, 64
6, 53133, Note_on_c, 4, 79, 66
6, 53202, Note_off_c, 4, 79, 64
6, 53268, Note_on_c, 4, 79, 80
6, 53409, Note_off_c, 4, 79, 64
6, 53495, Note_on_c, 4, 79, 72
6, 53564, Note_off_c, 4, 79, 64
6, 53636, Note_on_c, 4, 79, 91
6, 53745, Note_on_c, 4, 76, 78
6, 53765, Note_off_c, 4, 79, 64
6, 53821, Note_off_c, 4, 76, 64
6, 53853, Note_on_c, 4, 78, 66
6, 53915, Note_off_c, 4, 78, 64
6, 53996, Note_on_c, 4, 79, 93
6, 54102, Note_on_c, 4, 81, 64
6, 54127, Note_off_c, 4, 79, 64
6, 54167, Note_off_c, 4, 81, 64
6, 54222, Note_on_c, 4, 78, 64
6, 54282, Note_off_c, 4, 78, 64
6, 54347, Note_on_c, 4, 79, 85
6, 54456, Note_on_c, 4, 78, 72
6, 54457, Note_off_c, 4, 79, 64
6, 54532, Note_off_c, 4, 78, 64
6, 54582, Note_on_c, 4, 76, 66
6, 54627, Note_off_c, 4, 76, 64
6, 54710, Note_on_c, 4, 78, 102
6, 54818, Note_on_c, 4, 74, 66
6, 54822, Note_off_c, 4, 78, 64
6, 54890, Note_off_c, 4, 74, 64
6, 54941, Note_on_c, 4, 76, 76
6, 54991, Note_off_c, 4, 76, 64
6, 55065, Note_on_c, 4, 78, 98
6, 55173, Note_on_c, 4, 79, 64
6, 55193, Note_off_c, 4, 78, 64
6, 55234, Note_off_c, 4, 79, 64
6, 55301, Note_on_c, 4, 76, 68
6, 55344, Note_off_c, 4, 76, 64
6, 55421, Note_on_c, 4, 76, 100
6, 55520, Note_on_c, 4, 78, 64
6, 55523, Note_off_c, 4, 76, 64
6, 55582, Note_off_c, 4, 78, 64
6, 55652, Note_on_c, 4, 74, 76
6, 55713, Note_off_c, 4, 74, 64
6, 55770, Note_on_c, 4, 74, 91
6, 55893, Note_off_c, 4, 74, 64
6, 55994, Note_on_c, 4, 74, 59
6, 56057, Note_off_c, 4, 74, 64
6, 56121, Note_on_c, 4, 74, 68
6, 56247, Note_off_c, 4, 74, 64
6, 56355, Note_on_c, 4, 74, 72
6, 56404, Note_off_c, 4, 74, 64
6, 56476, Note_on_c, 4, 74, 85
6, 56627, Note_off_c, 4, 74, 64
6, 56706, Note_on_c, 4, 74, 78
6, 56768, Note_off_c, 4, 74, 64
6, 56841, Note_on_c, 4, 74, 87
6, 56942, Note_off_c, 4, 74, 64
6, 56948, Note_on_c, 4, 71, 82
6, 57027, Note_off_c, 4, 71, 64
6, 57068, Note_on_c, 4, 73, 66
6, 57129, Note_off_c, 4, 73, 64
6, 57209, Note_on_c, 4, 74, 95
6, 57311, Note_on_c, 4, 83, 82
6, 57327, Note_off_c, 4, 74, 64
6, 57365, Note_off_c, 4, 83, 64
6, 57437, Note_on_c, 4, 73, 85
6, 57495, Note_off_c, 4, 73, 64
6, 57558, Note_on_c, 4, 74, 93
6, 57680, Note_on_c, 4, 73, 66
6, 57695, Note_off_c, 4, 74, 64
6, 57756, Note_off_c, 4, 73, 64
6, 57795, Note_on_c, 4, 71, 66
6, 57837, Note_off_c, 4, 71, 64
6, 57911, Note_on_c, 4, 73, 95
6, 58013, Note_on_c, 4, 69, 64
6, 58053, Note_off_c, 4, 73, 64
6, 58100, Note_off_c, 4, 69, 64
6, 58132, Note_on_c, 4, 71, 78
6, 58175, Note_off_c, 4, 71, 64
6, 58271, Note_on_c, 4, 72, 91
6, 58361, Note_on_c, 4, 81, 66
6, 58391, Note_off_c, 4, 72, 64
6, 58422, Note_off_c, 4, 81, 64
6, 58490, Note_on_c, 4, 71, 82
6, 58542, Note_off_c, 4, 71, 64
6, 58615, Note_on_c, 4, 72, 93
6, 58728, Note_on_c, 4, 71, 85
6, 58744, Note_off_c, 4, 72, 64
6, 58820, Note_off_c, 4, 71, 64
6, 58856, Note_on_c, 4, 69, 66
6, 58910, Note_off_c, 4, 69, 64
6, 58989, Note_on_c, 4, 71, 80
6, 59121, Note_off_c, 4, 71, 64
6, 59232, Note_on_c, 4, 83, 78
6, 59284, Note_off_c, 4, 83, 64
6, 59369, Note_on_c, 4, 83, 102
6, 59475, Note_on_c, 4, 84, 68
6, 59490, Note_off_c, 4, 83, 64
6, 59532, Note_off_c, 4, 84, 64
6, 59606, Note_on_c, 4, 81, 68
6, 59651, Note_off_c, 4, 81, 64
6, 59739, Note_on_c, 4, 81, 95
6, 59844, Note_on_c, 4, 83, 64
6, 59869, Note_off_c, 4, 81, 64
6, 59910, Note_off_c, 4, 83, 64
6, 59972, Note_on_c, 4, 79, 63
6, 60020, Note_off_c, 4, 79, 64
6, 60103, Note_on_c, 4, 79, 85
6, 60214, Note_on_c, 4, 76, 66
6, 60236, Note_off_c, 4, 79, 64
6, 60285, Note_off_c, 4, 76, 64
6, 60326, Note_on_c, 4, 78, 66
6, 60391, Note_off_c, 4, 78, 64
6, 60460, Note_on_c, 4, 80, 95
6, 60560, Note_on_c, 4, 81, 80
6, 60562, Note_off_c, 4, 80, 64
6, 60643, Note_off_c, 4, 81, 64
6, 60684, Note_on_c, 4, 83, 76
6, 60744, Note_off_c, 4, 83, 64
6, 60803, Note_on_c, 4, 76, 85
6, 60918, Note_off_c, 4, 76, 64
6, 61025, Note_on_c, 4, 80, 78
6, 61082, Note_off_c, 4, 80, 64
6, 61169, Note_on_c, 4, 69, 87
6, 61278, Note_on_c, 4, 73, 63
6, 61304, Note_off_c, 4, 69, 64
6, 61365, Note_off_c, 4, 73, 64
6, 61399, Note_on_c, 4, 76, 80
6, 61448, Note_off_c, 4, 76, 64
6, 61534, Note_on_c, 4, 81, 91
6, 61651, Note_on_c, 4, 83, 70
6, 61656, Note_off_c, 4, 81, 64
6, 61714, Note_off_c, 4, 83, 64
6, 61763, Note_on_c, 4, 79, 74
6, 61818, Note_off_c, 4, 79, 64
6, 61892, Note_on_c, 4, 79, 93
6, 61997, Note_on_c, 4, 81, 66
6, 62010, Note_off_c, 4, 79, 64
6, 62070, Note_off_c, 4, 81, 64
6, 62117, Note_on_c, 4, 78, 72
6, 62182, Note_off_c, 4, 78, 64
6, 62249, Note_on_c, 4, 78, 89
6, 62358, Note_on_c, 4, 74, 64
6, 62366, Note_off_c, 4, 78, 64
6, 62430, Note_off_c, 4, 74, 64
6, 62468, Note_on_c, 4, 76, 80
6, 62529, Note_off_c, 4, 76, 64
6, 62598, Note_on_c, 4, 78, 95
6, 62704, Note_on_c, 4, 79, 82
6, 62724, Note_off_c, 4, 78, 64
6, 62814, Note_off_c, 4, 79, 64
6, 62822, Note_on_c, 4, 81, 70
6, 62877, Note_off_c, 4, 81, 64
6, 62947, Note_on_c, 4, 74, 76
6, 63046, Note_off_c, 4, 74, 64
6, 63186, Note_on_c, 4, 78, 76
6, 63249, Note_off_c, 4, 78, 64
6, 63345, Note_on_c, 4, 67, 85
6, 63442, Note_on_c, 4, 71, 70
6, 63462, Note_off_c, 4, 67, 64
6, 63532, Note_off_c, 4, 71, 64
6, 63566, Note_on_c, 4, 74, 82
6, 63618, Note_off_c, 4, 74, 64
6, 63705, Note_on_c, 4, 79, 91
6, 63820, Note_on_c, 4, 81, 63
6, 63843, Note_off_c, 4, 79, 64
6, 63878, Note_off_c, 4, 81, 64
6, 63939, Note_on_c, 4, 78, 82
6, 63993, Note_off_c, 4, 78, 64
6, 64068, Note_on_c, 4, 78, 102
6, 64169, Note_on_c, 4, 79, 68
6, 64189, Note_off_c, 4, 78, 64
6, 64232, Note_off_c, 4, 79, 64
6, 64292, Note_on_c, 4, 76, 78
6, 64342, Note_off_c, 4, 76, 64
6, 64425, Note_on_c, 4, 76, 89
6, 64526, Note_on_c, 4, 78, 59
6, 64538, Note_off_c, 4, 76, 64
6, 64608, Note_off_c, 4, 78, 64
6, 64653, Note_on_c, 4, 79, 87
6, 64704, Note_off_c, 4, 79, 64
6, 64776, Note_on_c, 4, 81, 89
6, 64882, Note_on_c, 4, 83, 70
6, 64898, Note_off_c, 4, 81, 64
6, 64950, Note_off_c, 4, 83, 64
6, 65006, Note_on_c, 4, 79, 66
6, 65055, Note_off_c, 4, 79, 64
6, 65134, Note_on_c, 4, 79, 91
6, 65240, Note_on_c, 4, 81, 63
6, 65265, Note_off_c, 4, 79, 64
6, 65321, Note_off_c, 4, 81, 64
6, 65370, Note_on_c, 4, 78, 72
6, 65426, Note_off_c, 4, 78, 64
6, 65498, Note_on_c, 4, 78, 85
6, 65609, Note_on_c, 4, 79, 63
6, 65616, Note_off_c, 4, 78, 64
6, 65670, Note_off_c, 4, 79, 64
6, 65726, Note_on_c, 4, 81, 68
6, 65775, Note_off_c, 4, 81, 64
6, 65858, Note_on_c, 4, 83, 100
6, 65962, Note_on_c, 4, 84, 64
6, 65984, Note_off_c, 4, 83, 64
6, 66034, Note_off_c, 4, 84, 64
6, 66084, Note_on_c, 4, 81, 57
6, 66120, Note_off_c, 4, 81, 64
6, 66210, Note_on_c, 4, 81, 91
6, 66311, Note_on_c, 4, 83, 68
6, 66329, Note_off_c, 4, 81, 64
6, 66389, Note_off_c, 4, 83, 64
6, 66444, Note_on_c, 4, 79, 63
6, 66502, Note_off_c, 4, 79, 64
6, 66591, Note_on_c, 4, 79, 66
6, 66709, Note_off_c, 4, 79, 64
6, 66806, Note_on_c, 4, 79, 64
6, 66869, Note_off_c, 4, 79, 64
6, 66943, Note_on_c, 4, 79, 78
6, 67100, Note_off_c, 4, 79, 64
6, 67179, Note_on_c, 4, 79, 70
6, 67244, Note_off_c, 4, 79, 64
6, 67310, Note_on_c, 4, 79, 78
6, 67454, Note_off_c, 4, 79, 64
6, 67539, Note_on_c, 4, 79, 68
6, 67598, Note_off_c, 4, 79, 64
6, 67667, Note_on_c, 4, 79, 89
6, 67771, Note_off_c, 4, 79, 64
6, 67778, Note_on_c, 4, 76, 68
6, 67836, Note_off_c, 4, 76, 64
6, 67895, Note_on_c, 4, 78, 82
6, 67955, Note_off_c, 4, 78, 64
6, 68028, Note_on_c, 4, 79, 100
6, 68129, Note_on_c, 4, 81, 63
6, 68147, Note_off_c, 4, 79, 64
6, 68187, Note_off_c, 4, 81, 64
6, 68250, Note_on_c, 4, 78, 89
6, 68313, Note_off_c, 4, 78, 64
6, 68379, Note_on_c, 4, 79, 87
6, 68478, Note_off_c, 4, 79, 64
6, 68486, Note_on_c, 4, 78, 85
6, 68563, Note_off_c, 4, 78, 64
6, 68599, Note_on_c, 4, 76, 63
6, 68655, Note_off_c, 4, 76, 64
6, 68738, Note_on_c, 4, 78, 91
6, 68841, Note_off_c, 4, 78, 64
6, 68847, Note_on_c, 4, 81, 76
6, 68918, Note_off_c, 4, 81, 64
6, 68970, Note_on_c, 4, 79, 82
6, 69040, Note_off_c, 4, 79, 64
6, 69098, Note_on_c, 4, 81, 89
6, 69202, Note_off_c, 4, 81, 64
6, 69332, Note_on_c, 4, 74, 74
6, 69375, Note_off_c, 4, 74, 64
6, 69455, Note_on_c, 4, 69, 68
6, 69553, Note_off_c, 4, 69, 64
6, 69690, Note_on_c, 4, 73, 59
6, 69767, Note_off_c, 4, 73, 64
6, 69828, Note_on_c, 4, 74, 76
6, 72116, Note_on_c, 4, 73, 72
6, 72129, Note_off_c, 4, 74, 64
6, 72179, Note_off_c, 4, 73, 64
6, 72212, Note_on_c, 4, 74, 80
6, 72275, Note_off_c, 4, 74, 64
6, 72356, Note_on_c, 4, 74, 91
6, 72446, Note_on_c, 4, 76, 61
6, 72460, Note_off_c, 4, 74, 64
6, 72512, Note_off_c, 4, 76, 64
6, 72575, Note_on_c, 4, 72, 72
6, 72620, Note_off_c, 4, 72, 64
6, 72707, Note_on_c, 4, 72, 87
6, 72802, Note_off_c, 4, 72, 64
6, 72802, Note_on_c, 4, 74, 68
6, 72881, Note_off_c, 4, 74, 64
6, 72921, Note_on_c, 4, 71, 63
6, 72982, Note_off_c, 4, 71, 64
6, 73047, Note_on_c, 4, 71, 85
6, 73151, Note_off_c, 4, 71, 64
6, 73158, Note_on_c, 4, 74, 70
6, 73235, Note_off_c, 4, 74, 64
6, 73274, Note_on_c, 4, 76, 82
6, 73333, Note_off_c, 4, 76, 64
6, 73400, Note_on_c, 4, 76, 87
6, 73506, Note_on_c, 4, 78, 64
6, 73520, Note_off_c, 4, 76, 64
6, 73576, Note_off_c, 4, 78, 64
6, 73626, Note_on_c, 4, 74, 72
6, 73682, Note_off_c, 4, 74, 64
6, 73760, Note_on_c, 4, 74, 95
6, 73868, Note_on_c, 4, 76, 66
6, 73888, Note_off_c, 4, 74, 64
6, 73934, Note_off_c, 4, 76, 64
6, 73999, Note_on_c, 4, 73, 66
6, 74057, Note_off_c, 4, 73, 64
6, 74127, Note_on_c, 4, 73, 70
6, 74240, Note_on_c, 4, 76, 72
6, 74246, Note_off_c, 4, 73, 64
6, 74327, Note_off_c, 4, 76, 64
6, 74364, Note_on_c, 4, 78, 64
6, 74411, Note_off_c, 4, 78, 64
6, 74499, Note_on_c, 4, 78, 100
6, 74613, Note_on_c, 4, 79, 66
6, 74629, Note_off_c, 4, 78, 64
6, 74676, Note_off_c, 4, 79, 64
6, 74737, Note_on_c, 4, 76, 63
6, 74777, Note_off_c, 4, 76, 64
6, 74864, Note_on_c, 4, 76, 80
6, 74958, Note_on_c, 4, 78, 63
6, 74961, Note_off_c, 4, 76, 64
6, 75030, Note_off_c, 4, 78, 64
6, 75079, Note_on_c, 4, 74, 76
6, 75138, Note_off_c, 4, 74, 64
6, 75218, Note_on_c, 4, 74, 85
6, 75317, Note_on_c, 4, 76, 80
6, 75333, Note_off_c, 4, 74, 64
6, 75381, Note_off_c, 4, 76, 64
6, 75435, Note_on_c, 4, 78, 82
6, 75493, Note_off_c, 4, 78, 64
6, 75570, Note_on_c, 4, 78, 95
6, 76575, Note_off_c, 4, 78, 64
6, 76661, Note_on_c, 4, 76, 76
6, 76852, Note_off_c, 4, 76, 64
6, 92877, Note_on_c, 4, 76, 76
6, 93005, Note_off_c, 4, 76, 64
6, 93223, Note_on_c, 4, 80, 78
6, 93354, Note_off_c, 4, 80, 64
6, 93581, Note_on_c, 4, 81, 82
6, 93745, Note_off_c, 4, 81, 64
6, 93945, Note_on_c, 4, 76, 78
6, 94080, Note_off_c, 4, 76, 64
6, 94287, Note_on_c, 4, 80, 78
6, 94433, Note_off_c, 4, 80, 64
6, 94643, Note_on_c, 4, 81, 89
6, 94776, Note_off_c, 4, 81, 64
6, 94897, Note_on_c, 4, 76, 68
6, 94947, Note_off_c, 4, 76, 64
6, 95016, Note_on_c, 4, 76, 98
6, 95120, Note_on_c, 4, 78, 58
6, 95144, Note_off_c, 4, 76, 64
6, 95205, Note_off_c, 4, 78, 64
6, 95226, Note_on_c, 4, 74, 63
6, 95273, Note_off_c, 4, 74, 64
6, 95367, Note_on_c, 4, 74, 98
6, 95469, Note_on_c, 4, 76, 60
6, 95489, Note_off_c, 4, 74, 64
6, 95554, Note_off_c, 4, 76, 64
6, 95592, Note_on_c, 4, 73, 62
6, 95651, Note_off_c, 4, 73, 64
6, 95720, Note_on_c, 4, 73, 82
6, 95826, Note_on_c, 4, 74, 74
6, 95835, Note_off_c, 4, 73, 64
6, 95950, Note_on_c, 4, 76, 74
6, 95963, Note_off_c, 4, 74, 64
6, 96044, Note_off_c, 4, 76, 64
6, 96076, Note_on_c, 4, 78, 85
6, 96188, Note_on_c, 4, 79, 66
6, 96207, Note_off_c, 4, 78, 64
6, 96260, Note_off_c, 4, 79, 64
6, 96312, Note_on_c, 4, 76, 66
6, 96357, Note_off_c, 4, 76, 64
6, 96434, Note_on_c, 4, 76, 85
6, 96539, Note_on_c, 4, 78, 60
6, 96557, Note_off_c, 4, 76, 64
6, 96613, Note_off_c, 4, 78, 64
6, 96654, Note_on_c, 4, 74, 57
6, 96717, Note_off_c, 4, 74, 64
6, 96812, Note_on_c, 4, 74, 80
6, 96931, Note_off_c, 4, 74, 64
6, 97059, Note_on_c, 4, 74, 78
6, 97127, Note_off_c, 4, 74, 64
6, 97187, Note_on_c, 4, 74, 78
6, 97305, Note_off_c, 4, 74, 64
6, 97422, Note_on_c, 4, 74, 74
6, 97491, Note_off_c, 4, 74, 64
6, 97557, Note_on_c, 4, 74, 78
6, 97698, Note_off_c, 4, 74, 64
6, 97784, Note_on_c, 4, 74, 72
6, 97847, Note_off_c, 4, 74, 64
6, 97907, Note_on_c, 4, 74, 85
6, 98007, Note_off_c, 4, 74, 64
6, 98013, Note_on_c, 4, 71, 70
6, 98124, Note_on_c, 4, 73, 63
6, 98133, Note_off_c, 4, 71, 64
6, 98190, Note_off_c, 4, 73, 64
6, 98269, Note_on_c, 4, 74, 85
6, 98371, Note_on_c, 4, 83, 60
6, 98389, Note_off_c, 4, 74, 64
6, 98447, Note_off_c, 4, 83, 64
6, 98488, Note_on_c, 4, 73, 82
6, 98551, Note_off_c, 4, 73, 64
6, 98612, Note_on_c, 4, 74, 85
6, 98724, Note_on_c, 4, 73, 52
6, 98753, Note_off_c, 4, 74, 64
6, 98817, Note_off_c, 4, 73, 64
6, 98837, Note_on_c, 4, 71, 55
6, 98898, Note_off_c, 4, 71, 64
6, 98978, Note_on_c, 4, 73, 95
6, 99084, Note_on_c, 4, 76, 80
6, 99092, Note_off_c, 4, 73, 64
6, 99167, Note_off_c, 4, 76, 64
6, 99189, Note_on_c, 4, 74, 60
6, 99240, Note_off_c, 4, 74, 64
6, 99338, Note_on_c, 4, 76, 80
6, 100191, Note_off_c, 4, 76, 64
6, 100203, Note_on_c, 4, 78, 80
6, 100316, Note_on_c, 4, 76, 70
6, 100333, Note_off_c, 4, 78, 64
6, 100374, Note_off_c, 4, 76, 64
6, 100441, Note_on_c, 4, 74, 93
6, 100536, Note_on_c, 4, 76, 68
6, 100565, Note_off_c, 4, 74, 64
6, 100616, Note_off_c, 4, 76, 64
6, 100650, Note_on_c, 4, 73, 62
6, 100702, Note_off_c, 4, 73, 64
6, 100772, Note_on_c, 4, 73, 98
6, 100869, Note_on_c, 4, 74, 70
6, 100893, Note_off_c, 4, 73, 64
6, 100952, Note_off_c, 4, 74, 64
6, 100992, Note_on_c, 4, 71, 63
6, 101049, Note_off_c, 4, 71, 64
6, 101139, Note_on_c, 4, 71, 66
6, 102254, Note_off_c, 4, 71, 64
6, 102326, Note_on_c, 4, 73, 60
6, 102423, Note_off_c, 4, 73, 64
6, 102430, Note_on_c, 4, 74, 76
6, 102506, Note_off_c, 4, 74, 64
6, 102569, Note_on_c, 4, 76, 89
6, 102662, Note_on_c, 4, 73, 62
6, 102668, Note_off_c, 4, 76, 64
6, 102749, Note_off_c, 4, 73, 64
6, 102780, Note_on_c, 4, 69, 82
6, 102840, Note_off_c, 4, 69, 64
6, 102947, Note_on_c, 4, 81, 78
6, 104430, Note_off_c, 4, 81, 64
6, 104507, Note_on_c, 4, 80, 85
6, 104613, Note_on_c, 4, 81, 68
6, 104636, Note_off_c, 4, 80, 64
6, 104712, Note_off_c, 4, 81, 64
6, 104720, Note_on_c, 4, 83, 70
6, 104835, Note_on_c, 4, 85, 64
6, 104840, Note_off_c, 4, 83, 64
6, 104909, Note_off_c, 4, 85, 64
6, 104952, Note_on_c, 4, 81, 72
6, 105004, Note_off_c, 4, 81, 64
6, 105080, Note_on_c, 4, 81, 87
6, 105171, Note_on_c, 4, 83, 70
6, 105198, Note_off_c, 4, 81, 64
6, 105242, Note_off_c, 4, 83, 64
6, 105299, Note_on_c, 4, 80, 72
6, 105357, Note_off_c, 4, 80, 64
6, 105447, Note_on_c, 4, 80, 100
6, 105557, Note_on_c, 4, 76, 63
6, 105589, Note_off_c, 4, 80, 64
6, 105665, Note_on_c, 4, 78, 64
6, 105690, Note_off_c, 4, 76, 64
6, 105771, Note_off_c, 4, 78, 64
6, 105783, Note_on_c, 4, 80, 74
6, 105890, Note_on_c, 4, 81, 70
6, 105906, Note_off_c, 4, 80, 64
6, 105992, Note_off_c, 4, 81, 64
6, 106005, Note_on_c, 4, 83, 60
6, 106050, Note_off_c, 4, 83, 64
6, 106158, Note_on_c, 4, 76, 82
6, 106278, Note_off_c, 4, 76, 64
6, 106392, Note_on_c, 4, 80, 68
6, 106464, Note_off_c, 4, 80, 64
6, 106540, Note_on_c, 4, 69, 89
6, 106644, Note_on_c, 4, 73, 60
6, 106680, Note_off_c, 4, 69, 64
6, 106752, Note_on_c, 4, 76, 72
6, 106759, Note_off_c, 4, 73, 64
6, 106841, Note_off_c, 4, 76, 64
6, 106898, Note_on_c, 4, 81, 93
6, 107009, Note_on_c, 4, 83, 66
6, 107045, Note_off_c, 4, 81, 64
6, 107085, Note_off_c, 4, 83, 64
6, 107119, Note_on_c, 4, 79, 68
6, 107177, Note_off_c, 4, 79, 64
6, 107238, Note_on_c, 4, 79, 93
6, 107349, Note_on_c, 4, 81, 59
6, 107375, Note_off_c, 4, 79, 64
6, 107456, Note_off_c, 4, 81, 64
6, 107457, Note_on_c, 4, 78, 57
6, 107510, Note_off_c, 4, 78, 64
6, 107598, Note_on_c, 4, 78, 91
6, 107701, Note_on_c, 4, 74, 66
6, 107702, Note_off_c, 4, 78, 64
6, 107814, Note_on_c, 4, 78, 60
6, 107819, Note_off_c, 4, 74, 64
6, 107871, Note_off_c, 4, 78, 64
6, 107960, Note_on_c, 4, 83, 85
6, 108066, Note_on_c, 4, 85, 63
6, 108086, Note_off_c, 4, 83, 64
6, 108156, Note_off_c, 4, 85, 64
6, 108188, Note_on_c, 4, 81, 58
6, 108237, Note_off_c, 4, 81, 64
6, 108336, Note_on_c, 4, 81, 93
6, 108433, Note_on_c, 4, 83, 61
6, 108455, Note_off_c, 4, 81, 64
6, 108530, Note_off_c, 4, 83, 64
6, 108570, Note_on_c, 4, 80, 56
6, 108615, Note_off_c, 4, 80, 64
6, 108701, Note_on_c, 4, 80, 89
6, 108815, Note_on_c, 4, 81, 59
6, 108816, Note_off_c, 4, 80, 64
6, 108932, Note_off_c, 4, 81, 64
6, 108935, Note_on_c, 4, 83, 66
6, 108993, Note_off_c, 4, 83, 64
6, 109058, Note_on_c, 4, 85, 89
6, 109167, Note_on_c, 4, 86, 74
6, 109185, Note_off_c, 4, 85, 64
6, 109248, Note_off_c, 4, 86, 64
6, 109292, Note_on_c, 4, 83, 68
6, 109347, Note_off_c, 4, 83, 64
6, 109425, Note_on_c, 4, 83, 87
6, 109527, Note_on_c, 4, 85, 64
6, 109542, Note_off_c, 4, 83, 64
6, 109621, Note_off_c, 4, 85, 64
6, 109635, Note_on_c, 4, 81, 59
6, 109695, Note_off_c, 4, 81, 64
6, 109785, Note_on_c, 4, 81, 57
6, 109896, Note_off_c, 4, 81, 64
6, 110010, Note_on_c, 4, 81, 58
6, 110071, Note_off_c, 4, 81, 64
6, 110143, Note_on_c, 4, 81, 66
6, 110294, Note_off_c, 4, 81, 64
6, 110373, Note_on_c, 4, 81, 58
6, 110442, Note_off_c, 4, 81, 64
6, 110505, Note_on_c, 4, 81, 66
6, 110638, Note_off_c, 4, 81, 64
6, 110730, Note_on_c, 4, 81, 58
6, 110791, Note_off_c, 4, 81, 64
6, 110864, Note_on_c, 4, 81, 87
6, 110953, Note_on_c, 4, 83, 66
6, 110987, Note_off_c, 4, 81, 64
6, 111077, Note_on_c, 4, 81, 68
6, 111101, Note_off_c, 4, 83, 64
6, 111133, Note_off_c, 4, 81, 64
6, 111210, Note_on_c, 4, 80, 85
6, 111299, Note_on_c, 4, 81, 68
6, 111333, Note_off_c, 4, 80, 64
6, 111403, Note_off_c, 4, 81, 64
6, 111419, Note_on_c, 4, 78, 52
6, 111473, Note_off_c, 4, 78, 64
6, 111554, Note_on_c, 4, 78, 85
6, 111648, Note_on_c, 4, 80, 61
6, 111671, Note_off_c, 4, 78, 64
6, 111732, Note_off_c, 4, 80, 64
6, 111789, Note_on_c, 4, 76, 58
6, 111841, Note_off_c, 4, 76, 64
6, 111935, Note_on_c, 4, 76, 66
6, 112071, Note_off_c, 4, 76, 64
6, 112175, Note_on_c, 4, 76, 64
6, 112247, Note_off_c, 4, 76, 64
6, 112312, Note_on_c, 4, 76, 66
6, 112443, Note_off_c, 4, 76, 64
6, 112553, Note_on_c, 4, 76, 62
6, 112611, Note_off_c, 4, 76, 64
6, 112681, Note_on_c, 4, 76, 76
6, 112827, Note_off_c, 4, 76, 64
6, 112910, Note_on_c, 4, 76, 64
6, 112969, Note_off_c, 4, 76, 64
6, 113037, Note_on_c, 4, 76, 82
6, 113131, Note_off_c, 4, 76, 64
6, 113151, Note_on_c, 4, 81, 66
6, 113230, Note_off_c, 4, 81, 64
6, 113255, Note_on_c, 4, 80, 78
6, 113322, Note_off_c, 4, 80, 64
6, 113378, Note_on_c, 4, 81, 80
6, 113487, Note_on_c, 4, 76, 68
6, 113527, Note_off_c, 4, 81, 64
6, 113583, Note_off_c, 4, 76, 64
6, 113606, Note_on_c, 4, 78, 66
6, 113664, Note_off_c, 4, 78, 64
6, 113741, Note_on_c, 4, 73, 98
6, 113842, Note_on_c, 4, 71, 72
6, 113862, Note_off_c, 4, 73, 64
6, 113950, Note_off_c, 4, 71, 64
6, 113956, Note_on_c, 4, 69, 57
6, 114017, Note_off_c, 4, 69, 64
6, 114105, Note_on_c, 4, 69, 58
6, 114474, Note_off_c, 4, 69, 64
6, 127292, Note_on_c, 4, 78, 85
6, 127342, Note_off_c, 4, 78, 64
6, 127425, Note_on_c, 4, 78, 105
6, 127533, Note_on_c, 4, 79, 70
6, 127545, Note_off_c, 4, 78, 64
6, 127585, Note_off_c, 4, 79, 64
6, 127655, Note_on_c, 4, 76, 61
6, 127689, Note_off_c, 4, 76, 64
6, 127788, Note_on_c, 4, 76, 100
6, 127882, Note_on_c, 4, 78, 58
6, 127891, Note_off_c, 4, 76, 64
6, 127950, Note_off_c, 4, 78, 64
6, 127999, Note_on_c, 4, 74, 70
6, 128048, Note_off_c, 4, 74, 64
6, 128139, Note_on_c, 4, 74, 91
6, 128246, Note_on_c, 4, 76, 68
6, 128276, Note_off_c, 4, 74, 64
6, 128368, Note_on_c, 4, 78, 62
6, 128382, Note_off_c, 4, 76, 64
6, 128471, Note_off_c, 4, 78, 64
6, 128491, Note_on_c, 4, 79, 85
6, 128604, Note_on_c, 4, 81, 80
6, 128609, Note_off_c, 4, 79, 64
6, 128665, Note_off_c, 4, 81, 64
6, 128721, Note_on_c, 4, 78, 85
6, 128770, Note_off_c, 4, 78, 64
6, 128849, Note_on_c, 4, 78, 102
6, 128958, Note_on_c, 4, 79, 64
6, 128966, Note_off_c, 4, 78, 64
6, 129009, Note_off_c, 4, 79, 64
6, 129072, Note_on_c, 4, 76, 63
6, 129117, Note_off_c, 4, 76, 64
6, 129201, Note_on_c, 4, 76, 78
6, 129330, Note_off_c, 4, 76, 64
6, 129446, Note_on_c, 4, 76, 68
6, 129500, Note_off_c, 4, 76, 64
6, 129585, Note_on_c, 4, 76, 98
6, 129682, Note_on_c, 4, 78, 68
6, 129693, Note_off_c, 4, 76, 64
6, 129747, Note_off_c, 4, 78, 64
6, 129804, Note_on_c, 4, 74, 60
6, 129844, Note_off_c, 4, 74, 64
6, 129938, Note_on_c, 4, 74, 95
6, 130042, Note_on_c, 4, 76, 70
6, 130053, Note_off_c, 4, 74, 64
6, 130118, Note_off_c, 4, 76, 64
6, 130164, Note_on_c, 4, 73, 61
6, 130213, Note_off_c, 4, 73, 64
6, 130290, Note_on_c, 4, 73, 89
6, 130402, Note_on_c, 4, 74, 70
6, 130416, Note_off_c, 4, 73, 64
6, 130524, Note_on_c, 4, 76, 78
6, 130542, Note_off_c, 4, 74, 64
6, 130620, Note_off_c, 4, 76, 64
6, 130650, Note_on_c, 4, 78, 102
6, 130762, Note_on_c, 4, 79, 70
6, 130771, Note_off_c, 4, 78, 64
6, 130820, Note_off_c, 4, 79, 64
6, 130880, Note_on_c, 4, 76, 76
6, 130926, Note_off_c, 4, 76, 64
6, 131003, Note_on_c, 4, 76, 98
6, 131104, Note_on_c, 4, 78, 59
6, 131111, Note_off_c, 4, 76, 64
6, 131169, Note_off_c, 4, 78, 64
6, 131226, Note_on_c, 4, 74, 68
6, 131273, Note_off_c, 4, 74, 64
6, 131360, Note_on_c, 4, 74, 87
6, 131469, Note_on_c, 4, 71, 59
6, 131484, Note_off_c, 4, 74, 64
6, 131579, Note_on_c, 4, 73, 59
6, 131608, Note_off_c, 4, 71, 64
6, 131684, Note_off_c, 4, 73, 64
6, 131708, Note_on_c, 4, 74, 82
6, 131820, Note_on_c, 4, 76, 64
6, 131835, Note_off_c, 4, 74, 64
6, 131892, Note_off_c, 4, 76, 64
6, 131946, Note_on_c, 4, 72, 64
6, 131991, Note_off_c, 4, 72, 64
6, 132078, Note_on_c, 4, 72, 87
6, 132177, Note_on_c, 4, 74, 68
6, 132200, Note_off_c, 4, 72, 64
6, 132256, Note_off_c, 4, 74, 64
6, 132305, Note_on_c, 4, 71, 64
6, 132355, Note_off_c, 4, 71, 64
6, 132452, Note_on_c, 4, 71, 78
6, 132589, Note_off_c, 4, 71, 64
6, 132686, Note_on_c, 4, 71, 68
6, 132755, Note_off_c, 4, 71, 64
6, 132818, Note_on_c, 4, 76, 82
6, 132935, Note_off_c, 4, 76, 64
6, 133041, Note_on_c, 4, 75, 61
6, 133125, Note_off_c, 4, 75, 64
6, 133185, Note_on_c, 4, 76, 76
6, 133298, Note_off_c, 4, 76, 64
6, 133410, Note_on_c, 4, 78, 63
6, 133489, Note_off_c, 4, 78, 64
6, 133561, Note_on_c, 4, 79, 98
6, 133658, Note_on_c, 4, 81, 64
6, 133673, Note_off_c, 4, 79, 64
6, 133719, Note_off_c, 4, 81, 64
6, 133782, Note_on_c, 4, 78, 93
6, 133836, Note_off_c, 4, 78, 64
6, 133914, Note_on_c, 4, 76, 98
6, 134022, Note_off_c, 4, 76, 64
6, 134029, Note_on_c, 4, 78, 58
6, 134087, Note_off_c, 4, 78, 64
6, 134143, Note_on_c, 4, 74, 66
6, 134193, Note_off_c, 4, 74, 64
6, 134268, Note_on_c, 4, 73, 87
6, 134375, Note_on_c, 4, 74, 68
6, 134380, Note_off_c, 4, 73, 64
6, 134448, Note_off_c, 4, 74, 64
6, 134495, Note_on_c, 4, 71, 60
6, 134544, Note_off_c, 4, 71, 64
6, 134628, Note_on_c, 4, 76, 82
6, 134733, Note_off_c, 4, 76, 64
6, 134853, Note_on_c, 4, 73, 58
6, 134933, Note_off_c, 4, 73, 64
6, 134979, Note_on_c, 4, 66, 63
6, 135080, Note_off_c, 4, 66, 64
6, 135213, Note_on_c, 4, 76, 68
6, 135284, Note_off_c, 4, 76, 64
6, 135338, Note_on_c, 4, 74, 74
6, 135435, Note_off_c, 4, 74, 64
6, 135568, Note_on_c, 4, 79, 74
6, 135633, Note_off_c, 4, 79, 64
6, 135707, Note_on_c, 4, 78, 98
6, 135804, Note_on_c, 4, 76, 74
6, 135840, Note_off_c, 4, 78, 64
6, 135932, Note_off_c, 4, 76, 64
6, 135933, Note_on_c, 4, 74, 68
6, 136001, Note_off_c, 4, 74, 64
6, 136052, Note_on_c, 4, 73, 95
6, 136162, Note_on_c, 4, 74, 68
6, 136182, Note_off_c, 4, 73, 64
6, 136247, Note_off_c, 4, 74, 64
6, 136277, Note_on_c, 4, 71, 68
6, 136326, Note_off_c, 4, 71, 64
6, 136418, Note_on_c, 4, 66, 91
6, 136518, Note_on_c, 4, 71, 63
6, 136531, Note_off_c, 4, 66, 64
6, 136605, Note_off_c, 4, 71, 64
6, 136628, Note_on_c, 4, 70, 59
6, 136673, Note_off_c, 4, 70, 64
6, 136787, Note_on_c, 4, 71, 82
6, 136967, Note_off_c, 4, 71, 64
6, 200523, Note_on_c, 4, 74, 102
6, 200826, Note_on_c, 4, 73, 63
6, 200830, Note_off_c, 4, 74, 64
6, 200858, Note_off_c, 4, 73, 64
6, 200887, Note_on_c, 4, 74, 80
6, 200933, Note_off_c, 4, 74, 64
6, 200955, Note_on_c, 4, 69, 64
6, 200994, Note_off_c, 4, 69, 64
6, 201020, Note_on_c, 4, 78, 91
6, 201507, Note_off_c, 4, 78, 64
6, 201522, Note_on_c, 4, 76, 70
6, 201572, Note_off_c, 4, 76, 64
6, 201593, Note_on_c, 4, 74, 68
6, 201629, Note_off_c, 4, 74, 64
6, 201655, Note_on_c, 4, 76, 87
6, 201691, Note_off_c, 4, 76, 64
6, 201718, Note_on_c, 4, 78, 87
6, 201758, Note_off_c, 4, 78, 64
6, 201779, Note_on_c, 4, 76, 87
6, 201816, Note_off_c, 4, 76, 64
6, 201841, Note_on_c, 4, 78, 93
6, 201874, Note_off_c, 4, 78, 64
6, 201895, Note_on_c, 4, 74, 82
6, 201942, Note_off_c, 4, 74, 64
6, 201967, Note_on_c, 4, 81, 85
6, 202455, Note_off_c, 4, 81, 64
6, 202490, Note_on_c, 4, 79, 82
6, 202523, Note_off_c, 4, 79, 64
6, 202551, Note_on_c, 4, 78, 74
6, 202586, Note_off_c, 4, 78, 64
6, 202611, Note_on_c, 4, 79, 87
6, 202651, Note_off_c, 4, 79, 64
6, 202677, Note_on_c, 4, 81, 82
6, 202720, Note_off_c, 4, 81, 64
6, 202737, Note_on_c, 4, 79, 85
6, 202775, Note_off_c, 4, 79, 64
6, 202795, Note_on_c, 4, 81, 78
6, 202837, Note_off_c, 4, 81, 64
6, 202856, Note_on_c, 4, 78, 85
6, 202887, Note_off_c, 4, 78, 64
6, 202921, Note_on_c, 4, 71, 82
6, 203000, Note_off_c, 4, 71, 64
6, 203096, Note_on_c, 4, 81, 72
6, 203135, Note_off_c, 4, 81, 64
6, 203162, Note_on_c, 4, 83, 85
6, 203224, Note_off_c, 4, 83, 64
6, 203335, Note_on_c, 4, 78, 66
6, 203371, Note_off_c, 4, 78, 64
6, 203393, Note_on_c, 4, 79, 87
6, 204435, Note_off_c, 4, 79, 64
6, 204468, Note_on_c, 4, 69, 72
6, 204512, Note_off_c, 4, 69, 64
6, 204527, Note_on_c, 4, 71, 70
6, 204568, Note_off_c, 4, 71, 64
6, 204589, Note_on_c, 4, 73, 68
6, 204638, Note_off_c, 4, 73, 64
6, 204649, Note_on_c, 4, 74, 72
6, 204698, Note_off_c, 4, 74, 64
6, 204718, Note_on_c, 4, 76, 76
6, 204760, Note_off_c, 4, 76, 64
6, 204772, Note_on_c, 4, 78, 68
6, 204810, Note_off_c, 4, 78, 64
6, 204832, Note_on_c, 4, 79, 82
6, 204880, Note_off_c, 4, 79, 64
6, 204892, Note_on_c, 4, 78, 89
6, 204928, Note_off_c, 4, 78, 64
6, 204954, Note_on_c, 4, 76, 68
6, 204993, Note_off_c, 4, 76, 64
6, 205014, Note_on_c, 4, 78, 82
6, 205052, Note_off_c, 4, 78, 64
6, 205071, Note_on_c, 4, 79, 78
6, 205113, Note_off_c, 4, 79, 64
6, 205132, Note_on_c, 4, 76, 78
6, 205171, Note_off_c, 4, 76, 64
6, 205191, Note_on_c, 4, 81, 82
6, 205229, Note_off_c, 4, 81, 64
6, 205249, Note_on_c, 4, 76, 82
6, 205285, Note_off_c, 4, 76, 64
6, 205314, Note_on_c, 4, 78, 89
6, 205587, Note_off_c, 4, 78, 64
6, 205607, Note_on_c, 4, 76, 87
6, 205642, Note_off_c, 4, 76, 64
6, 205664, Note_on_c, 4, 78, 91
6, 205702, Note_off_c, 4, 78, 64
6, 205718, Note_on_c, 4, 74, 82
6, 205768, Note_off_c, 4, 74, 64
6, 205788, Note_on_c, 4, 81, 85
6, 206545, Note_off_c, 4, 81, 64
6, 206571, Note_on_c, 4, 79, 74
6, 206606, Note_off_c, 4, 79, 64
6, 206632, Note_on_c, 4, 81, 78
6, 206670, Note_off_c, 4, 81, 64
6, 206688, Note_on_c, 4, 78, 80
6, 206722, Note_off_c, 4, 78, 64
6, 206753, Note_on_c, 4, 79, 87
6, 207501, Note_off_c, 4, 79, 64
6, 207526, Note_on_c, 4, 78, 66
6, 207570, Note_off_c, 4, 78, 64
6, 207585, Note_on_c, 4, 79, 82
6, 207624, Note_off_c, 4, 79, 64
6, 207645, Note_on_c, 4, 76, 76
6, 207691, Note_off_c, 4, 76, 64
6, 207709, Note_on_c, 4, 78, 64
6, 207751, Note_off_c, 4, 78, 64
6, 207768, Note_on_c, 4, 81, 78
6, 207806, Note_off_c, 4, 81, 64
6, 207826, Note_on_c, 4, 86, 78
6, 207873, Note_off_c, 4, 86, 64
6, 207885, Note_on_c, 4, 85, 66
6, 207921, Note_off_c, 4, 85, 64
6, 207942, Note_on_c, 4, 83, 78
6, 207992, Note_off_c, 4, 83, 64
6, 207998, Note_on_c, 4, 81, 82
6, 208033, Note_off_c, 4, 81, 64
6, 208059, Note_on_c, 4, 79, 58
6, 208100, Note_off_c, 4, 79, 64
6, 208119, Note_on_c, 4, 78, 87
6, 208156, Note_off_c, 4, 78, 64
6, 208184, Note_on_c, 4, 79, 85
6, 208514, Note_off_c, 4, 79, 64
6, 208628, Note_on_c, 4, 79, 82
6, 208663, Note_off_c, 4, 79, 64
6, 208685, Note_on_c, 4, 79, 95
6, 208751, Note_off_c, 4, 79, 64
6, 208860, Note_on_c, 4, 76, 80
6, 208902, Note_off_c, 4, 76, 64
6, 208924, Note_on_c, 4, 81, 91
6, 208981, Note_off_c, 4, 81, 64
6, 209098, Note_on_c, 4, 76, 72
6, 209141, Note_off_c, 4, 76, 64
6, 209160, Note_on_c, 4, 78, 82
6, 209262, Note_off_c, 4, 78, 64
6, 209400, Note_on_c, 4, 74, 78
6, 209514, Note_off_c, 4, 74, 64
6, 209638, Note_on_c, 4, 71, 66
6, 210131, Note_off_c, 4, 71, 64
6, 210176, Note_on_c, 4, 71, 80
6, 210224, Note_off_c, 4, 71, 64
6, 210240, Note_on_c, 4, 73, 63
6, 210279, Note_off_c, 4, 73, 64
6, 210293, Note_on_c, 4, 74, 82
6, 210332, Note_off_c, 4, 74, 64
6, 210353, Note_on_c, 4, 76, 82
6, 210393, Note_off_c, 4, 76, 64
6, 210416, Note_on_c, 4, 74, 87
6, 210460, Note_off_c, 4, 74, 64
6, 210479, Note_on_c, 4, 76, 78
6, 210533, Note_off_c, 4, 76, 64
6, 210534, Note_on_c, 4, 73, 85
6, 210581, Note_off_c, 4, 73, 64
6, 210600, Note_on_c, 4, 66, 82
6, 210689, Note_off_c, 4, 66, 64
6, 210777, Note_on_c, 4, 76, 82
6, 210818, Note_off_c, 4, 76, 64
6, 210843, Note_on_c, 4, 74, 93
6, 210912, Note_off_c, 4, 74, 64
6, 211014, Note_on_c, 4, 73, 62
6, 211055, Note_off_c, 4, 73, 64
6, 211079, Note_on_c, 4, 74, 82
6, 211351, Note_off_c, 4, 74, 64
6, 211375, Note_on_c, 4, 73, 85
6, 211415, Note_off_c, 4, 73, 64
6, 211434, Note_on_c, 4, 74, 85
6, 211473, Note_off_c, 4, 74, 64
6, 211496, Note_on_c, 4, 71, 87
6, 211535, Note_off_c, 4, 71, 64
6, 211567, Note_on_c, 4, 67, 70
6, 212062, Note_off_c, 4, 67, 64
6, 212081, Note_on_c, 4, 66, 82
6, 212123, Note_off_c, 4, 66, 64
6, 212142, Note_on_c, 4, 67, 80
6, 212184, Note_off_c, 4, 67, 64
6, 212200, Note_on_c, 4, 64, 74
6, 212247, Note_off_c, 4, 64, 64
6, 212270, Note_on_c, 4, 66, 82
6, 212345, Note_off_c, 4, 66, 64
6, 212456, Note_on_c, 4, 67, 74
6, 212502, Note_off_c, 4, 67, 64
6, 212523, Note_on_c, 4, 69, 87
6, 212600, Note_off_c, 4, 69, 64
6, 212695, Note_on_c, 4, 71, 74
6, 212741, Note_off_c, 4, 71, 64
6, 212759, Note_on_c, 4, 73, 82
6, 212850, Note_off_c, 4, 73, 64
6, 212927, Note_on_c, 4, 74, 74
6, 212972, Note_off_c, 4, 74, 64
6, 212993, Note_on_c, 4, 73, 91
6, 213038, Note_off_c, 4, 73, 64
6, 213053, Note_on_c, 4, 74, 89
6, 213098, Note_off_c, 4, 74, 64
6, 213114, Note_on_c, 4, 76, 85
6, 213156, Note_off_c, 4, 76, 64
6, 213180, Note_on_c, 4, 73, 91
6, 213245, Note_on_c, 4, 69, 87
6, 213252, Note_off_c, 4, 73, 64
6, 213521, Note_off_c, 4, 69, 64
6, 213539, Note_on_c, 4, 71, 82
6, 213581, Note_off_c, 4, 71, 64
6, 213594, Note_on_c, 4, 73, 82
6, 213633, Note_off_c, 4, 73, 64
6, 213646, Note_on_c, 4, 69, 87
6, 213697, Note_off_c, 4, 69, 64
6, 213716, Note_on_c, 4, 76, 85
6, 213980, Note_off_c, 4, 76, 64
6, 214007, Note_on_c, 4, 74, 82
6, 214041, Note_off_c, 4, 74, 64
6, 214064, Note_on_c, 4, 76, 80
6, 214103, Note_off_c, 4, 76, 64
6, 214120, Note_on_c, 4, 73, 80
6, 214158, Note_off_c, 4, 73, 64
6, 214185, Note_on_c, 4, 74, 85
6, 214462, Note_off_c, 4, 74, 64
6, 214487, Note_on_c, 4, 73, 82
6, 214527, Note_off_c, 4, 73, 64
6, 214547, Note_on_c, 4, 74, 87
6, 214582, Note_off_c, 4, 74, 64
6, 214599, Note_on_c, 4, 69, 89
6, 214646, Note_off_c, 4, 69, 64
6, 214664, Note_on_c, 4, 78, 100
6, 214943, Note_off_c, 4, 78, 64
6, 214960, Note_on_c, 4, 76, 82
6, 215000, Note_off_c, 4, 76, 64
6, 215021, Note_on_c, 4, 78, 98
6, 215065, Note_off_c, 4, 78, 64
6, 215075, Note_on_c, 4, 74, 80
6, 215120, Note_off_c, 4, 74, 64
6, 215149, Note_on_c, 4, 76, 89
6, 215431, Note_off_c, 4, 76, 64
6, 215452, Note_on_c, 4, 74, 85
6, 215497, Note_off_c, 4, 74, 64
6, 215511, Note_on_c, 4, 76, 68
6, 215545, Note_off_c, 4, 76, 64
6, 215563, Note_on_c, 4, 73, 66
6, 215614, Note_off_c, 4, 73, 64
6, 215633, Note_on_c, 4, 79, 80
6, 215910, Note_off_c, 4, 79, 64
6, 215932, Note_on_c, 4, 77, 72
6, 215970, Note_off_c, 4, 77, 64
6, 215993, Note_on_c, 4, 79, 80
6, 216035, Note_off_c, 4, 79, 64
6, 216048, Note_on_c, 4, 76, 78
6, 216099, Note_off_c, 4, 76, 64
6, 216119, Note_on_c, 4, 77, 76
6, 216415, Note_off_c, 4, 77, 64
6, 216428, Note_on_c, 4, 76, 74
6, 216462, Note_off_c, 4, 76, 64
6, 216486, Note_on_c, 4, 77, 80
6, 216522, Note_off_c, 4, 77, 64
6, 216537, Note_on_c, 4, 74, 70
6, 216580, Note_off_c, 4, 74, 64
6, 216600, Note_on_c, 4, 76, 66
6, 216875, Note_off_c, 4, 76, 64
6, 216895, Note_on_c, 4, 74, 68
6, 216943, Note_off_c, 4, 74, 64
6, 216950, Note_on_c, 4, 76, 66
6, 216995, Note_off_c, 4, 76, 64
6, 217013, Note_on_c, 4, 73, 63
6, 217055, Note_off_c, 4, 73, 64
6, 217072, Note_on_c, 4, 74, 76
6, 217128, Note_off_c, 4, 74, 64
6, 217135, Note_on_c, 4, 73, 64
6, 217170, Note_off_c, 4, 73, 64
6, 217188, Note_on_c, 4, 74, 85
6, 217231, Note_off_c, 4, 74, 64
6, 217246, Note_on_c, 4, 71, 82
6, 217291, Note_off_c, 4, 71, 64
6, 217309, Note_on_c, 4, 72, 74
6, 217824, Note_off_c, 4, 72, 64
6, 217842, Note_on_c, 4, 71, 85
6, 217888, Note_off_c, 4, 71, 64
6, 217900, Note_on_c, 4, 72, 82
6, 217936, Note_off_c, 4, 72, 64
6, 217956, Note_on_c, 4, 69, 82
6, 218002, Note_off_c, 4, 69, 64
6, 218026, Note_on_c, 4, 71, 89
6, 218120, Note_off_c, 4, 71, 64
6, 218206, Note_on_c, 4, 73, 66
6, 218249, Note_off_c, 4, 73, 64
6, 218269, Note_on_c, 4, 74, 87
6, 218641, Note_off_c, 4, 74, 64
6, 218693, Note_on_c, 4, 76, 93
6, 218740, Note_off_c, 4, 76, 64
6, 218756, Note_on_c, 4, 69, 89
6, 218840, Note_off_c, 4, 69, 64
6, 218922, Note_on_c, 4, 79, 85
6, 218963, Note_off_c, 4, 79, 64
6, 218994, Note_on_c, 4, 78, 93
6, 219096, Note_off_c, 4, 78, 64
6, 219157, Note_on_c, 4, 76, 82
6, 219198, Note_off_c, 4, 76, 64
6, 219235, Note_on_c, 4, 74, 93
6, 219312, Note_on_c, 4, 73, 58
6, 219315, Note_off_c, 4, 74, 64
6, 219344, Note_off_c, 4, 73, 64
6, 219345, Note_on_c, 4, 74, 76
6, 219372, Note_on_c, 4, 73, 57
6, 219374, Note_off_c, 4, 74, 64
6, 219395, Note_off_c, 4, 73, 64
6, 219395, Note_on_c, 4, 74, 68
6, 219420, Note_off_c, 4, 74, 64
6, 219420, Note_on_c, 4, 73, 62
6, 219439, Note_on_c, 4, 74, 68
6, 219444, Note_off_c, 4, 73, 64
6, 219468, Note_on_c, 4, 73, 89
6, 219473, Note_off_c, 4, 74, 64
6, 219577, Note_off_c, 4, 73, 64
6, 219639, Note_on_c, 4, 74, 80
6, 219677, Note_off_c, 4, 74, 64
6, 219710, Note_on_c, 4, 74, 89
6, 220401, Note_off_c, 4, 74, 64
6, 251739, Note_on_c, 4, 79, 74
6, 252139, Note_off_c, 4, 79, 64
6, 252224, Note_on_c, 4, 73, 62
6, 252332, Note_on_c, 4, 74, 76
6, 252369, Note_off_c, 4, 73, 64
6, 252425, Note_off_c, 4, 74, 64
6, 252452, Note_on_c, 4, 76, 80
6, 252566, Note_on_c, 4, 85, 78
6, 252589, Note_off_c, 4, 76, 64
6, 252639, Note_off_c, 4, 85, 64
6, 252686, Note_on_c, 4, 75, 66
6, 252740, Note_off_c, 4, 75, 64
6, 252814, Note_on_c, 4, 76, 80
6, 252924, Note_on_c, 4, 75, 62
6, 252940, Note_off_c, 4, 76, 64
6, 253043, Note_off_c, 4, 75, 64
6, 253044, Note_on_c, 4, 73, 58
6, 253113, Note_off_c, 4, 73, 64
6, 253181, Note_on_c, 4, 75, 74
6, 253322, Note_off_c, 4, 75, 64
6, 253532, Note_on_c, 4, 78, 64
6, 253665, Note_off_c, 4, 78, 64
6, 253899, Note_on_c, 4, 83, 80
6, 254304, Note_off_c, 4, 83, 64
6, 254384, Note_on_c, 4, 71, 70
6, 254483, Note_on_c, 4, 73, 62
6, 254510, Note_off_c, 4, 71, 64
6, 254600, Note_off_c, 4, 73, 64
6, 254607, Note_on_c, 4, 74, 82
6, 254729, Note_on_c, 4, 83, 85
6, 254745, Note_off_c, 4, 74, 64
6, 254798, Note_off_c, 4, 83, 64
6, 254846, Note_on_c, 4, 73, 68
6, 254934, Note_off_c, 4, 73, 64
6, 254963, Note_on_c, 4, 74, 80
6, 255068, Note_on_c, 4, 73, 56
6, 255089, Note_off_c, 4, 74, 64
6, 255188, Note_off_c, 4, 73, 64
6, 255188, Note_on_c, 4, 71, 59
6, 255264, Note_off_c, 4, 71, 64
6, 255325, Note_on_c, 4, 73, 68
6, 255474, Note_off_c, 4, 73, 64
6, 255694, Note_on_c, 4, 76, 74
6, 255822, Note_off_c, 4, 76, 64
6, 256047, Note_on_c, 4, 81, 68
6, 256391, Note_off_c, 4, 81, 64
6, 256524, Note_on_c, 4, 73, 68
6, 256626, Note_on_c, 4, 74, 82
6, 256661, Note_off_c, 4, 73, 64
6, 256722, Note_off_c, 4, 74, 64
6, 256765, Note_on_c, 4, 76, 76
6, 256878, Note_on_c, 4, 73, 58
6, 256900, Note_off_c, 4, 76, 64
6, 256968, Note_off_c, 4, 73, 64
6, 256995, Note_on_c, 4, 74, 70
6, 257069, Note_off_c, 4, 74, 64
6, 257125, Note_on_c, 4, 69, 82
6, 257224, Note_on_c, 4, 73, 63
6, 257232, Note_off_c, 4, 69, 64
6, 257314, Note_off_c, 4, 73, 64
6, 257339, Note_on_c, 4, 74, 68
6, 257411, Note_off_c, 4, 74, 64
6, 257478, Note_on_c, 4, 83, 82
6, 257540, Note_off_c, 4, 83, 64
6, 257597, Note_on_c, 4, 73, 64
6, 257697, Note_off_c, 4, 73, 64
6, 257721, Note_on_c, 4, 74, 74
6, 257814, Note_off_c, 4, 74, 64
6, 257861, Note_on_c, 4, 76, 78
6, 257978, Note_on_c, 4, 73, 59
6, 257991, Note_off_c, 4, 76, 64
6, 258070, Note_off_c, 4, 73, 64
6, 258093, Note_on_c, 4, 74, 70
6, 258178, Note_off_c, 4, 74, 64
6, 258219, Note_on_c, 4, 71, 85
6, 258322, Note_on_c, 4, 73, 57
6, 258344, Note_off_c, 4, 71, 64
6, 258434, Note_off_c, 4, 73, 64
6, 258435, Note_on_c, 4, 74, 62
6, 258497, Note_off_c, 4, 74, 64
6, 258570, Note_on_c, 4, 77, 87
6, 258682, Note_on_c, 4, 76, 63
6, 258691, Note_off_c, 4, 77, 64
6, 258786, Note_off_c, 4, 76, 64
6, 258808, Note_on_c, 4, 74, 59
6, 258860, Note_off_c, 4, 74, 64
6, 258929, Note_on_c, 4, 74, 85
6, 259042, Note_on_c, 4, 72, 66
6, 259060, Note_off_c, 4, 74, 64
6, 259119, Note_off_c, 4, 72, 64
6, 259150, Note_on_c, 4, 71, 63
6, 259213, Note_off_c, 4, 71, 64
6, 259285, Note_on_c, 4, 71, 80
6, 259384, Note_on_c, 4, 72, 66
6, 259418, Note_off_c, 4, 71, 64
6, 259510, Note_off_c, 4, 72, 64
6, 259514, Note_on_c, 4, 74, 59
6, 259539, Note_off_c, 4, 74, 64
6, 259647, Note_on_c, 4, 72, 85
6, 259753, Note_on_c, 4, 69, 66
6, 259800, Note_off_c, 4, 72, 64
6, 259872, Note_on_c, 4, 71, 68
6, 259888, Note_off_c, 4, 69, 64
6, 259998, Note_off_c, 4, 71, 64
6, 260001, Note_on_c, 4, 72, 78
6, 260109, Note_on_c, 4, 74, 66
6, 260111, Note_off_c, 4, 72, 64
6, 260181, Note_off_c, 4, 74, 64
6, 260234, Note_on_c, 4, 71, 66
6, 260294, Note_off_c, 4, 71, 64
6, 260367, Note_on_c, 4, 72, 85
6, 260477, Note_on_c, 4, 71, 76
6, 260480, Note_off_c, 4, 72, 64
6, 260580, Note_off_c, 4, 71, 64
6, 260585, Note_on_c, 4, 69, 80
6, 260646, Note_off_c, 4, 69, 64
6, 260739, Note_on_c, 4, 68, 80
6, 260849, Note_on_c, 4, 71, 64
6, 260887, Note_off_c, 4, 68, 64
6, 260948, Note_on_c, 4, 76, 78
6, 260959, Note_off_c, 4, 71, 64
6, 261076, Note_on_c, 4, 80, 76
6, 261078, Note_off_c, 4, 76, 64
6, 261202, Note_on_c, 4, 81, 72
6, 261213, Note_off_c, 4, 80, 64
6, 261303, Note_off_c, 4, 81, 64
6, 261319, Note_on_c, 4, 83, 68
6, 261373, Note_off_c, 4, 83, 64
6, 261456, Note_on_c, 4, 76, 85
6, 261571, Note_on_c, 4, 81, 80
6, 261594, Note_off_c, 4, 76, 64
6, 261656, Note_off_c, 4, 81, 64
6, 261679, Note_on_c, 4, 80, 82
6, 261740, Note_off_c, 4, 80, 64
6, 261827, Note_on_c, 4, 81, 82
6, 263960, Note_off_c, 4, 81, 64
6, 264086, Note_on_c, 4, 78, 82
6, 264195, Note_on_c, 4, 80, 74
6, 264221, Note_off_c, 4, 78, 64
6, 264318, Note_on_c, 4, 81, 72
6, 264356, Note_off_c, 4, 80, 64
6, 264429, Note_off_c, 4, 81, 64
6, 264435, Note_on_c, 4, 83, 68
6, 264505, Note_off_c, 4, 83, 64
6, 264568, Note_on_c, 4, 80, 76
6, 264626, Note_off_c, 4, 80, 64
6, 264705, Note_on_c, 4, 81, 85
6, 264811, Note_on_c, 4, 80, 58
6, 264833, Note_off_c, 4, 81, 64
6, 264915, Note_on_c, 4, 78, 61
6, 264924, Note_off_c, 4, 80, 64
6, 264969, Note_off_c, 4, 78, 64
6, 265068, Note_on_c, 4, 80, 78
6, 265176, Note_on_c, 4, 81, 68
6, 265239, Note_off_c, 4, 80, 64
6, 265293, Note_off_c, 4, 81, 64
6, 265306, Note_on_c, 4, 83, 66
6, 265436, Note_on_c, 4, 85, 85
6, 265439, Note_off_c, 4, 83, 64
6, 265547, Note_on_c, 4, 86, 80
6, 265571, Note_off_c, 4, 85, 64
6, 265614, Note_off_c, 4, 86, 64
6, 265659, Note_on_c, 4, 83, 70
6, 265711, Note_off_c, 4, 83, 64
6, 265791, Note_on_c, 4, 83, 89
6, 265891, Note_on_c, 4, 85, 63
6, 265898, Note_off_c, 4, 83, 64
6, 265968, Note_off_c, 4, 85, 64
6, 266008, Note_on_c, 4, 81, 70
6, 266073, Note_off_c, 4, 81, 64
6, 266156, Note_on_c, 4, 81, 80
6, 266528, Note_off_c, 4, 81, 64
6, 266627, Note_on_c, 4, 74, 74
6, 266732, Note_on_c, 4, 73, 62
6, 266773, Note_off_c, 4, 74, 64
6, 266823, Note_off_c, 4, 73, 64
6, 266860, Note_on_c, 4, 71, 89
6, 266959, Note_off_c, 4, 71, 64
6, 266976, Note_on_c, 4, 81, 68
6, 267081, Note_off_c, 4, 81, 64
6, 267082, Note_on_c, 4, 80, 70
6, 267164, Note_off_c, 4, 80, 64
6, 267219, Note_on_c, 4, 81, 70
6, 267389, Note_off_c, 4, 81, 64
6, 290123, Note_on_c, 4, 73, 53
6, 290170, Note_off_c, 4, 73, 64
6, 290253, Note_on_c, 4, 73, 78
6, 290353, Note_on_c, 4, 76, 66
6, 290378, Note_off_c, 4, 73, 64
6, 290427, Note_off_c, 4, 76, 64
6, 290472, Note_on_c, 4, 74, 61
6, 290519, Note_off_c, 4, 74, 64
6, 290607, Note_on_c, 4, 74, 89
6, 290727, Note_on_c, 4, 78, 59
6, 290753, Note_off_c, 4, 74, 64
6, 290792, Note_off_c, 4, 78, 64
6, 290844, Note_on_c, 4, 76, 60
6, 290893, Note_off_c, 4, 76, 64
6, 290985, Note_on_c, 4, 76, 68
6, 291183, Note_off_c, 4, 76, 64
6, 292292, Note_on_c, 4, 81, 68
6, 292347, Note_off_c, 4, 81, 64
6, 292419, Note_on_c, 4, 81, 91
6, 292520, Note_on_c, 4, 83, 61
6, 292560, Note_off_c, 4, 81, 64
6, 292616, Note_off_c, 4, 83, 64
6, 292617, Note_on_c, 4, 79, 63
6, 292671, Note_off_c, 4, 79, 64
6, 292763, Note_on_c, 4, 79, 100
6, 292864, Note_on_c, 4, 81, 63
6, 292893, Note_off_c, 4, 79, 64
6, 292938, Note_off_c, 4, 81, 64
6, 293003, Note_on_c, 4, 78, 87
6, 293053, Note_off_c, 4, 78, 64
6, 293138, Note_on_c, 4, 78, 100
6, 293274, Note_off_c, 4, 78, 64
6, 293364, Note_on_c, 4, 74, 66
6, 293415, Note_off_c, 4, 74, 64
6, 293512, Note_on_c, 4, 74, 102
6, 293616, Note_on_c, 4, 78, 59
6, 293645, Note_off_c, 4, 74, 64
6, 293693, Note_off_c, 4, 78, 64
6, 293726, Note_on_c, 4, 76, 66
6, 293777, Note_off_c, 4, 76, 64
6, 293863, Note_on_c, 4, 76, 91
6, 293973, Note_on_c, 4, 79, 70
6, 293978, Note_off_c, 4, 76, 64
6, 294043, Note_off_c, 4, 79, 64
6, 294077, Note_on_c, 4, 78, 85
6, 294133, Note_off_c, 4, 78, 64
6, 294214, Note_on_c, 4, 78, 76
6, 294407, Note_off_c, 4, 78, 64
6, 295532, Note_on_c, 4, 69, 70
6, 295589, Note_off_c, 4, 69, 64
6, 295659, Note_on_c, 4, 69, 87
6, 295771, Note_on_c, 4, 72, 68
6, 295791, Note_off_c, 4, 69, 64
6, 295854, Note_off_c, 4, 72, 64
6, 295881, Note_on_c, 4, 71, 70
6, 295929, Note_off_c, 4, 71, 64
6, 296010, Note_on_c, 4, 71, 93
6, 296122, Note_on_c, 4, 74, 66
6, 296144, Note_off_c, 4, 71, 64
6, 296196, Note_off_c, 4, 74, 64
6, 296250, Note_on_c, 4, 72, 66
6, 296298, Note_off_c, 4, 72, 64
6, 296385, Note_on_c, 4, 72, 100
6, 296493, Note_on_c, 4, 76, 72
6, 296527, Note_off_c, 4, 72, 64
6, 296601, Note_on_c, 4, 74, 63
6, 296622, Note_off_c, 4, 76, 64
6, 296657, Note_off_c, 4, 74, 64
6, 296725, Note_on_c, 4, 74, 80
6, 296851, Note_on_c, 4, 76, 70
6, 296869, Note_off_c, 4, 74, 64
6, 296925, Note_off_c, 4, 76, 64
6, 296979, Note_on_c, 4, 72, 64
6, 297029, Note_off_c, 4, 72, 64
6, 297121, Note_on_c, 4, 72, 98
6, 297224, Note_on_c, 4, 74, 72
6, 297254, Note_off_c, 4, 72, 64
6, 297323, Note_off_c, 4, 74, 64
6, 297341, Note_on_c, 4, 71, 55
6, 297387, Note_off_c, 4, 71, 64
6, 297468, Note_on_c, 4, 71, 91
6, 297580, Note_on_c, 4, 67, 68
6, 297627, Note_off_c, 4, 71, 64
6, 297692, Note_on_c, 4, 69, 66
6, 297715, Note_off_c, 4, 67, 64
6, 297807, Note_off_c, 4, 69, 64
6, 297834, Note_on_c, 4, 71, 95
6, 297940, Note_on_c, 4, 73, 64
6, 297945, Note_off_c, 4, 71, 64
6, 298022, Note_off_c, 4, 73, 64
6, 298061, Note_on_c, 4, 74, 74
6, 298116, Note_off_c, 4, 74, 64
6, 298191, Note_on_c, 4, 74, 80
6, 298650, Note_off_c, 4, 74, 64
6, 298662, Note_on_c, 4, 73, 61
6, 298754, Note_off_c, 4, 73, 64
6, 298764, Note_on_c, 4, 71, 82
6, 298840, Note_off_c, 4, 71, 64
6, 298907, Note_on_c, 4, 73, 80
6, 299006, Note_on_c, 4, 74, 72
6, 299038, Note_off_c, 4, 73, 64
6, 299112, Note_off_c, 4, 74, 64
6, 299133, Note_on_c, 4, 76, 76
6, 299186, Note_off_c, 4, 76, 64
6, 299274, Note_on_c, 4, 76, 91
6, 299720, Note_off_c, 4, 76, 64
6, 299760, Note_on_c, 4, 74, 82
6, 299830, Note_off_c, 4, 74, 64
6, 299868, Note_on_c, 4, 73, 78
6, 299949, Note_off_c, 4, 73, 64
6, 299997, Note_on_c, 4, 74, 85
6, 300098, Note_on_c, 4, 76, 78
6, 300118, Note_off_c, 4, 74, 64
6, 300176, Note_off_c, 4, 76, 64
6, 300217, Note_on_c, 4, 78, 93
6, 300275, Note_off_c, 4, 78, 64
6, 300357, Note_on_c, 4, 78, 100
6, 300807, Note_off_c, 4, 78, 64
6, 300854, Note_on_c, 4, 76, 82
6, 300937, Note_off_c, 4, 76, 64
6, 300952, Note_on_c, 4, 74, 76
6, 301032, Note_off_c, 4, 74, 64
6, 301074, Note_on_c, 4, 76, 82
6, 301175, Note_off_c, 4, 76, 64
6, 301180, Note_on_c, 4, 78, 74
6, 301256, Note_off_c, 4, 78, 64
6, 301293, Note_on_c, 4, 79, 85
6, 301360, Note_off_c, 4, 79, 64
6, 301437, Note_on_c, 4, 79, 93
6, 301862, Note_off_c, 4, 79, 64
6, 314032, Note_on_c, 4, 74, 74
6, 314156, Note_off_c, 4, 74, 64
6, 314370, Note_on_c, 4, 78, 64
6, 314500, Note_off_c, 4, 78, 64
6, 315125, Note_on_c, 4, 76, 70
6, 315249, Note_off_c, 4, 76, 64
6, 315479, Note_on_c, 4, 79, 80
6, 315607, Note_off_c, 4, 79, 64
6, 316073, Note_on_c, 4, 78, 80
6, 316125, Note_off_c, 4, 78, 64
6, 316212, Note_on_c, 4, 78, 105
6, 316307, Note_on_c, 4, 79, 68
6, 316322, Note_off_c, 4, 78, 64
6, 316387, Note_off_c, 4, 79, 64
6, 316419, Note_on_c, 4, 76, 57
6, 316460, Note_off_c, 4, 76, 64
6, 316559, Note_on_c, 4, 76, 91
6, 316658, Note_off_c, 4, 76, 64
6, 316658, Note_on_c, 4, 78, 57
6, 316723, Note_off_c, 4, 78, 64
6, 316777, Note_on_c, 4, 75, 52
6, 316813, Note_off_c, 4, 75, 64
6, 316905, Note_on_c, 4, 75, 66
6, 317115, Note_off_c, 4, 75, 64
6, 317285, Note_on_c, 4, 83, 55
6, 318156, Note_off_c, 4, 83, 64
6, 318206, Note_on_c, 4, 75, 60
6, 318284, Note_off_c, 4, 75, 64
6, 318343, Note_on_c, 4, 76, 63
6, 319191, Note_on_c, 4, 78, 53
6, 319205, Note_off_c, 4, 76, 64
6, 319286, Note_off_c, 4, 78, 64
6, 319286, Note_on_c, 4, 79, 70
6, 319347, Note_off_c, 4, 79, 64
6, 319436, Note_on_c, 4, 81, 66
6, 320323, Note_off_c, 4, 81, 64
6, 320350, Note_on_c, 4, 71, 64
6, 320427, Note_off_c, 4, 71, 64
6, 320501, Note_on_c, 4, 72, 63
6, 321349, Note_off_c, 4, 72, 64
6, 321463, Note_on_c, 4, 62, 52
6, 321520, Note_off_c, 4, 62, 64
6, 321585, Note_on_c, 4, 62, 66
6, 321750, Note_off_c, 4, 62, 64
6, 321815, Note_on_c, 4, 62, 64
6, 321878, Note_off_c, 4, 62, 64
6, 321947, Note_on_c, 4, 62, 64
6, 322078, Note_off_c, 4, 62, 64
6, 322168, Note_on_c, 4, 62, 64
6, 322240, Note_off_c, 4, 62, 64
6, 322310, Note_on_c, 4, 62, 72
6, 322438, Note_off_c, 4, 62, 64
6, 322670, Note_on_c, 4, 67, 70
6, 322787, Note_off_c, 4, 67, 64
6, 323016, Note_on_c, 4, 71, 66
6, 323151, Note_off_c, 4, 71, 64
6, 323375, Note_on_c, 4, 71, 70
6, 323509, Note_off_c, 4, 71, 64
6, 323743, Note_on_c, 4, 69, 66
6, 323876, Note_off_c, 4, 69, 64
6, 324094, Note_on_c, 4, 71, 72
6, 324216, Note_off_c, 4, 71, 64
6, 324443, Note_on_c, 4, 72, 82
6, 324549, Note_on_c, 4, 71, 60
6, 324571, Note_off_c, 4, 72, 64
6, 324666, Note_off_c, 4, 71, 64
6, 324672, Note_on_c, 4, 69, 64
6, 324737, Note_off_c, 4, 69, 64
6, 324814, Note_on_c, 4, 74, 87
6, 324920, Note_on_c, 4, 76, 57
6, 324930, Note_off_c, 4, 74, 64
6, 324978, Note_off_c, 4, 76, 64
6, 325037, Note_on_c, 4, 72, 66
6, 325082, Note_off_c, 4, 72, 64
6, 325170, Note_on_c, 4, 72, 80
6, 325264, Note_on_c, 4, 74, 68
6, 325278, Note_off_c, 4, 72, 64
6, 325358, Note_off_c, 4, 74, 64
6, 325383, Note_on_c, 4, 71, 57
6, 325444, Note_off_c, 4, 71, 64
6, 325520, Note_on_c, 4, 71, 80
6, 325633, Note_on_c, 4, 67, 60
6, 325665, Note_off_c, 4, 71, 64
6, 325728, Note_off_c, 4, 67, 64
6, 325761, Note_on_c, 4, 69, 64
6, 325820, Note_off_c, 4, 69, 64
6, 325892, Note_on_c, 4, 71, 89
6, 325997, Note_on_c, 4, 72, 66
6, 326015, Note_off_c, 4, 71, 64
6, 326090, Note_off_c, 4, 72, 64
6, 326112, Note_on_c, 4, 69, 60
6, 326164, Note_off_c, 4, 69, 64
6, 326252, Note_on_c, 4, 69, 85
6, 326346, Note_on_c, 4, 71, 64
6, 326373, Note_off_c, 4, 69, 64
6, 326438, Note_off_c, 4, 71, 64
6, 326466, Note_on_c, 4, 67, 66
6, 326531, Note_off_c, 4, 67, 64
6, 326623, Note_on_c, 4, 67, 72
6, 326751, Note_off_c, 4, 67, 64
6, 326859, Note_on_c, 4, 67, 61
6, 326925, Note_off_c, 4, 67, 64
6, 326990, Note_on_c, 4, 72, 82
6, 327100, Note_off_c, 4, 72, 64
6, 327213, Note_on_c, 4, 71, 63
6, 327285, Note_off_c, 4, 71, 64
6, 327347, Note_on_c, 4, 72, 82
6, 327465, Note_off_c, 4, 72, 64
6, 327566, Note_on_c, 4, 74, 78
6, 327629, Note_off_c, 4, 74, 64
6, 327705, Note_on_c, 4, 76, 87
6, 327806, Note_on_c, 4, 77, 68
6, 327827, Note_off_c, 4, 76, 64
6, 327891, Note_off_c, 4, 77, 64
6, 327930, Note_on_c, 4, 74, 64
6, 327980, Note_off_c, 4, 74, 64
6, 328058, Note_on_c, 4, 72, 78
6, 328155, Note_on_c, 4, 74, 58
6, 328173, Note_off_c, 4, 72, 64
6, 328256, Note_off_c, 4, 74, 64
6, 328277, Note_on_c, 4, 71, 60
6, 328337, Note_off_c, 4, 71, 64
6, 328403, Note_on_c, 4, 69, 80
6, 328509, Note_on_c, 4, 71, 66
6, 328518, Note_off_c, 4, 69, 64
6, 328599, Note_off_c, 4, 71, 64
6, 328617, Note_on_c, 4, 67, 58
6, 328686, Note_off_c, 4, 67, 64
6, 328760, Note_on_c, 4, 74, 82
6, 328877, Note_off_c, 4, 74, 64
6, 328983, Note_on_c, 4, 69, 74
6, 329055, Note_off_c, 4, 69, 64
6, 329112, Note_on_c, 4, 62, 66
6, 329247, Note_off_c, 4, 62, 64
6, 329350, Note_on_c, 4, 72, 66
6, 329422, Note_off_c, 4, 72, 64
6, 329483, Note_on_c, 4, 71, 76
6, 329593, Note_off_c, 4, 71, 64
6, 329715, Note_on_c, 4, 76, 70
6, 329777, Note_off_c, 4, 76, 64
6, 329856, Note_on_c, 4, 74, 80
6, 329969, Note_on_c, 4, 76, 76
6, 329987, Note_off_c, 4, 74, 64
6, 330092, Note_on_c, 4, 78, 60
6, 330097, Note_off_c, 4, 76, 64
6, 330191, Note_off_c, 4, 78, 64
6, 330219, Note_on_c, 4, 79, 89
6, 330327, Note_on_c, 4, 81, 68
6, 330356, Note_off_c, 4, 79, 64
6, 330412, Note_off_c, 4, 81, 64
6, 330444, Note_on_c, 4, 78, 78
6, 330507, Note_off_c, 4, 78, 64
6, 330572, Note_on_c, 4, 79, 89
6, 330621, Note_on_c, 4, 78, 78
6, 330633, Note_off_c, 4, 79, 64
6, 330664, Note_off_c, 4, 78, 64
6, 330664, Note_on_c, 4, 79, 76
6, 330716, Note_on_c, 4, 78, 66
6, 330740, Note_off_c, 4, 79, 64
6, 330779, Note_off_c, 4, 78, 64
6, 330810, Note_on_c, 4, 79, 85
6, 330867, Note_off_c, 4, 79, 64
6, 330929, Note_on_c, 4, 79, 85
6, 331074, Note_off_c, 4, 79, 64
6, 331292, Note_on_c, 4, 74, 66
6, 331418, Note_off_c, 4, 74, 64
6, 331650, Note_on_c, 4, 78, 58
6, 331771, Note_off_c, 4, 78, 64
6, 332014, Note_on_c, 4, 79, 74
6, 332158, Note_off_c, 4, 79, 64
6, 332365, Note_on_c, 4, 74, 60
6, 332500, Note_off_c, 4, 74, 64
6, 332741, Note_on_c, 4, 78, 63
6, 332876, Note_off_c, 4, 78, 64
6, 333090, Note_on_c, 4, 79, 72
6, 333270, Note_off_c, 4, 79, 64
6, 353844, Note_on_c, 4, 81, 68
6, 353898, Note_off_c, 4, 81, 64
6, 353976, Note_on_c, 4, 81, 91
6, 354091, Note_on_c, 4, 83, 59
6, 354122, Note_off_c, 4, 81, 64
6, 354179, Note_off_c, 4, 83, 64
6, 354210, Note_on_c, 4, 79, 59
6, 354271, Note_off_c, 4, 79, 64
6, 354347, Note_on_c, 4, 79, 87
6, 354458, Note_on_c, 4, 81, 58
6, 354471, Note_off_c, 4, 79, 64
6, 354537, Note_off_c, 4, 81, 64
6, 354582, Note_on_c, 4, 78, 61
6, 354631, Note_off_c, 4, 78, 64
6, 354714, Note_on_c, 4, 78, 87
6, 354824, Note_on_c, 4, 79, 70
6, 354847, Note_off_c, 4, 78, 64
6, 354937, Note_on_c, 4, 81, 68
6, 354960, Note_off_c, 4, 79, 64
6, 355036, Note_off_c, 4, 81, 64
6, 355063, Note_on_c, 4, 83, 98
6, 355173, Note_on_c, 4, 84, 70
6, 355184, Note_off_c, 4, 83, 64
6, 355263, Note_off_c, 4, 84, 64
6, 355288, Note_on_c, 4, 81, 63
6, 355347, Note_off_c, 4, 81, 64
6, 355416, Note_on_c, 4, 81, 87
6, 355524, Note_on_c, 4, 83, 64
6, 355533, Note_off_c, 4, 81, 64
6, 355616, Note_off_c, 4, 83, 64
6, 355643, Note_on_c, 4, 79, 60
6, 355703, Note_off_c, 4, 79, 64
6, 355776, Note_on_c, 4, 79, 64
6, 355882, Note_off_c, 4, 79, 64
6, 356012, Note_on_c, 4, 79, 70
6, 356084, Note_off_c, 4, 79, 64
6, 356143, Note_on_c, 4, 79, 74
6, 356280, Note_off_c, 4, 79, 64
6, 356376, Note_on_c, 4, 79, 63
6, 356438, Note_off_c, 4, 79, 64
6, 356507, Note_on_c, 4, 79, 80
6, 356634, Note_off_c, 4, 79, 64
6, 356725, Note_on_c, 4, 79, 68
6, 356786, Note_off_c, 4, 79, 64
6, 356863, Note_on_c, 4, 79, 93
6, 356975, Note_on_c, 4, 76, 66
6, 357009, Note_off_c, 4, 79, 64
6, 357087, Note_on_c, 4, 78, 64
6, 357117, Note_off_c, 4, 76, 64
6, 357178, Note_off_c, 4, 78, 64
6, 357205, Note_on_c, 4, 79, 89
6, 357317, Note_on_c, 4, 81, 63
6, 357345, Note_off_c, 4, 79, 64
6, 357408, Note_off_c, 4, 81, 64
6, 357430, Note_on_c, 4, 78, 59
6, 357503, Note_off_c, 4, 78, 64
6, 357561, Note_on_c, 4, 79, 93
6, 357671, Note_on_c, 4, 78, 58
6, 357693, Note_off_c, 4, 79, 64
6, 357770, Note_off_c, 4, 78, 64
6, 357785, Note_on_c, 4, 76, 59
6, 357853, Note_off_c, 4, 76, 64
6, 357912, Note_on_c, 4, 78, 93
6, 358033, Note_on_c, 4, 74, 64
6, 358071, Note_off_c, 4, 78, 64
6, 358145, Note_on_c, 4, 76, 74
6, 358172, Note_off_c, 4, 74, 64
6, 358227, Note_off_c, 4, 76, 64
6, 358271, Note_on_c, 4, 78, 98
6, 358386, Note_on_c, 4, 79, 68
6, 358402, Note_off_c, 4, 78, 64
6, 358472, Note_off_c, 4, 79, 64
6, 358515, Note_on_c, 4, 76, 60
6, 358560, Note_off_c, 4, 76, 64
6, 358641, Note_on_c, 4, 76, 87
6, 358751, Note_on_c, 4, 78, 61
6, 358762, Note_off_c, 4, 76, 64
6, 358839, Note_off_c, 4, 78, 64
6, 358875, Note_on_c, 4, 74, 57
6, 358932, Note_off_c, 4, 74, 64
6, 359027, Note_on_c, 4, 74, 68
6, 359151, Note_off_c, 4, 74, 64
6, 359266, Note_on_c, 4, 74, 58
6, 359333, Note_off_c, 4, 74, 64
6, 359400, Note_on_c, 4, 74, 70
6, 359532, Note_off_c, 4, 74, 64
6, 359626, Note_on_c, 4, 74, 66
6, 359693, Note_off_c, 4, 74, 64
6, 359757, Note_on_c, 4, 74, 66
6, 359885, Note_off_c, 4, 74, 64
6, 359964, Note_on_c, 4, 74, 64
6, 360044, Note_off_c, 4, 74, 64
6, 360117, Note_on_c, 4, 74, 66
6, 360215, Note_on_c, 4, 71, 70
6, 360234, Note_off_c, 4, 74, 64
6, 360321, Note_on_c, 4, 73, 57
6, 360348, Note_off_c, 4, 71, 64
6, 360440, Note_off_c, 4, 73, 64
6, 360450, Note_on_c, 4, 74, 80
6, 360566, Note_on_c, 4, 83, 76
6, 360587, Note_off_c, 4, 74, 64
6, 360670, Note_on_c, 4, 73, 63
6, 360675, Note_off_c, 4, 83, 64
6, 360767, Note_off_c, 4, 73, 64
6, 360809, Note_on_c, 4, 74, 82
6, 360918, Note_on_c, 4, 73, 57
6, 360927, Note_off_c, 4, 74, 64
6, 361028, Note_on_c, 4, 71, 54
6, 361039, Note_off_c, 4, 73, 64
6, 361124, Note_off_c, 4, 71, 64
6, 361175, Note_on_c, 4, 73, 82
6, 361282, Note_on_c, 4, 69, 63
6, 361322, Note_off_c, 4, 73, 64
6, 361397, Note_on_c, 4, 71, 66
6, 361413, Note_off_c, 4, 69, 64
6, 361523, Note_off_c, 4, 71, 64
6, 361539, Note_on_c, 4, 72, 85
6, 361633, Note_off_c, 4, 72, 64
6, 361646, Note_on_c, 4, 81, 82
6, 361737, Note_off_c, 4, 81, 64
6, 361748, Note_on_c, 4, 71, 78
6, 361856, Note_off_c, 4, 71, 64
6, 361878, Note_on_c, 4, 72, 70
6, 361986, Note_on_c, 4, 71, 66
6, 361991, Note_off_c, 4, 72, 64
6, 362100, Note_on_c, 4, 69, 85
6, 362123, Note_off_c, 4, 71, 64
6, 362198, Note_off_c, 4, 69, 64
6, 362245, Note_on_c, 4, 71, 80
6, 362385, Note_off_c, 4, 71, 64
6, 362484, Note_on_c, 4, 83, 62
6, 362533, Note_off_c, 4, 83, 64
6, 362618, Note_on_c, 4, 83, 87
6, 362731, Note_on_c, 4, 84, 48
6, 362738, Note_off_c, 4, 83, 64
6, 362796, Note_off_c, 4, 84, 64
6, 362841, Note_on_c, 4, 81, 57
6, 362897, Note_off_c, 4, 81, 64
6, 362985, Note_on_c, 4, 81, 87
6, 363093, Note_on_c, 4, 83, 60
6, 363116, Note_off_c, 4, 81, 64
6, 363179, Note_off_c, 4, 83, 64
6, 363203, Note_on_c, 4, 79, 27
6, 363266, Note_off_c, 4, 79, 64
6, 363359, Note_on_c, 4, 79, 82
6, 363473, Note_on_c, 4, 76, 59
6, 363476, Note_off_c, 4, 79, 64
6, 363586, Note_on_c, 4, 78, 63
6, 363609, Note_off_c, 4, 76, 64
6, 363705, Note_off_c, 4, 78, 64
6, 363710, Note_on_c, 4, 80, 82
6, 363812, Note_on_c, 4, 81, 74
6, 363842, Note_off_c, 4, 80, 64
6, 363930, Note_on_c, 4, 83, 61
6, 363937, Note_off_c, 4, 81, 64
6, 363995, Note_off_c, 4, 83, 64
6, 364059, Note_on_c, 4, 76, 78
6, 364185, Note_off_c, 4, 76, 64
6, 364288, Note_on_c, 4, 80, 68
6, 364367, Note_off_c, 4, 80, 64
6, 364412, Note_on_c, 4, 69, 74
6, 364526, Note_off_c, 4, 69, 64
6, 364535, Note_on_c, 4, 73, 57
6, 364641, Note_on_c, 4, 76, 80
6, 364679, Note_off_c, 4, 73, 64
6, 364740, Note_off_c, 4, 76, 64
6, 364781, Note_on_c, 4, 81, 85
6, 364886, Note_on_c, 4, 83, 66
6, 364925, Note_off_c, 4, 81, 64
6, 364992, Note_off_c, 4, 83, 64
6, 365001, Note_on_c, 4, 79, 66
6, 365073, Note_off_c, 4, 79, 64
6, 365141, Note_on_c, 4, 79, 89
6, 365253, Note_on_c, 4, 81, 58
6, 365282, Note_off_c, 4, 79, 64
6, 365348, Note_off_c, 4, 81, 64
6, 365348, Note_on_c, 4, 78, 41
6, 365433, Note_off_c, 4, 78, 64
6, 365503, Note_on_c, 4, 78, 66
6, 365611, Note_on_c, 4, 74, 68
6, 365654, Note_off_c, 4, 78, 64
6, 365719, Note_on_c, 4, 76, 70
6, 365737, Note_off_c, 4, 74, 64
6, 365804, Note_off_c, 4, 76, 64
6, 365845, Note_on_c, 4, 78, 87
6, 365951, Note_on_c, 4, 79, 85
6, 365991, Note_off_c, 4, 78, 64
6, 366077, Note_on_c, 4, 81, 68
6, 366083, Note_off_c, 4, 79, 64
6, 366151, Note_off_c, 4, 81, 64
6, 366216, Note_on_c, 4, 74, 68
6, 366340, Note_off_c, 4, 74, 64
6, 366430, Note_on_c, 4, 78, 60
6, 366516, Note_off_c, 4, 78, 64
6, 366572, Note_on_c, 4, 67, 82
6, 366689, Note_off_c, 4, 67, 64
6, 366691, Note_on_c, 4, 71, 70
6, 366804, Note_on_c, 4, 74, 82
6, 366833, Note_off_c, 4, 71, 64
6, 366905, Note_off_c, 4, 74, 64
6, 366931, Note_on_c, 4, 79, 89
6, 367053, Note_on_c, 4, 81, 70
6, 367089, Note_off_c, 4, 79, 64
6, 367129, Note_off_c, 4, 81, 64
6, 367175, Note_on_c, 4, 78, 70
6, 367251, Note_off_c, 4, 78, 64
6, 367307, Note_on_c, 4, 78, 91
6, 367411, Note_on_c, 4, 79, 74
6, 367443, Note_off_c, 4, 78, 64
6, 367515, Note_off_c, 4, 79, 64
6, 367535, Note_on_c, 4, 76, 66
6, 367589, Note_off_c, 4, 76, 64
6, 367683, Note_on_c, 4, 76, 80
6, 367791, Note_on_c, 4, 78, 61
6, 367829, Note_off_c, 4, 76, 64
6, 367893, Note_off_c, 4, 78, 64
6, 367906, Note_on_c, 4, 79, 70
6, 368003, Note_off_c, 4, 79, 64
6, 368037, Note_on_c, 4, 81, 78
6, 368144, Note_on_c, 4, 83, 68
6, 368185, Note_off_c, 4, 81, 64
6, 368232, Note_off_c, 4, 83, 64
6, 368263, Note_on_c, 4, 79, 64
6, 368329, Note_off_c, 4, 79, 64
6, 368397, Note_on_c, 4, 79, 85
6, 368505, Note_on_c, 4, 81, 61
6, 368532, Note_off_c, 4, 79, 64
6, 368610, Note_off_c, 4, 81, 64
6, 368630, Note_on_c, 4, 78, 53
6, 368691, Note_off_c, 4, 78, 64
6, 368756, Note_on_c, 4, 78, 82
6, 368874, Note_on_c, 4, 79, 70
6, 368892, Note_off_c, 4, 78, 64
6, 368999, Note_on_c, 4, 81, 82
6, 369019, Note_off_c, 4, 79, 64
6, 369112, Note_off_c, 4, 81, 64
6, 369121, Note_on_c, 4, 83, 85
6, 369227, Note_on_c, 4, 84, 68
6, 369249, Note_off_c, 4, 83, 64
6, 369312, Note_off_c, 4, 84, 64
6, 369346, Note_on_c, 4, 81, 60
6, 369398, Note_off_c, 4, 81, 64
6, 369472, Note_on_c, 4, 81, 87
6, 369584, Note_on_c, 4, 83, 66
6, 369589, Note_off_c, 4, 81, 64
6, 369668, Note_off_c, 4, 83, 64
6, 369696, Note_on_c, 4, 79, 63
6, 369756, Note_off_c, 4, 79, 64
6, 369823, Note_on_c, 4, 79, 76
6, 369938, Note_off_c, 4, 79, 64
6, 370059, Note_on_c, 4, 79, 72
6, 370125, Note_off_c, 4, 79, 64
6, 370187, Note_on_c, 4, 79, 78
6, 370341, Note_off_c, 4, 79, 64
6, 370436, Note_on_c, 4, 79, 61
6, 370498, Note_off_c, 4, 79, 64
6, 370563, Note_on_c, 4, 79, 74
6, 370721, Note_off_c, 4, 79, 64
6, 370795, Note_on_c, 4, 79, 66
6, 370856, Note_off_c, 4, 79, 64
6, 370925, Note_on_c, 4, 79, 82
6, 371031, Note_on_c, 4, 76, 66
6, 371065, Note_off_c, 4, 79, 64
6, 371129, Note_off_c, 4, 76, 64
6, 371151, Note_on_c, 4, 78, 59
6, 371232, Note_off_c, 4, 78, 64
6, 371281, Note_on_c, 4, 79, 82
6, 371389, Note_on_c, 4, 81, 61
6, 371418, Note_off_c, 4, 79, 64
6, 371477, Note_off_c, 4, 81, 64
6, 371500, Note_on_c, 4, 78, 53
6, 371564, Note_off_c, 4, 78, 64
6, 371634, Note_on_c, 4, 79, 98
6, 371740, Note_on_c, 4, 78, 64
6, 371769, Note_off_c, 4, 79, 64
6, 371846, Note_off_c, 4, 78, 64
6, 371855, Note_on_c, 4, 76, 62
6, 371931, Note_off_c, 4, 76, 64
6, 371985, Note_on_c, 4, 78, 82
6, 372082, Note_on_c, 4, 81, 70
6, 372118, Note_off_c, 4, 78, 64
6, 372186, Note_off_c, 4, 81, 64
6, 372208, Note_on_c, 4, 79, 70
6, 372285, Note_off_c, 4, 79, 64
6, 372338, Note_on_c, 4, 81, 85
6, 372437, Note_off_c, 4, 81, 64
6, 372568, Note_on_c, 4, 74, 78
6, 372653, Note_off_c, 4, 74, 64
6, 372687, Note_on_c, 4, 69, 80
6, 372802, Note_off_c, 4, 69, 64
6, 372930, Note_on_c, 4, 73, 60
6, 373013, Note_off_c, 4, 73, 64
6, 373056, Note_on_c, 4, 74, 87
6, 373196, Note_off_c, 4, 74, 64
6, 373427, Note_on_c, 4, 78, 70
6, 373560, Note_off_c, 4, 78, 64
6, 373781, Note_on_c, 4, 81, 85
6, 373905, Note_off_c, 4, 81, 64
6, 374143, Note_on_c, 4, 86, 85
6, 374278, Note_off_c, 4, 86, 64
6, 374498, Note_on_c, 4, 78, 72
6, 374636, Note_off_c, 4, 78, 64
6, 374849, Note_on_c, 4, 81, 87
6, 374985, Note_off_c, 4, 81, 64
6, 374985, End_track
7, 0, Start_track
7, 0, Title_t, "Oboe"
7, 0, Program_c, 5, 68
7, 0, Control_c, 5, 7, 100
7, 1131, Note_on_c, 5, 74, 82
7, 1169, Note_off_c, 5, 74, 64
7, 1192, Note_on_c, 5, 74, 95
7, 1262, Note_off_c, 5, 74, 64
7, 1371, Note_on_c, 5, 69, 80
7, 1408, Note_off_c, 5, 69, 64
7, 1429, Note_on_c, 5, 66, 87
7, 1932, Note_off_c, 5, 66, 64
7, 2084, Note_on_c, 5, 74, 82
7, 2120, Note_off_c, 5, 74, 64
7, 2150, Note_on_c, 5, 74, 98
7, 2225, Note_off_c, 5, 74, 64
7, 2338, Note_on_c, 5, 69, 80
7, 2377, Note_off_c, 5, 69, 64
7, 2400, Note_on_c, 5, 71, 82
7, 2893, Note_off_c, 5, 71, 64
7, 3047, Note_on_c, 5, 74, 82
7, 3086, Note_off_c, 5, 74, 64
7, 3114, Note_on_c, 5, 74, 95
7, 3200, Note_off_c, 5, 74, 64
7, 3293, Note_on_c, 5, 67, 82
7, 3332, Note_off_c, 5, 67, 64
7, 3357, Note_on_c, 5, 69, 85
7, 3587, Note_off_c, 5, 69, 64
7, 3764, Note_on_c, 5, 74, 87
7, 3797, Note_off_c, 5, 74, 64
7, 3822, Note_on_c, 5, 76, 89
7, 4138, Note_off_c, 5, 76, 64
7, 4272, Note_on_c, 5, 76, 95
7, 4305, Note_off_c, 5, 76, 64
7, 4328, Note_on_c, 5, 76, 93
7, 4422, Note_off_c, 5, 76, 64
7, 4555, Note_on_c, 5, 73, 85
7, 4648, Note_off_c, 5, 73, 64
7, 4795, Note_on_c, 5, 74, 91
7, 4905, Note_off_c, 5, 74, 64
7, 5036, Note_on_c, 5, 69, 87
7, 5150, Note_off_c, 5, 69, 64
7, 5456, Note_on_c, 5, 78, 85
7, 5489, Note_off_c, 5, 78, 64
7, 5515, Note_on_c, 5, 78, 93
7, 5580, Note_off_c, 5, 78, 64
7, 5687, Note_on_c, 5, 72, 89
7, 5733, Note_off_c, 5, 72, 64
7, 5754, Note_on_c, 5, 71, 82
7, 6056, Note_off_c, 5, 71, 64
7, 6172, Note_on_c, 5, 71, 82
7, 6217, Note_off_c, 5, 71, 64
7, 6228, Note_on_c, 5, 75, 93
7, 6312, Note_off_c, 5, 75, 64
7, 6412, Note_on_c, 5, 78, 85
7, 6459, Note_off_c, 5, 78, 64
7, 6475, Note_on_c, 5, 71, 82
7, 6560, Note_off_c, 5, 71, 64
7, 6660, Note_on_c, 5, 75, 61
7, 6704, Note_off_c, 5, 75, 64
7, 6724, Note_on_c, 5, 76, 80
7, 6804, Note_off_c, 5, 76, 64
7, 6904, Note_on_c, 5, 76, 95
7, 6939, Note_off_c, 5, 76, 64
7, 6963, Note_on_c, 5, 76, 100
7, 7045, Note_off_c, 5, 76, 64
7, 7137, Note_on_c, 5, 71, 80
7, 7174, Note_off_c, 5, 71, 64
7, 7200, Note_on_c, 5, 67, 72
7, 7453, Note_off_c, 5, 67, 64
7, 7623, Note_on_c, 5, 66, 87
7, 7654, Note_off_c, 5, 66, 64
7, 7681, Note_on_c, 5, 67, 85
7, 7953, Note_off_c, 5, 67, 64
7, 8112, Note_on_c, 5, 67, 70
7, 8153, Note_off_c, 5, 67, 64
7, 8167, Note_on_c, 5, 69, 98
7, 8252, Note_off_c, 5, 69, 64
7, 8350, Note_on_c, 5, 67, 82
7, 8390, Note_off_c, 5, 67, 64
7, 8405, Note_on_c, 5, 69, 91
7, 8502, Note_off_c, 5, 69, 64
7, 8592, Note_on_c, 5, 71, 87
7, 8639, Note_off_c, 5, 71, 64
7, 8653, Note_on_c, 5, 69, 91
7, 8748, Note_off_c, 5, 69, 64
7, 8828, Note_on_c, 5, 73, 85
7, 8859, Note_off_c, 5, 73, 64
7, 8880, Note_on_c, 5, 73, 93
7, 8957, Note_off_c, 5, 73, 64
7, 9058, Note_on_c, 5, 76, 85
7, 9094, Note_off_c, 5, 76, 64
7, 9119, Note_on_c, 5, 76, 95
7, 9205, Note_off_c, 5, 76, 64
7, 9294, Note_on_c, 5, 74, 80
7, 9337, Note_off_c, 5, 74, 64
7, 9354, Note_on_c, 5, 76, 91
7, 9418, Note_off_c, 5, 76, 64
7, 9537, Note_on_c, 5, 73, 78
7, 9577, Note_off_c, 5, 73, 64
7, 9595, Note_on_c, 5, 69, 78
7, 10100, Note_off_c, 5, 69, 64
7, 10263, Note_on_c, 5, 74, 85
7, 10299, Note_off_c, 5, 74, 64
7, 10320, Note_on_c, 5, 74, 91
7, 10398, Note_off_c, 5, 74, 64
7, 10499, Note_on_c, 5, 69, 80
7, 10534, Note_off_c, 5, 69, 64
7, 10566, Note_on_c, 5, 69, 85
7, 11056, Note_off_c, 5, 69, 64
7, 11216, Note_on_c, 5, 73, 87
7, 11249, Note_off_c, 5, 73, 64
7, 11274, Note_on_c, 5, 73, 98
7, 11344, Note_off_c, 5, 73, 64
7, 11446, Note_on_c, 5, 69, 64
7, 11484, Note_off_c, 5, 69, 64
7, 11510, Note_on_c, 5, 71, 89
7, 11808, Note_off_c, 5, 71, 64
7, 11949, Note_on_c, 5, 71, 85
7, 11980, Note_off_c, 5, 71, 64
7, 12003, Note_on_c, 5, 71, 98
7, 12100, Note_off_c, 5, 71, 64
7, 12251, Note_on_c, 5, 68, 78
7, 12331, Note_off_c, 5, 68, 64
7, 12481, Note_on_c, 5, 69, 87
7, 12583, Note_off_c, 5, 69, 64
7, 12664, Note_on_c, 5, 76, 89
7, 12699, Note_off_c, 5, 76, 64
7, 12719, Note_on_c, 5, 76, 91
7, 12796, Note_off_c, 5, 76, 64
7, 12895, Note_on_c, 5, 73, 89
7, 12928, Note_off_c, 5, 73, 64
7, 12957, Note_on_c, 5, 73, 100
7, 13455, Note_off_c, 5, 73, 64
7, 13614, Note_on_c, 5, 74, 85
7, 13648, Note_off_c, 5, 74, 64
7, 13672, Note_on_c, 5, 74, 95
7, 13740, Note_off_c, 5, 74, 64
7, 13848, Note_on_c, 5, 71, 80
7, 13898, Note_off_c, 5, 71, 64
7, 13912, Note_on_c, 5, 73, 95
7, 14011, Note_off_c, 5, 73, 64
7, 14143, Note_on_c, 5, 77, 93
7, 14226, Note_off_c, 5, 77, 64
7, 14391, Note_on_c, 5, 78, 91
7, 14883, Note_off_c, 5, 78, 64
7, 15057, Note_on_c, 5, 73, 78
7, 15087, Note_off_c, 5, 73, 64
7, 15115, Note_on_c, 5, 73, 98
7, 15179, Note_off_c, 5, 73, 64
7, 15285, Note_on_c, 5, 69, 80
7, 15326, Note_off_c, 5, 69, 64
7, 15349, Note_on_c, 5, 71, 85
7, 15664, Note_off_c, 5, 71, 64
7, 15770, Note_on_c, 5, 69, 62
7, 15791, Note_on_c, 5, 68, 89
7, 15798, Note_off_c, 5, 69, 64
7, 15830, Note_on_c, 5, 69, 82
7, 15835, Note_off_c, 5, 68, 64
7, 15911, Note_off_c, 5, 69, 64
7, 16013, Note_on_c, 5, 69, 78
7, 16057, Note_off_c, 5, 69, 64
7, 16070, Note_on_c, 5, 71, 100
7, 16155, Note_off_c, 5, 71, 64
7, 16252, Note_on_c, 5, 73, 70
7, 16293, Note_off_c, 5, 73, 64
7, 16311, Note_on_c, 5, 68, 85
7, 16385, Note_off_c, 5, 68, 64
7, 16496, Note_on_c, 5, 74, 89
7, 16532, Note_off_c, 5, 74, 64
7, 16552, Note_on_c, 5, 74, 95
7, 16627, Note_off_c, 5, 74, 64
7, 16723, Note_on_c, 5, 71, 80
7, 16770, Note_off_c, 5, 71, 64
7, 16790, Note_on_c, 5, 68, 91
7, 17279, Note_off_c, 5, 68, 64
7, 17439, Note_on_c, 5, 76, 85
7, 17473, Note_off_c, 5, 76, 64
7, 17497, Note_on_c, 5, 76, 98
7, 17587, Note_off_c, 5, 76, 64
7, 17683, Note_on_c, 5, 73, 80
7, 17725, Note_off_c, 5, 73, 64
7, 17744, Note_on_c, 5, 69, 82
7, 18252, Note_off_c, 5, 69, 64
7, 18425, Note_on_c, 5, 77, 85
7, 18463, Note_off_c, 5, 77, 64
7, 18483, Note_on_c, 5, 77, 87
7, 18556, Note_off_c, 5, 77, 64
7, 18659, Note_on_c, 5, 74, 78
7, 18699, Note_off_c, 5, 74, 64
7, 18727, Note_on_c, 5, 71, 87
7, 19206, Note_off_c, 5, 71, 64
7, 19387, Note_on_c, 5, 74, 93
7, 19428, Note_off_c, 5, 74, 64
7, 19447, Note_on_c, 5, 72, 95
7, 19696, Note_off_c, 5, 72, 64
7, 19879, Note_on_c, 5, 72, 89
7, 19913, Note_off_c, 5, 72, 64
7, 19933, Note_on_c, 5, 71, 95
7, 20175, Note_off_c, 5, 71, 64
7, 20332, Note_on_c, 5, 71, 85
7, 20375, Note_off_c, 5, 71, 64
7, 20393, Note_on_c, 5, 69, 89
7, 20477, Note_off_c, 5, 69, 64
7, 20572, Note_on_c, 5, 72, 82
7, 20607, Note_off_c, 5, 72, 64
7, 20633, Note_on_c, 5, 76, 89
7, 21220, Note_off_c, 5, 76, 64
7, 21303, Note_on_c, 5, 73, 72
7, 21344, Note_off_c, 5, 73, 64
7, 21359, Note_on_c, 5, 74, 100
7, 21444, Note_off_c, 5, 74, 64
7, 21535, Note_on_c, 5, 71, 72
7, 21584, Note_off_c, 5, 71, 64
7, 21598, Note_on_c, 5, 73, 82
7, 21665, Note_off_c, 5, 73, 64
7, 21771, Note_on_c, 5, 69, 66
7, 21813, Note_off_c, 5, 69, 64
7, 21833, Note_on_c, 5, 71, 85
7, 21912, Note_off_c, 5, 71, 64
7, 22017, Note_on_c, 5, 66, 60
7, 22049, Note_off_c, 5, 66, 64
7, 22078, Note_on_c, 5, 71, 80
7, 22156, Note_off_c, 5, 71, 64
7, 22253, Note_on_c, 5, 68, 68
7, 22301, Note_off_c, 5, 68, 64
7, 22313, Note_on_c, 5, 69, 93
7, 22402, Note_off_c, 5, 69, 64
7, 22478, Note_on_c, 5, 71, 82
7, 22515, Note_off_c, 5, 71, 64
7, 22554, Note_on_c, 5, 69, 89
7, 22632, Note_on_c, 5, 68, 78
7, 22634, Note_off_c, 5, 69, 64
7, 22660, Note_off_c, 5, 68, 64
7, 22662, Note_on_c, 5, 69, 72
7, 22691, Note_off_c, 5, 69, 64
7, 22691, Note_on_c, 5, 68, 66
7, 22712, Note_on_c, 5, 69, 76
7, 22714, Note_off_c, 5, 68, 64
7, 22736, Note_on_c, 5, 68, 62
7, 22738, Note_off_c, 5, 69, 64
7, 22759, Note_on_c, 5, 69, 80
7, 22760, Note_off_c, 5, 68, 64
7, 22783, Note_on_c, 5, 68, 89
7, 22791, Note_off_c, 5, 69, 64
7, 22902, Note_off_c, 5, 68, 64
7, 22968, Note_on_c, 5, 69, 87
7, 22999, Note_off_c, 5, 69, 64
7, 23032, Note_on_c, 5, 69, 89
7, 23764, Note_off_c, 5, 69, 64
7, 46327, Note_on_c, 5, 76, 78
7, 46389, Note_off_c, 5, 76, 64
7, 46452, Note_on_c, 5, 76, 85
7, 46560, Note_on_c, 5, 78, 63
7, 46574, Note_off_c, 5, 76, 64
7, 46638, Note_off_c, 5, 78, 64
7, 46666, Note_on_c, 5, 74, 66
7, 46716, Note_off_c, 5, 74, 64
7, 46797, Note_on_c, 5, 74, 93
7, 46895, Note_on_c, 5, 76, 63
7, 46900, Note_off_c, 5, 74, 64
7, 46963, Note_off_c, 5, 76, 64
7, 47010, Note_on_c, 5, 73, 53
7, 47066, Note_off_c, 5, 73, 64
7, 47141, Note_on_c, 5, 73, 85
7, 47244, Note_off_c, 5, 73, 64
7, 47247, Note_on_c, 5, 74, 63
7, 47310, Note_off_c, 5, 74, 64
7, 47375, Note_on_c, 5, 76, 64
7, 47417, Note_off_c, 5, 76, 64
7, 47505, Note_on_c, 5, 78, 100
7, 47607, Note_on_c, 5, 79, 66
7, 47616, Note_off_c, 5, 78, 64
7, 47676, Note_off_c, 5, 79, 64
7, 47724, Note_on_c, 5, 76, 63
7, 47784, Note_off_c, 5, 76, 64
7, 47850, Note_on_c, 5, 76, 85
7, 47954, Note_on_c, 5, 78, 62
7, 47973, Note_off_c, 5, 76, 64
7, 48029, Note_off_c, 5, 78, 64
7, 48075, Note_on_c, 5, 74, 66
7, 48131, Note_off_c, 5, 74, 64
7, 48203, Note_on_c, 5, 74, 80
7, 48331, Note_off_c, 5, 74, 64
7, 48450, Note_on_c, 5, 74, 70
7, 48516, Note_off_c, 5, 74, 64
7, 48587, Note_on_c, 5, 74, 78
7, 48731, Note_off_c, 5, 74, 64
7, 48831, Note_on_c, 5, 74, 70
7, 48889, Note_off_c, 5, 74, 64
7, 48950, Note_on_c, 5, 74, 87
7, 49085, Note_off_c, 5, 74, 64
7, 49178, Note_on_c, 5, 74, 72
7, 49236, Note_off_c, 5, 74, 64
7, 49301, Note_on_c, 5, 74, 87
7, 49394, Note_off_c, 5, 74, 64
7, 49402, Note_on_c, 5, 71, 82
7, 49479, Note_off_c, 5, 71, 64
7, 49517, Note_on_c, 5, 73, 63
7, 49582, Note_off_c, 5, 73, 64
7, 49649, Note_on_c, 5, 74, 87
7, 49755, Note_on_c, 5, 83, 72
7, 49760, Note_off_c, 5, 74, 64
7, 49807, Note_off_c, 5, 83, 64
7, 49874, Note_on_c, 5, 73, 85
7, 49933, Note_off_c, 5, 73, 64
7, 50003, Note_on_c, 5, 74, 91
7, 50117, Note_on_c, 5, 73, 66
7, 50124, Note_off_c, 5, 74, 64
7, 50190, Note_off_c, 5, 73, 64
7, 50226, Note_on_c, 5, 71, 64
7, 50279, Note_off_c, 5, 71, 64
7, 50361, Note_on_c, 5, 73, 98
7, 50462, Note_on_c, 5, 76, 76
7, 50489, Note_off_c, 5, 73, 64
7, 50527, Note_off_c, 5, 76, 64
7, 50585, Note_on_c, 5, 74, 70
7, 50653, Note_off_c, 5, 74, 64
7, 50727, Note_on_c, 5, 76, 91
7, 50835, Note_off_c, 5, 76, 64
7, 50973, Note_on_c, 5, 74, 63
7, 51038, Note_off_c, 5, 74, 64
7, 51105, Note_on_c, 5, 76, 80
7, 51204, Note_off_c, 5, 76, 64
7, 51342, Note_on_c, 5, 73, 51
7, 51391, Note_off_c, 5, 73, 64
7, 51463, Note_on_c, 5, 74, 82
7, 51566, Note_on_c, 5, 73, 80
7, 51573, Note_off_c, 5, 74, 64
7, 51643, Note_off_c, 5, 73, 64
7, 51686, Note_on_c, 5, 74, 82
7, 51747, Note_off_c, 5, 74, 64
7, 51825, Note_on_c, 5, 74, 98
7, 51938, Note_off_c, 5, 74, 64
7, 52052, Note_on_c, 5, 66, 57
7, 52145, Note_off_c, 5, 66, 64
7, 52187, Note_on_c, 5, 69, 80
7, 52286, Note_off_c, 5, 69, 64
7, 52422, Note_on_c, 5, 74, 64
7, 52478, Note_off_c, 5, 74, 64
7, 52554, Note_on_c, 5, 74, 98
7, 52667, Note_on_c, 5, 76, 66
7, 52676, Note_off_c, 5, 74, 64
7, 52728, Note_off_c, 5, 76, 64
7, 52793, Note_on_c, 5, 74, 72
7, 52858, Note_off_c, 5, 74, 64
7, 52921, Note_on_c, 5, 73, 95
7, 53024, Note_on_c, 5, 74, 64
7, 53049, Note_off_c, 5, 73, 64
7, 53094, Note_off_c, 5, 74, 64
7, 53141, Note_on_c, 5, 71, 70
7, 53191, Note_off_c, 5, 71, 64
7, 53268, Note_on_c, 5, 71, 87
7, 53373, Note_off_c, 5, 71, 64
7, 53378, Note_on_c, 5, 73, 58
7, 53448, Note_off_c, 5, 73, 64
7, 53486, Note_on_c, 5, 69, 61
7, 53553, Note_off_c, 5, 69, 64
7, 53621, Note_on_c, 5, 69, 80
7, 53754, Note_off_c, 5, 69, 64
7, 53864, Note_on_c, 5, 81, 78
7, 53938, Note_off_c, 5, 81, 64
7, 53988, Note_on_c, 5, 76, 74
7, 54102, Note_off_c, 5, 76, 64
7, 54212, Note_on_c, 5, 73, 57
7, 54291, Note_off_c, 5, 73, 64
7, 54347, Note_on_c, 5, 69, 62
7, 54451, Note_off_c, 5, 69, 64
7, 54566, Note_on_c, 5, 69, 66
7, 54631, Note_off_c, 5, 69, 64
7, 54698, Note_on_c, 5, 69, 87
7, 54804, Note_on_c, 5, 71, 74
7, 54816, Note_off_c, 5, 69, 64
7, 54881, Note_off_c, 5, 71, 64
7, 54924, Note_on_c, 5, 73, 63
7, 54995, Note_off_c, 5, 73, 64
7, 55049, Note_on_c, 5, 74, 74
7, 55146, Note_off_c, 5, 74, 64
7, 55259, Note_on_c, 5, 76, 80
7, 55319, Note_off_c, 5, 76, 64
7, 55392, Note_on_c, 5, 74, 70
7, 55439, Note_on_c, 5, 73, 89
7, 55457, Note_off_c, 5, 74, 64
7, 55490, Note_off_c, 5, 73, 64
7, 55495, Note_on_c, 5, 74, 64
7, 55538, Note_on_c, 5, 73, 61
7, 55583, Note_off_c, 5, 74, 64
7, 55623, Note_on_c, 5, 69, 80
7, 55630, Note_off_c, 5, 73, 64
7, 55680, Note_off_c, 5, 69, 64
7, 55760, Note_on_c, 5, 69, 82
7, 55868, Note_on_c, 5, 71, 58
7, 55875, Note_off_c, 5, 69, 64
7, 55950, Note_off_c, 5, 71, 64
7, 55992, Note_on_c, 5, 69, 58
7, 56035, Note_off_c, 5, 69, 64
7, 56125, Note_on_c, 5, 68, 89
7, 56225, Note_on_c, 5, 69, 59
7, 56231, Note_off_c, 5, 68, 64
7, 56300, Note_off_c, 5, 69, 64
7, 56345, Note_on_c, 5, 66, 58
7, 56399, Note_off_c, 5, 66, 64
7, 56476, Note_on_c, 5, 66, 82
7, 56575, Note_off_c, 5, 66, 64
7, 56586, Note_on_c, 5, 68, 57
7, 56654, Note_off_c, 5, 68, 64
7, 56706, Note_on_c, 5, 64, 53
7, 56757, Note_off_c, 5, 64, 64
7, 56849, Note_on_c, 5, 64, 80
7, 57025, Note_off_c, 5, 64, 64
7, 57428, Note_on_c, 5, 76, 70
7, 57509, Note_off_c, 5, 76, 64
7, 57556, Note_on_c, 5, 71, 80
7, 57675, Note_off_c, 5, 71, 64
7, 57777, Note_on_c, 5, 71, 64
7, 57862, Note_off_c, 5, 71, 64
7, 57912, Note_on_c, 5, 69, 70
7, 58037, Note_off_c, 5, 69, 64
7, 58505, Note_on_c, 5, 74, 66
7, 58582, Note_off_c, 5, 74, 64
7, 58638, Note_on_c, 5, 69, 76
7, 58751, Note_off_c, 5, 69, 64
7, 58868, Note_on_c, 5, 69, 70
7, 58940, Note_off_c, 5, 69, 64
7, 59014, Note_on_c, 5, 67, 74
7, 59140, Note_off_c, 5, 67, 64
7, 59394, Note_on_c, 5, 73, 72
7, 59538, Note_off_c, 5, 73, 64
7, 59741, Note_on_c, 5, 75, 72
7, 59871, Note_off_c, 5, 75, 64
7, 60094, Note_on_c, 5, 76, 78
7, 60218, Note_off_c, 5, 76, 64
7, 60353, Note_on_c, 5, 76, 61
7, 60391, Note_off_c, 5, 76, 64
7, 60468, Note_on_c, 5, 76, 87
7, 60573, Note_on_c, 5, 78, 57
7, 60598, Note_off_c, 5, 76, 64
7, 60663, Note_off_c, 5, 78, 64
7, 60677, Note_on_c, 5, 74, 55
7, 60726, Note_off_c, 5, 74, 64
7, 60821, Note_on_c, 5, 74, 85
7, 60922, Note_on_c, 5, 76, 63
7, 60944, Note_off_c, 5, 74, 64
7, 60972, Note_off_c, 5, 76, 64
7, 61050, Note_on_c, 5, 73, 63
7, 61107, Note_off_c, 5, 73, 64
7, 61190, Note_on_c, 5, 73, 87
7, 61295, Note_off_c, 5, 73, 64
7, 61295, Note_on_c, 5, 69, 64
7, 61363, Note_off_c, 5, 69, 64
7, 61413, Note_on_c, 5, 71, 66
7, 61466, Note_off_c, 5, 71, 64
7, 61541, Note_on_c, 5, 73, 89
7, 61653, Note_on_c, 5, 74, 68
7, 61662, Note_off_c, 5, 73, 64
7, 61731, Note_off_c, 5, 74, 64
7, 61775, Note_on_c, 5, 76, 78
7, 61833, Note_off_c, 5, 76, 64
7, 61905, Note_on_c, 5, 69, 87
7, 62002, Note_off_c, 5, 69, 64
7, 62117, Note_on_c, 5, 73, 70
7, 62171, Note_off_c, 5, 73, 64
7, 62254, Note_on_c, 5, 62, 85
7, 62366, Note_on_c, 5, 66, 70
7, 62391, Note_off_c, 5, 62, 64
7, 62449, Note_off_c, 5, 66, 64
7, 62495, Note_on_c, 5, 69, 74
7, 62544, Note_off_c, 5, 69, 64
7, 62632, Note_on_c, 5, 74, 100
7, 62722, Note_off_c, 5, 74, 64
7, 62730, Note_on_c, 5, 76, 61
7, 62785, Note_off_c, 5, 76, 64
7, 62848, Note_on_c, 5, 72, 64
7, 62902, Note_off_c, 5, 72, 64
7, 62983, Note_on_c, 5, 72, 89
7, 63077, Note_off_c, 5, 72, 64
7, 63082, Note_on_c, 5, 74, 68
7, 63150, Note_off_c, 5, 74, 64
7, 63212, Note_on_c, 5, 71, 68
7, 63273, Note_off_c, 5, 71, 64
7, 63341, Note_on_c, 5, 71, 85
7, 63438, Note_off_c, 5, 71, 64
7, 63451, Note_on_c, 5, 67, 59
7, 63543, Note_off_c, 5, 67, 64
7, 63561, Note_on_c, 5, 71, 66
7, 63608, Note_off_c, 5, 71, 64
7, 63711, Note_on_c, 5, 76, 85
7, 63813, Note_on_c, 5, 78, 57
7, 63822, Note_off_c, 5, 76, 64
7, 63888, Note_off_c, 5, 78, 64
7, 63948, Note_on_c, 5, 74, 56
7, 63989, Note_off_c, 5, 74, 64
7, 64076, Note_on_c, 5, 74, 93
7, 64172, Note_on_c, 5, 76, 60
7, 64182, Note_off_c, 5, 74, 64
7, 64247, Note_off_c, 5, 76, 64
7, 64301, Note_on_c, 5, 73, 61
7, 64360, Note_off_c, 5, 73, 64
7, 64427, Note_on_c, 5, 73, 80
7, 64526, Note_on_c, 5, 74, 60
7, 64531, Note_off_c, 5, 73, 64
7, 64589, Note_off_c, 5, 74, 64
7, 64657, Note_on_c, 5, 76, 68
7, 64709, Note_off_c, 5, 76, 64
7, 64785, Note_on_c, 5, 78, 102
7, 64896, Note_on_c, 5, 79, 62
7, 64898, Note_off_c, 5, 78, 64
7, 64954, Note_off_c, 5, 79, 64
7, 65021, Note_on_c, 5, 76, 68
7, 65069, Note_off_c, 5, 76, 64
7, 65141, Note_on_c, 5, 76, 85
7, 65240, Note_on_c, 5, 78, 59
7, 65251, Note_off_c, 5, 76, 64
7, 65309, Note_off_c, 5, 78, 64
7, 65363, Note_on_c, 5, 74, 66
7, 65417, Note_off_c, 5, 74, 64
7, 65492, Note_on_c, 5, 74, 87
7, 65647, Note_off_c, 5, 74, 64
7, 66088, Note_on_c, 5, 73, 63
7, 66153, Note_off_c, 5, 73, 64
7, 66200, Note_on_c, 5, 73, 76
7, 66302, Note_off_c, 5, 73, 64
7, 66450, Note_on_c, 5, 75, 66
7, 66515, Note_off_c, 5, 75, 64
7, 66578, Note_on_c, 5, 76, 78
7, 66684, Note_off_c, 5, 76, 64
7, 66830, Note_on_c, 5, 76, 57
7, 66884, Note_off_c, 5, 76, 64
7, 66956, Note_on_c, 5, 76, 64
7, 67064, Note_off_c, 5, 76, 64
7, 67186, Note_on_c, 5, 76, 62
7, 67254, Note_off_c, 5, 76, 64
7, 67312, Note_on_c, 5, 76, 68
7, 67431, Note_off_c, 5, 76, 64
7, 67533, Note_on_c, 5, 76, 63
7, 67591, Note_off_c, 5, 76, 64
7, 67665, Note_on_c, 5, 76, 74
7, 67760, Note_off_c, 5, 76, 64
7, 67773, Note_on_c, 5, 73, 51
7, 67848, Note_off_c, 5, 73, 64
7, 67888, Note_on_c, 5, 74, 64
7, 67946, Note_off_c, 5, 74, 64
7, 68034, Note_on_c, 5, 76, 85
7, 68140, Note_on_c, 5, 73, 56
7, 68142, Note_off_c, 5, 76, 64
7, 68187, Note_off_c, 5, 73, 64
7, 68244, Note_on_c, 5, 74, 66
7, 68306, Note_off_c, 5, 74, 64
7, 68385, Note_on_c, 5, 76, 82
7, 68486, Note_on_c, 5, 74, 62
7, 68500, Note_off_c, 5, 76, 64
7, 68568, Note_off_c, 5, 74, 64
7, 68606, Note_on_c, 5, 73, 60
7, 68662, Note_off_c, 5, 73, 64
7, 68732, Note_on_c, 5, 74, 87
7, 68837, Note_off_c, 5, 74, 64
7, 68970, Note_on_c, 5, 73, 57
7, 69040, Note_off_c, 5, 73, 64
7, 69099, Note_on_c, 5, 74, 76
7, 69213, Note_off_c, 5, 74, 64
7, 69326, Note_on_c, 5, 71, 60
7, 69396, Note_off_c, 5, 71, 64
7, 69458, Note_on_c, 5, 69, 72
7, 69562, Note_off_c, 5, 69, 64
7, 69693, Note_on_c, 5, 69, 61
7, 69756, Note_off_c, 5, 69, 64
7, 69827, Note_on_c, 5, 69, 72
7, 69958, Note_off_c, 5, 69, 64
7, 70061, Note_on_c, 5, 69, 66
7, 70118, Note_off_c, 5, 69, 64
7, 70188, Note_on_c, 5, 69, 82
7, 70284, Note_on_c, 5, 71, 70
7, 70295, Note_off_c, 5, 69, 64
7, 70354, Note_off_c, 5, 71, 64
7, 70426, Note_on_c, 5, 67, 59
7, 70466, Note_off_c, 5, 67, 64
7, 70547, Note_on_c, 5, 67, 89
7, 70651, Note_on_c, 5, 69, 68
7, 70662, Note_off_c, 5, 67, 64
7, 70723, Note_off_c, 5, 69, 64
7, 70777, Note_on_c, 5, 66, 63
7, 70827, Note_off_c, 5, 66, 64
7, 70905, Note_on_c, 5, 66, 80
7, 70998, Note_on_c, 5, 67, 66
7, 71018, Note_off_c, 5, 66, 64
7, 71090, Note_off_c, 5, 67, 64
7, 71130, Note_on_c, 5, 69, 72
7, 71186, Note_off_c, 5, 69, 64
7, 71272, Note_on_c, 5, 69, 98
7, 71373, Note_on_c, 5, 71, 64
7, 71382, Note_off_c, 5, 69, 64
7, 71447, Note_off_c, 5, 71, 64
7, 71495, Note_on_c, 5, 67, 62
7, 71547, Note_off_c, 5, 67, 64
7, 71623, Note_on_c, 5, 67, 87
7, 71722, Note_on_c, 5, 69, 59
7, 71733, Note_off_c, 5, 67, 64
7, 71803, Note_off_c, 5, 69, 64
7, 71846, Note_on_c, 5, 66, 66
7, 71909, Note_off_c, 5, 66, 64
7, 71976, Note_on_c, 5, 66, 82
7, 72096, Note_off_c, 5, 66, 64
7, 72336, Note_on_c, 5, 67, 87
7, 72466, Note_off_c, 5, 67, 64
7, 72694, Note_on_c, 5, 69, 82
7, 72825, Note_off_c, 5, 69, 64
7, 92874, Note_on_c, 5, 69, 68
7, 93007, Note_off_c, 5, 69, 64
7, 93225, Note_on_c, 5, 76, 80
7, 93385, Note_off_c, 5, 76, 64
7, 93594, Note_on_c, 5, 76, 76
7, 93745, Note_off_c, 5, 76, 64
7, 93950, Note_on_c, 5, 69, 70
7, 94087, Note_off_c, 5, 69, 64
7, 94308, Note_on_c, 5, 71, 70
7, 94433, Note_off_c, 5, 71, 64
7, 94649, Note_on_c, 5, 73, 91
7, 94753, Note_on_c, 5, 71, 68
7, 94780, Note_off_c, 5, 73, 64
7, 94850, Note_off_c, 5, 71, 64
7, 94865, Note_on_c, 5, 69, 56
7, 94937, Note_off_c, 5, 69, 64
7, 95000, Note_on_c, 5, 71, 80
7, 95118, Note_off_c, 5, 71, 64
7, 95234, Note_on_c, 5, 69, 60
7, 95309, Note_off_c, 5, 69, 64
7, 95363, Note_on_c, 5, 71, 76
7, 95486, Note_off_c, 5, 71, 64
7, 95601, Note_on_c, 5, 68, 64
7, 95658, Note_off_c, 5, 68, 64
7, 95738, Note_on_c, 5, 69, 87
7, 95844, Note_on_c, 5, 68, 64
7, 95862, Note_off_c, 5, 69, 64
7, 95937, Note_off_c, 5, 68, 64
7, 95966, Note_on_c, 5, 69, 66
7, 96031, Note_off_c, 5, 69, 64
7, 96090, Note_on_c, 5, 69, 87
7, 96213, Note_off_c, 5, 69, 64
7, 96323, Note_on_c, 5, 73, 62
7, 96395, Note_off_c, 5, 73, 64
7, 96441, Note_on_c, 5, 76, 85
7, 96549, Note_off_c, 5, 76, 64
7, 96684, Note_on_c, 5, 69, 72
7, 96737, Note_off_c, 5, 69, 64
7, 96821, Note_on_c, 5, 69, 87
7, 96931, Note_on_c, 5, 71, 70
7, 96958, Note_off_c, 5, 69, 64
7, 97034, Note_off_c, 5, 71, 64
7, 97044, Note_on_c, 5, 69, 63
7, 97098, Note_off_c, 5, 69, 64
7, 97174, Note_on_c, 5, 68, 87
7, 97284, Note_on_c, 5, 69, 63
7, 97307, Note_off_c, 5, 68, 64
7, 97363, Note_off_c, 5, 69, 64
7, 97404, Note_on_c, 5, 66, 57
7, 97451, Note_off_c, 5, 66, 64
7, 97545, Note_on_c, 5, 66, 89
7, 97646, Note_on_c, 5, 68, 57
7, 97662, Note_off_c, 5, 66, 64
7, 97745, Note_off_c, 5, 68, 64
7, 97757, Note_on_c, 5, 64, 66
7, 97822, Note_off_c, 5, 64, 64
7, 97898, Note_on_c, 5, 64, 68
7, 98018, Note_off_c, 5, 64, 64
7, 98133, Note_on_c, 5, 76, 66
7, 98195, Note_off_c, 5, 76, 64
7, 98254, Note_on_c, 5, 71, 82
7, 98376, Note_off_c, 5, 71, 64
7, 98483, Note_on_c, 5, 68, 59
7, 98562, Note_off_c, 5, 68, 64
7, 98609, Note_on_c, 5, 64, 70
7, 98730, Note_off_c, 5, 64, 64
7, 98843, Note_on_c, 5, 64, 59
7, 98904, Note_off_c, 5, 64, 64
7, 98974, Note_on_c, 5, 64, 82
7, 99095, Note_on_c, 5, 69, 72
7, 99100, Note_off_c, 5, 64, 64
7, 99202, Note_off_c, 5, 69, 64
7, 99208, Note_on_c, 5, 71, 72
7, 99264, Note_off_c, 5, 71, 64
7, 99336, Note_on_c, 5, 73, 98
7, 99444, Note_on_c, 5, 74, 70
7, 99475, Note_off_c, 5, 73, 64
7, 99527, Note_off_c, 5, 74, 64
7, 99559, Note_on_c, 5, 71, 58
7, 99604, Note_off_c, 5, 71, 64
7, 99687, Note_on_c, 5, 71, 89
7, 99797, Note_on_c, 5, 73, 58
7, 99815, Note_off_c, 5, 71, 64
7, 99878, Note_off_c, 5, 73, 64
7, 99910, Note_on_c, 5, 69, 52
7, 99968, Note_off_c, 5, 69, 64
7, 100056, Note_on_c, 5, 69, 57
7, 100171, Note_off_c, 5, 69, 64
7, 100292, Note_on_c, 5, 69, 59
7, 100353, Note_off_c, 5, 69, 64
7, 100428, Note_on_c, 5, 69, 68
7, 100556, Note_off_c, 5, 69, 64
7, 100655, Note_on_c, 5, 69, 60
7, 100718, Note_off_c, 5, 69, 64
7, 100792, Note_on_c, 5, 69, 66
7, 100922, Note_off_c, 5, 69, 64
7, 101017, Note_on_c, 5, 69, 53
7, 101057, Note_off_c, 5, 69, 64
7, 101132, Note_on_c, 5, 69, 72
7, 101249, Note_on_c, 5, 66, 60
7, 101267, Note_off_c, 5, 69, 64
7, 101323, Note_off_c, 5, 66, 64
7, 101373, Note_on_c, 5, 68, 87
7, 101418, Note_off_c, 5, 68, 64
7, 101500, Note_on_c, 5, 69, 89
7, 101611, Note_on_c, 5, 78, 72
7, 101615, Note_off_c, 5, 69, 64
7, 101665, Note_off_c, 5, 78, 64
7, 101732, Note_on_c, 5, 68, 78
7, 101786, Note_off_c, 5, 68, 64
7, 101865, Note_on_c, 5, 69, 82
7, 101976, Note_on_c, 5, 68, 55
7, 101996, Note_off_c, 5, 69, 64
7, 102083, Note_off_c, 5, 68, 64
7, 102095, Note_on_c, 5, 66, 66
7, 102158, Note_off_c, 5, 66, 64
7, 102230, Note_on_c, 5, 68, 87
7, 102326, Note_on_c, 5, 64, 62
7, 102336, Note_off_c, 5, 68, 64
7, 102412, Note_off_c, 5, 64, 64
7, 102452, Note_on_c, 5, 66, 59
7, 102524, Note_off_c, 5, 66, 64
7, 102583, Note_on_c, 5, 67, 91
7, 102680, Note_off_c, 5, 67, 64
7, 102682, Note_on_c, 5, 76, 58
7, 102743, Note_off_c, 5, 76, 64
7, 102801, Note_on_c, 5, 66, 66
7, 102855, Note_off_c, 5, 66, 64
7, 102930, Note_on_c, 5, 67, 91
7, 103035, Note_on_c, 5, 66, 64
7, 103049, Note_off_c, 5, 67, 64
7, 103141, Note_off_c, 5, 66, 64
7, 103150, Note_on_c, 5, 64, 57
7, 103191, Note_off_c, 5, 64, 64
7, 103296, Note_on_c, 5, 66, 93
7, 103438, Note_off_c, 5, 66, 64
7, 103521, Note_on_c, 5, 78, 58
7, 103582, Note_off_c, 5, 78, 64
7, 103654, Note_on_c, 5, 78, 82
7, 103748, Note_on_c, 5, 79, 66
7, 103776, Note_off_c, 5, 78, 64
7, 103830, Note_off_c, 5, 79, 64
7, 103879, Note_on_c, 5, 76, 57
7, 103920, Note_off_c, 5, 76, 64
7, 104009, Note_on_c, 5, 76, 91
7, 104113, Note_on_c, 5, 78, 60
7, 104126, Note_off_c, 5, 76, 64
7, 104187, Note_off_c, 5, 78, 64
7, 104244, Note_on_c, 5, 75, 76
7, 104289, Note_off_c, 5, 75, 64
7, 104372, Note_on_c, 5, 75, 89
7, 104478, Note_on_c, 5, 71, 66
7, 104500, Note_off_c, 5, 75, 64
7, 104594, Note_on_c, 5, 73, 57
7, 104601, Note_off_c, 5, 71, 64
7, 104711, Note_off_c, 5, 73, 64
7, 104718, Note_on_c, 5, 75, 61
7, 104813, Note_off_c, 5, 75, 64
7, 104828, Note_on_c, 5, 76, 74
7, 104907, Note_off_c, 5, 76, 64
7, 104945, Note_on_c, 5, 78, 63
7, 104999, Note_off_c, 5, 78, 64
7, 105081, Note_on_c, 5, 71, 80
7, 105195, Note_off_c, 5, 71, 64
7, 105314, Note_on_c, 5, 75, 64
7, 105357, Note_off_c, 5, 75, 64
7, 105434, Note_on_c, 5, 64, 68
7, 105544, Note_on_c, 5, 68, 66
7, 105566, Note_off_c, 5, 64, 64
7, 105647, Note_off_c, 5, 68, 64
7, 105659, Note_on_c, 5, 71, 72
7, 105705, Note_off_c, 5, 71, 64
7, 105798, Note_on_c, 5, 76, 85
7, 105900, Note_on_c, 5, 78, 62
7, 105918, Note_off_c, 5, 76, 64
7, 105992, Note_off_c, 5, 78, 64
7, 106010, Note_on_c, 5, 74, 66
7, 106057, Note_off_c, 5, 74, 64
7, 106143, Note_on_c, 5, 74, 98
7, 106246, Note_on_c, 5, 76, 64
7, 106270, Note_off_c, 5, 74, 64
7, 106341, Note_off_c, 5, 76, 64
7, 106379, Note_on_c, 5, 73, 46
7, 106415, Note_off_c, 5, 73, 64
7, 106513, Note_on_c, 5, 73, 87
7, 106622, Note_on_c, 5, 69, 66
7, 106664, Note_off_c, 5, 73, 64
7, 106730, Note_off_c, 5, 69, 64
7, 106743, Note_on_c, 5, 71, 64
7, 106842, Note_off_c, 5, 71, 64
7, 106869, Note_on_c, 5, 73, 64
7, 106973, Note_on_c, 5, 74, 72
7, 107002, Note_off_c, 5, 73, 64
7, 107081, Note_off_c, 5, 74, 64
7, 107087, Note_on_c, 5, 76, 70
7, 107159, Note_off_c, 5, 76, 64
7, 107222, Note_on_c, 5, 69, 85
7, 107340, Note_off_c, 5, 69, 64
7, 107453, Note_on_c, 5, 73, 66
7, 107531, Note_off_c, 5, 73, 64
7, 107574, Note_on_c, 5, 62, 82
7, 107681, Note_on_c, 5, 66, 57
7, 107695, Note_off_c, 5, 62, 64
7, 107796, Note_on_c, 5, 69, 80
7, 107808, Note_off_c, 5, 66, 64
7, 107877, Note_off_c, 5, 69, 64
7, 107943, Note_on_c, 5, 74, 82
7, 108054, Note_on_c, 5, 76, 66
7, 108093, Note_off_c, 5, 74, 64
7, 108122, Note_off_c, 5, 76, 64
7, 108179, Note_on_c, 5, 73, 63
7, 108233, Note_off_c, 5, 73, 64
7, 108316, Note_on_c, 5, 73, 93
7, 108426, Note_on_c, 5, 74, 66
7, 108458, Note_off_c, 5, 73, 64
7, 108540, Note_off_c, 5, 74, 64
7, 108550, Note_on_c, 5, 71, 64
7, 108600, Note_off_c, 5, 71, 64
7, 108674, Note_on_c, 5, 71, 85
7, 108786, Note_on_c, 5, 73, 62
7, 108802, Note_off_c, 5, 71, 64
7, 108872, Note_off_c, 5, 73, 64
7, 108900, Note_on_c, 5, 74, 68
7, 108961, Note_off_c, 5, 74, 64
7, 109045, Note_on_c, 5, 76, 87
7, 109157, Note_on_c, 5, 78, 59
7, 109176, Note_off_c, 5, 76, 64
7, 109259, Note_off_c, 5, 78, 64
7, 109272, Note_on_c, 5, 74, 66
7, 109322, Note_off_c, 5, 74, 64
7, 109412, Note_on_c, 5, 74, 87
7, 109524, Note_on_c, 5, 76, 66
7, 109545, Note_off_c, 5, 74, 64
7, 109616, Note_off_c, 5, 76, 64
7, 109655, Note_on_c, 5, 73, 57
7, 109713, Note_off_c, 5, 73, 64
7, 109785, Note_on_c, 5, 73, 87
7, 109895, Note_on_c, 5, 74, 66
7, 109907, Note_off_c, 5, 73, 64
7, 110015, Note_off_c, 5, 74, 64
7, 110021, Note_on_c, 5, 76, 66
7, 110075, Note_off_c, 5, 76, 64
7, 110143, Note_on_c, 5, 78, 100
7, 110256, Note_on_c, 5, 79, 68
7, 110265, Note_off_c, 5, 78, 64
7, 110339, Note_off_c, 5, 79, 64
7, 110379, Note_on_c, 5, 76, 63
7, 110422, Note_off_c, 5, 76, 64
7, 110503, Note_on_c, 5, 76, 87
7, 110597, Note_on_c, 5, 78, 60
7, 110604, Note_off_c, 5, 76, 64
7, 110679, Note_off_c, 5, 78, 64
7, 110717, Note_on_c, 5, 74, 63
7, 110778, Note_off_c, 5, 74, 64
7, 110861, Note_on_c, 5, 74, 70
7, 110976, Note_off_c, 5, 74, 64
7, 111088, Note_on_c, 5, 74, 63
7, 111151, Note_off_c, 5, 74, 64
7, 111216, Note_on_c, 5, 74, 76
7, 111354, Note_off_c, 5, 74, 64
7, 111441, Note_on_c, 5, 74, 68
7, 111504, Note_off_c, 5, 74, 64
7, 111561, Note_on_c, 5, 74, 76
7, 111695, Note_off_c, 5, 74, 64
7, 111794, Note_on_c, 5, 74, 58
7, 111842, Note_off_c, 5, 74, 64
7, 111914, Note_on_c, 5, 74, 82
7, 112026, Note_on_c, 5, 71, 63
7, 112047, Note_off_c, 5, 74, 64
7, 112136, Note_off_c, 5, 71, 64
7, 112148, Note_on_c, 5, 73, 63
7, 112227, Note_off_c, 5, 73, 64
7, 112281, Note_on_c, 5, 74, 89
7, 112389, Note_on_c, 5, 76, 63
7, 112420, Note_off_c, 5, 74, 64
7, 112462, Note_off_c, 5, 76, 64
7, 112510, Note_on_c, 5, 73, 82
7, 112577, Note_off_c, 5, 73, 64
7, 112641, Note_on_c, 5, 74, 85
7, 112755, Note_on_c, 5, 73, 72
7, 112767, Note_off_c, 5, 74, 64
7, 112858, Note_off_c, 5, 73, 64
7, 112872, Note_on_c, 5, 71, 66
7, 112931, Note_off_c, 5, 71, 64
7, 112998, Note_on_c, 5, 73, 78
7, 113110, Note_on_c, 5, 76, 68
7, 113136, Note_off_c, 5, 73, 64
7, 113189, Note_off_c, 5, 76, 64
7, 113235, Note_on_c, 5, 74, 76
7, 113307, Note_off_c, 5, 74, 64
7, 113376, Note_on_c, 5, 76, 95
7, 113487, Note_off_c, 5, 76, 64
7, 113597, Note_on_c, 5, 69, 76
7, 113657, Note_off_c, 5, 69, 64
7, 113727, Note_on_c, 5, 64, 66
7, 113838, Note_off_c, 5, 64, 64
7, 113959, Note_on_c, 5, 68, 78
7, 114020, Note_off_c, 5, 68, 64
7, 114096, Note_on_c, 5, 69, 80
7, 114497, Note_off_c, 5, 69, 64
7, 128374, Note_on_c, 5, 71, 72
7, 128427, Note_off_c, 5, 71, 64
7, 128499, Note_on_c, 5, 71, 87
7, 128622, Note_on_c, 5, 73, 60
7, 128633, Note_off_c, 5, 71, 64
7, 128712, Note_off_c, 5, 73, 64
7, 128732, Note_on_c, 5, 69, 57
7, 128775, Note_off_c, 5, 69, 64
7, 128859, Note_on_c, 5, 69, 89
7, 128962, Note_on_c, 5, 71, 64
7, 128980, Note_off_c, 5, 69, 64
7, 129041, Note_off_c, 5, 71, 64
7, 129090, Note_on_c, 5, 68, 59
7, 129131, Note_off_c, 5, 68, 64
7, 129216, Note_on_c, 5, 68, 82
7, 129324, Note_on_c, 5, 70, 64
7, 129351, Note_off_c, 5, 68, 64
7, 129435, Note_off_c, 5, 70, 64
7, 129435, Note_on_c, 5, 71, 63
7, 129548, Note_off_c, 5, 71, 64
7, 129574, Note_on_c, 5, 73, 98
7, 129686, Note_on_c, 5, 74, 66
7, 129702, Note_off_c, 5, 73, 64
7, 129756, Note_off_c, 5, 74, 64
7, 129799, Note_on_c, 5, 71, 64
7, 129840, Note_off_c, 5, 71, 64
7, 129925, Note_on_c, 5, 71, 93
7, 130037, Note_on_c, 5, 73, 57
7, 130047, Note_off_c, 5, 71, 64
7, 130116, Note_off_c, 5, 73, 64
7, 130159, Note_on_c, 5, 70, 68
7, 130217, Note_off_c, 5, 70, 64
7, 130294, Note_on_c, 5, 70, 76
7, 130397, Note_on_c, 5, 71, 70
7, 130420, Note_off_c, 5, 70, 64
7, 130496, Note_off_c, 5, 71, 64
7, 130523, Note_on_c, 5, 73, 59
7, 130577, Note_off_c, 5, 73, 64
7, 130652, Note_on_c, 5, 73, 98
7, 130778, Note_off_c, 5, 73, 64
7, 130868, Note_on_c, 5, 71, 59
7, 130929, Note_off_c, 5, 71, 64
7, 130996, Note_on_c, 5, 71, 82
7, 131130, Note_off_c, 5, 71, 64
7, 131230, Note_on_c, 5, 70, 61
7, 131295, Note_off_c, 5, 70, 64
7, 131362, Note_on_c, 5, 71, 80
7, 131502, Note_off_c, 5, 71, 64
7, 131727, Note_on_c, 5, 71, 82
7, 131849, Note_off_c, 5, 71, 64
7, 132072, Note_on_c, 5, 75, 80
7, 132195, Note_off_c, 5, 75, 64
7, 132422, Note_on_c, 5, 76, 87
7, 132558, Note_off_c, 5, 76, 64
7, 133030, Note_on_c, 5, 71, 74
7, 133113, Note_off_c, 5, 71, 64
7, 133156, Note_on_c, 5, 73, 68
7, 133293, Note_off_c, 5, 73, 64
7, 133406, Note_on_c, 5, 75, 63
7, 133487, Note_off_c, 5, 75, 64
7, 133538, Note_on_c, 5, 76, 82
7, 133649, Note_off_c, 5, 76, 64
7, 133766, Note_on_c, 5, 71, 70
7, 133853, Note_off_c, 5, 71, 64
7, 133903, Note_on_c, 5, 70, 76
7, 134009, Note_off_c, 5, 70, 64
7, 134124, Note_on_c, 5, 71, 76
7, 134200, Note_off_c, 5, 71, 64
7, 134254, Note_on_c, 5, 73, 76
7, 134367, Note_off_c, 5, 73, 64
7, 134483, Note_on_c, 5, 76, 78
7, 134551, Note_off_c, 5, 76, 64
7, 134618, Note_on_c, 5, 73, 87
7, 134732, Note_on_c, 5, 74, 80
7, 134744, Note_off_c, 5, 73, 64
7, 134817, Note_off_c, 5, 74, 64
7, 134852, Note_on_c, 5, 76, 68
7, 134906, Note_off_c, 5, 76, 64
7, 134985, Note_on_c, 5, 73, 100
7, 135087, Note_on_c, 5, 74, 72
7, 135111, Note_off_c, 5, 73, 64
7, 135158, Note_off_c, 5, 74, 64
7, 135212, Note_on_c, 5, 71, 76
7, 135255, Note_off_c, 5, 71, 64
7, 135338, Note_on_c, 5, 71, 89
7, 135451, Note_on_c, 5, 73, 56
7, 135464, Note_off_c, 5, 71, 64
7, 135525, Note_off_c, 5, 73, 64
7, 135568, Note_on_c, 5, 70, 66
7, 135620, Note_off_c, 5, 70, 64
7, 135695, Note_on_c, 5, 71, 82
7, 135789, Note_off_c, 5, 71, 64
7, 135939, Note_on_c, 5, 71, 74
7, 136000, Note_off_c, 5, 71, 64
7, 136061, Note_on_c, 5, 67, 82
7, 136164, Note_on_c, 5, 66, 63
7, 136175, Note_off_c, 5, 67, 64
7, 136254, Note_off_c, 5, 66, 64
7, 136277, Note_on_c, 5, 64, 66
7, 136347, Note_off_c, 5, 64, 64
7, 136409, Note_on_c, 5, 66, 82
7, 136533, Note_off_c, 5, 66, 64
7, 136652, Note_on_c, 5, 66, 52
7, 136697, Note_off_c, 5, 66, 64
7, 136787, Note_on_c, 5, 66, 95
7, 136972, Note_off_c, 5, 66, 64
7, 200529, Note_on_c, 5, 69, 89
7, 200634, Note_off_c, 5, 69, 64
7, 200704, Note_on_c, 5, 78, 74
7, 200737, Note_off_c, 5, 78, 64
7, 200765, Note_on_c, 5, 78, 95
7, 200833, Note_off_c, 5, 78, 64
7, 200936, Note_on_c, 5, 74, 85
7, 200972, Note_off_c, 5, 74, 64
7, 201004, Note_on_c, 5, 69, 72
7, 201488, Note_off_c, 5, 69, 64
7, 201653, Note_on_c, 5, 81, 80
7, 201691, Note_off_c, 5, 81, 64
7, 201713, Note_on_c, 5, 81, 85
7, 201781, Note_off_c, 5, 81, 64
7, 201882, Note_on_c, 5, 78, 66
7, 201919, Note_off_c, 5, 78, 64
7, 201951, Note_on_c, 5, 74, 80
7, 202448, Note_off_c, 5, 74, 64
7, 202597, Note_on_c, 5, 72, 78
7, 202629, Note_off_c, 5, 72, 64
7, 202663, Note_on_c, 5, 72, 89
7, 202732, Note_off_c, 5, 72, 64
7, 202841, Note_on_c, 5, 69, 70
7, 202885, Note_off_c, 5, 69, 64
7, 202914, Note_on_c, 5, 78, 85
7, 203214, Note_off_c, 5, 78, 64
7, 203333, Note_on_c, 5, 78, 66
7, 203361, Note_off_c, 5, 78, 64
7, 203398, Note_on_c, 5, 76, 87
7, 203480, Note_off_c, 5, 76, 64
7, 203517, Note_on_c, 5, 64, 76
7, 203558, Note_off_c, 5, 64, 64
7, 203576, Note_on_c, 5, 66, 66
7, 203624, Note_off_c, 5, 66, 64
7, 203640, Note_on_c, 5, 67, 70
7, 203687, Note_off_c, 5, 67, 64
7, 203702, Note_on_c, 5, 69, 70
7, 203733, Note_off_c, 5, 69, 64
7, 203757, Note_on_c, 5, 71, 74
7, 203803, Note_off_c, 5, 71, 64
7, 203814, Note_on_c, 5, 73, 61
7, 203857, Note_off_c, 5, 73, 64
7, 203872, Note_on_c, 5, 74, 87
7, 203913, Note_off_c, 5, 74, 64
7, 203936, Note_on_c, 5, 73, 72
7, 203978, Note_off_c, 5, 73, 64
7, 203994, Note_on_c, 5, 71, 64
7, 204042, Note_off_c, 5, 71, 64
7, 204052, Note_on_c, 5, 73, 74
7, 204088, Note_off_c, 5, 73, 64
7, 204108, Note_on_c, 5, 74, 82
7, 204153, Note_off_c, 5, 74, 64
7, 204165, Note_on_c, 5, 71, 66
7, 204205, Note_off_c, 5, 71, 64
7, 204223, Note_on_c, 5, 76, 85
7, 204266, Note_off_c, 5, 76, 64
7, 204278, Note_on_c, 5, 71, 80
7, 204313, Note_off_c, 5, 71, 64
7, 204348, Note_on_c, 5, 73, 78
7, 205324, Note_off_c, 5, 73, 64
7, 205491, Note_on_c, 5, 69, 70
7, 205526, Note_off_c, 5, 69, 64
7, 205555, Note_on_c, 5, 69, 85
7, 205625, Note_off_c, 5, 69, 64
7, 205722, Note_on_c, 5, 74, 78
7, 205759, Note_off_c, 5, 74, 64
7, 205787, Note_on_c, 5, 78, 87
7, 206332, Note_off_c, 5, 78, 64
7, 206431, Note_on_c, 5, 78, 87
7, 206461, Note_off_c, 5, 78, 64
7, 206491, Note_on_c, 5, 78, 82
7, 206556, Note_off_c, 5, 78, 64
7, 206676, Note_on_c, 5, 75, 64
7, 206714, Note_off_c, 5, 75, 64
7, 206744, Note_on_c, 5, 76, 82
7, 207281, Note_off_c, 5, 76, 64
7, 207403, Note_on_c, 5, 76, 82
7, 207440, Note_off_c, 5, 76, 64
7, 207467, Note_on_c, 5, 76, 85
7, 207535, Note_off_c, 5, 76, 64
7, 207637, Note_on_c, 5, 73, 68
7, 207674, Note_off_c, 5, 73, 64
7, 207700, Note_on_c, 5, 69, 76
7, 207942, Note_off_c, 5, 69, 64
7, 208114, Note_on_c, 5, 74, 72
7, 208150, Note_off_c, 5, 74, 64
7, 208181, Note_on_c, 5, 76, 70
7, 208539, Note_off_c, 5, 76, 64
7, 208615, Note_on_c, 5, 76, 82
7, 208647, Note_off_c, 5, 76, 64
7, 208677, Note_on_c, 5, 76, 89
7, 208769, Note_off_c, 5, 76, 64
7, 208918, Note_on_c, 5, 73, 70
7, 208998, Note_off_c, 5, 73, 64
7, 209158, Note_on_c, 5, 69, 76
7, 209643, Note_off_c, 5, 69, 64
7, 209823, Note_on_c, 5, 71, 85
7, 209860, Note_off_c, 5, 71, 64
7, 209888, Note_on_c, 5, 71, 95
7, 209947, Note_off_c, 5, 71, 64
7, 210056, Note_on_c, 5, 67, 80
7, 210099, Note_off_c, 5, 67, 64
7, 210120, Note_on_c, 5, 64, 76
7, 210440, Note_off_c, 5, 64, 64
7, 210520, Note_on_c, 5, 64, 82
7, 210568, Note_off_c, 5, 64, 64
7, 210590, Note_on_c, 5, 66, 85
7, 210673, Note_off_c, 5, 66, 64
7, 210831, Note_on_c, 5, 70, 70
7, 210903, Note_off_c, 5, 70, 64
7, 211071, Note_on_c, 5, 71, 82
7, 211155, Note_off_c, 5, 71, 64
7, 211239, Note_on_c, 5, 66, 63
7, 211275, Note_off_c, 5, 66, 64
7, 211307, Note_on_c, 5, 66, 87
7, 211379, Note_off_c, 5, 66, 64
7, 211496, Note_on_c, 5, 62, 82
7, 211531, Note_off_c, 5, 62, 64
7, 211552, Note_on_c, 5, 62, 78
7, 212048, Note_off_c, 5, 62, 64
7, 212197, Note_on_c, 5, 67, 82
7, 212239, Note_off_c, 5, 67, 64
7, 212259, Note_on_c, 5, 66, 82
7, 212332, Note_off_c, 5, 66, 64
7, 212428, Note_on_c, 5, 64, 74
7, 212473, Note_off_c, 5, 64, 64
7, 212497, Note_on_c, 5, 62, 78
7, 212582, Note_off_c, 5, 62, 64
7, 212697, Note_on_c, 5, 62, 82
7, 212747, Note_off_c, 5, 62, 64
7, 212763, Note_on_c, 5, 64, 89
7, 212843, Note_off_c, 5, 64, 64
7, 212934, Note_on_c, 5, 66, 78
7, 212974, Note_off_c, 5, 66, 64
7, 212998, Note_on_c, 5, 64, 76
7, 213484, Note_off_c, 5, 64, 64
7, 213655, Note_on_c, 5, 73, 68
7, 213685, Note_off_c, 5, 73, 64
7, 213714, Note_on_c, 5, 73, 87
7, 213780, Note_off_c, 5, 73, 64
7, 213899, Note_on_c, 5, 69, 82
7, 213945, Note_off_c, 5, 69, 64
7, 213966, Note_on_c, 5, 66, 63
7, 214447, Note_off_c, 5, 66, 64
7, 214605, Note_on_c, 5, 74, 87
7, 214640, Note_off_c, 5, 74, 64
7, 214667, Note_on_c, 5, 74, 91
7, 214727, Note_off_c, 5, 74, 64
7, 214846, Note_on_c, 5, 69, 70
7, 214889, Note_off_c, 5, 69, 64
7, 214913, Note_on_c, 5, 70, 85
7, 215407, Note_off_c, 5, 70, 64
7, 215552, Note_on_c, 5, 76, 85
7, 215589, Note_off_c, 5, 76, 64
7, 215618, Note_on_c, 5, 76, 95
7, 215687, Note_off_c, 5, 76, 64
7, 215803, Note_on_c, 5, 73, 80
7, 215838, Note_off_c, 5, 73, 64
7, 215866, Note_on_c, 5, 69, 68
7, 216123, Note_off_c, 5, 69, 64
7, 216297, Note_on_c, 5, 69, 76
7, 216336, Note_off_c, 5, 69, 64
7, 216360, Note_on_c, 5, 67, 70
7, 216605, Note_off_c, 5, 67, 64
7, 216771, Note_on_c, 5, 67, 76
7, 216804, Note_off_c, 5, 67, 64
7, 216834, Note_on_c, 5, 65, 76
7, 217323, Note_off_c, 5, 65, 64
7, 217478, Note_on_c, 5, 69, 87
7, 217517, Note_off_c, 5, 69, 64
7, 217543, Note_on_c, 5, 62, 82
7, 217613, Note_off_c, 5, 62, 64
7, 217714, Note_on_c, 5, 66, 63
7, 217757, Note_off_c, 5, 66, 64
7, 217783, Note_on_c, 5, 66, 80
7, 217870, Note_off_c, 5, 66, 64
7, 217955, Note_on_c, 5, 69, 76
7, 217991, Note_off_c, 5, 69, 64
7, 218020, Note_on_c, 5, 67, 82
7, 218100, Note_off_c, 5, 67, 64
7, 218197, Note_on_c, 5, 64, 78
7, 218241, Note_off_c, 5, 64, 64
7, 218269, Note_on_c, 5, 66, 87
7, 218340, Note_off_c, 5, 66, 64
7, 218453, Note_on_c, 5, 62, 82
7, 218494, Note_off_c, 5, 62, 64
7, 218515, Note_on_c, 5, 64, 89
7, 218584, Note_off_c, 5, 64, 64
7, 218679, Note_on_c, 5, 71, 68
7, 218731, Note_off_c, 5, 71, 64
7, 218747, Note_on_c, 5, 76, 87
7, 218822, Note_off_c, 5, 76, 64
7, 218925, Note_on_c, 5, 73, 58
7, 218968, Note_off_c, 5, 73, 64
7, 218990, Note_on_c, 5, 74, 82
7, 219065, Note_off_c, 5, 74, 64
7, 219158, Note_on_c, 5, 71, 72
7, 219205, Note_off_c, 5, 71, 64
7, 219228, Note_on_c, 5, 69, 74
7, 219401, Note_off_c, 5, 69, 64
7, 219468, Note_on_c, 5, 69, 78
7, 219625, Note_off_c, 5, 69, 64
7, 219715, Note_on_c, 5, 69, 66
7, 220406, Note_off_c, 5, 69, 64
7, 247792, Note_on_c, 5, 62, 76
7, 247918, Note_off_c, 5, 62, 64
7, 248139, Note_on_c, 5, 69, 82
7, 248262, Note_off_c, 5, 69, 64
7, 248483, Note_on_c, 5, 71, 66
7, 248609, Note_off_c, 5, 71, 64
7, 248856, Note_on_c, 5, 64, 76
7, 248996, Note_off_c, 5, 64, 64
7, 249214, Note_on_c, 5, 71, 85
7, 249353, Note_off_c, 5, 71, 64
7, 249578, Note_on_c, 5, 73, 68
7, 249718, Note_off_c, 5, 73, 64
7, 249938, Note_on_c, 5, 66, 57
7, 250064, Note_off_c, 5, 66, 64
7, 250185, Note_on_c, 5, 74, 82
7, 250244, Note_off_c, 5, 74, 64
7, 250307, Note_on_c, 5, 74, 93
7, 250400, Note_on_c, 5, 76, 72
7, 250422, Note_off_c, 5, 74, 64
7, 250460, Note_off_c, 5, 76, 64
7, 250524, Note_on_c, 5, 73, 85
7, 250578, Note_off_c, 5, 73, 64
7, 250650, Note_on_c, 5, 73, 85
7, 250748, Note_on_c, 5, 74, 64
7, 250773, Note_off_c, 5, 73, 64
7, 250823, Note_off_c, 5, 74, 64
7, 250859, Note_on_c, 5, 71, 58
7, 250908, Note_off_c, 5, 71, 64
7, 251000, Note_on_c, 5, 71, 87
7, 251100, Note_on_c, 5, 73, 60
7, 251120, Note_off_c, 5, 71, 64
7, 251201, Note_off_c, 5, 73, 64
7, 251225, Note_on_c, 5, 74, 68
7, 251297, Note_off_c, 5, 74, 64
7, 251361, Note_on_c, 5, 76, 85
7, 251478, Note_on_c, 5, 78, 60
7, 251489, Note_off_c, 5, 76, 64
7, 251552, Note_off_c, 5, 78, 64
7, 251588, Note_on_c, 5, 74, 66
7, 251639, Note_off_c, 5, 74, 64
7, 251723, Note_on_c, 5, 74, 87
7, 251835, Note_on_c, 5, 76, 66
7, 251853, Note_off_c, 5, 74, 64
7, 251918, Note_off_c, 5, 76, 64
7, 251961, Note_on_c, 5, 73, 57
7, 252015, Note_off_c, 5, 73, 64
7, 252099, Note_on_c, 5, 73, 68
7, 252287, Note_off_c, 5, 73, 64
7, 252452, Note_on_c, 5, 78, 68
7, 253200, Note_off_c, 5, 78, 64
7, 253300, Note_on_c, 5, 71, 68
7, 253409, Note_on_c, 5, 73, 62
7, 253431, Note_off_c, 5, 71, 64
7, 253498, Note_off_c, 5, 73, 64
7, 253534, Note_on_c, 5, 75, 91
7, 253651, Note_on_c, 5, 83, 82
7, 253656, Note_off_c, 5, 75, 64
7, 253710, Note_off_c, 5, 83, 64
7, 253775, Note_on_c, 5, 73, 87
7, 253831, Note_off_c, 5, 73, 64
7, 253890, Note_on_c, 5, 75, 95
7, 254009, Note_on_c, 5, 73, 64
7, 254036, Note_off_c, 5, 75, 64
7, 254112, Note_off_c, 5, 73, 64
7, 254128, Note_on_c, 5, 71, 43
7, 254186, Note_off_c, 5, 71, 64
7, 254263, Note_on_c, 5, 76, 76
7, 255360, Note_off_c, 5, 76, 64
7, 255459, Note_on_c, 5, 69, 66
7, 255561, Note_on_c, 5, 71, 89
7, 255584, Note_off_c, 5, 69, 64
7, 255640, Note_off_c, 5, 71, 64
7, 255685, Note_on_c, 5, 73, 91
7, 255802, Note_on_c, 5, 81, 78
7, 255818, Note_off_c, 5, 73, 64
7, 255865, Note_off_c, 5, 81, 64
7, 255917, Note_on_c, 5, 71, 72
7, 255978, Note_off_c, 5, 71, 64
7, 256047, Note_on_c, 5, 73, 78
7, 256166, Note_on_c, 5, 71, 72
7, 256189, Note_off_c, 5, 73, 64
7, 256252, Note_off_c, 5, 71, 64
7, 256278, Note_on_c, 5, 69, 63
7, 256340, Note_off_c, 5, 69, 64
7, 256409, Note_on_c, 5, 74, 78
7, 256574, Note_off_c, 5, 74, 64
7, 256770, Note_on_c, 5, 81, 76
7, 258477, Note_off_c, 5, 81, 64
7, 258563, Note_on_c, 5, 81, 70
7, 258700, Note_on_c, 5, 80, 59
7, 258716, Note_off_c, 5, 81, 64
7, 258774, Note_on_c, 5, 81, 60
7, 258777, Note_off_c, 5, 80, 64
7, 258837, Note_on_c, 5, 80, 60
7, 258851, Note_off_c, 5, 81, 64
7, 258888, Note_off_c, 5, 80, 64
7, 258893, Note_on_c, 5, 81, 61
7, 258939, Note_on_c, 5, 80, 57
7, 258943, Note_off_c, 5, 81, 64
7, 258983, Note_off_c, 5, 80, 64
7, 258988, Note_on_c, 5, 81, 68
7, 259037, Note_off_c, 5, 81, 64
7, 259037, Note_on_c, 5, 80, 53
7, 259067, Note_off_c, 5, 80, 64
7, 259074, Note_on_c, 5, 81, 60
7, 259123, Note_on_c, 5, 80, 57
7, 259125, Note_off_c, 5, 81, 64
7, 259159, Note_off_c, 5, 80, 64
7, 259168, Note_on_c, 5, 81, 57
7, 259209, Note_off_c, 5, 81, 64
7, 259213, Note_on_c, 5, 80, 47
7, 259242, Note_off_c, 5, 80, 64
7, 259247, Note_on_c, 5, 81, 57
7, 259289, Note_off_c, 5, 81, 64
7, 259289, Note_on_c, 5, 80, 53
7, 259332, Note_off_c, 5, 80, 64
7, 259335, Note_on_c, 5, 81, 58
7, 259373, Note_on_c, 5, 80, 53
7, 259449, Note_off_c, 5, 81, 64
7, 259474, Note_on_c, 5, 78, 55
7, 259476, Note_off_c, 5, 80, 64
7, 259530, Note_on_c, 5, 80, 72
7, 259557, Note_off_c, 5, 78, 64
7, 259591, Note_off_c, 5, 80, 64
7, 259643, Note_on_c, 5, 81, 89
7, 259751, Note_on_c, 5, 78, 66
7, 259758, Note_off_c, 5, 81, 64
7, 259866, Note_on_c, 5, 80, 68
7, 259874, Note_off_c, 5, 78, 64
7, 259938, Note_off_c, 5, 80, 64
7, 260005, Note_on_c, 5, 81, 85
7, 260118, Note_on_c, 5, 83, 78
7, 260133, Note_off_c, 5, 81, 64
7, 260198, Note_off_c, 5, 83, 64
7, 260239, Note_on_c, 5, 80, 78
7, 260297, Note_off_c, 5, 80, 64
7, 260372, Note_on_c, 5, 81, 87
7, 260486, Note_on_c, 5, 80, 58
7, 260513, Note_off_c, 5, 81, 64
7, 260590, Note_off_c, 5, 80, 64
7, 260597, Note_on_c, 5, 78, 59
7, 260676, Note_off_c, 5, 78, 64
7, 260745, Note_on_c, 5, 83, 87
7, 260871, Note_off_c, 5, 83, 64
7, 261096, Note_on_c, 5, 76, 76
7, 261881, Note_off_c, 5, 76, 64
7, 261933, Note_on_c, 5, 69, 66
7, 262003, Note_off_c, 5, 69, 64
7, 262044, Note_on_c, 5, 72, 82
7, 262106, Note_off_c, 5, 72, 64
7, 262181, Note_on_c, 5, 72, 93
7, 262280, Note_on_c, 5, 74, 66
7, 262308, Note_off_c, 5, 72, 64
7, 262358, Note_off_c, 5, 74, 64
7, 262403, Note_on_c, 5, 71, 60
7, 262451, Note_off_c, 5, 71, 64
7, 262539, Note_on_c, 5, 71, 76
7, 262638, Note_on_c, 5, 72, 64
7, 262653, Note_off_c, 5, 71, 64
7, 262730, Note_off_c, 5, 72, 64
7, 262766, Note_on_c, 5, 69, 52
7, 262820, Note_off_c, 5, 69, 64
7, 262901, Note_on_c, 5, 69, 82
7, 263004, Note_on_c, 5, 71, 68
7, 263025, Note_off_c, 5, 69, 64
7, 263112, Note_on_c, 5, 72, 78
7, 263140, Note_off_c, 5, 71, 64
7, 263177, Note_off_c, 5, 72, 64
7, 263252, Note_on_c, 5, 74, 91
7, 263364, Note_on_c, 5, 76, 64
7, 263396, Note_off_c, 5, 74, 64
7, 263457, Note_off_c, 5, 76, 64
7, 263483, Note_on_c, 5, 72, 57
7, 263531, Note_off_c, 5, 72, 64
7, 263610, Note_on_c, 5, 72, 66
7, 263720, Note_on_c, 5, 74, 74
7, 263729, Note_off_c, 5, 72, 64
7, 263825, Note_off_c, 5, 74, 64
7, 263835, Note_on_c, 5, 71, 60
7, 263891, Note_off_c, 5, 71, 64
7, 263969, Note_on_c, 5, 71, 78
7, 264176, Note_off_c, 5, 71, 64
7, 264336, Note_on_c, 5, 78, 68
7, 265223, Note_off_c, 5, 78, 64
7, 265304, Note_on_c, 5, 76, 78
7, 265365, Note_off_c, 5, 76, 64
7, 265430, Note_on_c, 5, 76, 85
7, 265524, Note_on_c, 5, 78, 58
7, 265560, Note_off_c, 5, 76, 64
7, 265632, Note_off_c, 5, 78, 64
7, 265639, Note_on_c, 5, 74, 63
7, 265691, Note_off_c, 5, 74, 64
7, 265779, Note_on_c, 5, 74, 87
7, 265884, Note_on_c, 5, 76, 64
7, 265913, Note_off_c, 5, 74, 64
7, 265974, Note_off_c, 5, 76, 64
7, 266010, Note_on_c, 5, 73, 57
7, 266060, Note_off_c, 5, 73, 64
7, 266139, Note_on_c, 5, 73, 68
7, 266242, Note_on_c, 5, 76, 70
7, 266270, Note_off_c, 5, 73, 64
7, 266325, Note_off_c, 5, 76, 64
7, 266363, Note_on_c, 5, 74, 80
7, 266420, Note_off_c, 5, 74, 64
7, 266498, Note_on_c, 5, 76, 87
7, 266631, Note_off_c, 5, 76, 64
7, 266738, Note_on_c, 5, 78, 63
7, 266813, Note_off_c, 5, 78, 64
7, 266865, Note_on_c, 5, 76, 85
7, 266969, Note_off_c, 5, 76, 64
7, 267095, Note_on_c, 5, 74, 74
7, 267183, Note_off_c, 5, 74, 64
7, 267234, Note_on_c, 5, 73, 70
7, 267414, Note_off_c, 5, 73, 64
7, 290132, Note_on_c, 5, 69, 74
7, 290184, Note_off_c, 5, 69, 64
7, 290267, Note_on_c, 5, 69, 91
7, 290373, Note_on_c, 5, 73, 53
7, 290407, Note_off_c, 5, 69, 64
7, 290466, Note_off_c, 5, 73, 64
7, 290493, Note_on_c, 5, 71, 68
7, 290540, Note_off_c, 5, 71, 64
7, 290630, Note_on_c, 5, 71, 87
7, 290733, Note_off_c, 5, 71, 64
7, 290733, Note_on_c, 5, 74, 68
7, 290801, Note_off_c, 5, 74, 64
7, 290832, Note_on_c, 5, 73, 51
7, 290882, Note_off_c, 5, 73, 64
7, 290978, Note_on_c, 5, 73, 64
7, 291172, Note_off_c, 5, 73, 64
7, 292288, Note_on_c, 5, 73, 62
7, 292356, Note_off_c, 5, 73, 64
7, 292425, Note_on_c, 5, 76, 95
7, 292536, Note_off_c, 5, 76, 64
7, 292648, Note_on_c, 5, 73, 46
7, 292715, Note_off_c, 5, 73, 64
7, 292778, Note_on_c, 5, 69, 68
7, 292880, Note_off_c, 5, 69, 64
7, 293003, Note_on_c, 5, 73, 57
7, 293066, Note_off_c, 5, 73, 64
7, 293136, Note_on_c, 5, 74, 82
7, 293247, Note_off_c, 5, 74, 64
7, 293364, Note_on_c, 5, 69, 76
7, 293429, Note_off_c, 5, 69, 64
7, 293512, Note_on_c, 5, 69, 93
7, 293622, Note_on_c, 5, 74, 80
7, 293633, Note_off_c, 5, 69, 64
7, 293696, Note_off_c, 5, 74, 64
7, 293746, Note_on_c, 5, 73, 55
7, 293791, Note_off_c, 5, 73, 64
7, 293872, Note_on_c, 5, 73, 78
7, 293979, Note_on_c, 5, 76, 64
7, 293994, Note_off_c, 5, 73, 64
7, 294052, Note_off_c, 5, 76, 64
7, 294075, Note_on_c, 5, 74, 58
7, 294128, Note_off_c, 5, 74, 64
7, 294223, Note_on_c, 5, 74, 80
7, 294444, Note_off_c, 5, 74, 64
7, 295533, Note_on_c, 5, 66, 57
7, 295580, Note_off_c, 5, 66, 64
7, 295658, Note_on_c, 5, 66, 80
7, 295766, Note_on_c, 5, 69, 66
7, 295784, Note_off_c, 5, 66, 64
7, 295850, Note_off_c, 5, 69, 64
7, 295886, Note_on_c, 5, 67, 61
7, 295935, Note_off_c, 5, 67, 64
7, 296012, Note_on_c, 5, 67, 72
7, 296127, Note_on_c, 5, 71, 72
7, 296136, Note_off_c, 5, 67, 64
7, 296234, Note_off_c, 5, 71, 64
7, 296252, Note_on_c, 5, 69, 55
7, 296295, Note_off_c, 5, 69, 64
7, 296374, Note_on_c, 5, 69, 85
7, 296520, Note_off_c, 5, 69, 64
7, 296601, Note_on_c, 5, 66, 57
7, 296657, Note_off_c, 5, 66, 64
7, 296730, Note_on_c, 5, 69, 85
7, 296849, Note_off_c, 5, 69, 64
7, 296968, Note_on_c, 5, 66, 60
7, 297036, Note_off_c, 5, 66, 64
7, 297107, Note_on_c, 5, 62, 76
7, 297214, Note_off_c, 5, 62, 64
7, 297330, Note_on_c, 5, 66, 57
7, 297393, Note_off_c, 5, 66, 64
7, 297470, Note_on_c, 5, 67, 82
7, 297600, Note_off_c, 5, 67, 64
7, 297703, Note_on_c, 5, 66, 60
7, 297764, Note_off_c, 5, 66, 64
7, 297845, Note_on_c, 5, 67, 70
7, 297951, Note_off_c, 5, 67, 64
7, 298050, Note_on_c, 5, 69, 64
7, 298104, Note_off_c, 5, 69, 64
7, 298199, Note_on_c, 5, 69, 100
7, 298300, Note_on_c, 5, 71, 59
7, 298323, Note_off_c, 5, 69, 64
7, 298363, Note_off_c, 5, 71, 64
7, 298422, Note_on_c, 5, 68, 64
7, 298473, Note_off_c, 5, 68, 64
7, 298556, Note_on_c, 5, 68, 98
7, 298669, Note_on_c, 5, 69, 64
7, 298674, Note_off_c, 5, 68, 64
7, 298775, Note_on_c, 5, 71, 68
7, 298786, Note_off_c, 5, 69, 64
7, 298836, Note_off_c, 5, 71, 64
7, 298916, Note_on_c, 5, 69, 82
7, 299038, Note_off_c, 5, 69, 64
7, 299133, Note_on_c, 5, 71, 66
7, 299189, Note_off_c, 5, 71, 64
7, 299273, Note_on_c, 5, 71, 95
7, 299387, Note_on_c, 5, 73, 58
7, 299396, Note_off_c, 5, 71, 64
7, 299472, Note_off_c, 5, 73, 64
7, 299492, Note_on_c, 5, 70, 64
7, 299546, Note_off_c, 5, 70, 64
7, 299628, Note_on_c, 5, 70, 91
7, 299744, Note_on_c, 5, 71, 72
7, 299769, Note_off_c, 5, 70, 64
7, 299862, Note_on_c, 5, 73, 64
7, 299868, Note_off_c, 5, 71, 64
7, 299934, Note_off_c, 5, 73, 64
7, 299992, Note_on_c, 5, 71, 85
7, 300140, Note_off_c, 5, 71, 64
7, 300235, Note_on_c, 5, 73, 58
7, 300293, Note_off_c, 5, 73, 64
7, 300365, Note_on_c, 5, 73, 95
7, 300469, Note_on_c, 5, 74, 68
7, 300500, Note_off_c, 5, 73, 64
7, 300555, Note_off_c, 5, 74, 64
7, 300591, Note_on_c, 5, 71, 63
7, 300642, Note_off_c, 5, 71, 64
7, 300719, Note_on_c, 5, 71, 87
7, 300825, Note_on_c, 5, 73, 60
7, 300854, Note_off_c, 5, 71, 64
7, 300937, Note_on_c, 5, 74, 68
7, 300955, Note_off_c, 5, 73, 64
7, 301002, Note_off_c, 5, 74, 64
7, 301072, Note_on_c, 5, 73, 87
7, 301225, Note_off_c, 5, 73, 64
7, 301301, Note_on_c, 5, 74, 78
7, 301356, Note_off_c, 5, 74, 64
7, 301428, Note_on_c, 5, 74, 95
7, 301536, Note_on_c, 5, 76, 66
7, 301563, Note_off_c, 5, 74, 64
7, 301612, Note_off_c, 5, 76, 64
7, 301638, Note_on_c, 5, 73, 66
7, 301697, Note_off_c, 5, 73, 64
7, 301783, Note_on_c, 5, 73, 85
7, 301968, Note_off_c, 5, 73, 64
7, 314045, Note_on_c, 5, 71, 58
7, 314168, Note_off_c, 5, 71, 64
7, 314381, Note_on_c, 5, 75, 59
7, 314536, Note_off_c, 5, 75, 64
7, 314961, Note_on_c, 5, 76, 68
7, 315020, Note_off_c, 5, 76, 64
7, 315095, Note_on_c, 5, 76, 95
7, 315207, Note_on_c, 5, 78, 57
7, 315234, Note_off_c, 5, 76, 64
7, 315290, Note_off_c, 5, 78, 64
7, 315326, Note_on_c, 5, 74, 53
7, 315368, Note_off_c, 5, 74, 64
7, 315458, Note_on_c, 5, 74, 80
7, 315562, Note_on_c, 5, 76, 60
7, 315567, Note_off_c, 5, 74, 64
7, 315649, Note_off_c, 5, 76, 64
7, 315661, Note_on_c, 5, 72, 64
7, 315721, Note_off_c, 5, 72, 64
7, 315814, Note_on_c, 5, 72, 64
7, 315922, Note_off_c, 5, 72, 64
7, 316055, Note_on_c, 5, 72, 56
7, 316107, Note_off_c, 5, 72, 64
7, 316188, Note_on_c, 5, 72, 60
7, 316327, Note_off_c, 5, 72, 64
7, 316424, Note_on_c, 5, 72, 64
7, 316487, Note_off_c, 5, 72, 64
7, 316557, Note_on_c, 5, 72, 70
7, 316677, Note_off_c, 5, 72, 64
7, 316768, Note_on_c, 5, 72, 63
7, 316841, Note_off_c, 5, 72, 64
7, 316919, Note_on_c, 5, 71, 66
7, 317259, Note_off_c, 5, 71, 64
7, 317633, Note_on_c, 5, 66, 55
7, 318082, Note_off_c, 5, 66, 64
7, 318104, Note_on_c, 5, 67, 78
7, 318177, Note_off_c, 5, 67, 64
7, 318228, Note_on_c, 5, 69, 70
7, 318287, Note_off_c, 5, 69, 64
7, 318356, Note_on_c, 5, 71, 91
7, 318460, Note_on_c, 5, 72, 63
7, 318473, Note_off_c, 5, 71, 64
7, 318530, Note_off_c, 5, 72, 64
7, 318559, Note_on_c, 5, 70, 58
7, 318623, Note_off_c, 5, 70, 64
7, 318689, Note_on_c, 5, 71, 82
7, 318798, Note_on_c, 5, 69, 66
7, 318822, Note_off_c, 5, 71, 64
7, 318883, Note_off_c, 5, 69, 64
7, 318908, Note_on_c, 5, 67, 57
7, 318971, Note_off_c, 5, 67, 64
7, 319054, Note_on_c, 5, 69, 68
7, 319425, Note_off_c, 5, 69, 64
7, 319790, Note_on_c, 5, 62, 66
7, 320222, Note_off_c, 5, 62, 64
7, 320240, Note_on_c, 5, 64, 66
7, 320316, Note_off_c, 5, 64, 64
7, 320355, Note_on_c, 5, 66, 74
7, 320451, Note_off_c, 5, 66, 64
7, 320485, Note_on_c, 5, 67, 82
7, 320588, Note_on_c, 5, 69, 64
7, 320609, Note_off_c, 5, 67, 64
7, 320674, Note_off_c, 5, 69, 64
7, 320705, Note_on_c, 5, 66, 59
7, 320757, Note_off_c, 5, 66, 64
7, 320841, Note_on_c, 5, 67, 89
7, 320944, Note_on_c, 5, 66, 62
7, 320971, Note_off_c, 5, 67, 64
7, 321053, Note_off_c, 5, 66, 64
7, 321054, Note_on_c, 5, 64, 62
7, 321122, Note_off_c, 5, 64, 64
7, 321189, Note_on_c, 5, 66, 66
7, 321309, Note_off_c, 5, 66, 64
7, 321428, Note_on_c, 5, 62, 52
7, 321475, Note_off_c, 5, 62, 64
7, 321573, Note_on_c, 5, 62, 60
7, 321707, Note_off_c, 5, 62, 64
7, 321808, Note_on_c, 5, 62, 59
7, 321866, Note_off_c, 5, 62, 64
7, 321938, Note_on_c, 5, 62, 60
7, 322071, Note_off_c, 5, 62, 64
7, 322161, Note_on_c, 5, 62, 58
7, 322215, Note_off_c, 5, 62, 64
7, 322289, Note_on_c, 5, 62, 64
7, 322412, Note_off_c, 5, 62, 64
7, 322679, Note_on_c, 5, 71, 58
7, 322805, Note_off_c, 5, 71, 64
7, 323027, Note_on_c, 5, 67, 57
7, 323160, Note_off_c, 5, 67, 64
7, 323387, Note_on_c, 5, 67, 60
7, 323531, Note_off_c, 5, 67, 64
7, 323750, Note_on_c, 5, 66, 60
7, 323900, Note_off_c, 5, 66, 64
7, 324101, Note_on_c, 5, 67, 61
7, 324238, Note_off_c, 5, 67, 64
7, 324459, Note_on_c, 5, 69, 78
7, 324560, Note_on_c, 5, 67, 54
7, 324584, Note_off_c, 5, 69, 64
7, 324656, Note_off_c, 5, 67, 64
7, 324675, Note_on_c, 5, 69, 60
7, 324732, Note_off_c, 5, 69, 64
7, 324812, Note_on_c, 5, 69, 78
7, 324929, Note_off_c, 5, 69, 64
7, 325023, Note_on_c, 5, 67, 57
7, 325085, Note_off_c, 5, 67, 64
7, 325163, Note_on_c, 5, 67, 74
7, 325284, Note_off_c, 5, 67, 64
7, 325388, Note_on_c, 5, 66, 57
7, 325473, Note_off_c, 5, 66, 64
7, 325532, Note_on_c, 5, 67, 72
7, 325675, Note_off_c, 5, 67, 64
7, 325896, Note_on_c, 5, 74, 63
7, 326033, Note_off_c, 5, 74, 64
7, 326247, Note_on_c, 5, 74, 66
7, 326393, Note_off_c, 5, 74, 64
7, 326612, Note_on_c, 5, 74, 78
7, 326745, Note_off_c, 5, 74, 64
7, 327219, Note_on_c, 5, 67, 68
7, 327298, Note_off_c, 5, 67, 64
7, 327343, Note_on_c, 5, 69, 80
7, 327462, Note_off_c, 5, 69, 64
7, 327557, Note_on_c, 5, 71, 68
7, 327629, Note_off_c, 5, 71, 64
7, 327698, Note_on_c, 5, 72, 82
7, 327800, Note_off_c, 5, 72, 64
7, 327914, Note_on_c, 5, 67, 66
7, 327971, Note_off_c, 5, 67, 64
7, 328034, Note_on_c, 5, 67, 87
7, 328083, Note_on_c, 5, 66, 70
7, 328092, Note_off_c, 5, 67, 64
7, 328121, Note_on_c, 5, 67, 66
7, 328122, Note_off_c, 5, 66, 64
7, 328160, Note_on_c, 5, 66, 60
7, 328184, Note_off_c, 5, 67, 64
7, 328234, Note_off_c, 5, 66, 64
7, 328263, Note_on_c, 5, 67, 82
7, 328338, Note_off_c, 5, 67, 64
7, 328403, Note_on_c, 5, 69, 85
7, 328551, Note_off_c, 5, 69, 64
7, 328646, Note_on_c, 5, 72, 76
7, 328702, Note_off_c, 5, 72, 64
7, 328787, Note_on_c, 5, 66, 80
7, 328891, Note_on_c, 5, 67, 66
7, 328905, Note_off_c, 5, 66, 64
7, 328988, Note_off_c, 5, 67, 64
7, 329012, Note_on_c, 5, 69, 61
7, 329057, Note_off_c, 5, 69, 64
7, 329143, Note_on_c, 5, 69, 87
7, 329247, Note_on_c, 5, 71, 66
7, 329264, Note_off_c, 5, 69, 64
7, 329328, Note_off_c, 5, 71, 64
7, 329367, Note_on_c, 5, 67, 57
7, 329411, Note_off_c, 5, 67, 64
7, 329496, Note_on_c, 5, 67, 89
7, 329589, Note_on_c, 5, 69, 57
7, 329604, Note_off_c, 5, 67, 64
7, 329679, Note_off_c, 5, 69, 64
7, 329699, Note_on_c, 5, 66, 55
7, 329762, Note_off_c, 5, 66, 64
7, 329843, Note_on_c, 5, 67, 66
7, 329976, Note_off_c, 5, 67, 64
7, 330074, Note_on_c, 5, 72, 66
7, 330122, Note_off_c, 5, 72, 64
7, 330205, Note_on_c, 5, 71, 82
7, 330310, Note_on_c, 5, 72, 66
7, 330320, Note_off_c, 5, 71, 64
7, 330401, Note_off_c, 5, 72, 64
7, 330419, Note_on_c, 5, 69, 64
7, 330484, Note_off_c, 5, 69, 64
7, 330540, Note_on_c, 5, 71, 93
7, 330594, Note_on_c, 5, 69, 76
7, 330597, Note_off_c, 5, 71, 64
7, 330630, Note_on_c, 5, 71, 70
7, 330641, Note_off_c, 5, 69, 64
7, 330687, Note_on_c, 5, 69, 74
7, 330704, Note_off_c, 5, 71, 64
7, 330754, Note_off_c, 5, 69, 64
7, 330779, Note_on_c, 5, 71, 68
7, 330833, Note_off_c, 5, 71, 64
7, 330921, Note_on_c, 5, 71, 66
7, 331090, Note_off_c, 5, 71, 64
7, 331289, Note_on_c, 5, 67, 66
7, 331449, Note_off_c, 5, 67, 64
7, 331645, Note_on_c, 5, 74, 66
7, 331789, Note_off_c, 5, 74, 64
7, 332010, Note_on_c, 5, 74, 80
7, 332165, Note_off_c, 5, 74, 64
7, 332367, Note_on_c, 5, 67, 70
7, 332520, Note_off_c, 5, 67, 64
7, 332739, Note_on_c, 5, 69, 72
7, 332900, Note_off_c, 5, 69, 64
7, 333105, Note_on_c, 5, 71, 76
7, 333265, Note_off_c, 5, 71, 64
7, 354944, Note_on_c, 5, 74, 80
7, 355009, Note_off_c, 5, 74, 64
7, 355076, Note_on_c, 5, 74, 85
7, 355175, Note_off_c, 5, 74, 64
7, 355297, Note_on_c, 5, 66, 59
7, 355378, Note_off_c, 5, 66, 64
7, 355428, Note_on_c, 5, 69, 87
7, 355526, Note_off_c, 5, 69, 64
7, 355657, Note_on_c, 5, 74, 68
7, 355716, Note_off_c, 5, 74, 64
7, 355797, Note_on_c, 5, 74, 89
7, 355900, Note_on_c, 5, 76, 56
7, 355941, Note_off_c, 5, 74, 64
7, 356016, Note_off_c, 5, 76, 64
7, 356022, Note_on_c, 5, 74, 70
7, 356100, Note_off_c, 5, 74, 64
7, 356148, Note_on_c, 5, 73, 78
7, 356237, Note_on_c, 5, 74, 61
7, 356267, Note_off_c, 5, 73, 64
7, 356310, Note_off_c, 5, 74, 64
7, 356366, Note_on_c, 5, 71, 70
7, 356415, Note_off_c, 5, 71, 64
7, 356505, Note_on_c, 5, 71, 89
7, 356611, Note_on_c, 5, 73, 58
7, 356613, Note_off_c, 5, 71, 64
7, 356681, Note_off_c, 5, 73, 64
7, 356725, Note_on_c, 5, 69, 53
7, 356791, Note_off_c, 5, 69, 64
7, 356863, Note_on_c, 5, 69, 74
7, 356989, Note_off_c, 5, 69, 64
7, 357090, Note_on_c, 5, 81, 64
7, 357165, Note_off_c, 5, 81, 64
7, 357219, Note_on_c, 5, 76, 66
7, 357326, Note_off_c, 5, 76, 64
7, 357443, Note_on_c, 5, 73, 55
7, 357524, Note_off_c, 5, 73, 64
7, 357574, Note_on_c, 5, 69, 66
7, 357668, Note_off_c, 5, 69, 64
7, 357790, Note_on_c, 5, 69, 63
7, 357848, Note_off_c, 5, 69, 64
7, 357938, Note_on_c, 5, 69, 85
7, 358038, Note_on_c, 5, 71, 76
7, 358069, Note_off_c, 5, 69, 64
7, 358150, Note_on_c, 5, 73, 63
7, 358154, Note_off_c, 5, 71, 64
7, 358238, Note_off_c, 5, 73, 64
7, 358272, Note_on_c, 5, 74, 85
7, 358391, Note_off_c, 5, 74, 64
7, 358490, Note_on_c, 5, 76, 64
7, 358569, Note_off_c, 5, 76, 64
7, 358629, Note_on_c, 5, 73, 57
7, 358735, Note_off_c, 5, 73, 64
7, 358875, Note_on_c, 5, 69, 61
7, 358929, Note_off_c, 5, 69, 64
7, 359014, Note_on_c, 5, 69, 82
7, 359117, Note_on_c, 5, 71, 68
7, 359131, Note_off_c, 5, 69, 64
7, 359232, Note_on_c, 5, 69, 62
7, 359237, Note_off_c, 5, 71, 64
7, 359306, Note_off_c, 5, 69, 64
7, 359365, Note_on_c, 5, 68, 82
7, 359471, Note_on_c, 5, 69, 62
7, 359484, Note_off_c, 5, 68, 64
7, 359549, Note_off_c, 5, 69, 64
7, 359587, Note_on_c, 5, 66, 57
7, 359633, Note_off_c, 5, 66, 64
7, 359714, Note_on_c, 5, 66, 85
7, 359820, Note_on_c, 5, 68, 61
7, 359830, Note_off_c, 5, 66, 64
7, 359905, Note_off_c, 5, 68, 64
7, 359940, Note_on_c, 5, 64, 55
7, 359993, Note_off_c, 5, 64, 64
7, 360092, Note_on_c, 5, 64, 70
7, 360312, Note_off_c, 5, 64, 64
7, 360680, Note_on_c, 5, 76, 60
7, 360769, Note_off_c, 5, 76, 64
7, 360816, Note_on_c, 5, 71, 82
7, 360917, Note_off_c, 5, 71, 64
7, 361048, Note_on_c, 5, 71, 63
7, 361113, Note_off_c, 5, 71, 64
7, 361179, Note_on_c, 5, 69, 74
7, 361401, Note_off_c, 5, 69, 64
7, 361743, Note_on_c, 5, 74, 66
7, 361818, Note_off_c, 5, 74, 64
7, 361887, Note_on_c, 5, 69, 70
7, 361997, Note_off_c, 5, 69, 64
7, 362123, Note_on_c, 5, 69, 66
7, 362187, Note_off_c, 5, 69, 64
7, 362247, Note_on_c, 5, 67, 68
7, 362391, Note_off_c, 5, 67, 64
7, 362618, Note_on_c, 5, 73, 62
7, 362745, Note_off_c, 5, 73, 64
7, 362983, Note_on_c, 5, 75, 64
7, 363109, Note_off_c, 5, 75, 64
7, 363339, Note_on_c, 5, 76, 64
7, 363487, Note_off_c, 5, 76, 64
7, 363581, Note_on_c, 5, 76, 82
7, 363649, Note_off_c, 5, 76, 64
7, 363719, Note_on_c, 5, 76, 95
7, 363824, Note_on_c, 5, 78, 62
7, 363856, Note_off_c, 5, 76, 64
7, 363914, Note_off_c, 5, 78, 64
7, 363933, Note_on_c, 5, 74, 59
7, 363982, Note_off_c, 5, 74, 64
7, 364069, Note_on_c, 5, 74, 85
7, 364178, Note_on_c, 5, 76, 60
7, 364214, Note_off_c, 5, 74, 64
7, 364267, Note_off_c, 5, 76, 64
7, 364279, Note_on_c, 5, 73, 49
7, 364346, Note_off_c, 5, 73, 64
7, 364416, Note_on_c, 5, 73, 66
7, 364518, Note_on_c, 5, 69, 63
7, 364562, Note_off_c, 5, 73, 64
7, 364639, Note_on_c, 5, 71, 66
7, 364663, Note_off_c, 5, 69, 64
7, 364734, Note_off_c, 5, 71, 64
7, 364760, Note_on_c, 5, 73, 68
7, 364865, Note_on_c, 5, 74, 74
7, 364884, Note_off_c, 5, 73, 64
7, 364977, Note_on_c, 5, 76, 76
7, 364981, Note_off_c, 5, 74, 64
7, 365042, Note_off_c, 5, 76, 64
7, 365118, Note_on_c, 5, 69, 80
7, 365213, Note_off_c, 5, 69, 64
7, 365350, Note_on_c, 5, 73, 59
7, 365413, Note_off_c, 5, 73, 64
7, 365474, Note_on_c, 5, 62, 66
7, 365580, Note_on_c, 5, 66, 64
7, 365607, Note_off_c, 5, 62, 64
7, 365708, Note_on_c, 5, 69, 80
7, 365719, Note_off_c, 5, 66, 64
7, 365791, Note_off_c, 5, 69, 64
7, 365838, Note_on_c, 5, 74, 78
7, 365955, Note_on_c, 5, 76, 62
7, 365991, Note_off_c, 5, 74, 64
7, 366038, Note_off_c, 5, 76, 64
7, 366066, Note_on_c, 5, 72, 64
7, 366128, Note_off_c, 5, 72, 64
7, 366194, Note_on_c, 5, 72, 82
7, 366295, Note_on_c, 5, 74, 66
7, 366324, Note_off_c, 5, 72, 64
7, 366407, Note_off_c, 5, 74, 64
7, 366426, Note_on_c, 5, 71, 57
7, 366486, Note_off_c, 5, 71, 64
7, 366561, Note_on_c, 5, 71, 76
7, 366668, Note_on_c, 5, 67, 55
7, 366680, Note_off_c, 5, 71, 64
7, 366783, Note_on_c, 5, 71, 57
7, 366785, Note_off_c, 5, 67, 64
7, 366830, Note_off_c, 5, 71, 64
7, 366932, Note_on_c, 5, 76, 80
7, 367033, Note_on_c, 5, 78, 61
7, 367058, Note_off_c, 5, 76, 64
7, 367141, Note_on_c, 5, 74, 64
7, 367148, Note_off_c, 5, 78, 64
7, 367188, Note_off_c, 5, 74, 64
7, 367274, Note_on_c, 5, 74, 85
7, 367377, Note_on_c, 5, 76, 60
7, 367391, Note_off_c, 5, 74, 64
7, 367494, Note_off_c, 5, 76, 64
7, 367499, Note_on_c, 5, 73, 52
7, 367557, Note_off_c, 5, 73, 64
7, 367625, Note_on_c, 5, 73, 76
7, 367737, Note_on_c, 5, 74, 80
7, 367746, Note_off_c, 5, 73, 64
7, 367854, Note_on_c, 5, 76, 76
7, 367861, Note_off_c, 5, 74, 64
7, 367949, Note_off_c, 5, 76, 64
7, 368000, Note_on_c, 5, 78, 91
7, 368115, Note_on_c, 5, 79, 68
7, 368142, Note_off_c, 5, 78, 64
7, 368201, Note_off_c, 5, 79, 64
7, 368228, Note_on_c, 5, 76, 64
7, 368280, Note_off_c, 5, 76, 64
7, 368374, Note_on_c, 5, 76, 87
7, 368475, Note_on_c, 5, 78, 60
7, 368478, Note_off_c, 5, 76, 64
7, 368556, Note_off_c, 5, 78, 64
7, 368599, Note_on_c, 5, 74, 59
7, 368653, Note_off_c, 5, 74, 64
7, 368765, Note_on_c, 5, 74, 78
7, 368975, Note_off_c, 5, 74, 64
7, 369332, Note_on_c, 5, 73, 49
7, 369391, Note_off_c, 5, 73, 64
7, 369465, Note_on_c, 5, 73, 62
7, 369589, Note_off_c, 5, 73, 64
7, 369701, Note_on_c, 5, 75, 56
7, 369751, Note_off_c, 5, 75, 64
7, 369819, Note_on_c, 5, 76, 70
7, 369926, Note_off_c, 5, 76, 64
7, 370067, Note_on_c, 5, 76, 53
7, 370124, Note_off_c, 5, 76, 64
7, 370197, Note_on_c, 5, 76, 66
7, 370307, Note_off_c, 5, 76, 64
7, 370426, Note_on_c, 5, 76, 66
7, 370489, Note_off_c, 5, 76, 64
7, 370557, Note_on_c, 5, 76, 72
7, 370678, Note_off_c, 5, 76, 64
7, 370793, Note_on_c, 5, 76, 66
7, 370847, Note_off_c, 5, 76, 64
7, 370930, Note_on_c, 5, 76, 87
7, 371040, Note_on_c, 5, 73, 56
7, 371052, Note_off_c, 5, 76, 64
7, 371105, Note_off_c, 5, 73, 64
7, 371141, Note_on_c, 5, 74, 64
7, 371196, Note_off_c, 5, 74, 64
7, 371283, Note_on_c, 5, 76, 85
7, 371395, Note_on_c, 5, 73, 55
7, 371403, Note_off_c, 5, 76, 64
7, 371461, Note_off_c, 5, 73, 64
7, 371508, Note_on_c, 5, 74, 58
7, 371560, Note_off_c, 5, 74, 64
7, 371637, Note_on_c, 5, 76, 85
7, 371745, Note_on_c, 5, 74, 59
7, 371765, Note_off_c, 5, 76, 64
7, 371841, Note_off_c, 5, 74, 64
7, 371862, Note_on_c, 5, 73, 53
7, 371922, Note_off_c, 5, 73, 64
7, 371987, Note_on_c, 5, 74, 85
7, 372071, Note_off_c, 5, 74, 64
7, 372194, Note_on_c, 5, 73, 55
7, 372264, Note_off_c, 5, 73, 64
7, 372320, Note_on_c, 5, 74, 78
7, 372437, Note_off_c, 5, 74, 64
7, 372561, Note_on_c, 5, 71, 66
7, 372636, Note_off_c, 5, 71, 64
7, 372698, Note_on_c, 5, 69, 66
7, 372802, Note_off_c, 5, 69, 64
7, 372926, Note_on_c, 5, 69, 60
7, 372996, Note_off_c, 5, 69, 64
7, 373065, Note_on_c, 5, 69, 74
7, 373202, Note_off_c, 5, 69, 64
7, 373432, Note_on_c, 5, 74, 74
7, 373551, Note_off_c, 5, 74, 64
7, 373788, Note_on_c, 5, 76, 70
7, 373913, Note_off_c, 5, 76, 64
7, 374150, Note_on_c, 5, 81, 85
7, 374258, Note_off_c, 5, 81, 64
7, 374503, Note_on_c, 5, 74, 78
7, 374627, Note_off_c, 5, 74, 64
7, 374854, Note_on_c, 5, 76, 80
7, 374996, Note_off_c, 5, 76, 64
7, 374996, End_track
8, 0, Start_track
8, 0, Title_t, "Oboe"
8, 0, Program_c, 6, 68
8, 0, Control_c, 6, 7, 100
8, 1135, Note_on_c, 6, 69, 87
8, 1172, Note_off_c, 6, 69, 64
8, 1195, Note_on_c, 6, 69, 87
8, 1272, Note_off_c, 6, 69, 64
8, 1358, Note_on_c, 6, 66, 70
8, 1398, Note_off_c, 6, 66, 64
8, 1424, Note_on_c, 6, 62, 70
8, 1933, Note_off_c, 6, 62, 64
8, 2093, Note_on_c, 6, 66, 82
8, 2134, Note_off_c, 6, 66, 64
8, 2159, Note_on_c, 6, 66, 82
8, 2229, Note_off_c, 6, 66, 64
8, 2332, Note_on_c, 6, 62, 74
8, 2368, Note_off_c, 6, 62, 64
8, 2399, Note_on_c, 6, 62, 82
8, 2894, Note_off_c, 6, 62, 64
8, 3056, Note_on_c, 6, 69, 82
8, 3090, Note_off_c, 6, 69, 64
8, 3115, Note_on_c, 6, 69, 87
8, 3199, Note_off_c, 6, 69, 64
8, 3292, Note_on_c, 6, 73, 87
8, 3327, Note_off_c, 6, 73, 64
8, 3349, Note_on_c, 6, 74, 91
8, 3606, Note_off_c, 6, 74, 64
8, 3764, Note_on_c, 6, 69, 89
8, 3798, Note_off_c, 6, 69, 64
8, 3820, Note_on_c, 6, 71, 91
8, 4167, Note_off_c, 6, 71, 64
8, 4260, Note_on_c, 6, 71, 80
8, 4293, Note_off_c, 6, 71, 64
8, 4323, Note_on_c, 6, 69, 89
8, 4425, Note_off_c, 6, 69, 64
8, 4562, Note_on_c, 6, 69, 87
8, 4643, Note_off_c, 6, 69, 64
8, 4794, Note_on_c, 6, 69, 89
8, 4896, Note_off_c, 6, 69, 64
8, 5034, Note_on_c, 6, 66, 95
8, 5147, Note_off_c, 6, 66, 64
8, 5448, Note_on_c, 6, 74, 85
8, 5488, Note_off_c, 6, 74, 64
8, 5512, Note_on_c, 6, 74, 93
8, 5581, Note_off_c, 6, 74, 64
8, 5674, Note_on_c, 6, 66, 60
8, 5712, Note_off_c, 6, 66, 64
8, 5748, Note_on_c, 6, 66, 87
8, 6065, Note_off_c, 6, 66, 64
8, 6178, Note_on_c, 6, 66, 72
8, 6220, Note_off_c, 6, 66, 64
8, 6237, Note_on_c, 6, 71, 89
8, 6316, Note_off_c, 6, 71, 64
8, 6416, Note_on_c, 6, 66, 64
8, 6461, Note_off_c, 6, 66, 64
8, 6477, Note_on_c, 6, 63, 78
8, 6542, Note_off_c, 6, 63, 64
8, 6663, Note_on_c, 6, 71, 82
8, 6706, Note_off_c, 6, 71, 64
8, 6727, Note_on_c, 6, 71, 89
8, 6791, Note_off_c, 6, 71, 64
8, 6904, Note_on_c, 6, 71, 100
8, 6946, Note_off_c, 6, 71, 64
8, 6968, Note_on_c, 6, 71, 93
8, 7053, Note_off_c, 6, 71, 64
8, 7134, Note_on_c, 6, 67, 78
8, 7173, Note_off_c, 6, 67, 64
8, 7197, Note_on_c, 6, 64, 80
8, 7459, Note_off_c, 6, 64, 64
8, 7612, Note_on_c, 6, 69, 89
8, 7649, Note_off_c, 6, 69, 64
8, 7673, Note_on_c, 6, 62, 82
8, 7982, Note_off_c, 6, 62, 64
8, 8100, Note_on_c, 6, 64, 78
8, 8149, Note_off_c, 6, 64, 64
8, 8158, Note_on_c, 6, 62, 85
8, 8233, Note_off_c, 6, 62, 64
8, 8337, Note_on_c, 6, 67, 72
8, 8386, Note_off_c, 6, 67, 64
8, 8400, Note_on_c, 6, 66, 89
8, 8480, Note_off_c, 6, 66, 64
8, 8578, Note_on_c, 6, 64, 64
8, 8622, Note_off_c, 6, 64, 64
8, 8647, Note_on_c, 6, 64, 78
8, 8737, Note_off_c, 6, 64, 64
8, 8819, Note_on_c, 6, 69, 70
8, 8858, Note_off_c, 6, 69, 64
8, 8879, Note_on_c, 6, 69, 82
8, 8970, Note_off_c, 6, 69, 64
8, 9056, Note_on_c, 6, 73, 76
8, 9093, Note_off_c, 6, 73, 64
8, 9116, Note_on_c, 6, 73, 82
8, 9203, Note_off_c, 6, 73, 64
8, 9296, Note_on_c, 6, 71, 76
8, 9341, Note_off_c, 6, 71, 64
8, 9363, Note_on_c, 6, 73, 95
8, 9443, Note_off_c, 6, 73, 64
8, 9537, Note_on_c, 6, 76, 82
8, 9580, Note_off_c, 6, 76, 64
8, 9605, Note_on_c, 6, 73, 95
8, 10098, Note_off_c, 6, 73, 64
8, 10267, Note_on_c, 6, 69, 87
8, 10303, Note_off_c, 6, 69, 64
8, 10328, Note_on_c, 6, 69, 91
8, 10425, Note_off_c, 6, 69, 64
8, 10491, Note_on_c, 6, 66, 82
8, 10535, Note_off_c, 6, 66, 64
8, 10557, Note_on_c, 6, 64, 87
8, 11064, Note_off_c, 6, 64, 64
8, 11210, Note_on_c, 6, 64, 70
8, 11252, Note_off_c, 6, 64, 64
8, 11281, Note_on_c, 6, 69, 98
8, 11369, Note_off_c, 6, 69, 64
8, 11445, Note_on_c, 6, 66, 80
8, 11483, Note_off_c, 6, 66, 64
8, 11511, Note_on_c, 6, 66, 85
8, 11820, Note_off_c, 6, 66, 64
8, 11940, Note_on_c, 6, 66, 93
8, 11977, Note_off_c, 6, 66, 64
8, 11999, Note_on_c, 6, 64, 87
8, 12145, Note_off_c, 6, 64, 64
8, 12255, Note_on_c, 6, 64, 82
8, 12346, Note_off_c, 6, 64, 64
8, 12486, Note_on_c, 6, 64, 85
8, 12573, Note_off_c, 6, 64, 64
8, 12674, Note_on_c, 6, 73, 82
8, 12709, Note_off_c, 6, 73, 64
8, 12731, Note_on_c, 6, 73, 93
8, 12800, Note_off_c, 6, 73, 64
8, 12899, Note_on_c, 6, 69, 78
8, 12937, Note_off_c, 6, 69, 64
8, 12968, Note_on_c, 6, 66, 87
8, 13453, Note_off_c, 6, 66, 64
8, 13624, Note_on_c, 6, 71, 82
8, 13659, Note_off_c, 6, 71, 64
8, 13682, Note_on_c, 6, 71, 93
8, 13750, Note_off_c, 6, 71, 64
8, 13850, Note_on_c, 6, 74, 78
8, 13895, Note_off_c, 6, 74, 64
8, 13908, Note_on_c, 6, 68, 89
8, 14015, Note_off_c, 6, 68, 64
8, 14150, Note_on_c, 6, 73, 87
8, 14251, Note_off_c, 6, 73, 64
8, 14391, Note_on_c, 6, 73, 85
8, 14881, Note_off_c, 6, 73, 64
8, 15044, Note_on_c, 6, 69, 85
8, 15083, Note_off_c, 6, 69, 64
8, 15104, Note_on_c, 6, 66, 95
8, 15193, Note_off_c, 6, 66, 64
8, 15294, Note_on_c, 6, 66, 76
8, 15331, Note_off_c, 6, 66, 64
8, 15354, Note_on_c, 6, 64, 78
8, 15646, Note_off_c, 6, 64, 64
8, 15774, Note_on_c, 6, 62, 85
8, 15803, Note_off_c, 6, 62, 64
8, 15831, Note_on_c, 6, 69, 98
8, 15932, Note_off_c, 6, 69, 64
8, 16018, Note_on_c, 6, 62, 82
8, 16074, Note_off_c, 6, 62, 64
8, 16081, Note_on_c, 6, 64, 89
8, 16174, Note_off_c, 6, 64, 64
8, 16263, Note_on_c, 6, 66, 68
8, 16305, Note_off_c, 6, 66, 64
8, 16319, Note_on_c, 6, 64, 89
8, 16419, Note_off_c, 6, 64, 64
8, 16498, Note_on_c, 6, 68, 82
8, 16531, Note_off_c, 6, 68, 64
8, 16555, Note_on_c, 6, 68, 93
8, 16634, Note_off_c, 6, 68, 64
8, 16730, Note_on_c, 6, 64, 78
8, 16766, Note_off_c, 6, 64, 64
8, 16802, Note_on_c, 6, 64, 85
8, 17284, Note_off_c, 6, 64, 64
8, 17441, Note_on_c, 6, 64, 58
8, 17490, Note_off_c, 6, 64, 64
8, 17513, Note_on_c, 6, 69, 89
8, 17585, Note_off_c, 6, 69, 64
8, 17695, Note_on_c, 6, 64, 72
8, 17742, Note_off_c, 6, 64, 64
8, 17758, Note_on_c, 6, 73, 89
8, 18270, Note_off_c, 6, 73, 64
8, 18408, Note_on_c, 6, 74, 85
8, 18460, Note_off_c, 6, 74, 64
8, 18482, Note_on_c, 6, 68, 78
8, 18573, Note_off_c, 6, 68, 64
8, 18659, Note_on_c, 6, 71, 85
8, 18708, Note_off_c, 6, 71, 64
8, 18728, Note_on_c, 6, 74, 85
8, 19215, Note_off_c, 6, 74, 64
8, 19377, Note_on_c, 6, 68, 82
8, 19413, Note_off_c, 6, 68, 64
8, 19441, Note_on_c, 6, 69, 85
8, 19696, Note_off_c, 6, 69, 64
8, 19868, Note_on_c, 6, 66, 66
8, 19910, Note_off_c, 6, 66, 64
8, 19931, Note_on_c, 6, 68, 87
8, 20174, Note_off_c, 6, 68, 64
8, 20337, Note_on_c, 6, 64, 72
8, 20369, Note_off_c, 6, 64, 64
8, 20395, Note_on_c, 6, 64, 80
8, 20480, Note_off_c, 6, 64, 64
8, 20578, Note_on_c, 6, 69, 78
8, 20618, Note_off_c, 6, 69, 64
8, 20638, Note_on_c, 6, 73, 78
8, 21138, Note_off_c, 6, 73, 64
8, 21305, Note_on_c, 6, 69, 85
8, 21340, Note_off_c, 6, 69, 64
8, 21362, Note_on_c, 6, 69, 91
8, 21454, Note_off_c, 6, 69, 64
8, 21528, Note_on_c, 6, 68, 66
8, 21570, Note_off_c, 6, 68, 64
8, 21594, Note_on_c, 6, 66, 85
8, 21898, Note_off_c, 6, 66, 64
8, 22022, Note_on_c, 6, 62, 82
8, 22068, Note_off_c, 6, 62, 64
8, 22082, Note_on_c, 6, 64, 91
8, 22184, Note_off_c, 6, 64, 64
8, 22256, Note_on_c, 6, 64, 82
8, 22297, Note_off_c, 6, 64, 64
8, 22320, Note_on_c, 6, 66, 100
8, 22410, Note_off_c, 6, 66, 64
8, 22499, Note_on_c, 6, 64, 76
8, 22530, Note_off_c, 6, 64, 64
8, 22557, Note_on_c, 6, 64, 87
8, 22754, Note_off_c, 6, 64, 64
8, 22802, Note_on_c, 6, 64, 78
8, 22987, Note_off_c, 6, 64, 64
8, 23046, Note_on_c, 6, 64, 80
8, 23782, Note_off_c, 6, 64, 64
8, 47373, Note_on_c, 6, 69, 76
8, 47427, Note_off_c, 6, 69, 64
8, 47486, Note_on_c, 6, 69, 85
8, 47586, Note_on_c, 6, 71, 63
8, 47604, Note_off_c, 6, 69, 64
8, 47652, Note_off_c, 6, 71, 64
8, 47697, Note_on_c, 6, 67, 59
8, 47741, Note_off_c, 6, 67, 64
8, 47832, Note_on_c, 6, 67, 89
8, 47935, Note_on_c, 6, 69, 62
8, 47958, Note_off_c, 6, 67, 64
8, 48009, Note_off_c, 6, 69, 64
8, 48048, Note_on_c, 6, 66, 58
8, 48092, Note_off_c, 6, 66, 64
8, 48185, Note_on_c, 6, 66, 89
8, 48292, Note_off_c, 6, 66, 64
8, 48297, Note_on_c, 6, 67, 60
8, 48360, Note_off_c, 6, 67, 64
8, 48423, Note_on_c, 6, 69, 66
8, 48475, Note_off_c, 6, 69, 64
8, 48556, Note_on_c, 6, 71, 98
8, 48668, Note_on_c, 6, 73, 57
8, 48671, Note_off_c, 6, 71, 64
8, 48750, Note_off_c, 6, 73, 64
8, 48786, Note_on_c, 6, 69, 59
8, 48837, Note_off_c, 6, 69, 64
8, 48916, Note_on_c, 6, 69, 85
8, 49020, Note_on_c, 6, 71, 59
8, 49037, Note_off_c, 6, 69, 64
8, 49094, Note_off_c, 6, 71, 64
8, 49143, Note_on_c, 6, 68, 63
8, 49191, Note_off_c, 6, 68, 64
8, 49281, Note_on_c, 6, 68, 72
8, 49422, Note_off_c, 6, 68, 64
8, 49523, Note_on_c, 6, 68, 51
8, 49582, Note_off_c, 6, 68, 64
8, 49645, Note_on_c, 6, 68, 57
8, 49767, Note_off_c, 6, 68, 64
8, 49881, Note_on_c, 6, 68, 55
8, 49932, Note_off_c, 6, 68, 64
8, 50003, Note_on_c, 6, 68, 68
8, 50122, Note_off_c, 6, 68, 64
8, 50232, Note_on_c, 6, 68, 57
8, 50282, Note_off_c, 6, 68, 64
8, 50363, Note_on_c, 6, 69, 72
8, 50446, Note_off_c, 6, 69, 64
8, 50480, Note_on_c, 6, 73, 63
8, 50550, Note_off_c, 6, 73, 64
8, 50583, Note_on_c, 6, 71, 60
8, 50655, Note_off_c, 6, 71, 64
8, 50720, Note_on_c, 6, 73, 89
8, 50822, Note_off_c, 6, 73, 64
8, 50955, Note_on_c, 6, 71, 48
8, 51006, Note_off_c, 6, 71, 64
8, 51083, Note_on_c, 6, 73, 66
8, 51166, Note_off_c, 6, 73, 64
8, 51314, Note_on_c, 6, 69, 76
8, 51357, Note_off_c, 6, 69, 64
8, 51465, Note_on_c, 6, 62, 82
8, 51557, Note_on_c, 6, 64, 57
8, 51577, Note_off_c, 6, 62, 64
8, 51630, Note_off_c, 6, 64, 64
8, 51680, Note_on_c, 6, 66, 66
8, 51735, Note_off_c, 6, 66, 64
8, 51814, Note_on_c, 6, 66, 89
8, 51914, Note_off_c, 6, 66, 64
8, 52048, Note_on_c, 6, 69, 66
8, 52116, Note_off_c, 6, 69, 64
8, 52178, Note_on_c, 6, 66, 82
8, 52250, Note_off_c, 6, 66, 64
8, 52421, Note_on_c, 6, 62, 63
8, 52489, Note_off_c, 6, 62, 64
8, 52547, Note_on_c, 6, 67, 82
8, 52655, Note_off_c, 6, 67, 64
8, 52781, Note_on_c, 6, 71, 66
8, 52831, Note_off_c, 6, 71, 64
8, 52910, Note_on_c, 6, 67, 87
8, 53018, Note_on_c, 6, 69, 68
8, 53040, Note_off_c, 6, 67, 64
8, 53119, Note_off_c, 6, 69, 64
8, 53128, Note_on_c, 6, 71, 60
8, 53207, Note_off_c, 6, 71, 64
8, 53274, Note_on_c, 6, 64, 68
8, 53394, Note_off_c, 6, 64, 64
8, 53504, Note_on_c, 6, 64, 64
8, 53565, Note_off_c, 6, 64, 64
8, 53637, Note_on_c, 6, 64, 80
8, 53866, Note_off_c, 6, 64, 64
8, 54217, Note_on_c, 6, 69, 68
8, 54276, Note_off_c, 6, 69, 64
8, 54347, Note_on_c, 6, 64, 70
8, 54456, Note_off_c, 6, 64, 64
8, 54576, Note_on_c, 6, 69, 68
8, 54627, Note_off_c, 6, 69, 64
8, 54694, Note_on_c, 6, 62, 78
8, 54800, Note_on_c, 6, 66, 64
8, 54806, Note_off_c, 6, 62, 64
8, 54870, Note_off_c, 6, 66, 64
8, 54921, Note_on_c, 6, 67, 72
8, 54987, Note_off_c, 6, 67, 64
8, 55045, Note_on_c, 6, 69, 82
8, 55164, Note_off_c, 6, 69, 64
8, 55274, Note_on_c, 6, 73, 58
8, 55331, Note_off_c, 6, 73, 64
8, 55391, Note_on_c, 6, 64, 78
8, 55502, Note_off_c, 6, 64, 64
8, 55614, Note_on_c, 6, 66, 59
8, 55671, Note_off_c, 6, 66, 64
8, 55748, Note_on_c, 6, 66, 82
8, 55893, Note_off_c, 6, 66, 64
8, 55980, Note_on_c, 6, 66, 68
8, 56046, Note_off_c, 6, 66, 64
8, 56102, Note_on_c, 6, 62, 80
8, 56215, Note_on_c, 6, 64, 68
8, 56235, Note_off_c, 6, 62, 64
8, 56327, Note_off_c, 6, 64, 64
8, 56327, Note_on_c, 6, 66, 78
8, 56377, Note_off_c, 6, 66, 64
8, 56481, Note_on_c, 6, 66, 78
8, 56582, Note_off_c, 6, 66, 64
8, 56697, Note_on_c, 6, 71, 70
8, 56764, Note_off_c, 6, 71, 64
8, 56838, Note_on_c, 6, 71, 74
8, 57000, Note_off_c, 6, 71, 64
8, 57466, Note_on_c, 6, 64, 53
8, 57513, Note_off_c, 6, 64, 64
8, 57569, Note_on_c, 6, 64, 72
8, 57695, Note_off_c, 6, 64, 64
8, 57812, Note_on_c, 6, 64, 56
8, 57864, Note_off_c, 6, 64, 64
8, 57923, Note_on_c, 6, 64, 78
8, 58074, Note_off_c, 6, 64, 64
8, 58518, Note_on_c, 6, 62, 45
8, 58559, Note_off_c, 6, 62, 64
8, 58632, Note_on_c, 6, 62, 64
8, 58773, Note_off_c, 6, 62, 64
8, 58870, Note_on_c, 6, 62, 62
8, 58924, Note_off_c, 6, 62, 64
8, 58991, Note_on_c, 6, 62, 61
8, 59135, Note_off_c, 6, 62, 64
8, 59374, Note_on_c, 6, 64, 78
8, 59511, Note_off_c, 6, 64, 64
8, 59752, Note_on_c, 6, 66, 64
8, 59896, Note_off_c, 6, 66, 64
8, 60116, Note_on_c, 6, 71, 82
8, 60240, Note_off_c, 6, 71, 64
8, 60456, Note_on_c, 6, 71, 82
8, 60602, Note_off_c, 6, 71, 64
8, 60816, Note_on_c, 6, 68, 63
8, 60930, Note_off_c, 6, 68, 64
8, 61172, Note_on_c, 6, 64, 68
8, 61291, Note_off_c, 6, 64, 64
8, 61541, Note_on_c, 6, 76, 87
8, 61680, Note_off_c, 6, 76, 64
8, 61896, Note_on_c, 6, 73, 60
8, 62034, Note_off_c, 6, 73, 64
8, 62254, Note_on_c, 6, 69, 74
8, 62376, Note_off_c, 6, 69, 64
8, 62610, Note_on_c, 6, 69, 74
8, 62744, Note_off_c, 6, 69, 64
8, 62979, Note_on_c, 6, 66, 63
8, 63111, Note_off_c, 6, 66, 64
8, 63334, Note_on_c, 6, 62, 55
8, 63510, Note_off_c, 6, 62, 64
8, 63923, Note_on_c, 6, 67, 68
8, 63996, Note_off_c, 6, 67, 64
8, 64054, Note_on_c, 6, 69, 78
8, 64169, Note_off_c, 6, 69, 64
8, 64301, Note_on_c, 6, 64, 58
8, 64371, Note_off_c, 6, 64, 64
8, 64425, Note_on_c, 6, 69, 80
8, 64563, Note_off_c, 6, 69, 64
8, 65001, Note_on_c, 6, 69, 68
8, 65073, Note_off_c, 6, 69, 64
8, 65125, Note_on_c, 6, 71, 72
8, 65246, Note_off_c, 6, 71, 64
8, 65364, Note_on_c, 6, 66, 57
8, 65438, Note_off_c, 6, 66, 64
8, 65499, Note_on_c, 6, 71, 78
8, 65633, Note_off_c, 6, 71, 64
8, 66101, Note_on_c, 6, 64, 68
8, 66176, Note_off_c, 6, 64, 64
8, 66232, Note_on_c, 6, 69, 89
8, 66340, Note_off_c, 6, 69, 64
8, 66455, Note_on_c, 6, 71, 64
8, 66511, Note_off_c, 6, 71, 64
8, 66565, Note_on_c, 6, 71, 72
8, 66706, Note_off_c, 6, 71, 64
8, 66813, Note_on_c, 6, 71, 60
8, 66866, Note_off_c, 6, 71, 64
8, 66927, Note_on_c, 6, 71, 64
8, 67060, Note_off_c, 6, 71, 64
8, 67159, Note_on_c, 6, 71, 60
8, 67222, Note_off_c, 6, 71, 64
8, 67283, Note_on_c, 6, 71, 60
8, 67430, Note_off_c, 6, 71, 64
8, 67528, Note_on_c, 6, 71, 60
8, 67580, Note_off_c, 6, 71, 64
8, 67659, Note_on_c, 6, 69, 72
8, 67794, Note_off_c, 6, 69, 64
8, 67897, Note_on_c, 6, 69, 60
8, 67951, Note_off_c, 6, 69, 64
8, 68025, Note_on_c, 6, 69, 66
8, 68154, Note_off_c, 6, 69, 64
8, 68259, Note_on_c, 6, 69, 58
8, 68313, Note_off_c, 6, 69, 64
8, 68365, Note_on_c, 6, 69, 66
8, 68514, Note_off_c, 6, 69, 64
8, 68612, Note_on_c, 6, 69, 54
8, 68666, Note_off_c, 6, 69, 64
8, 68732, Note_on_c, 6, 69, 64
8, 68853, Note_off_c, 6, 69, 64
8, 68961, Note_on_c, 6, 69, 61
8, 69024, Note_off_c, 6, 69, 64
8, 69089, Note_on_c, 6, 69, 64
8, 69207, Note_off_c, 6, 69, 64
8, 69315, Note_on_c, 6, 67, 63
8, 69389, Note_off_c, 6, 67, 64
8, 69452, Note_on_c, 6, 64, 62
8, 69584, Note_off_c, 6, 64, 64
8, 69684, Note_on_c, 6, 64, 63
8, 69753, Note_off_c, 6, 64, 64
8, 69819, Note_on_c, 6, 66, 66
8, 69949, Note_off_c, 6, 66, 64
8, 70062, Note_on_c, 6, 66, 66
8, 70115, Note_off_c, 6, 66, 64
8, 70212, Note_on_c, 6, 66, 102
8, 70309, Note_on_c, 6, 67, 66
8, 70330, Note_off_c, 6, 66, 64
8, 70372, Note_off_c, 6, 67, 64
8, 70431, Note_on_c, 6, 64, 64
8, 70482, Note_off_c, 6, 64, 64
8, 70565, Note_on_c, 6, 64, 78
8, 70669, Note_off_c, 6, 64, 64
8, 70676, Note_on_c, 6, 66, 60
8, 70739, Note_off_c, 6, 66, 64
8, 70782, Note_on_c, 6, 62, 62
8, 70838, Note_off_c, 6, 62, 64
8, 70914, Note_on_c, 6, 62, 78
8, 71020, Note_on_c, 6, 64, 63
8, 71042, Note_off_c, 6, 62, 64
8, 71083, Note_off_c, 6, 64, 64
8, 71141, Note_on_c, 6, 66, 59
8, 71186, Note_off_c, 6, 66, 64
8, 71265, Note_on_c, 6, 66, 85
8, 71358, Note_on_c, 6, 67, 68
8, 71384, Note_off_c, 6, 66, 64
8, 71430, Note_off_c, 6, 67, 64
8, 71481, Note_on_c, 6, 64, 64
8, 71529, Note_off_c, 6, 64, 64
8, 71610, Note_on_c, 6, 64, 80
8, 71706, Note_off_c, 6, 64, 64
8, 71720, Note_on_c, 6, 66, 56
8, 71792, Note_off_c, 6, 66, 64
8, 71837, Note_on_c, 6, 62, 58
8, 71895, Note_off_c, 6, 62, 64
8, 71970, Note_on_c, 6, 62, 78
8, 72102, Note_off_c, 6, 62, 64
8, 72343, Note_on_c, 6, 64, 82
8, 72465, Note_off_c, 6, 64, 64
8, 72690, Note_on_c, 6, 66, 68
8, 72837, Note_off_c, 6, 66, 64
8, 92868, Note_on_c, 6, 64, 68
8, 92976, Note_off_c, 6, 64, 64
8, 93228, Note_on_c, 6, 71, 66
8, 93363, Note_off_c, 6, 71, 64
8, 93596, Note_on_c, 6, 73, 66
8, 93722, Note_off_c, 6, 73, 64
8, 93956, Note_on_c, 6, 76, 80
8, 94076, Note_off_c, 6, 76, 64
8, 94314, Note_on_c, 6, 64, 78
8, 94440, Note_off_c, 6, 64, 64
8, 94640, Note_on_c, 6, 64, 82
8, 94757, Note_on_c, 6, 68, 66
8, 94762, Note_off_c, 6, 64, 64
8, 94865, Note_on_c, 6, 66, 64
8, 94868, Note_off_c, 6, 68, 64
8, 94933, Note_off_c, 6, 66, 64
8, 95000, Note_on_c, 6, 68, 78
8, 95124, Note_off_c, 6, 68, 64
8, 95234, Note_on_c, 6, 66, 59
8, 95309, Note_off_c, 6, 66, 64
8, 95363, Note_on_c, 6, 68, 89
8, 95478, Note_off_c, 6, 68, 64
8, 95619, Note_on_c, 6, 64, 66
8, 95682, Note_off_c, 6, 64, 64
8, 95745, Note_on_c, 6, 69, 80
8, 95851, Note_off_c, 6, 69, 64
8, 95975, Note_on_c, 6, 76, 78
8, 96044, Note_off_c, 6, 76, 64
8, 96103, Note_on_c, 6, 73, 85
8, 96222, Note_off_c, 6, 73, 64
8, 96326, Note_on_c, 6, 73, 64
8, 96409, Note_off_c, 6, 73, 64
8, 96450, Note_on_c, 6, 71, 74
8, 96535, Note_off_c, 6, 71, 64
8, 96687, Note_on_c, 6, 66, 63
8, 96753, Note_off_c, 6, 66, 64
8, 96812, Note_on_c, 6, 66, 76
8, 96944, Note_off_c, 6, 66, 64
8, 97044, Note_on_c, 6, 66, 66
8, 97118, Note_off_c, 6, 66, 64
8, 97170, Note_on_c, 6, 62, 80
8, 97275, Note_on_c, 6, 64, 70
8, 97295, Note_off_c, 6, 62, 64
8, 97380, Note_off_c, 6, 64, 64
8, 97392, Note_on_c, 6, 66, 63
8, 97467, Note_off_c, 6, 66, 64
8, 97530, Note_on_c, 6, 71, 76
8, 97651, Note_off_c, 6, 71, 64
8, 97775, Note_on_c, 6, 71, 70
8, 97831, Note_off_c, 6, 71, 64
8, 97923, Note_on_c, 6, 71, 87
8, 98318, Note_off_c, 6, 71, 64
8, 98504, Note_on_c, 6, 64, 63
8, 98560, Note_off_c, 6, 64, 64
8, 98621, Note_on_c, 6, 71, 82
8, 98758, Note_off_c, 6, 71, 64
8, 98846, Note_on_c, 6, 71, 66
8, 98911, Note_off_c, 6, 71, 64
8, 98981, Note_on_c, 6, 69, 76
8, 99089, Note_off_c, 6, 69, 64
8, 99095, Note_on_c, 6, 73, 60
8, 99186, Note_off_c, 6, 73, 64
8, 99201, Note_on_c, 6, 71, 70
8, 99257, Note_off_c, 6, 71, 64
8, 99330, Note_on_c, 6, 69, 85
8, 99440, Note_on_c, 6, 71, 63
8, 99455, Note_off_c, 6, 69, 64
8, 99498, Note_off_c, 6, 71, 64
8, 99567, Note_on_c, 6, 68, 87
8, 99618, Note_off_c, 6, 68, 64
8, 99692, Note_on_c, 6, 68, 89
8, 99793, Note_off_c, 6, 68, 64
8, 99797, Note_on_c, 6, 69, 63
8, 99870, Note_off_c, 6, 69, 64
8, 99919, Note_on_c, 6, 64, 68
8, 99982, Note_off_c, 6, 64, 64
8, 100045, Note_on_c, 6, 64, 62
8, 100180, Note_off_c, 6, 64, 64
8, 100283, Note_on_c, 6, 73, 61
8, 100353, Note_off_c, 6, 73, 64
8, 100401, Note_on_c, 6, 74, 82
8, 100518, Note_off_c, 6, 74, 64
8, 100648, Note_on_c, 6, 64, 68
8, 100718, Note_off_c, 6, 64, 64
8, 100788, Note_on_c, 6, 64, 87
8, 100900, Note_off_c, 6, 64, 64
8, 101026, Note_on_c, 6, 66, 59
8, 101085, Note_off_c, 6, 66, 64
8, 101153, Note_on_c, 6, 66, 78
8, 101525, Note_off_c, 6, 66, 64
8, 101718, Note_on_c, 6, 71, 74
8, 101811, Note_off_c, 6, 71, 64
8, 101853, Note_on_c, 6, 66, 80
8, 101940, Note_off_c, 6, 66, 64
8, 102057, Note_on_c, 6, 71, 68
8, 102128, Note_off_c, 6, 71, 64
8, 102200, Note_on_c, 6, 64, 66
8, 102619, Note_off_c, 6, 64, 64
8, 102795, Note_on_c, 6, 69, 70
8, 102884, Note_off_c, 6, 69, 64
8, 102923, Note_on_c, 6, 64, 80
8, 103056, Note_off_c, 6, 64, 64
8, 103150, Note_on_c, 6, 69, 72
8, 103240, Note_off_c, 6, 69, 64
8, 103290, Note_on_c, 6, 62, 78
8, 103427, Note_off_c, 6, 62, 64
8, 103523, Note_on_c, 6, 69, 74
8, 103616, Note_off_c, 6, 69, 64
8, 103668, Note_on_c, 6, 74, 80
8, 103823, Note_off_c, 6, 74, 64
8, 103899, Note_on_c, 6, 69, 68
8, 103964, Note_off_c, 6, 69, 64
8, 104019, Note_on_c, 6, 69, 70
8, 104142, Note_off_c, 6, 69, 64
8, 104241, Note_on_c, 6, 71, 68
8, 104311, Note_off_c, 6, 71, 64
8, 104378, Note_on_c, 6, 71, 74
8, 104507, Note_off_c, 6, 71, 64
8, 104743, Note_on_c, 6, 66, 74
8, 104869, Note_off_c, 6, 66, 64
8, 105096, Note_on_c, 6, 63, 78
8, 105225, Note_off_c, 6, 63, 64
8, 105451, Note_on_c, 6, 71, 82
8, 105594, Note_off_c, 6, 71, 64
8, 105807, Note_on_c, 6, 71, 78
8, 105953, Note_off_c, 6, 71, 64
8, 106158, Note_on_c, 6, 68, 76
8, 106293, Note_off_c, 6, 68, 64
8, 106520, Note_on_c, 6, 64, 68
8, 106656, Note_off_c, 6, 64, 64
8, 106896, Note_on_c, 6, 64, 85
8, 107027, Note_off_c, 6, 64, 64
8, 107265, Note_on_c, 6, 64, 70
8, 107391, Note_off_c, 6, 64, 64
8, 107614, Note_on_c, 6, 69, 85
8, 107798, Note_off_c, 6, 69, 64
8, 108151, Note_on_c, 6, 62, 68
8, 108248, Note_off_c, 6, 62, 64
8, 108286, Note_on_c, 6, 64, 82
8, 108401, Note_off_c, 6, 64, 64
8, 108530, Note_on_c, 6, 71, 78
8, 108601, Note_off_c, 6, 71, 64
8, 108660, Note_on_c, 6, 64, 78
8, 108932, Note_off_c, 6, 64, 64
8, 109250, Note_on_c, 6, 64, 66
8, 109333, Note_off_c, 6, 64, 64
8, 109380, Note_on_c, 6, 66, 78
8, 109499, Note_off_c, 6, 66, 64
8, 109637, Note_on_c, 6, 73, 72
8, 109704, Note_off_c, 6, 73, 64
8, 109763, Note_on_c, 6, 66, 68
8, 110048, Note_off_c, 6, 66, 64
8, 110348, Note_on_c, 6, 69, 70
8, 110426, Note_off_c, 6, 69, 64
8, 110474, Note_on_c, 6, 73, 68
8, 110584, Note_off_c, 6, 73, 64
8, 110723, Note_on_c, 6, 66, 66
8, 110793, Note_off_c, 6, 66, 64
8, 110861, Note_on_c, 6, 66, 68
8, 110984, Note_off_c, 6, 66, 64
8, 111075, Note_on_c, 6, 71, 72
8, 111151, Note_off_c, 6, 71, 64
8, 111205, Note_on_c, 6, 71, 82
8, 111336, Note_off_c, 6, 71, 64
8, 111441, Note_on_c, 6, 71, 63
8, 111509, Note_off_c, 6, 71, 64
8, 111569, Note_on_c, 6, 71, 82
8, 111696, Note_off_c, 6, 71, 64
8, 111794, Note_on_c, 6, 71, 72
8, 111860, Note_off_c, 6, 71, 64
8, 111930, Note_on_c, 6, 71, 82
8, 112044, Note_on_c, 6, 68, 70
8, 112064, Note_off_c, 6, 71, 64
8, 112134, Note_off_c, 6, 68, 64
8, 112160, Note_on_c, 6, 69, 78
8, 112222, Note_off_c, 6, 69, 64
8, 112294, Note_on_c, 6, 71, 91
8, 112393, Note_on_c, 6, 73, 61
8, 112416, Note_off_c, 6, 71, 64
8, 112503, Note_off_c, 6, 73, 64
8, 112515, Note_on_c, 6, 69, 61
8, 112566, Note_off_c, 6, 69, 64
8, 112645, Note_on_c, 6, 71, 91
8, 112755, Note_on_c, 6, 69, 62
8, 112798, Note_off_c, 6, 71, 64
8, 112863, Note_off_c, 6, 69, 64
8, 112872, Note_on_c, 6, 68, 70
8, 112944, Note_off_c, 6, 68, 64
8, 112991, Note_on_c, 6, 69, 78
8, 113130, Note_off_c, 6, 69, 64
8, 113234, Note_on_c, 6, 64, 64
8, 113295, Note_off_c, 6, 64, 64
8, 113356, Note_on_c, 6, 64, 80
8, 113491, Note_off_c, 6, 64, 64
8, 113597, Note_on_c, 6, 69, 74
8, 113666, Note_off_c, 6, 69, 64
8, 113725, Note_on_c, 6, 69, 80
8, 113833, Note_off_c, 6, 69, 64
8, 113966, Note_on_c, 6, 64, 74
8, 114020, Note_off_c, 6, 64, 64
8, 114099, Note_on_c, 6, 64, 82
8, 114504, Note_off_c, 6, 64, 64
8, 127306, Note_on_c, 6, 66, 57
8, 127362, Note_off_c, 6, 66, 64
8, 127430, Note_on_c, 6, 66, 59
8, 127560, Note_off_c, 6, 66, 64
8, 127643, Note_on_c, 6, 66, 53
8, 127716, Note_off_c, 6, 66, 64
8, 127769, Note_on_c, 6, 66, 63
8, 127931, Note_off_c, 6, 66, 64
8, 128008, Note_on_c, 6, 66, 57
8, 128073, Note_off_c, 6, 66, 64
8, 128141, Note_on_c, 6, 66, 68
8, 128321, Note_off_c, 6, 66, 64
8, 129437, Note_on_c, 6, 66, 60
8, 129497, Note_off_c, 6, 66, 64
8, 129569, Note_on_c, 6, 70, 82
8, 129680, Note_off_c, 6, 70, 64
8, 129792, Note_on_c, 6, 66, 58
8, 129848, Note_off_c, 6, 66, 64
8, 129932, Note_on_c, 6, 66, 63
8, 130058, Note_off_c, 6, 66, 64
8, 130158, Note_on_c, 6, 66, 58
8, 130220, Note_off_c, 6, 66, 64
8, 130299, Note_on_c, 6, 66, 66
8, 130415, Note_off_c, 6, 66, 64
8, 130517, Note_on_c, 6, 70, 64
8, 130586, Note_off_c, 6, 70, 64
8, 130650, Note_on_c, 6, 70, 80
8, 130755, Note_off_c, 6, 70, 64
8, 130866, Note_on_c, 6, 71, 66
8, 130937, Note_off_c, 6, 71, 64
8, 131009, Note_on_c, 6, 64, 80
8, 131144, Note_off_c, 6, 64, 64
8, 131225, Note_on_c, 6, 66, 60
8, 131289, Note_off_c, 6, 66, 64
8, 131358, Note_on_c, 6, 66, 64
8, 131505, Note_off_c, 6, 66, 64
8, 131725, Note_on_c, 6, 66, 68
8, 131864, Note_off_c, 6, 66, 64
8, 132092, Note_on_c, 6, 66, 64
8, 132200, Note_off_c, 6, 66, 64
8, 132456, Note_on_c, 6, 67, 82
8, 132562, Note_on_c, 6, 71, 80
8, 132578, Note_off_c, 6, 67, 64
8, 132680, Note_on_c, 6, 69, 70
8, 132692, Note_off_c, 6, 71, 64
8, 132762, Note_off_c, 6, 69, 64
8, 132800, Note_on_c, 6, 71, 82
8, 132913, Note_on_c, 6, 72, 70
8, 132929, Note_off_c, 6, 71, 64
8, 133007, Note_off_c, 6, 72, 64
8, 133037, Note_on_c, 6, 69, 70
8, 133089, Note_off_c, 6, 69, 64
8, 133154, Note_on_c, 6, 69, 82
8, 133262, Note_on_c, 6, 71, 60
8, 133284, Note_off_c, 6, 69, 64
8, 133340, Note_off_c, 6, 71, 64
8, 133392, Note_on_c, 6, 67, 74
8, 133440, Note_off_c, 6, 67, 64
8, 133527, Note_on_c, 6, 67, 87
8, 133700, Note_off_c, 6, 67, 64
8, 133759, Note_on_c, 6, 71, 72
8, 133824, Note_off_c, 6, 71, 64
8, 133890, Note_on_c, 6, 73, 80
8, 133998, Note_off_c, 6, 73, 64
8, 134115, Note_on_c, 6, 67, 76
8, 134178, Note_off_c, 6, 67, 64
8, 134265, Note_on_c, 6, 67, 78
8, 134393, Note_off_c, 6, 67, 64
8, 134488, Note_on_c, 6, 67, 70
8, 134567, Note_off_c, 6, 67, 64
8, 134643, Note_on_c, 6, 66, 68
8, 134749, Note_off_c, 6, 66, 64
8, 134751, Note_on_c, 6, 68, 64
8, 134820, Note_off_c, 6, 68, 64
8, 134859, Note_on_c, 6, 70, 72
8, 134923, Note_off_c, 6, 70, 64
8, 134992, Note_on_c, 6, 70, 89
8, 135105, Note_off_c, 6, 70, 64
8, 135212, Note_on_c, 6, 64, 68
8, 135289, Note_off_c, 6, 64, 64
8, 135348, Note_on_c, 6, 66, 68
8, 135492, Note_off_c, 6, 66, 64
8, 135582, Note_on_c, 6, 73, 61
8, 135660, Note_off_c, 6, 73, 64
8, 135707, Note_on_c, 6, 66, 70
8, 135831, Note_off_c, 6, 66, 64
8, 135944, Note_on_c, 6, 66, 68
8, 136014, Note_off_c, 6, 66, 64
8, 136074, Note_on_c, 6, 64, 82
8, 136191, Note_off_c, 6, 64, 64
8, 136290, Note_on_c, 6, 64, 76
8, 136353, Note_off_c, 6, 64, 64
8, 136422, Note_on_c, 6, 64, 82
8, 136556, Note_off_c, 6, 64, 64
8, 136650, Note_on_c, 6, 64, 60
8, 136711, Note_off_c, 6, 64, 64
8, 136781, Note_on_c, 6, 62, 85
8, 137036, Note_off_c, 6, 62, 64
8, 200522, Note_on_c, 6, 66, 63
8, 200607, Note_off_c, 6, 66, 64
8, 200704, Note_on_c, 6, 69, 82
8, 200742, Note_off_c, 6, 69, 64
8, 200766, Note_on_c, 6, 69, 91
8, 200840, Note_off_c, 6, 69, 64
8, 200936, Note_on_c, 6, 66, 70
8, 200979, Note_off_c, 6, 66, 64
8, 200999, Note_on_c, 6, 62, 78
8, 201465, Note_off_c, 6, 62, 64
8, 201620, Note_on_c, 6, 74, 82
8, 201657, Note_off_c, 6, 74, 64
8, 201688, Note_on_c, 6, 74, 82
8, 201760, Note_off_c, 6, 74, 64
8, 201894, Note_on_c, 6, 69, 68
8, 201930, Note_off_c, 6, 69, 64
8, 201961, Note_on_c, 6, 66, 63
8, 202447, Note_off_c, 6, 66, 64
8, 202615, Note_on_c, 6, 66, 63
8, 202649, Note_off_c, 6, 66, 64
8, 202676, Note_on_c, 6, 66, 85
8, 202758, Note_off_c, 6, 66, 64
8, 202852, Note_on_c, 6, 72, 80
8, 202892, Note_off_c, 6, 72, 64
8, 202917, Note_on_c, 6, 71, 68
8, 203177, Note_off_c, 6, 71, 64
8, 203347, Note_on_c, 6, 71, 70
8, 203377, Note_off_c, 6, 71, 64
8, 203408, Note_on_c, 6, 71, 78
8, 204357, Note_off_c, 6, 71, 64
8, 204490, Note_on_c, 6, 79, 72
8, 204535, Note_off_c, 6, 79, 64
8, 204547, Note_on_c, 6, 78, 66
8, 204582, Note_off_c, 6, 78, 64
8, 204597, Note_on_c, 6, 76, 66
8, 204656, Note_off_c, 6, 76, 64
8, 204656, Note_on_c, 6, 74, 72
8, 204704, Note_off_c, 6, 74, 64
8, 204715, Note_on_c, 6, 73, 60
8, 204767, Note_off_c, 6, 73, 64
8, 204771, Note_on_c, 6, 71, 59
8, 204818, Note_off_c, 6, 71, 64
8, 204829, Note_on_c, 6, 69, 66
8, 204893, Note_on_c, 6, 71, 70
8, 204900, Note_off_c, 6, 69, 64
8, 204945, Note_off_c, 6, 71, 64
8, 204948, Note_on_c, 6, 73, 56
8, 204993, Note_off_c, 6, 73, 64
8, 205005, Note_on_c, 6, 74, 78
8, 205040, Note_off_c, 6, 74, 64
8, 205069, Note_on_c, 6, 76, 76
8, 205119, Note_off_c, 6, 76, 64
8, 205127, Note_on_c, 6, 74, 64
8, 205174, Note_off_c, 6, 74, 64
8, 205184, Note_on_c, 6, 76, 68
8, 205236, Note_off_c, 6, 76, 64
8, 205236, Note_on_c, 6, 73, 64
8, 205280, Note_off_c, 6, 73, 64
8, 205301, Note_on_c, 6, 74, 80
8, 205394, Note_off_c, 6, 74, 64
8, 205478, Note_on_c, 6, 66, 82
8, 205514, Note_off_c, 6, 66, 64
8, 205541, Note_on_c, 6, 66, 82
8, 205632, Note_off_c, 6, 66, 64
8, 205722, Note_on_c, 6, 69, 70
8, 205771, Note_off_c, 6, 69, 64
8, 205786, Note_on_c, 6, 74, 82
8, 206285, Note_off_c, 6, 74, 64
8, 206459, Note_on_c, 6, 74, 78
8, 206495, Note_off_c, 6, 74, 64
8, 206521, Note_on_c, 6, 74, 82
8, 206597, Note_off_c, 6, 74, 64
8, 206677, Note_on_c, 6, 72, 76
8, 206729, Note_off_c, 6, 72, 64
8, 206744, Note_on_c, 6, 71, 85
8, 207250, Note_off_c, 6, 71, 64
8, 207416, Note_on_c, 6, 73, 70
8, 207452, Note_off_c, 6, 73, 64
8, 207476, Note_on_c, 6, 73, 91
8, 207551, Note_off_c, 6, 73, 64
8, 207652, Note_on_c, 6, 69, 85
8, 207689, Note_off_c, 6, 69, 64
8, 207709, Note_on_c, 6, 62, 66
8, 207958, Note_off_c, 6, 62, 64
8, 208108, Note_on_c, 6, 69, 70
8, 208147, Note_off_c, 6, 69, 64
8, 208174, Note_on_c, 6, 71, 76
8, 208518, Note_off_c, 6, 71, 64
8, 208606, Note_on_c, 6, 71, 76
8, 208650, Note_off_c, 6, 71, 64
8, 208675, Note_on_c, 6, 69, 82
8, 208760, Note_off_c, 6, 69, 64
8, 208918, Note_on_c, 6, 64, 80
8, 209001, Note_off_c, 6, 64, 64
8, 209151, Note_on_c, 6, 62, 66
8, 209656, Note_off_c, 6, 62, 64
8, 209813, Note_on_c, 6, 62, 78
8, 209851, Note_off_c, 6, 62, 64
8, 209881, Note_on_c, 6, 62, 82
8, 209966, Note_off_c, 6, 62, 64
8, 210051, Note_on_c, 6, 64, 66
8, 210087, Note_off_c, 6, 64, 64
8, 210117, Note_on_c, 6, 64, 80
8, 210440, Note_off_c, 6, 64, 64
8, 210520, Note_on_c, 6, 67, 74
8, 210568, Note_off_c, 6, 67, 64
8, 210584, Note_on_c, 6, 66, 66
8, 210686, Note_off_c, 6, 66, 64
8, 210830, Note_on_c, 6, 66, 70
8, 210922, Note_off_c, 6, 66, 64
8, 211072, Note_on_c, 6, 66, 66
8, 211158, Note_off_c, 6, 66, 64
8, 211253, Note_on_c, 6, 71, 82
8, 211288, Note_off_c, 6, 71, 64
8, 211313, Note_on_c, 6, 71, 89
8, 211382, Note_off_c, 6, 71, 64
8, 211488, Note_on_c, 6, 66, 61
8, 211536, Note_off_c, 6, 66, 64
8, 211555, Note_on_c, 6, 62, 76
8, 212047, Note_off_c, 6, 62, 64
8, 212202, Note_on_c, 6, 64, 76
8, 212247, Note_off_c, 6, 64, 64
8, 212261, Note_on_c, 6, 62, 85
8, 212333, Note_off_c, 6, 62, 64
8, 212437, Note_on_c, 6, 67, 74
8, 212479, Note_off_c, 6, 67, 64
8, 212504, Note_on_c, 6, 66, 72
8, 212578, Note_off_c, 6, 66, 64
8, 212683, Note_on_c, 6, 62, 68
8, 212729, Note_off_c, 6, 62, 64
8, 212752, Note_on_c, 6, 67, 87
8, 212848, Note_off_c, 6, 67, 64
8, 212945, Note_on_c, 6, 69, 72
8, 212983, Note_off_c, 6, 69, 64
8, 213009, Note_on_c, 6, 69, 85
8, 213488, Note_off_c, 6, 69, 64
8, 213650, Note_on_c, 6, 64, 70
8, 213704, Note_off_c, 6, 64, 64
8, 213719, Note_on_c, 6, 67, 85
8, 213788, Note_off_c, 6, 67, 64
8, 213902, Note_on_c, 6, 73, 68
8, 213954, Note_off_c, 6, 73, 64
8, 213992, Note_on_c, 6, 69, 82
8, 214455, Note_off_c, 6, 69, 64
8, 214604, Note_on_c, 6, 66, 85
8, 214657, Note_off_c, 6, 66, 64
8, 214673, Note_on_c, 6, 69, 89
8, 214745, Note_off_c, 6, 69, 64
8, 214844, Note_on_c, 6, 74, 82
8, 214887, Note_off_c, 6, 74, 64
8, 214911, Note_on_c, 6, 73, 63
8, 215417, Note_off_c, 6, 73, 64
8, 215571, Note_on_c, 6, 67, 68
8, 215614, Note_off_c, 6, 67, 64
8, 215636, Note_on_c, 6, 73, 68
8, 215712, Note_off_c, 6, 73, 64
8, 215807, Note_on_c, 6, 76, 80
8, 215863, Note_off_c, 6, 76, 64
8, 215875, Note_on_c, 6, 74, 74
8, 216130, Note_off_c, 6, 74, 64
8, 216296, Note_on_c, 6, 74, 80
8, 216337, Note_off_c, 6, 74, 64
8, 216358, Note_on_c, 6, 71, 78
8, 216612, Note_off_c, 6, 71, 64
8, 216775, Note_on_c, 6, 73, 59
8, 216812, Note_off_c, 6, 73, 64
8, 216836, Note_on_c, 6, 69, 78
8, 217326, Note_off_c, 6, 69, 64
8, 217469, Note_on_c, 6, 62, 76
8, 217517, Note_off_c, 6, 62, 64
8, 217538, Note_on_c, 6, 69, 91
8, 217613, Note_off_c, 6, 69, 64
8, 217714, Note_on_c, 6, 74, 85
8, 217755, Note_off_c, 6, 74, 64
8, 217778, Note_on_c, 6, 74, 82
8, 217876, Note_off_c, 6, 74, 64
8, 217953, Note_on_c, 6, 72, 78
8, 217993, Note_off_c, 6, 72, 64
8, 218017, Note_on_c, 6, 71, 78
8, 218096, Note_off_c, 6, 71, 64
8, 218197, Note_on_c, 6, 67, 63
8, 218251, Note_off_c, 6, 67, 64
8, 218265, Note_on_c, 6, 66, 76
8, 218360, Note_off_c, 6, 66, 64
8, 218440, Note_on_c, 6, 66, 60
8, 218491, Note_off_c, 6, 66, 64
8, 218507, Note_on_c, 6, 71, 78
8, 218588, Note_off_c, 6, 71, 64
8, 218679, Note_on_c, 6, 67, 58
8, 218725, Note_off_c, 6, 67, 64
8, 218751, Note_on_c, 6, 69, 78
8, 218835, Note_off_c, 6, 69, 64
8, 218921, Note_on_c, 6, 69, 68
8, 218958, Note_off_c, 6, 69, 64
8, 218988, Note_on_c, 6, 69, 70
8, 219065, Note_off_c, 6, 69, 64
8, 219145, Note_on_c, 6, 67, 78
8, 219181, Note_off_c, 6, 67, 64
8, 219220, Note_on_c, 6, 66, 78
8, 219294, Note_on_c, 6, 64, 57
8, 219303, Note_off_c, 6, 66, 64
8, 219332, Note_off_c, 6, 64, 64
8, 219332, Note_on_c, 6, 66, 58
8, 219359, Note_off_c, 6, 66, 64
8, 219359, Note_on_c, 6, 64, 60
8, 219384, Note_on_c, 6, 66, 85
8, 219387, Note_off_c, 6, 64, 64
8, 219409, Note_off_c, 6, 66, 64
8, 219413, Note_on_c, 6, 64, 61
8, 219433, Note_off_c, 6, 64, 64
8, 219435, Note_on_c, 6, 66, 100
8, 219458, Note_on_c, 6, 64, 82
8, 219467, Note_off_c, 6, 66, 64
8, 219562, Note_off_c, 6, 64, 64
8, 219622, Note_on_c, 6, 66, 64
8, 219664, Note_off_c, 6, 66, 64
8, 219705, Note_on_c, 6, 66, 80
8, 220396, Note_off_c, 6, 66, 64
8, 247781, Note_on_c, 6, 67, 78
8, 247911, Note_off_c, 6, 67, 64
8, 248125, Note_on_c, 6, 66, 70
8, 248258, Note_off_c, 6, 66, 64
8, 248481, Note_on_c, 6, 68, 68
8, 248624, Note_off_c, 6, 68, 64
8, 248845, Note_on_c, 6, 69, 78
8, 248993, Note_off_c, 6, 69, 64
8, 249216, Note_on_c, 6, 68, 76
8, 249347, Note_off_c, 6, 68, 64
8, 249574, Note_on_c, 6, 70, 74
8, 249720, Note_off_c, 6, 70, 64
8, 249932, Note_on_c, 6, 71, 78
8, 250076, Note_off_c, 6, 71, 64
8, 250190, Note_on_c, 6, 71, 85
8, 250253, Note_off_c, 6, 71, 64
8, 250307, Note_on_c, 6, 71, 89
8, 250415, Note_on_c, 6, 73, 57
8, 250438, Note_off_c, 6, 71, 64
8, 250503, Note_off_c, 6, 73, 64
8, 250514, Note_on_c, 6, 69, 58
8, 250560, Note_off_c, 6, 69, 64
8, 250649, Note_on_c, 6, 69, 85
8, 250751, Note_on_c, 6, 71, 64
8, 250776, Note_off_c, 6, 69, 64
8, 250838, Note_off_c, 6, 71, 64
8, 250879, Note_on_c, 6, 68, 58
8, 250920, Note_off_c, 6, 68, 64
8, 251010, Note_on_c, 6, 68, 95
8, 251120, Note_on_c, 6, 69, 59
8, 251131, Note_off_c, 6, 68, 64
8, 251199, Note_off_c, 6, 69, 64
8, 251246, Note_on_c, 6, 71, 60
8, 251300, Note_off_c, 6, 71, 64
8, 251381, Note_on_c, 6, 73, 100
8, 251486, Note_on_c, 6, 74, 70
8, 251514, Note_off_c, 6, 73, 64
8, 251559, Note_off_c, 6, 74, 64
8, 251606, Note_on_c, 6, 71, 70
8, 251653, Note_off_c, 6, 71, 64
8, 251738, Note_on_c, 6, 71, 85
8, 251837, Note_on_c, 6, 73, 58
8, 251840, Note_off_c, 6, 71, 64
8, 251921, Note_off_c, 6, 73, 64
8, 251963, Note_on_c, 6, 70, 68
8, 252027, Note_off_c, 6, 70, 64
8, 252103, Note_on_c, 6, 70, 64
8, 252229, Note_off_c, 6, 70, 64
8, 252348, Note_on_c, 6, 70, 51
8, 252409, Note_off_c, 6, 70, 64
8, 252470, Note_on_c, 6, 70, 55
8, 252598, Note_off_c, 6, 70, 64
8, 252699, Note_on_c, 6, 70, 53
8, 252756, Note_off_c, 6, 70, 64
8, 252825, Note_on_c, 6, 70, 54
8, 252954, Note_off_c, 6, 70, 64
8, 253063, Note_on_c, 6, 70, 57
8, 253124, Note_off_c, 6, 70, 64
8, 253192, Note_on_c, 6, 69, 58
8, 253334, Note_off_c, 6, 69, 64
8, 253433, Note_on_c, 6, 69, 66
8, 253493, Note_off_c, 6, 69, 64
8, 253547, Note_on_c, 6, 69, 63
8, 253689, Note_off_c, 6, 69, 64
8, 253775, Note_on_c, 6, 69, 64
8, 253827, Note_off_c, 6, 69, 64
8, 253894, Note_on_c, 6, 69, 66
8, 254047, Note_off_c, 6, 69, 64
8, 254130, Note_on_c, 6, 69, 61
8, 254202, Note_off_c, 6, 69, 64
8, 254267, Note_on_c, 6, 68, 64
8, 254416, Note_off_c, 6, 68, 64
8, 254497, Note_on_c, 6, 68, 57
8, 254555, Note_off_c, 6, 68, 64
8, 254614, Note_on_c, 6, 68, 61
8, 254771, Note_off_c, 6, 68, 64
8, 254857, Note_on_c, 6, 68, 57
8, 254909, Note_off_c, 6, 68, 64
8, 254974, Note_on_c, 6, 68, 57
8, 255127, Note_off_c, 6, 68, 64
8, 255204, Note_on_c, 6, 68, 58
8, 255246, Note_off_c, 6, 68, 64
8, 255325, Note_on_c, 6, 67, 61
8, 255467, Note_off_c, 6, 67, 64
8, 255561, Note_on_c, 6, 67, 56
8, 255615, Note_off_c, 6, 67, 64
8, 255676, Note_on_c, 6, 67, 68
8, 255833, Note_off_c, 6, 67, 64
8, 255917, Note_on_c, 6, 67, 59
8, 255969, Note_off_c, 6, 67, 64
8, 256038, Note_on_c, 6, 67, 64
8, 256193, Note_off_c, 6, 67, 64
8, 256266, Note_on_c, 6, 67, 60
8, 256338, Note_off_c, 6, 67, 64
8, 256401, Note_on_c, 6, 66, 62
8, 256567, Note_off_c, 6, 66, 64
8, 256643, Note_on_c, 6, 66, 57
8, 256695, Note_off_c, 6, 66, 64
8, 256761, Note_on_c, 6, 66, 70
8, 256924, Note_off_c, 6, 66, 64
8, 257003, Note_on_c, 6, 66, 61
8, 257060, Note_off_c, 6, 66, 64
8, 257130, Note_on_c, 6, 66, 63
8, 257283, Note_off_c, 6, 66, 64
8, 257368, Note_on_c, 6, 66, 55
8, 257422, Note_off_c, 6, 66, 64
8, 257489, Note_on_c, 6, 65, 60
8, 257658, Note_off_c, 6, 65, 64
8, 257721, Note_on_c, 6, 65, 59
8, 257782, Note_off_c, 6, 65, 64
8, 257843, Note_on_c, 6, 65, 58
8, 257982, Note_off_c, 6, 65, 64
8, 258066, Note_on_c, 6, 65, 58
8, 258124, Note_off_c, 6, 65, 64
8, 258201, Note_on_c, 6, 65, 57
8, 258327, Note_off_c, 6, 65, 64
8, 258441, Note_on_c, 6, 65, 59
8, 258509, Note_off_c, 6, 65, 64
8, 258576, Note_on_c, 6, 64, 60
8, 258729, Note_off_c, 6, 64, 64
8, 258797, Note_on_c, 6, 64, 62
8, 258864, Note_off_c, 6, 64, 64
8, 258927, Note_on_c, 6, 64, 66
8, 259089, Note_off_c, 6, 64, 64
8, 259154, Note_on_c, 6, 64, 59
8, 259209, Note_off_c, 6, 64, 64
8, 259274, Note_on_c, 6, 64, 61
8, 259424, Note_off_c, 6, 64, 64
8, 259501, Note_on_c, 6, 64, 57
8, 259580, Note_off_c, 6, 64, 64
8, 259640, Note_on_c, 6, 63, 66
8, 259793, Note_off_c, 6, 63, 64
8, 259865, Note_on_c, 6, 63, 53
8, 259926, Note_off_c, 6, 63, 64
8, 259985, Note_on_c, 6, 63, 57
8, 260138, Note_off_c, 6, 63, 64
8, 260214, Note_on_c, 6, 63, 49
8, 260280, Note_off_c, 6, 63, 64
8, 260347, Note_on_c, 6, 63, 57
8, 260487, Note_off_c, 6, 63, 64
8, 260561, Note_on_c, 6, 63, 51
8, 260628, Note_off_c, 6, 63, 64
8, 260700, Note_on_c, 6, 62, 62
8, 260883, Note_off_c, 6, 62, 64
8, 260957, Note_on_c, 6, 62, 58
8, 261031, Note_off_c, 6, 62, 64
8, 261090, Note_on_c, 6, 62, 64
8, 261256, Note_off_c, 6, 62, 64
8, 261323, Note_on_c, 6, 62, 64
8, 261389, Note_off_c, 6, 62, 64
8, 261450, Note_on_c, 6, 62, 68
8, 261609, Note_off_c, 6, 62, 64
8, 261686, Note_on_c, 6, 62, 68
8, 261762, Note_off_c, 6, 62, 64
8, 261823, Note_on_c, 6, 60, 80
8, 261906, Note_off_c, 6, 60, 64
8, 261918, Note_on_c, 6, 65, 68
8, 261992, Note_off_c, 6, 65, 64
8, 262040, Note_on_c, 6, 64, 64
8, 262095, Note_off_c, 6, 64, 64
8, 262170, Note_on_c, 6, 64, 82
8, 262271, Note_on_c, 6, 65, 60
8, 262302, Note_off_c, 6, 64, 64
8, 262350, Note_off_c, 6, 65, 64
8, 262390, Note_on_c, 6, 62, 64
8, 262448, Note_off_c, 6, 62, 64
8, 262525, Note_on_c, 6, 62, 78
8, 262635, Note_on_c, 6, 64, 64
8, 262637, Note_off_c, 6, 62, 64
8, 262709, Note_off_c, 6, 64, 64
8, 262766, Note_on_c, 6, 60, 55
8, 262817, Note_off_c, 6, 60, 64
8, 262892, Note_on_c, 6, 60, 82
8, 263004, Note_on_c, 6, 62, 80
8, 263027, Note_off_c, 6, 60, 64
8, 263128, Note_off_c, 6, 62, 64
8, 263128, Note_on_c, 6, 64, 76
8, 263189, Note_off_c, 6, 64, 64
8, 263258, Note_on_c, 6, 65, 85
8, 263367, Note_on_c, 6, 67, 63
8, 263389, Note_off_c, 6, 65, 64
8, 263459, Note_off_c, 6, 67, 64
8, 263481, Note_on_c, 6, 64, 60
8, 263537, Note_off_c, 6, 64, 64
8, 263600, Note_on_c, 6, 64, 63
8, 263715, Note_on_c, 6, 65, 60
8, 263733, Note_off_c, 6, 64, 64
8, 263803, Note_off_c, 6, 65, 64
8, 263843, Note_on_c, 6, 63, 63
8, 263904, Note_off_c, 6, 63, 64
8, 263970, Note_on_c, 6, 63, 64
8, 264219, Note_off_c, 6, 63, 64
8, 265302, Note_on_c, 6, 68, 58
8, 265356, Note_off_c, 6, 68, 64
8, 265423, Note_on_c, 6, 68, 74
8, 265554, Note_off_c, 6, 68, 64
8, 265653, Note_on_c, 6, 68, 58
8, 265704, Note_off_c, 6, 68, 64
8, 265783, Note_on_c, 6, 68, 68
8, 265920, Note_off_c, 6, 68, 64
8, 266015, Note_on_c, 6, 68, 59
8, 266067, Note_off_c, 6, 68, 64
8, 266141, Note_on_c, 6, 69, 74
8, 266222, Note_off_c, 6, 69, 64
8, 266253, Note_on_c, 6, 73, 63
8, 266310, Note_off_c, 6, 73, 64
8, 266370, Note_on_c, 6, 71, 72
8, 266435, Note_off_c, 6, 71, 64
8, 266499, Note_on_c, 6, 69, 80
8, 266616, Note_off_c, 6, 69, 64
8, 266719, Note_on_c, 6, 69, 78
8, 266771, Note_off_c, 6, 69, 64
8, 266858, Note_on_c, 6, 64, 64
8, 266994, Note_off_c, 6, 64, 64
8, 267093, Note_on_c, 6, 64, 64
8, 267155, Note_off_c, 6, 64, 64
8, 267219, Note_on_c, 6, 64, 68
8, 267403, Note_off_c, 6, 64, 64
8, 290119, Note_on_c, 6, 64, 66
8, 290184, Note_off_c, 6, 64, 64
8, 290258, Note_on_c, 6, 64, 80
8, 290393, Note_off_c, 6, 64, 64
8, 290490, Note_on_c, 6, 68, 58
8, 290538, Note_off_c, 6, 68, 64
8, 290625, Note_on_c, 6, 68, 82
8, 290774, Note_off_c, 6, 68, 64
8, 290848, Note_on_c, 6, 69, 62
8, 290901, Note_off_c, 6, 69, 64
8, 290990, Note_on_c, 6, 69, 68
8, 291177, Note_off_c, 6, 69, 64
8, 292301, Note_on_c, 6, 69, 57
8, 292349, Note_off_c, 6, 69, 64
8, 292421, Note_on_c, 6, 69, 68
8, 292563, Note_off_c, 6, 69, 64
8, 292655, Note_on_c, 6, 69, 62
8, 292711, Note_off_c, 6, 69, 64
8, 292785, Note_on_c, 6, 69, 76
8, 292923, Note_off_c, 6, 69, 64
8, 293008, Note_on_c, 6, 69, 72
8, 293064, Note_off_c, 6, 69, 64
8, 293132, Note_on_c, 6, 69, 85
8, 293273, Note_off_c, 6, 69, 64
8, 293368, Note_on_c, 6, 66, 66
8, 293418, Note_off_c, 6, 66, 64
8, 293501, Note_on_c, 6, 66, 89
8, 293620, Note_on_c, 6, 69, 66
8, 293638, Note_off_c, 6, 66, 64
8, 293692, Note_off_c, 6, 69, 64
8, 293739, Note_on_c, 6, 67, 60
8, 293782, Note_off_c, 6, 67, 64
8, 293872, Note_on_c, 6, 67, 95
8, 293975, Note_on_c, 6, 71, 70
8, 293987, Note_off_c, 6, 67, 64
8, 294052, Note_off_c, 6, 71, 64
8, 294088, Note_on_c, 6, 69, 66
8, 294138, Note_off_c, 6, 69, 64
8, 294228, Note_on_c, 6, 69, 82
8, 294417, Note_off_c, 6, 69, 64
8, 295532, Note_on_c, 6, 62, 52
8, 295582, Note_off_c, 6, 62, 64
8, 295652, Note_on_c, 6, 62, 66
8, 295805, Note_off_c, 6, 62, 64
8, 295885, Note_on_c, 6, 62, 60
8, 295937, Note_off_c, 6, 62, 64
8, 296001, Note_on_c, 6, 62, 66
8, 296156, Note_off_c, 6, 62, 64
8, 296239, Note_on_c, 6, 62, 58
8, 296295, Note_off_c, 6, 62, 64
8, 296379, Note_on_c, 6, 62, 68
8, 296532, Note_off_c, 6, 62, 64
8, 296608, Note_on_c, 6, 62, 60
8, 296675, Note_off_c, 6, 62, 64
8, 296738, Note_on_c, 6, 62, 64
8, 296898, Note_off_c, 6, 62, 64
8, 296982, Note_on_c, 6, 62, 68
8, 297044, Note_off_c, 6, 62, 64
8, 297112, Note_on_c, 6, 62, 78
8, 297263, Note_off_c, 6, 62, 64
8, 297337, Note_on_c, 6, 62, 82
8, 297409, Note_off_c, 6, 62, 64
8, 297470, Note_on_c, 6, 62, 76
8, 297599, Note_off_c, 6, 62, 64
8, 297697, Note_on_c, 6, 60, 82
8, 297765, Note_off_c, 6, 60, 64
8, 297825, Note_on_c, 6, 62, 82
8, 297974, Note_off_c, 6, 62, 64
8, 298041, Note_on_c, 6, 66, 63
8, 298104, Note_off_c, 6, 66, 64
8, 298170, Note_on_c, 6, 66, 80
8, 298298, Note_off_c, 6, 66, 64
8, 298404, Note_on_c, 6, 71, 78
8, 298473, Note_off_c, 6, 71, 64
8, 298536, Note_on_c, 6, 71, 82
8, 298664, Note_off_c, 6, 71, 64
8, 298772, Note_on_c, 6, 64, 64
8, 298842, Note_off_c, 6, 64, 64
8, 298901, Note_on_c, 6, 64, 82
8, 299050, Note_off_c, 6, 64, 64
8, 299132, Note_on_c, 6, 67, 72
8, 299195, Note_off_c, 6, 67, 64
8, 299265, Note_on_c, 6, 67, 76
8, 299398, Note_off_c, 6, 67, 64
8, 299495, Note_on_c, 6, 73, 61
8, 299565, Note_off_c, 6, 73, 64
8, 299621, Note_on_c, 6, 73, 89
8, 299771, Note_off_c, 6, 73, 64
8, 299855, Note_on_c, 6, 66, 57
8, 299922, Note_off_c, 6, 66, 64
8, 299987, Note_on_c, 6, 66, 72
8, 300125, Note_off_c, 6, 66, 64
8, 300215, Note_on_c, 6, 69, 80
8, 300276, Note_off_c, 6, 69, 64
8, 300336, Note_on_c, 6, 69, 76
8, 300494, Note_off_c, 6, 69, 64
8, 300563, Note_on_c, 6, 74, 76
8, 300629, Note_off_c, 6, 74, 64
8, 300692, Note_on_c, 6, 74, 87
8, 300851, Note_off_c, 6, 74, 64
8, 300944, Note_on_c, 6, 68, 62
8, 301014, Note_off_c, 6, 68, 64
8, 301079, Note_on_c, 6, 68, 80
8, 301211, Note_off_c, 6, 68, 64
8, 301302, Note_on_c, 6, 71, 68
8, 301376, Note_off_c, 6, 71, 64
8, 301434, Note_on_c, 6, 71, 78
8, 301572, Note_off_c, 6, 71, 64
8, 301661, Note_on_c, 6, 76, 80
8, 301726, Note_off_c, 6, 76, 64
8, 301799, Note_on_c, 6, 76, 93
8, 301967, Note_off_c, 6, 76, 64
8, 314396, Note_on_c, 6, 71, 70
8, 314547, Note_off_c, 6, 71, 64
8, 315454, Note_on_c, 6, 67, 68
8, 315638, Note_off_c, 6, 67, 64
8, 316046, Note_on_c, 6, 69, 63
8, 316102, Note_off_c, 6, 69, 64
8, 316187, Note_on_c, 6, 69, 89
8, 316278, Note_on_c, 6, 71, 70
8, 316314, Note_off_c, 6, 69, 64
8, 316361, Note_off_c, 6, 71, 64
8, 316404, Note_on_c, 6, 67, 56
8, 316444, Note_off_c, 6, 67, 64
8, 316548, Note_on_c, 6, 67, 87
8, 316647, Note_on_c, 6, 69, 63
8, 316671, Note_off_c, 6, 67, 64
8, 316730, Note_off_c, 6, 69, 64
8, 316764, Note_on_c, 6, 66, 57
8, 316806, Note_off_c, 6, 66, 64
8, 316912, Note_on_c, 6, 66, 76
8, 317096, Note_off_c, 6, 66, 64
8, 317506, Note_on_c, 6, 71, 58
8, 317560, Note_off_c, 6, 71, 64
8, 317634, Note_on_c, 6, 71, 72
8, 317778, Note_off_c, 6, 71, 64
8, 317868, Note_on_c, 6, 71, 46
8, 317920, Note_off_c, 6, 71, 64
8, 317997, Note_on_c, 6, 71, 78
8, 318206, Note_off_c, 6, 71, 64
8, 318572, Note_on_c, 6, 72, 64
8, 318624, Note_off_c, 6, 72, 64
8, 318696, Note_on_c, 6, 71, 85
8, 318826, Note_off_c, 6, 71, 64
8, 318926, Note_on_c, 6, 72, 78
8, 318992, Note_off_c, 6, 72, 64
8, 319047, Note_on_c, 6, 66, 70
8, 319261, Note_off_c, 6, 66, 64
8, 319623, Note_on_c, 6, 67, 70
8, 319689, Note_off_c, 6, 67, 64
8, 319761, Note_on_c, 6, 66, 89
8, 319886, Note_off_c, 6, 66, 64
8, 319986, Note_on_c, 6, 71, 70
8, 320042, Note_off_c, 6, 71, 64
8, 320121, Note_on_c, 6, 71, 74
8, 320334, Note_off_c, 6, 71, 64
8, 320699, Note_on_c, 6, 66, 58
8, 320775, Note_off_c, 6, 66, 64
8, 320850, Note_on_c, 6, 64, 80
8, 320985, Note_off_c, 6, 64, 64
8, 321079, Note_on_c, 6, 69, 62
8, 321134, Note_off_c, 6, 69, 64
8, 321221, Note_on_c, 6, 62, 66
8, 321372, Note_off_c, 6, 62, 64
8, 321464, Note_on_c, 6, 62, 58
8, 321513, Note_off_c, 6, 62, 64
8, 321576, Note_on_c, 6, 62, 70
8, 321704, Note_off_c, 6, 62, 64
8, 321821, Note_on_c, 6, 62, 62
8, 321880, Note_off_c, 6, 62, 64
8, 321947, Note_on_c, 6, 62, 80
8, 322089, Note_off_c, 6, 62, 64
8, 322172, Note_on_c, 6, 62, 59
8, 322233, Note_off_c, 6, 62, 64
8, 322307, Note_on_c, 6, 62, 74
8, 322476, Note_off_c, 6, 62, 64
8, 323759, Note_on_c, 6, 62, 72
8, 323910, Note_off_c, 6, 62, 64
8, 324121, Note_on_c, 6, 62, 66
8, 324269, Note_off_c, 6, 62, 64
8, 324461, Note_on_c, 6, 66, 62
8, 324602, Note_off_c, 6, 66, 64
8, 324695, Note_on_c, 6, 66, 62
8, 324751, Note_off_c, 6, 66, 64
8, 324819, Note_on_c, 6, 66, 80
8, 324927, Note_off_c, 6, 66, 64
8, 325055, Note_on_c, 6, 67, 66
8, 325115, Note_off_c, 6, 67, 64
8, 325190, Note_on_c, 6, 60, 78
8, 325309, Note_off_c, 6, 60, 64
8, 325404, Note_on_c, 6, 62, 66
8, 325458, Note_off_c, 6, 62, 64
8, 325543, Note_on_c, 6, 62, 68
8, 325704, Note_off_c, 6, 62, 64
8, 325905, Note_on_c, 6, 62, 78
8, 326044, Note_off_c, 6, 62, 64
8, 326252, Note_on_c, 6, 66, 64
8, 326384, Note_off_c, 6, 66, 64
8, 326609, Note_on_c, 6, 69, 80
8, 326726, Note_on_c, 6, 64, 64
8, 326729, Note_off_c, 6, 69, 64
8, 326843, Note_on_c, 6, 65, 78
8, 326846, Note_off_c, 6, 64, 64
8, 326918, Note_off_c, 6, 65, 64
8, 326978, Note_on_c, 6, 67, 85
8, 327091, Note_on_c, 6, 69, 64
8, 327102, Note_off_c, 6, 67, 64
8, 327165, Note_off_c, 6, 69, 64
8, 327204, Note_on_c, 6, 65, 64
8, 327253, Note_off_c, 6, 65, 64
8, 327336, Note_on_c, 6, 65, 76
8, 327444, Note_on_c, 6, 67, 64
8, 327458, Note_off_c, 6, 65, 64
8, 327525, Note_off_c, 6, 67, 64
8, 327557, Note_on_c, 6, 64, 58
8, 327617, Note_off_c, 6, 64, 64
8, 327707, Note_on_c, 6, 64, 82
8, 327842, Note_off_c, 6, 64, 64
8, 327935, Note_on_c, 6, 67, 62
8, 327995, Note_off_c, 6, 67, 64
8, 328070, Note_on_c, 6, 69, 76
8, 328202, Note_off_c, 6, 69, 64
8, 328299, Note_on_c, 6, 64, 64
8, 328362, Note_off_c, 6, 64, 64
8, 328425, Note_on_c, 6, 64, 80
8, 328554, Note_off_c, 6, 64, 64
8, 328659, Note_on_c, 6, 64, 64
8, 328734, Note_off_c, 6, 64, 64
8, 328794, Note_on_c, 6, 62, 85
8, 328896, Note_on_c, 6, 64, 66
8, 328918, Note_off_c, 6, 62, 64
8, 328979, Note_off_c, 6, 64, 64
8, 329013, Note_on_c, 6, 66, 70
8, 329069, Note_off_c, 6, 66, 64
8, 329139, Note_on_c, 6, 66, 100
8, 329242, Note_on_c, 6, 67, 82
8, 329276, Note_off_c, 6, 66, 64
8, 329357, Note_on_c, 6, 69, 72
8, 329372, Note_off_c, 6, 67, 64
8, 329420, Note_off_c, 6, 69, 64
8, 329499, Note_on_c, 6, 62, 82
8, 329613, Note_off_c, 6, 62, 64
8, 329715, Note_on_c, 6, 69, 62
8, 329775, Note_off_c, 6, 69, 64
8, 329858, Note_on_c, 6, 71, 85
8, 329975, Note_off_c, 6, 71, 64
8, 330080, Note_on_c, 6, 69, 64
8, 330151, Note_off_c, 6, 69, 64
8, 330218, Note_on_c, 6, 67, 82
8, 330340, Note_off_c, 6, 67, 64
8, 330455, Note_on_c, 6, 69, 66
8, 330511, Note_off_c, 6, 69, 64
8, 330585, Note_on_c, 6, 62, 74
8, 330707, Note_off_c, 6, 62, 64
8, 330808, Note_on_c, 6, 62, 68
8, 330880, Note_off_c, 6, 62, 64
8, 330938, Note_on_c, 6, 62, 82
8, 331083, Note_off_c, 6, 62, 64
8, 331308, Note_on_c, 6, 62, 74
8, 331445, Note_off_c, 6, 62, 64
8, 331658, Note_on_c, 6, 69, 72
8, 331775, Note_off_c, 6, 69, 64
8, 332005, Note_on_c, 6, 71, 66
8, 332131, Note_off_c, 6, 71, 64
8, 332371, Note_on_c, 6, 74, 78
8, 332491, Note_off_c, 6, 74, 64
8, 332736, Note_on_c, 6, 62, 80
8, 332878, Note_off_c, 6, 62, 64
8, 333099, Note_on_c, 6, 62, 66
8, 333280, Note_off_c, 6, 62, 64
8, 354944, Note_on_c, 6, 66, 57
8, 355002, Note_off_c, 6, 66, 64
8, 355081, Note_on_c, 6, 66, 72
8, 355184, Note_off_c, 6, 66, 64
8, 355308, Note_on_c, 6, 69, 63
8, 355367, Note_off_c, 6, 69, 64
8, 355437, Note_on_c, 6, 66, 68
8, 355545, Note_off_c, 6, 66, 64
8, 355661, Note_on_c, 6, 62, 66
8, 355734, Note_off_c, 6, 62, 64
8, 355797, Note_on_c, 6, 67, 80
8, 355900, Note_off_c, 6, 67, 64
8, 356022, Note_on_c, 6, 71, 68
8, 356082, Note_off_c, 6, 71, 64
8, 356157, Note_on_c, 6, 67, 80
8, 356264, Note_on_c, 6, 69, 80
8, 356287, Note_off_c, 6, 67, 64
8, 356366, Note_on_c, 6, 71, 68
8, 356368, Note_off_c, 6, 69, 64
8, 356435, Note_off_c, 6, 71, 64
8, 356505, Note_on_c, 6, 64, 63
8, 356609, Note_off_c, 6, 64, 64
8, 356732, Note_on_c, 6, 64, 66
8, 356792, Note_off_c, 6, 64, 64
8, 356876, Note_on_c, 6, 64, 78
8, 357108, Note_off_c, 6, 64, 64
8, 357440, Note_on_c, 6, 69, 70
8, 357504, Note_off_c, 6, 69, 64
8, 357570, Note_on_c, 6, 64, 64
8, 357697, Note_off_c, 6, 64, 64
8, 357783, Note_on_c, 6, 69, 64
8, 357840, Note_off_c, 6, 69, 64
8, 357921, Note_on_c, 6, 62, 82
8, 358031, Note_on_c, 6, 66, 66
8, 358044, Note_off_c, 6, 62, 64
8, 358123, Note_off_c, 6, 66, 64
8, 358145, Note_on_c, 6, 67, 80
8, 358230, Note_off_c, 6, 67, 64
8, 358281, Note_on_c, 6, 69, 82
8, 358386, Note_off_c, 6, 69, 64
8, 358497, Note_on_c, 6, 73, 58
8, 358560, Note_off_c, 6, 73, 64
8, 358618, Note_on_c, 6, 64, 63
8, 358728, Note_off_c, 6, 64, 64
8, 358850, Note_on_c, 6, 66, 53
8, 358901, Note_off_c, 6, 66, 64
8, 358980, Note_on_c, 6, 66, 70
8, 359122, Note_off_c, 6, 66, 64
8, 359221, Note_on_c, 6, 66, 62
8, 359288, Note_off_c, 6, 66, 64
8, 359356, Note_on_c, 6, 62, 82
8, 359470, Note_on_c, 6, 64, 72
8, 359478, Note_off_c, 6, 62, 64
8, 359574, Note_off_c, 6, 64, 64
8, 359577, Note_on_c, 6, 66, 60
8, 359646, Note_off_c, 6, 66, 64
8, 359723, Note_on_c, 6, 71, 78
8, 359815, Note_off_c, 6, 71, 64
8, 359970, Note_on_c, 6, 71, 66
8, 360026, Note_off_c, 6, 71, 64
8, 360110, Note_on_c, 6, 71, 72
8, 360418, Note_off_c, 6, 71, 64
8, 360693, Note_on_c, 6, 64, 52
8, 360729, Note_off_c, 6, 64, 64
8, 360818, Note_on_c, 6, 64, 63
8, 360917, Note_off_c, 6, 64, 64
8, 361050, Note_on_c, 6, 64, 57
8, 361102, Note_off_c, 6, 64, 64
8, 361185, Note_on_c, 6, 64, 68
8, 361433, Note_off_c, 6, 64, 64
8, 361761, Note_on_c, 6, 62, 59
8, 361813, Note_off_c, 6, 62, 64
8, 361890, Note_on_c, 6, 62, 68
8, 361997, Note_off_c, 6, 62, 64
8, 362123, Note_on_c, 6, 62, 62
8, 362186, Note_off_c, 6, 62, 64
8, 362252, Note_on_c, 6, 62, 82
8, 362380, Note_off_c, 6, 62, 64
8, 362634, Note_on_c, 6, 64, 85
8, 362745, Note_off_c, 6, 64, 64
8, 362990, Note_on_c, 6, 66, 78
8, 363111, Note_off_c, 6, 66, 64
8, 363361, Note_on_c, 6, 71, 80
8, 363474, Note_off_c, 6, 71, 64
8, 363717, Note_on_c, 6, 71, 85
8, 363831, Note_off_c, 6, 71, 64
8, 364079, Note_on_c, 6, 68, 68
8, 364185, Note_off_c, 6, 68, 64
8, 364437, Note_on_c, 6, 64, 76
8, 364540, Note_off_c, 6, 64, 64
8, 364803, Note_on_c, 6, 76, 89
8, 364900, Note_off_c, 6, 76, 64
8, 365163, Note_on_c, 6, 73, 64
8, 365265, Note_off_c, 6, 73, 64
8, 365499, Note_on_c, 6, 69, 74
8, 365616, Note_off_c, 6, 69, 64
8, 365860, Note_on_c, 6, 69, 78
8, 365987, Note_off_c, 6, 69, 64
8, 366219, Note_on_c, 6, 66, 70
8, 366333, Note_off_c, 6, 66, 64
8, 366565, Note_on_c, 6, 62, 68
8, 366723, Note_off_c, 6, 62, 64
8, 367166, Note_on_c, 6, 67, 72
8, 367235, Note_off_c, 6, 67, 64
8, 367292, Note_on_c, 6, 69, 76
8, 367377, Note_off_c, 6, 69, 64
8, 367510, Note_on_c, 6, 64, 61
8, 367591, Note_off_c, 6, 64, 64
8, 367649, Note_on_c, 6, 69, 78
8, 367778, Note_off_c, 6, 69, 64
8, 368253, Note_on_c, 6, 69, 70
8, 368325, Note_off_c, 6, 69, 64
8, 368372, Note_on_c, 6, 71, 72
8, 368473, Note_off_c, 6, 71, 64
8, 368612, Note_on_c, 6, 66, 59
8, 368684, Note_off_c, 6, 66, 64
8, 368741, Note_on_c, 6, 71, 76
8, 368883, Note_off_c, 6, 71, 64
8, 369332, Note_on_c, 6, 64, 63
8, 369405, Note_off_c, 6, 64, 64
8, 369463, Note_on_c, 6, 69, 82
8, 369569, Note_off_c, 6, 69, 64
8, 369701, Note_on_c, 6, 71, 66
8, 369751, Note_off_c, 6, 71, 64
8, 369827, Note_on_c, 6, 71, 85
8, 369929, Note_off_c, 6, 71, 64
8, 370052, Note_on_c, 6, 71, 58
8, 370111, Note_off_c, 6, 71, 64
8, 370188, Note_on_c, 6, 71, 63
8, 370296, Note_off_c, 6, 71, 64
8, 370419, Note_on_c, 6, 71, 66
8, 370473, Note_off_c, 6, 71, 64
8, 370554, Note_on_c, 6, 71, 82
8, 370669, Note_off_c, 6, 71, 64
8, 370782, Note_on_c, 6, 71, 66
8, 370847, Note_off_c, 6, 71, 64
8, 370912, Note_on_c, 6, 69, 76
8, 371022, Note_off_c, 6, 69, 64
8, 371130, Note_on_c, 6, 69, 66
8, 371191, Note_off_c, 6, 69, 64
8, 371265, Note_on_c, 6, 69, 68
8, 371385, Note_off_c, 6, 69, 64
8, 371493, Note_on_c, 6, 69, 66
8, 371553, Note_off_c, 6, 69, 64
8, 371619, Note_on_c, 6, 69, 80
8, 371727, Note_off_c, 6, 69, 64
8, 371839, Note_on_c, 6, 69, 63
8, 371902, Note_off_c, 6, 69, 64
8, 371974, Note_on_c, 6, 69, 70
8, 372078, Note_off_c, 6, 69, 64
8, 372199, Note_on_c, 6, 69, 66
8, 372266, Note_off_c, 6, 69, 64
8, 372332, Note_on_c, 6, 69, 80
8, 372433, Note_off_c, 6, 69, 64
8, 372546, Note_on_c, 6, 67, 64
8, 372618, Note_off_c, 6, 67, 64
8, 372681, Note_on_c, 6, 64, 68
8, 372791, Note_off_c, 6, 64, 64
8, 372910, Note_on_c, 6, 64, 64
8, 373007, Note_off_c, 6, 64, 64
8, 373059, Note_on_c, 6, 66, 70
8, 373185, Note_off_c, 6, 66, 64
8, 373432, Note_on_c, 6, 69, 80
8, 373563, Note_off_c, 6, 69, 64
8, 373805, Note_on_c, 6, 73, 68
8, 373927, Note_off_c, 6, 73, 64
8, 374154, Note_on_c, 6, 78, 70
8, 374273, Note_off_c, 6, 78, 64
8, 374512, Note_on_c, 6, 69, 78
8, 374636, Note_off_c, 6, 69, 64
8, 374868, Note_on_c, 6, 73, 70
8, 375007, Note_off_c, 6, 73, 64
8, 375007, End_track
9, 0, Start_track
9, 0, Title_t, "Bassoon"
9, 0, Program_c, 7, 70
9, 0, Control_c, 7, 7, 100
9, 893, Note_on_c, 7, 50, 107
9, 923, Note_off_c, 7, 50, 64
9, 962, Note_on_c, 7, 50, 102
9, 1769, Note_off_c, 7, 50, 64
9, 1855, Note_on_c, 7, 50, 100
9, 1887, Note_off_c, 7, 50, 64
9, 1916, Note_on_c, 7, 50, 98
9, 2694, Note_off_c, 7, 50, 64
9, 2813, Note_on_c, 7, 50, 100
9, 2843, Note_off_c, 7, 50, 64
9, 2877, Note_on_c, 7, 50, 100
9, 3643, Note_off_c, 7, 50, 64
9, 3776, Note_on_c, 7, 50, 100
9, 3809, Note_off_c, 7, 50, 64
9, 3837, Note_on_c, 7, 50, 100
9, 4119, Note_off_c, 7, 50, 64
9, 4149, Note_on_c, 7, 49, 100
9, 4184, Note_off_c, 7, 49, 64
9, 4205, Note_on_c, 7, 50, 98
9, 4248, Note_off_c, 7, 50, 64
9, 4256, Note_on_c, 7, 47, 91
9, 4297, Note_off_c, 7, 47, 64
9, 4319, Note_on_c, 7, 49, 98
9, 4433, Note_off_c, 7, 49, 64
9, 4558, Note_on_c, 7, 45, 89
9, 4662, Note_off_c, 7, 45, 64
9, 4790, Note_on_c, 7, 50, 95
9, 5053, Note_off_c, 7, 50, 64
9, 5085, Note_on_c, 7, 49, 72
9, 5127, Note_off_c, 7, 49, 64
9, 5150, Note_on_c, 7, 50, 85
9, 5195, Note_off_c, 7, 50, 64
9, 5203, Note_on_c, 7, 52, 76
9, 5249, Note_off_c, 7, 52, 64
9, 5264, Note_on_c, 7, 54, 85
9, 5311, Note_off_c, 7, 54, 64
9, 5325, Note_on_c, 7, 55, 87
9, 5366, Note_off_c, 7, 55, 64
9, 5383, Note_on_c, 7, 57, 78
9, 5428, Note_off_c, 7, 57, 64
9, 5443, Note_on_c, 7, 59, 89
9, 5482, Note_off_c, 7, 59, 64
9, 5504, Note_on_c, 7, 60, 91
9, 5548, Note_off_c, 7, 60, 64
9, 5564, Note_on_c, 7, 59, 102
9, 5599, Note_off_c, 7, 59, 64
9, 5623, Note_on_c, 7, 60, 87
9, 5663, Note_off_c, 7, 60, 64
9, 5675, Note_on_c, 7, 57, 76
9, 5719, Note_off_c, 7, 57, 64
9, 5752, Note_on_c, 7, 51, 91
9, 6002, Note_off_c, 7, 51, 64
9, 6040, Note_on_c, 7, 49, 95
9, 6075, Note_off_c, 7, 49, 64
9, 6102, Note_on_c, 7, 51, 98
9, 6132, Note_off_c, 7, 51, 64
9, 6149, Note_on_c, 7, 47, 95
9, 6193, Note_off_c, 7, 47, 64
9, 6225, Note_on_c, 7, 59, 93
9, 6323, Note_off_c, 7, 59, 64
9, 6468, Note_on_c, 7, 47, 89
9, 6572, Note_off_c, 7, 47, 64
9, 6714, Note_on_c, 7, 52, 102
9, 7280, Note_off_c, 7, 52, 64
9, 7372, Note_on_c, 7, 52, 93
9, 7413, Note_off_c, 7, 52, 64
9, 7435, Note_on_c, 7, 54, 100
9, 7538, Note_off_c, 7, 54, 64
9, 7615, Note_on_c, 7, 50, 76
9, 7659, Note_off_c, 7, 50, 64
9, 7679, Note_on_c, 7, 55, 87
9, 7792, Note_off_c, 7, 55, 64
9, 7864, Note_on_c, 7, 54, 85
9, 7896, Note_off_c, 7, 54, 64
9, 7923, Note_on_c, 7, 55, 98
9, 8012, Note_off_c, 7, 55, 64
9, 8093, Note_on_c, 7, 52, 74
9, 8132, Note_off_c, 7, 52, 64
9, 8158, Note_on_c, 7, 54, 102
9, 8250, Note_off_c, 7, 54, 64
9, 8338, Note_on_c, 7, 52, 85
9, 8387, Note_off_c, 7, 52, 64
9, 8398, Note_on_c, 7, 54, 82
9, 8491, Note_off_c, 7, 54, 64
9, 8578, Note_on_c, 7, 55, 85
9, 8622, Note_off_c, 7, 55, 64
9, 8647, Note_on_c, 7, 57, 82
9, 9456, Note_off_c, 7, 57, 64
9, 9547, Note_on_c, 7, 57, 105
9, 9571, Note_off_c, 7, 57, 64
9, 9605, Note_on_c, 7, 57, 102
9, 10419, Note_off_c, 7, 57, 64
9, 10500, Note_on_c, 7, 57, 100
9, 10532, Note_off_c, 7, 57, 64
9, 10561, Note_on_c, 7, 57, 100
9, 11355, Note_off_c, 7, 57, 64
9, 11448, Note_on_c, 7, 57, 87
9, 11480, Note_off_c, 7, 57, 64
9, 11507, Note_on_c, 7, 57, 102
9, 11796, Note_off_c, 7, 57, 64
9, 11826, Note_on_c, 7, 56, 93
9, 11864, Note_off_c, 7, 56, 64
9, 11881, Note_on_c, 7, 57, 87
9, 11920, Note_off_c, 7, 57, 64
9, 11932, Note_on_c, 7, 54, 82
9, 11971, Note_off_c, 7, 54, 64
9, 11994, Note_on_c, 7, 56, 102
9, 12101, Note_off_c, 7, 56, 64
9, 12246, Note_on_c, 7, 52, 91
9, 12328, Note_off_c, 7, 52, 64
9, 12480, Note_on_c, 7, 57, 89
9, 12979, Note_off_c, 7, 57, 64
9, 13016, Note_on_c, 7, 57, 78
9, 13066, Note_off_c, 7, 57, 64
9, 13075, Note_on_c, 7, 59, 85
9, 13112, Note_off_c, 7, 59, 64
9, 13133, Note_on_c, 7, 61, 91
9, 13169, Note_off_c, 7, 61, 64
9, 13192, Note_on_c, 7, 62, 91
9, 13231, Note_off_c, 7, 62, 64
9, 13250, Note_on_c, 7, 61, 102
9, 13283, Note_off_c, 7, 61, 64
9, 13309, Note_on_c, 7, 62, 93
9, 13345, Note_off_c, 7, 62, 64
9, 13366, Note_on_c, 7, 59, 98
9, 13400, Note_off_c, 7, 59, 64
9, 13440, Note_on_c, 7, 57, 102
9, 13564, Note_on_c, 7, 56, 78
9, 13575, Note_off_c, 7, 57, 64
9, 13760, Note_off_c, 7, 56, 64
9, 13829, Note_on_c, 7, 54, 85
9, 13872, Note_off_c, 7, 54, 64
9, 13894, Note_on_c, 7, 53, 76
9, 14004, Note_off_c, 7, 53, 64
9, 14142, Note_on_c, 7, 49, 82
9, 14227, Note_off_c, 7, 49, 64
9, 14380, Note_on_c, 7, 54, 100
9, 14886, Note_off_c, 7, 54, 64
9, 14930, Note_on_c, 7, 52, 91
9, 14973, Note_off_c, 7, 52, 64
9, 14985, Note_on_c, 7, 54, 72
9, 15031, Note_off_c, 7, 54, 64
9, 15046, Note_on_c, 7, 56, 87
9, 15083, Note_off_c, 7, 56, 64
9, 15105, Note_on_c, 7, 57, 85
9, 15148, Note_off_c, 7, 57, 64
9, 15170, Note_on_c, 7, 56, 107
9, 15202, Note_off_c, 7, 56, 64
9, 15226, Note_on_c, 7, 57, 85
9, 15265, Note_off_c, 7, 57, 64
9, 15284, Note_on_c, 7, 54, 87
9, 15320, Note_off_c, 7, 54, 64
9, 15346, Note_on_c, 7, 56, 100
9, 15433, Note_off_c, 7, 56, 64
9, 15522, Note_on_c, 7, 52, 80
9, 15561, Note_off_c, 7, 52, 64
9, 15584, Note_on_c, 7, 57, 89
9, 15665, Note_off_c, 7, 57, 64
9, 15759, Note_on_c, 7, 59, 80
9, 15803, Note_off_c, 7, 59, 64
9, 15820, Note_on_c, 7, 61, 100
9, 15919, Note_off_c, 7, 61, 64
9, 15997, Note_on_c, 7, 62, 78
9, 16036, Note_off_c, 7, 62, 64
9, 16067, Note_on_c, 7, 61, 98
9, 16094, Note_on_c, 7, 59, 82
9, 16097, Note_off_c, 7, 61, 64
9, 16119, Note_on_c, 7, 61, 82
9, 16124, Note_off_c, 7, 59, 64
9, 16145, Note_on_c, 7, 59, 91
9, 16160, Note_off_c, 7, 61, 64
9, 16196, Note_off_c, 7, 59, 64
9, 16256, Note_on_c, 7, 57, 98
9, 16280, Note_off_c, 7, 57, 64
9, 16313, Note_on_c, 7, 52, 100
9, 17130, Note_off_c, 7, 52, 64
9, 17209, Note_on_c, 7, 52, 93
9, 17237, Note_off_c, 7, 52, 64
9, 17268, Note_on_c, 7, 52, 102
9, 18117, Note_off_c, 7, 52, 64
9, 18178, Note_on_c, 7, 52, 91
9, 18205, Note_off_c, 7, 52, 64
9, 18238, Note_on_c, 7, 52, 91
9, 19090, Note_off_c, 7, 52, 64
9, 19140, Note_on_c, 7, 52, 95
9, 19174, Note_off_c, 7, 52, 64
9, 19203, Note_on_c, 7, 52, 98
9, 20047, Note_off_c, 7, 52, 64
9, 20100, Note_on_c, 7, 52, 95
9, 20129, Note_off_c, 7, 52, 64
9, 20163, Note_on_c, 7, 52, 100
9, 20659, Note_off_c, 7, 52, 64
9, 20692, Note_on_c, 7, 54, 87
9, 20731, Note_off_c, 7, 54, 64
9, 20749, Note_on_c, 7, 52, 87
9, 20801, Note_off_c, 7, 52, 64
9, 20810, Note_on_c, 7, 50, 89
9, 20844, Note_off_c, 7, 50, 64
9, 20870, Note_on_c, 7, 49, 100
9, 20911, Note_off_c, 7, 49, 64
9, 20924, Note_on_c, 7, 47, 95
9, 20963, Note_off_c, 7, 47, 64
9, 20985, Note_on_c, 7, 49, 102
9, 21021, Note_off_c, 7, 49, 64
9, 21039, Note_on_c, 7, 45, 87
9, 21086, Note_off_c, 7, 45, 64
9, 21112, Note_on_c, 7, 54, 105
9, 21626, Note_off_c, 7, 54, 64
9, 21656, Note_on_c, 7, 55, 87
9, 21696, Note_off_c, 7, 55, 64
9, 21715, Note_on_c, 7, 54, 100
9, 21750, Note_off_c, 7, 54, 64
9, 21775, Note_on_c, 7, 52, 82
9, 21817, Note_off_c, 7, 52, 64
9, 21834, Note_on_c, 7, 50, 85
9, 21869, Note_off_c, 7, 50, 64
9, 21891, Note_on_c, 7, 49, 93
9, 21927, Note_off_c, 7, 49, 64
9, 21949, Note_on_c, 7, 50, 80
9, 21982, Note_off_c, 7, 50, 64
9, 22004, Note_on_c, 7, 47, 70
9, 22047, Note_off_c, 7, 47, 64
9, 22072, Note_on_c, 7, 56, 89
9, 22150, Note_off_c, 7, 56, 64
9, 22244, Note_on_c, 7, 52, 72
9, 22297, Note_off_c, 7, 52, 64
9, 22313, Note_on_c, 7, 57, 87
9, 22401, Note_off_c, 7, 57, 64
9, 22488, Note_on_c, 7, 50, 68
9, 22529, Note_off_c, 7, 50, 64
9, 22555, Note_on_c, 7, 52, 89
9, 22660, Note_off_c, 7, 52, 64
9, 22795, Note_on_c, 7, 40, 93
9, 22904, Note_off_c, 7, 40, 64
9, 23043, Note_on_c, 7, 45, 105
9, 23290, Note_off_c, 7, 45, 64
9, 51695, Note_on_c, 7, 62, 78
9, 51755, Note_off_c, 7, 62, 64
9, 51828, Note_on_c, 7, 62, 93
9, 51933, Note_on_c, 7, 64, 66
9, 51956, Note_off_c, 7, 62, 64
9, 51990, Note_off_c, 7, 64, 64
9, 52064, Note_on_c, 7, 60, 82
9, 52120, Note_off_c, 7, 60, 64
9, 52188, Note_on_c, 7, 60, 91
9, 52282, Note_off_c, 7, 60, 64
9, 52287, Note_on_c, 7, 62, 63
9, 52356, Note_off_c, 7, 62, 64
9, 52413, Note_on_c, 7, 59, 80
9, 52466, Note_off_c, 7, 59, 64
9, 52539, Note_on_c, 7, 59, 85
9, 52647, Note_on_c, 7, 61, 62
9, 52653, Note_off_c, 7, 59, 64
9, 52714, Note_off_c, 7, 61, 64
9, 52777, Note_on_c, 7, 62, 63
9, 52833, Note_off_c, 7, 62, 64
9, 52917, Note_on_c, 7, 64, 91
9, 53027, Note_on_c, 7, 66, 62
9, 53049, Note_off_c, 7, 64, 64
9, 53106, Note_off_c, 7, 66, 64
9, 53146, Note_on_c, 7, 62, 68
9, 53196, Note_off_c, 7, 62, 64
9, 53274, Note_on_c, 7, 62, 89
9, 53378, Note_on_c, 7, 64, 64
9, 53394, Note_off_c, 7, 62, 64
9, 53445, Note_off_c, 7, 64, 64
9, 53510, Note_on_c, 7, 61, 78
9, 53573, Note_off_c, 7, 61, 64
9, 53637, Note_on_c, 7, 61, 85
9, 53776, Note_off_c, 7, 61, 64
9, 53877, Note_on_c, 7, 61, 78
9, 53934, Note_off_c, 7, 61, 64
9, 53996, Note_on_c, 7, 61, 82
9, 54141, Note_off_c, 7, 61, 64
9, 54231, Note_on_c, 7, 61, 78
9, 54282, Note_off_c, 7, 61, 64
9, 54357, Note_on_c, 7, 61, 85
9, 54491, Note_off_c, 7, 61, 64
9, 54584, Note_on_c, 7, 61, 80
9, 54667, Note_off_c, 7, 61, 64
9, 54716, Note_on_c, 7, 62, 82
9, 54824, Note_off_c, 7, 62, 64
9, 54946, Note_on_c, 7, 57, 68
9, 54998, Note_off_c, 7, 57, 64
9, 55068, Note_on_c, 7, 57, 93
9, 55173, Note_on_c, 7, 59, 70
9, 55196, Note_off_c, 7, 57, 64
9, 55239, Note_off_c, 7, 59, 64
9, 55326, Note_on_c, 7, 55, 74
9, 55376, Note_off_c, 7, 55, 64
9, 55436, Note_on_c, 7, 55, 98
9, 55520, Note_on_c, 7, 57, 66
9, 55524, Note_off_c, 7, 55, 64
9, 55607, Note_off_c, 7, 57, 64
9, 55657, Note_on_c, 7, 54, 62
9, 55704, Note_off_c, 7, 54, 64
9, 55776, Note_on_c, 7, 54, 91
9, 55880, Note_on_c, 7, 56, 76
9, 55895, Note_off_c, 7, 54, 64
9, 55941, Note_off_c, 7, 56, 64
9, 56001, Note_on_c, 7, 57, 66
9, 56062, Note_off_c, 7, 57, 64
9, 56132, Note_on_c, 7, 59, 91
9, 56244, Note_on_c, 7, 61, 63
9, 56256, Note_off_c, 7, 59, 64
9, 56332, Note_off_c, 7, 61, 64
9, 56366, Note_on_c, 7, 57, 68
9, 56413, Note_off_c, 7, 57, 64
9, 56487, Note_on_c, 7, 57, 91
9, 56582, Note_on_c, 7, 59, 68
9, 56597, Note_off_c, 7, 57, 64
9, 56651, Note_off_c, 7, 59, 64
9, 56715, Note_on_c, 7, 56, 80
9, 56768, Note_off_c, 7, 56, 64
9, 56834, Note_on_c, 7, 56, 91
9, 56979, Note_off_c, 7, 56, 64
9, 57084, Note_on_c, 7, 56, 64
9, 57137, Note_off_c, 7, 56, 64
9, 57205, Note_on_c, 7, 56, 85
9, 57340, Note_off_c, 7, 56, 64
9, 57446, Note_on_c, 7, 56, 61
9, 57502, Note_off_c, 7, 56, 64
9, 57556, Note_on_c, 7, 56, 80
9, 57680, Note_off_c, 7, 56, 64
9, 57779, Note_on_c, 7, 56, 72
9, 57840, Note_off_c, 7, 56, 64
9, 57916, Note_on_c, 7, 57, 82
9, 58040, Note_off_c, 7, 57, 64
9, 58128, Note_on_c, 7, 55, 60
9, 58195, Note_off_c, 7, 55, 64
9, 58260, Note_on_c, 7, 54, 64
9, 58401, Note_off_c, 7, 54, 64
9, 58497, Note_on_c, 7, 54, 61
9, 58553, Note_off_c, 7, 54, 64
9, 58616, Note_on_c, 7, 54, 72
9, 58758, Note_off_c, 7, 54, 64
9, 58838, Note_on_c, 7, 54, 62
9, 58899, Note_off_c, 7, 54, 64
9, 58965, Note_on_c, 7, 55, 82
9, 59068, Note_off_c, 7, 55, 64
9, 59088, Note_on_c, 7, 52, 63
9, 59153, Note_off_c, 7, 52, 64
9, 59212, Note_on_c, 7, 54, 64
9, 59266, Note_off_c, 7, 54, 64
9, 59354, Note_on_c, 7, 55, 98
9, 59462, Note_on_c, 7, 57, 64
9, 59473, Note_off_c, 7, 55, 64
9, 59520, Note_off_c, 7, 57, 64
9, 59592, Note_on_c, 7, 54, 93
9, 59646, Note_off_c, 7, 54, 64
9, 59710, Note_on_c, 7, 54, 87
9, 59813, Note_on_c, 7, 55, 64
9, 59819, Note_off_c, 7, 54, 64
9, 59889, Note_off_c, 7, 55, 64
9, 59955, Note_on_c, 7, 52, 64
9, 60018, Note_off_c, 7, 52, 64
9, 60105, Note_on_c, 7, 52, 82
9, 60252, Note_off_c, 7, 52, 64
9, 60339, Note_on_c, 7, 52, 72
9, 60391, Note_off_c, 7, 52, 64
9, 60465, Note_on_c, 7, 52, 82
9, 60591, Note_off_c, 7, 52, 64
9, 60686, Note_on_c, 7, 52, 76
9, 60747, Note_off_c, 7, 52, 64
9, 60821, Note_on_c, 7, 52, 89
9, 60944, Note_off_c, 7, 52, 64
9, 61406, Note_on_c, 7, 45, 61
9, 61466, Note_off_c, 7, 45, 64
9, 61530, Note_on_c, 7, 45, 78
9, 61665, Note_off_c, 7, 45, 64
9, 61764, Note_on_c, 7, 45, 80
9, 61835, Note_off_c, 7, 45, 64
9, 61891, Note_on_c, 7, 45, 87
9, 62025, Note_off_c, 7, 45, 64
9, 62483, Note_on_c, 7, 50, 72
9, 62542, Note_off_c, 7, 50, 64
9, 62605, Note_on_c, 7, 50, 82
9, 62735, Note_off_c, 7, 50, 64
9, 62830, Note_on_c, 7, 50, 72
9, 62898, Note_off_c, 7, 50, 64
9, 62972, Note_on_c, 7, 50, 82
9, 63109, Note_off_c, 7, 50, 64
9, 63548, Note_on_c, 7, 55, 82
9, 63626, Note_off_c, 7, 55, 64
9, 63683, Note_on_c, 7, 52, 85
9, 63806, Note_off_c, 7, 52, 64
9, 63914, Note_on_c, 7, 52, 68
9, 63982, Note_off_c, 7, 52, 64
9, 64038, Note_on_c, 7, 54, 78
9, 64205, Note_off_c, 7, 54, 64
9, 64286, Note_on_c, 7, 55, 74
9, 64356, Note_off_c, 7, 55, 64
9, 64410, Note_on_c, 7, 57, 80
9, 64553, Note_off_c, 7, 57, 64
9, 64655, Note_on_c, 7, 55, 70
9, 64733, Note_off_c, 7, 55, 64
9, 64790, Note_on_c, 7, 54, 80
9, 64929, Note_off_c, 7, 54, 64
9, 65012, Note_on_c, 7, 54, 52
9, 65087, Note_off_c, 7, 54, 64
9, 65130, Note_on_c, 7, 55, 74
9, 65269, Note_off_c, 7, 55, 64
9, 65361, Note_on_c, 7, 57, 72
9, 65440, Note_off_c, 7, 57, 64
9, 65494, Note_on_c, 7, 59, 85
9, 65634, Note_off_c, 7, 59, 64
9, 65870, Note_on_c, 7, 55, 85
9, 66002, Note_off_c, 7, 55, 64
9, 66209, Note_on_c, 7, 54, 70
9, 66324, Note_off_c, 7, 54, 64
9, 66590, Note_on_c, 7, 52, 89
9, 66700, Note_on_c, 7, 55, 68
9, 66720, Note_off_c, 7, 52, 64
9, 66790, Note_off_c, 7, 55, 64
9, 66812, Note_on_c, 7, 59, 82
9, 66864, Note_off_c, 7, 59, 64
9, 66948, Note_on_c, 7, 64, 85
9, 67056, Note_on_c, 7, 66, 74
9, 67073, Note_off_c, 7, 64, 64
9, 67146, Note_off_c, 7, 66, 64
9, 67177, Note_on_c, 7, 62, 62
9, 67227, Note_off_c, 7, 62, 64
9, 67301, Note_on_c, 7, 62, 100
9, 67395, Note_on_c, 7, 64, 66
9, 67411, Note_off_c, 7, 62, 64
9, 67463, Note_off_c, 7, 64, 64
9, 67520, Note_on_c, 7, 61, 91
9, 67580, Note_off_c, 7, 61, 64
9, 67663, Note_on_c, 7, 61, 89
9, 67880, Note_off_c, 7, 61, 64
9, 68244, Note_on_c, 7, 57, 72
9, 68300, Note_off_c, 7, 57, 64
9, 68365, Note_on_c, 7, 54, 89
9, 68475, Note_off_c, 7, 54, 64
9, 68604, Note_on_c, 7, 57, 70
9, 68671, Note_off_c, 7, 57, 64
9, 68743, Note_on_c, 7, 50, 78
9, 68865, Note_off_c, 7, 50, 64
9, 68957, Note_on_c, 7, 52, 64
9, 69036, Note_off_c, 7, 52, 64
9, 69098, Note_on_c, 7, 54, 82
9, 69227, Note_off_c, 7, 54, 64
9, 69317, Note_on_c, 7, 55, 66
9, 69391, Note_off_c, 7, 55, 64
9, 69450, Note_on_c, 7, 57, 87
9, 69553, Note_off_c, 7, 57, 64
9, 69684, Note_on_c, 7, 45, 87
9, 69794, Note_off_c, 7, 45, 64
9, 69807, Note_on_c, 7, 50, 87
9, 70046, Note_off_c, 7, 50, 64
9, 70925, Note_on_c, 7, 38, 100
9, 71121, Note_off_c, 7, 38, 64
9, 71997, Note_on_c, 7, 50, 87
9, 72197, Note_off_c, 7, 50, 64
9, 92739, Note_on_c, 7, 64, 78
9, 92795, Note_off_c, 7, 64, 64
9, 92867, Note_on_c, 7, 64, 87
9, 92975, Note_on_c, 7, 66, 57
9, 93003, Note_off_c, 7, 64, 64
9, 93070, Note_off_c, 7, 66, 64
9, 93078, Note_on_c, 7, 62, 62
9, 93129, Note_off_c, 7, 62, 64
9, 93218, Note_on_c, 7, 62, 85
9, 93320, Note_on_c, 7, 64, 60
9, 93349, Note_off_c, 7, 62, 64
9, 93392, Note_off_c, 7, 64, 64
9, 93443, Note_on_c, 7, 61, 56
9, 93491, Note_off_c, 7, 61, 64
9, 93581, Note_on_c, 7, 61, 78
9, 93684, Note_on_c, 7, 62, 72
9, 93713, Note_off_c, 7, 61, 64
9, 93801, Note_off_c, 7, 62, 64
9, 93803, Note_on_c, 7, 64, 66
9, 93859, Note_off_c, 7, 64, 64
9, 93941, Note_on_c, 7, 64, 89
9, 94049, Note_on_c, 7, 66, 56
9, 94076, Note_off_c, 7, 64, 64
9, 94150, Note_off_c, 7, 66, 64
9, 94166, Note_on_c, 7, 62, 63
9, 94218, Note_off_c, 7, 62, 64
9, 94299, Note_on_c, 7, 62, 87
9, 94406, Note_on_c, 7, 64, 64
9, 94436, Note_off_c, 7, 62, 64
9, 94488, Note_off_c, 7, 64, 64
9, 94503, Note_on_c, 7, 61, 62
9, 94559, Note_off_c, 7, 61, 64
9, 94649, Note_on_c, 7, 61, 89
9, 94969, Note_off_c, 7, 61, 64
9, 95959, Note_on_c, 7, 57, 70
9, 96015, Note_off_c, 7, 57, 64
9, 96092, Note_on_c, 7, 57, 87
9, 96186, Note_on_c, 7, 59, 60
9, 96213, Note_off_c, 7, 57, 64
9, 96263, Note_off_c, 7, 59, 64
9, 96319, Note_on_c, 7, 56, 82
9, 96371, Note_off_c, 7, 56, 64
9, 96449, Note_on_c, 7, 56, 87
9, 96548, Note_on_c, 7, 57, 63
9, 96560, Note_off_c, 7, 56, 64
9, 96623, Note_off_c, 7, 57, 64
9, 96674, Note_on_c, 7, 54, 63
9, 96722, Note_off_c, 7, 54, 64
9, 96810, Note_on_c, 7, 54, 82
9, 96920, Note_on_c, 7, 56, 59
9, 96944, Note_off_c, 7, 54, 64
9, 96992, Note_off_c, 7, 56, 64
9, 97028, Note_on_c, 7, 57, 59
9, 97113, Note_off_c, 7, 57, 64
9, 97179, Note_on_c, 7, 59, 82
9, 97296, Note_on_c, 7, 61, 58
9, 97318, Note_off_c, 7, 59, 64
9, 97401, Note_off_c, 7, 61, 64
9, 97410, Note_on_c, 7, 57, 61
9, 97460, Note_off_c, 7, 57, 64
9, 97529, Note_on_c, 7, 57, 82
9, 97630, Note_on_c, 7, 59, 63
9, 97653, Note_off_c, 7, 57, 64
9, 97710, Note_off_c, 7, 59, 64
9, 97759, Note_on_c, 7, 56, 82
9, 97826, Note_off_c, 7, 56, 64
9, 97910, Note_on_c, 7, 56, 89
9, 98045, Note_off_c, 7, 56, 64
9, 98159, Note_on_c, 7, 56, 57
9, 98211, Note_off_c, 7, 56, 64
9, 98273, Note_on_c, 7, 56, 61
9, 98412, Note_off_c, 7, 56, 64
9, 98520, Note_on_c, 7, 56, 57
9, 98569, Note_off_c, 7, 56, 64
9, 98632, Note_on_c, 7, 56, 78
9, 98745, Note_off_c, 7, 56, 64
9, 98857, Note_on_c, 7, 56, 57
9, 98918, Note_off_c, 7, 56, 64
9, 98990, Note_on_c, 7, 57, 82
9, 99102, Note_off_c, 7, 57, 64
9, 99221, Note_on_c, 7, 52, 66
9, 99276, Note_off_c, 7, 52, 64
9, 99341, Note_on_c, 7, 52, 89
9, 99438, Note_on_c, 7, 54, 63
9, 99456, Note_off_c, 7, 52, 64
9, 99523, Note_off_c, 7, 54, 64
9, 99557, Note_on_c, 7, 50, 62
9, 99600, Note_off_c, 7, 50, 64
9, 99689, Note_on_c, 7, 50, 87
9, 99797, Note_on_c, 7, 52, 60
9, 99815, Note_off_c, 7, 50, 64
9, 99888, Note_off_c, 7, 52, 64
9, 99930, Note_on_c, 7, 49, 78
9, 99986, Note_off_c, 7, 49, 64
9, 100052, Note_on_c, 7, 49, 82
9, 100155, Note_on_c, 7, 50, 68
9, 100162, Note_off_c, 7, 49, 64
9, 100288, Note_on_c, 7, 52, 64
9, 100302, Note_off_c, 7, 50, 64
9, 100360, Note_off_c, 7, 52, 64
9, 100425, Note_on_c, 7, 54, 89
9, 100527, Note_on_c, 7, 55, 70
9, 100556, Note_off_c, 7, 54, 64
9, 100616, Note_off_c, 7, 55, 64
9, 100648, Note_on_c, 7, 52, 66
9, 100697, Note_off_c, 7, 52, 64
9, 100779, Note_on_c, 7, 52, 82
9, 100884, Note_on_c, 7, 54, 58
9, 100887, Note_off_c, 7, 52, 64
9, 100976, Note_off_c, 7, 54, 64
9, 101006, Note_on_c, 7, 51, 59
9, 101071, Note_off_c, 7, 51, 64
9, 101141, Note_on_c, 7, 51, 78
9, 101258, Note_off_c, 7, 51, 64
9, 101386, Note_on_c, 7, 51, 57
9, 101451, Note_off_c, 7, 51, 64
9, 101505, Note_on_c, 7, 51, 66
9, 101627, Note_off_c, 7, 51, 64
9, 101732, Note_on_c, 7, 51, 59
9, 101798, Note_off_c, 7, 51, 64
9, 101867, Note_on_c, 7, 51, 72
9, 101980, Note_off_c, 7, 51, 64
9, 102074, Note_on_c, 7, 51, 57
9, 102158, Note_off_c, 7, 51, 64
9, 102221, Note_on_c, 7, 52, 72
9, 102376, Note_off_c, 7, 52, 64
9, 102430, Note_on_c, 7, 50, 66
9, 102489, Note_off_c, 7, 50, 64
9, 102570, Note_on_c, 7, 49, 72
9, 102707, Note_off_c, 7, 49, 64
9, 102825, Note_on_c, 7, 49, 64
9, 102891, Note_off_c, 7, 49, 64
9, 102945, Note_on_c, 7, 49, 82
9, 103058, Note_off_c, 7, 49, 64
9, 103145, Note_on_c, 7, 49, 76
9, 103221, Note_off_c, 7, 49, 64
9, 103294, Note_on_c, 7, 50, 82
9, 103406, Note_on_c, 7, 47, 64
9, 103417, Note_off_c, 7, 50, 64
9, 103481, Note_off_c, 7, 47, 64
9, 103514, Note_on_c, 7, 49, 70
9, 103580, Note_off_c, 7, 49, 64
9, 103656, Note_on_c, 7, 50, 89
9, 103760, Note_on_c, 7, 52, 68
9, 103776, Note_off_c, 7, 50, 64
9, 103836, Note_off_c, 7, 52, 64
9, 103893, Note_on_c, 7, 49, 82
9, 103953, Note_off_c, 7, 49, 64
9, 104023, Note_on_c, 7, 49, 89
9, 104115, Note_on_c, 7, 50, 64
9, 104118, Note_off_c, 7, 49, 64
9, 104194, Note_off_c, 7, 50, 64
9, 104241, Note_on_c, 7, 47, 68
9, 104313, Note_off_c, 7, 47, 64
9, 104370, Note_on_c, 7, 47, 82
9, 104473, Note_off_c, 7, 47, 64
9, 104599, Note_on_c, 7, 59, 74
9, 104664, Note_off_c, 7, 59, 64
9, 104721, Note_on_c, 7, 59, 82
9, 104849, Note_off_c, 7, 59, 64
9, 104963, Note_on_c, 7, 59, 66
9, 105018, Note_off_c, 7, 59, 64
9, 105092, Note_on_c, 7, 59, 82
9, 105275, Note_off_c, 7, 59, 64
9, 105684, Note_on_c, 7, 52, 57
9, 105737, Note_off_c, 7, 52, 64
9, 105800, Note_on_c, 7, 52, 66
9, 105927, Note_off_c, 7, 52, 64
9, 106050, Note_on_c, 7, 52, 57
9, 106113, Note_off_c, 7, 52, 64
9, 106172, Note_on_c, 7, 52, 82
9, 106313, Note_off_c, 7, 52, 64
9, 106745, Note_on_c, 7, 57, 58
9, 106797, Note_off_c, 7, 57, 64
9, 106863, Note_on_c, 7, 57, 68
9, 106989, Note_off_c, 7, 57, 64
9, 107126, Note_on_c, 7, 57, 85
9, 107186, Note_off_c, 7, 57, 64
9, 107247, Note_on_c, 7, 57, 80
9, 107402, Note_off_c, 7, 57, 64
9, 107821, Note_on_c, 7, 50, 72
9, 107891, Note_off_c, 7, 50, 64
9, 107959, Note_on_c, 7, 47, 68
9, 108077, Note_off_c, 7, 47, 64
9, 108183, Note_on_c, 7, 47, 68
9, 108267, Note_off_c, 7, 47, 64
9, 108307, Note_on_c, 7, 49, 76
9, 108426, Note_off_c, 7, 49, 64
9, 108530, Note_on_c, 7, 50, 68
9, 108602, Note_off_c, 7, 50, 64
9, 108656, Note_on_c, 7, 52, 76
9, 108786, Note_off_c, 7, 52, 64
9, 108885, Note_on_c, 7, 50, 72
9, 108959, Note_off_c, 7, 50, 64
9, 109027, Note_on_c, 7, 49, 89
9, 109151, Note_off_c, 7, 49, 64
9, 109261, Note_on_c, 7, 49, 60
9, 109337, Note_off_c, 7, 49, 64
9, 109394, Note_on_c, 7, 50, 72
9, 109533, Note_off_c, 7, 50, 64
9, 109621, Note_on_c, 7, 52, 70
9, 109711, Note_off_c, 7, 52, 64
9, 109760, Note_on_c, 7, 54, 85
9, 109889, Note_off_c, 7, 54, 64
9, 110150, Note_on_c, 7, 50, 82
9, 110276, Note_off_c, 7, 50, 64
9, 110505, Note_on_c, 7, 49, 72
9, 110609, Note_off_c, 7, 49, 64
9, 110886, Note_on_c, 7, 47, 80
9, 110982, Note_on_c, 7, 50, 80
9, 111012, Note_off_c, 7, 47, 64
9, 111090, Note_on_c, 7, 54, 68
9, 111111, Note_off_c, 7, 50, 64
9, 111164, Note_off_c, 7, 54, 64
9, 111225, Note_on_c, 7, 59, 80
9, 111336, Note_on_c, 7, 61, 63
9, 111356, Note_off_c, 7, 59, 64
9, 111432, Note_off_c, 7, 61, 64
9, 111441, Note_on_c, 7, 57, 66
9, 111491, Note_off_c, 7, 57, 64
9, 111567, Note_on_c, 7, 57, 85
9, 111659, Note_on_c, 7, 59, 68
9, 111684, Note_off_c, 7, 57, 64
9, 111738, Note_off_c, 7, 59, 64
9, 111789, Note_on_c, 7, 56, 95
9, 111853, Note_off_c, 7, 56, 64
9, 111936, Note_on_c, 7, 56, 95
9, 112233, Note_off_c, 7, 56, 64
9, 112521, Note_on_c, 7, 52, 66
9, 112593, Note_off_c, 7, 52, 64
9, 112649, Note_on_c, 7, 49, 80
9, 112767, Note_off_c, 7, 49, 64
9, 112874, Note_on_c, 7, 52, 78
9, 112935, Note_off_c, 7, 52, 64
9, 113007, Note_on_c, 7, 45, 74
9, 113136, Note_off_c, 7, 45, 64
9, 113230, Note_on_c, 7, 47, 68
9, 113306, Note_off_c, 7, 47, 64
9, 113354, Note_on_c, 7, 49, 85
9, 113491, Note_off_c, 7, 49, 64
9, 113599, Note_on_c, 7, 50, 68
9, 113675, Note_off_c, 7, 50, 64
9, 113723, Note_on_c, 7, 52, 78
9, 113824, Note_off_c, 7, 52, 64
9, 113966, Note_on_c, 7, 40, 74
9, 114047, Note_off_c, 7, 40, 64
9, 114105, Note_on_c, 7, 45, 82
9, 114477, Note_off_c, 7, 45, 64
9, 128370, Note_on_c, 7, 54, 57
9, 128415, Note_off_c, 7, 54, 64
9, 128489, Note_on_c, 7, 54, 82
9, 128634, Note_off_c, 7, 54, 64
9, 128715, Note_on_c, 7, 54, 64
9, 128778, Note_off_c, 7, 54, 64
9, 128840, Note_on_c, 7, 54, 66
9, 128962, Note_off_c, 7, 54, 64
9, 129077, Note_on_c, 7, 54, 58
9, 129137, Note_off_c, 7, 54, 64
9, 129203, Note_on_c, 7, 54, 82
9, 129309, Note_off_c, 7, 54, 64
9, 129446, Note_on_c, 7, 42, 66
9, 129511, Note_off_c, 7, 42, 64
9, 129567, Note_on_c, 7, 42, 82
9, 129704, Note_off_c, 7, 42, 64
9, 129810, Note_on_c, 7, 42, 82
9, 129885, Note_off_c, 7, 42, 64
9, 129930, Note_on_c, 7, 42, 87
9, 130037, Note_off_c, 7, 42, 64
9, 130137, Note_on_c, 7, 42, 85
9, 130213, Note_off_c, 7, 42, 64
9, 130287, Note_on_c, 7, 42, 100
9, 130431, Note_off_c, 7, 42, 64
9, 130505, Note_on_c, 7, 52, 68
9, 130573, Note_off_c, 7, 52, 64
9, 130627, Note_on_c, 7, 50, 70
9, 130755, Note_off_c, 7, 50, 64
9, 130865, Note_on_c, 7, 55, 68
9, 130938, Note_off_c, 7, 55, 64
9, 131005, Note_on_c, 7, 49, 74
9, 131126, Note_off_c, 7, 49, 64
9, 131217, Note_on_c, 7, 54, 64
9, 131295, Note_off_c, 7, 54, 64
9, 131365, Note_on_c, 7, 47, 87
9, 131471, Note_off_c, 7, 47, 64
9, 131574, Note_on_c, 7, 54, 63
9, 131646, Note_off_c, 7, 54, 64
9, 131722, Note_on_c, 7, 59, 82
9, 131838, Note_on_c, 7, 61, 64
9, 131846, Note_off_c, 7, 59, 64
9, 131914, Note_off_c, 7, 61, 64
9, 131945, Note_on_c, 7, 57, 64
9, 131997, Note_off_c, 7, 57, 64
9, 132072, Note_on_c, 7, 57, 87
9, 132184, Note_on_c, 7, 59, 60
9, 132202, Note_off_c, 7, 57, 64
9, 132265, Note_off_c, 7, 59, 64
9, 132297, Note_on_c, 7, 55, 68
9, 132350, Note_off_c, 7, 55, 64
9, 132429, Note_on_c, 7, 55, 80
9, 132524, Note_off_c, 7, 55, 64
9, 132544, Note_on_c, 7, 52, 80
9, 132643, Note_on_c, 7, 54, 66
9, 132674, Note_off_c, 7, 52, 64
9, 132764, Note_off_c, 7, 54, 64
9, 132773, Note_on_c, 7, 55, 82
9, 132884, Note_on_c, 7, 57, 78
9, 132899, Note_off_c, 7, 55, 64
9, 132963, Note_off_c, 7, 57, 64
9, 133021, Note_on_c, 7, 54, 80
9, 133073, Note_off_c, 7, 54, 64
9, 133160, Note_on_c, 7, 54, 93
9, 133264, Note_on_c, 7, 55, 66
9, 133291, Note_off_c, 7, 54, 64
9, 133343, Note_off_c, 7, 55, 64
9, 133392, Note_on_c, 7, 52, 68
9, 133440, Note_off_c, 7, 52, 64
9, 133523, Note_on_c, 7, 52, 78
9, 133662, Note_off_c, 7, 52, 64
9, 133746, Note_on_c, 7, 50, 66
9, 133827, Note_off_c, 7, 50, 64
9, 133890, Note_on_c, 7, 49, 70
9, 134034, Note_off_c, 7, 49, 64
9, 134097, Note_on_c, 7, 52, 80
9, 134165, Note_off_c, 7, 52, 64
9, 134254, Note_on_c, 7, 46, 63
9, 134375, Note_off_c, 7, 46, 64
9, 134488, Note_on_c, 7, 49, 78
9, 134570, Note_off_c, 7, 49, 64
9, 134630, Note_on_c, 7, 42, 64
9, 135012, Note_off_c, 7, 42, 64
9, 135221, Note_on_c, 7, 55, 66
9, 135291, Note_off_c, 7, 55, 64
9, 135343, Note_on_c, 7, 54, 85
9, 135455, Note_off_c, 7, 54, 64
9, 135570, Note_on_c, 7, 52, 66
9, 135633, Note_off_c, 7, 52, 64
9, 135744, Note_on_c, 7, 50, 89
9, 135840, Note_off_c, 7, 50, 64
9, 135937, Note_on_c, 7, 47, 58
9, 136013, Note_off_c, 7, 47, 64
9, 136065, Note_on_c, 7, 52, 74
9, 136176, Note_on_c, 7, 54, 76
9, 136178, Note_off_c, 7, 52, 64
9, 136266, Note_off_c, 7, 54, 64
9, 136295, Note_on_c, 7, 55, 89
9, 136360, Note_off_c, 7, 55, 64
9, 136428, Note_on_c, 7, 54, 100
9, 136544, Note_off_c, 7, 54, 64
9, 136659, Note_on_c, 7, 42, 70
9, 136734, Note_off_c, 7, 42, 64
9, 136785, Note_on_c, 7, 47, 87
9, 137010, Note_off_c, 7, 47, 64
9, 200530, Note_on_c, 7, 54, 110
9, 200786, Note_off_c, 7, 54, 64
9, 201015, Note_on_c, 7, 50, 87
9, 201259, Note_off_c, 7, 50, 64
9, 201303, Note_on_c, 7, 52, 89
9, 201338, Note_off_c, 7, 52, 64
9, 201356, Note_on_c, 7, 54, 100
9, 201389, Note_off_c, 7, 54, 64
9, 201410, Note_on_c, 7, 50, 95
9, 201448, Note_off_c, 7, 50, 64
9, 201480, Note_on_c, 7, 60, 100
9, 202215, Note_off_c, 7, 60, 64
9, 202257, Note_on_c, 7, 59, 98
9, 202288, Note_off_c, 7, 59, 64
9, 202312, Note_on_c, 7, 60, 98
9, 202340, Note_off_c, 7, 60, 64
9, 202367, Note_on_c, 7, 57, 100
9, 202402, Note_off_c, 7, 57, 64
9, 202439, Note_on_c, 7, 63, 105
9, 202952, Note_off_c, 7, 63, 64
9, 202984, Note_on_c, 7, 61, 87
9, 203018, Note_off_c, 7, 61, 64
9, 203044, Note_on_c, 7, 59, 80
9, 203080, Note_off_c, 7, 59, 64
9, 203103, Note_on_c, 7, 61, 98
9, 203135, Note_off_c, 7, 61, 64
9, 203160, Note_on_c, 7, 63, 100
9, 203197, Note_off_c, 7, 63, 64
9, 203216, Note_on_c, 7, 61, 102
9, 203251, Note_off_c, 7, 61, 64
9, 203271, Note_on_c, 7, 63, 102
9, 203310, Note_off_c, 7, 63, 64
9, 203324, Note_on_c, 7, 59, 80
9, 203363, Note_off_c, 7, 59, 64
9, 203391, Note_on_c, 7, 64, 95
9, 203461, Note_off_c, 7, 64, 64
9, 203578, Note_on_c, 7, 59, 82
9, 203612, Note_off_c, 7, 59, 64
9, 203642, Note_on_c, 7, 59, 98
9, 203703, Note_off_c, 7, 59, 64
9, 203814, Note_on_c, 7, 55, 82
9, 203851, Note_off_c, 7, 55, 64
9, 203879, Note_on_c, 7, 55, 93
9, 203934, Note_off_c, 7, 55, 64
9, 204051, Note_on_c, 7, 52, 85
9, 204084, Note_off_c, 7, 52, 64
9, 204110, Note_on_c, 7, 52, 95
9, 204173, Note_off_c, 7, 52, 64
9, 204290, Note_on_c, 7, 45, 82
9, 204330, Note_off_c, 7, 45, 64
9, 204352, Note_on_c, 7, 45, 100
9, 204440, Note_off_c, 7, 45, 64
9, 204527, Note_on_c, 7, 57, 80
9, 204560, Note_off_c, 7, 57, 64
9, 204592, Note_on_c, 7, 57, 100
9, 204664, Note_off_c, 7, 57, 64
9, 204775, Note_on_c, 7, 52, 85
9, 204807, Note_off_c, 7, 52, 64
9, 204836, Note_on_c, 7, 52, 91
9, 204905, Note_off_c, 7, 52, 64
9, 205014, Note_on_c, 7, 49, 100
9, 205049, Note_off_c, 7, 49, 64
9, 205075, Note_on_c, 7, 49, 95
9, 205142, Note_off_c, 7, 49, 64
9, 205255, Note_on_c, 7, 45, 98
9, 205297, Note_off_c, 7, 45, 64
9, 205318, Note_on_c, 7, 50, 98
9, 205399, Note_off_c, 7, 50, 64
9, 205498, Note_on_c, 7, 45, 82
9, 205533, Note_off_c, 7, 45, 64
9, 205556, Note_on_c, 7, 45, 95
9, 205627, Note_off_c, 7, 45, 64
9, 205734, Note_on_c, 7, 42, 107
9, 205767, Note_off_c, 7, 42, 64
9, 205793, Note_on_c, 7, 42, 105
9, 205864, Note_off_c, 7, 42, 64
9, 205983, Note_on_c, 7, 38, 87
9, 206015, Note_off_c, 7, 38, 64
9, 206042, Note_on_c, 7, 38, 105
9, 206110, Note_off_c, 7, 38, 64
9, 206214, Note_on_c, 7, 42, 91
9, 206253, Note_off_c, 7, 42, 64
9, 206279, Note_on_c, 7, 43, 110
9, 206359, Note_off_c, 7, 43, 64
9, 206449, Note_on_c, 7, 47, 82
9, 206484, Note_off_c, 7, 47, 64
9, 206512, Note_on_c, 7, 47, 100
9, 206582, Note_off_c, 7, 47, 64
9, 206688, Note_on_c, 7, 52, 82
9, 206723, Note_off_c, 7, 52, 64
9, 206747, Note_on_c, 7, 52, 93
9, 206821, Note_off_c, 7, 52, 64
9, 206934, Note_on_c, 7, 55, 82
9, 206968, Note_off_c, 7, 55, 64
9, 206993, Note_on_c, 7, 55, 85
9, 207069, Note_off_c, 7, 55, 64
9, 207163, Note_on_c, 7, 52, 82
9, 207200, Note_off_c, 7, 52, 64
9, 207229, Note_on_c, 7, 49, 93
9, 207308, Note_off_c, 7, 49, 64
9, 207422, Note_on_c, 7, 45, 105
9, 207455, Note_off_c, 7, 45, 64
9, 207479, Note_on_c, 7, 45, 98
9, 207560, Note_off_c, 7, 45, 64
9, 207648, Note_on_c, 7, 49, 74
9, 207682, Note_off_c, 7, 49, 64
9, 207708, Note_on_c, 7, 50, 87
9, 208449, Note_off_c, 7, 50, 64
9, 208481, Note_on_c, 7, 49, 93
9, 208520, Note_off_c, 7, 49, 64
9, 208541, Note_on_c, 7, 50, 87
9, 208579, Note_off_c, 7, 50, 64
9, 208599, Note_on_c, 7, 47, 85
9, 208632, Note_off_c, 7, 47, 64
9, 208670, Note_on_c, 7, 49, 105
9, 208753, Note_off_c, 7, 49, 64
9, 208914, Note_on_c, 7, 45, 82
9, 209001, Note_off_c, 7, 45, 64
9, 209158, Note_on_c, 7, 50, 85
9, 209657, Note_off_c, 7, 50, 64
9, 209703, Note_on_c, 7, 50, 87
9, 209747, Note_off_c, 7, 50, 64
9, 209761, Note_on_c, 7, 52, 87
9, 209797, Note_off_c, 7, 52, 64
9, 209818, Note_on_c, 7, 54, 91
9, 209854, Note_off_c, 7, 54, 64
9, 209881, Note_on_c, 7, 55, 87
9, 209921, Note_off_c, 7, 55, 64
9, 209940, Note_on_c, 7, 54, 100
9, 209976, Note_off_c, 7, 54, 64
9, 209994, Note_on_c, 7, 55, 85
9, 210033, Note_off_c, 7, 55, 64
9, 210056, Note_on_c, 7, 52, 91
9, 210084, Note_off_c, 7, 52, 64
9, 210123, Note_on_c, 7, 50, 105
9, 210235, Note_off_c, 7, 50, 64
9, 210246, Note_on_c, 7, 49, 87
9, 210450, Note_off_c, 7, 49, 64
9, 210527, Note_on_c, 7, 47, 98
9, 210563, Note_off_c, 7, 47, 64
9, 210590, Note_on_c, 7, 46, 100
9, 210685, Note_off_c, 7, 46, 64
9, 210834, Note_on_c, 7, 42, 91
9, 210925, Note_off_c, 7, 42, 64
9, 211078, Note_on_c, 7, 47, 89
9, 211583, Note_off_c, 7, 47, 64
9, 211624, Note_on_c, 7, 45, 95
9, 211661, Note_off_c, 7, 45, 64
9, 211679, Note_on_c, 7, 47, 89
9, 211712, Note_off_c, 7, 47, 64
9, 211737, Note_on_c, 7, 49, 91
9, 211772, Note_off_c, 7, 49, 64
9, 211799, Note_on_c, 7, 50, 82
9, 211834, Note_off_c, 7, 50, 64
9, 211860, Note_on_c, 7, 49, 98
9, 211893, Note_off_c, 7, 49, 64
9, 211917, Note_on_c, 7, 50, 82
9, 211952, Note_off_c, 7, 50, 64
9, 211982, Note_on_c, 7, 47, 82
9, 212017, Note_off_c, 7, 47, 64
9, 212043, Note_on_c, 7, 49, 98
9, 212120, Note_off_c, 7, 49, 64
9, 212208, Note_on_c, 7, 45, 82
9, 212250, Note_off_c, 7, 45, 64
9, 212271, Note_on_c, 7, 50, 87
9, 212347, Note_off_c, 7, 50, 64
9, 212443, Note_on_c, 7, 52, 64
9, 212481, Note_off_c, 7, 52, 64
9, 212504, Note_on_c, 7, 54, 87
9, 212578, Note_off_c, 7, 54, 64
9, 212684, Note_on_c, 7, 55, 82
9, 212726, Note_off_c, 7, 55, 64
9, 212749, Note_on_c, 7, 52, 100
9, 212820, Note_off_c, 7, 52, 64
9, 212932, Note_on_c, 7, 50, 82
9, 212961, Note_off_c, 7, 50, 64
9, 213004, Note_on_c, 7, 45, 98
9, 213867, Note_off_c, 7, 45, 64
9, 213909, Note_on_c, 7, 45, 95
9, 213936, Note_off_c, 7, 45, 64
9, 213968, Note_on_c, 7, 45, 105
9, 214815, Note_off_c, 7, 45, 64
9, 214858, Note_on_c, 7, 45, 95
9, 214884, Note_off_c, 7, 45, 64
9, 214914, Note_on_c, 7, 45, 100
9, 215763, Note_off_c, 7, 45, 64
9, 215820, Note_on_c, 7, 45, 98
9, 215845, Note_off_c, 7, 45, 64
9, 215877, Note_on_c, 7, 45, 102
9, 216743, Note_off_c, 7, 45, 64
9, 216789, Note_on_c, 7, 45, 100
9, 216820, Note_off_c, 7, 45, 64
9, 216852, Note_on_c, 7, 45, 102
9, 217348, Note_off_c, 7, 45, 64
9, 217384, Note_on_c, 7, 47, 89
9, 217420, Note_off_c, 7, 47, 64
9, 217443, Note_on_c, 7, 45, 82
9, 217484, Note_off_c, 7, 45, 64
9, 217499, Note_on_c, 7, 43, 85
9, 217530, Note_off_c, 7, 43, 64
9, 217557, Note_on_c, 7, 42, 95
9, 217591, Note_off_c, 7, 42, 64
9, 217608, Note_on_c, 7, 40, 78
9, 217641, Note_off_c, 7, 40, 64
9, 217665, Note_on_c, 7, 42, 98
9, 217700, Note_off_c, 7, 42, 64
9, 217720, Note_on_c, 7, 38, 87
9, 217769, Note_off_c, 7, 38, 64
9, 217790, Note_on_c, 7, 47, 100
9, 218291, Note_off_c, 7, 47, 64
9, 218321, Note_on_c, 7, 48, 87
9, 218360, Note_off_c, 7, 48, 64
9, 218382, Note_on_c, 7, 47, 89
9, 218417, Note_off_c, 7, 47, 64
9, 218443, Note_on_c, 7, 45, 78
9, 218486, Note_off_c, 7, 45, 64
9, 218499, Note_on_c, 7, 43, 80
9, 218532, Note_off_c, 7, 43, 64
9, 218555, Note_on_c, 7, 42, 87
9, 218597, Note_off_c, 7, 42, 64
9, 218614, Note_on_c, 7, 43, 82
9, 218646, Note_off_c, 7, 43, 64
9, 218666, Note_on_c, 7, 40, 85
9, 218708, Note_off_c, 7, 40, 64
9, 218739, Note_on_c, 7, 49, 102
9, 218818, Note_off_c, 7, 49, 64
9, 218930, Note_on_c, 7, 45, 64
9, 218976, Note_off_c, 7, 45, 64
9, 218990, Note_on_c, 7, 50, 100
9, 219066, Note_off_c, 7, 50, 64
9, 219167, Note_on_c, 7, 43, 78
9, 219210, Note_off_c, 7, 43, 64
9, 219227, Note_on_c, 7, 45, 89
9, 219328, Note_off_c, 7, 45, 64
9, 219462, Note_on_c, 7, 45, 85
9, 219573, Note_off_c, 7, 45, 64
9, 219714, Note_on_c, 7, 50, 87
9, 219885, Note_off_c, 7, 50, 64
9, 219962, Note_on_c, 7, 52, 80
9, 220013, Note_off_c, 7, 52, 64
9, 220062, Note_on_c, 7, 54, 100
9, 220167, Note_off_c, 7, 54, 64
9, 220173, Note_on_c, 7, 57, 76
9, 220238, Note_off_c, 7, 57, 64
9, 220290, Note_on_c, 7, 56, 82
9, 220337, Note_off_c, 7, 56, 64
9, 220400, Note_on_c, 7, 56, 100
9, 220499, Note_on_c, 7, 59, 80
9, 220518, Note_off_c, 7, 56, 64
9, 220569, Note_off_c, 7, 59, 64
9, 220630, Note_on_c, 7, 57, 80
9, 220688, Note_off_c, 7, 57, 64
9, 220770, Note_on_c, 7, 57, 87
9, 221138, Note_off_c, 7, 57, 64
9, 247288, Note_on_c, 7, 50, 72
9, 247340, Note_off_c, 7, 50, 64
9, 247408, Note_on_c, 7, 50, 89
9, 247533, Note_off_c, 7, 50, 64
9, 247648, Note_on_c, 7, 50, 68
9, 247702, Note_off_c, 7, 50, 64
9, 247787, Note_on_c, 7, 55, 80
9, 247940, Note_off_c, 7, 55, 64
9, 248370, Note_on_c, 7, 52, 57
9, 248420, Note_off_c, 7, 52, 64
9, 248492, Note_on_c, 7, 52, 66
9, 248611, Note_off_c, 7, 52, 64
9, 248715, Note_on_c, 7, 52, 63
9, 248771, Note_off_c, 7, 52, 64
9, 248847, Note_on_c, 7, 57, 82
9, 249014, Note_off_c, 7, 57, 64
9, 249434, Note_on_c, 7, 54, 53
9, 249493, Note_off_c, 7, 54, 64
9, 249560, Note_on_c, 7, 54, 62
9, 249691, Note_off_c, 7, 54, 64
9, 249799, Note_on_c, 7, 54, 63
9, 249858, Note_off_c, 7, 54, 64
9, 249938, Note_on_c, 7, 59, 82
9, 250112, Note_off_c, 7, 59, 64
9, 252468, Note_on_c, 7, 54, 66
9, 252605, Note_off_c, 7, 54, 64
9, 252823, Note_on_c, 7, 42, 68
9, 252960, Note_off_c, 7, 42, 64
9, 253534, Note_on_c, 7, 59, 85
9, 253662, Note_off_c, 7, 59, 64
9, 253896, Note_on_c, 7, 47, 89
9, 254038, Note_off_c, 7, 47, 64
9, 254625, Note_on_c, 7, 52, 85
9, 254751, Note_off_c, 7, 52, 64
9, 254990, Note_on_c, 7, 40, 85
9, 255125, Note_off_c, 7, 40, 64
9, 255701, Note_on_c, 7, 57, 76
9, 255825, Note_off_c, 7, 57, 64
9, 256072, Note_on_c, 7, 45, 85
9, 256200, Note_off_c, 7, 45, 64
9, 256767, Note_on_c, 7, 50, 72
9, 256898, Note_off_c, 7, 50, 64
9, 257148, Note_on_c, 7, 38, 85
9, 257283, Note_off_c, 7, 38, 64
9, 257863, Note_on_c, 7, 50, 80
9, 257994, Note_off_c, 7, 50, 64
9, 258246, Note_on_c, 7, 38, 85
9, 258380, Note_off_c, 7, 38, 64
9, 258603, Note_on_c, 7, 40, 85
9, 261747, Note_off_c, 7, 40, 64
9, 261810, Note_on_c, 7, 41, 72
9, 262014, Note_off_c, 7, 41, 64
9, 262917, Note_on_c, 7, 40, 87
9, 263079, Note_off_c, 7, 40, 64
9, 264208, Note_on_c, 7, 51, 60
9, 264262, Note_off_c, 7, 51, 64
9, 264332, Note_on_c, 7, 51, 68
9, 264456, Note_off_c, 7, 51, 64
9, 264575, Note_on_c, 7, 51, 58
9, 264624, Note_off_c, 7, 51, 64
9, 264696, Note_on_c, 7, 51, 74
9, 264809, Note_off_c, 7, 51, 64
9, 264928, Note_on_c, 7, 51, 56
9, 264996, Note_off_c, 7, 51, 64
9, 265065, Note_on_c, 7, 52, 66
9, 265205, Note_off_c, 7, 52, 64
9, 265304, Note_on_c, 7, 52, 63
9, 265364, Note_off_c, 7, 52, 64
9, 265435, Note_on_c, 7, 52, 68
9, 265563, Note_off_c, 7, 52, 64
9, 265664, Note_on_c, 7, 52, 64
9, 265729, Note_off_c, 7, 52, 64
9, 265796, Note_on_c, 7, 52, 61
9, 265916, Note_off_c, 7, 52, 64
9, 266001, Note_on_c, 7, 52, 64
9, 266073, Note_off_c, 7, 52, 64
9, 266132, Note_on_c, 7, 54, 82
9, 266231, Note_off_c, 7, 54, 64
9, 266370, Note_on_c, 7, 47, 82
9, 266453, Note_off_c, 7, 47, 64
9, 266480, Note_on_c, 7, 49, 66
9, 266585, Note_off_c, 7, 49, 64
9, 266724, Note_on_c, 7, 50, 76
9, 266800, Note_off_c, 7, 50, 64
9, 266854, Note_on_c, 7, 52, 85
9, 266975, Note_off_c, 7, 52, 64
9, 267083, Note_on_c, 7, 52, 80
9, 267177, Note_off_c, 7, 52, 64
9, 267227, Note_on_c, 7, 45, 89
9, 267347, Note_off_c, 7, 45, 64
9, 289892, Note_on_c, 7, 45, 82
9, 290110, Note_off_c, 7, 45, 64
9, 290976, Note_on_c, 7, 45, 68
9, 291181, Note_off_c, 7, 45, 64
9, 292293, Note_on_c, 7, 45, 78
9, 292380, Note_off_c, 7, 45, 64
9, 292427, Note_on_c, 7, 49, 87
9, 292565, Note_off_c, 7, 49, 64
9, 292662, Note_on_c, 7, 52, 85
9, 292724, Note_off_c, 7, 52, 64
9, 292783, Note_on_c, 7, 49, 98
9, 292889, Note_off_c, 7, 49, 64
9, 293024, Note_on_c, 7, 45, 68
9, 293085, Note_off_c, 7, 45, 64
9, 293159, Note_on_c, 7, 50, 87
9, 293375, Note_off_c, 7, 50, 64
9, 294248, Note_on_c, 7, 50, 80
9, 294450, Note_off_c, 7, 50, 64
9, 295319, Note_on_c, 7, 50, 72
9, 295553, Note_off_c, 7, 50, 64
9, 296595, Note_on_c, 7, 50, 78
9, 296676, Note_off_c, 7, 50, 64
9, 296730, Note_on_c, 7, 54, 80
9, 296880, Note_off_c, 7, 54, 64
9, 296979, Note_on_c, 7, 57, 87
9, 297060, Note_off_c, 7, 57, 64
9, 297112, Note_on_c, 7, 54, 85
9, 297216, Note_off_c, 7, 54, 64
9, 297339, Note_on_c, 7, 50, 70
9, 297423, Note_off_c, 7, 50, 64
9, 297485, Note_on_c, 7, 43, 85
9, 297594, Note_off_c, 7, 43, 64
9, 297711, Note_on_c, 7, 55, 68
9, 297771, Note_off_c, 7, 55, 64
9, 297839, Note_on_c, 7, 55, 91
9, 297945, Note_on_c, 7, 57, 64
9, 297960, Note_off_c, 7, 55, 64
9, 298000, Note_off_c, 7, 57, 64
9, 298071, Note_on_c, 7, 54, 89
9, 298118, Note_off_c, 7, 54, 64
9, 298199, Note_on_c, 7, 54, 98
9, 298302, Note_on_c, 7, 55, 70
9, 298329, Note_off_c, 7, 54, 64
9, 298367, Note_off_c, 7, 55, 64
9, 298426, Note_on_c, 7, 52, 68
9, 298469, Note_off_c, 7, 52, 64
9, 298556, Note_on_c, 7, 52, 95
9, 298655, Note_on_c, 7, 54, 68
9, 298691, Note_off_c, 7, 52, 64
9, 298777, Note_on_c, 7, 56, 72
9, 298797, Note_off_c, 7, 54, 64
9, 298869, Note_off_c, 7, 56, 64
9, 298901, Note_on_c, 7, 57, 87
9, 299013, Note_on_c, 7, 59, 78
9, 299036, Note_off_c, 7, 57, 64
9, 299083, Note_off_c, 7, 59, 64
9, 299139, Note_on_c, 7, 55, 78
9, 299186, Note_off_c, 7, 55, 64
9, 299261, Note_on_c, 7, 55, 89
9, 299369, Note_on_c, 7, 57, 64
9, 299384, Note_off_c, 7, 55, 64
9, 299456, Note_off_c, 7, 57, 64
9, 299497, Note_on_c, 7, 54, 62
9, 299558, Note_off_c, 7, 54, 64
9, 299640, Note_on_c, 7, 54, 87
9, 299747, Note_on_c, 7, 56, 74
9, 299771, Note_off_c, 7, 54, 64
9, 299866, Note_on_c, 7, 58, 66
9, 299879, Note_off_c, 7, 56, 64
9, 299947, Note_off_c, 7, 58, 64
9, 299992, Note_on_c, 7, 59, 91
9, 300105, Note_on_c, 7, 61, 70
9, 300118, Note_off_c, 7, 59, 64
9, 300192, Note_off_c, 7, 61, 64
9, 300226, Note_on_c, 7, 57, 70
9, 300282, Note_off_c, 7, 57, 64
9, 300361, Note_on_c, 7, 57, 89
9, 300469, Note_on_c, 7, 59, 70
9, 300471, Note_off_c, 7, 57, 64
9, 300532, Note_off_c, 7, 59, 64
9, 300587, Note_on_c, 7, 56, 72
9, 300636, Note_off_c, 7, 56, 64
9, 300707, Note_on_c, 7, 56, 93
9, 300813, Note_on_c, 7, 58, 68
9, 300840, Note_off_c, 7, 56, 64
9, 300916, Note_off_c, 7, 58, 64
9, 300929, Note_on_c, 7, 59, 78
9, 301027, Note_off_c, 7, 59, 64
9, 301068, Note_on_c, 7, 61, 95
9, 301176, Note_on_c, 7, 62, 78
9, 301205, Note_off_c, 7, 61, 64
9, 301245, Note_off_c, 7, 62, 64
9, 301297, Note_on_c, 7, 59, 70
9, 301347, Note_off_c, 7, 59, 64
9, 301419, Note_on_c, 7, 59, 98
9, 301527, Note_off_c, 7, 59, 64
9, 301535, Note_on_c, 7, 61, 57
9, 301610, Note_off_c, 7, 61, 64
9, 301652, Note_on_c, 7, 58, 61
9, 301702, Note_off_c, 7, 58, 64
9, 301794, Note_on_c, 7, 58, 100
9, 301988, Note_off_c, 7, 58, 64
9, 313910, Note_on_c, 7, 59, 76
9, 313955, Note_off_c, 7, 59, 64
9, 314041, Note_on_c, 7, 59, 91
9, 314144, Note_on_c, 7, 60, 66
9, 314147, Note_off_c, 7, 59, 64
9, 314212, Note_off_c, 7, 60, 64
9, 314252, Note_on_c, 7, 57, 60
9, 314304, Note_off_c, 7, 57, 64
9, 314388, Note_on_c, 7, 57, 87
9, 314486, Note_on_c, 7, 59, 68
9, 314490, Note_off_c, 7, 57, 64
9, 314572, Note_off_c, 7, 59, 64
9, 314603, Note_on_c, 7, 55, 70
9, 314658, Note_off_c, 7, 55, 64
9, 314732, Note_on_c, 7, 55, 80
9, 314835, Note_on_c, 7, 57, 80
9, 314865, Note_off_c, 7, 55, 64
9, 314964, Note_on_c, 7, 59, 68
9, 314981, Note_off_c, 7, 57, 64
9, 315029, Note_off_c, 7, 59, 64
9, 315098, Note_on_c, 7, 60, 89
9, 315204, Note_on_c, 7, 62, 68
9, 315213, Note_off_c, 7, 60, 64
9, 315285, Note_off_c, 7, 62, 64
9, 315317, Note_on_c, 7, 59, 68
9, 315371, Note_off_c, 7, 59, 64
9, 315447, Note_on_c, 7, 59, 85
9, 315555, Note_on_c, 7, 60, 66
9, 315560, Note_off_c, 7, 59, 64
9, 315656, Note_off_c, 7, 60, 64
9, 315670, Note_on_c, 7, 57, 61
9, 315733, Note_off_c, 7, 57, 64
9, 315807, Note_on_c, 7, 57, 66
9, 315931, Note_off_c, 7, 57, 64
9, 316053, Note_on_c, 7, 57, 57
9, 316115, Note_off_c, 7, 57, 64
9, 316192, Note_on_c, 7, 57, 63
9, 316313, Note_off_c, 7, 57, 64
9, 316419, Note_on_c, 7, 57, 66
9, 316475, Note_off_c, 7, 57, 64
9, 316554, Note_on_c, 7, 57, 80
9, 316692, Note_off_c, 7, 57, 64
9, 316779, Note_on_c, 7, 57, 63
9, 316836, Note_off_c, 7, 57, 64
9, 316912, Note_on_c, 7, 57, 87
9, 317009, Note_off_c, 7, 57, 64
9, 317029, Note_on_c, 7, 54, 72
9, 317124, Note_on_c, 7, 55, 70
9, 317150, Note_off_c, 7, 54, 64
9, 317209, Note_off_c, 7, 55, 64
9, 317267, Note_on_c, 7, 57, 82
9, 317375, Note_on_c, 7, 66, 72
9, 317384, Note_off_c, 7, 57, 64
9, 317447, Note_off_c, 7, 66, 64
9, 317488, Note_on_c, 7, 55, 64
9, 317553, Note_off_c, 7, 55, 64
9, 317623, Note_on_c, 7, 57, 89
9, 317724, Note_on_c, 7, 55, 62
9, 317735, Note_off_c, 7, 57, 64
9, 317835, Note_off_c, 7, 55, 64
9, 317839, Note_on_c, 7, 54, 58
9, 317893, Note_off_c, 7, 54, 64
9, 317972, Note_on_c, 7, 55, 85
9, 318086, Note_on_c, 7, 52, 62
9, 318109, Note_off_c, 7, 55, 64
9, 318199, Note_on_c, 7, 54, 78
9, 318221, Note_off_c, 7, 52, 64
9, 318275, Note_off_c, 7, 54, 64
9, 318339, Note_on_c, 7, 55, 78
9, 318456, Note_on_c, 7, 64, 66
9, 318467, Note_off_c, 7, 55, 64
9, 318521, Note_off_c, 7, 64, 64
9, 318572, Note_on_c, 7, 54, 82
9, 318636, Note_off_c, 7, 54, 64
9, 318701, Note_on_c, 7, 55, 82
9, 318807, Note_on_c, 7, 54, 64
9, 318831, Note_off_c, 7, 55, 64
9, 318914, Note_off_c, 7, 54, 64
9, 318915, Note_on_c, 7, 52, 66
9, 318980, Note_off_c, 7, 52, 64
9, 319038, Note_on_c, 7, 54, 89
9, 319149, Note_on_c, 7, 50, 66
9, 319193, Note_off_c, 7, 54, 64
9, 319254, Note_on_c, 7, 52, 63
9, 319284, Note_off_c, 7, 50, 64
9, 319306, Note_off_c, 7, 52, 64
9, 319391, Note_on_c, 7, 54, 80
9, 319508, Note_on_c, 7, 62, 68
9, 319517, Note_off_c, 7, 54, 64
9, 319583, Note_off_c, 7, 62, 64
9, 319621, Note_on_c, 7, 52, 64
9, 319684, Note_off_c, 7, 52, 64
9, 319756, Note_on_c, 7, 54, 87
9, 319862, Note_on_c, 7, 52, 63
9, 319877, Note_off_c, 7, 54, 64
9, 319963, Note_off_c, 7, 52, 64
9, 319968, Note_on_c, 7, 50, 64
9, 320040, Note_off_c, 7, 50, 64
9, 320103, Note_on_c, 7, 52, 87
9, 320219, Note_on_c, 7, 48, 66
9, 320253, Note_off_c, 7, 52, 64
9, 320336, Note_on_c, 7, 50, 68
9, 320348, Note_off_c, 7, 48, 64
9, 320389, Note_off_c, 7, 50, 64
9, 320474, Note_on_c, 7, 52, 85
9, 320588, Note_on_c, 7, 60, 60
9, 320604, Note_off_c, 7, 52, 64
9, 320654, Note_off_c, 7, 60, 64
9, 320705, Note_on_c, 7, 50, 70
9, 320766, Note_off_c, 7, 50, 64
9, 320834, Note_on_c, 7, 52, 82
9, 320951, Note_on_c, 7, 50, 80
9, 320971, Note_off_c, 7, 52, 64
9, 321038, Note_off_c, 7, 50, 64
9, 321057, Note_on_c, 7, 48, 66
9, 321128, Note_off_c, 7, 48, 64
9, 321200, Note_on_c, 7, 50, 85
9, 321374, Note_off_c, 7, 50, 64
9, 322533, Note_on_c, 7, 50, 58
9, 322587, Note_off_c, 7, 50, 64
9, 322660, Note_on_c, 7, 50, 66
9, 322791, Note_off_c, 7, 50, 64
9, 322892, Note_on_c, 7, 50, 68
9, 322958, Note_off_c, 7, 50, 64
9, 323041, Note_on_c, 7, 50, 85
9, 323151, Note_off_c, 7, 50, 64
9, 323252, Note_on_c, 7, 50, 70
9, 323316, Note_off_c, 7, 50, 64
9, 323378, Note_on_c, 7, 50, 80
9, 323486, Note_off_c, 7, 50, 64
9, 323613, Note_on_c, 7, 38, 66
9, 323660, Note_off_c, 7, 38, 64
9, 323738, Note_on_c, 7, 38, 78
9, 323871, Note_off_c, 7, 38, 64
9, 323970, Note_on_c, 7, 38, 76
9, 324035, Note_off_c, 7, 38, 64
9, 324105, Note_on_c, 7, 38, 80
9, 324216, Note_off_c, 7, 38, 64
9, 324315, Note_on_c, 7, 38, 78
9, 324380, Note_off_c, 7, 38, 64
9, 324454, Note_on_c, 7, 38, 87
9, 324572, Note_off_c, 7, 38, 64
9, 324677, Note_on_c, 7, 48, 70
9, 324755, Note_off_c, 7, 48, 64
9, 324792, Note_on_c, 7, 47, 78
9, 324924, Note_off_c, 7, 47, 64
9, 325048, Note_on_c, 7, 52, 82
9, 325125, Note_off_c, 7, 52, 64
9, 325187, Note_on_c, 7, 45, 87
9, 325302, Note_off_c, 7, 45, 64
9, 325403, Note_on_c, 7, 50, 76
9, 325475, Note_off_c, 7, 50, 64
9, 325538, Note_on_c, 7, 43, 89
9, 325638, Note_off_c, 7, 43, 64
9, 325743, Note_on_c, 7, 50, 66
9, 325811, Note_off_c, 7, 50, 64
9, 325887, Note_on_c, 7, 55, 93
9, 325997, Note_on_c, 7, 57, 68
9, 326006, Note_off_c, 7, 55, 64
9, 326056, Note_off_c, 7, 57, 64
9, 326110, Note_on_c, 7, 54, 85
9, 326160, Note_off_c, 7, 54, 64
9, 326234, Note_on_c, 7, 54, 91
9, 326341, Note_on_c, 7, 55, 64
9, 326367, Note_off_c, 7, 54, 64
9, 326414, Note_off_c, 7, 55, 64
9, 326459, Note_on_c, 7, 52, 66
9, 326511, Note_off_c, 7, 52, 64
9, 326600, Note_on_c, 7, 52, 85
9, 326709, Note_on_c, 7, 48, 70
9, 326740, Note_off_c, 7, 52, 64
9, 326828, Note_on_c, 7, 50, 80
9, 326843, Note_off_c, 7, 48, 64
9, 326933, Note_off_c, 7, 50, 64
9, 326958, Note_on_c, 7, 52, 89
9, 327068, Note_on_c, 7, 53, 68
9, 327075, Note_off_c, 7, 52, 64
9, 327147, Note_off_c, 7, 53, 64
9, 327194, Note_on_c, 7, 50, 70
9, 327248, Note_off_c, 7, 50, 64
9, 327321, Note_on_c, 7, 50, 85
9, 327437, Note_on_c, 7, 52, 64
9, 327451, Note_off_c, 7, 50, 64
9, 327536, Note_off_c, 7, 52, 64
9, 327564, Note_on_c, 7, 48, 66
9, 327624, Note_off_c, 7, 48, 64
9, 327698, Note_on_c, 7, 48, 78
9, 327843, Note_off_c, 7, 48, 64
9, 327919, Note_on_c, 7, 47, 72
9, 327995, Note_off_c, 7, 47, 64
9, 328045, Note_on_c, 7, 45, 82
9, 328157, Note_off_c, 7, 45, 64
9, 328261, Note_on_c, 7, 48, 78
9, 328337, Note_off_c, 7, 48, 64
9, 328396, Note_on_c, 7, 42, 72
9, 328531, Note_off_c, 7, 42, 64
9, 328623, Note_on_c, 7, 45, 76
9, 328698, Note_off_c, 7, 45, 64
9, 328778, Note_on_c, 7, 36, 93
9, 329116, Note_off_c, 7, 36, 64
9, 329354, Note_on_c, 7, 52, 78
9, 329420, Note_off_c, 7, 52, 64
9, 329478, Note_on_c, 7, 50, 87
9, 329609, Note_off_c, 7, 50, 64
9, 329721, Note_on_c, 7, 48, 74
9, 329791, Note_off_c, 7, 48, 64
9, 329856, Note_on_c, 7, 47, 85
9, 329966, Note_on_c, 7, 48, 82
9, 329975, Note_off_c, 7, 47, 64
9, 330070, Note_off_c, 7, 48, 64
9, 330081, Note_on_c, 7, 50, 80
9, 330149, Note_off_c, 7, 50, 64
9, 330212, Note_on_c, 7, 52, 82
9, 330324, Note_off_c, 7, 52, 64
9, 330426, Note_on_c, 7, 48, 72
9, 330507, Note_off_c, 7, 48, 64
9, 330567, Note_on_c, 7, 50, 85
9, 330650, Note_off_c, 7, 50, 64
9, 330791, Note_on_c, 7, 38, 80
9, 330866, Note_off_c, 7, 38, 64
9, 330934, Note_on_c, 7, 43, 87
9, 331060, Note_off_c, 7, 43, 64
9, 331163, Note_on_c, 7, 62, 68
9, 331216, Note_off_c, 7, 62, 64
9, 331296, Note_on_c, 7, 62, 93
9, 331402, Note_on_c, 7, 64, 68
9, 331425, Note_off_c, 7, 62, 64
9, 331478, Note_off_c, 7, 64, 64
9, 331523, Note_on_c, 7, 60, 60
9, 331569, Note_off_c, 7, 60, 64
9, 331656, Note_on_c, 7, 60, 91
9, 331758, Note_on_c, 7, 62, 66
9, 331776, Note_off_c, 7, 60, 64
9, 331838, Note_off_c, 7, 62, 64
9, 331870, Note_on_c, 7, 59, 57
9, 331919, Note_off_c, 7, 59, 64
9, 332009, Note_on_c, 7, 59, 82
9, 332115, Note_on_c, 7, 60, 68
9, 332145, Note_off_c, 7, 59, 64
9, 332241, Note_off_c, 7, 60, 64
9, 332248, Note_on_c, 7, 62, 80
9, 332315, Note_off_c, 7, 62, 64
9, 332378, Note_on_c, 7, 62, 95
9, 332484, Note_on_c, 7, 64, 68
9, 332495, Note_off_c, 7, 62, 64
9, 332567, Note_off_c, 7, 64, 64
9, 332606, Note_on_c, 7, 60, 63
9, 332649, Note_off_c, 7, 60, 64
9, 332734, Note_on_c, 7, 60, 91
9, 332838, Note_on_c, 7, 62, 68
9, 332858, Note_off_c, 7, 60, 64
9, 332923, Note_off_c, 7, 62, 64
9, 332950, Note_on_c, 7, 59, 57
9, 333006, Note_off_c, 7, 59, 64
9, 333098, Note_on_c, 7, 59, 72
9, 333281, Note_off_c, 7, 59, 64
9, 354942, Note_on_c, 7, 62, 56
9, 354993, Note_off_c, 7, 62, 64
9, 355074, Note_on_c, 7, 62, 93
9, 355180, Note_on_c, 7, 64, 68
9, 355205, Note_off_c, 7, 62, 64
9, 355254, Note_off_c, 7, 64, 64
9, 355290, Note_on_c, 7, 60, 58
9, 355338, Note_off_c, 7, 60, 64
9, 355428, Note_on_c, 7, 60, 89
9, 355533, Note_on_c, 7, 62, 61
9, 355545, Note_off_c, 7, 60, 64
9, 355625, Note_off_c, 7, 62, 64
9, 355644, Note_on_c, 7, 59, 58
9, 355694, Note_off_c, 7, 59, 64
9, 355778, Note_on_c, 7, 59, 93
9, 355891, Note_on_c, 7, 61, 59
9, 355913, Note_off_c, 7, 59, 64
9, 356001, Note_off_c, 7, 61, 64
9, 356008, Note_on_c, 7, 62, 82
9, 356112, Note_off_c, 7, 62, 64
9, 356139, Note_on_c, 7, 64, 85
9, 356256, Note_on_c, 7, 66, 60
9, 356267, Note_off_c, 7, 64, 64
9, 356343, Note_off_c, 7, 66, 64
9, 356366, Note_on_c, 7, 62, 63
9, 356415, Note_off_c, 7, 62, 64
9, 356503, Note_on_c, 7, 62, 91
9, 356611, Note_on_c, 7, 64, 60
9, 356629, Note_off_c, 7, 62, 64
9, 356694, Note_off_c, 7, 64, 64
9, 356733, Note_on_c, 7, 61, 52
9, 356787, Note_off_c, 7, 61, 64
9, 356876, Note_on_c, 7, 61, 53
9, 356975, Note_off_c, 7, 61, 64
9, 357115, Note_on_c, 7, 61, 47
9, 357176, Note_off_c, 7, 61, 64
9, 357246, Note_on_c, 7, 61, 60
9, 357351, Note_off_c, 7, 61, 64
9, 357470, Note_on_c, 7, 61, 49
9, 357527, Note_off_c, 7, 61, 64
9, 357596, Note_on_c, 7, 61, 70
9, 357693, Note_off_c, 7, 61, 64
9, 357817, Note_on_c, 7, 61, 55
9, 357900, Note_off_c, 7, 61, 64
9, 357943, Note_on_c, 7, 62, 74
9, 358029, Note_off_c, 7, 62, 64
9, 358170, Note_on_c, 7, 57, 82
9, 358227, Note_off_c, 7, 57, 64
9, 358299, Note_on_c, 7, 57, 100
9, 358400, Note_on_c, 7, 59, 66
9, 358416, Note_off_c, 7, 57, 64
9, 358474, Note_off_c, 7, 59, 64
9, 358521, Note_on_c, 7, 55, 72
9, 358573, Note_off_c, 7, 55, 64
9, 358645, Note_on_c, 7, 55, 89
9, 358750, Note_on_c, 7, 57, 64
9, 358755, Note_off_c, 7, 55, 64
9, 358830, Note_off_c, 7, 57, 64
9, 358881, Note_on_c, 7, 54, 66
9, 358935, Note_off_c, 7, 54, 64
9, 359007, Note_on_c, 7, 54, 78
9, 359118, Note_on_c, 7, 56, 66
9, 359140, Note_off_c, 7, 54, 64
9, 359223, Note_off_c, 7, 56, 64
9, 359226, Note_on_c, 7, 57, 70
9, 359356, Note_off_c, 7, 57, 64
9, 359363, Note_on_c, 7, 59, 82
9, 359480, Note_on_c, 7, 61, 59
9, 359486, Note_off_c, 7, 59, 64
9, 359565, Note_off_c, 7, 61, 64
9, 359590, Note_on_c, 7, 57, 63
9, 359637, Note_off_c, 7, 57, 64
9, 359716, Note_on_c, 7, 57, 89
9, 359822, Note_on_c, 7, 59, 63
9, 359829, Note_off_c, 7, 57, 64
9, 359909, Note_off_c, 7, 59, 64
9, 359945, Note_on_c, 7, 56, 58
9, 360009, Note_off_c, 7, 56, 64
9, 360090, Note_on_c, 7, 56, 57
9, 360189, Note_off_c, 7, 56, 64
9, 360320, Note_on_c, 7, 56, 57
9, 360382, Note_off_c, 7, 56, 64
9, 360458, Note_on_c, 7, 56, 63
9, 360578, Note_off_c, 7, 56, 64
9, 360688, Note_on_c, 7, 56, 58
9, 360747, Note_off_c, 7, 56, 64
9, 360823, Note_on_c, 7, 56, 80
9, 360931, Note_off_c, 7, 56, 64
9, 361041, Note_on_c, 7, 56, 61
9, 361111, Note_off_c, 7, 56, 64
9, 361174, Note_on_c, 7, 57, 80
9, 361269, Note_off_c, 7, 57, 64
9, 361386, Note_on_c, 7, 55, 62
9, 361462, Note_off_c, 7, 55, 64
9, 361527, Note_on_c, 7, 54, 59
9, 361628, Note_off_c, 7, 54, 64
9, 361763, Note_on_c, 7, 54, 60
9, 361833, Note_off_c, 7, 54, 64
9, 361899, Note_on_c, 7, 54, 66
9, 361998, Note_off_c, 7, 54, 64
9, 362112, Note_on_c, 7, 54, 63
9, 362177, Note_off_c, 7, 54, 64
9, 362252, Note_on_c, 7, 55, 82
9, 362364, Note_on_c, 7, 52, 66
9, 362402, Note_off_c, 7, 55, 64
9, 362468, Note_off_c, 7, 52, 64
9, 362475, Note_on_c, 7, 54, 64
9, 362558, Note_off_c, 7, 54, 64
9, 362612, Note_on_c, 7, 55, 102
9, 362715, Note_on_c, 7, 57, 64
9, 362727, Note_off_c, 7, 55, 64
9, 362780, Note_off_c, 7, 57, 64
9, 362830, Note_on_c, 7, 54, 85
9, 362888, Note_off_c, 7, 54, 64
9, 362963, Note_on_c, 7, 54, 89
9, 363066, Note_off_c, 7, 54, 64
9, 363066, Note_on_c, 7, 55, 66
9, 363149, Note_off_c, 7, 55, 64
9, 363194, Note_on_c, 7, 52, 64
9, 363257, Note_off_c, 7, 52, 64
9, 363341, Note_on_c, 7, 52, 82
9, 363446, Note_off_c, 7, 52, 64
9, 363561, Note_on_c, 7, 64, 62
9, 363622, Note_off_c, 7, 64, 64
9, 363703, Note_on_c, 7, 64, 66
9, 363807, Note_off_c, 7, 64, 64
9, 363941, Note_on_c, 7, 64, 60
9, 364002, Note_off_c, 7, 64, 64
9, 364086, Note_on_c, 7, 64, 80
9, 364200, Note_off_c, 7, 64, 64
9, 364659, Note_on_c, 7, 57, 53
9, 364707, Note_off_c, 7, 57, 64
9, 364776, Note_on_c, 7, 57, 70
9, 364869, Note_off_c, 7, 57, 64
9, 364999, Note_on_c, 7, 57, 61
9, 365060, Note_off_c, 7, 57, 64
9, 365127, Note_on_c, 7, 57, 66
9, 365258, Note_off_c, 7, 57, 64
9, 365717, Note_on_c, 7, 62, 53
9, 365771, Note_off_c, 7, 62, 64
9, 365838, Note_on_c, 7, 62, 70
9, 365949, Note_off_c, 7, 62, 64
9, 366057, Note_on_c, 7, 62, 60
9, 366131, Note_off_c, 7, 62, 64
9, 366207, Note_on_c, 7, 62, 85
9, 366322, Note_off_c, 7, 62, 64
9, 366785, Note_on_c, 7, 55, 68
9, 366858, Note_off_c, 7, 55, 64
9, 366921, Note_on_c, 7, 52, 72
9, 367022, Note_off_c, 7, 52, 64
9, 367157, Note_on_c, 7, 52, 68
9, 367238, Note_off_c, 7, 52, 64
9, 367289, Note_on_c, 7, 54, 64
9, 367400, Note_off_c, 7, 54, 64
9, 367508, Note_on_c, 7, 55, 66
9, 367584, Note_off_c, 7, 55, 64
9, 367649, Note_on_c, 7, 57, 70
9, 367742, Note_off_c, 7, 57, 64
9, 367872, Note_on_c, 7, 55, 62
9, 367949, Note_off_c, 7, 55, 64
9, 368009, Note_on_c, 7, 54, 66
9, 368108, Note_off_c, 7, 54, 64
9, 368238, Note_on_c, 7, 54, 62
9, 368337, Note_off_c, 7, 54, 64
9, 368371, Note_on_c, 7, 55, 70
9, 368475, Note_off_c, 7, 55, 64
9, 368617, Note_on_c, 7, 57, 76
9, 368698, Note_off_c, 7, 57, 64
9, 368748, Note_on_c, 7, 59, 82
9, 368857, Note_off_c, 7, 59, 64
9, 369123, Note_on_c, 7, 55, 80
9, 369250, Note_off_c, 7, 55, 64
9, 369499, Note_on_c, 7, 54, 63
9, 369611, Note_off_c, 7, 54, 64
9, 369850, Note_on_c, 7, 52, 80
9, 369954, Note_on_c, 7, 55, 80
9, 369963, Note_off_c, 7, 52, 64
9, 370070, Note_on_c, 7, 59, 74
9, 370086, Note_off_c, 7, 55, 64
9, 370140, Note_off_c, 7, 59, 64
9, 370201, Note_on_c, 7, 64, 85
9, 370309, Note_on_c, 7, 66, 64
9, 370318, Note_off_c, 7, 64, 64
9, 370392, Note_off_c, 7, 66, 64
9, 370421, Note_on_c, 7, 62, 62
9, 370475, Note_off_c, 7, 62, 64
9, 370543, Note_on_c, 7, 62, 87
9, 370655, Note_on_c, 7, 64, 64
9, 370664, Note_off_c, 7, 62, 64
9, 370721, Note_off_c, 7, 64, 64
9, 370766, Note_on_c, 7, 61, 80
9, 370818, Note_off_c, 7, 61, 64
9, 370914, Note_on_c, 7, 61, 89
9, 371074, Note_off_c, 7, 61, 64
9, 371488, Note_on_c, 7, 57, 68
9, 371560, Note_off_c, 7, 57, 64
9, 371625, Note_on_c, 7, 54, 62
9, 371744, Note_off_c, 7, 54, 64
9, 371853, Note_on_c, 7, 57, 68
9, 371922, Note_off_c, 7, 57, 64
9, 371979, Note_on_c, 7, 50, 82
9, 372098, Note_off_c, 7, 50, 64
9, 372206, Note_on_c, 7, 52, 66
9, 372284, Note_off_c, 7, 52, 64
9, 372332, Note_on_c, 7, 54, 72
9, 372446, Note_off_c, 7, 54, 64
9, 372559, Note_on_c, 7, 55, 66
9, 372651, Note_off_c, 7, 55, 64
9, 372689, Note_on_c, 7, 57, 82
9, 372764, Note_off_c, 7, 57, 64
9, 372921, Note_on_c, 7, 45, 78
9, 373004, Note_off_c, 7, 45, 64
9, 373056, Note_on_c, 7, 50, 78
9, 373166, Note_off_c, 7, 50, 64
9, 373301, Note_on_c, 7, 57, 68
9, 373364, Note_off_c, 7, 57, 64
9, 373434, Note_on_c, 7, 57, 91
9, 373536, Note_on_c, 7, 59, 64
9, 373549, Note_off_c, 7, 57, 64
9, 373605, Note_off_c, 7, 59, 64
9, 373657, Note_on_c, 7, 55, 72
9, 373711, Note_off_c, 7, 55, 64
9, 373788, Note_on_c, 7, 55, 87
9, 373893, Note_on_c, 7, 57, 61
9, 373914, Note_off_c, 7, 55, 64
9, 373967, Note_off_c, 7, 57, 64
9, 374021, Note_on_c, 7, 54, 64
9, 374084, Note_off_c, 7, 54, 64
9, 374148, Note_on_c, 7, 54, 85
9, 374256, Note_on_c, 7, 55, 72
9, 374285, Note_off_c, 7, 54, 64
9, 374325, Note_off_c, 7, 55, 64
9, 374373, Note_on_c, 7, 57, 74
9, 374424, Note_off_c, 7, 57, 64
9, 374508, Note_on_c, 7, 57, 98
9, 374607, Note_on_c, 7, 59, 66
9, 374640, Note_off_c, 7, 57, 64
9, 374688, Note_off_c, 7, 59, 64
9, 374726, Note_on_c, 7, 55, 66
9, 374782, Note_off_c, 7, 55, 64
9, 374865, Note_on_c, 7, 55, 91
9, 374964, Note_on_c, 7, 57, 68
9, 374993, Note_off_c, 7, 55, 64
9, 375048, Note_off_c, 7, 57, 64
9, 375077, Note_on_c, 7, 54, 63
9, 375173, Note_off_c, 7, 54, 64
9, 375173, End_track
10, 0, Start_track
10, 0, Title_t, "Violin"
10, 0, Program_c, 8, 40
10, 0, Control_c, 8, 7, 100
10, 1726, Note_on_c, 8, 64, 89
10, 1763, Note_off_c, 8, 64, 64
10, 1781, Note_on_c, 8, 66, 102
10, 1819, Note_off_c, 8, 66, 64
10, 1837, Note_on_c, 8, 62, 102
10, 1887, Note_off_c, 8, 62, 64
10, 1901, Note_on_c, 8, 71, 98
10, 2662, Note_off_c, 8, 71, 64
10, 2681, Note_on_c, 8, 69, 87
10, 2714, Note_off_c, 8, 69, 64
10, 2742, Note_on_c, 8, 71, 89
10, 2776, Note_off_c, 8, 71, 64
10, 2794, Note_on_c, 8, 67, 95
10, 2833, Note_off_c, 8, 67, 64
10, 2864, Note_on_c, 8, 69, 98
10, 3401, Note_off_c, 8, 69, 64
10, 3413, Note_on_c, 8, 67, 85
10, 3456, Note_off_c, 8, 67, 64
10, 3468, Note_on_c, 8, 69, 76
10, 3512, Note_off_c, 8, 69, 64
10, 3529, Note_on_c, 8, 71, 89
10, 3569, Note_off_c, 8, 71, 64
10, 3588, Note_on_c, 8, 73, 72
10, 3630, Note_off_c, 8, 73, 64
10, 3644, Note_on_c, 8, 74, 87
10, 3690, Note_off_c, 8, 74, 64
10, 3704, Note_on_c, 8, 76, 95
10, 3744, Note_off_c, 8, 76, 64
10, 3755, Note_on_c, 8, 78, 98
10, 3798, Note_off_c, 8, 78, 64
10, 3818, Note_on_c, 8, 79, 85
10, 4181, Note_off_c, 8, 79, 64
10, 4252, Note_on_c, 8, 79, 100
10, 4287, Note_off_c, 8, 79, 64
10, 4309, Note_on_c, 8, 79, 100
10, 4390, Note_off_c, 8, 79, 64
10, 4477, Note_on_c, 8, 76, 82
10, 4530, Note_off_c, 8, 76, 64
10, 4543, Note_on_c, 8, 81, 100
10, 4622, Note_off_c, 8, 81, 64
10, 4717, Note_on_c, 8, 76, 85
10, 4763, Note_off_c, 8, 76, 64
10, 4781, Note_on_c, 8, 78, 95
10, 4904, Note_off_c, 8, 78, 64
10, 5024, Note_on_c, 8, 74, 85
10, 5134, Note_off_c, 8, 74, 64
10, 5270, Note_on_c, 8, 81, 98
10, 5777, Note_off_c, 8, 81, 64
10, 5804, Note_on_c, 8, 79, 100
10, 5841, Note_off_c, 8, 79, 64
10, 5858, Note_on_c, 8, 81, 82
10, 5895, Note_off_c, 8, 81, 64
10, 5914, Note_on_c, 8, 78, 87
10, 5961, Note_off_c, 8, 78, 64
10, 5983, Note_on_c, 8, 83, 100
10, 6065, Note_off_c, 8, 83, 64
10, 6165, Note_on_c, 8, 81, 85
10, 6202, Note_off_c, 8, 81, 64
10, 6227, Note_on_c, 8, 79, 98
10, 6584, Note_off_c, 8, 79, 64
10, 6655, Note_on_c, 8, 78, 100
10, 6691, Note_off_c, 8, 78, 64
10, 6717, Note_on_c, 8, 79, 91
10, 6992, Note_off_c, 8, 79, 64
10, 7015, Note_on_c, 8, 78, 93
10, 7049, Note_off_c, 8, 78, 64
10, 7073, Note_on_c, 8, 79, 102
10, 7107, Note_off_c, 8, 79, 64
10, 7132, Note_on_c, 8, 76, 91
10, 7165, Note_off_c, 8, 76, 64
10, 7194, Note_on_c, 8, 72, 95
10, 7712, Note_off_c, 8, 72, 64
10, 7727, Note_on_c, 8, 71, 93
10, 7765, Note_off_c, 8, 71, 64
10, 7785, Note_on_c, 8, 72, 93
10, 7827, Note_off_c, 8, 72, 64
10, 7839, Note_on_c, 8, 69, 91
10, 7885, Note_off_c, 8, 69, 64
10, 7905, Note_on_c, 8, 71, 98
10, 8004, Note_off_c, 8, 71, 64
10, 8087, Note_on_c, 8, 73, 87
10, 8129, Note_off_c, 8, 73, 64
10, 8145, Note_on_c, 8, 74, 93
10, 8523, Note_off_c, 8, 74, 64
10, 8584, Note_on_c, 8, 76, 100
10, 8616, Note_off_c, 8, 76, 64
10, 8639, Note_on_c, 8, 73, 100
10, 8924, Note_off_c, 8, 73, 64
10, 8938, Note_on_c, 8, 71, 85
10, 8978, Note_off_c, 8, 71, 64
10, 8996, Note_on_c, 8, 73, 100
10, 9032, Note_off_c, 8, 73, 64
10, 9047, Note_on_c, 8, 69, 100
10, 9095, Note_off_c, 8, 69, 64
10, 9111, Note_on_c, 8, 76, 89
10, 9883, Note_off_c, 8, 76, 64
10, 9900, Note_on_c, 8, 74, 89
10, 9933, Note_off_c, 8, 74, 64
10, 9954, Note_on_c, 8, 76, 89
10, 9993, Note_off_c, 8, 76, 64
10, 10007, Note_on_c, 8, 73, 82
10, 10048, Note_off_c, 8, 73, 64
10, 10069, Note_on_c, 8, 74, 87
10, 10825, Note_off_c, 8, 74, 64
10, 10848, Note_on_c, 8, 73, 80
10, 10898, Note_off_c, 8, 73, 64
10, 10901, Note_on_c, 8, 74, 82
10, 10941, Note_off_c, 8, 74, 64
10, 10960, Note_on_c, 8, 71, 82
10, 11013, Note_off_c, 8, 71, 64
10, 11035, Note_on_c, 8, 73, 85
10, 11075, Note_off_c, 8, 73, 64
10, 11094, Note_on_c, 8, 76, 87
10, 11132, Note_off_c, 8, 76, 64
10, 11150, Note_on_c, 8, 81, 98
10, 11195, Note_off_c, 8, 81, 64
10, 11204, Note_on_c, 8, 80, 89
10, 11241, Note_off_c, 8, 80, 64
10, 11258, Note_on_c, 8, 78, 98
10, 11298, Note_off_c, 8, 78, 64
10, 11318, Note_on_c, 8, 76, 91
10, 11365, Note_off_c, 8, 76, 64
10, 11382, Note_on_c, 8, 74, 91
10, 11415, Note_off_c, 8, 74, 64
10, 11437, Note_on_c, 8, 73, 100
10, 11481, Note_off_c, 8, 73, 64
10, 11506, Note_on_c, 8, 74, 87
10, 11861, Note_off_c, 8, 74, 64
10, 11940, Note_on_c, 8, 74, 89
10, 11984, Note_off_c, 8, 74, 64
10, 12000, Note_on_c, 8, 74, 93
10, 12080, Note_off_c, 8, 74, 64
10, 12173, Note_on_c, 8, 71, 82
10, 12221, Note_off_c, 8, 71, 64
10, 12234, Note_on_c, 8, 76, 98
10, 12317, Note_off_c, 8, 76, 64
10, 12407, Note_on_c, 8, 74, 85
10, 12455, Note_off_c, 8, 74, 64
10, 12468, Note_on_c, 8, 73, 87
10, 12579, Note_off_c, 8, 73, 64
10, 12705, Note_on_c, 8, 69, 85
10, 12821, Note_off_c, 8, 69, 64
10, 12944, Note_on_c, 8, 78, 89
10, 13451, Note_off_c, 8, 78, 64
10, 13479, Note_on_c, 8, 78, 87
10, 13522, Note_off_c, 8, 78, 64
10, 13539, Note_on_c, 8, 80, 95
10, 13576, Note_off_c, 8, 80, 64
10, 13592, Note_on_c, 8, 81, 95
10, 13635, Note_off_c, 8, 81, 64
10, 13657, Note_on_c, 8, 83, 87
10, 13696, Note_off_c, 8, 83, 64
10, 13720, Note_on_c, 8, 81, 98
10, 13758, Note_off_c, 8, 81, 64
10, 13780, Note_on_c, 8, 83, 91
10, 13821, Note_off_c, 8, 83, 64
10, 13842, Note_on_c, 8, 80, 98
10, 13879, Note_off_c, 8, 80, 64
10, 13904, Note_on_c, 8, 73, 89
10, 14013, Note_off_c, 8, 73, 64
10, 14076, Note_on_c, 8, 83, 87
10, 14117, Note_off_c, 8, 83, 64
10, 14135, Note_on_c, 8, 81, 95
10, 14227, Note_off_c, 8, 81, 64
10, 14324, Note_on_c, 8, 80, 89
10, 14364, Note_off_c, 8, 80, 64
10, 14388, Note_on_c, 8, 81, 93
10, 14654, Note_off_c, 8, 81, 64
10, 14689, Note_on_c, 8, 80, 91
10, 14726, Note_off_c, 8, 80, 64
10, 14746, Note_on_c, 8, 81, 95
10, 14782, Note_off_c, 8, 81, 64
10, 14805, Note_on_c, 8, 78, 93
10, 14844, Note_off_c, 8, 78, 64
10, 14869, Note_on_c, 8, 74, 76
10, 15374, Note_off_c, 8, 74, 64
10, 15405, Note_on_c, 8, 73, 85
10, 15448, Note_off_c, 8, 73, 64
10, 15461, Note_on_c, 8, 74, 91
10, 15502, Note_off_c, 8, 74, 64
10, 15521, Note_on_c, 8, 71, 89
10, 15573, Note_off_c, 8, 71, 64
10, 15591, Note_on_c, 8, 73, 85
10, 15672, Note_off_c, 8, 73, 64
10, 15763, Note_on_c, 8, 74, 89
10, 15807, Note_off_c, 8, 74, 64
10, 15821, Note_on_c, 8, 76, 95
10, 15899, Note_off_c, 8, 76, 64
10, 16004, Note_on_c, 8, 78, 70
10, 16046, Note_off_c, 8, 78, 64
10, 16064, Note_on_c, 8, 80, 93
10, 16147, Note_off_c, 8, 80, 64
10, 16249, Note_on_c, 8, 81, 82
10, 16286, Note_off_c, 8, 81, 64
10, 16312, Note_on_c, 8, 80, 105
10, 16353, Note_off_c, 8, 80, 64
10, 16369, Note_on_c, 8, 81, 100
10, 16407, Note_off_c, 8, 81, 64
10, 16423, Note_on_c, 8, 83, 89
10, 16460, Note_off_c, 8, 83, 64
10, 16483, Note_on_c, 8, 80, 102
10, 16522, Note_off_c, 8, 80, 64
10, 16546, Note_on_c, 8, 76, 95
10, 16831, Note_off_c, 8, 76, 64
10, 16853, Note_on_c, 8, 78, 82
10, 16888, Note_off_c, 8, 78, 64
10, 16909, Note_on_c, 8, 80, 87
10, 16941, Note_off_c, 8, 80, 64
10, 16966, Note_on_c, 8, 76, 95
10, 17015, Note_off_c, 8, 76, 64
10, 17034, Note_on_c, 8, 83, 85
10, 17322, Note_off_c, 8, 83, 64
10, 17344, Note_on_c, 8, 81, 91
10, 17380, Note_off_c, 8, 81, 64
10, 17397, Note_on_c, 8, 83, 80
10, 17435, Note_off_c, 8, 83, 64
10, 17447, Note_on_c, 8, 80, 87
10, 17487, Note_off_c, 8, 80, 64
10, 17514, Note_on_c, 8, 81, 93
10, 17796, Note_off_c, 8, 81, 64
10, 17822, Note_on_c, 8, 80, 89
10, 17860, Note_off_c, 8, 80, 64
10, 17880, Note_on_c, 8, 81, 89
10, 17913, Note_off_c, 8, 81, 64
10, 17938, Note_on_c, 8, 76, 87
10, 17972, Note_off_c, 8, 76, 64
10, 18004, Note_on_c, 8, 85, 100
10, 18283, Note_off_c, 8, 85, 64
10, 18302, Note_on_c, 8, 83, 87
10, 18339, Note_off_c, 8, 83, 64
10, 18357, Note_on_c, 8, 85, 102
10, 18392, Note_off_c, 8, 85, 64
10, 18410, Note_on_c, 8, 81, 95
10, 18449, Note_off_c, 8, 81, 64
10, 18476, Note_on_c, 8, 83, 95
10, 18746, Note_off_c, 8, 83, 64
10, 18776, Note_on_c, 8, 81, 100
10, 18819, Note_off_c, 8, 81, 64
10, 18830, Note_on_c, 8, 83, 100
10, 18864, Note_off_c, 8, 83, 64
10, 18886, Note_on_c, 8, 80, 89
10, 18930, Note_off_c, 8, 80, 64
10, 18956, Note_on_c, 8, 86, 98
10, 19230, Note_off_c, 8, 86, 64
10, 19263, Note_on_c, 8, 84, 89
10, 19301, Note_off_c, 8, 84, 64
10, 19320, Note_on_c, 8, 86, 95
10, 19355, Note_off_c, 8, 86, 64
10, 19370, Note_on_c, 8, 83, 95
10, 19411, Note_off_c, 8, 83, 64
10, 19439, Note_on_c, 8, 84, 98
10, 19710, Note_off_c, 8, 84, 64
10, 19738, Note_on_c, 8, 83, 89
10, 19775, Note_off_c, 8, 83, 64
10, 19795, Note_on_c, 8, 84, 95
10, 19828, Note_off_c, 8, 84, 64
10, 19847, Note_on_c, 8, 81, 98
10, 19885, Note_off_c, 8, 81, 64
10, 19910, Note_on_c, 8, 83, 100
10, 20181, Note_off_c, 8, 83, 64
10, 20210, Note_on_c, 8, 81, 93
10, 20249, Note_off_c, 8, 81, 64
10, 20264, Note_on_c, 8, 83, 82
10, 20299, Note_off_c, 8, 83, 64
10, 20324, Note_on_c, 8, 80, 82
10, 20362, Note_off_c, 8, 80, 64
10, 20386, Note_on_c, 8, 81, 91
10, 20430, Note_off_c, 8, 81, 64
10, 20444, Note_on_c, 8, 80, 95
10, 20479, Note_off_c, 8, 80, 64
10, 20502, Note_on_c, 8, 81, 93
10, 20536, Note_off_c, 8, 81, 64
10, 20564, Note_on_c, 8, 78, 87
10, 20600, Note_off_c, 8, 78, 64
10, 20630, Note_on_c, 8, 79, 85
10, 21144, Note_off_c, 8, 79, 64
10, 21166, Note_on_c, 8, 78, 102
10, 21201, Note_off_c, 8, 78, 64
10, 21225, Note_on_c, 8, 79, 98
10, 21259, Note_off_c, 8, 79, 64
10, 21274, Note_on_c, 8, 76, 89
10, 21322, Note_off_c, 8, 76, 64
10, 21343, Note_on_c, 8, 78, 89
10, 21432, Note_off_c, 8, 78, 64
10, 21517, Note_on_c, 8, 80, 95
10, 21554, Note_off_c, 8, 80, 64
10, 21578, Note_on_c, 8, 81, 93
10, 21906, Note_off_c, 8, 81, 64
10, 22000, Note_on_c, 8, 83, 87
10, 22042, Note_off_c, 8, 83, 64
10, 22064, Note_on_c, 8, 74, 91
10, 22212, Note_off_c, 8, 74, 64
10, 22302, Note_on_c, 8, 73, 82
10, 22424, Note_off_c, 8, 73, 64
10, 22483, Note_on_c, 8, 71, 85
10, 22524, Note_off_c, 8, 71, 64
10, 22545, Note_on_c, 8, 73, 98
10, 22628, Note_on_c, 8, 71, 64
10, 22635, Note_off_c, 8, 73, 64
10, 22662, Note_off_c, 8, 71, 64
10, 22664, Note_on_c, 8, 73, 70
10, 22688, Note_on_c, 8, 71, 80
10, 22689, Note_off_c, 8, 73, 64
10, 22715, Note_on_c, 8, 73, 98
10, 22720, Note_off_c, 8, 71, 64
10, 22739, Note_off_c, 8, 73, 64
10, 22739, Note_on_c, 8, 71, 70
10, 22761, Note_on_c, 8, 73, 91
10, 22766, Note_off_c, 8, 71, 64
10, 22782, Note_on_c, 8, 71, 82
10, 22796, Note_off_c, 8, 73, 64
10, 22904, Note_off_c, 8, 71, 64
10, 22964, Note_on_c, 8, 69, 98
10, 22996, Note_off_c, 8, 69, 64
10, 23027, Note_on_c, 8, 69, 95
10, 23777, Note_off_c, 8, 69, 64
10, 50592, Note_on_c, 8, 81, 80
10, 50643, Note_off_c, 8, 81, 64
10, 50721, Note_on_c, 8, 81, 100
10, 50824, Note_on_c, 8, 83, 66
10, 50856, Note_off_c, 8, 81, 64
10, 50901, Note_off_c, 8, 83, 64
10, 50939, Note_on_c, 8, 79, 68
10, 50993, Note_off_c, 8, 79, 64
10, 51072, Note_on_c, 8, 79, 93
10, 51177, Note_on_c, 8, 81, 63
10, 51193, Note_off_c, 8, 79, 64
10, 51256, Note_off_c, 8, 81, 64
10, 51305, Note_on_c, 8, 78, 63
10, 51366, Note_off_c, 8, 78, 64
10, 51438, Note_on_c, 8, 78, 82
10, 51546, Note_on_c, 8, 79, 68
10, 51564, Note_off_c, 8, 78, 64
10, 51650, Note_off_c, 8, 79, 64
10, 51666, Note_on_c, 8, 81, 62
10, 51719, Note_off_c, 8, 81, 64
10, 51809, Note_on_c, 8, 83, 98
10, 51918, Note_on_c, 8, 84, 74
10, 51936, Note_off_c, 8, 83, 64
10, 51987, Note_off_c, 8, 84, 64
10, 52035, Note_on_c, 8, 81, 80
10, 52084, Note_off_c, 8, 81, 64
10, 52160, Note_on_c, 8, 81, 98
10, 52266, Note_on_c, 8, 83, 68
10, 52300, Note_off_c, 8, 81, 64
10, 52354, Note_off_c, 8, 83, 64
10, 52386, Note_on_c, 8, 79, 70
10, 52437, Note_off_c, 8, 79, 64
10, 52520, Note_on_c, 8, 79, 78
10, 52678, Note_off_c, 8, 79, 64
10, 52770, Note_on_c, 8, 79, 64
10, 52836, Note_off_c, 8, 79, 64
10, 52896, Note_on_c, 8, 79, 82
10, 53058, Note_off_c, 8, 79, 64
10, 53132, Note_on_c, 8, 79, 72
10, 53205, Note_off_c, 8, 79, 64
10, 53261, Note_on_c, 8, 79, 78
10, 53439, Note_off_c, 8, 79, 64
10, 53499, Note_on_c, 8, 79, 74
10, 53556, Note_off_c, 8, 79, 64
10, 53615, Note_on_c, 8, 79, 85
10, 53738, Note_off_c, 8, 79, 64
10, 53738, Note_on_c, 8, 76, 72
10, 53828, Note_off_c, 8, 76, 64
10, 53846, Note_on_c, 8, 78, 64
10, 53913, Note_off_c, 8, 78, 64
10, 53985, Note_on_c, 8, 79, 89
10, 54100, Note_on_c, 8, 88, 57
10, 54114, Note_off_c, 8, 79, 64
10, 54152, Note_off_c, 8, 88, 64
10, 54228, Note_on_c, 8, 78, 91
10, 54287, Note_off_c, 8, 78, 64
10, 54345, Note_on_c, 8, 79, 91
10, 54462, Note_on_c, 8, 78, 68
10, 54482, Note_off_c, 8, 79, 64
10, 54528, Note_off_c, 8, 78, 64
10, 54570, Note_on_c, 8, 76, 78
10, 54631, Note_off_c, 8, 76, 64
10, 54690, Note_on_c, 8, 78, 102
10, 54816, Note_on_c, 8, 74, 72
10, 54825, Note_off_c, 8, 78, 64
10, 54888, Note_off_c, 8, 74, 64
10, 54935, Note_on_c, 8, 76, 80
10, 54980, Note_off_c, 8, 76, 64
10, 55054, Note_on_c, 8, 78, 102
10, 55164, Note_on_c, 8, 79, 78
10, 55185, Note_off_c, 8, 78, 64
10, 55230, Note_off_c, 8, 79, 64
10, 55286, Note_on_c, 8, 76, 76
10, 55330, Note_off_c, 8, 76, 64
10, 55414, Note_on_c, 8, 76, 100
10, 55527, Note_on_c, 8, 78, 66
10, 55535, Note_off_c, 8, 76, 64
10, 55587, Note_off_c, 8, 78, 64
10, 55648, Note_on_c, 8, 74, 63
10, 55698, Note_off_c, 8, 74, 64
10, 55770, Note_on_c, 8, 74, 78
10, 55902, Note_off_c, 8, 74, 64
10, 55994, Note_on_c, 8, 74, 74
10, 56058, Note_off_c, 8, 74, 64
10, 56125, Note_on_c, 8, 74, 80
10, 56273, Note_off_c, 8, 74, 64
10, 56357, Note_on_c, 8, 74, 60
10, 56414, Note_off_c, 8, 74, 64
10, 56476, Note_on_c, 8, 74, 87
10, 56643, Note_off_c, 8, 74, 64
10, 56703, Note_on_c, 8, 74, 72
10, 56771, Note_off_c, 8, 74, 64
10, 56832, Note_on_c, 8, 74, 82
10, 56931, Note_on_c, 8, 71, 80
10, 56940, Note_off_c, 8, 74, 64
10, 57048, Note_on_c, 8, 73, 70
10, 57065, Note_off_c, 8, 71, 64
10, 57109, Note_off_c, 8, 73, 64
10, 57185, Note_on_c, 8, 74, 100
10, 57286, Note_on_c, 8, 83, 85
10, 57297, Note_off_c, 8, 74, 64
10, 57353, Note_off_c, 8, 83, 64
10, 57417, Note_on_c, 8, 73, 82
10, 57473, Note_off_c, 8, 73, 64
10, 57547, Note_on_c, 8, 74, 85
10, 57666, Note_on_c, 8, 73, 64
10, 57687, Note_off_c, 8, 74, 64
10, 57747, Note_off_c, 8, 73, 64
10, 57767, Note_on_c, 8, 71, 68
10, 57819, Note_off_c, 8, 71, 64
10, 57903, Note_on_c, 8, 73, 102
10, 58011, Note_on_c, 8, 69, 52
10, 58033, Note_off_c, 8, 73, 64
10, 58098, Note_off_c, 8, 69, 64
10, 58120, Note_on_c, 8, 71, 68
10, 58172, Note_off_c, 8, 71, 64
10, 58263, Note_on_c, 8, 72, 100
10, 58371, Note_on_c, 8, 81, 61
10, 58386, Note_off_c, 8, 72, 64
10, 58420, Note_off_c, 8, 81, 64
10, 58488, Note_on_c, 8, 71, 80
10, 58551, Note_off_c, 8, 71, 64
10, 58611, Note_on_c, 8, 72, 89
10, 58721, Note_on_c, 8, 71, 82
10, 58739, Note_off_c, 8, 72, 64
10, 58816, Note_off_c, 8, 71, 64
10, 58838, Note_on_c, 8, 69, 61
10, 58893, Note_off_c, 8, 69, 64
10, 58976, Note_on_c, 8, 71, 100
10, 59090, Note_off_c, 8, 71, 64
10, 59207, Note_on_c, 8, 83, 74
10, 59262, Note_off_c, 8, 83, 64
10, 59334, Note_on_c, 8, 83, 100
10, 59446, Note_on_c, 8, 84, 78
10, 59478, Note_off_c, 8, 83, 64
10, 59518, Note_off_c, 8, 84, 64
10, 59568, Note_on_c, 8, 81, 66
10, 59619, Note_off_c, 8, 81, 64
10, 59703, Note_on_c, 8, 81, 91
10, 59813, Note_on_c, 8, 83, 64
10, 59847, Note_off_c, 8, 81, 64
10, 59891, Note_off_c, 8, 83, 64
10, 59928, Note_on_c, 8, 79, 70
10, 59977, Note_off_c, 8, 79, 64
10, 60071, Note_on_c, 8, 79, 91
10, 60193, Note_on_c, 8, 76, 66
10, 60231, Note_off_c, 8, 79, 64
10, 60296, Note_off_c, 8, 76, 64
10, 60305, Note_on_c, 8, 78, 58
10, 60387, Note_off_c, 8, 78, 64
10, 60474, Note_on_c, 8, 80, 89
10, 60566, Note_on_c, 8, 81, 78
10, 60578, Note_off_c, 8, 80, 64
10, 60683, Note_off_c, 8, 81, 64
10, 60693, Note_on_c, 8, 83, 62
10, 60744, Note_off_c, 8, 83, 64
10, 60825, Note_on_c, 8, 76, 91
10, 60947, Note_off_c, 8, 76, 64
10, 61050, Note_on_c, 8, 80, 82
10, 61098, Note_off_c, 8, 80, 64
10, 61176, Note_on_c, 8, 69, 89
10, 61286, Note_on_c, 8, 73, 61
10, 61313, Note_off_c, 8, 69, 64
10, 61379, Note_off_c, 8, 73, 64
10, 61395, Note_on_c, 8, 76, 78
10, 61446, Note_off_c, 8, 76, 64
10, 61539, Note_on_c, 8, 81, 95
10, 61649, Note_on_c, 8, 83, 68
10, 61682, Note_off_c, 8, 81, 64
10, 61734, Note_off_c, 8, 83, 64
10, 61761, Note_on_c, 8, 79, 68
10, 61818, Note_off_c, 8, 79, 64
10, 61890, Note_on_c, 8, 79, 91
10, 61997, Note_on_c, 8, 81, 60
10, 62036, Note_off_c, 8, 79, 64
10, 62051, Note_on_c, 8, 78, 55
10, 62083, Note_off_c, 8, 81, 64
10, 62130, Note_off_c, 8, 78, 64
10, 62220, Note_on_c, 8, 78, 87
10, 62328, Note_on_c, 8, 74, 66
10, 62346, Note_off_c, 8, 78, 64
10, 62412, Note_off_c, 8, 74, 64
10, 62457, Note_on_c, 8, 76, 66
10, 62511, Note_off_c, 8, 76, 64
10, 62592, Note_on_c, 8, 78, 100
10, 62697, Note_on_c, 8, 79, 80
10, 62742, Note_off_c, 8, 78, 64
10, 62816, Note_on_c, 8, 81, 66
10, 62832, Note_off_c, 8, 79, 64
10, 62882, Note_off_c, 8, 81, 64
10, 62947, Note_on_c, 8, 74, 78
10, 63075, Note_off_c, 8, 74, 64
10, 63176, Note_on_c, 8, 78, 80
10, 63244, Note_off_c, 8, 78, 64
10, 63316, Note_on_c, 8, 67, 89
10, 63437, Note_on_c, 8, 71, 70
10, 63451, Note_off_c, 8, 67, 64
10, 63543, Note_off_c, 8, 71, 64
10, 63545, Note_on_c, 8, 74, 72
10, 63601, Note_off_c, 8, 74, 64
10, 63688, Note_on_c, 8, 79, 93
10, 63795, Note_on_c, 8, 81, 74
10, 63820, Note_off_c, 8, 79, 64
10, 63864, Note_off_c, 8, 81, 64
10, 63917, Note_on_c, 8, 78, 102
10, 63977, Note_off_c, 8, 78, 64
10, 64049, Note_on_c, 8, 78, 105
10, 64158, Note_on_c, 8, 79, 76
10, 64190, Note_off_c, 8, 78, 64
10, 64234, Note_off_c, 8, 79, 64
10, 64275, Note_on_c, 8, 76, 78
10, 64324, Note_off_c, 8, 76, 64
10, 64414, Note_on_c, 8, 76, 100
10, 64517, Note_on_c, 8, 78, 56
10, 64560, Note_off_c, 8, 76, 64
10, 64612, Note_off_c, 8, 78, 64
10, 64634, Note_on_c, 8, 79, 80
10, 64693, Note_off_c, 8, 79, 64
10, 64765, Note_on_c, 8, 81, 100
10, 64873, Note_on_c, 8, 83, 70
10, 64904, Note_off_c, 8, 81, 64
10, 64954, Note_off_c, 8, 83, 64
10, 64999, Note_on_c, 8, 79, 70
10, 65046, Note_off_c, 8, 79, 64
10, 65120, Note_on_c, 8, 79, 89
10, 65233, Note_on_c, 8, 81, 64
10, 65269, Note_off_c, 8, 79, 64
10, 65319, Note_off_c, 8, 81, 64
10, 65370, Note_on_c, 8, 78, 82
10, 65429, Note_off_c, 8, 78, 64
10, 65489, Note_on_c, 8, 78, 89
10, 65593, Note_on_c, 8, 79, 78
10, 65620, Note_off_c, 8, 78, 64
10, 65717, Note_off_c, 8, 79, 64
10, 65721, Note_on_c, 8, 81, 72
10, 65775, Note_off_c, 8, 81, 64
10, 65850, Note_on_c, 8, 83, 95
10, 65967, Note_on_c, 8, 84, 70
10, 65994, Note_off_c, 8, 83, 64
10, 66060, Note_off_c, 8, 84, 64
10, 66088, Note_on_c, 8, 81, 66
10, 66137, Note_off_c, 8, 81, 64
10, 66207, Note_on_c, 8, 81, 95
10, 66311, Note_on_c, 8, 83, 64
10, 66340, Note_off_c, 8, 81, 64
10, 66408, Note_off_c, 8, 83, 64
10, 66432, Note_on_c, 8, 79, 74
10, 66491, Note_off_c, 8, 79, 64
10, 66560, Note_on_c, 8, 79, 85
10, 66680, Note_off_c, 8, 79, 64
10, 66798, Note_on_c, 8, 79, 72
10, 66855, Note_off_c, 8, 79, 64
10, 66920, Note_on_c, 8, 79, 87
10, 67051, Note_off_c, 8, 79, 64
10, 67155, Note_on_c, 8, 79, 78
10, 67227, Note_off_c, 8, 79, 64
10, 67289, Note_on_c, 8, 79, 89
10, 67460, Note_off_c, 8, 79, 64
10, 67524, Note_on_c, 8, 79, 76
10, 67580, Note_off_c, 8, 79, 64
10, 67643, Note_on_c, 8, 79, 82
10, 67758, Note_on_c, 8, 76, 66
10, 67771, Note_off_c, 8, 79, 64
10, 67872, Note_off_c, 8, 76, 64
10, 67875, Note_on_c, 8, 78, 80
10, 67938, Note_off_c, 8, 78, 64
10, 68014, Note_on_c, 8, 79, 91
10, 68120, Note_on_c, 8, 88, 80
10, 68126, Note_off_c, 8, 79, 64
10, 68180, Note_off_c, 8, 88, 64
10, 68237, Note_on_c, 8, 78, 95
10, 68300, Note_off_c, 8, 78, 64
10, 68367, Note_on_c, 8, 79, 91
10, 68486, Note_on_c, 8, 78, 76
10, 68505, Note_off_c, 8, 79, 64
10, 68563, Note_off_c, 8, 78, 64
10, 68601, Note_on_c, 8, 76, 78
10, 68664, Note_off_c, 8, 76, 64
10, 68723, Note_on_c, 8, 78, 95
10, 68837, Note_on_c, 8, 81, 85
10, 68855, Note_off_c, 8, 78, 64
10, 68907, Note_off_c, 8, 81, 64
10, 68964, Note_on_c, 8, 79, 82
10, 69031, Note_off_c, 8, 79, 64
10, 69089, Note_on_c, 8, 81, 98
10, 69204, Note_off_c, 8, 81, 64
10, 69305, Note_on_c, 8, 74, 78
10, 69359, Note_off_c, 8, 74, 64
10, 69432, Note_on_c, 8, 69, 74
10, 69544, Note_off_c, 8, 69, 64
10, 69663, Note_on_c, 8, 73, 80
10, 69740, Note_off_c, 8, 73, 64
10, 69785, Note_on_c, 8, 74, 95
10, 69906, Note_off_c, 8, 74, 64
10, 70021, Note_on_c, 8, 69, 62
10, 70070, Note_off_c, 8, 69, 64
10, 70156, Note_on_c, 8, 69, 70
10, 70253, Note_off_c, 8, 69, 64
10, 70410, Note_on_c, 8, 69, 66
10, 70467, Note_off_c, 8, 69, 64
10, 70548, Note_on_c, 8, 69, 85
10, 70790, Note_off_c, 8, 69, 64
10, 70952, Note_on_c, 8, 56, 18
10, 70986, Note_off_c, 8, 56, 64
10, 71133, Note_on_c, 8, 57, 63
10, 71198, Note_off_c, 8, 57, 64
10, 71258, Note_on_c, 8, 57, 68
10, 71362, Note_off_c, 8, 57, 64
10, 71501, Note_on_c, 8, 57, 57
10, 71562, Note_off_c, 8, 57, 64
10, 71637, Note_on_c, 8, 57, 80
10, 71832, Note_off_c, 8, 57, 64
10, 92727, Note_on_c, 8, 64, 52
10, 92779, Note_off_c, 8, 64, 64
10, 92844, Note_on_c, 8, 64, 63
10, 92988, Note_off_c, 8, 64, 64
10, 93095, Note_on_c, 8, 64, 57
10, 93150, Note_off_c, 8, 64, 64
10, 93207, Note_on_c, 8, 64, 63
10, 93350, Note_off_c, 8, 64, 64
10, 93432, Note_on_c, 8, 64, 64
10, 93503, Note_off_c, 8, 64, 64
10, 93562, Note_on_c, 8, 64, 70
10, 93715, Note_off_c, 8, 64, 64
10, 93785, Note_on_c, 8, 64, 66
10, 93870, Note_off_c, 8, 64, 64
10, 93922, Note_on_c, 8, 64, 68
10, 94071, Note_off_c, 8, 64, 64
10, 94149, Note_on_c, 8, 64, 58
10, 94218, Note_off_c, 8, 64, 64
10, 94278, Note_on_c, 8, 64, 82
10, 94386, Note_off_c, 8, 64, 64
10, 94503, Note_on_c, 8, 64, 61
10, 94561, Note_off_c, 8, 64, 64
10, 94651, Note_on_c, 8, 64, 93
10, 94788, Note_off_c, 8, 64, 64
10, 94865, Note_on_c, 8, 76, 68
10, 94921, Note_off_c, 8, 76, 64
10, 94995, Note_on_c, 8, 76, 95
10, 95094, Note_on_c, 8, 78, 58
10, 95130, Note_off_c, 8, 76, 64
10, 95186, Note_on_c, 8, 74, 68
10, 95195, Note_off_c, 8, 78, 64
10, 95234, Note_off_c, 8, 74, 64
10, 95326, Note_on_c, 8, 74, 98
10, 95438, Note_on_c, 8, 76, 64
10, 95459, Note_off_c, 8, 74, 64
10, 95510, Note_off_c, 8, 76, 64
10, 95569, Note_on_c, 8, 73, 61
10, 95625, Note_off_c, 8, 73, 64
10, 95705, Note_on_c, 8, 73, 82
10, 95819, Note_on_c, 8, 74, 70
10, 95846, Note_off_c, 8, 73, 64
10, 95942, Note_on_c, 8, 76, 82
10, 95965, Note_off_c, 8, 74, 64
10, 96030, Note_off_c, 8, 76, 64
10, 96071, Note_on_c, 8, 78, 100
10, 96179, Note_on_c, 8, 79, 76
10, 96210, Note_off_c, 8, 78, 64
10, 96266, Note_off_c, 8, 79, 64
10, 96305, Note_on_c, 8, 76, 62
10, 96345, Note_off_c, 8, 76, 64
10, 96435, Note_on_c, 8, 76, 91
10, 96545, Note_on_c, 8, 78, 54
10, 96564, Note_off_c, 8, 76, 64
10, 96626, Note_off_c, 8, 78, 64
10, 96656, Note_on_c, 8, 74, 60
10, 96714, Note_off_c, 8, 74, 64
10, 96793, Note_on_c, 8, 74, 68
10, 96957, Note_off_c, 8, 74, 64
10, 97042, Note_on_c, 8, 74, 66
10, 97110, Note_off_c, 8, 74, 64
10, 97169, Note_on_c, 8, 74, 72
10, 97310, Note_off_c, 8, 74, 64
10, 97398, Note_on_c, 8, 74, 70
10, 97470, Note_off_c, 8, 74, 64
10, 97526, Note_on_c, 8, 74, 85
10, 97679, Note_off_c, 8, 74, 64
10, 97747, Note_on_c, 8, 74, 82
10, 97815, Note_off_c, 8, 74, 64
10, 97878, Note_on_c, 8, 74, 95
10, 97994, Note_on_c, 8, 71, 64
10, 98024, Note_off_c, 8, 74, 64
10, 98114, Note_on_c, 8, 73, 95
10, 98133, Note_off_c, 8, 71, 64
10, 98202, Note_off_c, 8, 73, 64
10, 98246, Note_on_c, 8, 74, 100
10, 98366, Note_on_c, 8, 83, 85
10, 98372, Note_off_c, 8, 74, 64
10, 98433, Note_off_c, 8, 83, 64
10, 98480, Note_on_c, 8, 73, 66
10, 98532, Note_off_c, 8, 73, 64
10, 98600, Note_on_c, 8, 74, 68
10, 98737, Note_on_c, 8, 73, 61
10, 98750, Note_off_c, 8, 74, 64
10, 98829, Note_off_c, 8, 73, 64
10, 98850, Note_on_c, 8, 71, 66
10, 98904, Note_off_c, 8, 71, 64
10, 98980, Note_on_c, 8, 73, 87
10, 99084, Note_on_c, 8, 76, 64
10, 99097, Note_off_c, 8, 73, 64
10, 99194, Note_on_c, 8, 74, 66
10, 99212, Note_off_c, 8, 76, 64
10, 99255, Note_off_c, 8, 74, 64
10, 99336, Note_on_c, 8, 76, 80
10, 100170, Note_off_c, 8, 76, 64
10, 100175, Note_on_c, 8, 78, 68
10, 100276, Note_on_c, 8, 76, 70
10, 100292, Note_off_c, 8, 78, 64
10, 100353, Note_off_c, 8, 76, 64
10, 100424, Note_on_c, 8, 74, 89
10, 100532, Note_on_c, 8, 76, 66
10, 100541, Note_off_c, 8, 74, 64
10, 100604, Note_off_c, 8, 76, 64
10, 100652, Note_on_c, 8, 73, 57
10, 100697, Note_off_c, 8, 73, 64
10, 100785, Note_on_c, 8, 73, 85
10, 100869, Note_on_c, 8, 74, 64
10, 100897, Note_off_c, 8, 73, 64
10, 100967, Note_off_c, 8, 74, 64
10, 101001, Note_on_c, 8, 71, 70
10, 101052, Note_off_c, 8, 71, 64
10, 101142, Note_on_c, 8, 71, 80
10, 102301, Note_off_c, 8, 71, 64
10, 102341, Note_on_c, 8, 73, 64
10, 102423, Note_off_c, 8, 73, 64
10, 102443, Note_on_c, 8, 74, 85
10, 102504, Note_off_c, 8, 74, 64
10, 102569, Note_on_c, 8, 76, 93
10, 102672, Note_on_c, 8, 73, 64
10, 102699, Note_off_c, 8, 76, 64
10, 102767, Note_off_c, 8, 73, 64
10, 102789, Note_on_c, 8, 69, 82
10, 102855, Note_off_c, 8, 69, 64
10, 102947, Note_on_c, 8, 81, 82
10, 104430, Note_off_c, 8, 81, 64
10, 104486, Note_on_c, 8, 80, 64
10, 104607, Note_on_c, 8, 81, 76
10, 104646, Note_off_c, 8, 80, 64
10, 104700, Note_off_c, 8, 81, 64
10, 104736, Note_on_c, 8, 83, 82
10, 104850, Note_on_c, 8, 85, 64
10, 104879, Note_off_c, 8, 83, 64
10, 104949, Note_off_c, 8, 85, 64
10, 104958, Note_on_c, 8, 81, 64
10, 105006, Note_off_c, 8, 81, 64
10, 105092, Note_on_c, 8, 81, 100
10, 105188, Note_on_c, 8, 83, 66
10, 105212, Note_off_c, 8, 81, 64
10, 105269, Note_off_c, 8, 83, 64
10, 105309, Note_on_c, 8, 80, 87
10, 105359, Note_off_c, 8, 80, 64
10, 105447, Note_on_c, 8, 80, 102
10, 105557, Note_on_c, 8, 76, 66
10, 105591, Note_off_c, 8, 80, 64
10, 105660, Note_on_c, 8, 78, 64
10, 105680, Note_off_c, 8, 76, 64
10, 105746, Note_off_c, 8, 78, 64
10, 105786, Note_on_c, 8, 80, 98
10, 105887, Note_on_c, 8, 81, 82
10, 105912, Note_off_c, 8, 80, 64
10, 105998, Note_on_c, 8, 83, 82
10, 106004, Note_off_c, 8, 81, 64
10, 106067, Note_off_c, 8, 83, 64
10, 106128, Note_on_c, 8, 76, 89
10, 106250, Note_off_c, 8, 76, 64
10, 106358, Note_on_c, 8, 80, 85
10, 106441, Note_off_c, 8, 80, 64
10, 106499, Note_on_c, 8, 69, 56
10, 106607, Note_on_c, 8, 73, 63
10, 106646, Note_off_c, 8, 69, 64
10, 106727, Note_off_c, 8, 73, 64
10, 106727, Note_on_c, 8, 76, 78
10, 106819, Note_off_c, 8, 76, 64
10, 106859, Note_on_c, 8, 81, 95
10, 106972, Note_on_c, 8, 83, 72
10, 107005, Note_off_c, 8, 81, 64
10, 107062, Note_off_c, 8, 83, 64
10, 107082, Note_on_c, 8, 79, 68
10, 107139, Note_off_c, 8, 79, 64
10, 107211, Note_on_c, 8, 79, 93
10, 107318, Note_on_c, 8, 81, 64
10, 107352, Note_off_c, 8, 79, 64
10, 107413, Note_off_c, 8, 81, 64
10, 107445, Note_on_c, 8, 78, 60
10, 107503, Note_off_c, 8, 78, 64
10, 107582, Note_on_c, 8, 78, 91
10, 107693, Note_on_c, 8, 74, 68
10, 107721, Note_off_c, 8, 78, 64
10, 107800, Note_on_c, 8, 78, 63
10, 107805, Note_off_c, 8, 74, 64
10, 107856, Note_off_c, 8, 78, 64
10, 107942, Note_on_c, 8, 83, 82
10, 108047, Note_on_c, 8, 85, 66
10, 108074, Note_off_c, 8, 83, 64
10, 108164, Note_off_c, 8, 85, 64
10, 108164, Note_on_c, 8, 81, 64
10, 108212, Note_off_c, 8, 81, 64
10, 108300, Note_on_c, 8, 81, 98
10, 108401, Note_on_c, 8, 83, 63
10, 108430, Note_off_c, 8, 81, 64
10, 108495, Note_off_c, 8, 83, 64
10, 108536, Note_on_c, 8, 80, 70
10, 108593, Note_off_c, 8, 80, 64
10, 108659, Note_on_c, 8, 80, 100
10, 108772, Note_on_c, 8, 81, 64
10, 108794, Note_off_c, 8, 80, 64
10, 108887, Note_on_c, 8, 83, 72
10, 108896, Note_off_c, 8, 81, 64
10, 108961, Note_off_c, 8, 83, 64
10, 109017, Note_on_c, 8, 85, 102
10, 109125, Note_on_c, 8, 86, 80
10, 109152, Note_off_c, 8, 85, 64
10, 109206, Note_off_c, 8, 86, 64
10, 109249, Note_on_c, 8, 83, 64
10, 109298, Note_off_c, 8, 83, 64
10, 109375, Note_on_c, 8, 83, 98
10, 109483, Note_on_c, 8, 85, 68
10, 109497, Note_off_c, 8, 83, 64
10, 109548, Note_off_c, 8, 85, 64
10, 109602, Note_on_c, 8, 81, 58
10, 109663, Note_off_c, 8, 81, 64
10, 109746, Note_on_c, 8, 81, 70
10, 109884, Note_off_c, 8, 81, 64
10, 109980, Note_on_c, 8, 81, 70
10, 110043, Note_off_c, 8, 81, 64
10, 110100, Note_on_c, 8, 81, 85
10, 110288, Note_off_c, 8, 81, 64
10, 110354, Note_on_c, 8, 81, 74
10, 110421, Note_off_c, 8, 81, 64
10, 110484, Note_on_c, 8, 81, 89
10, 110644, Note_off_c, 8, 81, 64
10, 110718, Note_on_c, 8, 81, 68
10, 110777, Note_off_c, 8, 81, 64
10, 110846, Note_on_c, 8, 81, 98
10, 110948, Note_on_c, 8, 83, 72
10, 110982, Note_off_c, 8, 81, 64
10, 111036, Note_off_c, 8, 83, 64
10, 111069, Note_on_c, 8, 81, 66
10, 111123, Note_off_c, 8, 81, 64
10, 111204, Note_on_c, 8, 80, 98
10, 111310, Note_on_c, 8, 81, 70
10, 111337, Note_off_c, 8, 80, 64
10, 111384, Note_off_c, 8, 81, 64
10, 111429, Note_on_c, 8, 78, 64
10, 111479, Note_off_c, 8, 78, 64
10, 111558, Note_on_c, 8, 78, 89
10, 111657, Note_on_c, 8, 80, 62
10, 111675, Note_off_c, 8, 78, 64
10, 111728, Note_off_c, 8, 80, 64
10, 111787, Note_on_c, 8, 76, 60
10, 111841, Note_off_c, 8, 76, 64
10, 111922, Note_on_c, 8, 76, 80
10, 112050, Note_off_c, 8, 76, 64
10, 112158, Note_on_c, 8, 76, 64
10, 112219, Note_off_c, 8, 76, 64
10, 112280, Note_on_c, 8, 76, 78
10, 112419, Note_off_c, 8, 76, 64
10, 112509, Note_on_c, 8, 76, 70
10, 112572, Note_off_c, 8, 76, 64
10, 112638, Note_on_c, 8, 76, 85
10, 112782, Note_off_c, 8, 76, 64
10, 112872, Note_on_c, 8, 76, 78
10, 112928, Note_off_c, 8, 76, 64
10, 112997, Note_on_c, 8, 76, 87
10, 113069, Note_off_c, 8, 76, 64
10, 113106, Note_on_c, 8, 81, 87
10, 113207, Note_on_c, 8, 80, 89
10, 113222, Note_off_c, 8, 81, 64
10, 113282, Note_off_c, 8, 80, 64
10, 113353, Note_on_c, 8, 81, 91
10, 113463, Note_on_c, 8, 76, 68
10, 113493, Note_off_c, 8, 81, 64
10, 113555, Note_off_c, 8, 76, 64
10, 113578, Note_on_c, 8, 78, 76
10, 113634, Note_off_c, 8, 78, 64
10, 113711, Note_on_c, 8, 73, 100
10, 113816, Note_on_c, 8, 71, 70
10, 113843, Note_off_c, 8, 73, 64
10, 113915, Note_off_c, 8, 71, 64
10, 113920, Note_on_c, 8, 69, 80
10, 113988, Note_off_c, 8, 69, 64
10, 114055, Note_on_c, 8, 69, 87
10, 114244, Note_off_c, 8, 69, 64
10, 127286, Note_on_c, 8, 66, 57
10, 127349, Note_off_c, 8, 66, 64
10, 127412, Note_on_c, 8, 66, 64
10, 127553, Note_off_c, 8, 66, 64
10, 127650, Note_on_c, 8, 66, 60
10, 127715, Note_off_c, 8, 66, 64
10, 127778, Note_on_c, 8, 66, 78
10, 127905, Note_off_c, 8, 66, 64
10, 127999, Note_on_c, 8, 66, 60
10, 128064, Note_off_c, 8, 66, 64
10, 128152, Note_on_c, 8, 66, 82
10, 128298, Note_off_c, 8, 66, 64
10, 128505, Note_on_c, 8, 71, 82
10, 128634, Note_off_c, 8, 71, 64
10, 128876, Note_on_c, 8, 74, 85
10, 128994, Note_off_c, 8, 74, 64
10, 129227, Note_on_c, 8, 74, 85
10, 129353, Note_off_c, 8, 74, 64
10, 129570, Note_on_c, 8, 73, 70
10, 129713, Note_off_c, 8, 73, 64
10, 129921, Note_on_c, 8, 74, 82
10, 130056, Note_off_c, 8, 74, 64
10, 130276, Note_on_c, 8, 76, 93
10, 130402, Note_on_c, 8, 74, 80
10, 130433, Note_off_c, 8, 76, 64
10, 130485, Note_off_c, 8, 74, 64
10, 130533, Note_on_c, 8, 73, 49
10, 130573, Note_off_c, 8, 73, 64
10, 130659, Note_on_c, 8, 78, 98
10, 130766, Note_on_c, 8, 79, 82
10, 130768, Note_off_c, 8, 78, 64
10, 130834, Note_off_c, 8, 79, 64
10, 130883, Note_on_c, 8, 76, 66
10, 130929, Note_off_c, 8, 76, 64
10, 131009, Note_on_c, 8, 76, 95
10, 131106, Note_on_c, 8, 78, 64
10, 131120, Note_off_c, 8, 76, 64
10, 131189, Note_off_c, 8, 78, 64
10, 131225, Note_on_c, 8, 74, 64
10, 131279, Note_off_c, 8, 74, 64
10, 131356, Note_on_c, 8, 74, 95
10, 131466, Note_on_c, 8, 71, 72
10, 131493, Note_off_c, 8, 74, 64
10, 131581, Note_on_c, 8, 73, 64
10, 131603, Note_off_c, 8, 71, 64
10, 131673, Note_off_c, 8, 73, 64
10, 131718, Note_on_c, 8, 74, 91
10, 131828, Note_on_c, 8, 76, 66
10, 131844, Note_off_c, 8, 74, 64
10, 131898, Note_off_c, 8, 76, 64
10, 131950, Note_on_c, 8, 72, 63
10, 131993, Note_off_c, 8, 72, 64
10, 132080, Note_on_c, 8, 72, 98
10, 132177, Note_on_c, 8, 74, 70
10, 132197, Note_off_c, 8, 72, 64
10, 132254, Note_off_c, 8, 74, 64
10, 132296, Note_on_c, 8, 71, 63
10, 132348, Note_off_c, 8, 71, 64
10, 132427, Note_on_c, 8, 71, 80
10, 132558, Note_off_c, 8, 71, 64
10, 132654, Note_on_c, 8, 71, 66
10, 132713, Note_off_c, 8, 71, 64
10, 132787, Note_on_c, 8, 76, 80
10, 132904, Note_off_c, 8, 76, 64
10, 133010, Note_on_c, 8, 75, 62
10, 133091, Note_off_c, 8, 75, 64
10, 133140, Note_on_c, 8, 76, 78
10, 133271, Note_off_c, 8, 76, 64
10, 133361, Note_on_c, 8, 78, 63
10, 133433, Note_off_c, 8, 78, 64
10, 133507, Note_on_c, 8, 79, 85
10, 133615, Note_on_c, 8, 81, 76
10, 133649, Note_off_c, 8, 79, 64
10, 133682, Note_off_c, 8, 81, 64
10, 133743, Note_on_c, 8, 78, 80
10, 133799, Note_off_c, 8, 78, 64
10, 133874, Note_on_c, 8, 76, 98
10, 133986, Note_on_c, 8, 78, 66
10, 133995, Note_off_c, 8, 76, 64
10, 134058, Note_off_c, 8, 78, 64
10, 134110, Note_on_c, 8, 74, 78
10, 134160, Note_off_c, 8, 74, 64
10, 134238, Note_on_c, 8, 73, 98
10, 134344, Note_on_c, 8, 74, 78
10, 134367, Note_off_c, 8, 73, 64
10, 134407, Note_off_c, 8, 74, 64
10, 134461, Note_on_c, 8, 71, 78
10, 134515, Note_off_c, 8, 71, 64
10, 134594, Note_on_c, 8, 76, 102
10, 134715, Note_off_c, 8, 76, 64
10, 134819, Note_on_c, 8, 73, 56
10, 134897, Note_off_c, 8, 73, 64
10, 134951, Note_on_c, 8, 66, 63
10, 135071, Note_off_c, 8, 66, 64
10, 135186, Note_on_c, 8, 76, 66
10, 135273, Note_off_c, 8, 76, 64
10, 135325, Note_on_c, 8, 74, 85
10, 135451, Note_off_c, 8, 74, 64
10, 135548, Note_on_c, 8, 79, 80
10, 135609, Note_off_c, 8, 79, 64
10, 135681, Note_on_c, 8, 78, 102
10, 135795, Note_on_c, 8, 76, 85
10, 135835, Note_off_c, 8, 78, 64
10, 135915, Note_on_c, 8, 74, 74
10, 135928, Note_off_c, 8, 76, 64
10, 135991, Note_off_c, 8, 74, 64
10, 136034, Note_on_c, 8, 73, 98
10, 136151, Note_on_c, 8, 74, 68
10, 136155, Note_off_c, 8, 73, 64
10, 136229, Note_off_c, 8, 74, 64
10, 136252, Note_on_c, 8, 71, 70
10, 136308, Note_off_c, 8, 71, 64
10, 136397, Note_on_c, 8, 66, 91
10, 136493, Note_off_c, 8, 66, 64
10, 136493, Note_on_c, 8, 71, 66
10, 136592, Note_off_c, 8, 71, 64
10, 136617, Note_on_c, 8, 70, 76
10, 136675, Note_off_c, 8, 70, 64
10, 136761, Note_on_c, 8, 71, 70
10, 138983, Note_off_c, 8, 71, 64
10, 158396, Note_on_c, 8, 62, 91
10, 158498, Note_on_c, 8, 66, 66
10, 158532, Note_off_c, 8, 62, 64
10, 158597, Note_off_c, 8, 66, 64
10, 158612, Note_on_c, 8, 67, 82
10, 158687, Note_off_c, 8, 67, 64
10, 158743, Note_on_c, 8, 67, 102
10, 158855, Note_on_c, 8, 69, 70
10, 158878, Note_off_c, 8, 67, 64
10, 158937, Note_off_c, 8, 69, 64
10, 158961, Note_on_c, 8, 65, 60
10, 159017, Note_off_c, 8, 65, 64
10, 159090, Note_on_c, 8, 65, 87
10, 159197, Note_on_c, 8, 67, 68
10, 159216, Note_off_c, 8, 65, 64
10, 159285, Note_off_c, 8, 67, 64
10, 159310, Note_on_c, 8, 64, 60
10, 159386, Note_off_c, 8, 64, 64
10, 159454, Note_on_c, 8, 64, 87
10, 159548, Note_on_c, 8, 67, 82
10, 159593, Note_off_c, 8, 64, 64
10, 159674, Note_on_c, 8, 69, 85
10, 159695, Note_off_c, 8, 67, 64
10, 159769, Note_off_c, 8, 69, 64
10, 159805, Note_on_c, 8, 69, 100
10, 159922, Note_on_c, 8, 71, 70
10, 159938, Note_off_c, 8, 69, 64
10, 160017, Note_off_c, 8, 71, 64
10, 160034, Note_on_c, 8, 67, 60
10, 160098, Note_off_c, 8, 67, 64
10, 160163, Note_on_c, 8, 67, 82
10, 160275, Note_on_c, 8, 69, 63
10, 160304, Note_off_c, 8, 67, 64
10, 160370, Note_off_c, 8, 69, 64
10, 160394, Note_on_c, 8, 66, 60
10, 160446, Note_off_c, 8, 66, 64
10, 160530, Note_on_c, 8, 66, 89
10, 160631, Note_on_c, 8, 69, 85
10, 160660, Note_off_c, 8, 66, 64
10, 160759, Note_on_c, 8, 71, 85
10, 160791, Note_off_c, 8, 69, 64
10, 160849, Note_off_c, 8, 71, 64
10, 160893, Note_on_c, 8, 71, 102
10, 161015, Note_on_c, 8, 72, 68
10, 161031, Note_off_c, 8, 71, 64
10, 161097, Note_off_c, 8, 72, 64
10, 161126, Note_on_c, 8, 69, 57
10, 161191, Note_off_c, 8, 69, 64
10, 161259, Note_on_c, 8, 69, 89
10, 161369, Note_on_c, 8, 71, 68
10, 161393, Note_off_c, 8, 69, 64
10, 161461, Note_off_c, 8, 71, 64
10, 161475, Note_on_c, 8, 67, 70
10, 161562, Note_off_c, 8, 67, 64
10, 161619, Note_on_c, 8, 67, 95
10, 161729, Note_on_c, 8, 69, 87
10, 161764, Note_off_c, 8, 67, 64
10, 161839, Note_on_c, 8, 71, 85
10, 161857, Note_off_c, 8, 69, 64
10, 161922, Note_off_c, 8, 71, 64
10, 161978, Note_on_c, 8, 71, 91
10, 162955, Note_off_c, 8, 71, 64
10, 163020, Note_on_c, 8, 69, 72
10, 163187, Note_off_c, 8, 69, 64
10, 163394, Note_on_c, 8, 72, 87
10, 163790, Note_off_c, 8, 72, 64
10, 163869, Note_on_c, 8, 66, 82
10, 163979, Note_on_c, 8, 67, 95
10, 164006, Note_off_c, 8, 66, 64
10, 164076, Note_off_c, 8, 67, 64
10, 164093, Note_on_c, 8, 69, 98
10, 164210, Note_on_c, 8, 78, 82
10, 164237, Note_off_c, 8, 69, 64
10, 164310, Note_off_c, 8, 78, 64
10, 164328, Note_on_c, 8, 67, 82
10, 164424, Note_off_c, 8, 67, 64
10, 164465, Note_on_c, 8, 69, 85
10, 164580, Note_off_c, 8, 69, 64
10, 164584, Note_on_c, 8, 67, 82
10, 164679, Note_off_c, 8, 67, 64
10, 164699, Note_on_c, 8, 66, 72
10, 164774, Note_off_c, 8, 66, 64
10, 164838, Note_on_c, 8, 68, 91
10, 164986, Note_off_c, 8, 68, 64
10, 165183, Note_on_c, 8, 71, 82
10, 165322, Note_off_c, 8, 71, 64
10, 165558, Note_on_c, 8, 76, 95
10, 165988, Note_off_c, 8, 76, 64
10, 166047, Note_on_c, 8, 64, 82
10, 166148, Note_on_c, 8, 66, 72
10, 166170, Note_off_c, 8, 64, 64
10, 166245, Note_off_c, 8, 66, 64
10, 166274, Note_on_c, 8, 67, 95
10, 166395, Note_on_c, 8, 76, 82
10, 166400, Note_off_c, 8, 67, 64
10, 166481, Note_off_c, 8, 76, 64
10, 166508, Note_on_c, 8, 66, 70
10, 166604, Note_off_c, 8, 66, 64
10, 166643, Note_on_c, 8, 67, 95
10, 166758, Note_on_c, 8, 66, 80
10, 166778, Note_off_c, 8, 67, 64
10, 166853, Note_off_c, 8, 66, 64
10, 166881, Note_on_c, 8, 64, 82
10, 166989, Note_off_c, 8, 64, 64
10, 167003, Note_on_c, 8, 66, 68
10, 167129, Note_off_c, 8, 66, 64
10, 167358, Note_on_c, 8, 69, 82
10, 167498, Note_off_c, 8, 69, 64
10, 167716, Note_on_c, 8, 74, 89
10, 168101, Note_off_c, 8, 74, 64
10, 168200, Note_on_c, 8, 66, 78
10, 168314, Note_on_c, 8, 67, 82
10, 168350, Note_off_c, 8, 66, 64
10, 168418, Note_off_c, 8, 67, 64
10, 168450, Note_on_c, 8, 69, 89
10, 168567, Note_on_c, 8, 66, 74
10, 168569, Note_off_c, 8, 69, 64
10, 168652, Note_off_c, 8, 66, 64
10, 168681, Note_on_c, 8, 67, 68
10, 168742, Note_off_c, 8, 67, 64
10, 168807, Note_on_c, 8, 62, 80
10, 168906, Note_on_c, 8, 66, 64
10, 168933, Note_off_c, 8, 62, 64
10, 168996, Note_off_c, 8, 66, 64
10, 169034, Note_on_c, 8, 67, 78
10, 169113, Note_off_c, 8, 67, 64
10, 169163, Note_on_c, 8, 76, 68
10, 169266, Note_off_c, 8, 76, 64
10, 169280, Note_on_c, 8, 66, 78
10, 169385, Note_on_c, 8, 67, 80
10, 169395, Note_off_c, 8, 66, 64
10, 169484, Note_off_c, 8, 67, 64
10, 169514, Note_on_c, 8, 69, 89
10, 169635, Note_on_c, 8, 66, 60
10, 169638, Note_off_c, 8, 69, 64
10, 169748, Note_off_c, 8, 66, 64
10, 169754, Note_on_c, 8, 67, 66
10, 169858, Note_off_c, 8, 67, 64
10, 169889, Note_on_c, 8, 64, 85
10, 169998, Note_on_c, 8, 66, 64
10, 170038, Note_off_c, 8, 64, 64
10, 170088, Note_off_c, 8, 66, 64
10, 170118, Note_on_c, 8, 67, 82
10, 170200, Note_off_c, 8, 67, 64
10, 170258, Note_on_c, 8, 70, 98
10, 170362, Note_on_c, 8, 69, 72
10, 170394, Note_off_c, 8, 70, 64
10, 170479, Note_off_c, 8, 69, 64
10, 170490, Note_on_c, 8, 67, 58
10, 170555, Note_off_c, 8, 67, 64
10, 170616, Note_on_c, 8, 67, 89
10, 170738, Note_on_c, 8, 65, 70
10, 170762, Note_off_c, 8, 67, 64
10, 170826, Note_off_c, 8, 65, 64
10, 170848, Note_on_c, 8, 64, 66
10, 170930, Note_off_c, 8, 64, 64
10, 170985, Note_on_c, 8, 64, 95
10, 171096, Note_on_c, 8, 65, 70
10, 171125, Note_off_c, 8, 64, 64
10, 171203, Note_off_c, 8, 65, 64
10, 171212, Note_on_c, 8, 67, 74
10, 171294, Note_off_c, 8, 67, 64
10, 171339, Note_on_c, 8, 65, 87
10, 171424, Note_off_c, 8, 65, 64
10, 171456, Note_on_c, 8, 62, 87
10, 171564, Note_on_c, 8, 64, 82
10, 171591, Note_off_c, 8, 62, 64
10, 171689, Note_off_c, 8, 64, 64
10, 171708, Note_on_c, 8, 65, 87
10, 171818, Note_on_c, 8, 67, 74
10, 171829, Note_off_c, 8, 65, 64
10, 171906, Note_off_c, 8, 67, 64
10, 171932, Note_on_c, 8, 64, 68
10, 171995, Note_off_c, 8, 64, 64
10, 172052, Note_on_c, 8, 65, 87
10, 172164, Note_on_c, 8, 64, 82
10, 172178, Note_off_c, 8, 65, 64
10, 172263, Note_off_c, 8, 64, 64
10, 172272, Note_on_c, 8, 62, 80
10, 172340, Note_off_c, 8, 62, 64
10, 172410, Note_on_c, 8, 61, 89
10, 172515, Note_on_c, 8, 64, 70
10, 172531, Note_off_c, 8, 61, 64
10, 172632, Note_on_c, 8, 69, 89
10, 172650, Note_off_c, 8, 64, 64
10, 172722, Note_off_c, 8, 69, 64
10, 172763, Note_on_c, 8, 73, 102
10, 172889, Note_on_c, 8, 74, 78
10, 172922, Note_off_c, 8, 73, 64
10, 173003, Note_off_c, 8, 74, 64
10, 173010, Note_on_c, 8, 76, 80
10, 173085, Note_off_c, 8, 76, 64
10, 173138, Note_on_c, 8, 69, 100
10, 173231, Note_on_c, 8, 74, 64
10, 173247, Note_off_c, 8, 69, 64
10, 173341, Note_on_c, 8, 73, 78
10, 173355, Note_off_c, 8, 74, 64
10, 173424, Note_off_c, 8, 73, 64
10, 173485, Note_on_c, 8, 74, 80
10, 175681, Note_off_c, 8, 74, 64
10, 175758, Note_on_c, 8, 71, 82
10, 175870, Note_on_c, 8, 73, 68
10, 175906, Note_off_c, 8, 71, 64
10, 175991, Note_off_c, 8, 73, 64
10, 175994, Note_on_c, 8, 74, 82
10, 176113, Note_on_c, 8, 76, 78
10, 176135, Note_off_c, 8, 74, 64
10, 176198, Note_off_c, 8, 76, 64
10, 176232, Note_on_c, 8, 73, 66
10, 176300, Note_off_c, 8, 73, 64
10, 176363, Note_on_c, 8, 74, 105
10, 176478, Note_on_c, 8, 73, 82
10, 176491, Note_off_c, 8, 74, 64
10, 176585, Note_on_c, 8, 71, 74
10, 176588, Note_off_c, 8, 73, 64
10, 176671, Note_off_c, 8, 71, 64
10, 176720, Note_on_c, 8, 73, 95
10, 176837, Note_on_c, 8, 74, 82
10, 176855, Note_off_c, 8, 73, 64
10, 176955, Note_on_c, 8, 76, 80
10, 176975, Note_off_c, 8, 74, 64
10, 177069, Note_off_c, 8, 76, 64
10, 177074, Note_on_c, 8, 78, 93
10, 177184, Note_on_c, 8, 79, 74
10, 177215, Note_off_c, 8, 78, 64
10, 177287, Note_off_c, 8, 79, 64
10, 177306, Note_on_c, 8, 76, 68
10, 177365, Note_off_c, 8, 76, 64
10, 177423, Note_on_c, 8, 76, 100
10, 177535, Note_on_c, 8, 78, 57
10, 177559, Note_off_c, 8, 76, 64
10, 177645, Note_off_c, 8, 78, 64
10, 177652, Note_on_c, 8, 74, 70
10, 177719, Note_off_c, 8, 74, 64
10, 177789, Note_on_c, 8, 74, 93
10, 178206, Note_off_c, 8, 74, 64
10, 178277, Note_on_c, 8, 67, 85
10, 178385, Note_on_c, 8, 66, 93
10, 178430, Note_off_c, 8, 67, 64
10, 178494, Note_off_c, 8, 66, 64
10, 178530, Note_on_c, 8, 64, 98
10, 178633, Note_off_c, 8, 64, 64
10, 178635, Note_on_c, 8, 74, 85
10, 178743, Note_off_c, 8, 74, 64
10, 178743, Note_on_c, 8, 73, 58
10, 178800, Note_off_c, 8, 73, 64
10, 200519, Note_on_c, 8, 74, 105
10, 200815, Note_off_c, 8, 74, 64
10, 200832, Note_on_c, 8, 73, 80
10, 200865, Note_off_c, 8, 73, 64
10, 200888, Note_on_c, 8, 74, 89
10, 200916, Note_off_c, 8, 74, 64
10, 200942, Note_on_c, 8, 69, 80
10, 200977, Note_off_c, 8, 69, 64
10, 201008, Note_on_c, 8, 78, 102
10, 201519, Note_off_c, 8, 78, 64
10, 201540, Note_on_c, 8, 76, 80
10, 201584, Note_off_c, 8, 76, 64
10, 201599, Note_on_c, 8, 74, 82
10, 201638, Note_off_c, 8, 74, 64
10, 201657, Note_on_c, 8, 76, 93
10, 201693, Note_off_c, 8, 76, 64
10, 201719, Note_on_c, 8, 78, 102
10, 201758, Note_off_c, 8, 78, 64
10, 201776, Note_on_c, 8, 76, 93
10, 201810, Note_off_c, 8, 76, 64
10, 201833, Note_on_c, 8, 78, 98
10, 201867, Note_off_c, 8, 78, 64
10, 201886, Note_on_c, 8, 74, 100
10, 201934, Note_off_c, 8, 74, 64
10, 201959, Note_on_c, 8, 81, 95
10, 202457, Note_off_c, 8, 81, 64
10, 202493, Note_on_c, 8, 79, 80
10, 202532, Note_off_c, 8, 79, 64
10, 202551, Note_on_c, 8, 78, 85
10, 202587, Note_off_c, 8, 78, 64
10, 202611, Note_on_c, 8, 79, 85
10, 202646, Note_off_c, 8, 79, 64
10, 202673, Note_on_c, 8, 81, 85
10, 202712, Note_off_c, 8, 81, 64
10, 202735, Note_on_c, 8, 79, 91
10, 202770, Note_off_c, 8, 79, 64
10, 202793, Note_on_c, 8, 81, 82
10, 202833, Note_off_c, 8, 81, 64
10, 202850, Note_on_c, 8, 78, 91
10, 202884, Note_off_c, 8, 78, 64
10, 202924, Note_on_c, 8, 71, 93
10, 202989, Note_off_c, 8, 71, 64
10, 203093, Note_on_c, 8, 81, 80
10, 203133, Note_off_c, 8, 81, 64
10, 203154, Note_on_c, 8, 83, 93
10, 203228, Note_off_c, 8, 83, 64
10, 203323, Note_on_c, 8, 78, 68
10, 203361, Note_off_c, 8, 78, 64
10, 203394, Note_on_c, 8, 79, 93
10, 204441, Note_off_c, 8, 79, 64
10, 204465, Note_on_c, 8, 69, 66
10, 204504, Note_off_c, 8, 69, 64
10, 204519, Note_on_c, 8, 71, 82
10, 204560, Note_off_c, 8, 71, 64
10, 204581, Note_on_c, 8, 73, 82
10, 204624, Note_off_c, 8, 73, 64
10, 204640, Note_on_c, 8, 74, 78
10, 204684, Note_off_c, 8, 74, 64
10, 204702, Note_on_c, 8, 76, 78
10, 204741, Note_off_c, 8, 76, 64
10, 204758, Note_on_c, 8, 78, 91
10, 204799, Note_off_c, 8, 78, 64
10, 204821, Note_on_c, 8, 79, 95
10, 204879, Note_off_c, 8, 79, 64
10, 204886, Note_on_c, 8, 78, 91
10, 204923, Note_off_c, 8, 78, 64
10, 204937, Note_on_c, 8, 76, 78
10, 204973, Note_off_c, 8, 76, 64
10, 204992, Note_on_c, 8, 78, 87
10, 205034, Note_off_c, 8, 78, 64
10, 205053, Note_on_c, 8, 79, 85
10, 205100, Note_off_c, 8, 79, 64
10, 205114, Note_on_c, 8, 76, 82
10, 205155, Note_off_c, 8, 76, 64
10, 205176, Note_on_c, 8, 81, 87
10, 205220, Note_off_c, 8, 81, 64
10, 205232, Note_on_c, 8, 76, 80
10, 205267, Note_off_c, 8, 76, 64
10, 205294, Note_on_c, 8, 78, 85
10, 205348, Note_off_c, 8, 78, 64
10, 205357, Note_on_c, 8, 81, 87
10, 205399, Note_off_c, 8, 81, 64
10, 205413, Note_on_c, 8, 74, 80
10, 205468, Note_off_c, 8, 74, 64
10, 205471, Note_on_c, 8, 76, 72
10, 205521, Note_off_c, 8, 76, 64
10, 205527, Note_on_c, 8, 78, 85
10, 205569, Note_off_c, 8, 78, 64
10, 205588, Note_on_c, 8, 79, 89
10, 205635, Note_off_c, 8, 79, 64
10, 205649, Note_on_c, 8, 81, 70
10, 205705, Note_off_c, 8, 81, 64
10, 205709, Note_on_c, 8, 83, 78
10, 205749, Note_off_c, 8, 83, 64
10, 205773, Note_on_c, 8, 84, 95
10, 205827, Note_off_c, 8, 84, 64
10, 205833, Note_on_c, 8, 83, 82
10, 205878, Note_off_c, 8, 83, 64
10, 205895, Note_on_c, 8, 81, 78
10, 205943, Note_off_c, 8, 81, 64
10, 205955, Note_on_c, 8, 83, 87
10, 205996, Note_off_c, 8, 83, 64
10, 206014, Note_on_c, 8, 84, 87
10, 206057, Note_off_c, 8, 84, 64
10, 206070, Note_on_c, 8, 81, 87
10, 206116, Note_off_c, 8, 81, 64
10, 206132, Note_on_c, 8, 86, 87
10, 206180, Note_off_c, 8, 86, 64
10, 206193, Note_on_c, 8, 81, 85
10, 206239, Note_off_c, 8, 81, 64
10, 206269, Note_on_c, 8, 83, 85
10, 207026, Note_off_c, 8, 83, 64
10, 207048, Note_on_c, 8, 81, 85
10, 207084, Note_off_c, 8, 81, 64
10, 207108, Note_on_c, 8, 83, 87
10, 207149, Note_off_c, 8, 83, 64
10, 207161, Note_on_c, 8, 79, 87
10, 207203, Note_off_c, 8, 79, 64
10, 207228, Note_on_c, 8, 81, 100
10, 207821, Note_off_c, 8, 81, 64
10, 207839, Note_on_c, 8, 86, 98
10, 207889, Note_off_c, 8, 86, 64
10, 207895, Note_on_c, 8, 85, 80
10, 207938, Note_off_c, 8, 85, 64
10, 207951, Note_on_c, 8, 83, 80
10, 208001, Note_off_c, 8, 83, 64
10, 208014, Note_on_c, 8, 81, 82
10, 208058, Note_off_c, 8, 81, 64
10, 208070, Note_on_c, 8, 79, 80
10, 208102, Note_off_c, 8, 79, 64
10, 208119, Note_on_c, 8, 78, 95
10, 208160, Note_off_c, 8, 78, 64
10, 208187, Note_on_c, 8, 79, 87
10, 208486, Note_off_c, 8, 79, 64
10, 208606, Note_on_c, 8, 79, 91
10, 208638, Note_off_c, 8, 79, 64
10, 208662, Note_on_c, 8, 79, 98
10, 208747, Note_off_c, 8, 79, 64
10, 208848, Note_on_c, 8, 76, 80
10, 208889, Note_off_c, 8, 76, 64
10, 208909, Note_on_c, 8, 81, 93
10, 208993, Note_off_c, 8, 81, 64
10, 209094, Note_on_c, 8, 76, 76
10, 209138, Note_off_c, 8, 76, 64
10, 209158, Note_on_c, 8, 78, 98
10, 209280, Note_off_c, 8, 78, 64
10, 209398, Note_on_c, 8, 74, 82
10, 209497, Note_off_c, 8, 74, 64
10, 209630, Note_on_c, 8, 71, 82
10, 210137, Note_off_c, 8, 71, 64
10, 210178, Note_on_c, 8, 71, 82
10, 210230, Note_off_c, 8, 71, 64
10, 210238, Note_on_c, 8, 73, 58
10, 210277, Note_off_c, 8, 73, 64
10, 210295, Note_on_c, 8, 74, 85
10, 210333, Note_off_c, 8, 74, 64
10, 210357, Note_on_c, 8, 76, 82
10, 210398, Note_off_c, 8, 76, 64
10, 210416, Note_on_c, 8, 74, 89
10, 210455, Note_off_c, 8, 74, 64
10, 210475, Note_on_c, 8, 76, 80
10, 210517, Note_off_c, 8, 76, 64
10, 210530, Note_on_c, 8, 73, 89
10, 210564, Note_off_c, 8, 73, 64
10, 210593, Note_on_c, 8, 66, 93
10, 210688, Note_off_c, 8, 66, 64
10, 210775, Note_on_c, 8, 76, 91
10, 210811, Note_off_c, 8, 76, 64
10, 210831, Note_on_c, 8, 74, 100
10, 210931, Note_off_c, 8, 74, 64
10, 211002, Note_on_c, 8, 73, 68
10, 211047, Note_off_c, 8, 73, 64
10, 211068, Note_on_c, 8, 74, 87
10, 211340, Note_off_c, 8, 74, 64
10, 211370, Note_on_c, 8, 73, 87
10, 211407, Note_off_c, 8, 73, 64
10, 211424, Note_on_c, 8, 74, 87
10, 211462, Note_off_c, 8, 74, 64
10, 211482, Note_on_c, 8, 71, 87
10, 211525, Note_off_c, 8, 71, 64
10, 211550, Note_on_c, 8, 67, 85
10, 212057, Note_off_c, 8, 67, 64
10, 212085, Note_on_c, 8, 66, 78
10, 212120, Note_off_c, 8, 66, 64
10, 212146, Note_on_c, 8, 67, 82
10, 212189, Note_off_c, 8, 67, 64
10, 212205, Note_on_c, 8, 64, 85
10, 212253, Note_off_c, 8, 64, 64
10, 212271, Note_on_c, 8, 66, 87
10, 212361, Note_off_c, 8, 66, 64
10, 212446, Note_on_c, 8, 67, 82
10, 212487, Note_off_c, 8, 67, 64
10, 212506, Note_on_c, 8, 69, 100
10, 212605, Note_off_c, 8, 69, 64
10, 212684, Note_on_c, 8, 71, 87
10, 212728, Note_off_c, 8, 71, 64
10, 212747, Note_on_c, 8, 73, 87
10, 212824, Note_off_c, 8, 73, 64
10, 212925, Note_on_c, 8, 74, 85
10, 212960, Note_off_c, 8, 74, 64
10, 212996, Note_on_c, 8, 64, 82
10, 213264, Note_off_c, 8, 64, 64
10, 213295, Note_on_c, 8, 62, 91
10, 213334, Note_off_c, 8, 62, 64
10, 213346, Note_on_c, 8, 64, 76
10, 213386, Note_off_c, 8, 64, 64
10, 213405, Note_on_c, 8, 61, 78
10, 213449, Note_off_c, 8, 61, 64
10, 213486, Note_on_c, 8, 67, 78
10, 213752, Note_off_c, 8, 67, 64
10, 213764, Note_on_c, 8, 66, 82
10, 213804, Note_off_c, 8, 66, 64
10, 213823, Note_on_c, 8, 67, 82
10, 213865, Note_off_c, 8, 67, 64
10, 213879, Note_on_c, 8, 64, 82
10, 213917, Note_off_c, 8, 64, 64
10, 213948, Note_on_c, 8, 66, 89
10, 214218, Note_off_c, 8, 66, 64
10, 214234, Note_on_c, 8, 64, 87
10, 214276, Note_off_c, 8, 64, 64
10, 214290, Note_on_c, 8, 66, 87
10, 214333, Note_off_c, 8, 66, 64
10, 214340, Note_on_c, 8, 62, 89
10, 214392, Note_off_c, 8, 62, 64
10, 214408, Note_on_c, 8, 69, 95
10, 214679, Note_off_c, 8, 69, 64
10, 214711, Note_on_c, 8, 67, 89
10, 214751, Note_off_c, 8, 67, 64
10, 214767, Note_on_c, 8, 69, 82
10, 214808, Note_off_c, 8, 69, 64
10, 214826, Note_on_c, 8, 66, 82
10, 214864, Note_off_c, 8, 66, 64
10, 214893, Note_on_c, 8, 67, 93
10, 215176, Note_off_c, 8, 67, 64
10, 215195, Note_on_c, 8, 66, 82
10, 215237, Note_off_c, 8, 66, 64
10, 215252, Note_on_c, 8, 67, 85
10, 215286, Note_off_c, 8, 67, 64
10, 215308, Note_on_c, 8, 64, 82
10, 215358, Note_off_c, 8, 64, 64
10, 215381, Note_on_c, 8, 70, 82
10, 215643, Note_off_c, 8, 70, 64
10, 215676, Note_on_c, 8, 69, 87
10, 215716, Note_off_c, 8, 69, 64
10, 215738, Note_on_c, 8, 70, 85
10, 215783, Note_off_c, 8, 70, 64
10, 215794, Note_on_c, 8, 67, 85
10, 215839, Note_off_c, 8, 67, 64
10, 215866, Note_on_c, 8, 69, 95
10, 216159, Note_off_c, 8, 69, 64
10, 216177, Note_on_c, 8, 67, 82
10, 216221, Note_off_c, 8, 67, 64
10, 216231, Note_on_c, 8, 69, 76
10, 216273, Note_off_c, 8, 69, 64
10, 216287, Note_on_c, 8, 65, 87
10, 216329, Note_off_c, 8, 65, 64
10, 216351, Note_on_c, 8, 67, 93
10, 216641, Note_off_c, 8, 67, 64
10, 216658, Note_on_c, 8, 65, 82
10, 216697, Note_off_c, 8, 65, 64
10, 216716, Note_on_c, 8, 67, 80
10, 216757, Note_off_c, 8, 67, 64
10, 216766, Note_on_c, 8, 64, 91
10, 216813, Note_off_c, 8, 64, 64
10, 216836, Note_on_c, 8, 65, 89
10, 217104, Note_off_c, 8, 65, 64
10, 217137, Note_on_c, 8, 64, 82
10, 217176, Note_off_c, 8, 64, 64
10, 217190, Note_on_c, 8, 65, 87
10, 217219, Note_off_c, 8, 65, 64
10, 217243, Note_on_c, 8, 62, 82
10, 217304, Note_off_c, 8, 62, 64
10, 217327, Note_on_c, 8, 72, 95
10, 217815, Note_off_c, 8, 72, 64
10, 217833, Note_on_c, 8, 71, 85
10, 217879, Note_off_c, 8, 71, 64
10, 217891, Note_on_c, 8, 72, 89
10, 217929, Note_off_c, 8, 72, 64
10, 217945, Note_on_c, 8, 69, 98
10, 217995, Note_off_c, 8, 69, 64
10, 218016, Note_on_c, 8, 71, 102
10, 218118, Note_off_c, 8, 71, 64
10, 218197, Note_on_c, 8, 73, 91
10, 218238, Note_off_c, 8, 73, 64
10, 218259, Note_on_c, 8, 74, 89
10, 218612, Note_off_c, 8, 74, 64
10, 218686, Note_on_c, 8, 76, 87
10, 218736, Note_off_c, 8, 76, 64
10, 218747, Note_on_c, 8, 69, 93
10, 218827, Note_off_c, 8, 69, 64
10, 218918, Note_on_c, 8, 79, 89
10, 218961, Note_off_c, 8, 79, 64
10, 218984, Note_on_c, 8, 78, 107
10, 219066, Note_off_c, 8, 78, 64
10, 219154, Note_on_c, 8, 76, 82
10, 219188, Note_off_c, 8, 76, 64
10, 219225, Note_on_c, 8, 74, 100
10, 219300, Note_on_c, 8, 73, 64
10, 219301, Note_off_c, 8, 74, 64
10, 219329, Note_off_c, 8, 73, 64
10, 219330, Note_on_c, 8, 74, 78
10, 219361, Note_on_c, 8, 73, 56
10, 219363, Note_off_c, 8, 74, 64
10, 219383, Note_off_c, 8, 73, 64
10, 219383, Note_on_c, 8, 74, 78
10, 219406, Note_on_c, 8, 73, 63
10, 219409, Note_off_c, 8, 74, 64
10, 219427, Note_on_c, 8, 74, 80
10, 219434, Note_off_c, 8, 73, 64
10, 219456, Note_on_c, 8, 73, 89
10, 219461, Note_off_c, 8, 74, 64
10, 219573, Note_off_c, 8, 73, 64
10, 219629, Note_on_c, 8, 74, 82
10, 219669, Note_off_c, 8, 74, 64
10, 219719, Note_on_c, 8, 74, 95
10, 220410, Note_off_c, 8, 74, 64
10, 289021, Note_on_c, 8, 69, 85
10, 289088, Note_off_c, 8, 69, 64
10, 289151, Note_on_c, 8, 69, 98
10, 289268, Note_on_c, 8, 73, 62
10, 289293, Note_off_c, 8, 69, 64
10, 289363, Note_off_c, 8, 73, 64
10, 289383, Note_on_c, 8, 71, 63
10, 289433, Note_off_c, 8, 71, 64
10, 289516, Note_on_c, 8, 71, 98
10, 289624, Note_on_c, 8, 74, 80
10, 289638, Note_off_c, 8, 71, 64
10, 289701, Note_off_c, 8, 74, 64
10, 289743, Note_on_c, 8, 73, 72
10, 289799, Note_off_c, 8, 73, 64
10, 289890, Note_on_c, 8, 73, 82
10, 290119, Note_off_c, 8, 73, 64
10, 291204, Note_on_c, 8, 76, 85
10, 291276, Note_off_c, 8, 76, 64
10, 291338, Note_on_c, 8, 76, 100
10, 291453, Note_on_c, 8, 79, 68
10, 291476, Note_off_c, 8, 76, 64
10, 291525, Note_off_c, 8, 79, 64
10, 291572, Note_on_c, 8, 78, 68
10, 291627, Note_off_c, 8, 78, 64
10, 291705, Note_on_c, 8, 78, 98
10, 291815, Note_on_c, 8, 81, 68
10, 291824, Note_off_c, 8, 78, 64
10, 291876, Note_off_c, 8, 81, 64
10, 291932, Note_on_c, 8, 79, 78
10, 291984, Note_off_c, 8, 79, 64
10, 292061, Note_on_c, 8, 79, 100
10, 292160, Note_on_c, 8, 83, 72
10, 292169, Note_off_c, 8, 79, 64
10, 292229, Note_off_c, 8, 83, 64
10, 292274, Note_on_c, 8, 81, 82
10, 292333, Note_off_c, 8, 81, 64
10, 292409, Note_on_c, 8, 81, 105
10, 292515, Note_on_c, 8, 83, 63
10, 292538, Note_off_c, 8, 81, 64
10, 292585, Note_off_c, 8, 83, 64
10, 292646, Note_on_c, 8, 79, 70
10, 292697, Note_off_c, 8, 79, 64
10, 292778, Note_on_c, 8, 79, 100
10, 292881, Note_on_c, 8, 81, 63
10, 292903, Note_off_c, 8, 79, 64
10, 292949, Note_off_c, 8, 81, 64
10, 292986, Note_on_c, 8, 78, 66
10, 293042, Note_off_c, 8, 78, 64
10, 293125, Note_on_c, 8, 78, 93
10, 293334, Note_off_c, 8, 78, 64
10, 294455, Note_on_c, 8, 78, 91
10, 294520, Note_off_c, 8, 78, 64
10, 294588, Note_on_c, 8, 78, 105
10, 294704, Note_on_c, 8, 81, 66
10, 294713, Note_off_c, 8, 78, 64
10, 294767, Note_off_c, 8, 81, 64
10, 294817, Note_on_c, 8, 79, 64
10, 294871, Note_off_c, 8, 79, 64
10, 294947, Note_on_c, 8, 79, 102
10, 295053, Note_off_c, 8, 79, 64
10, 295053, Note_on_c, 8, 83, 70
10, 295116, Note_off_c, 8, 83, 64
10, 295172, Note_on_c, 8, 81, 72
10, 295222, Note_off_c, 8, 81, 64
10, 295316, Note_on_c, 8, 81, 98
10, 295530, Note_off_c, 8, 81, 64
10, 296627, Note_on_c, 8, 74, 82
10, 296685, Note_off_c, 8, 74, 64
10, 296750, Note_on_c, 8, 74, 105
10, 296858, Note_on_c, 8, 76, 66
10, 296882, Note_off_c, 8, 74, 64
10, 296928, Note_off_c, 8, 76, 64
10, 296979, Note_on_c, 8, 72, 74
10, 297027, Note_off_c, 8, 72, 64
10, 297103, Note_on_c, 8, 72, 100
10, 297209, Note_on_c, 8, 74, 66
10, 297238, Note_off_c, 8, 72, 64
10, 297292, Note_off_c, 8, 74, 64
10, 297335, Note_on_c, 8, 71, 82
10, 297389, Note_off_c, 8, 71, 64
10, 297461, Note_on_c, 8, 71, 78
10, 297577, Note_on_c, 8, 67, 85
10, 297605, Note_off_c, 8, 71, 64
10, 297684, Note_on_c, 8, 69, 76
10, 297711, Note_off_c, 8, 67, 64
10, 297823, Note_on_c, 8, 71, 80
10, 297830, Note_off_c, 8, 69, 64
10, 297932, Note_on_c, 8, 73, 72
10, 297945, Note_off_c, 8, 71, 64
10, 298008, Note_off_c, 8, 73, 64
10, 298044, Note_on_c, 8, 74, 80
10, 298095, Note_off_c, 8, 74, 64
10, 298172, Note_on_c, 8, 74, 89
10, 298637, Note_off_c, 8, 74, 64
10, 298678, Note_on_c, 8, 73, 100
10, 298777, Note_on_c, 8, 71, 80
10, 298790, Note_off_c, 8, 73, 64
10, 298876, Note_off_c, 8, 71, 64
10, 298910, Note_on_c, 8, 73, 82
10, 299006, Note_on_c, 8, 74, 82
10, 299033, Note_off_c, 8, 73, 64
10, 299099, Note_off_c, 8, 74, 64
10, 299123, Note_on_c, 8, 76, 74
10, 299182, Note_off_c, 8, 76, 64
10, 299261, Note_on_c, 8, 76, 91
10, 299718, Note_off_c, 8, 76, 64
10, 299754, Note_on_c, 8, 74, 85
10, 299841, Note_off_c, 8, 74, 64
10, 299857, Note_on_c, 8, 73, 66
10, 299952, Note_off_c, 8, 73, 64
10, 299992, Note_on_c, 8, 74, 98
10, 300105, Note_on_c, 8, 76, 80
10, 300125, Note_off_c, 8, 74, 64
10, 300183, Note_off_c, 8, 76, 64
10, 300221, Note_on_c, 8, 78, 93
10, 300285, Note_off_c, 8, 78, 64
10, 300352, Note_on_c, 8, 78, 102
10, 300793, Note_off_c, 8, 78, 64
10, 300843, Note_on_c, 8, 76, 89
10, 300942, Note_on_c, 8, 74, 87
10, 300955, Note_off_c, 8, 76, 64
10, 301061, Note_off_c, 8, 74, 64
10, 301067, Note_on_c, 8, 76, 74
10, 301175, Note_on_c, 8, 78, 70
10, 301198, Note_off_c, 8, 76, 64
10, 301270, Note_off_c, 8, 78, 64
10, 301288, Note_on_c, 8, 79, 78
10, 301358, Note_off_c, 8, 79, 64
10, 301427, Note_on_c, 8, 79, 95
10, 301812, Note_off_c, 8, 79, 64
10, 313892, Note_on_c, 8, 74, 68
10, 313955, Note_off_c, 8, 74, 64
10, 314019, Note_on_c, 8, 78, 68
10, 314835, Note_off_c, 8, 78, 64
10, 314860, Note_on_c, 8, 76, 82
10, 314961, Note_off_c, 8, 76, 64
10, 314970, Note_on_c, 8, 75, 80
10, 315063, Note_off_c, 8, 75, 64
10, 315099, Note_on_c, 8, 76, 80
10, 315206, Note_on_c, 8, 78, 76
10, 315213, Note_off_c, 8, 76, 64
10, 315270, Note_off_c, 8, 78, 64
10, 315310, Note_on_c, 8, 79, 91
10, 315378, Note_off_c, 8, 79, 64
10, 315447, Note_on_c, 8, 79, 87
10, 315947, Note_off_c, 8, 79, 64
10, 315951, Note_on_c, 8, 81, 66
10, 316014, Note_off_c, 8, 81, 64
10, 316050, Note_on_c, 8, 78, 80
10, 316118, Note_off_c, 8, 78, 64
10, 316187, Note_on_c, 8, 78, 102
10, 316295, Note_on_c, 8, 79, 80
10, 316323, Note_off_c, 8, 78, 64
10, 316379, Note_off_c, 8, 79, 64
10, 316408, Note_on_c, 8, 76, 63
10, 316464, Note_off_c, 8, 76, 64
10, 316545, Note_on_c, 8, 76, 98
10, 316646, Note_on_c, 8, 78, 76
10, 316665, Note_off_c, 8, 76, 64
10, 316723, Note_off_c, 8, 78, 64
10, 316759, Note_on_c, 8, 75, 62
10, 316811, Note_off_c, 8, 75, 64
10, 316901, Note_on_c, 8, 75, 63
10, 317070, Note_off_c, 8, 75, 64
10, 317276, Note_on_c, 8, 78, 68
10, 317439, Note_off_c, 8, 78, 64
10, 317628, Note_on_c, 8, 83, 85
10, 317781, Note_off_c, 8, 83, 64
10, 318343, Note_on_c, 8, 71, 66
10, 318492, Note_off_c, 8, 71, 64
10, 318685, Note_on_c, 8, 76, 72
10, 318845, Note_off_c, 8, 76, 64
10, 319410, Note_on_c, 8, 81, 85
10, 319549, Note_off_c, 8, 81, 64
10, 319751, Note_on_c, 8, 74, 70
10, 319920, Note_off_c, 8, 74, 64
10, 320460, Note_on_c, 8, 79, 85
10, 320611, Note_off_c, 8, 79, 64
10, 320825, Note_on_c, 8, 72, 78
10, 320973, Note_off_c, 8, 72, 64
10, 321180, Note_on_c, 8, 81, 85
10, 321306, Note_off_c, 8, 81, 64
10, 321428, Note_on_c, 8, 74, 68
10, 321493, Note_off_c, 8, 74, 64
10, 321566, Note_on_c, 8, 74, 93
10, 321677, Note_on_c, 8, 76, 70
10, 321687, Note_off_c, 8, 74, 64
10, 321743, Note_off_c, 8, 76, 64
10, 321799, Note_on_c, 8, 72, 60
10, 321849, Note_off_c, 8, 72, 64
10, 321927, Note_on_c, 8, 72, 87
10, 322029, Note_on_c, 8, 74, 68
10, 322049, Note_off_c, 8, 72, 64
10, 322118, Note_off_c, 8, 74, 64
10, 322141, Note_on_c, 8, 71, 62
10, 322209, Note_off_c, 8, 71, 64
10, 322283, Note_on_c, 8, 71, 82
10, 322391, Note_on_c, 8, 72, 82
10, 322420, Note_off_c, 8, 71, 64
10, 322512, Note_on_c, 8, 74, 80
10, 322526, Note_off_c, 8, 72, 64
10, 322605, Note_off_c, 8, 74, 64
10, 322640, Note_on_c, 8, 76, 82
10, 322762, Note_on_c, 8, 78, 72
10, 322785, Note_off_c, 8, 76, 64
10, 322830, Note_off_c, 8, 78, 64
10, 322872, Note_on_c, 8, 74, 68
10, 322933, Note_off_c, 8, 74, 64
10, 323020, Note_on_c, 8, 74, 102
10, 323129, Note_on_c, 8, 76, 66
10, 323147, Note_off_c, 8, 74, 64
10, 323216, Note_off_c, 8, 76, 64
10, 323234, Note_on_c, 8, 72, 61
10, 323302, Note_off_c, 8, 72, 64
10, 323381, Note_on_c, 8, 72, 70
10, 323545, Note_off_c, 8, 72, 64
10, 323624, Note_on_c, 8, 72, 85
10, 323681, Note_off_c, 8, 72, 64
10, 323750, Note_on_c, 8, 72, 100
10, 323858, Note_on_c, 8, 74, 72
10, 323878, Note_off_c, 8, 72, 64
10, 323954, Note_on_c, 8, 71, 63
10, 323957, Note_off_c, 8, 74, 64
10, 324002, Note_off_c, 8, 71, 64
10, 324085, Note_on_c, 8, 71, 89
10, 324200, Note_on_c, 8, 72, 68
10, 324225, Note_off_c, 8, 71, 64
10, 324290, Note_off_c, 8, 72, 64
10, 324302, Note_on_c, 8, 69, 66
10, 324378, Note_off_c, 8, 69, 64
10, 324458, Note_on_c, 8, 69, 95
10, 324566, Note_on_c, 8, 71, 78
10, 324591, Note_off_c, 8, 69, 64
10, 324679, Note_on_c, 8, 72, 82
10, 324713, Note_off_c, 8, 71, 64
10, 324771, Note_off_c, 8, 72, 64
10, 324800, Note_on_c, 8, 74, 95
10, 324918, Note_on_c, 8, 76, 80
10, 324940, Note_off_c, 8, 74, 64
10, 324992, Note_off_c, 8, 76, 64
10, 325037, Note_on_c, 8, 72, 80
10, 325095, Note_off_c, 8, 72, 64
10, 325163, Note_on_c, 8, 72, 102
10, 325261, Note_on_c, 8, 74, 66
10, 325293, Note_off_c, 8, 72, 64
10, 325365, Note_off_c, 8, 74, 64
10, 325377, Note_on_c, 8, 71, 68
10, 325433, Note_off_c, 8, 71, 64
10, 325512, Note_on_c, 8, 71, 89
10, 325628, Note_on_c, 8, 67, 66
10, 325667, Note_off_c, 8, 71, 64
10, 325743, Note_on_c, 8, 69, 82
10, 325763, Note_off_c, 8, 67, 64
10, 325824, Note_off_c, 8, 69, 64
10, 325876, Note_on_c, 8, 71, 98
10, 325980, Note_on_c, 8, 72, 63
10, 326010, Note_off_c, 8, 71, 64
10, 326070, Note_off_c, 8, 72, 64
10, 326096, Note_on_c, 8, 69, 64
10, 326150, Note_off_c, 8, 69, 64
10, 326234, Note_on_c, 8, 69, 93
10, 326328, Note_on_c, 8, 71, 70
10, 326358, Note_off_c, 8, 69, 64
10, 326436, Note_on_c, 8, 67, 68
10, 326437, Note_off_c, 8, 71, 64
10, 326515, Note_off_c, 8, 67, 64
10, 326591, Note_on_c, 8, 67, 80
10, 326718, Note_off_c, 8, 67, 64
10, 326803, Note_on_c, 8, 67, 62
10, 326880, Note_off_c, 8, 67, 64
10, 326960, Note_on_c, 8, 72, 93
10, 327087, Note_off_c, 8, 72, 64
10, 327190, Note_on_c, 8, 71, 74
10, 327273, Note_off_c, 8, 71, 64
10, 327312, Note_on_c, 8, 72, 87
10, 327433, Note_off_c, 8, 72, 64
10, 327536, Note_on_c, 8, 74, 80
10, 327604, Note_off_c, 8, 74, 64
10, 327680, Note_on_c, 8, 76, 91
10, 327789, Note_on_c, 8, 77, 66
10, 327813, Note_off_c, 8, 76, 64
10, 327888, Note_off_c, 8, 77, 64
10, 327894, Note_on_c, 8, 74, 66
10, 327951, Note_off_c, 8, 74, 64
10, 328045, Note_on_c, 8, 72, 91
10, 328150, Note_on_c, 8, 74, 70
10, 328153, Note_off_c, 8, 72, 64
10, 328241, Note_off_c, 8, 74, 64
10, 328252, Note_on_c, 8, 71, 68
10, 328313, Note_off_c, 8, 71, 64
10, 328382, Note_on_c, 8, 69, 80
10, 328475, Note_on_c, 8, 71, 70
10, 328493, Note_off_c, 8, 69, 64
10, 328592, Note_off_c, 8, 71, 64
10, 328599, Note_on_c, 8, 67, 63
10, 328673, Note_off_c, 8, 67, 64
10, 328729, Note_on_c, 8, 74, 89
10, 328854, Note_off_c, 8, 74, 64
10, 328958, Note_on_c, 8, 69, 74
10, 329052, Note_off_c, 8, 69, 64
10, 329094, Note_on_c, 8, 62, 78
10, 329204, Note_off_c, 8, 62, 64
10, 329352, Note_on_c, 8, 72, 78
10, 329435, Note_off_c, 8, 72, 64
10, 329487, Note_on_c, 8, 71, 64
10, 329597, Note_off_c, 8, 71, 64
10, 329721, Note_on_c, 8, 76, 80
10, 329775, Note_off_c, 8, 76, 64
10, 329856, Note_on_c, 8, 74, 100
10, 329960, Note_on_c, 8, 76, 74
10, 329987, Note_off_c, 8, 74, 64
10, 330056, Note_off_c, 8, 76, 64
10, 330072, Note_on_c, 8, 78, 85
10, 330160, Note_off_c, 8, 78, 64
10, 330200, Note_on_c, 8, 79, 98
10, 330308, Note_on_c, 8, 81, 85
10, 330327, Note_off_c, 8, 79, 64
10, 330389, Note_off_c, 8, 81, 64
10, 330420, Note_on_c, 8, 78, 89
10, 330482, Note_off_c, 8, 78, 64
10, 330545, Note_on_c, 8, 79, 98
10, 330605, Note_on_c, 8, 78, 89
10, 330617, Note_off_c, 8, 79, 64
10, 330659, Note_on_c, 8, 79, 74
10, 330664, Note_off_c, 8, 78, 64
10, 330702, Note_on_c, 8, 78, 72
10, 330731, Note_off_c, 8, 79, 64
10, 330774, Note_off_c, 8, 78, 64
10, 330797, Note_on_c, 8, 79, 95
10, 330867, Note_off_c, 8, 79, 64
10, 330918, Note_on_c, 8, 79, 100
10, 331060, Note_off_c, 8, 79, 64
10, 331166, Note_on_c, 8, 62, 62
10, 331222, Note_off_c, 8, 62, 64
10, 331289, Note_on_c, 8, 62, 72
10, 331424, Note_off_c, 8, 62, 64
10, 331521, Note_on_c, 8, 62, 68
10, 331598, Note_off_c, 8, 62, 64
10, 331650, Note_on_c, 8, 62, 78
10, 331793, Note_off_c, 8, 62, 64
10, 331874, Note_on_c, 8, 62, 76
10, 331951, Note_off_c, 8, 62, 64
10, 332021, Note_on_c, 8, 62, 76
10, 332158, Note_off_c, 8, 62, 64
10, 332234, Note_on_c, 8, 62, 66
10, 332313, Note_off_c, 8, 62, 64
10, 332370, Note_on_c, 8, 62, 80
10, 332505, Note_off_c, 8, 62, 64
10, 332594, Note_on_c, 8, 62, 80
10, 332669, Note_off_c, 8, 62, 64
10, 332720, Note_on_c, 8, 62, 82
10, 332865, Note_off_c, 8, 62, 64
10, 332961, Note_on_c, 8, 62, 66
10, 333042, Note_off_c, 8, 62, 64
10, 353609, Note_on_c, 8, 74, 91
10, 353708, Note_on_c, 8, 78, 60
10, 353735, Note_off_c, 8, 74, 64
10, 353796, Note_off_c, 8, 78, 64
10, 353828, Note_on_c, 8, 81, 85
10, 353893, Note_off_c, 8, 81, 64
10, 353963, Note_on_c, 8, 81, 98
10, 354071, Note_on_c, 8, 83, 66
10, 354084, Note_off_c, 8, 81, 64
10, 354141, Note_off_c, 8, 83, 64
10, 354188, Note_on_c, 8, 79, 68
10, 354231, Note_off_c, 8, 79, 64
10, 354321, Note_on_c, 8, 79, 98
10, 354424, Note_on_c, 8, 81, 59
10, 354442, Note_off_c, 8, 79, 64
10, 354498, Note_off_c, 8, 81, 64
10, 354536, Note_on_c, 8, 78, 57
10, 354577, Note_off_c, 8, 78, 64
10, 354681, Note_on_c, 8, 78, 98
10, 354797, Note_on_c, 8, 79, 60
10, 354834, Note_off_c, 8, 78, 64
10, 354921, Note_off_c, 8, 79, 64
10, 354924, Note_on_c, 8, 81, 78
10, 355010, Note_off_c, 8, 81, 64
10, 355050, Note_on_c, 8, 83, 93
10, 355167, Note_on_c, 8, 84, 80
10, 355184, Note_off_c, 8, 83, 64
10, 355229, Note_off_c, 8, 84, 64
10, 355280, Note_on_c, 8, 81, 82
10, 355338, Note_off_c, 8, 81, 64
10, 355425, Note_on_c, 8, 81, 102
10, 355533, Note_on_c, 8, 83, 63
10, 355542, Note_off_c, 8, 81, 64
10, 355616, Note_off_c, 8, 83, 64
10, 355650, Note_on_c, 8, 79, 80
10, 355697, Note_off_c, 8, 79, 64
10, 355792, Note_on_c, 8, 79, 95
10, 355887, Note_off_c, 8, 79, 64
10, 356022, Note_on_c, 8, 79, 62
10, 356073, Note_off_c, 8, 79, 64
10, 356155, Note_on_c, 8, 79, 78
10, 356285, Note_off_c, 8, 79, 64
10, 356386, Note_on_c, 8, 79, 66
10, 356444, Note_off_c, 8, 79, 64
10, 356514, Note_on_c, 8, 79, 82
10, 356629, Note_off_c, 8, 79, 64
10, 356732, Note_on_c, 8, 79, 70
10, 356791, Note_off_c, 8, 79, 64
10, 356870, Note_on_c, 8, 79, 91
10, 356975, Note_on_c, 8, 76, 64
10, 357008, Note_off_c, 8, 79, 64
10, 357090, Note_on_c, 8, 78, 64
10, 357122, Note_off_c, 8, 76, 64
10, 357189, Note_off_c, 8, 78, 64
10, 357214, Note_on_c, 8, 79, 91
10, 357326, Note_on_c, 8, 81, 66
10, 357340, Note_off_c, 8, 79, 64
10, 357387, Note_off_c, 8, 81, 64
10, 357439, Note_on_c, 8, 78, 87
10, 357493, Note_off_c, 8, 78, 64
10, 357567, Note_on_c, 8, 79, 95
10, 357684, Note_on_c, 8, 78, 66
10, 357687, Note_off_c, 8, 79, 64
10, 357763, Note_off_c, 8, 78, 64
10, 357792, Note_on_c, 8, 76, 66
10, 357853, Note_off_c, 8, 76, 64
10, 357929, Note_on_c, 8, 78, 105
10, 358042, Note_on_c, 8, 74, 68
10, 358069, Note_off_c, 8, 78, 64
10, 358157, Note_on_c, 8, 76, 78
10, 358159, Note_off_c, 8, 74, 64
10, 358242, Note_off_c, 8, 76, 64
10, 358278, Note_on_c, 8, 78, 102
10, 358397, Note_on_c, 8, 79, 66
10, 358404, Note_off_c, 8, 78, 64
10, 358469, Note_off_c, 8, 79, 64
10, 358510, Note_on_c, 8, 76, 64
10, 358553, Note_off_c, 8, 76, 64
10, 358638, Note_on_c, 8, 76, 98
10, 358748, Note_on_c, 8, 78, 60
10, 358751, Note_off_c, 8, 76, 64
10, 358824, Note_off_c, 8, 78, 64
10, 358865, Note_on_c, 8, 74, 60
10, 358915, Note_off_c, 8, 74, 64
10, 358995, Note_on_c, 8, 74, 74
10, 359086, Note_off_c, 8, 74, 64
10, 359219, Note_on_c, 8, 74, 64
10, 359286, Note_off_c, 8, 74, 64
10, 359352, Note_on_c, 8, 74, 85
10, 359466, Note_off_c, 8, 74, 64
10, 359588, Note_on_c, 8, 74, 68
10, 359649, Note_off_c, 8, 74, 64
10, 359723, Note_on_c, 8, 74, 74
10, 359829, Note_off_c, 8, 74, 64
10, 359934, Note_on_c, 8, 74, 61
10, 359997, Note_off_c, 8, 74, 64
10, 360078, Note_on_c, 8, 74, 89
10, 360189, Note_off_c, 8, 74, 64
10, 360195, Note_on_c, 8, 71, 64
10, 360314, Note_on_c, 8, 73, 82
10, 360333, Note_off_c, 8, 71, 64
10, 360407, Note_off_c, 8, 73, 64
10, 360432, Note_on_c, 8, 74, 91
10, 360549, Note_on_c, 8, 83, 89
10, 360555, Note_off_c, 8, 74, 64
10, 360629, Note_off_c, 8, 83, 64
10, 360661, Note_on_c, 8, 73, 60
10, 360733, Note_off_c, 8, 73, 64
10, 360789, Note_on_c, 8, 74, 87
10, 360904, Note_on_c, 8, 73, 63
10, 360917, Note_off_c, 8, 74, 64
10, 361005, Note_on_c, 8, 71, 70
10, 361010, Note_off_c, 8, 73, 64
10, 361066, Note_off_c, 8, 71, 64
10, 361140, Note_on_c, 8, 73, 85
10, 361266, Note_on_c, 8, 69, 80
10, 361278, Note_off_c, 8, 73, 64
10, 361361, Note_on_c, 8, 71, 74
10, 361388, Note_off_c, 8, 69, 64
10, 361431, Note_off_c, 8, 71, 64
10, 361490, Note_on_c, 8, 72, 98
10, 361604, Note_on_c, 8, 81, 85
10, 361610, Note_off_c, 8, 72, 64
10, 361670, Note_off_c, 8, 81, 64
10, 361712, Note_on_c, 8, 71, 74
10, 361777, Note_off_c, 8, 71, 64
10, 361849, Note_on_c, 8, 72, 85
10, 361971, Note_on_c, 8, 71, 66
10, 361973, Note_off_c, 8, 72, 64
10, 362076, Note_off_c, 8, 71, 64
10, 362085, Note_on_c, 8, 69, 70
10, 362139, Note_off_c, 8, 69, 64
10, 362218, Note_on_c, 8, 71, 82
10, 362322, Note_off_c, 8, 71, 64
10, 362457, Note_on_c, 8, 83, 70
10, 362520, Note_off_c, 8, 83, 64
10, 362598, Note_on_c, 8, 83, 102
10, 362708, Note_on_c, 8, 84, 68
10, 362731, Note_off_c, 8, 83, 64
10, 362776, Note_off_c, 8, 84, 64
10, 362826, Note_on_c, 8, 81, 66
10, 362877, Note_off_c, 8, 81, 64
10, 362965, Note_on_c, 8, 81, 95
10, 363069, Note_on_c, 8, 83, 63
10, 363096, Note_off_c, 8, 81, 64
10, 363156, Note_off_c, 8, 83, 64
10, 363194, Note_on_c, 8, 79, 64
10, 363240, Note_off_c, 8, 79, 64
10, 363323, Note_on_c, 8, 79, 87
10, 363438, Note_on_c, 8, 76, 66
10, 363446, Note_off_c, 8, 79, 64
10, 363546, Note_on_c, 8, 78, 68
10, 363573, Note_off_c, 8, 76, 64
10, 363647, Note_off_c, 8, 78, 64
10, 363674, Note_on_c, 8, 80, 93
10, 363782, Note_on_c, 8, 81, 85
10, 363800, Note_off_c, 8, 80, 64
10, 363894, Note_on_c, 8, 83, 78
10, 363896, Note_off_c, 8, 81, 64
10, 363961, Note_off_c, 8, 83, 64
10, 364025, Note_on_c, 8, 76, 93
10, 364148, Note_off_c, 8, 76, 64
10, 364277, Note_on_c, 8, 80, 85
10, 364346, Note_off_c, 8, 80, 64
10, 364418, Note_on_c, 8, 69, 85
10, 364529, Note_on_c, 8, 73, 63
10, 364551, Note_off_c, 8, 69, 64
10, 364635, Note_on_c, 8, 76, 82
10, 364655, Note_off_c, 8, 73, 64
10, 364736, Note_off_c, 8, 76, 64
10, 364776, Note_on_c, 8, 81, 89
10, 364884, Note_on_c, 8, 83, 85
10, 364916, Note_off_c, 8, 81, 64
10, 364951, Note_off_c, 8, 83, 64
10, 364997, Note_on_c, 8, 79, 70
10, 365048, Note_off_c, 8, 79, 64
10, 365129, Note_on_c, 8, 79, 100
10, 365233, Note_on_c, 8, 81, 68
10, 365249, Note_off_c, 8, 79, 64
10, 365300, Note_off_c, 8, 81, 64
10, 365341, Note_on_c, 8, 78, 85
10, 365382, Note_off_c, 8, 78, 64
10, 365480, Note_on_c, 8, 78, 100
10, 365590, Note_on_c, 8, 74, 80
10, 365615, Note_off_c, 8, 78, 64
10, 365697, Note_on_c, 8, 76, 78
10, 365719, Note_off_c, 8, 74, 64
10, 365791, Note_off_c, 8, 76, 64
10, 365816, Note_on_c, 8, 78, 89
10, 365924, Note_on_c, 8, 79, 78
10, 365930, Note_off_c, 8, 78, 64
10, 366041, Note_off_c, 8, 79, 64
10, 366048, Note_on_c, 8, 81, 82
10, 366129, Note_off_c, 8, 81, 64
10, 366173, Note_on_c, 8, 74, 80
10, 366295, Note_off_c, 8, 74, 64
10, 366414, Note_on_c, 8, 78, 74
10, 366491, Note_off_c, 8, 78, 64
10, 366556, Note_on_c, 8, 67, 80
10, 366665, Note_on_c, 8, 71, 72
10, 366680, Note_off_c, 8, 67, 64
10, 366772, Note_on_c, 8, 74, 87
10, 366797, Note_off_c, 8, 71, 64
10, 366863, Note_off_c, 8, 74, 64
10, 366902, Note_on_c, 8, 79, 89
10, 367019, Note_on_c, 8, 81, 70
10, 367062, Note_off_c, 8, 79, 64
10, 367078, Note_off_c, 8, 81, 64
10, 367137, Note_on_c, 8, 78, 68
10, 367200, Note_off_c, 8, 78, 64
10, 367263, Note_on_c, 8, 78, 102
10, 367371, Note_on_c, 8, 79, 82
10, 367404, Note_off_c, 8, 78, 64
10, 367463, Note_off_c, 8, 79, 64
10, 367487, Note_on_c, 8, 76, 66
10, 367544, Note_off_c, 8, 76, 64
10, 367623, Note_on_c, 8, 76, 82
10, 367731, Note_on_c, 8, 78, 78
10, 367753, Note_off_c, 8, 76, 64
10, 367852, Note_on_c, 8, 79, 85
10, 367854, Note_off_c, 8, 78, 64
10, 367943, Note_off_c, 8, 79, 64
10, 367985, Note_on_c, 8, 81, 85
10, 368095, Note_on_c, 8, 83, 76
10, 368102, Note_off_c, 8, 81, 64
10, 368189, Note_off_c, 8, 83, 64
10, 368216, Note_on_c, 8, 79, 64
10, 368264, Note_off_c, 8, 79, 64
10, 368347, Note_on_c, 8, 79, 87
10, 368459, Note_on_c, 8, 81, 64
10, 368471, Note_off_c, 8, 79, 64
10, 368565, Note_off_c, 8, 81, 64
10, 368592, Note_on_c, 8, 78, 80
10, 368657, Note_off_c, 8, 78, 64
10, 368725, Note_on_c, 8, 78, 95
10, 368838, Note_on_c, 8, 79, 76
10, 368864, Note_off_c, 8, 78, 64
10, 368964, Note_on_c, 8, 81, 80
10, 368988, Note_off_c, 8, 79, 64
10, 369045, Note_off_c, 8, 81, 64
10, 369087, Note_on_c, 8, 83, 100
10, 369191, Note_on_c, 8, 84, 74
10, 369216, Note_off_c, 8, 83, 64
10, 369267, Note_off_c, 8, 84, 64
10, 369315, Note_on_c, 8, 81, 64
10, 369368, Note_off_c, 8, 81, 64
10, 369447, Note_on_c, 8, 81, 100
10, 369553, Note_on_c, 8, 83, 78
10, 369562, Note_off_c, 8, 81, 64
10, 369638, Note_off_c, 8, 83, 64
10, 369666, Note_on_c, 8, 79, 70
10, 369730, Note_off_c, 8, 79, 64
10, 369810, Note_on_c, 8, 79, 68
10, 369917, Note_off_c, 8, 79, 64
10, 370032, Note_on_c, 8, 79, 80
10, 370102, Note_off_c, 8, 79, 64
10, 370170, Note_on_c, 8, 79, 87
10, 370300, Note_off_c, 8, 79, 64
10, 370405, Note_on_c, 8, 79, 82
10, 370476, Note_off_c, 8, 79, 64
10, 370530, Note_on_c, 8, 79, 85
10, 370647, Note_off_c, 8, 79, 64
10, 370773, Note_on_c, 8, 79, 85
10, 370845, Note_off_c, 8, 79, 64
10, 370905, Note_on_c, 8, 79, 98
10, 371009, Note_on_c, 8, 76, 72
10, 371029, Note_off_c, 8, 79, 64
10, 371101, Note_off_c, 8, 76, 64
10, 371126, Note_on_c, 8, 78, 80
10, 371204, Note_off_c, 8, 78, 64
10, 371254, Note_on_c, 8, 79, 95
10, 371367, Note_on_c, 8, 88, 85
10, 371373, Note_off_c, 8, 79, 64
10, 371445, Note_off_c, 8, 88, 64
10, 371484, Note_on_c, 8, 78, 72
10, 371555, Note_off_c, 8, 78, 64
10, 371610, Note_on_c, 8, 79, 85
10, 371726, Note_on_c, 8, 78, 63
10, 371745, Note_off_c, 8, 79, 64
10, 371819, Note_off_c, 8, 78, 64
10, 371832, Note_on_c, 8, 76, 61
10, 371897, Note_off_c, 8, 76, 64
10, 371972, Note_on_c, 8, 78, 100
10, 372071, Note_on_c, 8, 81, 80
10, 372104, Note_off_c, 8, 78, 64
10, 372165, Note_off_c, 8, 81, 64
10, 372195, Note_on_c, 8, 79, 82
10, 372269, Note_off_c, 8, 79, 64
10, 372321, Note_on_c, 8, 81, 95
10, 372428, Note_off_c, 8, 81, 64
10, 372561, Note_on_c, 8, 74, 78
10, 372627, Note_off_c, 8, 74, 64
10, 372687, Note_on_c, 8, 69, 85
10, 372802, Note_off_c, 8, 69, 64
10, 372935, Note_on_c, 8, 73, 60
10, 373022, Note_off_c, 8, 73, 64
10, 373050, Note_on_c, 8, 74, 95
10, 373185, Note_off_c, 8, 74, 64
10, 373443, Note_on_c, 8, 78, 82
10, 373556, Note_off_c, 8, 78, 64
10, 373776, Note_on_c, 8, 81, 87
10, 373905, Note_off_c, 8, 81, 64
10, 374148, Note_on_c, 8, 86, 100
10, 374255, Note_off_c, 8, 86, 64
10, 374512, Note_on_c, 8, 78, 85
10, 374625, Note_off_c, 8, 78, 64
10, 374863, Note_on_c, 8, 81, 87
10, 374985, Note_off_c, 8, 81, 64
10, 374985, End_track
11, 0, Start_track
11, 0, Title_t, "Violin"
11, 0, Program_c, 10, 40
11, 0, Control_c, 10, 7, 100
11, 1613, Note_on_c, 10, 74, 93
11, 1652, Note_off_c, 10, 74, 64
11, 1667, Note_on_c, 10, 74, 89
11, 1737, Note_off_c, 10, 74, 64
11, 1857, Note_on_c, 10, 69, 85
11, 1895, Note_off_c, 10, 69, 64
11, 1914, Note_on_c, 10, 66, 91
11, 2429, Note_off_c, 10, 66, 64
11, 2571, Note_on_c, 10, 74, 93
11, 2608, Note_off_c, 10, 74, 64
11, 2629, Note_on_c, 10, 74, 100
11, 2701, Note_off_c, 10, 74, 64
11, 2808, Note_on_c, 10, 71, 87
11, 2843, Note_off_c, 10, 71, 64
11, 2867, Note_on_c, 10, 69, 89
11, 3376, Note_off_c, 10, 69, 64
11, 3525, Note_on_c, 10, 78, 93
11, 3560, Note_off_c, 10, 78, 64
11, 3584, Note_on_c, 10, 78, 100
11, 3657, Note_off_c, 10, 78, 64
11, 3758, Note_on_c, 10, 74, 76
11, 3800, Note_off_c, 10, 74, 64
11, 3827, Note_on_c, 10, 76, 98
11, 4188, Note_off_c, 10, 76, 64
11, 4272, Note_on_c, 10, 76, 102
11, 4303, Note_off_c, 10, 76, 64
11, 4319, Note_on_c, 10, 76, 91
11, 4409, Note_off_c, 10, 76, 64
11, 4552, Note_on_c, 10, 73, 91
11, 4636, Note_off_c, 10, 73, 64
11, 4795, Note_on_c, 10, 74, 98
11, 4878, Note_off_c, 10, 74, 64
11, 4970, Note_on_c, 10, 69, 85
11, 5009, Note_off_c, 10, 69, 64
11, 5030, Note_on_c, 10, 69, 100
11, 5107, Note_off_c, 10, 69, 64
11, 5210, Note_on_c, 10, 66, 93
11, 5243, Note_off_c, 10, 66, 64
11, 5272, Note_on_c, 10, 62, 89
11, 5770, Note_off_c, 10, 62, 64
11, 5933, Note_on_c, 10, 81, 95
11, 5968, Note_off_c, 10, 81, 64
11, 5989, Note_on_c, 10, 81, 102
11, 6054, Note_off_c, 10, 81, 64
11, 6163, Note_on_c, 10, 78, 72
11, 6207, Note_off_c, 10, 78, 64
11, 6223, Note_on_c, 10, 75, 100
11, 6296, Note_off_c, 10, 75, 64
11, 6406, Note_on_c, 10, 78, 70
11, 6450, Note_off_c, 10, 78, 64
11, 6465, Note_on_c, 10, 71, 87
11, 6542, Note_off_c, 10, 71, 64
11, 6647, Note_on_c, 10, 75, 89
11, 6684, Note_off_c, 10, 75, 64
11, 6704, Note_on_c, 10, 76, 95
11, 7214, Note_off_c, 10, 76, 64
11, 7379, Note_on_c, 10, 67, 80
11, 7421, Note_off_c, 10, 67, 64
11, 7436, Note_on_c, 10, 69, 98
11, 7507, Note_off_c, 10, 69, 64
11, 7615, Note_on_c, 10, 66, 68
11, 7655, Note_off_c, 10, 66, 64
11, 7676, Note_on_c, 10, 67, 89
11, 8004, Note_off_c, 10, 67, 64
11, 8099, Note_on_c, 10, 67, 78
11, 8142, Note_off_c, 10, 67, 64
11, 8157, Note_on_c, 10, 69, 89
11, 8233, Note_off_c, 10, 69, 64
11, 8333, Note_on_c, 10, 67, 80
11, 8384, Note_off_c, 10, 67, 64
11, 8393, Note_on_c, 10, 69, 102
11, 8475, Note_off_c, 10, 69, 64
11, 8575, Note_on_c, 10, 71, 74
11, 8625, Note_off_c, 10, 71, 64
11, 8633, Note_on_c, 10, 64, 80
11, 8722, Note_off_c, 10, 64, 64
11, 8820, Note_on_c, 10, 76, 85
11, 8853, Note_off_c, 10, 76, 64
11, 8874, Note_on_c, 10, 76, 102
11, 8957, Note_off_c, 10, 76, 64
11, 9055, Note_on_c, 10, 73, 64
11, 9095, Note_off_c, 10, 73, 64
11, 9112, Note_on_c, 10, 69, 63
11, 9610, Note_off_c, 10, 69, 64
11, 9778, Note_on_c, 10, 73, 82
11, 9814, Note_off_c, 10, 73, 64
11, 9831, Note_on_c, 10, 73, 95
11, 9899, Note_off_c, 10, 73, 64
11, 10010, Note_on_c, 10, 69, 82
11, 10044, Note_off_c, 10, 69, 64
11, 10068, Note_on_c, 10, 69, 91
11, 10576, Note_off_c, 10, 69, 64
11, 10737, Note_on_c, 10, 76, 87
11, 10775, Note_off_c, 10, 76, 64
11, 10789, Note_on_c, 10, 76, 85
11, 10856, Note_off_c, 10, 76, 64
11, 10962, Note_on_c, 10, 68, 89
11, 10999, Note_off_c, 10, 68, 64
11, 11022, Note_on_c, 10, 69, 78
11, 11302, Note_off_c, 10, 69, 64
11, 11442, Note_on_c, 10, 69, 85
11, 11480, Note_off_c, 10, 69, 64
11, 11503, Note_on_c, 10, 71, 87
11, 11816, Note_off_c, 10, 71, 64
11, 11950, Note_on_c, 10, 71, 82
11, 11984, Note_off_c, 10, 71, 64
11, 12008, Note_on_c, 10, 71, 95
11, 12095, Note_off_c, 10, 71, 64
11, 12246, Note_on_c, 10, 68, 82
11, 12320, Note_off_c, 10, 68, 64
11, 12473, Note_on_c, 10, 64, 78
11, 12962, Note_off_c, 10, 64, 64
11, 13136, Note_on_c, 10, 78, 85
11, 13166, Note_off_c, 10, 78, 64
11, 13187, Note_on_c, 10, 78, 100
11, 13259, Note_off_c, 10, 78, 64
11, 13363, Note_on_c, 10, 74, 82
11, 13417, Note_off_c, 10, 74, 64
11, 13432, Note_on_c, 10, 71, 87
11, 13747, Note_off_c, 10, 71, 64
11, 13831, Note_on_c, 10, 71, 82
11, 13877, Note_off_c, 10, 71, 64
11, 13898, Note_on_c, 10, 73, 91
11, 13995, Note_off_c, 10, 73, 64
11, 14144, Note_on_c, 10, 77, 89
11, 14228, Note_off_c, 10, 77, 64
11, 14383, Note_on_c, 10, 78, 82
11, 14482, Note_off_c, 10, 78, 64
11, 14563, Note_on_c, 10, 73, 78
11, 14600, Note_off_c, 10, 73, 64
11, 14620, Note_on_c, 10, 73, 89
11, 14687, Note_off_c, 10, 73, 64
11, 14804, Note_on_c, 10, 69, 80
11, 14840, Note_off_c, 10, 69, 64
11, 14864, Note_on_c, 10, 69, 89
11, 15379, Note_off_c, 10, 69, 64
11, 15514, Note_on_c, 10, 68, 87
11, 15560, Note_off_c, 10, 68, 64
11, 15574, Note_on_c, 10, 64, 93
11, 15647, Note_off_c, 10, 64, 64
11, 15758, Note_on_c, 10, 68, 78
11, 15805, Note_off_c, 10, 68, 64
11, 15818, Note_on_c, 10, 69, 82
11, 15893, Note_off_c, 10, 69, 64
11, 16007, Note_on_c, 10, 69, 78
11, 16054, Note_off_c, 10, 69, 64
11, 16065, Note_on_c, 10, 71, 89
11, 16156, Note_off_c, 10, 71, 64
11, 16248, Note_on_c, 10, 73, 82
11, 16287, Note_off_c, 10, 73, 64
11, 16304, Note_on_c, 10, 71, 82
11, 16813, Note_off_c, 10, 71, 64
11, 16968, Note_on_c, 10, 80, 68
11, 17001, Note_off_c, 10, 80, 64
11, 17022, Note_on_c, 10, 80, 102
11, 17096, Note_off_c, 10, 80, 64
11, 17205, Note_on_c, 10, 76, 80
11, 17243, Note_off_c, 10, 76, 64
11, 17261, Note_on_c, 10, 73, 82
11, 17773, Note_off_c, 10, 73, 64
11, 17928, Note_on_c, 10, 81, 89
11, 17966, Note_off_c, 10, 81, 64
11, 17982, Note_on_c, 10, 81, 95
11, 18054, Note_off_c, 10, 81, 64
11, 18171, Note_on_c, 10, 76, 76
11, 18214, Note_off_c, 10, 76, 64
11, 18237, Note_on_c, 10, 77, 93
11, 18747, Note_off_c, 10, 77, 64
11, 18895, Note_on_c, 10, 83, 87
11, 18935, Note_off_c, 10, 83, 64
11, 18950, Note_on_c, 10, 83, 87
11, 19025, Note_off_c, 10, 83, 64
11, 19131, Note_on_c, 10, 80, 78
11, 19170, Note_off_c, 10, 80, 64
11, 19196, Note_on_c, 10, 76, 82
11, 19471, Note_off_c, 10, 76, 64
11, 19532, Note_on_c, 10, 78, 41
11, 19555, Note_off_c, 10, 78, 64
11, 19639, Note_on_c, 10, 76, 85
11, 19669, Note_off_c, 10, 76, 64
11, 19690, Note_on_c, 10, 74, 100
11, 19946, Note_off_c, 10, 74, 64
11, 20113, Note_on_c, 10, 74, 93
11, 20146, Note_off_c, 10, 74, 64
11, 20167, Note_on_c, 10, 72, 85
11, 20639, Note_off_c, 10, 72, 64
11, 20826, Note_on_c, 10, 64, 78
11, 20872, Note_off_c, 10, 64, 64
11, 20889, Note_on_c, 10, 69, 98
11, 20953, Note_off_c, 10, 69, 64
11, 21071, Note_on_c, 10, 73, 78
11, 21107, Note_off_c, 10, 73, 64
11, 21126, Note_on_c, 10, 73, 89
11, 21208, Note_off_c, 10, 73, 64
11, 21283, Note_on_c, 10, 76, 89
11, 21331, Note_off_c, 10, 76, 64
11, 21347, Note_on_c, 10, 74, 98
11, 21431, Note_off_c, 10, 74, 64
11, 21519, Note_on_c, 10, 71, 72
11, 21565, Note_off_c, 10, 71, 64
11, 21583, Note_on_c, 10, 73, 100
11, 21665, Note_off_c, 10, 73, 64
11, 21765, Note_on_c, 10, 69, 70
11, 21806, Note_off_c, 10, 69, 64
11, 21824, Note_on_c, 10, 71, 95
11, 21896, Note_off_c, 10, 71, 64
11, 22005, Note_on_c, 10, 66, 82
11, 22043, Note_off_c, 10, 66, 64
11, 22066, Note_on_c, 10, 71, 70
11, 22261, Note_off_c, 10, 71, 64
11, 22263, Note_on_c, 10, 68, 74
11, 22306, Note_off_c, 10, 68, 64
11, 22321, Note_on_c, 10, 69, 100
11, 22410, Note_off_c, 10, 69, 64
11, 22490, Note_on_c, 10, 71, 85
11, 22527, Note_off_c, 10, 71, 64
11, 22550, Note_on_c, 10, 69, 93
11, 22636, Note_on_c, 10, 68, 63
11, 22641, Note_off_c, 10, 69, 64
11, 22662, Note_off_c, 10, 68, 64
11, 22664, Note_on_c, 10, 69, 78
11, 22691, Note_on_c, 10, 68, 76
11, 22694, Note_off_c, 10, 69, 64
11, 22716, Note_on_c, 10, 69, 85
11, 22722, Note_off_c, 10, 68, 64
11, 22739, Note_on_c, 10, 68, 70
11, 22747, Note_off_c, 10, 69, 64
11, 22764, Note_on_c, 10, 69, 85
11, 22770, Note_off_c, 10, 68, 64
11, 22787, Note_on_c, 10, 68, 82
11, 22800, Note_off_c, 10, 69, 64
11, 22883, Note_off_c, 10, 68, 64
11, 22960, Note_on_c, 10, 64, 76
11, 22988, Note_off_c, 10, 64, 64
11, 23024, Note_on_c, 10, 64, 89
11, 23766, Note_off_c, 10, 64, 64
11, 46320, Note_on_c, 10, 76, 66
11, 46373, Note_off_c, 10, 76, 64
11, 46452, Note_on_c, 10, 76, 102
11, 46556, Note_on_c, 10, 78, 72
11, 46571, Note_off_c, 10, 76, 64
11, 46614, Note_off_c, 10, 78, 64
11, 46674, Note_on_c, 10, 74, 82
11, 46713, Note_off_c, 10, 74, 64
11, 46796, Note_on_c, 10, 74, 100
11, 46900, Note_on_c, 10, 76, 68
11, 46917, Note_off_c, 10, 74, 64
11, 46965, Note_off_c, 10, 76, 64
11, 47015, Note_on_c, 10, 73, 68
11, 47064, Note_off_c, 10, 73, 64
11, 47143, Note_on_c, 10, 73, 91
11, 47256, Note_on_c, 10, 74, 72
11, 47296, Note_off_c, 10, 73, 64
11, 47355, Note_off_c, 10, 74, 64
11, 47375, Note_on_c, 10, 76, 72
11, 47426, Note_off_c, 10, 76, 64
11, 47499, Note_on_c, 10, 78, 102
11, 47604, Note_on_c, 10, 79, 78
11, 47622, Note_off_c, 10, 78, 64
11, 47663, Note_off_c, 10, 79, 64
11, 47724, Note_on_c, 10, 76, 80
11, 47768, Note_off_c, 10, 76, 64
11, 47847, Note_on_c, 10, 76, 102
11, 47955, Note_on_c, 10, 78, 64
11, 47969, Note_off_c, 10, 76, 64
11, 48025, Note_off_c, 10, 78, 64
11, 48068, Note_on_c, 10, 74, 63
11, 48120, Note_off_c, 10, 74, 64
11, 48200, Note_on_c, 10, 74, 66
11, 48327, Note_off_c, 10, 74, 64
11, 48434, Note_on_c, 10, 74, 57
11, 48488, Note_off_c, 10, 74, 64
11, 48556, Note_on_c, 10, 74, 63
11, 48689, Note_off_c, 10, 74, 64
11, 48782, Note_on_c, 10, 74, 72
11, 48842, Note_off_c, 10, 74, 64
11, 48912, Note_on_c, 10, 74, 85
11, 49065, Note_off_c, 10, 74, 64
11, 49139, Note_on_c, 10, 74, 72
11, 49200, Note_off_c, 10, 74, 64
11, 49265, Note_on_c, 10, 74, 95
11, 49382, Note_on_c, 10, 71, 78
11, 49408, Note_off_c, 10, 74, 64
11, 49493, Note_on_c, 10, 73, 72
11, 49494, Note_off_c, 10, 71, 64
11, 49555, Note_off_c, 10, 73, 64
11, 49628, Note_on_c, 10, 74, 98
11, 49726, Note_on_c, 10, 83, 63
11, 49748, Note_off_c, 10, 74, 64
11, 49782, Note_off_c, 10, 83, 64
11, 49854, Note_on_c, 10, 73, 85
11, 49908, Note_off_c, 10, 73, 64
11, 49985, Note_on_c, 10, 74, 100
11, 50106, Note_on_c, 10, 73, 80
11, 50113, Note_off_c, 10, 74, 64
11, 50185, Note_off_c, 10, 73, 64
11, 50217, Note_on_c, 10, 71, 66
11, 50273, Note_off_c, 10, 71, 64
11, 50345, Note_on_c, 10, 73, 98
11, 50451, Note_on_c, 10, 76, 76
11, 50471, Note_off_c, 10, 73, 64
11, 50532, Note_off_c, 10, 76, 64
11, 50559, Note_on_c, 10, 74, 74
11, 50613, Note_off_c, 10, 74, 64
11, 50691, Note_on_c, 10, 76, 93
11, 50824, Note_off_c, 10, 76, 64
11, 50937, Note_on_c, 10, 74, 68
11, 51004, Note_off_c, 10, 74, 64
11, 51060, Note_on_c, 10, 76, 91
11, 51170, Note_off_c, 10, 76, 64
11, 51299, Note_on_c, 10, 73, 57
11, 51350, Note_off_c, 10, 73, 64
11, 51429, Note_on_c, 10, 74, 89
11, 51539, Note_on_c, 10, 73, 95
11, 51558, Note_off_c, 10, 74, 64
11, 51650, Note_off_c, 10, 73, 64
11, 51654, Note_on_c, 10, 74, 80
11, 51719, Note_off_c, 10, 74, 64
11, 51791, Note_on_c, 10, 74, 102
11, 51906, Note_off_c, 10, 74, 64
11, 52030, Note_on_c, 10, 66, 61
11, 52112, Note_off_c, 10, 66, 64
11, 52158, Note_on_c, 10, 69, 93
11, 52269, Note_off_c, 10, 69, 64
11, 52403, Note_on_c, 10, 74, 76
11, 52460, Note_off_c, 10, 74, 64
11, 52538, Note_on_c, 10, 74, 102
11, 52640, Note_on_c, 10, 76, 68
11, 52680, Note_off_c, 10, 74, 64
11, 52748, Note_off_c, 10, 76, 64
11, 52764, Note_on_c, 10, 74, 66
11, 52824, Note_off_c, 10, 74, 64
11, 52902, Note_on_c, 10, 73, 100
11, 53013, Note_on_c, 10, 74, 68
11, 53033, Note_off_c, 10, 73, 64
11, 53067, Note_off_c, 10, 74, 64
11, 53132, Note_on_c, 10, 71, 82
11, 53180, Note_off_c, 10, 71, 64
11, 53267, Note_on_c, 10, 71, 98
11, 53373, Note_on_c, 10, 73, 64
11, 53375, Note_off_c, 10, 71, 64
11, 53447, Note_off_c, 10, 73, 64
11, 53493, Note_on_c, 10, 69, 68
11, 53556, Note_off_c, 10, 69, 64
11, 53623, Note_on_c, 10, 69, 87
11, 53772, Note_off_c, 10, 69, 64
11, 53873, Note_on_c, 10, 81, 82
11, 53936, Note_off_c, 10, 81, 64
11, 53988, Note_on_c, 10, 76, 91
11, 54105, Note_off_c, 10, 76, 64
11, 54215, Note_on_c, 10, 73, 64
11, 54296, Note_off_c, 10, 73, 64
11, 54354, Note_on_c, 10, 69, 78
11, 54480, Note_off_c, 10, 69, 64
11, 54579, Note_on_c, 10, 69, 78
11, 54647, Note_off_c, 10, 69, 64
11, 54717, Note_on_c, 10, 69, 89
11, 54820, Note_on_c, 10, 71, 76
11, 54836, Note_off_c, 10, 69, 64
11, 54903, Note_off_c, 10, 71, 64
11, 54935, Note_on_c, 10, 73, 82
11, 55007, Note_off_c, 10, 73, 64
11, 55052, Note_on_c, 10, 74, 91
11, 55193, Note_off_c, 10, 74, 64
11, 55274, Note_on_c, 10, 76, 80
11, 55331, Note_off_c, 10, 76, 64
11, 55392, Note_on_c, 10, 74, 98
11, 55452, Note_on_c, 10, 73, 63
11, 55457, Note_off_c, 10, 74, 64
11, 55484, Note_off_c, 10, 73, 64
11, 55488, Note_on_c, 10, 74, 82
11, 55535, Note_on_c, 10, 73, 63
11, 55574, Note_off_c, 10, 74, 64
11, 55634, Note_off_c, 10, 73, 64
11, 55634, Note_on_c, 10, 69, 85
11, 55700, Note_off_c, 10, 69, 64
11, 55767, Note_on_c, 10, 69, 102
11, 55869, Note_on_c, 10, 71, 70
11, 55882, Note_off_c, 10, 69, 64
11, 55940, Note_off_c, 10, 71, 64
11, 55981, Note_on_c, 10, 69, 72
11, 56031, Note_off_c, 10, 69, 64
11, 56111, Note_on_c, 10, 68, 102
11, 56210, Note_on_c, 10, 69, 78
11, 56229, Note_off_c, 10, 68, 64
11, 56285, Note_off_c, 10, 69, 64
11, 56337, Note_on_c, 10, 66, 76
11, 56384, Note_off_c, 10, 66, 64
11, 56460, Note_on_c, 10, 66, 93
11, 56562, Note_on_c, 10, 68, 68
11, 56573, Note_off_c, 10, 66, 64
11, 56642, Note_off_c, 10, 68, 64
11, 56681, Note_on_c, 10, 64, 66
11, 56748, Note_off_c, 10, 64, 64
11, 56822, Note_on_c, 10, 64, 87
11, 57012, Note_off_c, 10, 64, 64
11, 57425, Note_on_c, 10, 76, 78
11, 57500, Note_off_c, 10, 76, 64
11, 57551, Note_on_c, 10, 71, 89
11, 57686, Note_off_c, 10, 71, 64
11, 57785, Note_on_c, 10, 71, 64
11, 57864, Note_off_c, 10, 71, 64
11, 57918, Note_on_c, 10, 69, 76
11, 58103, Note_off_c, 10, 69, 64
11, 58467, Note_on_c, 10, 74, 76
11, 58553, Note_off_c, 10, 74, 64
11, 58595, Note_on_c, 10, 69, 85
11, 58754, Note_off_c, 10, 69, 64
11, 58856, Note_on_c, 10, 69, 74
11, 58931, Note_off_c, 10, 69, 64
11, 58987, Note_on_c, 10, 67, 85
11, 59120, Note_off_c, 10, 67, 64
11, 59338, Note_on_c, 10, 73, 80
11, 59459, Note_off_c, 10, 73, 64
11, 59707, Note_on_c, 10, 75, 72
11, 59855, Note_off_c, 10, 75, 64
11, 60090, Note_on_c, 10, 76, 85
11, 60251, Note_off_c, 10, 76, 64
11, 60343, Note_on_c, 10, 76, 87
11, 60405, Note_off_c, 10, 76, 64
11, 60461, Note_on_c, 10, 76, 100
11, 60578, Note_on_c, 10, 78, 68
11, 60596, Note_off_c, 10, 76, 64
11, 60647, Note_off_c, 10, 78, 64
11, 60681, Note_on_c, 10, 74, 82
11, 60728, Note_off_c, 10, 74, 64
11, 60807, Note_on_c, 10, 74, 105
11, 60909, Note_on_c, 10, 76, 68
11, 60935, Note_off_c, 10, 74, 64
11, 60976, Note_off_c, 10, 76, 64
11, 61037, Note_on_c, 10, 73, 80
11, 61100, Note_off_c, 10, 73, 64
11, 61172, Note_on_c, 10, 73, 98
11, 61278, Note_on_c, 10, 69, 74
11, 61305, Note_off_c, 10, 73, 64
11, 61370, Note_off_c, 10, 69, 64
11, 61394, Note_on_c, 10, 71, 68
11, 61448, Note_off_c, 10, 71, 64
11, 61523, Note_on_c, 10, 73, 98
11, 61630, Note_on_c, 10, 74, 85
11, 61667, Note_off_c, 10, 73, 64
11, 61734, Note_off_c, 10, 74, 64
11, 61746, Note_on_c, 10, 76, 74
11, 61806, Note_off_c, 10, 76, 64
11, 61876, Note_on_c, 10, 69, 95
11, 61980, Note_off_c, 10, 69, 64
11, 62106, Note_on_c, 10, 73, 66
11, 62151, Note_off_c, 10, 73, 64
11, 62238, Note_on_c, 10, 62, 85
11, 62348, Note_on_c, 10, 66, 68
11, 62370, Note_off_c, 10, 62, 64
11, 62443, Note_off_c, 10, 66, 64
11, 62459, Note_on_c, 10, 69, 80
11, 62506, Note_off_c, 10, 69, 64
11, 62600, Note_on_c, 10, 74, 95
11, 62708, Note_on_c, 10, 76, 76
11, 62724, Note_off_c, 10, 74, 64
11, 62794, Note_off_c, 10, 76, 64
11, 62830, Note_on_c, 10, 72, 64
11, 62871, Note_off_c, 10, 72, 64
11, 62957, Note_on_c, 10, 72, 95
11, 63060, Note_on_c, 10, 74, 72
11, 63087, Note_off_c, 10, 72, 64
11, 63163, Note_off_c, 10, 74, 64
11, 63174, Note_on_c, 10, 71, 68
11, 63230, Note_off_c, 10, 71, 64
11, 63314, Note_on_c, 10, 71, 89
11, 63410, Note_off_c, 10, 71, 64
11, 63419, Note_on_c, 10, 67, 87
11, 63532, Note_on_c, 10, 71, 63
11, 63543, Note_off_c, 10, 67, 64
11, 63579, Note_off_c, 10, 71, 64
11, 63681, Note_on_c, 10, 76, 102
11, 63786, Note_on_c, 10, 78, 70
11, 63800, Note_off_c, 10, 76, 64
11, 63877, Note_off_c, 10, 78, 64
11, 63905, Note_on_c, 10, 74, 80
11, 63955, Note_off_c, 10, 74, 64
11, 64034, Note_on_c, 10, 74, 102
11, 64128, Note_on_c, 10, 76, 68
11, 64158, Note_off_c, 10, 74, 64
11, 64234, Note_off_c, 10, 76, 64
11, 64261, Note_on_c, 10, 73, 57
11, 64317, Note_off_c, 10, 73, 64
11, 64389, Note_on_c, 10, 73, 95
11, 64504, Note_on_c, 10, 74, 68
11, 64524, Note_off_c, 10, 73, 64
11, 64599, Note_off_c, 10, 74, 64
11, 64617, Note_on_c, 10, 76, 68
11, 64689, Note_off_c, 10, 76, 64
11, 64755, Note_on_c, 10, 78, 100
11, 64868, Note_on_c, 10, 79, 76
11, 64896, Note_off_c, 10, 78, 64
11, 64943, Note_off_c, 10, 79, 64
11, 64992, Note_on_c, 10, 76, 76
11, 65044, Note_off_c, 10, 76, 64
11, 65121, Note_on_c, 10, 76, 95
11, 65226, Note_on_c, 10, 78, 72
11, 65244, Note_off_c, 10, 76, 64
11, 65292, Note_off_c, 10, 78, 64
11, 65343, Note_on_c, 10, 74, 78
11, 65402, Note_off_c, 10, 74, 64
11, 65481, Note_on_c, 10, 74, 95
11, 65656, Note_off_c, 10, 74, 64
11, 66061, Note_on_c, 10, 73, 45
11, 66120, Note_off_c, 10, 73, 64
11, 66189, Note_on_c, 10, 73, 64
11, 66324, Note_off_c, 10, 73, 64
11, 66439, Note_on_c, 10, 75, 66
11, 66504, Note_off_c, 10, 75, 64
11, 66556, Note_on_c, 10, 76, 78
11, 66675, Note_off_c, 10, 76, 64
11, 66812, Note_on_c, 10, 76, 63
11, 66867, Note_off_c, 10, 76, 64
11, 66932, Note_on_c, 10, 76, 70
11, 67078, Note_off_c, 10, 76, 64
11, 67174, Note_on_c, 10, 76, 70
11, 67238, Note_off_c, 10, 76, 64
11, 67299, Note_on_c, 10, 76, 82
11, 67436, Note_off_c, 10, 76, 64
11, 67524, Note_on_c, 10, 76, 80
11, 67582, Note_off_c, 10, 76, 64
11, 67650, Note_on_c, 10, 76, 95
11, 67766, Note_on_c, 10, 73, 59
11, 67798, Note_off_c, 10, 76, 64
11, 67830, Note_off_c, 10, 73, 64
11, 67877, Note_on_c, 10, 74, 78
11, 67937, Note_off_c, 10, 74, 64
11, 68018, Note_on_c, 10, 76, 98
11, 68130, Note_on_c, 10, 73, 60
11, 68147, Note_off_c, 10, 76, 64
11, 68176, Note_off_c, 10, 73, 64
11, 68235, Note_on_c, 10, 74, 74
11, 68287, Note_off_c, 10, 74, 64
11, 68370, Note_on_c, 10, 76, 95
11, 68482, Note_on_c, 10, 74, 66
11, 68520, Note_off_c, 10, 76, 64
11, 68585, Note_off_c, 10, 74, 64
11, 68599, Note_on_c, 10, 73, 63
11, 68664, Note_off_c, 10, 73, 64
11, 68725, Note_on_c, 10, 74, 95
11, 68846, Note_off_c, 10, 74, 64
11, 68955, Note_on_c, 10, 73, 70
11, 69019, Note_off_c, 10, 73, 64
11, 69069, Note_on_c, 10, 74, 93
11, 69195, Note_off_c, 10, 74, 64
11, 69306, Note_on_c, 10, 71, 68
11, 69383, Note_off_c, 10, 71, 64
11, 69436, Note_on_c, 10, 69, 85
11, 69555, Note_off_c, 10, 69, 64
11, 69677, Note_on_c, 10, 69, 60
11, 69733, Note_off_c, 10, 69, 64
11, 69805, Note_on_c, 10, 69, 70
11, 69949, Note_off_c, 10, 69, 64
11, 70043, Note_on_c, 10, 69, 60
11, 70111, Note_off_c, 10, 69, 64
11, 70190, Note_on_c, 10, 69, 70
11, 70306, Note_off_c, 10, 69, 64
11, 70417, Note_on_c, 10, 69, 62
11, 70491, Note_off_c, 10, 69, 64
11, 70552, Note_on_c, 10, 69, 87
11, 70716, Note_off_c, 10, 69, 64
11, 71146, Note_on_c, 10, 57, 57
11, 71213, Note_off_c, 10, 57, 64
11, 71270, Note_on_c, 10, 57, 76
11, 71394, Note_off_c, 10, 57, 64
11, 71490, Note_on_c, 10, 57, 60
11, 71558, Note_off_c, 10, 57, 64
11, 71621, Note_on_c, 10, 57, 89
11, 71787, Note_off_c, 10, 57, 64
11, 92723, Note_on_c, 10, 64, 59
11, 92786, Note_off_c, 10, 64, 64
11, 92849, Note_on_c, 10, 64, 63
11, 92978, Note_off_c, 10, 64, 64
11, 93090, Note_on_c, 10, 64, 55
11, 93155, Note_off_c, 10, 64, 64
11, 93216, Note_on_c, 10, 64, 60
11, 93346, Note_off_c, 10, 64, 64
11, 93443, Note_on_c, 10, 64, 59
11, 93513, Note_off_c, 10, 64, 64
11, 93570, Note_on_c, 10, 64, 63
11, 93713, Note_off_c, 10, 64, 64
11, 93794, Note_on_c, 10, 64, 59
11, 93864, Note_off_c, 10, 64, 64
11, 93929, Note_on_c, 10, 64, 63
11, 94073, Note_off_c, 10, 64, 64
11, 94166, Note_on_c, 10, 64, 58
11, 94231, Note_off_c, 10, 64, 64
11, 94299, Note_on_c, 10, 64, 78
11, 94429, Note_off_c, 10, 64, 64
11, 94517, Note_on_c, 10, 64, 68
11, 94585, Note_off_c, 10, 64, 64
11, 94645, Note_on_c, 10, 64, 85
11, 94748, Note_on_c, 10, 71, 78
11, 94757, Note_off_c, 10, 64, 64
11, 94836, Note_off_c, 10, 71, 64
11, 94849, Note_on_c, 10, 69, 60
11, 94911, Note_off_c, 10, 69, 64
11, 94983, Note_on_c, 10, 71, 82
11, 95127, Note_off_c, 10, 71, 64
11, 95216, Note_on_c, 10, 69, 63
11, 95284, Note_off_c, 10, 69, 64
11, 95340, Note_on_c, 10, 71, 82
11, 95462, Note_off_c, 10, 71, 64
11, 95545, Note_on_c, 10, 68, 60
11, 95617, Note_off_c, 10, 68, 64
11, 95693, Note_on_c, 10, 69, 91
11, 95805, Note_on_c, 10, 68, 68
11, 95817, Note_off_c, 10, 69, 64
11, 95892, Note_off_c, 10, 68, 64
11, 95921, Note_on_c, 10, 69, 62
11, 95984, Note_off_c, 10, 69, 64
11, 96058, Note_on_c, 10, 69, 74
11, 96200, Note_off_c, 10, 69, 64
11, 96285, Note_on_c, 10, 73, 57
11, 96348, Note_off_c, 10, 73, 64
11, 96416, Note_on_c, 10, 71, 80
11, 96535, Note_off_c, 10, 71, 64
11, 96645, Note_on_c, 10, 69, 66
11, 96704, Note_off_c, 10, 69, 64
11, 96791, Note_on_c, 10, 69, 89
11, 96909, Note_on_c, 10, 71, 66
11, 96931, Note_off_c, 10, 69, 64
11, 96998, Note_off_c, 10, 71, 64
11, 97026, Note_on_c, 10, 69, 64
11, 97080, Note_off_c, 10, 69, 64
11, 97156, Note_on_c, 10, 68, 82
11, 97257, Note_on_c, 10, 69, 66
11, 97284, Note_off_c, 10, 68, 64
11, 97336, Note_off_c, 10, 69, 64
11, 97390, Note_on_c, 10, 66, 66
11, 97442, Note_off_c, 10, 66, 64
11, 97523, Note_on_c, 10, 66, 87
11, 97626, Note_on_c, 10, 68, 63
11, 97644, Note_off_c, 10, 66, 64
11, 97710, Note_off_c, 10, 68, 64
11, 97739, Note_on_c, 10, 64, 68
11, 97813, Note_off_c, 10, 64, 64
11, 97883, Note_on_c, 10, 64, 85
11, 98035, Note_off_c, 10, 64, 64
11, 98110, Note_on_c, 10, 76, 70
11, 98178, Note_off_c, 10, 76, 64
11, 98227, Note_on_c, 10, 71, 82
11, 98353, Note_off_c, 10, 71, 64
11, 98458, Note_on_c, 10, 68, 63
11, 98560, Note_off_c, 10, 68, 64
11, 98594, Note_on_c, 10, 64, 82
11, 98724, Note_off_c, 10, 64, 64
11, 98819, Note_on_c, 10, 64, 64
11, 98891, Note_off_c, 10, 64, 64
11, 98970, Note_on_c, 10, 64, 89
11, 99086, Note_on_c, 10, 69, 74
11, 99090, Note_off_c, 10, 64, 64
11, 99188, Note_off_c, 10, 69, 64
11, 99201, Note_on_c, 10, 71, 68
11, 99250, Note_off_c, 10, 71, 64
11, 99332, Note_on_c, 10, 73, 95
11, 99437, Note_on_c, 10, 74, 70
11, 99462, Note_off_c, 10, 73, 64
11, 99518, Note_off_c, 10, 74, 64
11, 99548, Note_on_c, 10, 71, 60
11, 99597, Note_off_c, 10, 71, 64
11, 99681, Note_on_c, 10, 71, 87
11, 99792, Note_on_c, 10, 73, 58
11, 99804, Note_off_c, 10, 71, 64
11, 99878, Note_off_c, 10, 73, 64
11, 99903, Note_on_c, 10, 69, 55
11, 99964, Note_off_c, 10, 69, 64
11, 100054, Note_on_c, 10, 69, 62
11, 100198, Note_off_c, 10, 69, 64
11, 100294, Note_on_c, 10, 69, 60
11, 100344, Note_off_c, 10, 69, 64
11, 100419, Note_on_c, 10, 69, 66
11, 100585, Note_off_c, 10, 69, 64
11, 100656, Note_on_c, 10, 69, 63
11, 100725, Note_off_c, 10, 69, 64
11, 100782, Note_on_c, 10, 69, 72
11, 100914, Note_off_c, 10, 69, 64
11, 100994, Note_on_c, 10, 69, 60
11, 101060, Note_off_c, 10, 69, 64
11, 101129, Note_on_c, 10, 69, 82
11, 101249, Note_on_c, 10, 66, 70
11, 101259, Note_off_c, 10, 69, 64
11, 101364, Note_on_c, 10, 68, 78
11, 101377, Note_off_c, 10, 66, 64
11, 101445, Note_off_c, 10, 68, 64
11, 101498, Note_on_c, 10, 69, 98
11, 101611, Note_on_c, 10, 78, 63
11, 101629, Note_off_c, 10, 69, 64
11, 101692, Note_off_c, 10, 78, 64
11, 101739, Note_on_c, 10, 68, 78
11, 101800, Note_off_c, 10, 68, 64
11, 101861, Note_on_c, 10, 69, 68
11, 101984, Note_on_c, 10, 68, 53
11, 101998, Note_off_c, 10, 69, 64
11, 102083, Note_off_c, 10, 68, 64
11, 102102, Note_on_c, 10, 66, 57
11, 102169, Note_off_c, 10, 66, 64
11, 102223, Note_on_c, 10, 68, 76
11, 102327, Note_on_c, 10, 64, 64
11, 102336, Note_off_c, 10, 68, 64
11, 102417, Note_off_c, 10, 64, 64
11, 102450, Note_on_c, 10, 66, 74
11, 102511, Note_off_c, 10, 66, 64
11, 102576, Note_on_c, 10, 67, 91
11, 102677, Note_on_c, 10, 76, 66
11, 102691, Note_off_c, 10, 67, 64
11, 102734, Note_off_c, 10, 76, 64
11, 102801, Note_on_c, 10, 66, 85
11, 102858, Note_off_c, 10, 66, 64
11, 102929, Note_on_c, 10, 67, 89
11, 103035, Note_on_c, 10, 66, 74
11, 103049, Note_off_c, 10, 67, 64
11, 103146, Note_off_c, 10, 66, 64
11, 103150, Note_on_c, 10, 64, 76
11, 103229, Note_off_c, 10, 64, 64
11, 103289, Note_on_c, 10, 66, 91
11, 103382, Note_off_c, 10, 66, 64
11, 103508, Note_on_c, 10, 78, 63
11, 103566, Note_off_c, 10, 78, 64
11, 103643, Note_on_c, 10, 78, 100
11, 103748, Note_on_c, 10, 79, 76
11, 103782, Note_off_c, 10, 78, 64
11, 103820, Note_off_c, 10, 79, 64
11, 103872, Note_on_c, 10, 76, 58
11, 103910, Note_off_c, 10, 76, 64
11, 104000, Note_on_c, 10, 76, 98
11, 104108, Note_on_c, 10, 78, 57
11, 104131, Note_off_c, 10, 76, 64
11, 104184, Note_off_c, 10, 78, 64
11, 104228, Note_on_c, 10, 75, 76
11, 104280, Note_off_c, 10, 75, 64
11, 104363, Note_on_c, 10, 75, 95
11, 104475, Note_on_c, 10, 71, 66
11, 104520, Note_off_c, 10, 75, 64
11, 104583, Note_on_c, 10, 73, 59
11, 104592, Note_off_c, 10, 71, 64
11, 104680, Note_off_c, 10, 73, 64
11, 104709, Note_on_c, 10, 75, 80
11, 104824, Note_on_c, 10, 76, 66
11, 104828, Note_off_c, 10, 75, 64
11, 104923, Note_off_c, 10, 76, 64
11, 104952, Note_on_c, 10, 78, 70
11, 105017, Note_off_c, 10, 78, 64
11, 105080, Note_on_c, 10, 71, 89
11, 105195, Note_off_c, 10, 71, 64
11, 105321, Note_on_c, 10, 75, 74
11, 105405, Note_off_c, 10, 75, 64
11, 105441, Note_on_c, 10, 64, 76
11, 105549, Note_on_c, 10, 68, 72
11, 105567, Note_off_c, 10, 64, 64
11, 105661, Note_on_c, 10, 71, 82
11, 105670, Note_off_c, 10, 68, 64
11, 105720, Note_off_c, 10, 71, 64
11, 105792, Note_on_c, 10, 76, 85
11, 105911, Note_on_c, 10, 78, 82
11, 105931, Note_off_c, 10, 76, 64
11, 105998, Note_off_c, 10, 78, 64
11, 106019, Note_on_c, 10, 74, 64
11, 106071, Note_off_c, 10, 74, 64
11, 106149, Note_on_c, 10, 74, 102
11, 106255, Note_on_c, 10, 76, 68
11, 106269, Note_off_c, 10, 74, 64
11, 106323, Note_off_c, 10, 76, 64
11, 106376, Note_on_c, 10, 73, 89
11, 106437, Note_off_c, 10, 73, 64
11, 106511, Note_on_c, 10, 73, 98
11, 106613, Note_on_c, 10, 69, 72
11, 106648, Note_off_c, 10, 73, 64
11, 106707, Note_off_c, 10, 69, 64
11, 106732, Note_on_c, 10, 71, 80
11, 106817, Note_off_c, 10, 71, 64
11, 106854, Note_on_c, 10, 73, 87
11, 106964, Note_on_c, 10, 74, 80
11, 107002, Note_off_c, 10, 73, 64
11, 107080, Note_off_c, 10, 74, 64
11, 107087, Note_on_c, 10, 76, 78
11, 107150, Note_off_c, 10, 76, 64
11, 107205, Note_on_c, 10, 69, 91
11, 107337, Note_off_c, 10, 69, 64
11, 107429, Note_on_c, 10, 73, 80
11, 107510, Note_off_c, 10, 73, 64
11, 107573, Note_on_c, 10, 62, 89
11, 107673, Note_on_c, 10, 66, 72
11, 107692, Note_off_c, 10, 62, 64
11, 107783, Note_on_c, 10, 69, 87
11, 107807, Note_off_c, 10, 66, 64
11, 107866, Note_off_c, 10, 69, 64
11, 107920, Note_on_c, 10, 74, 89
11, 108035, Note_on_c, 10, 76, 82
11, 108074, Note_off_c, 10, 74, 64
11, 108104, Note_off_c, 10, 76, 64
11, 108158, Note_on_c, 10, 73, 82
11, 108222, Note_off_c, 10, 73, 64
11, 108291, Note_on_c, 10, 73, 102
11, 108397, Note_on_c, 10, 74, 76
11, 108437, Note_off_c, 10, 73, 64
11, 108495, Note_off_c, 10, 74, 64
11, 108512, Note_on_c, 10, 71, 76
11, 108566, Note_off_c, 10, 71, 64
11, 108649, Note_on_c, 10, 71, 89
11, 108755, Note_on_c, 10, 73, 68
11, 108788, Note_off_c, 10, 71, 64
11, 108874, Note_off_c, 10, 73, 64
11, 108879, Note_on_c, 10, 74, 82
11, 108951, Note_off_c, 10, 74, 64
11, 109018, Note_on_c, 10, 76, 98
11, 109128, Note_on_c, 10, 78, 66
11, 109151, Note_off_c, 10, 76, 64
11, 109223, Note_off_c, 10, 78, 64
11, 109236, Note_on_c, 10, 74, 70
11, 109288, Note_off_c, 10, 74, 64
11, 109380, Note_on_c, 10, 74, 98
11, 109488, Note_on_c, 10, 76, 64
11, 109509, Note_off_c, 10, 74, 64
11, 109578, Note_off_c, 10, 76, 64
11, 109612, Note_on_c, 10, 73, 61
11, 109673, Note_off_c, 10, 73, 64
11, 109743, Note_on_c, 10, 73, 95
11, 109855, Note_on_c, 10, 74, 68
11, 109871, Note_off_c, 10, 73, 64
11, 109981, Note_on_c, 10, 76, 85
11, 110003, Note_off_c, 10, 74, 64
11, 110044, Note_off_c, 10, 76, 64
11, 110111, Note_on_c, 10, 78, 102
11, 110215, Note_on_c, 10, 79, 72
11, 110247, Note_off_c, 10, 78, 64
11, 110305, Note_off_c, 10, 79, 64
11, 110337, Note_on_c, 10, 76, 72
11, 110393, Note_off_c, 10, 76, 64
11, 110469, Note_on_c, 10, 76, 87
11, 110582, Note_on_c, 10, 78, 66
11, 110595, Note_off_c, 10, 76, 64
11, 110674, Note_off_c, 10, 78, 64
11, 110703, Note_on_c, 10, 74, 54
11, 110760, Note_off_c, 10, 74, 64
11, 110832, Note_on_c, 10, 74, 66
11, 110982, Note_off_c, 10, 74, 64
11, 111074, Note_on_c, 10, 74, 66
11, 111138, Note_off_c, 10, 74, 64
11, 111201, Note_on_c, 10, 74, 68
11, 111349, Note_off_c, 10, 74, 64
11, 111419, Note_on_c, 10, 74, 76
11, 111488, Note_off_c, 10, 74, 64
11, 111547, Note_on_c, 10, 74, 80
11, 111720, Note_off_c, 10, 74, 64
11, 111785, Note_on_c, 10, 74, 85
11, 111849, Note_off_c, 10, 74, 64
11, 111912, Note_on_c, 10, 74, 93
11, 112028, Note_on_c, 10, 71, 72
11, 112069, Note_off_c, 10, 74, 64
11, 112145, Note_on_c, 10, 73, 72
11, 112182, Note_off_c, 10, 71, 64
11, 112227, Note_off_c, 10, 73, 64
11, 112271, Note_on_c, 10, 74, 100
11, 112373, Note_on_c, 10, 76, 72
11, 112391, Note_off_c, 10, 74, 64
11, 112443, Note_off_c, 10, 76, 64
11, 112488, Note_on_c, 10, 73, 98
11, 112553, Note_off_c, 10, 73, 64
11, 112616, Note_on_c, 10, 74, 87
11, 112735, Note_on_c, 10, 73, 74
11, 112769, Note_off_c, 10, 74, 64
11, 112850, Note_on_c, 10, 71, 70
11, 112863, Note_off_c, 10, 73, 64
11, 112916, Note_off_c, 10, 71, 64
11, 112978, Note_on_c, 10, 73, 102
11, 113081, Note_on_c, 10, 76, 82
11, 113113, Note_off_c, 10, 73, 64
11, 113167, Note_off_c, 10, 76, 64
11, 113199, Note_on_c, 10, 74, 87
11, 113282, Note_off_c, 10, 74, 64
11, 113334, Note_on_c, 10, 76, 93
11, 113484, Note_off_c, 10, 76, 64
11, 113567, Note_on_c, 10, 69, 80
11, 113622, Note_off_c, 10, 69, 64
11, 113698, Note_on_c, 10, 64, 80
11, 113831, Note_off_c, 10, 64, 64
11, 113918, Note_on_c, 10, 68, 82
11, 113988, Note_off_c, 10, 68, 64
11, 114060, Note_on_c, 10, 64, 85
11, 114220, Note_off_c, 10, 64, 64
11, 127279, Note_on_c, 10, 66, 57
11, 127326, Note_off_c, 10, 66, 64
11, 127405, Note_on_c, 10, 66, 64
11, 127542, Note_off_c, 10, 66, 64
11, 127641, Note_on_c, 10, 66, 57
11, 127701, Note_off_c, 10, 66, 64
11, 127778, Note_on_c, 10, 66, 62
11, 127923, Note_off_c, 10, 66, 64
11, 128008, Note_on_c, 10, 66, 53
11, 128069, Note_off_c, 10, 66, 64
11, 128147, Note_on_c, 10, 66, 63
11, 128282, Note_off_c, 10, 66, 64
11, 128508, Note_on_c, 10, 62, 72
11, 128633, Note_off_c, 10, 62, 64
11, 128850, Note_on_c, 10, 66, 68
11, 128984, Note_off_c, 10, 66, 64
11, 129214, Note_on_c, 10, 71, 80
11, 129359, Note_off_c, 10, 71, 64
11, 129576, Note_on_c, 10, 70, 78
11, 129709, Note_off_c, 10, 70, 64
11, 129930, Note_on_c, 10, 71, 68
11, 130058, Note_off_c, 10, 71, 64
11, 130283, Note_on_c, 10, 73, 87
11, 130388, Note_on_c, 10, 71, 63
11, 130422, Note_off_c, 10, 73, 64
11, 130488, Note_off_c, 10, 71, 64
11, 130510, Note_on_c, 10, 73, 64
11, 130575, Note_off_c, 10, 73, 64
11, 130636, Note_on_c, 10, 73, 87
11, 130755, Note_off_c, 10, 73, 64
11, 130857, Note_on_c, 10, 71, 57
11, 130911, Note_off_c, 10, 71, 64
11, 130989, Note_on_c, 10, 71, 82
11, 131124, Note_off_c, 10, 71, 64
11, 131210, Note_on_c, 10, 70, 63
11, 131287, Note_off_c, 10, 70, 64
11, 131358, Note_on_c, 10, 71, 85
11, 131487, Note_off_c, 10, 71, 64
11, 131712, Note_on_c, 10, 71, 82
11, 131847, Note_off_c, 10, 71, 64
11, 132074, Note_on_c, 10, 75, 78
11, 132200, Note_off_c, 10, 75, 64
11, 132429, Note_on_c, 10, 76, 95
11, 132620, Note_off_c, 10, 76, 64
11, 133017, Note_on_c, 10, 71, 76
11, 133109, Note_off_c, 10, 71, 64
11, 133131, Note_on_c, 10, 73, 72
11, 133262, Note_off_c, 10, 73, 64
11, 133377, Note_on_c, 10, 75, 68
11, 133470, Note_off_c, 10, 75, 64
11, 133514, Note_on_c, 10, 76, 85
11, 133631, Note_off_c, 10, 76, 64
11, 133730, Note_on_c, 10, 71, 76
11, 133813, Note_off_c, 10, 71, 64
11, 133876, Note_on_c, 10, 70, 74
11, 134002, Note_off_c, 10, 70, 64
11, 134108, Note_on_c, 10, 71, 70
11, 134198, Note_off_c, 10, 71, 64
11, 134236, Note_on_c, 10, 73, 82
11, 134357, Note_off_c, 10, 73, 64
11, 134475, Note_on_c, 10, 76, 68
11, 134547, Note_off_c, 10, 76, 64
11, 134610, Note_on_c, 10, 73, 89
11, 134718, Note_on_c, 10, 74, 80
11, 134738, Note_off_c, 10, 73, 64
11, 134825, Note_off_c, 10, 74, 64
11, 134837, Note_on_c, 10, 76, 63
11, 134889, Note_off_c, 10, 76, 64
11, 134971, Note_on_c, 10, 73, 100
11, 135073, Note_on_c, 10, 74, 76
11, 135102, Note_off_c, 10, 73, 64
11, 135145, Note_off_c, 10, 74, 64
11, 135197, Note_on_c, 10, 71, 85
11, 135244, Note_off_c, 10, 71, 64
11, 135325, Note_on_c, 10, 71, 98
11, 135435, Note_on_c, 10, 73, 58
11, 135455, Note_off_c, 10, 71, 64
11, 135539, Note_off_c, 10, 73, 64
11, 135548, Note_on_c, 10, 70, 63
11, 135620, Note_off_c, 10, 70, 64
11, 135681, Note_on_c, 10, 71, 89
11, 135797, Note_off_c, 10, 71, 64
11, 135919, Note_on_c, 10, 71, 76
11, 135986, Note_off_c, 10, 71, 64
11, 136049, Note_on_c, 10, 67, 98
11, 136158, Note_on_c, 10, 66, 64
11, 136187, Note_off_c, 10, 67, 64
11, 136261, Note_off_c, 10, 66, 64
11, 136266, Note_on_c, 10, 64, 59
11, 136315, Note_off_c, 10, 64, 64
11, 136402, Note_on_c, 10, 64, 87
11, 136504, Note_on_c, 10, 62, 74
11, 136517, Note_off_c, 10, 64, 64
11, 136623, Note_on_c, 10, 61, 68
11, 136624, Note_off_c, 10, 62, 64
11, 136693, Note_off_c, 10, 61, 64
11, 136774, Note_on_c, 10, 62, 98
11, 136882, Note_on_c, 10, 64, 78
11, 136905, Note_off_c, 10, 62, 64
11, 136959, Note_off_c, 10, 64, 64
11, 137003, Note_on_c, 10, 66, 82
11, 137061, Note_off_c, 10, 66, 64
11, 137138, Note_on_c, 10, 66, 100
11, 137229, Note_on_c, 10, 67, 70
11, 137260, Note_off_c, 10, 66, 64
11, 137310, Note_off_c, 10, 67, 64
11, 137359, Note_on_c, 10, 64, 76
11, 137406, Note_off_c, 10, 64, 64
11, 137490, Note_on_c, 10, 64, 87
11, 137593, Note_on_c, 10, 66, 61
11, 137611, Note_off_c, 10, 64, 64
11, 137667, Note_off_c, 10, 66, 64
11, 137714, Note_on_c, 10, 62, 76
11, 137766, Note_off_c, 10, 62, 64
11, 137847, Note_on_c, 10, 62, 91
11, 137964, Note_on_c, 10, 64, 72
11, 137987, Note_off_c, 10, 62, 64
11, 138047, Note_off_c, 10, 64, 64
11, 138092, Note_on_c, 10, 66, 80
11, 138150, Note_off_c, 10, 66, 64
11, 138219, Note_on_c, 10, 66, 100
11, 138322, Note_on_c, 10, 67, 74
11, 138354, Note_off_c, 10, 66, 64
11, 138389, Note_off_c, 10, 67, 64
11, 138444, Note_on_c, 10, 64, 76
11, 138497, Note_off_c, 10, 64, 64
11, 138574, Note_on_c, 10, 64, 89
11, 138666, Note_on_c, 10, 66, 63
11, 138686, Note_off_c, 10, 64, 64
11, 138743, Note_off_c, 10, 66, 64
11, 138783, Note_on_c, 10, 62, 74
11, 138846, Note_off_c, 10, 62, 64
11, 138941, Note_on_c, 10, 62, 85
11, 139315, Note_off_c, 10, 62, 64
11, 158750, Note_on_c, 10, 60, 80
11, 158871, Note_off_c, 10, 60, 64
11, 159092, Note_on_c, 10, 62, 80
11, 159211, Note_off_c, 10, 62, 64
11, 159450, Note_on_c, 10, 55, 64
11, 159593, Note_off_c, 10, 55, 64
11, 159819, Note_on_c, 10, 62, 85
11, 159956, Note_off_c, 10, 62, 64
11, 160152, Note_on_c, 10, 64, 80
11, 160286, Note_off_c, 10, 64, 64
11, 160539, Note_on_c, 10, 57, 63
11, 160680, Note_off_c, 10, 57, 64
11, 160894, Note_on_c, 10, 64, 87
11, 161024, Note_off_c, 10, 64, 64
11, 161247, Note_on_c, 10, 66, 74
11, 161364, Note_off_c, 10, 66, 64
11, 161605, Note_on_c, 10, 59, 72
11, 161735, Note_off_c, 10, 59, 64
11, 161844, Note_on_c, 10, 67, 76
11, 161916, Note_off_c, 10, 67, 64
11, 161978, Note_on_c, 10, 67, 93
11, 162087, Note_on_c, 10, 69, 80
11, 162118, Note_off_c, 10, 67, 64
11, 162152, Note_off_c, 10, 69, 64
11, 162206, Note_on_c, 10, 66, 64
11, 162257, Note_off_c, 10, 66, 64
11, 162341, Note_on_c, 10, 66, 98
11, 162453, Note_on_c, 10, 67, 78
11, 162485, Note_off_c, 10, 66, 64
11, 162532, Note_off_c, 10, 67, 64
11, 162559, Note_on_c, 10, 64, 63
11, 162615, Note_off_c, 10, 64, 64
11, 162699, Note_on_c, 10, 64, 93
11, 162800, Note_on_c, 10, 66, 64
11, 162849, Note_off_c, 10, 64, 64
11, 162917, Note_on_c, 10, 67, 85
11, 162923, Note_off_c, 10, 66, 64
11, 163020, Note_off_c, 10, 67, 64
11, 163047, Note_on_c, 10, 69, 85
11, 163166, Note_on_c, 10, 71, 82
11, 163200, Note_off_c, 10, 69, 64
11, 163236, Note_off_c, 10, 71, 64
11, 163284, Note_on_c, 10, 67, 85
11, 163351, Note_off_c, 10, 67, 64
11, 163410, Note_on_c, 10, 67, 100
11, 163520, Note_on_c, 10, 69, 72
11, 163544, Note_off_c, 10, 67, 64
11, 163617, Note_off_c, 10, 69, 64
11, 163626, Note_on_c, 10, 66, 64
11, 163718, Note_off_c, 10, 66, 64
11, 163778, Note_on_c, 10, 66, 78
11, 163936, Note_off_c, 10, 66, 64
11, 164132, Note_on_c, 10, 71, 80
11, 164904, Note_off_c, 10, 71, 64
11, 164958, Note_on_c, 10, 64, 66
11, 165065, Note_on_c, 10, 66, 63
11, 165081, Note_off_c, 10, 64, 64
11, 165155, Note_off_c, 10, 66, 64
11, 165209, Note_on_c, 10, 68, 100
11, 165313, Note_on_c, 10, 76, 82
11, 165329, Note_off_c, 10, 68, 64
11, 165397, Note_off_c, 10, 76, 64
11, 165430, Note_on_c, 10, 66, 80
11, 165504, Note_off_c, 10, 66, 64
11, 165556, Note_on_c, 10, 68, 98
11, 165671, Note_on_c, 10, 66, 64
11, 165696, Note_off_c, 10, 68, 64
11, 165772, Note_off_c, 10, 66, 64
11, 165776, Note_on_c, 10, 64, 68
11, 165849, Note_off_c, 10, 64, 64
11, 165924, Note_on_c, 10, 69, 85
11, 167009, Note_off_c, 10, 69, 64
11, 167142, Note_on_c, 10, 62, 80
11, 167253, Note_on_c, 10, 64, 91
11, 167273, Note_off_c, 10, 62, 64
11, 167347, Note_off_c, 10, 64, 64
11, 167376, Note_on_c, 10, 66, 95
11, 167487, Note_on_c, 10, 74, 91
11, 167493, Note_off_c, 10, 66, 64
11, 167568, Note_off_c, 10, 74, 64
11, 167601, Note_on_c, 10, 64, 85
11, 167672, Note_off_c, 10, 64, 64
11, 167716, Note_on_c, 10, 66, 91
11, 167838, Note_on_c, 10, 64, 68
11, 167871, Note_off_c, 10, 66, 64
11, 167948, Note_off_c, 10, 64, 64
11, 167951, Note_on_c, 10, 62, 82
11, 168026, Note_off_c, 10, 62, 64
11, 168081, Note_on_c, 10, 67, 80
11, 168227, Note_off_c, 10, 67, 64
11, 168443, Note_on_c, 10, 74, 82
11, 170178, Note_off_c, 10, 74, 64
11, 170238, Note_on_c, 10, 74, 80
11, 170351, Note_on_c, 10, 73, 51
11, 170371, Note_off_c, 10, 74, 64
11, 170416, Note_on_c, 10, 74, 68
11, 170425, Note_off_c, 10, 73, 64
11, 170475, Note_on_c, 10, 73, 57
11, 170486, Note_off_c, 10, 74, 64
11, 170520, Note_on_c, 10, 74, 66
11, 170529, Note_off_c, 10, 73, 64
11, 170569, Note_on_c, 10, 73, 57
11, 170576, Note_off_c, 10, 74, 64
11, 170612, Note_on_c, 10, 74, 66
11, 170618, Note_off_c, 10, 73, 64
11, 170666, Note_on_c, 10, 73, 57
11, 170673, Note_off_c, 10, 74, 64
11, 170714, Note_on_c, 10, 74, 70
11, 170718, Note_off_c, 10, 73, 64
11, 170763, Note_on_c, 10, 73, 56
11, 170778, Note_off_c, 10, 74, 64
11, 170817, Note_off_c, 10, 73, 64
11, 170821, Note_on_c, 10, 74, 66
11, 170866, Note_on_c, 10, 73, 57
11, 170877, Note_off_c, 10, 74, 64
11, 170920, Note_off_c, 10, 73, 64
11, 170920, Note_on_c, 10, 74, 72
11, 170967, Note_on_c, 10, 73, 55
11, 170978, Note_off_c, 10, 74, 64
11, 171015, Note_on_c, 10, 74, 80
11, 171021, Note_off_c, 10, 73, 64
11, 171069, Note_off_c, 10, 74, 64
11, 171069, Note_on_c, 10, 73, 51
11, 171114, Note_on_c, 10, 74, 68
11, 171158, Note_off_c, 10, 74, 64
11, 171172, Note_on_c, 10, 71, 66
11, 171204, Note_off_c, 10, 73, 64
11, 171239, Note_on_c, 10, 73, 63
11, 171282, Note_off_c, 10, 71, 64
11, 171312, Note_off_c, 10, 73, 64
11, 171350, Note_on_c, 10, 74, 93
11, 171462, Note_on_c, 10, 71, 70
11, 171471, Note_off_c, 10, 74, 64
11, 171548, Note_off_c, 10, 71, 64
11, 171572, Note_on_c, 10, 73, 70
11, 171680, Note_off_c, 10, 73, 64
11, 171694, Note_on_c, 10, 74, 93
11, 171807, Note_on_c, 10, 76, 82
11, 171833, Note_off_c, 10, 74, 64
11, 171901, Note_off_c, 10, 76, 64
11, 171921, Note_on_c, 10, 73, 62
11, 171989, Note_off_c, 10, 73, 64
11, 172047, Note_on_c, 10, 74, 98
11, 172160, Note_on_c, 10, 73, 66
11, 172178, Note_off_c, 10, 74, 64
11, 172248, Note_off_c, 10, 73, 64
11, 172263, Note_on_c, 10, 71, 70
11, 172355, Note_off_c, 10, 71, 64
11, 172405, Note_on_c, 10, 76, 89
11, 172547, Note_off_c, 10, 76, 64
11, 172780, Note_on_c, 10, 69, 85
11, 173616, Note_on_c, 10, 62, 82
11, 173622, Note_off_c, 10, 69, 64
11, 173690, Note_off_c, 10, 62, 64
11, 173726, Note_on_c, 10, 65, 85
11, 173796, Note_off_c, 10, 65, 64
11, 173859, Note_on_c, 10, 65, 105
11, 173969, Note_on_c, 10, 67, 82
11, 173998, Note_off_c, 10, 65, 64
11, 174059, Note_off_c, 10, 67, 64
11, 174083, Note_on_c, 10, 64, 64
11, 174140, Note_off_c, 10, 64, 64
11, 174220, Note_on_c, 10, 64, 95
11, 174318, Note_on_c, 10, 65, 74
11, 174344, Note_off_c, 10, 64, 64
11, 174419, Note_off_c, 10, 65, 64
11, 174431, Note_on_c, 10, 62, 70
11, 174507, Note_off_c, 10, 62, 64
11, 174565, Note_on_c, 10, 62, 95
11, 174668, Note_on_c, 10, 64, 80
11, 174707, Note_off_c, 10, 62, 64
11, 174794, Note_on_c, 10, 65, 87
11, 174817, Note_off_c, 10, 64, 64
11, 174907, Note_off_c, 10, 65, 64
11, 174922, Note_on_c, 10, 67, 87
11, 175037, Note_on_c, 10, 69, 82
11, 175060, Note_off_c, 10, 67, 64
11, 175107, Note_off_c, 10, 69, 64
11, 175150, Note_on_c, 10, 65, 74
11, 175215, Note_off_c, 10, 65, 64
11, 175281, Note_on_c, 10, 65, 98
11, 175391, Note_on_c, 10, 67, 70
11, 175411, Note_off_c, 10, 65, 64
11, 175472, Note_off_c, 10, 67, 64
11, 175505, Note_on_c, 10, 64, 68
11, 175577, Note_off_c, 10, 64, 64
11, 175656, Note_on_c, 10, 64, 82
11, 175818, Note_off_c, 10, 64, 64
11, 176018, Note_on_c, 10, 71, 78
11, 176919, Note_off_c, 10, 71, 64
11, 176963, Note_on_c, 10, 69, 80
11, 177032, Note_off_c, 10, 69, 64
11, 177101, Note_on_c, 10, 69, 105
11, 177206, Note_on_c, 10, 71, 68
11, 177227, Note_off_c, 10, 69, 64
11, 177297, Note_off_c, 10, 71, 64
11, 177297, Note_on_c, 10, 67, 68
11, 177357, Note_off_c, 10, 67, 64
11, 177436, Note_on_c, 10, 67, 93
11, 177540, Note_on_c, 10, 69, 64
11, 177567, Note_off_c, 10, 67, 64
11, 177639, Note_off_c, 10, 69, 64
11, 177665, Note_on_c, 10, 66, 70
11, 177729, Note_off_c, 10, 66, 64
11, 177791, Note_on_c, 10, 66, 89
11, 177895, Note_on_c, 10, 69, 66
11, 177913, Note_off_c, 10, 66, 64
11, 177983, Note_off_c, 10, 69, 64
11, 178005, Note_on_c, 10, 67, 80
11, 178079, Note_off_c, 10, 67, 64
11, 178142, Note_on_c, 10, 69, 100
11, 178305, Note_off_c, 10, 69, 64
11, 178359, Note_on_c, 10, 71, 82
11, 178419, Note_off_c, 10, 71, 64
11, 178476, Note_on_c, 10, 71, 105
11, 178518, Note_on_c, 10, 69, 85
11, 178530, Note_off_c, 10, 71, 64
11, 178574, Note_off_c, 10, 69, 64
11, 178574, Note_on_c, 10, 71, 78
11, 178610, Note_on_c, 10, 69, 66
11, 178633, Note_off_c, 10, 71, 64
11, 178694, Note_off_c, 10, 69, 64
11, 178707, Note_on_c, 10, 67, 87
11, 178773, Note_off_c, 10, 67, 64
11, 178836, Note_on_c, 10, 66, 82
11, 179132, Note_off_c, 10, 66, 64
11, 200529, Note_on_c, 10, 69, 95
11, 200816, Note_off_c, 10, 69, 64
11, 201202, Note_on_c, 10, 74, 91
11, 201239, Note_off_c, 10, 74, 64
11, 201260, Note_on_c, 10, 74, 100
11, 201333, Note_off_c, 10, 74, 64
11, 201440, Note_on_c, 10, 69, 78
11, 201469, Note_off_c, 10, 69, 64
11, 201500, Note_on_c, 10, 69, 98
11, 201985, Note_off_c, 10, 69, 64
11, 202136, Note_on_c, 10, 78, 89
11, 202166, Note_off_c, 10, 78, 64
11, 202192, Note_on_c, 10, 78, 102
11, 202264, Note_off_c, 10, 78, 64
11, 202369, Note_on_c, 10, 72, 87
11, 202402, Note_off_c, 10, 72, 64
11, 202433, Note_on_c, 10, 72, 100
11, 202928, Note_off_c, 10, 72, 64
11, 203096, Note_on_c, 10, 78, 82
11, 203126, Note_off_c, 10, 78, 64
11, 203151, Note_on_c, 10, 78, 100
11, 203225, Note_off_c, 10, 78, 64
11, 203319, Note_on_c, 10, 75, 64
11, 203365, Note_off_c, 10, 75, 64
11, 203389, Note_on_c, 10, 76, 87
11, 203457, Note_off_c, 10, 76, 64
11, 203509, Note_on_c, 10, 64, 63
11, 203566, Note_on_c, 10, 66, 78
11, 203571, Note_off_c, 10, 64, 64
11, 203617, Note_off_c, 10, 66, 64
11, 203632, Note_on_c, 10, 67, 82
11, 203682, Note_off_c, 10, 67, 64
11, 203696, Note_on_c, 10, 69, 66
11, 203742, Note_off_c, 10, 69, 64
11, 203757, Note_on_c, 10, 71, 76
11, 203811, Note_off_c, 10, 71, 64
11, 203815, Note_on_c, 10, 73, 68
11, 203858, Note_off_c, 10, 73, 64
11, 203875, Note_on_c, 10, 74, 98
11, 203923, Note_off_c, 10, 74, 64
11, 203935, Note_on_c, 10, 73, 62
11, 203989, Note_on_c, 10, 71, 63
11, 203990, Note_off_c, 10, 73, 64
11, 204047, Note_on_c, 10, 73, 85
11, 204056, Note_off_c, 10, 71, 64
11, 204082, Note_off_c, 10, 73, 64
11, 204103, Note_on_c, 10, 74, 87
11, 204151, Note_off_c, 10, 74, 64
11, 204156, Note_on_c, 10, 71, 78
11, 204208, Note_off_c, 10, 71, 64
11, 204220, Note_on_c, 10, 76, 87
11, 204268, Note_off_c, 10, 76, 64
11, 204272, Note_on_c, 10, 71, 82
11, 204313, Note_off_c, 10, 71, 64
11, 204338, Note_on_c, 10, 73, 87
11, 204908, Note_off_c, 10, 73, 64
11, 205002, Note_on_c, 10, 69, 85
11, 205039, Note_off_c, 10, 69, 64
11, 205062, Note_on_c, 10, 69, 95
11, 205140, Note_off_c, 10, 69, 64
11, 205229, Note_on_c, 10, 73, 76
11, 205272, Note_off_c, 10, 73, 64
11, 205298, Note_on_c, 10, 74, 89
11, 205799, Note_off_c, 10, 74, 64
11, 205962, Note_on_c, 10, 81, 87
11, 205997, Note_off_c, 10, 81, 64
11, 206019, Note_on_c, 10, 81, 100
11, 206095, Note_off_c, 10, 81, 64
11, 206186, Note_on_c, 10, 78, 80
11, 206225, Note_off_c, 10, 78, 64
11, 206252, Note_on_c, 10, 74, 82
11, 206764, Note_off_c, 10, 74, 64
11, 206925, Note_on_c, 10, 76, 87
11, 206967, Note_off_c, 10, 76, 64
11, 206984, Note_on_c, 10, 76, 91
11, 207048, Note_off_c, 10, 76, 64
11, 207152, Note_on_c, 10, 71, 82
11, 207194, Note_off_c, 10, 71, 64
11, 207223, Note_on_c, 10, 76, 85
11, 207726, Note_off_c, 10, 76, 64
11, 207891, Note_on_c, 10, 78, 87
11, 207927, Note_off_c, 10, 78, 64
11, 207951, Note_on_c, 10, 78, 89
11, 208009, Note_off_c, 10, 78, 64
11, 208116, Note_on_c, 10, 74, 78
11, 208157, Note_off_c, 10, 74, 64
11, 208190, Note_on_c, 10, 76, 95
11, 208534, Note_off_c, 10, 76, 64
11, 208617, Note_on_c, 10, 76, 89
11, 208650, Note_off_c, 10, 76, 64
11, 208678, Note_on_c, 10, 76, 98
11, 208744, Note_off_c, 10, 76, 64
11, 208921, Note_on_c, 10, 73, 100
11, 208991, Note_off_c, 10, 73, 64
11, 209163, Note_on_c, 10, 74, 100
11, 209233, Note_off_c, 10, 74, 64
11, 209340, Note_on_c, 10, 69, 87
11, 209373, Note_off_c, 10, 69, 64
11, 209398, Note_on_c, 10, 69, 100
11, 209472, Note_off_c, 10, 69, 64
11, 209578, Note_on_c, 10, 66, 89
11, 209611, Note_off_c, 10, 66, 64
11, 209641, Note_on_c, 10, 66, 89
11, 210136, Note_off_c, 10, 66, 64
11, 210292, Note_on_c, 10, 67, 82
11, 210324, Note_off_c, 10, 67, 64
11, 210350, Note_on_c, 10, 67, 98
11, 210421, Note_off_c, 10, 67, 64
11, 210522, Note_on_c, 10, 64, 80
11, 210566, Note_off_c, 10, 64, 64
11, 210589, Note_on_c, 10, 66, 93
11, 210684, Note_off_c, 10, 66, 64
11, 210834, Note_on_c, 10, 70, 89
11, 210920, Note_off_c, 10, 70, 64
11, 211075, Note_on_c, 10, 71, 89
11, 211563, Note_off_c, 10, 71, 64
11, 211743, Note_on_c, 10, 66, 87
11, 211776, Note_off_c, 10, 66, 64
11, 211799, Note_on_c, 10, 66, 95
11, 211860, Note_off_c, 10, 66, 64
11, 211974, Note_on_c, 10, 62, 70
11, 212014, Note_off_c, 10, 62, 64
11, 212042, Note_on_c, 10, 64, 93
11, 212368, Note_off_c, 10, 64, 64
11, 212451, Note_on_c, 10, 62, 80
11, 212478, Note_on_c, 10, 61, 82
11, 212485, Note_off_c, 10, 62, 64
11, 212510, Note_on_c, 10, 62, 95
11, 212515, Note_off_c, 10, 61, 64
11, 212599, Note_off_c, 10, 62, 64
11, 212684, Note_on_c, 10, 62, 80
11, 212730, Note_off_c, 10, 62, 64
11, 212746, Note_on_c, 10, 64, 91
11, 212826, Note_off_c, 10, 64, 64
11, 212919, Note_on_c, 10, 66, 68
11, 212967, Note_off_c, 10, 66, 64
11, 212992, Note_on_c, 10, 61, 91
11, 213081, Note_off_c, 10, 61, 64
11, 213177, Note_on_c, 10, 67, 87
11, 213217, Note_off_c, 10, 67, 64
11, 213237, Note_on_c, 10, 67, 98
11, 213316, Note_off_c, 10, 67, 64
11, 213405, Note_on_c, 10, 64, 80
11, 213446, Note_off_c, 10, 64, 64
11, 213471, Note_on_c, 10, 61, 87
11, 213959, Note_off_c, 10, 61, 64
11, 214132, Note_on_c, 10, 69, 91
11, 214166, Note_off_c, 10, 69, 64
11, 214184, Note_on_c, 10, 69, 87
11, 214250, Note_off_c, 10, 69, 64
11, 214359, Note_on_c, 10, 66, 76
11, 214401, Note_off_c, 10, 66, 64
11, 214419, Note_on_c, 10, 62, 95
11, 214897, Note_off_c, 10, 62, 64
11, 215095, Note_on_c, 10, 70, 100
11, 215129, Note_off_c, 10, 70, 64
11, 215154, Note_on_c, 10, 70, 102
11, 215223, Note_off_c, 10, 70, 64
11, 215329, Note_on_c, 10, 67, 82
11, 215370, Note_off_c, 10, 67, 64
11, 215387, Note_on_c, 10, 64, 82
11, 215860, Note_off_c, 10, 64, 64
11, 216054, Note_on_c, 10, 67, 85
11, 216085, Note_off_c, 10, 67, 64
11, 216110, Note_on_c, 10, 65, 87
11, 216357, Note_off_c, 10, 65, 64
11, 216544, Note_on_c, 10, 65, 82
11, 216579, Note_off_c, 10, 65, 64
11, 216605, Note_on_c, 10, 64, 95
11, 216842, Note_off_c, 10, 64, 64
11, 217020, Note_on_c, 10, 64, 72
11, 217064, Note_off_c, 10, 64, 64
11, 217088, Note_on_c, 10, 62, 91
11, 217167, Note_off_c, 10, 62, 64
11, 217256, Note_on_c, 10, 65, 78
11, 217293, Note_off_c, 10, 65, 64
11, 217320, Note_on_c, 10, 69, 85
11, 217890, Note_off_c, 10, 69, 64
11, 217958, Note_on_c, 10, 66, 85
11, 217997, Note_off_c, 10, 66, 64
11, 218015, Note_on_c, 10, 67, 95
11, 218099, Note_off_c, 10, 67, 64
11, 218190, Note_on_c, 10, 64, 82
11, 218227, Note_off_c, 10, 64, 64
11, 218251, Note_on_c, 10, 66, 100
11, 218341, Note_off_c, 10, 66, 64
11, 218439, Note_on_c, 10, 62, 82
11, 218465, Note_off_c, 10, 62, 64
11, 218494, Note_on_c, 10, 64, 85
11, 218573, Note_off_c, 10, 64, 64
11, 218668, Note_on_c, 10, 71, 80
11, 218718, Note_off_c, 10, 71, 64
11, 218739, Note_on_c, 10, 76, 100
11, 218837, Note_off_c, 10, 76, 64
11, 218915, Note_on_c, 10, 73, 72
11, 218962, Note_off_c, 10, 73, 64
11, 218976, Note_on_c, 10, 74, 91
11, 219067, Note_off_c, 10, 74, 64
11, 219150, Note_on_c, 10, 71, 70
11, 219193, Note_off_c, 10, 71, 64
11, 219223, Note_on_c, 10, 69, 89
11, 219564, Note_off_c, 10, 69, 64
11, 219632, Note_on_c, 10, 69, 100
11, 219665, Note_off_c, 10, 69, 64
11, 219706, Note_on_c, 10, 69, 98
11, 220430, Note_off_c, 10, 69, 64
11, 289019, Note_on_c, 10, 64, 85
11, 289083, Note_off_c, 10, 64, 64
11, 289152, Note_on_c, 10, 64, 98
11, 289263, Note_on_c, 10, 69, 78
11, 289280, Note_off_c, 10, 64, 64
11, 289357, Note_off_c, 10, 69, 64
11, 289384, Note_on_c, 10, 68, 70
11, 289449, Note_off_c, 10, 68, 64
11, 289514, Note_on_c, 10, 68, 95
11, 289622, Note_on_c, 10, 71, 72
11, 289641, Note_off_c, 10, 68, 64
11, 289731, Note_on_c, 10, 69, 52
11, 289742, Note_off_c, 10, 71, 64
11, 289782, Note_off_c, 10, 69, 64
11, 289874, Note_on_c, 10, 69, 78
11, 290113, Note_off_c, 10, 69, 64
11, 291209, Note_on_c, 10, 73, 74
11, 291262, Note_off_c, 10, 73, 64
11, 291337, Note_on_c, 10, 73, 93
11, 291441, Note_on_c, 10, 76, 68
11, 291472, Note_off_c, 10, 73, 64
11, 291537, Note_off_c, 10, 76, 64
11, 291557, Note_on_c, 10, 74, 66
11, 291607, Note_off_c, 10, 74, 64
11, 291681, Note_on_c, 10, 74, 100
11, 291794, Note_on_c, 10, 78, 61
11, 291819, Note_off_c, 10, 74, 64
11, 291873, Note_off_c, 10, 78, 64
11, 291917, Note_on_c, 10, 76, 76
11, 291965, Note_off_c, 10, 76, 64
11, 292049, Note_on_c, 10, 76, 91
11, 292205, Note_off_c, 10, 76, 64
11, 292280, Note_on_c, 10, 73, 54
11, 292347, Note_off_c, 10, 73, 64
11, 292403, Note_on_c, 10, 76, 80
11, 292525, Note_off_c, 10, 76, 64
11, 292635, Note_on_c, 10, 73, 57
11, 292709, Note_off_c, 10, 73, 64
11, 292766, Note_on_c, 10, 69, 72
11, 292878, Note_off_c, 10, 69, 64
11, 293000, Note_on_c, 10, 73, 57
11, 293061, Note_off_c, 10, 73, 64
11, 293133, Note_on_c, 10, 74, 76
11, 293342, Note_off_c, 10, 74, 64
11, 294460, Note_on_c, 10, 74, 78
11, 294523, Note_off_c, 10, 74, 64
11, 294588, Note_on_c, 10, 74, 95
11, 294701, Note_on_c, 10, 78, 57
11, 294735, Note_off_c, 10, 74, 64
11, 294777, Note_off_c, 10, 78, 64
11, 294813, Note_on_c, 10, 76, 63
11, 294858, Note_off_c, 10, 76, 64
11, 294950, Note_on_c, 10, 76, 95
11, 295053, Note_on_c, 10, 79, 80
11, 295065, Note_off_c, 10, 76, 64
11, 295133, Note_off_c, 10, 79, 64
11, 295160, Note_on_c, 10, 78, 53
11, 295207, Note_off_c, 10, 78, 64
11, 295292, Note_on_c, 10, 78, 64
11, 295504, Note_off_c, 10, 78, 64
11, 296606, Note_on_c, 10, 66, 57
11, 296669, Note_off_c, 10, 66, 64
11, 296741, Note_on_c, 10, 69, 89
11, 296856, Note_off_c, 10, 69, 64
11, 296962, Note_on_c, 10, 66, 55
11, 297034, Note_off_c, 10, 66, 64
11, 297099, Note_on_c, 10, 62, 70
11, 297210, Note_off_c, 10, 62, 64
11, 297309, Note_on_c, 10, 66, 60
11, 297398, Note_off_c, 10, 66, 64
11, 297457, Note_on_c, 10, 67, 80
11, 297588, Note_off_c, 10, 67, 64
11, 297677, Note_on_c, 10, 66, 59
11, 297738, Note_off_c, 10, 66, 64
11, 297824, Note_on_c, 10, 67, 80
11, 297932, Note_off_c, 10, 67, 64
11, 298056, Note_on_c, 10, 69, 64
11, 298112, Note_off_c, 10, 69, 64
11, 298188, Note_on_c, 10, 69, 100
11, 298292, Note_on_c, 10, 71, 62
11, 298319, Note_off_c, 10, 69, 64
11, 298368, Note_off_c, 10, 71, 64
11, 298404, Note_on_c, 10, 68, 63
11, 298456, Note_off_c, 10, 68, 64
11, 298532, Note_on_c, 10, 68, 100
11, 298645, Note_on_c, 10, 69, 68
11, 298685, Note_off_c, 10, 68, 64
11, 298741, Note_off_c, 10, 69, 64
11, 298758, Note_on_c, 10, 71, 68
11, 298821, Note_off_c, 10, 71, 64
11, 298890, Note_on_c, 10, 69, 78
11, 299043, Note_off_c, 10, 69, 64
11, 299131, Note_on_c, 10, 71, 68
11, 299185, Note_off_c, 10, 71, 64
11, 299253, Note_on_c, 10, 71, 100
11, 299363, Note_on_c, 10, 73, 62
11, 299385, Note_off_c, 10, 71, 64
11, 299439, Note_off_c, 10, 73, 64
11, 299473, Note_on_c, 10, 70, 62
11, 299525, Note_off_c, 10, 70, 64
11, 299619, Note_on_c, 10, 70, 102
11, 299721, Note_on_c, 10, 71, 80
11, 299756, Note_off_c, 10, 70, 64
11, 299835, Note_off_c, 10, 71, 64
11, 299838, Note_on_c, 10, 73, 60
11, 299900, Note_off_c, 10, 73, 64
11, 299981, Note_on_c, 10, 71, 87
11, 300119, Note_off_c, 10, 71, 64
11, 300218, Note_on_c, 10, 73, 54
11, 300270, Note_off_c, 10, 73, 64
11, 300341, Note_on_c, 10, 73, 98
11, 300447, Note_on_c, 10, 74, 78
11, 300488, Note_off_c, 10, 73, 64
11, 300531, Note_off_c, 10, 74, 64
11, 300564, Note_on_c, 10, 71, 60
11, 300614, Note_off_c, 10, 71, 64
11, 300704, Note_on_c, 10, 71, 100
11, 300805, Note_on_c, 10, 73, 63
11, 300841, Note_off_c, 10, 71, 64
11, 300920, Note_on_c, 10, 74, 66
11, 300933, Note_off_c, 10, 73, 64
11, 300980, Note_off_c, 10, 74, 64
11, 301055, Note_on_c, 10, 73, 82
11, 301188, Note_off_c, 10, 73, 64
11, 301296, Note_on_c, 10, 74, 72
11, 301350, Note_off_c, 10, 74, 64
11, 301419, Note_on_c, 10, 74, 98
11, 301511, Note_on_c, 10, 76, 70
11, 301547, Note_off_c, 10, 74, 64
11, 301597, Note_off_c, 10, 76, 64
11, 301644, Note_on_c, 10, 73, 85
11, 301694, Note_off_c, 10, 73, 64
11, 301764, Note_on_c, 10, 73, 93
11, 301899, Note_off_c, 10, 73, 64
11, 314243, Note_on_c, 10, 78, 80
11, 314316, Note_off_c, 10, 78, 64
11, 314360, Note_on_c, 10, 75, 85
11, 314477, Note_off_c, 10, 75, 64
11, 314585, Note_on_c, 10, 71, 66
11, 314689, Note_off_c, 10, 71, 64
11, 314739, Note_on_c, 10, 83, 87
11, 315213, Note_off_c, 10, 83, 64
11, 315306, Note_on_c, 10, 79, 85
11, 315387, Note_off_c, 10, 79, 64
11, 315424, Note_on_c, 10, 76, 91
11, 315523, Note_off_c, 10, 76, 64
11, 315654, Note_on_c, 10, 72, 76
11, 315753, Note_off_c, 10, 72, 64
11, 315794, Note_on_c, 10, 84, 100
11, 315921, Note_off_c, 10, 84, 64
11, 316017, Note_on_c, 10, 72, 63
11, 316091, Note_off_c, 10, 72, 64
11, 316160, Note_on_c, 10, 72, 82
11, 316278, Note_off_c, 10, 72, 64
11, 316403, Note_on_c, 10, 72, 78
11, 316476, Note_off_c, 10, 72, 64
11, 316534, Note_on_c, 10, 72, 85
11, 316678, Note_off_c, 10, 72, 64
11, 316761, Note_on_c, 10, 72, 68
11, 316841, Note_off_c, 10, 72, 64
11, 316894, Note_on_c, 10, 71, 82
11, 317036, Note_off_c, 10, 71, 64
11, 317272, Note_on_c, 10, 75, 78
11, 317405, Note_off_c, 10, 75, 64
11, 317616, Note_on_c, 10, 78, 70
11, 317762, Note_off_c, 10, 78, 64
11, 318348, Note_on_c, 10, 67, 80
11, 318485, Note_off_c, 10, 67, 64
11, 318692, Note_on_c, 10, 71, 87
11, 318843, Note_off_c, 10, 71, 64
11, 319410, Note_on_c, 10, 74, 85
11, 319531, Note_off_c, 10, 74, 64
11, 319758, Note_on_c, 10, 69, 80
11, 319898, Note_off_c, 10, 69, 64
11, 320460, Note_on_c, 10, 72, 85
11, 320597, Note_off_c, 10, 72, 64
11, 320832, Note_on_c, 10, 67, 82
11, 320982, Note_off_c, 10, 67, 64
11, 321194, Note_on_c, 10, 74, 87
11, 321363, Note_off_c, 10, 74, 64
11, 322517, Note_on_c, 10, 67, 85
11, 322587, Note_off_c, 10, 67, 64
11, 322660, Note_on_c, 10, 67, 100
11, 322771, Note_on_c, 10, 69, 61
11, 322784, Note_off_c, 10, 67, 64
11, 322836, Note_off_c, 10, 69, 64
11, 322868, Note_on_c, 10, 66, 58
11, 322915, Note_off_c, 10, 66, 64
11, 323005, Note_on_c, 10, 66, 89
11, 323111, Note_on_c, 10, 67, 68
11, 323137, Note_off_c, 10, 66, 64
11, 323198, Note_off_c, 10, 67, 64
11, 323219, Note_on_c, 10, 64, 64
11, 323275, Note_off_c, 10, 64, 64
11, 323378, Note_on_c, 10, 64, 95
11, 323487, Note_on_c, 10, 66, 64
11, 323523, Note_off_c, 10, 64, 64
11, 323603, Note_on_c, 10, 67, 82
11, 323608, Note_off_c, 10, 66, 64
11, 323687, Note_off_c, 10, 67, 64
11, 323736, Note_on_c, 10, 69, 95
11, 323849, Note_on_c, 10, 71, 82
11, 323880, Note_off_c, 10, 69, 64
11, 323923, Note_off_c, 10, 71, 64
11, 323975, Note_on_c, 10, 67, 82
11, 324031, Note_off_c, 10, 67, 64
11, 324110, Note_on_c, 10, 67, 98
11, 324216, Note_on_c, 10, 69, 66
11, 324245, Note_off_c, 10, 67, 64
11, 324315, Note_off_c, 10, 69, 64
11, 324330, Note_on_c, 10, 66, 63
11, 324386, Note_off_c, 10, 66, 64
11, 324465, Note_on_c, 10, 66, 91
11, 324560, Note_on_c, 10, 67, 72
11, 324587, Note_off_c, 10, 66, 64
11, 324674, Note_off_c, 10, 67, 64
11, 324683, Note_on_c, 10, 69, 70
11, 324746, Note_off_c, 10, 69, 64
11, 324818, Note_on_c, 10, 69, 95
11, 324933, Note_off_c, 10, 69, 64
11, 325030, Note_on_c, 10, 67, 82
11, 325095, Note_off_c, 10, 67, 64
11, 325162, Note_on_c, 10, 67, 98
11, 325289, Note_off_c, 10, 67, 64
11, 325374, Note_on_c, 10, 66, 70
11, 325453, Note_off_c, 10, 66, 64
11, 325507, Note_on_c, 10, 67, 85
11, 325656, Note_off_c, 10, 67, 64
11, 325887, Note_on_c, 10, 74, 87
11, 326013, Note_off_c, 10, 74, 64
11, 326240, Note_on_c, 10, 74, 85
11, 326387, Note_off_c, 10, 74, 64
11, 326594, Note_on_c, 10, 74, 82
11, 326751, Note_off_c, 10, 74, 64
11, 327197, Note_on_c, 10, 67, 80
11, 327291, Note_off_c, 10, 67, 64
11, 327325, Note_on_c, 10, 69, 87
11, 327465, Note_off_c, 10, 69, 64
11, 327534, Note_on_c, 10, 71, 74
11, 327629, Note_off_c, 10, 71, 64
11, 327676, Note_on_c, 10, 72, 85
11, 327784, Note_off_c, 10, 72, 64
11, 327892, Note_on_c, 10, 67, 72
11, 328005, Note_off_c, 10, 67, 64
11, 328040, Note_on_c, 10, 66, 87
11, 328157, Note_off_c, 10, 66, 64
11, 328272, Note_on_c, 10, 67, 70
11, 328364, Note_off_c, 10, 67, 64
11, 328410, Note_on_c, 10, 69, 82
11, 328536, Note_off_c, 10, 69, 64
11, 328632, Note_on_c, 10, 72, 74
11, 328689, Note_off_c, 10, 72, 64
11, 328758, Note_on_c, 10, 66, 87
11, 328862, Note_on_c, 10, 67, 78
11, 328889, Note_off_c, 10, 66, 64
11, 328931, Note_off_c, 10, 67, 64
11, 328979, Note_on_c, 10, 69, 80
11, 329046, Note_off_c, 10, 69, 64
11, 329116, Note_on_c, 10, 69, 102
11, 329219, Note_on_c, 10, 71, 70
11, 329244, Note_off_c, 10, 69, 64
11, 329295, Note_off_c, 10, 71, 64
11, 329343, Note_on_c, 10, 67, 70
11, 329395, Note_off_c, 10, 67, 64
11, 329480, Note_on_c, 10, 67, 95
11, 329586, Note_on_c, 10, 69, 64
11, 329602, Note_off_c, 10, 67, 64
11, 329670, Note_off_c, 10, 69, 64
11, 329694, Note_on_c, 10, 66, 66
11, 329766, Note_off_c, 10, 66, 64
11, 329840, Note_on_c, 10, 67, 80
11, 329971, Note_off_c, 10, 67, 64
11, 330068, Note_on_c, 10, 72, 76
11, 330138, Note_off_c, 10, 72, 64
11, 330205, Note_on_c, 10, 71, 98
11, 330313, Note_on_c, 10, 72, 70
11, 330329, Note_off_c, 10, 71, 64
11, 330403, Note_off_c, 10, 72, 64
11, 330430, Note_on_c, 10, 69, 82
11, 330482, Note_off_c, 10, 69, 64
11, 330545, Note_on_c, 10, 71, 95
11, 330597, Note_on_c, 10, 69, 87
11, 330606, Note_off_c, 10, 71, 64
11, 330648, Note_on_c, 10, 71, 78
11, 330657, Note_off_c, 10, 69, 64
11, 330675, Note_on_c, 10, 69, 52
11, 330702, Note_off_c, 10, 71, 64
11, 330747, Note_off_c, 10, 69, 64
11, 330779, Note_on_c, 10, 71, 87
11, 330844, Note_off_c, 10, 71, 64
11, 330894, Note_on_c, 10, 71, 98
11, 331033, Note_off_c, 10, 71, 64
11, 331152, Note_on_c, 10, 62, 60
11, 331215, Note_off_c, 10, 62, 64
11, 331283, Note_on_c, 10, 62, 72
11, 331425, Note_off_c, 10, 62, 64
11, 331512, Note_on_c, 10, 62, 58
11, 331584, Note_off_c, 10, 62, 64
11, 331652, Note_on_c, 10, 62, 59
11, 331791, Note_off_c, 10, 62, 64
11, 331870, Note_on_c, 10, 62, 60
11, 331937, Note_off_c, 10, 62, 64
11, 332005, Note_on_c, 10, 62, 64
11, 332144, Note_off_c, 10, 62, 64
11, 332221, Note_on_c, 10, 62, 58
11, 332295, Note_off_c, 10, 62, 64
11, 332363, Note_on_c, 10, 62, 64
11, 332509, Note_off_c, 10, 62, 64
11, 332585, Note_on_c, 10, 62, 60
11, 332657, Note_off_c, 10, 62, 64
11, 332723, Note_on_c, 10, 62, 60
11, 332864, Note_off_c, 10, 62, 64
11, 332948, Note_on_c, 10, 62, 62
11, 333022, Note_off_c, 10, 62, 64
11, 333089, Note_on_c, 10, 62, 76
11, 333233, Note_off_c, 10, 62, 64
11, 353970, Note_on_c, 10, 74, 85
11, 354086, Note_off_c, 10, 74, 64
11, 354321, Note_on_c, 10, 73, 70
11, 354437, Note_off_c, 10, 73, 64
11, 354687, Note_on_c, 10, 74, 91
11, 354791, Note_on_c, 10, 73, 98
11, 354806, Note_off_c, 10, 74, 64
11, 354867, Note_off_c, 10, 73, 64
11, 354908, Note_on_c, 10, 74, 91
11, 354980, Note_off_c, 10, 74, 64
11, 355050, Note_on_c, 10, 74, 102
11, 355157, Note_off_c, 10, 74, 64
11, 355283, Note_on_c, 10, 66, 60
11, 355378, Note_off_c, 10, 66, 64
11, 355416, Note_on_c, 10, 69, 87
11, 355518, Note_off_c, 10, 69, 64
11, 355653, Note_on_c, 10, 74, 76
11, 355720, Note_off_c, 10, 74, 64
11, 355792, Note_on_c, 10, 74, 100
11, 355900, Note_on_c, 10, 76, 68
11, 355911, Note_off_c, 10, 74, 64
11, 355981, Note_off_c, 10, 76, 64
11, 356015, Note_on_c, 10, 74, 72
11, 356069, Note_off_c, 10, 74, 64
11, 356150, Note_on_c, 10, 73, 102
11, 356256, Note_on_c, 10, 74, 72
11, 356285, Note_off_c, 10, 73, 64
11, 356330, Note_off_c, 10, 74, 64
11, 356375, Note_on_c, 10, 71, 76
11, 356426, Note_off_c, 10, 71, 64
11, 356512, Note_on_c, 10, 71, 102
11, 356618, Note_off_c, 10, 71, 64
11, 356627, Note_on_c, 10, 73, 64
11, 356705, Note_off_c, 10, 73, 64
11, 356732, Note_on_c, 10, 69, 85
11, 356807, Note_off_c, 10, 69, 64
11, 356865, Note_on_c, 10, 69, 87
11, 356993, Note_off_c, 10, 69, 64
11, 357086, Note_on_c, 10, 81, 91
11, 357164, Note_off_c, 10, 81, 64
11, 357203, Note_on_c, 10, 76, 82
11, 357322, Note_off_c, 10, 76, 64
11, 357437, Note_on_c, 10, 73, 63
11, 357525, Note_off_c, 10, 73, 64
11, 357565, Note_on_c, 10, 69, 78
11, 357677, Note_off_c, 10, 69, 64
11, 357792, Note_on_c, 10, 69, 72
11, 357862, Note_off_c, 10, 69, 64
11, 357932, Note_on_c, 10, 69, 91
11, 358033, Note_on_c, 10, 71, 82
11, 358053, Note_off_c, 10, 69, 64
11, 358134, Note_off_c, 10, 71, 64
11, 358146, Note_on_c, 10, 73, 68
11, 358224, Note_off_c, 10, 73, 64
11, 358267, Note_on_c, 10, 74, 87
11, 358386, Note_off_c, 10, 74, 64
11, 358483, Note_on_c, 10, 76, 76
11, 358555, Note_off_c, 10, 76, 64
11, 358613, Note_on_c, 10, 73, 95
11, 358708, Note_off_c, 10, 73, 64
11, 358848, Note_on_c, 10, 69, 76
11, 358908, Note_off_c, 10, 69, 64
11, 358982, Note_on_c, 10, 69, 98
11, 359097, Note_on_c, 10, 71, 74
11, 359122, Note_off_c, 10, 69, 64
11, 359205, Note_off_c, 10, 71, 64
11, 359208, Note_on_c, 10, 69, 68
11, 359282, Note_off_c, 10, 69, 64
11, 359349, Note_on_c, 10, 68, 95
11, 359451, Note_on_c, 10, 69, 74
11, 359475, Note_off_c, 10, 68, 64
11, 359532, Note_off_c, 10, 69, 64
11, 359572, Note_on_c, 10, 66, 63
11, 359621, Note_off_c, 10, 66, 64
11, 359696, Note_on_c, 10, 66, 100
11, 359808, Note_on_c, 10, 68, 64
11, 359828, Note_off_c, 10, 66, 64
11, 359882, Note_off_c, 10, 68, 64
11, 359918, Note_on_c, 10, 64, 68
11, 359987, Note_off_c, 10, 64, 64
11, 360065, Note_on_c, 10, 64, 89
11, 360230, Note_off_c, 10, 64, 64
11, 360656, Note_on_c, 10, 76, 78
11, 360746, Note_off_c, 10, 76, 64
11, 360787, Note_on_c, 10, 71, 89
11, 360909, Note_off_c, 10, 71, 64
11, 361017, Note_on_c, 10, 71, 63
11, 361093, Note_off_c, 10, 71, 64
11, 361156, Note_on_c, 10, 69, 85
11, 361343, Note_off_c, 10, 69, 64
11, 361689, Note_on_c, 10, 74, 70
11, 361775, Note_off_c, 10, 74, 64
11, 361826, Note_on_c, 10, 69, 85
11, 361962, Note_off_c, 10, 69, 64
11, 362078, Note_on_c, 10, 69, 68
11, 362148, Note_off_c, 10, 69, 64
11, 362223, Note_on_c, 10, 67, 80
11, 362357, Note_off_c, 10, 67, 64
11, 362591, Note_on_c, 10, 73, 78
11, 362699, Note_off_c, 10, 73, 64
11, 362958, Note_on_c, 10, 75, 74
11, 363082, Note_off_c, 10, 75, 64
11, 363336, Note_on_c, 10, 76, 82
11, 363453, Note_off_c, 10, 76, 64
11, 363573, Note_on_c, 10, 76, 85
11, 363640, Note_off_c, 10, 76, 64
11, 363699, Note_on_c, 10, 76, 102
11, 363820, Note_on_c, 10, 78, 74
11, 363827, Note_off_c, 10, 76, 64
11, 363890, Note_off_c, 10, 78, 64
11, 363926, Note_on_c, 10, 74, 80
11, 363978, Note_off_c, 10, 74, 64
11, 364059, Note_on_c, 10, 74, 107
11, 364166, Note_on_c, 10, 76, 68
11, 364175, Note_off_c, 10, 74, 64
11, 364223, Note_off_c, 10, 76, 64
11, 364283, Note_on_c, 10, 73, 70
11, 364342, Note_off_c, 10, 73, 64
11, 364427, Note_on_c, 10, 73, 102
11, 364536, Note_on_c, 10, 69, 68
11, 364576, Note_off_c, 10, 73, 64
11, 364646, Note_on_c, 10, 71, 82
11, 364659, Note_off_c, 10, 69, 64
11, 364729, Note_off_c, 10, 71, 64
11, 364769, Note_on_c, 10, 73, 98
11, 364871, Note_on_c, 10, 74, 82
11, 364891, Note_off_c, 10, 73, 64
11, 364983, Note_off_c, 10, 74, 64
11, 364985, Note_on_c, 10, 76, 85
11, 365037, Note_off_c, 10, 76, 64
11, 365121, Note_on_c, 10, 69, 95
11, 365228, Note_off_c, 10, 69, 64
11, 365339, Note_on_c, 10, 73, 66
11, 365394, Note_off_c, 10, 73, 64
11, 365476, Note_on_c, 10, 62, 91
11, 365588, Note_on_c, 10, 66, 66
11, 365615, Note_off_c, 10, 62, 64
11, 365700, Note_off_c, 10, 66, 64
11, 365708, Note_on_c, 10, 69, 80
11, 365771, Note_off_c, 10, 69, 64
11, 365853, Note_on_c, 10, 74, 102
11, 365958, Note_on_c, 10, 76, 80
11, 365964, Note_off_c, 10, 74, 64
11, 366039, Note_off_c, 10, 76, 64
11, 366068, Note_on_c, 10, 72, 68
11, 366120, Note_off_c, 10, 72, 64
11, 366198, Note_on_c, 10, 72, 98
11, 366309, Note_on_c, 10, 74, 78
11, 366317, Note_off_c, 10, 72, 64
11, 366405, Note_off_c, 10, 74, 64
11, 366434, Note_on_c, 10, 71, 74
11, 366509, Note_off_c, 10, 71, 64
11, 366570, Note_on_c, 10, 71, 89
11, 366673, Note_on_c, 10, 67, 82
11, 366707, Note_off_c, 10, 71, 64
11, 366783, Note_on_c, 10, 71, 66
11, 366801, Note_off_c, 10, 67, 64
11, 366835, Note_off_c, 10, 71, 64
11, 366929, Note_on_c, 10, 76, 89
11, 367029, Note_on_c, 10, 78, 76
11, 367049, Note_off_c, 10, 76, 64
11, 367121, Note_off_c, 10, 78, 64
11, 367141, Note_on_c, 10, 74, 66
11, 367193, Note_off_c, 10, 74, 64
11, 367272, Note_on_c, 10, 74, 100
11, 367379, Note_on_c, 10, 76, 68
11, 367398, Note_off_c, 10, 74, 64
11, 367481, Note_off_c, 10, 76, 64
11, 367499, Note_on_c, 10, 73, 78
11, 367568, Note_off_c, 10, 73, 64
11, 367622, Note_on_c, 10, 73, 85
11, 367739, Note_on_c, 10, 74, 68
11, 367751, Note_off_c, 10, 73, 64
11, 367845, Note_off_c, 10, 74, 64
11, 367859, Note_on_c, 10, 76, 78
11, 367929, Note_off_c, 10, 76, 64
11, 367993, Note_on_c, 10, 78, 105
11, 368102, Note_on_c, 10, 79, 76
11, 368131, Note_off_c, 10, 78, 64
11, 368185, Note_off_c, 10, 79, 64
11, 368223, Note_on_c, 10, 76, 66
11, 368273, Note_off_c, 10, 76, 64
11, 368347, Note_on_c, 10, 76, 93
11, 368451, Note_on_c, 10, 78, 68
11, 368464, Note_off_c, 10, 76, 64
11, 368532, Note_off_c, 10, 78, 64
11, 368574, Note_on_c, 10, 74, 74
11, 368639, Note_off_c, 10, 74, 64
11, 368723, Note_on_c, 10, 74, 100
11, 368887, Note_off_c, 10, 74, 64
11, 369317, Note_on_c, 10, 73, 53
11, 369382, Note_off_c, 10, 73, 64
11, 369459, Note_on_c, 10, 73, 85
11, 369580, Note_off_c, 10, 73, 64
11, 369684, Note_on_c, 10, 75, 64
11, 369778, Note_off_c, 10, 75, 64
11, 369812, Note_on_c, 10, 76, 82
11, 369929, Note_off_c, 10, 76, 64
11, 370048, Note_on_c, 10, 76, 70
11, 370115, Note_off_c, 10, 76, 64
11, 370172, Note_on_c, 10, 76, 87
11, 370286, Note_off_c, 10, 76, 64
11, 370406, Note_on_c, 10, 76, 74
11, 370475, Note_off_c, 10, 76, 64
11, 370543, Note_on_c, 10, 76, 85
11, 370655, Note_off_c, 10, 76, 64
11, 370773, Note_on_c, 10, 76, 80
11, 370833, Note_off_c, 10, 76, 64
11, 370908, Note_on_c, 10, 76, 98
11, 371011, Note_on_c, 10, 73, 63
11, 371034, Note_off_c, 10, 76, 64
11, 371083, Note_off_c, 10, 73, 64
11, 371132, Note_on_c, 10, 74, 72
11, 371186, Note_off_c, 10, 74, 64
11, 371267, Note_on_c, 10, 76, 95
11, 371375, Note_off_c, 10, 76, 64
11, 371378, Note_on_c, 10, 73, 66
11, 371450, Note_off_c, 10, 73, 64
11, 371493, Note_on_c, 10, 74, 78
11, 371547, Note_off_c, 10, 74, 64
11, 371625, Note_on_c, 10, 76, 93
11, 371736, Note_on_c, 10, 74, 64
11, 371756, Note_off_c, 10, 76, 64
11, 371825, Note_off_c, 10, 74, 64
11, 371852, Note_on_c, 10, 73, 61
11, 371902, Note_off_c, 10, 73, 64
11, 371974, Note_on_c, 10, 74, 100
11, 372105, Note_off_c, 10, 74, 64
11, 372206, Note_on_c, 10, 73, 66
11, 372276, Note_off_c, 10, 73, 64
11, 372327, Note_on_c, 10, 74, 85
11, 372462, Note_off_c, 10, 74, 64
11, 372546, Note_on_c, 10, 71, 70
11, 372618, Note_off_c, 10, 71, 64
11, 372673, Note_on_c, 10, 69, 82
11, 372798, Note_off_c, 10, 69, 64
11, 372921, Note_on_c, 10, 69, 59
11, 372993, Note_off_c, 10, 69, 64
11, 373056, Note_on_c, 10, 69, 85
11, 373198, Note_off_c, 10, 69, 64
11, 373421, Note_on_c, 10, 74, 91
11, 373542, Note_off_c, 10, 74, 64
11, 373778, Note_on_c, 10, 76, 87
11, 373918, Note_off_c, 10, 76, 64
11, 374148, Note_on_c, 10, 78, 93
11, 374278, Note_off_c, 10, 78, 64
11, 374514, Note_on_c, 10, 74, 95
11, 374636, Note_off_c, 10, 74, 64
11, 374870, Note_on_c, 10, 76, 91
11, 375007, Note_off_c, 10, 76, 64
11, 375007, End_track
12, 0, Start_track
12, 0, Title_t, "Viola"
12, 0, Program_c, 11, 41
12, 0, Control_c, 11, 7, 100
12, 1621, Note_on_c, 11, 69, 91
12, 1660, Note_off_c, 11, 69, 64
12, 1676, Note_on_c, 11, 69, 91
12, 1740, Note_off_c, 11, 69, 64
12, 1860, Note_on_c, 11, 66, 80
12, 1899, Note_off_c, 11, 66, 64
12, 1915, Note_on_c, 11, 62, 80
12, 2421, Note_off_c, 11, 62, 64
12, 2570, Note_on_c, 11, 67, 89
12, 2609, Note_off_c, 11, 67, 64
12, 2626, Note_on_c, 11, 67, 87
12, 2697, Note_off_c, 11, 67, 64
12, 2802, Note_on_c, 11, 62, 80
12, 2837, Note_off_c, 11, 62, 64
12, 2864, Note_on_c, 11, 62, 82
12, 3372, Note_off_c, 11, 62, 64
12, 3516, Note_on_c, 11, 74, 91
12, 3560, Note_off_c, 11, 74, 64
12, 3577, Note_on_c, 11, 69, 82
12, 3658, Note_off_c, 11, 69, 64
12, 3764, Note_on_c, 11, 69, 70
12, 3804, Note_off_c, 11, 69, 64
12, 3827, Note_on_c, 11, 71, 82
12, 4143, Note_off_c, 11, 71, 64
12, 4265, Note_on_c, 11, 71, 85
12, 4319, Note_off_c, 11, 71, 64
12, 4330, Note_on_c, 11, 69, 85
12, 4412, Note_off_c, 11, 69, 64
12, 4557, Note_on_c, 11, 64, 87
12, 4636, Note_off_c, 11, 64, 64
12, 4793, Note_on_c, 11, 62, 91
12, 4877, Note_off_c, 11, 62, 64
12, 4973, Note_on_c, 11, 66, 82
12, 5010, Note_off_c, 11, 66, 64
12, 5024, Note_on_c, 11, 66, 80
12, 5104, Note_off_c, 11, 66, 64
12, 5209, Note_on_c, 11, 62, 74
12, 5254, Note_off_c, 11, 62, 64
12, 5269, Note_on_c, 11, 57, 74
12, 5775, Note_off_c, 11, 57, 64
12, 5914, Note_on_c, 11, 66, 87
12, 5955, Note_off_c, 11, 66, 64
12, 5968, Note_on_c, 11, 66, 85
12, 6056, Note_off_c, 11, 66, 64
12, 6179, Note_on_c, 11, 63, 64
12, 6225, Note_off_c, 11, 63, 64
12, 6236, Note_on_c, 11, 59, 87
12, 6322, Note_off_c, 11, 59, 64
12, 6413, Note_on_c, 11, 61, 82
12, 6462, Note_off_c, 11, 61, 64
12, 6473, Note_on_c, 11, 63, 91
12, 6526, Note_off_c, 11, 63, 64
12, 6656, Note_on_c, 11, 59, 76
12, 6705, Note_off_c, 11, 59, 64
12, 6720, Note_on_c, 11, 71, 87
12, 7227, Note_off_c, 11, 71, 64
12, 7378, Note_on_c, 11, 64, 80
12, 7420, Note_off_c, 11, 64, 64
12, 7439, Note_on_c, 11, 62, 87
12, 7505, Note_off_c, 11, 62, 64
12, 7617, Note_on_c, 11, 62, 82
12, 7650, Note_off_c, 11, 62, 64
12, 7675, Note_on_c, 11, 62, 91
12, 7995, Note_off_c, 11, 62, 64
12, 8095, Note_on_c, 11, 64, 80
12, 8138, Note_off_c, 11, 64, 64
12, 8155, Note_on_c, 11, 62, 98
12, 8240, Note_off_c, 11, 62, 64
12, 8331, Note_on_c, 11, 64, 80
12, 8369, Note_off_c, 11, 64, 64
12, 8388, Note_on_c, 11, 62, 87
12, 8454, Note_off_c, 11, 62, 64
12, 8567, Note_on_c, 11, 59, 82
12, 8611, Note_off_c, 11, 59, 64
12, 8631, Note_on_c, 11, 57, 85
12, 8726, Note_off_c, 11, 57, 64
12, 8811, Note_on_c, 11, 69, 85
12, 8856, Note_off_c, 11, 69, 64
12, 8870, Note_on_c, 11, 69, 78
12, 8943, Note_off_c, 11, 69, 64
12, 9048, Note_on_c, 11, 64, 80
12, 9083, Note_off_c, 11, 64, 64
12, 9111, Note_on_c, 11, 61, 76
12, 9604, Note_off_c, 11, 61, 64
12, 9776, Note_on_c, 11, 69, 85
12, 9816, Note_off_c, 11, 69, 64
12, 9831, Note_on_c, 11, 69, 87
12, 9916, Note_off_c, 11, 69, 64
12, 10006, Note_on_c, 11, 64, 85
12, 10048, Note_off_c, 11, 64, 64
12, 10068, Note_on_c, 11, 66, 82
12, 10576, Note_off_c, 11, 66, 64
12, 10718, Note_on_c, 11, 69, 85
12, 10760, Note_off_c, 11, 69, 64
12, 10778, Note_on_c, 11, 69, 91
12, 10867, Note_off_c, 11, 69, 64
12, 10952, Note_on_c, 11, 62, 87
12, 10996, Note_off_c, 11, 62, 64
12, 11017, Note_on_c, 11, 64, 80
12, 11309, Note_off_c, 11, 64, 64
12, 11435, Note_on_c, 11, 66, 82
12, 11467, Note_off_c, 11, 66, 64
12, 11494, Note_on_c, 11, 66, 85
12, 11836, Note_off_c, 11, 66, 64
12, 11939, Note_on_c, 11, 66, 82
12, 11982, Note_off_c, 11, 66, 64
12, 11997, Note_on_c, 11, 64, 80
12, 12116, Note_off_c, 11, 64, 64
12, 12241, Note_on_c, 11, 59, 93
12, 12339, Note_off_c, 11, 59, 64
12, 12478, Note_on_c, 11, 57, 82
12, 12968, Note_off_c, 11, 57, 64
12, 13126, Note_on_c, 11, 69, 85
12, 13164, Note_off_c, 11, 69, 64
12, 13184, Note_on_c, 11, 69, 89
12, 13266, Note_off_c, 11, 69, 64
12, 13365, Note_on_c, 11, 71, 80
12, 13402, Note_off_c, 11, 71, 64
12, 13432, Note_on_c, 11, 71, 87
12, 13733, Note_off_c, 11, 71, 64
12, 13828, Note_on_c, 11, 74, 91
12, 13875, Note_off_c, 11, 74, 64
12, 13889, Note_on_c, 11, 68, 80
12, 14005, Note_off_c, 11, 68, 64
12, 14143, Note_on_c, 11, 73, 89
12, 14241, Note_off_c, 11, 73, 64
12, 14392, Note_on_c, 11, 73, 89
12, 14479, Note_off_c, 11, 73, 64
12, 14566, Note_on_c, 11, 66, 80
12, 14607, Note_off_c, 11, 66, 64
12, 14626, Note_on_c, 11, 66, 87
12, 14700, Note_off_c, 11, 66, 64
12, 14803, Note_on_c, 11, 61, 80
12, 14847, Note_off_c, 11, 61, 64
12, 14868, Note_on_c, 11, 66, 80
12, 15371, Note_off_c, 11, 66, 64
12, 15508, Note_on_c, 11, 64, 93
12, 15552, Note_off_c, 11, 64, 64
12, 15574, Note_on_c, 11, 61, 82
12, 15664, Note_off_c, 11, 61, 64
12, 15769, Note_on_c, 11, 59, 87
12, 15811, Note_off_c, 11, 59, 64
12, 15831, Note_on_c, 11, 57, 82
12, 15918, Note_off_c, 11, 57, 64
12, 16007, Note_on_c, 11, 62, 85
12, 16047, Note_off_c, 11, 62, 64
12, 16070, Note_on_c, 11, 62, 80
12, 16160, Note_off_c, 11, 62, 64
12, 16252, Note_on_c, 11, 64, 76
12, 16289, Note_off_c, 11, 64, 64
12, 16318, Note_on_c, 11, 64, 91
12, 16810, Note_off_c, 11, 64, 64
12, 16971, Note_on_c, 11, 76, 85
12, 17013, Note_off_c, 11, 76, 64
12, 17033, Note_on_c, 11, 71, 89
12, 17114, Note_off_c, 11, 71, 64
12, 17203, Note_on_c, 11, 68, 60
12, 17248, Note_off_c, 11, 68, 64
12, 17273, Note_on_c, 11, 64, 85
12, 17770, Note_off_c, 11, 64, 64
12, 17924, Note_on_c, 11, 73, 80
12, 17976, Note_off_c, 11, 73, 64
12, 17990, Note_on_c, 11, 76, 89
12, 18062, Note_off_c, 11, 76, 64
12, 18186, Note_on_c, 11, 69, 82
12, 18224, Note_off_c, 11, 69, 64
12, 18247, Note_on_c, 11, 68, 80
12, 18750, Note_off_c, 11, 68, 64
12, 18889, Note_on_c, 11, 74, 85
12, 18944, Note_off_c, 11, 74, 64
12, 18956, Note_on_c, 11, 68, 87
12, 19030, Note_off_c, 11, 68, 64
12, 19138, Note_on_c, 11, 71, 76
12, 19177, Note_off_c, 11, 71, 64
12, 19206, Note_on_c, 11, 69, 87
12, 19465, Note_off_c, 11, 69, 64
12, 19630, Note_on_c, 11, 69, 80
12, 19672, Note_off_c, 11, 69, 64
12, 19691, Note_on_c, 11, 66, 85
12, 19946, Note_off_c, 11, 66, 64
12, 20101, Note_on_c, 11, 68, 76
12, 20137, Note_off_c, 11, 68, 64
12, 20160, Note_on_c, 11, 64, 80
12, 20637, Note_off_c, 11, 64, 64
12, 20817, Note_on_c, 11, 57, 74
12, 20864, Note_off_c, 11, 57, 64
12, 20879, Note_on_c, 11, 64, 89
12, 20954, Note_off_c, 11, 64, 64
12, 21056, Note_on_c, 11, 69, 80
12, 21098, Note_off_c, 11, 69, 64
12, 21116, Note_on_c, 11, 69, 85
12, 21208, Note_off_c, 11, 69, 64
12, 21290, Note_on_c, 11, 67, 78
12, 21332, Note_off_c, 11, 67, 64
12, 21351, Note_on_c, 11, 66, 87
12, 21421, Note_off_c, 11, 66, 64
12, 21523, Note_on_c, 11, 62, 78
12, 21572, Note_off_c, 11, 62, 64
12, 21586, Note_on_c, 11, 61, 89
12, 21672, Note_off_c, 11, 61, 64
12, 21763, Note_on_c, 11, 61, 78
12, 21812, Note_off_c, 11, 61, 64
12, 21827, Note_on_c, 11, 66, 85
12, 21908, Note_off_c, 11, 66, 64
12, 22004, Note_on_c, 11, 62, 80
12, 22047, Note_off_c, 11, 62, 64
12, 22070, Note_on_c, 11, 64, 87
12, 22170, Note_off_c, 11, 64, 64
12, 22254, Note_on_c, 11, 64, 82
12, 22290, Note_off_c, 11, 64, 64
12, 22305, Note_on_c, 11, 64, 85
12, 22397, Note_off_c, 11, 64, 64
12, 22474, Note_on_c, 11, 66, 80
12, 22514, Note_off_c, 11, 66, 64
12, 22546, Note_on_c, 11, 66, 87
12, 22617, Note_on_c, 11, 64, 62
12, 22624, Note_off_c, 11, 66, 64
12, 22646, Note_off_c, 11, 64, 64
12, 22646, Note_on_c, 11, 66, 66
12, 22675, Note_off_c, 11, 66, 64
12, 22676, Note_on_c, 11, 64, 61
12, 22699, Note_on_c, 11, 66, 85
12, 22703, Note_off_c, 11, 64, 64
12, 22722, Note_on_c, 11, 64, 72
12, 22724, Note_off_c, 11, 66, 64
12, 22749, Note_on_c, 11, 66, 85
12, 22758, Note_off_c, 11, 64, 64
12, 22767, Note_on_c, 11, 64, 51
12, 22771, Note_off_c, 11, 66, 64
12, 22791, Note_on_c, 11, 62, 87
12, 22793, Note_off_c, 11, 64, 64
12, 22940, Note_off_c, 11, 62, 64
12, 23025, Note_on_c, 11, 61, 82
12, 23770, Note_off_c, 11, 61, 64
12, 47360, Note_on_c, 11, 69, 74
12, 47418, Note_off_c, 11, 69, 64
12, 47490, Note_on_c, 11, 69, 87
12, 47596, Note_on_c, 11, 71, 66
12, 47625, Note_off_c, 11, 69, 64
12, 47672, Note_off_c, 11, 71, 64
12, 47715, Note_on_c, 11, 67, 60
12, 47763, Note_off_c, 11, 67, 64
12, 47852, Note_on_c, 11, 67, 93
12, 47947, Note_on_c, 11, 69, 66
12, 47965, Note_off_c, 11, 67, 64
12, 48028, Note_off_c, 11, 69, 64
12, 48062, Note_on_c, 11, 66, 80
12, 48109, Note_off_c, 11, 66, 64
12, 48213, Note_on_c, 11, 66, 91
12, 48311, Note_on_c, 11, 67, 82
12, 48332, Note_off_c, 11, 66, 64
12, 48420, Note_off_c, 11, 67, 64
12, 48440, Note_on_c, 11, 69, 82
12, 48483, Note_off_c, 11, 69, 64
12, 48565, Note_on_c, 11, 71, 100
12, 48667, Note_on_c, 11, 73, 66
12, 48687, Note_off_c, 11, 71, 64
12, 48746, Note_off_c, 11, 73, 64
12, 48783, Note_on_c, 11, 69, 60
12, 48829, Note_off_c, 11, 69, 64
12, 48908, Note_on_c, 11, 69, 87
12, 49004, Note_on_c, 11, 71, 62
12, 49018, Note_off_c, 11, 69, 64
12, 49090, Note_off_c, 11, 71, 64
12, 49135, Note_on_c, 11, 68, 53
12, 49184, Note_off_c, 11, 68, 64
12, 49275, Note_on_c, 11, 68, 58
12, 49378, Note_off_c, 11, 68, 64
12, 49506, Note_on_c, 11, 68, 53
12, 49560, Note_off_c, 11, 68, 64
12, 49620, Note_on_c, 11, 68, 59
12, 49754, Note_off_c, 11, 68, 64
12, 49868, Note_on_c, 11, 68, 52
12, 49926, Note_off_c, 11, 68, 64
12, 49993, Note_on_c, 11, 68, 66
12, 50123, Note_off_c, 11, 68, 64
12, 50208, Note_on_c, 11, 68, 60
12, 50258, Note_off_c, 11, 68, 64
12, 50355, Note_on_c, 11, 69, 85
12, 50458, Note_on_c, 11, 73, 70
12, 50462, Note_off_c, 11, 69, 64
12, 50541, Note_off_c, 11, 73, 64
12, 50573, Note_on_c, 11, 71, 78
12, 50643, Note_off_c, 11, 71, 64
12, 50697, Note_on_c, 11, 73, 85
12, 50847, Note_off_c, 11, 73, 64
12, 50935, Note_on_c, 11, 71, 68
12, 51008, Note_off_c, 11, 71, 64
12, 51054, Note_on_c, 11, 73, 78
12, 51149, Note_off_c, 11, 73, 64
12, 51266, Note_on_c, 11, 69, 78
12, 51313, Note_off_c, 11, 69, 64
12, 51417, Note_on_c, 11, 62, 70
12, 51525, Note_off_c, 11, 62, 64
12, 51529, Note_on_c, 11, 64, 78
12, 51610, Note_off_c, 11, 64, 64
12, 51648, Note_on_c, 11, 66, 70
12, 51711, Note_off_c, 11, 66, 64
12, 51781, Note_on_c, 11, 66, 95
12, 51912, Note_off_c, 11, 66, 64
12, 52037, Note_on_c, 11, 69, 68
12, 52112, Note_off_c, 11, 69, 64
12, 52159, Note_on_c, 11, 66, 82
12, 52272, Note_off_c, 11, 66, 64
12, 52404, Note_on_c, 11, 62, 68
12, 52463, Note_off_c, 11, 62, 64
12, 52528, Note_on_c, 11, 67, 87
12, 52665, Note_off_c, 11, 67, 64
12, 52773, Note_on_c, 11, 71, 70
12, 52843, Note_off_c, 11, 71, 64
12, 52902, Note_on_c, 11, 67, 100
12, 53009, Note_on_c, 11, 69, 82
12, 53036, Note_off_c, 11, 67, 64
12, 53118, Note_off_c, 11, 69, 64
12, 53127, Note_on_c, 11, 71, 68
12, 53196, Note_off_c, 11, 71, 64
12, 53262, Note_on_c, 11, 64, 80
12, 53374, Note_off_c, 11, 64, 64
12, 53502, Note_on_c, 11, 64, 70
12, 53561, Note_off_c, 11, 64, 64
12, 53641, Note_on_c, 11, 64, 85
12, 53907, Note_off_c, 11, 64, 64
12, 54222, Note_on_c, 11, 69, 80
12, 54294, Note_off_c, 11, 69, 64
12, 54339, Note_on_c, 11, 64, 85
12, 54468, Note_off_c, 11, 64, 64
12, 54562, Note_on_c, 11, 69, 68
12, 54631, Note_off_c, 11, 69, 64
12, 54702, Note_on_c, 11, 62, 91
12, 54810, Note_on_c, 11, 66, 66
12, 54819, Note_off_c, 11, 62, 64
12, 54899, Note_off_c, 11, 66, 64
12, 54926, Note_on_c, 11, 67, 74
12, 54974, Note_off_c, 11, 67, 64
12, 55058, Note_on_c, 11, 69, 93
12, 55185, Note_off_c, 11, 69, 64
12, 55286, Note_on_c, 11, 73, 66
12, 55365, Note_off_c, 11, 73, 64
12, 55414, Note_on_c, 11, 64, 82
12, 55547, Note_off_c, 11, 64, 64
12, 55628, Note_on_c, 11, 66, 74
12, 55683, Note_off_c, 11, 66, 64
12, 55748, Note_on_c, 11, 66, 89
12, 55907, Note_off_c, 11, 66, 64
12, 55988, Note_on_c, 11, 66, 70
12, 56061, Note_off_c, 11, 66, 64
12, 56119, Note_on_c, 11, 62, 82
12, 56232, Note_on_c, 11, 64, 72
12, 56267, Note_off_c, 11, 62, 64
12, 56335, Note_off_c, 11, 64, 64
12, 56340, Note_on_c, 11, 66, 78
12, 56402, Note_off_c, 11, 66, 64
12, 56466, Note_on_c, 11, 59, 87
12, 56585, Note_off_c, 11, 59, 64
12, 56710, Note_on_c, 11, 71, 61
12, 56760, Note_off_c, 11, 71, 64
12, 56846, Note_on_c, 11, 71, 98
12, 57057, Note_off_c, 11, 71, 64
12, 57417, Note_on_c, 11, 64, 58
12, 57474, Note_off_c, 11, 64, 64
12, 57539, Note_on_c, 11, 64, 70
12, 57671, Note_off_c, 11, 64, 64
12, 57775, Note_on_c, 11, 64, 78
12, 57829, Note_off_c, 11, 64, 64
12, 57905, Note_on_c, 11, 64, 95
12, 58112, Note_off_c, 11, 64, 64
12, 58477, Note_on_c, 11, 62, 64
12, 58533, Note_off_c, 11, 62, 64
12, 58599, Note_on_c, 11, 62, 82
12, 58740, Note_off_c, 11, 62, 64
12, 58851, Note_on_c, 11, 62, 74
12, 58911, Note_off_c, 11, 62, 64
12, 58972, Note_on_c, 11, 62, 89
12, 59130, Note_off_c, 11, 62, 64
12, 59343, Note_on_c, 11, 64, 78
12, 59483, Note_off_c, 11, 64, 64
12, 59717, Note_on_c, 11, 66, 82
12, 59854, Note_off_c, 11, 66, 64
12, 60104, Note_on_c, 11, 59, 85
12, 60234, Note_off_c, 11, 59, 64
12, 60475, Note_on_c, 11, 71, 89
12, 60603, Note_off_c, 11, 71, 64
12, 60835, Note_on_c, 11, 68, 68
12, 60954, Note_off_c, 11, 68, 64
12, 61184, Note_on_c, 11, 64, 85
12, 61298, Note_off_c, 11, 64, 64
12, 61539, Note_on_c, 11, 64, 78
12, 61658, Note_off_c, 11, 64, 64
12, 61902, Note_on_c, 11, 64, 80
12, 62021, Note_off_c, 11, 64, 64
12, 62268, Note_on_c, 11, 62, 89
12, 62412, Note_off_c, 11, 62, 64
12, 62626, Note_on_c, 11, 69, 89
12, 62756, Note_off_c, 11, 69, 64
12, 62979, Note_on_c, 11, 66, 78
12, 63119, Note_off_c, 11, 66, 64
12, 63330, Note_on_c, 11, 62, 85
12, 63485, Note_off_c, 11, 62, 64
12, 63922, Note_on_c, 11, 67, 76
12, 63994, Note_off_c, 11, 67, 64
12, 64047, Note_on_c, 11, 69, 87
12, 64167, Note_off_c, 11, 69, 64
12, 64286, Note_on_c, 11, 64, 74
12, 64350, Note_off_c, 11, 64, 64
12, 64421, Note_on_c, 11, 69, 89
12, 64590, Note_off_c, 11, 69, 64
12, 64962, Note_on_c, 11, 69, 68
12, 65049, Note_off_c, 11, 69, 64
12, 65087, Note_on_c, 11, 71, 78
12, 65213, Note_off_c, 11, 71, 64
12, 65344, Note_on_c, 11, 66, 70
12, 65418, Note_off_c, 11, 66, 64
12, 65484, Note_on_c, 11, 71, 89
12, 65636, Note_off_c, 11, 71, 64
12, 66060, Note_on_c, 11, 64, 66
12, 66131, Note_off_c, 11, 64, 64
12, 66195, Note_on_c, 11, 66, 82
12, 66329, Note_off_c, 11, 66, 64
12, 66433, Note_on_c, 11, 66, 78
12, 66501, Note_off_c, 11, 66, 64
12, 66574, Note_on_c, 11, 59, 85
12, 66698, Note_off_c, 11, 59, 64
12, 66802, Note_on_c, 11, 71, 61
12, 66854, Note_off_c, 11, 71, 64
12, 66921, Note_on_c, 11, 71, 64
12, 67056, Note_off_c, 11, 71, 64
12, 67160, Note_on_c, 11, 71, 66
12, 67220, Note_off_c, 11, 71, 64
12, 67281, Note_on_c, 11, 71, 85
12, 67416, Note_off_c, 11, 71, 64
12, 67524, Note_on_c, 11, 71, 74
12, 67589, Note_off_c, 11, 71, 64
12, 67650, Note_on_c, 11, 69, 85
12, 67778, Note_off_c, 11, 69, 64
12, 67889, Note_on_c, 11, 69, 76
12, 67950, Note_off_c, 11, 69, 64
12, 68018, Note_on_c, 11, 69, 78
12, 68166, Note_off_c, 11, 69, 64
12, 68249, Note_on_c, 11, 69, 68
12, 68314, Note_off_c, 11, 69, 64
12, 68372, Note_on_c, 11, 69, 82
12, 68505, Note_off_c, 11, 69, 64
12, 68598, Note_on_c, 11, 69, 80
12, 68661, Note_off_c, 11, 69, 64
12, 68723, Note_on_c, 11, 69, 87
12, 68841, Note_off_c, 11, 69, 64
12, 68946, Note_on_c, 11, 69, 80
12, 69009, Note_off_c, 11, 69, 64
12, 69070, Note_on_c, 11, 69, 85
12, 69205, Note_off_c, 11, 69, 64
12, 69306, Note_on_c, 11, 67, 80
12, 69387, Note_off_c, 11, 67, 64
12, 69434, Note_on_c, 11, 64, 82
12, 69565, Note_off_c, 11, 64, 64
12, 69675, Note_on_c, 11, 64, 78
12, 69740, Note_off_c, 11, 64, 64
12, 69813, Note_on_c, 11, 66, 82
12, 69953, Note_off_c, 11, 66, 64
12, 70049, Note_on_c, 11, 69, 74
12, 70107, Note_off_c, 11, 69, 64
12, 70172, Note_on_c, 11, 69, 82
12, 70301, Note_off_c, 11, 69, 64
12, 70418, Note_on_c, 11, 69, 66
12, 70481, Note_off_c, 11, 69, 64
12, 70557, Note_on_c, 11, 69, 89
12, 70724, Note_off_c, 11, 69, 64
12, 71144, Note_on_c, 11, 57, 60
12, 71207, Note_off_c, 11, 57, 64
12, 71264, Note_on_c, 11, 57, 70
12, 71401, Note_off_c, 11, 57, 64
12, 71500, Note_on_c, 11, 57, 66
12, 71567, Note_off_c, 11, 57, 64
12, 71628, Note_on_c, 11, 57, 78
12, 71788, Note_off_c, 11, 57, 64
12, 92721, Note_on_c, 11, 64, 58
12, 92775, Note_off_c, 11, 64, 64
12, 92834, Note_on_c, 11, 64, 62
12, 92976, Note_off_c, 11, 64, 64
12, 93095, Note_on_c, 11, 64, 55
12, 93155, Note_off_c, 11, 64, 64
12, 93218, Note_on_c, 11, 64, 59
12, 93350, Note_off_c, 11, 64, 64
12, 93444, Note_on_c, 11, 64, 54
12, 93509, Note_off_c, 11, 64, 64
12, 93567, Note_on_c, 11, 64, 59
12, 93700, Note_off_c, 11, 64, 64
12, 93790, Note_on_c, 11, 64, 61
12, 93855, Note_off_c, 11, 64, 64
12, 93918, Note_on_c, 11, 64, 60
12, 94051, Note_off_c, 11, 64, 64
12, 94148, Note_on_c, 11, 64, 68
12, 94233, Note_off_c, 11, 64, 64
12, 94280, Note_on_c, 11, 64, 68
12, 94436, Note_off_c, 11, 64, 64
12, 94496, Note_on_c, 11, 64, 68
12, 94566, Note_off_c, 11, 64, 64
12, 94631, Note_on_c, 11, 64, 82
12, 94737, Note_off_c, 11, 64, 64
12, 94742, Note_on_c, 11, 68, 61
12, 94839, Note_off_c, 11, 68, 64
12, 94847, Note_on_c, 11, 66, 63
12, 94913, Note_off_c, 11, 66, 64
12, 94985, Note_on_c, 11, 68, 89
12, 95106, Note_off_c, 11, 68, 64
12, 95205, Note_on_c, 11, 66, 61
12, 95269, Note_off_c, 11, 66, 64
12, 95330, Note_on_c, 11, 68, 85
12, 95444, Note_off_c, 11, 68, 64
12, 95545, Note_on_c, 11, 64, 60
12, 95601, Note_off_c, 11, 64, 64
12, 95691, Note_on_c, 11, 57, 82
12, 95801, Note_on_c, 11, 59, 74
12, 95808, Note_off_c, 11, 57, 64
12, 95918, Note_off_c, 11, 59, 64
12, 95921, Note_on_c, 11, 61, 74
12, 95986, Note_off_c, 11, 61, 64
12, 96050, Note_on_c, 11, 61, 85
12, 96186, Note_off_c, 11, 61, 64
12, 96283, Note_on_c, 11, 64, 68
12, 96337, Note_off_c, 11, 64, 64
12, 96431, Note_on_c, 11, 64, 87
12, 96531, Note_off_c, 11, 64, 64
12, 96647, Note_on_c, 11, 66, 66
12, 96715, Note_off_c, 11, 66, 64
12, 96783, Note_on_c, 11, 66, 80
12, 96909, Note_off_c, 11, 66, 64
12, 97021, Note_on_c, 11, 66, 64
12, 97097, Note_off_c, 11, 66, 64
12, 97156, Note_on_c, 11, 62, 85
12, 97269, Note_on_c, 11, 64, 80
12, 97284, Note_off_c, 11, 62, 64
12, 97368, Note_off_c, 11, 64, 64
12, 97372, Note_on_c, 11, 66, 66
12, 97462, Note_off_c, 11, 66, 64
12, 97520, Note_on_c, 11, 59, 85
12, 97658, Note_off_c, 11, 59, 64
12, 97757, Note_on_c, 11, 59, 72
12, 97832, Note_off_c, 11, 59, 64
12, 97905, Note_on_c, 11, 59, 87
12, 98225, Note_off_c, 11, 59, 64
12, 98465, Note_on_c, 11, 64, 72
12, 98562, Note_off_c, 11, 64, 64
12, 98591, Note_on_c, 11, 71, 85
12, 98718, Note_off_c, 11, 71, 64
12, 98839, Note_on_c, 11, 71, 72
12, 98913, Note_off_c, 11, 71, 64
12, 98979, Note_on_c, 11, 69, 85
12, 99090, Note_on_c, 11, 73, 76
12, 99095, Note_off_c, 11, 69, 64
12, 99183, Note_off_c, 11, 73, 64
12, 99208, Note_on_c, 11, 71, 64
12, 99273, Note_off_c, 11, 71, 64
12, 99338, Note_on_c, 11, 69, 80
12, 99433, Note_on_c, 11, 71, 72
12, 99437, Note_off_c, 11, 69, 64
12, 99521, Note_off_c, 11, 71, 64
12, 99550, Note_on_c, 11, 68, 68
12, 99615, Note_off_c, 11, 68, 64
12, 99683, Note_on_c, 11, 68, 89
12, 99780, Note_on_c, 11, 69, 72
12, 99806, Note_off_c, 11, 68, 64
12, 99863, Note_off_c, 11, 69, 64
12, 99899, Note_on_c, 11, 64, 64
12, 99956, Note_off_c, 11, 64, 64
12, 100025, Note_on_c, 11, 64, 80
12, 100175, Note_off_c, 11, 64, 64
12, 100263, Note_on_c, 11, 61, 68
12, 100340, Note_off_c, 11, 61, 64
12, 100386, Note_on_c, 11, 57, 82
12, 100542, Note_off_c, 11, 57, 64
12, 100592, Note_on_c, 11, 61, 74
12, 100695, Note_off_c, 11, 61, 64
12, 100743, Note_on_c, 11, 64, 82
12, 100862, Note_off_c, 11, 64, 64
12, 100999, Note_on_c, 11, 66, 76
12, 101064, Note_off_c, 11, 66, 64
12, 101132, Note_on_c, 11, 66, 87
12, 101467, Note_off_c, 11, 66, 64
12, 101723, Note_on_c, 11, 71, 70
12, 101804, Note_off_c, 11, 71, 64
12, 101850, Note_on_c, 11, 66, 85
12, 101969, Note_off_c, 11, 66, 64
12, 102081, Note_on_c, 11, 59, 78
12, 102146, Note_off_c, 11, 59, 64
12, 102215, Note_on_c, 11, 64, 87
12, 102547, Note_off_c, 11, 64, 64
12, 102786, Note_on_c, 11, 69, 82
12, 102873, Note_off_c, 11, 69, 64
12, 102920, Note_on_c, 11, 64, 87
12, 103114, Note_off_c, 11, 64, 64
12, 103139, Note_on_c, 11, 57, 82
12, 103195, Note_off_c, 11, 57, 64
12, 103296, Note_on_c, 11, 62, 85
12, 103413, Note_off_c, 11, 62, 64
12, 103505, Note_on_c, 11, 69, 80
12, 103596, Note_off_c, 11, 69, 64
12, 103643, Note_on_c, 11, 74, 89
12, 103776, Note_off_c, 11, 74, 64
12, 103875, Note_on_c, 11, 69, 80
12, 103953, Note_off_c, 11, 69, 64
12, 104001, Note_on_c, 11, 69, 91
12, 104153, Note_off_c, 11, 69, 64
12, 104230, Note_on_c, 11, 71, 80
12, 104313, Note_off_c, 11, 71, 64
12, 104361, Note_on_c, 11, 71, 91
12, 104534, Note_off_c, 11, 71, 64
12, 104754, Note_on_c, 11, 66, 82
12, 104886, Note_off_c, 11, 66, 64
12, 105090, Note_on_c, 11, 63, 68
12, 105213, Note_off_c, 11, 63, 64
12, 105449, Note_on_c, 11, 59, 78
12, 105587, Note_off_c, 11, 59, 64
12, 105816, Note_on_c, 11, 71, 89
12, 105953, Note_off_c, 11, 71, 64
12, 106165, Note_on_c, 11, 68, 70
12, 106284, Note_off_c, 11, 68, 64
12, 106521, Note_on_c, 11, 64, 82
12, 106658, Note_off_c, 11, 64, 64
12, 106878, Note_on_c, 11, 64, 82
12, 107024, Note_off_c, 11, 64, 64
12, 107241, Note_on_c, 11, 61, 82
12, 107362, Note_off_c, 11, 61, 64
12, 107592, Note_on_c, 11, 57, 85
12, 107772, Note_off_c, 11, 57, 64
12, 108145, Note_on_c, 11, 62, 80
12, 108228, Note_off_c, 11, 62, 64
12, 108274, Note_on_c, 11, 64, 85
12, 108386, Note_off_c, 11, 64, 64
12, 108518, Note_on_c, 11, 59, 80
12, 108595, Note_off_c, 11, 59, 64
12, 108658, Note_on_c, 11, 64, 85
12, 108834, Note_off_c, 11, 64, 64
12, 109212, Note_on_c, 11, 64, 70
12, 109310, Note_off_c, 11, 64, 64
12, 109364, Note_on_c, 11, 66, 82
12, 109481, Note_off_c, 11, 66, 64
12, 109607, Note_on_c, 11, 61, 76
12, 109677, Note_off_c, 11, 61, 64
12, 109749, Note_on_c, 11, 66, 95
12, 109898, Note_off_c, 11, 66, 64
12, 110330, Note_on_c, 11, 69, 78
12, 110442, Note_off_c, 11, 69, 64
12, 110465, Note_on_c, 11, 73, 82
12, 110588, Note_off_c, 11, 73, 64
12, 110714, Note_on_c, 11, 66, 66
12, 110795, Note_off_c, 11, 66, 64
12, 110858, Note_on_c, 11, 66, 80
12, 110996, Note_off_c, 11, 66, 64
12, 111086, Note_on_c, 11, 71, 80
12, 111156, Note_off_c, 11, 71, 64
12, 111203, Note_on_c, 11, 71, 87
12, 111345, Note_off_c, 11, 71, 64
12, 111426, Note_on_c, 11, 71, 82
12, 111507, Note_off_c, 11, 71, 64
12, 111560, Note_on_c, 11, 71, 89
12, 111705, Note_off_c, 11, 71, 64
12, 111790, Note_on_c, 11, 71, 85
12, 111860, Note_off_c, 11, 71, 64
12, 111912, Note_on_c, 11, 71, 87
12, 112038, Note_on_c, 11, 68, 80
12, 112062, Note_off_c, 11, 71, 64
12, 112148, Note_on_c, 11, 69, 82
12, 112154, Note_off_c, 11, 68, 64
12, 112236, Note_off_c, 11, 69, 64
12, 112283, Note_on_c, 11, 71, 93
12, 112395, Note_on_c, 11, 73, 85
12, 112422, Note_off_c, 11, 71, 64
12, 112469, Note_off_c, 11, 73, 64
12, 112506, Note_on_c, 11, 69, 87
12, 112570, Note_off_c, 11, 69, 64
12, 112629, Note_on_c, 11, 71, 98
12, 112742, Note_on_c, 11, 69, 66
12, 112775, Note_off_c, 11, 71, 64
12, 112838, Note_off_c, 11, 69, 64
12, 112863, Note_on_c, 11, 68, 62
12, 112935, Note_off_c, 11, 68, 64
12, 112987, Note_on_c, 11, 69, 82
12, 113117, Note_off_c, 11, 69, 64
12, 113221, Note_on_c, 11, 64, 82
12, 113288, Note_off_c, 11, 64, 64
12, 113342, Note_on_c, 11, 64, 91
12, 113451, Note_off_c, 11, 64, 64
12, 113587, Note_on_c, 11, 69, 87
12, 113655, Note_off_c, 11, 69, 64
12, 113703, Note_on_c, 11, 69, 89
12, 113855, Note_off_c, 11, 69, 64
12, 113952, Note_on_c, 11, 64, 85
12, 114026, Note_off_c, 11, 64, 64
12, 114076, Note_on_c, 11, 61, 82
12, 114251, Note_off_c, 11, 61, 64
12, 128370, Note_on_c, 11, 54, 56
12, 128418, Note_off_c, 11, 54, 64
12, 128485, Note_on_c, 11, 54, 64
12, 128631, Note_off_c, 11, 54, 64
12, 128712, Note_on_c, 11, 54, 63
12, 128775, Note_off_c, 11, 54, 64
12, 128843, Note_on_c, 11, 54, 68
12, 128980, Note_off_c, 11, 54, 64
12, 129072, Note_on_c, 11, 54, 63
12, 129149, Note_off_c, 11, 54, 64
12, 129214, Note_on_c, 11, 54, 87
12, 129374, Note_off_c, 11, 54, 64
12, 129580, Note_on_c, 11, 66, 80
12, 129709, Note_off_c, 11, 66, 64
12, 129923, Note_on_c, 11, 66, 78
12, 130058, Note_off_c, 11, 66, 64
12, 130272, Note_on_c, 11, 70, 89
12, 130431, Note_off_c, 11, 70, 64
12, 130523, Note_on_c, 11, 70, 87
12, 130575, Note_off_c, 11, 70, 64
12, 130636, Note_on_c, 11, 70, 102
12, 130749, Note_off_c, 11, 70, 64
12, 130870, Note_on_c, 11, 71, 82
12, 130946, Note_off_c, 11, 71, 64
12, 131003, Note_on_c, 11, 64, 82
12, 131129, Note_off_c, 11, 64, 64
12, 131216, Note_on_c, 11, 66, 76
12, 131279, Note_off_c, 11, 66, 64
12, 131351, Note_on_c, 11, 66, 82
12, 131518, Note_off_c, 11, 66, 64
12, 131723, Note_on_c, 11, 66, 80
12, 131835, Note_off_c, 11, 66, 64
12, 132065, Note_on_c, 11, 66, 80
12, 132189, Note_off_c, 11, 66, 64
12, 132434, Note_on_c, 11, 67, 85
12, 132546, Note_off_c, 11, 67, 64
12, 132549, Note_on_c, 11, 71, 74
12, 132625, Note_off_c, 11, 71, 64
12, 132659, Note_on_c, 11, 69, 82
12, 132724, Note_off_c, 11, 69, 64
12, 132792, Note_on_c, 11, 71, 93
12, 132905, Note_on_c, 11, 72, 64
12, 132918, Note_off_c, 11, 71, 64
12, 132974, Note_off_c, 11, 72, 64
12, 133008, Note_on_c, 11, 69, 66
12, 133066, Note_off_c, 11, 69, 64
12, 133140, Note_on_c, 11, 69, 91
12, 133242, Note_on_c, 11, 71, 64
12, 133264, Note_off_c, 11, 69, 64
12, 133316, Note_off_c, 11, 71, 64
12, 133359, Note_on_c, 11, 67, 72
12, 133433, Note_off_c, 11, 67, 64
12, 133512, Note_on_c, 11, 67, 95
12, 133649, Note_off_c, 11, 67, 64
12, 133737, Note_on_c, 11, 71, 76
12, 133813, Note_off_c, 11, 71, 64
12, 133858, Note_on_c, 11, 73, 82
12, 133971, Note_off_c, 11, 73, 64
12, 134103, Note_on_c, 11, 67, 68
12, 134166, Note_off_c, 11, 67, 64
12, 134238, Note_on_c, 11, 67, 78
12, 134373, Note_off_c, 11, 67, 64
12, 134480, Note_on_c, 11, 67, 80
12, 134542, Note_off_c, 11, 67, 64
12, 134616, Note_on_c, 11, 66, 89
12, 134738, Note_off_c, 11, 66, 64
12, 134744, Note_on_c, 11, 68, 59
12, 134837, Note_off_c, 11, 68, 64
12, 134853, Note_on_c, 11, 70, 78
12, 134906, Note_off_c, 11, 70, 64
12, 134978, Note_on_c, 11, 70, 100
12, 135080, Note_off_c, 11, 70, 64
12, 135199, Note_on_c, 11, 64, 80
12, 135271, Note_off_c, 11, 64, 64
12, 135325, Note_on_c, 11, 66, 91
12, 135420, Note_off_c, 11, 66, 64
12, 135537, Note_on_c, 11, 61, 72
12, 135620, Note_off_c, 11, 61, 64
12, 135674, Note_on_c, 11, 62, 82
12, 135789, Note_off_c, 11, 62, 64
12, 135915, Note_on_c, 11, 66, 70
12, 135982, Note_off_c, 11, 66, 64
12, 136040, Note_on_c, 11, 64, 85
12, 136173, Note_off_c, 11, 64, 64
12, 136283, Note_on_c, 11, 64, 66
12, 136320, Note_off_c, 11, 64, 64
12, 136441, Note_on_c, 11, 61, 102
12, 136536, Note_on_c, 11, 59, 80
12, 136545, Note_off_c, 11, 61, 64
12, 136619, Note_off_c, 11, 59, 64
12, 136652, Note_on_c, 11, 61, 66
12, 136724, Note_off_c, 11, 61, 64
12, 136779, Note_on_c, 11, 59, 93
12, 136884, Note_on_c, 11, 61, 70
12, 136891, Note_off_c, 11, 59, 64
12, 136968, Note_off_c, 11, 61, 64
12, 137000, Note_on_c, 11, 62, 76
12, 137062, Note_off_c, 11, 62, 64
12, 137134, Note_on_c, 11, 62, 100
12, 137238, Note_on_c, 11, 64, 64
12, 137258, Note_off_c, 11, 62, 64
12, 137316, Note_off_c, 11, 64, 64
12, 137352, Note_on_c, 11, 61, 76
12, 137405, Note_off_c, 11, 61, 64
12, 137476, Note_on_c, 11, 61, 87
12, 137577, Note_on_c, 11, 62, 68
12, 137600, Note_off_c, 11, 61, 64
12, 137661, Note_off_c, 11, 62, 64
12, 137697, Note_on_c, 11, 59, 63
12, 137757, Note_off_c, 11, 59, 64
12, 137846, Note_on_c, 11, 59, 82
12, 137953, Note_on_c, 11, 61, 66
12, 137960, Note_off_c, 11, 59, 64
12, 138036, Note_off_c, 11, 61, 64
12, 138075, Note_on_c, 11, 62, 76
12, 138124, Note_off_c, 11, 62, 64
12, 138214, Note_on_c, 11, 62, 98
12, 138311, Note_on_c, 11, 64, 60
12, 138336, Note_off_c, 11, 62, 64
12, 138390, Note_off_c, 11, 64, 64
12, 138417, Note_on_c, 11, 61, 58
12, 138468, Note_off_c, 11, 61, 64
12, 138565, Note_on_c, 11, 61, 80
12, 138660, Note_on_c, 11, 62, 70
12, 138669, Note_off_c, 11, 61, 64
12, 138731, Note_off_c, 11, 62, 64
12, 138781, Note_on_c, 11, 59, 57
12, 138830, Note_off_c, 11, 59, 64
12, 138938, Note_on_c, 11, 59, 57
12, 139325, Note_off_c, 11, 59, 64
12, 158756, Note_on_c, 11, 57, 70
12, 158882, Note_off_c, 11, 57, 64
12, 159116, Note_on_c, 11, 59, 80
12, 159254, Note_off_c, 11, 59, 64
12, 159491, Note_on_c, 11, 60, 60
12, 159629, Note_off_c, 11, 60, 64
12, 159836, Note_on_c, 11, 59, 80
12, 159967, Note_off_c, 11, 59, 64
12, 160178, Note_on_c, 11, 61, 68
12, 160323, Note_off_c, 11, 61, 64
12, 160541, Note_on_c, 11, 62, 64
12, 160677, Note_off_c, 11, 62, 64
12, 160887, Note_on_c, 11, 61, 87
12, 161040, Note_off_c, 11, 61, 64
12, 161250, Note_on_c, 11, 63, 61
12, 161403, Note_off_c, 11, 63, 64
12, 161621, Note_on_c, 11, 64, 70
12, 161754, Note_off_c, 11, 64, 64
12, 161852, Note_on_c, 11, 64, 85
12, 161925, Note_off_c, 11, 64, 64
12, 161990, Note_on_c, 11, 64, 98
12, 162097, Note_on_c, 11, 66, 66
12, 162122, Note_off_c, 11, 64, 64
12, 162174, Note_off_c, 11, 66, 64
12, 162213, Note_on_c, 11, 62, 64
12, 162266, Note_off_c, 11, 62, 64
12, 162336, Note_on_c, 11, 62, 87
12, 162446, Note_on_c, 11, 64, 66
12, 162453, Note_off_c, 11, 62, 64
12, 162525, Note_off_c, 11, 64, 64
12, 162541, Note_on_c, 11, 61, 66
12, 162611, Note_off_c, 11, 61, 64
12, 162681, Note_on_c, 11, 61, 91
12, 162791, Note_on_c, 11, 63, 68
12, 162820, Note_off_c, 11, 61, 64
12, 162919, Note_on_c, 11, 64, 76
12, 162968, Note_off_c, 11, 63, 64
12, 163017, Note_off_c, 11, 64, 64
12, 163052, Note_on_c, 11, 66, 85
12, 163166, Note_on_c, 11, 67, 70
12, 163185, Note_off_c, 11, 66, 64
12, 163256, Note_off_c, 11, 67, 64
12, 163278, Note_on_c, 11, 64, 70
12, 163338, Note_off_c, 11, 64, 64
12, 163405, Note_on_c, 11, 64, 95
12, 163517, Note_on_c, 11, 66, 74
12, 163518, Note_off_c, 11, 64, 64
12, 163607, Note_off_c, 11, 66, 64
12, 163637, Note_on_c, 11, 63, 57
12, 163710, Note_off_c, 11, 63, 64
12, 163787, Note_on_c, 11, 63, 57
12, 163898, Note_off_c, 11, 63, 64
12, 164031, Note_on_c, 11, 63, 57
12, 164098, Note_off_c, 11, 63, 64
12, 164161, Note_on_c, 11, 63, 62
12, 164282, Note_off_c, 11, 63, 64
12, 164377, Note_on_c, 11, 63, 58
12, 164445, Note_off_c, 11, 63, 64
12, 164498, Note_on_c, 11, 63, 68
12, 164624, Note_off_c, 11, 63, 64
12, 164726, Note_on_c, 11, 63, 59
12, 164800, Note_off_c, 11, 63, 64
12, 164847, Note_on_c, 11, 62, 66
12, 164958, Note_off_c, 11, 62, 64
12, 165077, Note_on_c, 11, 62, 66
12, 165142, Note_off_c, 11, 62, 64
12, 165203, Note_on_c, 11, 62, 78
12, 165345, Note_off_c, 11, 62, 64
12, 165428, Note_on_c, 11, 62, 64
12, 165500, Note_off_c, 11, 62, 64
12, 165558, Note_on_c, 11, 62, 78
12, 165695, Note_off_c, 11, 62, 64
12, 165810, Note_on_c, 11, 62, 66
12, 165884, Note_off_c, 11, 62, 64
12, 165927, Note_on_c, 11, 61, 66
12, 166073, Note_off_c, 11, 61, 64
12, 166164, Note_on_c, 11, 61, 66
12, 166236, Note_off_c, 11, 61, 64
12, 166287, Note_on_c, 11, 61, 70
12, 166439, Note_off_c, 11, 61, 64
12, 166524, Note_on_c, 11, 61, 59
12, 166595, Note_off_c, 11, 61, 64
12, 166654, Note_on_c, 11, 61, 61
12, 166785, Note_off_c, 11, 61, 64
12, 166870, Note_on_c, 11, 61, 64
12, 166942, Note_off_c, 11, 61, 64
12, 167000, Note_on_c, 11, 60, 78
12, 167138, Note_off_c, 11, 60, 64
12, 167232, Note_on_c, 11, 60, 60
12, 167307, Note_off_c, 11, 60, 64
12, 167378, Note_on_c, 11, 60, 59
12, 167520, Note_off_c, 11, 60, 64
12, 167606, Note_on_c, 11, 60, 62
12, 167671, Note_off_c, 11, 60, 64
12, 167732, Note_on_c, 11, 60, 68
12, 167873, Note_off_c, 11, 60, 64
12, 167961, Note_on_c, 11, 60, 60
12, 168018, Note_off_c, 11, 60, 64
12, 168087, Note_on_c, 11, 59, 64
12, 168220, Note_off_c, 11, 59, 64
12, 168308, Note_on_c, 11, 59, 62
12, 168373, Note_off_c, 11, 59, 64
12, 168440, Note_on_c, 11, 59, 64
12, 168591, Note_off_c, 11, 59, 64
12, 168668, Note_on_c, 11, 59, 60
12, 168731, Note_off_c, 11, 59, 64
12, 168803, Note_on_c, 11, 59, 63
12, 168947, Note_off_c, 11, 59, 64
12, 169028, Note_on_c, 11, 59, 63
12, 169106, Note_off_c, 11, 59, 64
12, 169163, Note_on_c, 11, 58, 70
12, 169325, Note_off_c, 11, 58, 64
12, 169395, Note_on_c, 11, 58, 57
12, 169457, Note_off_c, 11, 58, 64
12, 169527, Note_on_c, 11, 58, 59
12, 169674, Note_off_c, 11, 58, 64
12, 169746, Note_on_c, 11, 58, 58
12, 169815, Note_off_c, 11, 58, 64
12, 169876, Note_on_c, 11, 58, 61
12, 170015, Note_off_c, 11, 58, 64
12, 170101, Note_on_c, 11, 58, 57
12, 170171, Note_off_c, 11, 58, 64
12, 170243, Note_on_c, 11, 57, 66
12, 170398, Note_off_c, 11, 57, 64
12, 170477, Note_on_c, 11, 57, 66
12, 170544, Note_off_c, 11, 57, 64
12, 170609, Note_on_c, 11, 57, 68
12, 170760, Note_off_c, 11, 57, 64
12, 170832, Note_on_c, 11, 57, 60
12, 170898, Note_off_c, 11, 57, 64
12, 170958, Note_on_c, 11, 57, 63
12, 171109, Note_off_c, 11, 57, 64
12, 171212, Note_on_c, 11, 57, 66
12, 171303, Note_off_c, 11, 57, 64
12, 171355, Note_on_c, 11, 56, 68
12, 171503, Note_off_c, 11, 56, 64
12, 171590, Note_on_c, 11, 56, 52
12, 171666, Note_off_c, 11, 56, 64
12, 171719, Note_on_c, 11, 56, 57
12, 171872, Note_off_c, 11, 56, 64
12, 171948, Note_on_c, 11, 56, 60
12, 172011, Note_off_c, 11, 56, 64
12, 172080, Note_on_c, 11, 56, 60
12, 172191, Note_off_c, 11, 56, 64
12, 172279, Note_on_c, 11, 56, 56
12, 172351, Note_off_c, 11, 56, 64
12, 172414, Note_on_c, 11, 55, 63
12, 172569, Note_off_c, 11, 55, 64
12, 172641, Note_on_c, 11, 55, 58
12, 172720, Note_off_c, 11, 55, 64
12, 172788, Note_on_c, 11, 55, 62
12, 172918, Note_off_c, 11, 55, 64
12, 173006, Note_on_c, 11, 55, 66
12, 173084, Note_off_c, 11, 55, 64
12, 173143, Note_on_c, 11, 55, 63
12, 173255, Note_off_c, 11, 55, 64
12, 173354, Note_on_c, 11, 55, 66
12, 173453, Note_off_c, 11, 55, 64
12, 173480, Note_on_c, 11, 53, 66
12, 173628, Note_off_c, 11, 53, 64
12, 173719, Note_on_c, 11, 57, 74
12, 173784, Note_off_c, 11, 57, 64
12, 173843, Note_on_c, 11, 57, 87
12, 173962, Note_on_c, 11, 58, 63
12, 173972, Note_off_c, 11, 57, 64
12, 174070, Note_off_c, 11, 58, 64
12, 174072, Note_on_c, 11, 55, 63
12, 174135, Note_off_c, 11, 55, 64
12, 174209, Note_on_c, 11, 55, 87
12, 174313, Note_on_c, 11, 57, 70
12, 174336, Note_off_c, 11, 55, 64
12, 174407, Note_off_c, 11, 57, 64
12, 174439, Note_on_c, 11, 53, 64
12, 174504, Note_off_c, 11, 53, 64
12, 174567, Note_on_c, 11, 53, 78
12, 174691, Note_on_c, 11, 55, 60
12, 174695, Note_off_c, 11, 53, 64
12, 174765, Note_off_c, 11, 55, 64
12, 174810, Note_on_c, 11, 57, 68
12, 174876, Note_off_c, 11, 57, 64
12, 174938, Note_on_c, 11, 58, 93
12, 175042, Note_on_c, 11, 60, 59
12, 175058, Note_off_c, 11, 58, 64
12, 175114, Note_off_c, 11, 60, 64
12, 175159, Note_on_c, 11, 57, 64
12, 175213, Note_off_c, 11, 57, 64
12, 175281, Note_on_c, 11, 57, 78
12, 175382, Note_on_c, 11, 58, 60
12, 175391, Note_off_c, 11, 57, 64
12, 175467, Note_off_c, 11, 58, 64
12, 175505, Note_on_c, 11, 56, 78
12, 175566, Note_off_c, 11, 56, 64
12, 175652, Note_on_c, 11, 56, 66
12, 175861, Note_off_c, 11, 56, 64
12, 176958, Note_on_c, 11, 61, 63
12, 177022, Note_off_c, 11, 61, 64
12, 177096, Note_on_c, 11, 61, 68
12, 177204, Note_off_c, 11, 61, 64
12, 177314, Note_on_c, 11, 61, 74
12, 177384, Note_off_c, 11, 61, 64
12, 177447, Note_on_c, 11, 61, 87
12, 177573, Note_off_c, 11, 61, 64
12, 177652, Note_on_c, 11, 61, 64
12, 177729, Note_off_c, 11, 61, 64
12, 177798, Note_on_c, 11, 62, 89
12, 177900, Note_on_c, 11, 66, 72
12, 177906, Note_off_c, 11, 62, 64
12, 177967, Note_off_c, 11, 66, 64
12, 178016, Note_on_c, 11, 64, 80
12, 178082, Note_off_c, 11, 64, 64
12, 178143, Note_on_c, 11, 62, 85
12, 178257, Note_off_c, 11, 62, 64
12, 178368, Note_on_c, 11, 62, 72
12, 178435, Note_off_c, 11, 62, 64
12, 178493, Note_on_c, 11, 57, 70
12, 178620, Note_off_c, 11, 57, 64
12, 178727, Note_on_c, 11, 57, 72
12, 178800, Note_off_c, 11, 57, 64
12, 178862, Note_on_c, 11, 57, 85
12, 179078, Note_off_c, 11, 57, 64
12, 200514, Note_on_c, 11, 66, 102
12, 200806, Note_off_c, 11, 66, 64
12, 201206, Note_on_c, 11, 69, 89
12, 201245, Note_off_c, 11, 69, 64
12, 201263, Note_on_c, 11, 69, 98
12, 201340, Note_off_c, 11, 69, 64
12, 201431, Note_on_c, 11, 66, 87
12, 201466, Note_off_c, 11, 66, 64
12, 201497, Note_on_c, 11, 62, 95
12, 201961, Note_off_c, 11, 62, 64
12, 202132, Note_on_c, 11, 74, 95
12, 202173, Note_off_c, 11, 74, 64
12, 202195, Note_on_c, 11, 74, 93
12, 202264, Note_off_c, 11, 74, 64
12, 202370, Note_on_c, 11, 69, 85
12, 202405, Note_off_c, 11, 69, 64
12, 202432, Note_on_c, 11, 66, 85
12, 202924, Note_off_c, 11, 66, 64
12, 203093, Note_on_c, 11, 66, 87
12, 203141, Note_off_c, 11, 66, 64
12, 203156, Note_on_c, 11, 63, 82
12, 203235, Note_off_c, 11, 63, 64
12, 203319, Note_on_c, 11, 71, 82
12, 203352, Note_off_c, 11, 71, 64
12, 203394, Note_on_c, 11, 71, 98
12, 204357, Note_off_c, 11, 71, 64
12, 204464, Note_on_c, 11, 61, 82
12, 204518, Note_off_c, 11, 61, 64
12, 204521, Note_on_c, 11, 62, 78
12, 204560, Note_off_c, 11, 62, 64
12, 204577, Note_on_c, 11, 64, 82
12, 204630, Note_off_c, 11, 64, 64
12, 204639, Note_on_c, 11, 66, 78
12, 204700, Note_on_c, 11, 67, 70
12, 204703, Note_off_c, 11, 66, 64
12, 204744, Note_off_c, 11, 67, 64
12, 204749, Note_on_c, 11, 64, 68
12, 204816, Note_on_c, 11, 69, 85
12, 204819, Note_off_c, 11, 64, 64
12, 204874, Note_off_c, 11, 69, 64
12, 204874, Note_on_c, 11, 71, 68
12, 204938, Note_on_c, 11, 73, 70
12, 204945, Note_off_c, 11, 71, 64
12, 204999, Note_on_c, 11, 74, 82
12, 205014, Note_off_c, 11, 73, 64
12, 205030, Note_off_c, 11, 74, 64
12, 205060, Note_on_c, 11, 76, 82
12, 205117, Note_off_c, 11, 76, 64
12, 205117, Note_on_c, 11, 74, 80
12, 205160, Note_off_c, 11, 74, 64
12, 205172, Note_on_c, 11, 76, 80
12, 205224, Note_off_c, 11, 76, 64
12, 205235, Note_on_c, 11, 73, 85
12, 205278, Note_off_c, 11, 73, 64
12, 205303, Note_on_c, 11, 69, 85
12, 205764, Note_off_c, 11, 69, 64
12, 205951, Note_on_c, 11, 66, 82
12, 205985, Note_off_c, 11, 66, 64
12, 206008, Note_on_c, 11, 66, 85
12, 206080, Note_off_c, 11, 66, 64
12, 206181, Note_on_c, 11, 62, 85
12, 206224, Note_off_c, 11, 62, 64
12, 206248, Note_on_c, 11, 67, 85
12, 206785, Note_off_c, 11, 67, 64
12, 206913, Note_on_c, 11, 67, 78
12, 206952, Note_off_c, 11, 67, 64
12, 206978, Note_on_c, 11, 67, 100
12, 207064, Note_off_c, 11, 67, 64
12, 207155, Note_on_c, 11, 71, 82
12, 207198, Note_off_c, 11, 71, 64
12, 207223, Note_on_c, 11, 64, 85
12, 207737, Note_off_c, 11, 64, 64
12, 207885, Note_on_c, 11, 69, 72
12, 207934, Note_off_c, 11, 69, 64
12, 207950, Note_on_c, 11, 74, 98
12, 208015, Note_off_c, 11, 74, 64
12, 208115, Note_on_c, 11, 69, 74
12, 208153, Note_off_c, 11, 69, 64
12, 208184, Note_on_c, 11, 71, 87
12, 208482, Note_off_c, 11, 71, 64
12, 208603, Note_on_c, 11, 71, 82
12, 208640, Note_off_c, 11, 71, 64
12, 208667, Note_on_c, 11, 69, 91
12, 208756, Note_off_c, 11, 69, 64
12, 208916, Note_on_c, 11, 69, 89
12, 208989, Note_off_c, 11, 69, 64
12, 209157, Note_on_c, 11, 69, 100
12, 209250, Note_off_c, 11, 69, 64
12, 209337, Note_on_c, 11, 66, 78
12, 209375, Note_off_c, 11, 66, 64
12, 209399, Note_on_c, 11, 66, 93
12, 209477, Note_off_c, 11, 66, 64
12, 209573, Note_on_c, 11, 62, 80
12, 209608, Note_off_c, 11, 62, 64
12, 209638, Note_on_c, 11, 62, 89
12, 210139, Note_off_c, 11, 62, 64
12, 210304, Note_on_c, 11, 64, 80
12, 210336, Note_off_c, 11, 64, 64
12, 210363, Note_on_c, 11, 64, 91
12, 210428, Note_off_c, 11, 64, 64
12, 210531, Note_on_c, 11, 67, 87
12, 210576, Note_off_c, 11, 67, 64
12, 210593, Note_on_c, 11, 61, 89
12, 210693, Note_off_c, 11, 61, 64
12, 210836, Note_on_c, 11, 66, 89
12, 210928, Note_off_c, 11, 66, 64
12, 211072, Note_on_c, 11, 66, 80
12, 211574, Note_off_c, 11, 66, 64
12, 211727, Note_on_c, 11, 62, 80
12, 211766, Note_off_c, 11, 62, 64
12, 211787, Note_on_c, 11, 59, 85
12, 211863, Note_off_c, 11, 59, 64
12, 211969, Note_on_c, 11, 59, 80
12, 212013, Note_off_c, 11, 59, 64
12, 212028, Note_on_c, 11, 57, 82
12, 212329, Note_off_c, 11, 57, 64
12, 212435, Note_on_c, 11, 57, 78
12, 212500, Note_on_c, 11, 62, 89
12, 212505, Note_off_c, 11, 57, 64
12, 212573, Note_off_c, 11, 62, 64
12, 212682, Note_on_c, 11, 67, 80
12, 212728, Note_off_c, 11, 67, 64
12, 212746, Note_on_c, 11, 67, 85
12, 212823, Note_off_c, 11, 67, 64
12, 212918, Note_on_c, 11, 69, 85
12, 212959, Note_off_c, 11, 69, 64
12, 212990, Note_on_c, 11, 69, 82
12, 213078, Note_off_c, 11, 69, 64
12, 213154, Note_on_c, 11, 61, 80
12, 213199, Note_off_c, 11, 61, 64
12, 213220, Note_on_c, 11, 61, 82
12, 213288, Note_off_c, 11, 61, 64
12, 213398, Note_on_c, 11, 57, 80
12, 213447, Note_off_c, 11, 57, 64
12, 213471, Note_on_c, 11, 57, 80
12, 213952, Note_off_c, 11, 57, 64
12, 214117, Note_on_c, 11, 57, 78
12, 214166, Note_off_c, 11, 57, 64
12, 214184, Note_on_c, 11, 62, 98
12, 214245, Note_off_c, 11, 62, 64
12, 214351, Note_on_c, 11, 57, 82
12, 214407, Note_off_c, 11, 57, 64
12, 214419, Note_on_c, 11, 66, 85
12, 214916, Note_off_c, 11, 66, 64
12, 215096, Note_on_c, 11, 67, 93
12, 215141, Note_off_c, 11, 67, 64
12, 215154, Note_on_c, 11, 61, 85
12, 215227, Note_off_c, 11, 61, 64
12, 215320, Note_on_c, 11, 64, 82
12, 215359, Note_off_c, 11, 64, 64
12, 215382, Note_on_c, 11, 67, 89
12, 215880, Note_off_c, 11, 67, 64
12, 216043, Note_on_c, 11, 61, 74
12, 216082, Note_off_c, 11, 61, 64
12, 216105, Note_on_c, 11, 62, 85
12, 216364, Note_off_c, 11, 62, 64
12, 216524, Note_on_c, 11, 62, 85
12, 216560, Note_off_c, 11, 62, 64
12, 216590, Note_on_c, 11, 61, 87
12, 216846, Note_off_c, 11, 61, 64
12, 217010, Note_on_c, 11, 57, 80
12, 217047, Note_off_c, 11, 57, 64
12, 217074, Note_on_c, 11, 57, 82
12, 217152, Note_off_c, 11, 57, 64
12, 217243, Note_on_c, 11, 62, 80
12, 217297, Note_off_c, 11, 62, 64
12, 217328, Note_on_c, 11, 66, 80
12, 217329, Note_on_c, 11, 67, 47
12, 217371, Note_off_c, 11, 67, 64
12, 217880, Note_off_c, 11, 66, 64
12, 217959, Note_on_c, 11, 62, 87
12, 217991, Note_off_c, 11, 62, 64
12, 218015, Note_on_c, 11, 62, 98
12, 218107, Note_off_c, 11, 62, 64
12, 218197, Note_on_c, 11, 61, 80
12, 218248, Note_off_c, 11, 61, 64
12, 218264, Note_on_c, 11, 59, 87
12, 218564, Note_off_c, 11, 59, 64
12, 218672, Note_on_c, 11, 67, 76
12, 218720, Note_off_c, 11, 67, 64
12, 218740, Note_on_c, 11, 69, 93
12, 218824, Note_off_c, 11, 69, 64
12, 218914, Note_on_c, 11, 69, 87
12, 218955, Note_off_c, 11, 69, 64
12, 218974, Note_on_c, 11, 69, 85
12, 219067, Note_off_c, 11, 69, 64
12, 219148, Note_on_c, 11, 67, 78
12, 219186, Note_off_c, 11, 67, 64
12, 219210, Note_on_c, 11, 66, 91
12, 219287, Note_on_c, 11, 64, 64
12, 219293, Note_off_c, 11, 66, 64
12, 219320, Note_off_c, 11, 64, 64
12, 219320, Note_on_c, 11, 66, 70
12, 219347, Note_off_c, 11, 66, 64
12, 219348, Note_on_c, 11, 64, 64
12, 219375, Note_on_c, 11, 66, 85
12, 219378, Note_off_c, 11, 64, 64
12, 219400, Note_on_c, 11, 64, 66
12, 219401, Note_off_c, 11, 66, 64
12, 219425, Note_on_c, 11, 66, 87
12, 219427, Note_off_c, 11, 64, 64
12, 219447, Note_on_c, 11, 64, 85
12, 219453, Note_off_c, 11, 66, 64
12, 219560, Note_off_c, 11, 64, 64
12, 219617, Note_on_c, 11, 66, 80
12, 219656, Note_off_c, 11, 66, 64
12, 219694, Note_on_c, 11, 66, 93
12, 220421, Note_off_c, 11, 66, 64
12, 289014, Note_on_c, 11, 61, 85
12, 289079, Note_off_c, 11, 61, 64
12, 289158, Note_on_c, 11, 61, 98
12, 289268, Note_on_c, 11, 64, 68
12, 289289, Note_off_c, 11, 61, 64
12, 289367, Note_off_c, 11, 64, 64
12, 289376, Note_on_c, 11, 62, 62
12, 289424, Note_off_c, 11, 62, 64
12, 289514, Note_on_c, 11, 62, 91
12, 289619, Note_on_c, 11, 66, 64
12, 289628, Note_off_c, 11, 62, 64
12, 289709, Note_off_c, 11, 66, 64
12, 289725, Note_on_c, 11, 64, 57
12, 289773, Note_off_c, 11, 64, 64
12, 289866, Note_on_c, 11, 64, 63
12, 290083, Note_off_c, 11, 64, 64
12, 291186, Note_on_c, 11, 69, 60
12, 291251, Note_off_c, 11, 69, 64
12, 291321, Note_on_c, 11, 69, 66
12, 291465, Note_off_c, 11, 69, 64
12, 291564, Note_on_c, 11, 69, 56
12, 291613, Note_off_c, 11, 69, 64
12, 291685, Note_on_c, 11, 69, 59
12, 291827, Note_off_c, 11, 69, 64
12, 291928, Note_on_c, 11, 69, 54
12, 291977, Note_off_c, 11, 69, 64
12, 292050, Note_on_c, 11, 69, 63
12, 292187, Note_off_c, 11, 69, 64
12, 292293, Note_on_c, 11, 69, 61
12, 292347, Note_off_c, 11, 69, 64
12, 292414, Note_on_c, 11, 69, 60
12, 292554, Note_off_c, 11, 69, 64
12, 292643, Note_on_c, 11, 69, 60
12, 292706, Note_off_c, 11, 69, 64
12, 292767, Note_on_c, 11, 69, 70
12, 292925, Note_off_c, 11, 69, 64
12, 293003, Note_on_c, 11, 69, 60
12, 293057, Note_off_c, 11, 69, 64
12, 293138, Note_on_c, 11, 69, 68
12, 293339, Note_off_c, 11, 69, 64
12, 294437, Note_on_c, 11, 69, 74
12, 294502, Note_off_c, 11, 69, 64
12, 294574, Note_on_c, 11, 69, 89
12, 294704, Note_off_c, 11, 69, 64
12, 294779, Note_on_c, 11, 73, 68
12, 294830, Note_off_c, 11, 73, 64
12, 294925, Note_on_c, 11, 73, 85
12, 295080, Note_off_c, 11, 73, 64
12, 295154, Note_on_c, 11, 74, 68
12, 295209, Note_off_c, 11, 74, 64
12, 295296, Note_on_c, 11, 74, 78
12, 295497, Note_off_c, 11, 74, 64
12, 296590, Note_on_c, 11, 62, 60
12, 296642, Note_off_c, 11, 62, 64
12, 296729, Note_on_c, 11, 62, 66
12, 296903, Note_off_c, 11, 62, 64
12, 296975, Note_on_c, 11, 62, 60
12, 297027, Note_off_c, 11, 62, 64
12, 297101, Note_on_c, 11, 62, 64
12, 297261, Note_off_c, 11, 62, 64
12, 297339, Note_on_c, 11, 62, 64
12, 297396, Note_off_c, 11, 62, 64
12, 297470, Note_on_c, 11, 62, 82
12, 297605, Note_off_c, 11, 62, 64
12, 297682, Note_on_c, 11, 60, 58
12, 297753, Note_off_c, 11, 60, 64
12, 297816, Note_on_c, 11, 62, 89
12, 297967, Note_off_c, 11, 62, 64
12, 298053, Note_on_c, 11, 66, 68
12, 298118, Note_off_c, 11, 66, 64
12, 298174, Note_on_c, 11, 66, 82
12, 298296, Note_off_c, 11, 66, 64
12, 298403, Note_on_c, 11, 59, 64
12, 298478, Note_off_c, 11, 59, 64
12, 298545, Note_on_c, 11, 59, 78
12, 298680, Note_off_c, 11, 59, 64
12, 298765, Note_on_c, 11, 64, 64
12, 298818, Note_off_c, 11, 64, 64
12, 298893, Note_on_c, 11, 64, 78
12, 299049, Note_off_c, 11, 64, 64
12, 299121, Note_on_c, 11, 67, 72
12, 299184, Note_off_c, 11, 67, 64
12, 299247, Note_on_c, 11, 67, 82
12, 299364, Note_off_c, 11, 67, 64
12, 299472, Note_on_c, 11, 61, 68
12, 299531, Note_off_c, 11, 61, 64
12, 299609, Note_on_c, 11, 61, 82
12, 299751, Note_off_c, 11, 61, 64
12, 299850, Note_on_c, 11, 66, 68
12, 299902, Note_off_c, 11, 66, 64
12, 299979, Note_on_c, 11, 66, 80
12, 300140, Note_off_c, 11, 66, 64
12, 300210, Note_on_c, 11, 69, 70
12, 300275, Note_off_c, 11, 69, 64
12, 300343, Note_on_c, 11, 69, 82
12, 300485, Note_off_c, 11, 69, 64
12, 300568, Note_on_c, 11, 62, 68
12, 300633, Note_off_c, 11, 62, 64
12, 300705, Note_on_c, 11, 62, 89
12, 300861, Note_off_c, 11, 62, 64
12, 300926, Note_on_c, 11, 68, 63
12, 300986, Note_off_c, 11, 68, 64
12, 301045, Note_on_c, 11, 68, 87
12, 301187, Note_off_c, 11, 68, 64
12, 301301, Note_on_c, 11, 71, 82
12, 301362, Note_off_c, 11, 71, 64
12, 301425, Note_on_c, 11, 71, 87
12, 301569, Note_off_c, 11, 71, 64
12, 301650, Note_on_c, 11, 64, 63
12, 301704, Note_off_c, 11, 64, 64
12, 301794, Note_on_c, 11, 64, 74
12, 301986, Note_off_c, 11, 64, 64
12, 314257, Note_on_c, 11, 71, 70
12, 314316, Note_off_c, 11, 71, 64
12, 314387, Note_on_c, 11, 71, 82
12, 314528, Note_off_c, 11, 71, 64
12, 314612, Note_on_c, 11, 71, 78
12, 314673, Note_off_c, 11, 71, 64
12, 314743, Note_on_c, 11, 71, 89
12, 315110, Note_off_c, 11, 71, 64
12, 315324, Note_on_c, 11, 64, 66
12, 315384, Note_off_c, 11, 64, 64
12, 315454, Note_on_c, 11, 64, 76
12, 315609, Note_off_c, 11, 64, 64
12, 315675, Note_on_c, 11, 64, 76
12, 315744, Note_off_c, 11, 64, 64
12, 315803, Note_on_c, 11, 64, 87
12, 315927, Note_off_c, 11, 64, 64
12, 316019, Note_on_c, 11, 69, 82
12, 316079, Note_off_c, 11, 69, 64
12, 316151, Note_on_c, 11, 69, 102
12, 316262, Note_on_c, 11, 71, 70
12, 316287, Note_off_c, 11, 69, 64
12, 316325, Note_off_c, 11, 71, 64
12, 316426, Note_on_c, 11, 67, 80
12, 316491, Note_off_c, 11, 67, 64
12, 316550, Note_on_c, 11, 67, 87
12, 316657, Note_on_c, 11, 69, 68
12, 316678, Note_off_c, 11, 67, 64
12, 316737, Note_off_c, 11, 69, 64
12, 316772, Note_on_c, 11, 66, 76
12, 316845, Note_off_c, 11, 66, 64
12, 316903, Note_on_c, 11, 66, 85
12, 317069, Note_off_c, 11, 66, 64
12, 317268, Note_on_c, 11, 71, 82
12, 317400, Note_off_c, 11, 71, 64
12, 317628, Note_on_c, 11, 75, 68
12, 317760, Note_off_c, 11, 75, 64
12, 318349, Note_on_c, 11, 64, 78
12, 318465, Note_off_c, 11, 64, 64
12, 318699, Note_on_c, 11, 67, 80
12, 318843, Note_off_c, 11, 67, 64
12, 319418, Note_on_c, 11, 69, 82
12, 319540, Note_off_c, 11, 69, 64
12, 319770, Note_on_c, 11, 66, 85
12, 319919, Note_off_c, 11, 66, 64
12, 320481, Note_on_c, 11, 67, 82
12, 320604, Note_off_c, 11, 67, 64
12, 320841, Note_on_c, 11, 64, 85
12, 320966, Note_off_c, 11, 64, 64
12, 321207, Note_on_c, 11, 66, 82
12, 321372, Note_off_c, 11, 66, 64
12, 322539, Note_on_c, 11, 50, 64
12, 322604, Note_off_c, 11, 50, 64
12, 322674, Note_on_c, 11, 50, 70
12, 322800, Note_off_c, 11, 50, 64
12, 322899, Note_on_c, 11, 50, 68
12, 322962, Note_off_c, 11, 50, 64
12, 323027, Note_on_c, 11, 50, 80
12, 323127, Note_off_c, 11, 50, 64
12, 323252, Note_on_c, 11, 50, 74
12, 323316, Note_off_c, 11, 50, 64
12, 323397, Note_on_c, 11, 50, 87
12, 323550, Note_off_c, 11, 50, 64
12, 323772, Note_on_c, 11, 66, 85
12, 323909, Note_off_c, 11, 66, 64
12, 324139, Note_on_c, 11, 62, 82
12, 324287, Note_off_c, 11, 62, 64
12, 324476, Note_on_c, 11, 62, 80
12, 324614, Note_off_c, 11, 62, 64
12, 324699, Note_on_c, 11, 62, 68
12, 324771, Note_off_c, 11, 62, 64
12, 324836, Note_on_c, 11, 62, 89
12, 324971, Note_off_c, 11, 62, 64
12, 325052, Note_on_c, 11, 64, 80
12, 325111, Note_off_c, 11, 64, 64
12, 325183, Note_on_c, 11, 64, 87
12, 325311, Note_off_c, 11, 64, 64
12, 325392, Note_on_c, 11, 62, 72
12, 325458, Note_off_c, 11, 62, 64
12, 325538, Note_on_c, 11, 62, 85
12, 325674, Note_off_c, 11, 62, 64
12, 325896, Note_on_c, 11, 62, 85
12, 326036, Note_off_c, 11, 62, 64
12, 326249, Note_on_c, 11, 66, 87
12, 326375, Note_off_c, 11, 66, 64
12, 326598, Note_on_c, 11, 59, 80
12, 326724, Note_off_c, 11, 59, 64
12, 326724, Note_on_c, 11, 64, 87
12, 326801, Note_off_c, 11, 64, 64
12, 326830, Note_on_c, 11, 65, 82
12, 326909, Note_off_c, 11, 65, 64
12, 326958, Note_on_c, 11, 67, 87
12, 327066, Note_on_c, 11, 69, 80
12, 327098, Note_off_c, 11, 67, 64
12, 327143, Note_off_c, 11, 69, 64
12, 327191, Note_on_c, 11, 65, 80
12, 327251, Note_off_c, 11, 65, 64
12, 327321, Note_on_c, 11, 65, 102
12, 327424, Note_on_c, 11, 67, 76
12, 327453, Note_off_c, 11, 65, 64
12, 327507, Note_off_c, 11, 67, 64
12, 327545, Note_on_c, 11, 64, 70
12, 327597, Note_off_c, 11, 64, 64
12, 327676, Note_on_c, 11, 64, 91
12, 327803, Note_off_c, 11, 64, 64
12, 327901, Note_on_c, 11, 59, 72
12, 327983, Note_off_c, 11, 59, 64
12, 328031, Note_on_c, 11, 60, 85
12, 328167, Note_off_c, 11, 60, 64
12, 328257, Note_on_c, 11, 64, 82
12, 328328, Note_off_c, 11, 64, 64
12, 328387, Note_on_c, 11, 64, 89
12, 328518, Note_off_c, 11, 64, 64
12, 328632, Note_on_c, 11, 64, 89
12, 328711, Note_off_c, 11, 64, 64
12, 328767, Note_on_c, 11, 57, 93
12, 328877, Note_off_c, 11, 57, 64
12, 328877, Note_on_c, 11, 59, 85
12, 328952, Note_off_c, 11, 59, 64
12, 328986, Note_on_c, 11, 60, 82
12, 329055, Note_off_c, 11, 60, 64
12, 329112, Note_on_c, 11, 62, 89
12, 329231, Note_off_c, 11, 62, 64
12, 329343, Note_on_c, 11, 55, 80
12, 329420, Note_off_c, 11, 55, 64
12, 329476, Note_on_c, 11, 62, 85
12, 329582, Note_off_c, 11, 62, 64
12, 329710, Note_on_c, 11, 57, 68
12, 329787, Note_off_c, 11, 57, 64
12, 329847, Note_on_c, 11, 62, 87
12, 329957, Note_off_c, 11, 62, 64
12, 330075, Note_on_c, 11, 69, 74
12, 330156, Note_off_c, 11, 69, 64
12, 330200, Note_on_c, 11, 67, 82
12, 330322, Note_off_c, 11, 67, 64
12, 330434, Note_on_c, 11, 69, 72
12, 330502, Note_off_c, 11, 69, 64
12, 330558, Note_on_c, 11, 62, 82
12, 330680, Note_off_c, 11, 62, 64
12, 330781, Note_on_c, 11, 62, 60
12, 330851, Note_off_c, 11, 62, 64
12, 330912, Note_on_c, 11, 62, 76
12, 331040, Note_off_c, 11, 62, 64
12, 331137, Note_on_c, 11, 62, 57
12, 331208, Note_off_c, 11, 62, 64
12, 331280, Note_on_c, 11, 62, 57
12, 331406, Note_off_c, 11, 62, 64
12, 331512, Note_on_c, 11, 62, 57
12, 331578, Note_off_c, 11, 62, 64
12, 331647, Note_on_c, 11, 62, 60
12, 331769, Note_off_c, 11, 62, 64
12, 331880, Note_on_c, 11, 62, 47
12, 331947, Note_off_c, 11, 62, 64
12, 332016, Note_on_c, 11, 62, 58
12, 332140, Note_off_c, 11, 62, 64
12, 332239, Note_on_c, 11, 62, 51
12, 332307, Note_off_c, 11, 62, 64
12, 332363, Note_on_c, 11, 62, 60
12, 332500, Note_off_c, 11, 62, 64
12, 332583, Note_on_c, 11, 62, 53
12, 332646, Note_off_c, 11, 62, 64
12, 332718, Note_on_c, 11, 62, 57
12, 332851, Note_off_c, 11, 62, 64
12, 332934, Note_on_c, 11, 62, 57
12, 333006, Note_off_c, 11, 62, 64
12, 333087, Note_on_c, 11, 62, 58
12, 333249, Note_off_c, 11, 62, 64
12, 353958, Note_on_c, 11, 66, 82
12, 354066, Note_off_c, 11, 66, 64
12, 354318, Note_on_c, 11, 69, 85
12, 354433, Note_off_c, 11, 69, 64
12, 354667, Note_on_c, 11, 62, 80
12, 354779, Note_on_c, 11, 64, 85
12, 354806, Note_off_c, 11, 62, 64
12, 354887, Note_off_c, 11, 64, 64
12, 354905, Note_on_c, 11, 66, 82
12, 354977, Note_off_c, 11, 66, 64
12, 355045, Note_on_c, 11, 66, 100
12, 355172, Note_off_c, 11, 66, 64
12, 355279, Note_on_c, 11, 69, 72
12, 355360, Note_off_c, 11, 69, 64
12, 355414, Note_on_c, 11, 66, 87
12, 355522, Note_off_c, 11, 66, 64
12, 355652, Note_on_c, 11, 62, 80
12, 355726, Note_off_c, 11, 62, 64
12, 355785, Note_on_c, 11, 67, 89
12, 355909, Note_off_c, 11, 67, 64
12, 356021, Note_on_c, 11, 71, 80
12, 356087, Note_off_c, 11, 71, 64
12, 356156, Note_on_c, 11, 67, 98
12, 356256, Note_on_c, 11, 69, 82
12, 356287, Note_off_c, 11, 67, 64
12, 356364, Note_on_c, 11, 71, 82
12, 356384, Note_off_c, 11, 69, 64
12, 356440, Note_off_c, 11, 71, 64
12, 356500, Note_on_c, 11, 64, 89
12, 356606, Note_off_c, 11, 64, 64
12, 356733, Note_on_c, 11, 64, 72
12, 356795, Note_off_c, 11, 64, 64
12, 356885, Note_on_c, 11, 64, 80
12, 357128, Note_off_c, 11, 64, 64
12, 357448, Note_on_c, 11, 69, 87
12, 357529, Note_off_c, 11, 69, 64
12, 357574, Note_on_c, 11, 64, 85
12, 357707, Note_off_c, 11, 64, 64
12, 357803, Note_on_c, 11, 69, 80
12, 357873, Note_off_c, 11, 69, 64
12, 357930, Note_on_c, 11, 62, 87
12, 358040, Note_on_c, 11, 66, 78
12, 358051, Note_off_c, 11, 62, 64
12, 358146, Note_off_c, 11, 66, 64
12, 358155, Note_on_c, 11, 67, 87
12, 358220, Note_off_c, 11, 67, 64
12, 358287, Note_on_c, 11, 69, 102
12, 358404, Note_off_c, 11, 69, 64
12, 358510, Note_on_c, 11, 73, 80
12, 358586, Note_off_c, 11, 73, 64
12, 358629, Note_on_c, 11, 64, 91
12, 358748, Note_off_c, 11, 64, 64
12, 358859, Note_on_c, 11, 66, 76
12, 358919, Note_off_c, 11, 66, 64
12, 358991, Note_on_c, 11, 66, 89
12, 359129, Note_off_c, 11, 66, 64
12, 359237, Note_on_c, 11, 66, 68
12, 359316, Note_off_c, 11, 66, 64
12, 359356, Note_on_c, 11, 62, 85
12, 359470, Note_off_c, 11, 62, 64
12, 359477, Note_on_c, 11, 64, 82
12, 359577, Note_off_c, 11, 64, 64
12, 359585, Note_on_c, 11, 66, 80
12, 359660, Note_off_c, 11, 66, 64
12, 359718, Note_on_c, 11, 59, 85
12, 359844, Note_off_c, 11, 59, 64
12, 359943, Note_on_c, 11, 71, 80
12, 360000, Note_off_c, 11, 71, 64
12, 360087, Note_on_c, 11, 71, 89
12, 360369, Note_off_c, 11, 71, 64
12, 360662, Note_on_c, 11, 64, 59
12, 360719, Note_off_c, 11, 64, 64
12, 360798, Note_on_c, 11, 64, 68
12, 360908, Note_off_c, 11, 64, 64
12, 361025, Note_on_c, 11, 64, 62
12, 361088, Note_off_c, 11, 64, 64
12, 361170, Note_on_c, 11, 64, 85
12, 361413, Note_off_c, 11, 64, 64
12, 361721, Note_on_c, 11, 62, 63
12, 361782, Note_off_c, 11, 62, 64
12, 361860, Note_on_c, 11, 62, 85
12, 361977, Note_off_c, 11, 62, 64
12, 362099, Note_on_c, 11, 62, 63
12, 362168, Note_off_c, 11, 62, 64
12, 362238, Note_on_c, 11, 62, 89
12, 362376, Note_off_c, 11, 62, 64
12, 362616, Note_on_c, 11, 64, 89
12, 362731, Note_off_c, 11, 64, 64
12, 362972, Note_on_c, 11, 66, 89
12, 363086, Note_off_c, 11, 66, 64
12, 363336, Note_on_c, 11, 59, 78
12, 363465, Note_off_c, 11, 59, 64
12, 363710, Note_on_c, 11, 71, 91
12, 363827, Note_off_c, 11, 71, 64
12, 364059, Note_on_c, 11, 68, 72
12, 364175, Note_off_c, 11, 68, 64
12, 364429, Note_on_c, 11, 64, 82
12, 364540, Note_off_c, 11, 64, 64
12, 364787, Note_on_c, 11, 64, 85
12, 364900, Note_off_c, 11, 64, 64
12, 365148, Note_on_c, 11, 64, 85
12, 365262, Note_off_c, 11, 64, 64
12, 365490, Note_on_c, 11, 62, 85
12, 365625, Note_off_c, 11, 62, 64
12, 365847, Note_on_c, 11, 69, 93
12, 365960, Note_off_c, 11, 69, 64
12, 366210, Note_on_c, 11, 66, 78
12, 366331, Note_off_c, 11, 66, 64
12, 366571, Note_on_c, 11, 62, 82
12, 366763, Note_off_c, 11, 62, 64
12, 367143, Note_on_c, 11, 67, 80
12, 367213, Note_off_c, 11, 67, 64
12, 367274, Note_on_c, 11, 69, 82
12, 367371, Note_off_c, 11, 69, 64
12, 367509, Note_on_c, 11, 64, 78
12, 367582, Note_off_c, 11, 64, 64
12, 367654, Note_on_c, 11, 69, 87
12, 367802, Note_off_c, 11, 69, 64
12, 368212, Note_on_c, 11, 69, 82
12, 368302, Note_off_c, 11, 69, 64
12, 368349, Note_on_c, 11, 71, 85
12, 368450, Note_off_c, 11, 71, 64
12, 368577, Note_on_c, 11, 66, 76
12, 368655, Note_off_c, 11, 66, 64
12, 368725, Note_on_c, 11, 71, 89
12, 368858, Note_off_c, 11, 71, 64
12, 369330, Note_on_c, 11, 64, 68
12, 369414, Note_off_c, 11, 64, 64
12, 369461, Note_on_c, 11, 66, 87
12, 369571, Note_off_c, 11, 66, 64
12, 369686, Note_on_c, 11, 66, 80
12, 369764, Note_off_c, 11, 66, 64
12, 369828, Note_on_c, 11, 59, 89
12, 369942, Note_off_c, 11, 59, 64
12, 370041, Note_on_c, 11, 71, 70
12, 370098, Note_off_c, 11, 71, 64
12, 370172, Note_on_c, 11, 71, 70
12, 370280, Note_off_c, 11, 71, 64
12, 370404, Note_on_c, 11, 71, 74
12, 370464, Note_off_c, 11, 71, 64
12, 370529, Note_on_c, 11, 71, 89
12, 370642, Note_off_c, 11, 71, 64
12, 370766, Note_on_c, 11, 71, 80
12, 370835, Note_off_c, 11, 71, 64
12, 370899, Note_on_c, 11, 69, 85
12, 371013, Note_off_c, 11, 69, 64
12, 371133, Note_on_c, 11, 69, 82
12, 371209, Note_off_c, 11, 69, 64
12, 371272, Note_on_c, 11, 69, 91
12, 371389, Note_off_c, 11, 69, 64
12, 371493, Note_on_c, 11, 69, 78
12, 371562, Note_off_c, 11, 69, 64
12, 371625, Note_on_c, 11, 69, 85
12, 371744, Note_off_c, 11, 69, 64
12, 371856, Note_on_c, 11, 69, 85
12, 371920, Note_off_c, 11, 69, 64
12, 371985, Note_on_c, 11, 69, 89
12, 372079, Note_off_c, 11, 69, 64
12, 372197, Note_on_c, 11, 69, 87
12, 372267, Note_off_c, 11, 69, 64
12, 372332, Note_on_c, 11, 69, 89
12, 372438, Note_off_c, 11, 69, 64
12, 372540, Note_on_c, 11, 67, 82
12, 372633, Note_off_c, 11, 67, 64
12, 372676, Note_on_c, 11, 64, 87
12, 372795, Note_off_c, 11, 64, 64
12, 372905, Note_on_c, 11, 64, 82
12, 372969, Note_off_c, 11, 64, 64
12, 373056, Note_on_c, 11, 66, 91
12, 373196, Note_off_c, 11, 66, 64
12, 373432, Note_on_c, 11, 69, 87
12, 373556, Note_off_c, 11, 69, 64
12, 373801, Note_on_c, 11, 73, 89
12, 373927, Note_off_c, 11, 73, 64
12, 374159, Note_on_c, 11, 69, 85
12, 374262, Note_off_c, 11, 69, 64
12, 374512, Note_on_c, 11, 69, 87
12, 374633, Note_off_c, 11, 69, 64
12, 374870, Note_on_c, 11, 73, 87
12, 374991, Note_off_c, 11, 73, 64
12, 374991, End_track
13, 0, Start_track
13, 0, Title_t, "Cello"
13, 0, Program_c, 12, 42
13, 0, Control_c, 12, 7, 100
13, 902, Note_on_c, 12, 50, 122
13, 931, Note_off_c, 12, 50, 64
13, 959, Note_on_c, 12, 50, 107
13, 1777, Note_off_c, 12, 50, 64
13, 1853, Note_on_c, 12, 50, 113
13, 1882, Note_off_c, 12, 50, 64
13, 1911, Note_on_c, 12, 50, 105
13, 2725, Note_off_c, 12, 50, 64
13, 2813, Note_on_c, 12, 50, 105
13, 2843, Note_off_c, 12, 50, 64
13, 2874, Note_on_c, 12, 50, 107
13, 3697, Note_off_c, 12, 50, 64
13, 3767, Note_on_c, 12, 50, 102
13, 3801, Note_off_c, 12, 50, 64
13, 3830, Note_on_c, 12, 50, 98
13, 4113, Note_off_c, 12, 50, 64
13, 4138, Note_on_c, 12, 49, 93
13, 4175, Note_off_c, 12, 49, 64
13, 4190, Note_on_c, 12, 50, 89
13, 4226, Note_off_c, 12, 50, 64
13, 4242, Note_on_c, 12, 47, 98
13, 4288, Note_off_c, 12, 47, 64
13, 4309, Note_on_c, 12, 49, 100
13, 4426, Note_off_c, 12, 49, 64
13, 4547, Note_on_c, 12, 45, 89
13, 4649, Note_off_c, 12, 45, 64
13, 4785, Note_on_c, 12, 50, 98
13, 5047, Note_off_c, 12, 50, 64
13, 5088, Note_on_c, 12, 49, 93
13, 5131, Note_off_c, 12, 49, 64
13, 5144, Note_on_c, 12, 50, 82
13, 5190, Note_off_c, 12, 50, 64
13, 5197, Note_on_c, 12, 52, 87
13, 5240, Note_off_c, 12, 52, 64
13, 5264, Note_on_c, 12, 54, 100
13, 5312, Note_off_c, 12, 54, 64
13, 5326, Note_on_c, 12, 55, 100
13, 5373, Note_off_c, 12, 55, 64
13, 5383, Note_on_c, 12, 57, 82
13, 5428, Note_off_c, 12, 57, 64
13, 5443, Note_on_c, 12, 59, 98
13, 5480, Note_off_c, 12, 59, 64
13, 5501, Note_on_c, 12, 60, 98
13, 5540, Note_off_c, 12, 60, 64
13, 5559, Note_on_c, 12, 59, 102
13, 5595, Note_off_c, 12, 59, 64
13, 5618, Note_on_c, 12, 60, 100
13, 5656, Note_off_c, 12, 60, 64
13, 5672, Note_on_c, 12, 57, 102
13, 5703, Note_off_c, 12, 57, 64
13, 5754, Note_on_c, 12, 51, 100
13, 6022, Note_off_c, 12, 51, 64
13, 6048, Note_on_c, 12, 49, 102
13, 6083, Note_off_c, 12, 49, 64
13, 6104, Note_on_c, 12, 51, 95
13, 6137, Note_off_c, 12, 51, 64
13, 6154, Note_on_c, 12, 47, 98
13, 6200, Note_off_c, 12, 47, 64
13, 6228, Note_on_c, 12, 59, 100
13, 6320, Note_off_c, 12, 59, 64
13, 6456, Note_on_c, 12, 47, 91
13, 6560, Note_off_c, 12, 47, 64
13, 6709, Note_on_c, 12, 52, 100
13, 7282, Note_off_c, 12, 52, 64
13, 7366, Note_on_c, 12, 52, 98
13, 7402, Note_off_c, 12, 52, 64
13, 7424, Note_on_c, 12, 54, 102
13, 7511, Note_off_c, 12, 54, 64
13, 7615, Note_on_c, 12, 50, 85
13, 7664, Note_off_c, 12, 50, 64
13, 7679, Note_on_c, 12, 55, 89
13, 7784, Note_off_c, 12, 55, 64
13, 7854, Note_on_c, 12, 54, 91
13, 7887, Note_off_c, 12, 54, 64
13, 7912, Note_on_c, 12, 55, 98
13, 7995, Note_off_c, 12, 55, 64
13, 8086, Note_on_c, 12, 52, 82
13, 8126, Note_off_c, 12, 52, 64
13, 8145, Note_on_c, 12, 54, 102
13, 8233, Note_off_c, 12, 54, 64
13, 8335, Note_on_c, 12, 52, 85
13, 8382, Note_off_c, 12, 52, 64
13, 8393, Note_on_c, 12, 54, 105
13, 8485, Note_off_c, 12, 54, 64
13, 8577, Note_on_c, 12, 55, 87
13, 8616, Note_off_c, 12, 55, 64
13, 8636, Note_on_c, 12, 57, 87
13, 9410, Note_off_c, 12, 57, 64
13, 9544, Note_on_c, 12, 57, 98
13, 9574, Note_off_c, 12, 57, 64
13, 9604, Note_on_c, 12, 57, 102
13, 10421, Note_off_c, 12, 57, 64
13, 10423, Note_on_c, 12, 59, 34
13, 10436, Note_off_c, 12, 59, 64
13, 10493, Note_on_c, 12, 57, 100
13, 10525, Note_off_c, 12, 57, 64
13, 10552, Note_on_c, 12, 57, 102
13, 11382, Note_off_c, 12, 57, 64
13, 11437, Note_on_c, 12, 57, 91
13, 11475, Note_off_c, 12, 57, 64
13, 11504, Note_on_c, 12, 57, 95
13, 11776, Note_off_c, 12, 57, 64
13, 11814, Note_on_c, 12, 56, 105
13, 11845, Note_off_c, 12, 56, 64
13, 11867, Note_on_c, 12, 57, 95
13, 11907, Note_off_c, 12, 57, 64
13, 11925, Note_on_c, 12, 54, 91
13, 11960, Note_off_c, 12, 54, 64
13, 11990, Note_on_c, 12, 56, 107
13, 12094, Note_off_c, 12, 56, 64
13, 12244, Note_on_c, 12, 52, 98
13, 12333, Note_off_c, 12, 52, 64
13, 12482, Note_on_c, 12, 57, 102
13, 12974, Note_off_c, 12, 57, 64
13, 13029, Note_on_c, 12, 57, 100
13, 13069, Note_off_c, 12, 57, 64
13, 13084, Note_on_c, 12, 59, 93
13, 13123, Note_off_c, 12, 59, 64
13, 13139, Note_on_c, 12, 61, 98
13, 13181, Note_off_c, 12, 61, 64
13, 13198, Note_on_c, 12, 62, 89
13, 13239, Note_off_c, 12, 62, 64
13, 13258, Note_on_c, 12, 61, 105
13, 13294, Note_off_c, 12, 61, 64
13, 13317, Note_on_c, 12, 62, 95
13, 13355, Note_off_c, 12, 62, 64
13, 13377, Note_on_c, 12, 59, 102
13, 13415, Note_off_c, 12, 59, 64
13, 13444, Note_on_c, 12, 57, 107
13, 13567, Note_on_c, 12, 56, 82
13, 13578, Note_off_c, 12, 57, 64
13, 13774, Note_off_c, 12, 56, 64
13, 13841, Note_on_c, 12, 54, 100
13, 13876, Note_off_c, 12, 54, 64
13, 13898, Note_on_c, 12, 53, 85
13, 14004, Note_off_c, 12, 53, 64
13, 14140, Note_on_c, 12, 49, 95
13, 14235, Note_off_c, 12, 49, 64
13, 14380, Note_on_c, 12, 54, 98
13, 14884, Note_off_c, 12, 54, 64
13, 14926, Note_on_c, 12, 52, 89
13, 14968, Note_off_c, 12, 52, 64
13, 14984, Note_on_c, 12, 54, 89
13, 15027, Note_off_c, 12, 54, 64
13, 15041, Note_on_c, 12, 56, 95
13, 15083, Note_off_c, 12, 56, 64
13, 15104, Note_on_c, 12, 57, 95
13, 15144, Note_off_c, 12, 57, 64
13, 15165, Note_on_c, 12, 56, 105
13, 15199, Note_off_c, 12, 56, 64
13, 15223, Note_on_c, 12, 57, 95
13, 15265, Note_off_c, 12, 57, 64
13, 15281, Note_on_c, 12, 54, 89
13, 15322, Note_off_c, 12, 54, 64
13, 15344, Note_on_c, 12, 56, 100
13, 15436, Note_off_c, 12, 56, 64
13, 15525, Note_on_c, 12, 52, 85
13, 15564, Note_off_c, 12, 52, 64
13, 15584, Note_on_c, 12, 57, 91
13, 15661, Note_off_c, 12, 57, 64
13, 15762, Note_on_c, 12, 59, 70
13, 15807, Note_off_c, 12, 59, 64
13, 15823, Note_on_c, 12, 61, 87
13, 15928, Note_off_c, 12, 61, 64
13, 15999, Note_on_c, 12, 62, 80
13, 16039, Note_off_c, 12, 62, 64
13, 16065, Note_on_c, 12, 61, 100
13, 16090, Note_on_c, 12, 59, 85
13, 16091, Note_off_c, 12, 61, 64
13, 16117, Note_on_c, 12, 61, 89
13, 16124, Note_off_c, 12, 59, 64
13, 16144, Note_on_c, 12, 59, 85
13, 16160, Note_off_c, 12, 61, 64
13, 16193, Note_off_c, 12, 59, 64
13, 16251, Note_on_c, 12, 57, 95
13, 16280, Note_off_c, 12, 57, 64
13, 16316, Note_on_c, 12, 52, 85
13, 17124, Note_off_c, 12, 52, 64
13, 17199, Note_on_c, 12, 52, 98
13, 17231, Note_off_c, 12, 52, 64
13, 17265, Note_on_c, 12, 52, 100
13, 18096, Note_off_c, 12, 52, 64
13, 18176, Note_on_c, 12, 52, 95
13, 18209, Note_off_c, 12, 52, 64
13, 18239, Note_on_c, 12, 52, 100
13, 19084, Note_off_c, 12, 52, 64
13, 19149, Note_on_c, 12, 52, 95
13, 19179, Note_off_c, 12, 52, 64
13, 19208, Note_on_c, 12, 52, 100
13, 20047, Note_off_c, 12, 52, 64
13, 20095, Note_on_c, 12, 52, 98
13, 20125, Note_off_c, 12, 52, 64
13, 20158, Note_on_c, 12, 52, 102
13, 20660, Note_off_c, 12, 52, 64
13, 20691, Note_on_c, 12, 54, 98
13, 20726, Note_off_c, 12, 54, 64
13, 20750, Note_on_c, 12, 52, 98
13, 20801, Note_off_c, 12, 52, 64
13, 20809, Note_on_c, 12, 50, 89
13, 20842, Note_off_c, 12, 50, 64
13, 20870, Note_on_c, 12, 49, 93
13, 20912, Note_off_c, 12, 49, 64
13, 20926, Note_on_c, 12, 47, 91
13, 20963, Note_off_c, 12, 47, 64
13, 20987, Note_on_c, 12, 49, 105
13, 21023, Note_off_c, 12, 49, 64
13, 21045, Note_on_c, 12, 45, 89
13, 21090, Note_off_c, 12, 45, 64
13, 21120, Note_on_c, 12, 54, 102
13, 21623, Note_off_c, 12, 54, 64
13, 21652, Note_on_c, 12, 55, 80
13, 21696, Note_off_c, 12, 55, 64
13, 21711, Note_on_c, 12, 54, 100
13, 21746, Note_off_c, 12, 54, 64
13, 21767, Note_on_c, 12, 52, 85
13, 21819, Note_off_c, 12, 52, 64
13, 21830, Note_on_c, 12, 50, 87
13, 21865, Note_off_c, 12, 50, 64
13, 21888, Note_on_c, 12, 49, 98
13, 21924, Note_off_c, 12, 49, 64
13, 21949, Note_on_c, 12, 50, 89
13, 21984, Note_off_c, 12, 50, 64
13, 22001, Note_on_c, 12, 47, 91
13, 22044, Note_off_c, 12, 47, 64
13, 22069, Note_on_c, 12, 56, 98
13, 22152, Note_off_c, 12, 56, 64
13, 22240, Note_on_c, 12, 52, 78
13, 22298, Note_off_c, 12, 52, 64
13, 22308, Note_on_c, 12, 57, 91
13, 22405, Note_off_c, 12, 57, 64
13, 22488, Note_on_c, 12, 50, 70
13, 22528, Note_off_c, 12, 50, 64
13, 22552, Note_on_c, 12, 52, 91
13, 22654, Note_off_c, 12, 52, 64
13, 22789, Note_on_c, 12, 40, 98
13, 22887, Note_off_c, 12, 40, 64
13, 23038, Note_on_c, 12, 45, 105
13, 23283, Note_off_c, 12, 45, 64
13, 51668, Note_on_c, 12, 62, 85
13, 51735, Note_off_c, 12, 62, 64
13, 51798, Note_on_c, 12, 62, 100
13, 51909, Note_on_c, 12, 64, 64
13, 51937, Note_off_c, 12, 62, 64
13, 51983, Note_off_c, 12, 64, 64
13, 52030, Note_on_c, 12, 60, 74
13, 52077, Note_off_c, 12, 60, 64
13, 52156, Note_on_c, 12, 60, 91
13, 52268, Note_on_c, 12, 62, 66
13, 52286, Note_off_c, 12, 60, 64
13, 52352, Note_off_c, 12, 62, 64
13, 52390, Note_on_c, 12, 59, 62
13, 52439, Note_off_c, 12, 59, 64
13, 52516, Note_on_c, 12, 59, 87
13, 52624, Note_on_c, 12, 61, 58
13, 52656, Note_off_c, 12, 59, 64
13, 52746, Note_on_c, 12, 62, 76
13, 52766, Note_off_c, 12, 61, 64
13, 52808, Note_off_c, 12, 62, 64
13, 52889, Note_on_c, 12, 64, 89
13, 53002, Note_on_c, 12, 66, 61
13, 53027, Note_off_c, 12, 64, 64
13, 53092, Note_off_c, 12, 66, 64
13, 53126, Note_on_c, 12, 62, 72
13, 53184, Note_off_c, 12, 62, 64
13, 53265, Note_on_c, 12, 62, 98
13, 53366, Note_on_c, 12, 64, 64
13, 53394, Note_off_c, 12, 62, 64
13, 53453, Note_off_c, 12, 64, 64
13, 53493, Note_on_c, 12, 61, 64
13, 53555, Note_off_c, 12, 61, 64
13, 53627, Note_on_c, 12, 61, 60
13, 53774, Note_off_c, 12, 61, 64
13, 53855, Note_on_c, 12, 61, 54
13, 53925, Note_off_c, 12, 61, 64
13, 53988, Note_on_c, 12, 61, 59
13, 54154, Note_off_c, 12, 61, 64
13, 54233, Note_on_c, 12, 61, 56
13, 54296, Note_off_c, 12, 61, 64
13, 54354, Note_on_c, 12, 61, 66
13, 54510, Note_off_c, 12, 61, 64
13, 54572, Note_on_c, 12, 61, 68
13, 54649, Note_off_c, 12, 61, 64
13, 54707, Note_on_c, 12, 62, 85
13, 54843, Note_off_c, 12, 62, 64
13, 54923, Note_on_c, 12, 57, 78
13, 54975, Note_off_c, 12, 57, 64
13, 55047, Note_on_c, 12, 57, 100
13, 55153, Note_on_c, 12, 59, 76
13, 55178, Note_off_c, 12, 57, 64
13, 55230, Note_off_c, 12, 59, 64
13, 55280, Note_on_c, 12, 55, 80
13, 55335, Note_off_c, 12, 55, 64
13, 55400, Note_on_c, 12, 55, 95
13, 55508, Note_on_c, 12, 57, 66
13, 55529, Note_off_c, 12, 55, 64
13, 55589, Note_off_c, 12, 57, 64
13, 55641, Note_on_c, 12, 54, 80
13, 55702, Note_off_c, 12, 54, 64
13, 55774, Note_on_c, 12, 54, 85
13, 55869, Note_on_c, 12, 56, 68
13, 55889, Note_off_c, 12, 54, 64
13, 55947, Note_off_c, 12, 56, 64
13, 55988, Note_on_c, 12, 57, 68
13, 56049, Note_off_c, 12, 57, 64
13, 56125, Note_on_c, 12, 59, 95
13, 56242, Note_on_c, 12, 61, 66
13, 56258, Note_off_c, 12, 59, 64
13, 56330, Note_off_c, 12, 61, 64
13, 56363, Note_on_c, 12, 57, 68
13, 56408, Note_off_c, 12, 57, 64
13, 56489, Note_on_c, 12, 57, 100
13, 56597, Note_on_c, 12, 59, 74
13, 56620, Note_off_c, 12, 57, 64
13, 56689, Note_off_c, 12, 59, 64
13, 56714, Note_on_c, 12, 56, 82
13, 56768, Note_off_c, 12, 56, 64
13, 56838, Note_on_c, 12, 56, 89
13, 56973, Note_off_c, 12, 56, 64
13, 57080, Note_on_c, 12, 56, 57
13, 57142, Note_off_c, 12, 56, 64
13, 57198, Note_on_c, 12, 56, 60
13, 57344, Note_off_c, 12, 56, 64
13, 57434, Note_on_c, 12, 56, 52
13, 57491, Note_off_c, 12, 56, 64
13, 57556, Note_on_c, 12, 56, 63
13, 57700, Note_off_c, 12, 56, 64
13, 57775, Note_on_c, 12, 56, 63
13, 57846, Note_off_c, 12, 56, 64
13, 57909, Note_on_c, 12, 57, 87
13, 58044, Note_off_c, 12, 57, 64
13, 58114, Note_on_c, 12, 55, 60
13, 58188, Note_off_c, 12, 55, 64
13, 58235, Note_on_c, 12, 54, 55
13, 58391, Note_off_c, 12, 54, 64
13, 58483, Note_on_c, 12, 54, 58
13, 58550, Note_off_c, 12, 54, 64
13, 58611, Note_on_c, 12, 54, 68
13, 58734, Note_off_c, 12, 54, 64
13, 58823, Note_on_c, 12, 54, 76
13, 58899, Note_off_c, 12, 54, 64
13, 58962, Note_on_c, 12, 55, 91
13, 59086, Note_on_c, 12, 52, 74
13, 59097, Note_off_c, 12, 55, 64
13, 59153, Note_off_c, 12, 52, 64
13, 59199, Note_on_c, 12, 54, 82
13, 59270, Note_off_c, 12, 54, 64
13, 59338, Note_on_c, 12, 55, 100
13, 59441, Note_on_c, 12, 57, 70
13, 59464, Note_off_c, 12, 55, 64
13, 59513, Note_off_c, 12, 57, 64
13, 59568, Note_on_c, 12, 54, 91
13, 59633, Note_off_c, 12, 54, 64
13, 59696, Note_on_c, 12, 54, 93
13, 59797, Note_on_c, 12, 55, 66
13, 59822, Note_off_c, 12, 54, 64
13, 59876, Note_off_c, 12, 55, 64
13, 59925, Note_on_c, 12, 52, 80
13, 59986, Note_off_c, 12, 52, 64
13, 60071, Note_on_c, 12, 52, 89
13, 60238, Note_off_c, 12, 52, 64
13, 60445, Note_on_c, 12, 40, 87
13, 60620, Note_off_c, 12, 40, 64
13, 60807, Note_on_c, 12, 52, 82
13, 60947, Note_off_c, 12, 52, 64
13, 61178, Note_on_c, 12, 57, 87
13, 61304, Note_off_c, 12, 57, 64
13, 61539, Note_on_c, 12, 45, 76
13, 61657, Note_off_c, 12, 45, 64
13, 61898, Note_on_c, 12, 57, 87
13, 62036, Note_off_c, 12, 57, 64
13, 62259, Note_on_c, 12, 62, 91
13, 62400, Note_off_c, 12, 62, 64
13, 62614, Note_on_c, 12, 38, 87
13, 62760, Note_off_c, 12, 38, 64
13, 62954, Note_on_c, 12, 50, 78
13, 63104, Note_off_c, 12, 50, 64
13, 63333, Note_on_c, 12, 55, 85
13, 63491, Note_off_c, 12, 55, 64
13, 63905, Note_on_c, 12, 52, 74
13, 63986, Note_off_c, 12, 52, 64
13, 64020, Note_on_c, 12, 54, 78
13, 64158, Note_off_c, 12, 54, 64
13, 64270, Note_on_c, 12, 55, 76
13, 64350, Note_off_c, 12, 55, 64
13, 64403, Note_on_c, 12, 57, 91
13, 64580, Note_off_c, 12, 57, 64
13, 65006, Note_on_c, 12, 54, 66
13, 65107, Note_off_c, 12, 54, 64
13, 65139, Note_on_c, 12, 55, 87
13, 65274, Note_off_c, 12, 55, 64
13, 65360, Note_on_c, 12, 57, 80
13, 65440, Note_off_c, 12, 57, 64
13, 65487, Note_on_c, 12, 59, 85
13, 65624, Note_off_c, 12, 59, 64
13, 65841, Note_on_c, 12, 55, 87
13, 65982, Note_off_c, 12, 55, 64
13, 66207, Note_on_c, 12, 54, 74
13, 66320, Note_off_c, 12, 54, 64
13, 66571, Note_on_c, 12, 52, 89
13, 66666, Note_on_c, 12, 55, 70
13, 66684, Note_off_c, 12, 52, 64
13, 66779, Note_off_c, 12, 55, 64
13, 66779, Note_on_c, 12, 59, 80
13, 66839, Note_off_c, 12, 59, 64
13, 66925, Note_on_c, 12, 64, 87
13, 67040, Note_on_c, 12, 66, 78
13, 67046, Note_off_c, 12, 64, 64
13, 67116, Note_off_c, 12, 66, 64
13, 67155, Note_on_c, 12, 62, 76
13, 67208, Note_off_c, 12, 62, 64
13, 67272, Note_on_c, 12, 62, 91
13, 67377, Note_on_c, 12, 64, 68
13, 67400, Note_off_c, 12, 62, 64
13, 67452, Note_off_c, 12, 64, 64
13, 67505, Note_on_c, 12, 61, 85
13, 67575, Note_off_c, 12, 61, 64
13, 67647, Note_on_c, 12, 61, 95
13, 67829, Note_off_c, 12, 61, 64
13, 68207, Note_on_c, 12, 57, 76
13, 68285, Note_off_c, 12, 57, 64
13, 68336, Note_on_c, 12, 54, 89
13, 68484, Note_off_c, 12, 54, 64
13, 68592, Note_on_c, 12, 57, 80
13, 68676, Note_off_c, 12, 57, 64
13, 68725, Note_on_c, 12, 50, 82
13, 68858, Note_off_c, 12, 50, 64
13, 68958, Note_on_c, 12, 52, 64
13, 69038, Note_off_c, 12, 52, 64
13, 69081, Note_on_c, 12, 54, 87
13, 69220, Note_off_c, 12, 54, 64
13, 69315, Note_on_c, 12, 55, 76
13, 69409, Note_off_c, 12, 55, 64
13, 69441, Note_on_c, 12, 57, 89
13, 69535, Note_off_c, 12, 57, 64
13, 69677, Note_on_c, 12, 45, 85
13, 69778, Note_off_c, 12, 45, 64
13, 69803, Note_on_c, 12, 50, 76
13, 70021, Note_off_c, 12, 50, 64
13, 70912, Note_on_c, 12, 38, 93
13, 71079, Note_off_c, 12, 38, 64
13, 71990, Note_on_c, 12, 50, 82
13, 72177, Note_off_c, 12, 50, 64
13, 92507, Note_on_c, 12, 45, 91
13, 92660, Note_off_c, 12, 45, 64
13, 92877, Note_on_c, 12, 49, 72
13, 93030, Note_off_c, 12, 49, 64
13, 93230, Note_on_c, 12, 52, 87
13, 93369, Note_off_c, 12, 52, 64
13, 93601, Note_on_c, 12, 57, 98
13, 93734, Note_off_c, 12, 57, 64
13, 93957, Note_on_c, 12, 49, 76
13, 94096, Note_off_c, 12, 49, 64
13, 94305, Note_on_c, 12, 52, 78
13, 94452, Note_off_c, 12, 52, 64
13, 94663, Note_on_c, 12, 45, 80
13, 94861, Note_off_c, 12, 45, 64
13, 95936, Note_on_c, 12, 57, 64
13, 95984, Note_off_c, 12, 57, 64
13, 96076, Note_on_c, 12, 57, 93
13, 96175, Note_on_c, 12, 59, 68
13, 96191, Note_off_c, 12, 57, 64
13, 96252, Note_off_c, 12, 59, 64
13, 96290, Note_on_c, 12, 56, 76
13, 96344, Note_off_c, 12, 56, 64
13, 96413, Note_on_c, 12, 56, 102
13, 96526, Note_on_c, 12, 57, 68
13, 96546, Note_off_c, 12, 56, 64
13, 96603, Note_off_c, 12, 57, 64
13, 96648, Note_on_c, 12, 54, 64
13, 96701, Note_off_c, 12, 54, 64
13, 96787, Note_on_c, 12, 54, 87
13, 96886, Note_on_c, 12, 56, 74
13, 96914, Note_off_c, 12, 54, 64
13, 96963, Note_off_c, 12, 56, 64
13, 97010, Note_on_c, 12, 57, 70
13, 97071, Note_off_c, 12, 57, 64
13, 97163, Note_on_c, 12, 59, 100
13, 97277, Note_on_c, 12, 61, 66
13, 97286, Note_off_c, 12, 59, 64
13, 97368, Note_off_c, 12, 61, 64
13, 97389, Note_on_c, 12, 57, 68
13, 97440, Note_off_c, 12, 57, 64
13, 97523, Note_on_c, 12, 57, 100
13, 97619, Note_on_c, 12, 59, 64
13, 97638, Note_off_c, 12, 57, 64
13, 97707, Note_off_c, 12, 59, 64
13, 97752, Note_on_c, 12, 56, 72
13, 97817, Note_off_c, 12, 56, 64
13, 97905, Note_on_c, 12, 56, 82
13, 98029, Note_off_c, 12, 56, 64
13, 98128, Note_on_c, 12, 56, 55
13, 98191, Note_off_c, 12, 56, 64
13, 98259, Note_on_c, 12, 56, 57
13, 98382, Note_off_c, 12, 56, 64
13, 98499, Note_on_c, 12, 56, 57
13, 98560, Note_off_c, 12, 56, 64
13, 98627, Note_on_c, 12, 56, 80
13, 98742, Note_off_c, 12, 56, 64
13, 98846, Note_on_c, 12, 56, 61
13, 98933, Note_off_c, 12, 56, 64
13, 98979, Note_on_c, 12, 57, 76
13, 99082, Note_off_c, 12, 57, 64
13, 99210, Note_on_c, 12, 52, 80
13, 99273, Note_off_c, 12, 52, 64
13, 99347, Note_on_c, 12, 52, 100
13, 99440, Note_on_c, 12, 54, 64
13, 99453, Note_off_c, 12, 52, 64
13, 99509, Note_off_c, 12, 54, 64
13, 99566, Note_on_c, 12, 50, 74
13, 99615, Note_off_c, 12, 50, 64
13, 99694, Note_on_c, 12, 50, 85
13, 99805, Note_on_c, 12, 52, 66
13, 99819, Note_off_c, 12, 50, 64
13, 99883, Note_off_c, 12, 52, 64
13, 99929, Note_on_c, 12, 49, 82
13, 99987, Note_off_c, 12, 49, 64
13, 100065, Note_on_c, 12, 49, 91
13, 100169, Note_on_c, 12, 50, 72
13, 100184, Note_off_c, 12, 49, 64
13, 100283, Note_on_c, 12, 52, 80
13, 100299, Note_off_c, 12, 50, 64
13, 100364, Note_off_c, 12, 52, 64
13, 100418, Note_on_c, 12, 54, 105
13, 100526, Note_on_c, 12, 55, 70
13, 100547, Note_off_c, 12, 54, 64
13, 100601, Note_off_c, 12, 55, 64
13, 100643, Note_on_c, 12, 52, 72
13, 100697, Note_off_c, 12, 52, 64
13, 100772, Note_on_c, 12, 52, 89
13, 100878, Note_on_c, 12, 54, 57
13, 100889, Note_off_c, 12, 52, 64
13, 100949, Note_off_c, 12, 54, 64
13, 101008, Note_on_c, 12, 51, 76
13, 101073, Note_off_c, 12, 51, 64
13, 101150, Note_on_c, 12, 51, 66
13, 101278, Note_off_c, 12, 51, 64
13, 101384, Note_on_c, 12, 51, 59
13, 101452, Note_off_c, 12, 51, 64
13, 101510, Note_on_c, 12, 51, 64
13, 101652, Note_off_c, 12, 51, 64
13, 101739, Note_on_c, 12, 51, 64
13, 101805, Note_off_c, 12, 51, 64
13, 101863, Note_on_c, 12, 51, 76
13, 101989, Note_off_c, 12, 51, 64
13, 102080, Note_on_c, 12, 51, 59
13, 102158, Note_off_c, 12, 51, 64
13, 102209, Note_on_c, 12, 52, 82
13, 102340, Note_off_c, 12, 52, 64
13, 102437, Note_on_c, 12, 50, 72
13, 102491, Note_off_c, 12, 50, 64
13, 102556, Note_on_c, 12, 49, 85
13, 102695, Note_off_c, 12, 49, 64
13, 102806, Note_on_c, 12, 49, 57
13, 102860, Note_off_c, 12, 49, 64
13, 102921, Note_on_c, 12, 49, 62
13, 103071, Note_off_c, 12, 49, 64
13, 103160, Note_on_c, 12, 49, 70
13, 103224, Note_off_c, 12, 49, 64
13, 103294, Note_on_c, 12, 50, 87
13, 103400, Note_on_c, 12, 47, 63
13, 103412, Note_off_c, 12, 50, 64
13, 103476, Note_off_c, 12, 47, 64
13, 103514, Note_on_c, 12, 49, 80
13, 103580, Note_off_c, 12, 49, 64
13, 103650, Note_on_c, 12, 50, 100
13, 103751, Note_on_c, 12, 52, 62
13, 103758, Note_off_c, 12, 50, 64
13, 103809, Note_off_c, 12, 52, 64
13, 103866, Note_on_c, 12, 49, 91
13, 103924, Note_off_c, 12, 49, 64
13, 104000, Note_on_c, 12, 49, 93
13, 104100, Note_on_c, 12, 50, 66
13, 104111, Note_off_c, 12, 49, 64
13, 104192, Note_off_c, 12, 50, 64
13, 104194, Note_on_c, 12, 47, 68
13, 104266, Note_off_c, 12, 47, 64
13, 104354, Note_on_c, 12, 47, 91
13, 104525, Note_off_c, 12, 47, 64
13, 104734, Note_on_c, 12, 59, 87
13, 104858, Note_off_c, 12, 59, 64
13, 105087, Note_on_c, 12, 47, 72
13, 105247, Note_off_c, 12, 47, 64
13, 105447, Note_on_c, 12, 52, 85
13, 105582, Note_off_c, 12, 52, 64
13, 105814, Note_on_c, 12, 40, 93
13, 105967, Note_off_c, 12, 40, 64
13, 106163, Note_on_c, 12, 52, 78
13, 106305, Note_off_c, 12, 52, 64
13, 106520, Note_on_c, 12, 57, 78
13, 106638, Note_off_c, 12, 57, 64
13, 106883, Note_on_c, 12, 45, 87
13, 107020, Note_off_c, 12, 45, 64
13, 107247, Note_on_c, 12, 57, 87
13, 107385, Note_off_c, 12, 57, 64
13, 107607, Note_on_c, 12, 50, 87
13, 107749, Note_off_c, 12, 50, 64
13, 108165, Note_on_c, 12, 47, 87
13, 108253, Note_off_c, 12, 47, 64
13, 108280, Note_on_c, 12, 49, 80
13, 108413, Note_off_c, 12, 49, 64
13, 108536, Note_on_c, 12, 50, 78
13, 108609, Note_off_c, 12, 50, 64
13, 108667, Note_on_c, 12, 52, 89
13, 108818, Note_off_c, 12, 52, 64
13, 109236, Note_on_c, 12, 49, 62
13, 109333, Note_off_c, 12, 49, 64
13, 109367, Note_on_c, 12, 50, 80
13, 109502, Note_off_c, 12, 50, 64
13, 109623, Note_on_c, 12, 52, 66
13, 109709, Note_off_c, 12, 52, 64
13, 109769, Note_on_c, 12, 54, 89
13, 109905, Note_off_c, 12, 54, 64
13, 110136, Note_on_c, 12, 50, 89
13, 110262, Note_off_c, 12, 50, 64
13, 110501, Note_on_c, 12, 49, 78
13, 110598, Note_off_c, 12, 49, 64
13, 110868, Note_on_c, 12, 47, 89
13, 110960, Note_on_c, 12, 50, 76
13, 110976, Note_off_c, 12, 47, 64
13, 111074, Note_on_c, 12, 54, 66
13, 111093, Note_off_c, 12, 50, 64
13, 111141, Note_off_c, 12, 54, 64
13, 111221, Note_on_c, 12, 59, 82
13, 111342, Note_on_c, 12, 61, 62
13, 111360, Note_off_c, 12, 59, 64
13, 111429, Note_off_c, 12, 61, 64
13, 111444, Note_on_c, 12, 57, 66
13, 111495, Note_off_c, 12, 57, 64
13, 111576, Note_on_c, 12, 57, 100
13, 111670, Note_on_c, 12, 59, 66
13, 111687, Note_off_c, 12, 57, 64
13, 111747, Note_off_c, 12, 59, 64
13, 111786, Note_on_c, 12, 56, 95
13, 111853, Note_off_c, 12, 56, 64
13, 111927, Note_on_c, 12, 56, 93
13, 112096, Note_off_c, 12, 56, 64
13, 112515, Note_on_c, 12, 52, 76
13, 112593, Note_off_c, 12, 52, 64
13, 112641, Note_on_c, 12, 49, 82
13, 112758, Note_off_c, 12, 49, 64
13, 112863, Note_on_c, 12, 52, 78
13, 112940, Note_off_c, 12, 52, 64
13, 112996, Note_on_c, 12, 45, 80
13, 113124, Note_off_c, 12, 45, 64
13, 113208, Note_on_c, 12, 47, 72
13, 113284, Note_off_c, 12, 47, 64
13, 113334, Note_on_c, 12, 49, 82
13, 113462, Note_off_c, 12, 49, 64
13, 113577, Note_on_c, 12, 50, 78
13, 113673, Note_off_c, 12, 50, 64
13, 113718, Note_on_c, 12, 52, 89
13, 113833, Note_off_c, 12, 52, 64
13, 113958, Note_on_c, 12, 40, 87
13, 114042, Note_off_c, 12, 40, 64
13, 114081, Note_on_c, 12, 45, 80
13, 114490, Note_off_c, 12, 45, 64
13, 128142, Note_on_c, 12, 59, 85
13, 128324, Note_off_c, 12, 59, 64
13, 129208, Note_on_c, 12, 54, 78
13, 129330, Note_off_c, 12, 54, 64
13, 129451, Note_on_c, 12, 42, 80
13, 129527, Note_off_c, 12, 42, 64
13, 129575, Note_on_c, 12, 42, 100
13, 129725, Note_off_c, 12, 42, 64
13, 129791, Note_on_c, 12, 42, 78
13, 129865, Note_off_c, 12, 42, 64
13, 129915, Note_on_c, 12, 42, 82
13, 130047, Note_off_c, 12, 42, 64
13, 130143, Note_on_c, 12, 42, 91
13, 130212, Note_off_c, 12, 42, 64
13, 130284, Note_on_c, 12, 42, 98
13, 130403, Note_off_c, 12, 42, 64
13, 130499, Note_on_c, 12, 52, 70
13, 130576, Note_off_c, 12, 52, 64
13, 130621, Note_on_c, 12, 50, 87
13, 130752, Note_off_c, 12, 50, 64
13, 130864, Note_on_c, 12, 55, 78
13, 130940, Note_off_c, 12, 55, 64
13, 130999, Note_on_c, 12, 49, 89
13, 131130, Note_off_c, 12, 49, 64
13, 131213, Note_on_c, 12, 54, 70
13, 131249, Note_off_c, 12, 54, 64
13, 131352, Note_on_c, 12, 47, 91
13, 131449, Note_on_c, 12, 50, 70
13, 131480, Note_off_c, 12, 47, 64
13, 131559, Note_on_c, 12, 54, 70
13, 131586, Note_off_c, 12, 50, 64
13, 131640, Note_off_c, 12, 54, 64
13, 131712, Note_on_c, 12, 59, 87
13, 131831, Note_on_c, 12, 61, 64
13, 131841, Note_off_c, 12, 59, 64
13, 131915, Note_off_c, 12, 61, 64
13, 131930, Note_on_c, 12, 57, 64
13, 131978, Note_off_c, 12, 57, 64
13, 132066, Note_on_c, 12, 57, 95
13, 132165, Note_on_c, 12, 59, 66
13, 132192, Note_off_c, 12, 57, 64
13, 132245, Note_off_c, 12, 59, 64
13, 132279, Note_on_c, 12, 55, 59
13, 132333, Note_off_c, 12, 55, 64
13, 132428, Note_on_c, 12, 55, 87
13, 132542, Note_on_c, 12, 52, 82
13, 132549, Note_off_c, 12, 55, 64
13, 132650, Note_on_c, 12, 54, 82
13, 132672, Note_off_c, 12, 52, 64
13, 132759, Note_off_c, 12, 54, 64
13, 132779, Note_on_c, 12, 55, 87
13, 132896, Note_on_c, 12, 57, 68
13, 132902, Note_off_c, 12, 55, 64
13, 132961, Note_off_c, 12, 57, 64
13, 133024, Note_on_c, 12, 54, 89
13, 133078, Note_off_c, 12, 54, 64
13, 133154, Note_on_c, 12, 54, 102
13, 133262, Note_on_c, 12, 55, 68
13, 133290, Note_off_c, 12, 54, 64
13, 133331, Note_off_c, 12, 55, 64
13, 133371, Note_on_c, 12, 52, 74
13, 133418, Note_off_c, 12, 52, 64
13, 133508, Note_on_c, 12, 52, 91
13, 133668, Note_off_c, 12, 52, 64
13, 133722, Note_on_c, 12, 50, 76
13, 133816, Note_off_c, 12, 50, 64
13, 133858, Note_on_c, 12, 49, 76
13, 134012, Note_off_c, 12, 49, 64
13, 134086, Note_on_c, 12, 52, 78
13, 134167, Note_off_c, 12, 52, 64
13, 134228, Note_on_c, 12, 46, 85
13, 134349, Note_off_c, 12, 46, 64
13, 134457, Note_on_c, 12, 49, 85
13, 134534, Note_off_c, 12, 49, 64
13, 134608, Note_on_c, 12, 42, 76
13, 134979, Note_off_c, 12, 42, 64
13, 135198, Note_on_c, 12, 55, 78
13, 135272, Note_off_c, 12, 55, 64
13, 135326, Note_on_c, 12, 54, 91
13, 135450, Note_off_c, 12, 54, 64
13, 135560, Note_on_c, 12, 52, 82
13, 135621, Note_off_c, 12, 52, 64
13, 135683, Note_on_c, 12, 50, 87
13, 135834, Note_off_c, 12, 50, 64
13, 135906, Note_on_c, 12, 47, 68
13, 135980, Note_off_c, 12, 47, 64
13, 136046, Note_on_c, 12, 52, 82
13, 136160, Note_on_c, 12, 54, 76
13, 136162, Note_off_c, 12, 52, 64
13, 136251, Note_off_c, 12, 54, 64
13, 136268, Note_on_c, 12, 55, 87
13, 136338, Note_off_c, 12, 55, 64
13, 136415, Note_on_c, 12, 54, 107
13, 136523, Note_off_c, 12, 54, 64
13, 136649, Note_on_c, 12, 42, 80
13, 136722, Note_off_c, 12, 42, 64
13, 136786, Note_on_c, 12, 47, 93
13, 137090, Note_off_c, 12, 47, 64
13, 158968, Note_on_c, 12, 43, 66
13, 159044, Note_off_c, 12, 43, 64
13, 159110, Note_on_c, 12, 43, 87
13, 159243, Note_off_c, 12, 43, 64
13, 159328, Note_on_c, 12, 43, 64
13, 159398, Note_off_c, 12, 43, 64
13, 159461, Note_on_c, 12, 48, 95
13, 159602, Note_off_c, 12, 48, 64
13, 160035, Note_on_c, 12, 45, 61
13, 160111, Note_off_c, 12, 45, 64
13, 160172, Note_on_c, 12, 45, 76
13, 160309, Note_off_c, 12, 45, 64
13, 160389, Note_on_c, 12, 45, 68
13, 160469, Note_off_c, 12, 45, 64
13, 160534, Note_on_c, 12, 50, 95
13, 160702, Note_off_c, 12, 50, 64
13, 161117, Note_on_c, 12, 47, 68
13, 161191, Note_off_c, 12, 47, 64
13, 161256, Note_on_c, 12, 47, 80
13, 161390, Note_off_c, 12, 47, 64
13, 161493, Note_on_c, 12, 47, 64
13, 161578, Note_off_c, 12, 47, 64
13, 161627, Note_on_c, 12, 52, 85
13, 161780, Note_off_c, 12, 52, 64
13, 164150, Note_on_c, 12, 59, 87
13, 164274, Note_off_c, 12, 59, 64
13, 164489, Note_on_c, 12, 47, 76
13, 164649, Note_off_c, 12, 47, 64
13, 165221, Note_on_c, 12, 52, 89
13, 165347, Note_off_c, 12, 52, 64
13, 165576, Note_on_c, 12, 40, 87
13, 165720, Note_off_c, 12, 40, 64
13, 166296, Note_on_c, 12, 57, 89
13, 166427, Note_off_c, 12, 57, 64
13, 166668, Note_on_c, 12, 45, 82
13, 166812, Note_off_c, 12, 45, 64
13, 167397, Note_on_c, 12, 50, 89
13, 167529, Note_off_c, 12, 50, 64
13, 167752, Note_on_c, 12, 38, 98
13, 167885, Note_off_c, 12, 38, 64
13, 168474, Note_on_c, 12, 55, 87
13, 168598, Note_off_c, 12, 55, 64
13, 168812, Note_on_c, 12, 43, 89
13, 168953, Note_off_c, 12, 43, 64
13, 169543, Note_on_c, 12, 55, 85
13, 169671, Note_off_c, 12, 55, 64
13, 169916, Note_on_c, 12, 43, 95
13, 170033, Note_off_c, 12, 43, 64
13, 170281, Note_on_c, 12, 45, 64
13, 173460, Note_off_c, 12, 45, 64
13, 173499, Note_on_c, 12, 46, 74
13, 173697, Note_off_c, 12, 46, 64
13, 174599, Note_on_c, 12, 45, 72
13, 174768, Note_off_c, 12, 45, 64
13, 175886, Note_on_c, 12, 44, 57
13, 175953, Note_off_c, 12, 44, 64
13, 176014, Note_on_c, 12, 44, 68
13, 176142, Note_off_c, 12, 44, 64
13, 176241, Note_on_c, 12, 44, 64
13, 176309, Note_off_c, 12, 44, 64
13, 176370, Note_on_c, 12, 44, 85
13, 176484, Note_off_c, 12, 44, 64
13, 176597, Note_on_c, 12, 44, 64
13, 176666, Note_off_c, 12, 44, 64
13, 176723, Note_on_c, 12, 45, 78
13, 176842, Note_off_c, 12, 45, 64
13, 176955, Note_on_c, 12, 45, 78
13, 177024, Note_off_c, 12, 45, 64
13, 177080, Note_on_c, 12, 45, 91
13, 177193, Note_off_c, 12, 45, 64
13, 177314, Note_on_c, 12, 45, 80
13, 177380, Note_off_c, 12, 45, 64
13, 177443, Note_on_c, 12, 45, 80
13, 177540, Note_off_c, 12, 45, 64
13, 177654, Note_on_c, 12, 45, 64
13, 177735, Note_off_c, 12, 45, 64
13, 177794, Note_on_c, 12, 47, 95
13, 177891, Note_off_c, 12, 47, 64
13, 178017, Note_on_c, 12, 40, 98
13, 178107, Note_off_c, 12, 40, 64
13, 178133, Note_on_c, 12, 42, 89
13, 178248, Note_off_c, 12, 42, 64
13, 178376, Note_on_c, 12, 43, 76
13, 178451, Note_off_c, 12, 43, 64
13, 178498, Note_on_c, 12, 45, 100
13, 178613, Note_off_c, 12, 45, 64
13, 178721, Note_on_c, 12, 45, 85
13, 178784, Note_off_c, 12, 45, 64
13, 178872, Note_on_c, 12, 38, 91
13, 179054, Note_off_c, 12, 38, 64
13, 200528, Note_on_c, 12, 50, 116
13, 201317, Note_off_c, 12, 50, 64
13, 201328, Note_on_c, 12, 52, 87
13, 201371, Note_off_c, 12, 52, 64
13, 201387, Note_on_c, 12, 54, 91
13, 201423, Note_off_c, 12, 54, 64
13, 201431, Note_on_c, 12, 50, 98
13, 201483, Note_off_c, 12, 50, 64
13, 201492, Note_on_c, 12, 60, 98
13, 202216, Note_off_c, 12, 60, 64
13, 202243, Note_on_c, 12, 59, 98
13, 202281, Note_off_c, 12, 59, 64
13, 202304, Note_on_c, 12, 60, 91
13, 202338, Note_off_c, 12, 60, 64
13, 202360, Note_on_c, 12, 57, 87
13, 202412, Note_off_c, 12, 57, 64
13, 202439, Note_on_c, 12, 63, 100
13, 202961, Note_off_c, 12, 63, 64
13, 202979, Note_on_c, 12, 61, 87
13, 203038, Note_off_c, 12, 61, 64
13, 203039, Note_on_c, 12, 59, 85
13, 203087, Note_off_c, 12, 59, 64
13, 203099, Note_on_c, 12, 61, 100
13, 203138, Note_off_c, 12, 61, 64
13, 203161, Note_on_c, 12, 63, 105
13, 203206, Note_off_c, 12, 63, 64
13, 203217, Note_on_c, 12, 61, 102
13, 203261, Note_off_c, 12, 61, 64
13, 203274, Note_on_c, 12, 63, 102
13, 203318, Note_off_c, 12, 63, 64
13, 203322, Note_on_c, 12, 59, 87
13, 203373, Note_off_c, 12, 59, 64
13, 203392, Note_on_c, 12, 64, 93
13, 203485, Note_off_c, 12, 64, 64
13, 203575, Note_on_c, 12, 59, 89
13, 203616, Note_off_c, 12, 59, 64
13, 203636, Note_on_c, 12, 59, 93
13, 203720, Note_off_c, 12, 59, 64
13, 203810, Note_on_c, 12, 55, 82
13, 203849, Note_off_c, 12, 55, 64
13, 203871, Note_on_c, 12, 55, 89
13, 203959, Note_off_c, 12, 55, 64
13, 204051, Note_on_c, 12, 52, 85
13, 204088, Note_off_c, 12, 52, 64
13, 204110, Note_on_c, 12, 52, 95
13, 204187, Note_off_c, 12, 52, 64
13, 204285, Note_on_c, 12, 45, 82
13, 204324, Note_off_c, 12, 45, 64
13, 204347, Note_on_c, 12, 45, 102
13, 204459, Note_off_c, 12, 45, 64
13, 204515, Note_on_c, 12, 57, 82
13, 204553, Note_off_c, 12, 57, 64
13, 204577, Note_on_c, 12, 57, 102
13, 204676, Note_off_c, 12, 57, 64
13, 204764, Note_on_c, 12, 52, 82
13, 204803, Note_off_c, 12, 52, 64
13, 204824, Note_on_c, 12, 52, 89
13, 204920, Note_off_c, 12, 52, 64
13, 204996, Note_on_c, 12, 49, 82
13, 205031, Note_off_c, 12, 49, 64
13, 205056, Note_on_c, 12, 49, 98
13, 205145, Note_off_c, 12, 49, 64
13, 205235, Note_on_c, 12, 45, 87
13, 205283, Note_off_c, 12, 45, 64
13, 205301, Note_on_c, 12, 50, 100
13, 205393, Note_off_c, 12, 50, 64
13, 205484, Note_on_c, 12, 45, 89
13, 205526, Note_off_c, 12, 45, 64
13, 205547, Note_on_c, 12, 45, 102
13, 205629, Note_off_c, 12, 45, 64
13, 205712, Note_on_c, 12, 42, 105
13, 205757, Note_off_c, 12, 42, 64
13, 205782, Note_on_c, 12, 42, 107
13, 205872, Note_off_c, 12, 42, 64
13, 205955, Note_on_c, 12, 38, 91
13, 206000, Note_off_c, 12, 38, 64
13, 206015, Note_on_c, 12, 38, 85
13, 206101, Note_off_c, 12, 38, 64
13, 206192, Note_on_c, 12, 42, 100
13, 206234, Note_off_c, 12, 42, 64
13, 206255, Note_on_c, 12, 43, 107
13, 206336, Note_off_c, 12, 43, 64
13, 206442, Note_on_c, 12, 47, 87
13, 206483, Note_off_c, 12, 47, 64
13, 206506, Note_on_c, 12, 47, 102
13, 206592, Note_off_c, 12, 47, 64
13, 206683, Note_on_c, 12, 52, 78
13, 206720, Note_off_c, 12, 52, 64
13, 206745, Note_on_c, 12, 52, 98
13, 206849, Note_off_c, 12, 52, 64
13, 206923, Note_on_c, 12, 55, 82
13, 206958, Note_off_c, 12, 55, 64
13, 206981, Note_on_c, 12, 55, 87
13, 207078, Note_off_c, 12, 55, 64
13, 207165, Note_on_c, 12, 52, 68
13, 207207, Note_off_c, 12, 52, 64
13, 207239, Note_on_c, 12, 49, 82
13, 207326, Note_off_c, 12, 49, 64
13, 207416, Note_on_c, 12, 45, 82
13, 207452, Note_off_c, 12, 45, 64
13, 207475, Note_on_c, 12, 45, 100
13, 207559, Note_off_c, 12, 45, 64
13, 207645, Note_on_c, 12, 49, 66
13, 207682, Note_off_c, 12, 49, 64
13, 207708, Note_on_c, 12, 50, 91
13, 208450, Note_off_c, 12, 50, 64
13, 208496, Note_on_c, 12, 49, 100
13, 208531, Note_off_c, 12, 49, 64
13, 208550, Note_on_c, 12, 50, 87
13, 208592, Note_off_c, 12, 50, 64
13, 208605, Note_on_c, 12, 47, 91
13, 208652, Note_off_c, 12, 47, 64
13, 208670, Note_on_c, 12, 49, 105
13, 208764, Note_off_c, 12, 49, 64
13, 208914, Note_on_c, 12, 45, 80
13, 209004, Note_off_c, 12, 45, 64
13, 209156, Note_on_c, 12, 50, 85
13, 209660, Note_off_c, 12, 50, 64
13, 209714, Note_on_c, 12, 50, 89
13, 209760, Note_off_c, 12, 50, 64
13, 209769, Note_on_c, 12, 52, 87
13, 209806, Note_off_c, 12, 52, 64
13, 209826, Note_on_c, 12, 54, 93
13, 209861, Note_off_c, 12, 54, 64
13, 209886, Note_on_c, 12, 55, 89
13, 209925, Note_off_c, 12, 55, 64
13, 209945, Note_on_c, 12, 54, 102
13, 209978, Note_off_c, 12, 54, 64
13, 210004, Note_on_c, 12, 55, 93
13, 210043, Note_off_c, 12, 55, 64
13, 210061, Note_on_c, 12, 52, 85
13, 210090, Note_off_c, 12, 52, 64
13, 210128, Note_on_c, 12, 50, 105
13, 210239, Note_off_c, 12, 50, 64
13, 210242, Note_on_c, 12, 49, 70
13, 210446, Note_off_c, 12, 49, 64
13, 210534, Note_on_c, 12, 47, 87
13, 210575, Note_off_c, 12, 47, 64
13, 210596, Note_on_c, 12, 46, 102
13, 210687, Note_off_c, 12, 46, 64
13, 210824, Note_on_c, 12, 42, 87
13, 210908, Note_off_c, 12, 42, 64
13, 211071, Note_on_c, 12, 47, 100
13, 211565, Note_off_c, 12, 47, 64
13, 211610, Note_on_c, 12, 45, 85
13, 211656, Note_off_c, 12, 45, 64
13, 211669, Note_on_c, 12, 47, 80
13, 211708, Note_off_c, 12, 47, 64
13, 211728, Note_on_c, 12, 49, 89
13, 211762, Note_off_c, 12, 49, 64
13, 211790, Note_on_c, 12, 50, 85
13, 211829, Note_off_c, 12, 50, 64
13, 211850, Note_on_c, 12, 49, 100
13, 211883, Note_off_c, 12, 49, 64
13, 211905, Note_on_c, 12, 50, 80
13, 211947, Note_off_c, 12, 50, 64
13, 211970, Note_on_c, 12, 47, 91
13, 212004, Note_off_c, 12, 47, 64
13, 212035, Note_on_c, 12, 49, 100
13, 212118, Note_off_c, 12, 49, 64
13, 212207, Note_on_c, 12, 45, 80
13, 212250, Note_off_c, 12, 45, 64
13, 212275, Note_on_c, 12, 50, 95
13, 212360, Note_off_c, 12, 50, 64
13, 212446, Note_on_c, 12, 52, 70
13, 212492, Note_off_c, 12, 52, 64
13, 212510, Note_on_c, 12, 54, 91
13, 212588, Note_off_c, 12, 54, 64
13, 212683, Note_on_c, 12, 55, 85
13, 212722, Note_off_c, 12, 55, 64
13, 212744, Note_on_c, 12, 52, 98
13, 212826, Note_off_c, 12, 52, 64
13, 212924, Note_on_c, 12, 50, 74
13, 212956, Note_off_c, 12, 50, 64
13, 212984, Note_on_c, 12, 45, 78
13, 213852, Note_off_c, 12, 45, 64
13, 213882, Note_on_c, 12, 45, 98
13, 213915, Note_off_c, 12, 45, 64
13, 213945, Note_on_c, 12, 45, 100
13, 214805, Note_off_c, 12, 45, 64
13, 214855, Note_on_c, 12, 45, 100
13, 214884, Note_off_c, 12, 45, 64
13, 214909, Note_on_c, 12, 45, 98
13, 215774, Note_off_c, 12, 45, 64
13, 215823, Note_on_c, 12, 45, 95
13, 215852, Note_off_c, 12, 45, 64
13, 215880, Note_on_c, 12, 45, 102
13, 216733, Note_off_c, 12, 45, 64
13, 216774, Note_on_c, 12, 45, 89
13, 216804, Note_off_c, 12, 45, 64
13, 216834, Note_on_c, 12, 45, 95
13, 217351, Note_off_c, 12, 45, 64
13, 217377, Note_on_c, 12, 47, 91
13, 217419, Note_off_c, 12, 47, 64
13, 217437, Note_on_c, 12, 45, 87
13, 217481, Note_off_c, 12, 45, 64
13, 217498, Note_on_c, 12, 43, 85
13, 217533, Note_off_c, 12, 43, 64
13, 217559, Note_on_c, 12, 42, 100
13, 217606, Note_off_c, 12, 42, 64
13, 217616, Note_on_c, 12, 40, 80
13, 217656, Note_off_c, 12, 40, 64
13, 217670, Note_on_c, 12, 42, 98
13, 217707, Note_off_c, 12, 42, 64
13, 217717, Note_on_c, 12, 38, 87
13, 217765, Note_off_c, 12, 38, 64
13, 217784, Note_on_c, 12, 47, 98
13, 218296, Note_off_c, 12, 47, 64
13, 218326, Note_on_c, 12, 48, 87
13, 218364, Note_off_c, 12, 48, 64
13, 218384, Note_on_c, 12, 47, 95
13, 218425, Note_off_c, 12, 47, 64
13, 218446, Note_on_c, 12, 45, 91
13, 218492, Note_off_c, 12, 45, 64
13, 218507, Note_on_c, 12, 43, 80
13, 218565, Note_on_c, 12, 42, 87
13, 218572, Note_off_c, 12, 43, 64
13, 218601, Note_off_c, 12, 42, 64
13, 218621, Note_on_c, 12, 43, 82
13, 218658, Note_off_c, 12, 43, 64
13, 218675, Note_on_c, 12, 40, 87
13, 218713, Note_off_c, 12, 40, 64
13, 218735, Note_on_c, 12, 49, 100
13, 218816, Note_off_c, 12, 49, 64
13, 218921, Note_on_c, 12, 45, 82
13, 218968, Note_off_c, 12, 45, 64
13, 218985, Note_on_c, 12, 50, 102
13, 219066, Note_off_c, 12, 50, 64
13, 219144, Note_on_c, 12, 43, 76
13, 219186, Note_off_c, 12, 43, 64
13, 219216, Note_on_c, 12, 45, 93
13, 219346, Note_off_c, 12, 45, 64
13, 219464, Note_on_c, 12, 45, 100
13, 219554, Note_off_c, 12, 45, 64
13, 219685, Note_on_c, 12, 50, 95
13, 219831, Note_off_c, 12, 50, 64
13, 219946, Note_on_c, 12, 52, 82
13, 220011, Note_off_c, 12, 52, 64
13, 220068, Note_on_c, 12, 54, 98
13, 220178, Note_on_c, 12, 57, 76
13, 220193, Note_off_c, 12, 54, 64
13, 220247, Note_off_c, 12, 57, 64
13, 220290, Note_on_c, 12, 56, 63
13, 220342, Note_off_c, 12, 56, 64
13, 220401, Note_on_c, 12, 56, 107
13, 220508, Note_on_c, 12, 59, 72
13, 220536, Note_off_c, 12, 56, 64
13, 220583, Note_off_c, 12, 59, 64
13, 220623, Note_on_c, 12, 57, 78
13, 220673, Note_off_c, 12, 57, 64
13, 220742, Note_on_c, 12, 57, 82
13, 221125, Note_off_c, 12, 57, 64
13, 289890, Note_on_c, 12, 45, 78
13, 290141, Note_off_c, 12, 45, 64
13, 291002, Note_on_c, 12, 45, 66
13, 291251, Note_off_c, 12, 45, 64
13, 292279, Note_on_c, 12, 45, 66
13, 292347, Note_off_c, 12, 45, 64
13, 292409, Note_on_c, 12, 49, 89
13, 292535, Note_off_c, 12, 49, 64
13, 292652, Note_on_c, 12, 52, 82
13, 292724, Note_off_c, 12, 52, 64
13, 292774, Note_on_c, 12, 49, 98
13, 292893, Note_off_c, 12, 49, 64
13, 293031, Note_on_c, 12, 45, 66
13, 293085, Note_off_c, 12, 45, 64
13, 293172, Note_on_c, 12, 50, 85
13, 293418, Note_off_c, 12, 50, 64
13, 294231, Note_on_c, 12, 50, 78
13, 294475, Note_off_c, 12, 50, 64
13, 295285, Note_on_c, 12, 50, 80
13, 295560, Note_off_c, 12, 50, 64
13, 296610, Note_on_c, 12, 50, 85
13, 296689, Note_off_c, 12, 50, 64
13, 296732, Note_on_c, 12, 54, 82
13, 296878, Note_off_c, 12, 54, 64
13, 296979, Note_on_c, 12, 57, 82
13, 297062, Note_off_c, 12, 57, 64
13, 297110, Note_on_c, 12, 54, 76
13, 297224, Note_off_c, 12, 54, 64
13, 297324, Note_on_c, 12, 50, 80
13, 297396, Note_off_c, 12, 50, 64
13, 297472, Note_on_c, 12, 43, 87
13, 297598, Note_off_c, 12, 43, 64
13, 297697, Note_on_c, 12, 55, 66
13, 297752, Note_off_c, 12, 55, 64
13, 297832, Note_on_c, 12, 55, 93
13, 297940, Note_on_c, 12, 57, 66
13, 297969, Note_off_c, 12, 55, 64
13, 298001, Note_off_c, 12, 57, 64
13, 298062, Note_on_c, 12, 54, 85
13, 298115, Note_off_c, 12, 54, 64
13, 298194, Note_on_c, 12, 54, 95
13, 298293, Note_on_c, 12, 55, 74
13, 298325, Note_off_c, 12, 54, 64
13, 298372, Note_off_c, 12, 55, 64
13, 298413, Note_on_c, 12, 52, 74
13, 298460, Note_off_c, 12, 52, 64
13, 298545, Note_on_c, 12, 52, 98
13, 298649, Note_on_c, 12, 54, 72
13, 298687, Note_off_c, 12, 52, 64
13, 298764, Note_on_c, 12, 56, 74
13, 298786, Note_off_c, 12, 54, 64
13, 298858, Note_off_c, 12, 56, 64
13, 298901, Note_on_c, 12, 57, 89
13, 299018, Note_on_c, 12, 59, 80
13, 299051, Note_off_c, 12, 57, 64
13, 299083, Note_off_c, 12, 59, 64
13, 299133, Note_on_c, 12, 55, 78
13, 299184, Note_off_c, 12, 55, 64
13, 299258, Note_on_c, 12, 55, 100
13, 299367, Note_on_c, 12, 57, 68
13, 299380, Note_off_c, 12, 55, 64
13, 299450, Note_off_c, 12, 57, 64
13, 299499, Note_on_c, 12, 54, 80
13, 299560, Note_off_c, 12, 54, 64
13, 299634, Note_on_c, 12, 54, 93
13, 299735, Note_on_c, 12, 56, 66
13, 299772, Note_off_c, 12, 54, 64
13, 299850, Note_on_c, 12, 58, 60
13, 299866, Note_off_c, 12, 56, 64
13, 299925, Note_off_c, 12, 58, 64
13, 299981, Note_on_c, 12, 59, 89
13, 300089, Note_on_c, 12, 61, 62
13, 300105, Note_off_c, 12, 59, 64
13, 300192, Note_off_c, 12, 61, 64
13, 300204, Note_on_c, 12, 57, 57
13, 300260, Note_off_c, 12, 57, 64
13, 300338, Note_on_c, 12, 57, 87
13, 300455, Note_on_c, 12, 59, 72
13, 300476, Note_off_c, 12, 57, 64
13, 300539, Note_off_c, 12, 59, 64
13, 300595, Note_on_c, 12, 56, 85
13, 300656, Note_off_c, 12, 56, 64
13, 300723, Note_on_c, 12, 56, 102
13, 300825, Note_on_c, 12, 58, 63
13, 300857, Note_off_c, 12, 56, 64
13, 300921, Note_off_c, 12, 58, 64
13, 300937, Note_on_c, 12, 59, 72
13, 301018, Note_off_c, 12, 59, 64
13, 301068, Note_on_c, 12, 61, 93
13, 301178, Note_on_c, 12, 62, 74
13, 301214, Note_off_c, 12, 61, 64
13, 301257, Note_off_c, 12, 62, 64
13, 301288, Note_on_c, 12, 59, 72
13, 301347, Note_off_c, 12, 59, 64
13, 301419, Note_on_c, 12, 59, 98
13, 301522, Note_on_c, 12, 61, 59
13, 301540, Note_off_c, 12, 59, 64
13, 301612, Note_off_c, 12, 61, 64
13, 301632, Note_on_c, 12, 58, 68
13, 301692, Note_off_c, 12, 58, 64
13, 301783, Note_on_c, 12, 58, 85
13, 301997, Note_off_c, 12, 58, 64
13, 313884, Note_on_c, 12, 59, 63
13, 313937, Note_off_c, 12, 59, 64
13, 314027, Note_on_c, 12, 59, 100
13, 314131, Note_on_c, 12, 60, 70
13, 314169, Note_off_c, 12, 59, 64
13, 314204, Note_off_c, 12, 60, 64
13, 314252, Note_on_c, 12, 57, 66
13, 314304, Note_off_c, 12, 57, 64
13, 314383, Note_on_c, 12, 57, 85
13, 314502, Note_off_c, 12, 57, 64
13, 314502, Note_on_c, 12, 59, 68
13, 314570, Note_off_c, 12, 59, 64
13, 314604, Note_on_c, 12, 55, 66
13, 314667, Note_off_c, 12, 55, 64
13, 314745, Note_on_c, 12, 55, 82
13, 314849, Note_on_c, 12, 57, 80
13, 314867, Note_off_c, 12, 55, 64
13, 314959, Note_on_c, 12, 59, 80
13, 314979, Note_off_c, 12, 57, 64
13, 315035, Note_off_c, 12, 59, 64
13, 315085, Note_on_c, 12, 60, 91
13, 315195, Note_on_c, 12, 62, 78
13, 315216, Note_off_c, 12, 60, 64
13, 315269, Note_off_c, 12, 62, 64
13, 315321, Note_on_c, 12, 59, 80
13, 315386, Note_off_c, 12, 59, 64
13, 315452, Note_on_c, 12, 59, 89
13, 315560, Note_on_c, 12, 60, 70
13, 315575, Note_off_c, 12, 59, 64
13, 315654, Note_off_c, 12, 60, 64
13, 315681, Note_on_c, 12, 57, 61
13, 315756, Note_off_c, 12, 57, 64
13, 315810, Note_on_c, 12, 57, 72
13, 315949, Note_off_c, 12, 57, 64
13, 316035, Note_on_c, 12, 57, 61
13, 316097, Note_off_c, 12, 57, 64
13, 316163, Note_on_c, 12, 57, 78
13, 316322, Note_off_c, 12, 57, 64
13, 316392, Note_on_c, 12, 57, 72
13, 316462, Note_off_c, 12, 57, 64
13, 316520, Note_on_c, 12, 57, 87
13, 316685, Note_off_c, 12, 57, 64
13, 316752, Note_on_c, 12, 57, 78
13, 316820, Note_off_c, 12, 57, 64
13, 316887, Note_on_c, 12, 57, 87
13, 317000, Note_off_c, 12, 57, 64
13, 317001, Note_on_c, 12, 54, 66
13, 317074, Note_off_c, 12, 54, 64
13, 317126, Note_on_c, 12, 55, 64
13, 317209, Note_off_c, 12, 55, 64
13, 317259, Note_on_c, 12, 57, 89
13, 317371, Note_on_c, 12, 66, 80
13, 317375, Note_off_c, 12, 57, 64
13, 317454, Note_off_c, 12, 66, 64
13, 317488, Note_on_c, 12, 55, 72
13, 317556, Note_off_c, 12, 55, 64
13, 317614, Note_on_c, 12, 57, 85
13, 317715, Note_off_c, 12, 57, 64
13, 317722, Note_on_c, 12, 55, 85
13, 317805, Note_off_c, 12, 55, 64
13, 317823, Note_on_c, 12, 54, 70
13, 317875, Note_off_c, 12, 54, 64
13, 317958, Note_on_c, 12, 55, 85
13, 318073, Note_off_c, 12, 55, 64
13, 318075, Note_on_c, 12, 52, 80
13, 318172, Note_off_c, 12, 52, 64
13, 318197, Note_on_c, 12, 54, 62
13, 318255, Note_off_c, 12, 54, 64
13, 318325, Note_on_c, 12, 55, 68
13, 318449, Note_on_c, 12, 64, 68
13, 318464, Note_off_c, 12, 55, 64
13, 318506, Note_off_c, 12, 64, 64
13, 318570, Note_on_c, 12, 54, 85
13, 318626, Note_off_c, 12, 54, 64
13, 318694, Note_on_c, 12, 55, 100
13, 318809, Note_on_c, 12, 54, 70
13, 318820, Note_off_c, 12, 55, 64
13, 318887, Note_off_c, 12, 54, 64
13, 318905, Note_on_c, 12, 52, 76
13, 318969, Note_off_c, 12, 52, 64
13, 319034, Note_on_c, 12, 54, 98
13, 319144, Note_on_c, 12, 50, 78
13, 319176, Note_off_c, 12, 54, 64
13, 319254, Note_off_c, 12, 50, 64
13, 319261, Note_on_c, 12, 52, 78
13, 319306, Note_off_c, 12, 52, 64
13, 319394, Note_on_c, 12, 54, 78
13, 319502, Note_on_c, 12, 62, 66
13, 319509, Note_off_c, 12, 54, 64
13, 319567, Note_off_c, 12, 62, 64
13, 319623, Note_on_c, 12, 52, 70
13, 319693, Note_off_c, 12, 52, 64
13, 319758, Note_on_c, 12, 54, 98
13, 319871, Note_on_c, 12, 52, 70
13, 319887, Note_off_c, 12, 54, 64
13, 319958, Note_off_c, 12, 52, 64
13, 319970, Note_on_c, 12, 50, 66
13, 320039, Note_off_c, 12, 50, 64
13, 320105, Note_on_c, 12, 52, 89
13, 320220, Note_on_c, 12, 48, 80
13, 320231, Note_off_c, 12, 52, 64
13, 320332, Note_on_c, 12, 50, 70
13, 320348, Note_off_c, 12, 48, 64
13, 320386, Note_off_c, 12, 50, 64
13, 320467, Note_on_c, 12, 52, 85
13, 320583, Note_on_c, 12, 60, 66
13, 320593, Note_off_c, 12, 52, 64
13, 320653, Note_off_c, 12, 60, 64
13, 320687, Note_on_c, 12, 50, 64
13, 320760, Note_off_c, 12, 50, 64
13, 320820, Note_on_c, 12, 52, 87
13, 320931, Note_off_c, 12, 52, 64
13, 320935, Note_on_c, 12, 50, 85
13, 321011, Note_off_c, 12, 50, 64
13, 321044, Note_on_c, 12, 48, 87
13, 321115, Note_off_c, 12, 48, 64
13, 321205, Note_on_c, 12, 50, 98
13, 321405, Note_off_c, 12, 50, 64
13, 322303, Note_on_c, 12, 50, 105
13, 322485, Note_off_c, 12, 50, 64
13, 323626, Note_on_c, 12, 38, 68
13, 323682, Note_off_c, 12, 38, 64
13, 323765, Note_on_c, 12, 38, 100
13, 323901, Note_off_c, 12, 38, 64
13, 323986, Note_on_c, 12, 38, 89
13, 324047, Note_off_c, 12, 38, 64
13, 324112, Note_on_c, 12, 38, 85
13, 324238, Note_off_c, 12, 38, 64
13, 324328, Note_on_c, 12, 38, 95
13, 324398, Note_off_c, 12, 38, 64
13, 324465, Note_on_c, 12, 38, 105
13, 324594, Note_off_c, 12, 38, 64
13, 324672, Note_on_c, 12, 48, 80
13, 324760, Note_off_c, 12, 48, 64
13, 324796, Note_on_c, 12, 47, 82
13, 324940, Note_off_c, 12, 47, 64
13, 325030, Note_on_c, 12, 52, 80
13, 325111, Note_off_c, 12, 52, 64
13, 325167, Note_on_c, 12, 45, 87
13, 325293, Note_off_c, 12, 45, 64
13, 325377, Note_on_c, 12, 50, 85
13, 325448, Note_off_c, 12, 50, 64
13, 325523, Note_on_c, 12, 43, 98
13, 325619, Note_off_c, 12, 43, 64
13, 325719, Note_on_c, 12, 50, 68
13, 325786, Note_off_c, 12, 50, 64
13, 325871, Note_on_c, 12, 55, 100
13, 325979, Note_on_c, 12, 57, 70
13, 325991, Note_off_c, 12, 55, 64
13, 326038, Note_off_c, 12, 57, 64
13, 326096, Note_on_c, 12, 54, 89
13, 326148, Note_off_c, 12, 54, 64
13, 326229, Note_on_c, 12, 54, 98
13, 326331, Note_on_c, 12, 55, 70
13, 326360, Note_off_c, 12, 54, 64
13, 326405, Note_off_c, 12, 55, 64
13, 326454, Note_on_c, 12, 52, 72
13, 326504, Note_off_c, 12, 52, 64
13, 326594, Note_on_c, 12, 52, 95
13, 326711, Note_on_c, 12, 48, 82
13, 326717, Note_off_c, 12, 52, 64
13, 326778, Note_off_c, 12, 48, 64
13, 326828, Note_on_c, 12, 50, 82
13, 326893, Note_off_c, 12, 50, 64
13, 326969, Note_on_c, 12, 52, 98
13, 327075, Note_on_c, 12, 53, 66
13, 327096, Note_off_c, 12, 52, 64
13, 327142, Note_off_c, 12, 53, 64
13, 327192, Note_on_c, 12, 50, 85
13, 327248, Note_off_c, 12, 50, 64
13, 327321, Note_on_c, 12, 50, 100
13, 327433, Note_on_c, 12, 52, 64
13, 327444, Note_off_c, 12, 50, 64
13, 327519, Note_off_c, 12, 52, 64
13, 327555, Note_on_c, 12, 48, 80
13, 327609, Note_off_c, 12, 48, 64
13, 327686, Note_on_c, 12, 48, 95
13, 327843, Note_off_c, 12, 48, 64
13, 327903, Note_on_c, 12, 47, 76
13, 327980, Note_off_c, 12, 47, 64
13, 328027, Note_on_c, 12, 45, 85
13, 328149, Note_off_c, 12, 45, 64
13, 328268, Note_on_c, 12, 48, 85
13, 328355, Note_off_c, 12, 48, 64
13, 328401, Note_on_c, 12, 42, 98
13, 328531, Note_off_c, 12, 42, 64
13, 328617, Note_on_c, 12, 45, 85
13, 328688, Note_off_c, 12, 45, 64
13, 328763, Note_on_c, 12, 36, 98
13, 329129, Note_off_c, 12, 36, 64
13, 329348, Note_on_c, 12, 52, 85
13, 329417, Note_off_c, 12, 52, 64
13, 329471, Note_on_c, 12, 50, 87
13, 329607, Note_off_c, 12, 50, 64
13, 329697, Note_on_c, 12, 48, 78
13, 329784, Note_off_c, 12, 48, 64
13, 329834, Note_on_c, 12, 47, 80
13, 329931, Note_off_c, 12, 47, 64
13, 329957, Note_on_c, 12, 48, 80
13, 330054, Note_off_c, 12, 48, 64
13, 330086, Note_on_c, 12, 50, 85
13, 330158, Note_off_c, 12, 50, 64
13, 330212, Note_on_c, 12, 52, 89
13, 330318, Note_off_c, 12, 52, 64
13, 330425, Note_on_c, 12, 48, 68
13, 330489, Note_off_c, 12, 48, 64
13, 330567, Note_on_c, 12, 50, 91
13, 330675, Note_off_c, 12, 50, 64
13, 330772, Note_on_c, 12, 38, 85
13, 330842, Note_off_c, 12, 38, 64
13, 330918, Note_on_c, 12, 43, 89
13, 331067, Note_off_c, 12, 43, 64
13, 331289, Note_on_c, 12, 47, 93
13, 331411, Note_off_c, 12, 47, 64
13, 331641, Note_on_c, 12, 50, 85
13, 331775, Note_off_c, 12, 50, 64
13, 332020, Note_on_c, 12, 55, 89
13, 332133, Note_off_c, 12, 55, 64
13, 332379, Note_on_c, 12, 47, 91
13, 332509, Note_off_c, 12, 47, 64
13, 332734, Note_on_c, 12, 50, 89
13, 332864, Note_off_c, 12, 50, 64
13, 333107, Note_on_c, 12, 43, 95
13, 333254, Note_off_c, 12, 43, 64
13, 354917, Note_on_c, 12, 62, 70
13, 354977, Note_off_c, 12, 62, 64
13, 355049, Note_on_c, 12, 62, 100
13, 355158, Note_on_c, 12, 64, 64
13, 355180, Note_off_c, 12, 62, 64
13, 355225, Note_off_c, 12, 64, 64
13, 355275, Note_on_c, 12, 60, 76
13, 355326, Note_off_c, 12, 60, 64
13, 355421, Note_on_c, 12, 60, 95
13, 355529, Note_on_c, 12, 62, 74
13, 355533, Note_off_c, 12, 60, 64
13, 355603, Note_off_c, 12, 62, 64
13, 355635, Note_on_c, 12, 59, 74
13, 355702, Note_off_c, 12, 59, 64
13, 355781, Note_on_c, 12, 59, 89
13, 355885, Note_on_c, 12, 61, 70
13, 355923, Note_off_c, 12, 59, 64
13, 356008, Note_on_c, 12, 62, 80
13, 356015, Note_off_c, 12, 61, 64
13, 356121, Note_off_c, 12, 62, 64
13, 356130, Note_on_c, 12, 64, 82
13, 356242, Note_on_c, 12, 66, 74
13, 356269, Note_off_c, 12, 64, 64
13, 356323, Note_off_c, 12, 66, 64
13, 356358, Note_on_c, 12, 62, 70
13, 356415, Note_off_c, 12, 62, 64
13, 356503, Note_on_c, 12, 62, 100
13, 356607, Note_on_c, 12, 64, 70
13, 356624, Note_off_c, 12, 62, 64
13, 356694, Note_off_c, 12, 64, 64
13, 356726, Note_on_c, 12, 61, 64
13, 356780, Note_off_c, 12, 61, 64
13, 356865, Note_on_c, 12, 61, 68
13, 356980, Note_off_c, 12, 61, 64
13, 357095, Note_on_c, 12, 61, 57
13, 357155, Note_off_c, 12, 61, 64
13, 357232, Note_on_c, 12, 61, 80
13, 357356, Note_off_c, 12, 61, 64
13, 357453, Note_on_c, 12, 61, 63
13, 357515, Note_off_c, 12, 61, 64
13, 357590, Note_on_c, 12, 61, 87
13, 357684, Note_off_c, 12, 61, 64
13, 357801, Note_on_c, 12, 61, 68
13, 357891, Note_off_c, 12, 61, 64
13, 357930, Note_on_c, 12, 62, 87
13, 358029, Note_off_c, 12, 62, 64
13, 358155, Note_on_c, 12, 57, 80
13, 358215, Note_off_c, 12, 57, 64
13, 358290, Note_on_c, 12, 57, 105
13, 358393, Note_on_c, 12, 59, 72
13, 358418, Note_off_c, 12, 57, 64
13, 358460, Note_off_c, 12, 59, 64
13, 358506, Note_on_c, 12, 55, 76
13, 358563, Note_off_c, 12, 55, 64
13, 358641, Note_on_c, 12, 55, 98
13, 358744, Note_on_c, 12, 57, 68
13, 358758, Note_off_c, 12, 55, 64
13, 358829, Note_off_c, 12, 57, 64
13, 358870, Note_on_c, 12, 54, 72
13, 358926, Note_off_c, 12, 54, 64
13, 358996, Note_on_c, 12, 54, 87
13, 359100, Note_on_c, 12, 56, 80
13, 359129, Note_off_c, 12, 54, 64
13, 359203, Note_off_c, 12, 56, 64
13, 359208, Note_on_c, 12, 57, 80
13, 359322, Note_off_c, 12, 57, 64
13, 359338, Note_on_c, 12, 59, 91
13, 359451, Note_off_c, 12, 59, 64
13, 359451, Note_on_c, 12, 61, 64
13, 359527, Note_off_c, 12, 61, 64
13, 359563, Note_on_c, 12, 57, 80
13, 359617, Note_off_c, 12, 57, 64
13, 359703, Note_on_c, 12, 57, 100
13, 359808, Note_on_c, 12, 59, 66
13, 359820, Note_off_c, 12, 57, 64
13, 359871, Note_off_c, 12, 59, 64
13, 359932, Note_on_c, 12, 56, 61
13, 359995, Note_off_c, 12, 56, 64
13, 360080, Note_on_c, 12, 56, 80
13, 360197, Note_off_c, 12, 56, 64
13, 360326, Note_on_c, 12, 56, 57
13, 360387, Note_off_c, 12, 56, 64
13, 360458, Note_on_c, 12, 56, 80
13, 360587, Note_off_c, 12, 56, 64
13, 360674, Note_on_c, 12, 56, 63
13, 360733, Note_off_c, 12, 56, 64
13, 360798, Note_on_c, 12, 56, 80
13, 360902, Note_off_c, 12, 56, 64
13, 361025, Note_on_c, 12, 56, 72
13, 361097, Note_off_c, 12, 56, 64
13, 361152, Note_on_c, 12, 57, 89
13, 361266, Note_off_c, 12, 57, 64
13, 361370, Note_on_c, 12, 55, 64
13, 361422, Note_off_c, 12, 55, 64
13, 361503, Note_on_c, 12, 54, 63
13, 361635, Note_off_c, 12, 54, 64
13, 361734, Note_on_c, 12, 54, 63
13, 361804, Note_off_c, 12, 54, 64
13, 361865, Note_on_c, 12, 54, 87
13, 361980, Note_off_c, 12, 54, 64
13, 362083, Note_on_c, 12, 54, 85
13, 362151, Note_off_c, 12, 54, 64
13, 362223, Note_on_c, 12, 55, 91
13, 362337, Note_on_c, 12, 52, 76
13, 362376, Note_off_c, 12, 55, 64
13, 362445, Note_on_c, 12, 54, 89
13, 362470, Note_off_c, 12, 52, 64
13, 362538, Note_off_c, 12, 54, 64
13, 362583, Note_on_c, 12, 55, 100
13, 362691, Note_on_c, 12, 57, 62
13, 362711, Note_off_c, 12, 55, 64
13, 362765, Note_off_c, 12, 57, 64
13, 362817, Note_on_c, 12, 54, 66
13, 362882, Note_off_c, 12, 54, 64
13, 362952, Note_on_c, 12, 54, 82
13, 363062, Note_on_c, 12, 55, 70
13, 363069, Note_off_c, 12, 54, 64
13, 363147, Note_off_c, 12, 55, 64
13, 363190, Note_on_c, 12, 52, 68
13, 363260, Note_off_c, 12, 52, 64
13, 363338, Note_on_c, 12, 52, 98
13, 363469, Note_off_c, 12, 52, 64
13, 363690, Note_on_c, 12, 40, 93
13, 363829, Note_off_c, 12, 40, 64
13, 364045, Note_on_c, 12, 52, 82
13, 364171, Note_off_c, 12, 52, 64
13, 364423, Note_on_c, 12, 57, 87
13, 364529, Note_off_c, 12, 57, 64
13, 364788, Note_on_c, 12, 45, 95
13, 364929, Note_off_c, 12, 45, 64
13, 365134, Note_on_c, 12, 57, 82
13, 365264, Note_off_c, 12, 57, 64
13, 365503, Note_on_c, 12, 62, 95
13, 365621, Note_off_c, 12, 62, 64
13, 365847, Note_on_c, 12, 38, 91
13, 365980, Note_off_c, 12, 38, 64
13, 366192, Note_on_c, 12, 50, 82
13, 366331, Note_off_c, 12, 50, 64
13, 366558, Note_on_c, 12, 55, 85
13, 366716, Note_off_c, 12, 55, 64
13, 367148, Note_on_c, 12, 52, 76
13, 367231, Note_off_c, 12, 52, 64
13, 367265, Note_on_c, 12, 54, 82
13, 367395, Note_off_c, 12, 54, 64
13, 367523, Note_on_c, 12, 55, 72
13, 367599, Note_off_c, 12, 55, 64
13, 367645, Note_on_c, 12, 57, 87
13, 367811, Note_off_c, 12, 57, 64
13, 368214, Note_on_c, 12, 54, 74
13, 368316, Note_off_c, 12, 54, 64
13, 368345, Note_on_c, 12, 55, 80
13, 368469, Note_off_c, 12, 55, 64
13, 368577, Note_on_c, 12, 57, 80
13, 368669, Note_off_c, 12, 57, 64
13, 368720, Note_on_c, 12, 59, 85
13, 368833, Note_off_c, 12, 59, 64
13, 369105, Note_on_c, 12, 55, 82
13, 369238, Note_off_c, 12, 55, 64
13, 369472, Note_on_c, 12, 54, 78
13, 369589, Note_off_c, 12, 54, 64
13, 369821, Note_on_c, 12, 52, 87
13, 369915, Note_on_c, 12, 55, 80
13, 369946, Note_off_c, 12, 52, 64
13, 370028, Note_on_c, 12, 59, 72
13, 370043, Note_off_c, 12, 55, 64
13, 370106, Note_off_c, 12, 59, 64
13, 370175, Note_on_c, 12, 64, 85
13, 370282, Note_on_c, 12, 66, 68
13, 370298, Note_off_c, 12, 64, 64
13, 370365, Note_off_c, 12, 66, 64
13, 370400, Note_on_c, 12, 62, 68
13, 370457, Note_off_c, 12, 62, 64
13, 370539, Note_on_c, 12, 62, 100
13, 370640, Note_on_c, 12, 64, 70
13, 370649, Note_off_c, 12, 62, 64
13, 370709, Note_off_c, 12, 64, 64
13, 370755, Note_on_c, 12, 61, 89
13, 370822, Note_off_c, 12, 61, 64
13, 370910, Note_on_c, 12, 61, 89
13, 371079, Note_off_c, 12, 61, 64
13, 371495, Note_on_c, 12, 57, 68
13, 371569, Note_off_c, 12, 57, 64
13, 371616, Note_on_c, 12, 54, 82
13, 371724, Note_off_c, 12, 54, 64
13, 371839, Note_on_c, 12, 57, 80
13, 371895, Note_off_c, 12, 57, 64
13, 371970, Note_on_c, 12, 50, 85
13, 372111, Note_off_c, 12, 50, 64
13, 372208, Note_on_c, 12, 52, 76
13, 372294, Note_off_c, 12, 52, 64
13, 372339, Note_on_c, 12, 54, 80
13, 372478, Note_off_c, 12, 54, 64
13, 372568, Note_on_c, 12, 55, 78
13, 372653, Note_off_c, 12, 55, 64
13, 372698, Note_on_c, 12, 57, 91
13, 372809, Note_off_c, 12, 57, 64
13, 372921, Note_on_c, 12, 45, 82
13, 372998, Note_off_c, 12, 45, 64
13, 373050, Note_on_c, 12, 50, 89
13, 373175, Note_off_c, 12, 50, 64
13, 373293, Note_on_c, 12, 54, 76
13, 373358, Note_off_c, 12, 54, 64
13, 373427, Note_on_c, 12, 54, 102
13, 373533, Note_on_c, 12, 55, 70
13, 373554, Note_off_c, 12, 54, 64
13, 373596, Note_off_c, 12, 55, 64
13, 373648, Note_on_c, 12, 52, 74
13, 373706, Note_off_c, 12, 52, 64
13, 373778, Note_on_c, 12, 52, 87
13, 373882, Note_on_c, 12, 54, 59
13, 373891, Note_off_c, 12, 52, 64
13, 373954, Note_off_c, 12, 54, 64
13, 373990, Note_on_c, 12, 50, 80
13, 374073, Note_off_c, 12, 50, 64
13, 374143, Note_on_c, 12, 50, 89
13, 374264, Note_on_c, 12, 52, 82
13, 374276, Note_off_c, 12, 50, 64
13, 374352, Note_off_c, 12, 52, 64
13, 374375, Note_on_c, 12, 54, 74
13, 374440, Note_off_c, 12, 54, 64
13, 374509, Note_on_c, 12, 54, 98
13, 374616, Note_on_c, 12, 55, 70
13, 374640, Note_off_c, 12, 54, 64
13, 374688, Note_off_c, 12, 55, 64
13, 374733, Note_on_c, 12, 52, 78
13, 374786, Note_off_c, 12, 52, 64
13, 374861, Note_on_c, 12, 52, 87
13, 374976, Note_on_c, 12, 54, 68
13, 374984, Note_off_c, 12, 52, 64
13, 375059, Note_off_c, 12, 54, 64
13, 375106, Note_on_c, 12, 50, 87
13, 375205, Note_off_c, 12, 50, 64
13, 375205, End_track
14, 0, Start_track
14, 0, Title_t, "Cello"
14, 0, Program_c, 13, 42
14, 0, Control_c, 13, 7, 100
14, 92735, Note_on_c, 13, 61, 72
14, 92796, Note_off_c, 13, 61, 64
14, 92869, Note_on_c, 13, 61, 91
14, 92969, Note_on_c, 13, 62, 78
14, 92998, Note_off_c, 13, 61, 64
14, 93039, Note_off_c, 13, 62, 64
14, 93092, Note_on_c, 13, 59, 85
14, 93140, Note_off_c, 13, 59, 64
14, 93236, Note_on_c, 13, 59, 95
14, 93344, Note_on_c, 13, 61, 63
14, 93356, Note_off_c, 13, 59, 64
14, 93405, Note_off_c, 13, 61, 64
14, 93443, Note_on_c, 13, 57, 66
14, 93498, Note_off_c, 13, 57, 64
14, 93587, Note_on_c, 13, 57, 89
14, 93695, Note_on_c, 13, 59, 82
14, 93722, Note_off_c, 13, 57, 64
14, 93767, Note_off_c, 13, 59, 64
14, 93817, Note_on_c, 13, 61, 80
14, 93875, Note_off_c, 13, 61, 64
14, 93952, Note_on_c, 13, 61, 102
14, 94055, Note_on_c, 13, 62, 80
14, 94080, Note_off_c, 13, 61, 64
14, 94123, Note_off_c, 13, 62, 64
14, 94179, Note_on_c, 13, 59, 78
14, 94227, Note_off_c, 13, 59, 64
14, 94310, Note_on_c, 13, 59, 95
14, 94422, Note_on_c, 13, 61, 66
14, 94425, Note_off_c, 13, 59, 64
14, 94488, Note_off_c, 13, 61, 64
14, 94536, Note_on_c, 13, 57, 82
14, 94589, Note_off_c, 13, 57, 64
14, 94676, Note_on_c, 13, 57, 91
14, 94892, Note_off_c, 13, 57, 64
14, 219716, Note_on_c, 13, 38, 95
14, 220073, Note_off_c, 13, 38, 64
14, 330939, Note_on_c, 13, 43, 76
14, 331073, Note_off_c, 13, 43, 64
14, 331168, Note_on_c, 13, 59, 68
14, 331218, Note_off_c, 13, 59, 64
14, 331298, Note_on_c, 13, 59, 95
14, 331402, Note_on_c, 13, 60, 66
14, 331415, Note_off_c, 13, 59, 64
14, 331472, Note_off_c, 13, 60, 64
14, 331508, Note_on_c, 13, 57, 66
14, 331554, Note_off_c, 13, 57, 64
14, 331647, Note_on_c, 13, 57, 95
14, 331757, Note_on_c, 13, 59, 66
14, 331767, Note_off_c, 13, 57, 64
14, 331834, Note_on_c, 13, 55, 78
14, 331838, Note_off_c, 13, 59, 64
14, 331890, Note_off_c, 13, 55, 64
14, 331997, Note_on_c, 13, 55, 89
14, 332118, Note_on_c, 13, 57, 80
14, 332127, Note_off_c, 13, 55, 64
14, 332203, Note_off_c, 13, 57, 64
14, 332237, Note_on_c, 13, 59, 82
14, 332291, Note_off_c, 13, 59, 64
14, 332370, Note_on_c, 13, 59, 102
14, 332477, Note_on_c, 13, 60, 70
14, 332489, Note_off_c, 13, 59, 64
14, 332546, Note_off_c, 13, 60, 64
14, 332603, Note_on_c, 13, 57, 80
14, 332649, Note_off_c, 13, 57, 64
14, 332745, Note_on_c, 13, 57, 95
14, 332851, Note_on_c, 13, 59, 78
14, 332860, Note_off_c, 13, 57, 64
14, 332912, Note_off_c, 13, 59, 64
14, 332975, Note_on_c, 13, 55, 76
14, 333022, Note_off_c, 13, 55, 64
14, 333118, Note_on_c, 13, 55, 89
14, 333312, Note_off_c, 13, 55, 64
14, 333312, End_track
15, 0, Start_track
15, 0, Title_t, "Trumpet"
15, 0, Program_c, 0, 56
15, 0, Control_c, 0, 7, 127
15, 23932, Note_on_c, 0, 81, 116
15, 23958, Note_off_c, 0, 81, 64
15, 23993, Note_on_c, 0, 81, 113
15, 24248, Note_off_c, 0, 81, 64
15, 24894, Note_on_c, 0, 86, 119
15, 24920, Note_off_c, 0, 86, 64
15, 24955, Note_on_c, 0, 86, 100
15, 25203, Note_off_c, 0, 86, 64
15, 25850, Note_on_c, 0, 74, 100
15, 25880, Note_off_c, 0, 74, 64
15, 25918, Note_on_c, 0, 81, 100
15, 26176, Note_off_c, 0, 81, 64
15, 26789, Note_on_c, 0, 78, 98
15, 26819, Note_off_c, 0, 78, 64
15, 26858, Note_on_c, 0, 79, 102
15, 27146, Note_off_c, 0, 79, 64
15, 27291, Note_on_c, 0, 79, 98
15, 27321, Note_off_c, 0, 79, 64
15, 27354, Note_on_c, 0, 79, 98
15, 27465, Note_off_c, 0, 79, 64
15, 27526, Note_on_c, 0, 78, 82
15, 27557, Note_on_c, 0, 76, 87
15, 27559, Note_off_c, 0, 78, 64
15, 27586, Note_off_c, 0, 76, 64
15, 27603, Note_on_c, 0, 81, 100
15, 27670, Note_off_c, 0, 81, 64
15, 27776, Note_on_c, 0, 76, 98
15, 27806, Note_off_c, 0, 76, 64
15, 27834, Note_on_c, 0, 78, 102
15, 27957, Note_off_c, 0, 78, 64
15, 28073, Note_on_c, 0, 74, 105
15, 28267, Note_off_c, 0, 74, 64
15, 31620, Note_on_c, 0, 85, 110
15, 31644, Note_off_c, 0, 85, 64
15, 31680, Note_on_c, 0, 85, 107
15, 31927, Note_off_c, 0, 85, 64
15, 32576, Note_on_c, 0, 81, 110
15, 32598, Note_off_c, 0, 81, 64
15, 32633, Note_on_c, 0, 81, 107
15, 32887, Note_off_c, 0, 81, 64
15, 33534, Note_on_c, 0, 74, 119
15, 33560, Note_off_c, 0, 74, 64
15, 33594, Note_on_c, 0, 76, 105
15, 33848, Note_off_c, 0, 76, 64
15, 34498, Note_on_c, 0, 85, 87
15, 34525, Note_off_c, 0, 85, 64
15, 34556, Note_on_c, 0, 83, 102
15, 34872, Note_off_c, 0, 83, 64
15, 34971, Note_on_c, 0, 83, 87
15, 35001, Note_off_c, 0, 83, 64
15, 35029, Note_on_c, 0, 83, 100
15, 35122, Note_off_c, 0, 83, 64
15, 35222, Note_on_c, 0, 81, 87
15, 35254, Note_off_c, 0, 81, 64
15, 35284, Note_on_c, 0, 83, 102
15, 35373, Note_off_c, 0, 83, 64
15, 35456, Note_on_c, 0, 81, 74
15, 35480, Note_on_c, 0, 80, 89
15, 35491, Note_off_c, 0, 81, 64
15, 35510, Note_off_c, 0, 80, 64
15, 35529, Note_on_c, 0, 81, 100
15, 35631, Note_off_c, 0, 81, 64
15, 35764, Note_on_c, 0, 85, 102
15, 35874, Note_off_c, 0, 85, 64
15, 45294, Note_on_c, 0, 80, 98
15, 45326, Note_off_c, 0, 80, 64
15, 45353, Note_on_c, 0, 81, 98
15, 45427, Note_off_c, 0, 81, 64
15, 45532, Note_on_c, 0, 83, 89
15, 45562, Note_off_c, 0, 83, 64
15, 45603, Note_on_c, 0, 81, 100
15, 45682, Note_on_c, 0, 80, 80
15, 45684, Note_off_c, 0, 81, 64
15, 45708, Note_off_c, 0, 80, 64
15, 45716, Note_on_c, 0, 81, 74
15, 45737, Note_on_c, 0, 80, 72
15, 45740, Note_off_c, 0, 81, 64
15, 45762, Note_off_c, 0, 80, 64
15, 45764, Note_on_c, 0, 81, 70
15, 45785, Note_on_c, 0, 80, 68
15, 45788, Note_off_c, 0, 81, 64
15, 45807, Note_on_c, 0, 81, 76
15, 45808, Note_off_c, 0, 80, 64
15, 45835, Note_on_c, 0, 80, 87
15, 45842, Note_off_c, 0, 81, 64
15, 45944, Note_off_c, 0, 80, 64
15, 46019, Note_on_c, 0, 81, 102
15, 46045, Note_off_c, 0, 81, 64
15, 46088, Note_on_c, 0, 81, 107
15, 46199, Note_off_c, 0, 81, 64
15, 115178, Note_on_c, 0, 81, 107
15, 115427, Note_off_c, 0, 81, 64
15, 116493, Note_on_c, 0, 76, 78
15, 116562, Note_off_c, 0, 76, 64
15, 116630, Note_on_c, 0, 76, 98
15, 116738, Note_on_c, 0, 79, 70
15, 116753, Note_off_c, 0, 76, 64
15, 116805, Note_off_c, 0, 79, 64
15, 116857, Note_on_c, 0, 78, 66
15, 116895, Note_off_c, 0, 78, 64
15, 116978, Note_on_c, 0, 78, 98
15, 117084, Note_on_c, 0, 81, 64
15, 117091, Note_off_c, 0, 78, 64
15, 117138, Note_off_c, 0, 81, 64
15, 117195, Note_on_c, 0, 79, 68
15, 117231, Note_off_c, 0, 79, 64
15, 117347, Note_on_c, 0, 79, 102
15, 117509, Note_off_c, 0, 79, 64
15, 117707, Note_on_c, 0, 81, 91
15, 117838, Note_off_c, 0, 81, 64
15, 118059, Note_on_c, 0, 79, 85
15, 118185, Note_off_c, 0, 79, 64
15, 118410, Note_on_c, 0, 78, 85
15, 118531, Note_off_c, 0, 78, 64
15, 118650, Note_on_c, 0, 74, 82
15, 118709, Note_off_c, 0, 74, 64
15, 118790, Note_on_c, 0, 74, 100
15, 118893, Note_off_c, 0, 74, 64
15, 118893, Note_on_c, 0, 78, 76
15, 118967, Note_off_c, 0, 78, 64
15, 119012, Note_on_c, 0, 76, 64
15, 119048, Note_off_c, 0, 76, 64
15, 119138, Note_on_c, 0, 76, 98
15, 119246, Note_off_c, 0, 76, 64
15, 119251, Note_on_c, 0, 79, 64
15, 119307, Note_off_c, 0, 79, 64
15, 119363, Note_on_c, 0, 78, 74
15, 119402, Note_off_c, 0, 78, 64
15, 119505, Note_on_c, 0, 78, 102
15, 119703, Note_off_c, 0, 78, 64
15, 122025, Note_on_c, 0, 81, 105
15, 122176, Note_off_c, 0, 81, 64
15, 122388, Note_on_c, 0, 81, 93
15, 122536, Note_off_c, 0, 81, 64
15, 122769, Note_on_c, 0, 83, 113
15, 122939, Note_off_c, 0, 83, 64
15, 146710, Note_on_c, 0, 62, 63
15, 146759, Note_off_c, 0, 62, 64
15, 146838, Note_on_c, 0, 62, 85
15, 146973, Note_off_c, 0, 62, 64
15, 147074, Note_on_c, 0, 62, 78
15, 147133, Note_off_c, 0, 62, 64
15, 147205, Note_on_c, 0, 62, 87
15, 147340, Note_off_c, 0, 62, 64
15, 147439, Note_on_c, 0, 62, 64
15, 147489, Note_off_c, 0, 62, 64
15, 147578, Note_on_c, 0, 62, 95
15, 147729, Note_off_c, 0, 62, 64
15, 148890, Note_on_c, 0, 62, 76
15, 148940, Note_off_c, 0, 62, 64
15, 149021, Note_on_c, 0, 62, 91
15, 149158, Note_off_c, 0, 62, 64
15, 149253, Note_on_c, 0, 62, 78
15, 149315, Note_off_c, 0, 62, 64
15, 149398, Note_on_c, 0, 62, 95
15, 149518, Note_off_c, 0, 62, 64
15, 149619, Note_on_c, 0, 62, 82
15, 149682, Note_off_c, 0, 62, 64
15, 149765, Note_on_c, 0, 62, 89
15, 149898, Note_off_c, 0, 62, 64
15, 190081, Note_on_c, 0, 81, 98
15, 190198, Note_off_c, 0, 81, 64
15, 190434, Note_on_c, 0, 79, 98
15, 190554, Note_off_c, 0, 79, 64
15, 190794, Note_on_c, 0, 78, 95
15, 190918, Note_off_c, 0, 78, 64
15, 191154, Note_on_c, 0, 78, 89
15, 191289, Note_off_c, 0, 78, 64
15, 191501, Note_on_c, 0, 81, 85
15, 191620, Note_off_c, 0, 81, 64
15, 191858, Note_on_c, 0, 83, 95
15, 191967, Note_off_c, 0, 83, 64
15, 192219, Note_on_c, 0, 79, 89
15, 192336, Note_off_c, 0, 79, 64
15, 192556, Note_on_c, 0, 78, 85
15, 192678, Note_off_c, 0, 78, 64
15, 192914, Note_on_c, 0, 76, 93
15, 193051, Note_off_c, 0, 76, 64
15, 193285, Note_on_c, 0, 81, 95
15, 193406, Note_off_c, 0, 81, 64
15, 193646, Note_on_c, 0, 79, 93
15, 193769, Note_off_c, 0, 79, 64
15, 193998, Note_on_c, 0, 78, 89
15, 194138, Note_off_c, 0, 78, 64
15, 194379, Note_on_c, 0, 83, 91
15, 194502, Note_off_c, 0, 83, 64
15, 194752, Note_on_c, 0, 81, 89
15, 194873, Note_off_c, 0, 81, 64
15, 195099, Note_on_c, 0, 79, 91
15, 195198, Note_off_c, 0, 79, 64
15, 195328, Note_on_c, 0, 76, 85
15, 195396, Note_off_c, 0, 76, 64
15, 195459, Note_on_c, 0, 79, 98
15, 196318, Note_off_c, 0, 79, 64
15, 196329, Note_on_c, 0, 76, 82
15, 196403, Note_off_c, 0, 76, 64
15, 196438, Note_on_c, 0, 78, 82
15, 196496, Note_off_c, 0, 78, 64
15, 196567, Note_on_c, 0, 79, 100
15, 196674, Note_off_c, 0, 79, 64
15, 196674, Note_on_c, 0, 81, 78
15, 196741, Note_off_c, 0, 81, 64
15, 196784, Note_on_c, 0, 78, 78
15, 196833, Note_off_c, 0, 78, 64
15, 196912, Note_on_c, 0, 79, 100
15, 197025, Note_off_c, 0, 79, 64
15, 197031, Note_on_c, 0, 78, 76
15, 197099, Note_off_c, 0, 78, 64
15, 197135, Note_on_c, 0, 76, 76
15, 197196, Note_off_c, 0, 76, 64
15, 197263, Note_on_c, 0, 78, 98
15, 197355, Note_off_c, 0, 78, 64
15, 197367, Note_on_c, 0, 81, 70
15, 197432, Note_off_c, 0, 81, 64
15, 197472, Note_on_c, 0, 79, 80
15, 197537, Note_off_c, 0, 79, 64
15, 197603, Note_on_c, 0, 81, 100
15, 197703, Note_off_c, 0, 81, 64
15, 197826, Note_on_c, 0, 83, 82
15, 197903, Note_off_c, 0, 83, 64
15, 197949, Note_on_c, 0, 76, 89
15, 198062, Note_off_c, 0, 76, 64
15, 198210, Note_on_c, 0, 81, 85
15, 198269, Note_off_c, 0, 81, 64
15, 198350, Note_on_c, 0, 78, 102
15, 198546, Note_off_c, 0, 78, 64
15, 199443, Note_on_c, 0, 81, 113
15, 199594, Note_off_c, 0, 81, 64
15, 236272, Note_on_c, 0, 81, 102
15, 236376, Note_off_c, 0, 81, 64
15, 236627, Note_on_c, 0, 79, 113
15, 236751, Note_off_c, 0, 79, 64
15, 236988, Note_on_c, 0, 78, 105
15, 237091, Note_off_c, 0, 78, 64
15, 237341, Note_on_c, 0, 78, 100
15, 237438, Note_off_c, 0, 78, 64
15, 237690, Note_on_c, 0, 81, 87
15, 237809, Note_off_c, 0, 81, 64
15, 238076, Note_on_c, 0, 83, 95
15, 238194, Note_off_c, 0, 83, 64
15, 238430, Note_on_c, 0, 79, 98
15, 238553, Note_off_c, 0, 79, 64
15, 238790, Note_on_c, 0, 78, 87
15, 238910, Note_off_c, 0, 78, 64
15, 239138, Note_on_c, 0, 76, 85
15, 239285, Note_off_c, 0, 76, 64
15, 239499, Note_on_c, 0, 81, 93
15, 239629, Note_off_c, 0, 81, 64
15, 239859, Note_on_c, 0, 79, 82
15, 240000, Note_off_c, 0, 79, 64
15, 240230, Note_on_c, 0, 78, 95
15, 240363, Note_off_c, 0, 78, 64
15, 240583, Note_on_c, 0, 83, 98
15, 240713, Note_off_c, 0, 83, 64
15, 240954, Note_on_c, 0, 81, 87
15, 241085, Note_off_c, 0, 81, 64
15, 241301, Note_on_c, 0, 79, 100
15, 241392, Note_off_c, 0, 79, 64
15, 241532, Note_on_c, 0, 76, 80
15, 241600, Note_off_c, 0, 76, 64
15, 241656, Note_on_c, 0, 79, 85
15, 242419, Note_off_c, 0, 79, 64
15, 242518, Note_on_c, 0, 76, 82
15, 242579, Note_off_c, 0, 76, 64
15, 242615, Note_on_c, 0, 78, 80
15, 242675, Note_off_c, 0, 78, 64
15, 242745, Note_on_c, 0, 79, 100
15, 242849, Note_off_c, 0, 79, 64
15, 242849, Note_on_c, 0, 81, 80
15, 242905, Note_off_c, 0, 81, 64
15, 242964, Note_on_c, 0, 78, 91
15, 243017, Note_off_c, 0, 78, 64
15, 243090, Note_on_c, 0, 79, 100
15, 243195, Note_off_c, 0, 79, 64
15, 243202, Note_on_c, 0, 78, 82
15, 243278, Note_off_c, 0, 78, 64
15, 243319, Note_on_c, 0, 76, 82
15, 243377, Note_off_c, 0, 76, 64
15, 243445, Note_on_c, 0, 78, 105
15, 243539, Note_off_c, 0, 78, 64
15, 243557, Note_on_c, 0, 81, 78
15, 243623, Note_off_c, 0, 81, 64
15, 243666, Note_on_c, 0, 79, 87
15, 243720, Note_off_c, 0, 79, 64
15, 243792, Note_on_c, 0, 81, 100
15, 243886, Note_off_c, 0, 81, 64
15, 244030, Note_on_c, 0, 83, 87
15, 244098, Note_off_c, 0, 83, 64
15, 244145, Note_on_c, 0, 76, 93
15, 244259, Note_off_c, 0, 76, 64
15, 244394, Note_on_c, 0, 81, 89
15, 244451, Note_off_c, 0, 81, 64
15, 244530, Note_on_c, 0, 78, 102
15, 244741, Note_off_c, 0, 78, 64
15, 245652, Note_on_c, 0, 81, 110
15, 245825, Note_off_c, 0, 81, 64
15, 246717, Note_on_c, 0, 86, 105
15, 246896, Note_off_c, 0, 86, 64
15, 267237, Note_on_c, 0, 81, 113
15, 267385, Note_off_c, 0, 81, 64
15, 268321, Note_on_c, 0, 85, 105
15, 268490, Note_off_c, 0, 85, 64
15, 269411, Note_on_c, 0, 88, 116
15, 269585, Note_off_c, 0, 88, 64
15, 281616, Note_on_c, 0, 81, 110
15, 281736, Note_off_c, 0, 81, 64
15, 281960, Note_on_c, 0, 79, 107
15, 282091, Note_off_c, 0, 79, 64
15, 282323, Note_on_c, 0, 78, 100
15, 282442, Note_off_c, 0, 78, 64
15, 282703, Note_on_c, 0, 83, 107
15, 282818, Note_off_c, 0, 83, 64
15, 283034, Note_on_c, 0, 81, 105
15, 283160, Note_off_c, 0, 81, 64
15, 283407, Note_on_c, 0, 80, 105
15, 283533, Note_off_c, 0, 80, 64
15, 283763, Note_on_c, 0, 85, 95
15, 283902, Note_off_c, 0, 85, 64
15, 284102, Note_on_c, 0, 83, 98
15, 284246, Note_off_c, 0, 83, 64
15, 284462, Note_on_c, 0, 81, 107
15, 284606, Note_off_c, 0, 81, 64
15, 284829, Note_on_c, 0, 81, 102
15, 284967, Note_off_c, 0, 81, 64
15, 285210, Note_on_c, 0, 81, 105
15, 285350, Note_off_c, 0, 81, 64
15, 285565, Note_on_c, 0, 81, 102
15, 285707, Note_off_c, 0, 81, 64
15, 285954, Note_on_c, 0, 80, 105
15, 286074, Note_off_c, 0, 80, 64
15, 286294, Note_on_c, 0, 81, 102
15, 286424, Note_off_c, 0, 81, 64
15, 286655, Note_on_c, 0, 83, 107
15, 287423, Note_off_c, 0, 83, 64
15, 287466, Note_on_c, 0, 85, 87
15, 287532, Note_off_c, 0, 85, 64
15, 287563, Note_on_c, 0, 86, 82
15, 287621, Note_off_c, 0, 86, 64
15, 287709, Note_on_c, 0, 85, 102
15, 287813, Note_off_c, 0, 85, 64
15, 287942, Note_on_c, 0, 83, 78
15, 288002, Note_off_c, 0, 83, 64
15, 288071, Note_on_c, 0, 81, 98
15, 288177, Note_off_c, 0, 81, 64
15, 288297, Note_on_c, 0, 83, 80
15, 288351, Note_off_c, 0, 83, 64
15, 288425, Note_on_c, 0, 81, 98
15, 288468, Note_on_c, 0, 80, 100
15, 288479, Note_off_c, 0, 81, 64
15, 288513, Note_on_c, 0, 81, 80
15, 288515, Note_off_c, 0, 80, 64
15, 288548, Note_on_c, 0, 80, 64
15, 288572, Note_off_c, 0, 81, 64
15, 288603, Note_off_c, 0, 80, 64
15, 288654, Note_on_c, 0, 81, 91
15, 288706, Note_off_c, 0, 81, 64
15, 288785, Note_on_c, 0, 81, 102
15, 289158, Note_off_c, 0, 81, 64
15, 302017, Note_on_c, 0, 66, 70
15, 302069, Note_off_c, 0, 66, 64
15, 302143, Note_on_c, 0, 66, 89
15, 302283, Note_off_c, 0, 66, 64
15, 302370, Note_on_c, 0, 66, 64
15, 302431, Note_off_c, 0, 66, 64
15, 302499, Note_on_c, 0, 66, 87
15, 302631, Note_off_c, 0, 66, 64
15, 302733, Note_on_c, 0, 66, 63
15, 302790, Note_off_c, 0, 66, 64
15, 302858, Note_on_c, 0, 66, 85
15, 303012, Note_off_c, 0, 66, 64
15, 311730, Note_on_c, 0, 78, 78
15, 311786, Note_off_c, 0, 78, 64
15, 311850, Note_on_c, 0, 78, 89
15, 311998, Note_off_c, 0, 78, 64
15, 312077, Note_on_c, 0, 78, 87
15, 312135, Note_off_c, 0, 78, 64
15, 312203, Note_on_c, 0, 78, 95
15, 312354, Note_off_c, 0, 78, 64
15, 312804, Note_on_c, 0, 66, 85
15, 312857, Note_off_c, 0, 66, 64
15, 312929, Note_on_c, 0, 66, 80
15, 313085, Note_off_c, 0, 66, 64
15, 313177, Note_on_c, 0, 66, 68
15, 313222, Note_off_c, 0, 66, 64
15, 313299, Note_on_c, 0, 66, 95
15, 313451, Note_off_c, 0, 66, 64
15, 375251, Note_on_c, 0, 86, 113
15, 375539, Note_off_c, 0, 86, 64
15, 379960, Note_on_c, 0, 85, 107
15, 379985, Note_off_c, 0, 85, 64
15, 380019, Note_on_c, 0, 86, 102
15, 380271, Note_off_c, 0, 86, 64
15, 380919, Note_on_c, 0, 81, 105
15, 380948, Note_off_c, 0, 81, 64
15, 380980, Note_on_c, 0, 83, 105
15, 381236, Note_off_c, 0, 83, 64
15, 381887, Note_on_c, 0, 79, 110
15, 381917, Note_off_c, 0, 79, 64
15, 381946, Note_on_c, 0, 81, 102
15, 382205, Note_off_c, 0, 81, 64
15, 382854, Note_on_c, 0, 78, 95
15, 382886, Note_off_c, 0, 78, 64
15, 382917, Note_on_c, 0, 79, 102
15, 383254, Note_off_c, 0, 79, 64
15, 383334, Note_on_c, 0, 79, 85
15, 383365, Note_off_c, 0, 79, 64
15, 383394, Note_on_c, 0, 79, 100
15, 383491, Note_off_c, 0, 79, 64
15, 383574, Note_on_c, 0, 78, 66
15, 383593, Note_on_c, 0, 76, 80
15, 383602, Note_off_c, 0, 78, 64
15, 383634, Note_on_c, 0, 81, 98
15, 383638, Note_off_c, 0, 76, 64
15, 383709, Note_off_c, 0, 81, 64
15, 383821, Note_on_c, 0, 76, 100
15, 383853, Note_off_c, 0, 76, 64
15, 383879, Note_on_c, 0, 78, 100
15, 384000, Note_off_c, 0, 78, 64
15, 384128, Note_on_c, 0, 74, 105
15, 384223, Note_off_c, 0, 74, 64
15, 393650, Note_on_c, 0, 81, 102
15, 393681, Note_off_c, 0, 81, 64
15, 393710, Note_on_c, 0, 81, 107
15, 393799, Note_off_c, 0, 81, 64
15, 393879, Note_on_c, 0, 83, 89
15, 393915, Note_off_c, 0, 83, 64
15, 393952, Note_on_c, 0, 81, 113
15, 394109, Note_off_c, 0, 81, 64
15, 394198, Note_on_c, 0, 81, 107
15, 394231, Note_on_c, 0, 79, 87
15, 394232, Note_off_c, 0, 81, 64
15, 394258, Note_off_c, 0, 79, 64
15, 394258, Note_on_c, 0, 81, 82
15, 394282, Note_on_c, 0, 79, 93
15, 394295, Note_off_c, 0, 81, 64
15, 394360, Note_off_c, 0, 79, 64
15, 394364, Note_on_c, 0, 78, 87
15, 394393, Note_off_c, 0, 78, 64
15, 394438, Note_on_c, 0, 78, 105
15, 395461, Note_off_c, 0, 78, 64
15, 395461, End_track
16, 0, Start_track
16, 0, Title_t, "Trumpet"
16, 0, Program_c, 1, 56
16, 0, Control_c, 1, 7, 127
16, 23934, Note_on_c, 1, 78, 116
16, 23960, Note_off_c, 1, 78, 64
16, 23999, Note_on_c, 1, 78, 113
16, 24259, Note_off_c, 1, 78, 64
16, 24895, Note_on_c, 1, 81, 110
16, 24918, Note_off_c, 1, 81, 64
16, 24959, Note_on_c, 1, 81, 113
16, 25210, Note_off_c, 1, 81, 64
16, 25836, Note_on_c, 1, 79, 110
16, 25870, Note_off_c, 1, 79, 64
16, 25912, Note_on_c, 1, 81, 107
16, 26169, Note_off_c, 1, 81, 64
16, 26799, Note_on_c, 1, 74, 116
16, 26830, Note_off_c, 1, 74, 64
16, 26872, Note_on_c, 1, 76, 105
16, 27206, Note_off_c, 1, 76, 64
16, 27299, Note_on_c, 1, 76, 105
16, 27328, Note_off_c, 1, 76, 64
16, 27362, Note_on_c, 1, 76, 105
16, 27474, Note_off_c, 1, 76, 64
16, 27599, Note_on_c, 1, 76, 93
16, 27700, Note_off_c, 1, 76, 64
16, 27844, Note_on_c, 1, 74, 102
16, 27944, Note_off_c, 1, 74, 64
16, 28083, Note_on_c, 1, 69, 113
16, 28211, Note_off_c, 1, 69, 64
16, 31623, Note_on_c, 1, 81, 119
16, 31647, Note_off_c, 1, 81, 64
16, 31682, Note_on_c, 1, 81, 107
16, 31928, Note_off_c, 1, 81, 64
16, 32575, Note_on_c, 1, 79, 116
16, 32603, Note_off_c, 1, 79, 64
16, 32637, Note_on_c, 1, 78, 110
16, 32900, Note_off_c, 1, 78, 64
16, 33522, Note_on_c, 1, 81, 105
16, 33549, Note_off_c, 1, 81, 64
16, 33588, Note_on_c, 1, 81, 113
16, 33851, Note_off_c, 1, 81, 64
16, 34486, Note_on_c, 1, 81, 105
16, 34516, Note_off_c, 1, 81, 64
16, 34551, Note_on_c, 1, 78, 107
16, 34893, Note_off_c, 1, 78, 64
16, 34979, Note_on_c, 1, 78, 85
16, 35014, Note_off_c, 1, 78, 64
16, 35043, Note_on_c, 1, 76, 102
16, 35136, Note_off_c, 1, 76, 64
16, 35282, Note_on_c, 1, 76, 105
16, 35369, Note_off_c, 1, 76, 64
16, 35522, Note_on_c, 1, 76, 100
16, 35612, Note_off_c, 1, 76, 64
16, 35774, Note_on_c, 1, 81, 105
16, 35868, Note_off_c, 1, 81, 64
16, 45299, Note_on_c, 1, 76, 113
16, 45328, Note_off_c, 1, 76, 64
16, 45360, Note_on_c, 1, 76, 105
16, 45445, Note_off_c, 1, 76, 64
16, 45535, Note_on_c, 1, 78, 91
16, 45563, Note_off_c, 1, 78, 64
16, 45599, Note_on_c, 1, 78, 102
16, 45648, Note_off_c, 1, 78, 64
16, 45648, Note_on_c, 1, 76, 93
16, 45670, Note_off_c, 1, 76, 64
16, 45672, Note_on_c, 1, 78, 78
16, 45700, Note_off_c, 1, 78, 64
16, 45700, Note_on_c, 1, 76, 91
16, 45719, Note_on_c, 1, 78, 89
16, 45726, Note_off_c, 1, 76, 64
16, 45736, Note_on_c, 1, 76, 93
16, 45747, Note_off_c, 1, 78, 64
16, 45784, Note_off_c, 1, 76, 64
16, 45846, Note_on_c, 1, 76, 105
16, 45988, Note_off_c, 1, 76, 64
16, 46087, Note_on_c, 1, 76, 107
16, 46187, Note_off_c, 1, 76, 64
16, 115183, Note_on_c, 1, 76, 107
16, 115413, Note_off_c, 1, 76, 64
16, 116506, Note_on_c, 1, 69, 85
16, 116562, Note_off_c, 1, 69, 64
16, 116637, Note_on_c, 1, 69, 95
16, 116744, Note_on_c, 1, 76, 78
16, 116749, Note_off_c, 1, 69, 64
16, 116816, Note_off_c, 1, 76, 64
16, 116852, Note_on_c, 1, 74, 80
16, 116904, Note_off_c, 1, 74, 64
16, 116990, Note_on_c, 1, 74, 102
16, 117091, Note_off_c, 1, 74, 64
16, 117100, Note_on_c, 1, 78, 66
16, 117154, Note_off_c, 1, 78, 64
16, 117203, Note_on_c, 1, 76, 80
16, 117250, Note_off_c, 1, 76, 64
16, 117349, Note_on_c, 1, 76, 105
16, 117509, Note_off_c, 1, 76, 64
16, 117689, Note_on_c, 1, 76, 91
16, 117831, Note_off_c, 1, 76, 64
16, 118043, Note_on_c, 1, 76, 85
16, 118185, Note_off_c, 1, 76, 64
16, 118414, Note_on_c, 1, 74, 93
16, 118535, Note_off_c, 1, 74, 64
16, 118668, Note_on_c, 1, 66, 78
16, 118725, Note_off_c, 1, 66, 64
16, 118783, Note_on_c, 1, 66, 98
16, 118893, Note_on_c, 1, 74, 74
16, 118904, Note_off_c, 1, 66, 64
16, 118982, Note_off_c, 1, 74, 64
16, 118997, Note_on_c, 1, 69, 74
16, 119048, Note_off_c, 1, 69, 64
16, 119138, Note_on_c, 1, 69, 89
16, 119258, Note_off_c, 1, 69, 64
16, 119271, Note_on_c, 1, 76, 82
16, 119334, Note_off_c, 1, 76, 64
16, 119370, Note_on_c, 1, 74, 85
16, 119424, Note_off_c, 1, 74, 64
16, 119517, Note_on_c, 1, 74, 93
16, 119697, Note_off_c, 1, 74, 64
16, 122019, Note_on_c, 1, 78, 102
16, 122162, Note_off_c, 1, 78, 64
16, 122388, Note_on_c, 1, 78, 105
16, 122536, Note_off_c, 1, 78, 64
16, 122748, Note_on_c, 1, 79, 110
16, 122923, Note_off_c, 1, 79, 64
16, 146697, Note_on_c, 1, 62, 70
16, 146750, Note_off_c, 1, 62, 64
16, 146832, Note_on_c, 1, 62, 85
16, 146955, Note_off_c, 1, 62, 64
16, 147070, Note_on_c, 1, 62, 57
16, 147124, Note_off_c, 1, 62, 64
16, 147207, Note_on_c, 1, 62, 74
16, 147324, Note_off_c, 1, 62, 64
16, 147448, Note_on_c, 1, 62, 68
16, 147504, Note_off_c, 1, 62, 64
16, 147583, Note_on_c, 1, 62, 80
16, 147731, Note_off_c, 1, 62, 64
16, 148883, Note_on_c, 1, 62, 68
16, 148933, Note_off_c, 1, 62, 64
16, 149014, Note_on_c, 1, 62, 85
16, 149147, Note_off_c, 1, 62, 64
16, 149250, Note_on_c, 1, 62, 66
16, 149307, Note_off_c, 1, 62, 64
16, 149388, Note_on_c, 1, 62, 85
16, 149516, Note_off_c, 1, 62, 64
16, 149637, Note_on_c, 1, 62, 66
16, 149685, Note_off_c, 1, 62, 64
16, 149765, Note_on_c, 1, 62, 85
16, 149925, Note_off_c, 1, 62, 64
16, 190076, Note_on_c, 1, 76, 93
16, 190196, Note_off_c, 1, 76, 64
16, 190434, Note_on_c, 1, 76, 91
16, 190554, Note_off_c, 1, 76, 64
16, 190785, Note_on_c, 1, 74, 89
16, 190913, Note_off_c, 1, 74, 64
16, 191143, Note_on_c, 1, 74, 89
16, 191255, Note_off_c, 1, 74, 64
16, 191490, Note_on_c, 1, 78, 89
16, 191616, Note_off_c, 1, 78, 64
16, 191858, Note_on_c, 1, 79, 100
16, 191989, Note_off_c, 1, 79, 64
16, 192225, Note_on_c, 1, 76, 95
16, 192342, Note_off_c, 1, 76, 64
16, 192592, Note_on_c, 1, 74, 93
16, 192705, Note_off_c, 1, 74, 64
16, 192921, Note_on_c, 1, 69, 85
16, 193055, Note_off_c, 1, 69, 64
16, 193290, Note_on_c, 1, 78, 91
16, 193411, Note_off_c, 1, 78, 64
16, 193650, Note_on_c, 1, 76, 82
16, 193769, Note_off_c, 1, 76, 64
16, 194010, Note_on_c, 1, 74, 87
16, 194144, Note_off_c, 1, 74, 64
16, 194390, Note_on_c, 1, 76, 85
16, 194509, Note_off_c, 1, 76, 64
16, 194750, Note_on_c, 1, 78, 89
16, 194869, Note_off_c, 1, 78, 64
16, 195114, Note_on_c, 1, 83, 87
16, 195222, Note_off_c, 1, 83, 64
16, 195341, Note_on_c, 1, 79, 76
16, 195404, Note_off_c, 1, 79, 64
16, 195467, Note_on_c, 1, 76, 95
16, 196248, Note_off_c, 1, 76, 64
16, 196298, Note_on_c, 1, 69, 74
16, 196376, Note_off_c, 1, 69, 64
16, 196417, Note_on_c, 1, 74, 82
16, 196475, Note_off_c, 1, 74, 64
16, 196547, Note_on_c, 1, 76, 100
16, 196640, Note_off_c, 1, 76, 64
16, 196649, Note_on_c, 1, 69, 80
16, 196718, Note_off_c, 1, 69, 64
16, 196772, Note_on_c, 1, 74, 80
16, 196826, Note_off_c, 1, 74, 64
16, 196912, Note_on_c, 1, 76, 102
16, 197020, Note_on_c, 1, 74, 70
16, 197033, Note_off_c, 1, 76, 64
16, 197101, Note_off_c, 1, 74, 64
16, 197124, Note_on_c, 1, 73, 66
16, 197187, Note_off_c, 1, 73, 64
16, 197254, Note_on_c, 1, 74, 89
16, 197351, Note_off_c, 1, 74, 64
16, 197481, Note_on_c, 1, 69, 85
16, 197551, Note_off_c, 1, 69, 64
16, 197610, Note_on_c, 1, 66, 91
16, 197693, Note_off_c, 1, 66, 64
16, 197823, Note_on_c, 1, 62, 85
16, 197884, Note_off_c, 1, 62, 64
16, 197952, Note_on_c, 1, 69, 87
16, 198044, Note_off_c, 1, 69, 64
16, 198190, Note_on_c, 1, 76, 82
16, 198255, Note_off_c, 1, 76, 64
16, 198327, Note_on_c, 1, 74, 107
16, 198525, Note_off_c, 1, 74, 64
16, 199443, Note_on_c, 1, 78, 113
16, 199614, Note_off_c, 1, 78, 64
16, 236277, Note_on_c, 1, 76, 102
16, 236394, Note_off_c, 1, 76, 64
16, 236625, Note_on_c, 1, 76, 102
16, 236736, Note_off_c, 1, 76, 64
16, 236985, Note_on_c, 1, 74, 98
16, 237105, Note_off_c, 1, 74, 64
16, 237345, Note_on_c, 1, 74, 102
16, 237455, Note_off_c, 1, 74, 64
16, 237696, Note_on_c, 1, 78, 91
16, 237813, Note_off_c, 1, 78, 64
16, 238070, Note_on_c, 1, 79, 100
16, 238185, Note_off_c, 1, 79, 64
16, 238427, Note_on_c, 1, 76, 95
16, 238547, Note_off_c, 1, 76, 64
16, 238783, Note_on_c, 1, 74, 89
16, 238907, Note_off_c, 1, 74, 64
16, 239143, Note_on_c, 1, 69, 82
16, 239283, Note_off_c, 1, 69, 64
16, 239505, Note_on_c, 1, 78, 93
16, 239625, Note_off_c, 1, 78, 64
16, 239874, Note_on_c, 1, 76, 87
16, 240000, Note_off_c, 1, 76, 64
16, 240225, Note_on_c, 1, 74, 89
16, 240356, Note_off_c, 1, 74, 64
16, 240594, Note_on_c, 1, 76, 85
16, 240720, Note_off_c, 1, 76, 64
16, 240948, Note_on_c, 1, 78, 85
16, 241071, Note_off_c, 1, 78, 64
16, 241308, Note_on_c, 1, 83, 89
16, 241411, Note_off_c, 1, 83, 64
16, 241542, Note_on_c, 1, 79, 78
16, 241607, Note_off_c, 1, 79, 64
16, 241659, Note_on_c, 1, 76, 93
16, 242424, Note_off_c, 1, 76, 64
16, 242513, Note_on_c, 1, 69, 85
16, 242574, Note_off_c, 1, 69, 64
16, 242631, Note_on_c, 1, 74, 98
16, 242689, Note_off_c, 1, 74, 64
16, 242750, Note_on_c, 1, 76, 95
16, 242838, Note_off_c, 1, 76, 64
16, 242858, Note_on_c, 1, 69, 62
16, 242912, Note_off_c, 1, 69, 64
16, 242972, Note_on_c, 1, 74, 85
16, 243031, Note_off_c, 1, 74, 64
16, 243099, Note_on_c, 1, 76, 100
16, 243193, Note_off_c, 1, 76, 64
16, 243213, Note_on_c, 1, 74, 80
16, 243278, Note_off_c, 1, 74, 64
16, 243328, Note_on_c, 1, 73, 89
16, 243382, Note_off_c, 1, 73, 64
16, 243452, Note_on_c, 1, 74, 93
16, 243557, Note_off_c, 1, 74, 64
16, 243679, Note_on_c, 1, 69, 82
16, 243751, Note_off_c, 1, 69, 64
16, 243810, Note_on_c, 1, 66, 85
16, 243900, Note_off_c, 1, 66, 64
16, 244023, Note_on_c, 1, 62, 82
16, 244093, Note_off_c, 1, 62, 64
16, 244151, Note_on_c, 1, 69, 82
16, 244242, Note_off_c, 1, 69, 64
16, 244385, Note_on_c, 1, 76, 91
16, 244446, Note_off_c, 1, 76, 64
16, 244512, Note_on_c, 1, 74, 95
16, 244763, Note_off_c, 1, 74, 64
16, 245657, Note_on_c, 1, 78, 105
16, 245852, Note_off_c, 1, 78, 64
16, 246710, Note_on_c, 1, 81, 102
16, 246905, Note_off_c, 1, 81, 64
16, 267230, Note_on_c, 1, 76, 98
16, 267408, Note_off_c, 1, 76, 64
16, 268319, Note_on_c, 1, 81, 100
16, 268490, Note_off_c, 1, 81, 64
16, 269405, Note_on_c, 1, 85, 110
16, 269582, Note_off_c, 1, 85, 64
16, 281600, Note_on_c, 1, 76, 113
16, 281727, Note_off_c, 1, 76, 64
16, 281958, Note_on_c, 1, 76, 113
16, 282093, Note_off_c, 1, 76, 64
16, 282329, Note_on_c, 1, 74, 105
16, 282464, Note_off_c, 1, 74, 64
16, 282689, Note_on_c, 1, 74, 105
16, 282816, Note_off_c, 1, 74, 64
16, 283038, Note_on_c, 1, 76, 105
16, 283175, Note_off_c, 1, 76, 64
16, 283410, Note_on_c, 1, 76, 110
16, 283551, Note_off_c, 1, 76, 64
16, 283763, Note_on_c, 1, 76, 107
16, 283909, Note_off_c, 1, 76, 64
16, 284118, Note_on_c, 1, 78, 98
16, 284256, Note_off_c, 1, 78, 64
16, 284467, Note_on_c, 1, 78, 105
16, 284608, Note_off_c, 1, 78, 64
16, 284838, Note_on_c, 1, 78, 89
16, 284973, Note_off_c, 1, 78, 64
16, 285198, Note_on_c, 1, 76, 100
16, 285342, Note_off_c, 1, 76, 64
16, 285572, Note_on_c, 1, 74, 100
16, 285711, Note_off_c, 1, 74, 64
16, 285943, Note_on_c, 1, 76, 102
16, 286082, Note_off_c, 1, 76, 64
16, 286303, Note_on_c, 1, 78, 91
16, 286449, Note_off_c, 1, 78, 64
16, 286655, Note_on_c, 1, 76, 105
16, 287810, Note_off_c, 1, 76, 64
16, 287954, Note_on_c, 1, 76, 85
16, 288015, Note_off_c, 1, 76, 64
16, 288071, Note_on_c, 1, 76, 98
16, 288173, Note_off_c, 1, 76, 64
16, 288314, Note_on_c, 1, 78, 82
16, 288375, Note_off_c, 1, 78, 64
16, 288429, Note_on_c, 1, 76, 105
16, 288533, Note_off_c, 1, 76, 64
16, 288677, Note_on_c, 1, 76, 105
16, 288726, Note_off_c, 1, 76, 64
16, 288809, Note_on_c, 1, 76, 116
16, 289161, Note_off_c, 1, 76, 64
16, 302006, Note_on_c, 1, 66, 82
16, 302060, Note_off_c, 1, 66, 64
16, 302127, Note_on_c, 1, 66, 89
16, 302264, Note_off_c, 1, 66, 64
16, 302366, Note_on_c, 1, 66, 82
16, 302427, Note_off_c, 1, 66, 64
16, 302494, Note_on_c, 1, 66, 87
16, 302633, Note_off_c, 1, 66, 64
16, 302739, Note_on_c, 1, 66, 82
16, 302798, Note_off_c, 1, 66, 64
16, 302867, Note_on_c, 1, 66, 82
16, 303005, Note_off_c, 1, 66, 64
16, 312803, Note_on_c, 1, 66, 85
16, 312853, Note_off_c, 1, 66, 64
16, 312934, Note_on_c, 1, 66, 74
16, 313087, Note_off_c, 1, 66, 64
16, 313166, Note_on_c, 1, 66, 66
16, 313229, Note_off_c, 1, 66, 64
16, 313298, Note_on_c, 1, 66, 72
16, 313454, Note_off_c, 1, 66, 64
16, 375242, Note_on_c, 1, 81, 116
16, 375517, Note_off_c, 1, 81, 64
16, 379969, Note_on_c, 1, 81, 113
16, 379992, Note_off_c, 1, 81, 64
16, 380029, Note_on_c, 1, 81, 110
16, 380292, Note_off_c, 1, 81, 64
16, 380926, Note_on_c, 1, 78, 102
16, 380954, Note_off_c, 1, 78, 64
16, 380990, Note_on_c, 1, 74, 107
16, 381255, Note_off_c, 1, 74, 64
16, 381895, Note_on_c, 1, 76, 113
16, 381922, Note_off_c, 1, 76, 64
16, 381954, Note_on_c, 1, 76, 105
16, 382218, Note_off_c, 1, 76, 64
16, 382856, Note_on_c, 1, 74, 102
16, 382885, Note_off_c, 1, 74, 64
16, 382920, Note_on_c, 1, 76, 102
16, 383252, Note_off_c, 1, 76, 64
16, 383336, Note_on_c, 1, 76, 98
16, 383369, Note_off_c, 1, 76, 64
16, 383398, Note_on_c, 1, 76, 105
16, 383472, Note_off_c, 1, 76, 64
16, 383638, Note_on_c, 1, 76, 100
16, 383722, Note_off_c, 1, 76, 64
16, 383887, Note_on_c, 1, 74, 107
16, 383968, Note_off_c, 1, 74, 64
16, 384134, Note_on_c, 1, 69, 110
16, 384224, Note_off_c, 1, 69, 64
16, 393653, Note_on_c, 1, 76, 105
16, 393692, Note_off_c, 1, 76, 64
16, 393713, Note_on_c, 1, 78, 102
16, 393789, Note_off_c, 1, 78, 64
16, 393879, Note_on_c, 1, 79, 89
16, 393919, Note_off_c, 1, 79, 64
16, 393960, Note_on_c, 1, 78, 102
16, 394034, Note_on_c, 1, 76, 85
16, 394036, Note_off_c, 1, 78, 64
16, 394060, Note_off_c, 1, 76, 64
16, 394064, Note_on_c, 1, 78, 78
16, 394090, Note_off_c, 1, 78, 64
16, 394094, Note_on_c, 1, 76, 64
16, 394114, Note_off_c, 1, 76, 64
16, 394115, Note_on_c, 1, 78, 82
16, 394138, Note_on_c, 1, 76, 80
16, 394142, Note_off_c, 1, 78, 64
16, 394161, Note_on_c, 1, 78, 87
16, 394167, Note_off_c, 1, 76, 64
16, 394187, Note_on_c, 1, 76, 78
16, 394189, Note_off_c, 1, 78, 64
16, 394304, Note_off_c, 1, 76, 64
16, 394384, Note_on_c, 1, 74, 119
16, 394413, Note_off_c, 1, 74, 64
16, 394448, Note_on_c, 1, 74, 105
16, 395435, Note_off_c, 1, 74, 64
16, 395435, End_track
17, 0, Start_track
17, 0, Title_t, "Trumpet"
17, 0, Program_c, 2, 56
17, 0, Control_c, 2, 7, 127
17, 23935, Note_on_c, 2, 74, 122
17, 23962, Note_off_c, 2, 74, 64
17, 23999, Note_on_c, 2, 74, 107
17, 24281, Note_off_c, 2, 74, 64
17, 24897, Note_on_c, 2, 78, 113
17, 24927, Note_off_c, 2, 78, 64
17, 24961, Note_on_c, 2, 78, 107
17, 25216, Note_off_c, 2, 78, 64
17, 25854, Note_on_c, 2, 62, 119
17, 25884, Note_off_c, 2, 62, 64
17, 25917, Note_on_c, 2, 62, 110
17, 26168, Note_off_c, 2, 62, 64
17, 26811, Note_on_c, 2, 69, 100
17, 26842, Note_off_c, 2, 69, 64
17, 26870, Note_on_c, 2, 76, 95
17, 27178, Note_off_c, 2, 76, 64
17, 27276, Note_on_c, 2, 76, 116
17, 27326, Note_off_c, 2, 76, 64
17, 27355, Note_on_c, 2, 69, 113
17, 27464, Note_off_c, 2, 69, 64
17, 27596, Note_on_c, 2, 69, 116
17, 27689, Note_off_c, 2, 69, 64
17, 27846, Note_on_c, 2, 69, 116
17, 27934, Note_off_c, 2, 69, 64
17, 28088, Note_on_c, 2, 66, 110
17, 28173, Note_off_c, 2, 66, 64
17, 31616, Note_on_c, 2, 76, 119
17, 31641, Note_off_c, 2, 76, 64
17, 31681, Note_on_c, 2, 76, 116
17, 31934, Note_off_c, 2, 76, 64
17, 32573, Note_on_c, 2, 76, 113
17, 32610, Note_off_c, 2, 76, 64
17, 32643, Note_on_c, 2, 69, 113
17, 32908, Note_off_c, 2, 69, 64
17, 33529, Note_on_c, 2, 69, 107
17, 33557, Note_off_c, 2, 69, 64
17, 33594, Note_on_c, 2, 69, 113
17, 33844, Note_off_c, 2, 69, 64
17, 34491, Note_on_c, 2, 78, 102
17, 34521, Note_off_c, 2, 78, 64
17, 34554, Note_on_c, 2, 74, 105
17, 34850, Note_off_c, 2, 74, 64
17, 34981, Note_on_c, 2, 74, 107
17, 35012, Note_off_c, 2, 74, 64
17, 35040, Note_on_c, 2, 74, 105
17, 35135, Note_off_c, 2, 74, 64
17, 35279, Note_on_c, 2, 74, 107
17, 35374, Note_off_c, 2, 74, 64
17, 35528, Note_on_c, 2, 69, 110
17, 35624, Note_off_c, 2, 69, 64
17, 35770, Note_on_c, 2, 76, 119
17, 35871, Note_off_c, 2, 76, 64
17, 45286, Note_on_c, 2, 74, 105
17, 45320, Note_off_c, 2, 74, 64
17, 45353, Note_on_c, 2, 69, 100
17, 45442, Note_off_c, 2, 69, 64
17, 45531, Note_on_c, 2, 74, 105
17, 45555, Note_off_c, 2, 74, 64
17, 45599, Note_on_c, 2, 74, 107
17, 45855, Note_off_c, 2, 74, 64
17, 46028, Note_on_c, 2, 74, 95
17, 46059, Note_off_c, 2, 74, 64
17, 46100, Note_on_c, 2, 69, 113
17, 46190, Note_off_c, 2, 69, 64
17, 115197, Note_on_c, 2, 69, 113
17, 115377, Note_off_c, 2, 69, 64
17, 116504, Note_on_c, 2, 69, 102
17, 116556, Note_off_c, 2, 69, 64
17, 116629, Note_on_c, 2, 69, 105
17, 116745, Note_off_c, 2, 69, 64
17, 116864, Note_on_c, 2, 69, 89
17, 116913, Note_off_c, 2, 69, 64
17, 116996, Note_on_c, 2, 69, 102
17, 117104, Note_off_c, 2, 69, 64
17, 117237, Note_on_c, 2, 69, 80
17, 117280, Note_off_c, 2, 69, 64
17, 117356, Note_on_c, 2, 69, 110
17, 117489, Note_off_c, 2, 69, 64
17, 117717, Note_on_c, 2, 69, 98
17, 117849, Note_off_c, 2, 69, 64
17, 118072, Note_on_c, 2, 69, 100
17, 118207, Note_off_c, 2, 69, 64
17, 118425, Note_on_c, 2, 69, 105
17, 118545, Note_off_c, 2, 69, 64
17, 118650, Note_on_c, 2, 69, 87
17, 118698, Note_off_c, 2, 69, 64
17, 118778, Note_on_c, 2, 69, 100
17, 118904, Note_off_c, 2, 69, 64
17, 119024, Note_on_c, 2, 69, 105
17, 119084, Note_off_c, 2, 69, 64
17, 119143, Note_on_c, 2, 69, 98
17, 119256, Note_off_c, 2, 69, 64
17, 119379, Note_on_c, 2, 69, 102
17, 119424, Note_off_c, 2, 69, 64
17, 119501, Note_on_c, 2, 69, 107
17, 119660, Note_off_c, 2, 69, 64
17, 122027, Note_on_c, 2, 74, 107
17, 122151, Note_off_c, 2, 74, 64
17, 122388, Note_on_c, 2, 74, 107
17, 122534, Note_off_c, 2, 74, 64
17, 122750, Note_on_c, 2, 74, 102
17, 122905, Note_off_c, 2, 74, 64
17, 146696, Note_on_c, 2, 62, 62
17, 146750, Note_off_c, 2, 62, 64
17, 146834, Note_on_c, 2, 62, 87
17, 146967, Note_off_c, 2, 62, 64
17, 147068, Note_on_c, 2, 62, 66
17, 147124, Note_off_c, 2, 62, 64
17, 147203, Note_on_c, 2, 62, 80
17, 147322, Note_off_c, 2, 62, 64
17, 147439, Note_on_c, 2, 62, 72
17, 147493, Note_off_c, 2, 62, 64
17, 147578, Note_on_c, 2, 62, 91
17, 147712, Note_off_c, 2, 62, 64
17, 148899, Note_on_c, 2, 62, 60
17, 148953, Note_off_c, 2, 62, 64
17, 149036, Note_on_c, 2, 62, 87
17, 149165, Note_off_c, 2, 62, 64
17, 149261, Note_on_c, 2, 62, 72
17, 149313, Note_off_c, 2, 62, 64
17, 149392, Note_on_c, 2, 62, 82
17, 149502, Note_off_c, 2, 62, 64
17, 149624, Note_on_c, 2, 62, 80
17, 149677, Note_off_c, 2, 62, 64
17, 149763, Note_on_c, 2, 62, 95
17, 149889, Note_off_c, 2, 62, 64
17, 190083, Note_on_c, 2, 69, 110
17, 190222, Note_off_c, 2, 69, 64
17, 190432, Note_on_c, 2, 69, 110
17, 190581, Note_off_c, 2, 69, 64
17, 190796, Note_on_c, 2, 69, 113
17, 190963, Note_off_c, 2, 69, 64
17, 196426, Note_on_c, 2, 69, 102
17, 196485, Note_off_c, 2, 69, 64
17, 196543, Note_on_c, 2, 69, 100
17, 196637, Note_off_c, 2, 69, 64
17, 196775, Note_on_c, 2, 69, 87
17, 196835, Note_off_c, 2, 69, 64
17, 196910, Note_on_c, 2, 69, 98
17, 197009, Note_off_c, 2, 69, 64
17, 197124, Note_on_c, 2, 69, 82
17, 197186, Note_off_c, 2, 69, 64
17, 197268, Note_on_c, 2, 69, 98
17, 197366, Note_off_c, 2, 69, 64
17, 197488, Note_on_c, 2, 76, 85
17, 197555, Note_off_c, 2, 76, 64
17, 197614, Note_on_c, 2, 74, 87
17, 197699, Note_off_c, 2, 74, 64
17, 197839, Note_on_c, 2, 74, 95
17, 197901, Note_off_c, 2, 74, 64
17, 197970, Note_on_c, 2, 74, 105
17, 198068, Note_off_c, 2, 74, 64
17, 198190, Note_on_c, 2, 69, 100
17, 198240, Note_off_c, 2, 69, 64
17, 198347, Note_on_c, 2, 69, 107
17, 198536, Note_off_c, 2, 69, 64
17, 199454, Note_on_c, 2, 74, 113
17, 199610, Note_off_c, 2, 74, 64
17, 242630, Note_on_c, 2, 69, 100
17, 242689, Note_off_c, 2, 69, 64
17, 242745, Note_on_c, 2, 69, 98
17, 242871, Note_off_c, 2, 69, 64
17, 242979, Note_on_c, 2, 69, 110
17, 243036, Note_off_c, 2, 69, 64
17, 243092, Note_on_c, 2, 69, 100
17, 243197, Note_off_c, 2, 69, 64
17, 243328, Note_on_c, 2, 69, 87
17, 243389, Note_off_c, 2, 69, 64
17, 243459, Note_on_c, 2, 69, 95
17, 243576, Note_off_c, 2, 69, 64
17, 243692, Note_on_c, 2, 76, 82
17, 243755, Note_off_c, 2, 76, 64
17, 243816, Note_on_c, 2, 74, 100
17, 243908, Note_off_c, 2, 74, 64
17, 244034, Note_on_c, 2, 74, 85
17, 244090, Note_off_c, 2, 74, 64
17, 244161, Note_on_c, 2, 74, 100
17, 244250, Note_off_c, 2, 74, 64
17, 244381, Note_on_c, 2, 69, 87
17, 244446, Note_off_c, 2, 69, 64
17, 244523, Note_on_c, 2, 69, 107
17, 244705, Note_off_c, 2, 69, 64
17, 245650, Note_on_c, 2, 74, 105
17, 245828, Note_off_c, 2, 74, 64
17, 246717, Note_on_c, 2, 78, 116
17, 246915, Note_off_c, 2, 78, 64
17, 267227, Note_on_c, 2, 69, 107
17, 267410, Note_off_c, 2, 69, 64
17, 268329, Note_on_c, 2, 76, 113
17, 268501, Note_off_c, 2, 76, 64
17, 269404, Note_on_c, 2, 81, 116
17, 269584, Note_off_c, 2, 81, 64
17, 281616, Note_on_c, 2, 69, 107
17, 281754, Note_off_c, 2, 69, 64
17, 281974, Note_on_c, 2, 69, 113
17, 282120, Note_off_c, 2, 69, 64
17, 282323, Note_on_c, 2, 69, 110
17, 282503, Note_off_c, 2, 69, 64
17, 288796, Note_on_c, 2, 69, 113
17, 289187, Note_off_c, 2, 69, 64
17, 302002, Note_on_c, 2, 66, 78
17, 302058, Note_off_c, 2, 66, 64
17, 302126, Note_on_c, 2, 66, 82
17, 302263, Note_off_c, 2, 66, 64
17, 302360, Note_on_c, 2, 66, 68
17, 302416, Note_off_c, 2, 66, 64
17, 302488, Note_on_c, 2, 66, 72
17, 302610, Note_off_c, 2, 66, 64
17, 302726, Note_on_c, 2, 66, 68
17, 302789, Note_off_c, 2, 66, 64
17, 302859, Note_on_c, 2, 66, 78
17, 303015, Note_off_c, 2, 66, 64
17, 312809, Note_on_c, 2, 66, 59
17, 312852, Note_off_c, 2, 66, 64
17, 312926, Note_on_c, 2, 66, 70
17, 313074, Note_off_c, 2, 66, 64
17, 313155, Note_on_c, 2, 66, 66
17, 313209, Note_off_c, 2, 66, 64
17, 313287, Note_on_c, 2, 66, 70
17, 313461, Note_off_c, 2, 66, 64
17, 375232, Note_on_c, 2, 78, 116
17, 375539, Note_off_c, 2, 78, 64
17, 379969, Note_on_c, 2, 76, 107
17, 379996, Note_off_c, 2, 76, 64
17, 380028, Note_on_c, 2, 78, 105
17, 380275, Note_off_c, 2, 78, 64
17, 380918, Note_on_c, 2, 74, 110
17, 380948, Note_off_c, 2, 74, 64
17, 380987, Note_on_c, 2, 62, 116
17, 381231, Note_off_c, 2, 62, 64
17, 381896, Note_on_c, 2, 76, 122
17, 381929, Note_off_c, 2, 76, 64
17, 381962, Note_on_c, 2, 69, 110
17, 382229, Note_off_c, 2, 69, 64
17, 382870, Note_on_c, 2, 69, 116
17, 382923, Note_off_c, 2, 69, 64
17, 382930, Note_on_c, 2, 76, 113
17, 383222, Note_off_c, 2, 76, 64
17, 383324, Note_on_c, 2, 76, 107
17, 383370, Note_off_c, 2, 76, 64
17, 383394, Note_on_c, 2, 69, 105
17, 383472, Note_off_c, 2, 69, 64
17, 383645, Note_on_c, 2, 69, 116
17, 383715, Note_off_c, 2, 69, 64
17, 383882, Note_on_c, 2, 69, 116
17, 383956, Note_off_c, 2, 69, 64
17, 384138, Note_on_c, 2, 66, 105
17, 384210, Note_off_c, 2, 66, 64
17, 393646, Note_on_c, 2, 69, 116
17, 393691, Note_off_c, 2, 69, 64
17, 393713, Note_on_c, 2, 62, 107
17, 393795, Note_off_c, 2, 62, 64
17, 393889, Note_on_c, 2, 62, 113
17, 393937, Note_off_c, 2, 62, 64
17, 393951, Note_on_c, 2, 69, 119
17, 394276, Note_off_c, 2, 69, 64
17, 394378, Note_on_c, 2, 69, 116
17, 394407, Note_off_c, 2, 69, 64
17, 394438, Note_on_c, 2, 69, 107
17, 395414, Note_off_c, 2, 69, 64
17, 395414, End_track
18, 0, Start_track
18, 0, Title_t, "Timpani"
18, 0, Program_c, 3, 47
18, 0, Control_c, 3, 7, 100
18, 23945, Note_on_c, 3, 50, 107
18, 23962, Note_off_c, 3, 50, 64
18, 23966, Note_on_c, 3, 50, 122
18, 23987, Note_off_c, 3, 50, 64
18, 24004, Note_on_c, 3, 50, 122
18, 24032, Note_off_c, 3, 50, 64
18, 24903, Note_on_c, 3, 50, 105
18, 24924, Note_off_c, 3, 50, 64
18, 24930, Note_on_c, 3, 50, 122
18, 24955, Note_off_c, 3, 50, 64
18, 24965, Note_on_c, 3, 50, 107
18, 24997, Note_off_c, 3, 50, 64
18, 25852, Note_on_c, 3, 50, 105
18, 25877, Note_off_c, 3, 50, 64
18, 25889, Note_on_c, 3, 50, 119
18, 25911, Note_off_c, 3, 50, 64
18, 25918, Note_on_c, 3, 50, 100
18, 25952, Note_off_c, 3, 50, 64
18, 26798, Note_on_c, 3, 50, 102
18, 26823, Note_off_c, 3, 50, 64
18, 26834, Note_on_c, 3, 50, 127
18, 26861, Note_off_c, 3, 50, 64
18, 26866, Note_on_c, 3, 50, 110
18, 26909, Note_off_c, 3, 50, 64
18, 27174, Note_on_c, 3, 50, 105
18, 27200, Note_off_c, 3, 50, 64
18, 27231, Note_on_c, 3, 50, 100
18, 27259, Note_off_c, 3, 50, 64
18, 27291, Note_on_c, 3, 50, 102
18, 27322, Note_off_c, 3, 50, 64
18, 27358, Note_on_c, 3, 45, 122
18, 27411, Note_off_c, 3, 45, 64
18, 27591, Note_on_c, 3, 45, 127
18, 27641, Note_off_c, 3, 45, 64
18, 27840, Note_on_c, 3, 50, 119
18, 27886, Note_off_c, 3, 50, 64
18, 31625, Note_on_c, 3, 45, 107
18, 31670, Note_off_c, 3, 45, 64
18, 31685, Note_on_c, 3, 45, 100
18, 31715, Note_off_c, 3, 45, 64
18, 32577, Note_on_c, 3, 45, 105
18, 32595, Note_off_c, 3, 45, 64
18, 32598, Note_on_c, 3, 45, 122
18, 32620, Note_off_c, 3, 45, 64
18, 32630, Note_on_c, 3, 45, 105
18, 32671, Note_off_c, 3, 45, 64
18, 33531, Note_on_c, 3, 45, 100
18, 33551, Note_off_c, 3, 45, 64
18, 33560, Note_on_c, 3, 45, 110
18, 33580, Note_off_c, 3, 45, 64
18, 33588, Note_on_c, 3, 45, 105
18, 33627, Note_off_c, 3, 45, 64
18, 34481, Note_on_c, 3, 45, 102
18, 34504, Note_off_c, 3, 45, 64
18, 34511, Note_on_c, 3, 45, 122
18, 34535, Note_off_c, 3, 45, 64
18, 34546, Note_on_c, 3, 45, 102
18, 34585, Note_off_c, 3, 45, 64
18, 34858, Note_on_c, 3, 45, 102
18, 34887, Note_off_c, 3, 45, 64
18, 34923, Note_on_c, 3, 45, 102
18, 34950, Note_off_c, 3, 45, 64
18, 34979, Note_on_c, 3, 45, 105
18, 35013, Note_off_c, 3, 45, 64
18, 35047, Note_on_c, 3, 50, 119
18, 35089, Note_off_c, 3, 50, 64
18, 35468, Note_on_c, 3, 50, 119
18, 35499, Note_off_c, 3, 50, 64
18, 35531, Note_on_c, 3, 45, 119
18, 35586, Note_off_c, 3, 45, 64
18, 45286, Note_on_c, 3, 50, 116
18, 45320, Note_off_c, 3, 50, 64
18, 45351, Note_on_c, 3, 45, 119
18, 45422, Note_off_c, 3, 45, 64
18, 45529, Note_on_c, 3, 50, 119
18, 45559, Note_off_c, 3, 50, 64
18, 45601, Note_on_c, 3, 50, 113
18, 45670, Note_off_c, 3, 50, 64
18, 46097, Note_on_c, 3, 45, 119
18, 46177, Note_off_c, 3, 45, 64
18, 115199, Note_on_c, 3, 45, 116
18, 115322, Note_off_c, 3, 45, 64
18, 116265, Note_on_c, 3, 45, 107
18, 116405, Note_off_c, 3, 45, 64
18, 117719, Note_on_c, 3, 45, 107
18, 117831, Note_off_c, 3, 45, 64
18, 118070, Note_on_c, 3, 45, 113
18, 118189, Note_off_c, 3, 45, 64
18, 118448, Note_on_c, 3, 50, 119
18, 118560, Note_off_c, 3, 50, 64
18, 119519, Note_on_c, 3, 50, 107
18, 119642, Note_off_c, 3, 50, 64
18, 120597, Note_on_c, 3, 50, 107
18, 120731, Note_off_c, 3, 50, 64
18, 122036, Note_on_c, 3, 50, 110
18, 122136, Note_off_c, 3, 50, 64
18, 122399, Note_on_c, 3, 50, 116
18, 122496, Note_off_c, 3, 50, 64
18, 122761, Note_on_c, 3, 50, 119
18, 122859, Note_off_c, 3, 50, 64
18, 147834, Note_on_c, 3, 50, 102
18, 147875, Note_off_c, 3, 50, 64
18, 147960, Note_on_c, 3, 50, 102
18, 148042, Note_off_c, 3, 50, 64
18, 148184, Note_on_c, 3, 50, 95
18, 148236, Note_off_c, 3, 50, 64
18, 148307, Note_on_c, 3, 50, 105
18, 148386, Note_off_c, 3, 50, 64
18, 148542, Note_on_c, 3, 50, 102
18, 148586, Note_off_c, 3, 50, 64
18, 148674, Note_on_c, 3, 50, 110
18, 148757, Note_off_c, 3, 50, 64
18, 148904, Note_on_c, 3, 50, 102
18, 148955, Note_off_c, 3, 50, 64
18, 149030, Note_on_c, 3, 50, 107
18, 149099, Note_off_c, 3, 50, 64
18, 149261, Note_on_c, 3, 50, 102
18, 149313, Note_off_c, 3, 50, 64
18, 149381, Note_on_c, 3, 50, 105
18, 149451, Note_off_c, 3, 50, 64
18, 149624, Note_on_c, 3, 50, 102
18, 149675, Note_off_c, 3, 50, 64
18, 149759, Note_on_c, 3, 50, 110
18, 149869, Note_off_c, 3, 50, 64
18, 190076, Note_on_c, 3, 45, 122
18, 190175, Note_off_c, 3, 45, 64
18, 190433, Note_on_c, 3, 45, 119
18, 190526, Note_off_c, 3, 45, 64
18, 190781, Note_on_c, 3, 50, 119
18, 190869, Note_off_c, 3, 50, 64
18, 196446, Note_on_c, 3, 45, 107
18, 196500, Note_off_c, 3, 45, 64
18, 196568, Note_on_c, 3, 45, 107
18, 196647, Note_off_c, 3, 45, 64
18, 196791, Note_on_c, 3, 45, 116
18, 196840, Note_off_c, 3, 45, 64
18, 196917, Note_on_c, 3, 45, 119
18, 196980, Note_off_c, 3, 45, 64
18, 197150, Note_on_c, 3, 45, 119
18, 197209, Note_off_c, 3, 45, 64
18, 197280, Note_on_c, 3, 50, 119
18, 197373, Note_off_c, 3, 50, 64
18, 197834, Note_on_c, 3, 50, 107
18, 197906, Note_off_c, 3, 50, 64
18, 197978, Note_on_c, 3, 45, 122
18, 198042, Note_off_c, 3, 45, 64
18, 198212, Note_on_c, 3, 45, 122
18, 198280, Note_off_c, 3, 45, 64
18, 198334, Note_on_c, 3, 50, 122
18, 198422, Note_off_c, 3, 50, 64
18, 199443, Note_on_c, 3, 50, 119
18, 199571, Note_off_c, 3, 50, 64
18, 242630, Note_on_c, 3, 45, 116
18, 242680, Note_off_c, 3, 45, 64
18, 242754, Note_on_c, 3, 45, 105
18, 242831, Note_off_c, 3, 45, 64
18, 242972, Note_on_c, 3, 45, 105
18, 243029, Note_off_c, 3, 45, 64
18, 243098, Note_on_c, 3, 45, 119
18, 243166, Note_off_c, 3, 45, 64
18, 243308, Note_on_c, 3, 45, 116
18, 243377, Note_off_c, 3, 45, 64
18, 243443, Note_on_c, 3, 50, 119
18, 243533, Note_off_c, 3, 50, 64
18, 244026, Note_on_c, 3, 50, 102
18, 244088, Note_off_c, 3, 50, 64
18, 244172, Note_on_c, 3, 45, 122
18, 244242, Note_off_c, 3, 45, 64
18, 244394, Note_on_c, 3, 45, 102
18, 244460, Note_off_c, 3, 45, 64
18, 244518, Note_on_c, 3, 50, 127
18, 244600, Note_off_c, 3, 50, 64
18, 245661, Note_on_c, 3, 50, 119
18, 245772, Note_off_c, 3, 50, 64
18, 246717, Note_on_c, 3, 50, 119
18, 246833, Note_off_c, 3, 50, 64
18, 267237, Note_on_c, 3, 45, 127
18, 267333, Note_off_c, 3, 45, 64
18, 268336, Note_on_c, 3, 45, 127
18, 268454, Note_off_c, 3, 45, 64
18, 269392, Note_on_c, 3, 45, 119
18, 269516, Note_off_c, 3, 45, 64
18, 281619, Note_on_c, 3, 45, 113
18, 281727, Note_off_c, 3, 45, 64
18, 281966, Note_on_c, 3, 45, 116
18, 282062, Note_off_c, 3, 45, 64
18, 282323, Note_on_c, 3, 50, 122
18, 282427, Note_off_c, 3, 50, 64
18, 288795, Note_on_c, 3, 45, 119
18, 288932, Note_off_c, 3, 45, 64
18, 375249, Note_on_c, 3, 50, 122
18, 375328, Note_off_c, 3, 50, 64
18, 379964, Note_on_c, 3, 45, 119
18, 380007, Note_off_c, 3, 45, 64
18, 380028, Note_on_c, 3, 50, 119
18, 380086, Note_off_c, 3, 50, 64
18, 380921, Note_on_c, 3, 50, 113
18, 380948, Note_off_c, 3, 50, 64
18, 380981, Note_on_c, 3, 50, 110
18, 381037, Note_off_c, 3, 50, 64
18, 381895, Note_on_c, 3, 45, 119
18, 381922, Note_off_c, 3, 45, 64
18, 381957, Note_on_c, 3, 45, 119
18, 382028, Note_off_c, 3, 45, 64
18, 382854, Note_on_c, 3, 50, 102
18, 382880, Note_off_c, 3, 50, 64
18, 382912, Note_on_c, 3, 50, 107
18, 382957, Note_off_c, 3, 50, 64
18, 383207, Note_on_c, 3, 50, 110
18, 383236, Note_off_c, 3, 50, 64
18, 383270, Note_on_c, 3, 50, 105
18, 383301, Note_off_c, 3, 50, 64
18, 383330, Note_on_c, 3, 50, 105
18, 383360, Note_off_c, 3, 50, 64
18, 383388, Note_on_c, 3, 45, 127
18, 383452, Note_off_c, 3, 45, 64
18, 383643, Note_on_c, 3, 45, 127
18, 383709, Note_off_c, 3, 45, 64
18, 383888, Note_on_c, 3, 50, 127
18, 383926, Note_off_c, 3, 50, 64
18, 393660, Note_on_c, 3, 45, 127
18, 393707, Note_off_c, 3, 45, 64
18, 393718, Note_on_c, 3, 50, 127
18, 393776, Note_off_c, 3, 50, 64
18, 393895, Note_on_c, 3, 50, 110
18, 393939, Note_off_c, 3, 50, 64
18, 393955, Note_on_c, 3, 45, 119
18, 394029, Note_off_c, 3, 45, 64
18, 394137, Note_on_c, 3, 45, 107
18, 394167, Note_off_c, 3, 45, 64
18, 394205, Note_on_c, 3, 45, 119
18, 394272, Note_off_c, 3, 45, 64
18, 394387, Note_on_c, 3, 45, 105
18, 394425, Note_off_c, 3, 45, 64
18, 394438, Note_on_c, 3, 50, 127
18, 394547, Note_off_c, 3, 50, 64
18, 394547, End_track
19, 0, Start_track
19, 0, Title_t, "Oboe"
19, 0, Program_c, 4, 68
19, 0, Control_c, 4, 7, 100
19, 24300, Note_on_c, 4, 64, 91
19, 24338, Note_off_c, 4, 64, 64
19, 24354, Note_on_c, 4, 66, 91
19, 24392, Note_off_c, 4, 66, 64
19, 24409, Note_on_c, 4, 62, 98
19, 24460, Note_off_c, 4, 62, 64
19, 24479, Note_on_c, 4, 69, 93
19, 25236, Note_off_c, 4, 69, 64
19, 25264, Note_on_c, 4, 67, 89
19, 25303, Note_off_c, 4, 67, 64
19, 25320, Note_on_c, 4, 69, 82
19, 25356, Note_off_c, 4, 69, 64
19, 25370, Note_on_c, 4, 66, 91
19, 25409, Note_off_c, 4, 66, 64
19, 25440, Note_on_c, 4, 67, 98
19, 26196, Note_off_c, 4, 67, 64
19, 26220, Note_on_c, 4, 66, 82
19, 26256, Note_off_c, 4, 66, 64
19, 26276, Note_on_c, 4, 67, 80
19, 26311, Note_off_c, 4, 67, 64
19, 26333, Note_on_c, 4, 64, 85
19, 26375, Note_off_c, 4, 64, 64
19, 26390, Note_on_c, 4, 66, 85
19, 26439, Note_off_c, 4, 66, 64
19, 26452, Note_on_c, 4, 67, 82
19, 26508, Note_off_c, 4, 67, 64
19, 26510, Note_on_c, 4, 69, 82
19, 26552, Note_off_c, 4, 69, 64
19, 26564, Note_on_c, 4, 71, 93
19, 26614, Note_off_c, 4, 71, 64
19, 26622, Note_on_c, 4, 73, 68
19, 26662, Note_off_c, 4, 73, 64
19, 26675, Note_on_c, 4, 74, 85
19, 26719, Note_off_c, 4, 74, 64
19, 26728, Note_on_c, 4, 76, 95
19, 26777, Note_off_c, 4, 76, 64
19, 26781, Note_on_c, 4, 78, 102
19, 26821, Note_off_c, 4, 78, 64
19, 26852, Note_on_c, 4, 79, 98
19, 27199, Note_off_c, 4, 79, 64
19, 27281, Note_on_c, 4, 79, 89
19, 27316, Note_off_c, 4, 79, 64
19, 27343, Note_on_c, 4, 79, 98
19, 27459, Note_off_c, 4, 79, 64
19, 27520, Note_on_c, 4, 78, 78
19, 27553, Note_on_c, 4, 76, 87
19, 27554, Note_off_c, 4, 78, 64
19, 27589, Note_off_c, 4, 76, 64
19, 27600, Note_on_c, 4, 81, 98
19, 27699, Note_off_c, 4, 81, 64
19, 27776, Note_on_c, 4, 76, 91
19, 27812, Note_off_c, 4, 76, 64
19, 27830, Note_on_c, 4, 78, 102
19, 27947, Note_off_c, 4, 78, 64
19, 28071, Note_on_c, 4, 74, 85
19, 28176, Note_off_c, 4, 74, 64
19, 28327, Note_on_c, 4, 81, 105
19, 28832, Note_off_c, 4, 81, 64
19, 28863, Note_on_c, 4, 79, 87
19, 28896, Note_off_c, 4, 79, 64
19, 28919, Note_on_c, 4, 81, 87
19, 28956, Note_off_c, 4, 81, 64
19, 28969, Note_on_c, 4, 78, 76
19, 29011, Note_off_c, 4, 78, 64
19, 29035, Note_on_c, 4, 83, 98
19, 29128, Note_off_c, 4, 83, 64
19, 29210, Note_on_c, 4, 81, 74
19, 29238, Note_off_c, 4, 81, 64
19, 29273, Note_on_c, 4, 81, 85
19, 29337, Note_off_c, 4, 81, 64
19, 29337, Note_on_c, 4, 79, 52
19, 29368, Note_off_c, 4, 79, 64
19, 29372, Note_on_c, 4, 81, 66
19, 29396, Note_off_c, 4, 81, 64
19, 29399, Note_on_c, 4, 79, 62
19, 29423, Note_off_c, 4, 79, 64
19, 29425, Note_on_c, 4, 81, 76
19, 29445, Note_on_c, 4, 79, 66
19, 29447, Note_off_c, 4, 81, 64
19, 29471, Note_off_c, 4, 79, 64
19, 29471, Note_on_c, 4, 81, 85
19, 29496, Note_on_c, 4, 79, 80
19, 29500, Note_off_c, 4, 81, 64
19, 29617, Note_off_c, 4, 79, 64
19, 29685, Note_on_c, 4, 78, 72
19, 29714, Note_off_c, 4, 78, 64
19, 29748, Note_on_c, 4, 78, 95
19, 29875, Note_on_c, 4, 79, 82
19, 29878, Note_off_c, 4, 78, 64
19, 30044, Note_off_c, 4, 79, 64
19, 30065, Note_on_c, 4, 78, 98
19, 30097, Note_off_c, 4, 78, 64
19, 30120, Note_on_c, 4, 79, 98
19, 30150, Note_off_c, 4, 79, 64
19, 30176, Note_on_c, 4, 76, 98
19, 30211, Note_off_c, 4, 76, 64
19, 30243, Note_on_c, 4, 72, 87
19, 30760, Note_off_c, 4, 72, 64
19, 30786, Note_on_c, 4, 71, 87
19, 30822, Note_off_c, 4, 71, 64
19, 30845, Note_on_c, 4, 72, 85
19, 30878, Note_off_c, 4, 72, 64
19, 30891, Note_on_c, 4, 69, 68
19, 30927, Note_off_c, 4, 69, 64
19, 30952, Note_on_c, 4, 71, 102
19, 31039, Note_off_c, 4, 71, 64
19, 31127, Note_on_c, 4, 73, 80
19, 31160, Note_off_c, 4, 73, 64
19, 31189, Note_on_c, 4, 74, 87
19, 31551, Note_off_c, 4, 74, 64
19, 31613, Note_on_c, 4, 76, 80
19, 31647, Note_off_c, 4, 76, 64
19, 31676, Note_on_c, 4, 74, 102
19, 31792, Note_off_c, 4, 74, 64
19, 31793, Note_on_c, 4, 73, 70
19, 31846, Note_on_c, 4, 76, 78
19, 31855, Note_off_c, 4, 73, 64
19, 31880, Note_off_c, 4, 76, 64
19, 31910, Note_on_c, 4, 76, 98
19, 31993, Note_off_c, 4, 76, 64
19, 32093, Note_on_c, 4, 79, 82
19, 32129, Note_off_c, 4, 79, 64
19, 32159, Note_on_c, 4, 79, 95
19, 32414, Note_off_c, 4, 79, 64
19, 32455, Note_on_c, 4, 71, 82
19, 32495, Note_off_c, 4, 71, 64
19, 32512, Note_on_c, 4, 73, 87
19, 32543, Note_off_c, 4, 73, 64
19, 32565, Note_on_c, 4, 69, 87
19, 32608, Note_off_c, 4, 69, 64
19, 32637, Note_on_c, 4, 78, 102
19, 33381, Note_off_c, 4, 78, 64
19, 33407, Note_on_c, 4, 76, 82
19, 33439, Note_off_c, 4, 76, 64
19, 33464, Note_on_c, 4, 78, 95
19, 33496, Note_off_c, 4, 78, 64
19, 33513, Note_on_c, 4, 74, 82
19, 33555, Note_off_c, 4, 74, 64
19, 33584, Note_on_c, 4, 76, 89
19, 34167, Note_off_c, 4, 76, 64
19, 34207, Note_on_c, 4, 81, 85
19, 34258, Note_off_c, 4, 81, 64
19, 34258, Note_on_c, 4, 80, 82
19, 34298, Note_off_c, 4, 80, 64
19, 34314, Note_on_c, 4, 78, 89
19, 34355, Note_off_c, 4, 78, 64
19, 34369, Note_on_c, 4, 76, 87
19, 34419, Note_off_c, 4, 76, 64
19, 34423, Note_on_c, 4, 74, 80
19, 34459, Note_off_c, 4, 74, 64
19, 34480, Note_on_c, 4, 73, 93
19, 34519, Note_off_c, 4, 73, 64
19, 34550, Note_on_c, 4, 74, 95
19, 34861, Note_off_c, 4, 74, 64
19, 34975, Note_on_c, 4, 74, 91
19, 35003, Note_off_c, 4, 74, 64
19, 35029, Note_on_c, 4, 74, 98
19, 35140, Note_off_c, 4, 74, 64
19, 35209, Note_on_c, 4, 73, 58
19, 35239, Note_on_c, 4, 71, 93
19, 35247, Note_off_c, 4, 73, 64
19, 35280, Note_on_c, 4, 76, 105
19, 35289, Note_off_c, 4, 71, 64
19, 35388, Note_off_c, 4, 76, 64
19, 35461, Note_on_c, 4, 74, 82
19, 35504, Note_off_c, 4, 74, 64
19, 35518, Note_on_c, 4, 73, 85
19, 35638, Note_off_c, 4, 73, 64
19, 35761, Note_on_c, 4, 69, 87
19, 35852, Note_off_c, 4, 69, 64
19, 35999, Note_on_c, 4, 78, 93
19, 36495, Note_off_c, 4, 78, 64
19, 36536, Note_on_c, 4, 78, 80
19, 36577, Note_off_c, 4, 78, 64
19, 36596, Note_on_c, 4, 80, 76
19, 36634, Note_off_c, 4, 80, 64
19, 36650, Note_on_c, 4, 81, 85
19, 36689, Note_off_c, 4, 81, 64
19, 36711, Note_on_c, 4, 83, 80
19, 36753, Note_off_c, 4, 83, 64
19, 36773, Note_on_c, 4, 81, 82
19, 36806, Note_off_c, 4, 81, 64
19, 36830, Note_on_c, 4, 83, 82
19, 36868, Note_off_c, 4, 83, 64
19, 36884, Note_on_c, 4, 80, 98
19, 36923, Note_off_c, 4, 80, 64
19, 36951, Note_on_c, 4, 73, 80
19, 37047, Note_off_c, 4, 73, 64
19, 37138, Note_on_c, 4, 83, 80
19, 37177, Note_off_c, 4, 83, 64
19, 37196, Note_on_c, 4, 81, 93
19, 37300, Note_off_c, 4, 81, 64
19, 37378, Note_on_c, 4, 80, 87
19, 37407, Note_off_c, 4, 80, 64
19, 37443, Note_on_c, 4, 80, 105
19, 37564, Note_off_c, 4, 80, 64
19, 37570, Note_on_c, 4, 81, 87
19, 37726, Note_off_c, 4, 81, 64
19, 37744, Note_on_c, 4, 80, 85
19, 37784, Note_off_c, 4, 80, 64
19, 37799, Note_on_c, 4, 81, 89
19, 37832, Note_off_c, 4, 81, 64
19, 37856, Note_on_c, 4, 78, 85
19, 37891, Note_off_c, 4, 78, 64
19, 37920, Note_on_c, 4, 74, 78
19, 38429, Note_off_c, 4, 74, 64
19, 38455, Note_on_c, 4, 73, 82
19, 38492, Note_off_c, 4, 73, 64
19, 38505, Note_on_c, 4, 74, 85
19, 38541, Note_off_c, 4, 74, 64
19, 38565, Note_on_c, 4, 71, 87
19, 38608, Note_off_c, 4, 71, 64
19, 38628, Note_on_c, 4, 73, 93
19, 38716, Note_off_c, 4, 73, 64
19, 38808, Note_on_c, 4, 74, 80
19, 38853, Note_off_c, 4, 74, 64
19, 38866, Note_on_c, 4, 76, 95
19, 38949, Note_off_c, 4, 76, 64
19, 39045, Note_on_c, 4, 78, 68
19, 39087, Note_off_c, 4, 78, 64
19, 39102, Note_on_c, 4, 80, 98
19, 39185, Note_off_c, 4, 80, 64
19, 39289, Note_on_c, 4, 81, 82
19, 39328, Note_off_c, 4, 81, 64
19, 39352, Note_on_c, 4, 71, 85
19, 39616, Note_off_c, 4, 71, 64
19, 39642, Note_on_c, 4, 69, 95
19, 39687, Note_off_c, 4, 69, 64
19, 39695, Note_on_c, 4, 71, 82
19, 39730, Note_off_c, 4, 71, 64
19, 39758, Note_on_c, 4, 68, 89
19, 39800, Note_off_c, 4, 68, 64
19, 39828, Note_on_c, 4, 74, 91
19, 40087, Note_off_c, 4, 74, 64
19, 40113, Note_on_c, 4, 73, 82
19, 40148, Note_off_c, 4, 73, 64
19, 40172, Note_on_c, 4, 74, 91
19, 40212, Note_off_c, 4, 74, 64
19, 40231, Note_on_c, 4, 71, 85
19, 40266, Note_off_c, 4, 71, 64
19, 40297, Note_on_c, 4, 73, 87
19, 40577, Note_off_c, 4, 73, 64
19, 40605, Note_on_c, 4, 71, 89
19, 40643, Note_off_c, 4, 71, 64
19, 40663, Note_on_c, 4, 73, 98
19, 40701, Note_off_c, 4, 73, 64
19, 40716, Note_on_c, 4, 69, 89
19, 40763, Note_off_c, 4, 69, 64
19, 40784, Note_on_c, 4, 76, 89
19, 41032, Note_off_c, 4, 76, 64
19, 41072, Note_on_c, 4, 74, 74
19, 41104, Note_off_c, 4, 74, 64
19, 41133, Note_on_c, 4, 76, 82
19, 41174, Note_off_c, 4, 76, 64
19, 41190, Note_on_c, 4, 73, 82
19, 41231, Note_off_c, 4, 73, 64
19, 41262, Note_on_c, 4, 74, 87
19, 41552, Note_off_c, 4, 74, 64
19, 41576, Note_on_c, 4, 73, 82
19, 41615, Note_off_c, 4, 73, 64
19, 41633, Note_on_c, 4, 74, 89
19, 41664, Note_off_c, 4, 74, 64
19, 41685, Note_on_c, 4, 71, 87
19, 41742, Note_off_c, 4, 71, 64
19, 41760, Note_on_c, 4, 77, 87
19, 42039, Note_off_c, 4, 77, 64
19, 42063, Note_on_c, 4, 76, 82
19, 42098, Note_off_c, 4, 76, 64
19, 42117, Note_on_c, 4, 77, 87
19, 42158, Note_off_c, 4, 77, 64
19, 42175, Note_on_c, 4, 74, 87
19, 42213, Note_off_c, 4, 74, 64
19, 42241, Note_on_c, 4, 76, 93
19, 42533, Note_off_c, 4, 76, 64
19, 42544, Note_on_c, 4, 74, 93
19, 42581, Note_off_c, 4, 74, 64
19, 42600, Note_on_c, 4, 76, 85
19, 42635, Note_off_c, 4, 76, 64
19, 42653, Note_on_c, 4, 72, 93
19, 42694, Note_off_c, 4, 72, 64
19, 42722, Note_on_c, 4, 74, 85
19, 42982, Note_off_c, 4, 74, 64
19, 43010, Note_on_c, 4, 72, 82
19, 43041, Note_off_c, 4, 72, 64
19, 43065, Note_on_c, 4, 74, 89
19, 43104, Note_off_c, 4, 74, 64
19, 43119, Note_on_c, 4, 71, 82
19, 43157, Note_off_c, 4, 71, 64
19, 43188, Note_on_c, 4, 72, 87
19, 43452, Note_off_c, 4, 72, 64
19, 43481, Note_on_c, 4, 71, 72
19, 43519, Note_off_c, 4, 71, 64
19, 43540, Note_on_c, 4, 72, 93
19, 43567, Note_off_c, 4, 72, 64
19, 43593, Note_on_c, 4, 69, 87
19, 43647, Note_off_c, 4, 69, 64
19, 43668, Note_on_c, 4, 79, 85
19, 44168, Note_off_c, 4, 79, 64
19, 44188, Note_on_c, 4, 78, 74
19, 44232, Note_off_c, 4, 78, 64
19, 44254, Note_on_c, 4, 79, 87
19, 44292, Note_off_c, 4, 79, 64
19, 44311, Note_on_c, 4, 76, 82
19, 44361, Note_off_c, 4, 76, 64
19, 44383, Note_on_c, 4, 78, 91
19, 44487, Note_off_c, 4, 78, 64
19, 44571, Note_on_c, 4, 80, 89
19, 44605, Note_off_c, 4, 80, 64
19, 44631, Note_on_c, 4, 81, 87
19, 44957, Note_off_c, 4, 81, 64
19, 45039, Note_on_c, 4, 83, 70
19, 45080, Note_off_c, 4, 83, 64
19, 45107, Note_on_c, 4, 74, 87
19, 45268, Note_off_c, 4, 74, 64
19, 45346, Note_on_c, 4, 73, 87
19, 45483, Note_off_c, 4, 73, 64
19, 45529, Note_on_c, 4, 71, 85
19, 45571, Note_off_c, 4, 71, 64
19, 45600, Note_on_c, 4, 73, 91
19, 45657, Note_on_c, 4, 71, 70
19, 45661, Note_off_c, 4, 73, 64
19, 45688, Note_off_c, 4, 71, 64
19, 45696, Note_on_c, 4, 73, 62
19, 45718, Note_off_c, 4, 73, 64
19, 45719, Note_on_c, 4, 71, 63
19, 45744, Note_off_c, 4, 71, 64
19, 45748, Note_on_c, 4, 73, 76
19, 45767, Note_on_c, 4, 71, 70
19, 45769, Note_off_c, 4, 73, 64
19, 45797, Note_on_c, 4, 73, 89
19, 45799, Note_off_c, 4, 71, 64
19, 45824, Note_off_c, 4, 73, 64
19, 45825, Note_on_c, 4, 71, 57
19, 45945, Note_off_c, 4, 71, 64
19, 46015, Note_on_c, 4, 69, 82
19, 46041, Note_off_c, 4, 69, 64
19, 46080, Note_on_c, 4, 69, 93
19, 46192, Note_off_c, 4, 69, 64
19, 77019, Note_on_c, 4, 79, 74
19, 77419, Note_off_c, 4, 79, 64
19, 77504, Note_on_c, 4, 73, 62
19, 77612, Note_on_c, 4, 74, 76
19, 77649, Note_off_c, 4, 73, 64
19, 77705, Note_off_c, 4, 74, 64
19, 77732, Note_on_c, 4, 76, 80
19, 77846, Note_on_c, 4, 85, 78
19, 77869, Note_off_c, 4, 76, 64
19, 77919, Note_off_c, 4, 85, 64
19, 77966, Note_on_c, 4, 75, 66
19, 78020, Note_off_c, 4, 75, 64
19, 78094, Note_on_c, 4, 76, 80
19, 78204, Note_on_c, 4, 75, 62
19, 78220, Note_off_c, 4, 76, 64
19, 78323, Note_off_c, 4, 75, 64
19, 78324, Note_on_c, 4, 73, 58
19, 78393, Note_off_c, 4, 73, 64
19, 78461, Note_on_c, 4, 75, 74
19, 78602, Note_off_c, 4, 75, 64
19, 78812, Note_on_c, 4, 78, 64
19, 78945, Note_off_c, 4, 78, 64
19, 79179, Note_on_c, 4, 83, 80
19, 79584, Note_off_c, 4, 83, 64
19, 79664, Note_on_c, 4, 71, 70
19, 79763, Note_on_c, 4, 73, 62
19, 79790, Note_off_c, 4, 71, 64
19, 79880, Note_off_c, 4, 73, 64
19, 79887, Note_on_c, 4, 74, 82
19, 80009, Note_on_c, 4, 83, 85
19, 80025, Note_off_c, 4, 74, 64
19, 80078, Note_off_c, 4, 83, 64
19, 80126, Note_on_c, 4, 73, 68
19, 80214, Note_off_c, 4, 73, 64
19, 80243, Note_on_c, 4, 74, 80
19, 80348, Note_on_c, 4, 73, 56
19, 80369, Note_off_c, 4, 74, 64
19, 80468, Note_off_c, 4, 73, 64
19, 80468, Note_on_c, 4, 71, 59
19, 80544, Note_off_c, 4, 71, 64
19, 80605, Note_on_c, 4, 73, 68
19, 80754, Note_off_c, 4, 73, 64
19, 80974, Note_on_c, 4, 76, 74
19, 81102, Note_off_c, 4, 76, 64
19, 81327, Note_on_c, 4, 81, 68
19, 81671, Note_off_c, 4, 81, 64
19, 81804, Note_on_c, 4, 73, 68
19, 81906, Note_on_c, 4, 74, 82
19, 81941, Note_off_c, 4, 73, 64
19, 82002, Note_off_c, 4, 74, 64
19, 82045, Note_on_c, 4, 76, 76
19, 82158, Note_on_c, 4, 73, 58
19, 82180, Note_off_c, 4, 76, 64
19, 82248, Note_off_c, 4, 73, 64
19, 82275, Note_on_c, 4, 74, 70
19, 82349, Note_off_c, 4, 74, 64
19, 82405, Note_on_c, 4, 69, 82
19, 82504, Note_on_c, 4, 73, 63
19, 82512, Note_off_c, 4, 69, 64
19, 82594, Note_off_c, 4, 73, 64
19, 82619, Note_on_c, 4, 74, 68
19, 82691, Note_off_c, 4, 74, 64
19, 82758, Note_on_c, 4, 83, 82
19, 82820, Note_off_c, 4, 83, 64
19, 82877, Note_on_c, 4, 73, 64
19, 82977, Note_off_c, 4, 73, 64
19, 83001, Note_on_c, 4, 74, 74
19, 83094, Note_off_c, 4, 74, 64
19, 83141, Note_on_c, 4, 76, 78
19, 83258, Note_on_c, 4, 73, 59
19, 83271, Note_off_c, 4, 76, 64
19, 83350, Note_off_c, 4, 73, 64
19, 83373, Note_on_c, 4, 74, 70
19, 83458, Note_off_c, 4, 74, 64
19, 83499, Note_on_c, 4, 71, 85
19, 83602, Note_on_c, 4, 73, 57
19, 83624, Note_off_c, 4, 71, 64
19, 83714, Note_off_c, 4, 73, 64
19, 83715, Note_on_c, 4, 74, 62
19, 83777, Note_off_c, 4, 74, 64
19, 83850, Note_on_c, 4, 77, 87
19, 83962, Note_on_c, 4, 76, 63
19, 83971, Note_off_c, 4, 77, 64
19, 84066, Note_off_c, 4, 76, 64
19, 84088, Note_on_c, 4, 74, 59
19, 84140, Note_off_c, 4, 74, 64
19, 84209, Note_on_c, 4, 74, 85
19, 84322, Note_on_c, 4, 72, 66
19, 84340, Note_off_c, 4, 74, 64
19, 84399, Note_off_c, 4, 72, 64
19, 84430, Note_on_c, 4, 71, 63
19, 84493, Note_off_c, 4, 71, 64
19, 84565, Note_on_c, 4, 71, 80
19, 84664, Note_on_c, 4, 72, 66
19, 84698, Note_off_c, 4, 71, 64
19, 84790, Note_off_c, 4, 72, 64
19, 84794, Note_on_c, 4, 74, 59
19, 84819, Note_off_c, 4, 74, 64
19, 84927, Note_on_c, 4, 72, 85
19, 85033, Note_on_c, 4, 69, 66
19, 85080, Note_off_c, 4, 72, 64
19, 85152, Note_on_c, 4, 71, 68
19, 85168, Note_off_c, 4, 69, 64
19, 85278, Note_off_c, 4, 71, 64
19, 85281, Note_on_c, 4, 72, 78
19, 85389, Note_on_c, 4, 74, 66
19, 85391, Note_off_c, 4, 72, 64
19, 85461, Note_off_c, 4, 74, 64
19, 85514, Note_on_c, 4, 71, 66
19, 85574, Note_off_c, 4, 71, 64
19, 85647, Note_on_c, 4, 72, 85
19, 85757, Note_on_c, 4, 71, 76
19, 85760, Note_off_c, 4, 72, 64
19, 85860, Note_off_c, 4, 71, 64
19, 85865, Note_on_c, 4, 69, 80
19, 85926, Note_off_c, 4, 69, 64
19, 86019, Note_on_c, 4, 68, 80
19, 86129, Note_on_c, 4, 71, 64
19, 86167, Note_off_c, 4, 68, 64
19, 86228, Note_on_c, 4, 76, 78
19, 86239, Note_off_c, 4, 71, 64
19, 86356, Note_on_c, 4, 80, 76
19, 86358, Note_off_c, 4, 76, 64
19, 86482, Note_on_c, 4, 81, 72
19, 86493, Note_off_c, 4, 80, 64
19, 86583, Note_off_c, 4, 81, 64
19, 86599, Note_on_c, 4, 83, 68
19, 86653, Note_off_c, 4, 83, 64
19, 86736, Note_on_c, 4, 76, 85
19, 86851, Note_on_c, 4, 81, 80
19, 86874, Note_off_c, 4, 76, 64
19, 86936, Note_off_c, 4, 81, 64
19, 86959, Note_on_c, 4, 80, 82
19, 87020, Note_off_c, 4, 80, 64
19, 87107, Note_on_c, 4, 81, 82
19, 89240, Note_off_c, 4, 81, 64
19, 89366, Note_on_c, 4, 78, 82
19, 89475, Note_on_c, 4, 80, 74
19, 89501, Note_off_c, 4, 78, 64
19, 89598, Note_on_c, 4, 81, 72
19, 89636, Note_off_c, 4, 80, 64
19, 89709, Note_off_c, 4, 81, 64
19, 89715, Note_on_c, 4, 83, 68
19, 89785, Note_off_c, 4, 83, 64
19, 89848, Note_on_c, 4, 80, 76
19, 89906, Note_off_c, 4, 80, 64
19, 89985, Note_on_c, 4, 81, 85
19, 90091, Note_on_c, 4, 80, 58
19, 90113, Note_off_c, 4, 81, 64
19, 90195, Note_on_c, 4, 78, 61
19, 90204, Note_off_c, 4, 80, 64
19, 90249, Note_off_c, 4, 78, 64
19, 90348, Note_on_c, 4, 80, 78
19, 90456, Note_on_c, 4, 81, 68
19, 90519, Note_off_c, 4, 80, 64
19, 90573, Note_off_c, 4, 81, 64
19, 90586, Note_on_c, 4, 83, 66
19, 90716, Note_on_c, 4, 85, 85
19, 90719, Note_off_c, 4, 83, 64
19, 90827, Note_on_c, 4, 86, 80
19, 90851, Note_off_c, 4, 85, 64
19, 90894, Note_off_c, 4, 86, 64
19, 90939, Note_on_c, 4, 83, 70
19, 90991, Note_off_c, 4, 83, 64
19, 91071, Note_on_c, 4, 83, 89
19, 91171, Note_on_c, 4, 85, 63
19, 91178, Note_off_c, 4, 83, 64
19, 91248, Note_off_c, 4, 85, 64
19, 91288, Note_on_c, 4, 81, 70
19, 91353, Note_off_c, 4, 81, 64
19, 91436, Note_on_c, 4, 81, 80
19, 91808, Note_off_c, 4, 81, 64
19, 91907, Note_on_c, 4, 74, 74
19, 92012, Note_on_c, 4, 73, 62
19, 92053, Note_off_c, 4, 74, 64
19, 92103, Note_off_c, 4, 73, 64
19, 92140, Note_on_c, 4, 71, 89
19, 92239, Note_off_c, 4, 71, 64
19, 92256, Note_on_c, 4, 81, 68
19, 92361, Note_off_c, 4, 81, 64
19, 92362, Note_on_c, 4, 80, 70
19, 92444, Note_off_c, 4, 80, 64
19, 92499, Note_on_c, 4, 81, 70
19, 92669, Note_off_c, 4, 81, 64
19, 115403, Note_on_c, 4, 73, 53
19, 115450, Note_off_c, 4, 73, 64
19, 115533, Note_on_c, 4, 73, 78
19, 115633, Note_on_c, 4, 76, 66
19, 115658, Note_off_c, 4, 73, 64
19, 115707, Note_off_c, 4, 76, 64
19, 115752, Note_on_c, 4, 74, 61
19, 115799, Note_off_c, 4, 74, 64
19, 115887, Note_on_c, 4, 74, 89
19, 116007, Note_on_c, 4, 78, 59
19, 116033, Note_off_c, 4, 74, 64
19, 116072, Note_off_c, 4, 78, 64
19, 116124, Note_on_c, 4, 76, 60
19, 116173, Note_off_c, 4, 76, 64
19, 116265, Note_on_c, 4, 76, 68
19, 116463, Note_off_c, 4, 76, 64
19, 117572, Note_on_c, 4, 81, 68
19, 117627, Note_off_c, 4, 81, 64
19, 117699, Note_on_c, 4, 81, 91
19, 117800, Note_on_c, 4, 83, 61
19, 117840, Note_off_c, 4, 81, 64
19, 117896, Note_off_c, 4, 83, 64
19, 117897, Note_on_c, 4, 79, 63
19, 117951, Note_off_c, 4, 79, 64
19, 118043, Note_on_c, 4, 79, 100
19, 118144, Note_on_c, 4, 81, 63
19, 118173, Note_off_c, 4, 79, 64
19, 118218, Note_off_c, 4, 81, 64
19, 118283, Note_on_c, 4, 78, 87
19, 118333, Note_off_c, 4, 78, 64
19, 118418, Note_on_c, 4, 78, 100
19, 118554, Note_off_c, 4, 78, 64
19, 118644, Note_on_c, 4, 74, 66
19, 118695, Note_off_c, 4, 74, 64
19, 118792, Note_on_c, 4, 74, 102
19, 118896, Note_on_c, 4, 78, 59
19, 118925, Note_off_c, 4, 74, 64
19, 118973, Note_off_c, 4, 78, 64
19, 119006, Note_on_c, 4, 76, 66
19, 119057, Note_off_c, 4, 76, 64
19, 119143, Note_on_c, 4, 76, 91
19, 119253, Note_on_c, 4, 79, 70
19, 119258, Note_off_c, 4, 76, 64
19, 119323, Note_off_c, 4, 79, 64
19, 119357, Note_on_c, 4, 78, 85
19, 119413, Note_off_c, 4, 78, 64
19, 119494, Note_on_c, 4, 78, 76
19, 119687, Note_off_c, 4, 78, 64
19, 120812, Note_on_c, 4, 69, 70
19, 120869, Note_off_c, 4, 69, 64
19, 120939, Note_on_c, 4, 69, 87
19, 121051, Note_on_c, 4, 72, 68
19, 121071, Note_off_c, 4, 69, 64
19, 121134, Note_off_c, 4, 72, 64
19, 121161, Note_on_c, 4, 71, 70
19, 121209, Note_off_c, 4, 71, 64
19, 121290, Note_on_c, 4, 71, 93
19, 121402, Note_on_c, 4, 74, 66
19, 121424, Note_off_c, 4, 71, 64
19, 121476, Note_off_c, 4, 74, 64
19, 121530, Note_on_c, 4, 72, 66
19, 121578, Note_off_c, 4, 72, 64
19, 121665, Note_on_c, 4, 72, 100
19, 121773, Note_on_c, 4, 76, 72
19, 121807, Note_off_c, 4, 72, 64
19, 121881, Note_on_c, 4, 74, 63
19, 121902, Note_off_c, 4, 76, 64
19, 121937, Note_off_c, 4, 74, 64
19, 122005, Note_on_c, 4, 74, 80
19, 122131, Note_on_c, 4, 76, 70
19, 122149, Note_off_c, 4, 74, 64
19, 122205, Note_off_c, 4, 76, 64
19, 122259, Note_on_c, 4, 72, 64
19, 122309, Note_off_c, 4, 72, 64
19, 122401, Note_on_c, 4, 72, 98
19, 122504, Note_on_c, 4, 74, 72
19, 122534, Note_off_c, 4, 72, 64
19, 122603, Note_off_c, 4, 74, 64
19, 122621, Note_on_c, 4, 71, 55
19, 122667, Note_off_c, 4, 71, 64
19, 122748, Note_on_c, 4, 71, 91
19, 122860, Note_on_c, 4, 67, 68
19, 122907, Note_off_c, 4, 71, 64
19, 122972, Note_on_c, 4, 69, 66
19, 122995, Note_off_c, 4, 67, 64
19, 123087, Note_off_c, 4, 69, 64
19, 123114, Note_on_c, 4, 71, 95
19, 123220, Note_on_c, 4, 73, 64
19, 123225, Note_off_c, 4, 71, 64
19, 123302, Note_off_c, 4, 73, 64
19, 123341, Note_on_c, 4, 74, 74
19, 123396, Note_off_c, 4, 74, 64
19, 123471, Note_on_c, 4, 74, 80
19, 123930, Note_off_c, 4, 74, 64
19, 123942, Note_on_c, 4, 73, 61
19, 124034, Note_off_c, 4, 73, 64
19, 124044, Note_on_c, 4, 71, 82
19, 124120, Note_off_c, 4, 71, 64
19, 124187, Note_on_c, 4, 73, 80
19, 124286, Note_on_c, 4, 74, 72
19, 124318, Note_off_c, 4, 73, 64
19, 124392, Note_off_c, 4, 74, 64
19, 124413, Note_on_c, 4, 76, 76
19, 124466, Note_off_c, 4, 76, 64
19, 124554, Note_on_c, 4, 76, 91
19, 125000, Note_off_c, 4, 76, 64
19, 125040, Note_on_c, 4, 74, 82
19, 125110, Note_off_c, 4, 74, 64
19, 125148, Note_on_c, 4, 73, 78
19, 125229, Note_off_c, 4, 73, 64
19, 125277, Note_on_c, 4, 74, 85
19, 125378, Note_on_c, 4, 76, 78
19, 125398, Note_off_c, 4, 74, 64
19, 125456, Note_off_c, 4, 76, 64
19, 125497, Note_on_c, 4, 78, 93
19, 125555, Note_off_c, 4, 78, 64
19, 125637, Note_on_c, 4, 78, 100
19, 126087, Note_off_c, 4, 78, 64
19, 126134, Note_on_c, 4, 76, 82
19, 126217, Note_off_c, 4, 76, 64
19, 126232, Note_on_c, 4, 74, 76
19, 126312, Note_off_c, 4, 74, 64
19, 126354, Note_on_c, 4, 76, 82
19, 126455, Note_off_c, 4, 76, 64
19, 126460, Note_on_c, 4, 78, 74
19, 126536, Note_off_c, 4, 78, 64
19, 126573, Note_on_c, 4, 79, 85
19, 126640, Note_off_c, 4, 79, 64
19, 126717, Note_on_c, 4, 79, 93
19, 127142, Note_off_c, 4, 79, 64
19, 139312, Note_on_c, 4, 74, 74
19, 139436, Note_off_c, 4, 74, 64
19, 139650, Note_on_c, 4, 78, 64
19, 139780, Note_off_c, 4, 78, 64
19, 140405, Note_on_c, 4, 76, 70
19, 140529, Note_off_c, 4, 76, 64
19, 140759, Note_on_c, 4, 79, 80
19, 140887, Note_off_c, 4, 79, 64
19, 141353, Note_on_c, 4, 78, 80
19, 141405, Note_off_c, 4, 78, 64
19, 141492, Note_on_c, 4, 78, 105
19, 141587, Note_on_c, 4, 79, 68
19, 141602, Note_off_c, 4, 78, 64
19, 141667, Note_off_c, 4, 79, 64
19, 141699, Note_on_c, 4, 76, 57
19, 141740, Note_off_c, 4, 76, 64
19, 141839, Note_on_c, 4, 76, 91
19, 141938, Note_off_c, 4, 76, 64
19, 141938, Note_on_c, 4, 78, 57
19, 142003, Note_off_c, 4, 78, 64
19, 142057, Note_on_c, 4, 75, 52
19, 142093, Note_off_c, 4, 75, 64
19, 142185, Note_on_c, 4, 75, 66
19, 142395, Note_off_c, 4, 75, 64
19, 142565, Note_on_c, 4, 83, 55
19, 143436, Note_off_c, 4, 83, 64
19, 143486, Note_on_c, 4, 75, 60
19, 143564, Note_off_c, 4, 75, 64
19, 143623, Note_on_c, 4, 76, 63
19, 144471, Note_on_c, 4, 78, 53
19, 144485, Note_off_c, 4, 76, 64
19, 144566, Note_off_c, 4, 78, 64
19, 144566, Note_on_c, 4, 79, 70
19, 144627, Note_off_c, 4, 79, 64
19, 144716, Note_on_c, 4, 81, 66
19, 145603, Note_off_c, 4, 81, 64
19, 145630, Note_on_c, 4, 71, 64
19, 145707, Note_off_c, 4, 71, 64
19, 145781, Note_on_c, 4, 72, 63
19, 146629, Note_off_c, 4, 72, 64
19, 146743, Note_on_c, 4, 62, 52
19, 146800, Note_off_c, 4, 62, 64
19, 146865, Note_on_c, 4, 62, 66
19, 147030, Note_off_c, 4, 62, 64
19, 147095, Note_on_c, 4, 62, 64
19, 147158, Note_off_c, 4, 62, 64
19, 147227, Note_on_c, 4, 62, 64
19, 147358, Note_off_c, 4, 62, 64
19, 147448, Note_on_c, 4, 62, 64
19, 147520, Note_off_c, 4, 62, 64
19, 147590, Note_on_c, 4, 62, 72
19, 147718, Note_off_c, 4, 62, 64
19, 147950, Note_on_c, 4, 67, 70
19, 148067, Note_off_c, 4, 67, 64
19, 148296, Note_on_c, 4, 71, 66
19, 148431, Note_off_c, 4, 71, 64
19, 148655, Note_on_c, 4, 71, 70
19, 148789, Note_off_c, 4, 71, 64
19, 149023, Note_on_c, 4, 69, 66
19, 149156, Note_off_c, 4, 69, 64
19, 149374, Note_on_c, 4, 71, 72
19, 149496, Note_off_c, 4, 71, 64
19, 149723, Note_on_c, 4, 72, 82
19, 149829, Note_on_c, 4, 71, 60
19, 149851, Note_off_c, 4, 72, 64
19, 149946, Note_off_c, 4, 71, 64
19, 149952, Note_on_c, 4, 69, 64
19, 150017, Note_off_c, 4, 69, 64
19, 150094, Note_on_c, 4, 74, 87
19, 150200, Note_on_c, 4, 76, 57
19, 150210, Note_off_c, 4, 74, 64
19, 150258, Note_off_c, 4, 76, 64
19, 150317, Note_on_c, 4, 72, 66
19, 150362, Note_off_c, 4, 72, 64
19, 150450, Note_on_c, 4, 72, 80
19, 150544, Note_on_c, 4, 74, 68
19, 150558, Note_off_c, 4, 72, 64
19, 150638, Note_off_c, 4, 74, 64
19, 150663, Note_on_c, 4, 71, 57
19, 150724, Note_off_c, 4, 71, 64
19, 150800, Note_on_c, 4, 71, 80
19, 150913, Note_on_c, 4, 67, 60
19, 150945, Note_off_c, 4, 71, 64
19, 151008, Note_off_c, 4, 67, 64
19, 151041, Note_on_c, 4, 69, 64
19, 151100, Note_off_c, 4, 69, 64
19, 151172, Note_on_c, 4, 71, 89
19, 151277, Note_on_c, 4, 72, 66
19, 151295, Note_off_c, 4, 71, 64
19, 151370, Note_off_c, 4, 72, 64
19, 151392, Note_on_c, 4, 69, 60
19, 151444, Note_off_c, 4, 69, 64
19, 151532, Note_on_c, 4, 69, 85
19, 151626, Note_on_c, 4, 71, 64
19, 151653, Note_off_c, 4, 69, 64
19, 151718, Note_off_c, 4, 71, 64
19, 151746, Note_on_c, 4, 67, 66
19, 151811, Note_off_c, 4, 67, 64
19, 151903, Note_on_c, 4, 67, 72
19, 152031, Note_off_c, 4, 67, 64
19, 152139, Note_on_c, 4, 67, 61
19, 152205, Note_off_c, 4, 67, 64
19, 152270, Note_on_c, 4, 72, 82
19, 152380, Note_off_c, 4, 72, 64
19, 152493, Note_on_c, 4, 71, 63
19, 152565, Note_off_c, 4, 71, 64
19, 152627, Note_on_c, 4, 72, 82
19, 152745, Note_off_c, 4, 72, 64
19, 152846, Note_on_c, 4, 74, 78
19, 152909, Note_off_c, 4, 74, 64
19, 152985, Note_on_c, 4, 76, 87
19, 153086, Note_on_c, 4, 77, 68
19, 153107, Note_off_c, 4, 76, 64
19, 153171, Note_off_c, 4, 77, 64
19, 153210, Note_on_c, 4, 74, 64
19, 153260, Note_off_c, 4, 74, 64
19, 153338, Note_on_c, 4, 72, 78
19, 153435, Note_on_c, 4, 74, 58
19, 153453, Note_off_c, 4, 72, 64
19, 153536, Note_off_c, 4, 74, 64
19, 153557, Note_on_c, 4, 71, 60
19, 153617, Note_off_c, 4, 71, 64
19, 153683, Note_on_c, 4, 69, 80
19, 153789, Note_on_c, 4, 71, 66
19, 153798, Note_off_c, 4, 69, 64
19, 153879, Note_off_c, 4, 71, 64
19, 153897, Note_on_c, 4, 67, 58
19, 153966, Note_off_c, 4, 67, 64
19, 154040, Note_on_c, 4, 74, 82
19, 154157, Note_off_c, 4, 74, 64
19, 154263, Note_on_c, 4, 69, 74
19, 154335, Note_off_c, 4, 69, 64
19, 154392, Note_on_c, 4, 62, 66
19, 154527, Note_off_c, 4, 62, 64
19, 154630, Note_on_c, 4, 72, 66
19, 154702, Note_off_c, 4, 72, 64
19, 154763, Note_on_c, 4, 71, 76
19, 154873, Note_off_c, 4, 71, 64
19, 154995, Note_on_c, 4, 76, 70
19, 155057, Note_off_c, 4, 76, 64
19, 155136, Note_on_c, 4, 74, 80
19, 155249, Note_on_c, 4, 76, 76
19, 155267, Note_off_c, 4, 74, 64
19, 155372, Note_on_c, 4, 78, 60
19, 155377, Note_off_c, 4, 76, 64
19, 155471, Note_off_c, 4, 78, 64
19, 155499, Note_on_c, 4, 79, 89
19, 155607, Note_on_c, 4, 81, 68
19, 155636, Note_off_c, 4, 79, 64
19, 155692, Note_off_c, 4, 81, 64
19, 155724, Note_on_c, 4, 78, 78
19, 155787, Note_off_c, 4, 78, 64
19, 155852, Note_on_c, 4, 79, 89
19, 155901, Note_on_c, 4, 78, 78
19, 155913, Note_off_c, 4, 79, 64
19, 155944, Note_off_c, 4, 78, 64
19, 155944, Note_on_c, 4, 79, 76
19, 155996, Note_on_c, 4, 78, 66
19, 156020, Note_off_c, 4, 79, 64
19, 156059, Note_off_c, 4, 78, 64
19, 156090, Note_on_c, 4, 79, 85
19, 156147, Note_off_c, 4, 79, 64
19, 156209, Note_on_c, 4, 79, 85
19, 156354, Note_off_c, 4, 79, 64
19, 156572, Note_on_c, 4, 74, 66
19, 156698, Note_off_c, 4, 74, 64
19, 156930, Note_on_c, 4, 78, 58
19, 157051, Note_off_c, 4, 78, 64
19, 157294, Note_on_c, 4, 79, 74
19, 157438, Note_off_c, 4, 79, 64
19, 157645, Note_on_c, 4, 74, 60
19, 157780, Note_off_c, 4, 74, 64
19, 158021, Note_on_c, 4, 78, 63
19, 158156, Note_off_c, 4, 78, 64
19, 158370, Note_on_c, 4, 79, 72
19, 158550, Note_off_c, 4, 79, 64
19, 179124, Note_on_c, 4, 81, 68
19, 179178, Note_off_c, 4, 81, 64
19, 179256, Note_on_c, 4, 81, 91
19, 179371, Note_on_c, 4, 83, 59
19, 179402, Note_off_c, 4, 81, 64
19, 179459, Note_off_c, 4, 83, 64
19, 179490, Note_on_c, 4, 79, 59
19, 179551, Note_off_c, 4, 79, 64
19, 179627, Note_on_c, 4, 79, 87
19, 179738, Note_on_c, 4, 81, 58
19, 179751, Note_off_c, 4, 79, 64
19, 179817, Note_off_c, 4, 81, 64
19, 179862, Note_on_c, 4, 78, 61
19, 179911, Note_off_c, 4, 78, 64
19, 179994, Note_on_c, 4, 78, 87
19, 180104, Note_on_c, 4, 79, 70
19, 180127, Note_off_c, 4, 78, 64
19, 180217, Note_on_c, 4, 81, 68
19, 180240, Note_off_c, 4, 79, 64
19, 180316, Note_off_c, 4, 81, 64
19, 180343, Note_on_c, 4, 83, 98
19, 180453, Note_on_c, 4, 84, 70
19, 180464, Note_off_c, 4, 83, 64
19, 180543, Note_off_c, 4, 84, 64
19, 180568, Note_on_c, 4, 81, 63
19, 180627, Note_off_c, 4, 81, 64
19, 180696, Note_on_c, 4, 81, 87
19, 180804, Note_on_c, 4, 83, 64
19, 180813, Note_off_c, 4, 81, 64
19, 180896, Note_off_c, 4, 83, 64
19, 180923, Note_on_c, 4, 79, 60
19, 180983, Note_off_c, 4, 79, 64
19, 181056, Note_on_c, 4, 79, 64
19, 181162, Note_off_c, 4, 79, 64
19, 181292, Note_on_c, 4, 79, 70
19, 181364, Note_off_c, 4, 79, 64
19, 181423, Note_on_c, 4, 79, 74
19, 181560, Note_off_c, 4, 79, 64
19, 181656, Note_on_c, 4, 79, 63
19, 181718, Note_off_c, 4, 79, 64
19, 181787, Note_on_c, 4, 79, 80
19, 181914, Note_off_c, 4, 79, 64
19, 182005, Note_on_c, 4, 79, 68
19, 182066, Note_off_c, 4, 79, 64
19, 182143, Note_on_c, 4, 79, 93
19, 182255, Note_on_c, 4, 76, 66
19, 182289, Note_off_c, 4, 79, 64
19, 182367, Note_on_c, 4, 78, 64
19, 182397, Note_off_c, 4, 76, 64
19, 182458, Note_off_c, 4, 78, 64
19, 182485, Note_on_c, 4, 79, 89
19, 182597, Note_on_c, 4, 81, 63
19, 182625, Note_off_c, 4, 79, 64
19, 182688, Note_off_c, 4, 81, 64
19, 182710, Note_on_c, 4, 78, 59
19, 182783, Note_off_c, 4, 78, 64
19, 182841, Note_on_c, 4, 79, 93
19, 182951, Note_on_c, 4, 78, 58
19, 182973, Note_off_c, 4, 79, 64
19, 183050, Note_off_c, 4, 78, 64
19, 183065, Note_on_c, 4, 76, 59
19, 183133, Note_off_c, 4, 76, 64
19, 183192, Note_on_c, 4, 78, 93
19, 183313, Note_on_c, 4, 74, 64
19, 183351, Note_off_c, 4, 78, 64
19, 183425, Note_on_c, 4, 76, 74
19, 183452, Note_off_c, 4, 74, 64
19, 183507, Note_off_c, 4, 76, 64
19, 183551, Note_on_c, 4, 78, 98
19, 183666, Note_on_c, 4, 79, 68
19, 183682, Note_off_c, 4, 78, 64
19, 183752, Note_off_c, 4, 79, 64
19, 183795, Note_on_c, 4, 76, 60
19, 183840, Note_off_c, 4, 76, 64
19, 183921, Note_on_c, 4, 76, 87
19, 184031, Note_on_c, 4, 78, 61
19, 184042, Note_off_c, 4, 76, 64
19, 184119, Note_off_c, 4, 78, 64
19, 184155, Note_on_c, 4, 74, 57
19, 184212, Note_off_c, 4, 74, 64
19, 184307, Note_on_c, 4, 74, 68
19, 184431, Note_off_c, 4, 74, 64
19, 184546, Note_on_c, 4, 74, 58
19, 184613, Note_off_c, 4, 74, 64
19, 184680, Note_on_c, 4, 74, 70
19, 184812, Note_off_c, 4, 74, 64
19, 184906, Note_on_c, 4, 74, 66
19, 184973, Note_off_c, 4, 74, 64
19, 185037, Note_on_c, 4, 74, 66
19, 185165, Note_off_c, 4, 74, 64
19, 185244, Note_on_c, 4, 74, 64
19, 185324, Note_off_c, 4, 74, 64
19, 185397, Note_on_c, 4, 74, 66
19, 185495, Note_on_c, 4, 71, 70
19, 185514, Note_off_c, 4, 74, 64
19, 185601, Note_on_c, 4, 73, 57
19, 185628, Note_off_c, 4, 71, 64
19, 185720, Note_off_c, 4, 73, 64
19, 185730, Note_on_c, 4, 74, 80
19, 185846, Note_on_c, 4, 83, 76
19, 185867, Note_off_c, 4, 74, 64
19, 185950, Note_on_c, 4, 73, 63
19, 185955, Note_off_c, 4, 83, 64
19, 186047, Note_off_c, 4, 73, 64
19, 186089, Note_on_c, 4, 74, 82
19, 186198, Note_on_c, 4, 73, 57
19, 186207, Note_off_c, 4, 74, 64
19, 186308, Note_on_c, 4, 71, 54
19, 186319, Note_off_c, 4, 73, 64
19, 186404, Note_off_c, 4, 71, 64
19, 186455, Note_on_c, 4, 73, 82
19, 186562, Note_on_c, 4, 69, 63
19, 186602, Note_off_c, 4, 73, 64
19, 186677, Note_on_c, 4, 71, 66
19, 186693, Note_off_c, 4, 69, 64
19, 186803, Note_off_c, 4, 71, 64
19, 186819, Note_on_c, 4, 72, 85
19, 186913, Note_off_c, 4, 72, 64
19, 186926, Note_on_c, 4, 81, 82
19, 187017, Note_off_c, 4, 81, 64
19, 187028, Note_on_c, 4, 71, 78
19, 187136, Note_off_c, 4, 71, 64
19, 187158, Note_on_c, 4, 72, 70
19, 187266, Note_on_c, 4, 71, 66
19, 187271, Note_off_c, 4, 72, 64
19, 187380, Note_on_c, 4, 69, 85
19, 187403, Note_off_c, 4, 71, 64
19, 187478, Note_off_c, 4, 69, 64
19, 187525, Note_on_c, 4, 71, 80
19, 187665, Note_off_c, 4, 71, 64
19, 187764, Note_on_c, 4, 83, 62
19, 187813, Note_off_c, 4, 83, 64
19, 187898, Note_on_c, 4, 83, 87
19, 188011, Note_on_c, 4, 84, 48
19, 188018, Note_off_c, 4, 83, 64
19, 188076, Note_off_c, 4, 84, 64
19, 188121, Note_on_c, 4, 81, 57
19, 188177, Note_off_c, 4, 81, 64
19, 188265, Note_on_c, 4, 81, 87
19, 188373, Note_on_c, 4, 83, 60
19, 188396, Note_off_c, 4, 81, 64
19, 188459, Note_off_c, 4, 83, 64
19, 188483, Note_on_c, 4, 79, 27
19, 188546, Note_off_c, 4, 79, 64
19, 188639, Note_on_c, 4, 79, 82
19, 188753, Note_on_c, 4, 76, 59
19, 188756, Note_off_c, 4, 79, 64
19, 188866, Note_on_c, 4, 78, 63
19, 188889, Note_off_c, 4, 76, 64
19, 188985, Note_off_c, 4, 78, 64
19, 188990, Note_on_c, 4, 80, 82
19, 189092, Note_on_c, 4, 81, 74
19, 189122, Note_off_c, 4, 80, 64
19, 189210, Note_on_c, 4, 83, 61
19, 189217, Note_off_c, 4, 81, 64
19, 189275, Note_off_c, 4, 83, 64
19, 189339, Note_on_c, 4, 76, 78
19, 189465, Note_off_c, 4, 76, 64
19, 189568, Note_on_c, 4, 80, 68
19, 189647, Note_off_c, 4, 80, 64
19, 189692, Note_on_c, 4, 69, 74
19, 189806, Note_off_c, 4, 69, 64
19, 189815, Note_on_c, 4, 73, 57
19, 189921, Note_on_c, 4, 76, 80
19, 189959, Note_off_c, 4, 73, 64
19, 190020, Note_off_c, 4, 76, 64
19, 190061, Note_on_c, 4, 81, 85
19, 190166, Note_on_c, 4, 83, 66
19, 190205, Note_off_c, 4, 81, 64
19, 190272, Note_off_c, 4, 83, 64
19, 190281, Note_on_c, 4, 79, 66
19, 190353, Note_off_c, 4, 79, 64
19, 190421, Note_on_c, 4, 79, 89
19, 190533, Note_on_c, 4, 81, 58
19, 190562, Note_off_c, 4, 79, 64
19, 190628, Note_off_c, 4, 81, 64
19, 190628, Note_on_c, 4, 78, 41
19, 190713, Note_off_c, 4, 78, 64
19, 190783, Note_on_c, 4, 78, 66
19, 190891, Note_on_c, 4, 74, 68
19, 190934, Note_off_c, 4, 78, 64
19, 190999, Note_on_c, 4, 76, 70
19, 191017, Note_off_c, 4, 74, 64
19, 191084, Note_off_c, 4, 76, 64
19, 191125, Note_on_c, 4, 78, 87
19, 191231, Note_on_c, 4, 79, 85
19, 191271, Note_off_c, 4, 78, 64
19, 191357, Note_on_c, 4, 81, 68
19, 191363, Note_off_c, 4, 79, 64
19, 191431, Note_off_c, 4, 81, 64
19, 191496, Note_on_c, 4, 74, 68
19, 191620, Note_off_c, 4, 74, 64
19, 191710, Note_on_c, 4, 78, 60
19, 191796, Note_off_c, 4, 78, 64
19, 191852, Note_on_c, 4, 67, 82
19, 191969, Note_off_c, 4, 67, 64
19, 191971, Note_on_c, 4, 71, 70
19, 192084, Note_on_c, 4, 74, 82
19, 192113, Note_off_c, 4, 71, 64
19, 192185, Note_off_c, 4, 74, 64
19, 192211, Note_on_c, 4, 79, 89
19, 192333, Note_on_c, 4, 81, 70
19, 192369, Note_off_c, 4, 79, 64
19, 192409, Note_off_c, 4, 81, 64
19, 192455, Note_on_c, 4, 78, 70
19, 192531, Note_off_c, 4, 78, 64
19, 192587, Note_on_c, 4, 78, 91
19, 192691, Note_on_c, 4, 79, 74
19, 192723, Note_off_c, 4, 78, 64
19, 192795, Note_off_c, 4, 79, 64
19, 192815, Note_on_c, 4, 76, 66
19, 192869, Note_off_c, 4, 76, 64
19, 192963, Note_on_c, 4, 76, 80
19, 193071, Note_on_c, 4, 78, 61
19, 193109, Note_off_c, 4, 76, 64
19, 193173, Note_off_c, 4, 78, 64
19, 193186, Note_on_c, 4, 79, 70
19, 193283, Note_off_c, 4, 79, 64
19, 193317, Note_on_c, 4, 81, 78
19, 193424, Note_on_c, 4, 83, 68
19, 193465, Note_off_c, 4, 81, 64
19, 193512, Note_off_c, 4, 83, 64
19, 193543, Note_on_c, 4, 79, 64
19, 193609, Note_off_c, 4, 79, 64
19, 193677, Note_on_c, 4, 79, 85
19, 193785, Note_on_c, 4, 81, 61
19, 193812, Note_off_c, 4, 79, 64
19, 193890, Note_off_c, 4, 81, 64
19, 193910, Note_on_c, 4, 78, 53
19, 193971, Note_off_c, 4, 78, 64
19, 194036, Note_on_c, 4, 78, 82
19, 194154, Note_on_c, 4, 79, 70
19, 194172, Note_off_c, 4, 78, 64
19, 194279, Note_on_c, 4, 81, 82
19, 194299, Note_off_c, 4, 79, 64
19, 194392, Note_off_c, 4, 81, 64
19, 194401, Note_on_c, 4, 83, 85
19, 194507, Note_on_c, 4, 84, 68
19, 194529, Note_off_c, 4, 83, 64
19, 194592, Note_off_c, 4, 84, 64
19, 194626, Note_on_c, 4, 81, 60
19, 194678, Note_off_c, 4, 81, 64
19, 194752, Note_on_c, 4, 81, 87
19, 194864, Note_on_c, 4, 83, 66
19, 194869, Note_off_c, 4, 81, 64
19, 194948, Note_off_c, 4, 83, 64
19, 194976, Note_on_c, 4, 79, 63
19, 195036, Note_off_c, 4, 79, 64
19, 195103, Note_on_c, 4, 79, 76
19, 195218, Note_off_c, 4, 79, 64
19, 195339, Note_on_c, 4, 79, 72
19, 195405, Note_off_c, 4, 79, 64
19, 195467, Note_on_c, 4, 79, 78
19, 195621, Note_off_c, 4, 79, 64
19, 195716, Note_on_c, 4, 79, 61
19, 195778, Note_off_c, 4, 79, 64
19, 195843, Note_on_c, 4, 79, 74
19, 196001, Note_off_c, 4, 79, 64
19, 196075, Note_on_c, 4, 79, 66
19, 196136, Note_off_c, 4, 79, 64
19, 196205, Note_on_c, 4, 79, 82
19, 196311, Note_on_c, 4, 76, 66
19, 196345, Note_off_c, 4, 79, 64
19, 196409, Note_off_c, 4, 76, 64
19, 196431, Note_on_c, 4, 78, 59
19, 196512, Note_off_c, 4, 78, 64
19, 196561, Note_on_c, 4, 79, 82
19, 196669, Note_on_c, 4, 81, 61
19, 196698, Note_off_c, 4, 79, 64
19, 196757, Note_off_c, 4, 81, 64
19, 196780, Note_on_c, 4, 78, 53
19, 196844, Note_off_c, 4, 78, 64
19, 196914, Note_on_c, 4, 79, 98
19, 197020, Note_on_c, 4, 78, 64
19, 197049, Note_off_c, 4, 79, 64
19, 197126, Note_off_c, 4, 78, 64
19, 197135, Note_on_c, 4, 76, 62
19, 197211, Note_off_c, 4, 76, 64
19, 197265, Note_on_c, 4, 78, 82
19, 197362, Note_on_c, 4, 81, 70
19, 197398, Note_off_c, 4, 78, 64
19, 197466, Note_off_c, 4, 81, 64
19, 197488, Note_on_c, 4, 79, 70
19, 197565, Note_off_c, 4, 79, 64
19, 197618, Note_on_c, 4, 81, 85
19, 197717, Note_off_c, 4, 81, 64
19, 197848, Note_on_c, 4, 74, 78
19, 197933, Note_off_c, 4, 74, 64
19, 197967, Note_on_c, 4, 69, 80
19, 198082, Note_off_c, 4, 69, 64
19, 198210, Note_on_c, 4, 73, 60
19, 198293, Note_off_c, 4, 73, 64
19, 198336, Note_on_c, 4, 74, 87
19, 198476, Note_off_c, 4, 74, 64
19, 198707, Note_on_c, 4, 78, 70
19, 198840, Note_off_c, 4, 78, 64
19, 199061, Note_on_c, 4, 81, 85
19, 199185, Note_off_c, 4, 81, 64
19, 199423, Note_on_c, 4, 86, 85
19, 199558, Note_off_c, 4, 86, 64
19, 199778, Note_on_c, 4, 78, 72
19, 199916, Note_off_c, 4, 78, 64
19, 200129, Note_on_c, 4, 81, 87
19, 200265, Note_off_c, 4, 81, 64
19, 225314, Note_on_c, 4, 81, 82
19, 225371, Note_off_c, 4, 81, 64
19, 225447, Note_on_c, 4, 81, 100
19, 225555, Note_on_c, 4, 83, 74
19, 225570, Note_off_c, 4, 81, 64
19, 225607, Note_off_c, 4, 83, 64
19, 225674, Note_on_c, 4, 79, 87
19, 225728, Note_off_c, 4, 79, 64
19, 225803, Note_on_c, 4, 79, 98
19, 225909, Note_on_c, 4, 81, 68
19, 225927, Note_off_c, 4, 79, 64
19, 225981, Note_off_c, 4, 81, 64
19, 226037, Note_on_c, 4, 78, 85
19, 226095, Note_off_c, 4, 78, 64
19, 226172, Note_on_c, 4, 78, 95
19, 226280, Note_on_c, 4, 79, 63
19, 226300, Note_off_c, 4, 78, 64
19, 226349, Note_off_c, 4, 79, 64
19, 226408, Note_on_c, 4, 81, 72
19, 226460, Note_off_c, 4, 81, 64
19, 226534, Note_on_c, 4, 83, 98
19, 226638, Note_on_c, 4, 84, 68
19, 226658, Note_off_c, 4, 83, 64
19, 226703, Note_off_c, 4, 84, 64
19, 226761, Note_on_c, 4, 81, 78
19, 226811, Note_off_c, 4, 81, 64
19, 226887, Note_on_c, 4, 81, 98
19, 226989, Note_on_c, 4, 83, 66
19, 227015, Note_off_c, 4, 81, 64
19, 227056, Note_off_c, 4, 83, 64
19, 227126, Note_on_c, 4, 79, 72
19, 227184, Note_off_c, 4, 79, 64
19, 227268, Note_on_c, 4, 79, 87
19, 227400, Note_off_c, 4, 79, 64
19, 227497, Note_on_c, 4, 79, 64
19, 227556, Note_off_c, 4, 79, 64
19, 227630, Note_on_c, 4, 79, 74
19, 227765, Note_off_c, 4, 79, 64
19, 227853, Note_on_c, 4, 79, 66
19, 227922, Note_off_c, 4, 79, 64
19, 227988, Note_on_c, 4, 79, 80
19, 228129, Note_off_c, 4, 79, 64
19, 228215, Note_on_c, 4, 79, 72
19, 228284, Note_off_c, 4, 79, 64
19, 228356, Note_on_c, 4, 79, 91
19, 228465, Note_on_c, 4, 76, 78
19, 228485, Note_off_c, 4, 79, 64
19, 228541, Note_off_c, 4, 76, 64
19, 228573, Note_on_c, 4, 78, 66
19, 228635, Note_off_c, 4, 78, 64
19, 228716, Note_on_c, 4, 79, 93
19, 228822, Note_on_c, 4, 81, 64
19, 228847, Note_off_c, 4, 79, 64
19, 228887, Note_off_c, 4, 81, 64
19, 228942, Note_on_c, 4, 78, 64
19, 229002, Note_off_c, 4, 78, 64
19, 229067, Note_on_c, 4, 79, 85
19, 229176, Note_on_c, 4, 78, 72
19, 229177, Note_off_c, 4, 79, 64
19, 229252, Note_off_c, 4, 78, 64
19, 229302, Note_on_c, 4, 76, 66
19, 229347, Note_off_c, 4, 76, 64
19, 229430, Note_on_c, 4, 78, 102
19, 229538, Note_on_c, 4, 74, 66
19, 229542, Note_off_c, 4, 78, 64
19, 229610, Note_off_c, 4, 74, 64
19, 229661, Note_on_c, 4, 76, 76
19, 229711, Note_off_c, 4, 76, 64
19, 229785, Note_on_c, 4, 78, 98
19, 229893, Note_on_c, 4, 79, 64
19, 229913, Note_off_c, 4, 78, 64
19, 229954, Note_off_c, 4, 79, 64
19, 230021, Note_on_c, 4, 76, 68
19, 230064, Note_off_c, 4, 76, 64
19, 230141, Note_on_c, 4, 76, 100
19, 230240, Note_on_c, 4, 78, 64
19, 230243, Note_off_c, 4, 76, 64
19, 230302, Note_off_c, 4, 78, 64
19, 230372, Note_on_c, 4, 74, 76
19, 230433, Note_off_c, 4, 74, 64
19, 230490, Note_on_c, 4, 74, 91
19, 230613, Note_off_c, 4, 74, 64
19, 230714, Note_on_c, 4, 74, 59
19, 230777, Note_off_c, 4, 74, 64
19, 230841, Note_on_c, 4, 74, 68
19, 230967, Note_off_c, 4, 74, 64
19, 231075, Note_on_c, 4, 74, 72
19, 231124, Note_off_c, 4, 74, 64
19, 231196, Note_on_c, 4, 74, 85
19, 231347, Note_off_c, 4, 74, 64
19, 231426, Note_on_c, 4, 74, 78
19, 231488, Note_off_c, 4, 74, 64
19, 231561, Note_on_c, 4, 74, 87
19, 231662, Note_off_c, 4, 74, 64
19, 231668, Note_on_c, 4, 71, 82
19, 231747, Note_off_c, 4, 71, 64
19, 231788, Note_on_c, 4, 73, 66
19, 231849, Note_off_c, 4, 73, 64
19, 231929, Note_on_c, 4, 74, 95
19, 232031, Note_on_c, 4, 83, 82
19, 232047, Note_off_c, 4, 74, 64
19, 232085, Note_off_c, 4, 83, 64
19, 232157, Note_on_c, 4, 73, 85
19, 232215, Note_off_c, 4, 73, 64
19, 232278, Note_on_c, 4, 74, 93
19, 232400, Note_on_c, 4, 73, 66
19, 232415, Note_off_c, 4, 74, 64
19, 232476, Note_off_c, 4, 73, 64
19, 232515, Note_on_c, 4, 71, 66
19, 232557, Note_off_c, 4, 71, 64
19, 232631, Note_on_c, 4, 73, 95
19, 232733, Note_on_c, 4, 69, 64
19, 232773, Note_off_c, 4, 73, 64
19, 232820, Note_off_c, 4, 69, 64
19, 232852, Note_on_c, 4, 71, 78
19, 232895, Note_off_c, 4, 71, 64
19, 232991, Note_on_c, 4, 72, 91
19, 233081, Note_on_c, 4, 81, 66
19, 233111, Note_off_c, 4, 72, 64
19, 233142, Note_off_c, 4, 81, 64
19, 233210, Note_on_c, 4, 71, 82
19, 233262, Note_off_c, 4, 71, 64
19, 233335, Note_on_c, 4, 72, 93
19, 233448, Note_on_c, 4, 71, 85
19, 233464, Note_off_c, 4, 72, 64
19, 233540, Note_off_c, 4, 71, 64
19, 233576, Note_on_c, 4, 69, 66
19, 233630, Note_off_c, 4, 69, 64
19, 233709, Note_on_c, 4, 71, 80
19, 233841, Note_off_c, 4, 71, 64
19, 233952, Note_on_c, 4, 83, 78
19, 234004, Note_off_c, 4, 83, 64
19, 234089, Note_on_c, 4, 83, 102
19, 234195, Note_on_c, 4, 84, 68
19, 234210, Note_off_c, 4, 83, 64
19, 234252, Note_off_c, 4, 84, 64
19, 234326, Note_on_c, 4, 81, 68
19, 234371, Note_off_c, 4, 81, 64
19, 234459, Note_on_c, 4, 81, 95
19, 234564, Note_on_c, 4, 83, 64
19, 234589, Note_off_c, 4, 81, 64
19, 234630, Note_off_c, 4, 83, 64
19, 234692, Note_on_c, 4, 79, 63
19, 234740, Note_off_c, 4, 79, 64
19, 234823, Note_on_c, 4, 79, 85
19, 234934, Note_on_c, 4, 76, 66
19, 234956, Note_off_c, 4, 79, 64
19, 235005, Note_off_c, 4, 76, 64
19, 235046, Note_on_c, 4, 78, 66
19, 235111, Note_off_c, 4, 78, 64
19, 235180, Note_on_c, 4, 80, 95
19, 235280, Note_on_c, 4, 81, 80
19, 235282, Note_off_c, 4, 80, 64
19, 235363, Note_off_c, 4, 81, 64
19, 235404, Note_on_c, 4, 83, 76
19, 235464, Note_off_c, 4, 83, 64
19, 235523, Note_on_c, 4, 76, 85
19, 235638, Note_off_c, 4, 76, 64
19, 235745, Note_on_c, 4, 80, 78
19, 235802, Note_off_c, 4, 80, 64
19, 235889, Note_on_c, 4, 69, 87
19, 235998, Note_on_c, 4, 73, 63
19, 236024, Note_off_c, 4, 69, 64
19, 236085, Note_off_c, 4, 73, 64
19, 236119, Note_on_c, 4, 76, 80
19, 236168, Note_off_c, 4, 76, 64
19, 236254, Note_on_c, 4, 81, 91
19, 236371, Note_on_c, 4, 83, 70
19, 236376, Note_off_c, 4, 81, 64
19, 236434, Note_off_c, 4, 83, 64
19, 236483, Note_on_c, 4, 79, 74
19, 236538, Note_off_c, 4, 79, 64
19, 236612, Note_on_c, 4, 79, 93
19, 236717, Note_on_c, 4, 81, 66
19, 236730, Note_off_c, 4, 79, 64
19, 236790, Note_off_c, 4, 81, 64
19, 236837, Note_on_c, 4, 78, 72
19, 236902, Note_off_c, 4, 78, 64
19, 236969, Note_on_c, 4, 78, 89
19, 237078, Note_on_c, 4, 74, 64
19, 237086, Note_off_c, 4, 78, 64
19, 237150, Note_off_c, 4, 74, 64
19, 237188, Note_on_c, 4, 76, 80
19, 237249, Note_off_c, 4, 76, 64
19, 237318, Note_on_c, 4, 78, 95
19, 237424, Note_on_c, 4, 79, 82
19, 237444, Note_off_c, 4, 78, 64
19, 237534, Note_off_c, 4, 79, 64
19, 237542, Note_on_c, 4, 81, 70
19, 237597, Note_off_c, 4, 81, 64
19, 237667, Note_on_c, 4, 74, 76
19, 237766, Note_off_c, 4, 74, 64
19, 237906, Note_on_c, 4, 78, 76
19, 237969, Note_off_c, 4, 78, 64
19, 238065, Note_on_c, 4, 67, 85
19, 238162, Note_on_c, 4, 71, 70
19, 238182, Note_off_c, 4, 67, 64
19, 238252, Note_off_c, 4, 71, 64
19, 238286, Note_on_c, 4, 74, 82
19, 238338, Note_off_c, 4, 74, 64
19, 238425, Note_on_c, 4, 79, 91
19, 238540, Note_on_c, 4, 81, 63
19, 238563, Note_off_c, 4, 79, 64
19, 238598, Note_off_c, 4, 81, 64
19, 238659, Note_on_c, 4, 78, 82
19, 238713, Note_off_c, 4, 78, 64
19, 238788, Note_on_c, 4, 78, 102
19, 238889, Note_on_c, 4, 79, 68
19, 238909, Note_off_c, 4, 78, 64
19, 238952, Note_off_c, 4, 79, 64
19, 239012, Note_on_c, 4, 76, 78
19, 239062, Note_off_c, 4, 76, 64
19, 239145, Note_on_c, 4, 76, 89
19, 239246, Note_on_c, 4, 78, 59
19, 239258, Note_off_c, 4, 76, 64
19, 239328, Note_off_c, 4, 78, 64
19, 239373, Note_on_c, 4, 79, 87
19, 239424, Note_off_c, 4, 79, 64
19, 239496, Note_on_c, 4, 81, 89
19, 239602, Note_on_c, 4, 83, 70
19, 239618, Note_off_c, 4, 81, 64
19, 239670, Note_off_c, 4, 83, 64
19, 239726, Note_on_c, 4, 79, 66
19, 239775, Note_off_c, 4, 79, 64
19, 239854, Note_on_c, 4, 79, 91
19, 239960, Note_on_c, 4, 81, 63
19, 239985, Note_off_c, 4, 79, 64
19, 240041, Note_off_c, 4, 81, 64
19, 240090, Note_on_c, 4, 78, 72
19, 240146, Note_off_c, 4, 78, 64
19, 240218, Note_on_c, 4, 78, 85
19, 240329, Note_on_c, 4, 79, 63
19, 240336, Note_off_c, 4, 78, 64
19, 240390, Note_off_c, 4, 79, 64
19, 240446, Note_on_c, 4, 81, 68
19, 240495, Note_off_c, 4, 81, 64
19, 240578, Note_on_c, 4, 83, 100
19, 240682, Note_on_c, 4, 84, 64
19, 240704, Note_off_c, 4, 83, 64
19, 240754, Note_off_c, 4, 84, 64
19, 240804, Note_on_c, 4, 81, 57
19, 240840, Note_off_c, 4, 81, 64
19, 240930, Note_on_c, 4, 81, 91
19, 241031, Note_on_c, 4, 83, 68
19, 241049, Note_off_c, 4, 81, 64
19, 241109, Note_off_c, 4, 83, 64
19, 241164, Note_on_c, 4, 79, 63
19, 241222, Note_off_c, 4, 79, 64
19, 241311, Note_on_c, 4, 79, 66
19, 241429, Note_off_c, 4, 79, 64
19, 241526, Note_on_c, 4, 79, 64
19, 241589, Note_off_c, 4, 79, 64
19, 241663, Note_on_c, 4, 79, 78
19, 241820, Note_off_c, 4, 79, 64
19, 241899, Note_on_c, 4, 79, 70
19, 241964, Note_off_c, 4, 79, 64
19, 242030, Note_on_c, 4, 79, 78
19, 242174, Note_off_c, 4, 79, 64
19, 242259, Note_on_c, 4, 79, 68
19, 242318, Note_off_c, 4, 79, 64
19, 242387, Note_on_c, 4, 79, 89
19, 242491, Note_off_c, 4, 79, 64
19, 242498, Note_on_c, 4, 76, 68
19, 242556, Note_off_c, 4, 76, 64
19, 242615, Note_on_c, 4, 78, 82
19, 242675, Note_off_c, 4, 78, 64
19, 242748, Note_on_c, 4, 79, 100
19, 242849, Note_on_c, 4, 81, 63
19, 242867, Note_off_c, 4, 79, 64
19, 242907, Note_off_c, 4, 81, 64
19, 242970, Note_on_c, 4, 78, 89
19, 243033, Note_off_c, 4, 78, 64
19, 243099, Note_on_c, 4, 79, 87
19, 243198, Note_off_c, 4, 79, 64
19, 243206, Note_on_c, 4, 78, 85
19, 243283, Note_off_c, 4, 78, 64
19, 243319, Note_on_c, 4, 76, 63
19, 243375, Note_off_c, 4, 76, 64
19, 243458, Note_on_c, 4, 78, 91
19, 243561, Note_off_c, 4, 78, 64
19, 243567, Note_on_c, 4, 81, 76
19, 243638, Note_off_c, 4, 81, 64
19, 243690, Note_on_c, 4, 79, 82
19, 243760, Note_off_c, 4, 79, 64
19, 243818, Note_on_c, 4, 81, 89
19, 243922, Note_off_c, 4, 81, 64
19, 244052, Note_on_c, 4, 74, 74
19, 244095, Note_off_c, 4, 74, 64
19, 244175, Note_on_c, 4, 69, 68
19, 244273, Note_off_c, 4, 69, 64
19, 244410, Note_on_c, 4, 73, 59
19, 244487, Note_off_c, 4, 73, 64
19, 244548, Note_on_c, 4, 74, 76
19, 246836, Note_on_c, 4, 73, 72
19, 246849, Note_off_c, 4, 74, 64
19, 246899, Note_off_c, 4, 73, 64
19, 246932, Note_on_c, 4, 74, 80
19, 246995, Note_off_c, 4, 74, 64
19, 247076, Note_on_c, 4, 74, 91
19, 247166, Note_on_c, 4, 76, 61
19, 247180, Note_off_c, 4, 74, 64
19, 247232, Note_off_c, 4, 76, 64
19, 247295, Note_on_c, 4, 72, 72
19, 247340, Note_off_c, 4, 72, 64
19, 247427, Note_on_c, 4, 72, 87
19, 247522, Note_off_c, 4, 72, 64
19, 247522, Note_on_c, 4, 74, 68
19, 247601, Note_off_c, 4, 74, 64
19, 247641, Note_on_c, 4, 71, 63
19, 247702, Note_off_c, 4, 71, 64
19, 247767, Note_on_c, 4, 71, 85
19, 247871, Note_off_c, 4, 71, 64
19, 247878, Note_on_c, 4, 74, 70
19, 247955, Note_off_c, 4, 74, 64
19, 247994, Note_on_c, 4, 76, 82
19, 248053, Note_off_c, 4, 76, 64
19, 248120, Note_on_c, 4, 76, 87
19, 248226, Note_on_c, 4, 78, 64
19, 248240, Note_off_c, 4, 76, 64
19, 248296, Note_off_c, 4, 78, 64
19, 248346, Note_on_c, 4, 74, 72
19, 248402, Note_off_c, 4, 74, 64
19, 248480, Note_on_c, 4, 74, 95
19, 248588, Note_on_c, 4, 76, 66
19, 248608, Note_off_c, 4, 74, 64
19, 248654, Note_off_c, 4, 76, 64
19, 248719, Note_on_c, 4, 73, 66
19, 248777, Note_off_c, 4, 73, 64
19, 248847, Note_on_c, 4, 73, 70
19, 248960, Note_on_c, 4, 76, 72
19, 248966, Note_off_c, 4, 73, 64
19, 249047, Note_off_c, 4, 76, 64
19, 249084, Note_on_c, 4, 78, 64
19, 249131, Note_off_c, 4, 78, 64
19, 249219, Note_on_c, 4, 78, 100
19, 249333, Note_on_c, 4, 79, 66
19, 249349, Note_off_c, 4, 78, 64
19, 249396, Note_off_c, 4, 79, 64
19, 249457, Note_on_c, 4, 76, 63
19, 249497, Note_off_c, 4, 76, 64
19, 249584, Note_on_c, 4, 76, 80
19, 249678, Note_on_c, 4, 78, 63
19, 249681, Note_off_c, 4, 76, 64
19, 249750, Note_off_c, 4, 78, 64
19, 249799, Note_on_c, 4, 74, 76
19, 249858, Note_off_c, 4, 74, 64
19, 249938, Note_on_c, 4, 74, 85
19, 250037, Note_on_c, 4, 76, 80
19, 250053, Note_off_c, 4, 74, 64
19, 250101, Note_off_c, 4, 76, 64
19, 250155, Note_on_c, 4, 78, 82
19, 250213, Note_off_c, 4, 78, 64
19, 250290, Note_on_c, 4, 78, 95
19, 251295, Note_off_c, 4, 78, 64
19, 251381, Note_on_c, 4, 76, 76
19, 251572, Note_off_c, 4, 76, 64
19, 267597, Note_on_c, 4, 76, 76
19, 267725, Note_off_c, 4, 76, 64
19, 267943, Note_on_c, 4, 80, 78
19, 268074, Note_off_c, 4, 80, 64
19, 268301, Note_on_c, 4, 81, 82
19, 268465, Note_off_c, 4, 81, 64
19, 268665, Note_on_c, 4, 76, 78
19, 268800, Note_off_c, 4, 76, 64
19, 269007, Note_on_c, 4, 80, 78
19, 269153, Note_off_c, 4, 80, 64
19, 269363, Note_on_c, 4, 81, 89
19, 269496, Note_off_c, 4, 81, 64
19, 269617, Note_on_c, 4, 76, 68
19, 269667, Note_off_c, 4, 76, 64
19, 269736, Note_on_c, 4, 76, 98
19, 269840, Note_on_c, 4, 78, 58
19, 269864, Note_off_c, 4, 76, 64
19, 269925, Note_off_c, 4, 78, 64
19, 269946, Note_on_c, 4, 74, 63
19, 269993, Note_off_c, 4, 74, 64
19, 270087, Note_on_c, 4, 74, 98
19, 270189, Note_on_c, 4, 76, 60
19, 270209, Note_off_c, 4, 74, 64
19, 270274, Note_off_c, 4, 76, 64
19, 270312, Note_on_c, 4, 73, 62
19, 270371, Note_off_c, 4, 73, 64
19, 270440, Note_on_c, 4, 73, 82
19, 270546, Note_on_c, 4, 74, 74
19, 270555, Note_off_c, 4, 73, 64
19, 270670, Note_on_c, 4, 76, 74
19, 270683, Note_off_c, 4, 74, 64
19, 270764, Note_off_c, 4, 76, 64
19, 270796, Note_on_c, 4, 78, 85
19, 270908, Note_on_c, 4, 79, 66
19, 270927, Note_off_c, 4, 78, 64
19, 270980, Note_off_c, 4, 79, 64
19, 271032, Note_on_c, 4, 76, 66
19, 271077, Note_off_c, 4, 76, 64
19, 271154, Note_on_c, 4, 76, 85
19, 271259, Note_on_c, 4, 78, 60
19, 271277, Note_off_c, 4, 76, 64
19, 271333, Note_off_c, 4, 78, 64
19, 271374, Note_on_c, 4, 74, 57
19, 271437, Note_off_c, 4, 74, 64
19, 271532, Note_on_c, 4, 74, 80
19, 271651, Note_off_c, 4, 74, 64
19, 271779, Note_on_c, 4, 74, 78
19, 271847, Note_off_c, 4, 74, 64
19, 271907, Note_on_c, 4, 74, 78
19, 272025, Note_off_c, 4, 74, 64
19, 272142, Note_on_c, 4, 74, 74
19, 272211, Note_off_c, 4, 74, 64
19, 272277, Note_on_c, 4, 74, 78
19, 272418, Note_off_c, 4, 74, 64
19, 272504, Note_on_c, 4, 74, 72
19, 272567, Note_off_c, 4, 74, 64
19, 272627, Note_on_c, 4, 74, 85
19, 272727, Note_off_c, 4, 74, 64
19, 272733, Note_on_c, 4, 71, 70
19, 272844, Note_on_c, 4, 73, 63
19, 272853, Note_off_c, 4, 71, 64
19, 272910, Note_off_c, 4, 73, 64
19, 272989, Note_on_c, 4, 74, 85
19, 273091, Note_on_c, 4, 83, 60
19, 273109, Note_off_c, 4, 74, 64
19, 273167, Note_off_c, 4, 83, 64
19, 273208, Note_on_c, 4, 73, 82
19, 273271, Note_off_c, 4, 73, 64
19, 273332, Note_on_c, 4, 74, 85
19, 273444, Note_on_c, 4, 73, 52
19, 273473, Note_off_c, 4, 74, 64
19, 273537, Note_off_c, 4, 73, 64
19, 273557, Note_on_c, 4, 71, 55
19, 273618, Note_off_c, 4, 71, 64
19, 273698, Note_on_c, 4, 73, 95
19, 273804, Note_on_c, 4, 76, 80
19, 273812, Note_off_c, 4, 73, 64
19, 273887, Note_off_c, 4, 76, 64
19, 273909, Note_on_c, 4, 74, 60
19, 273960, Note_off_c, 4, 74, 64
19, 274058, Note_on_c, 4, 76, 80
19, 274911, Note_off_c, 4, 76, 64
19, 274923, Note_on_c, 4, 78, 80
19, 275036, Note_on_c, 4, 76, 70
19, 275053, Note_off_c, 4, 78, 64
19, 275094, Note_off_c, 4, 76, 64
19, 275161, Note_on_c, 4, 74, 93
19, 275256, Note_on_c, 4, 76, 68
19, 275285, Note_off_c, 4, 74, 64
19, 275336, Note_off_c, 4, 76, 64
19, 275370, Note_on_c, 4, 73, 62
19, 275422, Note_off_c, 4, 73, 64
19, 275492, Note_on_c, 4, 73, 98
19, 275589, Note_on_c, 4, 74, 70
19, 275613, Note_off_c, 4, 73, 64
19, 275672, Note_off_c, 4, 74, 64
19, 275712, Note_on_c, 4, 71, 63
19, 275769, Note_off_c, 4, 71, 64
19, 275859, Note_on_c, 4, 71, 66
19, 276974, Note_off_c, 4, 71, 64
19, 277046, Note_on_c, 4, 73, 60
19, 277143, Note_off_c, 4, 73, 64
19, 277150, Note_on_c, 4, 74, 76
19, 277226, Note_off_c, 4, 74, 64
19, 277289, Note_on_c, 4, 76, 89
19, 277382, Note_on_c, 4, 73, 62
19, 277388, Note_off_c, 4, 76, 64
19, 277469, Note_off_c, 4, 73, 64
19, 277500, Note_on_c, 4, 69, 82
19, 277560, Note_off_c, 4, 69, 64
19, 277667, Note_on_c, 4, 81, 78
19, 279150, Note_off_c, 4, 81, 64
19, 279227, Note_on_c, 4, 80, 85
19, 279333, Note_on_c, 4, 81, 68
19, 279356, Note_off_c, 4, 80, 64
19, 279432, Note_off_c, 4, 81, 64
19, 279440, Note_on_c, 4, 83, 70
19, 279555, Note_on_c, 4, 85, 64
19, 279560, Note_off_c, 4, 83, 64
19, 279629, Note_off_c, 4, 85, 64
19, 279672, Note_on_c, 4, 81, 72
19, 279724, Note_off_c, 4, 81, 64
19, 279800, Note_on_c, 4, 81, 87
19, 279891, Note_on_c, 4, 83, 70
19, 279918, Note_off_c, 4, 81, 64
19, 279962, Note_off_c, 4, 83, 64
19, 280019, Note_on_c, 4, 80, 72
19, 280077, Note_off_c, 4, 80, 64
19, 280167, Note_on_c, 4, 80, 100
19, 280277, Note_on_c, 4, 76, 63
19, 280309, Note_off_c, 4, 80, 64
19, 280385, Note_on_c, 4, 78, 64
19, 280410, Note_off_c, 4, 76, 64
19, 280491, Note_off_c, 4, 78, 64
19, 280503, Note_on_c, 4, 80, 74
19, 280610, Note_on_c, 4, 81, 70
19, 280626, Note_off_c, 4, 80, 64
19, 280712, Note_off_c, 4, 81, 64
19, 280725, Note_on_c, 4, 83, 60
19, 280770, Note_off_c, 4, 83, 64
19, 280878, Note_on_c, 4, 76, 82
19, 280998, Note_off_c, 4, 76, 64
19, 281112, Note_on_c, 4, 80, 68
19, 281184, Note_off_c, 4, 80, 64
19, 281260, Note_on_c, 4, 69, 89
19, 281364, Note_on_c, 4, 73, 60
19, 281400, Note_off_c, 4, 69, 64
19, 281472, Note_on_c, 4, 76, 72
19, 281479, Note_off_c, 4, 73, 64
19, 281561, Note_off_c, 4, 76, 64
19, 281618, Note_on_c, 4, 81, 93
19, 281729, Note_on_c, 4, 83, 66
19, 281765, Note_off_c, 4, 81, 64
19, 281805, Note_off_c, 4, 83, 64
19, 281839, Note_on_c, 4, 79, 68
19, 281897, Note_off_c, 4, 79, 64
19, 281958, Note_on_c, 4, 79, 93
19, 282069, Note_on_c, 4, 81, 59
19, 282095, Note_off_c, 4, 79, 64
19, 282176, Note_off_c, 4, 81, 64
19, 282177, Note_on_c, 4, 78, 57
19, 282230, Note_off_c, 4, 78, 64
19, 282318, Note_on_c, 4, 78, 91
19, 282421, Note_on_c, 4, 74, 66
19, 282422, Note_off_c, 4, 78, 64
19, 282534, Note_on_c, 4, 78, 60
19, 282539, Note_off_c, 4, 74, 64
19, 282591, Note_off_c, 4, 78, 64
19, 282680, Note_on_c, 4, 83, 85
19, 282786, Note_on_c, 4, 85, 63
19, 282806, Note_off_c, 4, 83, 64
19, 282876, Note_off_c, 4, 85, 64
19, 282908, Note_on_c, 4, 81, 58
19, 282957, Note_off_c, 4, 81, 64
19, 283056, Note_on_c, 4, 81, 93
19, 283153, Note_on_c, 4, 83, 61
19, 283175, Note_off_c, 4, 81, 64
19, 283250, Note_off_c, 4, 83, 64
19, 283290, Note_on_c, 4, 80, 56
19, 283335, Note_off_c, 4, 80, 64
19, 283421, Note_on_c, 4, 80, 89
19, 283535, Note_on_c, 4, 81, 59
19, 283536, Note_off_c, 4, 80, 64
19, 283652, Note_off_c, 4, 81, 64
19, 283655, Note_on_c, 4, 83, 66
19, 283713, Note_off_c, 4, 83, 64
19, 283778, Note_on_c, 4, 85, 89
19, 283887, Note_on_c, 4, 86, 74
19, 283905, Note_off_c, 4, 85, 64
19, 283968, Note_off_c, 4, 86, 64
19, 284012, Note_on_c, 4, 83, 68
19, 284067, Note_off_c, 4, 83, 64
19, 284145, Note_on_c, 4, 83, 87
19, 284247, Note_on_c, 4, 85, 64
19, 284262, Note_off_c, 4, 83, 64
19, 284341, Note_off_c, 4, 85, 64
19, 284355, Note_on_c, 4, 81, 59
19, 284415, Note_off_c, 4, 81, 64
19, 284505, Note_on_c, 4, 81, 57
19, 284616, Note_off_c, 4, 81, 64
19, 284730, Note_on_c, 4, 81, 58
19, 284791, Note_off_c, 4, 81, 64
19, 284863, Note_on_c, 4, 81, 66
19, 285014, Note_off_c, 4, 81, 64
19, 285093, Note_on_c, 4, 81, 58
19, 285162, Note_off_c, 4, 81, 64
19, 285225, Note_on_c, 4, 81, 66
19, 285358, Note_off_c, 4, 81, 64
19, 285450, Note_on_c, 4, 81, 58
19, 285511, Note_off_c, 4, 81, 64
19, 285584, Note_on_c, 4, 81, 87
19, 285673, Note_on_c, 4, 83, 66
19, 285707, Note_off_c, 4, 81, 64
19, 285797, Note_on_c, 4, 81, 68
19, 285821, Note_off_c, 4, 83, 64
19, 285853, Note_off_c, 4, 81, 64
19, 285930, Note_on_c, 4, 80, 85
19, 286019, Note_on_c, 4, 81, 68
19, 286053, Note_off_c, 4, 80, 64
19, 286123, Note_off_c, 4, 81, 64
19, 286139, Note_on_c, 4, 78, 52
19, 286193, Note_off_c, 4, 78, 64
19, 286274, Note_on_c, 4, 78, 85
19, 286368, Note_on_c, 4, 80, 61
19, 286391, Note_off_c, 4, 78, 64
19, 286452, Note_off_c, 4, 80, 64
19, 286509, Note_on_c, 4, 76, 58
19, 286561, Note_off_c, 4, 76, 64
19, 286655, Note_on_c, 4, 76, 66
19, 286791, Note_off_c, 4, 76, 64
19, 286895, Note_on_c, 4, 76, 64
19, 286967, Note_off_c, 4, 76, 64
19, 287032, Note_on_c, 4, 76, 66
19, 287163, Note_off_c, 4, 76, 64
19, 287273, Note_on_c, 4, 76, 62
19, 287331, Note_off_c, 4, 76, 64
19, 287401, Note_on_c, 4, 76, 76
19, 287547, Note_off_c, 4, 76, 64
19, 287630, Note_on_c, 4, 76, 64
19, 287689, Note_off_c, 4, 76, 64
19, 287757, Note_on_c, 4, 76, 82
19, 287851, Note_off_c, 4, 76, 64
19, 287871, Note_on_c, 4, 81, 66
19, 287950, Note_off_c, 4, 81, 64
19, 287975, Note_on_c, 4, 80, 78
19, 288042, Note_off_c, 4, 80, 64
19, 288098, Note_on_c, 4, 81, 80
19, 288207, Note_on_c, 4, 76, 68
19, 288247, Note_off_c, 4, 81, 64
19, 288303, Note_off_c, 4, 76, 64
19, 288326, Note_on_c, 4, 78, 66
19, 288384, Note_off_c, 4, 78, 64
19, 288461, Note_on_c, 4, 73, 98
19, 288562, Note_on_c, 4, 71, 72
19, 288582, Note_off_c, 4, 73, 64
19, 288670, Note_off_c, 4, 71, 64
19, 288676, Note_on_c, 4, 69, 57
19, 288737, Note_off_c, 4, 69, 64
19, 288825, Note_on_c, 4, 69, 58
19, 289194, Note_off_c, 4, 69, 64
19, 302012, Note_on_c, 4, 78, 85
19, 302062, Note_off_c, 4, 78, 64
19, 302145, Note_on_c, 4, 78, 105
19, 302253, Note_on_c, 4, 79, 70
19, 302265, Note_off_c, 4, 78, 64
19, 302305, Note_off_c, 4, 79, 64
19, 302375, Note_on_c, 4, 76, 61
19, 302409, Note_off_c, 4, 76, 64
19, 302508, Note_on_c, 4, 76, 100
19, 302602, Note_on_c, 4, 78, 58
19, 302611, Note_off_c, 4, 76, 64
19, 302670, Note_off_c, 4, 78, 64
19, 302719, Note_on_c, 4, 74, 70
19, 302768, Note_off_c, 4, 74, 64
19, 302859, Note_on_c, 4, 74, 91
19, 302966, Note_on_c, 4, 76, 68
19, 302996, Note_off_c, 4, 74, 64
19, 303088, Note_on_c, 4, 78, 62
19, 303102, Note_off_c, 4, 76, 64
19, 303191, Note_off_c, 4, 78, 64
19, 303211, Note_on_c, 4, 79, 85
19, 303324, Note_on_c, 4, 81, 80
19, 303329, Note_off_c, 4, 79, 64
19, 303385, Note_off_c, 4, 81, 64
19, 303441, Note_on_c, 4, 78, 85
19, 303490, Note_off_c, 4, 78, 64
19, 303569, Note_on_c, 4, 78, 102
19, 303678, Note_on_c, 4, 79, 64
19, 303686, Note_off_c, 4, 78, 64
19, 303729, Note_off_c, 4, 79, 64
19, 303792, Note_on_c, 4, 76, 63
19, 303837, Note_off_c, 4, 76, 64
19, 303921, Note_on_c, 4, 76, 78
19, 304050, Note_off_c, 4, 76, 64
19, 304166, Note_on_c, 4, 76, 68
19, 304220, Note_off_c, 4, 76, 64
19, 304305, Note_on_c, 4, 76, 98
19, 304402, Note_on_c, 4, 78, 68
19, 304413, Note_off_c, 4, 76, 64
19, 304467, Note_off_c, 4, 78, 64
19, 304524, Note_on_c, 4, 74, 60
19, 304564, Note_off_c, 4, 74, 64
19, 304658, Note_on_c, 4, 74, 95
19, 304762, Note_on_c, 4, 76, 70
19, 304773, Note_off_c, 4, 74, 64
19, 304838, Note_off_c, 4, 76, 64
19, 304884, Note_on_c, 4, 73, 61
19, 304933, Note_off_c, 4, 73, 64
19, 305010, Note_on_c, 4, 73, 89
19, 305122, Note_on_c, 4, 74, 70
19, 305136, Note_off_c, 4, 73, 64
19, 305244, Note_on_c, 4, 76, 78
19, 305262, Note_off_c, 4, 74, 64
19, 305340, Note_off_c, 4, 76, 64
19, 305370, Note_on_c, 4, 78, 102
19, 305482, Note_on_c, 4, 79, 70
19, 305491, Note_off_c, 4, 78, 64
19, 305540, Note_off_c, 4, 79, 64
19, 305600, Note_on_c, 4, 76, 76
19, 305646, Note_off_c, 4, 76, 64
19, 305723, Note_on_c, 4, 76, 98
19, 305824, Note_on_c, 4, 78, 59
19, 305831, Note_off_c, 4, 76, 64
19, 305889, Note_off_c, 4, 78, 64
19, 305946, Note_on_c, 4, 74, 68
19, 305993, Note_off_c, 4, 74, 64
19, 306080, Note_on_c, 4, 74, 87
19, 306189, Note_on_c, 4, 71, 59
19, 306204, Note_off_c, 4, 74, 64
19, 306299, Note_on_c, 4, 73, 59
19, 306328, Note_off_c, 4, 71, 64
19, 306404, Note_off_c, 4, 73, 64
19, 306428, Note_on_c, 4, 74, 82
19, 306540, Note_on_c, 4, 76, 64
19, 306555, Note_off_c, 4, 74, 64
19, 306612, Note_off_c, 4, 76, 64
19, 306666, Note_on_c, 4, 72, 64
19, 306711, Note_off_c, 4, 72, 64
19, 306798, Note_on_c, 4, 72, 87
19, 306897, Note_on_c, 4, 74, 68
19, 306920, Note_off_c, 4, 72, 64
19, 306976, Note_off_c, 4, 74, 64
19, 307025, Note_on_c, 4, 71, 64
19, 307075, Note_off_c, 4, 71, 64
19, 307172, Note_on_c, 4, 71, 78
19, 307309, Note_off_c, 4, 71, 64
19, 307406, Note_on_c, 4, 71, 68
19, 307475, Note_off_c, 4, 71, 64
19, 307538, Note_on_c, 4, 76, 82
19, 307655, Note_off_c, 4, 76, 64
19, 307761, Note_on_c, 4, 75, 61
19, 307845, Note_off_c, 4, 75, 64
19, 307905, Note_on_c, 4, 76, 76
19, 308018, Note_off_c, 4, 76, 64
19, 308130, Note_on_c, 4, 78, 63
19, 308209, Note_off_c, 4, 78, 64
19, 308281, Note_on_c, 4, 79, 98
19, 308378, Note_on_c, 4, 81, 64
19, 308393, Note_off_c, 4, 79, 64
19, 308439, Note_off_c, 4, 81, 64
19, 308502, Note_on_c, 4, 78, 93
19, 308556, Note_off_c, 4, 78, 64
19, 308634, Note_on_c, 4, 76, 98
19, 308742, Note_off_c, 4, 76, 64
19, 308749, Note_on_c, 4, 78, 58
19, 308807, Note_off_c, 4, 78, 64
19, 308863, Note_on_c, 4, 74, 66
19, 308913, Note_off_c, 4, 74, 64
19, 308988, Note_on_c, 4, 73, 87
19, 309095, Note_on_c, 4, 74, 68
19, 309100, Note_off_c, 4, 73, 64
19, 309168, Note_off_c, 4, 74, 64
19, 309215, Note_on_c, 4, 71, 60
19, 309264, Note_off_c, 4, 71, 64
19, 309348, Note_on_c, 4, 76, 82
19, 309453, Note_off_c, 4, 76, 64
19, 309573, Note_on_c, 4, 73, 58
19, 309653, Note_off_c, 4, 73, 64
19, 309699, Note_on_c, 4, 66, 63
19, 309800, Note_off_c, 4, 66, 64
19, 309933, Note_on_c, 4, 76, 68
19, 310004, Note_off_c, 4, 76, 64
19, 310058, Note_on_c, 4, 74, 74
19, 310155, Note_off_c, 4, 74, 64
19, 310288, Note_on_c, 4, 79, 74
19, 310353, Note_off_c, 4, 79, 64
19, 310427, Note_on_c, 4, 78, 98
19, 310524, Note_on_c, 4, 76, 74
19, 310560, Note_off_c, 4, 78, 64
19, 310652, Note_off_c, 4, 76, 64
19, 310653, Note_on_c, 4, 74, 68
19, 310721, Note_off_c, 4, 74, 64
19, 310772, Note_on_c, 4, 73, 95
19, 310882, Note_on_c, 4, 74, 68
19, 310902, Note_off_c, 4, 73, 64
19, 310967, Note_off_c, 4, 74, 64
19, 310997, Note_on_c, 4, 71, 68
19, 311046, Note_off_c, 4, 71, 64
19, 311138, Note_on_c, 4, 66, 91
19, 311238, Note_on_c, 4, 71, 63
19, 311251, Note_off_c, 4, 66, 64
19, 311325, Note_off_c, 4, 71, 64
19, 311348, Note_on_c, 4, 70, 59
19, 311393, Note_off_c, 4, 70, 64
19, 311507, Note_on_c, 4, 71, 82
19, 311687, Note_off_c, 4, 71, 64
19, 375249, Note_on_c, 4, 74, 105
19, 375526, Note_off_c, 4, 74, 64
19, 375545, Note_on_c, 4, 73, 85
19, 375580, Note_off_c, 4, 73, 64
19, 375600, Note_on_c, 4, 74, 91
19, 375632, Note_off_c, 4, 74, 64
19, 375655, Note_on_c, 4, 69, 89
19, 375694, Note_off_c, 4, 69, 64
19, 375722, Note_on_c, 4, 78, 105
19, 376246, Note_off_c, 4, 78, 64
19, 376259, Note_on_c, 4, 76, 82
19, 376295, Note_off_c, 4, 76, 64
19, 376320, Note_on_c, 4, 74, 82
19, 376356, Note_off_c, 4, 74, 64
19, 376381, Note_on_c, 4, 76, 85
19, 376409, Note_off_c, 4, 76, 64
19, 376440, Note_on_c, 4, 78, 100
19, 376475, Note_off_c, 4, 78, 64
19, 376498, Note_on_c, 4, 76, 93
19, 376533, Note_off_c, 4, 76, 64
19, 376557, Note_on_c, 4, 78, 91
19, 376587, Note_off_c, 4, 78, 64
19, 376606, Note_on_c, 4, 74, 89
19, 376649, Note_off_c, 4, 74, 64
19, 376675, Note_on_c, 4, 81, 98
19, 377182, Note_off_c, 4, 81, 64
19, 377211, Note_on_c, 4, 79, 82
19, 377253, Note_off_c, 4, 79, 64
19, 377276, Note_on_c, 4, 78, 91
19, 377310, Note_off_c, 4, 78, 64
19, 377335, Note_on_c, 4, 79, 89
19, 377374, Note_off_c, 4, 79, 64
19, 377397, Note_on_c, 4, 81, 87
19, 377438, Note_off_c, 4, 81, 64
19, 377459, Note_on_c, 4, 79, 91
19, 377495, Note_off_c, 4, 79, 64
19, 377518, Note_on_c, 4, 81, 85
19, 377560, Note_off_c, 4, 81, 64
19, 377569, Note_on_c, 4, 78, 89
19, 377610, Note_off_c, 4, 78, 64
19, 377636, Note_on_c, 4, 71, 89
19, 377716, Note_off_c, 4, 71, 64
19, 377817, Note_on_c, 4, 81, 80
19, 377853, Note_off_c, 4, 81, 64
19, 377878, Note_on_c, 4, 83, 89
19, 377951, Note_off_c, 4, 83, 64
19, 378052, Note_on_c, 4, 78, 85
19, 378081, Note_off_c, 4, 78, 64
19, 378119, Note_on_c, 4, 78, 100
19, 378242, Note_off_c, 4, 78, 64
19, 378252, Note_on_c, 4, 79, 93
19, 379153, Note_off_c, 4, 79, 64
19, 379190, Note_on_c, 4, 69, 85
19, 379230, Note_off_c, 4, 69, 64
19, 379252, Note_on_c, 4, 71, 87
19, 379291, Note_off_c, 4, 71, 64
19, 379306, Note_on_c, 4, 73, 82
19, 379346, Note_off_c, 4, 73, 64
19, 379366, Note_on_c, 4, 74, 82
19, 379414, Note_off_c, 4, 74, 64
19, 379429, Note_on_c, 4, 76, 78
19, 379466, Note_off_c, 4, 76, 64
19, 379487, Note_on_c, 4, 78, 87
19, 379523, Note_off_c, 4, 78, 64
19, 379543, Note_on_c, 4, 79, 91
19, 379592, Note_off_c, 4, 79, 64
19, 379606, Note_on_c, 4, 78, 93
19, 379638, Note_off_c, 4, 78, 64
19, 379665, Note_on_c, 4, 76, 82
19, 379703, Note_off_c, 4, 76, 64
19, 379725, Note_on_c, 4, 78, 93
19, 379759, Note_off_c, 4, 78, 64
19, 379778, Note_on_c, 4, 79, 89
19, 379818, Note_off_c, 4, 79, 64
19, 379837, Note_on_c, 4, 76, 85
19, 379877, Note_off_c, 4, 76, 64
19, 379901, Note_on_c, 4, 81, 89
19, 379940, Note_off_c, 4, 81, 64
19, 379962, Note_on_c, 4, 76, 93
19, 379994, Note_off_c, 4, 76, 64
19, 380027, Note_on_c, 4, 78, 100
19, 380307, Note_off_c, 4, 78, 64
19, 380328, Note_on_c, 4, 76, 85
19, 380364, Note_off_c, 4, 76, 64
19, 380384, Note_on_c, 4, 78, 91
19, 380419, Note_off_c, 4, 78, 64
19, 380434, Note_on_c, 4, 74, 95
19, 380477, Note_off_c, 4, 74, 64
19, 380499, Note_on_c, 4, 81, 93
19, 381270, Note_off_c, 4, 81, 64
19, 381301, Note_on_c, 4, 79, 87
19, 381334, Note_off_c, 4, 79, 64
19, 381354, Note_on_c, 4, 81, 85
19, 381393, Note_off_c, 4, 81, 64
19, 381408, Note_on_c, 4, 78, 87
19, 381443, Note_off_c, 4, 78, 64
19, 381473, Note_on_c, 4, 79, 98
19, 382234, Note_off_c, 4, 79, 64
19, 382262, Note_on_c, 4, 78, 82
19, 382299, Note_off_c, 4, 78, 64
19, 382320, Note_on_c, 4, 79, 82
19, 382352, Note_off_c, 4, 79, 64
19, 382372, Note_on_c, 4, 76, 82
19, 382417, Note_off_c, 4, 76, 64
19, 382436, Note_on_c, 4, 78, 70
19, 382485, Note_off_c, 4, 78, 64
19, 382498, Note_on_c, 4, 81, 76
19, 382538, Note_off_c, 4, 81, 64
19, 382556, Note_on_c, 4, 86, 85
19, 382610, Note_off_c, 4, 86, 64
19, 382610, Note_on_c, 4, 85, 61
19, 382649, Note_off_c, 4, 85, 64
19, 382668, Note_on_c, 4, 83, 82
19, 382708, Note_off_c, 4, 83, 64
19, 382733, Note_on_c, 4, 81, 85
19, 382777, Note_off_c, 4, 81, 64
19, 382794, Note_on_c, 4, 79, 91
19, 382835, Note_off_c, 4, 79, 64
19, 382851, Note_on_c, 4, 78, 82
19, 382888, Note_off_c, 4, 78, 64
19, 382914, Note_on_c, 4, 79, 91
19, 383272, Note_off_c, 4, 79, 64
19, 383334, Note_on_c, 4, 79, 100
19, 383364, Note_off_c, 4, 79, 64
19, 383392, Note_on_c, 4, 79, 93
19, 383493, Note_off_c, 4, 79, 64
19, 383555, Note_on_c, 4, 78, 61
19, 383588, Note_on_c, 4, 76, 80
19, 383591, Note_off_c, 4, 78, 64
19, 383624, Note_off_c, 4, 76, 64
19, 383628, Note_on_c, 4, 81, 93
19, 383727, Note_off_c, 4, 81, 64
19, 383809, Note_on_c, 4, 76, 70
19, 383851, Note_off_c, 4, 76, 64
19, 383872, Note_on_c, 4, 78, 100
19, 383980, Note_off_c, 4, 78, 64
19, 384118, Note_on_c, 4, 74, 87
19, 384219, Note_off_c, 4, 74, 64
19, 384365, Note_on_c, 4, 71, 85
19, 384852, Note_off_c, 4, 71, 64
19, 384904, Note_on_c, 4, 71, 93
19, 384949, Note_off_c, 4, 71, 64
19, 384966, Note_on_c, 4, 73, 64
19, 385003, Note_off_c, 4, 73, 64
19, 385022, Note_on_c, 4, 74, 82
19, 385063, Note_off_c, 4, 74, 64
19, 385080, Note_on_c, 4, 76, 82
19, 385119, Note_off_c, 4, 76, 64
19, 385139, Note_on_c, 4, 74, 95
19, 385173, Note_off_c, 4, 74, 64
19, 385198, Note_on_c, 4, 76, 78
19, 385237, Note_off_c, 4, 76, 64
19, 385248, Note_on_c, 4, 73, 91
19, 385283, Note_off_c, 4, 73, 64
19, 385317, Note_on_c, 4, 66, 87
19, 385422, Note_off_c, 4, 66, 64
19, 385503, Note_on_c, 4, 76, 87
19, 385540, Note_off_c, 4, 76, 64
19, 385566, Note_on_c, 4, 74, 102
19, 385663, Note_off_c, 4, 74, 64
19, 385736, Note_on_c, 4, 73, 80
19, 385772, Note_off_c, 4, 73, 64
19, 385802, Note_on_c, 4, 73, 98
19, 385926, Note_off_c, 4, 73, 64
19, 385928, Note_on_c, 4, 74, 98
19, 386075, Note_off_c, 4, 74, 64
19, 386102, Note_on_c, 4, 73, 85
19, 386142, Note_off_c, 4, 73, 64
19, 386159, Note_on_c, 4, 74, 102
19, 386192, Note_off_c, 4, 74, 64
19, 386224, Note_on_c, 4, 71, 82
19, 386256, Note_off_c, 4, 71, 64
19, 386286, Note_on_c, 4, 69, 102
19, 386413, Note_on_c, 4, 67, 82
19, 386415, Note_off_c, 4, 69, 64
19, 386802, Note_off_c, 4, 67, 64
19, 386825, Note_on_c, 4, 66, 82
19, 386865, Note_off_c, 4, 66, 64
19, 386880, Note_on_c, 4, 67, 82
19, 386919, Note_off_c, 4, 67, 64
19, 386937, Note_on_c, 4, 64, 78
19, 386983, Note_off_c, 4, 64, 64
19, 387005, Note_on_c, 4, 66, 87
19, 387095, Note_off_c, 4, 66, 64
19, 387175, Note_on_c, 4, 67, 82
19, 387218, Note_off_c, 4, 67, 64
19, 387235, Note_on_c, 4, 69, 98
19, 387310, Note_off_c, 4, 69, 64
19, 387408, Note_on_c, 4, 71, 85
19, 387448, Note_off_c, 4, 71, 64
19, 387470, Note_on_c, 4, 73, 89
19, 387579, Note_off_c, 4, 73, 64
19, 387651, Note_on_c, 4, 74, 80
19, 387693, Note_off_c, 4, 74, 64
19, 387718, Note_on_c, 4, 73, 91
19, 387756, Note_off_c, 4, 73, 64
19, 387774, Note_on_c, 4, 74, 87
19, 387814, Note_off_c, 4, 74, 64
19, 387835, Note_on_c, 4, 76, 85
19, 387870, Note_off_c, 4, 76, 64
19, 387889, Note_on_c, 4, 73, 95
19, 387934, Note_off_c, 4, 73, 64
19, 387951, Note_on_c, 4, 69, 91
19, 388237, Note_off_c, 4, 69, 64
19, 388254, Note_on_c, 4, 71, 87
19, 388293, Note_off_c, 4, 71, 64
19, 388310, Note_on_c, 4, 73, 78
19, 388346, Note_off_c, 4, 73, 64
19, 388360, Note_on_c, 4, 69, 93
19, 388410, Note_off_c, 4, 69, 64
19, 388433, Note_on_c, 4, 76, 100
19, 388715, Note_off_c, 4, 76, 64
19, 388739, Note_on_c, 4, 74, 80
19, 388777, Note_off_c, 4, 74, 64
19, 388798, Note_on_c, 4, 76, 80
19, 388839, Note_off_c, 4, 76, 64
19, 388852, Note_on_c, 4, 73, 78
19, 388890, Note_off_c, 4, 73, 64
19, 388912, Note_on_c, 4, 74, 91
19, 389184, Note_off_c, 4, 74, 64
19, 389211, Note_on_c, 4, 73, 80
19, 389249, Note_off_c, 4, 73, 64
19, 389263, Note_on_c, 4, 74, 87
19, 389296, Note_off_c, 4, 74, 64
19, 389317, Note_on_c, 4, 69, 82
19, 389361, Note_off_c, 4, 69, 64
19, 389385, Note_on_c, 4, 78, 98
19, 389674, Note_off_c, 4, 78, 64
19, 389691, Note_on_c, 4, 76, 78
19, 389730, Note_off_c, 4, 76, 64
19, 389749, Note_on_c, 4, 78, 95
19, 389788, Note_off_c, 4, 78, 64
19, 389802, Note_on_c, 4, 74, 91
19, 389851, Note_off_c, 4, 74, 64
19, 389871, Note_on_c, 4, 76, 89
19, 390140, Note_off_c, 4, 76, 64
19, 390168, Note_on_c, 4, 74, 91
19, 390207, Note_off_c, 4, 74, 64
19, 390228, Note_on_c, 4, 76, 85
19, 390263, Note_off_c, 4, 76, 64
19, 390284, Note_on_c, 4, 73, 87
19, 390334, Note_off_c, 4, 73, 64
19, 390349, Note_on_c, 4, 79, 87
19, 390617, Note_off_c, 4, 79, 64
19, 390645, Note_on_c, 4, 77, 89
19, 390680, Note_off_c, 4, 77, 64
19, 390708, Note_on_c, 4, 79, 89
19, 390748, Note_off_c, 4, 79, 64
19, 390766, Note_on_c, 4, 76, 89
19, 390803, Note_off_c, 4, 76, 64
19, 390832, Note_on_c, 4, 77, 87
19, 391125, Note_off_c, 4, 77, 64
19, 391154, Note_on_c, 4, 76, 85
19, 391189, Note_off_c, 4, 76, 64
19, 391211, Note_on_c, 4, 77, 82
19, 391246, Note_off_c, 4, 77, 64
19, 391260, Note_on_c, 4, 74, 87
19, 391301, Note_off_c, 4, 74, 64
19, 391323, Note_on_c, 4, 76, 98
19, 391598, Note_off_c, 4, 76, 64
19, 391628, Note_on_c, 4, 74, 95
19, 391664, Note_off_c, 4, 74, 64
19, 391684, Note_on_c, 4, 76, 80
19, 391723, Note_off_c, 4, 76, 64
19, 391737, Note_on_c, 4, 73, 78
19, 391774, Note_off_c, 4, 73, 64
19, 391798, Note_on_c, 4, 74, 87
19, 391844, Note_off_c, 4, 74, 64
19, 391853, Note_on_c, 4, 73, 72
19, 391893, Note_off_c, 4, 73, 64
19, 391910, Note_on_c, 4, 74, 87
19, 391948, Note_off_c, 4, 74, 64
19, 391966, Note_on_c, 4, 71, 85
19, 392008, Note_off_c, 4, 71, 64
19, 392036, Note_on_c, 4, 72, 87
19, 392540, Note_off_c, 4, 72, 64
19, 392568, Note_on_c, 4, 71, 89
19, 392608, Note_off_c, 4, 71, 64
19, 392623, Note_on_c, 4, 72, 85
19, 392661, Note_off_c, 4, 72, 64
19, 392676, Note_on_c, 4, 69, 87
19, 392723, Note_off_c, 4, 69, 64
19, 392740, Note_on_c, 4, 71, 102
19, 392843, Note_off_c, 4, 71, 64
19, 392921, Note_on_c, 4, 73, 82
19, 392957, Note_off_c, 4, 73, 64
19, 392984, Note_on_c, 4, 74, 93
19, 393331, Note_off_c, 4, 74, 64
19, 393416, Note_on_c, 4, 76, 85
19, 393463, Note_off_c, 4, 76, 64
19, 393475, Note_on_c, 4, 69, 100
19, 393567, Note_off_c, 4, 69, 64
19, 393647, Note_on_c, 4, 79, 89
19, 393690, Note_off_c, 4, 79, 64
19, 393714, Note_on_c, 4, 78, 102
19, 393809, Note_off_c, 4, 78, 64
19, 393878, Note_on_c, 4, 76, 85
19, 393910, Note_off_c, 4, 76, 64
19, 393954, Note_on_c, 4, 74, 98
19, 394025, Note_off_c, 4, 74, 64
19, 394025, Note_on_c, 4, 73, 80
19, 394054, Note_off_c, 4, 73, 64
19, 394058, Note_on_c, 4, 74, 80
19, 394087, Note_off_c, 4, 74, 64
19, 394089, Note_on_c, 4, 73, 57
19, 394110, Note_on_c, 4, 74, 82
19, 394111, Note_off_c, 4, 73, 64
19, 394137, Note_on_c, 4, 73, 60
19, 394138, Note_off_c, 4, 74, 64
19, 394161, Note_on_c, 4, 74, 82
19, 394163, Note_off_c, 4, 73, 64
19, 394185, Note_on_c, 4, 73, 87
19, 394191, Note_off_c, 4, 74, 64
19, 394295, Note_off_c, 4, 73, 64
19, 394357, Note_on_c, 4, 74, 87
19, 394390, Note_off_c, 4, 74, 64
19, 394438, Note_on_c, 4, 74, 102
19, 395430, Note_off_c, 4, 74, 64
19, 395430, End_track
20, 0, Start_track
20, 0, Title_t, "Oboe"
20, 0, Program_c, 5, 68
20, 0, Control_c, 5, 7, 100
20, 24174, Note_on_c, 5, 74, 82
20, 24210, Note_off_c, 5, 74, 64
20, 24233, Note_on_c, 5, 74, 100
20, 24306, Note_off_c, 5, 74, 64
20, 24414, Note_on_c, 5, 69, 80
20, 24449, Note_off_c, 5, 69, 64
20, 24475, Note_on_c, 5, 66, 87
20, 24968, Note_off_c, 5, 66, 64
20, 25143, Note_on_c, 5, 74, 85
20, 25178, Note_off_c, 5, 74, 64
20, 25205, Note_on_c, 5, 74, 91
20, 25270, Note_off_c, 5, 74, 64
20, 25378, Note_on_c, 5, 69, 78
20, 25419, Note_off_c, 5, 69, 64
20, 25441, Note_on_c, 5, 71, 87
20, 25925, Note_off_c, 5, 71, 64
20, 26090, Note_on_c, 5, 74, 85
20, 26131, Note_off_c, 5, 74, 64
20, 26155, Note_on_c, 5, 74, 89
20, 26227, Note_off_c, 5, 74, 64
20, 26336, Note_on_c, 5, 67, 85
20, 26378, Note_off_c, 5, 67, 64
20, 26404, Note_on_c, 5, 69, 87
20, 26650, Note_off_c, 5, 69, 64
20, 26797, Note_on_c, 5, 74, 85
20, 26830, Note_off_c, 5, 74, 64
20, 26857, Note_on_c, 5, 76, 95
20, 27198, Note_off_c, 5, 76, 64
20, 27296, Note_on_c, 5, 76, 82
20, 27328, Note_off_c, 5, 76, 64
20, 27351, Note_on_c, 5, 76, 100
20, 27446, Note_off_c, 5, 76, 64
20, 27593, Note_on_c, 5, 73, 100
20, 27697, Note_off_c, 5, 73, 64
20, 27836, Note_on_c, 5, 74, 93
20, 27945, Note_off_c, 5, 74, 64
20, 28079, Note_on_c, 5, 69, 85
20, 28204, Note_off_c, 5, 69, 64
20, 28510, Note_on_c, 5, 78, 76
20, 28542, Note_off_c, 5, 78, 64
20, 28568, Note_on_c, 5, 78, 89
20, 28634, Note_off_c, 5, 78, 64
20, 28737, Note_on_c, 5, 72, 80
20, 28778, Note_off_c, 5, 72, 64
20, 28808, Note_on_c, 5, 71, 91
20, 29108, Note_off_c, 5, 71, 64
20, 29209, Note_on_c, 5, 71, 93
20, 29257, Note_off_c, 5, 71, 64
20, 29271, Note_on_c, 5, 75, 95
20, 29369, Note_off_c, 5, 75, 64
20, 29456, Note_on_c, 5, 78, 87
20, 29499, Note_off_c, 5, 78, 64
20, 29517, Note_on_c, 5, 71, 93
20, 29614, Note_off_c, 5, 71, 64
20, 29703, Note_on_c, 5, 75, 85
20, 29750, Note_off_c, 5, 75, 64
20, 29765, Note_on_c, 5, 76, 95
20, 29844, Note_off_c, 5, 76, 64
20, 29941, Note_on_c, 5, 76, 87
20, 29978, Note_off_c, 5, 76, 64
20, 30001, Note_on_c, 5, 76, 95
20, 30081, Note_off_c, 5, 76, 64
20, 30176, Note_on_c, 5, 71, 82
20, 30212, Note_off_c, 5, 71, 64
20, 30246, Note_on_c, 5, 67, 85
20, 30517, Note_off_c, 5, 67, 64
20, 30663, Note_on_c, 5, 66, 89
20, 30694, Note_off_c, 5, 66, 64
20, 30732, Note_on_c, 5, 67, 85
20, 31018, Note_off_c, 5, 67, 64
20, 31140, Note_on_c, 5, 67, 85
20, 31181, Note_off_c, 5, 67, 64
20, 31194, Note_on_c, 5, 69, 93
20, 31285, Note_off_c, 5, 69, 64
20, 31380, Note_on_c, 5, 67, 82
20, 31426, Note_off_c, 5, 67, 64
20, 31438, Note_on_c, 5, 69, 87
20, 31542, Note_off_c, 5, 69, 64
20, 31616, Note_on_c, 5, 71, 78
20, 31660, Note_off_c, 5, 71, 64
20, 31676, Note_on_c, 5, 69, 95
20, 31770, Note_off_c, 5, 69, 64
20, 31855, Note_on_c, 5, 73, 78
20, 31886, Note_off_c, 5, 73, 64
20, 31910, Note_on_c, 5, 73, 91
20, 31984, Note_off_c, 5, 73, 64
20, 32089, Note_on_c, 5, 76, 82
20, 32121, Note_off_c, 5, 76, 64
20, 32153, Note_on_c, 5, 76, 95
20, 32235, Note_off_c, 5, 76, 64
20, 32332, Note_on_c, 5, 74, 76
20, 32372, Note_off_c, 5, 74, 64
20, 32389, Note_on_c, 5, 76, 93
20, 32467, Note_off_c, 5, 76, 64
20, 32559, Note_on_c, 5, 73, 63
20, 32600, Note_off_c, 5, 73, 64
20, 32623, Note_on_c, 5, 69, 85
20, 33125, Note_off_c, 5, 69, 64
20, 33293, Note_on_c, 5, 74, 82
20, 33328, Note_off_c, 5, 74, 64
20, 33354, Note_on_c, 5, 74, 95
20, 33426, Note_off_c, 5, 74, 64
20, 33531, Note_on_c, 5, 69, 80
20, 33568, Note_off_c, 5, 69, 64
20, 33594, Note_on_c, 5, 69, 87
20, 34085, Note_off_c, 5, 69, 64
20, 34253, Note_on_c, 5, 73, 66
20, 34284, Note_off_c, 5, 73, 64
20, 34310, Note_on_c, 5, 73, 85
20, 34383, Note_off_c, 5, 73, 64
20, 34487, Note_on_c, 5, 69, 72
20, 34521, Note_off_c, 5, 69, 64
20, 34553, Note_on_c, 5, 71, 98
20, 34873, Note_off_c, 5, 71, 64
20, 34987, Note_on_c, 5, 71, 85
20, 35021, Note_off_c, 5, 71, 64
20, 35042, Note_on_c, 5, 71, 98
20, 35137, Note_off_c, 5, 71, 64
20, 35286, Note_on_c, 5, 68, 87
20, 35376, Note_off_c, 5, 68, 64
20, 35518, Note_on_c, 5, 69, 82
20, 35604, Note_off_c, 5, 69, 64
20, 35708, Note_on_c, 5, 76, 85
20, 35744, Note_off_c, 5, 76, 64
20, 35766, Note_on_c, 5, 76, 89
20, 35846, Note_off_c, 5, 76, 64
20, 35938, Note_on_c, 5, 73, 70
20, 35975, Note_off_c, 5, 73, 64
20, 36005, Note_on_c, 5, 73, 98
20, 36502, Note_off_c, 5, 73, 64
20, 36656, Note_on_c, 5, 74, 85
20, 36687, Note_off_c, 5, 74, 64
20, 36710, Note_on_c, 5, 74, 85
20, 36782, Note_off_c, 5, 74, 64
20, 36886, Note_on_c, 5, 71, 78
20, 36932, Note_off_c, 5, 71, 64
20, 36947, Note_on_c, 5, 73, 85
20, 37067, Note_off_c, 5, 73, 64
20, 37199, Note_on_c, 5, 77, 87
20, 37289, Note_off_c, 5, 77, 64
20, 37441, Note_on_c, 5, 78, 87
20, 37953, Note_off_c, 5, 78, 64
20, 38102, Note_on_c, 5, 73, 72
20, 38133, Note_off_c, 5, 73, 64
20, 38159, Note_on_c, 5, 73, 87
20, 38233, Note_off_c, 5, 73, 64
20, 38327, Note_on_c, 5, 69, 82
20, 38367, Note_off_c, 5, 69, 64
20, 38392, Note_on_c, 5, 71, 89
20, 38661, Note_off_c, 5, 71, 64
20, 38797, Note_on_c, 5, 69, 68
20, 38822, Note_on_c, 5, 68, 91
20, 38829, Note_off_c, 5, 69, 64
20, 38858, Note_off_c, 5, 68, 64
20, 38866, Note_on_c, 5, 69, 80
20, 38950, Note_off_c, 5, 69, 64
20, 39056, Note_on_c, 5, 69, 76
20, 39096, Note_off_c, 5, 69, 64
20, 39107, Note_on_c, 5, 71, 91
20, 39208, Note_off_c, 5, 71, 64
20, 39288, Note_on_c, 5, 73, 78
20, 39324, Note_off_c, 5, 73, 64
20, 39352, Note_on_c, 5, 68, 82
20, 39443, Note_off_c, 5, 68, 64
20, 39536, Note_on_c, 5, 74, 82
20, 39570, Note_off_c, 5, 74, 64
20, 39595, Note_on_c, 5, 74, 98
20, 39673, Note_off_c, 5, 74, 64
20, 39767, Note_on_c, 5, 71, 74
20, 39805, Note_off_c, 5, 71, 64
20, 39831, Note_on_c, 5, 68, 85
20, 40315, Note_off_c, 5, 68, 64
20, 40484, Note_on_c, 5, 76, 85
20, 40520, Note_off_c, 5, 76, 64
20, 40547, Note_on_c, 5, 76, 91
20, 40625, Note_off_c, 5, 76, 64
20, 40734, Note_on_c, 5, 73, 64
20, 40770, Note_off_c, 5, 73, 64
20, 40793, Note_on_c, 5, 69, 91
20, 41267, Note_off_c, 5, 69, 64
20, 41444, Note_on_c, 5, 77, 87
20, 41484, Note_off_c, 5, 77, 64
20, 41509, Note_on_c, 5, 77, 91
20, 41581, Note_off_c, 5, 77, 64
20, 41696, Note_on_c, 5, 74, 80
20, 41732, Note_off_c, 5, 74, 64
20, 41757, Note_on_c, 5, 71, 82
20, 42241, Note_off_c, 5, 71, 64
20, 42424, Note_on_c, 5, 74, 87
20, 42454, Note_off_c, 5, 74, 64
20, 42484, Note_on_c, 5, 72, 91
20, 42741, Note_off_c, 5, 72, 64
20, 42911, Note_on_c, 5, 72, 85
20, 42944, Note_off_c, 5, 72, 64
20, 42968, Note_on_c, 5, 71, 93
20, 43213, Note_off_c, 5, 71, 64
20, 43360, Note_on_c, 5, 71, 82
20, 43400, Note_off_c, 5, 71, 64
20, 43421, Note_on_c, 5, 69, 95
20, 43510, Note_off_c, 5, 69, 64
20, 43607, Note_on_c, 5, 72, 82
20, 43645, Note_off_c, 5, 72, 64
20, 43673, Note_on_c, 5, 76, 89
20, 44264, Note_off_c, 5, 76, 64
20, 44338, Note_on_c, 5, 73, 72
20, 44374, Note_off_c, 5, 73, 64
20, 44392, Note_on_c, 5, 74, 100
20, 44500, Note_off_c, 5, 74, 64
20, 44566, Note_on_c, 5, 71, 72
20, 44605, Note_off_c, 5, 71, 64
20, 44631, Note_on_c, 5, 73, 95
20, 44691, Note_off_c, 5, 73, 64
20, 44810, Note_on_c, 5, 69, 66
20, 44845, Note_off_c, 5, 69, 64
20, 44868, Note_on_c, 5, 71, 85
20, 44950, Note_off_c, 5, 71, 64
20, 45052, Note_on_c, 5, 66, 64
20, 45094, Note_off_c, 5, 66, 64
20, 45112, Note_on_c, 5, 71, 95
20, 45222, Note_off_c, 5, 71, 64
20, 45286, Note_on_c, 5, 69, 68
20, 45309, Note_on_c, 5, 68, 82
20, 45320, Note_off_c, 5, 69, 64
20, 45346, Note_off_c, 5, 68, 64
20, 45355, Note_on_c, 5, 69, 93
20, 45460, Note_off_c, 5, 69, 64
20, 45528, Note_on_c, 5, 71, 85
20, 45565, Note_off_c, 5, 71, 64
20, 45596, Note_on_c, 5, 69, 89
20, 45671, Note_on_c, 5, 68, 68
20, 45674, Note_off_c, 5, 69, 64
20, 45697, Note_off_c, 5, 68, 64
20, 45700, Note_on_c, 5, 69, 70
20, 45728, Note_on_c, 5, 68, 74
20, 45729, Note_off_c, 5, 69, 64
20, 45754, Note_off_c, 5, 68, 64
20, 45754, Note_on_c, 5, 69, 76
20, 45775, Note_on_c, 5, 68, 70
20, 45779, Note_off_c, 5, 69, 64
20, 45801, Note_on_c, 5, 69, 70
20, 45804, Note_off_c, 5, 68, 64
20, 45827, Note_on_c, 5, 68, 89
20, 45834, Note_off_c, 5, 69, 64
20, 45934, Note_off_c, 5, 68, 64
20, 46009, Note_on_c, 5, 69, 85
20, 46038, Note_off_c, 5, 69, 64
20, 46072, Note_on_c, 5, 69, 89
20, 46196, Note_off_c, 5, 69, 64
20, 73072, Note_on_c, 5, 62, 76
20, 73198, Note_off_c, 5, 62, 64
20, 73419, Note_on_c, 5, 69, 82
20, 73542, Note_off_c, 5, 69, 64
20, 73763, Note_on_c, 5, 71, 66
20, 73889, Note_off_c, 5, 71, 64
20, 74136, Note_on_c, 5, 64, 76
20, 74276, Note_off_c, 5, 64, 64
20, 74494, Note_on_c, 5, 71, 85
20, 74633, Note_off_c, 5, 71, 64
20, 74858, Note_on_c, 5, 73, 68
20, 74998, Note_off_c, 5, 73, 64
20, 75218, Note_on_c, 5, 66, 57
20, 75344, Note_off_c, 5, 66, 64
20, 75465, Note_on_c, 5, 74, 82
20, 75524, Note_off_c, 5, 74, 64
20, 75587, Note_on_c, 5, 74, 93
20, 75680, Note_on_c, 5, 76, 72
20, 75702, Note_off_c, 5, 74, 64
20, 75740, Note_off_c, 5, 76, 64
20, 75804, Note_on_c, 5, 73, 85
20, 75858, Note_off_c, 5, 73, 64
20, 75930, Note_on_c, 5, 73, 85
20, 76028, Note_on_c, 5, 74, 64
20, 76053, Note_off_c, 5, 73, 64
20, 76103, Note_off_c, 5, 74, 64
20, 76139, Note_on_c, 5, 71, 58
20, 76188, Note_off_c, 5, 71, 64
20, 76280, Note_on_c, 5, 71, 87
20, 76380, Note_on_c, 5, 73, 60
20, 76400, Note_off_c, 5, 71, 64
20, 76481, Note_off_c, 5, 73, 64
20, 76505, Note_on_c, 5, 74, 68
20, 76577, Note_off_c, 5, 74, 64
20, 76641, Note_on_c, 5, 76, 85
20, 76758, Note_on_c, 5, 78, 60
20, 76769, Note_off_c, 5, 76, 64
20, 76832, Note_off_c, 5, 78, 64
20, 76868, Note_on_c, 5, 74, 66
20, 76919, Note_off_c, 5, 74, 64
20, 77003, Note_on_c, 5, 74, 87
20, 77115, Note_on_c, 5, 76, 66
20, 77133, Note_off_c, 5, 74, 64
20, 77198, Note_off_c, 5, 76, 64
20, 77241, Note_on_c, 5, 73, 57
20, 77295, Note_off_c, 5, 73, 64
20, 77379, Note_on_c, 5, 73, 68
20, 77567, Note_off_c, 5, 73, 64
20, 77732, Note_on_c, 5, 78, 68
20, 78480, Note_off_c, 5, 78, 64
20, 78580, Note_on_c, 5, 71, 68
20, 78689, Note_on_c, 5, 73, 62
20, 78711, Note_off_c, 5, 71, 64
20, 78778, Note_off_c, 5, 73, 64
20, 78814, Note_on_c, 5, 75, 91
20, 78931, Note_on_c, 5, 83, 82
20, 78936, Note_off_c, 5, 75, 64
20, 78990, Note_off_c, 5, 83, 64
20, 79055, Note_on_c, 5, 73, 87
20, 79111, Note_off_c, 5, 73, 64
20, 79170, Note_on_c, 5, 75, 95
20, 79289, Note_on_c, 5, 73, 64
20, 79316, Note_off_c, 5, 75, 64
20, 79392, Note_off_c, 5, 73, 64
20, 79408, Note_on_c, 5, 71, 43
20, 79466, Note_off_c, 5, 71, 64
20, 79543, Note_on_c, 5, 76, 76
20, 80640, Note_off_c, 5, 76, 64
20, 80739, Note_on_c, 5, 69, 66
20, 80841, Note_on_c, 5, 71, 89
20, 80864, Note_off_c, 5, 69, 64
20, 80920, Note_off_c, 5, 71, 64
20, 80965, Note_on_c, 5, 73, 91
20, 81082, Note_on_c, 5, 81, 78
20, 81098, Note_off_c, 5, 73, 64
20, 81145, Note_off_c, 5, 81, 64
20, 81197, Note_on_c, 5, 71, 72
20, 81258, Note_off_c, 5, 71, 64
20, 81327, Note_on_c, 5, 73, 78
20, 81446, Note_on_c, 5, 71, 72
20, 81469, Note_off_c, 5, 73, 64
20, 81532, Note_off_c, 5, 71, 64
20, 81558, Note_on_c, 5, 69, 63
20, 81620, Note_off_c, 5, 69, 64
20, 81689, Note_on_c, 5, 74, 78
20, 81854, Note_off_c, 5, 74, 64
20, 82050, Note_on_c, 5, 81, 76
20, 83757, Note_off_c, 5, 81, 64
20, 83843, Note_on_c, 5, 81, 70
20, 83980, Note_on_c, 5, 80, 59
20, 83996, Note_off_c, 5, 81, 64
20, 84054, Note_on_c, 5, 81, 60
20, 84057, Note_off_c, 5, 80, 64
20, 84117, Note_on_c, 5, 80, 60
20, 84131, Note_off_c, 5, 81, 64
20, 84168, Note_off_c, 5, 80, 64
20, 84173, Note_on_c, 5, 81, 61
20, 84219, Note_on_c, 5, 80, 57
20, 84223, Note_off_c, 5, 81, 64
20, 84263, Note_off_c, 5, 80, 64
20, 84268, Note_on_c, 5, 81, 68
20, 84317, Note_off_c, 5, 81, 64
20, 84317, Note_on_c, 5, 80, 53
20, 84347, Note_off_c, 5, 80, 64
20, 84354, Note_on_c, 5, 81, 60
20, 84403, Note_on_c, 5, 80, 57
20, 84405, Note_off_c, 5, 81, 64
20, 84439, Note_off_c, 5, 80, 64
20, 84448, Note_on_c, 5, 81, 57
20, 84489, Note_off_c, 5, 81, 64
20, 84493, Note_on_c, 5, 80, 47
20, 84522, Note_off_c, 5, 80, 64
20, 84527, Note_on_c, 5, 81, 57
20, 84569, Note_off_c, 5, 81, 64
20, 84569, Note_on_c, 5, 80, 53
20, 84612, Note_off_c, 5, 80, 64
20, 84615, Note_on_c, 5, 81, 58
20, 84653, Note_on_c, 5, 80, 53
20, 84729, Note_off_c, 5, 81, 64
20, 84754, Note_on_c, 5, 78, 55
20, 84756, Note_off_c, 5, 80, 64
20, 84810, Note_on_c, 5, 80, 72
20, 84837, Note_off_c, 5, 78, 64
20, 84871, Note_off_c, 5, 80, 64
20, 84923, Note_on_c, 5, 81, 89
20, 85031, Note_on_c, 5, 78, 66
20, 85038, Note_off_c, 5, 81, 64
20, 85146, Note_on_c, 5, 80, 68
20, 85154, Note_off_c, 5, 78, 64
20, 85218, Note_off_c, 5, 80, 64
20, 85285, Note_on_c, 5, 81, 85
20, 85398, Note_on_c, 5, 83, 78
20, 85413, Note_off_c, 5, 81, 64
20, 85478, Note_off_c, 5, 83, 64
20, 85519, Note_on_c, 5, 80, 78
20, 85577, Note_off_c, 5, 80, 64
20, 85652, Note_on_c, 5, 81, 87
20, 85766, Note_on_c, 5, 80, 58
20, 85793, Note_off_c, 5, 81, 64
20, 85870, Note_off_c, 5, 80, 64
20, 85877, Note_on_c, 5, 78, 59
20, 85956, Note_off_c, 5, 78, 64
20, 86025, Note_on_c, 5, 83, 87
20, 86151, Note_off_c, 5, 83, 64
20, 86376, Note_on_c, 5, 76, 76
20, 87161, Note_off_c, 5, 76, 64
20, 87213, Note_on_c, 5, 69, 66
20, 87283, Note_off_c, 5, 69, 64
20, 87324, Note_on_c, 5, 72, 82
20, 87386, Note_off_c, 5, 72, 64
20, 87461, Note_on_c, 5, 72, 93
20, 87560, Note_on_c, 5, 74, 66
20, 87588, Note_off_c, 5, 72, 64
20, 87638, Note_off_c, 5, 74, 64
20, 87683, Note_on_c, 5, 71, 60
20, 87731, Note_off_c, 5, 71, 64
20, 87819, Note_on_c, 5, 71, 76
20, 87918, Note_on_c, 5, 72, 64
20, 87933, Note_off_c, 5, 71, 64
20, 88010, Note_off_c, 5, 72, 64
20, 88046, Note_on_c, 5, 69, 52
20, 88100, Note_off_c, 5, 69, 64
20, 88181, Note_on_c, 5, 69, 82
20, 88284, Note_on_c, 5, 71, 68
20, 88305, Note_off_c, 5, 69, 64
20, 88392, Note_on_c, 5, 72, 78
20, 88420, Note_off_c, 5, 71, 64
20, 88457, Note_off_c, 5, 72, 64
20, 88532, Note_on_c, 5, 74, 91
20, 88644, Note_on_c, 5, 76, 64
20, 88676, Note_off_c, 5, 74, 64
20, 88737, Note_off_c, 5, 76, 64
20, 88763, Note_on_c, 5, 72, 57
20, 88811, Note_off_c, 5, 72, 64
20, 88890, Note_on_c, 5, 72, 66
20, 89000, Note_on_c, 5, 74, 74
20, 89009, Note_off_c, 5, 72, 64
20, 89105, Note_off_c, 5, 74, 64
20, 89115, Note_on_c, 5, 71, 60
20, 89171, Note_off_c, 5, 71, 64
20, 89249, Note_on_c, 5, 71, 78
20, 89456, Note_off_c, 5, 71, 64
20, 89616, Note_on_c, 5, 78, 68
20, 90503, Note_off_c, 5, 78, 64
20, 90584, Note_on_c, 5, 76, 78
20, 90645, Note_off_c, 5, 76, 64
20, 90710, Note_on_c, 5, 76, 85
20, 90804, Note_on_c, 5, 78, 58
20, 90840, Note_off_c, 5, 76, 64
20, 90912, Note_off_c, 5, 78, 64
20, 90919, Note_on_c, 5, 74, 63
20, 90971, Note_off_c, 5, 74, 64
20, 91059, Note_on_c, 5, 74, 87
20, 91164, Note_on_c, 5, 76, 64
20, 91193, Note_off_c, 5, 74, 64
20, 91254, Note_off_c, 5, 76, 64
20, 91290, Note_on_c, 5, 73, 57
20, 91340, Note_off_c, 5, 73, 64
20, 91419, Note_on_c, 5, 73, 68
20, 91522, Note_on_c, 5, 76, 70
20, 91550, Note_off_c, 5, 73, 64
20, 91605, Note_off_c, 5, 76, 64
20, 91643, Note_on_c, 5, 74, 80
20, 91700, Note_off_c, 5, 74, 64
20, 91778, Note_on_c, 5, 76, 87
20, 91911, Note_off_c, 5, 76, 64
20, 92018, Note_on_c, 5, 78, 63
20, 92093, Note_off_c, 5, 78, 64
20, 92145, Note_on_c, 5, 76, 85
20, 92249, Note_off_c, 5, 76, 64
20, 92375, Note_on_c, 5, 74, 74
20, 92463, Note_off_c, 5, 74, 64
20, 92514, Note_on_c, 5, 73, 70
20, 92694, Note_off_c, 5, 73, 64
20, 115412, Note_on_c, 5, 69, 74
20, 115464, Note_off_c, 5, 69, 64
20, 115547, Note_on_c, 5, 69, 91
20, 115653, Note_on_c, 5, 73, 53
20, 115687, Note_off_c, 5, 69, 64
20, 115746, Note_off_c, 5, 73, 64
20, 115773, Note_on_c, 5, 71, 68
20, 115820, Note_off_c, 5, 71, 64
20, 115910, Note_on_c, 5, 71, 87
20, 116013, Note_off_c, 5, 71, 64
20, 116013, Note_on_c, 5, 74, 68
20, 116081, Note_off_c, 5, 74, 64
20, 116112, Note_on_c, 5, 73, 51
20, 116162, Note_off_c, 5, 73, 64
20, 116258, Note_on_c, 5, 73, 64
20, 116452, Note_off_c, 5, 73, 64
20, 117568, Note_on_c, 5, 73, 62
20, 117636, Note_off_c, 5, 73, 64
20, 117705, Note_on_c, 5, 76, 95
20, 117816, Note_off_c, 5, 76, 64
20, 117928, Note_on_c, 5, 73, 46
20, 117995, Note_off_c, 5, 73, 64
20, 118058, Note_on_c, 5, 69, 68
20, 118160, Note_off_c, 5, 69, 64
20, 118283, Note_on_c, 5, 73, 57
20, 118346, Note_off_c, 5, 73, 64
20, 118416, Note_on_c, 5, 74, 82
20, 118527, Note_off_c, 5, 74, 64
20, 118644, Note_on_c, 5, 69, 76
20, 118709, Note_off_c, 5, 69, 64
20, 118792, Note_on_c, 5, 69, 93
20, 118902, Note_on_c, 5, 74, 80
20, 118913, Note_off_c, 5, 69, 64
20, 118976, Note_off_c, 5, 74, 64
20, 119026, Note_on_c, 5, 73, 55
20, 119071, Note_off_c, 5, 73, 64
20, 119152, Note_on_c, 5, 73, 78
20, 119259, Note_on_c, 5, 76, 64
20, 119274, Note_off_c, 5, 73, 64
20, 119332, Note_off_c, 5, 76, 64
20, 119355, Note_on_c, 5, 74, 58
20, 119408, Note_off_c, 5, 74, 64
20, 119503, Note_on_c, 5, 74, 80
20, 119724, Note_off_c, 5, 74, 64
20, 120813, Note_on_c, 5, 66, 57
20, 120860, Note_off_c, 5, 66, 64
20, 120938, Note_on_c, 5, 66, 80
20, 121046, Note_on_c, 5, 69, 66
20, 121064, Note_off_c, 5, 66, 64
20, 121130, Note_off_c, 5, 69, 64
20, 121166, Note_on_c, 5, 67, 61
20, 121215, Note_off_c, 5, 67, 64
20, 121292, Note_on_c, 5, 67, 72
20, 121407, Note_on_c, 5, 71, 72
20, 121416, Note_off_c, 5, 67, 64
20, 121514, Note_off_c, 5, 71, 64
20, 121532, Note_on_c, 5, 69, 55
20, 121575, Note_off_c, 5, 69, 64
20, 121654, Note_on_c, 5, 69, 85
20, 121800, Note_off_c, 5, 69, 64
20, 121881, Note_on_c, 5, 66, 57
20, 121937, Note_off_c, 5, 66, 64
20, 122010, Note_on_c, 5, 69, 85
20, 122129, Note_off_c, 5, 69, 64
20, 122248, Note_on_c, 5, 66, 60
20, 122316, Note_off_c, 5, 66, 64
20, 122387, Note_on_c, 5, 62, 76
20, 122494, Note_off_c, 5, 62, 64
20, 122610, Note_on_c, 5, 66, 57
20, 122673, Note_off_c, 5, 66, 64
20, 122750, Note_on_c, 5, 67, 82
20, 122880, Note_off_c, 5, 67, 64
20, 122983, Note_on_c, 5, 66, 60
20, 123044, Note_off_c, 5, 66, 64
20, 123125, Note_on_c, 5, 67, 70
20, 123231, Note_off_c, 5, 67, 64
20, 123330, Note_on_c, 5, 69, 64
20, 123384, Note_off_c, 5, 69, 64
20, 123479, Note_on_c, 5, 69, 100
20, 123580, Note_on_c, 5, 71, 59
20, 123603, Note_off_c, 5, 69, 64
20, 123643, Note_off_c, 5, 71, 64
20, 123702, Note_on_c, 5, 68, 64
20, 123753, Note_off_c, 5, 68, 64
20, 123836, Note_on_c, 5, 68, 98
20, 123949, Note_on_c, 5, 69, 64
20, 123954, Note_off_c, 5, 68, 64
20, 124055, Note_on_c, 5, 71, 68
20, 124066, Note_off_c, 5, 69, 64
20, 124116, Note_off_c, 5, 71, 64
20, 124196, Note_on_c, 5, 69, 82
20, 124318, Note_off_c, 5, 69, 64
20, 124413, Note_on_c, 5, 71, 66
20, 124469, Note_off_c, 5, 71, 64
20, 124553, Note_on_c, 5, 71, 95
20, 124667, Note_on_c, 5, 73, 58
20, 124676, Note_off_c, 5, 71, 64
20, 124752, Note_off_c, 5, 73, 64
20, 124772, Note_on_c, 5, 70, 64
20, 124826, Note_off_c, 5, 70, 64
20, 124908, Note_on_c, 5, 70, 91
20, 125024, Note_on_c, 5, 71, 72
20, 125049, Note_off_c, 5, 70, 64
20, 125142, Note_on_c, 5, 73, 64
20, 125148, Note_off_c, 5, 71, 64
20, 125214, Note_off_c, 5, 73, 64
20, 125272, Note_on_c, 5, 71, 85
20, 125420, Note_off_c, 5, 71, 64
20, 125515, Note_on_c, 5, 73, 58
20, 125573, Note_off_c, 5, 73, 64
20, 125645, Note_on_c, 5, 73, 95
20, 125749, Note_on_c, 5, 74, 68
20, 125780, Note_off_c, 5, 73, 64
20, 125835, Note_off_c, 5, 74, 64
20, 125871, Note_on_c, 5, 71, 63
20, 125922, Note_off_c, 5, 71, 64
20, 125999, Note_on_c, 5, 71, 87
20, 126105, Note_on_c, 5, 73, 60
20, 126134, Note_off_c, 5, 71, 64
20, 126217, Note_on_c, 5, 74, 68
20, 126235, Note_off_c, 5, 73, 64
20, 126282, Note_off_c, 5, 74, 64
20, 126352, Note_on_c, 5, 73, 87
20, 126505, Note_off_c, 5, 73, 64
20, 126581, Note_on_c, 5, 74, 78
20, 126636, Note_off_c, 5, 74, 64
20, 126708, Note_on_c, 5, 74, 95
20, 126816, Note_on_c, 5, 76, 66
20, 126843, Note_off_c, 5, 74, 64
20, 126892, Note_off_c, 5, 76, 64
20, 126918, Note_on_c, 5, 73, 66
20, 126977, Note_off_c, 5, 73, 64
20, 127063, Note_on_c, 5, 73, 85
20, 127248, Note_off_c, 5, 73, 64
20, 139325, Note_on_c, 5, 71, 58
20, 139448, Note_off_c, 5, 71, 64
20, 139661, Note_on_c, 5, 75, 59
20, 139816, Note_off_c, 5, 75, 64
20, 140241, Note_on_c, 5, 76, 68
20, 140300, Note_off_c, 5, 76, 64
20, 140375, Note_on_c, 5, 76, 95
20, 140487, Note_on_c, 5, 78, 57
20, 140514, Note_off_c, 5, 76, 64
20, 140570, Note_off_c, 5, 78, 64
20, 140606, Note_on_c, 5, 74, 53
20, 140648, Note_off_c, 5, 74, 64
20, 140738, Note_on_c, 5, 74, 80
20, 140842, Note_on_c, 5, 76, 60
20, 140847, Note_off_c, 5, 74, 64
20, 140929, Note_off_c, 5, 76, 64
20, 140941, Note_on_c, 5, 72, 64
20, 141001, Note_off_c, 5, 72, 64
20, 141094, Note_on_c, 5, 72, 64
20, 141202, Note_off_c, 5, 72, 64
20, 141335, Note_on_c, 5, 72, 56
20, 141387, Note_off_c, 5, 72, 64
20, 141468, Note_on_c, 5, 72, 60
20, 141607, Note_off_c, 5, 72, 64
20, 141704, Note_on_c, 5, 72, 64
20, 141767, Note_off_c, 5, 72, 64
20, 141837, Note_on_c, 5, 72, 70
20, 141957, Note_off_c, 5, 72, 64
20, 142048, Note_on_c, 5, 72, 63
20, 142121, Note_off_c, 5, 72, 64
20, 142199, Note_on_c, 5, 71, 66
20, 142539, Note_off_c, 5, 71, 64
20, 142913, Note_on_c, 5, 66, 55
20, 143362, Note_off_c, 5, 66, 64
20, 143384, Note_on_c, 5, 67, 78
20, 143457, Note_off_c, 5, 67, 64
20, 143508, Note_on_c, 5, 69, 70
20, 143567, Note_off_c, 5, 69, 64
20, 143636, Note_on_c, 5, 71, 91
20, 143740, Note_on_c, 5, 72, 63
20, 143753, Note_off_c, 5, 71, 64
20, 143810, Note_off_c, 5, 72, 64
20, 143839, Note_on_c, 5, 70, 58
20, 143903, Note_off_c, 5, 70, 64
20, 143969, Note_on_c, 5, 71, 82
20, 144078, Note_on_c, 5, 69, 66
20, 144102, Note_off_c, 5, 71, 64
20, 144163, Note_off_c, 5, 69, 64
20, 144188, Note_on_c, 5, 67, 57
20, 144251, Note_off_c, 5, 67, 64
20, 144334, Note_on_c, 5, 69, 68
20, 144705, Note_off_c, 5, 69, 64
20, 145070, Note_on_c, 5, 62, 66
20, 145502, Note_off_c, 5, 62, 64
20, 145520, Note_on_c, 5, 64, 66
20, 145596, Note_off_c, 5, 64, 64
20, 145635, Note_on_c, 5, 66, 74
20, 145731, Note_off_c, 5, 66, 64
20, 145765, Note_on_c, 5, 67, 82
20, 145868, Note_on_c, 5, 69, 64
20, 145889, Note_off_c, 5, 67, 64
20, 145954, Note_off_c, 5, 69, 64
20, 145985, Note_on_c, 5, 66, 59
20, 146037, Note_off_c, 5, 66, 64
20, 146121, Note_on_c, 5, 67, 89
20, 146224, Note_on_c, 5, 66, 62
20, 146251, Note_off_c, 5, 67, 64
20, 146333, Note_off_c, 5, 66, 64
20, 146334, Note_on_c, 5, 64, 62
20, 146402, Note_off_c, 5, 64, 64
20, 146469, Note_on_c, 5, 66, 66
20, 146589, Note_off_c, 5, 66, 64
20, 146708, Note_on_c, 5, 62, 52
20, 146755, Note_off_c, 5, 62, 64
20, 146853, Note_on_c, 5, 62, 60
20, 146987, Note_off_c, 5, 62, 64
20, 147088, Note_on_c, 5, 62, 59
20, 147146, Note_off_c, 5, 62, 64
20, 147218, Note_on_c, 5, 62, 60
20, 147351, Note_off_c, 5, 62, 64
20, 147441, Note_on_c, 5, 62, 58
20, 147495, Note_off_c, 5, 62, 64
20, 147569, Note_on_c, 5, 62, 64
20, 147692, Note_off_c, 5, 62, 64
20, 147959, Note_on_c, 5, 71, 58
20, 148085, Note_off_c, 5, 71, 64
20, 148307, Note_on_c, 5, 67, 57
20, 148440, Note_off_c, 5, 67, 64
20, 148667, Note_on_c, 5, 67, 60
20, 148811, Note_off_c, 5, 67, 64
20, 149030, Note_on_c, 5, 66, 60
20, 149180, Note_off_c, 5, 66, 64
20, 149381, Note_on_c, 5, 67, 61
20, 149518, Note_off_c, 5, 67, 64
20, 149739, Note_on_c, 5, 69, 78
20, 149840, Note_on_c, 5, 67, 54
20, 149864, Note_off_c, 5, 69, 64
20, 149936, Note_off_c, 5, 67, 64
20, 149955, Note_on_c, 5, 69, 60
20, 150012, Note_off_c, 5, 69, 64
20, 150092, Note_on_c, 5, 69, 78
20, 150209, Note_off_c, 5, 69, 64
20, 150303, Note_on_c, 5, 67, 57
20, 150365, Note_off_c, 5, 67, 64
20, 150443, Note_on_c, 5, 67, 74
20, 150564, Note_off_c, 5, 67, 64
20, 150668, Note_on_c, 5, 66, 57
20, 150753, Note_off_c, 5, 66, 64
20, 150812, Note_on_c, 5, 67, 72
20, 150955, Note_off_c, 5, 67, 64
20, 151176, Note_on_c, 5, 74, 63
20, 151313, Note_off_c, 5, 74, 64
20, 151527, Note_on_c, 5, 74, 66
20, 151673, Note_off_c, 5, 74, 64
20, 151892, Note_on_c, 5, 74, 78
20, 152025, Note_off_c, 5, 74, 64
20, 152499, Note_on_c, 5, 67, 68
20, 152578, Note_off_c, 5, 67, 64
20, 152623, Note_on_c, 5, 69, 80
20, 152742, Note_off_c, 5, 69, 64
20, 152837, Note_on_c, 5, 71, 68
20, 152909, Note_off_c, 5, 71, 64
20, 152978, Note_on_c, 5, 72, 82
20, 153080, Note_off_c, 5, 72, 64
20, 153194, Note_on_c, 5, 67, 66
20, 153251, Note_off_c, 5, 67, 64
20, 153314, Note_on_c, 5, 67, 87
20, 153363, Note_on_c, 5, 66, 70
20, 153372, Note_off_c, 5, 67, 64
20, 153401, Note_on_c, 5, 67, 66
20, 153402, Note_off_c, 5, 66, 64
20, 153440, Note_on_c, 5, 66, 60
20, 153464, Note_off_c, 5, 67, 64
20, 153514, Note_off_c, 5, 66, 64
20, 153543, Note_on_c, 5, 67, 82
20, 153618, Note_off_c, 5, 67, 64
20, 153683, Note_on_c, 5, 69, 85
20, 153831, Note_off_c, 5, 69, 64
20, 153926, Note_on_c, 5, 72, 76
20, 153982, Note_off_c, 5, 72, 64
20, 154067, Note_on_c, 5, 66, 80
20, 154171, Note_on_c, 5, 67, 66
20, 154185, Note_off_c, 5, 66, 64
20, 154268, Note_off_c, 5, 67, 64
20, 154292, Note_on_c, 5, 69, 61
20, 154337, Note_off_c, 5, 69, 64
20, 154423, Note_on_c, 5, 69, 87
20, 154527, Note_on_c, 5, 71, 66
20, 154544, Note_off_c, 5, 69, 64
20, 154608, Note_off_c, 5, 71, 64
20, 154647, Note_on_c, 5, 67, 57
20, 154691, Note_off_c, 5, 67, 64
20, 154776, Note_on_c, 5, 67, 89
20, 154869, Note_on_c, 5, 69, 57
20, 154884, Note_off_c, 5, 67, 64
20, 154959, Note_off_c, 5, 69, 64
20, 154979, Note_on_c, 5, 66, 55
20, 155042, Note_off_c, 5, 66, 64
20, 155123, Note_on_c, 5, 67, 66
20, 155256, Note_off_c, 5, 67, 64
20, 155354, Note_on_c, 5, 72, 66
20, 155402, Note_off_c, 5, 72, 64
20, 155485, Note_on_c, 5, 71, 82
20, 155590, Note_on_c, 5, 72, 66
20, 155600, Note_off_c, 5, 71, 64
20, 155681, Note_off_c, 5, 72, 64
20, 155699, Note_on_c, 5, 69, 64
20, 155764, Note_off_c, 5, 69, 64
20, 155820, Note_on_c, 5, 71, 93
20, 155874, Note_on_c, 5, 69, 76
20, 155877, Note_off_c, 5, 71, 64
20, 155910, Note_on_c, 5, 71, 70
20, 155921, Note_off_c, 5, 69, 64
20, 155967, Note_on_c, 5, 69, 74
20, 155984, Note_off_c, 5, 71, 64
20, 156034, Note_off_c, 5, 69, 64
20, 156059, Note_on_c, 5, 71, 68
20, 156113, Note_off_c, 5, 71, 64
20, 156201, Note_on_c, 5, 71, 66
20, 156370, Note_off_c, 5, 71, 64
20, 156569, Note_on_c, 5, 67, 66
20, 156729, Note_off_c, 5, 67, 64
20, 156925, Note_on_c, 5, 74, 66
20, 157069, Note_off_c, 5, 74, 64
20, 157290, Note_on_c, 5, 74, 80
20, 157445, Note_off_c, 5, 74, 64
20, 157647, Note_on_c, 5, 67, 70
20, 157800, Note_off_c, 5, 67, 64
20, 158019, Note_on_c, 5, 69, 72
20, 158180, Note_off_c, 5, 69, 64
20, 158385, Note_on_c, 5, 71, 76
20, 158545, Note_off_c, 5, 71, 64
20, 180224, Note_on_c, 5, 74, 80
20, 180289, Note_off_c, 5, 74, 64
20, 180356, Note_on_c, 5, 74, 85
20, 180455, Note_off_c, 5, 74, 64
20, 180577, Note_on_c, 5, 66, 59
20, 180658, Note_off_c, 5, 66, 64
20, 180708, Note_on_c, 5, 69, 87
20, 180806, Note_off_c, 5, 69, 64
20, 180937, Note_on_c, 5, 74, 68
20, 180996, Note_off_c, 5, 74, 64
20, 181077, Note_on_c, 5, 74, 89
20, 181180, Note_on_c, 5, 76, 56
20, 181221, Note_off_c, 5, 74, 64
20, 181296, Note_off_c, 5, 76, 64
20, 181302, Note_on_c, 5, 74, 70
20, 181380, Note_off_c, 5, 74, 64
20, 181428, Note_on_c, 5, 73, 78
20, 181517, Note_on_c, 5, 74, 61
20, 181547, Note_off_c, 5, 73, 64
20, 181590, Note_off_c, 5, 74, 64
20, 181646, Note_on_c, 5, 71, 70
20, 181695, Note_off_c, 5, 71, 64
20, 181785, Note_on_c, 5, 71, 89
20, 181891, Note_on_c, 5, 73, 58
20, 181893, Note_off_c, 5, 71, 64
20, 181961, Note_off_c, 5, 73, 64
20, 182005, Note_on_c, 5, 69, 53
20, 182071, Note_off_c, 5, 69, 64
20, 182143, Note_on_c, 5, 69, 74
20, 182269, Note_off_c, 5, 69, 64
20, 182370, Note_on_c, 5, 81, 64
20, 182445, Note_off_c, 5, 81, 64
20, 182499, Note_on_c, 5, 76, 66
20, 182606, Note_off_c, 5, 76, 64
20, 182723, Note_on_c, 5, 73, 55
20, 182804, Note_off_c, 5, 73, 64
20, 182854, Note_on_c, 5, 69, 66
20, 182948, Note_off_c, 5, 69, 64
20, 183070, Note_on_c, 5, 69, 63
20, 183128, Note_off_c, 5, 69, 64
20, 183218, Note_on_c, 5, 69, 85
20, 183318, Note_on_c, 5, 71, 76
20, 183349, Note_off_c, 5, 69, 64
20, 183430, Note_on_c, 5, 73, 63
20, 183434, Note_off_c, 5, 71, 64
20, 183518, Note_off_c, 5, 73, 64
20, 183552, Note_on_c, 5, 74, 85
20, 183671, Note_off_c, 5, 74, 64
20, 183770, Note_on_c, 5, 76, 64
20, 183849, Note_off_c, 5, 76, 64
20, 183909, Note_on_c, 5, 73, 57
20, 184015, Note_off_c, 5, 73, 64
20, 184155, Note_on_c, 5, 69, 61
20, 184209, Note_off_c, 5, 69, 64
20, 184294, Note_on_c, 5, 69, 82
20, 184397, Note_on_c, 5, 71, 68
20, 184411, Note_off_c, 5, 69, 64
20, 184512, Note_on_c, 5, 69, 62
20, 184517, Note_off_c, 5, 71, 64
20, 184586, Note_off_c, 5, 69, 64
20, 184645, Note_on_c, 5, 68, 82
20, 184751, Note_on_c, 5, 69, 62
20, 184764, Note_off_c, 5, 68, 64
20, 184829, Note_off_c, 5, 69, 64
20, 184867, Note_on_c, 5, 66, 57
20, 184913, Note_off_c, 5, 66, 64
20, 184994, Note_on_c, 5, 66, 85
20, 185100, Note_on_c, 5, 68, 61
20, 185110, Note_off_c, 5, 66, 64
20, 185185, Note_off_c, 5, 68, 64
20, 185220, Note_on_c, 5, 64, 55
20, 185273, Note_off_c, 5, 64, 64
20, 185372, Note_on_c, 5, 64, 70
20, 185592, Note_off_c, 5, 64, 64
20, 185960, Note_on_c, 5, 76, 60
20, 186049, Note_off_c, 5, 76, 64
20, 186096, Note_on_c, 5, 71, 82
20, 186197, Note_off_c, 5, 71, 64
20, 186328, Note_on_c, 5, 71, 63
20, 186393, Note_off_c, 5, 71, 64
20, 186459, Note_on_c, 5, 69, 74
20, 186681, Note_off_c, 5, 69, 64
20, 187023, Note_on_c, 5, 74, 66
20, 187098, Note_off_c, 5, 74, 64
20, 187167, Note_on_c, 5, 69, 70
20, 187277, Note_off_c, 5, 69, 64
20, 187403, Note_on_c, 5, 69, 66
20, 187467, Note_off_c, 5, 69, 64
20, 187527, Note_on_c, 5, 67, 68
20, 187671, Note_off_c, 5, 67, 64
20, 187898, Note_on_c, 5, 73, 62
20, 188025, Note_off_c, 5, 73, 64
20, 188263, Note_on_c, 5, 75, 64
20, 188389, Note_off_c, 5, 75, 64
20, 188619, Note_on_c, 5, 76, 64
20, 188767, Note_off_c, 5, 76, 64
20, 188861, Note_on_c, 5, 76, 82
20, 188929, Note_off_c, 5, 76, 64
20, 188999, Note_on_c, 5, 76, 95
20, 189104, Note_on_c, 5, 78, 62
20, 189136, Note_off_c, 5, 76, 64
20, 189194, Note_off_c, 5, 78, 64
20, 189213, Note_on_c, 5, 74, 59
20, 189262, Note_off_c, 5, 74, 64
20, 189349, Note_on_c, 5, 74, 85
20, 189458, Note_on_c, 5, 76, 60
20, 189494, Note_off_c, 5, 74, 64
20, 189547, Note_off_c, 5, 76, 64
20, 189559, Note_on_c, 5, 73, 49
20, 189626, Note_off_c, 5, 73, 64
20, 189696, Note_on_c, 5, 73, 66
20, 189798, Note_on_c, 5, 69, 63
20, 189842, Note_off_c, 5, 73, 64
20, 189919, Note_on_c, 5, 71, 66
20, 189943, Note_off_c, 5, 69, 64
20, 190014, Note_off_c, 5, 71, 64
20, 190040, Note_on_c, 5, 73, 68
20, 190145, Note_on_c, 5, 74, 74
20, 190164, Note_off_c, 5, 73, 64
20, 190257, Note_on_c, 5, 76, 76
20, 190261, Note_off_c, 5, 74, 64
20, 190322, Note_off_c, 5, 76, 64
20, 190398, Note_on_c, 5, 69, 80
20, 190493, Note_off_c, 5, 69, 64
20, 190630, Note_on_c, 5, 73, 59
20, 190693, Note_off_c, 5, 73, 64
20, 190754, Note_on_c, 5, 62, 66
20, 190860, Note_on_c, 5, 66, 64
20, 190887, Note_off_c, 5, 62, 64
20, 190988, Note_on_c, 5, 69, 80
20, 190999, Note_off_c, 5, 66, 64
20, 191071, Note_off_c, 5, 69, 64
20, 191118, Note_on_c, 5, 74, 78
20, 191235, Note_on_c, 5, 76, 62
20, 191271, Note_off_c, 5, 74, 64
20, 191318, Note_off_c, 5, 76, 64
20, 191346, Note_on_c, 5, 72, 64
20, 191408, Note_off_c, 5, 72, 64
20, 191474, Note_on_c, 5, 72, 82
20, 191575, Note_on_c, 5, 74, 66
20, 191604, Note_off_c, 5, 72, 64
20, 191687, Note_off_c, 5, 74, 64
20, 191706, Note_on_c, 5, 71, 57
20, 191766, Note_off_c, 5, 71, 64
20, 191841, Note_on_c, 5, 71, 76
20, 191948, Note_on_c, 5, 67, 55
20, 191960, Note_off_c, 5, 71, 64
20, 192063, Note_on_c, 5, 71, 57
20, 192065, Note_off_c, 5, 67, 64
20, 192110, Note_off_c, 5, 71, 64
20, 192212, Note_on_c, 5, 76, 80
20, 192313, Note_on_c, 5, 78, 61
20, 192338, Note_off_c, 5, 76, 64
20, 192421, Note_on_c, 5, 74, 64
20, 192428, Note_off_c, 5, 78, 64
20, 192468, Note_off_c, 5, 74, 64
20, 192554, Note_on_c, 5, 74, 85
20, 192657, Note_on_c, 5, 76, 60
20, 192671, Note_off_c, 5, 74, 64
20, 192774, Note_off_c, 5, 76, 64
20, 192779, Note_on_c, 5, 73, 52
20, 192837, Note_off_c, 5, 73, 64
20, 192905, Note_on_c, 5, 73, 76
20, 193017, Note_on_c, 5, 74, 80
20, 193026, Note_off_c, 5, 73, 64
20, 193134, Note_on_c, 5, 76, 76
20, 193141, Note_off_c, 5, 74, 64
20, 193229, Note_off_c, 5, 76, 64
20, 193280, Note_on_c, 5, 78, 91
20, 193395, Note_on_c, 5, 79, 68
20, 193422, Note_off_c, 5, 78, 64
20, 193481, Note_off_c, 5, 79, 64
20, 193508, Note_on_c, 5, 76, 64
20, 193560, Note_off_c, 5, 76, 64
20, 193654, Note_on_c, 5, 76, 87
20, 193755, Note_on_c, 5, 78, 60
20, 193758, Note_off_c, 5, 76, 64
20, 193836, Note_off_c, 5, 78, 64
20, 193879, Note_on_c, 5, 74, 59
20, 193933, Note_off_c, 5, 74, 64
20, 194045, Note_on_c, 5, 74, 78
20, 194255, Note_off_c, 5, 74, 64
20, 194612, Note_on_c, 5, 73, 49
20, 194671, Note_off_c, 5, 73, 64
20, 194745, Note_on_c, 5, 73, 62
20, 194869, Note_off_c, 5, 73, 64
20, 194981, Note_on_c, 5, 75, 56
20, 195031, Note_off_c, 5, 75, 64
20, 195099, Note_on_c, 5, 76, 70
20, 195206, Note_off_c, 5, 76, 64
20, 195347, Note_on_c, 5, 76, 53
20, 195404, Note_off_c, 5, 76, 64
20, 195477, Note_on_c, 5, 76, 66
20, 195587, Note_off_c, 5, 76, 64
20, 195706, Note_on_c, 5, 76, 66
20, 195769, Note_off_c, 5, 76, 64
20, 195837, Note_on_c, 5, 76, 72
20, 195958, Note_off_c, 5, 76, 64
20, 196073, Note_on_c, 5, 76, 66
20, 196127, Note_off_c, 5, 76, 64
20, 196210, Note_on_c, 5, 76, 87
20, 196320, Note_on_c, 5, 73, 56
20, 196332, Note_off_c, 5, 76, 64
20, 196385, Note_off_c, 5, 73, 64
20, 196421, Note_on_c, 5, 74, 64
20, 196476, Note_off_c, 5, 74, 64
20, 196563, Note_on_c, 5, 76, 85
20, 196675, Note_on_c, 5, 73, 55
20, 196683, Note_off_c, 5, 76, 64
20, 196741, Note_off_c, 5, 73, 64
20, 196788, Note_on_c, 5, 74, 58
20, 196840, Note_off_c, 5, 74, 64
20, 196917, Note_on_c, 5, 76, 85
20, 197025, Note_on_c, 5, 74, 59
20, 197045, Note_off_c, 5, 76, 64
20, 197121, Note_off_c, 5, 74, 64
20, 197142, Note_on_c, 5, 73, 53
20, 197202, Note_off_c, 5, 73, 64
20, 197267, Note_on_c, 5, 74, 85
20, 197351, Note_off_c, 5, 74, 64
20, 197474, Note_on_c, 5, 73, 55
20, 197544, Note_off_c, 5, 73, 64
20, 197600, Note_on_c, 5, 74, 78
20, 197717, Note_off_c, 5, 74, 64
20, 197841, Note_on_c, 5, 71, 66
20, 197916, Note_off_c, 5, 71, 64
20, 197978, Note_on_c, 5, 69, 66
20, 198082, Note_off_c, 5, 69, 64
20, 198206, Note_on_c, 5, 69, 60
20, 198276, Note_off_c, 5, 69, 64
20, 198345, Note_on_c, 5, 69, 74
20, 198482, Note_off_c, 5, 69, 64
20, 198712, Note_on_c, 5, 74, 74
20, 198831, Note_off_c, 5, 74, 64
20, 199068, Note_on_c, 5, 76, 70
20, 199193, Note_off_c, 5, 76, 64
20, 199430, Note_on_c, 5, 81, 85
20, 199538, Note_off_c, 5, 81, 64
20, 199783, Note_on_c, 5, 74, 78
20, 199907, Note_off_c, 5, 74, 64
20, 200134, Note_on_c, 5, 76, 80
20, 200276, Note_off_c, 5, 76, 64
20, 221047, Note_on_c, 5, 76, 78
20, 221109, Note_off_c, 5, 76, 64
20, 221172, Note_on_c, 5, 76, 85
20, 221280, Note_on_c, 5, 78, 63
20, 221294, Note_off_c, 5, 76, 64
20, 221358, Note_off_c, 5, 78, 64
20, 221386, Note_on_c, 5, 74, 66
20, 221436, Note_off_c, 5, 74, 64
20, 221517, Note_on_c, 5, 74, 93
20, 221615, Note_on_c, 5, 76, 63
20, 221620, Note_off_c, 5, 74, 64
20, 221683, Note_off_c, 5, 76, 64
20, 221730, Note_on_c, 5, 73, 53
20, 221786, Note_off_c, 5, 73, 64
20, 221861, Note_on_c, 5, 73, 85
20, 221964, Note_off_c, 5, 73, 64
20, 221967, Note_on_c, 5, 74, 63
20, 222030, Note_off_c, 5, 74, 64
20, 222095, Note_on_c, 5, 76, 64
20, 222137, Note_off_c, 5, 76, 64
20, 222225, Note_on_c, 5, 78, 100
20, 222327, Note_on_c, 5, 79, 66
20, 222336, Note_off_c, 5, 78, 64
20, 222396, Note_off_c, 5, 79, 64
20, 222444, Note_on_c, 5, 76, 63
20, 222504, Note_off_c, 5, 76, 64
20, 222570, Note_on_c, 5, 76, 85
20, 222674, Note_on_c, 5, 78, 62
20, 222693, Note_off_c, 5, 76, 64
20, 222749, Note_off_c, 5, 78, 64
20, 222795, Note_on_c, 5, 74, 66
20, 222851, Note_off_c, 5, 74, 64
20, 222923, Note_on_c, 5, 74, 80
20, 223051, Note_off_c, 5, 74, 64
20, 223170, Note_on_c, 5, 74, 70
20, 223236, Note_off_c, 5, 74, 64
20, 223307, Note_on_c, 5, 74, 78
20, 223451, Note_off_c, 5, 74, 64
20, 223551, Note_on_c, 5, 74, 70
20, 223609, Note_off_c, 5, 74, 64
20, 223670, Note_on_c, 5, 74, 87
20, 223805, Note_off_c, 5, 74, 64
20, 223898, Note_on_c, 5, 74, 72
20, 223956, Note_off_c, 5, 74, 64
20, 224021, Note_on_c, 5, 74, 87
20, 224114, Note_off_c, 5, 74, 64
20, 224122, Note_on_c, 5, 71, 82
20, 224199, Note_off_c, 5, 71, 64
20, 224237, Note_on_c, 5, 73, 63
20, 224302, Note_off_c, 5, 73, 64
20, 224369, Note_on_c, 5, 74, 87
20, 224475, Note_on_c, 5, 83, 72
20, 224480, Note_off_c, 5, 74, 64
20, 224527, Note_off_c, 5, 83, 64
20, 224594, Note_on_c, 5, 73, 85
20, 224653, Note_off_c, 5, 73, 64
20, 224723, Note_on_c, 5, 74, 91
20, 224837, Note_on_c, 5, 73, 66
20, 224844, Note_off_c, 5, 74, 64
20, 224910, Note_off_c, 5, 73, 64
20, 224946, Note_on_c, 5, 71, 64
20, 224999, Note_off_c, 5, 71, 64
20, 225081, Note_on_c, 5, 73, 98
20, 225182, Note_on_c, 5, 76, 76
20, 225209, Note_off_c, 5, 73, 64
20, 225247, Note_off_c, 5, 76, 64
20, 225305, Note_on_c, 5, 74, 70
20, 225373, Note_off_c, 5, 74, 64
20, 225447, Note_on_c, 5, 76, 91
20, 225555, Note_off_c, 5, 76, 64
20, 225693, Note_on_c, 5, 74, 63
20, 225758, Note_off_c, 5, 74, 64
20, 225825, Note_on_c, 5, 76, 80
20, 225924, Note_off_c, 5, 76, 64
20, 226062, Note_on_c, 5, 73, 51
20, 226111, Note_off_c, 5, 73, 64
20, 226183, Note_on_c, 5, 74, 82
20, 226286, Note_on_c, 5, 73, 80
20, 226293, Note_off_c, 5, 74, 64
20, 226363, Note_off_c, 5, 73, 64
20, 226406, Note_on_c, 5, 74, 82
20, 226467, Note_off_c, 5, 74, 64
20, 226545, Note_on_c, 5, 74, 98
20, 226658, Note_off_c, 5, 74, 64
20, 226772, Note_on_c, 5, 66, 57
20, 226865, Note_off_c, 5, 66, 64
20, 226907, Note_on_c, 5, 69, 80
20, 227006, Note_off_c, 5, 69, 64
20, 227142, Note_on_c, 5, 74, 64
20, 227198, Note_off_c, 5, 74, 64
20, 227274, Note_on_c, 5, 74, 98
20, 227387, Note_on_c, 5, 76, 66
20, 227396, Note_off_c, 5, 74, 64
20, 227448, Note_off_c, 5, 76, 64
20, 227513, Note_on_c, 5, 74, 72
20, 227578, Note_off_c, 5, 74, 64
20, 227641, Note_on_c, 5, 73, 95
20, 227744, Note_on_c, 5, 74, 64
20, 227769, Note_off_c, 5, 73, 64
20, 227814, Note_off_c, 5, 74, 64
20, 227861, Note_on_c, 5, 71, 70
20, 227911, Note_off_c, 5, 71, 64
20, 227988, Note_on_c, 5, 71, 87
20, 228093, Note_off_c, 5, 71, 64
20, 228098, Note_on_c, 5, 73, 58
20, 228168, Note_off_c, 5, 73, 64
20, 228206, Note_on_c, 5, 69, 61
20, 228273, Note_off_c, 5, 69, 64
20, 228341, Note_on_c, 5, 69, 80
20, 228474, Note_off_c, 5, 69, 64
20, 228584, Note_on_c, 5, 81, 78
20, 228658, Note_off_c, 5, 81, 64
20, 228708, Note_on_c, 5, 76, 74
20, 228822, Note_off_c, 5, 76, 64
20, 228932, Note_on_c, 5, 73, 57
20, 229011, Note_off_c, 5, 73, 64
20, 229067, Note_on_c, 5, 69, 62
20, 229171, Note_off_c, 5, 69, 64
20, 229286, Note_on_c, 5, 69, 66
20, 229351, Note_off_c, 5, 69, 64
20, 229418, Note_on_c, 5, 69, 87
20, 229524, Note_on_c, 5, 71, 74
20, 229536, Note_off_c, 5, 69, 64
20, 229601, Note_off_c, 5, 71, 64
20, 229644, Note_on_c, 5, 73, 63
20, 229715, Note_off_c, 5, 73, 64
20, 229769, Note_on_c, 5, 74, 74
20, 229866, Note_off_c, 5, 74, 64
20, 229979, Note_on_c, 5, 76, 80
20, 230039, Note_off_c, 5, 76, 64
20, 230112, Note_on_c, 5, 74, 70
20, 230159, Note_on_c, 5, 73, 89
20, 230177, Note_off_c, 5, 74, 64
20, 230210, Note_off_c, 5, 73, 64
20, 230215, Note_on_c, 5, 74, 64
20, 230258, Note_on_c, 5, 73, 61
20, 230303, Note_off_c, 5, 74, 64
20, 230343, Note_on_c, 5, 69, 80
20, 230350, Note_off_c, 5, 73, 64
20, 230400, Note_off_c, 5, 69, 64
20, 230480, Note_on_c, 5, 69, 82
20, 230588, Note_on_c, 5, 71, 58
20, 230595, Note_off_c, 5, 69, 64
20, 230670, Note_off_c, 5, 71, 64
20, 230712, Note_on_c, 5, 69, 58
20, 230755, Note_off_c, 5, 69, 64
20, 230845, Note_on_c, 5, 68, 89
20, 230945, Note_on_c, 5, 69, 59
20, 230951, Note_off_c, 5, 68, 64
20, 231020, Note_off_c, 5, 69, 64
20, 231065, Note_on_c, 5, 66, 58
20, 231119, Note_off_c, 5, 66, 64
20, 231196, Note_on_c, 5, 66, 82
20, 231295, Note_off_c, 5, 66, 64
20, 231306, Note_on_c, 5, 68, 57
20, 231374, Note_off_c, 5, 68, 64
20, 231426, Note_on_c, 5, 64, 53
20, 231477, Note_off_c, 5, 64, 64
20, 231569, Note_on_c, 5, 64, 80
20, 231745, Note_off_c, 5, 64, 64
20, 232148, Note_on_c, 5, 76, 70
20, 232229, Note_off_c, 5, 76, 64
20, 232276, Note_on_c, 5, 71, 80
20, 232395, Note_off_c, 5, 71, 64
20, 232497, Note_on_c, 5, 71, 64
20, 232582, Note_off_c, 5, 71, 64
20, 232632, Note_on_c, 5, 69, 70
20, 232757, Note_off_c, 5, 69, 64
20, 233225, Note_on_c, 5, 74, 66
20, 233302, Note_off_c, 5, 74, 64
20, 233358, Note_on_c, 5, 69, 76
20, 233471, Note_off_c, 5, 69, 64
20, 233588, Note_on_c, 5, 69, 70
20, 233660, Note_off_c, 5, 69, 64
20, 233734, Note_on_c, 5, 67, 74
20, 233860, Note_off_c, 5, 67, 64
20, 234114, Note_on_c, 5, 73, 72
20, 234258, Note_off_c, 5, 73, 64
20, 234461, Note_on_c, 5, 75, 72
20, 234591, Note_off_c, 5, 75, 64
20, 234814, Note_on_c, 5, 76, 78
20, 234938, Note_off_c, 5, 76, 64
20, 235073, Note_on_c, 5, 76, 61
20, 235111, Note_off_c, 5, 76, 64
20, 235188, Note_on_c, 5, 76, 87
20, 235293, Note_on_c, 5, 78, 57
20, 235318, Note_off_c, 5, 76, 64
20, 235383, Note_off_c, 5, 78, 64
20, 235397, Note_on_c, 5, 74, 55
20, 235446, Note_off_c, 5, 74, 64
20, 235541, Note_on_c, 5, 74, 85
20, 235642, Note_on_c, 5, 76, 63
20, 235664, Note_off_c, 5, 74, 64
20, 235692, Note_off_c, 5, 76, 64
20, 235770, Note_on_c, 5, 73, 63
20, 235827, Note_off_c, 5, 73, 64
20, 235910, Note_on_c, 5, 73, 87
20, 236015, Note_off_c, 5, 73, 64
20, 236015, Note_on_c, 5, 69, 64
20, 236083, Note_off_c, 5, 69, 64
20, 236133, Note_on_c, 5, 71, 66
20, 236186, Note_off_c, 5, 71, 64
20, 236261, Note_on_c, 5, 73, 89
20, 236373, Note_on_c, 5, 74, 68
20, 236382, Note_off_c, 5, 73, 64
20, 236451, Note_off_c, 5, 74, 64
20, 236495, Note_on_c, 5, 76, 78
20, 236553, Note_off_c, 5, 76, 64
20, 236625, Note_on_c, 5, 69, 87
20, 236722, Note_off_c, 5, 69, 64
20, 236837, Note_on_c, 5, 73, 70
20, 236891, Note_off_c, 5, 73, 64
20, 236974, Note_on_c, 5, 62, 85
20, 237086, Note_on_c, 5, 66, 70
20, 237111, Note_off_c, 5, 62, 64
20, 237169, Note_off_c, 5, 66, 64
20, 237215, Note_on_c, 5, 69, 74
20, 237264, Note_off_c, 5, 69, 64
20, 237352, Note_on_c, 5, 74, 100
20, 237442, Note_off_c, 5, 74, 64
20, 237450, Note_on_c, 5, 76, 61
20, 237505, Note_off_c, 5, 76, 64
20, 237568, Note_on_c, 5, 72, 64
20, 237622, Note_off_c, 5, 72, 64
20, 237703, Note_on_c, 5, 72, 89
20, 237797, Note_off_c, 5, 72, 64
20, 237802, Note_on_c, 5, 74, 68
20, 237870, Note_off_c, 5, 74, 64
20, 237932, Note_on_c, 5, 71, 68
20, 237993, Note_off_c, 5, 71, 64
20, 238061, Note_on_c, 5, 71, 85
20, 238158, Note_off_c, 5, 71, 64
20, 238171, Note_on_c, 5, 67, 59
20, 238263, Note_off_c, 5, 67, 64
20, 238281, Note_on_c, 5, 71, 66
20, 238328, Note_off_c, 5, 71, 64
20, 238431, Note_on_c, 5, 76, 85
20, 238533, Note_on_c, 5, 78, 57
20, 238542, Note_off_c, 5, 76, 64
20, 238608, Note_off_c, 5, 78, 64
20, 238668, Note_on_c, 5, 74, 56
20, 238709, Note_off_c, 5, 74, 64
20, 238796, Note_on_c, 5, 74, 93
20, 238892, Note_on_c, 5, 76, 60
20, 238902, Note_off_c, 5, 74, 64
20, 238967, Note_off_c, 5, 76, 64
20, 239021, Note_on_c, 5, 73, 61
20, 239080, Note_off_c, 5, 73, 64
20, 239147, Note_on_c, 5, 73, 80
20, 239246, Note_on_c, 5, 74, 60
20, 239251, Note_off_c, 5, 73, 64
20, 239309, Note_off_c, 5, 74, 64
20, 239377, Note_on_c, 5, 76, 68
20, 239429, Note_off_c, 5, 76, 64
20, 239505, Note_on_c, 5, 78, 102
20, 239616, Note_on_c, 5, 79, 62
20, 239618, Note_off_c, 5, 78, 64
20, 239674, Note_off_c, 5, 79, 64
20, 239741, Note_on_c, 5, 76, 68
20, 239789, Note_off_c, 5, 76, 64
20, 239861, Note_on_c, 5, 76, 85
20, 239960, Note_on_c, 5, 78, 59
20, 239971, Note_off_c, 5, 76, 64
20, 240029, Note_off_c, 5, 78, 64
20, 240083, Note_on_c, 5, 74, 66
20, 240137, Note_off_c, 5, 74, 64
20, 240212, Note_on_c, 5, 74, 87
20, 240367, Note_off_c, 5, 74, 64
20, 240808, Note_on_c, 5, 73, 63
20, 240873, Note_off_c, 5, 73, 64
20, 240920, Note_on_c, 5, 73, 76
20, 241022, Note_off_c, 5, 73, 64
20, 241170, Note_on_c, 5, 75, 66
20, 241235, Note_off_c, 5, 75, 64
20, 241298, Note_on_c, 5, 76, 78
20, 241404, Note_off_c, 5, 76, 64
20, 241550, Note_on_c, 5, 76, 57
20, 241604, Note_off_c, 5, 76, 64
20, 241676, Note_on_c, 5, 76, 64
20, 241784, Note_off_c, 5, 76, 64
20, 241906, Note_on_c, 5, 76, 62
20, 241974, Note_off_c, 5, 76, 64
20, 242032, Note_on_c, 5, 76, 68
20, 242151, Note_off_c, 5, 76, 64
20, 242253, Note_on_c, 5, 76, 63
20, 242311, Note_off_c, 5, 76, 64
20, 242385, Note_on_c, 5, 76, 74
20, 242480, Note_off_c, 5, 76, 64
20, 242493, Note_on_c, 5, 73, 51
20, 242568, Note_off_c, 5, 73, 64
20, 242608, Note_on_c, 5, 74, 64
20, 242666, Note_off_c, 5, 74, 64
20, 242754, Note_on_c, 5, 76, 85
20, 242860, Note_on_c, 5, 73, 56
20, 242862, Note_off_c, 5, 76, 64
20, 242907, Note_off_c, 5, 73, 64
20, 242964, Note_on_c, 5, 74, 66
20, 243026, Note_off_c, 5, 74, 64
20, 243105, Note_on_c, 5, 76, 82
20, 243206, Note_on_c, 5, 74, 62
20, 243220, Note_off_c, 5, 76, 64
20, 243288, Note_off_c, 5, 74, 64
20, 243326, Note_on_c, 5, 73, 60
20, 243382, Note_off_c, 5, 73, 64
20, 243452, Note_on_c, 5, 74, 87
20, 243557, Note_off_c, 5, 74, 64
20, 243690, Note_on_c, 5, 73, 57
20, 243760, Note_off_c, 5, 73, 64
20, 243819, Note_on_c, 5, 74, 76
20, 243933, Note_off_c, 5, 74, 64
20, 244046, Note_on_c, 5, 71, 60
20, 244116, Note_off_c, 5, 71, 64
20, 244178, Note_on_c, 5, 69, 72
20, 244282, Note_off_c, 5, 69, 64
20, 244413, Note_on_c, 5, 69, 61
20, 244476, Note_off_c, 5, 69, 64
20, 244547, Note_on_c, 5, 69, 72
20, 244678, Note_off_c, 5, 69, 64
20, 244781, Note_on_c, 5, 69, 66
20, 244838, Note_off_c, 5, 69, 64
20, 244908, Note_on_c, 5, 69, 82
20, 245004, Note_on_c, 5, 71, 70
20, 245015, Note_off_c, 5, 69, 64
20, 245074, Note_off_c, 5, 71, 64
20, 245146, Note_on_c, 5, 67, 59
20, 245186, Note_off_c, 5, 67, 64
20, 245267, Note_on_c, 5, 67, 89
20, 245371, Note_on_c, 5, 69, 68
20, 245382, Note_off_c, 5, 67, 64
20, 245443, Note_off_c, 5, 69, 64
20, 245497, Note_on_c, 5, 66, 63
20, 245547, Note_off_c, 5, 66, 64
20, 245625, Note_on_c, 5, 66, 80
20, 245718, Note_on_c, 5, 67, 66
20, 245738, Note_off_c, 5, 66, 64
20, 245810, Note_off_c, 5, 67, 64
20, 245850, Note_on_c, 5, 69, 72
20, 245906, Note_off_c, 5, 69, 64
20, 245992, Note_on_c, 5, 69, 98
20, 246093, Note_on_c, 5, 71, 64
20, 246102, Note_off_c, 5, 69, 64
20, 246167, Note_off_c, 5, 71, 64
20, 246215, Note_on_c, 5, 67, 62
20, 246267, Note_off_c, 5, 67, 64
20, 246343, Note_on_c, 5, 67, 87
20, 246442, Note_on_c, 5, 69, 59
20, 246453, Note_off_c, 5, 67, 64
20, 246523, Note_off_c, 5, 69, 64
20, 246566, Note_on_c, 5, 66, 66
20, 246629, Note_off_c, 5, 66, 64
20, 246696, Note_on_c, 5, 66, 82
20, 246816, Note_off_c, 5, 66, 64
20, 247056, Note_on_c, 5, 67, 87
20, 247186, Note_off_c, 5, 67, 64
20, 247414, Note_on_c, 5, 69, 82
20, 247545, Note_off_c, 5, 69, 64
20, 267594, Note_on_c, 5, 69, 68
20, 267727, Note_off_c, 5, 69, 64
20, 267945, Note_on_c, 5, 76, 80
20, 268105, Note_off_c, 5, 76, 64
20, 268314, Note_on_c, 5, 76, 76
20, 268465, Note_off_c, 5, 76, 64
20, 268670, Note_on_c, 5, 69, 70
20, 268807, Note_off_c, 5, 69, 64
20, 269028, Note_on_c, 5, 71, 70
20, 269153, Note_off_c, 5, 71, 64
20, 269369, Note_on_c, 5, 73, 91
20, 269473, Note_on_c, 5, 71, 68
20, 269500, Note_off_c, 5, 73, 64
20, 269570, Note_off_c, 5, 71, 64
20, 269585, Note_on_c, 5, 69, 56
20, 269657, Note_off_c, 5, 69, 64
20, 269720, Note_on_c, 5, 71, 80
20, 269838, Note_off_c, 5, 71, 64
20, 269954, Note_on_c, 5, 69, 60
20, 270029, Note_off_c, 5, 69, 64
20, 270083, Note_on_c, 5, 71, 76
20, 270206, Note_off_c, 5, 71, 64
20, 270321, Note_on_c, 5, 68, 64
20, 270378, Note_off_c, 5, 68, 64
20, 270458, Note_on_c, 5, 69, 87
20, 270564, Note_on_c, 5, 68, 64
20, 270582, Note_off_c, 5, 69, 64
20, 270657, Note_off_c, 5, 68, 64
20, 270686, Note_on_c, 5, 69, 66
20, 270751, Note_off_c, 5, 69, 64
20, 270810, Note_on_c, 5, 69, 87
20, 270933, Note_off_c, 5, 69, 64
20, 271043, Note_on_c, 5, 73, 62
20, 271115, Note_off_c, 5, 73, 64
20, 271161, Note_on_c, 5, 76, 85
20, 271269, Note_off_c, 5, 76, 64
20, 271404, Note_on_c, 5, 69, 72
20, 271457, Note_off_c, 5, 69, 64
20, 271541, Note_on_c, 5, 69, 87
20, 271651, Note_on_c, 5, 71, 70
20, 271678, Note_off_c, 5, 69, 64
20, 271754, Note_off_c, 5, 71, 64
20, 271764, Note_on_c, 5, 69, 63
20, 271818, Note_off_c, 5, 69, 64
20, 271894, Note_on_c, 5, 68, 87
20, 272004, Note_on_c, 5, 69, 63
20, 272027, Note_off_c, 5, 68, 64
20, 272083, Note_off_c, 5, 69, 64
20, 272124, Note_on_c, 5, 66, 57
20, 272171, Note_off_c, 5, 66, 64
20, 272265, Note_on_c, 5, 66, 89
20, 272366, Note_on_c, 5, 68, 57
20, 272382, Note_off_c, 5, 66, 64
20, 272465, Note_off_c, 5, 68, 64
20, 272477, Note_on_c, 5, 64, 66
20, 272542, Note_off_c, 5, 64, 64
20, 272618, Note_on_c, 5, 64, 68
20, 272738, Note_off_c, 5, 64, 64
20, 272853, Note_on_c, 5, 76, 66
20, 272915, Note_off_c, 5, 76, 64
20, 272974, Note_on_c, 5, 71, 82
20, 273096, Note_off_c, 5, 71, 64
20, 273203, Note_on_c, 5, 68, 59
20, 273282, Note_off_c, 5, 68, 64
20, 273329, Note_on_c, 5, 64, 70
20, 273450, Note_off_c, 5, 64, 64
20, 273563, Note_on_c, 5, 64, 59
20, 273624, Note_off_c, 5, 64, 64
20, 273694, Note_on_c, 5, 64, 82
20, 273815, Note_on_c, 5, 69, 72
20, 273820, Note_off_c, 5, 64, 64
20, 273922, Note_off_c, 5, 69, 64
20, 273928, Note_on_c, 5, 71, 72
20, 273984, Note_off_c, 5, 71, 64
20, 274056, Note_on_c, 5, 73, 98
20, 274164, Note_on_c, 5, 74, 70
20, 274195, Note_off_c, 5, 73, 64
20, 274247, Note_off_c, 5, 74, 64
20, 274279, Note_on_c, 5, 71, 58
20, 274324, Note_off_c, 5, 71, 64
20, 274407, Note_on_c, 5, 71, 89
20, 274517, Note_on_c, 5, 73, 58
20, 274535, Note_off_c, 5, 71, 64
20, 274598, Note_off_c, 5, 73, 64
20, 274630, Note_on_c, 5, 69, 52
20, 274688, Note_off_c, 5, 69, 64
20, 274776, Note_on_c, 5, 69, 57
20, 274891, Note_off_c, 5, 69, 64
20, 275012, Note_on_c, 5, 69, 59
20, 275073, Note_off_c, 5, 69, 64
20, 275148, Note_on_c, 5, 69, 68
20, 275276, Note_off_c, 5, 69, 64
20, 275375, Note_on_c, 5, 69, 60
20, 275438, Note_off_c, 5, 69, 64
20, 275512, Note_on_c, 5, 69, 66
20, 275642, Note_off_c, 5, 69, 64
20, 275737, Note_on_c, 5, 69, 53
20, 275777, Note_off_c, 5, 69, 64
20, 275852, Note_on_c, 5, 69, 72
20, 275969, Note_on_c, 5, 66, 60
20, 275987, Note_off_c, 5, 69, 64
20, 276043, Note_off_c, 5, 66, 64
20, 276093, Note_on_c, 5, 68, 87
20, 276138, Note_off_c, 5, 68, 64
20, 276220, Note_on_c, 5, 69, 89
20, 276331, Note_on_c, 5, 78, 72
20, 276335, Note_off_c, 5, 69, 64
20, 276385, Note_off_c, 5, 78, 64
20, 276452, Note_on_c, 5, 68, 78
20, 276506, Note_off_c, 5, 68, 64
20, 276585, Note_on_c, 5, 69, 82
20, 276696, Note_on_c, 5, 68, 55
20, 276716, Note_off_c, 5, 69, 64
20, 276803, Note_off_c, 5, 68, 64
20, 276815, Note_on_c, 5, 66, 66
20, 276878, Note_off_c, 5, 66, 64
20, 276950, Note_on_c, 5, 68, 87
20, 277046, Note_on_c, 5, 64, 62
20, 277056, Note_off_c, 5, 68, 64
20, 277132, Note_off_c, 5, 64, 64
20, 277172, Note_on_c, 5, 66, 59
20, 277244, Note_off_c, 5, 66, 64
20, 277303, Note_on_c, 5, 67, 91
20, 277400, Note_off_c, 5, 67, 64
20, 277402, Note_on_c, 5, 76, 58
20, 277463, Note_off_c, 5, 76, 64
20, 277521, Note_on_c, 5, 66, 66
20, 277575, Note_off_c, 5, 66, 64
20, 277650, Note_on_c, 5, 67, 91
20, 277755, Note_on_c, 5, 66, 64
20, 277769, Note_off_c, 5, 67, 64
20, 277861, Note_off_c, 5, 66, 64
20, 277870, Note_on_c, 5, 64, 57
20, 277911, Note_off_c, 5, 64, 64
20, 278016, Note_on_c, 5, 66, 93
20, 278158, Note_off_c, 5, 66, 64
20, 278241, Note_on_c, 5, 78, 58
20, 278302, Note_off_c, 5, 78, 64
20, 278374, Note_on_c, 5, 78, 82
20, 278468, Note_on_c, 5, 79, 66
20, 278496, Note_off_c, 5, 78, 64
20, 278550, Note_off_c, 5, 79, 64
20, 278599, Note_on_c, 5, 76, 57
20, 278640, Note_off_c, 5, 76, 64
20, 278729, Note_on_c, 5, 76, 91
20, 278833, Note_on_c, 5, 78, 60
20, 278846, Note_off_c, 5, 76, 64
20, 278907, Note_off_c, 5, 78, 64
20, 278964, Note_on_c, 5, 75, 76
20, 279009, Note_off_c, 5, 75, 64
20, 279092, Note_on_c, 5, 75, 89
20, 279198, Note_on_c, 5, 71, 66
20, 279220, Note_off_c, 5, 75, 64
20, 279314, Note_on_c, 5, 73, 57
20, 279321, Note_off_c, 5, 71, 64
20, 279431, Note_off_c, 5, 73, 64
20, 279438, Note_on_c, 5, 75, 61
20, 279533, Note_off_c, 5, 75, 64
20, 279548, Note_on_c, 5, 76, 74
20, 279627, Note_off_c, 5, 76, 64
20, 279665, Note_on_c, 5, 78, 63
20, 279719, Note_off_c, 5, 78, 64
20, 279801, Note_on_c, 5, 71, 80
20, 279915, Note_off_c, 5, 71, 64
20, 280034, Note_on_c, 5, 75, 64
20, 280077, Note_off_c, 5, 75, 64
20, 280154, Note_on_c, 5, 64, 68
20, 280264, Note_on_c, 5, 68, 66
20, 280286, Note_off_c, 5, 64, 64
20, 280367, Note_off_c, 5, 68, 64
20, 280379, Note_on_c, 5, 71, 72
20, 280425, Note_off_c, 5, 71, 64
20, 280518, Note_on_c, 5, 76, 85
20, 280620, Note_on_c, 5, 78, 62
20, 280638, Note_off_c, 5, 76, 64
20, 280712, Note_off_c, 5, 78, 64
20, 280730, Note_on_c, 5, 74, 66
20, 280777, Note_off_c, 5, 74, 64
20, 280863, Note_on_c, 5, 74, 98
20, 280966, Note_on_c, 5, 76, 64
20, 280990, Note_off_c, 5, 74, 64
20, 281061, Note_off_c, 5, 76, 64
20, 281099, Note_on_c, 5, 73, 46
20, 281135, Note_off_c, 5, 73, 64
20, 281233, Note_on_c, 5, 73, 87
20, 281342, Note_on_c, 5, 69, 66
20, 281384, Note_off_c, 5, 73, 64
20, 281450, Note_off_c, 5, 69, 64
20, 281463, Note_on_c, 5, 71, 64
20, 281562, Note_off_c, 5, 71, 64
20, 281589, Note_on_c, 5, 73, 64
20, 281693, Note_on_c, 5, 74, 72
20, 281722, Note_off_c, 5, 73, 64
20, 281801, Note_off_c, 5, 74, 64
20, 281807, Note_on_c, 5, 76, 70
20, 281879, Note_off_c, 5, 76, 64
20, 281942, Note_on_c, 5, 69, 85
20, 282060, Note_off_c, 5, 69, 64
20, 282173, Note_on_c, 5, 73, 66
20, 282251, Note_off_c, 5, 73, 64
20, 282294, Note_on_c, 5, 62, 82
20, 282401, Note_on_c, 5, 66, 57
20, 282415, Note_off_c, 5, 62, 64
20, 282516, Note_on_c, 5, 69, 80
20, 282528, Note_off_c, 5, 66, 64
20, 282597, Note_off_c, 5, 69, 64
20, 282663, Note_on_c, 5, 74, 82
20, 282774, Note_on_c, 5, 76, 66
20, 282813, Note_off_c, 5, 74, 64
20, 282842, Note_off_c, 5, 76, 64
20, 282899, Note_on_c, 5, 73, 63
20, 282953, Note_off_c, 5, 73, 64
20, 283036, Note_on_c, 5, 73, 93
20, 283146, Note_on_c, 5, 74, 66
20, 283178, Note_off_c, 5, 73, 64
20, 283260, Note_off_c, 5, 74, 64
20, 283270, Note_on_c, 5, 71, 64
20, 283320, Note_off_c, 5, 71, 64
20, 283394, Note_on_c, 5, 71, 85
20, 283506, Note_on_c, 5, 73, 62
20, 283522, Note_off_c, 5, 71, 64
20, 283592, Note_off_c, 5, 73, 64
20, 283620, Note_on_c, 5, 74, 68
20, 283681, Note_off_c, 5, 74, 64
20, 283765, Note_on_c, 5, 76, 87
20, 283877, Note_on_c, 5, 78, 59
20, 283896, Note_off_c, 5, 76, 64
20, 283979, Note_off_c, 5, 78, 64
20, 283992, Note_on_c, 5, 74, 66
20, 284042, Note_off_c, 5, 74, 64
20, 284132, Note_on_c, 5, 74, 87
20, 284244, Note_on_c, 5, 76, 66
20, 284265, Note_off_c, 5, 74, 64
20, 284336, Note_off_c, 5, 76, 64
20, 284375, Note_on_c, 5, 73, 57
20, 284433, Note_off_c, 5, 73, 64
20, 284505, Note_on_c, 5, 73, 87
20, 284615, Note_on_c, 5, 74, 66
20, 284627, Note_off_c, 5, 73, 64
20, 284735, Note_off_c, 5, 74, 64
20, 284741, Note_on_c, 5, 76, 66
20, 284795, Note_off_c, 5, 76, 64
20, 284863, Note_on_c, 5, 78, 100
20, 284976, Note_on_c, 5, 79, 68
20, 284985, Note_off_c, 5, 78, 64
20, 285059, Note_off_c, 5, 79, 64
20, 285099, Note_on_c, 5, 76, 63
20, 285142, Note_off_c, 5, 76, 64
20, 285223, Note_on_c, 5, 76, 87
20, 285317, Note_on_c, 5, 78, 60
20, 285324, Note_off_c, 5, 76, 64
20, 285399, Note_off_c, 5, 78, 64
20, 285437, Note_on_c, 5, 74, 63
20, 285498, Note_off_c, 5, 74, 64
20, 285581, Note_on_c, 5, 74, 70
20, 285696, Note_off_c, 5, 74, 64
20, 285808, Note_on_c, 5, 74, 63
20, 285871, Note_off_c, 5, 74, 64
20, 285936, Note_on_c, 5, 74, 76
20, 286074, Note_off_c, 5, 74, 64
20, 286161, Note_on_c, 5, 74, 68
20, 286224, Note_off_c, 5, 74, 64
20, 286281, Note_on_c, 5, 74, 76
20, 286415, Note_off_c, 5, 74, 64
20, 286514, Note_on_c, 5, 74, 58
20, 286562, Note_off_c, 5, 74, 64
20, 286634, Note_on_c, 5, 74, 82
20, 286746, Note_on_c, 5, 71, 63
20, 286767, Note_off_c, 5, 74, 64
20, 286856, Note_off_c, 5, 71, 64
20, 286868, Note_on_c, 5, 73, 63
20, 286947, Note_off_c, 5, 73, 64
20, 287001, Note_on_c, 5, 74, 89
20, 287109, Note_on_c, 5, 76, 63
20, 287140, Note_off_c, 5, 74, 64
20, 287182, Note_off_c, 5, 76, 64
20, 287230, Note_on_c, 5, 73, 82
20, 287297, Note_off_c, 5, 73, 64
20, 287361, Note_on_c, 5, 74, 85
20, 287475, Note_on_c, 5, 73, 72
20, 287487, Note_off_c, 5, 74, 64
20, 287578, Note_off_c, 5, 73, 64
20, 287592, Note_on_c, 5, 71, 66
20, 287651, Note_off_c, 5, 71, 64
20, 287718, Note_on_c, 5, 73, 78
20, 287830, Note_on_c, 5, 76, 68
20, 287856, Note_off_c, 5, 73, 64
20, 287909, Note_off_c, 5, 76, 64
20, 287955, Note_on_c, 5, 74, 76
20, 288027, Note_off_c, 5, 74, 64
20, 288096, Note_on_c, 5, 76, 95
20, 288207, Note_off_c, 5, 76, 64
20, 288317, Note_on_c, 5, 69, 76
20, 288377, Note_off_c, 5, 69, 64
20, 288447, Note_on_c, 5, 64, 66
20, 288558, Note_off_c, 5, 64, 64
20, 288679, Note_on_c, 5, 68, 78
20, 288740, Note_off_c, 5, 68, 64
20, 288816, Note_on_c, 5, 69, 80
20, 289217, Note_off_c, 5, 69, 64
20, 303094, Note_on_c, 5, 71, 72
20, 303147, Note_off_c, 5, 71, 64
20, 303219, Note_on_c, 5, 71, 87
20, 303342, Note_on_c, 5, 73, 60
20, 303353, Note_off_c, 5, 71, 64
20, 303432, Note_off_c, 5, 73, 64
20, 303452, Note_on_c, 5, 69, 57
20, 303495, Note_off_c, 5, 69, 64
20, 303579, Note_on_c, 5, 69, 89
20, 303682, Note_on_c, 5, 71, 64
20, 303700, Note_off_c, 5, 69, 64
20, 303761, Note_off_c, 5, 71, 64
20, 303810, Note_on_c, 5, 68, 59
20, 303851, Note_off_c, 5, 68, 64
20, 303936, Note_on_c, 5, 68, 82
20, 304044, Note_on_c, 5, 70, 64
20, 304071, Note_off_c, 5, 68, 64
20, 304155, Note_off_c, 5, 70, 64
20, 304155, Note_on_c, 5, 71, 63
20, 304268, Note_off_c, 5, 71, 64
20, 304294, Note_on_c, 5, 73, 98
20, 304406, Note_on_c, 5, 74, 66
20, 304422, Note_off_c, 5, 73, 64
20, 304476, Note_off_c, 5, 74, 64
20, 304519, Note_on_c, 5, 71, 64
20, 304560, Note_off_c, 5, 71, 64
20, 304645, Note_on_c, 5, 71, 93
20, 304757, Note_on_c, 5, 73, 57
20, 304767, Note_off_c, 5, 71, 64
20, 304836, Note_off_c, 5, 73, 64
20, 304879, Note_on_c, 5, 70, 68
20, 304937, Note_off_c, 5, 70, 64
20, 305014, Note_on_c, 5, 70, 76
20, 305117, Note_on_c, 5, 71, 70
20, 305140, Note_off_c, 5, 70, 64
20, 305216, Note_off_c, 5, 71, 64
20, 305243, Note_on_c, 5, 73, 59
20, 305297, Note_off_c, 5, 73, 64
20, 305372, Note_on_c, 5, 73, 98
20, 305498, Note_off_c, 5, 73, 64
20, 305588, Note_on_c, 5, 71, 59
20, 305649, Note_off_c, 5, 71, 64
20, 305716, Note_on_c, 5, 71, 82
20, 305850, Note_off_c, 5, 71, 64
20, 305950, Note_on_c, 5, 70, 61
20, 306015, Note_off_c, 5, 70, 64
20, 306082, Note_on_c, 5, 71, 80
20, 306222, Note_off_c, 5, 71, 64
20, 306447, Note_on_c, 5, 71, 82
20, 306569, Note_off_c, 5, 71, 64
20, 306792, Note_on_c, 5, 75, 80
20, 306915, Note_off_c, 5, 75, 64
20, 307142, Note_on_c, 5, 76, 87
20, 307278, Note_off_c, 5, 76, 64
20, 307750, Note_on_c, 5, 71, 74
20, 307833, Note_off_c, 5, 71, 64
20, 307876, Note_on_c, 5, 73, 68
20, 308013, Note_off_c, 5, 73, 64
20, 308126, Note_on_c, 5, 75, 63
20, 308207, Note_off_c, 5, 75, 64
20, 308258, Note_on_c, 5, 76, 82
20, 308369, Note_off_c, 5, 76, 64
20, 308486, Note_on_c, 5, 71, 70
20, 308573, Note_off_c, 5, 71, 64
20, 308623, Note_on_c, 5, 70, 76
20, 308729, Note_off_c, 5, 70, 64
20, 308844, Note_on_c, 5, 71, 76
20, 308920, Note_off_c, 5, 71, 64
20, 308974, Note_on_c, 5, 73, 76
20, 309087, Note_off_c, 5, 73, 64
20, 309203, Note_on_c, 5, 76, 78
20, 309271, Note_off_c, 5, 76, 64
20, 309338, Note_on_c, 5, 73, 87
20, 309452, Note_on_c, 5, 74, 80
20, 309464, Note_off_c, 5, 73, 64
20, 309537, Note_off_c, 5, 74, 64
20, 309572, Note_on_c, 5, 76, 68
20, 309626, Note_off_c, 5, 76, 64
20, 309705, Note_on_c, 5, 73, 100
20, 309807, Note_on_c, 5, 74, 72
20, 309831, Note_off_c, 5, 73, 64
20, 309878, Note_off_c, 5, 74, 64
20, 309932, Note_on_c, 5, 71, 76
20, 309975, Note_off_c, 5, 71, 64
20, 310058, Note_on_c, 5, 71, 89
20, 310171, Note_on_c, 5, 73, 56
20, 310184, Note_off_c, 5, 71, 64
20, 310245, Note_off_c, 5, 73, 64
20, 310288, Note_on_c, 5, 70, 66
20, 310340, Note_off_c, 5, 70, 64
20, 310415, Note_on_c, 5, 71, 82
20, 310509, Note_off_c, 5, 71, 64
20, 310659, Note_on_c, 5, 71, 74
20, 310720, Note_off_c, 5, 71, 64
20, 310781, Note_on_c, 5, 67, 82
20, 310884, Note_on_c, 5, 66, 63
20, 310895, Note_off_c, 5, 67, 64
20, 310974, Note_off_c, 5, 66, 64
20, 310997, Note_on_c, 5, 64, 66
20, 311067, Note_off_c, 5, 64, 64
20, 311129, Note_on_c, 5, 66, 82
20, 311253, Note_off_c, 5, 66, 64
20, 311372, Note_on_c, 5, 66, 52
20, 311417, Note_off_c, 5, 66, 64
20, 311507, Note_on_c, 5, 66, 95
20, 311692, Note_off_c, 5, 66, 64
20, 375243, Note_on_c, 5, 69, 89
20, 375398, Note_off_c, 5, 69, 64
20, 375435, Note_on_c, 5, 78, 89
20, 375471, Note_off_c, 5, 78, 64
20, 375492, Note_on_c, 5, 78, 82
20, 375581, Note_off_c, 5, 78, 64
20, 375659, Note_on_c, 5, 74, 89
20, 375699, Note_off_c, 5, 74, 64
20, 375725, Note_on_c, 5, 69, 91
20, 376212, Note_off_c, 5, 69, 64
20, 376381, Note_on_c, 5, 81, 91
20, 376414, Note_off_c, 5, 81, 64
20, 376440, Note_on_c, 5, 81, 100
20, 376515, Note_off_c, 5, 81, 64
20, 376613, Note_on_c, 5, 78, 89
20, 376650, Note_off_c, 5, 78, 64
20, 376677, Note_on_c, 5, 74, 87
20, 377153, Note_off_c, 5, 74, 64
20, 377334, Note_on_c, 5, 72, 85
20, 377365, Note_off_c, 5, 72, 64
20, 377393, Note_on_c, 5, 72, 95
20, 377472, Note_off_c, 5, 72, 64
20, 377562, Note_on_c, 5, 69, 78
20, 377606, Note_off_c, 5, 69, 64
20, 377632, Note_on_c, 5, 78, 95
20, 377974, Note_off_c, 5, 78, 64
20, 378044, Note_on_c, 5, 78, 63
20, 378087, Note_off_c, 5, 78, 64
20, 378120, Note_on_c, 5, 76, 87
20, 378222, Note_off_c, 5, 76, 64
20, 378240, Note_on_c, 5, 64, 76
20, 378290, Note_on_c, 5, 66, 82
20, 378297, Note_off_c, 5, 64, 64
20, 378339, Note_off_c, 5, 66, 64
20, 378356, Note_on_c, 5, 67, 82
20, 378407, Note_off_c, 5, 67, 64
20, 378414, Note_on_c, 5, 69, 70
20, 378457, Note_off_c, 5, 69, 64
20, 378467, Note_on_c, 5, 71, 80
20, 378524, Note_off_c, 5, 71, 64
20, 378529, Note_on_c, 5, 73, 66
20, 378570, Note_off_c, 5, 73, 64
20, 378587, Note_on_c, 5, 74, 98
20, 378633, Note_off_c, 5, 74, 64
20, 378648, Note_on_c, 5, 73, 89
20, 378687, Note_off_c, 5, 73, 64
20, 378704, Note_on_c, 5, 71, 78
20, 378749, Note_off_c, 5, 71, 64
20, 378758, Note_on_c, 5, 73, 93
20, 378800, Note_off_c, 5, 73, 64
20, 378820, Note_on_c, 5, 74, 82
20, 378866, Note_off_c, 5, 74, 64
20, 378870, Note_on_c, 5, 71, 66
20, 378922, Note_off_c, 5, 71, 64
20, 378937, Note_on_c, 5, 76, 87
20, 378978, Note_off_c, 5, 76, 64
20, 378994, Note_on_c, 5, 71, 89
20, 379037, Note_off_c, 5, 71, 64
20, 379061, Note_on_c, 5, 73, 82
20, 380022, Note_off_c, 5, 73, 64
20, 380201, Note_on_c, 5, 69, 80
20, 380235, Note_off_c, 5, 69, 64
20, 380262, Note_on_c, 5, 69, 87
20, 380342, Note_off_c, 5, 69, 64
20, 380440, Note_on_c, 5, 74, 80
20, 380475, Note_off_c, 5, 74, 64
20, 380502, Note_on_c, 5, 78, 95
20, 380993, Note_off_c, 5, 78, 64
20, 381163, Note_on_c, 5, 78, 87
20, 381192, Note_off_c, 5, 78, 64
20, 381221, Note_on_c, 5, 78, 102
20, 381295, Note_off_c, 5, 78, 64
20, 381412, Note_on_c, 5, 75, 82
20, 381445, Note_off_c, 5, 75, 64
20, 381473, Note_on_c, 5, 76, 89
20, 381974, Note_off_c, 5, 76, 64
20, 382145, Note_on_c, 5, 76, 89
20, 382181, Note_off_c, 5, 76, 64
20, 382201, Note_on_c, 5, 76, 98
20, 382274, Note_off_c, 5, 76, 64
20, 382370, Note_on_c, 5, 73, 85
20, 382410, Note_off_c, 5, 73, 64
20, 382431, Note_on_c, 5, 69, 89
20, 382766, Note_off_c, 5, 69, 64
20, 382848, Note_on_c, 5, 74, 87
20, 382883, Note_off_c, 5, 74, 64
20, 382911, Note_on_c, 5, 76, 98
20, 383244, Note_off_c, 5, 76, 64
20, 383333, Note_on_c, 5, 76, 87
20, 383362, Note_off_c, 5, 76, 64
20, 383386, Note_on_c, 5, 76, 98
20, 383471, Note_off_c, 5, 76, 64
20, 383638, Note_on_c, 5, 73, 82
20, 383720, Note_off_c, 5, 73, 64
20, 383878, Note_on_c, 5, 69, 82
20, 384406, Note_off_c, 5, 69, 64
20, 384537, Note_on_c, 5, 71, 80
20, 384572, Note_off_c, 5, 71, 64
20, 384596, Note_on_c, 5, 71, 89
20, 384667, Note_off_c, 5, 71, 64
20, 384763, Note_on_c, 5, 67, 80
20, 384803, Note_off_c, 5, 67, 64
20, 384831, Note_on_c, 5, 64, 85
20, 385146, Note_off_c, 5, 64, 64
20, 385248, Note_on_c, 5, 64, 82
20, 385290, Note_off_c, 5, 64, 64
20, 385310, Note_on_c, 5, 66, 85
20, 385413, Note_off_c, 5, 66, 64
20, 385558, Note_on_c, 5, 70, 89
20, 385651, Note_off_c, 5, 70, 64
20, 385809, Note_on_c, 5, 71, 87
20, 385894, Note_off_c, 5, 71, 64
20, 385974, Note_on_c, 5, 66, 76
20, 386010, Note_off_c, 5, 66, 64
20, 386039, Note_on_c, 5, 66, 91
20, 386107, Note_off_c, 5, 66, 64
20, 386213, Note_on_c, 5, 62, 78
20, 386246, Note_off_c, 5, 62, 64
20, 386277, Note_on_c, 5, 62, 82
20, 386764, Note_off_c, 5, 62, 64
20, 386931, Note_on_c, 5, 67, 82
20, 386974, Note_off_c, 5, 67, 64
20, 386995, Note_on_c, 5, 66, 89
20, 387072, Note_off_c, 5, 66, 64
20, 387168, Note_on_c, 5, 64, 78
20, 387208, Note_off_c, 5, 64, 64
20, 387234, Note_on_c, 5, 62, 85
20, 387311, Note_off_c, 5, 62, 64
20, 387410, Note_on_c, 5, 62, 80
20, 387458, Note_off_c, 5, 62, 64
20, 387475, Note_on_c, 5, 64, 89
20, 387568, Note_off_c, 5, 64, 64
20, 387655, Note_on_c, 5, 66, 78
20, 387686, Note_off_c, 5, 66, 64
20, 387720, Note_on_c, 5, 64, 89
20, 388215, Note_off_c, 5, 64, 64
20, 388372, Note_on_c, 5, 73, 80
20, 388402, Note_off_c, 5, 73, 64
20, 388430, Note_on_c, 5, 73, 98
20, 388499, Note_off_c, 5, 73, 64
20, 388604, Note_on_c, 5, 69, 82
20, 388650, Note_off_c, 5, 69, 64
20, 388666, Note_on_c, 5, 66, 76
20, 389163, Note_off_c, 5, 66, 64
20, 389331, Note_on_c, 5, 74, 89
20, 389361, Note_off_c, 5, 74, 64
20, 389384, Note_on_c, 5, 74, 100
20, 389468, Note_off_c, 5, 74, 64
20, 389567, Note_on_c, 5, 69, 80
20, 389608, Note_off_c, 5, 69, 64
20, 389633, Note_on_c, 5, 70, 93
20, 390120, Note_off_c, 5, 70, 64
20, 390293, Note_on_c, 5, 76, 82
20, 390323, Note_off_c, 5, 76, 64
20, 390346, Note_on_c, 5, 76, 95
20, 390418, Note_off_c, 5, 76, 64
20, 390521, Note_on_c, 5, 73, 80
20, 390558, Note_off_c, 5, 73, 64
20, 390583, Note_on_c, 5, 69, 85
20, 390839, Note_off_c, 5, 69, 64
20, 391019, Note_on_c, 5, 69, 85
20, 391050, Note_off_c, 5, 69, 64
20, 391079, Note_on_c, 5, 67, 85
20, 391339, Note_off_c, 5, 67, 64
20, 391512, Note_on_c, 5, 67, 85
20, 391545, Note_off_c, 5, 67, 64
20, 391569, Note_on_c, 5, 65, 87
20, 392040, Note_off_c, 5, 65, 64
20, 392211, Note_on_c, 5, 69, 87
20, 392255, Note_off_c, 5, 69, 64
20, 392277, Note_on_c, 5, 62, 91
20, 392361, Note_off_c, 5, 62, 64
20, 392461, Note_on_c, 5, 66, 70
20, 392497, Note_off_c, 5, 66, 64
20, 392520, Note_on_c, 5, 66, 85
20, 392614, Note_off_c, 5, 66, 64
20, 392691, Note_on_c, 5, 69, 80
20, 392726, Note_off_c, 5, 69, 64
20, 392748, Note_on_c, 5, 67, 100
20, 392830, Note_off_c, 5, 67, 64
20, 392925, Note_on_c, 5, 64, 76
20, 392965, Note_off_c, 5, 64, 64
20, 392990, Note_on_c, 5, 66, 100
20, 393076, Note_off_c, 5, 66, 64
20, 393173, Note_on_c, 5, 62, 82
20, 393221, Note_off_c, 5, 62, 64
20, 393231, Note_on_c, 5, 64, 89
20, 393297, Note_off_c, 5, 64, 64
20, 393402, Note_on_c, 5, 71, 72
20, 393451, Note_off_c, 5, 71, 64
20, 393471, Note_on_c, 5, 76, 102
20, 393547, Note_off_c, 5, 76, 64
20, 393641, Note_on_c, 5, 73, 63
20, 393678, Note_off_c, 5, 73, 64
20, 393701, Note_on_c, 5, 74, 85
20, 393776, Note_off_c, 5, 74, 64
20, 393879, Note_on_c, 5, 71, 82
20, 393915, Note_off_c, 5, 71, 64
20, 393955, Note_on_c, 5, 71, 98
20, 394012, Note_on_c, 5, 69, 68
20, 394014, Note_off_c, 5, 71, 64
20, 394038, Note_on_c, 5, 71, 85
20, 394040, Note_off_c, 5, 69, 64
20, 394065, Note_off_c, 5, 71, 64
20, 394066, Note_on_c, 5, 69, 66
20, 394085, Note_on_c, 5, 71, 89
20, 394088, Note_off_c, 5, 69, 64
20, 394100, Note_on_c, 5, 69, 80
20, 394111, Note_off_c, 5, 71, 64
20, 394152, Note_off_c, 5, 69, 64
20, 394203, Note_on_c, 5, 69, 87
20, 394359, Note_off_c, 5, 69, 64
20, 394457, Note_on_c, 5, 69, 105
20, 395383, Note_off_c, 5, 69, 64
20, 395383, End_track
21, 0, Start_track
21, 0, Title_t, "Oboe"
21, 0, Program_c, 6, 68
21, 0, Control_c, 6, 7, 100
21, 24172, Note_on_c, 6, 69, 89
21, 24205, Note_off_c, 6, 69, 64
21, 24230, Note_on_c, 6, 69, 95
21, 24299, Note_off_c, 6, 69, 64
21, 24404, Note_on_c, 6, 66, 82
21, 24438, Note_off_c, 6, 66, 64
21, 24467, Note_on_c, 6, 62, 85
21, 24978, Note_off_c, 6, 62, 64
21, 25145, Note_on_c, 6, 66, 85
21, 25177, Note_off_c, 6, 66, 64
21, 25208, Note_on_c, 6, 66, 98
21, 25266, Note_off_c, 6, 66, 64
21, 25367, Note_on_c, 6, 62, 78
21, 25400, Note_off_c, 6, 62, 64
21, 25429, Note_on_c, 6, 62, 89
21, 25915, Note_off_c, 6, 62, 64
21, 26098, Note_on_c, 6, 69, 85
21, 26130, Note_off_c, 6, 69, 64
21, 26162, Note_on_c, 6, 69, 89
21, 26238, Note_off_c, 6, 69, 64
21, 26328, Note_on_c, 6, 73, 80
21, 26365, Note_off_c, 6, 73, 64
21, 26389, Note_on_c, 6, 74, 89
21, 26644, Note_off_c, 6, 74, 64
21, 26792, Note_on_c, 6, 69, 80
21, 26823, Note_off_c, 6, 69, 64
21, 26855, Note_on_c, 6, 71, 100
21, 27226, Note_off_c, 6, 71, 64
21, 27289, Note_on_c, 6, 71, 89
21, 27330, Note_off_c, 6, 71, 64
21, 27351, Note_on_c, 6, 69, 100
21, 27449, Note_off_c, 6, 69, 64
21, 27595, Note_on_c, 6, 69, 95
21, 27688, Note_off_c, 6, 69, 64
21, 27835, Note_on_c, 6, 69, 93
21, 27937, Note_off_c, 6, 69, 64
21, 28082, Note_on_c, 6, 66, 98
21, 28188, Note_off_c, 6, 66, 64
21, 28510, Note_on_c, 6, 74, 85
21, 28544, Note_off_c, 6, 74, 64
21, 28571, Note_on_c, 6, 74, 102
21, 28637, Note_off_c, 6, 74, 64
21, 28732, Note_on_c, 6, 66, 89
21, 28765, Note_off_c, 6, 66, 64
21, 28800, Note_on_c, 6, 66, 98
21, 29119, Note_off_c, 6, 66, 64
21, 29212, Note_on_c, 6, 66, 82
21, 29253, Note_off_c, 6, 66, 64
21, 29272, Note_on_c, 6, 71, 93
21, 29357, Note_off_c, 6, 71, 64
21, 29453, Note_on_c, 6, 66, 64
21, 29499, Note_off_c, 6, 66, 64
21, 29518, Note_on_c, 6, 63, 85
21, 29599, Note_off_c, 6, 63, 64
21, 29698, Note_on_c, 6, 71, 82
21, 29741, Note_off_c, 6, 71, 64
21, 29765, Note_on_c, 6, 71, 100
21, 29840, Note_off_c, 6, 71, 64
21, 29936, Note_on_c, 6, 71, 85
21, 29976, Note_off_c, 6, 71, 64
21, 30003, Note_on_c, 6, 71, 91
21, 30073, Note_off_c, 6, 71, 64
21, 30170, Note_on_c, 6, 67, 76
21, 30205, Note_off_c, 6, 67, 64
21, 30236, Note_on_c, 6, 64, 85
21, 30518, Note_off_c, 6, 64, 64
21, 30665, Note_on_c, 6, 69, 82
21, 30703, Note_off_c, 6, 69, 64
21, 30726, Note_on_c, 6, 62, 82
21, 31026, Note_off_c, 6, 62, 64
21, 31125, Note_on_c, 6, 64, 78
21, 31162, Note_off_c, 6, 64, 64
21, 31186, Note_on_c, 6, 62, 87
21, 31267, Note_off_c, 6, 62, 64
21, 31371, Note_on_c, 6, 67, 76
21, 31417, Note_off_c, 6, 67, 64
21, 31434, Note_on_c, 6, 66, 102
21, 31513, Note_off_c, 6, 66, 64
21, 31617, Note_on_c, 6, 64, 80
21, 31657, Note_off_c, 6, 64, 64
21, 31679, Note_on_c, 6, 64, 85
21, 31772, Note_off_c, 6, 64, 64
21, 31862, Note_on_c, 6, 69, 85
21, 31895, Note_off_c, 6, 69, 64
21, 31921, Note_on_c, 6, 69, 89
21, 32003, Note_off_c, 6, 69, 64
21, 32090, Note_on_c, 6, 73, 82
21, 32126, Note_off_c, 6, 73, 64
21, 32152, Note_on_c, 6, 73, 91
21, 32233, Note_off_c, 6, 73, 64
21, 32329, Note_on_c, 6, 71, 80
21, 32376, Note_off_c, 6, 71, 64
21, 32399, Note_on_c, 6, 73, 91
21, 32466, Note_off_c, 6, 73, 64
21, 32572, Note_on_c, 6, 76, 87
21, 32612, Note_off_c, 6, 76, 64
21, 32642, Note_on_c, 6, 73, 95
21, 33119, Note_off_c, 6, 73, 64
21, 33300, Note_on_c, 6, 69, 80
21, 33336, Note_off_c, 6, 69, 64
21, 33360, Note_on_c, 6, 69, 85
21, 33423, Note_off_c, 6, 69, 64
21, 33517, Note_on_c, 6, 66, 85
21, 33556, Note_off_c, 6, 66, 64
21, 33588, Note_on_c, 6, 64, 85
21, 34099, Note_off_c, 6, 64, 64
21, 34252, Note_on_c, 6, 64, 76
21, 34302, Note_off_c, 6, 64, 64
21, 34320, Note_on_c, 6, 69, 98
21, 34393, Note_off_c, 6, 69, 64
21, 34494, Note_on_c, 6, 66, 82
21, 34526, Note_off_c, 6, 66, 64
21, 34557, Note_on_c, 6, 66, 93
21, 34860, Note_off_c, 6, 66, 64
21, 34970, Note_on_c, 6, 66, 89
21, 35005, Note_off_c, 6, 66, 64
21, 35024, Note_on_c, 6, 64, 82
21, 35133, Note_off_c, 6, 64, 64
21, 35279, Note_on_c, 6, 64, 85
21, 35371, Note_off_c, 6, 64, 64
21, 35523, Note_on_c, 6, 64, 85
21, 35609, Note_off_c, 6, 64, 64
21, 35705, Note_on_c, 6, 73, 80
21, 35738, Note_off_c, 6, 73, 64
21, 35761, Note_on_c, 6, 73, 87
21, 35841, Note_off_c, 6, 73, 64
21, 35934, Note_on_c, 6, 69, 82
21, 35985, Note_off_c, 6, 69, 64
21, 36008, Note_on_c, 6, 66, 70
21, 36486, Note_off_c, 6, 66, 64
21, 36643, Note_on_c, 6, 71, 80
21, 36676, Note_off_c, 6, 71, 64
21, 36702, Note_on_c, 6, 71, 89
21, 36789, Note_off_c, 6, 71, 64
21, 36887, Note_on_c, 6, 74, 82
21, 36934, Note_off_c, 6, 74, 64
21, 36951, Note_on_c, 6, 68, 93
21, 37064, Note_off_c, 6, 68, 64
21, 37203, Note_on_c, 6, 73, 93
21, 37299, Note_off_c, 6, 73, 64
21, 37445, Note_on_c, 6, 73, 64
21, 37942, Note_off_c, 6, 73, 64
21, 38078, Note_on_c, 6, 69, 76
21, 38122, Note_off_c, 6, 69, 64
21, 38144, Note_on_c, 6, 66, 82
21, 38230, Note_off_c, 6, 66, 64
21, 38336, Note_on_c, 6, 66, 76
21, 38374, Note_off_c, 6, 66, 64
21, 38397, Note_on_c, 6, 64, 82
21, 38663, Note_off_c, 6, 64, 64
21, 38804, Note_on_c, 6, 62, 82
21, 38861, Note_off_c, 6, 62, 64
21, 38873, Note_on_c, 6, 69, 98
21, 38951, Note_off_c, 6, 69, 64
21, 39040, Note_on_c, 6, 62, 80
21, 39077, Note_off_c, 6, 62, 64
21, 39104, Note_on_c, 6, 62, 87
21, 39203, Note_off_c, 6, 62, 64
21, 39281, Note_on_c, 6, 64, 78
21, 39320, Note_off_c, 6, 64, 64
21, 39344, Note_on_c, 6, 64, 89
21, 39455, Note_off_c, 6, 64, 64
21, 39528, Note_on_c, 6, 68, 68
21, 39561, Note_off_c, 6, 68, 64
21, 39589, Note_on_c, 6, 68, 95
21, 39664, Note_off_c, 6, 68, 64
21, 39763, Note_on_c, 6, 64, 78
21, 39800, Note_off_c, 6, 64, 64
21, 39830, Note_on_c, 6, 64, 85
21, 40313, Note_off_c, 6, 64, 64
21, 40472, Note_on_c, 6, 64, 82
21, 40515, Note_off_c, 6, 64, 64
21, 40536, Note_on_c, 6, 69, 89
21, 40616, Note_off_c, 6, 69, 64
21, 40725, Note_on_c, 6, 64, 80
21, 40772, Note_off_c, 6, 64, 64
21, 40793, Note_on_c, 6, 73, 87
21, 41275, Note_off_c, 6, 73, 64
21, 41446, Note_on_c, 6, 74, 87
21, 41491, Note_off_c, 6, 74, 64
21, 41512, Note_on_c, 6, 68, 91
21, 41597, Note_off_c, 6, 68, 64
21, 41694, Note_on_c, 6, 71, 82
21, 41739, Note_off_c, 6, 71, 64
21, 41760, Note_on_c, 6, 74, 89
21, 42247, Note_off_c, 6, 74, 64
21, 42428, Note_on_c, 6, 68, 80
21, 42463, Note_off_c, 6, 68, 64
21, 42488, Note_on_c, 6, 69, 85
21, 42744, Note_off_c, 6, 69, 64
21, 42899, Note_on_c, 6, 66, 66
21, 42937, Note_off_c, 6, 66, 64
21, 42963, Note_on_c, 6, 68, 95
21, 43203, Note_off_c, 6, 68, 64
21, 43360, Note_on_c, 6, 64, 68
21, 43400, Note_off_c, 6, 64, 64
21, 43428, Note_on_c, 6, 64, 80
21, 43512, Note_off_c, 6, 64, 64
21, 43608, Note_on_c, 6, 69, 80
21, 43644, Note_off_c, 6, 69, 64
21, 43667, Note_on_c, 6, 73, 85
21, 44248, Note_off_c, 6, 73, 64
21, 44331, Note_on_c, 6, 69, 82
21, 44365, Note_off_c, 6, 69, 64
21, 44390, Note_on_c, 6, 69, 89
21, 44470, Note_off_c, 6, 69, 64
21, 44562, Note_on_c, 6, 68, 72
21, 44603, Note_off_c, 6, 68, 64
21, 44625, Note_on_c, 6, 66, 82
21, 44951, Note_off_c, 6, 66, 64
21, 45045, Note_on_c, 6, 62, 66
21, 45085, Note_off_c, 6, 62, 64
21, 45111, Note_on_c, 6, 64, 85
21, 45199, Note_off_c, 6, 64, 64
21, 45291, Note_on_c, 6, 64, 76
21, 45324, Note_off_c, 6, 64, 64
21, 45362, Note_on_c, 6, 64, 85
21, 45456, Note_off_c, 6, 64, 64
21, 45518, Note_on_c, 6, 66, 80
21, 45556, Note_off_c, 6, 66, 64
21, 45596, Note_on_c, 6, 66, 98
21, 45638, Note_on_c, 6, 64, 66
21, 45639, Note_off_c, 6, 66, 64
21, 45662, Note_on_c, 6, 66, 82
21, 45666, Note_off_c, 6, 64, 64
21, 45691, Note_off_c, 6, 66, 64
21, 45692, Note_on_c, 6, 64, 74
21, 45707, Note_on_c, 6, 66, 80
21, 45719, Note_off_c, 6, 64, 64
21, 45727, Note_on_c, 6, 64, 64
21, 45740, Note_off_c, 6, 66, 64
21, 45790, Note_off_c, 6, 64, 64
21, 45846, Note_on_c, 6, 64, 87
21, 45996, Note_off_c, 6, 64, 64
21, 46088, Note_on_c, 6, 64, 95
21, 46232, Note_off_c, 6, 64, 64
21, 73061, Note_on_c, 6, 67, 78
21, 73191, Note_off_c, 6, 67, 64
21, 73405, Note_on_c, 6, 66, 70
21, 73538, Note_off_c, 6, 66, 64
21, 73761, Note_on_c, 6, 68, 68
21, 73904, Note_off_c, 6, 68, 64
21, 74125, Note_on_c, 6, 69, 78
21, 74273, Note_off_c, 6, 69, 64
21, 74496, Note_on_c, 6, 68, 76
21, 74627, Note_off_c, 6, 68, 64
21, 74854, Note_on_c, 6, 70, 74
21, 75000, Note_off_c, 6, 70, 64
21, 75212, Note_on_c, 6, 71, 78
21, 75356, Note_off_c, 6, 71, 64
21, 75470, Note_on_c, 6, 71, 85
21, 75533, Note_off_c, 6, 71, 64
21, 75587, Note_on_c, 6, 71, 89
21, 75695, Note_on_c, 6, 73, 57
21, 75718, Note_off_c, 6, 71, 64
21, 75783, Note_off_c, 6, 73, 64
21, 75794, Note_on_c, 6, 69, 58
21, 75840, Note_off_c, 6, 69, 64
21, 75929, Note_on_c, 6, 69, 85
21, 76031, Note_on_c, 6, 71, 64
21, 76056, Note_off_c, 6, 69, 64
21, 76118, Note_off_c, 6, 71, 64
21, 76159, Note_on_c, 6, 68, 58
21, 76200, Note_off_c, 6, 68, 64
21, 76290, Note_on_c, 6, 68, 95
21, 76400, Note_on_c, 6, 69, 59
21, 76411, Note_off_c, 6, 68, 64
21, 76479, Note_off_c, 6, 69, 64
21, 76526, Note_on_c, 6, 71, 60
21, 76580, Note_off_c, 6, 71, 64
21, 76661, Note_on_c, 6, 73, 100
21, 76766, Note_on_c, 6, 74, 70
21, 76794, Note_off_c, 6, 73, 64
21, 76839, Note_off_c, 6, 74, 64
21, 76886, Note_on_c, 6, 71, 70
21, 76933, Note_off_c, 6, 71, 64
21, 77018, Note_on_c, 6, 71, 85
21, 77117, Note_on_c, 6, 73, 58
21, 77120, Note_off_c, 6, 71, 64
21, 77201, Note_off_c, 6, 73, 64
21, 77243, Note_on_c, 6, 70, 68
21, 77307, Note_off_c, 6, 70, 64
21, 77383, Note_on_c, 6, 70, 64
21, 77509, Note_off_c, 6, 70, 64
21, 77628, Note_on_c, 6, 70, 51
21, 77689, Note_off_c, 6, 70, 64
21, 77750, Note_on_c, 6, 70, 55
21, 77878, Note_off_c, 6, 70, 64
21, 77979, Note_on_c, 6, 70, 53
21, 78036, Note_off_c, 6, 70, 64
21, 78105, Note_on_c, 6, 70, 54
21, 78234, Note_off_c, 6, 70, 64
21, 78343, Note_on_c, 6, 70, 57
21, 78404, Note_off_c, 6, 70, 64
21, 78472, Note_on_c, 6, 69, 58
21, 78614, Note_off_c, 6, 69, 64
21, 78713, Note_on_c, 6, 69, 66
21, 78773, Note_off_c, 6, 69, 64
21, 78827, Note_on_c, 6, 69, 63
21, 78969, Note_off_c, 6, 69, 64
21, 79055, Note_on_c, 6, 69, 64
21, 79107, Note_off_c, 6, 69, 64
21, 79174, Note_on_c, 6, 69, 66
21, 79327, Note_off_c, 6, 69, 64
21, 79410, Note_on_c, 6, 69, 61
21, 79482, Note_off_c, 6, 69, 64
21, 79547, Note_on_c, 6, 68, 64
21, 79696, Note_off_c, 6, 68, 64
21, 79777, Note_on_c, 6, 68, 57
21, 79835, Note_off_c, 6, 68, 64
21, 79894, Note_on_c, 6, 68, 61
21, 80051, Note_off_c, 6, 68, 64
21, 80137, Note_on_c, 6, 68, 57
21, 80189, Note_off_c, 6, 68, 64
21, 80254, Note_on_c, 6, 68, 57
21, 80407, Note_off_c, 6, 68, 64
21, 80484, Note_on_c, 6, 68, 58
21, 80526, Note_off_c, 6, 68, 64
21, 80605, Note_on_c, 6, 67, 61
21, 80747, Note_off_c, 6, 67, 64
21, 80841, Note_on_c, 6, 67, 56
21, 80895, Note_off_c, 6, 67, 64
21, 80956, Note_on_c, 6, 67, 68
21, 81113, Note_off_c, 6, 67, 64
21, 81197, Note_on_c, 6, 67, 59
21, 81249, Note_off_c, 6, 67, 64
21, 81318, Note_on_c, 6, 67, 64
21, 81473, Note_off_c, 6, 67, 64
21, 81546, Note_on_c, 6, 67, 60
21, 81618, Note_off_c, 6, 67, 64
21, 81681, Note_on_c, 6, 66, 62
21, 81847, Note_off_c, 6, 66, 64
21, 81923, Note_on_c, 6, 66, 57
21, 81975, Note_off_c, 6, 66, 64
21, 82041, Note_on_c, 6, 66, 70
21, 82204, Note_off_c, 6, 66, 64
21, 82283, Note_on_c, 6, 66, 61
21, 82340, Note_off_c, 6, 66, 64
21, 82410, Note_on_c, 6, 66, 63
21, 82563, Note_off_c, 6, 66, 64
21, 82648, Note_on_c, 6, 66, 55
21, 82702, Note_off_c, 6, 66, 64
21, 82769, Note_on_c, 6, 65, 60
21, 82938, Note_off_c, 6, 65, 64
21, 83001, Note_on_c, 6, 65, 59
21, 83062, Note_off_c, 6, 65, 64
21, 83123, Note_on_c, 6, 65, 58
21, 83262, Note_off_c, 6, 65, 64
21, 83346, Note_on_c, 6, 65, 58
21, 83404, Note_off_c, 6, 65, 64
21, 83481, Note_on_c, 6, 65, 57
21, 83607, Note_off_c, 6, 65, 64
21, 83721, Note_on_c, 6, 65, 59
21, 83789, Note_off_c, 6, 65, 64
21, 83856, Note_on_c, 6, 64, 60
21, 84009, Note_off_c, 6, 64, 64
21, 84077, Note_on_c, 6, 64, 62
21, 84144, Note_off_c, 6, 64, 64
21, 84207, Note_on_c, 6, 64, 66
21, 84369, Note_off_c, 6, 64, 64
21, 84434, Note_on_c, 6, 64, 59
21, 84489, Note_off_c, 6, 64, 64
21, 84554, Note_on_c, 6, 64, 61
21, 84704, Note_off_c, 6, 64, 64
21, 84781, Note_on_c, 6, 64, 57
21, 84860, Note_off_c, 6, 64, 64
21, 84920, Note_on_c, 6, 63, 66
21, 85073, Note_off_c, 6, 63, 64
21, 85145, Note_on_c, 6, 63, 53
21, 85206, Note_off_c, 6, 63, 64
21, 85265, Note_on_c, 6, 63, 57
21, 85418, Note_off_c, 6, 63, 64
21, 85494, Note_on_c, 6, 63, 49
21, 85560, Note_off_c, 6, 63, 64
21, 85627, Note_on_c, 6, 63, 57
21, 85767, Note_off_c, 6, 63, 64
21, 85841, Note_on_c, 6, 63, 51
21, 85908, Note_off_c, 6, 63, 64
21, 85980, Note_on_c, 6, 62, 62
21, 86163, Note_off_c, 6, 62, 64
21, 86237, Note_on_c, 6, 62, 58
21, 86311, Note_off_c, 6, 62, 64
21, 86370, Note_on_c, 6, 62, 64
21, 86536, Note_off_c, 6, 62, 64
21, 86603, Note_on_c, 6, 62, 64
21, 86669, Note_off_c, 6, 62, 64
21, 86730, Note_on_c, 6, 62, 68
21, 86889, Note_off_c, 6, 62, 64
21, 86966, Note_on_c, 6, 62, 68
21, 87042, Note_off_c, 6, 62, 64
21, 87103, Note_on_c, 6, 60, 80
21, 87186, Note_off_c, 6, 60, 64
21, 87198, Note_on_c, 6, 65, 68
21, 87272, Note_off_c, 6, 65, 64
21, 87320, Note_on_c, 6, 64, 64
21, 87375, Note_off_c, 6, 64, 64
21, 87450, Note_on_c, 6, 64, 82
21, 87551, Note_on_c, 6, 65, 60
21, 87582, Note_off_c, 6, 64, 64
21, 87630, Note_off_c, 6, 65, 64
21, 87670, Note_on_c, 6, 62, 64
21, 87728, Note_off_c, 6, 62, 64
21, 87805, Note_on_c, 6, 62, 78
21, 87915, Note_on_c, 6, 64, 64
21, 87917, Note_off_c, 6, 62, 64
21, 87989, Note_off_c, 6, 64, 64
21, 88046, Note_on_c, 6, 60, 55
21, 88097, Note_off_c, 6, 60, 64
21, 88172, Note_on_c, 6, 60, 82
21, 88284, Note_on_c, 6, 62, 80
21, 88307, Note_off_c, 6, 60, 64
21, 88408, Note_off_c, 6, 62, 64
21, 88408, Note_on_c, 6, 64, 76
21, 88469, Note_off_c, 6, 64, 64
21, 88538, Note_on_c, 6, 65, 85
21, 88647, Note_on_c, 6, 67, 63
21, 88669, Note_off_c, 6, 65, 64
21, 88739, Note_off_c, 6, 67, 64
21, 88761, Note_on_c, 6, 64, 60
21, 88817, Note_off_c, 6, 64, 64
21, 88880, Note_on_c, 6, 64, 63
21, 88995, Note_on_c, 6, 65, 60
21, 89013, Note_off_c, 6, 64, 64
21, 89083, Note_off_c, 6, 65, 64
21, 89123, Note_on_c, 6, 63, 63
21, 89184, Note_off_c, 6, 63, 64
21, 89250, Note_on_c, 6, 63, 64
21, 89499, Note_off_c, 6, 63, 64
21, 90582, Note_on_c, 6, 68, 58
21, 90636, Note_off_c, 6, 68, 64
21, 90703, Note_on_c, 6, 68, 74
21, 90834, Note_off_c, 6, 68, 64
21, 90933, Note_on_c, 6, 68, 58
21, 90984, Note_off_c, 6, 68, 64
21, 91063, Note_on_c, 6, 68, 68
21, 91200, Note_off_c, 6, 68, 64
21, 91295, Note_on_c, 6, 68, 59
21, 91347, Note_off_c, 6, 68, 64
21, 91421, Note_on_c, 6, 69, 74
21, 91502, Note_off_c, 6, 69, 64
21, 91533, Note_on_c, 6, 73, 63
21, 91590, Note_off_c, 6, 73, 64
21, 91650, Note_on_c, 6, 71, 72
21, 91715, Note_off_c, 6, 71, 64
21, 91779, Note_on_c, 6, 69, 80
21, 91896, Note_off_c, 6, 69, 64
21, 91999, Note_on_c, 6, 69, 78
21, 92051, Note_off_c, 6, 69, 64
21, 92138, Note_on_c, 6, 64, 64
21, 92274, Note_off_c, 6, 64, 64
21, 92373, Note_on_c, 6, 64, 64
21, 92435, Note_off_c, 6, 64, 64
21, 92499, Note_on_c, 6, 64, 68
21, 92683, Note_off_c, 6, 64, 64
21, 115399, Note_on_c, 6, 64, 66
21, 115464, Note_off_c, 6, 64, 64
21, 115538, Note_on_c, 6, 64, 80
21, 115673, Note_off_c, 6, 64, 64
21, 115770, Note_on_c, 6, 68, 58
21, 115818, Note_off_c, 6, 68, 64
21, 115905, Note_on_c, 6, 68, 82
21, 116054, Note_off_c, 6, 68, 64
21, 116128, Note_on_c, 6, 69, 62
21, 116181, Note_off_c, 6, 69, 64
21, 116270, Note_on_c, 6, 69, 68
21, 116457, Note_off_c, 6, 69, 64
21, 117581, Note_on_c, 6, 69, 57
21, 117629, Note_off_c, 6, 69, 64
21, 117701, Note_on_c, 6, 69, 68
21, 117843, Note_off_c, 6, 69, 64
21, 117935, Note_on_c, 6, 69, 62
21, 117991, Note_off_c, 6, 69, 64
21, 118065, Note_on_c, 6, 69, 76
21, 118203, Note_off_c, 6, 69, 64
21, 118288, Note_on_c, 6, 69, 72
21, 118344, Note_off_c, 6, 69, 64
21, 118412, Note_on_c, 6, 69, 85
21, 118553, Note_off_c, 6, 69, 64
21, 118648, Note_on_c, 6, 66, 66
21, 118698, Note_off_c, 6, 66, 64
21, 118781, Note_on_c, 6, 66, 89
21, 118900, Note_on_c, 6, 69, 66
21, 118918, Note_off_c, 6, 66, 64
21, 118972, Note_off_c, 6, 69, 64
21, 119019, Note_on_c, 6, 67, 60
21, 119062, Note_off_c, 6, 67, 64
21, 119152, Note_on_c, 6, 67, 95
21, 119255, Note_on_c, 6, 71, 70
21, 119267, Note_off_c, 6, 67, 64
21, 119332, Note_off_c, 6, 71, 64
21, 119368, Note_on_c, 6, 69, 66
21, 119418, Note_off_c, 6, 69, 64
21, 119508, Note_on_c, 6, 69, 82
21, 119697, Note_off_c, 6, 69, 64
21, 120812, Note_on_c, 6, 62, 52
21, 120862, Note_off_c, 6, 62, 64
21, 120932, Note_on_c, 6, 62, 66
21, 121085, Note_off_c, 6, 62, 64
21, 121165, Note_on_c, 6, 62, 60
21, 121217, Note_off_c, 6, 62, 64
21, 121281, Note_on_c, 6, 62, 66
21, 121436, Note_off_c, 6, 62, 64
21, 121519, Note_on_c, 6, 62, 58
21, 121575, Note_off_c, 6, 62, 64
21, 121659, Note_on_c, 6, 62, 68
21, 121812, Note_off_c, 6, 62, 64
21, 121888, Note_on_c, 6, 62, 60
21, 121955, Note_off_c, 6, 62, 64
21, 122018, Note_on_c, 6, 62, 64
21, 122178, Note_off_c, 6, 62, 64
21, 122262, Note_on_c, 6, 62, 68
21, 122324, Note_off_c, 6, 62, 64
21, 122392, Note_on_c, 6, 62, 78
21, 122543, Note_off_c, 6, 62, 64
21, 122617, Note_on_c, 6, 62, 82
21, 122689, Note_off_c, 6, 62, 64
21, 122750, Note_on_c, 6, 62, 76
21, 122879, Note_off_c, 6, 62, 64
21, 122977, Note_on_c, 6, 60, 82
21, 123045, Note_off_c, 6, 60, 64
21, 123105, Note_on_c, 6, 62, 82
21, 123254, Note_off_c, 6, 62, 64
21, 123321, Note_on_c, 6, 66, 63
21, 123384, Note_off_c, 6, 66, 64
21, 123450, Note_on_c, 6, 66, 80
21, 123578, Note_off_c, 6, 66, 64
21, 123684, Note_on_c, 6, 71, 78
21, 123753, Note_off_c, 6, 71, 64
21, 123816, Note_on_c, 6, 71, 82
21, 123944, Note_off_c, 6, 71, 64
21, 124052, Note_on_c, 6, 64, 64
21, 124122, Note_off_c, 6, 64, 64
21, 124181, Note_on_c, 6, 64, 82
21, 124330, Note_off_c, 6, 64, 64
21, 124412, Note_on_c, 6, 67, 72
21, 124475, Note_off_c, 6, 67, 64
21, 124545, Note_on_c, 6, 67, 76
21, 124678, Note_off_c, 6, 67, 64
21, 124775, Note_on_c, 6, 73, 61
21, 124845, Note_off_c, 6, 73, 64
21, 124901, Note_on_c, 6, 73, 89
21, 125051, Note_off_c, 6, 73, 64
21, 125135, Note_on_c, 6, 66, 57
21, 125202, Note_off_c, 6, 66, 64
21, 125267, Note_on_c, 6, 66, 72
21, 125405, Note_off_c, 6, 66, 64
21, 125495, Note_on_c, 6, 69, 80
21, 125556, Note_off_c, 6, 69, 64
21, 125616, Note_on_c, 6, 69, 76
21, 125774, Note_off_c, 6, 69, 64
21, 125843, Note_on_c, 6, 74, 76
21, 125909, Note_off_c, 6, 74, 64
21, 125972, Note_on_c, 6, 74, 87
21, 126131, Note_off_c, 6, 74, 64
21, 126224, Note_on_c, 6, 68, 62
21, 126294, Note_off_c, 6, 68, 64
21, 126359, Note_on_c, 6, 68, 80
21, 126491, Note_off_c, 6, 68, 64
21, 126582, Note_on_c, 6, 71, 68
21, 126656, Note_off_c, 6, 71, 64
21, 126714, Note_on_c, 6, 71, 78
21, 126852, Note_off_c, 6, 71, 64
21, 126941, Note_on_c, 6, 76, 80
21, 127006, Note_off_c, 6, 76, 64
21, 127079, Note_on_c, 6, 76, 93
21, 127247, Note_off_c, 6, 76, 64
21, 139676, Note_on_c, 6, 71, 70
21, 139827, Note_off_c, 6, 71, 64
21, 140734, Note_on_c, 6, 67, 68
21, 140918, Note_off_c, 6, 67, 64
21, 141326, Note_on_c, 6, 69, 63
21, 141382, Note_off_c, 6, 69, 64
21, 141467, Note_on_c, 6, 69, 89
21, 141558, Note_on_c, 6, 71, 70
21, 141594, Note_off_c, 6, 69, 64
21, 141641, Note_off_c, 6, 71, 64
21, 141684, Note_on_c, 6, 67, 56
21, 141724, Note_off_c, 6, 67, 64
21, 141828, Note_on_c, 6, 67, 87
21, 141927, Note_on_c, 6, 69, 63
21, 141951, Note_off_c, 6, 67, 64
21, 142010, Note_off_c, 6, 69, 64
21, 142044, Note_on_c, 6, 66, 57
21, 142086, Note_off_c, 6, 66, 64
21, 142192, Note_on_c, 6, 66, 76
21, 142376, Note_off_c, 6, 66, 64
21, 142786, Note_on_c, 6, 71, 58
21, 142840, Note_off_c, 6, 71, 64
21, 142914, Note_on_c, 6, 71, 72
21, 143058, Note_off_c, 6, 71, 64
21, 143148, Note_on_c, 6, 71, 46
21, 143200, Note_off_c, 6, 71, 64
21, 143277, Note_on_c, 6, 71, 78
21, 143486, Note_off_c, 6, 71, 64
21, 143852, Note_on_c, 6, 72, 64
21, 143904, Note_off_c, 6, 72, 64
21, 143976, Note_on_c, 6, 71, 85
21, 144106, Note_off_c, 6, 71, 64
21, 144206, Note_on_c, 6, 72, 78
21, 144272, Note_off_c, 6, 72, 64
21, 144327, Note_on_c, 6, 66, 70
21, 144541, Note_off_c, 6, 66, 64
21, 144903, Note_on_c, 6, 67, 70
21, 144969, Note_off_c, 6, 67, 64
21, 145041, Note_on_c, 6, 66, 89
21, 145166, Note_off_c, 6, 66, 64
21, 145266, Note_on_c, 6, 71, 70
21, 145322, Note_off_c, 6, 71, 64
21, 145401, Note_on_c, 6, 71, 74
21, 145614, Note_off_c, 6, 71, 64
21, 145979, Note_on_c, 6, 66, 58
21, 146055, Note_off_c, 6, 66, 64
21, 146130, Note_on_c, 6, 64, 80
21, 146265, Note_off_c, 6, 64, 64
21, 146359, Note_on_c, 6, 69, 62
21, 146414, Note_off_c, 6, 69, 64
21, 146501, Note_on_c, 6, 62, 66
21, 146652, Note_off_c, 6, 62, 64
21, 146744, Note_on_c, 6, 62, 58
21, 146793, Note_off_c, 6, 62, 64
21, 146856, Note_on_c, 6, 62, 70
21, 146984, Note_off_c, 6, 62, 64
21, 147101, Note_on_c, 6, 62, 62
21, 147160, Note_off_c, 6, 62, 64
21, 147227, Note_on_c, 6, 62, 80
21, 147369, Note_off_c, 6, 62, 64
21, 147452, Note_on_c, 6, 62, 59
21, 147513, Note_off_c, 6, 62, 64
21, 147587, Note_on_c, 6, 62, 74
21, 147756, Note_off_c, 6, 62, 64
21, 149039, Note_on_c, 6, 62, 72
21, 149190, Note_off_c, 6, 62, 64
21, 149401, Note_on_c, 6, 62, 66
21, 149549, Note_off_c, 6, 62, 64
21, 149741, Note_on_c, 6, 66, 62
21, 149882, Note_off_c, 6, 66, 64
21, 149975, Note_on_c, 6, 66, 62
21, 150031, Note_off_c, 6, 66, 64
21, 150099, Note_on_c, 6, 66, 80
21, 150207, Note_off_c, 6, 66, 64
21, 150335, Note_on_c, 6, 67, 66
21, 150395, Note_off_c, 6, 67, 64
21, 150470, Note_on_c, 6, 60, 78
21, 150589, Note_off_c, 6, 60, 64
21, 150684, Note_on_c, 6, 62, 66
21, 150738, Note_off_c, 6, 62, 64
21, 150823, Note_on_c, 6, 62, 68
21, 150984, Note_off_c, 6, 62, 64
21, 151185, Note_on_c, 6, 62, 78
21, 151324, Note_off_c, 6, 62, 64
21, 151532, Note_on_c, 6, 66, 64
21, 151664, Note_off_c, 6, 66, 64
21, 151889, Note_on_c, 6, 69, 80
21, 152006, Note_on_c, 6, 64, 64
21, 152009, Note_off_c, 6, 69, 64
21, 152123, Note_on_c, 6, 65, 78
21, 152126, Note_off_c, 6, 64, 64
21, 152198, Note_off_c, 6, 65, 64
21, 152258, Note_on_c, 6, 67, 85
21, 152371, Note_on_c, 6, 69, 64
21, 152382, Note_off_c, 6, 67, 64
21, 152445, Note_off_c, 6, 69, 64
21, 152484, Note_on_c, 6, 65, 64
21, 152533, Note_off_c, 6, 65, 64
21, 152616, Note_on_c, 6, 65, 76
21, 152724, Note_on_c, 6, 67, 64
21, 152738, Note_off_c, 6, 65, 64
21, 152805, Note_off_c, 6, 67, 64
21, 152837, Note_on_c, 6, 64, 58
21, 152897, Note_off_c, 6, 64, 64
21, 152987, Note_on_c, 6, 64, 82
21, 153122, Note_off_c, 6, 64, 64
21, 153215, Note_on_c, 6, 67, 62
21, 153275, Note_off_c, 6, 67, 64
21, 153350, Note_on_c, 6, 69, 76
21, 153482, Note_off_c, 6, 69, 64
21, 153579, Note_on_c, 6, 64, 64
21, 153642, Note_off_c, 6, 64, 64
21, 153705, Note_on_c, 6, 64, 80
21, 153834, Note_off_c, 6, 64, 64
21, 153939, Note_on_c, 6, 64, 64
21, 154014, Note_off_c, 6, 64, 64
21, 154074, Note_on_c, 6, 62, 85
21, 154176, Note_on_c, 6, 64, 66
21, 154198, Note_off_c, 6, 62, 64
21, 154259, Note_off_c, 6, 64, 64
21, 154293, Note_on_c, 6, 66, 70
21, 154349, Note_off_c, 6, 66, 64
21, 154419, Note_on_c, 6, 66, 100
21, 154522, Note_on_c, 6, 67, 82
21, 154556, Note_off_c, 6, 66, 64
21, 154637, Note_on_c, 6, 69, 72
21, 154652, Note_off_c, 6, 67, 64
21, 154700, Note_off_c, 6, 69, 64
21, 154779, Note_on_c, 6, 62, 82
21, 154893, Note_off_c, 6, 62, 64
21, 154995, Note_on_c, 6, 69, 62
21, 155055, Note_off_c, 6, 69, 64
21, 155138, Note_on_c, 6, 71, 85
21, 155255, Note_off_c, 6, 71, 64
21, 155360, Note_on_c, 6, 69, 64
21, 155431, Note_off_c, 6, 69, 64
21, 155498, Note_on_c, 6, 67, 82
21, 155620, Note_off_c, 6, 67, 64
21, 155735, Note_on_c, 6, 69, 66
21, 155791, Note_off_c, 6, 69, 64
21, 155865, Note_on_c, 6, 62, 74
21, 155987, Note_off_c, 6, 62, 64
21, 156088, Note_on_c, 6, 62, 68
21, 156160, Note_off_c, 6, 62, 64
21, 156218, Note_on_c, 6, 62, 82
21, 156363, Note_off_c, 6, 62, 64
21, 156588, Note_on_c, 6, 62, 74
21, 156725, Note_off_c, 6, 62, 64
21, 156938, Note_on_c, 6, 69, 72
21, 157055, Note_off_c, 6, 69, 64
21, 157285, Note_on_c, 6, 71, 66
21, 157411, Note_off_c, 6, 71, 64
21, 157651, Note_on_c, 6, 74, 78
21, 157771, Note_off_c, 6, 74, 64
21, 158016, Note_on_c, 6, 62, 80
21, 158158, Note_off_c, 6, 62, 64
21, 158379, Note_on_c, 6, 62, 66
21, 158560, Note_off_c, 6, 62, 64
21, 180224, Note_on_c, 6, 66, 57
21, 180282, Note_off_c, 6, 66, 64
21, 180361, Note_on_c, 6, 66, 72
21, 180464, Note_off_c, 6, 66, 64
21, 180588, Note_on_c, 6, 69, 63
21, 180647, Note_off_c, 6, 69, 64
21, 180717, Note_on_c, 6, 66, 68
21, 180825, Note_off_c, 6, 66, 64
21, 180941, Note_on_c, 6, 62, 66
21, 181014, Note_off_c, 6, 62, 64
21, 181077, Note_on_c, 6, 67, 80
21, 181180, Note_off_c, 6, 67, 64
21, 181302, Note_on_c, 6, 71, 68
21, 181362, Note_off_c, 6, 71, 64
21, 181437, Note_on_c, 6, 67, 80
21, 181544, Note_on_c, 6, 69, 80
21, 181567, Note_off_c, 6, 67, 64
21, 181646, Note_on_c, 6, 71, 68
21, 181648, Note_off_c, 6, 69, 64
21, 181715, Note_off_c, 6, 71, 64
21, 181785, Note_on_c, 6, 64, 63
21, 181889, Note_off_c, 6, 64, 64
21, 182012, Note_on_c, 6, 64, 66
21, 182072, Note_off_c, 6, 64, 64
21, 182156, Note_on_c, 6, 64, 78
21, 182388, Note_off_c, 6, 64, 64
21, 182720, Note_on_c, 6, 69, 70
21, 182784, Note_off_c, 6, 69, 64
21, 182850, Note_on_c, 6, 64, 64
21, 182977, Note_off_c, 6, 64, 64
21, 183063, Note_on_c, 6, 69, 64
21, 183120, Note_off_c, 6, 69, 64
21, 183201, Note_on_c, 6, 62, 82
21, 183311, Note_on_c, 6, 66, 66
21, 183324, Note_off_c, 6, 62, 64
21, 183403, Note_off_c, 6, 66, 64
21, 183425, Note_on_c, 6, 67, 80
21, 183510, Note_off_c, 6, 67, 64
21, 183561, Note_on_c, 6, 69, 82
21, 183666, Note_off_c, 6, 69, 64
21, 183777, Note_on_c, 6, 73, 58
21, 183840, Note_off_c, 6, 73, 64
21, 183898, Note_on_c, 6, 64, 63
21, 184008, Note_off_c, 6, 64, 64
21, 184130, Note_on_c, 6, 66, 53
21, 184181, Note_off_c, 6, 66, 64
21, 184260, Note_on_c, 6, 66, 70
21, 184402, Note_off_c, 6, 66, 64
21, 184501, Note_on_c, 6, 66, 62
21, 184568, Note_off_c, 6, 66, 64
21, 184636, Note_on_c, 6, 62, 82
21, 184750, Note_on_c, 6, 64, 72
21, 184758, Note_off_c, 6, 62, 64
21, 184854, Note_off_c, 6, 64, 64
21, 184857, Note_on_c, 6, 66, 60
21, 184926, Note_off_c, 6, 66, 64
21, 185003, Note_on_c, 6, 71, 78
21, 185095, Note_off_c, 6, 71, 64
21, 185250, Note_on_c, 6, 71, 66
21, 185306, Note_off_c, 6, 71, 64
21, 185390, Note_on_c, 6, 71, 72
21, 185698, Note_off_c, 6, 71, 64
21, 185973, Note_on_c, 6, 64, 52
21, 186009, Note_off_c, 6, 64, 64
21, 186098, Note_on_c, 6, 64, 63
21, 186197, Note_off_c, 6, 64, 64
21, 186330, Note_on_c, 6, 64, 57
21, 186382, Note_off_c, 6, 64, 64
21, 186465, Note_on_c, 6, 64, 68
21, 186713, Note_off_c, 6, 64, 64
21, 187041, Note_on_c, 6, 62, 59
21, 187093, Note_off_c, 6, 62, 64
21, 187170, Note_on_c, 6, 62, 68
21, 187277, Note_off_c, 6, 62, 64
21, 187403, Note_on_c, 6, 62, 62
21, 187466, Note_off_c, 6, 62, 64
21, 187532, Note_on_c, 6, 62, 82
21, 187660, Note_off_c, 6, 62, 64
21, 187914, Note_on_c, 6, 64, 85
21, 188025, Note_off_c, 6, 64, 64
21, 188270, Note_on_c, 6, 66, 78
21, 188391, Note_off_c, 6, 66, 64
21, 188641, Note_on_c, 6, 71, 80
21, 188754, Note_off_c, 6, 71, 64
21, 188997, Note_on_c, 6, 71, 85
21, 189111, Note_off_c, 6, 71, 64
21, 189359, Note_on_c, 6, 68, 68
21, 189465, Note_off_c, 6, 68, 64
21, 189717, Note_on_c, 6, 64, 76
21, 189820, Note_off_c, 6, 64, 64
21, 190083, Note_on_c, 6, 76, 89
21, 190180, Note_off_c, 6, 76, 64
21, 190443, Note_on_c, 6, 73, 64
21, 190545, Note_off_c, 6, 73, 64
21, 190779, Note_on_c, 6, 69, 74
21, 190896, Note_off_c, 6, 69, 64
21, 191140, Note_on_c, 6, 69, 78
21, 191267, Note_off_c, 6, 69, 64
21, 191499, Note_on_c, 6, 66, 70
21, 191613, Note_off_c, 6, 66, 64
21, 191845, Note_on_c, 6, 62, 68
21, 192003, Note_off_c, 6, 62, 64
21, 192446, Note_on_c, 6, 67, 72
21, 192515, Note_off_c, 6, 67, 64
21, 192572, Note_on_c, 6, 69, 76
21, 192657, Note_off_c, 6, 69, 64
21, 192790, Note_on_c, 6, 64, 61
21, 192871, Note_off_c, 6, 64, 64
21, 192929, Note_on_c, 6, 69, 78
21, 193058, Note_off_c, 6, 69, 64
21, 193533, Note_on_c, 6, 69, 70
21, 193605, Note_off_c, 6, 69, 64
21, 193652, Note_on_c, 6, 71, 72
21, 193753, Note_off_c, 6, 71, 64
21, 193892, Note_on_c, 6, 66, 59
21, 193964, Note_off_c, 6, 66, 64
21, 194021, Note_on_c, 6, 71, 76
21, 194163, Note_off_c, 6, 71, 64
21, 194612, Note_on_c, 6, 64, 63
21, 194685, Note_off_c, 6, 64, 64
21, 194743, Note_on_c, 6, 69, 82
21, 194849, Note_off_c, 6, 69, 64
21, 194981, Note_on_c, 6, 71, 66
21, 195031, Note_off_c, 6, 71, 64
21, 195107, Note_on_c, 6, 71, 85
21, 195209, Note_off_c, 6, 71, 64
21, 195332, Note_on_c, 6, 71, 58
21, 195391, Note_off_c, 6, 71, 64
21, 195468, Note_on_c, 6, 71, 63
21, 195576, Note_off_c, 6, 71, 64
21, 195699, Note_on_c, 6, 71, 66
21, 195753, Note_off_c, 6, 71, 64
21, 195834, Note_on_c, 6, 71, 82
21, 195949, Note_off_c, 6, 71, 64
21, 196062, Note_on_c, 6, 71, 66
21, 196127, Note_off_c, 6, 71, 64
21, 196192, Note_on_c, 6, 69, 76
21, 196302, Note_off_c, 6, 69, 64
21, 196410, Note_on_c, 6, 69, 66
21, 196471, Note_off_c, 6, 69, 64
21, 196545, Note_on_c, 6, 69, 68
21, 196665, Note_off_c, 6, 69, 64
21, 196773, Note_on_c, 6, 69, 66
21, 196833, Note_off_c, 6, 69, 64
21, 196899, Note_on_c, 6, 69, 80
21, 197007, Note_off_c, 6, 69, 64
21, 197119, Note_on_c, 6, 69, 63
21, 197182, Note_off_c, 6, 69, 64
21, 197254, Note_on_c, 6, 69, 70
21, 197358, Note_off_c, 6, 69, 64
21, 197479, Note_on_c, 6, 69, 66
21, 197546, Note_off_c, 6, 69, 64
21, 197612, Note_on_c, 6, 69, 80
21, 197713, Note_off_c, 6, 69, 64
21, 197826, Note_on_c, 6, 67, 64
21, 197898, Note_off_c, 6, 67, 64
21, 197961, Note_on_c, 6, 64, 68
21, 198071, Note_off_c, 6, 64, 64
21, 198190, Note_on_c, 6, 64, 64
21, 198287, Note_off_c, 6, 64, 64
21, 198339, Note_on_c, 6, 66, 70
21, 198465, Note_off_c, 6, 66, 64
21, 198712, Note_on_c, 6, 69, 80
21, 198843, Note_off_c, 6, 69, 64
21, 199085, Note_on_c, 6, 73, 68
21, 199207, Note_off_c, 6, 73, 64
21, 199434, Note_on_c, 6, 78, 70
21, 199553, Note_off_c, 6, 78, 64
21, 199792, Note_on_c, 6, 69, 78
21, 199916, Note_off_c, 6, 69, 64
21, 200148, Note_on_c, 6, 73, 70
21, 200287, Note_off_c, 6, 73, 64
21, 222093, Note_on_c, 6, 69, 76
21, 222147, Note_off_c, 6, 69, 64
21, 222206, Note_on_c, 6, 69, 85
21, 222306, Note_on_c, 6, 71, 63
21, 222324, Note_off_c, 6, 69, 64
21, 222372, Note_off_c, 6, 71, 64
21, 222417, Note_on_c, 6, 67, 59
21, 222461, Note_off_c, 6, 67, 64
21, 222552, Note_on_c, 6, 67, 89
21, 222655, Note_on_c, 6, 69, 62
21, 222678, Note_off_c, 6, 67, 64
21, 222729, Note_off_c, 6, 69, 64
21, 222768, Note_on_c, 6, 66, 58
21, 222812, Note_off_c, 6, 66, 64
21, 222905, Note_on_c, 6, 66, 89
21, 223012, Note_off_c, 6, 66, 64
21, 223017, Note_on_c, 6, 67, 60
21, 223080, Note_off_c, 6, 67, 64
21, 223143, Note_on_c, 6, 69, 66
21, 223195, Note_off_c, 6, 69, 64
21, 223276, Note_on_c, 6, 71, 98
21, 223388, Note_on_c, 6, 73, 57
21, 223391, Note_off_c, 6, 71, 64
21, 223470, Note_off_c, 6, 73, 64
21, 223506, Note_on_c, 6, 69, 59
21, 223557, Note_off_c, 6, 69, 64
21, 223636, Note_on_c, 6, 69, 85
21, 223740, Note_on_c, 6, 71, 59
21, 223757, Note_off_c, 6, 69, 64
21, 223814, Note_off_c, 6, 71, 64
21, 223863, Note_on_c, 6, 68, 63
21, 223911, Note_off_c, 6, 68, 64
21, 224001, Note_on_c, 6, 68, 72
21, 224142, Note_off_c, 6, 68, 64
21, 224243, Note_on_c, 6, 68, 51
21, 224302, Note_off_c, 6, 68, 64
21, 224365, Note_on_c, 6, 68, 57
21, 224487, Note_off_c, 6, 68, 64
21, 224601, Note_on_c, 6, 68, 55
21, 224652, Note_off_c, 6, 68, 64
21, 224723, Note_on_c, 6, 68, 68
21, 224842, Note_off_c, 6, 68, 64
21, 224952, Note_on_c, 6, 68, 57
21, 225002, Note_off_c, 6, 68, 64
21, 225083, Note_on_c, 6, 69, 72
21, 225166, Note_off_c, 6, 69, 64
21, 225200, Note_on_c, 6, 73, 63
21, 225270, Note_off_c, 6, 73, 64
21, 225303, Note_on_c, 6, 71, 60
21, 225375, Note_off_c, 6, 71, 64
21, 225440, Note_on_c, 6, 73, 89
21, 225542, Note_off_c, 6, 73, 64
21, 225675, Note_on_c, 6, 71, 48
21, 225726, Note_off_c, 6, 71, 64
21, 225803, Note_on_c, 6, 73, 66
21, 225886, Note_off_c, 6, 73, 64
21, 226034, Note_on_c, 6, 69, 76
21, 226077, Note_off_c, 6, 69, 64
21, 226185, Note_on_c, 6, 62, 82
21, 226277, Note_on_c, 6, 64, 57
21, 226297, Note_off_c, 6, 62, 64
21, 226350, Note_off_c, 6, 64, 64
21, 226400, Note_on_c, 6, 66, 66
21, 226455, Note_off_c, 6, 66, 64
21, 226534, Note_on_c, 6, 66, 89
21, 226634, Note_off_c, 6, 66, 64
21, 226768, Note_on_c, 6, 69, 66
21, 226836, Note_off_c, 6, 69, 64
21, 226898, Note_on_c, 6, 66, 82
21, 226970, Note_off_c, 6, 66, 64
21, 227141, Note_on_c, 6, 62, 63
21, 227209, Note_off_c, 6, 62, 64
21, 227267, Note_on_c, 6, 67, 82
21, 227375, Note_off_c, 6, 67, 64
21, 227501, Note_on_c, 6, 71, 66
21, 227551, Note_off_c, 6, 71, 64
21, 227630, Note_on_c, 6, 67, 87
21, 227738, Note_on_c, 6, 69, 68
21, 227760, Note_off_c, 6, 67, 64
21, 227839, Note_off_c, 6, 69, 64
21, 227848, Note_on_c, 6, 71, 60
21, 227927, Note_off_c, 6, 71, 64
21, 227994, Note_on_c, 6, 64, 68
21, 228114, Note_off_c, 6, 64, 64
21, 228224, Note_on_c, 6, 64, 64
21, 228285, Note_off_c, 6, 64, 64
21, 228357, Note_on_c, 6, 64, 80
21, 228586, Note_off_c, 6, 64, 64
21, 228937, Note_on_c, 6, 69, 68
21, 228996, Note_off_c, 6, 69, 64
21, 229067, Note_on_c, 6, 64, 70
21, 229176, Note_off_c, 6, 64, 64
21, 229296, Note_on_c, 6, 69, 68
21, 229347, Note_off_c, 6, 69, 64
21, 229414, Note_on_c, 6, 62, 78
21, 229520, Note_on_c, 6, 66, 64
21, 229526, Note_off_c, 6, 62, 64
21, 229590, Note_off_c, 6, 66, 64
21, 229641, Note_on_c, 6, 67, 72
21, 229707, Note_off_c, 6, 67, 64
21, 229765, Note_on_c, 6, 69, 82
21, 229884, Note_off_c, 6, 69, 64
21, 229994, Note_on_c, 6, 73, 58
21, 230051, Note_off_c, 6, 73, 64
21, 230111, Note_on_c, 6, 64, 78
21, 230222, Note_off_c, 6, 64, 64
21, 230334, Note_on_c, 6, 66, 59
21, 230391, Note_off_c, 6, 66, 64
21, 230468, Note_on_c, 6, 66, 82
21, 230613, Note_off_c, 6, 66, 64
21, 230700, Note_on_c, 6, 66, 68
21, 230766, Note_off_c, 6, 66, 64
21, 230822, Note_on_c, 6, 62, 80
21, 230935, Note_on_c, 6, 64, 68
21, 230955, Note_off_c, 6, 62, 64
21, 231047, Note_off_c, 6, 64, 64
21, 231047, Note_on_c, 6, 66, 78
21, 231097, Note_off_c, 6, 66, 64
21, 231201, Note_on_c, 6, 66, 78
21, 231302, Note_off_c, 6, 66, 64
21, 231417, Note_on_c, 6, 71, 70
21, 231484, Note_off_c, 6, 71, 64
21, 231558, Note_on_c, 6, 71, 74
21, 231720, Note_off_c, 6, 71, 64
21, 232186, Note_on_c, 6, 64, 53
21, 232233, Note_off_c, 6, 64, 64
21, 232289, Note_on_c, 6, 64, 72
21, 232415, Note_off_c, 6, 64, 64
21, 232532, Note_on_c, 6, 64, 56
21, 232584, Note_off_c, 6, 64, 64
21, 232643, Note_on_c, 6, 64, 78
21, 232794, Note_off_c, 6, 64, 64
21, 233238, Note_on_c, 6, 62, 45
21, 233279, Note_off_c, 6, 62, 64
21, 233352, Note_on_c, 6, 62, 64
21, 233493, Note_off_c, 6, 62, 64
21, 233590, Note_on_c, 6, 62, 62
21, 233644, Note_off_c, 6, 62, 64
21, 233711, Note_on_c, 6, 62, 61
21, 233855, Note_off_c, 6, 62, 64
21, 234094, Note_on_c, 6, 64, 78
21, 234231, Note_off_c, 6, 64, 64
21, 234472, Note_on_c, 6, 66, 64
21, 234616, Note_off_c, 6, 66, 64
21, 234836, Note_on_c, 6, 71, 82
21, 234960, Note_off_c, 6, 71, 64
21, 235176, Note_on_c, 6, 71, 82
21, 235322, Note_off_c, 6, 71, 64
21, 235536, Note_on_c, 6, 68, 63
21, 235650, Note_off_c, 6, 68, 64
21, 235892, Note_on_c, 6, 64, 68
21, 236011, Note_off_c, 6, 64, 64
21, 236261, Note_on_c, 6, 76, 87
21, 236400, Note_off_c, 6, 76, 64
21, 236616, Note_on_c, 6, 73, 60
21, 236754, Note_off_c, 6, 73, 64
21, 236974, Note_on_c, 6, 69, 74
21, 237096, Note_off_c, 6, 69, 64
21, 237330, Note_on_c, 6, 69, 74
21, 237464, Note_off_c, 6, 69, 64
21, 237699, Note_on_c, 6, 66, 63
21, 237831, Note_off_c, 6, 66, 64
21, 238054, Note_on_c, 6, 62, 55
21, 238230, Note_off_c, 6, 62, 64
21, 238643, Note_on_c, 6, 67, 68
21, 238716, Note_off_c, 6, 67, 64
21, 238774, Note_on_c, 6, 69, 78
21, 238889, Note_off_c, 6, 69, 64
21, 239021, Note_on_c, 6, 64, 58
21, 239091, Note_off_c, 6, 64, 64
21, 239145, Note_on_c, 6, 69, 80
21, 239283, Note_off_c, 6, 69, 64
21, 239721, Note_on_c, 6, 69, 68
21, 239793, Note_off_c, 6, 69, 64
21, 239845, Note_on_c, 6, 71, 72
21, 239966, Note_off_c, 6, 71, 64
21, 240084, Note_on_c, 6, 66, 57
21, 240158, Note_off_c, 6, 66, 64
21, 240219, Note_on_c, 6, 71, 78
21, 240353, Note_off_c, 6, 71, 64
21, 240821, Note_on_c, 6, 64, 68
21, 240896, Note_off_c, 6, 64, 64
21, 240952, Note_on_c, 6, 69, 89
21, 241060, Note_off_c, 6, 69, 64
21, 241175, Note_on_c, 6, 71, 64
21, 241231, Note_off_c, 6, 71, 64
21, 241285, Note_on_c, 6, 71, 72
21, 241426, Note_off_c, 6, 71, 64
21, 241533, Note_on_c, 6, 71, 60
21, 241586, Note_off_c, 6, 71, 64
21, 241647, Note_on_c, 6, 71, 64
21, 241780, Note_off_c, 6, 71, 64
21, 241879, Note_on_c, 6, 71, 60
21, 241942, Note_off_c, 6, 71, 64
21, 242003, Note_on_c, 6, 71, 60
21, 242150, Note_off_c, 6, 71, 64
21, 242248, Note_on_c, 6, 71, 60
21, 242300, Note_off_c, 6, 71, 64
21, 242379, Note_on_c, 6, 69, 72
21, 242514, Note_off_c, 6, 69, 64
21, 242617, Note_on_c, 6, 69, 60
21, 242671, Note_off_c, 6, 69, 64
21, 242745, Note_on_c, 6, 69, 66
21, 242874, Note_off_c, 6, 69, 64
21, 242979, Note_on_c, 6, 69, 58
21, 243033, Note_off_c, 6, 69, 64
21, 243085, Note_on_c, 6, 69, 66
21, 243234, Note_off_c, 6, 69, 64
21, 243332, Note_on_c, 6, 69, 54
21, 243386, Note_off_c, 6, 69, 64
21, 243452, Note_on_c, 6, 69, 64
21, 243573, Note_off_c, 6, 69, 64
21, 243681, Note_on_c, 6, 69, 61
21, 243744, Note_off_c, 6, 69, 64
21, 243809, Note_on_c, 6, 69, 64
21, 243927, Note_off_c, 6, 69, 64
21, 244035, Note_on_c, 6, 67, 63
21, 244109, Note_off_c, 6, 67, 64
21, 244172, Note_on_c, 6, 64, 62
21, 244304, Note_off_c, 6, 64, 64
21, 244404, Note_on_c, 6, 64, 63
21, 244473, Note_off_c, 6, 64, 64
21, 244539, Note_on_c, 6, 66, 66
21, 244669, Note_off_c, 6, 66, 64
21, 244782, Note_on_c, 6, 66, 66
21, 244835, Note_off_c, 6, 66, 64
21, 244932, Note_on_c, 6, 66, 102
21, 245029, Note_on_c, 6, 67, 66
21, 245050, Note_off_c, 6, 66, 64
21, 245092, Note_off_c, 6, 67, 64
21, 245151, Note_on_c, 6, 64, 64
21, 245202, Note_off_c, 6, 64, 64
21, 245285, Note_on_c, 6, 64, 78
21, 245389, Note_off_c, 6, 64, 64
21, 245396, Note_on_c, 6, 66, 60
21, 245459, Note_off_c, 6, 66, 64
21, 245502, Note_on_c, 6, 62, 62
21, 245558, Note_off_c, 6, 62, 64
21, 245634, Note_on_c, 6, 62, 78
21, 245740, Note_on_c, 6, 64, 63
21, 245762, Note_off_c, 6, 62, 64
21, 245803, Note_off_c, 6, 64, 64
21, 245861, Note_on_c, 6, 66, 59
21, 245906, Note_off_c, 6, 66, 64
21, 245985, Note_on_c, 6, 66, 85
21, 246078, Note_on_c, 6, 67, 68
21, 246104, Note_off_c, 6, 66, 64
21, 246150, Note_off_c, 6, 67, 64
21, 246201, Note_on_c, 6, 64, 64
21, 246249, Note_off_c, 6, 64, 64
21, 246330, Note_on_c, 6, 64, 80
21, 246426, Note_off_c, 6, 64, 64
21, 246440, Note_on_c, 6, 66, 56
21, 246512, Note_off_c, 6, 66, 64
21, 246557, Note_on_c, 6, 62, 58
21, 246615, Note_off_c, 6, 62, 64
21, 246690, Note_on_c, 6, 62, 78
21, 246822, Note_off_c, 6, 62, 64
21, 247063, Note_on_c, 6, 64, 82
21, 247185, Note_off_c, 6, 64, 64
21, 247410, Note_on_c, 6, 66, 68
21, 247557, Note_off_c, 6, 66, 64
21, 267588, Note_on_c, 6, 64, 68
21, 267696, Note_off_c, 6, 64, 64
21, 267948, Note_on_c, 6, 71, 66
21, 268083, Note_off_c, 6, 71, 64
21, 268316, Note_on_c, 6, 73, 66
21, 268442, Note_off_c, 6, 73, 64
21, 268676, Note_on_c, 6, 76, 80
21, 268796, Note_off_c, 6, 76, 64
21, 269034, Note_on_c, 6, 64, 78
21, 269160, Note_off_c, 6, 64, 64
21, 269360, Note_on_c, 6, 64, 82
21, 269477, Note_on_c, 6, 68, 66
21, 269482, Note_off_c, 6, 64, 64
21, 269585, Note_on_c, 6, 66, 64
21, 269588, Note_off_c, 6, 68, 64
21, 269653, Note_off_c, 6, 66, 64
21, 269720, Note_on_c, 6, 68, 78
21, 269844, Note_off_c, 6, 68, 64
21, 269954, Note_on_c, 6, 66, 59
21, 270029, Note_off_c, 6, 66, 64
21, 270083, Note_on_c, 6, 68, 89
21, 270198, Note_off_c, 6, 68, 64
21, 270339, Note_on_c, 6, 64, 66
21, 270402, Note_off_c, 6, 64, 64
21, 270465, Note_on_c, 6, 69, 80
21, 270571, Note_off_c, 6, 69, 64
21, 270695, Note_on_c, 6, 76, 78
21, 270764, Note_off_c, 6, 76, 64
21, 270823, Note_on_c, 6, 73, 85
21, 270942, Note_off_c, 6, 73, 64
21, 271046, Note_on_c, 6, 73, 64
21, 271129, Note_off_c, 6, 73, 64
21, 271170, Note_on_c, 6, 71, 74
21, 271255, Note_off_c, 6, 71, 64
21, 271407, Note_on_c, 6, 66, 63
21, 271473, Note_off_c, 6, 66, 64
21, 271532, Note_on_c, 6, 66, 76
21, 271664, Note_off_c, 6, 66, 64
21, 271764, Note_on_c, 6, 66, 66
21, 271838, Note_off_c, 6, 66, 64
21, 271890, Note_on_c, 6, 62, 80
21, 271995, Note_on_c, 6, 64, 70
21, 272015, Note_off_c, 6, 62, 64
21, 272100, Note_off_c, 6, 64, 64
21, 272112, Note_on_c, 6, 66, 63
21, 272187, Note_off_c, 6, 66, 64
21, 272250, Note_on_c, 6, 71, 76
21, 272371, Note_off_c, 6, 71, 64
21, 272495, Note_on_c, 6, 71, 70
21, 272551, Note_off_c, 6, 71, 64
21, 272643, Note_on_c, 6, 71, 87
21, 273038, Note_off_c, 6, 71, 64
21, 273224, Note_on_c, 6, 64, 63
21, 273280, Note_off_c, 6, 64, 64
21, 273341, Note_on_c, 6, 71, 82
21, 273478, Note_off_c, 6, 71, 64
21, 273566, Note_on_c, 6, 71, 66
21, 273631, Note_off_c, 6, 71, 64
21, 273701, Note_on_c, 6, 69, 76
21, 273809, Note_off_c, 6, 69, 64
21, 273815, Note_on_c, 6, 73, 60
21, 273906, Note_off_c, 6, 73, 64
21, 273921, Note_on_c, 6, 71, 70
21, 273977, Note_off_c, 6, 71, 64
21, 274050, Note_on_c, 6, 69, 85
21, 274160, Note_on_c, 6, 71, 63
21, 274175, Note_off_c, 6, 69, 64
21, 274218, Note_off_c, 6, 71, 64
21, 274287, Note_on_c, 6, 68, 87
21, 274338, Note_off_c, 6, 68, 64
21, 274412, Note_on_c, 6, 68, 89
21, 274513, Note_off_c, 6, 68, 64
21, 274517, Note_on_c, 6, 69, 63
21, 274590, Note_off_c, 6, 69, 64
21, 274639, Note_on_c, 6, 64, 68
21, 274702, Note_off_c, 6, 64, 64
21, 274765, Note_on_c, 6, 64, 62
21, 274900, Note_off_c, 6, 64, 64
21, 275003, Note_on_c, 6, 73, 61
21, 275073, Note_off_c, 6, 73, 64
21, 275121, Note_on_c, 6, 74, 82
21, 275238, Note_off_c, 6, 74, 64
21, 275368, Note_on_c, 6, 64, 68
21, 275438, Note_off_c, 6, 64, 64
21, 275508, Note_on_c, 6, 64, 87
21, 275620, Note_off_c, 6, 64, 64
21, 275746, Note_on_c, 6, 66, 59
21, 275805, Note_off_c, 6, 66, 64
21, 275873, Note_on_c, 6, 66, 78
21, 276245, Note_off_c, 6, 66, 64
21, 276438, Note_on_c, 6, 71, 74
21, 276531, Note_off_c, 6, 71, 64
21, 276573, Note_on_c, 6, 66, 80
21, 276660, Note_off_c, 6, 66, 64
21, 276777, Note_on_c, 6, 71, 68
21, 276848, Note_off_c, 6, 71, 64
21, 276920, Note_on_c, 6, 64, 66
21, 277339, Note_off_c, 6, 64, 64
21, 277515, Note_on_c, 6, 69, 70
21, 277604, Note_off_c, 6, 69, 64
21, 277643, Note_on_c, 6, 64, 80
21, 277776, Note_off_c, 6, 64, 64
21, 277870, Note_on_c, 6, 69, 72
21, 277960, Note_off_c, 6, 69, 64
21, 278010, Note_on_c, 6, 62, 78
21, 278147, Note_off_c, 6, 62, 64
21, 278243, Note_on_c, 6, 69, 74
21, 278336, Note_off_c, 6, 69, 64
21, 278388, Note_on_c, 6, 74, 80
21, 278543, Note_off_c, 6, 74, 64
21, 278619, Note_on_c, 6, 69, 68
21, 278684, Note_off_c, 6, 69, 64
21, 278739, Note_on_c, 6, 69, 70
21, 278862, Note_off_c, 6, 69, 64
21, 278961, Note_on_c, 6, 71, 68
21, 279031, Note_off_c, 6, 71, 64
21, 279098, Note_on_c, 6, 71, 74
21, 279227, Note_off_c, 6, 71, 64
21, 279463, Note_on_c, 6, 66, 74
21, 279589, Note_off_c, 6, 66, 64
21, 279816, Note_on_c, 6, 63, 78
21, 279945, Note_off_c, 6, 63, 64
21, 280171, Note_on_c, 6, 71, 82
21, 280314, Note_off_c, 6, 71, 64
21, 280527, Note_on_c, 6, 71, 78
21, 280673, Note_off_c, 6, 71, 64
21, 280878, Note_on_c, 6, 68, 76
21, 281013, Note_off_c, 6, 68, 64
21, 281240, Note_on_c, 6, 64, 68
21, 281376, Note_off_c, 6, 64, 64
21, 281616, Note_on_c, 6, 64, 85
21, 281747, Note_off_c, 6, 64, 64
21, 281985, Note_on_c, 6, 64, 70
21, 282111, Note_off_c, 6, 64, 64
21, 282334, Note_on_c, 6, 69, 85
21, 282518, Note_off_c, 6, 69, 64
21, 282871, Note_on_c, 6, 62, 68
21, 282968, Note_off_c, 6, 62, 64
21, 283006, Note_on_c, 6, 64, 82
21, 283121, Note_off_c, 6, 64, 64
21, 283250, Note_on_c, 6, 71, 78
21, 283321, Note_off_c, 6, 71, 64
21, 283380, Note_on_c, 6, 64, 78
21, 283652, Note_off_c, 6, 64, 64
21, 283970, Note_on_c, 6, 64, 66
21, 284053, Note_off_c, 6, 64, 64
21, 284100, Note_on_c, 6, 66, 78
21, 284219, Note_off_c, 6, 66, 64
21, 284357, Note_on_c, 6, 73, 72
21, 284424, Note_off_c, 6, 73, 64
21, 284483, Note_on_c, 6, 66, 68
21, 284768, Note_off_c, 6, 66, 64
21, 285068, Note_on_c, 6, 69, 70
21, 285146, Note_off_c, 6, 69, 64
21, 285194, Note_on_c, 6, 73, 68
21, 285304, Note_off_c, 6, 73, 64
21, 285443, Note_on_c, 6, 66, 66
21, 285513, Note_off_c, 6, 66, 64
21, 285581, Note_on_c, 6, 66, 68
21, 285704, Note_off_c, 6, 66, 64
21, 285795, Note_on_c, 6, 71, 72
21, 285871, Note_off_c, 6, 71, 64
21, 285925, Note_on_c, 6, 71, 82
21, 286056, Note_off_c, 6, 71, 64
21, 286161, Note_on_c, 6, 71, 63
21, 286229, Note_off_c, 6, 71, 64
21, 286289, Note_on_c, 6, 71, 82
21, 286416, Note_off_c, 6, 71, 64
21, 286514, Note_on_c, 6, 71, 72
21, 286580, Note_off_c, 6, 71, 64
21, 286650, Note_on_c, 6, 71, 82
21, 286764, Note_on_c, 6, 68, 70
21, 286784, Note_off_c, 6, 71, 64
21, 286854, Note_off_c, 6, 68, 64
21, 286880, Note_on_c, 6, 69, 78
21, 286942, Note_off_c, 6, 69, 64
21, 287014, Note_on_c, 6, 71, 91
21, 287113, Note_on_c, 6, 73, 61
21, 287136, Note_off_c, 6, 71, 64
21, 287223, Note_off_c, 6, 73, 64
21, 287235, Note_on_c, 6, 69, 61
21, 287286, Note_off_c, 6, 69, 64
21, 287365, Note_on_c, 6, 71, 91
21, 287475, Note_on_c, 6, 69, 62
21, 287518, Note_off_c, 6, 71, 64
21, 287583, Note_off_c, 6, 69, 64
21, 287592, Note_on_c, 6, 68, 70
21, 287664, Note_off_c, 6, 68, 64
21, 287711, Note_on_c, 6, 69, 78
21, 287850, Note_off_c, 6, 69, 64
21, 287954, Note_on_c, 6, 64, 64
21, 288015, Note_off_c, 6, 64, 64
21, 288076, Note_on_c, 6, 64, 80
21, 288211, Note_off_c, 6, 64, 64
21, 288317, Note_on_c, 6, 69, 74
21, 288386, Note_off_c, 6, 69, 64
21, 288445, Note_on_c, 6, 69, 80
21, 288553, Note_off_c, 6, 69, 64
21, 288686, Note_on_c, 6, 64, 74
21, 288740, Note_off_c, 6, 64, 64
21, 288819, Note_on_c, 6, 64, 82
21, 289224, Note_off_c, 6, 64, 64
21, 302026, Note_on_c, 6, 66, 57
21, 302082, Note_off_c, 6, 66, 64
21, 302150, Note_on_c, 6, 66, 59
21, 302280, Note_off_c, 6, 66, 64
21, 302363, Note_on_c, 6, 66, 53
21, 302436, Note_off_c, 6, 66, 64
21, 302489, Note_on_c, 6, 66, 63
21, 302651, Note_off_c, 6, 66, 64
21, 302728, Note_on_c, 6, 66, 57
21, 302793, Note_off_c, 6, 66, 64
21, 302861, Note_on_c, 6, 66, 68
21, 303041, Note_off_c, 6, 66, 64
21, 304157, Note_on_c, 6, 66, 60
21, 304217, Note_off_c, 6, 66, 64
21, 304289, Note_on_c, 6, 70, 82
21, 304400, Note_off_c, 6, 70, 64
21, 304512, Note_on_c, 6, 66, 58
21, 304568, Note_off_c, 6, 66, 64
21, 304652, Note_on_c, 6, 66, 63
21, 304778, Note_off_c, 6, 66, 64
21, 304878, Note_on_c, 6, 66, 58
21, 304940, Note_off_c, 6, 66, 64
21, 305019, Note_on_c, 6, 66, 66
21, 305135, Note_off_c, 6, 66, 64
21, 305237, Note_on_c, 6, 70, 64
21, 305306, Note_off_c, 6, 70, 64
21, 305370, Note_on_c, 6, 70, 80
21, 305475, Note_off_c, 6, 70, 64
21, 305586, Note_on_c, 6, 71, 66
21, 305657, Note_off_c, 6, 71, 64
21, 305729, Note_on_c, 6, 64, 80
21, 305864, Note_off_c, 6, 64, 64
21, 305945, Note_on_c, 6, 66, 60
21, 306009, Note_off_c, 6, 66, 64
21, 306078, Note_on_c, 6, 66, 64
21, 306225, Note_off_c, 6, 66, 64
21, 306445, Note_on_c, 6, 66, 68
21, 306584, Note_off_c, 6, 66, 64
21, 306812, Note_on_c, 6, 66, 64
21, 306920, Note_off_c, 6, 66, 64
21, 307176, Note_on_c, 6, 67, 82
21, 307282, Note_on_c, 6, 71, 80
21, 307298, Note_off_c, 6, 67, 64
21, 307400, Note_on_c, 6, 69, 70
21, 307412, Note_off_c, 6, 71, 64
21, 307482, Note_off_c, 6, 69, 64
21, 307520, Note_on_c, 6, 71, 82
21, 307633, Note_on_c, 6, 72, 70
21, 307649, Note_off_c, 6, 71, 64
21, 307727, Note_off_c, 6, 72, 64
21, 307757, Note_on_c, 6, 69, 70
21, 307809, Note_off_c, 6, 69, 64
21, 307874, Note_on_c, 6, 69, 82
21, 307982, Note_on_c, 6, 71, 60
21, 308004, Note_off_c, 6, 69, 64
21, 308060, Note_off_c, 6, 71, 64
21, 308112, Note_on_c, 6, 67, 74
21, 308160, Note_off_c, 6, 67, 64
21, 308247, Note_on_c, 6, 67, 87
21, 308420, Note_off_c, 6, 67, 64
21, 308479, Note_on_c, 6, 71, 72
21, 308544, Note_off_c, 6, 71, 64
21, 308610, Note_on_c, 6, 73, 80
21, 308718, Note_off_c, 6, 73, 64
21, 308835, Note_on_c, 6, 67, 76
21, 308898, Note_off_c, 6, 67, 64
21, 308985, Note_on_c, 6, 67, 78
21, 309113, Note_off_c, 6, 67, 64
21, 309208, Note_on_c, 6, 67, 70
21, 309287, Note_off_c, 6, 67, 64
21, 309363, Note_on_c, 6, 66, 68
21, 309469, Note_off_c, 6, 66, 64
21, 309471, Note_on_c, 6, 68, 64
21, 309540, Note_off_c, 6, 68, 64
21, 309579, Note_on_c, 6, 70, 72
21, 309643, Note_off_c, 6, 70, 64
21, 309712, Note_on_c, 6, 70, 89
21, 309825, Note_off_c, 6, 70, 64
21, 309932, Note_on_c, 6, 64, 68
21, 310009, Note_off_c, 6, 64, 64
21, 310068, Note_on_c, 6, 66, 68
21, 310212, Note_off_c, 6, 66, 64
21, 310302, Note_on_c, 6, 73, 61
21, 310380, Note_off_c, 6, 73, 64
21, 310427, Note_on_c, 6, 66, 70
21, 310551, Note_off_c, 6, 66, 64
21, 310664, Note_on_c, 6, 66, 68
21, 310734, Note_off_c, 6, 66, 64
21, 310794, Note_on_c, 6, 64, 82
21, 310911, Note_off_c, 6, 64, 64
21, 311010, Note_on_c, 6, 64, 76
21, 311073, Note_off_c, 6, 64, 64
21, 311142, Note_on_c, 6, 64, 82
21, 311276, Note_off_c, 6, 64, 64
21, 311370, Note_on_c, 6, 64, 60
21, 311431, Note_off_c, 6, 64, 64
21, 311501, Note_on_c, 6, 62, 85
21, 311756, Note_off_c, 6, 62, 64
21, 375223, Note_on_c, 6, 66, 100
21, 375373, Note_off_c, 6, 66, 64
21, 375428, Note_on_c, 6, 69, 82
21, 375465, Note_off_c, 6, 69, 64
21, 375490, Note_on_c, 6, 69, 89
21, 375564, Note_off_c, 6, 69, 64
21, 375660, Note_on_c, 6, 66, 87
21, 375697, Note_off_c, 6, 66, 64
21, 375722, Note_on_c, 6, 62, 85
21, 376209, Note_off_c, 6, 62, 64
21, 376393, Note_on_c, 6, 74, 87
21, 376427, Note_off_c, 6, 74, 64
21, 376448, Note_on_c, 6, 74, 100
21, 376523, Note_off_c, 6, 74, 64
21, 376611, Note_on_c, 6, 69, 85
21, 376652, Note_off_c, 6, 69, 64
21, 376673, Note_on_c, 6, 66, 82
21, 377157, Note_off_c, 6, 66, 64
21, 377332, Note_on_c, 6, 66, 87
21, 377369, Note_off_c, 6, 66, 64
21, 377397, Note_on_c, 6, 66, 91
21, 377474, Note_off_c, 6, 66, 64
21, 377570, Note_on_c, 6, 72, 85
21, 377602, Note_off_c, 6, 72, 64
21, 377635, Note_on_c, 6, 71, 98
21, 377920, Note_off_c, 6, 71, 64
21, 378061, Note_on_c, 6, 71, 100
21, 378090, Note_off_c, 6, 71, 64
21, 378122, Note_on_c, 6, 71, 102
21, 379063, Note_off_c, 6, 71, 64
21, 379193, Note_on_c, 6, 79, 82
21, 379233, Note_off_c, 6, 79, 64
21, 379253, Note_on_c, 6, 78, 87
21, 379286, Note_off_c, 6, 78, 64
21, 379309, Note_on_c, 6, 76, 80
21, 379360, Note_off_c, 6, 76, 64
21, 379366, Note_on_c, 6, 74, 80
21, 379408, Note_off_c, 6, 74, 64
21, 379421, Note_on_c, 6, 73, 82
21, 379462, Note_off_c, 6, 73, 64
21, 379476, Note_on_c, 6, 71, 85
21, 379520, Note_off_c, 6, 71, 64
21, 379538, Note_on_c, 6, 69, 87
21, 379590, Note_off_c, 6, 69, 64
21, 379591, Note_on_c, 6, 71, 80
21, 379632, Note_off_c, 6, 71, 64
21, 379655, Note_on_c, 6, 73, 82
21, 379697, Note_off_c, 6, 73, 64
21, 379710, Note_on_c, 6, 74, 82
21, 379756, Note_off_c, 6, 74, 64
21, 379774, Note_on_c, 6, 76, 89
21, 379833, Note_on_c, 6, 74, 87
21, 379840, Note_off_c, 6, 76, 64
21, 379876, Note_off_c, 6, 74, 64
21, 379889, Note_on_c, 6, 76, 80
21, 379942, Note_off_c, 6, 76, 64
21, 379951, Note_on_c, 6, 73, 82
21, 379996, Note_off_c, 6, 73, 64
21, 380017, Note_on_c, 6, 74, 89
21, 380118, Note_off_c, 6, 74, 64
21, 380201, Note_on_c, 6, 66, 80
21, 380238, Note_off_c, 6, 66, 64
21, 380264, Note_on_c, 6, 66, 98
21, 380342, Note_off_c, 6, 66, 64
21, 380430, Note_on_c, 6, 69, 87
21, 380476, Note_off_c, 6, 69, 64
21, 380494, Note_on_c, 6, 74, 95
21, 380988, Note_off_c, 6, 74, 64
21, 381166, Note_on_c, 6, 74, 85
21, 381200, Note_off_c, 6, 74, 64
21, 381226, Note_on_c, 6, 74, 98
21, 381296, Note_off_c, 6, 74, 64
21, 381398, Note_on_c, 6, 72, 82
21, 381440, Note_off_c, 6, 72, 64
21, 381463, Note_on_c, 6, 71, 91
21, 381962, Note_off_c, 6, 71, 64
21, 382132, Note_on_c, 6, 73, 64
21, 382162, Note_off_c, 6, 73, 64
21, 382191, Note_on_c, 6, 73, 98
21, 382269, Note_off_c, 6, 73, 64
21, 382370, Note_on_c, 6, 69, 80
21, 382409, Note_off_c, 6, 69, 64
21, 382439, Note_on_c, 6, 62, 82
21, 382755, Note_off_c, 6, 62, 64
21, 382851, Note_on_c, 6, 69, 85
21, 382887, Note_off_c, 6, 69, 64
21, 382915, Note_on_c, 6, 71, 82
21, 383255, Note_off_c, 6, 71, 64
21, 383321, Note_on_c, 6, 71, 85
21, 383362, Note_off_c, 6, 71, 64
21, 383388, Note_on_c, 6, 69, 91
21, 383474, Note_off_c, 6, 69, 64
21, 383640, Note_on_c, 6, 64, 91
21, 383720, Note_off_c, 6, 64, 64
21, 383880, Note_on_c, 6, 62, 91
21, 384389, Note_off_c, 6, 62, 64
21, 384548, Note_on_c, 6, 62, 80
21, 384586, Note_off_c, 6, 62, 64
21, 384607, Note_on_c, 6, 62, 89
21, 384684, Note_off_c, 6, 62, 64
21, 384778, Note_on_c, 6, 64, 80
21, 384817, Note_off_c, 6, 64, 64
21, 384840, Note_on_c, 6, 64, 87
21, 385155, Note_off_c, 6, 64, 64
21, 385245, Note_on_c, 6, 67, 80
21, 385286, Note_off_c, 6, 67, 64
21, 385308, Note_on_c, 6, 66, 68
21, 385412, Note_off_c, 6, 66, 64
21, 385566, Note_on_c, 6, 66, 78
21, 385655, Note_off_c, 6, 66, 64
21, 385798, Note_on_c, 6, 66, 72
21, 385894, Note_off_c, 6, 66, 64
21, 385985, Note_on_c, 6, 71, 85
21, 386022, Note_off_c, 6, 71, 64
21, 386043, Note_on_c, 6, 71, 87
21, 386117, Note_off_c, 6, 71, 64
21, 386208, Note_on_c, 6, 66, 76
21, 386239, Note_off_c, 6, 66, 64
21, 386269, Note_on_c, 6, 62, 76
21, 386759, Note_off_c, 6, 62, 64
21, 386931, Note_on_c, 6, 64, 74
21, 386973, Note_off_c, 6, 64, 64
21, 386989, Note_on_c, 6, 62, 80
21, 387087, Note_off_c, 6, 62, 64
21, 387170, Note_on_c, 6, 67, 72
21, 387208, Note_off_c, 6, 67, 64
21, 387230, Note_on_c, 6, 66, 91
21, 387299, Note_off_c, 6, 66, 64
21, 387414, Note_on_c, 6, 62, 72
21, 387460, Note_off_c, 6, 62, 64
21, 387478, Note_on_c, 6, 67, 89
21, 387556, Note_off_c, 6, 67, 64
21, 387654, Note_on_c, 6, 69, 78
21, 387685, Note_off_c, 6, 69, 64
21, 387717, Note_on_c, 6, 69, 89
21, 388219, Note_off_c, 6, 69, 64
21, 388376, Note_on_c, 6, 64, 74
21, 388421, Note_off_c, 6, 64, 64
21, 388438, Note_on_c, 6, 67, 89
21, 388513, Note_off_c, 6, 67, 64
21, 388616, Note_on_c, 6, 73, 64
21, 388656, Note_off_c, 6, 73, 64
21, 388682, Note_on_c, 6, 69, 85
21, 389178, Note_off_c, 6, 69, 64
21, 389331, Note_on_c, 6, 66, 89
21, 389381, Note_off_c, 6, 66, 64
21, 389393, Note_on_c, 6, 69, 91
21, 389475, Note_off_c, 6, 69, 64
21, 389568, Note_on_c, 6, 74, 85
21, 389609, Note_off_c, 6, 74, 64
21, 389633, Note_on_c, 6, 73, 89
21, 390121, Note_off_c, 6, 73, 64
21, 390278, Note_on_c, 6, 67, 80
21, 390322, Note_off_c, 6, 67, 64
21, 390344, Note_on_c, 6, 73, 85
21, 390420, Note_off_c, 6, 73, 64
21, 390531, Note_on_c, 6, 76, 89
21, 390573, Note_off_c, 6, 76, 64
21, 390589, Note_on_c, 6, 74, 87
21, 390840, Note_off_c, 6, 74, 64
21, 391017, Note_on_c, 6, 74, 85
21, 391053, Note_off_c, 6, 74, 64
21, 391077, Note_on_c, 6, 71, 87
21, 391336, Note_off_c, 6, 71, 64
21, 391505, Note_on_c, 6, 73, 78
21, 391540, Note_off_c, 6, 73, 64
21, 391561, Note_on_c, 6, 69, 74
21, 392052, Note_off_c, 6, 69, 64
21, 392224, Note_on_c, 6, 62, 91
21, 392273, Note_off_c, 6, 62, 64
21, 392287, Note_on_c, 6, 69, 85
21, 392358, Note_off_c, 6, 69, 64
21, 392461, Note_on_c, 6, 74, 87
21, 392499, Note_off_c, 6, 74, 64
21, 392525, Note_on_c, 6, 74, 100
21, 392615, Note_off_c, 6, 74, 64
21, 392693, Note_on_c, 6, 72, 85
21, 392731, Note_off_c, 6, 72, 64
21, 392749, Note_on_c, 6, 71, 89
21, 392819, Note_off_c, 6, 71, 64
21, 392917, Note_on_c, 6, 67, 74
21, 392962, Note_off_c, 6, 67, 64
21, 392982, Note_on_c, 6, 66, 78
21, 393072, Note_off_c, 6, 66, 64
21, 393161, Note_on_c, 6, 66, 85
21, 393208, Note_off_c, 6, 66, 64
21, 393225, Note_on_c, 6, 71, 80
21, 393318, Note_off_c, 6, 71, 64
21, 393398, Note_on_c, 6, 67, 64
21, 393444, Note_off_c, 6, 67, 64
21, 393467, Note_on_c, 6, 69, 89
21, 393558, Note_off_c, 6, 69, 64
21, 393637, Note_on_c, 6, 69, 68
21, 393674, Note_off_c, 6, 69, 64
21, 393706, Note_on_c, 6, 69, 80
21, 393779, Note_off_c, 6, 69, 64
21, 393876, Note_on_c, 6, 67, 82
21, 393913, Note_off_c, 6, 67, 64
21, 393950, Note_on_c, 6, 66, 93
21, 394020, Note_on_c, 6, 64, 63
21, 394024, Note_off_c, 6, 66, 64
21, 394048, Note_off_c, 6, 64, 64
21, 394050, Note_on_c, 6, 66, 72
21, 394076, Note_off_c, 6, 66, 64
21, 394078, Note_on_c, 6, 64, 66
21, 394102, Note_on_c, 6, 66, 98
21, 394106, Note_off_c, 6, 64, 64
21, 394130, Note_on_c, 6, 64, 78
21, 394131, Note_off_c, 6, 66, 64
21, 394155, Note_on_c, 6, 66, 100
21, 394161, Note_off_c, 6, 64, 64
21, 394184, Note_on_c, 6, 64, 87
21, 394190, Note_off_c, 6, 66, 64
21, 394297, Note_off_c, 6, 64, 64
21, 394353, Note_on_c, 6, 66, 85
21, 394386, Note_off_c, 6, 66, 64
21, 394434, Note_on_c, 6, 66, 98
21, 395429, Note_off_c, 6, 66, 64
21, 395429, End_track
22, 0, Start_track
22, 0, Title_t, "Bassoon"
22, 0, Program_c, 7, 70
22, 0, Control_c, 7, 7, 100
22, 23336, Note_on_c, 7, 52, 80
22, 23393, Note_off_c, 7, 52, 64
22, 23393, Note_on_c, 7, 54, 82
22, 23440, Note_off_c, 7, 54, 64
22, 23455, Note_on_c, 7, 55, 85
22, 23504, Note_off_c, 7, 55, 64
22, 23516, Note_on_c, 7, 57, 70
22, 23558, Note_off_c, 7, 57, 64
22, 23575, Note_on_c, 7, 59, 80
22, 23618, Note_off_c, 7, 59, 64
22, 23633, Note_on_c, 7, 61, 64
22, 23671, Note_off_c, 7, 61, 64
22, 23691, Note_on_c, 7, 62, 87
22, 23727, Note_off_c, 7, 62, 64
22, 23753, Note_on_c, 7, 61, 89
22, 23787, Note_off_c, 7, 61, 64
22, 23805, Note_on_c, 7, 59, 85
22, 23846, Note_off_c, 7, 59, 64
22, 23863, Note_on_c, 7, 61, 80
22, 23900, Note_off_c, 7, 61, 64
22, 23920, Note_on_c, 7, 57, 85
22, 23963, Note_off_c, 7, 57, 64
22, 23990, Note_on_c, 7, 50, 98
22, 24819, Note_off_c, 7, 50, 64
22, 24890, Note_on_c, 7, 50, 105
22, 24920, Note_off_c, 7, 50, 64
22, 24952, Note_on_c, 7, 50, 105
22, 25786, Note_off_c, 7, 50, 64
22, 25845, Note_on_c, 7, 50, 102
22, 25874, Note_off_c, 7, 50, 64
22, 25906, Note_on_c, 7, 50, 98
22, 26736, Note_off_c, 7, 50, 64
22, 26800, Note_on_c, 7, 50, 102
22, 26832, Note_off_c, 7, 50, 64
22, 26864, Note_on_c, 7, 50, 98
22, 27146, Note_off_c, 7, 50, 64
22, 27167, Note_on_c, 7, 49, 100
22, 27203, Note_off_c, 7, 49, 64
22, 27222, Note_on_c, 7, 50, 95
22, 27263, Note_off_c, 7, 50, 64
22, 27277, Note_on_c, 7, 47, 95
22, 27316, Note_off_c, 7, 47, 64
22, 27339, Note_on_c, 7, 49, 107
22, 27441, Note_off_c, 7, 49, 64
22, 27589, Note_on_c, 7, 45, 102
22, 27690, Note_off_c, 7, 45, 64
22, 27837, Note_on_c, 7, 50, 95
22, 28114, Note_off_c, 7, 50, 64
22, 28142, Note_on_c, 7, 49, 89
22, 28181, Note_off_c, 7, 49, 64
22, 28200, Note_on_c, 7, 50, 82
22, 28248, Note_off_c, 7, 50, 64
22, 28253, Note_on_c, 7, 52, 82
22, 28301, Note_off_c, 7, 52, 64
22, 28308, Note_on_c, 7, 54, 85
22, 28354, Note_off_c, 7, 54, 64
22, 28371, Note_on_c, 7, 55, 82
22, 28415, Note_off_c, 7, 55, 64
22, 28430, Note_on_c, 7, 57, 74
22, 28474, Note_off_c, 7, 57, 64
22, 28488, Note_on_c, 7, 59, 91
22, 28529, Note_off_c, 7, 59, 64
22, 28550, Note_on_c, 7, 60, 87
22, 28595, Note_off_c, 7, 60, 64
22, 28607, Note_on_c, 7, 59, 93
22, 28641, Note_off_c, 7, 59, 64
22, 28664, Note_on_c, 7, 60, 91
22, 28699, Note_off_c, 7, 60, 64
22, 28715, Note_on_c, 7, 57, 102
22, 28749, Note_off_c, 7, 57, 64
22, 28789, Note_on_c, 7, 51, 95
22, 29049, Note_off_c, 7, 51, 64
22, 29078, Note_on_c, 7, 49, 82
22, 29120, Note_off_c, 7, 49, 64
22, 29138, Note_on_c, 7, 51, 95
22, 29172, Note_off_c, 7, 51, 64
22, 29191, Note_on_c, 7, 47, 93
22, 29239, Note_off_c, 7, 47, 64
22, 29262, Note_on_c, 7, 59, 95
22, 29360, Note_off_c, 7, 59, 64
22, 29505, Note_on_c, 7, 47, 87
22, 29606, Note_off_c, 7, 47, 64
22, 29744, Note_on_c, 7, 52, 85
22, 30357, Note_off_c, 7, 52, 64
22, 30422, Note_on_c, 7, 52, 95
22, 30461, Note_off_c, 7, 52, 64
22, 30483, Note_on_c, 7, 54, 95
22, 30566, Note_off_c, 7, 54, 64
22, 30650, Note_on_c, 7, 50, 78
22, 30695, Note_off_c, 7, 50, 64
22, 30717, Note_on_c, 7, 55, 91
22, 30806, Note_off_c, 7, 55, 64
22, 30888, Note_on_c, 7, 54, 85
22, 30925, Note_off_c, 7, 54, 64
22, 30947, Note_on_c, 7, 55, 100
22, 31040, Note_off_c, 7, 55, 64
22, 31120, Note_on_c, 7, 52, 78
22, 31162, Note_off_c, 7, 52, 64
22, 31181, Note_on_c, 7, 54, 100
22, 31278, Note_off_c, 7, 54, 64
22, 31370, Note_on_c, 7, 52, 85
22, 31420, Note_off_c, 7, 52, 64
22, 31431, Note_on_c, 7, 54, 98
22, 31502, Note_off_c, 7, 54, 64
22, 31617, Note_on_c, 7, 55, 85
22, 31657, Note_off_c, 7, 55, 64
22, 31678, Note_on_c, 7, 57, 87
22, 32533, Note_off_c, 7, 57, 64
22, 32578, Note_on_c, 7, 57, 93
22, 32608, Note_off_c, 7, 57, 64
22, 32637, Note_on_c, 7, 57, 95
22, 33479, Note_off_c, 7, 57, 64
22, 33533, Note_on_c, 7, 57, 105
22, 33561, Note_off_c, 7, 57, 64
22, 33593, Note_on_c, 7, 57, 98
22, 34444, Note_off_c, 7, 57, 64
22, 34491, Note_on_c, 7, 57, 98
22, 34525, Note_off_c, 7, 57, 64
22, 34549, Note_on_c, 7, 57, 95
22, 34815, Note_off_c, 7, 57, 64
22, 34845, Note_on_c, 7, 56, 93
22, 34883, Note_off_c, 7, 56, 64
22, 34904, Note_on_c, 7, 57, 89
22, 34945, Note_off_c, 7, 57, 64
22, 34966, Note_on_c, 7, 54, 89
22, 35000, Note_off_c, 7, 54, 64
22, 35035, Note_on_c, 7, 56, 100
22, 35137, Note_off_c, 7, 56, 64
22, 35274, Note_on_c, 7, 52, 98
22, 35380, Note_off_c, 7, 52, 64
22, 35505, Note_on_c, 7, 57, 91
22, 36007, Note_off_c, 7, 57, 64
22, 36047, Note_on_c, 7, 57, 93
22, 36096, Note_off_c, 7, 57, 64
22, 36108, Note_on_c, 7, 59, 82
22, 36151, Note_off_c, 7, 59, 64
22, 36168, Note_on_c, 7, 61, 85
22, 36208, Note_off_c, 7, 61, 64
22, 36230, Note_on_c, 7, 62, 89
22, 36273, Note_off_c, 7, 62, 64
22, 36288, Note_on_c, 7, 61, 105
22, 36322, Note_off_c, 7, 61, 64
22, 36344, Note_on_c, 7, 62, 102
22, 36385, Note_off_c, 7, 62, 64
22, 36401, Note_on_c, 7, 59, 95
22, 36438, Note_off_c, 7, 59, 64
22, 36467, Note_on_c, 7, 57, 105
22, 36590, Note_off_c, 7, 57, 64
22, 36590, Note_on_c, 7, 56, 78
22, 36809, Note_off_c, 7, 56, 64
22, 36883, Note_on_c, 7, 54, 89
22, 36917, Note_off_c, 7, 54, 64
22, 36944, Note_on_c, 7, 53, 80
22, 37047, Note_off_c, 7, 53, 64
22, 37186, Note_on_c, 7, 49, 91
22, 37289, Note_off_c, 7, 49, 64
22, 37429, Note_on_c, 7, 54, 95
22, 37928, Note_off_c, 7, 54, 64
22, 37972, Note_on_c, 7, 52, 85
22, 38015, Note_off_c, 7, 52, 64
22, 38029, Note_on_c, 7, 54, 78
22, 38069, Note_off_c, 7, 54, 64
22, 38087, Note_on_c, 7, 56, 91
22, 38124, Note_off_c, 7, 56, 64
22, 38147, Note_on_c, 7, 57, 87
22, 38187, Note_off_c, 7, 57, 64
22, 38209, Note_on_c, 7, 56, 100
22, 38243, Note_off_c, 7, 56, 64
22, 38265, Note_on_c, 7, 57, 85
22, 38306, Note_off_c, 7, 57, 64
22, 38325, Note_on_c, 7, 54, 89
22, 38360, Note_off_c, 7, 54, 64
22, 38384, Note_on_c, 7, 56, 107
22, 38474, Note_off_c, 7, 56, 64
22, 38561, Note_on_c, 7, 52, 82
22, 38603, Note_off_c, 7, 52, 64
22, 38624, Note_on_c, 7, 57, 89
22, 38701, Note_off_c, 7, 57, 64
22, 38797, Note_on_c, 7, 59, 74
22, 38840, Note_off_c, 7, 59, 64
22, 38856, Note_on_c, 7, 61, 102
22, 38961, Note_off_c, 7, 61, 64
22, 39037, Note_on_c, 7, 62, 78
22, 39074, Note_off_c, 7, 62, 64
22, 39107, Note_on_c, 7, 61, 102
22, 39131, Note_on_c, 7, 59, 87
22, 39133, Note_off_c, 7, 61, 64
22, 39157, Note_on_c, 7, 61, 82
22, 39163, Note_off_c, 7, 59, 64
22, 39184, Note_on_c, 7, 59, 82
22, 39199, Note_off_c, 7, 61, 64
22, 39226, Note_off_c, 7, 59, 64
22, 39296, Note_on_c, 7, 57, 85
22, 39326, Note_off_c, 7, 57, 64
22, 39349, Note_on_c, 7, 52, 87
22, 40186, Note_off_c, 7, 52, 64
22, 40246, Note_on_c, 7, 52, 98
22, 40276, Note_off_c, 7, 52, 64
22, 40308, Note_on_c, 7, 52, 98
22, 41165, Note_off_c, 7, 52, 64
22, 41216, Note_on_c, 7, 52, 91
22, 41246, Note_off_c, 7, 52, 64
22, 41274, Note_on_c, 7, 52, 87
22, 42133, Note_off_c, 7, 52, 64
22, 42184, Note_on_c, 7, 52, 91
22, 42215, Note_off_c, 7, 52, 64
22, 42245, Note_on_c, 7, 52, 93
22, 43079, Note_off_c, 7, 52, 64
22, 43126, Note_on_c, 7, 52, 98
22, 43158, Note_off_c, 7, 52, 64
22, 43189, Note_on_c, 7, 52, 95
22, 43680, Note_off_c, 7, 52, 64
22, 43723, Note_on_c, 7, 54, 102
22, 43756, Note_off_c, 7, 54, 64
22, 43779, Note_on_c, 7, 52, 93
22, 43831, Note_off_c, 7, 52, 64
22, 43834, Note_on_c, 7, 50, 87
22, 43870, Note_off_c, 7, 50, 64
22, 43891, Note_on_c, 7, 49, 98
22, 43931, Note_off_c, 7, 49, 64
22, 43946, Note_on_c, 7, 47, 85
22, 43985, Note_off_c, 7, 47, 64
22, 44008, Note_on_c, 7, 49, 95
22, 44049, Note_off_c, 7, 49, 64
22, 44068, Note_on_c, 7, 45, 87
22, 44114, Note_off_c, 7, 45, 64
22, 44139, Note_on_c, 7, 54, 102
22, 44659, Note_off_c, 7, 54, 64
22, 44687, Note_on_c, 7, 55, 80
22, 44728, Note_off_c, 7, 55, 64
22, 44751, Note_on_c, 7, 54, 102
22, 44790, Note_off_c, 7, 54, 64
22, 44811, Note_on_c, 7, 52, 82
22, 44857, Note_off_c, 7, 52, 64
22, 44868, Note_on_c, 7, 50, 82
22, 44905, Note_off_c, 7, 50, 64
22, 44927, Note_on_c, 7, 49, 93
22, 44968, Note_off_c, 7, 49, 64
22, 44984, Note_on_c, 7, 50, 82
22, 45025, Note_off_c, 7, 50, 64
22, 45042, Note_on_c, 7, 47, 95
22, 45081, Note_off_c, 7, 47, 64
22, 45112, Note_on_c, 7, 56, 98
22, 45194, Note_off_c, 7, 56, 64
22, 45284, Note_on_c, 7, 52, 78
22, 45334, Note_off_c, 7, 52, 64
22, 45346, Note_on_c, 7, 57, 95
22, 45432, Note_off_c, 7, 57, 64
22, 45525, Note_on_c, 7, 50, 68
22, 45558, Note_off_c, 7, 50, 64
22, 45583, Note_on_c, 7, 52, 89
22, 45710, Note_off_c, 7, 52, 64
22, 45836, Note_on_c, 7, 40, 93
22, 45964, Note_off_c, 7, 40, 64
22, 46076, Note_on_c, 7, 45, 87
22, 46211, Note_off_c, 7, 45, 64
22, 72568, Note_on_c, 7, 50, 72
22, 72620, Note_off_c, 7, 50, 64
22, 72688, Note_on_c, 7, 50, 89
22, 72813, Note_off_c, 7, 50, 64
22, 72928, Note_on_c, 7, 50, 68
22, 72982, Note_off_c, 7, 50, 64
22, 73067, Note_on_c, 7, 55, 80
22, 73220, Note_off_c, 7, 55, 64
22, 73650, Note_on_c, 7, 52, 57
22, 73700, Note_off_c, 7, 52, 64
22, 73772, Note_on_c, 7, 52, 66
22, 73891, Note_off_c, 7, 52, 64
22, 73995, Note_on_c, 7, 52, 63
22, 74051, Note_off_c, 7, 52, 64
22, 74127, Note_on_c, 7, 57, 82
22, 74294, Note_off_c, 7, 57, 64
22, 74714, Note_on_c, 7, 54, 53
22, 74773, Note_off_c, 7, 54, 64
22, 74840, Note_on_c, 7, 54, 62
22, 74971, Note_off_c, 7, 54, 64
22, 75079, Note_on_c, 7, 54, 63
22, 75138, Note_off_c, 7, 54, 64
22, 75218, Note_on_c, 7, 59, 82
22, 75392, Note_off_c, 7, 59, 64
22, 77748, Note_on_c, 7, 54, 66
22, 77885, Note_off_c, 7, 54, 64
22, 78103, Note_on_c, 7, 42, 68
22, 78240, Note_off_c, 7, 42, 64
22, 78814, Note_on_c, 7, 59, 85
22, 78942, Note_off_c, 7, 59, 64
22, 79176, Note_on_c, 7, 47, 89
22, 79318, Note_off_c, 7, 47, 64
22, 79905, Note_on_c, 7, 52, 85
22, 80031, Note_off_c, 7, 52, 64
22, 80270, Note_on_c, 7, 40, 85
22, 80405, Note_off_c, 7, 40, 64
22, 80981, Note_on_c, 7, 57, 76
22, 81105, Note_off_c, 7, 57, 64
22, 81352, Note_on_c, 7, 45, 85
22, 81480, Note_off_c, 7, 45, 64
22, 82047, Note_on_c, 7, 50, 72
22, 82178, Note_off_c, 7, 50, 64
22, 82428, Note_on_c, 7, 38, 85
22, 82563, Note_off_c, 7, 38, 64
22, 83143, Note_on_c, 7, 50, 80
22, 83274, Note_off_c, 7, 50, 64
22, 83526, Note_on_c, 7, 38, 85
22, 83660, Note_off_c, 7, 38, 64
22, 83883, Note_on_c, 7, 40, 85
22, 87027, Note_off_c, 7, 40, 64
22, 87090, Note_on_c, 7, 41, 72
22, 87294, Note_off_c, 7, 41, 64
22, 88197, Note_on_c, 7, 40, 87
22, 88359, Note_off_c, 7, 40, 64
22, 89488, Note_on_c, 7, 51, 60
22, 89542, Note_off_c, 7, 51, 64
22, 89612, Note_on_c, 7, 51, 68
22, 89736, Note_off_c, 7, 51, 64
22, 89855, Note_on_c, 7, 51, 58
22, 89904, Note_off_c, 7, 51, 64
22, 89976, Note_on_c, 7, 51, 74
22, 90089, Note_off_c, 7, 51, 64
22, 90208, Note_on_c, 7, 51, 56
22, 90276, Note_off_c, 7, 51, 64
22, 90345, Note_on_c, 7, 52, 66
22, 90485, Note_off_c, 7, 52, 64
22, 90584, Note_on_c, 7, 52, 63
22, 90644, Note_off_c, 7, 52, 64
22, 90715, Note_on_c, 7, 52, 68
22, 90843, Note_off_c, 7, 52, 64
22, 90944, Note_on_c, 7, 52, 64
22, 91009, Note_off_c, 7, 52, 64
22, 91076, Note_on_c, 7, 52, 61
22, 91196, Note_off_c, 7, 52, 64
22, 91281, Note_on_c, 7, 52, 64
22, 91353, Note_off_c, 7, 52, 64
22, 91412, Note_on_c, 7, 54, 82
22, 91511, Note_off_c, 7, 54, 64
22, 91650, Note_on_c, 7, 47, 82
22, 91733, Note_off_c, 7, 47, 64
22, 91760, Note_on_c, 7, 49, 66
22, 91865, Note_off_c, 7, 49, 64
22, 92004, Note_on_c, 7, 50, 76
22, 92080, Note_off_c, 7, 50, 64
22, 92134, Note_on_c, 7, 52, 85
22, 92255, Note_off_c, 7, 52, 64
22, 92363, Note_on_c, 7, 52, 80
22, 92457, Note_off_c, 7, 52, 64
22, 92507, Note_on_c, 7, 45, 89
22, 92627, Note_off_c, 7, 45, 64
22, 115172, Note_on_c, 7, 45, 82
22, 115390, Note_off_c, 7, 45, 64
22, 116256, Note_on_c, 7, 45, 68
22, 116461, Note_off_c, 7, 45, 64
22, 117573, Note_on_c, 7, 45, 78
22, 117660, Note_off_c, 7, 45, 64
22, 117707, Note_on_c, 7, 49, 87
22, 117845, Note_off_c, 7, 49, 64
22, 117942, Note_on_c, 7, 52, 85
22, 118004, Note_off_c, 7, 52, 64
22, 118063, Note_on_c, 7, 49, 98
22, 118169, Note_off_c, 7, 49, 64
22, 118304, Note_on_c, 7, 45, 68
22, 118365, Note_off_c, 7, 45, 64
22, 118439, Note_on_c, 7, 50, 87
22, 118655, Note_off_c, 7, 50, 64
22, 119528, Note_on_c, 7, 50, 80
22, 119730, Note_off_c, 7, 50, 64
22, 120599, Note_on_c, 7, 50, 72
22, 120833, Note_off_c, 7, 50, 64
22, 121875, Note_on_c, 7, 50, 78
22, 121956, Note_off_c, 7, 50, 64
22, 122010, Note_on_c, 7, 54, 80
22, 122160, Note_off_c, 7, 54, 64
22, 122259, Note_on_c, 7, 57, 87
22, 122340, Note_off_c, 7, 57, 64
22, 122392, Note_on_c, 7, 54, 85
22, 122496, Note_off_c, 7, 54, 64
22, 122619, Note_on_c, 7, 50, 70
22, 122703, Note_off_c, 7, 50, 64
22, 122765, Note_on_c, 7, 43, 85
22, 122874, Note_off_c, 7, 43, 64
22, 122991, Note_on_c, 7, 55, 68
22, 123051, Note_off_c, 7, 55, 64
22, 123119, Note_on_c, 7, 55, 91
22, 123225, Note_on_c, 7, 57, 64
22, 123240, Note_off_c, 7, 55, 64
22, 123280, Note_off_c, 7, 57, 64
22, 123351, Note_on_c, 7, 54, 89
22, 123398, Note_off_c, 7, 54, 64
22, 123479, Note_on_c, 7, 54, 98
22, 123582, Note_on_c, 7, 55, 70
22, 123609, Note_off_c, 7, 54, 64
22, 123647, Note_off_c, 7, 55, 64
22, 123706, Note_on_c, 7, 52, 68
22, 123749, Note_off_c, 7, 52, 64
22, 123836, Note_on_c, 7, 52, 95
22, 123935, Note_on_c, 7, 54, 68
22, 123971, Note_off_c, 7, 52, 64
22, 124057, Note_on_c, 7, 56, 72
22, 124077, Note_off_c, 7, 54, 64
22, 124149, Note_off_c, 7, 56, 64
22, 124181, Note_on_c, 7, 57, 87
22, 124293, Note_on_c, 7, 59, 78
22, 124316, Note_off_c, 7, 57, 64
22, 124363, Note_off_c, 7, 59, 64
22, 124419, Note_on_c, 7, 55, 78
22, 124466, Note_off_c, 7, 55, 64
22, 124541, Note_on_c, 7, 55, 89
22, 124649, Note_on_c, 7, 57, 64
22, 124664, Note_off_c, 7, 55, 64
22, 124736, Note_off_c, 7, 57, 64
22, 124777, Note_on_c, 7, 54, 62
22, 124838, Note_off_c, 7, 54, 64
22, 124920, Note_on_c, 7, 54, 87
22, 125027, Note_on_c, 7, 56, 74
22, 125051, Note_off_c, 7, 54, 64
22, 125146, Note_on_c, 7, 58, 66
22, 125159, Note_off_c, 7, 56, 64
22, 125227, Note_off_c, 7, 58, 64
22, 125272, Note_on_c, 7, 59, 91
22, 125385, Note_on_c, 7, 61, 70
22, 125398, Note_off_c, 7, 59, 64
22, 125472, Note_off_c, 7, 61, 64
22, 125506, Note_on_c, 7, 57, 70
22, 125562, Note_off_c, 7, 57, 64
22, 125641, Note_on_c, 7, 57, 89
22, 125749, Note_on_c, 7, 59, 70
22, 125751, Note_off_c, 7, 57, 64
22, 125812, Note_off_c, 7, 59, 64
22, 125867, Note_on_c, 7, 56, 72
22, 125916, Note_off_c, 7, 56, 64
22, 125987, Note_on_c, 7, 56, 93
22, 126093, Note_on_c, 7, 58, 68
22, 126120, Note_off_c, 7, 56, 64
22, 126196, Note_off_c, 7, 58, 64
22, 126209, Note_on_c, 7, 59, 78
22, 126307, Note_off_c, 7, 59, 64
22, 126348, Note_on_c, 7, 61, 95
22, 126456, Note_on_c, 7, 62, 78
22, 126485, Note_off_c, 7, 61, 64
22, 126525, Note_off_c, 7, 62, 64
22, 126577, Note_on_c, 7, 59, 70
22, 126627, Note_off_c, 7, 59, 64
22, 126699, Note_on_c, 7, 59, 98
22, 126807, Note_off_c, 7, 59, 64
22, 126815, Note_on_c, 7, 61, 57
22, 126890, Note_off_c, 7, 61, 64
22, 126932, Note_on_c, 7, 58, 61
22, 126982, Note_off_c, 7, 58, 64
22, 127074, Note_on_c, 7, 58, 100
22, 127268, Note_off_c, 7, 58, 64
22, 139190, Note_on_c, 7, 59, 76
22, 139235, Note_off_c, 7, 59, 64
22, 139321, Note_on_c, 7, 59, 91
22, 139424, Note_on_c, 7, 60, 66
22, 139427, Note_off_c, 7, 59, 64
22, 139492, Note_off_c, 7, 60, 64
22, 139532, Note_on_c, 7, 57, 60
22, 139584, Note_off_c, 7, 57, 64
22, 139668, Note_on_c, 7, 57, 87
22, 139766, Note_on_c, 7, 59, 68
22, 139770, Note_off_c, 7, 57, 64
22, 139852, Note_off_c, 7, 59, 64
22, 139883, Note_on_c, 7, 55, 70
22, 139938, Note_off_c, 7, 55, 64
22, 140012, Note_on_c, 7, 55, 80
22, 140115, Note_on_c, 7, 57, 80
22, 140145, Note_off_c, 7, 55, 64
22, 140244, Note_on_c, 7, 59, 68
22, 140261, Note_off_c, 7, 57, 64
22, 140309, Note_off_c, 7, 59, 64
22, 140378, Note_on_c, 7, 60, 89
22, 140484, Note_on_c, 7, 62, 68
22, 140493, Note_off_c, 7, 60, 64
22, 140565, Note_off_c, 7, 62, 64
22, 140597, Note_on_c, 7, 59, 68
22, 140651, Note_off_c, 7, 59, 64
22, 140727, Note_on_c, 7, 59, 85
22, 140835, Note_on_c, 7, 60, 66
22, 140840, Note_off_c, 7, 59, 64
22, 140936, Note_off_c, 7, 60, 64
22, 140950, Note_on_c, 7, 57, 61
22, 141013, Note_off_c, 7, 57, 64
22, 141087, Note_on_c, 7, 57, 66
22, 141211, Note_off_c, 7, 57, 64
22, 141333, Note_on_c, 7, 57, 57
22, 141395, Note_off_c, 7, 57, 64
22, 141472, Note_on_c, 7, 57, 63
22, 141593, Note_off_c, 7, 57, 64
22, 141699, Note_on_c, 7, 57, 66
22, 141755, Note_off_c, 7, 57, 64
22, 141834, Note_on_c, 7, 57, 80
22, 141972, Note_off_c, 7, 57, 64
22, 142059, Note_on_c, 7, 57, 63
22, 142116, Note_off_c, 7, 57, 64
22, 142192, Note_on_c, 7, 57, 87
22, 142289, Note_off_c, 7, 57, 64
22, 142309, Note_on_c, 7, 54, 72
22, 142404, Note_on_c, 7, 55, 70
22, 142430, Note_off_c, 7, 54, 64
22, 142489, Note_off_c, 7, 55, 64
22, 142547, Note_on_c, 7, 57, 82
22, 142655, Note_on_c, 7, 66, 72
22, 142664, Note_off_c, 7, 57, 64
22, 142727, Note_off_c, 7, 66, 64
22, 142768, Note_on_c, 7, 55, 64
22, 142833, Note_off_c, 7, 55, 64
22, 142903, Note_on_c, 7, 57, 89
22, 143004, Note_on_c, 7, 55, 62
22, 143015, Note_off_c, 7, 57, 64
22, 143115, Note_off_c, 7, 55, 64
22, 143119, Note_on_c, 7, 54, 58
22, 143173, Note_off_c, 7, 54, 64
22, 143252, Note_on_c, 7, 55, 85
22, 143366, Note_on_c, 7, 52, 62
22, 143389, Note_off_c, 7, 55, 64
22, 143479, Note_on_c, 7, 54, 78
22, 143501, Note_off_c, 7, 52, 64
22, 143555, Note_off_c, 7, 54, 64
22, 143619, Note_on_c, 7, 55, 78
22, 143736, Note_on_c, 7, 64, 66
22, 143747, Note_off_c, 7, 55, 64
22, 143801, Note_off_c, 7, 64, 64
22, 143852, Note_on_c, 7, 54, 82
22, 143916, Note_off_c, 7, 54, 64
22, 143981, Note_on_c, 7, 55, 82
22, 144087, Note_on_c, 7, 54, 64
22, 144111, Note_off_c, 7, 55, 64
22, 144194, Note_off_c, 7, 54, 64
22, 144195, Note_on_c, 7, 52, 66
22, 144260, Note_off_c, 7, 52, 64
22, 144318, Note_on_c, 7, 54, 89
22, 144429, Note_on_c, 7, 50, 66
22, 144473, Note_off_c, 7, 54, 64
22, 144534, Note_on_c, 7, 52, 63
22, 144564, Note_off_c, 7, 50, 64
22, 144586, Note_off_c, 7, 52, 64
22, 144671, Note_on_c, 7, 54, 80
22, 144788, Note_on_c, 7, 62, 68
22, 144797, Note_off_c, 7, 54, 64
22, 144863, Note_off_c, 7, 62, 64
22, 144901, Note_on_c, 7, 52, 64
22, 144964, Note_off_c, 7, 52, 64
22, 145036, Note_on_c, 7, 54, 87
22, 145142, Note_on_c, 7, 52, 63
22, 145157, Note_off_c, 7, 54, 64
22, 145243, Note_off_c, 7, 52, 64
22, 145248, Note_on_c, 7, 50, 64
22, 145320, Note_off_c, 7, 50, 64
22, 145383, Note_on_c, 7, 52, 87
22, 145499, Note_on_c, 7, 48, 66
22, 145533, Note_off_c, 7, 52, 64
22, 145616, Note_on_c, 7, 50, 68
22, 145628, Note_off_c, 7, 48, 64
22, 145669, Note_off_c, 7, 50, 64
22, 145754, Note_on_c, 7, 52, 85
22, 145868, Note_on_c, 7, 60, 60
22, 145884, Note_off_c, 7, 52, 64
22, 145934, Note_off_c, 7, 60, 64
22, 145985, Note_on_c, 7, 50, 70
22, 146046, Note_off_c, 7, 50, 64
22, 146114, Note_on_c, 7, 52, 82
22, 146231, Note_on_c, 7, 50, 80
22, 146251, Note_off_c, 7, 52, 64
22, 146318, Note_off_c, 7, 50, 64
22, 146337, Note_on_c, 7, 48, 66
22, 146408, Note_off_c, 7, 48, 64
22, 146480, Note_on_c, 7, 50, 85
22, 146654, Note_off_c, 7, 50, 64
22, 147813, Note_on_c, 7, 50, 58
22, 147867, Note_off_c, 7, 50, 64
22, 147940, Note_on_c, 7, 50, 66
22, 148071, Note_off_c, 7, 50, 64
22, 148172, Note_on_c, 7, 50, 68
22, 148238, Note_off_c, 7, 50, 64
22, 148321, Note_on_c, 7, 50, 85
22, 148431, Note_off_c, 7, 50, 64
22, 148532, Note_on_c, 7, 50, 70
22, 148596, Note_off_c, 7, 50, 64
22, 148658, Note_on_c, 7, 50, 80
22, 148766, Note_off_c, 7, 50, 64
22, 148893, Note_on_c, 7, 38, 66
22, 148940, Note_off_c, 7, 38, 64
22, 149018, Note_on_c, 7, 38, 78
22, 149151, Note_off_c, 7, 38, 64
22, 149250, Note_on_c, 7, 38, 76
22, 149315, Note_off_c, 7, 38, 64
22, 149385, Note_on_c, 7, 38, 80
22, 149496, Note_off_c, 7, 38, 64
22, 149595, Note_on_c, 7, 38, 78
22, 149660, Note_off_c, 7, 38, 64
22, 149734, Note_on_c, 7, 38, 87
22, 149852, Note_off_c, 7, 38, 64
22, 149957, Note_on_c, 7, 48, 70
22, 150035, Note_off_c, 7, 48, 64
22, 150072, Note_on_c, 7, 47, 78
22, 150204, Note_off_c, 7, 47, 64
22, 150328, Note_on_c, 7, 52, 82
22, 150405, Note_off_c, 7, 52, 64
22, 150467, Note_on_c, 7, 45, 87
22, 150582, Note_off_c, 7, 45, 64
22, 150683, Note_on_c, 7, 50, 76
22, 150755, Note_off_c, 7, 50, 64
22, 150818, Note_on_c, 7, 43, 89
22, 150918, Note_off_c, 7, 43, 64
22, 151023, Note_on_c, 7, 50, 66
22, 151091, Note_off_c, 7, 50, 64
22, 151167, Note_on_c, 7, 55, 93
22, 151277, Note_on_c, 7, 57, 68
22, 151286, Note_off_c, 7, 55, 64
22, 151336, Note_off_c, 7, 57, 64
22, 151390, Note_on_c, 7, 54, 85
22, 151440, Note_off_c, 7, 54, 64
22, 151514, Note_on_c, 7, 54, 91
22, 151621, Note_on_c, 7, 55, 64
22, 151647, Note_off_c, 7, 54, 64
22, 151694, Note_off_c, 7, 55, 64
22, 151739, Note_on_c, 7, 52, 66
22, 151791, Note_off_c, 7, 52, 64
22, 151880, Note_on_c, 7, 52, 85
22, 151989, Note_on_c, 7, 48, 70
22, 152020, Note_off_c, 7, 52, 64
22, 152108, Note_on_c, 7, 50, 80
22, 152123, Note_off_c, 7, 48, 64
22, 152213, Note_off_c, 7, 50, 64
22, 152238, Note_on_c, 7, 52, 89
22, 152348, Note_on_c, 7, 53, 68
22, 152355, Note_off_c, 7, 52, 64
22, 152427, Note_off_c, 7, 53, 64
22, 152474, Note_on_c, 7, 50, 70
22, 152528, Note_off_c, 7, 50, 64
22, 152601, Note_on_c, 7, 50, 85
22, 152717, Note_on_c, 7, 52, 64
22, 152731, Note_off_c, 7, 50, 64
22, 152816, Note_off_c, 7, 52, 64
22, 152844, Note_on_c, 7, 48, 66
22, 152904, Note_off_c, 7, 48, 64
22, 152978, Note_on_c, 7, 48, 78
22, 153123, Note_off_c, 7, 48, 64
22, 153199, Note_on_c, 7, 47, 72
22, 153275, Note_off_c, 7, 47, 64
22, 153325, Note_on_c, 7, 45, 82
22, 153437, Note_off_c, 7, 45, 64
22, 153541, Note_on_c, 7, 48, 78
22, 153617, Note_off_c, 7, 48, 64
22, 153676, Note_on_c, 7, 42, 72
22, 153811, Note_off_c, 7, 42, 64
22, 153903, Note_on_c, 7, 45, 76
22, 153978, Note_off_c, 7, 45, 64
22, 154058, Note_on_c, 7, 36, 93
22, 154396, Note_off_c, 7, 36, 64
22, 154634, Note_on_c, 7, 52, 78
22, 154700, Note_off_c, 7, 52, 64
22, 154758, Note_on_c, 7, 50, 87
22, 154889, Note_off_c, 7, 50, 64
22, 155001, Note_on_c, 7, 48, 74
22, 155071, Note_off_c, 7, 48, 64
22, 155136, Note_on_c, 7, 47, 85
22, 155246, Note_on_c, 7, 48, 82
22, 155255, Note_off_c, 7, 47, 64
22, 155350, Note_off_c, 7, 48, 64
22, 155361, Note_on_c, 7, 50, 80
22, 155429, Note_off_c, 7, 50, 64
22, 155492, Note_on_c, 7, 52, 82
22, 155604, Note_off_c, 7, 52, 64
22, 155706, Note_on_c, 7, 48, 72
22, 155787, Note_off_c, 7, 48, 64
22, 155847, Note_on_c, 7, 50, 85
22, 155930, Note_off_c, 7, 50, 64
22, 156071, Note_on_c, 7, 38, 80
22, 156146, Note_off_c, 7, 38, 64
22, 156214, Note_on_c, 7, 43, 87
22, 156340, Note_off_c, 7, 43, 64
22, 156443, Note_on_c, 7, 62, 68
22, 156496, Note_off_c, 7, 62, 64
22, 156576, Note_on_c, 7, 62, 93
22, 156682, Note_on_c, 7, 64, 68
22, 156705, Note_off_c, 7, 62, 64
22, 156758, Note_off_c, 7, 64, 64
22, 156803, Note_on_c, 7, 60, 60
22, 156849, Note_off_c, 7, 60, 64
22, 156936, Note_on_c, 7, 60, 91
22, 157038, Note_on_c, 7, 62, 66
22, 157056, Note_off_c, 7, 60, 64
22, 157118, Note_off_c, 7, 62, 64
22, 157150, Note_on_c, 7, 59, 57
22, 157199, Note_off_c, 7, 59, 64
22, 157289, Note_on_c, 7, 59, 82
22, 157395, Note_on_c, 7, 60, 68
22, 157425, Note_off_c, 7, 59, 64
22, 157521, Note_off_c, 7, 60, 64
22, 157528, Note_on_c, 7, 62, 80
22, 157595, Note_off_c, 7, 62, 64
22, 157658, Note_on_c, 7, 62, 95
22, 157764, Note_on_c, 7, 64, 68
22, 157775, Note_off_c, 7, 62, 64
22, 157847, Note_off_c, 7, 64, 64
22, 157886, Note_on_c, 7, 60, 63
22, 157929, Note_off_c, 7, 60, 64
22, 158014, Note_on_c, 7, 60, 91
22, 158118, Note_on_c, 7, 62, 68
22, 158138, Note_off_c, 7, 60, 64
22, 158203, Note_off_c, 7, 62, 64
22, 158230, Note_on_c, 7, 59, 57
22, 158286, Note_off_c, 7, 59, 64
22, 158378, Note_on_c, 7, 59, 72
22, 158561, Note_off_c, 7, 59, 64
22, 180222, Note_on_c, 7, 62, 56
22, 180273, Note_off_c, 7, 62, 64
22, 180354, Note_on_c, 7, 62, 93
22, 180460, Note_on_c, 7, 64, 68
22, 180485, Note_off_c, 7, 62, 64
22, 180534, Note_off_c, 7, 64, 64
22, 180570, Note_on_c, 7, 60, 58
22, 180618, Note_off_c, 7, 60, 64
22, 180708, Note_on_c, 7, 60, 89
22, 180813, Note_on_c, 7, 62, 61
22, 180825, Note_off_c, 7, 60, 64
22, 180905, Note_off_c, 7, 62, 64
22, 180924, Note_on_c, 7, 59, 58
22, 180974, Note_off_c, 7, 59, 64
22, 181058, Note_on_c, 7, 59, 93
22, 181171, Note_on_c, 7, 61, 59
22, 181193, Note_off_c, 7, 59, 64
22, 181281, Note_off_c, 7, 61, 64
22, 181288, Note_on_c, 7, 62, 82
22, 181392, Note_off_c, 7, 62, 64
22, 181419, Note_on_c, 7, 64, 85
22, 181536, Note_on_c, 7, 66, 60
22, 181547, Note_off_c, 7, 64, 64
22, 181623, Note_off_c, 7, 66, 64
22, 181646, Note_on_c, 7, 62, 63
22, 181695, Note_off_c, 7, 62, 64
22, 181783, Note_on_c, 7, 62, 91
22, 181891, Note_on_c, 7, 64, 60
22, 181909, Note_off_c, 7, 62, 64
22, 181974, Note_off_c, 7, 64, 64
22, 182013, Note_on_c, 7, 61, 52
22, 182067, Note_off_c, 7, 61, 64
22, 182156, Note_on_c, 7, 61, 53
22, 182255, Note_off_c, 7, 61, 64
22, 182395, Note_on_c, 7, 61, 47
22, 182456, Note_off_c, 7, 61, 64
22, 182526, Note_on_c, 7, 61, 60
22, 182631, Note_off_c, 7, 61, 64
22, 182750, Note_on_c, 7, 61, 49
22, 182807, Note_off_c, 7, 61, 64
22, 182876, Note_on_c, 7, 61, 70
22, 182973, Note_off_c, 7, 61, 64
22, 183097, Note_on_c, 7, 61, 55
22, 183180, Note_off_c, 7, 61, 64
22, 183223, Note_on_c, 7, 62, 74
22, 183309, Note_off_c, 7, 62, 64
22, 183450, Note_on_c, 7, 57, 82
22, 183507, Note_off_c, 7, 57, 64
22, 183579, Note_on_c, 7, 57, 100
22, 183680, Note_on_c, 7, 59, 66
22, 183696, Note_off_c, 7, 57, 64
22, 183754, Note_off_c, 7, 59, 64
22, 183801, Note_on_c, 7, 55, 72
22, 183853, Note_off_c, 7, 55, 64
22, 183925, Note_on_c, 7, 55, 89
22, 184030, Note_on_c, 7, 57, 64
22, 184035, Note_off_c, 7, 55, 64
22, 184110, Note_off_c, 7, 57, 64
22, 184161, Note_on_c, 7, 54, 66
22, 184215, Note_off_c, 7, 54, 64
22, 184287, Note_on_c, 7, 54, 78
22, 184398, Note_on_c, 7, 56, 66
22, 184420, Note_off_c, 7, 54, 64
22, 184503, Note_off_c, 7, 56, 64
22, 184506, Note_on_c, 7, 57, 70
22, 184636, Note_off_c, 7, 57, 64
22, 184643, Note_on_c, 7, 59, 82
22, 184760, Note_on_c, 7, 61, 59
22, 184766, Note_off_c, 7, 59, 64
22, 184845, Note_off_c, 7, 61, 64
22, 184870, Note_on_c, 7, 57, 63
22, 184917, Note_off_c, 7, 57, 64
22, 184996, Note_on_c, 7, 57, 89
22, 185102, Note_on_c, 7, 59, 63
22, 185109, Note_off_c, 7, 57, 64
22, 185189, Note_off_c, 7, 59, 64
22, 185225, Note_on_c, 7, 56, 58
22, 185289, Note_off_c, 7, 56, 64
22, 185370, Note_on_c, 7, 56, 57
22, 185469, Note_off_c, 7, 56, 64
22, 185600, Note_on_c, 7, 56, 57
22, 185662, Note_off_c, 7, 56, 64
22, 185738, Note_on_c, 7, 56, 63
22, 185858, Note_off_c, 7, 56, 64
22, 185968, Note_on_c, 7, 56, 58
22, 186027, Note_off_c, 7, 56, 64
22, 186103, Note_on_c, 7, 56, 80
22, 186211, Note_off_c, 7, 56, 64
22, 186321, Note_on_c, 7, 56, 61
22, 186391, Note_off_c, 7, 56, 64
22, 186454, Note_on_c, 7, 57, 80
22, 186549, Note_off_c, 7, 57, 64
22, 186666, Note_on_c, 7, 55, 62
22, 186742, Note_off_c, 7, 55, 64
22, 186807, Note_on_c, 7, 54, 59
22, 186908, Note_off_c, 7, 54, 64
22, 187043, Note_on_c, 7, 54, 60
22, 187113, Note_off_c, 7, 54, 64
22, 187179, Note_on_c, 7, 54, 66
22, 187278, Note_off_c, 7, 54, 64
22, 187392, Note_on_c, 7, 54, 63
22, 187457, Note_off_c, 7, 54, 64
22, 187532, Note_on_c, 7, 55, 82
22, 187644, Note_on_c, 7, 52, 66
22, 187682, Note_off_c, 7, 55, 64
22, 187748, Note_off_c, 7, 52, 64
22, 187755, Note_on_c, 7, 54, 64
22, 187838, Note_off_c, 7, 54, 64
22, 187892, Note_on_c, 7, 55, 102
22, 187995, Note_on_c, 7, 57, 64
22, 188007, Note_off_c, 7, 55, 64
22, 188060, Note_off_c, 7, 57, 64
22, 188110, Note_on_c, 7, 54, 85
22, 188168, Note_off_c, 7, 54, 64
22, 188243, Note_on_c, 7, 54, 89
22, 188346, Note_off_c, 7, 54, 64
22, 188346, Note_on_c, 7, 55, 66
22, 188429, Note_off_c, 7, 55, 64
22, 188474, Note_on_c, 7, 52, 64
22, 188537, Note_off_c, 7, 52, 64
22, 188621, Note_on_c, 7, 52, 82
22, 188726, Note_off_c, 7, 52, 64
22, 188841, Note_on_c, 7, 64, 62
22, 188902, Note_off_c, 7, 64, 64
22, 188983, Note_on_c, 7, 64, 66
22, 189087, Note_off_c, 7, 64, 64
22, 189221, Note_on_c, 7, 64, 60
22, 189282, Note_off_c, 7, 64, 64
22, 189366, Note_on_c, 7, 64, 80
22, 189480, Note_off_c, 7, 64, 64
22, 189939, Note_on_c, 7, 57, 53
22, 189987, Note_off_c, 7, 57, 64
22, 190056, Note_on_c, 7, 57, 70
22, 190149, Note_off_c, 7, 57, 64
22, 190279, Note_on_c, 7, 57, 61
22, 190340, Note_off_c, 7, 57, 64
22, 190407, Note_on_c, 7, 57, 66
22, 190538, Note_off_c, 7, 57, 64
22, 190997, Note_on_c, 7, 62, 53
22, 191051, Note_off_c, 7, 62, 64
22, 191118, Note_on_c, 7, 62, 70
22, 191229, Note_off_c, 7, 62, 64
22, 191337, Note_on_c, 7, 62, 60
22, 191411, Note_off_c, 7, 62, 64
22, 191487, Note_on_c, 7, 62, 85
22, 191602, Note_off_c, 7, 62, 64
22, 192065, Note_on_c, 7, 55, 68
22, 192138, Note_off_c, 7, 55, 64
22, 192201, Note_on_c, 7, 52, 72
22, 192302, Note_off_c, 7, 52, 64
22, 192437, Note_on_c, 7, 52, 68
22, 192518, Note_off_c, 7, 52, 64
22, 192569, Note_on_c, 7, 54, 64
22, 192680, Note_off_c, 7, 54, 64
22, 192788, Note_on_c, 7, 55, 66
22, 192864, Note_off_c, 7, 55, 64
22, 192929, Note_on_c, 7, 57, 70
22, 193022, Note_off_c, 7, 57, 64
22, 193152, Note_on_c, 7, 55, 62
22, 193229, Note_off_c, 7, 55, 64
22, 193289, Note_on_c, 7, 54, 66
22, 193388, Note_off_c, 7, 54, 64
22, 193518, Note_on_c, 7, 54, 62
22, 193617, Note_off_c, 7, 54, 64
22, 193651, Note_on_c, 7, 55, 70
22, 193755, Note_off_c, 7, 55, 64
22, 193897, Note_on_c, 7, 57, 76
22, 193978, Note_off_c, 7, 57, 64
22, 194028, Note_on_c, 7, 59, 82
22, 194137, Note_off_c, 7, 59, 64
22, 194403, Note_on_c, 7, 55, 80
22, 194530, Note_off_c, 7, 55, 64
22, 194779, Note_on_c, 7, 54, 63
22, 194891, Note_off_c, 7, 54, 64
22, 195130, Note_on_c, 7, 52, 80
22, 195234, Note_on_c, 7, 55, 80
22, 195243, Note_off_c, 7, 52, 64
22, 195350, Note_on_c, 7, 59, 74
22, 195366, Note_off_c, 7, 55, 64
22, 195420, Note_off_c, 7, 59, 64
22, 195481, Note_on_c, 7, 64, 85
22, 195589, Note_on_c, 7, 66, 64
22, 195598, Note_off_c, 7, 64, 64
22, 195672, Note_off_c, 7, 66, 64
22, 195701, Note_on_c, 7, 62, 62
22, 195755, Note_off_c, 7, 62, 64
22, 195823, Note_on_c, 7, 62, 87
22, 195935, Note_on_c, 7, 64, 64
22, 195944, Note_off_c, 7, 62, 64
22, 196001, Note_off_c, 7, 64, 64
22, 196046, Note_on_c, 7, 61, 80
22, 196098, Note_off_c, 7, 61, 64
22, 196194, Note_on_c, 7, 61, 89
22, 196354, Note_off_c, 7, 61, 64
22, 196768, Note_on_c, 7, 57, 68
22, 196840, Note_off_c, 7, 57, 64
22, 196905, Note_on_c, 7, 54, 62
22, 197024, Note_off_c, 7, 54, 64
22, 197133, Note_on_c, 7, 57, 68
22, 197202, Note_off_c, 7, 57, 64
22, 197259, Note_on_c, 7, 50, 82
22, 197378, Note_off_c, 7, 50, 64
22, 197486, Note_on_c, 7, 52, 66
22, 197564, Note_off_c, 7, 52, 64
22, 197612, Note_on_c, 7, 54, 72
22, 197726, Note_off_c, 7, 54, 64
22, 197839, Note_on_c, 7, 55, 66
22, 197931, Note_off_c, 7, 55, 64
22, 197969, Note_on_c, 7, 57, 82
22, 198044, Note_off_c, 7, 57, 64
22, 198201, Note_on_c, 7, 45, 78
22, 198284, Note_off_c, 7, 45, 64
22, 198336, Note_on_c, 7, 50, 78
22, 198446, Note_off_c, 7, 50, 64
22, 198581, Note_on_c, 7, 57, 68
22, 198644, Note_off_c, 7, 57, 64
22, 198714, Note_on_c, 7, 57, 91
22, 198816, Note_on_c, 7, 59, 64
22, 198829, Note_off_c, 7, 57, 64
22, 198885, Note_off_c, 7, 59, 64
22, 198937, Note_on_c, 7, 55, 72
22, 198991, Note_off_c, 7, 55, 64
22, 199068, Note_on_c, 7, 55, 87
22, 199173, Note_on_c, 7, 57, 61
22, 199194, Note_off_c, 7, 55, 64
22, 199247, Note_off_c, 7, 57, 64
22, 199301, Note_on_c, 7, 54, 64
22, 199364, Note_off_c, 7, 54, 64
22, 199428, Note_on_c, 7, 54, 85
22, 199536, Note_on_c, 7, 55, 72
22, 199565, Note_off_c, 7, 54, 64
22, 199605, Note_off_c, 7, 55, 64
22, 199653, Note_on_c, 7, 57, 74
22, 199704, Note_off_c, 7, 57, 64
22, 199788, Note_on_c, 7, 57, 98
22, 199887, Note_on_c, 7, 59, 66
22, 199920, Note_off_c, 7, 57, 64
22, 199968, Note_off_c, 7, 59, 64
22, 200006, Note_on_c, 7, 55, 66
22, 200062, Note_off_c, 7, 55, 64
22, 200145, Note_on_c, 7, 55, 91
22, 200244, Note_on_c, 7, 57, 68
22, 200273, Note_off_c, 7, 55, 64
22, 200328, Note_off_c, 7, 57, 64
22, 200357, Note_on_c, 7, 54, 63
22, 200453, Note_off_c, 7, 54, 64
22, 226415, Note_on_c, 7, 62, 78
22, 226475, Note_off_c, 7, 62, 64
22, 226548, Note_on_c, 7, 62, 93
22, 226653, Note_on_c, 7, 64, 66
22, 226676, Note_off_c, 7, 62, 64
22, 226710, Note_off_c, 7, 64, 64
22, 226784, Note_on_c, 7, 60, 82
22, 226840, Note_off_c, 7, 60, 64
22, 226908, Note_on_c, 7, 60, 91
22, 227002, Note_off_c, 7, 60, 64
22, 227007, Note_on_c, 7, 62, 63
22, 227076, Note_off_c, 7, 62, 64
22, 227133, Note_on_c, 7, 59, 80
22, 227186, Note_off_c, 7, 59, 64
22, 227259, Note_on_c, 7, 59, 85
22, 227367, Note_on_c, 7, 61, 62
22, 227373, Note_off_c, 7, 59, 64
22, 227434, Note_off_c, 7, 61, 64
22, 227497, Note_on_c, 7, 62, 63
22, 227553, Note_off_c, 7, 62, 64
22, 227637, Note_on_c, 7, 64, 91
22, 227747, Note_on_c, 7, 66, 62
22, 227769, Note_off_c, 7, 64, 64
22, 227826, Note_off_c, 7, 66, 64
22, 227866, Note_on_c, 7, 62, 68
22, 227916, Note_off_c, 7, 62, 64
22, 227994, Note_on_c, 7, 62, 89
22, 228098, Note_on_c, 7, 64, 64
22, 228114, Note_off_c, 7, 62, 64
22, 228165, Note_off_c, 7, 64, 64
22, 228230, Note_on_c, 7, 61, 78
22, 228293, Note_off_c, 7, 61, 64
22, 228357, Note_on_c, 7, 61, 85
22, 228496, Note_off_c, 7, 61, 64
22, 228597, Note_on_c, 7, 61, 78
22, 228654, Note_off_c, 7, 61, 64
22, 228716, Note_on_c, 7, 61, 82
22, 228861, Note_off_c, 7, 61, 64
22, 228951, Note_on_c, 7, 61, 78
22, 229002, Note_off_c, 7, 61, 64
22, 229077, Note_on_c, 7, 61, 85
22, 229211, Note_off_c, 7, 61, 64
22, 229304, Note_on_c, 7, 61, 80
22, 229387, Note_off_c, 7, 61, 64
22, 229436, Note_on_c, 7, 62, 82
22, 229544, Note_off_c, 7, 62, 64
22, 229666, Note_on_c, 7, 57, 68
22, 229718, Note_off_c, 7, 57, 64
22, 229788, Note_on_c, 7, 57, 93
22, 229893, Note_on_c, 7, 59, 70
22, 229916, Note_off_c, 7, 57, 64
22, 229959, Note_off_c, 7, 59, 64
22, 230046, Note_on_c, 7, 55, 74
22, 230096, Note_off_c, 7, 55, 64
22, 230156, Note_on_c, 7, 55, 98
22, 230240, Note_on_c, 7, 57, 66
22, 230244, Note_off_c, 7, 55, 64
22, 230327, Note_off_c, 7, 57, 64
22, 230377, Note_on_c, 7, 54, 62
22, 230424, Note_off_c, 7, 54, 64
22, 230496, Note_on_c, 7, 54, 91
22, 230600, Note_on_c, 7, 56, 76
22, 230615, Note_off_c, 7, 54, 64
22, 230661, Note_off_c, 7, 56, 64
22, 230721, Note_on_c, 7, 57, 66
22, 230782, Note_off_c, 7, 57, 64
22, 230852, Note_on_c, 7, 59, 91
22, 230964, Note_on_c, 7, 61, 63
22, 230976, Note_off_c, 7, 59, 64
22, 231052, Note_off_c, 7, 61, 64
22, 231086, Note_on_c, 7, 57, 68
22, 231133, Note_off_c, 7, 57, 64
22, 231207, Note_on_c, 7, 57, 91
22, 231302, Note_on_c, 7, 59, 68
22, 231317, Note_off_c, 7, 57, 64
22, 231371, Note_off_c, 7, 59, 64
22, 231435, Note_on_c, 7, 56, 80
22, 231488, Note_off_c, 7, 56, 64
22, 231554, Note_on_c, 7, 56, 91
22, 231699, Note_off_c, 7, 56, 64
22, 231804, Note_on_c, 7, 56, 64
22, 231857, Note_off_c, 7, 56, 64
22, 231925, Note_on_c, 7, 56, 85
22, 232060, Note_off_c, 7, 56, 64
22, 232166, Note_on_c, 7, 56, 61
22, 232222, Note_off_c, 7, 56, 64
22, 232276, Note_on_c, 7, 56, 80
22, 232400, Note_off_c, 7, 56, 64
22, 232499, Note_on_c, 7, 56, 72
22, 232560, Note_off_c, 7, 56, 64
22, 232636, Note_on_c, 7, 57, 82
22, 232760, Note_off_c, 7, 57, 64
22, 232848, Note_on_c, 7, 55, 60
22, 232915, Note_off_c, 7, 55, 64
22, 232980, Note_on_c, 7, 54, 64
22, 233121, Note_off_c, 7, 54, 64
22, 233217, Note_on_c, 7, 54, 61
22, 233273, Note_off_c, 7, 54, 64
22, 233336, Note_on_c, 7, 54, 72
22, 233478, Note_off_c, 7, 54, 64
22, 233558, Note_on_c, 7, 54, 62
22, 233619, Note_off_c, 7, 54, 64
22, 233685, Note_on_c, 7, 55, 82
22, 233788, Note_off_c, 7, 55, 64
22, 233808, Note_on_c, 7, 52, 63
22, 233873, Note_off_c, 7, 52, 64
22, 233932, Note_on_c, 7, 54, 64
22, 233986, Note_off_c, 7, 54, 64
22, 234074, Note_on_c, 7, 55, 98
22, 234182, Note_on_c, 7, 57, 64
22, 234193, Note_off_c, 7, 55, 64
22, 234240, Note_off_c, 7, 57, 64
22, 234312, Note_on_c, 7, 54, 93
22, 234366, Note_off_c, 7, 54, 64
22, 234430, Note_on_c, 7, 54, 87
22, 234533, Note_on_c, 7, 55, 64
22, 234539, Note_off_c, 7, 54, 64
22, 234609, Note_off_c, 7, 55, 64
22, 234675, Note_on_c, 7, 52, 64
22, 234738, Note_off_c, 7, 52, 64
22, 234825, Note_on_c, 7, 52, 82
22, 234972, Note_off_c, 7, 52, 64
22, 235059, Note_on_c, 7, 52, 72
22, 235111, Note_off_c, 7, 52, 64
22, 235185, Note_on_c, 7, 52, 82
22, 235311, Note_off_c, 7, 52, 64
22, 235406, Note_on_c, 7, 52, 76
22, 235467, Note_off_c, 7, 52, 64
22, 235541, Note_on_c, 7, 52, 89
22, 235664, Note_off_c, 7, 52, 64
22, 236126, Note_on_c, 7, 45, 61
22, 236186, Note_off_c, 7, 45, 64
22, 236250, Note_on_c, 7, 45, 78
22, 236385, Note_off_c, 7, 45, 64
22, 236484, Note_on_c, 7, 45, 80
22, 236555, Note_off_c, 7, 45, 64
22, 236611, Note_on_c, 7, 45, 87
22, 236745, Note_off_c, 7, 45, 64
22, 237203, Note_on_c, 7, 50, 72
22, 237262, Note_off_c, 7, 50, 64
22, 237325, Note_on_c, 7, 50, 82
22, 237455, Note_off_c, 7, 50, 64
22, 237550, Note_on_c, 7, 50, 72
22, 237618, Note_off_c, 7, 50, 64
22, 237692, Note_on_c, 7, 50, 82
22, 237829, Note_off_c, 7, 50, 64
22, 238268, Note_on_c, 7, 55, 82
22, 238346, Note_off_c, 7, 55, 64
22, 238403, Note_on_c, 7, 52, 85
22, 238526, Note_off_c, 7, 52, 64
22, 238634, Note_on_c, 7, 52, 68
22, 238702, Note_off_c, 7, 52, 64
22, 238758, Note_on_c, 7, 54, 78
22, 238925, Note_off_c, 7, 54, 64
22, 239006, Note_on_c, 7, 55, 74
22, 239076, Note_off_c, 7, 55, 64
22, 239130, Note_on_c, 7, 57, 80
22, 239273, Note_off_c, 7, 57, 64
22, 239375, Note_on_c, 7, 55, 70
22, 239453, Note_off_c, 7, 55, 64
22, 239510, Note_on_c, 7, 54, 80
22, 239649, Note_off_c, 7, 54, 64
22, 239732, Note_on_c, 7, 54, 52
22, 239807, Note_off_c, 7, 54, 64
22, 239850, Note_on_c, 7, 55, 74
22, 239989, Note_off_c, 7, 55, 64
22, 240081, Note_on_c, 7, 57, 72
22, 240160, Note_off_c, 7, 57, 64
22, 240214, Note_on_c, 7, 59, 85
22, 240354, Note_off_c, 7, 59, 64
22, 240590, Note_on_c, 7, 55, 85
22, 240722, Note_off_c, 7, 55, 64
22, 240929, Note_on_c, 7, 54, 70
22, 241044, Note_off_c, 7, 54, 64
22, 241310, Note_on_c, 7, 52, 89
22, 241420, Note_on_c, 7, 55, 68
22, 241440, Note_off_c, 7, 52, 64
22, 241510, Note_off_c, 7, 55, 64
22, 241532, Note_on_c, 7, 59, 82
22, 241584, Note_off_c, 7, 59, 64
22, 241668, Note_on_c, 7, 64, 85
22, 241776, Note_on_c, 7, 66, 74
22, 241793, Note_off_c, 7, 64, 64
22, 241866, Note_off_c, 7, 66, 64
22, 241897, Note_on_c, 7, 62, 62
22, 241947, Note_off_c, 7, 62, 64
22, 242021, Note_on_c, 7, 62, 100
22, 242115, Note_on_c, 7, 64, 66
22, 242131, Note_off_c, 7, 62, 64
22, 242183, Note_off_c, 7, 64, 64
22, 242240, Note_on_c, 7, 61, 91
22, 242300, Note_off_c, 7, 61, 64
22, 242383, Note_on_c, 7, 61, 89
22, 242600, Note_off_c, 7, 61, 64
22, 242964, Note_on_c, 7, 57, 72
22, 243020, Note_off_c, 7, 57, 64
22, 243085, Note_on_c, 7, 54, 89
22, 243195, Note_off_c, 7, 54, 64
22, 243324, Note_on_c, 7, 57, 70
22, 243391, Note_off_c, 7, 57, 64
22, 243463, Note_on_c, 7, 50, 78
22, 243585, Note_off_c, 7, 50, 64
22, 243677, Note_on_c, 7, 52, 64
22, 243756, Note_off_c, 7, 52, 64
22, 243818, Note_on_c, 7, 54, 82
22, 243947, Note_off_c, 7, 54, 64
22, 244037, Note_on_c, 7, 55, 66
22, 244111, Note_off_c, 7, 55, 64
22, 244170, Note_on_c, 7, 57, 87
22, 244273, Note_off_c, 7, 57, 64
22, 244404, Note_on_c, 7, 45, 87
22, 244514, Note_off_c, 7, 45, 64
22, 244527, Note_on_c, 7, 50, 87
22, 244766, Note_off_c, 7, 50, 64
22, 245645, Note_on_c, 7, 38, 100
22, 245841, Note_off_c, 7, 38, 64
22, 246717, Note_on_c, 7, 50, 87
22, 246917, Note_off_c, 7, 50, 64
22, 267459, Note_on_c, 7, 64, 78
22, 267515, Note_off_c, 7, 64, 64
22, 267587, Note_on_c, 7, 64, 87
22, 267695, Note_on_c, 7, 66, 57
22, 267723, Note_off_c, 7, 64, 64
22, 267790, Note_off_c, 7, 66, 64
22, 267798, Note_on_c, 7, 62, 62
22, 267849, Note_off_c, 7, 62, 64
22, 267938, Note_on_c, 7, 62, 85
22, 268040, Note_on_c, 7, 64, 60
22, 268069, Note_off_c, 7, 62, 64
22, 268112, Note_off_c, 7, 64, 64
22, 268163, Note_on_c, 7, 61, 56
22, 268211, Note_off_c, 7, 61, 64
22, 268301, Note_on_c, 7, 61, 78
22, 268404, Note_on_c, 7, 62, 72
22, 268433, Note_off_c, 7, 61, 64
22, 268521, Note_off_c, 7, 62, 64
22, 268523, Note_on_c, 7, 64, 66
22, 268579, Note_off_c, 7, 64, 64
22, 268661, Note_on_c, 7, 64, 89
22, 268769, Note_on_c, 7, 66, 56
22, 268796, Note_off_c, 7, 64, 64
22, 268870, Note_off_c, 7, 66, 64
22, 268886, Note_on_c, 7, 62, 63
22, 268938, Note_off_c, 7, 62, 64
22, 269019, Note_on_c, 7, 62, 87
22, 269126, Note_on_c, 7, 64, 64
22, 269156, Note_off_c, 7, 62, 64
22, 269208, Note_off_c, 7, 64, 64
22, 269223, Note_on_c, 7, 61, 62
22, 269279, Note_off_c, 7, 61, 64
22, 269369, Note_on_c, 7, 61, 89
22, 269689, Note_off_c, 7, 61, 64
22, 270679, Note_on_c, 7, 57, 70
22, 270735, Note_off_c, 7, 57, 64
22, 270812, Note_on_c, 7, 57, 87
22, 270906, Note_on_c, 7, 59, 60
22, 270933, Note_off_c, 7, 57, 64
22, 270983, Note_off_c, 7, 59, 64
22, 271039, Note_on_c, 7, 56, 82
22, 271091, Note_off_c, 7, 56, 64
22, 271169, Note_on_c, 7, 56, 87
22, 271268, Note_on_c, 7, 57, 63
22, 271280, Note_off_c, 7, 56, 64
22, 271343, Note_off_c, 7, 57, 64
22, 271394, Note_on_c, 7, 54, 63
22, 271442, Note_off_c, 7, 54, 64
22, 271530, Note_on_c, 7, 54, 82
22, 271640, Note_on_c, 7, 56, 59
22, 271664, Note_off_c, 7, 54, 64
22, 271712, Note_off_c, 7, 56, 64
22, 271748, Note_on_c, 7, 57, 59
22, 271833, Note_off_c, 7, 57, 64
22, 271899, Note_on_c, 7, 59, 82
22, 272016, Note_on_c, 7, 61, 58
22, 272038, Note_off_c, 7, 59, 64
22, 272121, Note_off_c, 7, 61, 64
22, 272130, Note_on_c, 7, 57, 61
22, 272180, Note_off_c, 7, 57, 64
22, 272249, Note_on_c, 7, 57, 82
22, 272350, Note_on_c, 7, 59, 63
22, 272373, Note_off_c, 7, 57, 64
22, 272430, Note_off_c, 7, 59, 64
22, 272479, Note_on_c, 7, 56, 82
22, 272546, Note_off_c, 7, 56, 64
22, 272630, Note_on_c, 7, 56, 89
22, 272765, Note_off_c, 7, 56, 64
22, 272879, Note_on_c, 7, 56, 57
22, 272931, Note_off_c, 7, 56, 64
22, 272993, Note_on_c, 7, 56, 61
22, 273132, Note_off_c, 7, 56, 64
22, 273240, Note_on_c, 7, 56, 57
22, 273289, Note_off_c, 7, 56, 64
22, 273352, Note_on_c, 7, 56, 78
22, 273465, Note_off_c, 7, 56, 64
22, 273577, Note_on_c, 7, 56, 57
22, 273638, Note_off_c, 7, 56, 64
22, 273710, Note_on_c, 7, 57, 82
22, 273822, Note_off_c, 7, 57, 64
22, 273941, Note_on_c, 7, 52, 66
22, 273996, Note_off_c, 7, 52, 64
22, 274061, Note_on_c, 7, 52, 89
22, 274158, Note_on_c, 7, 54, 63
22, 274176, Note_off_c, 7, 52, 64
22, 274243, Note_off_c, 7, 54, 64
22, 274277, Note_on_c, 7, 50, 62
22, 274320, Note_off_c, 7, 50, 64
22, 274409, Note_on_c, 7, 50, 87
22, 274517, Note_on_c, 7, 52, 60
22, 274535, Note_off_c, 7, 50, 64
22, 274608, Note_off_c, 7, 52, 64
22, 274650, Note_on_c, 7, 49, 78
22, 274706, Note_off_c, 7, 49, 64
22, 274772, Note_on_c, 7, 49, 82
22, 274875, Note_on_c, 7, 50, 68
22, 274882, Note_off_c, 7, 49, 64
22, 275008, Note_on_c, 7, 52, 64
22, 275022, Note_off_c, 7, 50, 64
22, 275080, Note_off_c, 7, 52, 64
22, 275145, Note_on_c, 7, 54, 89
22, 275247, Note_on_c, 7, 55, 70
22, 275276, Note_off_c, 7, 54, 64
22, 275336, Note_off_c, 7, 55, 64
22, 275368, Note_on_c, 7, 52, 66
22, 275417, Note_off_c, 7, 52, 64
22, 275499, Note_on_c, 7, 52, 82
22, 275604, Note_on_c, 7, 54, 58
22, 275607, Note_off_c, 7, 52, 64
22, 275696, Note_off_c, 7, 54, 64
22, 275726, Note_on_c, 7, 51, 59
22, 275791, Note_off_c, 7, 51, 64
22, 275861, Note_on_c, 7, 51, 78
22, 275978, Note_off_c, 7, 51, 64
22, 276106, Note_on_c, 7, 51, 57
22, 276171, Note_off_c, 7, 51, 64
22, 276225, Note_on_c, 7, 51, 66
22, 276347, Note_off_c, 7, 51, 64
22, 276452, Note_on_c, 7, 51, 59
22, 276518, Note_off_c, 7, 51, 64
22, 276587, Note_on_c, 7, 51, 72
22, 276700, Note_off_c, 7, 51, 64
22, 276794, Note_on_c, 7, 51, 57
22, 276878, Note_off_c, 7, 51, 64
22, 276941, Note_on_c, 7, 52, 72
22, 277096, Note_off_c, 7, 52, 64
22, 277150, Note_on_c, 7, 50, 66
22, 277209, Note_off_c, 7, 50, 64
22, 277290, Note_on_c, 7, 49, 72
22, 277427, Note_off_c, 7, 49, 64
22, 277545, Note_on_c, 7, 49, 64
22, 277611, Note_off_c, 7, 49, 64
22, 277665, Note_on_c, 7, 49, 82
22, 277778, Note_off_c, 7, 49, 64
22, 277865, Note_on_c, 7, 49, 76
22, 277941, Note_off_c, 7, 49, 64
22, 278014, Note_on_c, 7, 50, 82
22, 278126, Note_on_c, 7, 47, 64
22, 278137, Note_off_c, 7, 50, 64
22, 278201, Note_off_c, 7, 47, 64
22, 278234, Note_on_c, 7, 49, 70
22, 278300, Note_off_c, 7, 49, 64
22, 278376, Note_on_c, 7, 50, 89
22, 278480, Note_on_c, 7, 52, 68
22, 278496, Note_off_c, 7, 50, 64
22, 278556, Note_off_c, 7, 52, 64
22, 278613, Note_on_c, 7, 49, 82
22, 278673, Note_off_c, 7, 49, 64
22, 278743, Note_on_c, 7, 49, 89
22, 278835, Note_on_c, 7, 50, 64
22, 278838, Note_off_c, 7, 49, 64
22, 278914, Note_off_c, 7, 50, 64
22, 278961, Note_on_c, 7, 47, 68
22, 279033, Note_off_c, 7, 47, 64
22, 279090, Note_on_c, 7, 47, 82
22, 279193, Note_off_c, 7, 47, 64
22, 279319, Note_on_c, 7, 59, 74
22, 279384, Note_off_c, 7, 59, 64
22, 279441, Note_on_c, 7, 59, 82
22, 279569, Note_off_c, 7, 59, 64
22, 279683, Note_on_c, 7, 59, 66
22, 279738, Note_off_c, 7, 59, 64
22, 279812, Note_on_c, 7, 59, 82
22, 279995, Note_off_c, 7, 59, 64
22, 280404, Note_on_c, 7, 52, 57
22, 280457, Note_off_c, 7, 52, 64
22, 280520, Note_on_c, 7, 52, 66
22, 280647, Note_off_c, 7, 52, 64
22, 280770, Note_on_c, 7, 52, 57
22, 280833, Note_off_c, 7, 52, 64
22, 280892, Note_on_c, 7, 52, 82
22, 281033, Note_off_c, 7, 52, 64
22, 281465, Note_on_c, 7, 57, 58
22, 281517, Note_off_c, 7, 57, 64
22, 281583, Note_on_c, 7, 57, 68
22, 281709, Note_off_c, 7, 57, 64
22, 281846, Note_on_c, 7, 57, 85
22, 281906, Note_off_c, 7, 57, 64
22, 281967, Note_on_c, 7, 57, 80
22, 282122, Note_off_c, 7, 57, 64
22, 282541, Note_on_c, 7, 50, 72
22, 282611, Note_off_c, 7, 50, 64
22, 282679, Note_on_c, 7, 47, 68
22, 282797, Note_off_c, 7, 47, 64
22, 282903, Note_on_c, 7, 47, 68
22, 282987, Note_off_c, 7, 47, 64
22, 283027, Note_on_c, 7, 49, 76
22, 283146, Note_off_c, 7, 49, 64
22, 283250, Note_on_c, 7, 50, 68
22, 283322, Note_off_c, 7, 50, 64
22, 283376, Note_on_c, 7, 52, 76
22, 283506, Note_off_c, 7, 52, 64
22, 283605, Note_on_c, 7, 50, 72
22, 283679, Note_off_c, 7, 50, 64
22, 283747, Note_on_c, 7, 49, 89
22, 283871, Note_off_c, 7, 49, 64
22, 283981, Note_on_c, 7, 49, 60
22, 284057, Note_off_c, 7, 49, 64
22, 284114, Note_on_c, 7, 50, 72
22, 284253, Note_off_c, 7, 50, 64
22, 284341, Note_on_c, 7, 52, 70
22, 284431, Note_off_c, 7, 52, 64
22, 284480, Note_on_c, 7, 54, 85
22, 284609, Note_off_c, 7, 54, 64
22, 284870, Note_on_c, 7, 50, 82
22, 284996, Note_off_c, 7, 50, 64
22, 285225, Note_on_c, 7, 49, 72
22, 285329, Note_off_c, 7, 49, 64
22, 285606, Note_on_c, 7, 47, 80
22, 285702, Note_on_c, 7, 50, 80
22, 285732, Note_off_c, 7, 47, 64
22, 285810, Note_on_c, 7, 54, 68
22, 285831, Note_off_c, 7, 50, 64
22, 285884, Note_off_c, 7, 54, 64
22, 285945, Note_on_c, 7, 59, 80
22, 286056, Note_on_c, 7, 61, 63
22, 286076, Note_off_c, 7, 59, 64
22, 286152, Note_off_c, 7, 61, 64
22, 286161, Note_on_c, 7, 57, 66
22, 286211, Note_off_c, 7, 57, 64
22, 286287, Note_on_c, 7, 57, 85
22, 286379, Note_on_c, 7, 59, 68
22, 286404, Note_off_c, 7, 57, 64
22, 286458, Note_off_c, 7, 59, 64
22, 286509, Note_on_c, 7, 56, 95
22, 286573, Note_off_c, 7, 56, 64
22, 286656, Note_on_c, 7, 56, 95
22, 286953, Note_off_c, 7, 56, 64
22, 287241, Note_on_c, 7, 52, 66
22, 287313, Note_off_c, 7, 52, 64
22, 287369, Note_on_c, 7, 49, 80
22, 287487, Note_off_c, 7, 49, 64
22, 287594, Note_on_c, 7, 52, 78
22, 287655, Note_off_c, 7, 52, 64
22, 287727, Note_on_c, 7, 45, 74
22, 287856, Note_off_c, 7, 45, 64
22, 287950, Note_on_c, 7, 47, 68
22, 288026, Note_off_c, 7, 47, 64
22, 288074, Note_on_c, 7, 49, 85
22, 288211, Note_off_c, 7, 49, 64
22, 288319, Note_on_c, 7, 50, 68
22, 288395, Note_off_c, 7, 50, 64
22, 288443, Note_on_c, 7, 52, 78
22, 288544, Note_off_c, 7, 52, 64
22, 288686, Note_on_c, 7, 40, 74
22, 288767, Note_off_c, 7, 40, 64
22, 288825, Note_on_c, 7, 45, 82
22, 289197, Note_off_c, 7, 45, 64
22, 303090, Note_on_c, 7, 54, 57
22, 303135, Note_off_c, 7, 54, 64
22, 303209, Note_on_c, 7, 54, 82
22, 303354, Note_off_c, 7, 54, 64
22, 303435, Note_on_c, 7, 54, 64
22, 303498, Note_off_c, 7, 54, 64
22, 303560, Note_on_c, 7, 54, 66
22, 303682, Note_off_c, 7, 54, 64
22, 303797, Note_on_c, 7, 54, 58
22, 303857, Note_off_c, 7, 54, 64
22, 303923, Note_on_c, 7, 54, 82
22, 304029, Note_off_c, 7, 54, 64
22, 304166, Note_on_c, 7, 42, 66
22, 304231, Note_off_c, 7, 42, 64
22, 304287, Note_on_c, 7, 42, 82
22, 304424, Note_off_c, 7, 42, 64
22, 304530, Note_on_c, 7, 42, 82
22, 304605, Note_off_c, 7, 42, 64
22, 304650, Note_on_c, 7, 42, 87
22, 304757, Note_off_c, 7, 42, 64
22, 304857, Note_on_c, 7, 42, 85
22, 304933, Note_off_c, 7, 42, 64
22, 305007, Note_on_c, 7, 42, 100
22, 305151, Note_off_c, 7, 42, 64
22, 305225, Note_on_c, 7, 52, 68
22, 305293, Note_off_c, 7, 52, 64
22, 305347, Note_on_c, 7, 50, 70
22, 305475, Note_off_c, 7, 50, 64
22, 305585, Note_on_c, 7, 55, 68
22, 305658, Note_off_c, 7, 55, 64
22, 305725, Note_on_c, 7, 49, 74
22, 305846, Note_off_c, 7, 49, 64
22, 305937, Note_on_c, 7, 54, 64
22, 306015, Note_off_c, 7, 54, 64
22, 306085, Note_on_c, 7, 47, 87
22, 306191, Note_off_c, 7, 47, 64
22, 306294, Note_on_c, 7, 54, 63
22, 306366, Note_off_c, 7, 54, 64
22, 306442, Note_on_c, 7, 59, 82
22, 306558, Note_on_c, 7, 61, 64
22, 306566, Note_off_c, 7, 59, 64
22, 306634, Note_off_c, 7, 61, 64
22, 306665, Note_on_c, 7, 57, 64
22, 306717, Note_off_c, 7, 57, 64
22, 306792, Note_on_c, 7, 57, 87
22, 306904, Note_on_c, 7, 59, 60
22, 306922, Note_off_c, 7, 57, 64
22, 306985, Note_off_c, 7, 59, 64
22, 307017, Note_on_c, 7, 55, 68
22, 307070, Note_off_c, 7, 55, 64
22, 307149, Note_on_c, 7, 55, 80
22, 307244, Note_off_c, 7, 55, 64
22, 307264, Note_on_c, 7, 52, 80
22, 307363, Note_on_c, 7, 54, 66
22, 307394, Note_off_c, 7, 52, 64
22, 307484, Note_off_c, 7, 54, 64
22, 307493, Note_on_c, 7, 55, 82
22, 307604, Note_on_c, 7, 57, 78
22, 307619, Note_off_c, 7, 55, 64
22, 307683, Note_off_c, 7, 57, 64
22, 307741, Note_on_c, 7, 54, 80
22, 307793, Note_off_c, 7, 54, 64
22, 307880, Note_on_c, 7, 54, 93
22, 307984, Note_on_c, 7, 55, 66
22, 308011, Note_off_c, 7, 54, 64
22, 308063, Note_off_c, 7, 55, 64
22, 308112, Note_on_c, 7, 52, 68
22, 308160, Note_off_c, 7, 52, 64
22, 308243, Note_on_c, 7, 52, 78
22, 308382, Note_off_c, 7, 52, 64
22, 308466, Note_on_c, 7, 50, 66
22, 308547, Note_off_c, 7, 50, 64
22, 308610, Note_on_c, 7, 49, 70
22, 308754, Note_off_c, 7, 49, 64
22, 308817, Note_on_c, 7, 52, 80
22, 308885, Note_off_c, 7, 52, 64
22, 308974, Note_on_c, 7, 46, 63
22, 309095, Note_off_c, 7, 46, 64
22, 309208, Note_on_c, 7, 49, 78
22, 309290, Note_off_c, 7, 49, 64
22, 309350, Note_on_c, 7, 42, 64
22, 309732, Note_off_c, 7, 42, 64
22, 309941, Note_on_c, 7, 55, 66
22, 310011, Note_off_c, 7, 55, 64
22, 310063, Note_on_c, 7, 54, 85
22, 310175, Note_off_c, 7, 54, 64
22, 310290, Note_on_c, 7, 52, 66
22, 310353, Note_off_c, 7, 52, 64
22, 310464, Note_on_c, 7, 50, 89
22, 310560, Note_off_c, 7, 50, 64
22, 310657, Note_on_c, 7, 47, 58
22, 310733, Note_off_c, 7, 47, 64
22, 310785, Note_on_c, 7, 52, 74
22, 310896, Note_on_c, 7, 54, 76
22, 310898, Note_off_c, 7, 52, 64
22, 310986, Note_off_c, 7, 54, 64
22, 311015, Note_on_c, 7, 55, 89
22, 311080, Note_off_c, 7, 55, 64
22, 311148, Note_on_c, 7, 54, 100
22, 311264, Note_off_c, 7, 54, 64
22, 311379, Note_on_c, 7, 42, 70
22, 311454, Note_off_c, 7, 42, 64
22, 311505, Note_on_c, 7, 47, 87
22, 311730, Note_off_c, 7, 47, 64
22, 375255, Note_on_c, 7, 54, 85
22, 375496, Note_off_c, 7, 54, 64
22, 375733, Note_on_c, 7, 50, 85
22, 376003, Note_off_c, 7, 50, 64
22, 376029, Note_on_c, 7, 52, 80
22, 376065, Note_off_c, 7, 52, 64
22, 376087, Note_on_c, 7, 54, 98
22, 376119, Note_off_c, 7, 54, 64
22, 376145, Note_on_c, 7, 50, 87
22, 376200, Note_off_c, 7, 50, 64
22, 376220, Note_on_c, 7, 60, 98
22, 376935, Note_off_c, 7, 60, 64
22, 376973, Note_on_c, 7, 59, 89
22, 377013, Note_off_c, 7, 59, 64
22, 377032, Note_on_c, 7, 60, 85
22, 377065, Note_off_c, 7, 60, 64
22, 377083, Note_on_c, 7, 57, 95
22, 377131, Note_off_c, 7, 57, 64
22, 377155, Note_on_c, 7, 63, 98
22, 377681, Note_off_c, 7, 63, 64
22, 377703, Note_on_c, 7, 61, 82
22, 377746, Note_off_c, 7, 61, 64
22, 377758, Note_on_c, 7, 59, 78
22, 377798, Note_off_c, 7, 59, 64
22, 377816, Note_on_c, 7, 61, 85
22, 377851, Note_off_c, 7, 61, 64
22, 377876, Note_on_c, 7, 63, 98
22, 377915, Note_off_c, 7, 63, 64
22, 377931, Note_on_c, 7, 61, 89
22, 377972, Note_off_c, 7, 61, 64
22, 377989, Note_on_c, 7, 63, 95
22, 378024, Note_off_c, 7, 63, 64
22, 378038, Note_on_c, 7, 59, 80
22, 378090, Note_off_c, 7, 59, 64
22, 378112, Note_on_c, 7, 64, 95
22, 378212, Note_off_c, 7, 64, 64
22, 378295, Note_on_c, 7, 59, 82
22, 378330, Note_off_c, 7, 59, 64
22, 378356, Note_on_c, 7, 59, 87
22, 378438, Note_off_c, 7, 59, 64
22, 378543, Note_on_c, 7, 55, 85
22, 378579, Note_off_c, 7, 55, 64
22, 378604, Note_on_c, 7, 55, 85
22, 378679, Note_off_c, 7, 55, 64
22, 378770, Note_on_c, 7, 52, 82
22, 378807, Note_off_c, 7, 52, 64
22, 378834, Note_on_c, 7, 52, 95
22, 378905, Note_off_c, 7, 52, 64
22, 378997, Note_on_c, 7, 45, 82
22, 379038, Note_off_c, 7, 45, 64
22, 379063, Note_on_c, 7, 45, 95
22, 379158, Note_off_c, 7, 45, 64
22, 379242, Note_on_c, 7, 57, 87
22, 379277, Note_off_c, 7, 57, 64
22, 379302, Note_on_c, 7, 57, 98
22, 379387, Note_off_c, 7, 57, 64
22, 379480, Note_on_c, 7, 52, 82
22, 379513, Note_off_c, 7, 52, 64
22, 379541, Note_on_c, 7, 52, 91
22, 379626, Note_off_c, 7, 52, 64
22, 379716, Note_on_c, 7, 49, 78
22, 379750, Note_off_c, 7, 49, 64
22, 379776, Note_on_c, 7, 49, 102
22, 379849, Note_off_c, 7, 49, 64
22, 379950, Note_on_c, 7, 45, 89
22, 379998, Note_off_c, 7, 45, 64
22, 380018, Note_on_c, 7, 50, 95
22, 380111, Note_off_c, 7, 50, 64
22, 380198, Note_on_c, 7, 45, 80
22, 380238, Note_off_c, 7, 45, 64
22, 380261, Note_on_c, 7, 45, 91
22, 380343, Note_off_c, 7, 45, 64
22, 380435, Note_on_c, 7, 42, 87
22, 380471, Note_off_c, 7, 42, 64
22, 380496, Note_on_c, 7, 42, 98
22, 380577, Note_off_c, 7, 42, 64
22, 380680, Note_on_c, 7, 38, 87
22, 380714, Note_off_c, 7, 38, 64
22, 380738, Note_on_c, 7, 38, 95
22, 380815, Note_off_c, 7, 38, 64
22, 380904, Note_on_c, 7, 42, 70
22, 380941, Note_off_c, 7, 42, 64
22, 380971, Note_on_c, 7, 43, 102
22, 381077, Note_off_c, 7, 43, 64
22, 381160, Note_on_c, 7, 47, 78
22, 381199, Note_off_c, 7, 47, 64
22, 381230, Note_on_c, 7, 47, 89
22, 381312, Note_off_c, 7, 47, 64
22, 381408, Note_on_c, 7, 52, 80
22, 381444, Note_off_c, 7, 52, 64
22, 381468, Note_on_c, 7, 52, 89
22, 381551, Note_off_c, 7, 52, 64
22, 381649, Note_on_c, 7, 55, 82
22, 381680, Note_off_c, 7, 55, 64
22, 381707, Note_on_c, 7, 55, 87
22, 381787, Note_off_c, 7, 55, 64
22, 381886, Note_on_c, 7, 52, 76
22, 381926, Note_off_c, 7, 52, 64
22, 381953, Note_on_c, 7, 49, 89
22, 382033, Note_off_c, 7, 49, 64
22, 382144, Note_on_c, 7, 45, 89
22, 382176, Note_off_c, 7, 45, 64
22, 382201, Note_on_c, 7, 45, 102
22, 382283, Note_off_c, 7, 45, 64
22, 382370, Note_on_c, 7, 49, 82
22, 382408, Note_off_c, 7, 49, 64
22, 382435, Note_on_c, 7, 50, 87
22, 383183, Note_off_c, 7, 50, 64
22, 383216, Note_on_c, 7, 49, 102
22, 383251, Note_off_c, 7, 49, 64
22, 383275, Note_on_c, 7, 50, 95
22, 383313, Note_off_c, 7, 50, 64
22, 383329, Note_on_c, 7, 47, 82
22, 383368, Note_off_c, 7, 47, 64
22, 383394, Note_on_c, 7, 49, 105
22, 383489, Note_off_c, 7, 49, 64
22, 383638, Note_on_c, 7, 45, 93
22, 383725, Note_off_c, 7, 45, 64
22, 383872, Note_on_c, 7, 50, 98
22, 384380, Note_off_c, 7, 50, 64
22, 384432, Note_on_c, 7, 50, 89
22, 384480, Note_off_c, 7, 50, 64
22, 384487, Note_on_c, 7, 52, 80
22, 384526, Note_off_c, 7, 52, 64
22, 384548, Note_on_c, 7, 54, 85
22, 384581, Note_off_c, 7, 54, 64
22, 384606, Note_on_c, 7, 55, 85
22, 384644, Note_off_c, 7, 55, 64
22, 384662, Note_on_c, 7, 54, 100
22, 384697, Note_off_c, 7, 54, 64
22, 384721, Note_on_c, 7, 55, 89
22, 384762, Note_off_c, 7, 55, 64
22, 384778, Note_on_c, 7, 52, 93
22, 384811, Note_off_c, 7, 52, 64
22, 384846, Note_on_c, 7, 50, 95
22, 384970, Note_on_c, 7, 49, 85
22, 384975, Note_off_c, 7, 50, 64
22, 385181, Note_off_c, 7, 49, 64
22, 385252, Note_on_c, 7, 47, 85
22, 385298, Note_off_c, 7, 47, 64
22, 385312, Note_on_c, 7, 46, 85
22, 385413, Note_off_c, 7, 46, 64
22, 385564, Note_on_c, 7, 42, 85
22, 385653, Note_off_c, 7, 42, 64
22, 385794, Note_on_c, 7, 47, 95
22, 386295, Note_off_c, 7, 47, 64
22, 386330, Note_on_c, 7, 45, 87
22, 386377, Note_off_c, 7, 45, 64
22, 386388, Note_on_c, 7, 47, 85
22, 386427, Note_off_c, 7, 47, 64
22, 386451, Note_on_c, 7, 49, 93
22, 386482, Note_off_c, 7, 49, 64
22, 386509, Note_on_c, 7, 50, 87
22, 386550, Note_off_c, 7, 50, 64
22, 386568, Note_on_c, 7, 49, 105
22, 386600, Note_off_c, 7, 49, 64
22, 386627, Note_on_c, 7, 50, 82
22, 386666, Note_off_c, 7, 50, 64
22, 386682, Note_on_c, 7, 47, 85
22, 386717, Note_off_c, 7, 47, 64
22, 386748, Note_on_c, 7, 49, 102
22, 386841, Note_off_c, 7, 49, 64
22, 386929, Note_on_c, 7, 45, 80
22, 386976, Note_off_c, 7, 45, 64
22, 386994, Note_on_c, 7, 50, 91
22, 387076, Note_off_c, 7, 50, 64
22, 387172, Note_on_c, 7, 52, 82
22, 387212, Note_off_c, 7, 52, 64
22, 387238, Note_on_c, 7, 54, 87
22, 387316, Note_off_c, 7, 54, 64
22, 387411, Note_on_c, 7, 55, 80
22, 387456, Note_off_c, 7, 55, 64
22, 387475, Note_on_c, 7, 52, 87
22, 387554, Note_off_c, 7, 52, 64
22, 387660, Note_on_c, 7, 50, 85
22, 387704, Note_off_c, 7, 50, 64
22, 387724, Note_on_c, 7, 45, 82
22, 388560, Note_off_c, 7, 45, 64
22, 388612, Note_on_c, 7, 45, 89
22, 388639, Note_off_c, 7, 45, 64
22, 388668, Note_on_c, 7, 45, 85
22, 389508, Note_off_c, 7, 45, 64
22, 389564, Note_on_c, 7, 45, 89
22, 389595, Note_off_c, 7, 45, 64
22, 389622, Note_on_c, 7, 45, 87
22, 390470, Note_off_c, 7, 45, 64
22, 390520, Note_on_c, 7, 45, 85
22, 390551, Note_off_c, 7, 45, 64
22, 390582, Note_on_c, 7, 45, 87
22, 391446, Note_off_c, 7, 45, 64
22, 391494, Note_on_c, 7, 45, 89
22, 391522, Note_off_c, 7, 45, 64
22, 391554, Note_on_c, 7, 45, 93
22, 392064, Note_off_c, 7, 45, 64
22, 392099, Note_on_c, 7, 47, 85
22, 392142, Note_off_c, 7, 47, 64
22, 392160, Note_on_c, 7, 45, 80
22, 392210, Note_off_c, 7, 45, 64
22, 392218, Note_on_c, 7, 43, 89
22, 392252, Note_off_c, 7, 43, 64
22, 392277, Note_on_c, 7, 42, 98
22, 392317, Note_off_c, 7, 42, 64
22, 392332, Note_on_c, 7, 40, 80
22, 392369, Note_off_c, 7, 40, 64
22, 392390, Note_on_c, 7, 42, 98
22, 392425, Note_off_c, 7, 42, 64
22, 392442, Note_on_c, 7, 38, 82
22, 392494, Note_off_c, 7, 38, 64
22, 392509, Note_on_c, 7, 47, 91
22, 393006, Note_off_c, 7, 47, 64
22, 393034, Note_on_c, 7, 48, 78
22, 393075, Note_off_c, 7, 48, 64
22, 393098, Note_on_c, 7, 47, 85
22, 393138, Note_off_c, 7, 47, 64
22, 393159, Note_on_c, 7, 45, 82
22, 393207, Note_off_c, 7, 45, 64
22, 393222, Note_on_c, 7, 43, 85
22, 393256, Note_off_c, 7, 43, 64
22, 393275, Note_on_c, 7, 42, 85
22, 393311, Note_off_c, 7, 42, 64
22, 393334, Note_on_c, 7, 43, 89
22, 393366, Note_off_c, 7, 43, 64
22, 393387, Note_on_c, 7, 40, 72
22, 393437, Note_off_c, 7, 40, 64
22, 393463, Note_on_c, 7, 49, 91
22, 393550, Note_off_c, 7, 49, 64
22, 393637, Note_on_c, 7, 46, 68
22, 393692, Note_off_c, 7, 46, 64
22, 393705, Note_on_c, 7, 50, 93
22, 393795, Note_off_c, 7, 50, 64
22, 393878, Note_on_c, 7, 43, 64
22, 393921, Note_off_c, 7, 43, 64
22, 393949, Note_on_c, 7, 45, 89
22, 394110, Note_off_c, 7, 45, 64
22, 394198, Note_on_c, 7, 45, 91
22, 394317, Note_off_c, 7, 45, 64
22, 394439, Note_on_c, 7, 38, 102
22, 395486, Note_off_c, 7, 38, 64
22, 395486, End_track
23, 0, Start_track
23, 0, Title_t, "Violin"
23, 0, Program_c, 8, 40
23, 0, Control_c, 8, 7, 100
23, 24770, Note_on_c, 8, 64, 95
23, 24808, Note_off_c, 8, 64, 64
23, 24826, Note_on_c, 8, 66, 91
23, 24862, Note_off_c, 8, 66, 64
23, 24878, Note_on_c, 8, 62, 105
23, 24927, Note_off_c, 8, 62, 64
23, 24951, Note_on_c, 8, 71, 102
23, 25699, Note_off_c, 8, 71, 64
23, 25724, Note_on_c, 8, 69, 95
23, 25758, Note_off_c, 8, 69, 64
23, 25786, Note_on_c, 8, 71, 105
23, 25825, Note_off_c, 8, 71, 64
23, 25840, Note_on_c, 8, 67, 105
23, 25877, Note_off_c, 8, 67, 64
23, 25906, Note_on_c, 8, 69, 105
23, 26405, Note_off_c, 8, 69, 64
23, 26435, Note_on_c, 8, 67, 98
23, 26476, Note_off_c, 8, 67, 64
23, 26496, Note_on_c, 8, 69, 85
23, 26535, Note_off_c, 8, 69, 64
23, 26556, Note_on_c, 8, 71, 89
23, 26602, Note_off_c, 8, 71, 64
23, 26624, Note_on_c, 8, 73, 78
23, 26663, Note_off_c, 8, 73, 64
23, 26680, Note_on_c, 8, 74, 82
23, 26729, Note_off_c, 8, 74, 64
23, 26743, Note_on_c, 8, 76, 102
23, 26784, Note_off_c, 8, 76, 64
23, 26796, Note_on_c, 8, 78, 100
23, 26834, Note_off_c, 8, 78, 64
23, 26858, Note_on_c, 8, 79, 105
23, 27212, Note_off_c, 8, 79, 64
23, 27285, Note_on_c, 8, 79, 102
23, 27318, Note_off_c, 8, 79, 64
23, 27343, Note_on_c, 8, 79, 105
23, 27477, Note_off_c, 8, 79, 64
23, 27512, Note_on_c, 8, 78, 91
23, 27540, Note_on_c, 8, 76, 93
23, 27549, Note_off_c, 8, 78, 64
23, 27576, Note_off_c, 8, 76, 64
23, 27587, Note_on_c, 8, 81, 102
23, 27697, Note_off_c, 8, 81, 64
23, 27766, Note_on_c, 8, 76, 89
23, 27808, Note_off_c, 8, 76, 64
23, 27827, Note_on_c, 8, 78, 105
23, 27954, Note_off_c, 8, 78, 64
23, 28079, Note_on_c, 8, 74, 100
23, 28185, Note_off_c, 8, 74, 64
23, 28322, Note_on_c, 8, 81, 105
23, 28818, Note_off_c, 8, 81, 64
23, 28845, Note_on_c, 8, 79, 91
23, 28881, Note_off_c, 8, 79, 64
23, 28908, Note_on_c, 8, 81, 85
23, 28956, Note_off_c, 8, 81, 64
23, 28964, Note_on_c, 8, 78, 72
23, 29008, Note_off_c, 8, 78, 64
23, 29034, Note_on_c, 8, 83, 100
23, 29142, Note_off_c, 8, 83, 64
23, 29215, Note_on_c, 8, 81, 93
23, 29250, Note_off_c, 8, 81, 64
23, 29278, Note_on_c, 8, 81, 102
23, 29345, Note_on_c, 8, 79, 76
23, 29352, Note_off_c, 8, 81, 64
23, 29375, Note_off_c, 8, 79, 64
23, 29380, Note_on_c, 8, 81, 82
23, 29410, Note_off_c, 8, 81, 64
23, 29410, Note_on_c, 8, 79, 66
23, 29434, Note_off_c, 8, 79, 64
23, 29437, Note_on_c, 8, 81, 85
23, 29458, Note_on_c, 8, 79, 76
23, 29463, Note_off_c, 8, 81, 64
23, 29486, Note_off_c, 8, 79, 64
23, 29486, Note_on_c, 8, 81, 82
23, 29507, Note_on_c, 8, 79, 93
23, 29514, Note_off_c, 8, 81, 64
23, 29614, Note_off_c, 8, 79, 64
23, 29685, Note_on_c, 8, 78, 98
23, 29717, Note_off_c, 8, 78, 64
23, 29746, Note_on_c, 8, 78, 105
23, 29873, Note_off_c, 8, 78, 64
23, 29873, Note_on_c, 8, 79, 72
23, 30041, Note_off_c, 8, 79, 64
23, 30060, Note_on_c, 8, 78, 102
23, 30098, Note_off_c, 8, 78, 64
23, 30120, Note_on_c, 8, 79, 98
23, 30152, Note_off_c, 8, 79, 64
23, 30179, Note_on_c, 8, 76, 100
23, 30211, Note_off_c, 8, 76, 64
23, 30253, Note_on_c, 8, 72, 98
23, 30734, Note_off_c, 8, 72, 64
23, 30756, Note_on_c, 8, 71, 100
23, 30796, Note_off_c, 8, 71, 64
23, 30817, Note_on_c, 8, 72, 87
23, 30857, Note_off_c, 8, 72, 64
23, 30872, Note_on_c, 8, 69, 95
23, 30918, Note_off_c, 8, 69, 64
23, 30940, Note_on_c, 8, 71, 100
23, 31036, Note_off_c, 8, 71, 64
23, 31120, Note_on_c, 8, 73, 89
23, 31161, Note_off_c, 8, 73, 64
23, 31184, Note_on_c, 8, 74, 87
23, 31514, Note_off_c, 8, 74, 64
23, 31596, Note_on_c, 8, 76, 98
23, 31631, Note_off_c, 8, 76, 64
23, 31661, Note_on_c, 8, 74, 105
23, 31785, Note_on_c, 8, 73, 57
23, 31792, Note_off_c, 8, 74, 64
23, 31943, Note_off_c, 8, 73, 64
23, 31969, Note_on_c, 8, 71, 85
23, 32006, Note_off_c, 8, 71, 64
23, 32030, Note_on_c, 8, 73, 98
23, 32067, Note_off_c, 8, 73, 64
23, 32083, Note_on_c, 8, 69, 100
23, 32130, Note_off_c, 8, 69, 64
23, 32154, Note_on_c, 8, 76, 102
23, 32890, Note_off_c, 8, 76, 64
23, 32928, Note_on_c, 8, 74, 98
23, 32960, Note_off_c, 8, 74, 64
23, 32986, Note_on_c, 8, 76, 91
23, 33024, Note_off_c, 8, 76, 64
23, 33042, Note_on_c, 8, 73, 98
23, 33080, Note_off_c, 8, 73, 64
23, 33110, Note_on_c, 8, 74, 100
23, 33865, Note_off_c, 8, 74, 64
23, 33889, Note_on_c, 8, 73, 82
23, 33932, Note_off_c, 8, 73, 64
23, 33949, Note_on_c, 8, 74, 91
23, 33986, Note_off_c, 8, 74, 64
23, 34006, Note_on_c, 8, 71, 80
23, 34059, Note_off_c, 8, 71, 64
23, 34072, Note_on_c, 8, 73, 78
23, 34120, Note_off_c, 8, 73, 64
23, 34135, Note_on_c, 8, 76, 91
23, 34176, Note_off_c, 8, 76, 64
23, 34192, Note_on_c, 8, 81, 85
23, 34243, Note_off_c, 8, 81, 64
23, 34249, Note_on_c, 8, 80, 98
23, 34284, Note_off_c, 8, 80, 64
23, 34305, Note_on_c, 8, 78, 91
23, 34352, Note_off_c, 8, 78, 64
23, 34365, Note_on_c, 8, 76, 98
23, 34399, Note_off_c, 8, 76, 64
23, 34422, Note_on_c, 8, 74, 80
23, 34460, Note_off_c, 8, 74, 64
23, 34484, Note_on_c, 8, 73, 100
23, 34520, Note_off_c, 8, 73, 64
23, 34549, Note_on_c, 8, 74, 98
23, 34854, Note_off_c, 8, 74, 64
23, 34967, Note_on_c, 8, 74, 80
23, 34999, Note_off_c, 8, 74, 64
23, 35026, Note_on_c, 8, 74, 100
23, 35144, Note_off_c, 8, 74, 64
23, 35190, Note_on_c, 8, 73, 66
23, 35217, Note_on_c, 8, 71, 82
23, 35227, Note_off_c, 8, 73, 64
23, 35250, Note_off_c, 8, 71, 64
23, 35264, Note_on_c, 8, 76, 105
23, 35370, Note_off_c, 8, 76, 64
23, 35443, Note_on_c, 8, 74, 82
23, 35485, Note_off_c, 8, 74, 64
23, 35502, Note_on_c, 8, 73, 93
23, 35607, Note_off_c, 8, 73, 64
23, 35742, Note_on_c, 8, 69, 91
23, 35846, Note_off_c, 8, 69, 64
23, 35984, Note_on_c, 8, 78, 100
23, 36497, Note_off_c, 8, 78, 64
23, 36526, Note_on_c, 8, 78, 89
23, 36569, Note_off_c, 8, 78, 64
23, 36591, Note_on_c, 8, 80, 91
23, 36630, Note_off_c, 8, 80, 64
23, 36648, Note_on_c, 8, 81, 85
23, 36691, Note_off_c, 8, 81, 64
23, 36710, Note_on_c, 8, 83, 87
23, 36752, Note_off_c, 8, 83, 64
23, 36773, Note_on_c, 8, 81, 98
23, 36809, Note_off_c, 8, 81, 64
23, 36834, Note_on_c, 8, 83, 95
23, 36876, Note_off_c, 8, 83, 64
23, 36887, Note_on_c, 8, 80, 102
23, 36926, Note_off_c, 8, 80, 64
23, 36950, Note_on_c, 8, 73, 102
23, 37054, Note_off_c, 8, 73, 64
23, 37129, Note_on_c, 8, 83, 89
23, 37171, Note_off_c, 8, 83, 64
23, 37186, Note_on_c, 8, 81, 100
23, 37282, Note_off_c, 8, 81, 64
23, 37355, Note_on_c, 8, 80, 95
23, 37395, Note_off_c, 8, 80, 64
23, 37424, Note_on_c, 8, 80, 107
23, 37553, Note_on_c, 8, 81, 80
23, 37554, Note_off_c, 8, 80, 64
23, 37710, Note_off_c, 8, 81, 64
23, 37733, Note_on_c, 8, 80, 89
23, 37774, Note_off_c, 8, 80, 64
23, 37792, Note_on_c, 8, 81, 98
23, 37824, Note_off_c, 8, 81, 64
23, 37849, Note_on_c, 8, 78, 102
23, 37886, Note_off_c, 8, 78, 64
23, 37915, Note_on_c, 8, 74, 89
23, 38430, Note_off_c, 8, 74, 64
23, 38452, Note_on_c, 8, 73, 105
23, 38486, Note_off_c, 8, 73, 64
23, 38508, Note_on_c, 8, 74, 95
23, 38550, Note_off_c, 8, 74, 64
23, 38561, Note_on_c, 8, 71, 87
23, 38606, Note_off_c, 8, 71, 64
23, 38627, Note_on_c, 8, 73, 102
23, 38710, Note_off_c, 8, 73, 64
23, 38805, Note_on_c, 8, 74, 87
23, 38852, Note_off_c, 8, 74, 64
23, 38865, Note_on_c, 8, 76, 93
23, 38951, Note_off_c, 8, 76, 64
23, 39050, Note_on_c, 8, 78, 70
23, 39092, Note_off_c, 8, 78, 64
23, 39108, Note_on_c, 8, 80, 95
23, 39200, Note_off_c, 8, 80, 64
23, 39288, Note_on_c, 8, 81, 82
23, 39330, Note_off_c, 8, 81, 64
23, 39350, Note_on_c, 8, 80, 100
23, 39404, Note_off_c, 8, 80, 64
23, 39409, Note_on_c, 8, 81, 87
23, 39444, Note_off_c, 8, 81, 64
23, 39468, Note_on_c, 8, 83, 82
23, 39499, Note_off_c, 8, 83, 64
23, 39523, Note_on_c, 8, 80, 100
23, 39556, Note_off_c, 8, 80, 64
23, 39584, Note_on_c, 8, 76, 91
23, 39845, Note_off_c, 8, 76, 64
23, 39875, Note_on_c, 8, 78, 91
23, 39911, Note_off_c, 8, 78, 64
23, 39932, Note_on_c, 8, 80, 100
23, 39968, Note_off_c, 8, 80, 64
23, 39984, Note_on_c, 8, 76, 95
23, 40034, Note_off_c, 8, 76, 64
23, 40058, Note_on_c, 8, 83, 100
23, 40333, Note_off_c, 8, 83, 64
23, 40363, Note_on_c, 8, 81, 87
23, 40397, Note_off_c, 8, 81, 64
23, 40419, Note_on_c, 8, 83, 85
23, 40457, Note_off_c, 8, 83, 64
23, 40476, Note_on_c, 8, 80, 98
23, 40514, Note_off_c, 8, 80, 64
23, 40550, Note_on_c, 8, 81, 98
23, 40815, Note_off_c, 8, 81, 64
23, 40842, Note_on_c, 8, 80, 82
23, 40881, Note_off_c, 8, 80, 64
23, 40901, Note_on_c, 8, 81, 87
23, 40937, Note_off_c, 8, 81, 64
23, 40960, Note_on_c, 8, 76, 82
23, 41004, Note_off_c, 8, 76, 64
23, 41032, Note_on_c, 8, 85, 100
23, 41316, Note_off_c, 8, 85, 64
23, 41338, Note_on_c, 8, 83, 89
23, 41378, Note_off_c, 8, 83, 64
23, 41396, Note_on_c, 8, 85, 100
23, 41435, Note_off_c, 8, 85, 64
23, 41454, Note_on_c, 8, 81, 95
23, 41487, Note_off_c, 8, 81, 64
23, 41514, Note_on_c, 8, 83, 93
23, 41778, Note_off_c, 8, 83, 64
23, 41807, Note_on_c, 8, 81, 98
23, 41847, Note_off_c, 8, 81, 64
23, 41868, Note_on_c, 8, 83, 91
23, 41902, Note_off_c, 8, 83, 64
23, 41927, Note_on_c, 8, 80, 89
23, 41974, Note_off_c, 8, 80, 64
23, 41998, Note_on_c, 8, 86, 98
23, 42268, Note_off_c, 8, 86, 64
23, 42294, Note_on_c, 8, 84, 82
23, 42331, Note_off_c, 8, 84, 64
23, 42351, Note_on_c, 8, 86, 87
23, 42391, Note_off_c, 8, 86, 64
23, 42406, Note_on_c, 8, 83, 91
23, 42446, Note_off_c, 8, 83, 64
23, 42476, Note_on_c, 8, 84, 87
23, 42740, Note_off_c, 8, 84, 64
23, 42765, Note_on_c, 8, 83, 89
23, 42804, Note_off_c, 8, 83, 64
23, 42824, Note_on_c, 8, 84, 82
23, 42863, Note_off_c, 8, 84, 64
23, 42880, Note_on_c, 8, 81, 80
23, 42922, Note_off_c, 8, 81, 64
23, 42947, Note_on_c, 8, 83, 87
23, 43221, Note_off_c, 8, 83, 64
23, 43244, Note_on_c, 8, 81, 87
23, 43284, Note_off_c, 8, 81, 64
23, 43302, Note_on_c, 8, 83, 78
23, 43335, Note_off_c, 8, 83, 64
23, 43359, Note_on_c, 8, 80, 80
23, 43396, Note_off_c, 8, 80, 64
23, 43420, Note_on_c, 8, 81, 93
23, 43467, Note_off_c, 8, 81, 64
23, 43479, Note_on_c, 8, 80, 100
23, 43515, Note_off_c, 8, 80, 64
23, 43533, Note_on_c, 8, 81, 93
23, 43572, Note_off_c, 8, 81, 64
23, 43591, Note_on_c, 8, 78, 91
23, 43626, Note_off_c, 8, 78, 64
23, 43655, Note_on_c, 8, 79, 87
23, 44188, Note_off_c, 8, 79, 64
23, 44205, Note_on_c, 8, 78, 87
23, 44241, Note_off_c, 8, 78, 64
23, 44262, Note_on_c, 8, 79, 89
23, 44299, Note_off_c, 8, 79, 64
23, 44319, Note_on_c, 8, 76, 87
23, 44368, Note_off_c, 8, 76, 64
23, 44387, Note_on_c, 8, 78, 89
23, 44481, Note_off_c, 8, 78, 64
23, 44556, Note_on_c, 8, 80, 89
23, 44597, Note_off_c, 8, 80, 64
23, 44621, Note_on_c, 8, 81, 87
23, 44927, Note_off_c, 8, 81, 64
23, 45034, Note_on_c, 8, 83, 87
23, 45084, Note_off_c, 8, 83, 64
23, 45096, Note_on_c, 8, 74, 98
23, 45244, Note_off_c, 8, 74, 64
23, 45340, Note_on_c, 8, 73, 80
23, 45483, Note_off_c, 8, 73, 64
23, 45526, Note_on_c, 8, 71, 82
23, 45566, Note_off_c, 8, 71, 64
23, 45586, Note_on_c, 8, 73, 91
23, 45663, Note_on_c, 8, 71, 68
23, 45671, Note_off_c, 8, 73, 64
23, 45697, Note_off_c, 8, 71, 64
23, 45700, Note_on_c, 8, 73, 70
23, 45726, Note_on_c, 8, 71, 68
23, 45728, Note_off_c, 8, 73, 64
23, 45754, Note_off_c, 8, 71, 64
23, 45755, Note_on_c, 8, 73, 85
23, 45776, Note_on_c, 8, 71, 74
23, 45779, Note_off_c, 8, 73, 64
23, 45803, Note_on_c, 8, 73, 89
23, 45804, Note_off_c, 8, 71, 64
23, 45826, Note_on_c, 8, 71, 100
23, 45839, Note_off_c, 8, 73, 64
23, 45938, Note_off_c, 8, 71, 64
23, 46006, Note_on_c, 8, 69, 102
23, 46039, Note_off_c, 8, 69, 64
23, 46076, Note_on_c, 8, 69, 100
23, 46220, Note_off_c, 8, 69, 64
23, 114301, Note_on_c, 8, 69, 85
23, 114368, Note_off_c, 8, 69, 64
23, 114431, Note_on_c, 8, 69, 98
23, 114548, Note_on_c, 8, 73, 62
23, 114573, Note_off_c, 8, 69, 64
23, 114643, Note_off_c, 8, 73, 64
23, 114663, Note_on_c, 8, 71, 63
23, 114713, Note_off_c, 8, 71, 64
23, 114796, Note_on_c, 8, 71, 98
23, 114904, Note_on_c, 8, 74, 80
23, 114918, Note_off_c, 8, 71, 64
23, 114981, Note_off_c, 8, 74, 64
23, 115023, Note_on_c, 8, 73, 72
23, 115079, Note_off_c, 8, 73, 64
23, 115170, Note_on_c, 8, 73, 82
23, 115399, Note_off_c, 8, 73, 64
23, 116484, Note_on_c, 8, 76, 85
23, 116556, Note_off_c, 8, 76, 64
23, 116618, Note_on_c, 8, 76, 100
23, 116733, Note_on_c, 8, 79, 68
23, 116756, Note_off_c, 8, 76, 64
23, 116805, Note_off_c, 8, 79, 64
23, 116852, Note_on_c, 8, 78, 68
23, 116907, Note_off_c, 8, 78, 64
23, 116985, Note_on_c, 8, 78, 98
23, 117095, Note_on_c, 8, 81, 68
23, 117104, Note_off_c, 8, 78, 64
23, 117156, Note_off_c, 8, 81, 64
23, 117212, Note_on_c, 8, 79, 78
23, 117264, Note_off_c, 8, 79, 64
23, 117341, Note_on_c, 8, 79, 100
23, 117440, Note_on_c, 8, 83, 72
23, 117449, Note_off_c, 8, 79, 64
23, 117509, Note_off_c, 8, 83, 64
23, 117554, Note_on_c, 8, 81, 82
23, 117613, Note_off_c, 8, 81, 64
23, 117689, Note_on_c, 8, 81, 105
23, 117795, Note_on_c, 8, 83, 63
23, 117818, Note_off_c, 8, 81, 64
23, 117865, Note_off_c, 8, 83, 64
23, 117926, Note_on_c, 8, 79, 70
23, 117977, Note_off_c, 8, 79, 64
23, 118058, Note_on_c, 8, 79, 100
23, 118161, Note_on_c, 8, 81, 63
23, 118183, Note_off_c, 8, 79, 64
23, 118229, Note_off_c, 8, 81, 64
23, 118266, Note_on_c, 8, 78, 66
23, 118322, Note_off_c, 8, 78, 64
23, 118405, Note_on_c, 8, 78, 93
23, 118614, Note_off_c, 8, 78, 64
23, 119735, Note_on_c, 8, 78, 91
23, 119800, Note_off_c, 8, 78, 64
23, 119868, Note_on_c, 8, 78, 105
23, 119984, Note_on_c, 8, 81, 66
23, 119993, Note_off_c, 8, 78, 64
23, 120047, Note_off_c, 8, 81, 64
23, 120097, Note_on_c, 8, 79, 64
23, 120151, Note_off_c, 8, 79, 64
23, 120227, Note_on_c, 8, 79, 102
23, 120333, Note_off_c, 8, 79, 64
23, 120333, Note_on_c, 8, 83, 70
23, 120396, Note_off_c, 8, 83, 64
23, 120452, Note_on_c, 8, 81, 72
23, 120502, Note_off_c, 8, 81, 64
23, 120596, Note_on_c, 8, 81, 98
23, 120810, Note_off_c, 8, 81, 64
23, 121907, Note_on_c, 8, 74, 82
23, 121965, Note_off_c, 8, 74, 64
23, 122030, Note_on_c, 8, 74, 105
23, 122138, Note_on_c, 8, 76, 66
23, 122162, Note_off_c, 8, 74, 64
23, 122208, Note_off_c, 8, 76, 64
23, 122259, Note_on_c, 8, 72, 74
23, 122307, Note_off_c, 8, 72, 64
23, 122383, Note_on_c, 8, 72, 100
23, 122489, Note_on_c, 8, 74, 66
23, 122518, Note_off_c, 8, 72, 64
23, 122572, Note_off_c, 8, 74, 64
23, 122615, Note_on_c, 8, 71, 82
23, 122669, Note_off_c, 8, 71, 64
23, 122741, Note_on_c, 8, 71, 78
23, 122857, Note_on_c, 8, 67, 85
23, 122885, Note_off_c, 8, 71, 64
23, 122964, Note_on_c, 8, 69, 76
23, 122991, Note_off_c, 8, 67, 64
23, 123103, Note_on_c, 8, 71, 80
23, 123110, Note_off_c, 8, 69, 64
23, 123212, Note_on_c, 8, 73, 72
23, 123225, Note_off_c, 8, 71, 64
23, 123288, Note_off_c, 8, 73, 64
23, 123324, Note_on_c, 8, 74, 80
23, 123375, Note_off_c, 8, 74, 64
23, 123452, Note_on_c, 8, 74, 89
23, 123917, Note_off_c, 8, 74, 64
23, 123958, Note_on_c, 8, 73, 100
23, 124057, Note_on_c, 8, 71, 80
23, 124070, Note_off_c, 8, 73, 64
23, 124156, Note_off_c, 8, 71, 64
23, 124190, Note_on_c, 8, 73, 82
23, 124286, Note_on_c, 8, 74, 82
23, 124313, Note_off_c, 8, 73, 64
23, 124379, Note_off_c, 8, 74, 64
23, 124403, Note_on_c, 8, 76, 74
23, 124462, Note_off_c, 8, 76, 64
23, 124541, Note_on_c, 8, 76, 91
23, 124998, Note_off_c, 8, 76, 64
23, 125034, Note_on_c, 8, 74, 85
23, 125121, Note_off_c, 8, 74, 64
23, 125137, Note_on_c, 8, 73, 66
23, 125232, Note_off_c, 8, 73, 64
23, 125272, Note_on_c, 8, 74, 98
23, 125385, Note_on_c, 8, 76, 80
23, 125405, Note_off_c, 8, 74, 64
23, 125463, Note_off_c, 8, 76, 64
23, 125501, Note_on_c, 8, 78, 93
23, 125565, Note_off_c, 8, 78, 64
23, 125632, Note_on_c, 8, 78, 102
23, 126073, Note_off_c, 8, 78, 64
23, 126123, Note_on_c, 8, 76, 89
23, 126222, Note_on_c, 8, 74, 87
23, 126235, Note_off_c, 8, 76, 64
23, 126341, Note_off_c, 8, 74, 64
23, 126347, Note_on_c, 8, 76, 74
23, 126455, Note_on_c, 8, 78, 70
23, 126478, Note_off_c, 8, 76, 64
23, 126550, Note_off_c, 8, 78, 64
23, 126568, Note_on_c, 8, 79, 78
23, 126638, Note_off_c, 8, 79, 64
23, 126707, Note_on_c, 8, 79, 95
23, 127092, Note_off_c, 8, 79, 64
23, 139172, Note_on_c, 8, 74, 68
23, 139235, Note_off_c, 8, 74, 64
23, 139299, Note_on_c, 8, 78, 68
23, 140115, Note_off_c, 8, 78, 64
23, 140140, Note_on_c, 8, 76, 82
23, 140241, Note_off_c, 8, 76, 64
23, 140250, Note_on_c, 8, 75, 80
23, 140343, Note_off_c, 8, 75, 64
23, 140379, Note_on_c, 8, 76, 80
23, 140486, Note_on_c, 8, 78, 76
23, 140493, Note_off_c, 8, 76, 64
23, 140550, Note_off_c, 8, 78, 64
23, 140590, Note_on_c, 8, 79, 91
23, 140658, Note_off_c, 8, 79, 64
23, 140727, Note_on_c, 8, 79, 87
23, 141227, Note_off_c, 8, 79, 64
23, 141231, Note_on_c, 8, 81, 66
23, 141294, Note_off_c, 8, 81, 64
23, 141330, Note_on_c, 8, 78, 80
23, 141398, Note_off_c, 8, 78, 64
23, 141467, Note_on_c, 8, 78, 102
23, 141575, Note_on_c, 8, 79, 80
23, 141603, Note_off_c, 8, 78, 64
23, 141659, Note_off_c, 8, 79, 64
23, 141688, Note_on_c, 8, 76, 63
23, 141744, Note_off_c, 8, 76, 64
23, 141825, Note_on_c, 8, 76, 98
23, 141926, Note_on_c, 8, 78, 76
23, 141945, Note_off_c, 8, 76, 64
23, 142003, Note_off_c, 8, 78, 64
23, 142039, Note_on_c, 8, 75, 62
23, 142091, Note_off_c, 8, 75, 64
23, 142181, Note_on_c, 8, 75, 63
23, 142350, Note_off_c, 8, 75, 64
23, 142556, Note_on_c, 8, 78, 68
23, 142719, Note_off_c, 8, 78, 64
23, 142908, Note_on_c, 8, 83, 85
23, 143061, Note_off_c, 8, 83, 64
23, 143623, Note_on_c, 8, 71, 66
23, 143772, Note_off_c, 8, 71, 64
23, 143965, Note_on_c, 8, 76, 72
23, 144125, Note_off_c, 8, 76, 64
23, 144690, Note_on_c, 8, 81, 85
23, 144829, Note_off_c, 8, 81, 64
23, 145031, Note_on_c, 8, 74, 70
23, 145200, Note_off_c, 8, 74, 64
23, 145740, Note_on_c, 8, 79, 85
23, 145891, Note_off_c, 8, 79, 64
23, 146105, Note_on_c, 8, 72, 78
23, 146253, Note_off_c, 8, 72, 64
23, 146460, Note_on_c, 8, 81, 85
23, 146586, Note_off_c, 8, 81, 64
23, 146708, Note_on_c, 8, 74, 68
23, 146773, Note_off_c, 8, 74, 64
23, 146846, Note_on_c, 8, 74, 93
23, 146957, Note_on_c, 8, 76, 70
23, 146967, Note_off_c, 8, 74, 64
23, 147023, Note_off_c, 8, 76, 64
23, 147079, Note_on_c, 8, 72, 60
23, 147129, Note_off_c, 8, 72, 64
23, 147207, Note_on_c, 8, 72, 87
23, 147309, Note_on_c, 8, 74, 68
23, 147329, Note_off_c, 8, 72, 64
23, 147398, Note_off_c, 8, 74, 64
23, 147421, Note_on_c, 8, 71, 62
23, 147489, Note_off_c, 8, 71, 64
23, 147563, Note_on_c, 8, 71, 82
23, 147671, Note_on_c, 8, 72, 82
23, 147700, Note_off_c, 8, 71, 64
23, 147792, Note_on_c, 8, 74, 80
23, 147806, Note_off_c, 8, 72, 64
23, 147885, Note_off_c, 8, 74, 64
23, 147920, Note_on_c, 8, 76, 82
23, 148042, Note_on_c, 8, 78, 72
23, 148065, Note_off_c, 8, 76, 64
23, 148110, Note_off_c, 8, 78, 64
23, 148152, Note_on_c, 8, 74, 68
23, 148213, Note_off_c, 8, 74, 64
23, 148300, Note_on_c, 8, 74, 102
23, 148409, Note_on_c, 8, 76, 66
23, 148427, Note_off_c, 8, 74, 64
23, 148496, Note_off_c, 8, 76, 64
23, 148514, Note_on_c, 8, 72, 61
23, 148582, Note_off_c, 8, 72, 64
23, 148661, Note_on_c, 8, 72, 70
23, 148825, Note_off_c, 8, 72, 64
23, 148904, Note_on_c, 8, 72, 85
23, 148961, Note_off_c, 8, 72, 64
23, 149030, Note_on_c, 8, 72, 100
23, 149138, Note_on_c, 8, 74, 72
23, 149158, Note_off_c, 8, 72, 64
23, 149234, Note_on_c, 8, 71, 63
23, 149237, Note_off_c, 8, 74, 64
23, 149282, Note_off_c, 8, 71, 64
23, 149365, Note_on_c, 8, 71, 89
23, 149480, Note_on_c, 8, 72, 68
23, 149505, Note_off_c, 8, 71, 64
23, 149570, Note_off_c, 8, 72, 64
23, 149582, Note_on_c, 8, 69, 66
23, 149658, Note_off_c, 8, 69, 64
23, 149738, Note_on_c, 8, 69, 95
23, 149846, Note_on_c, 8, 71, 78
23, 149871, Note_off_c, 8, 69, 64
23, 149959, Note_on_c, 8, 72, 82
23, 149993, Note_off_c, 8, 71, 64
23, 150051, Note_off_c, 8, 72, 64
23, 150080, Note_on_c, 8, 74, 95
23, 150198, Note_on_c, 8, 76, 80
23, 150220, Note_off_c, 8, 74, 64
23, 150272, Note_off_c, 8, 76, 64
23, 150317, Note_on_c, 8, 72, 80
23, 150375, Note_off_c, 8, 72, 64
23, 150443, Note_on_c, 8, 72, 102
23, 150541, Note_on_c, 8, 74, 66
23, 150573, Note_off_c, 8, 72, 64
23, 150645, Note_off_c, 8, 74, 64
23, 150657, Note_on_c, 8, 71, 68
23, 150713, Note_off_c, 8, 71, 64
23, 150792, Note_on_c, 8, 71, 89
23, 150908, Note_on_c, 8, 67, 66
23, 150947, Note_off_c, 8, 71, 64
23, 151023, Note_on_c, 8, 69, 82
23, 151043, Note_off_c, 8, 67, 64
23, 151104, Note_off_c, 8, 69, 64
23, 151156, Note_on_c, 8, 71, 98
23, 151260, Note_on_c, 8, 72, 63
23, 151290, Note_off_c, 8, 71, 64
23, 151350, Note_off_c, 8, 72, 64
23, 151376, Note_on_c, 8, 69, 64
23, 151430, Note_off_c, 8, 69, 64
23, 151514, Note_on_c, 8, 69, 93
23, 151608, Note_on_c, 8, 71, 70
23, 151638, Note_off_c, 8, 69, 64
23, 151716, Note_on_c, 8, 67, 68
23, 151717, Note_off_c, 8, 71, 64
23, 151795, Note_off_c, 8, 67, 64
23, 151871, Note_on_c, 8, 67, 80
23, 151998, Note_off_c, 8, 67, 64
23, 152083, Note_on_c, 8, 67, 62
23, 152160, Note_off_c, 8, 67, 64
23, 152240, Note_on_c, 8, 72, 93
23, 152367, Note_off_c, 8, 72, 64
23, 152470, Note_on_c, 8, 71, 74
23, 152553, Note_off_c, 8, 71, 64
23, 152592, Note_on_c, 8, 72, 87
23, 152713, Note_off_c, 8, 72, 64
23, 152816, Note_on_c, 8, 74, 80
23, 152884, Note_off_c, 8, 74, 64
23, 152960, Note_on_c, 8, 76, 91
23, 153069, Note_on_c, 8, 77, 66
23, 153093, Note_off_c, 8, 76, 64
23, 153168, Note_off_c, 8, 77, 64
23, 153174, Note_on_c, 8, 74, 66
23, 153231, Note_off_c, 8, 74, 64
23, 153325, Note_on_c, 8, 72, 91
23, 153430, Note_on_c, 8, 74, 70
23, 153433, Note_off_c, 8, 72, 64
23, 153521, Note_off_c, 8, 74, 64
23, 153532, Note_on_c, 8, 71, 68
23, 153593, Note_off_c, 8, 71, 64
23, 153662, Note_on_c, 8, 69, 80
23, 153755, Note_on_c, 8, 71, 70
23, 153773, Note_off_c, 8, 69, 64
23, 153872, Note_off_c, 8, 71, 64
23, 153879, Note_on_c, 8, 67, 63
23, 153953, Note_off_c, 8, 67, 64
23, 154009, Note_on_c, 8, 74, 89
23, 154134, Note_off_c, 8, 74, 64
23, 154238, Note_on_c, 8, 69, 74
23, 154332, Note_off_c, 8, 69, 64
23, 154374, Note_on_c, 8, 62, 78
23, 154484, Note_off_c, 8, 62, 64
23, 154632, Note_on_c, 8, 72, 78
23, 154715, Note_off_c, 8, 72, 64
23, 154767, Note_on_c, 8, 71, 64
23, 154877, Note_off_c, 8, 71, 64
23, 155001, Note_on_c, 8, 76, 80
23, 155055, Note_off_c, 8, 76, 64
23, 155136, Note_on_c, 8, 74, 100
23, 155240, Note_on_c, 8, 76, 74
23, 155267, Note_off_c, 8, 74, 64
23, 155336, Note_off_c, 8, 76, 64
23, 155352, Note_on_c, 8, 78, 85
23, 155440, Note_off_c, 8, 78, 64
23, 155480, Note_on_c, 8, 79, 98
23, 155588, Note_on_c, 8, 81, 85
23, 155607, Note_off_c, 8, 79, 64
23, 155669, Note_off_c, 8, 81, 64
23, 155700, Note_on_c, 8, 78, 89
23, 155762, Note_off_c, 8, 78, 64
23, 155825, Note_on_c, 8, 79, 98
23, 155885, Note_on_c, 8, 78, 89
23, 155897, Note_off_c, 8, 79, 64
23, 155939, Note_on_c, 8, 79, 74
23, 155944, Note_off_c, 8, 78, 64
23, 155982, Note_on_c, 8, 78, 72
23, 156011, Note_off_c, 8, 79, 64
23, 156054, Note_off_c, 8, 78, 64
23, 156077, Note_on_c, 8, 79, 95
23, 156147, Note_off_c, 8, 79, 64
23, 156198, Note_on_c, 8, 79, 100
23, 156340, Note_off_c, 8, 79, 64
23, 156446, Note_on_c, 8, 62, 62
23, 156502, Note_off_c, 8, 62, 64
23, 156569, Note_on_c, 8, 62, 72
23, 156704, Note_off_c, 8, 62, 64
23, 156801, Note_on_c, 8, 62, 68
23, 156878, Note_off_c, 8, 62, 64
23, 156930, Note_on_c, 8, 62, 78
23, 157073, Note_off_c, 8, 62, 64
23, 157154, Note_on_c, 8, 62, 76
23, 157231, Note_off_c, 8, 62, 64
23, 157301, Note_on_c, 8, 62, 76
23, 157438, Note_off_c, 8, 62, 64
23, 157514, Note_on_c, 8, 62, 66
23, 157593, Note_off_c, 8, 62, 64
23, 157650, Note_on_c, 8, 62, 80
23, 157785, Note_off_c, 8, 62, 64
23, 157874, Note_on_c, 8, 62, 80
23, 157949, Note_off_c, 8, 62, 64
23, 158000, Note_on_c, 8, 62, 82
23, 158145, Note_off_c, 8, 62, 64
23, 158241, Note_on_c, 8, 62, 66
23, 158322, Note_off_c, 8, 62, 64
23, 178889, Note_on_c, 8, 74, 91
23, 178988, Note_on_c, 8, 78, 60
23, 179015, Note_off_c, 8, 74, 64
23, 179076, Note_off_c, 8, 78, 64
23, 179108, Note_on_c, 8, 81, 85
23, 179173, Note_off_c, 8, 81, 64
23, 179243, Note_on_c, 8, 81, 98
23, 179351, Note_on_c, 8, 83, 66
23, 179364, Note_off_c, 8, 81, 64
23, 179421, Note_off_c, 8, 83, 64
23, 179468, Note_on_c, 8, 79, 68
23, 179511, Note_off_c, 8, 79, 64
23, 179601, Note_on_c, 8, 79, 98
23, 179704, Note_on_c, 8, 81, 59
23, 179722, Note_off_c, 8, 79, 64
23, 179778, Note_off_c, 8, 81, 64
23, 179816, Note_on_c, 8, 78, 57
23, 179857, Note_off_c, 8, 78, 64
23, 179961, Note_on_c, 8, 78, 98
23, 180077, Note_on_c, 8, 79, 60
23, 180114, Note_off_c, 8, 78, 64
23, 180201, Note_off_c, 8, 79, 64
23, 180204, Note_on_c, 8, 81, 78
23, 180290, Note_off_c, 8, 81, 64
23, 180330, Note_on_c, 8, 83, 93
23, 180447, Note_on_c, 8, 84, 80
23, 180464, Note_off_c, 8, 83, 64
23, 180509, Note_off_c, 8, 84, 64
23, 180560, Note_on_c, 8, 81, 82
23, 180618, Note_off_c, 8, 81, 64
23, 180705, Note_on_c, 8, 81, 102
23, 180813, Note_on_c, 8, 83, 63
23, 180822, Note_off_c, 8, 81, 64
23, 180896, Note_off_c, 8, 83, 64
23, 180930, Note_on_c, 8, 79, 80
23, 180977, Note_off_c, 8, 79, 64
23, 181072, Note_on_c, 8, 79, 95
23, 181167, Note_off_c, 8, 79, 64
23, 181302, Note_on_c, 8, 79, 62
23, 181353, Note_off_c, 8, 79, 64
23, 181435, Note_on_c, 8, 79, 78
23, 181565, Note_off_c, 8, 79, 64
23, 181666, Note_on_c, 8, 79, 66
23, 181724, Note_off_c, 8, 79, 64
23, 181794, Note_on_c, 8, 79, 82
23, 181909, Note_off_c, 8, 79, 64
23, 182012, Note_on_c, 8, 79, 70
23, 182071, Note_off_c, 8, 79, 64
23, 182150, Note_on_c, 8, 79, 91
23, 182255, Note_on_c, 8, 76, 64
23, 182288, Note_off_c, 8, 79, 64
23, 182370, Note_on_c, 8, 78, 64
23, 182402, Note_off_c, 8, 76, 64
23, 182469, Note_off_c, 8, 78, 64
23, 182494, Note_on_c, 8, 79, 91
23, 182606, Note_on_c, 8, 81, 66
23, 182620, Note_off_c, 8, 79, 64
23, 182667, Note_off_c, 8, 81, 64
23, 182719, Note_on_c, 8, 78, 87
23, 182773, Note_off_c, 8, 78, 64
23, 182847, Note_on_c, 8, 79, 95
23, 182964, Note_on_c, 8, 78, 66
23, 182967, Note_off_c, 8, 79, 64
23, 183043, Note_off_c, 8, 78, 64
23, 183072, Note_on_c, 8, 76, 66
23, 183133, Note_off_c, 8, 76, 64
23, 183209, Note_on_c, 8, 78, 105
23, 183322, Note_on_c, 8, 74, 68
23, 183349, Note_off_c, 8, 78, 64
23, 183437, Note_on_c, 8, 76, 78
23, 183439, Note_off_c, 8, 74, 64
23, 183522, Note_off_c, 8, 76, 64
23, 183558, Note_on_c, 8, 78, 102
23, 183677, Note_on_c, 8, 79, 66
23, 183684, Note_off_c, 8, 78, 64
23, 183749, Note_off_c, 8, 79, 64
23, 183790, Note_on_c, 8, 76, 64
23, 183833, Note_off_c, 8, 76, 64
23, 183918, Note_on_c, 8, 76, 98
23, 184028, Note_on_c, 8, 78, 60
23, 184031, Note_off_c, 8, 76, 64
23, 184104, Note_off_c, 8, 78, 64
23, 184145, Note_on_c, 8, 74, 60
23, 184195, Note_off_c, 8, 74, 64
23, 184275, Note_on_c, 8, 74, 74
23, 184366, Note_off_c, 8, 74, 64
23, 184499, Note_on_c, 8, 74, 64
23, 184566, Note_off_c, 8, 74, 64
23, 184632, Note_on_c, 8, 74, 85
23, 184746, Note_off_c, 8, 74, 64
23, 184868, Note_on_c, 8, 74, 68
23, 184929, Note_off_c, 8, 74, 64
23, 185003, Note_on_c, 8, 74, 74
23, 185109, Note_off_c, 8, 74, 64
23, 185214, Note_on_c, 8, 74, 61
23, 185277, Note_off_c, 8, 74, 64
23, 185358, Note_on_c, 8, 74, 89
23, 185469, Note_off_c, 8, 74, 64
23, 185475, Note_on_c, 8, 71, 64
23, 185594, Note_on_c, 8, 73, 82
23, 185613, Note_off_c, 8, 71, 64
23, 185687, Note_off_c, 8, 73, 64
23, 185712, Note_on_c, 8, 74, 91
23, 185829, Note_on_c, 8, 83, 89
23, 185835, Note_off_c, 8, 74, 64
23, 185909, Note_off_c, 8, 83, 64
23, 185941, Note_on_c, 8, 73, 60
23, 186013, Note_off_c, 8, 73, 64
23, 186069, Note_on_c, 8, 74, 87
23, 186184, Note_on_c, 8, 73, 63
23, 186197, Note_off_c, 8, 74, 64
23, 186285, Note_on_c, 8, 71, 70
23, 186290, Note_off_c, 8, 73, 64
23, 186346, Note_off_c, 8, 71, 64
23, 186420, Note_on_c, 8, 73, 85
23, 186546, Note_on_c, 8, 69, 80
23, 186558, Note_off_c, 8, 73, 64
23, 186641, Note_on_c, 8, 71, 74
23, 186668, Note_off_c, 8, 69, 64
23, 186711, Note_off_c, 8, 71, 64
23, 186770, Note_on_c, 8, 72, 98
23, 186884, Note_on_c, 8, 81, 85
23, 186890, Note_off_c, 8, 72, 64
23, 186950, Note_off_c, 8, 81, 64
23, 186992, Note_on_c, 8, 71, 74
23, 187057, Note_off_c, 8, 71, 64
23, 187129, Note_on_c, 8, 72, 85
23, 187251, Note_on_c, 8, 71, 66
23, 187253, Note_off_c, 8, 72, 64
23, 187356, Note_off_c, 8, 71, 64
23, 187365, Note_on_c, 8, 69, 70
23, 187419, Note_off_c, 8, 69, 64
23, 187498, Note_on_c, 8, 71, 82
23, 187602, Note_off_c, 8, 71, 64
23, 187737, Note_on_c, 8, 83, 70
23, 187800, Note_off_c, 8, 83, 64
23, 187878, Note_on_c, 8, 83, 102
23, 187988, Note_on_c, 8, 84, 68
23, 188011, Note_off_c, 8, 83, 64
23, 188056, Note_off_c, 8, 84, 64
23, 188106, Note_on_c, 8, 81, 66
23, 188157, Note_off_c, 8, 81, 64
23, 188245, Note_on_c, 8, 81, 95
23, 188349, Note_on_c, 8, 83, 63
23, 188376, Note_off_c, 8, 81, 64
23, 188436, Note_off_c, 8, 83, 64
23, 188474, Note_on_c, 8, 79, 64
23, 188520, Note_off_c, 8, 79, 64
23, 188603, Note_on_c, 8, 79, 87
23, 188718, Note_on_c, 8, 76, 66
23, 188726, Note_off_c, 8, 79, 64
23, 188826, Note_on_c, 8, 78, 68
23, 188853, Note_off_c, 8, 76, 64
23, 188927, Note_off_c, 8, 78, 64
23, 188954, Note_on_c, 8, 80, 93
23, 189062, Note_on_c, 8, 81, 85
23, 189080, Note_off_c, 8, 80, 64
23, 189174, Note_on_c, 8, 83, 78
23, 189176, Note_off_c, 8, 81, 64
23, 189241, Note_off_c, 8, 83, 64
23, 189305, Note_on_c, 8, 76, 93
23, 189428, Note_off_c, 8, 76, 64
23, 189557, Note_on_c, 8, 80, 85
23, 189626, Note_off_c, 8, 80, 64
23, 189698, Note_on_c, 8, 69, 85
23, 189809, Note_on_c, 8, 73, 63
23, 189831, Note_off_c, 8, 69, 64
23, 189915, Note_on_c, 8, 76, 82
23, 189935, Note_off_c, 8, 73, 64
23, 190016, Note_off_c, 8, 76, 64
23, 190056, Note_on_c, 8, 81, 89
23, 190164, Note_on_c, 8, 83, 85
23, 190196, Note_off_c, 8, 81, 64
23, 190231, Note_off_c, 8, 83, 64
23, 190277, Note_on_c, 8, 79, 70
23, 190328, Note_off_c, 8, 79, 64
23, 190409, Note_on_c, 8, 79, 100
23, 190513, Note_on_c, 8, 81, 68
23, 190529, Note_off_c, 8, 79, 64
23, 190580, Note_off_c, 8, 81, 64
23, 190621, Note_on_c, 8, 78, 85
23, 190662, Note_off_c, 8, 78, 64
23, 190760, Note_on_c, 8, 78, 100
23, 190870, Note_on_c, 8, 74, 80
23, 190895, Note_off_c, 8, 78, 64
23, 190977, Note_on_c, 8, 76, 78
23, 190999, Note_off_c, 8, 74, 64
23, 191071, Note_off_c, 8, 76, 64
23, 191096, Note_on_c, 8, 78, 89
23, 191204, Note_on_c, 8, 79, 78
23, 191210, Note_off_c, 8, 78, 64
23, 191321, Note_off_c, 8, 79, 64
23, 191328, Note_on_c, 8, 81, 82
23, 191409, Note_off_c, 8, 81, 64
23, 191453, Note_on_c, 8, 74, 80
23, 191575, Note_off_c, 8, 74, 64
23, 191694, Note_on_c, 8, 78, 74
23, 191771, Note_off_c, 8, 78, 64
23, 191836, Note_on_c, 8, 67, 80
23, 191945, Note_on_c, 8, 71, 72
23, 191960, Note_off_c, 8, 67, 64
23, 192052, Note_on_c, 8, 74, 87
23, 192077, Note_off_c, 8, 71, 64
23, 192143, Note_off_c, 8, 74, 64
23, 192182, Note_on_c, 8, 79, 89
23, 192299, Note_on_c, 8, 81, 70
23, 192342, Note_off_c, 8, 79, 64
23, 192358, Note_off_c, 8, 81, 64
23, 192417, Note_on_c, 8, 78, 68
23, 192480, Note_off_c, 8, 78, 64
23, 192543, Note_on_c, 8, 78, 102
23, 192651, Note_on_c, 8, 79, 82
23, 192684, Note_off_c, 8, 78, 64
23, 192743, Note_off_c, 8, 79, 64
23, 192767, Note_on_c, 8, 76, 66
23, 192824, Note_off_c, 8, 76, 64
23, 192903, Note_on_c, 8, 76, 82
23, 193011, Note_on_c, 8, 78, 78
23, 193033, Note_off_c, 8, 76, 64
23, 193132, Note_on_c, 8, 79, 85
23, 193134, Note_off_c, 8, 78, 64
23, 193223, Note_off_c, 8, 79, 64
23, 193265, Note_on_c, 8, 81, 85
23, 193375, Note_on_c, 8, 83, 76
23, 193382, Note_off_c, 8, 81, 64
23, 193469, Note_off_c, 8, 83, 64
23, 193496, Note_on_c, 8, 79, 64
23, 193544, Note_off_c, 8, 79, 64
23, 193627, Note_on_c, 8, 79, 87
23, 193739, Note_on_c, 8, 81, 64
23, 193751, Note_off_c, 8, 79, 64
23, 193845, Note_off_c, 8, 81, 64
23, 193872, Note_on_c, 8, 78, 80
23, 193937, Note_off_c, 8, 78, 64
23, 194005, Note_on_c, 8, 78, 95
23, 194118, Note_on_c, 8, 79, 76
23, 194144, Note_off_c, 8, 78, 64
23, 194244, Note_on_c, 8, 81, 80
23, 194268, Note_off_c, 8, 79, 64
23, 194325, Note_off_c, 8, 81, 64
23, 194367, Note_on_c, 8, 83, 100
23, 194471, Note_on_c, 8, 84, 74
23, 194496, Note_off_c, 8, 83, 64
23, 194547, Note_off_c, 8, 84, 64
23, 194595, Note_on_c, 8, 81, 64
23, 194648, Note_off_c, 8, 81, 64
23, 194727, Note_on_c, 8, 81, 100
23, 194833, Note_on_c, 8, 83, 78
23, 194842, Note_off_c, 8, 81, 64
23, 194918, Note_off_c, 8, 83, 64
23, 194946, Note_on_c, 8, 79, 70
23, 195010, Note_off_c, 8, 79, 64
23, 195090, Note_on_c, 8, 79, 68
23, 195197, Note_off_c, 8, 79, 64
23, 195312, Note_on_c, 8, 79, 80
23, 195382, Note_off_c, 8, 79, 64
23, 195450, Note_on_c, 8, 79, 87
23, 195580, Note_off_c, 8, 79, 64
23, 195685, Note_on_c, 8, 79, 82
23, 195756, Note_off_c, 8, 79, 64
23, 195810, Note_on_c, 8, 79, 85
23, 195927, Note_off_c, 8, 79, 64
23, 196053, Note_on_c, 8, 79, 85
23, 196125, Note_off_c, 8, 79, 64
23, 196185, Note_on_c, 8, 79, 98
23, 196289, Note_on_c, 8, 76, 72
23, 196309, Note_off_c, 8, 79, 64
23, 196381, Note_off_c, 8, 76, 64
23, 196406, Note_on_c, 8, 78, 80
23, 196484, Note_off_c, 8, 78, 64
23, 196534, Note_on_c, 8, 79, 95
23, 196647, Note_on_c, 8, 88, 85
23, 196653, Note_off_c, 8, 79, 64
23, 196725, Note_off_c, 8, 88, 64
23, 196764, Note_on_c, 8, 78, 72
23, 196835, Note_off_c, 8, 78, 64
23, 196890, Note_on_c, 8, 79, 85
23, 197006, Note_on_c, 8, 78, 63
23, 197025, Note_off_c, 8, 79, 64
23, 197099, Note_off_c, 8, 78, 64
23, 197112, Note_on_c, 8, 76, 61
23, 197177, Note_off_c, 8, 76, 64
23, 197252, Note_on_c, 8, 78, 100
23, 197351, Note_on_c, 8, 81, 80
23, 197384, Note_off_c, 8, 78, 64
23, 197445, Note_off_c, 8, 81, 64
23, 197475, Note_on_c, 8, 79, 82
23, 197549, Note_off_c, 8, 79, 64
23, 197601, Note_on_c, 8, 81, 95
23, 197708, Note_off_c, 8, 81, 64
23, 197841, Note_on_c, 8, 74, 78
23, 197907, Note_off_c, 8, 74, 64
23, 197967, Note_on_c, 8, 69, 85
23, 198082, Note_off_c, 8, 69, 64
23, 198215, Note_on_c, 8, 73, 60
23, 198302, Note_off_c, 8, 73, 64
23, 198330, Note_on_c, 8, 74, 95
23, 198465, Note_off_c, 8, 74, 64
23, 198723, Note_on_c, 8, 78, 82
23, 198836, Note_off_c, 8, 78, 64
23, 199056, Note_on_c, 8, 81, 87
23, 199185, Note_off_c, 8, 81, 64
23, 199428, Note_on_c, 8, 86, 100
23, 199535, Note_off_c, 8, 86, 64
23, 199792, Note_on_c, 8, 78, 85
23, 199905, Note_off_c, 8, 78, 64
23, 200143, Note_on_c, 8, 81, 87
23, 200265, Note_off_c, 8, 81, 64
23, 225312, Note_on_c, 8, 81, 80
23, 225363, Note_off_c, 8, 81, 64
23, 225441, Note_on_c, 8, 81, 100
23, 225544, Note_on_c, 8, 83, 66
23, 225576, Note_off_c, 8, 81, 64
23, 225621, Note_off_c, 8, 83, 64
23, 225659, Note_on_c, 8, 79, 68
23, 225713, Note_off_c, 8, 79, 64
23, 225792, Note_on_c, 8, 79, 93
23, 225897, Note_on_c, 8, 81, 63
23, 225913, Note_off_c, 8, 79, 64
23, 225976, Note_off_c, 8, 81, 64
23, 226025, Note_on_c, 8, 78, 63
23, 226086, Note_off_c, 8, 78, 64
23, 226158, Note_on_c, 8, 78, 82
23, 226266, Note_on_c, 8, 79, 68
23, 226284, Note_off_c, 8, 78, 64
23, 226370, Note_off_c, 8, 79, 64
23, 226386, Note_on_c, 8, 81, 62
23, 226439, Note_off_c, 8, 81, 64
23, 226529, Note_on_c, 8, 83, 98
23, 226638, Note_on_c, 8, 84, 74
23, 226656, Note_off_c, 8, 83, 64
23, 226707, Note_off_c, 8, 84, 64
23, 226755, Note_on_c, 8, 81, 80
23, 226804, Note_off_c, 8, 81, 64
23, 226880, Note_on_c, 8, 81, 98
23, 226986, Note_on_c, 8, 83, 68
23, 227020, Note_off_c, 8, 81, 64
23, 227074, Note_off_c, 8, 83, 64
23, 227106, Note_on_c, 8, 79, 70
23, 227157, Note_off_c, 8, 79, 64
23, 227240, Note_on_c, 8, 79, 78
23, 227398, Note_off_c, 8, 79, 64
23, 227490, Note_on_c, 8, 79, 64
23, 227556, Note_off_c, 8, 79, 64
23, 227616, Note_on_c, 8, 79, 82
23, 227778, Note_off_c, 8, 79, 64
23, 227852, Note_on_c, 8, 79, 72
23, 227925, Note_off_c, 8, 79, 64
23, 227981, Note_on_c, 8, 79, 78
23, 228159, Note_off_c, 8, 79, 64
23, 228219, Note_on_c, 8, 79, 74
23, 228276, Note_off_c, 8, 79, 64
23, 228335, Note_on_c, 8, 79, 85
23, 228458, Note_off_c, 8, 79, 64
23, 228458, Note_on_c, 8, 76, 72
23, 228548, Note_off_c, 8, 76, 64
23, 228566, Note_on_c, 8, 78, 64
23, 228633, Note_off_c, 8, 78, 64
23, 228705, Note_on_c, 8, 79, 89
23, 228820, Note_on_c, 8, 88, 57
23, 228834, Note_off_c, 8, 79, 64
23, 228872, Note_off_c, 8, 88, 64
23, 228948, Note_on_c, 8, 78, 91
23, 229007, Note_off_c, 8, 78, 64
23, 229065, Note_on_c, 8, 79, 91
23, 229182, Note_on_c, 8, 78, 68
23, 229202, Note_off_c, 8, 79, 64
23, 229248, Note_off_c, 8, 78, 64
23, 229290, Note_on_c, 8, 76, 78
23, 229351, Note_off_c, 8, 76, 64
23, 229410, Note_on_c, 8, 78, 102
23, 229536, Note_on_c, 8, 74, 72
23, 229545, Note_off_c, 8, 78, 64
23, 229608, Note_off_c, 8, 74, 64
23, 229655, Note_on_c, 8, 76, 80
23, 229700, Note_off_c, 8, 76, 64
23, 229774, Note_on_c, 8, 78, 102
23, 229884, Note_on_c, 8, 79, 78
23, 229905, Note_off_c, 8, 78, 64
23, 229950, Note_off_c, 8, 79, 64
23, 230006, Note_on_c, 8, 76, 76
23, 230050, Note_off_c, 8, 76, 64
23, 230134, Note_on_c, 8, 76, 100
23, 230247, Note_on_c, 8, 78, 66
23, 230255, Note_off_c, 8, 76, 64
23, 230307, Note_off_c, 8, 78, 64
23, 230368, Note_on_c, 8, 74, 63
23, 230418, Note_off_c, 8, 74, 64
23, 230490, Note_on_c, 8, 74, 78
23, 230622, Note_off_c, 8, 74, 64
23, 230714, Note_on_c, 8, 74, 74
23, 230778, Note_off_c, 8, 74, 64
23, 230845, Note_on_c, 8, 74, 80
23, 230993, Note_off_c, 8, 74, 64
23, 231077, Note_on_c, 8, 74, 60
23, 231134, Note_off_c, 8, 74, 64
23, 231196, Note_on_c, 8, 74, 87
23, 231363, Note_off_c, 8, 74, 64
23, 231423, Note_on_c, 8, 74, 72
23, 231491, Note_off_c, 8, 74, 64
23, 231552, Note_on_c, 8, 74, 82
23, 231651, Note_on_c, 8, 71, 80
23, 231660, Note_off_c, 8, 74, 64
23, 231768, Note_on_c, 8, 73, 70
23, 231785, Note_off_c, 8, 71, 64
23, 231829, Note_off_c, 8, 73, 64
23, 231905, Note_on_c, 8, 74, 100
23, 232006, Note_on_c, 8, 83, 85
23, 232017, Note_off_c, 8, 74, 64
23, 232073, Note_off_c, 8, 83, 64
23, 232137, Note_on_c, 8, 73, 82
23, 232193, Note_off_c, 8, 73, 64
23, 232267, Note_on_c, 8, 74, 85
23, 232386, Note_on_c, 8, 73, 64
23, 232407, Note_off_c, 8, 74, 64
23, 232467, Note_off_c, 8, 73, 64
23, 232487, Note_on_c, 8, 71, 68
23, 232539, Note_off_c, 8, 71, 64
23, 232623, Note_on_c, 8, 73, 102
23, 232731, Note_on_c, 8, 69, 52
23, 232753, Note_off_c, 8, 73, 64
23, 232818, Note_off_c, 8, 69, 64
23, 232840, Note_on_c, 8, 71, 68
23, 232892, Note_off_c, 8, 71, 64
23, 232983, Note_on_c, 8, 72, 100
23, 233091, Note_on_c, 8, 81, 61
23, 233106, Note_off_c, 8, 72, 64
23, 233140, Note_off_c, 8, 81, 64
23, 233208, Note_on_c, 8, 71, 80
23, 233271, Note_off_c, 8, 71, 64
23, 233331, Note_on_c, 8, 72, 89
23, 233441, Note_on_c, 8, 71, 82
23, 233459, Note_off_c, 8, 72, 64
23, 233536, Note_off_c, 8, 71, 64
23, 233558, Note_on_c, 8, 69, 61
23, 233613, Note_off_c, 8, 69, 64
23, 233696, Note_on_c, 8, 71, 100
23, 233810, Note_off_c, 8, 71, 64
23, 233927, Note_on_c, 8, 83, 74
23, 233982, Note_off_c, 8, 83, 64
23, 234054, Note_on_c, 8, 83, 100
23, 234166, Note_on_c, 8, 84, 78
23, 234198, Note_off_c, 8, 83, 64
23, 234238, Note_off_c, 8, 84, 64
23, 234288, Note_on_c, 8, 81, 66
23, 234339, Note_off_c, 8, 81, 64
23, 234423, Note_on_c, 8, 81, 91
23, 234533, Note_on_c, 8, 83, 64
23, 234567, Note_off_c, 8, 81, 64
23, 234611, Note_off_c, 8, 83, 64
23, 234648, Note_on_c, 8, 79, 70
23, 234697, Note_off_c, 8, 79, 64
23, 234791, Note_on_c, 8, 79, 91
23, 234913, Note_on_c, 8, 76, 66
23, 234951, Note_off_c, 8, 79, 64
23, 235016, Note_off_c, 8, 76, 64
23, 235025, Note_on_c, 8, 78, 58
23, 235107, Note_off_c, 8, 78, 64
23, 235194, Note_on_c, 8, 80, 89
23, 235286, Note_on_c, 8, 81, 78
23, 235298, Note_off_c, 8, 80, 64
23, 235403, Note_off_c, 8, 81, 64
23, 235413, Note_on_c, 8, 83, 62
23, 235464, Note_off_c, 8, 83, 64
23, 235545, Note_on_c, 8, 76, 91
23, 235667, Note_off_c, 8, 76, 64
23, 235770, Note_on_c, 8, 80, 82
23, 235818, Note_off_c, 8, 80, 64
23, 235896, Note_on_c, 8, 69, 89
23, 236006, Note_on_c, 8, 73, 61
23, 236033, Note_off_c, 8, 69, 64
23, 236099, Note_off_c, 8, 73, 64
23, 236115, Note_on_c, 8, 76, 78
23, 236166, Note_off_c, 8, 76, 64
23, 236259, Note_on_c, 8, 81, 95
23, 236369, Note_on_c, 8, 83, 68
23, 236402, Note_off_c, 8, 81, 64
23, 236454, Note_off_c, 8, 83, 64
23, 236481, Note_on_c, 8, 79, 68
23, 236538, Note_off_c, 8, 79, 64
23, 236610, Note_on_c, 8, 79, 91
23, 236717, Note_on_c, 8, 81, 60
23, 236756, Note_off_c, 8, 79, 64
23, 236771, Note_on_c, 8, 78, 55
23, 236803, Note_off_c, 8, 81, 64
23, 236850, Note_off_c, 8, 78, 64
23, 236940, Note_on_c, 8, 78, 87
23, 237048, Note_on_c, 8, 74, 66
23, 237066, Note_off_c, 8, 78, 64
23, 237132, Note_off_c, 8, 74, 64
23, 237177, Note_on_c, 8, 76, 66
23, 237231, Note_off_c, 8, 76, 64
23, 237312, Note_on_c, 8, 78, 100
23, 237417, Note_on_c, 8, 79, 80
23, 237462, Note_off_c, 8, 78, 64
23, 237536, Note_on_c, 8, 81, 66
23, 237552, Note_off_c, 8, 79, 64
23, 237602, Note_off_c, 8, 81, 64
23, 237667, Note_on_c, 8, 74, 78
23, 237795, Note_off_c, 8, 74, 64
23, 237896, Note_on_c, 8, 78, 80
23, 237964, Note_off_c, 8, 78, 64
23, 238036, Note_on_c, 8, 67, 89
23, 238157, Note_on_c, 8, 71, 70
23, 238171, Note_off_c, 8, 67, 64
23, 238263, Note_off_c, 8, 71, 64
23, 238265, Note_on_c, 8, 74, 72
23, 238321, Note_off_c, 8, 74, 64
23, 238408, Note_on_c, 8, 79, 93
23, 238515, Note_on_c, 8, 81, 74
23, 238540, Note_off_c, 8, 79, 64
23, 238584, Note_off_c, 8, 81, 64
23, 238637, Note_on_c, 8, 78, 102
23, 238697, Note_off_c, 8, 78, 64
23, 238769, Note_on_c, 8, 78, 105
23, 238878, Note_on_c, 8, 79, 76
23, 238910, Note_off_c, 8, 78, 64
23, 238954, Note_off_c, 8, 79, 64
23, 238995, Note_on_c, 8, 76, 78
23, 239044, Note_off_c, 8, 76, 64
23, 239134, Note_on_c, 8, 76, 100
23, 239237, Note_on_c, 8, 78, 56
23, 239280, Note_off_c, 8, 76, 64
23, 239332, Note_off_c, 8, 78, 64
23, 239354, Note_on_c, 8, 79, 80
23, 239413, Note_off_c, 8, 79, 64
23, 239485, Note_on_c, 8, 81, 100
23, 239593, Note_on_c, 8, 83, 70
23, 239624, Note_off_c, 8, 81, 64
23, 239674, Note_off_c, 8, 83, 64
23, 239719, Note_on_c, 8, 79, 70
23, 239766, Note_off_c, 8, 79, 64
23, 239840, Note_on_c, 8, 79, 89
23, 239953, Note_on_c, 8, 81, 64
23, 239989, Note_off_c, 8, 79, 64
23, 240039, Note_off_c, 8, 81, 64
23, 240090, Note_on_c, 8, 78, 82
23, 240149, Note_off_c, 8, 78, 64
23, 240209, Note_on_c, 8, 78, 89
23, 240313, Note_on_c, 8, 79, 78
23, 240340, Note_off_c, 8, 78, 64
23, 240437, Note_off_c, 8, 79, 64
23, 240441, Note_on_c, 8, 81, 72
23, 240495, Note_off_c, 8, 81, 64
23, 240570, Note_on_c, 8, 83, 95
23, 240687, Note_on_c, 8, 84, 70
23, 240714, Note_off_c, 8, 83, 64
23, 240780, Note_off_c, 8, 84, 64
23, 240808, Note_on_c, 8, 81, 66
23, 240857, Note_off_c, 8, 81, 64
23, 240927, Note_on_c, 8, 81, 95
23, 241031, Note_on_c, 8, 83, 64
23, 241060, Note_off_c, 8, 81, 64
23, 241128, Note_off_c, 8, 83, 64
23, 241152, Note_on_c, 8, 79, 74
23, 241211, Note_off_c, 8, 79, 64
23, 241280, Note_on_c, 8, 79, 85
23, 241400, Note_off_c, 8, 79, 64
23, 241518, Note_on_c, 8, 79, 72
23, 241575, Note_off_c, 8, 79, 64
23, 241640, Note_on_c, 8, 79, 87
23, 241771, Note_off_c, 8, 79, 64
23, 241875, Note_on_c, 8, 79, 78
23, 241947, Note_off_c, 8, 79, 64
23, 242009, Note_on_c, 8, 79, 89
23, 242180, Note_off_c, 8, 79, 64
23, 242244, Note_on_c, 8, 79, 76
23, 242300, Note_off_c, 8, 79, 64
23, 242363, Note_on_c, 8, 79, 82
23, 242478, Note_on_c, 8, 76, 66
23, 242491, Note_off_c, 8, 79, 64
23, 242592, Note_off_c, 8, 76, 64
23, 242595, Note_on_c, 8, 78, 80
23, 242658, Note_off_c, 8, 78, 64
23, 242734, Note_on_c, 8, 79, 91
23, 242840, Note_on_c, 8, 88, 80
23, 242846, Note_off_c, 8, 79, 64
23, 242900, Note_off_c, 8, 88, 64
23, 242957, Note_on_c, 8, 78, 95
23, 243020, Note_off_c, 8, 78, 64
23, 243087, Note_on_c, 8, 79, 91
23, 243206, Note_on_c, 8, 78, 76
23, 243225, Note_off_c, 8, 79, 64
23, 243283, Note_off_c, 8, 78, 64
23, 243321, Note_on_c, 8, 76, 78
23, 243384, Note_off_c, 8, 76, 64
23, 243443, Note_on_c, 8, 78, 95
23, 243557, Note_on_c, 8, 81, 85
23, 243575, Note_off_c, 8, 78, 64
23, 243627, Note_off_c, 8, 81, 64
23, 243684, Note_on_c, 8, 79, 82
23, 243751, Note_off_c, 8, 79, 64
23, 243809, Note_on_c, 8, 81, 98
23, 243924, Note_off_c, 8, 81, 64
23, 244025, Note_on_c, 8, 74, 78
23, 244079, Note_off_c, 8, 74, 64
23, 244152, Note_on_c, 8, 69, 74
23, 244264, Note_off_c, 8, 69, 64
23, 244383, Note_on_c, 8, 73, 80
23, 244460, Note_off_c, 8, 73, 64
23, 244505, Note_on_c, 8, 74, 95
23, 244626, Note_off_c, 8, 74, 64
23, 244741, Note_on_c, 8, 69, 62
23, 244790, Note_off_c, 8, 69, 64
23, 244876, Note_on_c, 8, 69, 70
23, 244973, Note_off_c, 8, 69, 64
23, 245130, Note_on_c, 8, 69, 66
23, 245187, Note_off_c, 8, 69, 64
23, 245268, Note_on_c, 8, 69, 85
23, 245510, Note_off_c, 8, 69, 64
23, 245672, Note_on_c, 8, 56, 18
23, 245706, Note_off_c, 8, 56, 64
23, 245853, Note_on_c, 8, 57, 63
23, 245918, Note_off_c, 8, 57, 64
23, 245978, Note_on_c, 8, 57, 68
23, 246082, Note_off_c, 8, 57, 64
23, 246221, Note_on_c, 8, 57, 57
23, 246282, Note_off_c, 8, 57, 64
23, 246357, Note_on_c, 8, 57, 80
23, 246552, Note_off_c, 8, 57, 64
23, 267447, Note_on_c, 8, 64, 52
23, 267499, Note_off_c, 8, 64, 64
23, 267564, Note_on_c, 8, 64, 63
23, 267708, Note_off_c, 8, 64, 64
23, 267815, Note_on_c, 8, 64, 57
23, 267870, Note_off_c, 8, 64, 64
23, 267927, Note_on_c, 8, 64, 63
23, 268070, Note_off_c, 8, 64, 64
23, 268152, Note_on_c, 8, 64, 64
23, 268223, Note_off_c, 8, 64, 64
23, 268282, Note_on_c, 8, 64, 70
23, 268435, Note_off_c, 8, 64, 64
23, 268505, Note_on_c, 8, 64, 66
23, 268590, Note_off_c, 8, 64, 64
23, 268642, Note_on_c, 8, 64, 68
23, 268791, Note_off_c, 8, 64, 64
23, 268869, Note_on_c, 8, 64, 58
23, 268938, Note_off_c, 8, 64, 64
23, 268998, Note_on_c, 8, 64, 82
23, 269106, Note_off_c, 8, 64, 64
23, 269223, Note_on_c, 8, 64, 61
23, 269281, Note_off_c, 8, 64, 64
23, 269371, Note_on_c, 8, 64, 93
23, 269508, Note_off_c, 8, 64, 64
23, 269585, Note_on_c, 8, 76, 68
23, 269641, Note_off_c, 8, 76, 64
23, 269715, Note_on_c, 8, 76, 95
23, 269814, Note_on_c, 8, 78, 58
23, 269850, Note_off_c, 8, 76, 64
23, 269906, Note_on_c, 8, 74, 68
23, 269915, Note_off_c, 8, 78, 64
23, 269954, Note_off_c, 8, 74, 64
23, 270046, Note_on_c, 8, 74, 98
23, 270158, Note_on_c, 8, 76, 64
23, 270179, Note_off_c, 8, 74, 64
23, 270230, Note_off_c, 8, 76, 64
23, 270289, Note_on_c, 8, 73, 61
23, 270345, Note_off_c, 8, 73, 64
23, 270425, Note_on_c, 8, 73, 82
23, 270539, Note_on_c, 8, 74, 70
23, 270566, Note_off_c, 8, 73, 64
23, 270662, Note_on_c, 8, 76, 82
23, 270685, Note_off_c, 8, 74, 64
23, 270750, Note_off_c, 8, 76, 64
23, 270791, Note_on_c, 8, 78, 100
23, 270899, Note_on_c, 8, 79, 76
23, 270930, Note_off_c, 8, 78, 64
23, 270986, Note_off_c, 8, 79, 64
23, 271025, Note_on_c, 8, 76, 62
23, 271065, Note_off_c, 8, 76, 64
23, 271155, Note_on_c, 8, 76, 91
23, 271265, Note_on_c, 8, 78, 54
23, 271284, Note_off_c, 8, 76, 64
23, 271346, Note_off_c, 8, 78, 64
23, 271376, Note_on_c, 8, 74, 60
23, 271434, Note_off_c, 8, 74, 64
23, 271513, Note_on_c, 8, 74, 68
23, 271677, Note_off_c, 8, 74, 64
23, 271762, Note_on_c, 8, 74, 66
23, 271830, Note_off_c, 8, 74, 64
23, 271889, Note_on_c, 8, 74, 72
23, 272030, Note_off_c, 8, 74, 64
23, 272118, Note_on_c, 8, 74, 70
23, 272190, Note_off_c, 8, 74, 64
23, 272246, Note_on_c, 8, 74, 85
23, 272399, Note_off_c, 8, 74, 64
23, 272467, Note_on_c, 8, 74, 82
23, 272535, Note_off_c, 8, 74, 64
23, 272598, Note_on_c, 8, 74, 95
23, 272714, Note_on_c, 8, 71, 64
23, 272744, Note_off_c, 8, 74, 64
23, 272834, Note_on_c, 8, 73, 95
23, 272853, Note_off_c, 8, 71, 64
23, 272922, Note_off_c, 8, 73, 64
23, 272966, Note_on_c, 8, 74, 100
23, 273086, Note_on_c, 8, 83, 85
23, 273092, Note_off_c, 8, 74, 64
23, 273153, Note_off_c, 8, 83, 64
23, 273200, Note_on_c, 8, 73, 66
23, 273252, Note_off_c, 8, 73, 64
23, 273320, Note_on_c, 8, 74, 68
23, 273457, Note_on_c, 8, 73, 61
23, 273470, Note_off_c, 8, 74, 64
23, 273549, Note_off_c, 8, 73, 64
23, 273570, Note_on_c, 8, 71, 66
23, 273624, Note_off_c, 8, 71, 64
23, 273700, Note_on_c, 8, 73, 87
23, 273804, Note_on_c, 8, 76, 64
23, 273817, Note_off_c, 8, 73, 64
23, 273914, Note_on_c, 8, 74, 66
23, 273932, Note_off_c, 8, 76, 64
23, 273975, Note_off_c, 8, 74, 64
23, 274056, Note_on_c, 8, 76, 80
23, 274890, Note_off_c, 8, 76, 64
23, 274895, Note_on_c, 8, 78, 68
23, 274996, Note_on_c, 8, 76, 70
23, 275012, Note_off_c, 8, 78, 64
23, 275073, Note_off_c, 8, 76, 64
23, 275144, Note_on_c, 8, 74, 89
23, 275252, Note_on_c, 8, 76, 66
23, 275261, Note_off_c, 8, 74, 64
23, 275324, Note_off_c, 8, 76, 64
23, 275372, Note_on_c, 8, 73, 57
23, 275417, Note_off_c, 8, 73, 64
23, 275505, Note_on_c, 8, 73, 85
23, 275589, Note_on_c, 8, 74, 64
23, 275617, Note_off_c, 8, 73, 64
23, 275687, Note_off_c, 8, 74, 64
23, 275721, Note_on_c, 8, 71, 70
23, 275772, Note_off_c, 8, 71, 64
23, 275862, Note_on_c, 8, 71, 80
23, 277021, Note_off_c, 8, 71, 64
23, 277061, Note_on_c, 8, 73, 64
23, 277143, Note_off_c, 8, 73, 64
23, 277163, Note_on_c, 8, 74, 85
23, 277224, Note_off_c, 8, 74, 64
23, 277289, Note_on_c, 8, 76, 93
23, 277392, Note_on_c, 8, 73, 64
23, 277419, Note_off_c, 8, 76, 64
23, 277487, Note_off_c, 8, 73, 64
23, 277509, Note_on_c, 8, 69, 82
23, 277575, Note_off_c, 8, 69, 64
23, 277667, Note_on_c, 8, 81, 82
23, 279150, Note_off_c, 8, 81, 64
23, 279206, Note_on_c, 8, 80, 64
23, 279327, Note_on_c, 8, 81, 76
23, 279366, Note_off_c, 8, 80, 64
23, 279420, Note_off_c, 8, 81, 64
23, 279456, Note_on_c, 8, 83, 82
23, 279570, Note_on_c, 8, 85, 64
23, 279599, Note_off_c, 8, 83, 64
23, 279669, Note_off_c, 8, 85, 64
23, 279678, Note_on_c, 8, 81, 64
23, 279726, Note_off_c, 8, 81, 64
23, 279812, Note_on_c, 8, 81, 100
23, 279908, Note_on_c, 8, 83, 66
23, 279932, Note_off_c, 8, 81, 64
23, 279989, Note_off_c, 8, 83, 64
23, 280029, Note_on_c, 8, 80, 87
23, 280079, Note_off_c, 8, 80, 64
23, 280167, Note_on_c, 8, 80, 102
23, 280277, Note_on_c, 8, 76, 66
23, 280311, Note_off_c, 8, 80, 64
23, 280380, Note_on_c, 8, 78, 64
23, 280400, Note_off_c, 8, 76, 64
23, 280466, Note_off_c, 8, 78, 64
23, 280506, Note_on_c, 8, 80, 98
23, 280607, Note_on_c, 8, 81, 82
23, 280632, Note_off_c, 8, 80, 64
23, 280718, Note_on_c, 8, 83, 82
23, 280724, Note_off_c, 8, 81, 64
23, 280787, Note_off_c, 8, 83, 64
23, 280848, Note_on_c, 8, 76, 89
23, 280970, Note_off_c, 8, 76, 64
23, 281078, Note_on_c, 8, 80, 85
23, 281161, Note_off_c, 8, 80, 64
23, 281219, Note_on_c, 8, 69, 56
23, 281327, Note_on_c, 8, 73, 63
23, 281366, Note_off_c, 8, 69, 64
23, 281447, Note_off_c, 8, 73, 64
23, 281447, Note_on_c, 8, 76, 78
23, 281539, Note_off_c, 8, 76, 64
23, 281579, Note_on_c, 8, 81, 95
23, 281692, Note_on_c, 8, 83, 72
23, 281725, Note_off_c, 8, 81, 64
23, 281782, Note_off_c, 8, 83, 64
23, 281802, Note_on_c, 8, 79, 68
23, 281859, Note_off_c, 8, 79, 64
23, 281931, Note_on_c, 8, 79, 93
23, 282038, Note_on_c, 8, 81, 64
23, 282072, Note_off_c, 8, 79, 64
23, 282133, Note_off_c, 8, 81, 64
23, 282165, Note_on_c, 8, 78, 60
23, 282223, Note_off_c, 8, 78, 64
23, 282302, Note_on_c, 8, 78, 91
23, 282413, Note_on_c, 8, 74, 68
23, 282441, Note_off_c, 8, 78, 64
23, 282520, Note_on_c, 8, 78, 63
23, 282525, Note_off_c, 8, 74, 64
23, 282576, Note_off_c, 8, 78, 64
23, 282662, Note_on_c, 8, 83, 82
23, 282767, Note_on_c, 8, 85, 66
23, 282794, Note_off_c, 8, 83, 64
23, 282884, Note_off_c, 8, 85, 64
23, 282884, Note_on_c, 8, 81, 64
23, 282932, Note_off_c, 8, 81, 64
23, 283020, Note_on_c, 8, 81, 98
23, 283121, Note_on_c, 8, 83, 63
23, 283150, Note_off_c, 8, 81, 64
23, 283215, Note_off_c, 8, 83, 64
23, 283256, Note_on_c, 8, 80, 70
23, 283313, Note_off_c, 8, 80, 64
23, 283379, Note_on_c, 8, 80, 100
23, 283492, Note_on_c, 8, 81, 64
23, 283514, Note_off_c, 8, 80, 64
23, 283607, Note_on_c, 8, 83, 72
23, 283616, Note_off_c, 8, 81, 64
23, 283681, Note_off_c, 8, 83, 64
23, 283737, Note_on_c, 8, 85, 102
23, 283845, Note_on_c, 8, 86, 80
23, 283872, Note_off_c, 8, 85, 64
23, 283926, Note_off_c, 8, 86, 64
23, 283969, Note_on_c, 8, 83, 64
23, 284018, Note_off_c, 8, 83, 64
23, 284095, Note_on_c, 8, 83, 98
23, 284203, Note_on_c, 8, 85, 68
23, 284217, Note_off_c, 8, 83, 64
23, 284268, Note_off_c, 8, 85, 64
23, 284322, Note_on_c, 8, 81, 58
23, 284383, Note_off_c, 8, 81, 64
23, 284466, Note_on_c, 8, 81, 70
23, 284604, Note_off_c, 8, 81, 64
23, 284700, Note_on_c, 8, 81, 70
23, 284763, Note_off_c, 8, 81, 64
23, 284820, Note_on_c, 8, 81, 85
23, 285008, Note_off_c, 8, 81, 64
23, 285074, Note_on_c, 8, 81, 74
23, 285141, Note_off_c, 8, 81, 64
23, 285204, Note_on_c, 8, 81, 89
23, 285364, Note_off_c, 8, 81, 64
23, 285438, Note_on_c, 8, 81, 68
23, 285497, Note_off_c, 8, 81, 64
23, 285566, Note_on_c, 8, 81, 98
23, 285668, Note_on_c, 8, 83, 72
23, 285702, Note_off_c, 8, 81, 64
23, 285756, Note_off_c, 8, 83, 64
23, 285789, Note_on_c, 8, 81, 66
23, 285843, Note_off_c, 8, 81, 64
23, 285924, Note_on_c, 8, 80, 98
23, 286030, Note_on_c, 8, 81, 70
23, 286057, Note_off_c, 8, 80, 64
23, 286104, Note_off_c, 8, 81, 64
23, 286149, Note_on_c, 8, 78, 64
23, 286199, Note_off_c, 8, 78, 64
23, 286278, Note_on_c, 8, 78, 89
23, 286377, Note_on_c, 8, 80, 62
23, 286395, Note_off_c, 8, 78, 64
23, 286448, Note_off_c, 8, 80, 64
23, 286507, Note_on_c, 8, 76, 60
23, 286561, Note_off_c, 8, 76, 64
23, 286642, Note_on_c, 8, 76, 80
23, 286770, Note_off_c, 8, 76, 64
23, 286878, Note_on_c, 8, 76, 64
23, 286939, Note_off_c, 8, 76, 64
23, 287000, Note_on_c, 8, 76, 78
23, 287139, Note_off_c, 8, 76, 64
23, 287229, Note_on_c, 8, 76, 70
23, 287292, Note_off_c, 8, 76, 64
23, 287358, Note_on_c, 8, 76, 85
23, 287502, Note_off_c, 8, 76, 64
23, 287592, Note_on_c, 8, 76, 78
23, 287648, Note_off_c, 8, 76, 64
23, 287717, Note_on_c, 8, 76, 87
23, 287789, Note_off_c, 8, 76, 64
23, 287826, Note_on_c, 8, 81, 87
23, 287927, Note_on_c, 8, 80, 89
23, 287942, Note_off_c, 8, 81, 64
23, 288002, Note_off_c, 8, 80, 64
23, 288073, Note_on_c, 8, 81, 91
23, 288183, Note_on_c, 8, 76, 68
23, 288213, Note_off_c, 8, 81, 64
23, 288275, Note_off_c, 8, 76, 64
23, 288298, Note_on_c, 8, 78, 76
23, 288354, Note_off_c, 8, 78, 64
23, 288431, Note_on_c, 8, 73, 100
23, 288536, Note_on_c, 8, 71, 70
23, 288563, Note_off_c, 8, 73, 64
23, 288635, Note_off_c, 8, 71, 64
23, 288640, Note_on_c, 8, 69, 80
23, 288708, Note_off_c, 8, 69, 64
23, 288775, Note_on_c, 8, 69, 87
23, 288964, Note_off_c, 8, 69, 64
23, 302006, Note_on_c, 8, 66, 57
23, 302069, Note_off_c, 8, 66, 64
23, 302132, Note_on_c, 8, 66, 64
23, 302273, Note_off_c, 8, 66, 64
23, 302370, Note_on_c, 8, 66, 60
23, 302435, Note_off_c, 8, 66, 64
23, 302498, Note_on_c, 8, 66, 78
23, 302625, Note_off_c, 8, 66, 64
23, 302719, Note_on_c, 8, 66, 60
23, 302784, Note_off_c, 8, 66, 64
23, 302872, Note_on_c, 8, 66, 82
23, 303018, Note_off_c, 8, 66, 64
23, 303225, Note_on_c, 8, 71, 82
23, 303354, Note_off_c, 8, 71, 64
23, 303596, Note_on_c, 8, 74, 85
23, 303714, Note_off_c, 8, 74, 64
23, 303947, Note_on_c, 8, 74, 85
23, 304073, Note_off_c, 8, 74, 64
23, 304290, Note_on_c, 8, 73, 70
23, 304433, Note_off_c, 8, 73, 64
23, 304641, Note_on_c, 8, 74, 82
23, 304776, Note_off_c, 8, 74, 64
23, 304996, Note_on_c, 8, 76, 93
23, 305122, Note_on_c, 8, 74, 80
23, 305153, Note_off_c, 8, 76, 64
23, 305205, Note_off_c, 8, 74, 64
23, 305253, Note_on_c, 8, 73, 49
23, 305293, Note_off_c, 8, 73, 64
23, 305379, Note_on_c, 8, 78, 98
23, 305486, Note_on_c, 8, 79, 82
23, 305488, Note_off_c, 8, 78, 64
23, 305554, Note_off_c, 8, 79, 64
23, 305603, Note_on_c, 8, 76, 66
23, 305649, Note_off_c, 8, 76, 64
23, 305729, Note_on_c, 8, 76, 95
23, 305826, Note_on_c, 8, 78, 64
23, 305840, Note_off_c, 8, 76, 64
23, 305909, Note_off_c, 8, 78, 64
23, 305945, Note_on_c, 8, 74, 64
23, 305999, Note_off_c, 8, 74, 64
23, 306076, Note_on_c, 8, 74, 95
23, 306186, Note_on_c, 8, 71, 72
23, 306213, Note_off_c, 8, 74, 64
23, 306301, Note_on_c, 8, 73, 64
23, 306323, Note_off_c, 8, 71, 64
23, 306393, Note_off_c, 8, 73, 64
23, 306438, Note_on_c, 8, 74, 91
23, 306548, Note_on_c, 8, 76, 66
23, 306564, Note_off_c, 8, 74, 64
23, 306618, Note_off_c, 8, 76, 64
23, 306670, Note_on_c, 8, 72, 63
23, 306713, Note_off_c, 8, 72, 64
23, 306800, Note_on_c, 8, 72, 98
23, 306897, Note_on_c, 8, 74, 70
23, 306917, Note_off_c, 8, 72, 64
23, 306974, Note_off_c, 8, 74, 64
23, 307016, Note_on_c, 8, 71, 63
23, 307068, Note_off_c, 8, 71, 64
23, 307147, Note_on_c, 8, 71, 80
23, 307278, Note_off_c, 8, 71, 64
23, 307374, Note_on_c, 8, 71, 66
23, 307433, Note_off_c, 8, 71, 64
23, 307507, Note_on_c, 8, 76, 80
23, 307624, Note_off_c, 8, 76, 64
23, 307730, Note_on_c, 8, 75, 62
23, 307811, Note_off_c, 8, 75, 64
23, 307860, Note_on_c, 8, 76, 78
23, 307991, Note_off_c, 8, 76, 64
23, 308081, Note_on_c, 8, 78, 63
23, 308153, Note_off_c, 8, 78, 64
23, 308227, Note_on_c, 8, 79, 85
23, 308335, Note_on_c, 8, 81, 76
23, 308369, Note_off_c, 8, 79, 64
23, 308402, Note_off_c, 8, 81, 64
23, 308463, Note_on_c, 8, 78, 80
23, 308519, Note_off_c, 8, 78, 64
23, 308594, Note_on_c, 8, 76, 98
23, 308706, Note_on_c, 8, 78, 66
23, 308715, Note_off_c, 8, 76, 64
23, 308778, Note_off_c, 8, 78, 64
23, 308830, Note_on_c, 8, 74, 78
23, 308880, Note_off_c, 8, 74, 64
23, 308958, Note_on_c, 8, 73, 98
23, 309064, Note_on_c, 8, 74, 78
23, 309087, Note_off_c, 8, 73, 64
23, 309127, Note_off_c, 8, 74, 64
23, 309181, Note_on_c, 8, 71, 78
23, 309235, Note_off_c, 8, 71, 64
23, 309314, Note_on_c, 8, 76, 102
23, 309435, Note_off_c, 8, 76, 64
23, 309539, Note_on_c, 8, 73, 56
23, 309617, Note_off_c, 8, 73, 64
23, 309671, Note_on_c, 8, 66, 63
23, 309791, Note_off_c, 8, 66, 64
23, 309906, Note_on_c, 8, 76, 66
23, 309993, Note_off_c, 8, 76, 64
23, 310045, Note_on_c, 8, 74, 85
23, 310171, Note_off_c, 8, 74, 64
23, 310268, Note_on_c, 8, 79, 80
23, 310329, Note_off_c, 8, 79, 64
23, 310401, Note_on_c, 8, 78, 102
23, 310515, Note_on_c, 8, 76, 85
23, 310555, Note_off_c, 8, 78, 64
23, 310635, Note_on_c, 8, 74, 74
23, 310648, Note_off_c, 8, 76, 64
23, 310711, Note_off_c, 8, 74, 64
23, 310754, Note_on_c, 8, 73, 98
23, 310871, Note_on_c, 8, 74, 68
23, 310875, Note_off_c, 8, 73, 64
23, 310949, Note_off_c, 8, 74, 64
23, 310972, Note_on_c, 8, 71, 70
23, 311028, Note_off_c, 8, 71, 64
23, 311117, Note_on_c, 8, 66, 91
23, 311213, Note_off_c, 8, 66, 64
23, 311213, Note_on_c, 8, 71, 66
23, 311312, Note_off_c, 8, 71, 64
23, 311337, Note_on_c, 8, 70, 76
23, 311395, Note_off_c, 8, 70, 64
23, 311481, Note_on_c, 8, 71, 70
23, 313703, Note_off_c, 8, 71, 64
23, 333116, Note_on_c, 8, 62, 91
23, 333218, Note_on_c, 8, 66, 66
23, 333252, Note_off_c, 8, 62, 64
23, 333317, Note_off_c, 8, 66, 64
23, 333332, Note_on_c, 8, 67, 82
23, 333407, Note_off_c, 8, 67, 64
23, 333463, Note_on_c, 8, 67, 102
23, 333575, Note_on_c, 8, 69, 70
23, 333598, Note_off_c, 8, 67, 64
23, 333657, Note_off_c, 8, 69, 64
23, 333681, Note_on_c, 8, 65, 60
23, 333737, Note_off_c, 8, 65, 64
23, 333810, Note_on_c, 8, 65, 87
23, 333917, Note_on_c, 8, 67, 68
23, 333936, Note_off_c, 8, 65, 64
23, 334005, Note_off_c, 8, 67, 64
23, 334030, Note_on_c, 8, 64, 60
23, 334106, Note_off_c, 8, 64, 64
23, 334174, Note_on_c, 8, 64, 87
23, 334268, Note_on_c, 8, 67, 82
23, 334313, Note_off_c, 8, 64, 64
23, 334394, Note_on_c, 8, 69, 85
23, 334415, Note_off_c, 8, 67, 64
23, 334489, Note_off_c, 8, 69, 64
23, 334525, Note_on_c, 8, 69, 100
23, 334642, Note_on_c, 8, 71, 70
23, 334658, Note_off_c, 8, 69, 64
23, 334737, Note_off_c, 8, 71, 64
23, 334754, Note_on_c, 8, 67, 60
23, 334818, Note_off_c, 8, 67, 64
23, 334883, Note_on_c, 8, 67, 82
23, 334995, Note_on_c, 8, 69, 63
23, 335024, Note_off_c, 8, 67, 64
23, 335090, Note_off_c, 8, 69, 64
23, 335114, Note_on_c, 8, 66, 60
23, 335166, Note_off_c, 8, 66, 64
23, 335250, Note_on_c, 8, 66, 89
23, 335351, Note_on_c, 8, 69, 85
23, 335380, Note_off_c, 8, 66, 64
23, 335479, Note_on_c, 8, 71, 85
23, 335511, Note_off_c, 8, 69, 64
23, 335569, Note_off_c, 8, 71, 64
23, 335613, Note_on_c, 8, 71, 102
23, 335735, Note_on_c, 8, 72, 68
23, 335751, Note_off_c, 8, 71, 64
23, 335817, Note_off_c, 8, 72, 64
23, 335846, Note_on_c, 8, 69, 57
23, 335911, Note_off_c, 8, 69, 64
23, 335979, Note_on_c, 8, 69, 89
23, 336089, Note_on_c, 8, 71, 68
23, 336113, Note_off_c, 8, 69, 64
23, 336181, Note_off_c, 8, 71, 64
23, 336195, Note_on_c, 8, 67, 70
23, 336282, Note_off_c, 8, 67, 64
23, 336339, Note_on_c, 8, 67, 95
23, 336449, Note_on_c, 8, 69, 87
23, 336484, Note_off_c, 8, 67, 64
23, 336559, Note_on_c, 8, 71, 85
23, 336577, Note_off_c, 8, 69, 64
23, 336642, Note_off_c, 8, 71, 64
23, 336698, Note_on_c, 8, 71, 91
23, 337675, Note_off_c, 8, 71, 64
23, 337740, Note_on_c, 8, 69, 72
23, 337907, Note_off_c, 8, 69, 64
23, 338114, Note_on_c, 8, 72, 87
23, 338510, Note_off_c, 8, 72, 64
23, 338589, Note_on_c, 8, 66, 82
23, 338699, Note_on_c, 8, 67, 95
23, 338726, Note_off_c, 8, 66, 64
23, 338796, Note_off_c, 8, 67, 64
23, 338813, Note_on_c, 8, 69, 98
23, 338930, Note_on_c, 8, 78, 82
23, 338957, Note_off_c, 8, 69, 64
23, 339030, Note_off_c, 8, 78, 64
23, 339048, Note_on_c, 8, 67, 82
23, 339144, Note_off_c, 8, 67, 64
23, 339185, Note_on_c, 8, 69, 85
23, 339300, Note_off_c, 8, 69, 64
23, 339304, Note_on_c, 8, 67, 82
23, 339399, Note_off_c, 8, 67, 64
23, 339419, Note_on_c, 8, 66, 72
23, 339494, Note_off_c, 8, 66, 64
23, 339558, Note_on_c, 8, 68, 91
23, 339706, Note_off_c, 8, 68, 64
23, 339903, Note_on_c, 8, 71, 82
23, 340042, Note_off_c, 8, 71, 64
23, 340278, Note_on_c, 8, 76, 95
23, 340708, Note_off_c, 8, 76, 64
23, 340767, Note_on_c, 8, 64, 82
23, 340868, Note_on_c, 8, 66, 72
23, 340890, Note_off_c, 8, 64, 64
23, 340965, Note_off_c, 8, 66, 64
23, 340994, Note_on_c, 8, 67, 95
23, 341115, Note_on_c, 8, 76, 82
23, 341120, Note_off_c, 8, 67, 64
23, 341201, Note_off_c, 8, 76, 64
23, 341228, Note_on_c, 8, 66, 70
23, 341324, Note_off_c, 8, 66, 64
23, 341363, Note_on_c, 8, 67, 95
23, 341478, Note_on_c, 8, 66, 80
23, 341498, Note_off_c, 8, 67, 64
23, 341573, Note_off_c, 8, 66, 64
23, 341601, Note_on_c, 8, 64, 82
23, 341709, Note_off_c, 8, 64, 64
23, 341723, Note_on_c, 8, 66, 68
23, 341849, Note_off_c, 8, 66, 64
23, 342078, Note_on_c, 8, 69, 82
23, 342218, Note_off_c, 8, 69, 64
23, 342436, Note_on_c, 8, 74, 89
23, 342821, Note_off_c, 8, 74, 64
23, 342920, Note_on_c, 8, 66, 78
23, 343034, Note_on_c, 8, 67, 82
23, 343070, Note_off_c, 8, 66, 64
23, 343138, Note_off_c, 8, 67, 64
23, 343170, Note_on_c, 8, 69, 89
23, 343287, Note_on_c, 8, 66, 74
23, 343289, Note_off_c, 8, 69, 64
23, 343372, Note_off_c, 8, 66, 64
23, 343401, Note_on_c, 8, 67, 68
23, 343462, Note_off_c, 8, 67, 64
23, 343527, Note_on_c, 8, 62, 80
23, 343626, Note_on_c, 8, 66, 64
23, 343653, Note_off_c, 8, 62, 64
23, 343716, Note_off_c, 8, 66, 64
23, 343754, Note_on_c, 8, 67, 78
23, 343833, Note_off_c, 8, 67, 64
23, 343883, Note_on_c, 8, 76, 68
23, 343986, Note_off_c, 8, 76, 64
23, 344000, Note_on_c, 8, 66, 78
23, 344105, Note_on_c, 8, 67, 80
23, 344115, Note_off_c, 8, 66, 64
23, 344204, Note_off_c, 8, 67, 64
23, 344234, Note_on_c, 8, 69, 89
23, 344355, Note_on_c, 8, 66, 60
23, 344358, Note_off_c, 8, 69, 64
23, 344468, Note_off_c, 8, 66, 64
23, 344474, Note_on_c, 8, 67, 66
23, 344578, Note_off_c, 8, 67, 64
23, 344609, Note_on_c, 8, 64, 85
23, 344718, Note_on_c, 8, 66, 64
23, 344758, Note_off_c, 8, 64, 64
23, 344808, Note_off_c, 8, 66, 64
23, 344838, Note_on_c, 8, 67, 82
23, 344920, Note_off_c, 8, 67, 64
23, 344978, Note_on_c, 8, 70, 98
23, 345082, Note_on_c, 8, 69, 72
23, 345114, Note_off_c, 8, 70, 64
23, 345199, Note_off_c, 8, 69, 64
23, 345210, Note_on_c, 8, 67, 58
23, 345275, Note_off_c, 8, 67, 64
23, 345336, Note_on_c, 8, 67, 89
23, 345458, Note_on_c, 8, 65, 70
23, 345482, Note_off_c, 8, 67, 64
23, 345546, Note_off_c, 8, 65, 64
23, 345568, Note_on_c, 8, 64, 66
23, 345650, Note_off_c, 8, 64, 64
23, 345705, Note_on_c, 8, 64, 95
23, 345816, Note_on_c, 8, 65, 70
23, 345845, Note_off_c, 8, 64, 64
23, 345923, Note_off_c, 8, 65, 64
23, 345932, Note_on_c, 8, 67, 74
23, 346014, Note_off_c, 8, 67, 64
23, 346059, Note_on_c, 8, 65, 87
23, 346144, Note_off_c, 8, 65, 64
23, 346176, Note_on_c, 8, 62, 87
23, 346284, Note_on_c, 8, 64, 82
23, 346311, Note_off_c, 8, 62, 64
23, 346409, Note_off_c, 8, 64, 64
23, 346428, Note_on_c, 8, 65, 87
23, 346538, Note_on_c, 8, 67, 74
23, 346549, Note_off_c, 8, 65, 64
23, 346626, Note_off_c, 8, 67, 64
23, 346652, Note_on_c, 8, 64, 68
23, 346715, Note_off_c, 8, 64, 64
23, 346772, Note_on_c, 8, 65, 87
23, 346884, Note_on_c, 8, 64, 82
23, 346898, Note_off_c, 8, 65, 64
23, 346983, Note_off_c, 8, 64, 64
23, 346992, Note_on_c, 8, 62, 80
23, 347060, Note_off_c, 8, 62, 64
23, 347130, Note_on_c, 8, 61, 89
23, 347235, Note_on_c, 8, 64, 70
23, 347251, Note_off_c, 8, 61, 64
23, 347352, Note_on_c, 8, 69, 89
23, 347370, Note_off_c, 8, 64, 64
23, 347442, Note_off_c, 8, 69, 64
23, 347483, Note_on_c, 8, 73, 102
23, 347609, Note_on_c, 8, 74, 78
23, 347642, Note_off_c, 8, 73, 64
23, 347723, Note_off_c, 8, 74, 64
23, 347730, Note_on_c, 8, 76, 80
23, 347805, Note_off_c, 8, 76, 64
23, 347858, Note_on_c, 8, 69, 100
23, 347951, Note_on_c, 8, 74, 64
23, 347967, Note_off_c, 8, 69, 64
23, 348061, Note_on_c, 8, 73, 78
23, 348075, Note_off_c, 8, 74, 64
23, 348144, Note_off_c, 8, 73, 64
23, 348205, Note_on_c, 8, 74, 80
23, 350401, Note_off_c, 8, 74, 64
23, 350478, Note_on_c, 8, 71, 82
23, 350590, Note_on_c, 8, 73, 68
23, 350626, Note_off_c, 8, 71, 64
23, 350711, Note_off_c, 8, 73, 64
23, 350714, Note_on_c, 8, 74, 82
23, 350833, Note_on_c, 8, 76, 78
23, 350855, Note_off_c, 8, 74, 64
23, 350918, Note_off_c, 8, 76, 64
23, 350952, Note_on_c, 8, 73, 66
23, 351020, Note_off_c, 8, 73, 64
23, 351083, Note_on_c, 8, 74, 105
23, 351198, Note_on_c, 8, 73, 82
23, 351211, Note_off_c, 8, 74, 64
23, 351305, Note_on_c, 8, 71, 74
23, 351308, Note_off_c, 8, 73, 64
23, 351391, Note_off_c, 8, 71, 64
23, 351440, Note_on_c, 8, 73, 95
23, 351557, Note_on_c, 8, 74, 82
23, 351575, Note_off_c, 8, 73, 64
23, 351675, Note_on_c, 8, 76, 80
23, 351695, Note_off_c, 8, 74, 64
23, 351789, Note_off_c, 8, 76, 64
23, 351794, Note_on_c, 8, 78, 93
23, 351904, Note_on_c, 8, 79, 74
23, 351935, Note_off_c, 8, 78, 64
23, 352007, Note_off_c, 8, 79, 64
23, 352026, Note_on_c, 8, 76, 68
23, 352085, Note_off_c, 8, 76, 64
23, 352143, Note_on_c, 8, 76, 100
23, 352255, Note_on_c, 8, 78, 57
23, 352279, Note_off_c, 8, 76, 64
23, 352365, Note_off_c, 8, 78, 64
23, 352372, Note_on_c, 8, 74, 70
23, 352439, Note_off_c, 8, 74, 64
23, 352509, Note_on_c, 8, 74, 93
23, 352926, Note_off_c, 8, 74, 64
23, 352997, Note_on_c, 8, 67, 85
23, 353105, Note_on_c, 8, 66, 93
23, 353150, Note_off_c, 8, 67, 64
23, 353214, Note_off_c, 8, 66, 64
23, 353250, Note_on_c, 8, 64, 98
23, 353353, Note_off_c, 8, 64, 64
23, 353355, Note_on_c, 8, 74, 85
23, 353463, Note_off_c, 8, 74, 64
23, 353463, Note_on_c, 8, 73, 58
23, 353520, Note_off_c, 8, 73, 64
23, 375250, Note_on_c, 8, 74, 95
23, 375530, Note_off_c, 8, 74, 64
23, 375548, Note_on_c, 8, 73, 78
23, 375584, Note_off_c, 8, 73, 64
23, 375604, Note_on_c, 8, 74, 87
23, 375637, Note_off_c, 8, 74, 64
23, 375658, Note_on_c, 8, 69, 80
23, 375700, Note_off_c, 8, 69, 64
23, 375725, Note_on_c, 8, 78, 102
23, 376262, Note_off_c, 8, 78, 64
23, 376287, Note_on_c, 8, 76, 91
23, 376332, Note_off_c, 8, 76, 64
23, 376349, Note_on_c, 8, 74, 87
23, 376390, Note_off_c, 8, 74, 64
23, 376407, Note_on_c, 8, 76, 98
23, 376440, Note_off_c, 8, 76, 64
23, 376465, Note_on_c, 8, 78, 105
23, 376506, Note_off_c, 8, 78, 64
23, 376519, Note_on_c, 8, 76, 87
23, 376555, Note_off_c, 8, 76, 64
23, 376575, Note_on_c, 8, 78, 95
23, 376609, Note_off_c, 8, 78, 64
23, 376616, Note_on_c, 8, 74, 91
23, 376660, Note_off_c, 8, 74, 64
23, 376681, Note_on_c, 8, 81, 95
23, 377179, Note_off_c, 8, 81, 64
23, 377217, Note_on_c, 8, 79, 89
23, 377254, Note_off_c, 8, 79, 64
23, 377272, Note_on_c, 8, 78, 87
23, 377310, Note_off_c, 8, 78, 64
23, 377333, Note_on_c, 8, 79, 91
23, 377369, Note_off_c, 8, 79, 64
23, 377391, Note_on_c, 8, 81, 85
23, 377431, Note_off_c, 8, 81, 64
23, 377451, Note_on_c, 8, 79, 98
23, 377490, Note_off_c, 8, 79, 64
23, 377506, Note_on_c, 8, 81, 80
23, 377550, Note_off_c, 8, 81, 64
23, 377561, Note_on_c, 8, 78, 95
23, 377597, Note_off_c, 8, 78, 64
23, 377633, Note_on_c, 8, 71, 95
23, 377715, Note_off_c, 8, 71, 64
23, 377807, Note_on_c, 8, 81, 85
23, 377853, Note_off_c, 8, 81, 64
23, 377873, Note_on_c, 8, 83, 95
23, 377956, Note_off_c, 8, 83, 64
23, 378043, Note_on_c, 8, 78, 89
23, 378076, Note_off_c, 8, 78, 64
23, 378112, Note_on_c, 8, 78, 98
23, 378243, Note_on_c, 8, 79, 85
23, 378244, Note_off_c, 8, 78, 64
23, 379155, Note_off_c, 8, 79, 64
23, 379190, Note_on_c, 8, 69, 82
23, 379238, Note_off_c, 8, 69, 64
23, 379245, Note_on_c, 8, 71, 80
23, 379295, Note_off_c, 8, 71, 64
23, 379304, Note_on_c, 8, 73, 82
23, 379350, Note_off_c, 8, 73, 64
23, 379366, Note_on_c, 8, 74, 85
23, 379421, Note_off_c, 8, 74, 64
23, 379423, Note_on_c, 8, 76, 85
23, 379469, Note_off_c, 8, 76, 64
23, 379484, Note_on_c, 8, 78, 93
23, 379523, Note_off_c, 8, 78, 64
23, 379538, Note_on_c, 8, 79, 95
23, 379595, Note_off_c, 8, 79, 64
23, 379599, Note_on_c, 8, 78, 100
23, 379641, Note_off_c, 8, 78, 64
23, 379661, Note_on_c, 8, 76, 82
23, 379715, Note_on_c, 8, 78, 95
23, 379722, Note_off_c, 8, 76, 64
23, 379749, Note_off_c, 8, 78, 64
23, 379771, Note_on_c, 8, 79, 95
23, 379820, Note_off_c, 8, 79, 64
23, 379828, Note_on_c, 8, 76, 85
23, 379879, Note_off_c, 8, 76, 64
23, 379890, Note_on_c, 8, 81, 85
23, 379938, Note_off_c, 8, 81, 64
23, 379946, Note_on_c, 8, 76, 87
23, 379986, Note_off_c, 8, 76, 64
23, 380007, Note_on_c, 8, 78, 95
23, 380068, Note_off_c, 8, 78, 64
23, 380072, Note_on_c, 8, 81, 89
23, 380114, Note_off_c, 8, 81, 64
23, 380134, Note_on_c, 8, 74, 93
23, 380187, Note_off_c, 8, 74, 64
23, 380190, Note_on_c, 8, 76, 87
23, 380246, Note_off_c, 8, 76, 64
23, 380248, Note_on_c, 8, 78, 91
23, 380298, Note_off_c, 8, 78, 64
23, 380312, Note_on_c, 8, 79, 85
23, 380361, Note_off_c, 8, 79, 64
23, 380375, Note_on_c, 8, 81, 89
23, 380425, Note_off_c, 8, 81, 64
23, 380433, Note_on_c, 8, 83, 91
23, 380475, Note_off_c, 8, 83, 64
23, 380490, Note_on_c, 8, 84, 100
23, 380544, Note_off_c, 8, 84, 64
23, 380553, Note_on_c, 8, 83, 87
23, 380597, Note_off_c, 8, 83, 64
23, 380612, Note_on_c, 8, 81, 89
23, 380660, Note_off_c, 8, 81, 64
23, 380670, Note_on_c, 8, 83, 100
23, 380707, Note_off_c, 8, 83, 64
23, 380727, Note_on_c, 8, 84, 89
23, 380768, Note_off_c, 8, 84, 64
23, 380782, Note_on_c, 8, 81, 89
23, 380829, Note_off_c, 8, 81, 64
23, 380845, Note_on_c, 8, 86, 95
23, 380890, Note_off_c, 8, 86, 64
23, 380907, Note_on_c, 8, 81, 91
23, 380944, Note_off_c, 8, 81, 64
23, 380974, Note_on_c, 8, 83, 100
23, 381750, Note_off_c, 8, 83, 64
23, 381766, Note_on_c, 8, 81, 85
23, 381806, Note_off_c, 8, 81, 64
23, 381828, Note_on_c, 8, 83, 98
23, 381867, Note_off_c, 8, 83, 64
23, 381881, Note_on_c, 8, 79, 98
23, 381922, Note_off_c, 8, 79, 64
23, 381947, Note_on_c, 8, 81, 102
23, 382518, Note_off_c, 8, 81, 64
23, 382559, Note_on_c, 8, 86, 100
23, 382613, Note_off_c, 8, 86, 64
23, 382613, Note_on_c, 8, 85, 80
23, 382658, Note_off_c, 8, 85, 64
23, 382667, Note_on_c, 8, 83, 87
23, 382720, Note_off_c, 8, 83, 64
23, 382732, Note_on_c, 8, 81, 98
23, 382778, Note_off_c, 8, 81, 64
23, 382795, Note_on_c, 8, 79, 87
23, 382846, Note_on_c, 8, 78, 68
23, 382854, Note_off_c, 8, 79, 64
23, 382888, Note_off_c, 8, 78, 64
23, 382913, Note_on_c, 8, 79, 95
23, 383222, Note_off_c, 8, 79, 64
23, 383329, Note_on_c, 8, 79, 89
23, 383365, Note_off_c, 8, 79, 64
23, 383388, Note_on_c, 8, 79, 100
23, 383492, Note_off_c, 8, 79, 64
23, 383567, Note_on_c, 8, 78, 72
23, 383594, Note_on_c, 8, 76, 85
23, 383601, Note_off_c, 8, 78, 64
23, 383631, Note_off_c, 8, 76, 64
23, 383631, Note_on_c, 8, 81, 100
23, 383729, Note_off_c, 8, 81, 64
23, 383820, Note_on_c, 8, 76, 85
23, 383861, Note_off_c, 8, 76, 64
23, 383880, Note_on_c, 8, 78, 102
23, 383982, Note_off_c, 8, 78, 64
23, 384122, Note_on_c, 8, 74, 95
23, 384218, Note_off_c, 8, 74, 64
23, 384360, Note_on_c, 8, 71, 87
23, 384863, Note_off_c, 8, 71, 64
23, 384911, Note_on_c, 8, 71, 89
23, 384962, Note_off_c, 8, 71, 64
23, 384966, Note_on_c, 8, 73, 63
23, 385007, Note_off_c, 8, 73, 64
23, 385024, Note_on_c, 8, 74, 89
23, 385062, Note_off_c, 8, 74, 64
23, 385086, Note_on_c, 8, 76, 82
23, 385123, Note_off_c, 8, 76, 64
23, 385144, Note_on_c, 8, 74, 91
23, 385181, Note_off_c, 8, 74, 64
23, 385201, Note_on_c, 8, 76, 74
23, 385250, Note_off_c, 8, 76, 64
23, 385256, Note_on_c, 8, 73, 98
23, 385289, Note_off_c, 8, 73, 64
23, 385321, Note_on_c, 8, 66, 91
23, 385421, Note_off_c, 8, 66, 64
23, 385503, Note_on_c, 8, 76, 91
23, 385541, Note_off_c, 8, 76, 64
23, 385561, Note_on_c, 8, 74, 102
23, 385661, Note_off_c, 8, 74, 64
23, 385734, Note_on_c, 8, 73, 95
23, 385768, Note_off_c, 8, 73, 64
23, 385798, Note_on_c, 8, 73, 102
23, 385918, Note_off_c, 8, 73, 64
23, 385923, Note_on_c, 8, 74, 95
23, 386069, Note_off_c, 8, 74, 64
23, 386098, Note_on_c, 8, 73, 93
23, 386138, Note_off_c, 8, 73, 64
23, 386153, Note_on_c, 8, 74, 100
23, 386190, Note_off_c, 8, 74, 64
23, 386214, Note_on_c, 8, 71, 95
23, 386248, Note_off_c, 8, 71, 64
23, 386281, Note_on_c, 8, 69, 107
23, 386399, Note_off_c, 8, 69, 64
23, 386399, Note_on_c, 8, 67, 82
23, 386795, Note_off_c, 8, 67, 64
23, 386817, Note_on_c, 8, 66, 95
23, 386860, Note_off_c, 8, 66, 64
23, 386874, Note_on_c, 8, 67, 82
23, 386912, Note_off_c, 8, 67, 64
23, 386930, Note_on_c, 8, 64, 82
23, 386978, Note_off_c, 8, 64, 64
23, 386995, Note_on_c, 8, 66, 87
23, 387092, Note_off_c, 8, 66, 64
23, 387174, Note_on_c, 8, 67, 80
23, 387219, Note_off_c, 8, 67, 64
23, 387236, Note_on_c, 8, 69, 87
23, 387331, Note_off_c, 8, 69, 64
23, 387408, Note_on_c, 8, 71, 82
23, 387451, Note_off_c, 8, 71, 64
23, 387469, Note_on_c, 8, 73, 82
23, 387552, Note_off_c, 8, 73, 64
23, 387643, Note_on_c, 8, 74, 85
23, 387680, Note_off_c, 8, 74, 64
23, 387714, Note_on_c, 8, 64, 85
23, 387981, Note_off_c, 8, 64, 64
23, 388008, Note_on_c, 8, 62, 85
23, 388050, Note_off_c, 8, 62, 64
23, 388062, Note_on_c, 8, 64, 87
23, 388104, Note_off_c, 8, 64, 64
23, 388126, Note_on_c, 8, 61, 87
23, 388174, Note_off_c, 8, 61, 64
23, 388200, Note_on_c, 8, 67, 91
23, 388472, Note_off_c, 8, 67, 64
23, 388489, Note_on_c, 8, 66, 76
23, 388530, Note_off_c, 8, 66, 64
23, 388541, Note_on_c, 8, 67, 85
23, 388580, Note_off_c, 8, 67, 64
23, 388594, Note_on_c, 8, 64, 85
23, 388637, Note_off_c, 8, 64, 64
23, 388657, Note_on_c, 8, 66, 98
23, 388941, Note_off_c, 8, 66, 64
23, 388967, Note_on_c, 8, 64, 93
23, 389004, Note_off_c, 8, 64, 64
23, 389022, Note_on_c, 8, 66, 100
23, 389061, Note_off_c, 8, 66, 64
23, 389070, Note_on_c, 8, 62, 89
23, 389123, Note_off_c, 8, 62, 64
23, 389139, Note_on_c, 8, 69, 100
23, 389413, Note_off_c, 8, 69, 64
23, 389437, Note_on_c, 8, 67, 89
23, 389475, Note_off_c, 8, 67, 64
23, 389493, Note_on_c, 8, 69, 82
23, 389533, Note_off_c, 8, 69, 64
23, 389550, Note_on_c, 8, 66, 91
23, 389588, Note_off_c, 8, 66, 64
23, 389611, Note_on_c, 8, 67, 98
23, 389903, Note_off_c, 8, 67, 64
23, 389925, Note_on_c, 8, 66, 85
23, 389960, Note_off_c, 8, 66, 64
23, 389981, Note_on_c, 8, 67, 80
23, 390009, Note_off_c, 8, 67, 64
23, 390034, Note_on_c, 8, 64, 76
23, 390085, Note_off_c, 8, 64, 64
23, 390106, Note_on_c, 8, 70, 82
23, 390382, Note_off_c, 8, 70, 64
23, 390404, Note_on_c, 8, 69, 89
23, 390442, Note_off_c, 8, 69, 64
23, 390459, Note_on_c, 8, 70, 89
23, 390495, Note_off_c, 8, 70, 64
23, 390511, Note_on_c, 8, 67, 89
23, 390551, Note_off_c, 8, 67, 64
23, 390576, Note_on_c, 8, 69, 100
23, 390869, Note_off_c, 8, 69, 64
23, 390888, Note_on_c, 8, 67, 85
23, 390925, Note_off_c, 8, 67, 64
23, 390942, Note_on_c, 8, 69, 76
23, 390979, Note_off_c, 8, 69, 64
23, 390998, Note_on_c, 8, 65, 93
23, 391035, Note_off_c, 8, 65, 64
23, 391062, Note_on_c, 8, 67, 98
23, 391348, Note_off_c, 8, 67, 64
23, 391377, Note_on_c, 8, 65, 95
23, 391411, Note_off_c, 8, 65, 64
23, 391433, Note_on_c, 8, 67, 91
23, 391470, Note_off_c, 8, 67, 64
23, 391486, Note_on_c, 8, 64, 95
23, 391525, Note_off_c, 8, 64, 64
23, 391551, Note_on_c, 8, 65, 93
23, 391832, Note_off_c, 8, 65, 64
23, 391858, Note_on_c, 8, 64, 78
23, 391900, Note_off_c, 8, 64, 64
23, 391918, Note_on_c, 8, 65, 100
23, 391950, Note_off_c, 8, 65, 64
23, 391972, Note_on_c, 8, 62, 93
23, 392031, Note_off_c, 8, 62, 64
23, 392046, Note_on_c, 8, 72, 95
23, 392553, Note_off_c, 8, 72, 64
23, 392570, Note_on_c, 8, 71, 95
23, 392615, Note_off_c, 8, 71, 64
23, 392625, Note_on_c, 8, 72, 85
23, 392664, Note_off_c, 8, 72, 64
23, 392679, Note_on_c, 8, 69, 95
23, 392731, Note_off_c, 8, 69, 64
23, 392748, Note_on_c, 8, 71, 102
23, 392854, Note_off_c, 8, 71, 64
23, 392922, Note_on_c, 8, 73, 95
23, 392958, Note_off_c, 8, 73, 64
23, 392983, Note_on_c, 8, 74, 98
23, 393324, Note_off_c, 8, 74, 64
23, 393408, Note_on_c, 8, 76, 89
23, 393458, Note_off_c, 8, 76, 64
23, 393465, Note_on_c, 8, 69, 100
23, 393562, Note_off_c, 8, 69, 64
23, 393645, Note_on_c, 8, 79, 95
23, 393691, Note_off_c, 8, 79, 64
23, 393711, Note_on_c, 8, 78, 102
23, 393815, Note_off_c, 8, 78, 64
23, 393870, Note_on_c, 8, 76, 87
23, 393905, Note_off_c, 8, 76, 64
23, 393946, Note_on_c, 8, 74, 102
23, 394020, Note_on_c, 8, 73, 82
23, 394022, Note_off_c, 8, 74, 64
23, 394049, Note_on_c, 8, 74, 80
23, 394050, Note_off_c, 8, 73, 64
23, 394080, Note_off_c, 8, 74, 64
23, 394084, Note_on_c, 8, 73, 56
23, 394105, Note_on_c, 8, 74, 80
23, 394110, Note_off_c, 8, 73, 64
23, 394130, Note_on_c, 8, 73, 64
23, 394134, Note_off_c, 8, 74, 64
23, 394157, Note_on_c, 8, 74, 82
23, 394159, Note_off_c, 8, 73, 64
23, 394180, Note_on_c, 8, 73, 89
23, 394184, Note_off_c, 8, 74, 64
23, 394292, Note_off_c, 8, 73, 64
23, 394358, Note_on_c, 8, 74, 89
23, 394394, Note_off_c, 8, 74, 64
23, 394433, Note_on_c, 8, 74, 102
23, 395477, Note_off_c, 8, 74, 64
23, 395477, End_track
24, 0, Start_track
24, 0, Title_t, "Violin"
24, 0, Program_c, 10, 40
24, 0, Control_c, 10, 7, 100
24, 24653, Note_on_c, 10, 74, 89
24, 24688, Note_off_c, 10, 74, 64
24, 24708, Note_on_c, 10, 74, 102
24, 24779, Note_off_c, 10, 74, 64
24, 24892, Note_on_c, 10, 69, 85
24, 24932, Note_off_c, 10, 69, 64
24, 24952, Note_on_c, 10, 66, 85
24, 25455, Note_off_c, 10, 66, 64
24, 25609, Note_on_c, 10, 74, 93
24, 25645, Note_off_c, 10, 74, 64
24, 25666, Note_on_c, 10, 74, 100
24, 25745, Note_off_c, 10, 74, 64
24, 25840, Note_on_c, 10, 71, 87
24, 25879, Note_off_c, 10, 71, 64
24, 25904, Note_on_c, 10, 69, 85
24, 26414, Note_off_c, 10, 69, 64
24, 26556, Note_on_c, 10, 78, 91
24, 26590, Note_off_c, 10, 78, 64
24, 26615, Note_on_c, 10, 78, 93
24, 26691, Note_off_c, 10, 78, 64
24, 26800, Note_on_c, 10, 74, 82
24, 26833, Note_off_c, 10, 74, 64
24, 26864, Note_on_c, 10, 76, 100
24, 27186, Note_off_c, 10, 76, 64
24, 27300, Note_on_c, 10, 76, 85
24, 27335, Note_off_c, 10, 76, 64
24, 27352, Note_on_c, 10, 76, 95
24, 27444, Note_off_c, 10, 76, 64
24, 27593, Note_on_c, 10, 73, 98
24, 27679, Note_off_c, 10, 73, 64
24, 27837, Note_on_c, 10, 74, 95
24, 27923, Note_off_c, 10, 74, 64
24, 28016, Note_on_c, 10, 69, 85
24, 28050, Note_off_c, 10, 69, 64
24, 28071, Note_on_c, 10, 69, 89
24, 28158, Note_off_c, 10, 69, 64
24, 28255, Note_on_c, 10, 66, 80
24, 28293, Note_off_c, 10, 66, 64
24, 28318, Note_on_c, 10, 62, 93
24, 28813, Note_off_c, 10, 62, 64
24, 28970, Note_on_c, 10, 81, 85
24, 29003, Note_off_c, 10, 81, 64
24, 29025, Note_on_c, 10, 81, 100
24, 29102, Note_off_c, 10, 81, 64
24, 29200, Note_on_c, 10, 78, 72
24, 29242, Note_off_c, 10, 78, 64
24, 29262, Note_on_c, 10, 75, 100
24, 29349, Note_off_c, 10, 75, 64
24, 29445, Note_on_c, 10, 78, 82
24, 29484, Note_off_c, 10, 78, 64
24, 29501, Note_on_c, 10, 71, 98
24, 29585, Note_off_c, 10, 71, 64
24, 29692, Note_on_c, 10, 75, 95
24, 29723, Note_off_c, 10, 75, 64
24, 29750, Note_on_c, 10, 75, 98
24, 29878, Note_off_c, 10, 75, 64
24, 29883, Note_on_c, 10, 76, 70
24, 30252, Note_off_c, 10, 76, 64
24, 30432, Note_on_c, 10, 67, 78
24, 30474, Note_off_c, 10, 67, 64
24, 30492, Note_on_c, 10, 69, 91
24, 30570, Note_off_c, 10, 69, 64
24, 30656, Note_on_c, 10, 66, 78
24, 30697, Note_off_c, 10, 66, 64
24, 30720, Note_on_c, 10, 67, 80
24, 31033, Note_off_c, 10, 67, 64
24, 31133, Note_on_c, 10, 67, 95
24, 31176, Note_off_c, 10, 67, 64
24, 31197, Note_on_c, 10, 71, 85
24, 31226, Note_on_c, 10, 69, 87
24, 31233, Note_off_c, 10, 71, 64
24, 31252, Note_on_c, 10, 71, 80
24, 31286, Note_off_c, 10, 71, 64
24, 31322, Note_off_c, 10, 69, 64
24, 31385, Note_on_c, 10, 67, 82
24, 31419, Note_off_c, 10, 67, 64
24, 31435, Note_on_c, 10, 69, 95
24, 31523, Note_off_c, 10, 69, 64
24, 31626, Note_on_c, 10, 71, 85
24, 31675, Note_on_c, 10, 64, 95
24, 31680, Note_off_c, 10, 71, 64
24, 31777, Note_off_c, 10, 64, 64
24, 31850, Note_on_c, 10, 76, 91
24, 31887, Note_off_c, 10, 76, 64
24, 31908, Note_on_c, 10, 76, 98
24, 31997, Note_off_c, 10, 76, 64
24, 32086, Note_on_c, 10, 73, 82
24, 32125, Note_off_c, 10, 73, 64
24, 32146, Note_on_c, 10, 69, 85
24, 32673, Note_off_c, 10, 69, 64
24, 32805, Note_on_c, 10, 73, 80
24, 32833, Note_off_c, 10, 73, 64
24, 32855, Note_on_c, 10, 73, 98
24, 32930, Note_off_c, 10, 73, 64
24, 33029, Note_on_c, 10, 69, 74
24, 33063, Note_off_c, 10, 69, 64
24, 33094, Note_on_c, 10, 69, 89
24, 33623, Note_off_c, 10, 69, 64
24, 33764, Note_on_c, 10, 76, 85
24, 33801, Note_off_c, 10, 76, 64
24, 33821, Note_on_c, 10, 76, 91
24, 33895, Note_off_c, 10, 76, 64
24, 33992, Note_on_c, 10, 68, 85
24, 34033, Note_off_c, 10, 68, 64
24, 34058, Note_on_c, 10, 69, 82
24, 34336, Note_off_c, 10, 69, 64
24, 34483, Note_on_c, 10, 69, 89
24, 34521, Note_off_c, 10, 69, 64
24, 34545, Note_on_c, 10, 71, 89
24, 34841, Note_off_c, 10, 71, 64
24, 34968, Note_on_c, 10, 71, 89
24, 35000, Note_off_c, 10, 71, 64
24, 35018, Note_on_c, 10, 71, 91
24, 35119, Note_off_c, 10, 71, 64
24, 35266, Note_on_c, 10, 68, 100
24, 35351, Note_off_c, 10, 68, 64
24, 35513, Note_on_c, 10, 64, 82
24, 36006, Note_off_c, 10, 64, 64
24, 36171, Note_on_c, 10, 78, 93
24, 36201, Note_off_c, 10, 78, 64
24, 36230, Note_on_c, 10, 78, 98
24, 36296, Note_off_c, 10, 78, 64
24, 36400, Note_on_c, 10, 74, 89
24, 36442, Note_off_c, 10, 74, 64
24, 36462, Note_on_c, 10, 71, 82
24, 36779, Note_off_c, 10, 71, 64
24, 36888, Note_on_c, 10, 71, 89
24, 36928, Note_off_c, 10, 71, 64
24, 36948, Note_on_c, 10, 73, 95
24, 37051, Note_off_c, 10, 73, 64
24, 37191, Note_on_c, 10, 77, 95
24, 37281, Note_off_c, 10, 77, 64
24, 37432, Note_on_c, 10, 78, 98
24, 37520, Note_off_c, 10, 78, 64
24, 37619, Note_on_c, 10, 73, 87
24, 37653, Note_off_c, 10, 73, 64
24, 37676, Note_on_c, 10, 73, 89
24, 37746, Note_off_c, 10, 73, 64
24, 37849, Note_on_c, 10, 69, 76
24, 37881, Note_off_c, 10, 69, 64
24, 37914, Note_on_c, 10, 69, 91
24, 38438, Note_off_c, 10, 69, 64
24, 38557, Note_on_c, 10, 68, 98
24, 38596, Note_off_c, 10, 68, 64
24, 38617, Note_on_c, 10, 64, 95
24, 38693, Note_off_c, 10, 64, 64
24, 38796, Note_on_c, 10, 68, 74
24, 38838, Note_off_c, 10, 68, 64
24, 38855, Note_on_c, 10, 69, 91
24, 38951, Note_off_c, 10, 69, 64
24, 39035, Note_on_c, 10, 69, 85
24, 39078, Note_off_c, 10, 69, 64
24, 39095, Note_on_c, 10, 71, 91
24, 39198, Note_off_c, 10, 71, 64
24, 39286, Note_on_c, 10, 73, 82
24, 39325, Note_off_c, 10, 73, 64
24, 39348, Note_on_c, 10, 71, 89
24, 39860, Note_off_c, 10, 71, 64
24, 40004, Note_on_c, 10, 80, 82
24, 40038, Note_off_c, 10, 80, 64
24, 40060, Note_on_c, 10, 80, 105
24, 40131, Note_off_c, 10, 80, 64
24, 40234, Note_on_c, 10, 76, 82
24, 40274, Note_off_c, 10, 76, 64
24, 40298, Note_on_c, 10, 73, 91
24, 40813, Note_off_c, 10, 73, 64
24, 40966, Note_on_c, 10, 81, 85
24, 41003, Note_off_c, 10, 81, 64
24, 41026, Note_on_c, 10, 81, 98
24, 41097, Note_off_c, 10, 81, 64
24, 41200, Note_on_c, 10, 76, 66
24, 41248, Note_off_c, 10, 76, 64
24, 41269, Note_on_c, 10, 77, 85
24, 41776, Note_off_c, 10, 77, 64
24, 41925, Note_on_c, 10, 83, 82
24, 41965, Note_off_c, 10, 83, 64
24, 41984, Note_on_c, 10, 83, 89
24, 42064, Note_off_c, 10, 83, 64
24, 42168, Note_on_c, 10, 80, 72
24, 42203, Note_off_c, 10, 80, 64
24, 42232, Note_on_c, 10, 76, 85
24, 42504, Note_off_c, 10, 76, 64
24, 42669, Note_on_c, 10, 76, 95
24, 42701, Note_off_c, 10, 76, 64
24, 42724, Note_on_c, 10, 74, 95
24, 42983, Note_off_c, 10, 74, 64
24, 43120, Note_on_c, 10, 74, 82
24, 43156, Note_off_c, 10, 74, 64
24, 43183, Note_on_c, 10, 72, 87
24, 43676, Note_off_c, 10, 72, 64
24, 43840, Note_on_c, 10, 64, 76
24, 43887, Note_off_c, 10, 64, 64
24, 43904, Note_on_c, 10, 69, 93
24, 43978, Note_off_c, 10, 69, 64
24, 44088, Note_on_c, 10, 73, 78
24, 44126, Note_off_c, 10, 73, 64
24, 44144, Note_on_c, 10, 73, 91
24, 44229, Note_off_c, 10, 73, 64
24, 44325, Note_on_c, 10, 76, 89
24, 44372, Note_off_c, 10, 76, 64
24, 44386, Note_on_c, 10, 74, 100
24, 44478, Note_off_c, 10, 74, 64
24, 44572, Note_on_c, 10, 71, 66
24, 44616, Note_off_c, 10, 71, 64
24, 44632, Note_on_c, 10, 73, 100
24, 44704, Note_off_c, 10, 73, 64
24, 44806, Note_on_c, 10, 69, 74
24, 44850, Note_off_c, 10, 69, 64
24, 44872, Note_on_c, 10, 71, 89
24, 44944, Note_off_c, 10, 71, 64
24, 45039, Note_on_c, 10, 66, 72
24, 45082, Note_off_c, 10, 66, 64
24, 45100, Note_on_c, 10, 71, 85
24, 45190, Note_off_c, 10, 71, 64
24, 45275, Note_on_c, 10, 69, 74
24, 45301, Note_on_c, 10, 68, 100
24, 45310, Note_off_c, 10, 69, 64
24, 45333, Note_off_c, 10, 68, 64
24, 45344, Note_on_c, 10, 69, 100
24, 45441, Note_off_c, 10, 69, 64
24, 45510, Note_on_c, 10, 71, 80
24, 45550, Note_off_c, 10, 71, 64
24, 45581, Note_on_c, 10, 69, 93
24, 45665, Note_on_c, 10, 68, 76
24, 45671, Note_off_c, 10, 69, 64
24, 45699, Note_off_c, 10, 68, 64
24, 45700, Note_on_c, 10, 69, 76
24, 45732, Note_on_c, 10, 68, 82
24, 45734, Note_off_c, 10, 69, 64
24, 45758, Note_on_c, 10, 69, 76
24, 45760, Note_off_c, 10, 68, 64
24, 45781, Note_on_c, 10, 68, 66
24, 45785, Note_off_c, 10, 69, 64
24, 45806, Note_on_c, 10, 69, 76
24, 45808, Note_off_c, 10, 68, 64
24, 45827, Note_on_c, 10, 68, 89
24, 45839, Note_off_c, 10, 69, 64
24, 45928, Note_off_c, 10, 68, 64
24, 46000, Note_on_c, 10, 64, 80
24, 46033, Note_off_c, 10, 64, 64
24, 46072, Note_on_c, 10, 64, 87
24, 46216, Note_off_c, 10, 64, 64
24, 114299, Note_on_c, 10, 64, 85
24, 114363, Note_off_c, 10, 64, 64
24, 114432, Note_on_c, 10, 64, 98
24, 114543, Note_on_c, 10, 69, 78
24, 114560, Note_off_c, 10, 64, 64
24, 114637, Note_off_c, 10, 69, 64
24, 114664, Note_on_c, 10, 68, 70
24, 114729, Note_off_c, 10, 68, 64
24, 114794, Note_on_c, 10, 68, 95
24, 114902, Note_on_c, 10, 71, 72
24, 114921, Note_off_c, 10, 68, 64
24, 115011, Note_on_c, 10, 69, 52
24, 115022, Note_off_c, 10, 71, 64
24, 115062, Note_off_c, 10, 69, 64
24, 115154, Note_on_c, 10, 69, 78
24, 115393, Note_off_c, 10, 69, 64
24, 116489, Note_on_c, 10, 73, 74
24, 116542, Note_off_c, 10, 73, 64
24, 116617, Note_on_c, 10, 73, 93
24, 116721, Note_on_c, 10, 76, 68
24, 116752, Note_off_c, 10, 73, 64
24, 116817, Note_off_c, 10, 76, 64
24, 116837, Note_on_c, 10, 74, 66
24, 116887, Note_off_c, 10, 74, 64
24, 116961, Note_on_c, 10, 74, 100
24, 117074, Note_on_c, 10, 78, 61
24, 117099, Note_off_c, 10, 74, 64
24, 117153, Note_off_c, 10, 78, 64
24, 117197, Note_on_c, 10, 76, 76
24, 117245, Note_off_c, 10, 76, 64
24, 117329, Note_on_c, 10, 76, 91
24, 117485, Note_off_c, 10, 76, 64
24, 117560, Note_on_c, 10, 73, 54
24, 117627, Note_off_c, 10, 73, 64
24, 117683, Note_on_c, 10, 76, 80
24, 117805, Note_off_c, 10, 76, 64
24, 117915, Note_on_c, 10, 73, 57
24, 117989, Note_off_c, 10, 73, 64
24, 118046, Note_on_c, 10, 69, 72
24, 118158, Note_off_c, 10, 69, 64
24, 118280, Note_on_c, 10, 73, 57
24, 118341, Note_off_c, 10, 73, 64
24, 118413, Note_on_c, 10, 74, 76
24, 118622, Note_off_c, 10, 74, 64
24, 119740, Note_on_c, 10, 74, 78
24, 119803, Note_off_c, 10, 74, 64
24, 119868, Note_on_c, 10, 74, 95
24, 119981, Note_on_c, 10, 78, 57
24, 120015, Note_off_c, 10, 74, 64
24, 120057, Note_off_c, 10, 78, 64
24, 120093, Note_on_c, 10, 76, 63
24, 120138, Note_off_c, 10, 76, 64
24, 120230, Note_on_c, 10, 76, 95
24, 120333, Note_on_c, 10, 79, 80
24, 120345, Note_off_c, 10, 76, 64
24, 120413, Note_off_c, 10, 79, 64
24, 120440, Note_on_c, 10, 78, 53
24, 120487, Note_off_c, 10, 78, 64
24, 120572, Note_on_c, 10, 78, 64
24, 120784, Note_off_c, 10, 78, 64
24, 121886, Note_on_c, 10, 66, 57
24, 121949, Note_off_c, 10, 66, 64
24, 122021, Note_on_c, 10, 69, 89
24, 122136, Note_off_c, 10, 69, 64
24, 122242, Note_on_c, 10, 66, 55
24, 122314, Note_off_c, 10, 66, 64
24, 122379, Note_on_c, 10, 62, 70
24, 122490, Note_off_c, 10, 62, 64
24, 122589, Note_on_c, 10, 66, 60
24, 122678, Note_off_c, 10, 66, 64
24, 122737, Note_on_c, 10, 67, 80
24, 122868, Note_off_c, 10, 67, 64
24, 122957, Note_on_c, 10, 66, 59
24, 123018, Note_off_c, 10, 66, 64
24, 123104, Note_on_c, 10, 67, 80
24, 123212, Note_off_c, 10, 67, 64
24, 123336, Note_on_c, 10, 69, 64
24, 123392, Note_off_c, 10, 69, 64
24, 123468, Note_on_c, 10, 69, 100
24, 123572, Note_on_c, 10, 71, 62
24, 123599, Note_off_c, 10, 69, 64
24, 123648, Note_off_c, 10, 71, 64
24, 123684, Note_on_c, 10, 68, 63
24, 123736, Note_off_c, 10, 68, 64
24, 123812, Note_on_c, 10, 68, 100
24, 123925, Note_on_c, 10, 69, 68
24, 123965, Note_off_c, 10, 68, 64
24, 124021, Note_off_c, 10, 69, 64
24, 124038, Note_on_c, 10, 71, 68
24, 124101, Note_off_c, 10, 71, 64
24, 124170, Note_on_c, 10, 69, 78
24, 124323, Note_off_c, 10, 69, 64
24, 124411, Note_on_c, 10, 71, 68
24, 124465, Note_off_c, 10, 71, 64
24, 124533, Note_on_c, 10, 71, 100
24, 124643, Note_on_c, 10, 73, 62
24, 124665, Note_off_c, 10, 71, 64
24, 124719, Note_off_c, 10, 73, 64
24, 124753, Note_on_c, 10, 70, 62
24, 124805, Note_off_c, 10, 70, 64
24, 124899, Note_on_c, 10, 70, 102
24, 125001, Note_on_c, 10, 71, 80
24, 125036, Note_off_c, 10, 70, 64
24, 125115, Note_off_c, 10, 71, 64
24, 125118, Note_on_c, 10, 73, 60
24, 125180, Note_off_c, 10, 73, 64
24, 125261, Note_on_c, 10, 71, 87
24, 125399, Note_off_c, 10, 71, 64
24, 125498, Note_on_c, 10, 73, 54
24, 125550, Note_off_c, 10, 73, 64
24, 125621, Note_on_c, 10, 73, 98
24, 125727, Note_on_c, 10, 74, 78
24, 125768, Note_off_c, 10, 73, 64
24, 125811, Note_off_c, 10, 74, 64
24, 125844, Note_on_c, 10, 71, 60
24, 125894, Note_off_c, 10, 71, 64
24, 125984, Note_on_c, 10, 71, 100
24, 126085, Note_on_c, 10, 73, 63
24, 126121, Note_off_c, 10, 71, 64
24, 126200, Note_on_c, 10, 74, 66
24, 126213, Note_off_c, 10, 73, 64
24, 126260, Note_off_c, 10, 74, 64
24, 126335, Note_on_c, 10, 73, 82
24, 126468, Note_off_c, 10, 73, 64
24, 126576, Note_on_c, 10, 74, 72
24, 126630, Note_off_c, 10, 74, 64
24, 126699, Note_on_c, 10, 74, 98
24, 126791, Note_on_c, 10, 76, 70
24, 126827, Note_off_c, 10, 74, 64
24, 126877, Note_off_c, 10, 76, 64
24, 126924, Note_on_c, 10, 73, 85
24, 126974, Note_off_c, 10, 73, 64
24, 127044, Note_on_c, 10, 73, 93
24, 127179, Note_off_c, 10, 73, 64
24, 139523, Note_on_c, 10, 78, 80
24, 139596, Note_off_c, 10, 78, 64
24, 139640, Note_on_c, 10, 75, 85
24, 139757, Note_off_c, 10, 75, 64
24, 139865, Note_on_c, 10, 71, 66
24, 139969, Note_off_c, 10, 71, 64
24, 140019, Note_on_c, 10, 83, 87
24, 140493, Note_off_c, 10, 83, 64
24, 140586, Note_on_c, 10, 79, 85
24, 140667, Note_off_c, 10, 79, 64
24, 140704, Note_on_c, 10, 76, 91
24, 140803, Note_off_c, 10, 76, 64
24, 140934, Note_on_c, 10, 72, 76
24, 141033, Note_off_c, 10, 72, 64
24, 141074, Note_on_c, 10, 84, 100
24, 141201, Note_off_c, 10, 84, 64
24, 141297, Note_on_c, 10, 72, 63
24, 141371, Note_off_c, 10, 72, 64
24, 141440, Note_on_c, 10, 72, 82
24, 141558, Note_off_c, 10, 72, 64
24, 141683, Note_on_c, 10, 72, 78
24, 141756, Note_off_c, 10, 72, 64
24, 141814, Note_on_c, 10, 72, 85
24, 141958, Note_off_c, 10, 72, 64
24, 142041, Note_on_c, 10, 72, 68
24, 142121, Note_off_c, 10, 72, 64
24, 142174, Note_on_c, 10, 71, 82
24, 142316, Note_off_c, 10, 71, 64
24, 142552, Note_on_c, 10, 75, 78
24, 142685, Note_off_c, 10, 75, 64
24, 142896, Note_on_c, 10, 78, 70
24, 143042, Note_off_c, 10, 78, 64
24, 143628, Note_on_c, 10, 67, 80
24, 143765, Note_off_c, 10, 67, 64
24, 143972, Note_on_c, 10, 71, 87
24, 144123, Note_off_c, 10, 71, 64
24, 144690, Note_on_c, 10, 74, 85
24, 144811, Note_off_c, 10, 74, 64
24, 145038, Note_on_c, 10, 69, 80
24, 145178, Note_off_c, 10, 69, 64
24, 145740, Note_on_c, 10, 72, 85
24, 145877, Note_off_c, 10, 72, 64
24, 146112, Note_on_c, 10, 67, 82
24, 146262, Note_off_c, 10, 67, 64
24, 146474, Note_on_c, 10, 74, 87
24, 146643, Note_off_c, 10, 74, 64
24, 147797, Note_on_c, 10, 67, 85
24, 147867, Note_off_c, 10, 67, 64
24, 147940, Note_on_c, 10, 67, 100
24, 148051, Note_on_c, 10, 69, 61
24, 148064, Note_off_c, 10, 67, 64
24, 148116, Note_off_c, 10, 69, 64
24, 148148, Note_on_c, 10, 66, 58
24, 148195, Note_off_c, 10, 66, 64
24, 148285, Note_on_c, 10, 66, 89
24, 148391, Note_on_c, 10, 67, 68
24, 148417, Note_off_c, 10, 66, 64
24, 148478, Note_off_c, 10, 67, 64
24, 148499, Note_on_c, 10, 64, 64
24, 148555, Note_off_c, 10, 64, 64
24, 148658, Note_on_c, 10, 64, 95
24, 148767, Note_on_c, 10, 66, 64
24, 148803, Note_off_c, 10, 64, 64
24, 148883, Note_on_c, 10, 67, 82
24, 148888, Note_off_c, 10, 66, 64
24, 148967, Note_off_c, 10, 67, 64
24, 149016, Note_on_c, 10, 69, 95
24, 149129, Note_on_c, 10, 71, 82
24, 149160, Note_off_c, 10, 69, 64
24, 149203, Note_off_c, 10, 71, 64
24, 149255, Note_on_c, 10, 67, 82
24, 149311, Note_off_c, 10, 67, 64
24, 149390, Note_on_c, 10, 67, 98
24, 149496, Note_on_c, 10, 69, 66
24, 149525, Note_off_c, 10, 67, 64
24, 149595, Note_off_c, 10, 69, 64
24, 149610, Note_on_c, 10, 66, 63
24, 149666, Note_off_c, 10, 66, 64
24, 149745, Note_on_c, 10, 66, 91
24, 149840, Note_on_c, 10, 67, 72
24, 149867, Note_off_c, 10, 66, 64
24, 149954, Note_off_c, 10, 67, 64
24, 149963, Note_on_c, 10, 69, 70
24, 150026, Note_off_c, 10, 69, 64
24, 150098, Note_on_c, 10, 69, 95
24, 150213, Note_off_c, 10, 69, 64
24, 150310, Note_on_c, 10, 67, 82
24, 150375, Note_off_c, 10, 67, 64
24, 150442, Note_on_c, 10, 67, 98
24, 150569, Note_off_c, 10, 67, 64
24, 150654, Note_on_c, 10, 66, 70
24, 150733, Note_off_c, 10, 66, 64
24, 150787, Note_on_c, 10, 67, 85
24, 150936, Note_off_c, 10, 67, 64
24, 151167, Note_on_c, 10, 74, 87
24, 151293, Note_off_c, 10, 74, 64
24, 151520, Note_on_c, 10, 74, 85
24, 151667, Note_off_c, 10, 74, 64
24, 151874, Note_on_c, 10, 74, 82
24, 152031, Note_off_c, 10, 74, 64
24, 152477, Note_on_c, 10, 67, 80
24, 152571, Note_off_c, 10, 67, 64
24, 152605, Note_on_c, 10, 69, 87
24, 152745, Note_off_c, 10, 69, 64
24, 152814, Note_on_c, 10, 71, 74
24, 152909, Note_off_c, 10, 71, 64
24, 152956, Note_on_c, 10, 72, 85
24, 153064, Note_off_c, 10, 72, 64
24, 153172, Note_on_c, 10, 67, 72
24, 153285, Note_off_c, 10, 67, 64
24, 153320, Note_on_c, 10, 66, 87
24, 153437, Note_off_c, 10, 66, 64
24, 153552, Note_on_c, 10, 67, 70
24, 153644, Note_off_c, 10, 67, 64
24, 153690, Note_on_c, 10, 69, 82
24, 153816, Note_off_c, 10, 69, 64
24, 153912, Note_on_c, 10, 72, 74
24, 153969, Note_off_c, 10, 72, 64
24, 154038, Note_on_c, 10, 66, 87
24, 154142, Note_on_c, 10, 67, 78
24, 154169, Note_off_c, 10, 66, 64
24, 154211, Note_off_c, 10, 67, 64
24, 154259, Note_on_c, 10, 69, 80
24, 154326, Note_off_c, 10, 69, 64
24, 154396, Note_on_c, 10, 69, 102
24, 154499, Note_on_c, 10, 71, 70
24, 154524, Note_off_c, 10, 69, 64
24, 154575, Note_off_c, 10, 71, 64
24, 154623, Note_on_c, 10, 67, 70
24, 154675, Note_off_c, 10, 67, 64
24, 154760, Note_on_c, 10, 67, 95
24, 154866, Note_on_c, 10, 69, 64
24, 154882, Note_off_c, 10, 67, 64
24, 154950, Note_off_c, 10, 69, 64
24, 154974, Note_on_c, 10, 66, 66
24, 155046, Note_off_c, 10, 66, 64
24, 155120, Note_on_c, 10, 67, 80
24, 155251, Note_off_c, 10, 67, 64
24, 155348, Note_on_c, 10, 72, 76
24, 155418, Note_off_c, 10, 72, 64
24, 155485, Note_on_c, 10, 71, 98
24, 155593, Note_on_c, 10, 72, 70
24, 155609, Note_off_c, 10, 71, 64
24, 155683, Note_off_c, 10, 72, 64
24, 155710, Note_on_c, 10, 69, 82
24, 155762, Note_off_c, 10, 69, 64
24, 155825, Note_on_c, 10, 71, 95
24, 155877, Note_on_c, 10, 69, 87
24, 155886, Note_off_c, 10, 71, 64
24, 155928, Note_on_c, 10, 71, 78
24, 155937, Note_off_c, 10, 69, 64
24, 155955, Note_on_c, 10, 69, 52
24, 155982, Note_off_c, 10, 71, 64
24, 156027, Note_off_c, 10, 69, 64
24, 156059, Note_on_c, 10, 71, 87
24, 156124, Note_off_c, 10, 71, 64
24, 156174, Note_on_c, 10, 71, 98
24, 156313, Note_off_c, 10, 71, 64
24, 156432, Note_on_c, 10, 62, 60
24, 156495, Note_off_c, 10, 62, 64
24, 156563, Note_on_c, 10, 62, 72
24, 156705, Note_off_c, 10, 62, 64
24, 156792, Note_on_c, 10, 62, 58
24, 156864, Note_off_c, 10, 62, 64
24, 156932, Note_on_c, 10, 62, 59
24, 157071, Note_off_c, 10, 62, 64
24, 157150, Note_on_c, 10, 62, 60
24, 157217, Note_off_c, 10, 62, 64
24, 157285, Note_on_c, 10, 62, 64
24, 157424, Note_off_c, 10, 62, 64
24, 157501, Note_on_c, 10, 62, 58
24, 157575, Note_off_c, 10, 62, 64
24, 157643, Note_on_c, 10, 62, 64
24, 157789, Note_off_c, 10, 62, 64
24, 157865, Note_on_c, 10, 62, 60
24, 157937, Note_off_c, 10, 62, 64
24, 158003, Note_on_c, 10, 62, 60
24, 158144, Note_off_c, 10, 62, 64
24, 158228, Note_on_c, 10, 62, 62
24, 158302, Note_off_c, 10, 62, 64
24, 158369, Note_on_c, 10, 62, 76
24, 158513, Note_off_c, 10, 62, 64
24, 179250, Note_on_c, 10, 74, 85
24, 179366, Note_off_c, 10, 74, 64
24, 179601, Note_on_c, 10, 73, 70
24, 179717, Note_off_c, 10, 73, 64
24, 179967, Note_on_c, 10, 74, 91
24, 180071, Note_on_c, 10, 73, 98
24, 180086, Note_off_c, 10, 74, 64
24, 180147, Note_off_c, 10, 73, 64
24, 180188, Note_on_c, 10, 74, 91
24, 180260, Note_off_c, 10, 74, 64
24, 180330, Note_on_c, 10, 74, 102
24, 180437, Note_off_c, 10, 74, 64
24, 180563, Note_on_c, 10, 66, 60
24, 180658, Note_off_c, 10, 66, 64
24, 180696, Note_on_c, 10, 69, 87
24, 180798, Note_off_c, 10, 69, 64
24, 180933, Note_on_c, 10, 74, 76
24, 181000, Note_off_c, 10, 74, 64
24, 181072, Note_on_c, 10, 74, 100
24, 181180, Note_on_c, 10, 76, 68
24, 181191, Note_off_c, 10, 74, 64
24, 181261, Note_off_c, 10, 76, 64
24, 181295, Note_on_c, 10, 74, 72
24, 181349, Note_off_c, 10, 74, 64
24, 181430, Note_on_c, 10, 73, 102
24, 181536, Note_on_c, 10, 74, 72
24, 181565, Note_off_c, 10, 73, 64
24, 181610, Note_off_c, 10, 74, 64
24, 181655, Note_on_c, 10, 71, 76
24, 181706, Note_off_c, 10, 71, 64
24, 181792, Note_on_c, 10, 71, 102
24, 181898, Note_off_c, 10, 71, 64
24, 181907, Note_on_c, 10, 73, 64
24, 181985, Note_off_c, 10, 73, 64
24, 182012, Note_on_c, 10, 69, 85
24, 182087, Note_off_c, 10, 69, 64
24, 182145, Note_on_c, 10, 69, 87
24, 182273, Note_off_c, 10, 69, 64
24, 182366, Note_on_c, 10, 81, 91
24, 182444, Note_off_c, 10, 81, 64
24, 182483, Note_on_c, 10, 76, 82
24, 182602, Note_off_c, 10, 76, 64
24, 182717, Note_on_c, 10, 73, 63
24, 182805, Note_off_c, 10, 73, 64
24, 182845, Note_on_c, 10, 69, 78
24, 182957, Note_off_c, 10, 69, 64
24, 183072, Note_on_c, 10, 69, 72
24, 183142, Note_off_c, 10, 69, 64
24, 183212, Note_on_c, 10, 69, 91
24, 183313, Note_on_c, 10, 71, 82
24, 183333, Note_off_c, 10, 69, 64
24, 183414, Note_off_c, 10, 71, 64
24, 183426, Note_on_c, 10, 73, 68
24, 183504, Note_off_c, 10, 73, 64
24, 183547, Note_on_c, 10, 74, 87
24, 183666, Note_off_c, 10, 74, 64
24, 183763, Note_on_c, 10, 76, 76
24, 183835, Note_off_c, 10, 76, 64
24, 183893, Note_on_c, 10, 73, 95
24, 183988, Note_off_c, 10, 73, 64
24, 184128, Note_on_c, 10, 69, 76
24, 184188, Note_off_c, 10, 69, 64
24, 184262, Note_on_c, 10, 69, 98
24, 184377, Note_on_c, 10, 71, 74
24, 184402, Note_off_c, 10, 69, 64
24, 184485, Note_off_c, 10, 71, 64
24, 184488, Note_on_c, 10, 69, 68
24, 184562, Note_off_c, 10, 69, 64
24, 184629, Note_on_c, 10, 68, 95
24, 184731, Note_on_c, 10, 69, 74
24, 184755, Note_off_c, 10, 68, 64
24, 184812, Note_off_c, 10, 69, 64
24, 184852, Note_on_c, 10, 66, 63
24, 184901, Note_off_c, 10, 66, 64
24, 184976, Note_on_c, 10, 66, 100
24, 185088, Note_on_c, 10, 68, 64
24, 185108, Note_off_c, 10, 66, 64
24, 185162, Note_off_c, 10, 68, 64
24, 185198, Note_on_c, 10, 64, 68
24, 185267, Note_off_c, 10, 64, 64
24, 185345, Note_on_c, 10, 64, 89
24, 185510, Note_off_c, 10, 64, 64
24, 185936, Note_on_c, 10, 76, 78
24, 186026, Note_off_c, 10, 76, 64
24, 186067, Note_on_c, 10, 71, 89
24, 186189, Note_off_c, 10, 71, 64
24, 186297, Note_on_c, 10, 71, 63
24, 186373, Note_off_c, 10, 71, 64
24, 186436, Note_on_c, 10, 69, 85
24, 186623, Note_off_c, 10, 69, 64
24, 186969, Note_on_c, 10, 74, 70
24, 187055, Note_off_c, 10, 74, 64
24, 187106, Note_on_c, 10, 69, 85
24, 187242, Note_off_c, 10, 69, 64
24, 187358, Note_on_c, 10, 69, 68
24, 187428, Note_off_c, 10, 69, 64
24, 187503, Note_on_c, 10, 67, 80
24, 187637, Note_off_c, 10, 67, 64
24, 187871, Note_on_c, 10, 73, 78
24, 187979, Note_off_c, 10, 73, 64
24, 188238, Note_on_c, 10, 75, 74
24, 188362, Note_off_c, 10, 75, 64
24, 188616, Note_on_c, 10, 76, 82
24, 188733, Note_off_c, 10, 76, 64
24, 188853, Note_on_c, 10, 76, 85
24, 188920, Note_off_c, 10, 76, 64
24, 188979, Note_on_c, 10, 76, 102
24, 189100, Note_on_c, 10, 78, 74
24, 189107, Note_off_c, 10, 76, 64
24, 189170, Note_off_c, 10, 78, 64
24, 189206, Note_on_c, 10, 74, 80
24, 189258, Note_off_c, 10, 74, 64
24, 189339, Note_on_c, 10, 74, 107
24, 189446, Note_on_c, 10, 76, 68
24, 189455, Note_off_c, 10, 74, 64
24, 189503, Note_off_c, 10, 76, 64
24, 189563, Note_on_c, 10, 73, 70
24, 189622, Note_off_c, 10, 73, 64
24, 189707, Note_on_c, 10, 73, 102
24, 189816, Note_on_c, 10, 69, 68
24, 189856, Note_off_c, 10, 73, 64
24, 189926, Note_on_c, 10, 71, 82
24, 189939, Note_off_c, 10, 69, 64
24, 190009, Note_off_c, 10, 71, 64
24, 190049, Note_on_c, 10, 73, 98
24, 190151, Note_on_c, 10, 74, 82
24, 190171, Note_off_c, 10, 73, 64
24, 190263, Note_off_c, 10, 74, 64
24, 190265, Note_on_c, 10, 76, 85
24, 190317, Note_off_c, 10, 76, 64
24, 190401, Note_on_c, 10, 69, 95
24, 190508, Note_off_c, 10, 69, 64
24, 190619, Note_on_c, 10, 73, 66
24, 190674, Note_off_c, 10, 73, 64
24, 190756, Note_on_c, 10, 62, 91
24, 190868, Note_on_c, 10, 66, 66
24, 190895, Note_off_c, 10, 62, 64
24, 190980, Note_off_c, 10, 66, 64
24, 190988, Note_on_c, 10, 69, 80
24, 191051, Note_off_c, 10, 69, 64
24, 191133, Note_on_c, 10, 74, 102
24, 191238, Note_on_c, 10, 76, 80
24, 191244, Note_off_c, 10, 74, 64
24, 191319, Note_off_c, 10, 76, 64
24, 191348, Note_on_c, 10, 72, 68
24, 191400, Note_off_c, 10, 72, 64
24, 191478, Note_on_c, 10, 72, 98
24, 191589, Note_on_c, 10, 74, 78
24, 191597, Note_off_c, 10, 72, 64
24, 191685, Note_off_c, 10, 74, 64
24, 191714, Note_on_c, 10, 71, 74
24, 191789, Note_off_c, 10, 71, 64
24, 191850, Note_on_c, 10, 71, 89
24, 191953, Note_on_c, 10, 67, 82
24, 191987, Note_off_c, 10, 71, 64
24, 192063, Note_on_c, 10, 71, 66
24, 192081, Note_off_c, 10, 67, 64
24, 192115, Note_off_c, 10, 71, 64
24, 192209, Note_on_c, 10, 76, 89
24, 192309, Note_on_c, 10, 78, 76
24, 192329, Note_off_c, 10, 76, 64
24, 192401, Note_off_c, 10, 78, 64
24, 192421, Note_on_c, 10, 74, 66
24, 192473, Note_off_c, 10, 74, 64
24, 192552, Note_on_c, 10, 74, 100
24, 192659, Note_on_c, 10, 76, 68
24, 192678, Note_off_c, 10, 74, 64
24, 192761, Note_off_c, 10, 76, 64
24, 192779, Note_on_c, 10, 73, 78
24, 192848, Note_off_c, 10, 73, 64
24, 192902, Note_on_c, 10, 73, 85
24, 193019, Note_on_c, 10, 74, 68
24, 193031, Note_off_c, 10, 73, 64
24, 193125, Note_off_c, 10, 74, 64
24, 193139, Note_on_c, 10, 76, 78
24, 193209, Note_off_c, 10, 76, 64
24, 193273, Note_on_c, 10, 78, 105
24, 193382, Note_on_c, 10, 79, 76
24, 193411, Note_off_c, 10, 78, 64
24, 193465, Note_off_c, 10, 79, 64
24, 193503, Note_on_c, 10, 76, 66
24, 193553, Note_off_c, 10, 76, 64
24, 193627, Note_on_c, 10, 76, 93
24, 193731, Note_on_c, 10, 78, 68
24, 193744, Note_off_c, 10, 76, 64
24, 193812, Note_off_c, 10, 78, 64
24, 193854, Note_on_c, 10, 74, 74
24, 193919, Note_off_c, 10, 74, 64
24, 194003, Note_on_c, 10, 74, 100
24, 194167, Note_off_c, 10, 74, 64
24, 194597, Note_on_c, 10, 73, 53
24, 194662, Note_off_c, 10, 73, 64
24, 194739, Note_on_c, 10, 73, 85
24, 194860, Note_off_c, 10, 73, 64
24, 194964, Note_on_c, 10, 75, 64
24, 195058, Note_off_c, 10, 75, 64
24, 195092, Note_on_c, 10, 76, 82
24, 195209, Note_off_c, 10, 76, 64
24, 195328, Note_on_c, 10, 76, 70
24, 195395, Note_off_c, 10, 76, 64
24, 195452, Note_on_c, 10, 76, 87
24, 195566, Note_off_c, 10, 76, 64
24, 195686, Note_on_c, 10, 76, 74
24, 195755, Note_off_c, 10, 76, 64
24, 195823, Note_on_c, 10, 76, 85
24, 195935, Note_off_c, 10, 76, 64
24, 196053, Note_on_c, 10, 76, 80
24, 196113, Note_off_c, 10, 76, 64
24, 196188, Note_on_c, 10, 76, 98
24, 196291, Note_on_c, 10, 73, 63
24, 196314, Note_off_c, 10, 76, 64
24, 196363, Note_off_c, 10, 73, 64
24, 196412, Note_on_c, 10, 74, 72
24, 196466, Note_off_c, 10, 74, 64
24, 196547, Note_on_c, 10, 76, 95
24, 196655, Note_off_c, 10, 76, 64
24, 196658, Note_on_c, 10, 73, 66
24, 196730, Note_off_c, 10, 73, 64
24, 196773, Note_on_c, 10, 74, 78
24, 196827, Note_off_c, 10, 74, 64
24, 196905, Note_on_c, 10, 76, 93
24, 197016, Note_on_c, 10, 74, 64
24, 197036, Note_off_c, 10, 76, 64
24, 197105, Note_off_c, 10, 74, 64
24, 197132, Note_on_c, 10, 73, 61
24, 197182, Note_off_c, 10, 73, 64
24, 197254, Note_on_c, 10, 74, 100
24, 197385, Note_off_c, 10, 74, 64
24, 197486, Note_on_c, 10, 73, 66
24, 197556, Note_off_c, 10, 73, 64
24, 197607, Note_on_c, 10, 74, 85
24, 197742, Note_off_c, 10, 74, 64
24, 197826, Note_on_c, 10, 71, 70
24, 197898, Note_off_c, 10, 71, 64
24, 197953, Note_on_c, 10, 69, 82
24, 198078, Note_off_c, 10, 69, 64
24, 198201, Note_on_c, 10, 69, 59
24, 198273, Note_off_c, 10, 69, 64
24, 198336, Note_on_c, 10, 69, 85
24, 198478, Note_off_c, 10, 69, 64
24, 198701, Note_on_c, 10, 74, 91
24, 198822, Note_off_c, 10, 74, 64
24, 199058, Note_on_c, 10, 76, 87
24, 199198, Note_off_c, 10, 76, 64
24, 199428, Note_on_c, 10, 78, 93
24, 199558, Note_off_c, 10, 78, 64
24, 199794, Note_on_c, 10, 74, 95
24, 199916, Note_off_c, 10, 74, 64
24, 200150, Note_on_c, 10, 76, 91
24, 200287, Note_off_c, 10, 76, 64
24, 221040, Note_on_c, 10, 76, 66
24, 221093, Note_off_c, 10, 76, 64
24, 221172, Note_on_c, 10, 76, 102
24, 221276, Note_on_c, 10, 78, 72
24, 221291, Note_off_c, 10, 76, 64
24, 221334, Note_off_c, 10, 78, 64
24, 221394, Note_on_c, 10, 74, 82
24, 221433, Note_off_c, 10, 74, 64
24, 221516, Note_on_c, 10, 74, 100
24, 221620, Note_on_c, 10, 76, 68
24, 221637, Note_off_c, 10, 74, 64
24, 221685, Note_off_c, 10, 76, 64
24, 221735, Note_on_c, 10, 73, 68
24, 221784, Note_off_c, 10, 73, 64
24, 221863, Note_on_c, 10, 73, 91
24, 221976, Note_on_c, 10, 74, 72
24, 222016, Note_off_c, 10, 73, 64
24, 222075, Note_off_c, 10, 74, 64
24, 222095, Note_on_c, 10, 76, 72
24, 222146, Note_off_c, 10, 76, 64
24, 222219, Note_on_c, 10, 78, 102
24, 222324, Note_on_c, 10, 79, 78
24, 222342, Note_off_c, 10, 78, 64
24, 222383, Note_off_c, 10, 79, 64
24, 222444, Note_on_c, 10, 76, 80
24, 222488, Note_off_c, 10, 76, 64
24, 222567, Note_on_c, 10, 76, 102
24, 222675, Note_on_c, 10, 78, 64
24, 222689, Note_off_c, 10, 76, 64
24, 222745, Note_off_c, 10, 78, 64
24, 222788, Note_on_c, 10, 74, 63
24, 222840, Note_off_c, 10, 74, 64
24, 222920, Note_on_c, 10, 74, 66
24, 223047, Note_off_c, 10, 74, 64
24, 223154, Note_on_c, 10, 74, 57
24, 223208, Note_off_c, 10, 74, 64
24, 223276, Note_on_c, 10, 74, 63
24, 223409, Note_off_c, 10, 74, 64
24, 223502, Note_on_c, 10, 74, 72
24, 223562, Note_off_c, 10, 74, 64
24, 223632, Note_on_c, 10, 74, 85
24, 223785, Note_off_c, 10, 74, 64
24, 223859, Note_on_c, 10, 74, 72
24, 223920, Note_off_c, 10, 74, 64
24, 223985, Note_on_c, 10, 74, 95
24, 224102, Note_on_c, 10, 71, 78
24, 224128, Note_off_c, 10, 74, 64
24, 224213, Note_on_c, 10, 73, 72
24, 224214, Note_off_c, 10, 71, 64
24, 224275, Note_off_c, 10, 73, 64
24, 224348, Note_on_c, 10, 74, 98
24, 224446, Note_on_c, 10, 83, 63
24, 224468, Note_off_c, 10, 74, 64
24, 224502, Note_off_c, 10, 83, 64
24, 224574, Note_on_c, 10, 73, 85
24, 224628, Note_off_c, 10, 73, 64
24, 224705, Note_on_c, 10, 74, 100
24, 224826, Note_on_c, 10, 73, 80
24, 224833, Note_off_c, 10, 74, 64
24, 224905, Note_off_c, 10, 73, 64
24, 224937, Note_on_c, 10, 71, 66
24, 224993, Note_off_c, 10, 71, 64
24, 225065, Note_on_c, 10, 73, 98
24, 225171, Note_on_c, 10, 76, 76
24, 225191, Note_off_c, 10, 73, 64
24, 225252, Note_off_c, 10, 76, 64
24, 225279, Note_on_c, 10, 74, 74
24, 225333, Note_off_c, 10, 74, 64
24, 225411, Note_on_c, 10, 76, 93
24, 225544, Note_off_c, 10, 76, 64
24, 225657, Note_on_c, 10, 74, 68
24, 225724, Note_off_c, 10, 74, 64
24, 225780, Note_on_c, 10, 76, 91
24, 225890, Note_off_c, 10, 76, 64
24, 226019, Note_on_c, 10, 73, 57
24, 226070, Note_off_c, 10, 73, 64
24, 226149, Note_on_c, 10, 74, 89
24, 226259, Note_on_c, 10, 73, 95
24, 226278, Note_off_c, 10, 74, 64
24, 226370, Note_off_c, 10, 73, 64
24, 226374, Note_on_c, 10, 74, 80
24, 226439, Note_off_c, 10, 74, 64
24, 226511, Note_on_c, 10, 74, 102
24, 226626, Note_off_c, 10, 74, 64
24, 226750, Note_on_c, 10, 66, 61
24, 226832, Note_off_c, 10, 66, 64
24, 226878, Note_on_c, 10, 69, 93
24, 226989, Note_off_c, 10, 69, 64
24, 227123, Note_on_c, 10, 74, 76
24, 227180, Note_off_c, 10, 74, 64
24, 227258, Note_on_c, 10, 74, 102
24, 227360, Note_on_c, 10, 76, 68
24, 227400, Note_off_c, 10, 74, 64
24, 227468, Note_off_c, 10, 76, 64
24, 227484, Note_on_c, 10, 74, 66
24, 227544, Note_off_c, 10, 74, 64
24, 227622, Note_on_c, 10, 73, 100
24, 227733, Note_on_c, 10, 74, 68
24, 227753, Note_off_c, 10, 73, 64
24, 227787, Note_off_c, 10, 74, 64
24, 227852, Note_on_c, 10, 71, 82
24, 227900, Note_off_c, 10, 71, 64
24, 227987, Note_on_c, 10, 71, 98
24, 228093, Note_on_c, 10, 73, 64
24, 228095, Note_off_c, 10, 71, 64
24, 228167, Note_off_c, 10, 73, 64
24, 228213, Note_on_c, 10, 69, 68
24, 228276, Note_off_c, 10, 69, 64
24, 228343, Note_on_c, 10, 69, 87
24, 228492, Note_off_c, 10, 69, 64
24, 228593, Note_on_c, 10, 81, 82
24, 228656, Note_off_c, 10, 81, 64
24, 228708, Note_on_c, 10, 76, 91
24, 228825, Note_off_c, 10, 76, 64
24, 228935, Note_on_c, 10, 73, 64
24, 229016, Note_off_c, 10, 73, 64
24, 229074, Note_on_c, 10, 69, 78
24, 229200, Note_off_c, 10, 69, 64
24, 229299, Note_on_c, 10, 69, 78
24, 229367, Note_off_c, 10, 69, 64
24, 229437, Note_on_c, 10, 69, 89
24, 229540, Note_on_c, 10, 71, 76
24, 229556, Note_off_c, 10, 69, 64
24, 229623, Note_off_c, 10, 71, 64
24, 229655, Note_on_c, 10, 73, 82
24, 229727, Note_off_c, 10, 73, 64
24, 229772, Note_on_c, 10, 74, 91
24, 229913, Note_off_c, 10, 74, 64
24, 229994, Note_on_c, 10, 76, 80
24, 230051, Note_off_c, 10, 76, 64
24, 230112, Note_on_c, 10, 74, 98
24, 230172, Note_on_c, 10, 73, 63
24, 230177, Note_off_c, 10, 74, 64
24, 230204, Note_off_c, 10, 73, 64
24, 230208, Note_on_c, 10, 74, 82
24, 230255, Note_on_c, 10, 73, 63
24, 230294, Note_off_c, 10, 74, 64
24, 230354, Note_off_c, 10, 73, 64
24, 230354, Note_on_c, 10, 69, 85
24, 230420, Note_off_c, 10, 69, 64
24, 230487, Note_on_c, 10, 69, 102
24, 230589, Note_on_c, 10, 71, 70
24, 230602, Note_off_c, 10, 69, 64
24, 230660, Note_off_c, 10, 71, 64
24, 230701, Note_on_c, 10, 69, 72
24, 230751, Note_off_c, 10, 69, 64
24, 230831, Note_on_c, 10, 68, 102
24, 230930, Note_on_c, 10, 69, 78
24, 230949, Note_off_c, 10, 68, 64
24, 231005, Note_off_c, 10, 69, 64
24, 231057, Note_on_c, 10, 66, 76
24, 231104, Note_off_c, 10, 66, 64
24, 231180, Note_on_c, 10, 66, 93
24, 231282, Note_on_c, 10, 68, 68
24, 231293, Note_off_c, 10, 66, 64
24, 231362, Note_off_c, 10, 68, 64
24, 231401, Note_on_c, 10, 64, 66
24, 231468, Note_off_c, 10, 64, 64
24, 231542, Note_on_c, 10, 64, 87
24, 231732, Note_off_c, 10, 64, 64
24, 232145, Note_on_c, 10, 76, 78
24, 232220, Note_off_c, 10, 76, 64
24, 232271, Note_on_c, 10, 71, 89
24, 232406, Note_off_c, 10, 71, 64
24, 232505, Note_on_c, 10, 71, 64
24, 232584, Note_off_c, 10, 71, 64
24, 232638, Note_on_c, 10, 69, 76
24, 232823, Note_off_c, 10, 69, 64
24, 233187, Note_on_c, 10, 74, 76
24, 233273, Note_off_c, 10, 74, 64
24, 233315, Note_on_c, 10, 69, 85
24, 233474, Note_off_c, 10, 69, 64
24, 233576, Note_on_c, 10, 69, 74
24, 233651, Note_off_c, 10, 69, 64
24, 233707, Note_on_c, 10, 67, 85
24, 233840, Note_off_c, 10, 67, 64
24, 234058, Note_on_c, 10, 73, 80
24, 234179, Note_off_c, 10, 73, 64
24, 234427, Note_on_c, 10, 75, 72
24, 234575, Note_off_c, 10, 75, 64
24, 234810, Note_on_c, 10, 76, 85
24, 234971, Note_off_c, 10, 76, 64
24, 235063, Note_on_c, 10, 76, 87
24, 235125, Note_off_c, 10, 76, 64
24, 235181, Note_on_c, 10, 76, 100
24, 235298, Note_on_c, 10, 78, 68
24, 235316, Note_off_c, 10, 76, 64
24, 235367, Note_off_c, 10, 78, 64
24, 235401, Note_on_c, 10, 74, 82
24, 235448, Note_off_c, 10, 74, 64
24, 235527, Note_on_c, 10, 74, 105
24, 235629, Note_on_c, 10, 76, 68
24, 235655, Note_off_c, 10, 74, 64
24, 235696, Note_off_c, 10, 76, 64
24, 235757, Note_on_c, 10, 73, 80
24, 235820, Note_off_c, 10, 73, 64
24, 235892, Note_on_c, 10, 73, 98
24, 235998, Note_on_c, 10, 69, 74
24, 236025, Note_off_c, 10, 73, 64
24, 236090, Note_off_c, 10, 69, 64
24, 236114, Note_on_c, 10, 71, 68
24, 236168, Note_off_c, 10, 71, 64
24, 236243, Note_on_c, 10, 73, 98
24, 236350, Note_on_c, 10, 74, 85
24, 236387, Note_off_c, 10, 73, 64
24, 236454, Note_off_c, 10, 74, 64
24, 236466, Note_on_c, 10, 76, 74
24, 236526, Note_off_c, 10, 76, 64
24, 236596, Note_on_c, 10, 69, 95
24, 236700, Note_off_c, 10, 69, 64
24, 236826, Note_on_c, 10, 73, 66
24, 236871, Note_off_c, 10, 73, 64
24, 236958, Note_on_c, 10, 62, 85
24, 237068, Note_on_c, 10, 66, 68
24, 237090, Note_off_c, 10, 62, 64
24, 237163, Note_off_c, 10, 66, 64
24, 237179, Note_on_c, 10, 69, 80
24, 237226, Note_off_c, 10, 69, 64
24, 237320, Note_on_c, 10, 74, 95
24, 237428, Note_on_c, 10, 76, 76
24, 237444, Note_off_c, 10, 74, 64
24, 237514, Note_off_c, 10, 76, 64
24, 237550, Note_on_c, 10, 72, 64
24, 237591, Note_off_c, 10, 72, 64
24, 237677, Note_on_c, 10, 72, 95
24, 237780, Note_on_c, 10, 74, 72
24, 237807, Note_off_c, 10, 72, 64
24, 237883, Note_off_c, 10, 74, 64
24, 237894, Note_on_c, 10, 71, 68
24, 237950, Note_off_c, 10, 71, 64
24, 238034, Note_on_c, 10, 71, 89
24, 238130, Note_off_c, 10, 71, 64
24, 238139, Note_on_c, 10, 67, 87
24, 238252, Note_on_c, 10, 71, 63
24, 238263, Note_off_c, 10, 67, 64
24, 238299, Note_off_c, 10, 71, 64
24, 238401, Note_on_c, 10, 76, 102
24, 238506, Note_on_c, 10, 78, 70
24, 238520, Note_off_c, 10, 76, 64
24, 238597, Note_off_c, 10, 78, 64
24, 238625, Note_on_c, 10, 74, 80
24, 238675, Note_off_c, 10, 74, 64
24, 238754, Note_on_c, 10, 74, 102
24, 238848, Note_on_c, 10, 76, 68
24, 238878, Note_off_c, 10, 74, 64
24, 238954, Note_off_c, 10, 76, 64
24, 238981, Note_on_c, 10, 73, 57
24, 239037, Note_off_c, 10, 73, 64
24, 239109, Note_on_c, 10, 73, 95
24, 239224, Note_on_c, 10, 74, 68
24, 239244, Note_off_c, 10, 73, 64
24, 239319, Note_off_c, 10, 74, 64
24, 239337, Note_on_c, 10, 76, 68
24, 239409, Note_off_c, 10, 76, 64
24, 239475, Note_on_c, 10, 78, 100
24, 239588, Note_on_c, 10, 79, 76
24, 239616, Note_off_c, 10, 78, 64
24, 239663, Note_off_c, 10, 79, 64
24, 239712, Note_on_c, 10, 76, 76
24, 239764, Note_off_c, 10, 76, 64
24, 239841, Note_on_c, 10, 76, 95
24, 239946, Note_on_c, 10, 78, 72
24, 239964, Note_off_c, 10, 76, 64
24, 240012, Note_off_c, 10, 78, 64
24, 240063, Note_on_c, 10, 74, 78
24, 240122, Note_off_c, 10, 74, 64
24, 240201, Note_on_c, 10, 74, 95
24, 240376, Note_off_c, 10, 74, 64
24, 240781, Note_on_c, 10, 73, 45
24, 240840, Note_off_c, 10, 73, 64
24, 240909, Note_on_c, 10, 73, 64
24, 241044, Note_off_c, 10, 73, 64
24, 241159, Note_on_c, 10, 75, 66
24, 241224, Note_off_c, 10, 75, 64
24, 241276, Note_on_c, 10, 76, 78
24, 241395, Note_off_c, 10, 76, 64
24, 241532, Note_on_c, 10, 76, 63
24, 241587, Note_off_c, 10, 76, 64
24, 241652, Note_on_c, 10, 76, 70
24, 241798, Note_off_c, 10, 76, 64
24, 241894, Note_on_c, 10, 76, 70
24, 241958, Note_off_c, 10, 76, 64
24, 242019, Note_on_c, 10, 76, 82
24, 242156, Note_off_c, 10, 76, 64
24, 242244, Note_on_c, 10, 76, 80
24, 242302, Note_off_c, 10, 76, 64
24, 242370, Note_on_c, 10, 76, 95
24, 242486, Note_on_c, 10, 73, 59
24, 242518, Note_off_c, 10, 76, 64
24, 242550, Note_off_c, 10, 73, 64
24, 242597, Note_on_c, 10, 74, 78
24, 242657, Note_off_c, 10, 74, 64
24, 242738, Note_on_c, 10, 76, 98
24, 242850, Note_on_c, 10, 73, 60
24, 242867, Note_off_c, 10, 76, 64
24, 242896, Note_off_c, 10, 73, 64
24, 242955, Note_on_c, 10, 74, 74
24, 243007, Note_off_c, 10, 74, 64
24, 243090, Note_on_c, 10, 76, 95
24, 243202, Note_on_c, 10, 74, 66
24, 243240, Note_off_c, 10, 76, 64
24, 243305, Note_off_c, 10, 74, 64
24, 243319, Note_on_c, 10, 73, 63
24, 243384, Note_off_c, 10, 73, 64
24, 243445, Note_on_c, 10, 74, 95
24, 243566, Note_off_c, 10, 74, 64
24, 243675, Note_on_c, 10, 73, 70
24, 243739, Note_off_c, 10, 73, 64
24, 243789, Note_on_c, 10, 74, 93
24, 243915, Note_off_c, 10, 74, 64
24, 244026, Note_on_c, 10, 71, 68
24, 244103, Note_off_c, 10, 71, 64
24, 244156, Note_on_c, 10, 69, 85
24, 244275, Note_off_c, 10, 69, 64
24, 244397, Note_on_c, 10, 69, 60
24, 244453, Note_off_c, 10, 69, 64
24, 244525, Note_on_c, 10, 69, 70
24, 244669, Note_off_c, 10, 69, 64
24, 244763, Note_on_c, 10, 69, 60
24, 244831, Note_off_c, 10, 69, 64
24, 244910, Note_on_c, 10, 69, 70
24, 245026, Note_off_c, 10, 69, 64
24, 245137, Note_on_c, 10, 69, 62
24, 245211, Note_off_c, 10, 69, 64
24, 245272, Note_on_c, 10, 69, 87
24, 245436, Note_off_c, 10, 69, 64
24, 245866, Note_on_c, 10, 57, 57
24, 245933, Note_off_c, 10, 57, 64
24, 245990, Note_on_c, 10, 57, 76
24, 246114, Note_off_c, 10, 57, 64
24, 246210, Note_on_c, 10, 57, 60
24, 246278, Note_off_c, 10, 57, 64
24, 246341, Note_on_c, 10, 57, 89
24, 246507, Note_off_c, 10, 57, 64
24, 267443, Note_on_c, 10, 64, 59
24, 267506, Note_off_c, 10, 64, 64
24, 267569, Note_on_c, 10, 64, 63
24, 267698, Note_off_c, 10, 64, 64
24, 267810, Note_on_c, 10, 64, 55
24, 267875, Note_off_c, 10, 64, 64
24, 267936, Note_on_c, 10, 64, 60
24, 268066, Note_off_c, 10, 64, 64
24, 268163, Note_on_c, 10, 64, 59
24, 268233, Note_off_c, 10, 64, 64
24, 268290, Note_on_c, 10, 64, 63
24, 268433, Note_off_c, 10, 64, 64
24, 268514, Note_on_c, 10, 64, 59
24, 268584, Note_off_c, 10, 64, 64
24, 268649, Note_on_c, 10, 64, 63
24, 268793, Note_off_c, 10, 64, 64
24, 268886, Note_on_c, 10, 64, 58
24, 268951, Note_off_c, 10, 64, 64
24, 269019, Note_on_c, 10, 64, 78
24, 269149, Note_off_c, 10, 64, 64
24, 269237, Note_on_c, 10, 64, 68
24, 269305, Note_off_c, 10, 64, 64
24, 269365, Note_on_c, 10, 64, 85
24, 269468, Note_on_c, 10, 71, 78
24, 269477, Note_off_c, 10, 64, 64
24, 269556, Note_off_c, 10, 71, 64
24, 269569, Note_on_c, 10, 69, 60
24, 269631, Note_off_c, 10, 69, 64
24, 269703, Note_on_c, 10, 71, 82
24, 269847, Note_off_c, 10, 71, 64
24, 269936, Note_on_c, 10, 69, 63
24, 270004, Note_off_c, 10, 69, 64
24, 270060, Note_on_c, 10, 71, 82
24, 270182, Note_off_c, 10, 71, 64
24, 270265, Note_on_c, 10, 68, 60
24, 270337, Note_off_c, 10, 68, 64
24, 270413, Note_on_c, 10, 69, 91
24, 270525, Note_on_c, 10, 68, 68
24, 270537, Note_off_c, 10, 69, 64
24, 270612, Note_off_c, 10, 68, 64
24, 270641, Note_on_c, 10, 69, 62
24, 270704, Note_off_c, 10, 69, 64
24, 270778, Note_on_c, 10, 69, 74
24, 270920, Note_off_c, 10, 69, 64
24, 271005, Note_on_c, 10, 73, 57
24, 271068, Note_off_c, 10, 73, 64
24, 271136, Note_on_c, 10, 71, 80
24, 271255, Note_off_c, 10, 71, 64
24, 271365, Note_on_c, 10, 69, 66
24, 271424, Note_off_c, 10, 69, 64
24, 271511, Note_on_c, 10, 69, 89
24, 271629, Note_on_c, 10, 71, 66
24, 271651, Note_off_c, 10, 69, 64
24, 271718, Note_off_c, 10, 71, 64
24, 271746, Note_on_c, 10, 69, 64
24, 271800, Note_off_c, 10, 69, 64
24, 271876, Note_on_c, 10, 68, 82
24, 271977, Note_on_c, 10, 69, 66
24, 272004, Note_off_c, 10, 68, 64
24, 272056, Note_off_c, 10, 69, 64
24, 272110, Note_on_c, 10, 66, 66
24, 272162, Note_off_c, 10, 66, 64
24, 272243, Note_on_c, 10, 66, 87
24, 272346, Note_on_c, 10, 68, 63
24, 272364, Note_off_c, 10, 66, 64
24, 272430, Note_off_c, 10, 68, 64
24, 272459, Note_on_c, 10, 64, 68
24, 272533, Note_off_c, 10, 64, 64
24, 272603, Note_on_c, 10, 64, 85
24, 272755, Note_off_c, 10, 64, 64
24, 272830, Note_on_c, 10, 76, 70
24, 272898, Note_off_c, 10, 76, 64
24, 272947, Note_on_c, 10, 71, 82
24, 273073, Note_off_c, 10, 71, 64
24, 273178, Note_on_c, 10, 68, 63
24, 273280, Note_off_c, 10, 68, 64
24, 273314, Note_on_c, 10, 64, 82
24, 273444, Note_off_c, 10, 64, 64
24, 273539, Note_on_c, 10, 64, 64
24, 273611, Note_off_c, 10, 64, 64
24, 273690, Note_on_c, 10, 64, 89
24, 273806, Note_on_c, 10, 69, 74
24, 273810, Note_off_c, 10, 64, 64
24, 273908, Note_off_c, 10, 69, 64
24, 273921, Note_on_c, 10, 71, 68
24, 273970, Note_off_c, 10, 71, 64
24, 274052, Note_on_c, 10, 73, 95
24, 274157, Note_on_c, 10, 74, 70
24, 274182, Note_off_c, 10, 73, 64
24, 274238, Note_off_c, 10, 74, 64
24, 274268, Note_on_c, 10, 71, 60
24, 274317, Note_off_c, 10, 71, 64
24, 274401, Note_on_c, 10, 71, 87
24, 274512, Note_on_c, 10, 73, 58
24, 274524, Note_off_c, 10, 71, 64
24, 274598, Note_off_c, 10, 73, 64
24, 274623, Note_on_c, 10, 69, 55
24, 274684, Note_off_c, 10, 69, 64
24, 274774, Note_on_c, 10, 69, 62
24, 274918, Note_off_c, 10, 69, 64
24, 275014, Note_on_c, 10, 69, 60
24, 275064, Note_off_c, 10, 69, 64
24, 275139, Note_on_c, 10, 69, 66
24, 275305, Note_off_c, 10, 69, 64
24, 275376, Note_on_c, 10, 69, 63
24, 275445, Note_off_c, 10, 69, 64
24, 275502, Note_on_c, 10, 69, 72
24, 275634, Note_off_c, 10, 69, 64
24, 275714, Note_on_c, 10, 69, 60
24, 275780, Note_off_c, 10, 69, 64
24, 275849, Note_on_c, 10, 69, 82
24, 275969, Note_on_c, 10, 66, 70
24, 275979, Note_off_c, 10, 69, 64
24, 276084, Note_on_c, 10, 68, 78
24, 276097, Note_off_c, 10, 66, 64
24, 276165, Note_off_c, 10, 68, 64
24, 276218, Note_on_c, 10, 69, 98
24, 276331, Note_on_c, 10, 78, 63
24, 276349, Note_off_c, 10, 69, 64
24, 276412, Note_off_c, 10, 78, 64
24, 276459, Note_on_c, 10, 68, 78
24, 276520, Note_off_c, 10, 68, 64
24, 276581, Note_on_c, 10, 69, 68
24, 276704, Note_on_c, 10, 68, 53
24, 276718, Note_off_c, 10, 69, 64
24, 276803, Note_off_c, 10, 68, 64
24, 276822, Note_on_c, 10, 66, 57
24, 276889, Note_off_c, 10, 66, 64
24, 276943, Note_on_c, 10, 68, 76
24, 277047, Note_on_c, 10, 64, 64
24, 277056, Note_off_c, 10, 68, 64
24, 277137, Note_off_c, 10, 64, 64
24, 277170, Note_on_c, 10, 66, 74
24, 277231, Note_off_c, 10, 66, 64
24, 277296, Note_on_c, 10, 67, 91
24, 277397, Note_on_c, 10, 76, 66
24, 277411, Note_off_c, 10, 67, 64
24, 277454, Note_off_c, 10, 76, 64
24, 277521, Note_on_c, 10, 66, 85
24, 277578, Note_off_c, 10, 66, 64
24, 277649, Note_on_c, 10, 67, 89
24, 277755, Note_on_c, 10, 66, 74
24, 277769, Note_off_c, 10, 67, 64
24, 277866, Note_off_c, 10, 66, 64
24, 277870, Note_on_c, 10, 64, 76
24, 277949, Note_off_c, 10, 64, 64
24, 278009, Note_on_c, 10, 66, 91
24, 278102, Note_off_c, 10, 66, 64
24, 278228, Note_on_c, 10, 78, 63
24, 278286, Note_off_c, 10, 78, 64
24, 278363, Note_on_c, 10, 78, 100
24, 278468, Note_on_c, 10, 79, 76
24, 278502, Note_off_c, 10, 78, 64
24, 278540, Note_off_c, 10, 79, 64
24, 278592, Note_on_c, 10, 76, 58
24, 278630, Note_off_c, 10, 76, 64
24, 278720, Note_on_c, 10, 76, 98
24, 278828, Note_on_c, 10, 78, 57
24, 278851, Note_off_c, 10, 76, 64
24, 278904, Note_off_c, 10, 78, 64
24, 278948, Note_on_c, 10, 75, 76
24, 279000, Note_off_c, 10, 75, 64
24, 279083, Note_on_c, 10, 75, 95
24, 279195, Note_on_c, 10, 71, 66
24, 279240, Note_off_c, 10, 75, 64
24, 279303, Note_on_c, 10, 73, 59
24, 279312, Note_off_c, 10, 71, 64
24, 279400, Note_off_c, 10, 73, 64
24, 279429, Note_on_c, 10, 75, 80
24, 279544, Note_on_c, 10, 76, 66
24, 279548, Note_off_c, 10, 75, 64
24, 279643, Note_off_c, 10, 76, 64
24, 279672, Note_on_c, 10, 78, 70
24, 279737, Note_off_c, 10, 78, 64
24, 279800, Note_on_c, 10, 71, 89
24, 279915, Note_off_c, 10, 71, 64
24, 280041, Note_on_c, 10, 75, 74
24, 280125, Note_off_c, 10, 75, 64
24, 280161, Note_on_c, 10, 64, 76
24, 280269, Note_on_c, 10, 68, 72
24, 280287, Note_off_c, 10, 64, 64
24, 280381, Note_on_c, 10, 71, 82
24, 280390, Note_off_c, 10, 68, 64
24, 280440, Note_off_c, 10, 71, 64
24, 280512, Note_on_c, 10, 76, 85
24, 280631, Note_on_c, 10, 78, 82
24, 280651, Note_off_c, 10, 76, 64
24, 280718, Note_off_c, 10, 78, 64
24, 280739, Note_on_c, 10, 74, 64
24, 280791, Note_off_c, 10, 74, 64
24, 280869, Note_on_c, 10, 74, 102
24, 280975, Note_on_c, 10, 76, 68
24, 280989, Note_off_c, 10, 74, 64
24, 281043, Note_off_c, 10, 76, 64
24, 281096, Note_on_c, 10, 73, 89
24, 281157, Note_off_c, 10, 73, 64
24, 281231, Note_on_c, 10, 73, 98
24, 281333, Note_on_c, 10, 69, 72
24, 281368, Note_off_c, 10, 73, 64
24, 281427, Note_off_c, 10, 69, 64
24, 281452, Note_on_c, 10, 71, 80
24, 281537, Note_off_c, 10, 71, 64
24, 281574, Note_on_c, 10, 73, 87
24, 281684, Note_on_c, 10, 74, 80
24, 281722, Note_off_c, 10, 73, 64
24, 281800, Note_off_c, 10, 74, 64
24, 281807, Note_on_c, 10, 76, 78
24, 281870, Note_off_c, 10, 76, 64
24, 281925, Note_on_c, 10, 69, 91
24, 282057, Note_off_c, 10, 69, 64
24, 282149, Note_on_c, 10, 73, 80
24, 282230, Note_off_c, 10, 73, 64
24, 282293, Note_on_c, 10, 62, 89
24, 282393, Note_on_c, 10, 66, 72
24, 282412, Note_off_c, 10, 62, 64
24, 282503, Note_on_c, 10, 69, 87
24, 282527, Note_off_c, 10, 66, 64
24, 282586, Note_off_c, 10, 69, 64
24, 282640, Note_on_c, 10, 74, 89
24, 282755, Note_on_c, 10, 76, 82
24, 282794, Note_off_c, 10, 74, 64
24, 282824, Note_off_c, 10, 76, 64
24, 282878, Note_on_c, 10, 73, 82
24, 282942, Note_off_c, 10, 73, 64
24, 283011, Note_on_c, 10, 73, 102
24, 283117, Note_on_c, 10, 74, 76
24, 283157, Note_off_c, 10, 73, 64
24, 283215, Note_off_c, 10, 74, 64
24, 283232, Note_on_c, 10, 71, 76
24, 283286, Note_off_c, 10, 71, 64
24, 283369, Note_on_c, 10, 71, 89
24, 283475, Note_on_c, 10, 73, 68
24, 283508, Note_off_c, 10, 71, 64
24, 283594, Note_off_c, 10, 73, 64
24, 283599, Note_on_c, 10, 74, 82
24, 283671, Note_off_c, 10, 74, 64
24, 283738, Note_on_c, 10, 76, 98
24, 283848, Note_on_c, 10, 78, 66
24, 283871, Note_off_c, 10, 76, 64
24, 283943, Note_off_c, 10, 78, 64
24, 283956, Note_on_c, 10, 74, 70
24, 284008, Note_off_c, 10, 74, 64
24, 284100, Note_on_c, 10, 74, 98
24, 284208, Note_on_c, 10, 76, 64
24, 284229, Note_off_c, 10, 74, 64
24, 284298, Note_off_c, 10, 76, 64
24, 284332, Note_on_c, 10, 73, 61
24, 284393, Note_off_c, 10, 73, 64
24, 284463, Note_on_c, 10, 73, 95
24, 284575, Note_on_c, 10, 74, 68
24, 284591, Note_off_c, 10, 73, 64
24, 284701, Note_on_c, 10, 76, 85
24, 284723, Note_off_c, 10, 74, 64
24, 284764, Note_off_c, 10, 76, 64
24, 284831, Note_on_c, 10, 78, 102
24, 284935, Note_on_c, 10, 79, 72
24, 284967, Note_off_c, 10, 78, 64
24, 285025, Note_off_c, 10, 79, 64
24, 285057, Note_on_c, 10, 76, 72
24, 285113, Note_off_c, 10, 76, 64
24, 285189, Note_on_c, 10, 76, 87
24, 285302, Note_on_c, 10, 78, 66
24, 285315, Note_off_c, 10, 76, 64
24, 285394, Note_off_c, 10, 78, 64
24, 285423, Note_on_c, 10, 74, 54
24, 285480, Note_off_c, 10, 74, 64
24, 285552, Note_on_c, 10, 74, 66
24, 285702, Note_off_c, 10, 74, 64
24, 285794, Note_on_c, 10, 74, 66
24, 285858, Note_off_c, 10, 74, 64
24, 285921, Note_on_c, 10, 74, 68
24, 286069, Note_off_c, 10, 74, 64
24, 286139, Note_on_c, 10, 74, 76
24, 286208, Note_off_c, 10, 74, 64
24, 286267, Note_on_c, 10, 74, 80
24, 286440, Note_off_c, 10, 74, 64
24, 286505, Note_on_c, 10, 74, 85
24, 286569, Note_off_c, 10, 74, 64
24, 286632, Note_on_c, 10, 74, 93
24, 286748, Note_on_c, 10, 71, 72
24, 286789, Note_off_c, 10, 74, 64
24, 286865, Note_on_c, 10, 73, 72
24, 286902, Note_off_c, 10, 71, 64
24, 286947, Note_off_c, 10, 73, 64
24, 286991, Note_on_c, 10, 74, 100
24, 287093, Note_on_c, 10, 76, 72
24, 287111, Note_off_c, 10, 74, 64
24, 287163, Note_off_c, 10, 76, 64
24, 287208, Note_on_c, 10, 73, 98
24, 287273, Note_off_c, 10, 73, 64
24, 287336, Note_on_c, 10, 74, 87
24, 287455, Note_on_c, 10, 73, 74
24, 287489, Note_off_c, 10, 74, 64
24, 287570, Note_on_c, 10, 71, 70
24, 287583, Note_off_c, 10, 73, 64
24, 287636, Note_off_c, 10, 71, 64
24, 287698, Note_on_c, 10, 73, 102
24, 287801, Note_on_c, 10, 76, 82
24, 287833, Note_off_c, 10, 73, 64
24, 287887, Note_off_c, 10, 76, 64
24, 287919, Note_on_c, 10, 74, 87
24, 288002, Note_off_c, 10, 74, 64
24, 288054, Note_on_c, 10, 76, 93
24, 288204, Note_off_c, 10, 76, 64
24, 288287, Note_on_c, 10, 69, 80
24, 288342, Note_off_c, 10, 69, 64
24, 288418, Note_on_c, 10, 64, 80
24, 288551, Note_off_c, 10, 64, 64
24, 288638, Note_on_c, 10, 68, 82
24, 288708, Note_off_c, 10, 68, 64
24, 288780, Note_on_c, 10, 64, 85
24, 288940, Note_off_c, 10, 64, 64
24, 301999, Note_on_c, 10, 66, 57
24, 302046, Note_off_c, 10, 66, 64
24, 302125, Note_on_c, 10, 66, 64
24, 302262, Note_off_c, 10, 66, 64
24, 302361, Note_on_c, 10, 66, 57
24, 302421, Note_off_c, 10, 66, 64
24, 302498, Note_on_c, 10, 66, 62
24, 302643, Note_off_c, 10, 66, 64
24, 302728, Note_on_c, 10, 66, 53
24, 302789, Note_off_c, 10, 66, 64
24, 302867, Note_on_c, 10, 66, 63
24, 303002, Note_off_c, 10, 66, 64
24, 303228, Note_on_c, 10, 62, 72
24, 303353, Note_off_c, 10, 62, 64
24, 303570, Note_on_c, 10, 66, 68
24, 303704, Note_off_c, 10, 66, 64
24, 303934, Note_on_c, 10, 71, 80
24, 304079, Note_off_c, 10, 71, 64
24, 304296, Note_on_c, 10, 70, 78
24, 304429, Note_off_c, 10, 70, 64
24, 304650, Note_on_c, 10, 71, 68
24, 304778, Note_off_c, 10, 71, 64
24, 305003, Note_on_c, 10, 73, 87
24, 305108, Note_on_c, 10, 71, 63
24, 305142, Note_off_c, 10, 73, 64
24, 305208, Note_off_c, 10, 71, 64
24, 305230, Note_on_c, 10, 73, 64
24, 305295, Note_off_c, 10, 73, 64
24, 305356, Note_on_c, 10, 73, 87
24, 305475, Note_off_c, 10, 73, 64
24, 305577, Note_on_c, 10, 71, 57
24, 305631, Note_off_c, 10, 71, 64
24, 305709, Note_on_c, 10, 71, 82
24, 305844, Note_off_c, 10, 71, 64
24, 305930, Note_on_c, 10, 70, 63
24, 306007, Note_off_c, 10, 70, 64
24, 306078, Note_on_c, 10, 71, 85
24, 306207, Note_off_c, 10, 71, 64
24, 306432, Note_on_c, 10, 71, 82
24, 306567, Note_off_c, 10, 71, 64
24, 306794, Note_on_c, 10, 75, 78
24, 306920, Note_off_c, 10, 75, 64
24, 307149, Note_on_c, 10, 76, 95
24, 307340, Note_off_c, 10, 76, 64
24, 307737, Note_on_c, 10, 71, 76
24, 307829, Note_off_c, 10, 71, 64
24, 307851, Note_on_c, 10, 73, 72
24, 307982, Note_off_c, 10, 73, 64
24, 308097, Note_on_c, 10, 75, 68
24, 308190, Note_off_c, 10, 75, 64
24, 308234, Note_on_c, 10, 76, 85
24, 308351, Note_off_c, 10, 76, 64
24, 308450, Note_on_c, 10, 71, 76
24, 308533, Note_off_c, 10, 71, 64
24, 308596, Note_on_c, 10, 70, 74
24, 308722, Note_off_c, 10, 70, 64
24, 308828, Note_on_c, 10, 71, 70
24, 308918, Note_off_c, 10, 71, 64
24, 308956, Note_on_c, 10, 73, 82
24, 309077, Note_off_c, 10, 73, 64
24, 309195, Note_on_c, 10, 76, 68
24, 309267, Note_off_c, 10, 76, 64
24, 309330, Note_on_c, 10, 73, 89
24, 309438, Note_on_c, 10, 74, 80
24, 309458, Note_off_c, 10, 73, 64
24, 309545, Note_off_c, 10, 74, 64
24, 309557, Note_on_c, 10, 76, 63
24, 309609, Note_off_c, 10, 76, 64
24, 309691, Note_on_c, 10, 73, 100
24, 309793, Note_on_c, 10, 74, 76
24, 309822, Note_off_c, 10, 73, 64
24, 309865, Note_off_c, 10, 74, 64
24, 309917, Note_on_c, 10, 71, 85
24, 309964, Note_off_c, 10, 71, 64
24, 310045, Note_on_c, 10, 71, 98
24, 310155, Note_on_c, 10, 73, 58
24, 310175, Note_off_c, 10, 71, 64
24, 310259, Note_off_c, 10, 73, 64
24, 310268, Note_on_c, 10, 70, 63
24, 310340, Note_off_c, 10, 70, 64
24, 310401, Note_on_c, 10, 71, 89
24, 310517, Note_off_c, 10, 71, 64
24, 310639, Note_on_c, 10, 71, 76
24, 310706, Note_off_c, 10, 71, 64
24, 310769, Note_on_c, 10, 67, 98
24, 310878, Note_on_c, 10, 66, 64
24, 310907, Note_off_c, 10, 67, 64
24, 310981, Note_off_c, 10, 66, 64
24, 310986, Note_on_c, 10, 64, 59
24, 311035, Note_off_c, 10, 64, 64
24, 311122, Note_on_c, 10, 64, 87
24, 311224, Note_on_c, 10, 62, 74
24, 311237, Note_off_c, 10, 64, 64
24, 311343, Note_on_c, 10, 61, 68
24, 311344, Note_off_c, 10, 62, 64
24, 311413, Note_off_c, 10, 61, 64
24, 311494, Note_on_c, 10, 62, 98
24, 311602, Note_on_c, 10, 64, 78
24, 311625, Note_off_c, 10, 62, 64
24, 311679, Note_off_c, 10, 64, 64
24, 311723, Note_on_c, 10, 66, 82
24, 311781, Note_off_c, 10, 66, 64
24, 311858, Note_on_c, 10, 66, 100
24, 311949, Note_on_c, 10, 67, 70
24, 311980, Note_off_c, 10, 66, 64
24, 312030, Note_off_c, 10, 67, 64
24, 312079, Note_on_c, 10, 64, 76
24, 312126, Note_off_c, 10, 64, 64
24, 312210, Note_on_c, 10, 64, 87
24, 312313, Note_on_c, 10, 66, 61
24, 312331, Note_off_c, 10, 64, 64
24, 312387, Note_off_c, 10, 66, 64
24, 312434, Note_on_c, 10, 62, 76
24, 312486, Note_off_c, 10, 62, 64
24, 312567, Note_on_c, 10, 62, 91
24, 312684, Note_on_c, 10, 64, 72
24, 312707, Note_off_c, 10, 62, 64
24, 312767, Note_off_c, 10, 64, 64
24, 312812, Note_on_c, 10, 66, 80
24, 312870, Note_off_c, 10, 66, 64
24, 312939, Note_on_c, 10, 66, 100
24, 313042, Note_on_c, 10, 67, 74
24, 313074, Note_off_c, 10, 66, 64
24, 313109, Note_off_c, 10, 67, 64
24, 313164, Note_on_c, 10, 64, 76
24, 313217, Note_off_c, 10, 64, 64
24, 313294, Note_on_c, 10, 64, 89
24, 313386, Note_on_c, 10, 66, 63
24, 313406, Note_off_c, 10, 64, 64
24, 313463, Note_off_c, 10, 66, 64
24, 313503, Note_on_c, 10, 62, 74
24, 313566, Note_off_c, 10, 62, 64
24, 313661, Note_on_c, 10, 62, 85
24, 314035, Note_off_c, 10, 62, 64
24, 333470, Note_on_c, 10, 60, 80
24, 333591, Note_off_c, 10, 60, 64
24, 333812, Note_on_c, 10, 62, 80
24, 333931, Note_off_c, 10, 62, 64
24, 334170, Note_on_c, 10, 55, 64
24, 334313, Note_off_c, 10, 55, 64
24, 334539, Note_on_c, 10, 62, 85
24, 334676, Note_off_c, 10, 62, 64
24, 334872, Note_on_c, 10, 64, 80
24, 335006, Note_off_c, 10, 64, 64
24, 335259, Note_on_c, 10, 57, 63
24, 335400, Note_off_c, 10, 57, 64
24, 335614, Note_on_c, 10, 64, 87
24, 335744, Note_off_c, 10, 64, 64
24, 335967, Note_on_c, 10, 66, 74
24, 336084, Note_off_c, 10, 66, 64
24, 336325, Note_on_c, 10, 59, 72
24, 336455, Note_off_c, 10, 59, 64
24, 336564, Note_on_c, 10, 67, 76
24, 336636, Note_off_c, 10, 67, 64
24, 336698, Note_on_c, 10, 67, 93
24, 336807, Note_on_c, 10, 69, 80
24, 336838, Note_off_c, 10, 67, 64
24, 336872, Note_off_c, 10, 69, 64
24, 336926, Note_on_c, 10, 66, 64
24, 336977, Note_off_c, 10, 66, 64
24, 337061, Note_on_c, 10, 66, 98
24, 337173, Note_on_c, 10, 67, 78
24, 337205, Note_off_c, 10, 66, 64
24, 337252, Note_off_c, 10, 67, 64
24, 337279, Note_on_c, 10, 64, 63
24, 337335, Note_off_c, 10, 64, 64
24, 337419, Note_on_c, 10, 64, 93
24, 337520, Note_on_c, 10, 66, 64
24, 337569, Note_off_c, 10, 64, 64
24, 337637, Note_on_c, 10, 67, 85
24, 337643, Note_off_c, 10, 66, 64
24, 337740, Note_off_c, 10, 67, 64
24, 337767, Note_on_c, 10, 69, 85
24, 337886, Note_on_c, 10, 71, 82
24, 337920, Note_off_c, 10, 69, 64
24, 337956, Note_off_c, 10, 71, 64
24, 338004, Note_on_c, 10, 67, 85
24, 338071, Note_off_c, 10, 67, 64
24, 338130, Note_on_c, 10, 67, 100
24, 338240, Note_on_c, 10, 69, 72
24, 338264, Note_off_c, 10, 67, 64
24, 338337, Note_off_c, 10, 69, 64
24, 338346, Note_on_c, 10, 66, 64
24, 338438, Note_off_c, 10, 66, 64
24, 338498, Note_on_c, 10, 66, 78
24, 338656, Note_off_c, 10, 66, 64
24, 338852, Note_on_c, 10, 71, 80
24, 339624, Note_off_c, 10, 71, 64
24, 339678, Note_on_c, 10, 64, 66
24, 339785, Note_on_c, 10, 66, 63
24, 339801, Note_off_c, 10, 64, 64
24, 339875, Note_off_c, 10, 66, 64
24, 339929, Note_on_c, 10, 68, 100
24, 340033, Note_on_c, 10, 76, 82
24, 340049, Note_off_c, 10, 68, 64
24, 340117, Note_off_c, 10, 76, 64
24, 340150, Note_on_c, 10, 66, 80
24, 340224, Note_off_c, 10, 66, 64
24, 340276, Note_on_c, 10, 68, 98
24, 340391, Note_on_c, 10, 66, 64
24, 340416, Note_off_c, 10, 68, 64
24, 340492, Note_off_c, 10, 66, 64
24, 340496, Note_on_c, 10, 64, 68
24, 340569, Note_off_c, 10, 64, 64
24, 340644, Note_on_c, 10, 69, 85
24, 341729, Note_off_c, 10, 69, 64
24, 341862, Note_on_c, 10, 62, 80
24, 341973, Note_on_c, 10, 64, 91
24, 341993, Note_off_c, 10, 62, 64
24, 342067, Note_off_c, 10, 64, 64
24, 342096, Note_on_c, 10, 66, 95
24, 342207, Note_on_c, 10, 74, 91
24, 342213, Note_off_c, 10, 66, 64
24, 342288, Note_off_c, 10, 74, 64
24, 342321, Note_on_c, 10, 64, 85
24, 342392, Note_off_c, 10, 64, 64
24, 342436, Note_on_c, 10, 66, 91
24, 342558, Note_on_c, 10, 64, 68
24, 342591, Note_off_c, 10, 66, 64
24, 342668, Note_off_c, 10, 64, 64
24, 342671, Note_on_c, 10, 62, 82
24, 342746, Note_off_c, 10, 62, 64
24, 342801, Note_on_c, 10, 67, 80
24, 342947, Note_off_c, 10, 67, 64
24, 343163, Note_on_c, 10, 74, 82
24, 344898, Note_off_c, 10, 74, 64
24, 344958, Note_on_c, 10, 74, 80
24, 345071, Note_on_c, 10, 73, 51
24, 345091, Note_off_c, 10, 74, 64
24, 345136, Note_on_c, 10, 74, 68
24, 345145, Note_off_c, 10, 73, 64
24, 345195, Note_on_c, 10, 73, 57
24, 345206, Note_off_c, 10, 74, 64
24, 345240, Note_on_c, 10, 74, 66
24, 345249, Note_off_c, 10, 73, 64
24, 345289, Note_on_c, 10, 73, 57
24, 345296, Note_off_c, 10, 74, 64
24, 345332, Note_on_c, 10, 74, 66
24, 345338, Note_off_c, 10, 73, 64
24, 345386, Note_on_c, 10, 73, 57
24, 345393, Note_off_c, 10, 74, 64
24, 345434, Note_on_c, 10, 74, 70
24, 345438, Note_off_c, 10, 73, 64
24, 345483, Note_on_c, 10, 73, 56
24, 345498, Note_off_c, 10, 74, 64
24, 345537, Note_off_c, 10, 73, 64
24, 345541, Note_on_c, 10, 74, 66
24, 345586, Note_on_c, 10, 73, 57
24, 345597, Note_off_c, 10, 74, 64
24, 345640, Note_off_c, 10, 73, 64
24, 345640, Note_on_c, 10, 74, 72
24, 345687, Note_on_c, 10, 73, 55
24, 345698, Note_off_c, 10, 74, 64
24, 345735, Note_on_c, 10, 74, 80
24, 345741, Note_off_c, 10, 73, 64
24, 345789, Note_off_c, 10, 74, 64
24, 345789, Note_on_c, 10, 73, 51
24, 345834, Note_on_c, 10, 74, 68
24, 345878, Note_off_c, 10, 74, 64
24, 345892, Note_on_c, 10, 71, 66
24, 345924, Note_off_c, 10, 73, 64
24, 345959, Note_on_c, 10, 73, 63
24, 346002, Note_off_c, 10, 71, 64
24, 346032, Note_off_c, 10, 73, 64
24, 346070, Note_on_c, 10, 74, 93
24, 346182, Note_on_c, 10, 71, 70
24, 346191, Note_off_c, 10, 74, 64
24, 346268, Note_off_c, 10, 71, 64
24, 346292, Note_on_c, 10, 73, 70
24, 346400, Note_off_c, 10, 73, 64
24, 346414, Note_on_c, 10, 74, 93
24, 346527, Note_on_c, 10, 76, 82
24, 346553, Note_off_c, 10, 74, 64
24, 346621, Note_off_c, 10, 76, 64
24, 346641, Note_on_c, 10, 73, 62
24, 346709, Note_off_c, 10, 73, 64
24, 346767, Note_on_c, 10, 74, 98
24, 346880, Note_on_c, 10, 73, 66
24, 346898, Note_off_c, 10, 74, 64
24, 346968, Note_off_c, 10, 73, 64
24, 346983, Note_on_c, 10, 71, 70
24, 347075, Note_off_c, 10, 71, 64
24, 347125, Note_on_c, 10, 76, 89
24, 347267, Note_off_c, 10, 76, 64
24, 347500, Note_on_c, 10, 69, 85
24, 348336, Note_on_c, 10, 62, 82
24, 348342, Note_off_c, 10, 69, 64
24, 348410, Note_off_c, 10, 62, 64
24, 348446, Note_on_c, 10, 65, 85
24, 348516, Note_off_c, 10, 65, 64
24, 348579, Note_on_c, 10, 65, 105
24, 348689, Note_on_c, 10, 67, 82
24, 348718, Note_off_c, 10, 65, 64
24, 348779, Note_off_c, 10, 67, 64
24, 348803, Note_on_c, 10, 64, 64
24, 348860, Note_off_c, 10, 64, 64
24, 348940, Note_on_c, 10, 64, 95
24, 349038, Note_on_c, 10, 65, 74
24, 349064, Note_off_c, 10, 64, 64
24, 349139, Note_off_c, 10, 65, 64
24, 349151, Note_on_c, 10, 62, 70
24, 349227, Note_off_c, 10, 62, 64
24, 349285, Note_on_c, 10, 62, 95
24, 349388, Note_on_c, 10, 64, 80
24, 349427, Note_off_c, 10, 62, 64
24, 349514, Note_on_c, 10, 65, 87
24, 349537, Note_off_c, 10, 64, 64
24, 349627, Note_off_c, 10, 65, 64
24, 349642, Note_on_c, 10, 67, 87
24, 349757, Note_on_c, 10, 69, 82
24, 349780, Note_off_c, 10, 67, 64
24, 349827, Note_off_c, 10, 69, 64
24, 349870, Note_on_c, 10, 65, 74
24, 349935, Note_off_c, 10, 65, 64
24, 350001, Note_on_c, 10, 65, 98
24, 350111, Note_on_c, 10, 67, 70
24, 350131, Note_off_c, 10, 65, 64
24, 350192, Note_off_c, 10, 67, 64
24, 350225, Note_on_c, 10, 64, 68
24, 350297, Note_off_c, 10, 64, 64
24, 350376, Note_on_c, 10, 64, 82
24, 350538, Note_off_c, 10, 64, 64
24, 350738, Note_on_c, 10, 71, 78
24, 351639, Note_off_c, 10, 71, 64
24, 351683, Note_on_c, 10, 69, 80
24, 351752, Note_off_c, 10, 69, 64
24, 351821, Note_on_c, 10, 69, 105
24, 351926, Note_on_c, 10, 71, 68
24, 351947, Note_off_c, 10, 69, 64
24, 352017, Note_off_c, 10, 71, 64
24, 352017, Note_on_c, 10, 67, 68
24, 352077, Note_off_c, 10, 67, 64
24, 352156, Note_on_c, 10, 67, 93
24, 352260, Note_on_c, 10, 69, 64
24, 352287, Note_off_c, 10, 67, 64
24, 352359, Note_off_c, 10, 69, 64
24, 352385, Note_on_c, 10, 66, 70
24, 352449, Note_off_c, 10, 66, 64
24, 352511, Note_on_c, 10, 66, 89
24, 352615, Note_on_c, 10, 69, 66
24, 352633, Note_off_c, 10, 66, 64
24, 352703, Note_off_c, 10, 69, 64
24, 352725, Note_on_c, 10, 67, 80
24, 352799, Note_off_c, 10, 67, 64
24, 352862, Note_on_c, 10, 69, 100
24, 353025, Note_off_c, 10, 69, 64
24, 353079, Note_on_c, 10, 71, 82
24, 353139, Note_off_c, 10, 71, 64
24, 353196, Note_on_c, 10, 71, 105
24, 353238, Note_on_c, 10, 69, 85
24, 353250, Note_off_c, 10, 71, 64
24, 353294, Note_off_c, 10, 69, 64
24, 353294, Note_on_c, 10, 71, 78
24, 353330, Note_on_c, 10, 69, 66
24, 353353, Note_off_c, 10, 71, 64
24, 353414, Note_off_c, 10, 69, 64
24, 353427, Note_on_c, 10, 67, 87
24, 353493, Note_off_c, 10, 67, 64
24, 353556, Note_on_c, 10, 66, 82
24, 353852, Note_off_c, 10, 66, 64
24, 375239, Note_on_c, 10, 69, 98
24, 375522, Note_off_c, 10, 69, 64
24, 375911, Note_on_c, 10, 74, 98
24, 375952, Note_off_c, 10, 74, 64
24, 375972, Note_on_c, 10, 74, 100
24, 376048, Note_off_c, 10, 74, 64
24, 376158, Note_on_c, 10, 69, 82
24, 376192, Note_off_c, 10, 69, 64
24, 376221, Note_on_c, 10, 69, 100
24, 376675, Note_off_c, 10, 69, 64
24, 376851, Note_on_c, 10, 78, 78
24, 376887, Note_off_c, 10, 78, 64
24, 376910, Note_on_c, 10, 78, 93
24, 376975, Note_off_c, 10, 78, 64
24, 377086, Note_on_c, 10, 72, 82
24, 377118, Note_off_c, 10, 72, 64
24, 377158, Note_on_c, 10, 72, 100
24, 377640, Note_off_c, 10, 72, 64
24, 377812, Note_on_c, 10, 78, 82
24, 377843, Note_off_c, 10, 78, 64
24, 377870, Note_on_c, 10, 78, 95
24, 377950, Note_off_c, 10, 78, 64
24, 378050, Note_on_c, 10, 75, 68
24, 378099, Note_off_c, 10, 75, 64
24, 378114, Note_on_c, 10, 76, 95
24, 378194, Note_off_c, 10, 76, 64
24, 378238, Note_on_c, 10, 64, 68
24, 378297, Note_off_c, 10, 64, 64
24, 378300, Note_on_c, 10, 66, 91
24, 378345, Note_off_c, 10, 66, 64
24, 378365, Note_on_c, 10, 67, 74
24, 378427, Note_off_c, 10, 67, 64
24, 378431, Note_on_c, 10, 69, 82
24, 378474, Note_off_c, 10, 69, 64
24, 378489, Note_on_c, 10, 71, 85
24, 378547, Note_off_c, 10, 71, 64
24, 378547, Note_on_c, 10, 73, 70
24, 378592, Note_off_c, 10, 73, 64
24, 378606, Note_on_c, 10, 74, 100
24, 378653, Note_off_c, 10, 74, 64
24, 378663, Note_on_c, 10, 73, 80
24, 378703, Note_off_c, 10, 73, 64
24, 378719, Note_on_c, 10, 71, 66
24, 378767, Note_off_c, 10, 71, 64
24, 378772, Note_on_c, 10, 73, 93
24, 378805, Note_off_c, 10, 73, 64
24, 378825, Note_on_c, 10, 74, 89
24, 378870, Note_off_c, 10, 74, 64
24, 378876, Note_on_c, 10, 71, 80
24, 378924, Note_off_c, 10, 71, 64
24, 378940, Note_on_c, 10, 76, 95
24, 378983, Note_off_c, 10, 76, 64
24, 378996, Note_on_c, 10, 71, 91
24, 379038, Note_off_c, 10, 71, 64
24, 379062, Note_on_c, 10, 73, 89
24, 379641, Note_off_c, 10, 73, 64
24, 379714, Note_on_c, 10, 69, 85
24, 379752, Note_off_c, 10, 69, 64
24, 379776, Note_on_c, 10, 69, 95
24, 379864, Note_off_c, 10, 69, 64
24, 379945, Note_on_c, 10, 73, 64
24, 379982, Note_off_c, 10, 73, 64
24, 380004, Note_on_c, 10, 74, 89
24, 380498, Note_off_c, 10, 74, 64
24, 380670, Note_on_c, 10, 81, 87
24, 380704, Note_off_c, 10, 81, 64
24, 380731, Note_on_c, 10, 81, 102
24, 380805, Note_off_c, 10, 81, 64
24, 380909, Note_on_c, 10, 78, 85
24, 380947, Note_off_c, 10, 78, 64
24, 380970, Note_on_c, 10, 74, 80
24, 381467, Note_off_c, 10, 74, 64
24, 381643, Note_on_c, 10, 76, 87
24, 381679, Note_off_c, 10, 76, 64
24, 381702, Note_on_c, 10, 76, 100
24, 381764, Note_off_c, 10, 76, 64
24, 381878, Note_on_c, 10, 71, 82
24, 381922, Note_off_c, 10, 71, 64
24, 381941, Note_on_c, 10, 76, 93
24, 382438, Note_off_c, 10, 76, 64
24, 382601, Note_on_c, 10, 78, 76
24, 382636, Note_off_c, 10, 78, 64
24, 382664, Note_on_c, 10, 78, 95
24, 382739, Note_off_c, 10, 78, 64
24, 382838, Note_on_c, 10, 74, 80
24, 382878, Note_off_c, 10, 74, 64
24, 382907, Note_on_c, 10, 76, 98
24, 383237, Note_off_c, 10, 76, 64
24, 383334, Note_on_c, 10, 76, 80
24, 383370, Note_off_c, 10, 76, 64
24, 383397, Note_on_c, 10, 76, 98
24, 383480, Note_off_c, 10, 76, 64
24, 383637, Note_on_c, 10, 73, 98
24, 383722, Note_off_c, 10, 73, 64
24, 383872, Note_on_c, 10, 74, 98
24, 383963, Note_off_c, 10, 74, 64
24, 384062, Note_on_c, 10, 69, 82
24, 384095, Note_off_c, 10, 69, 64
24, 384121, Note_on_c, 10, 69, 95
24, 384194, Note_off_c, 10, 69, 64
24, 384306, Note_on_c, 10, 66, 95
24, 384339, Note_off_c, 10, 66, 64
24, 384371, Note_on_c, 10, 66, 98
24, 384855, Note_off_c, 10, 66, 64
24, 385005, Note_on_c, 10, 67, 72
24, 385041, Note_off_c, 10, 67, 64
24, 385068, Note_on_c, 10, 67, 89
24, 385158, Note_off_c, 10, 67, 64
24, 385243, Note_on_c, 10, 64, 78
24, 385292, Note_off_c, 10, 64, 64
24, 385307, Note_on_c, 10, 66, 93
24, 385412, Note_off_c, 10, 66, 64
24, 385553, Note_on_c, 10, 70, 93
24, 385650, Note_off_c, 10, 70, 64
24, 385794, Note_on_c, 10, 71, 87
24, 386286, Note_off_c, 10, 71, 64
24, 386459, Note_on_c, 10, 66, 82
24, 386492, Note_off_c, 10, 66, 64
24, 386521, Note_on_c, 10, 66, 98
24, 386605, Note_off_c, 10, 66, 64
24, 386692, Note_on_c, 10, 62, 76
24, 386732, Note_off_c, 10, 62, 64
24, 386759, Note_on_c, 10, 64, 98
24, 387092, Note_off_c, 10, 64, 64
24, 387170, Note_on_c, 10, 62, 70
24, 387192, Note_on_c, 10, 61, 70
24, 387204, Note_off_c, 10, 62, 64
24, 387230, Note_on_c, 10, 62, 89
24, 387234, Note_off_c, 10, 61, 64
24, 387321, Note_off_c, 10, 62, 64
24, 387416, Note_on_c, 10, 62, 85
24, 387457, Note_off_c, 10, 62, 64
24, 387471, Note_on_c, 10, 64, 102
24, 387568, Note_off_c, 10, 64, 64
24, 387654, Note_on_c, 10, 66, 82
24, 387700, Note_off_c, 10, 66, 64
24, 387721, Note_on_c, 10, 61, 93
24, 387810, Note_off_c, 10, 61, 64
24, 387903, Note_on_c, 10, 67, 87
24, 387937, Note_off_c, 10, 67, 64
24, 387961, Note_on_c, 10, 67, 93
24, 388041, Note_off_c, 10, 67, 64
24, 388125, Note_on_c, 10, 64, 82
24, 388165, Note_off_c, 10, 64, 64
24, 388191, Note_on_c, 10, 61, 95
24, 388682, Note_off_c, 10, 61, 64
24, 388846, Note_on_c, 10, 69, 89
24, 388879, Note_off_c, 10, 69, 64
24, 388903, Note_on_c, 10, 69, 102
24, 388981, Note_off_c, 10, 69, 64
24, 389075, Note_on_c, 10, 66, 76
24, 389117, Note_off_c, 10, 66, 64
24, 389140, Note_on_c, 10, 62, 74
24, 389622, Note_off_c, 10, 62, 64
24, 389809, Note_on_c, 10, 70, 93
24, 389846, Note_off_c, 10, 70, 64
24, 389867, Note_on_c, 10, 70, 89
24, 389949, Note_off_c, 10, 70, 64
24, 390039, Note_on_c, 10, 67, 87
24, 390087, Note_off_c, 10, 67, 64
24, 390102, Note_on_c, 10, 64, 87
24, 390585, Note_off_c, 10, 64, 64
24, 390761, Note_on_c, 10, 67, 85
24, 390797, Note_off_c, 10, 67, 64
24, 390820, Note_on_c, 10, 65, 95
24, 391070, Note_off_c, 10, 65, 64
24, 391248, Note_on_c, 10, 65, 85
24, 391286, Note_off_c, 10, 65, 64
24, 391313, Note_on_c, 10, 64, 82
24, 391575, Note_off_c, 10, 64, 64
24, 391727, Note_on_c, 10, 64, 80
24, 391774, Note_off_c, 10, 64, 64
24, 391796, Note_on_c, 10, 62, 85
24, 391899, Note_off_c, 10, 62, 64
24, 391967, Note_on_c, 10, 65, 82
24, 392006, Note_off_c, 10, 65, 64
24, 392034, Note_on_c, 10, 69, 91
24, 392589, Note_off_c, 10, 69, 64
24, 392678, Note_on_c, 10, 66, 89
24, 392717, Note_off_c, 10, 66, 64
24, 392739, Note_on_c, 10, 67, 85
24, 392840, Note_off_c, 10, 67, 64
24, 392916, Note_on_c, 10, 64, 78
24, 392961, Note_off_c, 10, 64, 64
24, 392981, Note_on_c, 10, 66, 93
24, 393067, Note_off_c, 10, 66, 64
24, 393169, Note_on_c, 10, 62, 87
24, 393210, Note_off_c, 10, 62, 64
24, 393225, Note_on_c, 10, 64, 95
24, 393291, Note_off_c, 10, 64, 64
24, 393392, Note_on_c, 10, 71, 78
24, 393443, Note_off_c, 10, 71, 64
24, 393461, Note_on_c, 10, 76, 98
24, 393559, Note_off_c, 10, 76, 64
24, 393636, Note_on_c, 10, 73, 80
24, 393676, Note_off_c, 10, 73, 64
24, 393697, Note_on_c, 10, 74, 93
24, 393786, Note_off_c, 10, 74, 64
24, 393872, Note_on_c, 10, 71, 87
24, 393905, Note_off_c, 10, 71, 64
24, 393943, Note_on_c, 10, 71, 98
24, 394008, Note_on_c, 10, 69, 87
24, 394010, Note_off_c, 10, 71, 64
24, 394037, Note_on_c, 10, 71, 76
24, 394038, Note_off_c, 10, 69, 64
24, 394066, Note_off_c, 10, 71, 64
24, 394066, Note_on_c, 10, 69, 59
24, 394090, Note_off_c, 10, 69, 64
24, 394092, Note_on_c, 10, 71, 74
24, 394106, Note_on_c, 10, 69, 60
24, 394111, Note_off_c, 10, 71, 64
24, 394134, Note_off_c, 10, 69, 64
24, 394134, Note_on_c, 10, 71, 74
24, 394158, Note_on_c, 10, 69, 61
24, 394159, Note_off_c, 10, 71, 64
24, 394177, Note_on_c, 10, 71, 68
24, 394195, Note_off_c, 10, 71, 64
24, 394288, Note_off_c, 10, 69, 64
24, 394367, Note_on_c, 10, 69, 98
24, 394402, Note_off_c, 10, 69, 64
24, 394442, Note_on_c, 10, 69, 102
24, 395429, Note_off_c, 10, 69, 64
24, 395429, End_track
25, 0, Start_track
25, 0, Title_t, "Viola"
25, 0, Program_c, 11, 41
25, 0, Control_c, 11, 7, 100
25, 24656, Note_on_c, 11, 69, 93
25, 24689, Note_off_c, 11, 69, 64
25, 24711, Note_on_c, 11, 69, 100
25, 24782, Note_off_c, 11, 69, 64
25, 24893, Note_on_c, 11, 66, 82
25, 24927, Note_off_c, 11, 66, 64
25, 24954, Note_on_c, 11, 62, 95
25, 25439, Note_off_c, 11, 62, 64
25, 25599, Note_on_c, 11, 67, 91
25, 25634, Note_off_c, 11, 67, 64
25, 25656, Note_on_c, 11, 67, 95
25, 25726, Note_off_c, 11, 67, 64
25, 25837, Note_on_c, 11, 62, 80
25, 25870, Note_off_c, 11, 62, 64
25, 25903, Note_on_c, 11, 62, 93
25, 26399, Note_off_c, 11, 62, 64
25, 26543, Note_on_c, 11, 74, 91
25, 26580, Note_off_c, 11, 74, 64
25, 26607, Note_on_c, 11, 69, 91
25, 26684, Note_off_c, 11, 69, 64
25, 26797, Note_on_c, 11, 69, 85
25, 26834, Note_off_c, 11, 69, 64
25, 26859, Note_on_c, 11, 71, 95
25, 27183, Note_off_c, 11, 71, 64
25, 27282, Note_on_c, 11, 71, 82
25, 27333, Note_off_c, 11, 71, 64
25, 27351, Note_on_c, 11, 69, 105
25, 27422, Note_off_c, 11, 69, 64
25, 27595, Note_on_c, 11, 64, 95
25, 27683, Note_off_c, 11, 64, 64
25, 27838, Note_on_c, 11, 62, 93
25, 27913, Note_off_c, 11, 62, 64
25, 28015, Note_on_c, 11, 66, 95
25, 28047, Note_off_c, 11, 66, 64
25, 28073, Note_on_c, 11, 66, 100
25, 28150, Note_off_c, 11, 66, 64
25, 28243, Note_on_c, 11, 62, 85
25, 28283, Note_off_c, 11, 62, 64
25, 28309, Note_on_c, 11, 57, 98
25, 28811, Note_off_c, 11, 57, 64
25, 28961, Note_on_c, 11, 66, 87
25, 28997, Note_off_c, 11, 66, 64
25, 29020, Note_on_c, 11, 66, 95
25, 29117, Note_off_c, 11, 66, 64
25, 29215, Note_on_c, 11, 63, 61
25, 29253, Note_off_c, 11, 63, 64
25, 29269, Note_on_c, 11, 59, 80
25, 29352, Note_off_c, 11, 59, 64
25, 29452, Note_on_c, 11, 61, 72
25, 29502, Note_off_c, 11, 61, 64
25, 29512, Note_on_c, 11, 63, 91
25, 29571, Note_off_c, 11, 63, 64
25, 29691, Note_on_c, 11, 59, 68
25, 29738, Note_off_c, 11, 59, 64
25, 29758, Note_on_c, 11, 71, 85
25, 30254, Note_off_c, 11, 71, 64
25, 30423, Note_on_c, 11, 64, 78
25, 30464, Note_off_c, 11, 64, 64
25, 30484, Note_on_c, 11, 62, 78
25, 30565, Note_off_c, 11, 62, 64
25, 30672, Note_on_c, 11, 62, 80
25, 30704, Note_off_c, 11, 62, 64
25, 30728, Note_on_c, 11, 62, 85
25, 31027, Note_off_c, 11, 62, 64
25, 31124, Note_on_c, 11, 64, 74
25, 31164, Note_off_c, 11, 64, 64
25, 31184, Note_on_c, 11, 62, 98
25, 31284, Note_off_c, 11, 62, 64
25, 31363, Note_on_c, 11, 64, 70
25, 31401, Note_off_c, 11, 64, 64
25, 31422, Note_on_c, 11, 62, 87
25, 31500, Note_off_c, 11, 62, 64
25, 31609, Note_on_c, 11, 59, 70
25, 31650, Note_off_c, 11, 59, 64
25, 31670, Note_on_c, 11, 57, 70
25, 31766, Note_off_c, 11, 57, 64
25, 31846, Note_on_c, 11, 69, 85
25, 31882, Note_off_c, 11, 69, 64
25, 31903, Note_on_c, 11, 69, 95
25, 31988, Note_off_c, 11, 69, 64
25, 32078, Note_on_c, 11, 64, 80
25, 32117, Note_off_c, 11, 64, 64
25, 32144, Note_on_c, 11, 61, 72
25, 32658, Note_off_c, 11, 61, 64
25, 32813, Note_on_c, 11, 69, 87
25, 32851, Note_off_c, 11, 69, 64
25, 32872, Note_on_c, 11, 69, 87
25, 32944, Note_off_c, 11, 69, 64
25, 33045, Note_on_c, 11, 64, 85
25, 33080, Note_off_c, 11, 64, 64
25, 33106, Note_on_c, 11, 66, 91
25, 33616, Note_off_c, 11, 66, 64
25, 33787, Note_on_c, 11, 69, 87
25, 33826, Note_off_c, 11, 69, 64
25, 33843, Note_on_c, 11, 69, 91
25, 33914, Note_off_c, 11, 69, 64
25, 34005, Note_on_c, 11, 62, 82
25, 34043, Note_off_c, 11, 62, 64
25, 34066, Note_on_c, 11, 64, 89
25, 34322, Note_off_c, 11, 64, 64
25, 34483, Note_on_c, 11, 66, 82
25, 34514, Note_off_c, 11, 66, 64
25, 34542, Note_on_c, 11, 66, 93
25, 34858, Note_off_c, 11, 66, 64
25, 34983, Note_on_c, 11, 66, 89
25, 35021, Note_off_c, 11, 66, 64
25, 35039, Note_on_c, 11, 64, 105
25, 35130, Note_off_c, 11, 64, 64
25, 35273, Note_on_c, 11, 59, 89
25, 35361, Note_off_c, 11, 59, 64
25, 35509, Note_on_c, 11, 57, 82
25, 35992, Note_off_c, 11, 57, 64
25, 36153, Note_on_c, 11, 69, 80
25, 36193, Note_off_c, 11, 69, 64
25, 36218, Note_on_c, 11, 69, 89
25, 36300, Note_off_c, 11, 69, 64
25, 36410, Note_on_c, 11, 71, 72
25, 36444, Note_off_c, 11, 71, 64
25, 36472, Note_on_c, 11, 71, 91
25, 36764, Note_off_c, 11, 71, 64
25, 36886, Note_on_c, 11, 74, 78
25, 36932, Note_off_c, 11, 74, 64
25, 36946, Note_on_c, 11, 68, 93
25, 37047, Note_off_c, 11, 68, 64
25, 37197, Note_on_c, 11, 73, 87
25, 37287, Note_off_c, 11, 73, 64
25, 37430, Note_on_c, 11, 73, 91
25, 37512, Note_off_c, 11, 73, 64
25, 37609, Note_on_c, 11, 66, 85
25, 37646, Note_off_c, 11, 66, 64
25, 37670, Note_on_c, 11, 66, 87
25, 37744, Note_off_c, 11, 66, 64
25, 37840, Note_on_c, 11, 61, 82
25, 37881, Note_off_c, 11, 61, 64
25, 37906, Note_on_c, 11, 66, 82
25, 38414, Note_off_c, 11, 66, 64
25, 38554, Note_on_c, 11, 64, 82
25, 38600, Note_off_c, 11, 64, 64
25, 38621, Note_on_c, 11, 61, 85
25, 38713, Note_off_c, 11, 61, 64
25, 38803, Note_on_c, 11, 59, 80
25, 38850, Note_off_c, 11, 59, 64
25, 38865, Note_on_c, 11, 57, 89
25, 38951, Note_off_c, 11, 57, 64
25, 39036, Note_on_c, 11, 62, 80
25, 39073, Note_off_c, 11, 62, 64
25, 39092, Note_on_c, 11, 62, 89
25, 39189, Note_off_c, 11, 62, 64
25, 39290, Note_on_c, 11, 64, 78
25, 39324, Note_off_c, 11, 64, 64
25, 39353, Note_on_c, 11, 64, 82
25, 39858, Note_off_c, 11, 64, 64
25, 39996, Note_on_c, 11, 76, 89
25, 40040, Note_off_c, 11, 76, 64
25, 40060, Note_on_c, 11, 71, 89
25, 40133, Note_off_c, 11, 71, 64
25, 40242, Note_on_c, 11, 68, 62
25, 40284, Note_off_c, 11, 68, 64
25, 40306, Note_on_c, 11, 64, 85
25, 40828, Note_off_c, 11, 64, 64
25, 40963, Note_on_c, 11, 73, 80
25, 41010, Note_off_c, 11, 73, 64
25, 41027, Note_on_c, 11, 76, 93
25, 41105, Note_off_c, 11, 76, 64
25, 41203, Note_on_c, 11, 73, 68
25, 41259, Note_off_c, 11, 73, 64
25, 41268, Note_on_c, 11, 68, 64
25, 41787, Note_off_c, 11, 68, 64
25, 41924, Note_on_c, 11, 74, 87
25, 41974, Note_off_c, 11, 74, 64
25, 41988, Note_on_c, 11, 68, 87
25, 42070, Note_off_c, 11, 68, 64
25, 42176, Note_on_c, 11, 71, 78
25, 42218, Note_off_c, 11, 71, 64
25, 42240, Note_on_c, 11, 69, 87
25, 42492, Note_off_c, 11, 69, 64
25, 42648, Note_on_c, 11, 69, 82
25, 42687, Note_off_c, 11, 69, 64
25, 42710, Note_on_c, 11, 66, 87
25, 42974, Note_off_c, 11, 66, 64
25, 43123, Note_on_c, 11, 68, 78
25, 43157, Note_off_c, 11, 68, 64
25, 43184, Note_on_c, 11, 64, 78
25, 43681, Note_off_c, 11, 64, 64
25, 43840, Note_on_c, 11, 57, 68
25, 43888, Note_off_c, 11, 57, 64
25, 43912, Note_on_c, 11, 64, 89
25, 43987, Note_off_c, 11, 64, 64
25, 44093, Note_on_c, 11, 69, 85
25, 44130, Note_off_c, 11, 69, 64
25, 44151, Note_on_c, 11, 69, 87
25, 44237, Note_off_c, 11, 69, 64
25, 44320, Note_on_c, 11, 67, 80
25, 44363, Note_off_c, 11, 67, 64
25, 44384, Note_on_c, 11, 66, 85
25, 44449, Note_off_c, 11, 66, 64
25, 44557, Note_on_c, 11, 62, 76
25, 44601, Note_off_c, 11, 62, 64
25, 44624, Note_on_c, 11, 61, 80
25, 44717, Note_off_c, 11, 61, 64
25, 44804, Note_on_c, 11, 61, 82
25, 44853, Note_off_c, 11, 61, 64
25, 44871, Note_on_c, 11, 66, 89
25, 44942, Note_off_c, 11, 66, 64
25, 45045, Note_on_c, 11, 62, 80
25, 45088, Note_off_c, 11, 62, 64
25, 45114, Note_on_c, 11, 64, 85
25, 45187, Note_off_c, 11, 64, 64
25, 45289, Note_on_c, 11, 64, 78
25, 45323, Note_off_c, 11, 64, 64
25, 45347, Note_on_c, 11, 64, 91
25, 45447, Note_off_c, 11, 64, 64
25, 45528, Note_on_c, 11, 66, 76
25, 45565, Note_off_c, 11, 66, 64
25, 45592, Note_on_c, 11, 66, 93
25, 45657, Note_on_c, 11, 64, 64
25, 45666, Note_off_c, 11, 66, 64
25, 45688, Note_off_c, 11, 64, 64
25, 45691, Note_on_c, 11, 66, 66
25, 45711, Note_on_c, 11, 64, 68
25, 45713, Note_off_c, 11, 66, 64
25, 45737, Note_on_c, 11, 66, 78
25, 45759, Note_off_c, 11, 66, 64
25, 45796, Note_off_c, 11, 64, 64
25, 45829, Note_on_c, 11, 62, 62
25, 45985, Note_off_c, 11, 62, 64
25, 46085, Note_on_c, 11, 61, 85
25, 46229, Note_off_c, 11, 61, 64
25, 114294, Note_on_c, 11, 61, 85
25, 114359, Note_off_c, 11, 61, 64
25, 114438, Note_on_c, 11, 61, 98
25, 114548, Note_on_c, 11, 64, 68
25, 114569, Note_off_c, 11, 61, 64
25, 114647, Note_off_c, 11, 64, 64
25, 114656, Note_on_c, 11, 62, 62
25, 114704, Note_off_c, 11, 62, 64
25, 114794, Note_on_c, 11, 62, 91
25, 114899, Note_on_c, 11, 66, 64
25, 114908, Note_off_c, 11, 62, 64
25, 114989, Note_off_c, 11, 66, 64
25, 115005, Note_on_c, 11, 64, 57
25, 115053, Note_off_c, 11, 64, 64
25, 115146, Note_on_c, 11, 64, 63
25, 115363, Note_off_c, 11, 64, 64
25, 116466, Note_on_c, 11, 69, 60
25, 116531, Note_off_c, 11, 69, 64
25, 116601, Note_on_c, 11, 69, 66
25, 116745, Note_off_c, 11, 69, 64
25, 116844, Note_on_c, 11, 69, 56
25, 116893, Note_off_c, 11, 69, 64
25, 116965, Note_on_c, 11, 69, 59
25, 117107, Note_off_c, 11, 69, 64
25, 117208, Note_on_c, 11, 69, 54
25, 117257, Note_off_c, 11, 69, 64
25, 117330, Note_on_c, 11, 69, 63
25, 117467, Note_off_c, 11, 69, 64
25, 117573, Note_on_c, 11, 69, 61
25, 117627, Note_off_c, 11, 69, 64
25, 117694, Note_on_c, 11, 69, 60
25, 117834, Note_off_c, 11, 69, 64
25, 117923, Note_on_c, 11, 69, 60
25, 117986, Note_off_c, 11, 69, 64
25, 118047, Note_on_c, 11, 69, 70
25, 118205, Note_off_c, 11, 69, 64
25, 118283, Note_on_c, 11, 69, 60
25, 118337, Note_off_c, 11, 69, 64
25, 118418, Note_on_c, 11, 69, 68
25, 118619, Note_off_c, 11, 69, 64
25, 119717, Note_on_c, 11, 69, 74
25, 119782, Note_off_c, 11, 69, 64
25, 119854, Note_on_c, 11, 69, 89
25, 119984, Note_off_c, 11, 69, 64
25, 120059, Note_on_c, 11, 73, 68
25, 120110, Note_off_c, 11, 73, 64
25, 120205, Note_on_c, 11, 73, 85
25, 120360, Note_off_c, 11, 73, 64
25, 120434, Note_on_c, 11, 74, 68
25, 120489, Note_off_c, 11, 74, 64
25, 120576, Note_on_c, 11, 74, 78
25, 120777, Note_off_c, 11, 74, 64
25, 121870, Note_on_c, 11, 62, 60
25, 121922, Note_off_c, 11, 62, 64
25, 122009, Note_on_c, 11, 62, 66
25, 122183, Note_off_c, 11, 62, 64
25, 122255, Note_on_c, 11, 62, 60
25, 122307, Note_off_c, 11, 62, 64
25, 122381, Note_on_c, 11, 62, 64
25, 122541, Note_off_c, 11, 62, 64
25, 122619, Note_on_c, 11, 62, 64
25, 122676, Note_off_c, 11, 62, 64
25, 122750, Note_on_c, 11, 62, 82
25, 122885, Note_off_c, 11, 62, 64
25, 122962, Note_on_c, 11, 60, 58
25, 123033, Note_off_c, 11, 60, 64
25, 123096, Note_on_c, 11, 62, 89
25, 123247, Note_off_c, 11, 62, 64
25, 123333, Note_on_c, 11, 66, 68
25, 123398, Note_off_c, 11, 66, 64
25, 123454, Note_on_c, 11, 66, 82
25, 123576, Note_off_c, 11, 66, 64
25, 123683, Note_on_c, 11, 59, 64
25, 123758, Note_off_c, 11, 59, 64
25, 123825, Note_on_c, 11, 59, 78
25, 123960, Note_off_c, 11, 59, 64
25, 124045, Note_on_c, 11, 64, 64
25, 124098, Note_off_c, 11, 64, 64
25, 124173, Note_on_c, 11, 64, 78
25, 124329, Note_off_c, 11, 64, 64
25, 124401, Note_on_c, 11, 67, 72
25, 124464, Note_off_c, 11, 67, 64
25, 124527, Note_on_c, 11, 67, 82
25, 124644, Note_off_c, 11, 67, 64
25, 124752, Note_on_c, 11, 61, 68
25, 124811, Note_off_c, 11, 61, 64
25, 124889, Note_on_c, 11, 61, 82
25, 125031, Note_off_c, 11, 61, 64
25, 125130, Note_on_c, 11, 66, 68
25, 125182, Note_off_c, 11, 66, 64
25, 125259, Note_on_c, 11, 66, 80
25, 125420, Note_off_c, 11, 66, 64
25, 125490, Note_on_c, 11, 69, 70
25, 125555, Note_off_c, 11, 69, 64
25, 125623, Note_on_c, 11, 69, 82
25, 125765, Note_off_c, 11, 69, 64
25, 125848, Note_on_c, 11, 62, 68
25, 125913, Note_off_c, 11, 62, 64
25, 125985, Note_on_c, 11, 62, 89
25, 126141, Note_off_c, 11, 62, 64
25, 126206, Note_on_c, 11, 68, 63
25, 126266, Note_off_c, 11, 68, 64
25, 126325, Note_on_c, 11, 68, 87
25, 126467, Note_off_c, 11, 68, 64
25, 126581, Note_on_c, 11, 71, 82
25, 126642, Note_off_c, 11, 71, 64
25, 126705, Note_on_c, 11, 71, 87
25, 126849, Note_off_c, 11, 71, 64
25, 126930, Note_on_c, 11, 64, 63
25, 126984, Note_off_c, 11, 64, 64
25, 127074, Note_on_c, 11, 64, 74
25, 127266, Note_off_c, 11, 64, 64
25, 139537, Note_on_c, 11, 71, 70
25, 139596, Note_off_c, 11, 71, 64
25, 139667, Note_on_c, 11, 71, 82
25, 139808, Note_off_c, 11, 71, 64
25, 139892, Note_on_c, 11, 71, 78
25, 139953, Note_off_c, 11, 71, 64
25, 140023, Note_on_c, 11, 71, 89
25, 140390, Note_off_c, 11, 71, 64
25, 140604, Note_on_c, 11, 64, 66
25, 140664, Note_off_c, 11, 64, 64
25, 140734, Note_on_c, 11, 64, 76
25, 140889, Note_off_c, 11, 64, 64
25, 140955, Note_on_c, 11, 64, 76
25, 141024, Note_off_c, 11, 64, 64
25, 141083, Note_on_c, 11, 64, 87
25, 141207, Note_off_c, 11, 64, 64
25, 141299, Note_on_c, 11, 69, 82
25, 141359, Note_off_c, 11, 69, 64
25, 141431, Note_on_c, 11, 69, 102
25, 141542, Note_on_c, 11, 71, 70
25, 141567, Note_off_c, 11, 69, 64
25, 141605, Note_off_c, 11, 71, 64
25, 141706, Note_on_c, 11, 67, 80
25, 141771, Note_off_c, 11, 67, 64
25, 141830, Note_on_c, 11, 67, 87
25, 141937, Note_on_c, 11, 69, 68
25, 141958, Note_off_c, 11, 67, 64
25, 142017, Note_off_c, 11, 69, 64
25, 142052, Note_on_c, 11, 66, 76
25, 142125, Note_off_c, 11, 66, 64
25, 142183, Note_on_c, 11, 66, 85
25, 142349, Note_off_c, 11, 66, 64
25, 142548, Note_on_c, 11, 71, 82
25, 142680, Note_off_c, 11, 71, 64
25, 142908, Note_on_c, 11, 75, 68
25, 143040, Note_off_c, 11, 75, 64
25, 143629, Note_on_c, 11, 64, 78
25, 143745, Note_off_c, 11, 64, 64
25, 143979, Note_on_c, 11, 67, 80
25, 144123, Note_off_c, 11, 67, 64
25, 144698, Note_on_c, 11, 69, 82
25, 144820, Note_off_c, 11, 69, 64
25, 145050, Note_on_c, 11, 66, 85
25, 145199, Note_off_c, 11, 66, 64
25, 145761, Note_on_c, 11, 67, 82
25, 145884, Note_off_c, 11, 67, 64
25, 146121, Note_on_c, 11, 64, 85
25, 146246, Note_off_c, 11, 64, 64
25, 146487, Note_on_c, 11, 66, 82
25, 146652, Note_off_c, 11, 66, 64
25, 147819, Note_on_c, 11, 50, 64
25, 147884, Note_off_c, 11, 50, 64
25, 147954, Note_on_c, 11, 50, 70
25, 148080, Note_off_c, 11, 50, 64
25, 148179, Note_on_c, 11, 50, 68
25, 148242, Note_off_c, 11, 50, 64
25, 148307, Note_on_c, 11, 50, 80
25, 148407, Note_off_c, 11, 50, 64
25, 148532, Note_on_c, 11, 50, 74
25, 148596, Note_off_c, 11, 50, 64
25, 148677, Note_on_c, 11, 50, 87
25, 148830, Note_off_c, 11, 50, 64
25, 149052, Note_on_c, 11, 66, 85
25, 149189, Note_off_c, 11, 66, 64
25, 149419, Note_on_c, 11, 62, 82
25, 149567, Note_off_c, 11, 62, 64
25, 149756, Note_on_c, 11, 62, 80
25, 149894, Note_off_c, 11, 62, 64
25, 149979, Note_on_c, 11, 62, 68
25, 150051, Note_off_c, 11, 62, 64
25, 150116, Note_on_c, 11, 62, 89
25, 150251, Note_off_c, 11, 62, 64
25, 150332, Note_on_c, 11, 64, 80
25, 150391, Note_off_c, 11, 64, 64
25, 150463, Note_on_c, 11, 64, 87
25, 150591, Note_off_c, 11, 64, 64
25, 150672, Note_on_c, 11, 62, 72
25, 150738, Note_off_c, 11, 62, 64
25, 150818, Note_on_c, 11, 62, 85
25, 150954, Note_off_c, 11, 62, 64
25, 151176, Note_on_c, 11, 62, 85
25, 151316, Note_off_c, 11, 62, 64
25, 151529, Note_on_c, 11, 66, 87
25, 151655, Note_off_c, 11, 66, 64
25, 151878, Note_on_c, 11, 59, 80
25, 152004, Note_off_c, 11, 59, 64
25, 152004, Note_on_c, 11, 64, 87
25, 152081, Note_off_c, 11, 64, 64
25, 152110, Note_on_c, 11, 65, 82
25, 152189, Note_off_c, 11, 65, 64
25, 152238, Note_on_c, 11, 67, 87
25, 152346, Note_on_c, 11, 69, 80
25, 152378, Note_off_c, 11, 67, 64
25, 152423, Note_off_c, 11, 69, 64
25, 152471, Note_on_c, 11, 65, 80
25, 152531, Note_off_c, 11, 65, 64
25, 152601, Note_on_c, 11, 65, 102
25, 152704, Note_on_c, 11, 67, 76
25, 152733, Note_off_c, 11, 65, 64
25, 152787, Note_off_c, 11, 67, 64
25, 152825, Note_on_c, 11, 64, 70
25, 152877, Note_off_c, 11, 64, 64
25, 152956, Note_on_c, 11, 64, 91
25, 153083, Note_off_c, 11, 64, 64
25, 153181, Note_on_c, 11, 59, 72
25, 153263, Note_off_c, 11, 59, 64
25, 153311, Note_on_c, 11, 60, 85
25, 153447, Note_off_c, 11, 60, 64
25, 153537, Note_on_c, 11, 64, 82
25, 153608, Note_off_c, 11, 64, 64
25, 153667, Note_on_c, 11, 64, 89
25, 153798, Note_off_c, 11, 64, 64
25, 153912, Note_on_c, 11, 64, 89
25, 153991, Note_off_c, 11, 64, 64
25, 154047, Note_on_c, 11, 57, 93
25, 154157, Note_off_c, 11, 57, 64
25, 154157, Note_on_c, 11, 59, 85
25, 154232, Note_off_c, 11, 59, 64
25, 154266, Note_on_c, 11, 60, 82
25, 154335, Note_off_c, 11, 60, 64
25, 154392, Note_on_c, 11, 62, 89
25, 154511, Note_off_c, 11, 62, 64
25, 154623, Note_on_c, 11, 55, 80
25, 154700, Note_off_c, 11, 55, 64
25, 154756, Note_on_c, 11, 62, 85
25, 154862, Note_off_c, 11, 62, 64
25, 154990, Note_on_c, 11, 57, 68
25, 155067, Note_off_c, 11, 57, 64
25, 155127, Note_on_c, 11, 62, 87
25, 155237, Note_off_c, 11, 62, 64
25, 155355, Note_on_c, 11, 69, 74
25, 155436, Note_off_c, 11, 69, 64
25, 155480, Note_on_c, 11, 67, 82
25, 155602, Note_off_c, 11, 67, 64
25, 155714, Note_on_c, 11, 69, 72
25, 155782, Note_off_c, 11, 69, 64
25, 155838, Note_on_c, 11, 62, 82
25, 155960, Note_off_c, 11, 62, 64
25, 156061, Note_on_c, 11, 62, 60
25, 156131, Note_off_c, 11, 62, 64
25, 156192, Note_on_c, 11, 62, 76
25, 156320, Note_off_c, 11, 62, 64
25, 156417, Note_on_c, 11, 62, 57
25, 156488, Note_off_c, 11, 62, 64
25, 156560, Note_on_c, 11, 62, 57
25, 156686, Note_off_c, 11, 62, 64
25, 156792, Note_on_c, 11, 62, 57
25, 156858, Note_off_c, 11, 62, 64
25, 156927, Note_on_c, 11, 62, 60
25, 157049, Note_off_c, 11, 62, 64
25, 157160, Note_on_c, 11, 62, 47
25, 157227, Note_off_c, 11, 62, 64
25, 157296, Note_on_c, 11, 62, 58
25, 157420, Note_off_c, 11, 62, 64
25, 157519, Note_on_c, 11, 62, 51
25, 157587, Note_off_c, 11, 62, 64
25, 157643, Note_on_c, 11, 62, 60
25, 157780, Note_off_c, 11, 62, 64
25, 157863, Note_on_c, 11, 62, 53
25, 157926, Note_off_c, 11, 62, 64
25, 157998, Note_on_c, 11, 62, 57
25, 158131, Note_off_c, 11, 62, 64
25, 158214, Note_on_c, 11, 62, 57
25, 158286, Note_off_c, 11, 62, 64
25, 158367, Note_on_c, 11, 62, 58
25, 158529, Note_off_c, 11, 62, 64
25, 179238, Note_on_c, 11, 66, 82
25, 179346, Note_off_c, 11, 66, 64
25, 179598, Note_on_c, 11, 69, 85
25, 179713, Note_off_c, 11, 69, 64
25, 179947, Note_on_c, 11, 62, 80
25, 180059, Note_on_c, 11, 64, 85
25, 180086, Note_off_c, 11, 62, 64
25, 180167, Note_off_c, 11, 64, 64
25, 180185, Note_on_c, 11, 66, 82
25, 180257, Note_off_c, 11, 66, 64
25, 180325, Note_on_c, 11, 66, 100
25, 180452, Note_off_c, 11, 66, 64
25, 180559, Note_on_c, 11, 69, 72
25, 180640, Note_off_c, 11, 69, 64
25, 180694, Note_on_c, 11, 66, 87
25, 180802, Note_off_c, 11, 66, 64
25, 180932, Note_on_c, 11, 62, 80
25, 181006, Note_off_c, 11, 62, 64
25, 181065, Note_on_c, 11, 67, 89
25, 181189, Note_off_c, 11, 67, 64
25, 181301, Note_on_c, 11, 71, 80
25, 181367, Note_off_c, 11, 71, 64
25, 181436, Note_on_c, 11, 67, 98
25, 181536, Note_on_c, 11, 69, 82
25, 181567, Note_off_c, 11, 67, 64
25, 181644, Note_on_c, 11, 71, 82
25, 181664, Note_off_c, 11, 69, 64
25, 181720, Note_off_c, 11, 71, 64
25, 181780, Note_on_c, 11, 64, 89
25, 181886, Note_off_c, 11, 64, 64
25, 182013, Note_on_c, 11, 64, 72
25, 182075, Note_off_c, 11, 64, 64
25, 182165, Note_on_c, 11, 64, 80
25, 182408, Note_off_c, 11, 64, 64
25, 182728, Note_on_c, 11, 69, 87
25, 182809, Note_off_c, 11, 69, 64
25, 182854, Note_on_c, 11, 64, 85
25, 182987, Note_off_c, 11, 64, 64
25, 183083, Note_on_c, 11, 69, 80
25, 183153, Note_off_c, 11, 69, 64
25, 183210, Note_on_c, 11, 62, 87
25, 183320, Note_on_c, 11, 66, 78
25, 183331, Note_off_c, 11, 62, 64
25, 183426, Note_off_c, 11, 66, 64
25, 183435, Note_on_c, 11, 67, 87
25, 183500, Note_off_c, 11, 67, 64
25, 183567, Note_on_c, 11, 69, 102
25, 183684, Note_off_c, 11, 69, 64
25, 183790, Note_on_c, 11, 73, 80
25, 183866, Note_off_c, 11, 73, 64
25, 183909, Note_on_c, 11, 64, 91
25, 184028, Note_off_c, 11, 64, 64
25, 184139, Note_on_c, 11, 66, 76
25, 184199, Note_off_c, 11, 66, 64
25, 184271, Note_on_c, 11, 66, 89
25, 184409, Note_off_c, 11, 66, 64
25, 184517, Note_on_c, 11, 66, 68
25, 184596, Note_off_c, 11, 66, 64
25, 184636, Note_on_c, 11, 62, 85
25, 184750, Note_off_c, 11, 62, 64
25, 184757, Note_on_c, 11, 64, 82
25, 184857, Note_off_c, 11, 64, 64
25, 184865, Note_on_c, 11, 66, 80
25, 184940, Note_off_c, 11, 66, 64
25, 184998, Note_on_c, 11, 59, 85
25, 185124, Note_off_c, 11, 59, 64
25, 185223, Note_on_c, 11, 71, 80
25, 185280, Note_off_c, 11, 71, 64
25, 185367, Note_on_c, 11, 71, 89
25, 185649, Note_off_c, 11, 71, 64
25, 185942, Note_on_c, 11, 64, 59
25, 185999, Note_off_c, 11, 64, 64
25, 186078, Note_on_c, 11, 64, 68
25, 186188, Note_off_c, 11, 64, 64
25, 186305, Note_on_c, 11, 64, 62
25, 186368, Note_off_c, 11, 64, 64
25, 186450, Note_on_c, 11, 64, 85
25, 186693, Note_off_c, 11, 64, 64
25, 187001, Note_on_c, 11, 62, 63
25, 187062, Note_off_c, 11, 62, 64
25, 187140, Note_on_c, 11, 62, 85
25, 187257, Note_off_c, 11, 62, 64
25, 187379, Note_on_c, 11, 62, 63
25, 187448, Note_off_c, 11, 62, 64
25, 187518, Note_on_c, 11, 62, 89
25, 187656, Note_off_c, 11, 62, 64
25, 187896, Note_on_c, 11, 64, 89
25, 188011, Note_off_c, 11, 64, 64
25, 188252, Note_on_c, 11, 66, 89
25, 188366, Note_off_c, 11, 66, 64
25, 188616, Note_on_c, 11, 59, 78
25, 188745, Note_off_c, 11, 59, 64
25, 188990, Note_on_c, 11, 71, 91
25, 189107, Note_off_c, 11, 71, 64
25, 189339, Note_on_c, 11, 68, 72
25, 189455, Note_off_c, 11, 68, 64
25, 189709, Note_on_c, 11, 64, 82
25, 189820, Note_off_c, 11, 64, 64
25, 190067, Note_on_c, 11, 64, 85
25, 190180, Note_off_c, 11, 64, 64
25, 190428, Note_on_c, 11, 64, 85
25, 190542, Note_off_c, 11, 64, 64
25, 190770, Note_on_c, 11, 62, 85
25, 190905, Note_off_c, 11, 62, 64
25, 191127, Note_on_c, 11, 69, 93
25, 191240, Note_off_c, 11, 69, 64
25, 191490, Note_on_c, 11, 66, 78
25, 191611, Note_off_c, 11, 66, 64
25, 191851, Note_on_c, 11, 62, 82
25, 192043, Note_off_c, 11, 62, 64
25, 192423, Note_on_c, 11, 67, 80
25, 192493, Note_off_c, 11, 67, 64
25, 192554, Note_on_c, 11, 69, 82
25, 192651, Note_off_c, 11, 69, 64
25, 192789, Note_on_c, 11, 64, 78
25, 192862, Note_off_c, 11, 64, 64
25, 192934, Note_on_c, 11, 69, 87
25, 193082, Note_off_c, 11, 69, 64
25, 193492, Note_on_c, 11, 69, 82
25, 193582, Note_off_c, 11, 69, 64
25, 193629, Note_on_c, 11, 71, 85
25, 193730, Note_off_c, 11, 71, 64
25, 193857, Note_on_c, 11, 66, 76
25, 193935, Note_off_c, 11, 66, 64
25, 194005, Note_on_c, 11, 71, 89
25, 194138, Note_off_c, 11, 71, 64
25, 194610, Note_on_c, 11, 64, 68
25, 194694, Note_off_c, 11, 64, 64
25, 194741, Note_on_c, 11, 66, 87
25, 194851, Note_off_c, 11, 66, 64
25, 194966, Note_on_c, 11, 66, 80
25, 195044, Note_off_c, 11, 66, 64
25, 195108, Note_on_c, 11, 59, 89
25, 195222, Note_off_c, 11, 59, 64
25, 195321, Note_on_c, 11, 71, 70
25, 195378, Note_off_c, 11, 71, 64
25, 195452, Note_on_c, 11, 71, 70
25, 195560, Note_off_c, 11, 71, 64
25, 195684, Note_on_c, 11, 71, 74
25, 195744, Note_off_c, 11, 71, 64
25, 195809, Note_on_c, 11, 71, 89
25, 195922, Note_off_c, 11, 71, 64
25, 196046, Note_on_c, 11, 71, 80
25, 196115, Note_off_c, 11, 71, 64
25, 196179, Note_on_c, 11, 69, 85
25, 196293, Note_off_c, 11, 69, 64
25, 196413, Note_on_c, 11, 69, 82
25, 196489, Note_off_c, 11, 69, 64
25, 196552, Note_on_c, 11, 69, 91
25, 196669, Note_off_c, 11, 69, 64
25, 196773, Note_on_c, 11, 69, 78
25, 196842, Note_off_c, 11, 69, 64
25, 196905, Note_on_c, 11, 69, 85
25, 197024, Note_off_c, 11, 69, 64
25, 197136, Note_on_c, 11, 69, 85
25, 197200, Note_off_c, 11, 69, 64
25, 197265, Note_on_c, 11, 69, 89
25, 197359, Note_off_c, 11, 69, 64
25, 197477, Note_on_c, 11, 69, 87
25, 197547, Note_off_c, 11, 69, 64
25, 197612, Note_on_c, 11, 69, 89
25, 197718, Note_off_c, 11, 69, 64
25, 197820, Note_on_c, 11, 67, 82
25, 197913, Note_off_c, 11, 67, 64
25, 197956, Note_on_c, 11, 64, 87
25, 198075, Note_off_c, 11, 64, 64
25, 198185, Note_on_c, 11, 64, 82
25, 198249, Note_off_c, 11, 64, 64
25, 198336, Note_on_c, 11, 66, 91
25, 198476, Note_off_c, 11, 66, 64
25, 198712, Note_on_c, 11, 69, 87
25, 198836, Note_off_c, 11, 69, 64
25, 199081, Note_on_c, 11, 73, 89
25, 199207, Note_off_c, 11, 73, 64
25, 199439, Note_on_c, 11, 69, 85
25, 199542, Note_off_c, 11, 69, 64
25, 199792, Note_on_c, 11, 69, 87
25, 199913, Note_off_c, 11, 69, 64
25, 200150, Note_on_c, 11, 73, 87
25, 200271, Note_off_c, 11, 73, 64
25, 222080, Note_on_c, 11, 69, 74
25, 222138, Note_off_c, 11, 69, 64
25, 222210, Note_on_c, 11, 69, 87
25, 222316, Note_on_c, 11, 71, 66
25, 222345, Note_off_c, 11, 69, 64
25, 222392, Note_off_c, 11, 71, 64
25, 222435, Note_on_c, 11, 67, 60
25, 222483, Note_off_c, 11, 67, 64
25, 222572, Note_on_c, 11, 67, 93
25, 222667, Note_on_c, 11, 69, 66
25, 222685, Note_off_c, 11, 67, 64
25, 222748, Note_off_c, 11, 69, 64
25, 222782, Note_on_c, 11, 66, 80
25, 222829, Note_off_c, 11, 66, 64
25, 222933, Note_on_c, 11, 66, 91
25, 223031, Note_on_c, 11, 67, 82
25, 223052, Note_off_c, 11, 66, 64
25, 223140, Note_off_c, 11, 67, 64
25, 223160, Note_on_c, 11, 69, 82
25, 223203, Note_off_c, 11, 69, 64
25, 223285, Note_on_c, 11, 71, 100
25, 223387, Note_on_c, 11, 73, 66
25, 223407, Note_off_c, 11, 71, 64
25, 223466, Note_off_c, 11, 73, 64
25, 223503, Note_on_c, 11, 69, 60
25, 223549, Note_off_c, 11, 69, 64
25, 223628, Note_on_c, 11, 69, 87
25, 223724, Note_on_c, 11, 71, 62
25, 223738, Note_off_c, 11, 69, 64
25, 223810, Note_off_c, 11, 71, 64
25, 223855, Note_on_c, 11, 68, 53
25, 223904, Note_off_c, 11, 68, 64
25, 223995, Note_on_c, 11, 68, 58
25, 224098, Note_off_c, 11, 68, 64
25, 224226, Note_on_c, 11, 68, 53
25, 224280, Note_off_c, 11, 68, 64
25, 224340, Note_on_c, 11, 68, 59
25, 224474, Note_off_c, 11, 68, 64
25, 224588, Note_on_c, 11, 68, 52
25, 224646, Note_off_c, 11, 68, 64
25, 224713, Note_on_c, 11, 68, 66
25, 224843, Note_off_c, 11, 68, 64
25, 224928, Note_on_c, 11, 68, 60
25, 224978, Note_off_c, 11, 68, 64
25, 225075, Note_on_c, 11, 69, 85
25, 225178, Note_on_c, 11, 73, 70
25, 225182, Note_off_c, 11, 69, 64
25, 225261, Note_off_c, 11, 73, 64
25, 225293, Note_on_c, 11, 71, 78
25, 225363, Note_off_c, 11, 71, 64
25, 225417, Note_on_c, 11, 73, 85
25, 225567, Note_off_c, 11, 73, 64
25, 225655, Note_on_c, 11, 71, 68
25, 225728, Note_off_c, 11, 71, 64
25, 225774, Note_on_c, 11, 73, 78
25, 225869, Note_off_c, 11, 73, 64
25, 225986, Note_on_c, 11, 69, 78
25, 226033, Note_off_c, 11, 69, 64
25, 226137, Note_on_c, 11, 62, 70
25, 226245, Note_off_c, 11, 62, 64
25, 226249, Note_on_c, 11, 64, 78
25, 226330, Note_off_c, 11, 64, 64
25, 226368, Note_on_c, 11, 66, 70
25, 226431, Note_off_c, 11, 66, 64
25, 226501, Note_on_c, 11, 66, 95
25, 226632, Note_off_c, 11, 66, 64
25, 226757, Note_on_c, 11, 69, 68
25, 226832, Note_off_c, 11, 69, 64
25, 226879, Note_on_c, 11, 66, 82
25, 226992, Note_off_c, 11, 66, 64
25, 227124, Note_on_c, 11, 62, 68
25, 227183, Note_off_c, 11, 62, 64
25, 227248, Note_on_c, 11, 67, 87
25, 227385, Note_off_c, 11, 67, 64
25, 227493, Note_on_c, 11, 71, 70
25, 227563, Note_off_c, 11, 71, 64
25, 227622, Note_on_c, 11, 67, 100
25, 227729, Note_on_c, 11, 69, 82
25, 227756, Note_off_c, 11, 67, 64
25, 227838, Note_off_c, 11, 69, 64
25, 227847, Note_on_c, 11, 71, 68
25, 227916, Note_off_c, 11, 71, 64
25, 227982, Note_on_c, 11, 64, 80
25, 228094, Note_off_c, 11, 64, 64
25, 228222, Note_on_c, 11, 64, 70
25, 228281, Note_off_c, 11, 64, 64
25, 228361, Note_on_c, 11, 64, 85
25, 228627, Note_off_c, 11, 64, 64
25, 228942, Note_on_c, 11, 69, 80
25, 229014, Note_off_c, 11, 69, 64
25, 229059, Note_on_c, 11, 64, 85
25, 229188, Note_off_c, 11, 64, 64
25, 229282, Note_on_c, 11, 69, 68
25, 229351, Note_off_c, 11, 69, 64
25, 229422, Note_on_c, 11, 62, 91
25, 229530, Note_on_c, 11, 66, 66
25, 229539, Note_off_c, 11, 62, 64
25, 229619, Note_off_c, 11, 66, 64
25, 229646, Note_on_c, 11, 67, 74
25, 229694, Note_off_c, 11, 67, 64
25, 229778, Note_on_c, 11, 69, 93
25, 229905, Note_off_c, 11, 69, 64
25, 230006, Note_on_c, 11, 73, 66
25, 230085, Note_off_c, 11, 73, 64
25, 230134, Note_on_c, 11, 64, 82
25, 230267, Note_off_c, 11, 64, 64
25, 230348, Note_on_c, 11, 66, 74
25, 230403, Note_off_c, 11, 66, 64
25, 230468, Note_on_c, 11, 66, 89
25, 230627, Note_off_c, 11, 66, 64
25, 230708, Note_on_c, 11, 66, 70
25, 230781, Note_off_c, 11, 66, 64
25, 230839, Note_on_c, 11, 62, 82
25, 230952, Note_on_c, 11, 64, 72
25, 230987, Note_off_c, 11, 62, 64
25, 231055, Note_off_c, 11, 64, 64
25, 231060, Note_on_c, 11, 66, 78
25, 231122, Note_off_c, 11, 66, 64
25, 231186, Note_on_c, 11, 59, 87
25, 231305, Note_off_c, 11, 59, 64
25, 231430, Note_on_c, 11, 71, 61
25, 231480, Note_off_c, 11, 71, 64
25, 231566, Note_on_c, 11, 71, 98
25, 231777, Note_off_c, 11, 71, 64
25, 232137, Note_on_c, 11, 64, 58
25, 232194, Note_off_c, 11, 64, 64
25, 232259, Note_on_c, 11, 64, 70
25, 232391, Note_off_c, 11, 64, 64
25, 232495, Note_on_c, 11, 64, 78
25, 232549, Note_off_c, 11, 64, 64
25, 232625, Note_on_c, 11, 64, 95
25, 232832, Note_off_c, 11, 64, 64
25, 233197, Note_on_c, 11, 62, 64
25, 233253, Note_off_c, 11, 62, 64
25, 233319, Note_on_c, 11, 62, 82
25, 233460, Note_off_c, 11, 62, 64
25, 233571, Note_on_c, 11, 62, 74
25, 233631, Note_off_c, 11, 62, 64
25, 233692, Note_on_c, 11, 62, 89
25, 233850, Note_off_c, 11, 62, 64
25, 234063, Note_on_c, 11, 64, 78
25, 234203, Note_off_c, 11, 64, 64
25, 234437, Note_on_c, 11, 66, 82
25, 234574, Note_off_c, 11, 66, 64
25, 234824, Note_on_c, 11, 59, 85
25, 234954, Note_off_c, 11, 59, 64
25, 235195, Note_on_c, 11, 71, 89
25, 235323, Note_off_c, 11, 71, 64
25, 235555, Note_on_c, 11, 68, 68
25, 235674, Note_off_c, 11, 68, 64
25, 235904, Note_on_c, 11, 64, 85
25, 236018, Note_off_c, 11, 64, 64
25, 236259, Note_on_c, 11, 64, 78
25, 236378, Note_off_c, 11, 64, 64
25, 236622, Note_on_c, 11, 64, 80
25, 236741, Note_off_c, 11, 64, 64
25, 236988, Note_on_c, 11, 62, 89
25, 237132, Note_off_c, 11, 62, 64
25, 237346, Note_on_c, 11, 69, 89
25, 237476, Note_off_c, 11, 69, 64
25, 237699, Note_on_c, 11, 66, 78
25, 237839, Note_off_c, 11, 66, 64
25, 238050, Note_on_c, 11, 62, 85
25, 238205, Note_off_c, 11, 62, 64
25, 238642, Note_on_c, 11, 67, 76
25, 238714, Note_off_c, 11, 67, 64
25, 238767, Note_on_c, 11, 69, 87
25, 238887, Note_off_c, 11, 69, 64
25, 239006, Note_on_c, 11, 64, 74
25, 239070, Note_off_c, 11, 64, 64
25, 239141, Note_on_c, 11, 69, 89
25, 239310, Note_off_c, 11, 69, 64
25, 239682, Note_on_c, 11, 69, 68
25, 239769, Note_off_c, 11, 69, 64
25, 239807, Note_on_c, 11, 71, 78
25, 239933, Note_off_c, 11, 71, 64
25, 240064, Note_on_c, 11, 66, 70
25, 240138, Note_off_c, 11, 66, 64
25, 240204, Note_on_c, 11, 71, 89
25, 240356, Note_off_c, 11, 71, 64
25, 240780, Note_on_c, 11, 64, 66
25, 240851, Note_off_c, 11, 64, 64
25, 240915, Note_on_c, 11, 66, 82
25, 241049, Note_off_c, 11, 66, 64
25, 241153, Note_on_c, 11, 66, 78
25, 241221, Note_off_c, 11, 66, 64
25, 241294, Note_on_c, 11, 59, 85
25, 241418, Note_off_c, 11, 59, 64
25, 241522, Note_on_c, 11, 71, 61
25, 241574, Note_off_c, 11, 71, 64
25, 241641, Note_on_c, 11, 71, 64
25, 241776, Note_off_c, 11, 71, 64
25, 241880, Note_on_c, 11, 71, 66
25, 241940, Note_off_c, 11, 71, 64
25, 242001, Note_on_c, 11, 71, 85
25, 242136, Note_off_c, 11, 71, 64
25, 242244, Note_on_c, 11, 71, 74
25, 242309, Note_off_c, 11, 71, 64
25, 242370, Note_on_c, 11, 69, 85
25, 242498, Note_off_c, 11, 69, 64
25, 242609, Note_on_c, 11, 69, 76
25, 242670, Note_off_c, 11, 69, 64
25, 242738, Note_on_c, 11, 69, 78
25, 242886, Note_off_c, 11, 69, 64
25, 242969, Note_on_c, 11, 69, 68
25, 243034, Note_off_c, 11, 69, 64
25, 243092, Note_on_c, 11, 69, 82
25, 243225, Note_off_c, 11, 69, 64
25, 243318, Note_on_c, 11, 69, 80
25, 243381, Note_off_c, 11, 69, 64
25, 243443, Note_on_c, 11, 69, 87
25, 243561, Note_off_c, 11, 69, 64
25, 243666, Note_on_c, 11, 69, 80
25, 243729, Note_off_c, 11, 69, 64
25, 243790, Note_on_c, 11, 69, 85
25, 243925, Note_off_c, 11, 69, 64
25, 244026, Note_on_c, 11, 67, 80
25, 244107, Note_off_c, 11, 67, 64
25, 244154, Note_on_c, 11, 64, 82
25, 244285, Note_off_c, 11, 64, 64
25, 244395, Note_on_c, 11, 64, 78
25, 244460, Note_off_c, 11, 64, 64
25, 244533, Note_on_c, 11, 66, 82
25, 244673, Note_off_c, 11, 66, 64
25, 244769, Note_on_c, 11, 69, 74
25, 244827, Note_off_c, 11, 69, 64
25, 244892, Note_on_c, 11, 69, 82
25, 245021, Note_off_c, 11, 69, 64
25, 245138, Note_on_c, 11, 69, 66
25, 245201, Note_off_c, 11, 69, 64
25, 245277, Note_on_c, 11, 69, 89
25, 245444, Note_off_c, 11, 69, 64
25, 245864, Note_on_c, 11, 57, 60
25, 245927, Note_off_c, 11, 57, 64
25, 245984, Note_on_c, 11, 57, 70
25, 246121, Note_off_c, 11, 57, 64
25, 246220, Note_on_c, 11, 57, 66
25, 246287, Note_off_c, 11, 57, 64
25, 246348, Note_on_c, 11, 57, 78
25, 246508, Note_off_c, 11, 57, 64
25, 267441, Note_on_c, 11, 64, 58
25, 267495, Note_off_c, 11, 64, 64
25, 267554, Note_on_c, 11, 64, 62
25, 267696, Note_off_c, 11, 64, 64
25, 267815, Note_on_c, 11, 64, 55
25, 267875, Note_off_c, 11, 64, 64
25, 267938, Note_on_c, 11, 64, 59
25, 268070, Note_off_c, 11, 64, 64
25, 268164, Note_on_c, 11, 64, 54
25, 268229, Note_off_c, 11, 64, 64
25, 268287, Note_on_c, 11, 64, 59
25, 268420, Note_off_c, 11, 64, 64
25, 268510, Note_on_c, 11, 64, 61
25, 268575, Note_off_c, 11, 64, 64
25, 268638, Note_on_c, 11, 64, 60
25, 268771, Note_off_c, 11, 64, 64
25, 268868, Note_on_c, 11, 64, 68
25, 268953, Note_off_c, 11, 64, 64
25, 269000, Note_on_c, 11, 64, 68
25, 269156, Note_off_c, 11, 64, 64
25, 269216, Note_on_c, 11, 64, 68
25, 269286, Note_off_c, 11, 64, 64
25, 269351, Note_on_c, 11, 64, 82
25, 269457, Note_off_c, 11, 64, 64
25, 269462, Note_on_c, 11, 68, 61
25, 269559, Note_off_c, 11, 68, 64
25, 269567, Note_on_c, 11, 66, 63
25, 269633, Note_off_c, 11, 66, 64
25, 269705, Note_on_c, 11, 68, 89
25, 269826, Note_off_c, 11, 68, 64
25, 269925, Note_on_c, 11, 66, 61
25, 269989, Note_off_c, 11, 66, 64
25, 270050, Note_on_c, 11, 68, 85
25, 270164, Note_off_c, 11, 68, 64
25, 270265, Note_on_c, 11, 64, 60
25, 270321, Note_off_c, 11, 64, 64
25, 270411, Note_on_c, 11, 57, 82
25, 270521, Note_on_c, 11, 59, 74
25, 270528, Note_off_c, 11, 57, 64
25, 270638, Note_off_c, 11, 59, 64
25, 270641, Note_on_c, 11, 61, 74
25, 270706, Note_off_c, 11, 61, 64
25, 270770, Note_on_c, 11, 61, 85
25, 270906, Note_off_c, 11, 61, 64
25, 271003, Note_on_c, 11, 64, 68
25, 271057, Note_off_c, 11, 64, 64
25, 271151, Note_on_c, 11, 64, 87
25, 271251, Note_off_c, 11, 64, 64
25, 271367, Note_on_c, 11, 66, 66
25, 271435, Note_off_c, 11, 66, 64
25, 271503, Note_on_c, 11, 66, 80
25, 271629, Note_off_c, 11, 66, 64
25, 271741, Note_on_c, 11, 66, 64
25, 271817, Note_off_c, 11, 66, 64
25, 271876, Note_on_c, 11, 62, 85
25, 271989, Note_on_c, 11, 64, 80
25, 272004, Note_off_c, 11, 62, 64
25, 272088, Note_off_c, 11, 64, 64
25, 272092, Note_on_c, 11, 66, 66
25, 272182, Note_off_c, 11, 66, 64
25, 272240, Note_on_c, 11, 59, 85
25, 272378, Note_off_c, 11, 59, 64
25, 272477, Note_on_c, 11, 59, 72
25, 272552, Note_off_c, 11, 59, 64
25, 272625, Note_on_c, 11, 59, 87
25, 272945, Note_off_c, 11, 59, 64
25, 273185, Note_on_c, 11, 64, 72
25, 273282, Note_off_c, 11, 64, 64
25, 273311, Note_on_c, 11, 71, 85
25, 273438, Note_off_c, 11, 71, 64
25, 273559, Note_on_c, 11, 71, 72
25, 273633, Note_off_c, 11, 71, 64
25, 273699, Note_on_c, 11, 69, 85
25, 273810, Note_on_c, 11, 73, 76
25, 273815, Note_off_c, 11, 69, 64
25, 273903, Note_off_c, 11, 73, 64
25, 273928, Note_on_c, 11, 71, 64
25, 273993, Note_off_c, 11, 71, 64
25, 274058, Note_on_c, 11, 69, 80
25, 274153, Note_on_c, 11, 71, 72
25, 274157, Note_off_c, 11, 69, 64
25, 274241, Note_off_c, 11, 71, 64
25, 274270, Note_on_c, 11, 68, 68
25, 274335, Note_off_c, 11, 68, 64
25, 274403, Note_on_c, 11, 68, 89
25, 274500, Note_on_c, 11, 69, 72
25, 274526, Note_off_c, 11, 68, 64
25, 274583, Note_off_c, 11, 69, 64
25, 274619, Note_on_c, 11, 64, 64
25, 274676, Note_off_c, 11, 64, 64
25, 274745, Note_on_c, 11, 64, 80
25, 274895, Note_off_c, 11, 64, 64
25, 274983, Note_on_c, 11, 61, 68
25, 275060, Note_off_c, 11, 61, 64
25, 275106, Note_on_c, 11, 57, 82
25, 275262, Note_off_c, 11, 57, 64
25, 275312, Note_on_c, 11, 61, 74
25, 275415, Note_off_c, 11, 61, 64
25, 275463, Note_on_c, 11, 64, 82
25, 275582, Note_off_c, 11, 64, 64
25, 275719, Note_on_c, 11, 66, 76
25, 275784, Note_off_c, 11, 66, 64
25, 275852, Note_on_c, 11, 66, 87
25, 276187, Note_off_c, 11, 66, 64
25, 276443, Note_on_c, 11, 71, 70
25, 276524, Note_off_c, 11, 71, 64
25, 276570, Note_on_c, 11, 66, 85
25, 276689, Note_off_c, 11, 66, 64
25, 276801, Note_on_c, 11, 59, 78
25, 276866, Note_off_c, 11, 59, 64
25, 276935, Note_on_c, 11, 64, 87
25, 277267, Note_off_c, 11, 64, 64
25, 277506, Note_on_c, 11, 69, 82
25, 277593, Note_off_c, 11, 69, 64
25, 277640, Note_on_c, 11, 64, 87
25, 277834, Note_off_c, 11, 64, 64
25, 277859, Note_on_c, 11, 57, 82
25, 277915, Note_off_c, 11, 57, 64
25, 278016, Note_on_c, 11, 62, 85
25, 278133, Note_off_c, 11, 62, 64
25, 278225, Note_on_c, 11, 69, 80
25, 278316, Note_off_c, 11, 69, 64
25, 278363, Note_on_c, 11, 74, 89
25, 278496, Note_off_c, 11, 74, 64
25, 278595, Note_on_c, 11, 69, 80
25, 278673, Note_off_c, 11, 69, 64
25, 278721, Note_on_c, 11, 69, 91
25, 278873, Note_off_c, 11, 69, 64
25, 278950, Note_on_c, 11, 71, 80
25, 279033, Note_off_c, 11, 71, 64
25, 279081, Note_on_c, 11, 71, 91
25, 279254, Note_off_c, 11, 71, 64
25, 279474, Note_on_c, 11, 66, 82
25, 279606, Note_off_c, 11, 66, 64
25, 279810, Note_on_c, 11, 63, 68
25, 279933, Note_off_c, 11, 63, 64
25, 280169, Note_on_c, 11, 59, 78
25, 280307, Note_off_c, 11, 59, 64
25, 280536, Note_on_c, 11, 71, 89
25, 280673, Note_off_c, 11, 71, 64
25, 280885, Note_on_c, 11, 68, 70
25, 281004, Note_off_c, 11, 68, 64
25, 281241, Note_on_c, 11, 64, 82
25, 281378, Note_off_c, 11, 64, 64
25, 281598, Note_on_c, 11, 64, 82
25, 281744, Note_off_c, 11, 64, 64
25, 281961, Note_on_c, 11, 61, 82
25, 282082, Note_off_c, 11, 61, 64
25, 282312, Note_on_c, 11, 57, 85
25, 282492, Note_off_c, 11, 57, 64
25, 282865, Note_on_c, 11, 62, 80
25, 282948, Note_off_c, 11, 62, 64
25, 282994, Note_on_c, 11, 64, 85
25, 283106, Note_off_c, 11, 64, 64
25, 283238, Note_on_c, 11, 59, 80
25, 283315, Note_off_c, 11, 59, 64
25, 283378, Note_on_c, 11, 64, 85
25, 283554, Note_off_c, 11, 64, 64
25, 283932, Note_on_c, 11, 64, 70
25, 284030, Note_off_c, 11, 64, 64
25, 284084, Note_on_c, 11, 66, 82
25, 284201, Note_off_c, 11, 66, 64
25, 284327, Note_on_c, 11, 61, 76
25, 284397, Note_off_c, 11, 61, 64
25, 284469, Note_on_c, 11, 66, 95
25, 284618, Note_off_c, 11, 66, 64
25, 285050, Note_on_c, 11, 69, 78
25, 285162, Note_off_c, 11, 69, 64
25, 285185, Note_on_c, 11, 73, 82
25, 285308, Note_off_c, 11, 73, 64
25, 285434, Note_on_c, 11, 66, 66
25, 285515, Note_off_c, 11, 66, 64
25, 285578, Note_on_c, 11, 66, 80
25, 285716, Note_off_c, 11, 66, 64
25, 285806, Note_on_c, 11, 71, 80
25, 285876, Note_off_c, 11, 71, 64
25, 285923, Note_on_c, 11, 71, 87
25, 286065, Note_off_c, 11, 71, 64
25, 286146, Note_on_c, 11, 71, 82
25, 286227, Note_off_c, 11, 71, 64
25, 286280, Note_on_c, 11, 71, 89
25, 286425, Note_off_c, 11, 71, 64
25, 286510, Note_on_c, 11, 71, 85
25, 286580, Note_off_c, 11, 71, 64
25, 286632, Note_on_c, 11, 71, 87
25, 286758, Note_on_c, 11, 68, 80
25, 286782, Note_off_c, 11, 71, 64
25, 286868, Note_on_c, 11, 69, 82
25, 286874, Note_off_c, 11, 68, 64
25, 286956, Note_off_c, 11, 69, 64
25, 287003, Note_on_c, 11, 71, 93
25, 287115, Note_on_c, 11, 73, 85
25, 287142, Note_off_c, 11, 71, 64
25, 287189, Note_off_c, 11, 73, 64
25, 287226, Note_on_c, 11, 69, 87
25, 287290, Note_off_c, 11, 69, 64
25, 287349, Note_on_c, 11, 71, 98
25, 287462, Note_on_c, 11, 69, 66
25, 287495, Note_off_c, 11, 71, 64
25, 287558, Note_off_c, 11, 69, 64
25, 287583, Note_on_c, 11, 68, 62
25, 287655, Note_off_c, 11, 68, 64
25, 287707, Note_on_c, 11, 69, 82
25, 287837, Note_off_c, 11, 69, 64
25, 287941, Note_on_c, 11, 64, 82
25, 288008, Note_off_c, 11, 64, 64
25, 288062, Note_on_c, 11, 64, 91
25, 288171, Note_off_c, 11, 64, 64
25, 288307, Note_on_c, 11, 69, 87
25, 288375, Note_off_c, 11, 69, 64
25, 288423, Note_on_c, 11, 69, 89
25, 288575, Note_off_c, 11, 69, 64
25, 288672, Note_on_c, 11, 64, 85
25, 288746, Note_off_c, 11, 64, 64
25, 288796, Note_on_c, 11, 61, 82
25, 288971, Note_off_c, 11, 61, 64
25, 303090, Note_on_c, 11, 54, 56
25, 303138, Note_off_c, 11, 54, 64
25, 303205, Note_on_c, 11, 54, 64
25, 303351, Note_off_c, 11, 54, 64
25, 303432, Note_on_c, 11, 54, 63
25, 303495, Note_off_c, 11, 54, 64
25, 303563, Note_on_c, 11, 54, 68
25, 303700, Note_off_c, 11, 54, 64
25, 303792, Note_on_c, 11, 54, 63
25, 303869, Note_off_c, 11, 54, 64
25, 303934, Note_on_c, 11, 54, 87
25, 304094, Note_off_c, 11, 54, 64
25, 304300, Note_on_c, 11, 66, 80
25, 304429, Note_off_c, 11, 66, 64
25, 304643, Note_on_c, 11, 66, 78
25, 304778, Note_off_c, 11, 66, 64
25, 304992, Note_on_c, 11, 70, 89
25, 305151, Note_off_c, 11, 70, 64
25, 305243, Note_on_c, 11, 70, 87
25, 305295, Note_off_c, 11, 70, 64
25, 305356, Note_on_c, 11, 70, 102
25, 305469, Note_off_c, 11, 70, 64
25, 305590, Note_on_c, 11, 71, 82
25, 305666, Note_off_c, 11, 71, 64
25, 305723, Note_on_c, 11, 64, 82
25, 305849, Note_off_c, 11, 64, 64
25, 305936, Note_on_c, 11, 66, 76
25, 305999, Note_off_c, 11, 66, 64
25, 306071, Note_on_c, 11, 66, 82
25, 306238, Note_off_c, 11, 66, 64
25, 306443, Note_on_c, 11, 66, 80
25, 306555, Note_off_c, 11, 66, 64
25, 306785, Note_on_c, 11, 66, 80
25, 306909, Note_off_c, 11, 66, 64
25, 307154, Note_on_c, 11, 67, 85
25, 307266, Note_off_c, 11, 67, 64
25, 307269, Note_on_c, 11, 71, 74
25, 307345, Note_off_c, 11, 71, 64
25, 307379, Note_on_c, 11, 69, 82
25, 307444, Note_off_c, 11, 69, 64
25, 307512, Note_on_c, 11, 71, 93
25, 307625, Note_on_c, 11, 72, 64
25, 307638, Note_off_c, 11, 71, 64
25, 307694, Note_off_c, 11, 72, 64
25, 307728, Note_on_c, 11, 69, 66
25, 307786, Note_off_c, 11, 69, 64
25, 307860, Note_on_c, 11, 69, 91
25, 307962, Note_on_c, 11, 71, 64
25, 307984, Note_off_c, 11, 69, 64
25, 308036, Note_off_c, 11, 71, 64
25, 308079, Note_on_c, 11, 67, 72
25, 308153, Note_off_c, 11, 67, 64
25, 308232, Note_on_c, 11, 67, 95
25, 308369, Note_off_c, 11, 67, 64
25, 308457, Note_on_c, 11, 71, 76
25, 308533, Note_off_c, 11, 71, 64
25, 308578, Note_on_c, 11, 73, 82
25, 308691, Note_off_c, 11, 73, 64
25, 308823, Note_on_c, 11, 67, 68
25, 308886, Note_off_c, 11, 67, 64
25, 308958, Note_on_c, 11, 67, 78
25, 309093, Note_off_c, 11, 67, 64
25, 309200, Note_on_c, 11, 67, 80
25, 309262, Note_off_c, 11, 67, 64
25, 309336, Note_on_c, 11, 66, 89
25, 309458, Note_off_c, 11, 66, 64
25, 309464, Note_on_c, 11, 68, 59
25, 309557, Note_off_c, 11, 68, 64
25, 309573, Note_on_c, 11, 70, 78
25, 309626, Note_off_c, 11, 70, 64
25, 309698, Note_on_c, 11, 70, 100
25, 309800, Note_off_c, 11, 70, 64
25, 309919, Note_on_c, 11, 64, 80
25, 309991, Note_off_c, 11, 64, 64
25, 310045, Note_on_c, 11, 66, 91
25, 310140, Note_off_c, 11, 66, 64
25, 310257, Note_on_c, 11, 61, 72
25, 310340, Note_off_c, 11, 61, 64
25, 310394, Note_on_c, 11, 62, 82
25, 310509, Note_off_c, 11, 62, 64
25, 310635, Note_on_c, 11, 66, 70
25, 310702, Note_off_c, 11, 66, 64
25, 310760, Note_on_c, 11, 64, 85
25, 310893, Note_off_c, 11, 64, 64
25, 311003, Note_on_c, 11, 64, 66
25, 311040, Note_off_c, 11, 64, 64
25, 311161, Note_on_c, 11, 61, 102
25, 311256, Note_on_c, 11, 59, 80
25, 311265, Note_off_c, 11, 61, 64
25, 311339, Note_off_c, 11, 59, 64
25, 311372, Note_on_c, 11, 61, 66
25, 311444, Note_off_c, 11, 61, 64
25, 311499, Note_on_c, 11, 59, 93
25, 311604, Note_on_c, 11, 61, 70
25, 311611, Note_off_c, 11, 59, 64
25, 311688, Note_off_c, 11, 61, 64
25, 311720, Note_on_c, 11, 62, 76
25, 311782, Note_off_c, 11, 62, 64
25, 311854, Note_on_c, 11, 62, 100
25, 311958, Note_on_c, 11, 64, 64
25, 311978, Note_off_c, 11, 62, 64
25, 312036, Note_off_c, 11, 64, 64
25, 312072, Note_on_c, 11, 61, 76
25, 312125, Note_off_c, 11, 61, 64
25, 312196, Note_on_c, 11, 61, 87
25, 312297, Note_on_c, 11, 62, 68
25, 312320, Note_off_c, 11, 61, 64
25, 312381, Note_off_c, 11, 62, 64
25, 312417, Note_on_c, 11, 59, 63
25, 312477, Note_off_c, 11, 59, 64
25, 312566, Note_on_c, 11, 59, 82
25, 312673, Note_on_c, 11, 61, 66
25, 312680, Note_off_c, 11, 59, 64
25, 312756, Note_off_c, 11, 61, 64
25, 312795, Note_on_c, 11, 62, 76
25, 312844, Note_off_c, 11, 62, 64
25, 312934, Note_on_c, 11, 62, 98
25, 313031, Note_on_c, 11, 64, 60
25, 313056, Note_off_c, 11, 62, 64
25, 313110, Note_off_c, 11, 64, 64
25, 313137, Note_on_c, 11, 61, 58
25, 313188, Note_off_c, 11, 61, 64
25, 313285, Note_on_c, 11, 61, 80
25, 313380, Note_on_c, 11, 62, 70
25, 313389, Note_off_c, 11, 61, 64
25, 313451, Note_off_c, 11, 62, 64
25, 313501, Note_on_c, 11, 59, 57
25, 313550, Note_off_c, 11, 59, 64
25, 313658, Note_on_c, 11, 59, 57
25, 314045, Note_off_c, 11, 59, 64
25, 333476, Note_on_c, 11, 57, 70
25, 333602, Note_off_c, 11, 57, 64
25, 333836, Note_on_c, 11, 59, 80
25, 333974, Note_off_c, 11, 59, 64
25, 334211, Note_on_c, 11, 60, 60
25, 334349, Note_off_c, 11, 60, 64
25, 334556, Note_on_c, 11, 59, 80
25, 334687, Note_off_c, 11, 59, 64
25, 334898, Note_on_c, 11, 61, 68
25, 335043, Note_off_c, 11, 61, 64
25, 335261, Note_on_c, 11, 62, 64
25, 335397, Note_off_c, 11, 62, 64
25, 335607, Note_on_c, 11, 61, 87
25, 335760, Note_off_c, 11, 61, 64
25, 335970, Note_on_c, 11, 63, 61
25, 336123, Note_off_c, 11, 63, 64
25, 336341, Note_on_c, 11, 64, 70
25, 336474, Note_off_c, 11, 64, 64
25, 336572, Note_on_c, 11, 64, 85
25, 336645, Note_off_c, 11, 64, 64
25, 336710, Note_on_c, 11, 64, 98
25, 336817, Note_on_c, 11, 66, 66
25, 336842, Note_off_c, 11, 64, 64
25, 336894, Note_off_c, 11, 66, 64
25, 336933, Note_on_c, 11, 62, 64
25, 336986, Note_off_c, 11, 62, 64
25, 337056, Note_on_c, 11, 62, 87
25, 337166, Note_on_c, 11, 64, 66
25, 337173, Note_off_c, 11, 62, 64
25, 337245, Note_off_c, 11, 64, 64
25, 337261, Note_on_c, 11, 61, 66
25, 337331, Note_off_c, 11, 61, 64
25, 337401, Note_on_c, 11, 61, 91
25, 337511, Note_on_c, 11, 63, 68
25, 337540, Note_off_c, 11, 61, 64
25, 337639, Note_on_c, 11, 64, 76
25, 337688, Note_off_c, 11, 63, 64
25, 337737, Note_off_c, 11, 64, 64
25, 337772, Note_on_c, 11, 66, 85
25, 337886, Note_on_c, 11, 67, 70
25, 337905, Note_off_c, 11, 66, 64
25, 337976, Note_off_c, 11, 67, 64
25, 337998, Note_on_c, 11, 64, 70
25, 338058, Note_off_c, 11, 64, 64
25, 338125, Note_on_c, 11, 64, 95
25, 338237, Note_on_c, 11, 66, 74
25, 338238, Note_off_c, 11, 64, 64
25, 338327, Note_off_c, 11, 66, 64
25, 338357, Note_on_c, 11, 63, 57
25, 338430, Note_off_c, 11, 63, 64
25, 338507, Note_on_c, 11, 63, 57
25, 338618, Note_off_c, 11, 63, 64
25, 338751, Note_on_c, 11, 63, 57
25, 338818, Note_off_c, 11, 63, 64
25, 338881, Note_on_c, 11, 63, 62
25, 339002, Note_off_c, 11, 63, 64
25, 339097, Note_on_c, 11, 63, 58
25, 339165, Note_off_c, 11, 63, 64
25, 339218, Note_on_c, 11, 63, 68
25, 339344, Note_off_c, 11, 63, 64
25, 339446, Note_on_c, 11, 63, 59
25, 339520, Note_off_c, 11, 63, 64
25, 339567, Note_on_c, 11, 62, 66
25, 339678, Note_off_c, 11, 62, 64
25, 339797, Note_on_c, 11, 62, 66
25, 339862, Note_off_c, 11, 62, 64
25, 339923, Note_on_c, 11, 62, 78
25, 340065, Note_off_c, 11, 62, 64
25, 340148, Note_on_c, 11, 62, 64
25, 340220, Note_off_c, 11, 62, 64
25, 340278, Note_on_c, 11, 62, 78
25, 340415, Note_off_c, 11, 62, 64
25, 340530, Note_on_c, 11, 62, 66
25, 340604, Note_off_c, 11, 62, 64
25, 340647, Note_on_c, 11, 61, 66
25, 340793, Note_off_c, 11, 61, 64
25, 340884, Note_on_c, 11, 61, 66
25, 340956, Note_off_c, 11, 61, 64
25, 341007, Note_on_c, 11, 61, 70
25, 341159, Note_off_c, 11, 61, 64
25, 341244, Note_on_c, 11, 61, 59
25, 341315, Note_off_c, 11, 61, 64
25, 341374, Note_on_c, 11, 61, 61
25, 341505, Note_off_c, 11, 61, 64
25, 341590, Note_on_c, 11, 61, 64
25, 341662, Note_off_c, 11, 61, 64
25, 341720, Note_on_c, 11, 60, 78
25, 341858, Note_off_c, 11, 60, 64
25, 341952, Note_on_c, 11, 60, 60
25, 342027, Note_off_c, 11, 60, 64
25, 342098, Note_on_c, 11, 60, 59
25, 342240, Note_off_c, 11, 60, 64
25, 342326, Note_on_c, 11, 60, 62
25, 342391, Note_off_c, 11, 60, 64
25, 342452, Note_on_c, 11, 60, 68
25, 342593, Note_off_c, 11, 60, 64
25, 342681, Note_on_c, 11, 60, 60
25, 342738, Note_off_c, 11, 60, 64
25, 342807, Note_on_c, 11, 59, 64
25, 342940, Note_off_c, 11, 59, 64
25, 343028, Note_on_c, 11, 59, 62
25, 343093, Note_off_c, 11, 59, 64
25, 343160, Note_on_c, 11, 59, 64
25, 343311, Note_off_c, 11, 59, 64
25, 343388, Note_on_c, 11, 59, 60
25, 343451, Note_off_c, 11, 59, 64
25, 343523, Note_on_c, 11, 59, 63
25, 343667, Note_off_c, 11, 59, 64
25, 343748, Note_on_c, 11, 59, 63
25, 343826, Note_off_c, 11, 59, 64
25, 343883, Note_on_c, 11, 58, 70
25, 344045, Note_off_c, 11, 58, 64
25, 344115, Note_on_c, 11, 58, 57
25, 344177, Note_off_c, 11, 58, 64
25, 344247, Note_on_c, 11, 58, 59
25, 344394, Note_off_c, 11, 58, 64
25, 344466, Note_on_c, 11, 58, 58
25, 344535, Note_off_c, 11, 58, 64
25, 344596, Note_on_c, 11, 58, 61
25, 344735, Note_off_c, 11, 58, 64
25, 344821, Note_on_c, 11, 58, 57
25, 344891, Note_off_c, 11, 58, 64
25, 344963, Note_on_c, 11, 57, 66
25, 345118, Note_off_c, 11, 57, 64
25, 345197, Note_on_c, 11, 57, 66
25, 345264, Note_off_c, 11, 57, 64
25, 345329, Note_on_c, 11, 57, 68
25, 345480, Note_off_c, 11, 57, 64
25, 345552, Note_on_c, 11, 57, 60
25, 345618, Note_off_c, 11, 57, 64
25, 345678, Note_on_c, 11, 57, 63
25, 345829, Note_off_c, 11, 57, 64
25, 345932, Note_on_c, 11, 57, 66
25, 346023, Note_off_c, 11, 57, 64
25, 346075, Note_on_c, 11, 56, 68
25, 346223, Note_off_c, 11, 56, 64
25, 346310, Note_on_c, 11, 56, 52
25, 346386, Note_off_c, 11, 56, 64
25, 346439, Note_on_c, 11, 56, 57
25, 346592, Note_off_c, 11, 56, 64
25, 346668, Note_on_c, 11, 56, 60
25, 346731, Note_off_c, 11, 56, 64
25, 346800, Note_on_c, 11, 56, 60
25, 346911, Note_off_c, 11, 56, 64
25, 346999, Note_on_c, 11, 56, 56
25, 347071, Note_off_c, 11, 56, 64
25, 347134, Note_on_c, 11, 55, 63
25, 347289, Note_off_c, 11, 55, 64
25, 347361, Note_on_c, 11, 55, 58
25, 347440, Note_off_c, 11, 55, 64
25, 347508, Note_on_c, 11, 55, 62
25, 347638, Note_off_c, 11, 55, 64
25, 347726, Note_on_c, 11, 55, 66
25, 347804, Note_off_c, 11, 55, 64
25, 347863, Note_on_c, 11, 55, 63
25, 347975, Note_off_c, 11, 55, 64
25, 348074, Note_on_c, 11, 55, 66
25, 348173, Note_off_c, 11, 55, 64
25, 348200, Note_on_c, 11, 53, 66
25, 348348, Note_off_c, 11, 53, 64
25, 348439, Note_on_c, 11, 57, 74
25, 348504, Note_off_c, 11, 57, 64
25, 348563, Note_on_c, 11, 57, 87
25, 348682, Note_on_c, 11, 58, 63
25, 348692, Note_off_c, 11, 57, 64
25, 348790, Note_off_c, 11, 58, 64
25, 348792, Note_on_c, 11, 55, 63
25, 348855, Note_off_c, 11, 55, 64
25, 348929, Note_on_c, 11, 55, 87
25, 349033, Note_on_c, 11, 57, 70
25, 349056, Note_off_c, 11, 55, 64
25, 349127, Note_off_c, 11, 57, 64
25, 349159, Note_on_c, 11, 53, 64
25, 349224, Note_off_c, 11, 53, 64
25, 349287, Note_on_c, 11, 53, 78
25, 349411, Note_on_c, 11, 55, 60
25, 349415, Note_off_c, 11, 53, 64
25, 349485, Note_off_c, 11, 55, 64
25, 349530, Note_on_c, 11, 57, 68
25, 349596, Note_off_c, 11, 57, 64
25, 349658, Note_on_c, 11, 58, 93
25, 349762, Note_on_c, 11, 60, 59
25, 349778, Note_off_c, 11, 58, 64
25, 349834, Note_off_c, 11, 60, 64
25, 349879, Note_on_c, 11, 57, 64
25, 349933, Note_off_c, 11, 57, 64
25, 350001, Note_on_c, 11, 57, 78
25, 350102, Note_on_c, 11, 58, 60
25, 350111, Note_off_c, 11, 57, 64
25, 350187, Note_off_c, 11, 58, 64
25, 350225, Note_on_c, 11, 56, 78
25, 350286, Note_off_c, 11, 56, 64
25, 350372, Note_on_c, 11, 56, 66
25, 350581, Note_off_c, 11, 56, 64
25, 351678, Note_on_c, 11, 61, 63
25, 351742, Note_off_c, 11, 61, 64
25, 351816, Note_on_c, 11, 61, 68
25, 351924, Note_off_c, 11, 61, 64
25, 352034, Note_on_c, 11, 61, 74
25, 352104, Note_off_c, 11, 61, 64
25, 352167, Note_on_c, 11, 61, 87
25, 352293, Note_off_c, 11, 61, 64
25, 352372, Note_on_c, 11, 61, 64
25, 352449, Note_off_c, 11, 61, 64
25, 352518, Note_on_c, 11, 62, 89
25, 352620, Note_on_c, 11, 66, 72
25, 352626, Note_off_c, 11, 62, 64
25, 352687, Note_off_c, 11, 66, 64
25, 352736, Note_on_c, 11, 64, 80
25, 352802, Note_off_c, 11, 64, 64
25, 352863, Note_on_c, 11, 62, 85
25, 352977, Note_off_c, 11, 62, 64
25, 353088, Note_on_c, 11, 62, 72
25, 353155, Note_off_c, 11, 62, 64
25, 353213, Note_on_c, 11, 57, 70
25, 353340, Note_off_c, 11, 57, 64
25, 353447, Note_on_c, 11, 57, 72
25, 353520, Note_off_c, 11, 57, 64
25, 353582, Note_on_c, 11, 57, 85
25, 353798, Note_off_c, 11, 57, 64
25, 375233, Note_on_c, 11, 66, 102
25, 375525, Note_off_c, 11, 66, 64
25, 375913, Note_on_c, 11, 69, 98
25, 375950, Note_off_c, 11, 69, 64
25, 375969, Note_on_c, 11, 69, 98
25, 376051, Note_off_c, 11, 69, 64
25, 376151, Note_on_c, 11, 66, 87
25, 376194, Note_off_c, 11, 66, 64
25, 376209, Note_on_c, 11, 62, 95
25, 376668, Note_off_c, 11, 62, 64
25, 376864, Note_on_c, 11, 74, 105
25, 376902, Note_off_c, 11, 74, 64
25, 376924, Note_on_c, 11, 74, 100
25, 376990, Note_off_c, 11, 74, 64
25, 377092, Note_on_c, 11, 69, 85
25, 377129, Note_off_c, 11, 69, 64
25, 377158, Note_on_c, 11, 66, 93
25, 377652, Note_off_c, 11, 66, 64
25, 377813, Note_on_c, 11, 66, 85
25, 377860, Note_off_c, 11, 66, 64
25, 377876, Note_on_c, 11, 63, 82
25, 377963, Note_off_c, 11, 63, 64
25, 378047, Note_on_c, 11, 71, 82
25, 378078, Note_off_c, 11, 71, 64
25, 378117, Note_on_c, 11, 71, 89
25, 379055, Note_off_c, 11, 71, 64
25, 379192, Note_on_c, 11, 61, 80
25, 379244, Note_off_c, 11, 61, 64
25, 379245, Note_on_c, 11, 62, 72
25, 379304, Note_off_c, 11, 62, 64
25, 379305, Note_on_c, 11, 64, 74
25, 379362, Note_on_c, 11, 66, 80
25, 379364, Note_off_c, 11, 64, 64
25, 379421, Note_off_c, 11, 66, 64
25, 379421, Note_on_c, 11, 67, 80
25, 379467, Note_off_c, 11, 67, 64
25, 379478, Note_on_c, 11, 64, 80
25, 379525, Note_off_c, 11, 64, 64
25, 379539, Note_on_c, 11, 69, 85
25, 379598, Note_on_c, 11, 71, 78
25, 379604, Note_off_c, 11, 69, 64
25, 379648, Note_off_c, 11, 71, 64
25, 379657, Note_on_c, 11, 73, 76
25, 379708, Note_off_c, 11, 73, 64
25, 379716, Note_on_c, 11, 74, 85
25, 379747, Note_off_c, 11, 74, 64
25, 379772, Note_on_c, 11, 76, 95
25, 379831, Note_on_c, 11, 74, 80
25, 379833, Note_off_c, 11, 76, 64
25, 379874, Note_off_c, 11, 74, 64
25, 379885, Note_on_c, 11, 76, 85
25, 379934, Note_off_c, 11, 76, 64
25, 379946, Note_on_c, 11, 73, 82
25, 379984, Note_off_c, 11, 73, 64
25, 380012, Note_on_c, 11, 69, 89
25, 380499, Note_off_c, 11, 69, 64
25, 380662, Note_on_c, 11, 66, 80
25, 380697, Note_off_c, 11, 66, 64
25, 380724, Note_on_c, 11, 66, 89
25, 380801, Note_off_c, 11, 66, 64
25, 380899, Note_on_c, 11, 62, 76
25, 380942, Note_off_c, 11, 62, 64
25, 380963, Note_on_c, 11, 67, 87
25, 381486, Note_off_c, 11, 67, 64
25, 381649, Note_on_c, 11, 67, 87
25, 381687, Note_off_c, 11, 67, 64
25, 381709, Note_on_c, 11, 67, 95
25, 381785, Note_off_c, 11, 67, 64
25, 381882, Note_on_c, 11, 71, 87
25, 381926, Note_off_c, 11, 71, 64
25, 381942, Note_on_c, 11, 64, 82
25, 382422, Note_off_c, 11, 64, 64
25, 382601, Note_on_c, 11, 69, 85
25, 382650, Note_off_c, 11, 69, 64
25, 382666, Note_on_c, 11, 74, 100
25, 382733, Note_off_c, 11, 74, 64
25, 382831, Note_on_c, 11, 69, 80
25, 382875, Note_off_c, 11, 69, 64
25, 382904, Note_on_c, 11, 71, 98
25, 383250, Note_off_c, 11, 71, 64
25, 383345, Note_on_c, 11, 71, 91
25, 383382, Note_off_c, 11, 71, 64
25, 383395, Note_on_c, 11, 69, 98
25, 383487, Note_off_c, 11, 69, 64
25, 383643, Note_on_c, 11, 69, 100
25, 383724, Note_off_c, 11, 69, 64
25, 383877, Note_on_c, 11, 69, 100
25, 383973, Note_off_c, 11, 69, 64
25, 384052, Note_on_c, 11, 66, 78
25, 384087, Note_off_c, 11, 66, 64
25, 384115, Note_on_c, 11, 66, 95
25, 384189, Note_off_c, 11, 66, 64
25, 384301, Note_on_c, 11, 62, 76
25, 384335, Note_off_c, 11, 62, 64
25, 384370, Note_on_c, 11, 62, 98
25, 384866, Note_off_c, 11, 62, 64
25, 385016, Note_on_c, 11, 64, 80
25, 385051, Note_off_c, 11, 64, 64
25, 385080, Note_on_c, 11, 64, 98
25, 385160, Note_off_c, 11, 64, 64
25, 385255, Note_on_c, 11, 67, 87
25, 385297, Note_off_c, 11, 67, 64
25, 385320, Note_on_c, 11, 61, 87
25, 385433, Note_off_c, 11, 61, 64
25, 385559, Note_on_c, 11, 66, 85
25, 385665, Note_off_c, 11, 66, 64
25, 385805, Note_on_c, 11, 66, 80
25, 386291, Note_off_c, 11, 66, 64
25, 386451, Note_on_c, 11, 62, 80
25, 386489, Note_off_c, 11, 62, 64
25, 386516, Note_on_c, 11, 59, 82
25, 386613, Note_off_c, 11, 59, 64
25, 386692, Note_on_c, 11, 59, 82
25, 386732, Note_off_c, 11, 59, 64
25, 386758, Note_on_c, 11, 57, 87
25, 387074, Note_off_c, 11, 57, 64
25, 387167, Note_on_c, 11, 57, 78
25, 387227, Note_off_c, 11, 57, 64
25, 387230, Note_on_c, 11, 62, 95
25, 387321, Note_off_c, 11, 62, 64
25, 387412, Note_on_c, 11, 67, 82
25, 387450, Note_off_c, 11, 67, 64
25, 387470, Note_on_c, 11, 67, 87
25, 387558, Note_off_c, 11, 67, 64
25, 387644, Note_on_c, 11, 69, 85
25, 387686, Note_off_c, 11, 69, 64
25, 387704, Note_on_c, 11, 69, 89
25, 387809, Note_off_c, 11, 69, 64
25, 387876, Note_on_c, 11, 61, 80
25, 387915, Note_off_c, 11, 61, 64
25, 387940, Note_on_c, 11, 61, 91
25, 388016, Note_off_c, 11, 61, 64
25, 388110, Note_on_c, 11, 57, 78
25, 388145, Note_off_c, 11, 57, 64
25, 388180, Note_on_c, 11, 57, 95
25, 388679, Note_off_c, 11, 57, 64
25, 388842, Note_on_c, 11, 57, 82
25, 388891, Note_off_c, 11, 57, 64
25, 388907, Note_on_c, 11, 62, 98
25, 388974, Note_off_c, 11, 62, 64
25, 389079, Note_on_c, 11, 57, 82
25, 389128, Note_off_c, 11, 57, 64
25, 389150, Note_on_c, 11, 66, 87
25, 389640, Note_off_c, 11, 66, 64
25, 389808, Note_on_c, 11, 67, 93
25, 389858, Note_off_c, 11, 67, 64
25, 389871, Note_on_c, 11, 61, 93
25, 389948, Note_off_c, 11, 61, 64
25, 390040, Note_on_c, 11, 64, 82
25, 390082, Note_off_c, 11, 64, 64
25, 390102, Note_on_c, 11, 67, 89
25, 390595, Note_off_c, 11, 67, 64
25, 390750, Note_on_c, 11, 61, 82
25, 390786, Note_off_c, 11, 61, 64
25, 390815, Note_on_c, 11, 62, 95
25, 391080, Note_off_c, 11, 62, 64
25, 391247, Note_on_c, 11, 62, 85
25, 391283, Note_off_c, 11, 62, 64
25, 391312, Note_on_c, 11, 61, 89
25, 391568, Note_off_c, 11, 61, 64
25, 391736, Note_on_c, 11, 57, 80
25, 391778, Note_off_c, 11, 57, 64
25, 391804, Note_on_c, 11, 57, 85
25, 391883, Note_off_c, 11, 57, 64
25, 391966, Note_on_c, 11, 62, 82
25, 392004, Note_off_c, 11, 62, 64
25, 392031, Note_on_c, 11, 66, 87
25, 392611, Note_off_c, 11, 66, 64
25, 392682, Note_on_c, 11, 62, 82
25, 392718, Note_off_c, 11, 62, 64
25, 392747, Note_on_c, 11, 62, 100
25, 392831, Note_off_c, 11, 62, 64
25, 392922, Note_on_c, 11, 61, 87
25, 392973, Note_off_c, 11, 61, 64
25, 392989, Note_on_c, 11, 59, 93
25, 393318, Note_off_c, 11, 59, 64
25, 393401, Note_on_c, 11, 67, 85
25, 393445, Note_off_c, 11, 67, 64
25, 393466, Note_on_c, 11, 69, 89
25, 393553, Note_off_c, 11, 69, 64
25, 393644, Note_on_c, 11, 69, 95
25, 393678, Note_off_c, 11, 69, 64
25, 393703, Note_on_c, 11, 69, 95
25, 393779, Note_off_c, 11, 69, 64
25, 393877, Note_on_c, 11, 67, 80
25, 393919, Note_off_c, 11, 67, 64
25, 393961, Note_on_c, 11, 66, 82
25, 394031, Note_on_c, 11, 64, 64
25, 394035, Note_off_c, 11, 66, 64
25, 394062, Note_on_c, 11, 66, 66
25, 394065, Note_off_c, 11, 64, 64
25, 394089, Note_on_c, 11, 64, 68
25, 394092, Note_off_c, 11, 66, 64
25, 394116, Note_on_c, 11, 66, 74
25, 394119, Note_off_c, 11, 64, 64
25, 394138, Note_on_c, 11, 64, 78
25, 394143, Note_off_c, 11, 66, 64
25, 394167, Note_off_c, 11, 64, 64
25, 394167, Note_on_c, 11, 66, 87
25, 394194, Note_on_c, 11, 64, 98
25, 394197, Note_off_c, 11, 66, 64
25, 394304, Note_off_c, 11, 64, 64
25, 394359, Note_on_c, 11, 66, 89
25, 394393, Note_off_c, 11, 66, 64
25, 394432, Note_on_c, 11, 66, 100
25, 395446, Note_off_c, 11, 66, 64
25, 395446, End_track
26, 0, Start_track
26, 0, Title_t, "Cello"
26, 0, Program_c, 12, 42
26, 0, Control_c, 12, 7, 100
26, 23342, Note_on_c, 12, 52, 85
26, 23391, Note_off_c, 12, 52, 64
26, 23401, Note_on_c, 12, 54, 74
26, 23448, Note_off_c, 12, 54, 64
26, 23461, Note_on_c, 12, 55, 85
26, 23503, Note_off_c, 12, 55, 64
26, 23523, Note_on_c, 12, 57, 64
26, 23568, Note_off_c, 12, 57, 64
26, 23583, Note_on_c, 12, 59, 89
26, 23627, Note_off_c, 12, 59, 64
26, 23641, Note_on_c, 12, 61, 76
26, 23682, Note_off_c, 12, 61, 64
26, 23700, Note_on_c, 12, 62, 100
26, 23744, Note_off_c, 12, 62, 64
26, 23763, Note_on_c, 12, 61, 85
26, 23802, Note_off_c, 12, 61, 64
26, 23818, Note_on_c, 12, 59, 89
26, 23860, Note_off_c, 12, 59, 64
26, 23880, Note_on_c, 12, 61, 91
26, 23912, Note_off_c, 12, 61, 64
26, 23938, Note_on_c, 12, 57, 105
26, 23986, Note_off_c, 12, 57, 64
26, 24007, Note_on_c, 12, 50, 98
26, 24823, Note_off_c, 12, 50, 64
26, 24892, Note_on_c, 12, 50, 107
26, 24920, Note_off_c, 12, 50, 64
26, 24946, Note_on_c, 12, 50, 102
26, 25789, Note_off_c, 12, 50, 64
26, 25845, Note_on_c, 12, 50, 100
26, 25874, Note_off_c, 12, 50, 64
26, 25899, Note_on_c, 12, 50, 100
26, 26721, Note_off_c, 12, 50, 64
26, 26788, Note_on_c, 12, 50, 93
26, 26822, Note_off_c, 12, 50, 64
26, 26852, Note_on_c, 12, 50, 100
26, 27124, Note_off_c, 12, 50, 64
26, 27158, Note_on_c, 12, 49, 91
26, 27194, Note_off_c, 12, 49, 64
26, 27218, Note_on_c, 12, 50, 95
26, 27262, Note_off_c, 12, 50, 64
26, 27273, Note_on_c, 12, 47, 100
26, 27318, Note_off_c, 12, 47, 64
26, 27339, Note_on_c, 12, 49, 110
26, 27437, Note_off_c, 12, 49, 64
26, 27586, Note_on_c, 12, 45, 98
26, 27691, Note_off_c, 12, 45, 64
26, 27825, Note_on_c, 12, 50, 100
26, 28108, Note_off_c, 12, 50, 64
26, 28139, Note_on_c, 12, 49, 89
26, 28184, Note_off_c, 12, 49, 64
26, 28196, Note_on_c, 12, 50, 82
26, 28246, Note_off_c, 12, 50, 64
26, 28249, Note_on_c, 12, 52, 87
26, 28295, Note_off_c, 12, 52, 64
26, 28312, Note_on_c, 12, 54, 100
26, 28358, Note_off_c, 12, 54, 64
26, 28379, Note_on_c, 12, 55, 95
26, 28424, Note_off_c, 12, 55, 64
26, 28434, Note_on_c, 12, 57, 82
26, 28477, Note_off_c, 12, 57, 64
26, 28493, Note_on_c, 12, 59, 98
26, 28532, Note_off_c, 12, 59, 64
26, 28553, Note_on_c, 12, 60, 95
26, 28594, Note_off_c, 12, 60, 64
26, 28613, Note_on_c, 12, 59, 102
26, 28646, Note_off_c, 12, 59, 64
26, 28666, Note_on_c, 12, 60, 95
26, 28707, Note_off_c, 12, 60, 64
26, 28719, Note_on_c, 12, 57, 89
26, 28756, Note_off_c, 12, 57, 64
26, 28789, Note_on_c, 12, 51, 95
26, 29044, Note_off_c, 12, 51, 64
26, 29077, Note_on_c, 12, 49, 100
26, 29116, Note_off_c, 12, 49, 64
26, 29139, Note_on_c, 12, 51, 105
26, 29175, Note_off_c, 12, 51, 64
26, 29192, Note_on_c, 12, 47, 100
26, 29239, Note_off_c, 12, 47, 64
26, 29269, Note_on_c, 12, 59, 102
26, 29360, Note_off_c, 12, 59, 64
26, 29503, Note_on_c, 12, 47, 87
26, 29603, Note_off_c, 12, 47, 64
26, 29739, Note_on_c, 12, 52, 87
26, 30318, Note_off_c, 12, 52, 64
26, 30413, Note_on_c, 12, 52, 100
26, 30454, Note_off_c, 12, 52, 64
26, 30471, Note_on_c, 12, 54, 102
26, 30554, Note_off_c, 12, 54, 64
26, 30645, Note_on_c, 12, 50, 82
26, 30690, Note_off_c, 12, 50, 64
26, 30708, Note_on_c, 12, 55, 87
26, 30820, Note_off_c, 12, 55, 64
26, 30888, Note_on_c, 12, 54, 98
26, 30920, Note_off_c, 12, 54, 64
26, 30944, Note_on_c, 12, 55, 100
26, 31029, Note_off_c, 12, 55, 64
26, 31111, Note_on_c, 12, 52, 80
26, 31154, Note_off_c, 12, 52, 64
26, 31172, Note_on_c, 12, 54, 102
26, 31264, Note_off_c, 12, 54, 64
26, 31367, Note_on_c, 12, 52, 87
26, 31419, Note_off_c, 12, 52, 64
26, 31425, Note_on_c, 12, 54, 95
26, 31512, Note_off_c, 12, 54, 64
26, 31609, Note_on_c, 12, 55, 85
26, 31649, Note_off_c, 12, 55, 64
26, 31670, Note_on_c, 12, 57, 98
26, 32517, Note_off_c, 12, 57, 64
26, 32580, Note_on_c, 12, 57, 100
26, 32609, Note_off_c, 12, 57, 64
26, 32637, Note_on_c, 12, 57, 102
26, 33475, Note_off_c, 12, 57, 64
26, 33524, Note_on_c, 12, 57, 98
26, 33555, Note_off_c, 12, 57, 64
26, 33581, Note_on_c, 12, 57, 89
26, 34408, Note_off_c, 12, 57, 64
26, 34476, Note_on_c, 12, 57, 98
26, 34510, Note_off_c, 12, 57, 64
26, 34539, Note_on_c, 12, 57, 98
26, 34834, Note_off_c, 12, 57, 64
26, 34865, Note_on_c, 12, 56, 98
26, 34902, Note_off_c, 12, 56, 64
26, 34922, Note_on_c, 12, 57, 95
26, 34962, Note_off_c, 12, 57, 64
26, 34989, Note_on_c, 12, 54, 76
26, 35026, Note_off_c, 12, 54, 64
26, 35051, Note_on_c, 12, 56, 113
26, 35150, Note_off_c, 12, 56, 64
26, 35278, Note_on_c, 12, 52, 89
26, 35384, Note_off_c, 12, 52, 64
26, 35518, Note_on_c, 12, 57, 98
26, 36014, Note_off_c, 12, 57, 64
26, 36056, Note_on_c, 12, 57, 91
26, 36101, Note_off_c, 12, 57, 64
26, 36113, Note_on_c, 12, 59, 89
26, 36152, Note_off_c, 12, 59, 64
26, 36170, Note_on_c, 12, 61, 87
26, 36205, Note_off_c, 12, 61, 64
26, 36227, Note_on_c, 12, 62, 95
26, 36263, Note_off_c, 12, 62, 64
26, 36285, Note_on_c, 12, 61, 102
26, 36322, Note_off_c, 12, 61, 64
26, 36344, Note_on_c, 12, 62, 95
26, 36380, Note_off_c, 12, 62, 64
26, 36405, Note_on_c, 12, 59, 98
26, 36441, Note_off_c, 12, 59, 64
26, 36473, Note_on_c, 12, 57, 102
26, 36590, Note_on_c, 12, 56, 82
26, 36601, Note_off_c, 12, 57, 64
26, 36808, Note_off_c, 12, 56, 64
26, 36886, Note_on_c, 12, 54, 91
26, 36923, Note_off_c, 12, 54, 64
26, 36949, Note_on_c, 12, 53, 80
26, 37056, Note_off_c, 12, 53, 64
26, 37186, Note_on_c, 12, 49, 87
26, 37289, Note_off_c, 12, 49, 64
26, 37429, Note_on_c, 12, 54, 100
26, 37929, Note_off_c, 12, 54, 64
26, 37967, Note_on_c, 12, 52, 85
26, 38007, Note_off_c, 12, 52, 64
26, 38025, Note_on_c, 12, 54, 85
26, 38063, Note_off_c, 12, 54, 64
26, 38083, Note_on_c, 12, 56, 85
26, 38117, Note_off_c, 12, 56, 64
26, 38144, Note_on_c, 12, 57, 85
26, 38182, Note_off_c, 12, 57, 64
26, 38206, Note_on_c, 12, 56, 105
26, 38239, Note_off_c, 12, 56, 64
26, 38259, Note_on_c, 12, 57, 87
26, 38299, Note_off_c, 12, 57, 64
26, 38316, Note_on_c, 12, 54, 89
26, 38353, Note_off_c, 12, 54, 64
26, 38382, Note_on_c, 12, 56, 100
26, 38476, Note_off_c, 12, 56, 64
26, 38561, Note_on_c, 12, 52, 82
26, 38601, Note_off_c, 12, 52, 64
26, 38624, Note_on_c, 12, 57, 89
26, 38704, Note_off_c, 12, 57, 64
26, 38796, Note_on_c, 12, 59, 82
26, 38836, Note_off_c, 12, 59, 64
26, 38853, Note_on_c, 12, 61, 95
26, 38963, Note_off_c, 12, 61, 64
26, 39036, Note_on_c, 12, 62, 80
26, 39070, Note_off_c, 12, 62, 64
26, 39100, Note_on_c, 12, 61, 102
26, 39127, Note_on_c, 12, 59, 78
26, 39128, Note_off_c, 12, 61, 64
26, 39155, Note_on_c, 12, 61, 91
26, 39156, Note_off_c, 12, 59, 64
26, 39179, Note_on_c, 12, 59, 87
26, 39196, Note_off_c, 12, 61, 64
26, 39222, Note_off_c, 12, 59, 64
26, 39293, Note_on_c, 12, 57, 89
26, 39324, Note_off_c, 12, 57, 64
26, 39344, Note_on_c, 12, 52, 89
26, 40200, Note_off_c, 12, 52, 64
26, 40243, Note_on_c, 12, 52, 93
26, 40270, Note_off_c, 12, 52, 64
26, 40301, Note_on_c, 12, 52, 100
26, 41165, Note_off_c, 12, 52, 64
26, 41209, Note_on_c, 12, 52, 98
26, 41240, Note_off_c, 12, 52, 64
26, 41267, Note_on_c, 12, 52, 95
26, 42138, Note_off_c, 12, 52, 64
26, 42168, Note_on_c, 12, 52, 91
26, 42200, Note_off_c, 12, 52, 64
26, 42232, Note_on_c, 12, 52, 91
26, 43068, Note_off_c, 12, 52, 64
26, 43116, Note_on_c, 12, 52, 105
26, 43149, Note_off_c, 12, 52, 64
26, 43178, Note_on_c, 12, 52, 98
26, 43708, Note_off_c, 12, 52, 64
26, 43727, Note_on_c, 12, 54, 85
26, 43766, Note_off_c, 12, 54, 64
26, 43785, Note_on_c, 12, 52, 85
26, 43839, Note_off_c, 12, 52, 64
26, 43845, Note_on_c, 12, 50, 91
26, 43880, Note_off_c, 12, 50, 64
26, 43900, Note_on_c, 12, 49, 98
26, 43942, Note_off_c, 12, 49, 64
26, 43955, Note_on_c, 12, 47, 87
26, 43997, Note_off_c, 12, 47, 64
26, 44018, Note_on_c, 12, 49, 100
26, 44052, Note_off_c, 12, 49, 64
26, 44072, Note_on_c, 12, 45, 80
26, 44120, Note_off_c, 12, 45, 64
26, 44147, Note_on_c, 12, 54, 100
26, 44648, Note_off_c, 12, 54, 64
26, 44678, Note_on_c, 12, 55, 85
26, 44724, Note_off_c, 12, 55, 64
26, 44744, Note_on_c, 12, 54, 98
26, 44781, Note_off_c, 12, 54, 64
26, 44800, Note_on_c, 12, 52, 85
26, 44850, Note_off_c, 12, 52, 64
26, 44863, Note_on_c, 12, 50, 85
26, 44895, Note_off_c, 12, 50, 64
26, 44919, Note_on_c, 12, 49, 100
26, 44959, Note_off_c, 12, 49, 64
26, 44979, Note_on_c, 12, 50, 89
26, 45017, Note_off_c, 12, 50, 64
26, 45037, Note_on_c, 12, 47, 85
26, 45085, Note_off_c, 12, 47, 64
26, 45109, Note_on_c, 12, 56, 102
26, 45200, Note_off_c, 12, 56, 64
26, 45286, Note_on_c, 12, 52, 74
26, 45333, Note_off_c, 12, 52, 64
26, 45345, Note_on_c, 12, 57, 98
26, 45432, Note_off_c, 12, 57, 64
26, 45518, Note_on_c, 12, 50, 80
26, 45557, Note_off_c, 12, 50, 64
26, 45580, Note_on_c, 12, 52, 87
26, 45712, Note_off_c, 12, 52, 64
26, 45841, Note_on_c, 12, 40, 91
26, 45954, Note_off_c, 12, 40, 64
26, 46079, Note_on_c, 12, 45, 100
26, 46204, Note_off_c, 12, 45, 64
26, 115170, Note_on_c, 12, 45, 78
26, 115421, Note_off_c, 12, 45, 64
26, 116282, Note_on_c, 12, 45, 66
26, 116531, Note_off_c, 12, 45, 64
26, 117559, Note_on_c, 12, 45, 66
26, 117627, Note_off_c, 12, 45, 64
26, 117689, Note_on_c, 12, 49, 89
26, 117815, Note_off_c, 12, 49, 64
26, 117932, Note_on_c, 12, 52, 82
26, 118004, Note_off_c, 12, 52, 64
26, 118054, Note_on_c, 12, 49, 98
26, 118173, Note_off_c, 12, 49, 64
26, 118311, Note_on_c, 12, 45, 66
26, 118365, Note_off_c, 12, 45, 64
26, 118452, Note_on_c, 12, 50, 85
26, 118698, Note_off_c, 12, 50, 64
26, 119511, Note_on_c, 12, 50, 78
26, 119755, Note_off_c, 12, 50, 64
26, 120565, Note_on_c, 12, 50, 80
26, 120840, Note_off_c, 12, 50, 64
26, 121890, Note_on_c, 12, 50, 85
26, 121969, Note_off_c, 12, 50, 64
26, 122012, Note_on_c, 12, 54, 82
26, 122158, Note_off_c, 12, 54, 64
26, 122259, Note_on_c, 12, 57, 82
26, 122342, Note_off_c, 12, 57, 64
26, 122390, Note_on_c, 12, 54, 76
26, 122504, Note_off_c, 12, 54, 64
26, 122604, Note_on_c, 12, 50, 80
26, 122676, Note_off_c, 12, 50, 64
26, 122752, Note_on_c, 12, 43, 87
26, 122878, Note_off_c, 12, 43, 64
26, 122977, Note_on_c, 12, 55, 66
26, 123032, Note_off_c, 12, 55, 64
26, 123112, Note_on_c, 12, 55, 93
26, 123220, Note_on_c, 12, 57, 66
26, 123249, Note_off_c, 12, 55, 64
26, 123281, Note_off_c, 12, 57, 64
26, 123342, Note_on_c, 12, 54, 85
26, 123395, Note_off_c, 12, 54, 64
26, 123474, Note_on_c, 12, 54, 95
26, 123573, Note_on_c, 12, 55, 74
26, 123605, Note_off_c, 12, 54, 64
26, 123652, Note_off_c, 12, 55, 64
26, 123693, Note_on_c, 12, 52, 74
26, 123740, Note_off_c, 12, 52, 64
26, 123825, Note_on_c, 12, 52, 98
26, 123929, Note_on_c, 12, 54, 72
26, 123967, Note_off_c, 12, 52, 64
26, 124044, Note_on_c, 12, 56, 74
26, 124066, Note_off_c, 12, 54, 64
26, 124138, Note_off_c, 12, 56, 64
26, 124181, Note_on_c, 12, 57, 89
26, 124298, Note_on_c, 12, 59, 80
26, 124331, Note_off_c, 12, 57, 64
26, 124363, Note_off_c, 12, 59, 64
26, 124413, Note_on_c, 12, 55, 78
26, 124464, Note_off_c, 12, 55, 64
26, 124538, Note_on_c, 12, 55, 100
26, 124647, Note_on_c, 12, 57, 68
26, 124660, Note_off_c, 12, 55, 64
26, 124730, Note_off_c, 12, 57, 64
26, 124779, Note_on_c, 12, 54, 80
26, 124840, Note_off_c, 12, 54, 64
26, 124914, Note_on_c, 12, 54, 93
26, 125015, Note_on_c, 12, 56, 66
26, 125052, Note_off_c, 12, 54, 64
26, 125130, Note_on_c, 12, 58, 60
26, 125146, Note_off_c, 12, 56, 64
26, 125205, Note_off_c, 12, 58, 64
26, 125261, Note_on_c, 12, 59, 89
26, 125369, Note_on_c, 12, 61, 62
26, 125385, Note_off_c, 12, 59, 64
26, 125472, Note_off_c, 12, 61, 64
26, 125484, Note_on_c, 12, 57, 57
26, 125540, Note_off_c, 12, 57, 64
26, 125618, Note_on_c, 12, 57, 87
26, 125735, Note_on_c, 12, 59, 72
26, 125756, Note_off_c, 12, 57, 64
26, 125819, Note_off_c, 12, 59, 64
26, 125875, Note_on_c, 12, 56, 85
26, 125936, Note_off_c, 12, 56, 64
26, 126003, Note_on_c, 12, 56, 102
26, 126105, Note_on_c, 12, 58, 63
26, 126137, Note_off_c, 12, 56, 64
26, 126201, Note_off_c, 12, 58, 64
26, 126217, Note_on_c, 12, 59, 72
26, 126298, Note_off_c, 12, 59, 64
26, 126348, Note_on_c, 12, 61, 93
26, 126458, Note_on_c, 12, 62, 74
26, 126494, Note_off_c, 12, 61, 64
26, 126537, Note_off_c, 12, 62, 64
26, 126568, Note_on_c, 12, 59, 72
26, 126627, Note_off_c, 12, 59, 64
26, 126699, Note_on_c, 12, 59, 98
26, 126802, Note_on_c, 12, 61, 59
26, 126820, Note_off_c, 12, 59, 64
26, 126892, Note_off_c, 12, 61, 64
26, 126912, Note_on_c, 12, 58, 68
26, 126972, Note_off_c, 12, 58, 64
26, 127063, Note_on_c, 12, 58, 85
26, 127277, Note_off_c, 12, 58, 64
26, 139164, Note_on_c, 12, 59, 63
26, 139217, Note_off_c, 12, 59, 64
26, 139307, Note_on_c, 12, 59, 100
26, 139411, Note_on_c, 12, 60, 70
26, 139449, Note_off_c, 12, 59, 64
26, 139484, Note_off_c, 12, 60, 64
26, 139532, Note_on_c, 12, 57, 66
26, 139584, Note_off_c, 12, 57, 64
26, 139663, Note_on_c, 12, 57, 85
26, 139782, Note_off_c, 12, 57, 64
26, 139782, Note_on_c, 12, 59, 68
26, 139850, Note_off_c, 12, 59, 64
26, 139884, Note_on_c, 12, 55, 66
26, 139947, Note_off_c, 12, 55, 64
26, 140025, Note_on_c, 12, 55, 82
26, 140129, Note_on_c, 12, 57, 80
26, 140147, Note_off_c, 12, 55, 64
26, 140239, Note_on_c, 12, 59, 80
26, 140259, Note_off_c, 12, 57, 64
26, 140315, Note_off_c, 12, 59, 64
26, 140365, Note_on_c, 12, 60, 91
26, 140475, Note_on_c, 12, 62, 78
26, 140496, Note_off_c, 12, 60, 64
26, 140549, Note_off_c, 12, 62, 64
26, 140601, Note_on_c, 12, 59, 80
26, 140666, Note_off_c, 12, 59, 64
26, 140732, Note_on_c, 12, 59, 89
26, 140840, Note_on_c, 12, 60, 70
26, 140855, Note_off_c, 12, 59, 64
26, 140934, Note_off_c, 12, 60, 64
26, 140961, Note_on_c, 12, 57, 61
26, 141036, Note_off_c, 12, 57, 64
26, 141090, Note_on_c, 12, 57, 72
26, 141229, Note_off_c, 12, 57, 64
26, 141315, Note_on_c, 12, 57, 61
26, 141377, Note_off_c, 12, 57, 64
26, 141443, Note_on_c, 12, 57, 78
26, 141602, Note_off_c, 12, 57, 64
26, 141672, Note_on_c, 12, 57, 72
26, 141742, Note_off_c, 12, 57, 64
26, 141800, Note_on_c, 12, 57, 87
26, 141965, Note_off_c, 12, 57, 64
26, 142032, Note_on_c, 12, 57, 78
26, 142100, Note_off_c, 12, 57, 64
26, 142167, Note_on_c, 12, 57, 87
26, 142280, Note_off_c, 12, 57, 64
26, 142281, Note_on_c, 12, 54, 66
26, 142354, Note_off_c, 12, 54, 64
26, 142406, Note_on_c, 12, 55, 64
26, 142489, Note_off_c, 12, 55, 64
26, 142539, Note_on_c, 12, 57, 89
26, 142651, Note_on_c, 12, 66, 80
26, 142655, Note_off_c, 12, 57, 64
26, 142734, Note_off_c, 12, 66, 64
26, 142768, Note_on_c, 12, 55, 72
26, 142836, Note_off_c, 12, 55, 64
26, 142894, Note_on_c, 12, 57, 85
26, 142995, Note_off_c, 12, 57, 64
26, 143002, Note_on_c, 12, 55, 85
26, 143085, Note_off_c, 12, 55, 64
26, 143103, Note_on_c, 12, 54, 70
26, 143155, Note_off_c, 12, 54, 64
26, 143238, Note_on_c, 12, 55, 85
26, 143353, Note_off_c, 12, 55, 64
26, 143355, Note_on_c, 12, 52, 80
26, 143452, Note_off_c, 12, 52, 64
26, 143477, Note_on_c, 12, 54, 62
26, 143535, Note_off_c, 12, 54, 64
26, 143605, Note_on_c, 12, 55, 68
26, 143729, Note_on_c, 12, 64, 68
26, 143744, Note_off_c, 12, 55, 64
26, 143786, Note_off_c, 12, 64, 64
26, 143850, Note_on_c, 12, 54, 85
26, 143906, Note_off_c, 12, 54, 64
26, 143974, Note_on_c, 12, 55, 100
26, 144089, Note_on_c, 12, 54, 70
26, 144100, Note_off_c, 12, 55, 64
26, 144167, Note_off_c, 12, 54, 64
26, 144185, Note_on_c, 12, 52, 76
26, 144249, Note_off_c, 12, 52, 64
26, 144314, Note_on_c, 12, 54, 98
26, 144424, Note_on_c, 12, 50, 78
26, 144456, Note_off_c, 12, 54, 64
26, 144534, Note_off_c, 12, 50, 64
26, 144541, Note_on_c, 12, 52, 78
26, 144586, Note_off_c, 12, 52, 64
26, 144674, Note_on_c, 12, 54, 78
26, 144782, Note_on_c, 12, 62, 66
26, 144789, Note_off_c, 12, 54, 64
26, 144847, Note_off_c, 12, 62, 64
26, 144903, Note_on_c, 12, 52, 70
26, 144973, Note_off_c, 12, 52, 64
26, 145038, Note_on_c, 12, 54, 98
26, 145151, Note_on_c, 12, 52, 70
26, 145167, Note_off_c, 12, 54, 64
26, 145238, Note_off_c, 12, 52, 64
26, 145250, Note_on_c, 12, 50, 66
26, 145319, Note_off_c, 12, 50, 64
26, 145385, Note_on_c, 12, 52, 89
26, 145500, Note_on_c, 12, 48, 80
26, 145511, Note_off_c, 12, 52, 64
26, 145612, Note_on_c, 12, 50, 70
26, 145628, Note_off_c, 12, 48, 64
26, 145666, Note_off_c, 12, 50, 64
26, 145747, Note_on_c, 12, 52, 85
26, 145863, Note_on_c, 12, 60, 66
26, 145873, Note_off_c, 12, 52, 64
26, 145933, Note_off_c, 12, 60, 64
26, 145967, Note_on_c, 12, 50, 64
26, 146040, Note_off_c, 12, 50, 64
26, 146100, Note_on_c, 12, 52, 87
26, 146211, Note_off_c, 12, 52, 64
26, 146215, Note_on_c, 12, 50, 85
26, 146291, Note_off_c, 12, 50, 64
26, 146324, Note_on_c, 12, 48, 87
26, 146395, Note_off_c, 12, 48, 64
26, 146485, Note_on_c, 12, 50, 98
26, 146685, Note_off_c, 12, 50, 64
26, 147583, Note_on_c, 12, 50, 105
26, 147765, Note_off_c, 12, 50, 64
26, 148906, Note_on_c, 12, 38, 68
26, 148962, Note_off_c, 12, 38, 64
26, 149045, Note_on_c, 12, 38, 100
26, 149181, Note_off_c, 12, 38, 64
26, 149266, Note_on_c, 12, 38, 89
26, 149327, Note_off_c, 12, 38, 64
26, 149392, Note_on_c, 12, 38, 85
26, 149518, Note_off_c, 12, 38, 64
26, 149608, Note_on_c, 12, 38, 95
26, 149678, Note_off_c, 12, 38, 64
26, 149745, Note_on_c, 12, 38, 105
26, 149874, Note_off_c, 12, 38, 64
26, 149952, Note_on_c, 12, 48, 80
26, 150040, Note_off_c, 12, 48, 64
26, 150076, Note_on_c, 12, 47, 82
26, 150220, Note_off_c, 12, 47, 64
26, 150310, Note_on_c, 12, 52, 80
26, 150391, Note_off_c, 12, 52, 64
26, 150447, Note_on_c, 12, 45, 87
26, 150573, Note_off_c, 12, 45, 64
26, 150657, Note_on_c, 12, 50, 85
26, 150728, Note_off_c, 12, 50, 64
26, 150803, Note_on_c, 12, 43, 98
26, 150899, Note_off_c, 12, 43, 64
26, 150999, Note_on_c, 12, 50, 68
26, 151066, Note_off_c, 12, 50, 64
26, 151151, Note_on_c, 12, 55, 100
26, 151259, Note_on_c, 12, 57, 70
26, 151271, Note_off_c, 12, 55, 64
26, 151318, Note_off_c, 12, 57, 64
26, 151376, Note_on_c, 12, 54, 89
26, 151428, Note_off_c, 12, 54, 64
26, 151509, Note_on_c, 12, 54, 98
26, 151611, Note_on_c, 12, 55, 70
26, 151640, Note_off_c, 12, 54, 64
26, 151685, Note_off_c, 12, 55, 64
26, 151734, Note_on_c, 12, 52, 72
26, 151784, Note_off_c, 12, 52, 64
26, 151874, Note_on_c, 12, 52, 95
26, 151991, Note_on_c, 12, 48, 82
26, 151997, Note_off_c, 12, 52, 64
26, 152058, Note_off_c, 12, 48, 64
26, 152108, Note_on_c, 12, 50, 82
26, 152173, Note_off_c, 12, 50, 64
26, 152249, Note_on_c, 12, 52, 98
26, 152355, Note_on_c, 12, 53, 66
26, 152376, Note_off_c, 12, 52, 64
26, 152422, Note_off_c, 12, 53, 64
26, 152472, Note_on_c, 12, 50, 85
26, 152528, Note_off_c, 12, 50, 64
26, 152601, Note_on_c, 12, 50, 100
26, 152713, Note_on_c, 12, 52, 64
26, 152724, Note_off_c, 12, 50, 64
26, 152799, Note_off_c, 12, 52, 64
26, 152835, Note_on_c, 12, 48, 80
26, 152889, Note_off_c, 12, 48, 64
26, 152966, Note_on_c, 12, 48, 95
26, 153123, Note_off_c, 12, 48, 64
26, 153183, Note_on_c, 12, 47, 76
26, 153260, Note_off_c, 12, 47, 64
26, 153307, Note_on_c, 12, 45, 85
26, 153429, Note_off_c, 12, 45, 64
26, 153548, Note_on_c, 12, 48, 85
26, 153635, Note_off_c, 12, 48, 64
26, 153681, Note_on_c, 12, 42, 98
26, 153811, Note_off_c, 12, 42, 64
26, 153897, Note_on_c, 12, 45, 85
26, 153968, Note_off_c, 12, 45, 64
26, 154043, Note_on_c, 12, 36, 98
26, 154409, Note_off_c, 12, 36, 64
26, 154628, Note_on_c, 12, 52, 85
26, 154697, Note_off_c, 12, 52, 64
26, 154751, Note_on_c, 12, 50, 87
26, 154887, Note_off_c, 12, 50, 64
26, 154977, Note_on_c, 12, 48, 78
26, 155064, Note_off_c, 12, 48, 64
26, 155114, Note_on_c, 12, 47, 80
26, 155211, Note_off_c, 12, 47, 64
26, 155237, Note_on_c, 12, 48, 80
26, 155334, Note_off_c, 12, 48, 64
26, 155366, Note_on_c, 12, 50, 85
26, 155438, Note_off_c, 12, 50, 64
26, 155492, Note_on_c, 12, 52, 89
26, 155598, Note_off_c, 12, 52, 64
26, 155705, Note_on_c, 12, 48, 68
26, 155769, Note_off_c, 12, 48, 64
26, 155847, Note_on_c, 12, 50, 91
26, 155955, Note_off_c, 12, 50, 64
26, 156052, Note_on_c, 12, 38, 85
26, 156122, Note_off_c, 12, 38, 64
26, 156198, Note_on_c, 12, 43, 89
26, 156347, Note_off_c, 12, 43, 64
26, 156569, Note_on_c, 12, 47, 93
26, 156691, Note_off_c, 12, 47, 64
26, 156921, Note_on_c, 12, 50, 85
26, 157055, Note_off_c, 12, 50, 64
26, 157300, Note_on_c, 12, 55, 89
26, 157413, Note_off_c, 12, 55, 64
26, 157659, Note_on_c, 12, 47, 91
26, 157789, Note_off_c, 12, 47, 64
26, 158014, Note_on_c, 12, 50, 89
26, 158144, Note_off_c, 12, 50, 64
26, 158387, Note_on_c, 12, 43, 95
26, 158534, Note_off_c, 12, 43, 64
26, 180197, Note_on_c, 12, 62, 70
26, 180257, Note_off_c, 12, 62, 64
26, 180329, Note_on_c, 12, 62, 100
26, 180438, Note_on_c, 12, 64, 64
26, 180460, Note_off_c, 12, 62, 64
26, 180505, Note_off_c, 12, 64, 64
26, 180555, Note_on_c, 12, 60, 76
26, 180606, Note_off_c, 12, 60, 64
26, 180701, Note_on_c, 12, 60, 95
26, 180809, Note_on_c, 12, 62, 74
26, 180813, Note_off_c, 12, 60, 64
26, 180883, Note_off_c, 12, 62, 64
26, 180915, Note_on_c, 12, 59, 74
26, 180982, Note_off_c, 12, 59, 64
26, 181061, Note_on_c, 12, 59, 89
26, 181165, Note_on_c, 12, 61, 70
26, 181203, Note_off_c, 12, 59, 64
26, 181288, Note_on_c, 12, 62, 80
26, 181295, Note_off_c, 12, 61, 64
26, 181401, Note_off_c, 12, 62, 64
26, 181410, Note_on_c, 12, 64, 82
26, 181522, Note_on_c, 12, 66, 74
26, 181549, Note_off_c, 12, 64, 64
26, 181603, Note_off_c, 12, 66, 64
26, 181638, Note_on_c, 12, 62, 70
26, 181695, Note_off_c, 12, 62, 64
26, 181783, Note_on_c, 12, 62, 100
26, 181887, Note_on_c, 12, 64, 70
26, 181904, Note_off_c, 12, 62, 64
26, 181974, Note_off_c, 12, 64, 64
26, 182006, Note_on_c, 12, 61, 64
26, 182060, Note_off_c, 12, 61, 64
26, 182145, Note_on_c, 12, 61, 68
26, 182260, Note_off_c, 12, 61, 64
26, 182375, Note_on_c, 12, 61, 57
26, 182435, Note_off_c, 12, 61, 64
26, 182512, Note_on_c, 12, 61, 80
26, 182636, Note_off_c, 12, 61, 64
26, 182733, Note_on_c, 12, 61, 63
26, 182795, Note_off_c, 12, 61, 64
26, 182870, Note_on_c, 12, 61, 87
26, 182964, Note_off_c, 12, 61, 64
26, 183081, Note_on_c, 12, 61, 68
26, 183171, Note_off_c, 12, 61, 64
26, 183210, Note_on_c, 12, 62, 87
26, 183309, Note_off_c, 12, 62, 64
26, 183435, Note_on_c, 12, 57, 80
26, 183495, Note_off_c, 12, 57, 64
26, 183570, Note_on_c, 12, 57, 105
26, 183673, Note_on_c, 12, 59, 72
26, 183698, Note_off_c, 12, 57, 64
26, 183740, Note_off_c, 12, 59, 64
26, 183786, Note_on_c, 12, 55, 76
26, 183843, Note_off_c, 12, 55, 64
26, 183921, Note_on_c, 12, 55, 98
26, 184024, Note_on_c, 12, 57, 68
26, 184038, Note_off_c, 12, 55, 64
26, 184109, Note_off_c, 12, 57, 64
26, 184150, Note_on_c, 12, 54, 72
26, 184206, Note_off_c, 12, 54, 64
26, 184276, Note_on_c, 12, 54, 87
26, 184380, Note_on_c, 12, 56, 80
26, 184409, Note_off_c, 12, 54, 64
26, 184483, Note_off_c, 12, 56, 64
26, 184488, Note_on_c, 12, 57, 80
26, 184602, Note_off_c, 12, 57, 64
26, 184618, Note_on_c, 12, 59, 91
26, 184731, Note_off_c, 12, 59, 64
26, 184731, Note_on_c, 12, 61, 64
26, 184807, Note_off_c, 12, 61, 64
26, 184843, Note_on_c, 12, 57, 80
26, 184897, Note_off_c, 12, 57, 64
26, 184983, Note_on_c, 12, 57, 100
26, 185088, Note_on_c, 12, 59, 66
26, 185100, Note_off_c, 12, 57, 64
26, 185151, Note_off_c, 12, 59, 64
26, 185212, Note_on_c, 12, 56, 61
26, 185275, Note_off_c, 12, 56, 64
26, 185360, Note_on_c, 12, 56, 80
26, 185477, Note_off_c, 12, 56, 64
26, 185606, Note_on_c, 12, 56, 57
26, 185667, Note_off_c, 12, 56, 64
26, 185738, Note_on_c, 12, 56, 80
26, 185867, Note_off_c, 12, 56, 64
26, 185954, Note_on_c, 12, 56, 63
26, 186013, Note_off_c, 12, 56, 64
26, 186078, Note_on_c, 12, 56, 80
26, 186182, Note_off_c, 12, 56, 64
26, 186305, Note_on_c, 12, 56, 72
26, 186377, Note_off_c, 12, 56, 64
26, 186432, Note_on_c, 12, 57, 89
26, 186546, Note_off_c, 12, 57, 64
26, 186650, Note_on_c, 12, 55, 64
26, 186702, Note_off_c, 12, 55, 64
26, 186783, Note_on_c, 12, 54, 63
26, 186915, Note_off_c, 12, 54, 64
26, 187014, Note_on_c, 12, 54, 63
26, 187084, Note_off_c, 12, 54, 64
26, 187145, Note_on_c, 12, 54, 87
26, 187260, Note_off_c, 12, 54, 64
26, 187363, Note_on_c, 12, 54, 85
26, 187431, Note_off_c, 12, 54, 64
26, 187503, Note_on_c, 12, 55, 91
26, 187617, Note_on_c, 12, 52, 76
26, 187656, Note_off_c, 12, 55, 64
26, 187725, Note_on_c, 12, 54, 89
26, 187750, Note_off_c, 12, 52, 64
26, 187818, Note_off_c, 12, 54, 64
26, 187863, Note_on_c, 12, 55, 100
26, 187971, Note_on_c, 12, 57, 62
26, 187991, Note_off_c, 12, 55, 64
26, 188045, Note_off_c, 12, 57, 64
26, 188097, Note_on_c, 12, 54, 66
26, 188162, Note_off_c, 12, 54, 64
26, 188232, Note_on_c, 12, 54, 82
26, 188342, Note_on_c, 12, 55, 70
26, 188349, Note_off_c, 12, 54, 64
26, 188427, Note_off_c, 12, 55, 64
26, 188470, Note_on_c, 12, 52, 68
26, 188540, Note_off_c, 12, 52, 64
26, 188618, Note_on_c, 12, 52, 98
26, 188749, Note_off_c, 12, 52, 64
26, 188970, Note_on_c, 12, 40, 93
26, 189109, Note_off_c, 12, 40, 64
26, 189325, Note_on_c, 12, 52, 82
26, 189451, Note_off_c, 12, 52, 64
26, 189703, Note_on_c, 12, 57, 87
26, 189809, Note_off_c, 12, 57, 64
26, 190068, Note_on_c, 12, 45, 95
26, 190209, Note_off_c, 12, 45, 64
26, 190414, Note_on_c, 12, 57, 82
26, 190544, Note_off_c, 12, 57, 64
26, 190783, Note_on_c, 12, 62, 95
26, 190901, Note_off_c, 12, 62, 64
26, 191127, Note_on_c, 12, 38, 91
26, 191260, Note_off_c, 12, 38, 64
26, 191472, Note_on_c, 12, 50, 82
26, 191611, Note_off_c, 12, 50, 64
26, 191838, Note_on_c, 12, 55, 85
26, 191996, Note_off_c, 12, 55, 64
26, 192428, Note_on_c, 12, 52, 76
26, 192511, Note_off_c, 12, 52, 64
26, 192545, Note_on_c, 12, 54, 82
26, 192675, Note_off_c, 12, 54, 64
26, 192803, Note_on_c, 12, 55, 72
26, 192879, Note_off_c, 12, 55, 64
26, 192925, Note_on_c, 12, 57, 87
26, 193091, Note_off_c, 12, 57, 64
26, 193494, Note_on_c, 12, 54, 74
26, 193596, Note_off_c, 12, 54, 64
26, 193625, Note_on_c, 12, 55, 80
26, 193749, Note_off_c, 12, 55, 64
26, 193857, Note_on_c, 12, 57, 80
26, 193949, Note_off_c, 12, 57, 64
26, 194000, Note_on_c, 12, 59, 85
26, 194113, Note_off_c, 12, 59, 64
26, 194385, Note_on_c, 12, 55, 82
26, 194518, Note_off_c, 12, 55, 64
26, 194752, Note_on_c, 12, 54, 78
26, 194869, Note_off_c, 12, 54, 64
26, 195101, Note_on_c, 12, 52, 87
26, 195195, Note_on_c, 12, 55, 80
26, 195226, Note_off_c, 12, 52, 64
26, 195308, Note_on_c, 12, 59, 72
26, 195323, Note_off_c, 12, 55, 64
26, 195386, Note_off_c, 12, 59, 64
26, 195455, Note_on_c, 12, 64, 85
26, 195562, Note_on_c, 12, 66, 68
26, 195578, Note_off_c, 12, 64, 64
26, 195645, Note_off_c, 12, 66, 64
26, 195680, Note_on_c, 12, 62, 68
26, 195737, Note_off_c, 12, 62, 64
26, 195819, Note_on_c, 12, 62, 100
26, 195920, Note_on_c, 12, 64, 70
26, 195929, Note_off_c, 12, 62, 64
26, 195989, Note_off_c, 12, 64, 64
26, 196035, Note_on_c, 12, 61, 89
26, 196102, Note_off_c, 12, 61, 64
26, 196190, Note_on_c, 12, 61, 89
26, 196359, Note_off_c, 12, 61, 64
26, 196775, Note_on_c, 12, 57, 68
26, 196849, Note_off_c, 12, 57, 64
26, 196896, Note_on_c, 12, 54, 82
26, 197004, Note_off_c, 12, 54, 64
26, 197119, Note_on_c, 12, 57, 80
26, 197175, Note_off_c, 12, 57, 64
26, 197250, Note_on_c, 12, 50, 85
26, 197391, Note_off_c, 12, 50, 64
26, 197488, Note_on_c, 12, 52, 76
26, 197574, Note_off_c, 12, 52, 64
26, 197619, Note_on_c, 12, 54, 80
26, 197758, Note_off_c, 12, 54, 64
26, 197848, Note_on_c, 12, 55, 78
26, 197933, Note_off_c, 12, 55, 64
26, 197978, Note_on_c, 12, 57, 91
26, 198089, Note_off_c, 12, 57, 64
26, 198201, Note_on_c, 12, 45, 82
26, 198278, Note_off_c, 12, 45, 64
26, 198330, Note_on_c, 12, 50, 89
26, 198455, Note_off_c, 12, 50, 64
26, 198573, Note_on_c, 12, 54, 76
26, 198638, Note_off_c, 12, 54, 64
26, 198707, Note_on_c, 12, 54, 102
26, 198813, Note_on_c, 12, 55, 70
26, 198834, Note_off_c, 12, 54, 64
26, 198876, Note_off_c, 12, 55, 64
26, 198928, Note_on_c, 12, 52, 74
26, 198986, Note_off_c, 12, 52, 64
26, 199058, Note_on_c, 12, 52, 87
26, 199162, Note_on_c, 12, 54, 59
26, 199171, Note_off_c, 12, 52, 64
26, 199234, Note_off_c, 12, 54, 64
26, 199270, Note_on_c, 12, 50, 80
26, 199353, Note_off_c, 12, 50, 64
26, 199423, Note_on_c, 12, 50, 89
26, 199544, Note_on_c, 12, 52, 82
26, 199556, Note_off_c, 12, 50, 64
26, 199632, Note_off_c, 12, 52, 64
26, 199655, Note_on_c, 12, 54, 74
26, 199720, Note_off_c, 12, 54, 64
26, 199789, Note_on_c, 12, 54, 98
26, 199896, Note_on_c, 12, 55, 70
26, 199920, Note_off_c, 12, 54, 64
26, 199968, Note_off_c, 12, 55, 64
26, 200013, Note_on_c, 12, 52, 78
26, 200066, Note_off_c, 12, 52, 64
26, 200141, Note_on_c, 12, 52, 87
26, 200256, Note_on_c, 12, 54, 68
26, 200264, Note_off_c, 12, 52, 64
26, 200339, Note_off_c, 12, 54, 64
26, 200386, Note_on_c, 12, 50, 87
26, 200485, Note_off_c, 12, 50, 64
26, 226388, Note_on_c, 12, 62, 85
26, 226455, Note_off_c, 12, 62, 64
26, 226518, Note_on_c, 12, 62, 100
26, 226629, Note_on_c, 12, 64, 64
26, 226657, Note_off_c, 12, 62, 64
26, 226703, Note_off_c, 12, 64, 64
26, 226750, Note_on_c, 12, 60, 74
26, 226797, Note_off_c, 12, 60, 64
26, 226876, Note_on_c, 12, 60, 91
26, 226988, Note_on_c, 12, 62, 66
26, 227006, Note_off_c, 12, 60, 64
26, 227072, Note_off_c, 12, 62, 64
26, 227110, Note_on_c, 12, 59, 62
26, 227159, Note_off_c, 12, 59, 64
26, 227236, Note_on_c, 12, 59, 87
26, 227344, Note_on_c, 12, 61, 58
26, 227376, Note_off_c, 12, 59, 64
26, 227466, Note_on_c, 12, 62, 76
26, 227486, Note_off_c, 12, 61, 64
26, 227528, Note_off_c, 12, 62, 64
26, 227609, Note_on_c, 12, 64, 89
26, 227722, Note_on_c, 12, 66, 61
26, 227747, Note_off_c, 12, 64, 64
26, 227812, Note_off_c, 12, 66, 64
26, 227846, Note_on_c, 12, 62, 72
26, 227904, Note_off_c, 12, 62, 64
26, 227985, Note_on_c, 12, 62, 98
26, 228086, Note_on_c, 12, 64, 64
26, 228114, Note_off_c, 12, 62, 64
26, 228173, Note_off_c, 12, 64, 64
26, 228213, Note_on_c, 12, 61, 64
26, 228275, Note_off_c, 12, 61, 64
26, 228347, Note_on_c, 12, 61, 60
26, 228494, Note_off_c, 12, 61, 64
26, 228575, Note_on_c, 12, 61, 54
26, 228645, Note_off_c, 12, 61, 64
26, 228708, Note_on_c, 12, 61, 59
26, 228874, Note_off_c, 12, 61, 64
26, 228953, Note_on_c, 12, 61, 56
26, 229016, Note_off_c, 12, 61, 64
26, 229074, Note_on_c, 12, 61, 66
26, 229230, Note_off_c, 12, 61, 64
26, 229292, Note_on_c, 12, 61, 68
26, 229369, Note_off_c, 12, 61, 64
26, 229427, Note_on_c, 12, 62, 85
26, 229563, Note_off_c, 12, 62, 64
26, 229643, Note_on_c, 12, 57, 78
26, 229695, Note_off_c, 12, 57, 64
26, 229767, Note_on_c, 12, 57, 100
26, 229873, Note_on_c, 12, 59, 76
26, 229898, Note_off_c, 12, 57, 64
26, 229950, Note_off_c, 12, 59, 64
26, 230000, Note_on_c, 12, 55, 80
26, 230055, Note_off_c, 12, 55, 64
26, 230120, Note_on_c, 12, 55, 95
26, 230228, Note_on_c, 12, 57, 66
26, 230249, Note_off_c, 12, 55, 64
26, 230309, Note_off_c, 12, 57, 64
26, 230361, Note_on_c, 12, 54, 80
26, 230422, Note_off_c, 12, 54, 64
26, 230494, Note_on_c, 12, 54, 85
26, 230589, Note_on_c, 12, 56, 68
26, 230609, Note_off_c, 12, 54, 64
26, 230667, Note_off_c, 12, 56, 64
26, 230708, Note_on_c, 12, 57, 68
26, 230769, Note_off_c, 12, 57, 64
26, 230845, Note_on_c, 12, 59, 95
26, 230962, Note_on_c, 12, 61, 66
26, 230978, Note_off_c, 12, 59, 64
26, 231050, Note_off_c, 12, 61, 64
26, 231083, Note_on_c, 12, 57, 68
26, 231128, Note_off_c, 12, 57, 64
26, 231209, Note_on_c, 12, 57, 100
26, 231317, Note_on_c, 12, 59, 74
26, 231340, Note_off_c, 12, 57, 64
26, 231409, Note_off_c, 12, 59, 64
26, 231434, Note_on_c, 12, 56, 82
26, 231488, Note_off_c, 12, 56, 64
26, 231558, Note_on_c, 12, 56, 89
26, 231693, Note_off_c, 12, 56, 64
26, 231800, Note_on_c, 12, 56, 57
26, 231862, Note_off_c, 12, 56, 64
26, 231918, Note_on_c, 12, 56, 60
26, 232064, Note_off_c, 12, 56, 64
26, 232154, Note_on_c, 12, 56, 52
26, 232211, Note_off_c, 12, 56, 64
26, 232276, Note_on_c, 12, 56, 63
26, 232420, Note_off_c, 12, 56, 64
26, 232495, Note_on_c, 12, 56, 63
26, 232566, Note_off_c, 12, 56, 64
26, 232629, Note_on_c, 12, 57, 87
26, 232764, Note_off_c, 12, 57, 64
26, 232834, Note_on_c, 12, 55, 60
26, 232908, Note_off_c, 12, 55, 64
26, 232955, Note_on_c, 12, 54, 55
26, 233111, Note_off_c, 12, 54, 64
26, 233203, Note_on_c, 12, 54, 58
26, 233270, Note_off_c, 12, 54, 64
26, 233331, Note_on_c, 12, 54, 68
26, 233454, Note_off_c, 12, 54, 64
26, 233543, Note_on_c, 12, 54, 76
26, 233619, Note_off_c, 12, 54, 64
26, 233682, Note_on_c, 12, 55, 91
26, 233806, Note_on_c, 12, 52, 74
26, 233817, Note_off_c, 12, 55, 64
26, 233873, Note_off_c, 12, 52, 64
26, 233919, Note_on_c, 12, 54, 82
26, 233990, Note_off_c, 12, 54, 64
26, 234058, Note_on_c, 12, 55, 100
26, 234161, Note_on_c, 12, 57, 70
26, 234184, Note_off_c, 12, 55, 64
26, 234233, Note_off_c, 12, 57, 64
26, 234288, Note_on_c, 12, 54, 91
26, 234353, Note_off_c, 12, 54, 64
26, 234416, Note_on_c, 12, 54, 93
26, 234517, Note_on_c, 12, 55, 66
26, 234542, Note_off_c, 12, 54, 64
26, 234596, Note_off_c, 12, 55, 64
26, 234645, Note_on_c, 12, 52, 80
26, 234706, Note_off_c, 12, 52, 64
26, 234791, Note_on_c, 12, 52, 89
26, 234958, Note_off_c, 12, 52, 64
26, 235165, Note_on_c, 12, 40, 87
26, 235340, Note_off_c, 12, 40, 64
26, 235527, Note_on_c, 12, 52, 82
26, 235667, Note_off_c, 12, 52, 64
26, 235898, Note_on_c, 12, 57, 87
26, 236024, Note_off_c, 12, 57, 64
26, 236259, Note_on_c, 12, 45, 76
26, 236377, Note_off_c, 12, 45, 64
26, 236618, Note_on_c, 12, 57, 87
26, 236756, Note_off_c, 12, 57, 64
26, 236979, Note_on_c, 12, 62, 91
26, 237120, Note_off_c, 12, 62, 64
26, 237334, Note_on_c, 12, 38, 87
26, 237480, Note_off_c, 12, 38, 64
26, 237674, Note_on_c, 12, 50, 78
26, 237824, Note_off_c, 12, 50, 64
26, 238053, Note_on_c, 12, 55, 85
26, 238211, Note_off_c, 12, 55, 64
26, 238625, Note_on_c, 12, 52, 74
26, 238706, Note_off_c, 12, 52, 64
26, 238740, Note_on_c, 12, 54, 78
26, 238878, Note_off_c, 12, 54, 64
26, 238990, Note_on_c, 12, 55, 76
26, 239070, Note_off_c, 12, 55, 64
26, 239123, Note_on_c, 12, 57, 91
26, 239300, Note_off_c, 12, 57, 64
26, 239726, Note_on_c, 12, 54, 66
26, 239827, Note_off_c, 12, 54, 64
26, 239859, Note_on_c, 12, 55, 87
26, 239994, Note_off_c, 12, 55, 64
26, 240080, Note_on_c, 12, 57, 80
26, 240160, Note_off_c, 12, 57, 64
26, 240207, Note_on_c, 12, 59, 85
26, 240344, Note_off_c, 12, 59, 64
26, 240561, Note_on_c, 12, 55, 87
26, 240702, Note_off_c, 12, 55, 64
26, 240927, Note_on_c, 12, 54, 74
26, 241040, Note_off_c, 12, 54, 64
26, 241291, Note_on_c, 12, 52, 89
26, 241386, Note_on_c, 12, 55, 70
26, 241404, Note_off_c, 12, 52, 64
26, 241499, Note_off_c, 12, 55, 64
26, 241499, Note_on_c, 12, 59, 80
26, 241559, Note_off_c, 12, 59, 64
26, 241645, Note_on_c, 12, 64, 87
26, 241760, Note_on_c, 12, 66, 78
26, 241766, Note_off_c, 12, 64, 64
26, 241836, Note_off_c, 12, 66, 64
26, 241875, Note_on_c, 12, 62, 76
26, 241928, Note_off_c, 12, 62, 64
26, 241992, Note_on_c, 12, 62, 91
26, 242097, Note_on_c, 12, 64, 68
26, 242120, Note_off_c, 12, 62, 64
26, 242172, Note_off_c, 12, 64, 64
26, 242225, Note_on_c, 12, 61, 85
26, 242295, Note_off_c, 12, 61, 64
26, 242367, Note_on_c, 12, 61, 95
26, 242549, Note_off_c, 12, 61, 64
26, 242927, Note_on_c, 12, 57, 76
26, 243005, Note_off_c, 12, 57, 64
26, 243056, Note_on_c, 12, 54, 89
26, 243204, Note_off_c, 12, 54, 64
26, 243312, Note_on_c, 12, 57, 80
26, 243396, Note_off_c, 12, 57, 64
26, 243445, Note_on_c, 12, 50, 82
26, 243578, Note_off_c, 12, 50, 64
26, 243678, Note_on_c, 12, 52, 64
26, 243758, Note_off_c, 12, 52, 64
26, 243801, Note_on_c, 12, 54, 87
26, 243940, Note_off_c, 12, 54, 64
26, 244035, Note_on_c, 12, 55, 76
26, 244129, Note_off_c, 12, 55, 64
26, 244161, Note_on_c, 12, 57, 89
26, 244255, Note_off_c, 12, 57, 64
26, 244397, Note_on_c, 12, 45, 85
26, 244498, Note_off_c, 12, 45, 64
26, 244523, Note_on_c, 12, 50, 76
26, 244741, Note_off_c, 12, 50, 64
26, 245632, Note_on_c, 12, 38, 93
26, 245799, Note_off_c, 12, 38, 64
26, 246710, Note_on_c, 12, 50, 82
26, 246897, Note_off_c, 12, 50, 64
26, 267227, Note_on_c, 12, 45, 91
26, 267380, Note_off_c, 12, 45, 64
26, 267597, Note_on_c, 12, 49, 72
26, 267750, Note_off_c, 12, 49, 64
26, 267950, Note_on_c, 12, 52, 87
26, 268089, Note_off_c, 12, 52, 64
26, 268321, Note_on_c, 12, 57, 98
26, 268454, Note_off_c, 12, 57, 64
26, 268677, Note_on_c, 12, 49, 76
26, 268816, Note_off_c, 12, 49, 64
26, 269025, Note_on_c, 12, 52, 78
26, 269172, Note_off_c, 12, 52, 64
26, 269383, Note_on_c, 12, 45, 80
26, 269581, Note_off_c, 12, 45, 64
26, 270656, Note_on_c, 12, 57, 64
26, 270704, Note_off_c, 12, 57, 64
26, 270796, Note_on_c, 12, 57, 93
26, 270895, Note_on_c, 12, 59, 68
26, 270911, Note_off_c, 12, 57, 64
26, 270972, Note_off_c, 12, 59, 64
26, 271010, Note_on_c, 12, 56, 76
26, 271064, Note_off_c, 12, 56, 64
26, 271133, Note_on_c, 12, 56, 102
26, 271246, Note_on_c, 12, 57, 68
26, 271266, Note_off_c, 12, 56, 64
26, 271323, Note_off_c, 12, 57, 64
26, 271368, Note_on_c, 12, 54, 64
26, 271421, Note_off_c, 12, 54, 64
26, 271507, Note_on_c, 12, 54, 87
26, 271606, Note_on_c, 12, 56, 74
26, 271634, Note_off_c, 12, 54, 64
26, 271683, Note_off_c, 12, 56, 64
26, 271730, Note_on_c, 12, 57, 70
26, 271791, Note_off_c, 12, 57, 64
26, 271883, Note_on_c, 12, 59, 100
26, 271997, Note_on_c, 12, 61, 66
26, 272006, Note_off_c, 12, 59, 64
26, 272088, Note_off_c, 12, 61, 64
26, 272109, Note_on_c, 12, 57, 68
26, 272160, Note_off_c, 12, 57, 64
26, 272243, Note_on_c, 12, 57, 100
26, 272339, Note_on_c, 12, 59, 64
26, 272358, Note_off_c, 12, 57, 64
26, 272427, Note_off_c, 12, 59, 64
26, 272472, Note_on_c, 12, 56, 72
26, 272537, Note_off_c, 12, 56, 64
26, 272625, Note_on_c, 12, 56, 82
26, 272749, Note_off_c, 12, 56, 64
26, 272848, Note_on_c, 12, 56, 55
26, 272911, Note_off_c, 12, 56, 64
26, 272979, Note_on_c, 12, 56, 57
26, 273102, Note_off_c, 12, 56, 64
26, 273219, Note_on_c, 12, 56, 57
26, 273280, Note_off_c, 12, 56, 64
26, 273347, Note_on_c, 12, 56, 80
26, 273462, Note_off_c, 12, 56, 64
26, 273566, Note_on_c, 12, 56, 61
26, 273653, Note_off_c, 12, 56, 64
26, 273699, Note_on_c, 12, 57, 76
26, 273802, Note_off_c, 12, 57, 64
26, 273930, Note_on_c, 12, 52, 80
26, 273993, Note_off_c, 12, 52, 64
26, 274067, Note_on_c, 12, 52, 100
26, 274160, Note_on_c, 12, 54, 64
26, 274173, Note_off_c, 12, 52, 64
26, 274229, Note_off_c, 12, 54, 64
26, 274286, Note_on_c, 12, 50, 74
26, 274335, Note_off_c, 12, 50, 64
26, 274414, Note_on_c, 12, 50, 85
26, 274525, Note_on_c, 12, 52, 66
26, 274539, Note_off_c, 12, 50, 64
26, 274603, Note_off_c, 12, 52, 64
26, 274649, Note_on_c, 12, 49, 82
26, 274707, Note_off_c, 12, 49, 64
26, 274785, Note_on_c, 12, 49, 91
26, 274889, Note_on_c, 12, 50, 72
26, 274904, Note_off_c, 12, 49, 64
26, 275003, Note_on_c, 12, 52, 80
26, 275019, Note_off_c, 12, 50, 64
26, 275084, Note_off_c, 12, 52, 64
26, 275138, Note_on_c, 12, 54, 105
26, 275246, Note_on_c, 12, 55, 70
26, 275267, Note_off_c, 12, 54, 64
26, 275321, Note_off_c, 12, 55, 64
26, 275363, Note_on_c, 12, 52, 72
26, 275417, Note_off_c, 12, 52, 64
26, 275492, Note_on_c, 12, 52, 89
26, 275598, Note_on_c, 12, 54, 57
26, 275609, Note_off_c, 12, 52, 64
26, 275669, Note_off_c, 12, 54, 64
26, 275728, Note_on_c, 12, 51, 76
26, 275793, Note_off_c, 12, 51, 64
26, 275870, Note_on_c, 12, 51, 66
26, 275998, Note_off_c, 12, 51, 64
26, 276104, Note_on_c, 12, 51, 59
26, 276172, Note_off_c, 12, 51, 64
26, 276230, Note_on_c, 12, 51, 64
26, 276372, Note_off_c, 12, 51, 64
26, 276459, Note_on_c, 12, 51, 64
26, 276525, Note_off_c, 12, 51, 64
26, 276583, Note_on_c, 12, 51, 76
26, 276709, Note_off_c, 12, 51, 64
26, 276800, Note_on_c, 12, 51, 59
26, 276878, Note_off_c, 12, 51, 64
26, 276929, Note_on_c, 12, 52, 82
26, 277060, Note_off_c, 12, 52, 64
26, 277157, Note_on_c, 12, 50, 72
26, 277211, Note_off_c, 12, 50, 64
26, 277276, Note_on_c, 12, 49, 85
26, 277415, Note_off_c, 12, 49, 64
26, 277526, Note_on_c, 12, 49, 57
26, 277580, Note_off_c, 12, 49, 64
26, 277641, Note_on_c, 12, 49, 62
26, 277791, Note_off_c, 12, 49, 64
26, 277880, Note_on_c, 12, 49, 70
26, 277944, Note_off_c, 12, 49, 64
26, 278014, Note_on_c, 12, 50, 87
26, 278120, Note_on_c, 12, 47, 63
26, 278132, Note_off_c, 12, 50, 64
26, 278196, Note_off_c, 12, 47, 64
26, 278234, Note_on_c, 12, 49, 80
26, 278300, Note_off_c, 12, 49, 64
26, 278370, Note_on_c, 12, 50, 100
26, 278471, Note_on_c, 12, 52, 62
26, 278478, Note_off_c, 12, 50, 64
26, 278529, Note_off_c, 12, 52, 64
26, 278586, Note_on_c, 12, 49, 91
26, 278644, Note_off_c, 12, 49, 64
26, 278720, Note_on_c, 12, 49, 93
26, 278820, Note_on_c, 12, 50, 66
26, 278831, Note_off_c, 12, 49, 64
26, 278912, Note_off_c, 12, 50, 64
26, 278914, Note_on_c, 12, 47, 68
26, 278986, Note_off_c, 12, 47, 64
26, 279074, Note_on_c, 12, 47, 91
26, 279245, Note_off_c, 12, 47, 64
26, 279454, Note_on_c, 12, 59, 87
26, 279578, Note_off_c, 12, 59, 64
26, 279807, Note_on_c, 12, 47, 72
26, 279967, Note_off_c, 12, 47, 64
26, 280167, Note_on_c, 12, 52, 85
26, 280302, Note_off_c, 12, 52, 64
26, 280534, Note_on_c, 12, 40, 93
26, 280687, Note_off_c, 12, 40, 64
26, 280883, Note_on_c, 12, 52, 78
26, 281025, Note_off_c, 12, 52, 64
26, 281240, Note_on_c, 12, 57, 78
26, 281358, Note_off_c, 12, 57, 64
26, 281603, Note_on_c, 12, 45, 87
26, 281740, Note_off_c, 12, 45, 64
26, 281967, Note_on_c, 12, 57, 87
26, 282105, Note_off_c, 12, 57, 64
26, 282327, Note_on_c, 12, 50, 87
26, 282469, Note_off_c, 12, 50, 64
26, 282885, Note_on_c, 12, 47, 87
26, 282973, Note_off_c, 12, 47, 64
26, 283000, Note_on_c, 12, 49, 80
26, 283133, Note_off_c, 12, 49, 64
26, 283256, Note_on_c, 12, 50, 78
26, 283329, Note_off_c, 12, 50, 64
26, 283387, Note_on_c, 12, 52, 89
26, 283538, Note_off_c, 12, 52, 64
26, 283956, Note_on_c, 12, 49, 62
26, 284053, Note_off_c, 12, 49, 64
26, 284087, Note_on_c, 12, 50, 80
26, 284222, Note_off_c, 12, 50, 64
26, 284343, Note_on_c, 12, 52, 66
26, 284429, Note_off_c, 12, 52, 64
26, 284489, Note_on_c, 12, 54, 89
26, 284625, Note_off_c, 12, 54, 64
26, 284856, Note_on_c, 12, 50, 89
26, 284982, Note_off_c, 12, 50, 64
26, 285221, Note_on_c, 12, 49, 78
26, 285318, Note_off_c, 12, 49, 64
26, 285588, Note_on_c, 12, 47, 89
26, 285680, Note_on_c, 12, 50, 76
26, 285696, Note_off_c, 12, 47, 64
26, 285794, Note_on_c, 12, 54, 66
26, 285813, Note_off_c, 12, 50, 64
26, 285861, Note_off_c, 12, 54, 64
26, 285941, Note_on_c, 12, 59, 82
26, 286062, Note_on_c, 12, 61, 62
26, 286080, Note_off_c, 12, 59, 64
26, 286149, Note_off_c, 12, 61, 64
26, 286164, Note_on_c, 12, 57, 66
26, 286215, Note_off_c, 12, 57, 64
26, 286296, Note_on_c, 12, 57, 100
26, 286390, Note_on_c, 12, 59, 66
26, 286407, Note_off_c, 12, 57, 64
26, 286467, Note_off_c, 12, 59, 64
26, 286506, Note_on_c, 12, 56, 95
26, 286573, Note_off_c, 12, 56, 64
26, 286647, Note_on_c, 12, 56, 93
26, 286816, Note_off_c, 12, 56, 64
26, 287235, Note_on_c, 12, 52, 76
26, 287313, Note_off_c, 12, 52, 64
26, 287361, Note_on_c, 12, 49, 82
26, 287478, Note_off_c, 12, 49, 64
26, 287583, Note_on_c, 12, 52, 78
26, 287660, Note_off_c, 12, 52, 64
26, 287716, Note_on_c, 12, 45, 80
26, 287844, Note_off_c, 12, 45, 64
26, 287928, Note_on_c, 12, 47, 72
26, 288004, Note_off_c, 12, 47, 64
26, 288054, Note_on_c, 12, 49, 82
26, 288182, Note_off_c, 12, 49, 64
26, 288297, Note_on_c, 12, 50, 78
26, 288393, Note_off_c, 12, 50, 64
26, 288438, Note_on_c, 12, 52, 89
26, 288553, Note_off_c, 12, 52, 64
26, 288678, Note_on_c, 12, 40, 87
26, 288762, Note_off_c, 12, 40, 64
26, 288801, Note_on_c, 12, 45, 80
26, 289210, Note_off_c, 12, 45, 64
26, 302862, Note_on_c, 12, 59, 85
26, 303044, Note_off_c, 12, 59, 64
26, 303928, Note_on_c, 12, 54, 78
26, 304050, Note_off_c, 12, 54, 64
26, 304171, Note_on_c, 12, 42, 80
26, 304247, Note_off_c, 12, 42, 64
26, 304295, Note_on_c, 12, 42, 100
26, 304445, Note_off_c, 12, 42, 64
26, 304511, Note_on_c, 12, 42, 78
26, 304585, Note_off_c, 12, 42, 64
26, 304635, Note_on_c, 12, 42, 82
26, 304767, Note_off_c, 12, 42, 64
26, 304863, Note_on_c, 12, 42, 91
26, 304932, Note_off_c, 12, 42, 64
26, 305004, Note_on_c, 12, 42, 98
26, 305123, Note_off_c, 12, 42, 64
26, 305219, Note_on_c, 12, 52, 70
26, 305296, Note_off_c, 12, 52, 64
26, 305341, Note_on_c, 12, 50, 87
26, 305472, Note_off_c, 12, 50, 64
26, 305584, Note_on_c, 12, 55, 78
26, 305660, Note_off_c, 12, 55, 64
26, 305719, Note_on_c, 12, 49, 89
26, 305850, Note_off_c, 12, 49, 64
26, 305933, Note_on_c, 12, 54, 70
26, 305969, Note_off_c, 12, 54, 64
26, 306072, Note_on_c, 12, 47, 91
26, 306169, Note_on_c, 12, 50, 70
26, 306200, Note_off_c, 12, 47, 64
26, 306279, Note_on_c, 12, 54, 70
26, 306306, Note_off_c, 12, 50, 64
26, 306360, Note_off_c, 12, 54, 64
26, 306432, Note_on_c, 12, 59, 87
26, 306551, Note_on_c, 12, 61, 64
26, 306561, Note_off_c, 12, 59, 64
26, 306635, Note_off_c, 12, 61, 64
26, 306650, Note_on_c, 12, 57, 64
26, 306698, Note_off_c, 12, 57, 64
26, 306786, Note_on_c, 12, 57, 95
26, 306885, Note_on_c, 12, 59, 66
26, 306912, Note_off_c, 12, 57, 64
26, 306965, Note_off_c, 12, 59, 64
26, 306999, Note_on_c, 12, 55, 59
26, 307053, Note_off_c, 12, 55, 64
26, 307148, Note_on_c, 12, 55, 87
26, 307262, Note_on_c, 12, 52, 82
26, 307269, Note_off_c, 12, 55, 64
26, 307370, Note_on_c, 12, 54, 82
26, 307392, Note_off_c, 12, 52, 64
26, 307479, Note_off_c, 12, 54, 64
26, 307499, Note_on_c, 12, 55, 87
26, 307616, Note_on_c, 12, 57, 68
26, 307622, Note_off_c, 12, 55, 64
26, 307681, Note_off_c, 12, 57, 64
26, 307744, Note_on_c, 12, 54, 89
26, 307798, Note_off_c, 12, 54, 64
26, 307874, Note_on_c, 12, 54, 102
26, 307982, Note_on_c, 12, 55, 68
26, 308010, Note_off_c, 12, 54, 64
26, 308051, Note_off_c, 12, 55, 64
26, 308091, Note_on_c, 12, 52, 74
26, 308138, Note_off_c, 12, 52, 64
26, 308228, Note_on_c, 12, 52, 91
26, 308388, Note_off_c, 12, 52, 64
26, 308442, Note_on_c, 12, 50, 76
26, 308536, Note_off_c, 12, 50, 64
26, 308578, Note_on_c, 12, 49, 76
26, 308732, Note_off_c, 12, 49, 64
26, 308806, Note_on_c, 12, 52, 78
26, 308887, Note_off_c, 12, 52, 64
26, 308948, Note_on_c, 12, 46, 85
26, 309069, Note_off_c, 12, 46, 64
26, 309177, Note_on_c, 12, 49, 85
26, 309254, Note_off_c, 12, 49, 64
26, 309328, Note_on_c, 12, 42, 76
26, 309699, Note_off_c, 12, 42, 64
26, 309918, Note_on_c, 12, 55, 78
26, 309992, Note_off_c, 12, 55, 64
26, 310046, Note_on_c, 12, 54, 91
26, 310170, Note_off_c, 12, 54, 64
26, 310280, Note_on_c, 12, 52, 82
26, 310341, Note_off_c, 12, 52, 64
26, 310403, Note_on_c, 12, 50, 87
26, 310554, Note_off_c, 12, 50, 64
26, 310626, Note_on_c, 12, 47, 68
26, 310700, Note_off_c, 12, 47, 64
26, 310766, Note_on_c, 12, 52, 82
26, 310880, Note_on_c, 12, 54, 76
26, 310882, Note_off_c, 12, 52, 64
26, 310971, Note_off_c, 12, 54, 64
26, 310988, Note_on_c, 12, 55, 87
26, 311058, Note_off_c, 12, 55, 64
26, 311135, Note_on_c, 12, 54, 107
26, 311243, Note_off_c, 12, 54, 64
26, 311369, Note_on_c, 12, 42, 80
26, 311442, Note_off_c, 12, 42, 64
26, 311506, Note_on_c, 12, 47, 93
26, 311810, Note_off_c, 12, 47, 64
26, 333688, Note_on_c, 12, 43, 66
26, 333764, Note_off_c, 12, 43, 64
26, 333830, Note_on_c, 12, 43, 87
26, 333963, Note_off_c, 12, 43, 64
26, 334048, Note_on_c, 12, 43, 64
26, 334118, Note_off_c, 12, 43, 64
26, 334181, Note_on_c, 12, 48, 95
26, 334322, Note_off_c, 12, 48, 64
26, 334755, Note_on_c, 12, 45, 61
26, 334831, Note_off_c, 12, 45, 64
26, 334892, Note_on_c, 12, 45, 76
26, 335029, Note_off_c, 12, 45, 64
26, 335109, Note_on_c, 12, 45, 68
26, 335189, Note_off_c, 12, 45, 64
26, 335254, Note_on_c, 12, 50, 95
26, 335422, Note_off_c, 12, 50, 64
26, 335837, Note_on_c, 12, 47, 68
26, 335911, Note_off_c, 12, 47, 64
26, 335976, Note_on_c, 12, 47, 80
26, 336110, Note_off_c, 12, 47, 64
26, 336213, Note_on_c, 12, 47, 64
26, 336298, Note_off_c, 12, 47, 64
26, 336347, Note_on_c, 12, 52, 85
26, 336500, Note_off_c, 12, 52, 64
26, 338870, Note_on_c, 12, 59, 87
26, 338994, Note_off_c, 12, 59, 64
26, 339209, Note_on_c, 12, 47, 76
26, 339369, Note_off_c, 12, 47, 64
26, 339941, Note_on_c, 12, 52, 89
26, 340067, Note_off_c, 12, 52, 64
26, 340296, Note_on_c, 12, 40, 87
26, 340440, Note_off_c, 12, 40, 64
26, 341016, Note_on_c, 12, 57, 89
26, 341147, Note_off_c, 12, 57, 64
26, 341388, Note_on_c, 12, 45, 82
26, 341532, Note_off_c, 12, 45, 64
26, 342117, Note_on_c, 12, 50, 89
26, 342249, Note_off_c, 12, 50, 64
26, 342472, Note_on_c, 12, 38, 98
26, 342605, Note_off_c, 12, 38, 64
26, 343194, Note_on_c, 12, 55, 87
26, 343318, Note_off_c, 12, 55, 64
26, 343532, Note_on_c, 12, 43, 89
26, 343673, Note_off_c, 12, 43, 64
26, 344263, Note_on_c, 12, 55, 85
26, 344391, Note_off_c, 12, 55, 64
26, 344636, Note_on_c, 12, 43, 95
26, 344753, Note_off_c, 12, 43, 64
26, 345001, Note_on_c, 12, 45, 64
26, 348180, Note_off_c, 12, 45, 64
26, 348219, Note_on_c, 12, 46, 74
26, 348417, Note_off_c, 12, 46, 64
26, 349319, Note_on_c, 12, 45, 72
26, 349488, Note_off_c, 12, 45, 64
26, 350606, Note_on_c, 12, 44, 57
26, 350673, Note_off_c, 12, 44, 64
26, 350734, Note_on_c, 12, 44, 68
26, 350862, Note_off_c, 12, 44, 64
26, 350961, Note_on_c, 12, 44, 64
26, 351029, Note_off_c, 12, 44, 64
26, 351090, Note_on_c, 12, 44, 85
26, 351204, Note_off_c, 12, 44, 64
26, 351317, Note_on_c, 12, 44, 64
26, 351386, Note_off_c, 12, 44, 64
26, 351443, Note_on_c, 12, 45, 78
26, 351562, Note_off_c, 12, 45, 64
26, 351675, Note_on_c, 12, 45, 78
26, 351744, Note_off_c, 12, 45, 64
26, 351800, Note_on_c, 12, 45, 91
26, 351913, Note_off_c, 12, 45, 64
26, 352034, Note_on_c, 12, 45, 80
26, 352100, Note_off_c, 12, 45, 64
26, 352163, Note_on_c, 12, 45, 80
26, 352260, Note_off_c, 12, 45, 64
26, 352374, Note_on_c, 12, 45, 64
26, 352455, Note_off_c, 12, 45, 64
26, 352514, Note_on_c, 12, 47, 95
26, 352611, Note_off_c, 12, 47, 64
26, 352737, Note_on_c, 12, 40, 98
26, 352827, Note_off_c, 12, 40, 64
26, 352853, Note_on_c, 12, 42, 89
26, 352968, Note_off_c, 12, 42, 64
26, 353096, Note_on_c, 12, 43, 76
26, 353171, Note_off_c, 12, 43, 64
26, 353218, Note_on_c, 12, 45, 100
26, 353333, Note_off_c, 12, 45, 64
26, 353441, Note_on_c, 12, 45, 85
26, 353504, Note_off_c, 12, 45, 64
26, 353592, Note_on_c, 12, 38, 91
26, 353774, Note_off_c, 12, 38, 64
26, 375248, Note_on_c, 12, 50, 110
26, 376005, Note_off_c, 12, 50, 64
26, 376030, Note_on_c, 12, 52, 91
26, 376064, Note_off_c, 12, 52, 64
26, 376087, Note_on_c, 12, 54, 102
26, 376118, Note_off_c, 12, 54, 64
26, 376143, Note_on_c, 12, 50, 98
26, 376194, Note_off_c, 12, 50, 64
26, 376212, Note_on_c, 12, 60, 100
26, 376946, Note_off_c, 12, 60, 64
26, 376981, Note_on_c, 12, 59, 95
26, 377015, Note_off_c, 12, 59, 64
26, 377035, Note_on_c, 12, 60, 85
26, 377065, Note_off_c, 12, 60, 64
26, 377085, Note_on_c, 12, 57, 93
26, 377129, Note_off_c, 12, 57, 64
26, 377151, Note_on_c, 12, 63, 102
26, 377672, Note_off_c, 12, 63, 64
26, 377701, Note_on_c, 12, 61, 80
26, 377741, Note_off_c, 12, 61, 64
26, 377752, Note_on_c, 12, 59, 82
26, 377792, Note_off_c, 12, 59, 64
26, 377813, Note_on_c, 12, 61, 82
26, 377846, Note_off_c, 12, 61, 64
26, 377875, Note_on_c, 12, 63, 100
26, 377921, Note_off_c, 12, 63, 64
26, 377930, Note_on_c, 12, 61, 98
26, 377972, Note_off_c, 12, 61, 64
26, 377988, Note_on_c, 12, 63, 98
26, 378026, Note_off_c, 12, 63, 64
26, 378035, Note_on_c, 12, 59, 80
26, 378089, Note_off_c, 12, 59, 64
26, 378106, Note_on_c, 12, 64, 100
26, 378217, Note_off_c, 12, 64, 64
26, 378298, Note_on_c, 12, 59, 85
26, 378333, Note_off_c, 12, 59, 64
26, 378360, Note_on_c, 12, 59, 102
26, 378433, Note_off_c, 12, 59, 64
26, 378540, Note_on_c, 12, 55, 85
26, 378578, Note_off_c, 12, 55, 64
26, 378603, Note_on_c, 12, 55, 100
26, 378674, Note_off_c, 12, 55, 64
26, 378779, Note_on_c, 12, 52, 82
26, 378819, Note_off_c, 12, 52, 64
26, 378847, Note_on_c, 12, 52, 95
26, 378920, Note_off_c, 12, 52, 64
26, 379000, Note_on_c, 12, 45, 66
26, 379035, Note_off_c, 12, 45, 64
26, 379061, Note_on_c, 12, 45, 102
26, 379168, Note_off_c, 12, 45, 64
26, 379246, Note_on_c, 12, 57, 87
26, 379284, Note_off_c, 12, 57, 64
26, 379306, Note_on_c, 12, 57, 102
26, 379392, Note_off_c, 12, 57, 64
26, 379492, Note_on_c, 12, 52, 80
26, 379529, Note_off_c, 12, 52, 64
26, 379549, Note_on_c, 12, 52, 95
26, 379632, Note_off_c, 12, 52, 64
26, 379718, Note_on_c, 12, 49, 82
26, 379749, Note_off_c, 12, 49, 64
26, 379774, Note_on_c, 12, 49, 98
26, 379854, Note_off_c, 12, 49, 64
26, 379956, Note_on_c, 12, 45, 95
26, 380003, Note_off_c, 12, 45, 64
26, 380021, Note_on_c, 12, 50, 102
26, 380121, Note_off_c, 12, 50, 64
26, 380202, Note_on_c, 12, 45, 85
26, 380241, Note_off_c, 12, 45, 64
26, 380262, Note_on_c, 12, 45, 100
26, 380345, Note_off_c, 12, 45, 64
26, 380443, Note_on_c, 12, 42, 105
26, 380477, Note_off_c, 12, 42, 64
26, 380501, Note_on_c, 12, 42, 105
26, 380570, Note_off_c, 12, 42, 64
26, 380672, Note_on_c, 12, 38, 89
26, 380712, Note_off_c, 12, 38, 64
26, 380737, Note_on_c, 12, 38, 100
26, 380822, Note_off_c, 12, 38, 64
26, 380905, Note_on_c, 12, 42, 93
26, 380943, Note_off_c, 12, 42, 64
26, 380967, Note_on_c, 12, 43, 105
26, 381063, Note_off_c, 12, 43, 64
26, 381145, Note_on_c, 12, 47, 76
26, 381187, Note_off_c, 12, 47, 64
26, 381217, Note_on_c, 12, 47, 91
26, 381306, Note_off_c, 12, 47, 64
26, 381402, Note_on_c, 12, 52, 80
26, 381439, Note_off_c, 12, 52, 64
26, 381462, Note_on_c, 12, 52, 98
26, 381571, Note_off_c, 12, 52, 64
26, 381642, Note_on_c, 12, 55, 89
26, 381677, Note_off_c, 12, 55, 64
26, 381704, Note_on_c, 12, 55, 85
26, 381786, Note_off_c, 12, 55, 64
26, 381881, Note_on_c, 12, 52, 78
26, 381928, Note_off_c, 12, 52, 64
26, 381948, Note_on_c, 12, 49, 93
26, 382033, Note_off_c, 12, 49, 64
26, 382136, Note_on_c, 12, 45, 89
26, 382169, Note_off_c, 12, 45, 64
26, 382197, Note_on_c, 12, 45, 102
26, 382278, Note_off_c, 12, 45, 64
26, 382366, Note_on_c, 12, 49, 85
26, 382405, Note_off_c, 12, 49, 64
26, 382428, Note_on_c, 12, 50, 95
26, 383199, Note_off_c, 12, 50, 64
26, 383232, Note_on_c, 12, 49, 89
26, 383270, Note_off_c, 12, 49, 64
26, 383286, Note_on_c, 12, 50, 87
26, 383320, Note_off_c, 12, 50, 64
26, 383337, Note_on_c, 12, 47, 91
26, 383374, Note_off_c, 12, 47, 64
26, 383399, Note_on_c, 12, 49, 98
26, 383491, Note_off_c, 12, 49, 64
26, 383637, Note_on_c, 12, 45, 98
26, 383736, Note_off_c, 12, 45, 64
26, 383869, Note_on_c, 12, 50, 100
26, 384387, Note_off_c, 12, 50, 64
26, 384435, Note_on_c, 12, 50, 82
26, 384485, Note_off_c, 12, 50, 64
26, 384490, Note_on_c, 12, 52, 87
26, 384527, Note_off_c, 12, 52, 64
26, 384546, Note_on_c, 12, 54, 91
26, 384581, Note_off_c, 12, 54, 64
26, 384608, Note_on_c, 12, 55, 89
26, 384642, Note_off_c, 12, 55, 64
26, 384666, Note_on_c, 12, 54, 89
26, 384699, Note_off_c, 12, 54, 64
26, 384720, Note_on_c, 12, 55, 85
26, 384754, Note_off_c, 12, 55, 64
26, 384782, Note_on_c, 12, 52, 93
26, 384814, Note_off_c, 12, 52, 64
26, 384844, Note_on_c, 12, 50, 107
26, 384966, Note_on_c, 12, 49, 87
26, 384968, Note_off_c, 12, 50, 64
26, 385195, Note_off_c, 12, 49, 64
26, 385255, Note_on_c, 12, 47, 85
26, 385300, Note_off_c, 12, 47, 64
26, 385316, Note_on_c, 12, 46, 91
26, 385414, Note_off_c, 12, 46, 64
26, 385557, Note_on_c, 12, 42, 95
26, 385649, Note_off_c, 12, 42, 64
26, 385794, Note_on_c, 12, 47, 100
26, 386298, Note_off_c, 12, 47, 64
26, 386335, Note_on_c, 12, 45, 87
26, 386391, Note_off_c, 12, 45, 64
26, 386397, Note_on_c, 12, 47, 82
26, 386437, Note_off_c, 12, 47, 64
26, 386456, Note_on_c, 12, 49, 89
26, 386489, Note_off_c, 12, 49, 64
26, 386515, Note_on_c, 12, 50, 80
26, 386553, Note_off_c, 12, 50, 64
26, 386576, Note_on_c, 12, 49, 102
26, 386609, Note_off_c, 12, 49, 64
26, 386631, Note_on_c, 12, 50, 87
26, 386676, Note_off_c, 12, 50, 64
26, 386689, Note_on_c, 12, 47, 85
26, 386725, Note_off_c, 12, 47, 64
26, 386755, Note_on_c, 12, 49, 100
26, 386859, Note_off_c, 12, 49, 64
26, 386935, Note_on_c, 12, 45, 85
26, 386978, Note_off_c, 12, 45, 64
26, 386999, Note_on_c, 12, 50, 93
26, 387094, Note_off_c, 12, 50, 64
26, 387175, Note_on_c, 12, 52, 82
26, 387215, Note_off_c, 12, 52, 64
26, 387239, Note_on_c, 12, 54, 93
26, 387319, Note_off_c, 12, 54, 64
26, 387414, Note_on_c, 12, 55, 80
26, 387455, Note_off_c, 12, 55, 64
26, 387479, Note_on_c, 12, 52, 91
26, 387562, Note_off_c, 12, 52, 64
26, 387661, Note_on_c, 12, 50, 82
26, 387699, Note_off_c, 12, 50, 64
26, 387718, Note_on_c, 12, 45, 89
26, 388570, Note_off_c, 12, 45, 64
26, 388611, Note_on_c, 12, 45, 98
26, 388643, Note_off_c, 12, 45, 64
26, 388676, Note_on_c, 12, 45, 102
26, 389553, Note_off_c, 12, 45, 64
26, 389581, Note_on_c, 12, 45, 95
26, 389611, Note_off_c, 12, 45, 64
26, 389636, Note_on_c, 12, 45, 91
26, 390480, Note_off_c, 12, 45, 64
26, 390520, Note_on_c, 12, 45, 93
26, 390550, Note_off_c, 12, 45, 64
26, 390578, Note_on_c, 12, 45, 91
26, 391445, Note_off_c, 12, 45, 64
26, 391492, Note_on_c, 12, 45, 91
26, 391523, Note_off_c, 12, 45, 64
26, 391557, Note_on_c, 12, 45, 98
26, 392077, Note_off_c, 12, 45, 64
26, 392104, Note_on_c, 12, 47, 89
26, 392148, Note_off_c, 12, 47, 64
26, 392162, Note_on_c, 12, 45, 91
26, 392204, Note_off_c, 12, 45, 64
26, 392221, Note_on_c, 12, 43, 89
26, 392252, Note_off_c, 12, 43, 64
26, 392276, Note_on_c, 12, 42, 102
26, 392314, Note_off_c, 12, 42, 64
26, 392330, Note_on_c, 12, 40, 89
26, 392365, Note_off_c, 12, 40, 64
26, 392385, Note_on_c, 12, 42, 100
26, 392421, Note_off_c, 12, 42, 64
26, 392438, Note_on_c, 12, 38, 87
26, 392493, Note_off_c, 12, 38, 64
26, 392508, Note_on_c, 12, 47, 98
26, 393005, Note_off_c, 12, 47, 64
26, 393035, Note_on_c, 12, 48, 91
26, 393078, Note_off_c, 12, 48, 64
26, 393098, Note_on_c, 12, 47, 87
26, 393136, Note_off_c, 12, 47, 64
26, 393156, Note_on_c, 12, 45, 87
26, 393207, Note_off_c, 12, 45, 64
26, 393212, Note_on_c, 12, 43, 87
26, 393249, Note_off_c, 12, 43, 64
26, 393263, Note_on_c, 12, 42, 95
26, 393307, Note_off_c, 12, 42, 64
26, 393323, Note_on_c, 12, 43, 85
26, 393363, Note_off_c, 12, 43, 64
26, 393381, Note_on_c, 12, 40, 85
26, 393428, Note_off_c, 12, 40, 64
26, 393458, Note_on_c, 12, 49, 102
26, 393537, Note_off_c, 12, 49, 64
26, 393636, Note_on_c, 12, 45, 76
26, 393689, Note_off_c, 12, 45, 64
26, 393698, Note_on_c, 12, 50, 100
26, 393779, Note_off_c, 12, 50, 64
26, 393879, Note_on_c, 12, 43, 80
26, 393917, Note_off_c, 12, 43, 64
26, 393945, Note_on_c, 12, 45, 91
26, 394117, Note_off_c, 12, 45, 64
26, 394197, Note_on_c, 12, 45, 102
26, 394325, Note_off_c, 12, 45, 64
26, 394437, Note_on_c, 12, 38, 93
26, 395437, Note_off_c, 12, 38, 64
26, 395437, End_track
27, 0, Start_track
27, 0, Title_t, "Cello"
27, 0, Program_c, 13, 42
27, 0, Control_c, 13, 7, 100
27, 156219, Note_on_c, 13, 43, 76
27, 156353, Note_off_c, 13, 43, 64
27, 156448, Note_on_c, 13, 59, 68
27, 156498, Note_off_c, 13, 59, 64
27, 156578, Note_on_c, 13, 59, 95
27, 156682, Note_on_c, 13, 60, 66
27, 156695, Note_off_c, 13, 59, 64
27, 156752, Note_off_c, 13, 60, 64
27, 156788, Note_on_c, 13, 57, 66
27, 156834, Note_off_c, 13, 57, 64
27, 156927, Note_on_c, 13, 57, 95
27, 157037, Note_on_c, 13, 59, 66
27, 157047, Note_off_c, 13, 57, 64
27, 157114, Note_on_c, 13, 55, 78
27, 157118, Note_off_c, 13, 59, 64
27, 157170, Note_off_c, 13, 55, 64
27, 157277, Note_on_c, 13, 55, 89
27, 157398, Note_on_c, 13, 57, 80
27, 157407, Note_off_c, 13, 55, 64
27, 157483, Note_off_c, 13, 57, 64
27, 157517, Note_on_c, 13, 59, 82
27, 157571, Note_off_c, 13, 59, 64
27, 157650, Note_on_c, 13, 59, 102
27, 157757, Note_on_c, 13, 60, 70
27, 157769, Note_off_c, 13, 59, 64
27, 157826, Note_off_c, 13, 60, 64
27, 157883, Note_on_c, 13, 57, 80
27, 157929, Note_off_c, 13, 57, 64
27, 158025, Note_on_c, 13, 57, 95
27, 158131, Note_on_c, 13, 59, 78
27, 158140, Note_off_c, 13, 57, 64
27, 158192, Note_off_c, 13, 59, 64
27, 158255, Note_on_c, 13, 55, 76
27, 158302, Note_off_c, 13, 55, 64
27, 158398, Note_on_c, 13, 55, 89
27, 158592, Note_off_c, 13, 55, 64
27, 267455, Note_on_c, 13, 61, 72
27, 267516, Note_off_c, 13, 61, 64
27, 267589, Note_on_c, 13, 61, 91
27, 267689, Note_on_c, 13, 62, 78
27, 267718, Note_off_c, 13, 61, 64
27, 267759, Note_off_c, 13, 62, 64
27, 267812, Note_on_c, 13, 59, 85
27, 267860, Note_off_c, 13, 59, 64
27, 267956, Note_on_c, 13, 59, 95
27, 268064, Note_on_c, 13, 61, 63
27, 268076, Note_off_c, 13, 59, 64
27, 268125, Note_off_c, 13, 61, 64
27, 268163, Note_on_c, 13, 57, 66
27, 268218, Note_off_c, 13, 57, 64
27, 268307, Note_on_c, 13, 57, 89
27, 268415, Note_on_c, 13, 59, 82
27, 268442, Note_off_c, 13, 57, 64
27, 268487, Note_off_c, 13, 59, 64
27, 268537, Note_on_c, 13, 61, 80
27, 268595, Note_off_c, 13, 61, 64
27, 268672, Note_on_c, 13, 61, 102
27, 268775, Note_on_c, 13, 62, 80
27, 268800, Note_off_c, 13, 61, 64
27, 268843, Note_off_c, 13, 62, 64
27, 268899, Note_on_c, 13, 59, 78
27, 268947, Note_off_c, 13, 59, 64
27, 269030, Note_on_c, 13, 59, 95
27, 269142, Note_on_c, 13, 61, 66
27, 269145, Note_off_c, 13, 59, 64
27, 269208, Note_off_c, 13, 61, 64
27, 269256, Note_on_c, 13, 57, 82
27, 269309, Note_off_c, 13, 57, 64
27, 269396, Note_on_c, 13, 57, 91
27, 269612, Note_off_c, 13, 57, 64
27, 269612, End_track
0, 0, End_of_file
