0, 0, Header, 1, 12, 240
1, 0, Start_track
1, 0, Title_t, "Main MIDI Ctrl"
1, 0, Key_signature, 0, "major"
1, 0, MIDI_port, 0
1, 0, Time_signature, 4, 2, 24, 8
1, 0, Tempo, 545454
1, 0, End_track
2, 0, Start_track
2, 0, Title_t, "Main Strings\000\000"
2, 0, Instrument_name_t, "Tremolo Strings - Left"
2, 0, MIDI_port, 0
2, 0, Text_t, "Left Strings1\000"
2, 0, Program_c, 0, 44
2, 0, Control_c, 0, 7, 126
2, 0, Note_on_c, 0, 69, 89
2, 0, Note_on_c, 0, 81, 89
2, 24, Control_c, 0, 10, 9
2, 30, Note_on_c, 0, 69, 0
2, 30, Note_on_c, 0, 81, 0
2, 45, Note_on_c, 0, 67, 89
2, 45, Note_on_c, 0, 79, 89
2, 75, Note_on_c, 0, 67, 0
2, 85, Note_on_c, 0, 79, 0
2, 90, Note_on_c, 0, 69, 89
2, 90, Note_on_c, 0, 81, 89
2, 945, Note_on_c, 0, 69, 0
2, 945, Note_on_c, 0, 81, 0
2, 960, Note_on_c, 0, 67, 89
2, 960, Note_on_c, 0, 79, 89
2, 990, Note_on_c, 0, 67, 0
2, 1000, Note_on_c, 0, 79, 0
2, 1005, Note_on_c, 0, 65, 89
2, 1005, Note_on_c, 0, 77, 89
2, 1035, Note_on_c, 0, 65, 0
2, 1045, Note_on_c, 0, 77, 0
2, 1050, Note_on_c, 0, 64, 89
2, 1050, Note_on_c, 0, 76, 89
2, 1080, Note_on_c, 0, 64, 0
2, 1090, Note_on_c, 0, 76, 0
2, 1095, Note_on_c, 0, 62, 89
2, 1095, Note_on_c, 0, 74, 89
2, 1125, Note_on_c, 0, 62, 0
2, 1135, Note_on_c, 0, 74, 0
2, 1140, Note_on_c, 0, 61, 89
2, 1140, Note_on_c, 0, 73, 89
2, 1665, Note_on_c, 0, 61, 0
2, 1665, Note_on_c, 0, 73, 0
2, 1695, Note_on_c, 0, 74, 89
2, 1695, Note_on_c, 0, 62, 89
2, 1995, Note_on_c, 0, 74, 0
2, 1995, Note_on_c, 0, 62, 0
2, 2880, Note_on_c, 0, 57, 89
2, 2880, Note_on_c, 0, 69, 89
2, 2910, Note_on_c, 0, 57, 0
2, 2910, Note_on_c, 0, 69, 0
2, 2925, Note_on_c, 0, 55, 89
2, 2925, Note_on_c, 0, 67, 89
2, 2955, Note_on_c, 0, 55, 0
2, 2965, Note_on_c, 0, 67, 0
2, 2970, Note_on_c, 0, 57, 89
2, 2970, Note_on_c, 0, 69, 89
2, 3765, Note_on_c, 0, 57, 0
2, 3765, Note_on_c, 0, 69, 0
2, 3840, Note_on_c, 0, 52, 89
2, 3840, Note_on_c, 0, 64, 89
2, 4005, Note_on_c, 0, 52, 0
2, 4005, Note_on_c, 0, 64, 0
2, 4020, Note_on_c, 0, 53, 89
2, 4020, Note_on_c, 0, 65, 89
2, 4185, Note_on_c, 0, 53, 0
2, 4185, Note_on_c, 0, 65, 0
2, 4200, Note_on_c, 0, 49, 89
2, 4200, Note_on_c, 0, 61, 89
2, 4365, Note_on_c, 0, 49, 0
2, 4365, Note_on_c, 0, 61, 0
2, 4380, Note_on_c, 0, 50, 89
2, 4380, Note_on_c, 0, 62, 89
2, 4740, Note_on_c, 0, 50, 0
2, 4740, Note_on_c, 0, 62, 0
2, 5760, Note_on_c, 0, 45, 89
2, 5760, Note_on_c, 0, 57, 89
2, 5790, Note_on_c, 0, 45, 0
2, 5790, Note_on_c, 0, 57, 0
2, 5805, Note_on_c, 0, 43, 89
2, 5805, Note_on_c, 0, 55, 89
2, 5835, Note_on_c, 0, 43, 0
2, 5845, Note_on_c, 0, 55, 0
2, 5850, Note_on_c, 0, 45, 89
2, 5850, Note_on_c, 0, 57, 89
2, 6705, Note_on_c, 0, 45, 0
2, 6705, Note_on_c, 0, 57, 0
2, 6720, Note_on_c, 0, 43, 89
2, 6720, Note_on_c, 0, 55, 89
2, 6750, Note_on_c, 0, 43, 0
2, 6760, Note_on_c, 0, 55, 0
2, 6765, Note_on_c, 0, 41, 89
2, 6765, Note_on_c, 0, 53, 89
2, 6795, Note_on_c, 0, 41, 0
2, 6805, Note_on_c, 0, 53, 0
2, 6810, Note_on_c, 0, 40, 89
2, 6810, Note_on_c, 0, 52, 89
2, 6840, Note_on_c, 0, 40, 0
2, 6850, Note_on_c, 0, 52, 0
2, 6855, Note_on_c, 0, 38, 89
2, 6855, Note_on_c, 0, 50, 89
2, 6885, Note_on_c, 0, 38, 0
2, 6895, Note_on_c, 0, 50, 0
2, 6900, Note_on_c, 0, 37, 89
2, 6900, Note_on_c, 0, 49, 89
2, 7425, Note_on_c, 0, 37, 0
2, 7425, Note_on_c, 0, 49, 0
2, 7455, Note_on_c, 0, 50, 89
2, 7455, Note_on_c, 0, 38, 89
2, 7755, Note_on_c, 0, 50, 0
2, 7755, Note_on_c, 0, 38, 0
2, 8640, Note_on_c, 0, 38, 89
2, 9135, Note_on_c, 0, 49, 89
2, 9600, Note_on_c, 0, 52, 89
2, 10095, Note_on_c, 0, 55, 89
2, 10560, Note_on_c, 0, 58, 89
2, 11055, Note_on_c, 0, 61, 89
2, 11520, Note_on_c, 0, 64, 89
2, 12405, Note_on_c, 0, 55, 0
2, 12465, Note_on_c, 0, 49, 0
2, 12465, Note_on_c, 0, 52, 0
2, 12465, Note_on_c, 0, 58, 0
2, 12465, Note_on_c, 0, 61, 0
2, 12480, Note_on_c, 0, 64, 0
2, 12480, Note_on_c, 0, 62, 89
2, 12480, Note_on_c, 0, 57, 89
2, 12480, Note_on_c, 0, 50, 89
2, 12480, Note_on_c, 0, 55, 89
2, 12945, Note_on_c, 0, 55, 0
2, 12975, Note_on_c, 0, 52, 89
2, 13440, Note_on_c, 0, 52, 0
2, 13440, Note_on_c, 0, 54, 89
2, 14385, Note_on_c, 0, 38, 0
2, 14385, Note_on_c, 0, 62, 0
2, 14385, Note_on_c, 0, 57, 0
2, 14385, Note_on_c, 0, 50, 0
2, 14385, Note_on_c, 0, 54, 0
2, 15300, Note_on_c, 0, 49, 89
2, 15300, Note_on_c, 0, 61, 89
2, 15345, Note_on_c, 0, 49, 0
2, 15345, Note_on_c, 0, 61, 0
2, 15360, Note_on_c, 0, 50, 89
2, 15360, Note_on_c, 0, 62, 89
2, 15405, Note_on_c, 0, 50, 0
2, 15405, Note_on_c, 0, 62, 0
2, 15420, Note_on_c, 0, 52, 89
2, 15420, Note_on_c, 0, 64, 89
2, 15465, Note_on_c, 0, 52, 0
2, 15465, Note_on_c, 0, 64, 0
2, 15480, Note_on_c, 0, 49, 89
2, 15480, Note_on_c, 0, 61, 89
2, 15525, Note_on_c, 0, 49, 0
2, 15525, Note_on_c, 0, 61, 0
2, 15540, Note_on_c, 0, 50, 89
2, 15540, Note_on_c, 0, 62, 89
2, 15585, Note_on_c, 0, 50, 0
2, 15585, Note_on_c, 0, 62, 0
2, 15600, Note_on_c, 0, 52, 89
2, 15600, Note_on_c, 0, 64, 89
2, 15645, Note_on_c, 0, 52, 0
2, 15645, Note_on_c, 0, 64, 0
2, 15660, Note_on_c, 0, 49, 89
2, 15660, Note_on_c, 0, 61, 89
2, 15705, Note_on_c, 0, 49, 0
2, 15705, Note_on_c, 0, 61, 0
2, 15720, Note_on_c, 0, 50, 89
2, 15720, Note_on_c, 0, 62, 89
2, 15765, Note_on_c, 0, 50, 0
2, 15765, Note_on_c, 0, 62, 0
2, 15780, Note_on_c, 0, 52, 89
2, 15780, Note_on_c, 0, 64, 89
2, 15825, Note_on_c, 0, 52, 0
2, 15825, Note_on_c, 0, 64, 0
2, 15840, Note_on_c, 0, 49, 89
2, 15840, Note_on_c, 0, 61, 89
2, 15885, Note_on_c, 0, 49, 0
2, 15885, Note_on_c, 0, 61, 0
2, 15900, Note_on_c, 0, 50, 89
2, 15900, Note_on_c, 0, 62, 89
2, 15975, Note_on_c, 0, 50, 0
2, 15975, Note_on_c, 0, 62, 0
2, 15990, Note_on_c, 0, 52, 89
2, 15990, Note_on_c, 0, 64, 89
2, 16065, Note_on_c, 0, 52, 0
2, 16065, Note_on_c, 0, 64, 0
2, 16080, Note_on_c, 0, 53, 89
2, 16080, Note_on_c, 0, 65, 89
2, 16125, Note_on_c, 0, 53, 0
2, 16125, Note_on_c, 0, 65, 0
2, 16140, Note_on_c, 0, 55, 89
2, 16140, Note_on_c, 0, 67, 89
2, 16185, Note_on_c, 0, 55, 0
2, 16185, Note_on_c, 0, 67, 0
2, 16200, Note_on_c, 0, 52, 89
2, 16200, Note_on_c, 0, 64, 89
2, 16245, Note_on_c, 0, 52, 0
2, 16245, Note_on_c, 0, 64, 0
2, 16260, Note_on_c, 0, 53, 89
2, 16260, Note_on_c, 0, 65, 89
2, 16305, Note_on_c, 0, 53, 0
2, 16305, Note_on_c, 0, 65, 0
2, 16320, Note_on_c, 0, 67, 89
2, 16320, Note_on_c, 0, 55, 89
2, 16365, Note_on_c, 0, 67, 0
2, 16365, Note_on_c, 0, 55, 0
2, 16380, Note_on_c, 0, 64, 89
2, 16380, Note_on_c, 0, 52, 89
2, 16425, Note_on_c, 0, 64, 0
2, 16425, Note_on_c, 0, 52, 0
2, 16440, Note_on_c, 0, 65, 89
2, 16440, Note_on_c, 0, 53, 89
2, 16485, Note_on_c, 0, 65, 0
2, 16485, Note_on_c, 0, 53, 0
2, 16500, Note_on_c, 0, 67, 89
2, 16500, Note_on_c, 0, 55, 89
2, 16545, Note_on_c, 0, 67, 0
2, 16545, Note_on_c, 0, 55, 0
2, 16560, Note_on_c, 0, 64, 89
2, 16560, Note_on_c, 0, 52, 89
2, 16605, Note_on_c, 0, 64, 0
2, 16605, Note_on_c, 0, 52, 0
2, 16620, Note_on_c, 0, 65, 89
2, 16620, Note_on_c, 0, 53, 89
2, 16695, Note_on_c, 0, 65, 0
2, 16695, Note_on_c, 0, 53, 0
2, 16710, Note_on_c, 0, 67, 89
2, 16710, Note_on_c, 0, 55, 89
2, 16785, Note_on_c, 0, 67, 0
2, 16785, Note_on_c, 0, 55, 0
2, 16800, Note_on_c, 0, 57, 89
2, 16800, Note_on_c, 0, 69, 89
2, 16845, Note_on_c, 0, 57, 0
2, 16845, Note_on_c, 0, 69, 0
2, 16860, Note_on_c, 0, 58, 89
2, 16860, Note_on_c, 0, 70, 89
2, 16905, Note_on_c, 0, 58, 0
2, 16905, Note_on_c, 0, 70, 0
2, 16920, Note_on_c, 0, 55, 89
2, 16920, Note_on_c, 0, 67, 89
2, 16965, Note_on_c, 0, 55, 0
2, 16965, Note_on_c, 0, 67, 0
2, 16980, Note_on_c, 0, 57, 89
2, 16980, Note_on_c, 0, 69, 89
2, 17025, Note_on_c, 0, 57, 0
2, 17025, Note_on_c, 0, 69, 0
2, 17040, Note_on_c, 0, 58, 89
2, 17040, Note_on_c, 0, 70, 89
2, 17085, Note_on_c, 0, 58, 0
2, 17085, Note_on_c, 0, 70, 0
2, 17100, Note_on_c, 0, 55, 89
2, 17100, Note_on_c, 0, 67, 89
2, 17145, Note_on_c, 0, 55, 0
2, 17145, Note_on_c, 0, 67, 0
2, 17160, Note_on_c, 0, 57, 89
2, 17160, Note_on_c, 0, 69, 89
2, 17205, Note_on_c, 0, 57, 0
2, 17205, Note_on_c, 0, 69, 0
2, 17220, Note_on_c, 0, 58, 89
2, 17220, Note_on_c, 0, 70, 89
2, 17265, Note_on_c, 0, 58, 0
2, 17265, Note_on_c, 0, 70, 0
2, 17280, Note_on_c, 0, 55, 89
2, 17280, Note_on_c, 0, 67, 89
2, 17325, Note_on_c, 0, 55, 0
2, 17325, Note_on_c, 0, 67, 0
2, 17340, Note_on_c, 0, 69, 89
2, 17340, Note_on_c, 0, 57, 89
2, 17505, Note_on_c, 0, 69, 0
2, 17505, Note_on_c, 0, 57, 0
2, 19140, Note_on_c, 0, 61, 89
2, 19140, Note_on_c, 0, 73, 89
2, 19185, Note_on_c, 0, 61, 0
2, 19185, Note_on_c, 0, 73, 0
2, 19200, Note_on_c, 0, 74, 89
2, 19200, Note_on_c, 0, 62, 89
2, 19245, Note_on_c, 0, 74, 0
2, 19245, Note_on_c, 0, 62, 0
2, 19260, Note_on_c, 0, 64, 89
2, 19260, Note_on_c, 0, 76, 89
2, 19305, Note_on_c, 0, 64, 0
2, 19305, Note_on_c, 0, 76, 0
2, 19320, Note_on_c, 0, 61, 89
2, 19320, Note_on_c, 0, 73, 89
2, 19365, Note_on_c, 0, 61, 0
2, 19365, Note_on_c, 0, 73, 0
2, 19380, Note_on_c, 0, 62, 89
2, 19380, Note_on_c, 0, 74, 89
2, 19425, Note_on_c, 0, 62, 0
2, 19425, Note_on_c, 0, 74, 0
2, 19440, Note_on_c, 0, 64, 89
2, 19440, Note_on_c, 0, 76, 89
2, 19485, Note_on_c, 0, 64, 0
2, 19485, Note_on_c, 0, 76, 0
2, 19500, Note_on_c, 0, 61, 89
2, 19500, Note_on_c, 0, 73, 89
2, 19545, Note_on_c, 0, 61, 0
2, 19545, Note_on_c, 0, 73, 0
2, 19560, Note_on_c, 0, 62, 89
2, 19560, Note_on_c, 0, 74, 89
2, 19605, Note_on_c, 0, 62, 0
2, 19605, Note_on_c, 0, 74, 0
2, 19620, Note_on_c, 0, 64, 89
2, 19620, Note_on_c, 0, 76, 89
2, 19665, Note_on_c, 0, 64, 0
2, 19665, Note_on_c, 0, 76, 0
2, 19680, Note_on_c, 0, 61, 89
2, 19680, Note_on_c, 0, 73, 89
2, 19725, Note_on_c, 0, 61, 0
2, 19725, Note_on_c, 0, 73, 0
2, 19740, Note_on_c, 0, 62, 89
2, 19740, Note_on_c, 0, 74, 89
2, 19815, Note_on_c, 0, 62, 0
2, 19815, Note_on_c, 0, 74, 0
2, 19830, Note_on_c, 0, 64, 89
2, 19830, Note_on_c, 0, 76, 89
2, 19905, Note_on_c, 0, 64, 0
2, 19905, Note_on_c, 0, 76, 0
2, 19920, Note_on_c, 0, 65, 89
2, 19920, Note_on_c, 0, 77, 89
2, 19965, Note_on_c, 0, 65, 0
2, 19965, Note_on_c, 0, 77, 0
2, 19980, Note_on_c, 0, 67, 89
2, 19980, Note_on_c, 0, 79, 89
2, 20025, Note_on_c, 0, 67, 0
2, 20025, Note_on_c, 0, 79, 0
2, 20040, Note_on_c, 0, 64, 89
2, 20040, Note_on_c, 0, 76, 89
2, 20085, Note_on_c, 0, 64, 0
2, 20085, Note_on_c, 0, 76, 0
2, 20100, Note_on_c, 0, 65, 89
2, 20100, Note_on_c, 0, 77, 89
2, 20145, Note_on_c, 0, 65, 0
2, 20145, Note_on_c, 0, 77, 0
2, 20160, Note_on_c, 0, 67, 89
2, 20160, Note_on_c, 0, 79, 89
2, 20205, Note_on_c, 0, 67, 0
2, 20205, Note_on_c, 0, 79, 0
2, 20220, Note_on_c, 0, 64, 89
2, 20220, Note_on_c, 0, 76, 89
2, 20265, Note_on_c, 0, 64, 0
2, 20265, Note_on_c, 0, 76, 0
2, 20280, Note_on_c, 0, 65, 89
2, 20280, Note_on_c, 0, 77, 89
2, 20325, Note_on_c, 0, 65, 0
2, 20325, Note_on_c, 0, 77, 0
2, 20340, Note_on_c, 0, 67, 89
2, 20340, Note_on_c, 0, 79, 89
2, 20385, Note_on_c, 0, 67, 0
2, 20385, Note_on_c, 0, 79, 0
2, 20400, Note_on_c, 0, 64, 89
2, 20400, Note_on_c, 0, 76, 89
2, 20445, Note_on_c, 0, 64, 0
2, 20445, Note_on_c, 0, 76, 0
2, 20460, Note_on_c, 0, 65, 89
2, 20460, Note_on_c, 0, 77, 89
2, 20535, Note_on_c, 0, 65, 0
2, 20535, Note_on_c, 0, 77, 0
2, 20550, Note_on_c, 0, 67, 89
2, 20550, Note_on_c, 0, 79, 89
2, 20625, Note_on_c, 0, 67, 0
2, 20625, Note_on_c, 0, 79, 0
2, 20640, Note_on_c, 0, 69, 89
2, 20640, Note_on_c, 0, 81, 89
2, 20685, Note_on_c, 0, 69, 0
2, 20685, Note_on_c, 0, 81, 0
2, 20700, Note_on_c, 0, 70, 89
2, 20700, Note_on_c, 0, 82, 89
2, 20745, Note_on_c, 0, 70, 0
2, 20745, Note_on_c, 0, 82, 0
2, 20760, Note_on_c, 0, 67, 89
2, 20760, Note_on_c, 0, 79, 89
2, 20805, Note_on_c, 0, 67, 0
2, 20805, Note_on_c, 0, 79, 0
2, 20820, Note_on_c, 0, 69, 89
2, 20820, Note_on_c, 0, 81, 89
2, 20865, Note_on_c, 0, 69, 0
2, 20865, Note_on_c, 0, 81, 0
2, 20880, Note_on_c, 0, 70, 89
2, 20880, Note_on_c, 0, 82, 89
2, 20925, Note_on_c, 0, 70, 0
2, 20925, Note_on_c, 0, 82, 0
2, 20940, Note_on_c, 0, 67, 89
2, 20940, Note_on_c, 0, 79, 89
2, 20985, Note_on_c, 0, 67, 0
2, 20985, Note_on_c, 0, 79, 0
2, 21000, Note_on_c, 0, 69, 89
2, 21000, Note_on_c, 0, 81, 89
2, 21045, Note_on_c, 0, 69, 0
2, 21045, Note_on_c, 0, 81, 0
2, 21060, Note_on_c, 0, 70, 89
2, 21060, Note_on_c, 0, 82, 89
2, 21105, Note_on_c, 0, 70, 0
2, 21105, Note_on_c, 0, 82, 0
2, 21120, Note_on_c, 0, 67, 89
2, 21120, Note_on_c, 0, 79, 89
2, 21165, Note_on_c, 0, 67, 0
2, 21165, Note_on_c, 0, 79, 0
2, 21180, Note_on_c, 0, 69, 89
2, 21180, Note_on_c, 0, 81, 89
2, 21345, Note_on_c, 0, 69, 0
2, 21345, Note_on_c, 0, 81, 0
2, 22500, Note_on_c, 0, 69, 89
2, 22500, Note_on_c, 0, 81, 89
2, 22545, Note_on_c, 0, 69, 0
2, 22545, Note_on_c, 0, 81, 0
2, 22560, Note_on_c, 0, 67, 89
2, 22560, Note_on_c, 0, 79, 89
2, 22605, Note_on_c, 0, 67, 0
2, 22605, Note_on_c, 0, 79, 0
2, 22620, Note_on_c, 0, 70, 89
2, 22620, Note_on_c, 0, 82, 89
2, 22665, Note_on_c, 0, 70, 0
2, 22665, Note_on_c, 0, 82, 0
2, 22680, Note_on_c, 0, 64, 89
2, 22680, Note_on_c, 0, 76, 89
2, 22725, Note_on_c, 0, 64, 0
2, 22725, Note_on_c, 0, 76, 0
2, 22740, Note_on_c, 0, 67, 89
2, 22740, Note_on_c, 0, 79, 89
2, 22785, Note_on_c, 0, 67, 0
2, 22785, Note_on_c, 0, 79, 0
2, 22800, Note_on_c, 0, 70, 89
2, 22800, Note_on_c, 0, 82, 89
2, 22845, Note_on_c, 0, 70, 0
2, 22845, Note_on_c, 0, 82, 0
2, 22860, Note_on_c, 0, 64, 89
2, 22860, Note_on_c, 0, 76, 89
2, 22905, Note_on_c, 0, 64, 0
2, 22905, Note_on_c, 0, 76, 0
2, 22920, Note_on_c, 0, 65, 89
2, 22920, Note_on_c, 0, 77, 89
2, 22965, Note_on_c, 0, 65, 0
2, 22965, Note_on_c, 0, 77, 0
2, 22980, Note_on_c, 0, 69, 89
2, 22980, Note_on_c, 0, 81, 89
2, 23025, Note_on_c, 0, 69, 0
2, 23025, Note_on_c, 0, 81, 0
2, 23040, Note_on_c, 0, 62, 89
2, 23040, Note_on_c, 0, 74, 89
2, 23085, Note_on_c, 0, 62, 0
2, 23085, Note_on_c, 0, 74, 0
2, 23100, Note_on_c, 0, 65, 89
2, 23100, Note_on_c, 0, 77, 89
2, 23145, Note_on_c, 0, 65, 0
2, 23145, Note_on_c, 0, 77, 0
2, 23160, Note_on_c, 0, 69, 89
2, 23160, Note_on_c, 0, 81, 89
2, 23205, Note_on_c, 0, 69, 0
2, 23205, Note_on_c, 0, 81, 0
2, 23220, Note_on_c, 0, 62, 89
2, 23220, Note_on_c, 0, 74, 89
2, 23265, Note_on_c, 0, 62, 0
2, 23265, Note_on_c, 0, 74, 0
2, 23280, Note_on_c, 0, 64, 89
2, 23280, Note_on_c, 0, 76, 89
2, 23325, Note_on_c, 0, 64, 0
2, 23325, Note_on_c, 0, 76, 0
2, 23340, Note_on_c, 0, 67, 89
2, 23340, Note_on_c, 0, 79, 89
2, 23385, Note_on_c, 0, 67, 0
2, 23385, Note_on_c, 0, 79, 0
2, 23400, Note_on_c, 0, 60, 89
2, 23400, Note_on_c, 0, 72, 89
2, 23445, Note_on_c, 0, 60, 0
2, 23445, Note_on_c, 0, 72, 0
2, 23460, Note_on_c, 0, 64, 89
2, 23460, Note_on_c, 0, 76, 89
2, 23505, Note_on_c, 0, 64, 0
2, 23505, Note_on_c, 0, 76, 0
2, 23520, Note_on_c, 0, 67, 89
2, 23520, Note_on_c, 0, 79, 89
2, 23565, Note_on_c, 0, 67, 0
2, 23565, Note_on_c, 0, 79, 0
2, 23580, Note_on_c, 0, 60, 89
2, 23580, Note_on_c, 0, 72, 89
2, 23625, Note_on_c, 0, 60, 0
2, 23625, Note_on_c, 0, 72, 0
2, 23640, Note_on_c, 0, 62, 89
2, 23640, Note_on_c, 0, 74, 89
2, 23685, Note_on_c, 0, 62, 0
2, 23685, Note_on_c, 0, 74, 0
2, 23700, Note_on_c, 0, 65, 89
2, 23700, Note_on_c, 0, 77, 89
2, 23745, Note_on_c, 0, 65, 0
2, 23745, Note_on_c, 0, 77, 0
2, 23760, Note_on_c, 0, 58, 89
2, 23760, Note_on_c, 0, 70, 89
2, 23805, Note_on_c, 0, 58, 0
2, 23805, Note_on_c, 0, 70, 0
2, 23820, Note_on_c, 0, 62, 89
2, 23820, Note_on_c, 0, 74, 89
2, 23865, Note_on_c, 0, 62, 0
2, 23865, Note_on_c, 0, 74, 0
2, 23880, Note_on_c, 0, 65, 89
2, 23880, Note_on_c, 0, 77, 89
2, 23925, Note_on_c, 0, 65, 0
2, 23925, Note_on_c, 0, 77, 0
2, 23940, Note_on_c, 0, 58, 89
2, 23940, Note_on_c, 0, 70, 89
2, 23985, Note_on_c, 0, 58, 0
2, 23985, Note_on_c, 0, 70, 0
2, 24000, Note_on_c, 0, 60, 89
2, 24000, Note_on_c, 0, 72, 89
2, 24045, Note_on_c, 0, 60, 0
2, 24045, Note_on_c, 0, 72, 0
2, 24060, Note_on_c, 0, 64, 89
2, 24060, Note_on_c, 0, 76, 89
2, 24105, Note_on_c, 0, 64, 0
2, 24105, Note_on_c, 0, 76, 0
2, 24120, Note_on_c, 0, 57, 89
2, 24120, Note_on_c, 0, 69, 89
2, 24165, Note_on_c, 0, 57, 0
2, 24165, Note_on_c, 0, 69, 0
2, 24180, Note_on_c, 0, 60, 89
2, 24180, Note_on_c, 0, 72, 89
2, 24225, Note_on_c, 0, 60, 0
2, 24225, Note_on_c, 0, 72, 0
2, 24240, Note_on_c, 0, 64, 89
2, 24240, Note_on_c, 0, 76, 89
2, 24285, Note_on_c, 0, 64, 0
2, 24285, Note_on_c, 0, 76, 0
2, 24300, Note_on_c, 0, 57, 89
2, 24300, Note_on_c, 0, 69, 89
2, 24345, Note_on_c, 0, 57, 0
2, 24345, Note_on_c, 0, 69, 0
2, 24360, Note_on_c, 0, 58, 89
2, 24360, Note_on_c, 0, 70, 89
2, 24405, Note_on_c, 0, 58, 0
2, 24405, Note_on_c, 0, 70, 0
2, 24420, Note_on_c, 0, 62, 89
2, 24420, Note_on_c, 0, 74, 89
2, 24465, Note_on_c, 0, 62, 0
2, 24465, Note_on_c, 0, 74, 0
2, 24480, Note_on_c, 0, 55, 89
2, 24480, Note_on_c, 0, 67, 89
2, 24525, Note_on_c, 0, 55, 0
2, 24525, Note_on_c, 0, 67, 0
2, 24540, Note_on_c, 0, 58, 89
2, 24540, Note_on_c, 0, 70, 89
2, 24585, Note_on_c, 0, 58, 0
2, 24585, Note_on_c, 0, 70, 0
2, 24600, Note_on_c, 0, 62, 89
2, 24600, Note_on_c, 0, 74, 89
2, 24645, Note_on_c, 0, 62, 0
2, 24645, Note_on_c, 0, 74, 0
2, 24660, Note_on_c, 0, 55, 89
2, 24660, Note_on_c, 0, 67, 89
2, 24705, Note_on_c, 0, 55, 0
2, 24705, Note_on_c, 0, 67, 0
2, 24720, Note_on_c, 0, 57, 89
2, 24720, Note_on_c, 0, 69, 89
2, 24765, Note_on_c, 0, 57, 0
2, 24765, Note_on_c, 0, 69, 0
2, 24780, Note_on_c, 0, 60, 89
2, 24780, Note_on_c, 0, 72, 89
2, 24825, Note_on_c, 0, 60, 0
2, 24825, Note_on_c, 0, 72, 0
2, 24840, Note_on_c, 0, 53, 89
2, 24840, Note_on_c, 0, 65, 89
2, 24885, Note_on_c, 0, 53, 0
2, 24885, Note_on_c, 0, 65, 0
2, 24900, Note_on_c, 0, 57, 89
2, 24900, Note_on_c, 0, 69, 89
2, 24945, Note_on_c, 0, 57, 0
2, 24945, Note_on_c, 0, 69, 0
2, 24960, Note_on_c, 0, 60, 89
2, 24960, Note_on_c, 0, 72, 89
2, 25005, Note_on_c, 0, 60, 0
2, 25005, Note_on_c, 0, 72, 0
2, 25020, Note_on_c, 0, 53, 89
2, 25020, Note_on_c, 0, 65, 89
2, 25065, Note_on_c, 0, 53, 0
2, 25065, Note_on_c, 0, 65, 0
2, 25080, Note_on_c, 0, 55, 89
2, 25080, Note_on_c, 0, 67, 89
2, 25125, Note_on_c, 0, 55, 0
2, 25125, Note_on_c, 0, 67, 0
2, 25140, Note_on_c, 0, 58, 89
2, 25140, Note_on_c, 0, 70, 89
2, 25185, Note_on_c, 0, 58, 0
2, 25185, Note_on_c, 0, 70, 0
2, 25200, Note_on_c, 0, 52, 89
2, 25200, Note_on_c, 0, 64, 89
2, 25245, Note_on_c, 0, 52, 0
2, 25245, Note_on_c, 0, 64, 0
2, 25260, Note_on_c, 0, 55, 89
2, 25260, Note_on_c, 0, 67, 89
2, 25305, Note_on_c, 0, 55, 0
2, 25305, Note_on_c, 0, 67, 0
2, 25320, Note_on_c, 0, 58, 89
2, 25320, Note_on_c, 0, 70, 89
2, 25365, Note_on_c, 0, 58, 0
2, 25365, Note_on_c, 0, 70, 0
2, 25380, Note_on_c, 0, 52, 89
2, 25380, Note_on_c, 0, 64, 89
2, 25425, Note_on_c, 0, 52, 0
2, 25425, Note_on_c, 0, 64, 0
2, 25440, Note_on_c, 0, 53, 89
2, 25440, Note_on_c, 0, 65, 89
2, 25485, Note_on_c, 0, 53, 0
2, 25485, Note_on_c, 0, 65, 0
2, 25500, Note_on_c, 0, 57, 89
2, 25500, Note_on_c, 0, 69, 89
2, 25545, Note_on_c, 0, 57, 0
2, 25545, Note_on_c, 0, 69, 0
2, 25560, Note_on_c, 0, 50, 89
2, 25560, Note_on_c, 0, 62, 89
2, 25605, Note_on_c, 0, 50, 0
2, 25605, Note_on_c, 0, 62, 0
2, 25620, Note_on_c, 0, 53, 89
2, 25620, Note_on_c, 0, 65, 89
2, 25665, Note_on_c, 0, 53, 0
2, 25665, Note_on_c, 0, 65, 0
2, 25680, Note_on_c, 0, 57, 89
2, 25680, Note_on_c, 0, 69, 89
2, 25725, Note_on_c, 0, 57, 0
2, 25725, Note_on_c, 0, 69, 0
2, 25740, Note_on_c, 0, 50, 89
2, 25740, Note_on_c, 0, 62, 89
2, 25785, Note_on_c, 0, 50, 0
2, 25785, Note_on_c, 0, 62, 0
2, 25800, Note_on_c, 0, 52, 89
2, 25800, Note_on_c, 0, 64, 89
2, 25845, Note_on_c, 0, 52, 0
2, 25845, Note_on_c, 0, 64, 0
2, 25860, Note_on_c, 0, 55, 89
2, 25860, Note_on_c, 0, 67, 89
2, 25905, Note_on_c, 0, 55, 0
2, 25905, Note_on_c, 0, 67, 0
2, 25920, Note_on_c, 0, 49, 89
2, 25920, Note_on_c, 0, 61, 89
2, 25965, Note_on_c, 0, 49, 0
2, 25965, Note_on_c, 0, 61, 0
2, 25980, Note_on_c, 0, 52, 89
2, 25980, Note_on_c, 0, 64, 89
2, 26025, Note_on_c, 0, 52, 0
2, 26025, Note_on_c, 0, 64, 0
2, 26040, Note_on_c, 0, 55, 89
2, 26040, Note_on_c, 0, 67, 89
2, 26085, Note_on_c, 0, 55, 0
2, 26085, Note_on_c, 0, 67, 0
2, 26100, Note_on_c, 0, 49, 89
2, 26100, Note_on_c, 0, 61, 89
2, 26145, Note_on_c, 0, 49, 0
2, 26145, Note_on_c, 0, 61, 0
2, 26175, Note_on_c, 0, 38, 89
2, 27135, Note_on_c, 0, 49, 89
2, 27150, Note_on_c, 0, 52, 89
2, 27165, Note_on_c, 0, 55, 89
2, 27180, Note_on_c, 0, 58, 89
2, 27195, Note_on_c, 0, 61, 89
2, 27210, Note_on_c, 0, 64, 89
2, 27225, Note_on_c, 0, 67, 89
2, 27240, Note_on_c, 0, 70, 89
2, 28305, Note_on_c, 0, 38, 0
2, 28305, Note_on_c, 0, 49, 0
2, 28305, Note_on_c, 0, 52, 0
2, 28305, Note_on_c, 0, 55, 0
2, 28305, Note_on_c, 0, 58, 0
2, 28305, Note_on_c, 0, 61, 0
2, 28305, Note_on_c, 0, 64, 0
2, 28305, Note_on_c, 0, 67, 0
2, 28365, Note_on_c, 0, 70, 0
2, 28380, Note_on_c, 0, 69, 89
2, 28410, Note_on_c, 0, 69, 0
2, 28425, Note_on_c, 0, 67, 89
2, 28455, Note_on_c, 0, 67, 0
2, 28470, Note_on_c, 0, 65, 89
2, 28500, Note_on_c, 0, 65, 0
2, 28515, Note_on_c, 0, 64, 89
2, 28545, Note_on_c, 0, 64, 0
2, 28560, Note_on_c, 0, 62, 89
2, 28590, Note_on_c, 0, 62, 0
2, 28605, Note_on_c, 0, 61, 89
2, 28680, Note_on_c, 0, 61, 0
2, 28695, Note_on_c, 0, 57, 89
2, 28770, Note_on_c, 0, 57, 0
2, 28785, Note_on_c, 0, 61, 89
2, 28860, Note_on_c, 0, 61, 0
2, 28875, Note_on_c, 0, 64, 89
2, 28905, Note_on_c, 0, 64, 0
2, 28920, Note_on_c, 0, 67, 89
2, 28950, Note_on_c, 0, 67, 0
2, 28965, Note_on_c, 0, 65, 89
2, 28980, Note_on_c, 0, 65, 0
2, 28995, Note_on_c, 0, 67, 89
2, 29010, Note_on_c, 0, 67, 0
2, 29025, Note_on_c, 0, 65, 89
2, 29040, Note_on_c, 0, 65, 0
2, 29055, Note_on_c, 0, 67, 89
2, 29070, Note_on_c, 0, 67, 0
2, 29085, Note_on_c, 0, 65, 89
2, 29100, Note_on_c, 0, 65, 0
2, 29115, Note_on_c, 0, 67, 89
2, 29130, Note_on_c, 0, 67, 0
2, 29145, Note_on_c, 0, 65, 89
2, 29160, Note_on_c, 0, 65, 0
2, 29175, Note_on_c, 0, 67, 89
2, 29190, Note_on_c, 0, 67, 0
2, 29205, Note_on_c, 0, 65, 89
2, 29220, Note_on_c, 0, 65, 0
2, 29235, Note_on_c, 0, 64, 89
2, 29310, Note_on_c, 0, 64, 0
2, 29325, Note_on_c, 0, 65, 89
2, 29325, Note_on_c, 0, 62, 89
2, 29325, Note_on_c, 0, 57, 89
2, 29325, Note_on_c, 0, 53, 89
2, 29325, Note_on_c, 0, 50, 89
2, 29325, Note_on_c, 0, 38, 89
2, 29775, Note_on_c, 0, 57, 0
2, 29775, Note_on_c, 0, 50, 0
2, 29775, Note_on_c, 0, 38, 0
2, 29790, Note_on_c, 0, 53, 0
2, 29805, Note_on_c, 0, 62, 0
2, 29835, Note_on_c, 0, 65, 0
2, 30870, Note_on_c, 0, 69, 89
2, 30930, Note_on_c, 0, 69, 0
2, 30960, Note_on_c, 0, 74, 89
2, 31005, Note_on_c, 0, 69, 89
2, 31035, Note_on_c, 0, 74, 0
2, 31050, Note_on_c, 0, 76, 89
2, 31065, Note_on_c, 0, 69, 0
2, 31095, Note_on_c, 0, 69, 89
2, 31125, Note_on_c, 0, 76, 0
2, 31140, Note_on_c, 0, 77, 89
2, 31155, Note_on_c, 0, 69, 0
2, 31185, Note_on_c, 0, 69, 89
2, 31215, Note_on_c, 0, 77, 0
2, 31230, Note_on_c, 0, 74, 89
2, 31245, Note_on_c, 0, 69, 0
2, 31275, Note_on_c, 0, 69, 89
2, 31305, Note_on_c, 0, 74, 0
2, 31320, Note_on_c, 0, 76, 89
2, 31335, Note_on_c, 0, 69, 0
2, 31365, Note_on_c, 0, 69, 89
2, 31395, Note_on_c, 0, 76, 0
2, 31410, Note_on_c, 0, 77, 89
2, 31425, Note_on_c, 0, 69, 0
2, 31455, Note_on_c, 0, 69, 89
2, 31485, Note_on_c, 0, 77, 0
2, 31500, Note_on_c, 0, 79, 89
2, 31515, Note_on_c, 0, 69, 0
2, 31545, Note_on_c, 0, 69, 89
2, 31575, Note_on_c, 0, 79, 0
2, 31590, Note_on_c, 0, 76, 89
2, 31605, Note_on_c, 0, 69, 0
2, 31635, Note_on_c, 0, 69, 89
2, 31665, Note_on_c, 0, 76, 0
2, 31680, Note_on_c, 0, 77, 89
2, 31695, Note_on_c, 0, 69, 0
2, 31725, Note_on_c, 0, 69, 89
2, 31755, Note_on_c, 0, 77, 0
2, 31770, Note_on_c, 0, 79, 89
2, 31785, Note_on_c, 0, 69, 0
2, 31815, Note_on_c, 0, 69, 89
2, 31845, Note_on_c, 0, 79, 0
2, 31860, Note_on_c, 0, 81, 89
2, 31875, Note_on_c, 0, 69, 0
2, 31905, Note_on_c, 0, 69, 89
2, 31935, Note_on_c, 0, 81, 0
2, 31950, Note_on_c, 0, 77, 89
2, 31965, Note_on_c, 0, 69, 0
2, 31995, Note_on_c, 0, 69, 89
2, 32025, Note_on_c, 0, 77, 0
2, 32040, Note_on_c, 0, 79, 89
2, 32055, Note_on_c, 0, 69, 0
2, 32085, Note_on_c, 0, 69, 89
2, 32115, Note_on_c, 0, 79, 0
2, 32130, Note_on_c, 0, 81, 89
2, 32145, Note_on_c, 0, 69, 0
2, 32175, Note_on_c, 0, 69, 89
2, 32205, Note_on_c, 0, 81, 0
2, 32220, Note_on_c, 0, 82, 89
2, 32235, Note_on_c, 0, 69, 0
2, 32265, Note_on_c, 0, 69, 89
2, 32295, Note_on_c, 0, 82, 0
2, 32310, Note_on_c, 0, 79, 89
2, 32325, Note_on_c, 0, 69, 0
2, 32355, Note_on_c, 0, 69, 89
2, 32385, Note_on_c, 0, 79, 0
2, 32400, Note_on_c, 0, 81, 89
2, 32415, Note_on_c, 0, 69, 0
2, 32445, Note_on_c, 0, 69, 89
2, 32475, Note_on_c, 0, 81, 0
2, 32490, Note_on_c, 0, 77, 89
2, 32505, Note_on_c, 0, 69, 0
2, 32535, Note_on_c, 0, 69, 89
2, 32565, Note_on_c, 0, 77, 0
2, 32580, Note_on_c, 0, 79, 89
2, 32595, Note_on_c, 0, 69, 0
2, 32625, Note_on_c, 0, 69, 89
2, 32655, Note_on_c, 0, 79, 0
2, 32670, Note_on_c, 0, 76, 89
2, 32685, Note_on_c, 0, 69, 0
2, 32715, Note_on_c, 0, 69, 89
2, 32745, Note_on_c, 0, 76, 0
2, 32760, Note_on_c, 0, 77, 89
2, 32775, Note_on_c, 0, 69, 0
2, 32805, Note_on_c, 0, 69, 89
2, 32835, Note_on_c, 0, 77, 0
2, 32850, Note_on_c, 0, 74, 89
2, 32865, Note_on_c, 0, 69, 0
2, 32895, Note_on_c, 0, 69, 89
2, 32925, Note_on_c, 0, 74, 0
2, 32940, Note_on_c, 0, 76, 89
2, 32955, Note_on_c, 0, 69, 0
2, 32985, Note_on_c, 0, 69, 89
2, 33015, Note_on_c, 0, 76, 0
2, 33030, Note_on_c, 0, 73, 89
2, 33045, Note_on_c, 0, 69, 0
2, 33075, Note_on_c, 0, 69, 89
2, 33105, Note_on_c, 0, 73, 0
2, 33120, Note_on_c, 0, 74, 89
2, 33135, Note_on_c, 0, 69, 0
2, 33163, Note_on_c, 0, 69, 89
2, 33195, Note_on_c, 0, 74, 0
2, 33231, Note_on_c, 0, 69, 0
2, 33252, Note_on_c, 0, 69, 89
2, 33301, Note_on_c, 0, 70, 89
2, 33312, Note_on_c, 0, 69, 0
2, 33345, Note_on_c, 0, 69, 89
2, 33376, Note_on_c, 0, 70, 0
2, 33390, Note_on_c, 0, 67, 89
2, 33405, Note_on_c, 0, 69, 0
2, 33435, Note_on_c, 0, 69, 89
2, 33465, Note_on_c, 0, 67, 0
2, 33570, Note_on_c, 0, 65, 89
2, 33645, Note_on_c, 0, 65, 0
2, 33660, Note_on_c, 0, 67, 89
2, 33675, Note_on_c, 0, 69, 0
2, 33705, Note_on_c, 0, 69, 89
2, 33735, Note_on_c, 0, 67, 0
2, 33750, Note_on_c, 0, 64, 89
2, 33765, Note_on_c, 0, 69, 0
2, 33795, Note_on_c, 0, 69, 89
2, 33825, Note_on_c, 0, 64, 0
2, 33840, Note_on_c, 0, 65, 89
2, 33855, Note_on_c, 0, 69, 0
2, 33885, Note_on_c, 0, 69, 89
2, 33915, Note_on_c, 0, 65, 0
2, 33930, Note_on_c, 0, 62, 89
2, 33945, Note_on_c, 0, 69, 0
2, 33975, Note_on_c, 0, 69, 89
2, 34005, Note_on_c, 0, 62, 0
2, 34020, Note_on_c, 0, 67, 89
2, 34035, Note_on_c, 0, 69, 0
2, 34065, Note_on_c, 0, 69, 89
2, 34095, Note_on_c, 0, 67, 0
2, 34110, Note_on_c, 0, 64, 89
2, 34125, Note_on_c, 0, 69, 0
2, 34155, Note_on_c, 0, 69, 89
2, 34185, Note_on_c, 0, 64, 0
2, 34200, Note_on_c, 0, 65, 89
2, 34215, Note_on_c, 0, 69, 0
2, 34245, Note_on_c, 0, 69, 89
2, 34275, Note_on_c, 0, 65, 0
2, 34290, Note_on_c, 0, 62, 89
2, 34305, Note_on_c, 0, 69, 0
2, 34335, Note_on_c, 0, 69, 89
2, 34365, Note_on_c, 0, 62, 0
2, 34380, Note_on_c, 0, 64, 89
2, 34395, Note_on_c, 0, 69, 0
2, 34425, Note_on_c, 0, 69, 89
2, 34455, Note_on_c, 0, 64, 0
2, 34470, Note_on_c, 0, 61, 89
2, 34485, Note_on_c, 0, 69, 0
2, 34515, Note_on_c, 0, 69, 89
2, 34545, Note_on_c, 0, 61, 0
2, 34560, Note_on_c, 0, 62, 89
2, 34575, Note_on_c, 0, 69, 0
2, 34605, Note_on_c, 0, 69, 89
2, 34635, Note_on_c, 0, 62, 0
2, 34650, Note_on_c, 0, 57, 89
2, 34665, Note_on_c, 0, 69, 0
2, 34695, Note_on_c, 0, 69, 89
2, 34725, Note_on_c, 0, 57, 0
2, 34740, Note_on_c, 0, 58, 89
2, 34755, Note_on_c, 0, 69, 0
2, 34785, Note_on_c, 0, 69, 89
2, 34815, Note_on_c, 0, 58, 0
2, 34830, Note_on_c, 0, 55, 89
2, 34845, Note_on_c, 0, 69, 0
2, 34875, Note_on_c, 0, 69, 89
2, 34905, Note_on_c, 0, 55, 0
2, 34920, Note_on_c, 0, 57, 89
2, 34935, Note_on_c, 0, 69, 0
2, 34965, Note_on_c, 0, 69, 89
2, 34995, Note_on_c, 0, 57, 0
2, 35010, Note_on_c, 0, 53, 89
2, 35025, Note_on_c, 0, 69, 0
2, 35055, Note_on_c, 0, 69, 89
2, 35085, Note_on_c, 0, 53, 0
2, 35100, Note_on_c, 0, 55, 89
2, 35115, Note_on_c, 0, 69, 0
2, 35145, Note_on_c, 0, 69, 89
2, 35175, Note_on_c, 0, 55, 0
2, 35190, Note_on_c, 0, 52, 89
2, 35205, Note_on_c, 0, 69, 0
2, 35235, Note_on_c, 0, 69, 89
2, 35265, Note_on_c, 0, 52, 0
2, 35280, Note_on_c, 0, 53, 89
2, 35295, Note_on_c, 0, 69, 0
2, 35325, Note_on_c, 0, 69, 89
2, 35355, Note_on_c, 0, 53, 0
2, 35370, Note_on_c, 0, 50, 89
2, 35385, Note_on_c, 0, 69, 0
2, 35415, Note_on_c, 0, 69, 89
2, 35445, Note_on_c, 0, 50, 0
2, 35460, Note_on_c, 0, 55, 89
2, 35475, Note_on_c, 0, 69, 0
2, 35505, Note_on_c, 0, 69, 89
2, 35535, Note_on_c, 0, 55, 0
2, 35550, Note_on_c, 0, 52, 89
2, 35565, Note_on_c, 0, 69, 0
2, 35595, Note_on_c, 0, 69, 89
2, 35625, Note_on_c, 0, 52, 0
2, 35640, Note_on_c, 0, 53, 89
2, 35655, Note_on_c, 0, 69, 0
2, 35685, Note_on_c, 0, 69, 89
2, 35715, Note_on_c, 0, 53, 0
2, 35730, Note_on_c, 0, 50, 89
2, 35745, Note_on_c, 0, 69, 0
2, 35775, Note_on_c, 0, 69, 89
2, 35805, Note_on_c, 0, 50, 0
2, 35820, Note_on_c, 0, 52, 89
2, 35835, Note_on_c, 0, 69, 0
2, 35865, Note_on_c, 0, 69, 89
2, 35895, Note_on_c, 0, 52, 0
2, 35910, Note_on_c, 0, 49, 89
2, 35925, Note_on_c, 0, 69, 0
2, 35985, Note_on_c, 0, 49, 0
2, 36015, Note_on_c, 0, 50, 89
2, 36240, Note_on_c, 0, 50, 0
2, 37215, Note_on_c, 0, 50, 89
2, 37215, Note_on_c, 0, 62, 89
2, 37290, Note_on_c, 0, 62, 0
2, 37305, Note_on_c, 0, 70, 89
2, 37305, Note_on_c, 0, 65, 89
2, 37380, Note_on_c, 0, 50, 0
2, 37380, Note_on_c, 0, 70, 0
2, 37380, Note_on_c, 0, 65, 0
2, 37395, Note_on_c, 0, 48, 89
2, 37395, Note_on_c, 0, 57, 89
2, 37470, Note_on_c, 0, 57, 0
2, 37485, Note_on_c, 0, 69, 89
2, 37485, Note_on_c, 0, 64, 89
2, 37560, Note_on_c, 0, 48, 0
2, 37560, Note_on_c, 0, 69, 0
2, 37560, Note_on_c, 0, 64, 0
2, 37575, Note_on_c, 0, 46, 89
2, 37575, Note_on_c, 0, 58, 89
2, 37650, Note_on_c, 0, 58, 0
2, 37665, Note_on_c, 0, 67, 89
2, 37665, Note_on_c, 0, 62, 89
2, 37740, Note_on_c, 0, 46, 0
2, 37740, Note_on_c, 0, 67, 0
2, 37740, Note_on_c, 0, 62, 0
2, 37755, Note_on_c, 0, 61, 89
2, 37755, Note_on_c, 0, 64, 89
2, 37755, Note_on_c, 0, 69, 89
2, 37755, Note_on_c, 0, 45, 89
2, 37920, Note_on_c, 0, 61, 0
2, 37920, Note_on_c, 0, 64, 0
2, 37920, Note_on_c, 0, 69, 0
2, 37920, Note_on_c, 0, 45, 0
2, 39135, Note_on_c, 0, 50, 89
2, 39135, Note_on_c, 0, 62, 89
2, 39210, Note_on_c, 0, 62, 0
2, 39225, Note_on_c, 0, 70, 89
2, 39225, Note_on_c, 0, 65, 89
2, 39300, Note_on_c, 0, 50, 0
2, 39300, Note_on_c, 0, 70, 0
2, 39300, Note_on_c, 0, 65, 0
2, 39315, Note_on_c, 0, 48, 89
2, 39315, Note_on_c, 0, 57, 89
2, 39390, Note_on_c, 0, 57, 0
2, 39405, Note_on_c, 0, 69, 89
2, 39405, Note_on_c, 0, 64, 89
2, 39480, Note_on_c, 0, 48, 0
2, 39480, Note_on_c, 0, 69, 0
2, 39480, Note_on_c, 0, 64, 0
2, 39495, Note_on_c, 0, 46, 89
2, 39495, Note_on_c, 0, 58, 89
2, 39570, Note_on_c, 0, 58, 0
2, 39585, Note_on_c, 0, 67, 89
2, 39585, Note_on_c, 0, 62, 89
2, 39660, Note_on_c, 0, 46, 0
2, 39660, Note_on_c, 0, 67, 0
2, 39660, Note_on_c, 0, 62, 0
2, 39675, Note_on_c, 0, 52, 89
2, 39675, Note_on_c, 0, 61, 89
2, 39675, Note_on_c, 0, 64, 89
2, 39675, Note_on_c, 0, 69, 89
2, 39675, Note_on_c, 0, 45, 89
2, 40065, Note_on_c, 0, 52, 0
2, 40065, Note_on_c, 0, 61, 0
2, 40065, Note_on_c, 0, 64, 0
2, 40065, Note_on_c, 0, 45, 0
2, 40110, Note_on_c, 0, 69, 0
2, 40125, Note_on_c, 0, 67, 89
2, 40155, Note_on_c, 0, 67, 0
2, 40170, Note_on_c, 0, 65, 89
2, 40200, Note_on_c, 0, 65, 0
2, 40215, Note_on_c, 0, 64, 89
2, 40245, Note_on_c, 0, 64, 0
2, 40260, Note_on_c, 0, 62, 89
2, 40290, Note_on_c, 0, 62, 0
2, 40305, Note_on_c, 0, 61, 89
2, 40335, Note_on_c, 0, 61, 0
2, 40350, Note_on_c, 0, 59, 89
2, 40380, Note_on_c, 0, 59, 0
2, 40395, Note_on_c, 0, 61, 89
2, 40425, Note_on_c, 0, 61, 0
2, 40440, Note_on_c, 0, 57, 89
2, 40470, Note_on_c, 0, 57, 0
2, 40485, Note_on_c, 0, 59, 89
2, 40515, Note_on_c, 0, 59, 0
2, 40530, Note_on_c, 0, 61, 89
2, 40560, Note_on_c, 0, 61, 0
2, 40575, Note_on_c, 0, 62, 89
2, 40605, Note_on_c, 0, 62, 0
2, 40620, Note_on_c, 0, 64, 89
2, 40650, Note_on_c, 0, 64, 0
2, 40665, Note_on_c, 0, 65, 89
2, 40695, Note_on_c, 0, 65, 0
2, 40710, Note_on_c, 0, 67, 89
2, 40740, Note_on_c, 0, 67, 0
2, 40755, Note_on_c, 0, 69, 89
2, 40785, Note_on_c, 0, 69, 0
2, 40800, Note_on_c, 0, 67, 89
2, 40830, Note_on_c, 0, 67, 0
2, 40845, Note_on_c, 0, 65, 89
2, 40875, Note_on_c, 0, 65, 0
2, 40890, Note_on_c, 0, 64, 89
2, 40920, Note_on_c, 0, 64, 0
2, 40935, Note_on_c, 0, 65, 89
2, 40965, Note_on_c, 0, 65, 0
2, 40980, Note_on_c, 0, 62, 89
2, 41010, Note_on_c, 0, 62, 0
2, 41025, Note_on_c, 0, 65, 89
2, 41055, Note_on_c, 0, 65, 0
2, 41070, Note_on_c, 0, 69, 89
2, 41100, Note_on_c, 0, 69, 0
2, 41115, Note_on_c, 0, 73, 89
2, 41145, Note_on_c, 0, 73, 0
2, 41160, Note_on_c, 0, 74, 89
2, 41190, Note_on_c, 0, 74, 0
2, 41205, Note_on_c, 0, 69, 89
2, 41235, Note_on_c, 0, 69, 0
2, 41250, Note_on_c, 0, 71, 89
2, 41280, Note_on_c, 0, 71, 0
2, 41280, Note_on_c, 0, 73, 89
2, 41310, Note_on_c, 0, 73, 0
2, 41325, Note_on_c, 0, 74, 89
2, 41355, Note_on_c, 0, 74, 0
2, 41370, Note_on_c, 0, 76, 89
2, 41400, Note_on_c, 0, 76, 0
2, 41415, Note_on_c, 0, 77, 89
2, 41445, Note_on_c, 0, 77, 0
2, 41460, Note_on_c, 0, 79, 89
2, 41490, Note_on_c, 0, 79, 0
2, 41505, Note_on_c, 0, 81, 89
2, 41535, Note_on_c, 0, 81, 0
2, 41550, Note_on_c, 0, 82, 89
2, 41745, Note_on_c, 0, 82, 0
2, 41760, Note_on_c, 0, 50, 89
2, 41760, Note_on_c, 0, 74, 89
2, 41835, Note_on_c, 0, 74, 0
2, 41850, Note_on_c, 0, 82, 89
2, 41850, Note_on_c, 0, 77, 89
2, 41925, Note_on_c, 0, 50, 0
2, 41925, Note_on_c, 0, 82, 0
2, 41925, Note_on_c, 0, 77, 0
2, 41940, Note_on_c, 0, 48, 89
2, 41940, Note_on_c, 0, 69, 89
2, 42015, Note_on_c, 0, 69, 0
2, 42030, Note_on_c, 0, 81, 89
2, 42030, Note_on_c, 0, 76, 89
2, 42105, Note_on_c, 0, 48, 0
2, 42105, Note_on_c, 0, 81, 0
2, 42105, Note_on_c, 0, 76, 0
2, 42120, Note_on_c, 0, 46, 89
2, 42120, Note_on_c, 0, 70, 89
2, 42195, Note_on_c, 0, 70, 0
2, 42210, Note_on_c, 0, 79, 89
2, 42210, Note_on_c, 0, 74, 89
2, 42285, Note_on_c, 0, 46, 0
2, 42285, Note_on_c, 0, 79, 0
2, 42285, Note_on_c, 0, 74, 0
2, 42300, Note_on_c, 0, 45, 89
2, 42300, Note_on_c, 0, 64, 89
2, 42300, Note_on_c, 0, 73, 89
2, 42300, Note_on_c, 0, 76, 89
2, 42300, Note_on_c, 0, 81, 89
2, 42300, Note_on_c, 0, 57, 89
2, 42705, Note_on_c, 0, 45, 0
2, 42705, Note_on_c, 0, 64, 0
2, 42705, Note_on_c, 0, 73, 0
2, 42705, Note_on_c, 0, 76, 0
2, 42705, Note_on_c, 0, 81, 0
2, 42705, Note_on_c, 0, 57, 0
2, 43485, Note_on_c, 0, 74, 89
2, 43485, Note_on_c, 0, 50, 89
2, 43590, Note_on_c, 0, 74, 0
2, 43605, Note_on_c, 0, 77, 89
2, 43605, Note_on_c, 0, 82, 89
2, 43710, Note_on_c, 0, 50, 0
2, 43710, Note_on_c, 0, 77, 0
2, 43710, Note_on_c, 0, 82, 0
2, 43725, Note_on_c, 0, 69, 89
2, 43725, Note_on_c, 0, 48, 89
2, 43830, Note_on_c, 0, 69, 0
2, 43845, Note_on_c, 0, 76, 89
2, 43845, Note_on_c, 0, 81, 89
2, 43950, Note_on_c, 0, 48, 0
2, 43950, Note_on_c, 0, 76, 0
2, 43950, Note_on_c, 0, 81, 0
2, 43965, Note_on_c, 0, 46, 89
2, 43965, Note_on_c, 0, 70, 89
2, 44070, Note_on_c, 0, 70, 0
2, 44085, Note_on_c, 0, 74, 89
2, 44085, Note_on_c, 0, 79, 89
2, 44190, Note_on_c, 0, 46, 0
2, 44190, Note_on_c, 0, 74, 0
2, 44190, Note_on_c, 0, 79, 0
2, 44205, Note_on_c, 0, 81, 89
2, 44205, Note_on_c, 0, 76, 89
2, 44205, Note_on_c, 0, 73, 89
2, 44205, Note_on_c, 0, 69, 89
2, 44205, Note_on_c, 0, 64, 89
2, 44205, Note_on_c, 0, 45, 89
2, 44430, Note_on_c, 0, 81, 0
2, 44430, Note_on_c, 0, 76, 0
2, 44430, Note_on_c, 0, 73, 0
2, 44430, Note_on_c, 0, 69, 0
2, 44430, Note_on_c, 0, 64, 0
2, 44430, Note_on_c, 0, 45, 0
2, 44445, Note_on_c, 0, 74, 89
2, 44445, Note_on_c, 0, 65, 89
2, 44445, Note_on_c, 0, 71, 89
2, 44445, Note_on_c, 0, 59, 89
2, 44445, Note_on_c, 0, 44, 89
2, 44670, Note_on_c, 0, 74, 0
2, 44670, Note_on_c, 0, 65, 0
2, 44670, Note_on_c, 0, 71, 0
2, 44670, Note_on_c, 0, 59, 0
2, 44670, Note_on_c, 0, 44, 0
2, 44685, Note_on_c, 0, 43, 89
2, 44685, Note_on_c, 0, 57, 89
2, 44685, Note_on_c, 0, 64, 89
2, 44685, Note_on_c, 0, 69, 89
2, 44685, Note_on_c, 0, 73, 89
2, 45135, Note_on_c, 0, 43, 0
2, 45135, Note_on_c, 0, 57, 0
2, 45135, Note_on_c, 0, 64, 0
2, 45135, Note_on_c, 0, 69, 0
2, 45135, Note_on_c, 0, 73, 0
2, 45150, Note_on_c, 0, 71, 89
2, 45195, Note_on_c, 0, 71, 0
2, 45210, Note_on_c, 0, 69, 89
2, 45255, Note_on_c, 0, 69, 0
2, 45270, Note_on_c, 0, 73, 89
2, 45315, Note_on_c, 0, 73, 0
2, 45330, Note_on_c, 0, 76, 89
2, 45360, Note_on_c, 0, 76, 0
2, 45375, Note_on_c, 0, 79, 89
2, 45405, Note_on_c, 0, 79, 0
2, 45420, Note_on_c, 0, 82, 89
2, 45495, Note_on_c, 0, 82, 0
2, 45510, Note_on_c, 0, 81, 89
2, 45540, Note_on_c, 0, 81, 0
2, 45555, Note_on_c, 0, 79, 89
2, 45585, Note_on_c, 0, 79, 0
2, 45600, Note_on_c, 0, 77, 89
2, 45630, Note_on_c, 0, 77, 0
2, 45645, Note_on_c, 0, 76, 89
2, 45675, Note_on_c, 0, 76, 0
2, 45690, Note_on_c, 0, 77, 89
2, 45720, Note_on_c, 0, 77, 0
2, 45735, Note_on_c, 0, 76, 89
2, 45765, Note_on_c, 0, 76, 0
2, 45780, Note_on_c, 0, 74, 89
2, 45810, Note_on_c, 0, 74, 0
2, 45825, Note_on_c, 0, 73, 89
2, 45855, Note_on_c, 0, 73, 0
2, 45870, Note_on_c, 0, 74, 89
2, 45900, Note_on_c, 0, 74, 0
2, 45915, Note_on_c, 0, 72, 89
2, 45945, Note_on_c, 0, 72, 0
2, 45960, Note_on_c, 0, 70, 89
2, 45990, Note_on_c, 0, 70, 0
2, 46005, Note_on_c, 0, 69, 89
2, 46035, Note_on_c, 0, 69, 0
2, 46050, Note_on_c, 0, 67, 89
2, 46080, Note_on_c, 0, 67, 0
2, 46080, Note_on_c, 0, 65, 89
2, 46110, Note_on_c, 0, 65, 0
2, 46125, Note_on_c, 0, 64, 89
2, 46155, Note_on_c, 0, 64, 0
2, 46170, Note_on_c, 0, 62, 89
2, 46200, Note_on_c, 0, 62, 0
2, 46215, Note_on_c, 0, 64, 89
2, 46215, Note_on_c, 0, 73, 89
2, 46215, Note_on_c, 0, 55, 89
2, 46215, Note_on_c, 0, 76, 89
2, 46215, Note_on_c, 0, 70, 89
2, 46215, Note_on_c, 0, 67, 89
2, 46215, Note_on_c, 0, 61, 89
2, 47025, Note_on_c, 0, 55, 0
2, 47025, Note_on_c, 0, 76, 0
2, 47025, Note_on_c, 0, 70, 0
2, 47025, Note_on_c, 0, 67, 0
2, 47025, Note_on_c, 0, 61, 0
2, 47115, Note_on_c, 0, 64, 0
2, 47115, Note_on_c, 0, 73, 0
2, 47130, Note_on_c, 0, 67, 89
2, 47130, Note_on_c, 0, 76, 89
2, 47205, Note_on_c, 0, 67, 0
2, 47205, Note_on_c, 0, 76, 0
2, 47220, Note_on_c, 0, 64, 89
2, 47220, Note_on_c, 0, 73, 89
2, 47295, Note_on_c, 0, 64, 0
2, 47295, Note_on_c, 0, 73, 0
2, 47310, Note_on_c, 0, 61, 89
2, 47310, Note_on_c, 0, 70, 89
2, 47385, Note_on_c, 0, 61, 0
2, 47385, Note_on_c, 0, 70, 0
2, 47400, Note_on_c, 0, 64, 89
2, 47400, Note_on_c, 0, 73, 89
2, 47475, Note_on_c, 0, 64, 0
2, 47475, Note_on_c, 0, 73, 0
2, 47490, Note_on_c, 0, 61, 89
2, 47490, Note_on_c, 0, 70, 89
2, 47565, Note_on_c, 0, 61, 0
2, 47565, Note_on_c, 0, 70, 0
2, 47580, Note_on_c, 0, 64, 89
2, 47580, Note_on_c, 0, 73, 89
2, 47655, Note_on_c, 0, 64, 0
2, 47655, Note_on_c, 0, 73, 0
2, 47670, Note_on_c, 0, 67, 89
2, 47670, Note_on_c, 0, 76, 89
2, 47745, Note_on_c, 0, 67, 0
2, 47745, Note_on_c, 0, 76, 0
2, 47760, Note_on_c, 0, 64, 89
2, 47760, Note_on_c, 0, 73, 89
2, 47835, Note_on_c, 0, 64, 0
2, 47835, Note_on_c, 0, 73, 0
2, 47850, Note_on_c, 0, 61, 89
2, 47850, Note_on_c, 0, 70, 89
2, 47925, Note_on_c, 0, 61, 0
2, 47925, Note_on_c, 0, 70, 0
2, 47940, Note_on_c, 0, 73, 89
2, 47940, Note_on_c, 0, 64, 89
2, 48015, Note_on_c, 0, 73, 0
2, 48015, Note_on_c, 0, 64, 0
2, 48030, Note_on_c, 0, 61, 89
2, 48030, Note_on_c, 0, 70, 89
2, 48105, Note_on_c, 0, 61, 0
2, 48105, Note_on_c, 0, 70, 0
2, 48120, Note_on_c, 0, 64, 89
2, 48120, Note_on_c, 0, 73, 89
2, 48195, Note_on_c, 0, 64, 0
2, 48195, Note_on_c, 0, 73, 0
2, 48210, Note_on_c, 0, 67, 89
2, 48210, Note_on_c, 0, 76, 89
2, 48285, Note_on_c, 0, 67, 0
2, 48285, Note_on_c, 0, 76, 0
2, 48300, Note_on_c, 0, 64, 89
2, 48300, Note_on_c, 0, 73, 89
2, 48375, Note_on_c, 0, 64, 0
2, 48375, Note_on_c, 0, 73, 0
2, 48390, Note_on_c, 0, 61, 89
2, 48390, Note_on_c, 0, 70, 89
2, 48465, Note_on_c, 0, 61, 0
2, 48465, Note_on_c, 0, 70, 0
2, 48480, Note_on_c, 0, 64, 89
2, 48480, Note_on_c, 0, 73, 89
2, 48555, Note_on_c, 0, 64, 0
2, 48555, Note_on_c, 0, 73, 0
2, 48570, Note_on_c, 0, 61, 89
2, 48570, Note_on_c, 0, 70, 89
2, 48645, Note_on_c, 0, 61, 0
2, 48645, Note_on_c, 0, 70, 0
2, 48660, Note_on_c, 0, 64, 89
2, 48660, Note_on_c, 0, 73, 89
2, 48735, Note_on_c, 0, 64, 0
2, 48735, Note_on_c, 0, 73, 0
2, 48750, Note_on_c, 0, 67, 89
2, 48750, Note_on_c, 0, 76, 89
2, 48825, Note_on_c, 0, 67, 0
2, 48825, Note_on_c, 0, 76, 0
2, 48840, Note_on_c, 0, 64, 89
2, 48840, Note_on_c, 0, 73, 89
2, 48915, Note_on_c, 0, 64, 0
2, 48915, Note_on_c, 0, 73, 0
2, 48930, Note_on_c, 0, 70, 89
2, 48930, Note_on_c, 0, 61, 89
2, 49005, Note_on_c, 0, 70, 0
2, 49005, Note_on_c, 0, 61, 0
2, 49020, Note_on_c, 0, 64, 89
2, 49020, Note_on_c, 0, 73, 89
2, 49095, Note_on_c, 0, 64, 0
2, 49095, Note_on_c, 0, 73, 0
2, 49110, Note_on_c, 0, 61, 89
2, 49110, Note_on_c, 0, 70, 89
2, 49185, Note_on_c, 0, 61, 0
2, 49185, Note_on_c, 0, 70, 0
2, 49200, Note_on_c, 0, 58, 89
2, 49200, Note_on_c, 0, 67, 89
2, 49275, Note_on_c, 0, 58, 0
2, 49275, Note_on_c, 0, 67, 0
2, 49290, Note_on_c, 0, 61, 89
2, 49290, Note_on_c, 0, 70, 89
2, 49365, Note_on_c, 0, 61, 0
2, 49365, Note_on_c, 0, 70, 0
2, 49380, Note_on_c, 0, 58, 89
2, 49380, Note_on_c, 0, 67, 89
2, 49455, Note_on_c, 0, 58, 0
2, 49455, Note_on_c, 0, 67, 0
2, 49470, Note_on_c, 0, 55, 89
2, 49470, Note_on_c, 0, 64, 89
2, 49545, Note_on_c, 0, 55, 0
2, 49545, Note_on_c, 0, 64, 0
2, 49560, Note_on_c, 0, 58, 89
2, 49560, Note_on_c, 0, 67, 89
2, 49635, Note_on_c, 0, 58, 0
2, 49635, Note_on_c, 0, 67, 0
2, 49650, Note_on_c, 0, 55, 89
2, 49650, Note_on_c, 0, 64, 89
2, 49725, Note_on_c, 0, 55, 0
2, 49725, Note_on_c, 0, 64, 0
2, 49740, Note_on_c, 0, 58, 89
2, 49740, Note_on_c, 0, 67, 89
2, 49815, Note_on_c, 0, 58, 0
2, 49815, Note_on_c, 0, 67, 0
2, 49830, Note_on_c, 0, 61, 89
2, 49830, Note_on_c, 0, 70, 89
2, 49905, Note_on_c, 0, 61, 0
2, 49905, Note_on_c, 0, 70, 0
2, 49920, Note_on_c, 0, 58, 89
2, 49920, Note_on_c, 0, 67, 89
2, 49995, Note_on_c, 0, 58, 0
2, 49995, Note_on_c, 0, 67, 0
2, 50010, Note_on_c, 0, 55, 89
2, 50010, Note_on_c, 0, 64, 89
2, 50085, Note_on_c, 0, 55, 0
2, 50085, Note_on_c, 0, 64, 0
2, 50100, Note_on_c, 0, 58, 89
2, 50100, Note_on_c, 0, 67, 89
2, 50175, Note_on_c, 0, 58, 0
2, 50175, Note_on_c, 0, 67, 0
2, 50190, Note_on_c, 0, 55, 89
2, 50190, Note_on_c, 0, 64, 89
2, 50265, Note_on_c, 0, 55, 0
2, 50265, Note_on_c, 0, 64, 0
2, 50280, Note_on_c, 0, 58, 89
2, 50280, Note_on_c, 0, 67, 89
2, 50355, Note_on_c, 0, 58, 0
2, 50355, Note_on_c, 0, 67, 0
2, 50370, Note_on_c, 0, 61, 89
2, 50370, Note_on_c, 0, 70, 89
2, 50445, Note_on_c, 0, 61, 0
2, 50445, Note_on_c, 0, 70, 0
2, 50460, Note_on_c, 0, 58, 89
2, 50460, Note_on_c, 0, 67, 89
2, 50535, Note_on_c, 0, 58, 0
2, 50535, Note_on_c, 0, 67, 0
2, 50550, Note_on_c, 0, 55, 89
2, 50550, Note_on_c, 0, 64, 89
2, 50625, Note_on_c, 0, 55, 0
2, 50625, Note_on_c, 0, 64, 0
2, 50640, Note_on_c, 0, 58, 89
2, 50640, Note_on_c, 0, 67, 89
2, 50715, Note_on_c, 0, 58, 0
2, 50715, Note_on_c, 0, 67, 0
2, 50730, Note_on_c, 0, 55, 89
2, 50730, Note_on_c, 0, 64, 89
2, 50805, Note_on_c, 0, 55, 0
2, 50805, Note_on_c, 0, 64, 0
2, 50820, Note_on_c, 0, 67, 89
2, 50820, Note_on_c, 0, 58, 89
2, 50895, Note_on_c, 0, 67, 0
2, 50895, Note_on_c, 0, 58, 0
2, 50910, Note_on_c, 0, 61, 89
2, 50910, Note_on_c, 0, 70, 89
2, 50985, Note_on_c, 0, 61, 0
2, 50985, Note_on_c, 0, 70, 0
2, 51000, Note_on_c, 0, 58, 89
2, 51000, Note_on_c, 0, 67, 89
2, 51075, Note_on_c, 0, 58, 0
2, 51075, Note_on_c, 0, 67, 0
2, 51090, Note_on_c, 0, 55, 89
2, 51090, Note_on_c, 0, 64, 89
2, 51165, Note_on_c, 0, 55, 0
2, 51165, Note_on_c, 0, 64, 0
2, 51180, Note_on_c, 0, 58, 89
2, 51180, Note_on_c, 0, 67, 89
2, 51255, Note_on_c, 0, 58, 0
2, 51255, Note_on_c, 0, 67, 0
2, 51270, Note_on_c, 0, 55, 89
2, 51270, Note_on_c, 0, 64, 89
2, 51345, Note_on_c, 0, 55, 0
2, 51345, Note_on_c, 0, 64, 0
2, 51360, Note_on_c, 0, 52, 89
2, 51360, Note_on_c, 0, 61, 89
2, 51435, Note_on_c, 0, 52, 0
2, 51435, Note_on_c, 0, 61, 0
2, 51450, Note_on_c, 0, 55, 89
2, 51450, Note_on_c, 0, 64, 89
2, 51525, Note_on_c, 0, 55, 0
2, 51525, Note_on_c, 0, 64, 0
2, 51540, Note_on_c, 0, 52, 89
2, 51540, Note_on_c, 0, 61, 89
2, 51615, Note_on_c, 0, 52, 0
2, 51615, Note_on_c, 0, 61, 0
2, 51630, Note_on_c, 0, 49, 89
2, 51630, Note_on_c, 0, 58, 89
2, 51705, Note_on_c, 0, 49, 0
2, 51705, Note_on_c, 0, 58, 0
2, 51720, Note_on_c, 0, 52, 89
2, 51720, Note_on_c, 0, 61, 89
2, 51795, Note_on_c, 0, 52, 0
2, 51795, Note_on_c, 0, 61, 0
2, 51810, Note_on_c, 0, 58, 89
2, 51810, Note_on_c, 0, 49, 89
2, 51885, Note_on_c, 0, 58, 0
2, 51885, Note_on_c, 0, 49, 0
2, 51900, Note_on_c, 0, 52, 89
2, 51900, Note_on_c, 0, 61, 89
2, 51975, Note_on_c, 0, 52, 0
2, 51975, Note_on_c, 0, 61, 0
2, 51990, Note_on_c, 0, 55, 89
2, 51990, Note_on_c, 0, 64, 89
2, 52065, Note_on_c, 0, 55, 0
2, 52065, Note_on_c, 0, 64, 0
2, 52080, Note_on_c, 0, 52, 89
2, 52080, Note_on_c, 0, 61, 89
2, 52155, Note_on_c, 0, 52, 0
2, 52155, Note_on_c, 0, 61, 0
2, 52170, Note_on_c, 0, 49, 89
2, 52170, Note_on_c, 0, 58, 89
2, 52245, Note_on_c, 0, 49, 0
2, 52245, Note_on_c, 0, 58, 0
2, 52260, Note_on_c, 0, 52, 89
2, 52260, Note_on_c, 0, 61, 89
2, 52335, Note_on_c, 0, 52, 0
2, 52335, Note_on_c, 0, 61, 0
2, 52350, Note_on_c, 0, 49, 89
2, 52350, Note_on_c, 0, 58, 89
2, 52425, Note_on_c, 0, 49, 0
2, 52425, Note_on_c, 0, 58, 0
2, 52440, Note_on_c, 0, 52, 89
2, 52440, Note_on_c, 0, 61, 89
2, 52515, Note_on_c, 0, 52, 0
2, 52515, Note_on_c, 0, 61, 0
2, 52530, Note_on_c, 0, 55, 89
2, 52530, Note_on_c, 0, 64, 89
2, 52605, Note_on_c, 0, 55, 0
2, 52605, Note_on_c, 0, 64, 0
2, 52620, Note_on_c, 0, 52, 89
2, 52620, Note_on_c, 0, 61, 89
2, 52695, Note_on_c, 0, 52, 0
2, 52695, Note_on_c, 0, 61, 0
2, 52710, Note_on_c, 0, 49, 89
2, 52710, Note_on_c, 0, 58, 89
2, 52785, Note_on_c, 0, 49, 0
2, 52785, Note_on_c, 0, 58, 0
2, 52800, Note_on_c, 0, 52, 89
2, 52800, Note_on_c, 0, 61, 89
2, 52875, Note_on_c, 0, 52, 0
2, 52875, Note_on_c, 0, 61, 0
2, 52890, Note_on_c, 0, 49, 89
2, 52890, Note_on_c, 0, 58, 89
2, 52965, Note_on_c, 0, 49, 0
2, 52965, Note_on_c, 0, 58, 0
2, 52980, Note_on_c, 0, 52, 89
2, 52980, Note_on_c, 0, 61, 89
2, 53055, Note_on_c, 0, 52, 0
2, 53055, Note_on_c, 0, 61, 0
2, 53070, Note_on_c, 0, 55, 89
2, 53070, Note_on_c, 0, 64, 89
2, 53145, Note_on_c, 0, 55, 0
2, 53145, Note_on_c, 0, 64, 0
2, 53160, Note_on_c, 0, 52, 89
2, 53160, Note_on_c, 0, 61, 89
2, 53235, Note_on_c, 0, 52, 0
2, 53235, Note_on_c, 0, 61, 0
2, 53250, Note_on_c, 0, 49, 89
2, 53250, Note_on_c, 0, 58, 89
2, 53325, Note_on_c, 0, 49, 0
2, 53325, Note_on_c, 0, 58, 0
2, 53340, Note_on_c, 0, 52, 89
2, 53340, Note_on_c, 0, 61, 89
2, 53415, Note_on_c, 0, 52, 0
2, 53415, Note_on_c, 0, 61, 0
2, 53430, Note_on_c, 0, 49, 89
2, 53430, Note_on_c, 0, 58, 89
2, 53505, Note_on_c, 0, 49, 0
2, 53505, Note_on_c, 0, 58, 0
2, 53520, Note_on_c, 0, 52, 89
2, 53520, Note_on_c, 0, 61, 89
2, 53595, Note_on_c, 0, 52, 0
2, 53595, Note_on_c, 0, 61, 0
2, 53610, Note_on_c, 0, 55, 89
2, 53610, Note_on_c, 0, 64, 89
2, 53685, Note_on_c, 0, 55, 0
2, 53685, Note_on_c, 0, 64, 0
2, 53700, Note_on_c, 0, 61, 89
2, 53700, Note_on_c, 0, 52, 89
2, 53775, Note_on_c, 0, 61, 0
2, 53775, Note_on_c, 0, 52, 0
2, 53790, Note_on_c, 0, 55, 89
2, 53790, Note_on_c, 0, 64, 89
2, 53865, Note_on_c, 0, 55, 0
2, 53865, Note_on_c, 0, 64, 0
2, 53880, Note_on_c, 0, 67, 89
2, 53955, Note_on_c, 0, 67, 0
2, 53970, Note_on_c, 0, 55, 89
2, 53970, Note_on_c, 0, 64, 89
2, 54045, Note_on_c, 0, 55, 0
2, 54045, Note_on_c, 0, 64, 0
2, 54060, Note_on_c, 0, 52, 89
2, 54060, Note_on_c, 0, 61, 89
2, 54135, Note_on_c, 0, 52, 0
2, 54135, Note_on_c, 0, 61, 0
2, 54150, Note_on_c, 0, 55, 89
2, 54150, Note_on_c, 0, 64, 89
2, 54225, Note_on_c, 0, 55, 0
2, 54225, Note_on_c, 0, 64, 0
2, 54240, Note_on_c, 0, 52, 89
2, 54240, Note_on_c, 0, 61, 89
2, 54315, Note_on_c, 0, 52, 0
2, 54315, Note_on_c, 0, 61, 0
2, 54330, Note_on_c, 0, 55, 89
2, 54330, Note_on_c, 0, 64, 89
2, 54405, Note_on_c, 0, 55, 0
2, 54405, Note_on_c, 0, 64, 0
2, 54420, Note_on_c, 0, 58, 89
2, 54420, Note_on_c, 0, 67, 89
2, 54495, Note_on_c, 0, 58, 0
2, 54495, Note_on_c, 0, 67, 0
2, 54510, Note_on_c, 0, 55, 89
2, 54510, Note_on_c, 0, 64, 89
2, 54585, Note_on_c, 0, 55, 0
2, 54585, Note_on_c, 0, 64, 0
2, 54600, Note_on_c, 0, 52, 89
2, 54600, Note_on_c, 0, 61, 89
2, 54675, Note_on_c, 0, 52, 0
2, 54675, Note_on_c, 0, 61, 0
2, 54690, Note_on_c, 0, 64, 89
2, 54690, Note_on_c, 0, 55, 89
2, 54765, Note_on_c, 0, 64, 0
2, 54765, Note_on_c, 0, 55, 0
2, 54780, Note_on_c, 0, 52, 89
2, 54780, Note_on_c, 0, 61, 89
2, 54855, Note_on_c, 0, 52, 0
2, 54855, Note_on_c, 0, 61, 0
2, 54870, Note_on_c, 0, 55, 89
2, 54870, Note_on_c, 0, 64, 89
2, 54945, Note_on_c, 0, 55, 0
2, 54945, Note_on_c, 0, 64, 0
2, 54960, Note_on_c, 0, 58, 89
2, 54960, Note_on_c, 0, 67, 89
2, 55035, Note_on_c, 0, 58, 0
2, 55035, Note_on_c, 0, 67, 0
2, 55050, Note_on_c, 0, 55, 89
2, 55050, Note_on_c, 0, 64, 89
2, 55125, Note_on_c, 0, 55, 0
2, 55125, Note_on_c, 0, 64, 0
2, 55140, Note_on_c, 0, 52, 89
2, 55140, Note_on_c, 0, 61, 89
2, 55215, Note_on_c, 0, 52, 0
2, 55215, Note_on_c, 0, 61, 0
2, 55230, Note_on_c, 0, 55, 89
2, 55230, Note_on_c, 0, 64, 89
2, 55305, Note_on_c, 0, 55, 0
2, 55305, Note_on_c, 0, 64, 0
2, 55320, Note_on_c, 0, 52, 89
2, 55320, Note_on_c, 0, 61, 89
2, 55395, Note_on_c, 0, 52, 0
2, 55395, Note_on_c, 0, 61, 0
2, 55410, Note_on_c, 0, 55, 89
2, 55410, Note_on_c, 0, 64, 89
2, 55485, Note_on_c, 0, 55, 0
2, 55485, Note_on_c, 0, 64, 0
2, 55500, Note_on_c, 0, 58, 89
2, 55500, Note_on_c, 0, 67, 89
2, 55575, Note_on_c, 0, 58, 0
2, 55575, Note_on_c, 0, 67, 0
2, 55590, Note_on_c, 0, 55, 89
2, 55590, Note_on_c, 0, 64, 89
2, 55665, Note_on_c, 0, 55, 0
2, 55665, Note_on_c, 0, 64, 0
2, 55680, Note_on_c, 0, 58, 89
2, 55680, Note_on_c, 0, 67, 89
2, 55755, Note_on_c, 0, 58, 0
2, 55755, Note_on_c, 0, 67, 0
2, 55770, Note_on_c, 0, 61, 89
2, 55770, Note_on_c, 0, 70, 89
2, 55845, Note_on_c, 0, 61, 0
2, 55845, Note_on_c, 0, 70, 0
2, 55860, Note_on_c, 0, 58, 89
2, 55860, Note_on_c, 0, 67, 89
2, 55935, Note_on_c, 0, 58, 0
2, 55935, Note_on_c, 0, 67, 0
2, 55950, Note_on_c, 0, 61, 89
2, 55950, Note_on_c, 0, 70, 89
2, 56025, Note_on_c, 0, 61, 0
2, 56025, Note_on_c, 0, 70, 0
2, 56040, Note_on_c, 0, 58, 89
2, 56040, Note_on_c, 0, 67, 89
2, 56115, Note_on_c, 0, 58, 0
2, 56115, Note_on_c, 0, 67, 0
2, 56130, Note_on_c, 0, 61, 89
2, 56130, Note_on_c, 0, 70, 89
2, 56205, Note_on_c, 0, 61, 0
2, 56205, Note_on_c, 0, 70, 0
2, 56220, Note_on_c, 0, 58, 89
2, 56220, Note_on_c, 0, 67, 89
2, 56295, Note_on_c, 0, 58, 0
2, 56295, Note_on_c, 0, 67, 0
2, 56310, Note_on_c, 0, 61, 89
2, 56310, Note_on_c, 0, 70, 89
2, 56385, Note_on_c, 0, 61, 0
2, 56385, Note_on_c, 0, 70, 0
2, 56400, Note_on_c, 0, 58, 89
2, 56400, Note_on_c, 0, 67, 89
2, 56475, Note_on_c, 0, 58, 0
2, 56475, Note_on_c, 0, 67, 0
2, 56490, Note_on_c, 0, 61, 89
2, 56490, Note_on_c, 0, 70, 89
2, 56565, Note_on_c, 0, 61, 0
2, 56565, Note_on_c, 0, 70, 0
2, 56580, Note_on_c, 0, 67, 89
2, 56580, Note_on_c, 0, 58, 89
2, 56655, Note_on_c, 0, 67, 0
2, 56655, Note_on_c, 0, 58, 0
2, 56670, Note_on_c, 0, 61, 89
2, 56670, Note_on_c, 0, 70, 89
2, 56745, Note_on_c, 0, 61, 0
2, 56745, Note_on_c, 0, 70, 0
2, 56760, Note_on_c, 0, 64, 89
2, 56760, Note_on_c, 0, 73, 89
2, 56835, Note_on_c, 0, 64, 0
2, 56835, Note_on_c, 0, 73, 0
2, 56850, Note_on_c, 0, 61, 89
2, 56850, Note_on_c, 0, 70, 89
2, 56925, Note_on_c, 0, 61, 0
2, 56925, Note_on_c, 0, 70, 0
2, 56940, Note_on_c, 0, 64, 89
2, 56940, Note_on_c, 0, 73, 89
2, 57015, Note_on_c, 0, 64, 0
2, 57015, Note_on_c, 0, 73, 0
2, 57030, Note_on_c, 0, 67, 89
2, 57030, Note_on_c, 0, 76, 89
2, 57105, Note_on_c, 0, 67, 0
2, 57105, Note_on_c, 0, 76, 0
2, 57120, Note_on_c, 0, 64, 89
2, 57120, Note_on_c, 0, 73, 89
2, 57195, Note_on_c, 0, 64, 0
2, 57195, Note_on_c, 0, 73, 0
2, 57210, Note_on_c, 0, 67, 89
2, 57210, Note_on_c, 0, 76, 89
2, 57285, Note_on_c, 0, 67, 0
2, 57285, Note_on_c, 0, 76, 0
2, 57300, Note_on_c, 0, 64, 89
2, 57300, Note_on_c, 0, 73, 89
2, 57375, Note_on_c, 0, 64, 0
2, 57375, Note_on_c, 0, 73, 0
2, 57390, Note_on_c, 0, 67, 89
2, 57390, Note_on_c, 0, 76, 89
2, 57465, Note_on_c, 0, 67, 0
2, 57465, Note_on_c, 0, 76, 0
2, 57480, Note_on_c, 0, 64, 89
2, 57480, Note_on_c, 0, 73, 89
2, 57555, Note_on_c, 0, 64, 0
2, 57555, Note_on_c, 0, 73, 0
2, 57570, Note_on_c, 0, 76, 89
2, 57570, Note_on_c, 0, 67, 89
2, 57645, Note_on_c, 0, 76, 0
2, 57645, Note_on_c, 0, 67, 0
2, 57660, Note_on_c, 0, 64, 89
2, 57660, Note_on_c, 0, 73, 89
2, 57735, Note_on_c, 0, 64, 0
2, 57735, Note_on_c, 0, 73, 0
2, 57750, Note_on_c, 0, 67, 89
2, 57750, Note_on_c, 0, 76, 89
2, 57810, Note_on_c, 0, 76, 0
2, 57825, Note_on_c, 0, 67, 0
2, 57840, Note_on_c, 0, 55, 89
2, 57840, Note_on_c, 0, 57, 89
2, 57840, Note_on_c, 0, 61, 89
2, 57840, Note_on_c, 0, 64, 89
2, 57840, Note_on_c, 0, 69, 89
2, 57840, Note_on_c, 0, 73, 89
2, 57840, Note_on_c, 0, 76, 89
2, 57840, Note_on_c, 0, 81, 89
2, 58545, Note_on_c, 0, 55, 0
2, 58545, Note_on_c, 0, 57, 0
2, 58545, Note_on_c, 0, 61, 0
2, 58545, Note_on_c, 0, 64, 0
2, 58545, Note_on_c, 0, 69, 0
2, 58545, Note_on_c, 0, 73, 0
2, 58545, Note_on_c, 0, 76, 0
2, 58545, Note_on_c, 0, 81, 0
2, 58560, Note_on_c, 0, 74, 89
2, 58560, Note_on_c, 0, 53, 89
2, 58560, Note_on_c, 0, 57, 89
2, 58560, Note_on_c, 0, 62, 89
2, 58560, Note_on_c, 0, 65, 89
2, 58560, Note_on_c, 0, 69, 89
2, 58560, Note_on_c, 0, 77, 89
2, 58560, Note_on_c, 0, 81, 89
2, 59250, Note_on_c, 0, 74, 0
2, 59250, Note_on_c, 0, 62, 0
2, 59265, Note_on_c, 0, 53, 0
2, 59265, Note_on_c, 0, 57, 0
2, 59265, Note_on_c, 0, 65, 0
2, 59265, Note_on_c, 0, 69, 0
2, 59265, Note_on_c, 0, 77, 0
2, 59265, Note_on_c, 0, 81, 0
2, 59280, Note_on_c, 0, 58, 89
2, 59280, Note_on_c, 0, 62, 89
2, 59280, Note_on_c, 0, 67, 89
2, 59280, Note_on_c, 0, 70, 89
2, 59280, Note_on_c, 0, 74, 89
2, 59280, Note_on_c, 0, 79, 89
2, 59985, Note_on_c, 0, 62, 0
2, 59985, Note_on_c, 0, 67, 0
2, 59985, Note_on_c, 0, 70, 0
2, 59985, Note_on_c, 0, 74, 0
2, 59985, Note_on_c, 0, 79, 0
2, 60225, Note_on_c, 0, 58, 0
2, 60240, Note_on_c, 0, 57, 89
2, 60345, Note_on_c, 0, 57, 0
2, 60360, Note_on_c, 0, 55, 89
2, 60465, Note_on_c, 0, 55, 0
2, 60480, Note_on_c, 0, 79, 89
2, 60480, Note_on_c, 0, 76, 89
2, 60480, Note_on_c, 0, 73, 89
2, 60480, Note_on_c, 0, 69, 89
2, 60480, Note_on_c, 0, 64, 89
2, 60480, Note_on_c, 0, 61, 89
2, 60480, Note_on_c, 0, 57, 89
2, 60585, Note_on_c, 0, 57, 0
2, 60600, Note_on_c, 0, 52, 89
2, 60705, Note_on_c, 0, 79, 0
2, 60705, Note_on_c, 0, 76, 0
2, 60705, Note_on_c, 0, 73, 0
2, 60705, Note_on_c, 0, 69, 0
2, 60705, Note_on_c, 0, 64, 0
2, 60705, Note_on_c, 0, 61, 0
2, 60705, Note_on_c, 0, 52, 0
2, 60720, Note_on_c, 0, 53, 89
2, 60795, Note_on_c, 0, 53, 0
2, 60810, Note_on_c, 0, 50, 89
2, 60885, Note_on_c, 0, 50, 0
2, 60900, Note_on_c, 0, 52, 89
2, 60975, Note_on_c, 0, 52, 0
2, 60990, Note_on_c, 0, 49, 89
2, 61065, Note_on_c, 0, 49, 0
2, 61080, Note_on_c, 0, 50, 89
2, 61155, Note_on_c, 0, 50, 0
2, 61170, Note_on_c, 0, 47, 89
2, 61245, Note_on_c, 0, 47, 0
2, 61260, Note_on_c, 0, 49, 89
2, 61335, Note_on_c, 0, 49, 0
2, 61350, Note_on_c, 0, 45, 89
2, 61425, Note_on_c, 0, 45, 0
2, 61440, Note_on_c, 0, 46, 89
2, 61515, Note_on_c, 0, 46, 0
2, 61530, Note_on_c, 0, 44, 89
2, 61605, Note_on_c, 0, 44, 0
2, 61620, Note_on_c, 0, 45, 89
2, 61695, Note_on_c, 0, 45, 0
2, 61710, Note_on_c, 0, 69, 89
2, 61710, Note_on_c, 0, 73, 89
2, 61710, Note_on_c, 0, 64, 89
2, 61710, Note_on_c, 0, 57, 89
2, 61710, Note_on_c, 0, 55, 89
2, 61770, Note_on_c, 0, 69, 0
2, 61770, Note_on_c, 0, 57, 0
2, 61785, Note_on_c, 0, 73, 0
2, 61785, Note_on_c, 0, 64, 0
2, 61785, Note_on_c, 0, 55, 0
2, 61800, Note_on_c, 0, 53, 89
2, 61800, Note_on_c, 0, 57, 89
2, 61800, Note_on_c, 0, 62, 89
2, 61800, Note_on_c, 0, 65, 89
2, 61800, Note_on_c, 0, 69, 89
2, 61800, Note_on_c, 0, 74, 89
2, 61950, Note_on_c, 0, 57, 0
2, 61950, Note_on_c, 0, 62, 0
2, 61950, Note_on_c, 0, 65, 0
2, 61965, Note_on_c, 0, 53, 0
2, 61965, Note_on_c, 0, 69, 0
2, 61965, Note_on_c, 0, 74, 0
2, 61980, Note_on_c, 0, 57, 89
2, 61980, Note_on_c, 0, 65, 89
2, 61980, Note_on_c, 0, 62, 89
2, 61980, Note_on_c, 0, 50, 89
2, 62145, Note_on_c, 0, 65, 0
2, 62145, Note_on_c, 0, 50, 0
2, 62160, Note_on_c, 0, 45, 89
2, 62160, Note_on_c, 0, 64, 89
2, 62325, Note_on_c, 0, 62, 0
2, 62340, Note_on_c, 0, 61, 89
2, 62400, Note_on_c, 0, 64, 0
2, 62400, Note_on_c, 0, 64, 89
2, 62505, Note_on_c, 0, 57, 0
2, 62520, Note_on_c, 0, 55, 89
2, 62610, Note_on_c, 0, 55, 0
2, 62625, Note_on_c, 0, 45, 0
2, 62625, Note_on_c, 0, 61, 0
2, 62625, Note_on_c, 0, 64, 0
2, 62640, Note_on_c, 0, 38, 89
2, 62640, Note_on_c, 0, 50, 89
2, 62640, Note_on_c, 0, 57, 89
2, 62640, Note_on_c, 0, 62, 89
2, 62640, Note_on_c, 0, 55, 89
2, 62805, Note_on_c, 0, 55, 0
2, 62820, Note_on_c, 0, 53, 89
2, 62895, Note_on_c, 0, 53, 0
2, 62910, Note_on_c, 0, 52, 89
2, 62985, Note_on_c, 0, 52, 0
2, 63000, Note_on_c, 0, 53, 89
2, 63600, Note_on_c, 0, 38, 0
2, 63600, Note_on_c, 0, 50, 0
2, 63600, Note_on_c, 0, 57, 0
2, 63600, Note_on_c, 0, 62, 0
2, 63600, Note_on_c, 0, 53, 0
2, 63600, End_track
3, 0, Start_track
3, 0, Title_t, "Main Strings\000\000"
3, 0, Instrument_name_t, "Tremolo Strings - Right"
3, 0, MIDI_port, 0
3, 0, Text_t, "Right Strings\000"
3, 0, Program_c, 1, 44
3, 0, Control_c, 1, 7, 126
3, 15, Note_on_c, 1, 81, 89
3, 15, Note_on_c, 1, 69, 89
3, 24, Control_c, 1, 10, 118
3, 45, Note_on_c, 1, 81, 0
3, 45, Note_on_c, 1, 69, 0
3, 60, Note_on_c, 1, 79, 89
3, 60, Note_on_c, 1, 67, 89
3, 90, Note_on_c, 1, 67, 0
3, 100, Note_on_c, 1, 79, 0
3, 105, Note_on_c, 1, 69, 89
3, 105, Note_on_c, 1, 81, 89
3, 960, Note_on_c, 1, 69, 0
3, 960, Note_on_c, 1, 81, 0
3, 975, Note_on_c, 1, 79, 89
3, 975, Note_on_c, 1, 67, 89
3, 1005, Note_on_c, 1, 67, 0
3, 1015, Note_on_c, 1, 79, 0
3, 1020, Note_on_c, 1, 77, 89
3, 1020, Note_on_c, 1, 65, 89
3, 1050, Note_on_c, 1, 65, 0
3, 1060, Note_on_c, 1, 77, 0
3, 1065, Note_on_c, 1, 76, 89
3, 1065, Note_on_c, 1, 64, 89
3, 1095, Note_on_c, 1, 64, 0
3, 1105, Note_on_c, 1, 76, 0
3, 1110, Note_on_c, 1, 74, 89
3, 1110, Note_on_c, 1, 62, 89
3, 1140, Note_on_c, 1, 62, 0
3, 1150, Note_on_c, 1, 74, 0
3, 1155, Note_on_c, 1, 73, 89
3, 1155, Note_on_c, 1, 61, 89
3, 1680, Note_on_c, 1, 73, 0
3, 1680, Note_on_c, 1, 61, 0
3, 1710, Note_on_c, 1, 62, 89
3, 1710, Note_on_c, 1, 74, 89
3, 2010, Note_on_c, 1, 62, 0
3, 2010, Note_on_c, 1, 74, 0
3, 2895, Note_on_c, 1, 69, 89
3, 2895, Note_on_c, 1, 57, 89
3, 2925, Note_on_c, 1, 69, 0
3, 2925, Note_on_c, 1, 57, 0
3, 2940, Note_on_c, 1, 67, 89
3, 2940, Note_on_c, 1, 55, 89
3, 2970, Note_on_c, 1, 55, 0
3, 2980, Note_on_c, 1, 67, 0
3, 2985, Note_on_c, 1, 69, 89
3, 2985, Note_on_c, 1, 57, 89
3, 3780, Note_on_c, 1, 69, 0
3, 3780, Note_on_c, 1, 57, 0
3, 3855, Note_on_c, 1, 64, 89
3, 3855, Note_on_c, 1, 52, 89
3, 4020, Note_on_c, 1, 64, 0
3, 4020, Note_on_c, 1, 52, 0
3, 4035, Note_on_c, 1, 65, 89
3, 4035, Note_on_c, 1, 53, 89
3, 4200, Note_on_c, 1, 65, 0
3, 4200, Note_on_c, 1, 53, 0
3, 4215, Note_on_c, 1, 61, 89
3, 4215, Note_on_c, 1, 49, 89
3, 4380, Note_on_c, 1, 61, 0
3, 4380, Note_on_c, 1, 49, 0
3, 4395, Note_on_c, 1, 62, 89
3, 4395, Note_on_c, 1, 50, 89
3, 4755, Note_on_c, 1, 62, 0
3, 4755, Note_on_c, 1, 50, 0
3, 5775, Note_on_c, 1, 57, 89
3, 5775, Note_on_c, 1, 45, 89
3, 5805, Note_on_c, 1, 57, 0
3, 5805, Note_on_c, 1, 45, 0
3, 5820, Note_on_c, 1, 55, 89
3, 5820, Note_on_c, 1, 43, 89
3, 5850, Note_on_c, 1, 43, 0
3, 5860, Note_on_c, 1, 55, 0
3, 5865, Note_on_c, 1, 45, 89
3, 5865, Note_on_c, 1, 57, 89
3, 6720, Note_on_c, 1, 45, 0
3, 6720, Note_on_c, 1, 57, 0
3, 6735, Note_on_c, 1, 55, 89
3, 6735, Note_on_c, 1, 43, 89
3, 6765, Note_on_c, 1, 43, 0
3, 6775, Note_on_c, 1, 55, 0
3, 6780, Note_on_c, 1, 53, 89
3, 6780, Note_on_c, 1, 41, 89
3, 6810, Note_on_c, 1, 41, 0
3, 6820, Note_on_c, 1, 53, 0
3, 6825, Note_on_c, 1, 52, 89
3, 6825, Note_on_c, 1, 40, 89
3, 6855, Note_on_c, 1, 40, 0
3, 6865, Note_on_c, 1, 52, 0
3, 6870, Note_on_c, 1, 50, 89
3, 6870, Note_on_c, 1, 38, 89
3, 6900, Note_on_c, 1, 38, 0
3, 6910, Note_on_c, 1, 50, 0
3, 6915, Note_on_c, 1, 49, 89
3, 6915, Note_on_c, 1, 37, 89
3, 7440, Note_on_c, 1, 49, 0
3, 7440, Note_on_c, 1, 37, 0
3, 7470, Note_on_c, 1, 38, 89
3, 7470, Note_on_c, 1, 50, 89
3, 7770, Note_on_c, 1, 38, 0
3, 7770, Note_on_c, 1, 50, 0
3, 8655, Note_on_c, 1, 38, 89
3, 9150, Note_on_c, 1, 49, 89
3, 9615, Note_on_c, 1, 52, 89
3, 10110, Note_on_c, 1, 55, 89
3, 10575, Note_on_c, 1, 58, 89
3, 11070, Note_on_c, 1, 61, 89
3, 11535, Note_on_c, 1, 64, 89
3, 12420, Note_on_c, 1, 55, 0
3, 12480, Note_on_c, 1, 49, 0
3, 12480, Note_on_c, 1, 52, 0
3, 12480, Note_on_c, 1, 58, 0
3, 12480, Note_on_c, 1, 61, 0
3, 12495, Note_on_c, 1, 64, 0
3, 12495, Note_on_c, 1, 50, 89
3, 12495, Note_on_c, 1, 57, 89
3, 12495, Note_on_c, 1, 62, 89
3, 12495, Note_on_c, 1, 55, 89
3, 12960, Note_on_c, 1, 55, 0
3, 12990, Note_on_c, 1, 52, 89
3, 13455, Note_on_c, 1, 52, 0
3, 13455, Note_on_c, 1, 54, 89
3, 14400, Note_on_c, 1, 38, 0
3, 14400, Note_on_c, 1, 50, 0
3, 14400, Note_on_c, 1, 57, 0
3, 14400, Note_on_c, 1, 62, 0
3, 14400, Note_on_c, 1, 54, 0
3, 15315, Note_on_c, 1, 49, 89
3, 15315, Note_on_c, 1, 61, 89
3, 15360, Note_on_c, 1, 49, 0
3, 15360, Note_on_c, 1, 61, 0
3, 15375, Note_on_c, 1, 62, 89
3, 15375, Note_on_c, 1, 50, 89
3, 15420, Note_on_c, 1, 62, 0
3, 15420, Note_on_c, 1, 50, 0
3, 15435, Note_on_c, 1, 64, 89
3, 15435, Note_on_c, 1, 52, 89
3, 15480, Note_on_c, 1, 64, 0
3, 15480, Note_on_c, 1, 52, 0
3, 15495, Note_on_c, 1, 61, 89
3, 15495, Note_on_c, 1, 49, 89
3, 15540, Note_on_c, 1, 61, 0
3, 15540, Note_on_c, 1, 49, 0
3, 15555, Note_on_c, 1, 62, 89
3, 15555, Note_on_c, 1, 50, 89
3, 15600, Note_on_c, 1, 62, 0
3, 15600, Note_on_c, 1, 50, 0
3, 15615, Note_on_c, 1, 64, 89
3, 15615, Note_on_c, 1, 52, 89
3, 15660, Note_on_c, 1, 64, 0
3, 15660, Note_on_c, 1, 52, 0
3, 15675, Note_on_c, 1, 61, 89
3, 15675, Note_on_c, 1, 49, 89
3, 15720, Note_on_c, 1, 61, 0
3, 15720, Note_on_c, 1, 49, 0
3, 15735, Note_on_c, 1, 62, 89
3, 15735, Note_on_c, 1, 50, 89
3, 15780, Note_on_c, 1, 62, 0
3, 15780, Note_on_c, 1, 50, 0
3, 15795, Note_on_c, 1, 64, 89
3, 15795, Note_on_c, 1, 52, 89
3, 15840, Note_on_c, 1, 64, 0
3, 15840, Note_on_c, 1, 52, 0
3, 15855, Note_on_c, 1, 61, 89
3, 15855, Note_on_c, 1, 49, 89
3, 15900, Note_on_c, 1, 61, 0
3, 15900, Note_on_c, 1, 49, 0
3, 15915, Note_on_c, 1, 62, 89
3, 15915, Note_on_c, 1, 50, 89
3, 15990, Note_on_c, 1, 62, 0
3, 15990, Note_on_c, 1, 50, 0
3, 16005, Note_on_c, 1, 64, 89
3, 16005, Note_on_c, 1, 52, 89
3, 16080, Note_on_c, 1, 64, 0
3, 16080, Note_on_c, 1, 52, 0
3, 16095, Note_on_c, 1, 65, 89
3, 16095, Note_on_c, 1, 53, 89
3, 16140, Note_on_c, 1, 65, 0
3, 16140, Note_on_c, 1, 53, 0
3, 16155, Note_on_c, 1, 67, 89
3, 16155, Note_on_c, 1, 55, 89
3, 16200, Note_on_c, 1, 67, 0
3, 16200, Note_on_c, 1, 55, 0
3, 16215, Note_on_c, 1, 64, 89
3, 16215, Note_on_c, 1, 52, 89
3, 16260, Note_on_c, 1, 64, 0
3, 16260, Note_on_c, 1, 52, 0
3, 16275, Note_on_c, 1, 53, 89
3, 16275, Note_on_c, 1, 65, 89
3, 16320, Note_on_c, 1, 53, 0
3, 16320, Note_on_c, 1, 65, 0
3, 16335, Note_on_c, 1, 55, 89
3, 16335, Note_on_c, 1, 67, 89
3, 16380, Note_on_c, 1, 55, 0
3, 16380, Note_on_c, 1, 67, 0
3, 16395, Note_on_c, 1, 52, 89
3, 16395, Note_on_c, 1, 64, 89
3, 16440, Note_on_c, 1, 52, 0
3, 16440, Note_on_c, 1, 64, 0
3, 16455, Note_on_c, 1, 53, 89
3, 16455, Note_on_c, 1, 65, 89
3, 16500, Note_on_c, 1, 53, 0
3, 16500, Note_on_c, 1, 65, 0
3, 16515, Note_on_c, 1, 55, 89
3, 16515, Note_on_c, 1, 67, 89
3, 16560, Note_on_c, 1, 55, 0
3, 16560, Note_on_c, 1, 67, 0
3, 16575, Note_on_c, 1, 52, 89
3, 16575, Note_on_c, 1, 64, 89
3, 16620, Note_on_c, 1, 52, 0
3, 16620, Note_on_c, 1, 64, 0
3, 16635, Note_on_c, 1, 53, 89
3, 16635, Note_on_c, 1, 65, 89
3, 16710, Note_on_c, 1, 53, 0
3, 16710, Note_on_c, 1, 65, 0
3, 16725, Note_on_c, 1, 55, 89
3, 16725, Note_on_c, 1, 67, 89
3, 16800, Note_on_c, 1, 55, 0
3, 16800, Note_on_c, 1, 67, 0
3, 16815, Note_on_c, 1, 69, 89
3, 16815, Note_on_c, 1, 57, 89
3, 16860, Note_on_c, 1, 69, 0
3, 16860, Note_on_c, 1, 57, 0
3, 16875, Note_on_c, 1, 70, 89
3, 16875, Note_on_c, 1, 58, 89
3, 16920, Note_on_c, 1, 70, 0
3, 16920, Note_on_c, 1, 58, 0
3, 16935, Note_on_c, 1, 67, 89
3, 16935, Note_on_c, 1, 55, 89
3, 16980, Note_on_c, 1, 67, 0
3, 16980, Note_on_c, 1, 55, 0
3, 16995, Note_on_c, 1, 69, 89
3, 16995, Note_on_c, 1, 57, 89
3, 17040, Note_on_c, 1, 69, 0
3, 17040, Note_on_c, 1, 57, 0
3, 17055, Note_on_c, 1, 70, 89
3, 17055, Note_on_c, 1, 58, 89
3, 17100, Note_on_c, 1, 70, 0
3, 17100, Note_on_c, 1, 58, 0
3, 17115, Note_on_c, 1, 67, 89
3, 17115, Note_on_c, 1, 55, 89
3, 17160, Note_on_c, 1, 67, 0
3, 17160, Note_on_c, 1, 55, 0
3, 17175, Note_on_c, 1, 69, 89
3, 17175, Note_on_c, 1, 57, 89
3, 17220, Note_on_c, 1, 69, 0
3, 17220, Note_on_c, 1, 57, 0
3, 17235, Note_on_c, 1, 58, 89
3, 17235, Note_on_c, 1, 70, 89
3, 17280, Note_on_c, 1, 58, 0
3, 17280, Note_on_c, 1, 70, 0
3, 17295, Note_on_c, 1, 67, 89
3, 17295, Note_on_c, 1, 55, 89
3, 17340, Note_on_c, 1, 67, 0
3, 17340, Note_on_c, 1, 55, 0
3, 17355, Note_on_c, 1, 57, 89
3, 17355, Note_on_c, 1, 69, 89
3, 17520, Note_on_c, 1, 57, 0
3, 17520, Note_on_c, 1, 69, 0
3, 19155, Note_on_c, 1, 61, 89
3, 19155, Note_on_c, 1, 73, 89
3, 19200, Note_on_c, 1, 61, 0
3, 19200, Note_on_c, 1, 73, 0
3, 19215, Note_on_c, 1, 62, 89
3, 19215, Note_on_c, 1, 74, 89
3, 19260, Note_on_c, 1, 62, 0
3, 19260, Note_on_c, 1, 74, 0
3, 19275, Note_on_c, 1, 76, 89
3, 19275, Note_on_c, 1, 64, 89
3, 19320, Note_on_c, 1, 76, 0
3, 19320, Note_on_c, 1, 64, 0
3, 19335, Note_on_c, 1, 73, 89
3, 19335, Note_on_c, 1, 61, 89
3, 19380, Note_on_c, 1, 73, 0
3, 19380, Note_on_c, 1, 61, 0
3, 19395, Note_on_c, 1, 74, 89
3, 19395, Note_on_c, 1, 62, 89
3, 19440, Note_on_c, 1, 74, 0
3, 19440, Note_on_c, 1, 62, 0
3, 19455, Note_on_c, 1, 76, 89
3, 19455, Note_on_c, 1, 64, 89
3, 19500, Note_on_c, 1, 76, 0
3, 19500, Note_on_c, 1, 64, 0
3, 19515, Note_on_c, 1, 73, 89
3, 19515, Note_on_c, 1, 61, 89
3, 19560, Note_on_c, 1, 73, 0
3, 19560, Note_on_c, 1, 61, 0
3, 19575, Note_on_c, 1, 74, 89
3, 19575, Note_on_c, 1, 62, 89
3, 19620, Note_on_c, 1, 74, 0
3, 19620, Note_on_c, 1, 62, 0
3, 19635, Note_on_c, 1, 76, 89
3, 19635, Note_on_c, 1, 64, 89
3, 19680, Note_on_c, 1, 76, 0
3, 19680, Note_on_c, 1, 64, 0
3, 19695, Note_on_c, 1, 73, 89
3, 19695, Note_on_c, 1, 61, 89
3, 19740, Note_on_c, 1, 73, 0
3, 19740, Note_on_c, 1, 61, 0
3, 19755, Note_on_c, 1, 74, 89
3, 19755, Note_on_c, 1, 62, 89
3, 19830, Note_on_c, 1, 74, 0
3, 19830, Note_on_c, 1, 62, 0
3, 19845, Note_on_c, 1, 76, 89
3, 19845, Note_on_c, 1, 64, 89
3, 19920, Note_on_c, 1, 76, 0
3, 19920, Note_on_c, 1, 64, 0
3, 19935, Note_on_c, 1, 77, 89
3, 19935, Note_on_c, 1, 65, 89
3, 19980, Note_on_c, 1, 77, 0
3, 19980, Note_on_c, 1, 65, 0
3, 19995, Note_on_c, 1, 79, 89
3, 19995, Note_on_c, 1, 67, 89
3, 20040, Note_on_c, 1, 79, 0
3, 20040, Note_on_c, 1, 67, 0
3, 20055, Note_on_c, 1, 76, 89
3, 20055, Note_on_c, 1, 64, 89
3, 20100, Note_on_c, 1, 76, 0
3, 20100, Note_on_c, 1, 64, 0
3, 20115, Note_on_c, 1, 65, 89
3, 20115, Note_on_c, 1, 77, 89
3, 20160, Note_on_c, 1, 65, 0
3, 20160, Note_on_c, 1, 77, 0
3, 20175, Note_on_c, 1, 79, 89
3, 20175, Note_on_c, 1, 67, 89
3, 20220, Note_on_c, 1, 79, 0
3, 20220, Note_on_c, 1, 67, 0
3, 20235, Note_on_c, 1, 76, 89
3, 20235, Note_on_c, 1, 64, 89
3, 20280, Note_on_c, 1, 76, 0
3, 20280, Note_on_c, 1, 64, 0
3, 20295, Note_on_c, 1, 77, 89
3, 20295, Note_on_c, 1, 65, 89
3, 20340, Note_on_c, 1, 77, 0
3, 20340, Note_on_c, 1, 65, 0
3, 20355, Note_on_c, 1, 79, 89
3, 20355, Note_on_c, 1, 67, 89
3, 20400, Note_on_c, 1, 79, 0
3, 20400, Note_on_c, 1, 67, 0
3, 20415, Note_on_c, 1, 76, 89
3, 20415, Note_on_c, 1, 64, 89
3, 20460, Note_on_c, 1, 76, 0
3, 20460, Note_on_c, 1, 64, 0
3, 20475, Note_on_c, 1, 77, 89
3, 20475, Note_on_c, 1, 65, 89
3, 20550, Note_on_c, 1, 77, 0
3, 20550, Note_on_c, 1, 65, 0
3, 20565, Note_on_c, 1, 79, 89
3, 20565, Note_on_c, 1, 67, 89
3, 20640, Note_on_c, 1, 79, 0
3, 20640, Note_on_c, 1, 67, 0
3, 20655, Note_on_c, 1, 81, 89
3, 20655, Note_on_c, 1, 69, 89
3, 20700, Note_on_c, 1, 81, 0
3, 20700, Note_on_c, 1, 69, 0
3, 20715, Note_on_c, 1, 82, 89
3, 20715, Note_on_c, 1, 70, 89
3, 20760, Note_on_c, 1, 82, 0
3, 20760, Note_on_c, 1, 70, 0
3, 20775, Note_on_c, 1, 79, 89
3, 20775, Note_on_c, 1, 67, 89
3, 20820, Note_on_c, 1, 79, 0
3, 20820, Note_on_c, 1, 67, 0
3, 20835, Note_on_c, 1, 81, 89
3, 20835, Note_on_c, 1, 69, 89
3, 20880, Note_on_c, 1, 81, 0
3, 20880, Note_on_c, 1, 69, 0
3, 20895, Note_on_c, 1, 82, 89
3, 20895, Note_on_c, 1, 70, 89
3, 20940, Note_on_c, 1, 82, 0
3, 20940, Note_on_c, 1, 70, 0
3, 20955, Note_on_c, 1, 79, 89
3, 20955, Note_on_c, 1, 67, 89
3, 21000, Note_on_c, 1, 79, 0
3, 21000, Note_on_c, 1, 67, 0
3, 21015, Note_on_c, 1, 81, 89
3, 21015, Note_on_c, 1, 69, 89
3, 21060, Note_on_c, 1, 81, 0
3, 21060, Note_on_c, 1, 69, 0
3, 21075, Note_on_c, 1, 70, 89
3, 21075, Note_on_c, 1, 82, 89
3, 21120, Note_on_c, 1, 70, 0
3, 21120, Note_on_c, 1, 82, 0
3, 21135, Note_on_c, 1, 79, 89
3, 21135, Note_on_c, 1, 67, 89
3, 21180, Note_on_c, 1, 79, 0
3, 21180, Note_on_c, 1, 67, 0
3, 21195, Note_on_c, 1, 81, 89
3, 21195, Note_on_c, 1, 69, 89
3, 21360, Note_on_c, 1, 81, 0
3, 21360, Note_on_c, 1, 69, 0
3, 22515, Note_on_c, 1, 81, 89
3, 22515, Note_on_c, 1, 69, 89
3, 22560, Note_on_c, 1, 81, 0
3, 22560, Note_on_c, 1, 69, 0
3, 22575, Note_on_c, 1, 79, 89
3, 22575, Note_on_c, 1, 67, 89
3, 22620, Note_on_c, 1, 79, 0
3, 22620, Note_on_c, 1, 67, 0
3, 22635, Note_on_c, 1, 82, 89
3, 22635, Note_on_c, 1, 70, 89
3, 22680, Note_on_c, 1, 82, 0
3, 22680, Note_on_c, 1, 70, 0
3, 22695, Note_on_c, 1, 76, 89
3, 22695, Note_on_c, 1, 64, 89
3, 22740, Note_on_c, 1, 76, 0
3, 22740, Note_on_c, 1, 64, 0
3, 22755, Note_on_c, 1, 79, 89
3, 22755, Note_on_c, 1, 67, 89
3, 22800, Note_on_c, 1, 79, 0
3, 22800, Note_on_c, 1, 67, 0
3, 22815, Note_on_c, 1, 82, 89
3, 22815, Note_on_c, 1, 70, 89
3, 22860, Note_on_c, 1, 82, 0
3, 22860, Note_on_c, 1, 70, 0
3, 22875, Note_on_c, 1, 76, 89
3, 22875, Note_on_c, 1, 64, 89
3, 22920, Note_on_c, 1, 76, 0
3, 22920, Note_on_c, 1, 64, 0
3, 22935, Note_on_c, 1, 77, 89
3, 22935, Note_on_c, 1, 65, 89
3, 22980, Note_on_c, 1, 77, 0
3, 22980, Note_on_c, 1, 65, 0
3, 22995, Note_on_c, 1, 69, 89
3, 22995, Note_on_c, 1, 81, 89
3, 23040, Note_on_c, 1, 69, 0
3, 23040, Note_on_c, 1, 81, 0
3, 23055, Note_on_c, 1, 74, 89
3, 23055, Note_on_c, 1, 62, 89
3, 23100, Note_on_c, 1, 74, 0
3, 23100, Note_on_c, 1, 62, 0
3, 23115, Note_on_c, 1, 77, 89
3, 23115, Note_on_c, 1, 65, 89
3, 23160, Note_on_c, 1, 77, 0
3, 23160, Note_on_c, 1, 65, 0
3, 23175, Note_on_c, 1, 81, 89
3, 23175, Note_on_c, 1, 69, 89
3, 23220, Note_on_c, 1, 81, 0
3, 23220, Note_on_c, 1, 69, 0
3, 23235, Note_on_c, 1, 74, 89
3, 23235, Note_on_c, 1, 62, 89
3, 23280, Note_on_c, 1, 74, 0
3, 23280, Note_on_c, 1, 62, 0
3, 23295, Note_on_c, 1, 76, 89
3, 23295, Note_on_c, 1, 64, 89
3, 23340, Note_on_c, 1, 76, 0
3, 23340, Note_on_c, 1, 64, 0
3, 23355, Note_on_c, 1, 79, 89
3, 23355, Note_on_c, 1, 67, 89
3, 23400, Note_on_c, 1, 79, 0
3, 23400, Note_on_c, 1, 67, 0
3, 23415, Note_on_c, 1, 72, 89
3, 23415, Note_on_c, 1, 60, 89
3, 23460, Note_on_c, 1, 72, 0
3, 23460, Note_on_c, 1, 60, 0
3, 23475, Note_on_c, 1, 76, 89
3, 23475, Note_on_c, 1, 64, 89
3, 23520, Note_on_c, 1, 76, 0
3, 23520, Note_on_c, 1, 64, 0
3, 23535, Note_on_c, 1, 79, 89
3, 23535, Note_on_c, 1, 67, 89
3, 23580, Note_on_c, 1, 79, 0
3, 23580, Note_on_c, 1, 67, 0
3, 23595, Note_on_c, 1, 72, 89
3, 23595, Note_on_c, 1, 60, 89
3, 23640, Note_on_c, 1, 72, 0
3, 23640, Note_on_c, 1, 60, 0
3, 23655, Note_on_c, 1, 74, 89
3, 23655, Note_on_c, 1, 62, 89
3, 23700, Note_on_c, 1, 74, 0
3, 23700, Note_on_c, 1, 62, 0
3, 23715, Note_on_c, 1, 77, 89
3, 23715, Note_on_c, 1, 65, 89
3, 23760, Note_on_c, 1, 77, 0
3, 23760, Note_on_c, 1, 65, 0
3, 23775, Note_on_c, 1, 70, 89
3, 23775, Note_on_c, 1, 58, 89
3, 23820, Note_on_c, 1, 70, 0
3, 23820, Note_on_c, 1, 58, 0
3, 23835, Note_on_c, 1, 74, 89
3, 23835, Note_on_c, 1, 62, 89
3, 23880, Note_on_c, 1, 74, 0
3, 23880, Note_on_c, 1, 62, 0
3, 23895, Note_on_c, 1, 77, 89
3, 23895, Note_on_c, 1, 65, 89
3, 23940, Note_on_c, 1, 77, 0
3, 23940, Note_on_c, 1, 65, 0
3, 23955, Note_on_c, 1, 58, 89
3, 23955, Note_on_c, 1, 70, 89
3, 24000, Note_on_c, 1, 58, 0
3, 24000, Note_on_c, 1, 70, 0
3, 24015, Note_on_c, 1, 72, 89
3, 24015, Note_on_c, 1, 60, 89
3, 24060, Note_on_c, 1, 72, 0
3, 24060, Note_on_c, 1, 60, 0
3, 24075, Note_on_c, 1, 76, 89
3, 24075, Note_on_c, 1, 64, 89
3, 24120, Note_on_c, 1, 76, 0
3, 24120, Note_on_c, 1, 64, 0
3, 24135, Note_on_c, 1, 69, 89
3, 24135, Note_on_c, 1, 57, 89
3, 24180, Note_on_c, 1, 69, 0
3, 24180, Note_on_c, 1, 57, 0
3, 24195, Note_on_c, 1, 72, 89
3, 24195, Note_on_c, 1, 60, 89
3, 24240, Note_on_c, 1, 72, 0
3, 24240, Note_on_c, 1, 60, 0
3, 24255, Note_on_c, 1, 76, 89
3, 24255, Note_on_c, 1, 64, 89
3, 24300, Note_on_c, 1, 76, 0
3, 24300, Note_on_c, 1, 64, 0
3, 24315, Note_on_c, 1, 69, 89
3, 24315, Note_on_c, 1, 57, 89
3, 24360, Note_on_c, 1, 69, 0
3, 24360, Note_on_c, 1, 57, 0
3, 24375, Note_on_c, 1, 70, 89
3, 24375, Note_on_c, 1, 58, 89
3, 24420, Note_on_c, 1, 70, 0
3, 24420, Note_on_c, 1, 58, 0
3, 24435, Note_on_c, 1, 74, 89
3, 24435, Note_on_c, 1, 62, 89
3, 24480, Note_on_c, 1, 74, 0
3, 24480, Note_on_c, 1, 62, 0
3, 24495, Note_on_c, 1, 67, 89
3, 24495, Note_on_c, 1, 55, 89
3, 24540, Note_on_c, 1, 67, 0
3, 24540, Note_on_c, 1, 55, 0
3, 24555, Note_on_c, 1, 70, 89
3, 24555, Note_on_c, 1, 58, 89
3, 24600, Note_on_c, 1, 70, 0
3, 24600, Note_on_c, 1, 58, 0
3, 24615, Note_on_c, 1, 74, 89
3, 24615, Note_on_c, 1, 62, 89
3, 24660, Note_on_c, 1, 74, 0
3, 24660, Note_on_c, 1, 62, 0
3, 24675, Note_on_c, 1, 67, 89
3, 24675, Note_on_c, 1, 55, 89
3, 24720, Note_on_c, 1, 67, 0
3, 24720, Note_on_c, 1, 55, 0
3, 24735, Note_on_c, 1, 69, 89
3, 24735, Note_on_c, 1, 57, 89
3, 24780, Note_on_c, 1, 69, 0
3, 24780, Note_on_c, 1, 57, 0
3, 24795, Note_on_c, 1, 72, 89
3, 24795, Note_on_c, 1, 60, 89
3, 24840, Note_on_c, 1, 72, 0
3, 24840, Note_on_c, 1, 60, 0
3, 24855, Note_on_c, 1, 65, 89
3, 24855, Note_on_c, 1, 53, 89
3, 24900, Note_on_c, 1, 65, 0
3, 24900, Note_on_c, 1, 53, 0
3, 24915, Note_on_c, 1, 57, 89
3, 24915, Note_on_c, 1, 69, 89
3, 24960, Note_on_c, 1, 57, 0
3, 24960, Note_on_c, 1, 69, 0
3, 24975, Note_on_c, 1, 72, 89
3, 24975, Note_on_c, 1, 60, 89
3, 25020, Note_on_c, 1, 72, 0
3, 25020, Note_on_c, 1, 60, 0
3, 25035, Note_on_c, 1, 65, 89
3, 25035, Note_on_c, 1, 53, 89
3, 25080, Note_on_c, 1, 65, 0
3, 25080, Note_on_c, 1, 53, 0
3, 25095, Note_on_c, 1, 67, 89
3, 25095, Note_on_c, 1, 55, 89
3, 25140, Note_on_c, 1, 67, 0
3, 25140, Note_on_c, 1, 55, 0
3, 25155, Note_on_c, 1, 70, 89
3, 25155, Note_on_c, 1, 58, 89
3, 25200, Note_on_c, 1, 70, 0
3, 25200, Note_on_c, 1, 58, 0
3, 25215, Note_on_c, 1, 64, 89
3, 25215, Note_on_c, 1, 52, 89
3, 25260, Note_on_c, 1, 64, 0
3, 25260, Note_on_c, 1, 52, 0
3, 25275, Note_on_c, 1, 67, 89
3, 25275, Note_on_c, 1, 55, 89
3, 25320, Note_on_c, 1, 67, 0
3, 25320, Note_on_c, 1, 55, 0
3, 25335, Note_on_c, 1, 70, 89
3, 25335, Note_on_c, 1, 58, 89
3, 25380, Note_on_c, 1, 70, 0
3, 25380, Note_on_c, 1, 58, 0
3, 25395, Note_on_c, 1, 64, 89
3, 25395, Note_on_c, 1, 52, 89
3, 25440, Note_on_c, 1, 64, 0
3, 25440, Note_on_c, 1, 52, 0
3, 25455, Note_on_c, 1, 65, 89
3, 25455, Note_on_c, 1, 53, 89
3, 25500, Note_on_c, 1, 65, 0
3, 25500, Note_on_c, 1, 53, 0
3, 25515, Note_on_c, 1, 69, 89
3, 25515, Note_on_c, 1, 57, 89
3, 25560, Note_on_c, 1, 69, 0
3, 25560, Note_on_c, 1, 57, 0
3, 25575, Note_on_c, 1, 62, 89
3, 25575, Note_on_c, 1, 50, 89
3, 25620, Note_on_c, 1, 62, 0
3, 25620, Note_on_c, 1, 50, 0
3, 25635, Note_on_c, 1, 65, 89
3, 25635, Note_on_c, 1, 53, 89
3, 25680, Note_on_c, 1, 65, 0
3, 25680, Note_on_c, 1, 53, 0
3, 25695, Note_on_c, 1, 69, 89
3, 25695, Note_on_c, 1, 57, 89
3, 25740, Note_on_c, 1, 69, 0
3, 25740, Note_on_c, 1, 57, 0
3, 25755, Note_on_c, 1, 62, 89
3, 25755, Note_on_c, 1, 50, 89
3, 25800, Note_on_c, 1, 62, 0
3, 25800, Note_on_c, 1, 50, 0
3, 25815, Note_on_c, 1, 64, 89
3, 25815, Note_on_c, 1, 52, 89
3, 25860, Note_on_c, 1, 64, 0
3, 25860, Note_on_c, 1, 52, 0
3, 25875, Note_on_c, 1, 55, 89
3, 25875, Note_on_c, 1, 67, 89
3, 25920, Note_on_c, 1, 55, 0
3, 25920, Note_on_c, 1, 67, 0
3, 25935, Note_on_c, 1, 61, 89
3, 25935, Note_on_c, 1, 49, 89
3, 25980, Note_on_c, 1, 61, 0
3, 25980, Note_on_c, 1, 49, 0
3, 25995, Note_on_c, 1, 64, 89
3, 25995, Note_on_c, 1, 52, 89
3, 26040, Note_on_c, 1, 64, 0
3, 26040, Note_on_c, 1, 52, 0
3, 26055, Note_on_c, 1, 67, 89
3, 26055, Note_on_c, 1, 55, 89
3, 26100, Note_on_c, 1, 67, 0
3, 26100, Note_on_c, 1, 55, 0
3, 26115, Note_on_c, 1, 61, 89
3, 26115, Note_on_c, 1, 49, 89
3, 26160, Note_on_c, 1, 61, 0
3, 26160, Note_on_c, 1, 49, 0
3, 26190, Note_on_c, 1, 38, 89
3, 27150, Note_on_c, 1, 49, 89
3, 27165, Note_on_c, 1, 52, 89
3, 27180, Note_on_c, 1, 55, 89
3, 27195, Note_on_c, 1, 58, 89
3, 27210, Note_on_c, 1, 61, 89
3, 27225, Note_on_c, 1, 64, 89
3, 27240, Note_on_c, 1, 67, 89
3, 27255, Note_on_c, 1, 70, 89
3, 28320, Note_on_c, 1, 38, 0
3, 28320, Note_on_c, 1, 49, 0
3, 28320, Note_on_c, 1, 52, 0
3, 28320, Note_on_c, 1, 55, 0
3, 28320, Note_on_c, 1, 58, 0
3, 28320, Note_on_c, 1, 61, 0
3, 28320, Note_on_c, 1, 64, 0
3, 28320, Note_on_c, 1, 67, 0
3, 28380, Note_on_c, 1, 70, 0
3, 28395, Note_on_c, 1, 69, 89
3, 28425, Note_on_c, 1, 69, 0
3, 28440, Note_on_c, 1, 67, 89
3, 28470, Note_on_c, 1, 67, 0
3, 28485, Note_on_c, 1, 65, 89
3, 28515, Note_on_c, 1, 65, 0
3, 28530, Note_on_c, 1, 64, 89
3, 28560, Note_on_c, 1, 64, 0
3, 28575, Note_on_c, 1, 62, 89
3, 28605, Note_on_c, 1, 62, 0
3, 28620, Note_on_c, 1, 61, 89
3, 28695, Note_on_c, 1, 61, 0
3, 28710, Note_on_c, 1, 57, 89
3, 28785, Note_on_c, 1, 57, 0
3, 28800, Note_on_c, 1, 61, 89
3, 28875, Note_on_c, 1, 61, 0
3, 28890, Note_on_c, 1, 64, 89
3, 28920, Note_on_c, 1, 64, 0
3, 28935, Note_on_c, 1, 67, 89
3, 28965, Note_on_c, 1, 67, 0
3, 28980, Note_on_c, 1, 65, 89
3, 28995, Note_on_c, 1, 65, 0
3, 29010, Note_on_c, 1, 67, 89
3, 29025, Note_on_c, 1, 67, 0
3, 29040, Note_on_c, 1, 65, 89
3, 29055, Note_on_c, 1, 65, 0
3, 29070, Note_on_c, 1, 67, 89
3, 29085, Note_on_c, 1, 67, 0
3, 29100, Note_on_c, 1, 65, 89
3, 29115, Note_on_c, 1, 65, 0
3, 29130, Note_on_c, 1, 67, 89
3, 29145, Note_on_c, 1, 67, 0
3, 29160, Note_on_c, 1, 65, 89
3, 29175, Note_on_c, 1, 65, 0
3, 29190, Note_on_c, 1, 67, 89
3, 29205, Note_on_c, 1, 67, 0
3, 29220, Note_on_c, 1, 65, 89
3, 29235, Note_on_c, 1, 65, 0
3, 29250, Note_on_c, 1, 64, 89
3, 29325, Note_on_c, 1, 64, 0
3, 29340, Note_on_c, 1, 38, 89
3, 29340, Note_on_c, 1, 50, 89
3, 29340, Note_on_c, 1, 53, 89
3, 29340, Note_on_c, 1, 57, 89
3, 29340, Note_on_c, 1, 62, 89
3, 29340, Note_on_c, 1, 65, 89
3, 29790, Note_on_c, 1, 38, 0
3, 29790, Note_on_c, 1, 50, 0
3, 29790, Note_on_c, 1, 57, 0
3, 29805, Note_on_c, 1, 53, 0
3, 29820, Note_on_c, 1, 62, 0
3, 29850, Note_on_c, 1, 65, 0
3, 30885, Note_on_c, 1, 69, 89
3, 30945, Note_on_c, 1, 69, 0
3, 30975, Note_on_c, 1, 74, 89
3, 31020, Note_on_c, 1, 69, 89
3, 31050, Note_on_c, 1, 74, 0
3, 31065, Note_on_c, 1, 76, 89
3, 31080, Note_on_c, 1, 69, 0
3, 31110, Note_on_c, 1, 69, 89
3, 31140, Note_on_c, 1, 76, 0
3, 31155, Note_on_c, 1, 77, 89
3, 31170, Note_on_c, 1, 69, 0
3, 31200, Note_on_c, 1, 69, 89
3, 31230, Note_on_c, 1, 77, 0
3, 31245, Note_on_c, 1, 74, 89
3, 31260, Note_on_c, 1, 69, 0
3, 31290, Note_on_c, 1, 69, 89
3, 31320, Note_on_c, 1, 74, 0
3, 31335, Note_on_c, 1, 76, 89
3, 31350, Note_on_c, 1, 69, 0
3, 31380, Note_on_c, 1, 69, 89
3, 31410, Note_on_c, 1, 76, 0
3, 31425, Note_on_c, 1, 77, 89
3, 31440, Note_on_c, 1, 69, 0
3, 31470, Note_on_c, 1, 69, 89
3, 31500, Note_on_c, 1, 77, 0
3, 31515, Note_on_c, 1, 79, 89
3, 31530, Note_on_c, 1, 69, 0
3, 31560, Note_on_c, 1, 69, 89
3, 31590, Note_on_c, 1, 79, 0
3, 31605, Note_on_c, 1, 76, 89
3, 31620, Note_on_c, 1, 69, 0
3, 31650, Note_on_c, 1, 69, 89
3, 31680, Note_on_c, 1, 76, 0
3, 31695, Note_on_c, 1, 77, 89
3, 31710, Note_on_c, 1, 69, 0
3, 31740, Note_on_c, 1, 69, 89
3, 31770, Note_on_c, 1, 77, 0
3, 31785, Note_on_c, 1, 79, 89
3, 31800, Note_on_c, 1, 69, 0
3, 31830, Note_on_c, 1, 69, 89
3, 31860, Note_on_c, 1, 79, 0
3, 31875, Note_on_c, 1, 81, 89
3, 31890, Note_on_c, 1, 69, 0
3, 31920, Note_on_c, 1, 69, 89
3, 31950, Note_on_c, 1, 81, 0
3, 31965, Note_on_c, 1, 77, 89
3, 31980, Note_on_c, 1, 69, 0
3, 32010, Note_on_c, 1, 69, 89
3, 32040, Note_on_c, 1, 77, 0
3, 32055, Note_on_c, 1, 79, 89
3, 32070, Note_on_c, 1, 69, 0
3, 32100, Note_on_c, 1, 69, 89
3, 32130, Note_on_c, 1, 79, 0
3, 32145, Note_on_c, 1, 81, 89
3, 32160, Note_on_c, 1, 69, 0
3, 32190, Note_on_c, 1, 69, 89
3, 32220, Note_on_c, 1, 81, 0
3, 32235, Note_on_c, 1, 82, 89
3, 32250, Note_on_c, 1, 69, 0
3, 32280, Note_on_c, 1, 69, 89
3, 32310, Note_on_c, 1, 82, 0
3, 32325, Note_on_c, 1, 79, 89
3, 32340, Note_on_c, 1, 69, 0
3, 32370, Note_on_c, 1, 69, 89
3, 32400, Note_on_c, 1, 79, 0
3, 32415, Note_on_c, 1, 81, 89
3, 32430, Note_on_c, 1, 69, 0
3, 32460, Note_on_c, 1, 69, 89
3, 32490, Note_on_c, 1, 81, 0
3, 32505, Note_on_c, 1, 77, 89
3, 32520, Note_on_c, 1, 69, 0
3, 32550, Note_on_c, 1, 69, 89
3, 32580, Note_on_c, 1, 77, 0
3, 32595, Note_on_c, 1, 79, 89
3, 32610, Note_on_c, 1, 69, 0
3, 32640, Note_on_c, 1, 69, 89
3, 32670, Note_on_c, 1, 79, 0
3, 32685, Note_on_c, 1, 76, 89
3, 32700, Note_on_c, 1, 69, 0
3, 32730, Note_on_c, 1, 69, 89
3, 32760, Note_on_c, 1, 76, 0
3, 32775, Note_on_c, 1, 77, 89
3, 32790, Note_on_c, 1, 69, 0
3, 32820, Note_on_c, 1, 69, 89
3, 32850, Note_on_c, 1, 77, 0
3, 32865, Note_on_c, 1, 74, 89
3, 32880, Note_on_c, 1, 69, 0
3, 32910, Note_on_c, 1, 69, 89
3, 32940, Note_on_c, 1, 74, 0
3, 32955, Note_on_c, 1, 76, 89
3, 32970, Note_on_c, 1, 69, 0
3, 33000, Note_on_c, 1, 69, 89
3, 33030, Note_on_c, 1, 76, 0
3, 33045, Note_on_c, 1, 73, 89
3, 33060, Note_on_c, 1, 69, 0
3, 33090, Note_on_c, 1, 69, 89
3, 33120, Note_on_c, 1, 73, 0
3, 33135, Note_on_c, 1, 74, 89
3, 33150, Note_on_c, 1, 69, 0
3, 33178, Note_on_c, 1, 69, 89
3, 33210, Note_on_c, 1, 74, 0
3, 33246, Note_on_c, 1, 69, 0
3, 33267, Note_on_c, 1, 69, 89
3, 33316, Note_on_c, 1, 70, 89
3, 33327, Note_on_c, 1, 69, 0
3, 33360, Note_on_c, 1, 69, 89
3, 33391, Note_on_c, 1, 70, 0
3, 33405, Note_on_c, 1, 67, 89
3, 33420, Note_on_c, 1, 69, 0
3, 33450, Note_on_c, 1, 69, 89
3, 33480, Note_on_c, 1, 67, 0
3, 33585, Note_on_c, 1, 65, 89
3, 33660, Note_on_c, 1, 65, 0
3, 33675, Note_on_c, 1, 67, 89
3, 33690, Note_on_c, 1, 69, 0
3, 33720, Note_on_c, 1, 69, 89
3, 33750, Note_on_c, 1, 67, 0
3, 33765, Note_on_c, 1, 64, 89
3, 33780, Note_on_c, 1, 69, 0
3, 33810, Note_on_c, 1, 69, 89
3, 33840, Note_on_c, 1, 64, 0
3, 33855, Note_on_c, 1, 65, 89
3, 33870, Note_on_c, 1, 69, 0
3, 33900, Note_on_c, 1, 69, 89
3, 33930, Note_on_c, 1, 65, 0
3, 33945, Note_on_c, 1, 62, 89
3, 33960, Note_on_c, 1, 69, 0
3, 33990, Note_on_c, 1, 69, 89
3, 34020, Note_on_c, 1, 62, 0
3, 34035, Note_on_c, 1, 67, 89
3, 34050, Note_on_c, 1, 69, 0
3, 34080, Note_on_c, 1, 69, 89
3, 34110, Note_on_c, 1, 67, 0
3, 34125, Note_on_c, 1, 64, 89
3, 34140, Note_on_c, 1, 69, 0
3, 34170, Note_on_c, 1, 69, 89
3, 34200, Note_on_c, 1, 64, 0
3, 34215, Note_on_c, 1, 65, 89
3, 34230, Note_on_c, 1, 69, 0
3, 34260, Note_on_c, 1, 69, 89
3, 34290, Note_on_c, 1, 65, 0
3, 34305, Note_on_c, 1, 62, 89
3, 34320, Note_on_c, 1, 69, 0
3, 34350, Note_on_c, 1, 69, 89
3, 34380, Note_on_c, 1, 62, 0
3, 34395, Note_on_c, 1, 64, 89
3, 34410, Note_on_c, 1, 69, 0
3, 34440, Note_on_c, 1, 69, 89
3, 34470, Note_on_c, 1, 64, 0
3, 34485, Note_on_c, 1, 61, 89
3, 34500, Note_on_c, 1, 69, 0
3, 34530, Note_on_c, 1, 69, 89
3, 34560, Note_on_c, 1, 61, 0
3, 34575, Note_on_c, 1, 62, 89
3, 34590, Note_on_c, 1, 69, 0
3, 34620, Note_on_c, 1, 69, 89
3, 34650, Note_on_c, 1, 62, 0
3, 34665, Note_on_c, 1, 57, 89
3, 34680, Note_on_c, 1, 69, 0
3, 34710, Note_on_c, 1, 69, 89
3, 34740, Note_on_c, 1, 57, 0
3, 34755, Note_on_c, 1, 58, 89
3, 34770, Note_on_c, 1, 69, 0
3, 34800, Note_on_c, 1, 69, 89
3, 34830, Note_on_c, 1, 58, 0
3, 34845, Note_on_c, 1, 55, 89
3, 34860, Note_on_c, 1, 69, 0
3, 34890, Note_on_c, 1, 69, 89
3, 34920, Note_on_c, 1, 55, 0
3, 34935, Note_on_c, 1, 57, 89
3, 34950, Note_on_c, 1, 69, 0
3, 34980, Note_on_c, 1, 69, 89
3, 35010, Note_on_c, 1, 57, 0
3, 35025, Note_on_c, 1, 53, 89
3, 35040, Note_on_c, 1, 69, 0
3, 35070, Note_on_c, 1, 69, 89
3, 35100, Note_on_c, 1, 53, 0
3, 35115, Note_on_c, 1, 55, 89
3, 35130, Note_on_c, 1, 69, 0
3, 35160, Note_on_c, 1, 69, 89
3, 35190, Note_on_c, 1, 55, 0
3, 35205, Note_on_c, 1, 52, 89
3, 35220, Note_on_c, 1, 69, 0
3, 35250, Note_on_c, 1, 69, 89
3, 35280, Note_on_c, 1, 52, 0
3, 35295, Note_on_c, 1, 53, 89
3, 35310, Note_on_c, 1, 69, 0
3, 35340, Note_on_c, 1, 69, 89
3, 35370, Note_on_c, 1, 53, 0
3, 35385, Note_on_c, 1, 50, 89
3, 35400, Note_on_c, 1, 69, 0
3, 35430, Note_on_c, 1, 69, 89
3, 35460, Note_on_c, 1, 50, 0
3, 35475, Note_on_c, 1, 55, 89
3, 35490, Note_on_c, 1, 69, 0
3, 35520, Note_on_c, 1, 69, 89
3, 35550, Note_on_c, 1, 55, 0
3, 35565, Note_on_c, 1, 52, 89
3, 35580, Note_on_c, 1, 69, 0
3, 35610, Note_on_c, 1, 69, 89
3, 35640, Note_on_c, 1, 52, 0
3, 35655, Note_on_c, 1, 53, 89
3, 35670, Note_on_c, 1, 69, 0
3, 35700, Note_on_c, 1, 69, 89
3, 35730, Note_on_c, 1, 53, 0
3, 35745, Note_on_c, 1, 50, 89
3, 35760, Note_on_c, 1, 69, 0
3, 35790, Note_on_c, 1, 69, 89
3, 35820, Note_on_c, 1, 50, 0
3, 35835, Note_on_c, 1, 52, 89
3, 35850, Note_on_c, 1, 69, 0
3, 35880, Note_on_c, 1, 69, 89
3, 35910, Note_on_c, 1, 52, 0
3, 35925, Note_on_c, 1, 49, 89
3, 35940, Note_on_c, 1, 69, 0
3, 36000, Note_on_c, 1, 49, 0
3, 36030, Note_on_c, 1, 50, 89
3, 36255, Note_on_c, 1, 50, 0
3, 37230, Note_on_c, 1, 62, 89
3, 37230, Note_on_c, 1, 50, 89
3, 37305, Note_on_c, 1, 62, 0
3, 37320, Note_on_c, 1, 65, 89
3, 37320, Note_on_c, 1, 70, 89
3, 37395, Note_on_c, 1, 50, 0
3, 37395, Note_on_c, 1, 65, 0
3, 37395, Note_on_c, 1, 70, 0
3, 37410, Note_on_c, 1, 57, 89
3, 37410, Note_on_c, 1, 48, 89
3, 37485, Note_on_c, 1, 57, 0
3, 37500, Note_on_c, 1, 64, 89
3, 37500, Note_on_c, 1, 69, 89
3, 37575, Note_on_c, 1, 48, 0
3, 37575, Note_on_c, 1, 64, 0
3, 37575, Note_on_c, 1, 69, 0
3, 37590, Note_on_c, 1, 58, 89
3, 37590, Note_on_c, 1, 46, 89
3, 37665, Note_on_c, 1, 58, 0
3, 37680, Note_on_c, 1, 62, 89
3, 37680, Note_on_c, 1, 67, 89
3, 37755, Note_on_c, 1, 46, 0
3, 37755, Note_on_c, 1, 62, 0
3, 37755, Note_on_c, 1, 67, 0
3, 37770, Note_on_c, 1, 45, 89
3, 37770, Note_on_c, 1, 69, 89
3, 37770, Note_on_c, 1, 64, 89
3, 37770, Note_on_c, 1, 61, 89
3, 37935, Note_on_c, 1, 45, 0
3, 37935, Note_on_c, 1, 69, 0
3, 37935, Note_on_c, 1, 64, 0
3, 37935, Note_on_c, 1, 61, 0
3, 39150, Note_on_c, 1, 62, 89
3, 39150, Note_on_c, 1, 50, 89
3, 39225, Note_on_c, 1, 62, 0
3, 39240, Note_on_c, 1, 65, 89
3, 39240, Note_on_c, 1, 70, 89
3, 39315, Note_on_c, 1, 50, 0
3, 39315, Note_on_c, 1, 65, 0
3, 39315, Note_on_c, 1, 70, 0
3, 39330, Note_on_c, 1, 57, 89
3, 39330, Note_on_c, 1, 48, 89
3, 39405, Note_on_c, 1, 57, 0
3, 39420, Note_on_c, 1, 64, 89
3, 39420, Note_on_c, 1, 69, 89
3, 39495, Note_on_c, 1, 48, 0
3, 39495, Note_on_c, 1, 64, 0
3, 39495, Note_on_c, 1, 69, 0
3, 39510, Note_on_c, 1, 58, 89
3, 39510, Note_on_c, 1, 46, 89
3, 39585, Note_on_c, 1, 58, 0
3, 39600, Note_on_c, 1, 62, 89
3, 39600, Note_on_c, 1, 67, 89
3, 39675, Note_on_c, 1, 46, 0
3, 39675, Note_on_c, 1, 62, 0
3, 39675, Note_on_c, 1, 67, 0
3, 39690, Note_on_c, 1, 45, 89
3, 39690, Note_on_c, 1, 69, 89
3, 39690, Note_on_c, 1, 64, 89
3, 39690, Note_on_c, 1, 61, 89
3, 39690, Note_on_c, 1, 52, 89
3, 40080, Note_on_c, 1, 45, 0
3, 40080, Note_on_c, 1, 64, 0
3, 40080, Note_on_c, 1, 61, 0
3, 40080, Note_on_c, 1, 52, 0
3, 40125, Note_on_c, 1, 69, 0
3, 40140, Note_on_c, 1, 67, 89
3, 40170, Note_on_c, 1, 67, 0
3, 40185, Note_on_c, 1, 65, 89
3, 40215, Note_on_c, 1, 65, 0
3, 40230, Note_on_c, 1, 64, 89
3, 40260, Note_on_c, 1, 64, 0
3, 40275, Note_on_c, 1, 62, 89
3, 40305, Note_on_c, 1, 62, 0
3, 40320, Note_on_c, 1, 61, 89
3, 40350, Note_on_c, 1, 61, 0
3, 40365, Note_on_c, 1, 59, 89
3, 40395, Note_on_c, 1, 59, 0
3, 40410, Note_on_c, 1, 61, 89
3, 40440, Note_on_c, 1, 61, 0
3, 40455, Note_on_c, 1, 57, 89
3, 40485, Note_on_c, 1, 57, 0
3, 40500, Note_on_c, 1, 59, 89
3, 40530, Note_on_c, 1, 59, 0
3, 40545, Note_on_c, 1, 61, 89
3, 40575, Note_on_c, 1, 61, 0
3, 40590, Note_on_c, 1, 62, 89
3, 40620, Note_on_c, 1, 62, 0
3, 40635, Note_on_c, 1, 64, 89
3, 40665, Note_on_c, 1, 64, 0
3, 40680, Note_on_c, 1, 65, 89
3, 40710, Note_on_c, 1, 65, 0
3, 40725, Note_on_c, 1, 67, 89
3, 40755, Note_on_c, 1, 67, 0
3, 40770, Note_on_c, 1, 69, 89
3, 40800, Note_on_c, 1, 69, 0
3, 40815, Note_on_c, 1, 67, 89
3, 40845, Note_on_c, 1, 67, 0
3, 40860, Note_on_c, 1, 65, 89
3, 40890, Note_on_c, 1, 65, 0
3, 40905, Note_on_c, 1, 64, 89
3, 40935, Note_on_c, 1, 64, 0
3, 40950, Note_on_c, 1, 65, 89
3, 40980, Note_on_c, 1, 65, 0
3, 40995, Note_on_c, 1, 62, 89
3, 41025, Note_on_c, 1, 62, 0
3, 41040, Note_on_c, 1, 65, 89
3, 41070, Note_on_c, 1, 65, 0
3, 41085, Note_on_c, 1, 69, 89
3, 41115, Note_on_c, 1, 69, 0
3, 41130, Note_on_c, 1, 73, 89
3, 41160, Note_on_c, 1, 73, 0
3, 41175, Note_on_c, 1, 74, 89
3, 41205, Note_on_c, 1, 74, 0
3, 41220, Note_on_c, 1, 69, 89
3, 41250, Note_on_c, 1, 69, 0
3, 41265, Note_on_c, 1, 71, 89
3, 41295, Note_on_c, 1, 71, 0
3, 41295, Note_on_c, 1, 73, 89
3, 41325, Note_on_c, 1, 73, 0
3, 41340, Note_on_c, 1, 74, 89
3, 41370, Note_on_c, 1, 74, 0
3, 41385, Note_on_c, 1, 76, 89
3, 41415, Note_on_c, 1, 76, 0
3, 41430, Note_on_c, 1, 77, 89
3, 41460, Note_on_c, 1, 77, 0
3, 41475, Note_on_c, 1, 79, 89
3, 41505, Note_on_c, 1, 79, 0
3, 41520, Note_on_c, 1, 81, 89
3, 41550, Note_on_c, 1, 81, 0
3, 41565, Note_on_c, 1, 82, 89
3, 41760, Note_on_c, 1, 82, 0
3, 41775, Note_on_c, 1, 74, 89
3, 41775, Note_on_c, 1, 50, 89
3, 41850, Note_on_c, 1, 74, 0
3, 41865, Note_on_c, 1, 77, 89
3, 41865, Note_on_c, 1, 82, 89
3, 41940, Note_on_c, 1, 50, 0
3, 41940, Note_on_c, 1, 77, 0
3, 41940, Note_on_c, 1, 82, 0
3, 41955, Note_on_c, 1, 69, 89
3, 41955, Note_on_c, 1, 48, 89
3, 42030, Note_on_c, 1, 69, 0
3, 42045, Note_on_c, 1, 76, 89
3, 42045, Note_on_c, 1, 81, 89
3, 42120, Note_on_c, 1, 48, 0
3, 42120, Note_on_c, 1, 76, 0
3, 42120, Note_on_c, 1, 81, 0
3, 42135, Note_on_c, 1, 46, 89
3, 42135, Note_on_c, 1, 70, 89
3, 42210, Note_on_c, 1, 70, 0
3, 42225, Note_on_c, 1, 74, 89
3, 42225, Note_on_c, 1, 79, 89
3, 42300, Note_on_c, 1, 46, 0
3, 42300, Note_on_c, 1, 74, 0
3, 42300, Note_on_c, 1, 79, 0
3, 42315, Note_on_c, 1, 57, 89
3, 42315, Note_on_c, 1, 81, 89
3, 42315, Note_on_c, 1, 76, 89
3, 42315, Note_on_c, 1, 73, 89
3, 42315, Note_on_c, 1, 64, 89
3, 42315, Note_on_c, 1, 45, 89
3, 42720, Note_on_c, 1, 57, 0
3, 42720, Note_on_c, 1, 81, 0
3, 42720, Note_on_c, 1, 76, 0
3, 42720, Note_on_c, 1, 73, 0
3, 42720, Note_on_c, 1, 64, 0
3, 42720, Note_on_c, 1, 45, 0
3, 43500, Note_on_c, 1, 50, 89
3, 43500, Note_on_c, 1, 74, 89
3, 43605, Note_on_c, 1, 74, 0
3, 43620, Note_on_c, 1, 82, 89
3, 43620, Note_on_c, 1, 77, 89
3, 43725, Note_on_c, 1, 50, 0
3, 43725, Note_on_c, 1, 82, 0
3, 43725, Note_on_c, 1, 77, 0
3, 43740, Note_on_c, 1, 48, 89
3, 43740, Note_on_c, 1, 69, 89
3, 43845, Note_on_c, 1, 69, 0
3, 43860, Note_on_c, 1, 81, 89
3, 43860, Note_on_c, 1, 76, 89
3, 43965, Note_on_c, 1, 48, 0
3, 43965, Note_on_c, 1, 81, 0
3, 43965, Note_on_c, 1, 76, 0
3, 43980, Note_on_c, 1, 46, 89
3, 43980, Note_on_c, 1, 70, 89
3, 44085, Note_on_c, 1, 70, 0
3, 44100, Note_on_c, 1, 79, 89
3, 44100, Note_on_c, 1, 74, 89
3, 44205, Note_on_c, 1, 46, 0
3, 44205, Note_on_c, 1, 79, 0
3, 44205, Note_on_c, 1, 74, 0
3, 44220, Note_on_c, 1, 45, 89
3, 44220, Note_on_c, 1, 64, 89
3, 44220, Note_on_c, 1, 69, 89
3, 44220, Note_on_c, 1, 73, 89
3, 44220, Note_on_c, 1, 76, 89
3, 44220, Note_on_c, 1, 81, 89
3, 44445, Note_on_c, 1, 45, 0
3, 44445, Note_on_c, 1, 64, 0
3, 44445, Note_on_c, 1, 69, 0
3, 44445, Note_on_c, 1, 73, 0
3, 44445, Note_on_c, 1, 76, 0
3, 44445, Note_on_c, 1, 81, 0
3, 44460, Note_on_c, 1, 44, 89
3, 44460, Note_on_c, 1, 59, 89
3, 44460, Note_on_c, 1, 71, 89
3, 44460, Note_on_c, 1, 65, 89
3, 44460, Note_on_c, 1, 74, 89
3, 44685, Note_on_c, 1, 44, 0
3, 44685, Note_on_c, 1, 59, 0
3, 44685, Note_on_c, 1, 71, 0
3, 44685, Note_on_c, 1, 65, 0
3, 44685, Note_on_c, 1, 74, 0
3, 44700, Note_on_c, 1, 73, 89
3, 44700, Note_on_c, 1, 69, 89
3, 44700, Note_on_c, 1, 64, 89
3, 44700, Note_on_c, 1, 57, 89
3, 44700, Note_on_c, 1, 43, 89
3, 45150, Note_on_c, 1, 73, 0
3, 45150, Note_on_c, 1, 69, 0
3, 45150, Note_on_c, 1, 64, 0
3, 45150, Note_on_c, 1, 57, 0
3, 45150, Note_on_c, 1, 43, 0
3, 45165, Note_on_c, 1, 71, 89
3, 45210, Note_on_c, 1, 71, 0
3, 45225, Note_on_c, 1, 69, 89
3, 45270, Note_on_c, 1, 69, 0
3, 45285, Note_on_c, 1, 73, 89
3, 45330, Note_on_c, 1, 73, 0
3, 45345, Note_on_c, 1, 76, 89
3, 45375, Note_on_c, 1, 76, 0
3, 45390, Note_on_c, 1, 79, 89
3, 45420, Note_on_c, 1, 79, 0
3, 45435, Note_on_c, 1, 82, 89
3, 45510, Note_on_c, 1, 82, 0
3, 45525, Note_on_c, 1, 81, 89
3, 45555, Note_on_c, 1, 81, 0
3, 45570, Note_on_c, 1, 79, 89
3, 45600, Note_on_c, 1, 79, 0
3, 45615, Note_on_c, 1, 77, 89
3, 45645, Note_on_c, 1, 77, 0
3, 45660, Note_on_c, 1, 76, 89
3, 45690, Note_on_c, 1, 76, 0
3, 45705, Note_on_c, 1, 77, 89
3, 45735, Note_on_c, 1, 77, 0
3, 45750, Note_on_c, 1, 76, 89
3, 45780, Note_on_c, 1, 76, 0
3, 45795, Note_on_c, 1, 74, 89
3, 45825, Note_on_c, 1, 74, 0
3, 45840, Note_on_c, 1, 73, 89
3, 45870, Note_on_c, 1, 73, 0
3, 45885, Note_on_c, 1, 74, 89
3, 45915, Note_on_c, 1, 74, 0
3, 45930, Note_on_c, 1, 72, 89
3, 45960, Note_on_c, 1, 72, 0
3, 45975, Note_on_c, 1, 70, 89
3, 46005, Note_on_c, 1, 70, 0
3, 46020, Note_on_c, 1, 69, 89
3, 46050, Note_on_c, 1, 69, 0
3, 46065, Note_on_c, 1, 67, 89
3, 46095, Note_on_c, 1, 67, 0
3, 46095, Note_on_c, 1, 65, 89
3, 46125, Note_on_c, 1, 65, 0
3, 46140, Note_on_c, 1, 64, 89
3, 46170, Note_on_c, 1, 64, 0
3, 46185, Note_on_c, 1, 62, 89
3, 46215, Note_on_c, 1, 62, 0
3, 46230, Note_on_c, 1, 55, 89
3, 46230, Note_on_c, 1, 76, 89
3, 46230, Note_on_c, 1, 70, 89
3, 46230, Note_on_c, 1, 67, 89
3, 46230, Note_on_c, 1, 61, 89
3, 46230, Note_on_c, 1, 73, 89
3, 46230, Note_on_c, 1, 64, 89
3, 47040, Note_on_c, 1, 55, 0
3, 47040, Note_on_c, 1, 76, 0
3, 47040, Note_on_c, 1, 70, 0
3, 47040, Note_on_c, 1, 67, 0
3, 47040, Note_on_c, 1, 61, 0
3, 47130, Note_on_c, 1, 73, 0
3, 47130, Note_on_c, 1, 64, 0
3, 47145, Note_on_c, 1, 76, 89
3, 47145, Note_on_c, 1, 67, 89
3, 47220, Note_on_c, 1, 76, 0
3, 47220, Note_on_c, 1, 67, 0
3, 47235, Note_on_c, 1, 73, 89
3, 47235, Note_on_c, 1, 64, 89
3, 47310, Note_on_c, 1, 73, 0
3, 47310, Note_on_c, 1, 64, 0
3, 47325, Note_on_c, 1, 70, 89
3, 47325, Note_on_c, 1, 61, 89
3, 47400, Note_on_c, 1, 70, 0
3, 47400, Note_on_c, 1, 61, 0
3, 47415, Note_on_c, 1, 73, 89
3, 47415, Note_on_c, 1, 64, 89
3, 47490, Note_on_c, 1, 73, 0
3, 47490, Note_on_c, 1, 64, 0
3, 47505, Note_on_c, 1, 70, 89
3, 47505, Note_on_c, 1, 61, 89
3, 47580, Note_on_c, 1, 70, 0
3, 47580, Note_on_c, 1, 61, 0
3, 47595, Note_on_c, 1, 73, 89
3, 47595, Note_on_c, 1, 64, 89
3, 47670, Note_on_c, 1, 73, 0
3, 47670, Note_on_c, 1, 64, 0
3, 47685, Note_on_c, 1, 76, 89
3, 47685, Note_on_c, 1, 67, 89
3, 47760, Note_on_c, 1, 76, 0
3, 47760, Note_on_c, 1, 67, 0
3, 47775, Note_on_c, 1, 73, 89
3, 47775, Note_on_c, 1, 64, 89
3, 47850, Note_on_c, 1, 73, 0
3, 47850, Note_on_c, 1, 64, 0
3, 47865, Note_on_c, 1, 70, 89
3, 47865, Note_on_c, 1, 61, 89
3, 47940, Note_on_c, 1, 70, 0
3, 47940, Note_on_c, 1, 61, 0
3, 47955, Note_on_c, 1, 64, 89
3, 47955, Note_on_c, 1, 73, 89
3, 48030, Note_on_c, 1, 64, 0
3, 48030, Note_on_c, 1, 73, 0
3, 48045, Note_on_c, 1, 70, 89
3, 48045, Note_on_c, 1, 61, 89
3, 48120, Note_on_c, 1, 70, 0
3, 48120, Note_on_c, 1, 61, 0
3, 48135, Note_on_c, 1, 73, 89
3, 48135, Note_on_c, 1, 64, 89
3, 48210, Note_on_c, 1, 73, 0
3, 48210, Note_on_c, 1, 64, 0
3, 48225, Note_on_c, 1, 76, 89
3, 48225, Note_on_c, 1, 67, 89
3, 48300, Note_on_c, 1, 76, 0
3, 48300, Note_on_c, 1, 67, 0
3, 48315, Note_on_c, 1, 73, 89
3, 48315, Note_on_c, 1, 64, 89
3, 48390, Note_on_c, 1, 73, 0
3, 48390, Note_on_c, 1, 64, 0
3, 48405, Note_on_c, 1, 70, 89
3, 48405, Note_on_c, 1, 61, 89
3, 48480, Note_on_c, 1, 70, 0
3, 48480, Note_on_c, 1, 61, 0
3, 48495, Note_on_c, 1, 73, 89
3, 48495, Note_on_c, 1, 64, 89
3, 48570, Note_on_c, 1, 73, 0
3, 48570, Note_on_c, 1, 64, 0
3, 48585, Note_on_c, 1, 70, 89
3, 48585, Note_on_c, 1, 61, 89
3, 48660, Note_on_c, 1, 70, 0
3, 48660, Note_on_c, 1, 61, 0
3, 48675, Note_on_c, 1, 73, 89
3, 48675, Note_on_c, 1, 64, 89
3, 48750, Note_on_c, 1, 73, 0
3, 48750, Note_on_c, 1, 64, 0
3, 48765, Note_on_c, 1, 76, 89
3, 48765, Note_on_c, 1, 67, 89
3, 48840, Note_on_c, 1, 76, 0
3, 48840, Note_on_c, 1, 67, 0
3, 48855, Note_on_c, 1, 73, 89
3, 48855, Note_on_c, 1, 64, 89
3, 48930, Note_on_c, 1, 73, 0
3, 48930, Note_on_c, 1, 64, 0
3, 48945, Note_on_c, 1, 61, 89
3, 48945, Note_on_c, 1, 70, 89
3, 49020, Note_on_c, 1, 61, 0
3, 49020, Note_on_c, 1, 70, 0
3, 49035, Note_on_c, 1, 73, 89
3, 49035, Note_on_c, 1, 64, 89
3, 49110, Note_on_c, 1, 73, 0
3, 49110, Note_on_c, 1, 64, 0
3, 49125, Note_on_c, 1, 70, 89
3, 49125, Note_on_c, 1, 61, 89
3, 49200, Note_on_c, 1, 70, 0
3, 49200, Note_on_c, 1, 61, 0
3, 49215, Note_on_c, 1, 67, 89
3, 49215, Note_on_c, 1, 58, 89
3, 49290, Note_on_c, 1, 67, 0
3, 49290, Note_on_c, 1, 58, 0
3, 49305, Note_on_c, 1, 70, 89
3, 49305, Note_on_c, 1, 61, 89
3, 49380, Note_on_c, 1, 70, 0
3, 49380, Note_on_c, 1, 61, 0
3, 49395, Note_on_c, 1, 67, 89
3, 49395, Note_on_c, 1, 58, 89
3, 49470, Note_on_c, 1, 67, 0
3, 49470, Note_on_c, 1, 58, 0
3, 49485, Note_on_c, 1, 64, 89
3, 49485, Note_on_c, 1, 55, 89
3, 49560, Note_on_c, 1, 64, 0
3, 49560, Note_on_c, 1, 55, 0
3, 49575, Note_on_c, 1, 67, 89
3, 49575, Note_on_c, 1, 58, 89
3, 49650, Note_on_c, 1, 67, 0
3, 49650, Note_on_c, 1, 58, 0
3, 49665, Note_on_c, 1, 64, 89
3, 49665, Note_on_c, 1, 55, 89
3, 49740, Note_on_c, 1, 64, 0
3, 49740, Note_on_c, 1, 55, 0
3, 49755, Note_on_c, 1, 67, 89
3, 49755, Note_on_c, 1, 58, 89
3, 49830, Note_on_c, 1, 67, 0
3, 49830, Note_on_c, 1, 58, 0
3, 49845, Note_on_c, 1, 61, 89
3, 49845, Note_on_c, 1, 70, 89
3, 49920, Note_on_c, 1, 61, 0
3, 49920, Note_on_c, 1, 70, 0
3, 49935, Note_on_c, 1, 67, 89
3, 49935, Note_on_c, 1, 58, 89
3, 50010, Note_on_c, 1, 67, 0
3, 50010, Note_on_c, 1, 58, 0
3, 50025, Note_on_c, 1, 64, 89
3, 50025, Note_on_c, 1, 55, 89
3, 50100, Note_on_c, 1, 64, 0
3, 50100, Note_on_c, 1, 55, 0
3, 50115, Note_on_c, 1, 67, 89
3, 50115, Note_on_c, 1, 58, 89
3, 50190, Note_on_c, 1, 67, 0
3, 50190, Note_on_c, 1, 58, 0
3, 50205, Note_on_c, 1, 64, 89
3, 50205, Note_on_c, 1, 55, 89
3, 50280, Note_on_c, 1, 64, 0
3, 50280, Note_on_c, 1, 55, 0
3, 50295, Note_on_c, 1, 67, 89
3, 50295, Note_on_c, 1, 58, 89
3, 50370, Note_on_c, 1, 67, 0
3, 50370, Note_on_c, 1, 58, 0
3, 50385, Note_on_c, 1, 70, 89
3, 50385, Note_on_c, 1, 61, 89
3, 50460, Note_on_c, 1, 70, 0
3, 50460, Note_on_c, 1, 61, 0
3, 50475, Note_on_c, 1, 67, 89
3, 50475, Note_on_c, 1, 58, 89
3, 50550, Note_on_c, 1, 67, 0
3, 50550, Note_on_c, 1, 58, 0
3, 50565, Note_on_c, 1, 64, 89
3, 50565, Note_on_c, 1, 55, 89
3, 50640, Note_on_c, 1, 64, 0
3, 50640, Note_on_c, 1, 55, 0
3, 50655, Note_on_c, 1, 67, 89
3, 50655, Note_on_c, 1, 58, 89
3, 50730, Note_on_c, 1, 67, 0
3, 50730, Note_on_c, 1, 58, 0
3, 50745, Note_on_c, 1, 64, 89
3, 50745, Note_on_c, 1, 55, 89
3, 50820, Note_on_c, 1, 64, 0
3, 50820, Note_on_c, 1, 55, 0
3, 50835, Note_on_c, 1, 58, 89
3, 50835, Note_on_c, 1, 67, 89
3, 50910, Note_on_c, 1, 58, 0
3, 50910, Note_on_c, 1, 67, 0
3, 50925, Note_on_c, 1, 70, 89
3, 50925, Note_on_c, 1, 61, 89
3, 51000, Note_on_c, 1, 70, 0
3, 51000, Note_on_c, 1, 61, 0
3, 51015, Note_on_c, 1, 67, 89
3, 51015, Note_on_c, 1, 58, 89
3, 51090, Note_on_c, 1, 67, 0
3, 51090, Note_on_c, 1, 58, 0
3, 51105, Note_on_c, 1, 64, 89
3, 51105, Note_on_c, 1, 55, 89
3, 51180, Note_on_c, 1, 64, 0
3, 51180, Note_on_c, 1, 55, 0
3, 51195, Note_on_c, 1, 67, 89
3, 51195, Note_on_c, 1, 58, 89
3, 51270, Note_on_c, 1, 67, 0
3, 51270, Note_on_c, 1, 58, 0
3, 51285, Note_on_c, 1, 64, 89
3, 51285, Note_on_c, 1, 55, 89
3, 51360, Note_on_c, 1, 64, 0
3, 51360, Note_on_c, 1, 55, 0
3, 51375, Note_on_c, 1, 61, 89
3, 51375, Note_on_c, 1, 52, 89
3, 51450, Note_on_c, 1, 61, 0
3, 51450, Note_on_c, 1, 52, 0
3, 51465, Note_on_c, 1, 64, 89
3, 51465, Note_on_c, 1, 55, 89
3, 51540, Note_on_c, 1, 64, 0
3, 51540, Note_on_c, 1, 55, 0
3, 51555, Note_on_c, 1, 61, 89
3, 51555, Note_on_c, 1, 52, 89
3, 51630, Note_on_c, 1, 61, 0
3, 51630, Note_on_c, 1, 52, 0
3, 51645, Note_on_c, 1, 58, 89
3, 51645, Note_on_c, 1, 49, 89
3, 51720, Note_on_c, 1, 58, 0
3, 51720, Note_on_c, 1, 49, 0
3, 51735, Note_on_c, 1, 61, 89
3, 51735, Note_on_c, 1, 52, 89
3, 51810, Note_on_c, 1, 61, 0
3, 51810, Note_on_c, 1, 52, 0
3, 51825, Note_on_c, 1, 49, 89
3, 51825, Note_on_c, 1, 58, 89
3, 51900, Note_on_c, 1, 49, 0
3, 51900, Note_on_c, 1, 58, 0
3, 51915, Note_on_c, 1, 61, 89
3, 51915, Note_on_c, 1, 52, 89
3, 51990, Note_on_c, 1, 61, 0
3, 51990, Note_on_c, 1, 52, 0
3, 52005, Note_on_c, 1, 64, 89
3, 52005, Note_on_c, 1, 55, 89
3, 52080, Note_on_c, 1, 64, 0
3, 52080, Note_on_c, 1, 55, 0
3, 52095, Note_on_c, 1, 61, 89
3, 52095, Note_on_c, 1, 52, 89
3, 52170, Note_on_c, 1, 61, 0
3, 52170, Note_on_c, 1, 52, 0
3, 52185, Note_on_c, 1, 58, 89
3, 52185, Note_on_c, 1, 49, 89
3, 52260, Note_on_c, 1, 58, 0
3, 52260, Note_on_c, 1, 49, 0
3, 52275, Note_on_c, 1, 61, 89
3, 52275, Note_on_c, 1, 52, 89
3, 52350, Note_on_c, 1, 61, 0
3, 52350, Note_on_c, 1, 52, 0
3, 52365, Note_on_c, 1, 58, 89
3, 52365, Note_on_c, 1, 49, 89
3, 52440, Note_on_c, 1, 58, 0
3, 52440, Note_on_c, 1, 49, 0
3, 52455, Note_on_c, 1, 61, 89
3, 52455, Note_on_c, 1, 52, 89
3, 52530, Note_on_c, 1, 61, 0
3, 52530, Note_on_c, 1, 52, 0
3, 52545, Note_on_c, 1, 64, 89
3, 52545, Note_on_c, 1, 55, 89
3, 52620, Note_on_c, 1, 64, 0
3, 52620, Note_on_c, 1, 55, 0
3, 52635, Note_on_c, 1, 61, 89
3, 52635, Note_on_c, 1, 52, 89
3, 52710, Note_on_c, 1, 61, 0
3, 52710, Note_on_c, 1, 52, 0
3, 52725, Note_on_c, 1, 49, 89
3, 52725, Note_on_c, 1, 58, 89
3, 52800, Note_on_c, 1, 49, 0
3, 52800, Note_on_c, 1, 58, 0
3, 52815, Note_on_c, 1, 61, 89
3, 52815, Note_on_c, 1, 52, 89
3, 52890, Note_on_c, 1, 61, 0
3, 52890, Note_on_c, 1, 52, 0
3, 52905, Note_on_c, 1, 58, 89
3, 52905, Note_on_c, 1, 49, 89
3, 52980, Note_on_c, 1, 58, 0
3, 52980, Note_on_c, 1, 49, 0
3, 52995, Note_on_c, 1, 61, 89
3, 52995, Note_on_c, 1, 52, 89
3, 53070, Note_on_c, 1, 61, 0
3, 53070, Note_on_c, 1, 52, 0
3, 53085, Note_on_c, 1, 64, 89
3, 53085, Note_on_c, 1, 55, 89
3, 53160, Note_on_c, 1, 64, 0
3, 53160, Note_on_c, 1, 55, 0
3, 53175, Note_on_c, 1, 61, 89
3, 53175, Note_on_c, 1, 52, 89
3, 53250, Note_on_c, 1, 61, 0
3, 53250, Note_on_c, 1, 52, 0
3, 53265, Note_on_c, 1, 58, 89
3, 53265, Note_on_c, 1, 49, 89
3, 53340, Note_on_c, 1, 58, 0
3, 53340, Note_on_c, 1, 49, 0
3, 53355, Note_on_c, 1, 61, 89
3, 53355, Note_on_c, 1, 52, 89
3, 53430, Note_on_c, 1, 61, 0
3, 53430, Note_on_c, 1, 52, 0
3, 53445, Note_on_c, 1, 58, 89
3, 53445, Note_on_c, 1, 49, 89
3, 53520, Note_on_c, 1, 58, 0
3, 53520, Note_on_c, 1, 49, 0
3, 53535, Note_on_c, 1, 61, 89
3, 53535, Note_on_c, 1, 52, 89
3, 53610, Note_on_c, 1, 61, 0
3, 53610, Note_on_c, 1, 52, 0
3, 53625, Note_on_c, 1, 64, 89
3, 53625, Note_on_c, 1, 55, 89
3, 53700, Note_on_c, 1, 64, 0
3, 53700, Note_on_c, 1, 55, 0
3, 53715, Note_on_c, 1, 52, 89
3, 53715, Note_on_c, 1, 61, 89
3, 53790, Note_on_c, 1, 52, 0
3, 53790, Note_on_c, 1, 61, 0
3, 53805, Note_on_c, 1, 64, 89
3, 53805, Note_on_c, 1, 55, 89
3, 53880, Note_on_c, 1, 64, 0
3, 53880, Note_on_c, 1, 55, 0
3, 53895, Note_on_c, 1, 67, 89
3, 53970, Note_on_c, 1, 67, 0
3, 53985, Note_on_c, 1, 64, 89
3, 53985, Note_on_c, 1, 55, 89
3, 54060, Note_on_c, 1, 64, 0
3, 54060, Note_on_c, 1, 55, 0
3, 54075, Note_on_c, 1, 61, 89
3, 54075, Note_on_c, 1, 52, 89
3, 54150, Note_on_c, 1, 61, 0
3, 54150, Note_on_c, 1, 52, 0
3, 54165, Note_on_c, 1, 64, 89
3, 54165, Note_on_c, 1, 55, 89
3, 54240, Note_on_c, 1, 64, 0
3, 54240, Note_on_c, 1, 55, 0
3, 54255, Note_on_c, 1, 61, 89
3, 54255, Note_on_c, 1, 52, 89
3, 54330, Note_on_c, 1, 61, 0
3, 54330, Note_on_c, 1, 52, 0
3, 54345, Note_on_c, 1, 64, 89
3, 54345, Note_on_c, 1, 55, 89
3, 54420, Note_on_c, 1, 64, 0
3, 54420, Note_on_c, 1, 55, 0
3, 54435, Note_on_c, 1, 67, 89
3, 54435, Note_on_c, 1, 58, 89
3, 54510, Note_on_c, 1, 67, 0
3, 54510, Note_on_c, 1, 58, 0
3, 54525, Note_on_c, 1, 64, 89
3, 54525, Note_on_c, 1, 55, 89
3, 54600, Note_on_c, 1, 64, 0
3, 54600, Note_on_c, 1, 55, 0
3, 54615, Note_on_c, 1, 61, 89
3, 54615, Note_on_c, 1, 52, 89
3, 54690, Note_on_c, 1, 61, 0
3, 54690, Note_on_c, 1, 52, 0
3, 54705, Note_on_c, 1, 55, 89
3, 54705, Note_on_c, 1, 64, 89
3, 54780, Note_on_c, 1, 55, 0
3, 54780, Note_on_c, 1, 64, 0
3, 54795, Note_on_c, 1, 61, 89
3, 54795, Note_on_c, 1, 52, 89
3, 54870, Note_on_c, 1, 61, 0
3, 54870, Note_on_c, 1, 52, 0
3, 54885, Note_on_c, 1, 64, 89
3, 54885, Note_on_c, 1, 55, 89
3, 54960, Note_on_c, 1, 64, 0
3, 54960, Note_on_c, 1, 55, 0
3, 54975, Note_on_c, 1, 67, 89
3, 54975, Note_on_c, 1, 58, 89
3, 55050, Note_on_c, 1, 67, 0
3, 55050, Note_on_c, 1, 58, 0
3, 55065, Note_on_c, 1, 64, 89
3, 55065, Note_on_c, 1, 55, 89
3, 55140, Note_on_c, 1, 64, 0
3, 55140, Note_on_c, 1, 55, 0
3, 55155, Note_on_c, 1, 61, 89
3, 55155, Note_on_c, 1, 52, 89
3, 55230, Note_on_c, 1, 61, 0
3, 55230, Note_on_c, 1, 52, 0
3, 55245, Note_on_c, 1, 64, 89
3, 55245, Note_on_c, 1, 55, 89
3, 55320, Note_on_c, 1, 64, 0
3, 55320, Note_on_c, 1, 55, 0
3, 55335, Note_on_c, 1, 61, 89
3, 55335, Note_on_c, 1, 52, 89
3, 55410, Note_on_c, 1, 61, 0
3, 55410, Note_on_c, 1, 52, 0
3, 55425, Note_on_c, 1, 64, 89
3, 55425, Note_on_c, 1, 55, 89
3, 55500, Note_on_c, 1, 64, 0
3, 55500, Note_on_c, 1, 55, 0
3, 55515, Note_on_c, 1, 67, 89
3, 55515, Note_on_c, 1, 58, 89
3, 55590, Note_on_c, 1, 67, 0
3, 55590, Note_on_c, 1, 58, 0
3, 55605, Note_on_c, 1, 55, 89
3, 55605, Note_on_c, 1, 64, 89
3, 55680, Note_on_c, 1, 55, 0
3, 55680, Note_on_c, 1, 64, 0
3, 55695, Note_on_c, 1, 67, 89
3, 55695, Note_on_c, 1, 58, 89
3, 55770, Note_on_c, 1, 67, 0
3, 55770, Note_on_c, 1, 58, 0
3, 55785, Note_on_c, 1, 70, 89
3, 55785, Note_on_c, 1, 61, 89
3, 55860, Note_on_c, 1, 70, 0
3, 55860, Note_on_c, 1, 61, 0
3, 55875, Note_on_c, 1, 67, 89
3, 55875, Note_on_c, 1, 58, 89
3, 55950, Note_on_c, 1, 67, 0
3, 55950, Note_on_c, 1, 58, 0
3, 55965, Note_on_c, 1, 70, 89
3, 55965, Note_on_c, 1, 61, 89
3, 56040, Note_on_c, 1, 70, 0
3, 56040, Note_on_c, 1, 61, 0
3, 56055, Note_on_c, 1, 67, 89
3, 56055, Note_on_c, 1, 58, 89
3, 56130, Note_on_c, 1, 67, 0
3, 56130, Note_on_c, 1, 58, 0
3, 56145, Note_on_c, 1, 70, 89
3, 56145, Note_on_c, 1, 61, 89
3, 56220, Note_on_c, 1, 70, 0
3, 56220, Note_on_c, 1, 61, 0
3, 56235, Note_on_c, 1, 67, 89
3, 56235, Note_on_c, 1, 58, 89
3, 56310, Note_on_c, 1, 67, 0
3, 56310, Note_on_c, 1, 58, 0
3, 56325, Note_on_c, 1, 70, 89
3, 56325, Note_on_c, 1, 61, 89
3, 56400, Note_on_c, 1, 70, 0
3, 56400, Note_on_c, 1, 61, 0
3, 56415, Note_on_c, 1, 67, 89
3, 56415, Note_on_c, 1, 58, 89
3, 56490, Note_on_c, 1, 67, 0
3, 56490, Note_on_c, 1, 58, 0
3, 56505, Note_on_c, 1, 70, 89
3, 56505, Note_on_c, 1, 61, 89
3, 56580, Note_on_c, 1, 70, 0
3, 56580, Note_on_c, 1, 61, 0
3, 56595, Note_on_c, 1, 58, 89
3, 56595, Note_on_c, 1, 67, 89
3, 56670, Note_on_c, 1, 58, 0
3, 56670, Note_on_c, 1, 67, 0
3, 56685, Note_on_c, 1, 70, 89
3, 56685, Note_on_c, 1, 61, 89
3, 56760, Note_on_c, 1, 70, 0
3, 56760, Note_on_c, 1, 61, 0
3, 56775, Note_on_c, 1, 73, 89
3, 56775, Note_on_c, 1, 64, 89
3, 56850, Note_on_c, 1, 73, 0
3, 56850, Note_on_c, 1, 64, 0
3, 56865, Note_on_c, 1, 70, 89
3, 56865, Note_on_c, 1, 61, 89
3, 56940, Note_on_c, 1, 70, 0
3, 56940, Note_on_c, 1, 61, 0
3, 56955, Note_on_c, 1, 73, 89
3, 56955, Note_on_c, 1, 64, 89
3, 57030, Note_on_c, 1, 73, 0
3, 57030, Note_on_c, 1, 64, 0
3, 57045, Note_on_c, 1, 76, 89
3, 57045, Note_on_c, 1, 67, 89
3, 57120, Note_on_c, 1, 76, 0
3, 57120, Note_on_c, 1, 67, 0
3, 57135, Note_on_c, 1, 73, 89
3, 57135, Note_on_c, 1, 64, 89
3, 57210, Note_on_c, 1, 73, 0
3, 57210, Note_on_c, 1, 64, 0
3, 57225, Note_on_c, 1, 76, 89
3, 57225, Note_on_c, 1, 67, 89
3, 57300, Note_on_c, 1, 76, 0
3, 57300, Note_on_c, 1, 67, 0
3, 57315, Note_on_c, 1, 73, 89
3, 57315, Note_on_c, 1, 64, 89
3, 57390, Note_on_c, 1, 73, 0
3, 57390, Note_on_c, 1, 64, 0
3, 57405, Note_on_c, 1, 76, 89
3, 57405, Note_on_c, 1, 67, 89
3, 57480, Note_on_c, 1, 76, 0
3, 57480, Note_on_c, 1, 67, 0
3, 57495, Note_on_c, 1, 73, 89
3, 57495, Note_on_c, 1, 64, 89
3, 57570, Note_on_c, 1, 73, 0
3, 57570, Note_on_c, 1, 64, 0
3, 57585, Note_on_c, 1, 67, 89
3, 57585, Note_on_c, 1, 76, 89
3, 57660, Note_on_c, 1, 67, 0
3, 57660, Note_on_c, 1, 76, 0
3, 57675, Note_on_c, 1, 73, 89
3, 57675, Note_on_c, 1, 64, 89
3, 57750, Note_on_c, 1, 73, 0
3, 57750, Note_on_c, 1, 64, 0
3, 57765, Note_on_c, 1, 76, 89
3, 57765, Note_on_c, 1, 67, 89
3, 57825, Note_on_c, 1, 76, 0
3, 57840, Note_on_c, 1, 67, 0
3, 57855, Note_on_c, 1, 55, 89
3, 57855, Note_on_c, 1, 57, 89
3, 57855, Note_on_c, 1, 61, 89
3, 57855, Note_on_c, 1, 64, 89
3, 57855, Note_on_c, 1, 69, 89
3, 57855, Note_on_c, 1, 73, 89
3, 57855, Note_on_c, 1, 76, 89
3, 57855, Note_on_c, 1, 81, 89
3, 58560, Note_on_c, 1, 55, 0
3, 58560, Note_on_c, 1, 57, 0
3, 58560, Note_on_c, 1, 61, 0
3, 58560, Note_on_c, 1, 64, 0
3, 58560, Note_on_c, 1, 69, 0
3, 58560, Note_on_c, 1, 73, 0
3, 58560, Note_on_c, 1, 76, 0
3, 58560, Note_on_c, 1, 81, 0
3, 58575, Note_on_c, 1, 81, 89
3, 58575, Note_on_c, 1, 77, 89
3, 58575, Note_on_c, 1, 69, 89
3, 58575, Note_on_c, 1, 65, 89
3, 58575, Note_on_c, 1, 62, 89
3, 58575, Note_on_c, 1, 57, 89
3, 58575, Note_on_c, 1, 53, 89
3, 58575, Note_on_c, 1, 74, 89
3, 59265, Note_on_c, 1, 62, 0
3, 59265, Note_on_c, 1, 74, 0
3, 59280, Note_on_c, 1, 81, 0
3, 59280, Note_on_c, 1, 77, 0
3, 59280, Note_on_c, 1, 69, 0
3, 59280, Note_on_c, 1, 65, 0
3, 59280, Note_on_c, 1, 57, 0
3, 59280, Note_on_c, 1, 53, 0
3, 59295, Note_on_c, 1, 79, 89
3, 59295, Note_on_c, 1, 74, 89
3, 59295, Note_on_c, 1, 70, 89
3, 59295, Note_on_c, 1, 67, 89
3, 59295, Note_on_c, 1, 62, 89
3, 59295, Note_on_c, 1, 58, 89
3, 60000, Note_on_c, 1, 79, 0
3, 60000, Note_on_c, 1, 74, 0
3, 60000, Note_on_c, 1, 70, 0
3, 60000, Note_on_c, 1, 67, 0
3, 60000, Note_on_c, 1, 62, 0
3, 60240, Note_on_c, 1, 58, 0
3, 60255, Note_on_c, 1, 57, 89
3, 60360, Note_on_c, 1, 57, 0
3, 60375, Note_on_c, 1, 55, 89
3, 60480, Note_on_c, 1, 55, 0
3, 60495, Note_on_c, 1, 57, 89
3, 60495, Note_on_c, 1, 61, 89
3, 60495, Note_on_c, 1, 64, 89
3, 60495, Note_on_c, 1, 69, 89
3, 60495, Note_on_c, 1, 73, 89
3, 60495, Note_on_c, 1, 76, 89
3, 60495, Note_on_c, 1, 79, 89
3, 60600, Note_on_c, 1, 57, 0
3, 60615, Note_on_c, 1, 52, 89
3, 60720, Note_on_c, 1, 61, 0
3, 60720, Note_on_c, 1, 64, 0
3, 60720, Note_on_c, 1, 69, 0
3, 60720, Note_on_c, 1, 73, 0
3, 60720, Note_on_c, 1, 76, 0
3, 60720, Note_on_c, 1, 79, 0
3, 60720, Note_on_c, 1, 52, 0
3, 60735, Note_on_c, 1, 53, 89
3, 60810, Note_on_c, 1, 53, 0
3, 60825, Note_on_c, 1, 50, 89
3, 60900, Note_on_c, 1, 50, 0
3, 60915, Note_on_c, 1, 52, 89
3, 60990, Note_on_c, 1, 52, 0
3, 61005, Note_on_c, 1, 49, 89
3, 61080, Note_on_c, 1, 49, 0
3, 61095, Note_on_c, 1, 50, 89
3, 61170, Note_on_c, 1, 50, 0
3, 61185, Note_on_c, 1, 47, 89
3, 61260, Note_on_c, 1, 47, 0
3, 61275, Note_on_c, 1, 49, 89
3, 61350, Note_on_c, 1, 49, 0
3, 61365, Note_on_c, 1, 45, 89
3, 61440, Note_on_c, 1, 45, 0
3, 61455, Note_on_c, 1, 46, 89
3, 61530, Note_on_c, 1, 46, 0
3, 61545, Note_on_c, 1, 44, 89
3, 61620, Note_on_c, 1, 44, 0
3, 61635, Note_on_c, 1, 45, 89
3, 61710, Note_on_c, 1, 45, 0
3, 61725, Note_on_c, 1, 55, 89
3, 61725, Note_on_c, 1, 57, 89
3, 61725, Note_on_c, 1, 64, 89
3, 61725, Note_on_c, 1, 73, 89
3, 61725, Note_on_c, 1, 69, 89
3, 61785, Note_on_c, 1, 57, 0
3, 61785, Note_on_c, 1, 69, 0
3, 61800, Note_on_c, 1, 55, 0
3, 61800, Note_on_c, 1, 64, 0
3, 61800, Note_on_c, 1, 73, 0
3, 61815, Note_on_c, 1, 74, 89
3, 61815, Note_on_c, 1, 69, 89
3, 61815, Note_on_c, 1, 65, 89
3, 61815, Note_on_c, 1, 62, 89
3, 61815, Note_on_c, 1, 57, 89
3, 61815, Note_on_c, 1, 53, 89
3, 61965, Note_on_c, 1, 65, 0
3, 61965, Note_on_c, 1, 62, 0
3, 61965, Note_on_c, 1, 57, 0
3, 61980, Note_on_c, 1, 74, 0
3, 61980, Note_on_c, 1, 69, 0
3, 61980, Note_on_c, 1, 53, 0
3, 61995, Note_on_c, 1, 57, 89
3, 61995, Note_on_c, 1, 50, 89
3, 61995, Note_on_c, 1, 62, 89
3, 61995, Note_on_c, 1, 65, 89
3, 62160, Note_on_c, 1, 50, 0
3, 62160, Note_on_c, 1, 65, 0
3, 62175, Note_on_c, 1, 64, 89
3, 62175, Note_on_c, 1, 45, 89
3, 62340, Note_on_c, 1, 62, 0
3, 62355, Note_on_c, 1, 61, 89
3, 62415, Note_on_c, 1, 64, 0
3, 62415, Note_on_c, 1, 64, 89
3, 62520, Note_on_c, 1, 57, 0
3, 62535, Note_on_c, 1, 55, 89
3, 62625, Note_on_c, 1, 55, 0
3, 62640, Note_on_c, 1, 45, 0
3, 62640, Note_on_c, 1, 61, 0
3, 62640, Note_on_c, 1, 64, 0
3, 62655, Note_on_c, 1, 62, 89
3, 62655, Note_on_c, 1, 57, 89
3, 62655, Note_on_c, 1, 50, 89
3, 62655, Note_on_c, 1, 38, 89
3, 62655, Note_on_c, 1, 55, 89
3, 62820, Note_on_c, 1, 55, 0
3, 62835, Note_on_c, 1, 53, 89
3, 62910, Note_on_c, 1, 53, 0
3, 62925, Note_on_c, 1, 52, 89
3, 63000, Note_on_c, 1, 52, 0
3, 63015, Note_on_c, 1, 53, 89
3, 63615, Note_on_c, 1, 62, 0
3, 63615, Note_on_c, 1, 57, 0
3, 63615, Note_on_c, 1, 50, 0
3, 63615, Note_on_c, 1, 38, 0
3, 63615, Note_on_c, 1, 53, 0
3, 63615, End_track
4, 0, Start_track
4, 0, Title_t, "Horns\000\000\000\000\000\000\000\000\000"
4, 0, Instrument_name_t, "Brass Section"
4, 0, MIDI_port, 0
4, 0, Program_c, 2, 61
4, 0, Text_t, "Added Horns\000"
4, 0, Control_c, 2, 7, 127
4, 15, Note_on_c, 2, 81, 89
4, 15, Note_on_c, 2, 69, 89
4, 24, Control_c, 2, 10, 118
4, 45, Note_on_c, 2, 81, 0
4, 45, Note_on_c, 2, 69, 0
4, 2895, Note_on_c, 2, 69, 89
4, 2895, Note_on_c, 2, 57, 89
4, 2925, Note_on_c, 2, 69, 0
4, 2925, Note_on_c, 2, 57, 0
4, 2940, Note_on_c, 2, 67, 89
4, 2940, Note_on_c, 2, 55, 89
4, 2970, Note_on_c, 2, 55, 0
4, 2980, Note_on_c, 2, 67, 0
4, 2985, Note_on_c, 2, 69, 89
4, 2985, Note_on_c, 2, 57, 89
4, 3780, Note_on_c, 2, 69, 0
4, 3780, Note_on_c, 2, 57, 0
4, 3855, Note_on_c, 2, 64, 89
4, 3855, Note_on_c, 2, 52, 89
4, 4020, Note_on_c, 2, 64, 0
4, 4020, Note_on_c, 2, 52, 0
4, 4035, Note_on_c, 2, 65, 89
4, 4035, Note_on_c, 2, 53, 89
4, 4200, Note_on_c, 2, 65, 0
4, 4200, Note_on_c, 2, 53, 0
4, 4215, Note_on_c, 2, 61, 89
4, 4215, Note_on_c, 2, 49, 89
4, 4380, Note_on_c, 2, 61, 0
4, 4380, Note_on_c, 2, 49, 0
4, 4395, Note_on_c, 2, 62, 89
4, 4395, Note_on_c, 2, 50, 89
4, 4755, Note_on_c, 2, 62, 0
4, 4755, Note_on_c, 2, 50, 0
4, 5775, Note_on_c, 2, 57, 89
4, 5775, Note_on_c, 2, 45, 89
4, 5805, Note_on_c, 2, 57, 0
4, 5805, Note_on_c, 2, 45, 0
4, 5820, Note_on_c, 2, 55, 89
4, 5820, Note_on_c, 2, 43, 89
4, 5850, Note_on_c, 2, 43, 0
4, 5860, Note_on_c, 2, 55, 0
4, 5865, Note_on_c, 2, 45, 89
4, 5865, Note_on_c, 2, 57, 89
4, 6720, Note_on_c, 2, 45, 0
4, 6720, Note_on_c, 2, 57, 0
4, 6735, Note_on_c, 2, 55, 89
4, 6735, Note_on_c, 2, 43, 89
4, 6765, Note_on_c, 2, 43, 0
4, 6775, Note_on_c, 2, 55, 0
4, 6780, Note_on_c, 2, 53, 89
4, 6780, Note_on_c, 2, 41, 89
4, 6810, Note_on_c, 2, 41, 0
4, 6820, Note_on_c, 2, 53, 0
4, 6825, Note_on_c, 2, 52, 89
4, 6825, Note_on_c, 2, 40, 89
4, 6855, Note_on_c, 2, 40, 0
4, 6865, Note_on_c, 2, 52, 0
4, 6870, Note_on_c, 2, 50, 89
4, 6870, Note_on_c, 2, 38, 89
4, 6900, Note_on_c, 2, 38, 0
4, 6910, Note_on_c, 2, 50, 0
4, 6915, Note_on_c, 2, 49, 89
4, 6915, Note_on_c, 2, 37, 89
4, 7440, Note_on_c, 2, 49, 0
4, 7440, Note_on_c, 2, 37, 0
4, 7470, Note_on_c, 2, 38, 89
4, 7470, Note_on_c, 2, 50, 89
4, 7770, Note_on_c, 2, 38, 0
4, 7770, Note_on_c, 2, 50, 0
4, 8655, Note_on_c, 2, 38, 89
4, 9150, Note_on_c, 2, 49, 89
4, 9615, Note_on_c, 2, 52, 89
4, 10110, Note_on_c, 2, 55, 89
4, 10575, Note_on_c, 2, 58, 89
4, 11070, Note_on_c, 2, 61, 89
4, 11535, Note_on_c, 2, 64, 89
4, 12420, Note_on_c, 2, 55, 0
4, 12480, Note_on_c, 2, 49, 0
4, 12480, Note_on_c, 2, 52, 0
4, 12480, Note_on_c, 2, 58, 0
4, 12480, Note_on_c, 2, 61, 0
4, 12495, Note_on_c, 2, 64, 0
4, 12495, Note_on_c, 2, 50, 89
4, 12495, Note_on_c, 2, 57, 89
4, 12495, Note_on_c, 2, 62, 89
4, 12495, Note_on_c, 2, 55, 89
4, 12960, Note_on_c, 2, 55, 0
4, 12990, Note_on_c, 2, 52, 89
4, 13455, Note_on_c, 2, 52, 0
4, 13455, Note_on_c, 2, 54, 89
4, 14400, Note_on_c, 2, 38, 0
4, 14400, Note_on_c, 2, 50, 0
4, 14400, Note_on_c, 2, 57, 0
4, 14400, Note_on_c, 2, 62, 0
4, 14400, Note_on_c, 2, 54, 0
4, 26190, Note_on_c, 2, 38, 89
4, 27150, Note_on_c, 2, 49, 89
4, 27165, Note_on_c, 2, 52, 89
4, 27180, Note_on_c, 2, 55, 89
4, 27195, Note_on_c, 2, 58, 89
4, 27210, Note_on_c, 2, 61, 89
4, 27225, Note_on_c, 2, 64, 89
4, 27240, Note_on_c, 2, 67, 89
4, 27255, Note_on_c, 2, 70, 89
4, 28320, Note_on_c, 2, 38, 0
4, 28320, Note_on_c, 2, 49, 0
4, 28320, Note_on_c, 2, 52, 0
4, 28320, Note_on_c, 2, 55, 0
4, 28320, Note_on_c, 2, 58, 0
4, 28320, Note_on_c, 2, 61, 0
4, 28320, Note_on_c, 2, 64, 0
4, 28320, Note_on_c, 2, 67, 0
4, 28380, Note_on_c, 2, 70, 0
4, 28395, Note_on_c, 2, 69, 89
4, 28425, Note_on_c, 2, 69, 0
4, 28440, Note_on_c, 2, 67, 89
4, 28470, Note_on_c, 2, 67, 0
4, 28485, Note_on_c, 2, 65, 89
4, 28515, Note_on_c, 2, 65, 0
4, 28530, Note_on_c, 2, 64, 89
4, 28560, Note_on_c, 2, 64, 0
4, 28575, Note_on_c, 2, 62, 89
4, 28605, Note_on_c, 2, 62, 0
4, 28620, Note_on_c, 2, 61, 89
4, 28695, Note_on_c, 2, 61, 0
4, 28710, Note_on_c, 2, 57, 89
4, 28785, Note_on_c, 2, 57, 0
4, 28800, Note_on_c, 2, 61, 89
4, 28875, Note_on_c, 2, 61, 0
4, 28890, Note_on_c, 2, 64, 89
4, 28920, Note_on_c, 2, 64, 0
4, 28935, Note_on_c, 2, 67, 89
4, 28965, Note_on_c, 2, 67, 0
4, 28980, Note_on_c, 2, 65, 89
4, 28995, Note_on_c, 2, 65, 0
4, 29010, Note_on_c, 2, 67, 89
4, 29025, Note_on_c, 2, 67, 0
4, 29040, Note_on_c, 2, 65, 89
4, 29055, Note_on_c, 2, 65, 0
4, 29070, Note_on_c, 2, 67, 89
4, 29085, Note_on_c, 2, 67, 0
4, 29100, Note_on_c, 2, 65, 89
4, 29115, Note_on_c, 2, 65, 0
4, 29130, Note_on_c, 2, 67, 89
4, 29145, Note_on_c, 2, 67, 0
4, 29160, Note_on_c, 2, 65, 89
4, 29175, Note_on_c, 2, 65, 0
4, 29190, Note_on_c, 2, 67, 89
4, 29205, Note_on_c, 2, 67, 0
4, 29220, Note_on_c, 2, 65, 89
4, 29235, Note_on_c, 2, 65, 0
4, 29250, Note_on_c, 2, 64, 89
4, 29325, Note_on_c, 2, 64, 0
4, 29340, Note_on_c, 2, 38, 89
4, 29340, Note_on_c, 2, 50, 89
4, 29340, Note_on_c, 2, 53, 89
4, 29340, Note_on_c, 2, 57, 89
4, 29340, Note_on_c, 2, 62, 89
4, 29340, Note_on_c, 2, 65, 89
4, 29790, Note_on_c, 2, 38, 0
4, 29790, Note_on_c, 2, 50, 0
4, 29790, Note_on_c, 2, 57, 0
4, 29805, Note_on_c, 2, 53, 0
4, 29820, Note_on_c, 2, 62, 0
4, 29850, Note_on_c, 2, 65, 0
4, 30885, Note_on_c, 2, 69, 89
4, 30945, Note_on_c, 2, 69, 0
4, 30975, Note_on_c, 2, 74, 89
4, 31020, Note_on_c, 2, 69, 89
4, 31050, Note_on_c, 2, 74, 0
4, 31065, Note_on_c, 2, 76, 89
4, 31080, Note_on_c, 2, 69, 0
4, 31110, Note_on_c, 2, 69, 89
4, 31140, Note_on_c, 2, 76, 0
4, 31155, Note_on_c, 2, 77, 89
4, 31170, Note_on_c, 2, 69, 0
4, 31200, Note_on_c, 2, 69, 89
4, 31230, Note_on_c, 2, 77, 0
4, 31245, Note_on_c, 2, 74, 89
4, 31260, Note_on_c, 2, 69, 0
4, 31290, Note_on_c, 2, 69, 89
4, 31320, Note_on_c, 2, 74, 0
4, 31335, Note_on_c, 2, 76, 89
4, 31350, Note_on_c, 2, 69, 0
4, 31380, Note_on_c, 2, 69, 89
4, 31410, Note_on_c, 2, 76, 0
4, 31425, Note_on_c, 2, 77, 89
4, 31440, Note_on_c, 2, 69, 0
4, 31470, Note_on_c, 2, 69, 89
4, 31500, Note_on_c, 2, 77, 0
4, 31515, Note_on_c, 2, 79, 89
4, 31530, Note_on_c, 2, 69, 0
4, 31560, Note_on_c, 2, 69, 89
4, 31590, Note_on_c, 2, 79, 0
4, 31605, Note_on_c, 2, 76, 89
4, 31620, Note_on_c, 2, 69, 0
4, 31650, Note_on_c, 2, 69, 89
4, 31680, Note_on_c, 2, 76, 0
4, 31695, Note_on_c, 2, 77, 89
4, 31710, Note_on_c, 2, 69, 0
4, 31740, Note_on_c, 2, 69, 89
4, 31770, Note_on_c, 2, 77, 0
4, 31785, Note_on_c, 2, 79, 89
4, 31800, Note_on_c, 2, 69, 0
4, 31830, Note_on_c, 2, 69, 89
4, 31860, Note_on_c, 2, 79, 0
4, 31875, Note_on_c, 2, 81, 89
4, 31890, Note_on_c, 2, 69, 0
4, 31920, Note_on_c, 2, 69, 89
4, 31950, Note_on_c, 2, 81, 0
4, 31965, Note_on_c, 2, 77, 89
4, 31980, Note_on_c, 2, 69, 0
4, 32010, Note_on_c, 2, 69, 89
4, 32040, Note_on_c, 2, 77, 0
4, 32055, Note_on_c, 2, 79, 89
4, 32070, Note_on_c, 2, 69, 0
4, 32100, Note_on_c, 2, 69, 89
4, 32130, Note_on_c, 2, 79, 0
4, 32145, Note_on_c, 2, 81, 89
4, 32160, Note_on_c, 2, 69, 0
4, 32190, Note_on_c, 2, 69, 89
4, 32220, Note_on_c, 2, 81, 0
4, 32235, Note_on_c, 2, 82, 89
4, 32250, Note_on_c, 2, 69, 0
4, 32280, Note_on_c, 2, 69, 89
4, 32310, Note_on_c, 2, 82, 0
4, 32325, Note_on_c, 2, 79, 89
4, 32340, Note_on_c, 2, 69, 0
4, 32370, Note_on_c, 2, 69, 89
4, 32400, Note_on_c, 2, 79, 0
4, 32415, Note_on_c, 2, 81, 89
4, 32430, Note_on_c, 2, 69, 0
4, 32460, Note_on_c, 2, 69, 89
4, 32490, Note_on_c, 2, 81, 0
4, 32505, Note_on_c, 2, 77, 89
4, 32520, Note_on_c, 2, 69, 0
4, 32550, Note_on_c, 2, 69, 89
4, 32580, Note_on_c, 2, 77, 0
4, 32595, Note_on_c, 2, 79, 89
4, 32610, Note_on_c, 2, 69, 0
4, 32640, Note_on_c, 2, 69, 89
4, 32670, Note_on_c, 2, 79, 0
4, 32685, Note_on_c, 2, 76, 89
4, 32700, Note_on_c, 2, 69, 0
4, 32730, Note_on_c, 2, 69, 89
4, 32760, Note_on_c, 2, 76, 0
4, 32775, Note_on_c, 2, 77, 89
4, 32790, Note_on_c, 2, 69, 0
4, 32820, Note_on_c, 2, 69, 89
4, 32850, Note_on_c, 2, 77, 0
4, 32865, Note_on_c, 2, 74, 89
4, 32880, Note_on_c, 2, 69, 0
4, 32910, Note_on_c, 2, 69, 89
4, 32940, Note_on_c, 2, 74, 0
4, 32955, Note_on_c, 2, 76, 89
4, 32970, Note_on_c, 2, 69, 0
4, 33000, Note_on_c, 2, 69, 89
4, 33030, Note_on_c, 2, 76, 0
4, 33045, Note_on_c, 2, 73, 89
4, 33060, Note_on_c, 2, 69, 0
4, 33090, Note_on_c, 2, 69, 89
4, 33120, Note_on_c, 2, 73, 0
4, 33135, Note_on_c, 2, 74, 89
4, 33150, Note_on_c, 2, 69, 0
4, 33178, Note_on_c, 2, 69, 89
4, 33210, Note_on_c, 2, 74, 0
4, 33246, Note_on_c, 2, 69, 0
4, 33267, Note_on_c, 2, 69, 89
4, 33316, Note_on_c, 2, 70, 89
4, 33327, Note_on_c, 2, 69, 0
4, 33360, Note_on_c, 2, 69, 89
4, 33391, Note_on_c, 2, 70, 0
4, 33405, Note_on_c, 2, 67, 89
4, 33420, Note_on_c, 2, 69, 0
4, 33450, Note_on_c, 2, 69, 89
4, 33480, Note_on_c, 2, 67, 0
4, 33585, Note_on_c, 2, 65, 89
4, 33660, Note_on_c, 2, 65, 0
4, 33675, Note_on_c, 2, 67, 89
4, 33690, Note_on_c, 2, 69, 0
4, 33720, Note_on_c, 2, 69, 89
4, 33750, Note_on_c, 2, 67, 0
4, 33765, Note_on_c, 2, 64, 89
4, 33780, Note_on_c, 2, 69, 0
4, 33810, Note_on_c, 2, 69, 89
4, 33840, Note_on_c, 2, 64, 0
4, 33855, Note_on_c, 2, 65, 89
4, 33870, Note_on_c, 2, 69, 0
4, 33900, Note_on_c, 2, 69, 89
4, 33930, Note_on_c, 2, 65, 0
4, 33945, Note_on_c, 2, 62, 89
4, 33960, Note_on_c, 2, 69, 0
4, 33990, Note_on_c, 2, 69, 89
4, 34020, Note_on_c, 2, 62, 0
4, 34035, Note_on_c, 2, 67, 89
4, 34050, Note_on_c, 2, 69, 0
4, 34080, Note_on_c, 2, 69, 89
4, 34110, Note_on_c, 2, 67, 0
4, 34125, Note_on_c, 2, 64, 89
4, 34140, Note_on_c, 2, 69, 0
4, 34170, Note_on_c, 2, 69, 89
4, 34200, Note_on_c, 2, 64, 0
4, 34215, Note_on_c, 2, 65, 89
4, 34230, Note_on_c, 2, 69, 0
4, 34260, Note_on_c, 2, 69, 89
4, 34290, Note_on_c, 2, 65, 0
4, 34305, Note_on_c, 2, 62, 89
4, 34320, Note_on_c, 2, 69, 0
4, 34350, Note_on_c, 2, 69, 89
4, 34380, Note_on_c, 2, 62, 0
4, 34395, Note_on_c, 2, 64, 89
4, 34410, Note_on_c, 2, 69, 0
4, 34440, Note_on_c, 2, 69, 89
4, 34470, Note_on_c, 2, 64, 0
4, 34485, Note_on_c, 2, 61, 89
4, 34500, Note_on_c, 2, 69, 0
4, 34530, Note_on_c, 2, 69, 89
4, 34560, Note_on_c, 2, 61, 0
4, 34575, Note_on_c, 2, 62, 89
4, 34590, Note_on_c, 2, 69, 0
4, 34620, Note_on_c, 2, 69, 89
4, 34650, Note_on_c, 2, 62, 0
4, 34665, Note_on_c, 2, 57, 89
4, 34680, Note_on_c, 2, 69, 0
4, 34710, Note_on_c, 2, 69, 89
4, 34740, Note_on_c, 2, 57, 0
4, 34755, Note_on_c, 2, 58, 89
4, 34770, Note_on_c, 2, 69, 0
4, 34800, Note_on_c, 2, 69, 89
4, 34830, Note_on_c, 2, 58, 0
4, 34845, Note_on_c, 2, 55, 89
4, 34860, Note_on_c, 2, 69, 0
4, 34890, Note_on_c, 2, 69, 89
4, 34920, Note_on_c, 2, 55, 0
4, 34935, Note_on_c, 2, 57, 89
4, 34950, Note_on_c, 2, 69, 0
4, 34980, Note_on_c, 2, 69, 89
4, 35010, Note_on_c, 2, 57, 0
4, 35025, Note_on_c, 2, 53, 89
4, 35040, Note_on_c, 2, 69, 0
4, 35070, Note_on_c, 2, 69, 89
4, 35100, Note_on_c, 2, 53, 0
4, 35115, Note_on_c, 2, 55, 89
4, 35130, Note_on_c, 2, 69, 0
4, 35160, Note_on_c, 2, 69, 89
4, 35190, Note_on_c, 2, 55, 0
4, 35205, Note_on_c, 2, 52, 89
4, 35220, Note_on_c, 2, 69, 0
4, 35250, Note_on_c, 2, 69, 89
4, 35280, Note_on_c, 2, 52, 0
4, 35295, Note_on_c, 2, 53, 89
4, 35310, Note_on_c, 2, 69, 0
4, 35340, Note_on_c, 2, 69, 89
4, 35370, Note_on_c, 2, 53, 0
4, 35385, Note_on_c, 2, 50, 89
4, 35400, Note_on_c, 2, 69, 0
4, 35430, Note_on_c, 2, 69, 89
4, 35460, Note_on_c, 2, 50, 0
4, 35475, Note_on_c, 2, 55, 89
4, 35490, Note_on_c, 2, 69, 0
4, 35520, Note_on_c, 2, 69, 89
4, 35550, Note_on_c, 2, 55, 0
4, 35565, Note_on_c, 2, 52, 89
4, 35580, Note_on_c, 2, 69, 0
4, 35610, Note_on_c, 2, 69, 89
4, 35640, Note_on_c, 2, 52, 0
4, 35655, Note_on_c, 2, 53, 89
4, 35670, Note_on_c, 2, 69, 0
4, 35700, Note_on_c, 2, 69, 89
4, 35730, Note_on_c, 2, 53, 0
4, 35745, Note_on_c, 2, 50, 89
4, 35760, Note_on_c, 2, 69, 0
4, 35790, Note_on_c, 2, 69, 89
4, 35820, Note_on_c, 2, 50, 0
4, 35835, Note_on_c, 2, 52, 89
4, 35850, Note_on_c, 2, 69, 0
4, 35880, Note_on_c, 2, 69, 89
4, 35910, Note_on_c, 2, 52, 0
4, 35925, Note_on_c, 2, 49, 89
4, 35940, Note_on_c, 2, 69, 0
4, 36000, Note_on_c, 2, 49, 0
4, 36030, Note_on_c, 2, 50, 89
4, 36255, Note_on_c, 2, 50, 0
4, 37230, Note_on_c, 2, 62, 89
4, 37230, Note_on_c, 2, 50, 89
4, 37305, Note_on_c, 2, 62, 0
4, 37320, Note_on_c, 2, 65, 89
4, 37320, Note_on_c, 2, 70, 89
4, 37395, Note_on_c, 2, 50, 0
4, 37395, Note_on_c, 2, 65, 0
4, 37395, Note_on_c, 2, 70, 0
4, 37410, Note_on_c, 2, 57, 89
4, 37410, Note_on_c, 2, 48, 89
4, 37485, Note_on_c, 2, 57, 0
4, 37500, Note_on_c, 2, 64, 89
4, 37500, Note_on_c, 2, 69, 89
4, 37575, Note_on_c, 2, 48, 0
4, 37575, Note_on_c, 2, 64, 0
4, 37575, Note_on_c, 2, 69, 0
4, 37590, Note_on_c, 2, 58, 89
4, 37590, Note_on_c, 2, 46, 89
4, 37665, Note_on_c, 2, 58, 0
4, 37680, Note_on_c, 2, 62, 89
4, 37680, Note_on_c, 2, 67, 89
4, 37755, Note_on_c, 2, 46, 0
4, 37755, Note_on_c, 2, 62, 0
4, 37755, Note_on_c, 2, 67, 0
4, 37770, Note_on_c, 2, 45, 89
4, 37770, Note_on_c, 2, 69, 89
4, 37770, Note_on_c, 2, 64, 89
4, 37770, Note_on_c, 2, 61, 89
4, 37935, Note_on_c, 2, 45, 0
4, 37935, Note_on_c, 2, 69, 0
4, 37935, Note_on_c, 2, 64, 0
4, 37935, Note_on_c, 2, 61, 0
4, 39150, Note_on_c, 2, 62, 89
4, 39150, Note_on_c, 2, 50, 89
4, 39225, Note_on_c, 2, 62, 0
4, 39240, Note_on_c, 2, 65, 89
4, 39240, Note_on_c, 2, 70, 89
4, 39315, Note_on_c, 2, 50, 0
4, 39315, Note_on_c, 2, 65, 0
4, 39315, Note_on_c, 2, 70, 0
4, 39330, Note_on_c, 2, 57, 89
4, 39330, Note_on_c, 2, 48, 89
4, 39405, Note_on_c, 2, 57, 0
4, 39420, Note_on_c, 2, 64, 89
4, 39420, Note_on_c, 2, 69, 89
4, 39495, Note_on_c, 2, 48, 0
4, 39495, Note_on_c, 2, 64, 0
4, 39495, Note_on_c, 2, 69, 0
4, 39510, Note_on_c, 2, 58, 89
4, 39510, Note_on_c, 2, 46, 89
4, 39585, Note_on_c, 2, 58, 0
4, 39600, Note_on_c, 2, 62, 89
4, 39600, Note_on_c, 2, 67, 89
4, 39675, Note_on_c, 2, 46, 0
4, 39675, Note_on_c, 2, 62, 0
4, 39675, Note_on_c, 2, 67, 0
4, 39690, Note_on_c, 2, 45, 89
4, 39690, Note_on_c, 2, 69, 89
4, 39690, Note_on_c, 2, 64, 89
4, 39690, Note_on_c, 2, 61, 89
4, 39690, Note_on_c, 2, 52, 89
4, 40080, Note_on_c, 2, 45, 0
4, 40080, Note_on_c, 2, 64, 0
4, 40080, Note_on_c, 2, 61, 0
4, 40080, Note_on_c, 2, 52, 0
4, 40125, Note_on_c, 2, 69, 0
4, 40140, Note_on_c, 2, 67, 89
4, 40170, Note_on_c, 2, 67, 0
4, 40185, Note_on_c, 2, 65, 89
4, 40215, Note_on_c, 2, 65, 0
4, 40230, Note_on_c, 2, 64, 89
4, 40260, Note_on_c, 2, 64, 0
4, 40275, Note_on_c, 2, 62, 89
4, 40305, Note_on_c, 2, 62, 0
4, 40320, Note_on_c, 2, 61, 89
4, 40350, Note_on_c, 2, 61, 0
4, 40365, Note_on_c, 2, 59, 89
4, 40395, Note_on_c, 2, 59, 0
4, 40410, Note_on_c, 2, 61, 89
4, 40440, Note_on_c, 2, 61, 0
4, 40455, Note_on_c, 2, 57, 89
4, 40485, Note_on_c, 2, 57, 0
4, 40500, Note_on_c, 2, 59, 89
4, 40530, Note_on_c, 2, 59, 0
4, 40545, Note_on_c, 2, 61, 89
4, 40575, Note_on_c, 2, 61, 0
4, 40590, Note_on_c, 2, 62, 89
4, 40620, Note_on_c, 2, 62, 0
4, 40635, Note_on_c, 2, 64, 89
4, 40665, Note_on_c, 2, 64, 0
4, 40680, Note_on_c, 2, 65, 89
4, 40710, Note_on_c, 2, 65, 0
4, 40725, Note_on_c, 2, 67, 89
4, 40755, Note_on_c, 2, 67, 0
4, 40770, Note_on_c, 2, 69, 89
4, 40800, Note_on_c, 2, 69, 0
4, 40815, Note_on_c, 2, 67, 89
4, 40845, Note_on_c, 2, 67, 0
4, 40860, Note_on_c, 2, 65, 89
4, 40890, Note_on_c, 2, 65, 0
4, 40905, Note_on_c, 2, 64, 89
4, 40935, Note_on_c, 2, 64, 0
4, 40950, Note_on_c, 2, 65, 89
4, 40980, Note_on_c, 2, 65, 0
4, 40995, Note_on_c, 2, 62, 89
4, 41025, Note_on_c, 2, 62, 0
4, 41040, Note_on_c, 2, 65, 89
4, 41070, Note_on_c, 2, 65, 0
4, 41085, Note_on_c, 2, 69, 89
4, 41115, Note_on_c, 2, 69, 0
4, 41130, Note_on_c, 2, 73, 89
4, 41160, Note_on_c, 2, 73, 0
4, 41175, Note_on_c, 2, 74, 89
4, 41205, Note_on_c, 2, 74, 0
4, 41220, Note_on_c, 2, 69, 89
4, 41250, Note_on_c, 2, 69, 0
4, 41265, Note_on_c, 2, 71, 89
4, 41295, Note_on_c, 2, 71, 0
4, 41295, Note_on_c, 2, 73, 89
4, 41325, Note_on_c, 2, 73, 0
4, 41340, Note_on_c, 2, 74, 89
4, 41370, Note_on_c, 2, 74, 0
4, 41385, Note_on_c, 2, 76, 89
4, 41415, Note_on_c, 2, 76, 0
4, 41430, Note_on_c, 2, 77, 89
4, 41460, Note_on_c, 2, 77, 0
4, 41475, Note_on_c, 2, 79, 89
4, 41505, Note_on_c, 2, 79, 0
4, 41520, Note_on_c, 2, 81, 89
4, 41550, Note_on_c, 2, 81, 0
4, 41565, Note_on_c, 2, 82, 89
4, 41760, Note_on_c, 2, 82, 0
4, 41775, Note_on_c, 2, 74, 89
4, 41775, Note_on_c, 2, 50, 89
4, 41850, Note_on_c, 2, 74, 0
4, 41865, Note_on_c, 2, 77, 89
4, 41865, Note_on_c, 2, 82, 89
4, 41940, Note_on_c, 2, 50, 0
4, 41940, Note_on_c, 2, 77, 0
4, 41940, Note_on_c, 2, 82, 0
4, 41955, Note_on_c, 2, 69, 89
4, 41955, Note_on_c, 2, 48, 89
4, 42030, Note_on_c, 2, 69, 0
4, 42045, Note_on_c, 2, 76, 89
4, 42045, Note_on_c, 2, 81, 89
4, 42120, Note_on_c, 2, 48, 0
4, 42120, Note_on_c, 2, 76, 0
4, 42120, Note_on_c, 2, 81, 0
4, 42135, Note_on_c, 2, 46, 89
4, 42135, Note_on_c, 2, 70, 89
4, 42210, Note_on_c, 2, 70, 0
4, 42225, Note_on_c, 2, 74, 89
4, 42225, Note_on_c, 2, 79, 89
4, 42300, Note_on_c, 2, 46, 0
4, 42300, Note_on_c, 2, 74, 0
4, 42300, Note_on_c, 2, 79, 0
4, 42315, Note_on_c, 2, 57, 89
4, 42315, Note_on_c, 2, 81, 89
4, 42315, Note_on_c, 2, 76, 89
4, 42315, Note_on_c, 2, 73, 89
4, 42315, Note_on_c, 2, 64, 89
4, 42315, Note_on_c, 2, 45, 89
4, 42720, Note_on_c, 2, 57, 0
4, 42720, Note_on_c, 2, 81, 0
4, 42720, Note_on_c, 2, 76, 0
4, 42720, Note_on_c, 2, 73, 0
4, 42720, Note_on_c, 2, 64, 0
4, 42720, Note_on_c, 2, 45, 0
4, 43500, Note_on_c, 2, 50, 89
4, 43500, Note_on_c, 2, 74, 89
4, 43605, Note_on_c, 2, 74, 0
4, 43620, Note_on_c, 2, 82, 89
4, 43620, Note_on_c, 2, 77, 89
4, 43725, Note_on_c, 2, 50, 0
4, 43725, Note_on_c, 2, 82, 0
4, 43725, Note_on_c, 2, 77, 0
4, 43740, Note_on_c, 2, 48, 89
4, 43740, Note_on_c, 2, 69, 89
4, 43845, Note_on_c, 2, 69, 0
4, 43860, Note_on_c, 2, 81, 89
4, 43860, Note_on_c, 2, 76, 89
4, 43965, Note_on_c, 2, 48, 0
4, 43965, Note_on_c, 2, 81, 0
4, 43965, Note_on_c, 2, 76, 0
4, 43980, Note_on_c, 2, 46, 89
4, 43980, Note_on_c, 2, 70, 89
4, 44085, Note_on_c, 2, 70, 0
4, 44100, Note_on_c, 2, 79, 89
4, 44100, Note_on_c, 2, 74, 89
4, 44205, Note_on_c, 2, 46, 0
4, 44205, Note_on_c, 2, 79, 0
4, 44205, Note_on_c, 2, 74, 0
4, 44220, Note_on_c, 2, 45, 89
4, 44220, Note_on_c, 2, 64, 89
4, 44220, Note_on_c, 2, 69, 89
4, 44220, Note_on_c, 2, 73, 89
4, 44220, Note_on_c, 2, 76, 89
4, 44220, Note_on_c, 2, 81, 89
4, 44445, Note_on_c, 2, 45, 0
4, 44445, Note_on_c, 2, 64, 0
4, 44445, Note_on_c, 2, 69, 0
4, 44445, Note_on_c, 2, 73, 0
4, 44445, Note_on_c, 2, 76, 0
4, 44445, Note_on_c, 2, 81, 0
4, 44460, Note_on_c, 2, 44, 89
4, 44460, Note_on_c, 2, 59, 89
4, 44460, Note_on_c, 2, 71, 89
4, 44460, Note_on_c, 2, 65, 89
4, 44460, Note_on_c, 2, 74, 89
4, 44685, Note_on_c, 2, 44, 0
4, 44685, Note_on_c, 2, 59, 0
4, 44685, Note_on_c, 2, 71, 0
4, 44685, Note_on_c, 2, 65, 0
4, 44685, Note_on_c, 2, 74, 0
4, 44700, Note_on_c, 2, 73, 89
4, 44700, Note_on_c, 2, 69, 89
4, 44700, Note_on_c, 2, 64, 89
4, 44700, Note_on_c, 2, 57, 89
4, 44700, Note_on_c, 2, 43, 89
4, 45150, Note_on_c, 2, 73, 0
4, 45150, Note_on_c, 2, 69, 0
4, 45150, Note_on_c, 2, 64, 0
4, 45150, Note_on_c, 2, 57, 0
4, 45150, Note_on_c, 2, 43, 0
4, 45165, Note_on_c, 2, 71, 89
4, 45210, Note_on_c, 2, 71, 0
4, 45225, Note_on_c, 2, 69, 89
4, 45270, Note_on_c, 2, 69, 0
4, 45285, Note_on_c, 2, 73, 89
4, 45330, Note_on_c, 2, 73, 0
4, 45345, Note_on_c, 2, 76, 89
4, 45375, Note_on_c, 2, 76, 0
4, 45390, Note_on_c, 2, 79, 89
4, 45420, Note_on_c, 2, 79, 0
4, 45435, Note_on_c, 2, 82, 89
4, 45510, Note_on_c, 2, 82, 0
4, 45525, Note_on_c, 2, 81, 89
4, 45555, Note_on_c, 2, 81, 0
4, 45570, Note_on_c, 2, 79, 89
4, 45600, Note_on_c, 2, 79, 0
4, 45615, Note_on_c, 2, 77, 89
4, 45645, Note_on_c, 2, 77, 0
4, 45660, Note_on_c, 2, 76, 89
4, 45690, Note_on_c, 2, 76, 0
4, 45705, Note_on_c, 2, 77, 89
4, 45735, Note_on_c, 2, 77, 0
4, 45750, Note_on_c, 2, 76, 89
4, 45780, Note_on_c, 2, 76, 0
4, 45795, Note_on_c, 2, 74, 89
4, 45825, Note_on_c, 2, 74, 0
4, 45840, Note_on_c, 2, 73, 89
4, 45870, Note_on_c, 2, 73, 0
4, 45885, Note_on_c, 2, 74, 89
4, 45915, Note_on_c, 2, 74, 0
4, 45930, Note_on_c, 2, 72, 89
4, 45960, Note_on_c, 2, 72, 0
4, 45975, Note_on_c, 2, 70, 89
4, 46005, Note_on_c, 2, 70, 0
4, 46020, Note_on_c, 2, 69, 89
4, 46050, Note_on_c, 2, 69, 0
4, 46065, Note_on_c, 2, 67, 89
4, 46095, Note_on_c, 2, 67, 0
4, 46095, Note_on_c, 2, 65, 89
4, 46125, Note_on_c, 2, 65, 0
4, 46140, Note_on_c, 2, 64, 89
4, 46170, Note_on_c, 2, 64, 0
4, 46185, Note_on_c, 2, 62, 89
4, 46215, Note_on_c, 2, 62, 0
4, 46230, Note_on_c, 2, 55, 89
4, 46230, Note_on_c, 2, 76, 89
4, 46230, Note_on_c, 2, 70, 89
4, 46230, Note_on_c, 2, 67, 89
4, 46230, Note_on_c, 2, 61, 89
4, 46230, Note_on_c, 2, 73, 89
4, 46230, Note_on_c, 2, 64, 89
4, 47040, Note_on_c, 2, 55, 0
4, 47040, Note_on_c, 2, 76, 0
4, 47040, Note_on_c, 2, 70, 0
4, 47040, Note_on_c, 2, 67, 0
4, 47040, Note_on_c, 2, 61, 0
4, 47130, Note_on_c, 2, 73, 0
4, 47130, Note_on_c, 2, 64, 0
4, 47145, Note_on_c, 2, 76, 89
4, 47145, Note_on_c, 2, 67, 89
4, 47220, Note_on_c, 2, 76, 0
4, 47220, Note_on_c, 2, 67, 0
4, 47235, Note_on_c, 2, 73, 89
4, 47235, Note_on_c, 2, 64, 89
4, 47310, Note_on_c, 2, 73, 0
4, 47310, Note_on_c, 2, 64, 0
4, 47325, Note_on_c, 2, 70, 89
4, 47325, Note_on_c, 2, 61, 89
4, 47400, Note_on_c, 2, 70, 0
4, 47400, Note_on_c, 2, 61, 0
4, 47415, Note_on_c, 2, 73, 89
4, 47415, Note_on_c, 2, 64, 89
4, 47490, Note_on_c, 2, 73, 0
4, 47490, Note_on_c, 2, 64, 0
4, 47505, Note_on_c, 2, 70, 89
4, 47505, Note_on_c, 2, 61, 89
4, 47580, Note_on_c, 2, 70, 0
4, 47580, Note_on_c, 2, 61, 0
4, 47595, Note_on_c, 2, 73, 89
4, 47595, Note_on_c, 2, 64, 89
4, 47670, Note_on_c, 2, 73, 0
4, 47670, Note_on_c, 2, 64, 0
4, 47685, Note_on_c, 2, 76, 89
4, 47685, Note_on_c, 2, 67, 89
4, 47760, Note_on_c, 2, 76, 0
4, 47760, Note_on_c, 2, 67, 0
4, 47775, Note_on_c, 2, 73, 89
4, 47775, Note_on_c, 2, 64, 89
4, 47850, Note_on_c, 2, 73, 0
4, 47850, Note_on_c, 2, 64, 0
4, 47865, Note_on_c, 2, 70, 89
4, 47865, Note_on_c, 2, 61, 89
4, 47940, Note_on_c, 2, 70, 0
4, 47940, Note_on_c, 2, 61, 0
4, 47955, Note_on_c, 2, 64, 89
4, 47955, Note_on_c, 2, 73, 89
4, 48030, Note_on_c, 2, 64, 0
4, 48030, Note_on_c, 2, 73, 0
4, 48045, Note_on_c, 2, 70, 89
4, 48045, Note_on_c, 2, 61, 89
4, 48120, Note_on_c, 2, 70, 0
4, 48120, Note_on_c, 2, 61, 0
4, 48135, Note_on_c, 2, 73, 89
4, 48135, Note_on_c, 2, 64, 89
4, 48210, Note_on_c, 2, 73, 0
4, 48210, Note_on_c, 2, 64, 0
4, 48225, Note_on_c, 2, 76, 89
4, 48225, Note_on_c, 2, 67, 89
4, 48300, Note_on_c, 2, 76, 0
4, 48300, Note_on_c, 2, 67, 0
4, 48315, Note_on_c, 2, 73, 89
4, 48315, Note_on_c, 2, 64, 89
4, 48390, Note_on_c, 2, 73, 0
4, 48390, Note_on_c, 2, 64, 0
4, 48405, Note_on_c, 2, 70, 89
4, 48405, Note_on_c, 2, 61, 89
4, 48480, Note_on_c, 2, 70, 0
4, 48480, Note_on_c, 2, 61, 0
4, 48495, Note_on_c, 2, 73, 89
4, 48495, Note_on_c, 2, 64, 89
4, 48570, Note_on_c, 2, 73, 0
4, 48570, Note_on_c, 2, 64, 0
4, 48585, Note_on_c, 2, 70, 89
4, 48585, Note_on_c, 2, 61, 89
4, 48660, Note_on_c, 2, 70, 0
4, 48660, Note_on_c, 2, 61, 0
4, 48675, Note_on_c, 2, 73, 89
4, 48675, Note_on_c, 2, 64, 89
4, 48750, Note_on_c, 2, 73, 0
4, 48750, Note_on_c, 2, 64, 0
4, 48765, Note_on_c, 2, 76, 89
4, 48765, Note_on_c, 2, 67, 89
4, 48840, Note_on_c, 2, 76, 0
4, 48840, Note_on_c, 2, 67, 0
4, 48855, Note_on_c, 2, 73, 89
4, 48855, Note_on_c, 2, 64, 89
4, 48930, Note_on_c, 2, 73, 0
4, 48930, Note_on_c, 2, 64, 0
4, 48945, Note_on_c, 2, 61, 89
4, 48945, Note_on_c, 2, 70, 89
4, 49020, Note_on_c, 2, 61, 0
4, 49020, Note_on_c, 2, 70, 0
4, 49035, Note_on_c, 2, 73, 89
4, 49035, Note_on_c, 2, 64, 89
4, 49110, Note_on_c, 2, 73, 0
4, 49110, Note_on_c, 2, 64, 0
4, 49125, Note_on_c, 2, 70, 89
4, 49125, Note_on_c, 2, 61, 89
4, 49200, Note_on_c, 2, 70, 0
4, 49200, Note_on_c, 2, 61, 0
4, 49215, Note_on_c, 2, 67, 89
4, 49215, Note_on_c, 2, 58, 89
4, 49290, Note_on_c, 2, 67, 0
4, 49290, Note_on_c, 2, 58, 0
4, 49305, Note_on_c, 2, 70, 89
4, 49305, Note_on_c, 2, 61, 89
4, 49380, Note_on_c, 2, 70, 0
4, 49380, Note_on_c, 2, 61, 0
4, 49395, Note_on_c, 2, 67, 89
4, 49395, Note_on_c, 2, 58, 89
4, 49470, Note_on_c, 2, 67, 0
4, 49470, Note_on_c, 2, 58, 0
4, 49485, Note_on_c, 2, 64, 89
4, 49485, Note_on_c, 2, 55, 89
4, 49560, Note_on_c, 2, 64, 0
4, 49560, Note_on_c, 2, 55, 0
4, 49575, Note_on_c, 2, 67, 89
4, 49575, Note_on_c, 2, 58, 89
4, 49650, Note_on_c, 2, 67, 0
4, 49650, Note_on_c, 2, 58, 0
4, 49665, Note_on_c, 2, 64, 89
4, 49665, Note_on_c, 2, 55, 89
4, 49740, Note_on_c, 2, 64, 0
4, 49740, Note_on_c, 2, 55, 0
4, 49755, Note_on_c, 2, 67, 89
4, 49755, Note_on_c, 2, 58, 89
4, 49830, Note_on_c, 2, 67, 0
4, 49830, Note_on_c, 2, 58, 0
4, 49845, Note_on_c, 2, 61, 89
4, 49845, Note_on_c, 2, 70, 89
4, 49920, Note_on_c, 2, 61, 0
4, 49920, Note_on_c, 2, 70, 0
4, 49935, Note_on_c, 2, 67, 89
4, 49935, Note_on_c, 2, 58, 89
4, 50010, Note_on_c, 2, 67, 0
4, 50010, Note_on_c, 2, 58, 0
4, 50025, Note_on_c, 2, 64, 89
4, 50025, Note_on_c, 2, 55, 89
4, 50100, Note_on_c, 2, 64, 0
4, 50100, Note_on_c, 2, 55, 0
4, 50115, Note_on_c, 2, 67, 89
4, 50115, Note_on_c, 2, 58, 89
4, 50190, Note_on_c, 2, 67, 0
4, 50190, Note_on_c, 2, 58, 0
4, 50205, Note_on_c, 2, 64, 89
4, 50205, Note_on_c, 2, 55, 89
4, 50280, Note_on_c, 2, 64, 0
4, 50280, Note_on_c, 2, 55, 0
4, 50295, Note_on_c, 2, 67, 89
4, 50295, Note_on_c, 2, 58, 89
4, 50370, Note_on_c, 2, 67, 0
4, 50370, Note_on_c, 2, 58, 0
4, 50385, Note_on_c, 2, 70, 89
4, 50385, Note_on_c, 2, 61, 89
4, 50460, Note_on_c, 2, 70, 0
4, 50460, Note_on_c, 2, 61, 0
4, 50475, Note_on_c, 2, 67, 89
4, 50475, Note_on_c, 2, 58, 89
4, 50550, Note_on_c, 2, 67, 0
4, 50550, Note_on_c, 2, 58, 0
4, 50565, Note_on_c, 2, 64, 89
4, 50565, Note_on_c, 2, 55, 89
4, 50640, Note_on_c, 2, 64, 0
4, 50640, Note_on_c, 2, 55, 0
4, 50655, Note_on_c, 2, 67, 89
4, 50655, Note_on_c, 2, 58, 89
4, 50730, Note_on_c, 2, 67, 0
4, 50730, Note_on_c, 2, 58, 0
4, 50745, Note_on_c, 2, 64, 89
4, 50745, Note_on_c, 2, 55, 89
4, 50820, Note_on_c, 2, 64, 0
4, 50820, Note_on_c, 2, 55, 0
4, 50835, Note_on_c, 2, 58, 89
4, 50835, Note_on_c, 2, 67, 89
4, 50910, Note_on_c, 2, 58, 0
4, 50910, Note_on_c, 2, 67, 0
4, 50925, Note_on_c, 2, 70, 89
4, 50925, Note_on_c, 2, 61, 89
4, 51000, Note_on_c, 2, 70, 0
4, 51000, Note_on_c, 2, 61, 0
4, 51015, Note_on_c, 2, 67, 89
4, 51015, Note_on_c, 2, 58, 89
4, 51090, Note_on_c, 2, 67, 0
4, 51090, Note_on_c, 2, 58, 0
4, 51105, Note_on_c, 2, 64, 89
4, 51105, Note_on_c, 2, 55, 89
4, 51180, Note_on_c, 2, 64, 0
4, 51180, Note_on_c, 2, 55, 0
4, 51195, Note_on_c, 2, 67, 89
4, 51195, Note_on_c, 2, 58, 89
4, 51270, Note_on_c, 2, 67, 0
4, 51270, Note_on_c, 2, 58, 0
4, 51285, Note_on_c, 2, 64, 89
4, 51285, Note_on_c, 2, 55, 89
4, 51360, Note_on_c, 2, 64, 0
4, 51360, Note_on_c, 2, 55, 0
4, 51375, Note_on_c, 2, 61, 89
4, 51375, Note_on_c, 2, 52, 89
4, 51450, Note_on_c, 2, 61, 0
4, 51450, Note_on_c, 2, 52, 0
4, 51465, Note_on_c, 2, 64, 89
4, 51465, Note_on_c, 2, 55, 89
4, 51540, Note_on_c, 2, 64, 0
4, 51540, Note_on_c, 2, 55, 0
4, 51555, Note_on_c, 2, 61, 89
4, 51555, Note_on_c, 2, 52, 89
4, 51630, Note_on_c, 2, 61, 0
4, 51630, Note_on_c, 2, 52, 0
4, 51645, Note_on_c, 2, 58, 89
4, 51645, Note_on_c, 2, 49, 89
4, 51720, Note_on_c, 2, 58, 0
4, 51720, Note_on_c, 2, 49, 0
4, 51735, Note_on_c, 2, 61, 89
4, 51735, Note_on_c, 2, 52, 89
4, 51810, Note_on_c, 2, 61, 0
4, 51810, Note_on_c, 2, 52, 0
4, 51825, Note_on_c, 2, 49, 89
4, 51825, Note_on_c, 2, 58, 89
4, 51900, Note_on_c, 2, 49, 0
4, 51900, Note_on_c, 2, 58, 0
4, 51915, Note_on_c, 2, 61, 89
4, 51915, Note_on_c, 2, 52, 89
4, 51990, Note_on_c, 2, 61, 0
4, 51990, Note_on_c, 2, 52, 0
4, 52005, Note_on_c, 2, 64, 89
4, 52005, Note_on_c, 2, 55, 89
4, 52080, Note_on_c, 2, 64, 0
4, 52080, Note_on_c, 2, 55, 0
4, 52095, Note_on_c, 2, 61, 89
4, 52095, Note_on_c, 2, 52, 89
4, 52170, Note_on_c, 2, 61, 0
4, 52170, Note_on_c, 2, 52, 0
4, 52185, Note_on_c, 2, 58, 89
4, 52185, Note_on_c, 2, 49, 89
4, 52260, Note_on_c, 2, 58, 0
4, 52260, Note_on_c, 2, 49, 0
4, 52275, Note_on_c, 2, 61, 89
4, 52275, Note_on_c, 2, 52, 89
4, 52350, Note_on_c, 2, 61, 0
4, 52350, Note_on_c, 2, 52, 0
4, 52365, Note_on_c, 2, 58, 89
4, 52365, Note_on_c, 2, 49, 89
4, 52440, Note_on_c, 2, 58, 0
4, 52440, Note_on_c, 2, 49, 0
4, 52455, Note_on_c, 2, 61, 89
4, 52455, Note_on_c, 2, 52, 89
4, 52530, Note_on_c, 2, 61, 0
4, 52530, Note_on_c, 2, 52, 0
4, 52545, Note_on_c, 2, 64, 89
4, 52545, Note_on_c, 2, 55, 89
4, 52620, Note_on_c, 2, 64, 0
4, 52620, Note_on_c, 2, 55, 0
4, 52635, Note_on_c, 2, 61, 89
4, 52635, Note_on_c, 2, 52, 89
4, 52710, Note_on_c, 2, 61, 0
4, 52710, Note_on_c, 2, 52, 0
4, 52725, Note_on_c, 2, 49, 89
4, 52725, Note_on_c, 2, 58, 89
4, 52800, Note_on_c, 2, 49, 0
4, 52800, Note_on_c, 2, 58, 0
4, 52815, Note_on_c, 2, 61, 89
4, 52815, Note_on_c, 2, 52, 89
4, 52890, Note_on_c, 2, 61, 0
4, 52890, Note_on_c, 2, 52, 0
4, 52905, Note_on_c, 2, 58, 89
4, 52905, Note_on_c, 2, 49, 89
4, 52980, Note_on_c, 2, 58, 0
4, 52980, Note_on_c, 2, 49, 0
4, 52995, Note_on_c, 2, 61, 89
4, 52995, Note_on_c, 2, 52, 89
4, 53070, Note_on_c, 2, 61, 0
4, 53070, Note_on_c, 2, 52, 0
4, 53085, Note_on_c, 2, 64, 89
4, 53085, Note_on_c, 2, 55, 89
4, 53160, Note_on_c, 2, 64, 0
4, 53160, Note_on_c, 2, 55, 0
4, 53175, Note_on_c, 2, 61, 89
4, 53175, Note_on_c, 2, 52, 89
4, 53250, Note_on_c, 2, 61, 0
4, 53250, Note_on_c, 2, 52, 0
4, 53265, Note_on_c, 2, 58, 89
4, 53265, Note_on_c, 2, 49, 89
4, 53340, Note_on_c, 2, 58, 0
4, 53340, Note_on_c, 2, 49, 0
4, 53355, Note_on_c, 2, 61, 89
4, 53355, Note_on_c, 2, 52, 89
4, 53430, Note_on_c, 2, 61, 0
4, 53430, Note_on_c, 2, 52, 0
4, 53445, Note_on_c, 2, 58, 89
4, 53445, Note_on_c, 2, 49, 89
4, 53520, Note_on_c, 2, 58, 0
4, 53520, Note_on_c, 2, 49, 0
4, 53535, Note_on_c, 2, 61, 89
4, 53535, Note_on_c, 2, 52, 89
4, 53610, Note_on_c, 2, 61, 0
4, 53610, Note_on_c, 2, 52, 0
4, 53625, Note_on_c, 2, 64, 89
4, 53625, Note_on_c, 2, 55, 89
4, 53700, Note_on_c, 2, 64, 0
4, 53700, Note_on_c, 2, 55, 0
4, 53715, Note_on_c, 2, 52, 89
4, 53715, Note_on_c, 2, 61, 89
4, 53790, Note_on_c, 2, 52, 0
4, 53790, Note_on_c, 2, 61, 0
4, 53805, Note_on_c, 2, 64, 89
4, 53805, Note_on_c, 2, 55, 89
4, 53880, Note_on_c, 2, 64, 0
4, 53880, Note_on_c, 2, 55, 0
4, 53895, Note_on_c, 2, 67, 89
4, 53970, Note_on_c, 2, 67, 0
4, 53985, Note_on_c, 2, 64, 89
4, 53985, Note_on_c, 2, 55, 89
4, 54060, Note_on_c, 2, 64, 0
4, 54060, Note_on_c, 2, 55, 0
4, 54075, Note_on_c, 2, 61, 89
4, 54075, Note_on_c, 2, 52, 89
4, 54150, Note_on_c, 2, 61, 0
4, 54150, Note_on_c, 2, 52, 0
4, 54165, Note_on_c, 2, 64, 89
4, 54165, Note_on_c, 2, 55, 89
4, 54240, Note_on_c, 2, 64, 0
4, 54240, Note_on_c, 2, 55, 0
4, 54255, Note_on_c, 2, 61, 89
4, 54255, Note_on_c, 2, 52, 89
4, 54330, Note_on_c, 2, 61, 0
4, 54330, Note_on_c, 2, 52, 0
4, 54345, Note_on_c, 2, 64, 89
4, 54345, Note_on_c, 2, 55, 89
4, 54420, Note_on_c, 2, 64, 0
4, 54420, Note_on_c, 2, 55, 0
4, 54435, Note_on_c, 2, 67, 89
4, 54435, Note_on_c, 2, 58, 89
4, 54510, Note_on_c, 2, 67, 0
4, 54510, Note_on_c, 2, 58, 0
4, 54525, Note_on_c, 2, 64, 89
4, 54525, Note_on_c, 2, 55, 89
4, 54600, Note_on_c, 2, 64, 0
4, 54600, Note_on_c, 2, 55, 0
4, 54615, Note_on_c, 2, 61, 89
4, 54615, Note_on_c, 2, 52, 89
4, 54690, Note_on_c, 2, 61, 0
4, 54690, Note_on_c, 2, 52, 0
4, 54705, Note_on_c, 2, 55, 89
4, 54705, Note_on_c, 2, 64, 89
4, 54780, Note_on_c, 2, 55, 0
4, 54780, Note_on_c, 2, 64, 0
4, 54795, Note_on_c, 2, 61, 89
4, 54795, Note_on_c, 2, 52, 89
4, 54870, Note_on_c, 2, 61, 0
4, 54870, Note_on_c, 2, 52, 0
4, 54885, Note_on_c, 2, 64, 89
4, 54885, Note_on_c, 2, 55, 89
4, 54960, Note_on_c, 2, 64, 0
4, 54960, Note_on_c, 2, 55, 0
4, 54975, Note_on_c, 2, 67, 89
4, 54975, Note_on_c, 2, 58, 89
4, 55050, Note_on_c, 2, 67, 0
4, 55050, Note_on_c, 2, 58, 0
4, 55065, Note_on_c, 2, 64, 89
4, 55065, Note_on_c, 2, 55, 89
4, 55140, Note_on_c, 2, 64, 0
4, 55140, Note_on_c, 2, 55, 0
4, 55155, Note_on_c, 2, 61, 89
4, 55155, Note_on_c, 2, 52, 89
4, 55230, Note_on_c, 2, 61, 0
4, 55230, Note_on_c, 2, 52, 0
4, 55245, Note_on_c, 2, 64, 89
4, 55245, Note_on_c, 2, 55, 89
4, 55320, Note_on_c, 2, 64, 0
4, 55320, Note_on_c, 2, 55, 0
4, 55335, Note_on_c, 2, 61, 89
4, 55335, Note_on_c, 2, 52, 89
4, 55410, Note_on_c, 2, 61, 0
4, 55410, Note_on_c, 2, 52, 0
4, 55425, Note_on_c, 2, 64, 89
4, 55425, Note_on_c, 2, 55, 89
4, 55500, Note_on_c, 2, 64, 0
4, 55500, Note_on_c, 2, 55, 0
4, 55515, Note_on_c, 2, 67, 89
4, 55515, Note_on_c, 2, 58, 89
4, 55590, Note_on_c, 2, 67, 0
4, 55590, Note_on_c, 2, 58, 0
4, 55605, Note_on_c, 2, 55, 89
4, 55605, Note_on_c, 2, 64, 89
4, 55680, Note_on_c, 2, 55, 0
4, 55680, Note_on_c, 2, 64, 0
4, 55695, Note_on_c, 2, 67, 89
4, 55695, Note_on_c, 2, 58, 89
4, 55770, Note_on_c, 2, 67, 0
4, 55770, Note_on_c, 2, 58, 0
4, 55785, Note_on_c, 2, 70, 89
4, 55785, Note_on_c, 2, 61, 89
4, 55860, Note_on_c, 2, 70, 0
4, 55860, Note_on_c, 2, 61, 0
4, 55875, Note_on_c, 2, 67, 89
4, 55875, Note_on_c, 2, 58, 89
4, 55950, Note_on_c, 2, 67, 0
4, 55950, Note_on_c, 2, 58, 0
4, 55965, Note_on_c, 2, 70, 89
4, 55965, Note_on_c, 2, 61, 89
4, 56040, Note_on_c, 2, 70, 0
4, 56040, Note_on_c, 2, 61, 0
4, 56055, Note_on_c, 2, 67, 89
4, 56055, Note_on_c, 2, 58, 89
4, 56130, Note_on_c, 2, 67, 0
4, 56130, Note_on_c, 2, 58, 0
4, 56145, Note_on_c, 2, 70, 89
4, 56145, Note_on_c, 2, 61, 89
4, 56220, Note_on_c, 2, 70, 0
4, 56220, Note_on_c, 2, 61, 0
4, 56235, Note_on_c, 2, 67, 89
4, 56235, Note_on_c, 2, 58, 89
4, 56310, Note_on_c, 2, 67, 0
4, 56310, Note_on_c, 2, 58, 0
4, 56325, Note_on_c, 2, 70, 89
4, 56325, Note_on_c, 2, 61, 89
4, 56400, Note_on_c, 2, 70, 0
4, 56400, Note_on_c, 2, 61, 0
4, 56415, Note_on_c, 2, 67, 89
4, 56415, Note_on_c, 2, 58, 89
4, 56490, Note_on_c, 2, 67, 0
4, 56490, Note_on_c, 2, 58, 0
4, 56505, Note_on_c, 2, 70, 89
4, 56505, Note_on_c, 2, 61, 89
4, 56580, Note_on_c, 2, 70, 0
4, 56580, Note_on_c, 2, 61, 0
4, 56595, Note_on_c, 2, 58, 89
4, 56595, Note_on_c, 2, 67, 89
4, 56670, Note_on_c, 2, 58, 0
4, 56670, Note_on_c, 2, 67, 0
4, 56685, Note_on_c, 2, 70, 89
4, 56685, Note_on_c, 2, 61, 89
4, 56760, Note_on_c, 2, 70, 0
4, 56760, Note_on_c, 2, 61, 0
4, 56775, Note_on_c, 2, 73, 89
4, 56775, Note_on_c, 2, 64, 89
4, 56850, Note_on_c, 2, 73, 0
4, 56850, Note_on_c, 2, 64, 0
4, 56865, Note_on_c, 2, 70, 89
4, 56865, Note_on_c, 2, 61, 89
4, 56940, Note_on_c, 2, 70, 0
4, 56940, Note_on_c, 2, 61, 0
4, 56955, Note_on_c, 2, 73, 89
4, 56955, Note_on_c, 2, 64, 89
4, 57030, Note_on_c, 2, 73, 0
4, 57030, Note_on_c, 2, 64, 0
4, 57045, Note_on_c, 2, 76, 89
4, 57045, Note_on_c, 2, 67, 89
4, 57120, Note_on_c, 2, 76, 0
4, 57120, Note_on_c, 2, 67, 0
4, 57135, Note_on_c, 2, 73, 89
4, 57135, Note_on_c, 2, 64, 89
4, 57210, Note_on_c, 2, 73, 0
4, 57210, Note_on_c, 2, 64, 0
4, 57225, Note_on_c, 2, 76, 89
4, 57225, Note_on_c, 2, 67, 89
4, 57300, Note_on_c, 2, 76, 0
4, 57300, Note_on_c, 2, 67, 0
4, 57315, Note_on_c, 2, 73, 89
4, 57315, Note_on_c, 2, 64, 89
4, 57390, Note_on_c, 2, 73, 0
4, 57390, Note_on_c, 2, 64, 0
4, 57405, Note_on_c, 2, 76, 89
4, 57405, Note_on_c, 2, 67, 89
4, 57480, Note_on_c, 2, 76, 0
4, 57480, Note_on_c, 2, 67, 0
4, 57495, Note_on_c, 2, 73, 89
4, 57495, Note_on_c, 2, 64, 89
4, 57570, Note_on_c, 2, 73, 0
4, 57570, Note_on_c, 2, 64, 0
4, 57585, Note_on_c, 2, 67, 89
4, 57585, Note_on_c, 2, 76, 89
4, 57660, Note_on_c, 2, 67, 0
4, 57660, Note_on_c, 2, 76, 0
4, 57675, Note_on_c, 2, 73, 89
4, 57675, Note_on_c, 2, 64, 89
4, 57750, Note_on_c, 2, 73, 0
4, 57750, Note_on_c, 2, 64, 0
4, 57765, Note_on_c, 2, 76, 89
4, 57765, Note_on_c, 2, 67, 89
4, 57825, Note_on_c, 2, 76, 0
4, 57840, Note_on_c, 2, 67, 0
4, 57855, Note_on_c, 2, 55, 89
4, 57855, Note_on_c, 2, 57, 89
4, 57855, Note_on_c, 2, 61, 89
4, 57855, Note_on_c, 2, 64, 89
4, 57855, Note_on_c, 2, 69, 89
4, 57855, Note_on_c, 2, 73, 89
4, 57855, Note_on_c, 2, 76, 89
4, 57855, Note_on_c, 2, 81, 89
4, 58560, Note_on_c, 2, 55, 0
4, 58560, Note_on_c, 2, 57, 0
4, 58560, Note_on_c, 2, 61, 0
4, 58560, Note_on_c, 2, 64, 0
4, 58560, Note_on_c, 2, 69, 0
4, 58560, Note_on_c, 2, 73, 0
4, 58560, Note_on_c, 2, 76, 0
4, 58560, Note_on_c, 2, 81, 0
4, 58575, Note_on_c, 2, 81, 89
4, 58575, Note_on_c, 2, 77, 89
4, 58575, Note_on_c, 2, 69, 89
4, 58575, Note_on_c, 2, 65, 89
4, 58575, Note_on_c, 2, 62, 89
4, 58575, Note_on_c, 2, 57, 89
4, 58575, Note_on_c, 2, 53, 89
4, 58575, Note_on_c, 2, 74, 89
4, 59265, Note_on_c, 2, 62, 0
4, 59265, Note_on_c, 2, 74, 0
4, 59280, Note_on_c, 2, 81, 0
4, 59280, Note_on_c, 2, 77, 0
4, 59280, Note_on_c, 2, 69, 0
4, 59280, Note_on_c, 2, 65, 0
4, 59280, Note_on_c, 2, 57, 0
4, 59280, Note_on_c, 2, 53, 0
4, 59295, Note_on_c, 2, 79, 89
4, 59295, Note_on_c, 2, 74, 89
4, 59295, Note_on_c, 2, 70, 89
4, 59295, Note_on_c, 2, 67, 89
4, 59295, Note_on_c, 2, 62, 89
4, 59295, Note_on_c, 2, 58, 89
4, 60000, Note_on_c, 2, 79, 0
4, 60000, Note_on_c, 2, 74, 0
4, 60000, Note_on_c, 2, 70, 0
4, 60000, Note_on_c, 2, 67, 0
4, 60000, Note_on_c, 2, 62, 0
4, 60240, Note_on_c, 2, 58, 0
4, 60255, Note_on_c, 2, 57, 89
4, 60360, Note_on_c, 2, 57, 0
4, 60375, Note_on_c, 2, 55, 89
4, 60480, Note_on_c, 2, 55, 0
4, 60495, Note_on_c, 2, 57, 89
4, 60495, Note_on_c, 2, 61, 89
4, 60495, Note_on_c, 2, 64, 89
4, 60495, Note_on_c, 2, 69, 89
4, 60495, Note_on_c, 2, 73, 89
4, 60495, Note_on_c, 2, 76, 89
4, 60495, Note_on_c, 2, 79, 89
4, 60600, Note_on_c, 2, 57, 0
4, 60615, Note_on_c, 2, 52, 89
4, 60720, Note_on_c, 2, 61, 0
4, 60720, Note_on_c, 2, 64, 0
4, 60720, Note_on_c, 2, 69, 0
4, 60720, Note_on_c, 2, 73, 0
4, 60720, Note_on_c, 2, 76, 0
4, 60720, Note_on_c, 2, 79, 0
4, 60720, Note_on_c, 2, 52, 0
4, 60735, Note_on_c, 2, 53, 89
4, 60810, Note_on_c, 2, 53, 0
4, 60825, Note_on_c, 2, 50, 89
4, 60900, Note_on_c, 2, 50, 0
4, 60915, Note_on_c, 2, 52, 89
4, 60990, Note_on_c, 2, 52, 0
4, 61005, Note_on_c, 2, 49, 89
4, 61080, Note_on_c, 2, 49, 0
4, 61095, Note_on_c, 2, 50, 89
4, 61170, Note_on_c, 2, 50, 0
4, 61185, Note_on_c, 2, 47, 89
4, 61260, Note_on_c, 2, 47, 0
4, 61275, Note_on_c, 2, 49, 89
4, 61350, Note_on_c, 2, 49, 0
4, 61365, Note_on_c, 2, 45, 89
4, 61440, Note_on_c, 2, 45, 0
4, 61455, Note_on_c, 2, 46, 89
4, 61530, Note_on_c, 2, 46, 0
4, 61545, Note_on_c, 2, 44, 89
4, 61620, Note_on_c, 2, 44, 0
4, 61635, Note_on_c, 2, 45, 89
4, 61710, Note_on_c, 2, 45, 0
4, 61725, Note_on_c, 2, 55, 89
4, 61725, Note_on_c, 2, 57, 89
4, 61725, Note_on_c, 2, 64, 89
4, 61725, Note_on_c, 2, 73, 89
4, 61725, Note_on_c, 2, 69, 89
4, 61785, Note_on_c, 2, 57, 0
4, 61785, Note_on_c, 2, 69, 0
4, 61800, Note_on_c, 2, 55, 0
4, 61800, Note_on_c, 2, 64, 0
4, 61800, Note_on_c, 2, 73, 0
4, 61815, Note_on_c, 2, 74, 89
4, 61815, Note_on_c, 2, 69, 89
4, 61815, Note_on_c, 2, 65, 89
4, 61815, Note_on_c, 2, 62, 89
4, 61815, Note_on_c, 2, 57, 89
4, 61815, Note_on_c, 2, 53, 89
4, 61965, Note_on_c, 2, 65, 0
4, 61965, Note_on_c, 2, 62, 0
4, 61965, Note_on_c, 2, 57, 0
4, 61980, Note_on_c, 2, 74, 0
4, 61980, Note_on_c, 2, 69, 0
4, 61980, Note_on_c, 2, 53, 0
4, 61995, Note_on_c, 2, 57, 89
4, 61995, Note_on_c, 2, 50, 89
4, 61995, Note_on_c, 2, 62, 89
4, 61995, Note_on_c, 2, 65, 89
4, 62160, Note_on_c, 2, 50, 0
4, 62160, Note_on_c, 2, 65, 0
4, 62175, Note_on_c, 2, 64, 89
4, 62175, Note_on_c, 2, 45, 89
4, 62340, Note_on_c, 2, 62, 0
4, 62355, Note_on_c, 2, 61, 89
4, 62415, Note_on_c, 2, 64, 0
4, 62415, Note_on_c, 2, 64, 89
4, 62520, Note_on_c, 2, 57, 0
4, 62535, Note_on_c, 2, 55, 89
4, 62625, Note_on_c, 2, 55, 0
4, 62640, Note_on_c, 2, 45, 0
4, 62640, Note_on_c, 2, 61, 0
4, 62640, Note_on_c, 2, 64, 0
4, 62655, Note_on_c, 2, 62, 89
4, 62655, Note_on_c, 2, 57, 89
4, 62655, Note_on_c, 2, 50, 89
4, 62655, Note_on_c, 2, 38, 89
4, 62655, Note_on_c, 2, 55, 89
4, 62820, Note_on_c, 2, 55, 0
4, 62835, Note_on_c, 2, 53, 89
4, 62910, Note_on_c, 2, 53, 0
4, 62925, Note_on_c, 2, 52, 89
4, 63000, Note_on_c, 2, 52, 0
4, 63015, Note_on_c, 2, 53, 89
4, 63615, Note_on_c, 2, 62, 0
4, 63615, Note_on_c, 2, 57, 0
4, 63615, Note_on_c, 2, 50, 0
4, 63615, Note_on_c, 2, 38, 0
4, 63615, Note_on_c, 2, 53, 0
4, 63615, End_track
5, 0, Start_track
5, 0, Title_t, "Sup. Strings\000\000"
5, 0, Instrument_name_t, "String Ensemble"
5, 0, MIDI_port, 0
5, 0, Text_t, "Added Strings\000"
5, 0, Program_c, 3, 49
5, 0, Control_c, 3, 7, 126
5, 0, Note_on_c, 3, 69, 89
5, 0, Note_on_c, 3, 81, 89
5, 24, Control_c, 3, 10, 64
5, 30, Note_on_c, 3, 69, 0
5, 30, Note_on_c, 3, 81, 0
5, 45, Note_on_c, 3, 67, 89
5, 45, Note_on_c, 3, 79, 89
5, 75, Note_on_c, 3, 67, 0
5, 85, Note_on_c, 3, 79, 0
5, 90, Note_on_c, 3, 69, 89
5, 90, Note_on_c, 3, 81, 89
5, 945, Note_on_c, 3, 69, 0
5, 945, Note_on_c, 3, 81, 0
5, 960, Note_on_c, 3, 67, 89
5, 960, Note_on_c, 3, 79, 89
5, 990, Note_on_c, 3, 67, 0
5, 1000, Note_on_c, 3, 79, 0
5, 1005, Note_on_c, 3, 65, 89
5, 1005, Note_on_c, 3, 77, 89
5, 1035, Note_on_c, 3, 65, 0
5, 1045, Note_on_c, 3, 77, 0
5, 1050, Note_on_c, 3, 64, 89
5, 1050, Note_on_c, 3, 76, 89
5, 1080, Note_on_c, 3, 64, 0
5, 1090, Note_on_c, 3, 76, 0
5, 1095, Note_on_c, 3, 62, 89
5, 1095, Note_on_c, 3, 74, 89
5, 1125, Note_on_c, 3, 62, 0
5, 1135, Note_on_c, 3, 74, 0
5, 1140, Note_on_c, 3, 61, 89
5, 1140, Note_on_c, 3, 73, 89
5, 1665, Note_on_c, 3, 61, 0
5, 1665, Note_on_c, 3, 73, 0
5, 1695, Note_on_c, 3, 74, 89
5, 1695, Note_on_c, 3, 62, 89
5, 1995, Note_on_c, 3, 74, 0
5, 1995, Note_on_c, 3, 62, 0
5, 2880, Note_on_c, 3, 57, 89
5, 2880, Note_on_c, 3, 69, 89
5, 2910, Note_on_c, 3, 57, 0
5, 2910, Note_on_c, 3, 69, 0
5, 2925, Note_on_c, 3, 55, 89
5, 2925, Note_on_c, 3, 67, 89
5, 2955, Note_on_c, 3, 55, 0
5, 2965, Note_on_c, 3, 67, 0
5, 2970, Note_on_c, 3, 57, 89
5, 2970, Note_on_c, 3, 69, 89
5, 3765, Note_on_c, 3, 57, 0
5, 3765, Note_on_c, 3, 69, 0
5, 3840, Note_on_c, 3, 52, 89
5, 3840, Note_on_c, 3, 64, 89
5, 4005, Note_on_c, 3, 52, 0
5, 4005, Note_on_c, 3, 64, 0
5, 4020, Note_on_c, 3, 53, 89
5, 4020, Note_on_c, 3, 65, 89
5, 4185, Note_on_c, 3, 53, 0
5, 4185, Note_on_c, 3, 65, 0
5, 4200, Note_on_c, 3, 49, 89
5, 4200, Note_on_c, 3, 61, 89
5, 4365, Note_on_c, 3, 49, 0
5, 4365, Note_on_c, 3, 61, 0
5, 4380, Note_on_c, 3, 50, 89
5, 4380, Note_on_c, 3, 62, 89
5, 4740, Note_on_c, 3, 50, 0
5, 4740, Note_on_c, 3, 62, 0
5, 5760, Note_on_c, 3, 45, 89
5, 5760, Note_on_c, 3, 57, 89
5, 5790, Note_on_c, 3, 45, 0
5, 5790, Note_on_c, 3, 57, 0
5, 5805, Note_on_c, 3, 43, 89
5, 5805, Note_on_c, 3, 55, 89
5, 5835, Note_on_c, 3, 43, 0
5, 5845, Note_on_c, 3, 55, 0
5, 5850, Note_on_c, 3, 45, 89
5, 5850, Note_on_c, 3, 57, 89
5, 6705, Note_on_c, 3, 45, 0
5, 6705, Note_on_c, 3, 57, 0
5, 6720, Note_on_c, 3, 43, 89
5, 6720, Note_on_c, 3, 55, 89
5, 6750, Note_on_c, 3, 43, 0
5, 6760, Note_on_c, 3, 55, 0
5, 6765, Note_on_c, 3, 41, 89
5, 6765, Note_on_c, 3, 53, 89
5, 6795, Note_on_c, 3, 41, 0
5, 6805, Note_on_c, 3, 53, 0
5, 6810, Note_on_c, 3, 40, 89
5, 6810, Note_on_c, 3, 52, 89
5, 6840, Note_on_c, 3, 40, 0
5, 6850, Note_on_c, 3, 52, 0
5, 6855, Note_on_c, 3, 38, 89
5, 6855, Note_on_c, 3, 50, 89
5, 6885, Note_on_c, 3, 38, 0
5, 6895, Note_on_c, 3, 50, 0
5, 6900, Note_on_c, 3, 37, 89
5, 6900, Note_on_c, 3, 49, 89
5, 7425, Note_on_c, 3, 37, 0
5, 7425, Note_on_c, 3, 49, 0
5, 7455, Note_on_c, 3, 50, 89
5, 7455, Note_on_c, 3, 38, 89
5, 7755, Note_on_c, 3, 50, 0
5, 7755, Note_on_c, 3, 38, 0
5, 8640, Note_on_c, 3, 38, 89
5, 9135, Note_on_c, 3, 49, 89
5, 9600, Note_on_c, 3, 52, 89
5, 10095, Note_on_c, 3, 55, 89
5, 10560, Note_on_c, 3, 58, 89
5, 11055, Note_on_c, 3, 61, 89
5, 11520, Note_on_c, 3, 64, 89
5, 12405, Note_on_c, 3, 55, 0
5, 12465, Note_on_c, 3, 49, 0
5, 12465, Note_on_c, 3, 52, 0
5, 12465, Note_on_c, 3, 58, 0
5, 12465, Note_on_c, 3, 61, 0
5, 12480, Note_on_c, 3, 64, 0
5, 12480, Note_on_c, 3, 62, 89
5, 12480, Note_on_c, 3, 57, 89
5, 12480, Note_on_c, 3, 50, 89
5, 12480, Note_on_c, 3, 55, 89
5, 12945, Note_on_c, 3, 55, 0
5, 12975, Note_on_c, 3, 52, 89
5, 13440, Note_on_c, 3, 52, 0
5, 13440, Note_on_c, 3, 54, 89
5, 14385, Note_on_c, 3, 38, 0
5, 14385, Note_on_c, 3, 62, 0
5, 14385, Note_on_c, 3, 57, 0
5, 14385, Note_on_c, 3, 50, 0
5, 14385, Note_on_c, 3, 54, 0
5, 15300, Note_on_c, 3, 49, 89
5, 15300, Note_on_c, 3, 61, 89
5, 15345, Note_on_c, 3, 49, 0
5, 15345, Note_on_c, 3, 61, 0
5, 15360, Note_on_c, 3, 50, 89
5, 15360, Note_on_c, 3, 62, 89
5, 15405, Note_on_c, 3, 50, 0
5, 15405, Note_on_c, 3, 62, 0
5, 15420, Note_on_c, 3, 52, 89
5, 15420, Note_on_c, 3, 64, 89
5, 15465, Note_on_c, 3, 52, 0
5, 15465, Note_on_c, 3, 64, 0
5, 15480, Note_on_c, 3, 49, 89
5, 15480, Note_on_c, 3, 61, 89
5, 15525, Note_on_c, 3, 49, 0
5, 15525, Note_on_c, 3, 61, 0
5, 15540, Note_on_c, 3, 50, 89
5, 15540, Note_on_c, 3, 62, 89
5, 15585, Note_on_c, 3, 50, 0
5, 15585, Note_on_c, 3, 62, 0
5, 15600, Note_on_c, 3, 52, 89
5, 15600, Note_on_c, 3, 64, 89
5, 15645, Note_on_c, 3, 52, 0
5, 15645, Note_on_c, 3, 64, 0
5, 15660, Note_on_c, 3, 49, 89
5, 15660, Note_on_c, 3, 61, 89
5, 15705, Note_on_c, 3, 49, 0
5, 15705, Note_on_c, 3, 61, 0
5, 15720, Note_on_c, 3, 50, 89
5, 15720, Note_on_c, 3, 62, 89
5, 15765, Note_on_c, 3, 50, 0
5, 15765, Note_on_c, 3, 62, 0
5, 15780, Note_on_c, 3, 52, 89
5, 15780, Note_on_c, 3, 64, 89
5, 15825, Note_on_c, 3, 52, 0
5, 15825, Note_on_c, 3, 64, 0
5, 15840, Note_on_c, 3, 49, 89
5, 15840, Note_on_c, 3, 61, 89
5, 15885, Note_on_c, 3, 49, 0
5, 15885, Note_on_c, 3, 61, 0
5, 15900, Note_on_c, 3, 50, 89
5, 15900, Note_on_c, 3, 62, 89
5, 15975, Note_on_c, 3, 50, 0
5, 15975, Note_on_c, 3, 62, 0
5, 15990, Note_on_c, 3, 52, 89
5, 15990, Note_on_c, 3, 64, 89
5, 16065, Note_on_c, 3, 52, 0
5, 16065, Note_on_c, 3, 64, 0
5, 16080, Note_on_c, 3, 53, 89
5, 16080, Note_on_c, 3, 65, 89
5, 16125, Note_on_c, 3, 53, 0
5, 16125, Note_on_c, 3, 65, 0
5, 16140, Note_on_c, 3, 55, 89
5, 16140, Note_on_c, 3, 67, 89
5, 16185, Note_on_c, 3, 55, 0
5, 16185, Note_on_c, 3, 67, 0
5, 16200, Note_on_c, 3, 52, 89
5, 16200, Note_on_c, 3, 64, 89
5, 16245, Note_on_c, 3, 52, 0
5, 16245, Note_on_c, 3, 64, 0
5, 16260, Note_on_c, 3, 53, 89
5, 16260, Note_on_c, 3, 65, 89
5, 16305, Note_on_c, 3, 53, 0
5, 16305, Note_on_c, 3, 65, 0
5, 16320, Note_on_c, 3, 67, 89
5, 16320, Note_on_c, 3, 55, 89
5, 16365, Note_on_c, 3, 67, 0
5, 16365, Note_on_c, 3, 55, 0
5, 16380, Note_on_c, 3, 64, 89
5, 16380, Note_on_c, 3, 52, 89
5, 16425, Note_on_c, 3, 64, 0
5, 16425, Note_on_c, 3, 52, 0
5, 16440, Note_on_c, 3, 65, 89
5, 16440, Note_on_c, 3, 53, 89
5, 16485, Note_on_c, 3, 65, 0
5, 16485, Note_on_c, 3, 53, 0
5, 16500, Note_on_c, 3, 67, 89
5, 16500, Note_on_c, 3, 55, 89
5, 16545, Note_on_c, 3, 67, 0
5, 16545, Note_on_c, 3, 55, 0
5, 16560, Note_on_c, 3, 64, 89
5, 16560, Note_on_c, 3, 52, 89
5, 16605, Note_on_c, 3, 64, 0
5, 16605, Note_on_c, 3, 52, 0
5, 16620, Note_on_c, 3, 65, 89
5, 16620, Note_on_c, 3, 53, 89
5, 16695, Note_on_c, 3, 65, 0
5, 16695, Note_on_c, 3, 53, 0
5, 16710, Note_on_c, 3, 67, 89
5, 16710, Note_on_c, 3, 55, 89
5, 16785, Note_on_c, 3, 67, 0
5, 16785, Note_on_c, 3, 55, 0
5, 16800, Note_on_c, 3, 57, 89
5, 16800, Note_on_c, 3, 69, 89
5, 16845, Note_on_c, 3, 57, 0
5, 16845, Note_on_c, 3, 69, 0
5, 16860, Note_on_c, 3, 58, 89
5, 16860, Note_on_c, 3, 70, 89
5, 16905, Note_on_c, 3, 58, 0
5, 16905, Note_on_c, 3, 70, 0
5, 16920, Note_on_c, 3, 55, 89
5, 16920, Note_on_c, 3, 67, 89
5, 16965, Note_on_c, 3, 55, 0
5, 16965, Note_on_c, 3, 67, 0
5, 16980, Note_on_c, 3, 57, 89
5, 16980, Note_on_c, 3, 69, 89
5, 17025, Note_on_c, 3, 57, 0
5, 17025, Note_on_c, 3, 69, 0
5, 17040, Note_on_c, 3, 58, 89
5, 17040, Note_on_c, 3, 70, 89
5, 17085, Note_on_c, 3, 58, 0
5, 17085, Note_on_c, 3, 70, 0
5, 17100, Note_on_c, 3, 55, 89
5, 17100, Note_on_c, 3, 67, 89
5, 17145, Note_on_c, 3, 55, 0
5, 17145, Note_on_c, 3, 67, 0
5, 17160, Note_on_c, 3, 57, 89
5, 17160, Note_on_c, 3, 69, 89
5, 17205, Note_on_c, 3, 57, 0
5, 17205, Note_on_c, 3, 69, 0
5, 17220, Note_on_c, 3, 58, 89
5, 17220, Note_on_c, 3, 70, 89
5, 17265, Note_on_c, 3, 58, 0
5, 17265, Note_on_c, 3, 70, 0
5, 17280, Note_on_c, 3, 55, 89
5, 17280, Note_on_c, 3, 67, 89
5, 17325, Note_on_c, 3, 55, 0
5, 17325, Note_on_c, 3, 67, 0
5, 17340, Note_on_c, 3, 69, 89
5, 17340, Note_on_c, 3, 57, 89
5, 17505, Note_on_c, 3, 69, 0
5, 17505, Note_on_c, 3, 57, 0
5, 19140, Note_on_c, 3, 61, 89
5, 19140, Note_on_c, 3, 73, 89
5, 19185, Note_on_c, 3, 61, 0
5, 19185, Note_on_c, 3, 73, 0
5, 19200, Note_on_c, 3, 74, 89
5, 19200, Note_on_c, 3, 62, 89
5, 19245, Note_on_c, 3, 74, 0
5, 19245, Note_on_c, 3, 62, 0
5, 19260, Note_on_c, 3, 64, 89
5, 19260, Note_on_c, 3, 76, 89
5, 19305, Note_on_c, 3, 64, 0
5, 19305, Note_on_c, 3, 76, 0
5, 19320, Note_on_c, 3, 61, 89
5, 19320, Note_on_c, 3, 73, 89
5, 19365, Note_on_c, 3, 61, 0
5, 19365, Note_on_c, 3, 73, 0
5, 19380, Note_on_c, 3, 62, 89
5, 19380, Note_on_c, 3, 74, 89
5, 19425, Note_on_c, 3, 62, 0
5, 19425, Note_on_c, 3, 74, 0
5, 19440, Note_on_c, 3, 64, 89
5, 19440, Note_on_c, 3, 76, 89
5, 19485, Note_on_c, 3, 64, 0
5, 19485, Note_on_c, 3, 76, 0
5, 19500, Note_on_c, 3, 61, 89
5, 19500, Note_on_c, 3, 73, 89
5, 19545, Note_on_c, 3, 61, 0
5, 19545, Note_on_c, 3, 73, 0
5, 19560, Note_on_c, 3, 62, 89
5, 19560, Note_on_c, 3, 74, 89
5, 19605, Note_on_c, 3, 62, 0
5, 19605, Note_on_c, 3, 74, 0
5, 19620, Note_on_c, 3, 64, 89
5, 19620, Note_on_c, 3, 76, 89
5, 19665, Note_on_c, 3, 64, 0
5, 19665, Note_on_c, 3, 76, 0
5, 19680, Note_on_c, 3, 61, 89
5, 19680, Note_on_c, 3, 73, 89
5, 19725, Note_on_c, 3, 61, 0
5, 19725, Note_on_c, 3, 73, 0
5, 19740, Note_on_c, 3, 62, 89
5, 19740, Note_on_c, 3, 74, 89
5, 19815, Note_on_c, 3, 62, 0
5, 19815, Note_on_c, 3, 74, 0
5, 19830, Note_on_c, 3, 64, 89
5, 19830, Note_on_c, 3, 76, 89
5, 19905, Note_on_c, 3, 64, 0
5, 19905, Note_on_c, 3, 76, 0
5, 19920, Note_on_c, 3, 65, 89
5, 19920, Note_on_c, 3, 77, 89
5, 19965, Note_on_c, 3, 65, 0
5, 19965, Note_on_c, 3, 77, 0
5, 19980, Note_on_c, 3, 67, 89
5, 19980, Note_on_c, 3, 79, 89
5, 20025, Note_on_c, 3, 67, 0
5, 20025, Note_on_c, 3, 79, 0
5, 20040, Note_on_c, 3, 64, 89
5, 20040, Note_on_c, 3, 76, 89
5, 20085, Note_on_c, 3, 64, 0
5, 20085, Note_on_c, 3, 76, 0
5, 20100, Note_on_c, 3, 65, 89
5, 20100, Note_on_c, 3, 77, 89
5, 20145, Note_on_c, 3, 65, 0
5, 20145, Note_on_c, 3, 77, 0
5, 20160, Note_on_c, 3, 67, 89
5, 20160, Note_on_c, 3, 79, 89
5, 20205, Note_on_c, 3, 67, 0
5, 20205, Note_on_c, 3, 79, 0
5, 20220, Note_on_c, 3, 64, 89
5, 20220, Note_on_c, 3, 76, 89
5, 20265, Note_on_c, 3, 64, 0
5, 20265, Note_on_c, 3, 76, 0
5, 20280, Note_on_c, 3, 65, 89
5, 20280, Note_on_c, 3, 77, 89
5, 20325, Note_on_c, 3, 65, 0
5, 20325, Note_on_c, 3, 77, 0
5, 20340, Note_on_c, 3, 67, 89
5, 20340, Note_on_c, 3, 79, 89
5, 20385, Note_on_c, 3, 67, 0
5, 20385, Note_on_c, 3, 79, 0
5, 20400, Note_on_c, 3, 64, 89
5, 20400, Note_on_c, 3, 76, 89
5, 20445, Note_on_c, 3, 64, 0
5, 20445, Note_on_c, 3, 76, 0
5, 20460, Note_on_c, 3, 65, 89
5, 20460, Note_on_c, 3, 77, 89
5, 20535, Note_on_c, 3, 65, 0
5, 20535, Note_on_c, 3, 77, 0
5, 20550, Note_on_c, 3, 67, 89
5, 20550, Note_on_c, 3, 79, 89
5, 20625, Note_on_c, 3, 67, 0
5, 20625, Note_on_c, 3, 79, 0
5, 20640, Note_on_c, 3, 69, 89
5, 20640, Note_on_c, 3, 81, 89
5, 20685, Note_on_c, 3, 69, 0
5, 20685, Note_on_c, 3, 81, 0
5, 20700, Note_on_c, 3, 70, 89
5, 20700, Note_on_c, 3, 82, 89
5, 20745, Note_on_c, 3, 70, 0
5, 20745, Note_on_c, 3, 82, 0
5, 20760, Note_on_c, 3, 67, 89
5, 20760, Note_on_c, 3, 79, 89
5, 20805, Note_on_c, 3, 67, 0
5, 20805, Note_on_c, 3, 79, 0
5, 20820, Note_on_c, 3, 69, 89
5, 20820, Note_on_c, 3, 81, 89
5, 20865, Note_on_c, 3, 69, 0
5, 20865, Note_on_c, 3, 81, 0
5, 20880, Note_on_c, 3, 70, 89
5, 20880, Note_on_c, 3, 82, 89
5, 20925, Note_on_c, 3, 70, 0
5, 20925, Note_on_c, 3, 82, 0
5, 20940, Note_on_c, 3, 67, 89
5, 20940, Note_on_c, 3, 79, 89
5, 20985, Note_on_c, 3, 67, 0
5, 20985, Note_on_c, 3, 79, 0
5, 21000, Note_on_c, 3, 69, 89
5, 21000, Note_on_c, 3, 81, 89
5, 21045, Note_on_c, 3, 69, 0
5, 21045, Note_on_c, 3, 81, 0
5, 21060, Note_on_c, 3, 70, 89
5, 21060, Note_on_c, 3, 82, 89
5, 21105, Note_on_c, 3, 70, 0
5, 21105, Note_on_c, 3, 82, 0
5, 21120, Note_on_c, 3, 67, 89
5, 21120, Note_on_c, 3, 79, 89
5, 21165, Note_on_c, 3, 67, 0
5, 21165, Note_on_c, 3, 79, 0
5, 21180, Note_on_c, 3, 69, 89
5, 21180, Note_on_c, 3, 81, 89
5, 21345, Note_on_c, 3, 69, 0
5, 21345, Note_on_c, 3, 81, 0
5, 22500, Note_on_c, 3, 69, 89
5, 22500, Note_on_c, 3, 81, 89
5, 22545, Note_on_c, 3, 69, 0
5, 22545, Note_on_c, 3, 81, 0
5, 22560, Note_on_c, 3, 67, 89
5, 22560, Note_on_c, 3, 79, 89
5, 22605, Note_on_c, 3, 67, 0
5, 22605, Note_on_c, 3, 79, 0
5, 22620, Note_on_c, 3, 70, 89
5, 22620, Note_on_c, 3, 82, 89
5, 22665, Note_on_c, 3, 70, 0
5, 22665, Note_on_c, 3, 82, 0
5, 22680, Note_on_c, 3, 64, 89
5, 22680, Note_on_c, 3, 76, 89
5, 22725, Note_on_c, 3, 64, 0
5, 22725, Note_on_c, 3, 76, 0
5, 22740, Note_on_c, 3, 67, 89
5, 22740, Note_on_c, 3, 79, 89
5, 22785, Note_on_c, 3, 67, 0
5, 22785, Note_on_c, 3, 79, 0
5, 22800, Note_on_c, 3, 70, 89
5, 22800, Note_on_c, 3, 82, 89
5, 22845, Note_on_c, 3, 70, 0
5, 22845, Note_on_c, 3, 82, 0
5, 22860, Note_on_c, 3, 64, 89
5, 22860, Note_on_c, 3, 76, 89
5, 22905, Note_on_c, 3, 64, 0
5, 22905, Note_on_c, 3, 76, 0
5, 22920, Note_on_c, 3, 65, 89
5, 22920, Note_on_c, 3, 77, 89
5, 22965, Note_on_c, 3, 65, 0
5, 22965, Note_on_c, 3, 77, 0
5, 22980, Note_on_c, 3, 69, 89
5, 22980, Note_on_c, 3, 81, 89
5, 23025, Note_on_c, 3, 69, 0
5, 23025, Note_on_c, 3, 81, 0
5, 23040, Note_on_c, 3, 62, 89
5, 23040, Note_on_c, 3, 74, 89
5, 23085, Note_on_c, 3, 62, 0
5, 23085, Note_on_c, 3, 74, 0
5, 23100, Note_on_c, 3, 65, 89
5, 23100, Note_on_c, 3, 77, 89
5, 23145, Note_on_c, 3, 65, 0
5, 23145, Note_on_c, 3, 77, 0
5, 23160, Note_on_c, 3, 69, 89
5, 23160, Note_on_c, 3, 81, 89
5, 23205, Note_on_c, 3, 69, 0
5, 23205, Note_on_c, 3, 81, 0
5, 23220, Note_on_c, 3, 62, 89
5, 23220, Note_on_c, 3, 74, 89
5, 23265, Note_on_c, 3, 62, 0
5, 23265, Note_on_c, 3, 74, 0
5, 23280, Note_on_c, 3, 64, 89
5, 23280, Note_on_c, 3, 76, 89
5, 23325, Note_on_c, 3, 64, 0
5, 23325, Note_on_c, 3, 76, 0
5, 23340, Note_on_c, 3, 67, 89
5, 23340, Note_on_c, 3, 79, 89
5, 23385, Note_on_c, 3, 67, 0
5, 23385, Note_on_c, 3, 79, 0
5, 23400, Note_on_c, 3, 60, 89
5, 23400, Note_on_c, 3, 72, 89
5, 23445, Note_on_c, 3, 60, 0
5, 23445, Note_on_c, 3, 72, 0
5, 23460, Note_on_c, 3, 64, 89
5, 23460, Note_on_c, 3, 76, 89
5, 23505, Note_on_c, 3, 64, 0
5, 23505, Note_on_c, 3, 76, 0
5, 23520, Note_on_c, 3, 67, 89
5, 23520, Note_on_c, 3, 79, 89
5, 23565, Note_on_c, 3, 67, 0
5, 23565, Note_on_c, 3, 79, 0
5, 23580, Note_on_c, 3, 60, 89
5, 23580, Note_on_c, 3, 72, 89
5, 23625, Note_on_c, 3, 60, 0
5, 23625, Note_on_c, 3, 72, 0
5, 23640, Note_on_c, 3, 62, 89
5, 23640, Note_on_c, 3, 74, 89
5, 23685, Note_on_c, 3, 62, 0
5, 23685, Note_on_c, 3, 74, 0
5, 23700, Note_on_c, 3, 65, 89
5, 23700, Note_on_c, 3, 77, 89
5, 23745, Note_on_c, 3, 65, 0
5, 23745, Note_on_c, 3, 77, 0
5, 23760, Note_on_c, 3, 58, 89
5, 23760, Note_on_c, 3, 70, 89
5, 23805, Note_on_c, 3, 58, 0
5, 23805, Note_on_c, 3, 70, 0
5, 23820, Note_on_c, 3, 62, 89
5, 23820, Note_on_c, 3, 74, 89
5, 23865, Note_on_c, 3, 62, 0
5, 23865, Note_on_c, 3, 74, 0
5, 23880, Note_on_c, 3, 65, 89
5, 23880, Note_on_c, 3, 77, 89
5, 23925, Note_on_c, 3, 65, 0
5, 23925, Note_on_c, 3, 77, 0
5, 23940, Note_on_c, 3, 58, 89
5, 23940, Note_on_c, 3, 70, 89
5, 23985, Note_on_c, 3, 58, 0
5, 23985, Note_on_c, 3, 70, 0
5, 24000, Note_on_c, 3, 60, 89
5, 24000, Note_on_c, 3, 72, 89
5, 24045, Note_on_c, 3, 60, 0
5, 24045, Note_on_c, 3, 72, 0
5, 24060, Note_on_c, 3, 64, 89
5, 24060, Note_on_c, 3, 76, 89
5, 24105, Note_on_c, 3, 64, 0
5, 24105, Note_on_c, 3, 76, 0
5, 24120, Note_on_c, 3, 57, 89
5, 24120, Note_on_c, 3, 69, 89
5, 24165, Note_on_c, 3, 57, 0
5, 24165, Note_on_c, 3, 69, 0
5, 24180, Note_on_c, 3, 60, 89
5, 24180, Note_on_c, 3, 72, 89
5, 24225, Note_on_c, 3, 60, 0
5, 24225, Note_on_c, 3, 72, 0
5, 24240, Note_on_c, 3, 64, 89
5, 24240, Note_on_c, 3, 76, 89
5, 24285, Note_on_c, 3, 64, 0
5, 24285, Note_on_c, 3, 76, 0
5, 24300, Note_on_c, 3, 57, 89
5, 24300, Note_on_c, 3, 69, 89
5, 24345, Note_on_c, 3, 57, 0
5, 24345, Note_on_c, 3, 69, 0
5, 24360, Note_on_c, 3, 58, 89
5, 24360, Note_on_c, 3, 70, 89
5, 24405, Note_on_c, 3, 58, 0
5, 24405, Note_on_c, 3, 70, 0
5, 24420, Note_on_c, 3, 62, 89
5, 24420, Note_on_c, 3, 74, 89
5, 24465, Note_on_c, 3, 62, 0
5, 24465, Note_on_c, 3, 74, 0
5, 24480, Note_on_c, 3, 55, 89
5, 24480, Note_on_c, 3, 67, 89
5, 24525, Note_on_c, 3, 55, 0
5, 24525, Note_on_c, 3, 67, 0
5, 24540, Note_on_c, 3, 58, 89
5, 24540, Note_on_c, 3, 70, 89
5, 24585, Note_on_c, 3, 58, 0
5, 24585, Note_on_c, 3, 70, 0
5, 24600, Note_on_c, 3, 62, 89
5, 24600, Note_on_c, 3, 74, 89
5, 24645, Note_on_c, 3, 62, 0
5, 24645, Note_on_c, 3, 74, 0
5, 24660, Note_on_c, 3, 55, 89
5, 24660, Note_on_c, 3, 67, 89
5, 24705, Note_on_c, 3, 55, 0
5, 24705, Note_on_c, 3, 67, 0
5, 24720, Note_on_c, 3, 57, 89
5, 24720, Note_on_c, 3, 69, 89
5, 24765, Note_on_c, 3, 57, 0
5, 24765, Note_on_c, 3, 69, 0
5, 24780, Note_on_c, 3, 60, 89
5, 24780, Note_on_c, 3, 72, 89
5, 24825, Note_on_c, 3, 60, 0
5, 24825, Note_on_c, 3, 72, 0
5, 24840, Note_on_c, 3, 53, 89
5, 24840, Note_on_c, 3, 65, 89
5, 24885, Note_on_c, 3, 53, 0
5, 24885, Note_on_c, 3, 65, 0
5, 24900, Note_on_c, 3, 57, 89
5, 24900, Note_on_c, 3, 69, 89
5, 24945, Note_on_c, 3, 57, 0
5, 24945, Note_on_c, 3, 69, 0
5, 24960, Note_on_c, 3, 60, 89
5, 24960, Note_on_c, 3, 72, 89
5, 25005, Note_on_c, 3, 60, 0
5, 25005, Note_on_c, 3, 72, 0
5, 25020, Note_on_c, 3, 53, 89
5, 25020, Note_on_c, 3, 65, 89
5, 25065, Note_on_c, 3, 53, 0
5, 25065, Note_on_c, 3, 65, 0
5, 25080, Note_on_c, 3, 55, 89
5, 25080, Note_on_c, 3, 67, 89
5, 25125, Note_on_c, 3, 55, 0
5, 25125, Note_on_c, 3, 67, 0
5, 25140, Note_on_c, 3, 58, 89
5, 25140, Note_on_c, 3, 70, 89
5, 25185, Note_on_c, 3, 58, 0
5, 25185, Note_on_c, 3, 70, 0
5, 25200, Note_on_c, 3, 52, 89
5, 25200, Note_on_c, 3, 64, 89
5, 25245, Note_on_c, 3, 52, 0
5, 25245, Note_on_c, 3, 64, 0
5, 25260, Note_on_c, 3, 55, 89
5, 25260, Note_on_c, 3, 67, 89
5, 25305, Note_on_c, 3, 55, 0
5, 25305, Note_on_c, 3, 67, 0
5, 25320, Note_on_c, 3, 58, 89
5, 25320, Note_on_c, 3, 70, 89
5, 25365, Note_on_c, 3, 58, 0
5, 25365, Note_on_c, 3, 70, 0
5, 25380, Note_on_c, 3, 52, 89
5, 25380, Note_on_c, 3, 64, 89
5, 25425, Note_on_c, 3, 52, 0
5, 25425, Note_on_c, 3, 64, 0
5, 25440, Note_on_c, 3, 53, 89
5, 25440, Note_on_c, 3, 65, 89
5, 25485, Note_on_c, 3, 53, 0
5, 25485, Note_on_c, 3, 65, 0
5, 25500, Note_on_c, 3, 57, 89
5, 25500, Note_on_c, 3, 69, 89
5, 25545, Note_on_c, 3, 57, 0
5, 25545, Note_on_c, 3, 69, 0
5, 25560, Note_on_c, 3, 50, 89
5, 25560, Note_on_c, 3, 62, 89
5, 25605, Note_on_c, 3, 50, 0
5, 25605, Note_on_c, 3, 62, 0
5, 25620, Note_on_c, 3, 53, 89
5, 25620, Note_on_c, 3, 65, 89
5, 25665, Note_on_c, 3, 53, 0
5, 25665, Note_on_c, 3, 65, 0
5, 25680, Note_on_c, 3, 57, 89
5, 25680, Note_on_c, 3, 69, 89
5, 25725, Note_on_c, 3, 57, 0
5, 25725, Note_on_c, 3, 69, 0
5, 25740, Note_on_c, 3, 50, 89
5, 25740, Note_on_c, 3, 62, 89
5, 25785, Note_on_c, 3, 50, 0
5, 25785, Note_on_c, 3, 62, 0
5, 25800, Note_on_c, 3, 52, 89
5, 25800, Note_on_c, 3, 64, 89
5, 25845, Note_on_c, 3, 52, 0
5, 25845, Note_on_c, 3, 64, 0
5, 25860, Note_on_c, 3, 55, 89
5, 25860, Note_on_c, 3, 67, 89
5, 25905, Note_on_c, 3, 55, 0
5, 25905, Note_on_c, 3, 67, 0
5, 25920, Note_on_c, 3, 49, 89
5, 25920, Note_on_c, 3, 61, 89
5, 25965, Note_on_c, 3, 49, 0
5, 25965, Note_on_c, 3, 61, 0
5, 25980, Note_on_c, 3, 52, 89
5, 25980, Note_on_c, 3, 64, 89
5, 26025, Note_on_c, 3, 52, 0
5, 26025, Note_on_c, 3, 64, 0
5, 26040, Note_on_c, 3, 55, 89
5, 26040, Note_on_c, 3, 67, 89
5, 26085, Note_on_c, 3, 55, 0
5, 26085, Note_on_c, 3, 67, 0
5, 26100, Note_on_c, 3, 49, 89
5, 26100, Note_on_c, 3, 61, 89
5, 26145, Note_on_c, 3, 49, 0
5, 26145, Note_on_c, 3, 61, 0
5, 26175, Note_on_c, 3, 38, 89
5, 27135, Note_on_c, 3, 49, 89
5, 27150, Note_on_c, 3, 52, 89
5, 27165, Note_on_c, 3, 55, 89
5, 27180, Note_on_c, 3, 58, 89
5, 27195, Note_on_c, 3, 61, 89
5, 28305, Note_on_c, 3, 38, 0
5, 28305, Note_on_c, 3, 49, 0
5, 28305, Note_on_c, 3, 52, 0
5, 28305, Note_on_c, 3, 55, 0
5, 28305, Note_on_c, 3, 58, 0
5, 28305, Note_on_c, 3, 61, 0
5, 28380, Note_on_c, 3, 69, 89
5, 28410, Note_on_c, 3, 69, 0
5, 28425, Note_on_c, 3, 67, 89
5, 28455, Note_on_c, 3, 67, 0
5, 28470, Note_on_c, 3, 65, 89
5, 28500, Note_on_c, 3, 65, 0
5, 28515, Note_on_c, 3, 64, 89
5, 28545, Note_on_c, 3, 64, 0
5, 28560, Note_on_c, 3, 62, 89
5, 28590, Note_on_c, 3, 62, 0
5, 28605, Note_on_c, 3, 61, 89
5, 28680, Note_on_c, 3, 61, 0
5, 28695, Note_on_c, 3, 57, 89
5, 28770, Note_on_c, 3, 57, 0
5, 28785, Note_on_c, 3, 61, 89
5, 28860, Note_on_c, 3, 61, 0
5, 28875, Note_on_c, 3, 64, 89
5, 28905, Note_on_c, 3, 64, 0
5, 28920, Note_on_c, 3, 67, 89
5, 28950, Note_on_c, 3, 67, 0
5, 28965, Note_on_c, 3, 65, 89
5, 28980, Note_on_c, 3, 65, 0
5, 28995, Note_on_c, 3, 67, 89
5, 29010, Note_on_c, 3, 67, 0
5, 29025, Note_on_c, 3, 65, 89
5, 29040, Note_on_c, 3, 65, 0
5, 29055, Note_on_c, 3, 67, 89
5, 29070, Note_on_c, 3, 67, 0
5, 29085, Note_on_c, 3, 65, 89
5, 29100, Note_on_c, 3, 65, 0
5, 29115, Note_on_c, 3, 67, 89
5, 29130, Note_on_c, 3, 67, 0
5, 29145, Note_on_c, 3, 65, 89
5, 29160, Note_on_c, 3, 65, 0
5, 29175, Note_on_c, 3, 67, 89
5, 29190, Note_on_c, 3, 67, 0
5, 29205, Note_on_c, 3, 65, 89
5, 29220, Note_on_c, 3, 65, 0
5, 29235, Note_on_c, 3, 64, 89
5, 29310, Note_on_c, 3, 64, 0
5, 29325, Note_on_c, 3, 65, 89
5, 29325, Note_on_c, 3, 62, 89
5, 29325, Note_on_c, 3, 57, 89
5, 29325, Note_on_c, 3, 53, 89
5, 29325, Note_on_c, 3, 50, 89
5, 29325, Note_on_c, 3, 38, 89
5, 29775, Note_on_c, 3, 57, 0
5, 29775, Note_on_c, 3, 50, 0
5, 29775, Note_on_c, 3, 38, 0
5, 29790, Note_on_c, 3, 53, 0
5, 29805, Note_on_c, 3, 62, 0
5, 29835, Note_on_c, 3, 65, 0
5, 30870, Note_on_c, 3, 69, 89
5, 30930, Note_on_c, 3, 69, 0
5, 30960, Note_on_c, 3, 74, 89
5, 31005, Note_on_c, 3, 69, 89
5, 31035, Note_on_c, 3, 74, 0
5, 31050, Note_on_c, 3, 76, 89
5, 31065, Note_on_c, 3, 69, 0
5, 31095, Note_on_c, 3, 69, 89
5, 31125, Note_on_c, 3, 76, 0
5, 31140, Note_on_c, 3, 77, 89
5, 31155, Note_on_c, 3, 69, 0
5, 31185, Note_on_c, 3, 69, 89
5, 31215, Note_on_c, 3, 77, 0
5, 31230, Note_on_c, 3, 74, 89
5, 31245, Note_on_c, 3, 69, 0
5, 31275, Note_on_c, 3, 69, 89
5, 31305, Note_on_c, 3, 74, 0
5, 31320, Note_on_c, 3, 76, 89
5, 31335, Note_on_c, 3, 69, 0
5, 31365, Note_on_c, 3, 69, 89
5, 31395, Note_on_c, 3, 76, 0
5, 31410, Note_on_c, 3, 77, 89
5, 31425, Note_on_c, 3, 69, 0
5, 31455, Note_on_c, 3, 69, 89
5, 31485, Note_on_c, 3, 77, 0
5, 31500, Note_on_c, 3, 79, 89
5, 31515, Note_on_c, 3, 69, 0
5, 31545, Note_on_c, 3, 69, 89
5, 31575, Note_on_c, 3, 79, 0
5, 31590, Note_on_c, 3, 76, 89
5, 31605, Note_on_c, 3, 69, 0
5, 31635, Note_on_c, 3, 69, 89
5, 31665, Note_on_c, 3, 76, 0
5, 31680, Note_on_c, 3, 77, 89
5, 31695, Note_on_c, 3, 69, 0
5, 31725, Note_on_c, 3, 69, 89
5, 31755, Note_on_c, 3, 77, 0
5, 31770, Note_on_c, 3, 79, 89
5, 31785, Note_on_c, 3, 69, 0
5, 31815, Note_on_c, 3, 69, 89
5, 31845, Note_on_c, 3, 79, 0
5, 31860, Note_on_c, 3, 81, 89
5, 31875, Note_on_c, 3, 69, 0
5, 31905, Note_on_c, 3, 69, 89
5, 31935, Note_on_c, 3, 81, 0
5, 31950, Note_on_c, 3, 77, 89
5, 31965, Note_on_c, 3, 69, 0
5, 31995, Note_on_c, 3, 69, 89
5, 32025, Note_on_c, 3, 77, 0
5, 32040, Note_on_c, 3, 79, 89
5, 32055, Note_on_c, 3, 69, 0
5, 32085, Note_on_c, 3, 69, 89
5, 32115, Note_on_c, 3, 79, 0
5, 32130, Note_on_c, 3, 81, 89
5, 32145, Note_on_c, 3, 69, 0
5, 32175, Note_on_c, 3, 69, 89
5, 32205, Note_on_c, 3, 81, 0
5, 32220, Note_on_c, 3, 82, 89
5, 32235, Note_on_c, 3, 69, 0
5, 32265, Note_on_c, 3, 69, 89
5, 32295, Note_on_c, 3, 82, 0
5, 32310, Note_on_c, 3, 79, 89
5, 32325, Note_on_c, 3, 69, 0
5, 32355, Note_on_c, 3, 69, 89
5, 32385, Note_on_c, 3, 79, 0
5, 32400, Note_on_c, 3, 81, 89
5, 32415, Note_on_c, 3, 69, 0
5, 32445, Note_on_c, 3, 69, 89
5, 32475, Note_on_c, 3, 81, 0
5, 32490, Note_on_c, 3, 77, 89
5, 32505, Note_on_c, 3, 69, 0
5, 32535, Note_on_c, 3, 69, 89
5, 32565, Note_on_c, 3, 77, 0
5, 32580, Note_on_c, 3, 79, 89
5, 32595, Note_on_c, 3, 69, 0
5, 32625, Note_on_c, 3, 69, 89
5, 32655, Note_on_c, 3, 79, 0
5, 32670, Note_on_c, 3, 76, 89
5, 32685, Note_on_c, 3, 69, 0
5, 32715, Note_on_c, 3, 69, 89
5, 32745, Note_on_c, 3, 76, 0
5, 32760, Note_on_c, 3, 77, 89
5, 32775, Note_on_c, 3, 69, 0
5, 32805, Note_on_c, 3, 69, 89
5, 32835, Note_on_c, 3, 77, 0
5, 32850, Note_on_c, 3, 74, 89
5, 32865, Note_on_c, 3, 69, 0
5, 32895, Note_on_c, 3, 69, 89
5, 32925, Note_on_c, 3, 74, 0
5, 32940, Note_on_c, 3, 76, 89
5, 32955, Note_on_c, 3, 69, 0
5, 32985, Note_on_c, 3, 69, 89
5, 33015, Note_on_c, 3, 76, 0
5, 33030, Note_on_c, 3, 73, 89
5, 33045, Note_on_c, 3, 69, 0
5, 33075, Note_on_c, 3, 69, 89
5, 33105, Note_on_c, 3, 73, 0
5, 33120, Note_on_c, 3, 74, 89
5, 33135, Note_on_c, 3, 69, 0
5, 33163, Note_on_c, 3, 69, 89
5, 33195, Note_on_c, 3, 74, 0
5, 33231, Note_on_c, 3, 69, 0
5, 33252, Note_on_c, 3, 69, 89
5, 33301, Note_on_c, 3, 70, 89
5, 33312, Note_on_c, 3, 69, 0
5, 33345, Note_on_c, 3, 69, 89
5, 33376, Note_on_c, 3, 70, 0
5, 33390, Note_on_c, 3, 67, 89
5, 33405, Note_on_c, 3, 69, 0
5, 33435, Note_on_c, 3, 69, 89
5, 33465, Note_on_c, 3, 67, 0
5, 33570, Note_on_c, 3, 65, 89
5, 33645, Note_on_c, 3, 65, 0
5, 33660, Note_on_c, 3, 67, 89
5, 33675, Note_on_c, 3, 69, 0
5, 33705, Note_on_c, 3, 69, 89
5, 33735, Note_on_c, 3, 67, 0
5, 33750, Note_on_c, 3, 64, 89
5, 33765, Note_on_c, 3, 69, 0
5, 33795, Note_on_c, 3, 69, 89
5, 33825, Note_on_c, 3, 64, 0
5, 33840, Note_on_c, 3, 65, 89
5, 33855, Note_on_c, 3, 69, 0
5, 33885, Note_on_c, 3, 69, 89
5, 33915, Note_on_c, 3, 65, 0
5, 33930, Note_on_c, 3, 62, 89
5, 33945, Note_on_c, 3, 69, 0
5, 33975, Note_on_c, 3, 69, 89
5, 34005, Note_on_c, 3, 62, 0
5, 34020, Note_on_c, 3, 67, 89
5, 34035, Note_on_c, 3, 69, 0
5, 34065, Note_on_c, 3, 69, 89
5, 34095, Note_on_c, 3, 67, 0
5, 34110, Note_on_c, 3, 64, 89
5, 34125, Note_on_c, 3, 69, 0
5, 34155, Note_on_c, 3, 69, 89
5, 34185, Note_on_c, 3, 64, 0
5, 34200, Note_on_c, 3, 65, 89
5, 34215, Note_on_c, 3, 69, 0
5, 34245, Note_on_c, 3, 69, 89
5, 34275, Note_on_c, 3, 65, 0
5, 34290, Note_on_c, 3, 62, 89
5, 34305, Note_on_c, 3, 69, 0
5, 34335, Note_on_c, 3, 69, 89
5, 34365, Note_on_c, 3, 62, 0
5, 34380, Note_on_c, 3, 64, 89
5, 34395, Note_on_c, 3, 69, 0
5, 34425, Note_on_c, 3, 69, 89
5, 34455, Note_on_c, 3, 64, 0
5, 34470, Note_on_c, 3, 61, 89
5, 34485, Note_on_c, 3, 69, 0
5, 34515, Note_on_c, 3, 69, 89
5, 34545, Note_on_c, 3, 61, 0
5, 34560, Note_on_c, 3, 62, 89
5, 34575, Note_on_c, 3, 69, 0
5, 34605, Note_on_c, 3, 69, 89
5, 34635, Note_on_c, 3, 62, 0
5, 34650, Note_on_c, 3, 57, 89
5, 34665, Note_on_c, 3, 69, 0
5, 34695, Note_on_c, 3, 69, 89
5, 34725, Note_on_c, 3, 57, 0
5, 34740, Note_on_c, 3, 58, 89
5, 34755, Note_on_c, 3, 69, 0
5, 34785, Note_on_c, 3, 69, 89
5, 34815, Note_on_c, 3, 58, 0
5, 34830, Note_on_c, 3, 55, 89
5, 34845, Note_on_c, 3, 69, 0
5, 34875, Note_on_c, 3, 69, 89
5, 34905, Note_on_c, 3, 55, 0
5, 34920, Note_on_c, 3, 57, 89
5, 34935, Note_on_c, 3, 69, 0
5, 34965, Note_on_c, 3, 69, 89
5, 34995, Note_on_c, 3, 57, 0
5, 35010, Note_on_c, 3, 53, 89
5, 35025, Note_on_c, 3, 69, 0
5, 35055, Note_on_c, 3, 69, 89
5, 35085, Note_on_c, 3, 53, 0
5, 35100, Note_on_c, 3, 55, 89
5, 35115, Note_on_c, 3, 69, 0
5, 35145, Note_on_c, 3, 69, 89
5, 35175, Note_on_c, 3, 55, 0
5, 35190, Note_on_c, 3, 52, 89
5, 35205, Note_on_c, 3, 69, 0
5, 35235, Note_on_c, 3, 69, 89
5, 35265, Note_on_c, 3, 52, 0
5, 35280, Note_on_c, 3, 53, 89
5, 35295, Note_on_c, 3, 69, 0
5, 35325, Note_on_c, 3, 69, 89
5, 35355, Note_on_c, 3, 53, 0
5, 35370, Note_on_c, 3, 50, 89
5, 35385, Note_on_c, 3, 69, 0
5, 35415, Note_on_c, 3, 69, 89
5, 35445, Note_on_c, 3, 50, 0
5, 35460, Note_on_c, 3, 55, 89
5, 35475, Note_on_c, 3, 69, 0
5, 35505, Note_on_c, 3, 69, 89
5, 35535, Note_on_c, 3, 55, 0
5, 35550, Note_on_c, 3, 52, 89
5, 35565, Note_on_c, 3, 69, 0
5, 35595, Note_on_c, 3, 69, 89
5, 35625, Note_on_c, 3, 52, 0
5, 35640, Note_on_c, 3, 53, 89
5, 35655, Note_on_c, 3, 69, 0
5, 35685, Note_on_c, 3, 69, 89
5, 35715, Note_on_c, 3, 53, 0
5, 35730, Note_on_c, 3, 50, 89
5, 35745, Note_on_c, 3, 69, 0
5, 35775, Note_on_c, 3, 69, 89
5, 35805, Note_on_c, 3, 50, 0
5, 35820, Note_on_c, 3, 52, 89
5, 35835, Note_on_c, 3, 69, 0
5, 35865, Note_on_c, 3, 69, 89
5, 35895, Note_on_c, 3, 52, 0
5, 35910, Note_on_c, 3, 49, 89
5, 35925, Note_on_c, 3, 69, 0
5, 35985, Note_on_c, 3, 49, 0
5, 36015, Note_on_c, 3, 50, 89
5, 36240, Note_on_c, 3, 50, 0
5, 36480, Note_on_c, 3, 62, 89
5, 36510, Note_on_c, 3, 62, 0
5, 36525, Note_on_c, 3, 65, 89
5, 36555, Note_on_c, 3, 65, 0
5, 36570, Note_on_c, 3, 70, 89
5, 36600, Note_on_c, 3, 70, 0
5, 36615, Note_on_c, 3, 65, 89
5, 36645, Note_on_c, 3, 65, 0
5, 36660, Note_on_c, 3, 60, 89
5, 36690, Note_on_c, 3, 60, 0
5, 36705, Note_on_c, 3, 64, 89
5, 36735, Note_on_c, 3, 64, 0
5, 36750, Note_on_c, 3, 69, 89
5, 36780, Note_on_c, 3, 69, 0
5, 36795, Note_on_c, 3, 64, 89
5, 36825, Note_on_c, 3, 64, 0
5, 36840, Note_on_c, 3, 58, 89
5, 36870, Note_on_c, 3, 58, 0
5, 36885, Note_on_c, 3, 62, 89
5, 36915, Note_on_c, 3, 62, 0
5, 36930, Note_on_c, 3, 67, 89
5, 36960, Note_on_c, 3, 67, 0
5, 36975, Note_on_c, 3, 62, 89
5, 37005, Note_on_c, 3, 62, 0
5, 37020, Note_on_c, 3, 57, 89
5, 37050, Note_on_c, 3, 57, 0
5, 37065, Note_on_c, 3, 61, 89
5, 37095, Note_on_c, 3, 61, 0
5, 37110, Note_on_c, 3, 64, 89
5, 37140, Note_on_c, 3, 64, 0
5, 37155, Note_on_c, 3, 69, 89
5, 37185, Note_on_c, 3, 69, 0
5, 37215, Note_on_c, 3, 50, 89
5, 37215, Note_on_c, 3, 62, 89
5, 37290, Note_on_c, 3, 62, 0
5, 37305, Note_on_c, 3, 70, 89
5, 37305, Note_on_c, 3, 65, 89
5, 37380, Note_on_c, 3, 50, 0
5, 37380, Note_on_c, 3, 70, 0
5, 37380, Note_on_c, 3, 65, 0
5, 37395, Note_on_c, 3, 48, 89
5, 37395, Note_on_c, 3, 57, 89
5, 37470, Note_on_c, 3, 57, 0
5, 37485, Note_on_c, 3, 69, 89
5, 37485, Note_on_c, 3, 64, 89
5, 37560, Note_on_c, 3, 48, 0
5, 37560, Note_on_c, 3, 69, 0
5, 37560, Note_on_c, 3, 64, 0
5, 37575, Note_on_c, 3, 46, 89
5, 37575, Note_on_c, 3, 58, 89
5, 37650, Note_on_c, 3, 58, 0
5, 37665, Note_on_c, 3, 67, 89
5, 37665, Note_on_c, 3, 62, 89
5, 37740, Note_on_c, 3, 46, 0
5, 37740, Note_on_c, 3, 67, 0
5, 37740, Note_on_c, 3, 62, 0
5, 37755, Note_on_c, 3, 61, 89
5, 37755, Note_on_c, 3, 64, 89
5, 37755, Note_on_c, 3, 69, 89
5, 37755, Note_on_c, 3, 45, 89
5, 37920, Note_on_c, 3, 61, 0
5, 37920, Note_on_c, 3, 64, 0
5, 37920, Note_on_c, 3, 69, 0
5, 37920, Note_on_c, 3, 45, 0
5, 39135, Note_on_c, 3, 50, 89
5, 39135, Note_on_c, 3, 62, 89
5, 39210, Note_on_c, 3, 62, 0
5, 39225, Note_on_c, 3, 70, 89
5, 39225, Note_on_c, 3, 65, 89
5, 39300, Note_on_c, 3, 50, 0
5, 39300, Note_on_c, 3, 70, 0
5, 39300, Note_on_c, 3, 65, 0
5, 39315, Note_on_c, 3, 48, 89
5, 39315, Note_on_c, 3, 57, 89
5, 39390, Note_on_c, 3, 57, 0
5, 39405, Note_on_c, 3, 69, 89
5, 39405, Note_on_c, 3, 64, 89
5, 39480, Note_on_c, 3, 48, 0
5, 39480, Note_on_c, 3, 69, 0
5, 39480, Note_on_c, 3, 64, 0
5, 39495, Note_on_c, 3, 46, 89
5, 39495, Note_on_c, 3, 58, 89
5, 39570, Note_on_c, 3, 58, 0
5, 39585, Note_on_c, 3, 67, 89
5, 39585, Note_on_c, 3, 62, 89
5, 39660, Note_on_c, 3, 46, 0
5, 39660, Note_on_c, 3, 67, 0
5, 39660, Note_on_c, 3, 62, 0
5, 39675, Note_on_c, 3, 52, 89
5, 39675, Note_on_c, 3, 61, 89
5, 39675, Note_on_c, 3, 64, 89
5, 39675, Note_on_c, 3, 69, 89
5, 39675, Note_on_c, 3, 45, 89
5, 40065, Note_on_c, 3, 52, 0
5, 40065, Note_on_c, 3, 61, 0
5, 40065, Note_on_c, 3, 64, 0
5, 40065, Note_on_c, 3, 45, 0
5, 40110, Note_on_c, 3, 69, 0
5, 40125, Note_on_c, 3, 67, 89
5, 40155, Note_on_c, 3, 67, 0
5, 40170, Note_on_c, 3, 65, 89
5, 40200, Note_on_c, 3, 65, 0
5, 40215, Note_on_c, 3, 64, 89
5, 40245, Note_on_c, 3, 64, 0
5, 40260, Note_on_c, 3, 62, 89
5, 40290, Note_on_c, 3, 62, 0
5, 40305, Note_on_c, 3, 61, 89
5, 40335, Note_on_c, 3, 61, 0
5, 40350, Note_on_c, 3, 59, 89
5, 40380, Note_on_c, 3, 59, 0
5, 40395, Note_on_c, 3, 61, 89
5, 40425, Note_on_c, 3, 61, 0
5, 40440, Note_on_c, 3, 57, 89
5, 40470, Note_on_c, 3, 57, 0
5, 40485, Note_on_c, 3, 59, 89
5, 40515, Note_on_c, 3, 59, 0
5, 40530, Note_on_c, 3, 61, 89
5, 40560, Note_on_c, 3, 61, 0
5, 40575, Note_on_c, 3, 62, 89
5, 40605, Note_on_c, 3, 62, 0
5, 40620, Note_on_c, 3, 64, 89
5, 40650, Note_on_c, 3, 64, 0
5, 40665, Note_on_c, 3, 65, 89
5, 40695, Note_on_c, 3, 65, 0
5, 40710, Note_on_c, 3, 67, 89
5, 40740, Note_on_c, 3, 67, 0
5, 40755, Note_on_c, 3, 69, 89
5, 40785, Note_on_c, 3, 69, 0
5, 40800, Note_on_c, 3, 67, 89
5, 40830, Note_on_c, 3, 67, 0
5, 40845, Note_on_c, 3, 65, 89
5, 40875, Note_on_c, 3, 65, 0
5, 40890, Note_on_c, 3, 64, 89
5, 40920, Note_on_c, 3, 64, 0
5, 40935, Note_on_c, 3, 65, 89
5, 40965, Note_on_c, 3, 65, 0
5, 40980, Note_on_c, 3, 62, 89
5, 41010, Note_on_c, 3, 62, 0
5, 41025, Note_on_c, 3, 65, 89
5, 41055, Note_on_c, 3, 65, 0
5, 41070, Note_on_c, 3, 69, 89
5, 41100, Note_on_c, 3, 69, 0
5, 41115, Note_on_c, 3, 73, 89
5, 41145, Note_on_c, 3, 73, 0
5, 41160, Note_on_c, 3, 74, 89
5, 41190, Note_on_c, 3, 74, 0
5, 41205, Note_on_c, 3, 69, 89
5, 41235, Note_on_c, 3, 69, 0
5, 41250, Note_on_c, 3, 71, 89
5, 41280, Note_on_c, 3, 71, 0
5, 41280, Note_on_c, 3, 73, 89
5, 41310, Note_on_c, 3, 73, 0
5, 41325, Note_on_c, 3, 74, 89
5, 41355, Note_on_c, 3, 74, 0
5, 41370, Note_on_c, 3, 76, 89
5, 41400, Note_on_c, 3, 76, 0
5, 41415, Note_on_c, 3, 77, 89
5, 41445, Note_on_c, 3, 77, 0
5, 41460, Note_on_c, 3, 79, 89
5, 41490, Note_on_c, 3, 79, 0
5, 41505, Note_on_c, 3, 81, 89
5, 41535, Note_on_c, 3, 81, 0
5, 41550, Note_on_c, 3, 82, 89
5, 41745, Note_on_c, 3, 82, 0
5, 41760, Note_on_c, 3, 50, 89
5, 41760, Note_on_c, 3, 74, 89
5, 41835, Note_on_c, 3, 74, 0
5, 41850, Note_on_c, 3, 82, 89
5, 41850, Note_on_c, 3, 77, 89
5, 41925, Note_on_c, 3, 50, 0
5, 41925, Note_on_c, 3, 82, 0
5, 41925, Note_on_c, 3, 77, 0
5, 41940, Note_on_c, 3, 48, 89
5, 41940, Note_on_c, 3, 69, 89
5, 42015, Note_on_c, 3, 69, 0
5, 42030, Note_on_c, 3, 81, 89
5, 42030, Note_on_c, 3, 76, 89
5, 42105, Note_on_c, 3, 48, 0
5, 42105, Note_on_c, 3, 81, 0
5, 42105, Note_on_c, 3, 76, 0
5, 42120, Note_on_c, 3, 46, 89
5, 42120, Note_on_c, 3, 70, 89
5, 42195, Note_on_c, 3, 70, 0
5, 42210, Note_on_c, 3, 79, 89
5, 42210, Note_on_c, 3, 74, 89
5, 42285, Note_on_c, 3, 46, 0
5, 42285, Note_on_c, 3, 79, 0
5, 42285, Note_on_c, 3, 74, 0
5, 42300, Note_on_c, 3, 45, 89
5, 42300, Note_on_c, 3, 73, 89
5, 42300, Note_on_c, 3, 76, 89
5, 42300, Note_on_c, 3, 81, 89
5, 42300, Note_on_c, 3, 57, 89
5, 42705, Note_on_c, 3, 45, 0
5, 42705, Note_on_c, 3, 73, 0
5, 42705, Note_on_c, 3, 76, 0
5, 42705, Note_on_c, 3, 81, 0
5, 42705, Note_on_c, 3, 57, 0
5, 42720, Note_on_c, 3, 74, 89
5, 42750, Note_on_c, 3, 74, 0
5, 42765, Note_on_c, 3, 77, 89
5, 42795, Note_on_c, 3, 77, 0
5, 42810, Note_on_c, 3, 82, 89
5, 42840, Note_on_c, 3, 82, 0
5, 42855, Note_on_c, 3, 77, 89
5, 42885, Note_on_c, 3, 77, 0
5, 42900, Note_on_c, 3, 72, 89
5, 42930, Note_on_c, 3, 72, 0
5, 42945, Note_on_c, 3, 76, 89
5, 42975, Note_on_c, 3, 76, 0
5, 42990, Note_on_c, 3, 81, 89
5, 43020, Note_on_c, 3, 81, 0
5, 43035, Note_on_c, 3, 76, 89
5, 43065, Note_on_c, 3, 76, 0
5, 43080, Note_on_c, 3, 70, 89
5, 43110, Note_on_c, 3, 70, 0
5, 43125, Note_on_c, 3, 74, 89
5, 43155, Note_on_c, 3, 74, 0
5, 43170, Note_on_c, 3, 79, 89
5, 43200, Note_on_c, 3, 79, 0
5, 43200, Note_on_c, 3, 74, 89
5, 43230, Note_on_c, 3, 74, 0
5, 43245, Note_on_c, 3, 69, 89
5, 43290, Note_on_c, 3, 69, 0
5, 43305, Note_on_c, 3, 73, 89
5, 43350, Note_on_c, 3, 73, 0
5, 43365, Note_on_c, 3, 76, 89
5, 43410, Note_on_c, 3, 76, 0
5, 43425, Note_on_c, 3, 81, 89
5, 43470, Note_on_c, 3, 81, 0
5, 43485, Note_on_c, 3, 74, 89
5, 43485, Note_on_c, 3, 50, 89
5, 43590, Note_on_c, 3, 74, 0
5, 43605, Note_on_c, 3, 77, 89
5, 43605, Note_on_c, 3, 82, 89
5, 43710, Note_on_c, 3, 50, 0
5, 43710, Note_on_c, 3, 77, 0
5, 43710, Note_on_c, 3, 82, 0
5, 43725, Note_on_c, 3, 69, 89
5, 43725, Note_on_c, 3, 48, 89
5, 43830, Note_on_c, 3, 69, 0
5, 43845, Note_on_c, 3, 76, 89
5, 43845, Note_on_c, 3, 81, 89
5, 43950, Note_on_c, 3, 48, 0
5, 43950, Note_on_c, 3, 76, 0
5, 43950, Note_on_c, 3, 81, 0
5, 43965, Note_on_c, 3, 46, 89
5, 43965, Note_on_c, 3, 70, 89
5, 44070, Note_on_c, 3, 70, 0
5, 44085, Note_on_c, 3, 74, 89
5, 44085, Note_on_c, 3, 79, 89
5, 44190, Note_on_c, 3, 46, 0
5, 44190, Note_on_c, 3, 74, 0
5, 44190, Note_on_c, 3, 79, 0
5, 44205, Note_on_c, 3, 81, 89
5, 44205, Note_on_c, 3, 76, 89
5, 44205, Note_on_c, 3, 73, 89
5, 44205, Note_on_c, 3, 45, 89
5, 44430, Note_on_c, 3, 81, 0
5, 44430, Note_on_c, 3, 76, 0
5, 44430, Note_on_c, 3, 73, 0
5, 44430, Note_on_c, 3, 45, 0
5, 44445, Note_on_c, 3, 74, 89
5, 44445, Note_on_c, 3, 71, 89
5, 44445, Note_on_c, 3, 44, 89
5, 44670, Note_on_c, 3, 74, 0
5, 44670, Note_on_c, 3, 71, 0
5, 44670, Note_on_c, 3, 44, 0
5, 44685, Note_on_c, 3, 43, 89
5, 44685, Note_on_c, 3, 57, 89
5, 44685, Note_on_c, 3, 69, 89
5, 44685, Note_on_c, 3, 73, 89
5, 45135, Note_on_c, 3, 43, 0
5, 45135, Note_on_c, 3, 57, 0
5, 45135, Note_on_c, 3, 69, 0
5, 45135, Note_on_c, 3, 73, 0
5, 45150, Note_on_c, 3, 71, 89
5, 45195, Note_on_c, 3, 71, 0
5, 45210, Note_on_c, 3, 69, 89
5, 45255, Note_on_c, 3, 69, 0
5, 45270, Note_on_c, 3, 73, 89
5, 45315, Note_on_c, 3, 73, 0
5, 45330, Note_on_c, 3, 76, 89
5, 45360, Note_on_c, 3, 76, 0
5, 45375, Note_on_c, 3, 79, 89
5, 45405, Note_on_c, 3, 79, 0
5, 45420, Note_on_c, 3, 82, 89
5, 45495, Note_on_c, 3, 82, 0
5, 45510, Note_on_c, 3, 81, 89
5, 45540, Note_on_c, 3, 81, 0
5, 45555, Note_on_c, 3, 79, 89
5, 45585, Note_on_c, 3, 79, 0
5, 45600, Note_on_c, 3, 77, 89
5, 45630, Note_on_c, 3, 77, 0
5, 45645, Note_on_c, 3, 76, 89
5, 45675, Note_on_c, 3, 76, 0
5, 45690, Note_on_c, 3, 77, 89
5, 45720, Note_on_c, 3, 77, 0
5, 45735, Note_on_c, 3, 76, 89
5, 45765, Note_on_c, 3, 76, 0
5, 45780, Note_on_c, 3, 74, 89
5, 45810, Note_on_c, 3, 74, 0
5, 45825, Note_on_c, 3, 73, 89
5, 45855, Note_on_c, 3, 73, 0
5, 45870, Note_on_c, 3, 74, 89
5, 45900, Note_on_c, 3, 74, 0
5, 45915, Note_on_c, 3, 72, 89
5, 45945, Note_on_c, 3, 72, 0
5, 45960, Note_on_c, 3, 70, 89
5, 45990, Note_on_c, 3, 70, 0
5, 46005, Note_on_c, 3, 69, 89
5, 46035, Note_on_c, 3, 69, 0
5, 46050, Note_on_c, 3, 67, 89
5, 46080, Note_on_c, 3, 67, 0
5, 46080, Note_on_c, 3, 65, 89
5, 46110, Note_on_c, 3, 65, 0
5, 46125, Note_on_c, 3, 64, 89
5, 46155, Note_on_c, 3, 64, 0
5, 46170, Note_on_c, 3, 62, 89
5, 46200, Note_on_c, 3, 62, 0
5, 46215, Note_on_c, 3, 73, 89
5, 46215, Note_on_c, 3, 55, 89
5, 46215, Note_on_c, 3, 76, 89
5, 46215, Note_on_c, 3, 61, 89
5, 47025, Note_on_c, 3, 55, 0
5, 47025, Note_on_c, 3, 76, 0
5, 47025, Note_on_c, 3, 61, 0
5, 47115, Note_on_c, 3, 73, 0
5, 47130, Note_on_c, 3, 67, 89
5, 47130, Note_on_c, 3, 76, 89
5, 47205, Note_on_c, 3, 67, 0
5, 47205, Note_on_c, 3, 76, 0
5, 47220, Note_on_c, 3, 64, 89
5, 47220, Note_on_c, 3, 73, 89
5, 47295, Note_on_c, 3, 64, 0
5, 47295, Note_on_c, 3, 73, 0
5, 47310, Note_on_c, 3, 61, 89
5, 47310, Note_on_c, 3, 70, 89
5, 47385, Note_on_c, 3, 61, 0
5, 47385, Note_on_c, 3, 70, 0
5, 47400, Note_on_c, 3, 64, 89
5, 47400, Note_on_c, 3, 73, 89
5, 47475, Note_on_c, 3, 64, 0
5, 47475, Note_on_c, 3, 73, 0
5, 47490, Note_on_c, 3, 61, 89
5, 47490, Note_on_c, 3, 70, 89
5, 47565, Note_on_c, 3, 61, 0
5, 47565, Note_on_c, 3, 70, 0
5, 47580, Note_on_c, 3, 64, 89
5, 47580, Note_on_c, 3, 73, 89
5, 47655, Note_on_c, 3, 64, 0
5, 47655, Note_on_c, 3, 73, 0
5, 47670, Note_on_c, 3, 67, 89
5, 47670, Note_on_c, 3, 76, 89
5, 47745, Note_on_c, 3, 67, 0
5, 47745, Note_on_c, 3, 76, 0
5, 47760, Note_on_c, 3, 64, 89
5, 47760, Note_on_c, 3, 73, 89
5, 47835, Note_on_c, 3, 64, 0
5, 47835, Note_on_c, 3, 73, 0
5, 47850, Note_on_c, 3, 61, 89
5, 47850, Note_on_c, 3, 70, 89
5, 47925, Note_on_c, 3, 61, 0
5, 47925, Note_on_c, 3, 70, 0
5, 47940, Note_on_c, 3, 73, 89
5, 47940, Note_on_c, 3, 64, 89
5, 48015, Note_on_c, 3, 73, 0
5, 48015, Note_on_c, 3, 64, 0
5, 48030, Note_on_c, 3, 61, 89
5, 48030, Note_on_c, 3, 70, 89
5, 48105, Note_on_c, 3, 61, 0
5, 48105, Note_on_c, 3, 70, 0
5, 48120, Note_on_c, 3, 64, 89
5, 48120, Note_on_c, 3, 73, 89
5, 48195, Note_on_c, 3, 64, 0
5, 48195, Note_on_c, 3, 73, 0
5, 48210, Note_on_c, 3, 67, 89
5, 48210, Note_on_c, 3, 76, 89
5, 48285, Note_on_c, 3, 67, 0
5, 48285, Note_on_c, 3, 76, 0
5, 48300, Note_on_c, 3, 64, 89
5, 48300, Note_on_c, 3, 73, 89
5, 48375, Note_on_c, 3, 64, 0
5, 48375, Note_on_c, 3, 73, 0
5, 48390, Note_on_c, 3, 61, 89
5, 48390, Note_on_c, 3, 70, 89
5, 48465, Note_on_c, 3, 61, 0
5, 48465, Note_on_c, 3, 70, 0
5, 48480, Note_on_c, 3, 64, 89
5, 48480, Note_on_c, 3, 73, 89
5, 48555, Note_on_c, 3, 64, 0
5, 48555, Note_on_c, 3, 73, 0
5, 48570, Note_on_c, 3, 61, 89
5, 48570, Note_on_c, 3, 70, 89
5, 48645, Note_on_c, 3, 61, 0
5, 48645, Note_on_c, 3, 70, 0
5, 48660, Note_on_c, 3, 64, 89
5, 48660, Note_on_c, 3, 73, 89
5, 48735, Note_on_c, 3, 64, 0
5, 48735, Note_on_c, 3, 73, 0
5, 48750, Note_on_c, 3, 67, 89
5, 48750, Note_on_c, 3, 76, 89
5, 48825, Note_on_c, 3, 67, 0
5, 48825, Note_on_c, 3, 76, 0
5, 48840, Note_on_c, 3, 64, 89
5, 48840, Note_on_c, 3, 73, 89
5, 48915, Note_on_c, 3, 64, 0
5, 48915, Note_on_c, 3, 73, 0
5, 48930, Note_on_c, 3, 70, 89
5, 48930, Note_on_c, 3, 61, 89
5, 49005, Note_on_c, 3, 70, 0
5, 49005, Note_on_c, 3, 61, 0
5, 49020, Note_on_c, 3, 64, 89
5, 49020, Note_on_c, 3, 73, 89
5, 49095, Note_on_c, 3, 64, 0
5, 49095, Note_on_c, 3, 73, 0
5, 49110, Note_on_c, 3, 61, 89
5, 49110, Note_on_c, 3, 70, 89
5, 49185, Note_on_c, 3, 61, 0
5, 49185, Note_on_c, 3, 70, 0
5, 49200, Note_on_c, 3, 58, 89
5, 49200, Note_on_c, 3, 67, 89
5, 49275, Note_on_c, 3, 58, 0
5, 49275, Note_on_c, 3, 67, 0
5, 49290, Note_on_c, 3, 61, 89
5, 49290, Note_on_c, 3, 70, 89
5, 49365, Note_on_c, 3, 61, 0
5, 49365, Note_on_c, 3, 70, 0
5, 49380, Note_on_c, 3, 58, 89
5, 49380, Note_on_c, 3, 67, 89
5, 49455, Note_on_c, 3, 58, 0
5, 49455, Note_on_c, 3, 67, 0
5, 49470, Note_on_c, 3, 55, 89
5, 49470, Note_on_c, 3, 64, 89
5, 49545, Note_on_c, 3, 55, 0
5, 49545, Note_on_c, 3, 64, 0
5, 49560, Note_on_c, 3, 58, 89
5, 49560, Note_on_c, 3, 67, 89
5, 49635, Note_on_c, 3, 58, 0
5, 49635, Note_on_c, 3, 67, 0
5, 49650, Note_on_c, 3, 55, 89
5, 49650, Note_on_c, 3, 64, 89
5, 49725, Note_on_c, 3, 55, 0
5, 49725, Note_on_c, 3, 64, 0
5, 49740, Note_on_c, 3, 58, 89
5, 49740, Note_on_c, 3, 67, 89
5, 49815, Note_on_c, 3, 58, 0
5, 49815, Note_on_c, 3, 67, 0
5, 49830, Note_on_c, 3, 61, 89
5, 49830, Note_on_c, 3, 70, 89
5, 49905, Note_on_c, 3, 61, 0
5, 49905, Note_on_c, 3, 70, 0
5, 49920, Note_on_c, 3, 58, 89
5, 49920, Note_on_c, 3, 67, 89
5, 49995, Note_on_c, 3, 58, 0
5, 49995, Note_on_c, 3, 67, 0
5, 50010, Note_on_c, 3, 55, 89
5, 50010, Note_on_c, 3, 64, 89
5, 50085, Note_on_c, 3, 55, 0
5, 50085, Note_on_c, 3, 64, 0
5, 50100, Note_on_c, 3, 58, 89
5, 50100, Note_on_c, 3, 67, 89
5, 50175, Note_on_c, 3, 58, 0
5, 50175, Note_on_c, 3, 67, 0
5, 50190, Note_on_c, 3, 55, 89
5, 50190, Note_on_c, 3, 64, 89
5, 50265, Note_on_c, 3, 55, 0
5, 50265, Note_on_c, 3, 64, 0
5, 50280, Note_on_c, 3, 58, 89
5, 50280, Note_on_c, 3, 67, 89
5, 50355, Note_on_c, 3, 58, 0
5, 50355, Note_on_c, 3, 67, 0
5, 50370, Note_on_c, 3, 61, 89
5, 50370, Note_on_c, 3, 70, 89
5, 50445, Note_on_c, 3, 61, 0
5, 50445, Note_on_c, 3, 70, 0
5, 50460, Note_on_c, 3, 58, 89
5, 50460, Note_on_c, 3, 67, 89
5, 50535, Note_on_c, 3, 58, 0
5, 50535, Note_on_c, 3, 67, 0
5, 50550, Note_on_c, 3, 55, 89
5, 50550, Note_on_c, 3, 64, 89
5, 50625, Note_on_c, 3, 55, 0
5, 50625, Note_on_c, 3, 64, 0
5, 50640, Note_on_c, 3, 58, 89
5, 50640, Note_on_c, 3, 67, 89
5, 50715, Note_on_c, 3, 58, 0
5, 50715, Note_on_c, 3, 67, 0
5, 50730, Note_on_c, 3, 55, 89
5, 50730, Note_on_c, 3, 64, 89
5, 50805, Note_on_c, 3, 55, 0
5, 50805, Note_on_c, 3, 64, 0
5, 50820, Note_on_c, 3, 67, 89
5, 50820, Note_on_c, 3, 58, 89
5, 50895, Note_on_c, 3, 67, 0
5, 50895, Note_on_c, 3, 58, 0
5, 50910, Note_on_c, 3, 61, 89
5, 50910, Note_on_c, 3, 70, 89
5, 50985, Note_on_c, 3, 61, 0
5, 50985, Note_on_c, 3, 70, 0
5, 51000, Note_on_c, 3, 58, 89
5, 51000, Note_on_c, 3, 67, 89
5, 51075, Note_on_c, 3, 58, 0
5, 51075, Note_on_c, 3, 67, 0
5, 51090, Note_on_c, 3, 55, 89
5, 51090, Note_on_c, 3, 64, 89
5, 51165, Note_on_c, 3, 55, 0
5, 51165, Note_on_c, 3, 64, 0
5, 51180, Note_on_c, 3, 58, 89
5, 51180, Note_on_c, 3, 67, 89
5, 51255, Note_on_c, 3, 58, 0
5, 51255, Note_on_c, 3, 67, 0
5, 51270, Note_on_c, 3, 55, 89
5, 51270, Note_on_c, 3, 64, 89
5, 51345, Note_on_c, 3, 55, 0
5, 51345, Note_on_c, 3, 64, 0
5, 51360, Note_on_c, 3, 52, 89
5, 51360, Note_on_c, 3, 61, 89
5, 51435, Note_on_c, 3, 52, 0
5, 51435, Note_on_c, 3, 61, 0
5, 51450, Note_on_c, 3, 55, 89
5, 51450, Note_on_c, 3, 64, 89
5, 51525, Note_on_c, 3, 55, 0
5, 51525, Note_on_c, 3, 64, 0
5, 51540, Note_on_c, 3, 52, 89
5, 51540, Note_on_c, 3, 61, 89
5, 51615, Note_on_c, 3, 52, 0
5, 51615, Note_on_c, 3, 61, 0
5, 51630, Note_on_c, 3, 49, 89
5, 51630, Note_on_c, 3, 58, 89
5, 51705, Note_on_c, 3, 49, 0
5, 51705, Note_on_c, 3, 58, 0
5, 51720, Note_on_c, 3, 52, 89
5, 51720, Note_on_c, 3, 61, 89
5, 51795, Note_on_c, 3, 52, 0
5, 51795, Note_on_c, 3, 61, 0
5, 51810, Note_on_c, 3, 58, 89
5, 51810, Note_on_c, 3, 49, 89
5, 51885, Note_on_c, 3, 58, 0
5, 51885, Note_on_c, 3, 49, 0
5, 51900, Note_on_c, 3, 52, 89
5, 51900, Note_on_c, 3, 61, 89
5, 51975, Note_on_c, 3, 52, 0
5, 51975, Note_on_c, 3, 61, 0
5, 51990, Note_on_c, 3, 55, 89
5, 51990, Note_on_c, 3, 64, 89
5, 52065, Note_on_c, 3, 55, 0
5, 52065, Note_on_c, 3, 64, 0
5, 52080, Note_on_c, 3, 52, 89
5, 52080, Note_on_c, 3, 61, 89
5, 52155, Note_on_c, 3, 52, 0
5, 52155, Note_on_c, 3, 61, 0
5, 52170, Note_on_c, 3, 49, 89
5, 52170, Note_on_c, 3, 58, 89
5, 52245, Note_on_c, 3, 49, 0
5, 52245, Note_on_c, 3, 58, 0
5, 52260, Note_on_c, 3, 52, 89
5, 52260, Note_on_c, 3, 61, 89
5, 52335, Note_on_c, 3, 52, 0
5, 52335, Note_on_c, 3, 61, 0
5, 52350, Note_on_c, 3, 49, 89
5, 52350, Note_on_c, 3, 58, 89
5, 52425, Note_on_c, 3, 49, 0
5, 52425, Note_on_c, 3, 58, 0
5, 52440, Note_on_c, 3, 52, 89
5, 52440, Note_on_c, 3, 61, 89
5, 52515, Note_on_c, 3, 52, 0
5, 52515, Note_on_c, 3, 61, 0
5, 52530, Note_on_c, 3, 55, 89
5, 52530, Note_on_c, 3, 64, 89
5, 52605, Note_on_c, 3, 55, 0
5, 52605, Note_on_c, 3, 64, 0
5, 52620, Note_on_c, 3, 52, 89
5, 52620, Note_on_c, 3, 61, 89
5, 52695, Note_on_c, 3, 52, 0
5, 52695, Note_on_c, 3, 61, 0
5, 52710, Note_on_c, 3, 49, 89
5, 52710, Note_on_c, 3, 58, 89
5, 52785, Note_on_c, 3, 49, 0
5, 52785, Note_on_c, 3, 58, 0
5, 52800, Note_on_c, 3, 52, 89
5, 52800, Note_on_c, 3, 61, 89
5, 52875, Note_on_c, 3, 52, 0
5, 52875, Note_on_c, 3, 61, 0
5, 52890, Note_on_c, 3, 49, 89
5, 52890, Note_on_c, 3, 58, 89
5, 52965, Note_on_c, 3, 49, 0
5, 52965, Note_on_c, 3, 58, 0
5, 52980, Note_on_c, 3, 52, 89
5, 52980, Note_on_c, 3, 61, 89
5, 53055, Note_on_c, 3, 52, 0
5, 53055, Note_on_c, 3, 61, 0
5, 53070, Note_on_c, 3, 55, 89
5, 53070, Note_on_c, 3, 64, 89
5, 53145, Note_on_c, 3, 55, 0
5, 53145, Note_on_c, 3, 64, 0
5, 53160, Note_on_c, 3, 52, 89
5, 53160, Note_on_c, 3, 61, 89
5, 53235, Note_on_c, 3, 52, 0
5, 53235, Note_on_c, 3, 61, 0
5, 53250, Note_on_c, 3, 49, 89
5, 53250, Note_on_c, 3, 58, 89
5, 53325, Note_on_c, 3, 49, 0
5, 53325, Note_on_c, 3, 58, 0
5, 53340, Note_on_c, 3, 52, 89
5, 53340, Note_on_c, 3, 61, 89
5, 53415, Note_on_c, 3, 52, 0
5, 53415, Note_on_c, 3, 61, 0
5, 53430, Note_on_c, 3, 49, 89
5, 53430, Note_on_c, 3, 58, 89
5, 53505, Note_on_c, 3, 49, 0
5, 53505, Note_on_c, 3, 58, 0
5, 53520, Note_on_c, 3, 52, 89
5, 53520, Note_on_c, 3, 61, 89
5, 53595, Note_on_c, 3, 52, 0
5, 53595, Note_on_c, 3, 61, 0
5, 53610, Note_on_c, 3, 55, 89
5, 53610, Note_on_c, 3, 64, 89
5, 53685, Note_on_c, 3, 55, 0
5, 53685, Note_on_c, 3, 64, 0
5, 53700, Note_on_c, 3, 61, 89
5, 53700, Note_on_c, 3, 52, 89
5, 53775, Note_on_c, 3, 61, 0
5, 53775, Note_on_c, 3, 52, 0
5, 53790, Note_on_c, 3, 55, 89
5, 53790, Note_on_c, 3, 64, 89
5, 53865, Note_on_c, 3, 55, 0
5, 53865, Note_on_c, 3, 64, 0
5, 53880, Note_on_c, 3, 67, 89
5, 53955, Note_on_c, 3, 67, 0
5, 53970, Note_on_c, 3, 55, 89
5, 53970, Note_on_c, 3, 64, 89
5, 54045, Note_on_c, 3, 55, 0
5, 54045, Note_on_c, 3, 64, 0
5, 54060, Note_on_c, 3, 52, 89
5, 54060, Note_on_c, 3, 61, 89
5, 54135, Note_on_c, 3, 52, 0
5, 54135, Note_on_c, 3, 61, 0
5, 54150, Note_on_c, 3, 55, 89
5, 54150, Note_on_c, 3, 64, 89
5, 54225, Note_on_c, 3, 55, 0
5, 54225, Note_on_c, 3, 64, 0
5, 54240, Note_on_c, 3, 52, 89
5, 54240, Note_on_c, 3, 61, 89
5, 54315, Note_on_c, 3, 52, 0
5, 54315, Note_on_c, 3, 61, 0
5, 54330, Note_on_c, 3, 55, 89
5, 54330, Note_on_c, 3, 64, 89
5, 54405, Note_on_c, 3, 55, 0
5, 54405, Note_on_c, 3, 64, 0
5, 54420, Note_on_c, 3, 58, 89
5, 54420, Note_on_c, 3, 67, 89
5, 54495, Note_on_c, 3, 58, 0
5, 54495, Note_on_c, 3, 67, 0
5, 54510, Note_on_c, 3, 55, 89
5, 54510, Note_on_c, 3, 64, 89
5, 54585, Note_on_c, 3, 55, 0
5, 54585, Note_on_c, 3, 64, 0
5, 54600, Note_on_c, 3, 52, 89
5, 54600, Note_on_c, 3, 61, 89
5, 54675, Note_on_c, 3, 52, 0
5, 54675, Note_on_c, 3, 61, 0
5, 54690, Note_on_c, 3, 64, 89
5, 54690, Note_on_c, 3, 55, 89
5, 54765, Note_on_c, 3, 64, 0
5, 54765, Note_on_c, 3, 55, 0
5, 54780, Note_on_c, 3, 52, 89
5, 54780, Note_on_c, 3, 61, 89
5, 54855, Note_on_c, 3, 52, 0
5, 54855, Note_on_c, 3, 61, 0
5, 54870, Note_on_c, 3, 55, 89
5, 54870, Note_on_c, 3, 64, 89
5, 54945, Note_on_c, 3, 55, 0
5, 54945, Note_on_c, 3, 64, 0
5, 54960, Note_on_c, 3, 58, 89
5, 54960, Note_on_c, 3, 67, 89
5, 55035, Note_on_c, 3, 58, 0
5, 55035, Note_on_c, 3, 67, 0
5, 55050, Note_on_c, 3, 55, 89
5, 55050, Note_on_c, 3, 64, 89
5, 55125, Note_on_c, 3, 55, 0
5, 55125, Note_on_c, 3, 64, 0
5, 55140, Note_on_c, 3, 52, 89
5, 55140, Note_on_c, 3, 61, 89
5, 55215, Note_on_c, 3, 52, 0
5, 55215, Note_on_c, 3, 61, 0
5, 55230, Note_on_c, 3, 55, 89
5, 55230, Note_on_c, 3, 64, 89
5, 55305, Note_on_c, 3, 55, 0
5, 55305, Note_on_c, 3, 64, 0
5, 55320, Note_on_c, 3, 52, 89
5, 55320, Note_on_c, 3, 61, 89
5, 55395, Note_on_c, 3, 52, 0
5, 55395, Note_on_c, 3, 61, 0
5, 55410, Note_on_c, 3, 55, 89
5, 55410, Note_on_c, 3, 64, 89
5, 55485, Note_on_c, 3, 55, 0
5, 55485, Note_on_c, 3, 64, 0
5, 55500, Note_on_c, 3, 58, 89
5, 55500, Note_on_c, 3, 67, 89
5, 55575, Note_on_c, 3, 58, 0
5, 55575, Note_on_c, 3, 67, 0
5, 55590, Note_on_c, 3, 55, 89
5, 55590, Note_on_c, 3, 64, 89
5, 55665, Note_on_c, 3, 55, 0
5, 55665, Note_on_c, 3, 64, 0
5, 55680, Note_on_c, 3, 58, 89
5, 55680, Note_on_c, 3, 67, 89
5, 55755, Note_on_c, 3, 58, 0
5, 55755, Note_on_c, 3, 67, 0
5, 55770, Note_on_c, 3, 61, 89
5, 55770, Note_on_c, 3, 70, 89
5, 55845, Note_on_c, 3, 61, 0
5, 55845, Note_on_c, 3, 70, 0
5, 55860, Note_on_c, 3, 58, 89
5, 55860, Note_on_c, 3, 67, 89
5, 55935, Note_on_c, 3, 58, 0
5, 55935, Note_on_c, 3, 67, 0
5, 55950, Note_on_c, 3, 61, 89
5, 55950, Note_on_c, 3, 70, 89
5, 56025, Note_on_c, 3, 61, 0
5, 56025, Note_on_c, 3, 70, 0
5, 56040, Note_on_c, 3, 58, 89
5, 56040, Note_on_c, 3, 67, 89
5, 56115, Note_on_c, 3, 58, 0
5, 56115, Note_on_c, 3, 67, 0
5, 56130, Note_on_c, 3, 61, 89
5, 56130, Note_on_c, 3, 70, 89
5, 56205, Note_on_c, 3, 61, 0
5, 56205, Note_on_c, 3, 70, 0
5, 56220, Note_on_c, 3, 58, 89
5, 56220, Note_on_c, 3, 67, 89
5, 56295, Note_on_c, 3, 58, 0
5, 56295, Note_on_c, 3, 67, 0
5, 56310, Note_on_c, 3, 61, 89
5, 56310, Note_on_c, 3, 70, 89
5, 56385, Note_on_c, 3, 61, 0
5, 56385, Note_on_c, 3, 70, 0
5, 56400, Note_on_c, 3, 58, 89
5, 56400, Note_on_c, 3, 67, 89
5, 56475, Note_on_c, 3, 58, 0
5, 56475, Note_on_c, 3, 67, 0
5, 56490, Note_on_c, 3, 61, 89
5, 56490, Note_on_c, 3, 70, 89
5, 56565, Note_on_c, 3, 61, 0
5, 56565, Note_on_c, 3, 70, 0
5, 56580, Note_on_c, 3, 67, 89
5, 56580, Note_on_c, 3, 58, 89
5, 56655, Note_on_c, 3, 67, 0
5, 56655, Note_on_c, 3, 58, 0
5, 56670, Note_on_c, 3, 61, 89
5, 56670, Note_on_c, 3, 70, 89
5, 56745, Note_on_c, 3, 61, 0
5, 56745, Note_on_c, 3, 70, 0
5, 56760, Note_on_c, 3, 64, 89
5, 56760, Note_on_c, 3, 73, 89
5, 56835, Note_on_c, 3, 64, 0
5, 56835, Note_on_c, 3, 73, 0
5, 56850, Note_on_c, 3, 61, 89
5, 56850, Note_on_c, 3, 70, 89
5, 56925, Note_on_c, 3, 61, 0
5, 56925, Note_on_c, 3, 70, 0
5, 56940, Note_on_c, 3, 64, 89
5, 56940, Note_on_c, 3, 73, 89
5, 57015, Note_on_c, 3, 64, 0
5, 57015, Note_on_c, 3, 73, 0
5, 57030, Note_on_c, 3, 67, 89
5, 57030, Note_on_c, 3, 76, 89
5, 57105, Note_on_c, 3, 67, 0
5, 57105, Note_on_c, 3, 76, 0
5, 57120, Note_on_c, 3, 64, 89
5, 57120, Note_on_c, 3, 73, 89
5, 57195, Note_on_c, 3, 64, 0
5, 57195, Note_on_c, 3, 73, 0
5, 57210, Note_on_c, 3, 67, 89
5, 57210, Note_on_c, 3, 76, 89
5, 57285, Note_on_c, 3, 67, 0
5, 57285, Note_on_c, 3, 76, 0
5, 57300, Note_on_c, 3, 64, 89
5, 57300, Note_on_c, 3, 73, 89
5, 57375, Note_on_c, 3, 64, 0
5, 57375, Note_on_c, 3, 73, 0
5, 57390, Note_on_c, 3, 67, 89
5, 57390, Note_on_c, 3, 76, 89
5, 57465, Note_on_c, 3, 67, 0
5, 57465, Note_on_c, 3, 76, 0
5, 57480, Note_on_c, 3, 64, 89
5, 57480, Note_on_c, 3, 73, 89
5, 57555, Note_on_c, 3, 64, 0
5, 57555, Note_on_c, 3, 73, 0
5, 57570, Note_on_c, 3, 76, 89
5, 57570, Note_on_c, 3, 67, 89
5, 57645, Note_on_c, 3, 76, 0
5, 57645, Note_on_c, 3, 67, 0
5, 57660, Note_on_c, 3, 64, 89
5, 57660, Note_on_c, 3, 73, 89
5, 57735, Note_on_c, 3, 64, 0
5, 57735, Note_on_c, 3, 73, 0
5, 57750, Note_on_c, 3, 67, 89
5, 57750, Note_on_c, 3, 76, 89
5, 57810, Note_on_c, 3, 76, 0
5, 57825, Note_on_c, 3, 67, 0
5, 57840, Note_on_c, 3, 55, 89
5, 57840, Note_on_c, 3, 76, 89
5, 57840, Note_on_c, 3, 81, 89
5, 58545, Note_on_c, 3, 55, 0
5, 58545, Note_on_c, 3, 76, 0
5, 58545, Note_on_c, 3, 81, 0
5, 58560, Note_on_c, 3, 53, 89
5, 58560, Note_on_c, 3, 77, 89
5, 58560, Note_on_c, 3, 81, 89
5, 59265, Note_on_c, 3, 53, 0
5, 59265, Note_on_c, 3, 77, 0
5, 59265, Note_on_c, 3, 81, 0
5, 59280, Note_on_c, 3, 58, 89
5, 59280, Note_on_c, 3, 74, 89
5, 59280, Note_on_c, 3, 79, 89
5, 59985, Note_on_c, 3, 74, 0
5, 59985, Note_on_c, 3, 79, 0
5, 60225, Note_on_c, 3, 58, 0
5, 60240, Note_on_c, 3, 57, 89
5, 60345, Note_on_c, 3, 57, 0
5, 60360, Note_on_c, 3, 55, 89
5, 60465, Note_on_c, 3, 55, 0
5, 60480, Note_on_c, 3, 79, 89
5, 60480, Note_on_c, 3, 76, 89
5, 60480, Note_on_c, 3, 61, 89
5, 60480, Note_on_c, 3, 57, 89
5, 60585, Note_on_c, 3, 57, 0
5, 60600, Note_on_c, 3, 52, 89
5, 60705, Note_on_c, 3, 79, 0
5, 60705, Note_on_c, 3, 76, 0
5, 60705, Note_on_c, 3, 61, 0
5, 60705, Note_on_c, 3, 52, 0
5, 60720, Note_on_c, 3, 53, 89
5, 60795, Note_on_c, 3, 53, 0
5, 60810, Note_on_c, 3, 50, 89
5, 60885, Note_on_c, 3, 50, 0
5, 60900, Note_on_c, 3, 52, 89
5, 60975, Note_on_c, 3, 52, 0
5, 60990, Note_on_c, 3, 49, 89
5, 61065, Note_on_c, 3, 49, 0
5, 61080, Note_on_c, 3, 50, 89
5, 61155, Note_on_c, 3, 50, 0
5, 61170, Note_on_c, 3, 47, 89
5, 61245, Note_on_c, 3, 47, 0
5, 61260, Note_on_c, 3, 49, 89
5, 61335, Note_on_c, 3, 49, 0
5, 61350, Note_on_c, 3, 45, 89
5, 61425, Note_on_c, 3, 45, 0
5, 61440, Note_on_c, 3, 46, 89
5, 61515, Note_on_c, 3, 46, 0
5, 61530, Note_on_c, 3, 44, 89
5, 61605, Note_on_c, 3, 44, 0
5, 61620, Note_on_c, 3, 45, 89
5, 61695, Note_on_c, 3, 45, 0
5, 61710, Note_on_c, 3, 69, 89
5, 61710, Note_on_c, 3, 73, 89
5, 61710, Note_on_c, 3, 64, 89
5, 61710, Note_on_c, 3, 57, 89
5, 61710, Note_on_c, 3, 55, 89
5, 61770, Note_on_c, 3, 69, 0
5, 61770, Note_on_c, 3, 57, 0
5, 61785, Note_on_c, 3, 73, 0
5, 61785, Note_on_c, 3, 64, 0
5, 61785, Note_on_c, 3, 55, 0
5, 61800, Note_on_c, 3, 53, 89
5, 61800, Note_on_c, 3, 57, 89
5, 61800, Note_on_c, 3, 62, 89
5, 61800, Note_on_c, 3, 65, 89
5, 61800, Note_on_c, 3, 69, 89
5, 61800, Note_on_c, 3, 74, 89
5, 61950, Note_on_c, 3, 57, 0
5, 61950, Note_on_c, 3, 62, 0
5, 61950, Note_on_c, 3, 65, 0
5, 61965, Note_on_c, 3, 53, 0
5, 61965, Note_on_c, 3, 69, 0
5, 61965, Note_on_c, 3, 74, 0
5, 61980, Note_on_c, 3, 57, 89
5, 61980, Note_on_c, 3, 65, 89
5, 61980, Note_on_c, 3, 62, 89
5, 61980, Note_on_c, 3, 50, 89
5, 62145, Note_on_c, 3, 65, 0
5, 62145, Note_on_c, 3, 50, 0
5, 62160, Note_on_c, 3, 45, 89
5, 62160, Note_on_c, 3, 64, 89
5, 62325, Note_on_c, 3, 62, 0
5, 62340, Note_on_c, 3, 61, 89
5, 62400, Note_on_c, 3, 64, 0
5, 62400, Note_on_c, 3, 64, 89
5, 62505, Note_on_c, 3, 57, 0
5, 62520, Note_on_c, 3, 55, 89
5, 62610, Note_on_c, 3, 55, 0
5, 62625, Note_on_c, 3, 45, 0
5, 62625, Note_on_c, 3, 61, 0
5, 62625, Note_on_c, 3, 64, 0
5, 62640, Note_on_c, 3, 57, 89
5, 62640, Note_on_c, 3, 62, 89
5, 62640, Note_on_c, 3, 55, 89
5, 62655, Note_on_c, 3, 50, 89
5, 62655, Note_on_c, 3, 38, 89
5, 62805, Note_on_c, 3, 55, 0
5, 62820, Note_on_c, 3, 53, 89
5, 62895, Note_on_c, 3, 53, 0
5, 62910, Note_on_c, 3, 52, 89
5, 62985, Note_on_c, 3, 52, 0
5, 63015, Note_on_c, 3, 53, 89
5, 63600, Note_on_c, 3, 57, 0
5, 63600, Note_on_c, 3, 62, 0
5, 63615, Note_on_c, 3, 50, 0
5, 63615, Note_on_c, 3, 38, 0
5, 63615, Note_on_c, 3, 53, 0
5, 63615, End_track
6, 0, Start_track
6, 0, Title_t, "Harp\000\000\000\000\000\000\000\000\000\000"
6, 0, Instrument_name_t, "Orchestral Harp"
6, 0, MIDI_port, 0
6, 0, Program_c, 4, 46
6, 0, Text_t, "Added Harp\000"
6, 0, Control_c, 4, 7, 127
6, 24, Control_c, 4, 10, 118
6, 36495, Note_on_c, 4, 62, 89
6, 36525, Note_on_c, 4, 62, 0
6, 36540, Note_on_c, 4, 65, 89
6, 36570, Note_on_c, 4, 65, 0
6, 36585, Note_on_c, 4, 70, 89
6, 36615, Note_on_c, 4, 70, 0
6, 36630, Note_on_c, 4, 65, 89
6, 36660, Note_on_c, 4, 65, 0
6, 36675, Note_on_c, 4, 60, 89
6, 36705, Note_on_c, 4, 60, 0
6, 36720, Note_on_c, 4, 64, 89
6, 36750, Note_on_c, 4, 64, 0
6, 36765, Note_on_c, 4, 69, 89
6, 36795, Note_on_c, 4, 69, 0
6, 36810, Note_on_c, 4, 64, 89
6, 36840, Note_on_c, 4, 64, 0
6, 36855, Note_on_c, 4, 58, 89
6, 36885, Note_on_c, 4, 58, 0
6, 36900, Note_on_c, 4, 62, 89
6, 36930, Note_on_c, 4, 62, 0
6, 36945, Note_on_c, 4, 67, 89
6, 36975, Note_on_c, 4, 67, 0
6, 36990, Note_on_c, 4, 62, 89
6, 37020, Note_on_c, 4, 62, 0
6, 37035, Note_on_c, 4, 57, 89
6, 37065, Note_on_c, 4, 57, 0
6, 37080, Note_on_c, 4, 61, 89
6, 37110, Note_on_c, 4, 61, 0
6, 37125, Note_on_c, 4, 64, 89
6, 37155, Note_on_c, 4, 64, 0
6, 37170, Note_on_c, 4, 69, 89
6, 37200, Note_on_c, 4, 69, 0
6, 37230, Note_on_c, 4, 62, 89
6, 37305, Note_on_c, 4, 62, 0
6, 38415, Note_on_c, 4, 62, 89
6, 38445, Note_on_c, 4, 62, 0
6, 38460, Note_on_c, 4, 65, 89
6, 38490, Note_on_c, 4, 65, 0
6, 38505, Note_on_c, 4, 70, 89
6, 38535, Note_on_c, 4, 70, 0
6, 38550, Note_on_c, 4, 65, 89
6, 38580, Note_on_c, 4, 65, 0
6, 38595, Note_on_c, 4, 60, 89
6, 38625, Note_on_c, 4, 60, 0
6, 38640, Note_on_c, 4, 64, 89
6, 38670, Note_on_c, 4, 64, 0
6, 38685, Note_on_c, 4, 69, 89
6, 38715, Note_on_c, 4, 69, 0
6, 38730, Note_on_c, 4, 64, 89
6, 38760, Note_on_c, 4, 64, 0
6, 38775, Note_on_c, 4, 58, 89
6, 38805, Note_on_c, 4, 58, 0
6, 38820, Note_on_c, 4, 62, 89
6, 38850, Note_on_c, 4, 62, 0
6, 38865, Note_on_c, 4, 67, 89
6, 38895, Note_on_c, 4, 67, 0
6, 38910, Note_on_c, 4, 62, 89
6, 38940, Note_on_c, 4, 62, 0
6, 38955, Note_on_c, 4, 57, 89
6, 38985, Note_on_c, 4, 57, 0
6, 39000, Note_on_c, 4, 61, 89
6, 39030, Note_on_c, 4, 61, 0
6, 39045, Note_on_c, 4, 64, 89
6, 39075, Note_on_c, 4, 64, 0
6, 39090, Note_on_c, 4, 69, 89
6, 39120, Note_on_c, 4, 69, 0
6, 39150, Note_on_c, 4, 62, 89
6, 39225, Note_on_c, 4, 62, 0
6, 42735, Note_on_c, 4, 74, 89
6, 42765, Note_on_c, 4, 74, 0
6, 42780, Note_on_c, 4, 77, 89
6, 42810, Note_on_c, 4, 77, 0
6, 42825, Note_on_c, 4, 82, 89
6, 42855, Note_on_c, 4, 82, 0
6, 42870, Note_on_c, 4, 77, 89
6, 42900, Note_on_c, 4, 77, 0
6, 42915, Note_on_c, 4, 72, 89
6, 42945, Note_on_c, 4, 72, 0
6, 42960, Note_on_c, 4, 76, 89
6, 42990, Note_on_c, 4, 76, 0
6, 43005, Note_on_c, 4, 81, 89
6, 43035, Note_on_c, 4, 81, 0
6, 43050, Note_on_c, 4, 76, 89
6, 43080, Note_on_c, 4, 76, 0
6, 43095, Note_on_c, 4, 70, 89
6, 43125, Note_on_c, 4, 70, 0
6, 43140, Note_on_c, 4, 74, 89
6, 43170, Note_on_c, 4, 74, 0
6, 43185, Note_on_c, 4, 79, 89
6, 43215, Note_on_c, 4, 79, 0
6, 43215, Note_on_c, 4, 74, 89
6, 43245, Note_on_c, 4, 74, 0
6, 43260, Note_on_c, 4, 69, 89
6, 43305, Note_on_c, 4, 69, 0
6, 43320, Note_on_c, 4, 73, 89
6, 43365, Note_on_c, 4, 73, 0
6, 43380, Note_on_c, 4, 76, 89
6, 43425, Note_on_c, 4, 76, 0
6, 43440, Note_on_c, 4, 81, 89
6, 43485, Note_on_c, 4, 81, 0
6, 43500, Note_on_c, 4, 74, 89
6, 43605, Note_on_c, 4, 74, 0
6, 43605, End_track
7, 0, Start_track
7, 0, Title_t, "              "
7, 0, MIDI_port, 0
7, 0, Text_t, "Performed by"
7, 0, End_track
8, 0, Start_track
8, 0, Title_t, "              "
8, 0, MIDI_port, 0
8, 0, Text_t, "Al Borges"
8, 0, End_track
9, 0, Start_track
9, 0, Title_t, "              "
9, 0, MIDI_port, 0
9, 0, Text_t, "for"
9, 0, End_track
10, 0, Start_track
10, 0, Title_t, "              "
10, 0, MIDI_port, 0
10, 0, Text_t, "Eye & I Productions"
10, 0, End_track
11, 0, Start_track
11, 0, Title_t, "              "
11, 0, MIDI_port, 0
11, 0, Text_t, "and"
11, 0, End_track
12, 0, Start_track
12, 0, Title_t, "              "
12, 0, MIDI_port, 0
12, 0, Text_t, "Advanced Gravis"
12, 0, End_track
0, 0, End_of_file
