0, 0, Header, 1, 4, 120
1, 0, Start_track
1, 0, Title_t, "untitled"
1, 0, Time_signature, 3, 3, 12, 8
1, 0, Key_signature, -1, "major"
1, 0, Tempo, 789474
1, 0, Marker_t, "tpinven4.pc"
1, 9060, Tempo, 1200000
1, 9124, Tempo, 1431298
1, 9124, End_track
2, 0, Start_track
2, 0, Title_t, "Track 1"
2, 0, Program_c, 0, 0
2, 0, Control_c, 0, 7, 91
2, 0, Control_c, 0, 10, 108
2, 0, Control_c, 0, 7, 121
2, 0, Control_c, 0, 93, 84
2, 0, Note_on_c, 0, 62, 65
2, 20, Control_c, 0, 7, 80
2, 30, Note_on_c, 0, 62, 0
2, 30, Note_on_c, 0, 64, 65
2, 30, Control_c, 0, 7, 76
2, 50, Control_c, 0, 7, 77
2, 60, Note_on_c, 0, 64, 0
2, 60, Note_on_c, 0, 65, 65
2, 70, Control_c, 0, 7, 78
2, 90, Note_on_c, 0, 65, 0
2, 90, Note_on_c, 0, 67, 65
2, 90, Control_c, 0, 7, 79
2, 110, Control_c, 0, 7, 80
2, 120, Note_on_c, 0, 67, 0
2, 120, Note_on_c, 0, 69, 65
2, 130, Control_c, 0, 7, 81
2, 150, Note_on_c, 0, 69, 0
2, 150, Note_on_c, 0, 70, 65
2, 150, Control_c, 0, 7, 82
2, 170, Control_c, 0, 7, 83
2, 180, Note_on_c, 0, 70, 0
2, 180, Note_on_c, 0, 61, 65
2, 180, Control_c, 0, 7, 84
2, 200, Control_c, 0, 7, 85
2, 210, Note_on_c, 0, 61, 0
2, 210, Note_on_c, 0, 70, 65
2, 220, Control_c, 0, 7, 86
2, 240, Note_on_c, 0, 70, 0
2, 240, Note_on_c, 0, 69, 65
2, 240, Control_c, 0, 7, 87
2, 260, Control_c, 0, 7, 88
2, 270, Note_on_c, 0, 69, 0
2, 270, Note_on_c, 0, 67, 65
2, 280, Control_c, 0, 7, 89
2, 300, Note_on_c, 0, 67, 0
2, 300, Note_on_c, 0, 65, 65
2, 300, Control_c, 0, 7, 90
2, 320, Control_c, 0, 7, 91
2, 330, Note_on_c, 0, 65, 0
2, 330, Note_on_c, 0, 64, 65
2, 330, Control_c, 0, 7, 92
2, 350, Control_c, 0, 7, 93
2, 360, Note_on_c, 0, 64, 0
2, 360, Note_on_c, 0, 65, 65
2, 370, Control_c, 0, 7, 94
2, 390, Control_c, 0, 7, 95
2, 410, Control_c, 0, 7, 96
2, 419, Note_on_c, 0, 69, 100
2, 420, Note_on_c, 0, 65, 0
2, 430, Control_c, 0, 7, 97
2, 450, Control_c, 0, 7, 98
2, 460, Control_c, 0, 7, 99
2, 477, Note_on_c, 0, 74, 100
2, 479, Note_on_c, 0, 69, 0
2, 480, Control_c, 0, 7, 100
2, 500, Control_c, 0, 7, 101
2, 520, Control_c, 0, 7, 102
2, 537, Note_on_c, 0, 74, 0
2, 540, Note_on_c, 0, 67, 100
2, 540, Control_c, 0, 7, 103
2, 560, Control_c, 0, 7, 104
2, 580, Control_c, 0, 7, 105
2, 593, Note_on_c, 0, 73, 100
2, 600, Note_on_c, 0, 67, 0
2, 600, Control_c, 0, 7, 106
2, 610, Control_c, 0, 7, 107
2, 630, Control_c, 0, 7, 108
2, 650, Control_c, 0, 7, 109
2, 653, Note_on_c, 0, 73, 0
2, 657, Note_on_c, 0, 76, 100
2, 670, Control_c, 0, 7, 110
2, 690, Control_c, 0, 7, 111
2, 710, Control_c, 0, 7, 112
2, 717, Note_on_c, 0, 76, 0
2, 720, Note_on_c, 0, 74, 65
2, 730, Control_c, 0, 7, 113
2, 740, Control_c, 0, 7, 114
2, 750, Note_on_c, 0, 74, 0
2, 750, Note_on_c, 0, 76, 65
2, 780, Note_on_c, 0, 76, 0
2, 780, Note_on_c, 0, 77, 65
2, 810, Note_on_c, 0, 77, 0
2, 810, Note_on_c, 0, 79, 65
2, 840, Note_on_c, 0, 79, 0
2, 840, Note_on_c, 0, 81, 65
2, 870, Note_on_c, 0, 81, 0
2, 870, Note_on_c, 0, 82, 65
2, 900, Note_on_c, 0, 82, 0
2, 900, Note_on_c, 0, 73, 65
2, 930, Note_on_c, 0, 73, 0
2, 930, Note_on_c, 0, 82, 65
2, 960, Note_on_c, 0, 82, 0
2, 960, Note_on_c, 0, 81, 65
2, 990, Note_on_c, 0, 81, 0
2, 990, Note_on_c, 0, 79, 65
2, 1020, Note_on_c, 0, 79, 0
2, 1020, Note_on_c, 0, 77, 65
2, 1050, Note_on_c, 0, 77, 0
2, 1050, Note_on_c, 0, 76, 65
2, 1080, Note_on_c, 0, 76, 0
2, 1080, Note_on_c, 0, 77, 65
2, 1110, Note_on_c, 0, 77, 0
2, 1110, Note_on_c, 0, 74, 65
2, 1140, Note_on_c, 0, 74, 0
2, 1140, Note_on_c, 0, 76, 65
2, 1170, Note_on_c, 0, 76, 0
2, 1170, Note_on_c, 0, 77, 65
2, 1200, Note_on_c, 0, 77, 0
2, 1200, Note_on_c, 0, 79, 65
2, 1230, Note_on_c, 0, 79, 0
2, 1230, Note_on_c, 0, 81, 65
2, 1260, Note_on_c, 0, 81, 0
2, 1260, Note_on_c, 0, 70, 65
2, 1290, Note_on_c, 0, 70, 0
2, 1290, Note_on_c, 0, 81, 65
2, 1320, Note_on_c, 0, 81, 0
2, 1320, Note_on_c, 0, 79, 65
2, 1350, Note_on_c, 0, 79, 0
2, 1350, Note_on_c, 0, 77, 65
2, 1380, Note_on_c, 0, 77, 0
2, 1380, Note_on_c, 0, 76, 65
2, 1410, Note_on_c, 0, 76, 0
2, 1410, Note_on_c, 0, 74, 65
2, 1440, Note_on_c, 0, 74, 0
2, 1440, Note_on_c, 0, 76, 65
2, 1470, Note_on_c, 0, 76, 0
2, 1470, Note_on_c, 0, 72, 65
2, 1500, Note_on_c, 0, 72, 0
2, 1500, Note_on_c, 0, 74, 65
2, 1530, Note_on_c, 0, 74, 0
2, 1530, Note_on_c, 0, 76, 65
2, 1560, Note_on_c, 0, 76, 0
2, 1560, Note_on_c, 0, 77, 65
2, 1590, Note_on_c, 0, 77, 0
2, 1590, Note_on_c, 0, 79, 65
2, 1620, Note_on_c, 0, 79, 0
2, 1620, Note_on_c, 0, 69, 65
2, 1650, Note_on_c, 0, 69, 0
2, 1650, Note_on_c, 0, 79, 65
2, 1680, Note_on_c, 0, 79, 0
2, 1680, Note_on_c, 0, 77, 65
2, 1710, Note_on_c, 0, 77, 0
2, 1710, Note_on_c, 0, 76, 65
2, 1740, Note_on_c, 0, 76, 0
2, 1740, Note_on_c, 0, 74, 65
2, 1770, Note_on_c, 0, 74, 0
2, 1770, Note_on_c, 0, 72, 65
2, 1800, Note_on_c, 0, 72, 0
2, 1800, Note_on_c, 0, 74, 65
2, 1830, Note_on_c, 0, 74, 0
2, 1830, Note_on_c, 0, 76, 65
2, 1860, Note_on_c, 0, 76, 0
2, 1860, Note_on_c, 0, 77, 65
2, 1890, Note_on_c, 0, 77, 0
2, 1890, Note_on_c, 0, 74, 65
2, 1920, Note_on_c, 0, 74, 0
2, 1920, Note_on_c, 0, 76, 65
2, 1950, Note_on_c, 0, 76, 0
2, 1950, Note_on_c, 0, 77, 65
2, 1980, Note_on_c, 0, 77, 0
2, 1980, Note_on_c, 0, 67, 100
2, 2040, Note_on_c, 0, 67, 0
2, 2160, Note_on_c, 0, 72, 65
2, 2190, Note_on_c, 0, 72, 0
2, 2190, Note_on_c, 0, 74, 65
2, 2220, Note_on_c, 0, 74, 0
2, 2220, Note_on_c, 0, 76, 65
2, 2250, Note_on_c, 0, 76, 0
2, 2250, Note_on_c, 0, 72, 65
2, 2280, Note_on_c, 0, 72, 0
2, 2280, Note_on_c, 0, 74, 65
2, 2310, Note_on_c, 0, 74, 0
2, 2310, Note_on_c, 0, 76, 65
2, 2340, Note_on_c, 0, 76, 0
2, 2340, Note_on_c, 0, 65, 100
2, 2400, Note_on_c, 0, 65, 0
2, 2460, Note_on_c, 0, 70, 65
2, 2579, Note_on_c, 0, 69, 100
2, 2580, Note_on_c, 0, 70, 0
2, 2637, Note_on_c, 0, 67, 100
2, 2639, Note_on_c, 0, 69, 0
2, 2697, Note_on_c, 0, 67, 0
2, 2700, Note_on_c, 0, 72, 65
2, 2700, Control_c, 0, 7, 111
2, 2720, Control_c, 0, 7, 110
2, 2730, Note_on_c, 0, 72, 0
2, 2730, Note_on_c, 0, 70, 65
2, 2730, Control_c, 0, 7, 109
2, 2740, Control_c, 0, 7, 108
2, 2750, Control_c, 0, 7, 107
2, 2760, Note_on_c, 0, 70, 0
2, 2760, Note_on_c, 0, 69, 65
2, 2760, Control_c, 0, 7, 106
2, 2770, Control_c, 0, 7, 105
2, 2780, Control_c, 0, 7, 104
2, 2790, Note_on_c, 0, 69, 0
2, 2790, Note_on_c, 0, 67, 65
2, 2790, Control_c, 0, 7, 103
2, 2800, Control_c, 0, 7, 102
2, 2810, Control_c, 0, 7, 101
2, 2820, Note_on_c, 0, 67, 0
2, 2820, Note_on_c, 0, 65, 65
2, 2820, Control_c, 0, 7, 100
2, 2830, Control_c, 0, 7, 99
2, 2840, Control_c, 0, 7, 98
2, 2850, Note_on_c, 0, 65, 0
2, 2850, Note_on_c, 0, 64, 65
2, 2850, Control_c, 0, 7, 97
2, 2860, Control_c, 0, 7, 96
2, 2870, Control_c, 0, 7, 95
2, 2880, Note_on_c, 0, 64, 0
2, 2880, Note_on_c, 0, 65, 65
2, 2880, Control_c, 0, 7, 94
2, 2890, Control_c, 0, 7, 93
2, 2900, Control_c, 0, 7, 92
2, 2910, Note_on_c, 0, 65, 0
2, 2910, Note_on_c, 0, 67, 65
2, 2910, Control_c, 0, 7, 91
2, 2920, Control_c, 0, 7, 90
2, 2930, Control_c, 0, 7, 89
2, 2940, Note_on_c, 0, 67, 0
2, 2940, Note_on_c, 0, 69, 65
2, 2940, Control_c, 0, 7, 88
2, 2950, Control_c, 0, 7, 87
2, 2955, Note_on_c, 0, 69, 0
2, 2955, Note_on_c, 0, 67, 65
2, 2960, Control_c, 0, 7, 86
2, 2970, Note_on_c, 0, 67, 0
2, 2970, Note_on_c, 0, 69, 65
2, 2970, Control_c, 0, 7, 85
2, 2980, Control_c, 0, 7, 84
2, 2985, Note_on_c, 0, 69, 0
2, 2985, Note_on_c, 0, 67, 65
2, 2990, Control_c, 0, 7, 83
2, 2999, Note_on_c, 0, 69, 65
2, 3000, Note_on_c, 0, 67, 0
2, 3000, Control_c, 0, 7, 82
2, 3010, Control_c, 0, 7, 81
2, 3014, Note_on_c, 0, 69, 0
2, 3015, Note_on_c, 0, 67, 65
2, 3020, Control_c, 0, 7, 80
2, 3030, Note_on_c, 0, 67, 0
2, 3030, Note_on_c, 0, 65, 65
2, 3030, Control_c, 0, 7, 79
2, 3040, Control_c, 0, 7, 78
2, 3050, Control_c, 0, 7, 77
2, 3060, Note_on_c, 0, 65, 0
2, 3060, Note_on_c, 0, 65, 110
2, 3060, Control_c, 0, 7, 78
2, 3110, Control_c, 0, 7, 79
2, 3120, Note_on_c, 0, 65, 0
2, 3120, Note_on_c, 0, 72, 110
2, 3150, Control_c, 0, 7, 80
2, 3180, Note_on_c, 0, 72, 0
2, 3180, Note_on_c, 0, 72, 110
2, 3200, Control_c, 0, 7, 81
2, 3240, Note_on_c, 0, 72, 0
2, 3240, Control_c, 0, 7, 82
2, 3247, Note_on_c, 0, 72, 65
2, 3255, Note_on_c, 0, 70, 65
2, 3259, Note_on_c, 0, 72, 0
2, 3267, Note_on_c, 0, 70, 0
2, 3270, Note_on_c, 0, 72, 65
2, 3282, Note_on_c, 0, 72, 0
2, 3285, Note_on_c, 0, 70, 65
2, 3290, Control_c, 0, 7, 83
2, 3297, Note_on_c, 0, 70, 0
2, 3300, Note_on_c, 0, 72, 65
2, 3312, Note_on_c, 0, 72, 0
2, 3315, Note_on_c, 0, 70, 65
2, 3327, Note_on_c, 0, 70, 0
2, 3330, Note_on_c, 0, 72, 65
2, 3330, Control_c, 0, 7, 84
2, 3342, Note_on_c, 0, 72, 0
2, 3345, Note_on_c, 0, 70, 65
2, 3357, Note_on_c, 0, 70, 0
2, 3360, Note_on_c, 0, 72, 65
2, 3372, Note_on_c, 0, 72, 0
2, 3375, Note_on_c, 0, 70, 65
2, 3380, Control_c, 0, 7, 85
2, 3387, Note_on_c, 0, 70, 0
2, 3390, Note_on_c, 0, 72, 65
2, 3402, Note_on_c, 0, 72, 0
2, 3405, Note_on_c, 0, 70, 65
2, 3417, Note_on_c, 0, 70, 0
2, 3420, Note_on_c, 0, 72, 65
2, 3420, Control_c, 0, 7, 86
2, 3432, Note_on_c, 0, 72, 0
2, 3435, Note_on_c, 0, 70, 65
2, 3447, Note_on_c, 0, 70, 0
2, 3450, Note_on_c, 0, 72, 65
2, 3460, Control_c, 0, 7, 87
2, 3462, Note_on_c, 0, 72, 0
2, 3465, Note_on_c, 0, 70, 65
2, 3477, Note_on_c, 0, 70, 0
2, 3480, Note_on_c, 0, 72, 65
2, 3492, Note_on_c, 0, 72, 0
2, 3495, Note_on_c, 0, 70, 65
2, 3507, Note_on_c, 0, 70, 0
2, 3510, Note_on_c, 0, 72, 65
2, 3510, Control_c, 0, 7, 88
2, 3522, Note_on_c, 0, 72, 0
2, 3525, Note_on_c, 0, 70, 65
2, 3537, Note_on_c, 0, 70, 0
2, 3540, Note_on_c, 0, 72, 65
2, 3550, Control_c, 0, 7, 89
2, 3552, Note_on_c, 0, 72, 0
2, 3555, Note_on_c, 0, 70, 65
2, 3567, Note_on_c, 0, 70, 0
2, 3570, Note_on_c, 0, 72, 65
2, 3582, Note_on_c, 0, 72, 0
2, 3585, Note_on_c, 0, 70, 65
2, 3597, Note_on_c, 0, 70, 0
2, 3600, Note_on_c, 0, 72, 65
2, 3600, Control_c, 0, 7, 90
2, 3612, Note_on_c, 0, 72, 0
2, 3615, Note_on_c, 0, 70, 65
2, 3627, Note_on_c, 0, 70, 0
2, 3630, Note_on_c, 0, 72, 65
2, 3640, Control_c, 0, 7, 91
2, 3642, Note_on_c, 0, 72, 0
2, 3645, Note_on_c, 0, 70, 65
2, 3657, Note_on_c, 0, 70, 0
2, 3660, Note_on_c, 0, 72, 65
2, 3672, Note_on_c, 0, 72, 0
2, 3675, Note_on_c, 0, 70, 65
2, 3687, Note_on_c, 0, 70, 0
2, 3690, Note_on_c, 0, 72, 65
2, 3690, Control_c, 0, 7, 92
2, 3702, Note_on_c, 0, 72, 0
2, 3705, Note_on_c, 0, 70, 65
2, 3717, Note_on_c, 0, 70, 0
2, 3720, Note_on_c, 0, 72, 65
2, 3730, Control_c, 0, 7, 93
2, 3732, Note_on_c, 0, 72, 0
2, 3734, Note_on_c, 0, 70, 65
2, 3746, Note_on_c, 0, 70, 0
2, 3749, Note_on_c, 0, 72, 65
2, 3761, Note_on_c, 0, 72, 0
2, 3765, Note_on_c, 0, 71, 65
2, 3770, Control_c, 0, 7, 94
2, 3777, Note_on_c, 0, 71, 0
2, 3780, Note_on_c, 0, 72, 65
2, 3810, Note_on_c, 0, 72, 0
2, 3810, Note_on_c, 0, 70, 65
2, 3820, Control_c, 0, 7, 95
2, 3840, Note_on_c, 0, 70, 0
2, 3840, Note_on_c, 0, 69, 65
2, 3860, Control_c, 0, 7, 96
2, 3870, Note_on_c, 0, 69, 0
2, 3870, Note_on_c, 0, 67, 65
2, 3900, Note_on_c, 0, 67, 0
2, 3900, Note_on_c, 0, 65, 65
2, 3910, Control_c, 0, 7, 97
2, 3930, Note_on_c, 0, 65, 0
2, 3930, Note_on_c, 0, 64, 65
2, 3950, Control_c, 0, 7, 98
2, 3960, Note_on_c, 0, 64, 0
2, 3960, Note_on_c, 0, 72, 65
2, 3990, Note_on_c, 0, 72, 0
2, 3990, Note_on_c, 0, 62, 65
2, 4000, Control_c, 0, 7, 99
2, 4020, Note_on_c, 0, 62, 0
2, 4020, Note_on_c, 0, 64, 65
2, 4040, Control_c, 0, 7, 100
2, 4050, Note_on_c, 0, 64, 0
2, 4050, Note_on_c, 0, 66, 65
2, 4080, Note_on_c, 0, 66, 0
2, 4080, Note_on_c, 0, 67, 65
2, 4080, Control_c, 0, 7, 101
2, 4110, Note_on_c, 0, 67, 0
2, 4110, Note_on_c, 0, 69, 65
2, 4130, Control_c, 0, 7, 102
2, 4140, Note_on_c, 0, 69, 0
2, 4140, Note_on_c, 0, 70, 65
2, 4170, Note_on_c, 0, 70, 0
2, 4170, Note_on_c, 0, 69, 65
2, 4170, Control_c, 0, 7, 103
2, 4200, Note_on_c, 0, 69, 0
2, 4200, Note_on_c, 0, 67, 65
2, 4220, Control_c, 0, 7, 104
2, 4230, Note_on_c, 0, 67, 0
2, 4230, Note_on_c, 0, 65, 65
2, 4260, Note_on_c, 0, 65, 0
2, 4260, Note_on_c, 0, 64, 65
2, 4260, Control_c, 0, 7, 105
2, 4290, Note_on_c, 0, 64, 0
2, 4290, Note_on_c, 0, 62, 65
2, 4310, Control_c, 0, 7, 106
2, 4320, Note_on_c, 0, 62, 0
2, 4320, Note_on_c, 0, 70, 65
2, 4350, Note_on_c, 0, 70, 0
2, 4350, Note_on_c, 0, 60, 65
2, 4350, Control_c, 0, 7, 107
2, 4380, Note_on_c, 0, 60, 0
2, 4380, Note_on_c, 0, 62, 65
2, 4390, Control_c, 0, 7, 108
2, 4410, Note_on_c, 0, 62, 0
2, 4410, Note_on_c, 0, 64, 65
2, 4440, Note_on_c, 0, 64, 0
2, 4440, Note_on_c, 0, 65, 65
2, 4440, Control_c, 0, 7, 109
2, 4470, Note_on_c, 0, 65, 0
2, 4470, Note_on_c, 0, 67, 65
2, 4480, Control_c, 0, 7, 110
2, 4500, Note_on_c, 0, 67, 0
2, 4500, Note_on_c, 0, 69, 65
2, 4530, Note_on_c, 0, 69, 0
2, 4530, Note_on_c, 0, 71, 65
2, 4530, Control_c, 0, 7, 111
2, 4560, Note_on_c, 0, 71, 0
2, 4560, Note_on_c, 0, 72, 65
2, 4570, Control_c, 0, 7, 112
2, 4590, Note_on_c, 0, 72, 0
2, 4590, Note_on_c, 0, 74, 65
2, 4620, Note_on_c, 0, 74, 0
2, 4620, Note_on_c, 0, 76, 65
2, 4620, Control_c, 0, 7, 113
2, 4650, Note_on_c, 0, 76, 0
2, 4650, Note_on_c, 0, 77, 65
2, 4660, Control_c, 0, 7, 114
2, 4670, Control_c, 0, 7, 115
2, 4680, Note_on_c, 0, 77, 0
2, 4680, Note_on_c, 0, 68, 65
2, 4690, Control_c, 0, 7, 114
2, 4700, Control_c, 0, 7, 113
2, 4710, Note_on_c, 0, 68, 0
2, 4710, Note_on_c, 0, 77, 65
2, 4710, Control_c, 0, 7, 112
2, 4720, Control_c, 0, 7, 111
2, 4730, Control_c, 0, 7, 110
2, 4740, Note_on_c, 0, 77, 0
2, 4740, Note_on_c, 0, 76, 65
2, 4740, Control_c, 0, 7, 109
2, 4750, Control_c, 0, 7, 108
2, 4760, Control_c, 0, 7, 107
2, 4770, Note_on_c, 0, 76, 0
2, 4770, Note_on_c, 0, 74, 65
2, 4770, Control_c, 0, 7, 106
2, 4780, Control_c, 0, 7, 105
2, 4790, Control_c, 0, 7, 104
2, 4800, Note_on_c, 0, 74, 0
2, 4800, Note_on_c, 0, 72, 65
2, 4800, Control_c, 0, 7, 103
2, 4810, Control_c, 0, 7, 102
2, 4820, Control_c, 0, 7, 101
2, 4830, Note_on_c, 0, 72, 0
2, 4830, Note_on_c, 0, 71, 65
2, 4830, Control_c, 0, 7, 100
2, 4840, Control_c, 0, 7, 99
2, 4850, Control_c, 0, 7, 98
2, 4860, Note_on_c, 0, 71, 0
2, 4860, Note_on_c, 0, 72, 65
2, 4860, Control_c, 0, 7, 97
2, 4880, Control_c, 0, 7, 96
2, 4890, Note_on_c, 0, 72, 0
2, 4890, Note_on_c, 0, 71, 65
2, 4890, Control_c, 0, 7, 95
2, 4900, Control_c, 0, 7, 94
2, 4910, Control_c, 0, 7, 93
2, 4920, Note_on_c, 0, 71, 0
2, 4920, Note_on_c, 0, 74, 65
2, 4920, Control_c, 0, 7, 92
2, 4930, Control_c, 0, 7, 91
2, 4940, Control_c, 0, 7, 90
2, 4950, Note_on_c, 0, 74, 0
2, 4950, Note_on_c, 0, 72, 65
2, 4950, Control_c, 0, 7, 89
2, 4960, Control_c, 0, 7, 88
2, 4970, Control_c, 0, 7, 87
2, 4980, Note_on_c, 0, 72, 0
2, 4980, Note_on_c, 0, 71, 65
2, 4980, Control_c, 0, 7, 86
2, 4990, Control_c, 0, 7, 85
2, 5000, Control_c, 0, 7, 84
2, 5010, Note_on_c, 0, 71, 0
2, 5010, Note_on_c, 0, 69, 65
2, 5010, Control_c, 0, 7, 83
2, 5020, Control_c, 0, 7, 82
2, 5030, Control_c, 0, 7, 81
2, 5040, Note_on_c, 0, 69, 0
2, 5040, Note_on_c, 0, 68, 65
2, 5040, Control_c, 0, 7, 80
2, 5050, Control_c, 0, 7, 82
2, 5070, Note_on_c, 0, 68, 0
2, 5070, Note_on_c, 0, 69, 65
2, 5090, Control_c, 0, 7, 83
2, 5100, Note_on_c, 0, 69, 0
2, 5100, Note_on_c, 0, 68, 65
2, 5130, Note_on_c, 0, 68, 0
2, 5130, Note_on_c, 0, 66, 65
2, 5130, Control_c, 0, 7, 84
2, 5160, Note_on_c, 0, 66, 0
2, 5160, Note_on_c, 0, 64, 65
2, 5170, Control_c, 0, 7, 85
2, 5190, Note_on_c, 0, 64, 0
2, 5190, Note_on_c, 0, 62, 65
2, 5210, Control_c, 0, 7, 86
2, 5220, Note_on_c, 0, 62, 0
2, 5220, Note_on_c, 0, 60, 65
2, 5250, Note_on_c, 0, 60, 0
2, 5250, Note_on_c, 0, 62, 65
2, 5250, Control_c, 0, 7, 87
2, 5280, Note_on_c, 0, 62, 0
2, 5280, Note_on_c, 0, 64, 65
2, 5290, Control_c, 0, 7, 88
2, 5310, Note_on_c, 0, 64, 0
2, 5310, Note_on_c, 0, 66, 65
2, 5330, Control_c, 0, 7, 89
2, 5340, Note_on_c, 0, 66, 0
2, 5340, Note_on_c, 0, 68, 65
2, 5370, Note_on_c, 0, 68, 0
2, 5370, Note_on_c, 0, 69, 65
2, 5370, Control_c, 0, 7, 90
2, 5400, Note_on_c, 0, 69, 0
2, 5400, Note_on_c, 0, 62, 65
2, 5410, Control_c, 0, 7, 91
2, 5430, Note_on_c, 0, 62, 0
2, 5430, Note_on_c, 0, 72, 65
2, 5450, Control_c, 0, 7, 92
2, 5460, Note_on_c, 0, 72, 0
2, 5460, Note_on_c, 0, 71, 65
2, 5490, Note_on_c, 0, 71, 0
2, 5490, Note_on_c, 0, 69, 65
2, 5490, Control_c, 0, 7, 93
2, 5520, Note_on_c, 0, 69, 0
2, 5520, Note_on_c, 0, 68, 65
2, 5530, Control_c, 0, 7, 94
2, 5550, Note_on_c, 0, 68, 0
2, 5550, Note_on_c, 0, 66, 65
2, 5570, Control_c, 0, 7, 95
2, 5580, Note_on_c, 0, 66, 0
2, 5580, Note_on_c, 0, 64, 65
2, 5610, Note_on_c, 0, 64, 0
2, 5610, Note_on_c, 0, 66, 65
2, 5610, Control_c, 0, 7, 96
2, 5640, Note_on_c, 0, 66, 0
2, 5640, Note_on_c, 0, 68, 65
2, 5650, Control_c, 0, 7, 97
2, 5670, Note_on_c, 0, 68, 0
2, 5670, Note_on_c, 0, 69, 65
2, 5680, Control_c, 0, 7, 98
2, 5700, Note_on_c, 0, 69, 0
2, 5700, Note_on_c, 0, 71, 65
2, 5720, Control_c, 0, 7, 99
2, 5730, Note_on_c, 0, 71, 0
2, 5730, Note_on_c, 0, 72, 65
2, 5760, Note_on_c, 0, 72, 0
2, 5760, Note_on_c, 0, 66, 65
2, 5760, Control_c, 0, 7, 100
2, 5790, Note_on_c, 0, 66, 0
2, 5790, Note_on_c, 0, 76, 65
2, 5800, Control_c, 0, 7, 101
2, 5820, Note_on_c, 0, 76, 0
2, 5820, Note_on_c, 0, 74, 65
2, 5840, Control_c, 0, 7, 102
2, 5850, Note_on_c, 0, 74, 0
2, 5850, Note_on_c, 0, 72, 65
2, 5880, Note_on_c, 0, 72, 0
2, 5880, Note_on_c, 0, 71, 65
2, 5880, Control_c, 0, 7, 103
2, 5910, Note_on_c, 0, 71, 0
2, 5910, Note_on_c, 0, 69, 65
2, 5920, Control_c, 0, 7, 104
2, 5940, Note_on_c, 0, 69, 0
2, 5940, Note_on_c, 0, 68, 65
2, 5960, Control_c, 0, 7, 105
2, 5970, Note_on_c, 0, 68, 0
2, 5970, Note_on_c, 0, 69, 65
2, 6000, Note_on_c, 0, 69, 0
2, 6000, Note_on_c, 0, 71, 65
2, 6000, Control_c, 0, 7, 106
2, 6030, Note_on_c, 0, 71, 0
2, 6030, Note_on_c, 0, 72, 65
2, 6040, Control_c, 0, 7, 107
2, 6060, Note_on_c, 0, 72, 0
2, 6060, Note_on_c, 0, 74, 65
2, 6080, Control_c, 0, 7, 108
2, 6090, Note_on_c, 0, 74, 0
2, 6090, Note_on_c, 0, 76, 65
2, 6120, Note_on_c, 0, 76, 0
2, 6120, Note_on_c, 0, 69, 65
2, 6120, Control_c, 0, 7, 109
2, 6150, Note_on_c, 0, 69, 0
2, 6150, Note_on_c, 0, 77, 65
2, 6160, Control_c, 0, 7, 110
2, 6180, Note_on_c, 0, 77, 0
2, 6180, Note_on_c, 0, 76, 65
2, 6200, Control_c, 0, 7, 111
2, 6210, Note_on_c, 0, 76, 0
2, 6210, Note_on_c, 0, 74, 65
2, 6240, Note_on_c, 0, 74, 0
2, 6240, Note_on_c, 0, 72, 65
2, 6240, Control_c, 0, 7, 112
2, 6270, Note_on_c, 0, 72, 0
2, 6270, Note_on_c, 0, 71, 65
2, 6280, Control_c, 0, 7, 112
2, 6290, Control_c, 0, 7, 111
2, 6300, Note_on_c, 0, 71, 0
2, 6300, Note_on_c, 0, 81, 65
2, 6300, Control_c, 0, 7, 109
2, 6310, Control_c, 0, 7, 107
2, 6320, Control_c, 0, 7, 105
2, 6330, Note_on_c, 0, 81, 0
2, 6330, Note_on_c, 0, 80, 65
2, 6330, Control_c, 0, 7, 104
2, 6340, Control_c, 0, 7, 102
2, 6350, Control_c, 0, 7, 100
2, 6360, Note_on_c, 0, 80, 0
2, 6360, Note_on_c, 0, 78, 65
2, 6360, Control_c, 0, 7, 98
2, 6370, Control_c, 0, 7, 97
2, 6380, Control_c, 0, 7, 95
2, 6390, Note_on_c, 0, 78, 0
2, 6390, Note_on_c, 0, 76, 65
2, 6390, Control_c, 0, 7, 93
2, 6400, Control_c, 0, 7, 91
2, 6410, Control_c, 0, 7, 90
2, 6420, Note_on_c, 0, 76, 0
2, 6420, Note_on_c, 0, 81, 65
2, 6420, Control_c, 0, 7, 88
2, 6430, Control_c, 0, 7, 86
2, 6440, Control_c, 0, 7, 84
2, 6450, Control_c, 0, 7, 83
2, 6460, Control_c, 0, 7, 81
2, 6470, Control_c, 0, 7, 77
2, 6510, Note_on_c, 0, 81, 0
2, 6510, Note_on_c, 0, 74, 65
2, 6530, Control_c, 0, 7, 78
2, 6540, Note_on_c, 0, 74, 0
2, 6540, Note_on_c, 0, 71, 65
2, 6555, Note_on_c, 0, 71, 0
2, 6555, Note_on_c, 0, 69, 65
2, 6570, Note_on_c, 0, 69, 0
2, 6570, Note_on_c, 0, 71, 65
2, 6585, Note_on_c, 0, 71, 0
2, 6585, Note_on_c, 0, 69, 65
2, 6590, Control_c, 0, 7, 79
2, 6600, Note_on_c, 0, 69, 0
2, 6600, Note_on_c, 0, 71, 65
2, 6615, Note_on_c, 0, 71, 0
2, 6615, Note_on_c, 0, 69, 65
2, 6630, Note_on_c, 0, 69, 0
2, 6630, Note_on_c, 0, 69, 65
2, 6650, Control_c, 0, 7, 80
2, 6660, Note_on_c, 0, 69, 0
2, 6663, Note_on_c, 0, 69, 110
2, 6710, Control_c, 0, 7, 81
2, 6750, Note_on_c, 0, 69, 65
2, 6753, Note_on_c, 0, 69, 0
2, 6770, Control_c, 0, 7, 82
2, 6780, Note_on_c, 0, 69, 0
2, 6780, Note_on_c, 0, 70, 65
2, 6810, Note_on_c, 0, 70, 0
2, 6810, Note_on_c, 0, 72, 65
2, 6820, Control_c, 0, 7, 83
2, 6840, Note_on_c, 0, 72, 0
2, 6840, Note_on_c, 0, 62, 65
2, 6880, Control_c, 0, 7, 84
2, 6900, Note_on_c, 0, 62, 0
2, 6900, Note_on_c, 0, 66, 65
2, 6940, Control_c, 0, 7, 85
2, 6960, Note_on_c, 0, 66, 0
2, 6960, Note_on_c, 0, 69, 65
2, 7000, Control_c, 0, 7, 86
2, 7020, Note_on_c, 0, 69, 0
2, 7020, Note_on_c, 0, 70, 65
2, 7050, Note_on_c, 0, 70, 0
2, 7050, Note_on_c, 0, 67, 65
2, 7060, Control_c, 0, 7, 87
2, 7080, Note_on_c, 0, 67, 0
2, 7080, Note_on_c, 0, 69, 65
2, 7110, Note_on_c, 0, 69, 0
2, 7110, Note_on_c, 0, 70, 65
2, 7110, Control_c, 0, 7, 88
2, 7140, Note_on_c, 0, 70, 0
2, 7140, Note_on_c, 0, 72, 65
2, 7170, Note_on_c, 0, 72, 0
2, 7170, Note_on_c, 0, 74, 65
2, 7170, Control_c, 0, 7, 89
2, 7200, Note_on_c, 0, 74, 0
2, 7200, Note_on_c, 0, 64, 65
2, 7230, Note_on_c, 0, 64, 0
2, 7230, Note_on_c, 0, 74, 65
2, 7230, Control_c, 0, 7, 90
2, 7260, Note_on_c, 0, 74, 0
2, 7260, Note_on_c, 0, 72, 65
2, 7290, Note_on_c, 0, 72, 0
2, 7290, Note_on_c, 0, 70, 65
2, 7290, Control_c, 0, 7, 91
2, 7320, Note_on_c, 0, 70, 0
2, 7320, Note_on_c, 0, 69, 65
2, 7350, Note_on_c, 0, 69, 0
2, 7350, Note_on_c, 0, 67, 65
2, 7350, Control_c, 0, 7, 92
2, 7380, Note_on_c, 0, 67, 0
2, 7380, Note_on_c, 0, 69, 65
2, 7410, Control_c, 0, 7, 93
2, 7440, Note_on_c, 0, 69, 0
2, 7440, Note_on_c, 0, 77, 65
2, 7460, Control_c, 0, 7, 94
2, 7470, Note_on_c, 0, 77, 0
2, 7470, Note_on_c, 0, 76, 65
2, 7500, Note_on_c, 0, 76, 0
2, 7500, Note_on_c, 0, 77, 65
2, 7520, Control_c, 0, 7, 95
2, 7560, Note_on_c, 0, 77, 0
2, 7560, Note_on_c, 0, 67, 65
2, 7580, Control_c, 0, 7, 96
2, 7617, Note_on_c, 0, 76, 65
2, 7620, Note_on_c, 0, 67, 0
2, 7640, Control_c, 0, 7, 97
2, 7677, Note_on_c, 0, 76, 0
2, 7700, Control_c, 0, 7, 98
2, 7740, Note_on_c, 0, 74, 65
2, 7750, Control_c, 0, 7, 99
2, 7770, Note_on_c, 0, 74, 0
2, 7770, Note_on_c, 0, 76, 65
2, 7800, Note_on_c, 0, 76, 0
2, 7800, Note_on_c, 0, 77, 65
2, 7810, Control_c, 0, 7, 100
2, 7830, Note_on_c, 0, 77, 0
2, 7830, Note_on_c, 0, 79, 65
2, 7860, Note_on_c, 0, 79, 0
2, 7860, Note_on_c, 0, 81, 65
2, 7870, Control_c, 0, 7, 101
2, 7890, Note_on_c, 0, 81, 0
2, 7890, Note_on_c, 0, 82, 65
2, 7920, Note_on_c, 0, 82, 0
2, 7920, Note_on_c, 0, 73, 65
2, 7930, Control_c, 0, 7, 102
2, 7950, Note_on_c, 0, 73, 0
2, 7950, Note_on_c, 0, 82, 65
2, 7980, Note_on_c, 0, 82, 0
2, 7980, Note_on_c, 0, 81, 65
2, 7990, Control_c, 0, 7, 103
2, 8010, Note_on_c, 0, 81, 0
2, 8010, Note_on_c, 0, 79, 65
2, 8040, Note_on_c, 0, 79, 0
2, 8040, Note_on_c, 0, 77, 65
2, 8050, Control_c, 0, 7, 104
2, 8070, Note_on_c, 0, 77, 0
2, 8070, Note_on_c, 0, 76, 65
2, 8100, Note_on_c, 0, 76, 0
2, 8100, Note_on_c, 0, 77, 65
2, 8100, Control_c, 0, 7, 105
2, 8160, Note_on_c, 0, 77, 0
2, 8160, Control_c, 0, 7, 106
2, 8161, Note_on_c, 0, 74, 65
2, 8220, Note_on_c, 0, 67, 65
2, 8220, Control_c, 0, 7, 107
2, 8221, Note_on_c, 0, 74, 0
2, 8280, Control_c, 0, 7, 108
2, 8310, Note_on_c, 0, 67, 0
2, 8310, Note_on_c, 0, 74, 65
2, 8340, Note_on_c, 0, 74, 0
2, 8340, Note_on_c, 0, 73, 65
2, 8340, Control_c, 0, 7, 109
2, 8370, Note_on_c, 0, 73, 0
2, 8370, Note_on_c, 0, 76, 65
2, 8390, Control_c, 0, 7, 110
2, 8400, Note_on_c, 0, 76, 0
2, 8400, Note_on_c, 0, 69, 65
2, 8430, Note_on_c, 0, 69, 0
2, 8430, Note_on_c, 0, 73, 65
2, 8450, Control_c, 0, 7, 111
2, 8460, Note_on_c, 0, 73, 0
2, 8460, Note_on_c, 0, 74, 65
2, 8490, Note_on_c, 0, 74, 0
2, 8490, Note_on_c, 0, 71, 65
2, 8510, Control_c, 0, 7, 112
2, 8520, Note_on_c, 0, 71, 0
2, 8520, Note_on_c, 0, 73, 65
2, 8535, Note_on_c, 0, 73, 0
2, 8535, Note_on_c, 0, 71, 65
2, 8550, Note_on_c, 0, 71, 0
2, 8550, Note_on_c, 0, 73, 65
2, 8565, Note_on_c, 0, 73, 0
2, 8565, Note_on_c, 0, 71, 65
2, 8570, Control_c, 0, 7, 113
2, 8580, Note_on_c, 0, 71, 0
2, 8580, Note_on_c, 0, 73, 65
2, 8595, Note_on_c, 0, 73, 0
2, 8595, Note_on_c, 0, 71, 65
2, 8610, Note_on_c, 0, 71, 0
2, 8610, Note_on_c, 0, 74, 65
2, 8630, Control_c, 0, 7, 114
2, 8640, Note_on_c, 0, 74, 0
2, 8640, Note_on_c, 0, 74, 65
2, 8670, Note_on_c, 0, 74, 0
2, 8670, Note_on_c, 0, 72, 65
2, 8680, Control_c, 0, 7, 115
2, 8700, Note_on_c, 0, 72, 0
2, 8700, Note_on_c, 0, 70, 65
2, 8730, Note_on_c, 0, 70, 0
2, 8730, Note_on_c, 0, 69, 65
2, 8740, Control_c, 0, 7, 113
2, 8760, Note_on_c, 0, 69, 0
2, 8760, Note_on_c, 0, 67, 65
2, 8760, Control_c, 0, 7, 112
2, 8770, Control_c, 0, 7, 111
2, 8780, Control_c, 0, 7, 110
2, 8790, Note_on_c, 0, 67, 0
2, 8790, Note_on_c, 0, 65, 65
2, 8800, Control_c, 0, 7, 109
2, 8810, Control_c, 0, 7, 108
2, 8820, Note_on_c, 0, 65, 0
2, 8820, Note_on_c, 0, 70, 66
2, 8820, Control_c, 0, 7, 107
2, 8830, Control_c, 0, 7, 106
2, 8850, Note_on_c, 0, 70, 0
2, 8850, Note_on_c, 0, 61, 65
2, 8850, Control_c, 0, 7, 105
2, 8860, Control_c, 0, 7, 104
2, 8870, Control_c, 0, 7, 103
2, 8880, Note_on_c, 0, 61, 0
2, 8880, Note_on_c, 0, 62, 65
2, 8880, Control_c, 0, 7, 102
2, 8900, Control_c, 0, 7, 101
2, 8910, Note_on_c, 0, 62, 0
2, 8910, Note_on_c, 0, 64, 65
2, 8910, Control_c, 0, 7, 100
2, 8920, Control_c, 0, 7, 99
2, 8940, Note_on_c, 0, 64, 0
2, 8940, Note_on_c, 0, 65, 65
2, 8940, Control_c, 0, 7, 98
2, 8950, Control_c, 0, 7, 97
2, 8960, Control_c, 0, 7, 96
2, 8970, Note_on_c, 0, 65, 0
2, 8970, Note_on_c, 0, 67, 65
2, 8970, Control_c, 0, 7, 95
2, 8990, Control_c, 0, 7, 94
2, 9000, Note_on_c, 0, 67, 0
2, 9000, Note_on_c, 0, 69, 65
2, 9000, Control_c, 0, 7, 93
2, 9010, Control_c, 0, 7, 92
2, 9020, Control_c, 0, 7, 91
2, 9030, Note_on_c, 0, 69, 0
2, 9030, Note_on_c, 0, 74, 65
2, 9040, Control_c, 0, 7, 90
2, 9050, Control_c, 0, 7, 89
2, 9058, Note_on_c, 0, 65, 65
2, 9060, Note_on_c, 0, 74, 0
2, 9060, Control_c, 0, 7, 88
2, 9080, Control_c, 0, 7, 87
2, 9090, Control_c, 0, 7, 86
2, 9100, Control_c, 0, 7, 85
2, 9110, Control_c, 0, 7, 84
2, 9118, Note_on_c, 0, 65, 0
2, 9120, Note_on_c, 0, 64, 65
2, 9125, Note_on_c, 0, 64, 0
2, 9127, Note_on_c, 0, 65, 65
2, 9130, Control_c, 0, 7, 83
2, 9132, Note_on_c, 0, 65, 0
2, 9135, Note_on_c, 0, 64, 65
2, 9140, Control_c, 0, 7, 82
2, 9147, Note_on_c, 0, 64, 0
2, 9150, Note_on_c, 0, 62, 65
2, 9150, Control_c, 0, 7, 81
2, 9160, Control_c, 0, 7, 80
2, 9180, Note_on_c, 0, 62, 0
2, 9180, Note_on_c, 0, 62, 110
2, 9180, Control_c, 0, 7, 79
2, 9190, Control_c, 0, 7, 78
2, 9200, Control_c, 0, 7, 77
2, 9220, Control_c, 0, 7, 76
2, 9230, Control_c, 0, 7, 75
2, 9240, Control_c, 0, 7, 74
2, 9250, Control_c, 0, 7, 73
2, 9270, Control_c, 0, 7, 72
2, 9280, Control_c, 0, 7, 71
2, 9290, Control_c, 0, 7, 70
2, 9300, Control_c, 0, 7, 69
2, 9320, Control_c, 0, 7, 68
2, 9330, Control_c, 0, 7, 67
2, 9340, Control_c, 0, 7, 66
2, 9350, Control_c, 0, 7, 65
2, 9360, Note_on_c, 0, 62, 0
2, 9360, End_track
3, 0, Start_track
3, 0, Title_t, "Track 3"
3, 0, Program_c, 2, 0
3, 0, Control_c, 2, 7, 90
3, 0, Control_c, 2, 93, 86
3, 360, Note_on_c, 2, 50, 64
3, 380, Control_c, 2, 7, 74
3, 384, Note_on_c, 2, 50, 0
3, 390, Note_on_c, 2, 52, 64
3, 390, Control_c, 2, 7, 75
3, 400, Control_c, 2, 7, 76
3, 410, Control_c, 2, 7, 77
3, 414, Note_on_c, 2, 52, 0
3, 420, Note_on_c, 2, 53, 64
3, 420, Control_c, 2, 7, 78
3, 430, Control_c, 2, 7, 79
3, 440, Control_c, 2, 7, 80
3, 444, Note_on_c, 2, 53, 0
3, 450, Note_on_c, 2, 55, 64
3, 450, Control_c, 2, 7, 82
3, 460, Control_c, 2, 7, 83
3, 470, Control_c, 2, 7, 84
3, 474, Note_on_c, 2, 55, 0
3, 480, Note_on_c, 2, 57, 64
3, 480, Control_c, 2, 7, 85
3, 490, Control_c, 2, 7, 86
3, 500, Control_c, 2, 7, 87
3, 504, Note_on_c, 2, 57, 0
3, 510, Note_on_c, 2, 58, 64
3, 510, Control_c, 2, 7, 88
3, 520, Control_c, 2, 7, 90
3, 530, Control_c, 2, 7, 91
3, 534, Note_on_c, 2, 58, 0
3, 540, Note_on_c, 2, 49, 64
3, 540, Control_c, 2, 7, 92
3, 550, Control_c, 2, 7, 93
3, 560, Control_c, 2, 7, 94
3, 564, Note_on_c, 2, 49, 0
3, 570, Note_on_c, 2, 58, 64
3, 570, Control_c, 2, 7, 95
3, 580, Control_c, 2, 7, 97
3, 590, Control_c, 2, 7, 98
3, 594, Note_on_c, 2, 58, 0
3, 600, Note_on_c, 2, 57, 64
3, 600, Control_c, 2, 7, 99
3, 610, Control_c, 2, 7, 100
3, 620, Control_c, 2, 7, 101
3, 624, Note_on_c, 2, 57, 0
3, 630, Note_on_c, 2, 55, 64
3, 630, Control_c, 2, 7, 102
3, 640, Control_c, 2, 7, 103
3, 650, Control_c, 2, 7, 105
3, 654, Note_on_c, 2, 55, 0
3, 660, Note_on_c, 2, 53, 64
3, 660, Control_c, 2, 7, 106
3, 670, Control_c, 2, 7, 107
3, 680, Control_c, 2, 7, 108
3, 684, Note_on_c, 2, 53, 0
3, 690, Note_on_c, 2, 52, 64
3, 690, Control_c, 2, 7, 109
3, 700, Control_c, 2, 7, 110
3, 710, Control_c, 2, 7, 112
3, 714, Note_on_c, 2, 52, 0
3, 720, Note_on_c, 2, 53, 64
3, 777, Note_on_c, 2, 57, 100
3, 780, Note_on_c, 2, 53, 0
3, 836, Note_on_c, 2, 62, 100
3, 837, Note_on_c, 2, 57, 0
3, 896, Note_on_c, 2, 62, 0
3, 900, Note_on_c, 2, 52, 100
3, 960, Note_on_c, 2, 52, 0
3, 960, Note_on_c, 2, 55, 100
3, 1020, Note_on_c, 2, 55, 0
3, 1020, Note_on_c, 2, 61, 100
3, 1080, Note_on_c, 2, 61, 0
3, 1080, Note_on_c, 2, 50, 100
3, 1140, Note_on_c, 2, 50, 0
3, 1140, Note_on_c, 2, 62, 64
3, 1200, Note_on_c, 2, 62, 0
3, 1200, Note_on_c, 2, 53, 64
3, 1260, Note_on_c, 2, 53, 0
3, 1260, Note_on_c, 2, 55, 64
3, 1320, Note_on_c, 2, 55, 0
3, 1320, Note_on_c, 2, 57, 64
3, 1380, Note_on_c, 2, 57, 0
3, 1380, Note_on_c, 2, 58, 64
3, 1440, Note_on_c, 2, 58, 0
3, 1440, Note_on_c, 2, 48, 64
3, 1500, Note_on_c, 2, 48, 0
3, 1500, Note_on_c, 2, 60, 64
3, 1560, Note_on_c, 2, 60, 0
3, 1560, Note_on_c, 2, 52, 64
3, 1620, Note_on_c, 2, 52, 0
3, 1620, Note_on_c, 2, 53, 64
3, 1680, Note_on_c, 2, 53, 0
3, 1680, Note_on_c, 2, 55, 64
3, 1740, Note_on_c, 2, 55, 0
3, 1740, Note_on_c, 2, 57, 64
3, 1800, Note_on_c, 2, 57, 0
3, 1800, Note_on_c, 2, 58, 64
3, 1830, Note_on_c, 2, 58, 0
3, 1830, Note_on_c, 2, 55, 64
3, 1860, Note_on_c, 2, 55, 0
3, 1860, Note_on_c, 2, 57, 64
3, 1890, Note_on_c, 2, 57, 0
3, 1890, Note_on_c, 2, 58, 64
3, 1920, Note_on_c, 2, 58, 0
3, 1920, Note_on_c, 2, 60, 64
3, 1950, Note_on_c, 2, 60, 0
3, 1950, Note_on_c, 2, 62, 64
3, 1980, Note_on_c, 2, 62, 0
3, 1980, Note_on_c, 2, 52, 64
3, 2010, Note_on_c, 2, 52, 0
3, 2010, Note_on_c, 2, 62, 64
3, 2040, Note_on_c, 2, 62, 0
3, 2040, Note_on_c, 2, 60, 64
3, 2070, Note_on_c, 2, 60, 0
3, 2070, Note_on_c, 2, 58, 64
3, 2100, Note_on_c, 2, 58, 0
3, 2100, Note_on_c, 2, 57, 64
3, 2130, Note_on_c, 2, 57, 0
3, 2130, Note_on_c, 2, 55, 64
3, 2160, Note_on_c, 2, 55, 0
3, 2160, Note_on_c, 2, 57, 64
3, 2190, Note_on_c, 2, 57, 0
3, 2190, Note_on_c, 2, 53, 64
3, 2220, Note_on_c, 2, 53, 0
3, 2220, Note_on_c, 2, 55, 64
3, 2250, Note_on_c, 2, 55, 0
3, 2250, Note_on_c, 2, 57, 64
3, 2280, Note_on_c, 2, 57, 0
3, 2280, Note_on_c, 2, 58, 64
3, 2310, Note_on_c, 2, 58, 0
3, 2310, Note_on_c, 2, 60, 64
3, 2340, Note_on_c, 2, 60, 0
3, 2340, Note_on_c, 2, 50, 64
3, 2370, Note_on_c, 2, 50, 0
3, 2370, Note_on_c, 2, 60, 64
3, 2400, Note_on_c, 2, 60, 0
3, 2400, Note_on_c, 2, 58, 64
3, 2430, Note_on_c, 2, 58, 0
3, 2430, Note_on_c, 2, 57, 64
3, 2460, Note_on_c, 2, 57, 0
3, 2460, Note_on_c, 2, 55, 64
3, 2490, Note_on_c, 2, 55, 0
3, 2490, Note_on_c, 2, 53, 64
3, 2520, Note_on_c, 2, 53, 0
3, 2520, Note_on_c, 2, 52, 64
3, 2550, Note_on_c, 2, 52, 0
3, 2550, Note_on_c, 2, 48, 64
3, 2580, Note_on_c, 2, 48, 0
3, 2580, Note_on_c, 2, 50, 64
3, 2610, Note_on_c, 2, 50, 0
3, 2610, Note_on_c, 2, 52, 64
3, 2640, Note_on_c, 2, 52, 0
3, 2640, Note_on_c, 2, 53, 64
3, 2670, Note_on_c, 2, 53, 0
3, 2670, Note_on_c, 2, 55, 64
3, 2696, Control_c, 2, 7, 110
3, 2700, Note_on_c, 2, 55, 0
3, 2700, Note_on_c, 2, 45, 64
3, 2706, Control_c, 2, 7, 109
3, 2716, Control_c, 2, 7, 108
3, 2723, Control_c, 2, 7, 107
3, 2730, Note_on_c, 2, 45, 0
3, 2730, Note_on_c, 2, 55, 64
3, 2733, Control_c, 2, 7, 106
3, 2740, Control_c, 2, 7, 105
3, 2750, Control_c, 2, 7, 104
3, 2756, Control_c, 2, 7, 103
3, 2760, Note_on_c, 2, 55, 0
3, 2760, Note_on_c, 2, 53, 64
3, 2766, Control_c, 2, 7, 102
3, 2773, Control_c, 2, 7, 101
3, 2783, Control_c, 2, 7, 100
3, 2790, Note_on_c, 2, 53, 0
3, 2790, Note_on_c, 2, 52, 64
3, 2790, Control_c, 2, 7, 99
3, 2800, Control_c, 2, 7, 98
3, 2806, Control_c, 2, 7, 97
3, 2816, Control_c, 2, 7, 96
3, 2820, Note_on_c, 2, 52, 0
3, 2820, Note_on_c, 2, 50, 64
3, 2826, Control_c, 2, 7, 95
3, 2833, Control_c, 2, 7, 94
3, 2843, Control_c, 2, 7, 93
3, 2850, Note_on_c, 2, 50, 0
3, 2850, Note_on_c, 2, 48, 64
3, 2850, Control_c, 2, 7, 92
3, 2860, Control_c, 2, 7, 91
3, 2866, Control_c, 2, 7, 90
3, 2876, Control_c, 2, 7, 89
3, 2880, Note_on_c, 2, 48, 0
3, 2880, Note_on_c, 2, 50, 64
3, 2883, Control_c, 2, 7, 88
3, 2893, Control_c, 2, 7, 87
3, 2900, Control_c, 2, 7, 86
3, 2910, Note_on_c, 2, 50, 0
3, 2910, Note_on_c, 2, 46, 64
3, 2910, Control_c, 2, 7, 85
3, 2916, Control_c, 2, 7, 84
3, 2926, Control_c, 2, 7, 83
3, 2933, Control_c, 2, 7, 82
3, 2940, Note_on_c, 2, 46, 0
3, 2940, Note_on_c, 2, 48, 64
3, 2943, Control_c, 2, 7, 81
3, 2953, Control_c, 2, 7, 80
3, 2960, Control_c, 2, 7, 79
3, 2970, Control_c, 2, 7, 78
3, 2976, Control_c, 2, 7, 77
3, 2986, Control_c, 2, 7, 76
3, 2993, Control_c, 2, 7, 75
3, 3000, Note_on_c, 2, 48, 0
3, 3000, Note_on_c, 2, 36, 64
3, 3003, Control_c, 2, 7, 74
3, 3010, Control_c, 2, 7, 73
3, 3020, Control_c, 2, 7, 72
3, 3026, Control_c, 2, 7, 71
3, 3036, Control_c, 2, 7, 70
3, 3043, Control_c, 2, 7, 69
3, 3053, Control_c, 2, 7, 68
3, 3060, Note_on_c, 2, 36, 0
3, 3060, Note_on_c, 2, 41, 64
3, 3060, Control_c, 2, 7, 67
3, 3090, Note_on_c, 2, 41, 0
3, 3090, Note_on_c, 2, 43, 64
3, 3120, Note_on_c, 2, 43, 0
3, 3120, Note_on_c, 2, 45, 64
3, 3150, Note_on_c, 2, 45, 0
3, 3150, Note_on_c, 2, 46, 64
3, 3180, Note_on_c, 2, 46, 0
3, 3180, Note_on_c, 2, 48, 64
3, 3210, Note_on_c, 2, 48, 0
3, 3210, Note_on_c, 2, 50, 64
3, 3240, Note_on_c, 2, 50, 0
3, 3240, Note_on_c, 2, 40, 64
3, 3240, Control_c, 2, 7, 66
3, 3270, Note_on_c, 2, 40, 0
3, 3270, Note_on_c, 2, 50, 64
3, 3273, Control_c, 2, 7, 67
3, 3300, Note_on_c, 2, 50, 0
3, 3300, Note_on_c, 2, 48, 64
3, 3306, Control_c, 2, 7, 68
3, 3330, Note_on_c, 2, 48, 0
3, 3330, Note_on_c, 2, 46, 64
3, 3340, Control_c, 2, 7, 69
3, 3360, Note_on_c, 2, 46, 0
3, 3360, Note_on_c, 2, 45, 64
3, 3370, Control_c, 2, 7, 70
3, 3390, Note_on_c, 2, 45, 0
3, 3390, Note_on_c, 2, 43, 64
3, 3403, Control_c, 2, 7, 71
3, 3420, Note_on_c, 2, 43, 0
3, 3420, Note_on_c, 2, 45, 64
3, 3436, Control_c, 2, 7, 72
3, 3450, Note_on_c, 2, 45, 0
3, 3450, Note_on_c, 2, 46, 64
3, 3466, Control_c, 2, 7, 73
3, 3480, Note_on_c, 2, 46, 0
3, 3480, Note_on_c, 2, 48, 64
3, 3500, Control_c, 2, 7, 74
3, 3510, Note_on_c, 2, 48, 0
3, 3510, Note_on_c, 2, 50, 64
3, 3533, Control_c, 2, 7, 75
3, 3540, Note_on_c, 2, 50, 0
3, 3540, Note_on_c, 2, 52, 64
3, 3563, Control_c, 2, 7, 76
3, 3570, Note_on_c, 2, 52, 0
3, 3570, Note_on_c, 2, 53, 64
3, 3596, Control_c, 2, 7, 77
3, 3600, Note_on_c, 2, 53, 0
3, 3600, Note_on_c, 2, 43, 64
3, 3630, Note_on_c, 2, 43, 0
3, 3630, Note_on_c, 2, 53, 64
3, 3630, Control_c, 2, 7, 78
3, 3660, Note_on_c, 2, 53, 0
3, 3660, Note_on_c, 2, 52, 64
3, 3660, Control_c, 2, 7, 79
3, 3690, Note_on_c, 2, 52, 0
3, 3690, Note_on_c, 2, 50, 64
3, 3693, Control_c, 2, 7, 80
3, 3720, Note_on_c, 2, 50, 0
3, 3720, Note_on_c, 2, 48, 64
3, 3726, Control_c, 2, 7, 81
3, 3750, Note_on_c, 2, 48, 0
3, 3750, Note_on_c, 2, 46, 64
3, 3760, Control_c, 2, 7, 82
3, 3780, Note_on_c, 2, 46, 0
3, 3780, Note_on_c, 2, 45, 64
3, 3790, Control_c, 2, 7, 83
3, 3810, Note_on_c, 2, 45, 0
3, 3810, Note_on_c, 2, 46, 64
3, 3823, Control_c, 2, 7, 84
3, 3840, Note_on_c, 2, 46, 0
3, 3840, Note_on_c, 2, 48, 64
3, 3856, Control_c, 2, 7, 85
3, 3870, Note_on_c, 2, 48, 0
3, 3870, Note_on_c, 2, 45, 64
3, 3886, Control_c, 2, 7, 86
3, 3900, Note_on_c, 2, 45, 0
3, 3900, Note_on_c, 2, 46, 64
3, 3920, Control_c, 2, 7, 87
3, 3930, Note_on_c, 2, 46, 0
3, 3930, Note_on_c, 2, 48, 64
3, 3953, Control_c, 2, 7, 88
3, 3960, Note_on_c, 2, 48, 0
3, 3960, Note_on_c, 2, 42, 64
3, 3983, Control_c, 2, 7, 89
3, 4016, Control_c, 2, 7, 90
3, 4020, Note_on_c, 2, 42, 0
3, 4050, Control_c, 2, 7, 91
3, 4080, Control_c, 2, 7, 92
3, 4113, Control_c, 2, 7, 93
3, 4140, Note_on_c, 2, 43, 64
3, 4146, Control_c, 2, 7, 94
3, 4170, Note_on_c, 2, 43, 0
3, 4170, Note_on_c, 2, 45, 64
3, 4176, Control_c, 2, 7, 95
3, 4200, Note_on_c, 2, 45, 0
3, 4200, Note_on_c, 2, 46, 64
3, 4210, Control_c, 2, 7, 96
3, 4230, Note_on_c, 2, 46, 0
3, 4230, Note_on_c, 2, 43, 64
3, 4243, Control_c, 2, 7, 97
3, 4260, Note_on_c, 2, 43, 0
3, 4260, Note_on_c, 2, 45, 64
3, 4276, Control_c, 2, 7, 98
3, 4290, Note_on_c, 2, 45, 0
3, 4290, Note_on_c, 2, 46, 64
3, 4306, Control_c, 2, 7, 99
3, 4320, Note_on_c, 2, 46, 0
3, 4320, Note_on_c, 2, 40, 64
3, 4340, Control_c, 2, 7, 100
3, 4373, Control_c, 2, 7, 101
3, 4380, Note_on_c, 2, 40, 0
3, 4403, Control_c, 2, 7, 102
3, 4436, Control_c, 2, 7, 103
3, 4470, Control_c, 2, 7, 104
3, 4500, Note_on_c, 2, 41, 64
3, 4500, Control_c, 2, 7, 105
3, 4533, Control_c, 2, 7, 106
3, 4560, Note_on_c, 2, 41, 0
3, 4560, Note_on_c, 2, 53, 64
3, 4566, Control_c, 2, 7, 107
3, 4596, Control_c, 2, 7, 108
3, 4620, Note_on_c, 2, 53, 0
3, 4620, Note_on_c, 2, 50, 64
3, 4630, Control_c, 2, 7, 109
3, 4663, Control_c, 2, 7, 110
3, 4680, Note_on_c, 2, 50, 0
3, 4680, Note_on_c, 2, 47, 64
3, 4693, Control_c, 2, 7, 111
3, 4740, Note_on_c, 2, 47, 0
3, 4740, Note_on_c, 2, 44, 64
3, 4800, Note_on_c, 2, 44, 0
3, 4800, Note_on_c, 2, 40, 64
3, 4860, Note_on_c, 2, 40, 0
3, 4860, Note_on_c, 2, 45, 64
3, 4860, Control_c, 2, 7, 107
3, 4866, Control_c, 2, 7, 106
3, 4873, Control_c, 2, 7, 105
3, 4880, Control_c, 2, 7, 104
3, 4886, Control_c, 2, 7, 103
3, 4890, Note_on_c, 2, 45, 0
3, 4890, Note_on_c, 2, 44, 64
3, 4890, Control_c, 2, 7, 102
3, 4896, Control_c, 2, 7, 101
3, 4903, Control_c, 2, 7, 100
3, 4910, Control_c, 2, 7, 99
3, 4913, Control_c, 2, 7, 98
3, 4920, Note_on_c, 2, 44, 0
3, 4920, Note_on_c, 2, 45, 64
3, 4920, Control_c, 2, 7, 97
3, 4926, Control_c, 2, 7, 96
3, 4933, Control_c, 2, 7, 95
3, 4940, Control_c, 2, 7, 94
3, 4943, Control_c, 2, 7, 93
3, 4950, Note_on_c, 2, 45, 0
3, 4950, Note_on_c, 2, 47, 64
3, 4950, Control_c, 2, 7, 92
3, 4956, Control_c, 2, 7, 91
3, 4963, Control_c, 2, 7, 90
3, 4966, Control_c, 2, 7, 89
3, 4973, Control_c, 2, 7, 88
3, 4980, Note_on_c, 2, 47, 0
3, 4980, Note_on_c, 2, 48, 64
3, 4980, Control_c, 2, 7, 87
3, 4986, Control_c, 2, 7, 86
3, 4993, Control_c, 2, 7, 85
3, 4996, Control_c, 2, 7, 84
3, 5003, Control_c, 2, 7, 83
3, 5010, Note_on_c, 2, 48, 0
3, 5010, Note_on_c, 2, 50, 64
3, 5010, Control_c, 2, 7, 82
3, 5016, Control_c, 2, 7, 81
3, 5020, Control_c, 2, 7, 80
3, 5026, Control_c, 2, 7, 79
3, 5033, Control_c, 2, 7, 78
3, 5040, Note_on_c, 2, 50, 0
3, 5040, Note_on_c, 2, 52, 64
3, 5040, Control_c, 2, 7, 77
3, 5043, Control_c, 2, 7, 76
3, 5055, Note_on_c, 2, 52, 0
3, 5055, Note_on_c, 2, 53, 64
3, 5070, Note_on_c, 2, 53, 0
3, 5070, Note_on_c, 2, 52, 64
3, 5085, Note_on_c, 2, 52, 0
3, 5085, Note_on_c, 2, 53, 64
3, 5100, Note_on_c, 2, 53, 0
3, 5100, Note_on_c, 2, 52, 64
3, 5106, Control_c, 2, 7, 76
3, 5115, Note_on_c, 2, 52, 0
3, 5115, Note_on_c, 2, 53, 64
3, 5130, Note_on_c, 2, 53, 0
3, 5130, Note_on_c, 2, 52, 64
3, 5140, Control_c, 2, 7, 77
3, 5145, Note_on_c, 2, 52, 0
3, 5145, Note_on_c, 2, 53, 64
3, 5160, Note_on_c, 2, 53, 0
3, 5160, Note_on_c, 2, 52, 64
3, 5173, Control_c, 2, 7, 78
3, 5175, Note_on_c, 2, 52, 0
3, 5175, Note_on_c, 2, 53, 64
3, 5190, Note_on_c, 2, 53, 0
3, 5190, Note_on_c, 2, 52, 64
3, 5205, Note_on_c, 2, 52, 0
3, 5205, Note_on_c, 2, 53, 64
3, 5206, Control_c, 2, 7, 79
3, 5220, Note_on_c, 2, 53, 0
3, 5220, Note_on_c, 2, 52, 64
3, 5235, Note_on_c, 2, 52, 0
3, 5235, Note_on_c, 2, 53, 64
3, 5240, Control_c, 2, 7, 80
3, 5250, Note_on_c, 2, 53, 0
3, 5250, Note_on_c, 2, 52, 64
3, 5265, Note_on_c, 2, 52, 0
3, 5265, Note_on_c, 2, 53, 64
3, 5273, Control_c, 2, 7, 81
3, 5280, Note_on_c, 2, 53, 0
3, 5280, Note_on_c, 2, 52, 64
3, 5295, Note_on_c, 2, 52, 0
3, 5295, Note_on_c, 2, 53, 64
3, 5306, Control_c, 2, 7, 82
3, 5310, Note_on_c, 2, 53, 0
3, 5310, Note_on_c, 2, 52, 64
3, 5325, Note_on_c, 2, 52, 0
3, 5325, Note_on_c, 2, 53, 64
3, 5340, Note_on_c, 2, 53, 0
3, 5340, Note_on_c, 2, 52, 64
3, 5340, Control_c, 2, 7, 83
3, 5355, Note_on_c, 2, 52, 0
3, 5355, Note_on_c, 2, 53, 64
3, 5370, Note_on_c, 2, 53, 0
3, 5370, Note_on_c, 2, 52, 64
3, 5373, Control_c, 2, 7, 84
3, 5385, Note_on_c, 2, 52, 0
3, 5385, Note_on_c, 2, 53, 64
3, 5400, Note_on_c, 2, 53, 0
3, 5400, Note_on_c, 2, 52, 64
3, 5406, Control_c, 2, 7, 85
3, 5415, Note_on_c, 2, 52, 0
3, 5415, Note_on_c, 2, 53, 64
3, 5430, Note_on_c, 2, 53, 0
3, 5430, Note_on_c, 2, 52, 64
3, 5440, Control_c, 2, 7, 86
3, 5445, Note_on_c, 2, 52, 0
3, 5445, Note_on_c, 2, 53, 64
3, 5460, Note_on_c, 2, 53, 0
3, 5460, Note_on_c, 2, 52, 64
3, 5473, Control_c, 2, 7, 87
3, 5475, Note_on_c, 2, 52, 0
3, 5475, Note_on_c, 2, 53, 64
3, 5490, Note_on_c, 2, 53, 0
3, 5490, Note_on_c, 2, 52, 64
3, 5505, Note_on_c, 2, 52, 0
3, 5505, Note_on_c, 2, 53, 64
3, 5506, Control_c, 2, 7, 88
3, 5520, Note_on_c, 2, 53, 0
3, 5520, Note_on_c, 2, 52, 64
3, 5535, Note_on_c, 2, 52, 0
3, 5535, Note_on_c, 2, 53, 64
3, 5540, Control_c, 2, 7, 89
3, 5550, Note_on_c, 2, 53, 0
3, 5550, Note_on_c, 2, 52, 64
3, 5565, Note_on_c, 2, 52, 0
3, 5565, Note_on_c, 2, 53, 64
3, 5573, Control_c, 2, 7, 90
3, 5580, Note_on_c, 2, 53, 0
3, 5580, Note_on_c, 2, 52, 64
3, 5595, Note_on_c, 2, 52, 0
3, 5595, Note_on_c, 2, 53, 64
3, 5606, Control_c, 2, 7, 91
3, 5610, Note_on_c, 2, 53, 0
3, 5610, Note_on_c, 2, 52, 64
3, 5625, Note_on_c, 2, 52, 0
3, 5625, Note_on_c, 2, 53, 64
3, 5640, Note_on_c, 2, 53, 0
3, 5640, Note_on_c, 2, 52, 64
3, 5640, Control_c, 2, 7, 92
3, 5655, Note_on_c, 2, 52, 0
3, 5655, Note_on_c, 2, 53, 64
3, 5670, Note_on_c, 2, 53, 0
3, 5670, Note_on_c, 2, 52, 64
3, 5673, Control_c, 2, 7, 93
3, 5685, Note_on_c, 2, 52, 0
3, 5685, Note_on_c, 2, 53, 64
3, 5700, Note_on_c, 2, 53, 0
3, 5700, Note_on_c, 2, 52, 64
3, 5706, Control_c, 2, 7, 94
3, 5715, Note_on_c, 2, 52, 0
3, 5715, Note_on_c, 2, 53, 64
3, 5730, Note_on_c, 2, 53, 0
3, 5730, Note_on_c, 2, 52, 64
3, 5740, Control_c, 2, 7, 95
3, 5745, Note_on_c, 2, 52, 0
3, 5745, Note_on_c, 2, 53, 64
3, 5760, Note_on_c, 2, 53, 0
3, 5760, Note_on_c, 2, 52, 64
3, 5773, Control_c, 2, 7, 96
3, 5775, Note_on_c, 2, 52, 0
3, 5775, Note_on_c, 2, 53, 64
3, 5790, Note_on_c, 2, 53, 0
3, 5790, Note_on_c, 2, 52, 64
3, 5805, Note_on_c, 2, 52, 0
3, 5805, Note_on_c, 2, 53, 64
3, 5806, Control_c, 2, 7, 97
3, 5820, Note_on_c, 2, 53, 0
3, 5820, Note_on_c, 2, 52, 64
3, 5835, Note_on_c, 2, 52, 0
3, 5835, Note_on_c, 2, 53, 64
3, 5840, Control_c, 2, 7, 98
3, 5850, Note_on_c, 2, 53, 0
3, 5850, Note_on_c, 2, 52, 64
3, 5865, Note_on_c, 2, 52, 0
3, 5865, Note_on_c, 2, 53, 64
3, 5873, Control_c, 2, 7, 99
3, 5880, Note_on_c, 2, 53, 0
3, 5880, Note_on_c, 2, 52, 64
3, 5895, Note_on_c, 2, 52, 0
3, 5895, Note_on_c, 2, 53, 64
3, 5906, Control_c, 2, 7, 100
3, 5910, Note_on_c, 2, 53, 0
3, 5910, Note_on_c, 2, 52, 64
3, 5925, Note_on_c, 2, 52, 0
3, 5925, Note_on_c, 2, 51, 64
3, 5940, Note_on_c, 2, 51, 0
3, 5940, Note_on_c, 2, 52, 64
3, 5940, Control_c, 2, 7, 101
3, 5973, Control_c, 2, 7, 102
3, 6000, Note_on_c, 2, 52, 0
3, 6000, Note_on_c, 2, 52, 64
3, 6006, Control_c, 2, 7, 103
3, 6040, Control_c, 2, 7, 104
3, 6060, Note_on_c, 2, 52, 0
3, 6060, Note_on_c, 2, 50, 64
3, 6073, Control_c, 2, 7, 105
3, 6106, Control_c, 2, 7, 106
3, 6120, Note_on_c, 2, 50, 0
3, 6120, Note_on_c, 2, 48, 64
3, 6140, Control_c, 2, 7, 107
3, 6173, Control_c, 2, 7, 108
3, 6180, Note_on_c, 2, 48, 0
3, 6180, Note_on_c, 2, 47, 64
3, 6206, Control_c, 2, 7, 109
3, 6240, Note_on_c, 2, 47, 0
3, 6240, Note_on_c, 2, 45, 64
3, 6240, Control_c, 2, 7, 110
3, 6273, Control_c, 2, 7, 111
3, 6300, Note_on_c, 2, 45, 0
3, 6300, Note_on_c, 2, 50, 64
3, 6303, Control_c, 2, 7, 112
3, 6313, Control_c, 2, 7, 110
3, 6360, Note_on_c, 2, 50, 0
3, 6360, Note_on_c, 2, 52, 64
3, 6373, Control_c, 2, 7, 109
3, 6420, Note_on_c, 2, 52, 0
3, 6420, Note_on_c, 2, 53, 64
3, 6430, Control_c, 2, 7, 108
3, 6480, Note_on_c, 2, 53, 0
3, 6480, Note_on_c, 2, 50, 64
3, 6483, Control_c, 2, 7, 108
3, 6490, Control_c, 2, 7, 107
3, 6493, Control_c, 2, 7, 106
3, 6496, Control_c, 2, 7, 105
3, 6500, Control_c, 2, 7, 104
3, 6506, Control_c, 2, 7, 103
3, 6510, Control_c, 2, 7, 102
3, 6513, Control_c, 2, 7, 101
3, 6516, Control_c, 2, 7, 100
3, 6523, Control_c, 2, 7, 99
3, 6526, Control_c, 2, 7, 98
3, 6530, Control_c, 2, 7, 97
3, 6533, Control_c, 2, 7, 96
3, 6540, Note_on_c, 2, 50, 0
3, 6540, Note_on_c, 2, 52, 64
3, 6540, Control_c, 2, 7, 95
3, 6543, Control_c, 2, 7, 94
3, 6546, Control_c, 2, 7, 93
3, 6550, Control_c, 2, 7, 92
3, 6556, Control_c, 2, 7, 91
3, 6560, Control_c, 2, 7, 90
3, 6563, Control_c, 2, 7, 89
3, 6566, Control_c, 2, 7, 88
3, 6573, Control_c, 2, 7, 87
3, 6576, Control_c, 2, 7, 86
3, 6580, Control_c, 2, 7, 85
3, 6583, Control_c, 2, 7, 84
3, 6590, Control_c, 2, 7, 83
3, 6593, Control_c, 2, 7, 82
3, 6596, Control_c, 2, 7, 81
3, 6600, Note_on_c, 2, 52, 0
3, 6600, Note_on_c, 2, 40, 64
3, 6600, Control_c, 2, 7, 80
3, 6606, Control_c, 2, 7, 79
3, 6610, Control_c, 2, 7, 78
3, 6613, Control_c, 2, 7, 77
3, 6616, Control_c, 2, 7, 76
3, 6623, Control_c, 2, 7, 75
3, 6626, Control_c, 2, 7, 74
3, 6630, Control_c, 2, 7, 73
3, 6633, Control_c, 2, 7, 72
3, 6640, Control_c, 2, 7, 71
3, 6643, Control_c, 2, 7, 70
3, 6646, Control_c, 2, 7, 69
3, 6650, Control_c, 2, 7, 68
3, 6660, Note_on_c, 2, 40, 0
3, 6660, Note_on_c, 2, 57, 64
3, 6690, Note_on_c, 2, 57, 0
3, 6690, Note_on_c, 2, 45, 64
3, 6720, Note_on_c, 2, 45, 0
3, 6720, Note_on_c, 2, 46, 64
3, 6723, Control_c, 2, 7, 70
3, 6750, Note_on_c, 2, 46, 0
3, 6750, Note_on_c, 2, 48, 64
3, 6776, Control_c, 2, 7, 71
3, 6780, Note_on_c, 2, 48, 0
3, 6780, Note_on_c, 2, 50, 64
3, 6810, Note_on_c, 2, 50, 0
3, 6810, Note_on_c, 2, 51, 64
3, 6830, Control_c, 2, 7, 72
3, 6840, Note_on_c, 2, 51, 0
3, 6840, Note_on_c, 2, 42, 64
3, 6870, Note_on_c, 2, 42, 0
3, 6870, Note_on_c, 2, 51, 64
3, 6883, Control_c, 2, 7, 73
3, 6900, Note_on_c, 2, 51, 0
3, 6900, Note_on_c, 2, 50, 64
3, 6930, Note_on_c, 2, 50, 0
3, 6930, Note_on_c, 2, 48, 64
3, 6936, Control_c, 2, 7, 74
3, 6960, Note_on_c, 2, 48, 0
3, 6960, Note_on_c, 2, 46, 64
3, 6986, Control_c, 2, 7, 75
3, 6990, Note_on_c, 2, 46, 0
3, 6990, Note_on_c, 2, 45, 64
3, 7020, Note_on_c, 2, 45, 0
3, 7020, Note_on_c, 2, 43, 64
3, 7040, Control_c, 2, 7, 76
3, 7093, Control_c, 2, 7, 77
3, 7110, Note_on_c, 2, 43, 0
3, 7110, Note_on_c, 2, 43, 64
3, 7140, Note_on_c, 2, 43, 0
3, 7140, Note_on_c, 2, 45, 64
3, 7146, Control_c, 2, 7, 78
3, 7170, Note_on_c, 2, 45, 0
3, 7170, Note_on_c, 2, 46, 64
3, 7200, Note_on_c, 2, 46, 0
3, 7200, Note_on_c, 2, 36, 64
3, 7200, Control_c, 2, 7, 79
3, 7250, Control_c, 2, 7, 80
3, 7260, Note_on_c, 2, 36, 0
3, 7260, Note_on_c, 2, 43, 64
3, 7303, Control_c, 2, 7, 81
3, 7320, Note_on_c, 2, 43, 0
3, 7320, Note_on_c, 2, 48, 64
3, 7356, Control_c, 2, 7, 82
3, 7380, Note_on_c, 2, 48, 0
3, 7380, Note_on_c, 2, 53, 64
3, 7410, Note_on_c, 2, 53, 0
3, 7410, Note_on_c, 2, 55, 64
3, 7410, Control_c, 2, 7, 83
3, 7440, Note_on_c, 2, 55, 0
3, 7440, Note_on_c, 2, 57, 64
3, 7463, Control_c, 2, 7, 84
3, 7470, Note_on_c, 2, 57, 0
3, 7470, Note_on_c, 2, 59, 64
3, 7500, Note_on_c, 2, 59, 0
3, 7500, Note_on_c, 2, 61, 64
3, 7513, Control_c, 2, 7, 85
3, 7530, Note_on_c, 2, 61, 0
3, 7530, Note_on_c, 2, 62, 64
3, 7560, Note_on_c, 2, 62, 0
3, 7560, Note_on_c, 2, 52, 64
3, 7566, Control_c, 2, 7, 86
3, 7590, Note_on_c, 2, 52, 0
3, 7590, Note_on_c, 2, 62, 64
3, 7620, Note_on_c, 2, 62, 0
3, 7620, Note_on_c, 2, 61, 64
3, 7620, Control_c, 2, 7, 87
3, 7650, Note_on_c, 2, 61, 0
3, 7650, Note_on_c, 2, 59, 64
3, 7673, Control_c, 2, 7, 88
3, 7680, Note_on_c, 2, 59, 0
3, 7680, Note_on_c, 2, 57, 64
3, 7710, Note_on_c, 2, 57, 0
3, 7710, Note_on_c, 2, 55, 64
3, 7726, Control_c, 2, 7, 89
3, 7740, Note_on_c, 2, 55, 0
3, 7740, Note_on_c, 2, 53, 64
3, 7776, Control_c, 2, 7, 90
3, 7800, Note_on_c, 2, 53, 0
3, 7800, Note_on_c, 2, 57, 90
3, 7830, Control_c, 2, 7, 91
3, 7860, Note_on_c, 2, 57, 0
3, 7860, Note_on_c, 2, 62, 90
3, 7883, Control_c, 2, 7, 92
3, 7920, Note_on_c, 2, 62, 0
3, 7920, Note_on_c, 2, 52, 90
3, 7936, Control_c, 2, 7, 93
3, 7980, Note_on_c, 2, 52, 0
3, 7980, Note_on_c, 2, 55, 90
3, 7990, Control_c, 2, 7, 94
3, 8040, Note_on_c, 2, 55, 0
3, 8040, Note_on_c, 2, 61, 90
3, 8040, Control_c, 2, 7, 95
3, 8093, Control_c, 2, 7, 96
3, 8100, Note_on_c, 2, 61, 0
3, 8100, Note_on_c, 2, 50, 64
3, 8130, Note_on_c, 2, 50, 0
3, 8130, Note_on_c, 2, 52, 64
3, 8146, Control_c, 2, 7, 97
3, 8160, Note_on_c, 2, 52, 0
3, 8160, Note_on_c, 2, 53, 64
3, 8190, Note_on_c, 2, 53, 0
3, 8190, Note_on_c, 2, 55, 64
3, 8200, Control_c, 2, 7, 98
3, 8220, Note_on_c, 2, 55, 0
3, 8220, Note_on_c, 2, 57, 64
3, 8250, Note_on_c, 2, 57, 0
3, 8250, Note_on_c, 2, 58, 64
3, 8253, Control_c, 2, 7, 99
3, 8280, Note_on_c, 2, 58, 0
3, 8280, Note_on_c, 2, 49, 64
3, 8303, Control_c, 2, 7, 100
3, 8310, Note_on_c, 2, 49, 0
3, 8310, Note_on_c, 2, 58, 64
3, 8340, Note_on_c, 2, 58, 0
3, 8340, Note_on_c, 2, 57, 64
3, 8356, Control_c, 2, 7, 101
3, 8370, Note_on_c, 2, 57, 0
3, 8370, Note_on_c, 2, 55, 64
3, 8400, Note_on_c, 2, 55, 0
3, 8400, Note_on_c, 2, 53, 64
3, 8410, Control_c, 2, 7, 102
3, 8430, Note_on_c, 2, 53, 0
3, 8430, Note_on_c, 2, 52, 64
3, 8460, Note_on_c, 2, 52, 0
3, 8460, Note_on_c, 2, 53, 64
3, 8463, Control_c, 2, 7, 103
3, 8490, Note_on_c, 2, 53, 0
3, 8490, Note_on_c, 2, 55, 64
3, 8516, Control_c, 2, 7, 104
3, 8518, Note_on_c, 2, 57, 64
3, 8520, Note_on_c, 2, 55, 0
3, 8566, Control_c, 2, 7, 105
3, 8577, Note_on_c, 2, 45, 64
3, 8578, Note_on_c, 2, 57, 0
3, 8620, Control_c, 2, 7, 106
3, 8637, Note_on_c, 2, 45, 0
3, 8640, Note_on_c, 2, 46, 64
3, 8673, Control_c, 2, 7, 107
3, 8726, Control_c, 2, 7, 108
3, 8730, Note_on_c, 2, 46, 0
3, 8730, Note_on_c, 2, 48, 64
3, 8760, Note_on_c, 2, 48, 0
3, 8760, Note_on_c, 2, 46, 64
3, 8780, Control_c, 2, 7, 109
3, 8790, Note_on_c, 2, 46, 0
3, 8790, Note_on_c, 2, 45, 64
3, 8820, Note_on_c, 2, 45, 0
3, 8820, Note_on_c, 2, 43, 64
3, 8830, Control_c, 2, 7, 110
3, 8850, Note_on_c, 2, 43, 0
3, 8850, Note_on_c, 2, 58, 64
3, 8880, Note_on_c, 2, 58, 0
3, 8880, Note_on_c, 2, 57, 64
3, 8910, Note_on_c, 2, 57, 0
3, 8910, Note_on_c, 2, 55, 64
3, 8940, Note_on_c, 2, 55, 0
3, 8940, Note_on_c, 2, 53, 64
3, 8970, Note_on_c, 2, 53, 0
3, 8970, Note_on_c, 2, 52, 64
3, 9000, Note_on_c, 2, 52, 0
3, 9000, Note_on_c, 2, 53, 64
3, 9000, Control_c, 2, 7, 107
3, 9010, Control_c, 2, 7, 106
3, 9020, Control_c, 2, 7, 105
3, 9026, Control_c, 2, 7, 104
3, 9030, Note_on_c, 2, 53, 0
3, 9030, Note_on_c, 2, 55, 64
3, 9036, Control_c, 2, 7, 103
3, 9043, Control_c, 2, 7, 102
3, 9053, Control_c, 2, 7, 101
3, 9060, Note_on_c, 2, 55, 0
3, 9060, Note_on_c, 2, 57, 64
3, 9060, Control_c, 2, 7, 100
3, 9070, Control_c, 2, 7, 99
3, 9076, Control_c, 2, 7, 98
3, 9086, Control_c, 2, 7, 97
3, 9093, Control_c, 2, 7, 96
3, 9103, Control_c, 2, 7, 95
3, 9110, Control_c, 2, 7, 94
3, 9120, Note_on_c, 2, 57, 0
3, 9120, Note_on_c, 2, 45, 64
3, 9120, Control_c, 2, 7, 93
3, 9126, Control_c, 2, 7, 92
3, 9136, Control_c, 2, 7, 91
3, 9143, Control_c, 2, 7, 90
3, 9153, Control_c, 2, 7, 89
3, 9160, Control_c, 2, 7, 88
3, 9170, Control_c, 2, 7, 87
3, 9176, Control_c, 2, 7, 86
3, 9180, Note_on_c, 2, 45, 0
3, 9180, Note_on_c, 2, 38, 64
3, 9186, Control_c, 2, 7, 85
3, 9193, Control_c, 2, 7, 84
3, 9203, Control_c, 2, 7, 83
3, 9210, Control_c, 2, 7, 82
3, 9220, Control_c, 2, 7, 81
3, 9226, Control_c, 2, 7, 80
3, 9236, Control_c, 2, 7, 79
3, 9243, Control_c, 2, 7, 78
3, 9253, Control_c, 2, 7, 77
3, 9260, Control_c, 2, 7, 76
3, 9270, Control_c, 2, 7, 75
3, 9276, Control_c, 2, 7, 74
3, 9286, Control_c, 2, 7, 73
3, 9293, Control_c, 2, 7, 72
3, 9303, Control_c, 2, 7, 71
3, 9310, Control_c, 2, 7, 70
3, 9320, Control_c, 2, 7, 69
3, 9326, Control_c, 2, 7, 68
3, 9336, Control_c, 2, 7, 67
3, 9343, Control_c, 2, 7, 66
3, 9353, Control_c, 2, 7, 65
3, 9360, Note_on_c, 2, 38, 0
3, 9360, Control_c, 2, 7, 64
3, 9360, End_track
4, 0, Start_track
4, 0, End_track
0, 0, End_of_file
