0, 0, Header, 1, 13, 240
1, 0, Start_track
1, 0, Sequencer_specific, 10, 0, 0, 91, 35, 1, 0, 5, 6, 42, 0
1, 0, Title_t, "J. S. Bach - Orchestral Suite No.2 in B Minor BWV1067"
1, 0, Instrument_name_t, "Conductor Track"
1, 0, SMPTE_offset, 96, 0, 3, 0, 0
1, 0, MIDI_port, 0
1, 0, Marker_t, "Originally Sequenced 15 Jun 1999"
1, 0, Tempo, 571428
1, 0, Key_signature, 2, "minor"
1, 0, Time_signature, 3, 2, 24, 8
1, 33120, Tempo, 571428
1, 33180, Tempo, 588235
1, 33240, Tempo, 600000
1, 33300, Tempo, 618556
1, 33360, Tempo, 638297
1, 33420, Tempo, 659340
1, 33480, Tempo, 674157
1, 33540, Tempo, 697674
1, 33600, Tempo, 722891
1, 33660, Tempo, 750000
1, 33720, Tempo, 769230
1, 33780, Tempo, 800000
1, 33840, Tempo, 833333
1, 34560, Tempo, 1250000
1, 35520, Tempo, 1250000
1, 35520, End_track
2, 0, Start_track
2, 0, Title_t, "6th Movement - Menuet"
2, 0, MIDI_port, 0
2, 0, End_track
3, 0, Start_track
3, 0, Title_t, "Sequenced by D. L. Viens 15 Jun 1999"
3, 0, MIDI_port, 0
3, 0, End_track
4, 0, Start_track
4, 0, Title_t, "dlviens@empire.net"
4, 0, MIDI_port, 0
4, 0, End_track
5, 0, Start_track
5, 0, MIDI_port, 0
5, 0, End_track
6, 0, Start_track
6, 0, Title_t, "Flauto traverso"
6, 0, MIDI_port, 0
6, 0, Program_c, 0, 73
6, 0, Control_c, 0, 10, 64
6, 0, Control_c, 0, 11, 127
6, 0, Control_c, 0, 7, 80
6, 0, Note_on_c, 0, 71, 76
6, 119, Note_on_c, 0, 71, 0
6, 120, Note_on_c, 0, 73, 76
6, 239, Note_on_c, 0, 73, 0
6, 240, Note_on_c, 0, 74, 76
6, 344, Note_on_c, 0, 74, 0
6, 360, Note_on_c, 0, 78, 76
6, 464, Note_on_c, 0, 78, 0
6, 480, Note_on_c, 0, 83, 76
6, 644, Note_on_c, 0, 83, 0
6, 680, Note_on_c, 0, 81, 76
6, 719, Note_on_c, 0, 81, 0
6, 720, Note_on_c, 0, 79, 76
6, 1664, Note_on_c, 0, 79, 0
6, 1680, Note_on_c, 0, 78, 76
6, 1904, Note_on_c, 0, 78, 0
6, 1920, Note_on_c, 0, 76, 76
6, 2144, Note_on_c, 0, 76, 0
6, 2160, Note_on_c, 0, 74, 76
6, 2189, Note_on_c, 0, 74, 0
6, 2190, Note_on_c, 0, 76, 76
6, 2219, Note_on_c, 0, 76, 0
6, 2220, Note_on_c, 0, 74, 76
6, 2249, Note_on_c, 0, 74, 0
6, 2250, Note_on_c, 0, 76, 76
6, 2279, Note_on_c, 0, 76, 0
6, 2280, Note_on_c, 0, 74, 76
6, 2309, Note_on_c, 0, 74, 0
6, 2310, Note_on_c, 0, 76, 76
6, 2339, Note_on_c, 0, 76, 0
6, 2340, Note_on_c, 0, 73, 76
6, 2369, Note_on_c, 0, 73, 0
6, 2370, Note_on_c, 0, 74, 76
6, 2399, Note_on_c, 0, 74, 0
6, 2400, Note_on_c, 0, 73, 76
6, 2504, Note_on_c, 0, 73, 0
6, 2520, Note_on_c, 0, 74, 76
6, 2624, Note_on_c, 0, 74, 0
6, 2640, Note_on_c, 0, 71, 76
6, 2864, Note_on_c, 0, 71, 0
6, 2880, Note_on_c, 0, 79, 76
6, 2999, Note_on_c, 0, 79, 0
6, 3000, Note_on_c, 0, 78, 76
6, 3119, Note_on_c, 0, 78, 0
6, 3120, Note_on_c, 0, 76, 76
6, 3224, Note_on_c, 0, 76, 0
6, 3240, Note_on_c, 0, 82, 76
6, 3344, Note_on_c, 0, 82, 0
6, 3360, Note_on_c, 0, 83, 76
6, 3464, Note_on_c, 0, 83, 0
6, 3480, Note_on_c, 0, 79, 76
6, 3584, Note_on_c, 0, 79, 0
6, 3600, Note_on_c, 0, 78, 76
6, 3719, Note_on_c, 0, 78, 0
6, 3720, Note_on_c, 0, 76, 76
6, 3839, Note_on_c, 0, 76, 0
6, 3840, Note_on_c, 0, 74, 76
6, 3944, Note_on_c, 0, 74, 0
6, 3960, Note_on_c, 0, 82, 76
6, 4064, Note_on_c, 0, 82, 0
6, 4080, Note_on_c, 0, 83, 76
6, 4184, Note_on_c, 0, 83, 0
6, 4200, Note_on_c, 0, 78, 76
6, 4304, Note_on_c, 0, 78, 0
6, 4320, Note_on_c, 0, 76, 76
6, 4424, Note_on_c, 0, 76, 0
6, 4440, Note_on_c, 0, 74, 76
6, 4544, Note_on_c, 0, 74, 0
6, 4560, Note_on_c, 0, 73, 76
6, 4664, Note_on_c, 0, 73, 0
6, 4680, Note_on_c, 0, 78, 76
6, 4784, Note_on_c, 0, 78, 0
6, 4800, Note_on_c, 0, 74, 76
6, 4904, Note_on_c, 0, 74, 0
6, 4920, Note_on_c, 0, 71, 76
6, 4987, Note_on_c, 0, 71, 0
6, 5000, Note_on_c, 0, 74, 76
6, 5039, Note_on_c, 0, 74, 0
6, 5040, Note_on_c, 0, 73, 76
6, 5744, Note_on_c, 0, 73, 0
6, 5760, Note_on_c, 0, 71, 76
6, 5879, Note_on_c, 0, 71, 0
6, 5880, Note_on_c, 0, 73, 76
6, 5999, Note_on_c, 0, 73, 0
6, 6000, Note_on_c, 0, 74, 76
6, 6104, Note_on_c, 0, 74, 0
6, 6120, Note_on_c, 0, 78, 76
6, 6224, Note_on_c, 0, 78, 0
6, 6240, Note_on_c, 0, 83, 76
6, 6404, Note_on_c, 0, 83, 0
6, 6440, Note_on_c, 0, 81, 76
6, 6479, Note_on_c, 0, 81, 0
6, 6480, Note_on_c, 0, 79, 76
6, 7424, Note_on_c, 0, 79, 0
6, 7440, Note_on_c, 0, 78, 76
6, 7664, Note_on_c, 0, 78, 0
6, 7680, Note_on_c, 0, 76, 76
6, 7904, Note_on_c, 0, 76, 0
6, 7920, Note_on_c, 0, 74, 76
6, 7949, Note_on_c, 0, 74, 0
6, 7950, Note_on_c, 0, 76, 76
6, 7979, Note_on_c, 0, 76, 0
6, 7980, Note_on_c, 0, 74, 76
6, 8009, Note_on_c, 0, 74, 0
6, 8010, Note_on_c, 0, 76, 76
6, 8039, Note_on_c, 0, 76, 0
6, 8040, Note_on_c, 0, 74, 76
6, 8069, Note_on_c, 0, 74, 0
6, 8070, Note_on_c, 0, 76, 76
6, 8099, Note_on_c, 0, 76, 0
6, 8100, Note_on_c, 0, 73, 76
6, 8129, Note_on_c, 0, 73, 0
6, 8130, Note_on_c, 0, 74, 76
6, 8159, Note_on_c, 0, 74, 0
6, 8160, Note_on_c, 0, 73, 76
6, 8264, Note_on_c, 0, 73, 0
6, 8280, Note_on_c, 0, 74, 76
6, 8384, Note_on_c, 0, 74, 0
6, 8400, Note_on_c, 0, 71, 76
6, 8624, Note_on_c, 0, 71, 0
6, 8640, Note_on_c, 0, 79, 76
6, 8759, Note_on_c, 0, 79, 0
6, 8760, Note_on_c, 0, 78, 76
6, 8879, Note_on_c, 0, 78, 0
6, 8880, Note_on_c, 0, 76, 76
6, 8984, Note_on_c, 0, 76, 0
6, 9000, Note_on_c, 0, 82, 76
6, 9104, Note_on_c, 0, 82, 0
6, 9120, Note_on_c, 0, 83, 76
6, 9224, Note_on_c, 0, 83, 0
6, 9240, Note_on_c, 0, 79, 76
6, 9344, Note_on_c, 0, 79, 0
6, 9360, Note_on_c, 0, 78, 76
6, 9479, Note_on_c, 0, 78, 0
6, 9480, Note_on_c, 0, 76, 76
6, 9599, Note_on_c, 0, 76, 0
6, 9600, Note_on_c, 0, 74, 76
6, 9704, Note_on_c, 0, 74, 0
6, 9720, Note_on_c, 0, 82, 76
6, 9824, Note_on_c, 0, 82, 0
6, 9840, Note_on_c, 0, 83, 76
6, 9944, Note_on_c, 0, 83, 0
6, 9960, Note_on_c, 0, 78, 76
6, 10064, Note_on_c, 0, 78, 0
6, 10080, Note_on_c, 0, 76, 76
6, 10184, Note_on_c, 0, 76, 0
6, 10200, Note_on_c, 0, 74, 76
6, 10304, Note_on_c, 0, 74, 0
6, 10320, Note_on_c, 0, 73, 76
6, 10424, Note_on_c, 0, 73, 0
6, 10440, Note_on_c, 0, 78, 76
6, 10544, Note_on_c, 0, 78, 0
6, 10560, Note_on_c, 0, 74, 76
6, 10664, Note_on_c, 0, 74, 0
6, 10680, Note_on_c, 0, 71, 76
6, 10747, Note_on_c, 0, 71, 0
6, 10760, Note_on_c, 0, 74, 76
6, 10799, Note_on_c, 0, 74, 0
6, 10800, Note_on_c, 0, 73, 76
6, 11504, Note_on_c, 0, 73, 0
6, 11520, Note_on_c, 0, 66, 76
6, 11639, Note_on_c, 0, 66, 0
6, 11640, Note_on_c, 0, 68, 76
6, 11759, Note_on_c, 0, 68, 0
6, 11760, Note_on_c, 0, 70, 76
6, 11864, Note_on_c, 0, 70, 0
6, 11880, Note_on_c, 0, 73, 76
6, 11969, Note_on_c, 0, 73, 0
6, 12000, Note_on_c, 0, 78, 76
6, 12179, Note_on_c, 0, 78, 0
6, 12200, Note_on_c, 0, 76, 76
6, 12239, Note_on_c, 0, 76, 0
6, 12240, Note_on_c, 0, 74, 76
6, 12944, Note_on_c, 0, 74, 0
6, 12960, Note_on_c, 0, 69, 76
6, 13079, Note_on_c, 0, 69, 0
6, 13080, Note_on_c, 0, 71, 76
6, 13199, Note_on_c, 0, 71, 0
6, 13200, Note_on_c, 0, 73, 76
6, 13304, Note_on_c, 0, 73, 0
6, 13320, Note_on_c, 0, 76, 76
6, 13409, Note_on_c, 0, 76, 0
6, 13440, Note_on_c, 0, 81, 76
6, 13619, Note_on_c, 0, 81, 0
6, 13640, Note_on_c, 0, 79, 76
6, 13679, Note_on_c, 0, 79, 0
6, 13680, Note_on_c, 0, 78, 76
6, 14384, Note_on_c, 0, 78, 0
6, 14400, Note_on_c, 0, 71, 76
6, 14519, Note_on_c, 0, 71, 0
6, 14520, Note_on_c, 0, 69, 76
6, 14639, Note_on_c, 0, 69, 0
6, 14640, Note_on_c, 0, 67, 76
6, 14744, Note_on_c, 0, 67, 0
6, 14760, Note_on_c, 0, 73, 76
6, 14864, Note_on_c, 0, 73, 0
6, 14880, Note_on_c, 0, 74, 76
6, 14984, Note_on_c, 0, 74, 0
6, 15000, Note_on_c, 0, 71, 76
6, 15104, Note_on_c, 0, 71, 0
6, 15120, Note_on_c, 0, 69, 76
6, 15239, Note_on_c, 0, 69, 0
6, 15240, Note_on_c, 0, 67, 76
6, 15359, Note_on_c, 0, 67, 0
6, 15360, Note_on_c, 0, 66, 76
6, 15464, Note_on_c, 0, 66, 0
6, 15480, Note_on_c, 0, 73, 76
6, 15584, Note_on_c, 0, 73, 0
6, 15600, Note_on_c, 0, 74, 76
6, 15704, Note_on_c, 0, 74, 0
6, 15720, Note_on_c, 0, 69, 76
6, 15824, Note_on_c, 0, 69, 0
6, 15840, Note_on_c, 0, 67, 76
6, 16019, Note_on_c, 0, 67, 0
6, 16080, Note_on_c, 0, 66, 76
6, 16259, Note_on_c, 0, 66, 0
6, 16320, Note_on_c, 0, 64, 76
6, 16349, Note_on_c, 0, 64, 0
6, 16350, Note_on_c, 0, 66, 76
6, 16379, Note_on_c, 0, 66, 0
6, 16380, Note_on_c, 0, 64, 76
6, 16409, Note_on_c, 0, 64, 0
6, 16410, Note_on_c, 0, 66, 76
6, 16439, Note_on_c, 0, 66, 0
6, 16440, Note_on_c, 0, 64, 76
6, 16469, Note_on_c, 0, 64, 0
6, 16470, Note_on_c, 0, 66, 76
6, 16499, Note_on_c, 0, 66, 0
6, 16500, Note_on_c, 0, 62, 76
6, 16529, Note_on_c, 0, 62, 0
6, 16530, Note_on_c, 0, 64, 76
6, 16559, Note_on_c, 0, 64, 0
6, 16560, Note_on_c, 0, 62, 76
6, 17264, Note_on_c, 0, 62, 0
6, 17280, Note_on_c, 0, 78, 76
6, 17399, Note_on_c, 0, 78, 0
6, 17400, Note_on_c, 0, 76, 76
6, 17519, Note_on_c, 0, 76, 0
6, 17520, Note_on_c, 0, 75, 76
6, 17624, Note_on_c, 0, 75, 0
6, 17640, Note_on_c, 0, 71, 76
6, 17744, Note_on_c, 0, 71, 0
6, 17760, Note_on_c, 0, 81, 76
6, 17924, Note_on_c, 0, 81, 0
6, 17960, Note_on_c, 0, 81, 76
6, 17999, Note_on_c, 0, 81, 0
6, 18000, Note_on_c, 0, 79, 76
6, 18704, Note_on_c, 0, 79, 0
6, 18720, Note_on_c, 0, 73, 76
6, 18839, Note_on_c, 0, 73, 0
6, 18840, Note_on_c, 0, 74, 76
6, 18959, Note_on_c, 0, 74, 0
6, 18960, Note_on_c, 0, 76, 76
6, 19064, Note_on_c, 0, 76, 0
6, 19080, Note_on_c, 0, 81, 76
6, 19184, Note_on_c, 0, 81, 0
6, 19200, Note_on_c, 0, 79, 76
6, 19384, Note_on_c, 0, 79, 0
6, 19400, Note_on_c, 0, 79, 76
6, 19439, Note_on_c, 0, 79, 0
6, 19440, Note_on_c, 0, 78, 76
6, 20144, Note_on_c, 0, 78, 0
6, 20160, Note_on_c, 0, 70, 76
6, 20279, Note_on_c, 0, 70, 0
6, 20280, Note_on_c, 0, 71, 76
6, 20399, Note_on_c, 0, 71, 0
6, 20400, Note_on_c, 0, 73, 76
6, 20504, Note_on_c, 0, 73, 0
6, 20520, Note_on_c, 0, 76, 76
6, 20624, Note_on_c, 0, 76, 0
6, 20640, Note_on_c, 0, 74, 76
6, 20744, Note_on_c, 0, 74, 0
6, 20760, Note_on_c, 0, 71, 76
6, 20864, Note_on_c, 0, 71, 0
6, 20880, Note_on_c, 0, 67, 76
6, 20999, Note_on_c, 0, 67, 0
6, 21000, Note_on_c, 0, 66, 76
6, 21119, Note_on_c, 0, 66, 0
6, 21120, Note_on_c, 0, 64, 76
6, 21224, Note_on_c, 0, 64, 0
6, 21240, Note_on_c, 0, 74, 76
6, 21344, Note_on_c, 0, 74, 0
6, 21360, Note_on_c, 0, 73, 76
6, 21464, Note_on_c, 0, 73, 0
6, 21480, Note_on_c, 0, 82, 76
6, 21584, Note_on_c, 0, 82, 0
6, 21600, Note_on_c, 0, 83, 76
6, 21824, Note_on_c, 0, 83, 0
6, 21840, Note_on_c, 0, 78, 76
6, 21959, Note_on_c, 0, 78, 0
6, 21960, Note_on_c, 0, 76, 76
6, 22064, Note_on_c, 0, 76, 0
6, 22080, Note_on_c, 0, 74, 76
6, 22199, Note_on_c, 0, 74, 0
6, 22200, Note_on_c, 0, 73, 76
6, 22304, Note_on_c, 0, 73, 0
6, 22320, Note_on_c, 0, 71, 76
6, 23024, Note_on_c, 0, 71, 0
6, 23040, Note_on_c, 0, 66, 76
6, 23159, Note_on_c, 0, 66, 0
6, 23160, Note_on_c, 0, 68, 76
6, 23279, Note_on_c, 0, 68, 0
6, 23280, Note_on_c, 0, 70, 76
6, 23384, Note_on_c, 0, 70, 0
6, 23400, Note_on_c, 0, 73, 76
6, 23489, Note_on_c, 0, 73, 0
6, 23520, Note_on_c, 0, 78, 76
6, 23699, Note_on_c, 0, 78, 0
6, 23720, Note_on_c, 0, 76, 76
6, 23759, Note_on_c, 0, 76, 0
6, 23760, Note_on_c, 0, 74, 76
6, 24464, Note_on_c, 0, 74, 0
6, 24480, Note_on_c, 0, 69, 76
6, 24599, Note_on_c, 0, 69, 0
6, 24600, Note_on_c, 0, 71, 76
6, 24719, Note_on_c, 0, 71, 0
6, 24720, Note_on_c, 0, 73, 76
6, 24824, Note_on_c, 0, 73, 0
6, 24840, Note_on_c, 0, 76, 76
6, 24929, Note_on_c, 0, 76, 0
6, 24960, Note_on_c, 0, 81, 76
6, 25139, Note_on_c, 0, 81, 0
6, 25160, Note_on_c, 0, 79, 76
6, 25199, Note_on_c, 0, 79, 0
6, 25200, Note_on_c, 0, 78, 76
6, 25904, Note_on_c, 0, 78, 0
6, 25920, Note_on_c, 0, 71, 76
6, 26039, Note_on_c, 0, 71, 0
6, 26040, Note_on_c, 0, 69, 76
6, 26159, Note_on_c, 0, 69, 0
6, 26160, Note_on_c, 0, 67, 76
6, 26264, Note_on_c, 0, 67, 0
6, 26280, Note_on_c, 0, 73, 76
6, 26384, Note_on_c, 0, 73, 0
6, 26400, Note_on_c, 0, 74, 76
6, 26504, Note_on_c, 0, 74, 0
6, 26520, Note_on_c, 0, 71, 76
6, 26624, Note_on_c, 0, 71, 0
6, 26640, Note_on_c, 0, 69, 76
6, 26759, Note_on_c, 0, 69, 0
6, 26760, Note_on_c, 0, 67, 76
6, 26879, Note_on_c, 0, 67, 0
6, 26880, Note_on_c, 0, 66, 76
6, 26984, Note_on_c, 0, 66, 0
6, 27000, Note_on_c, 0, 73, 76
6, 27104, Note_on_c, 0, 73, 0
6, 27120, Note_on_c, 0, 74, 76
6, 27224, Note_on_c, 0, 74, 0
6, 27240, Note_on_c, 0, 69, 76
6, 27344, Note_on_c, 0, 69, 0
6, 27360, Note_on_c, 0, 67, 76
6, 27539, Note_on_c, 0, 67, 0
6, 27600, Note_on_c, 0, 66, 76
6, 27779, Note_on_c, 0, 66, 0
6, 27840, Note_on_c, 0, 64, 76
6, 27869, Note_on_c, 0, 64, 0
6, 27870, Note_on_c, 0, 66, 76
6, 27899, Note_on_c, 0, 66, 0
6, 27900, Note_on_c, 0, 64, 76
6, 27929, Note_on_c, 0, 64, 0
6, 27930, Note_on_c, 0, 66, 76
6, 27959, Note_on_c, 0, 66, 0
6, 27960, Note_on_c, 0, 64, 76
6, 27989, Note_on_c, 0, 64, 0
6, 27990, Note_on_c, 0, 66, 76
6, 28019, Note_on_c, 0, 66, 0
6, 28020, Note_on_c, 0, 62, 76
6, 28049, Note_on_c, 0, 62, 0
6, 28050, Note_on_c, 0, 64, 76
6, 28079, Note_on_c, 0, 64, 0
6, 28080, Note_on_c, 0, 62, 76
6, 28784, Note_on_c, 0, 62, 0
6, 28800, Note_on_c, 0, 78, 76
6, 28919, Note_on_c, 0, 78, 0
6, 28920, Note_on_c, 0, 76, 76
6, 29039, Note_on_c, 0, 76, 0
6, 29040, Note_on_c, 0, 75, 76
6, 29144, Note_on_c, 0, 75, 0
6, 29160, Note_on_c, 0, 71, 76
6, 29264, Note_on_c, 0, 71, 0
6, 29280, Note_on_c, 0, 81, 76
6, 29444, Note_on_c, 0, 81, 0
6, 29480, Note_on_c, 0, 81, 76
6, 29519, Note_on_c, 0, 81, 0
6, 29520, Note_on_c, 0, 79, 76
6, 30224, Note_on_c, 0, 79, 0
6, 30240, Note_on_c, 0, 73, 76
6, 30359, Note_on_c, 0, 73, 0
6, 30360, Note_on_c, 0, 74, 76
6, 30479, Note_on_c, 0, 74, 0
6, 30480, Note_on_c, 0, 76, 76
6, 30584, Note_on_c, 0, 76, 0
6, 30600, Note_on_c, 0, 81, 76
6, 30704, Note_on_c, 0, 81, 0
6, 30720, Note_on_c, 0, 79, 76
6, 30904, Note_on_c, 0, 79, 0
6, 30920, Note_on_c, 0, 79, 76
6, 30959, Note_on_c, 0, 79, 0
6, 30960, Note_on_c, 0, 78, 76
6, 31664, Note_on_c, 0, 78, 0
6, 31680, Note_on_c, 0, 70, 76
6, 31799, Note_on_c, 0, 70, 0
6, 31800, Note_on_c, 0, 71, 76
6, 31919, Note_on_c, 0, 71, 0
6, 31920, Note_on_c, 0, 73, 76
6, 32024, Note_on_c, 0, 73, 0
6, 32040, Note_on_c, 0, 76, 76
6, 32144, Note_on_c, 0, 76, 0
6, 32160, Note_on_c, 0, 74, 76
6, 32264, Note_on_c, 0, 74, 0
6, 32280, Note_on_c, 0, 71, 76
6, 32384, Note_on_c, 0, 71, 0
6, 32400, Note_on_c, 0, 67, 76
6, 32519, Note_on_c, 0, 67, 0
6, 32520, Note_on_c, 0, 66, 76
6, 32639, Note_on_c, 0, 66, 0
6, 32640, Note_on_c, 0, 64, 76
6, 32744, Note_on_c, 0, 64, 0
6, 32760, Note_on_c, 0, 74, 76
6, 32864, Note_on_c, 0, 74, 0
6, 32880, Note_on_c, 0, 73, 76
6, 32984, Note_on_c, 0, 73, 0
6, 33000, Note_on_c, 0, 82, 76
6, 33104, Note_on_c, 0, 82, 0
6, 33120, Note_on_c, 0, 83, 76
6, 33344, Note_on_c, 0, 83, 0
6, 33360, Note_on_c, 0, 78, 76
6, 33479, Note_on_c, 0, 78, 0
6, 33480, Note_on_c, 0, 76, 76
6, 33584, Note_on_c, 0, 76, 0
6, 33600, Note_on_c, 0, 74, 76
6, 33719, Note_on_c, 0, 74, 0
6, 33720, Note_on_c, 0, 73, 76
6, 33824, Note_on_c, 0, 73, 0
6, 33840, Note_on_c, 0, 71, 76
6, 34559, Note_on_c, 0, 71, 0
6, 34559, End_track
7, 0, Start_track
7, 0, Title_t, "Violin I"
7, 0, MIDI_port, 0
7, 0, Program_c, 1, 48
7, 0, Control_c, 1, 10, 48
7, 0, Control_c, 1, 11, 127
7, 0, Control_c, 1, 7, 96
7, 0, Note_on_c, 1, 71, 76
7, 119, Note_on_c, 1, 71, 0
7, 120, Note_on_c, 1, 73, 76
7, 239, Note_on_c, 1, 73, 0
7, 240, Note_on_c, 1, 74, 76
7, 344, Note_on_c, 1, 74, 0
7, 360, Note_on_c, 1, 78, 76
7, 464, Note_on_c, 1, 78, 0
7, 480, Note_on_c, 1, 83, 76
7, 664, Note_on_c, 1, 83, 0
7, 680, Note_on_c, 1, 81, 76
7, 719, Note_on_c, 1, 81, 0
7, 720, Note_on_c, 1, 79, 76
7, 1664, Note_on_c, 1, 79, 0
7, 1680, Note_on_c, 1, 78, 76
7, 1904, Note_on_c, 1, 78, 0
7, 1920, Note_on_c, 1, 76, 76
7, 2144, Note_on_c, 1, 76, 0
7, 2160, Note_on_c, 1, 74, 76
7, 2189, Note_on_c, 1, 74, 0
7, 2190, Note_on_c, 1, 76, 76
7, 2219, Note_on_c, 1, 76, 0
7, 2220, Note_on_c, 1, 74, 76
7, 2249, Note_on_c, 1, 74, 0
7, 2250, Note_on_c, 1, 76, 76
7, 2279, Note_on_c, 1, 76, 0
7, 2280, Note_on_c, 1, 74, 76
7, 2309, Note_on_c, 1, 74, 0
7, 2310, Note_on_c, 1, 76, 76
7, 2339, Note_on_c, 1, 76, 0
7, 2340, Note_on_c, 1, 73, 76
7, 2369, Note_on_c, 1, 73, 0
7, 2370, Note_on_c, 1, 74, 76
7, 2399, Note_on_c, 1, 74, 0
7, 2400, Note_on_c, 1, 73, 76
7, 2504, Note_on_c, 1, 73, 0
7, 2520, Note_on_c, 1, 74, 76
7, 2624, Note_on_c, 1, 74, 0
7, 2640, Note_on_c, 1, 71, 76
7, 2864, Note_on_c, 1, 71, 0
7, 2880, Note_on_c, 1, 79, 76
7, 2999, Note_on_c, 1, 79, 0
7, 3000, Note_on_c, 1, 78, 76
7, 3119, Note_on_c, 1, 78, 0
7, 3120, Note_on_c, 1, 76, 76
7, 3224, Note_on_c, 1, 76, 0
7, 3240, Note_on_c, 1, 82, 76
7, 3329, Note_on_c, 1, 82, 0
7, 3360, Note_on_c, 1, 83, 76
7, 3449, Note_on_c, 1, 83, 0
7, 3480, Note_on_c, 1, 79, 76
7, 3569, Note_on_c, 1, 79, 0
7, 3600, Note_on_c, 1, 78, 76
7, 3719, Note_on_c, 1, 78, 0
7, 3720, Note_on_c, 1, 76, 76
7, 3839, Note_on_c, 1, 76, 0
7, 3840, Note_on_c, 1, 74, 76
7, 3944, Note_on_c, 1, 74, 0
7, 3960, Note_on_c, 1, 82, 76
7, 4049, Note_on_c, 1, 82, 0
7, 4080, Note_on_c, 1, 83, 76
7, 4169, Note_on_c, 1, 83, 0
7, 4200, Note_on_c, 1, 78, 76
7, 4289, Note_on_c, 1, 78, 0
7, 4320, Note_on_c, 1, 76, 76
7, 4424, Note_on_c, 1, 76, 0
7, 4440, Note_on_c, 1, 74, 76
7, 4544, Note_on_c, 1, 74, 0
7, 4560, Note_on_c, 1, 73, 76
7, 4664, Note_on_c, 1, 73, 0
7, 4680, Note_on_c, 1, 78, 76
7, 4769, Note_on_c, 1, 78, 0
7, 4800, Note_on_c, 1, 74, 76
7, 4889, Note_on_c, 1, 74, 0
7, 4920, Note_on_c, 1, 71, 76
7, 4987, Note_on_c, 1, 71, 0
7, 5000, Note_on_c, 1, 74, 76
7, 5039, Note_on_c, 1, 74, 0
7, 5040, Note_on_c, 1, 73, 76
7, 5744, Note_on_c, 1, 73, 0
7, 5760, Note_on_c, 1, 71, 76
7, 5879, Note_on_c, 1, 71, 0
7, 5880, Note_on_c, 1, 73, 76
7, 5999, Note_on_c, 1, 73, 0
7, 6000, Note_on_c, 1, 74, 76
7, 6104, Note_on_c, 1, 74, 0
7, 6120, Note_on_c, 1, 78, 76
7, 6224, Note_on_c, 1, 78, 0
7, 6240, Note_on_c, 1, 83, 76
7, 6424, Note_on_c, 1, 83, 0
7, 6440, Note_on_c, 1, 81, 76
7, 6479, Note_on_c, 1, 81, 0
7, 6480, Note_on_c, 1, 79, 76
7, 7424, Note_on_c, 1, 79, 0
7, 7440, Note_on_c, 1, 78, 76
7, 7664, Note_on_c, 1, 78, 0
7, 7680, Note_on_c, 1, 76, 76
7, 7904, Note_on_c, 1, 76, 0
7, 7920, Note_on_c, 1, 74, 76
7, 7949, Note_on_c, 1, 74, 0
7, 7950, Note_on_c, 1, 76, 76
7, 7979, Note_on_c, 1, 76, 0
7, 7980, Note_on_c, 1, 74, 76
7, 8009, Note_on_c, 1, 74, 0
7, 8010, Note_on_c, 1, 76, 76
7, 8039, Note_on_c, 1, 76, 0
7, 8040, Note_on_c, 1, 74, 76
7, 8069, Note_on_c, 1, 74, 0
7, 8070, Note_on_c, 1, 76, 76
7, 8099, Note_on_c, 1, 76, 0
7, 8100, Note_on_c, 1, 73, 76
7, 8129, Note_on_c, 1, 73, 0
7, 8130, Note_on_c, 1, 74, 76
7, 8159, Note_on_c, 1, 74, 0
7, 8160, Note_on_c, 1, 73, 76
7, 8264, Note_on_c, 1, 73, 0
7, 8280, Note_on_c, 1, 74, 76
7, 8384, Note_on_c, 1, 74, 0
7, 8400, Note_on_c, 1, 71, 76
7, 8624, Note_on_c, 1, 71, 0
7, 8640, Note_on_c, 1, 79, 76
7, 8759, Note_on_c, 1, 79, 0
7, 8760, Note_on_c, 1, 78, 76
7, 8879, Note_on_c, 1, 78, 0
7, 8880, Note_on_c, 1, 76, 76
7, 8984, Note_on_c, 1, 76, 0
7, 9000, Note_on_c, 1, 82, 76
7, 9089, Note_on_c, 1, 82, 0
7, 9120, Note_on_c, 1, 83, 76
7, 9209, Note_on_c, 1, 83, 0
7, 9240, Note_on_c, 1, 79, 76
7, 9329, Note_on_c, 1, 79, 0
7, 9360, Note_on_c, 1, 78, 76
7, 9479, Note_on_c, 1, 78, 0
7, 9480, Note_on_c, 1, 76, 76
7, 9599, Note_on_c, 1, 76, 0
7, 9600, Note_on_c, 1, 74, 76
7, 9704, Note_on_c, 1, 74, 0
7, 9720, Note_on_c, 1, 82, 76
7, 9809, Note_on_c, 1, 82, 0
7, 9840, Note_on_c, 1, 83, 76
7, 9929, Note_on_c, 1, 83, 0
7, 9960, Note_on_c, 1, 78, 76
7, 10049, Note_on_c, 1, 78, 0
7, 10080, Note_on_c, 1, 76, 76
7, 10184, Note_on_c, 1, 76, 0
7, 10200, Note_on_c, 1, 74, 76
7, 10304, Note_on_c, 1, 74, 0
7, 10320, Note_on_c, 1, 73, 76
7, 10424, Note_on_c, 1, 73, 0
7, 10440, Note_on_c, 1, 78, 76
7, 10529, Note_on_c, 1, 78, 0
7, 10560, Note_on_c, 1, 74, 76
7, 10649, Note_on_c, 1, 74, 0
7, 10680, Note_on_c, 1, 71, 76
7, 10747, Note_on_c, 1, 71, 0
7, 10760, Note_on_c, 1, 74, 76
7, 10799, Note_on_c, 1, 74, 0
7, 10800, Note_on_c, 1, 73, 76
7, 11504, Note_on_c, 1, 73, 0
7, 11520, Note_on_c, 1, 66, 76
7, 11639, Note_on_c, 1, 66, 0
7, 11640, Note_on_c, 1, 68, 76
7, 11759, Note_on_c, 1, 68, 0
7, 11760, Note_on_c, 1, 70, 76
7, 11864, Note_on_c, 1, 70, 0
7, 11880, Note_on_c, 1, 73, 76
7, 11969, Note_on_c, 1, 73, 0
7, 12000, Note_on_c, 1, 78, 76
7, 12184, Note_on_c, 1, 78, 0
7, 12200, Note_on_c, 1, 76, 76
7, 12239, Note_on_c, 1, 76, 0
7, 12240, Note_on_c, 1, 74, 76
7, 12944, Note_on_c, 1, 74, 0
7, 12960, Note_on_c, 1, 69, 76
7, 13079, Note_on_c, 1, 69, 0
7, 13080, Note_on_c, 1, 71, 76
7, 13199, Note_on_c, 1, 71, 0
7, 13200, Note_on_c, 1, 73, 76
7, 13304, Note_on_c, 1, 73, 0
7, 13320, Note_on_c, 1, 76, 76
7, 13409, Note_on_c, 1, 76, 0
7, 13440, Note_on_c, 1, 81, 76
7, 13624, Note_on_c, 1, 81, 0
7, 13640, Note_on_c, 1, 79, 76
7, 13679, Note_on_c, 1, 79, 0
7, 13680, Note_on_c, 1, 78, 76
7, 14384, Note_on_c, 1, 78, 0
7, 14400, Note_on_c, 1, 71, 76
7, 14519, Note_on_c, 1, 71, 0
7, 14520, Note_on_c, 1, 69, 76
7, 14639, Note_on_c, 1, 69, 0
7, 14640, Note_on_c, 1, 67, 76
7, 14744, Note_on_c, 1, 67, 0
7, 14760, Note_on_c, 1, 73, 76
7, 14849, Note_on_c, 1, 73, 0
7, 14880, Note_on_c, 1, 74, 76
7, 14969, Note_on_c, 1, 74, 0
7, 15000, Note_on_c, 1, 71, 76
7, 15089, Note_on_c, 1, 71, 0
7, 15120, Note_on_c, 1, 69, 76
7, 15239, Note_on_c, 1, 69, 0
7, 15240, Note_on_c, 1, 67, 76
7, 15359, Note_on_c, 1, 67, 0
7, 15360, Note_on_c, 1, 66, 76
7, 15464, Note_on_c, 1, 66, 0
7, 15480, Note_on_c, 1, 73, 76
7, 15569, Note_on_c, 1, 73, 0
7, 15600, Note_on_c, 1, 74, 76
7, 15689, Note_on_c, 1, 74, 0
7, 15720, Note_on_c, 1, 69, 76
7, 15809, Note_on_c, 1, 69, 0
7, 15840, Note_on_c, 1, 67, 76
7, 16019, Note_on_c, 1, 67, 0
7, 16080, Note_on_c, 1, 66, 76
7, 16259, Note_on_c, 1, 66, 0
7, 16320, Note_on_c, 1, 64, 76
7, 16499, Note_on_c, 1, 64, 0
7, 16560, Note_on_c, 1, 62, 76
7, 17264, Note_on_c, 1, 62, 0
7, 17280, Note_on_c, 1, 78, 76
7, 17399, Note_on_c, 1, 78, 0
7, 17400, Note_on_c, 1, 76, 76
7, 17519, Note_on_c, 1, 76, 0
7, 17520, Note_on_c, 1, 75, 76
7, 17624, Note_on_c, 1, 75, 0
7, 17640, Note_on_c, 1, 71, 76
7, 17744, Note_on_c, 1, 71, 0
7, 17760, Note_on_c, 1, 81, 76
7, 17924, Note_on_c, 1, 81, 0
7, 17960, Note_on_c, 1, 81, 76
7, 17999, Note_on_c, 1, 81, 0
7, 18000, Note_on_c, 1, 79, 76
7, 18704, Note_on_c, 1, 79, 0
7, 18720, Note_on_c, 1, 73, 76
7, 18839, Note_on_c, 1, 73, 0
7, 18840, Note_on_c, 1, 74, 76
7, 18959, Note_on_c, 1, 74, 0
7, 18960, Note_on_c, 1, 76, 76
7, 19064, Note_on_c, 1, 76, 0
7, 19080, Note_on_c, 1, 81, 76
7, 19169, Note_on_c, 1, 81, 0
7, 19200, Note_on_c, 1, 79, 76
7, 19384, Note_on_c, 1, 79, 0
7, 19400, Note_on_c, 1, 79, 76
7, 19439, Note_on_c, 1, 79, 0
7, 19440, Note_on_c, 1, 78, 76
7, 20144, Note_on_c, 1, 78, 0
7, 20160, Note_on_c, 1, 70, 76
7, 20279, Note_on_c, 1, 70, 0
7, 20280, Note_on_c, 1, 71, 76
7, 20399, Note_on_c, 1, 71, 0
7, 20400, Note_on_c, 1, 73, 76
7, 20504, Note_on_c, 1, 73, 0
7, 20520, Note_on_c, 1, 76, 76
7, 20609, Note_on_c, 1, 76, 0
7, 20640, Note_on_c, 1, 74, 76
7, 20729, Note_on_c, 1, 74, 0
7, 20760, Note_on_c, 1, 71, 76
7, 20849, Note_on_c, 1, 71, 0
7, 20880, Note_on_c, 1, 67, 76
7, 20999, Note_on_c, 1, 67, 0
7, 21000, Note_on_c, 1, 66, 76
7, 21119, Note_on_c, 1, 66, 0
7, 21120, Note_on_c, 1, 64, 76
7, 21224, Note_on_c, 1, 64, 0
7, 21240, Note_on_c, 1, 74, 76
7, 21329, Note_on_c, 1, 74, 0
7, 21360, Note_on_c, 1, 73, 76
7, 21449, Note_on_c, 1, 73, 0
7, 21480, Note_on_c, 1, 82, 76
7, 21547, Note_on_c, 1, 82, 0
7, 21560, Note_on_c, 1, 82, 76
7, 21599, Note_on_c, 1, 82, 0
7, 21600, Note_on_c, 1, 83, 76
7, 21824, Note_on_c, 1, 83, 0
7, 21840, Note_on_c, 1, 78, 76
7, 21959, Note_on_c, 1, 78, 0
7, 21960, Note_on_c, 1, 76, 76
7, 22064, Note_on_c, 1, 76, 0
7, 22080, Note_on_c, 1, 74, 76
7, 22199, Note_on_c, 1, 74, 0
7, 22200, Note_on_c, 1, 73, 76
7, 22304, Note_on_c, 1, 73, 0
7, 22320, Note_on_c, 1, 71, 76
7, 23024, Note_on_c, 1, 71, 0
7, 23040, Note_on_c, 1, 66, 76
7, 23159, Note_on_c, 1, 66, 0
7, 23160, Note_on_c, 1, 68, 76
7, 23279, Note_on_c, 1, 68, 0
7, 23280, Note_on_c, 1, 70, 76
7, 23384, Note_on_c, 1, 70, 0
7, 23400, Note_on_c, 1, 73, 76
7, 23489, Note_on_c, 1, 73, 0
7, 23520, Note_on_c, 1, 78, 76
7, 23704, Note_on_c, 1, 78, 0
7, 23720, Note_on_c, 1, 76, 76
7, 23759, Note_on_c, 1, 76, 0
7, 23760, Note_on_c, 1, 74, 76
7, 24464, Note_on_c, 1, 74, 0
7, 24480, Note_on_c, 1, 69, 76
7, 24599, Note_on_c, 1, 69, 0
7, 24600, Note_on_c, 1, 71, 76
7, 24719, Note_on_c, 1, 71, 0
7, 24720, Note_on_c, 1, 73, 76
7, 24824, Note_on_c, 1, 73, 0
7, 24840, Note_on_c, 1, 76, 76
7, 24929, Note_on_c, 1, 76, 0
7, 24960, Note_on_c, 1, 81, 76
7, 25144, Note_on_c, 1, 81, 0
7, 25160, Note_on_c, 1, 79, 76
7, 25199, Note_on_c, 1, 79, 0
7, 25200, Note_on_c, 1, 78, 76
7, 25904, Note_on_c, 1, 78, 0
7, 25920, Note_on_c, 1, 71, 76
7, 26039, Note_on_c, 1, 71, 0
7, 26040, Note_on_c, 1, 69, 76
7, 26159, Note_on_c, 1, 69, 0
7, 26160, Note_on_c, 1, 67, 76
7, 26264, Note_on_c, 1, 67, 0
7, 26280, Note_on_c, 1, 73, 76
7, 26369, Note_on_c, 1, 73, 0
7, 26400, Note_on_c, 1, 74, 76
7, 26489, Note_on_c, 1, 74, 0
7, 26520, Note_on_c, 1, 71, 76
7, 26609, Note_on_c, 1, 71, 0
7, 26640, Note_on_c, 1, 69, 76
7, 26759, Note_on_c, 1, 69, 0
7, 26760, Note_on_c, 1, 67, 76
7, 26879, Note_on_c, 1, 67, 0
7, 26880, Note_on_c, 1, 66, 76
7, 26984, Note_on_c, 1, 66, 0
7, 27000, Note_on_c, 1, 73, 76
7, 27089, Note_on_c, 1, 73, 0
7, 27120, Note_on_c, 1, 74, 76
7, 27209, Note_on_c, 1, 74, 0
7, 27240, Note_on_c, 1, 69, 76
7, 27329, Note_on_c, 1, 69, 0
7, 27360, Note_on_c, 1, 67, 76
7, 27539, Note_on_c, 1, 67, 0
7, 27600, Note_on_c, 1, 66, 76
7, 27779, Note_on_c, 1, 66, 0
7, 27840, Note_on_c, 1, 64, 76
7, 28019, Note_on_c, 1, 64, 0
7, 28080, Note_on_c, 1, 62, 76
7, 28784, Note_on_c, 1, 62, 0
7, 28800, Note_on_c, 1, 78, 76
7, 28919, Note_on_c, 1, 78, 0
7, 28920, Note_on_c, 1, 76, 76
7, 29039, Note_on_c, 1, 76, 0
7, 29040, Note_on_c, 1, 75, 76
7, 29144, Note_on_c, 1, 75, 0
7, 29160, Note_on_c, 1, 71, 76
7, 29264, Note_on_c, 1, 71, 0
7, 29280, Note_on_c, 1, 81, 76
7, 29444, Note_on_c, 1, 81, 0
7, 29480, Note_on_c, 1, 81, 76
7, 29519, Note_on_c, 1, 81, 0
7, 29520, Note_on_c, 1, 79, 76
7, 30224, Note_on_c, 1, 79, 0
7, 30240, Note_on_c, 1, 73, 76
7, 30359, Note_on_c, 1, 73, 0
7, 30360, Note_on_c, 1, 74, 76
7, 30479, Note_on_c, 1, 74, 0
7, 30480, Note_on_c, 1, 76, 76
7, 30584, Note_on_c, 1, 76, 0
7, 30600, Note_on_c, 1, 81, 76
7, 30689, Note_on_c, 1, 81, 0
7, 30720, Note_on_c, 1, 79, 76
7, 30904, Note_on_c, 1, 79, 0
7, 30920, Note_on_c, 1, 79, 76
7, 30959, Note_on_c, 1, 79, 0
7, 30960, Note_on_c, 1, 78, 76
7, 31664, Note_on_c, 1, 78, 0
7, 31680, Note_on_c, 1, 70, 76
7, 31799, Note_on_c, 1, 70, 0
7, 31800, Note_on_c, 1, 71, 76
7, 31919, Note_on_c, 1, 71, 0
7, 31920, Note_on_c, 1, 73, 76
7, 32024, Note_on_c, 1, 73, 0
7, 32040, Note_on_c, 1, 76, 76
7, 32129, Note_on_c, 1, 76, 0
7, 32160, Note_on_c, 1, 74, 76
7, 32249, Note_on_c, 1, 74, 0
7, 32280, Note_on_c, 1, 71, 76
7, 32369, Note_on_c, 1, 71, 0
7, 32400, Note_on_c, 1, 67, 76
7, 32519, Note_on_c, 1, 67, 0
7, 32520, Note_on_c, 1, 66, 76
7, 32639, Note_on_c, 1, 66, 0
7, 32640, Note_on_c, 1, 64, 76
7, 32744, Note_on_c, 1, 64, 0
7, 32760, Note_on_c, 1, 74, 76
7, 32849, Note_on_c, 1, 74, 0
7, 32880, Note_on_c, 1, 73, 76
7, 32969, Note_on_c, 1, 73, 0
7, 33000, Note_on_c, 1, 82, 76
7, 33067, Note_on_c, 1, 82, 0
7, 33080, Note_on_c, 1, 82, 76
7, 33119, Note_on_c, 1, 82, 0
7, 33120, Note_on_c, 1, 83, 76
7, 33344, Note_on_c, 1, 83, 0
7, 33360, Note_on_c, 1, 78, 76
7, 33479, Note_on_c, 1, 78, 0
7, 33480, Note_on_c, 1, 76, 76
7, 33584, Note_on_c, 1, 76, 0
7, 33600, Note_on_c, 1, 74, 76
7, 33719, Note_on_c, 1, 74, 0
7, 33720, Note_on_c, 1, 73, 76
7, 33824, Note_on_c, 1, 73, 0
7, 33840, Note_on_c, 1, 71, 76
7, 34559, Note_on_c, 1, 71, 0
7, 34559, End_track
8, 0, Start_track
8, 0, Title_t, "Violin II"
8, 0, MIDI_port, 0
8, 0, Program_c, 2, 48
8, 0, Control_c, 2, 10, 32
8, 0, Control_c, 2, 11, 127
8, 0, Control_c, 2, 7, 96
8, 0, Note_on_c, 2, 66, 76
8, 224, Note_on_c, 2, 66, 0
8, 240, Note_on_c, 2, 71, 76
8, 464, Note_on_c, 2, 71, 0
8, 480, Note_on_c, 2, 71, 76
8, 704, Note_on_c, 2, 71, 0
8, 720, Note_on_c, 2, 71, 76
8, 1424, Note_on_c, 2, 71, 0
8, 1440, Note_on_c, 2, 73, 76
8, 1559, Note_on_c, 2, 73, 0
8, 1560, Note_on_c, 2, 74, 76
8, 1664, Note_on_c, 2, 74, 0
8, 1680, Note_on_c, 2, 73, 76
8, 1799, Note_on_c, 2, 73, 0
8, 1800, Note_on_c, 2, 71, 76
8, 1904, Note_on_c, 2, 71, 0
8, 1920, Note_on_c, 2, 73, 76
8, 2039, Note_on_c, 2, 73, 0
8, 2040, Note_on_c, 2, 70, 76
8, 2144, Note_on_c, 2, 70, 0
8, 2160, Note_on_c, 2, 71, 76
8, 2384, Note_on_c, 2, 71, 0
8, 2400, Note_on_c, 2, 66, 76
8, 2624, Note_on_c, 2, 66, 0
8, 2640, Note_on_c, 2, 71, 76
8, 2864, Note_on_c, 2, 71, 0
8, 2880, Note_on_c, 2, 71, 76
8, 3104, Note_on_c, 2, 71, 0
8, 3120, Note_on_c, 2, 76, 76
8, 3344, Note_on_c, 2, 76, 0
8, 3360, Note_on_c, 2, 79, 76
8, 3584, Note_on_c, 2, 79, 0
8, 3600, Note_on_c, 2, 71, 76
8, 3824, Note_on_c, 2, 71, 0
8, 3840, Note_on_c, 2, 74, 76
8, 4064, Note_on_c, 2, 74, 0
8, 4080, Note_on_c, 2, 78, 76
8, 4304, Note_on_c, 2, 78, 0
8, 4320, Note_on_c, 2, 70, 76
8, 4544, Note_on_c, 2, 70, 0
8, 4560, Note_on_c, 2, 73, 76
8, 4784, Note_on_c, 2, 73, 0
8, 4800, Note_on_c, 2, 71, 76
8, 5024, Note_on_c, 2, 71, 0
8, 5040, Note_on_c, 2, 70, 76
8, 5744, Note_on_c, 2, 70, 0
8, 5760, Note_on_c, 2, 66, 76
8, 5984, Note_on_c, 2, 66, 0
8, 6000, Note_on_c, 2, 71, 76
8, 6224, Note_on_c, 2, 71, 0
8, 6240, Note_on_c, 2, 71, 76
8, 6464, Note_on_c, 2, 71, 0
8, 6480, Note_on_c, 2, 71, 76
8, 7184, Note_on_c, 2, 71, 0
8, 7200, Note_on_c, 2, 73, 76
8, 7319, Note_on_c, 2, 73, 0
8, 7320, Note_on_c, 2, 74, 76
8, 7424, Note_on_c, 2, 74, 0
8, 7440, Note_on_c, 2, 73, 76
8, 7559, Note_on_c, 2, 73, 0
8, 7560, Note_on_c, 2, 71, 76
8, 7664, Note_on_c, 2, 71, 0
8, 7680, Note_on_c, 2, 73, 76
8, 7799, Note_on_c, 2, 73, 0
8, 7800, Note_on_c, 2, 70, 76
8, 7904, Note_on_c, 2, 70, 0
8, 7920, Note_on_c, 2, 71, 76
8, 8144, Note_on_c, 2, 71, 0
8, 8160, Note_on_c, 2, 66, 76
8, 8384, Note_on_c, 2, 66, 0
8, 8400, Note_on_c, 2, 71, 76
8, 8624, Note_on_c, 2, 71, 0
8, 8640, Note_on_c, 2, 71, 76
8, 8864, Note_on_c, 2, 71, 0
8, 8880, Note_on_c, 2, 76, 76
8, 9104, Note_on_c, 2, 76, 0
8, 9120, Note_on_c, 2, 79, 76
8, 9344, Note_on_c, 2, 79, 0
8, 9360, Note_on_c, 2, 71, 76
8, 9584, Note_on_c, 2, 71, 0
8, 9600, Note_on_c, 2, 74, 76
8, 9824, Note_on_c, 2, 74, 0
8, 9840, Note_on_c, 2, 78, 76
8, 10064, Note_on_c, 2, 78, 0
8, 10080, Note_on_c, 2, 70, 76
8, 10304, Note_on_c, 2, 70, 0
8, 10320, Note_on_c, 2, 73, 76
8, 10544, Note_on_c, 2, 73, 0
8, 10560, Note_on_c, 2, 71, 76
8, 10784, Note_on_c, 2, 71, 0
8, 10800, Note_on_c, 2, 70, 76
8, 11504, Note_on_c, 2, 70, 0
8, 11520, Note_on_c, 2, 66, 76
8, 11744, Note_on_c, 2, 66, 0
8, 11760, Note_on_c, 2, 73, 76
8, 11984, Note_on_c, 2, 73, 0
8, 12000, Note_on_c, 2, 73, 76
8, 12224, Note_on_c, 2, 73, 0
8, 12240, Note_on_c, 2, 71, 76
8, 12944, Note_on_c, 2, 71, 0
8, 12960, Note_on_c, 2, 64, 76
8, 13184, Note_on_c, 2, 64, 0
8, 13200, Note_on_c, 2, 69, 76
8, 13424, Note_on_c, 2, 69, 0
8, 13440, Note_on_c, 2, 69, 76
8, 13664, Note_on_c, 2, 69, 0
8, 13680, Note_on_c, 2, 69, 76
8, 14384, Note_on_c, 2, 69, 0
8, 14400, Note_on_c, 2, 67, 76
8, 14624, Note_on_c, 2, 67, 0
8, 14640, Note_on_c, 2, 62, 76
8, 14864, Note_on_c, 2, 62, 0
8, 14880, Note_on_c, 2, 67, 76
8, 15104, Note_on_c, 2, 67, 0
8, 15120, Note_on_c, 2, 69, 76
8, 15344, Note_on_c, 2, 69, 0
8, 15360, Note_on_c, 2, 62, 76
8, 15584, Note_on_c, 2, 62, 0
8, 15600, Note_on_c, 2, 66, 76
8, 15824, Note_on_c, 2, 66, 0
8, 15840, Note_on_c, 2, 55, 76
8, 16064, Note_on_c, 2, 55, 0
8, 16080, Note_on_c, 2, 59, 76
8, 16304, Note_on_c, 2, 59, 0
8, 16320, Note_on_c, 2, 61, 76
8, 16544, Note_on_c, 2, 61, 0
8, 16560, Note_on_c, 2, 57, 76
8, 17264, Note_on_c, 2, 57, 0
8, 17280, Note_on_c, 2, 75, 76
8, 17384, Note_on_c, 2, 75, 0
8, 17400, Note_on_c, 2, 76, 76
8, 17504, Note_on_c, 2, 76, 0
8, 17520, Note_on_c, 2, 78, 76
8, 17744, Note_on_c, 2, 78, 0
8, 17760, Note_on_c, 2, 78, 76
8, 17984, Note_on_c, 2, 78, 0
8, 18000, Note_on_c, 2, 76, 76
8, 18704, Note_on_c, 2, 76, 0
8, 18720, Note_on_c, 2, 64, 76
8, 18944, Note_on_c, 2, 64, 0
8, 18960, Note_on_c, 2, 69, 76
8, 19184, Note_on_c, 2, 69, 0
8, 19200, Note_on_c, 2, 73, 76
8, 19424, Note_on_c, 2, 73, 0
8, 19440, Note_on_c, 2, 74, 76
8, 20144, Note_on_c, 2, 74, 0
8, 20160, Note_on_c, 2, 76, 76
8, 20384, Note_on_c, 2, 76, 0
8, 20400, Note_on_c, 2, 70, 76
8, 20624, Note_on_c, 2, 70, 0
8, 20640, Note_on_c, 2, 71, 76
8, 21104, Note_on_c, 2, 71, 0
8, 21120, Note_on_c, 2, 76, 76
8, 21344, Note_on_c, 2, 76, 0
8, 21360, Note_on_c, 2, 79, 76
8, 21584, Note_on_c, 2, 79, 0
8, 21600, Note_on_c, 2, 78, 76
8, 21719, Note_on_c, 2, 78, 0
8, 21720, Note_on_c, 2, 76, 76
8, 21824, Note_on_c, 2, 76, 0
8, 21840, Note_on_c, 2, 74, 76
8, 21959, Note_on_c, 2, 74, 0
8, 21960, Note_on_c, 2, 73, 76
8, 22064, Note_on_c, 2, 73, 0
8, 22080, Note_on_c, 2, 71, 76
8, 22199, Note_on_c, 2, 71, 0
8, 22200, Note_on_c, 2, 70, 76
8, 22304, Note_on_c, 2, 70, 0
8, 22320, Note_on_c, 2, 71, 76
8, 22350, Note_on_c, 2, 66, 76
8, 23024, Note_on_c, 2, 71, 0
8, 23024, Note_on_c, 2, 66, 0
8, 23040, Note_on_c, 2, 66, 76
8, 23264, Note_on_c, 2, 66, 0
8, 23280, Note_on_c, 2, 73, 76
8, 23504, Note_on_c, 2, 73, 0
8, 23520, Note_on_c, 2, 73, 76
8, 23744, Note_on_c, 2, 73, 0
8, 23760, Note_on_c, 2, 71, 76
8, 24464, Note_on_c, 2, 71, 0
8, 24480, Note_on_c, 2, 64, 76
8, 24704, Note_on_c, 2, 64, 0
8, 24720, Note_on_c, 2, 69, 76
8, 24944, Note_on_c, 2, 69, 0
8, 24960, Note_on_c, 2, 69, 76
8, 25184, Note_on_c, 2, 69, 0
8, 25200, Note_on_c, 2, 69, 76
8, 25904, Note_on_c, 2, 69, 0
8, 25920, Note_on_c, 2, 67, 76
8, 26144, Note_on_c, 2, 67, 0
8, 26160, Note_on_c, 2, 62, 76
8, 26384, Note_on_c, 2, 62, 0
8, 26400, Note_on_c, 2, 67, 76
8, 26624, Note_on_c, 2, 67, 0
8, 26640, Note_on_c, 2, 69, 76
8, 26864, Note_on_c, 2, 69, 0
8, 26880, Note_on_c, 2, 62, 76
8, 27104, Note_on_c, 2, 62, 0
8, 27120, Note_on_c, 2, 66, 76
8, 27344, Note_on_c, 2, 66, 0
8, 27360, Note_on_c, 2, 55, 76
8, 27584, Note_on_c, 2, 55, 0
8, 27600, Note_on_c, 2, 59, 76
8, 27824, Note_on_c, 2, 59, 0
8, 27840, Note_on_c, 2, 61, 76
8, 28064, Note_on_c, 2, 61, 0
8, 28080, Note_on_c, 2, 57, 76
8, 28784, Note_on_c, 2, 57, 0
8, 28800, Note_on_c, 2, 75, 76
8, 28904, Note_on_c, 2, 75, 0
8, 28920, Note_on_c, 2, 76, 76
8, 29024, Note_on_c, 2, 76, 0
8, 29040, Note_on_c, 2, 78, 76
8, 29264, Note_on_c, 2, 78, 0
8, 29280, Note_on_c, 2, 78, 76
8, 29504, Note_on_c, 2, 78, 0
8, 29520, Note_on_c, 2, 76, 76
8, 30224, Note_on_c, 2, 76, 0
8, 30240, Note_on_c, 2, 64, 76
8, 30464, Note_on_c, 2, 64, 0
8, 30480, Note_on_c, 2, 69, 76
8, 30704, Note_on_c, 2, 69, 0
8, 30720, Note_on_c, 2, 73, 76
8, 30944, Note_on_c, 2, 73, 0
8, 30960, Note_on_c, 2, 74, 76
8, 31664, Note_on_c, 2, 74, 0
8, 31680, Note_on_c, 2, 76, 76
8, 31904, Note_on_c, 2, 76, 0
8, 31920, Note_on_c, 2, 70, 76
8, 32144, Note_on_c, 2, 70, 0
8, 32160, Note_on_c, 2, 71, 76
8, 32624, Note_on_c, 2, 71, 0
8, 32640, Note_on_c, 2, 76, 76
8, 32864, Note_on_c, 2, 76, 0
8, 32880, Note_on_c, 2, 79, 76
8, 33104, Note_on_c, 2, 79, 0
8, 33120, Note_on_c, 2, 78, 76
8, 33239, Note_on_c, 2, 78, 0
8, 33240, Note_on_c, 2, 76, 76
8, 33344, Note_on_c, 2, 76, 0
8, 33360, Note_on_c, 2, 74, 76
8, 33479, Note_on_c, 2, 74, 0
8, 33480, Note_on_c, 2, 73, 76
8, 33584, Note_on_c, 2, 73, 0
8, 33600, Note_on_c, 2, 71, 76
8, 33719, Note_on_c, 2, 71, 0
8, 33720, Note_on_c, 2, 70, 76
8, 33824, Note_on_c, 2, 70, 0
8, 33840, Note_on_c, 2, 71, 76
8, 33870, Note_on_c, 2, 66, 76
8, 34559, Note_on_c, 2, 71, 0
8, 34559, Note_on_c, 2, 66, 0
8, 34559, End_track
9, 0, Start_track
9, 0, Title_t, "Viola"
9, 0, MIDI_port, 0
9, 0, Program_c, 3, 48
9, 0, Control_c, 3, 10, 70
9, 0, Control_c, 3, 11, 127
9, 0, Control_c, 3, 7, 96
9, 0, Note_on_c, 3, 62, 76
9, 224, Note_on_c, 3, 62, 0
9, 240, Note_on_c, 3, 66, 76
9, 464, Note_on_c, 3, 66, 0
9, 480, Note_on_c, 3, 66, 76
9, 704, Note_on_c, 3, 66, 0
9, 720, Note_on_c, 3, 64, 76
9, 1664, Note_on_c, 3, 64, 0
9, 1680, Note_on_c, 3, 61, 76
9, 1904, Note_on_c, 3, 61, 0
9, 1920, Note_on_c, 3, 70, 76
9, 2144, Note_on_c, 3, 70, 0
9, 2160, Note_on_c, 3, 66, 76
9, 2504, Note_on_c, 3, 66, 0
9, 2520, Note_on_c, 3, 62, 76
9, 2624, Note_on_c, 3, 62, 0
9, 2640, Note_on_c, 3, 64, 76
9, 2744, Note_on_c, 3, 64, 0
9, 2760, Note_on_c, 3, 66, 76
9, 2864, Note_on_c, 3, 66, 0
9, 2880, Note_on_c, 3, 64, 76
9, 3104, Note_on_c, 3, 64, 0
9, 3120, Note_on_c, 3, 59, 76
9, 3344, Note_on_c, 3, 59, 0
9, 3360, Note_on_c, 3, 64, 76
9, 3584, Note_on_c, 3, 64, 0
9, 3600, Note_on_c, 3, 66, 76
9, 3824, Note_on_c, 3, 66, 0
9, 3840, Note_on_c, 3, 59, 76
9, 4064, Note_on_c, 3, 59, 0
9, 4080, Note_on_c, 3, 62, 76
9, 4304, Note_on_c, 3, 62, 0
9, 4320, Note_on_c, 3, 64, 76
9, 4544, Note_on_c, 3, 64, 0
9, 4560, Note_on_c, 3, 66, 76
9, 4784, Note_on_c, 3, 66, 0
9, 4800, Note_on_c, 3, 66, 76
9, 5024, Note_on_c, 3, 66, 0
9, 5040, Note_on_c, 3, 66, 76
9, 5744, Note_on_c, 3, 66, 0
9, 5760, Note_on_c, 3, 62, 76
9, 5984, Note_on_c, 3, 62, 0
9, 6000, Note_on_c, 3, 66, 76
9, 6224, Note_on_c, 3, 66, 0
9, 6240, Note_on_c, 3, 66, 76
9, 6464, Note_on_c, 3, 66, 0
9, 6480, Note_on_c, 3, 64, 76
9, 7424, Note_on_c, 3, 64, 0
9, 7440, Note_on_c, 3, 61, 76
9, 7664, Note_on_c, 3, 61, 0
9, 7680, Note_on_c, 3, 70, 76
9, 7904, Note_on_c, 3, 70, 0
9, 7920, Note_on_c, 3, 66, 76
9, 8264, Note_on_c, 3, 66, 0
9, 8280, Note_on_c, 3, 62, 76
9, 8384, Note_on_c, 3, 62, 0
9, 8400, Note_on_c, 3, 64, 76
9, 8504, Note_on_c, 3, 64, 0
9, 8520, Note_on_c, 3, 66, 76
9, 8624, Note_on_c, 3, 66, 0
9, 8640, Note_on_c, 3, 64, 76
9, 8864, Note_on_c, 3, 64, 0
9, 8880, Note_on_c, 3, 59, 76
9, 9104, Note_on_c, 3, 59, 0
9, 9120, Note_on_c, 3, 64, 76
9, 9344, Note_on_c, 3, 64, 0
9, 9360, Note_on_c, 3, 66, 76
9, 9584, Note_on_c, 3, 66, 0
9, 9600, Note_on_c, 3, 59, 76
9, 9824, Note_on_c, 3, 59, 0
9, 9840, Note_on_c, 3, 62, 76
9, 10064, Note_on_c, 3, 62, 0
9, 10080, Note_on_c, 3, 64, 76
9, 10304, Note_on_c, 3, 64, 0
9, 10320, Note_on_c, 3, 66, 76
9, 10544, Note_on_c, 3, 66, 0
9, 10560, Note_on_c, 3, 66, 76
9, 10784, Note_on_c, 3, 66, 0
9, 10800, Note_on_c, 3, 66, 76
9, 11504, Note_on_c, 3, 66, 0
9, 11520, Note_on_c, 3, 61, 76
9, 11744, Note_on_c, 3, 61, 0
9, 11760, Note_on_c, 3, 66, 76
9, 11984, Note_on_c, 3, 66, 0
9, 12000, Note_on_c, 3, 66, 76
9, 12224, Note_on_c, 3, 66, 0
9, 12240, Note_on_c, 3, 66, 76
9, 12944, Note_on_c, 3, 66, 0
9, 12960, Note_on_c, 3, 69, 76
9, 13184, Note_on_c, 3, 69, 0
9, 13200, Note_on_c, 3, 64, 76
9, 13424, Note_on_c, 3, 64, 0
9, 13440, Note_on_c, 3, 64, 76
9, 13664, Note_on_c, 3, 64, 0
9, 13680, Note_on_c, 3, 62, 76
9, 14384, Note_on_c, 3, 62, 0
9, 14400, Note_on_c, 3, 62, 76
9, 14624, Note_on_c, 3, 62, 0
9, 14640, Note_on_c, 3, 67, 76
9, 14864, Note_on_c, 3, 67, 0
9, 14880, Note_on_c, 3, 71, 76
9, 15104, Note_on_c, 3, 71, 0
9, 15120, Note_on_c, 3, 62, 76
9, 15344, Note_on_c, 3, 62, 0
9, 15360, Note_on_c, 3, 66, 76
9, 15584, Note_on_c, 3, 66, 0
9, 15600, Note_on_c, 3, 69, 76
9, 15824, Note_on_c, 3, 69, 0
9, 15840, Note_on_c, 3, 62, 76
9, 16064, Note_on_c, 3, 62, 0
9, 16080, Note_on_c, 3, 62, 76
9, 16304, Note_on_c, 3, 62, 0
9, 16320, Note_on_c, 3, 57, 76
9, 16544, Note_on_c, 3, 57, 0
9, 16560, Note_on_c, 3, 54, 76
9, 17264, Note_on_c, 3, 54, 0
9, 17280, Note_on_c, 3, 59, 76
9, 17504, Note_on_c, 3, 59, 0
9, 17520, Note_on_c, 3, 59, 76
9, 17744, Note_on_c, 3, 59, 0
9, 17760, Note_on_c, 3, 59, 76
9, 17984, Note_on_c, 3, 59, 0
9, 18000, Note_on_c, 3, 59, 76
9, 18704, Note_on_c, 3, 59, 0
9, 18720, Note_on_c, 3, 57, 76
9, 18944, Note_on_c, 3, 57, 0
9, 18960, Note_on_c, 3, 57, 76
9, 19184, Note_on_c, 3, 57, 0
9, 19200, Note_on_c, 3, 57, 76
9, 19424, Note_on_c, 3, 57, 0
9, 19440, Note_on_c, 3, 57, 76
9, 20144, Note_on_c, 3, 57, 0
9, 20160, Note_on_c, 3, 67, 76
9, 20384, Note_on_c, 3, 67, 0
9, 20400, Note_on_c, 3, 66, 76
9, 20624, Note_on_c, 3, 66, 0
9, 20640, Note_on_c, 3, 66, 76
9, 20864, Note_on_c, 3, 66, 0
9, 20880, Note_on_c, 3, 64, 76
9, 21104, Note_on_c, 3, 64, 0
9, 21120, Note_on_c, 3, 59, 76
9, 21344, Note_on_c, 3, 59, 0
9, 21360, Note_on_c, 3, 61, 76
9, 21584, Note_on_c, 3, 61, 0
9, 21600, Note_on_c, 3, 62, 76
9, 21704, Note_on_c, 3, 62, 0
9, 21720, Note_on_c, 3, 61, 76
9, 21824, Note_on_c, 3, 61, 0
9, 21840, Note_on_c, 3, 59, 76
9, 22064, Note_on_c, 3, 59, 0
9, 22080, Note_on_c, 3, 66, 76
9, 22304, Note_on_c, 3, 66, 0
9, 22320, Note_on_c, 3, 62, 76
9, 23024, Note_on_c, 3, 62, 0
9, 23040, Note_on_c, 3, 61, 76
9, 23264, Note_on_c, 3, 61, 0
9, 23280, Note_on_c, 3, 66, 76
9, 23504, Note_on_c, 3, 66, 0
9, 23520, Note_on_c, 3, 66, 76
9, 23744, Note_on_c, 3, 66, 0
9, 23760, Note_on_c, 3, 66, 76
9, 24464, Note_on_c, 3, 66, 0
9, 24480, Note_on_c, 3, 69, 76
9, 24704, Note_on_c, 3, 69, 0
9, 24720, Note_on_c, 3, 64, 76
9, 24944, Note_on_c, 3, 64, 0
9, 24960, Note_on_c, 3, 64, 76
9, 25184, Note_on_c, 3, 64, 0
9, 25200, Note_on_c, 3, 62, 76
9, 25904, Note_on_c, 3, 62, 0
9, 25920, Note_on_c, 3, 62, 76
9, 26144, Note_on_c, 3, 62, 0
9, 26160, Note_on_c, 3, 67, 76
9, 26384, Note_on_c, 3, 67, 0
9, 26400, Note_on_c, 3, 71, 76
9, 26624, Note_on_c, 3, 71, 0
9, 26640, Note_on_c, 3, 62, 76
9, 26864, Note_on_c, 3, 62, 0
9, 26880, Note_on_c, 3, 66, 76
9, 27104, Note_on_c, 3, 66, 0
9, 27120, Note_on_c, 3, 69, 76
9, 27344, Note_on_c, 3, 69, 0
9, 27360, Note_on_c, 3, 62, 76
9, 27584, Note_on_c, 3, 62, 0
9, 27600, Note_on_c, 3, 62, 76
9, 27824, Note_on_c, 3, 62, 0
9, 27840, Note_on_c, 3, 57, 76
9, 28064, Note_on_c, 3, 57, 0
9, 28080, Note_on_c, 3, 54, 76
9, 28784, Note_on_c, 3, 54, 0
9, 28800, Note_on_c, 3, 59, 76
9, 29024, Note_on_c, 3, 59, 0
9, 29040, Note_on_c, 3, 59, 76
9, 29264, Note_on_c, 3, 59, 0
9, 29280, Note_on_c, 3, 59, 76
9, 29504, Note_on_c, 3, 59, 0
9, 29520, Note_on_c, 3, 59, 76
9, 30224, Note_on_c, 3, 59, 0
9, 30240, Note_on_c, 3, 57, 76
9, 30464, Note_on_c, 3, 57, 0
9, 30480, Note_on_c, 3, 57, 76
9, 30704, Note_on_c, 3, 57, 0
9, 30720, Note_on_c, 3, 57, 76
9, 30944, Note_on_c, 3, 57, 0
9, 30960, Note_on_c, 3, 57, 76
9, 31664, Note_on_c, 3, 57, 0
9, 31680, Note_on_c, 3, 67, 76
9, 31904, Note_on_c, 3, 67, 0
9, 31920, Note_on_c, 3, 66, 76
9, 32144, Note_on_c, 3, 66, 0
9, 32160, Note_on_c, 3, 66, 76
9, 32384, Note_on_c, 3, 66, 0
9, 32400, Note_on_c, 3, 64, 76
9, 32624, Note_on_c, 3, 64, 0
9, 32640, Note_on_c, 3, 59, 76
9, 32864, Note_on_c, 3, 59, 0
9, 32880, Note_on_c, 3, 61, 76
9, 33104, Note_on_c, 3, 61, 0
9, 33120, Note_on_c, 3, 62, 76
9, 33224, Note_on_c, 3, 62, 0
9, 33240, Note_on_c, 3, 61, 76
9, 33344, Note_on_c, 3, 61, 0
9, 33360, Note_on_c, 3, 59, 76
9, 33584, Note_on_c, 3, 59, 0
9, 33600, Note_on_c, 3, 66, 76
9, 33824, Note_on_c, 3, 66, 0
9, 33840, Note_on_c, 3, 62, 76
9, 34559, Note_on_c, 3, 62, 0
9, 34559, End_track
10, 0, Start_track
10, 0, Title_t, "Cello"
10, 0, MIDI_port, 0
10, 0, Program_c, 4, 48
10, 0, Control_c, 4, 10, 90
10, 0, Control_c, 4, 11, 127
10, 0, Control_c, 4, 7, 96
10, 0, Note_on_c, 4, 59, 76
10, 224, Note_on_c, 4, 59, 0
10, 240, Note_on_c, 4, 47, 76
10, 464, Note_on_c, 4, 47, 0
10, 480, Note_on_c, 4, 50, 76
10, 704, Note_on_c, 4, 50, 0
10, 720, Note_on_c, 4, 52, 76
10, 839, Note_on_c, 4, 52, 0
10, 840, Note_on_c, 4, 54, 76
10, 959, Note_on_c, 4, 54, 0
10, 960, Note_on_c, 4, 55, 76
10, 1064, Note_on_c, 4, 55, 0
10, 1080, Note_on_c, 4, 59, 76
10, 1184, Note_on_c, 4, 59, 0
10, 1200, Note_on_c, 4, 64, 76
10, 1304, Note_on_c, 4, 64, 0
10, 1320, Note_on_c, 4, 61, 76
10, 1387, Note_on_c, 4, 61, 0
10, 1400, Note_on_c, 4, 59, 76
10, 1439, Note_on_c, 4, 59, 0
10, 1440, Note_on_c, 4, 58, 76
10, 1904, Note_on_c, 4, 58, 0
10, 1920, Note_on_c, 4, 54, 76
10, 2144, Note_on_c, 4, 54, 0
10, 2160, Note_on_c, 4, 59, 76
10, 2504, Note_on_c, 4, 59, 0
10, 2520, Note_on_c, 4, 47, 76
10, 2624, Note_on_c, 4, 47, 0
10, 2640, Note_on_c, 4, 49, 76
10, 2744, Note_on_c, 4, 49, 0
10, 2760, Note_on_c, 4, 50, 76
10, 2864, Note_on_c, 4, 50, 0
10, 2880, Note_on_c, 4, 52, 76
10, 3104, Note_on_c, 4, 52, 0
10, 3120, Note_on_c, 4, 55, 76
10, 3344, Note_on_c, 4, 55, 0
10, 3360, Note_on_c, 4, 49, 76
10, 3584, Note_on_c, 4, 49, 0
10, 3600, Note_on_c, 4, 50, 76
10, 3824, Note_on_c, 4, 50, 0
10, 3840, Note_on_c, 4, 54, 76
10, 4064, Note_on_c, 4, 54, 0
10, 4080, Note_on_c, 4, 47, 76
10, 4304, Note_on_c, 4, 47, 0
10, 4320, Note_on_c, 4, 49, 76
10, 4544, Note_on_c, 4, 49, 0
10, 4560, Note_on_c, 4, 46, 76
10, 4784, Note_on_c, 4, 46, 0
10, 4800, Note_on_c, 4, 47, 76
10, 5024, Note_on_c, 4, 47, 0
10, 5040, Note_on_c, 4, 42, 76
10, 5264, Note_on_c, 4, 42, 0
10, 5280, Note_on_c, 4, 54, 76
10, 5384, Note_on_c, 4, 54, 0
10, 5400, Note_on_c, 4, 56, 76
10, 5504, Note_on_c, 4, 56, 0
10, 5520, Note_on_c, 4, 58, 76
10, 5624, Note_on_c, 4, 58, 0
10, 5640, Note_on_c, 4, 54, 76
10, 5744, Note_on_c, 4, 54, 0
10, 5760, Note_on_c, 4, 59, 76
10, 5984, Note_on_c, 4, 59, 0
10, 6000, Note_on_c, 4, 47, 76
10, 6224, Note_on_c, 4, 47, 0
10, 6240, Note_on_c, 4, 50, 76
10, 6464, Note_on_c, 4, 50, 0
10, 6480, Note_on_c, 4, 52, 76
10, 6599, Note_on_c, 4, 52, 0
10, 6600, Note_on_c, 4, 54, 76
10, 6719, Note_on_c, 4, 54, 0
10, 6720, Note_on_c, 4, 55, 76
10, 6824, Note_on_c, 4, 55, 0
10, 6840, Note_on_c, 4, 59, 76
10, 6944, Note_on_c, 4, 59, 0
10, 6960, Note_on_c, 4, 64, 76
10, 7064, Note_on_c, 4, 64, 0
10, 7080, Note_on_c, 4, 61, 76
10, 7147, Note_on_c, 4, 61, 0
10, 7160, Note_on_c, 4, 59, 76
10, 7199, Note_on_c, 4, 59, 0
10, 7200, Note_on_c, 4, 58, 76
10, 7664, Note_on_c, 4, 58, 0
10, 7680, Note_on_c, 4, 54, 76
10, 7904, Note_on_c, 4, 54, 0
10, 7920, Note_on_c, 4, 59, 76
10, 8264, Note_on_c, 4, 59, 0
10, 8280, Note_on_c, 4, 47, 76
10, 8384, Note_on_c, 4, 47, 0
10, 8400, Note_on_c, 4, 49, 76
10, 8504, Note_on_c, 4, 49, 0
10, 8520, Note_on_c, 4, 50, 76
10, 8624, Note_on_c, 4, 50, 0
10, 8640, Note_on_c, 4, 52, 76
10, 8864, Note_on_c, 4, 52, 0
10, 8880, Note_on_c, 4, 55, 76
10, 9104, Note_on_c, 4, 55, 0
10, 9120, Note_on_c, 4, 49, 76
10, 9344, Note_on_c, 4, 49, 0
10, 9360, Note_on_c, 4, 50, 76
10, 9584, Note_on_c, 4, 50, 0
10, 9600, Note_on_c, 4, 54, 76
10, 9824, Note_on_c, 4, 54, 0
10, 9840, Note_on_c, 4, 47, 76
10, 10064, Note_on_c, 4, 47, 0
10, 10080, Note_on_c, 4, 49, 76
10, 10304, Note_on_c, 4, 49, 0
10, 10320, Note_on_c, 4, 46, 76
10, 10544, Note_on_c, 4, 46, 0
10, 10560, Note_on_c, 4, 47, 76
10, 10784, Note_on_c, 4, 47, 0
10, 10800, Note_on_c, 4, 42, 76
10, 11024, Note_on_c, 4, 42, 0
10, 11040, Note_on_c, 4, 54, 76
10, 11144, Note_on_c, 4, 54, 0
10, 11160, Note_on_c, 4, 56, 76
10, 11264, Note_on_c, 4, 56, 0
10, 11280, Note_on_c, 4, 58, 76
10, 11384, Note_on_c, 4, 58, 0
10, 11400, Note_on_c, 4, 54, 76
10, 11504, Note_on_c, 4, 54, 0
10, 11520, Note_on_c, 4, 46, 76
10, 11744, Note_on_c, 4, 46, 0
10, 11760, Note_on_c, 4, 42, 76
10, 11984, Note_on_c, 4, 42, 0
10, 12000, Note_on_c, 4, 46, 76
10, 12224, Note_on_c, 4, 46, 0
10, 12240, Note_on_c, 4, 47, 76
10, 12359, Note_on_c, 4, 47, 0
10, 12360, Note_on_c, 4, 49, 76
10, 12479, Note_on_c, 4, 49, 0
10, 12480, Note_on_c, 4, 50, 76
10, 12584, Note_on_c, 4, 50, 0
10, 12600, Note_on_c, 4, 54, 76
10, 12704, Note_on_c, 4, 54, 0
10, 12720, Note_on_c, 4, 59, 76
10, 12824, Note_on_c, 4, 59, 0
10, 12840, Note_on_c, 4, 47, 76
10, 12944, Note_on_c, 4, 47, 0
10, 12960, Note_on_c, 4, 49, 76
10, 13184, Note_on_c, 4, 49, 0
10, 13200, Note_on_c, 4, 45, 76
10, 13424, Note_on_c, 4, 45, 0
10, 13440, Note_on_c, 4, 49, 76
10, 13664, Note_on_c, 4, 49, 0
10, 13680, Note_on_c, 4, 50, 76
10, 13799, Note_on_c, 4, 50, 0
10, 13800, Note_on_c, 4, 52, 76
10, 13919, Note_on_c, 4, 52, 0
10, 13920, Note_on_c, 4, 54, 76
10, 14024, Note_on_c, 4, 54, 0
10, 14040, Note_on_c, 4, 57, 76
10, 14144, Note_on_c, 4, 57, 0
10, 14160, Note_on_c, 4, 62, 76
10, 14264, Note_on_c, 4, 62, 0
10, 14280, Note_on_c, 4, 50, 76
10, 14384, Note_on_c, 4, 50, 0
10, 14400, Note_on_c, 4, 55, 76
10, 14624, Note_on_c, 4, 55, 0
10, 14640, Note_on_c, 4, 59, 76
10, 14864, Note_on_c, 4, 59, 0
10, 14880, Note_on_c, 4, 52, 76
10, 15104, Note_on_c, 4, 52, 0
10, 15120, Note_on_c, 4, 54, 76
10, 15344, Note_on_c, 4, 54, 0
10, 15360, Note_on_c, 4, 57, 76
10, 15584, Note_on_c, 4, 57, 0
10, 15600, Note_on_c, 4, 50, 76
10, 15824, Note_on_c, 4, 50, 0
10, 15840, Note_on_c, 4, 47, 76
10, 16064, Note_on_c, 4, 47, 0
10, 16080, Note_on_c, 4, 43, 76
10, 16304, Note_on_c, 4, 43, 0
10, 16320, Note_on_c, 4, 45, 76
10, 16544, Note_on_c, 4, 45, 0
10, 16560, Note_on_c, 4, 38, 76
10, 16679, Note_on_c, 4, 38, 0
10, 16680, Note_on_c, 4, 42, 76
10, 16799, Note_on_c, 4, 42, 0
10, 16800, Note_on_c, 4, 45, 76
10, 16919, Note_on_c, 4, 45, 0
10, 16920, Note_on_c, 4, 50, 76
10, 17039, Note_on_c, 4, 50, 0
10, 17040, Note_on_c, 4, 54, 76
10, 17159, Note_on_c, 4, 54, 0
10, 17160, Note_on_c, 4, 57, 76
10, 17264, Note_on_c, 4, 57, 0
10, 17280, Note_on_c, 4, 47, 76
10, 17504, Note_on_c, 4, 47, 0
10, 17520, Note_on_c, 4, 59, 76
10, 17744, Note_on_c, 4, 59, 0
10, 17760, Note_on_c, 4, 51, 76
10, 17984, Note_on_c, 4, 51, 0
10, 18000, Note_on_c, 4, 52, 76
10, 18119, Note_on_c, 4, 52, 0
10, 18120, Note_on_c, 4, 54, 76
10, 18239, Note_on_c, 4, 54, 0
10, 18240, Note_on_c, 4, 55, 76
10, 18344, Note_on_c, 4, 55, 0
10, 18360, Note_on_c, 4, 59, 76
10, 18464, Note_on_c, 4, 59, 0
10, 18480, Note_on_c, 4, 64, 76
10, 18584, Note_on_c, 4, 64, 0
10, 18600, Note_on_c, 4, 52, 76
10, 18704, Note_on_c, 4, 52, 0
10, 18720, Note_on_c, 4, 57, 76
10, 18944, Note_on_c, 4, 57, 0
10, 18960, Note_on_c, 4, 49, 76
10, 19184, Note_on_c, 4, 49, 0
10, 19200, Note_on_c, 4, 45, 76
10, 19424, Note_on_c, 4, 45, 0
10, 19440, Note_on_c, 4, 38, 76
10, 19559, Note_on_c, 4, 38, 0
10, 19560, Note_on_c, 4, 40, 76
10, 19679, Note_on_c, 4, 40, 0
10, 19680, Note_on_c, 4, 42, 76
10, 19799, Note_on_c, 4, 42, 0
10, 19800, Note_on_c, 4, 45, 76
10, 19919, Note_on_c, 4, 45, 0
10, 19920, Note_on_c, 4, 50, 76
10, 20039, Note_on_c, 4, 50, 0
10, 20040, Note_on_c, 4, 54, 76
10, 20144, Note_on_c, 4, 54, 0
10, 20160, Note_on_c, 4, 49, 76
10, 20384, Note_on_c, 4, 49, 0
10, 20400, Note_on_c, 4, 42, 76
10, 20624, Note_on_c, 4, 42, 0
10, 20640, Note_on_c, 4, 47, 76
10, 20864, Note_on_c, 4, 47, 0
10, 20880, Note_on_c, 4, 40, 76
10, 21104, Note_on_c, 4, 40, 0
10, 21120, Note_on_c, 4, 55, 76
10, 21224, Note_on_c, 4, 55, 0
10, 21240, Note_on_c, 4, 54, 76
10, 21344, Note_on_c, 4, 54, 0
10, 21360, Note_on_c, 4, 52, 76
10, 21464, Note_on_c, 4, 52, 0
10, 21480, Note_on_c, 4, 54, 76
10, 21584, Note_on_c, 4, 54, 0
10, 21600, Note_on_c, 4, 50, 76
10, 21704, Note_on_c, 4, 50, 0
10, 21720, Note_on_c, 4, 52, 76
10, 21824, Note_on_c, 4, 52, 0
10, 21840, Note_on_c, 4, 54, 76
10, 22064, Note_on_c, 4, 54, 0
10, 22080, Note_on_c, 4, 42, 76
10, 22304, Note_on_c, 4, 42, 0
10, 22320, Note_on_c, 4, 47, 76
10, 23024, Note_on_c, 4, 47, 0
10, 23040, Note_on_c, 4, 46, 76
10, 23264, Note_on_c, 4, 46, 0
10, 23280, Note_on_c, 4, 42, 76
10, 23504, Note_on_c, 4, 42, 0
10, 23520, Note_on_c, 4, 46, 76
10, 23744, Note_on_c, 4, 46, 0
10, 23760, Note_on_c, 4, 47, 76
10, 23879, Note_on_c, 4, 47, 0
10, 23880, Note_on_c, 4, 49, 76
10, 23999, Note_on_c, 4, 49, 0
10, 24000, Note_on_c, 4, 50, 76
10, 24104, Note_on_c, 4, 50, 0
10, 24120, Note_on_c, 4, 54, 76
10, 24224, Note_on_c, 4, 54, 0
10, 24240, Note_on_c, 4, 59, 76
10, 24344, Note_on_c, 4, 59, 0
10, 24360, Note_on_c, 4, 47, 76
10, 24464, Note_on_c, 4, 47, 0
10, 24480, Note_on_c, 4, 49, 76
10, 24704, Note_on_c, 4, 49, 0
10, 24720, Note_on_c, 4, 45, 76
10, 24944, Note_on_c, 4, 45, 0
10, 24960, Note_on_c, 4, 49, 76
10, 25184, Note_on_c, 4, 49, 0
10, 25200, Note_on_c, 4, 50, 76
10, 25319, Note_on_c, 4, 50, 0
10, 25320, Note_on_c, 4, 52, 76
10, 25439, Note_on_c, 4, 52, 0
10, 25440, Note_on_c, 4, 54, 76
10, 25544, Note_on_c, 4, 54, 0
10, 25560, Note_on_c, 4, 57, 76
10, 25664, Note_on_c, 4, 57, 0
10, 25680, Note_on_c, 4, 62, 76
10, 25784, Note_on_c, 4, 62, 0
10, 25800, Note_on_c, 4, 50, 76
10, 25904, Note_on_c, 4, 50, 0
10, 25920, Note_on_c, 4, 55, 76
10, 26144, Note_on_c, 4, 55, 0
10, 26160, Note_on_c, 4, 59, 76
10, 26384, Note_on_c, 4, 59, 0
10, 26400, Note_on_c, 4, 52, 76
10, 26624, Note_on_c, 4, 52, 0
10, 26640, Note_on_c, 4, 54, 76
10, 26864, Note_on_c, 4, 54, 0
10, 26880, Note_on_c, 4, 57, 76
10, 27104, Note_on_c, 4, 57, 0
10, 27120, Note_on_c, 4, 50, 76
10, 27344, Note_on_c, 4, 50, 0
10, 27360, Note_on_c, 4, 47, 76
10, 27584, Note_on_c, 4, 47, 0
10, 27600, Note_on_c, 4, 43, 76
10, 27824, Note_on_c, 4, 43, 0
10, 27840, Note_on_c, 4, 45, 76
10, 28064, Note_on_c, 4, 45, 0
10, 28080, Note_on_c, 4, 38, 76
10, 28199, Note_on_c, 4, 38, 0
10, 28200, Note_on_c, 4, 42, 76
10, 28319, Note_on_c, 4, 42, 0
10, 28320, Note_on_c, 4, 45, 76
10, 28439, Note_on_c, 4, 45, 0
10, 28440, Note_on_c, 4, 50, 76
10, 28559, Note_on_c, 4, 50, 0
10, 28560, Note_on_c, 4, 54, 76
10, 28679, Note_on_c, 4, 54, 0
10, 28680, Note_on_c, 4, 57, 76
10, 28784, Note_on_c, 4, 57, 0
10, 28800, Note_on_c, 4, 47, 76
10, 29024, Note_on_c, 4, 47, 0
10, 29040, Note_on_c, 4, 59, 76
10, 29264, Note_on_c, 4, 59, 0
10, 29280, Note_on_c, 4, 51, 76
10, 29504, Note_on_c, 4, 51, 0
10, 29520, Note_on_c, 4, 52, 76
10, 29639, Note_on_c, 4, 52, 0
10, 29640, Note_on_c, 4, 54, 76
10, 29759, Note_on_c, 4, 54, 0
10, 29760, Note_on_c, 4, 55, 76
10, 29864, Note_on_c, 4, 55, 0
10, 29880, Note_on_c, 4, 59, 76
10, 29984, Note_on_c, 4, 59, 0
10, 30000, Note_on_c, 4, 64, 76
10, 30104, Note_on_c, 4, 64, 0
10, 30120, Note_on_c, 4, 52, 76
10, 30224, Note_on_c, 4, 52, 0
10, 30240, Note_on_c, 4, 57, 76
10, 30464, Note_on_c, 4, 57, 0
10, 30480, Note_on_c, 4, 49, 76
10, 30704, Note_on_c, 4, 49, 0
10, 30720, Note_on_c, 4, 45, 76
10, 30944, Note_on_c, 4, 45, 0
10, 30960, Note_on_c, 4, 38, 76
10, 31079, Note_on_c, 4, 38, 0
10, 31080, Note_on_c, 4, 40, 76
10, 31199, Note_on_c, 4, 40, 0
10, 31200, Note_on_c, 4, 42, 76
10, 31319, Note_on_c, 4, 42, 0
10, 31320, Note_on_c, 4, 45, 76
10, 31439, Note_on_c, 4, 45, 0
10, 31440, Note_on_c, 4, 50, 76
10, 31559, Note_on_c, 4, 50, 0
10, 31560, Note_on_c, 4, 54, 76
10, 31664, Note_on_c, 4, 54, 0
10, 31680, Note_on_c, 4, 49, 76
10, 31904, Note_on_c, 4, 49, 0
10, 31920, Note_on_c, 4, 42, 76
10, 32144, Note_on_c, 4, 42, 0
10, 32160, Note_on_c, 4, 47, 76
10, 32384, Note_on_c, 4, 47, 0
10, 32400, Note_on_c, 4, 40, 76
10, 32624, Note_on_c, 4, 40, 0
10, 32640, Note_on_c, 4, 55, 76
10, 32744, Note_on_c, 4, 55, 0
10, 32760, Note_on_c, 4, 54, 76
10, 32864, Note_on_c, 4, 54, 0
10, 32880, Note_on_c, 4, 52, 76
10, 32984, Note_on_c, 4, 52, 0
10, 33000, Note_on_c, 4, 54, 76
10, 33104, Note_on_c, 4, 54, 0
10, 33120, Note_on_c, 4, 50, 76
10, 33224, Note_on_c, 4, 50, 0
10, 33240, Note_on_c, 4, 52, 76
10, 33344, Note_on_c, 4, 52, 0
10, 33360, Note_on_c, 4, 54, 76
10, 33584, Note_on_c, 4, 54, 0
10, 33600, Note_on_c, 4, 42, 76
10, 33824, Note_on_c, 4, 42, 0
10, 33840, Note_on_c, 4, 47, 76
10, 34559, Note_on_c, 4, 47, 0
10, 34559, End_track
11, 0, Start_track
11, 0, Title_t, "Harpsichord "
11, 0, MIDI_port, 0
11, 0, Control_c, 5, 10, 64
11, 0, Control_c, 5, 11, 127
11, 0, Control_c, 5, 7, 72
11, 0, Program_c, 5, 6
11, 0, Note_on_c, 5, 59, 76
11, 0, Note_on_c, 5, 71, 76
11, 0, Note_on_c, 5, 74, 76
11, 0, Note_on_c, 5, 78, 76
11, 239, Note_on_c, 5, 59, 0
11, 239, Note_on_c, 5, 71, 0
11, 239, Note_on_c, 5, 74, 0
11, 239, Note_on_c, 5, 78, 0
11, 240, Note_on_c, 5, 66, 76
11, 240, Note_on_c, 5, 62, 76
11, 240, Note_on_c, 5, 59, 76
11, 240, Note_on_c, 5, 47, 76
11, 479, Note_on_c, 5, 66, 0
11, 479, Note_on_c, 5, 62, 0
11, 479, Note_on_c, 5, 59, 0
11, 479, Note_on_c, 5, 47, 0
11, 480, Note_on_c, 5, 71, 76
11, 480, Note_on_c, 5, 50, 76
11, 480, Note_on_c, 5, 62, 76
11, 480, Note_on_c, 5, 66, 76
11, 719, Note_on_c, 5, 71, 0
11, 719, Note_on_c, 5, 50, 0
11, 719, Note_on_c, 5, 62, 0
11, 719, Note_on_c, 5, 66, 0
11, 720, Note_on_c, 5, 52, 76
11, 720, Note_on_c, 5, 64, 76
11, 720, Note_on_c, 5, 67, 76
11, 720, Note_on_c, 5, 71, 76
11, 839, Note_on_c, 5, 52, 0
11, 839, Note_on_c, 5, 64, 0
11, 839, Note_on_c, 5, 67, 0
11, 839, Note_on_c, 5, 71, 0
11, 840, Note_on_c, 5, 73, 76
11, 840, Note_on_c, 5, 54, 76
11, 840, Note_on_c, 5, 69, 76
11, 840, Note_on_c, 5, 66, 76
11, 959, Note_on_c, 5, 73, 0
11, 959, Note_on_c, 5, 54, 0
11, 959, Note_on_c, 5, 69, 0
11, 959, Note_on_c, 5, 66, 0
11, 960, Note_on_c, 5, 55, 76
11, 960, Note_on_c, 5, 71, 76
11, 960, Note_on_c, 5, 67, 76
11, 960, Note_on_c, 5, 74, 76
11, 1079, Note_on_c, 5, 55, 0
11, 1079, Note_on_c, 5, 71, 0
11, 1079, Note_on_c, 5, 67, 0
11, 1079, Note_on_c, 5, 74, 0
11, 1080, Note_on_c, 5, 59, 76
11, 1080, Note_on_c, 5, 71, 76
11, 1080, Note_on_c, 5, 74, 76
11, 1080, Note_on_c, 5, 78, 76
11, 1199, Note_on_c, 5, 59, 0
11, 1199, Note_on_c, 5, 71, 0
11, 1199, Note_on_c, 5, 74, 0
11, 1199, Note_on_c, 5, 78, 0
11, 1200, Note_on_c, 5, 64, 76
11, 1200, Note_on_c, 5, 76, 76
11, 1200, Note_on_c, 5, 83, 76
11, 1200, Note_on_c, 5, 79, 76
11, 1319, Note_on_c, 5, 64, 0
11, 1319, Note_on_c, 5, 76, 0
11, 1319, Note_on_c, 5, 83, 0
11, 1319, Note_on_c, 5, 79, 0
11, 1320, Note_on_c, 5, 76, 76
11, 1320, Note_on_c, 5, 79, 76
11, 1320, Note_on_c, 5, 61, 76
11, 1320, Note_on_c, 5, 73, 76
11, 1439, Note_on_c, 5, 76, 0
11, 1439, Note_on_c, 5, 79, 0
11, 1439, Note_on_c, 5, 61, 0
11, 1439, Note_on_c, 5, 73, 0
11, 1440, Note_on_c, 5, 73, 76
11, 1440, Note_on_c, 5, 58, 76
11, 1440, Note_on_c, 5, 79, 76
11, 1440, Note_on_c, 5, 70, 76
11, 1440, Note_on_c, 5, 76, 76
11, 1679, Note_on_c, 5, 73, 0
11, 1679, Note_on_c, 5, 79, 0
11, 1679, Note_on_c, 5, 70, 0
11, 1679, Note_on_c, 5, 76, 0
11, 1680, Note_on_c, 5, 70, 76
11, 1680, Note_on_c, 5, 73, 76
11, 1680, Note_on_c, 5, 78, 76
11, 1919, Note_on_c, 5, 58, 0
11, 1919, Note_on_c, 5, 70, 0
11, 1919, Note_on_c, 5, 73, 0
11, 1919, Note_on_c, 5, 78, 0
11, 1920, Note_on_c, 5, 66, 76
11, 1920, Note_on_c, 5, 70, 76
11, 1920, Note_on_c, 5, 73, 76
11, 1920, Note_on_c, 5, 76, 76
11, 1920, Note_on_c, 5, 54, 76
11, 2159, Note_on_c, 5, 66, 0
11, 2159, Note_on_c, 5, 70, 0
11, 2159, Note_on_c, 5, 73, 0
11, 2159, Note_on_c, 5, 76, 0
11, 2159, Note_on_c, 5, 54, 0
11, 2160, Note_on_c, 5, 74, 76
11, 2160, Note_on_c, 5, 78, 76
11, 2160, Note_on_c, 5, 59, 76
11, 2160, Note_on_c, 5, 71, 76
11, 2519, Note_on_c, 5, 74, 0
11, 2519, Note_on_c, 5, 78, 0
11, 2519, Note_on_c, 5, 59, 0
11, 2519, Note_on_c, 5, 71, 0
11, 2520, Note_on_c, 5, 59, 76
11, 2520, Note_on_c, 5, 47, 76
11, 2520, Note_on_c, 5, 78, 76
11, 2520, Note_on_c, 5, 74, 76
11, 2639, Note_on_c, 5, 59, 0
11, 2639, Note_on_c, 5, 47, 0
11, 2639, Note_on_c, 5, 78, 0
11, 2639, Note_on_c, 5, 74, 0
11, 2640, Note_on_c, 5, 78, 76
11, 2640, Note_on_c, 5, 74, 76
11, 2640, Note_on_c, 5, 61, 76
11, 2640, Note_on_c, 5, 49, 76
11, 2759, Note_on_c, 5, 78, 0
11, 2759, Note_on_c, 5, 74, 0
11, 2759, Note_on_c, 5, 61, 0
11, 2759, Note_on_c, 5, 49, 0
11, 2760, Note_on_c, 5, 78, 76
11, 2760, Note_on_c, 5, 74, 76
11, 2760, Note_on_c, 5, 50, 76
11, 2760, Note_on_c, 5, 62, 76
11, 2879, Note_on_c, 5, 78, 0
11, 2879, Note_on_c, 5, 74, 0
11, 2879, Note_on_c, 5, 50, 0
11, 2879, Note_on_c, 5, 62, 0
11, 2880, Note_on_c, 5, 67, 76
11, 2880, Note_on_c, 5, 71, 76
11, 2880, Note_on_c, 5, 64, 76
11, 2880, Note_on_c, 5, 52, 76
11, 3119, Note_on_c, 5, 67, 0
11, 3119, Note_on_c, 5, 71, 0
11, 3119, Note_on_c, 5, 64, 0
11, 3119, Note_on_c, 5, 52, 0
11, 3120, Note_on_c, 5, 76, 76
11, 3120, Note_on_c, 5, 55, 76
11, 3120, Note_on_c, 5, 71, 76
11, 3120, Note_on_c, 5, 67, 76
11, 3359, Note_on_c, 5, 76, 0
11, 3359, Note_on_c, 5, 55, 0
11, 3359, Note_on_c, 5, 71, 0
11, 3359, Note_on_c, 5, 67, 0
11, 3360, Note_on_c, 5, 71, 76
11, 3360, Note_on_c, 5, 49, 76
11, 3360, Note_on_c, 5, 64, 76
11, 3360, Note_on_c, 5, 61, 76
11, 3360, Note_on_c, 5, 67, 76
11, 3599, Note_on_c, 5, 71, 0
11, 3599, Note_on_c, 5, 49, 0
11, 3599, Note_on_c, 5, 64, 0
11, 3599, Note_on_c, 5, 61, 0
11, 3599, Note_on_c, 5, 67, 0
11, 3600, Note_on_c, 5, 62, 76
11, 3600, Note_on_c, 5, 50, 76
11, 3600, Note_on_c, 5, 71, 76
11, 3600, Note_on_c, 5, 66, 76
11, 3839, Note_on_c, 5, 62, 0
11, 3839, Note_on_c, 5, 50, 0
11, 3839, Note_on_c, 5, 71, 0
11, 3839, Note_on_c, 5, 66, 0
11, 3840, Note_on_c, 5, 74, 76
11, 3840, Note_on_c, 5, 71, 76
11, 3840, Note_on_c, 5, 54, 76
11, 3840, Note_on_c, 5, 66, 76
11, 4079, Note_on_c, 5, 74, 0
11, 4079, Note_on_c, 5, 71, 0
11, 4079, Note_on_c, 5, 54, 0
11, 4079, Note_on_c, 5, 66, 0
11, 4080, Note_on_c, 5, 66, 76
11, 4080, Note_on_c, 5, 47, 76
11, 4080, Note_on_c, 5, 62, 76
11, 4080, Note_on_c, 5, 59, 76
11, 4319, Note_on_c, 5, 66, 0
11, 4319, Note_on_c, 5, 47, 0
11, 4319, Note_on_c, 5, 62, 0
11, 4319, Note_on_c, 5, 59, 0
11, 4320, Note_on_c, 5, 64, 76
11, 4320, Note_on_c, 5, 61, 76
11, 4320, Note_on_c, 5, 49, 76
11, 4320, Note_on_c, 5, 70, 76
11, 4559, Note_on_c, 5, 64, 0
11, 4559, Note_on_c, 5, 61, 0
11, 4559, Note_on_c, 5, 49, 0
11, 4559, Note_on_c, 5, 70, 0
11, 4560, Note_on_c, 5, 61, 76
11, 4560, Note_on_c, 5, 64, 76
11, 4560, Note_on_c, 5, 58, 76
11, 4560, Note_on_c, 5, 66, 76
11, 4560, Note_on_c, 5, 46, 76
11, 4799, Note_on_c, 5, 61, 0
11, 4799, Note_on_c, 5, 64, 0
11, 4799, Note_on_c, 5, 58, 0
11, 4799, Note_on_c, 5, 66, 0
11, 4799, Note_on_c, 5, 46, 0
11, 4800, Note_on_c, 5, 66, 76
11, 4800, Note_on_c, 5, 62, 76
11, 4800, Note_on_c, 5, 59, 76
11, 4800, Note_on_c, 5, 47, 76
11, 5039, Note_on_c, 5, 66, 0
11, 5039, Note_on_c, 5, 62, 0
11, 5039, Note_on_c, 5, 59, 0
11, 5039, Note_on_c, 5, 47, 0
11, 5040, Note_on_c, 5, 54, 76
11, 5040, Note_on_c, 5, 58, 76
11, 5040, Note_on_c, 5, 61, 76
11, 5040, Note_on_c, 5, 42, 76
11, 5279, Note_on_c, 5, 54, 0
11, 5279, Note_on_c, 5, 58, 0
11, 5279, Note_on_c, 5, 61, 0
11, 5279, Note_on_c, 5, 42, 0
11, 5280, Note_on_c, 5, 70, 76
11, 5280, Note_on_c, 5, 54, 76
11, 5280, Note_on_c, 5, 66, 76
11, 5280, Note_on_c, 5, 73, 76
11, 5399, Note_on_c, 5, 70, 0
11, 5399, Note_on_c, 5, 54, 0
11, 5399, Note_on_c, 5, 66, 0
11, 5399, Note_on_c, 5, 73, 0
11, 5400, Note_on_c, 5, 74, 76
11, 5400, Note_on_c, 5, 56, 76
11, 5400, Note_on_c, 5, 71, 76
11, 5400, Note_on_c, 5, 68, 76
11, 5519, Note_on_c, 5, 74, 0
11, 5519, Note_on_c, 5, 56, 0
11, 5519, Note_on_c, 5, 71, 0
11, 5519, Note_on_c, 5, 68, 0
11, 5520, Note_on_c, 5, 70, 76
11, 5520, Note_on_c, 5, 73, 76
11, 5520, Note_on_c, 5, 58, 76
11, 5520, Note_on_c, 5, 76, 76
11, 5639, Note_on_c, 5, 70, 0
11, 5639, Note_on_c, 5, 73, 0
11, 5639, Note_on_c, 5, 58, 0
11, 5639, Note_on_c, 5, 76, 0
11, 5640, Note_on_c, 5, 70, 76
11, 5640, Note_on_c, 5, 73, 76
11, 5640, Note_on_c, 5, 66, 76
11, 5640, Note_on_c, 5, 54, 76
11, 5759, Note_on_c, 5, 70, 0
11, 5759, Note_on_c, 5, 73, 0
11, 5759, Note_on_c, 5, 66, 0
11, 5759, Note_on_c, 5, 54, 0
11, 5760, Note_on_c, 5, 78, 76
11, 5760, Note_on_c, 5, 71, 76
11, 5760, Note_on_c, 5, 74, 76
11, 5760, Note_on_c, 5, 59, 76
11, 5999, Note_on_c, 5, 78, 0
11, 5999, Note_on_c, 5, 71, 0
11, 5999, Note_on_c, 5, 74, 0
11, 5999, Note_on_c, 5, 59, 0
11, 6000, Note_on_c, 5, 62, 76
11, 6000, Note_on_c, 5, 47, 76
11, 6000, Note_on_c, 5, 66, 76
11, 6000, Note_on_c, 5, 59, 76
11, 6239, Note_on_c, 5, 62, 0
11, 6239, Note_on_c, 5, 47, 0
11, 6239, Note_on_c, 5, 66, 0
11, 6239, Note_on_c, 5, 59, 0
11, 6240, Note_on_c, 5, 62, 76
11, 6240, Note_on_c, 5, 66, 76
11, 6240, Note_on_c, 5, 50, 76
11, 6240, Note_on_c, 5, 71, 76
11, 6479, Note_on_c, 5, 62, 0
11, 6479, Note_on_c, 5, 66, 0
11, 6479, Note_on_c, 5, 50, 0
11, 6479, Note_on_c, 5, 71, 0
11, 6480, Note_on_c, 5, 71, 76
11, 6480, Note_on_c, 5, 67, 76
11, 6480, Note_on_c, 5, 52, 76
11, 6480, Note_on_c, 5, 64, 76
11, 6599, Note_on_c, 5, 71, 0
11, 6599, Note_on_c, 5, 67, 0
11, 6599, Note_on_c, 5, 52, 0
11, 6599, Note_on_c, 5, 64, 0
11, 6600, Note_on_c, 5, 54, 76
11, 6600, Note_on_c, 5, 73, 76
11, 6600, Note_on_c, 5, 69, 76
11, 6600, Note_on_c, 5, 66, 76
11, 6719, Note_on_c, 5, 54, 0
11, 6719, Note_on_c, 5, 73, 0
11, 6719, Note_on_c, 5, 69, 0
11, 6719, Note_on_c, 5, 66, 0
11, 6720, Note_on_c, 5, 71, 76
11, 6720, Note_on_c, 5, 74, 76
11, 6720, Note_on_c, 5, 67, 76
11, 6720, Note_on_c, 5, 55, 76
11, 6839, Note_on_c, 5, 71, 0
11, 6839, Note_on_c, 5, 74, 0
11, 6839, Note_on_c, 5, 67, 0
11, 6839, Note_on_c, 5, 55, 0
11, 6840, Note_on_c, 5, 74, 76
11, 6840, Note_on_c, 5, 78, 76
11, 6840, Note_on_c, 5, 59, 76
11, 6840, Note_on_c, 5, 71, 76
11, 6959, Note_on_c, 5, 74, 0
11, 6959, Note_on_c, 5, 78, 0
11, 6959, Note_on_c, 5, 59, 0
11, 6959, Note_on_c, 5, 71, 0
11, 6960, Note_on_c, 5, 76, 76
11, 6960, Note_on_c, 5, 64, 76
11, 6960, Note_on_c, 5, 83, 76
11, 6960, Note_on_c, 5, 79, 76
11, 7079, Note_on_c, 5, 76, 0
11, 7079, Note_on_c, 5, 64, 0
11, 7079, Note_on_c, 5, 83, 0
11, 7079, Note_on_c, 5, 79, 0
11, 7080, Note_on_c, 5, 73, 76
11, 7080, Note_on_c, 5, 79, 76
11, 7080, Note_on_c, 5, 61, 76
11, 7080, Note_on_c, 5, 76, 76
11, 7199, Note_on_c, 5, 73, 0
11, 7199, Note_on_c, 5, 79, 0
11, 7199, Note_on_c, 5, 61, 0
11, 7199, Note_on_c, 5, 76, 0
11, 7200, Note_on_c, 5, 58, 76
11, 7200, Note_on_c, 5, 70, 76
11, 7200, Note_on_c, 5, 79, 76
11, 7200, Note_on_c, 5, 73, 76
11, 7200, Note_on_c, 5, 76, 76
11, 7439, Note_on_c, 5, 70, 0
11, 7439, Note_on_c, 5, 79, 0
11, 7439, Note_on_c, 5, 73, 0
11, 7439, Note_on_c, 5, 76, 0
11, 7440, Note_on_c, 5, 73, 76
11, 7440, Note_on_c, 5, 78, 76
11, 7440, Note_on_c, 5, 70, 76
11, 7679, Note_on_c, 5, 58, 0
11, 7679, Note_on_c, 5, 73, 0
11, 7679, Note_on_c, 5, 78, 0
11, 7679, Note_on_c, 5, 70, 0
11, 7680, Note_on_c, 5, 73, 76
11, 7680, Note_on_c, 5, 76, 76
11, 7680, Note_on_c, 5, 66, 76
11, 7680, Note_on_c, 5, 54, 76
11, 7680, Note_on_c, 5, 70, 76
11, 7919, Note_on_c, 5, 73, 0
11, 7919, Note_on_c, 5, 76, 0
11, 7919, Note_on_c, 5, 66, 0
11, 7919, Note_on_c, 5, 54, 0
11, 7919, Note_on_c, 5, 70, 0
11, 7920, Note_on_c, 5, 78, 76
11, 7920, Note_on_c, 5, 74, 76
11, 7920, Note_on_c, 5, 71, 76
11, 7920, Note_on_c, 5, 59, 76
11, 8279, Note_on_c, 5, 78, 0
11, 8279, Note_on_c, 5, 74, 0
11, 8279, Note_on_c, 5, 71, 0
11, 8279, Note_on_c, 5, 59, 0
11, 8280, Note_on_c, 5, 47, 76
11, 8280, Note_on_c, 5, 59, 76
11, 8280, Note_on_c, 5, 78, 76
11, 8280, Note_on_c, 5, 74, 76
11, 8399, Note_on_c, 5, 47, 0
11, 8399, Note_on_c, 5, 59, 0
11, 8399, Note_on_c, 5, 78, 0
11, 8399, Note_on_c, 5, 74, 0
11, 8400, Note_on_c, 5, 78, 76
11, 8400, Note_on_c, 5, 61, 76
11, 8400, Note_on_c, 5, 74, 76
11, 8400, Note_on_c, 5, 49, 76
11, 8519, Note_on_c, 5, 78, 0
11, 8519, Note_on_c, 5, 61, 0
11, 8519, Note_on_c, 5, 74, 0
11, 8519, Note_on_c, 5, 49, 0
11, 8520, Note_on_c, 5, 62, 76
11, 8520, Note_on_c, 5, 74, 76
11, 8520, Note_on_c, 5, 50, 76
11, 8520, Note_on_c, 5, 78, 76
11, 8639, Note_on_c, 5, 62, 0
11, 8639, Note_on_c, 5, 74, 0
11, 8639, Note_on_c, 5, 50, 0
11, 8639, Note_on_c, 5, 78, 0
11, 8640, Note_on_c, 5, 67, 76
11, 8640, Note_on_c, 5, 71, 76
11, 8640, Note_on_c, 5, 64, 76
11, 8640, Note_on_c, 5, 52, 76
11, 8879, Note_on_c, 5, 67, 0
11, 8879, Note_on_c, 5, 71, 0
11, 8879, Note_on_c, 5, 64, 0
11, 8879, Note_on_c, 5, 52, 0
11, 8880, Note_on_c, 5, 55, 76
11, 8880, Note_on_c, 5, 67, 76
11, 8880, Note_on_c, 5, 76, 76
11, 8880, Note_on_c, 5, 71, 76
11, 9119, Note_on_c, 5, 55, 0
11, 9119, Note_on_c, 5, 67, 0
11, 9119, Note_on_c, 5, 76, 0
11, 9119, Note_on_c, 5, 71, 0
11, 9120, Note_on_c, 5, 49, 76
11, 9120, Note_on_c, 5, 71, 76
11, 9120, Note_on_c, 5, 67, 76
11, 9120, Note_on_c, 5, 61, 76
11, 9120, Note_on_c, 5, 64, 76
11, 9359, Note_on_c, 5, 49, 0
11, 9359, Note_on_c, 5, 71, 0
11, 9359, Note_on_c, 5, 67, 0
11, 9359, Note_on_c, 5, 61, 0
11, 9359, Note_on_c, 5, 64, 0
11, 9360, Note_on_c, 5, 71, 76
11, 9360, Note_on_c, 5, 66, 76
11, 9360, Note_on_c, 5, 50, 76
11, 9360, Note_on_c, 5, 62, 76
11, 9599, Note_on_c, 5, 71, 0
11, 9599, Note_on_c, 5, 66, 0
11, 9599, Note_on_c, 5, 50, 0
11, 9599, Note_on_c, 5, 62, 0
11, 9600, Note_on_c, 5, 54, 76
11, 9600, Note_on_c, 5, 71, 76
11, 9600, Note_on_c, 5, 66, 76
11, 9600, Note_on_c, 5, 74, 76
11, 9839, Note_on_c, 5, 54, 0
11, 9839, Note_on_c, 5, 71, 0
11, 9839, Note_on_c, 5, 66, 0
11, 9839, Note_on_c, 5, 74, 0
11, 9840, Note_on_c, 5, 66, 76
11, 9840, Note_on_c, 5, 59, 76
11, 9840, Note_on_c, 5, 47, 76
11, 9840, Note_on_c, 5, 62, 76
11, 10079, Note_on_c, 5, 66, 0
11, 10079, Note_on_c, 5, 59, 0
11, 10079, Note_on_c, 5, 47, 0
11, 10079, Note_on_c, 5, 62, 0
11, 10080, Note_on_c, 5, 49, 76
11, 10080, Note_on_c, 5, 70, 76
11, 10080, Note_on_c, 5, 64, 76
11, 10080, Note_on_c, 5, 61, 76
11, 10319, Note_on_c, 5, 49, 0
11, 10319, Note_on_c, 5, 70, 0
11, 10319, Note_on_c, 5, 64, 0
11, 10319, Note_on_c, 5, 61, 0
11, 10320, Note_on_c, 5, 58, 76
11, 10320, Note_on_c, 5, 64, 76
11, 10320, Note_on_c, 5, 46, 76
11, 10320, Note_on_c, 5, 66, 76
11, 10320, Note_on_c, 5, 61, 76
11, 10559, Note_on_c, 5, 58, 0
11, 10559, Note_on_c, 5, 64, 0
11, 10559, Note_on_c, 5, 46, 0
11, 10559, Note_on_c, 5, 66, 0
11, 10559, Note_on_c, 5, 61, 0
11, 10560, Note_on_c, 5, 66, 76
11, 10560, Note_on_c, 5, 62, 76
11, 10560, Note_on_c, 5, 59, 76
11, 10560, Note_on_c, 5, 47, 76
11, 10799, Note_on_c, 5, 66, 0
11, 10799, Note_on_c, 5, 62, 0
11, 10799, Note_on_c, 5, 59, 0
11, 10799, Note_on_c, 5, 47, 0
11, 10800, Note_on_c, 5, 54, 76
11, 10800, Note_on_c, 5, 42, 76
11, 10800, Note_on_c, 5, 58, 76
11, 10800, Note_on_c, 5, 61, 76
11, 11039, Note_on_c, 5, 54, 0
11, 11039, Note_on_c, 5, 42, 0
11, 11039, Note_on_c, 5, 58, 0
11, 11039, Note_on_c, 5, 61, 0
11, 11040, Note_on_c, 5, 70, 76
11, 11040, Note_on_c, 5, 73, 76
11, 11040, Note_on_c, 5, 54, 76
11, 11040, Note_on_c, 5, 66, 76
11, 11159, Note_on_c, 5, 70, 0
11, 11159, Note_on_c, 5, 73, 0
11, 11159, Note_on_c, 5, 54, 0
11, 11159, Note_on_c, 5, 66, 0
11, 11160, Note_on_c, 5, 68, 76
11, 11160, Note_on_c, 5, 56, 76
11, 11160, Note_on_c, 5, 74, 76
11, 11160, Note_on_c, 5, 71, 76
11, 11279, Note_on_c, 5, 68, 0
11, 11279, Note_on_c, 5, 56, 0
11, 11279, Note_on_c, 5, 74, 0
11, 11279, Note_on_c, 5, 71, 0
11, 11280, Note_on_c, 5, 73, 76
11, 11280, Note_on_c, 5, 58, 76
11, 11280, Note_on_c, 5, 76, 76
11, 11280, Note_on_c, 5, 70, 76
11, 11399, Note_on_c, 5, 73, 0
11, 11399, Note_on_c, 5, 58, 0
11, 11399, Note_on_c, 5, 76, 0
11, 11399, Note_on_c, 5, 70, 0
11, 11400, Note_on_c, 5, 54, 76
11, 11400, Note_on_c, 5, 73, 76
11, 11400, Note_on_c, 5, 66, 76
11, 11400, Note_on_c, 5, 70, 76
11, 11519, Note_on_c, 5, 54, 0
11, 11519, Note_on_c, 5, 73, 0
11, 11519, Note_on_c, 5, 66, 0
11, 11519, Note_on_c, 5, 70, 0
11, 11520, Note_on_c, 5, 58, 76
11, 11520, Note_on_c, 5, 46, 76
11, 11520, Note_on_c, 5, 66, 76
11, 11520, Note_on_c, 5, 61, 76
11, 11759, Note_on_c, 5, 58, 0
11, 11759, Note_on_c, 5, 46, 0
11, 11759, Note_on_c, 5, 66, 0
11, 11759, Note_on_c, 5, 61, 0
11, 11760, Note_on_c, 5, 61, 76
11, 11760, Note_on_c, 5, 58, 76
11, 11760, Note_on_c, 5, 54, 76
11, 11760, Note_on_c, 5, 42, 76
11, 11999, Note_on_c, 5, 61, 0
11, 11999, Note_on_c, 5, 58, 0
11, 11999, Note_on_c, 5, 54, 0
11, 11999, Note_on_c, 5, 42, 0
11, 12000, Note_on_c, 5, 58, 76
11, 12000, Note_on_c, 5, 46, 76
11, 12000, Note_on_c, 5, 66, 76
11, 12000, Note_on_c, 5, 61, 76
11, 12239, Note_on_c, 5, 58, 0
11, 12239, Note_on_c, 5, 46, 0
11, 12239, Note_on_c, 5, 66, 0
11, 12239, Note_on_c, 5, 61, 0
11, 12240, Note_on_c, 5, 66, 76
11, 12240, Note_on_c, 5, 62, 76
11, 12240, Note_on_c, 5, 47, 76
11, 12240, Note_on_c, 5, 59, 76
11, 12359, Note_on_c, 5, 66, 0
11, 12359, Note_on_c, 5, 62, 0
11, 12359, Note_on_c, 5, 47, 0
11, 12359, Note_on_c, 5, 59, 0
11, 12360, Note_on_c, 5, 67, 76
11, 12360, Note_on_c, 5, 49, 76
11, 12360, Note_on_c, 5, 64, 76
11, 12360, Note_on_c, 5, 61, 76
11, 12479, Note_on_c, 5, 67, 0
11, 12479, Note_on_c, 5, 49, 0
11, 12479, Note_on_c, 5, 64, 0
11, 12479, Note_on_c, 5, 61, 0
11, 12480, Note_on_c, 5, 50, 76
11, 12480, Note_on_c, 5, 62, 76
11, 12480, Note_on_c, 5, 66, 76
11, 12480, Note_on_c, 5, 71, 76
11, 12599, Note_on_c, 5, 50, 0
11, 12599, Note_on_c, 5, 62, 0
11, 12599, Note_on_c, 5, 66, 0
11, 12599, Note_on_c, 5, 71, 0
11, 12600, Note_on_c, 5, 73, 76
11, 12600, Note_on_c, 5, 66, 76
11, 12600, Note_on_c, 5, 69, 76
11, 12600, Note_on_c, 5, 54, 76
11, 12719, Note_on_c, 5, 73, 0
11, 12719, Note_on_c, 5, 66, 0
11, 12719, Note_on_c, 5, 69, 0
11, 12719, Note_on_c, 5, 54, 0
11, 12720, Note_on_c, 5, 74, 76
11, 12720, Note_on_c, 5, 78, 76
11, 12720, Note_on_c, 5, 59, 76
11, 12720, Note_on_c, 5, 71, 76
11, 12839, Note_on_c, 5, 74, 0
11, 12839, Note_on_c, 5, 78, 0
11, 12839, Note_on_c, 5, 59, 0
11, 12839, Note_on_c, 5, 71, 0
11, 12840, Note_on_c, 5, 47, 76
11, 12840, Note_on_c, 5, 62, 76
11, 12840, Note_on_c, 5, 66, 76
11, 12840, Note_on_c, 5, 59, 76
11, 12959, Note_on_c, 5, 47, 0
11, 12959, Note_on_c, 5, 62, 0
11, 12959, Note_on_c, 5, 66, 0
11, 12959, Note_on_c, 5, 59, 0
11, 12960, Note_on_c, 5, 61, 76
11, 12960, Note_on_c, 5, 49, 76
11, 12960, Note_on_c, 5, 69, 76
11, 12960, Note_on_c, 5, 64, 76
11, 13199, Note_on_c, 5, 61, 0
11, 13199, Note_on_c, 5, 49, 0
11, 13199, Note_on_c, 5, 69, 0
11, 13199, Note_on_c, 5, 64, 0
11, 13200, Note_on_c, 5, 64, 76
11, 13200, Note_on_c, 5, 61, 76
11, 13200, Note_on_c, 5, 57, 76
11, 13200, Note_on_c, 5, 45, 76
11, 13439, Note_on_c, 5, 64, 0
11, 13439, Note_on_c, 5, 61, 0
11, 13439, Note_on_c, 5, 57, 0
11, 13439, Note_on_c, 5, 45, 0
11, 13440, Note_on_c, 5, 49, 76
11, 13440, Note_on_c, 5, 64, 76
11, 13440, Note_on_c, 5, 69, 76
11, 13440, Note_on_c, 5, 61, 76
11, 13679, Note_on_c, 5, 49, 0
11, 13679, Note_on_c, 5, 64, 0
11, 13679, Note_on_c, 5, 69, 0
11, 13679, Note_on_c, 5, 61, 0
11, 13680, Note_on_c, 5, 66, 76
11, 13680, Note_on_c, 5, 69, 76
11, 13680, Note_on_c, 5, 62, 76
11, 13680, Note_on_c, 5, 50, 76
11, 13799, Note_on_c, 5, 66, 0
11, 13799, Note_on_c, 5, 69, 0
11, 13799, Note_on_c, 5, 62, 0
11, 13799, Note_on_c, 5, 50, 0
11, 13800, Note_on_c, 5, 52, 76
11, 13800, Note_on_c, 5, 67, 76
11, 13800, Note_on_c, 5, 71, 76
11, 13800, Note_on_c, 5, 64, 76
11, 13919, Note_on_c, 5, 52, 0
11, 13919, Note_on_c, 5, 67, 0
11, 13919, Note_on_c, 5, 71, 0
11, 13919, Note_on_c, 5, 64, 0
11, 13920, Note_on_c, 5, 66, 76
11, 13920, Note_on_c, 5, 54, 76
11, 13920, Note_on_c, 5, 74, 76
11, 13920, Note_on_c, 5, 69, 76
11, 14039, Note_on_c, 5, 66, 0
11, 14039, Note_on_c, 5, 54, 0
11, 14039, Note_on_c, 5, 74, 0
11, 14039, Note_on_c, 5, 69, 0
11, 14040, Note_on_c, 5, 76, 76
11, 14040, Note_on_c, 5, 73, 76
11, 14040, Note_on_c, 5, 69, 76
11, 14040, Note_on_c, 5, 57, 76
11, 14159, Note_on_c, 5, 76, 0
11, 14159, Note_on_c, 5, 73, 0
11, 14159, Note_on_c, 5, 69, 0
11, 14159, Note_on_c, 5, 57, 0
11, 14160, Note_on_c, 5, 78, 76
11, 14160, Note_on_c, 5, 62, 76
11, 14160, Note_on_c, 5, 74, 76
11, 14160, Note_on_c, 5, 81, 76
11, 14279, Note_on_c, 5, 78, 0
11, 14279, Note_on_c, 5, 62, 0
11, 14279, Note_on_c, 5, 74, 0
11, 14279, Note_on_c, 5, 81, 0
11, 14280, Note_on_c, 5, 62, 76
11, 14280, Note_on_c, 5, 69, 76
11, 14280, Note_on_c, 5, 50, 76
11, 14280, Note_on_c, 5, 66, 76
11, 14399, Note_on_c, 5, 62, 0
11, 14399, Note_on_c, 5, 69, 0
11, 14399, Note_on_c, 5, 50, 0
11, 14399, Note_on_c, 5, 66, 0
11, 14400, Note_on_c, 5, 55, 76
11, 14400, Note_on_c, 5, 67, 76
11, 14400, Note_on_c, 5, 74, 76
11, 14400, Note_on_c, 5, 71, 76
11, 14639, Note_on_c, 5, 55, 0
11, 14639, Note_on_c, 5, 67, 0
11, 14639, Note_on_c, 5, 74, 0
11, 14639, Note_on_c, 5, 71, 0
11, 14640, Note_on_c, 5, 59, 76
11, 14640, Note_on_c, 5, 74, 76
11, 14640, Note_on_c, 5, 79, 76
11, 14640, Note_on_c, 5, 71, 76
11, 14879, Note_on_c, 5, 59, 0
11, 14879, Note_on_c, 5, 74, 0
11, 14879, Note_on_c, 5, 79, 0
11, 14879, Note_on_c, 5, 71, 0
11, 14880, Note_on_c, 5, 67, 76
11, 14880, Note_on_c, 5, 52, 76
11, 14880, Note_on_c, 5, 74, 76
11, 14880, Note_on_c, 5, 71, 76
11, 14880, Note_on_c, 5, 64, 76
11, 15119, Note_on_c, 5, 67, 0
11, 15119, Note_on_c, 5, 52, 0
11, 15119, Note_on_c, 5, 74, 0
11, 15119, Note_on_c, 5, 71, 0
11, 15119, Note_on_c, 5, 64, 0
11, 15120, Note_on_c, 5, 69, 76
11, 15120, Note_on_c, 5, 66, 76
11, 15120, Note_on_c, 5, 74, 76
11, 15120, Note_on_c, 5, 54, 76
11, 15359, Note_on_c, 5, 69, 0
11, 15359, Note_on_c, 5, 66, 0
11, 15359, Note_on_c, 5, 74, 0
11, 15359, Note_on_c, 5, 54, 0
11, 15360, Note_on_c, 5, 69, 76
11, 15360, Note_on_c, 5, 78, 76
11, 15360, Note_on_c, 5, 57, 76
11, 15360, Note_on_c, 5, 74, 76
11, 15599, Note_on_c, 5, 69, 0
11, 15599, Note_on_c, 5, 78, 0
11, 15599, Note_on_c, 5, 57, 0
11, 15599, Note_on_c, 5, 74, 0
11, 15600, Note_on_c, 5, 50, 76
11, 15600, Note_on_c, 5, 66, 76
11, 15600, Note_on_c, 5, 62, 76
11, 15600, Note_on_c, 5, 59, 76
11, 15839, Note_on_c, 5, 50, 0
11, 15839, Note_on_c, 5, 66, 0
11, 15839, Note_on_c, 5, 62, 0
11, 15839, Note_on_c, 5, 59, 0
11, 15840, Note_on_c, 5, 59, 76
11, 15840, Note_on_c, 5, 62, 76
11, 15840, Note_on_c, 5, 67, 76
11, 15840, Note_on_c, 5, 47, 76
11, 16079, Note_on_c, 5, 59, 0
11, 16079, Note_on_c, 5, 62, 0
11, 16079, Note_on_c, 5, 67, 0
11, 16079, Note_on_c, 5, 47, 0
11, 16080, Note_on_c, 5, 62, 76
11, 16080, Note_on_c, 5, 59, 76
11, 16080, Note_on_c, 5, 43, 76
11, 16080, Note_on_c, 5, 66, 76
11, 16080, Note_on_c, 5, 55, 76
11, 16319, Note_on_c, 5, 62, 0
11, 16319, Note_on_c, 5, 59, 0
11, 16319, Note_on_c, 5, 43, 0
11, 16319, Note_on_c, 5, 66, 0
11, 16319, Note_on_c, 5, 55, 0
11, 16320, Note_on_c, 5, 61, 76
11, 16320, Note_on_c, 5, 57, 76
11, 16320, Note_on_c, 5, 45, 76
11, 16320, Note_on_c, 5, 64, 76
11, 16559, Note_on_c, 5, 61, 0
11, 16559, Note_on_c, 5, 57, 0
11, 16559, Note_on_c, 5, 45, 0
11, 16559, Note_on_c, 5, 64, 0
11, 16560, Note_on_c, 5, 54, 76
11, 16560, Note_on_c, 5, 57, 76
11, 16560, Note_on_c, 5, 38, 76
11, 16560, Note_on_c, 5, 50, 76
11, 16679, Note_on_c, 5, 54, 0
11, 16679, Note_on_c, 5, 57, 0
11, 16679, Note_on_c, 5, 38, 0
11, 16679, Note_on_c, 5, 50, 0
11, 16680, Note_on_c, 5, 42, 76
11, 16680, Note_on_c, 5, 57, 76
11, 16680, Note_on_c, 5, 54, 76
11, 16680, Note_on_c, 5, 61, 76
11, 16799, Note_on_c, 5, 42, 0
11, 16799, Note_on_c, 5, 57, 0
11, 16799, Note_on_c, 5, 54, 0
11, 16799, Note_on_c, 5, 61, 0
11, 16800, Note_on_c, 5, 61, 76
11, 16800, Note_on_c, 5, 57, 76
11, 16800, Note_on_c, 5, 45, 76
11, 16800, Note_on_c, 5, 64, 76
11, 16919, Note_on_c, 5, 61, 0
11, 16919, Note_on_c, 5, 57, 0
11, 16919, Note_on_c, 5, 45, 0
11, 16919, Note_on_c, 5, 64, 0
11, 16920, Note_on_c, 5, 66, 76
11, 16920, Note_on_c, 5, 62, 76
11, 16920, Note_on_c, 5, 50, 76
11, 16920, Note_on_c, 5, 69, 76
11, 17039, Note_on_c, 5, 66, 0
11, 17039, Note_on_c, 5, 62, 0
11, 17039, Note_on_c, 5, 50, 0
11, 17039, Note_on_c, 5, 69, 0
11, 17040, Note_on_c, 5, 69, 76
11, 17040, Note_on_c, 5, 54, 76
11, 17040, Note_on_c, 5, 66, 76
11, 17040, Note_on_c, 5, 73, 76
11, 17159, Note_on_c, 5, 69, 0
11, 17159, Note_on_c, 5, 54, 0
11, 17159, Note_on_c, 5, 66, 0
11, 17159, Note_on_c, 5, 73, 0
11, 17160, Note_on_c, 5, 76, 76
11, 17160, Note_on_c, 5, 57, 76
11, 17160, Note_on_c, 5, 69, 76
11, 17160, Note_on_c, 5, 73, 76
11, 17279, Note_on_c, 5, 76, 0
11, 17279, Note_on_c, 5, 57, 0
11, 17279, Note_on_c, 5, 69, 0
11, 17279, Note_on_c, 5, 73, 0
11, 17280, Note_on_c, 5, 66, 76
11, 17280, Note_on_c, 5, 47, 76
11, 17280, Note_on_c, 5, 63, 76
11, 17280, Note_on_c, 5, 69, 76
11, 17280, Note_on_c, 5, 59, 76
11, 17519, Note_on_c, 5, 66, 0
11, 17519, Note_on_c, 5, 47, 0
11, 17519, Note_on_c, 5, 63, 0
11, 17519, Note_on_c, 5, 69, 0
11, 17519, Note_on_c, 5, 59, 0
11, 17520, Note_on_c, 5, 71, 76
11, 17520, Note_on_c, 5, 78, 76
11, 17520, Note_on_c, 5, 59, 76
11, 17520, Note_on_c, 5, 75, 76
11, 17759, Note_on_c, 5, 71, 0
11, 17759, Note_on_c, 5, 78, 0
11, 17759, Note_on_c, 5, 59, 0
11, 17759, Note_on_c, 5, 75, 0
11, 17760, Note_on_c, 5, 66, 76
11, 17760, Note_on_c, 5, 51, 76
11, 17760, Note_on_c, 5, 71, 76
11, 17760, Note_on_c, 5, 63, 76
11, 17760, Note_on_c, 5, 69, 76
11, 17999, Note_on_c, 5, 66, 0
11, 17999, Note_on_c, 5, 51, 0
11, 17999, Note_on_c, 5, 71, 0
11, 17999, Note_on_c, 5, 63, 0
11, 17999, Note_on_c, 5, 69, 0
11, 18000, Note_on_c, 5, 52, 76
11, 18000, Note_on_c, 5, 67, 76
11, 18000, Note_on_c, 5, 64, 76
11, 18000, Note_on_c, 5, 71, 76
11, 18119, Note_on_c, 5, 52, 0
11, 18119, Note_on_c, 5, 67, 0
11, 18119, Note_on_c, 5, 64, 0
11, 18119, Note_on_c, 5, 71, 0
11, 18120, Note_on_c, 5, 69, 76
11, 18120, Note_on_c, 5, 54, 76
11, 18120, Note_on_c, 5, 73, 76
11, 18120, Note_on_c, 5, 66, 76
11, 18239, Note_on_c, 5, 69, 0
11, 18239, Note_on_c, 5, 54, 0
11, 18239, Note_on_c, 5, 73, 0
11, 18239, Note_on_c, 5, 66, 0
11, 18240, Note_on_c, 5, 76, 76
11, 18240, Note_on_c, 5, 55, 76
11, 18240, Note_on_c, 5, 67, 76
11, 18240, Note_on_c, 5, 71, 76
11, 18359, Note_on_c, 5, 76, 0
11, 18359, Note_on_c, 5, 55, 0
11, 18359, Note_on_c, 5, 67, 0
11, 18359, Note_on_c, 5, 71, 0
11, 18360, Note_on_c, 5, 74, 76
11, 18360, Note_on_c, 5, 71, 76
11, 18360, Note_on_c, 5, 78, 76
11, 18360, Note_on_c, 5, 59, 76
11, 18479, Note_on_c, 5, 74, 0
11, 18479, Note_on_c, 5, 71, 0
11, 18479, Note_on_c, 5, 78, 0
11, 18479, Note_on_c, 5, 59, 0
11, 18480, Note_on_c, 5, 83, 76
11, 18480, Note_on_c, 5, 64, 76
11, 18480, Note_on_c, 5, 79, 76
11, 18480, Note_on_c, 5, 76, 76
11, 18599, Note_on_c, 5, 83, 0
11, 18599, Note_on_c, 5, 64, 0
11, 18599, Note_on_c, 5, 79, 0
11, 18599, Note_on_c, 5, 76, 0
11, 18600, Note_on_c, 5, 52, 76
11, 18600, Note_on_c, 5, 64, 76
11, 18600, Note_on_c, 5, 71, 76
11, 18600, Note_on_c, 5, 67, 76
11, 18719, Note_on_c, 5, 52, 0
11, 18719, Note_on_c, 5, 64, 0
11, 18719, Note_on_c, 5, 71, 0
11, 18719, Note_on_c, 5, 67, 0
11, 18720, Note_on_c, 5, 79, 76
11, 18720, Note_on_c, 5, 69, 76
11, 18720, Note_on_c, 5, 73, 76
11, 18720, Note_on_c, 5, 76, 76
11, 18720, Note_on_c, 5, 57, 76
11, 18959, Note_on_c, 5, 79, 0
11, 18959, Note_on_c, 5, 69, 0
11, 18959, Note_on_c, 5, 73, 0
11, 18959, Note_on_c, 5, 76, 0
11, 18959, Note_on_c, 5, 57, 0
11, 18960, Note_on_c, 5, 61, 76
11, 18960, Note_on_c, 5, 49, 76
11, 18960, Note_on_c, 5, 69, 76
11, 18960, Note_on_c, 5, 64, 76
11, 18960, Note_on_c, 5, 67, 76
11, 19199, Note_on_c, 5, 61, 0
11, 19199, Note_on_c, 5, 49, 0
11, 19199, Note_on_c, 5, 69, 0
11, 19199, Note_on_c, 5, 64, 0
11, 19199, Note_on_c, 5, 67, 0
11, 19200, Note_on_c, 5, 57, 76
11, 19200, Note_on_c, 5, 45, 76
11, 19200, Note_on_c, 5, 64, 76
11, 19200, Note_on_c, 5, 61, 76
11, 19200, Note_on_c, 5, 67, 76
11, 19439, Note_on_c, 5, 57, 0
11, 19439, Note_on_c, 5, 45, 0
11, 19439, Note_on_c, 5, 64, 0
11, 19439, Note_on_c, 5, 61, 0
11, 19439, Note_on_c, 5, 67, 0
11, 19440, Note_on_c, 5, 54, 76
11, 19440, Note_on_c, 5, 50, 76
11, 19440, Note_on_c, 5, 38, 76
11, 19440, Note_on_c, 5, 57, 76
11, 19559, Note_on_c, 5, 54, 0
11, 19559, Note_on_c, 5, 50, 0
11, 19559, Note_on_c, 5, 38, 0
11, 19559, Note_on_c, 5, 57, 0
11, 19560, Note_on_c, 5, 55, 76
11, 19560, Note_on_c, 5, 59, 76
11, 19560, Note_on_c, 5, 52, 76
11, 19560, Note_on_c, 5, 40, 76
11, 19679, Note_on_c, 5, 55, 0
11, 19679, Note_on_c, 5, 59, 0
11, 19679, Note_on_c, 5, 52, 0
11, 19679, Note_on_c, 5, 40, 0
11, 19680, Note_on_c, 5, 42, 76
11, 19680, Note_on_c, 5, 54, 76
11, 19680, Note_on_c, 5, 62, 76
11, 19680, Note_on_c, 5, 57, 76
11, 19799, Note_on_c, 5, 42, 0
11, 19799, Note_on_c, 5, 54, 0
11, 19799, Note_on_c, 5, 62, 0
11, 19799, Note_on_c, 5, 57, 0
11, 19800, Note_on_c, 5, 64, 76
11, 19800, Note_on_c, 5, 61, 76
11, 19800, Note_on_c, 5, 57, 76
11, 19800, Note_on_c, 5, 45, 76
11, 19919, Note_on_c, 5, 64, 0
11, 19919, Note_on_c, 5, 61, 0
11, 19919, Note_on_c, 5, 57, 0
11, 19919, Note_on_c, 5, 45, 0
11, 19920, Note_on_c, 5, 62, 76
11, 19920, Note_on_c, 5, 50, 76
11, 19920, Note_on_c, 5, 69, 76
11, 19920, Note_on_c, 5, 66, 76
11, 20039, Note_on_c, 5, 62, 0
11, 20039, Note_on_c, 5, 50, 0
11, 20039, Note_on_c, 5, 69, 0
11, 20039, Note_on_c, 5, 66, 0
11, 20040, Note_on_c, 5, 74, 76
11, 20040, Note_on_c, 5, 69, 76
11, 20040, Note_on_c, 5, 54, 76
11, 20040, Note_on_c, 5, 66, 76
11, 20159, Note_on_c, 5, 74, 0
11, 20159, Note_on_c, 5, 69, 0
11, 20159, Note_on_c, 5, 54, 0
11, 20159, Note_on_c, 5, 66, 0
11, 20160, Note_on_c, 5, 70, 76
11, 20160, Note_on_c, 5, 49, 76
11, 20160, Note_on_c, 5, 64, 76
11, 20160, Note_on_c, 5, 61, 76
11, 20399, Note_on_c, 5, 70, 0
11, 20399, Note_on_c, 5, 49, 0
11, 20399, Note_on_c, 5, 64, 0
11, 20399, Note_on_c, 5, 61, 0
11, 20400, Note_on_c, 5, 64, 76
11, 20400, Note_on_c, 5, 58, 76
11, 20400, Note_on_c, 5, 61, 76
11, 20400, Note_on_c, 5, 42, 76
11, 20400, Note_on_c, 5, 54, 76
11, 20639, Note_on_c, 5, 64, 0
11, 20639, Note_on_c, 5, 58, 0
11, 20639, Note_on_c, 5, 61, 0
11, 20639, Note_on_c, 5, 42, 0
11, 20639, Note_on_c, 5, 54, 0
11, 20640, Note_on_c, 5, 66, 76
11, 20640, Note_on_c, 5, 47, 76
11, 20640, Note_on_c, 5, 59, 76
11, 20640, Note_on_c, 5, 62, 76
11, 20879, Note_on_c, 5, 66, 0
11, 20879, Note_on_c, 5, 47, 0
11, 20879, Note_on_c, 5, 59, 0
11, 20879, Note_on_c, 5, 62, 0
11, 20880, Note_on_c, 5, 52, 76
11, 20880, Note_on_c, 5, 40, 76
11, 20880, Note_on_c, 5, 55, 76
11, 20880, Note_on_c, 5, 59, 76
11, 21119, Note_on_c, 5, 52, 0
11, 21119, Note_on_c, 5, 40, 0
11, 21119, Note_on_c, 5, 55, 0
11, 21119, Note_on_c, 5, 59, 0
11, 21120, Note_on_c, 5, 55, 76
11, 21120, Note_on_c, 5, 71, 76
11, 21120, Note_on_c, 5, 67, 76
11, 21120, Note_on_c, 5, 76, 76
11, 21239, Note_on_c, 5, 55, 0
11, 21239, Note_on_c, 5, 71, 0
11, 21239, Note_on_c, 5, 67, 0
11, 21239, Note_on_c, 5, 76, 0
11, 21240, Note_on_c, 5, 54, 76
11, 21240, Note_on_c, 5, 73, 76
11, 21240, Note_on_c, 5, 69, 76
11, 21240, Note_on_c, 5, 66, 76
11, 21359, Note_on_c, 5, 54, 0
11, 21359, Note_on_c, 5, 73, 0
11, 21359, Note_on_c, 5, 69, 0
11, 21359, Note_on_c, 5, 66, 0
11, 21360, Note_on_c, 5, 52, 76
11, 21360, Note_on_c, 5, 66, 76
11, 21360, Note_on_c, 5, 70, 76
11, 21360, Note_on_c, 5, 73, 76
11, 21360, Note_on_c, 5, 64, 76
11, 21479, Note_on_c, 5, 52, 0
11, 21479, Note_on_c, 5, 66, 0
11, 21479, Note_on_c, 5, 70, 0
11, 21479, Note_on_c, 5, 73, 0
11, 21479, Note_on_c, 5, 64, 0
11, 21480, Note_on_c, 5, 73, 76
11, 21480, Note_on_c, 5, 70, 76
11, 21480, Note_on_c, 5, 54, 76
11, 21480, Note_on_c, 5, 66, 76
11, 21599, Note_on_c, 5, 73, 0
11, 21599, Note_on_c, 5, 70, 0
11, 21599, Note_on_c, 5, 54, 0
11, 21599, Note_on_c, 5, 66, 0
11, 21600, Note_on_c, 5, 71, 76
11, 21600, Note_on_c, 5, 50, 76
11, 21600, Note_on_c, 5, 66, 76
11, 21600, Note_on_c, 5, 62, 76
11, 21719, Note_on_c, 5, 71, 0
11, 21719, Note_on_c, 5, 50, 0
11, 21719, Note_on_c, 5, 66, 0
11, 21719, Note_on_c, 5, 62, 0
11, 21720, Note_on_c, 5, 71, 76
11, 21720, Note_on_c, 5, 67, 76
11, 21720, Note_on_c, 5, 52, 76
11, 21720, Note_on_c, 5, 64, 76
11, 21839, Note_on_c, 5, 71, 0
11, 21839, Note_on_c, 5, 67, 0
11, 21839, Note_on_c, 5, 52, 0
11, 21839, Note_on_c, 5, 64, 0
11, 21840, Note_on_c, 5, 71, 76
11, 21840, Note_on_c, 5, 66, 76
11, 21840, Note_on_c, 5, 74, 76
11, 21840, Note_on_c, 5, 54, 76
11, 22079, Note_on_c, 5, 71, 0
11, 22079, Note_on_c, 5, 66, 0
11, 22079, Note_on_c, 5, 74, 0
11, 22079, Note_on_c, 5, 54, 0
11, 22080, Note_on_c, 5, 58, 76
11, 22080, Note_on_c, 5, 61, 76
11, 22080, Note_on_c, 5, 54, 76
11, 22080, Note_on_c, 5, 42, 76
11, 22319, Note_on_c, 5, 58, 0
11, 22319, Note_on_c, 5, 61, 0
11, 22319, Note_on_c, 5, 54, 0
11, 22319, Note_on_c, 5, 42, 0
11, 22320, Note_on_c, 5, 66, 76
11, 22320, Note_on_c, 5, 59, 76
11, 22320, Note_on_c, 5, 47, 76
11, 22320, Note_on_c, 5, 62, 76
11, 23039, Note_on_c, 5, 66, 0
11, 23039, Note_on_c, 5, 59, 0
11, 23039, Note_on_c, 5, 47, 0
11, 23039, Note_on_c, 5, 62, 0
11, 23040, Note_on_c, 5, 66, 76
11, 23040, Note_on_c, 5, 61, 76
11, 23040, Note_on_c, 5, 58, 76
11, 23040, Note_on_c, 5, 46, 76
11, 23279, Note_on_c, 5, 66, 0
11, 23279, Note_on_c, 5, 61, 0
11, 23279, Note_on_c, 5, 58, 0
11, 23279, Note_on_c, 5, 46, 0
11, 23280, Note_on_c, 5, 54, 76
11, 23280, Note_on_c, 5, 58, 76
11, 23280, Note_on_c, 5, 42, 76
11, 23280, Note_on_c, 5, 61, 76
11, 23519, Note_on_c, 5, 54, 0
11, 23519, Note_on_c, 5, 58, 0
11, 23519, Note_on_c, 5, 42, 0
11, 23519, Note_on_c, 5, 61, 0
11, 23520, Note_on_c, 5, 66, 76
11, 23520, Note_on_c, 5, 61, 76
11, 23520, Note_on_c, 5, 46, 76
11, 23520, Note_on_c, 5, 58, 76
11, 23759, Note_on_c, 5, 66, 0
11, 23759, Note_on_c, 5, 61, 0
11, 23759, Note_on_c, 5, 46, 0
11, 23759, Note_on_c, 5, 58, 0
11, 23760, Note_on_c, 5, 59, 76
11, 23760, Note_on_c, 5, 47, 76
11, 23760, Note_on_c, 5, 66, 76
11, 23760, Note_on_c, 5, 62, 76
11, 23879, Note_on_c, 5, 59, 0
11, 23879, Note_on_c, 5, 47, 0
11, 23879, Note_on_c, 5, 66, 0
11, 23879, Note_on_c, 5, 62, 0
11, 23880, Note_on_c, 5, 49, 76
11, 23880, Note_on_c, 5, 64, 76
11, 23880, Note_on_c, 5, 67, 76
11, 23880, Note_on_c, 5, 61, 76
11, 23999, Note_on_c, 5, 49, 0
11, 23999, Note_on_c, 5, 64, 0
11, 23999, Note_on_c, 5, 67, 0
11, 23999, Note_on_c, 5, 61, 0
11, 24000, Note_on_c, 5, 66, 76
11, 24000, Note_on_c, 5, 62, 76
11, 24000, Note_on_c, 5, 50, 76
11, 24000, Note_on_c, 5, 71, 76
11, 24119, Note_on_c, 5, 66, 0
11, 24119, Note_on_c, 5, 62, 0
11, 24119, Note_on_c, 5, 50, 0
11, 24119, Note_on_c, 5, 71, 0
11, 24120, Note_on_c, 5, 66, 76
11, 24120, Note_on_c, 5, 69, 76
11, 24120, Note_on_c, 5, 54, 76
11, 24120, Note_on_c, 5, 73, 76
11, 24239, Note_on_c, 5, 66, 0
11, 24239, Note_on_c, 5, 69, 0
11, 24239, Note_on_c, 5, 54, 0
11, 24239, Note_on_c, 5, 73, 0
11, 24240, Note_on_c, 5, 59, 76
11, 24240, Note_on_c, 5, 74, 76
11, 24240, Note_on_c, 5, 71, 76
11, 24240, Note_on_c, 5, 78, 76
11, 24359, Note_on_c, 5, 59, 0
11, 24359, Note_on_c, 5, 74, 0
11, 24359, Note_on_c, 5, 71, 0
11, 24359, Note_on_c, 5, 78, 0
11, 24360, Note_on_c, 5, 62, 76
11, 24360, Note_on_c, 5, 66, 76
11, 24360, Note_on_c, 5, 59, 76
11, 24360, Note_on_c, 5, 47, 76
11, 24479, Note_on_c, 5, 62, 0
11, 24479, Note_on_c, 5, 66, 0
11, 24479, Note_on_c, 5, 59, 0
11, 24479, Note_on_c, 5, 47, 0
11, 24480, Note_on_c, 5, 69, 76
11, 24480, Note_on_c, 5, 61, 76
11, 24480, Note_on_c, 5, 64, 76
11, 24480, Note_on_c, 5, 49, 76
11, 24719, Note_on_c, 5, 69, 0
11, 24719, Note_on_c, 5, 61, 0
11, 24719, Note_on_c, 5, 64, 0
11, 24719, Note_on_c, 5, 49, 0
11, 24720, Note_on_c, 5, 64, 76
11, 24720, Note_on_c, 5, 61, 76
11, 24720, Note_on_c, 5, 57, 76
11, 24720, Note_on_c, 5, 45, 76
11, 24959, Note_on_c, 5, 64, 0
11, 24959, Note_on_c, 5, 61, 0
11, 24959, Note_on_c, 5, 57, 0
11, 24959, Note_on_c, 5, 45, 0
11, 24960, Note_on_c, 5, 49, 76
11, 24960, Note_on_c, 5, 61, 76
11, 24960, Note_on_c, 5, 69, 76
11, 24960, Note_on_c, 5, 64, 76
11, 25199, Note_on_c, 5, 49, 0
11, 25199, Note_on_c, 5, 61, 0
11, 25199, Note_on_c, 5, 69, 0
11, 25199, Note_on_c, 5, 64, 0
11, 25200, Note_on_c, 5, 69, 76
11, 25200, Note_on_c, 5, 50, 76
11, 25200, Note_on_c, 5, 66, 76
11, 25200, Note_on_c, 5, 62, 76
11, 25319, Note_on_c, 5, 69, 0
11, 25319, Note_on_c, 5, 50, 0
11, 25319, Note_on_c, 5, 66, 0
11, 25319, Note_on_c, 5, 62, 0
11, 25320, Note_on_c, 5, 71, 76
11, 25320, Note_on_c, 5, 64, 76
11, 25320, Note_on_c, 5, 67, 76
11, 25320, Note_on_c, 5, 52, 76
11, 25439, Note_on_c, 5, 71, 0
11, 25439, Note_on_c, 5, 64, 0
11, 25439, Note_on_c, 5, 67, 0
11, 25439, Note_on_c, 5, 52, 0
11, 25440, Note_on_c, 5, 74, 76
11, 25440, Note_on_c, 5, 54, 76
11, 25440, Note_on_c, 5, 66, 76
11, 25440, Note_on_c, 5, 69, 76
11, 25559, Note_on_c, 5, 74, 0
11, 25559, Note_on_c, 5, 54, 0
11, 25559, Note_on_c, 5, 66, 0
11, 25559, Note_on_c, 5, 69, 0
11, 25560, Note_on_c, 5, 69, 76
11, 25560, Note_on_c, 5, 57, 76
11, 25560, Note_on_c, 5, 73, 76
11, 25560, Note_on_c, 5, 76, 76
11, 25679, Note_on_c, 5, 69, 0
11, 25679, Note_on_c, 5, 57, 0
11, 25679, Note_on_c, 5, 73, 0
11, 25679, Note_on_c, 5, 76, 0
11, 25680, Note_on_c, 5, 81, 76
11, 25680, Note_on_c, 5, 78, 76
11, 25680, Note_on_c, 5, 74, 76
11, 25680, Note_on_c, 5, 62, 76
11, 25799, Note_on_c, 5, 81, 0
11, 25799, Note_on_c, 5, 78, 0
11, 25799, Note_on_c, 5, 74, 0
11, 25799, Note_on_c, 5, 62, 0
11, 25800, Note_on_c, 5, 50, 76
11, 25800, Note_on_c, 5, 69, 76
11, 25800, Note_on_c, 5, 62, 76
11, 25800, Note_on_c, 5, 66, 76
11, 25919, Note_on_c, 5, 50, 0
11, 25919, Note_on_c, 5, 69, 0
11, 25919, Note_on_c, 5, 62, 0
11, 25919, Note_on_c, 5, 66, 0
11, 25920, Note_on_c, 5, 74, 76
11, 25920, Note_on_c, 5, 67, 76
11, 25920, Note_on_c, 5, 55, 76
11, 25920, Note_on_c, 5, 71, 76
11, 26159, Note_on_c, 5, 74, 0
11, 26159, Note_on_c, 5, 67, 0
11, 26159, Note_on_c, 5, 55, 0
11, 26159, Note_on_c, 5, 71, 0
11, 26160, Note_on_c, 5, 74, 76
11, 26160, Note_on_c, 5, 59, 76
11, 26160, Note_on_c, 5, 79, 76
11, 26160, Note_on_c, 5, 71, 76
11, 26399, Note_on_c, 5, 74, 0
11, 26399, Note_on_c, 5, 59, 0
11, 26399, Note_on_c, 5, 79, 0
11, 26399, Note_on_c, 5, 71, 0
11, 26400, Note_on_c, 5, 74, 76
11, 26400, Note_on_c, 5, 71, 76
11, 26400, Note_on_c, 5, 64, 76
11, 26400, Note_on_c, 5, 52, 76
11, 26400, Note_on_c, 5, 67, 76
11, 26639, Note_on_c, 5, 74, 0
11, 26639, Note_on_c, 5, 71, 0
11, 26639, Note_on_c, 5, 64, 0
11, 26639, Note_on_c, 5, 52, 0
11, 26639, Note_on_c, 5, 67, 0
11, 26640, Note_on_c, 5, 74, 76
11, 26640, Note_on_c, 5, 69, 76
11, 26640, Note_on_c, 5, 66, 76
11, 26640, Note_on_c, 5, 54, 76
11, 26879, Note_on_c, 5, 74, 0
11, 26879, Note_on_c, 5, 69, 0
11, 26879, Note_on_c, 5, 66, 0
11, 26879, Note_on_c, 5, 54, 0
11, 26880, Note_on_c, 5, 57, 76
11, 26880, Note_on_c, 5, 69, 76
11, 26880, Note_on_c, 5, 78, 76
11, 26880, Note_on_c, 5, 74, 76
11, 27119, Note_on_c, 5, 57, 0
11, 27119, Note_on_c, 5, 69, 0
11, 27119, Note_on_c, 5, 78, 0
11, 27119, Note_on_c, 5, 74, 0
11, 27120, Note_on_c, 5, 62, 76
11, 27120, Note_on_c, 5, 66, 76
11, 27120, Note_on_c, 5, 50, 76
11, 27120, Note_on_c, 5, 59, 76
11, 27359, Note_on_c, 5, 62, 0
11, 27359, Note_on_c, 5, 66, 0
11, 27359, Note_on_c, 5, 50, 0
11, 27359, Note_on_c, 5, 59, 0
11, 27360, Note_on_c, 5, 47, 76
11, 27360, Note_on_c, 5, 62, 76
11, 27360, Note_on_c, 5, 59, 76
11, 27360, Note_on_c, 5, 67, 76
11, 27599, Note_on_c, 5, 47, 0
11, 27599, Note_on_c, 5, 62, 0
11, 27599, Note_on_c, 5, 59, 0
11, 27599, Note_on_c, 5, 67, 0
11, 27600, Note_on_c, 5, 62, 76
11, 27600, Note_on_c, 5, 59, 76
11, 27600, Note_on_c, 5, 66, 76
11, 27600, Note_on_c, 5, 55, 76
11, 27600, Note_on_c, 5, 43, 76
11, 27839, Note_on_c, 5, 62, 0
11, 27839, Note_on_c, 5, 59, 0
11, 27839, Note_on_c, 5, 66, 0
11, 27839, Note_on_c, 5, 55, 0
11, 27839, Note_on_c, 5, 43, 0
11, 27840, Note_on_c, 5, 57, 76
11, 27840, Note_on_c, 5, 64, 76
11, 27840, Note_on_c, 5, 45, 76
11, 27840, Note_on_c, 5, 61, 76
11, 28079, Note_on_c, 5, 57, 0
11, 28079, Note_on_c, 5, 64, 0
11, 28079, Note_on_c, 5, 45, 0
11, 28079, Note_on_c, 5, 61, 0
11, 28080, Note_on_c, 5, 54, 76
11, 28080, Note_on_c, 5, 57, 76
11, 28080, Note_on_c, 5, 38, 76
11, 28080, Note_on_c, 5, 50, 76
11, 28199, Note_on_c, 5, 54, 0
11, 28199, Note_on_c, 5, 57, 0
11, 28199, Note_on_c, 5, 38, 0
11, 28199, Note_on_c, 5, 50, 0
11, 28200, Note_on_c, 5, 61, 76
11, 28200, Note_on_c, 5, 42, 76
11, 28200, Note_on_c, 5, 57, 76
11, 28200, Note_on_c, 5, 54, 76
11, 28319, Note_on_c, 5, 61, 0
11, 28319, Note_on_c, 5, 42, 0
11, 28319, Note_on_c, 5, 57, 0
11, 28319, Note_on_c, 5, 54, 0
11, 28320, Note_on_c, 5, 64, 76
11, 28320, Note_on_c, 5, 57, 76
11, 28320, Note_on_c, 5, 45, 76
11, 28320, Note_on_c, 5, 61, 76
11, 28439, Note_on_c, 5, 64, 0
11, 28439, Note_on_c, 5, 57, 0
11, 28439, Note_on_c, 5, 45, 0
11, 28439, Note_on_c, 5, 61, 0
11, 28440, Note_on_c, 5, 50, 76
11, 28440, Note_on_c, 5, 66, 76
11, 28440, Note_on_c, 5, 69, 76
11, 28440, Note_on_c, 5, 62, 76
11, 28559, Note_on_c, 5, 50, 0
11, 28559, Note_on_c, 5, 66, 0
11, 28559, Note_on_c, 5, 69, 0
11, 28559, Note_on_c, 5, 62, 0
11, 28560, Note_on_c, 5, 54, 76
11, 28560, Note_on_c, 5, 69, 76
11, 28560, Note_on_c, 5, 66, 76
11, 28560, Note_on_c, 5, 73, 76
11, 28679, Note_on_c, 5, 54, 0
11, 28679, Note_on_c, 5, 69, 0
11, 28679, Note_on_c, 5, 66, 0
11, 28679, Note_on_c, 5, 73, 0
11, 28680, Note_on_c, 5, 69, 76
11, 28680, Note_on_c, 5, 73, 76
11, 28680, Note_on_c, 5, 76, 76
11, 28680, Note_on_c, 5, 57, 76
11, 28799, Note_on_c, 5, 69, 0
11, 28799, Note_on_c, 5, 73, 0
11, 28799, Note_on_c, 5, 76, 0
11, 28799, Note_on_c, 5, 57, 0
11, 28800, Note_on_c, 5, 63, 76
11, 28800, Note_on_c, 5, 59, 76
11, 28800, Note_on_c, 5, 69, 76
11, 28800, Note_on_c, 5, 66, 76
11, 28800, Note_on_c, 5, 47, 76
11, 29039, Note_on_c, 5, 63, 0
11, 29039, Note_on_c, 5, 59, 0
11, 29039, Note_on_c, 5, 69, 0
11, 29039, Note_on_c, 5, 66, 0
11, 29039, Note_on_c, 5, 47, 0
11, 29040, Note_on_c, 5, 59, 76
11, 29040, Note_on_c, 5, 78, 76
11, 29040, Note_on_c, 5, 75, 76
11, 29040, Note_on_c, 5, 71, 76
11, 29279, Note_on_c, 5, 59, 0
11, 29279, Note_on_c, 5, 78, 0
11, 29279, Note_on_c, 5, 75, 0
11, 29279, Note_on_c, 5, 71, 0
11, 29280, Note_on_c, 5, 69, 76
11, 29280, Note_on_c, 5, 71, 76
11, 29280, Note_on_c, 5, 63, 76
11, 29280, Note_on_c, 5, 51, 76
11, 29280, Note_on_c, 5, 66, 76
11, 29519, Note_on_c, 5, 69, 0
11, 29519, Note_on_c, 5, 71, 0
11, 29519, Note_on_c, 5, 63, 0
11, 29519, Note_on_c, 5, 51, 0
11, 29519, Note_on_c, 5, 66, 0
11, 29520, Note_on_c, 5, 52, 76
11, 29520, Note_on_c, 5, 67, 76
11, 29520, Note_on_c, 5, 71, 76
11, 29520, Note_on_c, 5, 64, 76
11, 29639, Note_on_c, 5, 52, 0
11, 29639, Note_on_c, 5, 67, 0
11, 29639, Note_on_c, 5, 71, 0
11, 29639, Note_on_c, 5, 64, 0
11, 29640, Note_on_c, 5, 66, 76
11, 29640, Note_on_c, 5, 54, 76
11, 29640, Note_on_c, 5, 73, 76
11, 29640, Note_on_c, 5, 69, 76
11, 29759, Note_on_c, 5, 66, 0
11, 29759, Note_on_c, 5, 54, 0
11, 29759, Note_on_c, 5, 73, 0
11, 29759, Note_on_c, 5, 69, 0
11, 29760, Note_on_c, 5, 76, 76
11, 29760, Note_on_c, 5, 67, 76
11, 29760, Note_on_c, 5, 55, 76
11, 29760, Note_on_c, 5, 71, 76
11, 29879, Note_on_c, 5, 76, 0
11, 29879, Note_on_c, 5, 67, 0
11, 29879, Note_on_c, 5, 55, 0
11, 29879, Note_on_c, 5, 71, 0
11, 29880, Note_on_c, 5, 71, 76
11, 29880, Note_on_c, 5, 74, 76
11, 29880, Note_on_c, 5, 59, 76
11, 29880, Note_on_c, 5, 78, 76
11, 29999, Note_on_c, 5, 71, 0
11, 29999, Note_on_c, 5, 74, 0
11, 29999, Note_on_c, 5, 59, 0
11, 29999, Note_on_c, 5, 78, 0
11, 30000, Note_on_c, 5, 83, 76
11, 30000, Note_on_c, 5, 64, 76
11, 30000, Note_on_c, 5, 79, 76
11, 30000, Note_on_c, 5, 76, 76
11, 30119, Note_on_c, 5, 83, 0
11, 30119, Note_on_c, 5, 64, 0
11, 30119, Note_on_c, 5, 79, 0
11, 30119, Note_on_c, 5, 76, 0
11, 30120, Note_on_c, 5, 52, 76
11, 30120, Note_on_c, 5, 71, 76
11, 30120, Note_on_c, 5, 67, 76
11, 30120, Note_on_c, 5, 64, 76
11, 30239, Note_on_c, 5, 52, 0
11, 30239, Note_on_c, 5, 71, 0
11, 30239, Note_on_c, 5, 67, 0
11, 30239, Note_on_c, 5, 64, 0
11, 30240, Note_on_c, 5, 73, 76
11, 30240, Note_on_c, 5, 69, 76
11, 30240, Note_on_c, 5, 79, 76
11, 30240, Note_on_c, 5, 57, 76
11, 30240, Note_on_c, 5, 76, 76
11, 30479, Note_on_c, 5, 73, 0
11, 30479, Note_on_c, 5, 69, 0
11, 30479, Note_on_c, 5, 79, 0
11, 30479, Note_on_c, 5, 57, 0
11, 30479, Note_on_c, 5, 76, 0
11, 30480, Note_on_c, 5, 49, 76
11, 30480, Note_on_c, 5, 64, 76
11, 30480, Note_on_c, 5, 69, 76
11, 30480, Note_on_c, 5, 67, 76
11, 30480, Note_on_c, 5, 61, 76
11, 30719, Note_on_c, 5, 49, 0
11, 30719, Note_on_c, 5, 64, 0
11, 30719, Note_on_c, 5, 69, 0
11, 30719, Note_on_c, 5, 67, 0
11, 30719, Note_on_c, 5, 61, 0
11, 30720, Note_on_c, 5, 57, 76
11, 30720, Note_on_c, 5, 64, 76
11, 30720, Note_on_c, 5, 61, 76
11, 30720, Note_on_c, 5, 67, 76
11, 30720, Note_on_c, 5, 45, 76
11, 30959, Note_on_c, 5, 57, 0
11, 30959, Note_on_c, 5, 64, 0
11, 30959, Note_on_c, 5, 61, 0
11, 30959, Note_on_c, 5, 67, 0
11, 30959, Note_on_c, 5, 45, 0
11, 30960, Note_on_c, 5, 50, 76
11, 30960, Note_on_c, 5, 38, 76
11, 30960, Note_on_c, 5, 57, 76
11, 30960, Note_on_c, 5, 54, 76
11, 31079, Note_on_c, 5, 50, 0
11, 31079, Note_on_c, 5, 38, 0
11, 31079, Note_on_c, 5, 57, 0
11, 31079, Note_on_c, 5, 54, 0
11, 31080, Note_on_c, 5, 52, 76
11, 31080, Note_on_c, 5, 40, 76
11, 31080, Note_on_c, 5, 59, 76
11, 31080, Note_on_c, 5, 55, 76
11, 31199, Note_on_c, 5, 52, 0
11, 31199, Note_on_c, 5, 40, 0
11, 31199, Note_on_c, 5, 59, 0
11, 31199, Note_on_c, 5, 55, 0
11, 31200, Note_on_c, 5, 54, 76
11, 31200, Note_on_c, 5, 57, 76
11, 31200, Note_on_c, 5, 62, 76
11, 31200, Note_on_c, 5, 42, 76
11, 31319, Note_on_c, 5, 54, 0
11, 31319, Note_on_c, 5, 57, 0
11, 31319, Note_on_c, 5, 62, 0
11, 31319, Note_on_c, 5, 42, 0
11, 31320, Note_on_c, 5, 45, 76
11, 31320, Note_on_c, 5, 61, 76
11, 31320, Note_on_c, 5, 64, 76
11, 31320, Note_on_c, 5, 57, 76
11, 31439, Note_on_c, 5, 45, 0
11, 31439, Note_on_c, 5, 61, 0
11, 31439, Note_on_c, 5, 64, 0
11, 31439, Note_on_c, 5, 57, 0
11, 31440, Note_on_c, 5, 69, 76
11, 31440, Note_on_c, 5, 50, 76
11, 31440, Note_on_c, 5, 66, 76
11, 31440, Note_on_c, 5, 62, 76
11, 31559, Note_on_c, 5, 69, 0
11, 31559, Note_on_c, 5, 50, 0
11, 31559, Note_on_c, 5, 66, 0
11, 31559, Note_on_c, 5, 62, 0
11, 31560, Note_on_c, 5, 54, 76
11, 31560, Note_on_c, 5, 69, 76
11, 31560, Note_on_c, 5, 66, 76
11, 31560, Note_on_c, 5, 74, 76
11, 31679, Note_on_c, 5, 54, 0
11, 31679, Note_on_c, 5, 69, 0
11, 31679, Note_on_c, 5, 66, 0
11, 31679, Note_on_c, 5, 74, 0
11, 31680, Note_on_c, 5, 49, 76
11, 31680, Note_on_c, 5, 61, 76
11, 31680, Note_on_c, 5, 70, 76
11, 31680, Note_on_c, 5, 64, 76
11, 31919, Note_on_c, 5, 49, 0
11, 31919, Note_on_c, 5, 61, 0
11, 31919, Note_on_c, 5, 70, 0
11, 31919, Note_on_c, 5, 64, 0
11, 31920, Note_on_c, 5, 61, 76
11, 31920, Note_on_c, 5, 58, 76
11, 31920, Note_on_c, 5, 42, 76
11, 31920, Note_on_c, 5, 64, 76
11, 31920, Note_on_c, 5, 54, 76
11, 32159, Note_on_c, 5, 61, 0
11, 32159, Note_on_c, 5, 58, 0
11, 32159, Note_on_c, 5, 42, 0
11, 32159, Note_on_c, 5, 64, 0
11, 32159, Note_on_c, 5, 54, 0
11, 32160, Note_on_c, 5, 59, 76
11, 32160, Note_on_c, 5, 66, 76
11, 32160, Note_on_c, 5, 47, 76
11, 32160, Note_on_c, 5, 62, 76
11, 32399, Note_on_c, 5, 59, 0
11, 32399, Note_on_c, 5, 66, 0
11, 32399, Note_on_c, 5, 47, 0
11, 32399, Note_on_c, 5, 62, 0
11, 32400, Note_on_c, 5, 40, 76
11, 32400, Note_on_c, 5, 59, 76
11, 32400, Note_on_c, 5, 55, 76
11, 32400, Note_on_c, 5, 52, 76
11, 32639, Note_on_c, 5, 40, 0
11, 32639, Note_on_c, 5, 59, 0
11, 32639, Note_on_c, 5, 55, 0
11, 32639, Note_on_c, 5, 52, 0
11, 32640, Note_on_c, 5, 71, 76
11, 32640, Note_on_c, 5, 67, 76
11, 32640, Note_on_c, 5, 76, 76
11, 32640, Note_on_c, 5, 55, 76
11, 32759, Note_on_c, 5, 71, 0
11, 32759, Note_on_c, 5, 67, 0
11, 32759, Note_on_c, 5, 76, 0
11, 32759, Note_on_c, 5, 55, 0
11, 32760, Note_on_c, 5, 73, 76
11, 32760, Note_on_c, 5, 69, 76
11, 32760, Note_on_c, 5, 54, 76
11, 32760, Note_on_c, 5, 66, 76
11, 32879, Note_on_c, 5, 73, 0
11, 32879, Note_on_c, 5, 69, 0
11, 32879, Note_on_c, 5, 54, 0
11, 32879, Note_on_c, 5, 66, 0
11, 32880, Note_on_c, 5, 66, 76
11, 32880, Note_on_c, 5, 52, 76
11, 32880, Note_on_c, 5, 70, 76
11, 32880, Note_on_c, 5, 64, 76
11, 32880, Note_on_c, 5, 73, 76
11, 32999, Note_on_c, 5, 66, 0
11, 32999, Note_on_c, 5, 52, 0
11, 32999, Note_on_c, 5, 70, 0
11, 32999, Note_on_c, 5, 64, 0
11, 32999, Note_on_c, 5, 73, 0
11, 33000, Note_on_c, 5, 73, 76
11, 33000, Note_on_c, 5, 54, 76
11, 33000, Note_on_c, 5, 66, 76
11, 33000, Note_on_c, 5, 70, 76
11, 33119, Note_on_c, 5, 73, 0
11, 33119, Note_on_c, 5, 54, 0
11, 33119, Note_on_c, 5, 66, 0
11, 33119, Note_on_c, 5, 70, 0
11, 33120, Note_on_c, 5, 66, 76
11, 33120, Note_on_c, 5, 71, 76
11, 33120, Note_on_c, 5, 62, 76
11, 33120, Note_on_c, 5, 50, 76
11, 33239, Note_on_c, 5, 66, 0
11, 33239, Note_on_c, 5, 71, 0
11, 33239, Note_on_c, 5, 62, 0
11, 33239, Note_on_c, 5, 50, 0
11, 33240, Note_on_c, 5, 71, 76
11, 33240, Note_on_c, 5, 64, 76
11, 33240, Note_on_c, 5, 67, 76
11, 33240, Note_on_c, 5, 52, 76
11, 33359, Note_on_c, 5, 71, 0
11, 33359, Note_on_c, 5, 64, 0
11, 33359, Note_on_c, 5, 67, 0
11, 33359, Note_on_c, 5, 52, 0
11, 33360, Note_on_c, 5, 74, 76
11, 33360, Note_on_c, 5, 66, 76
11, 33360, Note_on_c, 5, 71, 76
11, 33360, Note_on_c, 5, 54, 76
11, 33599, Note_on_c, 5, 74, 0
11, 33599, Note_on_c, 5, 66, 0
11, 33599, Note_on_c, 5, 71, 0
11, 33599, Note_on_c, 5, 54, 0
11, 33600, Note_on_c, 5, 42, 76
11, 33600, Note_on_c, 5, 54, 76
11, 33600, Note_on_c, 5, 58, 76
11, 33600, Note_on_c, 5, 61, 76
11, 33839, Note_on_c, 5, 42, 0
11, 33839, Note_on_c, 5, 54, 0
11, 33839, Note_on_c, 5, 58, 0
11, 33839, Note_on_c, 5, 61, 0
11, 33840, Note_on_c, 5, 47, 76
11, 33840, Note_on_c, 5, 62, 76
11, 33840, Note_on_c, 5, 66, 76
11, 33840, Note_on_c, 5, 59, 76
11, 34559, Note_on_c, 5, 47, 0
11, 34559, Note_on_c, 5, 62, 0
11, 34559, Note_on_c, 5, 66, 0
11, 34559, Note_on_c, 5, 59, 0
11, 34559, End_track
12, 0, Start_track
12, 0, MIDI_port, 0
12, 0, End_track
13, 0, Start_track
13, 0, Title_t, "Johann Sebastian Bach - Orchestral Suite No. 2 in B minor, BWV1067 - No. 6 Menuet"
13, 0, MIDI_port, 0
13, 0, End_track
0, 0, End_of_file
