0, 0, Header, 1, 19, 480
1, 0, Start_track
1, 0, Title_t, "Passaglia & Fugue in C minor"
1, 0, Copyright_t, "All Rights Reserved "
1, 0, Tempo, 1000000
1, 0, Time_signature, 3, 2, 24, 8
1, 0, Key_signature, -3, "major"
1, 237600, Tempo, 1153846
1, 240480, Tempo, 1304347
1, 243360, Tempo, 857142
1, 405120, Tempo, 1000000
1, 405600, Tempo, 923076
1, 406080, Tempo, 1090909
1, 407520, Tempo, 1200000
1, 408000, Tempo, 1333333
1, 408480, Tempo, 1500000
1, 409920, Tempo, 1714285
1, 410880, Tempo, 3000000
1, 411120, Tempo, 1500000
1, 413760, Tempo, 1500000
1, 414720, Tempo, 1578947
1, 415680, Tempo, 1666666
1, 416160, Tempo, 1764705
1, 417120, Tempo, 1875000
1, 417600, Tempo, 2000000
1, 418560, Tempo, 2142857
1, 419040, Tempo, 2307692
1, 420000, Tempo, 2500000
1, 420000, End_track
2, 0, Start_track
2, 0, Title_t, "Passaglia & Fugue in"
2, 0, MIDI_port, 0
2, 0, Channel_prefix, 0
2, 0, Control_c, 0, 7, 107
2, 0, Control_c, 0, 10, 44
2, 0, Control_c, 0, 91, 60
2, 0, Program_c, 0, 73
2, 24240, Note_on_c, 0, 84, 30
2, 24840, Note_off_c, 0, 84, 64
2, 24840, Note_on_c, 0, 86, 30
2, 24960, Note_off_c, 0, 86, 64
2, 24960, Note_on_c, 0, 83, 30
2, 25360, Note_off_c, 0, 83, 64
2, 25680, Note_on_c, 0, 82, 30
2, 26280, Note_off_c, 0, 82, 64
2, 26280, Note_on_c, 0, 84, 30
2, 26400, Note_off_c, 0, 84, 64
2, 26400, Note_on_c, 0, 80, 30
2, 26800, Note_off_c, 0, 80, 64
2, 27120, Note_on_c, 0, 79, 30
2, 27720, Note_off_c, 0, 79, 64
2, 27720, Note_on_c, 0, 80, 30
2, 27840, Note_off_c, 0, 80, 64
2, 27840, Note_on_c, 0, 77, 30
2, 28240, Note_off_c, 0, 77, 64
2, 28560, Note_on_c, 0, 80, 30
2, 29040, Note_off_c, 0, 80, 64
2, 29040, Note_on_c, 0, 79, 30
2, 29280, Note_off_c, 0, 79, 64
2, 29280, Note_on_c, 0, 79, 30
2, 29340, Note_off_c, 0, 79, 64
2, 29340, Note_on_c, 0, 80, 30
2, 29400, Note_off_c, 0, 80, 64
2, 29400, Note_on_c, 0, 79, 30
2, 29755, Note_off_c, 0, 79, 64
2, 30000, Note_on_c, 0, 77, 30
2, 30600, Note_off_c, 0, 77, 64
2, 30600, Note_on_c, 0, 79, 30
2, 30720, Note_off_c, 0, 79, 64
2, 30720, Note_on_c, 0, 75, 30
2, 31120, Note_off_c, 0, 75, 64
2, 31440, Note_on_c, 0, 74, 30
2, 32040, Note_off_c, 0, 74, 64
2, 32040, Note_on_c, 0, 75, 30
2, 32160, Note_off_c, 0, 75, 64
2, 32160, Note_on_c, 0, 72, 30
2, 32560, Note_off_c, 0, 72, 64
2, 32880, Note_on_c, 0, 72, 30
2, 33480, Note_off_c, 0, 72, 64
2, 33480, Note_on_c, 0, 74, 30
2, 33600, Note_off_c, 0, 74, 64
2, 33600, Note_on_c, 0, 71, 30
2, 33630, Note_off_c, 0, 71, 64
2, 33630, Note_on_c, 0, 72, 30
2, 33660, Note_off_c, 0, 72, 64
2, 33660, Note_on_c, 0, 71, 30
2, 33690, Note_off_c, 0, 71, 64
2, 33690, Note_on_c, 0, 72, 30
2, 33720, Note_off_c, 0, 72, 64
2, 33720, Note_on_c, 0, 71, 30
2, 33750, Note_off_c, 0, 71, 64
2, 33750, Note_on_c, 0, 72, 30
2, 33780, Note_off_c, 0, 72, 64
2, 33780, Note_on_c, 0, 71, 30
2, 33810, Note_off_c, 0, 71, 64
2, 33810, Note_on_c, 0, 72, 30
2, 33840, Note_off_c, 0, 72, 64
2, 33840, Note_on_c, 0, 71, 30
2, 33870, Note_off_c, 0, 71, 64
2, 33870, Note_on_c, 0, 72, 30
2, 33900, Note_off_c, 0, 72, 64
2, 33900, Note_on_c, 0, 71, 30
2, 33930, Note_off_c, 0, 71, 64
2, 33930, Note_on_c, 0, 72, 30
2, 33960, Note_off_c, 0, 72, 64
2, 33960, Note_on_c, 0, 71, 30
2, 33990, Note_off_c, 0, 71, 64
2, 33990, Note_on_c, 0, 72, 30
2, 34020, Note_off_c, 0, 72, 64
2, 34020, Note_on_c, 0, 71, 30
2, 34050, Note_off_c, 0, 71, 64
2, 34050, Note_on_c, 0, 72, 30
2, 34080, Note_off_c, 0, 72, 64
2, 34080, Note_on_c, 0, 71, 30
2, 34560, Note_off_c, 0, 71, 64
2, 34560, Note_on_c, 0, 72, 30
2, 34795, Note_off_c, 0, 72, 64
2, 57600, Note_on_c, 0, 72, 60
2, 57840, Note_off_c, 0, 72, 64
2, 57840, Note_on_c, 0, 79, 60
2, 58080, Note_off_c, 0, 79, 64
2, 58080, Note_on_c, 0, 84, 60
2, 58320, Note_off_c, 0, 84, 64
2, 58320, Note_on_c, 0, 86, 60
2, 58440, Note_off_c, 0, 86, 64
2, 58440, Note_on_c, 0, 87, 60
2, 58555, Note_off_c, 0, 87, 64
2, 58560, Note_on_c, 0, 87, 60
2, 59040, Note_off_c, 0, 87, 64
2, 59040, Note_on_c, 0, 86, 60
2, 59440, Note_off_c, 0, 86, 64
2, 59760, Note_on_c, 0, 86, 60
2, 59880, Note_off_c, 0, 86, 64
2, 59880, Note_on_c, 0, 83, 60
2, 59995, Note_off_c, 0, 83, 64
2, 60000, Note_on_c, 0, 87, 60
2, 60715, Note_off_c, 0, 87, 64
2, 60720, Note_on_c, 0, 87, 60
2, 60840, Note_off_c, 0, 87, 64
2, 60840, Note_on_c, 0, 84, 60
2, 60955, Note_off_c, 0, 84, 64
2, 60960, Note_on_c, 0, 89, 60
2, 61675, Note_off_c, 0, 89, 64
2, 61680, Note_on_c, 0, 87, 60
2, 61800, Note_off_c, 0, 87, 64
2, 61800, Note_on_c, 0, 91, 60
2, 61920, Note_off_c, 0, 91, 64
2, 61920, Note_on_c, 0, 84, 60
2, 62155, Note_off_c, 0, 84, 64
2, 62160, Note_on_c, 0, 84, 60
2, 62280, Note_off_c, 0, 84, 64
2, 62280, Note_on_c, 0, 72, 60
2, 62400, Note_off_c, 0, 72, 64
2, 62400, Note_on_c, 0, 77, 60
2, 62635, Note_off_c, 0, 77, 64
2, 62640, Note_on_c, 0, 79, 60
2, 62760, Note_off_c, 0, 79, 64
2, 62760, Note_on_c, 0, 80, 60
2, 62880, Note_off_c, 0, 80, 64
2, 62880, Note_on_c, 0, 82, 60
2, 62910, Note_off_c, 0, 82, 64
2, 62910, Note_on_c, 0, 80, 60
2, 62940, Note_off_c, 0, 80, 64
2, 62940, Note_on_c, 0, 82, 60
2, 62970, Note_off_c, 0, 82, 64
2, 62970, Note_on_c, 0, 80, 60
2, 63000, Note_off_c, 0, 80, 64
2, 63000, Note_on_c, 0, 82, 60
2, 63030, Note_off_c, 0, 82, 64
2, 63030, Note_on_c, 0, 80, 60
2, 63060, Note_off_c, 0, 80, 64
2, 63060, Note_on_c, 0, 82, 60
2, 63090, Note_off_c, 0, 82, 64
2, 63090, Note_on_c, 0, 80, 60
2, 63120, Note_off_c, 0, 80, 64
2, 63120, Note_on_c, 0, 79, 60
2, 63240, Note_off_c, 0, 79, 64
2, 63240, Note_on_c, 0, 80, 60
2, 63360, Note_off_c, 0, 80, 64
2, 63360, Note_on_c, 0, 79, 60
2, 63595, Note_off_c, 0, 79, 64
2, 63600, Note_on_c, 0, 74, 60
2, 63835, Note_off_c, 0, 74, 64
2, 63840, Note_on_c, 0, 79, 60
2, 64080, Note_off_c, 0, 79, 64
2, 64080, Note_on_c, 0, 81, 60
2, 64200, Note_off_c, 0, 81, 64
2, 64200, Note_on_c, 0, 83, 60
2, 64320, Note_off_c, 0, 83, 64
2, 64320, Note_on_c, 0, 83, 60
2, 64350, Note_off_c, 0, 83, 64
2, 64350, Note_on_c, 0, 84, 60
2, 64380, Note_off_c, 0, 84, 64
2, 64380, Note_on_c, 0, 83, 60
2, 64410, Note_off_c, 0, 83, 64
2, 64410, Note_on_c, 0, 84, 60
2, 64440, Note_off_c, 0, 84, 64
2, 64440, Note_on_c, 0, 83, 60
2, 64470, Note_off_c, 0, 83, 64
2, 64470, Note_on_c, 0, 84, 60
2, 64500, Note_off_c, 0, 84, 64
2, 64500, Note_on_c, 0, 83, 60
2, 64530, Note_off_c, 0, 83, 64
2, 64530, Note_on_c, 0, 84, 60
2, 64560, Note_off_c, 0, 84, 64
2, 64560, Note_on_c, 0, 83, 60
2, 64590, Note_off_c, 0, 83, 64
2, 64590, Note_on_c, 0, 84, 60
2, 64620, Note_off_c, 0, 84, 64
2, 64620, Note_on_c, 0, 83, 60
2, 64650, Note_off_c, 0, 83, 64
2, 64650, Note_on_c, 0, 84, 60
2, 64680, Note_off_c, 0, 84, 64
2, 64680, Note_on_c, 0, 83, 60
2, 64710, Note_off_c, 0, 83, 64
2, 64710, Note_on_c, 0, 84, 60
2, 64740, Note_off_c, 0, 84, 64
2, 64740, Note_on_c, 0, 81, 60
2, 64770, Note_off_c, 0, 81, 64
2, 64770, Note_on_c, 0, 83, 60
2, 64795, Note_off_c, 0, 83, 64
2, 64800, Note_on_c, 0, 84, 60
2, 65035, Note_off_c, 0, 84, 64
2, 65040, Note_on_c, 0, 91, 60
2, 65160, Note_off_c, 0, 91, 64
2, 65160, Note_on_c, 0, 79, 60
2, 65280, Note_off_c, 0, 79, 64
2, 65280, Note_on_c, 0, 84, 60
2, 65515, Note_off_c, 0, 84, 64
2, 65520, Note_on_c, 0, 86, 60
2, 65760, Note_off_c, 0, 86, 64
2, 65760, Note_on_c, 0, 87, 60
2, 65995, Note_off_c, 0, 87, 64
2, 66000, Note_on_c, 0, 86, 60
2, 66120, Note_off_c, 0, 86, 64
2, 66120, Note_on_c, 0, 89, 60
2, 66240, Note_off_c, 0, 89, 64
2, 66240, Note_on_c, 0, 87, 60
2, 66475, Note_off_c, 0, 87, 64
2, 66480, Note_on_c, 0, 84, 60
2, 66720, Note_off_c, 0, 84, 64
2, 66720, Note_on_c, 0, 89, 60
2, 66960, Note_off_c, 0, 89, 64
2, 66960, Note_on_c, 0, 91, 60
2, 67200, Note_off_c, 0, 91, 64
2, 67200, Note_on_c, 0, 92, 60
2, 67435, Note_off_c, 0, 92, 64
2, 67440, Note_on_c, 0, 89, 60
2, 67915, Note_off_c, 0, 89, 64
2, 67920, Note_on_c, 0, 91, 60
2, 68040, Note_off_c, 0, 91, 64
2, 68040, Note_on_c, 0, 86, 60
2, 68160, Note_off_c, 0, 86, 64
2, 68160, Note_on_c, 0, 87, 60
2, 68520, Note_off_c, 0, 87, 64
2, 68520, Note_on_c, 0, 89, 60
2, 68635, Note_off_c, 0, 89, 64
2, 68640, Note_on_c, 0, 86, 60
2, 68670, Note_off_c, 0, 86, 64
2, 68670, Note_on_c, 0, 87, 60
2, 68700, Note_off_c, 0, 87, 64
2, 68700, Note_on_c, 0, 86, 60
2, 68730, Note_off_c, 0, 86, 64
2, 68730, Note_on_c, 0, 87, 60
2, 68760, Note_off_c, 0, 87, 64
2, 68760, Note_on_c, 0, 86, 60
2, 68790, Note_off_c, 0, 86, 64
2, 68790, Note_on_c, 0, 87, 60
2, 68820, Note_off_c, 0, 87, 64
2, 68820, Note_on_c, 0, 86, 60
2, 68850, Note_off_c, 0, 86, 64
2, 68850, Note_on_c, 0, 87, 60
2, 68880, Note_off_c, 0, 87, 64
2, 68880, Note_on_c, 0, 86, 60
2, 68910, Note_off_c, 0, 86, 64
2, 68910, Note_on_c, 0, 87, 60
2, 68940, Note_off_c, 0, 87, 64
2, 68940, Note_on_c, 0, 86, 60
2, 68970, Note_off_c, 0, 86, 64
2, 68970, Note_on_c, 0, 87, 60
2, 69000, Note_off_c, 0, 87, 64
2, 69000, Note_on_c, 0, 86, 60
2, 69030, Note_off_c, 0, 86, 64
2, 69030, Note_on_c, 0, 87, 60
2, 69060, Note_off_c, 0, 87, 64
2, 69060, Note_on_c, 0, 86, 60
2, 69090, Note_off_c, 0, 86, 64
2, 69090, Note_on_c, 0, 87, 60
2, 69120, Note_off_c, 0, 87, 64
2, 69120, Note_on_c, 0, 84, 60
2, 69520, Note_off_c, 0, 84, 64
2, 70200, Note_on_c, 0, 81, 60
2, 70320, Note_off_c, 0, 81, 64
2, 70320, Note_on_c, 0, 83, 60
2, 70440, Note_off_c, 0, 83, 64
2, 70440, Note_on_c, 0, 84, 60
2, 70560, Note_off_c, 0, 84, 64
2, 70560, Note_on_c, 0, 83, 60
2, 70960, Note_off_c, 0, 83, 64
2, 71640, Note_on_c, 0, 75, 60
2, 71760, Note_off_c, 0, 75, 64
2, 71760, Note_on_c, 0, 77, 60
2, 71880, Note_off_c, 0, 77, 64
2, 71880, Note_on_c, 0, 79, 60
2, 72000, Note_off_c, 0, 79, 64
2, 72000, Note_on_c, 0, 80, 60
2, 72400, Note_off_c, 0, 80, 64
2, 73080, Note_on_c, 0, 79, 60
2, 73200, Note_off_c, 0, 79, 64
2, 73200, Note_on_c, 0, 81, 60
2, 73320, Note_off_c, 0, 81, 64
2, 73320, Note_on_c, 0, 83, 60
2, 73440, Note_off_c, 0, 83, 64
2, 73440, Note_on_c, 0, 84, 60
2, 73840, Note_off_c, 0, 84, 64
2, 74520, Note_on_c, 0, 74, 60
2, 74640, Note_off_c, 0, 74, 64
2, 74640, Note_on_c, 0, 75, 60
2, 74760, Note_off_c, 0, 75, 64
2, 74760, Note_on_c, 0, 77, 60
2, 74880, Note_off_c, 0, 77, 64
2, 74880, Note_on_c, 0, 71, 60
2, 75280, Note_off_c, 0, 71, 64
2, 75960, Note_on_c, 0, 75, 60
2, 76080, Note_off_c, 0, 75, 64
2, 76080, Note_on_c, 0, 77, 60
2, 76200, Note_off_c, 0, 77, 64
2, 76200, Note_on_c, 0, 79, 60
2, 76320, Note_off_c, 0, 79, 64
2, 76320, Note_on_c, 0, 75, 60
2, 76720, Note_off_c, 0, 75, 64
2, 77400, Note_on_c, 0, 83, 60
2, 77520, Note_off_c, 0, 83, 64
2, 77520, Note_on_c, 0, 84, 60
2, 77640, Note_off_c, 0, 84, 64
2, 77640, Note_on_c, 0, 86, 60
2, 77760, Note_off_c, 0, 86, 64
2, 77760, Note_on_c, 0, 87, 60
2, 78160, Note_off_c, 0, 87, 64
2, 78840, Note_on_c, 0, 83, 60
2, 78960, Note_off_c, 0, 83, 64
2, 78960, Note_on_c, 0, 84, 60
2, 79080, Note_off_c, 0, 84, 64
2, 79080, Note_on_c, 0, 86, 60
2, 79200, Note_off_c, 0, 86, 64
2, 79200, Note_on_c, 0, 87, 60
2, 79320, Note_off_c, 0, 87, 64
2, 79320, Note_on_c, 0, 91, 60
2, 79440, Note_off_c, 0, 91, 64
2, 79440, Note_on_c, 0, 89, 60
2, 79560, Note_off_c, 0, 89, 64
2, 79560, Note_on_c, 0, 87, 60
2, 79680, Note_off_c, 0, 87, 64
2, 79680, Note_on_c, 0, 86, 60
2, 80640, Note_off_c, 0, 86, 64
2, 80640, Note_on_c, 0, 84, 60
2, 80755, Note_off_c, 0, 84, 64
2, 80760, Note_on_c, 0, 84, 60
2, 80880, Note_off_c, 0, 84, 64
2, 80880, Note_on_c, 0, 82, 60
2, 81000, Note_off_c, 0, 82, 64
2, 81000, Note_on_c, 0, 80, 60
2, 81120, Note_off_c, 0, 80, 64
2, 81120, Note_on_c, 0, 79, 60
2, 81240, Note_off_c, 0, 79, 64
2, 81240, Note_on_c, 0, 80, 60
2, 81360, Note_off_c, 0, 80, 64
2, 81360, Note_on_c, 0, 79, 60
2, 81480, Note_off_c, 0, 79, 64
2, 81480, Note_on_c, 0, 77, 60
2, 81600, Note_off_c, 0, 77, 64
2, 81600, Note_on_c, 0, 75, 60
2, 82000, Note_off_c, 0, 75, 64
2, 82200, Note_on_c, 0, 91, 60
2, 82320, Note_off_c, 0, 91, 64
2, 82320, Note_on_c, 0, 89, 60
2, 82440, Note_off_c, 0, 89, 64
2, 82440, Note_on_c, 0, 87, 60
2, 82560, Note_off_c, 0, 87, 64
2, 82560, Note_on_c, 0, 86, 60
2, 82680, Note_off_c, 0, 86, 64
2, 82680, Note_on_c, 0, 87, 60
2, 82800, Note_off_c, 0, 87, 64
2, 82800, Note_on_c, 0, 86, 60
2, 82920, Note_off_c, 0, 86, 64
2, 82920, Note_on_c, 0, 87, 60
2, 83040, Note_off_c, 0, 87, 64
2, 83040, Note_on_c, 0, 84, 60
2, 83635, Note_off_c, 0, 84, 64
2, 83640, Note_on_c, 0, 94, 60
2, 83760, Note_off_c, 0, 94, 64
2, 83760, Note_on_c, 0, 92, 60
2, 83880, Note_off_c, 0, 92, 64
2, 83880, Note_on_c, 0, 91, 60
2, 84000, Note_off_c, 0, 91, 64
2, 84000, Note_on_c, 0, 89, 60
2, 84120, Note_off_c, 0, 89, 64
2, 84120, Note_on_c, 0, 87, 60
2, 84240, Note_off_c, 0, 87, 64
2, 84240, Note_on_c, 0, 86, 60
2, 84360, Note_off_c, 0, 86, 64
2, 84360, Note_on_c, 0, 84, 60
2, 84480, Note_off_c, 0, 84, 64
2, 84480, Note_on_c, 0, 83, 60
2, 84960, Note_off_c, 0, 83, 64
2, 84960, Note_on_c, 0, 84, 60
2, 85075, Note_off_c, 0, 84, 64
2, 85080, Note_on_c, 0, 89, 60
2, 85200, Note_off_c, 0, 89, 64
2, 85200, Note_on_c, 0, 87, 60
2, 85320, Note_off_c, 0, 87, 64
2, 85320, Note_on_c, 0, 86, 60
2, 85440, Note_off_c, 0, 86, 64
2, 85440, Note_on_c, 0, 84, 60
2, 85560, Note_off_c, 0, 84, 64
2, 85560, Note_on_c, 0, 82, 60
2, 85680, Note_off_c, 0, 82, 64
2, 85680, Note_on_c, 0, 80, 60
2, 85800, Note_off_c, 0, 80, 64
2, 85800, Note_on_c, 0, 79, 60
2, 85920, Note_off_c, 0, 79, 64
2, 85920, Note_on_c, 0, 80, 60
2, 86400, Note_off_c, 0, 80, 64
2, 86400, Note_on_c, 0, 79, 60
2, 86515, Note_off_c, 0, 79, 64
2, 86520, Note_on_c, 0, 91, 60
2, 86640, Note_off_c, 0, 91, 64
2, 86640, Note_on_c, 0, 89, 60
2, 86760, Note_off_c, 0, 89, 64
2, 86760, Note_on_c, 0, 87, 60
2, 86880, Note_off_c, 0, 87, 64
2, 86880, Note_on_c, 0, 86, 60
2, 87000, Note_off_c, 0, 86, 64
2, 87000, Note_on_c, 0, 87, 60
2, 87120, Note_off_c, 0, 87, 64
2, 87120, Note_on_c, 0, 86, 60
2, 87240, Note_off_c, 0, 86, 64
2, 87240, Note_on_c, 0, 87, 60
2, 87360, Note_off_c, 0, 87, 64
2, 87360, Note_on_c, 0, 89, 60
2, 87955, Note_off_c, 0, 89, 64
2, 87960, Note_on_c, 0, 87, 60
2, 88080, Note_off_c, 0, 87, 64
2, 88080, Note_on_c, 0, 86, 60
2, 88200, Note_off_c, 0, 86, 64
2, 88200, Note_on_c, 0, 84, 60
2, 88320, Note_off_c, 0, 84, 64
2, 88320, Note_on_c, 0, 83, 60
2, 88440, Note_off_c, 0, 83, 64
2, 88440, Note_on_c, 0, 81, 60
2, 88560, Note_off_c, 0, 81, 64
2, 88560, Note_on_c, 0, 83, 60
2, 88680, Note_off_c, 0, 83, 64
2, 88680, Note_on_c, 0, 84, 60
2, 88800, Note_off_c, 0, 84, 64
2, 88800, Note_on_c, 0, 86, 60
2, 89395, Note_off_c, 0, 86, 64
2, 89400, Note_on_c, 0, 89, 60
2, 89520, Note_off_c, 0, 89, 64
2, 89520, Note_on_c, 0, 87, 60
2, 89640, Note_off_c, 0, 87, 64
2, 89640, Note_on_c, 0, 86, 60
2, 89760, Note_off_c, 0, 86, 64
2, 89760, Note_on_c, 0, 84, 60
2, 90120, Note_off_c, 0, 84, 64
2, 90120, Note_on_c, 0, 82, 60
2, 90240, Note_off_c, 0, 82, 64
2, 90240, Note_on_c, 0, 80, 60
2, 90835, Note_off_c, 0, 80, 64
2, 90840, Note_on_c, 0, 80, 60
2, 90960, Note_off_c, 0, 80, 64
2, 90960, Note_on_c, 0, 79, 60
2, 91080, Note_off_c, 0, 79, 64
2, 91080, Note_on_c, 0, 77, 60
2, 91200, Note_off_c, 0, 77, 64
2, 91200, Note_on_c, 0, 75, 60
2, 91260, Note_off_c, 0, 75, 64
2, 91260, Note_on_c, 0, 77, 60
2, 91320, Note_off_c, 0, 77, 64
2, 91320, Note_on_c, 0, 79, 60
2, 91440, Note_off_c, 0, 79, 64
2, 91440, Note_on_c, 0, 77, 60
2, 91560, Note_off_c, 0, 77, 64
2, 91560, Note_on_c, 0, 79, 60
2, 91620, Note_off_c, 0, 79, 64
2, 91620, Note_on_c, 0, 80, 60
2, 91680, Note_off_c, 0, 80, 64
2, 91680, Note_on_c, 0, 86, 60
2, 91710, Note_off_c, 0, 86, 64
2, 91710, Note_on_c, 0, 87, 60
2, 91740, Note_off_c, 0, 87, 64
2, 91740, Note_on_c, 0, 86, 60
2, 91770, Note_off_c, 0, 86, 64
2, 91770, Note_on_c, 0, 87, 60
2, 91800, Note_off_c, 0, 87, 64
2, 91800, Note_on_c, 0, 86, 60
2, 91830, Note_off_c, 0, 86, 64
2, 91830, Note_on_c, 0, 87, 60
2, 91860, Note_off_c, 0, 87, 64
2, 91860, Note_on_c, 0, 86, 60
2, 91890, Note_off_c, 0, 86, 64
2, 91890, Note_on_c, 0, 87, 60
2, 91920, Note_off_c, 0, 87, 64
2, 91920, Note_on_c, 0, 86, 60
2, 91950, Note_off_c, 0, 86, 64
2, 91950, Note_on_c, 0, 87, 60
2, 91980, Note_off_c, 0, 87, 64
2, 91980, Note_on_c, 0, 86, 60
2, 92010, Note_off_c, 0, 86, 64
2, 92010, Note_on_c, 0, 87, 60
2, 92040, Note_off_c, 0, 87, 64
2, 92040, Note_on_c, 0, 86, 60
2, 92070, Note_off_c, 0, 86, 64
2, 92070, Note_on_c, 0, 87, 60
2, 92100, Note_off_c, 0, 87, 64
2, 92100, Note_on_c, 0, 84, 60
2, 92130, Note_off_c, 0, 84, 64
2, 92130, Note_on_c, 0, 86, 60
2, 92160, Note_off_c, 0, 86, 64
2, 92160, Note_on_c, 0, 84, 60
2, 92560, Note_off_c, 0, 84, 64
2, 94200, Note_on_c, 0, 74, 60
2, 94320, Note_off_c, 0, 74, 64
2, 94320, Note_on_c, 0, 75, 60
2, 94440, Note_off_c, 0, 75, 64
2, 94440, Note_on_c, 0, 77, 60
2, 94560, Note_off_c, 0, 77, 64
2, 94560, Note_on_c, 0, 79, 60
2, 94680, Note_off_c, 0, 79, 64
2, 94680, Note_on_c, 0, 77, 60
2, 94800, Note_off_c, 0, 77, 64
2, 94800, Note_on_c, 0, 75, 60
2, 94920, Note_off_c, 0, 75, 64
2, 94920, Note_on_c, 0, 74, 60
2, 95040, Note_off_c, 0, 74, 64
2, 95040, Note_on_c, 0, 72, 60
2, 95160, Note_off_c, 0, 72, 64
2, 95160, Note_on_c, 0, 73, 60
2, 95280, Note_off_c, 0, 73, 64
2, 95280, Note_on_c, 0, 72, 60
2, 95400, Note_off_c, 0, 72, 64
2, 95400, Note_on_c, 0, 70, 60
2, 95520, Note_off_c, 0, 70, 64
2, 95520, Note_on_c, 0, 68, 60
2, 95635, Note_off_c, 0, 68, 64
2, 95640, Note_on_c, 0, 77, 60
2, 95760, Note_off_c, 0, 77, 64
2, 95760, Note_on_c, 0, 79, 60
2, 95880, Note_off_c, 0, 79, 64
2, 95880, Note_on_c, 0, 80, 60
2, 96000, Note_off_c, 0, 80, 64
2, 96000, Note_on_c, 0, 71, 60
2, 96400, Note_off_c, 0, 71, 64
2, 96600, Note_on_c, 0, 72, 60
2, 96720, Note_off_c, 0, 72, 64
2, 96720, Note_on_c, 0, 74, 60
2, 96840, Note_off_c, 0, 74, 64
2, 96840, Note_on_c, 0, 75, 60
2, 96960, Note_off_c, 0, 75, 64
2, 96960, Note_on_c, 0, 77, 60
2, 97080, Note_off_c, 0, 77, 64
2, 97080, Note_on_c, 0, 79, 60
2, 97200, Note_off_c, 0, 79, 64
2, 97200, Note_on_c, 0, 77, 60
2, 97320, Note_off_c, 0, 77, 64
2, 97320, Note_on_c, 0, 75, 60
2, 97440, Note_off_c, 0, 75, 64
2, 97440, Note_on_c, 0, 74, 60
2, 97555, Note_off_c, 0, 74, 64
2, 97560, Note_on_c, 0, 81, 60
2, 97680, Note_off_c, 0, 81, 64
2, 97680, Note_on_c, 0, 83, 60
2, 97800, Note_off_c, 0, 83, 64
2, 97800, Note_on_c, 0, 84, 60
2, 97920, Note_off_c, 0, 84, 64
2, 97920, Note_on_c, 0, 83, 60
2, 98040, Note_off_c, 0, 83, 64
2, 98040, Note_on_c, 0, 84, 60
2, 98160, Note_off_c, 0, 84, 64
2, 98160, Note_on_c, 0, 83, 60
2, 98280, Note_off_c, 0, 83, 64
2, 98280, Note_on_c, 0, 81, 60
2, 98400, Note_off_c, 0, 81, 64
2, 98400, Note_on_c, 0, 79, 60
2, 98635, Note_off_c, 0, 79, 64
2, 98640, Note_on_c, 0, 77, 60
2, 98760, Note_off_c, 0, 77, 64
2, 98760, Note_on_c, 0, 75, 60
2, 98880, Note_off_c, 0, 75, 64
2, 98880, Note_on_c, 0, 77, 60
2, 99475, Note_off_c, 0, 77, 64
2, 99480, Note_on_c, 0, 80, 60
2, 99600, Note_off_c, 0, 80, 64
2, 99600, Note_on_c, 0, 79, 60
2, 99720, Note_off_c, 0, 79, 64
2, 99720, Note_on_c, 0, 77, 60
2, 99840, Note_off_c, 0, 77, 64
2, 99840, Note_on_c, 0, 75, 60
2, 99955, Note_off_c, 0, 75, 64
2, 99960, Note_on_c, 0, 79, 60
2, 100080, Note_off_c, 0, 79, 64
2, 100080, Note_on_c, 0, 77, 60
2, 100200, Note_off_c, 0, 77, 64
2, 100200, Note_on_c, 0, 75, 60
2, 100315, Note_off_c, 0, 75, 64
2, 100320, Note_on_c, 0, 74, 60
2, 100915, Note_off_c, 0, 74, 64
2, 100920, Note_on_c, 0, 77, 60
2, 101040, Note_off_c, 0, 77, 64
2, 101040, Note_on_c, 0, 75, 60
2, 101160, Note_off_c, 0, 75, 64
2, 101160, Note_on_c, 0, 74, 60
2, 101280, Note_off_c, 0, 74, 64
2, 101280, Note_on_c, 0, 72, 60
2, 101400, Note_off_c, 0, 72, 64
2, 101400, Note_on_c, 0, 75, 60
2, 101520, Note_off_c, 0, 75, 64
2, 101520, Note_on_c, 0, 74, 60
2, 101640, Note_off_c, 0, 74, 64
2, 101640, Note_on_c, 0, 72, 60
2, 101755, Note_off_c, 0, 72, 64
2, 101760, Note_on_c, 0, 73, 60
2, 101880, Note_off_c, 0, 73, 64
2, 101880, Note_on_c, 0, 75, 60
2, 102000, Note_off_c, 0, 75, 64
2, 102000, Note_on_c, 0, 73, 60
2, 102120, Note_off_c, 0, 73, 64
2, 102120, Note_on_c, 0, 72, 60
2, 102240, Note_off_c, 0, 72, 64
2, 102240, Note_on_c, 0, 71, 60
2, 102360, Note_off_c, 0, 71, 64
2, 102360, Note_on_c, 0, 72, 60
2, 102480, Note_off_c, 0, 72, 64
2, 102480, Note_on_c, 0, 74, 60
2, 102835, Note_off_c, 0, 74, 64
2, 102840, Note_on_c, 0, 75, 61
2, 102960, Note_off_c, 0, 75, 64
2, 102960, Note_on_c, 0, 74, 61
2, 103080, Note_off_c, 0, 74, 64
2, 103080, Note_on_c, 0, 72, 61
2, 103435, Note_off_c, 0, 72, 64
2, 103440, Note_on_c, 0, 71, 62
2, 103680, Note_off_c, 0, 71, 64
2, 103680, Note_on_c, 0, 72, 63
2, 104080, Note_off_c, 0, 72, 64
2, 105240, Note_on_c, 0, 79, 75
2, 105360, Note_off_c, 0, 79, 64
2, 105360, Note_on_c, 0, 83, 75
2, 105480, Note_off_c, 0, 83, 64
2, 105480, Note_on_c, 0, 79, 75
2, 105600, Note_off_c, 0, 79, 64
2, 105600, Note_on_c, 0, 86, 75
2, 106000, Note_off_c, 0, 86, 64
2, 106080, Note_on_c, 0, 87, 75
2, 106960, Note_off_c, 0, 87, 64
2, 107160, Note_on_c, 0, 85, 75
2, 107280, Note_off_c, 0, 85, 64
2, 107280, Note_on_c, 0, 89, 75
2, 107400, Note_off_c, 0, 89, 64
2, 107400, Note_on_c, 0, 85, 75
2, 108400, Note_off_c, 0, 85, 64
2, 108480, Note_on_c, 0, 84, 75
2, 108880, Note_off_c, 0, 84, 64
2, 108960, Note_on_c, 0, 86, 75
2, 109360, Note_off_c, 0, 86, 64
2, 109440, Note_on_c, 0, 83, 75
2, 109840, Note_off_c, 0, 83, 64
2, 111480, Note_on_c, 0, 84, 75
2, 111600, Note_off_c, 0, 84, 64
2, 111600, Note_on_c, 0, 87, 75
2, 111720, Note_off_c, 0, 87, 64
2, 111720, Note_on_c, 0, 84, 75
2, 111840, Note_off_c, 0, 84, 64
2, 111840, Note_on_c, 0, 89, 75
2, 111960, Note_off_c, 0, 89, 64
2, 111960, Note_on_c, 0, 86, 75
2, 112080, Note_off_c, 0, 86, 64
2, 112080, Note_on_c, 0, 89, 75
2, 112200, Note_off_c, 0, 89, 64
2, 112200, Note_on_c, 0, 86, 75
2, 112320, Note_off_c, 0, 86, 64
2, 112320, Note_on_c, 0, 87, 75
2, 112720, Note_off_c, 0, 87, 64
2, 112920, Note_on_c, 0, 84, 75
2, 113040, Note_off_c, 0, 84, 64
2, 113040, Note_on_c, 0, 87, 75
2, 113160, Note_off_c, 0, 87, 64
2, 113160, Note_on_c, 0, 84, 75
2, 113280, Note_off_c, 0, 84, 64
2, 113280, Note_on_c, 0, 89, 75
2, 113400, Note_off_c, 0, 89, 64
2, 113400, Note_on_c, 0, 86, 75
2, 113520, Note_off_c, 0, 86, 64
2, 113520, Note_on_c, 0, 89, 75
2, 113640, Note_off_c, 0, 89, 64
2, 113640, Note_on_c, 0, 86, 75
2, 113755, Note_off_c, 0, 86, 64
2, 113760, Note_on_c, 0, 87, 75
2, 114160, Note_off_c, 0, 87, 64
2, 114360, Note_on_c, 0, 84, 75
2, 114480, Note_off_c, 0, 84, 64
2, 114480, Note_on_c, 0, 87, 75
2, 114600, Note_off_c, 0, 87, 64
2, 114600, Note_on_c, 0, 84, 75
2, 114720, Note_off_c, 0, 84, 64
2, 114720, Note_on_c, 0, 89, 75
2, 114840, Note_off_c, 0, 89, 64
2, 114840, Note_on_c, 0, 86, 76
2, 114960, Note_off_c, 0, 86, 64
2, 114960, Note_on_c, 0, 89, 77
2, 115080, Note_off_c, 0, 89, 64
2, 115080, Note_on_c, 0, 86, 78
2, 115200, Note_off_c, 0, 86, 64
2, 115200, Note_on_c, 0, 87, 79
2, 115315, Note_off_c, 0, 87, 64
2, 115320, Note_on_c, 0, 96, 80
2, 115440, Note_off_c, 0, 96, 64
2, 115440, Note_on_c, 0, 94, 81
2, 115560, Note_off_c, 0, 94, 64
2, 115560, Note_on_c, 0, 92, 82
2, 115680, Note_off_c, 0, 92, 64
2, 115680, Note_on_c, 0, 91, 84
2, 115800, Note_off_c, 0, 91, 64
2, 115800, Note_on_c, 0, 89, 86
2, 115920, Note_off_c, 0, 89, 64
2, 115920, Note_on_c, 0, 87, 88
2, 116040, Note_off_c, 0, 87, 64
2, 116040, Note_on_c, 0, 86, 90
2, 116155, Note_off_c, 0, 86, 64
2, 116160, Note_on_c, 0, 84, 92
2, 116280, Note_off_c, 0, 84, 64
2, 116280, Note_on_c, 0, 87, 92
2, 116400, Note_off_c, 0, 87, 64
2, 116400, Note_on_c, 0, 86, 92
2, 116520, Note_off_c, 0, 86, 64
2, 116520, Note_on_c, 0, 84, 92
2, 116640, Note_off_c, 0, 84, 64
2, 116640, Note_on_c, 0, 83, 92
2, 116760, Note_off_c, 0, 83, 64
2, 116760, Note_on_c, 0, 84, 92
2, 116880, Note_off_c, 0, 84, 64
2, 116880, Note_on_c, 0, 83, 92
2, 117000, Note_off_c, 0, 83, 64
2, 117000, Note_on_c, 0, 81, 92
2, 117120, Note_off_c, 0, 81, 64
2, 117120, Note_on_c, 0, 79, 92
2, 117240, Note_off_c, 0, 79, 64
2, 117240, Note_on_c, 0, 77, 92
2, 117360, Note_off_c, 0, 77, 64
2, 117360, Note_on_c, 0, 75, 92
2, 117480, Note_off_c, 0, 75, 64
2, 117480, Note_on_c, 0, 74, 92
2, 117600, Note_off_c, 0, 74, 64
2, 117600, Note_on_c, 0, 72, 92
2, 117715, Note_off_c, 0, 72, 64
2, 117720, Note_on_c, 0, 82, 92
2, 117840, Note_off_c, 0, 82, 64
2, 117840, Note_on_c, 0, 80, 92
2, 117960, Note_off_c, 0, 80, 64
2, 117960, Note_on_c, 0, 79, 92
2, 118080, Note_off_c, 0, 79, 64
2, 118080, Note_on_c, 0, 80, 92
2, 118200, Note_off_c, 0, 80, 64
2, 118200, Note_on_c, 0, 82, 92
2, 118320, Note_off_c, 0, 82, 64
2, 118320, Note_on_c, 0, 80, 92
2, 118440, Note_off_c, 0, 80, 64
2, 118440, Note_on_c, 0, 79, 92
2, 118560, Note_off_c, 0, 79, 64
2, 118560, Note_on_c, 0, 77, 92
2, 118680, Note_off_c, 0, 77, 64
2, 118680, Note_on_c, 0, 75, 92
2, 118800, Note_off_c, 0, 75, 64
2, 118800, Note_on_c, 0, 74, 92
2, 118920, Note_off_c, 0, 74, 64
2, 118920, Note_on_c, 0, 72, 92
2, 119040, Note_off_c, 0, 72, 64
2, 119040, Note_on_c, 0, 83, 92
2, 119160, Note_off_c, 0, 83, 64
2, 119160, Note_on_c, 0, 86, 92
2, 119280, Note_off_c, 0, 86, 64
2, 119280, Note_on_c, 0, 84, 92
2, 119400, Note_off_c, 0, 84, 64
2, 119400, Note_on_c, 0, 83, 92
2, 119520, Note_off_c, 0, 83, 64
2, 119520, Note_on_c, 0, 84, 92
2, 119640, Note_off_c, 0, 84, 64
2, 119640, Note_on_c, 0, 86, 92
2, 119760, Note_off_c, 0, 86, 64
2, 119760, Note_on_c, 0, 84, 92
2, 119880, Note_off_c, 0, 84, 64
2, 119880, Note_on_c, 0, 82, 92
2, 119995, Note_off_c, 0, 82, 64
2, 120000, Note_on_c, 0, 80, 92
2, 120120, Note_off_c, 0, 80, 64
2, 120120, Note_on_c, 0, 79, 92
2, 120240, Note_off_c, 0, 79, 64
2, 120240, Note_on_c, 0, 77, 92
2, 120360, Note_off_c, 0, 77, 64
2, 120360, Note_on_c, 0, 75, 92
2, 120480, Note_off_c, 0, 75, 64
2, 120480, Note_on_c, 0, 74, 92
2, 120600, Note_off_c, 0, 74, 64
2, 120600, Note_on_c, 0, 75, 92
2, 120720, Note_off_c, 0, 75, 64
2, 120720, Note_on_c, 0, 74, 92
2, 120840, Note_off_c, 0, 74, 64
2, 120840, Note_on_c, 0, 72, 92
2, 120960, Note_off_c, 0, 72, 64
2, 120960, Note_on_c, 0, 71, 92
2, 121080, Note_off_c, 0, 71, 64
2, 121080, Note_on_c, 0, 72, 92
2, 121200, Note_off_c, 0, 72, 64
2, 121200, Note_on_c, 0, 71, 92
2, 121320, Note_off_c, 0, 71, 64
2, 121320, Note_on_c, 0, 69, 92
2, 121440, Note_off_c, 0, 69, 64
2, 121440, Note_on_c, 0, 67, 92
2, 121560, Note_off_c, 0, 67, 64
2, 121560, Note_on_c, 0, 69, 92
2, 121680, Note_off_c, 0, 69, 64
2, 121680, Note_on_c, 0, 71, 92
2, 121800, Note_off_c, 0, 71, 64
2, 121800, Note_on_c, 0, 72, 92
2, 121920, Note_off_c, 0, 72, 64
2, 121920, Note_on_c, 0, 71, 92
2, 122040, Note_off_c, 0, 71, 64
2, 122040, Note_on_c, 0, 74, 92
2, 122160, Note_off_c, 0, 74, 64
2, 122160, Note_on_c, 0, 72, 92
2, 122280, Note_off_c, 0, 72, 64
2, 122280, Note_on_c, 0, 71, 92
2, 122400, Note_off_c, 0, 71, 64
2, 122400, Note_on_c, 0, 72, 92
2, 122520, Note_off_c, 0, 72, 64
2, 122520, Note_on_c, 0, 74, 92
2, 122640, Note_off_c, 0, 74, 64
2, 122640, Note_on_c, 0, 75, 92
2, 122760, Note_off_c, 0, 75, 64
2, 122760, Note_on_c, 0, 77, 92
2, 122880, Note_off_c, 0, 77, 64
2, 122880, Note_on_c, 0, 79, 92
2, 123000, Note_off_c, 0, 79, 64
2, 123000, Note_on_c, 0, 81, 92
2, 123120, Note_off_c, 0, 81, 64
2, 123120, Note_on_c, 0, 83, 92
2, 123240, Note_off_c, 0, 83, 64
2, 123240, Note_on_c, 0, 84, 92
2, 123360, Note_off_c, 0, 84, 64
2, 123360, Note_on_c, 0, 86, 92
2, 123475, Note_off_c, 0, 86, 64
2, 123480, Note_on_c, 0, 77, 92
2, 123600, Note_off_c, 0, 77, 64
2, 123600, Note_on_c, 0, 75, 92
2, 123720, Note_off_c, 0, 75, 64
2, 123720, Note_on_c, 0, 74, 92
2, 123840, Note_off_c, 0, 74, 64
2, 123840, Note_on_c, 0, 75, 92
2, 123960, Note_off_c, 0, 75, 64
2, 123960, Note_on_c, 0, 79, 92
2, 124080, Note_off_c, 0, 79, 64
2, 124080, Note_on_c, 0, 84, 92
2, 124200, Note_off_c, 0, 84, 64
2, 124200, Note_on_c, 0, 82, 92
2, 124320, Note_off_c, 0, 82, 64
2, 124320, Note_on_c, 0, 80, 92
2, 124440, Note_off_c, 0, 80, 64
2, 124440, Note_on_c, 0, 79, 92
2, 124560, Note_off_c, 0, 79, 64
2, 124560, Note_on_c, 0, 77, 92
2, 124680, Note_off_c, 0, 77, 64
2, 124680, Note_on_c, 0, 75, 92
2, 124795, Note_off_c, 0, 75, 64
2, 124800, Note_on_c, 0, 86, 92
2, 124920, Note_off_c, 0, 86, 64
2, 124920, Note_on_c, 0, 87, 92
2, 125040, Note_off_c, 0, 87, 64
2, 125040, Note_on_c, 0, 86, 92
2, 125160, Note_off_c, 0, 86, 64
2, 125160, Note_on_c, 0, 84, 92
2, 125280, Note_off_c, 0, 84, 64
2, 125280, Note_on_c, 0, 83, 92
2, 125400, Note_off_c, 0, 83, 64
2, 125400, Note_on_c, 0, 84, 92
2, 125520, Note_off_c, 0, 84, 64
2, 125520, Note_on_c, 0, 86, 92
2, 125640, Note_off_c, 0, 86, 64
2, 125640, Note_on_c, 0, 87, 92
2, 125760, Note_off_c, 0, 87, 64
2, 125760, Note_on_c, 0, 86, 92
2, 125880, Note_off_c, 0, 86, 64
2, 125880, Note_on_c, 0, 84, 92
2, 126000, Note_off_c, 0, 84, 64
2, 126000, Note_on_c, 0, 83, 92
2, 126120, Note_off_c, 0, 83, 64
2, 126120, Note_on_c, 0, 81, 92
2, 126235, Note_off_c, 0, 81, 64
2, 126240, Note_on_c, 0, 79, 92
2, 126360, Note_off_c, 0, 79, 64
2, 126360, Note_on_c, 0, 80, 92
2, 126480, Note_off_c, 0, 80, 64
2, 126480, Note_on_c, 0, 79, 92
2, 126600, Note_off_c, 0, 79, 64
2, 126600, Note_on_c, 0, 77, 92
2, 126720, Note_off_c, 0, 77, 64
2, 126720, Note_on_c, 0, 75, 75
2, 126840, Note_off_c, 0, 75, 64
2, 126840, Note_on_c, 0, 77, 75
2, 126960, Note_off_c, 0, 77, 64
2, 126960, Note_on_c, 0, 79, 75
2, 127080, Note_off_c, 0, 79, 64
2, 127080, Note_on_c, 0, 80, 75
2, 127200, Note_off_c, 0, 80, 64
2, 127200, Note_on_c, 0, 79, 60
2, 127320, Note_off_c, 0, 79, 64
2, 127320, Note_on_c, 0, 77, 60
2, 127440, Note_off_c, 0, 77, 64
2, 127440, Note_on_c, 0, 75, 60
2, 127560, Note_off_c, 0, 75, 64
2, 127560, Note_on_c, 0, 74, 60
2, 127675, Note_off_c, 0, 74, 64
2, 151680, Note_on_c, 0, 84, 45
2, 151800, Note_off_c, 0, 84, 64
2, 151800, Note_on_c, 0, 87, 45
2, 151920, Note_off_c, 0, 87, 64
2, 151920, Note_on_c, 0, 86, 45
2, 152040, Note_off_c, 0, 86, 64
2, 152040, Note_on_c, 0, 84, 45
2, 152160, Note_off_c, 0, 84, 64
2, 152160, Note_on_c, 0, 91, 45
2, 152560, Note_off_c, 0, 91, 64
2, 152640, Note_on_c, 0, 84, 45
2, 152760, Note_off_c, 0, 84, 64
2, 152760, Note_on_c, 0, 87, 45
2, 152880, Note_off_c, 0, 87, 64
2, 152880, Note_on_c, 0, 86, 45
2, 153000, Note_off_c, 0, 86, 64
2, 153000, Note_on_c, 0, 84, 45
2, 153120, Note_off_c, 0, 84, 64
2, 153120, Note_on_c, 0, 89, 45
2, 153835, Note_off_c, 0, 89, 64
2, 153840, Note_on_c, 0, 88, 45
2, 154080, Note_off_c, 0, 88, 64
2, 154080, Note_on_c, 0, 89, 45
2, 154200, Note_off_c, 0, 89, 64
2, 154200, Note_on_c, 0, 92, 45
2, 154320, Note_off_c, 0, 92, 64
2, 154320, Note_on_c, 0, 91, 45
2, 154440, Note_off_c, 0, 91, 64
2, 154440, Note_on_c, 0, 89, 45
2, 154555, Note_off_c, 0, 89, 64
2, 154560, Note_on_c, 0, 96, 45
2, 155155, Note_off_c, 0, 96, 64
2, 155160, Note_on_c, 0, 87, 45
2, 155280, Note_off_c, 0, 87, 64
2, 155280, Note_on_c, 0, 86, 45
2, 155400, Note_off_c, 0, 86, 64
2, 155400, Note_on_c, 0, 84, 45
2, 155520, Note_off_c, 0, 84, 64
2, 155520, Note_on_c, 0, 83, 45
2, 156000, Note_off_c, 0, 83, 64
2, 156000, Note_on_c, 0, 84, 45
2, 156480, Note_off_c, 0, 84, 64
2, 156480, Note_on_c, 0, 86, 45
2, 156880, Note_off_c, 0, 86, 64
2, 156960, Note_on_c, 0, 79, 45
2, 157200, Note_off_c, 0, 79, 64
2, 157200, Note_on_c, 0, 84, 45
2, 157555, Note_off_c, 0, 84, 64
2, 157560, Note_on_c, 0, 84, 45
2, 157680, Note_off_c, 0, 84, 64
2, 157680, Note_on_c, 0, 83, 45
2, 157800, Note_off_c, 0, 83, 64
2, 157800, Note_on_c, 0, 81, 45
2, 157920, Note_off_c, 0, 81, 64
2, 157920, Note_on_c, 0, 79, 45
2, 158160, Note_off_c, 0, 79, 64
2, 158160, Note_on_c, 0, 77, 45
2, 158400, Note_off_c, 0, 77, 64
2, 158400, Note_on_c, 0, 75, 45
2, 158640, Note_off_c, 0, 75, 64
2, 158640, Note_on_c, 0, 80, 45
2, 158995, Note_off_c, 0, 80, 64
2, 159000, Note_on_c, 0, 79, 45
2, 159120, Note_off_c, 0, 79, 64
2, 159120, Note_on_c, 0, 84, 45
2, 159240, Note_off_c, 0, 84, 64
2, 159240, Note_on_c, 0, 82, 45
2, 159360, Note_off_c, 0, 82, 64
2, 159360, Note_on_c, 0, 80, 45
2, 159480, Note_off_c, 0, 80, 64
2, 159480, Note_on_c, 0, 77, 45
2, 159600, Note_off_c, 0, 77, 64
2, 159600, Note_on_c, 0, 79, 45
2, 159720, Note_off_c, 0, 79, 64
2, 159720, Note_on_c, 0, 80, 45
2, 159835, Note_off_c, 0, 80, 64
2, 159840, Note_on_c, 0, 71, 45
2, 160320, Note_off_c, 0, 71, 64
2, 160320, Note_on_c, 0, 72, 45
2, 160435, Note_off_c, 0, 72, 64
2, 160440, Note_on_c, 0, 75, 45
2, 160560, Note_off_c, 0, 75, 64
2, 160560, Note_on_c, 0, 74, 45
2, 160680, Note_off_c, 0, 74, 64
2, 160680, Note_on_c, 0, 72, 45
2, 160795, Note_off_c, 0, 72, 64
2, 160800, Note_on_c, 0, 79, 45
2, 161395, Note_off_c, 0, 79, 64
2, 161400, Note_on_c, 0, 82, 45
2, 161520, Note_off_c, 0, 82, 64
2, 161520, Note_on_c, 0, 80, 45
2, 161640, Note_off_c, 0, 80, 64
2, 161640, Note_on_c, 0, 79, 45
2, 161760, Note_off_c, 0, 79, 64
2, 161760, Note_on_c, 0, 84, 45
2, 161995, Note_off_c, 0, 84, 64
2, 162000, Note_on_c, 0, 84, 52
2, 162235, Note_off_c, 0, 84, 64
2, 162360, Note_on_c, 0, 91, 60
2, 162480, Note_off_c, 0, 91, 64
2, 162480, Note_on_c, 0, 87, 60
2, 162600, Note_off_c, 0, 87, 64
2, 162600, Note_on_c, 0, 84, 60
2, 162720, Note_off_c, 0, 84, 64
2, 162720, Note_on_c, 0, 83, 60
2, 162960, Note_off_c, 0, 83, 64
2, 162960, Note_on_c, 0, 79, 60
2, 163195, Note_off_c, 0, 79, 64
2, 163320, Note_on_c, 0, 83, 60
2, 163440, Note_off_c, 0, 83, 64
2, 163440, Note_on_c, 0, 86, 60
2, 163560, Note_off_c, 0, 86, 64
2, 163560, Note_on_c, 0, 91, 60
2, 163675, Note_off_c, 0, 91, 64
2, 163800, Note_on_c, 0, 91, 60
2, 163920, Note_off_c, 0, 91, 64
2, 163920, Note_on_c, 0, 87, 60
2, 164040, Note_off_c, 0, 87, 64
2, 164040, Note_on_c, 0, 84, 60
2, 164160, Note_off_c, 0, 84, 64
2, 164160, Note_on_c, 0, 92, 60
2, 164395, Note_off_c, 0, 92, 64
2, 164400, Note_on_c, 0, 89, 60
2, 164635, Note_off_c, 0, 89, 64
2, 164760, Note_on_c, 0, 80, 60
2, 164880, Note_off_c, 0, 80, 64
2, 164880, Note_on_c, 0, 84, 60
2, 165000, Note_off_c, 0, 84, 64
2, 165000, Note_on_c, 0, 89, 60
2, 165115, Note_off_c, 0, 89, 64
2, 165240, Note_on_c, 0, 91, 60
2, 165360, Note_off_c, 0, 91, 64
2, 165360, Note_on_c, 0, 87, 60
2, 165480, Note_off_c, 0, 87, 64
2, 165480, Note_on_c, 0, 83, 60
2, 165600, Note_off_c, 0, 83, 64
2, 165600, Note_on_c, 0, 84, 60
2, 165835, Note_off_c, 0, 84, 64
2, 165840, Note_on_c, 0, 80, 60
2, 166075, Note_off_c, 0, 80, 64
2, 166200, Note_on_c, 0, 84, 60
2, 166320, Note_off_c, 0, 84, 64
2, 166320, Note_on_c, 0, 87, 60
2, 166440, Note_off_c, 0, 87, 64
2, 166440, Note_on_c, 0, 92, 60
2, 166555, Note_off_c, 0, 92, 64
2, 166680, Note_on_c, 0, 92, 60
2, 166800, Note_off_c, 0, 92, 64
2, 166800, Note_on_c, 0, 87, 60
2, 166920, Note_off_c, 0, 87, 64
2, 166920, Note_on_c, 0, 84, 60
2, 167040, Note_off_c, 0, 84, 64
2, 167040, Note_on_c, 0, 83, 60
2, 167275, Note_off_c, 0, 83, 64
2, 167280, Note_on_c, 0, 79, 60
2, 167515, Note_off_c, 0, 79, 64
2, 167640, Note_on_c, 0, 83, 60
2, 167760, Note_off_c, 0, 83, 64
2, 167760, Note_on_c, 0, 86, 60
2, 167880, Note_off_c, 0, 86, 64
2, 167880, Note_on_c, 0, 91, 60
2, 167995, Note_off_c, 0, 91, 64
2, 168120, Note_on_c, 0, 92, 60
2, 168240, Note_off_c, 0, 92, 64
2, 168240, Note_on_c, 0, 89, 60
2, 168360, Note_off_c, 0, 89, 64
2, 168360, Note_on_c, 0, 83, 60
2, 168480, Note_off_c, 0, 83, 64
2, 168480, Note_on_c, 0, 91, 60
2, 168715, Note_off_c, 0, 91, 64
2, 168720, Note_on_c, 0, 87, 60
2, 168955, Note_off_c, 0, 87, 64
2, 169080, Note_on_c, 0, 79, 60
2, 169200, Note_off_c, 0, 79, 64
2, 169200, Note_on_c, 0, 82, 60
2, 169320, Note_off_c, 0, 82, 64
2, 169320, Note_on_c, 0, 87, 60
2, 169435, Note_off_c, 0, 87, 64
2, 169560, Note_on_c, 0, 89, 60
2, 169680, Note_off_c, 0, 89, 64
2, 169680, Note_on_c, 0, 86, 60
2, 169800, Note_off_c, 0, 86, 64
2, 169800, Note_on_c, 0, 79, 60
2, 169920, Note_off_c, 0, 79, 64
2, 169920, Note_on_c, 0, 87, 60
2, 170155, Note_off_c, 0, 87, 64
2, 170160, Note_on_c, 0, 84, 60
2, 170395, Note_off_c, 0, 84, 64
2, 170520, Note_on_c, 0, 75, 60
2, 170640, Note_off_c, 0, 75, 64
2, 170640, Note_on_c, 0, 79, 60
2, 170760, Note_off_c, 0, 79, 64
2, 170760, Note_on_c, 0, 84, 60
2, 170875, Note_off_c, 0, 84, 64
2, 171000, Note_on_c, 0, 92, 60
2, 171120, Note_off_c, 0, 92, 64
2, 171120, Note_on_c, 0, 89, 60
2, 171240, Note_off_c, 0, 89, 64
2, 171240, Note_on_c, 0, 86, 60
2, 171360, Note_off_c, 0, 86, 64
2, 171360, Note_on_c, 0, 87, 60
2, 171440, Note_off_c, 0, 87, 64
2, 171440, Note_on_c, 0, 89, 60
2, 171520, Note_off_c, 0, 89, 64
2, 171520, Note_on_c, 0, 87, 60
2, 171600, Note_off_c, 0, 87, 64
2, 171600, Note_on_c, 0, 84, 60
2, 171835, Note_off_c, 0, 84, 64
2, 171960, Note_on_c, 0, 84, 60
2, 172080, Note_off_c, 0, 84, 64
2, 172080, Note_on_c, 0, 87, 60
2, 172200, Note_off_c, 0, 87, 64
2, 172200, Note_on_c, 0, 91, 60
2, 172315, Note_off_c, 0, 91, 64
2, 172320, Note_on_c, 0, 83, 60
2, 172440, Note_off_c, 0, 83, 64
2, 172440, Note_on_c, 0, 86, 60
2, 172560, Note_off_c, 0, 86, 64
2, 172560, Note_on_c, 0, 89, 60
2, 172680, Note_off_c, 0, 89, 64
2, 172680, Note_on_c, 0, 83, 60
2, 172800, Note_off_c, 0, 83, 64
2, 172800, Note_on_c, 0, 87, 60
2, 173200, Note_off_c, 0, 87, 64
2, 173760, Note_on_c, 0, 75, 75
2, 174160, Note_off_c, 0, 75, 64
2, 174240, Note_on_c, 0, 74, 75
2, 175080, Note_off_c, 0, 74, 64
2, 175200, Note_on_c, 0, 75, 75
2, 175600, Note_off_c, 0, 75, 64
2, 175680, Note_on_c, 0, 77, 75
2, 176520, Note_off_c, 0, 77, 64
2, 176640, Note_on_c, 0, 74, 75
2, 177040, Note_off_c, 0, 74, 64
2, 177120, Note_on_c, 0, 75, 75
2, 177960, Note_off_c, 0, 75, 64
2, 178080, Note_on_c, 0, 77, 75
2, 178480, Note_off_c, 0, 77, 64
2, 178560, Note_on_c, 0, 74, 75
2, 179400, Note_off_c, 0, 74, 64
2, 179520, Note_on_c, 0, 74, 75
2, 179920, Note_off_c, 0, 74, 64
2, 180000, Note_on_c, 0, 75, 75
2, 180840, Note_off_c, 0, 75, 64
2, 180960, Note_on_c, 0, 74, 75
2, 181360, Note_off_c, 0, 74, 64
2, 181440, Note_on_c, 0, 75, 75
2, 182280, Note_off_c, 0, 75, 64
2, 182400, Note_on_c, 0, 77, 75
2, 182800, Note_off_c, 0, 77, 64
2, 182880, Note_on_c, 0, 79, 75
2, 184200, Note_off_c, 0, 79, 64
2, 184320, Note_on_c, 0, 75, 85
2, 185160, Note_off_c, 0, 75, 64
2, 185520, Note_on_c, 0, 84, 127
2, 185755, Note_off_c, 0, 84, 64
2, 185880, Note_on_c, 0, 84, 92
2, 186000, Note_off_c, 0, 84, 64
2, 186000, Note_on_c, 0, 86, 92
2, 186240, Note_off_c, 0, 86, 64
2, 186240, Note_on_c, 0, 83, 92
2, 186720, Note_off_c, 0, 83, 64
2, 186720, Note_on_c, 0, 84, 92
2, 186955, Note_off_c, 0, 84, 64
2, 186960, Note_on_c, 0, 84, 127
2, 187195, Note_off_c, 0, 84, 64
2, 187320, Note_on_c, 0, 82, 92
2, 187440, Note_off_c, 0, 82, 64
2, 187440, Note_on_c, 0, 84, 92
2, 187680, Note_off_c, 0, 84, 64
2, 187680, Note_on_c, 0, 80, 92
2, 188160, Note_off_c, 0, 80, 64
2, 188160, Note_on_c, 0, 79, 92
2, 188395, Note_off_c, 0, 79, 64
2, 188400, Note_on_c, 0, 83, 127
2, 188635, Note_off_c, 0, 83, 64
2, 188760, Note_on_c, 0, 86, 92
2, 188880, Note_off_c, 0, 86, 64
2, 188880, Note_on_c, 0, 87, 92
2, 189120, Note_off_c, 0, 87, 64
2, 189120, Note_on_c, 0, 84, 92
2, 189835, Note_off_c, 0, 84, 64
2, 189840, Note_on_c, 0, 84, 127
2, 190075, Note_off_c, 0, 84, 64
2, 190200, Note_on_c, 0, 84, 92
2, 190320, Note_off_c, 0, 84, 64
2, 190320, Note_on_c, 0, 86, 92
2, 190560, Note_off_c, 0, 86, 64
2, 190560, Note_on_c, 0, 83, 92
2, 191275, Note_off_c, 0, 83, 64
2, 191280, Note_on_c, 0, 83, 127
2, 191515, Note_off_c, 0, 83, 64
2, 191640, Note_on_c, 0, 78, 92
2, 191760, Note_off_c, 0, 78, 64
2, 191760, Note_on_c, 0, 79, 92
2, 192000, Note_off_c, 0, 79, 64
2, 192000, Note_on_c, 0, 75, 92
2, 192480, Note_off_c, 0, 75, 64
2, 192480, Note_on_c, 0, 74, 92
2, 192715, Note_off_c, 0, 74, 64
2, 192720, Note_on_c, 0, 83, 127
2, 192955, Note_off_c, 0, 83, 64
2, 193080, Note_on_c, 0, 77, 92
2, 193200, Note_off_c, 0, 77, 64
2, 193200, Note_on_c, 0, 79, 92
2, 193440, Note_off_c, 0, 79, 64
2, 193440, Note_on_c, 0, 75, 92
2, 193920, Note_off_c, 0, 75, 64
2, 193920, Note_on_c, 0, 77, 92
2, 194155, Note_off_c, 0, 77, 64
2, 194160, Note_on_c, 0, 84, 127
2, 194395, Note_off_c, 0, 84, 64
2, 194520, Note_on_c, 0, 77, 92
2, 194640, Note_off_c, 0, 77, 64
2, 194640, Note_on_c, 0, 79, 92
2, 194880, Note_off_c, 0, 79, 64
2, 194880, Note_on_c, 0, 75, 92
2, 195360, Note_off_c, 0, 75, 64
2, 195360, Note_on_c, 0, 74, 92
2, 195595, Note_off_c, 0, 74, 64
2, 195600, Note_on_c, 0, 83, 127
2, 195835, Note_off_c, 0, 83, 64
2, 195960, Note_on_c, 0, 77, 92
2, 196080, Note_off_c, 0, 77, 64
2, 196080, Note_on_c, 0, 79, 92
2, 196320, Note_off_c, 0, 79, 64
2, 196320, Note_on_c, 0, 75, 92
2, 196720, Note_off_c, 0, 75, 64
2, 196920, Note_on_c, 0, 89, 92
2, 196980, Note_off_c, 0, 89, 64
2, 196980, Note_on_c, 0, 87, 92
2, 197035, Note_off_c, 0, 87, 64
2, 197040, Note_on_c, 0, 87, 92
2, 197160, Note_off_c, 0, 87, 64
2, 197160, Note_on_c, 0, 86, 92
2, 197220, Note_off_c, 0, 86, 64
2, 197220, Note_on_c, 0, 84, 92
2, 197275, Note_off_c, 0, 84, 64
2, 197280, Note_on_c, 0, 84, 92
2, 197400, Note_off_c, 0, 84, 64
2, 197400, Note_on_c, 0, 83, 92
2, 197460, Note_off_c, 0, 83, 64
2, 197460, Note_on_c, 0, 81, 92
2, 197515, Note_off_c, 0, 81, 64
2, 197520, Note_on_c, 0, 81, 92
2, 197640, Note_off_c, 0, 81, 64
2, 197640, Note_on_c, 0, 83, 92
2, 197700, Note_off_c, 0, 83, 64
2, 197700, Note_on_c, 0, 84, 92
2, 197755, Note_off_c, 0, 84, 64
2, 197760, Note_on_c, 0, 83, 92
2, 197880, Note_off_c, 0, 83, 64
2, 197880, Note_on_c, 0, 84, 92
2, 197940, Note_off_c, 0, 84, 64
2, 197940, Note_on_c, 0, 86, 92
2, 197995, Note_off_c, 0, 86, 64
2, 198000, Note_on_c, 0, 86, 92
2, 198120, Note_off_c, 0, 86, 64
2, 198120, Note_on_c, 0, 87, 92
2, 198180, Note_off_c, 0, 87, 64
2, 198180, Note_on_c, 0, 89, 92
2, 198235, Note_off_c, 0, 89, 64
2, 198240, Note_on_c, 0, 87, 92
2, 198360, Note_off_c, 0, 87, 64
2, 198360, Note_on_c, 0, 89, 92
2, 198420, Note_off_c, 0, 89, 64
2, 198420, Note_on_c, 0, 91, 92
2, 198475, Note_off_c, 0, 91, 64
2, 198480, Note_on_c, 0, 91, 92
2, 198600, Note_off_c, 0, 91, 64
2, 198600, Note_on_c, 0, 92, 92
2, 198660, Note_off_c, 0, 92, 64
2, 198660, Note_on_c, 0, 94, 92
2, 198715, Note_off_c, 0, 94, 64
2, 198720, Note_on_c, 0, 92, 92
2, 198840, Note_off_c, 0, 92, 64
2, 198840, Note_on_c, 0, 91, 92
2, 198900, Note_off_c, 0, 91, 64
2, 198900, Note_on_c, 0, 89, 92
2, 198955, Note_off_c, 0, 89, 64
2, 198960, Note_on_c, 0, 89, 92
2, 199080, Note_off_c, 0, 89, 64
2, 199080, Note_on_c, 0, 87, 92
2, 199140, Note_off_c, 0, 87, 64
2, 199140, Note_on_c, 0, 86, 92
2, 199195, Note_off_c, 0, 86, 64
2, 199200, Note_on_c, 0, 86, 92
2, 199320, Note_off_c, 0, 86, 64
2, 199320, Note_on_c, 0, 87, 92
2, 199380, Note_off_c, 0, 87, 64
2, 199380, Note_on_c, 0, 89, 92
2, 199435, Note_off_c, 0, 89, 64
2, 199440, Note_on_c, 0, 89, 92
2, 199560, Note_off_c, 0, 89, 64
2, 199560, Note_on_c, 0, 91, 92
2, 199620, Note_off_c, 0, 91, 64
2, 199620, Note_on_c, 0, 92, 92
2, 199675, Note_off_c, 0, 92, 64
2, 199680, Note_on_c, 0, 83, 92
2, 199710, Note_off_c, 0, 83, 64
2, 199710, Note_on_c, 0, 84, 92
2, 199740, Note_off_c, 0, 84, 64
2, 199740, Note_on_c, 0, 83, 92
2, 199770, Note_off_c, 0, 83, 64
2, 199770, Note_on_c, 0, 84, 92
2, 199800, Note_off_c, 0, 84, 64
2, 199800, Note_on_c, 0, 83, 92
2, 199830, Note_off_c, 0, 83, 64
2, 199830, Note_on_c, 0, 84, 92
2, 199860, Note_off_c, 0, 84, 64
2, 199860, Note_on_c, 0, 83, 92
2, 199890, Note_off_c, 0, 83, 64
2, 199890, Note_on_c, 0, 84, 92
2, 199920, Note_off_c, 0, 84, 64
2, 199920, Note_on_c, 0, 83, 92
2, 199950, Note_off_c, 0, 83, 64
2, 199950, Note_on_c, 0, 84, 92
2, 199980, Note_off_c, 0, 84, 64
2, 199980, Note_on_c, 0, 83, 92
2, 200010, Note_off_c, 0, 83, 64
2, 200010, Note_on_c, 0, 84, 92
2, 200040, Note_off_c, 0, 84, 64
2, 200040, Note_on_c, 0, 83, 92
2, 200070, Note_off_c, 0, 83, 64
2, 200070, Note_on_c, 0, 84, 92
2, 200100, Note_off_c, 0, 84, 64
2, 200100, Note_on_c, 0, 83, 92
2, 200130, Note_off_c, 0, 83, 64
2, 200130, Note_on_c, 0, 84, 92
2, 200160, Note_off_c, 0, 84, 64
2, 200160, Note_on_c, 0, 83, 92
2, 200190, Note_off_c, 0, 83, 64
2, 200190, Note_on_c, 0, 84, 92
2, 200220, Note_off_c, 0, 84, 64
2, 200220, Note_on_c, 0, 83, 92
2, 200250, Note_off_c, 0, 83, 64
2, 200250, Note_on_c, 0, 84, 92
2, 200280, Note_off_c, 0, 84, 64
2, 200280, Note_on_c, 0, 83, 92
2, 200310, Note_off_c, 0, 83, 64
2, 200310, Note_on_c, 0, 84, 92
2, 200340, Note_off_c, 0, 84, 64
2, 200340, Note_on_c, 0, 83, 92
2, 200370, Note_off_c, 0, 83, 64
2, 200370, Note_on_c, 0, 84, 92
2, 200400, Note_off_c, 0, 84, 64
2, 200400, Note_on_c, 0, 83, 92
2, 200455, Note_off_c, 0, 83, 64
2, 200460, Note_on_c, 0, 96, 92
2, 200520, Note_off_c, 0, 96, 64
2, 200520, Note_on_c, 0, 94, 92
2, 200580, Note_off_c, 0, 94, 64
2, 200580, Note_on_c, 0, 92, 92
2, 200635, Note_off_c, 0, 92, 64
2, 200640, Note_on_c, 0, 92, 92
2, 200700, Note_off_c, 0, 92, 64
2, 200700, Note_on_c, 0, 91, 92
2, 200760, Note_off_c, 0, 91, 64
2, 200760, Note_on_c, 0, 89, 92
2, 200815, Note_off_c, 0, 89, 64
2, 200820, Note_on_c, 0, 89, 92
2, 200880, Note_off_c, 0, 89, 64
2, 200880, Note_on_c, 0, 87, 92
2, 200940, Note_off_c, 0, 87, 64
2, 200940, Note_on_c, 0, 86, 92
2, 200995, Note_off_c, 0, 86, 64
2, 201000, Note_on_c, 0, 86, 92
2, 201060, Note_off_c, 0, 86, 64
2, 201060, Note_on_c, 0, 87, 92
2, 201120, Note_off_c, 0, 87, 64
2, 201120, Note_on_c, 0, 89, 92
2, 201175, Note_off_c, 0, 89, 64
2, 201180, Note_on_c, 0, 89, 92
2, 201240, Note_off_c, 0, 89, 64
2, 201240, Note_on_c, 0, 91, 92
2, 201300, Note_off_c, 0, 91, 64
2, 201300, Note_on_c, 0, 92, 92
2, 201355, Note_off_c, 0, 92, 64
2, 201360, Note_on_c, 0, 92, 92
2, 201480, Note_off_c, 0, 92, 64
2, 201480, Note_on_c, 0, 95, 92
2, 201540, Note_off_c, 0, 95, 64
2, 201540, Note_on_c, 0, 96, 92
2, 201595, Note_off_c, 0, 96, 64
2, 201600, Note_on_c, 0, 95, 92
2, 201960, Note_off_c, 0, 95, 64
2, 201960, Note_on_c, 0, 93, 92
2, 202080, Note_off_c, 0, 93, 64
2, 202080, Note_on_c, 0, 95, 92
2, 202480, Note_off_c, 0, 95, 64
2, 204720, Note_on_c, 0, 79, 92
2, 204840, Note_off_c, 0, 79, 64
2, 204840, Note_on_c, 0, 77, 92
2, 204900, Note_off_c, 0, 77, 64
2, 204900, Note_on_c, 0, 75, 92
2, 204955, Note_off_c, 0, 75, 64
2, 204960, Note_on_c, 0, 75, 92
2, 205080, Note_off_c, 0, 75, 64
2, 205080, Note_on_c, 0, 74, 92
2, 205140, Note_off_c, 0, 74, 64
2, 205140, Note_on_c, 0, 72, 92
2, 205195, Note_off_c, 0, 72, 64
2, 205200, Note_on_c, 0, 84, 92
2, 205320, Note_off_c, 0, 84, 64
2, 205320, Note_on_c, 0, 83, 92
2, 205380, Note_off_c, 0, 83, 64
2, 205380, Note_on_c, 0, 80, 92
2, 205435, Note_off_c, 0, 80, 64
2, 205440, Note_on_c, 0, 80, 92
2, 205560, Note_off_c, 0, 80, 64
2, 205560, Note_on_c, 0, 79, 92
2, 205620, Note_off_c, 0, 79, 64
2, 205620, Note_on_c, 0, 77, 92
2, 205675, Note_off_c, 0, 77, 64
2, 205680, Note_on_c, 0, 77, 92
2, 205800, Note_off_c, 0, 77, 64
2, 205800, Note_on_c, 0, 75, 92
2, 205860, Note_off_c, 0, 75, 64
2, 205860, Note_on_c, 0, 74, 92
2, 205915, Note_off_c, 0, 74, 64
2, 205920, Note_on_c, 0, 74, 92
2, 206040, Note_off_c, 0, 74, 64
2, 206040, Note_on_c, 0, 72, 92
2, 206100, Note_off_c, 0, 72, 64
2, 206100, Note_on_c, 0, 71, 92
2, 206155, Note_off_c, 0, 71, 64
2, 206160, Note_on_c, 0, 71, 92
2, 206280, Note_off_c, 0, 71, 64
2, 206280, Note_on_c, 0, 72, 92
2, 206340, Note_off_c, 0, 72, 64
2, 206340, Note_on_c, 0, 74, 92
2, 206395, Note_off_c, 0, 74, 64
2, 206400, Note_on_c, 0, 74, 92
2, 206520, Note_off_c, 0, 74, 64
2, 206520, Note_on_c, 0, 75, 92
2, 206580, Note_off_c, 0, 75, 64
2, 206580, Note_on_c, 0, 77, 92
2, 206635, Note_off_c, 0, 77, 64
2, 206640, Note_on_c, 0, 77, 92
2, 206760, Note_off_c, 0, 77, 64
2, 206760, Note_on_c, 0, 79, 92
2, 206820, Note_off_c, 0, 79, 64
2, 206820, Note_on_c, 0, 80, 92
2, 206875, Note_off_c, 0, 80, 64
2, 206880, Note_on_c, 0, 83, 92
2, 206910, Note_off_c, 0, 83, 64
2, 206910, Note_on_c, 0, 84, 92
2, 206940, Note_off_c, 0, 84, 64
2, 206940, Note_on_c, 0, 83, 92
2, 206970, Note_off_c, 0, 83, 64
2, 206970, Note_on_c, 0, 84, 92
2, 207000, Note_off_c, 0, 84, 64
2, 207000, Note_on_c, 0, 83, 92
2, 207030, Note_off_c, 0, 83, 64
2, 207030, Note_on_c, 0, 84, 92
2, 207060, Note_off_c, 0, 84, 64
2, 207060, Note_on_c, 0, 83, 92
2, 207090, Note_off_c, 0, 83, 64
2, 207090, Note_on_c, 0, 84, 92
2, 207120, Note_off_c, 0, 84, 64
2, 207120, Note_on_c, 0, 83, 92
2, 207150, Note_off_c, 0, 83, 64
2, 207150, Note_on_c, 0, 84, 92
2, 207180, Note_off_c, 0, 84, 64
2, 207180, Note_on_c, 0, 83, 92
2, 207210, Note_off_c, 0, 83, 64
2, 207210, Note_on_c, 0, 84, 92
2, 207240, Note_off_c, 0, 84, 64
2, 207240, Note_on_c, 0, 83, 92
2, 207270, Note_off_c, 0, 83, 64
2, 207270, Note_on_c, 0, 84, 92
2, 207300, Note_off_c, 0, 84, 64
2, 207300, Note_on_c, 0, 83, 92
2, 207330, Note_off_c, 0, 83, 64
2, 207330, Note_on_c, 0, 84, 92
2, 207360, Note_off_c, 0, 84, 64
2, 207360, Note_on_c, 0, 84, 92
2, 207475, Note_off_c, 0, 84, 64
2, 207480, Note_on_c, 0, 82, 94
2, 207540, Note_off_c, 0, 82, 64
2, 207540, Note_on_c, 0, 80, 95
2, 207595, Note_off_c, 0, 80, 64
2, 207600, Note_on_c, 0, 79, 96
2, 207720, Note_off_c, 0, 79, 64
2, 207720, Note_on_c, 0, 77, 98
2, 207780, Note_off_c, 0, 77, 64
2, 207780, Note_on_c, 0, 75, 99
2, 207835, Note_off_c, 0, 75, 64
2, 207840, Note_on_c, 0, 75, 100
2, 207960, Note_off_c, 0, 75, 64
2, 207960, Note_on_c, 0, 74, 102
2, 208020, Note_off_c, 0, 74, 64
2, 208020, Note_on_c, 0, 72, 103
2, 208075, Note_off_c, 0, 72, 64
2, 208080, Note_on_c, 0, 72, 104
2, 208195, Note_off_c, 0, 72, 64
2, 208320, Note_on_c, 0, 84, 108
2, 209035, Note_off_c, 0, 84, 64
2, 209040, Note_on_c, 0, 83, 108
2, 209160, Note_off_c, 0, 83, 64
2, 209160, Note_on_c, 0, 81, 108
2, 209280, Note_off_c, 0, 81, 64
2, 209280, Note_on_c, 0, 83, 108
2, 209515, Note_off_c, 0, 83, 64
2, 209520, Note_on_c, 0, 84, 108
2, 209640, Note_off_c, 0, 84, 64
2, 209640, Note_on_c, 0, 86, 108
2, 209760, Note_off_c, 0, 86, 64
2, 209760, Note_on_c, 0, 87, 108
2, 210000, Note_off_c, 0, 87, 64
2, 210000, Note_on_c, 0, 84, 108
2, 210235, Note_off_c, 0, 84, 64
2, 210240, Note_on_c, 0, 82, 108
2, 210360, Note_off_c, 0, 82, 64
2, 210360, Note_on_c, 0, 80, 108
2, 210480, Note_off_c, 0, 80, 64
2, 210480, Note_on_c, 0, 86, 108
2, 210600, Note_off_c, 0, 86, 64
2, 210600, Note_on_c, 0, 84, 108
2, 210720, Note_off_c, 0, 84, 64
2, 210720, Note_on_c, 0, 86, 108
2, 210955, Note_off_c, 0, 86, 64
2, 210960, Note_on_c, 0, 87, 108
2, 211080, Note_off_c, 0, 87, 64
2, 211080, Note_on_c, 0, 89, 108
2, 211200, Note_off_c, 0, 89, 64
2, 211200, Note_on_c, 0, 83, 108
2, 211915, Note_off_c, 0, 83, 64
2, 211920, Note_on_c, 0, 84, 108
2, 212040, Note_off_c, 0, 84, 64
2, 212040, Note_on_c, 0, 83, 108
2, 212160, Note_off_c, 0, 83, 64
2, 212160, Note_on_c, 0, 84, 108
2, 212395, Note_off_c, 0, 84, 64
2, 212400, Note_on_c, 0, 86, 108
2, 212520, Note_off_c, 0, 86, 64
2, 212520, Note_on_c, 0, 87, 108
2, 212640, Note_off_c, 0, 87, 64
2, 212640, Note_on_c, 0, 89, 108
2, 213355, Note_off_c, 0, 89, 64
2, 213360, Note_on_c, 0, 87, 108
2, 213480, Note_off_c, 0, 87, 64
2, 213480, Note_on_c, 0, 86, 108
2, 213600, Note_off_c, 0, 86, 64
2, 213600, Note_on_c, 0, 87, 108
2, 213835, Note_off_c, 0, 87, 64
2, 213840, Note_on_c, 0, 89, 108
2, 213960, Note_off_c, 0, 89, 64
2, 213960, Note_on_c, 0, 91, 108
2, 214080, Note_off_c, 0, 91, 64
2, 214080, Note_on_c, 0, 86, 108
2, 214795, Note_off_c, 0, 86, 64
2, 214800, Note_on_c, 0, 84, 108
2, 214920, Note_off_c, 0, 84, 64
2, 214920, Note_on_c, 0, 83, 108
2, 215040, Note_off_c, 0, 83, 64
2, 215040, Note_on_c, 0, 84, 108
2, 215275, Note_off_c, 0, 84, 64
2, 215280, Note_on_c, 0, 86, 108
2, 215400, Note_off_c, 0, 86, 64
2, 215400, Note_on_c, 0, 87, 108
2, 215520, Note_off_c, 0, 87, 64
2, 215520, Note_on_c, 0, 89, 108
2, 216235, Note_off_c, 0, 89, 64
2, 216240, Note_on_c, 0, 87, 108
2, 216360, Note_off_c, 0, 87, 64
2, 216360, Note_on_c, 0, 86, 108
2, 216480, Note_off_c, 0, 86, 64
2, 216480, Note_on_c, 0, 87, 108
2, 216715, Note_off_c, 0, 87, 64
2, 216720, Note_on_c, 0, 89, 108
2, 216840, Note_off_c, 0, 89, 64
2, 216840, Note_on_c, 0, 91, 108
2, 216960, Note_off_c, 0, 91, 64
2, 216960, Note_on_c, 0, 92, 108
2, 217675, Note_off_c, 0, 92, 64
2, 217680, Note_on_c, 0, 91, 108
2, 217800, Note_off_c, 0, 91, 64
2, 217800, Note_on_c, 0, 89, 108
2, 217920, Note_off_c, 0, 89, 64
2, 217920, Note_on_c, 0, 91, 108
2, 218155, Note_off_c, 0, 91, 64
2, 218160, Note_on_c, 0, 89, 108
2, 218280, Note_off_c, 0, 89, 64
2, 218280, Note_on_c, 0, 87, 108
2, 218400, Note_off_c, 0, 87, 64
2, 218400, Note_on_c, 0, 87, 108
2, 218635, Note_off_c, 0, 87, 64
2, 218640, Note_on_c, 0, 86, 108
2, 218760, Note_off_c, 0, 86, 64
2, 218760, Note_on_c, 0, 84, 108
2, 218880, Note_off_c, 0, 84, 64
2, 218880, Note_on_c, 0, 84, 108
2, 219520, Note_off_c, 0, 84, 64
2, 219600, Note_on_c, 0, 84, 108
2, 219720, Note_off_c, 0, 84, 64
2, 219720, Note_on_c, 0, 83, 108
2, 219840, Note_off_c, 0, 83, 64
2, 219840, Note_on_c, 0, 84, 108
2, 220075, Note_off_c, 0, 84, 64
2, 220080, Note_on_c, 0, 84, 108
2, 220915, Note_off_c, 0, 84, 64
2, 220920, Note_on_c, 0, 86, 108
2, 221040, Note_off_c, 0, 86, 64
2, 221040, Note_on_c, 0, 84, 108
2, 221160, Note_off_c, 0, 84, 64
2, 221160, Note_on_c, 0, 83, 108
2, 221280, Note_off_c, 0, 83, 64
2, 221280, Note_on_c, 0, 84, 108
2, 221875, Note_off_c, 0, 84, 64
2, 221880, Note_on_c, 0, 86, 108
2, 222000, Note_off_c, 0, 86, 64
2, 222000, Note_on_c, 0, 84, 108
2, 222120, Note_off_c, 0, 84, 64
2, 222120, Note_on_c, 0, 83, 108
2, 222240, Note_off_c, 0, 83, 64
2, 222240, Note_on_c, 0, 84, 108
2, 222835, Note_off_c, 0, 84, 64
2, 222840, Note_on_c, 0, 86, 108
2, 222960, Note_off_c, 0, 86, 64
2, 222960, Note_on_c, 0, 84, 108
2, 223080, Note_off_c, 0, 84, 64
2, 223080, Note_on_c, 0, 83, 108
2, 223200, Note_off_c, 0, 83, 64
2, 223200, Note_on_c, 0, 84, 108
2, 223795, Note_off_c, 0, 84, 64
2, 223800, Note_on_c, 0, 86, 108
2, 223920, Note_off_c, 0, 86, 64
2, 223920, Note_on_c, 0, 84, 108
2, 224040, Note_off_c, 0, 84, 64
2, 224040, Note_on_c, 0, 83, 108
2, 224160, Note_off_c, 0, 83, 64
2, 224160, Note_on_c, 0, 84, 108
2, 224755, Note_off_c, 0, 84, 64
2, 224760, Note_on_c, 0, 86, 108
2, 224880, Note_off_c, 0, 86, 64
2, 224880, Note_on_c, 0, 84, 108
2, 225000, Note_off_c, 0, 84, 64
2, 225000, Note_on_c, 0, 83, 108
2, 225120, Note_off_c, 0, 83, 64
2, 225120, Note_on_c, 0, 84, 108
2, 225355, Note_off_c, 0, 84, 64
2, 225360, Note_on_c, 0, 83, 108
2, 225480, Note_off_c, 0, 83, 64
2, 225480, Note_on_c, 0, 81, 108
2, 225600, Note_off_c, 0, 81, 64
2, 225600, Note_on_c, 0, 83, 108
2, 226195, Note_off_c, 0, 83, 64
2, 226200, Note_on_c, 0, 86, 108
2, 226320, Note_off_c, 0, 86, 64
2, 226320, Note_on_c, 0, 84, 108
2, 226440, Note_off_c, 0, 84, 64
2, 226440, Note_on_c, 0, 83, 108
2, 226560, Note_off_c, 0, 83, 64
2, 226560, Note_on_c, 0, 84, 108
2, 226915, Note_off_c, 0, 84, 64
2, 226920, Note_on_c, 0, 87, 108
2, 227040, Note_off_c, 0, 87, 64
2, 227040, Note_on_c, 0, 86, 108
2, 227160, Note_off_c, 0, 86, 64
2, 227160, Note_on_c, 0, 89, 108
2, 227280, Note_off_c, 0, 89, 64
2, 227280, Note_on_c, 0, 87, 108
2, 227400, Note_off_c, 0, 87, 64
2, 227400, Note_on_c, 0, 86, 108
2, 227520, Note_off_c, 0, 86, 64
2, 227520, Note_on_c, 0, 87, 108
2, 228115, Note_off_c, 0, 87, 64
2, 228120, Note_on_c, 0, 91, 108
2, 228240, Note_off_c, 0, 91, 64
2, 228240, Note_on_c, 0, 89, 108
2, 228360, Note_off_c, 0, 89, 64
2, 228360, Note_on_c, 0, 87, 108
2, 228475, Note_off_c, 0, 87, 64
2, 228480, Note_on_c, 0, 92, 108
2, 228880, Note_off_c, 0, 92, 64
2, 228960, Note_on_c, 0, 86, 108
2, 229555, Note_off_c, 0, 86, 64
2, 229560, Note_on_c, 0, 87, 108
2, 229680, Note_off_c, 0, 87, 64
2, 229680, Note_on_c, 0, 86, 108
2, 229800, Note_off_c, 0, 86, 64
2, 229800, Note_on_c, 0, 84, 108
2, 230035, Note_off_c, 0, 84, 64
2, 230040, Note_on_c, 0, 86, 108
2, 230160, Note_off_c, 0, 86, 64
2, 230160, Note_on_c, 0, 84, 108
2, 230280, Note_off_c, 0, 84, 64
2, 230280, Note_on_c, 0, 83, 108
2, 230400, Note_off_c, 0, 83, 64
2, 230400, Note_on_c, 0, 84, 108
2, 230800, Note_off_c, 0, 84, 64
2, 231600, Note_on_c, 0, 87, 108
2, 231960, Note_off_c, 0, 87, 64
2, 231960, Note_on_c, 0, 89, 108
2, 232080, Note_off_c, 0, 89, 64
2, 232080, Note_on_c, 0, 87, 108
2, 232200, Note_off_c, 0, 87, 64
2, 232200, Note_on_c, 0, 86, 108
2, 232320, Note_off_c, 0, 86, 64
2, 232320, Note_on_c, 0, 87, 108
2, 232915, Note_off_c, 0, 87, 64
2, 232920, Note_on_c, 0, 89, 108
2, 233040, Note_off_c, 0, 89, 64
2, 233040, Note_on_c, 0, 87, 108
2, 233160, Note_off_c, 0, 87, 64
2, 233160, Note_on_c, 0, 86, 108
2, 233280, Note_off_c, 0, 86, 64
2, 233280, Note_on_c, 0, 87, 108
2, 233875, Note_off_c, 0, 87, 64
2, 233880, Note_on_c, 0, 89, 108
2, 234000, Note_off_c, 0, 89, 64
2, 234000, Note_on_c, 0, 87, 108
2, 234120, Note_off_c, 0, 87, 64
2, 234120, Note_on_c, 0, 86, 108
2, 234240, Note_off_c, 0, 86, 64
2, 234240, Note_on_c, 0, 87, 108
2, 234835, Note_off_c, 0, 87, 64
2, 234840, Note_on_c, 0, 89, 108
2, 234960, Note_off_c, 0, 89, 64
2, 234960, Note_on_c, 0, 87, 108
2, 235080, Note_off_c, 0, 87, 64
2, 235080, Note_on_c, 0, 86, 108
2, 235200, Note_off_c, 0, 86, 64
2, 235200, Note_on_c, 0, 87, 108
2, 235795, Note_off_c, 0, 87, 64
2, 235800, Note_on_c, 0, 89, 108
2, 235920, Note_off_c, 0, 89, 64
2, 235920, Note_on_c, 0, 87, 108
2, 236040, Note_off_c, 0, 87, 64
2, 236040, Note_on_c, 0, 86, 108
2, 236160, Note_off_c, 0, 86, 64
2, 236160, Note_on_c, 0, 87, 108
2, 236755, Note_off_c, 0, 87, 64
2, 236760, Note_on_c, 0, 91, 108
2, 236880, Note_off_c, 0, 91, 64
2, 236880, Note_on_c, 0, 89, 108
2, 237000, Note_off_c, 0, 89, 64
2, 237000, Note_on_c, 0, 87, 108
2, 237120, Note_off_c, 0, 87, 64
2, 237120, Note_on_c, 0, 86, 108
2, 237360, Note_off_c, 0, 86, 64
2, 237360, Note_on_c, 0, 92, 108
2, 237595, Note_off_c, 0, 92, 64
2, 237600, Note_on_c, 0, 91, 108
2, 238195, Note_off_c, 0, 91, 64
2, 238200, Note_on_c, 0, 92, 108
2, 238320, Note_off_c, 0, 92, 64
2, 238320, Note_on_c, 0, 91, 108
2, 238440, Note_off_c, 0, 91, 64
2, 238440, Note_on_c, 0, 89, 108
2, 238560, Note_off_c, 0, 89, 64
2, 238560, Note_on_c, 0, 91, 108
2, 239155, Note_off_c, 0, 91, 64
2, 239160, Note_on_c, 0, 92, 108
2, 239280, Note_off_c, 0, 92, 64
2, 239280, Note_on_c, 0, 91, 108
2, 239400, Note_off_c, 0, 91, 64
2, 239400, Note_on_c, 0, 89, 108
2, 239520, Note_off_c, 0, 89, 64
2, 239520, Note_on_c, 0, 87, 108
2, 240115, Note_off_c, 0, 87, 64
2, 240120, Note_on_c, 0, 89, 108
2, 240240, Note_off_c, 0, 89, 64
2, 240240, Note_on_c, 0, 87, 108
2, 240360, Note_off_c, 0, 87, 64
2, 240360, Note_on_c, 0, 86, 108
2, 240480, Note_off_c, 0, 86, 64
2, 240480, Note_on_c, 0, 87, 108
2, 241075, Note_off_c, 0, 87, 64
2, 241080, Note_on_c, 0, 89, 108
2, 241200, Note_off_c, 0, 89, 64
2, 241200, Note_on_c, 0, 87, 108
2, 241320, Note_off_c, 0, 87, 64
2, 241320, Note_on_c, 0, 86, 108
2, 241440, Note_off_c, 0, 86, 64
2, 241440, Note_on_c, 0, 87, 75
2, 241560, Note_off_c, 0, 87, 64
2, 241560, Note_on_c, 0, 89, 75
2, 241680, Note_off_c, 0, 89, 64
2, 241680, Note_on_c, 0, 87, 75
2, 241800, Note_off_c, 0, 87, 64
2, 241800, Note_on_c, 0, 86, 75
2, 241920, Note_off_c, 0, 86, 64
2, 241920, Note_on_c, 0, 84, 60
2, 242040, Note_off_c, 0, 84, 64
2, 242040, Note_on_c, 0, 86, 60
2, 242160, Note_off_c, 0, 86, 64
2, 242160, Note_on_c, 0, 84, 60
2, 242280, Note_off_c, 0, 84, 64
2, 242280, Note_on_c, 0, 83, 60
2, 242400, Note_off_c, 0, 83, 64
2, 242400, Note_on_c, 0, 84, 60
2, 242520, Note_off_c, 0, 84, 64
2, 242520, Note_on_c, 0, 83, 60
2, 242640, Note_off_c, 0, 83, 64
2, 242640, Note_on_c, 0, 84, 60
2, 242760, Note_off_c, 0, 84, 64
2, 242760, Note_on_c, 0, 86, 60
2, 242880, Note_off_c, 0, 86, 64
2, 242880, Note_on_c, 0, 87, 60
2, 243280, Note_off_c, 0, 87, 64
2, 250080, Note_on_c, 0, 67, 60
2, 250480, Note_off_c, 0, 67, 64
2, 250560, Note_on_c, 0, 74, 60
2, 251400, Note_off_c, 0, 74, 64
2, 251520, Note_on_c, 0, 70, 60
2, 251920, Note_off_c, 0, 70, 64
2, 252000, Note_on_c, 0, 72, 60
2, 252840, Note_off_c, 0, 72, 64
2, 252960, Note_on_c, 0, 74, 60
2, 253360, Note_off_c, 0, 74, 64
2, 253440, Note_on_c, 0, 75, 60
2, 254280, Note_off_c, 0, 75, 64
2, 254400, Note_on_c, 0, 72, 60
2, 254800, Note_off_c, 0, 72, 64
2, 254880, Note_on_c, 0, 74, 60
2, 255720, Note_off_c, 0, 74, 64
2, 260880, Note_on_c, 0, 87, 60
2, 261120, Note_off_c, 0, 87, 64
2, 261120, Note_on_c, 0, 83, 60
2, 261355, Note_off_c, 0, 83, 64
2, 261360, Note_on_c, 0, 83, 60
2, 261600, Note_off_c, 0, 83, 64
2, 261600, Note_on_c, 0, 84, 60
2, 262000, Note_off_c, 0, 84, 64
2, 262320, Note_on_c, 0, 92, 60
2, 262560, Note_off_c, 0, 92, 64
2, 262560, Note_on_c, 0, 86, 60
2, 262795, Note_off_c, 0, 86, 64
2, 262800, Note_on_c, 0, 86, 60
2, 263040, Note_off_c, 0, 86, 64
2, 263040, Note_on_c, 0, 88, 60
2, 263440, Note_off_c, 0, 88, 64
2, 263760, Note_on_c, 0, 89, 60
2, 264000, Note_off_c, 0, 89, 64
2, 264000, Note_on_c, 0, 84, 60
2, 264235, Note_off_c, 0, 84, 64
2, 264240, Note_on_c, 0, 84, 60
2, 264480, Note_off_c, 0, 84, 64
2, 264480, Note_on_c, 0, 86, 60
2, 264880, Note_off_c, 0, 86, 64
2, 265200, Note_on_c, 0, 87, 60
2, 265440, Note_off_c, 0, 87, 64
2, 265440, Note_on_c, 0, 83, 60
2, 265675, Note_off_c, 0, 83, 64
2, 265680, Note_on_c, 0, 83, 60
2, 265920, Note_off_c, 0, 83, 64
2, 265920, Note_on_c, 0, 79, 60
2, 266040, Note_off_c, 0, 79, 64
2, 266040, Note_on_c, 0, 80, 60
2, 266160, Note_off_c, 0, 80, 64
2, 266160, Note_on_c, 0, 77, 60
2, 266280, Note_off_c, 0, 77, 64
2, 266280, Note_on_c, 0, 79, 60
2, 266400, Note_off_c, 0, 79, 64
2, 266400, Note_on_c, 0, 75, 60
2, 266520, Note_off_c, 0, 75, 64
2, 266520, Note_on_c, 0, 77, 60
2, 266640, Note_off_c, 0, 77, 64
2, 266640, Note_on_c, 0, 74, 60
2, 266760, Note_off_c, 0, 74, 64
2, 266760, Note_on_c, 0, 75, 60
2, 266875, Note_off_c, 0, 75, 64
2, 266880, Note_on_c, 0, 84, 60
2, 267000, Note_off_c, 0, 84, 64
2, 267000, Note_on_c, 0, 86, 60
2, 267120, Note_off_c, 0, 86, 64
2, 267120, Note_on_c, 0, 82, 60
2, 267240, Note_off_c, 0, 82, 64
2, 267240, Note_on_c, 0, 84, 60
2, 267355, Note_off_c, 0, 84, 64
2, 267360, Note_on_c, 0, 81, 60
2, 267480, Note_off_c, 0, 81, 64
2, 267480, Note_on_c, 0, 82, 60
2, 267600, Note_off_c, 0, 82, 64
2, 267600, Note_on_c, 0, 79, 60
2, 267720, Note_off_c, 0, 79, 64
2, 267720, Note_on_c, 0, 81, 60
2, 267840, Note_off_c, 0, 81, 64
2, 267840, Note_on_c, 0, 78, 60
2, 267960, Note_off_c, 0, 78, 64
2, 267960, Note_on_c, 0, 81, 60
2, 268080, Note_off_c, 0, 81, 64
2, 268080, Note_on_c, 0, 79, 60
2, 268200, Note_off_c, 0, 79, 64
2, 268200, Note_on_c, 0, 82, 60
2, 268320, Note_off_c, 0, 82, 64
2, 268320, Note_on_c, 0, 81, 60
2, 268440, Note_off_c, 0, 81, 64
2, 268440, Note_on_c, 0, 86, 60
2, 268560, Note_off_c, 0, 86, 64
2, 268560, Note_on_c, 0, 84, 60
2, 268680, Note_off_c, 0, 84, 64
2, 268680, Note_on_c, 0, 86, 60
2, 268795, Note_off_c, 0, 86, 64
2, 268800, Note_on_c, 0, 79, 60
2, 268920, Note_off_c, 0, 79, 64
2, 268920, Note_on_c, 0, 91, 60
2, 269040, Note_off_c, 0, 91, 64
2, 269040, Note_on_c, 0, 89, 60
2, 269160, Note_off_c, 0, 89, 64
2, 269160, Note_on_c, 0, 91, 60
2, 269280, Note_off_c, 0, 91, 64
2, 269280, Note_on_c, 0, 87, 60
2, 269400, Note_off_c, 0, 87, 64
2, 269400, Note_on_c, 0, 91, 60
2, 269520, Note_off_c, 0, 91, 64
2, 269520, Note_on_c, 0, 87, 60
2, 269640, Note_off_c, 0, 87, 64
2, 269640, Note_on_c, 0, 91, 60
2, 269760, Note_off_c, 0, 91, 64
2, 269760, Note_on_c, 0, 87, 60
2, 269880, Note_off_c, 0, 87, 64
2, 269880, Note_on_c, 0, 89, 60
2, 270000, Note_off_c, 0, 89, 64
2, 270000, Note_on_c, 0, 87, 60
2, 270120, Note_off_c, 0, 87, 64
2, 270120, Note_on_c, 0, 89, 60
2, 270235, Note_off_c, 0, 89, 64
2, 270240, Note_on_c, 0, 86, 60
2, 270360, Note_off_c, 0, 86, 64
2, 270360, Note_on_c, 0, 89, 60
2, 270480, Note_off_c, 0, 89, 64
2, 270480, Note_on_c, 0, 86, 60
2, 270600, Note_off_c, 0, 86, 64
2, 270600, Note_on_c, 0, 89, 60
2, 270720, Note_off_c, 0, 89, 64
2, 270720, Note_on_c, 0, 84, 60
2, 270840, Note_off_c, 0, 84, 64
2, 270840, Note_on_c, 0, 87, 60
2, 270960, Note_off_c, 0, 87, 64
2, 270960, Note_on_c, 0, 86, 60
2, 271080, Note_off_c, 0, 86, 64
2, 271080, Note_on_c, 0, 89, 60
2, 271200, Note_off_c, 0, 89, 64
2, 271200, Note_on_c, 0, 87, 60
2, 271320, Note_off_c, 0, 87, 64
2, 271320, Note_on_c, 0, 89, 60
2, 271440, Note_off_c, 0, 89, 64
2, 271440, Note_on_c, 0, 87, 60
2, 271560, Note_off_c, 0, 87, 64
2, 271560, Note_on_c, 0, 89, 60
2, 271675, Note_off_c, 0, 89, 64
2, 271680, Note_on_c, 0, 87, 60
2, 271800, Note_off_c, 0, 87, 64
2, 271800, Note_on_c, 0, 89, 60
2, 271920, Note_off_c, 0, 89, 64
2, 271920, Note_on_c, 0, 87, 60
2, 272040, Note_off_c, 0, 87, 64
2, 272040, Note_on_c, 0, 89, 60
2, 272160, Note_off_c, 0, 89, 64
2, 272160, Note_on_c, 0, 86, 60
2, 272280, Note_off_c, 0, 86, 64
2, 272280, Note_on_c, 0, 87, 60
2, 272400, Note_off_c, 0, 87, 64
2, 272400, Note_on_c, 0, 86, 60
2, 272520, Note_off_c, 0, 86, 64
2, 272520, Note_on_c, 0, 87, 60
2, 272640, Note_off_c, 0, 87, 64
2, 272640, Note_on_c, 0, 86, 60
2, 272760, Note_off_c, 0, 86, 64
2, 272760, Note_on_c, 0, 87, 60
2, 272880, Note_off_c, 0, 87, 64
2, 272880, Note_on_c, 0, 84, 60
2, 273000, Note_off_c, 0, 84, 64
2, 273000, Note_on_c, 0, 86, 60
2, 273115, Note_off_c, 0, 86, 64
2, 273120, Note_on_c, 0, 82, 60
2, 273240, Note_off_c, 0, 82, 64
2, 273240, Note_on_c, 0, 86, 60
2, 273360, Note_off_c, 0, 86, 64
2, 273360, Note_on_c, 0, 84, 60
2, 273480, Note_off_c, 0, 84, 64
2, 273480, Note_on_c, 0, 87, 60
2, 273600, Note_off_c, 0, 87, 64
2, 273600, Note_on_c, 0, 86, 60
2, 273835, Note_off_c, 0, 86, 64
2, 273840, Note_on_c, 0, 79, 60
2, 273960, Note_off_c, 0, 79, 64
2, 273960, Note_on_c, 0, 82, 60
2, 274080, Note_off_c, 0, 82, 64
2, 274080, Note_on_c, 0, 81, 60
2, 274200, Note_off_c, 0, 81, 64
2, 274200, Note_on_c, 0, 84, 60
2, 274320, Note_off_c, 0, 84, 64
2, 274320, Note_on_c, 0, 82, 60
2, 274440, Note_off_c, 0, 82, 64
2, 274440, Note_on_c, 0, 84, 60
2, 274555, Note_off_c, 0, 84, 64
2, 274560, Note_on_c, 0, 81, 60
2, 274590, Note_off_c, 0, 81, 64
2, 274590, Note_on_c, 0, 82, 60
2, 274620, Note_off_c, 0, 82, 64
2, 274620, Note_on_c, 0, 81, 60
2, 274650, Note_off_c, 0, 81, 64
2, 274650, Note_on_c, 0, 82, 60
2, 274680, Note_off_c, 0, 82, 64
2, 274680, Note_on_c, 0, 81, 60
2, 274710, Note_off_c, 0, 81, 64
2, 274710, Note_on_c, 0, 82, 60
2, 274740, Note_off_c, 0, 82, 64
2, 274740, Note_on_c, 0, 81, 60
2, 274770, Note_off_c, 0, 81, 64
2, 274770, Note_on_c, 0, 82, 60
2, 274800, Note_off_c, 0, 82, 64
2, 274800, Note_on_c, 0, 81, 60
2, 274830, Note_off_c, 0, 81, 64
2, 274830, Note_on_c, 0, 82, 60
2, 274860, Note_off_c, 0, 82, 64
2, 274860, Note_on_c, 0, 81, 60
2, 274890, Note_off_c, 0, 81, 64
2, 274890, Note_on_c, 0, 82, 60
2, 274920, Note_off_c, 0, 82, 64
2, 274920, Note_on_c, 0, 81, 60
2, 274950, Note_off_c, 0, 81, 64
2, 274950, Note_on_c, 0, 82, 60
2, 274980, Note_off_c, 0, 82, 64
2, 274980, Note_on_c, 0, 81, 60
2, 275010, Note_off_c, 0, 81, 64
2, 275010, Note_on_c, 0, 82, 60
2, 275040, Note_off_c, 0, 82, 64
2, 275040, Note_on_c, 0, 79, 60
2, 275155, Note_off_c, 0, 79, 64
2, 275160, Note_on_c, 0, 83, 61
2, 275280, Note_off_c, 0, 83, 64
2, 275280, Note_on_c, 0, 81, 63
2, 275400, Note_off_c, 0, 81, 64
2, 275400, Note_on_c, 0, 84, 65
2, 275520, Note_off_c, 0, 84, 64
2, 275520, Note_on_c, 0, 83, 67
2, 275640, Note_off_c, 0, 83, 64
2, 275640, Note_on_c, 0, 91, 69
2, 275760, Note_off_c, 0, 91, 64
2, 275760, Note_on_c, 0, 89, 71
2, 275880, Note_off_c, 0, 89, 64
2, 275880, Note_on_c, 0, 91, 73
2, 275995, Note_off_c, 0, 91, 64
2, 276000, Note_on_c, 0, 87, 75
2, 276120, Note_off_c, 0, 87, 64
2, 276120, Note_on_c, 0, 91, 75
2, 276240, Note_off_c, 0, 91, 64
2, 276240, Note_on_c, 0, 89, 75
2, 276360, Note_off_c, 0, 89, 64
2, 276360, Note_on_c, 0, 92, 75
2, 276480, Note_off_c, 0, 92, 64
2, 276480, Note_on_c, 0, 83, 75
2, 276600, Note_off_c, 0, 83, 64
2, 276600, Note_on_c, 0, 86, 75
2, 276720, Note_off_c, 0, 86, 64
2, 276720, Note_on_c, 0, 84, 75
2, 276840, Note_off_c, 0, 84, 64
2, 276840, Note_on_c, 0, 87, 75
2, 276960, Note_off_c, 0, 87, 64
2, 276960, Note_on_c, 0, 86, 75
2, 277080, Note_off_c, 0, 86, 64
2, 277080, Note_on_c, 0, 87, 75
2, 277200, Note_off_c, 0, 87, 64
2, 277200, Note_on_c, 0, 86, 75
2, 277320, Note_off_c, 0, 86, 64
2, 277320, Note_on_c, 0, 87, 75
2, 277435, Note_off_c, 0, 87, 64
2, 277440, Note_on_c, 0, 84, 75
2, 277560, Note_off_c, 0, 84, 64
2, 277560, Note_on_c, 0, 87, 75
2, 277680, Note_off_c, 0, 87, 64
2, 277680, Note_on_c, 0, 86, 75
2, 277800, Note_off_c, 0, 86, 64
2, 277800, Note_on_c, 0, 87, 75
2, 277920, Note_off_c, 0, 87, 64
2, 277920, Note_on_c, 0, 84, 75
2, 278320, Note_off_c, 0, 84, 64
2, 278400, Note_on_c, 0, 82, 75
2, 279115, Note_off_c, 0, 82, 64
2, 279120, Note_on_c, 0, 82, 75
2, 279360, Note_off_c, 0, 82, 64
2, 279360, Note_on_c, 0, 80, 75
2, 279600, Note_off_c, 0, 80, 64
2, 279600, Note_on_c, 0, 84, 75
2, 279835, Note_off_c, 0, 84, 64
2, 279840, Note_on_c, 0, 89, 75
2, 280200, Note_off_c, 0, 89, 64
2, 280200, Note_on_c, 0, 87, 75
2, 280315, Note_off_c, 0, 87, 64
2, 280320, Note_on_c, 0, 86, 75
2, 280560, Note_off_c, 0, 86, 64
2, 280560, Note_on_c, 0, 84, 75
2, 280800, Note_off_c, 0, 84, 64
2, 280800, Note_on_c, 0, 82, 75
2, 281200, Note_off_c, 0, 82, 64
2, 281280, Note_on_c, 0, 87, 75
2, 281760, Note_off_c, 0, 87, 64
2, 281760, Note_on_c, 0, 89, 75
2, 282160, Note_off_c, 0, 89, 64
2, 282240, Note_on_c, 0, 91, 75
2, 282360, Note_off_c, 0, 91, 64
2, 282360, Note_on_c, 0, 92, 75
2, 282480, Note_off_c, 0, 92, 64
2, 282480, Note_on_c, 0, 94, 75
2, 282600, Note_off_c, 0, 94, 64
2, 282600, Note_on_c, 0, 87, 75
2, 282715, Note_off_c, 0, 87, 64
2, 282720, Note_on_c, 0, 87, 75
2, 283120, Note_off_c, 0, 87, 64
2, 283200, Note_on_c, 0, 86, 75
2, 283230, Note_off_c, 0, 86, 64
2, 283230, Note_on_c, 0, 87, 75
2, 283260, Note_off_c, 0, 87, 64
2, 283260, Note_on_c, 0, 86, 75
2, 283290, Note_off_c, 0, 86, 64
2, 283290, Note_on_c, 0, 87, 75
2, 283320, Note_off_c, 0, 87, 64
2, 283320, Note_on_c, 0, 86, 75
2, 283350, Note_off_c, 0, 86, 64
2, 283350, Note_on_c, 0, 87, 75
2, 283380, Note_off_c, 0, 87, 64
2, 283380, Note_on_c, 0, 86, 75
2, 283410, Note_off_c, 0, 86, 64
2, 283410, Note_on_c, 0, 87, 75
2, 283440, Note_off_c, 0, 87, 64
2, 283440, Note_on_c, 0, 86, 75
2, 283470, Note_off_c, 0, 86, 64
2, 283470, Note_on_c, 0, 87, 75
2, 283500, Note_off_c, 0, 87, 64
2, 283500, Note_on_c, 0, 86, 75
2, 283530, Note_off_c, 0, 86, 64
2, 283530, Note_on_c, 0, 87, 75
2, 283560, Note_off_c, 0, 87, 64
2, 283560, Note_on_c, 0, 86, 75
2, 283590, Note_off_c, 0, 86, 64
2, 283590, Note_on_c, 0, 87, 75
2, 283620, Note_off_c, 0, 87, 64
2, 283620, Note_on_c, 0, 86, 75
2, 283650, Note_off_c, 0, 86, 64
2, 283650, Note_on_c, 0, 87, 75
2, 283675, Note_off_c, 0, 87, 64
2, 283800, Note_on_c, 0, 94, 75
2, 283920, Note_off_c, 0, 94, 64
2, 283920, Note_on_c, 0, 92, 75
2, 284040, Note_off_c, 0, 92, 64
2, 284040, Note_on_c, 0, 94, 75
2, 284160, Note_off_c, 0, 94, 64
2, 284160, Note_on_c, 0, 91, 75
2, 284280, Note_off_c, 0, 91, 64
2, 284280, Note_on_c, 0, 92, 75
2, 284400, Note_off_c, 0, 92, 64
2, 284400, Note_on_c, 0, 89, 75
2, 284520, Note_off_c, 0, 89, 64
2, 284520, Note_on_c, 0, 91, 75
2, 284635, Note_off_c, 0, 91, 64
2, 284640, Note_on_c, 0, 87, 75
2, 284760, Note_off_c, 0, 87, 64
2, 284760, Note_on_c, 0, 91, 75
2, 284880, Note_off_c, 0, 91, 64
2, 284880, Note_on_c, 0, 89, 75
2, 285000, Note_off_c, 0, 89, 64
2, 285000, Note_on_c, 0, 87, 75
2, 285120, Note_off_c, 0, 87, 64
2, 285120, Note_on_c, 0, 86, 75
2, 285240, Note_off_c, 0, 86, 64
2, 285240, Note_on_c, 0, 89, 75
2, 285360, Note_off_c, 0, 89, 64
2, 285360, Note_on_c, 0, 87, 75
2, 285480, Note_off_c, 0, 87, 64
2, 285480, Note_on_c, 0, 91, 75
2, 285600, Note_off_c, 0, 91, 64
2, 285600, Note_on_c, 0, 89, 75
2, 285720, Note_off_c, 0, 89, 64
2, 285720, Note_on_c, 0, 92, 75
2, 285840, Note_off_c, 0, 92, 64
2, 285840, Note_on_c, 0, 91, 75
2, 285960, Note_off_c, 0, 91, 64
2, 285960, Note_on_c, 0, 89, 75
2, 286075, Note_off_c, 0, 89, 64
2, 286080, Note_on_c, 0, 94, 75
2, 286200, Note_off_c, 0, 94, 64
2, 286200, Note_on_c, 0, 87, 75
2, 286320, Note_off_c, 0, 87, 64
2, 286320, Note_on_c, 0, 86, 75
2, 286440, Note_off_c, 0, 86, 64
2, 286440, Note_on_c, 0, 87, 75
2, 286560, Note_off_c, 0, 87, 64
2, 286560, Note_on_c, 0, 84, 75
2, 286680, Note_off_c, 0, 84, 64
2, 286680, Note_on_c, 0, 87, 75
2, 286800, Note_off_c, 0, 87, 64
2, 286800, Note_on_c, 0, 84, 75
2, 286920, Note_off_c, 0, 84, 64
2, 286920, Note_on_c, 0, 87, 75
2, 287040, Note_off_c, 0, 87, 64
2, 287040, Note_on_c, 0, 84, 75
2, 287160, Note_off_c, 0, 84, 64
2, 287160, Note_on_c, 0, 85, 75
2, 287280, Note_off_c, 0, 85, 64
2, 287280, Note_on_c, 0, 84, 75
2, 287400, Note_off_c, 0, 84, 64
2, 287400, Note_on_c, 0, 85, 75
2, 287515, Note_off_c, 0, 85, 64
2, 287520, Note_on_c, 0, 82, 75
2, 287640, Note_off_c, 0, 82, 64
2, 287640, Note_on_c, 0, 85, 75
2, 287760, Note_off_c, 0, 85, 64
2, 287760, Note_on_c, 0, 82, 75
2, 287880, Note_off_c, 0, 82, 64
2, 287880, Note_on_c, 0, 85, 75
2, 288000, Note_off_c, 0, 85, 64
2, 288000, Note_on_c, 0, 80, 75
2, 288120, Note_off_c, 0, 80, 64
2, 288120, Note_on_c, 0, 84, 75
2, 288240, Note_off_c, 0, 84, 64
2, 288240, Note_on_c, 0, 82, 75
2, 288360, Note_off_c, 0, 82, 64
2, 288360, Note_on_c, 0, 85, 75
2, 288480, Note_off_c, 0, 85, 64
2, 288480, Note_on_c, 0, 84, 75
2, 288600, Note_off_c, 0, 84, 64
2, 288600, Note_on_c, 0, 87, 75
2, 288720, Note_off_c, 0, 87, 64
2, 288720, Note_on_c, 0, 86, 75
2, 288840, Note_off_c, 0, 86, 64
2, 288840, Note_on_c, 0, 87, 75
2, 288955, Note_off_c, 0, 87, 64
2, 288960, Note_on_c, 0, 84, 75
2, 289080, Note_off_c, 0, 84, 64
2, 289080, Note_on_c, 0, 89, 75
2, 289200, Note_off_c, 0, 89, 64
2, 289200, Note_on_c, 0, 87, 75
2, 289320, Note_off_c, 0, 87, 64
2, 289320, Note_on_c, 0, 89, 75
2, 289440, Note_off_c, 0, 89, 64
2, 289440, Note_on_c, 0, 86, 75
2, 289560, Note_off_c, 0, 86, 64
2, 289560, Note_on_c, 0, 89, 75
2, 289680, Note_off_c, 0, 89, 64
2, 289680, Note_on_c, 0, 87, 75
2, 289800, Note_off_c, 0, 87, 64
2, 289800, Note_on_c, 0, 91, 75
2, 289920, Note_off_c, 0, 91, 64
2, 289920, Note_on_c, 0, 89, 75
2, 290040, Note_off_c, 0, 89, 64
2, 290040, Note_on_c, 0, 94, 75
2, 290160, Note_off_c, 0, 94, 64
2, 290160, Note_on_c, 0, 92, 75
2, 290280, Note_off_c, 0, 92, 64
2, 290280, Note_on_c, 0, 94, 75
2, 290395, Note_off_c, 0, 94, 64
2, 290400, Note_on_c, 0, 91, 75
2, 290520, Note_off_c, 0, 91, 64
2, 290520, Note_on_c, 0, 96, 75
2, 290640, Note_off_c, 0, 96, 64
2, 290640, Note_on_c, 0, 94, 75
2, 290760, Note_off_c, 0, 94, 64
2, 290760, Note_on_c, 0, 96, 75
2, 290880, Note_off_c, 0, 96, 64
2, 290880, Note_on_c, 0, 92, 75
2, 291000, Note_off_c, 0, 92, 64
2, 291000, Note_on_c, 0, 96, 75
2, 291120, Note_off_c, 0, 96, 64
2, 291120, Note_on_c, 0, 94, 75
2, 291240, Note_off_c, 0, 94, 64
2, 291240, Note_on_c, 0, 96, 75
2, 291360, Note_off_c, 0, 96, 64
2, 291360, Note_on_c, 0, 92, 75
2, 291480, Note_off_c, 0, 92, 64
2, 291480, Note_on_c, 0, 94, 75
2, 291600, Note_off_c, 0, 94, 64
2, 291600, Note_on_c, 0, 91, 75
2, 291720, Note_off_c, 0, 91, 64
2, 291720, Note_on_c, 0, 92, 75
2, 291835, Note_off_c, 0, 92, 64
2, 291840, Note_on_c, 0, 89, 75
2, 291960, Note_off_c, 0, 89, 64
2, 291960, Note_on_c, 0, 94, 75
2, 292080, Note_off_c, 0, 94, 64
2, 292080, Note_on_c, 0, 92, 75
2, 292200, Note_off_c, 0, 92, 64
2, 292200, Note_on_c, 0, 94, 75
2, 292320, Note_off_c, 0, 94, 64
2, 292320, Note_on_c, 0, 91, 75
2, 292440, Note_off_c, 0, 91, 64
2, 292440, Note_on_c, 0, 94, 75
2, 292560, Note_off_c, 0, 94, 64
2, 292560, Note_on_c, 0, 92, 75
2, 292680, Note_off_c, 0, 92, 64
2, 292680, Note_on_c, 0, 94, 75
2, 292800, Note_off_c, 0, 94, 64
2, 292800, Note_on_c, 0, 91, 75
2, 292920, Note_off_c, 0, 91, 64
2, 292920, Note_on_c, 0, 92, 75
2, 293040, Note_off_c, 0, 92, 64
2, 293040, Note_on_c, 0, 89, 75
2, 293160, Note_off_c, 0, 89, 64
2, 293160, Note_on_c, 0, 91, 75
2, 293275, Note_off_c, 0, 91, 64
2, 293280, Note_on_c, 0, 87, 75
2, 293400, Note_off_c, 0, 87, 64
2, 293400, Note_on_c, 0, 89, 75
2, 293520, Note_off_c, 0, 89, 64
2, 293520, Note_on_c, 0, 86, 75
2, 293640, Note_off_c, 0, 86, 64
2, 293640, Note_on_c, 0, 87, 75
2, 293755, Note_off_c, 0, 87, 64
2, 293760, Note_on_c, 0, 84, 75
2, 294000, Note_off_c, 0, 84, 64
2, 294000, Note_on_c, 0, 87, 75
2, 294240, Note_off_c, 0, 87, 64
2, 294240, Note_on_c, 0, 92, 75
2, 294480, Note_off_c, 0, 92, 64
2, 294480, Note_on_c, 0, 84, 75
2, 294720, Note_off_c, 0, 84, 64
2, 294720, Note_on_c, 0, 82, 75
2, 294960, Note_off_c, 0, 82, 64
2, 294960, Note_on_c, 0, 92, 75
2, 295195, Note_off_c, 0, 92, 64
2, 295200, Note_on_c, 0, 82, 75
2, 295440, Note_off_c, 0, 82, 64
2, 295440, Note_on_c, 0, 86, 75
2, 295680, Note_off_c, 0, 86, 64
2, 295680, Note_on_c, 0, 91, 75
2, 295920, Note_off_c, 0, 91, 64
2, 295920, Note_on_c, 0, 82, 75
2, 296160, Note_off_c, 0, 82, 64
2, 296160, Note_on_c, 0, 80, 75
2, 296400, Note_off_c, 0, 80, 64
2, 296400, Note_on_c, 0, 91, 75
2, 296635, Note_off_c, 0, 91, 64
2, 296640, Note_on_c, 0, 80, 75
2, 296880, Note_off_c, 0, 80, 64
2, 296880, Note_on_c, 0, 84, 75
2, 297120, Note_off_c, 0, 84, 64
2, 297120, Note_on_c, 0, 89, 75
2, 297360, Note_off_c, 0, 89, 64
2, 297360, Note_on_c, 0, 80, 75
2, 297600, Note_off_c, 0, 80, 64
2, 297600, Note_on_c, 0, 79, 75
2, 297840, Note_off_c, 0, 79, 64
2, 297840, Note_on_c, 0, 89, 75
2, 298075, Note_off_c, 0, 89, 64
2, 298080, Note_on_c, 0, 79, 75
2, 298320, Note_off_c, 0, 79, 64
2, 298320, Note_on_c, 0, 82, 75
2, 298560, Note_off_c, 0, 82, 64
2, 298560, Note_on_c, 0, 87, 75
2, 298800, Note_off_c, 0, 87, 64
2, 298800, Note_on_c, 0, 79, 75
2, 299040, Note_off_c, 0, 79, 64
2, 299040, Note_on_c, 0, 77, 75
2, 299280, Note_off_c, 0, 77, 64
2, 299280, Note_on_c, 0, 87, 75
2, 299515, Note_off_c, 0, 87, 64
2, 299520, Note_on_c, 0, 86, 75
2, 299640, Note_off_c, 0, 86, 64
2, 299640, Note_on_c, 0, 89, 75
2, 299760, Note_off_c, 0, 89, 64
2, 299760, Note_on_c, 0, 86, 75
2, 299880, Note_off_c, 0, 86, 64
2, 299880, Note_on_c, 0, 89, 75
2, 300000, Note_off_c, 0, 89, 64
2, 300000, Note_on_c, 0, 82, 75
2, 300235, Note_off_c, 0, 82, 64
2, 300240, Note_on_c, 0, 81, 75
2, 300360, Note_off_c, 0, 81, 64
2, 300360, Note_on_c, 0, 79, 75
2, 300480, Note_off_c, 0, 79, 64
2, 300480, Note_on_c, 0, 77, 75
2, 300715, Note_off_c, 0, 77, 64
2, 300720, Note_on_c, 0, 79, 75
2, 300960, Note_off_c, 0, 79, 64
2, 300960, Note_on_c, 0, 81, 75
2, 301200, Note_off_c, 0, 81, 64
2, 301200, Note_on_c, 0, 86, 75
2, 301440, Note_off_c, 0, 86, 64
2, 301440, Note_on_c, 0, 81, 75
2, 301675, Note_off_c, 0, 81, 64
2, 301680, Note_on_c, 0, 81, 75
2, 301920, Note_off_c, 0, 81, 64
2, 301920, Note_on_c, 0, 82, 75
2, 302320, Note_off_c, 0, 82, 64
2, 302640, Note_on_c, 0, 91, 75
2, 302880, Note_off_c, 0, 91, 64
2, 302880, Note_on_c, 0, 84, 75
2, 303115, Note_off_c, 0, 84, 64
2, 303120, Note_on_c, 0, 84, 75
2, 303360, Note_off_c, 0, 84, 64
2, 303360, Note_on_c, 0, 86, 75
2, 303760, Note_off_c, 0, 86, 64
2, 304080, Note_on_c, 0, 87, 75
2, 304320, Note_off_c, 0, 87, 64
2, 304320, Note_on_c, 0, 82, 75
2, 304555, Note_off_c, 0, 82, 64
2, 304560, Note_on_c, 0, 82, 75
2, 304800, Note_off_c, 0, 82, 64
2, 304800, Note_on_c, 0, 84, 75
2, 305200, Note_off_c, 0, 84, 64
2, 305400, Note_on_c, 0, 86, 75
2, 305520, Note_off_c, 0, 86, 64
2, 305520, Note_on_c, 0, 84, 75
2, 305640, Note_off_c, 0, 84, 64
2, 305640, Note_on_c, 0, 86, 75
2, 305760, Note_off_c, 0, 86, 64
2, 305760, Note_on_c, 0, 87, 75
2, 306160, Note_off_c, 0, 87, 64
2, 306240, Note_on_c, 0, 77, 75
2, 306640, Note_off_c, 0, 77, 64
2, 306840, Note_on_c, 0, 79, 75
2, 306960, Note_off_c, 0, 79, 64
2, 306960, Note_on_c, 0, 77, 75
2, 307080, Note_off_c, 0, 77, 64
2, 307080, Note_on_c, 0, 79, 75
2, 307200, Note_off_c, 0, 79, 64
2, 307200, Note_on_c, 0, 80, 75
2, 307600, Note_off_c, 0, 80, 64
2, 307680, Note_on_c, 0, 82, 75
2, 308080, Note_off_c, 0, 82, 64
2, 308280, Note_on_c, 0, 84, 75
2, 308400, Note_off_c, 0, 84, 64
2, 308400, Note_on_c, 0, 82, 75
2, 308520, Note_off_c, 0, 82, 64
2, 308520, Note_on_c, 0, 84, 75
2, 308640, Note_off_c, 0, 84, 64
2, 308640, Note_on_c, 0, 77, 75
2, 309040, Note_off_c, 0, 77, 64
2, 309120, Note_on_c, 0, 79, 75
2, 309520, Note_off_c, 0, 79, 64
2, 309720, Note_on_c, 0, 80, 75
2, 309840, Note_off_c, 0, 80, 64
2, 309840, Note_on_c, 0, 79, 75
2, 309960, Note_off_c, 0, 79, 64
2, 309960, Note_on_c, 0, 80, 75
2, 310080, Note_off_c, 0, 80, 64
2, 310080, Note_on_c, 0, 86, 75
2, 310315, Note_off_c, 0, 86, 64
2, 310320, Note_on_c, 0, 86, 75
2, 310560, Note_off_c, 0, 86, 64
2, 310560, Note_on_c, 0, 87, 75
2, 310960, Note_off_c, 0, 87, 64
2, 311160, Note_on_c, 0, 89, 75
2, 311280, Note_off_c, 0, 89, 64
2, 311280, Note_on_c, 0, 87, 75
2, 311400, Note_off_c, 0, 87, 64
2, 311400, Note_on_c, 0, 89, 75
2, 311520, Note_off_c, 0, 89, 64
2, 311520, Note_on_c, 0, 84, 75
2, 311755, Note_off_c, 0, 84, 64
2, 311760, Note_on_c, 0, 84, 75
2, 312000, Note_off_c, 0, 84, 64
2, 312000, Note_on_c, 0, 86, 75
2, 312400, Note_off_c, 0, 86, 64
2, 312600, Note_on_c, 0, 87, 75
2, 312720, Note_off_c, 0, 87, 64
2, 312720, Note_on_c, 0, 86, 75
2, 312840, Note_off_c, 0, 86, 64
2, 312840, Note_on_c, 0, 87, 75
2, 312955, Note_off_c, 0, 87, 64
2, 313080, Note_on_c, 0, 87, 75
2, 313200, Note_off_c, 0, 87, 64
2, 313200, Note_on_c, 0, 86, 75
2, 313320, Note_off_c, 0, 86, 64
2, 313320, Note_on_c, 0, 87, 75
2, 313435, Note_off_c, 0, 87, 64
2, 313560, Note_on_c, 0, 87, 75
2, 313680, Note_off_c, 0, 87, 64
2, 313680, Note_on_c, 0, 86, 75
2, 313800, Note_off_c, 0, 86, 64
2, 313800, Note_on_c, 0, 87, 75
2, 313915, Note_off_c, 0, 87, 64
2, 314040, Note_on_c, 0, 86, 75
2, 314160, Note_off_c, 0, 86, 64
2, 314160, Note_on_c, 0, 84, 75
2, 314280, Note_off_c, 0, 84, 64
2, 314280, Note_on_c, 0, 86, 75
2, 314395, Note_off_c, 0, 86, 64
2, 314520, Note_on_c, 0, 84, 75
2, 314640, Note_off_c, 0, 84, 64
2, 314640, Note_on_c, 0, 82, 75
2, 314760, Note_off_c, 0, 82, 64
2, 314760, Note_on_c, 0, 84, 75
2, 314875, Note_off_c, 0, 84, 64
2, 315000, Note_on_c, 0, 84, 75
2, 315120, Note_off_c, 0, 84, 64
2, 315120, Note_on_c, 0, 82, 75
2, 315240, Note_off_c, 0, 82, 64
2, 315240, Note_on_c, 0, 84, 75
2, 315355, Note_off_c, 0, 84, 64
2, 315480, Note_on_c, 0, 82, 75
2, 315600, Note_off_c, 0, 82, 64
2, 315600, Note_on_c, 0, 81, 75
2, 315720, Note_off_c, 0, 81, 64
2, 315720, Note_on_c, 0, 82, 75
2, 315835, Note_off_c, 0, 82, 64
2, 315960, Note_on_c, 0, 82, 75
2, 316080, Note_off_c, 0, 82, 64
2, 316080, Note_on_c, 0, 81, 75
2, 316200, Note_off_c, 0, 81, 64
2, 316200, Note_on_c, 0, 82, 75
2, 316315, Note_off_c, 0, 82, 64
2, 316440, Note_on_c, 0, 84, 76
2, 316560, Note_off_c, 0, 84, 64
2, 316560, Note_on_c, 0, 82, 77
2, 316680, Note_off_c, 0, 82, 64
2, 316680, Note_on_c, 0, 84, 78
2, 316795, Note_off_c, 0, 84, 64
2, 316920, Note_on_c, 0, 81, 80
2, 317040, Note_off_c, 0, 81, 64
2, 317040, Note_on_c, 0, 79, 81
2, 317160, Note_off_c, 0, 79, 64
2, 317160, Note_on_c, 0, 81, 82
2, 317275, Note_off_c, 0, 81, 64
2, 317400, Note_on_c, 0, 81, 86
2, 317520, Note_off_c, 0, 81, 64
2, 317520, Note_on_c, 0, 79, 88
2, 317640, Note_off_c, 0, 79, 64
2, 317640, Note_on_c, 0, 81, 90
2, 317755, Note_off_c, 0, 81, 64
2, 317760, Note_on_c, 0, 82, 92
2, 317880, Note_off_c, 0, 82, 64
2, 317880, Note_on_c, 0, 84, 92
2, 318000, Note_off_c, 0, 84, 64
2, 318000, Note_on_c, 0, 82, 92
2, 318120, Note_off_c, 0, 82, 64
2, 318120, Note_on_c, 0, 84, 92
2, 318240, Note_off_c, 0, 84, 64
2, 318240, Note_on_c, 0, 86, 92
2, 318640, Note_off_c, 0, 86, 64
2, 318840, Note_on_c, 0, 86, 92
2, 318960, Note_off_c, 0, 86, 64
2, 318960, Note_on_c, 0, 84, 92
2, 319080, Note_off_c, 0, 84, 64
2, 319080, Note_on_c, 0, 86, 92
2, 319200, Note_off_c, 0, 86, 64
2, 319200, Note_on_c, 0, 79, 92
2, 319315, Note_off_c, 0, 79, 64
2, 319320, Note_on_c, 0, 91, 92
2, 319440, Note_off_c, 0, 91, 64
2, 319440, Note_on_c, 0, 89, 92
2, 319560, Note_off_c, 0, 89, 64
2, 319560, Note_on_c, 0, 91, 92
2, 319680, Note_off_c, 0, 91, 64
2, 319680, Note_on_c, 0, 87, 92
2, 319800, Note_off_c, 0, 87, 64
2, 319800, Note_on_c, 0, 91, 92
2, 319920, Note_off_c, 0, 91, 64
2, 319920, Note_on_c, 0, 87, 92
2, 320040, Note_off_c, 0, 87, 64
2, 320040, Note_on_c, 0, 91, 92
2, 320160, Note_off_c, 0, 91, 64
2, 320160, Note_on_c, 0, 87, 92
2, 320280, Note_off_c, 0, 87, 64
2, 320280, Note_on_c, 0, 89, 92
2, 320400, Note_off_c, 0, 89, 64
2, 320400, Note_on_c, 0, 87, 92
2, 320520, Note_off_c, 0, 87, 64
2, 320520, Note_on_c, 0, 89, 92
2, 320635, Note_off_c, 0, 89, 64
2, 320640, Note_on_c, 0, 86, 92
2, 320760, Note_off_c, 0, 86, 64
2, 320760, Note_on_c, 0, 87, 92
2, 320880, Note_off_c, 0, 87, 64
2, 320880, Note_on_c, 0, 86, 92
2, 321000, Note_off_c, 0, 86, 64
2, 321000, Note_on_c, 0, 87, 92
2, 321120, Note_off_c, 0, 87, 64
2, 321120, Note_on_c, 0, 84, 92
2, 321240, Note_off_c, 0, 84, 64
2, 321240, Note_on_c, 0, 87, 92
2, 321360, Note_off_c, 0, 87, 64
2, 321360, Note_on_c, 0, 86, 92
2, 321480, Note_off_c, 0, 86, 64
2, 321480, Note_on_c, 0, 89, 92
2, 321600, Note_off_c, 0, 89, 64
2, 321600, Note_on_c, 0, 87, 92
2, 321720, Note_off_c, 0, 87, 64
2, 321720, Note_on_c, 0, 91, 92
2, 321840, Note_off_c, 0, 91, 64
2, 321840, Note_on_c, 0, 90, 92
2, 321960, Note_off_c, 0, 90, 64
2, 321960, Note_on_c, 0, 93, 92
2, 322075, Note_off_c, 0, 93, 64
2, 322080, Note_on_c, 0, 91, 92
2, 322200, Note_off_c, 0, 91, 64
2, 322200, Note_on_c, 0, 94, 92
2, 322320, Note_off_c, 0, 94, 64
2, 322320, Note_on_c, 0, 93, 92
2, 322440, Note_off_c, 0, 93, 64
2, 322440, Note_on_c, 0, 91, 92
2, 322560, Note_off_c, 0, 91, 64
2, 322560, Note_on_c, 0, 90, 75
2, 322680, Note_off_c, 0, 90, 64
2, 322680, Note_on_c, 0, 93, 75
2, 322800, Note_off_c, 0, 93, 64
2, 322800, Note_on_c, 0, 91, 75
2, 322920, Note_off_c, 0, 91, 64
2, 322920, Note_on_c, 0, 94, 75
2, 323035, Note_off_c, 0, 94, 64
2, 323040, Note_on_c, 0, 93, 60
2, 323280, Note_off_c, 0, 93, 64
2, 323280, Note_on_c, 0, 86, 60
2, 323515, Note_off_c, 0, 86, 64
2, 353760, Note_on_c, 0, 79, 75
2, 354160, Note_off_c, 0, 79, 64
2, 354240, Note_on_c, 0, 86, 75
2, 355080, Note_off_c, 0, 86, 64
2, 355200, Note_on_c, 0, 82, 75
2, 355600, Note_off_c, 0, 82, 64
2, 355680, Note_on_c, 0, 84, 75
2, 356520, Note_off_c, 0, 84, 64
2, 356640, Note_on_c, 0, 86, 75
2, 357040, Note_off_c, 0, 86, 64
2, 357120, Note_on_c, 0, 87, 75
2, 357960, Note_off_c, 0, 87, 64
2, 358080, Note_on_c, 0, 84, 75
2, 358480, Note_off_c, 0, 84, 64
2, 358560, Note_on_c, 0, 86, 75
2, 359635, Note_off_c, 0, 86, 64
2, 359640, Note_on_c, 0, 86, 75
2, 359760, Note_off_c, 0, 86, 64
2, 359760, Note_on_c, 0, 84, 75
2, 359880, Note_off_c, 0, 84, 64
2, 359880, Note_on_c, 0, 86, 75
2, 360000, Note_off_c, 0, 86, 64
2, 360000, Note_on_c, 0, 87, 75
2, 360120, Note_off_c, 0, 87, 64
2, 360120, Note_on_c, 0, 89, 75
2, 360240, Note_off_c, 0, 89, 64
2, 360240, Note_on_c, 0, 86, 75
2, 360360, Note_off_c, 0, 86, 64
2, 360360, Note_on_c, 0, 88, 75
2, 360480, Note_off_c, 0, 88, 64
2, 360480, Note_on_c, 0, 89, 75
2, 360600, Note_off_c, 0, 89, 64
2, 360600, Note_on_c, 0, 91, 75
2, 360720, Note_off_c, 0, 91, 64
2, 360720, Note_on_c, 0, 88, 75
2, 360840, Note_off_c, 0, 88, 64
2, 360840, Note_on_c, 0, 90, 75
2, 360955, Note_off_c, 0, 90, 64
2, 360960, Note_on_c, 0, 91, 75
2, 361080, Note_off_c, 0, 91, 64
2, 361080, Note_on_c, 0, 93, 75
2, 361200, Note_off_c, 0, 93, 64
2, 361200, Note_on_c, 0, 86, 75
2, 361320, Note_off_c, 0, 86, 64
2, 361320, Note_on_c, 0, 89, 75
2, 361440, Note_off_c, 0, 89, 64
2, 361440, Note_on_c, 0, 87, 75
2, 361560, Note_off_c, 0, 87, 64
2, 361560, Note_on_c, 0, 89, 75
2, 361680, Note_off_c, 0, 89, 64
2, 361680, Note_on_c, 0, 84, 75
2, 361800, Note_off_c, 0, 84, 64
2, 361800, Note_on_c, 0, 87, 75
2, 361920, Note_off_c, 0, 87, 64
2, 361920, Note_on_c, 0, 86, 75
2, 362040, Note_off_c, 0, 86, 64
2, 362040, Note_on_c, 0, 87, 75
2, 362160, Note_off_c, 0, 87, 64
2, 362160, Note_on_c, 0, 82, 75
2, 362280, Note_off_c, 0, 82, 64
2, 362280, Note_on_c, 0, 86, 75
2, 362395, Note_off_c, 0, 86, 64
2, 362400, Note_on_c, 0, 84, 75
2, 362520, Note_off_c, 0, 84, 64
2, 362520, Note_on_c, 0, 86, 75
2, 362640, Note_off_c, 0, 86, 64
2, 362640, Note_on_c, 0, 81, 75
2, 362760, Note_off_c, 0, 81, 64
2, 362760, Note_on_c, 0, 84, 75
2, 362880, Note_off_c, 0, 84, 64
2, 362880, Note_on_c, 0, 83, 75
2, 363000, Note_off_c, 0, 83, 64
2, 363000, Note_on_c, 0, 84, 75
2, 363120, Note_off_c, 0, 84, 64
2, 363120, Note_on_c, 0, 81, 75
2, 363240, Note_off_c, 0, 81, 64
2, 363240, Note_on_c, 0, 83, 75
2, 363360, Note_off_c, 0, 83, 64
2, 363360, Note_on_c, 0, 84, 75
2, 363480, Note_off_c, 0, 84, 64
2, 363480, Note_on_c, 0, 86, 75
2, 363600, Note_off_c, 0, 86, 64
2, 363600, Note_on_c, 0, 87, 75
2, 363720, Note_off_c, 0, 87, 64
2, 363720, Note_on_c, 0, 81, 75
2, 363835, Note_off_c, 0, 81, 64
2, 363840, Note_on_c, 0, 81, 75
2, 363870, Note_off_c, 0, 81, 64
2, 363870, Note_on_c, 0, 83, 75
2, 363900, Note_off_c, 0, 83, 64
2, 363900, Note_on_c, 0, 81, 75
2, 363930, Note_off_c, 0, 81, 64
2, 363930, Note_on_c, 0, 83, 75
2, 363960, Note_off_c, 0, 83, 64
2, 363960, Note_on_c, 0, 81, 75
2, 363990, Note_off_c, 0, 81, 64
2, 363990, Note_on_c, 0, 83, 75
2, 364020, Note_off_c, 0, 83, 64
2, 364020, Note_on_c, 0, 81, 75
2, 364050, Note_off_c, 0, 81, 64
2, 364050, Note_on_c, 0, 83, 75
2, 364080, Note_off_c, 0, 83, 64
2, 364080, Note_on_c, 0, 81, 75
2, 364110, Note_off_c, 0, 81, 64
2, 364110, Note_on_c, 0, 83, 75
2, 364140, Note_off_c, 0, 83, 64
2, 364140, Note_on_c, 0, 81, 75
2, 364170, Note_off_c, 0, 81, 64
2, 364170, Note_on_c, 0, 83, 75
2, 364200, Note_off_c, 0, 83, 64
2, 364200, Note_on_c, 0, 81, 75
2, 364230, Note_off_c, 0, 81, 64
2, 364230, Note_on_c, 0, 83, 75
2, 364260, Note_off_c, 0, 83, 64
2, 364260, Note_on_c, 0, 81, 75
2, 364290, Note_off_c, 0, 81, 64
2, 364290, Note_on_c, 0, 83, 75
2, 364315, Note_off_c, 0, 83, 64
2, 364320, Note_on_c, 0, 79, 75
2, 364440, Note_off_c, 0, 79, 64
2, 364440, Note_on_c, 0, 83, 75
2, 364560, Note_off_c, 0, 83, 64
2, 364560, Note_on_c, 0, 81, 75
2, 364680, Note_off_c, 0, 81, 64
2, 364680, Note_on_c, 0, 84, 75
2, 364800, Note_off_c, 0, 84, 64
2, 364800, Note_on_c, 0, 83, 75
2, 364920, Note_off_c, 0, 83, 64
2, 364920, Note_on_c, 0, 86, 75
2, 365040, Note_off_c, 0, 86, 64
2, 365040, Note_on_c, 0, 84, 75
2, 365160, Note_off_c, 0, 84, 64
2, 365160, Note_on_c, 0, 87, 75
2, 365275, Note_off_c, 0, 87, 64
2, 365280, Note_on_c, 0, 86, 75
2, 365400, Note_off_c, 0, 86, 64
2, 365400, Note_on_c, 0, 89, 75
2, 365520, Note_off_c, 0, 89, 64
2, 365520, Note_on_c, 0, 87, 75
2, 365640, Note_off_c, 0, 87, 64
2, 365640, Note_on_c, 0, 86, 75
2, 365760, Note_off_c, 0, 86, 64
2, 365760, Note_on_c, 0, 87, 75
2, 366160, Note_off_c, 0, 87, 64
2, 366960, Note_on_c, 0, 76, 92
2, 367195, Note_off_c, 0, 76, 64
2, 367200, Note_on_c, 0, 77, 92
2, 367320, Note_off_c, 0, 77, 64
2, 367320, Note_on_c, 0, 80, 92
2, 367440, Note_off_c, 0, 80, 64
2, 367440, Note_on_c, 0, 79, 92
2, 367560, Note_off_c, 0, 79, 64
2, 367560, Note_on_c, 0, 82, 92
2, 367680, Note_off_c, 0, 82, 64
2, 367680, Note_on_c, 0, 80, 92
2, 367920, Note_off_c, 0, 80, 64
2, 367920, Note_on_c, 0, 82, 92
2, 367980, Note_off_c, 0, 82, 64
2, 367980, Note_on_c, 0, 84, 92
2, 368040, Note_off_c, 0, 84, 64
2, 368040, Note_on_c, 0, 82, 92
2, 368100, Note_off_c, 0, 82, 64
2, 368100, Note_on_c, 0, 84, 92
2, 368155, Note_off_c, 0, 84, 64
2, 368160, Note_on_c, 0, 80, 92
2, 368220, Note_off_c, 0, 80, 64
2, 368220, Note_on_c, 0, 82, 92
2, 368280, Note_off_c, 0, 82, 64
2, 368280, Note_on_c, 0, 84, 92
2, 368340, Note_off_c, 0, 84, 64
2, 368340, Note_on_c, 0, 80, 92
2, 368400, Note_off_c, 0, 80, 64
2, 368400, Note_on_c, 0, 79, 92
2, 368520, Note_off_c, 0, 79, 64
2, 368520, Note_on_c, 0, 77, 92
2, 368640, Note_off_c, 0, 77, 64
2, 368640, Note_on_c, 0, 76, 92
2, 368760, Note_off_c, 0, 76, 64
2, 368760, Note_on_c, 0, 79, 92
2, 368880, Note_off_c, 0, 79, 64
2, 368880, Note_on_c, 0, 77, 92
2, 369000, Note_off_c, 0, 77, 64
2, 369000, Note_on_c, 0, 80, 92
2, 369120, Note_off_c, 0, 80, 64
2, 369120, Note_on_c, 0, 79, 92
2, 369240, Note_off_c, 0, 79, 64
2, 369240, Note_on_c, 0, 82, 92
2, 369360, Note_off_c, 0, 82, 64
2, 369360, Note_on_c, 0, 80, 92
2, 369480, Note_off_c, 0, 80, 64
2, 369480, Note_on_c, 0, 79, 92
2, 369595, Note_off_c, 0, 79, 64
2, 369600, Note_on_c, 0, 80, 92
2, 370480, Note_off_c, 0, 80, 64
2, 370560, Note_on_c, 0, 79, 92
2, 370960, Note_off_c, 0, 79, 64
2, 371040, Note_on_c, 0, 78, 92
2, 371440, Note_off_c, 0, 78, 64
2, 371520, Note_on_c, 0, 77, 92
2, 373075, Note_off_c, 0, 77, 64
2, 373080, Note_on_c, 0, 77, 92
2, 373200, Note_off_c, 0, 77, 64
2, 373200, Note_on_c, 0, 79, 92
2, 373320, Note_off_c, 0, 79, 64
2, 373320, Note_on_c, 0, 77, 92
2, 373440, Note_off_c, 0, 77, 64
2, 373440, Note_on_c, 0, 76, 92
2, 373675, Note_off_c, 0, 76, 64
2, 373680, Note_on_c, 0, 77, 92
2, 373915, Note_off_c, 0, 77, 64
2, 373920, Note_on_c, 0, 79, 92
2, 374515, Note_off_c, 0, 79, 64
2, 374520, Note_on_c, 0, 79, 92
2, 374640, Note_off_c, 0, 79, 64
2, 374640, Note_on_c, 0, 80, 92
2, 374760, Note_off_c, 0, 80, 64
2, 374760, Note_on_c, 0, 79, 92
2, 374880, Note_off_c, 0, 79, 64
2, 374880, Note_on_c, 0, 77, 92
2, 375115, Note_off_c, 0, 77, 64
2, 375120, Note_on_c, 0, 79, 92
2, 375355, Note_off_c, 0, 79, 64
2, 375360, Note_on_c, 0, 80, 92
2, 375955, Note_off_c, 0, 80, 64
2, 375960, Note_on_c, 0, 80, 92
2, 376080, Note_off_c, 0, 80, 64
2, 376080, Note_on_c, 0, 82, 92
2, 376200, Note_off_c, 0, 82, 64
2, 376200, Note_on_c, 0, 80, 92
2, 376320, Note_off_c, 0, 80, 64
2, 376320, Note_on_c, 0, 79, 92
2, 376440, Note_off_c, 0, 79, 64
2, 376440, Note_on_c, 0, 82, 92
2, 376560, Note_off_c, 0, 82, 64
2, 376560, Note_on_c, 0, 80, 92
2, 376680, Note_off_c, 0, 80, 64
2, 376680, Note_on_c, 0, 84, 92
2, 376795, Note_off_c, 0, 84, 64
2, 376800, Note_on_c, 0, 82, 92
2, 377395, Note_off_c, 0, 82, 64
2, 377400, Note_on_c, 0, 84, 92
2, 377520, Note_off_c, 0, 84, 64
2, 377520, Note_on_c, 0, 79, 92
2, 377640, Note_off_c, 0, 79, 64
2, 377640, Note_on_c, 0, 82, 92
2, 377760, Note_off_c, 0, 82, 64
2, 377760, Note_on_c, 0, 80, 92
2, 378355, Note_off_c, 0, 80, 64
2, 378360, Note_on_c, 0, 84, 92
2, 378480, Note_off_c, 0, 84, 64
2, 378480, Note_on_c, 0, 80, 92
2, 378600, Note_off_c, 0, 80, 64
2, 378600, Note_on_c, 0, 84, 92
2, 378720, Note_off_c, 0, 84, 64
2, 378720, Note_on_c, 0, 78, 92
2, 379560, Note_off_c, 0, 78, 64
2, 379800, Note_on_c, 0, 79, 92
2, 379920, Note_off_c, 0, 79, 64
2, 379920, Note_on_c, 0, 77, 92
2, 380040, Note_off_c, 0, 77, 64
2, 380040, Note_on_c, 0, 79, 92
2, 380160, Note_off_c, 0, 79, 64
2, 380160, Note_on_c, 0, 75, 92
2, 380560, Note_off_c, 0, 75, 64
2, 380760, Note_on_c, 0, 86, 92
2, 380880, Note_off_c, 0, 86, 64
2, 380880, Note_on_c, 0, 84, 92
2, 381000, Note_off_c, 0, 84, 64
2, 381000, Note_on_c, 0, 86, 92
2, 381120, Note_off_c, 0, 86, 64
2, 381120, Note_on_c, 0, 82, 92
2, 381520, Note_off_c, 0, 82, 64
2, 381720, Note_on_c, 0, 81, 92
2, 381840, Note_off_c, 0, 81, 64
2, 381840, Note_on_c, 0, 79, 92
2, 381960, Note_off_c, 0, 79, 64
2, 381960, Note_on_c, 0, 81, 92
2, 382080, Note_off_c, 0, 81, 64
2, 382080, Note_on_c, 0, 78, 92
2, 382480, Note_off_c, 0, 78, 64
2, 382680, Note_on_c, 0, 79, 92
2, 382800, Note_off_c, 0, 79, 64
2, 382800, Note_on_c, 0, 77, 92
2, 382920, Note_off_c, 0, 77, 64
2, 382920, Note_on_c, 0, 79, 92
2, 383040, Note_off_c, 0, 79, 64
2, 383040, Note_on_c, 0, 75, 92
2, 383520, Note_off_c, 0, 75, 64
2, 383520, Note_on_c, 0, 74, 92
2, 383920, Note_off_c, 0, 74, 64
2, 384120, Note_on_c, 0, 74, 92
2, 384240, Note_off_c, 0, 74, 64
2, 384240, Note_on_c, 0, 72, 92
2, 384360, Note_off_c, 0, 72, 64
2, 384360, Note_on_c, 0, 74, 92
2, 384880, Note_off_c, 0, 74, 64
2, 391200, Note_on_c, 0, 84, 92
2, 391600, Note_off_c, 0, 84, 64
2, 391680, Note_on_c, 0, 91, 92
2, 392520, Note_off_c, 0, 91, 64
2, 392640, Note_on_c, 0, 87, 92
2, 393040, Note_off_c, 0, 87, 64
2, 393120, Note_on_c, 0, 89, 92
2, 393960, Note_off_c, 0, 89, 64
2, 394080, Note_on_c, 0, 91, 92
2, 394480, Note_off_c, 0, 91, 64
2, 394560, Note_on_c, 0, 92, 92
2, 395400, Note_off_c, 0, 92, 64
2, 395520, Note_on_c, 0, 89, 92
2, 395920, Note_off_c, 0, 89, 64
2, 396000, Note_on_c, 0, 91, 92
2, 399280, Note_off_c, 0, 91, 64
2, 399360, Note_on_c, 0, 89, 92
2, 400720, Note_off_c, 0, 89, 64
2, 400800, Note_on_c, 0, 87, 92
2, 402160, Note_off_c, 0, 87, 64
2, 402240, Note_on_c, 0, 86, 92
2, 403600, Note_off_c, 0, 86, 64
2, 403680, Note_on_c, 0, 84, 92
2, 403800, Note_off_c, 0, 84, 64
2, 403800, Note_on_c, 0, 87, 92
2, 403920, Note_off_c, 0, 87, 64
2, 403920, Note_on_c, 0, 84, 92
2, 404040, Note_off_c, 0, 84, 64
2, 404040, Note_on_c, 0, 87, 92
2, 404160, Note_off_c, 0, 87, 64
2, 404160, Note_on_c, 0, 86, 92
2, 404280, Note_off_c, 0, 86, 64
2, 404280, Note_on_c, 0, 89, 92
2, 404400, Note_off_c, 0, 89, 64
2, 404400, Note_on_c, 0, 86, 92
2, 404520, Note_off_c, 0, 86, 64
2, 404520, Note_on_c, 0, 89, 92
2, 404640, Note_off_c, 0, 89, 64
2, 404640, Note_on_c, 0, 83, 92
2, 404700, Note_off_c, 0, 83, 64
2, 404700, Note_on_c, 0, 84, 92
2, 404760, Note_off_c, 0, 84, 64
2, 404760, Note_on_c, 0, 83, 92
2, 404820, Note_off_c, 0, 83, 64
2, 404820, Note_on_c, 0, 84, 92
2, 404880, Note_off_c, 0, 84, 64
2, 404880, Note_on_c, 0, 83, 92
2, 404940, Note_off_c, 0, 83, 64
2, 404940, Note_on_c, 0, 84, 92
2, 405000, Note_off_c, 0, 84, 64
2, 405000, Note_on_c, 0, 83, 92
2, 405060, Note_off_c, 0, 83, 64
2, 405060, Note_on_c, 0, 84, 92
2, 405120, Note_off_c, 0, 84, 64
2, 405120, Note_on_c, 0, 83, 92
2, 405180, Note_off_c, 0, 83, 64
2, 405180, Note_on_c, 0, 84, 92
2, 405240, Note_off_c, 0, 84, 64
2, 405240, Note_on_c, 0, 83, 92
2, 405300, Note_off_c, 0, 83, 64
2, 405300, Note_on_c, 0, 84, 92
2, 405360, Note_off_c, 0, 84, 64
2, 405360, Note_on_c, 0, 83, 92
2, 405420, Note_off_c, 0, 83, 64
2, 405420, Note_on_c, 0, 84, 92
2, 405480, Note_off_c, 0, 84, 64
2, 405480, Note_on_c, 0, 83, 92
2, 405540, Note_off_c, 0, 83, 64
2, 405540, Note_on_c, 0, 84, 92
2, 405600, Note_off_c, 0, 84, 64
2, 405600, Note_on_c, 0, 91, 92
2, 405660, Note_off_c, 0, 91, 64
2, 405660, Note_on_c, 0, 89, 92
2, 405720, Note_off_c, 0, 89, 64
2, 405720, Note_on_c, 0, 91, 92
2, 405780, Note_off_c, 0, 91, 64
2, 405780, Note_on_c, 0, 87, 92
2, 405840, Note_off_c, 0, 87, 64
2, 405840, Note_on_c, 0, 91, 92
2, 405900, Note_off_c, 0, 91, 64
2, 405900, Note_on_c, 0, 84, 92
2, 405960, Note_off_c, 0, 84, 64
2, 405960, Note_on_c, 0, 87, 92
2, 406080, Note_off_c, 0, 87, 64
2, 406080, Note_on_c, 0, 83, 92
2, 406480, Note_off_c, 0, 83, 64
2, 406800, Note_on_c, 0, 83, 92
2, 407035, Note_off_c, 0, 83, 64
2, 407040, Note_on_c, 0, 84, 92
2, 407275, Note_off_c, 0, 84, 64
2, 407280, Note_on_c, 0, 84, 92
2, 407515, Note_off_c, 0, 84, 64
2, 407520, Note_on_c, 0, 86, 92
2, 407920, Note_off_c, 0, 86, 64
2, 408240, Note_on_c, 0, 86, 92
2, 408475, Note_off_c, 0, 86, 64
2, 408480, Note_on_c, 0, 87, 92
2, 408715, Note_off_c, 0, 87, 64
2, 408720, Note_on_c, 0, 87, 92
2, 408955, Note_off_c, 0, 87, 64
2, 408960, Note_on_c, 0, 86, 92
2, 409360, Note_off_c, 0, 86, 64
2, 409680, Note_on_c, 0, 86, 92
2, 409915, Note_off_c, 0, 86, 64
2, 409920, Note_on_c, 0, 91, 92
2, 410155, Note_off_c, 0, 91, 64
2, 410160, Note_on_c, 0, 87, 92
2, 410395, Note_off_c, 0, 87, 64
2, 410400, Note_on_c, 0, 92, 92
2, 410800, Note_off_c, 0, 92, 64
2, 411120, Note_on_c, 0, 83, 92
2, 411355, Note_off_c, 0, 83, 64
2, 411360, Note_on_c, 0, 84, 92
2, 411955, Note_off_c, 0, 84, 64
2, 411960, Note_on_c, 0, 87, 92
2, 412080, Note_off_c, 0, 87, 64
2, 412080, Note_on_c, 0, 86, 92
2, 412200, Note_off_c, 0, 86, 64
2, 412200, Note_on_c, 0, 89, 92
2, 412320, Note_off_c, 0, 89, 64
2, 412320, Note_on_c, 0, 87, 92
2, 412440, Note_off_c, 0, 87, 64
2, 412440, Note_on_c, 0, 91, 92
2, 412560, Note_off_c, 0, 91, 64
2, 412560, Note_on_c, 0, 89, 92
2, 412680, Note_off_c, 0, 89, 64
2, 412680, Note_on_c, 0, 92, 92
2, 412795, Note_off_c, 0, 92, 64
2, 412800, Note_on_c, 0, 86, 92
2, 412830, Note_off_c, 0, 86, 64
2, 412830, Note_on_c, 0, 87, 92
2, 412860, Note_off_c, 0, 87, 64
2, 412860, Note_on_c, 0, 86, 92
2, 412890, Note_off_c, 0, 86, 64
2, 412890, Note_on_c, 0, 87, 92
2, 412920, Note_off_c, 0, 87, 64
2, 412920, Note_on_c, 0, 86, 92
2, 412950, Note_off_c, 0, 86, 64
2, 412950, Note_on_c, 0, 87, 92
2, 412980, Note_off_c, 0, 87, 64
2, 412980, Note_on_c, 0, 86, 92
2, 413010, Note_off_c, 0, 86, 64
2, 413010, Note_on_c, 0, 87, 92
2, 413040, Note_off_c, 0, 87, 64
2, 413040, Note_on_c, 0, 86, 92
2, 413070, Note_off_c, 0, 86, 64
2, 413070, Note_on_c, 0, 87, 92
2, 413100, Note_off_c, 0, 87, 64
2, 413100, Note_on_c, 0, 86, 92
2, 413130, Note_off_c, 0, 86, 64
2, 413130, Note_on_c, 0, 87, 92
2, 413160, Note_off_c, 0, 87, 64
2, 413160, Note_on_c, 0, 86, 92
2, 413190, Note_off_c, 0, 86, 64
2, 413190, Note_on_c, 0, 87, 92
2, 413220, Note_off_c, 0, 87, 64
2, 413220, Note_on_c, 0, 86, 92
2, 413250, Note_off_c, 0, 86, 64
2, 413250, Note_on_c, 0, 87, 92
2, 413280, Note_off_c, 0, 87, 64
2, 413280, Note_on_c, 0, 84, 92
2, 413680, Note_off_c, 0, 84, 64
2, 413880, Note_on_c, 0, 96, 92
2, 414000, Note_off_c, 0, 96, 64
2, 414000, Note_on_c, 0, 94, 92
2, 414120, Note_off_c, 0, 94, 64
2, 414120, Note_on_c, 0, 96, 92
2, 414240, Note_off_c, 0, 96, 64
2, 414240, Note_on_c, 0, 92, 92
2, 414360, Note_off_c, 0, 92, 64
2, 414360, Note_on_c, 0, 96, 92
2, 414480, Note_off_c, 0, 96, 64
2, 414480, Note_on_c, 0, 89, 92
2, 414600, Note_off_c, 0, 89, 64
2, 414600, Note_on_c, 0, 92, 92
2, 414720, Note_off_c, 0, 92, 64
2, 414720, Note_on_c, 0, 88, 92
2, 415200, Note_off_c, 0, 88, 64
2, 415440, Note_on_c, 0, 88, 92
2, 415680, Note_off_c, 0, 88, 64
2, 415680, Note_on_c, 0, 89, 92
2, 415920, Note_off_c, 0, 89, 64
2, 415920, Note_on_c, 0, 89, 92
2, 416160, Note_off_c, 0, 89, 64
2, 416160, Note_on_c, 0, 91, 92
2, 416640, Note_off_c, 0, 91, 64
2, 416880, Note_on_c, 0, 91, 92
2, 417120, Note_off_c, 0, 91, 64
2, 417120, Note_on_c, 0, 92, 92
2, 417360, Note_off_c, 0, 92, 64
2, 417360, Note_on_c, 0, 92, 92
2, 417600, Note_off_c, 0, 92, 64
2, 417720, Note_on_c, 0, 94, 92
2, 417835, Note_off_c, 0, 94, 64
2, 417840, Note_on_c, 0, 92, 92
2, 417955, Note_off_c, 0, 92, 64
2, 417960, Note_on_c, 0, 94, 92
2, 418075, Note_off_c, 0, 94, 64
2, 418080, Note_on_c, 0, 91, 92
2, 418795, Note_off_c, 0, 91, 64
2, 418800, Note_on_c, 0, 89, 92
2, 419155, Note_off_c, 0, 89, 64
2, 419160, Note_on_c, 0, 89, 92
2, 419280, Note_off_c, 0, 89, 64
2, 419280, Note_on_c, 0, 88, 92
2, 419400, Note_off_c, 0, 88, 64
2, 419400, Note_on_c, 0, 89, 92
2, 419520, Note_off_c, 0, 89, 64
2, 419520, Note_on_c, 0, 83, 92
2, 420115, Note_off_c, 0, 83, 64
2, 420120, Note_on_c, 0, 86, 92
2, 420240, Note_off_c, 0, 86, 64
2, 420240, Note_on_c, 0, 83, 92
2, 420360, Note_off_c, 0, 83, 64
2, 420360, Note_on_c, 0, 86, 92
2, 420480, Note_off_c, 0, 86, 64
2, 420480, Note_on_c, 0, 84, 92
2, 421800, Note_off_c, 0, 84, 64
2, 421800, End_track
3, 0, Start_track
3, 0, Title_t, "c minor by Bach"
3, 0, MIDI_port, 0
3, 0, Channel_prefix, 0
3, 0, Control_c, 0, 7, 107
3, 0, Control_c, 0, 10, 44
3, 0, Control_c, 0, 91, 60
3, 0, Program_c, 0, 73
3, 24240, Note_on_c, 0, 79, 30
3, 25320, Note_off_c, 0, 79, 64
3, 25680, Note_on_c, 0, 79, 30
3, 26400, Note_off_c, 0, 79, 64
3, 26400, Note_on_c, 0, 77, 30
3, 26800, Note_off_c, 0, 77, 64
3, 27120, Note_on_c, 0, 75, 30
3, 27840, Note_off_c, 0, 75, 64
3, 27840, Note_on_c, 0, 74, 30
3, 28240, Note_off_c, 0, 74, 64
3, 28560, Note_on_c, 0, 75, 30
3, 29280, Note_off_c, 0, 75, 64
3, 29280, Note_on_c, 0, 74, 30
3, 29680, Note_off_c, 0, 74, 64
3, 30000, Note_on_c, 0, 71, 30
3, 30720, Note_off_c, 0, 71, 64
3, 30720, Note_on_c, 0, 72, 30
3, 31120, Note_off_c, 0, 72, 64
3, 31440, Note_on_c, 0, 68, 30
3, 31920, Note_off_c, 0, 68, 64
3, 31920, Note_on_c, 0, 67, 30
3, 32560, Note_off_c, 0, 67, 64
3, 32880, Note_on_c, 0, 68, 30
3, 33960, Note_off_c, 0, 68, 64
3, 34080, Note_on_c, 0, 67, 30
3, 34440, Note_off_c, 0, 67, 64
3, 34440, Note_on_c, 0, 65, 30
3, 34560, Note_off_c, 0, 65, 64
3, 34560, Note_on_c, 0, 63, 30
3, 34960, Note_off_c, 0, 63, 64
3, 57840, Note_on_c, 0, 79, 60
3, 57960, Note_off_c, 0, 79, 64
3, 57960, Note_on_c, 0, 67, 60
3, 58080, Note_off_c, 0, 67, 64
3, 58080, Note_on_c, 0, 72, 60
3, 58315, Note_off_c, 0, 72, 64
3, 58320, Note_on_c, 0, 74, 60
3, 58440, Note_off_c, 0, 74, 64
3, 58440, Note_on_c, 0, 75, 60
3, 58555, Note_off_c, 0, 75, 64
3, 58560, Note_on_c, 0, 75, 60
3, 59040, Note_off_c, 0, 75, 64
3, 59040, Note_on_c, 0, 74, 60
3, 59440, Note_off_c, 0, 74, 64
3, 59760, Note_on_c, 0, 74, 60
3, 59880, Note_off_c, 0, 74, 64
3, 59880, Note_on_c, 0, 71, 60
3, 59995, Note_off_c, 0, 71, 64
3, 60000, Note_on_c, 0, 75, 60
3, 60715, Note_off_c, 0, 75, 64
3, 60720, Note_on_c, 0, 75, 60
3, 60840, Note_off_c, 0, 75, 64
3, 60840, Note_on_c, 0, 72, 60
3, 60955, Note_off_c, 0, 72, 64
3, 60960, Note_on_c, 0, 77, 60
3, 61675, Note_off_c, 0, 77, 64
3, 61680, Note_on_c, 0, 75, 60
3, 61800, Note_off_c, 0, 75, 64
3, 61800, Note_on_c, 0, 79, 60
3, 61920, Note_off_c, 0, 79, 64
3, 61920, Note_on_c, 0, 72, 60
3, 62155, Note_off_c, 0, 72, 64
3, 62160, Note_on_c, 0, 84, 60
3, 62280, Note_off_c, 0, 84, 64
3, 62280, Note_on_c, 0, 72, 60
3, 62400, Note_off_c, 0, 72, 64
3, 62400, Note_on_c, 0, 77, 60
3, 62635, Note_off_c, 0, 77, 64
3, 62640, Note_on_c, 0, 79, 60
3, 62760, Note_off_c, 0, 79, 64
3, 62760, Note_on_c, 0, 80, 60
3, 62880, Note_off_c, 0, 80, 64
3, 62880, Note_on_c, 0, 82, 60
3, 62910, Note_off_c, 0, 82, 64
3, 62910, Note_on_c, 0, 80, 60
3, 62940, Note_off_c, 0, 80, 64
3, 62940, Note_on_c, 0, 82, 60
3, 62970, Note_off_c, 0, 82, 64
3, 62970, Note_on_c, 0, 80, 60
3, 63000, Note_off_c, 0, 80, 64
3, 63000, Note_on_c, 0, 82, 60
3, 63030, Note_off_c, 0, 82, 64
3, 63030, Note_on_c, 0, 80, 60
3, 63060, Note_off_c, 0, 80, 64
3, 63060, Note_on_c, 0, 82, 60
3, 63090, Note_off_c, 0, 82, 64
3, 63090, Note_on_c, 0, 80, 60
3, 63120, Note_off_c, 0, 80, 64
3, 63120, Note_on_c, 0, 79, 60
3, 63240, Note_off_c, 0, 79, 64
3, 63240, Note_on_c, 0, 80, 60
3, 63360, Note_off_c, 0, 80, 64
3, 63360, Note_on_c, 0, 79, 60
3, 63595, Note_off_c, 0, 79, 64
3, 63600, Note_on_c, 0, 74, 60
3, 63720, Note_off_c, 0, 74, 64
3, 63720, Note_on_c, 0, 62, 60
3, 63840, Note_off_c, 0, 62, 64
3, 63840, Note_on_c, 0, 67, 60
3, 64075, Note_off_c, 0, 67, 64
3, 64080, Note_on_c, 0, 69, 60
3, 64200, Note_off_c, 0, 69, 64
3, 64200, Note_on_c, 0, 71, 60
3, 64320, Note_off_c, 0, 71, 64
3, 64320, Note_on_c, 0, 71, 60
3, 64350, Note_off_c, 0, 71, 64
3, 64350, Note_on_c, 0, 72, 60
3, 64380, Note_off_c, 0, 72, 64
3, 64380, Note_on_c, 0, 71, 60
3, 64410, Note_off_c, 0, 71, 64
3, 64410, Note_on_c, 0, 72, 60
3, 64440, Note_off_c, 0, 72, 64
3, 64440, Note_on_c, 0, 71, 60
3, 64470, Note_off_c, 0, 71, 64
3, 64470, Note_on_c, 0, 72, 60
3, 64500, Note_off_c, 0, 72, 64
3, 64500, Note_on_c, 0, 71, 60
3, 64530, Note_off_c, 0, 71, 64
3, 64530, Note_on_c, 0, 72, 60
3, 64560, Note_off_c, 0, 72, 64
3, 64560, Note_on_c, 0, 71, 60
3, 64590, Note_off_c, 0, 71, 64
3, 64590, Note_on_c, 0, 72, 60
3, 64620, Note_off_c, 0, 72, 64
3, 64620, Note_on_c, 0, 71, 60
3, 64650, Note_off_c, 0, 71, 64
3, 64650, Note_on_c, 0, 72, 60
3, 64680, Note_off_c, 0, 72, 64
3, 64680, Note_on_c, 0, 71, 60
3, 64710, Note_off_c, 0, 71, 64
3, 64710, Note_on_c, 0, 72, 60
3, 64740, Note_off_c, 0, 72, 64
3, 64740, Note_on_c, 0, 69, 60
3, 64770, Note_off_c, 0, 69, 64
3, 64770, Note_on_c, 0, 71, 60
3, 64795, Note_off_c, 0, 71, 64
3, 64800, Note_on_c, 0, 72, 60
3, 65035, Note_off_c, 0, 72, 64
3, 65040, Note_on_c, 0, 79, 60
3, 65160, Note_off_c, 0, 79, 64
3, 65160, Note_on_c, 0, 67, 60
3, 65280, Note_off_c, 0, 67, 64
3, 65280, Note_on_c, 0, 72, 60
3, 65515, Note_off_c, 0, 72, 64
3, 65520, Note_on_c, 0, 74, 60
3, 65760, Note_off_c, 0, 74, 64
3, 65760, Note_on_c, 0, 75, 60
3, 65995, Note_off_c, 0, 75, 64
3, 66000, Note_on_c, 0, 74, 60
3, 66120, Note_off_c, 0, 74, 64
3, 66120, Note_on_c, 0, 77, 60
3, 66240, Note_off_c, 0, 77, 64
3, 66240, Note_on_c, 0, 75, 60
3, 66475, Note_off_c, 0, 75, 64
3, 66480, Note_on_c, 0, 84, 60
3, 66600, Note_off_c, 0, 84, 64
3, 66600, Note_on_c, 0, 72, 60
3, 66720, Note_off_c, 0, 72, 64
3, 66720, Note_on_c, 0, 77, 60
3, 66960, Note_off_c, 0, 77, 64
3, 66960, Note_on_c, 0, 79, 60
3, 67200, Note_off_c, 0, 79, 64
3, 67200, Note_on_c, 0, 80, 60
3, 67435, Note_off_c, 0, 80, 64
3, 67440, Note_on_c, 0, 77, 60
3, 67915, Note_off_c, 0, 77, 64
3, 67920, Note_on_c, 0, 79, 60
3, 68040, Note_off_c, 0, 79, 64
3, 68040, Note_on_c, 0, 74, 60
3, 68160, Note_off_c, 0, 74, 64
3, 68160, Note_on_c, 0, 75, 60
3, 68520, Note_off_c, 0, 75, 64
3, 68520, Note_on_c, 0, 77, 60
3, 68635, Note_off_c, 0, 77, 64
3, 68640, Note_on_c, 0, 74, 60
3, 68670, Note_off_c, 0, 74, 64
3, 68670, Note_on_c, 0, 75, 60
3, 68700, Note_off_c, 0, 75, 64
3, 68700, Note_on_c, 0, 74, 60
3, 68730, Note_off_c, 0, 74, 64
3, 68730, Note_on_c, 0, 75, 60
3, 68760, Note_off_c, 0, 75, 64
3, 68760, Note_on_c, 0, 74, 60
3, 68790, Note_off_c, 0, 74, 64
3, 68790, Note_on_c, 0, 75, 60
3, 68820, Note_off_c, 0, 75, 64
3, 68820, Note_on_c, 0, 74, 60
3, 68850, Note_off_c, 0, 74, 64
3, 68850, Note_on_c, 0, 75, 60
3, 68880, Note_off_c, 0, 75, 64
3, 68880, Note_on_c, 0, 74, 60
3, 68910, Note_off_c, 0, 74, 64
3, 68910, Note_on_c, 0, 75, 60
3, 68940, Note_off_c, 0, 75, 64
3, 68940, Note_on_c, 0, 74, 60
3, 68970, Note_off_c, 0, 74, 64
3, 68970, Note_on_c, 0, 75, 60
3, 69000, Note_off_c, 0, 75, 64
3, 69000, Note_on_c, 0, 74, 60
3, 69030, Note_off_c, 0, 74, 64
3, 69030, Note_on_c, 0, 75, 60
3, 69060, Note_off_c, 0, 75, 64
3, 69060, Note_on_c, 0, 74, 60
3, 69090, Note_off_c, 0, 74, 64
3, 69090, Note_on_c, 0, 75, 60
3, 69120, Note_off_c, 0, 75, 64
3, 69120, Note_on_c, 0, 72, 60
3, 69520, Note_off_c, 0, 72, 64
3, 70200, Note_on_c, 0, 69, 60
3, 70320, Note_off_c, 0, 69, 64
3, 70320, Note_on_c, 0, 71, 60
3, 70440, Note_off_c, 0, 71, 64
3, 70440, Note_on_c, 0, 72, 60
3, 70560, Note_off_c, 0, 72, 64
3, 70560, Note_on_c, 0, 71, 60
3, 70960, Note_off_c, 0, 71, 64
3, 71640, Note_on_c, 0, 75, 60
3, 71760, Note_off_c, 0, 75, 64
3, 71760, Note_on_c, 0, 77, 60
3, 71880, Note_off_c, 0, 77, 64
3, 71880, Note_on_c, 0, 79, 60
3, 72000, Note_off_c, 0, 79, 64
3, 72000, Note_on_c, 0, 80, 60
3, 72400, Note_off_c, 0, 80, 64
3, 73080, Note_on_c, 0, 79, 60
3, 73200, Note_off_c, 0, 79, 64
3, 73200, Note_on_c, 0, 81, 60
3, 73320, Note_off_c, 0, 81, 64
3, 73320, Note_on_c, 0, 83, 60
3, 73440, Note_off_c, 0, 83, 64
3, 73440, Note_on_c, 0, 84, 60
3, 73840, Note_off_c, 0, 84, 64
3, 74520, Note_on_c, 0, 74, 60
3, 74640, Note_off_c, 0, 74, 64
3, 74640, Note_on_c, 0, 75, 60
3, 74760, Note_off_c, 0, 75, 64
3, 74760, Note_on_c, 0, 77, 60
3, 74880, Note_off_c, 0, 77, 64
3, 74880, Note_on_c, 0, 71, 60
3, 75360, Note_off_c, 0, 71, 64
3, 75960, Note_on_c, 0, 63, 60
3, 76080, Note_off_c, 0, 63, 64
3, 76080, Note_on_c, 0, 65, 60
3, 76200, Note_off_c, 0, 65, 64
3, 76200, Note_on_c, 0, 67, 60
3, 76320, Note_off_c, 0, 67, 64
3, 76320, Note_on_c, 0, 63, 60
3, 76720, Note_off_c, 0, 63, 64
3, 77400, Note_on_c, 0, 71, 60
3, 77520, Note_off_c, 0, 71, 64
3, 77520, Note_on_c, 0, 72, 60
3, 77640, Note_off_c, 0, 72, 64
3, 77640, Note_on_c, 0, 74, 60
3, 77760, Note_off_c, 0, 74, 64
3, 77760, Note_on_c, 0, 75, 60
3, 78160, Note_off_c, 0, 75, 64
3, 78840, Note_on_c, 0, 71, 60
3, 78960, Note_off_c, 0, 71, 64
3, 78960, Note_on_c, 0, 72, 60
3, 79080, Note_off_c, 0, 72, 64
3, 79080, Note_on_c, 0, 74, 60
3, 79200, Note_off_c, 0, 74, 64
3, 79200, Note_on_c, 0, 75, 60
3, 79320, Note_off_c, 0, 75, 64
3, 79320, Note_on_c, 0, 79, 60
3, 79440, Note_off_c, 0, 79, 64
3, 79440, Note_on_c, 0, 77, 60
3, 79560, Note_off_c, 0, 77, 64
3, 79560, Note_on_c, 0, 75, 60
3, 79680, Note_off_c, 0, 75, 64
3, 79680, Note_on_c, 0, 74, 60
3, 80640, Note_off_c, 0, 74, 64
3, 80640, Note_on_c, 0, 72, 60
3, 80755, Note_off_c, 0, 72, 64
3, 80760, Note_on_c, 0, 72, 60
3, 80880, Note_off_c, 0, 72, 64
3, 80880, Note_on_c, 0, 70, 60
3, 81000, Note_off_c, 0, 70, 64
3, 81000, Note_on_c, 0, 68, 60
3, 81120, Note_off_c, 0, 68, 64
3, 81120, Note_on_c, 0, 67, 60
3, 81240, Note_off_c, 0, 67, 64
3, 81240, Note_on_c, 0, 68, 60
3, 81360, Note_off_c, 0, 68, 64
3, 81360, Note_on_c, 0, 67, 60
3, 81480, Note_off_c, 0, 67, 64
3, 81480, Note_on_c, 0, 65, 60
3, 81600, Note_off_c, 0, 65, 64
3, 81600, Note_on_c, 0, 63, 60
3, 82000, Note_off_c, 0, 63, 64
3, 82200, Note_on_c, 0, 79, 60
3, 82320, Note_off_c, 0, 79, 64
3, 82320, Note_on_c, 0, 77, 60
3, 82440, Note_off_c, 0, 77, 64
3, 82440, Note_on_c, 0, 75, 60
3, 82560, Note_off_c, 0, 75, 64
3, 82560, Note_on_c, 0, 74, 60
3, 82680, Note_off_c, 0, 74, 64
3, 82680, Note_on_c, 0, 75, 60
3, 82800, Note_off_c, 0, 75, 64
3, 82800, Note_on_c, 0, 74, 60
3, 82920, Note_off_c, 0, 74, 64
3, 82920, Note_on_c, 0, 75, 60
3, 83040, Note_off_c, 0, 75, 64
3, 83040, Note_on_c, 0, 72, 60
3, 83635, Note_off_c, 0, 72, 64
3, 83640, Note_on_c, 0, 82, 60
3, 83760, Note_off_c, 0, 82, 64
3, 83760, Note_on_c, 0, 80, 60
3, 83880, Note_off_c, 0, 80, 64
3, 83880, Note_on_c, 0, 79, 60
3, 84000, Note_off_c, 0, 79, 64
3, 84000, Note_on_c, 0, 77, 60
3, 84120, Note_off_c, 0, 77, 64
3, 84120, Note_on_c, 0, 75, 60
3, 84240, Note_off_c, 0, 75, 64
3, 84240, Note_on_c, 0, 74, 60
3, 84360, Note_off_c, 0, 74, 64
3, 84360, Note_on_c, 0, 72, 60
3, 84480, Note_off_c, 0, 72, 64
3, 84480, Note_on_c, 0, 71, 60
3, 84960, Note_off_c, 0, 71, 64
3, 84960, Note_on_c, 0, 72, 60
3, 85075, Note_off_c, 0, 72, 64
3, 85080, Note_on_c, 0, 77, 60
3, 85200, Note_off_c, 0, 77, 64
3, 85200, Note_on_c, 0, 75, 60
3, 85320, Note_off_c, 0, 75, 64
3, 85320, Note_on_c, 0, 74, 60
3, 85440, Note_off_c, 0, 74, 64
3, 85440, Note_on_c, 0, 72, 60
3, 85560, Note_off_c, 0, 72, 64
3, 85560, Note_on_c, 0, 70, 60
3, 85680, Note_off_c, 0, 70, 64
3, 85680, Note_on_c, 0, 68, 60
3, 85800, Note_off_c, 0, 68, 64
3, 85800, Note_on_c, 0, 67, 60
3, 85920, Note_off_c, 0, 67, 64
3, 85920, Note_on_c, 0, 68, 60
3, 86400, Note_off_c, 0, 68, 64
3, 86400, Note_on_c, 0, 67, 60
3, 86515, Note_off_c, 0, 67, 64
3, 86520, Note_on_c, 0, 79, 60
3, 86640, Note_off_c, 0, 79, 64
3, 86640, Note_on_c, 0, 77, 60
3, 86760, Note_off_c, 0, 77, 64
3, 86760, Note_on_c, 0, 75, 60
3, 86880, Note_off_c, 0, 75, 64
3, 86880, Note_on_c, 0, 74, 60
3, 87000, Note_off_c, 0, 74, 64
3, 87000, Note_on_c, 0, 75, 60
3, 87120, Note_off_c, 0, 75, 64
3, 87120, Note_on_c, 0, 74, 60
3, 87240, Note_off_c, 0, 74, 64
3, 87240, Note_on_c, 0, 75, 60
3, 87360, Note_off_c, 0, 75, 64
3, 87360, Note_on_c, 0, 77, 60
3, 87955, Note_off_c, 0, 77, 64
3, 87960, Note_on_c, 0, 75, 60
3, 88080, Note_off_c, 0, 75, 64
3, 88080, Note_on_c, 0, 74, 60
3, 88200, Note_off_c, 0, 74, 64
3, 88200, Note_on_c, 0, 72, 60
3, 88320, Note_off_c, 0, 72, 64
3, 88320, Note_on_c, 0, 71, 60
3, 88440, Note_off_c, 0, 71, 64
3, 88440, Note_on_c, 0, 69, 60
3, 88560, Note_off_c, 0, 69, 64
3, 88560, Note_on_c, 0, 71, 60
3, 88680, Note_off_c, 0, 71, 64
3, 88680, Note_on_c, 0, 72, 60
3, 88800, Note_off_c, 0, 72, 64
3, 88800, Note_on_c, 0, 74, 60
3, 89395, Note_off_c, 0, 74, 64
3, 89400, Note_on_c, 0, 77, 60
3, 89520, Note_off_c, 0, 77, 64
3, 89520, Note_on_c, 0, 75, 60
3, 89640, Note_off_c, 0, 75, 64
3, 89640, Note_on_c, 0, 74, 60
3, 89760, Note_off_c, 0, 74, 64
3, 89760, Note_on_c, 0, 72, 60
3, 90120, Note_off_c, 0, 72, 64
3, 90120, Note_on_c, 0, 70, 60
3, 90240, Note_off_c, 0, 70, 64
3, 90240, Note_on_c, 0, 68, 60
3, 90835, Note_off_c, 0, 68, 64
3, 90840, Note_on_c, 0, 80, 60
3, 90960, Note_off_c, 0, 80, 64
3, 90960, Note_on_c, 0, 79, 60
3, 91080, Note_off_c, 0, 79, 64
3, 91080, Note_on_c, 0, 77, 60
3, 91200, Note_off_c, 0, 77, 64
3, 91200, Note_on_c, 0, 75, 60
3, 91260, Note_off_c, 0, 75, 64
3, 91260, Note_on_c, 0, 77, 60
3, 91320, Note_off_c, 0, 77, 64
3, 91320, Note_on_c, 0, 79, 60
3, 91440, Note_off_c, 0, 79, 64
3, 91440, Note_on_c, 0, 77, 60
3, 91560, Note_off_c, 0, 77, 64
3, 91560, Note_on_c, 0, 79, 60
3, 91620, Note_off_c, 0, 79, 64
3, 91620, Note_on_c, 0, 80, 60
3, 91680, Note_off_c, 0, 80, 64
3, 91680, Note_on_c, 0, 74, 60
3, 91710, Note_off_c, 0, 74, 64
3, 91710, Note_on_c, 0, 75, 60
3, 91740, Note_off_c, 0, 75, 64
3, 91740, Note_on_c, 0, 74, 60
3, 91770, Note_off_c, 0, 74, 64
3, 91770, Note_on_c, 0, 75, 60
3, 91800, Note_off_c, 0, 75, 64
3, 91800, Note_on_c, 0, 74, 60
3, 91830, Note_off_c, 0, 74, 64
3, 91830, Note_on_c, 0, 75, 60
3, 91860, Note_off_c, 0, 75, 64
3, 91860, Note_on_c, 0, 74, 60
3, 91890, Note_off_c, 0, 74, 64
3, 91890, Note_on_c, 0, 75, 60
3, 91920, Note_off_c, 0, 75, 64
3, 91920, Note_on_c, 0, 74, 60
3, 91950, Note_off_c, 0, 74, 64
3, 91950, Note_on_c, 0, 75, 60
3, 91980, Note_off_c, 0, 75, 64
3, 91980, Note_on_c, 0, 74, 60
3, 92010, Note_off_c, 0, 74, 64
3, 92010, Note_on_c, 0, 75, 60
3, 92040, Note_off_c, 0, 75, 64
3, 92040, Note_on_c, 0, 74, 60
3, 92070, Note_off_c, 0, 74, 64
3, 92070, Note_on_c, 0, 75, 60
3, 92100, Note_off_c, 0, 75, 64
3, 92100, Note_on_c, 0, 72, 60
3, 92130, Note_off_c, 0, 72, 64
3, 92130, Note_on_c, 0, 74, 60
3, 92160, Note_off_c, 0, 74, 64
3, 92160, Note_on_c, 0, 72, 60
3, 92560, Note_off_c, 0, 72, 64
3, 94200, Note_on_c, 0, 74, 60
3, 94320, Note_off_c, 0, 74, 64
3, 94320, Note_on_c, 0, 75, 60
3, 94440, Note_off_c, 0, 75, 64
3, 94440, Note_on_c, 0, 77, 60
3, 94560, Note_off_c, 0, 77, 64
3, 94560, Note_on_c, 0, 79, 60
3, 94680, Note_off_c, 0, 79, 64
3, 94680, Note_on_c, 0, 77, 60
3, 94800, Note_off_c, 0, 77, 64
3, 94800, Note_on_c, 0, 75, 60
3, 94920, Note_off_c, 0, 75, 64
3, 94920, Note_on_c, 0, 74, 60
3, 95040, Note_off_c, 0, 74, 64
3, 95040, Note_on_c, 0, 72, 60
3, 95160, Note_off_c, 0, 72, 64
3, 95160, Note_on_c, 0, 73, 60
3, 95280, Note_off_c, 0, 73, 64
3, 95280, Note_on_c, 0, 72, 60
3, 95400, Note_off_c, 0, 72, 64
3, 95400, Note_on_c, 0, 70, 60
3, 95520, Note_off_c, 0, 70, 64
3, 95520, Note_on_c, 0, 68, 60
3, 95635, Note_off_c, 0, 68, 64
3, 95640, Note_on_c, 0, 77, 60
3, 95760, Note_off_c, 0, 77, 64
3, 95760, Note_on_c, 0, 79, 60
3, 95880, Note_off_c, 0, 79, 64
3, 95880, Note_on_c, 0, 80, 60
3, 96000, Note_off_c, 0, 80, 64
3, 96000, Note_on_c, 0, 71, 60
3, 96400, Note_off_c, 0, 71, 64
3, 96600, Note_on_c, 0, 72, 60
3, 96720, Note_off_c, 0, 72, 64
3, 96720, Note_on_c, 0, 74, 60
3, 96840, Note_off_c, 0, 74, 64
3, 96840, Note_on_c, 0, 75, 60
3, 96960, Note_off_c, 0, 75, 64
3, 96960, Note_on_c, 0, 77, 60
3, 97080, Note_off_c, 0, 77, 64
3, 97080, Note_on_c, 0, 79, 60
3, 97200, Note_off_c, 0, 79, 64
3, 97200, Note_on_c, 0, 77, 60
3, 97320, Note_off_c, 0, 77, 64
3, 97320, Note_on_c, 0, 75, 60
3, 97440, Note_off_c, 0, 75, 64
3, 97440, Note_on_c, 0, 74, 60
3, 97555, Note_off_c, 0, 74, 64
3, 97560, Note_on_c, 0, 81, 60
3, 97680, Note_off_c, 0, 81, 64
3, 97680, Note_on_c, 0, 83, 60
3, 97800, Note_off_c, 0, 83, 64
3, 97800, Note_on_c, 0, 84, 60
3, 97920, Note_off_c, 0, 84, 64
3, 97920, Note_on_c, 0, 83, 60
3, 98040, Note_off_c, 0, 83, 64
3, 98040, Note_on_c, 0, 84, 60
3, 98160, Note_off_c, 0, 84, 64
3, 98160, Note_on_c, 0, 83, 60
3, 98280, Note_off_c, 0, 83, 64
3, 98280, Note_on_c, 0, 81, 60
3, 98400, Note_off_c, 0, 81, 64
3, 98400, Note_on_c, 0, 79, 60
3, 98635, Note_off_c, 0, 79, 64
3, 98640, Note_on_c, 0, 77, 60
3, 98760, Note_off_c, 0, 77, 64
3, 98760, Note_on_c, 0, 75, 60
3, 98880, Note_off_c, 0, 75, 64
3, 98880, Note_on_c, 0, 77, 60
3, 99475, Note_off_c, 0, 77, 64
3, 99480, Note_on_c, 0, 80, 60
3, 99600, Note_off_c, 0, 80, 64
3, 99600, Note_on_c, 0, 79, 60
3, 99720, Note_off_c, 0, 79, 64
3, 99720, Note_on_c, 0, 77, 60
3, 99840, Note_off_c, 0, 77, 64
3, 99840, Note_on_c, 0, 75, 60
3, 99955, Note_off_c, 0, 75, 64
3, 99960, Note_on_c, 0, 79, 60
3, 100080, Note_off_c, 0, 79, 64
3, 100080, Note_on_c, 0, 77, 60
3, 100200, Note_off_c, 0, 77, 64
3, 100200, Note_on_c, 0, 75, 60
3, 100315, Note_off_c, 0, 75, 64
3, 100320, Note_on_c, 0, 74, 60
3, 100915, Note_off_c, 0, 74, 64
3, 100920, Note_on_c, 0, 77, 60
3, 101040, Note_off_c, 0, 77, 64
3, 101040, Note_on_c, 0, 75, 60
3, 101160, Note_off_c, 0, 75, 64
3, 101160, Note_on_c, 0, 74, 60
3, 101280, Note_off_c, 0, 74, 64
3, 101280, Note_on_c, 0, 72, 60
3, 101400, Note_off_c, 0, 72, 64
3, 101400, Note_on_c, 0, 75, 60
3, 101520, Note_off_c, 0, 75, 64
3, 101520, Note_on_c, 0, 74, 60
3, 101640, Note_off_c, 0, 74, 64
3, 101640, Note_on_c, 0, 72, 60
3, 101755, Note_off_c, 0, 72, 64
3, 101760, Note_on_c, 0, 73, 60
3, 101880, Note_off_c, 0, 73, 64
3, 101880, Note_on_c, 0, 75, 60
3, 102000, Note_off_c, 0, 75, 64
3, 102000, Note_on_c, 0, 73, 60
3, 102120, Note_off_c, 0, 73, 64
3, 102120, Note_on_c, 0, 72, 60
3, 102240, Note_off_c, 0, 72, 64
3, 102240, Note_on_c, 0, 71, 60
3, 102360, Note_off_c, 0, 71, 64
3, 102360, Note_on_c, 0, 72, 60
3, 102480, Note_off_c, 0, 72, 64
3, 102480, Note_on_c, 0, 74, 60
3, 102835, Note_off_c, 0, 74, 64
3, 102840, Note_on_c, 0, 75, 61
3, 102960, Note_off_c, 0, 75, 64
3, 102960, Note_on_c, 0, 74, 61
3, 103080, Note_off_c, 0, 74, 64
3, 103080, Note_on_c, 0, 72, 61
3, 103435, Note_off_c, 0, 72, 64
3, 103440, Note_on_c, 0, 71, 62
3, 103680, Note_off_c, 0, 71, 64
3, 103680, Note_on_c, 0, 72, 63
3, 104080, Note_off_c, 0, 72, 64
3, 105240, Note_on_c, 0, 67, 75
3, 105360, Note_off_c, 0, 67, 64
3, 105360, Note_on_c, 0, 71, 75
3, 105480, Note_off_c, 0, 71, 64
3, 105480, Note_on_c, 0, 67, 75
3, 105600, Note_off_c, 0, 67, 64
3, 105600, Note_on_c, 0, 74, 75
3, 106000, Note_off_c, 0, 74, 64
3, 106080, Note_on_c, 0, 75, 75
3, 106960, Note_off_c, 0, 75, 64
3, 107160, Note_on_c, 0, 73, 75
3, 107280, Note_off_c, 0, 73, 64
3, 107280, Note_on_c, 0, 77, 75
3, 107400, Note_off_c, 0, 77, 64
3, 107400, Note_on_c, 0, 73, 75
3, 108400, Note_off_c, 0, 73, 64
3, 108480, Note_on_c, 0, 72, 75
3, 108880, Note_off_c, 0, 72, 64
3, 108960, Note_on_c, 0, 74, 75
3, 109360, Note_off_c, 0, 74, 64
3, 109440, Note_on_c, 0, 71, 75
3, 109840, Note_off_c, 0, 71, 64
3, 111480, Note_on_c, 0, 72, 75
3, 111600, Note_off_c, 0, 72, 64
3, 111600, Note_on_c, 0, 75, 75
3, 111720, Note_off_c, 0, 75, 64
3, 111720, Note_on_c, 0, 72, 75
3, 111840, Note_off_c, 0, 72, 64
3, 111840, Note_on_c, 0, 77, 75
3, 111960, Note_off_c, 0, 77, 64
3, 111960, Note_on_c, 0, 74, 75
3, 112080, Note_off_c, 0, 74, 64
3, 112080, Note_on_c, 0, 77, 75
3, 112200, Note_off_c, 0, 77, 64
3, 112200, Note_on_c, 0, 74, 75
3, 112320, Note_off_c, 0, 74, 64
3, 112320, Note_on_c, 0, 75, 75
3, 112720, Note_off_c, 0, 75, 64
3, 112920, Note_on_c, 0, 72, 75
3, 113040, Note_off_c, 0, 72, 64
3, 113040, Note_on_c, 0, 75, 75
3, 113160, Note_off_c, 0, 75, 64
3, 113160, Note_on_c, 0, 72, 75
3, 113280, Note_off_c, 0, 72, 64
3, 113280, Note_on_c, 0, 77, 75
3, 113400, Note_off_c, 0, 77, 64
3, 113400, Note_on_c, 0, 74, 75
3, 113520, Note_off_c, 0, 74, 64
3, 113520, Note_on_c, 0, 77, 75
3, 113640, Note_off_c, 0, 77, 64
3, 113640, Note_on_c, 0, 74, 75
3, 113760, Note_off_c, 0, 74, 64
3, 113760, Note_on_c, 0, 75, 75
3, 114160, Note_off_c, 0, 75, 64
3, 114360, Note_on_c, 0, 72, 75
3, 114480, Note_off_c, 0, 72, 64
3, 114480, Note_on_c, 0, 75, 75
3, 114600, Note_off_c, 0, 75, 64
3, 114600, Note_on_c, 0, 72, 75
3, 114720, Note_off_c, 0, 72, 64
3, 114720, Note_on_c, 0, 77, 75
3, 114840, Note_off_c, 0, 77, 64
3, 114840, Note_on_c, 0, 74, 76
3, 114960, Note_off_c, 0, 74, 64
3, 114960, Note_on_c, 0, 77, 77
3, 115080, Note_off_c, 0, 77, 64
3, 115080, Note_on_c, 0, 74, 78
3, 115200, Note_off_c, 0, 74, 64
3, 115200, Note_on_c, 0, 75, 79
3, 115315, Note_off_c, 0, 75, 64
3, 115320, Note_on_c, 0, 84, 80
3, 115440, Note_off_c, 0, 84, 64
3, 115440, Note_on_c, 0, 82, 81
3, 115560, Note_off_c, 0, 82, 64
3, 115560, Note_on_c, 0, 80, 82
3, 115680, Note_off_c, 0, 80, 64
3, 115680, Note_on_c, 0, 79, 84
3, 115800, Note_off_c, 0, 79, 64
3, 115800, Note_on_c, 0, 77, 86
3, 115920, Note_off_c, 0, 77, 64
3, 115920, Note_on_c, 0, 75, 88
3, 116040, Note_off_c, 0, 75, 64
3, 116040, Note_on_c, 0, 74, 90
3, 116155, Note_off_c, 0, 74, 64
3, 116160, Note_on_c, 0, 72, 92
3, 116280, Note_off_c, 0, 72, 64
3, 116280, Note_on_c, 0, 75, 92
3, 116400, Note_off_c, 0, 75, 64
3, 116400, Note_on_c, 0, 74, 92
3, 116520, Note_off_c, 0, 74, 64
3, 116520, Note_on_c, 0, 72, 92
3, 116640, Note_off_c, 0, 72, 64
3, 116640, Note_on_c, 0, 71, 92
3, 116760, Note_off_c, 0, 71, 64
3, 116760, Note_on_c, 0, 72, 92
3, 116880, Note_off_c, 0, 72, 64
3, 116880, Note_on_c, 0, 71, 92
3, 117000, Note_off_c, 0, 71, 64
3, 117000, Note_on_c, 0, 69, 92
3, 117120, Note_off_c, 0, 69, 64
3, 117120, Note_on_c, 0, 79, 92
3, 117240, Note_off_c, 0, 79, 64
3, 117240, Note_on_c, 0, 77, 92
3, 117360, Note_off_c, 0, 77, 64
3, 117360, Note_on_c, 0, 75, 92
3, 117480, Note_off_c, 0, 75, 64
3, 117480, Note_on_c, 0, 74, 92
3, 117600, Note_off_c, 0, 74, 64
3, 117600, Note_on_c, 0, 72, 92
3, 117715, Note_off_c, 0, 72, 64
3, 117720, Note_on_c, 0, 82, 92
3, 117840, Note_off_c, 0, 82, 64
3, 117840, Note_on_c, 0, 80, 92
3, 117960, Note_off_c, 0, 80, 64
3, 117960, Note_on_c, 0, 79, 92
3, 118080, Note_off_c, 0, 79, 64
3, 118080, Note_on_c, 0, 80, 92
3, 118200, Note_off_c, 0, 80, 64
3, 118200, Note_on_c, 0, 82, 92
3, 118320, Note_off_c, 0, 82, 64
3, 118320, Note_on_c, 0, 80, 92
3, 118440, Note_off_c, 0, 80, 64
3, 118440, Note_on_c, 0, 79, 92
3, 118560, Note_off_c, 0, 79, 64
3, 118560, Note_on_c, 0, 77, 92
3, 118680, Note_off_c, 0, 77, 64
3, 118680, Note_on_c, 0, 75, 92
3, 118800, Note_off_c, 0, 75, 64
3, 118800, Note_on_c, 0, 74, 92
3, 118920, Note_off_c, 0, 74, 64
3, 118920, Note_on_c, 0, 72, 92
3, 119040, Note_off_c, 0, 72, 64
3, 119040, Note_on_c, 0, 71, 92
3, 119160, Note_off_c, 0, 71, 64
3, 119160, Note_on_c, 0, 74, 92
3, 119280, Note_off_c, 0, 74, 64
3, 119280, Note_on_c, 0, 72, 92
3, 119400, Note_off_c, 0, 72, 64
3, 119400, Note_on_c, 0, 71, 92
3, 119520, Note_off_c, 0, 71, 64
3, 119520, Note_on_c, 0, 72, 92
3, 119640, Note_off_c, 0, 72, 64
3, 119640, Note_on_c, 0, 74, 92
3, 119760, Note_off_c, 0, 74, 64
3, 119760, Note_on_c, 0, 72, 92
3, 119880, Note_off_c, 0, 72, 64
3, 119880, Note_on_c, 0, 70, 92
3, 119995, Note_off_c, 0, 70, 64
3, 120000, Note_on_c, 0, 80, 92
3, 120120, Note_off_c, 0, 80, 64
3, 120120, Note_on_c, 0, 79, 92
3, 120240, Note_off_c, 0, 79, 64
3, 120240, Note_on_c, 0, 77, 92
3, 120360, Note_off_c, 0, 77, 64
3, 120360, Note_on_c, 0, 75, 92
3, 120480, Note_off_c, 0, 75, 64
3, 120480, Note_on_c, 0, 74, 92
3, 120600, Note_off_c, 0, 74, 64
3, 120600, Note_on_c, 0, 75, 92
3, 120720, Note_off_c, 0, 75, 64
3, 120720, Note_on_c, 0, 74, 92
3, 120840, Note_off_c, 0, 74, 64
3, 120840, Note_on_c, 0, 72, 92
3, 120960, Note_off_c, 0, 72, 64
3, 120960, Note_on_c, 0, 71, 92
3, 121080, Note_off_c, 0, 71, 64
3, 121080, Note_on_c, 0, 72, 92
3, 121200, Note_off_c, 0, 72, 64
3, 121200, Note_on_c, 0, 71, 92
3, 121320, Note_off_c, 0, 71, 64
3, 121320, Note_on_c, 0, 69, 92
3, 121440, Note_off_c, 0, 69, 64
3, 121440, Note_on_c, 0, 67, 92
3, 121560, Note_off_c, 0, 67, 64
3, 121560, Note_on_c, 0, 69, 92
3, 121680, Note_off_c, 0, 69, 64
3, 121680, Note_on_c, 0, 71, 92
3, 121800, Note_off_c, 0, 71, 64
3, 121800, Note_on_c, 0, 72, 92
3, 121920, Note_off_c, 0, 72, 64
3, 121920, Note_on_c, 0, 71, 92
3, 122040, Note_off_c, 0, 71, 64
3, 122040, Note_on_c, 0, 74, 92
3, 122160, Note_off_c, 0, 74, 64
3, 122160, Note_on_c, 0, 72, 92
3, 122280, Note_off_c, 0, 72, 64
3, 122280, Note_on_c, 0, 71, 92
3, 122400, Note_off_c, 0, 71, 64
3, 122400, Note_on_c, 0, 72, 92
3, 122520, Note_off_c, 0, 72, 64
3, 122520, Note_on_c, 0, 74, 92
3, 122640, Note_off_c, 0, 74, 64
3, 122640, Note_on_c, 0, 75, 92
3, 122760, Note_off_c, 0, 75, 64
3, 122760, Note_on_c, 0, 77, 92
3, 122880, Note_off_c, 0, 77, 64
3, 122880, Note_on_c, 0, 67, 92
3, 123000, Note_off_c, 0, 67, 64
3, 123000, Note_on_c, 0, 69, 92
3, 123120, Note_off_c, 0, 69, 64
3, 123120, Note_on_c, 0, 71, 92
3, 123240, Note_off_c, 0, 71, 64
3, 123240, Note_on_c, 0, 72, 92
3, 123360, Note_off_c, 0, 72, 64
3, 123360, Note_on_c, 0, 74, 92
3, 123475, Note_off_c, 0, 74, 64
3, 123480, Note_on_c, 0, 77, 92
3, 123600, Note_off_c, 0, 77, 64
3, 123600, Note_on_c, 0, 75, 92
3, 123720, Note_off_c, 0, 75, 64
3, 123720, Note_on_c, 0, 74, 92
3, 123840, Note_off_c, 0, 74, 64
3, 123840, Note_on_c, 0, 75, 92
3, 123960, Note_off_c, 0, 75, 64
3, 123960, Note_on_c, 0, 79, 92
3, 124080, Note_off_c, 0, 79, 64
3, 124080, Note_on_c, 0, 84, 92
3, 124200, Note_off_c, 0, 84, 64
3, 124200, Note_on_c, 0, 82, 92
3, 124320, Note_off_c, 0, 82, 64
3, 124320, Note_on_c, 0, 80, 92
3, 124440, Note_off_c, 0, 80, 64
3, 124440, Note_on_c, 0, 79, 92
3, 124560, Note_off_c, 0, 79, 64
3, 124560, Note_on_c, 0, 77, 92
3, 124680, Note_off_c, 0, 77, 64
3, 124680, Note_on_c, 0, 75, 92
3, 124795, Note_off_c, 0, 75, 64
3, 124800, Note_on_c, 0, 74, 92
3, 124920, Note_off_c, 0, 74, 64
3, 124920, Note_on_c, 0, 75, 92
3, 125040, Note_off_c, 0, 75, 64
3, 125040, Note_on_c, 0, 74, 92
3, 125160, Note_off_c, 0, 74, 64
3, 125160, Note_on_c, 0, 72, 92
3, 125280, Note_off_c, 0, 72, 64
3, 125280, Note_on_c, 0, 71, 92
3, 125400, Note_off_c, 0, 71, 64
3, 125400, Note_on_c, 0, 72, 92
3, 125520, Note_off_c, 0, 72, 64
3, 125520, Note_on_c, 0, 74, 92
3, 125640, Note_off_c, 0, 74, 64
3, 125640, Note_on_c, 0, 75, 92
3, 125760, Note_off_c, 0, 75, 64
3, 125760, Note_on_c, 0, 74, 92
3, 125880, Note_off_c, 0, 74, 64
3, 125880, Note_on_c, 0, 72, 92
3, 126000, Note_off_c, 0, 72, 64
3, 126000, Note_on_c, 0, 71, 92
3, 126120, Note_off_c, 0, 71, 64
3, 126120, Note_on_c, 0, 69, 92
3, 126235, Note_off_c, 0, 69, 64
3, 126240, Note_on_c, 0, 67, 92
3, 126360, Note_off_c, 0, 67, 64
3, 126360, Note_on_c, 0, 68, 92
3, 126480, Note_off_c, 0, 68, 64
3, 126480, Note_on_c, 0, 67, 92
3, 126600, Note_off_c, 0, 67, 64
3, 126600, Note_on_c, 0, 65, 92
3, 126720, Note_off_c, 0, 65, 64
3, 126720, Note_on_c, 0, 63, 75
3, 126840, Note_off_c, 0, 63, 64
3, 126840, Note_on_c, 0, 65, 75
3, 126960, Note_off_c, 0, 65, 64
3, 126960, Note_on_c, 0, 67, 75
3, 127080, Note_off_c, 0, 67, 64
3, 127080, Note_on_c, 0, 68, 75
3, 127200, Note_off_c, 0, 68, 64
3, 127200, Note_on_c, 0, 79, 60
3, 127320, Note_off_c, 0, 79, 64
3, 127320, Note_on_c, 0, 77, 60
3, 127440, Note_off_c, 0, 77, 64
3, 127440, Note_on_c, 0, 75, 60
3, 127560, Note_off_c, 0, 75, 64
3, 127560, Note_on_c, 0, 74, 60
3, 127675, Note_off_c, 0, 74, 64
3, 151680, Note_on_c, 0, 72, 45
3, 151800, Note_off_c, 0, 72, 64
3, 151800, Note_on_c, 0, 75, 45
3, 151920, Note_off_c, 0, 75, 64
3, 151920, Note_on_c, 0, 74, 45
3, 152040, Note_off_c, 0, 74, 64
3, 152040, Note_on_c, 0, 72, 45
3, 152160, Note_off_c, 0, 72, 64
3, 152160, Note_on_c, 0, 79, 45
3, 152560, Note_off_c, 0, 79, 64
3, 152640, Note_on_c, 0, 72, 45
3, 152760, Note_off_c, 0, 72, 64
3, 152760, Note_on_c, 0, 75, 45
3, 152880, Note_off_c, 0, 75, 64
3, 152880, Note_on_c, 0, 74, 45
3, 153000, Note_off_c, 0, 74, 64
3, 153000, Note_on_c, 0, 72, 45
3, 153120, Note_off_c, 0, 72, 64
3, 153120, Note_on_c, 0, 77, 45
3, 153835, Note_off_c, 0, 77, 64
3, 153840, Note_on_c, 0, 76, 45
3, 154080, Note_off_c, 0, 76, 64
3, 154080, Note_on_c, 0, 77, 45
3, 154200, Note_off_c, 0, 77, 64
3, 154200, Note_on_c, 0, 80, 45
3, 154320, Note_off_c, 0, 80, 64
3, 154320, Note_on_c, 0, 79, 45
3, 154440, Note_off_c, 0, 79, 64
3, 154440, Note_on_c, 0, 77, 45
3, 154555, Note_off_c, 0, 77, 64
3, 154560, Note_on_c, 0, 84, 45
3, 155155, Note_off_c, 0, 84, 64
3, 155160, Note_on_c, 0, 75, 45
3, 155280, Note_off_c, 0, 75, 64
3, 155280, Note_on_c, 0, 74, 45
3, 155400, Note_off_c, 0, 74, 64
3, 155400, Note_on_c, 0, 72, 45
3, 155520, Note_off_c, 0, 72, 64
3, 155520, Note_on_c, 0, 71, 45
3, 156000, Note_off_c, 0, 71, 64
3, 156000, Note_on_c, 0, 72, 45
3, 156480, Note_off_c, 0, 72, 64
3, 156480, Note_on_c, 0, 74, 45
3, 156880, Note_off_c, 0, 74, 64
3, 156960, Note_on_c, 0, 67, 45
3, 157200, Note_off_c, 0, 67, 64
3, 157200, Note_on_c, 0, 72, 45
3, 157555, Note_off_c, 0, 72, 64
3, 157560, Note_on_c, 0, 72, 45
3, 157680, Note_off_c, 0, 72, 64
3, 157680, Note_on_c, 0, 71, 45
3, 157800, Note_off_c, 0, 71, 64
3, 157800, Note_on_c, 0, 69, 45
3, 157920, Note_off_c, 0, 69, 64
3, 157920, Note_on_c, 0, 67, 45
3, 158160, Note_off_c, 0, 67, 64
3, 158160, Note_on_c, 0, 65, 45
3, 158400, Note_off_c, 0, 65, 64
3, 158400, Note_on_c, 0, 63, 45
3, 158640, Note_off_c, 0, 63, 64
3, 158640, Note_on_c, 0, 68, 45
3, 158995, Note_off_c, 0, 68, 64
3, 159000, Note_on_c, 0, 67, 45
3, 159120, Note_off_c, 0, 67, 64
3, 159120, Note_on_c, 0, 72, 45
3, 159240, Note_off_c, 0, 72, 64
3, 159240, Note_on_c, 0, 70, 45
3, 159360, Note_off_c, 0, 70, 64
3, 159360, Note_on_c, 0, 68, 45
3, 159480, Note_off_c, 0, 68, 64
3, 159480, Note_on_c, 0, 77, 45
3, 159600, Note_off_c, 0, 77, 64
3, 159600, Note_on_c, 0, 79, 45
3, 159720, Note_off_c, 0, 79, 64
3, 159720, Note_on_c, 0, 80, 45
3, 159835, Note_off_c, 0, 80, 64
3, 159840, Note_on_c, 0, 71, 45
3, 160320, Note_off_c, 0, 71, 64
3, 160320, Note_on_c, 0, 72, 45
3, 160435, Note_off_c, 0, 72, 64
3, 160440, Note_on_c, 0, 75, 45
3, 160560, Note_off_c, 0, 75, 64
3, 160560, Note_on_c, 0, 74, 45
3, 160680, Note_off_c, 0, 74, 64
3, 160680, Note_on_c, 0, 72, 45
3, 160795, Note_off_c, 0, 72, 64
3, 160800, Note_on_c, 0, 79, 45
3, 161395, Note_off_c, 0, 79, 64
3, 161400, Note_on_c, 0, 82, 45
3, 161520, Note_off_c, 0, 82, 64
3, 161520, Note_on_c, 0, 80, 45
3, 161640, Note_off_c, 0, 80, 64
3, 161640, Note_on_c, 0, 79, 45
3, 161760, Note_off_c, 0, 79, 64
3, 161760, Note_on_c, 0, 84, 45
3, 161995, Note_off_c, 0, 84, 64
3, 162000, Note_on_c, 0, 72, 52
3, 162235, Note_off_c, 0, 72, 64
3, 162360, Note_on_c, 0, 79, 60
3, 162480, Note_off_c, 0, 79, 64
3, 162480, Note_on_c, 0, 75, 60
3, 162600, Note_off_c, 0, 75, 64
3, 162600, Note_on_c, 0, 72, 60
3, 162720, Note_off_c, 0, 72, 64
3, 162720, Note_on_c, 0, 71, 60
3, 162960, Note_off_c, 0, 71, 64
3, 162960, Note_on_c, 0, 67, 60
3, 163195, Note_off_c, 0, 67, 64
3, 163320, Note_on_c, 0, 71, 60
3, 163440, Note_off_c, 0, 71, 64
3, 163440, Note_on_c, 0, 74, 60
3, 163560, Note_off_c, 0, 74, 64
3, 163560, Note_on_c, 0, 79, 60
3, 163675, Note_off_c, 0, 79, 64
3, 163800, Note_on_c, 0, 79, 60
3, 163920, Note_off_c, 0, 79, 64
3, 163920, Note_on_c, 0, 75, 60
3, 164040, Note_off_c, 0, 75, 64
3, 164040, Note_on_c, 0, 72, 60
3, 164160, Note_off_c, 0, 72, 64
3, 164160, Note_on_c, 0, 80, 60
3, 164395, Note_off_c, 0, 80, 64
3, 164400, Note_on_c, 0, 77, 60
3, 164635, Note_off_c, 0, 77, 64
3, 164760, Note_on_c, 0, 68, 60
3, 164880, Note_off_c, 0, 68, 64
3, 164880, Note_on_c, 0, 72, 60
3, 165000, Note_off_c, 0, 72, 64
3, 165000, Note_on_c, 0, 77, 60
3, 165115, Note_off_c, 0, 77, 64
3, 165240, Note_on_c, 0, 79, 60
3, 165360, Note_off_c, 0, 79, 64
3, 165360, Note_on_c, 0, 75, 60
3, 165480, Note_off_c, 0, 75, 64
3, 165480, Note_on_c, 0, 71, 60
3, 165600, Note_off_c, 0, 71, 64
3, 165600, Note_on_c, 0, 72, 60
3, 165835, Note_off_c, 0, 72, 64
3, 165840, Note_on_c, 0, 68, 60
3, 166075, Note_off_c, 0, 68, 64
3, 166200, Note_on_c, 0, 72, 60
3, 166320, Note_off_c, 0, 72, 64
3, 166320, Note_on_c, 0, 75, 60
3, 166440, Note_off_c, 0, 75, 64
3, 166440, Note_on_c, 0, 80, 60
3, 166555, Note_off_c, 0, 80, 64
3, 166680, Note_on_c, 0, 80, 60
3, 166800, Note_off_c, 0, 80, 64
3, 166800, Note_on_c, 0, 75, 60
3, 166920, Note_off_c, 0, 75, 64
3, 166920, Note_on_c, 0, 72, 60
3, 167040, Note_off_c, 0, 72, 64
3, 167040, Note_on_c, 0, 71, 60
3, 167275, Note_off_c, 0, 71, 64
3, 167280, Note_on_c, 0, 67, 60
3, 167515, Note_off_c, 0, 67, 64
3, 167640, Note_on_c, 0, 71, 60
3, 167760, Note_off_c, 0, 71, 64
3, 167760, Note_on_c, 0, 74, 60
3, 167880, Note_off_c, 0, 74, 64
3, 167880, Note_on_c, 0, 79, 60
3, 167995, Note_off_c, 0, 79, 64
3, 168120, Note_on_c, 0, 80, 60
3, 168240, Note_off_c, 0, 80, 64
3, 168240, Note_on_c, 0, 77, 60
3, 168360, Note_off_c, 0, 77, 64
3, 168360, Note_on_c, 0, 71, 60
3, 168480, Note_off_c, 0, 71, 64
3, 168480, Note_on_c, 0, 79, 60
3, 168715, Note_off_c, 0, 79, 64
3, 168720, Note_on_c, 0, 75, 60
3, 168955, Note_off_c, 0, 75, 64
3, 169080, Note_on_c, 0, 67, 60
3, 169200, Note_off_c, 0, 67, 64
3, 169200, Note_on_c, 0, 70, 60
3, 169320, Note_off_c, 0, 70, 64
3, 169320, Note_on_c, 0, 75, 60
3, 169435, Note_off_c, 0, 75, 64
3, 169560, Note_on_c, 0, 77, 60
3, 169680, Note_off_c, 0, 77, 64
3, 169680, Note_on_c, 0, 74, 60
3, 169800, Note_off_c, 0, 74, 64
3, 169800, Note_on_c, 0, 67, 60
3, 169920, Note_off_c, 0, 67, 64
3, 169920, Note_on_c, 0, 75, 60
3, 170155, Note_off_c, 0, 75, 64
3, 170160, Note_on_c, 0, 72, 60
3, 170395, Note_off_c, 0, 72, 64
3, 170520, Note_on_c, 0, 63, 60
3, 170640, Note_off_c, 0, 63, 64
3, 170640, Note_on_c, 0, 67, 60
3, 170760, Note_off_c, 0, 67, 64
3, 170760, Note_on_c, 0, 72, 60
3, 170875, Note_off_c, 0, 72, 64
3, 171000, Note_on_c, 0, 80, 60
3, 171120, Note_off_c, 0, 80, 64
3, 171120, Note_on_c, 0, 77, 60
3, 171240, Note_off_c, 0, 77, 64
3, 171240, Note_on_c, 0, 74, 60
3, 171360, Note_off_c, 0, 74, 64
3, 171360, Note_on_c, 0, 75, 60
3, 171440, Note_off_c, 0, 75, 64
3, 171440, Note_on_c, 0, 77, 60
3, 171520, Note_off_c, 0, 77, 64
3, 171520, Note_on_c, 0, 75, 60
3, 171600, Note_off_c, 0, 75, 64
3, 171600, Note_on_c, 0, 72, 60
3, 171835, Note_off_c, 0, 72, 64
3, 171960, Note_on_c, 0, 72, 60
3, 172080, Note_off_c, 0, 72, 64
3, 172080, Note_on_c, 0, 75, 60
3, 172200, Note_off_c, 0, 75, 64
3, 172200, Note_on_c, 0, 79, 60
3, 172315, Note_off_c, 0, 79, 64
3, 172320, Note_on_c, 0, 71, 60
3, 172440, Note_off_c, 0, 71, 64
3, 172440, Note_on_c, 0, 74, 60
3, 172560, Note_off_c, 0, 74, 64
3, 172560, Note_on_c, 0, 77, 60
3, 172680, Note_off_c, 0, 77, 64
3, 172680, Note_on_c, 0, 71, 60
3, 172800, Note_off_c, 0, 71, 64
3, 172800, Note_on_c, 0, 75, 60
3, 173200, Note_off_c, 0, 75, 64
3, 173760, Note_on_c, 0, 72, 75
3, 174160, Note_off_c, 0, 72, 64
3, 174240, Note_on_c, 0, 71, 75
3, 175080, Note_off_c, 0, 71, 64
3, 175200, Note_on_c, 0, 72, 75
3, 175600, Note_off_c, 0, 72, 64
3, 175680, Note_on_c, 0, 72, 75
3, 176520, Note_off_c, 0, 72, 64
3, 176640, Note_on_c, 0, 71, 75
3, 177040, Note_off_c, 0, 71, 64
3, 177120, Note_on_c, 0, 72, 75
3, 177960, Note_off_c, 0, 72, 64
3, 178080, Note_on_c, 0, 72, 75
3, 178480, Note_off_c, 0, 72, 64
3, 178560, Note_on_c, 0, 71, 75
3, 179400, Note_off_c, 0, 71, 64
3, 179520, Note_on_c, 0, 71, 75
3, 179920, Note_off_c, 0, 71, 64
3, 180000, Note_on_c, 0, 72, 75
3, 180840, Note_off_c, 0, 72, 64
3, 180960, Note_on_c, 0, 71, 75
3, 181360, Note_off_c, 0, 71, 64
3, 181440, Note_on_c, 0, 72, 75
3, 182280, Note_off_c, 0, 72, 64
3, 182400, Note_on_c, 0, 72, 75
3, 182800, Note_off_c, 0, 72, 64
3, 182880, Note_on_c, 0, 74, 75
3, 184200, Note_off_c, 0, 74, 64
3, 184320, Note_on_c, 0, 72, 85
3, 185160, Note_off_c, 0, 72, 64
3, 185520, Note_on_c, 0, 79, 127
3, 185755, Note_off_c, 0, 79, 64
3, 185880, Note_on_c, 0, 84, 92
3, 186000, Note_off_c, 0, 84, 64
3, 186000, Note_on_c, 0, 86, 92
3, 186120, Note_off_c, 0, 86, 64
3, 186120, Note_on_c, 0, 81, 92
3, 186240, Note_off_c, 0, 81, 64
3, 186240, Note_on_c, 0, 83, 92
3, 186360, Note_off_c, 0, 83, 64
3, 186360, Note_on_c, 0, 78, 92
3, 186480, Note_off_c, 0, 78, 64
3, 186480, Note_on_c, 0, 79, 92
3, 186955, Note_off_c, 0, 79, 64
3, 186960, Note_on_c, 0, 79, 127
3, 187195, Note_off_c, 0, 79, 64
3, 187320, Note_on_c, 0, 82, 92
3, 187440, Note_off_c, 0, 82, 64
3, 187440, Note_on_c, 0, 84, 92
3, 187560, Note_off_c, 0, 84, 64
3, 187560, Note_on_c, 0, 79, 92
3, 187680, Note_off_c, 0, 79, 64
3, 187680, Note_on_c, 0, 80, 92
3, 187800, Note_off_c, 0, 80, 64
3, 187800, Note_on_c, 0, 76, 92
3, 187920, Note_off_c, 0, 76, 64
3, 187920, Note_on_c, 0, 77, 92
3, 188160, Note_off_c, 0, 77, 64
3, 188160, Note_on_c, 0, 75, 92
3, 188395, Note_off_c, 0, 75, 64
3, 188400, Note_on_c, 0, 79, 127
3, 188635, Note_off_c, 0, 79, 64
3, 188760, Note_on_c, 0, 74, 92
3, 188880, Note_off_c, 0, 74, 64
3, 188880, Note_on_c, 0, 75, 92
3, 189000, Note_off_c, 0, 75, 64
3, 189000, Note_on_c, 0, 83, 92
3, 189120, Note_off_c, 0, 83, 64
3, 189120, Note_on_c, 0, 84, 92
3, 189240, Note_off_c, 0, 84, 64
3, 189240, Note_on_c, 0, 79, 92
3, 189360, Note_off_c, 0, 79, 64
3, 189360, Note_on_c, 0, 80, 92
3, 189835, Note_off_c, 0, 80, 64
3, 189840, Note_on_c, 0, 80, 127
3, 190075, Note_off_c, 0, 80, 64
3, 190200, Note_on_c, 0, 84, 92
3, 190320, Note_off_c, 0, 84, 64
3, 190320, Note_on_c, 0, 86, 92
3, 190440, Note_off_c, 0, 86, 64
3, 190440, Note_on_c, 0, 81, 92
3, 190560, Note_off_c, 0, 81, 64
3, 190560, Note_on_c, 0, 83, 92
3, 190680, Note_off_c, 0, 83, 64
3, 190680, Note_on_c, 0, 78, 92
3, 190800, Note_off_c, 0, 78, 64
3, 190800, Note_on_c, 0, 79, 92
3, 191040, Note_off_c, 0, 79, 64
3, 191040, Note_on_c, 0, 77, 92
3, 191275, Note_off_c, 0, 77, 64
3, 191280, Note_on_c, 0, 77, 127
3, 191515, Note_off_c, 0, 77, 64
3, 191640, Note_on_c, 0, 78, 92
3, 191760, Note_off_c, 0, 78, 64
3, 191760, Note_on_c, 0, 79, 92
3, 191880, Note_off_c, 0, 79, 64
3, 191880, Note_on_c, 0, 74, 92
3, 192000, Note_off_c, 0, 74, 64
3, 192000, Note_on_c, 0, 75, 92
3, 192120, Note_off_c, 0, 75, 64
3, 192120, Note_on_c, 0, 71, 92
3, 192240, Note_off_c, 0, 71, 64
3, 192240, Note_on_c, 0, 72, 92
3, 192480, Note_off_c, 0, 72, 64
3, 192480, Note_on_c, 0, 71, 92
3, 192715, Note_off_c, 0, 71, 64
3, 192720, Note_on_c, 0, 79, 127
3, 192955, Note_off_c, 0, 79, 64
3, 193080, Note_on_c, 0, 77, 92
3, 193200, Note_off_c, 0, 77, 64
3, 193200, Note_on_c, 0, 79, 92
3, 193320, Note_off_c, 0, 79, 64
3, 193320, Note_on_c, 0, 74, 92
3, 193440, Note_off_c, 0, 74, 64
3, 193440, Note_on_c, 0, 75, 92
3, 193560, Note_off_c, 0, 75, 64
3, 193560, Note_on_c, 0, 71, 92
3, 193680, Note_off_c, 0, 71, 64
3, 193680, Note_on_c, 0, 72, 92
3, 193920, Note_off_c, 0, 72, 64
3, 193920, Note_on_c, 0, 72, 92
3, 194155, Note_off_c, 0, 72, 64
3, 194160, Note_on_c, 0, 80, 127
3, 194395, Note_off_c, 0, 80, 64
3, 194520, Note_on_c, 0, 77, 92
3, 194640, Note_off_c, 0, 77, 64
3, 194640, Note_on_c, 0, 79, 92
3, 194760, Note_off_c, 0, 79, 64
3, 194760, Note_on_c, 0, 74, 92
3, 194880, Note_off_c, 0, 74, 64
3, 194880, Note_on_c, 0, 75, 92
3, 195000, Note_off_c, 0, 75, 64
3, 195000, Note_on_c, 0, 71, 92
3, 195120, Note_off_c, 0, 71, 64
3, 195120, Note_on_c, 0, 72, 92
3, 195360, Note_off_c, 0, 72, 64
3, 195360, Note_on_c, 0, 71, 92
3, 195595, Note_off_c, 0, 71, 64
3, 195600, Note_on_c, 0, 79, 127
3, 195835, Note_off_c, 0, 79, 64
3, 195960, Note_on_c, 0, 77, 92
3, 196080, Note_off_c, 0, 77, 64
3, 196080, Note_on_c, 0, 79, 92
3, 196200, Note_off_c, 0, 79, 64
3, 196200, Note_on_c, 0, 74, 92
3, 196320, Note_off_c, 0, 74, 64
3, 196320, Note_on_c, 0, 75, 92
3, 196440, Note_off_c, 0, 75, 64
3, 196440, Note_on_c, 0, 71, 92
3, 196560, Note_off_c, 0, 71, 64
3, 196560, Note_on_c, 0, 72, 92
3, 196795, Note_off_c, 0, 72, 64
3, 196920, Note_on_c, 0, 77, 92
3, 196980, Note_off_c, 0, 77, 64
3, 196980, Note_on_c, 0, 75, 92
3, 197035, Note_off_c, 0, 75, 64
3, 197040, Note_on_c, 0, 75, 92
3, 197160, Note_off_c, 0, 75, 64
3, 197160, Note_on_c, 0, 74, 92
3, 197220, Note_off_c, 0, 74, 64
3, 197220, Note_on_c, 0, 72, 92
3, 197275, Note_off_c, 0, 72, 64
3, 197280, Note_on_c, 0, 72, 92
3, 197400, Note_off_c, 0, 72, 64
3, 197400, Note_on_c, 0, 71, 92
3, 197460, Note_off_c, 0, 71, 64
3, 197460, Note_on_c, 0, 69, 92
3, 197515, Note_off_c, 0, 69, 64
3, 197520, Note_on_c, 0, 69, 92
3, 197640, Note_off_c, 0, 69, 64
3, 197640, Note_on_c, 0, 71, 92
3, 197700, Note_off_c, 0, 71, 64
3, 197700, Note_on_c, 0, 72, 92
3, 197755, Note_off_c, 0, 72, 64
3, 197760, Note_on_c, 0, 71, 92
3, 197880, Note_off_c, 0, 71, 64
3, 197880, Note_on_c, 0, 72, 92
3, 197940, Note_off_c, 0, 72, 64
3, 197940, Note_on_c, 0, 74, 92
3, 197995, Note_off_c, 0, 74, 64
3, 198000, Note_on_c, 0, 74, 92
3, 198120, Note_off_c, 0, 74, 64
3, 198120, Note_on_c, 0, 75, 92
3, 198180, Note_off_c, 0, 75, 64
3, 198180, Note_on_c, 0, 77, 92
3, 198235, Note_off_c, 0, 77, 64
3, 198240, Note_on_c, 0, 75, 92
3, 198360, Note_off_c, 0, 75, 64
3, 198360, Note_on_c, 0, 77, 92
3, 198420, Note_off_c, 0, 77, 64
3, 198420, Note_on_c, 0, 79, 92
3, 198475, Note_off_c, 0, 79, 64
3, 198480, Note_on_c, 0, 79, 92
3, 198600, Note_off_c, 0, 79, 64
3, 198600, Note_on_c, 0, 80, 92
3, 198660, Note_off_c, 0, 80, 64
3, 198660, Note_on_c, 0, 82, 92
3, 198715, Note_off_c, 0, 82, 64
3, 198720, Note_on_c, 0, 80, 92
3, 198840, Note_off_c, 0, 80, 64
3, 198840, Note_on_c, 0, 79, 92
3, 198900, Note_off_c, 0, 79, 64
3, 198900, Note_on_c, 0, 77, 92
3, 198955, Note_off_c, 0, 77, 64
3, 198960, Note_on_c, 0, 77, 92
3, 199080, Note_off_c, 0, 77, 64
3, 199080, Note_on_c, 0, 75, 92
3, 199140, Note_off_c, 0, 75, 64
3, 199140, Note_on_c, 0, 74, 92
3, 199195, Note_off_c, 0, 74, 64
3, 199200, Note_on_c, 0, 74, 92
3, 199320, Note_off_c, 0, 74, 64
3, 199320, Note_on_c, 0, 75, 92
3, 199380, Note_off_c, 0, 75, 64
3, 199380, Note_on_c, 0, 77, 92
3, 199435, Note_off_c, 0, 77, 64
3, 199440, Note_on_c, 0, 77, 92
3, 199560, Note_off_c, 0, 77, 64
3, 199560, Note_on_c, 0, 79, 92
3, 199620, Note_off_c, 0, 79, 64
3, 199620, Note_on_c, 0, 80, 92
3, 199675, Note_off_c, 0, 80, 64
3, 199680, Note_on_c, 0, 71, 92
3, 199710, Note_off_c, 0, 71, 64
3, 199710, Note_on_c, 0, 72, 92
3, 199740, Note_off_c, 0, 72, 64
3, 199740, Note_on_c, 0, 71, 92
3, 199770, Note_off_c, 0, 71, 64
3, 199770, Note_on_c, 0, 72, 92
3, 199800, Note_off_c, 0, 72, 64
3, 199800, Note_on_c, 0, 71, 92
3, 199830, Note_off_c, 0, 71, 64
3, 199830, Note_on_c, 0, 72, 92
3, 199860, Note_off_c, 0, 72, 64
3, 199860, Note_on_c, 0, 71, 92
3, 199890, Note_off_c, 0, 71, 64
3, 199890, Note_on_c, 0, 72, 92
3, 199920, Note_off_c, 0, 72, 64
3, 199920, Note_on_c, 0, 71, 92
3, 199950, Note_off_c, 0, 71, 64
3, 199950, Note_on_c, 0, 72, 92
3, 199980, Note_off_c, 0, 72, 64
3, 199980, Note_on_c, 0, 71, 92
3, 200010, Note_off_c, 0, 71, 64
3, 200010, Note_on_c, 0, 72, 92
3, 200040, Note_off_c, 0, 72, 64
3, 200040, Note_on_c, 0, 71, 92
3, 200070, Note_off_c, 0, 71, 64
3, 200070, Note_on_c, 0, 72, 92
3, 200100, Note_off_c, 0, 72, 64
3, 200100, Note_on_c, 0, 71, 92
3, 200130, Note_off_c, 0, 71, 64
3, 200130, Note_on_c, 0, 72, 92
3, 200160, Note_off_c, 0, 72, 64
3, 200160, Note_on_c, 0, 71, 92
3, 200190, Note_off_c, 0, 71, 64
3, 200190, Note_on_c, 0, 72, 92
3, 200220, Note_off_c, 0, 72, 64
3, 200220, Note_on_c, 0, 71, 92
3, 200250, Note_off_c, 0, 71, 64
3, 200250, Note_on_c, 0, 72, 92
3, 200280, Note_off_c, 0, 72, 64
3, 200280, Note_on_c, 0, 71, 92
3, 200310, Note_off_c, 0, 71, 64
3, 200310, Note_on_c, 0, 72, 92
3, 200340, Note_off_c, 0, 72, 64
3, 200340, Note_on_c, 0, 71, 92
3, 200370, Note_off_c, 0, 71, 64
3, 200370, Note_on_c, 0, 72, 92
3, 200400, Note_off_c, 0, 72, 64
3, 200400, Note_on_c, 0, 71, 92
3, 200455, Note_off_c, 0, 71, 64
3, 200460, Note_on_c, 0, 84, 92
3, 200520, Note_off_c, 0, 84, 64
3, 200520, Note_on_c, 0, 82, 92
3, 200580, Note_off_c, 0, 82, 64
3, 200580, Note_on_c, 0, 80, 92
3, 200635, Note_off_c, 0, 80, 64
3, 200640, Note_on_c, 0, 77, 92
3, 200700, Note_off_c, 0, 77, 64
3, 200700, Note_on_c, 0, 75, 92
3, 200760, Note_off_c, 0, 75, 64
3, 200760, Note_on_c, 0, 74, 92
3, 200815, Note_off_c, 0, 74, 64
3, 200820, Note_on_c, 0, 74, 92
3, 200880, Note_off_c, 0, 74, 64
3, 200880, Note_on_c, 0, 72, 92
3, 200940, Note_off_c, 0, 72, 64
3, 200940, Note_on_c, 0, 71, 92
3, 200995, Note_off_c, 0, 71, 64
3, 201000, Note_on_c, 0, 71, 92
3, 201060, Note_off_c, 0, 71, 64
3, 201060, Note_on_c, 0, 72, 92
3, 201120, Note_off_c, 0, 72, 64
3, 201120, Note_on_c, 0, 74, 92
3, 201175, Note_off_c, 0, 74, 64
3, 201180, Note_on_c, 0, 74, 92
3, 201240, Note_off_c, 0, 74, 64
3, 201240, Note_on_c, 0, 75, 92
3, 201300, Note_off_c, 0, 75, 64
3, 201300, Note_on_c, 0, 77, 92
3, 201355, Note_off_c, 0, 77, 64
3, 201360, Note_on_c, 0, 77, 92
3, 201480, Note_off_c, 0, 77, 64
3, 201480, Note_on_c, 0, 79, 92
3, 201540, Note_off_c, 0, 79, 64
3, 201540, Note_on_c, 0, 80, 92
3, 201595, Note_off_c, 0, 80, 64
3, 201600, Note_on_c, 0, 83, 92
3, 201960, Note_off_c, 0, 83, 64
3, 201960, Note_on_c, 0, 81, 92
3, 202080, Note_off_c, 0, 81, 64
3, 202080, Note_on_c, 0, 83, 92
3, 202480, Note_off_c, 0, 83, 64
3, 204720, Note_on_c, 0, 79, 92
3, 204840, Note_off_c, 0, 79, 64
3, 204840, Note_on_c, 0, 77, 92
3, 204900, Note_off_c, 0, 77, 64
3, 204900, Note_on_c, 0, 75, 92
3, 204955, Note_off_c, 0, 75, 64
3, 204960, Note_on_c, 0, 72, 92
3, 205080, Note_off_c, 0, 72, 64
3, 205080, Note_on_c, 0, 71, 92
3, 205140, Note_off_c, 0, 71, 64
3, 205140, Note_on_c, 0, 68, 92
3, 205195, Note_off_c, 0, 68, 64
3, 205200, Note_on_c, 0, 80, 92
3, 205320, Note_off_c, 0, 80, 64
3, 205320, Note_on_c, 0, 79, 92
3, 205380, Note_off_c, 0, 79, 64
3, 205380, Note_on_c, 0, 77, 92
3, 205435, Note_off_c, 0, 77, 64
3, 205440, Note_on_c, 0, 77, 92
3, 205560, Note_off_c, 0, 77, 64
3, 205560, Note_on_c, 0, 75, 92
3, 205620, Note_off_c, 0, 75, 64
3, 205620, Note_on_c, 0, 74, 92
3, 205675, Note_off_c, 0, 74, 64
3, 205680, Note_on_c, 0, 74, 92
3, 205800, Note_off_c, 0, 74, 64
3, 205800, Note_on_c, 0, 72, 92
3, 205860, Note_off_c, 0, 72, 64
3, 205860, Note_on_c, 0, 71, 92
3, 205915, Note_off_c, 0, 71, 64
3, 205920, Note_on_c, 0, 71, 92
3, 206040, Note_off_c, 0, 71, 64
3, 206040, Note_on_c, 0, 68, 92
3, 206100, Note_off_c, 0, 68, 64
3, 206100, Note_on_c, 0, 67, 92
3, 206155, Note_off_c, 0, 67, 64
3, 206160, Note_on_c, 0, 67, 92
3, 206280, Note_off_c, 0, 67, 64
3, 206280, Note_on_c, 0, 68, 92
3, 206340, Note_off_c, 0, 68, 64
3, 206340, Note_on_c, 0, 71, 92
3, 206395, Note_off_c, 0, 71, 64
3, 206400, Note_on_c, 0, 71, 92
3, 206520, Note_off_c, 0, 71, 64
3, 206520, Note_on_c, 0, 72, 92
3, 206580, Note_off_c, 0, 72, 64
3, 206580, Note_on_c, 0, 74, 92
3, 206635, Note_off_c, 0, 74, 64
3, 206640, Note_on_c, 0, 74, 92
3, 206760, Note_off_c, 0, 74, 64
3, 206760, Note_on_c, 0, 75, 92
3, 206820, Note_off_c, 0, 75, 64
3, 206820, Note_on_c, 0, 77, 92
3, 206875, Note_off_c, 0, 77, 64
3, 206880, Note_on_c, 0, 83, 92
3, 206910, Note_off_c, 0, 83, 64
3, 206910, Note_on_c, 0, 84, 92
3, 206940, Note_off_c, 0, 84, 64
3, 206940, Note_on_c, 0, 83, 92
3, 206970, Note_off_c, 0, 83, 64
3, 206970, Note_on_c, 0, 84, 92
3, 207000, Note_off_c, 0, 84, 64
3, 207000, Note_on_c, 0, 83, 92
3, 207030, Note_off_c, 0, 83, 64
3, 207030, Note_on_c, 0, 84, 92
3, 207060, Note_off_c, 0, 84, 64
3, 207060, Note_on_c, 0, 83, 92
3, 207090, Note_off_c, 0, 83, 64
3, 207090, Note_on_c, 0, 84, 92
3, 207120, Note_off_c, 0, 84, 64
3, 207120, Note_on_c, 0, 83, 92
3, 207150, Note_off_c, 0, 83, 64
3, 207150, Note_on_c, 0, 84, 92
3, 207180, Note_off_c, 0, 84, 64
3, 207180, Note_on_c, 0, 83, 92
3, 207210, Note_off_c, 0, 83, 64
3, 207210, Note_on_c, 0, 84, 92
3, 207240, Note_off_c, 0, 84, 64
3, 207240, Note_on_c, 0, 83, 92
3, 207270, Note_off_c, 0, 83, 64
3, 207270, Note_on_c, 0, 84, 92
3, 207300, Note_off_c, 0, 84, 64
3, 207300, Note_on_c, 0, 83, 92
3, 207330, Note_off_c, 0, 83, 64
3, 207330, Note_on_c, 0, 84, 92
3, 207360, Note_off_c, 0, 84, 64
3, 207360, Note_on_c, 0, 84, 92
3, 207475, Note_off_c, 0, 84, 64
3, 207480, Note_on_c, 0, 82, 94
3, 207540, Note_off_c, 0, 82, 64
3, 207540, Note_on_c, 0, 80, 95
3, 207595, Note_off_c, 0, 80, 64
3, 207600, Note_on_c, 0, 79, 96
3, 207720, Note_off_c, 0, 79, 64
3, 207720, Note_on_c, 0, 77, 98
3, 207780, Note_off_c, 0, 77, 64
3, 207780, Note_on_c, 0, 75, 99
3, 207835, Note_off_c, 0, 75, 64
3, 207840, Note_on_c, 0, 75, 100
3, 207960, Note_off_c, 0, 75, 64
3, 207960, Note_on_c, 0, 74, 102
3, 208020, Note_off_c, 0, 74, 64
3, 208020, Note_on_c, 0, 72, 103
3, 208075, Note_off_c, 0, 72, 64
3, 208080, Note_on_c, 0, 72, 104
3, 208195, Note_off_c, 0, 72, 64
3, 208320, Note_on_c, 0, 67, 108
3, 209035, Note_off_c, 0, 67, 64
3, 209040, Note_on_c, 0, 71, 108
3, 209160, Note_off_c, 0, 71, 64
3, 209160, Note_on_c, 0, 69, 108
3, 209280, Note_off_c, 0, 69, 64
3, 209280, Note_on_c, 0, 71, 108
3, 209515, Note_off_c, 0, 71, 64
3, 209520, Note_on_c, 0, 72, 108
3, 209640, Note_off_c, 0, 72, 64
3, 209640, Note_on_c, 0, 74, 108
3, 209760, Note_off_c, 0, 74, 64
3, 209760, Note_on_c, 0, 75, 108
3, 210000, Note_off_c, 0, 75, 64
3, 210000, Note_on_c, 0, 72, 108
3, 210235, Note_off_c, 0, 72, 64
3, 210240, Note_on_c, 0, 70, 108
3, 210360, Note_off_c, 0, 70, 64
3, 210360, Note_on_c, 0, 68, 108
3, 210480, Note_off_c, 0, 68, 64
3, 210480, Note_on_c, 0, 74, 108
3, 210600, Note_off_c, 0, 74, 64
3, 210600, Note_on_c, 0, 72, 108
3, 210720, Note_off_c, 0, 72, 64
3, 210720, Note_on_c, 0, 74, 108
3, 210955, Note_off_c, 0, 74, 64
3, 210960, Note_on_c, 0, 75, 108
3, 211080, Note_off_c, 0, 75, 64
3, 211080, Note_on_c, 0, 77, 108
3, 211200, Note_off_c, 0, 77, 64
3, 211200, Note_on_c, 0, 71, 108
3, 211915, Note_off_c, 0, 71, 64
3, 211920, Note_on_c, 0, 72, 108
3, 212040, Note_off_c, 0, 72, 64
3, 212040, Note_on_c, 0, 71, 108
3, 212160, Note_off_c, 0, 71, 64
3, 212160, Note_on_c, 0, 72, 108
3, 212395, Note_off_c, 0, 72, 64
3, 212400, Note_on_c, 0, 74, 108
3, 212520, Note_off_c, 0, 74, 64
3, 212520, Note_on_c, 0, 75, 108
3, 212640, Note_off_c, 0, 75, 64
3, 212640, Note_on_c, 0, 77, 108
3, 213355, Note_off_c, 0, 77, 64
3, 213360, Note_on_c, 0, 75, 108
3, 213480, Note_off_c, 0, 75, 64
3, 213480, Note_on_c, 0, 74, 108
3, 213600, Note_off_c, 0, 74, 64
3, 213600, Note_on_c, 0, 75, 108
3, 213835, Note_off_c, 0, 75, 64
3, 213840, Note_on_c, 0, 77, 108
3, 213960, Note_off_c, 0, 77, 64
3, 213960, Note_on_c, 0, 79, 108
3, 214080, Note_off_c, 0, 79, 64
3, 214080, Note_on_c, 0, 74, 108
3, 214795, Note_off_c, 0, 74, 64
3, 214800, Note_on_c, 0, 72, 108
3, 214920, Note_off_c, 0, 72, 64
3, 214920, Note_on_c, 0, 71, 108
3, 215040, Note_off_c, 0, 71, 64
3, 215040, Note_on_c, 0, 72, 108
3, 215275, Note_off_c, 0, 72, 64
3, 215280, Note_on_c, 0, 74, 108
3, 215400, Note_off_c, 0, 74, 64
3, 215400, Note_on_c, 0, 75, 108
3, 215520, Note_off_c, 0, 75, 64
3, 215520, Note_on_c, 0, 77, 108
3, 216235, Note_off_c, 0, 77, 64
3, 216240, Note_on_c, 0, 75, 108
3, 216360, Note_off_c, 0, 75, 64
3, 216360, Note_on_c, 0, 74, 108
3, 216480, Note_off_c, 0, 74, 64
3, 216480, Note_on_c, 0, 75, 108
3, 216715, Note_off_c, 0, 75, 64
3, 216720, Note_on_c, 0, 77, 108
3, 216840, Note_off_c, 0, 77, 64
3, 216840, Note_on_c, 0, 79, 108
3, 216960, Note_off_c, 0, 79, 64
3, 216960, Note_on_c, 0, 80, 108
3, 217675, Note_off_c, 0, 80, 64
3, 217680, Note_on_c, 0, 79, 108
3, 217800, Note_off_c, 0, 79, 64
3, 217800, Note_on_c, 0, 77, 108
3, 217920, Note_off_c, 0, 77, 64
3, 217920, Note_on_c, 0, 79, 108
3, 218155, Note_off_c, 0, 79, 64
3, 218160, Note_on_c, 0, 77, 108
3, 218280, Note_off_c, 0, 77, 64
3, 218280, Note_on_c, 0, 75, 108
3, 218400, Note_off_c, 0, 75, 64
3, 218400, Note_on_c, 0, 75, 108
3, 218635, Note_off_c, 0, 75, 64
3, 218640, Note_on_c, 0, 74, 108
3, 218760, Note_off_c, 0, 74, 64
3, 218760, Note_on_c, 0, 72, 108
3, 218880, Note_off_c, 0, 72, 64
3, 218880, Note_on_c, 0, 72, 108
3, 219520, Note_off_c, 0, 72, 64
3, 219600, Note_on_c, 0, 84, 108
3, 219720, Note_off_c, 0, 84, 64
3, 219720, Note_on_c, 0, 83, 108
3, 219840, Note_off_c, 0, 83, 64
3, 219840, Note_on_c, 0, 84, 108
3, 220075, Note_off_c, 0, 84, 64
3, 220080, Note_on_c, 0, 72, 108
3, 220915, Note_off_c, 0, 72, 64
3, 220920, Note_on_c, 0, 74, 108
3, 221040, Note_off_c, 0, 74, 64
3, 221040, Note_on_c, 0, 72, 108
3, 221160, Note_off_c, 0, 72, 64
3, 221160, Note_on_c, 0, 71, 108
3, 221280, Note_off_c, 0, 71, 64
3, 221280, Note_on_c, 0, 72, 108
3, 221875, Note_off_c, 0, 72, 64
3, 221880, Note_on_c, 0, 74, 108
3, 222000, Note_off_c, 0, 74, 64
3, 222000, Note_on_c, 0, 72, 108
3, 222120, Note_off_c, 0, 72, 64
3, 222120, Note_on_c, 0, 71, 108
3, 222240, Note_off_c, 0, 71, 64
3, 222240, Note_on_c, 0, 72, 108
3, 222835, Note_off_c, 0, 72, 64
3, 222840, Note_on_c, 0, 74, 108
3, 222960, Note_off_c, 0, 74, 64
3, 222960, Note_on_c, 0, 72, 108
3, 223080, Note_off_c, 0, 72, 64
3, 223080, Note_on_c, 0, 71, 108
3, 223200, Note_off_c, 0, 71, 64
3, 223200, Note_on_c, 0, 72, 108
3, 223795, Note_off_c, 0, 72, 64
3, 223800, Note_on_c, 0, 74, 108
3, 223920, Note_off_c, 0, 74, 64
3, 223920, Note_on_c, 0, 72, 108
3, 224040, Note_off_c, 0, 72, 64
3, 224040, Note_on_c, 0, 71, 108
3, 224160, Note_off_c, 0, 71, 64
3, 224160, Note_on_c, 0, 72, 108
3, 224755, Note_off_c, 0, 72, 64
3, 224760, Note_on_c, 0, 74, 108
3, 224880, Note_off_c, 0, 74, 64
3, 224880, Note_on_c, 0, 72, 108
3, 225000, Note_off_c, 0, 72, 64
3, 225000, Note_on_c, 0, 71, 108
3, 225120, Note_off_c, 0, 71, 64
3, 225120, Note_on_c, 0, 72, 108
3, 225355, Note_off_c, 0, 72, 64
3, 225360, Note_on_c, 0, 71, 108
3, 225480, Note_off_c, 0, 71, 64
3, 225480, Note_on_c, 0, 69, 108
3, 225600, Note_off_c, 0, 69, 64
3, 225600, Note_on_c, 0, 71, 108
3, 226195, Note_off_c, 0, 71, 64
3, 226200, Note_on_c, 0, 74, 108
3, 226320, Note_off_c, 0, 74, 64
3, 226320, Note_on_c, 0, 72, 108
3, 226440, Note_off_c, 0, 72, 64
3, 226440, Note_on_c, 0, 71, 108
3, 226560, Note_off_c, 0, 71, 64
3, 226560, Note_on_c, 0, 72, 108
3, 226915, Note_off_c, 0, 72, 64
3, 226920, Note_on_c, 0, 75, 108
3, 227040, Note_off_c, 0, 75, 64
3, 227040, Note_on_c, 0, 74, 108
3, 227160, Note_off_c, 0, 74, 64
3, 227160, Note_on_c, 0, 77, 108
3, 227280, Note_off_c, 0, 77, 64
3, 227280, Note_on_c, 0, 75, 108
3, 227400, Note_off_c, 0, 75, 64
3, 227400, Note_on_c, 0, 74, 108
3, 227520, Note_off_c, 0, 74, 64
3, 227520, Note_on_c, 0, 75, 108
3, 228115, Note_off_c, 0, 75, 64
3, 228120, Note_on_c, 0, 79, 108
3, 228240, Note_off_c, 0, 79, 64
3, 228240, Note_on_c, 0, 77, 108
3, 228360, Note_off_c, 0, 77, 64
3, 228360, Note_on_c, 0, 75, 108
3, 228475, Note_off_c, 0, 75, 64
3, 228480, Note_on_c, 0, 80, 108
3, 228880, Note_off_c, 0, 80, 64
3, 228960, Note_on_c, 0, 74, 108
3, 229555, Note_off_c, 0, 74, 64
3, 229560, Note_on_c, 0, 75, 108
3, 229680, Note_off_c, 0, 75, 64
3, 229680, Note_on_c, 0, 74, 108
3, 229800, Note_off_c, 0, 74, 64
3, 229800, Note_on_c, 0, 72, 108
3, 230035, Note_off_c, 0, 72, 64
3, 230040, Note_on_c, 0, 74, 108
3, 230160, Note_off_c, 0, 74, 64
3, 230160, Note_on_c, 0, 72, 108
3, 230280, Note_off_c, 0, 72, 64
3, 230280, Note_on_c, 0, 71, 108
3, 230400, Note_off_c, 0, 71, 64
3, 230400, Note_on_c, 0, 72, 108
3, 230800, Note_off_c, 0, 72, 64
3, 231600, Note_on_c, 0, 75, 108
3, 231960, Note_off_c, 0, 75, 64
3, 231960, Note_on_c, 0, 77, 108
3, 232080, Note_off_c, 0, 77, 64
3, 232080, Note_on_c, 0, 75, 108
3, 232200, Note_off_c, 0, 75, 64
3, 232200, Note_on_c, 0, 74, 108
3, 232320, Note_off_c, 0, 74, 64
3, 232320, Note_on_c, 0, 75, 108
3, 232915, Note_off_c, 0, 75, 64
3, 232920, Note_on_c, 0, 77, 108
3, 233040, Note_off_c, 0, 77, 64
3, 233040, Note_on_c, 0, 75, 108
3, 233160, Note_off_c, 0, 75, 64
3, 233160, Note_on_c, 0, 74, 108
3, 233280, Note_off_c, 0, 74, 64
3, 233280, Note_on_c, 0, 75, 108
3, 233875, Note_off_c, 0, 75, 64
3, 233880, Note_on_c, 0, 77, 108
3, 234000, Note_off_c, 0, 77, 64
3, 234000, Note_on_c, 0, 75, 108
3, 234120, Note_off_c, 0, 75, 64
3, 234120, Note_on_c, 0, 74, 108
3, 234240, Note_off_c, 0, 74, 64
3, 234240, Note_on_c, 0, 75, 108
3, 234835, Note_off_c, 0, 75, 64
3, 234840, Note_on_c, 0, 77, 108
3, 234960, Note_off_c, 0, 77, 64
3, 234960, Note_on_c, 0, 75, 108
3, 235080, Note_off_c, 0, 75, 64
3, 235080, Note_on_c, 0, 74, 108
3, 235200, Note_off_c, 0, 74, 64
3, 235200, Note_on_c, 0, 75, 108
3, 235795, Note_off_c, 0, 75, 64
3, 235800, Note_on_c, 0, 77, 108
3, 235920, Note_off_c, 0, 77, 64
3, 235920, Note_on_c, 0, 75, 108
3, 236040, Note_off_c, 0, 75, 64
3, 236040, Note_on_c, 0, 74, 108
3, 236160, Note_off_c, 0, 74, 64
3, 236160, Note_on_c, 0, 75, 108
3, 236755, Note_off_c, 0, 75, 64
3, 236760, Note_on_c, 0, 79, 108
3, 236880, Note_off_c, 0, 79, 64
3, 236880, Note_on_c, 0, 77, 108
3, 237000, Note_off_c, 0, 77, 64
3, 237000, Note_on_c, 0, 75, 108
3, 237120, Note_off_c, 0, 75, 64
3, 237120, Note_on_c, 0, 74, 108
3, 237360, Note_off_c, 0, 74, 64
3, 237360, Note_on_c, 0, 80, 108
3, 237595, Note_off_c, 0, 80, 64
3, 237600, Note_on_c, 0, 79, 108
3, 238195, Note_off_c, 0, 79, 64
3, 238200, Note_on_c, 0, 80, 108
3, 238320, Note_off_c, 0, 80, 64
3, 238320, Note_on_c, 0, 79, 108
3, 238440, Note_off_c, 0, 79, 64
3, 238440, Note_on_c, 0, 77, 108
3, 238560, Note_off_c, 0, 77, 64
3, 238560, Note_on_c, 0, 79, 108
3, 239155, Note_off_c, 0, 79, 64
3, 239160, Note_on_c, 0, 80, 108
3, 239280, Note_off_c, 0, 80, 64
3, 239280, Note_on_c, 0, 79, 108
3, 239400, Note_off_c, 0, 79, 64
3, 239400, Note_on_c, 0, 77, 108
3, 239520, Note_off_c, 0, 77, 64
3, 239520, Note_on_c, 0, 75, 108
3, 240115, Note_off_c, 0, 75, 64
3, 240120, Note_on_c, 0, 77, 108
3, 240240, Note_off_c, 0, 77, 64
3, 240240, Note_on_c, 0, 75, 108
3, 240360, Note_off_c, 0, 75, 64
3, 240360, Note_on_c, 0, 74, 108
3, 240480, Note_off_c, 0, 74, 64
3, 240480, Note_on_c, 0, 75, 108
3, 241075, Note_off_c, 0, 75, 64
3, 241080, Note_on_c, 0, 77, 108
3, 241200, Note_off_c, 0, 77, 64
3, 241200, Note_on_c, 0, 75, 108
3, 241320, Note_off_c, 0, 75, 64
3, 241320, Note_on_c, 0, 74, 108
3, 241440, Note_off_c, 0, 74, 64
3, 241440, Note_on_c, 0, 75, 75
3, 241560, Note_off_c, 0, 75, 64
3, 241560, Note_on_c, 0, 77, 75
3, 241680, Note_off_c, 0, 77, 64
3, 241680, Note_on_c, 0, 75, 75
3, 241800, Note_off_c, 0, 75, 64
3, 241800, Note_on_c, 0, 74, 75
3, 241920, Note_off_c, 0, 74, 64
3, 241920, Note_on_c, 0, 72, 60
3, 242040, Note_off_c, 0, 72, 64
3, 242040, Note_on_c, 0, 74, 60
3, 242160, Note_off_c, 0, 74, 64
3, 242160, Note_on_c, 0, 72, 60
3, 242280, Note_off_c, 0, 72, 64
3, 242280, Note_on_c, 0, 71, 60
3, 242400, Note_off_c, 0, 71, 64
3, 242400, Note_on_c, 0, 72, 60
3, 242520, Note_off_c, 0, 72, 64
3, 242520, Note_on_c, 0, 71, 60
3, 242640, Note_off_c, 0, 71, 64
3, 242640, Note_on_c, 0, 72, 60
3, 242760, Note_off_c, 0, 72, 64
3, 242760, Note_on_c, 0, 74, 60
3, 242880, Note_off_c, 0, 74, 64
3, 242880, Note_on_c, 0, 75, 60
3, 243280, Note_off_c, 0, 75, 64
3, 250800, Note_on_c, 0, 70, 60
3, 251040, Note_off_c, 0, 70, 64
3, 251040, Note_on_c, 0, 66, 60
3, 251275, Note_off_c, 0, 66, 64
3, 251280, Note_on_c, 0, 66, 60
3, 251520, Note_off_c, 0, 66, 64
3, 251520, Note_on_c, 0, 67, 60
3, 251920, Note_off_c, 0, 67, 64
3, 252240, Note_on_c, 0, 75, 60
3, 252480, Note_off_c, 0, 75, 64
3, 252480, Note_on_c, 0, 69, 60
3, 252715, Note_off_c, 0, 69, 64
3, 252720, Note_on_c, 0, 69, 60
3, 252960, Note_off_c, 0, 69, 64
3, 252960, Note_on_c, 0, 71, 60
3, 253360, Note_off_c, 0, 71, 64
3, 253680, Note_on_c, 0, 72, 60
3, 253920, Note_off_c, 0, 72, 64
3, 253920, Note_on_c, 0, 67, 60
3, 254155, Note_off_c, 0, 67, 64
3, 254160, Note_on_c, 0, 67, 60
3, 254400, Note_off_c, 0, 67, 64
3, 254400, Note_on_c, 0, 69, 60
3, 254800, Note_off_c, 0, 69, 64
3, 255120, Note_on_c, 0, 70, 60
3, 255360, Note_off_c, 0, 70, 64
3, 255360, Note_on_c, 0, 66, 60
3, 255595, Note_off_c, 0, 66, 64
3, 255600, Note_on_c, 0, 66, 60
3, 255840, Note_off_c, 0, 66, 64
3, 255840, Note_on_c, 0, 67, 60
3, 256240, Note_off_c, 0, 67, 64
3, 260880, Note_on_c, 0, 75, 60
3, 261120, Note_off_c, 0, 75, 64
3, 261120, Note_on_c, 0, 71, 60
3, 261355, Note_off_c, 0, 71, 64
3, 261360, Note_on_c, 0, 71, 60
3, 261600, Note_off_c, 0, 71, 64
3, 261600, Note_on_c, 0, 72, 60
3, 262000, Note_off_c, 0, 72, 64
3, 262320, Note_on_c, 0, 80, 60
3, 262560, Note_off_c, 0, 80, 64
3, 262560, Note_on_c, 0, 74, 60
3, 262795, Note_off_c, 0, 74, 64
3, 262800, Note_on_c, 0, 74, 60
3, 263040, Note_off_c, 0, 74, 64
3, 263040, Note_on_c, 0, 76, 60
3, 263440, Note_off_c, 0, 76, 64
3, 263760, Note_on_c, 0, 77, 60
3, 264000, Note_off_c, 0, 77, 64
3, 264000, Note_on_c, 0, 72, 60
3, 264235, Note_off_c, 0, 72, 64
3, 264240, Note_on_c, 0, 72, 60
3, 264480, Note_off_c, 0, 72, 64
3, 264480, Note_on_c, 0, 74, 60
3, 264880, Note_off_c, 0, 74, 64
3, 265200, Note_on_c, 0, 75, 60
3, 265440, Note_off_c, 0, 75, 64
3, 265440, Note_on_c, 0, 71, 60
3, 265675, Note_off_c, 0, 71, 64
3, 265680, Note_on_c, 0, 71, 60
3, 265920, Note_off_c, 0, 71, 64
3, 265920, Note_on_c, 0, 79, 60
3, 266040, Note_off_c, 0, 79, 64
3, 266040, Note_on_c, 0, 80, 60
3, 266160, Note_off_c, 0, 80, 64
3, 266160, Note_on_c, 0, 77, 60
3, 266280, Note_off_c, 0, 77, 64
3, 266280, Note_on_c, 0, 79, 60
3, 266400, Note_off_c, 0, 79, 64
3, 266400, Note_on_c, 0, 75, 60
3, 266520, Note_off_c, 0, 75, 64
3, 266520, Note_on_c, 0, 77, 60
3, 266640, Note_off_c, 0, 77, 64
3, 266640, Note_on_c, 0, 74, 60
3, 266760, Note_off_c, 0, 74, 64
3, 266760, Note_on_c, 0, 75, 60
3, 266880, Note_off_c, 0, 75, 64
3, 266880, Note_on_c, 0, 72, 60
3, 267000, Note_off_c, 0, 72, 64
3, 267000, Note_on_c, 0, 74, 60
3, 267120, Note_off_c, 0, 74, 64
3, 267120, Note_on_c, 0, 70, 60
3, 267240, Note_off_c, 0, 70, 64
3, 267240, Note_on_c, 0, 72, 60
3, 267355, Note_off_c, 0, 72, 64
3, 267360, Note_on_c, 0, 69, 60
3, 267480, Note_off_c, 0, 69, 64
3, 267480, Note_on_c, 0, 70, 60
3, 267600, Note_off_c, 0, 70, 64
3, 267600, Note_on_c, 0, 67, 60
3, 267720, Note_off_c, 0, 67, 64
3, 267720, Note_on_c, 0, 69, 60
3, 267840, Note_off_c, 0, 69, 64
3, 267840, Note_on_c, 0, 66, 60
3, 267960, Note_off_c, 0, 66, 64
3, 267960, Note_on_c, 0, 69, 60
3, 268080, Note_off_c, 0, 69, 64
3, 268080, Note_on_c, 0, 67, 60
3, 268200, Note_off_c, 0, 67, 64
3, 268200, Note_on_c, 0, 70, 60
3, 268320, Note_off_c, 0, 70, 64
3, 268320, Note_on_c, 0, 69, 60
3, 268440, Note_off_c, 0, 69, 64
3, 268440, Note_on_c, 0, 74, 60
3, 268560, Note_off_c, 0, 74, 64
3, 268560, Note_on_c, 0, 72, 60
3, 268680, Note_off_c, 0, 72, 64
3, 268680, Note_on_c, 0, 74, 60
3, 268795, Note_off_c, 0, 74, 64
3, 268800, Note_on_c, 0, 67, 60
3, 268920, Note_off_c, 0, 67, 64
3, 268920, Note_on_c, 0, 79, 60
3, 269040, Note_off_c, 0, 79, 64
3, 269040, Note_on_c, 0, 77, 60
3, 269160, Note_off_c, 0, 77, 64
3, 269160, Note_on_c, 0, 79, 60
3, 269280, Note_off_c, 0, 79, 64
3, 269280, Note_on_c, 0, 75, 60
3, 269400, Note_off_c, 0, 75, 64
3, 269400, Note_on_c, 0, 79, 60
3, 269520, Note_off_c, 0, 79, 64
3, 269520, Note_on_c, 0, 75, 60
3, 269640, Note_off_c, 0, 75, 64
3, 269640, Note_on_c, 0, 79, 60
3, 269760, Note_off_c, 0, 79, 64
3, 269760, Note_on_c, 0, 75, 60
3, 269880, Note_off_c, 0, 75, 64
3, 269880, Note_on_c, 0, 77, 60
3, 270000, Note_off_c, 0, 77, 64
3, 270000, Note_on_c, 0, 75, 60
3, 270120, Note_off_c, 0, 75, 64
3, 270120, Note_on_c, 0, 77, 60
3, 270235, Note_off_c, 0, 77, 64
3, 270240, Note_on_c, 0, 74, 60
3, 270360, Note_off_c, 0, 74, 64
3, 270360, Note_on_c, 0, 77, 60
3, 270480, Note_off_c, 0, 77, 64
3, 270480, Note_on_c, 0, 74, 60
3, 270600, Note_off_c, 0, 74, 64
3, 270600, Note_on_c, 0, 77, 60
3, 270720, Note_off_c, 0, 77, 64
3, 270720, Note_on_c, 0, 72, 60
3, 270840, Note_off_c, 0, 72, 64
3, 270840, Note_on_c, 0, 75, 60
3, 270960, Note_off_c, 0, 75, 64
3, 270960, Note_on_c, 0, 74, 60
3, 271080, Note_off_c, 0, 74, 64
3, 271080, Note_on_c, 0, 77, 60
3, 271200, Note_off_c, 0, 77, 64
3, 271200, Note_on_c, 0, 75, 60
3, 271320, Note_off_c, 0, 75, 64
3, 271320, Note_on_c, 0, 77, 60
3, 271440, Note_off_c, 0, 77, 64
3, 271440, Note_on_c, 0, 75, 60
3, 271560, Note_off_c, 0, 75, 64
3, 271560, Note_on_c, 0, 77, 60
3, 271675, Note_off_c, 0, 77, 64
3, 271680, Note_on_c, 0, 75, 60
3, 271800, Note_off_c, 0, 75, 64
3, 271800, Note_on_c, 0, 77, 60
3, 271920, Note_off_c, 0, 77, 64
3, 271920, Note_on_c, 0, 75, 60
3, 272040, Note_off_c, 0, 75, 64
3, 272040, Note_on_c, 0, 77, 60
3, 272160, Note_off_c, 0, 77, 64
3, 272160, Note_on_c, 0, 74, 60
3, 272280, Note_off_c, 0, 74, 64
3, 272280, Note_on_c, 0, 75, 60
3, 272400, Note_off_c, 0, 75, 64
3, 272400, Note_on_c, 0, 74, 60
3, 272520, Note_off_c, 0, 74, 64
3, 272520, Note_on_c, 0, 75, 60
3, 272640, Note_off_c, 0, 75, 64
3, 272640, Note_on_c, 0, 74, 60
3, 272760, Note_off_c, 0, 74, 64
3, 272760, Note_on_c, 0, 75, 60
3, 272880, Note_off_c, 0, 75, 64
3, 272880, Note_on_c, 0, 72, 60
3, 273000, Note_off_c, 0, 72, 64
3, 273000, Note_on_c, 0, 74, 60
3, 273115, Note_off_c, 0, 74, 64
3, 273120, Note_on_c, 0, 70, 60
3, 273240, Note_off_c, 0, 70, 64
3, 273240, Note_on_c, 0, 74, 60
3, 273360, Note_off_c, 0, 74, 64
3, 273360, Note_on_c, 0, 72, 60
3, 273480, Note_off_c, 0, 72, 64
3, 273480, Note_on_c, 0, 75, 60
3, 273600, Note_off_c, 0, 75, 64
3, 273600, Note_on_c, 0, 74, 60
3, 273835, Note_off_c, 0, 74, 64
3, 273840, Note_on_c, 0, 67, 60
3, 273960, Note_off_c, 0, 67, 64
3, 273960, Note_on_c, 0, 70, 60
3, 274080, Note_off_c, 0, 70, 64
3, 274080, Note_on_c, 0, 69, 60
3, 274200, Note_off_c, 0, 69, 64
3, 274200, Note_on_c, 0, 72, 60
3, 274320, Note_off_c, 0, 72, 64
3, 274320, Note_on_c, 0, 70, 60
3, 274440, Note_off_c, 0, 70, 64
3, 274440, Note_on_c, 0, 72, 60
3, 274555, Note_off_c, 0, 72, 64
3, 274560, Note_on_c, 0, 69, 60
3, 274590, Note_off_c, 0, 69, 64
3, 274590, Note_on_c, 0, 70, 60
3, 274620, Note_off_c, 0, 70, 64
3, 274620, Note_on_c, 0, 69, 60
3, 274650, Note_off_c, 0, 69, 64
3, 274650, Note_on_c, 0, 70, 60
3, 274680, Note_off_c, 0, 70, 64
3, 274680, Note_on_c, 0, 69, 60
3, 274710, Note_off_c, 0, 69, 64
3, 274710, Note_on_c, 0, 70, 60
3, 274740, Note_off_c, 0, 70, 64
3, 274740, Note_on_c, 0, 69, 60
3, 274770, Note_off_c, 0, 69, 64
3, 274770, Note_on_c, 0, 70, 60
3, 274800, Note_off_c, 0, 70, 64
3, 274800, Note_on_c, 0, 69, 60
3, 274830, Note_off_c, 0, 69, 64
3, 274830, Note_on_c, 0, 70, 60
3, 274860, Note_off_c, 0, 70, 64
3, 274860, Note_on_c, 0, 69, 60
3, 274890, Note_off_c, 0, 69, 64
3, 274890, Note_on_c, 0, 70, 60
3, 274920, Note_off_c, 0, 70, 64
3, 274920, Note_on_c, 0, 69, 60
3, 274950, Note_off_c, 0, 69, 64
3, 274950, Note_on_c, 0, 70, 60
3, 274980, Note_off_c, 0, 70, 64
3, 274980, Note_on_c, 0, 69, 60
3, 275010, Note_off_c, 0, 69, 64
3, 275010, Note_on_c, 0, 70, 60
3, 275040, Note_off_c, 0, 70, 64
3, 275040, Note_on_c, 0, 67, 60
3, 275155, Note_off_c, 0, 67, 64
3, 275160, Note_on_c, 0, 71, 61
3, 275280, Note_off_c, 0, 71, 64
3, 275280, Note_on_c, 0, 69, 63
3, 275400, Note_off_c, 0, 69, 64
3, 275400, Note_on_c, 0, 72, 65
3, 275520, Note_off_c, 0, 72, 64
3, 275520, Note_on_c, 0, 71, 67
3, 275640, Note_off_c, 0, 71, 64
3, 275640, Note_on_c, 0, 79, 69
3, 275760, Note_off_c, 0, 79, 64
3, 275760, Note_on_c, 0, 77, 71
3, 275880, Note_off_c, 0, 77, 64
3, 275880, Note_on_c, 0, 79, 73
3, 275995, Note_off_c, 0, 79, 64
3, 276000, Note_on_c, 0, 75, 75
3, 276120, Note_off_c, 0, 75, 64
3, 276120, Note_on_c, 0, 79, 75
3, 276240, Note_off_c, 0, 79, 64
3, 276240, Note_on_c, 0, 77, 75
3, 276360, Note_off_c, 0, 77, 64
3, 276360, Note_on_c, 0, 80, 75
3, 276480, Note_off_c, 0, 80, 64
3, 276480, Note_on_c, 0, 71, 75
3, 276600, Note_off_c, 0, 71, 64
3, 276600, Note_on_c, 0, 74, 75
3, 276720, Note_off_c, 0, 74, 64
3, 276720, Note_on_c, 0, 72, 75
3, 276840, Note_off_c, 0, 72, 64
3, 276840, Note_on_c, 0, 75, 75
3, 276960, Note_off_c, 0, 75, 64
3, 276960, Note_on_c, 0, 74, 75
3, 277080, Note_off_c, 0, 74, 64
3, 277080, Note_on_c, 0, 75, 75
3, 277200, Note_off_c, 0, 75, 64
3, 277200, Note_on_c, 0, 74, 75
3, 277320, Note_off_c, 0, 74, 64
3, 277320, Note_on_c, 0, 75, 75
3, 277435, Note_off_c, 0, 75, 64
3, 277440, Note_on_c, 0, 72, 75
3, 277560, Note_off_c, 0, 72, 64
3, 277560, Note_on_c, 0, 75, 75
3, 277680, Note_off_c, 0, 75, 64
3, 277680, Note_on_c, 0, 74, 75
3, 277800, Note_off_c, 0, 74, 64
3, 277800, Note_on_c, 0, 75, 75
3, 277920, Note_off_c, 0, 75, 64
3, 277920, Note_on_c, 0, 72, 75
3, 278320, Note_off_c, 0, 72, 64
3, 278400, Note_on_c, 0, 70, 75
3, 279115, Note_off_c, 0, 70, 64
3, 279120, Note_on_c, 0, 70, 75
3, 279360, Note_off_c, 0, 70, 64
3, 279360, Note_on_c, 0, 68, 75
3, 279600, Note_off_c, 0, 68, 64
3, 279600, Note_on_c, 0, 72, 75
3, 279835, Note_off_c, 0, 72, 64
3, 279840, Note_on_c, 0, 77, 75
3, 280200, Note_off_c, 0, 77, 64
3, 280200, Note_on_c, 0, 75, 75
3, 280315, Note_off_c, 0, 75, 64
3, 280320, Note_on_c, 0, 74, 75
3, 280560, Note_off_c, 0, 74, 64
3, 280560, Note_on_c, 0, 72, 75
3, 280800, Note_off_c, 0, 72, 64
3, 280800, Note_on_c, 0, 70, 75
3, 281200, Note_off_c, 0, 70, 64
3, 281280, Note_on_c, 0, 75, 75
3, 281760, Note_off_c, 0, 75, 64
3, 281760, Note_on_c, 0, 77, 75
3, 282160, Note_off_c, 0, 77, 64
3, 282240, Note_on_c, 0, 79, 75
3, 282360, Note_off_c, 0, 79, 64
3, 282360, Note_on_c, 0, 80, 75
3, 282480, Note_off_c, 0, 80, 64
3, 282480, Note_on_c, 0, 82, 75
3, 282600, Note_off_c, 0, 82, 64
3, 282600, Note_on_c, 0, 75, 75
3, 282715, Note_off_c, 0, 75, 64
3, 282720, Note_on_c, 0, 75, 75
3, 283120, Note_off_c, 0, 75, 64
3, 283200, Note_on_c, 0, 74, 75
3, 283230, Note_off_c, 0, 74, 64
3, 283230, Note_on_c, 0, 75, 75
3, 283260, Note_off_c, 0, 75, 64
3, 283260, Note_on_c, 0, 74, 75
3, 283290, Note_off_c, 0, 74, 64
3, 283290, Note_on_c, 0, 75, 75
3, 283320, Note_off_c, 0, 75, 64
3, 283320, Note_on_c, 0, 74, 75
3, 283350, Note_off_c, 0, 74, 64
3, 283350, Note_on_c, 0, 75, 75
3, 283380, Note_off_c, 0, 75, 64
3, 283380, Note_on_c, 0, 74, 75
3, 283410, Note_off_c, 0, 74, 64
3, 283410, Note_on_c, 0, 75, 75
3, 283440, Note_off_c, 0, 75, 64
3, 283440, Note_on_c, 0, 74, 75
3, 283470, Note_off_c, 0, 74, 64
3, 283470, Note_on_c, 0, 75, 75
3, 283500, Note_off_c, 0, 75, 64
3, 283500, Note_on_c, 0, 74, 75
3, 283530, Note_off_c, 0, 74, 64
3, 283530, Note_on_c, 0, 75, 75
3, 283560, Note_off_c, 0, 75, 64
3, 283560, Note_on_c, 0, 74, 75
3, 283590, Note_off_c, 0, 74, 64
3, 283590, Note_on_c, 0, 75, 75
3, 283620, Note_off_c, 0, 75, 64
3, 283620, Note_on_c, 0, 74, 75
3, 283650, Note_off_c, 0, 74, 64
3, 283650, Note_on_c, 0, 75, 75
3, 283675, Note_off_c, 0, 75, 64
3, 283800, Note_on_c, 0, 82, 75
3, 283920, Note_off_c, 0, 82, 64
3, 283920, Note_on_c, 0, 80, 75
3, 284040, Note_off_c, 0, 80, 64
3, 284040, Note_on_c, 0, 82, 75
3, 284160, Note_off_c, 0, 82, 64
3, 284160, Note_on_c, 0, 79, 75
3, 284280, Note_off_c, 0, 79, 64
3, 284280, Note_on_c, 0, 80, 75
3, 284400, Note_off_c, 0, 80, 64
3, 284400, Note_on_c, 0, 77, 75
3, 284520, Note_off_c, 0, 77, 64
3, 284520, Note_on_c, 0, 79, 75
3, 284635, Note_off_c, 0, 79, 64
3, 284640, Note_on_c, 0, 75, 75
3, 284760, Note_off_c, 0, 75, 64
3, 284760, Note_on_c, 0, 79, 75
3, 284880, Note_off_c, 0, 79, 64
3, 284880, Note_on_c, 0, 77, 75
3, 285000, Note_off_c, 0, 77, 64
3, 285000, Note_on_c, 0, 75, 75
3, 285120, Note_off_c, 0, 75, 64
3, 285120, Note_on_c, 0, 74, 75
3, 285240, Note_off_c, 0, 74, 64
3, 285240, Note_on_c, 0, 77, 75
3, 285360, Note_off_c, 0, 77, 64
3, 285360, Note_on_c, 0, 75, 75
3, 285480, Note_off_c, 0, 75, 64
3, 285480, Note_on_c, 0, 79, 75
3, 285600, Note_off_c, 0, 79, 64
3, 285600, Note_on_c, 0, 77, 75
3, 285720, Note_off_c, 0, 77, 64
3, 285720, Note_on_c, 0, 80, 75
3, 285840, Note_off_c, 0, 80, 64
3, 285840, Note_on_c, 0, 79, 75
3, 285960, Note_off_c, 0, 79, 64
3, 285960, Note_on_c, 0, 77, 75
3, 286075, Note_off_c, 0, 77, 64
3, 286080, Note_on_c, 0, 82, 75
3, 286200, Note_off_c, 0, 82, 64
3, 286200, Note_on_c, 0, 75, 75
3, 286320, Note_off_c, 0, 75, 64
3, 286320, Note_on_c, 0, 74, 75
3, 286440, Note_off_c, 0, 74, 64
3, 286440, Note_on_c, 0, 75, 75
3, 286560, Note_off_c, 0, 75, 64
3, 286560, Note_on_c, 0, 72, 75
3, 286680, Note_off_c, 0, 72, 64
3, 286680, Note_on_c, 0, 75, 75
3, 286800, Note_off_c, 0, 75, 64
3, 286800, Note_on_c, 0, 72, 75
3, 286920, Note_off_c, 0, 72, 64
3, 286920, Note_on_c, 0, 75, 75
3, 287040, Note_off_c, 0, 75, 64
3, 287040, Note_on_c, 0, 72, 75
3, 287160, Note_off_c, 0, 72, 64
3, 287160, Note_on_c, 0, 73, 75
3, 287280, Note_off_c, 0, 73, 64
3, 287280, Note_on_c, 0, 72, 75
3, 287400, Note_off_c, 0, 72, 64
3, 287400, Note_on_c, 0, 73, 75
3, 287515, Note_off_c, 0, 73, 64
3, 287520, Note_on_c, 0, 70, 75
3, 287640, Note_off_c, 0, 70, 64
3, 287640, Note_on_c, 0, 73, 75
3, 287760, Note_off_c, 0, 73, 64
3, 287760, Note_on_c, 0, 70, 75
3, 287880, Note_off_c, 0, 70, 64
3, 287880, Note_on_c, 0, 73, 75
3, 288000, Note_off_c, 0, 73, 64
3, 288000, Note_on_c, 0, 68, 75
3, 288120, Note_off_c, 0, 68, 64
3, 288120, Note_on_c, 0, 72, 75
3, 288240, Note_off_c, 0, 72, 64
3, 288240, Note_on_c, 0, 70, 75
3, 288360, Note_off_c, 0, 70, 64
3, 288360, Note_on_c, 0, 73, 75
3, 288480, Note_off_c, 0, 73, 64
3, 288480, Note_on_c, 0, 72, 75
3, 288600, Note_off_c, 0, 72, 64
3, 288600, Note_on_c, 0, 75, 75
3, 288720, Note_off_c, 0, 75, 64
3, 288720, Note_on_c, 0, 74, 75
3, 288840, Note_off_c, 0, 74, 64
3, 288840, Note_on_c, 0, 75, 75
3, 288955, Note_off_c, 0, 75, 64
3, 288960, Note_on_c, 0, 72, 75
3, 289080, Note_off_c, 0, 72, 64
3, 289080, Note_on_c, 0, 77, 75
3, 289200, Note_off_c, 0, 77, 64
3, 289200, Note_on_c, 0, 75, 75
3, 289320, Note_off_c, 0, 75, 64
3, 289320, Note_on_c, 0, 77, 75
3, 289440, Note_off_c, 0, 77, 64
3, 289440, Note_on_c, 0, 74, 75
3, 289560, Note_off_c, 0, 74, 64
3, 289560, Note_on_c, 0, 77, 75
3, 289680, Note_off_c, 0, 77, 64
3, 289680, Note_on_c, 0, 75, 75
3, 289800, Note_off_c, 0, 75, 64
3, 289800, Note_on_c, 0, 79, 75
3, 289920, Note_off_c, 0, 79, 64
3, 289920, Note_on_c, 0, 77, 75
3, 290040, Note_off_c, 0, 77, 64
3, 290040, Note_on_c, 0, 82, 75
3, 290160, Note_off_c, 0, 82, 64
3, 290160, Note_on_c, 0, 80, 75
3, 290280, Note_off_c, 0, 80, 64
3, 290280, Note_on_c, 0, 82, 75
3, 290395, Note_off_c, 0, 82, 64
3, 290400, Note_on_c, 0, 79, 75
3, 290520, Note_off_c, 0, 79, 64
3, 290520, Note_on_c, 0, 84, 75
3, 290640, Note_off_c, 0, 84, 64
3, 290640, Note_on_c, 0, 82, 75
3, 290760, Note_off_c, 0, 82, 64
3, 290760, Note_on_c, 0, 84, 75
3, 290880, Note_off_c, 0, 84, 64
3, 290880, Note_on_c, 0, 80, 75
3, 291000, Note_off_c, 0, 80, 64
3, 291000, Note_on_c, 0, 84, 75
3, 291120, Note_off_c, 0, 84, 64
3, 291120, Note_on_c, 0, 82, 75
3, 291240, Note_off_c, 0, 82, 64
3, 291240, Note_on_c, 0, 84, 75
3, 291360, Note_off_c, 0, 84, 64
3, 291360, Note_on_c, 0, 80, 75
3, 291480, Note_off_c, 0, 80, 64
3, 291480, Note_on_c, 0, 82, 75
3, 291600, Note_off_c, 0, 82, 64
3, 291600, Note_on_c, 0, 79, 75
3, 291720, Note_off_c, 0, 79, 64
3, 291720, Note_on_c, 0, 80, 75
3, 291835, Note_off_c, 0, 80, 64
3, 291840, Note_on_c, 0, 77, 75
3, 291960, Note_off_c, 0, 77, 64
3, 291960, Note_on_c, 0, 82, 75
3, 292080, Note_off_c, 0, 82, 64
3, 292080, Note_on_c, 0, 80, 75
3, 292200, Note_off_c, 0, 80, 64
3, 292200, Note_on_c, 0, 82, 75
3, 292320, Note_off_c, 0, 82, 64
3, 292320, Note_on_c, 0, 79, 75
3, 292440, Note_off_c, 0, 79, 64
3, 292440, Note_on_c, 0, 82, 75
3, 292560, Note_off_c, 0, 82, 64
3, 292560, Note_on_c, 0, 80, 75
3, 292680, Note_off_c, 0, 80, 64
3, 292680, Note_on_c, 0, 82, 75
3, 292800, Note_off_c, 0, 82, 64
3, 292800, Note_on_c, 0, 79, 75
3, 292920, Note_off_c, 0, 79, 64
3, 292920, Note_on_c, 0, 80, 75
3, 293040, Note_off_c, 0, 80, 64
3, 293040, Note_on_c, 0, 77, 75
3, 293160, Note_off_c, 0, 77, 64
3, 293160, Note_on_c, 0, 79, 75
3, 293275, Note_off_c, 0, 79, 64
3, 293280, Note_on_c, 0, 75, 75
3, 293400, Note_off_c, 0, 75, 64
3, 293400, Note_on_c, 0, 77, 75
3, 293520, Note_off_c, 0, 77, 64
3, 293520, Note_on_c, 0, 74, 75
3, 293640, Note_off_c, 0, 74, 64
3, 293640, Note_on_c, 0, 75, 75
3, 293755, Note_off_c, 0, 75, 64
3, 293760, Note_on_c, 0, 72, 75
3, 294000, Note_off_c, 0, 72, 64
3, 294000, Note_on_c, 0, 75, 75
3, 294240, Note_off_c, 0, 75, 64
3, 294240, Note_on_c, 0, 80, 75
3, 294480, Note_off_c, 0, 80, 64
3, 294480, Note_on_c, 0, 72, 75
3, 294720, Note_off_c, 0, 72, 64
3, 294720, Note_on_c, 0, 70, 75
3, 294960, Note_off_c, 0, 70, 64
3, 294960, Note_on_c, 0, 80, 75
3, 295195, Note_off_c, 0, 80, 64
3, 295200, Note_on_c, 0, 70, 75
3, 295440, Note_off_c, 0, 70, 64
3, 295440, Note_on_c, 0, 74, 75
3, 295680, Note_off_c, 0, 74, 64
3, 295680, Note_on_c, 0, 79, 75
3, 295920, Note_off_c, 0, 79, 64
3, 295920, Note_on_c, 0, 70, 75
3, 296160, Note_off_c, 0, 70, 64
3, 296160, Note_on_c, 0, 68, 75
3, 296400, Note_off_c, 0, 68, 64
3, 296400, Note_on_c, 0, 79, 75
3, 296635, Note_off_c, 0, 79, 64
3, 296640, Note_on_c, 0, 68, 75
3, 296880, Note_off_c, 0, 68, 64
3, 296880, Note_on_c, 0, 72, 75
3, 297120, Note_off_c, 0, 72, 64
3, 297120, Note_on_c, 0, 77, 75
3, 297360, Note_off_c, 0, 77, 64
3, 297360, Note_on_c, 0, 68, 75
3, 297600, Note_off_c, 0, 68, 64
3, 297600, Note_on_c, 0, 67, 75
3, 297840, Note_off_c, 0, 67, 64
3, 297840, Note_on_c, 0, 77, 75
3, 298075, Note_off_c, 0, 77, 64
3, 298080, Note_on_c, 0, 67, 75
3, 298320, Note_off_c, 0, 67, 64
3, 298320, Note_on_c, 0, 70, 75
3, 298560, Note_off_c, 0, 70, 64
3, 298560, Note_on_c, 0, 75, 75
3, 298800, Note_off_c, 0, 75, 64
3, 298800, Note_on_c, 0, 67, 75
3, 299040, Note_off_c, 0, 67, 64
3, 299040, Note_on_c, 0, 65, 75
3, 299280, Note_off_c, 0, 65, 64
3, 299280, Note_on_c, 0, 75, 75
3, 299515, Note_off_c, 0, 75, 64
3, 299520, Note_on_c, 0, 74, 75
3, 299640, Note_off_c, 0, 74, 64
3, 299640, Note_on_c, 0, 77, 75
3, 299760, Note_off_c, 0, 77, 64
3, 299760, Note_on_c, 0, 74, 75
3, 299880, Note_off_c, 0, 74, 64
3, 299880, Note_on_c, 0, 77, 75
3, 300000, Note_off_c, 0, 77, 64
3, 300000, Note_on_c, 0, 70, 75
3, 300235, Note_off_c, 0, 70, 64
3, 300240, Note_on_c, 0, 69, 75
3, 300360, Note_off_c, 0, 69, 64
3, 300360, Note_on_c, 0, 67, 75
3, 300480, Note_off_c, 0, 67, 64
3, 300480, Note_on_c, 0, 65, 75
3, 300715, Note_off_c, 0, 65, 64
3, 300720, Note_on_c, 0, 67, 75
3, 300960, Note_off_c, 0, 67, 64
3, 300960, Note_on_c, 0, 69, 75
3, 301200, Note_off_c, 0, 69, 64
3, 301200, Note_on_c, 0, 74, 75
3, 301435, Note_off_c, 0, 74, 64
3, 301440, Note_on_c, 0, 69, 75
3, 301675, Note_off_c, 0, 69, 64
3, 301680, Note_on_c, 0, 69, 75
3, 301920, Note_off_c, 0, 69, 64
3, 301920, Note_on_c, 0, 70, 75
3, 302320, Note_off_c, 0, 70, 64
3, 302640, Note_on_c, 0, 79, 75
3, 302880, Note_off_c, 0, 79, 64
3, 302880, Note_on_c, 0, 72, 75
3, 303115, Note_off_c, 0, 72, 64
3, 303120, Note_on_c, 0, 72, 75
3, 303360, Note_off_c, 0, 72, 64
3, 303360, Note_on_c, 0, 74, 75
3, 303760, Note_off_c, 0, 74, 64
3, 304080, Note_on_c, 0, 75, 75
3, 304320, Note_off_c, 0, 75, 64
3, 304320, Note_on_c, 0, 70, 75
3, 304555, Note_off_c, 0, 70, 64
3, 304560, Note_on_c, 0, 70, 75
3, 304800, Note_off_c, 0, 70, 64
3, 304800, Note_on_c, 0, 72, 75
3, 305200, Note_off_c, 0, 72, 64
3, 305400, Note_on_c, 0, 74, 75
3, 305520, Note_off_c, 0, 74, 64
3, 305520, Note_on_c, 0, 72, 75
3, 305640, Note_off_c, 0, 72, 64
3, 305640, Note_on_c, 0, 74, 75
3, 305760, Note_off_c, 0, 74, 64
3, 305760, Note_on_c, 0, 75, 75
3, 306160, Note_off_c, 0, 75, 64
3, 306240, Note_on_c, 0, 77, 75
3, 306640, Note_off_c, 0, 77, 64
3, 306840, Note_on_c, 0, 79, 75
3, 306960, Note_off_c, 0, 79, 64
3, 306960, Note_on_c, 0, 77, 75
3, 307080, Note_off_c, 0, 77, 64
3, 307080, Note_on_c, 0, 79, 75
3, 307200, Note_off_c, 0, 79, 64
3, 307200, Note_on_c, 0, 80, 75
3, 307600, Note_off_c, 0, 80, 64
3, 307680, Note_on_c, 0, 82, 75
3, 308080, Note_off_c, 0, 82, 64
3, 308280, Note_on_c, 0, 84, 75
3, 308400, Note_off_c, 0, 84, 64
3, 308400, Note_on_c, 0, 82, 75
3, 308520, Note_off_c, 0, 82, 64
3, 308520, Note_on_c, 0, 84, 75
3, 308640, Note_off_c, 0, 84, 64
3, 308640, Note_on_c, 0, 77, 75
3, 309040, Note_off_c, 0, 77, 64
3, 309120, Note_on_c, 0, 79, 75
3, 309520, Note_off_c, 0, 79, 64
3, 309720, Note_on_c, 0, 80, 75
3, 309840, Note_off_c, 0, 80, 64
3, 309840, Note_on_c, 0, 79, 75
3, 309960, Note_off_c, 0, 79, 64
3, 309960, Note_on_c, 0, 80, 75
3, 310080, Note_off_c, 0, 80, 64
3, 310080, Note_on_c, 0, 74, 75
3, 310315, Note_off_c, 0, 74, 64
3, 310320, Note_on_c, 0, 74, 75
3, 310560, Note_off_c, 0, 74, 64
3, 310560, Note_on_c, 0, 75, 75
3, 310960, Note_off_c, 0, 75, 64
3, 311160, Note_on_c, 0, 77, 75
3, 311280, Note_off_c, 0, 77, 64
3, 311280, Note_on_c, 0, 75, 75
3, 311400, Note_off_c, 0, 75, 64
3, 311400, Note_on_c, 0, 77, 75
3, 311520, Note_off_c, 0, 77, 64
3, 311520, Note_on_c, 0, 72, 75
3, 311755, Note_off_c, 0, 72, 64
3, 311760, Note_on_c, 0, 72, 75
3, 312000, Note_off_c, 0, 72, 64
3, 312000, Note_on_c, 0, 74, 75
3, 312400, Note_off_c, 0, 74, 64
3, 312600, Note_on_c, 0, 72, 75
3, 312720, Note_off_c, 0, 72, 64
3, 312720, Note_on_c, 0, 71, 75
3, 312840, Note_off_c, 0, 71, 64
3, 312840, Note_on_c, 0, 72, 75
3, 312955, Note_off_c, 0, 72, 64
3, 313080, Note_on_c, 0, 72, 75
3, 313200, Note_off_c, 0, 72, 64
3, 313200, Note_on_c, 0, 71, 75
3, 313320, Note_off_c, 0, 71, 64
3, 313320, Note_on_c, 0, 72, 75
3, 313435, Note_off_c, 0, 72, 64
3, 313560, Note_on_c, 0, 72, 75
3, 313680, Note_off_c, 0, 72, 64
3, 313680, Note_on_c, 0, 71, 75
3, 313800, Note_off_c, 0, 71, 64
3, 313800, Note_on_c, 0, 72, 75
3, 313915, Note_off_c, 0, 72, 64
3, 314040, Note_on_c, 0, 70, 75
3, 314160, Note_off_c, 0, 70, 64
3, 314160, Note_on_c, 0, 69, 75
3, 314280, Note_off_c, 0, 69, 64
3, 314280, Note_on_c, 0, 70, 75
3, 314395, Note_off_c, 0, 70, 64
3, 314520, Note_on_c, 0, 69, 75
3, 314640, Note_off_c, 0, 69, 64
3, 314640, Note_on_c, 0, 67, 75
3, 314760, Note_off_c, 0, 67, 64
3, 314760, Note_on_c, 0, 69, 75
3, 314875, Note_off_c, 0, 69, 64
3, 315000, Note_on_c, 0, 69, 75
3, 315120, Note_off_c, 0, 69, 64
3, 315120, Note_on_c, 0, 67, 75
3, 315240, Note_off_c, 0, 67, 64
3, 315240, Note_on_c, 0, 69, 75
3, 315355, Note_off_c, 0, 69, 64
3, 315480, Note_on_c, 0, 67, 75
3, 315600, Note_off_c, 0, 67, 64
3, 315600, Note_on_c, 0, 66, 75
3, 315720, Note_off_c, 0, 66, 64
3, 315720, Note_on_c, 0, 67, 75
3, 315835, Note_off_c, 0, 67, 64
3, 315960, Note_on_c, 0, 67, 75
3, 316080, Note_off_c, 0, 67, 64
3, 316080, Note_on_c, 0, 66, 75
3, 316200, Note_off_c, 0, 66, 64
3, 316200, Note_on_c, 0, 67, 75
3, 316315, Note_off_c, 0, 67, 64
3, 316440, Note_on_c, 0, 69, 76
3, 316560, Note_off_c, 0, 69, 64
3, 316560, Note_on_c, 0, 67, 77
3, 316680, Note_off_c, 0, 67, 64
3, 316680, Note_on_c, 0, 69, 78
3, 316795, Note_off_c, 0, 69, 64
3, 316920, Note_on_c, 0, 66, 80
3, 317040, Note_off_c, 0, 66, 64
3, 317040, Note_on_c, 0, 64, 81
3, 317160, Note_off_c, 0, 64, 64
3, 317160, Note_on_c, 0, 66, 82
3, 317275, Note_off_c, 0, 66, 64
3, 317400, Note_on_c, 0, 66, 86
3, 317520, Note_off_c, 0, 66, 64
3, 317520, Note_on_c, 0, 64, 88
3, 317640, Note_off_c, 0, 64, 64
3, 317640, Note_on_c, 0, 66, 90
3, 317755, Note_off_c, 0, 66, 64
3, 317760, Note_on_c, 0, 70, 92
3, 317880, Note_off_c, 0, 70, 64
3, 317880, Note_on_c, 0, 72, 92
3, 318000, Note_off_c, 0, 72, 64
3, 318000, Note_on_c, 0, 70, 92
3, 318120, Note_off_c, 0, 70, 64
3, 318120, Note_on_c, 0, 72, 92
3, 318240, Note_off_c, 0, 72, 64
3, 318240, Note_on_c, 0, 74, 92
3, 318640, Note_off_c, 0, 74, 64
3, 318840, Note_on_c, 0, 74, 92
3, 318960, Note_off_c, 0, 74, 64
3, 318960, Note_on_c, 0, 72, 92
3, 319080, Note_off_c, 0, 72, 64
3, 319080, Note_on_c, 0, 74, 92
3, 319200, Note_off_c, 0, 74, 64
3, 319200, Note_on_c, 0, 67, 92
3, 319315, Note_off_c, 0, 67, 64
3, 319320, Note_on_c, 0, 79, 92
3, 319440, Note_off_c, 0, 79, 64
3, 319440, Note_on_c, 0, 77, 92
3, 319560, Note_off_c, 0, 77, 64
3, 319560, Note_on_c, 0, 79, 92
3, 319680, Note_off_c, 0, 79, 64
3, 319680, Note_on_c, 0, 75, 92
3, 319800, Note_off_c, 0, 75, 64
3, 319800, Note_on_c, 0, 79, 92
3, 319920, Note_off_c, 0, 79, 64
3, 319920, Note_on_c, 0, 75, 92
3, 320040, Note_off_c, 0, 75, 64
3, 320040, Note_on_c, 0, 79, 92
3, 320160, Note_off_c, 0, 79, 64
3, 320160, Note_on_c, 0, 75, 92
3, 320280, Note_off_c, 0, 75, 64
3, 320280, Note_on_c, 0, 77, 92
3, 320400, Note_off_c, 0, 77, 64
3, 320400, Note_on_c, 0, 75, 92
3, 320520, Note_off_c, 0, 75, 64
3, 320520, Note_on_c, 0, 77, 92
3, 320635, Note_off_c, 0, 77, 64
3, 320640, Note_on_c, 0, 74, 92
3, 320760, Note_off_c, 0, 74, 64
3, 320760, Note_on_c, 0, 75, 92
3, 320880, Note_off_c, 0, 75, 64
3, 320880, Note_on_c, 0, 74, 92
3, 321000, Note_off_c, 0, 74, 64
3, 321000, Note_on_c, 0, 75, 92
3, 321120, Note_off_c, 0, 75, 64
3, 321120, Note_on_c, 0, 72, 92
3, 321240, Note_off_c, 0, 72, 64
3, 321240, Note_on_c, 0, 75, 92
3, 321360, Note_off_c, 0, 75, 64
3, 321360, Note_on_c, 0, 74, 92
3, 321480, Note_off_c, 0, 74, 64
3, 321480, Note_on_c, 0, 77, 92
3, 321600, Note_off_c, 0, 77, 64
3, 321600, Note_on_c, 0, 75, 92
3, 321720, Note_off_c, 0, 75, 64
3, 321720, Note_on_c, 0, 79, 92
3, 321840, Note_off_c, 0, 79, 64
3, 321840, Note_on_c, 0, 78, 92
3, 321960, Note_off_c, 0, 78, 64
3, 321960, Note_on_c, 0, 81, 92
3, 322075, Note_off_c, 0, 81, 64
3, 322080, Note_on_c, 0, 79, 92
3, 322200, Note_off_c, 0, 79, 64
3, 322200, Note_on_c, 0, 82, 92
3, 322320, Note_off_c, 0, 82, 64
3, 322320, Note_on_c, 0, 81, 92
3, 322440, Note_off_c, 0, 81, 64
3, 322440, Note_on_c, 0, 79, 92
3, 322560, Note_off_c, 0, 79, 64
3, 322560, Note_on_c, 0, 78, 75
3, 322680, Note_off_c, 0, 78, 64
3, 322680, Note_on_c, 0, 81, 75
3, 322800, Note_off_c, 0, 81, 64
3, 322800, Note_on_c, 0, 79, 75
3, 322920, Note_off_c, 0, 79, 64
3, 322920, Note_on_c, 0, 82, 75
3, 323035, Note_off_c, 0, 82, 64
3, 323040, Note_on_c, 0, 81, 60
3, 323280, Note_off_c, 0, 81, 64
3, 323280, Note_on_c, 0, 74, 60
3, 323515, Note_off_c, 0, 74, 64
3, 353760, Note_on_c, 0, 67, 75
3, 354160, Note_off_c, 0, 67, 64
3, 354240, Note_on_c, 0, 74, 75
3, 355080, Note_off_c, 0, 74, 64
3, 355200, Note_on_c, 0, 70, 75
3, 355600, Note_off_c, 0, 70, 64
3, 355680, Note_on_c, 0, 72, 75
3, 356520, Note_off_c, 0, 72, 64
3, 356640, Note_on_c, 0, 74, 75
3, 357040, Note_off_c, 0, 74, 64
3, 357120, Note_on_c, 0, 75, 75
3, 357960, Note_off_c, 0, 75, 64
3, 358080, Note_on_c, 0, 72, 75
3, 358480, Note_off_c, 0, 72, 64
3, 358560, Note_on_c, 0, 74, 75
3, 359635, Note_off_c, 0, 74, 64
3, 359640, Note_on_c, 0, 74, 75
3, 359760, Note_off_c, 0, 74, 64
3, 359760, Note_on_c, 0, 72, 75
3, 359880, Note_off_c, 0, 72, 64
3, 359880, Note_on_c, 0, 74, 75
3, 360000, Note_off_c, 0, 74, 64
3, 360000, Note_on_c, 0, 75, 75
3, 360120, Note_off_c, 0, 75, 64
3, 360120, Note_on_c, 0, 77, 75
3, 360240, Note_off_c, 0, 77, 64
3, 360240, Note_on_c, 0, 74, 75
3, 360360, Note_off_c, 0, 74, 64
3, 360360, Note_on_c, 0, 76, 75
3, 360480, Note_off_c, 0, 76, 64
3, 360480, Note_on_c, 0, 77, 75
3, 360600, Note_off_c, 0, 77, 64
3, 360600, Note_on_c, 0, 79, 75
3, 360720, Note_off_c, 0, 79, 64
3, 360720, Note_on_c, 0, 76, 75
3, 360840, Note_off_c, 0, 76, 64
3, 360840, Note_on_c, 0, 78, 75
3, 360955, Note_off_c, 0, 78, 64
3, 360960, Note_on_c, 0, 79, 75
3, 361080, Note_off_c, 0, 79, 64
3, 361080, Note_on_c, 0, 81, 75
3, 361200, Note_off_c, 0, 81, 64
3, 361200, Note_on_c, 0, 74, 75
3, 361320, Note_off_c, 0, 74, 64
3, 361320, Note_on_c, 0, 77, 75
3, 361440, Note_off_c, 0, 77, 64
3, 361440, Note_on_c, 0, 75, 75
3, 361560, Note_off_c, 0, 75, 64
3, 361560, Note_on_c, 0, 77, 75
3, 361680, Note_off_c, 0, 77, 64
3, 361680, Note_on_c, 0, 72, 75
3, 361800, Note_off_c, 0, 72, 64
3, 361800, Note_on_c, 0, 75, 75
3, 361920, Note_off_c, 0, 75, 64
3, 361920, Note_on_c, 0, 74, 75
3, 362040, Note_off_c, 0, 74, 64
3, 362040, Note_on_c, 0, 75, 75
3, 362160, Note_off_c, 0, 75, 64
3, 362160, Note_on_c, 0, 70, 75
3, 362280, Note_off_c, 0, 70, 64
3, 362280, Note_on_c, 0, 74, 75
3, 362395, Note_off_c, 0, 74, 64
3, 362400, Note_on_c, 0, 72, 75
3, 362520, Note_off_c, 0, 72, 64
3, 362520, Note_on_c, 0, 74, 75
3, 362640, Note_off_c, 0, 74, 64
3, 362640, Note_on_c, 0, 69, 75
3, 362760, Note_off_c, 0, 69, 64
3, 362760, Note_on_c, 0, 72, 75
3, 362880, Note_off_c, 0, 72, 64
3, 362880, Note_on_c, 0, 71, 75
3, 363000, Note_off_c, 0, 71, 64
3, 363000, Note_on_c, 0, 72, 75
3, 363120, Note_off_c, 0, 72, 64
3, 363120, Note_on_c, 0, 69, 75
3, 363240, Note_off_c, 0, 69, 64
3, 363240, Note_on_c, 0, 71, 75
3, 363360, Note_off_c, 0, 71, 64
3, 363360, Note_on_c, 0, 72, 75
3, 363480, Note_off_c, 0, 72, 64
3, 363480, Note_on_c, 0, 74, 75
3, 363600, Note_off_c, 0, 74, 64
3, 363600, Note_on_c, 0, 75, 75
3, 363720, Note_off_c, 0, 75, 64
3, 363720, Note_on_c, 0, 69, 75
3, 363835, Note_off_c, 0, 69, 64
3, 363840, Note_on_c, 0, 69, 75
3, 363870, Note_off_c, 0, 69, 64
3, 363870, Note_on_c, 0, 71, 75
3, 363900, Note_off_c, 0, 71, 64
3, 363900, Note_on_c, 0, 69, 75
3, 363930, Note_off_c, 0, 69, 64
3, 363930, Note_on_c, 0, 71, 75
3, 363960, Note_off_c, 0, 71, 64
3, 363960, Note_on_c, 0, 69, 75
3, 363990, Note_off_c, 0, 69, 64
3, 363990, Note_on_c, 0, 71, 75
3, 364020, Note_off_c, 0, 71, 64
3, 364020, Note_on_c, 0, 69, 75
3, 364050, Note_off_c, 0, 69, 64
3, 364050, Note_on_c, 0, 71, 75
3, 364080, Note_off_c, 0, 71, 64
3, 364080, Note_on_c, 0, 69, 75
3, 364110, Note_off_c, 0, 69, 64
3, 364110, Note_on_c, 0, 71, 75
3, 364140, Note_off_c, 0, 71, 64
3, 364140, Note_on_c, 0, 69, 75
3, 364170, Note_off_c, 0, 69, 64
3, 364170, Note_on_c, 0, 71, 75
3, 364200, Note_off_c, 0, 71, 64
3, 364200, Note_on_c, 0, 69, 75
3, 364230, Note_off_c, 0, 69, 64
3, 364230, Note_on_c, 0, 71, 75
3, 364260, Note_off_c, 0, 71, 64
3, 364260, Note_on_c, 0, 69, 75
3, 364290, Note_off_c, 0, 69, 64
3, 364290, Note_on_c, 0, 71, 75
3, 364315, Note_off_c, 0, 71, 64
3, 364320, Note_on_c, 0, 67, 75
3, 364440, Note_off_c, 0, 67, 64
3, 364440, Note_on_c, 0, 71, 75
3, 364560, Note_off_c, 0, 71, 64
3, 364560, Note_on_c, 0, 69, 75
3, 364680, Note_off_c, 0, 69, 64
3, 364680, Note_on_c, 0, 72, 75
3, 364800, Note_off_c, 0, 72, 64
3, 364800, Note_on_c, 0, 71, 75
3, 364920, Note_off_c, 0, 71, 64
3, 364920, Note_on_c, 0, 74, 75
3, 365040, Note_off_c, 0, 74, 64
3, 365040, Note_on_c, 0, 72, 75
3, 365160, Note_off_c, 0, 72, 64
3, 365160, Note_on_c, 0, 75, 75
3, 365275, Note_off_c, 0, 75, 64
3, 365280, Note_on_c, 0, 74, 75
3, 365400, Note_off_c, 0, 74, 64
3, 365400, Note_on_c, 0, 77, 75
3, 365520, Note_off_c, 0, 77, 64
3, 365520, Note_on_c, 0, 75, 75
3, 365640, Note_off_c, 0, 75, 64
3, 365640, Note_on_c, 0, 74, 75
3, 365760, Note_off_c, 0, 74, 64
3, 365760, Note_on_c, 0, 75, 75
3, 366160, Note_off_c, 0, 75, 64
3, 366960, Note_on_c, 0, 76, 92
3, 367195, Note_off_c, 0, 76, 64
3, 367200, Note_on_c, 0, 77, 92
3, 367320, Note_off_c, 0, 77, 64
3, 367320, Note_on_c, 0, 80, 92
3, 367440, Note_off_c, 0, 80, 64
3, 367440, Note_on_c, 0, 79, 92
3, 367560, Note_off_c, 0, 79, 64
3, 367560, Note_on_c, 0, 82, 92
3, 367680, Note_off_c, 0, 82, 64
3, 367680, Note_on_c, 0, 80, 92
3, 367920, Note_off_c, 0, 80, 64
3, 367920, Note_on_c, 0, 82, 92
3, 367980, Note_off_c, 0, 82, 64
3, 367980, Note_on_c, 0, 84, 92
3, 368040, Note_off_c, 0, 84, 64
3, 368040, Note_on_c, 0, 82, 92
3, 368100, Note_off_c, 0, 82, 64
3, 368100, Note_on_c, 0, 84, 92
3, 368155, Note_off_c, 0, 84, 64
3, 368160, Note_on_c, 0, 80, 92
3, 368220, Note_off_c, 0, 80, 64
3, 368220, Note_on_c, 0, 82, 92
3, 368280, Note_off_c, 0, 82, 64
3, 368280, Note_on_c, 0, 84, 92
3, 368340, Note_off_c, 0, 84, 64
3, 368340, Note_on_c, 0, 80, 92
3, 368400, Note_off_c, 0, 80, 64
3, 368400, Note_on_c, 0, 79, 92
3, 368520, Note_off_c, 0, 79, 64
3, 368520, Note_on_c, 0, 77, 92
3, 368640, Note_off_c, 0, 77, 64
3, 368640, Note_on_c, 0, 76, 92
3, 368760, Note_off_c, 0, 76, 64
3, 368760, Note_on_c, 0, 79, 92
3, 368880, Note_off_c, 0, 79, 64
3, 368880, Note_on_c, 0, 77, 92
3, 369000, Note_off_c, 0, 77, 64
3, 369000, Note_on_c, 0, 80, 92
3, 369120, Note_off_c, 0, 80, 64
3, 369120, Note_on_c, 0, 79, 92
3, 369240, Note_off_c, 0, 79, 64
3, 369240, Note_on_c, 0, 82, 92
3, 369360, Note_off_c, 0, 82, 64
3, 369360, Note_on_c, 0, 80, 92
3, 369480, Note_off_c, 0, 80, 64
3, 369480, Note_on_c, 0, 79, 92
3, 369595, Note_off_c, 0, 79, 64
3, 369600, Note_on_c, 0, 80, 92
3, 370480, Note_off_c, 0, 80, 64
3, 370560, Note_on_c, 0, 79, 92
3, 370960, Note_off_c, 0, 79, 64
3, 371040, Note_on_c, 0, 78, 92
3, 371440, Note_off_c, 0, 78, 64
3, 371520, Note_on_c, 0, 77, 92
3, 373075, Note_off_c, 0, 77, 64
3, 373080, Note_on_c, 0, 77, 92
3, 373200, Note_off_c, 0, 77, 64
3, 373200, Note_on_c, 0, 79, 92
3, 373320, Note_off_c, 0, 79, 64
3, 373320, Note_on_c, 0, 77, 92
3, 373440, Note_off_c, 0, 77, 64
3, 373440, Note_on_c, 0, 76, 92
3, 373680, Note_off_c, 0, 76, 64
3, 373680, Note_on_c, 0, 77, 92
3, 373915, Note_off_c, 0, 77, 64
3, 373920, Note_on_c, 0, 79, 92
3, 374515, Note_off_c, 0, 79, 64
3, 374520, Note_on_c, 0, 79, 92
3, 374640, Note_off_c, 0, 79, 64
3, 374640, Note_on_c, 0, 80, 92
3, 374760, Note_off_c, 0, 80, 64
3, 374760, Note_on_c, 0, 79, 92
3, 374880, Note_off_c, 0, 79, 64
3, 374880, Note_on_c, 0, 77, 92
3, 375115, Note_off_c, 0, 77, 64
3, 375120, Note_on_c, 0, 79, 92
3, 375355, Note_off_c, 0, 79, 64
3, 375360, Note_on_c, 0, 80, 92
3, 375955, Note_off_c, 0, 80, 64
3, 375960, Note_on_c, 0, 80, 92
3, 376080, Note_off_c, 0, 80, 64
3, 376080, Note_on_c, 0, 82, 92
3, 376200, Note_off_c, 0, 82, 64
3, 376200, Note_on_c, 0, 80, 92
3, 376320, Note_off_c, 0, 80, 64
3, 376320, Note_on_c, 0, 79, 92
3, 376440, Note_off_c, 0, 79, 64
3, 376440, Note_on_c, 0, 82, 92
3, 376560, Note_off_c, 0, 82, 64
3, 376560, Note_on_c, 0, 80, 92
3, 376680, Note_off_c, 0, 80, 64
3, 376680, Note_on_c, 0, 84, 92
3, 376795, Note_off_c, 0, 84, 64
3, 376800, Note_on_c, 0, 82, 92
3, 377395, Note_off_c, 0, 82, 64
3, 377400, Note_on_c, 0, 84, 92
3, 377520, Note_off_c, 0, 84, 64
3, 377520, Note_on_c, 0, 79, 92
3, 377640, Note_off_c, 0, 79, 64
3, 377640, Note_on_c, 0, 82, 92
3, 377760, Note_off_c, 0, 82, 64
3, 377760, Note_on_c, 0, 80, 92
3, 378355, Note_off_c, 0, 80, 64
3, 378360, Note_on_c, 0, 84, 92
3, 378480, Note_off_c, 0, 84, 64
3, 378480, Note_on_c, 0, 80, 92
3, 378600, Note_off_c, 0, 80, 64
3, 378600, Note_on_c, 0, 84, 92
3, 378720, Note_off_c, 0, 84, 64
3, 378720, Note_on_c, 0, 78, 92
3, 379560, Note_off_c, 0, 78, 64
3, 379800, Note_on_c, 0, 79, 92
3, 379920, Note_off_c, 0, 79, 64
3, 379920, Note_on_c, 0, 77, 92
3, 380040, Note_off_c, 0, 77, 64
3, 380040, Note_on_c, 0, 79, 92
3, 380160, Note_off_c, 0, 79, 64
3, 380160, Note_on_c, 0, 75, 92
3, 380560, Note_off_c, 0, 75, 64
3, 380760, Note_on_c, 0, 74, 92
3, 380880, Note_off_c, 0, 74, 64
3, 380880, Note_on_c, 0, 72, 92
3, 381000, Note_off_c, 0, 72, 64
3, 381000, Note_on_c, 0, 74, 92
3, 381120, Note_off_c, 0, 74, 64
3, 381120, Note_on_c, 0, 70, 92
3, 381520, Note_off_c, 0, 70, 64
3, 381720, Note_on_c, 0, 81, 92
3, 381840, Note_off_c, 0, 81, 64
3, 381840, Note_on_c, 0, 79, 92
3, 381960, Note_off_c, 0, 79, 64
3, 381960, Note_on_c, 0, 81, 92
3, 382080, Note_off_c, 0, 81, 64
3, 382080, Note_on_c, 0, 78, 92
3, 382480, Note_off_c, 0, 78, 64
3, 382680, Note_on_c, 0, 79, 92
3, 382800, Note_off_c, 0, 79, 64
3, 382800, Note_on_c, 0, 77, 92
3, 382920, Note_off_c, 0, 77, 64
3, 382920, Note_on_c, 0, 79, 92
3, 383040, Note_off_c, 0, 79, 64
3, 383040, Note_on_c, 0, 75, 92
3, 383520, Note_off_c, 0, 75, 64
3, 383520, Note_on_c, 0, 74, 92
3, 383920, Note_off_c, 0, 74, 64
3, 384120, Note_on_c, 0, 74, 92
3, 384240, Note_off_c, 0, 74, 64
3, 384240, Note_on_c, 0, 72, 92
3, 384360, Note_off_c, 0, 72, 64
3, 384360, Note_on_c, 0, 74, 92
3, 384880, Note_off_c, 0, 74, 64
3, 391200, Note_on_c, 0, 72, 92
3, 391600, Note_off_c, 0, 72, 64
3, 391680, Note_on_c, 0, 79, 92
3, 392520, Note_off_c, 0, 79, 64
3, 392640, Note_on_c, 0, 75, 92
3, 393040, Note_off_c, 0, 75, 64
3, 393120, Note_on_c, 0, 77, 92
3, 393960, Note_off_c, 0, 77, 64
3, 394080, Note_on_c, 0, 79, 92
3, 394480, Note_off_c, 0, 79, 64
3, 394560, Note_on_c, 0, 80, 92
3, 395400, Note_off_c, 0, 80, 64
3, 395520, Note_on_c, 0, 77, 92
3, 395920, Note_off_c, 0, 77, 64
3, 396000, Note_on_c, 0, 79, 92
3, 399280, Note_off_c, 0, 79, 64
3, 399360, Note_on_c, 0, 77, 92
3, 400720, Note_off_c, 0, 77, 64
3, 400800, Note_on_c, 0, 75, 92
3, 402160, Note_off_c, 0, 75, 64
3, 402240, Note_on_c, 0, 74, 92
3, 403600, Note_off_c, 0, 74, 64
3, 403680, Note_on_c, 0, 72, 92
3, 403800, Note_off_c, 0, 72, 64
3, 403800, Note_on_c, 0, 75, 92
3, 403920, Note_off_c, 0, 75, 64
3, 403920, Note_on_c, 0, 72, 92
3, 404040, Note_off_c, 0, 72, 64
3, 404040, Note_on_c, 0, 75, 92
3, 404160, Note_off_c, 0, 75, 64
3, 404160, Note_on_c, 0, 74, 92
3, 404280, Note_off_c, 0, 74, 64
3, 404280, Note_on_c, 0, 77, 92
3, 404400, Note_off_c, 0, 77, 64
3, 404400, Note_on_c, 0, 74, 92
3, 404520, Note_off_c, 0, 74, 64
3, 404520, Note_on_c, 0, 77, 92
3, 404640, Note_off_c, 0, 77, 64
3, 404640, Note_on_c, 0, 71, 92
3, 404700, Note_off_c, 0, 71, 64
3, 404700, Note_on_c, 0, 72, 92
3, 404760, Note_off_c, 0, 72, 64
3, 404760, Note_on_c, 0, 71, 92
3, 404820, Note_off_c, 0, 71, 64
3, 404820, Note_on_c, 0, 72, 92
3, 404880, Note_off_c, 0, 72, 64
3, 404880, Note_on_c, 0, 71, 92
3, 404940, Note_off_c, 0, 71, 64
3, 404940, Note_on_c, 0, 72, 92
3, 405000, Note_off_c, 0, 72, 64
3, 405000, Note_on_c, 0, 71, 92
3, 405060, Note_off_c, 0, 71, 64
3, 405060, Note_on_c, 0, 72, 92
3, 405120, Note_off_c, 0, 72, 64
3, 405120, Note_on_c, 0, 71, 92
3, 405180, Note_off_c, 0, 71, 64
3, 405180, Note_on_c, 0, 72, 92
3, 405240, Note_off_c, 0, 72, 64
3, 405240, Note_on_c, 0, 71, 92
3, 405300, Note_off_c, 0, 71, 64
3, 405300, Note_on_c, 0, 72, 92
3, 405360, Note_off_c, 0, 72, 64
3, 405360, Note_on_c, 0, 71, 92
3, 405420, Note_off_c, 0, 71, 64
3, 405420, Note_on_c, 0, 72, 92
3, 405480, Note_off_c, 0, 72, 64
3, 405480, Note_on_c, 0, 71, 92
3, 405540, Note_off_c, 0, 71, 64
3, 405540, Note_on_c, 0, 72, 92
3, 405600, Note_off_c, 0, 72, 64
3, 405600, Note_on_c, 0, 79, 92
3, 405660, Note_off_c, 0, 79, 64
3, 405660, Note_on_c, 0, 77, 92
3, 405720, Note_off_c, 0, 77, 64
3, 405720, Note_on_c, 0, 79, 92
3, 405780, Note_off_c, 0, 79, 64
3, 405780, Note_on_c, 0, 75, 92
3, 405840, Note_off_c, 0, 75, 64
3, 405840, Note_on_c, 0, 79, 92
3, 405900, Note_off_c, 0, 79, 64
3, 405900, Note_on_c, 0, 72, 92
3, 405960, Note_off_c, 0, 72, 64
3, 405960, Note_on_c, 0, 75, 92
3, 406080, Note_off_c, 0, 75, 64
3, 406080, Note_on_c, 0, 71, 92
3, 406480, Note_off_c, 0, 71, 64
3, 406800, Note_on_c, 0, 71, 92
3, 407035, Note_off_c, 0, 71, 64
3, 407040, Note_on_c, 0, 72, 92
3, 407275, Note_off_c, 0, 72, 64
3, 407280, Note_on_c, 0, 72, 92
3, 407515, Note_off_c, 0, 72, 64
3, 407520, Note_on_c, 0, 74, 92
3, 407920, Note_off_c, 0, 74, 64
3, 408240, Note_on_c, 0, 74, 92
3, 408475, Note_off_c, 0, 74, 64
3, 408480, Note_on_c, 0, 75, 92
3, 408715, Note_off_c, 0, 75, 64
3, 408720, Note_on_c, 0, 75, 92
3, 408955, Note_off_c, 0, 75, 64
3, 408960, Note_on_c, 0, 74, 92
3, 409360, Note_off_c, 0, 74, 64
3, 409680, Note_on_c, 0, 74, 92
3, 409915, Note_off_c, 0, 74, 64
3, 409920, Note_on_c, 0, 79, 92
3, 410155, Note_off_c, 0, 79, 64
3, 410160, Note_on_c, 0, 75, 92
3, 410395, Note_off_c, 0, 75, 64
3, 410400, Note_on_c, 0, 80, 92
3, 410800, Note_off_c, 0, 80, 64
3, 411120, Note_on_c, 0, 71, 92
3, 411355, Note_off_c, 0, 71, 64
3, 411360, Note_on_c, 0, 72, 92
3, 411955, Note_off_c, 0, 72, 64
3, 411960, Note_on_c, 0, 75, 92
3, 412080, Note_off_c, 0, 75, 64
3, 412080, Note_on_c, 0, 74, 92
3, 412200, Note_off_c, 0, 74, 64
3, 412200, Note_on_c, 0, 77, 92
3, 412320, Note_off_c, 0, 77, 64
3, 412320, Note_on_c, 0, 75, 92
3, 412440, Note_off_c, 0, 75, 64
3, 412440, Note_on_c, 0, 79, 92
3, 412560, Note_off_c, 0, 79, 64
3, 412560, Note_on_c, 0, 77, 92
3, 412680, Note_off_c, 0, 77, 64
3, 412680, Note_on_c, 0, 80, 92
3, 412795, Note_off_c, 0, 80, 64
3, 412800, Note_on_c, 0, 74, 92
3, 412830, Note_off_c, 0, 74, 64
3, 412830, Note_on_c, 0, 75, 92
3, 412860, Note_off_c, 0, 75, 64
3, 412860, Note_on_c, 0, 74, 92
3, 412890, Note_off_c, 0, 74, 64
3, 412890, Note_on_c, 0, 75, 92
3, 412920, Note_off_c, 0, 75, 64
3, 412920, Note_on_c, 0, 74, 92
3, 412950, Note_off_c, 0, 74, 64
3, 412950, Note_on_c, 0, 75, 92
3, 412980, Note_off_c, 0, 75, 64
3, 412980, Note_on_c, 0, 74, 92
3, 413010, Note_off_c, 0, 74, 64
3, 413010, Note_on_c, 0, 75, 92
3, 413040, Note_off_c, 0, 75, 64
3, 413040, Note_on_c, 0, 74, 92
3, 413070, Note_off_c, 0, 74, 64
3, 413070, Note_on_c, 0, 75, 92
3, 413100, Note_off_c, 0, 75, 64
3, 413100, Note_on_c, 0, 74, 92
3, 413130, Note_off_c, 0, 74, 64
3, 413130, Note_on_c, 0, 75, 92
3, 413160, Note_off_c, 0, 75, 64
3, 413160, Note_on_c, 0, 74, 92
3, 413190, Note_off_c, 0, 74, 64
3, 413190, Note_on_c, 0, 75, 92
3, 413220, Note_off_c, 0, 75, 64
3, 413220, Note_on_c, 0, 74, 92
3, 413250, Note_off_c, 0, 74, 64
3, 413250, Note_on_c, 0, 75, 92
3, 413280, Note_off_c, 0, 75, 64
3, 413280, Note_on_c, 0, 72, 92
3, 413680, Note_off_c, 0, 72, 64
3, 413880, Note_on_c, 0, 84, 92
3, 414000, Note_off_c, 0, 84, 64
3, 414000, Note_on_c, 0, 82, 92
3, 414120, Note_off_c, 0, 82, 64
3, 414120, Note_on_c, 0, 84, 92
3, 414240, Note_off_c, 0, 84, 64
3, 414240, Note_on_c, 0, 80, 92
3, 414360, Note_off_c, 0, 80, 64
3, 414360, Note_on_c, 0, 84, 92
3, 414480, Note_off_c, 0, 84, 64
3, 414480, Note_on_c, 0, 77, 92
3, 414600, Note_off_c, 0, 77, 64
3, 414600, Note_on_c, 0, 80, 92
3, 414720, Note_off_c, 0, 80, 64
3, 414720, Note_on_c, 0, 76, 92
3, 415200, Note_off_c, 0, 76, 64
3, 415440, Note_on_c, 0, 76, 92
3, 415680, Note_off_c, 0, 76, 64
3, 415680, Note_on_c, 0, 77, 92
3, 415920, Note_off_c, 0, 77, 64
3, 415920, Note_on_c, 0, 77, 92
3, 416160, Note_off_c, 0, 77, 64
3, 416160, Note_on_c, 0, 79, 92
3, 416640, Note_off_c, 0, 79, 64
3, 416880, Note_on_c, 0, 79, 92
3, 417120, Note_off_c, 0, 79, 64
3, 417120, Note_on_c, 0, 80, 92
3, 417360, Note_off_c, 0, 80, 64
3, 417360, Note_on_c, 0, 80, 92
3, 417600, Note_off_c, 0, 80, 64
3, 417720, Note_on_c, 0, 82, 92
3, 417835, Note_off_c, 0, 82, 64
3, 417840, Note_on_c, 0, 80, 92
3, 417955, Note_off_c, 0, 80, 64
3, 417960, Note_on_c, 0, 82, 92
3, 418075, Note_off_c, 0, 82, 64
3, 418080, Note_on_c, 0, 79, 92
3, 418795, Note_off_c, 0, 79, 64
3, 418800, Note_on_c, 0, 77, 92
3, 419155, Note_off_c, 0, 77, 64
3, 419160, Note_on_c, 0, 77, 92
3, 419280, Note_off_c, 0, 77, 64
3, 419280, Note_on_c, 0, 76, 92
3, 419400, Note_off_c, 0, 76, 64
3, 419400, Note_on_c, 0, 77, 92
3, 419520, Note_off_c, 0, 77, 64
3, 419520, Note_on_c, 0, 71, 92
3, 420115, Note_off_c, 0, 71, 64
3, 420120, Note_on_c, 0, 74, 92
3, 420240, Note_off_c, 0, 74, 64
3, 420240, Note_on_c, 0, 71, 92
3, 420360, Note_off_c, 0, 71, 64
3, 420360, Note_on_c, 0, 74, 92
3, 420480, Note_off_c, 0, 74, 64
3, 420480, Note_on_c, 0, 79, 92
3, 421800, Note_off_c, 0, 79, 64
3, 421800, End_track
4, 0, Start_track
4, 0, MIDI_port, 0
4, 0, Channel_prefix, 2
4, 0, Control_c, 2, 7, 107
4, 0, Control_c, 2, 10, 80
4, 0, Control_c, 2, 91, 53
4, 0, Program_c, 2, 68
4, 24240, Note_on_c, 2, 75, 30
4, 24720, Note_off_c, 2, 75, 64
4, 24720, Note_on_c, 2, 74, 30
4, 25360, Note_off_c, 2, 74, 64
4, 25680, Note_on_c, 2, 73, 30
4, 26160, Note_off_c, 2, 73, 64
4, 26160, Note_on_c, 2, 72, 30
4, 26800, Note_off_c, 2, 72, 64
4, 27120, Note_on_c, 2, 71, 30
4, 27600, Note_off_c, 2, 71, 64
4, 27600, Note_on_c, 2, 72, 30
4, 28240, Note_off_c, 2, 72, 64
4, 28560, Note_on_c, 2, 72, 30
4, 29160, Note_off_c, 2, 72, 64
4, 29160, Note_on_c, 2, 74, 30
4, 29280, Note_off_c, 2, 74, 64
4, 29280, Note_on_c, 2, 71, 30
4, 29680, Note_off_c, 2, 71, 64
4, 30000, Note_on_c, 2, 68, 30
4, 30480, Note_off_c, 2, 68, 64
4, 30480, Note_on_c, 2, 67, 30
4, 31120, Note_off_c, 2, 67, 64
4, 31440, Note_on_c, 2, 74, 30
4, 32040, Note_off_c, 2, 74, 64
4, 32040, Note_on_c, 2, 75, 30
4, 32160, Note_off_c, 2, 75, 64
4, 32160, Note_on_c, 2, 72, 30
4, 32560, Note_off_c, 2, 72, 64
4, 32880, Note_on_c, 2, 72, 30
4, 33480, Note_off_c, 2, 72, 64
4, 33480, Note_on_c, 2, 74, 30
4, 33600, Note_off_c, 2, 74, 64
4, 33600, Note_on_c, 2, 71, 30
4, 33630, Note_off_c, 2, 71, 64
4, 33630, Note_on_c, 2, 72, 30
4, 33660, Note_off_c, 2, 72, 64
4, 33660, Note_on_c, 2, 71, 30
4, 33690, Note_off_c, 2, 71, 64
4, 33690, Note_on_c, 2, 72, 30
4, 33720, Note_off_c, 2, 72, 64
4, 33720, Note_on_c, 2, 71, 30
4, 33750, Note_off_c, 2, 71, 64
4, 33750, Note_on_c, 2, 72, 30
4, 33780, Note_off_c, 2, 72, 64
4, 33780, Note_on_c, 2, 71, 30
4, 33810, Note_off_c, 2, 71, 64
4, 33810, Note_on_c, 2, 72, 30
4, 33840, Note_off_c, 2, 72, 64
4, 33840, Note_on_c, 2, 71, 30
4, 33870, Note_off_c, 2, 71, 64
4, 33870, Note_on_c, 2, 72, 30
4, 33900, Note_off_c, 2, 72, 64
4, 33900, Note_on_c, 2, 71, 30
4, 33930, Note_off_c, 2, 71, 64
4, 33930, Note_on_c, 2, 72, 30
4, 33960, Note_off_c, 2, 72, 64
4, 33960, Note_on_c, 2, 71, 30
4, 33990, Note_off_c, 2, 71, 64
4, 33990, Note_on_c, 2, 72, 30
4, 34020, Note_off_c, 2, 72, 64
4, 34020, Note_on_c, 2, 71, 30
4, 34050, Note_off_c, 2, 71, 64
4, 34050, Note_on_c, 2, 72, 30
4, 34080, Note_off_c, 2, 72, 64
4, 34080, Note_on_c, 2, 71, 30
4, 34560, Note_off_c, 2, 71, 64
4, 34560, Note_on_c, 2, 72, 30
4, 34795, Note_off_c, 2, 72, 64
4, 57840, Note_on_c, 2, 79, 60
4, 57960, Note_off_c, 2, 79, 64
4, 57960, Note_on_c, 2, 67, 60
4, 58080, Note_off_c, 2, 67, 64
4, 58080, Note_on_c, 2, 72, 60
4, 58315, Note_off_c, 2, 72, 64
4, 58320, Note_on_c, 2, 74, 60
4, 58440, Note_off_c, 2, 74, 64
4, 58440, Note_on_c, 2, 75, 60
4, 58555, Note_off_c, 2, 75, 64
4, 58560, Note_on_c, 2, 75, 60
4, 59040, Note_off_c, 2, 75, 64
4, 59040, Note_on_c, 2, 74, 60
4, 59440, Note_off_c, 2, 74, 64
4, 59760, Note_on_c, 2, 74, 60
4, 59880, Note_off_c, 2, 74, 64
4, 59880, Note_on_c, 2, 71, 60
4, 59995, Note_off_c, 2, 71, 64
4, 60000, Note_on_c, 2, 75, 60
4, 60715, Note_off_c, 2, 75, 64
4, 60720, Note_on_c, 2, 75, 60
4, 60840, Note_off_c, 2, 75, 64
4, 60840, Note_on_c, 2, 72, 60
4, 60955, Note_off_c, 2, 72, 64
4, 60960, Note_on_c, 2, 77, 60
4, 61675, Note_off_c, 2, 77, 64
4, 61680, Note_on_c, 2, 75, 60
4, 61800, Note_off_c, 2, 75, 64
4, 61800, Note_on_c, 2, 79, 60
4, 61920, Note_off_c, 2, 79, 64
4, 61920, Note_on_c, 2, 72, 60
4, 62155, Note_off_c, 2, 72, 64
4, 62160, Note_on_c, 2, 84, 60
4, 62280, Note_off_c, 2, 84, 64
4, 62280, Note_on_c, 2, 72, 60
4, 62400, Note_off_c, 2, 72, 64
4, 62400, Note_on_c, 2, 77, 60
4, 62635, Note_off_c, 2, 77, 64
4, 62640, Note_on_c, 2, 79, 60
4, 62760, Note_off_c, 2, 79, 64
4, 62760, Note_on_c, 2, 80, 60
4, 62880, Note_off_c, 2, 80, 64
4, 62880, Note_on_c, 2, 82, 60
4, 62910, Note_off_c, 2, 82, 64
4, 62910, Note_on_c, 2, 80, 60
4, 62940, Note_off_c, 2, 80, 64
4, 62940, Note_on_c, 2, 82, 60
4, 62970, Note_off_c, 2, 82, 64
4, 62970, Note_on_c, 2, 80, 60
4, 63000, Note_off_c, 2, 80, 64
4, 63000, Note_on_c, 2, 82, 60
4, 63030, Note_off_c, 2, 82, 64
4, 63030, Note_on_c, 2, 80, 60
4, 63060, Note_off_c, 2, 80, 64
4, 63060, Note_on_c, 2, 82, 60
4, 63090, Note_off_c, 2, 82, 64
4, 63090, Note_on_c, 2, 80, 60
4, 63120, Note_off_c, 2, 80, 64
4, 63120, Note_on_c, 2, 79, 60
4, 63240, Note_off_c, 2, 79, 64
4, 63240, Note_on_c, 2, 80, 60
4, 63360, Note_off_c, 2, 80, 64
4, 63360, Note_on_c, 2, 79, 60
4, 63595, Note_off_c, 2, 79, 64
4, 63600, Note_on_c, 2, 74, 60
4, 63720, Note_off_c, 2, 74, 64
4, 63720, Note_on_c, 2, 62, 60
4, 63840, Note_off_c, 2, 62, 64
4, 63840, Note_on_c, 2, 67, 60
4, 64075, Note_off_c, 2, 67, 64
4, 64080, Note_on_c, 2, 69, 60
4, 64200, Note_off_c, 2, 69, 64
4, 64200, Note_on_c, 2, 71, 60
4, 64320, Note_off_c, 2, 71, 64
4, 64320, Note_on_c, 2, 71, 60
4, 64350, Note_off_c, 2, 71, 64
4, 64350, Note_on_c, 2, 72, 60
4, 64380, Note_off_c, 2, 72, 64
4, 64380, Note_on_c, 2, 71, 60
4, 64410, Note_off_c, 2, 71, 64
4, 64410, Note_on_c, 2, 72, 60
4, 64440, Note_off_c, 2, 72, 64
4, 64440, Note_on_c, 2, 71, 60
4, 64470, Note_off_c, 2, 71, 64
4, 64470, Note_on_c, 2, 72, 60
4, 64500, Note_off_c, 2, 72, 64
4, 64500, Note_on_c, 2, 71, 60
4, 64530, Note_off_c, 2, 71, 64
4, 64530, Note_on_c, 2, 72, 60
4, 64560, Note_off_c, 2, 72, 64
4, 64560, Note_on_c, 2, 71, 60
4, 64590, Note_off_c, 2, 71, 64
4, 64590, Note_on_c, 2, 72, 60
4, 64620, Note_off_c, 2, 72, 64
4, 64620, Note_on_c, 2, 71, 60
4, 64650, Note_off_c, 2, 71, 64
4, 64650, Note_on_c, 2, 72, 60
4, 64680, Note_off_c, 2, 72, 64
4, 64680, Note_on_c, 2, 71, 60
4, 64710, Note_off_c, 2, 71, 64
4, 64710, Note_on_c, 2, 72, 60
4, 64740, Note_off_c, 2, 72, 64
4, 64740, Note_on_c, 2, 69, 60
4, 64770, Note_off_c, 2, 69, 64
4, 64770, Note_on_c, 2, 71, 60
4, 64795, Note_off_c, 2, 71, 64
4, 64800, Note_on_c, 2, 72, 60
4, 65035, Note_off_c, 2, 72, 64
4, 65040, Note_on_c, 2, 79, 60
4, 65160, Note_off_c, 2, 79, 64
4, 65160, Note_on_c, 2, 67, 60
4, 65280, Note_off_c, 2, 67, 64
4, 65280, Note_on_c, 2, 72, 60
4, 65515, Note_off_c, 2, 72, 64
4, 65520, Note_on_c, 2, 74, 60
4, 65755, Note_off_c, 2, 74, 64
4, 65760, Note_on_c, 2, 75, 60
4, 65995, Note_off_c, 2, 75, 64
4, 66000, Note_on_c, 2, 74, 60
4, 66120, Note_off_c, 2, 74, 64
4, 66120, Note_on_c, 2, 77, 60
4, 66240, Note_off_c, 2, 77, 64
4, 66240, Note_on_c, 2, 75, 60
4, 66475, Note_off_c, 2, 75, 64
4, 66480, Note_on_c, 2, 84, 60
4, 66600, Note_off_c, 2, 84, 64
4, 66600, Note_on_c, 2, 72, 60
4, 66720, Note_off_c, 2, 72, 64
4, 66720, Note_on_c, 2, 77, 60
4, 66960, Note_off_c, 2, 77, 64
4, 66960, Note_on_c, 2, 79, 60
4, 67200, Note_off_c, 2, 79, 64
4, 67200, Note_on_c, 2, 80, 60
4, 67435, Note_off_c, 2, 80, 64
4, 67440, Note_on_c, 2, 77, 60
4, 67915, Note_off_c, 2, 77, 64
4, 67920, Note_on_c, 2, 79, 60
4, 68040, Note_off_c, 2, 79, 64
4, 68040, Note_on_c, 2, 74, 60
4, 68160, Note_off_c, 2, 74, 64
4, 68160, Note_on_c, 2, 75, 60
4, 68520, Note_off_c, 2, 75, 64
4, 68520, Note_on_c, 2, 77, 60
4, 68635, Note_off_c, 2, 77, 64
4, 68640, Note_on_c, 2, 74, 60
4, 68670, Note_off_c, 2, 74, 64
4, 68670, Note_on_c, 2, 75, 60
4, 68700, Note_off_c, 2, 75, 64
4, 68700, Note_on_c, 2, 74, 60
4, 68730, Note_off_c, 2, 74, 64
4, 68730, Note_on_c, 2, 75, 60
4, 68760, Note_off_c, 2, 75, 64
4, 68760, Note_on_c, 2, 74, 60
4, 68790, Note_off_c, 2, 74, 64
4, 68790, Note_on_c, 2, 75, 60
4, 68820, Note_off_c, 2, 75, 64
4, 68820, Note_on_c, 2, 74, 60
4, 68850, Note_off_c, 2, 74, 64
4, 68850, Note_on_c, 2, 75, 60
4, 68880, Note_off_c, 2, 75, 64
4, 68880, Note_on_c, 2, 74, 60
4, 68910, Note_off_c, 2, 74, 64
4, 68910, Note_on_c, 2, 75, 60
4, 68940, Note_off_c, 2, 75, 64
4, 68940, Note_on_c, 2, 74, 60
4, 68970, Note_off_c, 2, 74, 64
4, 68970, Note_on_c, 2, 75, 60
4, 69000, Note_off_c, 2, 75, 64
4, 69000, Note_on_c, 2, 74, 60
4, 69030, Note_off_c, 2, 74, 64
4, 69030, Note_on_c, 2, 75, 60
4, 69060, Note_off_c, 2, 75, 64
4, 69060, Note_on_c, 2, 74, 60
4, 69090, Note_off_c, 2, 74, 64
4, 69090, Note_on_c, 2, 75, 60
4, 69120, Note_off_c, 2, 75, 64
4, 69120, Note_on_c, 2, 72, 60
4, 69520, Note_off_c, 2, 72, 64
4, 70200, Note_on_c, 2, 69, 60
4, 70320, Note_off_c, 2, 69, 64
4, 70320, Note_on_c, 2, 71, 60
4, 70440, Note_off_c, 2, 71, 64
4, 70440, Note_on_c, 2, 72, 60
4, 70560, Note_off_c, 2, 72, 64
4, 70560, Note_on_c, 2, 71, 60
4, 70960, Note_off_c, 2, 71, 64
4, 71640, Note_on_c, 2, 75, 60
4, 71760, Note_off_c, 2, 75, 64
4, 71760, Note_on_c, 2, 77, 60
4, 71880, Note_off_c, 2, 77, 64
4, 71880, Note_on_c, 2, 79, 60
4, 72000, Note_off_c, 2, 79, 64
4, 72000, Note_on_c, 2, 80, 60
4, 72400, Note_off_c, 2, 80, 64
4, 73080, Note_on_c, 2, 79, 60
4, 73200, Note_off_c, 2, 79, 64
4, 73200, Note_on_c, 2, 81, 60
4, 73320, Note_off_c, 2, 81, 64
4, 73320, Note_on_c, 2, 83, 60
4, 73440, Note_off_c, 2, 83, 64
4, 73440, Note_on_c, 2, 84, 60
4, 73840, Note_off_c, 2, 84, 64
4, 74520, Note_on_c, 2, 74, 60
4, 74640, Note_off_c, 2, 74, 64
4, 74640, Note_on_c, 2, 75, 60
4, 74760, Note_off_c, 2, 75, 64
4, 74760, Note_on_c, 2, 77, 60
4, 74880, Note_off_c, 2, 77, 64
4, 74880, Note_on_c, 2, 71, 60
4, 75280, Note_off_c, 2, 71, 64
4, 75960, Note_on_c, 2, 63, 60
4, 76080, Note_off_c, 2, 63, 64
4, 76080, Note_on_c, 2, 65, 60
4, 76200, Note_off_c, 2, 65, 64
4, 76200, Note_on_c, 2, 67, 60
4, 76320, Note_off_c, 2, 67, 64
4, 76320, Note_on_c, 2, 63, 60
4, 76720, Note_off_c, 2, 63, 64
4, 77400, Note_on_c, 2, 71, 60
4, 77520, Note_off_c, 2, 71, 64
4, 77520, Note_on_c, 2, 72, 60
4, 77640, Note_off_c, 2, 72, 64
4, 77640, Note_on_c, 2, 74, 60
4, 77760, Note_off_c, 2, 74, 64
4, 77760, Note_on_c, 2, 75, 60
4, 78160, Note_off_c, 2, 75, 64
4, 78840, Note_on_c, 2, 71, 60
4, 78960, Note_off_c, 2, 71, 64
4, 78960, Note_on_c, 2, 72, 60
4, 79080, Note_off_c, 2, 72, 64
4, 79080, Note_on_c, 2, 74, 60
4, 79200, Note_off_c, 2, 74, 64
4, 79200, Note_on_c, 2, 75, 60
4, 79320, Note_off_c, 2, 75, 64
4, 79320, Note_on_c, 2, 79, 60
4, 79440, Note_off_c, 2, 79, 64
4, 79440, Note_on_c, 2, 77, 60
4, 79560, Note_off_c, 2, 77, 64
4, 79560, Note_on_c, 2, 75, 60
4, 79680, Note_off_c, 2, 75, 64
4, 79680, Note_on_c, 2, 74, 60
4, 80640, Note_off_c, 2, 74, 64
4, 80640, Note_on_c, 2, 72, 60
4, 80755, Note_off_c, 2, 72, 64
4, 80760, Note_on_c, 2, 72, 60
4, 80880, Note_off_c, 2, 72, 64
4, 80880, Note_on_c, 2, 70, 60
4, 81000, Note_off_c, 2, 70, 64
4, 81000, Note_on_c, 2, 68, 60
4, 81120, Note_off_c, 2, 68, 64
4, 81120, Note_on_c, 2, 67, 60
4, 81240, Note_off_c, 2, 67, 64
4, 81240, Note_on_c, 2, 68, 60
4, 81360, Note_off_c, 2, 68, 64
4, 81360, Note_on_c, 2, 67, 60
4, 81480, Note_off_c, 2, 67, 64
4, 81480, Note_on_c, 2, 65, 60
4, 81600, Note_off_c, 2, 65, 64
4, 81600, Note_on_c, 2, 63, 60
4, 82000, Note_off_c, 2, 63, 64
4, 82200, Note_on_c, 2, 79, 60
4, 82320, Note_off_c, 2, 79, 64
4, 82320, Note_on_c, 2, 77, 60
4, 82440, Note_off_c, 2, 77, 64
4, 82440, Note_on_c, 2, 75, 60
4, 82560, Note_off_c, 2, 75, 64
4, 82560, Note_on_c, 2, 74, 60
4, 82680, Note_off_c, 2, 74, 64
4, 82680, Note_on_c, 2, 75, 60
4, 82800, Note_off_c, 2, 75, 64
4, 82800, Note_on_c, 2, 74, 60
4, 82920, Note_off_c, 2, 74, 64
4, 82920, Note_on_c, 2, 75, 60
4, 83040, Note_off_c, 2, 75, 64
4, 83040, Note_on_c, 2, 72, 60
4, 83635, Note_off_c, 2, 72, 64
4, 83640, Note_on_c, 2, 82, 60
4, 83760, Note_off_c, 2, 82, 64
4, 83760, Note_on_c, 2, 80, 60
4, 83880, Note_off_c, 2, 80, 64
4, 83880, Note_on_c, 2, 79, 60
4, 84000, Note_off_c, 2, 79, 64
4, 84000, Note_on_c, 2, 77, 60
4, 84120, Note_off_c, 2, 77, 64
4, 84120, Note_on_c, 2, 75, 60
4, 84240, Note_off_c, 2, 75, 64
4, 84240, Note_on_c, 2, 74, 60
4, 84360, Note_off_c, 2, 74, 64
4, 84360, Note_on_c, 2, 72, 60
4, 84480, Note_off_c, 2, 72, 64
4, 84480, Note_on_c, 2, 71, 60
4, 84960, Note_off_c, 2, 71, 64
4, 84960, Note_on_c, 2, 72, 60
4, 85075, Note_off_c, 2, 72, 64
4, 85080, Note_on_c, 2, 77, 60
4, 85200, Note_off_c, 2, 77, 64
4, 85200, Note_on_c, 2, 75, 60
4, 85320, Note_off_c, 2, 75, 64
4, 85320, Note_on_c, 2, 74, 60
4, 85440, Note_off_c, 2, 74, 64
4, 85440, Note_on_c, 2, 72, 60
4, 85560, Note_off_c, 2, 72, 64
4, 85560, Note_on_c, 2, 70, 60
4, 85680, Note_off_c, 2, 70, 64
4, 85680, Note_on_c, 2, 68, 60
4, 85800, Note_off_c, 2, 68, 64
4, 85800, Note_on_c, 2, 67, 60
4, 85920, Note_off_c, 2, 67, 64
4, 85920, Note_on_c, 2, 68, 60
4, 86400, Note_off_c, 2, 68, 64
4, 86400, Note_on_c, 2, 67, 60
4, 86515, Note_off_c, 2, 67, 64
4, 86520, Note_on_c, 2, 79, 60
4, 86640, Note_off_c, 2, 79, 64
4, 86640, Note_on_c, 2, 77, 60
4, 86760, Note_off_c, 2, 77, 64
4, 86760, Note_on_c, 2, 75, 60
4, 86880, Note_off_c, 2, 75, 64
4, 86880, Note_on_c, 2, 74, 60
4, 87000, Note_off_c, 2, 74, 64
4, 87000, Note_on_c, 2, 75, 60
4, 87120, Note_off_c, 2, 75, 64
4, 87120, Note_on_c, 2, 74, 60
4, 87240, Note_off_c, 2, 74, 64
4, 87240, Note_on_c, 2, 75, 60
4, 87360, Note_off_c, 2, 75, 64
4, 87360, Note_on_c, 2, 77, 60
4, 87955, Note_off_c, 2, 77, 64
4, 87960, Note_on_c, 2, 75, 60
4, 88080, Note_off_c, 2, 75, 64
4, 88080, Note_on_c, 2, 74, 60
4, 88200, Note_off_c, 2, 74, 64
4, 88200, Note_on_c, 2, 72, 60
4, 88320, Note_off_c, 2, 72, 64
4, 88320, Note_on_c, 2, 71, 60
4, 88440, Note_off_c, 2, 71, 64
4, 88440, Note_on_c, 2, 69, 60
4, 88560, Note_off_c, 2, 69, 64
4, 88560, Note_on_c, 2, 71, 60
4, 88680, Note_off_c, 2, 71, 64
4, 88680, Note_on_c, 2, 72, 60
4, 88800, Note_off_c, 2, 72, 64
4, 88800, Note_on_c, 2, 74, 60
4, 89395, Note_off_c, 2, 74, 64
4, 89400, Note_on_c, 2, 77, 60
4, 89520, Note_off_c, 2, 77, 64
4, 89520, Note_on_c, 2, 75, 60
4, 89640, Note_off_c, 2, 75, 64
4, 89640, Note_on_c, 2, 74, 60
4, 89760, Note_off_c, 2, 74, 64
4, 89760, Note_on_c, 2, 72, 60
4, 90120, Note_off_c, 2, 72, 64
4, 90120, Note_on_c, 2, 70, 60
4, 90240, Note_off_c, 2, 70, 64
4, 90240, Note_on_c, 2, 68, 60
4, 90835, Note_off_c, 2, 68, 64
4, 90840, Note_on_c, 2, 80, 60
4, 90960, Note_off_c, 2, 80, 64
4, 90960, Note_on_c, 2, 79, 60
4, 91080, Note_off_c, 2, 79, 64
4, 91080, Note_on_c, 2, 77, 60
4, 91200, Note_off_c, 2, 77, 64
4, 91200, Note_on_c, 2, 75, 60
4, 91260, Note_off_c, 2, 75, 64
4, 91260, Note_on_c, 2, 77, 60
4, 91320, Note_off_c, 2, 77, 64
4, 91320, Note_on_c, 2, 79, 60
4, 91440, Note_off_c, 2, 79, 64
4, 91440, Note_on_c, 2, 77, 60
4, 91560, Note_off_c, 2, 77, 64
4, 91560, Note_on_c, 2, 79, 60
4, 91620, Note_off_c, 2, 79, 64
4, 91620, Note_on_c, 2, 80, 60
4, 91680, Note_off_c, 2, 80, 64
4, 91680, Note_on_c, 2, 74, 60
4, 91710, Note_off_c, 2, 74, 64
4, 91710, Note_on_c, 2, 75, 60
4, 91740, Note_off_c, 2, 75, 64
4, 91740, Note_on_c, 2, 74, 60
4, 91770, Note_off_c, 2, 74, 64
4, 91770, Note_on_c, 2, 75, 60
4, 91800, Note_off_c, 2, 75, 64
4, 91800, Note_on_c, 2, 74, 60
4, 91830, Note_off_c, 2, 74, 64
4, 91830, Note_on_c, 2, 75, 60
4, 91860, Note_off_c, 2, 75, 64
4, 91860, Note_on_c, 2, 74, 60
4, 91890, Note_off_c, 2, 74, 64
4, 91890, Note_on_c, 2, 75, 60
4, 91920, Note_off_c, 2, 75, 64
4, 91920, Note_on_c, 2, 74, 60
4, 91950, Note_off_c, 2, 74, 64
4, 91950, Note_on_c, 2, 75, 60
4, 91980, Note_off_c, 2, 75, 64
4, 91980, Note_on_c, 2, 74, 60
4, 92010, Note_off_c, 2, 74, 64
4, 92010, Note_on_c, 2, 75, 60
4, 92040, Note_off_c, 2, 75, 64
4, 92040, Note_on_c, 2, 74, 60
4, 92070, Note_off_c, 2, 74, 64
4, 92070, Note_on_c, 2, 75, 60
4, 92100, Note_off_c, 2, 75, 64
4, 92100, Note_on_c, 2, 72, 60
4, 92130, Note_off_c, 2, 72, 64
4, 92130, Note_on_c, 2, 74, 60
4, 92160, Note_off_c, 2, 74, 64
4, 92160, Note_on_c, 2, 72, 60
4, 92560, Note_off_c, 2, 72, 64
4, 94200, Note_on_c, 2, 74, 60
4, 94320, Note_off_c, 2, 74, 64
4, 94320, Note_on_c, 2, 75, 60
4, 94440, Note_off_c, 2, 75, 64
4, 94440, Note_on_c, 2, 77, 60
4, 94560, Note_off_c, 2, 77, 64
4, 94560, Note_on_c, 2, 79, 60
4, 94680, Note_off_c, 2, 79, 64
4, 94680, Note_on_c, 2, 77, 60
4, 94800, Note_off_c, 2, 77, 64
4, 94800, Note_on_c, 2, 75, 60
4, 94920, Note_off_c, 2, 75, 64
4, 94920, Note_on_c, 2, 74, 60
4, 95040, Note_off_c, 2, 74, 64
4, 95040, Note_on_c, 2, 72, 60
4, 95160, Note_off_c, 2, 72, 64
4, 95160, Note_on_c, 2, 73, 60
4, 95280, Note_off_c, 2, 73, 64
4, 95280, Note_on_c, 2, 72, 60
4, 95400, Note_off_c, 2, 72, 64
4, 95400, Note_on_c, 2, 70, 60
4, 95520, Note_off_c, 2, 70, 64
4, 95520, Note_on_c, 2, 68, 60
4, 95635, Note_off_c, 2, 68, 64
4, 95640, Note_on_c, 2, 77, 60
4, 95760, Note_off_c, 2, 77, 64
4, 95760, Note_on_c, 2, 79, 60
4, 95880, Note_off_c, 2, 79, 64
4, 95880, Note_on_c, 2, 80, 60
4, 96000, Note_off_c, 2, 80, 64
4, 96000, Note_on_c, 2, 71, 60
4, 96400, Note_off_c, 2, 71, 64
4, 96600, Note_on_c, 2, 72, 60
4, 96720, Note_off_c, 2, 72, 64
4, 96720, Note_on_c, 2, 74, 60
4, 96840, Note_off_c, 2, 74, 64
4, 96840, Note_on_c, 2, 75, 60
4, 96960, Note_off_c, 2, 75, 64
4, 96960, Note_on_c, 2, 77, 60
4, 97080, Note_off_c, 2, 77, 64
4, 97080, Note_on_c, 2, 79, 60
4, 97200, Note_off_c, 2, 79, 64
4, 97200, Note_on_c, 2, 77, 60
4, 97320, Note_off_c, 2, 77, 64
4, 97320, Note_on_c, 2, 75, 60
4, 97440, Note_off_c, 2, 75, 64
4, 97440, Note_on_c, 2, 74, 60
4, 97555, Note_off_c, 2, 74, 64
4, 97560, Note_on_c, 2, 69, 60
4, 97680, Note_off_c, 2, 69, 64
4, 97680, Note_on_c, 2, 71, 60
4, 97800, Note_off_c, 2, 71, 64
4, 97800, Note_on_c, 2, 72, 60
4, 97920, Note_off_c, 2, 72, 64
4, 97920, Note_on_c, 2, 71, 60
4, 98040, Note_off_c, 2, 71, 64
4, 98040, Note_on_c, 2, 72, 60
4, 98160, Note_off_c, 2, 72, 64
4, 98160, Note_on_c, 2, 71, 60
4, 98280, Note_off_c, 2, 71, 64
4, 98280, Note_on_c, 2, 69, 60
4, 98400, Note_off_c, 2, 69, 64
4, 98400, Note_on_c, 2, 67, 60
4, 98635, Note_off_c, 2, 67, 64
4, 98640, Note_on_c, 2, 77, 60
4, 98760, Note_off_c, 2, 77, 64
4, 98760, Note_on_c, 2, 75, 60
4, 98880, Note_off_c, 2, 75, 64
4, 98880, Note_on_c, 2, 77, 60
4, 99475, Note_off_c, 2, 77, 64
4, 99480, Note_on_c, 2, 80, 60
4, 99600, Note_off_c, 2, 80, 64
4, 99600, Note_on_c, 2, 79, 60
4, 99720, Note_off_c, 2, 79, 64
4, 99720, Note_on_c, 2, 77, 60
4, 99840, Note_off_c, 2, 77, 64
4, 99840, Note_on_c, 2, 75, 60
4, 99955, Note_off_c, 2, 75, 64
4, 99960, Note_on_c, 2, 79, 60
4, 100080, Note_off_c, 2, 79, 64
4, 100080, Note_on_c, 2, 77, 60
4, 100200, Note_off_c, 2, 77, 64
4, 100200, Note_on_c, 2, 75, 60
4, 100315, Note_off_c, 2, 75, 64
4, 100320, Note_on_c, 2, 74, 60
4, 100915, Note_off_c, 2, 74, 64
4, 100920, Note_on_c, 2, 77, 60
4, 101040, Note_off_c, 2, 77, 64
4, 101040, Note_on_c, 2, 75, 60
4, 101160, Note_off_c, 2, 75, 64
4, 101160, Note_on_c, 2, 74, 60
4, 101280, Note_off_c, 2, 74, 64
4, 101280, Note_on_c, 2, 72, 60
4, 101400, Note_off_c, 2, 72, 64
4, 101400, Note_on_c, 2, 75, 60
4, 101520, Note_off_c, 2, 75, 64
4, 101520, Note_on_c, 2, 74, 60
4, 101640, Note_off_c, 2, 74, 64
4, 101640, Note_on_c, 2, 72, 60
4, 101755, Note_off_c, 2, 72, 64
4, 101760, Note_on_c, 2, 73, 60
4, 101880, Note_off_c, 2, 73, 64
4, 101880, Note_on_c, 2, 75, 60
4, 102000, Note_off_c, 2, 75, 64
4, 102000, Note_on_c, 2, 73, 60
4, 102120, Note_off_c, 2, 73, 64
4, 102120, Note_on_c, 2, 72, 60
4, 102240, Note_off_c, 2, 72, 64
4, 102240, Note_on_c, 2, 71, 60
4, 102360, Note_off_c, 2, 71, 64
4, 102360, Note_on_c, 2, 72, 60
4, 102480, Note_off_c, 2, 72, 64
4, 102480, Note_on_c, 2, 74, 60
4, 102835, Note_off_c, 2, 74, 64
4, 102840, Note_on_c, 2, 75, 61
4, 102960, Note_off_c, 2, 75, 64
4, 102960, Note_on_c, 2, 74, 61
4, 103080, Note_off_c, 2, 74, 64
4, 103080, Note_on_c, 2, 72, 61
4, 103435, Note_off_c, 2, 72, 64
4, 103440, Note_on_c, 2, 71, 62
4, 103680, Note_off_c, 2, 71, 64
4, 103680, Note_on_c, 2, 72, 63
4, 104080, Note_off_c, 2, 72, 64
4, 105240, Note_on_c, 2, 67, 75
4, 105360, Note_off_c, 2, 67, 64
4, 105360, Note_on_c, 2, 71, 75
4, 105480, Note_off_c, 2, 71, 64
4, 105480, Note_on_c, 2, 67, 75
4, 105600, Note_off_c, 2, 67, 64
4, 105600, Note_on_c, 2, 74, 75
4, 106000, Note_off_c, 2, 74, 64
4, 106080, Note_on_c, 2, 75, 75
4, 106960, Note_off_c, 2, 75, 64
4, 107160, Note_on_c, 2, 73, 75
4, 107280, Note_off_c, 2, 73, 64
4, 107280, Note_on_c, 2, 77, 75
4, 107400, Note_off_c, 2, 77, 64
4, 107400, Note_on_c, 2, 73, 75
4, 108400, Note_off_c, 2, 73, 64
4, 108480, Note_on_c, 2, 72, 75
4, 108880, Note_off_c, 2, 72, 64
4, 108960, Note_on_c, 2, 74, 75
4, 109360, Note_off_c, 2, 74, 64
4, 109440, Note_on_c, 2, 71, 75
4, 109840, Note_off_c, 2, 71, 64
4, 111480, Note_on_c, 2, 72, 75
4, 111600, Note_off_c, 2, 72, 64
4, 111600, Note_on_c, 2, 75, 75
4, 111720, Note_off_c, 2, 75, 64
4, 111720, Note_on_c, 2, 72, 75
4, 111840, Note_off_c, 2, 72, 64
4, 111840, Note_on_c, 2, 77, 75
4, 111960, Note_off_c, 2, 77, 64
4, 111960, Note_on_c, 2, 74, 75
4, 112080, Note_off_c, 2, 74, 64
4, 112080, Note_on_c, 2, 77, 75
4, 112200, Note_off_c, 2, 77, 64
4, 112200, Note_on_c, 2, 74, 75
4, 112320, Note_off_c, 2, 74, 64
4, 112320, Note_on_c, 2, 75, 75
4, 112720, Note_off_c, 2, 75, 64
4, 112920, Note_on_c, 2, 72, 75
4, 113040, Note_off_c, 2, 72, 64
4, 113040, Note_on_c, 2, 75, 75
4, 113160, Note_off_c, 2, 75, 64
4, 113160, Note_on_c, 2, 72, 75
4, 113280, Note_off_c, 2, 72, 64
4, 113280, Note_on_c, 2, 77, 75
4, 113400, Note_off_c, 2, 77, 64
4, 113400, Note_on_c, 2, 74, 75
4, 113520, Note_off_c, 2, 74, 64
4, 113520, Note_on_c, 2, 77, 75
4, 113640, Note_off_c, 2, 77, 64
4, 113640, Note_on_c, 2, 74, 75
4, 113760, Note_off_c, 2, 74, 64
4, 113760, Note_on_c, 2, 75, 75
4, 114160, Note_off_c, 2, 75, 64
4, 114360, Note_on_c, 2, 72, 75
4, 114480, Note_off_c, 2, 72, 64
4, 114480, Note_on_c, 2, 75, 75
4, 114600, Note_off_c, 2, 75, 64
4, 114600, Note_on_c, 2, 72, 75
4, 114720, Note_off_c, 2, 72, 64
4, 114720, Note_on_c, 2, 77, 75
4, 114840, Note_off_c, 2, 77, 64
4, 114840, Note_on_c, 2, 74, 76
4, 114960, Note_off_c, 2, 74, 64
4, 114960, Note_on_c, 2, 77, 77
4, 115080, Note_off_c, 2, 77, 64
4, 115080, Note_on_c, 2, 74, 78
4, 115200, Note_off_c, 2, 74, 64
4, 115200, Note_on_c, 2, 75, 79
4, 115315, Note_off_c, 2, 75, 64
4, 115320, Note_on_c, 2, 84, 80
4, 115440, Note_off_c, 2, 84, 64
4, 115440, Note_on_c, 2, 82, 81
4, 115560, Note_off_c, 2, 82, 64
4, 115560, Note_on_c, 2, 80, 82
4, 115680, Note_off_c, 2, 80, 64
4, 115680, Note_on_c, 2, 79, 84
4, 115800, Note_off_c, 2, 79, 64
4, 115800, Note_on_c, 2, 77, 86
4, 115920, Note_off_c, 2, 77, 64
4, 115920, Note_on_c, 2, 75, 88
4, 116040, Note_off_c, 2, 75, 64
4, 116040, Note_on_c, 2, 74, 90
4, 116155, Note_off_c, 2, 74, 64
4, 116160, Note_on_c, 2, 72, 92
4, 116280, Note_off_c, 2, 72, 64
4, 116280, Note_on_c, 2, 75, 92
4, 116400, Note_off_c, 2, 75, 64
4, 116400, Note_on_c, 2, 74, 92
4, 116520, Note_off_c, 2, 74, 64
4, 116520, Note_on_c, 2, 72, 92
4, 116640, Note_off_c, 2, 72, 64
4, 116640, Note_on_c, 2, 71, 92
4, 116760, Note_off_c, 2, 71, 64
4, 116760, Note_on_c, 2, 72, 92
4, 116880, Note_off_c, 2, 72, 64
4, 116880, Note_on_c, 2, 71, 92
4, 117000, Note_off_c, 2, 71, 64
4, 117000, Note_on_c, 2, 69, 92
4, 117120, Note_off_c, 2, 69, 64
4, 117120, Note_on_c, 2, 79, 92
4, 117240, Note_off_c, 2, 79, 64
4, 117240, Note_on_c, 2, 77, 92
4, 117360, Note_off_c, 2, 77, 64
4, 117360, Note_on_c, 2, 75, 92
4, 117480, Note_off_c, 2, 75, 64
4, 117480, Note_on_c, 2, 74, 92
4, 117600, Note_off_c, 2, 74, 64
4, 117600, Note_on_c, 2, 72, 92
4, 117715, Note_off_c, 2, 72, 64
4, 117720, Note_on_c, 2, 82, 92
4, 117840, Note_off_c, 2, 82, 64
4, 117840, Note_on_c, 2, 80, 92
4, 117960, Note_off_c, 2, 80, 64
4, 117960, Note_on_c, 2, 79, 92
4, 118080, Note_off_c, 2, 79, 64
4, 118080, Note_on_c, 2, 80, 92
4, 118200, Note_off_c, 2, 80, 64
4, 118200, Note_on_c, 2, 82, 92
4, 118320, Note_off_c, 2, 82, 64
4, 118320, Note_on_c, 2, 80, 92
4, 118440, Note_off_c, 2, 80, 64
4, 118440, Note_on_c, 2, 79, 92
4, 118560, Note_off_c, 2, 79, 64
4, 118560, Note_on_c, 2, 77, 92
4, 118680, Note_off_c, 2, 77, 64
4, 118680, Note_on_c, 2, 75, 92
4, 118800, Note_off_c, 2, 75, 64
4, 118800, Note_on_c, 2, 74, 92
4, 118920, Note_off_c, 2, 74, 64
4, 118920, Note_on_c, 2, 72, 92
4, 119040, Note_off_c, 2, 72, 64
4, 119040, Note_on_c, 2, 71, 92
4, 119160, Note_off_c, 2, 71, 64
4, 119160, Note_on_c, 2, 74, 92
4, 119280, Note_off_c, 2, 74, 64
4, 119280, Note_on_c, 2, 72, 92
4, 119400, Note_off_c, 2, 72, 64
4, 119400, Note_on_c, 2, 71, 92
4, 119520, Note_off_c, 2, 71, 64
4, 119520, Note_on_c, 2, 72, 92
4, 119640, Note_off_c, 2, 72, 64
4, 119640, Note_on_c, 2, 74, 92
4, 119760, Note_off_c, 2, 74, 64
4, 119760, Note_on_c, 2, 72, 92
4, 119880, Note_off_c, 2, 72, 64
4, 119880, Note_on_c, 2, 70, 92
4, 119995, Note_off_c, 2, 70, 64
4, 120000, Note_on_c, 2, 80, 92
4, 120120, Note_off_c, 2, 80, 64
4, 120120, Note_on_c, 2, 79, 92
4, 120240, Note_off_c, 2, 79, 64
4, 120240, Note_on_c, 2, 77, 92
4, 120360, Note_off_c, 2, 77, 64
4, 120360, Note_on_c, 2, 75, 92
4, 120480, Note_off_c, 2, 75, 64
4, 120480, Note_on_c, 2, 74, 92
4, 120600, Note_off_c, 2, 74, 64
4, 120600, Note_on_c, 2, 75, 92
4, 120720, Note_off_c, 2, 75, 64
4, 120720, Note_on_c, 2, 74, 92
4, 120840, Note_off_c, 2, 74, 64
4, 120840, Note_on_c, 2, 72, 92
4, 120960, Note_off_c, 2, 72, 64
4, 120960, Note_on_c, 2, 71, 92
4, 121080, Note_off_c, 2, 71, 64
4, 121080, Note_on_c, 2, 72, 92
4, 121200, Note_off_c, 2, 72, 64
4, 121200, Note_on_c, 2, 71, 92
4, 121320, Note_off_c, 2, 71, 64
4, 121320, Note_on_c, 2, 69, 92
4, 121440, Note_off_c, 2, 69, 64
4, 121440, Note_on_c, 2, 67, 92
4, 121560, Note_off_c, 2, 67, 64
4, 121560, Note_on_c, 2, 69, 92
4, 121680, Note_off_c, 2, 69, 64
4, 121680, Note_on_c, 2, 71, 92
4, 121800, Note_off_c, 2, 71, 64
4, 121800, Note_on_c, 2, 72, 92
4, 121920, Note_off_c, 2, 72, 64
4, 121920, Note_on_c, 2, 71, 92
4, 122040, Note_off_c, 2, 71, 64
4, 122040, Note_on_c, 2, 74, 92
4, 122160, Note_off_c, 2, 74, 64
4, 122160, Note_on_c, 2, 72, 92
4, 122280, Note_off_c, 2, 72, 64
4, 122280, Note_on_c, 2, 71, 92
4, 122400, Note_off_c, 2, 71, 64
4, 122400, Note_on_c, 2, 72, 92
4, 122520, Note_off_c, 2, 72, 64
4, 122520, Note_on_c, 2, 74, 92
4, 122640, Note_off_c, 2, 74, 64
4, 122640, Note_on_c, 2, 75, 92
4, 122760, Note_off_c, 2, 75, 64
4, 122760, Note_on_c, 2, 77, 92
4, 122880, Note_off_c, 2, 77, 64
4, 122880, Note_on_c, 2, 67, 92
4, 123000, Note_off_c, 2, 67, 64
4, 123000, Note_on_c, 2, 69, 92
4, 123120, Note_off_c, 2, 69, 64
4, 123120, Note_on_c, 2, 71, 92
4, 123240, Note_off_c, 2, 71, 64
4, 123240, Note_on_c, 2, 72, 92
4, 123360, Note_off_c, 2, 72, 64
4, 123360, Note_on_c, 2, 74, 92
4, 123475, Note_off_c, 2, 74, 64
4, 123480, Note_on_c, 2, 77, 92
4, 123600, Note_off_c, 2, 77, 64
4, 123600, Note_on_c, 2, 75, 92
4, 123720, Note_off_c, 2, 75, 64
4, 123720, Note_on_c, 2, 74, 92
4, 123840, Note_off_c, 2, 74, 64
4, 123840, Note_on_c, 2, 75, 92
4, 123960, Note_off_c, 2, 75, 64
4, 123960, Note_on_c, 2, 79, 92
4, 124080, Note_off_c, 2, 79, 64
4, 124080, Note_on_c, 2, 84, 92
4, 124200, Note_off_c, 2, 84, 64
4, 124200, Note_on_c, 2, 82, 92
4, 124320, Note_off_c, 2, 82, 64
4, 124320, Note_on_c, 2, 80, 92
4, 124440, Note_off_c, 2, 80, 64
4, 124440, Note_on_c, 2, 79, 92
4, 124560, Note_off_c, 2, 79, 64
4, 124560, Note_on_c, 2, 77, 92
4, 124680, Note_off_c, 2, 77, 64
4, 124680, Note_on_c, 2, 75, 92
4, 124795, Note_off_c, 2, 75, 64
4, 124800, Note_on_c, 2, 74, 92
4, 124920, Note_off_c, 2, 74, 64
4, 124920, Note_on_c, 2, 75, 92
4, 125040, Note_off_c, 2, 75, 64
4, 125040, Note_on_c, 2, 74, 92
4, 125160, Note_off_c, 2, 74, 64
4, 125160, Note_on_c, 2, 72, 92
4, 125280, Note_off_c, 2, 72, 64
4, 125280, Note_on_c, 2, 71, 92
4, 125400, Note_off_c, 2, 71, 64
4, 125400, Note_on_c, 2, 72, 92
4, 125520, Note_off_c, 2, 72, 64
4, 125520, Note_on_c, 2, 74, 92
4, 125640, Note_off_c, 2, 74, 64
4, 125640, Note_on_c, 2, 75, 92
4, 125760, Note_off_c, 2, 75, 64
4, 125760, Note_on_c, 2, 74, 92
4, 125880, Note_off_c, 2, 74, 64
4, 125880, Note_on_c, 2, 72, 92
4, 126000, Note_off_c, 2, 72, 64
4, 126000, Note_on_c, 2, 71, 92
4, 126120, Note_off_c, 2, 71, 64
4, 126120, Note_on_c, 2, 69, 92
4, 126235, Note_off_c, 2, 69, 64
4, 126240, Note_on_c, 2, 67, 92
4, 126360, Note_off_c, 2, 67, 64
4, 126360, Note_on_c, 2, 68, 92
4, 126480, Note_off_c, 2, 68, 64
4, 126480, Note_on_c, 2, 67, 92
4, 126600, Note_off_c, 2, 67, 64
4, 126600, Note_on_c, 2, 65, 92
4, 126720, Note_off_c, 2, 65, 64
4, 126720, Note_on_c, 2, 63, 75
4, 126840, Note_off_c, 2, 63, 64
4, 126840, Note_on_c, 2, 65, 75
4, 126960, Note_off_c, 2, 65, 64
4, 126960, Note_on_c, 2, 67, 75
4, 127080, Note_off_c, 2, 67, 64
4, 127080, Note_on_c, 2, 68, 75
4, 127200, Note_off_c, 2, 68, 64
4, 127200, Note_on_c, 2, 67, 60
4, 127320, Note_off_c, 2, 67, 64
4, 127320, Note_on_c, 2, 65, 60
4, 127440, Note_off_c, 2, 65, 64
4, 127440, Note_on_c, 2, 63, 60
4, 127560, Note_off_c, 2, 63, 64
4, 127560, Note_on_c, 2, 62, 60
4, 127675, Note_off_c, 2, 62, 64
4, 127680, Note_on_c, 2, 72, 45
4, 128080, Note_off_c, 2, 72, 64
4, 128160, Note_on_c, 2, 79, 45
4, 129000, Note_off_c, 2, 79, 64
4, 129120, Note_on_c, 2, 75, 45
4, 129520, Note_off_c, 2, 75, 64
4, 129600, Note_on_c, 2, 77, 45
4, 130440, Note_off_c, 2, 77, 64
4, 130560, Note_on_c, 2, 79, 45
4, 130960, Note_off_c, 2, 79, 64
4, 131040, Note_on_c, 2, 80, 45
4, 131880, Note_off_c, 2, 80, 64
4, 132000, Note_on_c, 2, 77, 45
4, 132400, Note_off_c, 2, 77, 64
4, 132480, Note_on_c, 2, 79, 45
4, 133320, Note_off_c, 2, 79, 64
4, 133440, Note_on_c, 2, 74, 45
4, 133840, Note_off_c, 2, 74, 64
4, 133920, Note_on_c, 2, 75, 45
4, 134760, Note_off_c, 2, 75, 64
4, 134880, Note_on_c, 2, 71, 45
4, 135280, Note_off_c, 2, 71, 64
4, 135360, Note_on_c, 2, 72, 45
4, 136200, Note_off_c, 2, 72, 64
4, 136320, Note_on_c, 2, 65, 45
4, 136720, Note_off_c, 2, 65, 64
4, 136800, Note_on_c, 2, 67, 45
4, 138160, Note_off_c, 2, 67, 64
4, 138240, Note_on_c, 2, 72, 45
4, 139080, Note_off_c, 2, 72, 64
4, 139200, Note_on_c, 2, 72, 45
4, 139600, Note_off_c, 2, 72, 64
4, 139680, Note_on_c, 2, 79, 45
4, 140520, Note_off_c, 2, 79, 64
4, 140640, Note_on_c, 2, 75, 45
4, 141040, Note_off_c, 2, 75, 64
4, 141120, Note_on_c, 2, 77, 45
4, 141960, Note_off_c, 2, 77, 64
4, 142080, Note_on_c, 2, 79, 45
4, 142480, Note_off_c, 2, 79, 64
4, 142560, Note_on_c, 2, 80, 45
4, 143280, Note_off_c, 2, 80, 64
4, 143280, Note_on_c, 2, 79, 45
4, 143520, Note_off_c, 2, 79, 64
4, 143520, Note_on_c, 2, 77, 45
4, 143920, Note_off_c, 2, 77, 64
4, 144000, Note_on_c, 2, 79, 45
4, 144840, Note_off_c, 2, 79, 64
4, 144960, Note_on_c, 2, 74, 45
4, 145360, Note_off_c, 2, 74, 64
4, 145440, Note_on_c, 2, 75, 45
4, 146280, Note_off_c, 2, 75, 64
4, 146400, Note_on_c, 2, 71, 45
4, 146800, Note_off_c, 2, 71, 64
4, 146880, Note_on_c, 2, 72, 45
4, 147720, Note_off_c, 2, 72, 64
4, 147840, Note_on_c, 2, 65, 45
4, 148240, Note_off_c, 2, 65, 64
4, 148320, Note_on_c, 2, 67, 45
4, 149640, Note_off_c, 2, 67, 64
4, 149760, Note_on_c, 2, 72, 45
4, 150600, Note_off_c, 2, 72, 64
4, 151680, Note_on_c, 2, 72, 45
4, 151800, Note_off_c, 2, 72, 64
4, 151800, Note_on_c, 2, 75, 45
4, 151920, Note_off_c, 2, 75, 64
4, 151920, Note_on_c, 2, 74, 45
4, 152040, Note_off_c, 2, 74, 64
4, 152040, Note_on_c, 2, 72, 45
4, 152160, Note_off_c, 2, 72, 64
4, 152160, Note_on_c, 2, 79, 45
4, 152560, Note_off_c, 2, 79, 64
4, 152640, Note_on_c, 2, 72, 45
4, 152760, Note_off_c, 2, 72, 64
4, 152760, Note_on_c, 2, 75, 45
4, 152880, Note_off_c, 2, 75, 64
4, 152880, Note_on_c, 2, 74, 45
4, 153000, Note_off_c, 2, 74, 64
4, 153000, Note_on_c, 2, 72, 45
4, 153120, Note_off_c, 2, 72, 64
4, 153120, Note_on_c, 2, 77, 45
4, 153835, Note_off_c, 2, 77, 64
4, 153840, Note_on_c, 2, 76, 45
4, 154080, Note_off_c, 2, 76, 64
4, 154080, Note_on_c, 2, 77, 45
4, 154200, Note_off_c, 2, 77, 64
4, 154200, Note_on_c, 2, 80, 45
4, 154320, Note_off_c, 2, 80, 64
4, 154320, Note_on_c, 2, 79, 45
4, 154440, Note_off_c, 2, 79, 64
4, 154440, Note_on_c, 2, 77, 45
4, 154555, Note_off_c, 2, 77, 64
4, 154560, Note_on_c, 2, 72, 45
4, 155155, Note_off_c, 2, 72, 64
4, 155160, Note_on_c, 2, 75, 45
4, 155280, Note_off_c, 2, 75, 64
4, 155280, Note_on_c, 2, 74, 45
4, 155400, Note_off_c, 2, 74, 64
4, 155400, Note_on_c, 2, 72, 45
4, 155520, Note_off_c, 2, 72, 64
4, 155520, Note_on_c, 2, 71, 45
4, 156000, Note_off_c, 2, 71, 64
4, 156000, Note_on_c, 2, 72, 45
4, 156480, Note_off_c, 2, 72, 64
4, 156480, Note_on_c, 2, 74, 45
4, 156880, Note_off_c, 2, 74, 64
4, 156960, Note_on_c, 2, 67, 45
4, 157200, Note_off_c, 2, 67, 64
4, 157200, Note_on_c, 2, 72, 45
4, 157555, Note_off_c, 2, 72, 64
4, 157560, Note_on_c, 2, 72, 45
4, 157680, Note_off_c, 2, 72, 64
4, 157680, Note_on_c, 2, 71, 45
4, 157800, Note_off_c, 2, 71, 64
4, 157800, Note_on_c, 2, 69, 45
4, 157920, Note_off_c, 2, 69, 64
4, 157920, Note_on_c, 2, 67, 45
4, 158160, Note_off_c, 2, 67, 64
4, 158160, Note_on_c, 2, 65, 45
4, 158400, Note_off_c, 2, 65, 64
4, 158400, Note_on_c, 2, 63, 45
4, 158640, Note_off_c, 2, 63, 64
4, 158640, Note_on_c, 2, 68, 45
4, 158995, Note_off_c, 2, 68, 64
4, 159000, Note_on_c, 2, 67, 45
4, 159115, Note_off_c, 2, 67, 64
4, 159120, Note_on_c, 2, 72, 45
4, 159240, Note_off_c, 2, 72, 64
4, 159240, Note_on_c, 2, 70, 45
4, 159360, Note_off_c, 2, 70, 64
4, 159360, Note_on_c, 2, 68, 45
4, 159480, Note_off_c, 2, 68, 64
4, 159480, Note_on_c, 2, 77, 45
4, 159600, Note_off_c, 2, 77, 64
4, 159600, Note_on_c, 2, 79, 45
4, 159720, Note_off_c, 2, 79, 64
4, 159720, Note_on_c, 2, 80, 45
4, 159835, Note_off_c, 2, 80, 64
4, 159840, Note_on_c, 2, 71, 45
4, 160320, Note_off_c, 2, 71, 64
4, 160320, Note_on_c, 2, 72, 45
4, 160435, Note_off_c, 2, 72, 64
4, 160440, Note_on_c, 2, 75, 45
4, 160560, Note_off_c, 2, 75, 64
4, 160560, Note_on_c, 2, 74, 45
4, 160680, Note_off_c, 2, 74, 64
4, 160680, Note_on_c, 2, 72, 45
4, 160795, Note_off_c, 2, 72, 64
4, 160800, Note_on_c, 2, 79, 45
4, 161395, Note_off_c, 2, 79, 64
4, 161400, Note_on_c, 2, 82, 45
4, 161520, Note_off_c, 2, 82, 64
4, 161520, Note_on_c, 2, 80, 45
4, 161640, Note_off_c, 2, 80, 64
4, 161640, Note_on_c, 2, 79, 45
4, 161760, Note_off_c, 2, 79, 64
4, 161760, Note_on_c, 2, 84, 45
4, 161995, Note_off_c, 2, 84, 64
4, 162000, Note_on_c, 2, 72, 52
4, 162235, Note_off_c, 2, 72, 64
4, 162360, Note_on_c, 2, 79, 60
4, 162480, Note_off_c, 2, 79, 64
4, 162480, Note_on_c, 2, 75, 60
4, 162600, Note_off_c, 2, 75, 64
4, 162600, Note_on_c, 2, 72, 60
4, 162720, Note_off_c, 2, 72, 64
4, 162720, Note_on_c, 2, 71, 60
4, 162960, Note_off_c, 2, 71, 64
4, 162960, Note_on_c, 2, 67, 60
4, 163195, Note_off_c, 2, 67, 64
4, 163320, Note_on_c, 2, 71, 60
4, 163440, Note_off_c, 2, 71, 64
4, 163440, Note_on_c, 2, 74, 60
4, 163560, Note_off_c, 2, 74, 64
4, 163560, Note_on_c, 2, 79, 60
4, 163675, Note_off_c, 2, 79, 64
4, 163800, Note_on_c, 2, 79, 60
4, 163920, Note_off_c, 2, 79, 64
4, 163920, Note_on_c, 2, 75, 60
4, 164040, Note_off_c, 2, 75, 64
4, 164040, Note_on_c, 2, 72, 60
4, 164160, Note_off_c, 2, 72, 64
4, 164160, Note_on_c, 2, 80, 60
4, 164395, Note_off_c, 2, 80, 64
4, 164400, Note_on_c, 2, 77, 60
4, 164635, Note_off_c, 2, 77, 64
4, 164760, Note_on_c, 2, 68, 60
4, 164880, Note_off_c, 2, 68, 64
4, 164880, Note_on_c, 2, 72, 60
4, 165000, Note_off_c, 2, 72, 64
4, 165000, Note_on_c, 2, 77, 60
4, 165115, Note_off_c, 2, 77, 64
4, 165240, Note_on_c, 2, 79, 60
4, 165360, Note_off_c, 2, 79, 64
4, 165360, Note_on_c, 2, 75, 60
4, 165480, Note_off_c, 2, 75, 64
4, 165480, Note_on_c, 2, 71, 60
4, 165600, Note_off_c, 2, 71, 64
4, 165600, Note_on_c, 2, 72, 60
4, 165835, Note_off_c, 2, 72, 64
4, 165840, Note_on_c, 2, 68, 60
4, 166075, Note_off_c, 2, 68, 64
4, 166200, Note_on_c, 2, 72, 60
4, 166320, Note_off_c, 2, 72, 64
4, 166320, Note_on_c, 2, 75, 60
4, 166440, Note_off_c, 2, 75, 64
4, 166440, Note_on_c, 2, 80, 60
4, 166555, Note_off_c, 2, 80, 64
4, 166680, Note_on_c, 2, 80, 60
4, 166800, Note_off_c, 2, 80, 64
4, 166800, Note_on_c, 2, 75, 60
4, 166920, Note_off_c, 2, 75, 64
4, 166920, Note_on_c, 2, 72, 60
4, 167040, Note_off_c, 2, 72, 64
4, 167040, Note_on_c, 2, 71, 60
4, 167275, Note_off_c, 2, 71, 64
4, 167280, Note_on_c, 2, 67, 60
4, 167515, Note_off_c, 2, 67, 64
4, 167640, Note_on_c, 2, 71, 60
4, 167760, Note_off_c, 2, 71, 64
4, 167760, Note_on_c, 2, 74, 60
4, 167880, Note_off_c, 2, 74, 64
4, 167880, Note_on_c, 2, 79, 60
4, 167995, Note_off_c, 2, 79, 64
4, 168120, Note_on_c, 2, 80, 60
4, 168240, Note_off_c, 2, 80, 64
4, 168240, Note_on_c, 2, 77, 60
4, 168360, Note_off_c, 2, 77, 64
4, 168360, Note_on_c, 2, 71, 60
4, 168480, Note_off_c, 2, 71, 64
4, 168480, Note_on_c, 2, 79, 60
4, 168715, Note_off_c, 2, 79, 64
4, 168720, Note_on_c, 2, 75, 60
4, 168955, Note_off_c, 2, 75, 64
4, 169080, Note_on_c, 2, 67, 60
4, 169200, Note_off_c, 2, 67, 64
4, 169200, Note_on_c, 2, 70, 60
4, 169320, Note_off_c, 2, 70, 64
4, 169320, Note_on_c, 2, 75, 60
4, 169435, Note_off_c, 2, 75, 64
4, 169560, Note_on_c, 2, 77, 60
4, 169680, Note_off_c, 2, 77, 64
4, 169680, Note_on_c, 2, 74, 60
4, 169800, Note_off_c, 2, 74, 64
4, 169800, Note_on_c, 2, 67, 60
4, 169920, Note_off_c, 2, 67, 64
4, 169920, Note_on_c, 2, 75, 60
4, 170155, Note_off_c, 2, 75, 64
4, 170160, Note_on_c, 2, 72, 60
4, 170395, Note_off_c, 2, 72, 64
4, 170520, Note_on_c, 2, 63, 60
4, 170640, Note_off_c, 2, 63, 64
4, 170640, Note_on_c, 2, 67, 60
4, 170760, Note_off_c, 2, 67, 64
4, 170760, Note_on_c, 2, 72, 60
4, 170875, Note_off_c, 2, 72, 64
4, 171000, Note_on_c, 2, 80, 60
4, 171120, Note_off_c, 2, 80, 64
4, 171120, Note_on_c, 2, 77, 60
4, 171240, Note_off_c, 2, 77, 64
4, 171240, Note_on_c, 2, 74, 60
4, 171360, Note_off_c, 2, 74, 64
4, 171360, Note_on_c, 2, 75, 60
4, 171440, Note_off_c, 2, 75, 64
4, 171440, Note_on_c, 2, 77, 60
4, 171520, Note_off_c, 2, 77, 64
4, 171520, Note_on_c, 2, 75, 60
4, 171600, Note_off_c, 2, 75, 64
4, 171600, Note_on_c, 2, 72, 60
4, 171835, Note_off_c, 2, 72, 64
4, 171960, Note_on_c, 2, 72, 60
4, 172080, Note_off_c, 2, 72, 64
4, 172080, Note_on_c, 2, 75, 60
4, 172200, Note_off_c, 2, 75, 64
4, 172200, Note_on_c, 2, 79, 60
4, 172315, Note_off_c, 2, 79, 64
4, 172320, Note_on_c, 2, 71, 60
4, 172440, Note_off_c, 2, 71, 64
4, 172440, Note_on_c, 2, 74, 60
4, 172560, Note_off_c, 2, 74, 64
4, 172560, Note_on_c, 2, 77, 60
4, 172680, Note_off_c, 2, 77, 64
4, 172680, Note_on_c, 2, 71, 60
4, 172800, Note_off_c, 2, 71, 64
4, 172800, Note_on_c, 2, 75, 60
4, 173200, Note_off_c, 2, 75, 64
4, 173760, Note_on_c, 2, 72, 75
4, 174160, Note_off_c, 2, 72, 64
4, 174240, Note_on_c, 2, 71, 75
4, 175080, Note_off_c, 2, 71, 64
4, 175200, Note_on_c, 2, 72, 75
4, 175600, Note_off_c, 2, 72, 64
4, 175680, Note_on_c, 2, 72, 75
4, 176520, Note_off_c, 2, 72, 64
4, 176640, Note_on_c, 2, 71, 75
4, 177040, Note_off_c, 2, 71, 64
4, 177120, Note_on_c, 2, 72, 75
4, 177960, Note_off_c, 2, 72, 64
4, 178080, Note_on_c, 2, 72, 75
4, 178480, Note_off_c, 2, 72, 64
4, 178560, Note_on_c, 2, 71, 75
4, 179400, Note_off_c, 2, 71, 64
4, 179520, Note_on_c, 2, 71, 75
4, 179920, Note_off_c, 2, 71, 64
4, 180000, Note_on_c, 2, 72, 75
4, 180840, Note_off_c, 2, 72, 64
4, 180960, Note_on_c, 2, 74, 75
4, 181360, Note_off_c, 2, 74, 64
4, 181440, Note_on_c, 2, 72, 75
4, 182280, Note_off_c, 2, 72, 64
4, 182400, Note_on_c, 2, 72, 75
4, 182800, Note_off_c, 2, 72, 64
4, 182880, Note_on_c, 2, 74, 75
4, 184200, Note_off_c, 2, 74, 64
4, 184320, Note_on_c, 2, 72, 85
4, 185160, Note_off_c, 2, 72, 64
4, 185520, Note_on_c, 2, 75, 127
4, 185755, Note_off_c, 2, 75, 64
4, 185880, Note_on_c, 2, 84, 92
4, 186000, Note_off_c, 2, 84, 64
4, 186000, Note_on_c, 2, 86, 92
4, 186240, Note_off_c, 2, 86, 64
4, 186240, Note_on_c, 2, 83, 92
4, 186720, Note_off_c, 2, 83, 64
4, 186720, Note_on_c, 2, 84, 92
4, 186955, Note_off_c, 2, 84, 64
4, 186960, Note_on_c, 2, 75, 127
4, 187195, Note_off_c, 2, 75, 64
4, 187320, Note_on_c, 2, 82, 92
4, 187440, Note_off_c, 2, 82, 64
4, 187440, Note_on_c, 2, 84, 92
4, 187680, Note_off_c, 2, 84, 64
4, 187680, Note_on_c, 2, 80, 92
4, 188160, Note_off_c, 2, 80, 64
4, 188160, Note_on_c, 2, 79, 92
4, 188395, Note_off_c, 2, 79, 64
4, 188400, Note_on_c, 2, 74, 127
4, 188635, Note_off_c, 2, 74, 64
4, 188760, Note_on_c, 2, 86, 92
4, 188880, Note_off_c, 2, 86, 64
4, 188880, Note_on_c, 2, 87, 92
4, 189120, Note_off_c, 2, 87, 64
4, 189120, Note_on_c, 2, 84, 92
4, 189835, Note_off_c, 2, 84, 64
4, 189840, Note_on_c, 2, 77, 127
4, 190075, Note_off_c, 2, 77, 64
4, 190200, Note_on_c, 2, 84, 92
4, 190320, Note_off_c, 2, 84, 64
4, 190320, Note_on_c, 2, 86, 92
4, 190560, Note_off_c, 2, 86, 64
4, 190560, Note_on_c, 2, 83, 92
4, 191275, Note_off_c, 2, 83, 64
4, 191280, Note_on_c, 2, 74, 127
4, 191515, Note_off_c, 2, 74, 64
4, 191640, Note_on_c, 2, 78, 92
4, 191760, Note_off_c, 2, 78, 64
4, 191760, Note_on_c, 2, 79, 92
4, 192000, Note_off_c, 2, 79, 64
4, 192000, Note_on_c, 2, 75, 92
4, 192480, Note_off_c, 2, 75, 64
4, 192480, Note_on_c, 2, 74, 92
4, 192715, Note_off_c, 2, 74, 64
4, 192720, Note_on_c, 2, 74, 127
4, 192955, Note_off_c, 2, 74, 64
4, 193080, Note_on_c, 2, 77, 92
4, 193200, Note_off_c, 2, 77, 64
4, 193200, Note_on_c, 2, 79, 92
4, 193440, Note_off_c, 2, 79, 64
4, 193440, Note_on_c, 2, 75, 92
4, 193920, Note_off_c, 2, 75, 64
4, 193920, Note_on_c, 2, 77, 92
4, 194155, Note_off_c, 2, 77, 64
4, 194160, Note_on_c, 2, 77, 127
4, 194395, Note_off_c, 2, 77, 64
4, 194520, Note_on_c, 2, 77, 92
4, 194640, Note_off_c, 2, 77, 64
4, 194640, Note_on_c, 2, 79, 92
4, 194880, Note_off_c, 2, 79, 64
4, 194880, Note_on_c, 2, 75, 92
4, 195360, Note_off_c, 2, 75, 64
4, 195360, Note_on_c, 2, 74, 92
4, 195595, Note_off_c, 2, 74, 64
4, 195600, Note_on_c, 2, 74, 127
4, 195835, Note_off_c, 2, 74, 64
4, 195960, Note_on_c, 2, 77, 92
4, 196080, Note_off_c, 2, 77, 64
4, 196080, Note_on_c, 2, 79, 92
4, 196320, Note_off_c, 2, 79, 64
4, 196320, Note_on_c, 2, 72, 92
4, 196720, Note_off_c, 2, 72, 64
4, 196920, Note_on_c, 2, 77, 92
4, 196980, Note_off_c, 2, 77, 64
4, 196980, Note_on_c, 2, 75, 92
4, 197035, Note_off_c, 2, 75, 64
4, 197040, Note_on_c, 2, 75, 92
4, 197160, Note_off_c, 2, 75, 64
4, 197160, Note_on_c, 2, 74, 92
4, 197220, Note_off_c, 2, 74, 64
4, 197220, Note_on_c, 2, 72, 92
4, 197275, Note_off_c, 2, 72, 64
4, 197280, Note_on_c, 2, 72, 92
4, 197400, Note_off_c, 2, 72, 64
4, 197400, Note_on_c, 2, 71, 92
4, 197460, Note_off_c, 2, 71, 64
4, 197460, Note_on_c, 2, 69, 92
4, 197515, Note_off_c, 2, 69, 64
4, 197520, Note_on_c, 2, 69, 92
4, 197640, Note_off_c, 2, 69, 64
4, 197640, Note_on_c, 2, 71, 92
4, 197700, Note_off_c, 2, 71, 64
4, 197700, Note_on_c, 2, 72, 92
4, 197755, Note_off_c, 2, 72, 64
4, 197760, Note_on_c, 2, 71, 92
4, 197880, Note_off_c, 2, 71, 64
4, 197880, Note_on_c, 2, 72, 92
4, 197940, Note_off_c, 2, 72, 64
4, 197940, Note_on_c, 2, 74, 92
4, 197995, Note_off_c, 2, 74, 64
4, 198000, Note_on_c, 2, 74, 92
4, 198120, Note_off_c, 2, 74, 64
4, 198120, Note_on_c, 2, 75, 92
4, 198180, Note_off_c, 2, 75, 64
4, 198180, Note_on_c, 2, 77, 92
4, 198235, Note_off_c, 2, 77, 64
4, 198240, Note_on_c, 2, 75, 92
4, 198360, Note_off_c, 2, 75, 64
4, 198360, Note_on_c, 2, 77, 92
4, 198420, Note_off_c, 2, 77, 64
4, 198420, Note_on_c, 2, 79, 92
4, 198475, Note_off_c, 2, 79, 64
4, 198480, Note_on_c, 2, 79, 92
4, 198600, Note_off_c, 2, 79, 64
4, 198600, Note_on_c, 2, 80, 92
4, 198660, Note_off_c, 2, 80, 64
4, 198660, Note_on_c, 2, 82, 92
4, 198715, Note_off_c, 2, 82, 64
4, 198720, Note_on_c, 2, 80, 92
4, 198840, Note_off_c, 2, 80, 64
4, 198840, Note_on_c, 2, 79, 92
4, 198900, Note_off_c, 2, 79, 64
4, 198900, Note_on_c, 2, 77, 92
4, 198955, Note_off_c, 2, 77, 64
4, 198960, Note_on_c, 2, 77, 92
4, 199080, Note_off_c, 2, 77, 64
4, 199080, Note_on_c, 2, 75, 92
4, 199140, Note_off_c, 2, 75, 64
4, 199140, Note_on_c, 2, 74, 92
4, 199195, Note_off_c, 2, 74, 64
4, 199200, Note_on_c, 2, 74, 92
4, 199320, Note_off_c, 2, 74, 64
4, 199320, Note_on_c, 2, 75, 92
4, 199380, Note_off_c, 2, 75, 64
4, 199380, Note_on_c, 2, 77, 92
4, 199435, Note_off_c, 2, 77, 64
4, 199440, Note_on_c, 2, 77, 92
4, 199560, Note_off_c, 2, 77, 64
4, 199560, Note_on_c, 2, 79, 92
4, 199620, Note_off_c, 2, 79, 64
4, 199620, Note_on_c, 2, 80, 92
4, 199675, Note_off_c, 2, 80, 64
4, 199680, Note_on_c, 2, 71, 92
4, 199710, Note_off_c, 2, 71, 64
4, 199710, Note_on_c, 2, 72, 92
4, 199740, Note_off_c, 2, 72, 64
4, 199740, Note_on_c, 2, 71, 92
4, 199770, Note_off_c, 2, 71, 64
4, 199770, Note_on_c, 2, 72, 92
4, 199800, Note_off_c, 2, 72, 64
4, 199800, Note_on_c, 2, 71, 92
4, 199830, Note_off_c, 2, 71, 64
4, 199830, Note_on_c, 2, 72, 92
4, 199860, Note_off_c, 2, 72, 64
4, 199860, Note_on_c, 2, 71, 92
4, 199890, Note_off_c, 2, 71, 64
4, 199890, Note_on_c, 2, 72, 92
4, 199920, Note_off_c, 2, 72, 64
4, 199920, Note_on_c, 2, 71, 92
4, 199950, Note_off_c, 2, 71, 64
4, 199950, Note_on_c, 2, 72, 92
4, 199980, Note_off_c, 2, 72, 64
4, 199980, Note_on_c, 2, 71, 92
4, 200010, Note_off_c, 2, 71, 64
4, 200010, Note_on_c, 2, 72, 92
4, 200040, Note_off_c, 2, 72, 64
4, 200040, Note_on_c, 2, 71, 92
4, 200070, Note_off_c, 2, 71, 64
4, 200070, Note_on_c, 2, 72, 92
4, 200100, Note_off_c, 2, 72, 64
4, 200100, Note_on_c, 2, 71, 92
4, 200130, Note_off_c, 2, 71, 64
4, 200130, Note_on_c, 2, 72, 92
4, 200160, Note_off_c, 2, 72, 64
4, 200160, Note_on_c, 2, 71, 92
4, 200220, Note_off_c, 2, 71, 64
4, 200220, Note_on_c, 2, 72, 92
4, 200280, Note_off_c, 2, 72, 64
4, 200280, Note_on_c, 2, 71, 92
4, 200340, Note_off_c, 2, 71, 64
4, 200340, Note_on_c, 2, 72, 92
4, 200400, Note_off_c, 2, 72, 64
4, 200400, Note_on_c, 2, 71, 92
4, 200455, Note_off_c, 2, 71, 64
4, 200460, Note_on_c, 2, 84, 92
4, 200520, Note_off_c, 2, 84, 64
4, 200520, Note_on_c, 2, 83, 92
4, 200580, Note_off_c, 2, 83, 64
4, 200580, Note_on_c, 2, 80, 92
4, 200635, Note_off_c, 2, 80, 64
4, 200640, Note_on_c, 2, 80, 92
4, 200700, Note_off_c, 2, 80, 64
4, 200700, Note_on_c, 2, 79, 92
4, 200760, Note_off_c, 2, 79, 64
4, 200760, Note_on_c, 2, 77, 92
4, 200815, Note_off_c, 2, 77, 64
4, 200820, Note_on_c, 2, 77, 92
4, 200880, Note_off_c, 2, 77, 64
4, 200880, Note_on_c, 2, 75, 92
4, 200940, Note_off_c, 2, 75, 64
4, 200940, Note_on_c, 2, 74, 92
4, 200995, Note_off_c, 2, 74, 64
4, 201000, Note_on_c, 2, 74, 92
4, 201060, Note_off_c, 2, 74, 64
4, 201060, Note_on_c, 2, 75, 92
4, 201120, Note_off_c, 2, 75, 64
4, 201120, Note_on_c, 2, 77, 92
4, 201175, Note_off_c, 2, 77, 64
4, 201180, Note_on_c, 2, 77, 92
4, 201240, Note_off_c, 2, 77, 64
4, 201240, Note_on_c, 2, 79, 92
4, 201300, Note_off_c, 2, 79, 64
4, 201300, Note_on_c, 2, 80, 92
4, 201355, Note_off_c, 2, 80, 64
4, 201360, Note_on_c, 2, 80, 92
4, 201480, Note_off_c, 2, 80, 64
4, 201480, Note_on_c, 2, 83, 92
4, 201540, Note_off_c, 2, 83, 64
4, 201540, Note_on_c, 2, 84, 92
4, 201595, Note_off_c, 2, 84, 64
4, 201600, Note_on_c, 2, 83, 92
4, 201960, Note_off_c, 2, 83, 64
4, 201960, Note_on_c, 2, 81, 92
4, 202080, Note_off_c, 2, 81, 64
4, 202080, Note_on_c, 2, 83, 92
4, 202480, Note_off_c, 2, 83, 64
4, 204720, Note_on_c, 2, 79, 92
4, 204840, Note_off_c, 2, 79, 64
4, 204840, Note_on_c, 2, 77, 92
4, 204900, Note_off_c, 2, 77, 64
4, 204900, Note_on_c, 2, 75, 92
4, 204955, Note_off_c, 2, 75, 64
4, 204960, Note_on_c, 2, 75, 92
4, 205080, Note_off_c, 2, 75, 64
4, 205080, Note_on_c, 2, 74, 92
4, 205140, Note_off_c, 2, 74, 64
4, 205140, Note_on_c, 2, 72, 92
4, 205195, Note_off_c, 2, 72, 64
4, 205200, Note_on_c, 2, 84, 92
4, 205320, Note_off_c, 2, 84, 64
4, 205320, Note_on_c, 2, 83, 92
4, 205380, Note_off_c, 2, 83, 64
4, 205380, Note_on_c, 2, 80, 92
4, 205435, Note_off_c, 2, 80, 64
4, 205440, Note_on_c, 2, 80, 92
4, 205560, Note_off_c, 2, 80, 64
4, 205560, Note_on_c, 2, 79, 92
4, 205620, Note_off_c, 2, 79, 64
4, 205620, Note_on_c, 2, 77, 92
4, 205675, Note_off_c, 2, 77, 64
4, 205680, Note_on_c, 2, 77, 92
4, 205800, Note_off_c, 2, 77, 64
4, 205800, Note_on_c, 2, 75, 92
4, 205860, Note_off_c, 2, 75, 64
4, 205860, Note_on_c, 2, 74, 92
4, 205915, Note_off_c, 2, 74, 64
4, 205920, Note_on_c, 2, 74, 92
4, 206040, Note_off_c, 2, 74, 64
4, 206040, Note_on_c, 2, 72, 92
4, 206100, Note_off_c, 2, 72, 64
4, 206100, Note_on_c, 2, 71, 92
4, 206155, Note_off_c, 2, 71, 64
4, 206160, Note_on_c, 2, 71, 92
4, 206280, Note_off_c, 2, 71, 64
4, 206280, Note_on_c, 2, 72, 92
4, 206340, Note_off_c, 2, 72, 64
4, 206340, Note_on_c, 2, 74, 92
4, 206395, Note_off_c, 2, 74, 64
4, 206400, Note_on_c, 2, 74, 92
4, 206520, Note_off_c, 2, 74, 64
4, 206520, Note_on_c, 2, 75, 92
4, 206580, Note_off_c, 2, 75, 64
4, 206580, Note_on_c, 2, 77, 92
4, 206635, Note_off_c, 2, 77, 64
4, 206640, Note_on_c, 2, 77, 92
4, 206760, Note_off_c, 2, 77, 64
4, 206760, Note_on_c, 2, 79, 92
4, 206820, Note_off_c, 2, 79, 64
4, 206820, Note_on_c, 2, 80, 92
4, 206875, Note_off_c, 2, 80, 64
4, 206880, Note_on_c, 2, 83, 92
4, 206910, Note_off_c, 2, 83, 64
4, 206910, Note_on_c, 2, 84, 92
4, 206940, Note_off_c, 2, 84, 64
4, 206940, Note_on_c, 2, 83, 92
4, 206940, Note_on_c, 2, 71, 92
4, 206970, Note_off_c, 2, 71, 64
4, 206970, Note_off_c, 2, 83, 64
4, 206970, Note_on_c, 2, 84, 92
4, 207000, Note_off_c, 2, 84, 64
4, 207000, Note_on_c, 2, 83, 92
4, 207000, Note_on_c, 2, 71, 92
4, 207030, Note_off_c, 2, 71, 64
4, 207030, Note_off_c, 2, 83, 64
4, 207030, Note_on_c, 2, 84, 92
4, 207060, Note_off_c, 2, 84, 64
4, 207060, Note_on_c, 2, 83, 92
4, 207060, Note_on_c, 2, 71, 92
4, 207090, Note_off_c, 2, 71, 64
4, 207090, Note_off_c, 2, 83, 64
4, 207090, Note_on_c, 2, 84, 92
4, 207120, Note_off_c, 2, 84, 64
4, 207120, Note_on_c, 2, 83, 92
4, 207120, Note_on_c, 2, 71, 92
4, 207150, Note_off_c, 2, 71, 64
4, 207150, Note_off_c, 2, 83, 64
4, 207150, Note_on_c, 2, 84, 92
4, 207180, Note_off_c, 2, 84, 64
4, 207180, Note_on_c, 2, 83, 92
4, 207180, Note_on_c, 2, 71, 92
4, 207210, Note_off_c, 2, 71, 64
4, 207210, Note_off_c, 2, 83, 64
4, 207210, Note_on_c, 2, 84, 92
4, 207240, Note_off_c, 2, 84, 64
4, 207240, Note_on_c, 2, 83, 92
4, 207240, Note_on_c, 2, 71, 92
4, 207270, Note_off_c, 2, 71, 64
4, 207270, Note_off_c, 2, 83, 64
4, 207270, Note_on_c, 2, 84, 92
4, 207300, Note_off_c, 2, 84, 64
4, 207300, Note_on_c, 2, 83, 92
4, 207300, Note_on_c, 2, 71, 92
4, 207330, Note_off_c, 2, 71, 64
4, 207330, Note_off_c, 2, 83, 64
4, 207330, Note_on_c, 2, 84, 92
4, 207360, Note_off_c, 2, 84, 64
4, 207360, Note_on_c, 2, 84, 92
4, 207475, Note_off_c, 2, 84, 64
4, 207480, Note_on_c, 2, 82, 94
4, 207540, Note_off_c, 2, 82, 64
4, 207540, Note_on_c, 2, 80, 95
4, 207595, Note_off_c, 2, 80, 64
4, 207600, Note_on_c, 2, 79, 96
4, 207720, Note_off_c, 2, 79, 64
4, 207720, Note_on_c, 2, 77, 98
4, 207780, Note_off_c, 2, 77, 64
4, 207780, Note_on_c, 2, 75, 99
4, 207835, Note_off_c, 2, 75, 64
4, 207840, Note_on_c, 2, 75, 100
4, 207960, Note_off_c, 2, 75, 64
4, 207960, Note_on_c, 2, 74, 102
4, 208020, Note_off_c, 2, 74, 64
4, 208020, Note_on_c, 2, 72, 103
4, 208075, Note_off_c, 2, 72, 64
4, 208080, Note_on_c, 2, 72, 104
4, 208195, Note_off_c, 2, 72, 64
4, 208320, Note_on_c, 2, 72, 108
4, 209035, Note_off_c, 2, 72, 64
4, 209040, Note_on_c, 2, 71, 108
4, 209160, Note_off_c, 2, 71, 64
4, 209160, Note_on_c, 2, 69, 108
4, 209280, Note_off_c, 2, 69, 64
4, 209280, Note_on_c, 2, 71, 108
4, 209515, Note_off_c, 2, 71, 64
4, 209520, Note_on_c, 2, 72, 108
4, 209640, Note_off_c, 2, 72, 64
4, 209640, Note_on_c, 2, 74, 108
4, 209760, Note_off_c, 2, 74, 64
4, 209760, Note_on_c, 2, 75, 108
4, 210000, Note_off_c, 2, 75, 64
4, 210000, Note_on_c, 2, 72, 108
4, 210235, Note_off_c, 2, 72, 64
4, 210240, Note_on_c, 2, 70, 108
4, 210360, Note_off_c, 2, 70, 64
4, 210360, Note_on_c, 2, 68, 108
4, 210480, Note_off_c, 2, 68, 64
4, 210480, Note_on_c, 2, 74, 108
4, 210600, Note_off_c, 2, 74, 64
4, 210600, Note_on_c, 2, 72, 108
4, 210720, Note_off_c, 2, 72, 64
4, 210720, Note_on_c, 2, 74, 108
4, 210955, Note_off_c, 2, 74, 64
4, 210960, Note_on_c, 2, 75, 108
4, 211080, Note_off_c, 2, 75, 64
4, 211080, Note_on_c, 2, 77, 108
4, 211200, Note_off_c, 2, 77, 64
4, 211200, Note_on_c, 2, 71, 108
4, 211915, Note_off_c, 2, 71, 64
4, 211920, Note_on_c, 2, 72, 108
4, 212040, Note_off_c, 2, 72, 64
4, 212040, Note_on_c, 2, 71, 108
4, 212160, Note_off_c, 2, 71, 64
4, 212160, Note_on_c, 2, 72, 108
4, 212395, Note_off_c, 2, 72, 64
4, 212400, Note_on_c, 2, 74, 108
4, 212520, Note_off_c, 2, 74, 64
4, 212520, Note_on_c, 2, 75, 108
4, 212640, Note_off_c, 2, 75, 64
4, 212640, Note_on_c, 2, 77, 108
4, 213355, Note_off_c, 2, 77, 64
4, 213360, Note_on_c, 2, 75, 108
4, 213480, Note_off_c, 2, 75, 64
4, 213480, Note_on_c, 2, 74, 108
4, 213600, Note_off_c, 2, 74, 64
4, 213600, Note_on_c, 2, 75, 108
4, 213835, Note_off_c, 2, 75, 64
4, 213840, Note_on_c, 2, 77, 108
4, 213960, Note_off_c, 2, 77, 64
4, 213960, Note_on_c, 2, 79, 108
4, 214080, Note_off_c, 2, 79, 64
4, 214080, Note_on_c, 2, 74, 108
4, 214795, Note_off_c, 2, 74, 64
4, 214800, Note_on_c, 2, 72, 108
4, 214920, Note_off_c, 2, 72, 64
4, 214920, Note_on_c, 2, 71, 108
4, 215040, Note_off_c, 2, 71, 64
4, 215040, Note_on_c, 2, 72, 108
4, 215275, Note_off_c, 2, 72, 64
4, 215280, Note_on_c, 2, 74, 108
4, 215400, Note_off_c, 2, 74, 64
4, 215400, Note_on_c, 2, 75, 108
4, 215520, Note_off_c, 2, 75, 64
4, 215520, Note_on_c, 2, 77, 108
4, 216235, Note_off_c, 2, 77, 64
4, 216240, Note_on_c, 2, 75, 108
4, 216360, Note_off_c, 2, 75, 64
4, 216360, Note_on_c, 2, 74, 108
4, 216480, Note_off_c, 2, 74, 64
4, 216480, Note_on_c, 2, 75, 108
4, 216715, Note_off_c, 2, 75, 64
4, 216720, Note_on_c, 2, 77, 108
4, 216840, Note_off_c, 2, 77, 64
4, 216840, Note_on_c, 2, 79, 108
4, 216960, Note_off_c, 2, 79, 64
4, 216960, Note_on_c, 2, 80, 108
4, 217675, Note_off_c, 2, 80, 64
4, 217680, Note_on_c, 2, 79, 108
4, 217800, Note_off_c, 2, 79, 64
4, 217800, Note_on_c, 2, 77, 108
4, 217920, Note_off_c, 2, 77, 64
4, 217920, Note_on_c, 2, 79, 108
4, 218155, Note_off_c, 2, 79, 64
4, 218160, Note_on_c, 2, 77, 108
4, 218280, Note_off_c, 2, 77, 64
4, 218280, Note_on_c, 2, 75, 108
4, 218400, Note_off_c, 2, 75, 64
4, 218400, Note_on_c, 2, 75, 108
4, 218635, Note_off_c, 2, 75, 64
4, 218640, Note_on_c, 2, 74, 108
4, 218760, Note_off_c, 2, 74, 64
4, 218760, Note_on_c, 2, 72, 108
4, 218880, Note_off_c, 2, 72, 64
4, 218880, Note_on_c, 2, 72, 108
4, 219520, Note_off_c, 2, 72, 64
4, 219600, Note_on_c, 2, 84, 108
4, 219720, Note_off_c, 2, 84, 64
4, 219720, Note_on_c, 2, 83, 108
4, 219840, Note_off_c, 2, 83, 64
4, 219840, Note_on_c, 2, 84, 108
4, 220075, Note_off_c, 2, 84, 64
4, 220080, Note_on_c, 2, 72, 108
4, 220915, Note_off_c, 2, 72, 64
4, 220920, Note_on_c, 2, 74, 108
4, 221040, Note_off_c, 2, 74, 64
4, 221040, Note_on_c, 2, 72, 108
4, 221160, Note_off_c, 2, 72, 64
4, 221160, Note_on_c, 2, 71, 108
4, 221280, Note_off_c, 2, 71, 64
4, 221280, Note_on_c, 2, 72, 108
4, 221875, Note_off_c, 2, 72, 64
4, 221880, Note_on_c, 2, 74, 108
4, 222000, Note_off_c, 2, 74, 64
4, 222000, Note_on_c, 2, 72, 108
4, 222120, Note_off_c, 2, 72, 64
4, 222120, Note_on_c, 2, 71, 108
4, 222240, Note_off_c, 2, 71, 64
4, 222240, Note_on_c, 2, 72, 108
4, 222835, Note_off_c, 2, 72, 64
4, 222840, Note_on_c, 2, 74, 108
4, 222960, Note_off_c, 2, 74, 64
4, 222960, Note_on_c, 2, 72, 108
4, 223080, Note_off_c, 2, 72, 64
4, 223080, Note_on_c, 2, 71, 108
4, 223200, Note_off_c, 2, 71, 64
4, 223200, Note_on_c, 2, 72, 108
4, 223795, Note_off_c, 2, 72, 64
4, 223800, Note_on_c, 2, 74, 108
4, 223920, Note_off_c, 2, 74, 64
4, 223920, Note_on_c, 2, 72, 108
4, 224040, Note_off_c, 2, 72, 64
4, 224040, Note_on_c, 2, 71, 108
4, 224160, Note_off_c, 2, 71, 64
4, 224160, Note_on_c, 2, 72, 108
4, 224755, Note_off_c, 2, 72, 64
4, 224760, Note_on_c, 2, 74, 108
4, 224880, Note_off_c, 2, 74, 64
4, 224880, Note_on_c, 2, 72, 108
4, 225000, Note_off_c, 2, 72, 64
4, 225000, Note_on_c, 2, 71, 108
4, 225120, Note_off_c, 2, 71, 64
4, 225120, Note_on_c, 2, 72, 108
4, 225355, Note_off_c, 2, 72, 64
4, 225360, Note_on_c, 2, 71, 108
4, 225480, Note_off_c, 2, 71, 64
4, 225480, Note_on_c, 2, 69, 108
4, 225600, Note_off_c, 2, 69, 64
4, 225600, Note_on_c, 2, 71, 108
4, 226195, Note_off_c, 2, 71, 64
4, 226200, Note_on_c, 2, 74, 108
4, 226320, Note_off_c, 2, 74, 64
4, 226320, Note_on_c, 2, 72, 108
4, 226440, Note_off_c, 2, 72, 64
4, 226440, Note_on_c, 2, 71, 108
4, 226560, Note_off_c, 2, 71, 64
4, 226560, Note_on_c, 2, 72, 108
4, 226915, Note_off_c, 2, 72, 64
4, 226920, Note_on_c, 2, 75, 108
4, 227040, Note_off_c, 2, 75, 64
4, 227040, Note_on_c, 2, 74, 108
4, 227160, Note_off_c, 2, 74, 64
4, 227160, Note_on_c, 2, 77, 108
4, 227280, Note_off_c, 2, 77, 64
4, 227280, Note_on_c, 2, 75, 108
4, 227400, Note_off_c, 2, 75, 64
4, 227400, Note_on_c, 2, 74, 108
4, 227520, Note_off_c, 2, 74, 64
4, 227520, Note_on_c, 2, 75, 108
4, 228115, Note_off_c, 2, 75, 64
4, 228120, Note_on_c, 2, 79, 108
4, 228240, Note_off_c, 2, 79, 64
4, 228240, Note_on_c, 2, 77, 108
4, 228360, Note_off_c, 2, 77, 64
4, 228360, Note_on_c, 2, 75, 108
4, 228475, Note_off_c, 2, 75, 64
4, 228480, Note_on_c, 2, 80, 108
4, 228880, Note_off_c, 2, 80, 64
4, 228960, Note_on_c, 2, 74, 108
4, 229555, Note_off_c, 2, 74, 64
4, 229560, Note_on_c, 2, 75, 108
4, 229680, Note_off_c, 2, 75, 64
4, 229680, Note_on_c, 2, 74, 108
4, 229800, Note_off_c, 2, 74, 64
4, 229800, Note_on_c, 2, 72, 108
4, 230035, Note_off_c, 2, 72, 64
4, 230040, Note_on_c, 2, 74, 108
4, 230160, Note_off_c, 2, 74, 64
4, 230160, Note_on_c, 2, 72, 108
4, 230280, Note_off_c, 2, 72, 64
4, 230280, Note_on_c, 2, 71, 108
4, 230400, Note_off_c, 2, 71, 64
4, 230400, Note_on_c, 2, 72, 108
4, 230800, Note_off_c, 2, 72, 64
4, 231600, Note_on_c, 2, 75, 108
4, 231960, Note_off_c, 2, 75, 64
4, 231960, Note_on_c, 2, 77, 108
4, 232080, Note_off_c, 2, 77, 64
4, 232080, Note_on_c, 2, 75, 108
4, 232200, Note_off_c, 2, 75, 64
4, 232200, Note_on_c, 2, 74, 108
4, 232320, Note_off_c, 2, 74, 64
4, 232320, Note_on_c, 2, 75, 108
4, 232915, Note_off_c, 2, 75, 64
4, 232920, Note_on_c, 2, 77, 108
4, 233040, Note_off_c, 2, 77, 64
4, 233040, Note_on_c, 2, 75, 108
4, 233160, Note_off_c, 2, 75, 64
4, 233160, Note_on_c, 2, 74, 108
4, 233280, Note_off_c, 2, 74, 64
4, 233280, Note_on_c, 2, 75, 108
4, 233875, Note_off_c, 2, 75, 64
4, 233880, Note_on_c, 2, 77, 108
4, 234000, Note_off_c, 2, 77, 64
4, 234000, Note_on_c, 2, 75, 108
4, 234120, Note_off_c, 2, 75, 64
4, 234120, Note_on_c, 2, 74, 108
4, 234240, Note_off_c, 2, 74, 64
4, 234240, Note_on_c, 2, 75, 108
4, 234835, Note_off_c, 2, 75, 64
4, 234840, Note_on_c, 2, 77, 108
4, 234960, Note_off_c, 2, 77, 64
4, 234960, Note_on_c, 2, 75, 108
4, 235080, Note_off_c, 2, 75, 64
4, 235080, Note_on_c, 2, 74, 108
4, 235200, Note_off_c, 2, 74, 64
4, 235200, Note_on_c, 2, 75, 108
4, 235795, Note_off_c, 2, 75, 64
4, 235800, Note_on_c, 2, 77, 108
4, 235920, Note_off_c, 2, 77, 64
4, 235920, Note_on_c, 2, 75, 108
4, 236040, Note_off_c, 2, 75, 64
4, 236040, Note_on_c, 2, 74, 108
4, 236160, Note_off_c, 2, 74, 64
4, 236160, Note_on_c, 2, 75, 108
4, 236755, Note_off_c, 2, 75, 64
4, 236760, Note_on_c, 2, 79, 108
4, 236880, Note_off_c, 2, 79, 64
4, 236880, Note_on_c, 2, 77, 108
4, 237000, Note_off_c, 2, 77, 64
4, 237000, Note_on_c, 2, 75, 108
4, 237120, Note_off_c, 2, 75, 64
4, 237120, Note_on_c, 2, 74, 108
4, 237360, Note_off_c, 2, 74, 64
4, 237360, Note_on_c, 2, 80, 108
4, 237595, Note_off_c, 2, 80, 64
4, 237600, Note_on_c, 2, 79, 108
4, 238195, Note_off_c, 2, 79, 64
4, 238200, Note_on_c, 2, 80, 108
4, 238320, Note_off_c, 2, 80, 64
4, 238320, Note_on_c, 2, 79, 108
4, 238440, Note_off_c, 2, 79, 64
4, 238440, Note_on_c, 2, 77, 108
4, 238560, Note_off_c, 2, 77, 64
4, 238560, Note_on_c, 2, 79, 108
4, 239155, Note_off_c, 2, 79, 64
4, 239160, Note_on_c, 2, 80, 108
4, 239280, Note_off_c, 2, 80, 64
4, 239280, Note_on_c, 2, 79, 108
4, 239400, Note_off_c, 2, 79, 64
4, 239400, Note_on_c, 2, 77, 108
4, 239520, Note_off_c, 2, 77, 64
4, 239520, Note_on_c, 2, 75, 108
4, 240115, Note_off_c, 2, 75, 64
4, 240120, Note_on_c, 2, 77, 108
4, 240240, Note_off_c, 2, 77, 64
4, 240240, Note_on_c, 2, 75, 108
4, 240360, Note_off_c, 2, 75, 64
4, 240360, Note_on_c, 2, 74, 108
4, 240480, Note_off_c, 2, 74, 64
4, 240480, Note_on_c, 2, 75, 108
4, 241075, Note_off_c, 2, 75, 64
4, 241080, Note_on_c, 2, 77, 108
4, 241200, Note_off_c, 2, 77, 64
4, 241200, Note_on_c, 2, 75, 108
4, 241320, Note_off_c, 2, 75, 64
4, 241320, Note_on_c, 2, 74, 108
4, 241440, Note_off_c, 2, 74, 64
4, 241440, Note_on_c, 2, 75, 75
4, 241560, Note_off_c, 2, 75, 64
4, 241560, Note_on_c, 2, 77, 75
4, 241680, Note_off_c, 2, 77, 64
4, 241680, Note_on_c, 2, 75, 75
4, 241800, Note_off_c, 2, 75, 64
4, 241800, Note_on_c, 2, 74, 75
4, 241920, Note_off_c, 2, 74, 64
4, 241920, Note_on_c, 2, 72, 60
4, 242040, Note_off_c, 2, 72, 64
4, 242040, Note_on_c, 2, 74, 60
4, 242160, Note_off_c, 2, 74, 64
4, 242160, Note_on_c, 2, 72, 60
4, 242280, Note_off_c, 2, 72, 64
4, 242280, Note_on_c, 2, 71, 60
4, 242400, Note_off_c, 2, 71, 64
4, 242400, Note_on_c, 2, 72, 60
4, 242520, Note_off_c, 2, 72, 64
4, 242520, Note_on_c, 2, 71, 60
4, 242640, Note_off_c, 2, 71, 64
4, 242640, Note_on_c, 2, 72, 60
4, 242760, Note_off_c, 2, 72, 64
4, 242760, Note_on_c, 2, 74, 60
4, 242880, Note_off_c, 2, 74, 64
4, 242880, Note_on_c, 2, 75, 60
4, 243280, Note_off_c, 2, 75, 64
4, 250080, Note_on_c, 2, 67, 60
4, 250480, Note_off_c, 2, 67, 64
4, 250560, Note_on_c, 2, 74, 60
4, 251400, Note_off_c, 2, 74, 64
4, 251520, Note_on_c, 2, 70, 60
4, 251920, Note_off_c, 2, 70, 64
4, 252000, Note_on_c, 2, 72, 60
4, 252840, Note_off_c, 2, 72, 64
4, 252960, Note_on_c, 2, 74, 60
4, 253360, Note_off_c, 2, 74, 64
4, 253440, Note_on_c, 2, 75, 60
4, 254280, Note_off_c, 2, 75, 64
4, 254400, Note_on_c, 2, 72, 60
4, 254800, Note_off_c, 2, 72, 64
4, 254880, Note_on_c, 2, 74, 60
4, 255720, Note_off_c, 2, 74, 64
4, 260880, Note_on_c, 2, 75, 60
4, 261120, Note_off_c, 2, 75, 64
4, 261120, Note_on_c, 2, 71, 60
4, 261355, Note_off_c, 2, 71, 64
4, 261360, Note_on_c, 2, 71, 60
4, 261600, Note_off_c, 2, 71, 64
4, 261600, Note_on_c, 2, 72, 60
4, 262000, Note_off_c, 2, 72, 64
4, 262320, Note_on_c, 2, 80, 60
4, 262560, Note_off_c, 2, 80, 64
4, 262560, Note_on_c, 2, 74, 60
4, 262795, Note_off_c, 2, 74, 64
4, 262800, Note_on_c, 2, 74, 60
4, 263035, Note_off_c, 2, 74, 64
4, 263040, Note_on_c, 2, 76, 60
4, 263440, Note_off_c, 2, 76, 64
4, 263760, Note_on_c, 2, 77, 60
4, 264000, Note_off_c, 2, 77, 64
4, 264000, Note_on_c, 2, 72, 60
4, 264235, Note_off_c, 2, 72, 64
4, 264240, Note_on_c, 2, 72, 60
4, 264480, Note_off_c, 2, 72, 64
4, 264480, Note_on_c, 2, 74, 60
4, 264880, Note_off_c, 2, 74, 64
4, 265200, Note_on_c, 2, 75, 60
4, 265440, Note_off_c, 2, 75, 64
4, 265440, Note_on_c, 2, 71, 60
4, 265675, Note_off_c, 2, 71, 64
4, 265680, Note_on_c, 2, 71, 60
4, 265915, Note_off_c, 2, 71, 64
4, 265920, Note_on_c, 2, 79, 60
4, 266040, Note_off_c, 2, 79, 64
4, 266040, Note_on_c, 2, 80, 60
4, 266160, Note_off_c, 2, 80, 64
4, 266160, Note_on_c, 2, 77, 60
4, 266280, Note_off_c, 2, 77, 64
4, 266280, Note_on_c, 2, 79, 60
4, 266400, Note_off_c, 2, 79, 64
4, 266400, Note_on_c, 2, 75, 60
4, 266520, Note_off_c, 2, 75, 64
4, 266520, Note_on_c, 2, 77, 60
4, 266640, Note_off_c, 2, 77, 64
4, 266640, Note_on_c, 2, 74, 60
4, 266760, Note_off_c, 2, 74, 64
4, 266760, Note_on_c, 2, 75, 60
4, 266880, Note_off_c, 2, 75, 64
4, 266880, Note_on_c, 2, 72, 60
4, 267000, Note_off_c, 2, 72, 64
4, 267000, Note_on_c, 2, 74, 60
4, 267120, Note_off_c, 2, 74, 64
4, 267120, Note_on_c, 2, 70, 60
4, 267240, Note_off_c, 2, 70, 64
4, 267240, Note_on_c, 2, 72, 60
4, 267355, Note_off_c, 2, 72, 64
4, 267360, Note_on_c, 2, 69, 60
4, 267480, Note_off_c, 2, 69, 64
4, 267480, Note_on_c, 2, 70, 60
4, 267600, Note_off_c, 2, 70, 64
4, 267600, Note_on_c, 2, 67, 60
4, 267720, Note_off_c, 2, 67, 64
4, 267720, Note_on_c, 2, 69, 60
4, 267840, Note_off_c, 2, 69, 64
4, 267840, Note_on_c, 2, 66, 60
4, 267960, Note_off_c, 2, 66, 64
4, 267960, Note_on_c, 2, 69, 60
4, 268080, Note_off_c, 2, 69, 64
4, 268080, Note_on_c, 2, 67, 60
4, 268200, Note_off_c, 2, 67, 64
4, 268200, Note_on_c, 2, 70, 60
4, 268320, Note_off_c, 2, 70, 64
4, 268320, Note_on_c, 2, 69, 60
4, 268440, Note_off_c, 2, 69, 64
4, 268440, Note_on_c, 2, 74, 60
4, 268560, Note_off_c, 2, 74, 64
4, 268560, Note_on_c, 2, 72, 60
4, 268680, Note_off_c, 2, 72, 64
4, 268680, Note_on_c, 2, 74, 60
4, 268795, Note_off_c, 2, 74, 64
4, 268800, Note_on_c, 2, 67, 60
4, 268920, Note_off_c, 2, 67, 64
4, 268920, Note_on_c, 2, 79, 60
4, 269040, Note_off_c, 2, 79, 64
4, 269040, Note_on_c, 2, 77, 60
4, 269160, Note_off_c, 2, 77, 64
4, 269160, Note_on_c, 2, 79, 60
4, 269280, Note_off_c, 2, 79, 64
4, 269280, Note_on_c, 2, 75, 60
4, 269400, Note_off_c, 2, 75, 64
4, 269400, Note_on_c, 2, 79, 60
4, 269520, Note_off_c, 2, 79, 64
4, 269520, Note_on_c, 2, 75, 60
4, 269640, Note_off_c, 2, 75, 64
4, 269640, Note_on_c, 2, 79, 60
4, 269760, Note_off_c, 2, 79, 64
4, 269760, Note_on_c, 2, 75, 60
4, 269880, Note_off_c, 2, 75, 64
4, 269880, Note_on_c, 2, 77, 60
4, 270000, Note_off_c, 2, 77, 64
4, 270000, Note_on_c, 2, 75, 60
4, 270120, Note_off_c, 2, 75, 64
4, 270120, Note_on_c, 2, 77, 60
4, 270235, Note_off_c, 2, 77, 64
4, 270240, Note_on_c, 2, 74, 60
4, 270360, Note_off_c, 2, 74, 64
4, 270360, Note_on_c, 2, 77, 60
4, 270480, Note_off_c, 2, 77, 64
4, 270480, Note_on_c, 2, 74, 60
4, 270600, Note_off_c, 2, 74, 64
4, 270600, Note_on_c, 2, 77, 60
4, 270720, Note_off_c, 2, 77, 64
4, 270720, Note_on_c, 2, 72, 60
4, 270840, Note_off_c, 2, 72, 64
4, 270840, Note_on_c, 2, 75, 60
4, 270960, Note_off_c, 2, 75, 64
4, 270960, Note_on_c, 2, 74, 60
4, 271080, Note_off_c, 2, 74, 64
4, 271080, Note_on_c, 2, 77, 60
4, 271200, Note_off_c, 2, 77, 64
4, 271200, Note_on_c, 2, 75, 60
4, 271320, Note_off_c, 2, 75, 64
4, 271320, Note_on_c, 2, 77, 60
4, 271440, Note_off_c, 2, 77, 64
4, 271440, Note_on_c, 2, 75, 60
4, 271560, Note_off_c, 2, 75, 64
4, 271560, Note_on_c, 2, 77, 60
4, 271675, Note_off_c, 2, 77, 64
4, 271680, Note_on_c, 2, 75, 60
4, 271800, Note_off_c, 2, 75, 64
4, 271800, Note_on_c, 2, 77, 60
4, 271920, Note_off_c, 2, 77, 64
4, 271920, Note_on_c, 2, 75, 60
4, 272040, Note_off_c, 2, 75, 64
4, 272040, Note_on_c, 2, 77, 60
4, 272160, Note_off_c, 2, 77, 64
4, 272160, Note_on_c, 2, 74, 60
4, 272280, Note_off_c, 2, 74, 64
4, 272280, Note_on_c, 2, 75, 60
4, 272400, Note_off_c, 2, 75, 64
4, 272400, Note_on_c, 2, 74, 60
4, 272520, Note_off_c, 2, 74, 64
4, 272520, Note_on_c, 2, 75, 60
4, 272640, Note_off_c, 2, 75, 64
4, 272640, Note_on_c, 2, 74, 60
4, 272760, Note_off_c, 2, 74, 64
4, 272760, Note_on_c, 2, 75, 60
4, 272880, Note_off_c, 2, 75, 64
4, 272880, Note_on_c, 2, 72, 60
4, 273000, Note_off_c, 2, 72, 64
4, 273000, Note_on_c, 2, 74, 60
4, 273115, Note_off_c, 2, 74, 64
4, 273120, Note_on_c, 2, 70, 60
4, 273240, Note_off_c, 2, 70, 64
4, 273240, Note_on_c, 2, 74, 60
4, 273360, Note_off_c, 2, 74, 64
4, 273360, Note_on_c, 2, 72, 60
4, 273480, Note_off_c, 2, 72, 64
4, 273480, Note_on_c, 2, 75, 60
4, 273600, Note_off_c, 2, 75, 64
4, 273600, Note_on_c, 2, 74, 60
4, 273835, Note_off_c, 2, 74, 64
4, 273840, Note_on_c, 2, 67, 60
4, 273955, Note_off_c, 2, 67, 64
4, 273960, Note_on_c, 2, 70, 60
4, 274075, Note_off_c, 2, 70, 64
4, 274080, Note_on_c, 2, 69, 60
4, 274195, Note_off_c, 2, 69, 64
4, 274200, Note_on_c, 2, 72, 60
4, 274315, Note_off_c, 2, 72, 64
4, 274320, Note_on_c, 2, 70, 60
4, 274435, Note_off_c, 2, 70, 64
4, 274440, Note_on_c, 2, 72, 60
4, 274555, Note_off_c, 2, 72, 64
4, 274560, Note_on_c, 2, 69, 60
4, 274590, Note_off_c, 2, 69, 64
4, 274590, Note_on_c, 2, 70, 60
4, 274620, Note_off_c, 2, 70, 64
4, 274620, Note_on_c, 2, 69, 60
4, 274650, Note_off_c, 2, 69, 64
4, 274650, Note_on_c, 2, 70, 60
4, 274680, Note_off_c, 2, 70, 64
4, 274680, Note_on_c, 2, 69, 60
4, 274710, Note_off_c, 2, 69, 64
4, 274710, Note_on_c, 2, 70, 60
4, 274740, Note_off_c, 2, 70, 64
4, 274740, Note_on_c, 2, 69, 60
4, 274770, Note_off_c, 2, 69, 64
4, 274770, Note_on_c, 2, 70, 60
4, 274800, Note_off_c, 2, 70, 64
4, 274800, Note_on_c, 2, 69, 60
4, 274830, Note_off_c, 2, 69, 64
4, 274830, Note_on_c, 2, 70, 60
4, 274860, Note_off_c, 2, 70, 64
4, 274860, Note_on_c, 2, 69, 60
4, 274890, Note_off_c, 2, 69, 64
4, 274890, Note_on_c, 2, 70, 60
4, 274920, Note_off_c, 2, 70, 64
4, 274920, Note_on_c, 2, 69, 60
4, 274950, Note_off_c, 2, 69, 64
4, 274950, Note_on_c, 2, 70, 60
4, 274980, Note_off_c, 2, 70, 64
4, 274980, Note_on_c, 2, 69, 60
4, 275010, Note_off_c, 2, 69, 64
4, 275010, Note_on_c, 2, 70, 60
4, 275040, Note_off_c, 2, 70, 64
4, 275040, Note_on_c, 2, 67, 60
4, 275155, Note_off_c, 2, 67, 64
4, 275160, Note_on_c, 2, 71, 61
4, 275280, Note_off_c, 2, 71, 64
4, 275280, Note_on_c, 2, 69, 63
4, 275400, Note_off_c, 2, 69, 64
4, 275400, Note_on_c, 2, 72, 65
4, 275520, Note_off_c, 2, 72, 64
4, 275520, Note_on_c, 2, 71, 67
4, 275640, Note_off_c, 2, 71, 64
4, 275640, Note_on_c, 2, 79, 69
4, 275760, Note_off_c, 2, 79, 64
4, 275760, Note_on_c, 2, 77, 71
4, 275880, Note_off_c, 2, 77, 64
4, 275880, Note_on_c, 2, 79, 73
4, 275995, Note_off_c, 2, 79, 64
4, 276000, Note_on_c, 2, 75, 75
4, 276120, Note_off_c, 2, 75, 64
4, 276120, Note_on_c, 2, 79, 75
4, 276240, Note_off_c, 2, 79, 64
4, 276240, Note_on_c, 2, 77, 75
4, 276360, Note_off_c, 2, 77, 64
4, 276360, Note_on_c, 2, 80, 75
4, 276480, Note_off_c, 2, 80, 64
4, 276480, Note_on_c, 2, 71, 75
4, 276600, Note_off_c, 2, 71, 64
4, 276600, Note_on_c, 2, 74, 75
4, 276720, Note_off_c, 2, 74, 64
4, 276720, Note_on_c, 2, 72, 75
4, 276840, Note_off_c, 2, 72, 64
4, 276840, Note_on_c, 2, 75, 75
4, 276960, Note_off_c, 2, 75, 64
4, 276960, Note_on_c, 2, 74, 75
4, 277080, Note_off_c, 2, 74, 64
4, 277080, Note_on_c, 2, 75, 75
4, 277200, Note_off_c, 2, 75, 64
4, 277200, Note_on_c, 2, 74, 75
4, 277320, Note_off_c, 2, 74, 64
4, 277320, Note_on_c, 2, 75, 75
4, 277435, Note_off_c, 2, 75, 64
4, 277440, Note_on_c, 2, 72, 75
4, 277560, Note_off_c, 2, 72, 64
4, 277560, Note_on_c, 2, 75, 75
4, 277680, Note_off_c, 2, 75, 64
4, 277680, Note_on_c, 2, 74, 75
4, 277800, Note_off_c, 2, 74, 64
4, 277800, Note_on_c, 2, 75, 75
4, 277920, Note_off_c, 2, 75, 64
4, 277920, Note_on_c, 2, 72, 75
4, 278320, Note_off_c, 2, 72, 64
4, 278400, Note_on_c, 2, 70, 75
4, 279115, Note_off_c, 2, 70, 64
4, 279120, Note_on_c, 2, 70, 75
4, 279360, Note_off_c, 2, 70, 64
4, 279360, Note_on_c, 2, 68, 75
4, 279600, Note_off_c, 2, 68, 64
4, 279600, Note_on_c, 2, 72, 75
4, 279835, Note_off_c, 2, 72, 64
4, 279840, Note_on_c, 2, 77, 75
4, 280200, Note_off_c, 2, 77, 64
4, 280200, Note_on_c, 2, 75, 75
4, 280315, Note_off_c, 2, 75, 64
4, 280320, Note_on_c, 2, 74, 75
4, 280560, Note_off_c, 2, 74, 64
4, 280560, Note_on_c, 2, 72, 75
4, 280800, Note_off_c, 2, 72, 64
4, 280800, Note_on_c, 2, 70, 75
4, 281200, Note_off_c, 2, 70, 64
4, 281280, Note_on_c, 2, 75, 75
4, 281760, Note_off_c, 2, 75, 64
4, 281760, Note_on_c, 2, 77, 75
4, 282160, Note_off_c, 2, 77, 64
4, 282240, Note_on_c, 2, 79, 75
4, 282360, Note_off_c, 2, 79, 64
4, 282360, Note_on_c, 2, 80, 75
4, 282480, Note_off_c, 2, 80, 64
4, 282480, Note_on_c, 2, 82, 75
4, 282600, Note_off_c, 2, 82, 64
4, 282600, Note_on_c, 2, 75, 75
4, 282720, Note_off_c, 2, 75, 64
4, 282720, Note_on_c, 2, 75, 75
4, 283120, Note_off_c, 2, 75, 64
4, 283200, Note_on_c, 2, 74, 75
4, 283230, Note_off_c, 2, 74, 64
4, 283230, Note_on_c, 2, 75, 75
4, 283260, Note_off_c, 2, 75, 64
4, 283260, Note_on_c, 2, 74, 75
4, 283290, Note_off_c, 2, 74, 64
4, 283290, Note_on_c, 2, 75, 75
4, 283320, Note_off_c, 2, 75, 64
4, 283320, Note_on_c, 2, 74, 75
4, 283350, Note_off_c, 2, 74, 64
4, 283350, Note_on_c, 2, 75, 75
4, 283380, Note_off_c, 2, 75, 64
4, 283380, Note_on_c, 2, 74, 75
4, 283410, Note_off_c, 2, 74, 64
4, 283410, Note_on_c, 2, 75, 75
4, 283440, Note_off_c, 2, 75, 64
4, 283440, Note_on_c, 2, 74, 75
4, 283470, Note_off_c, 2, 74, 64
4, 283470, Note_on_c, 2, 75, 75
4, 283500, Note_off_c, 2, 75, 64
4, 283500, Note_on_c, 2, 74, 75
4, 283530, Note_off_c, 2, 74, 64
4, 283530, Note_on_c, 2, 75, 75
4, 283560, Note_off_c, 2, 75, 64
4, 283560, Note_on_c, 2, 74, 75
4, 283590, Note_off_c, 2, 74, 64
4, 283590, Note_on_c, 2, 75, 75
4, 283620, Note_off_c, 2, 75, 64
4, 283620, Note_on_c, 2, 74, 75
4, 283650, Note_off_c, 2, 74, 64
4, 283650, Note_on_c, 2, 75, 75
4, 283675, Note_off_c, 2, 75, 64
4, 283800, Note_on_c, 2, 82, 75
4, 283920, Note_off_c, 2, 82, 64
4, 283920, Note_on_c, 2, 80, 75
4, 284040, Note_off_c, 2, 80, 64
4, 284040, Note_on_c, 2, 82, 75
4, 284160, Note_off_c, 2, 82, 64
4, 284160, Note_on_c, 2, 79, 75
4, 284280, Note_off_c, 2, 79, 64
4, 284280, Note_on_c, 2, 80, 75
4, 284400, Note_off_c, 2, 80, 64
4, 284400, Note_on_c, 2, 77, 75
4, 284520, Note_off_c, 2, 77, 64
4, 284520, Note_on_c, 2, 79, 75
4, 284635, Note_off_c, 2, 79, 64
4, 284640, Note_on_c, 2, 75, 75
4, 284760, Note_off_c, 2, 75, 64
4, 284760, Note_on_c, 2, 79, 75
4, 284880, Note_off_c, 2, 79, 64
4, 284880, Note_on_c, 2, 77, 75
4, 285000, Note_off_c, 2, 77, 64
4, 285000, Note_on_c, 2, 75, 75
4, 285120, Note_off_c, 2, 75, 64
4, 285120, Note_on_c, 2, 74, 75
4, 285240, Note_off_c, 2, 74, 64
4, 285240, Note_on_c, 2, 77, 75
4, 285360, Note_off_c, 2, 77, 64
4, 285360, Note_on_c, 2, 75, 75
4, 285480, Note_off_c, 2, 75, 64
4, 285480, Note_on_c, 2, 79, 75
4, 285600, Note_off_c, 2, 79, 64
4, 285600, Note_on_c, 2, 77, 75
4, 285720, Note_off_c, 2, 77, 64
4, 285720, Note_on_c, 2, 80, 75
4, 285840, Note_off_c, 2, 80, 64
4, 285840, Note_on_c, 2, 79, 75
4, 285960, Note_off_c, 2, 79, 64
4, 285960, Note_on_c, 2, 77, 75
4, 286075, Note_off_c, 2, 77, 64
4, 286080, Note_on_c, 2, 82, 75
4, 286200, Note_off_c, 2, 82, 64
4, 286200, Note_on_c, 2, 75, 75
4, 286320, Note_off_c, 2, 75, 64
4, 286320, Note_on_c, 2, 74, 75
4, 286440, Note_off_c, 2, 74, 64
4, 286440, Note_on_c, 2, 75, 75
4, 286560, Note_off_c, 2, 75, 64
4, 286560, Note_on_c, 2, 72, 75
4, 286680, Note_off_c, 2, 72, 64
4, 286680, Note_on_c, 2, 75, 75
4, 286800, Note_off_c, 2, 75, 64
4, 286800, Note_on_c, 2, 72, 75
4, 286920, Note_off_c, 2, 72, 64
4, 286920, Note_on_c, 2, 75, 75
4, 287040, Note_off_c, 2, 75, 64
4, 287040, Note_on_c, 2, 72, 75
4, 287160, Note_off_c, 2, 72, 64
4, 287160, Note_on_c, 2, 73, 75
4, 287280, Note_off_c, 2, 73, 64
4, 287280, Note_on_c, 2, 72, 75
4, 287400, Note_off_c, 2, 72, 64
4, 287400, Note_on_c, 2, 73, 75
4, 287515, Note_off_c, 2, 73, 64
4, 287520, Note_on_c, 2, 70, 75
4, 287640, Note_off_c, 2, 70, 64
4, 287640, Note_on_c, 2, 73, 75
4, 287760, Note_off_c, 2, 73, 64
4, 287760, Note_on_c, 2, 70, 75
4, 287880, Note_off_c, 2, 70, 64
4, 287880, Note_on_c, 2, 73, 75
4, 288000, Note_off_c, 2, 73, 64
4, 288000, Note_on_c, 2, 68, 75
4, 288120, Note_off_c, 2, 68, 64
4, 288120, Note_on_c, 2, 72, 75
4, 288240, Note_off_c, 2, 72, 64
4, 288240, Note_on_c, 2, 70, 75
4, 288360, Note_off_c, 2, 70, 64
4, 288360, Note_on_c, 2, 73, 75
4, 288480, Note_off_c, 2, 73, 64
4, 288480, Note_on_c, 2, 72, 75
4, 288600, Note_off_c, 2, 72, 64
4, 288600, Note_on_c, 2, 75, 75
4, 288720, Note_off_c, 2, 75, 64
4, 288720, Note_on_c, 2, 74, 75
4, 288840, Note_off_c, 2, 74, 64
4, 288840, Note_on_c, 2, 75, 75
4, 288955, Note_off_c, 2, 75, 64
4, 288960, Note_on_c, 2, 72, 75
4, 289080, Note_off_c, 2, 72, 64
4, 289080, Note_on_c, 2, 77, 75
4, 289200, Note_off_c, 2, 77, 64
4, 289200, Note_on_c, 2, 75, 75
4, 289320, Note_off_c, 2, 75, 64
4, 289320, Note_on_c, 2, 77, 75
4, 289440, Note_off_c, 2, 77, 64
4, 289440, Note_on_c, 2, 74, 75
4, 289560, Note_off_c, 2, 74, 64
4, 289560, Note_on_c, 2, 77, 75
4, 289680, Note_off_c, 2, 77, 64
4, 289680, Note_on_c, 2, 75, 75
4, 289800, Note_off_c, 2, 75, 64
4, 289800, Note_on_c, 2, 79, 75
4, 289920, Note_off_c, 2, 79, 64
4, 289920, Note_on_c, 2, 77, 75
4, 290040, Note_off_c, 2, 77, 64
4, 290040, Note_on_c, 2, 82, 75
4, 290160, Note_off_c, 2, 82, 64
4, 290160, Note_on_c, 2, 80, 75
4, 290280, Note_off_c, 2, 80, 64
4, 290280, Note_on_c, 2, 82, 75
4, 290395, Note_off_c, 2, 82, 64
4, 290400, Note_on_c, 2, 79, 75
4, 290520, Note_off_c, 2, 79, 64
4, 290520, Note_on_c, 2, 84, 75
4, 290640, Note_off_c, 2, 84, 64
4, 290640, Note_on_c, 2, 82, 75
4, 290760, Note_off_c, 2, 82, 64
4, 290760, Note_on_c, 2, 84, 75
4, 290880, Note_off_c, 2, 84, 64
4, 290880, Note_on_c, 2, 80, 75
4, 291000, Note_off_c, 2, 80, 64
4, 291000, Note_on_c, 2, 84, 75
4, 291120, Note_off_c, 2, 84, 64
4, 291120, Note_on_c, 2, 82, 75
4, 291240, Note_off_c, 2, 82, 64
4, 291240, Note_on_c, 2, 84, 75
4, 291360, Note_off_c, 2, 84, 64
4, 291360, Note_on_c, 2, 80, 75
4, 291480, Note_off_c, 2, 80, 64
4, 291480, Note_on_c, 2, 82, 75
4, 291600, Note_off_c, 2, 82, 64
4, 291600, Note_on_c, 2, 79, 75
4, 291720, Note_off_c, 2, 79, 64
4, 291720, Note_on_c, 2, 80, 75
4, 291835, Note_off_c, 2, 80, 64
4, 291840, Note_on_c, 2, 77, 75
4, 291960, Note_off_c, 2, 77, 64
4, 291960, Note_on_c, 2, 82, 75
4, 292080, Note_off_c, 2, 82, 64
4, 292080, Note_on_c, 2, 80, 75
4, 292200, Note_off_c, 2, 80, 64
4, 292200, Note_on_c, 2, 82, 75
4, 292320, Note_off_c, 2, 82, 64
4, 292320, Note_on_c, 2, 79, 75
4, 292440, Note_off_c, 2, 79, 64
4, 292440, Note_on_c, 2, 82, 75
4, 292560, Note_off_c, 2, 82, 64
4, 292560, Note_on_c, 2, 80, 75
4, 292680, Note_off_c, 2, 80, 64
4, 292680, Note_on_c, 2, 82, 75
4, 292800, Note_off_c, 2, 82, 64
4, 292800, Note_on_c, 2, 79, 75
4, 292920, Note_off_c, 2, 79, 64
4, 292920, Note_on_c, 2, 80, 75
4, 293040, Note_off_c, 2, 80, 64
4, 293040, Note_on_c, 2, 77, 75
4, 293160, Note_off_c, 2, 77, 64
4, 293160, Note_on_c, 2, 79, 75
4, 293275, Note_off_c, 2, 79, 64
4, 293280, Note_on_c, 2, 75, 75
4, 293400, Note_off_c, 2, 75, 64
4, 293400, Note_on_c, 2, 77, 75
4, 293520, Note_off_c, 2, 77, 64
4, 293520, Note_on_c, 2, 74, 75
4, 293640, Note_off_c, 2, 74, 64
4, 293640, Note_on_c, 2, 75, 75
4, 293755, Note_off_c, 2, 75, 64
4, 293760, Note_on_c, 2, 72, 75
4, 294000, Note_off_c, 2, 72, 64
4, 294000, Note_on_c, 2, 75, 75
4, 294240, Note_off_c, 2, 75, 64
4, 294240, Note_on_c, 2, 80, 75
4, 294480, Note_off_c, 2, 80, 64
4, 294480, Note_on_c, 2, 72, 75
4, 294720, Note_off_c, 2, 72, 64
4, 294720, Note_on_c, 2, 70, 75
4, 294960, Note_off_c, 2, 70, 64
4, 294960, Note_on_c, 2, 80, 75
4, 295195, Note_off_c, 2, 80, 64
4, 295200, Note_on_c, 2, 70, 75
4, 295440, Note_off_c, 2, 70, 64
4, 295440, Note_on_c, 2, 74, 75
4, 295680, Note_off_c, 2, 74, 64
4, 295680, Note_on_c, 2, 79, 75
4, 295920, Note_off_c, 2, 79, 64
4, 295920, Note_on_c, 2, 70, 75
4, 296160, Note_off_c, 2, 70, 64
4, 296160, Note_on_c, 2, 68, 75
4, 296400, Note_off_c, 2, 68, 64
4, 296400, Note_on_c, 2, 79, 75
4, 296635, Note_off_c, 2, 79, 64
4, 296640, Note_on_c, 2, 68, 75
4, 296880, Note_off_c, 2, 68, 64
4, 296880, Note_on_c, 2, 72, 75
4, 297120, Note_off_c, 2, 72, 64
4, 297120, Note_on_c, 2, 77, 75
4, 297360, Note_off_c, 2, 77, 64
4, 297360, Note_on_c, 2, 68, 75
4, 297600, Note_off_c, 2, 68, 64
4, 297600, Note_on_c, 2, 67, 75
4, 297840, Note_off_c, 2, 67, 64
4, 297840, Note_on_c, 2, 77, 75
4, 298075, Note_off_c, 2, 77, 64
4, 298080, Note_on_c, 2, 67, 75
4, 298320, Note_off_c, 2, 67, 64
4, 298320, Note_on_c, 2, 70, 75
4, 298560, Note_off_c, 2, 70, 64
4, 298560, Note_on_c, 2, 75, 75
4, 298800, Note_off_c, 2, 75, 64
4, 298800, Note_on_c, 2, 67, 75
4, 299040, Note_off_c, 2, 67, 64
4, 299040, Note_on_c, 2, 65, 75
4, 299280, Note_off_c, 2, 65, 64
4, 299280, Note_on_c, 2, 75, 75
4, 299515, Note_off_c, 2, 75, 64
4, 299520, Note_on_c, 2, 74, 75
4, 299640, Note_off_c, 2, 74, 64
4, 299640, Note_on_c, 2, 77, 75
4, 299760, Note_off_c, 2, 77, 64
4, 299760, Note_on_c, 2, 74, 75
4, 299880, Note_off_c, 2, 74, 64
4, 299880, Note_on_c, 2, 77, 75
4, 300000, Note_off_c, 2, 77, 64
4, 300000, Note_on_c, 2, 70, 75
4, 300235, Note_off_c, 2, 70, 64
4, 300240, Note_on_c, 2, 69, 75
4, 300360, Note_off_c, 2, 69, 64
4, 300360, Note_on_c, 2, 67, 75
4, 300480, Note_off_c, 2, 67, 64
4, 300480, Note_on_c, 2, 65, 75
4, 300715, Note_off_c, 2, 65, 64
4, 300720, Note_on_c, 2, 67, 75
4, 300960, Note_off_c, 2, 67, 64
4, 300960, Note_on_c, 2, 69, 75
4, 301200, Note_off_c, 2, 69, 64
4, 301200, Note_on_c, 2, 74, 75
4, 301435, Note_off_c, 2, 74, 64
4, 301440, Note_on_c, 2, 69, 75
4, 301675, Note_off_c, 2, 69, 64
4, 301680, Note_on_c, 2, 69, 75
4, 301920, Note_off_c, 2, 69, 64
4, 301920, Note_on_c, 2, 70, 75
4, 302320, Note_off_c, 2, 70, 64
4, 302640, Note_on_c, 2, 79, 75
4, 302880, Note_off_c, 2, 79, 64
4, 302880, Note_on_c, 2, 72, 75
4, 303115, Note_off_c, 2, 72, 64
4, 303120, Note_on_c, 2, 72, 75
4, 303360, Note_off_c, 2, 72, 64
4, 303360, Note_on_c, 2, 74, 75
4, 303760, Note_off_c, 2, 74, 64
4, 304080, Note_on_c, 2, 75, 75
4, 304320, Note_off_c, 2, 75, 64
4, 304320, Note_on_c, 2, 70, 75
4, 304555, Note_off_c, 2, 70, 64
4, 304560, Note_on_c, 2, 70, 75
4, 304800, Note_off_c, 2, 70, 64
4, 304800, Note_on_c, 2, 72, 75
4, 305200, Note_off_c, 2, 72, 64
4, 305400, Note_on_c, 2, 74, 75
4, 305520, Note_off_c, 2, 74, 64
4, 305520, Note_on_c, 2, 72, 75
4, 305640, Note_off_c, 2, 72, 64
4, 305640, Note_on_c, 2, 74, 75
4, 305760, Note_off_c, 2, 74, 64
4, 305760, Note_on_c, 2, 75, 75
4, 306160, Note_off_c, 2, 75, 64
4, 306240, Note_on_c, 2, 77, 75
4, 306640, Note_off_c, 2, 77, 64
4, 306840, Note_on_c, 2, 79, 75
4, 306960, Note_off_c, 2, 79, 64
4, 306960, Note_on_c, 2, 77, 75
4, 307080, Note_off_c, 2, 77, 64
4, 307080, Note_on_c, 2, 79, 75
4, 307200, Note_off_c, 2, 79, 64
4, 307200, Note_on_c, 2, 80, 75
4, 307600, Note_off_c, 2, 80, 64
4, 307680, Note_on_c, 2, 82, 75
4, 308080, Note_off_c, 2, 82, 64
4, 308280, Note_on_c, 2, 84, 75
4, 308400, Note_off_c, 2, 84, 64
4, 308400, Note_on_c, 2, 82, 75
4, 308520, Note_off_c, 2, 82, 64
4, 308520, Note_on_c, 2, 84, 75
4, 308640, Note_off_c, 2, 84, 64
4, 308640, Note_on_c, 2, 77, 75
4, 309040, Note_off_c, 2, 77, 64
4, 309120, Note_on_c, 2, 79, 75
4, 309520, Note_off_c, 2, 79, 64
4, 309720, Note_on_c, 2, 80, 75
4, 309840, Note_off_c, 2, 80, 64
4, 309840, Note_on_c, 2, 79, 75
4, 309960, Note_off_c, 2, 79, 64
4, 309960, Note_on_c, 2, 80, 75
4, 310080, Note_off_c, 2, 80, 64
4, 310080, Note_on_c, 2, 74, 75
4, 310315, Note_off_c, 2, 74, 64
4, 310320, Note_on_c, 2, 74, 75
4, 310560, Note_off_c, 2, 74, 64
4, 310560, Note_on_c, 2, 75, 75
4, 310960, Note_off_c, 2, 75, 64
4, 311160, Note_on_c, 2, 77, 75
4, 311280, Note_off_c, 2, 77, 64
4, 311280, Note_on_c, 2, 75, 75
4, 311400, Note_off_c, 2, 75, 64
4, 311400, Note_on_c, 2, 77, 75
4, 311520, Note_off_c, 2, 77, 64
4, 311520, Note_on_c, 2, 72, 75
4, 311755, Note_off_c, 2, 72, 64
4, 311760, Note_on_c, 2, 72, 75
4, 312000, Note_off_c, 2, 72, 64
4, 312000, Note_on_c, 2, 74, 75
4, 312400, Note_off_c, 2, 74, 64
4, 312600, Note_on_c, 2, 75, 75
4, 312720, Note_off_c, 2, 75, 64
4, 312720, Note_on_c, 2, 74, 75
4, 312840, Note_off_c, 2, 74, 64
4, 312840, Note_on_c, 2, 75, 75
4, 312955, Note_off_c, 2, 75, 64
4, 313080, Note_on_c, 2, 75, 75
4, 313200, Note_off_c, 2, 75, 64
4, 313200, Note_on_c, 2, 74, 75
4, 313320, Note_off_c, 2, 74, 64
4, 313320, Note_on_c, 2, 75, 75
4, 313435, Note_off_c, 2, 75, 64
4, 313560, Note_on_c, 2, 75, 75
4, 313680, Note_off_c, 2, 75, 64
4, 313680, Note_on_c, 2, 74, 75
4, 313800, Note_off_c, 2, 74, 64
4, 313800, Note_on_c, 2, 75, 75
4, 313915, Note_off_c, 2, 75, 64
4, 314040, Note_on_c, 2, 74, 75
4, 314160, Note_off_c, 2, 74, 64
4, 314160, Note_on_c, 2, 72, 75
4, 314280, Note_off_c, 2, 72, 64
4, 314280, Note_on_c, 2, 74, 75
4, 314395, Note_off_c, 2, 74, 64
4, 314520, Note_on_c, 2, 72, 75
4, 314640, Note_off_c, 2, 72, 64
4, 314640, Note_on_c, 2, 70, 75
4, 314760, Note_off_c, 2, 70, 64
4, 314760, Note_on_c, 2, 72, 75
4, 314875, Note_off_c, 2, 72, 64
4, 315000, Note_on_c, 2, 72, 75
4, 315120, Note_off_c, 2, 72, 64
4, 315120, Note_on_c, 2, 70, 75
4, 315240, Note_off_c, 2, 70, 64
4, 315240, Note_on_c, 2, 72, 75
4, 315355, Note_off_c, 2, 72, 64
4, 315480, Note_on_c, 2, 70, 75
4, 315600, Note_off_c, 2, 70, 64
4, 315600, Note_on_c, 2, 69, 75
4, 315720, Note_off_c, 2, 69, 64
4, 315720, Note_on_c, 2, 70, 75
4, 315835, Note_off_c, 2, 70, 64
4, 315960, Note_on_c, 2, 70, 75
4, 316080, Note_off_c, 2, 70, 64
4, 316080, Note_on_c, 2, 69, 75
4, 316200, Note_off_c, 2, 69, 64
4, 316200, Note_on_c, 2, 70, 75
4, 316315, Note_off_c, 2, 70, 64
4, 316440, Note_on_c, 2, 72, 76
4, 316560, Note_off_c, 2, 72, 64
4, 316560, Note_on_c, 2, 70, 77
4, 316680, Note_off_c, 2, 70, 64
4, 316680, Note_on_c, 2, 72, 78
4, 316795, Note_off_c, 2, 72, 64
4, 316920, Note_on_c, 2, 69, 80
4, 317040, Note_off_c, 2, 69, 64
4, 317040, Note_on_c, 2, 67, 81
4, 317160, Note_off_c, 2, 67, 64
4, 317160, Note_on_c, 2, 69, 82
4, 317275, Note_off_c, 2, 69, 64
4, 317400, Note_on_c, 2, 69, 86
4, 317520, Note_off_c, 2, 69, 64
4, 317520, Note_on_c, 2, 67, 88
4, 317640, Note_off_c, 2, 67, 64
4, 317640, Note_on_c, 2, 69, 90
4, 317755, Note_off_c, 2, 69, 64
4, 317760, Note_on_c, 2, 70, 92
4, 317880, Note_off_c, 2, 70, 64
4, 317880, Note_on_c, 2, 72, 92
4, 318000, Note_off_c, 2, 72, 64
4, 318000, Note_on_c, 2, 70, 92
4, 318120, Note_off_c, 2, 70, 64
4, 318120, Note_on_c, 2, 72, 92
4, 318240, Note_off_c, 2, 72, 64
4, 318240, Note_on_c, 2, 74, 92
4, 318640, Note_off_c, 2, 74, 64
4, 318840, Note_on_c, 2, 74, 92
4, 318960, Note_off_c, 2, 74, 64
4, 318960, Note_on_c, 2, 72, 92
4, 319080, Note_off_c, 2, 72, 64
4, 319080, Note_on_c, 2, 74, 92
4, 319200, Note_off_c, 2, 74, 64
4, 319200, Note_on_c, 2, 67, 92
4, 319315, Note_off_c, 2, 67, 64
4, 319320, Note_on_c, 2, 79, 92
4, 319440, Note_off_c, 2, 79, 64
4, 319440, Note_on_c, 2, 77, 92
4, 319560, Note_off_c, 2, 77, 64
4, 319560, Note_on_c, 2, 79, 92
4, 319680, Note_off_c, 2, 79, 64
4, 319680, Note_on_c, 2, 75, 92
4, 319800, Note_off_c, 2, 75, 64
4, 319800, Note_on_c, 2, 79, 92
4, 319920, Note_off_c, 2, 79, 64
4, 319920, Note_on_c, 2, 75, 92
4, 320040, Note_off_c, 2, 75, 64
4, 320040, Note_on_c, 2, 79, 92
4, 320160, Note_off_c, 2, 79, 64
4, 320160, Note_on_c, 2, 75, 92
4, 320280, Note_off_c, 2, 75, 64
4, 320280, Note_on_c, 2, 77, 92
4, 320400, Note_off_c, 2, 77, 64
4, 320400, Note_on_c, 2, 75, 92
4, 320520, Note_off_c, 2, 75, 64
4, 320520, Note_on_c, 2, 77, 92
4, 320635, Note_off_c, 2, 77, 64
4, 320640, Note_on_c, 2, 74, 92
4, 320760, Note_off_c, 2, 74, 64
4, 320760, Note_on_c, 2, 75, 92
4, 320880, Note_off_c, 2, 75, 64
4, 320880, Note_on_c, 2, 74, 92
4, 321000, Note_off_c, 2, 74, 64
4, 321000, Note_on_c, 2, 75, 92
4, 321120, Note_off_c, 2, 75, 64
4, 321120, Note_on_c, 2, 72, 92
4, 321240, Note_off_c, 2, 72, 64
4, 321240, Note_on_c, 2, 75, 92
4, 321360, Note_off_c, 2, 75, 64
4, 321360, Note_on_c, 2, 74, 92
4, 321480, Note_off_c, 2, 74, 64
4, 321480, Note_on_c, 2, 77, 92
4, 321600, Note_off_c, 2, 77, 64
4, 321600, Note_on_c, 2, 75, 92
4, 321720, Note_off_c, 2, 75, 64
4, 321720, Note_on_c, 2, 79, 92
4, 321840, Note_off_c, 2, 79, 64
4, 321840, Note_on_c, 2, 78, 92
4, 321960, Note_off_c, 2, 78, 64
4, 321960, Note_on_c, 2, 81, 92
4, 322075, Note_off_c, 2, 81, 64
4, 322080, Note_on_c, 2, 79, 92
4, 322200, Note_off_c, 2, 79, 64
4, 322200, Note_on_c, 2, 82, 92
4, 322320, Note_off_c, 2, 82, 64
4, 322320, Note_on_c, 2, 81, 92
4, 322440, Note_off_c, 2, 81, 64
4, 322440, Note_on_c, 2, 79, 92
4, 322560, Note_off_c, 2, 79, 64
4, 322560, Note_on_c, 2, 78, 75
4, 322680, Note_off_c, 2, 78, 64
4, 322680, Note_on_c, 2, 81, 75
4, 322800, Note_off_c, 2, 81, 64
4, 322800, Note_on_c, 2, 79, 75
4, 322920, Note_off_c, 2, 79, 64
4, 322920, Note_on_c, 2, 82, 75
4, 323035, Note_off_c, 2, 82, 64
4, 323040, Note_on_c, 2, 81, 60
4, 323280, Note_off_c, 2, 81, 64
4, 323280, Note_on_c, 2, 74, 60
4, 323515, Note_off_c, 2, 74, 64
4, 353760, Note_on_c, 2, 67, 75
4, 354160, Note_off_c, 2, 67, 64
4, 354240, Note_on_c, 2, 74, 75
4, 355080, Note_off_c, 2, 74, 64
4, 355200, Note_on_c, 2, 70, 75
4, 355600, Note_off_c, 2, 70, 64
4, 355680, Note_on_c, 2, 72, 75
4, 356520, Note_off_c, 2, 72, 64
4, 356640, Note_on_c, 2, 74, 75
4, 357040, Note_off_c, 2, 74, 64
4, 357120, Note_on_c, 2, 75, 75
4, 357960, Note_off_c, 2, 75, 64
4, 358080, Note_on_c, 2, 72, 75
4, 358480, Note_off_c, 2, 72, 64
4, 358560, Note_on_c, 2, 74, 75
4, 359635, Note_off_c, 2, 74, 64
4, 359640, Note_on_c, 2, 74, 75
4, 359760, Note_off_c, 2, 74, 64
4, 359760, Note_on_c, 2, 72, 75
4, 359880, Note_off_c, 2, 72, 64
4, 359880, Note_on_c, 2, 74, 75
4, 360000, Note_off_c, 2, 74, 64
4, 360000, Note_on_c, 2, 75, 75
4, 360120, Note_off_c, 2, 75, 64
4, 360120, Note_on_c, 2, 77, 75
4, 360240, Note_off_c, 2, 77, 64
4, 360240, Note_on_c, 2, 74, 75
4, 360360, Note_off_c, 2, 74, 64
4, 360360, Note_on_c, 2, 76, 75
4, 360480, Note_off_c, 2, 76, 64
4, 360480, Note_on_c, 2, 77, 75
4, 360600, Note_off_c, 2, 77, 64
4, 360600, Note_on_c, 2, 79, 75
4, 360720, Note_off_c, 2, 79, 64
4, 360720, Note_on_c, 2, 76, 75
4, 360840, Note_off_c, 2, 76, 64
4, 360840, Note_on_c, 2, 78, 75
4, 360955, Note_off_c, 2, 78, 64
4, 360960, Note_on_c, 2, 79, 75
4, 361080, Note_off_c, 2, 79, 64
4, 361080, Note_on_c, 2, 81, 75
4, 361200, Note_off_c, 2, 81, 64
4, 361200, Note_on_c, 2, 74, 75
4, 361320, Note_off_c, 2, 74, 64
4, 361320, Note_on_c, 2, 77, 75
4, 361440, Note_off_c, 2, 77, 64
4, 361440, Note_on_c, 2, 75, 75
4, 361560, Note_off_c, 2, 75, 64
4, 361560, Note_on_c, 2, 77, 75
4, 361680, Note_off_c, 2, 77, 64
4, 361680, Note_on_c, 2, 72, 75
4, 361800, Note_off_c, 2, 72, 64
4, 361800, Note_on_c, 2, 75, 75
4, 361920, Note_off_c, 2, 75, 64
4, 361920, Note_on_c, 2, 74, 75
4, 362040, Note_off_c, 2, 74, 64
4, 362040, Note_on_c, 2, 75, 75
4, 362160, Note_off_c, 2, 75, 64
4, 362160, Note_on_c, 2, 70, 75
4, 362280, Note_off_c, 2, 70, 64
4, 362280, Note_on_c, 2, 74, 75
4, 362395, Note_off_c, 2, 74, 64
4, 362400, Note_on_c, 2, 72, 75
4, 362520, Note_off_c, 2, 72, 64
4, 362520, Note_on_c, 2, 74, 75
4, 362640, Note_off_c, 2, 74, 64
4, 362640, Note_on_c, 2, 69, 75
4, 362760, Note_off_c, 2, 69, 64
4, 362760, Note_on_c, 2, 72, 75
4, 362880, Note_off_c, 2, 72, 64
4, 362880, Note_on_c, 2, 71, 75
4, 363000, Note_off_c, 2, 71, 64
4, 363000, Note_on_c, 2, 72, 75
4, 363120, Note_off_c, 2, 72, 64
4, 363120, Note_on_c, 2, 69, 75
4, 363240, Note_off_c, 2, 69, 64
4, 363240, Note_on_c, 2, 71, 75
4, 363360, Note_off_c, 2, 71, 64
4, 363360, Note_on_c, 2, 72, 75
4, 363480, Note_off_c, 2, 72, 64
4, 363480, Note_on_c, 2, 74, 75
4, 363600, Note_off_c, 2, 74, 64
4, 363600, Note_on_c, 2, 75, 75
4, 363720, Note_off_c, 2, 75, 64
4, 363720, Note_on_c, 2, 69, 75
4, 363835, Note_off_c, 2, 69, 64
4, 363840, Note_on_c, 2, 69, 75
4, 363870, Note_off_c, 2, 69, 64
4, 363870, Note_on_c, 2, 71, 75
4, 363900, Note_off_c, 2, 71, 64
4, 363900, Note_on_c, 2, 69, 75
4, 363930, Note_off_c, 2, 69, 64
4, 363930, Note_on_c, 2, 71, 75
4, 363960, Note_off_c, 2, 71, 64
4, 363960, Note_on_c, 2, 69, 75
4, 363990, Note_off_c, 2, 69, 64
4, 363990, Note_on_c, 2, 71, 75
4, 364020, Note_off_c, 2, 71, 64
4, 364020, Note_on_c, 2, 69, 75
4, 364050, Note_off_c, 2, 69, 64
4, 364050, Note_on_c, 2, 71, 75
4, 364080, Note_off_c, 2, 71, 64
4, 364080, Note_on_c, 2, 69, 75
4, 364110, Note_off_c, 2, 69, 64
4, 364110, Note_on_c, 2, 71, 75
4, 364140, Note_off_c, 2, 71, 64
4, 364140, Note_on_c, 2, 69, 75
4, 364170, Note_off_c, 2, 69, 64
4, 364170, Note_on_c, 2, 71, 75
4, 364200, Note_off_c, 2, 71, 64
4, 364200, Note_on_c, 2, 69, 75
4, 364230, Note_off_c, 2, 69, 64
4, 364230, Note_on_c, 2, 71, 75
4, 364260, Note_off_c, 2, 71, 64
4, 364260, Note_on_c, 2, 69, 75
4, 364290, Note_off_c, 2, 69, 64
4, 364290, Note_on_c, 2, 71, 75
4, 364315, Note_off_c, 2, 71, 64
4, 364320, Note_on_c, 2, 67, 75
4, 364440, Note_off_c, 2, 67, 64
4, 364440, Note_on_c, 2, 71, 75
4, 364560, Note_off_c, 2, 71, 64
4, 364560, Note_on_c, 2, 69, 75
4, 364680, Note_off_c, 2, 69, 64
4, 364680, Note_on_c, 2, 72, 75
4, 364800, Note_off_c, 2, 72, 64
4, 364800, Note_on_c, 2, 71, 75
4, 364920, Note_off_c, 2, 71, 64
4, 364920, Note_on_c, 2, 74, 75
4, 365040, Note_off_c, 2, 74, 64
4, 365040, Note_on_c, 2, 72, 75
4, 365160, Note_off_c, 2, 72, 64
4, 365160, Note_on_c, 2, 75, 75
4, 365275, Note_off_c, 2, 75, 64
4, 365280, Note_on_c, 2, 74, 75
4, 365400, Note_off_c, 2, 74, 64
4, 365400, Note_on_c, 2, 77, 75
4, 365520, Note_off_c, 2, 77, 64
4, 365520, Note_on_c, 2, 75, 75
4, 365640, Note_off_c, 2, 75, 64
4, 365640, Note_on_c, 2, 74, 75
4, 365760, Note_off_c, 2, 74, 64
4, 365760, Note_on_c, 2, 75, 75
4, 366160, Note_off_c, 2, 75, 64
4, 366960, Note_on_c, 2, 76, 92
4, 367195, Note_off_c, 2, 76, 64
4, 367200, Note_on_c, 2, 77, 92
4, 367320, Note_off_c, 2, 77, 64
4, 367320, Note_on_c, 2, 80, 92
4, 367440, Note_off_c, 2, 80, 64
4, 367440, Note_on_c, 2, 79, 92
4, 367560, Note_off_c, 2, 79, 64
4, 367560, Note_on_c, 2, 82, 92
4, 367680, Note_off_c, 2, 82, 64
4, 367680, Note_on_c, 2, 80, 92
4, 367920, Note_off_c, 2, 80, 64
4, 367920, Note_on_c, 2, 82, 92
4, 367980, Note_off_c, 2, 82, 64
4, 367980, Note_on_c, 2, 84, 92
4, 368040, Note_off_c, 2, 84, 64
4, 368040, Note_on_c, 2, 82, 92
4, 368100, Note_off_c, 2, 82, 64
4, 368100, Note_on_c, 2, 84, 92
4, 368155, Note_off_c, 2, 84, 64
4, 368160, Note_on_c, 2, 80, 92
4, 368220, Note_off_c, 2, 80, 64
4, 368220, Note_on_c, 2, 82, 92
4, 368280, Note_off_c, 2, 82, 64
4, 368280, Note_on_c, 2, 84, 92
4, 368340, Note_off_c, 2, 84, 64
4, 368340, Note_on_c, 2, 80, 92
4, 368400, Note_off_c, 2, 80, 64
4, 368400, Note_on_c, 2, 79, 92
4, 368520, Note_off_c, 2, 79, 64
4, 368520, Note_on_c, 2, 77, 92
4, 368640, Note_off_c, 2, 77, 64
4, 368640, Note_on_c, 2, 76, 92
4, 368760, Note_off_c, 2, 76, 64
4, 368760, Note_on_c, 2, 79, 92
4, 368880, Note_off_c, 2, 79, 64
4, 368880, Note_on_c, 2, 77, 92
4, 369000, Note_off_c, 2, 77, 64
4, 369000, Note_on_c, 2, 80, 92
4, 369120, Note_off_c, 2, 80, 64
4, 369120, Note_on_c, 2, 79, 92
4, 369240, Note_off_c, 2, 79, 64
4, 369240, Note_on_c, 2, 82, 92
4, 369360, Note_off_c, 2, 82, 64
4, 369360, Note_on_c, 2, 80, 92
4, 369480, Note_off_c, 2, 80, 64
4, 369480, Note_on_c, 2, 79, 92
4, 369595, Note_off_c, 2, 79, 64
4, 369600, Note_on_c, 2, 80, 92
4, 370480, Note_off_c, 2, 80, 64
4, 370560, Note_on_c, 2, 79, 92
4, 370960, Note_off_c, 2, 79, 64
4, 371040, Note_on_c, 2, 78, 92
4, 371440, Note_off_c, 2, 78, 64
4, 371520, Note_on_c, 2, 77, 92
4, 373075, Note_off_c, 2, 77, 64
4, 373080, Note_on_c, 2, 77, 92
4, 373200, Note_off_c, 2, 77, 64
4, 373200, Note_on_c, 2, 79, 92
4, 373320, Note_off_c, 2, 79, 64
4, 373320, Note_on_c, 2, 77, 92
4, 373440, Note_off_c, 2, 77, 64
4, 373440, Note_on_c, 2, 76, 92
4, 373680, Note_off_c, 2, 76, 64
4, 373680, Note_on_c, 2, 77, 92
4, 373915, Note_off_c, 2, 77, 64
4, 373920, Note_on_c, 2, 79, 92
4, 374515, Note_off_c, 2, 79, 64
4, 374520, Note_on_c, 2, 79, 92
4, 374640, Note_off_c, 2, 79, 64
4, 374640, Note_on_c, 2, 80, 92
4, 374760, Note_off_c, 2, 80, 64
4, 374760, Note_on_c, 2, 79, 92
4, 374880, Note_off_c, 2, 79, 64
4, 374880, Note_on_c, 2, 77, 92
4, 375115, Note_off_c, 2, 77, 64
4, 375120, Note_on_c, 2, 79, 92
4, 375355, Note_off_c, 2, 79, 64
4, 375360, Note_on_c, 2, 80, 92
4, 375955, Note_off_c, 2, 80, 64
4, 375960, Note_on_c, 2, 80, 92
4, 376080, Note_off_c, 2, 80, 64
4, 376080, Note_on_c, 2, 82, 92
4, 376200, Note_off_c, 2, 82, 64
4, 376200, Note_on_c, 2, 80, 92
4, 376320, Note_off_c, 2, 80, 64
4, 376320, Note_on_c, 2, 79, 92
4, 376440, Note_off_c, 2, 79, 64
4, 376440, Note_on_c, 2, 82, 92
4, 376560, Note_off_c, 2, 82, 64
4, 376560, Note_on_c, 2, 80, 92
4, 376680, Note_off_c, 2, 80, 64
4, 376680, Note_on_c, 2, 84, 92
4, 376795, Note_off_c, 2, 84, 64
4, 376800, Note_on_c, 2, 82, 92
4, 377395, Note_off_c, 2, 82, 64
4, 377400, Note_on_c, 2, 84, 92
4, 377520, Note_off_c, 2, 84, 64
4, 377520, Note_on_c, 2, 79, 92
4, 377640, Note_off_c, 2, 79, 64
4, 377640, Note_on_c, 2, 82, 92
4, 377760, Note_off_c, 2, 82, 64
4, 377760, Note_on_c, 2, 80, 92
4, 378355, Note_off_c, 2, 80, 64
4, 378360, Note_on_c, 2, 84, 92
4, 378480, Note_off_c, 2, 84, 64
4, 378480, Note_on_c, 2, 80, 92
4, 378600, Note_off_c, 2, 80, 64
4, 378600, Note_on_c, 2, 84, 92
4, 378720, Note_off_c, 2, 84, 64
4, 378720, Note_on_c, 2, 78, 92
4, 379560, Note_off_c, 2, 78, 64
4, 379800, Note_on_c, 2, 79, 92
4, 379920, Note_off_c, 2, 79, 64
4, 379920, Note_on_c, 2, 77, 92
4, 380040, Note_off_c, 2, 77, 64
4, 380040, Note_on_c, 2, 79, 92
4, 380160, Note_off_c, 2, 79, 64
4, 380160, Note_on_c, 2, 75, 92
4, 380560, Note_off_c, 2, 75, 64
4, 380760, Note_on_c, 2, 74, 92
4, 380880, Note_off_c, 2, 74, 64
4, 380880, Note_on_c, 2, 72, 92
4, 381000, Note_off_c, 2, 72, 64
4, 381000, Note_on_c, 2, 74, 92
4, 381120, Note_off_c, 2, 74, 64
4, 381120, Note_on_c, 2, 70, 92
4, 381520, Note_off_c, 2, 70, 64
4, 381720, Note_on_c, 2, 81, 92
4, 381840, Note_off_c, 2, 81, 64
4, 381840, Note_on_c, 2, 79, 92
4, 381960, Note_off_c, 2, 79, 64
4, 381960, Note_on_c, 2, 81, 92
4, 382080, Note_off_c, 2, 81, 64
4, 382080, Note_on_c, 2, 78, 92
4, 382480, Note_off_c, 2, 78, 64
4, 382680, Note_on_c, 2, 79, 92
4, 382800, Note_off_c, 2, 79, 64
4, 382800, Note_on_c, 2, 77, 92
4, 382920, Note_off_c, 2, 77, 64
4, 382920, Note_on_c, 2, 79, 92
4, 383040, Note_off_c, 2, 79, 64
4, 383040, Note_on_c, 2, 75, 92
4, 383520, Note_off_c, 2, 75, 64
4, 383520, Note_on_c, 2, 74, 92
4, 383920, Note_off_c, 2, 74, 64
4, 384120, Note_on_c, 2, 74, 92
4, 384240, Note_off_c, 2, 74, 64
4, 384240, Note_on_c, 2, 72, 92
4, 384360, Note_off_c, 2, 72, 64
4, 384360, Note_on_c, 2, 74, 92
4, 384880, Note_off_c, 2, 74, 64
4, 391200, Note_on_c, 2, 72, 92
4, 391600, Note_off_c, 2, 72, 64
4, 391680, Note_on_c, 2, 79, 92
4, 392520, Note_off_c, 2, 79, 64
4, 392640, Note_on_c, 2, 75, 92
4, 393040, Note_off_c, 2, 75, 64
4, 393120, Note_on_c, 2, 77, 92
4, 393960, Note_off_c, 2, 77, 64
4, 394080, Note_on_c, 2, 79, 92
4, 394480, Note_off_c, 2, 79, 64
4, 394560, Note_on_c, 2, 80, 92
4, 395400, Note_off_c, 2, 80, 64
4, 395520, Note_on_c, 2, 77, 92
4, 395920, Note_off_c, 2, 77, 64
4, 396000, Note_on_c, 2, 79, 92
4, 399280, Note_off_c, 2, 79, 64
4, 399360, Note_on_c, 2, 77, 92
4, 400720, Note_off_c, 2, 77, 64
4, 400800, Note_on_c, 2, 75, 92
4, 402160, Note_off_c, 2, 75, 64
4, 402240, Note_on_c, 2, 74, 92
4, 403600, Note_off_c, 2, 74, 64
4, 403680, Note_on_c, 2, 72, 92
4, 403800, Note_off_c, 2, 72, 64
4, 403800, Note_on_c, 2, 75, 92
4, 403920, Note_off_c, 2, 75, 64
4, 403920, Note_on_c, 2, 72, 92
4, 404040, Note_off_c, 2, 72, 64
4, 404040, Note_on_c, 2, 75, 92
4, 404160, Note_off_c, 2, 75, 64
4, 404160, Note_on_c, 2, 74, 92
4, 404280, Note_off_c, 2, 74, 64
4, 404280, Note_on_c, 2, 77, 92
4, 404400, Note_off_c, 2, 77, 64
4, 404400, Note_on_c, 2, 74, 92
4, 404520, Note_off_c, 2, 74, 64
4, 404520, Note_on_c, 2, 77, 92
4, 404640, Note_off_c, 2, 77, 64
4, 404640, Note_on_c, 2, 71, 92
4, 404700, Note_off_c, 2, 71, 64
4, 404700, Note_on_c, 2, 72, 92
4, 404760, Note_off_c, 2, 72, 64
4, 404760, Note_on_c, 2, 71, 92
4, 404820, Note_off_c, 2, 71, 64
4, 404820, Note_on_c, 2, 72, 92
4, 404880, Note_off_c, 2, 72, 64
4, 404880, Note_on_c, 2, 71, 92
4, 404940, Note_off_c, 2, 71, 64
4, 404940, Note_on_c, 2, 72, 92
4, 405000, Note_off_c, 2, 72, 64
4, 405000, Note_on_c, 2, 71, 92
4, 405060, Note_off_c, 2, 71, 64
4, 405060, Note_on_c, 2, 72, 92
4, 405120, Note_off_c, 2, 72, 64
4, 405120, Note_on_c, 2, 71, 92
4, 405180, Note_off_c, 2, 71, 64
4, 405180, Note_on_c, 2, 72, 92
4, 405240, Note_off_c, 2, 72, 64
4, 405240, Note_on_c, 2, 71, 92
4, 405300, Note_off_c, 2, 71, 64
4, 405300, Note_on_c, 2, 72, 92
4, 405360, Note_off_c, 2, 72, 64
4, 405360, Note_on_c, 2, 71, 92
4, 405420, Note_off_c, 2, 71, 64
4, 405420, Note_on_c, 2, 72, 92
4, 405480, Note_off_c, 2, 72, 64
4, 405480, Note_on_c, 2, 71, 92
4, 405540, Note_off_c, 2, 71, 64
4, 405540, Note_on_c, 2, 72, 92
4, 405600, Note_off_c, 2, 72, 64
4, 405600, Note_on_c, 2, 79, 92
4, 405660, Note_off_c, 2, 79, 64
4, 405660, Note_on_c, 2, 77, 92
4, 405720, Note_off_c, 2, 77, 64
4, 405720, Note_on_c, 2, 79, 92
4, 405780, Note_off_c, 2, 79, 64
4, 405780, Note_on_c, 2, 75, 92
4, 405840, Note_off_c, 2, 75, 64
4, 405840, Note_on_c, 2, 79, 92
4, 405900, Note_off_c, 2, 79, 64
4, 405900, Note_on_c, 2, 72, 92
4, 405960, Note_off_c, 2, 72, 64
4, 405960, Note_on_c, 2, 75, 92
4, 406080, Note_off_c, 2, 75, 64
4, 406080, Note_on_c, 2, 71, 92
4, 406480, Note_off_c, 2, 71, 64
4, 406800, Note_on_c, 2, 74, 92
4, 407035, Note_off_c, 2, 74, 64
4, 407040, Note_on_c, 2, 75, 92
4, 407275, Note_off_c, 2, 75, 64
4, 407280, Note_on_c, 2, 75, 92
4, 407515, Note_off_c, 2, 75, 64
4, 407520, Note_on_c, 2, 74, 92
4, 407920, Note_off_c, 2, 74, 64
4, 408240, Note_on_c, 2, 74, 92
4, 408475, Note_off_c, 2, 74, 64
4, 408480, Note_on_c, 2, 75, 92
4, 408715, Note_off_c, 2, 75, 64
4, 408720, Note_on_c, 2, 75, 92
4, 408955, Note_off_c, 2, 75, 64
4, 408960, Note_on_c, 2, 74, 92
4, 409360, Note_off_c, 2, 74, 64
4, 409680, Note_on_c, 2, 74, 92
4, 409915, Note_off_c, 2, 74, 64
4, 409920, Note_on_c, 2, 79, 92
4, 410155, Note_off_c, 2, 79, 64
4, 410160, Note_on_c, 2, 75, 92
4, 410395, Note_off_c, 2, 75, 64
4, 410400, Note_on_c, 2, 80, 92
4, 410800, Note_off_c, 2, 80, 64
4, 411120, Note_on_c, 2, 71, 92
4, 411355, Note_off_c, 2, 71, 64
4, 411360, Note_on_c, 2, 72, 92
4, 411955, Note_off_c, 2, 72, 64
4, 411960, Note_on_c, 2, 75, 92
4, 412080, Note_off_c, 2, 75, 64
4, 412080, Note_on_c, 2, 74, 92
4, 412200, Note_off_c, 2, 74, 64
4, 412200, Note_on_c, 2, 77, 92
4, 412320, Note_off_c, 2, 77, 64
4, 412320, Note_on_c, 2, 75, 92
4, 412440, Note_off_c, 2, 75, 64
4, 412440, Note_on_c, 2, 79, 92
4, 412560, Note_off_c, 2, 79, 64
4, 412560, Note_on_c, 2, 77, 92
4, 412680, Note_off_c, 2, 77, 64
4, 412680, Note_on_c, 2, 80, 92
4, 412795, Note_off_c, 2, 80, 64
4, 412800, Note_on_c, 2, 74, 92
4, 412830, Note_off_c, 2, 74, 64
4, 412830, Note_on_c, 2, 75, 92
4, 412860, Note_off_c, 2, 75, 64
4, 412860, Note_on_c, 2, 74, 92
4, 412890, Note_off_c, 2, 74, 64
4, 412890, Note_on_c, 2, 75, 92
4, 412920, Note_off_c, 2, 75, 64
4, 412920, Note_on_c, 2, 74, 92
4, 412950, Note_off_c, 2, 74, 64
4, 412950, Note_on_c, 2, 75, 92
4, 412980, Note_off_c, 2, 75, 64
4, 412980, Note_on_c, 2, 74, 92
4, 413010, Note_off_c, 2, 74, 64
4, 413010, Note_on_c, 2, 75, 92
4, 413040, Note_off_c, 2, 75, 64
4, 413040, Note_on_c, 2, 74, 92
4, 413070, Note_off_c, 2, 74, 64
4, 413070, Note_on_c, 2, 75, 92
4, 413100, Note_off_c, 2, 75, 64
4, 413100, Note_on_c, 2, 74, 92
4, 413130, Note_off_c, 2, 74, 64
4, 413130, Note_on_c, 2, 75, 92
4, 413160, Note_off_c, 2, 75, 64
4, 413160, Note_on_c, 2, 74, 92
4, 413190, Note_off_c, 2, 74, 64
4, 413190, Note_on_c, 2, 75, 92
4, 413220, Note_off_c, 2, 75, 64
4, 413220, Note_on_c, 2, 74, 92
4, 413250, Note_off_c, 2, 74, 64
4, 413250, Note_on_c, 2, 75, 92
4, 413280, Note_off_c, 2, 75, 64
4, 413280, Note_on_c, 2, 72, 92
4, 413680, Note_off_c, 2, 72, 64
4, 413880, Note_on_c, 2, 84, 92
4, 414000, Note_off_c, 2, 84, 64
4, 414000, Note_on_c, 2, 82, 92
4, 414120, Note_off_c, 2, 82, 64
4, 414120, Note_on_c, 2, 84, 92
4, 414240, Note_off_c, 2, 84, 64
4, 414240, Note_on_c, 2, 80, 92
4, 414360, Note_off_c, 2, 80, 64
4, 414360, Note_on_c, 2, 84, 92
4, 414480, Note_off_c, 2, 84, 64
4, 414480, Note_on_c, 2, 77, 92
4, 414600, Note_off_c, 2, 77, 64
4, 414600, Note_on_c, 2, 80, 92
4, 414720, Note_off_c, 2, 80, 64
4, 414720, Note_on_c, 2, 76, 92
4, 415200, Note_off_c, 2, 76, 64
4, 415440, Note_on_c, 2, 76, 92
4, 415680, Note_off_c, 2, 76, 64
4, 415680, Note_on_c, 2, 77, 92
4, 415920, Note_off_c, 2, 77, 64
4, 415920, Note_on_c, 2, 77, 92
4, 416160, Note_off_c, 2, 77, 64
4, 416160, Note_on_c, 2, 79, 92
4, 416640, Note_off_c, 2, 79, 64
4, 416880, Note_on_c, 2, 79, 92
4, 417120, Note_off_c, 2, 79, 64
4, 417120, Note_on_c, 2, 80, 92
4, 417360, Note_off_c, 2, 80, 64
4, 417360, Note_on_c, 2, 80, 92
4, 417600, Note_off_c, 2, 80, 64
4, 417720, Note_on_c, 2, 82, 92
4, 417835, Note_off_c, 2, 82, 64
4, 417840, Note_on_c, 2, 80, 92
4, 417955, Note_off_c, 2, 80, 64
4, 417960, Note_on_c, 2, 82, 92
4, 418075, Note_off_c, 2, 82, 64
4, 418080, Note_on_c, 2, 79, 92
4, 418795, Note_off_c, 2, 79, 64
4, 418800, Note_on_c, 2, 77, 92
4, 419155, Note_off_c, 2, 77, 64
4, 419160, Note_on_c, 2, 77, 92
4, 419280, Note_off_c, 2, 77, 64
4, 419280, Note_on_c, 2, 76, 92
4, 419400, Note_off_c, 2, 76, 64
4, 419400, Note_on_c, 2, 77, 92
4, 419520, Note_off_c, 2, 77, 64
4, 419520, Note_on_c, 2, 71, 92
4, 420115, Note_off_c, 2, 71, 64
4, 420120, Note_on_c, 2, 74, 92
4, 420240, Note_off_c, 2, 74, 64
4, 420240, Note_on_c, 2, 71, 92
4, 420360, Note_off_c, 2, 71, 64
4, 420360, Note_on_c, 2, 74, 92
4, 420480, Note_off_c, 2, 74, 64
4, 420480, Note_on_c, 2, 76, 92
4, 421800, Note_off_c, 2, 76, 64
4, 421800, End_track
5, 0, Start_track
5, 0, Title_t, "arr :  G. Pollen (2000)"
5, 0, MIDI_port, 0
5, 0, Channel_prefix, 2
5, 0, Control_c, 2, 7, 107
5, 0, Control_c, 2, 10, 80
5, 0, Control_c, 2, 91, 53
5, 0, Program_c, 2, 68
5, 24240, Note_on_c, 2, 67, 30
5, 25320, Note_off_c, 2, 67, 64
5, 25680, Note_on_c, 2, 67, 30
5, 26400, Note_off_c, 2, 67, 64
5, 26400, Note_on_c, 2, 65, 30
5, 26800, Note_off_c, 2, 65, 64
5, 27120, Note_on_c, 2, 63, 30
5, 27840, Note_off_c, 2, 63, 64
5, 27840, Note_on_c, 2, 62, 30
5, 28240, Note_off_c, 2, 62, 64
5, 28560, Note_on_c, 2, 63, 30
5, 29280, Note_off_c, 2, 63, 64
5, 29280, Note_on_c, 2, 62, 30
5, 29680, Note_off_c, 2, 62, 64
5, 30000, Note_on_c, 2, 71, 30
5, 30720, Note_off_c, 2, 71, 64
5, 30720, Note_on_c, 2, 72, 30
5, 31120, Note_off_c, 2, 72, 64
5, 31440, Note_on_c, 2, 68, 30
5, 31920, Note_off_c, 2, 68, 64
5, 31920, Note_on_c, 2, 67, 30
5, 32560, Note_off_c, 2, 67, 64
5, 32880, Note_on_c, 2, 68, 30
5, 33960, Note_off_c, 2, 68, 64
5, 34080, Note_on_c, 2, 67, 30
5, 34440, Note_off_c, 2, 67, 64
5, 34440, Note_on_c, 2, 65, 30
5, 34560, Note_off_c, 2, 65, 64
5, 34560, Note_on_c, 2, 63, 30
5, 34960, Note_off_c, 2, 63, 64
5, 58800, Note_on_c, 2, 67, 60
5, 58920, Note_off_c, 2, 67, 64
5, 58920, Note_on_c, 2, 66, 60
5, 59040, Note_off_c, 2, 66, 64
5, 59040, Note_on_c, 2, 67, 60
5, 59275, Note_off_c, 2, 67, 64
5, 59280, Note_on_c, 2, 74, 60
5, 59400, Note_off_c, 2, 74, 64
5, 59400, Note_on_c, 2, 62, 60
5, 59520, Note_off_c, 2, 62, 64
5, 59520, Note_on_c, 2, 67, 60
5, 59920, Note_off_c, 2, 67, 64
5, 60240, Note_on_c, 2, 67, 60
5, 60360, Note_off_c, 2, 67, 64
5, 60360, Note_on_c, 2, 63, 60
5, 60480, Note_off_c, 2, 63, 64
5, 60480, Note_on_c, 2, 68, 60
5, 61120, Note_off_c, 2, 68, 64
5, 61200, Note_on_c, 2, 65, 60
5, 61440, Note_off_c, 2, 65, 64
5, 61440, Note_on_c, 2, 67, 60
5, 61920, Note_off_c, 2, 67, 64
5, 61920, Note_on_c, 2, 63, 60
5, 62320, Note_off_c, 2, 63, 64
5, 63120, Note_on_c, 2, 74, 60
5, 63240, Note_off_c, 2, 74, 64
5, 63240, Note_on_c, 2, 77, 60
5, 63360, Note_off_c, 2, 77, 64
5, 63360, Note_on_c, 2, 71, 60
5, 63760, Note_off_c, 2, 71, 64
5, 64560, Note_on_c, 2, 67, 60
5, 64680, Note_off_c, 2, 67, 64
5, 64680, Note_on_c, 2, 65, 60
5, 64800, Note_off_c, 2, 65, 64
5, 64800, Note_on_c, 2, 67, 60
5, 65200, Note_off_c, 2, 67, 64
5, 66000, Note_on_c, 2, 67, 60
5, 66640, Note_off_c, 2, 67, 64
5, 67440, Note_on_c, 2, 74, 60
5, 67560, Note_off_c, 2, 74, 64
5, 67560, Note_on_c, 2, 69, 60
5, 67680, Note_off_c, 2, 69, 64
5, 67680, Note_on_c, 2, 71, 60
5, 68080, Note_off_c, 2, 71, 64
5, 68400, Note_on_c, 2, 72, 60
5, 68520, Note_off_c, 2, 72, 64
5, 68520, Note_on_c, 2, 69, 60
5, 68640, Note_off_c, 2, 69, 64
5, 68640, Note_on_c, 2, 71, 60
5, 69120, Note_off_c, 2, 71, 64
5, 69120, Note_on_c, 2, 72, 60
5, 69520, Note_off_c, 2, 72, 64
5, 69720, Note_on_c, 2, 62, 60
5, 69840, Note_off_c, 2, 62, 64
5, 69840, Note_on_c, 2, 63, 60
5, 69960, Note_off_c, 2, 63, 64
5, 69960, Note_on_c, 2, 65, 60
5, 70080, Note_off_c, 2, 65, 64
5, 70080, Note_on_c, 2, 67, 60
5, 70960, Note_off_c, 2, 67, 64
5, 71160, Note_on_c, 2, 67, 60
5, 71280, Note_off_c, 2, 67, 64
5, 71280, Note_on_c, 2, 69, 60
5, 71400, Note_off_c, 2, 69, 64
5, 71400, Note_on_c, 2, 71, 60
5, 71520, Note_off_c, 2, 71, 64
5, 71520, Note_on_c, 2, 72, 60
5, 72400, Note_off_c, 2, 72, 64
5, 72600, Note_on_c, 2, 69, 60
5, 72720, Note_off_c, 2, 69, 64
5, 72720, Note_on_c, 2, 71, 60
5, 72840, Note_off_c, 2, 71, 64
5, 72840, Note_on_c, 2, 72, 60
5, 72960, Note_off_c, 2, 72, 64
5, 72960, Note_on_c, 2, 71, 60
5, 73195, Note_off_c, 2, 71, 64
5, 73200, Note_on_c, 2, 67, 60
5, 73840, Note_off_c, 2, 67, 64
5, 74040, Note_on_c, 2, 67, 60
5, 74160, Note_off_c, 2, 67, 64
5, 74160, Note_on_c, 2, 68, 60
5, 74280, Note_off_c, 2, 68, 64
5, 74280, Note_on_c, 2, 70, 60
5, 74400, Note_off_c, 2, 70, 64
5, 74400, Note_on_c, 2, 72, 60
5, 74640, Note_off_c, 2, 72, 64
5, 74640, Note_on_c, 2, 68, 60
5, 74880, Note_off_c, 2, 68, 64
5, 74880, Note_on_c, 2, 67, 60
5, 75280, Note_off_c, 2, 67, 64
5, 75480, Note_on_c, 2, 69, 60
5, 75600, Note_off_c, 2, 69, 64
5, 75600, Note_on_c, 2, 71, 60
5, 75720, Note_off_c, 2, 71, 64
5, 75720, Note_on_c, 2, 72, 60
5, 75840, Note_off_c, 2, 72, 64
5, 75840, Note_on_c, 2, 74, 60
5, 76320, Note_off_c, 2, 74, 64
5, 76320, Note_on_c, 2, 72, 60
5, 76720, Note_off_c, 2, 72, 64
5, 76920, Note_on_c, 2, 74, 60
5, 77040, Note_off_c, 2, 74, 64
5, 77040, Note_on_c, 2, 75, 60
5, 77160, Note_off_c, 2, 75, 64
5, 77160, Note_on_c, 2, 77, 60
5, 77280, Note_off_c, 2, 77, 64
5, 77280, Note_on_c, 2, 79, 60
5, 78160, Note_off_c, 2, 79, 64
5, 78360, Note_on_c, 2, 75, 60
5, 78480, Note_off_c, 2, 75, 64
5, 78480, Note_on_c, 2, 77, 60
5, 78600, Note_off_c, 2, 77, 64
5, 78600, Note_on_c, 2, 79, 60
5, 78720, Note_off_c, 2, 79, 64
5, 78720, Note_on_c, 2, 80, 60
5, 79120, Note_off_c, 2, 80, 64
5, 79200, Note_on_c, 2, 79, 60
5, 80275, Note_off_c, 2, 79, 64
5, 80280, Note_on_c, 2, 80, 60
5, 80400, Note_off_c, 2, 80, 64
5, 80400, Note_on_c, 2, 79, 60
5, 80520, Note_off_c, 2, 79, 64
5, 80520, Note_on_c, 2, 77, 60
5, 80640, Note_off_c, 2, 77, 64
5, 80640, Note_on_c, 2, 75, 60
5, 81040, Note_off_c, 2, 75, 64
5, 81240, Note_on_c, 2, 77, 60
5, 81360, Note_off_c, 2, 77, 64
5, 81360, Note_on_c, 2, 75, 60
5, 81480, Note_off_c, 2, 75, 64
5, 81480, Note_on_c, 2, 74, 60
5, 81600, Note_off_c, 2, 74, 64
5, 81600, Note_on_c, 2, 72, 60
5, 81715, Note_off_c, 2, 72, 64
5, 81720, Note_on_c, 2, 75, 60
5, 81840, Note_off_c, 2, 75, 64
5, 81840, Note_on_c, 2, 74, 60
5, 81960, Note_off_c, 2, 74, 64
5, 81960, Note_on_c, 2, 72, 60
5, 82080, Note_off_c, 2, 72, 64
5, 82080, Note_on_c, 2, 71, 60
5, 82480, Note_off_c, 2, 71, 64
5, 82680, Note_on_c, 2, 72, 60
5, 82800, Note_off_c, 2, 72, 64
5, 82800, Note_on_c, 2, 71, 60
5, 82920, Note_off_c, 2, 71, 64
5, 82920, Note_on_c, 2, 69, 60
5, 83040, Note_off_c, 2, 69, 64
5, 83040, Note_on_c, 2, 67, 60
5, 83160, Note_off_c, 2, 67, 64
5, 83160, Note_on_c, 2, 69, 60
5, 83280, Note_off_c, 2, 69, 64
5, 83280, Note_on_c, 2, 67, 60
5, 83400, Note_off_c, 2, 67, 64
5, 83400, Note_on_c, 2, 70, 60
5, 83520, Note_off_c, 2, 70, 64
5, 83520, Note_on_c, 2, 68, 60
5, 83920, Note_off_c, 2, 68, 64
5, 84600, Note_on_c, 2, 68, 60
5, 84720, Note_off_c, 2, 68, 64
5, 84720, Note_on_c, 2, 67, 60
5, 84840, Note_off_c, 2, 67, 64
5, 84840, Note_on_c, 2, 65, 60
5, 84960, Note_off_c, 2, 65, 64
5, 84960, Note_on_c, 2, 63, 60
5, 85360, Note_off_c, 2, 63, 64
5, 86040, Note_on_c, 2, 67, 60
5, 86160, Note_off_c, 2, 67, 64
5, 86160, Note_on_c, 2, 65, 60
5, 86280, Note_off_c, 2, 65, 64
5, 86280, Note_on_c, 2, 63, 60
5, 86400, Note_off_c, 2, 63, 64
5, 86400, Note_on_c, 2, 62, 60
5, 86800, Note_off_c, 2, 62, 64
5, 87000, Note_on_c, 2, 72, 60
5, 87120, Note_off_c, 2, 72, 64
5, 87120, Note_on_c, 2, 71, 60
5, 87240, Note_off_c, 2, 71, 64
5, 87240, Note_on_c, 2, 69, 60
5, 87360, Note_off_c, 2, 69, 64
5, 87360, Note_on_c, 2, 71, 60
5, 87840, Note_off_c, 2, 71, 64
5, 87840, Note_on_c, 2, 72, 60
5, 88240, Note_off_c, 2, 72, 64
5, 88440, Note_on_c, 2, 67, 60
5, 88560, Note_off_c, 2, 67, 64
5, 88560, Note_on_c, 2, 65, 60
5, 88680, Note_off_c, 2, 65, 64
5, 88680, Note_on_c, 2, 63, 60
5, 88800, Note_off_c, 2, 63, 64
5, 88800, Note_on_c, 2, 65, 60
5, 88920, Note_off_c, 2, 65, 64
5, 88920, Note_on_c, 2, 68, 60
5, 89040, Note_off_c, 2, 68, 64
5, 89040, Note_on_c, 2, 67, 60
5, 89160, Note_off_c, 2, 67, 64
5, 89160, Note_on_c, 2, 65, 60
5, 89280, Note_off_c, 2, 65, 64
5, 89280, Note_on_c, 2, 63, 60
5, 89680, Note_off_c, 2, 63, 64
5, 89880, Note_on_c, 2, 70, 60
5, 90000, Note_off_c, 2, 70, 64
5, 90000, Note_on_c, 2, 68, 60
5, 90120, Note_off_c, 2, 68, 64
5, 90120, Note_on_c, 2, 67, 60
5, 90240, Note_off_c, 2, 67, 64
5, 90240, Note_on_c, 2, 65, 60
5, 90600, Note_off_c, 2, 65, 64
5, 90600, Note_on_c, 2, 75, 60
5, 90720, Note_off_c, 2, 75, 64
5, 90720, Note_on_c, 2, 74, 60
5, 91075, Note_off_c, 2, 74, 64
5, 91080, Note_on_c, 2, 74, 60
5, 91200, Note_off_c, 2, 74, 64
5, 91200, Note_on_c, 2, 72, 60
5, 91320, Note_off_c, 2, 72, 64
5, 91320, Note_on_c, 2, 75, 60
5, 91440, Note_off_c, 2, 75, 64
5, 91440, Note_on_c, 2, 74, 60
5, 91560, Note_off_c, 2, 74, 64
5, 91560, Note_on_c, 2, 72, 60
5, 91680, Note_off_c, 2, 72, 64
5, 91680, Note_on_c, 2, 71, 60
5, 92160, Note_off_c, 2, 71, 64
5, 92160, Note_on_c, 2, 72, 60
5, 92560, Note_off_c, 2, 72, 64
5, 93720, Note_on_c, 2, 62, 60
5, 93840, Note_off_c, 2, 62, 64
5, 93840, Note_on_c, 2, 63, 60
5, 93960, Note_off_c, 2, 63, 64
5, 93960, Note_on_c, 2, 65, 60
5, 94080, Note_off_c, 2, 65, 64
5, 94080, Note_on_c, 2, 67, 60
5, 94200, Note_off_c, 2, 67, 64
5, 94200, Note_on_c, 2, 71, 60
5, 94320, Note_off_c, 2, 71, 64
5, 94320, Note_on_c, 2, 72, 60
5, 94440, Note_off_c, 2, 72, 64
5, 94440, Note_on_c, 2, 74, 60
5, 94560, Note_off_c, 2, 74, 64
5, 94560, Note_on_c, 2, 75, 60
5, 94680, Note_off_c, 2, 75, 64
5, 94680, Note_on_c, 2, 74, 60
5, 94800, Note_off_c, 2, 74, 64
5, 94800, Note_on_c, 2, 72, 60
5, 94920, Note_off_c, 2, 72, 64
5, 94920, Note_on_c, 2, 71, 60
5, 95040, Note_off_c, 2, 71, 64
5, 95040, Note_on_c, 2, 68, 60
5, 95155, Note_off_c, 2, 68, 64
5, 95160, Note_on_c, 2, 72, 60
5, 95280, Note_off_c, 2, 72, 64
5, 95280, Note_on_c, 2, 74, 60
5, 95400, Note_off_c, 2, 74, 64
5, 95400, Note_on_c, 2, 76, 60
5, 95520, Note_off_c, 2, 76, 64
5, 95520, Note_on_c, 2, 77, 60
5, 95640, Note_off_c, 2, 77, 64
5, 95640, Note_on_c, 2, 79, 60
5, 95760, Note_off_c, 2, 79, 64
5, 95760, Note_on_c, 2, 77, 60
5, 95880, Note_off_c, 2, 77, 64
5, 95880, Note_on_c, 2, 75, 60
5, 96000, Note_off_c, 2, 75, 64
5, 96000, Note_on_c, 2, 74, 60
5, 96115, Note_off_c, 2, 74, 64
5, 96120, Note_on_c, 2, 80, 60
5, 96240, Note_off_c, 2, 80, 64
5, 96240, Note_on_c, 2, 79, 60
5, 96360, Note_off_c, 2, 79, 64
5, 96360, Note_on_c, 2, 77, 60
5, 96480, Note_off_c, 2, 77, 64
5, 96480, Note_on_c, 2, 75, 60
5, 96600, Note_off_c, 2, 75, 64
5, 96600, Note_on_c, 2, 77, 60
5, 96720, Note_off_c, 2, 77, 64
5, 96720, Note_on_c, 2, 75, 60
5, 96840, Note_off_c, 2, 75, 64
5, 96840, Note_on_c, 2, 74, 60
5, 96960, Note_off_c, 2, 74, 64
5, 96960, Note_on_c, 2, 72, 60
5, 97360, Note_off_c, 2, 72, 64
5, 98040, Note_on_c, 2, 66, 60
5, 98160, Note_off_c, 2, 66, 64
5, 98160, Note_on_c, 2, 67, 60
5, 98280, Note_off_c, 2, 67, 64
5, 98280, Note_on_c, 2, 69, 60
5, 98400, Note_off_c, 2, 69, 64
5, 98400, Note_on_c, 2, 71, 60
5, 98520, Note_off_c, 2, 71, 64
5, 98520, Note_on_c, 2, 69, 60
5, 98640, Note_off_c, 2, 69, 64
5, 98640, Note_on_c, 2, 71, 60
5, 98760, Note_off_c, 2, 71, 64
5, 98760, Note_on_c, 2, 72, 60
5, 98875, Note_off_c, 2, 72, 64
5, 98880, Note_on_c, 2, 74, 60
5, 99475, Note_off_c, 2, 74, 64
5, 99480, Note_on_c, 2, 67, 60
5, 99600, Note_off_c, 2, 67, 64
5, 99600, Note_on_c, 2, 69, 60
5, 99720, Note_off_c, 2, 69, 64
5, 99720, Note_on_c, 2, 71, 60
5, 99840, Note_off_c, 2, 71, 64
5, 99840, Note_on_c, 2, 72, 60
5, 100240, Note_off_c, 2, 72, 64
5, 100920, Note_on_c, 2, 71, 60
5, 101040, Note_off_c, 2, 71, 64
5, 101040, Note_on_c, 2, 72, 60
5, 101160, Note_off_c, 2, 72, 64
5, 101160, Note_on_c, 2, 74, 60
5, 101280, Note_off_c, 2, 74, 64
5, 101280, Note_on_c, 2, 75, 60
5, 101400, Note_off_c, 2, 75, 64
5, 101400, Note_on_c, 2, 72, 60
5, 101520, Note_off_c, 2, 72, 64
5, 101520, Note_on_c, 2, 74, 60
5, 101640, Note_off_c, 2, 74, 64
5, 101640, Note_on_c, 2, 75, 60
5, 101755, Note_off_c, 2, 75, 64
5, 101760, Note_on_c, 2, 77, 60
5, 102355, Note_off_c, 2, 77, 64
5, 102360, Note_on_c, 2, 80, 62
5, 102480, Note_off_c, 2, 80, 64
5, 102480, Note_on_c, 2, 79, 62
5, 102600, Note_off_c, 2, 79, 64
5, 102600, Note_on_c, 2, 77, 62
5, 102720, Note_off_c, 2, 77, 64
5, 102720, Note_on_c, 2, 75, 62
5, 102840, Note_off_c, 2, 75, 64
5, 102840, Note_on_c, 2, 79, 62
5, 102960, Note_off_c, 2, 79, 64
5, 102960, Note_on_c, 2, 77, 62
5, 103080, Note_off_c, 2, 77, 64
5, 103080, Note_on_c, 2, 75, 62
5, 103195, Note_off_c, 2, 75, 64
5, 103200, Note_on_c, 2, 74, 63
5, 103680, Note_off_c, 2, 74, 64
5, 103680, Note_on_c, 2, 72, 67
5, 103795, Note_off_c, 2, 72, 64
5, 103800, Note_on_c, 2, 72, 68
5, 103920, Note_off_c, 2, 72, 64
5, 103920, Note_on_c, 2, 75, 69
5, 104040, Note_off_c, 2, 75, 64
5, 104040, Note_on_c, 2, 72, 70
5, 104160, Note_off_c, 2, 72, 64
5, 104160, Note_on_c, 2, 79, 71
5, 104520, Note_off_c, 2, 79, 64
5, 104520, Note_on_c, 2, 77, 74
5, 104635, Note_off_c, 2, 77, 64
5, 104640, Note_on_c, 2, 75, 75
5, 104670, Note_off_c, 2, 75, 64
5, 104670, Note_on_c, 2, 77, 75
5, 104700, Note_off_c, 2, 77, 64
5, 104700, Note_on_c, 2, 75, 75
5, 104730, Note_off_c, 2, 75, 64
5, 104730, Note_on_c, 2, 77, 75
5, 104760, Note_off_c, 2, 77, 64
5, 104760, Note_on_c, 2, 75, 75
5, 104790, Note_off_c, 2, 75, 64
5, 104790, Note_on_c, 2, 77, 75
5, 104820, Note_off_c, 2, 77, 64
5, 104820, Note_on_c, 2, 75, 75
5, 104850, Note_off_c, 2, 75, 64
5, 104850, Note_on_c, 2, 77, 75
5, 104880, Note_off_c, 2, 77, 64
5, 104880, Note_on_c, 2, 75, 75
5, 104910, Note_off_c, 2, 75, 64
5, 104910, Note_on_c, 2, 77, 75
5, 104940, Note_off_c, 2, 77, 64
5, 104940, Note_on_c, 2, 75, 75
5, 104970, Note_off_c, 2, 75, 64
5, 104970, Note_on_c, 2, 77, 75
5, 105000, Note_off_c, 2, 77, 64
5, 105000, Note_on_c, 2, 75, 75
5, 105030, Note_off_c, 2, 75, 64
5, 105030, Note_on_c, 2, 77, 75
5, 105060, Note_off_c, 2, 77, 64
5, 105060, Note_on_c, 2, 74, 75
5, 105090, Note_off_c, 2, 74, 64
5, 105090, Note_on_c, 2, 75, 75
5, 105120, Note_off_c, 2, 75, 64
5, 105120, Note_on_c, 2, 74, 75
5, 105520, Note_off_c, 2, 74, 64
5, 105840, Note_on_c, 2, 79, 75
5, 106480, Note_off_c, 2, 79, 64
5, 106560, Note_on_c, 2, 80, 75
5, 106960, Note_off_c, 2, 80, 64
5, 107520, Note_on_c, 2, 82, 75
5, 107920, Note_off_c, 2, 82, 64
5, 108120, Note_on_c, 2, 75, 75
5, 108240, Note_off_c, 2, 75, 64
5, 108240, Note_on_c, 2, 79, 75
5, 108360, Note_off_c, 2, 79, 64
5, 108360, Note_on_c, 2, 75, 75
5, 108480, Note_off_c, 2, 75, 64
5, 108480, Note_on_c, 2, 68, 75
5, 109360, Note_off_c, 2, 68, 64
5, 109440, Note_on_c, 2, 67, 75
5, 109840, Note_off_c, 2, 67, 64
5, 110040, Note_on_c, 2, 67, 75
5, 110160, Note_off_c, 2, 67, 64
5, 110160, Note_on_c, 2, 71, 75
5, 110280, Note_off_c, 2, 71, 64
5, 110280, Note_on_c, 2, 67, 75
5, 110395, Note_off_c, 2, 67, 64
5, 110400, Note_on_c, 2, 74, 75
5, 110520, Note_off_c, 2, 74, 64
5, 110520, Note_on_c, 2, 71, 75
5, 110640, Note_off_c, 2, 71, 64
5, 110640, Note_on_c, 2, 74, 75
5, 110760, Note_off_c, 2, 74, 64
5, 110760, Note_on_c, 2, 71, 75
5, 110880, Note_off_c, 2, 71, 64
5, 110880, Note_on_c, 2, 72, 75
5, 111280, Note_off_c, 2, 72, 64
5, 111480, Note_on_c, 2, 75, 75
5, 111600, Note_off_c, 2, 75, 64
5, 111600, Note_on_c, 2, 79, 75
5, 111720, Note_off_c, 2, 79, 64
5, 111720, Note_on_c, 2, 75, 75
5, 111835, Note_off_c, 2, 75, 64
5, 111840, Note_on_c, 2, 80, 75
5, 112320, Note_off_c, 2, 80, 64
5, 112320, Note_on_c, 2, 79, 75
5, 112720, Note_off_c, 2, 79, 64
5, 112920, Note_on_c, 2, 75, 75
5, 113040, Note_off_c, 2, 75, 64
5, 113040, Note_on_c, 2, 79, 75
5, 113160, Note_off_c, 2, 79, 64
5, 113160, Note_on_c, 2, 75, 75
5, 113275, Note_off_c, 2, 75, 64
5, 113280, Note_on_c, 2, 80, 75
5, 113760, Note_off_c, 2, 80, 64
5, 113760, Note_on_c, 2, 79, 75
5, 114160, Note_off_c, 2, 79, 64
5, 114360, Note_on_c, 2, 75, 75
5, 114480, Note_off_c, 2, 75, 64
5, 114480, Note_on_c, 2, 79, 75
5, 114600, Note_off_c, 2, 79, 64
5, 114600, Note_on_c, 2, 75, 75
5, 114720, Note_off_c, 2, 75, 64
5, 114720, Note_on_c, 2, 74, 75
5, 115200, Note_off_c, 2, 74, 64
5, 115200, Note_on_c, 2, 72, 80
5, 115435, Note_off_c, 2, 72, 64
5, 115440, Note_on_c, 2, 70, 83
5, 115560, Note_off_c, 2, 70, 64
5, 115560, Note_on_c, 2, 68, 84
5, 115680, Note_off_c, 2, 68, 64
5, 115680, Note_on_c, 2, 67, 85
5, 115800, Note_off_c, 2, 67, 64
5, 115800, Note_on_c, 2, 65, 86
5, 115920, Note_off_c, 2, 65, 64
5, 115920, Note_on_c, 2, 63, 88
5, 116040, Note_off_c, 2, 63, 64
5, 116040, Note_on_c, 2, 62, 90
5, 116155, Note_off_c, 2, 62, 64
5, 117600, Note_on_c, 2, 72, 92
5, 117715, Note_off_c, 2, 72, 64
5, 117720, Note_on_c, 2, 70, 92
5, 117840, Note_off_c, 2, 70, 64
5, 117840, Note_on_c, 2, 68, 92
5, 117960, Note_off_c, 2, 68, 64
5, 117960, Note_on_c, 2, 67, 92
5, 118080, Note_off_c, 2, 67, 64
5, 118080, Note_on_c, 2, 68, 92
5, 118200, Note_off_c, 2, 68, 64
5, 118200, Note_on_c, 2, 70, 92
5, 118320, Note_off_c, 2, 70, 64
5, 118320, Note_on_c, 2, 68, 92
5, 118440, Note_off_c, 2, 68, 64
5, 118440, Note_on_c, 2, 67, 92
5, 118560, Note_off_c, 2, 67, 64
5, 118560, Note_on_c, 2, 65, 92
5, 118680, Note_off_c, 2, 65, 64
5, 118680, Note_on_c, 2, 63, 92
5, 118800, Note_off_c, 2, 63, 64
5, 118800, Note_on_c, 2, 62, 92
5, 118920, Note_off_c, 2, 62, 64
5, 118920, Note_on_c, 2, 60, 92
5, 119040, Note_off_c, 2, 60, 64
5, 119040, Note_on_c, 2, 59, 92
5, 119160, Note_off_c, 2, 59, 64
5, 119160, Note_on_c, 2, 62, 92
5, 119280, Note_off_c, 2, 62, 64
5, 119280, Note_on_c, 2, 60, 92
5, 119400, Note_off_c, 2, 60, 64
5, 119400, Note_on_c, 2, 59, 92
5, 119520, Note_off_c, 2, 59, 64
5, 119520, Note_on_c, 2, 60, 92
5, 119640, Note_off_c, 2, 60, 64
5, 119640, Note_on_c, 2, 62, 92
5, 119760, Note_off_c, 2, 62, 64
5, 119760, Note_on_c, 2, 60, 92
5, 119880, Note_off_c, 2, 60, 64
5, 119880, Note_on_c, 2, 58, 92
5, 119995, Note_off_c, 2, 58, 64
5, 120000, Note_on_c, 2, 68, 92
5, 120120, Note_off_c, 2, 68, 64
5, 120120, Note_on_c, 2, 67, 92
5, 120240, Note_off_c, 2, 67, 64
5, 120240, Note_on_c, 2, 65, 92
5, 120360, Note_off_c, 2, 65, 64
5, 120360, Note_on_c, 2, 63, 92
5, 120480, Note_off_c, 2, 63, 64
5, 120480, Note_on_c, 2, 62, 92
5, 120600, Note_off_c, 2, 62, 64
5, 120600, Note_on_c, 2, 63, 92
5, 120720, Note_off_c, 2, 63, 64
5, 120720, Note_on_c, 2, 62, 92
5, 120840, Note_off_c, 2, 62, 64
5, 120840, Note_on_c, 2, 72, 92
5, 120960, Note_off_c, 2, 72, 64
5, 123840, Note_on_c, 2, 75, 92
5, 123960, Note_off_c, 2, 75, 64
5, 123960, Note_on_c, 2, 67, 92
5, 124080, Note_off_c, 2, 67, 64
5, 124080, Note_on_c, 2, 72, 92
5, 124200, Note_off_c, 2, 72, 64
5, 124200, Note_on_c, 2, 70, 92
5, 124320, Note_off_c, 2, 70, 64
5, 124320, Note_on_c, 2, 68, 92
5, 124440, Note_off_c, 2, 68, 64
5, 124440, Note_on_c, 2, 67, 92
5, 124560, Note_off_c, 2, 67, 64
5, 124560, Note_on_c, 2, 65, 92
5, 124680, Note_off_c, 2, 65, 64
5, 124680, Note_on_c, 2, 63, 92
5, 124795, Note_off_c, 2, 63, 64
5, 124800, Note_on_c, 2, 62, 92
5, 124920, Note_off_c, 2, 62, 64
5, 124920, Note_on_c, 2, 63, 92
5, 125040, Note_off_c, 2, 63, 64
5, 125040, Note_on_c, 2, 62, 92
5, 125160, Note_off_c, 2, 62, 64
5, 125160, Note_on_c, 2, 72, 92
5, 125280, Note_off_c, 2, 72, 64
5, 150720, Note_on_c, 2, 72, 45
5, 150840, Note_off_c, 2, 72, 64
5, 150840, Note_on_c, 2, 75, 45
5, 150960, Note_off_c, 2, 75, 64
5, 150960, Note_on_c, 2, 74, 45
5, 151080, Note_off_c, 2, 74, 64
5, 151080, Note_on_c, 2, 72, 45
5, 151200, Note_off_c, 2, 72, 64
5, 151200, Note_on_c, 2, 79, 45
5, 152040, Note_off_c, 2, 79, 64
5, 152160, Note_on_c, 2, 75, 45
5, 152640, Note_off_c, 2, 75, 64
5, 152640, Note_on_c, 2, 77, 45
5, 153240, Note_off_c, 2, 77, 64
5, 153240, Note_on_c, 2, 80, 45
5, 153360, Note_off_c, 2, 80, 64
5, 153360, Note_on_c, 2, 79, 45
5, 153480, Note_off_c, 2, 79, 64
5, 153480, Note_on_c, 2, 77, 45
5, 153600, Note_off_c, 2, 77, 64
5, 153600, Note_on_c, 2, 79, 45
5, 153720, Note_off_c, 2, 79, 64
5, 153720, Note_on_c, 2, 82, 45
5, 153840, Note_off_c, 2, 82, 64
5, 153840, Note_on_c, 2, 80, 45
5, 153960, Note_off_c, 2, 80, 64
5, 153960, Note_on_c, 2, 79, 45
5, 154075, Note_off_c, 2, 79, 64
5, 154080, Note_on_c, 2, 80, 45
5, 154675, Note_off_c, 2, 80, 64
5, 154680, Note_on_c, 2, 82, 45
5, 154800, Note_off_c, 2, 82, 64
5, 154800, Note_on_c, 2, 80, 45
5, 154920, Note_off_c, 2, 80, 64
5, 154920, Note_on_c, 2, 79, 45
5, 155040, Note_off_c, 2, 79, 64
5, 155040, Note_on_c, 2, 77, 45
5, 155520, Note_off_c, 2, 77, 64
5, 155520, Note_on_c, 2, 79, 45
5, 156115, Note_off_c, 2, 79, 64
5, 156120, Note_on_c, 2, 79, 45
5, 156240, Note_off_c, 2, 79, 64
5, 156240, Note_on_c, 2, 77, 45
5, 156360, Note_off_c, 2, 77, 64
5, 156360, Note_on_c, 2, 75, 45
5, 156480, Note_off_c, 2, 75, 64
5, 156480, Note_on_c, 2, 74, 45
5, 156600, Note_off_c, 2, 74, 64
5, 156600, Note_on_c, 2, 77, 45
5, 156720, Note_off_c, 2, 77, 64
5, 156720, Note_on_c, 2, 75, 45
5, 156840, Note_off_c, 2, 75, 64
5, 156840, Note_on_c, 2, 74, 45
5, 156955, Note_off_c, 2, 74, 64
5, 156960, Note_on_c, 2, 75, 45
5, 157555, Note_off_c, 2, 75, 64
5, 157560, Note_on_c, 2, 75, 45
5, 157680, Note_off_c, 2, 75, 64
5, 157680, Note_on_c, 2, 74, 45
5, 157800, Note_off_c, 2, 74, 64
5, 157800, Note_on_c, 2, 72, 45
5, 157920, Note_off_c, 2, 72, 64
5, 157920, Note_on_c, 2, 71, 45
5, 158040, Note_off_c, 2, 71, 64
5, 158040, Note_on_c, 2, 74, 45
5, 158160, Note_off_c, 2, 74, 64
5, 158160, Note_on_c, 2, 72, 45
5, 158280, Note_off_c, 2, 72, 64
5, 158280, Note_on_c, 2, 71, 45
5, 158400, Note_off_c, 2, 71, 64
5, 158400, Note_on_c, 2, 72, 45
5, 158995, Note_off_c, 2, 72, 64
5, 159000, Note_on_c, 2, 71, 45
5, 159120, Note_off_c, 2, 71, 64
5, 159120, Note_on_c, 2, 68, 45
5, 159240, Note_off_c, 2, 68, 64
5, 159240, Note_on_c, 2, 67, 45
5, 159360, Note_off_c, 2, 67, 64
5, 159360, Note_on_c, 2, 77, 45
5, 159480, Note_off_c, 2, 77, 64
5, 159480, Note_on_c, 2, 80, 45
5, 159600, Note_off_c, 2, 80, 64
5, 159600, Note_on_c, 2, 79, 45
5, 159720, Note_off_c, 2, 79, 64
5, 159720, Note_on_c, 2, 77, 45
5, 159835, Note_off_c, 2, 77, 64
5, 159840, Note_on_c, 2, 79, 45
5, 160435, Note_off_c, 2, 79, 64
5, 160440, Note_on_c, 2, 79, 45
5, 160560, Note_off_c, 2, 79, 64
5, 160560, Note_on_c, 2, 77, 45
5, 160680, Note_off_c, 2, 77, 64
5, 160680, Note_on_c, 2, 75, 45
5, 160800, Note_off_c, 2, 75, 64
5, 160800, Note_on_c, 2, 74, 45
5, 160920, Note_off_c, 2, 74, 64
5, 160920, Note_on_c, 2, 77, 45
5, 161040, Note_off_c, 2, 77, 64
5, 161040, Note_on_c, 2, 75, 45
5, 161160, Note_off_c, 2, 75, 64
5, 161160, Note_on_c, 2, 74, 45
5, 161280, Note_off_c, 2, 74, 64
5, 161280, Note_on_c, 2, 75, 45
5, 161875, Note_off_c, 2, 75, 64
5, 161880, Note_on_c, 2, 77, 46
5, 162000, Note_off_c, 2, 77, 64
5, 162000, Note_on_c, 2, 75, 48
5, 162120, Note_off_c, 2, 75, 64
5, 162120, Note_on_c, 2, 74, 50
5, 162240, Note_off_c, 2, 74, 64
5, 162240, Note_on_c, 2, 72, 52
5, 162640, Note_off_c, 2, 72, 64
5, 162840, Note_on_c, 2, 67, 60
5, 162960, Note_off_c, 2, 67, 64
5, 162960, Note_on_c, 2, 71, 60
5, 163080, Note_off_c, 2, 71, 64
5, 163080, Note_on_c, 2, 74, 60
5, 163200, Note_off_c, 2, 74, 64
5, 163200, Note_on_c, 2, 79, 60
5, 163600, Note_off_c, 2, 79, 64
5, 163680, Note_on_c, 2, 75, 60
5, 163800, Note_off_c, 2, 75, 64
5, 163800, Note_on_c, 2, 67, 60
5, 163920, Note_off_c, 2, 67, 64
5, 163920, Note_on_c, 2, 72, 60
5, 164040, Note_off_c, 2, 72, 64
5, 164040, Note_on_c, 2, 75, 60
5, 164155, Note_off_c, 2, 75, 64
5, 164280, Note_on_c, 2, 77, 60
5, 164400, Note_off_c, 2, 77, 64
5, 164400, Note_on_c, 2, 68, 60
5, 164520, Note_off_c, 2, 68, 64
5, 164520, Note_on_c, 2, 72, 60
5, 164640, Note_off_c, 2, 72, 64
5, 164640, Note_on_c, 2, 77, 60
5, 165040, Note_off_c, 2, 77, 64
5, 165120, Note_on_c, 2, 67, 60
5, 165240, Note_off_c, 2, 67, 64
5, 165240, Note_on_c, 2, 71, 60
5, 165360, Note_off_c, 2, 71, 64
5, 165360, Note_on_c, 2, 75, 60
5, 165480, Note_off_c, 2, 75, 64
5, 165480, Note_on_c, 2, 79, 60
5, 165595, Note_off_c, 2, 79, 64
5, 165720, Note_on_c, 2, 68, 60
5, 165840, Note_off_c, 2, 68, 64
5, 165840, Note_on_c, 2, 72, 60
5, 165960, Note_off_c, 2, 72, 64
5, 165960, Note_on_c, 2, 75, 60
5, 166080, Note_off_c, 2, 75, 64
5, 166080, Note_on_c, 2, 80, 60
5, 166480, Note_off_c, 2, 80, 64
5, 166560, Note_on_c, 2, 77, 60
5, 166680, Note_off_c, 2, 77, 64
5, 166680, Note_on_c, 2, 68, 60
5, 166800, Note_off_c, 2, 68, 64
5, 166800, Note_on_c, 2, 72, 60
5, 166920, Note_off_c, 2, 72, 64
5, 166920, Note_on_c, 2, 75, 60
5, 167035, Note_off_c, 2, 75, 64
5, 167160, Note_on_c, 2, 67, 60
5, 167280, Note_off_c, 2, 67, 64
5, 167280, Note_on_c, 2, 71, 60
5, 167400, Note_off_c, 2, 71, 64
5, 167400, Note_on_c, 2, 74, 60
5, 167520, Note_off_c, 2, 74, 64
5, 167520, Note_on_c, 2, 79, 60
5, 167920, Note_off_c, 2, 79, 64
5, 168000, Note_on_c, 2, 74, 60
5, 168120, Note_off_c, 2, 74, 64
5, 168120, Note_on_c, 2, 77, 60
5, 168240, Note_off_c, 2, 77, 64
5, 168240, Note_on_c, 2, 71, 60
5, 168360, Note_off_c, 2, 71, 64
5, 168360, Note_on_c, 2, 74, 60
5, 168475, Note_off_c, 2, 74, 64
5, 168600, Note_on_c, 2, 75, 60
5, 168720, Note_off_c, 2, 75, 64
5, 168720, Note_on_c, 2, 79, 60
5, 168840, Note_off_c, 2, 79, 64
5, 168840, Note_on_c, 2, 70, 60
5, 168960, Note_off_c, 2, 70, 64
5, 168960, Note_on_c, 2, 75, 60
5, 169360, Note_off_c, 2, 75, 64
5, 169440, Note_on_c, 2, 71, 60
5, 169560, Note_off_c, 2, 71, 64
5, 169560, Note_on_c, 2, 74, 60
5, 169680, Note_off_c, 2, 74, 64
5, 169680, Note_on_c, 2, 67, 60
5, 169800, Note_off_c, 2, 67, 64
5, 169800, Note_on_c, 2, 71, 60
5, 169915, Note_off_c, 2, 71, 64
5, 170040, Note_on_c, 2, 72, 60
5, 170160, Note_off_c, 2, 72, 64
5, 170160, Note_on_c, 2, 75, 60
5, 170280, Note_off_c, 2, 75, 64
5, 170280, Note_on_c, 2, 67, 60
5, 170400, Note_off_c, 2, 67, 64
5, 170400, Note_on_c, 2, 72, 60
5, 170800, Note_off_c, 2, 72, 64
5, 170880, Note_on_c, 2, 77, 60
5, 171000, Note_off_c, 2, 77, 64
5, 171000, Note_on_c, 2, 72, 60
5, 171120, Note_off_c, 2, 72, 64
5, 171120, Note_on_c, 2, 74, 60
5, 171240, Note_off_c, 2, 74, 64
5, 171240, Note_on_c, 2, 77, 60
5, 171355, Note_off_c, 2, 77, 64
5, 171480, Note_on_c, 2, 67, 60
5, 171600, Note_off_c, 2, 67, 64
5, 171600, Note_on_c, 2, 72, 60
5, 171720, Note_off_c, 2, 72, 64
5, 171720, Note_on_c, 2, 75, 60
5, 171840, Note_off_c, 2, 75, 64
5, 171840, Note_on_c, 2, 79, 60
5, 172240, Note_off_c, 2, 79, 64
5, 172320, Note_on_c, 2, 67, 60
5, 172440, Note_off_c, 2, 67, 64
5, 172440, Note_on_c, 2, 71, 60
5, 172560, Note_off_c, 2, 71, 64
5, 172560, Note_on_c, 2, 74, 60
5, 172680, Note_off_c, 2, 74, 64
5, 172680, Note_on_c, 2, 79, 60
5, 172800, Note_off_c, 2, 79, 64
5, 172800, Note_on_c, 2, 72, 60
5, 173200, Note_off_c, 2, 72, 64
5, 173760, Note_on_c, 2, 67, 75
5, 174160, Note_off_c, 2, 67, 64
5, 174240, Note_on_c, 2, 67, 75
5, 175080, Note_off_c, 2, 67, 64
5, 175200, Note_on_c, 2, 67, 75
5, 175600, Note_off_c, 2, 67, 64
5, 175680, Note_on_c, 2, 68, 75
5, 176520, Note_off_c, 2, 68, 64
5, 176640, Note_on_c, 2, 67, 75
5, 177040, Note_off_c, 2, 67, 64
5, 177120, Note_on_c, 2, 68, 75
5, 177960, Note_off_c, 2, 68, 64
5, 178080, Note_on_c, 2, 68, 75
5, 178480, Note_off_c, 2, 68, 64
5, 178560, Note_on_c, 2, 67, 75
5, 179400, Note_off_c, 2, 67, 64
5, 179520, Note_on_c, 2, 65, 75
5, 179920, Note_off_c, 2, 65, 64
5, 180000, Note_on_c, 2, 67, 75
5, 180840, Note_off_c, 2, 67, 64
5, 180960, Note_on_c, 2, 67, 75
5, 181360, Note_off_c, 2, 67, 64
5, 181440, Note_on_c, 2, 67, 75
5, 182280, Note_off_c, 2, 67, 64
5, 182400, Note_on_c, 2, 68, 75
5, 182800, Note_off_c, 2, 68, 64
5, 182880, Note_on_c, 2, 72, 75
5, 183840, Note_off_c, 2, 72, 64
5, 183840, Note_on_c, 2, 71, 81
5, 184240, Note_off_c, 2, 71, 64
5, 184320, Note_on_c, 2, 67, 84
5, 185160, Note_off_c, 2, 67, 64
5, 185520, Note_on_c, 2, 75, 127
5, 185755, Note_off_c, 2, 75, 64
5, 185880, Note_on_c, 2, 84, 92
5, 186000, Note_off_c, 2, 84, 64
5, 186000, Note_on_c, 2, 86, 92
5, 186120, Note_off_c, 2, 86, 64
5, 186120, Note_on_c, 2, 81, 92
5, 186240, Note_off_c, 2, 81, 64
5, 186240, Note_on_c, 2, 83, 92
5, 186360, Note_off_c, 2, 83, 64
5, 186360, Note_on_c, 2, 78, 92
5, 186480, Note_off_c, 2, 78, 64
5, 186480, Note_on_c, 2, 79, 92
5, 186955, Note_off_c, 2, 79, 64
5, 186960, Note_on_c, 2, 72, 127
5, 187195, Note_off_c, 2, 72, 64
5, 187320, Note_on_c, 2, 82, 92
5, 187440, Note_off_c, 2, 82, 64
5, 187440, Note_on_c, 2, 84, 92
5, 187560, Note_off_c, 2, 84, 64
5, 187560, Note_on_c, 2, 79, 92
5, 187680, Note_off_c, 2, 79, 64
5, 187680, Note_on_c, 2, 80, 92
5, 187800, Note_off_c, 2, 80, 64
5, 187800, Note_on_c, 2, 76, 92
5, 187920, Note_off_c, 2, 76, 64
5, 187920, Note_on_c, 2, 77, 92
5, 188160, Note_off_c, 2, 77, 64
5, 188160, Note_on_c, 2, 75, 92
5, 188395, Note_off_c, 2, 75, 64
5, 188400, Note_on_c, 2, 71, 127
5, 188635, Note_off_c, 2, 71, 64
5, 188760, Note_on_c, 2, 74, 92
5, 188880, Note_off_c, 2, 74, 64
5, 188880, Note_on_c, 2, 75, 92
5, 189000, Note_off_c, 2, 75, 64
5, 189000, Note_on_c, 2, 83, 92
5, 189120, Note_off_c, 2, 83, 64
5, 189120, Note_on_c, 2, 84, 92
5, 189240, Note_off_c, 2, 84, 64
5, 189240, Note_on_c, 2, 79, 92
5, 189360, Note_off_c, 2, 79, 64
5, 189360, Note_on_c, 2, 80, 92
5, 189835, Note_off_c, 2, 80, 64
5, 189840, Note_on_c, 2, 72, 127
5, 190075, Note_off_c, 2, 72, 64
5, 190200, Note_on_c, 2, 84, 92
5, 190320, Note_off_c, 2, 84, 64
5, 190320, Note_on_c, 2, 86, 92
5, 190435, Note_off_c, 2, 86, 64
5, 190440, Note_on_c, 2, 81, 92
5, 190560, Note_off_c, 2, 81, 64
5, 190560, Note_on_c, 2, 83, 92
5, 190675, Note_off_c, 2, 83, 64
5, 190680, Note_on_c, 2, 78, 92
5, 190800, Note_off_c, 2, 78, 64
5, 190800, Note_on_c, 2, 79, 92
5, 191040, Note_off_c, 2, 79, 64
5, 191040, Note_on_c, 2, 77, 92
5, 191275, Note_off_c, 2, 77, 64
5, 191280, Note_on_c, 2, 71, 127
5, 191515, Note_off_c, 2, 71, 64
5, 191640, Note_on_c, 2, 78, 92
5, 191760, Note_off_c, 2, 78, 64
5, 191760, Note_on_c, 2, 79, 92
5, 191880, Note_off_c, 2, 79, 64
5, 191880, Note_on_c, 2, 74, 92
5, 192000, Note_off_c, 2, 74, 64
5, 192000, Note_on_c, 2, 75, 92
5, 192120, Note_off_c, 2, 75, 64
5, 192120, Note_on_c, 2, 71, 92
5, 192240, Note_off_c, 2, 71, 64
5, 192240, Note_on_c, 2, 72, 92
5, 192480, Note_off_c, 2, 72, 64
5, 192480, Note_on_c, 2, 71, 92
5, 192715, Note_off_c, 2, 71, 64
5, 192720, Note_on_c, 2, 71, 127
5, 192955, Note_off_c, 2, 71, 64
5, 193080, Note_on_c, 2, 77, 92
5, 193200, Note_off_c, 2, 77, 64
5, 193200, Note_on_c, 2, 79, 92
5, 193320, Note_off_c, 2, 79, 64
5, 193320, Note_on_c, 2, 74, 92
5, 193440, Note_off_c, 2, 74, 64
5, 193440, Note_on_c, 2, 75, 92
5, 193560, Note_off_c, 2, 75, 64
5, 193560, Note_on_c, 2, 71, 92
5, 193680, Note_off_c, 2, 71, 64
5, 193680, Note_on_c, 2, 72, 92
5, 194155, Note_off_c, 2, 72, 64
5, 194160, Note_on_c, 2, 72, 127
5, 194395, Note_off_c, 2, 72, 64
5, 194520, Note_on_c, 2, 77, 92
5, 194640, Note_off_c, 2, 77, 64
5, 194640, Note_on_c, 2, 79, 92
5, 194760, Note_off_c, 2, 79, 64
5, 194760, Note_on_c, 2, 74, 92
5, 194880, Note_off_c, 2, 74, 64
5, 194880, Note_on_c, 2, 75, 92
5, 195000, Note_off_c, 2, 75, 64
5, 195000, Note_on_c, 2, 71, 92
5, 195120, Note_off_c, 2, 71, 64
5, 195120, Note_on_c, 2, 72, 92
5, 195360, Note_off_c, 2, 72, 64
5, 195360, Note_on_c, 2, 71, 92
5, 195595, Note_off_c, 2, 71, 64
5, 195600, Note_on_c, 2, 71, 127
5, 195835, Note_off_c, 2, 71, 64
5, 195960, Note_on_c, 2, 77, 92
5, 196080, Note_off_c, 2, 77, 64
5, 196080, Note_on_c, 2, 79, 92
5, 196200, Note_off_c, 2, 79, 64
5, 196200, Note_on_c, 2, 74, 92
5, 196320, Note_off_c, 2, 74, 64
5, 196320, Note_on_c, 2, 75, 92
5, 196440, Note_off_c, 2, 75, 64
5, 196440, Note_on_c, 2, 71, 92
5, 196560, Note_off_c, 2, 71, 64
5, 196560, Note_on_c, 2, 72, 92
5, 196795, Note_off_c, 2, 72, 64
5, 196920, Note_on_c, 2, 77, 92
5, 196980, Note_off_c, 2, 77, 64
5, 196980, Note_on_c, 2, 75, 92
5, 197035, Note_off_c, 2, 75, 64
5, 197040, Note_on_c, 2, 75, 92
5, 197160, Note_off_c, 2, 75, 64
5, 197160, Note_on_c, 2, 74, 92
5, 197220, Note_off_c, 2, 74, 64
5, 197220, Note_on_c, 2, 72, 92
5, 197275, Note_off_c, 2, 72, 64
5, 197280, Note_on_c, 2, 72, 92
5, 197400, Note_off_c, 2, 72, 64
5, 197400, Note_on_c, 2, 71, 92
5, 197460, Note_off_c, 2, 71, 64
5, 197460, Note_on_c, 2, 69, 92
5, 197515, Note_off_c, 2, 69, 64
5, 197520, Note_on_c, 2, 69, 92
5, 197640, Note_off_c, 2, 69, 64
5, 197640, Note_on_c, 2, 71, 92
5, 197700, Note_off_c, 2, 71, 64
5, 197700, Note_on_c, 2, 72, 92
5, 197755, Note_off_c, 2, 72, 64
5, 197760, Note_on_c, 2, 71, 92
5, 197880, Note_off_c, 2, 71, 64
5, 197880, Note_on_c, 2, 72, 92
5, 197940, Note_off_c, 2, 72, 64
5, 197940, Note_on_c, 2, 74, 92
5, 197995, Note_off_c, 2, 74, 64
5, 198000, Note_on_c, 2, 74, 92
5, 198120, Note_off_c, 2, 74, 64
5, 198120, Note_on_c, 2, 75, 92
5, 198180, Note_off_c, 2, 75, 64
5, 198180, Note_on_c, 2, 77, 92
5, 198235, Note_off_c, 2, 77, 64
5, 198240, Note_on_c, 2, 75, 92
5, 198360, Note_off_c, 2, 75, 64
5, 198360, Note_on_c, 2, 77, 92
5, 198420, Note_off_c, 2, 77, 64
5, 198420, Note_on_c, 2, 79, 92
5, 198475, Note_off_c, 2, 79, 64
5, 198480, Note_on_c, 2, 79, 92
5, 198600, Note_off_c, 2, 79, 64
5, 198600, Note_on_c, 2, 80, 92
5, 198660, Note_off_c, 2, 80, 64
5, 198660, Note_on_c, 2, 82, 92
5, 198715, Note_off_c, 2, 82, 64
5, 198720, Note_on_c, 2, 80, 92
5, 198840, Note_off_c, 2, 80, 64
5, 198840, Note_on_c, 2, 79, 92
5, 198900, Note_off_c, 2, 79, 64
5, 198900, Note_on_c, 2, 77, 92
5, 198955, Note_off_c, 2, 77, 64
5, 198960, Note_on_c, 2, 77, 92
5, 199080, Note_off_c, 2, 77, 64
5, 199080, Note_on_c, 2, 75, 92
5, 199140, Note_off_c, 2, 75, 64
5, 199140, Note_on_c, 2, 74, 92
5, 199195, Note_off_c, 2, 74, 64
5, 199200, Note_on_c, 2, 74, 92
5, 199320, Note_off_c, 2, 74, 64
5, 199320, Note_on_c, 2, 75, 92
5, 199380, Note_off_c, 2, 75, 64
5, 199380, Note_on_c, 2, 77, 92
5, 199435, Note_off_c, 2, 77, 64
5, 199440, Note_on_c, 2, 77, 92
5, 199560, Note_off_c, 2, 77, 64
5, 199560, Note_on_c, 2, 79, 92
5, 199620, Note_off_c, 2, 79, 64
5, 199620, Note_on_c, 2, 80, 92
5, 199675, Note_off_c, 2, 80, 64
5, 199680, Note_on_c, 2, 71, 92
5, 199710, Note_off_c, 2, 71, 64
5, 199710, Note_on_c, 2, 72, 92
5, 199740, Note_off_c, 2, 72, 64
5, 199740, Note_on_c, 2, 71, 92
5, 199770, Note_off_c, 2, 71, 64
5, 199770, Note_on_c, 2, 72, 92
5, 199800, Note_off_c, 2, 72, 64
5, 199800, Note_on_c, 2, 71, 92
5, 199830, Note_off_c, 2, 71, 64
5, 199830, Note_on_c, 2, 72, 92
5, 199860, Note_off_c, 2, 72, 64
5, 199860, Note_on_c, 2, 71, 92
5, 199890, Note_off_c, 2, 71, 64
5, 199890, Note_on_c, 2, 72, 92
5, 199920, Note_off_c, 2, 72, 64
5, 199920, Note_on_c, 2, 71, 92
5, 199950, Note_off_c, 2, 71, 64
5, 199950, Note_on_c, 2, 72, 92
5, 199980, Note_off_c, 2, 72, 64
5, 199980, Note_on_c, 2, 71, 92
5, 200010, Note_off_c, 2, 71, 64
5, 200010, Note_on_c, 2, 72, 92
5, 200040, Note_off_c, 2, 72, 64
5, 200040, Note_on_c, 2, 71, 92
5, 200070, Note_off_c, 2, 71, 64
5, 200070, Note_on_c, 2, 72, 92
5, 200100, Note_off_c, 2, 72, 64
5, 200100, Note_on_c, 2, 71, 92
5, 200130, Note_off_c, 2, 71, 64
5, 200130, Note_on_c, 2, 72, 92
5, 200160, Note_off_c, 2, 72, 64
5, 200160, Note_on_c, 2, 71, 92
5, 200190, Note_off_c, 2, 71, 64
5, 200190, Note_on_c, 2, 72, 92
5, 200220, Note_off_c, 2, 72, 64
5, 200220, Note_on_c, 2, 71, 92
5, 200250, Note_off_c, 2, 71, 64
5, 200250, Note_on_c, 2, 72, 92
5, 200280, Note_off_c, 2, 72, 64
5, 200280, Note_on_c, 2, 71, 92
5, 200305, Note_off_c, 2, 71, 64
5, 200310, Note_on_c, 2, 71, 92
5, 200340, Note_off_c, 2, 71, 64
5, 200340, Note_on_c, 2, 72, 92
5, 200370, Note_off_c, 2, 72, 64
5, 200370, Note_on_c, 2, 71, 92
5, 200400, Note_off_c, 2, 71, 64
5, 200400, Note_on_c, 2, 71, 92
5, 200455, Note_off_c, 2, 71, 64
5, 200460, Note_on_c, 2, 80, 92
5, 200520, Note_off_c, 2, 80, 64
5, 200520, Note_on_c, 2, 79, 92
5, 200580, Note_off_c, 2, 79, 64
5, 200580, Note_on_c, 2, 77, 92
5, 200635, Note_off_c, 2, 77, 64
5, 200640, Note_on_c, 2, 77, 92
5, 200700, Note_off_c, 2, 77, 64
5, 200700, Note_on_c, 2, 75, 92
5, 200760, Note_off_c, 2, 75, 64
5, 200760, Note_on_c, 2, 74, 92
5, 200815, Note_off_c, 2, 74, 64
5, 200820, Note_on_c, 2, 74, 92
5, 200880, Note_off_c, 2, 74, 64
5, 200880, Note_on_c, 2, 72, 92
5, 200940, Note_off_c, 2, 72, 64
5, 200940, Note_on_c, 2, 71, 92
5, 200995, Note_off_c, 2, 71, 64
5, 201000, Note_on_c, 2, 71, 92
5, 201060, Note_off_c, 2, 71, 64
5, 201060, Note_on_c, 2, 72, 92
5, 201120, Note_off_c, 2, 72, 64
5, 201120, Note_on_c, 2, 74, 92
5, 201175, Note_off_c, 2, 74, 64
5, 201180, Note_on_c, 2, 74, 92
5, 201240, Note_off_c, 2, 74, 64
5, 201240, Note_on_c, 2, 75, 92
5, 201300, Note_off_c, 2, 75, 64
5, 201300, Note_on_c, 2, 77, 92
5, 201355, Note_off_c, 2, 77, 64
5, 201360, Note_on_c, 2, 77, 92
5, 201480, Note_off_c, 2, 77, 64
5, 201480, Note_on_c, 2, 79, 92
5, 201540, Note_off_c, 2, 79, 64
5, 201540, Note_on_c, 2, 80, 92
5, 201595, Note_off_c, 2, 80, 64
5, 201600, Note_on_c, 2, 83, 92
5, 201960, Note_off_c, 2, 83, 64
5, 201960, Note_on_c, 2, 81, 92
5, 202080, Note_off_c, 2, 81, 64
5, 202080, Note_on_c, 2, 83, 92
5, 202480, Note_off_c, 2, 83, 64
5, 204720, Note_on_c, 2, 79, 92
5, 204840, Note_off_c, 2, 79, 64
5, 204840, Note_on_c, 2, 77, 92
5, 204900, Note_off_c, 2, 77, 64
5, 204900, Note_on_c, 2, 75, 92
5, 204955, Note_off_c, 2, 75, 64
5, 204960, Note_on_c, 2, 72, 92
5, 205080, Note_off_c, 2, 72, 64
5, 205080, Note_on_c, 2, 71, 92
5, 205140, Note_off_c, 2, 71, 64
5, 205140, Note_on_c, 2, 68, 92
5, 205195, Note_off_c, 2, 68, 64
5, 205200, Note_on_c, 2, 80, 92
5, 205320, Note_off_c, 2, 80, 64
5, 205320, Note_on_c, 2, 79, 92
5, 205380, Note_off_c, 2, 79, 64
5, 205380, Note_on_c, 2, 77, 92
5, 205435, Note_off_c, 2, 77, 64
5, 205440, Note_on_c, 2, 77, 92
5, 205560, Note_off_c, 2, 77, 64
5, 205560, Note_on_c, 2, 75, 92
5, 205620, Note_off_c, 2, 75, 64
5, 205620, Note_on_c, 2, 74, 92
5, 205675, Note_off_c, 2, 74, 64
5, 205680, Note_on_c, 2, 74, 92
5, 205800, Note_off_c, 2, 74, 64
5, 205800, Note_on_c, 2, 72, 92
5, 205860, Note_off_c, 2, 72, 64
5, 205860, Note_on_c, 2, 71, 92
5, 205915, Note_off_c, 2, 71, 64
5, 205920, Note_on_c, 2, 71, 92
5, 206040, Note_off_c, 2, 71, 64
5, 206040, Note_on_c, 2, 68, 92
5, 206100, Note_off_c, 2, 68, 64
5, 206100, Note_on_c, 2, 67, 92
5, 206155, Note_off_c, 2, 67, 64
5, 206160, Note_on_c, 2, 67, 92
5, 206280, Note_off_c, 2, 67, 64
5, 206280, Note_on_c, 2, 68, 92
5, 206340, Note_off_c, 2, 68, 64
5, 206340, Note_on_c, 2, 71, 92
5, 206395, Note_off_c, 2, 71, 64
5, 206400, Note_on_c, 2, 71, 92
5, 206520, Note_off_c, 2, 71, 64
5, 206520, Note_on_c, 2, 72, 92
5, 206580, Note_off_c, 2, 72, 64
5, 206580, Note_on_c, 2, 74, 92
5, 206635, Note_off_c, 2, 74, 64
5, 206640, Note_on_c, 2, 74, 92
5, 206760, Note_off_c, 2, 74, 64
5, 206760, Note_on_c, 2, 75, 92
5, 206820, Note_off_c, 2, 75, 64
5, 206820, Note_on_c, 2, 77, 92
5, 206875, Note_off_c, 2, 77, 64
5, 206880, Note_on_c, 2, 77, 92
5, 206910, Note_off_c, 2, 77, 64
5, 206910, Note_on_c, 2, 72, 92
5, 206940, Note_off_c, 2, 72, 64
5, 206940, Note_on_c, 2, 71, 92
5, 206970, Note_off_c, 2, 71, 64
5, 206970, Note_on_c, 2, 72, 92
5, 207000, Note_off_c, 2, 72, 64
5, 207000, Note_on_c, 2, 71, 92
5, 207030, Note_off_c, 2, 71, 64
5, 207030, Note_on_c, 2, 72, 92
5, 207060, Note_off_c, 2, 72, 64
5, 207060, Note_on_c, 2, 71, 92
5, 207090, Note_off_c, 2, 71, 64
5, 207090, Note_on_c, 2, 72, 92
5, 207120, Note_off_c, 2, 72, 64
5, 207120, Note_on_c, 2, 71, 92
5, 207150, Note_off_c, 2, 71, 64
5, 207150, Note_on_c, 2, 72, 92
5, 207180, Note_off_c, 2, 72, 64
5, 207180, Note_on_c, 2, 71, 92
5, 207210, Note_off_c, 2, 71, 64
5, 207210, Note_on_c, 2, 72, 92
5, 207240, Note_off_c, 2, 72, 64
5, 207240, Note_on_c, 2, 71, 92
5, 207270, Note_off_c, 2, 71, 64
5, 207270, Note_on_c, 2, 72, 92
5, 207300, Note_off_c, 2, 72, 64
5, 207300, Note_on_c, 2, 71, 92
5, 207330, Note_off_c, 2, 71, 64
5, 207330, Note_on_c, 2, 72, 92
5, 207360, Note_off_c, 2, 72, 64
5, 207360, Note_on_c, 2, 72, 92
5, 207475, Note_off_c, 2, 72, 64
5, 207480, Note_on_c, 2, 82, 94
5, 207540, Note_off_c, 2, 82, 64
5, 207540, Note_on_c, 2, 80, 95
5, 207595, Note_off_c, 2, 80, 64
5, 207600, Note_on_c, 2, 79, 96
5, 207720, Note_off_c, 2, 79, 64
5, 207720, Note_on_c, 2, 77, 98
5, 207780, Note_off_c, 2, 77, 64
5, 207780, Note_on_c, 2, 75, 99
5, 207835, Note_off_c, 2, 75, 64
5, 207840, Note_on_c, 2, 75, 100
5, 207960, Note_off_c, 2, 75, 64
5, 207960, Note_on_c, 2, 74, 102
5, 208020, Note_off_c, 2, 74, 64
5, 208020, Note_on_c, 2, 72, 103
5, 208075, Note_off_c, 2, 72, 64
5, 208080, Note_on_c, 2, 72, 104
5, 208195, Note_off_c, 2, 72, 64
5, 208320, Note_on_c, 2, 75, 108
5, 209035, Note_off_c, 2, 75, 64
5, 209040, Note_on_c, 2, 74, 108
5, 209160, Note_off_c, 2, 74, 64
5, 209160, Note_on_c, 2, 72, 108
5, 209280, Note_off_c, 2, 72, 64
5, 209280, Note_on_c, 2, 74, 108
5, 209515, Note_off_c, 2, 74, 64
5, 209520, Note_on_c, 2, 75, 108
5, 209640, Note_off_c, 2, 75, 64
5, 209640, Note_on_c, 2, 77, 108
5, 209760, Note_off_c, 2, 77, 64
5, 209760, Note_on_c, 2, 79, 108
5, 210475, Note_off_c, 2, 79, 64
5, 210480, Note_on_c, 2, 77, 108
5, 210600, Note_off_c, 2, 77, 64
5, 210600, Note_on_c, 2, 75, 108
5, 210720, Note_off_c, 2, 75, 64
5, 210720, Note_on_c, 2, 77, 108
5, 210955, Note_off_c, 2, 77, 64
5, 210960, Note_on_c, 2, 79, 108
5, 211080, Note_off_c, 2, 79, 64
5, 211080, Note_on_c, 2, 80, 108
5, 211195, Note_off_c, 2, 80, 64
5, 211440, Note_on_c, 2, 67, 108
5, 211680, Note_off_c, 2, 67, 64
5, 211680, Note_on_c, 2, 65, 108
5, 211915, Note_off_c, 2, 65, 64
5, 211920, Note_on_c, 2, 63, 108
5, 212040, Note_off_c, 2, 63, 64
5, 212040, Note_on_c, 2, 62, 108
5, 212160, Note_off_c, 2, 62, 64
5, 212160, Note_on_c, 2, 63, 108
5, 212395, Note_off_c, 2, 63, 64
5, 212400, Note_on_c, 2, 65, 108
5, 212520, Note_off_c, 2, 65, 64
5, 212520, Note_on_c, 2, 67, 108
5, 212640, Note_off_c, 2, 67, 64
5, 212640, Note_on_c, 2, 68, 108
5, 213040, Note_off_c, 2, 68, 64
5, 213120, Note_on_c, 2, 67, 108
5, 213960, Note_off_c, 2, 67, 64
5, 214320, Note_on_c, 2, 65, 108
5, 214555, Note_off_c, 2, 65, 64
5, 214560, Note_on_c, 2, 67, 108
5, 215280, Note_off_c, 2, 67, 64
5, 215280, Note_on_c, 2, 65, 108
5, 215400, Note_off_c, 2, 65, 64
5, 215400, Note_on_c, 2, 67, 108
5, 215515, Note_off_c, 2, 67, 64
5, 215520, Note_on_c, 2, 68, 108
5, 216235, Note_off_c, 2, 68, 64
5, 216240, Note_on_c, 2, 67, 108
5, 216360, Note_off_c, 2, 67, 64
5, 216360, Note_on_c, 2, 65, 108
5, 216480, Note_off_c, 2, 65, 64
5, 216480, Note_on_c, 2, 67, 108
5, 216715, Note_off_c, 2, 67, 64
5, 216720, Note_on_c, 2, 68, 108
5, 216840, Note_off_c, 2, 68, 64
5, 216840, Note_on_c, 2, 70, 108
5, 216960, Note_off_c, 2, 70, 64
5, 216960, Note_on_c, 2, 72, 108
5, 217200, Note_off_c, 2, 72, 64
5, 217200, Note_on_c, 2, 74, 108
5, 217440, Note_off_c, 2, 74, 64
5, 217440, Note_on_c, 2, 71, 108
5, 217840, Note_off_c, 2, 71, 64
5, 217920, Note_on_c, 2, 72, 108
5, 218635, Note_off_c, 2, 72, 64
5, 218640, Note_on_c, 2, 71, 108
5, 218880, Note_off_c, 2, 71, 64
5, 218880, Note_on_c, 2, 72, 108
5, 219115, Note_off_c, 2, 72, 64
5, 219120, Note_on_c, 2, 79, 108
5, 219595, Note_off_c, 2, 79, 64
5, 219600, Note_on_c, 2, 79, 108
5, 219720, Note_off_c, 2, 79, 64
5, 219720, Note_on_c, 2, 77, 108
5, 219840, Note_off_c, 2, 77, 64
5, 219840, Note_on_c, 2, 75, 108
5, 220075, Note_off_c, 2, 75, 64
5, 220080, Note_on_c, 2, 79, 108
5, 220320, Note_off_c, 2, 79, 64
5, 220320, Note_on_c, 2, 75, 108
5, 220440, Note_off_c, 2, 75, 64
5, 220440, Note_on_c, 2, 77, 108
5, 220560, Note_off_c, 2, 77, 64
5, 220560, Note_on_c, 2, 75, 108
5, 220680, Note_off_c, 2, 75, 64
5, 220680, Note_on_c, 2, 74, 108
5, 220800, Note_off_c, 2, 74, 64
5, 220800, Note_on_c, 2, 75, 108
5, 221395, Note_off_c, 2, 75, 64
5, 221400, Note_on_c, 2, 77, 108
5, 221520, Note_off_c, 2, 77, 64
5, 221520, Note_on_c, 2, 75, 108
5, 221640, Note_off_c, 2, 75, 64
5, 221640, Note_on_c, 2, 74, 108
5, 221760, Note_off_c, 2, 74, 64
5, 221760, Note_on_c, 2, 75, 108
5, 222355, Note_off_c, 2, 75, 64
5, 222360, Note_on_c, 2, 77, 108
5, 222480, Note_off_c, 2, 77, 64
5, 222480, Note_on_c, 2, 75, 108
5, 222600, Note_off_c, 2, 75, 64
5, 222600, Note_on_c, 2, 74, 108
5, 222720, Note_off_c, 2, 74, 64
5, 222720, Note_on_c, 2, 75, 108
5, 223315, Note_off_c, 2, 75, 64
5, 223320, Note_on_c, 2, 77, 108
5, 223440, Note_off_c, 2, 77, 64
5, 223440, Note_on_c, 2, 75, 108
5, 223560, Note_off_c, 2, 75, 64
5, 223560, Note_on_c, 2, 74, 108
5, 223680, Note_off_c, 2, 74, 64
5, 223680, Note_on_c, 2, 75, 108
5, 224275, Note_off_c, 2, 75, 64
5, 224280, Note_on_c, 2, 77, 108
5, 224400, Note_off_c, 2, 77, 64
5, 224400, Note_on_c, 2, 75, 108
5, 224520, Note_off_c, 2, 75, 64
5, 224520, Note_on_c, 2, 74, 108
5, 224640, Note_off_c, 2, 74, 64
5, 224640, Note_on_c, 2, 75, 108
5, 225355, Note_off_c, 2, 75, 64
5, 225360, Note_on_c, 2, 71, 108
5, 225480, Note_off_c, 2, 71, 64
5, 225480, Note_on_c, 2, 69, 108
5, 225600, Note_off_c, 2, 69, 64
5, 225600, Note_on_c, 2, 67, 108
5, 225715, Note_off_c, 2, 67, 64
5, 225720, Note_on_c, 2, 69, 108
5, 225840, Note_off_c, 2, 69, 64
5, 225840, Note_on_c, 2, 67, 108
5, 225960, Note_off_c, 2, 67, 64
5, 225960, Note_on_c, 2, 65, 108
5, 226080, Note_off_c, 2, 65, 64
5, 226080, Note_on_c, 2, 67, 108
5, 226675, Note_off_c, 2, 67, 64
5, 226680, Note_on_c, 2, 68, 108
5, 226800, Note_off_c, 2, 68, 64
5, 226800, Note_on_c, 2, 67, 108
5, 226920, Note_off_c, 2, 67, 64
5, 226920, Note_on_c, 2, 65, 108
5, 227040, Note_off_c, 2, 65, 64
5, 227040, Note_on_c, 2, 67, 108
5, 227635, Note_off_c, 2, 67, 64
5, 227640, Note_on_c, 2, 68, 108
5, 227760, Note_off_c, 2, 68, 64
5, 227760, Note_on_c, 2, 67, 108
5, 227880, Note_off_c, 2, 67, 64
5, 227880, Note_on_c, 2, 65, 108
5, 228000, Note_off_c, 2, 65, 64
5, 228000, Note_on_c, 2, 67, 108
5, 228595, Note_off_c, 2, 67, 64
5, 228600, Note_on_c, 2, 68, 108
5, 228720, Note_off_c, 2, 68, 64
5, 228720, Note_on_c, 2, 67, 108
5, 228840, Note_off_c, 2, 67, 64
5, 228840, Note_on_c, 2, 65, 108
5, 229075, Note_off_c, 2, 65, 64
5, 229080, Note_on_c, 2, 68, 108
5, 229200, Note_off_c, 2, 68, 64
5, 229200, Note_on_c, 2, 67, 108
5, 229320, Note_off_c, 2, 67, 64
5, 229320, Note_on_c, 2, 65, 108
5, 229440, Note_off_c, 2, 65, 64
5, 229440, Note_on_c, 2, 63, 108
5, 229840, Note_off_c, 2, 63, 64
5, 229920, Note_on_c, 2, 65, 108
5, 230800, Note_off_c, 2, 65, 64
5, 232320, Note_on_c, 2, 75, 108
5, 232440, Note_off_c, 2, 75, 64
5, 232440, Note_on_c, 2, 77, 108
5, 232560, Note_off_c, 2, 77, 64
5, 232560, Note_on_c, 2, 75, 108
5, 232680, Note_off_c, 2, 75, 64
5, 232680, Note_on_c, 2, 74, 108
5, 232800, Note_off_c, 2, 74, 64
5, 232800, Note_on_c, 2, 75, 108
5, 233395, Note_off_c, 2, 75, 64
5, 233400, Note_on_c, 2, 77, 108
5, 233520, Note_off_c, 2, 77, 64
5, 233520, Note_on_c, 2, 75, 108
5, 233640, Note_off_c, 2, 75, 64
5, 233640, Note_on_c, 2, 74, 108
5, 233760, Note_off_c, 2, 74, 64
5, 233760, Note_on_c, 2, 75, 108
5, 234355, Note_off_c, 2, 75, 64
5, 234360, Note_on_c, 2, 77, 108
5, 234480, Note_off_c, 2, 77, 64
5, 234480, Note_on_c, 2, 75, 108
5, 234600, Note_off_c, 2, 75, 64
5, 234600, Note_on_c, 2, 74, 108
5, 234720, Note_off_c, 2, 74, 64
5, 234720, Note_on_c, 2, 72, 108
5, 235075, Note_off_c, 2, 72, 64
5, 235080, Note_on_c, 2, 77, 108
5, 235195, Note_off_c, 2, 77, 64
5, 235200, Note_on_c, 2, 75, 108
5, 235320, Note_off_c, 2, 75, 64
5, 235320, Note_on_c, 2, 77, 108
5, 235440, Note_off_c, 2, 77, 64
5, 235440, Note_on_c, 2, 75, 108
5, 235560, Note_off_c, 2, 75, 64
5, 235560, Note_on_c, 2, 74, 108
5, 235680, Note_off_c, 2, 74, 64
5, 235680, Note_on_c, 2, 75, 108
5, 236275, Note_off_c, 2, 75, 64
5, 236280, Note_on_c, 2, 77, 108
5, 236400, Note_off_c, 2, 77, 64
5, 236400, Note_on_c, 2, 75, 108
5, 236520, Note_off_c, 2, 75, 64
5, 236520, Note_on_c, 2, 74, 108
5, 236640, Note_off_c, 2, 74, 64
5, 236640, Note_on_c, 2, 75, 108
5, 236875, Note_off_c, 2, 75, 64
5, 236880, Note_on_c, 2, 77, 108
5, 237000, Note_off_c, 2, 77, 64
5, 237000, Note_on_c, 2, 79, 108
5, 237120, Note_off_c, 2, 79, 64
5, 237120, Note_on_c, 2, 80, 108
5, 237355, Note_off_c, 2, 80, 64
5, 237360, Note_on_c, 2, 77, 108
5, 237600, Note_off_c, 2, 77, 64
5, 237600, Note_on_c, 2, 75, 108
5, 237720, Note_off_c, 2, 75, 64
5, 237720, Note_on_c, 2, 77, 108
5, 237840, Note_off_c, 2, 77, 64
5, 237840, Note_on_c, 2, 75, 108
5, 237960, Note_off_c, 2, 75, 64
5, 237960, Note_on_c, 2, 74, 108
5, 238080, Note_off_c, 2, 74, 64
5, 238080, Note_on_c, 2, 75, 108
5, 238480, Note_off_c, 2, 75, 64
5, 238560, Note_on_c, 2, 77, 108
5, 238680, Note_off_c, 2, 77, 64
5, 238680, Note_on_c, 2, 80, 108
5, 238800, Note_off_c, 2, 80, 64
5, 238800, Note_on_c, 2, 79, 108
5, 238920, Note_off_c, 2, 79, 64
5, 238920, Note_on_c, 2, 77, 108
5, 239040, Note_off_c, 2, 77, 64
5, 239040, Note_on_c, 2, 75, 108
5, 239160, Note_off_c, 2, 75, 64
5, 239160, Note_on_c, 2, 77, 108
5, 239280, Note_off_c, 2, 77, 64
5, 239280, Note_on_c, 2, 75, 108
5, 239400, Note_off_c, 2, 75, 64
5, 239400, Note_on_c, 2, 74, 108
5, 239520, Note_off_c, 2, 74, 64
5, 239520, Note_on_c, 2, 72, 108
5, 240115, Note_off_c, 2, 72, 64
5, 240120, Note_on_c, 2, 74, 108
5, 240240, Note_off_c, 2, 74, 64
5, 240240, Note_on_c, 2, 72, 108
5, 240360, Note_off_c, 2, 72, 64
5, 240360, Note_on_c, 2, 71, 108
5, 240480, Note_off_c, 2, 71, 64
5, 240480, Note_on_c, 2, 72, 108
5, 241075, Note_off_c, 2, 72, 64
5, 241080, Note_on_c, 2, 74, 108
5, 241200, Note_off_c, 2, 74, 64
5, 241200, Note_on_c, 2, 72, 108
5, 241320, Note_off_c, 2, 72, 64
5, 241320, Note_on_c, 2, 71, 108
5, 241440, Note_off_c, 2, 71, 64
5, 241440, Note_on_c, 2, 72, 75
5, 241560, Note_off_c, 2, 72, 64
5, 241560, Note_on_c, 2, 74, 75
5, 241680, Note_off_c, 2, 74, 64
5, 241680, Note_on_c, 2, 72, 75
5, 241800, Note_off_c, 2, 72, 64
5, 241800, Note_on_c, 2, 71, 75
5, 241920, Note_off_c, 2, 71, 64
5, 241920, Note_on_c, 2, 72, 60
5, 242040, Note_off_c, 2, 72, 64
5, 242040, Note_on_c, 2, 74, 60
5, 242160, Note_off_c, 2, 74, 64
5, 242160, Note_on_c, 2, 72, 60
5, 242280, Note_off_c, 2, 72, 64
5, 242280, Note_on_c, 2, 71, 60
5, 242400, Note_off_c, 2, 71, 64
5, 242400, Note_on_c, 2, 72, 60
5, 242520, Note_off_c, 2, 72, 64
5, 242520, Note_on_c, 2, 71, 60
5, 242640, Note_off_c, 2, 71, 64
5, 242640, Note_on_c, 2, 68, 60
5, 242760, Note_off_c, 2, 68, 64
5, 242760, Note_on_c, 2, 71, 60
5, 242880, Note_off_c, 2, 71, 64
5, 242880, Note_on_c, 2, 72, 60
5, 243280, Note_off_c, 2, 72, 64
5, 250800, Note_on_c, 2, 70, 60
5, 251040, Note_off_c, 2, 70, 64
5, 251040, Note_on_c, 2, 66, 60
5, 251275, Note_off_c, 2, 66, 64
5, 251280, Note_on_c, 2, 66, 60
5, 251520, Note_off_c, 2, 66, 64
5, 251520, Note_on_c, 2, 67, 60
5, 251920, Note_off_c, 2, 67, 64
5, 252240, Note_on_c, 2, 75, 60
5, 252480, Note_off_c, 2, 75, 64
5, 252480, Note_on_c, 2, 69, 60
5, 252715, Note_off_c, 2, 69, 64
5, 252720, Note_on_c, 2, 69, 60
5, 252960, Note_off_c, 2, 69, 64
5, 252960, Note_on_c, 2, 71, 60
5, 253360, Note_off_c, 2, 71, 64
5, 253680, Note_on_c, 2, 72, 60
5, 253920, Note_off_c, 2, 72, 64
5, 253920, Note_on_c, 2, 67, 60
5, 254155, Note_off_c, 2, 67, 64
5, 254160, Note_on_c, 2, 67, 60
5, 254400, Note_off_c, 2, 67, 64
5, 254400, Note_on_c, 2, 69, 60
5, 254800, Note_off_c, 2, 69, 64
5, 255120, Note_on_c, 2, 70, 60
5, 255360, Note_off_c, 2, 70, 64
5, 255360, Note_on_c, 2, 66, 60
5, 255595, Note_off_c, 2, 66, 64
5, 255600, Note_on_c, 2, 66, 60
5, 255840, Note_off_c, 2, 66, 64
5, 255840, Note_on_c, 2, 67, 60
5, 256240, Note_off_c, 2, 67, 64
5, 260880, Note_on_c, 2, 75, 60
5, 261120, Note_off_c, 2, 75, 64
5, 261120, Note_on_c, 2, 71, 60
5, 261355, Note_off_c, 2, 71, 64
5, 261360, Note_on_c, 2, 71, 60
5, 261600, Note_off_c, 2, 71, 64
5, 261600, Note_on_c, 2, 72, 60
5, 262000, Note_off_c, 2, 72, 64
5, 262320, Note_on_c, 2, 80, 60
5, 262560, Note_off_c, 2, 80, 64
5, 262560, Note_on_c, 2, 74, 60
5, 262795, Note_off_c, 2, 74, 64
5, 262800, Note_on_c, 2, 74, 60
5, 263040, Note_off_c, 2, 74, 64
5, 263040, Note_on_c, 2, 76, 60
5, 263440, Note_off_c, 2, 76, 64
5, 263760, Note_on_c, 2, 77, 60
5, 264000, Note_off_c, 2, 77, 64
5, 264000, Note_on_c, 2, 72, 60
5, 264235, Note_off_c, 2, 72, 64
5, 264240, Note_on_c, 2, 72, 60
5, 264480, Note_off_c, 2, 72, 64
5, 264480, Note_on_c, 2, 74, 60
5, 264880, Note_off_c, 2, 74, 64
5, 265200, Note_on_c, 2, 75, 60
5, 265440, Note_off_c, 2, 75, 64
5, 265440, Note_on_c, 2, 71, 60
5, 265675, Note_off_c, 2, 71, 64
5, 265680, Note_on_c, 2, 71, 60
5, 265915, Note_off_c, 2, 71, 64
5, 265920, Note_on_c, 2, 75, 60
5, 266040, Note_off_c, 2, 75, 64
5, 266040, Note_on_c, 2, 77, 60
5, 266160, Note_off_c, 2, 77, 64
5, 266160, Note_on_c, 2, 74, 60
5, 266280, Note_off_c, 2, 74, 64
5, 266280, Note_on_c, 2, 75, 60
5, 266400, Note_off_c, 2, 75, 64
5, 266400, Note_on_c, 2, 72, 60
5, 266520, Note_off_c, 2, 72, 64
5, 266520, Note_on_c, 2, 79, 60
5, 266640, Note_off_c, 2, 79, 64
5, 266640, Note_on_c, 2, 77, 60
5, 266760, Note_off_c, 2, 77, 64
5, 266760, Note_on_c, 2, 79, 60
5, 266880, Note_off_c, 2, 79, 64
5, 266880, Note_on_c, 2, 75, 60
5, 267000, Note_off_c, 2, 75, 64
5, 267000, Note_on_c, 2, 77, 60
5, 267120, Note_off_c, 2, 77, 64
5, 267120, Note_on_c, 2, 74, 60
5, 267240, Note_off_c, 2, 74, 64
5, 267240, Note_on_c, 2, 75, 60
5, 267355, Note_off_c, 2, 75, 64
5, 267360, Note_on_c, 2, 72, 60
5, 267480, Note_off_c, 2, 72, 64
5, 267480, Note_on_c, 2, 74, 60
5, 267600, Note_off_c, 2, 74, 64
5, 267600, Note_on_c, 2, 70, 60
5, 267720, Note_off_c, 2, 70, 64
5, 267720, Note_on_c, 2, 72, 60
5, 267835, Note_off_c, 2, 72, 64
5, 267840, Note_on_c, 2, 69, 60
5, 268080, Note_off_c, 2, 69, 64
5, 268080, Note_on_c, 2, 70, 60
5, 268320, Note_off_c, 2, 70, 64
5, 268320, Note_on_c, 2, 72, 60
5, 268560, Note_off_c, 2, 72, 64
5, 268560, Note_on_c, 2, 66, 60
5, 268795, Note_off_c, 2, 66, 64
5, 268800, Note_on_c, 2, 70, 60
5, 269040, Note_off_c, 2, 70, 64
5, 269040, Note_on_c, 2, 79, 60
5, 269275, Note_off_c, 2, 79, 64
5, 269280, Note_on_c, 2, 67, 60
5, 269760, Note_off_c, 2, 67, 64
5, 269760, Note_on_c, 2, 72, 60
5, 270240, Note_off_c, 2, 72, 64
5, 270240, Note_on_c, 2, 67, 60
5, 271200, Note_off_c, 2, 67, 64
5, 271200, Note_on_c, 2, 70, 60
5, 271600, Note_off_c, 2, 70, 64
5, 271680, Note_on_c, 2, 65, 60
5, 272395, Note_off_c, 2, 65, 64
5, 272400, Note_on_c, 2, 67, 60
5, 272640, Note_off_c, 2, 67, 64
5, 272640, Note_on_c, 2, 69, 60
5, 273040, Note_off_c, 2, 69, 64
5, 273120, Note_on_c, 2, 67, 60
5, 273360, Note_off_c, 2, 67, 64
5, 273360, Note_on_c, 2, 66, 60
5, 273595, Note_off_c, 2, 66, 64
5, 273600, Note_on_c, 2, 67, 60
5, 273720, Note_off_c, 2, 67, 64
5, 273720, Note_on_c, 2, 66, 60
5, 273840, Note_off_c, 2, 66, 64
5, 273840, Note_on_c, 2, 64, 60
5, 273960, Note_off_c, 2, 64, 64
5, 273960, Note_on_c, 2, 67, 60
5, 274080, Note_off_c, 2, 67, 64
5, 274080, Note_on_c, 2, 66, 60
5, 274315, Note_off_c, 2, 66, 64
5, 274320, Note_on_c, 2, 67, 60
5, 274795, Note_off_c, 2, 67, 64
5, 274800, Note_on_c, 2, 66, 60
5, 275035, Note_off_c, 2, 66, 64
5, 275040, Note_on_c, 2, 67, 63
5, 275440, Note_off_c, 2, 67, 64
5, 276000, Note_on_c, 2, 72, 75
5, 276400, Note_off_c, 2, 72, 64
5, 276480, Note_on_c, 2, 67, 75
5, 277320, Note_off_c, 2, 67, 64
5, 277440, Note_on_c, 2, 63, 75
5, 277840, Note_off_c, 2, 63, 64
5, 277920, Note_on_c, 2, 65, 75
5, 278760, Note_off_c, 2, 65, 64
5, 278880, Note_on_c, 2, 67, 75
5, 279280, Note_off_c, 2, 67, 64
5, 279360, Note_on_c, 2, 68, 75
5, 280200, Note_off_c, 2, 68, 64
5, 280320, Note_on_c, 2, 65, 75
5, 280720, Note_off_c, 2, 65, 64
5, 280800, Note_on_c, 2, 67, 75
5, 281640, Note_off_c, 2, 67, 64
5, 281760, Note_on_c, 2, 65, 75
5, 282475, Note_off_c, 2, 65, 64
5, 282480, Note_on_c, 2, 63, 75
5, 282600, Note_off_c, 2, 63, 64
5, 282600, Note_on_c, 2, 67, 75
5, 282720, Note_off_c, 2, 67, 64
5, 282720, Note_on_c, 2, 65, 75
5, 282840, Note_off_c, 2, 65, 64
5, 282840, Note_on_c, 2, 68, 75
5, 282960, Note_off_c, 2, 68, 64
5, 282960, Note_on_c, 2, 67, 75
5, 283080, Note_off_c, 2, 67, 64
5, 283080, Note_on_c, 2, 70, 75
5, 283200, Note_off_c, 2, 70, 64
5, 283200, Note_on_c, 2, 68, 75
5, 283320, Note_off_c, 2, 68, 64
5, 283320, Note_on_c, 2, 72, 75
5, 283440, Note_off_c, 2, 72, 64
5, 283440, Note_on_c, 2, 70, 75
5, 283560, Note_off_c, 2, 70, 64
5, 283560, Note_on_c, 2, 68, 75
5, 283680, Note_off_c, 2, 68, 64
5, 283680, Note_on_c, 2, 67, 75
5, 284080, Note_off_c, 2, 67, 64
5, 284280, Note_on_c, 2, 70, 75
5, 284400, Note_off_c, 2, 70, 64
5, 284400, Note_on_c, 2, 68, 75
5, 284520, Note_off_c, 2, 68, 64
5, 284520, Note_on_c, 2, 70, 75
5, 284640, Note_off_c, 2, 70, 64
5, 284640, Note_on_c, 2, 67, 75
5, 285040, Note_off_c, 2, 67, 64
5, 285360, Note_on_c, 2, 67, 75
5, 285600, Note_off_c, 2, 67, 64
5, 285600, Note_on_c, 2, 62, 75
5, 285835, Note_off_c, 2, 62, 64
5, 285840, Note_on_c, 2, 62, 75
5, 286080, Note_off_c, 2, 62, 64
5, 286080, Note_on_c, 2, 63, 75
5, 286480, Note_off_c, 2, 63, 64
5, 286800, Note_on_c, 2, 72, 75
5, 287040, Note_off_c, 2, 72, 64
5, 287040, Note_on_c, 2, 65, 75
5, 287275, Note_off_c, 2, 65, 64
5, 287280, Note_on_c, 2, 65, 75
5, 287520, Note_off_c, 2, 65, 64
5, 287520, Note_on_c, 2, 67, 75
5, 287920, Note_off_c, 2, 67, 64
5, 288240, Note_on_c, 2, 68, 75
5, 288480, Note_off_c, 2, 68, 64
5, 288480, Note_on_c, 2, 63, 75
5, 288715, Note_off_c, 2, 63, 64
5, 288720, Note_on_c, 2, 63, 75
5, 288960, Note_off_c, 2, 63, 64
5, 288960, Note_on_c, 2, 65, 75
5, 289360, Note_off_c, 2, 65, 64
5, 289680, Note_on_c, 2, 67, 75
5, 289920, Note_off_c, 2, 67, 64
5, 289920, Note_on_c, 2, 62, 75
5, 290155, Note_off_c, 2, 62, 64
5, 290160, Note_on_c, 2, 62, 75
5, 290400, Note_off_c, 2, 62, 64
5, 290400, Note_on_c, 2, 63, 75
5, 290800, Note_off_c, 2, 63, 64
5, 291120, Note_on_c, 2, 65, 75
5, 291355, Note_off_c, 2, 65, 64
5, 291360, Note_on_c, 2, 72, 75
5, 291595, Note_off_c, 2, 72, 64
5, 291600, Note_on_c, 2, 72, 75
5, 291840, Note_off_c, 2, 72, 64
5, 291840, Note_on_c, 2, 74, 75
5, 292240, Note_off_c, 2, 74, 64
5, 292320, Note_on_c, 2, 75, 75
5, 292560, Note_off_c, 2, 75, 64
5, 292560, Note_on_c, 2, 70, 75
5, 292795, Note_off_c, 2, 70, 64
5, 292800, Note_on_c, 2, 75, 75
5, 293200, Note_off_c, 2, 75, 64
5, 293280, Note_on_c, 2, 75, 75
5, 293400, Note_off_c, 2, 75, 64
5, 293400, Note_on_c, 2, 77, 75
5, 293520, Note_off_c, 2, 77, 64
5, 293520, Note_on_c, 2, 74, 75
5, 293640, Note_off_c, 2, 74, 64
5, 293640, Note_on_c, 2, 75, 75
5, 293755, Note_off_c, 2, 75, 64
5, 293760, Note_on_c, 2, 72, 75
5, 294000, Note_off_c, 2, 72, 64
5, 294000, Note_on_c, 2, 75, 75
5, 294240, Note_off_c, 2, 75, 64
5, 294240, Note_on_c, 2, 80, 75
5, 294480, Note_off_c, 2, 80, 64
5, 294480, Note_on_c, 2, 72, 75
5, 294720, Note_off_c, 2, 72, 64
5, 294720, Note_on_c, 2, 70, 75
5, 294960, Note_off_c, 2, 70, 64
5, 294960, Note_on_c, 2, 80, 75
5, 295195, Note_off_c, 2, 80, 64
5, 295200, Note_on_c, 2, 70, 75
5, 295440, Note_off_c, 2, 70, 64
5, 295440, Note_on_c, 2, 74, 75
5, 295680, Note_off_c, 2, 74, 64
5, 295680, Note_on_c, 2, 79, 75
5, 295920, Note_off_c, 2, 79, 64
5, 295920, Note_on_c, 2, 70, 75
5, 296160, Note_off_c, 2, 70, 64
5, 296160, Note_on_c, 2, 68, 75
5, 296400, Note_off_c, 2, 68, 64
5, 296400, Note_on_c, 2, 79, 75
5, 296635, Note_off_c, 2, 79, 64
5, 296640, Note_on_c, 2, 68, 75
5, 296880, Note_off_c, 2, 68, 64
5, 296880, Note_on_c, 2, 72, 75
5, 297120, Note_off_c, 2, 72, 64
5, 297120, Note_on_c, 2, 77, 75
5, 297360, Note_off_c, 2, 77, 64
5, 297360, Note_on_c, 2, 68, 75
5, 297600, Note_off_c, 2, 68, 64
5, 297600, Note_on_c, 2, 67, 75
5, 297840, Note_off_c, 2, 67, 64
5, 297840, Note_on_c, 2, 77, 75
5, 298075, Note_off_c, 2, 77, 64
5, 298080, Note_on_c, 2, 67, 75
5, 298320, Note_off_c, 2, 67, 64
5, 298320, Note_on_c, 2, 70, 75
5, 298560, Note_off_c, 2, 70, 64
5, 298560, Note_on_c, 2, 75, 75
5, 298800, Note_off_c, 2, 75, 64
5, 298800, Note_on_c, 2, 67, 75
5, 299040, Note_off_c, 2, 67, 64
5, 299040, Note_on_c, 2, 65, 75
5, 299280, Note_off_c, 2, 65, 64
5, 299280, Note_on_c, 2, 75, 75
5, 299515, Note_off_c, 2, 75, 64
5, 299520, Note_on_c, 2, 74, 75
5, 299640, Note_off_c, 2, 74, 64
5, 299640, Note_on_c, 2, 77, 75
5, 299760, Note_off_c, 2, 77, 64
5, 299760, Note_on_c, 2, 74, 75
5, 299880, Note_off_c, 2, 74, 64
5, 299880, Note_on_c, 2, 77, 75
5, 300000, Note_off_c, 2, 77, 64
5, 300000, Note_on_c, 2, 70, 75
5, 300235, Note_off_c, 2, 70, 64
5, 300240, Note_on_c, 2, 69, 75
5, 300360, Note_off_c, 2, 69, 64
5, 300360, Note_on_c, 2, 67, 75
5, 300480, Note_off_c, 2, 67, 64
5, 300480, Note_on_c, 2, 65, 75
5, 300715, Note_off_c, 2, 65, 64
5, 300720, Note_on_c, 2, 67, 75
5, 300960, Note_off_c, 2, 67, 64
5, 300960, Note_on_c, 2, 69, 75
5, 301200, Note_off_c, 2, 69, 64
5, 301200, Note_on_c, 2, 74, 75
5, 301435, Note_off_c, 2, 74, 64
5, 301440, Note_on_c, 2, 69, 75
5, 301675, Note_off_c, 2, 69, 64
5, 301680, Note_on_c, 2, 69, 75
5, 301920, Note_off_c, 2, 69, 64
5, 301920, Note_on_c, 2, 70, 75
5, 302320, Note_off_c, 2, 70, 64
5, 302640, Note_on_c, 2, 79, 75
5, 302880, Note_off_c, 2, 79, 64
5, 302880, Note_on_c, 2, 72, 75
5, 303115, Note_off_c, 2, 72, 64
5, 303120, Note_on_c, 2, 72, 75
5, 303360, Note_off_c, 2, 72, 64
5, 303360, Note_on_c, 2, 74, 75
5, 303760, Note_off_c, 2, 74, 64
5, 304080, Note_on_c, 2, 75, 75
5, 304320, Note_off_c, 2, 75, 64
5, 304320, Note_on_c, 2, 70, 75
5, 304555, Note_off_c, 2, 70, 64
5, 304560, Note_on_c, 2, 70, 75
5, 304800, Note_off_c, 2, 70, 64
5, 304800, Note_on_c, 2, 72, 75
5, 305200, Note_off_c, 2, 72, 64
5, 305400, Note_on_c, 2, 74, 75
5, 305520, Note_off_c, 2, 74, 64
5, 305520, Note_on_c, 2, 72, 75
5, 305640, Note_off_c, 2, 72, 64
5, 305640, Note_on_c, 2, 74, 75
5, 305760, Note_off_c, 2, 74, 64
5, 305760, Note_on_c, 2, 75, 75
5, 306160, Note_off_c, 2, 75, 64
5, 306240, Note_on_c, 2, 65, 75
5, 306640, Note_off_c, 2, 65, 64
5, 306840, Note_on_c, 2, 67, 75
5, 306960, Note_off_c, 2, 67, 64
5, 306960, Note_on_c, 2, 65, 75
5, 307080, Note_off_c, 2, 65, 64
5, 307080, Note_on_c, 2, 67, 75
5, 307200, Note_off_c, 2, 67, 64
5, 307200, Note_on_c, 2, 68, 75
5, 307600, Note_off_c, 2, 68, 64
5, 307680, Note_on_c, 2, 70, 75
5, 308080, Note_off_c, 2, 70, 64
5, 308280, Note_on_c, 2, 72, 75
5, 308400, Note_off_c, 2, 72, 64
5, 308400, Note_on_c, 2, 70, 75
5, 308520, Note_off_c, 2, 70, 64
5, 308520, Note_on_c, 2, 72, 75
5, 308640, Note_off_c, 2, 72, 64
5, 308640, Note_on_c, 2, 65, 75
5, 309040, Note_off_c, 2, 65, 64
5, 309120, Note_on_c, 2, 67, 75
5, 309520, Note_off_c, 2, 67, 64
5, 309720, Note_on_c, 2, 68, 75
5, 309840, Note_off_c, 2, 68, 64
5, 309840, Note_on_c, 2, 67, 75
5, 309960, Note_off_c, 2, 67, 64
5, 309960, Note_on_c, 2, 68, 75
5, 310080, Note_off_c, 2, 68, 64
5, 310080, Note_on_c, 2, 62, 75
5, 310315, Note_off_c, 2, 62, 64
5, 310320, Note_on_c, 2, 62, 75
5, 310560, Note_off_c, 2, 62, 64
5, 310560, Note_on_c, 2, 63, 75
5, 310960, Note_off_c, 2, 63, 64
5, 311160, Note_on_c, 2, 74, 75
5, 311280, Note_off_c, 2, 74, 64
5, 311280, Note_on_c, 2, 72, 75
5, 311400, Note_off_c, 2, 72, 64
5, 311400, Note_on_c, 2, 74, 75
5, 311520, Note_off_c, 2, 74, 64
5, 311520, Note_on_c, 2, 69, 75
5, 311755, Note_off_c, 2, 69, 64
5, 311760, Note_on_c, 2, 69, 75
5, 312000, Note_off_c, 2, 69, 64
5, 312000, Note_on_c, 2, 71, 75
5, 312400, Note_off_c, 2, 71, 64
5, 312600, Note_on_c, 2, 72, 75
5, 312720, Note_off_c, 2, 72, 64
5, 312720, Note_on_c, 2, 71, 75
5, 312840, Note_off_c, 2, 71, 64
5, 312840, Note_on_c, 2, 72, 75
5, 312955, Note_off_c, 2, 72, 64
5, 313080, Note_on_c, 2, 72, 75
5, 313200, Note_off_c, 2, 72, 64
5, 313200, Note_on_c, 2, 71, 75
5, 313320, Note_off_c, 2, 71, 64
5, 313320, Note_on_c, 2, 72, 75
5, 313435, Note_off_c, 2, 72, 64
5, 313560, Note_on_c, 2, 72, 75
5, 313680, Note_off_c, 2, 72, 64
5, 313680, Note_on_c, 2, 71, 75
5, 313800, Note_off_c, 2, 71, 64
5, 313800, Note_on_c, 2, 72, 75
5, 313915, Note_off_c, 2, 72, 64
5, 314040, Note_on_c, 2, 70, 75
5, 314160, Note_off_c, 2, 70, 64
5, 314160, Note_on_c, 2, 69, 75
5, 314280, Note_off_c, 2, 69, 64
5, 314280, Note_on_c, 2, 70, 75
5, 314395, Note_off_c, 2, 70, 64
5, 314520, Note_on_c, 2, 69, 75
5, 314640, Note_off_c, 2, 69, 64
5, 314640, Note_on_c, 2, 67, 75
5, 314760, Note_off_c, 2, 67, 64
5, 314760, Note_on_c, 2, 69, 75
5, 314875, Note_off_c, 2, 69, 64
5, 315000, Note_on_c, 2, 69, 75
5, 315120, Note_off_c, 2, 69, 64
5, 315120, Note_on_c, 2, 67, 75
5, 315240, Note_off_c, 2, 67, 64
5, 315240, Note_on_c, 2, 69, 75
5, 315355, Note_off_c, 2, 69, 64
5, 315480, Note_on_c, 2, 67, 75
5, 315600, Note_off_c, 2, 67, 64
5, 315600, Note_on_c, 2, 66, 75
5, 315720, Note_off_c, 2, 66, 64
5, 315720, Note_on_c, 2, 67, 75
5, 315835, Note_off_c, 2, 67, 64
5, 315960, Note_on_c, 2, 67, 75
5, 316080, Note_off_c, 2, 67, 64
5, 316080, Note_on_c, 2, 66, 75
5, 316200, Note_off_c, 2, 66, 64
5, 316200, Note_on_c, 2, 67, 75
5, 316315, Note_off_c, 2, 67, 64
5, 316440, Note_on_c, 2, 69, 76
5, 316560, Note_off_c, 2, 69, 64
5, 316560, Note_on_c, 2, 67, 77
5, 316680, Note_off_c, 2, 67, 64
5, 316680, Note_on_c, 2, 69, 78
5, 316795, Note_off_c, 2, 69, 64
5, 316920, Note_on_c, 2, 66, 80
5, 317040, Note_off_c, 2, 66, 64
5, 317040, Note_on_c, 2, 64, 81
5, 317160, Note_off_c, 2, 64, 64
5, 317160, Note_on_c, 2, 66, 82
5, 317275, Note_off_c, 2, 66, 64
5, 317400, Note_on_c, 2, 66, 86
5, 317520, Note_off_c, 2, 66, 64
5, 317520, Note_on_c, 2, 64, 88
5, 317640, Note_off_c, 2, 64, 64
5, 317640, Note_on_c, 2, 66, 90
5, 317755, Note_off_c, 2, 66, 64
5, 317760, Note_on_c, 2, 67, 92
5, 318475, Note_off_c, 2, 67, 64
5, 318480, Note_on_c, 2, 70, 92
5, 318720, Note_off_c, 2, 70, 64
5, 318720, Note_on_c, 2, 66, 92
5, 318955, Note_off_c, 2, 66, 64
5, 318960, Note_on_c, 2, 66, 92
5, 319200, Note_off_c, 2, 66, 64
5, 319200, Note_on_c, 2, 67, 92
5, 319600, Note_off_c, 2, 67, 64
5, 319920, Note_on_c, 2, 75, 92
5, 320160, Note_off_c, 2, 75, 64
5, 320160, Note_on_c, 2, 69, 92
5, 320395, Note_off_c, 2, 69, 64
5, 320400, Note_on_c, 2, 69, 92
5, 320640, Note_off_c, 2, 69, 64
5, 320640, Note_on_c, 2, 70, 92
5, 321040, Note_off_c, 2, 70, 64
5, 321360, Note_on_c, 2, 72, 92
5, 321600, Note_off_c, 2, 72, 64
5, 321600, Note_on_c, 2, 67, 92
5, 321835, Note_off_c, 2, 67, 64
5, 321840, Note_on_c, 2, 67, 92
5, 322080, Note_off_c, 2, 67, 64
5, 322080, Note_on_c, 2, 69, 92
5, 322480, Note_off_c, 2, 69, 64
5, 322800, Note_on_c, 2, 70, 75
5, 323035, Note_off_c, 2, 70, 64
5, 353760, Note_on_c, 2, 67, 75
5, 354160, Note_off_c, 2, 67, 64
5, 354240, Note_on_c, 2, 74, 75
5, 355080, Note_off_c, 2, 74, 64
5, 355200, Note_on_c, 2, 70, 75
5, 355600, Note_off_c, 2, 70, 64
5, 355680, Note_on_c, 2, 72, 75
5, 356520, Note_off_c, 2, 72, 64
5, 356640, Note_on_c, 2, 74, 75
5, 357040, Note_off_c, 2, 74, 64
5, 357120, Note_on_c, 2, 75, 75
5, 357960, Note_off_c, 2, 75, 64
5, 358080, Note_on_c, 2, 72, 75
5, 358480, Note_off_c, 2, 72, 64
5, 358560, Note_on_c, 2, 74, 75
5, 359635, Note_off_c, 2, 74, 64
5, 359640, Note_on_c, 2, 74, 75
5, 359760, Note_off_c, 2, 74, 64
5, 359760, Note_on_c, 2, 72, 75
5, 359880, Note_off_c, 2, 72, 64
5, 359880, Note_on_c, 2, 74, 75
5, 360000, Note_off_c, 2, 74, 64
5, 360000, Note_on_c, 2, 75, 75
5, 360120, Note_off_c, 2, 75, 64
5, 360120, Note_on_c, 2, 77, 75
5, 360240, Note_off_c, 2, 77, 64
5, 360240, Note_on_c, 2, 74, 75
5, 360360, Note_off_c, 2, 74, 64
5, 360360, Note_on_c, 2, 76, 75
5, 360480, Note_off_c, 2, 76, 64
5, 360480, Note_on_c, 2, 77, 75
5, 360600, Note_off_c, 2, 77, 64
5, 360600, Note_on_c, 2, 79, 75
5, 360720, Note_off_c, 2, 79, 64
5, 360720, Note_on_c, 2, 76, 75
5, 360840, Note_off_c, 2, 76, 64
5, 360840, Note_on_c, 2, 78, 75
5, 360955, Note_off_c, 2, 78, 64
5, 360960, Note_on_c, 2, 79, 75
5, 361080, Note_off_c, 2, 79, 64
5, 361080, Note_on_c, 2, 81, 75
5, 361200, Note_off_c, 2, 81, 64
5, 361200, Note_on_c, 2, 74, 75
5, 361320, Note_off_c, 2, 74, 64
5, 361320, Note_on_c, 2, 77, 75
5, 361440, Note_off_c, 2, 77, 64
5, 361440, Note_on_c, 2, 75, 75
5, 361560, Note_off_c, 2, 75, 64
5, 361560, Note_on_c, 2, 77, 75
5, 361680, Note_off_c, 2, 77, 64
5, 361680, Note_on_c, 2, 72, 75
5, 361800, Note_off_c, 2, 72, 64
5, 361800, Note_on_c, 2, 75, 75
5, 361920, Note_off_c, 2, 75, 64
5, 361920, Note_on_c, 2, 74, 75
5, 362040, Note_off_c, 2, 74, 64
5, 362040, Note_on_c, 2, 75, 75
5, 362160, Note_off_c, 2, 75, 64
5, 362160, Note_on_c, 2, 70, 75
5, 362280, Note_off_c, 2, 70, 64
5, 362280, Note_on_c, 2, 74, 75
5, 362395, Note_off_c, 2, 74, 64
5, 362400, Note_on_c, 2, 72, 75
5, 362520, Note_off_c, 2, 72, 64
5, 362520, Note_on_c, 2, 74, 75
5, 362640, Note_off_c, 2, 74, 64
5, 362640, Note_on_c, 2, 69, 75
5, 362760, Note_off_c, 2, 69, 64
5, 362760, Note_on_c, 2, 72, 75
5, 362880, Note_off_c, 2, 72, 64
5, 362880, Note_on_c, 2, 71, 75
5, 363000, Note_off_c, 2, 71, 64
5, 363000, Note_on_c, 2, 72, 75
5, 363120, Note_off_c, 2, 72, 64
5, 363120, Note_on_c, 2, 69, 75
5, 363240, Note_off_c, 2, 69, 64
5, 363240, Note_on_c, 2, 71, 75
5, 363360, Note_off_c, 2, 71, 64
5, 363360, Note_on_c, 2, 72, 75
5, 363480, Note_off_c, 2, 72, 64
5, 363480, Note_on_c, 2, 74, 75
5, 363600, Note_off_c, 2, 74, 64
5, 363600, Note_on_c, 2, 75, 75
5, 363720, Note_off_c, 2, 75, 64
5, 363720, Note_on_c, 2, 69, 75
5, 363835, Note_off_c, 2, 69, 64
5, 363840, Note_on_c, 2, 69, 75
5, 363870, Note_off_c, 2, 69, 64
5, 363870, Note_on_c, 2, 71, 75
5, 363900, Note_off_c, 2, 71, 64
5, 363900, Note_on_c, 2, 69, 75
5, 363930, Note_off_c, 2, 69, 64
5, 363930, Note_on_c, 2, 71, 75
5, 363960, Note_off_c, 2, 71, 64
5, 363960, Note_on_c, 2, 69, 75
5, 363990, Note_off_c, 2, 69, 64
5, 363990, Note_on_c, 2, 71, 75
5, 364020, Note_off_c, 2, 71, 64
5, 364020, Note_on_c, 2, 69, 75
5, 364050, Note_off_c, 2, 69, 64
5, 364050, Note_on_c, 2, 71, 75
5, 364080, Note_off_c, 2, 71, 64
5, 364080, Note_on_c, 2, 69, 75
5, 364110, Note_off_c, 2, 69, 64
5, 364110, Note_on_c, 2, 71, 75
5, 364140, Note_off_c, 2, 71, 64
5, 364140, Note_on_c, 2, 69, 75
5, 364170, Note_off_c, 2, 69, 64
5, 364170, Note_on_c, 2, 71, 75
5, 364200, Note_off_c, 2, 71, 64
5, 364200, Note_on_c, 2, 69, 75
5, 364230, Note_off_c, 2, 69, 64
5, 364230, Note_on_c, 2, 71, 75
5, 364260, Note_off_c, 2, 71, 64
5, 364260, Note_on_c, 2, 69, 75
5, 364290, Note_off_c, 2, 69, 64
5, 364290, Note_on_c, 2, 71, 75
5, 364315, Note_off_c, 2, 71, 64
5, 364320, Note_on_c, 2, 67, 75
5, 364440, Note_off_c, 2, 67, 64
5, 364440, Note_on_c, 2, 71, 75
5, 364560, Note_off_c, 2, 71, 64
5, 364560, Note_on_c, 2, 69, 75
5, 364680, Note_off_c, 2, 69, 64
5, 364680, Note_on_c, 2, 72, 75
5, 364800, Note_off_c, 2, 72, 64
5, 364800, Note_on_c, 2, 71, 75
5, 364920, Note_off_c, 2, 71, 64
5, 364920, Note_on_c, 2, 74, 75
5, 365040, Note_off_c, 2, 74, 64
5, 365040, Note_on_c, 2, 72, 75
5, 365160, Note_off_c, 2, 72, 64
5, 365160, Note_on_c, 2, 75, 75
5, 365275, Note_off_c, 2, 75, 64
5, 365280, Note_on_c, 2, 74, 75
5, 365400, Note_off_c, 2, 74, 64
5, 365400, Note_on_c, 2, 77, 75
5, 365520, Note_off_c, 2, 77, 64
5, 365520, Note_on_c, 2, 75, 75
5, 365640, Note_off_c, 2, 75, 64
5, 365640, Note_on_c, 2, 74, 75
5, 365760, Note_off_c, 2, 74, 64
5, 365760, Note_on_c, 2, 75, 75
5, 366160, Note_off_c, 2, 75, 64
5, 366960, Note_on_c, 2, 64, 92
5, 367195, Note_off_c, 2, 64, 64
5, 367200, Note_on_c, 2, 65, 92
5, 367320, Note_off_c, 2, 65, 64
5, 367320, Note_on_c, 2, 68, 92
5, 367440, Note_off_c, 2, 68, 64
5, 367440, Note_on_c, 2, 67, 92
5, 367560, Note_off_c, 2, 67, 64
5, 367560, Note_on_c, 2, 70, 92
5, 367680, Note_off_c, 2, 70, 64
5, 367680, Note_on_c, 2, 68, 92
5, 367920, Note_off_c, 2, 68, 64
5, 367920, Note_on_c, 2, 70, 92
5, 367980, Note_off_c, 2, 70, 64
5, 367980, Note_on_c, 2, 72, 92
5, 368040, Note_off_c, 2, 72, 64
5, 368040, Note_on_c, 2, 70, 92
5, 368100, Note_off_c, 2, 70, 64
5, 368100, Note_on_c, 2, 72, 92
5, 368155, Note_off_c, 2, 72, 64
5, 368160, Note_on_c, 2, 68, 92
5, 368220, Note_off_c, 2, 68, 64
5, 368220, Note_on_c, 2, 70, 92
5, 368280, Note_off_c, 2, 70, 64
5, 368280, Note_on_c, 2, 72, 92
5, 368340, Note_off_c, 2, 72, 64
5, 368340, Note_on_c, 2, 68, 92
5, 368400, Note_off_c, 2, 68, 64
5, 368400, Note_on_c, 2, 67, 92
5, 368520, Note_off_c, 2, 67, 64
5, 368520, Note_on_c, 2, 65, 92
5, 368640, Note_off_c, 2, 65, 64
5, 368640, Note_on_c, 2, 64, 92
5, 368760, Note_off_c, 2, 64, 64
5, 368760, Note_on_c, 2, 67, 92
5, 368880, Note_off_c, 2, 67, 64
5, 368880, Note_on_c, 2, 65, 92
5, 369000, Note_off_c, 2, 65, 64
5, 369000, Note_on_c, 2, 68, 92
5, 369120, Note_off_c, 2, 68, 64
5, 369120, Note_on_c, 2, 67, 92
5, 369240, Note_off_c, 2, 67, 64
5, 369240, Note_on_c, 2, 70, 92
5, 369360, Note_off_c, 2, 70, 64
5, 369360, Note_on_c, 2, 68, 92
5, 369480, Note_off_c, 2, 68, 64
5, 369480, Note_on_c, 2, 67, 92
5, 369595, Note_off_c, 2, 67, 64
5, 369600, Note_on_c, 2, 68, 92
5, 370480, Note_off_c, 2, 68, 64
5, 370560, Note_on_c, 2, 67, 92
5, 370960, Note_off_c, 2, 67, 64
5, 371040, Note_on_c, 2, 66, 92
5, 371440, Note_off_c, 2, 66, 64
5, 371520, Note_on_c, 2, 65, 92
5, 373075, Note_off_c, 2, 65, 64
5, 373080, Note_on_c, 2, 65, 92
5, 373200, Note_off_c, 2, 65, 64
5, 373200, Note_on_c, 2, 67, 92
5, 373320, Note_off_c, 2, 67, 64
5, 373320, Note_on_c, 2, 65, 92
5, 373440, Note_off_c, 2, 65, 64
5, 373440, Note_on_c, 2, 64, 92
5, 373680, Note_off_c, 2, 64, 64
5, 373680, Note_on_c, 2, 65, 92
5, 373915, Note_off_c, 2, 65, 64
5, 373920, Note_on_c, 2, 67, 92
5, 374515, Note_off_c, 2, 67, 64
5, 374520, Note_on_c, 2, 67, 92
5, 374640, Note_off_c, 2, 67, 64
5, 374640, Note_on_c, 2, 68, 92
5, 374760, Note_off_c, 2, 68, 64
5, 374760, Note_on_c, 2, 67, 92
5, 374880, Note_off_c, 2, 67, 64
5, 374880, Note_on_c, 2, 65, 92
5, 375115, Note_off_c, 2, 65, 64
5, 375120, Note_on_c, 2, 67, 92
5, 375355, Note_off_c, 2, 67, 64
5, 375360, Note_on_c, 2, 68, 92
5, 375955, Note_off_c, 2, 68, 64
5, 375960, Note_on_c, 2, 68, 92
5, 376080, Note_off_c, 2, 68, 64
5, 376080, Note_on_c, 2, 70, 92
5, 376200, Note_off_c, 2, 70, 64
5, 376200, Note_on_c, 2, 68, 92
5, 376320, Note_off_c, 2, 68, 64
5, 376320, Note_on_c, 2, 67, 92
5, 376440, Note_off_c, 2, 67, 64
5, 376440, Note_on_c, 2, 70, 92
5, 376560, Note_off_c, 2, 70, 64
5, 376560, Note_on_c, 2, 68, 92
5, 376680, Note_off_c, 2, 68, 64
5, 376680, Note_on_c, 2, 72, 92
5, 376795, Note_off_c, 2, 72, 64
5, 376800, Note_on_c, 2, 70, 92
5, 377395, Note_off_c, 2, 70, 64
5, 377400, Note_on_c, 2, 72, 92
5, 377520, Note_off_c, 2, 72, 64
5, 377520, Note_on_c, 2, 67, 92
5, 377640, Note_off_c, 2, 67, 64
5, 377640, Note_on_c, 2, 70, 92
5, 377760, Note_off_c, 2, 70, 64
5, 377760, Note_on_c, 2, 68, 92
5, 378355, Note_off_c, 2, 68, 64
5, 378360, Note_on_c, 2, 72, 92
5, 378480, Note_off_c, 2, 72, 64
5, 378480, Note_on_c, 2, 68, 92
5, 378600, Note_off_c, 2, 68, 64
5, 378600, Note_on_c, 2, 72, 92
5, 378720, Note_off_c, 2, 72, 64
5, 378720, Note_on_c, 2, 66, 92
5, 379560, Note_off_c, 2, 66, 64
5, 379800, Note_on_c, 2, 67, 92
5, 379920, Note_off_c, 2, 67, 64
5, 379920, Note_on_c, 2, 65, 92
5, 380040, Note_off_c, 2, 65, 64
5, 380040, Note_on_c, 2, 67, 92
5, 380160, Note_off_c, 2, 67, 64
5, 380160, Note_on_c, 2, 63, 92
5, 380560, Note_off_c, 2, 63, 64
5, 380760, Note_on_c, 2, 62, 92
5, 380880, Note_off_c, 2, 62, 64
5, 380880, Note_on_c, 2, 60, 92
5, 381000, Note_off_c, 2, 60, 64
5, 381000, Note_on_c, 2, 62, 92
5, 381120, Note_off_c, 2, 62, 64
5, 381120, Note_on_c, 2, 58, 92
5, 381520, Note_off_c, 2, 58, 64
5, 381720, Note_on_c, 2, 69, 92
5, 381840, Note_off_c, 2, 69, 64
5, 381840, Note_on_c, 2, 67, 92
5, 381960, Note_off_c, 2, 67, 64
5, 381960, Note_on_c, 2, 69, 92
5, 382080, Note_off_c, 2, 69, 64
5, 382080, Note_on_c, 2, 66, 92
5, 382480, Note_off_c, 2, 66, 64
5, 382680, Note_on_c, 2, 67, 92
5, 382800, Note_off_c, 2, 67, 64
5, 382800, Note_on_c, 2, 65, 92
5, 382920, Note_off_c, 2, 65, 64
5, 382920, Note_on_c, 2, 67, 92
5, 383040, Note_off_c, 2, 67, 64
5, 383040, Note_on_c, 2, 63, 92
5, 383520, Note_off_c, 2, 63, 64
5, 383520, Note_on_c, 2, 62, 92
5, 383920, Note_off_c, 2, 62, 64
5, 384120, Note_on_c, 2, 62, 92
5, 384240, Note_off_c, 2, 62, 64
5, 384240, Note_on_c, 2, 60, 92
5, 384360, Note_off_c, 2, 60, 64
5, 384360, Note_on_c, 2, 62, 92
5, 384880, Note_off_c, 2, 62, 64
5, 391200, Note_on_c, 2, 72, 92
5, 391600, Note_off_c, 2, 72, 64
5, 391680, Note_on_c, 2, 67, 92
5, 392520, Note_off_c, 2, 67, 64
5, 392640, Note_on_c, 2, 63, 92
5, 393040, Note_off_c, 2, 63, 64
5, 393120, Note_on_c, 2, 65, 92
5, 393960, Note_off_c, 2, 65, 64
5, 394080, Note_on_c, 2, 67, 92
5, 394480, Note_off_c, 2, 67, 64
5, 394560, Note_on_c, 2, 68, 92
5, 395400, Note_off_c, 2, 68, 64
5, 395520, Note_on_c, 2, 65, 92
5, 395920, Note_off_c, 2, 65, 64
5, 396000, Note_on_c, 2, 67, 92
5, 399280, Note_off_c, 2, 67, 64
5, 399360, Note_on_c, 2, 65, 92
5, 400720, Note_off_c, 2, 65, 64
5, 400800, Note_on_c, 2, 63, 92
5, 402160, Note_off_c, 2, 63, 64
5, 402240, Note_on_c, 2, 62, 92
5, 403600, Note_off_c, 2, 62, 64
5, 403680, Note_on_c, 2, 72, 92
5, 403800, Note_off_c, 2, 72, 64
5, 403800, Note_on_c, 2, 75, 92
5, 403920, Note_off_c, 2, 75, 64
5, 403920, Note_on_c, 2, 72, 92
5, 404040, Note_off_c, 2, 72, 64
5, 404040, Note_on_c, 2, 75, 92
5, 404160, Note_off_c, 2, 75, 64
5, 404160, Note_on_c, 2, 74, 92
5, 404280, Note_off_c, 2, 74, 64
5, 404280, Note_on_c, 2, 77, 92
5, 404400, Note_off_c, 2, 77, 64
5, 404400, Note_on_c, 2, 74, 92
5, 404520, Note_off_c, 2, 74, 64
5, 404520, Note_on_c, 2, 77, 92
5, 404640, Note_off_c, 2, 77, 64
5, 404640, Note_on_c, 2, 71, 92
5, 404700, Note_off_c, 2, 71, 64
5, 404700, Note_on_c, 2, 72, 92
5, 404760, Note_off_c, 2, 72, 64
5, 404760, Note_on_c, 2, 71, 92
5, 404820, Note_off_c, 2, 71, 64
5, 404820, Note_on_c, 2, 72, 92
5, 404880, Note_off_c, 2, 72, 64
5, 404880, Note_on_c, 2, 71, 92
5, 404940, Note_off_c, 2, 71, 64
5, 404940, Note_on_c, 2, 72, 92
5, 405000, Note_off_c, 2, 72, 64
5, 405000, Note_on_c, 2, 71, 92
5, 405060, Note_off_c, 2, 71, 64
5, 405060, Note_on_c, 2, 72, 92
5, 405120, Note_off_c, 2, 72, 64
5, 405120, Note_on_c, 2, 71, 92
5, 405180, Note_off_c, 2, 71, 64
5, 405180, Note_on_c, 2, 72, 92
5, 405240, Note_off_c, 2, 72, 64
5, 405240, Note_on_c, 2, 71, 92
5, 405300, Note_off_c, 2, 71, 64
5, 405300, Note_on_c, 2, 72, 92
5, 405360, Note_off_c, 2, 72, 64
5, 405360, Note_on_c, 2, 71, 92
5, 405420, Note_off_c, 2, 71, 64
5, 405420, Note_on_c, 2, 72, 92
5, 405480, Note_off_c, 2, 72, 64
5, 405480, Note_on_c, 2, 71, 92
5, 405540, Note_off_c, 2, 71, 64
5, 405540, Note_on_c, 2, 72, 92
5, 405600, Note_off_c, 2, 72, 64
5, 405600, Note_on_c, 2, 79, 92
5, 405660, Note_off_c, 2, 79, 64
5, 405660, Note_on_c, 2, 77, 92
5, 405720, Note_off_c, 2, 77, 64
5, 405720, Note_on_c, 2, 79, 92
5, 405780, Note_off_c, 2, 79, 64
5, 405780, Note_on_c, 2, 75, 92
5, 405840, Note_off_c, 2, 75, 64
5, 405840, Note_on_c, 2, 79, 92
5, 405900, Note_off_c, 2, 79, 64
5, 405900, Note_on_c, 2, 72, 92
5, 405960, Note_off_c, 2, 72, 64
5, 405960, Note_on_c, 2, 75, 92
5, 406080, Note_off_c, 2, 75, 64
5, 406080, Note_on_c, 2, 71, 92
5, 406480, Note_off_c, 2, 71, 64
5, 406800, Note_on_c, 2, 71, 92
5, 407035, Note_off_c, 2, 71, 64
5, 407040, Note_on_c, 2, 72, 92
5, 407275, Note_off_c, 2, 72, 64
5, 407280, Note_on_c, 2, 72, 92
5, 407515, Note_off_c, 2, 72, 64
5, 407520, Note_on_c, 2, 74, 92
5, 407920, Note_off_c, 2, 74, 64
5, 408240, Note_on_c, 2, 74, 92
5, 408475, Note_off_c, 2, 74, 64
5, 408480, Note_on_c, 2, 75, 92
5, 408715, Note_off_c, 2, 75, 64
5, 408720, Note_on_c, 2, 75, 92
5, 408955, Note_off_c, 2, 75, 64
5, 408960, Note_on_c, 2, 74, 92
5, 409360, Note_off_c, 2, 74, 64
5, 409680, Note_on_c, 2, 74, 92
5, 409915, Note_off_c, 2, 74, 64
5, 409920, Note_on_c, 2, 79, 92
5, 410155, Note_off_c, 2, 79, 64
5, 410160, Note_on_c, 2, 75, 92
5, 410395, Note_off_c, 2, 75, 64
5, 410400, Note_on_c, 2, 80, 92
5, 410800, Note_off_c, 2, 80, 64
5, 411120, Note_on_c, 2, 71, 92
5, 411355, Note_off_c, 2, 71, 64
5, 411360, Note_on_c, 2, 72, 92
5, 411955, Note_off_c, 2, 72, 64
5, 411960, Note_on_c, 2, 75, 92
5, 412080, Note_off_c, 2, 75, 64
5, 412080, Note_on_c, 2, 74, 92
5, 412200, Note_off_c, 2, 74, 64
5, 412200, Note_on_c, 2, 77, 92
5, 412320, Note_off_c, 2, 77, 64
5, 412320, Note_on_c, 2, 75, 92
5, 412440, Note_off_c, 2, 75, 64
5, 412440, Note_on_c, 2, 79, 92
5, 412560, Note_off_c, 2, 79, 64
5, 412560, Note_on_c, 2, 77, 92
5, 412680, Note_off_c, 2, 77, 64
5, 412680, Note_on_c, 2, 80, 92
5, 412795, Note_off_c, 2, 80, 64
5, 412800, Note_on_c, 2, 74, 92
5, 412830, Note_off_c, 2, 74, 64
5, 412830, Note_on_c, 2, 75, 92
5, 412860, Note_off_c, 2, 75, 64
5, 412860, Note_on_c, 2, 74, 92
5, 412890, Note_off_c, 2, 74, 64
5, 412890, Note_on_c, 2, 75, 92
5, 412920, Note_off_c, 2, 75, 64
5, 412920, Note_on_c, 2, 74, 92
5, 412950, Note_off_c, 2, 74, 64
5, 412950, Note_on_c, 2, 75, 92
5, 412980, Note_off_c, 2, 75, 64
5, 412980, Note_on_c, 2, 74, 92
5, 413010, Note_off_c, 2, 74, 64
5, 413010, Note_on_c, 2, 75, 92
5, 413040, Note_off_c, 2, 75, 64
5, 413040, Note_on_c, 2, 74, 92
5, 413070, Note_off_c, 2, 74, 64
5, 413070, Note_on_c, 2, 75, 92
5, 413100, Note_off_c, 2, 75, 64
5, 413100, Note_on_c, 2, 74, 92
5, 413130, Note_off_c, 2, 74, 64
5, 413130, Note_on_c, 2, 75, 92
5, 413160, Note_off_c, 2, 75, 64
5, 413160, Note_on_c, 2, 74, 92
5, 413190, Note_off_c, 2, 74, 64
5, 413190, Note_on_c, 2, 75, 92
5, 413220, Note_off_c, 2, 75, 64
5, 413220, Note_on_c, 2, 74, 92
5, 413250, Note_off_c, 2, 74, 64
5, 413250, Note_on_c, 2, 75, 92
5, 413280, Note_off_c, 2, 75, 64
5, 413280, Note_on_c, 2, 72, 92
5, 413680, Note_off_c, 2, 72, 64
5, 413880, Note_on_c, 2, 72, 92
5, 414000, Note_off_c, 2, 72, 64
5, 414000, Note_on_c, 2, 70, 92
5, 414120, Note_off_c, 2, 70, 64
5, 414120, Note_on_c, 2, 72, 92
5, 414240, Note_off_c, 2, 72, 64
5, 414240, Note_on_c, 2, 68, 92
5, 414360, Note_off_c, 2, 68, 64
5, 414360, Note_on_c, 2, 72, 92
5, 414480, Note_off_c, 2, 72, 64
5, 414480, Note_on_c, 2, 65, 92
5, 414600, Note_off_c, 2, 65, 64
5, 414600, Note_on_c, 2, 68, 92
5, 414720, Note_off_c, 2, 68, 64
5, 414720, Note_on_c, 2, 64, 92
5, 415200, Note_off_c, 2, 64, 64
5, 415440, Note_on_c, 2, 64, 92
5, 415680, Note_off_c, 2, 64, 64
5, 415680, Note_on_c, 2, 65, 92
5, 415920, Note_off_c, 2, 65, 64
5, 415920, Note_on_c, 2, 65, 92
5, 416160, Note_off_c, 2, 65, 64
5, 416160, Note_on_c, 2, 67, 92
5, 416640, Note_off_c, 2, 67, 64
5, 416880, Note_on_c, 2, 67, 92
5, 417120, Note_off_c, 2, 67, 64
5, 417120, Note_on_c, 2, 68, 92
5, 417360, Note_off_c, 2, 68, 64
5, 417360, Note_on_c, 2, 68, 92
5, 417600, Note_off_c, 2, 68, 64
5, 417720, Note_on_c, 2, 70, 92
5, 417835, Note_off_c, 2, 70, 64
5, 417840, Note_on_c, 2, 68, 92
5, 417955, Note_off_c, 2, 68, 64
5, 417960, Note_on_c, 2, 70, 92
5, 418075, Note_off_c, 2, 70, 64
5, 418080, Note_on_c, 2, 67, 92
5, 418795, Note_off_c, 2, 67, 64
5, 418800, Note_on_c, 2, 65, 92
5, 419155, Note_off_c, 2, 65, 64
5, 419160, Note_on_c, 2, 65, 92
5, 419275, Note_off_c, 2, 65, 64
5, 419280, Note_on_c, 2, 64, 92
5, 419395, Note_off_c, 2, 64, 64
5, 419400, Note_on_c, 2, 65, 92
5, 419515, Note_off_c, 2, 65, 64
5, 419520, Note_on_c, 2, 71, 92
5, 420115, Note_off_c, 2, 71, 64
5, 420120, Note_on_c, 2, 74, 92
5, 420240, Note_off_c, 2, 74, 64
5, 420240, Note_on_c, 2, 71, 92
5, 420360, Note_off_c, 2, 71, 64
5, 420360, Note_on_c, 2, 74, 92
5, 420480, Note_off_c, 2, 74, 64
5, 420480, Note_on_c, 2, 72, 92
5, 421800, Note_off_c, 2, 72, 64
5, 421800, End_track
6, 0, Start_track
6, 0, MIDI_port, 0
6, 0, Channel_prefix, 3
6, 0, Control_c, 3, 7, 105
6, 0, Control_c, 3, 10, 48
6, 0, Control_c, 3, 91, 50
6, 0, Program_c, 3, 71
6, 24240, Note_on_c, 3, 67, 30
6, 25320, Note_off_c, 3, 67, 64
6, 25680, Note_on_c, 3, 67, 30
6, 26400, Note_off_c, 3, 67, 64
6, 26400, Note_on_c, 3, 65, 30
6, 26800, Note_off_c, 3, 65, 64
6, 27120, Note_on_c, 3, 63, 30
6, 27840, Note_off_c, 3, 63, 64
6, 27840, Note_on_c, 3, 62, 30
6, 28240, Note_off_c, 3, 62, 64
6, 28560, Note_on_c, 3, 63, 30
6, 29280, Note_off_c, 3, 63, 64
6, 29280, Note_on_c, 3, 62, 30
6, 29680, Note_off_c, 3, 62, 64
6, 30000, Note_on_c, 3, 59, 30
6, 30720, Note_off_c, 3, 59, 64
6, 30720, Note_on_c, 3, 60, 30
6, 31120, Note_off_c, 3, 60, 64
6, 31440, Note_on_c, 3, 56, 30
6, 31920, Note_off_c, 3, 56, 64
6, 31920, Note_on_c, 3, 55, 30
6, 32560, Note_off_c, 3, 55, 64
6, 32880, Note_on_c, 3, 63, 30
6, 33355, Note_off_c, 3, 63, 64
6, 33360, Note_on_c, 3, 62, 30
6, 33840, Note_off_c, 3, 62, 64
6, 33840, Note_on_c, 3, 65, 30
6, 34075, Note_off_c, 3, 65, 64
6, 34080, Note_on_c, 3, 63, 30
6, 34440, Note_off_c, 3, 63, 64
6, 34440, Note_on_c, 3, 62, 30
6, 34555, Note_off_c, 3, 62, 64
6, 34560, Note_on_c, 3, 60, 30
6, 34960, Note_off_c, 3, 60, 64
6, 58800, Note_on_c, 3, 67, 60
6, 58920, Note_off_c, 3, 67, 64
6, 58920, Note_on_c, 3, 66, 60
6, 59040, Note_off_c, 3, 66, 64
6, 59040, Note_on_c, 3, 67, 60
6, 59275, Note_off_c, 3, 67, 64
6, 59280, Note_on_c, 3, 74, 60
6, 59400, Note_off_c, 3, 74, 64
6, 59400, Note_on_c, 3, 62, 60
6, 59520, Note_off_c, 3, 62, 64
6, 59520, Note_on_c, 3, 67, 60
6, 59920, Note_off_c, 3, 67, 64
6, 60240, Note_on_c, 3, 67, 60
6, 60360, Note_off_c, 3, 67, 64
6, 60360, Note_on_c, 3, 63, 60
6, 60480, Note_off_c, 3, 63, 64
6, 60480, Note_on_c, 3, 68, 60
6, 61120, Note_off_c, 3, 68, 64
6, 61200, Note_on_c, 3, 65, 60
6, 61440, Note_off_c, 3, 65, 64
6, 61440, Note_on_c, 3, 67, 60
6, 61920, Note_off_c, 3, 67, 64
6, 61920, Note_on_c, 3, 63, 60
6, 62320, Note_off_c, 3, 63, 64
6, 63120, Note_on_c, 3, 74, 60
6, 63240, Note_off_c, 3, 74, 64
6, 63240, Note_on_c, 3, 77, 60
6, 63360, Note_off_c, 3, 77, 64
6, 63360, Note_on_c, 3, 71, 60
6, 63760, Note_off_c, 3, 71, 64
6, 64560, Note_on_c, 3, 67, 60
6, 64680, Note_off_c, 3, 67, 64
6, 64680, Note_on_c, 3, 65, 60
6, 64800, Note_off_c, 3, 65, 64
6, 64800, Note_on_c, 3, 67, 60
6, 65200, Note_off_c, 3, 67, 64
6, 66000, Note_on_c, 3, 67, 60
6, 66640, Note_off_c, 3, 67, 64
6, 67440, Note_on_c, 3, 74, 60
6, 67560, Note_off_c, 3, 74, 64
6, 67560, Note_on_c, 3, 69, 60
6, 67680, Note_off_c, 3, 69, 64
6, 67680, Note_on_c, 3, 71, 60
6, 68080, Note_off_c, 3, 71, 64
6, 68400, Note_on_c, 3, 72, 60
6, 68520, Note_off_c, 3, 72, 64
6, 68520, Note_on_c, 3, 69, 60
6, 68640, Note_off_c, 3, 69, 64
6, 68640, Note_on_c, 3, 71, 60
6, 69120, Note_off_c, 3, 71, 64
6, 69120, Note_on_c, 3, 72, 60
6, 69520, Note_off_c, 3, 72, 64
6, 69720, Note_on_c, 3, 62, 60
6, 69840, Note_off_c, 3, 62, 64
6, 69840, Note_on_c, 3, 63, 60
6, 69960, Note_off_c, 3, 63, 64
6, 69960, Note_on_c, 3, 65, 60
6, 70080, Note_off_c, 3, 65, 64
6, 70080, Note_on_c, 3, 67, 60
6, 70960, Note_off_c, 3, 67, 64
6, 71160, Note_on_c, 3, 67, 60
6, 71280, Note_off_c, 3, 67, 64
6, 71280, Note_on_c, 3, 69, 60
6, 71400, Note_off_c, 3, 69, 64
6, 71400, Note_on_c, 3, 71, 60
6, 71520, Note_off_c, 3, 71, 64
6, 71520, Note_on_c, 3, 72, 60
6, 72400, Note_off_c, 3, 72, 64
6, 72600, Note_on_c, 3, 69, 60
6, 72720, Note_off_c, 3, 69, 64
6, 72720, Note_on_c, 3, 71, 60
6, 72840, Note_off_c, 3, 71, 64
6, 72840, Note_on_c, 3, 72, 60
6, 72960, Note_off_c, 3, 72, 64
6, 72960, Note_on_c, 3, 71, 60
6, 73195, Note_off_c, 3, 71, 64
6, 73200, Note_on_c, 3, 67, 60
6, 73840, Note_off_c, 3, 67, 64
6, 74040, Note_on_c, 3, 67, 60
6, 74160, Note_off_c, 3, 67, 64
6, 74160, Note_on_c, 3, 68, 60
6, 74280, Note_off_c, 3, 68, 64
6, 74280, Note_on_c, 3, 70, 60
6, 74400, Note_off_c, 3, 70, 64
6, 74400, Note_on_c, 3, 72, 60
6, 74640, Note_off_c, 3, 72, 64
6, 74640, Note_on_c, 3, 68, 60
6, 74880, Note_off_c, 3, 68, 64
6, 74880, Note_on_c, 3, 67, 60
6, 75280, Note_off_c, 3, 67, 64
6, 75480, Note_on_c, 3, 57, 60
6, 75600, Note_off_c, 3, 57, 64
6, 75600, Note_on_c, 3, 59, 60
6, 75720, Note_off_c, 3, 59, 64
6, 75720, Note_on_c, 3, 60, 60
6, 75840, Note_off_c, 3, 60, 64
6, 75840, Note_on_c, 3, 62, 60
6, 76320, Note_off_c, 3, 62, 64
6, 76320, Note_on_c, 3, 60, 60
6, 76720, Note_off_c, 3, 60, 64
6, 76920, Note_on_c, 3, 62, 60
6, 77040, Note_off_c, 3, 62, 64
6, 77040, Note_on_c, 3, 63, 60
6, 77160, Note_off_c, 3, 63, 64
6, 77160, Note_on_c, 3, 65, 60
6, 77280, Note_off_c, 3, 65, 64
6, 77280, Note_on_c, 3, 67, 60
6, 78160, Note_off_c, 3, 67, 64
6, 78360, Note_on_c, 3, 63, 60
6, 78480, Note_off_c, 3, 63, 64
6, 78480, Note_on_c, 3, 65, 60
6, 78600, Note_off_c, 3, 65, 64
6, 78600, Note_on_c, 3, 67, 60
6, 78720, Note_off_c, 3, 67, 64
6, 78720, Note_on_c, 3, 68, 60
6, 79120, Note_off_c, 3, 68, 64
6, 79200, Note_on_c, 3, 67, 60
6, 80275, Note_off_c, 3, 67, 64
6, 80280, Note_on_c, 3, 68, 60
6, 80400, Note_off_c, 3, 68, 64
6, 80400, Note_on_c, 3, 67, 60
6, 80520, Note_off_c, 3, 67, 64
6, 80520, Note_on_c, 3, 65, 60
6, 80640, Note_off_c, 3, 65, 64
6, 80640, Note_on_c, 3, 63, 60
6, 81040, Note_off_c, 3, 63, 64
6, 81240, Note_on_c, 3, 65, 60
6, 81360, Note_off_c, 3, 65, 64
6, 81360, Note_on_c, 3, 63, 60
6, 81480, Note_off_c, 3, 63, 64
6, 81480, Note_on_c, 3, 62, 60
6, 81600, Note_off_c, 3, 62, 64
6, 81600, Note_on_c, 3, 60, 60
6, 81715, Note_off_c, 3, 60, 64
6, 81720, Note_on_c, 3, 63, 60
6, 81840, Note_off_c, 3, 63, 64
6, 81840, Note_on_c, 3, 62, 60
6, 81960, Note_off_c, 3, 62, 64
6, 81960, Note_on_c, 3, 60, 60
6, 82080, Note_off_c, 3, 60, 64
6, 82080, Note_on_c, 3, 59, 60
6, 82480, Note_off_c, 3, 59, 64
6, 82680, Note_on_c, 3, 72, 60
6, 82800, Note_off_c, 3, 72, 64
6, 82800, Note_on_c, 3, 71, 60
6, 82920, Note_off_c, 3, 71, 64
6, 82920, Note_on_c, 3, 69, 60
6, 83040, Note_off_c, 3, 69, 64
6, 83040, Note_on_c, 3, 67, 60
6, 83160, Note_off_c, 3, 67, 64
6, 83160, Note_on_c, 3, 69, 60
6, 83280, Note_off_c, 3, 69, 64
6, 83280, Note_on_c, 3, 67, 60
6, 83400, Note_off_c, 3, 67, 64
6, 83400, Note_on_c, 3, 70, 60
6, 83520, Note_off_c, 3, 70, 64
6, 83520, Note_on_c, 3, 68, 60
6, 83920, Note_off_c, 3, 68, 64
6, 84600, Note_on_c, 3, 68, 60
6, 84720, Note_off_c, 3, 68, 64
6, 84720, Note_on_c, 3, 67, 60
6, 84840, Note_off_c, 3, 67, 64
6, 84840, Note_on_c, 3, 65, 60
6, 84960, Note_off_c, 3, 65, 64
6, 84960, Note_on_c, 3, 63, 60
6, 85360, Note_off_c, 3, 63, 64
6, 86040, Note_on_c, 3, 67, 60
6, 86160, Note_off_c, 3, 67, 64
6, 86160, Note_on_c, 3, 65, 60
6, 86280, Note_off_c, 3, 65, 64
6, 86280, Note_on_c, 3, 63, 60
6, 86400, Note_off_c, 3, 63, 64
6, 86400, Note_on_c, 3, 62, 60
6, 86800, Note_off_c, 3, 62, 64
6, 87000, Note_on_c, 3, 72, 60
6, 87120, Note_off_c, 3, 72, 64
6, 87120, Note_on_c, 3, 71, 60
6, 87240, Note_off_c, 3, 71, 64
6, 87240, Note_on_c, 3, 69, 60
6, 87360, Note_off_c, 3, 69, 64
6, 87360, Note_on_c, 3, 71, 60
6, 87840, Note_off_c, 3, 71, 64
6, 87840, Note_on_c, 3, 72, 60
6, 88240, Note_off_c, 3, 72, 64
6, 88440, Note_on_c, 3, 67, 60
6, 88560, Note_off_c, 3, 67, 64
6, 88560, Note_on_c, 3, 65, 60
6, 88680, Note_off_c, 3, 65, 64
6, 88680, Note_on_c, 3, 63, 60
6, 88800, Note_off_c, 3, 63, 64
6, 88800, Note_on_c, 3, 65, 60
6, 88920, Note_off_c, 3, 65, 64
6, 88920, Note_on_c, 3, 68, 60
6, 89040, Note_off_c, 3, 68, 64
6, 89040, Note_on_c, 3, 67, 60
6, 89160, Note_off_c, 3, 67, 64
6, 89160, Note_on_c, 3, 65, 60
6, 89280, Note_off_c, 3, 65, 64
6, 89280, Note_on_c, 3, 63, 60
6, 89680, Note_off_c, 3, 63, 64
6, 89880, Note_on_c, 3, 70, 60
6, 90000, Note_off_c, 3, 70, 64
6, 90000, Note_on_c, 3, 68, 60
6, 90120, Note_off_c, 3, 68, 64
6, 90120, Note_on_c, 3, 67, 60
6, 90240, Note_off_c, 3, 67, 64
6, 90240, Note_on_c, 3, 65, 60
6, 90600, Note_off_c, 3, 65, 64
6, 90600, Note_on_c, 3, 63, 60
6, 90720, Note_off_c, 3, 63, 64
6, 90720, Note_on_c, 3, 62, 60
6, 91075, Note_off_c, 3, 62, 64
6, 91080, Note_on_c, 3, 62, 60
6, 91200, Note_off_c, 3, 62, 64
6, 91200, Note_on_c, 3, 60, 60
6, 91320, Note_off_c, 3, 60, 64
6, 91320, Note_on_c, 3, 63, 60
6, 91440, Note_off_c, 3, 63, 64
6, 91440, Note_on_c, 3, 62, 60
6, 91560, Note_off_c, 3, 62, 64
6, 91560, Note_on_c, 3, 60, 60
6, 91680, Note_off_c, 3, 60, 64
6, 91680, Note_on_c, 3, 59, 60
6, 92160, Note_off_c, 3, 59, 64
6, 92160, Note_on_c, 3, 60, 60
6, 92560, Note_off_c, 3, 60, 64
6, 93720, Note_on_c, 3, 62, 60
6, 93840, Note_off_c, 3, 62, 64
6, 93840, Note_on_c, 3, 63, 60
6, 93960, Note_off_c, 3, 63, 64
6, 93960, Note_on_c, 3, 65, 60
6, 94080, Note_off_c, 3, 65, 64
6, 94080, Note_on_c, 3, 67, 60
6, 94200, Note_off_c, 3, 67, 64
6, 94200, Note_on_c, 3, 71, 60
6, 94320, Note_off_c, 3, 71, 64
6, 94320, Note_on_c, 3, 72, 60
6, 94440, Note_off_c, 3, 72, 64
6, 94440, Note_on_c, 3, 74, 60
6, 94560, Note_off_c, 3, 74, 64
6, 94560, Note_on_c, 3, 75, 60
6, 94680, Note_off_c, 3, 75, 64
6, 94680, Note_on_c, 3, 74, 60
6, 94800, Note_off_c, 3, 74, 64
6, 94800, Note_on_c, 3, 72, 60
6, 94920, Note_off_c, 3, 72, 64
6, 94920, Note_on_c, 3, 71, 60
6, 95040, Note_off_c, 3, 71, 64
6, 95040, Note_on_c, 3, 68, 60
6, 95155, Note_off_c, 3, 68, 64
6, 95160, Note_on_c, 3, 60, 60
6, 95280, Note_off_c, 3, 60, 64
6, 95280, Note_on_c, 3, 62, 60
6, 95400, Note_off_c, 3, 62, 64
6, 95400, Note_on_c, 3, 64, 60
6, 95520, Note_off_c, 3, 64, 64
6, 95520, Note_on_c, 3, 65, 60
6, 95640, Note_off_c, 3, 65, 64
6, 95640, Note_on_c, 3, 67, 60
6, 95760, Note_off_c, 3, 67, 64
6, 95760, Note_on_c, 3, 65, 60
6, 95880, Note_off_c, 3, 65, 64
6, 95880, Note_on_c, 3, 63, 60
6, 96000, Note_off_c, 3, 63, 64
6, 96000, Note_on_c, 3, 62, 60
6, 96115, Note_off_c, 3, 62, 64
6, 96120, Note_on_c, 3, 68, 60
6, 96240, Note_off_c, 3, 68, 64
6, 96240, Note_on_c, 3, 67, 60
6, 96360, Note_off_c, 3, 67, 64
6, 96360, Note_on_c, 3, 65, 60
6, 96480, Note_off_c, 3, 65, 64
6, 96480, Note_on_c, 3, 63, 60
6, 96600, Note_off_c, 3, 63, 64
6, 96600, Note_on_c, 3, 65, 60
6, 96720, Note_off_c, 3, 65, 64
6, 96720, Note_on_c, 3, 63, 60
6, 96840, Note_off_c, 3, 63, 64
6, 96840, Note_on_c, 3, 62, 60
6, 96960, Note_off_c, 3, 62, 64
6, 96960, Note_on_c, 3, 60, 60
6, 97360, Note_off_c, 3, 60, 64
6, 98040, Note_on_c, 3, 66, 60
6, 98160, Note_off_c, 3, 66, 64
6, 98160, Note_on_c, 3, 67, 60
6, 98280, Note_off_c, 3, 67, 64
6, 98280, Note_on_c, 3, 69, 60
6, 98400, Note_off_c, 3, 69, 64
6, 98400, Note_on_c, 3, 71, 60
6, 98520, Note_off_c, 3, 71, 64
6, 98520, Note_on_c, 3, 69, 60
6, 98640, Note_off_c, 3, 69, 64
6, 98640, Note_on_c, 3, 71, 60
6, 98760, Note_off_c, 3, 71, 64
6, 98760, Note_on_c, 3, 72, 60
6, 98875, Note_off_c, 3, 72, 64
6, 98880, Note_on_c, 3, 74, 60
6, 99475, Note_off_c, 3, 74, 64
6, 99480, Note_on_c, 3, 67, 60
6, 99600, Note_off_c, 3, 67, 64
6, 99600, Note_on_c, 3, 69, 60
6, 99720, Note_off_c, 3, 69, 64
6, 99720, Note_on_c, 3, 71, 60
6, 99840, Note_off_c, 3, 71, 64
6, 99840, Note_on_c, 3, 72, 60
6, 100240, Note_off_c, 3, 72, 64
6, 100920, Note_on_c, 3, 59, 60
6, 101040, Note_off_c, 3, 59, 64
6, 101040, Note_on_c, 3, 60, 60
6, 101160, Note_off_c, 3, 60, 64
6, 101160, Note_on_c, 3, 62, 60
6, 101280, Note_off_c, 3, 62, 64
6, 101280, Note_on_c, 3, 63, 60
6, 101400, Note_off_c, 3, 63, 64
6, 101400, Note_on_c, 3, 60, 60
6, 101520, Note_off_c, 3, 60, 64
6, 101520, Note_on_c, 3, 62, 60
6, 101640, Note_off_c, 3, 62, 64
6, 101640, Note_on_c, 3, 63, 60
6, 101755, Note_off_c, 3, 63, 64
6, 101760, Note_on_c, 3, 65, 60
6, 102355, Note_off_c, 3, 65, 64
6, 102360, Note_on_c, 3, 68, 62
6, 102480, Note_off_c, 3, 68, 64
6, 102480, Note_on_c, 3, 67, 62
6, 102600, Note_off_c, 3, 67, 64
6, 102600, Note_on_c, 3, 65, 62
6, 102720, Note_off_c, 3, 65, 64
6, 102720, Note_on_c, 3, 63, 62
6, 102840, Note_off_c, 3, 63, 64
6, 102840, Note_on_c, 3, 67, 62
6, 102960, Note_off_c, 3, 67, 64
6, 102960, Note_on_c, 3, 65, 62
6, 103080, Note_off_c, 3, 65, 64
6, 103080, Note_on_c, 3, 63, 62
6, 103195, Note_off_c, 3, 63, 64
6, 103200, Note_on_c, 3, 62, 63
6, 103680, Note_off_c, 3, 62, 64
6, 103680, Note_on_c, 3, 60, 67
6, 103795, Note_off_c, 3, 60, 64
6, 103800, Note_on_c, 3, 60, 68
6, 103920, Note_off_c, 3, 60, 64
6, 103920, Note_on_c, 3, 63, 69
6, 104040, Note_off_c, 3, 63, 64
6, 104040, Note_on_c, 3, 60, 70
6, 104160, Note_off_c, 3, 60, 64
6, 104160, Note_on_c, 3, 67, 71
6, 104520, Note_off_c, 3, 67, 64
6, 104520, Note_on_c, 3, 65, 74
6, 104635, Note_off_c, 3, 65, 64
6, 104640, Note_on_c, 3, 63, 75
6, 104670, Note_off_c, 3, 63, 64
6, 104670, Note_on_c, 3, 65, 75
6, 104700, Note_off_c, 3, 65, 64
6, 104700, Note_on_c, 3, 63, 75
6, 104730, Note_off_c, 3, 63, 64
6, 104730, Note_on_c, 3, 65, 75
6, 104760, Note_off_c, 3, 65, 64
6, 104760, Note_on_c, 3, 63, 75
6, 104790, Note_off_c, 3, 63, 64
6, 104790, Note_on_c, 3, 65, 75
6, 104820, Note_off_c, 3, 65, 64
6, 104820, Note_on_c, 3, 63, 75
6, 104850, Note_off_c, 3, 63, 64
6, 104850, Note_on_c, 3, 65, 75
6, 104880, Note_off_c, 3, 65, 64
6, 104880, Note_on_c, 3, 63, 75
6, 104910, Note_off_c, 3, 63, 64
6, 104910, Note_on_c, 3, 65, 75
6, 104940, Note_off_c, 3, 65, 64
6, 104940, Note_on_c, 3, 63, 75
6, 104970, Note_off_c, 3, 63, 64
6, 104970, Note_on_c, 3, 65, 75
6, 105000, Note_off_c, 3, 65, 64
6, 105000, Note_on_c, 3, 63, 75
6, 105030, Note_off_c, 3, 63, 64
6, 105030, Note_on_c, 3, 65, 75
6, 105060, Note_off_c, 3, 65, 64
6, 105060, Note_on_c, 3, 62, 75
6, 105090, Note_off_c, 3, 62, 64
6, 105090, Note_on_c, 3, 63, 75
6, 105120, Note_off_c, 3, 63, 64
6, 105120, Note_on_c, 3, 62, 75
6, 105520, Note_off_c, 3, 62, 64
6, 105840, Note_on_c, 3, 67, 75
6, 106480, Note_off_c, 3, 67, 64
6, 106560, Note_on_c, 3, 68, 75
6, 106960, Note_off_c, 3, 68, 64
6, 107520, Note_on_c, 3, 70, 75
6, 107920, Note_off_c, 3, 70, 64
6, 108120, Note_on_c, 3, 63, 75
6, 108240, Note_off_c, 3, 63, 64
6, 108240, Note_on_c, 3, 67, 75
6, 108360, Note_off_c, 3, 67, 64
6, 108360, Note_on_c, 3, 63, 75
6, 108480, Note_off_c, 3, 63, 64
6, 108480, Note_on_c, 3, 68, 75
6, 109360, Note_off_c, 3, 68, 64
6, 109440, Note_on_c, 3, 67, 75
6, 109840, Note_off_c, 3, 67, 64
6, 110040, Note_on_c, 3, 67, 75
6, 110160, Note_off_c, 3, 67, 64
6, 110160, Note_on_c, 3, 71, 75
6, 110280, Note_off_c, 3, 71, 64
6, 110280, Note_on_c, 3, 67, 75
6, 110395, Note_off_c, 3, 67, 64
6, 110400, Note_on_c, 3, 74, 75
6, 110520, Note_off_c, 3, 74, 64
6, 110520, Note_on_c, 3, 71, 75
6, 110640, Note_off_c, 3, 71, 64
6, 110640, Note_on_c, 3, 74, 75
6, 110760, Note_off_c, 3, 74, 64
6, 110760, Note_on_c, 3, 71, 75
6, 110880, Note_off_c, 3, 71, 64
6, 110880, Note_on_c, 3, 72, 75
6, 111280, Note_off_c, 3, 72, 64
6, 111480, Note_on_c, 3, 63, 75
6, 111600, Note_off_c, 3, 63, 64
6, 111600, Note_on_c, 3, 67, 75
6, 111720, Note_off_c, 3, 67, 64
6, 111720, Note_on_c, 3, 63, 75
6, 111835, Note_off_c, 3, 63, 64
6, 111840, Note_on_c, 3, 68, 75
6, 112320, Note_off_c, 3, 68, 64
6, 112320, Note_on_c, 3, 67, 75
6, 112720, Note_off_c, 3, 67, 64
6, 112920, Note_on_c, 3, 63, 75
6, 113040, Note_off_c, 3, 63, 64
6, 113040, Note_on_c, 3, 67, 75
6, 113160, Note_off_c, 3, 67, 64
6, 113160, Note_on_c, 3, 63, 75
6, 113275, Note_off_c, 3, 63, 64
6, 113280, Note_on_c, 3, 68, 75
6, 113760, Note_off_c, 3, 68, 64
6, 113760, Note_on_c, 3, 67, 75
6, 114160, Note_off_c, 3, 67, 64
6, 114360, Note_on_c, 3, 75, 75
6, 114480, Note_off_c, 3, 75, 64
6, 114480, Note_on_c, 3, 79, 75
6, 114600, Note_off_c, 3, 79, 64
6, 114600, Note_on_c, 3, 75, 75
6, 114720, Note_off_c, 3, 75, 64
6, 114720, Note_on_c, 3, 74, 75
6, 115200, Note_off_c, 3, 74, 64
6, 115200, Note_on_c, 3, 72, 80
6, 115435, Note_off_c, 3, 72, 64
6, 115440, Note_on_c, 3, 70, 83
6, 115560, Note_off_c, 3, 70, 64
6, 115560, Note_on_c, 3, 68, 84
6, 115680, Note_off_c, 3, 68, 64
6, 115680, Note_on_c, 3, 67, 85
6, 115800, Note_off_c, 3, 67, 64
6, 115800, Note_on_c, 3, 65, 86
6, 115920, Note_off_c, 3, 65, 64
6, 115920, Note_on_c, 3, 63, 88
6, 116040, Note_off_c, 3, 63, 64
6, 116040, Note_on_c, 3, 62, 90
6, 116155, Note_off_c, 3, 62, 64
6, 116160, Note_on_c, 3, 72, 92
6, 116280, Note_off_c, 3, 72, 64
6, 116280, Note_on_c, 3, 75, 92
6, 116400, Note_off_c, 3, 75, 64
6, 116400, Note_on_c, 3, 74, 92
6, 116520, Note_off_c, 3, 74, 64
6, 116520, Note_on_c, 3, 72, 92
6, 116640, Note_off_c, 3, 72, 64
6, 116640, Note_on_c, 3, 71, 92
6, 116760, Note_off_c, 3, 71, 64
6, 116760, Note_on_c, 3, 72, 92
6, 116880, Note_off_c, 3, 72, 64
6, 116880, Note_on_c, 3, 71, 92
6, 117000, Note_off_c, 3, 71, 64
6, 117000, Note_on_c, 3, 69, 92
6, 117120, Note_off_c, 3, 69, 64
6, 117120, Note_on_c, 3, 79, 92
6, 117240, Note_off_c, 3, 79, 64
6, 117240, Note_on_c, 3, 77, 92
6, 117360, Note_off_c, 3, 77, 64
6, 117360, Note_on_c, 3, 75, 92
6, 117480, Note_off_c, 3, 75, 64
6, 117480, Note_on_c, 3, 74, 92
6, 117600, Note_off_c, 3, 74, 64
6, 117600, Note_on_c, 3, 72, 92
6, 117715, Note_off_c, 3, 72, 64
6, 117720, Note_on_c, 3, 70, 92
6, 117840, Note_off_c, 3, 70, 64
6, 117840, Note_on_c, 3, 68, 92
6, 117960, Note_off_c, 3, 68, 64
6, 117960, Note_on_c, 3, 67, 92
6, 118080, Note_off_c, 3, 67, 64
6, 118080, Note_on_c, 3, 68, 92
6, 118200, Note_off_c, 3, 68, 64
6, 118200, Note_on_c, 3, 70, 92
6, 118320, Note_off_c, 3, 70, 64
6, 118320, Note_on_c, 3, 68, 92
6, 118440, Note_off_c, 3, 68, 64
6, 118440, Note_on_c, 3, 67, 92
6, 118560, Note_off_c, 3, 67, 64
6, 118560, Note_on_c, 3, 65, 92
6, 118680, Note_off_c, 3, 65, 64
6, 118680, Note_on_c, 3, 63, 92
6, 118800, Note_off_c, 3, 63, 64
6, 118800, Note_on_c, 3, 74, 92
6, 118920, Note_off_c, 3, 74, 64
6, 118920, Note_on_c, 3, 72, 92
6, 119040, Note_off_c, 3, 72, 64
6, 119040, Note_on_c, 3, 71, 92
6, 119160, Note_off_c, 3, 71, 64
6, 119160, Note_on_c, 3, 74, 92
6, 119280, Note_off_c, 3, 74, 64
6, 119280, Note_on_c, 3, 72, 92
6, 119400, Note_off_c, 3, 72, 64
6, 119400, Note_on_c, 3, 71, 92
6, 119520, Note_off_c, 3, 71, 64
6, 119520, Note_on_c, 3, 72, 92
6, 119640, Note_off_c, 3, 72, 64
6, 119640, Note_on_c, 3, 74, 92
6, 119760, Note_off_c, 3, 74, 64
6, 119760, Note_on_c, 3, 72, 92
6, 119880, Note_off_c, 3, 72, 64
6, 119880, Note_on_c, 3, 70, 92
6, 119995, Note_off_c, 3, 70, 64
6, 120000, Note_on_c, 3, 80, 92
6, 120120, Note_off_c, 3, 80, 64
6, 120120, Note_on_c, 3, 79, 92
6, 120240, Note_off_c, 3, 79, 64
6, 120240, Note_on_c, 3, 77, 92
6, 120360, Note_off_c, 3, 77, 64
6, 120360, Note_on_c, 3, 75, 92
6, 120480, Note_off_c, 3, 75, 64
6, 120480, Note_on_c, 3, 74, 92
6, 120600, Note_off_c, 3, 74, 64
6, 120600, Note_on_c, 3, 75, 92
6, 120720, Note_off_c, 3, 75, 64
6, 120720, Note_on_c, 3, 74, 92
6, 120840, Note_off_c, 3, 74, 64
6, 120840, Note_on_c, 3, 72, 92
6, 120960, Note_off_c, 3, 72, 64
6, 120960, Note_on_c, 3, 71, 92
6, 121080, Note_off_c, 3, 71, 64
6, 121080, Note_on_c, 3, 72, 92
6, 121200, Note_off_c, 3, 72, 64
6, 121200, Note_on_c, 3, 71, 92
6, 121320, Note_off_c, 3, 71, 64
6, 121320, Note_on_c, 3, 69, 92
6, 121440, Note_off_c, 3, 69, 64
6, 121440, Note_on_c, 3, 67, 92
6, 121560, Note_off_c, 3, 67, 64
6, 121560, Note_on_c, 3, 69, 92
6, 121680, Note_off_c, 3, 69, 64
6, 121680, Note_on_c, 3, 71, 92
6, 121800, Note_off_c, 3, 71, 64
6, 121800, Note_on_c, 3, 72, 92
6, 121920, Note_off_c, 3, 72, 64
6, 121920, Note_on_c, 3, 71, 92
6, 122040, Note_off_c, 3, 71, 64
6, 122040, Note_on_c, 3, 74, 92
6, 122160, Note_off_c, 3, 74, 64
6, 122160, Note_on_c, 3, 72, 92
6, 122280, Note_off_c, 3, 72, 64
6, 122280, Note_on_c, 3, 71, 92
6, 122400, Note_off_c, 3, 71, 64
6, 122400, Note_on_c, 3, 72, 92
6, 122520, Note_off_c, 3, 72, 64
6, 122520, Note_on_c, 3, 74, 92
6, 122640, Note_off_c, 3, 74, 64
6, 122640, Note_on_c, 3, 75, 92
6, 122760, Note_off_c, 3, 75, 64
6, 122760, Note_on_c, 3, 77, 92
6, 122880, Note_off_c, 3, 77, 64
6, 122880, Note_on_c, 3, 67, 92
6, 123000, Note_off_c, 3, 67, 64
6, 123000, Note_on_c, 3, 69, 92
6, 123120, Note_off_c, 3, 69, 64
6, 123120, Note_on_c, 3, 71, 92
6, 123240, Note_off_c, 3, 71, 64
6, 123240, Note_on_c, 3, 72, 92
6, 123360, Note_off_c, 3, 72, 64
6, 123360, Note_on_c, 3, 74, 92
6, 123475, Note_off_c, 3, 74, 64
6, 123480, Note_on_c, 3, 77, 92
6, 123600, Note_off_c, 3, 77, 64
6, 123600, Note_on_c, 3, 75, 92
6, 123720, Note_off_c, 3, 75, 64
6, 123720, Note_on_c, 3, 74, 92
6, 123840, Note_off_c, 3, 74, 64
6, 123840, Note_on_c, 3, 75, 92
6, 123960, Note_off_c, 3, 75, 64
6, 123960, Note_on_c, 3, 67, 92
6, 124080, Note_off_c, 3, 67, 64
6, 124080, Note_on_c, 3, 72, 92
6, 124200, Note_off_c, 3, 72, 64
6, 124200, Note_on_c, 3, 70, 92
6, 124320, Note_off_c, 3, 70, 64
6, 124320, Note_on_c, 3, 68, 92
6, 124440, Note_off_c, 3, 68, 64
6, 124440, Note_on_c, 3, 67, 92
6, 124560, Note_off_c, 3, 67, 64
6, 124560, Note_on_c, 3, 65, 92
6, 124680, Note_off_c, 3, 65, 64
6, 124680, Note_on_c, 3, 63, 92
6, 124795, Note_off_c, 3, 63, 64
6, 124800, Note_on_c, 3, 62, 92
6, 124920, Note_off_c, 3, 62, 64
6, 124920, Note_on_c, 3, 63, 92
6, 125040, Note_off_c, 3, 63, 64
6, 125040, Note_on_c, 3, 62, 92
6, 125160, Note_off_c, 3, 62, 64
6, 125160, Note_on_c, 3, 72, 92
6, 125280, Note_off_c, 3, 72, 64
6, 125280, Note_on_c, 3, 71, 92
6, 125400, Note_off_c, 3, 71, 64
6, 125400, Note_on_c, 3, 72, 92
6, 125520, Note_off_c, 3, 72, 64
6, 125520, Note_on_c, 3, 74, 92
6, 125640, Note_off_c, 3, 74, 64
6, 125640, Note_on_c, 3, 75, 92
6, 125760, Note_off_c, 3, 75, 64
6, 125760, Note_on_c, 3, 74, 92
6, 125880, Note_off_c, 3, 74, 64
6, 125880, Note_on_c, 3, 72, 92
6, 126000, Note_off_c, 3, 72, 64
6, 126000, Note_on_c, 3, 71, 92
6, 126120, Note_off_c, 3, 71, 64
6, 126120, Note_on_c, 3, 69, 92
6, 126235, Note_off_c, 3, 69, 64
6, 126240, Note_on_c, 3, 67, 92
6, 126360, Note_off_c, 3, 67, 64
6, 126360, Note_on_c, 3, 68, 92
6, 126480, Note_off_c, 3, 68, 64
6, 126480, Note_on_c, 3, 67, 92
6, 126600, Note_off_c, 3, 67, 64
6, 126600, Note_on_c, 3, 65, 92
6, 126720, Note_off_c, 3, 65, 64
6, 126720, Note_on_c, 3, 63, 75
6, 126840, Note_off_c, 3, 63, 64
6, 126840, Note_on_c, 3, 65, 75
6, 126960, Note_off_c, 3, 65, 64
6, 126960, Note_on_c, 3, 67, 75
6, 127080, Note_off_c, 3, 67, 64
6, 127080, Note_on_c, 3, 68, 75
6, 127200, Note_off_c, 3, 68, 64
6, 127200, Note_on_c, 3, 67, 60
6, 127320, Note_off_c, 3, 67, 64
6, 127320, Note_on_c, 3, 65, 60
6, 127440, Note_off_c, 3, 65, 64
6, 127440, Note_on_c, 3, 63, 60
6, 127560, Note_off_c, 3, 63, 64
6, 127560, Note_on_c, 3, 62, 60
6, 127675, Note_off_c, 3, 62, 64
6, 139200, Note_on_c, 3, 60, 45
6, 139600, Note_off_c, 3, 60, 64
6, 139680, Note_on_c, 3, 67, 45
6, 140520, Note_off_c, 3, 67, 64
6, 140640, Note_on_c, 3, 63, 45
6, 141040, Note_off_c, 3, 63, 64
6, 141120, Note_on_c, 3, 65, 45
6, 141960, Note_off_c, 3, 65, 64
6, 142080, Note_on_c, 3, 67, 45
6, 142480, Note_off_c, 3, 67, 64
6, 142560, Note_on_c, 3, 68, 45
6, 143280, Note_off_c, 3, 68, 64
6, 143280, Note_on_c, 3, 67, 45
6, 143520, Note_off_c, 3, 67, 64
6, 143520, Note_on_c, 3, 65, 45
6, 143920, Note_off_c, 3, 65, 64
6, 144000, Note_on_c, 3, 67, 45
6, 144840, Note_off_c, 3, 67, 64
6, 144960, Note_on_c, 3, 62, 45
6, 145360, Note_off_c, 3, 62, 64
6, 145440, Note_on_c, 3, 63, 45
6, 146280, Note_off_c, 3, 63, 64
6, 146400, Note_on_c, 3, 59, 45
6, 146800, Note_off_c, 3, 59, 64
6, 146880, Note_on_c, 3, 60, 45
6, 147720, Note_off_c, 3, 60, 64
6, 147840, Note_on_c, 3, 53, 45
6, 148240, Note_off_c, 3, 53, 64
6, 148320, Note_on_c, 3, 55, 45
6, 149640, Note_off_c, 3, 55, 64
6, 149760, Note_on_c, 3, 60, 45
6, 150600, Note_off_c, 3, 60, 64
6, 150720, Note_on_c, 3, 60, 45
6, 150840, Note_off_c, 3, 60, 64
6, 150840, Note_on_c, 3, 63, 45
6, 150960, Note_off_c, 3, 63, 64
6, 150960, Note_on_c, 3, 62, 45
6, 151080, Note_off_c, 3, 62, 64
6, 151080, Note_on_c, 3, 60, 45
6, 151200, Note_off_c, 3, 60, 64
6, 151200, Note_on_c, 3, 67, 45
6, 152040, Note_off_c, 3, 67, 64
6, 152160, Note_on_c, 3, 63, 45
6, 152640, Note_off_c, 3, 63, 64
6, 152640, Note_on_c, 3, 65, 45
6, 153240, Note_off_c, 3, 65, 64
6, 153240, Note_on_c, 3, 68, 45
6, 153360, Note_off_c, 3, 68, 64
6, 153360, Note_on_c, 3, 67, 45
6, 153480, Note_off_c, 3, 67, 64
6, 153480, Note_on_c, 3, 65, 45
6, 153600, Note_off_c, 3, 65, 64
6, 153600, Note_on_c, 3, 67, 45
6, 153720, Note_off_c, 3, 67, 64
6, 153720, Note_on_c, 3, 70, 45
6, 153840, Note_off_c, 3, 70, 64
6, 153840, Note_on_c, 3, 68, 45
6, 153960, Note_off_c, 3, 68, 64
6, 153960, Note_on_c, 3, 67, 45
6, 154075, Note_off_c, 3, 67, 64
6, 154080, Note_on_c, 3, 68, 45
6, 154675, Note_off_c, 3, 68, 64
6, 154680, Note_on_c, 3, 70, 45
6, 154800, Note_off_c, 3, 70, 64
6, 154800, Note_on_c, 3, 68, 45
6, 154920, Note_off_c, 3, 68, 64
6, 154920, Note_on_c, 3, 67, 45
6, 155040, Note_off_c, 3, 67, 64
6, 155040, Note_on_c, 3, 65, 45
6, 155520, Note_off_c, 3, 65, 64
6, 155520, Note_on_c, 3, 67, 45
6, 156115, Note_off_c, 3, 67, 64
6, 156120, Note_on_c, 3, 67, 45
6, 156240, Note_off_c, 3, 67, 64
6, 156240, Note_on_c, 3, 65, 45
6, 156360, Note_off_c, 3, 65, 64
6, 156360, Note_on_c, 3, 63, 45
6, 156480, Note_off_c, 3, 63, 64
6, 156480, Note_on_c, 3, 62, 45
6, 156600, Note_off_c, 3, 62, 64
6, 156600, Note_on_c, 3, 65, 45
6, 156720, Note_off_c, 3, 65, 64
6, 156720, Note_on_c, 3, 63, 45
6, 156840, Note_off_c, 3, 63, 64
6, 156840, Note_on_c, 3, 62, 45
6, 156955, Note_off_c, 3, 62, 64
6, 156960, Note_on_c, 3, 63, 45
6, 157555, Note_off_c, 3, 63, 64
6, 157560, Note_on_c, 3, 63, 45
6, 157680, Note_off_c, 3, 63, 64
6, 157680, Note_on_c, 3, 62, 45
6, 157800, Note_off_c, 3, 62, 64
6, 157800, Note_on_c, 3, 60, 45
6, 157920, Note_off_c, 3, 60, 64
6, 157920, Note_on_c, 3, 59, 45
6, 158040, Note_off_c, 3, 59, 64
6, 158040, Note_on_c, 3, 62, 45
6, 158160, Note_off_c, 3, 62, 64
6, 158160, Note_on_c, 3, 60, 45
6, 158280, Note_off_c, 3, 60, 64
6, 158280, Note_on_c, 3, 59, 45
6, 158400, Note_off_c, 3, 59, 64
6, 158400, Note_on_c, 3, 60, 45
6, 158995, Note_off_c, 3, 60, 64
6, 159000, Note_on_c, 3, 58, 45
6, 159120, Note_off_c, 3, 58, 64
6, 159120, Note_on_c, 3, 56, 45
6, 159240, Note_off_c, 3, 56, 64
6, 159240, Note_on_c, 3, 55, 45
6, 159360, Note_off_c, 3, 55, 64
6, 159360, Note_on_c, 3, 65, 45
6, 159480, Note_off_c, 3, 65, 64
6, 159480, Note_on_c, 3, 68, 45
6, 159600, Note_off_c, 3, 68, 64
6, 159600, Note_on_c, 3, 67, 45
6, 159720, Note_off_c, 3, 67, 64
6, 159720, Note_on_c, 3, 65, 45
6, 159835, Note_off_c, 3, 65, 64
6, 159840, Note_on_c, 3, 67, 45
6, 160435, Note_off_c, 3, 67, 64
6, 160440, Note_on_c, 3, 67, 45
6, 160560, Note_off_c, 3, 67, 64
6, 160560, Note_on_c, 3, 65, 45
6, 160680, Note_off_c, 3, 65, 64
6, 160680, Note_on_c, 3, 63, 45
6, 160800, Note_off_c, 3, 63, 64
6, 160800, Note_on_c, 3, 62, 45
6, 160920, Note_off_c, 3, 62, 64
6, 160920, Note_on_c, 3, 65, 45
6, 161040, Note_off_c, 3, 65, 64
6, 161040, Note_on_c, 3, 63, 45
6, 161160, Note_off_c, 3, 63, 64
6, 161160, Note_on_c, 3, 62, 45
6, 161280, Note_off_c, 3, 62, 64
6, 161280, Note_on_c, 3, 63, 45
6, 161875, Note_off_c, 3, 63, 64
6, 161880, Note_on_c, 3, 65, 46
6, 162000, Note_off_c, 3, 65, 64
6, 162000, Note_on_c, 3, 63, 48
6, 162120, Note_off_c, 3, 63, 64
6, 162120, Note_on_c, 3, 62, 50
6, 162240, Note_off_c, 3, 62, 64
6, 162240, Note_on_c, 3, 60, 52
6, 162640, Note_off_c, 3, 60, 64
6, 162840, Note_on_c, 3, 67, 60
6, 162960, Note_off_c, 3, 67, 64
6, 162960, Note_on_c, 3, 71, 60
6, 163080, Note_off_c, 3, 71, 64
6, 163080, Note_on_c, 3, 74, 60
6, 163200, Note_off_c, 3, 74, 64
6, 163200, Note_on_c, 3, 79, 60
6, 163600, Note_off_c, 3, 79, 64
6, 163680, Note_on_c, 3, 75, 60
6, 163800, Note_off_c, 3, 75, 64
6, 163800, Note_on_c, 3, 67, 60
6, 163920, Note_off_c, 3, 67, 64
6, 163920, Note_on_c, 3, 72, 60
6, 164040, Note_off_c, 3, 72, 64
6, 164040, Note_on_c, 3, 75, 60
6, 164155, Note_off_c, 3, 75, 64
6, 164280, Note_on_c, 3, 77, 60
6, 164400, Note_off_c, 3, 77, 64
6, 164400, Note_on_c, 3, 68, 60
6, 164520, Note_off_c, 3, 68, 64
6, 164520, Note_on_c, 3, 72, 60
6, 164640, Note_off_c, 3, 72, 64
6, 164640, Note_on_c, 3, 77, 60
6, 165040, Note_off_c, 3, 77, 64
6, 165120, Note_on_c, 3, 67, 60
6, 165240, Note_off_c, 3, 67, 64
6, 165240, Note_on_c, 3, 71, 60
6, 165360, Note_off_c, 3, 71, 64
6, 165360, Note_on_c, 3, 75, 60
6, 165480, Note_off_c, 3, 75, 64
6, 165480, Note_on_c, 3, 79, 60
6, 165595, Note_off_c, 3, 79, 64
6, 165720, Note_on_c, 3, 68, 60
6, 165840, Note_off_c, 3, 68, 64
6, 165840, Note_on_c, 3, 72, 60
6, 165960, Note_off_c, 3, 72, 64
6, 165960, Note_on_c, 3, 75, 60
6, 166080, Note_off_c, 3, 75, 64
6, 166080, Note_on_c, 3, 80, 60
6, 166480, Note_off_c, 3, 80, 64
6, 166560, Note_on_c, 3, 77, 60
6, 166680, Note_off_c, 3, 77, 64
6, 166680, Note_on_c, 3, 68, 60
6, 166800, Note_off_c, 3, 68, 64
6, 166800, Note_on_c, 3, 72, 60
6, 166920, Note_off_c, 3, 72, 64
6, 166920, Note_on_c, 3, 75, 60
6, 167035, Note_off_c, 3, 75, 64
6, 167160, Note_on_c, 3, 67, 60
6, 167280, Note_off_c, 3, 67, 64
6, 167280, Note_on_c, 3, 71, 60
6, 167400, Note_off_c, 3, 71, 64
6, 167400, Note_on_c, 3, 74, 60
6, 167520, Note_off_c, 3, 74, 64
6, 167520, Note_on_c, 3, 79, 60
6, 167920, Note_off_c, 3, 79, 64
6, 168000, Note_on_c, 3, 74, 60
6, 168120, Note_off_c, 3, 74, 64
6, 168120, Note_on_c, 3, 77, 60
6, 168240, Note_off_c, 3, 77, 64
6, 168240, Note_on_c, 3, 71, 60
6, 168360, Note_off_c, 3, 71, 64
6, 168360, Note_on_c, 3, 74, 60
6, 168475, Note_off_c, 3, 74, 64
6, 168600, Note_on_c, 3, 75, 60
6, 168720, Note_off_c, 3, 75, 64
6, 168720, Note_on_c, 3, 79, 60
6, 168840, Note_off_c, 3, 79, 64
6, 168840, Note_on_c, 3, 70, 60
6, 168960, Note_off_c, 3, 70, 64
6, 168960, Note_on_c, 3, 75, 60
6, 169360, Note_off_c, 3, 75, 64
6, 169440, Note_on_c, 3, 71, 60
6, 169560, Note_off_c, 3, 71, 64
6, 169560, Note_on_c, 3, 74, 60
6, 169680, Note_off_c, 3, 74, 64
6, 169680, Note_on_c, 3, 67, 60
6, 169800, Note_off_c, 3, 67, 64
6, 169800, Note_on_c, 3, 71, 60
6, 169915, Note_off_c, 3, 71, 64
6, 170040, Note_on_c, 3, 72, 60
6, 170160, Note_off_c, 3, 72, 64
6, 170160, Note_on_c, 3, 75, 60
6, 170280, Note_off_c, 3, 75, 64
6, 170280, Note_on_c, 3, 67, 60
6, 170400, Note_off_c, 3, 67, 64
6, 170400, Note_on_c, 3, 72, 60
6, 170800, Note_off_c, 3, 72, 64
6, 170880, Note_on_c, 3, 77, 60
6, 171000, Note_off_c, 3, 77, 64
6, 171000, Note_on_c, 3, 72, 60
6, 171120, Note_off_c, 3, 72, 64
6, 171120, Note_on_c, 3, 74, 60
6, 171240, Note_off_c, 3, 74, 64
6, 171240, Note_on_c, 3, 77, 60
6, 171355, Note_off_c, 3, 77, 64
6, 171480, Note_on_c, 3, 67, 60
6, 171600, Note_off_c, 3, 67, 64
6, 171600, Note_on_c, 3, 72, 60
6, 171720, Note_off_c, 3, 72, 64
6, 171720, Note_on_c, 3, 75, 60
6, 171840, Note_off_c, 3, 75, 64
6, 171840, Note_on_c, 3, 79, 60
6, 172240, Note_off_c, 3, 79, 64
6, 172320, Note_on_c, 3, 67, 60
6, 172440, Note_off_c, 3, 67, 64
6, 172440, Note_on_c, 3, 71, 60
6, 172560, Note_off_c, 3, 71, 64
6, 172560, Note_on_c, 3, 74, 60
6, 172680, Note_off_c, 3, 74, 64
6, 172680, Note_on_c, 3, 79, 60
6, 172800, Note_off_c, 3, 79, 64
6, 172800, Note_on_c, 3, 84, 60
6, 172920, Note_off_c, 3, 84, 64
6, 172920, Note_on_c, 3, 72, 60
6, 173040, Note_off_c, 3, 72, 64
6, 173040, Note_on_c, 3, 75, 60
6, 173160, Note_off_c, 3, 75, 64
6, 173160, Note_on_c, 3, 79, 60
6, 173275, Note_off_c, 3, 79, 64
6, 173280, Note_on_c, 3, 72, 60
6, 173400, Note_off_c, 3, 72, 64
6, 173400, Note_on_c, 3, 63, 60
6, 173520, Note_off_c, 3, 63, 64
6, 173520, Note_on_c, 3, 67, 60
6, 173640, Note_off_c, 3, 67, 64
6, 173640, Note_on_c, 3, 72, 60
6, 173755, Note_off_c, 3, 72, 64
6, 173760, Note_on_c, 3, 67, 75
6, 174160, Note_off_c, 3, 67, 64
6, 174240, Note_on_c, 3, 67, 75
6, 175080, Note_off_c, 3, 67, 64
6, 175200, Note_on_c, 3, 67, 75
6, 175600, Note_off_c, 3, 67, 64
6, 175680, Note_on_c, 3, 68, 75
6, 176520, Note_off_c, 3, 68, 64
6, 176640, Note_on_c, 3, 67, 75
6, 177040, Note_off_c, 3, 67, 64
6, 177120, Note_on_c, 3, 68, 75
6, 177960, Note_off_c, 3, 68, 64
6, 178080, Note_on_c, 3, 68, 75
6, 178480, Note_off_c, 3, 68, 64
6, 178560, Note_on_c, 3, 67, 75
6, 179400, Note_off_c, 3, 67, 64
6, 179520, Note_on_c, 3, 65, 75
6, 179920, Note_off_c, 3, 65, 64
6, 180000, Note_on_c, 3, 67, 75
6, 180840, Note_off_c, 3, 67, 64
6, 180960, Note_on_c, 3, 67, 75
6, 181360, Note_off_c, 3, 67, 64
6, 181440, Note_on_c, 3, 67, 75
6, 182280, Note_off_c, 3, 67, 64
6, 182400, Note_on_c, 3, 68, 75
6, 182800, Note_off_c, 3, 68, 64
6, 182880, Note_on_c, 3, 72, 75
6, 183840, Note_off_c, 3, 72, 64
6, 183840, Note_on_c, 3, 71, 81
6, 184240, Note_off_c, 3, 71, 64
6, 184320, Note_on_c, 3, 67, 84
6, 185160, Note_off_c, 3, 67, 64
6, 185520, Note_on_c, 3, 75, 127
6, 185755, Note_off_c, 3, 75, 64
6, 185880, Note_on_c, 3, 72, 92
6, 186000, Note_off_c, 3, 72, 64
6, 186000, Note_on_c, 3, 74, 92
6, 186240, Note_off_c, 3, 74, 64
6, 186240, Note_on_c, 3, 71, 92
6, 186600, Note_off_c, 3, 71, 64
6, 186600, Note_on_c, 3, 62, 92
6, 186720, Note_off_c, 3, 62, 64
6, 186720, Note_on_c, 3, 63, 92
6, 186955, Note_off_c, 3, 63, 64
6, 186960, Note_on_c, 3, 75, 127
6, 187195, Note_off_c, 3, 75, 64
6, 187320, Note_on_c, 3, 70, 92
6, 187440, Note_off_c, 3, 70, 64
6, 187440, Note_on_c, 3, 72, 92
6, 187680, Note_off_c, 3, 72, 64
6, 187680, Note_on_c, 3, 68, 92
6, 188040, Note_off_c, 3, 68, 64
6, 188040, Note_on_c, 3, 60, 92
6, 188160, Note_off_c, 3, 60, 64
6, 188160, Note_on_c, 3, 63, 92
6, 188395, Note_off_c, 3, 63, 64
6, 188400, Note_on_c, 3, 74, 127
6, 188635, Note_off_c, 3, 74, 64
6, 188760, Note_on_c, 3, 74, 92
6, 188880, Note_off_c, 3, 74, 64
6, 188880, Note_on_c, 3, 75, 92
6, 189120, Note_off_c, 3, 75, 64
6, 189120, Note_on_c, 3, 72, 92
6, 189480, Note_off_c, 3, 72, 64
6, 189480, Note_on_c, 3, 63, 92
6, 189600, Note_off_c, 3, 63, 64
6, 189600, Note_on_c, 3, 65, 92
6, 189835, Note_off_c, 3, 65, 64
6, 189840, Note_on_c, 3, 77, 127
6, 190075, Note_off_c, 3, 77, 64
6, 190200, Note_on_c, 3, 72, 92
6, 190320, Note_off_c, 3, 72, 64
6, 190320, Note_on_c, 3, 74, 92
6, 190560, Note_off_c, 3, 74, 64
6, 190560, Note_on_c, 3, 71, 92
6, 190920, Note_off_c, 3, 71, 64
6, 190920, Note_on_c, 3, 62, 92
6, 191040, Note_off_c, 3, 62, 64
6, 191040, Note_on_c, 3, 71, 92
6, 191275, Note_off_c, 3, 71, 64
6, 191280, Note_on_c, 3, 74, 127
6, 191515, Note_off_c, 3, 74, 64
6, 191640, Note_on_c, 3, 78, 92
6, 191760, Note_off_c, 3, 78, 64
6, 191760, Note_on_c, 3, 79, 92
6, 192000, Note_off_c, 3, 79, 64
6, 192000, Note_on_c, 3, 75, 92
6, 192360, Note_off_c, 3, 75, 64
6, 192360, Note_on_c, 3, 66, 92
6, 192480, Note_off_c, 3, 66, 64
6, 192480, Note_on_c, 3, 67, 92
6, 192715, Note_off_c, 3, 67, 64
6, 192720, Note_on_c, 3, 74, 127
6, 192955, Note_off_c, 3, 74, 64
6, 193080, Note_on_c, 3, 77, 92
6, 193200, Note_off_c, 3, 77, 64
6, 193200, Note_on_c, 3, 79, 92
6, 193440, Note_off_c, 3, 79, 64
6, 193440, Note_on_c, 3, 75, 92
6, 193800, Note_off_c, 3, 75, 64
6, 193800, Note_on_c, 3, 67, 92
6, 193920, Note_off_c, 3, 67, 64
6, 193920, Note_on_c, 3, 68, 92
6, 194155, Note_off_c, 3, 68, 64
6, 194160, Note_on_c, 3, 77, 127
6, 194395, Note_off_c, 3, 77, 64
6, 194520, Note_on_c, 3, 77, 92
6, 194640, Note_off_c, 3, 77, 64
6, 194640, Note_on_c, 3, 79, 92
6, 194880, Note_off_c, 3, 79, 64
6, 194880, Note_on_c, 3, 75, 92
6, 195240, Note_off_c, 3, 75, 64
6, 195240, Note_on_c, 3, 66, 92
6, 195360, Note_off_c, 3, 66, 64
6, 195360, Note_on_c, 3, 67, 92
6, 195595, Note_off_c, 3, 67, 64
6, 195600, Note_on_c, 3, 74, 127
6, 195835, Note_off_c, 3, 74, 64
6, 195960, Note_on_c, 3, 77, 92
6, 196080, Note_off_c, 3, 77, 64
6, 196080, Note_on_c, 3, 79, 92
6, 196320, Note_off_c, 3, 79, 64
6, 196320, Note_on_c, 3, 75, 92
6, 196680, Note_off_c, 3, 75, 64
6, 196680, Note_on_c, 3, 66, 92
6, 196800, Note_off_c, 3, 66, 64
6, 196800, Note_on_c, 3, 67, 92
6, 197155, Note_off_c, 3, 67, 64
6, 197160, Note_on_c, 3, 66, 92
6, 197220, Note_off_c, 3, 66, 64
6, 197220, Note_on_c, 3, 63, 92
6, 197275, Note_off_c, 3, 63, 64
6, 197280, Note_on_c, 3, 63, 92
6, 197400, Note_off_c, 3, 63, 64
6, 197400, Note_on_c, 3, 62, 92
6, 197460, Note_off_c, 3, 62, 64
6, 197460, Note_on_c, 3, 60, 92
6, 197515, Note_off_c, 3, 60, 64
6, 197520, Note_on_c, 3, 60, 92
6, 197640, Note_off_c, 3, 60, 64
6, 197640, Note_on_c, 3, 59, 92
6, 197700, Note_off_c, 3, 59, 64
6, 197700, Note_on_c, 3, 57, 92
6, 197755, Note_off_c, 3, 57, 64
6, 197760, Note_on_c, 3, 55, 92
6, 197880, Note_off_c, 3, 55, 64
6, 197880, Note_on_c, 3, 57, 92
6, 197940, Note_off_c, 3, 57, 64
6, 197940, Note_on_c, 3, 59, 92
6, 197995, Note_off_c, 3, 59, 64
6, 198000, Note_on_c, 3, 59, 92
6, 198120, Note_off_c, 3, 59, 64
6, 198120, Note_on_c, 3, 60, 92
6, 198180, Note_off_c, 3, 60, 64
6, 198180, Note_on_c, 3, 62, 92
6, 198235, Note_off_c, 3, 62, 64
6, 198240, Note_on_c, 3, 60, 92
6, 198360, Note_off_c, 3, 60, 64
6, 198360, Note_on_c, 3, 62, 92
6, 198420, Note_off_c, 3, 62, 64
6, 198420, Note_on_c, 3, 63, 92
6, 198475, Note_off_c, 3, 63, 64
6, 198480, Note_on_c, 3, 63, 92
6, 198600, Note_off_c, 3, 63, 64
6, 198600, Note_on_c, 3, 65, 92
6, 198660, Note_off_c, 3, 65, 64
6, 198660, Note_on_c, 3, 67, 92
6, 198715, Note_off_c, 3, 67, 64
6, 198720, Note_on_c, 3, 65, 92
6, 198840, Note_off_c, 3, 65, 64
6, 198840, Note_on_c, 3, 67, 92
6, 198900, Note_off_c, 3, 67, 64
6, 198900, Note_on_c, 3, 68, 92
6, 198955, Note_off_c, 3, 68, 64
6, 198960, Note_on_c, 3, 68, 92
6, 199080, Note_off_c, 3, 68, 64
6, 199080, Note_on_c, 3, 67, 92
6, 199140, Note_off_c, 3, 67, 64
6, 199140, Note_on_c, 3, 65, 92
6, 199195, Note_off_c, 3, 65, 64
6, 199200, Note_on_c, 3, 65, 92
6, 199320, Note_off_c, 3, 65, 64
6, 199320, Note_on_c, 3, 63, 92
6, 199380, Note_off_c, 3, 63, 64
6, 199380, Note_on_c, 3, 62, 92
6, 199435, Note_off_c, 3, 62, 64
6, 199440, Note_on_c, 3, 62, 92
6, 199560, Note_off_c, 3, 62, 64
6, 199560, Note_on_c, 3, 63, 92
6, 199620, Note_off_c, 3, 63, 64
6, 199620, Note_on_c, 3, 65, 92
6, 199675, Note_off_c, 3, 65, 64
6, 199680, Note_on_c, 3, 65, 92
6, 199800, Note_off_c, 3, 65, 64
6, 199800, Note_on_c, 3, 67, 92
6, 199860, Note_off_c, 3, 67, 64
6, 199860, Note_on_c, 3, 68, 92
6, 199915, Note_off_c, 3, 68, 64
6, 199920, Note_on_c, 3, 67, 92
6, 200100, Note_off_c, 3, 67, 64
6, 200100, Note_on_c, 3, 65, 92
6, 200160, Note_off_c, 3, 65, 64
6, 200160, Note_on_c, 3, 71, 92
6, 200190, Note_off_c, 3, 71, 64
6, 200190, Note_on_c, 3, 72, 92
6, 200220, Note_off_c, 3, 72, 64
6, 200220, Note_on_c, 3, 71, 92
6, 200250, Note_off_c, 3, 71, 64
6, 200250, Note_on_c, 3, 72, 92
6, 200280, Note_off_c, 3, 72, 64
6, 200280, Note_on_c, 3, 71, 92
6, 200310, Note_off_c, 3, 71, 64
6, 200310, Note_on_c, 3, 72, 92
6, 200340, Note_off_c, 3, 72, 64
6, 200340, Note_on_c, 3, 71, 92
6, 200370, Note_off_c, 3, 71, 64
6, 200370, Note_on_c, 3, 72, 92
6, 200400, Note_off_c, 3, 72, 64
6, 200400, Note_on_c, 3, 71, 92
6, 200455, Note_off_c, 3, 71, 64
6, 200460, Note_on_c, 3, 72, 92
6, 200520, Note_off_c, 3, 72, 64
6, 200520, Note_on_c, 3, 71, 92
6, 200580, Note_off_c, 3, 71, 64
6, 200580, Note_on_c, 3, 68, 92
6, 200635, Note_off_c, 3, 68, 64
6, 200640, Note_on_c, 3, 68, 92
6, 200700, Note_off_c, 3, 68, 64
6, 200700, Note_on_c, 3, 67, 92
6, 200760, Note_off_c, 3, 67, 64
6, 200760, Note_on_c, 3, 65, 92
6, 200815, Note_off_c, 3, 65, 64
6, 200820, Note_on_c, 3, 65, 92
6, 200880, Note_off_c, 3, 65, 64
6, 200880, Note_on_c, 3, 63, 92
6, 200940, Note_off_c, 3, 63, 64
6, 200940, Note_on_c, 3, 62, 92
6, 200995, Note_off_c, 3, 62, 64
6, 201000, Note_on_c, 3, 62, 92
6, 201060, Note_off_c, 3, 62, 64
6, 201060, Note_on_c, 3, 63, 92
6, 201120, Note_off_c, 3, 63, 64
6, 201120, Note_on_c, 3, 65, 92
6, 201175, Note_off_c, 3, 65, 64
6, 201180, Note_on_c, 3, 65, 92
6, 201240, Note_off_c, 3, 65, 64
6, 201240, Note_on_c, 3, 67, 92
6, 201300, Note_off_c, 3, 67, 64
6, 201300, Note_on_c, 3, 68, 92
6, 201355, Note_off_c, 3, 68, 64
6, 201360, Note_on_c, 3, 68, 92
6, 201480, Note_off_c, 3, 68, 64
6, 201480, Note_on_c, 3, 71, 92
6, 201540, Note_off_c, 3, 71, 64
6, 201540, Note_on_c, 3, 72, 92
6, 201595, Note_off_c, 3, 72, 64
6, 201600, Note_on_c, 3, 67, 92
6, 201715, Note_off_c, 3, 67, 64
6, 201720, Note_on_c, 3, 69, 92
6, 201780, Note_off_c, 3, 69, 64
6, 201780, Note_on_c, 3, 71, 92
6, 201835, Note_off_c, 3, 71, 64
6, 201840, Note_on_c, 3, 71, 92
6, 201960, Note_off_c, 3, 71, 64
6, 201960, Note_on_c, 3, 72, 92
6, 202020, Note_off_c, 3, 72, 64
6, 202020, Note_on_c, 3, 74, 92
6, 202075, Note_off_c, 3, 74, 64
6, 202080, Note_on_c, 3, 74, 92
6, 202200, Note_off_c, 3, 74, 64
6, 202200, Note_on_c, 3, 75, 92
6, 202260, Note_off_c, 3, 75, 64
6, 202260, Note_on_c, 3, 77, 92
6, 202315, Note_off_c, 3, 77, 64
6, 202320, Note_on_c, 3, 77, 92
6, 202440, Note_off_c, 3, 77, 64
6, 202440, Note_on_c, 3, 79, 92
6, 202500, Note_off_c, 3, 79, 64
6, 202500, Note_on_c, 3, 80, 92
6, 202555, Note_off_c, 3, 80, 64
6, 202560, Note_on_c, 3, 80, 92
6, 202680, Note_off_c, 3, 80, 64
6, 202680, Note_on_c, 3, 79, 92
6, 202740, Note_off_c, 3, 79, 64
6, 202740, Note_on_c, 3, 77, 92
6, 202795, Note_off_c, 3, 77, 64
6, 202800, Note_on_c, 3, 77, 92
6, 202920, Note_off_c, 3, 77, 64
6, 202920, Note_on_c, 3, 75, 92
6, 202980, Note_off_c, 3, 75, 64
6, 202980, Note_on_c, 3, 74, 92
6, 203035, Note_off_c, 3, 74, 64
6, 203040, Note_on_c, 3, 79, 92
6, 203440, Note_off_c, 3, 79, 64
6, 204240, Note_on_c, 3, 67, 92
6, 204600, Note_off_c, 3, 67, 64
6, 204600, Note_on_c, 3, 65, 92
6, 204660, Note_off_c, 3, 65, 64
6, 204660, Note_on_c, 3, 63, 92
6, 204715, Note_off_c, 3, 63, 64
6, 204720, Note_on_c, 3, 63, 92
6, 204840, Note_off_c, 3, 63, 64
6, 204840, Note_on_c, 3, 62, 92
6, 204900, Note_off_c, 3, 62, 64
6, 204900, Note_on_c, 3, 60, 92
6, 204955, Note_off_c, 3, 60, 64
6, 204960, Note_on_c, 3, 75, 92
6, 205080, Note_off_c, 3, 75, 64
6, 205080, Note_on_c, 3, 74, 92
6, 205140, Note_off_c, 3, 74, 64
6, 205140, Note_on_c, 3, 72, 92
6, 205195, Note_off_c, 3, 72, 64
6, 205200, Note_on_c, 3, 72, 92
6, 205320, Note_off_c, 3, 72, 64
6, 205320, Note_on_c, 3, 71, 92
6, 205380, Note_off_c, 3, 71, 64
6, 205380, Note_on_c, 3, 68, 92
6, 205435, Note_off_c, 3, 68, 64
6, 205440, Note_on_c, 3, 68, 92
6, 205560, Note_off_c, 3, 68, 64
6, 205560, Note_on_c, 3, 67, 92
6, 205620, Note_off_c, 3, 67, 64
6, 205620, Note_on_c, 3, 65, 92
6, 205675, Note_off_c, 3, 65, 64
6, 205680, Note_on_c, 3, 65, 92
6, 205800, Note_off_c, 3, 65, 64
6, 205800, Note_on_c, 3, 63, 92
6, 205860, Note_off_c, 3, 63, 64
6, 205860, Note_on_c, 3, 62, 92
6, 205915, Note_off_c, 3, 62, 64
6, 205920, Note_on_c, 3, 62, 92
6, 206040, Note_off_c, 3, 62, 64
6, 206040, Note_on_c, 3, 60, 92
6, 206100, Note_off_c, 3, 60, 64
6, 206100, Note_on_c, 3, 59, 92
6, 206155, Note_off_c, 3, 59, 64
6, 206160, Note_on_c, 3, 59, 92
6, 206280, Note_off_c, 3, 59, 64
6, 206280, Note_on_c, 3, 60, 92
6, 206340, Note_off_c, 3, 60, 64
6, 206340, Note_on_c, 3, 62, 92
6, 206395, Note_off_c, 3, 62, 64
6, 206400, Note_on_c, 3, 62, 92
6, 206520, Note_off_c, 3, 62, 64
6, 206520, Note_on_c, 3, 63, 92
6, 206580, Note_off_c, 3, 63, 64
6, 206580, Note_on_c, 3, 65, 92
6, 206635, Note_off_c, 3, 65, 64
6, 206640, Note_on_c, 3, 65, 92
6, 206760, Note_off_c, 3, 65, 64
6, 206760, Note_on_c, 3, 67, 92
6, 206820, Note_off_c, 3, 67, 64
6, 206820, Note_on_c, 3, 68, 92
6, 206875, Note_off_c, 3, 68, 64
6, 206880, Note_on_c, 3, 65, 92
6, 207000, Note_off_c, 3, 65, 64
6, 207000, Note_on_c, 3, 67, 93
6, 207060, Note_off_c, 3, 67, 64
6, 207060, Note_on_c, 3, 68, 93
6, 207120, Note_off_c, 3, 68, 64
6, 207120, Note_on_c, 3, 67, 93
6, 207240, Note_off_c, 3, 67, 64
6, 207240, Note_on_c, 3, 68, 94
6, 207300, Note_off_c, 3, 68, 64
6, 207300, Note_on_c, 3, 65, 94
6, 207360, Note_off_c, 3, 65, 64
6, 207360, Note_on_c, 3, 63, 94
6, 207475, Note_off_c, 3, 63, 64
6, 207480, Note_on_c, 3, 65, 95
6, 207540, Note_off_c, 3, 65, 64
6, 207540, Note_on_c, 3, 62, 95
6, 207600, Note_off_c, 3, 62, 64
6, 207600, Note_on_c, 3, 60, 96
6, 207835, Note_off_c, 3, 60, 64
6, 207840, Note_on_c, 3, 65, 100
6, 207960, Note_off_c, 3, 65, 64
6, 207960, Note_on_c, 3, 63, 102
6, 208020, Note_off_c, 3, 63, 64
6, 208020, Note_on_c, 3, 62, 103
6, 208075, Note_off_c, 3, 62, 64
6, 208080, Note_on_c, 3, 62, 104
6, 208200, Note_off_c, 3, 62, 64
6, 208200, Note_on_c, 3, 60, 106
6, 208260, Note_off_c, 3, 60, 64
6, 208260, Note_on_c, 3, 59, 107
6, 208315, Note_off_c, 3, 59, 64
6, 208320, Note_on_c, 3, 63, 108
6, 209035, Note_off_c, 3, 63, 64
6, 209040, Note_on_c, 3, 62, 108
6, 209160, Note_off_c, 3, 62, 64
6, 209160, Note_on_c, 3, 60, 108
6, 209280, Note_off_c, 3, 60, 64
6, 209280, Note_on_c, 3, 62, 108
6, 209515, Note_off_c, 3, 62, 64
6, 209520, Note_on_c, 3, 63, 108
6, 209640, Note_off_c, 3, 63, 64
6, 209640, Note_on_c, 3, 65, 108
6, 209760, Note_off_c, 3, 65, 64
6, 209760, Note_on_c, 3, 67, 108
6, 210475, Note_off_c, 3, 67, 64
6, 210480, Note_on_c, 3, 65, 108
6, 210600, Note_off_c, 3, 65, 64
6, 210600, Note_on_c, 3, 63, 108
6, 210720, Note_off_c, 3, 63, 64
6, 210720, Note_on_c, 3, 65, 108
6, 210955, Note_off_c, 3, 65, 64
6, 210960, Note_on_c, 3, 67, 108
6, 211080, Note_off_c, 3, 67, 64
6, 211080, Note_on_c, 3, 68, 108
6, 211195, Note_off_c, 3, 68, 64
6, 211440, Note_on_c, 3, 67, 108
6, 211680, Note_off_c, 3, 67, 64
6, 211680, Note_on_c, 3, 65, 108
6, 211915, Note_off_c, 3, 65, 64
6, 211920, Note_on_c, 3, 63, 108
6, 212040, Note_off_c, 3, 63, 64
6, 212040, Note_on_c, 3, 62, 108
6, 212160, Note_off_c, 3, 62, 64
6, 212160, Note_on_c, 3, 63, 108
6, 212395, Note_off_c, 3, 63, 64
6, 212400, Note_on_c, 3, 65, 108
6, 212520, Note_off_c, 3, 65, 64
6, 212520, Note_on_c, 3, 67, 108
6, 212640, Note_off_c, 3, 67, 64
6, 212640, Note_on_c, 3, 68, 108
6, 213040, Note_off_c, 3, 68, 64
6, 213120, Note_on_c, 3, 67, 108
6, 213960, Note_off_c, 3, 67, 64
6, 214320, Note_on_c, 3, 65, 108
6, 214555, Note_off_c, 3, 65, 64
6, 214560, Note_on_c, 3, 67, 108
6, 215280, Note_off_c, 3, 67, 64
6, 215280, Note_on_c, 3, 65, 108
6, 215400, Note_off_c, 3, 65, 64
6, 215400, Note_on_c, 3, 67, 108
6, 215515, Note_off_c, 3, 67, 64
6, 215520, Note_on_c, 3, 68, 108
6, 216235, Note_off_c, 3, 68, 64
6, 216240, Note_on_c, 3, 67, 108
6, 216360, Note_off_c, 3, 67, 64
6, 216360, Note_on_c, 3, 65, 108
6, 216480, Note_off_c, 3, 65, 64
6, 216480, Note_on_c, 3, 67, 108
6, 216715, Note_off_c, 3, 67, 64
6, 216720, Note_on_c, 3, 68, 108
6, 216840, Note_off_c, 3, 68, 64
6, 216840, Note_on_c, 3, 70, 108
6, 216960, Note_off_c, 3, 70, 64
6, 216960, Note_on_c, 3, 72, 108
6, 217200, Note_off_c, 3, 72, 64
6, 217200, Note_on_c, 3, 74, 108
6, 217440, Note_off_c, 3, 74, 64
6, 217440, Note_on_c, 3, 71, 108
6, 217840, Note_off_c, 3, 71, 64
6, 217920, Note_on_c, 3, 72, 108
6, 218635, Note_off_c, 3, 72, 64
6, 218640, Note_on_c, 3, 71, 108
6, 218880, Note_off_c, 3, 71, 64
6, 218880, Note_on_c, 3, 72, 108
6, 219115, Note_off_c, 3, 72, 64
6, 219120, Note_on_c, 3, 79, 108
6, 219595, Note_off_c, 3, 79, 64
6, 219600, Note_on_c, 3, 79, 108
6, 219720, Note_off_c, 3, 79, 64
6, 219720, Note_on_c, 3, 77, 108
6, 219840, Note_off_c, 3, 77, 64
6, 219840, Note_on_c, 3, 75, 108
6, 220075, Note_off_c, 3, 75, 64
6, 220080, Note_on_c, 3, 79, 108
6, 220320, Note_off_c, 3, 79, 64
6, 220320, Note_on_c, 3, 75, 108
6, 220440, Note_off_c, 3, 75, 64
6, 220440, Note_on_c, 3, 77, 108
6, 220560, Note_off_c, 3, 77, 64
6, 220560, Note_on_c, 3, 75, 108
6, 220680, Note_off_c, 3, 75, 64
6, 220680, Note_on_c, 3, 74, 108
6, 220800, Note_off_c, 3, 74, 64
6, 220800, Note_on_c, 3, 75, 108
6, 221395, Note_off_c, 3, 75, 64
6, 221400, Note_on_c, 3, 77, 108
6, 221520, Note_off_c, 3, 77, 64
6, 221520, Note_on_c, 3, 75, 108
6, 221640, Note_off_c, 3, 75, 64
6, 221640, Note_on_c, 3, 74, 108
6, 221760, Note_off_c, 3, 74, 64
6, 221760, Note_on_c, 3, 75, 108
6, 222355, Note_off_c, 3, 75, 64
6, 222360, Note_on_c, 3, 77, 108
6, 222480, Note_off_c, 3, 77, 64
6, 222480, Note_on_c, 3, 75, 108
6, 222600, Note_off_c, 3, 75, 64
6, 222600, Note_on_c, 3, 74, 108
6, 222720, Note_off_c, 3, 74, 64
6, 222720, Note_on_c, 3, 75, 108
6, 223315, Note_off_c, 3, 75, 64
6, 223320, Note_on_c, 3, 77, 108
6, 223440, Note_off_c, 3, 77, 64
6, 223440, Note_on_c, 3, 75, 108
6, 223560, Note_off_c, 3, 75, 64
6, 223560, Note_on_c, 3, 74, 108
6, 223680, Note_off_c, 3, 74, 64
6, 223680, Note_on_c, 3, 75, 108
6, 224275, Note_off_c, 3, 75, 64
6, 224280, Note_on_c, 3, 77, 108
6, 224400, Note_off_c, 3, 77, 64
6, 224400, Note_on_c, 3, 75, 108
6, 224520, Note_off_c, 3, 75, 64
6, 224520, Note_on_c, 3, 74, 108
6, 224640, Note_off_c, 3, 74, 64
6, 224640, Note_on_c, 3, 75, 108
6, 225355, Note_off_c, 3, 75, 64
6, 225360, Note_on_c, 3, 71, 108
6, 225480, Note_off_c, 3, 71, 64
6, 225480, Note_on_c, 3, 69, 108
6, 225600, Note_off_c, 3, 69, 64
6, 225600, Note_on_c, 3, 67, 108
6, 225715, Note_off_c, 3, 67, 64
6, 225720, Note_on_c, 3, 69, 108
6, 225840, Note_off_c, 3, 69, 64
6, 225840, Note_on_c, 3, 67, 108
6, 225960, Note_off_c, 3, 67, 64
6, 225960, Note_on_c, 3, 65, 108
6, 226080, Note_off_c, 3, 65, 64
6, 226080, Note_on_c, 3, 67, 108
6, 226675, Note_off_c, 3, 67, 64
6, 226680, Note_on_c, 3, 68, 108
6, 226800, Note_off_c, 3, 68, 64
6, 226800, Note_on_c, 3, 67, 108
6, 226920, Note_off_c, 3, 67, 64
6, 226920, Note_on_c, 3, 65, 108
6, 227040, Note_off_c, 3, 65, 64
6, 227040, Note_on_c, 3, 67, 108
6, 227635, Note_off_c, 3, 67, 64
6, 227640, Note_on_c, 3, 68, 108
6, 227760, Note_off_c, 3, 68, 64
6, 227760, Note_on_c, 3, 67, 108
6, 227880, Note_off_c, 3, 67, 64
6, 227880, Note_on_c, 3, 65, 108
6, 228000, Note_off_c, 3, 65, 64
6, 228000, Note_on_c, 3, 67, 108
6, 228595, Note_off_c, 3, 67, 64
6, 228600, Note_on_c, 3, 68, 108
6, 228720, Note_off_c, 3, 68, 64
6, 228720, Note_on_c, 3, 67, 108
6, 228840, Note_off_c, 3, 67, 64
6, 228840, Note_on_c, 3, 65, 108
6, 229075, Note_off_c, 3, 65, 64
6, 229080, Note_on_c, 3, 68, 108
6, 229200, Note_off_c, 3, 68, 64
6, 229200, Note_on_c, 3, 67, 108
6, 229320, Note_off_c, 3, 67, 64
6, 229320, Note_on_c, 3, 65, 108
6, 229440, Note_off_c, 3, 65, 64
6, 229440, Note_on_c, 3, 63, 108
6, 229840, Note_off_c, 3, 63, 64
6, 229920, Note_on_c, 3, 65, 108
6, 230515, Note_off_c, 3, 65, 64
6, 230520, Note_on_c, 3, 68, 108
6, 230640, Note_off_c, 3, 68, 64
6, 230640, Note_on_c, 3, 67, 108
6, 230760, Note_off_c, 3, 67, 64
6, 230760, Note_on_c, 3, 65, 108
6, 230880, Note_off_c, 3, 65, 64
6, 230880, Note_on_c, 3, 63, 108
6, 231000, Note_off_c, 3, 63, 64
6, 231000, Note_on_c, 3, 65, 108
6, 231120, Note_off_c, 3, 65, 64
6, 231120, Note_on_c, 3, 63, 108
6, 231240, Note_off_c, 3, 63, 64
6, 231240, Note_on_c, 3, 62, 108
6, 231355, Note_off_c, 3, 62, 64
6, 231360, Note_on_c, 3, 60, 108
6, 231760, Note_off_c, 3, 60, 64
6, 232320, Note_on_c, 3, 75, 108
6, 232440, Note_off_c, 3, 75, 64
6, 232440, Note_on_c, 3, 77, 108
6, 232560, Note_off_c, 3, 77, 64
6, 232560, Note_on_c, 3, 75, 108
6, 232680, Note_off_c, 3, 75, 64
6, 232680, Note_on_c, 3, 74, 108
6, 232800, Note_off_c, 3, 74, 64
6, 232800, Note_on_c, 3, 75, 108
6, 233395, Note_off_c, 3, 75, 64
6, 233400, Note_on_c, 3, 77, 108
6, 233520, Note_off_c, 3, 77, 64
6, 233520, Note_on_c, 3, 75, 108
6, 233640, Note_off_c, 3, 75, 64
6, 233640, Note_on_c, 3, 74, 108
6, 233760, Note_off_c, 3, 74, 64
6, 233760, Note_on_c, 3, 75, 108
6, 234355, Note_off_c, 3, 75, 64
6, 234360, Note_on_c, 3, 77, 108
6, 234480, Note_off_c, 3, 77, 64
6, 234480, Note_on_c, 3, 75, 108
6, 234600, Note_off_c, 3, 75, 64
6, 234600, Note_on_c, 3, 74, 108
6, 234720, Note_off_c, 3, 74, 64
6, 234720, Note_on_c, 3, 72, 108
6, 235075, Note_off_c, 3, 72, 64
6, 235080, Note_on_c, 3, 77, 108
6, 235195, Note_off_c, 3, 77, 64
6, 235200, Note_on_c, 3, 75, 108
6, 235320, Note_off_c, 3, 75, 64
6, 235320, Note_on_c, 3, 77, 108
6, 235440, Note_off_c, 3, 77, 64
6, 235440, Note_on_c, 3, 75, 108
6, 235560, Note_off_c, 3, 75, 64
6, 235560, Note_on_c, 3, 74, 108
6, 235680, Note_off_c, 3, 74, 64
6, 235680, Note_on_c, 3, 75, 108
6, 236275, Note_off_c, 3, 75, 64
6, 236280, Note_on_c, 3, 77, 108
6, 236400, Note_off_c, 3, 77, 64
6, 236400, Note_on_c, 3, 75, 108
6, 236520, Note_off_c, 3, 75, 64
6, 236520, Note_on_c, 3, 74, 108
6, 236640, Note_off_c, 3, 74, 64
6, 236640, Note_on_c, 3, 75, 108
6, 236875, Note_off_c, 3, 75, 64
6, 236880, Note_on_c, 3, 77, 108
6, 237000, Note_off_c, 3, 77, 64
6, 237000, Note_on_c, 3, 79, 108
6, 237120, Note_off_c, 3, 79, 64
6, 237120, Note_on_c, 3, 80, 108
6, 237355, Note_off_c, 3, 80, 64
6, 237360, Note_on_c, 3, 77, 108
6, 237600, Note_off_c, 3, 77, 64
6, 237600, Note_on_c, 3, 75, 108
6, 237720, Note_off_c, 3, 75, 64
6, 237720, Note_on_c, 3, 77, 108
6, 237840, Note_off_c, 3, 77, 64
6, 237840, Note_on_c, 3, 75, 108
6, 237960, Note_off_c, 3, 75, 64
6, 237960, Note_on_c, 3, 74, 108
6, 238080, Note_off_c, 3, 74, 64
6, 238080, Note_on_c, 3, 75, 108
6, 238480, Note_off_c, 3, 75, 64
6, 238560, Note_on_c, 3, 77, 108
6, 238680, Note_off_c, 3, 77, 64
6, 238680, Note_on_c, 3, 80, 108
6, 238800, Note_off_c, 3, 80, 64
6, 238800, Note_on_c, 3, 79, 108
6, 238920, Note_off_c, 3, 79, 64
6, 238920, Note_on_c, 3, 77, 108
6, 239040, Note_off_c, 3, 77, 64
6, 239040, Note_on_c, 3, 75, 108
6, 239160, Note_off_c, 3, 75, 64
6, 239160, Note_on_c, 3, 77, 108
6, 239280, Note_off_c, 3, 77, 64
6, 239280, Note_on_c, 3, 75, 108
6, 239400, Note_off_c, 3, 75, 64
6, 239400, Note_on_c, 3, 74, 108
6, 239520, Note_off_c, 3, 74, 64
6, 239520, Note_on_c, 3, 72, 108
6, 240115, Note_off_c, 3, 72, 64
6, 240120, Note_on_c, 3, 74, 108
6, 240240, Note_off_c, 3, 74, 64
6, 240240, Note_on_c, 3, 72, 108
6, 240360, Note_off_c, 3, 72, 64
6, 240360, Note_on_c, 3, 71, 108
6, 240480, Note_off_c, 3, 71, 64
6, 240480, Note_on_c, 3, 72, 108
6, 241075, Note_off_c, 3, 72, 64
6, 241080, Note_on_c, 3, 74, 108
6, 241200, Note_off_c, 3, 74, 64
6, 241200, Note_on_c, 3, 72, 108
6, 241320, Note_off_c, 3, 72, 64
6, 241320, Note_on_c, 3, 71, 108
6, 241440, Note_off_c, 3, 71, 64
6, 241440, Note_on_c, 3, 72, 75
6, 241560, Note_off_c, 3, 72, 64
6, 241560, Note_on_c, 3, 74, 75
6, 241680, Note_off_c, 3, 74, 64
6, 241680, Note_on_c, 3, 72, 75
6, 241800, Note_off_c, 3, 72, 64
6, 241800, Note_on_c, 3, 71, 75
6, 241920, Note_off_c, 3, 71, 64
6, 241920, Note_on_c, 3, 72, 60
6, 242515, Note_off_c, 3, 72, 64
6, 242520, Note_on_c, 3, 68, 60
6, 242640, Note_off_c, 3, 68, 64
6, 242640, Note_on_c, 3, 67, 60
6, 242760, Note_off_c, 3, 67, 64
6, 242760, Note_on_c, 3, 65, 60
6, 242880, Note_off_c, 3, 65, 64
6, 242880, Note_on_c, 3, 63, 60
6, 243280, Note_off_c, 3, 63, 64
6, 243360, Note_on_c, 3, 67, 60
6, 244200, Note_off_c, 3, 67, 64
6, 244320, Note_on_c, 3, 63, 60
6, 244720, Note_off_c, 3, 63, 64
6, 244800, Note_on_c, 3, 65, 60
6, 245640, Note_off_c, 3, 65, 64
6, 245760, Note_on_c, 3, 67, 60
6, 246160, Note_off_c, 3, 67, 64
6, 246240, Note_on_c, 3, 68, 60
6, 247080, Note_off_c, 3, 68, 64
6, 247200, Note_on_c, 3, 65, 60
6, 247600, Note_off_c, 3, 65, 64
6, 247680, Note_on_c, 3, 67, 60
6, 248400, Note_off_c, 3, 67, 64
6, 248400, Note_on_c, 3, 65, 60
6, 248640, Note_off_c, 3, 65, 64
6, 248640, Note_on_c, 3, 63, 60
6, 248760, Note_off_c, 3, 63, 64
6, 248760, Note_on_c, 3, 67, 60
6, 248880, Note_off_c, 3, 67, 64
6, 248880, Note_on_c, 3, 65, 60
6, 249000, Note_off_c, 3, 65, 64
6, 249000, Note_on_c, 3, 63, 60
6, 249120, Note_off_c, 3, 63, 64
6, 249120, Note_on_c, 3, 62, 60
6, 249715, Note_off_c, 3, 62, 64
6, 249720, Note_on_c, 3, 62, 60
6, 249840, Note_off_c, 3, 62, 64
6, 249840, Note_on_c, 3, 64, 60
6, 249960, Note_off_c, 3, 64, 64
6, 249960, Note_on_c, 3, 66, 60
6, 250080, Note_off_c, 3, 66, 64
6, 250080, Note_on_c, 3, 67, 60
6, 250480, Note_off_c, 3, 67, 64
6, 250560, Note_on_c, 3, 66, 60
6, 250680, Note_off_c, 3, 66, 64
6, 250680, Note_on_c, 3, 62, 60
6, 250800, Note_off_c, 3, 62, 64
6, 250800, Note_on_c, 3, 67, 60
6, 250920, Note_off_c, 3, 67, 64
6, 250920, Note_on_c, 3, 60, 60
6, 251040, Note_off_c, 3, 60, 64
6, 251040, Note_on_c, 3, 62, 60
6, 251160, Note_off_c, 3, 62, 64
6, 251160, Note_on_c, 3, 62, 60
6, 251280, Note_off_c, 3, 62, 64
6, 251280, Note_on_c, 3, 60, 60
6, 251400, Note_off_c, 3, 60, 64
6, 251400, Note_on_c, 3, 62, 60
6, 251520, Note_off_c, 3, 62, 64
6, 251520, Note_on_c, 3, 55, 60
6, 251640, Note_off_c, 3, 55, 64
6, 251640, Note_on_c, 3, 67, 60
6, 251760, Note_off_c, 3, 67, 64
6, 251760, Note_on_c, 3, 65, 60
6, 251880, Note_off_c, 3, 65, 64
6, 251880, Note_on_c, 3, 67, 60
6, 251995, Note_off_c, 3, 67, 64
6, 252000, Note_on_c, 3, 63, 60
6, 252120, Note_off_c, 3, 63, 64
6, 252120, Note_on_c, 3, 67, 60
6, 252240, Note_off_c, 3, 67, 64
6, 252240, Note_on_c, 3, 63, 60
6, 252360, Note_off_c, 3, 63, 64
6, 252360, Note_on_c, 3, 67, 60
6, 252480, Note_off_c, 3, 67, 64
6, 252480, Note_on_c, 3, 63, 60
6, 252600, Note_off_c, 3, 63, 64
6, 252600, Note_on_c, 3, 65, 60
6, 252720, Note_off_c, 3, 65, 64
6, 252720, Note_on_c, 3, 63, 60
6, 252840, Note_off_c, 3, 63, 64
6, 252840, Note_on_c, 3, 65, 60
6, 252960, Note_off_c, 3, 65, 64
6, 252960, Note_on_c, 3, 62, 60
6, 253080, Note_off_c, 3, 62, 64
6, 253080, Note_on_c, 3, 65, 60
6, 253200, Note_off_c, 3, 65, 64
6, 253200, Note_on_c, 3, 62, 60
6, 253320, Note_off_c, 3, 62, 64
6, 253320, Note_on_c, 3, 65, 60
6, 253435, Note_off_c, 3, 65, 64
6, 253440, Note_on_c, 3, 60, 60
6, 253560, Note_off_c, 3, 60, 64
6, 253560, Note_on_c, 3, 63, 60
6, 253680, Note_off_c, 3, 63, 64
6, 253680, Note_on_c, 3, 62, 60
6, 253800, Note_off_c, 3, 62, 64
6, 253800, Note_on_c, 3, 65, 60
6, 253920, Note_off_c, 3, 65, 64
6, 253920, Note_on_c, 3, 63, 60
6, 254040, Note_off_c, 3, 63, 64
6, 254040, Note_on_c, 3, 65, 60
6, 254160, Note_off_c, 3, 65, 64
6, 254160, Note_on_c, 3, 63, 60
6, 254280, Note_off_c, 3, 63, 64
6, 254280, Note_on_c, 3, 65, 60
6, 254400, Note_off_c, 3, 65, 64
6, 254400, Note_on_c, 3, 63, 60
6, 254520, Note_off_c, 3, 63, 64
6, 254520, Note_on_c, 3, 65, 60
6, 254640, Note_off_c, 3, 65, 64
6, 254640, Note_on_c, 3, 63, 60
6, 254760, Note_off_c, 3, 63, 64
6, 254760, Note_on_c, 3, 65, 60
6, 254875, Note_off_c, 3, 65, 64
6, 254880, Note_on_c, 3, 62, 60
6, 255000, Note_off_c, 3, 62, 64
6, 255000, Note_on_c, 3, 63, 60
6, 255120, Note_off_c, 3, 63, 64
6, 255120, Note_on_c, 3, 62, 60
6, 255240, Note_off_c, 3, 62, 64
6, 255240, Note_on_c, 3, 63, 60
6, 255360, Note_off_c, 3, 63, 64
6, 255360, Note_on_c, 3, 62, 60
6, 255480, Note_off_c, 3, 62, 64
6, 255480, Note_on_c, 3, 63, 60
6, 255600, Note_off_c, 3, 63, 64
6, 255600, Note_on_c, 3, 60, 60
6, 255720, Note_off_c, 3, 60, 64
6, 255720, Note_on_c, 3, 62, 60
6, 255835, Note_off_c, 3, 62, 64
6, 256440, Note_on_c, 3, 72, 60
6, 256560, Note_off_c, 3, 72, 64
6, 256560, Note_on_c, 3, 70, 60
6, 256680, Note_off_c, 3, 70, 64
6, 256680, Note_on_c, 3, 72, 60
6, 256800, Note_off_c, 3, 72, 64
6, 256800, Note_on_c, 3, 68, 60
6, 257200, Note_off_c, 3, 68, 64
6, 257400, Note_on_c, 3, 67, 60
6, 257520, Note_off_c, 3, 67, 64
6, 257520, Note_on_c, 3, 65, 60
6, 257640, Note_off_c, 3, 65, 64
6, 257640, Note_on_c, 3, 67, 60
6, 257760, Note_off_c, 3, 67, 64
6, 257760, Note_on_c, 3, 63, 60
6, 258160, Note_off_c, 3, 63, 64
6, 258240, Note_on_c, 3, 65, 60
6, 258480, Note_off_c, 3, 65, 64
6, 258480, Note_on_c, 3, 60, 60
6, 258720, Note_off_c, 3, 60, 64
6, 258720, Note_on_c, 3, 62, 60
6, 259435, Note_off_c, 3, 62, 64
6, 259440, Note_on_c, 3, 57, 60
6, 259680, Note_off_c, 3, 57, 64
6, 259680, Note_on_c, 3, 59, 60
6, 260080, Note_off_c, 3, 59, 64
6, 260160, Note_on_c, 3, 60, 60
6, 260280, Note_off_c, 3, 60, 64
6, 260280, Note_on_c, 3, 65, 60
6, 260400, Note_off_c, 3, 65, 64
6, 260400, Note_on_c, 3, 63, 60
6, 260520, Note_off_c, 3, 63, 64
6, 260520, Note_on_c, 3, 65, 60
6, 260640, Note_off_c, 3, 65, 64
6, 260640, Note_on_c, 3, 67, 60
6, 261040, Note_off_c, 3, 67, 64
6, 261240, Note_on_c, 3, 67, 60
6, 261360, Note_off_c, 3, 67, 64
6, 261360, Note_on_c, 3, 65, 60
6, 261480, Note_off_c, 3, 65, 64
6, 261480, Note_on_c, 3, 67, 60
6, 261600, Note_off_c, 3, 67, 64
6, 261600, Note_on_c, 3, 60, 60
6, 261720, Note_off_c, 3, 60, 64
6, 261720, Note_on_c, 3, 72, 60
6, 261840, Note_off_c, 3, 72, 64
6, 261840, Note_on_c, 3, 70, 60
6, 261960, Note_off_c, 3, 70, 64
6, 261960, Note_on_c, 3, 72, 60
6, 262080, Note_off_c, 3, 72, 64
6, 262080, Note_on_c, 3, 68, 60
6, 262200, Note_off_c, 3, 68, 64
6, 262200, Note_on_c, 3, 72, 60
6, 262320, Note_off_c, 3, 72, 64
6, 262320, Note_on_c, 3, 68, 60
6, 262440, Note_off_c, 3, 68, 64
6, 262440, Note_on_c, 3, 72, 60
6, 262560, Note_off_c, 3, 72, 64
6, 262560, Note_on_c, 3, 68, 60
6, 262680, Note_off_c, 3, 68, 64
6, 262680, Note_on_c, 3, 70, 60
6, 262800, Note_off_c, 3, 70, 64
6, 262800, Note_on_c, 3, 68, 60
6, 262920, Note_off_c, 3, 68, 64
6, 262920, Note_on_c, 3, 70, 60
6, 263040, Note_off_c, 3, 70, 64
6, 263040, Note_on_c, 3, 67, 60
6, 263160, Note_off_c, 3, 67, 64
6, 263160, Note_on_c, 3, 70, 60
6, 263280, Note_off_c, 3, 70, 64
6, 263280, Note_on_c, 3, 67, 60
6, 263400, Note_off_c, 3, 67, 64
6, 263400, Note_on_c, 3, 70, 60
6, 263515, Note_off_c, 3, 70, 64
6, 263520, Note_on_c, 3, 65, 60
6, 263640, Note_off_c, 3, 65, 64
6, 263640, Note_on_c, 3, 68, 60
6, 263760, Note_off_c, 3, 68, 64
6, 263760, Note_on_c, 3, 67, 60
6, 263880, Note_off_c, 3, 67, 64
6, 263880, Note_on_c, 3, 70, 60
6, 264000, Note_off_c, 3, 70, 64
6, 264000, Note_on_c, 3, 68, 60
6, 264120, Note_off_c, 3, 68, 64
6, 264120, Note_on_c, 3, 70, 60
6, 264240, Note_off_c, 3, 70, 64
6, 264240, Note_on_c, 3, 68, 60
6, 264360, Note_off_c, 3, 68, 64
6, 264360, Note_on_c, 3, 70, 60
6, 264480, Note_off_c, 3, 70, 64
6, 264480, Note_on_c, 3, 68, 60
6, 264600, Note_off_c, 3, 68, 64
6, 264600, Note_on_c, 3, 70, 60
6, 264720, Note_off_c, 3, 70, 64
6, 264720, Note_on_c, 3, 68, 60
6, 264840, Note_off_c, 3, 68, 64
6, 264840, Note_on_c, 3, 70, 60
6, 264960, Note_off_c, 3, 70, 64
6, 264960, Note_on_c, 3, 67, 60
6, 265080, Note_off_c, 3, 67, 64
6, 265080, Note_on_c, 3, 68, 60
6, 265200, Note_off_c, 3, 68, 64
6, 265200, Note_on_c, 3, 67, 60
6, 265320, Note_off_c, 3, 67, 64
6, 265320, Note_on_c, 3, 68, 60
6, 265440, Note_off_c, 3, 68, 64
6, 265440, Note_on_c, 3, 67, 60
6, 265560, Note_off_c, 3, 67, 64
6, 265560, Note_on_c, 3, 68, 60
6, 265680, Note_off_c, 3, 68, 64
6, 265680, Note_on_c, 3, 65, 60
6, 265800, Note_off_c, 3, 65, 64
6, 265800, Note_on_c, 3, 67, 60
6, 265915, Note_off_c, 3, 67, 64
6, 265920, Note_on_c, 3, 63, 60
6, 266040, Note_off_c, 3, 63, 64
6, 266040, Note_on_c, 3, 65, 60
6, 266160, Note_off_c, 3, 65, 64
6, 266160, Note_on_c, 3, 62, 60
6, 266280, Note_off_c, 3, 62, 64
6, 266280, Note_on_c, 3, 63, 60
6, 266400, Note_off_c, 3, 63, 64
6, 266400, Note_on_c, 3, 60, 60
6, 266520, Note_off_c, 3, 60, 64
6, 266520, Note_on_c, 3, 67, 60
6, 266640, Note_off_c, 3, 67, 64
6, 266640, Note_on_c, 3, 65, 60
6, 266760, Note_off_c, 3, 65, 64
6, 266760, Note_on_c, 3, 67, 60
6, 266880, Note_off_c, 3, 67, 64
6, 266880, Note_on_c, 3, 63, 60
6, 267000, Note_off_c, 3, 63, 64
6, 267000, Note_on_c, 3, 65, 60
6, 267120, Note_off_c, 3, 65, 64
6, 267120, Note_on_c, 3, 62, 60
6, 267240, Note_off_c, 3, 62, 64
6, 267240, Note_on_c, 3, 63, 60
6, 267355, Note_off_c, 3, 63, 64
6, 267360, Note_on_c, 3, 60, 60
6, 267480, Note_off_c, 3, 60, 64
6, 267480, Note_on_c, 3, 62, 60
6, 267600, Note_off_c, 3, 62, 64
6, 267600, Note_on_c, 3, 58, 60
6, 267720, Note_off_c, 3, 58, 64
6, 267720, Note_on_c, 3, 60, 60
6, 267835, Note_off_c, 3, 60, 64
6, 267840, Note_on_c, 3, 57, 60
6, 268080, Note_off_c, 3, 57, 64
6, 268080, Note_on_c, 3, 58, 60
6, 268320, Note_off_c, 3, 58, 64
6, 268320, Note_on_c, 3, 60, 60
6, 268560, Note_off_c, 3, 60, 64
6, 268560, Note_on_c, 3, 54, 60
6, 268795, Note_off_c, 3, 54, 64
6, 268800, Note_on_c, 3, 58, 60
6, 269040, Note_off_c, 3, 58, 64
6, 269040, Note_on_c, 3, 67, 60
6, 269275, Note_off_c, 3, 67, 64
6, 269280, Note_on_c, 3, 67, 60
6, 269760, Note_off_c, 3, 67, 64
6, 269760, Note_on_c, 3, 72, 60
6, 270240, Note_off_c, 3, 72, 64
6, 270240, Note_on_c, 3, 67, 60
6, 271200, Note_off_c, 3, 67, 64
6, 271200, Note_on_c, 3, 70, 60
6, 271600, Note_off_c, 3, 70, 64
6, 271680, Note_on_c, 3, 65, 60
6, 272395, Note_off_c, 3, 65, 64
6, 272400, Note_on_c, 3, 67, 60
6, 272640, Note_off_c, 3, 67, 64
6, 272640, Note_on_c, 3, 69, 60
6, 273040, Note_off_c, 3, 69, 64
6, 273120, Note_on_c, 3, 67, 60
6, 273360, Note_off_c, 3, 67, 64
6, 273360, Note_on_c, 3, 66, 60
6, 273595, Note_off_c, 3, 66, 64
6, 273600, Note_on_c, 3, 67, 60
6, 273720, Note_off_c, 3, 67, 64
6, 273720, Note_on_c, 3, 66, 60
6, 273840, Note_off_c, 3, 66, 64
6, 273840, Note_on_c, 3, 64, 60
6, 273960, Note_off_c, 3, 64, 64
6, 273960, Note_on_c, 3, 67, 60
6, 274080, Note_off_c, 3, 67, 64
6, 274080, Note_on_c, 3, 66, 60
6, 274315, Note_off_c, 3, 66, 64
6, 274320, Note_on_c, 3, 67, 60
6, 274795, Note_off_c, 3, 67, 64
6, 274800, Note_on_c, 3, 66, 60
6, 275035, Note_off_c, 3, 66, 64
6, 275040, Note_on_c, 3, 67, 63
6, 275440, Note_off_c, 3, 67, 64
6, 276000, Note_on_c, 3, 60, 75
6, 276400, Note_off_c, 3, 60, 64
6, 276480, Note_on_c, 3, 67, 75
6, 277320, Note_off_c, 3, 67, 64
6, 277440, Note_on_c, 3, 63, 75
6, 277840, Note_off_c, 3, 63, 64
6, 277920, Note_on_c, 3, 65, 75
6, 278760, Note_off_c, 3, 65, 64
6, 278880, Note_on_c, 3, 67, 75
6, 279280, Note_off_c, 3, 67, 64
6, 279360, Note_on_c, 3, 68, 75
6, 280200, Note_off_c, 3, 68, 64
6, 280320, Note_on_c, 3, 65, 75
6, 280720, Note_off_c, 3, 65, 64
6, 280800, Note_on_c, 3, 67, 75
6, 281640, Note_off_c, 3, 67, 64
6, 281760, Note_on_c, 3, 65, 75
6, 282475, Note_off_c, 3, 65, 64
6, 282480, Note_on_c, 3, 63, 75
6, 282600, Note_off_c, 3, 63, 64
6, 282600, Note_on_c, 3, 67, 75
6, 282720, Note_off_c, 3, 67, 64
6, 282720, Note_on_c, 3, 65, 75
6, 282840, Note_off_c, 3, 65, 64
6, 282840, Note_on_c, 3, 68, 75
6, 282960, Note_off_c, 3, 68, 64
6, 282960, Note_on_c, 3, 67, 75
6, 283080, Note_off_c, 3, 67, 64
6, 283080, Note_on_c, 3, 70, 75
6, 283200, Note_off_c, 3, 70, 64
6, 283200, Note_on_c, 3, 68, 75
6, 283320, Note_off_c, 3, 68, 64
6, 283320, Note_on_c, 3, 72, 75
6, 283440, Note_off_c, 3, 72, 64
6, 283440, Note_on_c, 3, 70, 75
6, 283560, Note_off_c, 3, 70, 64
6, 283560, Note_on_c, 3, 68, 75
6, 283680, Note_off_c, 3, 68, 64
6, 283680, Note_on_c, 3, 67, 75
6, 283795, Note_off_c, 3, 67, 64
6, 283800, Note_on_c, 3, 82, 75
6, 283920, Note_off_c, 3, 82, 64
6, 283920, Note_on_c, 3, 80, 75
6, 284040, Note_off_c, 3, 80, 64
6, 284040, Note_on_c, 3, 82, 75
6, 284160, Note_off_c, 3, 82, 64
6, 284160, Note_on_c, 3, 79, 75
6, 284280, Note_off_c, 3, 79, 64
6, 284280, Note_on_c, 3, 80, 75
6, 284400, Note_off_c, 3, 80, 64
6, 284400, Note_on_c, 3, 77, 75
6, 284520, Note_off_c, 3, 77, 64
6, 284520, Note_on_c, 3, 79, 75
6, 284635, Note_off_c, 3, 79, 64
6, 284640, Note_on_c, 3, 75, 75
6, 284760, Note_off_c, 3, 75, 64
6, 284760, Note_on_c, 3, 79, 75
6, 284880, Note_off_c, 3, 79, 64
6, 284880, Note_on_c, 3, 77, 75
6, 285000, Note_off_c, 3, 77, 64
6, 285000, Note_on_c, 3, 75, 75
6, 285120, Note_off_c, 3, 75, 64
6, 285120, Note_on_c, 3, 74, 75
6, 285240, Note_off_c, 3, 74, 64
6, 285240, Note_on_c, 3, 77, 75
6, 285360, Note_off_c, 3, 77, 64
6, 285360, Note_on_c, 3, 75, 75
6, 285480, Note_off_c, 3, 75, 64
6, 285480, Note_on_c, 3, 79, 75
6, 285600, Note_off_c, 3, 79, 64
6, 285600, Note_on_c, 3, 77, 75
6, 285720, Note_off_c, 3, 77, 64
6, 285720, Note_on_c, 3, 80, 75
6, 285840, Note_off_c, 3, 80, 64
6, 285840, Note_on_c, 3, 79, 75
6, 285960, Note_off_c, 3, 79, 64
6, 285960, Note_on_c, 3, 77, 75
6, 286075, Note_off_c, 3, 77, 64
6, 286080, Note_on_c, 3, 82, 75
6, 286200, Note_off_c, 3, 82, 64
6, 286200, Note_on_c, 3, 75, 75
6, 286320, Note_off_c, 3, 75, 64
6, 286320, Note_on_c, 3, 74, 75
6, 286440, Note_off_c, 3, 74, 64
6, 286440, Note_on_c, 3, 75, 75
6, 286560, Note_off_c, 3, 75, 64
6, 286560, Note_on_c, 3, 72, 75
6, 286680, Note_off_c, 3, 72, 64
6, 286680, Note_on_c, 3, 75, 75
6, 286800, Note_off_c, 3, 75, 64
6, 286800, Note_on_c, 3, 72, 75
6, 286920, Note_off_c, 3, 72, 64
6, 286920, Note_on_c, 3, 75, 75
6, 287040, Note_off_c, 3, 75, 64
6, 287040, Note_on_c, 3, 72, 75
6, 287160, Note_off_c, 3, 72, 64
6, 287160, Note_on_c, 3, 73, 75
6, 287280, Note_off_c, 3, 73, 64
6, 287280, Note_on_c, 3, 72, 75
6, 287400, Note_off_c, 3, 72, 64
6, 287400, Note_on_c, 3, 73, 75
6, 287515, Note_off_c, 3, 73, 64
6, 287520, Note_on_c, 3, 70, 75
6, 287640, Note_off_c, 3, 70, 64
6, 287640, Note_on_c, 3, 73, 75
6, 287760, Note_off_c, 3, 73, 64
6, 287760, Note_on_c, 3, 70, 75
6, 287880, Note_off_c, 3, 70, 64
6, 287880, Note_on_c, 3, 73, 75
6, 288000, Note_off_c, 3, 73, 64
6, 288000, Note_on_c, 3, 68, 75
6, 288120, Note_off_c, 3, 68, 64
6, 288120, Note_on_c, 3, 72, 75
6, 288240, Note_off_c, 3, 72, 64
6, 288240, Note_on_c, 3, 70, 75
6, 288360, Note_off_c, 3, 70, 64
6, 288360, Note_on_c, 3, 73, 75
6, 288480, Note_off_c, 3, 73, 64
6, 288480, Note_on_c, 3, 72, 75
6, 288600, Note_off_c, 3, 72, 64
6, 288600, Note_on_c, 3, 75, 75
6, 288720, Note_off_c, 3, 75, 64
6, 288720, Note_on_c, 3, 74, 75
6, 288840, Note_off_c, 3, 74, 64
6, 288840, Note_on_c, 3, 75, 75
6, 288955, Note_off_c, 3, 75, 64
6, 288960, Note_on_c, 3, 72, 75
6, 289080, Note_off_c, 3, 72, 64
6, 289080, Note_on_c, 3, 77, 75
6, 289200, Note_off_c, 3, 77, 64
6, 289200, Note_on_c, 3, 75, 75
6, 289320, Note_off_c, 3, 75, 64
6, 289320, Note_on_c, 3, 77, 75
6, 289440, Note_off_c, 3, 77, 64
6, 289440, Note_on_c, 3, 74, 75
6, 289560, Note_off_c, 3, 74, 64
6, 289560, Note_on_c, 3, 77, 75
6, 289680, Note_off_c, 3, 77, 64
6, 289680, Note_on_c, 3, 75, 75
6, 289800, Note_off_c, 3, 75, 64
6, 289800, Note_on_c, 3, 79, 75
6, 289920, Note_off_c, 3, 79, 64
6, 289920, Note_on_c, 3, 77, 75
6, 290040, Note_off_c, 3, 77, 64
6, 290040, Note_on_c, 3, 70, 75
6, 290160, Note_off_c, 3, 70, 64
6, 290160, Note_on_c, 3, 68, 75
6, 290280, Note_off_c, 3, 68, 64
6, 290280, Note_on_c, 3, 70, 75
6, 290395, Note_off_c, 3, 70, 64
6, 290400, Note_on_c, 3, 67, 75
6, 290520, Note_off_c, 3, 67, 64
6, 290520, Note_on_c, 3, 72, 75
6, 290640, Note_off_c, 3, 72, 64
6, 290640, Note_on_c, 3, 70, 75
6, 290760, Note_off_c, 3, 70, 64
6, 290760, Note_on_c, 3, 72, 75
6, 290880, Note_off_c, 3, 72, 64
6, 290880, Note_on_c, 3, 68, 75
6, 291000, Note_off_c, 3, 68, 64
6, 291000, Note_on_c, 3, 72, 75
6, 291120, Note_off_c, 3, 72, 64
6, 291120, Note_on_c, 3, 70, 75
6, 291240, Note_off_c, 3, 70, 64
6, 291240, Note_on_c, 3, 72, 75
6, 291360, Note_off_c, 3, 72, 64
6, 291360, Note_on_c, 3, 68, 75
6, 291480, Note_off_c, 3, 68, 64
6, 291480, Note_on_c, 3, 70, 75
6, 291600, Note_off_c, 3, 70, 64
6, 291600, Note_on_c, 3, 67, 75
6, 291720, Note_off_c, 3, 67, 64
6, 291720, Note_on_c, 3, 68, 75
6, 291835, Note_off_c, 3, 68, 64
6, 291840, Note_on_c, 3, 65, 75
6, 291960, Note_off_c, 3, 65, 64
6, 291960, Note_on_c, 3, 70, 75
6, 292080, Note_off_c, 3, 70, 64
6, 292080, Note_on_c, 3, 68, 75
6, 292200, Note_off_c, 3, 68, 64
6, 292200, Note_on_c, 3, 70, 75
6, 292320, Note_off_c, 3, 70, 64
6, 292320, Note_on_c, 3, 67, 75
6, 292440, Note_off_c, 3, 67, 64
6, 292440, Note_on_c, 3, 70, 75
6, 292560, Note_off_c, 3, 70, 64
6, 292560, Note_on_c, 3, 68, 75
6, 292680, Note_off_c, 3, 68, 64
6, 292680, Note_on_c, 3, 70, 75
6, 292800, Note_off_c, 3, 70, 64
6, 292800, Note_on_c, 3, 67, 75
6, 292920, Note_off_c, 3, 67, 64
6, 292920, Note_on_c, 3, 68, 75
6, 293040, Note_off_c, 3, 68, 64
6, 293040, Note_on_c, 3, 65, 75
6, 293160, Note_off_c, 3, 65, 64
6, 293160, Note_on_c, 3, 67, 75
6, 293275, Note_off_c, 3, 67, 64
6, 293280, Note_on_c, 3, 63, 75
6, 293400, Note_off_c, 3, 63, 64
6, 293400, Note_on_c, 3, 65, 75
6, 293520, Note_off_c, 3, 65, 64
6, 293520, Note_on_c, 3, 62, 75
6, 293640, Note_off_c, 3, 62, 64
6, 293640, Note_on_c, 3, 63, 75
6, 293760, Note_off_c, 3, 63, 64
6, 293760, Note_on_c, 3, 60, 75
6, 294000, Note_off_c, 3, 60, 64
6, 294000, Note_on_c, 3, 63, 75
6, 294240, Note_off_c, 3, 63, 64
6, 294240, Note_on_c, 3, 68, 75
6, 294480, Note_off_c, 3, 68, 64
6, 294480, Note_on_c, 3, 60, 75
6, 294720, Note_off_c, 3, 60, 64
6, 294720, Note_on_c, 3, 58, 75
6, 294960, Note_off_c, 3, 58, 64
6, 294960, Note_on_c, 3, 68, 75
6, 295195, Note_off_c, 3, 68, 64
6, 295200, Note_on_c, 3, 58, 75
6, 295440, Note_off_c, 3, 58, 64
6, 295440, Note_on_c, 3, 62, 75
6, 295680, Note_off_c, 3, 62, 64
6, 295680, Note_on_c, 3, 67, 75
6, 295920, Note_off_c, 3, 67, 64
6, 295920, Note_on_c, 3, 58, 75
6, 296160, Note_off_c, 3, 58, 64
6, 296160, Note_on_c, 3, 56, 75
6, 296400, Note_off_c, 3, 56, 64
6, 296400, Note_on_c, 3, 67, 75
6, 296635, Note_off_c, 3, 67, 64
6, 296640, Note_on_c, 3, 56, 75
6, 296880, Note_off_c, 3, 56, 64
6, 296880, Note_on_c, 3, 60, 75
6, 297120, Note_off_c, 3, 60, 64
6, 297120, Note_on_c, 3, 65, 75
6, 297360, Note_off_c, 3, 65, 64
6, 297360, Note_on_c, 3, 56, 75
6, 297600, Note_off_c, 3, 56, 64
6, 297600, Note_on_c, 3, 55, 75
6, 297840, Note_off_c, 3, 55, 64
6, 297840, Note_on_c, 3, 65, 75
6, 298075, Note_off_c, 3, 65, 64
6, 298080, Note_on_c, 3, 55, 75
6, 298320, Note_off_c, 3, 55, 64
6, 298320, Note_on_c, 3, 58, 75
6, 298560, Note_off_c, 3, 58, 64
6, 298560, Note_on_c, 3, 63, 75
6, 298800, Note_off_c, 3, 63, 64
6, 298800, Note_on_c, 3, 55, 75
6, 299040, Note_off_c, 3, 55, 64
6, 299040, Note_on_c, 3, 53, 75
6, 299280, Note_off_c, 3, 53, 64
6, 299280, Note_on_c, 3, 63, 75
6, 299515, Note_off_c, 3, 63, 64
6, 299520, Note_on_c, 3, 62, 75
6, 299640, Note_off_c, 3, 62, 64
6, 299640, Note_on_c, 3, 65, 75
6, 299760, Note_off_c, 3, 65, 64
6, 299760, Note_on_c, 3, 62, 75
6, 299880, Note_off_c, 3, 62, 64
6, 299880, Note_on_c, 3, 65, 75
6, 300000, Note_off_c, 3, 65, 64
6, 300000, Note_on_c, 3, 58, 75
6, 300235, Note_off_c, 3, 58, 64
6, 300240, Note_on_c, 3, 57, 75
6, 300360, Note_off_c, 3, 57, 64
6, 300360, Note_on_c, 3, 55, 75
6, 300480, Note_off_c, 3, 55, 64
6, 300480, Note_on_c, 3, 70, 75
6, 300880, Note_off_c, 3, 70, 64
6, 300960, Note_on_c, 3, 77, 75
6, 301800, Note_off_c, 3, 77, 64
6, 301920, Note_on_c, 3, 74, 75
6, 302320, Note_off_c, 3, 74, 64
6, 302400, Note_on_c, 3, 75, 75
6, 303240, Note_off_c, 3, 75, 64
6, 303360, Note_on_c, 3, 77, 75
6, 303760, Note_off_c, 3, 77, 64
6, 303840, Note_on_c, 3, 79, 75
6, 304680, Note_off_c, 3, 79, 64
6, 304800, Note_on_c, 3, 75, 75
6, 305200, Note_off_c, 3, 75, 64
6, 305280, Note_on_c, 3, 77, 75
6, 305680, Note_off_c, 3, 77, 64
6, 305880, Note_on_c, 3, 80, 75
6, 306000, Note_off_c, 3, 80, 64
6, 306000, Note_on_c, 3, 79, 75
6, 306120, Note_off_c, 3, 79, 64
6, 306120, Note_on_c, 3, 80, 75
6, 306240, Note_off_c, 3, 80, 64
6, 306240, Note_on_c, 3, 77, 75
6, 306360, Note_off_c, 3, 77, 64
6, 306360, Note_on_c, 3, 82, 75
6, 306480, Note_off_c, 3, 82, 64
6, 306480, Note_on_c, 3, 80, 75
6, 306600, Note_off_c, 3, 80, 64
6, 306600, Note_on_c, 3, 82, 75
6, 306720, Note_off_c, 3, 82, 64
6, 306720, Note_on_c, 3, 79, 75
6, 307120, Note_off_c, 3, 79, 64
6, 307320, Note_on_c, 3, 73, 75
6, 307440, Note_off_c, 3, 73, 64
6, 307440, Note_on_c, 3, 72, 75
6, 307560, Note_off_c, 3, 72, 64
6, 307560, Note_on_c, 3, 73, 75
6, 307680, Note_off_c, 3, 73, 64
6, 307680, Note_on_c, 3, 70, 75
6, 307800, Note_off_c, 3, 70, 64
6, 307800, Note_on_c, 3, 75, 75
6, 307920, Note_off_c, 3, 75, 64
6, 307920, Note_on_c, 3, 73, 75
6, 308040, Note_off_c, 3, 73, 64
6, 308040, Note_on_c, 3, 75, 75
6, 308160, Note_off_c, 3, 75, 64
6, 308160, Note_on_c, 3, 72, 75
6, 308560, Note_off_c, 3, 72, 64
6, 308760, Note_on_c, 3, 70, 75
6, 308880, Note_off_c, 3, 70, 64
6, 308880, Note_on_c, 3, 68, 75
6, 309000, Note_off_c, 3, 68, 64
6, 309000, Note_on_c, 3, 70, 75
6, 309120, Note_off_c, 3, 70, 64
6, 309120, Note_on_c, 3, 67, 75
6, 309240, Note_off_c, 3, 67, 64
6, 309240, Note_on_c, 3, 72, 75
6, 309360, Note_off_c, 3, 72, 64
6, 309360, Note_on_c, 3, 70, 75
6, 309480, Note_off_c, 3, 70, 64
6, 309480, Note_on_c, 3, 72, 75
6, 309600, Note_off_c, 3, 72, 64
6, 309600, Note_on_c, 3, 68, 75
6, 309835, Note_off_c, 3, 68, 64
6, 309840, Note_on_c, 3, 72, 75
6, 310080, Note_off_c, 3, 72, 64
6, 310080, Note_on_c, 3, 71, 75
6, 310315, Note_off_c, 3, 71, 64
6, 310320, Note_on_c, 3, 71, 75
6, 310560, Note_off_c, 3, 71, 64
6, 310560, Note_on_c, 3, 72, 75
6, 310960, Note_off_c, 3, 72, 64
6, 311160, Note_on_c, 3, 77, 75
6, 311280, Note_off_c, 3, 77, 64
6, 311280, Note_on_c, 3, 75, 75
6, 311400, Note_off_c, 3, 75, 64
6, 311400, Note_on_c, 3, 77, 75
6, 311520, Note_off_c, 3, 77, 64
6, 311520, Note_on_c, 3, 72, 75
6, 311755, Note_off_c, 3, 72, 64
6, 311760, Note_on_c, 3, 72, 75
6, 312000, Note_off_c, 3, 72, 64
6, 312000, Note_on_c, 3, 74, 75
6, 312400, Note_off_c, 3, 74, 64
6, 312600, Note_on_c, 3, 75, 75
6, 312720, Note_off_c, 3, 75, 64
6, 312720, Note_on_c, 3, 74, 75
6, 312840, Note_off_c, 3, 74, 64
6, 312840, Note_on_c, 3, 75, 75
6, 312955, Note_off_c, 3, 75, 64
6, 313080, Note_on_c, 3, 75, 75
6, 313200, Note_off_c, 3, 75, 64
6, 313200, Note_on_c, 3, 74, 75
6, 313320, Note_off_c, 3, 74, 64
6, 313320, Note_on_c, 3, 75, 75
6, 313435, Note_off_c, 3, 75, 64
6, 313560, Note_on_c, 3, 75, 75
6, 313680, Note_off_c, 3, 75, 64
6, 313680, Note_on_c, 3, 74, 75
6, 313800, Note_off_c, 3, 74, 64
6, 313800, Note_on_c, 3, 75, 75
6, 313915, Note_off_c, 3, 75, 64
6, 314040, Note_on_c, 3, 74, 75
6, 314160, Note_off_c, 3, 74, 64
6, 314160, Note_on_c, 3, 72, 75
6, 314280, Note_off_c, 3, 72, 64
6, 314280, Note_on_c, 3, 74, 75
6, 314395, Note_off_c, 3, 74, 64
6, 314520, Note_on_c, 3, 72, 75
6, 314640, Note_off_c, 3, 72, 64
6, 314640, Note_on_c, 3, 70, 75
6, 314760, Note_off_c, 3, 70, 64
6, 314760, Note_on_c, 3, 72, 75
6, 314875, Note_off_c, 3, 72, 64
6, 315000, Note_on_c, 3, 72, 75
6, 315120, Note_off_c, 3, 72, 64
6, 315120, Note_on_c, 3, 70, 75
6, 315240, Note_off_c, 3, 70, 64
6, 315240, Note_on_c, 3, 72, 75
6, 315355, Note_off_c, 3, 72, 64
6, 315480, Note_on_c, 3, 70, 75
6, 315600, Note_off_c, 3, 70, 64
6, 315600, Note_on_c, 3, 69, 75
6, 315720, Note_off_c, 3, 69, 64
6, 315720, Note_on_c, 3, 70, 75
6, 315835, Note_off_c, 3, 70, 64
6, 315960, Note_on_c, 3, 70, 75
6, 316080, Note_off_c, 3, 70, 64
6, 316080, Note_on_c, 3, 69, 75
6, 316200, Note_off_c, 3, 69, 64
6, 316200, Note_on_c, 3, 70, 75
6, 316315, Note_off_c, 3, 70, 64
6, 316440, Note_on_c, 3, 72, 76
6, 316560, Note_off_c, 3, 72, 64
6, 316560, Note_on_c, 3, 70, 77
6, 316680, Note_off_c, 3, 70, 64
6, 316680, Note_on_c, 3, 72, 78
6, 316795, Note_off_c, 3, 72, 64
6, 316920, Note_on_c, 3, 69, 80
6, 317040, Note_off_c, 3, 69, 64
6, 317040, Note_on_c, 3, 67, 81
6, 317160, Note_off_c, 3, 67, 64
6, 317160, Note_on_c, 3, 69, 82
6, 317275, Note_off_c, 3, 69, 64
6, 317400, Note_on_c, 3, 69, 86
6, 317520, Note_off_c, 3, 69, 64
6, 317520, Note_on_c, 3, 67, 88
6, 317640, Note_off_c, 3, 67, 64
6, 317640, Note_on_c, 3, 69, 90
6, 317755, Note_off_c, 3, 69, 64
6, 317760, Note_on_c, 3, 79, 92
6, 318475, Note_off_c, 3, 79, 64
6, 318480, Note_on_c, 3, 82, 92
6, 318720, Note_off_c, 3, 82, 64
6, 318720, Note_on_c, 3, 78, 92
6, 318955, Note_off_c, 3, 78, 64
6, 318960, Note_on_c, 3, 78, 92
6, 319200, Note_off_c, 3, 78, 64
6, 319200, Note_on_c, 3, 79, 92
6, 319600, Note_off_c, 3, 79, 64
6, 319920, Note_on_c, 3, 75, 92
6, 320160, Note_off_c, 3, 75, 64
6, 320160, Note_on_c, 3, 81, 92
6, 320395, Note_off_c, 3, 81, 64
6, 320400, Note_on_c, 3, 81, 92
6, 320640, Note_off_c, 3, 81, 64
6, 320640, Note_on_c, 3, 82, 92
6, 321040, Note_off_c, 3, 82, 64
6, 321360, Note_on_c, 3, 84, 92
6, 321600, Note_off_c, 3, 84, 64
6, 321600, Note_on_c, 3, 79, 92
6, 321835, Note_off_c, 3, 79, 64
6, 321840, Note_on_c, 3, 79, 92
6, 322080, Note_off_c, 3, 79, 64
6, 322080, Note_on_c, 3, 81, 92
6, 322480, Note_off_c, 3, 81, 64
6, 322800, Note_on_c, 3, 70, 75
6, 323035, Note_off_c, 3, 70, 64
6, 323040, Note_on_c, 3, 66, 60
6, 323160, Note_off_c, 3, 66, 64
6, 323160, Note_on_c, 3, 69, 60
6, 323280, Note_off_c, 3, 69, 64
6, 323280, Note_on_c, 3, 67, 60
6, 323400, Note_off_c, 3, 67, 64
6, 323400, Note_on_c, 3, 70, 60
6, 323520, Note_off_c, 3, 70, 64
6, 323520, Note_on_c, 3, 69, 60
6, 323640, Note_off_c, 3, 69, 64
6, 323640, Note_on_c, 3, 72, 60
6, 323760, Note_off_c, 3, 72, 64
6, 323760, Note_on_c, 3, 70, 60
6, 323880, Note_off_c, 3, 70, 64
6, 323880, Note_on_c, 3, 69, 60
6, 324000, Note_off_c, 3, 69, 64
6, 324000, Note_on_c, 3, 70, 60
6, 325075, Note_off_c, 3, 70, 64
6, 325440, Note_on_c, 3, 69, 60
6, 326515, Note_off_c, 3, 69, 64
6, 326520, Note_on_c, 3, 70, 60
6, 326640, Note_off_c, 3, 70, 64
6, 326640, Note_on_c, 3, 66, 60
6, 326760, Note_off_c, 3, 66, 64
6, 326760, Note_on_c, 3, 69, 60
6, 326875, Note_off_c, 3, 69, 64
6, 326880, Note_on_c, 3, 67, 60
6, 327960, Note_off_c, 3, 67, 64
6, 327960, Note_on_c, 3, 69, 60
6, 328080, Note_off_c, 3, 69, 64
6, 328080, Note_on_c, 3, 64, 60
6, 328200, Note_off_c, 3, 64, 64
6, 328200, Note_on_c, 3, 67, 60
6, 328320, Note_off_c, 3, 67, 64
6, 328320, Note_on_c, 3, 66, 60
6, 328440, Note_off_c, 3, 66, 64
6, 328440, Note_on_c, 3, 69, 60
6, 328560, Note_off_c, 3, 69, 64
6, 328560, Note_on_c, 3, 66, 60
6, 328680, Note_off_c, 3, 66, 64
6, 328680, Note_on_c, 3, 69, 60
6, 328800, Note_off_c, 3, 69, 64
6, 328800, Note_on_c, 3, 62, 60
6, 328920, Note_off_c, 3, 62, 64
6, 328920, Note_on_c, 3, 66, 60
6, 329040, Note_off_c, 3, 66, 64
6, 329040, Note_on_c, 3, 62, 60
6, 329160, Note_off_c, 3, 62, 64
6, 329160, Note_on_c, 3, 66, 60
6, 329275, Note_off_c, 3, 66, 64
6, 329280, Note_on_c, 3, 67, 60
6, 329520, Note_off_c, 3, 67, 64
6, 329520, Note_on_c, 3, 65, 60
6, 329760, Note_off_c, 3, 65, 64
6, 329760, Note_on_c, 3, 63, 60
6, 330835, Note_off_c, 3, 63, 64
6, 333120, Note_on_c, 3, 60, 60
6, 333715, Note_off_c, 3, 60, 64
6, 333720, Note_on_c, 3, 63, 60
6, 333840, Note_off_c, 3, 63, 64
6, 333840, Note_on_c, 3, 62, 60
6, 333960, Note_off_c, 3, 62, 64
6, 333960, Note_on_c, 3, 65, 60
6, 334080, Note_off_c, 3, 65, 64
6, 334080, Note_on_c, 3, 59, 60
6, 334200, Note_off_c, 3, 59, 64
6, 334200, Note_on_c, 3, 62, 60
6, 334320, Note_off_c, 3, 62, 64
6, 334320, Note_on_c, 3, 60, 60
6, 334440, Note_off_c, 3, 60, 64
6, 334440, Note_on_c, 3, 63, 60
6, 334560, Note_off_c, 3, 63, 64
6, 334560, Note_on_c, 3, 62, 60
6, 334680, Note_off_c, 3, 62, 64
6, 334680, Note_on_c, 3, 63, 60
6, 334800, Note_off_c, 3, 63, 64
6, 334800, Note_on_c, 3, 60, 60
6, 334920, Note_off_c, 3, 60, 64
6, 334920, Note_on_c, 3, 62, 60
6, 335035, Note_off_c, 3, 62, 64
6, 335040, Note_on_c, 3, 63, 60
6, 335160, Note_off_c, 3, 63, 64
6, 335160, Note_on_c, 3, 65, 60
6, 335280, Note_off_c, 3, 65, 64
6, 335280, Note_on_c, 3, 62, 60
6, 335400, Note_off_c, 3, 62, 64
6, 335400, Note_on_c, 3, 64, 60
6, 335520, Note_off_c, 3, 64, 64
6, 335520, Note_on_c, 3, 65, 60
6, 335640, Note_off_c, 3, 65, 64
6, 335640, Note_on_c, 3, 68, 60
6, 335760, Note_off_c, 3, 68, 64
6, 335760, Note_on_c, 3, 67, 60
6, 335880, Note_off_c, 3, 67, 64
6, 335880, Note_on_c, 3, 70, 60
6, 336000, Note_off_c, 3, 70, 64
6, 336000, Note_on_c, 3, 68, 60
6, 336120, Note_off_c, 3, 68, 64
6, 336120, Note_on_c, 3, 60, 60
6, 336240, Note_off_c, 3, 60, 64
6, 336240, Note_on_c, 3, 68, 60
6, 336360, Note_off_c, 3, 68, 64
6, 336360, Note_on_c, 3, 67, 60
6, 336480, Note_off_c, 3, 67, 64
6, 336480, Note_on_c, 3, 65, 60
6, 336595, Note_off_c, 3, 65, 64
6, 339360, Note_on_c, 3, 67, 60
6, 339480, Note_off_c, 3, 67, 64
6, 339480, Note_on_c, 3, 70, 60
6, 339600, Note_off_c, 3, 70, 64
6, 339600, Note_on_c, 3, 67, 60
6, 339720, Note_off_c, 3, 67, 64
6, 339720, Note_on_c, 3, 70, 60
6, 339840, Note_off_c, 3, 70, 64
6, 339840, Note_on_c, 3, 65, 60
6, 339960, Note_off_c, 3, 65, 64
6, 339960, Note_on_c, 3, 68, 60
6, 340080, Note_off_c, 3, 68, 64
6, 340080, Note_on_c, 3, 67, 60
6, 340200, Note_off_c, 3, 67, 64
6, 340200, Note_on_c, 3, 70, 60
6, 340320, Note_off_c, 3, 70, 64
6, 340320, Note_on_c, 3, 68, 60
6, 340440, Note_off_c, 3, 68, 64
6, 340440, Note_on_c, 3, 70, 60
6, 340560, Note_off_c, 3, 70, 64
6, 340560, Note_on_c, 3, 67, 60
6, 340680, Note_off_c, 3, 67, 64
6, 340680, Note_on_c, 3, 68, 60
6, 340795, Note_off_c, 3, 68, 64
6, 340800, Note_on_c, 3, 70, 60
6, 340920, Note_off_c, 3, 70, 64
6, 340920, Note_on_c, 3, 72, 60
6, 341040, Note_off_c, 3, 72, 64
6, 341040, Note_on_c, 3, 68, 60
6, 341160, Note_off_c, 3, 68, 64
6, 341160, Note_on_c, 3, 70, 60
6, 341280, Note_off_c, 3, 70, 64
6, 341280, Note_on_c, 3, 67, 60
6, 341395, Note_off_c, 3, 67, 64
6, 341400, Note_on_c, 3, 67, 60
6, 341520, Note_off_c, 3, 67, 64
6, 341520, Note_on_c, 3, 65, 60
6, 341640, Note_off_c, 3, 65, 64
6, 341640, Note_on_c, 3, 67, 60
6, 341755, Note_off_c, 3, 67, 64
6, 343800, Note_on_c, 3, 62, 60
6, 343920, Note_off_c, 3, 62, 64
6, 343920, Note_on_c, 3, 60, 60
6, 344040, Note_off_c, 3, 60, 64
6, 344040, Note_on_c, 3, 62, 60
6, 344155, Note_off_c, 3, 62, 64
6, 344160, Note_on_c, 3, 63, 60
6, 344395, Note_off_c, 3, 63, 64
6, 344400, Note_on_c, 3, 65, 60
6, 344635, Note_off_c, 3, 65, 64
6, 344640, Note_on_c, 3, 67, 60
6, 344875, Note_off_c, 3, 67, 64
6, 344880, Note_on_c, 3, 69, 60
6, 345115, Note_off_c, 3, 69, 64
6, 345120, Note_on_c, 3, 70, 60
6, 345355, Note_off_c, 3, 70, 64
6, 345360, Note_on_c, 3, 72, 60
6, 345595, Note_off_c, 3, 72, 64
6, 345600, Note_on_c, 3, 74, 60
6, 345835, Note_off_c, 3, 74, 64
6, 345840, Note_on_c, 3, 75, 60
6, 346075, Note_off_c, 3, 75, 64
6, 346080, Note_on_c, 3, 65, 60
6, 346315, Note_off_c, 3, 65, 64
6, 346320, Note_on_c, 3, 67, 60
6, 346555, Note_off_c, 3, 67, 64
6, 346560, Note_on_c, 3, 68, 60
6, 346795, Note_off_c, 3, 68, 64
6, 346800, Note_on_c, 3, 70, 60
6, 347035, Note_off_c, 3, 70, 64
6, 347040, Note_on_c, 3, 72, 60
6, 347275, Note_off_c, 3, 72, 64
6, 347280, Note_on_c, 3, 74, 60
6, 347515, Note_off_c, 3, 74, 64
6, 347520, Note_on_c, 3, 75, 60
6, 347755, Note_off_c, 3, 75, 64
6, 347760, Note_on_c, 3, 77, 60
6, 347995, Note_off_c, 3, 77, 64
6, 348000, Note_on_c, 3, 79, 60
6, 348235, Note_off_c, 3, 79, 64
6, 348240, Note_on_c, 3, 80, 60
6, 348475, Note_off_c, 3, 80, 64
6, 348480, Note_on_c, 3, 70, 60
6, 348715, Note_off_c, 3, 70, 64
6, 348720, Note_on_c, 3, 72, 60
6, 348955, Note_off_c, 3, 72, 64
6, 348960, Note_on_c, 3, 74, 60
6, 349195, Note_off_c, 3, 74, 64
6, 349200, Note_on_c, 3, 75, 60
6, 349435, Note_off_c, 3, 75, 64
6, 349440, Note_on_c, 3, 77, 60
6, 349675, Note_off_c, 3, 77, 64
6, 349680, Note_on_c, 3, 79, 60
6, 349915, Note_off_c, 3, 79, 64
6, 349920, Note_on_c, 3, 68, 60
6, 350155, Note_off_c, 3, 68, 64
6, 350160, Note_on_c, 3, 70, 60
6, 350395, Note_off_c, 3, 70, 64
6, 350400, Note_on_c, 3, 72, 60
6, 350635, Note_off_c, 3, 72, 64
6, 350640, Note_on_c, 3, 74, 60
6, 350875, Note_off_c, 3, 74, 64
6, 350880, Note_on_c, 3, 75, 60
6, 351115, Note_off_c, 3, 75, 64
6, 351120, Note_on_c, 3, 77, 60
6, 351355, Note_off_c, 3, 77, 64
6, 351360, Note_on_c, 3, 79, 60
6, 352000, Note_off_c, 3, 79, 64
6, 352080, Note_on_c, 3, 67, 60
6, 352315, Note_off_c, 3, 67, 64
6, 352320, Note_on_c, 3, 69, 60
6, 352440, Note_off_c, 3, 69, 64
6, 352440, Note_on_c, 3, 70, 60
6, 352560, Note_off_c, 3, 70, 64
6, 352560, Note_on_c, 3, 67, 60
6, 352680, Note_off_c, 3, 67, 64
6, 352680, Note_on_c, 3, 69, 60
6, 352795, Note_off_c, 3, 69, 64
6, 352800, Note_on_c, 3, 66, 60
6, 352920, Note_off_c, 3, 66, 64
6, 352920, Note_on_c, 3, 67, 61
6, 353040, Note_off_c, 3, 67, 64
6, 353040, Note_on_c, 3, 64, 63
6, 353160, Note_off_c, 3, 64, 64
6, 353160, Note_on_c, 3, 66, 65
6, 353280, Note_off_c, 3, 66, 64
6, 353280, Note_on_c, 3, 74, 67
6, 353680, Note_off_c, 3, 74, 64
6, 353760, Note_on_c, 3, 74, 75
6, 354355, Note_off_c, 3, 74, 64
6, 354360, Note_on_c, 3, 81, 75
6, 354480, Note_off_c, 3, 81, 64
6, 354480, Note_on_c, 3, 79, 75
6, 354600, Note_off_c, 3, 79, 64
6, 354600, Note_on_c, 3, 82, 75
6, 354720, Note_off_c, 3, 82, 64
6, 354720, Note_on_c, 3, 81, 75
6, 354840, Note_off_c, 3, 81, 64
6, 354840, Note_on_c, 3, 84, 75
6, 354960, Note_off_c, 3, 84, 64
6, 354960, Note_on_c, 3, 82, 75
6, 355080, Note_off_c, 3, 82, 64
6, 355080, Note_on_c, 3, 81, 75
6, 355200, Note_off_c, 3, 81, 64
6, 355200, Note_on_c, 3, 79, 75
6, 355435, Note_off_c, 3, 79, 64
6, 355440, Note_on_c, 3, 74, 75
6, 355675, Note_off_c, 3, 74, 64
6, 355680, Note_on_c, 3, 79, 75
6, 356160, Note_off_c, 3, 79, 64
6, 356160, Note_on_c, 3, 77, 75
6, 356560, Note_off_c, 3, 77, 64
6, 356640, Note_on_c, 3, 77, 75
6, 357040, Note_off_c, 3, 77, 64
6, 357120, Note_on_c, 3, 75, 75
6, 357360, Note_off_c, 3, 75, 64
6, 357360, Note_on_c, 3, 77, 75
6, 357600, Note_off_c, 3, 77, 64
6, 357600, Note_on_c, 3, 79, 75
6, 357840, Note_off_c, 3, 79, 64
6, 357840, Note_on_c, 3, 82, 75
6, 358080, Note_off_c, 3, 82, 64
6, 358080, Note_on_c, 3, 81, 75
6, 358320, Note_off_c, 3, 81, 64
6, 358320, Note_on_c, 3, 79, 75
6, 358555, Note_off_c, 3, 79, 64
6, 358560, Note_on_c, 3, 78, 75
6, 358680, Note_off_c, 3, 78, 64
6, 358680, Note_on_c, 3, 81, 75
6, 358800, Note_off_c, 3, 81, 64
6, 358800, Note_on_c, 3, 79, 75
6, 358920, Note_off_c, 3, 79, 64
6, 358920, Note_on_c, 3, 82, 75
6, 359035, Note_off_c, 3, 82, 64
6, 359040, Note_on_c, 3, 81, 75
6, 359280, Note_off_c, 3, 81, 64
6, 359280, Note_on_c, 3, 78, 75
6, 359520, Note_off_c, 3, 78, 64
6, 359520, Note_on_c, 3, 79, 75
6, 360235, Note_off_c, 3, 79, 64
6, 360240, Note_on_c, 3, 79, 75
6, 360480, Note_off_c, 3, 79, 64
6, 360480, Note_on_c, 3, 81, 75
6, 360880, Note_off_c, 3, 81, 64
6, 360960, Note_on_c, 3, 79, 75
6, 361675, Note_off_c, 3, 79, 64
6, 361680, Note_on_c, 3, 77, 75
6, 362155, Note_off_c, 3, 77, 64
6, 362160, Note_on_c, 3, 75, 75
6, 362635, Note_off_c, 3, 75, 64
6, 362640, Note_on_c, 3, 74, 75
6, 363115, Note_off_c, 3, 74, 64
6, 363120, Note_on_c, 3, 74, 75
6, 363360, Note_off_c, 3, 74, 64
6, 363360, Note_on_c, 3, 75, 75
6, 363760, Note_off_c, 3, 75, 64
6, 363840, Note_on_c, 3, 74, 75
6, 364080, Note_off_c, 3, 74, 64
6, 364080, Note_on_c, 3, 72, 75
6, 364320, Note_off_c, 3, 72, 64
6, 364320, Note_on_c, 3, 71, 75
6, 364560, Note_off_c, 3, 71, 64
6, 364560, Note_on_c, 3, 72, 75
6, 364795, Note_off_c, 3, 72, 64
6, 364800, Note_on_c, 3, 74, 75
6, 365515, Note_off_c, 3, 74, 64
6, 365520, Note_on_c, 3, 79, 75
6, 366160, Note_off_c, 3, 79, 64
6, 366240, Note_on_c, 3, 84, 75
6, 366955, Note_off_c, 3, 84, 64
6, 366960, Note_on_c, 3, 84, 75
6, 367600, Note_off_c, 3, 84, 64
6, 368280, Note_on_c, 3, 84, 92
6, 368400, Note_off_c, 3, 84, 64
6, 368400, Note_on_c, 3, 82, 92
6, 368520, Note_off_c, 3, 82, 64
6, 368520, Note_on_c, 3, 80, 92
6, 368640, Note_off_c, 3, 80, 64
6, 368640, Note_on_c, 3, 79, 92
6, 368875, Note_off_c, 3, 79, 64
6, 368880, Note_on_c, 3, 80, 92
6, 369120, Note_off_c, 3, 80, 64
6, 369120, Note_on_c, 3, 76, 92
6, 369355, Note_off_c, 3, 76, 64
6, 369360, Note_on_c, 3, 76, 92
6, 369600, Note_off_c, 3, 76, 64
6, 369600, Note_on_c, 3, 77, 92
6, 370000, Note_off_c, 3, 77, 64
6, 370320, Note_on_c, 3, 85, 92
6, 370560, Note_off_c, 3, 85, 64
6, 370560, Note_on_c, 3, 79, 92
6, 370795, Note_off_c, 3, 79, 64
6, 370800, Note_on_c, 3, 79, 92
6, 371040, Note_off_c, 3, 79, 64
6, 371040, Note_on_c, 3, 81, 92
6, 371440, Note_off_c, 3, 81, 64
6, 371760, Note_on_c, 3, 82, 92
6, 372000, Note_off_c, 3, 82, 64
6, 372000, Note_on_c, 3, 77, 92
6, 372235, Note_off_c, 3, 77, 64
6, 372240, Note_on_c, 3, 77, 92
6, 372480, Note_off_c, 3, 77, 64
6, 372480, Note_on_c, 3, 79, 92
6, 372880, Note_off_c, 3, 79, 64
6, 372960, Note_on_c, 3, 80, 92
6, 373200, Note_off_c, 3, 80, 64
6, 373200, Note_on_c, 3, 82, 92
6, 373320, Note_off_c, 3, 82, 64
6, 373320, Note_on_c, 3, 80, 92
6, 373440, Note_off_c, 3, 80, 64
6, 373440, Note_on_c, 3, 79, 92
6, 374155, Note_off_c, 3, 79, 64
6, 374160, Note_on_c, 3, 79, 92
6, 374400, Note_off_c, 3, 79, 64
6, 374400, Note_on_c, 3, 84, 92
6, 375040, Note_off_c, 3, 84, 64
6, 375120, Note_on_c, 3, 85, 92
6, 375360, Note_off_c, 3, 85, 64
6, 375360, Note_on_c, 3, 76, 92
6, 375840, Note_off_c, 3, 76, 64
6, 375840, Note_on_c, 3, 77, 92
6, 376075, Note_off_c, 3, 77, 64
6, 376080, Note_on_c, 3, 82, 92
6, 376555, Note_off_c, 3, 82, 64
6, 376560, Note_on_c, 3, 84, 92
6, 376800, Note_off_c, 3, 84, 64
6, 376800, Note_on_c, 3, 85, 92
6, 377520, Note_off_c, 3, 85, 64
6, 377520, Note_on_c, 3, 82, 92
6, 377755, Note_off_c, 3, 82, 64
6, 377760, Note_on_c, 3, 84, 92
6, 378835, Note_off_c, 3, 84, 64
6, 378840, Note_on_c, 3, 86, 92
6, 378960, Note_off_c, 3, 86, 64
6, 378960, Note_on_c, 3, 82, 92
6, 379080, Note_off_c, 3, 82, 64
6, 379080, Note_on_c, 3, 84, 92
6, 379200, Note_off_c, 3, 84, 64
6, 379200, Note_on_c, 3, 81, 92
6, 379320, Note_off_c, 3, 81, 64
6, 379320, Note_on_c, 3, 84, 92
6, 379440, Note_off_c, 3, 84, 64
6, 379440, Note_on_c, 3, 82, 92
6, 379560, Note_off_c, 3, 82, 64
6, 379560, Note_on_c, 3, 81, 92
6, 379680, Note_off_c, 3, 81, 64
6, 379680, Note_on_c, 3, 79, 92
6, 380080, Note_off_c, 3, 79, 64
6, 380280, Note_on_c, 3, 81, 92
6, 380400, Note_off_c, 3, 81, 64
6, 380400, Note_on_c, 3, 79, 92
6, 380520, Note_off_c, 3, 79, 64
6, 380520, Note_on_c, 3, 81, 92
6, 380640, Note_off_c, 3, 81, 64
6, 380640, Note_on_c, 3, 78, 92
6, 381040, Note_off_c, 3, 78, 64
6, 381240, Note_on_c, 3, 79, 92
6, 381360, Note_off_c, 3, 79, 64
6, 381360, Note_on_c, 3, 77, 92
6, 381480, Note_off_c, 3, 77, 64
6, 381480, Note_on_c, 3, 79, 92
6, 381600, Note_off_c, 3, 79, 64
6, 381600, Note_on_c, 3, 75, 92
6, 382000, Note_off_c, 3, 75, 64
6, 382200, Note_on_c, 3, 74, 92
6, 382320, Note_off_c, 3, 74, 64
6, 382320, Note_on_c, 3, 72, 92
6, 382440, Note_off_c, 3, 72, 64
6, 382440, Note_on_c, 3, 74, 92
6, 382560, Note_off_c, 3, 74, 64
6, 382560, Note_on_c, 3, 70, 92
6, 383040, Note_off_c, 3, 70, 64
6, 383040, Note_on_c, 3, 72, 92
6, 383440, Note_off_c, 3, 72, 64
6, 383640, Note_on_c, 3, 72, 92
6, 383760, Note_off_c, 3, 72, 64
6, 383760, Note_on_c, 3, 70, 92
6, 383880, Note_off_c, 3, 70, 64
6, 383880, Note_on_c, 3, 72, 92
6, 384000, Note_off_c, 3, 72, 64
6, 384000, Note_on_c, 3, 69, 92
6, 384400, Note_off_c, 3, 69, 64
6, 384480, Note_on_c, 3, 71, 92
6, 384600, Note_off_c, 3, 71, 64
6, 384600, Note_on_c, 3, 74, 92
6, 384720, Note_off_c, 3, 74, 64
6, 384720, Note_on_c, 3, 72, 92
6, 384840, Note_off_c, 3, 72, 64
6, 384840, Note_on_c, 3, 75, 92
6, 384960, Note_off_c, 3, 75, 64
6, 384960, Note_on_c, 3, 74, 92
6, 385080, Note_off_c, 3, 74, 64
6, 385080, Note_on_c, 3, 77, 92
6, 385200, Note_off_c, 3, 77, 64
6, 385200, Note_on_c, 3, 75, 92
6, 385320, Note_off_c, 3, 75, 64
6, 385320, Note_on_c, 3, 79, 92
6, 385440, Note_off_c, 3, 79, 64
6, 385440, Note_on_c, 3, 77, 92
6, 385560, Note_off_c, 3, 77, 64
6, 385560, Note_on_c, 3, 80, 92
6, 385680, Note_off_c, 3, 80, 64
6, 385680, Note_on_c, 3, 79, 92
6, 385800, Note_off_c, 3, 79, 64
6, 385800, Note_on_c, 3, 77, 92
6, 385920, Note_off_c, 3, 77, 64
6, 385920, Note_on_c, 3, 75, 92
6, 386040, Note_off_c, 3, 75, 64
6, 386040, Note_on_c, 3, 79, 92
6, 386160, Note_off_c, 3, 79, 64
6, 386160, Note_on_c, 3, 77, 92
6, 386280, Note_off_c, 3, 77, 64
6, 386280, Note_on_c, 3, 80, 92
6, 386400, Note_off_c, 3, 80, 64
6, 386400, Note_on_c, 3, 79, 92
6, 386520, Note_off_c, 3, 79, 64
6, 386520, Note_on_c, 3, 82, 92
6, 386640, Note_off_c, 3, 82, 64
6, 386640, Note_on_c, 3, 80, 92
6, 386760, Note_off_c, 3, 80, 64
6, 386760, Note_on_c, 3, 84, 92
6, 386875, Note_off_c, 3, 84, 64
6, 386880, Note_on_c, 3, 82, 92
6, 387000, Note_off_c, 3, 82, 64
6, 387000, Note_on_c, 3, 85, 92
6, 387120, Note_off_c, 3, 85, 64
6, 387120, Note_on_c, 3, 84, 92
6, 387240, Note_off_c, 3, 84, 64
6, 387240, Note_on_c, 3, 82, 92
6, 387355, Note_off_c, 3, 82, 64
6, 387360, Note_on_c, 3, 80, 92
6, 387390, Note_off_c, 3, 80, 64
6, 387390, Note_on_c, 3, 82, 92
6, 387420, Note_off_c, 3, 82, 64
6, 387420, Note_on_c, 3, 80, 92
6, 387450, Note_off_c, 3, 80, 64
6, 387450, Note_on_c, 3, 82, 92
6, 387480, Note_off_c, 3, 82, 64
6, 387480, Note_on_c, 3, 80, 92
6, 387510, Note_off_c, 3, 80, 64
6, 387510, Note_on_c, 3, 82, 92
6, 387540, Note_off_c, 3, 82, 64
6, 387540, Note_on_c, 3, 80, 92
6, 387570, Note_off_c, 3, 80, 64
6, 387570, Note_on_c, 3, 82, 92
6, 387600, Note_off_c, 3, 82, 64
6, 387600, Note_on_c, 3, 80, 92
6, 387630, Note_off_c, 3, 80, 64
6, 387630, Note_on_c, 3, 82, 92
6, 387660, Note_off_c, 3, 82, 64
6, 387660, Note_on_c, 3, 80, 92
6, 387690, Note_off_c, 3, 80, 64
6, 387690, Note_on_c, 3, 82, 92
6, 387720, Note_off_c, 3, 82, 64
6, 387720, Note_on_c, 3, 80, 92
6, 387750, Note_off_c, 3, 80, 64
6, 387750, Note_on_c, 3, 82, 92
6, 387780, Note_off_c, 3, 82, 64
6, 387780, Note_on_c, 3, 80, 92
6, 387810, Note_off_c, 3, 80, 64
6, 387810, Note_on_c, 3, 82, 92
6, 387840, Note_off_c, 3, 82, 64
6, 387840, Note_on_c, 3, 80, 92
6, 387870, Note_off_c, 3, 80, 64
6, 387870, Note_on_c, 3, 82, 92
6, 387900, Note_off_c, 3, 82, 64
6, 387900, Note_on_c, 3, 80, 92
6, 387930, Note_off_c, 3, 80, 64
6, 387930, Note_on_c, 3, 82, 92
6, 387960, Note_off_c, 3, 82, 64
6, 387960, Note_on_c, 3, 80, 92
6, 387990, Note_off_c, 3, 80, 64
6, 387990, Note_on_c, 3, 82, 92
6, 388020, Note_off_c, 3, 82, 64
6, 388020, Note_on_c, 3, 80, 92
6, 388050, Note_off_c, 3, 80, 64
6, 388050, Note_on_c, 3, 82, 92
6, 388080, Note_off_c, 3, 82, 64
6, 388080, Note_on_c, 3, 80, 92
6, 388110, Note_off_c, 3, 80, 64
6, 388110, Note_on_c, 3, 82, 92
6, 388140, Note_off_c, 3, 82, 64
6, 388140, Note_on_c, 3, 80, 92
6, 388170, Note_off_c, 3, 80, 64
6, 388170, Note_on_c, 3, 82, 92
6, 388200, Note_off_c, 3, 82, 64
6, 388200, Note_on_c, 3, 80, 92
6, 388230, Note_off_c, 3, 80, 64
6, 388230, Note_on_c, 3, 82, 92
6, 388260, Note_off_c, 3, 82, 64
6, 388260, Note_on_c, 3, 80, 92
6, 388290, Note_off_c, 3, 80, 64
6, 388290, Note_on_c, 3, 82, 92
6, 388315, Note_off_c, 3, 82, 64
6, 388320, Note_on_c, 3, 80, 92
6, 388350, Note_off_c, 3, 80, 64
6, 388350, Note_on_c, 3, 82, 92
6, 388380, Note_off_c, 3, 82, 64
6, 388380, Note_on_c, 3, 80, 92
6, 388410, Note_off_c, 3, 80, 64
6, 388410, Note_on_c, 3, 82, 92
6, 388440, Note_off_c, 3, 82, 64
6, 388440, Note_on_c, 3, 80, 92
6, 388470, Note_off_c, 3, 80, 64
6, 388470, Note_on_c, 3, 82, 92
6, 388500, Note_off_c, 3, 82, 64
6, 388500, Note_on_c, 3, 80, 92
6, 388530, Note_off_c, 3, 80, 64
6, 388530, Note_on_c, 3, 82, 92
6, 388560, Note_off_c, 3, 82, 64
6, 388560, Note_on_c, 3, 80, 92
6, 388590, Note_off_c, 3, 80, 64
6, 388590, Note_on_c, 3, 82, 92
6, 388620, Note_off_c, 3, 82, 64
6, 388620, Note_on_c, 3, 80, 92
6, 388650, Note_off_c, 3, 80, 64
6, 388650, Note_on_c, 3, 82, 92
6, 388680, Note_off_c, 3, 82, 64
6, 388680, Note_on_c, 3, 80, 92
6, 388710, Note_off_c, 3, 80, 64
6, 388710, Note_on_c, 3, 82, 92
6, 388740, Note_off_c, 3, 82, 64
6, 388740, Note_on_c, 3, 80, 92
6, 388770, Note_off_c, 3, 80, 64
6, 388770, Note_on_c, 3, 82, 92
6, 388800, Note_off_c, 3, 82, 64
6, 388800, Note_on_c, 3, 80, 92
6, 388830, Note_off_c, 3, 80, 64
6, 388830, Note_on_c, 3, 82, 92
6, 388860, Note_off_c, 3, 82, 64
6, 388860, Note_on_c, 3, 80, 92
6, 388890, Note_off_c, 3, 80, 64
6, 388890, Note_on_c, 3, 82, 92
6, 388920, Note_off_c, 3, 82, 64
6, 388920, Note_on_c, 3, 80, 92
6, 388950, Note_off_c, 3, 80, 64
6, 388950, Note_on_c, 3, 82, 92
6, 388980, Note_off_c, 3, 82, 64
6, 388980, Note_on_c, 3, 80, 92
6, 389010, Note_off_c, 3, 80, 64
6, 389010, Note_on_c, 3, 82, 92
6, 389040, Note_off_c, 3, 82, 64
6, 389040, Note_on_c, 3, 80, 92
6, 389070, Note_off_c, 3, 80, 64
6, 389070, Note_on_c, 3, 82, 92
6, 389100, Note_off_c, 3, 82, 64
6, 389100, Note_on_c, 3, 80, 92
6, 389130, Note_off_c, 3, 80, 64
6, 389130, Note_on_c, 3, 82, 92
6, 389160, Note_off_c, 3, 82, 64
6, 389160, Note_on_c, 3, 80, 92
6, 389190, Note_off_c, 3, 80, 64
6, 389190, Note_on_c, 3, 82, 92
6, 389220, Note_off_c, 3, 82, 64
6, 389220, Note_on_c, 3, 80, 92
6, 389250, Note_off_c, 3, 80, 64
6, 389250, Note_on_c, 3, 82, 92
6, 389280, Note_off_c, 3, 82, 64
6, 389280, Note_on_c, 3, 80, 92
6, 389310, Note_off_c, 3, 80, 64
6, 389310, Note_on_c, 3, 82, 92
6, 389340, Note_off_c, 3, 82, 64
6, 389340, Note_on_c, 3, 80, 92
6, 389370, Note_off_c, 3, 80, 64
6, 389370, Note_on_c, 3, 82, 92
6, 389400, Note_off_c, 3, 82, 64
6, 389400, Note_on_c, 3, 80, 92
6, 389430, Note_off_c, 3, 80, 64
6, 389430, Note_on_c, 3, 82, 92
6, 389460, Note_off_c, 3, 82, 64
6, 389460, Note_on_c, 3, 80, 92
6, 389490, Note_off_c, 3, 80, 64
6, 389490, Note_on_c, 3, 82, 92
6, 389520, Note_off_c, 3, 82, 64
6, 389520, Note_on_c, 3, 80, 92
6, 389550, Note_off_c, 3, 80, 64
6, 389550, Note_on_c, 3, 82, 92
6, 389580, Note_off_c, 3, 82, 64
6, 389580, Note_on_c, 3, 80, 92
6, 389610, Note_off_c, 3, 80, 64
6, 389610, Note_on_c, 3, 82, 92
6, 389640, Note_off_c, 3, 82, 64
6, 389640, Note_on_c, 3, 80, 92
6, 389670, Note_off_c, 3, 80, 64
6, 389670, Note_on_c, 3, 82, 92
6, 389700, Note_off_c, 3, 82, 64
6, 389700, Note_on_c, 3, 80, 92
6, 389730, Note_off_c, 3, 80, 64
6, 389730, Note_on_c, 3, 82, 92
6, 389755, Note_off_c, 3, 82, 64
6, 389760, Note_on_c, 3, 80, 92
6, 389790, Note_off_c, 3, 80, 64
6, 389790, Note_on_c, 3, 82, 92
6, 389820, Note_off_c, 3, 82, 64
6, 389820, Note_on_c, 3, 80, 92
6, 389850, Note_off_c, 3, 80, 64
6, 389850, Note_on_c, 3, 82, 92
6, 389880, Note_off_c, 3, 82, 64
6, 389880, Note_on_c, 3, 80, 92
6, 389910, Note_off_c, 3, 80, 64
6, 389910, Note_on_c, 3, 82, 92
6, 389940, Note_off_c, 3, 82, 64
6, 389940, Note_on_c, 3, 80, 92
6, 389970, Note_off_c, 3, 80, 64
6, 389970, Note_on_c, 3, 82, 92
6, 390000, Note_off_c, 3, 82, 64
6, 390000, Note_on_c, 3, 80, 92
6, 390030, Note_off_c, 3, 80, 64
6, 390030, Note_on_c, 3, 82, 92
6, 390060, Note_off_c, 3, 82, 64
6, 390060, Note_on_c, 3, 80, 92
6, 390090, Note_off_c, 3, 80, 64
6, 390090, Note_on_c, 3, 82, 92
6, 390120, Note_off_c, 3, 82, 64
6, 390120, Note_on_c, 3, 80, 92
6, 390150, Note_off_c, 3, 80, 64
6, 390150, Note_on_c, 3, 82, 92
6, 390180, Note_off_c, 3, 82, 64
6, 390180, Note_on_c, 3, 80, 92
6, 390210, Note_off_c, 3, 80, 64
6, 390210, Note_on_c, 3, 82, 92
6, 390240, Note_off_c, 3, 82, 64
6, 390240, Note_on_c, 3, 80, 92
6, 390270, Note_off_c, 3, 80, 64
6, 390270, Note_on_c, 3, 82, 92
6, 390300, Note_off_c, 3, 82, 64
6, 390300, Note_on_c, 3, 80, 92
6, 390330, Note_off_c, 3, 80, 64
6, 390330, Note_on_c, 3, 82, 92
6, 390360, Note_off_c, 3, 82, 64
6, 390360, Note_on_c, 3, 80, 92
6, 390390, Note_off_c, 3, 80, 64
6, 390390, Note_on_c, 3, 82, 92
6, 390420, Note_off_c, 3, 82, 64
6, 390420, Note_on_c, 3, 80, 92
6, 390450, Note_off_c, 3, 80, 64
6, 390450, Note_on_c, 3, 82, 92
6, 390480, Note_off_c, 3, 82, 64
6, 390480, Note_on_c, 3, 80, 92
6, 390510, Note_off_c, 3, 80, 64
6, 390510, Note_on_c, 3, 82, 92
6, 390540, Note_off_c, 3, 82, 64
6, 390540, Note_on_c, 3, 80, 92
6, 390570, Note_off_c, 3, 80, 64
6, 390570, Note_on_c, 3, 82, 92
6, 390600, Note_off_c, 3, 82, 64
6, 390600, Note_on_c, 3, 80, 92
6, 390630, Note_off_c, 3, 80, 64
6, 390630, Note_on_c, 3, 82, 92
6, 390660, Note_off_c, 3, 82, 64
6, 390660, Note_on_c, 3, 80, 92
6, 390690, Note_off_c, 3, 80, 64
6, 390690, Note_on_c, 3, 82, 92
6, 390720, Note_off_c, 3, 82, 64
6, 390720, Note_on_c, 3, 80, 92
6, 390750, Note_off_c, 3, 80, 64
6, 390750, Note_on_c, 3, 82, 92
6, 390780, Note_off_c, 3, 82, 64
6, 390780, Note_on_c, 3, 80, 92
6, 390810, Note_off_c, 3, 80, 64
6, 390810, Note_on_c, 3, 82, 92
6, 390840, Note_off_c, 3, 82, 64
6, 390840, Note_on_c, 3, 80, 92
6, 390870, Note_off_c, 3, 80, 64
6, 390870, Note_on_c, 3, 82, 92
6, 390900, Note_off_c, 3, 82, 64
6, 390900, Note_on_c, 3, 80, 92
6, 390930, Note_off_c, 3, 80, 64
6, 390930, Note_on_c, 3, 82, 92
6, 390960, Note_off_c, 3, 82, 64
6, 390960, Note_on_c, 3, 80, 92
6, 390990, Note_off_c, 3, 80, 64
6, 390990, Note_on_c, 3, 82, 92
6, 391020, Note_off_c, 3, 82, 64
6, 391020, Note_on_c, 3, 80, 92
6, 391050, Note_off_c, 3, 80, 64
6, 391050, Note_on_c, 3, 82, 92
6, 391080, Note_off_c, 3, 82, 64
6, 391080, Note_on_c, 3, 80, 92
6, 391110, Note_off_c, 3, 80, 64
6, 391110, Note_on_c, 3, 82, 92
6, 391140, Note_off_c, 3, 82, 64
6, 391140, Note_on_c, 3, 80, 92
6, 391170, Note_off_c, 3, 80, 64
6, 391170, Note_on_c, 3, 82, 92
6, 391195, Note_off_c, 3, 82, 64
6, 391200, Note_on_c, 3, 80, 92
6, 391600, Note_off_c, 3, 80, 64
6, 391680, Note_on_c, 3, 79, 92
6, 392520, Note_off_c, 3, 79, 64
6, 392640, Note_on_c, 3, 80, 92
6, 392700, Note_off_c, 3, 80, 64
6, 392700, Note_on_c, 3, 82, 92
6, 392760, Note_off_c, 3, 82, 64
6, 392760, Note_on_c, 3, 80, 92
6, 392820, Note_off_c, 3, 80, 64
6, 392820, Note_on_c, 3, 82, 92
6, 392880, Note_off_c, 3, 82, 64
6, 392880, Note_on_c, 3, 80, 92
6, 392940, Note_off_c, 3, 80, 64
6, 392940, Note_on_c, 3, 79, 92
6, 393000, Note_off_c, 3, 79, 64
6, 393000, Note_on_c, 3, 82, 92
6, 393060, Note_off_c, 3, 82, 64
6, 393060, Note_on_c, 3, 80, 92
6, 393120, Note_off_c, 3, 80, 64
6, 393120, Note_on_c, 3, 79, 92
6, 393180, Note_off_c, 3, 79, 64
6, 393180, Note_on_c, 3, 77, 92
6, 393240, Note_off_c, 3, 77, 64
6, 393240, Note_on_c, 3, 75, 92
6, 393300, Note_off_c, 3, 75, 64
6, 393300, Note_on_c, 3, 71, 92
6, 393355, Note_off_c, 3, 71, 64
6, 393360, Note_on_c, 3, 71, 92
6, 393420, Note_off_c, 3, 71, 64
6, 393420, Note_on_c, 3, 72, 92
6, 393475, Note_off_c, 3, 72, 64
6, 393480, Note_on_c, 3, 72, 92
6, 393540, Note_off_c, 3, 72, 64
6, 393540, Note_on_c, 3, 80, 92
6, 393595, Note_off_c, 3, 80, 64
6, 393600, Note_on_c, 3, 74, 92
6, 393835, Note_off_c, 3, 74, 64
6, 393840, Note_on_c, 3, 74, 92
6, 394080, Note_off_c, 3, 74, 64
6, 394080, Note_on_c, 3, 76, 92
6, 394315, Note_off_c, 3, 76, 64
6, 394320, Note_on_c, 3, 76, 92
6, 394555, Note_off_c, 3, 76, 64
6, 394800, Note_on_c, 3, 77, 92
6, 395040, Note_off_c, 3, 77, 64
6, 395040, Note_on_c, 3, 72, 92
6, 395275, Note_off_c, 3, 72, 64
6, 395280, Note_on_c, 3, 72, 92
6, 395520, Note_off_c, 3, 72, 64
6, 395520, Note_on_c, 3, 74, 92
6, 395755, Note_off_c, 3, 74, 64
6, 395760, Note_on_c, 3, 74, 92
6, 396000, Note_off_c, 3, 74, 64
6, 396000, Note_on_c, 3, 75, 92
6, 396360, Note_off_c, 3, 75, 64
6, 396360, Note_on_c, 3, 65, 92
6, 396480, Note_off_c, 3, 65, 64
6, 396480, Note_on_c, 3, 67, 92
6, 396715, Note_off_c, 3, 67, 64
6, 396720, Note_on_c, 3, 69, 92
6, 396840, Note_off_c, 3, 69, 64
6, 396840, Note_on_c, 3, 71, 92
6, 396955, Note_off_c, 3, 71, 64
6, 396960, Note_on_c, 3, 72, 92
6, 397080, Note_off_c, 3, 72, 64
6, 397080, Note_on_c, 3, 75, 92
6, 397200, Note_off_c, 3, 75, 64
6, 397200, Note_on_c, 3, 74, 92
6, 397320, Note_off_c, 3, 74, 64
6, 397320, Note_on_c, 3, 77, 92
6, 397435, Note_off_c, 3, 77, 64
6, 397440, Note_on_c, 3, 83, 92
6, 397840, Note_off_c, 3, 83, 64
6, 397920, Note_on_c, 3, 84, 92
6, 398640, Note_off_c, 3, 84, 64
6, 398640, Note_on_c, 3, 82, 92
6, 398875, Note_off_c, 3, 82, 64
6, 398880, Note_on_c, 3, 80, 92
6, 400200, Note_off_c, 3, 80, 64
6, 400320, Note_on_c, 3, 79, 92
6, 401640, Note_off_c, 3, 79, 64
6, 401760, Note_on_c, 3, 77, 92
6, 403080, Note_off_c, 3, 77, 64
6, 403200, Note_on_c, 3, 75, 92
6, 404040, Note_off_c, 3, 75, 64
6, 404160, Note_on_c, 3, 77, 92
6, 404755, Note_off_c, 3, 77, 64
6, 404760, Note_on_c, 3, 79, 92
6, 404880, Note_off_c, 3, 79, 64
6, 404880, Note_on_c, 3, 77, 92
6, 405000, Note_off_c, 3, 77, 64
6, 405000, Note_on_c, 3, 79, 92
6, 405115, Note_off_c, 3, 79, 64
6, 405120, Note_on_c, 3, 71, 92
6, 405360, Note_off_c, 3, 71, 64
6, 405360, Note_on_c, 3, 74, 92
6, 405600, Note_off_c, 3, 74, 64
6, 405600, Note_on_c, 3, 72, 92
6, 405835, Note_off_c, 3, 72, 64
6, 405840, Note_on_c, 3, 72, 92
6, 406080, Note_off_c, 3, 72, 64
6, 406080, Note_on_c, 3, 74, 92
6, 406195, Note_off_c, 3, 74, 64
6, 406200, Note_on_c, 3, 79, 127
6, 406315, Note_off_c, 3, 79, 64
6, 406320, Note_on_c, 3, 77, 127
6, 406435, Note_off_c, 3, 77, 64
6, 406440, Note_on_c, 3, 79, 127
6, 406555, Note_off_c, 3, 79, 64
6, 406560, Note_on_c, 3, 74, 127
6, 406795, Note_off_c, 3, 74, 64
6, 406800, Note_on_c, 3, 74, 92
6, 407035, Note_off_c, 3, 74, 64
6, 407040, Note_on_c, 3, 75, 92
6, 407275, Note_off_c, 3, 75, 64
6, 407280, Note_on_c, 3, 75, 92
6, 407520, Note_off_c, 3, 75, 64
6, 407520, Note_on_c, 3, 77, 92
6, 407635, Note_off_c, 3, 77, 64
6, 407640, Note_on_c, 3, 79, 127
6, 407755, Note_off_c, 3, 79, 64
6, 407760, Note_on_c, 3, 77, 127
6, 407875, Note_off_c, 3, 77, 64
6, 407880, Note_on_c, 3, 79, 127
6, 407995, Note_off_c, 3, 79, 64
6, 408000, Note_on_c, 3, 74, 127
6, 408235, Note_off_c, 3, 74, 64
6, 408240, Note_on_c, 3, 79, 92
6, 408475, Note_off_c, 3, 79, 64
6, 408480, Note_on_c, 3, 79, 92
6, 408715, Note_off_c, 3, 79, 64
6, 408720, Note_on_c, 3, 79, 92
6, 409075, Note_off_c, 3, 79, 64
6, 409080, Note_on_c, 3, 79, 127
6, 409195, Note_off_c, 3, 79, 64
6, 409200, Note_on_c, 3, 77, 127
6, 409315, Note_off_c, 3, 77, 64
6, 409320, Note_on_c, 3, 79, 127
6, 409435, Note_off_c, 3, 79, 64
6, 409440, Note_on_c, 3, 74, 127
6, 409675, Note_off_c, 3, 74, 64
6, 409680, Note_on_c, 3, 79, 92
6, 409915, Note_off_c, 3, 79, 64
6, 409920, Note_on_c, 3, 79, 92
6, 410155, Note_off_c, 3, 79, 64
6, 410160, Note_on_c, 3, 79, 92
6, 410395, Note_off_c, 3, 79, 64
6, 410400, Note_on_c, 3, 77, 92
6, 410800, Note_off_c, 3, 77, 64
6, 411120, Note_on_c, 3, 79, 92
6, 411355, Note_off_c, 3, 79, 64
6, 411360, Note_on_c, 3, 79, 92
6, 411480, Note_off_c, 3, 79, 64
6, 411480, Note_on_c, 3, 80, 92
6, 411600, Note_off_c, 3, 80, 64
6, 411600, Note_on_c, 3, 77, 92
6, 411720, Note_off_c, 3, 77, 64
6, 411720, Note_on_c, 3, 79, 92
6, 411840, Note_off_c, 3, 79, 64
6, 411840, Note_on_c, 3, 80, 92
6, 412240, Note_off_c, 3, 80, 64
6, 412320, Note_on_c, 3, 79, 92
6, 413035, Note_off_c, 3, 79, 64
6, 413040, Note_on_c, 3, 77, 92
6, 413275, Note_off_c, 3, 77, 64
6, 413280, Note_on_c, 3, 76, 92
6, 413400, Note_off_c, 3, 76, 64
6, 413400, Note_on_c, 3, 79, 92
6, 413520, Note_off_c, 3, 79, 64
6, 413520, Note_on_c, 3, 77, 92
6, 413640, Note_off_c, 3, 77, 64
6, 413640, Note_on_c, 3, 80, 92
6, 413760, Note_off_c, 3, 80, 64
6, 413760, Note_on_c, 3, 79, 92
6, 414000, Note_off_c, 3, 79, 64
6, 414000, Note_on_c, 3, 84, 92
6, 414240, Note_off_c, 3, 84, 64
6, 414240, Note_on_c, 3, 84, 92
6, 414480, Note_off_c, 3, 84, 64
6, 414480, Note_on_c, 3, 84, 92
6, 414720, Note_off_c, 3, 84, 64
6, 414840, Note_on_c, 3, 84, 127
6, 414955, Note_off_c, 3, 84, 64
6, 414960, Note_on_c, 3, 82, 127
6, 415075, Note_off_c, 3, 82, 64
6, 415080, Note_on_c, 3, 84, 127
6, 415195, Note_off_c, 3, 84, 64
6, 415200, Note_on_c, 3, 79, 127
6, 415435, Note_off_c, 3, 79, 64
6, 415440, Note_on_c, 3, 79, 92
6, 415680, Note_off_c, 3, 79, 64
6, 415680, Note_on_c, 3, 80, 92
6, 415920, Note_off_c, 3, 80, 64
6, 415920, Note_on_c, 3, 80, 92
6, 416160, Note_off_c, 3, 80, 64
6, 416160, Note_on_c, 3, 82, 92
6, 416280, Note_off_c, 3, 82, 64
6, 416280, Note_on_c, 3, 84, 127
6, 416395, Note_off_c, 3, 84, 64
6, 416400, Note_on_c, 3, 82, 127
6, 416515, Note_off_c, 3, 82, 64
6, 416520, Note_on_c, 3, 84, 127
6, 416635, Note_off_c, 3, 84, 64
6, 416640, Note_on_c, 3, 79, 127
6, 416875, Note_off_c, 3, 79, 64
6, 416880, Note_on_c, 3, 84, 92
6, 417120, Note_off_c, 3, 84, 64
6, 417120, Note_on_c, 3, 84, 92
6, 417360, Note_off_c, 3, 84, 64
6, 417360, Note_on_c, 3, 84, 92
6, 417600, Note_off_c, 3, 84, 64
6, 417720, Note_on_c, 3, 85, 127
6, 417835, Note_off_c, 3, 85, 64
6, 417840, Note_on_c, 3, 84, 127
6, 417955, Note_off_c, 3, 84, 64
6, 417960, Note_on_c, 3, 85, 127
6, 418075, Note_off_c, 3, 85, 64
6, 418080, Note_on_c, 3, 82, 92
6, 418795, Note_off_c, 3, 82, 64
6, 418800, Note_on_c, 3, 80, 92
6, 419155, Note_off_c, 3, 80, 64
6, 419160, Note_on_c, 3, 80, 127
6, 419275, Note_off_c, 3, 80, 64
6, 419280, Note_on_c, 3, 79, 127
6, 419395, Note_off_c, 3, 79, 64
6, 419400, Note_on_c, 3, 80, 127
6, 419515, Note_off_c, 3, 80, 64
6, 419520, Note_on_c, 3, 74, 92
6, 419640, Note_off_c, 3, 74, 64
6, 419640, Note_on_c, 3, 77, 92
6, 419760, Note_off_c, 3, 77, 64
6, 419760, Note_on_c, 3, 76, 92
6, 419880, Note_off_c, 3, 76, 64
6, 419880, Note_on_c, 3, 77, 92
6, 420000, Note_off_c, 3, 77, 64
6, 420000, Note_on_c, 3, 74, 92
6, 420120, Note_off_c, 3, 74, 64
6, 420120, Note_on_c, 3, 77, 92
6, 420240, Note_off_c, 3, 77, 64
6, 420240, Note_on_c, 3, 74, 92
6, 420360, Note_off_c, 3, 74, 64
6, 420360, Note_on_c, 3, 77, 92
6, 420480, Note_off_c, 3, 77, 64
6, 420480, Note_on_c, 3, 76, 92
6, 421800, Note_off_c, 3, 76, 64
6, 421800, End_track
7, 0, Start_track
7, 0, MIDI_port, 0
7, 0, Channel_prefix, 3
7, 0, Control_c, 3, 7, 105
7, 0, Control_c, 3, 10, 48
7, 0, Control_c, 3, 91, 50
7, 0, Program_c, 3, 71
7, 24240, Note_on_c, 3, 63, 30
7, 24720, Note_off_c, 3, 63, 64
7, 24720, Note_on_c, 3, 62, 30
7, 25360, Note_off_c, 3, 62, 64
7, 25680, Note_on_c, 3, 61, 30
7, 26160, Note_off_c, 3, 61, 64
7, 26160, Note_on_c, 3, 60, 30
7, 26800, Note_off_c, 3, 60, 64
7, 27120, Note_on_c, 3, 59, 30
7, 27600, Note_off_c, 3, 59, 64
7, 27600, Note_on_c, 3, 60, 30
7, 28240, Note_off_c, 3, 60, 64
7, 28560, Note_on_c, 3, 60, 30
7, 29160, Note_off_c, 3, 60, 64
7, 29160, Note_on_c, 3, 62, 30
7, 29280, Note_off_c, 3, 62, 64
7, 29280, Note_on_c, 3, 59, 30
7, 29680, Note_off_c, 3, 59, 64
7, 30000, Note_on_c, 3, 56, 30
7, 30480, Note_off_c, 3, 56, 64
7, 30480, Note_on_c, 3, 55, 30
7, 31120, Note_off_c, 3, 55, 64
7, 31440, Note_on_c, 3, 53, 30
7, 32160, Note_off_c, 3, 53, 64
7, 32160, Note_on_c, 3, 51, 30
7, 32560, Note_off_c, 3, 51, 64
7, 32880, Note_on_c, 3, 56, 30
7, 33960, Note_off_c, 3, 56, 64
7, 34080, Note_on_c, 3, 55, 30
7, 34440, Note_off_c, 3, 55, 64
7, 34440, Note_on_c, 3, 53, 30
7, 34560, Note_off_c, 3, 53, 64
7, 34560, Note_on_c, 3, 51, 30
7, 34960, Note_off_c, 3, 51, 64
7, 58320, Note_on_c, 3, 67, 60
7, 58440, Note_off_c, 3, 67, 64
7, 58440, Note_on_c, 3, 55, 60
7, 58555, Note_off_c, 3, 55, 64
7, 58560, Note_on_c, 3, 60, 60
7, 59040, Note_off_c, 3, 60, 64
7, 59040, Note_on_c, 3, 59, 60
7, 59440, Note_off_c, 3, 59, 64
7, 59760, Note_on_c, 3, 59, 60
7, 59880, Note_off_c, 3, 59, 64
7, 59880, Note_on_c, 3, 55, 60
7, 59995, Note_off_c, 3, 55, 64
7, 60000, Note_on_c, 3, 60, 60
7, 60880, Note_off_c, 3, 60, 64
7, 61200, Note_on_c, 3, 62, 60
7, 61320, Note_off_c, 3, 62, 64
7, 61320, Note_on_c, 3, 57, 60
7, 61435, Note_off_c, 3, 57, 64
7, 61440, Note_on_c, 3, 59, 60
7, 61920, Note_off_c, 3, 59, 64
7, 61920, Note_on_c, 3, 60, 60
7, 62320, Note_off_c, 3, 60, 64
7, 62640, Note_on_c, 3, 72, 60
7, 62760, Note_off_c, 3, 72, 64
7, 62760, Note_on_c, 3, 60, 60
7, 62875, Note_off_c, 3, 60, 64
7, 62880, Note_on_c, 3, 65, 60
7, 63360, Note_off_c, 3, 65, 64
7, 63360, Note_on_c, 3, 62, 60
7, 63760, Note_off_c, 3, 62, 64
7, 64080, Note_on_c, 3, 62, 60
7, 64200, Note_off_c, 3, 62, 64
7, 64200, Note_on_c, 3, 50, 60
7, 64315, Note_off_c, 3, 50, 64
7, 64320, Note_on_c, 3, 55, 60
7, 64560, Note_off_c, 3, 55, 64
7, 64560, Note_on_c, 3, 62, 60
7, 64800, Note_off_c, 3, 62, 64
7, 64800, Note_on_c, 3, 60, 60
7, 65200, Note_off_c, 3, 60, 64
7, 65520, Note_on_c, 3, 67, 60
7, 65640, Note_off_c, 3, 67, 64
7, 65640, Note_on_c, 3, 55, 60
7, 65755, Note_off_c, 3, 55, 64
7, 65760, Note_on_c, 3, 60, 60
7, 65995, Note_off_c, 3, 60, 64
7, 66000, Note_on_c, 3, 59, 60
7, 66120, Note_off_c, 3, 59, 64
7, 66120, Note_on_c, 3, 62, 60
7, 66240, Note_off_c, 3, 62, 64
7, 66240, Note_on_c, 3, 60, 60
7, 66640, Note_off_c, 3, 60, 64
7, 66960, Note_on_c, 3, 72, 60
7, 67080, Note_off_c, 3, 72, 64
7, 67080, Note_on_c, 3, 60, 60
7, 67200, Note_off_c, 3, 60, 64
7, 67200, Note_on_c, 3, 65, 60
7, 67560, Note_off_c, 3, 65, 64
7, 67560, Note_on_c, 3, 63, 60
7, 67680, Note_off_c, 3, 63, 64
7, 67680, Note_on_c, 3, 62, 60
7, 68080, Note_off_c, 3, 62, 64
7, 68880, Note_on_c, 3, 67, 60
7, 69000, Note_off_c, 3, 67, 64
7, 69000, Note_on_c, 3, 62, 60
7, 69120, Note_off_c, 3, 62, 64
7, 69120, Note_on_c, 3, 63, 60
7, 69235, Note_off_c, 3, 63, 64
7, 69240, Note_on_c, 3, 55, 60
7, 69360, Note_off_c, 3, 55, 64
7, 69360, Note_on_c, 3, 57, 60
7, 69480, Note_off_c, 3, 57, 64
7, 69480, Note_on_c, 3, 59, 60
7, 69600, Note_off_c, 3, 59, 64
7, 69600, Note_on_c, 3, 60, 60
7, 69960, Note_off_c, 3, 60, 64
7, 69960, Note_on_c, 3, 62, 60
7, 70080, Note_off_c, 3, 62, 64
7, 70080, Note_on_c, 3, 63, 60
7, 70480, Note_off_c, 3, 63, 64
7, 70680, Note_on_c, 3, 62, 60
7, 70800, Note_off_c, 3, 62, 64
7, 70800, Note_on_c, 3, 63, 60
7, 70920, Note_off_c, 3, 63, 64
7, 70920, Note_on_c, 3, 65, 60
7, 71040, Note_off_c, 3, 65, 64
7, 71040, Note_on_c, 3, 67, 60
7, 71880, Note_off_c, 3, 67, 64
7, 72120, Note_on_c, 3, 60, 60
7, 72240, Note_off_c, 3, 60, 64
7, 72240, Note_on_c, 3, 62, 60
7, 72360, Note_off_c, 3, 62, 64
7, 72360, Note_on_c, 3, 63, 60
7, 72480, Note_off_c, 3, 63, 64
7, 72480, Note_on_c, 3, 65, 60
7, 72840, Note_off_c, 3, 65, 64
7, 72840, Note_on_c, 3, 63, 60
7, 72960, Note_off_c, 3, 63, 64
7, 72960, Note_on_c, 3, 62, 60
7, 73200, Note_off_c, 3, 62, 64
7, 73200, Note_on_c, 3, 65, 60
7, 73435, Note_off_c, 3, 65, 64
7, 73440, Note_on_c, 3, 63, 60
7, 73555, Note_off_c, 3, 63, 64
7, 73560, Note_on_c, 3, 60, 60
7, 73680, Note_off_c, 3, 60, 64
7, 73680, Note_on_c, 3, 62, 60
7, 73800, Note_off_c, 3, 62, 64
7, 73800, Note_on_c, 3, 63, 60
7, 73920, Note_off_c, 3, 63, 64
7, 73920, Note_on_c, 3, 65, 60
7, 74280, Note_off_c, 3, 65, 64
7, 74280, Note_on_c, 3, 67, 60
7, 74400, Note_off_c, 3, 67, 64
7, 74400, Note_on_c, 3, 68, 60
7, 74640, Note_off_c, 3, 68, 64
7, 74640, Note_on_c, 3, 65, 60
7, 74880, Note_off_c, 3, 65, 64
7, 74880, Note_on_c, 3, 62, 60
7, 74995, Note_off_c, 3, 62, 64
7, 75000, Note_on_c, 3, 62, 60
7, 75120, Note_off_c, 3, 62, 64
7, 75120, Note_on_c, 3, 63, 60
7, 75240, Note_off_c, 3, 63, 64
7, 75240, Note_on_c, 3, 65, 60
7, 75360, Note_off_c, 3, 65, 64
7, 75360, Note_on_c, 3, 67, 60
7, 75715, Note_off_c, 3, 67, 64
7, 75720, Note_on_c, 3, 57, 60
7, 75840, Note_off_c, 3, 57, 64
7, 75840, Note_on_c, 3, 59, 60
7, 76240, Note_off_c, 3, 59, 64
7, 76440, Note_on_c, 3, 55, 60
7, 76560, Note_off_c, 3, 55, 64
7, 76560, Note_on_c, 3, 57, 60
7, 76680, Note_off_c, 3, 57, 64
7, 76680, Note_on_c, 3, 59, 60
7, 76800, Note_off_c, 3, 59, 64
7, 76800, Note_on_c, 3, 60, 60
7, 77280, Note_off_c, 3, 60, 64
7, 77280, Note_on_c, 3, 62, 60
7, 77680, Note_off_c, 3, 62, 64
7, 77880, Note_on_c, 3, 55, 60
7, 78000, Note_off_c, 3, 55, 64
7, 78000, Note_on_c, 3, 57, 60
7, 78120, Note_off_c, 3, 57, 64
7, 78120, Note_on_c, 3, 59, 60
7, 78240, Note_off_c, 3, 59, 64
7, 78240, Note_on_c, 3, 60, 60
7, 79795, Note_off_c, 3, 60, 64
7, 79800, Note_on_c, 3, 60, 60
7, 79920, Note_off_c, 3, 60, 64
7, 79920, Note_on_c, 3, 59, 60
7, 80040, Note_off_c, 3, 59, 64
7, 80040, Note_on_c, 3, 57, 60
7, 80160, Note_off_c, 3, 57, 64
7, 80160, Note_on_c, 3, 59, 60
7, 80640, Note_off_c, 3, 59, 64
7, 80640, Note_on_c, 3, 60, 60
7, 81040, Note_off_c, 3, 60, 64
7, 81720, Note_on_c, 3, 67, 60
7, 81840, Note_off_c, 3, 67, 64
7, 81840, Note_on_c, 3, 65, 60
7, 81960, Note_off_c, 3, 65, 64
7, 81960, Note_on_c, 3, 63, 60
7, 82080, Note_off_c, 3, 63, 64
7, 82080, Note_on_c, 3, 62, 60
7, 82480, Note_off_c, 3, 62, 64
7, 83160, Note_on_c, 3, 65, 60
7, 83280, Note_off_c, 3, 65, 64
7, 83280, Note_on_c, 3, 63, 60
7, 83400, Note_off_c, 3, 63, 64
7, 83400, Note_on_c, 3, 62, 60
7, 83520, Note_off_c, 3, 62, 64
7, 83520, Note_on_c, 3, 60, 60
7, 83920, Note_off_c, 3, 60, 64
7, 84120, Note_on_c, 3, 67, 60
7, 84240, Note_off_c, 3, 67, 64
7, 84240, Note_on_c, 3, 65, 60
7, 84360, Note_off_c, 3, 65, 64
7, 84360, Note_on_c, 3, 63, 60
7, 84480, Note_off_c, 3, 63, 64
7, 84480, Note_on_c, 3, 62, 60
7, 84600, Note_off_c, 3, 62, 64
7, 84600, Note_on_c, 3, 65, 60
7, 84720, Note_off_c, 3, 65, 64
7, 84720, Note_on_c, 3, 63, 60
7, 84840, Note_off_c, 3, 63, 64
7, 84840, Note_on_c, 3, 62, 60
7, 84960, Note_off_c, 3, 62, 64
7, 84960, Note_on_c, 3, 60, 60
7, 85360, Note_off_c, 3, 60, 64
7, 85560, Note_on_c, 3, 67, 60
7, 85680, Note_off_c, 3, 67, 64
7, 85680, Note_on_c, 3, 65, 60
7, 85800, Note_off_c, 3, 65, 64
7, 85800, Note_on_c, 3, 63, 60
7, 85920, Note_off_c, 3, 63, 64
7, 85920, Note_on_c, 3, 62, 60
7, 86040, Note_off_c, 3, 62, 64
7, 86040, Note_on_c, 3, 63, 60
7, 86160, Note_off_c, 3, 63, 64
7, 86160, Note_on_c, 3, 62, 60
7, 86280, Note_off_c, 3, 62, 64
7, 86280, Note_on_c, 3, 60, 60
7, 86400, Note_off_c, 3, 60, 64
7, 86400, Note_on_c, 3, 59, 60
7, 86800, Note_off_c, 3, 59, 64
7, 87480, Note_on_c, 3, 68, 60
7, 87600, Note_off_c, 3, 68, 64
7, 87600, Note_on_c, 3, 67, 60
7, 87720, Note_off_c, 3, 67, 64
7, 87720, Note_on_c, 3, 65, 60
7, 87840, Note_off_c, 3, 65, 64
7, 87840, Note_on_c, 3, 67, 60
7, 88240, Note_off_c, 3, 67, 64
7, 88800, Note_on_c, 3, 62, 60
7, 88920, Note_off_c, 3, 62, 64
7, 88920, Note_on_c, 3, 60, 60
7, 89040, Note_off_c, 3, 60, 64
7, 89040, Note_on_c, 3, 59, 60
7, 89160, Note_off_c, 3, 59, 64
7, 89160, Note_on_c, 3, 56, 60
7, 89280, Note_off_c, 3, 56, 64
7, 89280, Note_on_c, 3, 55, 60
7, 89680, Note_off_c, 3, 55, 64
7, 90360, Note_on_c, 3, 63, 60
7, 90480, Note_off_c, 3, 63, 64
7, 90480, Note_on_c, 3, 62, 60
7, 90600, Note_off_c, 3, 62, 64
7, 90600, Note_on_c, 3, 60, 60
7, 90720, Note_off_c, 3, 60, 64
7, 90720, Note_on_c, 3, 59, 60
7, 91120, Note_off_c, 3, 59, 64
7, 91800, Note_on_c, 3, 68, 60
7, 91920, Note_off_c, 3, 68, 64
7, 91920, Note_on_c, 3, 67, 60
7, 92040, Note_off_c, 3, 67, 64
7, 92040, Note_on_c, 3, 65, 60
7, 92160, Note_off_c, 3, 65, 64
7, 92160, Note_on_c, 3, 63, 60
7, 92275, Note_off_c, 3, 63, 64
7, 92280, Note_on_c, 3, 60, 60
7, 92400, Note_off_c, 3, 60, 64
7, 92400, Note_on_c, 3, 58, 60
7, 92520, Note_off_c, 3, 58, 64
7, 92520, Note_on_c, 3, 56, 60
7, 92635, Note_off_c, 3, 56, 64
7, 92640, Note_on_c, 3, 67, 60
7, 92760, Note_off_c, 3, 67, 64
7, 92760, Note_on_c, 3, 65, 60
7, 92880, Note_off_c, 3, 65, 64
7, 92880, Note_on_c, 3, 63, 60
7, 93000, Note_off_c, 3, 63, 64
7, 93000, Note_on_c, 3, 62, 60
7, 93120, Note_off_c, 3, 62, 64
7, 93120, Note_on_c, 3, 60, 60
7, 93235, Note_off_c, 3, 60, 64
7, 93240, Note_on_c, 3, 63, 60
7, 93360, Note_off_c, 3, 63, 64
7, 93360, Note_on_c, 3, 62, 60
7, 93480, Note_off_c, 3, 62, 64
7, 93480, Note_on_c, 3, 60, 60
7, 93600, Note_off_c, 3, 60, 64
7, 93600, Note_on_c, 3, 59, 60
7, 94195, Note_off_c, 3, 59, 64
7, 94200, Note_on_c, 3, 60, 60
7, 94320, Note_off_c, 3, 60, 64
7, 94320, Note_on_c, 3, 59, 60
7, 94440, Note_off_c, 3, 59, 64
7, 94440, Note_on_c, 3, 57, 60
7, 94560, Note_off_c, 3, 57, 64
7, 94560, Note_on_c, 3, 55, 60
7, 94680, Note_off_c, 3, 55, 64
7, 94680, Note_on_c, 3, 63, 60
7, 94800, Note_off_c, 3, 63, 64
7, 94800, Note_on_c, 3, 65, 60
7, 94920, Note_off_c, 3, 65, 64
7, 94920, Note_on_c, 3, 67, 60
7, 95040, Note_off_c, 3, 67, 64
7, 95040, Note_on_c, 3, 68, 60
7, 95395, Note_off_c, 3, 68, 64
7, 95400, Note_on_c, 3, 58, 60
7, 95520, Note_off_c, 3, 58, 64
7, 95520, Note_on_c, 3, 60, 60
7, 95920, Note_off_c, 3, 60, 64
7, 96120, Note_on_c, 3, 55, 60
7, 96240, Note_off_c, 3, 55, 64
7, 96240, Note_on_c, 3, 57, 60
7, 96360, Note_off_c, 3, 57, 64
7, 96360, Note_on_c, 3, 59, 60
7, 96480, Note_off_c, 3, 59, 64
7, 96480, Note_on_c, 3, 60, 60
7, 96600, Note_off_c, 3, 60, 64
7, 96600, Note_on_c, 3, 61, 60
7, 96720, Note_off_c, 3, 61, 64
7, 96720, Note_on_c, 3, 60, 60
7, 96840, Note_off_c, 3, 60, 64
7, 96840, Note_on_c, 3, 58, 60
7, 96960, Note_off_c, 3, 58, 64
7, 96960, Note_on_c, 3, 56, 60
7, 97080, Note_off_c, 3, 56, 64
7, 97080, Note_on_c, 3, 60, 60
7, 97200, Note_off_c, 3, 60, 64
7, 97200, Note_on_c, 3, 62, 60
7, 97320, Note_off_c, 3, 62, 64
7, 97320, Note_on_c, 3, 63, 60
7, 97440, Note_off_c, 3, 63, 64
7, 97440, Note_on_c, 3, 65, 60
7, 97560, Note_off_c, 3, 65, 64
7, 97560, Note_on_c, 3, 67, 60
7, 97680, Note_off_c, 3, 67, 64
7, 97680, Note_on_c, 3, 65, 60
7, 97800, Note_off_c, 3, 65, 64
7, 97800, Note_on_c, 3, 63, 60
7, 97915, Note_off_c, 3, 63, 64
7, 97920, Note_on_c, 3, 62, 60
7, 98515, Note_off_c, 3, 62, 64
7, 98520, Note_on_c, 3, 63, 60
7, 98640, Note_off_c, 3, 63, 64
7, 98640, Note_on_c, 3, 62, 60
7, 98760, Note_off_c, 3, 62, 64
7, 98760, Note_on_c, 3, 60, 60
7, 98880, Note_off_c, 3, 60, 64
7, 98880, Note_on_c, 3, 59, 60
7, 99000, Note_off_c, 3, 59, 64
7, 99000, Note_on_c, 3, 60, 60
7, 99120, Note_off_c, 3, 60, 64
7, 99120, Note_on_c, 3, 59, 60
7, 99240, Note_off_c, 3, 59, 64
7, 99240, Note_on_c, 3, 57, 60
7, 99360, Note_off_c, 3, 57, 64
7, 99360, Note_on_c, 3, 55, 60
7, 99760, Note_off_c, 3, 55, 64
7, 99960, Note_on_c, 3, 60, 60
7, 100080, Note_off_c, 3, 60, 64
7, 100080, Note_on_c, 3, 62, 60
7, 100200, Note_off_c, 3, 62, 64
7, 100200, Note_on_c, 3, 63, 60
7, 100320, Note_off_c, 3, 63, 64
7, 100320, Note_on_c, 3, 65, 60
7, 100440, Note_off_c, 3, 65, 64
7, 100440, Note_on_c, 3, 68, 60
7, 100560, Note_off_c, 3, 68, 64
7, 100560, Note_on_c, 3, 67, 60
7, 100680, Note_off_c, 3, 67, 64
7, 100680, Note_on_c, 3, 65, 60
7, 100800, Note_off_c, 3, 65, 64
7, 100800, Note_on_c, 3, 63, 60
7, 101200, Note_off_c, 3, 63, 64
7, 101400, Note_on_c, 3, 63, 60
7, 101520, Note_off_c, 3, 63, 64
7, 101520, Note_on_c, 3, 65, 60
7, 101640, Note_off_c, 3, 65, 64
7, 101640, Note_on_c, 3, 67, 60
7, 101755, Note_off_c, 3, 67, 64
7, 101760, Note_on_c, 3, 68, 60
7, 102240, Note_off_c, 3, 68, 64
7, 102240, Note_on_c, 3, 67, 62
7, 102475, Note_off_c, 3, 67, 64
7, 102480, Note_on_c, 3, 69, 63
7, 102600, Note_off_c, 3, 69, 64
7, 102600, Note_on_c, 3, 71, 63
7, 102720, Note_off_c, 3, 71, 64
7, 102720, Note_on_c, 3, 72, 63
7, 102840, Note_off_c, 3, 72, 64
7, 102840, Note_on_c, 3, 60, 63
7, 102960, Note_off_c, 3, 60, 64
7, 102960, Note_on_c, 3, 62, 63
7, 103080, Note_off_c, 3, 62, 64
7, 103080, Note_on_c, 3, 63, 63
7, 103195, Note_off_c, 3, 63, 64
7, 103200, Note_on_c, 3, 65, 63
7, 103320, Note_off_c, 3, 65, 64
7, 103320, Note_on_c, 3, 68, 64
7, 103440, Note_off_c, 3, 68, 64
7, 103440, Note_on_c, 3, 67, 65
7, 103560, Note_off_c, 3, 67, 64
7, 103560, Note_on_c, 3, 65, 66
7, 103680, Note_off_c, 3, 65, 64
7, 103680, Note_on_c, 3, 63, 67
7, 103915, Note_off_c, 3, 63, 64
7, 103920, Note_on_c, 3, 60, 69
7, 104155, Note_off_c, 3, 60, 64
7, 104280, Note_on_c, 3, 55, 72
7, 104400, Note_off_c, 3, 55, 64
7, 104400, Note_on_c, 3, 59, 73
7, 104520, Note_off_c, 3, 59, 64
7, 104520, Note_on_c, 3, 55, 74
7, 104635, Note_off_c, 3, 55, 64
7, 104640, Note_on_c, 3, 60, 75
7, 104700, Note_off_c, 3, 60, 64
7, 104700, Note_on_c, 3, 62, 75
7, 104760, Note_off_c, 3, 62, 64
7, 104760, Note_on_c, 3, 60, 75
7, 105120, Note_off_c, 3, 60, 64
7, 105120, Note_on_c, 3, 59, 75
7, 105520, Note_off_c, 3, 59, 64
7, 105720, Note_on_c, 3, 55, 75
7, 105840, Note_off_c, 3, 55, 64
7, 105840, Note_on_c, 3, 59, 75
7, 105960, Note_off_c, 3, 59, 64
7, 105960, Note_on_c, 3, 55, 75
7, 106080, Note_off_c, 3, 55, 64
7, 106080, Note_on_c, 3, 60, 75
7, 106480, Note_off_c, 3, 60, 64
7, 106680, Note_on_c, 3, 60, 75
7, 106800, Note_off_c, 3, 60, 64
7, 106800, Note_on_c, 3, 63, 75
7, 106920, Note_off_c, 3, 63, 64
7, 106920, Note_on_c, 3, 60, 75
7, 107040, Note_off_c, 3, 60, 64
7, 107040, Note_on_c, 3, 65, 75
7, 107520, Note_off_c, 3, 65, 64
7, 107520, Note_on_c, 3, 67, 75
7, 107920, Note_off_c, 3, 67, 64
7, 108600, Note_on_c, 3, 60, 75
7, 108720, Note_off_c, 3, 60, 64
7, 108720, Note_on_c, 3, 63, 75
7, 108840, Note_off_c, 3, 63, 64
7, 108840, Note_on_c, 3, 60, 75
7, 108960, Note_off_c, 3, 60, 64
7, 108960, Note_on_c, 3, 65, 75
7, 109360, Note_off_c, 3, 65, 64
7, 109440, Note_on_c, 3, 62, 75
7, 109560, Note_off_c, 3, 62, 64
7, 109560, Note_on_c, 3, 55, 75
7, 109680, Note_off_c, 3, 55, 64
7, 109680, Note_on_c, 3, 59, 75
7, 109800, Note_off_c, 3, 59, 64
7, 109800, Note_on_c, 3, 55, 75
7, 109920, Note_off_c, 3, 55, 64
7, 109920, Note_on_c, 3, 62, 75
7, 110040, Note_off_c, 3, 62, 64
7, 110040, Note_on_c, 3, 59, 75
7, 110160, Note_off_c, 3, 59, 64
7, 110160, Note_on_c, 3, 62, 75
7, 110280, Note_off_c, 3, 62, 64
7, 110280, Note_on_c, 3, 59, 75
7, 110395, Note_off_c, 3, 59, 64
7, 110400, Note_on_c, 3, 65, 75
7, 110880, Note_off_c, 3, 65, 64
7, 110880, Note_on_c, 3, 67, 75
7, 110995, Note_off_c, 3, 67, 64
7, 111000, Note_on_c, 3, 55, 75
7, 111120, Note_off_c, 3, 55, 64
7, 111120, Note_on_c, 3, 59, 75
7, 111240, Note_off_c, 3, 59, 64
7, 111240, Note_on_c, 3, 55, 75
7, 111360, Note_off_c, 3, 55, 64
7, 111360, Note_on_c, 3, 60, 75
7, 111760, Note_off_c, 3, 60, 64
7, 112440, Note_on_c, 3, 55, 75
7, 112560, Note_off_c, 3, 55, 64
7, 112560, Note_on_c, 3, 59, 75
7, 112680, Note_off_c, 3, 59, 64
7, 112680, Note_on_c, 3, 55, 75
7, 112800, Note_off_c, 3, 55, 64
7, 112800, Note_on_c, 3, 60, 75
7, 113200, Note_off_c, 3, 60, 64
7, 113880, Note_on_c, 3, 55, 75
7, 114000, Note_off_c, 3, 55, 64
7, 114000, Note_on_c, 3, 59, 75
7, 114120, Note_off_c, 3, 59, 64
7, 114120, Note_on_c, 3, 55, 75
7, 114235, Note_off_c, 3, 55, 64
7, 114240, Note_on_c, 3, 60, 75
7, 115075, Note_off_c, 3, 60, 64
7, 115080, Note_on_c, 3, 59, 75
7, 115200, Note_off_c, 3, 59, 64
7, 115200, Note_on_c, 3, 60, 76
7, 115600, Note_off_c, 3, 60, 64
7, 116160, Note_on_c, 3, 63, 92
7, 116560, Note_off_c, 3, 63, 64
7, 116640, Note_on_c, 3, 62, 92
7, 117040, Note_off_c, 3, 62, 64
7, 117600, Note_on_c, 3, 60, 92
7, 118000, Note_off_c, 3, 60, 64
7, 118080, Note_on_c, 3, 60, 92
7, 118480, Note_off_c, 3, 60, 64
7, 119040, Note_on_c, 3, 62, 92
7, 119440, Note_off_c, 3, 62, 64
7, 119520, Note_on_c, 3, 60, 92
7, 119920, Note_off_c, 3, 60, 64
7, 120480, Note_on_c, 3, 56, 92
7, 120880, Note_off_c, 3, 56, 64
7, 120960, Note_on_c, 3, 55, 92
7, 121360, Note_off_c, 3, 55, 64
7, 121920, Note_on_c, 3, 53, 92
7, 122320, Note_off_c, 3, 53, 64
7, 122400, Note_on_c, 3, 55, 92
7, 122800, Note_off_c, 3, 55, 64
7, 123360, Note_on_c, 3, 55, 92
7, 123760, Note_off_c, 3, 55, 64
7, 123840, Note_on_c, 3, 60, 92
7, 124240, Note_off_c, 3, 60, 64
7, 124800, Note_on_c, 3, 56, 92
7, 125200, Note_off_c, 3, 56, 64
7, 125280, Note_on_c, 3, 55, 92
7, 125680, Note_off_c, 3, 55, 64
7, 126240, Note_on_c, 3, 59, 92
7, 126640, Note_off_c, 3, 59, 64
7, 126720, Note_on_c, 3, 55, 75
7, 127120, Note_off_c, 3, 55, 64
7, 150720, Note_on_c, 3, 72, 45
7, 151200, Note_off_c, 3, 72, 64
7, 151200, Note_on_c, 3, 67, 45
7, 151320, Note_off_c, 3, 67, 64
7, 151320, Note_on_c, 3, 71, 45
7, 151440, Note_off_c, 3, 71, 64
7, 151440, Note_on_c, 3, 69, 45
7, 151560, Note_off_c, 3, 69, 64
7, 151560, Note_on_c, 3, 67, 45
7, 151675, Note_off_c, 3, 67, 64
7, 151680, Note_on_c, 3, 72, 45
7, 152280, Note_off_c, 3, 72, 64
7, 152280, Note_on_c, 3, 73, 45
7, 152400, Note_off_c, 3, 73, 64
7, 152400, Note_on_c, 3, 72, 45
7, 152520, Note_off_c, 3, 72, 64
7, 152520, Note_on_c, 3, 70, 45
7, 152640, Note_off_c, 3, 70, 64
7, 152640, Note_on_c, 3, 68, 45
7, 153360, Note_off_c, 3, 68, 64
7, 153360, Note_on_c, 3, 73, 45
7, 153595, Note_off_c, 3, 73, 64
7, 153600, Note_on_c, 3, 70, 45
7, 153840, Note_off_c, 3, 70, 64
7, 153840, Note_on_c, 3, 72, 45
7, 154080, Note_off_c, 3, 72, 64
7, 154080, Note_on_c, 3, 77, 45
7, 154480, Note_off_c, 3, 77, 64
7, 155040, Note_on_c, 3, 68, 45
7, 155520, Note_off_c, 3, 68, 64
7, 155520, Note_on_c, 3, 67, 45
7, 155640, Note_off_c, 3, 67, 64
7, 155640, Note_on_c, 3, 68, 45
7, 155760, Note_off_c, 3, 68, 64
7, 155760, Note_on_c, 3, 67, 45
7, 155880, Note_off_c, 3, 67, 64
7, 155880, Note_on_c, 3, 65, 45
7, 156000, Note_off_c, 3, 65, 64
7, 156000, Note_on_c, 3, 63, 45
7, 156235, Note_off_c, 3, 63, 64
7, 156240, Note_on_c, 3, 74, 45
7, 156360, Note_off_c, 3, 74, 64
7, 156360, Note_on_c, 3, 72, 45
7, 156480, Note_off_c, 3, 72, 64
7, 156480, Note_on_c, 3, 71, 45
7, 156510, Note_off_c, 3, 71, 64
7, 156510, Note_on_c, 3, 72, 45
7, 156540, Note_off_c, 3, 72, 64
7, 156540, Note_on_c, 3, 71, 45
7, 156570, Note_off_c, 3, 71, 64
7, 156570, Note_on_c, 3, 72, 45
7, 156600, Note_off_c, 3, 72, 64
7, 156600, Note_on_c, 3, 71, 45
7, 156630, Note_off_c, 3, 71, 64
7, 156630, Note_on_c, 3, 72, 45
7, 156660, Note_off_c, 3, 72, 64
7, 156660, Note_on_c, 3, 71, 45
7, 156690, Note_off_c, 3, 71, 64
7, 156690, Note_on_c, 3, 72, 45
7, 156720, Note_off_c, 3, 72, 64
7, 156720, Note_on_c, 3, 71, 45
7, 156750, Note_off_c, 3, 71, 64
7, 156750, Note_on_c, 3, 72, 45
7, 156780, Note_off_c, 3, 72, 64
7, 156780, Note_on_c, 3, 71, 45
7, 156810, Note_off_c, 3, 71, 64
7, 156810, Note_on_c, 3, 72, 45
7, 156840, Note_off_c, 3, 72, 64
7, 156840, Note_on_c, 3, 71, 45
7, 156870, Note_off_c, 3, 71, 64
7, 156870, Note_on_c, 3, 72, 45
7, 156900, Note_off_c, 3, 72, 64
7, 156900, Note_on_c, 3, 71, 45
7, 156930, Note_off_c, 3, 71, 64
7, 156930, Note_on_c, 3, 72, 45
7, 156960, Note_off_c, 3, 72, 64
7, 156960, Note_on_c, 3, 72, 45
7, 157080, Note_off_c, 3, 72, 64
7, 157080, Note_on_c, 3, 74, 45
7, 157200, Note_off_c, 3, 74, 64
7, 157200, Note_on_c, 3, 75, 45
7, 157320, Note_off_c, 3, 75, 64
7, 157320, Note_on_c, 3, 74, 45
7, 157440, Note_off_c, 3, 74, 64
7, 157440, Note_on_c, 3, 72, 45
7, 157675, Note_off_c, 3, 72, 64
7, 157680, Note_on_c, 3, 67, 45
7, 158155, Note_off_c, 3, 67, 64
7, 158160, Note_on_c, 3, 67, 45
7, 158395, Note_off_c, 3, 67, 64
7, 158400, Note_on_c, 3, 68, 45
7, 158520, Note_off_c, 3, 68, 64
7, 158520, Note_on_c, 3, 72, 45
7, 158640, Note_off_c, 3, 72, 64
7, 158640, Note_on_c, 3, 70, 45
7, 158760, Note_off_c, 3, 70, 64
7, 158760, Note_on_c, 3, 68, 45
7, 158880, Note_off_c, 3, 68, 64
7, 158880, Note_on_c, 3, 75, 45
7, 159115, Note_off_c, 3, 75, 64
7, 159120, Note_on_c, 3, 64, 45
7, 159355, Note_off_c, 3, 64, 64
7, 159360, Note_on_c, 3, 65, 45
7, 159955, Note_off_c, 3, 65, 64
7, 159960, Note_on_c, 3, 65, 45
7, 160080, Note_off_c, 3, 65, 64
7, 160080, Note_on_c, 3, 63, 45
7, 160200, Note_off_c, 3, 63, 64
7, 160200, Note_on_c, 3, 62, 45
7, 160320, Note_off_c, 3, 62, 64
7, 160320, Note_on_c, 3, 63, 45
7, 160720, Note_off_c, 3, 63, 64
7, 160800, Note_on_c, 3, 71, 45
7, 161280, Note_off_c, 3, 71, 64
7, 161280, Note_on_c, 3, 72, 45
7, 162475, Note_off_c, 3, 72, 64
7, 162480, Note_on_c, 3, 60, 45
7, 162715, Note_off_c, 3, 60, 64
7, 162840, Note_on_c, 3, 55, 60
7, 162960, Note_off_c, 3, 55, 64
7, 162960, Note_on_c, 3, 59, 60
7, 163080, Note_off_c, 3, 59, 64
7, 163080, Note_on_c, 3, 62, 60
7, 163200, Note_off_c, 3, 62, 64
7, 163200, Note_on_c, 3, 67, 60
7, 163600, Note_off_c, 3, 67, 64
7, 163680, Note_on_c, 3, 63, 60
7, 163800, Note_off_c, 3, 63, 64
7, 163800, Note_on_c, 3, 55, 60
7, 163920, Note_off_c, 3, 55, 64
7, 163920, Note_on_c, 3, 60, 60
7, 164040, Note_off_c, 3, 60, 64
7, 164040, Note_on_c, 3, 63, 60
7, 164155, Note_off_c, 3, 63, 64
7, 164280, Note_on_c, 3, 65, 60
7, 164400, Note_off_c, 3, 65, 64
7, 164400, Note_on_c, 3, 56, 60
7, 164520, Note_off_c, 3, 56, 64
7, 164520, Note_on_c, 3, 60, 60
7, 164640, Note_off_c, 3, 60, 64
7, 164640, Note_on_c, 3, 65, 60
7, 165040, Note_off_c, 3, 65, 64
7, 165120, Note_on_c, 3, 55, 60
7, 165240, Note_off_c, 3, 55, 64
7, 165240, Note_on_c, 3, 59, 60
7, 165360, Note_off_c, 3, 59, 64
7, 165360, Note_on_c, 3, 63, 60
7, 165480, Note_off_c, 3, 63, 64
7, 165480, Note_on_c, 3, 67, 60
7, 165595, Note_off_c, 3, 67, 64
7, 165720, Note_on_c, 3, 56, 60
7, 165840, Note_off_c, 3, 56, 64
7, 165840, Note_on_c, 3, 60, 60
7, 165960, Note_off_c, 3, 60, 64
7, 165960, Note_on_c, 3, 63, 60
7, 166080, Note_off_c, 3, 63, 64
7, 166080, Note_on_c, 3, 68, 60
7, 166480, Note_off_c, 3, 68, 64
7, 166560, Note_on_c, 3, 65, 60
7, 166680, Note_off_c, 3, 65, 64
7, 166680, Note_on_c, 3, 56, 60
7, 166800, Note_off_c, 3, 56, 64
7, 166800, Note_on_c, 3, 60, 60
7, 166920, Note_off_c, 3, 60, 64
7, 166920, Note_on_c, 3, 63, 60
7, 167035, Note_off_c, 3, 63, 64
7, 167160, Note_on_c, 3, 55, 60
7, 167280, Note_off_c, 3, 55, 64
7, 167280, Note_on_c, 3, 59, 60
7, 167400, Note_off_c, 3, 59, 64
7, 167400, Note_on_c, 3, 62, 60
7, 167520, Note_off_c, 3, 62, 64
7, 167520, Note_on_c, 3, 67, 60
7, 167920, Note_off_c, 3, 67, 64
7, 168000, Note_on_c, 3, 62, 60
7, 168120, Note_off_c, 3, 62, 64
7, 168120, Note_on_c, 3, 65, 60
7, 168240, Note_off_c, 3, 65, 64
7, 168240, Note_on_c, 3, 59, 60
7, 168360, Note_off_c, 3, 59, 64
7, 168360, Note_on_c, 3, 62, 60
7, 168475, Note_off_c, 3, 62, 64
7, 168600, Note_on_c, 3, 63, 60
7, 168720, Note_off_c, 3, 63, 64
7, 168720, Note_on_c, 3, 67, 60
7, 168840, Note_off_c, 3, 67, 64
7, 168840, Note_on_c, 3, 58, 60
7, 168960, Note_off_c, 3, 58, 64
7, 168960, Note_on_c, 3, 63, 60
7, 169360, Note_off_c, 3, 63, 64
7, 169440, Note_on_c, 3, 59, 60
7, 169560, Note_off_c, 3, 59, 64
7, 169560, Note_on_c, 3, 62, 60
7, 169680, Note_off_c, 3, 62, 64
7, 169680, Note_on_c, 3, 55, 60
7, 169800, Note_off_c, 3, 55, 64
7, 169800, Note_on_c, 3, 59, 60
7, 169915, Note_off_c, 3, 59, 64
7, 170040, Note_on_c, 3, 60, 60
7, 170160, Note_off_c, 3, 60, 64
7, 170160, Note_on_c, 3, 63, 60
7, 170280, Note_off_c, 3, 63, 64
7, 170280, Note_on_c, 3, 55, 60
7, 170400, Note_off_c, 3, 55, 64
7, 170400, Note_on_c, 3, 60, 60
7, 170800, Note_off_c, 3, 60, 64
7, 170880, Note_on_c, 3, 65, 60
7, 171000, Note_off_c, 3, 65, 64
7, 171000, Note_on_c, 3, 60, 60
7, 171120, Note_off_c, 3, 60, 64
7, 171120, Note_on_c, 3, 62, 60
7, 171240, Note_off_c, 3, 62, 64
7, 171240, Note_on_c, 3, 65, 60
7, 171355, Note_off_c, 3, 65, 64
7, 171480, Note_on_c, 3, 55, 60
7, 171600, Note_off_c, 3, 55, 64
7, 171600, Note_on_c, 3, 60, 60
7, 171720, Note_off_c, 3, 60, 64
7, 171720, Note_on_c, 3, 63, 60
7, 171840, Note_off_c, 3, 63, 64
7, 171840, Note_on_c, 3, 67, 60
7, 172240, Note_off_c, 3, 67, 64
7, 172320, Note_on_c, 3, 55, 60
7, 172440, Note_off_c, 3, 55, 64
7, 172440, Note_on_c, 3, 59, 60
7, 172560, Note_off_c, 3, 59, 64
7, 172560, Note_on_c, 3, 62, 60
7, 172680, Note_off_c, 3, 62, 64
7, 172680, Note_on_c, 3, 67, 60
7, 172800, Note_off_c, 3, 67, 64
7, 172800, Note_on_c, 3, 72, 60
7, 172920, Note_off_c, 3, 72, 64
7, 172920, Note_on_c, 3, 60, 60
7, 173040, Note_off_c, 3, 60, 64
7, 173040, Note_on_c, 3, 63, 60
7, 173160, Note_off_c, 3, 63, 64
7, 173160, Note_on_c, 3, 67, 60
7, 173275, Note_off_c, 3, 67, 64
7, 173280, Note_on_c, 3, 60, 60
7, 173400, Note_off_c, 3, 60, 64
7, 173400, Note_on_c, 3, 51, 60
7, 173520, Note_off_c, 3, 51, 64
7, 173520, Note_on_c, 3, 55, 60
7, 173640, Note_off_c, 3, 55, 64
7, 173640, Note_on_c, 3, 60, 60
7, 173755, Note_off_c, 3, 60, 64
7, 173760, Note_on_c, 3, 60, 75
7, 174160, Note_off_c, 3, 60, 64
7, 174240, Note_on_c, 3, 59, 75
7, 175080, Note_off_c, 3, 59, 64
7, 175200, Note_on_c, 3, 60, 75
7, 175600, Note_off_c, 3, 60, 64
7, 175680, Note_on_c, 3, 60, 75
7, 176520, Note_off_c, 3, 60, 64
7, 176640, Note_on_c, 3, 59, 75
7, 177040, Note_off_c, 3, 59, 64
7, 177120, Note_on_c, 3, 60, 75
7, 177960, Note_off_c, 3, 60, 64
7, 178080, Note_on_c, 3, 60, 75
7, 178480, Note_off_c, 3, 60, 64
7, 178560, Note_on_c, 3, 59, 75
7, 179400, Note_off_c, 3, 59, 64
7, 179520, Note_on_c, 3, 59, 75
7, 179920, Note_off_c, 3, 59, 64
7, 180000, Note_on_c, 3, 60, 75
7, 180840, Note_off_c, 3, 60, 64
7, 180960, Note_on_c, 3, 62, 75
7, 181360, Note_off_c, 3, 62, 64
7, 181440, Note_on_c, 3, 60, 75
7, 182280, Note_off_c, 3, 60, 64
7, 182400, Note_on_c, 3, 60, 75
7, 182800, Note_off_c, 3, 60, 64
7, 182880, Note_on_c, 3, 67, 75
7, 184200, Note_off_c, 3, 67, 64
7, 184320, Note_on_c, 3, 63, 85
7, 185160, Note_off_c, 3, 63, 64
7, 185520, Note_on_c, 3, 72, 127
7, 185755, Note_off_c, 3, 72, 64
7, 185880, Note_on_c, 3, 72, 92
7, 186000, Note_off_c, 3, 72, 64
7, 186000, Note_on_c, 3, 74, 92
7, 186120, Note_off_c, 3, 74, 64
7, 186120, Note_on_c, 3, 69, 92
7, 186240, Note_off_c, 3, 69, 64
7, 186240, Note_on_c, 3, 71, 92
7, 186360, Note_off_c, 3, 71, 64
7, 186360, Note_on_c, 3, 66, 92
7, 186480, Note_off_c, 3, 66, 64
7, 186480, Note_on_c, 3, 67, 92
7, 186955, Note_off_c, 3, 67, 64
7, 186960, Note_on_c, 3, 72, 127
7, 187195, Note_off_c, 3, 72, 64
7, 187320, Note_on_c, 3, 70, 92
7, 187440, Note_off_c, 3, 70, 64
7, 187440, Note_on_c, 3, 72, 92
7, 187560, Note_off_c, 3, 72, 64
7, 187560, Note_on_c, 3, 67, 92
7, 187680, Note_off_c, 3, 67, 64
7, 187680, Note_on_c, 3, 68, 92
7, 187800, Note_off_c, 3, 68, 64
7, 187800, Note_on_c, 3, 64, 92
7, 187920, Note_off_c, 3, 64, 64
7, 187920, Note_on_c, 3, 65, 92
7, 188160, Note_off_c, 3, 65, 64
7, 188160, Note_on_c, 3, 67, 92
7, 188395, Note_off_c, 3, 67, 64
7, 188400, Note_on_c, 3, 71, 127
7, 188635, Note_off_c, 3, 71, 64
7, 188760, Note_on_c, 3, 74, 92
7, 188880, Note_off_c, 3, 74, 64
7, 188880, Note_on_c, 3, 75, 92
7, 189000, Note_off_c, 3, 75, 64
7, 189000, Note_on_c, 3, 71, 92
7, 189120, Note_off_c, 3, 71, 64
7, 189120, Note_on_c, 3, 72, 92
7, 189240, Note_off_c, 3, 72, 64
7, 189240, Note_on_c, 3, 67, 92
7, 189360, Note_off_c, 3, 67, 64
7, 189360, Note_on_c, 3, 68, 92
7, 189835, Note_off_c, 3, 68, 64
7, 189840, Note_on_c, 3, 72, 127
7, 190075, Note_off_c, 3, 72, 64
7, 190200, Note_on_c, 3, 72, 92
7, 190320, Note_off_c, 3, 72, 64
7, 190320, Note_on_c, 3, 74, 92
7, 190435, Note_off_c, 3, 74, 64
7, 190440, Note_on_c, 3, 69, 92
7, 190560, Note_off_c, 3, 69, 64
7, 190560, Note_on_c, 3, 71, 92
7, 190675, Note_off_c, 3, 71, 64
7, 190680, Note_on_c, 3, 66, 92
7, 190800, Note_off_c, 3, 66, 64
7, 190800, Note_on_c, 3, 67, 92
7, 191040, Note_off_c, 3, 67, 64
7, 191040, Note_on_c, 3, 65, 92
7, 191275, Note_off_c, 3, 65, 64
7, 191280, Note_on_c, 3, 71, 127
7, 191515, Note_off_c, 3, 71, 64
7, 191640, Note_on_c, 3, 78, 92
7, 191760, Note_off_c, 3, 78, 64
7, 191760, Note_on_c, 3, 79, 92
7, 191880, Note_off_c, 3, 79, 64
7, 191880, Note_on_c, 3, 74, 92
7, 192000, Note_off_c, 3, 74, 64
7, 192000, Note_on_c, 3, 75, 92
7, 192120, Note_off_c, 3, 75, 64
7, 192120, Note_on_c, 3, 71, 92
7, 192240, Note_off_c, 3, 71, 64
7, 192240, Note_on_c, 3, 72, 92
7, 192480, Note_off_c, 3, 72, 64
7, 192480, Note_on_c, 3, 71, 92
7, 192715, Note_off_c, 3, 71, 64
7, 192720, Note_on_c, 3, 71, 127
7, 192955, Note_off_c, 3, 71, 64
7, 193080, Note_on_c, 3, 77, 92
7, 193200, Note_off_c, 3, 77, 64
7, 193200, Note_on_c, 3, 79, 92
7, 193320, Note_off_c, 3, 79, 64
7, 193320, Note_on_c, 3, 74, 92
7, 193440, Note_off_c, 3, 74, 64
7, 193440, Note_on_c, 3, 75, 92
7, 193560, Note_off_c, 3, 75, 64
7, 193560, Note_on_c, 3, 71, 92
7, 193680, Note_off_c, 3, 71, 64
7, 193680, Note_on_c, 3, 72, 92
7, 194155, Note_off_c, 3, 72, 64
7, 194160, Note_on_c, 3, 68, 127
7, 194395, Note_off_c, 3, 68, 64
7, 194520, Note_on_c, 3, 77, 92
7, 194640, Note_off_c, 3, 77, 64
7, 194640, Note_on_c, 3, 79, 92
7, 194760, Note_off_c, 3, 79, 64
7, 194760, Note_on_c, 3, 74, 92
7, 194880, Note_off_c, 3, 74, 64
7, 194880, Note_on_c, 3, 75, 92
7, 195000, Note_off_c, 3, 75, 64
7, 195000, Note_on_c, 3, 71, 92
7, 195120, Note_off_c, 3, 71, 64
7, 195120, Note_on_c, 3, 72, 92
7, 195360, Note_off_c, 3, 72, 64
7, 195360, Note_on_c, 3, 71, 92
7, 195595, Note_off_c, 3, 71, 64
7, 195600, Note_on_c, 3, 71, 127
7, 195835, Note_off_c, 3, 71, 64
7, 195960, Note_on_c, 3, 77, 92
7, 196080, Note_off_c, 3, 77, 64
7, 196080, Note_on_c, 3, 79, 92
7, 196200, Note_off_c, 3, 79, 64
7, 196200, Note_on_c, 3, 74, 92
7, 196320, Note_off_c, 3, 74, 64
7, 196320, Note_on_c, 3, 75, 92
7, 196440, Note_off_c, 3, 75, 64
7, 196440, Note_on_c, 3, 71, 92
7, 196560, Note_off_c, 3, 71, 64
7, 196560, Note_on_c, 3, 72, 92
7, 196795, Note_off_c, 3, 72, 64
7, 196920, Note_on_c, 3, 65, 92
7, 196980, Note_off_c, 3, 65, 64
7, 196980, Note_on_c, 3, 63, 92
7, 197035, Note_off_c, 3, 63, 64
7, 197040, Note_on_c, 3, 63, 92
7, 197160, Note_off_c, 3, 63, 64
7, 197160, Note_on_c, 3, 62, 92
7, 197220, Note_off_c, 3, 62, 64
7, 197220, Note_on_c, 3, 60, 92
7, 197275, Note_off_c, 3, 60, 64
7, 197280, Note_on_c, 3, 60, 92
7, 197400, Note_off_c, 3, 60, 64
7, 197400, Note_on_c, 3, 59, 92
7, 197460, Note_off_c, 3, 59, 64
7, 197460, Note_on_c, 3, 57, 92
7, 197515, Note_off_c, 3, 57, 64
7, 197520, Note_on_c, 3, 57, 92
7, 197640, Note_off_c, 3, 57, 64
7, 197640, Note_on_c, 3, 59, 92
7, 197700, Note_off_c, 3, 59, 64
7, 197700, Note_on_c, 3, 60, 92
7, 197755, Note_off_c, 3, 60, 64
7, 197760, Note_on_c, 3, 59, 92
7, 197880, Note_off_c, 3, 59, 64
7, 197880, Note_on_c, 3, 60, 92
7, 197940, Note_off_c, 3, 60, 64
7, 197940, Note_on_c, 3, 62, 92
7, 197995, Note_off_c, 3, 62, 64
7, 198000, Note_on_c, 3, 62, 92
7, 198120, Note_off_c, 3, 62, 64
7, 198120, Note_on_c, 3, 63, 92
7, 198180, Note_off_c, 3, 63, 64
7, 198180, Note_on_c, 3, 65, 92
7, 198235, Note_off_c, 3, 65, 64
7, 198240, Note_on_c, 3, 63, 92
7, 198360, Note_off_c, 3, 63, 64
7, 198360, Note_on_c, 3, 65, 92
7, 198420, Note_off_c, 3, 65, 64
7, 198420, Note_on_c, 3, 67, 92
7, 198475, Note_off_c, 3, 67, 64
7, 198480, Note_on_c, 3, 67, 92
7, 198600, Note_off_c, 3, 67, 64
7, 198600, Note_on_c, 3, 69, 92
7, 198660, Note_off_c, 3, 69, 64
7, 198660, Note_on_c, 3, 71, 92
7, 198715, Note_off_c, 3, 71, 64
7, 198720, Note_on_c, 3, 68, 92
7, 198840, Note_off_c, 3, 68, 64
7, 198840, Note_on_c, 3, 67, 92
7, 198900, Note_off_c, 3, 67, 64
7, 198900, Note_on_c, 3, 65, 92
7, 198955, Note_off_c, 3, 65, 64
7, 198960, Note_on_c, 3, 65, 92
7, 199080, Note_off_c, 3, 65, 64
7, 199080, Note_on_c, 3, 63, 92
7, 199140, Note_off_c, 3, 63, 64
7, 199140, Note_on_c, 3, 62, 92
7, 199195, Note_off_c, 3, 62, 64
7, 199200, Note_on_c, 3, 62, 92
7, 199320, Note_off_c, 3, 62, 64
7, 199320, Note_on_c, 3, 63, 92
7, 199380, Note_off_c, 3, 63, 64
7, 199380, Note_on_c, 3, 65, 92
7, 199435, Note_off_c, 3, 65, 64
7, 199440, Note_on_c, 3, 65, 92
7, 199560, Note_off_c, 3, 65, 64
7, 199560, Note_on_c, 3, 67, 92
7, 199620, Note_off_c, 3, 67, 64
7, 199620, Note_on_c, 3, 68, 92
7, 199675, Note_off_c, 3, 68, 64
7, 199680, Note_on_c, 3, 59, 92
7, 199710, Note_off_c, 3, 59, 64
7, 199710, Note_on_c, 3, 60, 92
7, 199740, Note_off_c, 3, 60, 64
7, 199740, Note_on_c, 3, 59, 92
7, 199770, Note_off_c, 3, 59, 64
7, 199770, Note_on_c, 3, 60, 92
7, 199800, Note_off_c, 3, 60, 64
7, 199800, Note_on_c, 3, 59, 92
7, 199830, Note_off_c, 3, 59, 64
7, 199830, Note_on_c, 3, 60, 92
7, 199860, Note_off_c, 3, 60, 64
7, 199860, Note_on_c, 3, 59, 92
7, 199890, Note_off_c, 3, 59, 64
7, 199890, Note_on_c, 3, 60, 92
7, 199920, Note_off_c, 3, 60, 64
7, 199920, Note_on_c, 3, 59, 92
7, 199950, Note_off_c, 3, 59, 64
7, 199950, Note_on_c, 3, 60, 92
7, 199980, Note_off_c, 3, 60, 64
7, 199980, Note_on_c, 3, 59, 92
7, 200010, Note_off_c, 3, 59, 64
7, 200010, Note_on_c, 3, 60, 92
7, 200040, Note_off_c, 3, 60, 64
7, 200040, Note_on_c, 3, 59, 92
7, 200070, Note_off_c, 3, 59, 64
7, 200070, Note_on_c, 3, 60, 92
7, 200100, Note_off_c, 3, 60, 64
7, 200100, Note_on_c, 3, 59, 92
7, 200130, Note_off_c, 3, 59, 64
7, 200130, Note_on_c, 3, 60, 92
7, 200160, Note_off_c, 3, 60, 64
7, 200160, Note_on_c, 3, 59, 92
7, 200190, Note_off_c, 3, 59, 64
7, 200190, Note_on_c, 3, 60, 92
7, 200220, Note_off_c, 3, 60, 64
7, 200220, Note_on_c, 3, 59, 92
7, 200250, Note_off_c, 3, 59, 64
7, 200250, Note_on_c, 3, 60, 92
7, 200280, Note_off_c, 3, 60, 64
7, 200280, Note_on_c, 3, 59, 92
7, 200310, Note_off_c, 3, 59, 64
7, 200310, Note_on_c, 3, 60, 92
7, 200340, Note_off_c, 3, 60, 64
7, 200340, Note_on_c, 3, 59, 92
7, 200370, Note_off_c, 3, 59, 64
7, 200370, Note_on_c, 3, 60, 92
7, 200400, Note_off_c, 3, 60, 64
7, 200400, Note_on_c, 3, 59, 92
7, 200455, Note_off_c, 3, 59, 64
7, 200460, Note_on_c, 3, 68, 92
7, 200520, Note_off_c, 3, 68, 64
7, 200520, Note_on_c, 3, 67, 92
7, 200580, Note_off_c, 3, 67, 64
7, 200580, Note_on_c, 3, 65, 92
7, 200635, Note_off_c, 3, 65, 64
7, 200640, Note_on_c, 3, 65, 92
7, 200700, Note_off_c, 3, 65, 64
7, 200700, Note_on_c, 3, 63, 92
7, 200760, Note_off_c, 3, 63, 64
7, 200760, Note_on_c, 3, 62, 92
7, 200815, Note_off_c, 3, 62, 64
7, 200820, Note_on_c, 3, 62, 92
7, 200880, Note_off_c, 3, 62, 64
7, 200880, Note_on_c, 3, 60, 92
7, 200940, Note_off_c, 3, 60, 64
7, 200940, Note_on_c, 3, 59, 92
7, 200995, Note_off_c, 3, 59, 64
7, 201000, Note_on_c, 3, 59, 92
7, 201060, Note_off_c, 3, 59, 64
7, 201060, Note_on_c, 3, 60, 92
7, 201120, Note_off_c, 3, 60, 64
7, 201120, Note_on_c, 3, 62, 92
7, 201175, Note_off_c, 3, 62, 64
7, 201180, Note_on_c, 3, 62, 92
7, 201240, Note_off_c, 3, 62, 64
7, 201240, Note_on_c, 3, 63, 92
7, 201300, Note_off_c, 3, 63, 64
7, 201300, Note_on_c, 3, 65, 92
7, 201355, Note_off_c, 3, 65, 64
7, 201360, Note_on_c, 3, 65, 92
7, 201480, Note_off_c, 3, 65, 64
7, 201480, Note_on_c, 3, 67, 92
7, 201540, Note_off_c, 3, 67, 64
7, 201540, Note_on_c, 3, 68, 92
7, 201595, Note_off_c, 3, 68, 64
7, 201600, Note_on_c, 3, 71, 92
7, 201960, Note_off_c, 3, 71, 64
7, 201960, Note_on_c, 3, 68, 92
7, 202080, Note_off_c, 3, 68, 64
7, 202080, Note_on_c, 3, 71, 92
7, 202480, Note_off_c, 3, 71, 64
7, 202800, Note_on_c, 3, 59, 92
7, 203035, Note_off_c, 3, 59, 64
7, 203040, Note_on_c, 3, 60, 92
7, 203160, Note_off_c, 3, 60, 64
7, 203160, Note_on_c, 3, 62, 92
7, 203220, Note_off_c, 3, 62, 64
7, 203220, Note_on_c, 3, 63, 92
7, 203275, Note_off_c, 3, 63, 64
7, 203280, Note_on_c, 3, 63, 92
7, 203400, Note_off_c, 3, 63, 64
7, 203400, Note_on_c, 3, 65, 92
7, 203460, Note_off_c, 3, 65, 64
7, 203460, Note_on_c, 3, 67, 92
7, 203515, Note_off_c, 3, 67, 64
7, 203520, Note_on_c, 3, 67, 92
7, 203640, Note_off_c, 3, 67, 64
7, 203640, Note_on_c, 3, 69, 92
7, 203700, Note_off_c, 3, 69, 64
7, 203700, Note_on_c, 3, 71, 92
7, 203755, Note_off_c, 3, 71, 64
7, 203760, Note_on_c, 3, 71, 92
7, 203880, Note_off_c, 3, 71, 64
7, 203880, Note_on_c, 3, 72, 92
7, 203940, Note_off_c, 3, 72, 64
7, 203940, Note_on_c, 3, 74, 92
7, 203995, Note_off_c, 3, 74, 64
7, 204000, Note_on_c, 3, 74, 92
7, 204120, Note_off_c, 3, 74, 64
7, 204120, Note_on_c, 3, 75, 92
7, 204180, Note_off_c, 3, 75, 64
7, 204180, Note_on_c, 3, 77, 92
7, 204240, Note_off_c, 3, 77, 64
7, 204240, Note_on_c, 3, 75, 92
7, 204360, Note_off_c, 3, 75, 64
7, 204360, Note_on_c, 3, 77, 92
7, 204420, Note_off_c, 3, 77, 64
7, 204420, Note_on_c, 3, 74, 92
7, 204480, Note_off_c, 3, 74, 64
7, 204480, Note_on_c, 3, 75, 92
7, 204880, Note_off_c, 3, 75, 64
7, 204960, Note_on_c, 3, 63, 92
7, 205080, Note_off_c, 3, 63, 64
7, 205080, Note_on_c, 3, 62, 92
7, 205140, Note_off_c, 3, 62, 64
7, 205140, Note_on_c, 3, 60, 92
7, 205195, Note_off_c, 3, 60, 64
7, 205200, Note_on_c, 3, 60, 92
7, 205320, Note_off_c, 3, 60, 64
7, 205320, Note_on_c, 3, 59, 92
7, 205380, Note_off_c, 3, 59, 64
7, 205380, Note_on_c, 3, 56, 92
7, 205435, Note_off_c, 3, 56, 64
7, 205440, Note_on_c, 3, 56, 92
7, 205560, Note_off_c, 3, 56, 64
7, 205560, Note_on_c, 3, 55, 92
7, 205620, Note_off_c, 3, 55, 64
7, 205620, Note_on_c, 3, 53, 92
7, 205675, Note_off_c, 3, 53, 64
7, 205680, Note_on_c, 3, 53, 92
7, 205800, Note_off_c, 3, 53, 64
7, 205800, Note_on_c, 3, 63, 92
7, 205860, Note_off_c, 3, 63, 64
7, 205860, Note_on_c, 3, 62, 92
7, 205915, Note_off_c, 3, 62, 64
7, 205920, Note_on_c, 3, 62, 92
7, 206040, Note_off_c, 3, 62, 64
7, 206040, Note_on_c, 3, 60, 92
7, 206100, Note_off_c, 3, 60, 64
7, 206100, Note_on_c, 3, 59, 92
7, 206155, Note_off_c, 3, 59, 64
7, 206160, Note_on_c, 3, 59, 92
7, 206280, Note_off_c, 3, 59, 64
7, 206280, Note_on_c, 3, 60, 92
7, 206340, Note_off_c, 3, 60, 64
7, 206340, Note_on_c, 3, 62, 92
7, 206395, Note_off_c, 3, 62, 64
7, 206400, Note_on_c, 3, 62, 92
7, 206520, Note_off_c, 3, 62, 64
7, 206520, Note_on_c, 3, 63, 92
7, 206580, Note_off_c, 3, 63, 64
7, 206580, Note_on_c, 3, 65, 92
7, 206635, Note_off_c, 3, 65, 64
7, 206640, Note_on_c, 3, 53, 92
7, 206760, Note_off_c, 3, 53, 64
7, 206760, Note_on_c, 3, 55, 92
7, 206820, Note_off_c, 3, 55, 64
7, 206820, Note_on_c, 3, 56, 92
7, 206875, Note_off_c, 3, 56, 64
7, 206880, Note_on_c, 3, 53, 92
7, 207000, Note_off_c, 3, 53, 64
7, 207000, Note_on_c, 3, 55, 93
7, 207060, Note_off_c, 3, 55, 64
7, 207060, Note_on_c, 3, 56, 93
7, 207120, Note_off_c, 3, 56, 64
7, 207120, Note_on_c, 3, 55, 93
7, 207240, Note_off_c, 3, 55, 64
7, 207240, Note_on_c, 3, 56, 94
7, 207300, Note_off_c, 3, 56, 64
7, 207300, Note_on_c, 3, 53, 94
7, 207360, Note_off_c, 3, 53, 64
7, 207360, Note_on_c, 3, 51, 94
7, 207475, Note_off_c, 3, 51, 64
7, 207480, Note_on_c, 3, 65, 95
7, 207540, Note_off_c, 3, 65, 64
7, 207540, Note_on_c, 3, 62, 95
7, 207600, Note_off_c, 3, 62, 64
7, 207600, Note_on_c, 3, 60, 96
7, 207835, Note_off_c, 3, 60, 64
7, 207840, Note_on_c, 3, 65, 100
7, 207960, Note_off_c, 3, 65, 64
7, 207960, Note_on_c, 3, 63, 102
7, 208020, Note_off_c, 3, 63, 64
7, 208020, Note_on_c, 3, 62, 103
7, 208075, Note_off_c, 3, 62, 64
7, 208080, Note_on_c, 3, 62, 104
7, 208200, Note_off_c, 3, 62, 64
7, 208200, Note_on_c, 3, 60, 106
7, 208260, Note_off_c, 3, 60, 64
7, 208260, Note_on_c, 3, 59, 107
7, 208315, Note_off_c, 3, 59, 64
7, 208320, Note_on_c, 3, 60, 108
7, 209035, Note_off_c, 3, 60, 64
7, 209040, Note_on_c, 3, 59, 108
7, 209160, Note_off_c, 3, 59, 64
7, 209160, Note_on_c, 3, 57, 108
7, 209280, Note_off_c, 3, 57, 64
7, 209280, Note_on_c, 3, 59, 108
7, 209515, Note_off_c, 3, 59, 64
7, 209520, Note_on_c, 3, 60, 108
7, 209640, Note_off_c, 3, 60, 64
7, 209640, Note_on_c, 3, 62, 108
7, 209760, Note_off_c, 3, 62, 64
7, 209760, Note_on_c, 3, 63, 108
7, 210000, Note_off_c, 3, 63, 64
7, 210000, Note_on_c, 3, 60, 108
7, 210235, Note_off_c, 3, 60, 64
7, 210240, Note_on_c, 3, 58, 108
7, 210360, Note_off_c, 3, 58, 64
7, 210360, Note_on_c, 3, 56, 108
7, 210480, Note_off_c, 3, 56, 64
7, 210480, Note_on_c, 3, 62, 108
7, 210600, Note_off_c, 3, 62, 64
7, 210600, Note_on_c, 3, 60, 108
7, 210720, Note_off_c, 3, 60, 64
7, 210720, Note_on_c, 3, 62, 108
7, 210955, Note_off_c, 3, 62, 64
7, 210960, Note_on_c, 3, 63, 108
7, 211080, Note_off_c, 3, 63, 64
7, 211080, Note_on_c, 3, 65, 108
7, 211200, Note_off_c, 3, 65, 64
7, 211200, Note_on_c, 3, 62, 108
7, 211915, Note_off_c, 3, 62, 64
7, 211920, Note_on_c, 3, 60, 108
7, 212560, Note_off_c, 3, 60, 64
7, 212880, Note_on_c, 3, 62, 108
7, 213115, Note_off_c, 3, 62, 64
7, 213120, Note_on_c, 3, 60, 108
7, 213240, Note_off_c, 3, 60, 64
7, 213240, Note_on_c, 3, 59, 108
7, 213360, Note_off_c, 3, 59, 64
7, 213360, Note_on_c, 3, 60, 108
7, 213480, Note_off_c, 3, 60, 64
7, 213480, Note_on_c, 3, 59, 108
7, 213600, Note_off_c, 3, 59, 64
7, 213600, Note_on_c, 3, 60, 108
7, 213835, Note_off_c, 3, 60, 64
7, 213840, Note_on_c, 3, 62, 108
7, 213960, Note_off_c, 3, 62, 64
7, 213960, Note_on_c, 3, 63, 108
7, 214080, Note_off_c, 3, 63, 64
7, 214080, Note_on_c, 3, 59, 108
7, 214795, Note_off_c, 3, 59, 64
7, 214800, Note_on_c, 3, 60, 108
7, 214920, Note_off_c, 3, 60, 64
7, 214920, Note_on_c, 3, 62, 108
7, 215040, Note_off_c, 3, 62, 64
7, 215040, Note_on_c, 3, 63, 108
7, 215440, Note_off_c, 3, 63, 64
7, 215760, Note_on_c, 3, 62, 108
7, 215995, Note_off_c, 3, 62, 64
7, 216000, Note_on_c, 3, 60, 108
7, 216720, Note_off_c, 3, 60, 64
7, 216720, Note_on_c, 3, 62, 108
7, 216840, Note_off_c, 3, 62, 64
7, 216840, Note_on_c, 3, 64, 108
7, 216955, Note_off_c, 3, 64, 64
7, 216960, Note_on_c, 3, 65, 108
7, 217675, Note_off_c, 3, 65, 64
7, 217680, Note_on_c, 3, 63, 108
7, 217800, Note_off_c, 3, 63, 64
7, 217800, Note_on_c, 3, 62, 108
7, 217920, Note_off_c, 3, 62, 64
7, 217920, Note_on_c, 3, 63, 108
7, 218155, Note_off_c, 3, 63, 64
7, 218160, Note_on_c, 3, 62, 108
7, 218280, Note_off_c, 3, 62, 64
7, 218280, Note_on_c, 3, 60, 108
7, 218400, Note_off_c, 3, 60, 64
7, 218400, Note_on_c, 3, 67, 108
7, 218635, Note_off_c, 3, 67, 64
7, 218640, Note_on_c, 3, 65, 108
7, 219115, Note_off_c, 3, 65, 64
7, 219120, Note_on_c, 3, 75, 108
7, 219240, Note_off_c, 3, 75, 64
7, 219240, Note_on_c, 3, 74, 108
7, 219360, Note_off_c, 3, 74, 64
7, 219360, Note_on_c, 3, 75, 108
7, 219595, Note_off_c, 3, 75, 64
7, 219600, Note_on_c, 3, 75, 108
7, 219720, Note_off_c, 3, 75, 64
7, 219720, Note_on_c, 3, 74, 108
7, 219840, Note_off_c, 3, 74, 64
7, 219840, Note_on_c, 3, 72, 108
7, 220075, Note_off_c, 3, 72, 64
7, 220080, Note_on_c, 3, 63, 108
7, 220435, Note_off_c, 3, 63, 64
7, 220440, Note_on_c, 3, 65, 108
7, 220560, Note_off_c, 3, 65, 64
7, 220560, Note_on_c, 3, 63, 108
7, 220680, Note_off_c, 3, 63, 64
7, 220680, Note_on_c, 3, 62, 108
7, 220800, Note_off_c, 3, 62, 64
7, 220800, Note_on_c, 3, 63, 108
7, 221395, Note_off_c, 3, 63, 64
7, 221400, Note_on_c, 3, 65, 108
7, 221520, Note_off_c, 3, 65, 64
7, 221520, Note_on_c, 3, 63, 108
7, 221640, Note_off_c, 3, 63, 64
7, 221640, Note_on_c, 3, 62, 108
7, 221760, Note_off_c, 3, 62, 64
7, 221760, Note_on_c, 3, 63, 108
7, 222355, Note_off_c, 3, 63, 64
7, 222360, Note_on_c, 3, 65, 108
7, 222480, Note_off_c, 3, 65, 64
7, 222480, Note_on_c, 3, 63, 108
7, 222600, Note_off_c, 3, 63, 64
7, 222600, Note_on_c, 3, 62, 108
7, 222720, Note_off_c, 3, 62, 64
7, 222720, Note_on_c, 3, 63, 108
7, 223315, Note_off_c, 3, 63, 64
7, 223320, Note_on_c, 3, 65, 108
7, 223440, Note_off_c, 3, 65, 64
7, 223440, Note_on_c, 3, 63, 108
7, 223560, Note_off_c, 3, 63, 64
7, 223560, Note_on_c, 3, 62, 108
7, 223680, Note_off_c, 3, 62, 64
7, 223680, Note_on_c, 3, 63, 108
7, 224275, Note_off_c, 3, 63, 64
7, 224280, Note_on_c, 3, 65, 108
7, 224400, Note_off_c, 3, 65, 64
7, 224400, Note_on_c, 3, 63, 108
7, 224520, Note_off_c, 3, 63, 64
7, 224520, Note_on_c, 3, 62, 108
7, 224640, Note_off_c, 3, 62, 64
7, 224640, Note_on_c, 3, 63, 108
7, 225235, Note_off_c, 3, 63, 64
7, 225240, Note_on_c, 3, 63, 108
7, 225360, Note_off_c, 3, 63, 64
7, 225360, Note_on_c, 3, 62, 108
7, 225480, Note_off_c, 3, 62, 64
7, 225480, Note_on_c, 3, 60, 108
7, 225600, Note_off_c, 3, 60, 64
7, 225600, Note_on_c, 3, 62, 108
7, 226195, Note_off_c, 3, 62, 64
7, 226200, Note_on_c, 3, 65, 108
7, 226320, Note_off_c, 3, 65, 64
7, 226320, Note_on_c, 3, 63, 108
7, 226440, Note_off_c, 3, 63, 64
7, 226440, Note_on_c, 3, 62, 108
7, 226560, Note_off_c, 3, 62, 64
7, 226560, Note_on_c, 3, 60, 108
7, 226960, Note_off_c, 3, 60, 64
7, 227040, Note_on_c, 3, 62, 108
7, 227920, Note_off_c, 3, 62, 64
7, 228000, Note_on_c, 3, 60, 108
7, 228840, Note_off_c, 3, 60, 64
7, 228960, Note_on_c, 3, 59, 108
7, 229440, Note_off_c, 3, 59, 64
7, 229440, Note_on_c, 3, 60, 108
7, 229920, Note_off_c, 3, 60, 64
7, 229920, Note_on_c, 3, 62, 108
7, 230155, Note_off_c, 3, 62, 64
7, 230160, Note_on_c, 3, 67, 108
7, 230995, Note_off_c, 3, 67, 64
7, 231000, Note_on_c, 3, 68, 108
7, 231120, Note_off_c, 3, 68, 64
7, 231120, Note_on_c, 3, 67, 108
7, 231240, Note_off_c, 3, 67, 64
7, 231240, Note_on_c, 3, 65, 108
7, 231360, Note_off_c, 3, 65, 64
7, 231360, Note_on_c, 3, 63, 108
7, 231595, Note_off_c, 3, 63, 64
7, 231600, Note_on_c, 3, 60, 108
7, 231955, Note_off_c, 3, 60, 64
7, 231960, Note_on_c, 3, 62, 108
7, 232080, Note_off_c, 3, 62, 64
7, 232080, Note_on_c, 3, 60, 108
7, 232200, Note_off_c, 3, 60, 64
7, 232200, Note_on_c, 3, 59, 108
7, 232320, Note_off_c, 3, 59, 64
7, 232320, Note_on_c, 3, 63, 108
7, 232440, Note_off_c, 3, 63, 64
7, 232440, Note_on_c, 3, 65, 108
7, 232560, Note_off_c, 3, 65, 64
7, 232560, Note_on_c, 3, 63, 108
7, 232680, Note_off_c, 3, 63, 64
7, 232680, Note_on_c, 3, 62, 108
7, 232800, Note_off_c, 3, 62, 64
7, 232800, Note_on_c, 3, 63, 108
7, 233395, Note_off_c, 3, 63, 64
7, 233400, Note_on_c, 3, 65, 108
7, 233520, Note_off_c, 3, 65, 64
7, 233520, Note_on_c, 3, 63, 108
7, 233640, Note_off_c, 3, 63, 64
7, 233640, Note_on_c, 3, 62, 108
7, 233760, Note_off_c, 3, 62, 64
7, 233760, Note_on_c, 3, 63, 108
7, 234355, Note_off_c, 3, 63, 64
7, 234360, Note_on_c, 3, 65, 108
7, 234480, Note_off_c, 3, 65, 64
7, 234480, Note_on_c, 3, 63, 108
7, 234600, Note_off_c, 3, 63, 64
7, 234600, Note_on_c, 3, 62, 108
7, 234720, Note_off_c, 3, 62, 64
7, 234720, Note_on_c, 3, 60, 108
7, 235075, Note_off_c, 3, 60, 64
7, 235080, Note_on_c, 3, 65, 108
7, 235200, Note_off_c, 3, 65, 64
7, 235200, Note_on_c, 3, 63, 108
7, 235320, Note_off_c, 3, 63, 64
7, 235320, Note_on_c, 3, 65, 108
7, 235440, Note_off_c, 3, 65, 64
7, 235440, Note_on_c, 3, 63, 108
7, 235560, Note_off_c, 3, 63, 64
7, 235560, Note_on_c, 3, 62, 108
7, 235680, Note_off_c, 3, 62, 64
7, 235680, Note_on_c, 3, 63, 108
7, 236275, Note_off_c, 3, 63, 64
7, 236280, Note_on_c, 3, 65, 108
7, 236400, Note_off_c, 3, 65, 64
7, 236400, Note_on_c, 3, 63, 108
7, 236520, Note_off_c, 3, 63, 64
7, 236520, Note_on_c, 3, 62, 108
7, 236640, Note_off_c, 3, 62, 64
7, 236640, Note_on_c, 3, 63, 108
7, 236875, Note_off_c, 3, 63, 64
7, 236880, Note_on_c, 3, 65, 108
7, 237000, Note_off_c, 3, 65, 64
7, 237000, Note_on_c, 3, 67, 108
7, 237120, Note_off_c, 3, 67, 64
7, 237120, Note_on_c, 3, 68, 108
7, 237355, Note_off_c, 3, 68, 64
7, 237360, Note_on_c, 3, 65, 108
7, 237600, Note_off_c, 3, 65, 64
7, 237600, Note_on_c, 3, 60, 108
7, 238195, Note_off_c, 3, 60, 64
7, 238200, Note_on_c, 3, 60, 108
7, 238320, Note_off_c, 3, 60, 64
7, 238320, Note_on_c, 3, 59, 108
7, 238440, Note_off_c, 3, 59, 64
7, 238440, Note_on_c, 3, 57, 108
7, 238560, Note_off_c, 3, 57, 64
7, 238560, Note_on_c, 3, 59, 108
7, 238960, Note_off_c, 3, 59, 64
7, 239040, Note_on_c, 3, 60, 108
7, 239635, Note_off_c, 3, 60, 64
7, 239640, Note_on_c, 3, 58, 108
7, 239760, Note_off_c, 3, 58, 64
7, 239760, Note_on_c, 3, 56, 108
7, 239880, Note_off_c, 3, 56, 64
7, 239880, Note_on_c, 3, 55, 108
7, 240000, Note_off_c, 3, 55, 64
7, 240000, Note_on_c, 3, 53, 108
7, 240400, Note_off_c, 3, 53, 64
7, 240480, Note_on_c, 3, 51, 108
7, 240600, Note_off_c, 3, 51, 64
7, 240600, Note_on_c, 3, 53, 108
7, 240720, Note_off_c, 3, 53, 64
7, 240720, Note_on_c, 3, 51, 108
7, 240840, Note_off_c, 3, 51, 64
7, 240840, Note_on_c, 3, 50, 108
7, 240960, Note_off_c, 3, 50, 64
7, 240960, Note_on_c, 3, 51, 108
7, 241320, Note_off_c, 3, 51, 64
7, 241320, Note_on_c, 3, 53, 108
7, 241440, Note_off_c, 3, 53, 64
7, 241440, Note_on_c, 3, 55, 75
7, 241560, Note_off_c, 3, 55, 64
7, 241560, Note_on_c, 3, 53, 75
7, 241680, Note_off_c, 3, 53, 64
7, 241680, Note_on_c, 3, 55, 75
7, 241800, Note_off_c, 3, 55, 64
7, 241800, Note_on_c, 3, 56, 75
7, 241920, Note_off_c, 3, 56, 64
7, 241920, Note_on_c, 3, 60, 60
7, 242515, Note_off_c, 3, 60, 64
7, 242520, Note_on_c, 3, 56, 60
7, 242640, Note_off_c, 3, 56, 64
7, 242640, Note_on_c, 3, 55, 60
7, 242760, Note_off_c, 3, 55, 64
7, 242760, Note_on_c, 3, 53, 60
7, 242880, Note_off_c, 3, 53, 64
7, 242880, Note_on_c, 3, 60, 60
7, 243280, Note_off_c, 3, 60, 64
7, 243360, Note_on_c, 3, 55, 60
7, 244200, Note_off_c, 3, 55, 64
7, 244320, Note_on_c, 3, 51, 60
7, 244720, Note_off_c, 3, 51, 64
7, 244800, Note_on_c, 3, 53, 60
7, 245640, Note_off_c, 3, 53, 64
7, 245760, Note_on_c, 3, 55, 60
7, 246160, Note_off_c, 3, 55, 64
7, 246240, Note_on_c, 3, 56, 60
7, 247080, Note_off_c, 3, 56, 64
7, 247200, Note_on_c, 3, 53, 60
7, 247600, Note_off_c, 3, 53, 64
7, 247680, Note_on_c, 3, 55, 60
7, 248400, Note_off_c, 3, 55, 64
7, 248400, Note_on_c, 3, 53, 60
7, 248640, Note_off_c, 3, 53, 64
7, 248640, Note_on_c, 3, 51, 60
7, 248760, Note_off_c, 3, 51, 64
7, 248760, Note_on_c, 3, 55, 60
7, 248880, Note_off_c, 3, 55, 64
7, 248880, Note_on_c, 3, 53, 60
7, 249000, Note_off_c, 3, 53, 64
7, 249000, Note_on_c, 3, 51, 60
7, 249120, Note_off_c, 3, 51, 64
7, 249120, Note_on_c, 3, 50, 60
7, 249715, Note_off_c, 3, 50, 64
7, 249720, Note_on_c, 3, 50, 60
7, 249840, Note_off_c, 3, 50, 64
7, 249840, Note_on_c, 3, 52, 60
7, 249960, Note_off_c, 3, 52, 64
7, 249960, Note_on_c, 3, 54, 60
7, 250080, Note_off_c, 3, 54, 64
7, 250080, Note_on_c, 3, 55, 60
7, 250315, Note_off_c, 3, 55, 64
7, 250320, Note_on_c, 3, 67, 60
7, 250555, Note_off_c, 3, 67, 64
7, 250560, Note_on_c, 3, 74, 60
7, 251400, Note_off_c, 3, 74, 64
7, 251520, Note_on_c, 3, 70, 60
7, 251920, Note_off_c, 3, 70, 64
7, 252000, Note_on_c, 3, 72, 60
7, 252840, Note_off_c, 3, 72, 64
7, 252960, Note_on_c, 3, 74, 60
7, 253360, Note_off_c, 3, 74, 64
7, 253440, Note_on_c, 3, 75, 60
7, 254280, Note_off_c, 3, 75, 64
7, 254400, Note_on_c, 3, 72, 60
7, 254800, Note_off_c, 3, 72, 64
7, 254880, Note_on_c, 3, 74, 60
7, 255720, Note_off_c, 3, 74, 64
7, 255960, Note_on_c, 3, 79, 60
7, 256080, Note_off_c, 3, 79, 64
7, 256080, Note_on_c, 3, 77, 60
7, 256200, Note_off_c, 3, 77, 64
7, 256200, Note_on_c, 3, 79, 60
7, 256320, Note_off_c, 3, 79, 64
7, 256320, Note_on_c, 3, 75, 60
7, 256720, Note_off_c, 3, 75, 64
7, 256920, Note_on_c, 3, 74, 60
7, 257040, Note_off_c, 3, 74, 64
7, 257040, Note_on_c, 3, 72, 60
7, 257160, Note_off_c, 3, 72, 64
7, 257160, Note_on_c, 3, 74, 60
7, 257280, Note_off_c, 3, 74, 64
7, 257280, Note_on_c, 3, 71, 60
7, 257680, Note_off_c, 3, 71, 64
7, 257880, Note_on_c, 3, 72, 60
7, 258000, Note_off_c, 3, 72, 64
7, 258000, Note_on_c, 3, 70, 60
7, 258120, Note_off_c, 3, 70, 64
7, 258120, Note_on_c, 3, 72, 60
7, 258240, Note_off_c, 3, 72, 64
7, 258240, Note_on_c, 3, 68, 60
7, 258360, Note_off_c, 3, 68, 64
7, 258360, Note_on_c, 3, 72, 60
7, 258480, Note_off_c, 3, 72, 64
7, 258480, Note_on_c, 3, 70, 60
7, 258600, Note_off_c, 3, 70, 64
7, 258600, Note_on_c, 3, 72, 60
7, 258720, Note_off_c, 3, 72, 64
7, 258720, Note_on_c, 3, 65, 60
7, 258835, Note_off_c, 3, 65, 64
7, 258840, Note_on_c, 3, 77, 60
7, 258960, Note_off_c, 3, 77, 64
7, 258960, Note_on_c, 3, 75, 60
7, 259080, Note_off_c, 3, 75, 64
7, 259080, Note_on_c, 3, 77, 60
7, 259200, Note_off_c, 3, 77, 64
7, 259200, Note_on_c, 3, 71, 60
7, 259320, Note_off_c, 3, 71, 64
7, 259320, Note_on_c, 3, 74, 60
7, 259440, Note_off_c, 3, 74, 64
7, 259440, Note_on_c, 3, 72, 60
7, 259560, Note_off_c, 3, 72, 64
7, 259560, Note_on_c, 3, 74, 60
7, 259680, Note_off_c, 3, 74, 64
7, 259680, Note_on_c, 3, 67, 60
7, 259800, Note_off_c, 3, 67, 64
7, 259800, Note_on_c, 3, 79, 60
7, 259920, Note_off_c, 3, 79, 64
7, 259920, Note_on_c, 3, 77, 60
7, 260040, Note_off_c, 3, 77, 64
7, 260040, Note_on_c, 3, 79, 60
7, 260155, Note_off_c, 3, 79, 64
7, 260160, Note_on_c, 3, 75, 60
7, 260560, Note_off_c, 3, 75, 64
7, 260880, Note_on_c, 3, 75, 60
7, 261120, Note_off_c, 3, 75, 64
7, 261120, Note_on_c, 3, 71, 60
7, 261355, Note_off_c, 3, 71, 64
7, 261360, Note_on_c, 3, 71, 60
7, 261600, Note_off_c, 3, 71, 64
7, 261600, Note_on_c, 3, 72, 60
7, 262000, Note_off_c, 3, 72, 64
7, 262320, Note_on_c, 3, 80, 60
7, 262560, Note_off_c, 3, 80, 64
7, 262560, Note_on_c, 3, 74, 60
7, 262795, Note_off_c, 3, 74, 64
7, 262800, Note_on_c, 3, 74, 60
7, 263040, Note_off_c, 3, 74, 64
7, 263040, Note_on_c, 3, 76, 60
7, 263440, Note_off_c, 3, 76, 64
7, 263760, Note_on_c, 3, 77, 60
7, 264000, Note_off_c, 3, 77, 64
7, 264000, Note_on_c, 3, 72, 60
7, 264235, Note_off_c, 3, 72, 64
7, 264240, Note_on_c, 3, 72, 60
7, 264480, Note_off_c, 3, 72, 64
7, 264480, Note_on_c, 3, 74, 60
7, 264880, Note_off_c, 3, 74, 64
7, 265200, Note_on_c, 3, 75, 60
7, 265440, Note_off_c, 3, 75, 64
7, 265440, Note_on_c, 3, 71, 60
7, 265675, Note_off_c, 3, 71, 64
7, 265680, Note_on_c, 3, 71, 60
7, 265920, Note_off_c, 3, 71, 64
7, 265920, Note_on_c, 3, 79, 60
7, 266040, Note_off_c, 3, 79, 64
7, 266040, Note_on_c, 3, 80, 60
7, 266160, Note_off_c, 3, 80, 64
7, 266160, Note_on_c, 3, 77, 60
7, 266280, Note_off_c, 3, 77, 64
7, 266280, Note_on_c, 3, 79, 60
7, 266400, Note_off_c, 3, 79, 64
7, 266400, Note_on_c, 3, 75, 60
7, 266520, Note_off_c, 3, 75, 64
7, 266520, Note_on_c, 3, 77, 60
7, 266640, Note_off_c, 3, 77, 64
7, 266640, Note_on_c, 3, 74, 60
7, 266760, Note_off_c, 3, 74, 64
7, 266760, Note_on_c, 3, 75, 60
7, 266880, Note_off_c, 3, 75, 64
7, 266880, Note_on_c, 3, 72, 60
7, 267000, Note_off_c, 3, 72, 64
7, 267000, Note_on_c, 3, 74, 60
7, 267120, Note_off_c, 3, 74, 64
7, 267120, Note_on_c, 3, 70, 60
7, 267240, Note_off_c, 3, 70, 64
7, 267240, Note_on_c, 3, 72, 60
7, 267355, Note_off_c, 3, 72, 64
7, 267360, Note_on_c, 3, 69, 60
7, 267480, Note_off_c, 3, 69, 64
7, 267480, Note_on_c, 3, 70, 60
7, 267600, Note_off_c, 3, 70, 64
7, 267600, Note_on_c, 3, 67, 60
7, 267720, Note_off_c, 3, 67, 64
7, 267720, Note_on_c, 3, 69, 60
7, 267840, Note_off_c, 3, 69, 64
7, 267840, Note_on_c, 3, 66, 60
7, 267960, Note_off_c, 3, 66, 64
7, 267960, Note_on_c, 3, 69, 60
7, 268080, Note_off_c, 3, 69, 64
7, 268080, Note_on_c, 3, 67, 60
7, 268200, Note_off_c, 3, 67, 64
7, 268200, Note_on_c, 3, 70, 60
7, 268320, Note_off_c, 3, 70, 64
7, 268320, Note_on_c, 3, 69, 60
7, 268440, Note_off_c, 3, 69, 64
7, 268440, Note_on_c, 3, 74, 60
7, 268560, Note_off_c, 3, 74, 64
7, 268560, Note_on_c, 3, 72, 60
7, 268680, Note_off_c, 3, 72, 64
7, 268680, Note_on_c, 3, 74, 60
7, 268795, Note_off_c, 3, 74, 64
7, 268800, Note_on_c, 3, 67, 60
7, 268920, Note_off_c, 3, 67, 64
7, 268920, Note_on_c, 3, 79, 60
7, 269040, Note_off_c, 3, 79, 64
7, 269040, Note_on_c, 3, 77, 60
7, 269160, Note_off_c, 3, 77, 64
7, 269160, Note_on_c, 3, 79, 60
7, 269280, Note_off_c, 3, 79, 64
7, 269280, Note_on_c, 3, 75, 60
7, 269400, Note_off_c, 3, 75, 64
7, 269400, Note_on_c, 3, 79, 60
7, 269520, Note_off_c, 3, 79, 64
7, 269520, Note_on_c, 3, 75, 60
7, 269640, Note_off_c, 3, 75, 64
7, 269640, Note_on_c, 3, 79, 60
7, 269760, Note_off_c, 3, 79, 64
7, 269760, Note_on_c, 3, 75, 60
7, 269880, Note_off_c, 3, 75, 64
7, 269880, Note_on_c, 3, 77, 60
7, 270000, Note_off_c, 3, 77, 64
7, 270000, Note_on_c, 3, 75, 60
7, 270120, Note_off_c, 3, 75, 64
7, 270120, Note_on_c, 3, 77, 60
7, 270235, Note_off_c, 3, 77, 64
7, 270240, Note_on_c, 3, 74, 60
7, 270360, Note_off_c, 3, 74, 64
7, 270360, Note_on_c, 3, 77, 60
7, 270480, Note_off_c, 3, 77, 64
7, 270480, Note_on_c, 3, 74, 60
7, 270600, Note_off_c, 3, 74, 64
7, 270600, Note_on_c, 3, 77, 60
7, 270720, Note_off_c, 3, 77, 64
7, 270720, Note_on_c, 3, 72, 60
7, 270840, Note_off_c, 3, 72, 64
7, 270840, Note_on_c, 3, 75, 60
7, 270960, Note_off_c, 3, 75, 64
7, 270960, Note_on_c, 3, 74, 60
7, 271080, Note_off_c, 3, 74, 64
7, 271080, Note_on_c, 3, 77, 60
7, 271200, Note_off_c, 3, 77, 64
7, 271200, Note_on_c, 3, 75, 60
7, 271320, Note_off_c, 3, 75, 64
7, 271320, Note_on_c, 3, 77, 60
7, 271440, Note_off_c, 3, 77, 64
7, 271440, Note_on_c, 3, 75, 60
7, 271560, Note_off_c, 3, 75, 64
7, 271560, Note_on_c, 3, 77, 60
7, 271675, Note_off_c, 3, 77, 64
7, 271680, Note_on_c, 3, 75, 60
7, 271800, Note_off_c, 3, 75, 64
7, 271800, Note_on_c, 3, 77, 60
7, 271920, Note_off_c, 3, 77, 64
7, 271920, Note_on_c, 3, 75, 60
7, 272040, Note_off_c, 3, 75, 64
7, 272040, Note_on_c, 3, 77, 60
7, 272160, Note_off_c, 3, 77, 64
7, 272160, Note_on_c, 3, 74, 60
7, 272280, Note_off_c, 3, 74, 64
7, 272280, Note_on_c, 3, 75, 60
7, 272400, Note_off_c, 3, 75, 64
7, 272400, Note_on_c, 3, 74, 60
7, 272520, Note_off_c, 3, 74, 64
7, 272520, Note_on_c, 3, 75, 60
7, 272640, Note_off_c, 3, 75, 64
7, 272640, Note_on_c, 3, 74, 60
7, 272760, Note_off_c, 3, 74, 64
7, 272760, Note_on_c, 3, 75, 60
7, 272880, Note_off_c, 3, 75, 64
7, 272880, Note_on_c, 3, 72, 60
7, 273000, Note_off_c, 3, 72, 64
7, 273000, Note_on_c, 3, 74, 60
7, 273115, Note_off_c, 3, 74, 64
7, 273120, Note_on_c, 3, 70, 60
7, 273240, Note_off_c, 3, 70, 64
7, 273240, Note_on_c, 3, 74, 60
7, 273360, Note_off_c, 3, 74, 64
7, 273360, Note_on_c, 3, 72, 60
7, 273480, Note_off_c, 3, 72, 64
7, 273480, Note_on_c, 3, 75, 60
7, 273600, Note_off_c, 3, 75, 64
7, 273600, Note_on_c, 3, 74, 60
7, 273835, Note_off_c, 3, 74, 64
7, 273840, Note_on_c, 3, 67, 60
7, 273960, Note_off_c, 3, 67, 64
7, 273960, Note_on_c, 3, 70, 60
7, 274080, Note_off_c, 3, 70, 64
7, 274080, Note_on_c, 3, 69, 60
7, 274200, Note_off_c, 3, 69, 64
7, 274200, Note_on_c, 3, 72, 60
7, 274320, Note_off_c, 3, 72, 64
7, 274320, Note_on_c, 3, 70, 60
7, 274440, Note_off_c, 3, 70, 64
7, 274440, Note_on_c, 3, 72, 60
7, 274555, Note_off_c, 3, 72, 64
7, 274560, Note_on_c, 3, 69, 60
7, 274590, Note_off_c, 3, 69, 64
7, 274590, Note_on_c, 3, 70, 60
7, 274620, Note_off_c, 3, 70, 64
7, 274620, Note_on_c, 3, 69, 60
7, 274650, Note_off_c, 3, 69, 64
7, 274650, Note_on_c, 3, 70, 60
7, 274680, Note_off_c, 3, 70, 64
7, 274680, Note_on_c, 3, 69, 60
7, 274710, Note_off_c, 3, 69, 64
7, 274710, Note_on_c, 3, 70, 60
7, 274740, Note_off_c, 3, 70, 64
7, 274740, Note_on_c, 3, 69, 60
7, 274770, Note_off_c, 3, 69, 64
7, 274770, Note_on_c, 3, 70, 60
7, 274800, Note_off_c, 3, 70, 64
7, 274800, Note_on_c, 3, 69, 60
7, 274830, Note_off_c, 3, 69, 64
7, 274830, Note_on_c, 3, 70, 60
7, 274860, Note_off_c, 3, 70, 64
7, 274860, Note_on_c, 3, 69, 60
7, 274890, Note_off_c, 3, 69, 64
7, 274890, Note_on_c, 3, 70, 60
7, 274920, Note_off_c, 3, 70, 64
7, 274920, Note_on_c, 3, 69, 60
7, 274950, Note_off_c, 3, 69, 64
7, 274950, Note_on_c, 3, 70, 60
7, 274980, Note_off_c, 3, 70, 64
7, 274980, Note_on_c, 3, 69, 60
7, 275010, Note_off_c, 3, 69, 64
7, 275010, Note_on_c, 3, 70, 60
7, 275040, Note_off_c, 3, 70, 64
7, 275040, Note_on_c, 3, 67, 60
7, 275155, Note_off_c, 3, 67, 64
7, 275160, Note_on_c, 3, 71, 61
7, 275280, Note_off_c, 3, 71, 64
7, 275280, Note_on_c, 3, 69, 63
7, 275400, Note_off_c, 3, 69, 64
7, 275400, Note_on_c, 3, 72, 65
7, 275520, Note_off_c, 3, 72, 64
7, 275520, Note_on_c, 3, 71, 67
7, 275640, Note_off_c, 3, 71, 64
7, 275640, Note_on_c, 3, 79, 69
7, 275760, Note_off_c, 3, 79, 64
7, 275760, Note_on_c, 3, 77, 71
7, 275880, Note_off_c, 3, 77, 64
7, 275880, Note_on_c, 3, 79, 73
7, 275995, Note_off_c, 3, 79, 64
7, 276000, Note_on_c, 3, 75, 75
7, 276120, Note_off_c, 3, 75, 64
7, 276120, Note_on_c, 3, 79, 75
7, 276240, Note_off_c, 3, 79, 64
7, 276240, Note_on_c, 3, 77, 75
7, 276360, Note_off_c, 3, 77, 64
7, 276360, Note_on_c, 3, 80, 75
7, 276480, Note_off_c, 3, 80, 64
7, 276480, Note_on_c, 3, 71, 75
7, 276600, Note_off_c, 3, 71, 64
7, 276600, Note_on_c, 3, 74, 75
7, 276720, Note_off_c, 3, 74, 64
7, 276720, Note_on_c, 3, 72, 75
7, 276840, Note_off_c, 3, 72, 64
7, 276840, Note_on_c, 3, 75, 75
7, 276960, Note_off_c, 3, 75, 64
7, 276960, Note_on_c, 3, 74, 75
7, 277080, Note_off_c, 3, 74, 64
7, 277080, Note_on_c, 3, 75, 75
7, 277200, Note_off_c, 3, 75, 64
7, 277200, Note_on_c, 3, 74, 75
7, 277320, Note_off_c, 3, 74, 64
7, 277320, Note_on_c, 3, 75, 75
7, 277435, Note_off_c, 3, 75, 64
7, 277440, Note_on_c, 3, 72, 75
7, 277560, Note_off_c, 3, 72, 64
7, 277560, Note_on_c, 3, 75, 75
7, 277680, Note_off_c, 3, 75, 64
7, 277680, Note_on_c, 3, 74, 75
7, 277800, Note_off_c, 3, 74, 64
7, 277800, Note_on_c, 3, 75, 75
7, 277920, Note_off_c, 3, 75, 64
7, 277920, Note_on_c, 3, 72, 75
7, 278320, Note_off_c, 3, 72, 64
7, 278400, Note_on_c, 3, 70, 75
7, 279115, Note_off_c, 3, 70, 64
7, 279120, Note_on_c, 3, 70, 75
7, 279360, Note_off_c, 3, 70, 64
7, 279360, Note_on_c, 3, 68, 75
7, 279600, Note_off_c, 3, 68, 64
7, 279600, Note_on_c, 3, 72, 75
7, 279835, Note_off_c, 3, 72, 64
7, 279840, Note_on_c, 3, 77, 75
7, 280200, Note_off_c, 3, 77, 64
7, 280200, Note_on_c, 3, 75, 75
7, 280315, Note_off_c, 3, 75, 64
7, 280320, Note_on_c, 3, 74, 75
7, 280560, Note_off_c, 3, 74, 64
7, 280560, Note_on_c, 3, 72, 75
7, 280800, Note_off_c, 3, 72, 64
7, 280800, Note_on_c, 3, 70, 75
7, 281200, Note_off_c, 3, 70, 64
7, 281280, Note_on_c, 3, 75, 75
7, 281760, Note_off_c, 3, 75, 64
7, 281760, Note_on_c, 3, 77, 75
7, 282160, Note_off_c, 3, 77, 64
7, 282240, Note_on_c, 3, 79, 75
7, 282360, Note_off_c, 3, 79, 64
7, 282360, Note_on_c, 3, 80, 75
7, 282480, Note_off_c, 3, 80, 64
7, 282480, Note_on_c, 3, 82, 75
7, 282600, Note_off_c, 3, 82, 64
7, 282600, Note_on_c, 3, 75, 75
7, 282720, Note_off_c, 3, 75, 64
7, 282720, Note_on_c, 3, 75, 75
7, 283120, Note_off_c, 3, 75, 64
7, 283200, Note_on_c, 3, 74, 75
7, 283230, Note_off_c, 3, 74, 64
7, 283230, Note_on_c, 3, 75, 75
7, 283260, Note_off_c, 3, 75, 64
7, 283260, Note_on_c, 3, 74, 75
7, 283290, Note_off_c, 3, 74, 64
7, 283290, Note_on_c, 3, 75, 75
7, 283320, Note_off_c, 3, 75, 64
7, 283320, Note_on_c, 3, 74, 75
7, 283350, Note_off_c, 3, 74, 64
7, 283350, Note_on_c, 3, 75, 75
7, 283380, Note_off_c, 3, 75, 64
7, 283380, Note_on_c, 3, 74, 75
7, 283410, Note_off_c, 3, 74, 64
7, 283410, Note_on_c, 3, 75, 75
7, 283440, Note_off_c, 3, 75, 64
7, 283440, Note_on_c, 3, 74, 75
7, 283470, Note_off_c, 3, 74, 64
7, 283470, Note_on_c, 3, 75, 75
7, 283500, Note_off_c, 3, 75, 64
7, 283500, Note_on_c, 3, 74, 75
7, 283530, Note_off_c, 3, 74, 64
7, 283530, Note_on_c, 3, 75, 75
7, 283560, Note_off_c, 3, 75, 64
7, 283560, Note_on_c, 3, 74, 75
7, 283590, Note_off_c, 3, 74, 64
7, 283590, Note_on_c, 3, 75, 75
7, 283620, Note_off_c, 3, 75, 64
7, 283620, Note_on_c, 3, 74, 75
7, 283650, Note_off_c, 3, 74, 64
7, 283650, Note_on_c, 3, 75, 75
7, 283675, Note_off_c, 3, 75, 64
7, 283680, Note_on_c, 3, 75, 75
7, 284080, Note_off_c, 3, 75, 64
7, 284280, Note_on_c, 3, 70, 75
7, 284400, Note_off_c, 3, 70, 64
7, 284400, Note_on_c, 3, 68, 75
7, 284520, Note_off_c, 3, 68, 64
7, 284520, Note_on_c, 3, 70, 75
7, 284640, Note_off_c, 3, 70, 64
7, 284640, Note_on_c, 3, 67, 75
7, 285040, Note_off_c, 3, 67, 64
7, 285360, Note_on_c, 3, 67, 75
7, 285600, Note_off_c, 3, 67, 64
7, 285600, Note_on_c, 3, 62, 75
7, 285835, Note_off_c, 3, 62, 64
7, 285840, Note_on_c, 3, 62, 75
7, 286080, Note_off_c, 3, 62, 64
7, 286080, Note_on_c, 3, 63, 75
7, 286480, Note_off_c, 3, 63, 64
7, 286800, Note_on_c, 3, 72, 75
7, 287040, Note_off_c, 3, 72, 64
7, 287040, Note_on_c, 3, 65, 75
7, 287275, Note_off_c, 3, 65, 64
7, 287280, Note_on_c, 3, 65, 75
7, 287520, Note_off_c, 3, 65, 64
7, 287520, Note_on_c, 3, 67, 75
7, 287920, Note_off_c, 3, 67, 64
7, 288240, Note_on_c, 3, 68, 75
7, 288480, Note_off_c, 3, 68, 64
7, 288480, Note_on_c, 3, 63, 75
7, 288715, Note_off_c, 3, 63, 64
7, 288720, Note_on_c, 3, 63, 75
7, 288960, Note_off_c, 3, 63, 64
7, 288960, Note_on_c, 3, 65, 75
7, 289360, Note_off_c, 3, 65, 64
7, 289680, Note_on_c, 3, 67, 75
7, 289920, Note_off_c, 3, 67, 64
7, 289920, Note_on_c, 3, 62, 75
7, 290155, Note_off_c, 3, 62, 64
7, 290160, Note_on_c, 3, 62, 75
7, 290400, Note_off_c, 3, 62, 64
7, 290400, Note_on_c, 3, 63, 75
7, 290800, Note_off_c, 3, 63, 64
7, 291120, Note_on_c, 3, 65, 75
7, 291355, Note_off_c, 3, 65, 64
7, 291360, Note_on_c, 3, 72, 75
7, 291595, Note_off_c, 3, 72, 64
7, 291600, Note_on_c, 3, 72, 75
7, 291840, Note_off_c, 3, 72, 64
7, 291840, Note_on_c, 3, 74, 75
7, 292240, Note_off_c, 3, 74, 64
7, 292320, Note_on_c, 3, 75, 75
7, 292560, Note_off_c, 3, 75, 64
7, 292560, Note_on_c, 3, 70, 75
7, 292795, Note_off_c, 3, 70, 64
7, 292800, Note_on_c, 3, 75, 75
7, 293200, Note_off_c, 3, 75, 64
7, 293280, Note_on_c, 3, 75, 75
7, 293400, Note_off_c, 3, 75, 64
7, 293400, Note_on_c, 3, 77, 75
7, 293520, Note_off_c, 3, 77, 64
7, 293520, Note_on_c, 3, 74, 75
7, 293640, Note_off_c, 3, 74, 64
7, 293640, Note_on_c, 3, 75, 75
7, 293755, Note_off_c, 3, 75, 64
7, 293760, Note_on_c, 3, 72, 75
7, 294000, Note_off_c, 3, 72, 64
7, 294000, Note_on_c, 3, 75, 75
7, 294240, Note_off_c, 3, 75, 64
7, 294240, Note_on_c, 3, 80, 75
7, 294480, Note_off_c, 3, 80, 64
7, 294480, Note_on_c, 3, 72, 75
7, 294720, Note_off_c, 3, 72, 64
7, 294720, Note_on_c, 3, 70, 75
7, 294960, Note_off_c, 3, 70, 64
7, 294960, Note_on_c, 3, 80, 75
7, 295195, Note_off_c, 3, 80, 64
7, 295200, Note_on_c, 3, 70, 75
7, 295440, Note_off_c, 3, 70, 64
7, 295440, Note_on_c, 3, 74, 75
7, 295680, Note_off_c, 3, 74, 64
7, 295680, Note_on_c, 3, 79, 75
7, 295920, Note_off_c, 3, 79, 64
7, 295920, Note_on_c, 3, 70, 75
7, 296160, Note_off_c, 3, 70, 64
7, 296160, Note_on_c, 3, 68, 75
7, 296400, Note_off_c, 3, 68, 64
7, 296400, Note_on_c, 3, 79, 75
7, 296635, Note_off_c, 3, 79, 64
7, 296640, Note_on_c, 3, 68, 75
7, 296880, Note_off_c, 3, 68, 64
7, 296880, Note_on_c, 3, 72, 75
7, 297120, Note_off_c, 3, 72, 64
7, 297120, Note_on_c, 3, 77, 75
7, 297360, Note_off_c, 3, 77, 64
7, 297360, Note_on_c, 3, 68, 75
7, 297600, Note_off_c, 3, 68, 64
7, 297600, Note_on_c, 3, 67, 75
7, 297840, Note_off_c, 3, 67, 64
7, 297840, Note_on_c, 3, 77, 75
7, 298075, Note_off_c, 3, 77, 64
7, 298080, Note_on_c, 3, 67, 75
7, 298320, Note_off_c, 3, 67, 64
7, 298320, Note_on_c, 3, 70, 75
7, 298560, Note_off_c, 3, 70, 64
7, 298560, Note_on_c, 3, 75, 75
7, 298800, Note_off_c, 3, 75, 64
7, 298800, Note_on_c, 3, 67, 75
7, 299040, Note_off_c, 3, 67, 64
7, 299040, Note_on_c, 3, 65, 75
7, 299280, Note_off_c, 3, 65, 64
7, 299280, Note_on_c, 3, 75, 75
7, 299515, Note_off_c, 3, 75, 64
7, 299520, Note_on_c, 3, 74, 75
7, 299640, Note_off_c, 3, 74, 64
7, 299640, Note_on_c, 3, 77, 75
7, 299760, Note_off_c, 3, 77, 64
7, 299760, Note_on_c, 3, 74, 75
7, 299880, Note_off_c, 3, 74, 64
7, 299880, Note_on_c, 3, 77, 75
7, 300000, Note_off_c, 3, 77, 64
7, 300000, Note_on_c, 3, 70, 75
7, 300235, Note_off_c, 3, 70, 64
7, 300240, Note_on_c, 3, 69, 75
7, 300360, Note_off_c, 3, 69, 64
7, 300360, Note_on_c, 3, 67, 75
7, 300480, Note_off_c, 3, 67, 64
7, 300480, Note_on_c, 3, 58, 75
7, 300880, Note_off_c, 3, 58, 64
7, 300960, Note_on_c, 3, 65, 75
7, 301800, Note_off_c, 3, 65, 64
7, 301920, Note_on_c, 3, 62, 75
7, 302320, Note_off_c, 3, 62, 64
7, 302400, Note_on_c, 3, 63, 75
7, 303240, Note_off_c, 3, 63, 64
7, 303360, Note_on_c, 3, 65, 75
7, 303760, Note_off_c, 3, 65, 64
7, 303840, Note_on_c, 3, 67, 75
7, 304680, Note_off_c, 3, 67, 64
7, 304800, Note_on_c, 3, 63, 75
7, 305200, Note_off_c, 3, 63, 64
7, 305280, Note_on_c, 3, 65, 75
7, 305680, Note_off_c, 3, 65, 64
7, 305880, Note_on_c, 3, 68, 75
7, 306000, Note_off_c, 3, 68, 64
7, 306000, Note_on_c, 3, 67, 75
7, 306120, Note_off_c, 3, 67, 64
7, 306120, Note_on_c, 3, 68, 75
7, 306240, Note_off_c, 3, 68, 64
7, 306240, Note_on_c, 3, 65, 75
7, 306360, Note_off_c, 3, 65, 64
7, 306360, Note_on_c, 3, 70, 75
7, 306480, Note_off_c, 3, 70, 64
7, 306480, Note_on_c, 3, 68, 75
7, 306600, Note_off_c, 3, 68, 64
7, 306600, Note_on_c, 3, 70, 75
7, 306720, Note_off_c, 3, 70, 64
7, 306720, Note_on_c, 3, 67, 75
7, 307120, Note_off_c, 3, 67, 64
7, 307320, Note_on_c, 3, 61, 75
7, 307440, Note_off_c, 3, 61, 64
7, 307440, Note_on_c, 3, 60, 75
7, 307560, Note_off_c, 3, 60, 64
7, 307560, Note_on_c, 3, 61, 75
7, 307680, Note_off_c, 3, 61, 64
7, 307680, Note_on_c, 3, 58, 75
7, 307800, Note_off_c, 3, 58, 64
7, 307800, Note_on_c, 3, 63, 75
7, 307920, Note_off_c, 3, 63, 64
7, 307920, Note_on_c, 3, 61, 75
7, 308040, Note_off_c, 3, 61, 64
7, 308040, Note_on_c, 3, 63, 75
7, 308160, Note_off_c, 3, 63, 64
7, 308160, Note_on_c, 3, 60, 75
7, 308560, Note_off_c, 3, 60, 64
7, 308760, Note_on_c, 3, 58, 75
7, 308880, Note_off_c, 3, 58, 64
7, 308880, Note_on_c, 3, 56, 75
7, 309000, Note_off_c, 3, 56, 64
7, 309000, Note_on_c, 3, 58, 75
7, 309120, Note_off_c, 3, 58, 64
7, 309120, Note_on_c, 3, 55, 75
7, 309240, Note_off_c, 3, 55, 64
7, 309240, Note_on_c, 3, 60, 75
7, 309360, Note_off_c, 3, 60, 64
7, 309360, Note_on_c, 3, 58, 75
7, 309480, Note_off_c, 3, 58, 64
7, 309480, Note_on_c, 3, 60, 75
7, 309600, Note_off_c, 3, 60, 64
7, 309600, Note_on_c, 3, 56, 75
7, 309835, Note_off_c, 3, 56, 64
7, 309840, Note_on_c, 3, 60, 75
7, 310080, Note_off_c, 3, 60, 64
7, 310080, Note_on_c, 3, 59, 75
7, 310315, Note_off_c, 3, 59, 64
7, 310320, Note_on_c, 3, 59, 75
7, 310560, Note_off_c, 3, 59, 64
7, 310560, Note_on_c, 3, 60, 75
7, 310960, Note_off_c, 3, 60, 64
7, 311160, Note_on_c, 3, 74, 75
7, 311280, Note_off_c, 3, 74, 64
7, 311280, Note_on_c, 3, 72, 75
7, 311400, Note_off_c, 3, 72, 64
7, 311400, Note_on_c, 3, 74, 75
7, 311520, Note_off_c, 3, 74, 64
7, 311520, Note_on_c, 3, 69, 75
7, 311755, Note_off_c, 3, 69, 64
7, 311760, Note_on_c, 3, 69, 75
7, 312000, Note_off_c, 3, 69, 64
7, 312000, Note_on_c, 3, 71, 75
7, 312400, Note_off_c, 3, 71, 64
7, 312600, Note_on_c, 3, 72, 75
7, 312720, Note_off_c, 3, 72, 64
7, 312720, Note_on_c, 3, 71, 75
7, 312840, Note_off_c, 3, 71, 64
7, 312840, Note_on_c, 3, 72, 75
7, 312955, Note_off_c, 3, 72, 64
7, 313080, Note_on_c, 3, 72, 75
7, 313200, Note_off_c, 3, 72, 64
7, 313200, Note_on_c, 3, 71, 75
7, 313320, Note_off_c, 3, 71, 64
7, 313320, Note_on_c, 3, 72, 75
7, 313435, Note_off_c, 3, 72, 64
7, 313560, Note_on_c, 3, 72, 75
7, 313680, Note_off_c, 3, 72, 64
7, 313680, Note_on_c, 3, 71, 75
7, 313800, Note_off_c, 3, 71, 64
7, 313800, Note_on_c, 3, 72, 75
7, 313915, Note_off_c, 3, 72, 64
7, 314040, Note_on_c, 3, 70, 75
7, 314160, Note_off_c, 3, 70, 64
7, 314160, Note_on_c, 3, 69, 75
7, 314280, Note_off_c, 3, 69, 64
7, 314280, Note_on_c, 3, 70, 75
7, 314395, Note_off_c, 3, 70, 64
7, 314520, Note_on_c, 3, 69, 75
7, 314640, Note_off_c, 3, 69, 64
7, 314640, Note_on_c, 3, 67, 75
7, 314760, Note_off_c, 3, 67, 64
7, 314760, Note_on_c, 3, 69, 75
7, 314875, Note_off_c, 3, 69, 64
7, 315000, Note_on_c, 3, 69, 75
7, 315120, Note_off_c, 3, 69, 64
7, 315120, Note_on_c, 3, 67, 75
7, 315240, Note_off_c, 3, 67, 64
7, 315240, Note_on_c, 3, 69, 75
7, 315355, Note_off_c, 3, 69, 64
7, 315480, Note_on_c, 3, 67, 75
7, 315600, Note_off_c, 3, 67, 64
7, 315600, Note_on_c, 3, 66, 75
7, 315720, Note_off_c, 3, 66, 64
7, 315720, Note_on_c, 3, 67, 75
7, 315835, Note_off_c, 3, 67, 64
7, 315960, Note_on_c, 3, 67, 75
7, 316080, Note_off_c, 3, 67, 64
7, 316080, Note_on_c, 3, 66, 75
7, 316200, Note_off_c, 3, 66, 64
7, 316200, Note_on_c, 3, 67, 75
7, 316315, Note_off_c, 3, 67, 64
7, 316440, Note_on_c, 3, 69, 76
7, 316560, Note_off_c, 3, 69, 64
7, 316560, Note_on_c, 3, 67, 77
7, 316680, Note_off_c, 3, 67, 64
7, 316680, Note_on_c, 3, 69, 78
7, 316795, Note_off_c, 3, 69, 64
7, 316920, Note_on_c, 3, 66, 80
7, 317040, Note_off_c, 3, 66, 64
7, 317040, Note_on_c, 3, 64, 81
7, 317160, Note_off_c, 3, 64, 64
7, 317160, Note_on_c, 3, 66, 82
7, 317275, Note_off_c, 3, 66, 64
7, 317400, Note_on_c, 3, 66, 86
7, 317520, Note_off_c, 3, 66, 64
7, 317520, Note_on_c, 3, 64, 88
7, 317640, Note_off_c, 3, 64, 64
7, 317640, Note_on_c, 3, 66, 90
7, 317755, Note_off_c, 3, 66, 64
7, 317760, Note_on_c, 3, 67, 92
7, 318475, Note_off_c, 3, 67, 64
7, 318480, Note_on_c, 3, 70, 92
7, 318720, Note_off_c, 3, 70, 64
7, 318720, Note_on_c, 3, 66, 92
7, 318955, Note_off_c, 3, 66, 64
7, 318960, Note_on_c, 3, 66, 92
7, 319200, Note_off_c, 3, 66, 64
7, 319200, Note_on_c, 3, 67, 92
7, 319600, Note_off_c, 3, 67, 64
7, 319920, Note_on_c, 3, 75, 92
7, 320160, Note_off_c, 3, 75, 64
7, 320160, Note_on_c, 3, 69, 92
7, 320395, Note_off_c, 3, 69, 64
7, 320400, Note_on_c, 3, 69, 92
7, 320640, Note_off_c, 3, 69, 64
7, 320640, Note_on_c, 3, 70, 92
7, 321040, Note_off_c, 3, 70, 64
7, 321360, Note_on_c, 3, 72, 92
7, 321600, Note_off_c, 3, 72, 64
7, 321600, Note_on_c, 3, 67, 92
7, 321835, Note_off_c, 3, 67, 64
7, 321840, Note_on_c, 3, 67, 92
7, 322080, Note_off_c, 3, 67, 64
7, 322080, Note_on_c, 3, 69, 92
7, 322480, Note_off_c, 3, 69, 64
7, 322800, Note_on_c, 3, 58, 75
7, 323035, Note_off_c, 3, 58, 64
7, 324000, Note_on_c, 3, 70, 75
7, 325075, Note_off_c, 3, 70, 64
7, 325080, Note_on_c, 3, 72, 75
7, 325200, Note_off_c, 3, 72, 64
7, 325200, Note_on_c, 3, 67, 75
7, 325320, Note_off_c, 3, 67, 64
7, 325320, Note_on_c, 3, 70, 75
7, 325440, Note_off_c, 3, 70, 64
7, 325440, Note_on_c, 3, 69, 75
7, 326515, Note_off_c, 3, 69, 64
7, 329760, Note_on_c, 3, 63, 75
7, 330835, Note_off_c, 3, 63, 64
7, 330840, Note_on_c, 3, 67, 75
7, 330960, Note_off_c, 3, 67, 64
7, 330960, Note_on_c, 3, 65, 75
7, 331080, Note_off_c, 3, 65, 64
7, 331080, Note_on_c, 3, 63, 75
7, 331200, Note_off_c, 3, 63, 64
7, 331200, Note_on_c, 3, 62, 75
7, 331320, Note_off_c, 3, 62, 64
7, 331320, Note_on_c, 3, 65, 75
7, 331440, Note_off_c, 3, 65, 64
7, 331440, Note_on_c, 3, 63, 75
7, 331560, Note_off_c, 3, 63, 64
7, 331560, Note_on_c, 3, 67, 75
7, 331680, Note_off_c, 3, 67, 64
7, 331680, Note_on_c, 3, 65, 75
7, 331800, Note_off_c, 3, 65, 64
7, 331800, Note_on_c, 3, 67, 75
7, 331920, Note_off_c, 3, 67, 64
7, 331920, Note_on_c, 3, 65, 75
7, 332040, Note_off_c, 3, 65, 64
7, 332040, Note_on_c, 3, 68, 75
7, 332155, Note_off_c, 3, 68, 64
7, 332160, Note_on_c, 3, 62, 75
7, 333120, Note_off_c, 3, 62, 64
7, 333120, Note_on_c, 3, 60, 75
7, 333715, Note_off_c, 3, 60, 64
7, 336480, Note_on_c, 3, 65, 75
7, 336600, Note_off_c, 3, 65, 64
7, 336600, Note_on_c, 3, 63, 75
7, 336720, Note_off_c, 3, 63, 64
7, 336720, Note_on_c, 3, 62, 75
7, 336840, Note_off_c, 3, 62, 64
7, 336840, Note_on_c, 3, 60, 75
7, 336960, Note_off_c, 3, 60, 64
7, 336960, Note_on_c, 3, 59, 75
7, 337080, Note_off_c, 3, 59, 64
7, 337080, Note_on_c, 3, 62, 75
7, 337200, Note_off_c, 3, 62, 64
7, 337200, Note_on_c, 3, 60, 75
7, 337320, Note_off_c, 3, 60, 64
7, 337320, Note_on_c, 3, 63, 75
7, 337440, Note_off_c, 3, 63, 64
7, 337440, Note_on_c, 3, 62, 75
7, 337560, Note_off_c, 3, 62, 64
7, 337560, Note_on_c, 3, 65, 75
7, 337680, Note_off_c, 3, 65, 64
7, 337680, Note_on_c, 3, 63, 75
7, 337800, Note_off_c, 3, 63, 64
7, 337800, Note_on_c, 3, 62, 75
7, 337920, Note_off_c, 3, 62, 64
7, 337920, Note_on_c, 3, 60, 75
7, 338035, Note_off_c, 3, 60, 64
7, 338040, Note_on_c, 3, 72, 75
7, 338160, Note_off_c, 3, 72, 64
7, 338160, Note_on_c, 3, 70, 75
7, 338280, Note_off_c, 3, 70, 64
7, 338280, Note_on_c, 3, 72, 75
7, 338400, Note_off_c, 3, 72, 64
7, 338400, Note_on_c, 3, 68, 75
7, 338520, Note_off_c, 3, 68, 64
7, 338520, Note_on_c, 3, 72, 75
7, 338640, Note_off_c, 3, 72, 64
7, 338640, Note_on_c, 3, 68, 75
7, 338760, Note_off_c, 3, 68, 64
7, 338760, Note_on_c, 3, 72, 75
7, 338880, Note_off_c, 3, 72, 64
7, 338880, Note_on_c, 3, 68, 75
7, 339000, Note_off_c, 3, 68, 64
7, 339000, Note_on_c, 3, 70, 75
7, 339120, Note_off_c, 3, 70, 64
7, 339120, Note_on_c, 3, 68, 75
7, 339240, Note_off_c, 3, 68, 64
7, 339240, Note_on_c, 3, 70, 75
7, 339355, Note_off_c, 3, 70, 64
7, 341880, Note_on_c, 3, 68, 75
7, 342000, Note_off_c, 3, 68, 64
7, 342000, Note_on_c, 3, 67, 75
7, 342120, Note_off_c, 3, 67, 64
7, 342120, Note_on_c, 3, 68, 75
7, 342235, Note_off_c, 3, 68, 64
7, 342360, Note_on_c, 3, 65, 75
7, 342480, Note_off_c, 3, 65, 64
7, 342480, Note_on_c, 3, 63, 75
7, 342600, Note_off_c, 3, 63, 64
7, 342600, Note_on_c, 3, 65, 75
7, 342715, Note_off_c, 3, 65, 64
7, 342840, Note_on_c, 3, 67, 75
7, 342960, Note_off_c, 3, 67, 64
7, 342960, Note_on_c, 3, 68, 75
7, 343080, Note_off_c, 3, 68, 64
7, 343080, Note_on_c, 3, 67, 75
7, 343195, Note_off_c, 3, 67, 64
7, 343320, Note_on_c, 3, 65, 75
7, 343440, Note_off_c, 3, 65, 64
7, 343440, Note_on_c, 3, 63, 75
7, 343560, Note_off_c, 3, 63, 64
7, 343560, Note_on_c, 3, 65, 75
7, 343675, Note_off_c, 3, 65, 64
7, 344160, Note_on_c, 3, 60, 75
7, 344395, Note_off_c, 3, 60, 64
7, 344400, Note_on_c, 3, 62, 75
7, 344635, Note_off_c, 3, 62, 64
7, 344640, Note_on_c, 3, 63, 75
7, 344875, Note_off_c, 3, 63, 64
7, 344880, Note_on_c, 3, 65, 75
7, 345115, Note_off_c, 3, 65, 64
7, 345120, Note_on_c, 3, 67, 75
7, 345355, Note_off_c, 3, 67, 64
7, 345360, Note_on_c, 3, 69, 75
7, 345595, Note_off_c, 3, 69, 64
7, 345600, Note_on_c, 3, 70, 75
7, 345835, Note_off_c, 3, 70, 64
7, 345840, Note_on_c, 3, 72, 75
7, 346075, Note_off_c, 3, 72, 64
7, 346080, Note_on_c, 3, 62, 75
7, 346315, Note_off_c, 3, 62, 64
7, 346320, Note_on_c, 3, 63, 75
7, 346555, Note_off_c, 3, 63, 64
7, 346560, Note_on_c, 3, 65, 75
7, 346795, Note_off_c, 3, 65, 64
7, 346800, Note_on_c, 3, 67, 75
7, 347035, Note_off_c, 3, 67, 64
7, 347040, Note_on_c, 3, 68, 75
7, 347275, Note_off_c, 3, 68, 64
7, 347280, Note_on_c, 3, 70, 75
7, 347515, Note_off_c, 3, 70, 64
7, 347520, Note_on_c, 3, 72, 75
7, 347755, Note_off_c, 3, 72, 64
7, 347760, Note_on_c, 3, 74, 75
7, 347995, Note_off_c, 3, 74, 64
7, 348000, Note_on_c, 3, 75, 75
7, 348235, Note_off_c, 3, 75, 64
7, 348240, Note_on_c, 3, 77, 75
7, 348475, Note_off_c, 3, 77, 64
7, 348480, Note_on_c, 3, 67, 75
7, 348715, Note_off_c, 3, 67, 64
7, 348720, Note_on_c, 3, 68, 75
7, 348955, Note_off_c, 3, 68, 64
7, 348960, Note_on_c, 3, 70, 75
7, 349195, Note_off_c, 3, 70, 64
7, 349200, Note_on_c, 3, 72, 75
7, 349435, Note_off_c, 3, 72, 64
7, 349440, Note_on_c, 3, 74, 75
7, 349675, Note_off_c, 3, 74, 64
7, 349680, Note_on_c, 3, 76, 75
7, 349915, Note_off_c, 3, 76, 64
7, 349920, Note_on_c, 3, 65, 75
7, 350155, Note_off_c, 3, 65, 64
7, 350160, Note_on_c, 3, 67, 75
7, 350395, Note_off_c, 3, 67, 64
7, 350400, Note_on_c, 3, 68, 75
7, 350635, Note_off_c, 3, 68, 64
7, 350640, Note_on_c, 3, 70, 75
7, 350875, Note_off_c, 3, 70, 64
7, 350880, Note_on_c, 3, 72, 75
7, 351115, Note_off_c, 3, 72, 64
7, 351120, Note_on_c, 3, 74, 75
7, 351355, Note_off_c, 3, 74, 64
7, 351360, Note_on_c, 3, 75, 75
7, 352000, Note_off_c, 3, 75, 64
7, 352080, Note_on_c, 3, 62, 75
7, 352315, Note_off_c, 3, 62, 64
7, 352320, Note_on_c, 3, 57, 75
7, 352440, Note_off_c, 3, 57, 64
7, 352440, Note_on_c, 3, 58, 75
7, 352560, Note_off_c, 3, 58, 64
7, 352560, Note_on_c, 3, 55, 75
7, 352680, Note_off_c, 3, 55, 64
7, 352680, Note_on_c, 3, 57, 75
7, 352795, Note_off_c, 3, 57, 64
7, 352800, Note_on_c, 3, 54, 75
7, 352920, Note_off_c, 3, 54, 64
7, 352920, Note_on_c, 3, 55, 75
7, 353040, Note_off_c, 3, 55, 64
7, 353040, Note_on_c, 3, 52, 75
7, 353160, Note_off_c, 3, 52, 64
7, 353160, Note_on_c, 3, 54, 75
7, 353280, Note_off_c, 3, 54, 64
7, 353280, Note_on_c, 3, 62, 75
7, 353680, Note_off_c, 3, 62, 64
7, 353760, Note_on_c, 3, 62, 75
7, 354355, Note_off_c, 3, 62, 64
7, 354360, Note_on_c, 3, 69, 75
7, 354475, Note_off_c, 3, 69, 64
7, 354480, Note_on_c, 3, 67, 75
7, 354600, Note_off_c, 3, 67, 64
7, 354600, Note_on_c, 3, 70, 75
7, 354720, Note_off_c, 3, 70, 64
7, 354720, Note_on_c, 3, 69, 75
7, 354840, Note_off_c, 3, 69, 64
7, 354840, Note_on_c, 3, 72, 75
7, 354960, Note_off_c, 3, 72, 64
7, 354960, Note_on_c, 3, 70, 75
7, 355080, Note_off_c, 3, 70, 64
7, 355080, Note_on_c, 3, 69, 75
7, 355200, Note_off_c, 3, 69, 64
7, 355200, Note_on_c, 3, 67, 75
7, 355435, Note_off_c, 3, 67, 64
7, 355440, Note_on_c, 3, 62, 75
7, 355675, Note_off_c, 3, 62, 64
7, 355680, Note_on_c, 3, 67, 75
7, 356160, Note_off_c, 3, 67, 64
7, 356160, Note_on_c, 3, 65, 75
7, 356560, Note_off_c, 3, 65, 64
7, 356640, Note_on_c, 3, 65, 75
7, 357040, Note_off_c, 3, 65, 64
7, 357120, Note_on_c, 3, 63, 75
7, 357360, Note_off_c, 3, 63, 64
7, 357360, Note_on_c, 3, 65, 75
7, 357600, Note_off_c, 3, 65, 64
7, 357600, Note_on_c, 3, 67, 75
7, 357840, Note_off_c, 3, 67, 64
7, 357840, Note_on_c, 3, 70, 75
7, 358080, Note_off_c, 3, 70, 64
7, 358080, Note_on_c, 3, 69, 75
7, 358320, Note_off_c, 3, 69, 64
7, 358320, Note_on_c, 3, 67, 75
7, 358555, Note_off_c, 3, 67, 64
7, 358560, Note_on_c, 3, 66, 75
7, 358680, Note_off_c, 3, 66, 64
7, 358680, Note_on_c, 3, 69, 75
7, 358800, Note_off_c, 3, 69, 64
7, 358800, Note_on_c, 3, 67, 75
7, 358920, Note_off_c, 3, 67, 64
7, 358920, Note_on_c, 3, 70, 75
7, 359035, Note_off_c, 3, 70, 64
7, 359040, Note_on_c, 3, 69, 75
7, 359280, Note_off_c, 3, 69, 64
7, 359280, Note_on_c, 3, 66, 75
7, 359520, Note_off_c, 3, 66, 64
7, 359520, Note_on_c, 3, 67, 75
7, 360235, Note_off_c, 3, 67, 64
7, 360240, Note_on_c, 3, 67, 75
7, 360480, Note_off_c, 3, 67, 64
7, 360480, Note_on_c, 3, 69, 75
7, 360880, Note_off_c, 3, 69, 64
7, 360960, Note_on_c, 3, 67, 75
7, 361675, Note_off_c, 3, 67, 64
7, 361680, Note_on_c, 3, 65, 75
7, 362155, Note_off_c, 3, 65, 64
7, 362160, Note_on_c, 3, 63, 75
7, 362635, Note_off_c, 3, 63, 64
7, 362640, Note_on_c, 3, 62, 75
7, 363115, Note_off_c, 3, 62, 64
7, 363120, Note_on_c, 3, 62, 75
7, 363360, Note_off_c, 3, 62, 64
7, 363360, Note_on_c, 3, 63, 75
7, 363760, Note_off_c, 3, 63, 64
7, 363840, Note_on_c, 3, 62, 75
7, 364080, Note_off_c, 3, 62, 64
7, 364080, Note_on_c, 3, 60, 75
7, 364320, Note_off_c, 3, 60, 64
7, 364320, Note_on_c, 3, 59, 75
7, 364560, Note_off_c, 3, 59, 64
7, 364560, Note_on_c, 3, 60, 75
7, 364795, Note_off_c, 3, 60, 64
7, 364800, Note_on_c, 3, 62, 75
7, 365515, Note_off_c, 3, 62, 64
7, 365520, Note_on_c, 3, 67, 75
7, 366160, Note_off_c, 3, 67, 64
7, 366240, Note_on_c, 3, 72, 75
7, 366955, Note_off_c, 3, 72, 64
7, 366960, Note_on_c, 3, 72, 75
7, 367600, Note_off_c, 3, 72, 64
7, 368280, Note_on_c, 3, 72, 92
7, 368400, Note_off_c, 3, 72, 64
7, 368400, Note_on_c, 3, 70, 92
7, 368520, Note_off_c, 3, 70, 64
7, 368520, Note_on_c, 3, 68, 92
7, 368640, Note_off_c, 3, 68, 64
7, 368640, Note_on_c, 3, 67, 92
7, 368875, Note_off_c, 3, 67, 64
7, 368880, Note_on_c, 3, 68, 92
7, 369120, Note_off_c, 3, 68, 64
7, 369120, Note_on_c, 3, 64, 92
7, 369355, Note_off_c, 3, 64, 64
7, 369360, Note_on_c, 3, 64, 92
7, 369600, Note_off_c, 3, 64, 64
7, 369600, Note_on_c, 3, 65, 92
7, 370000, Note_off_c, 3, 65, 64
7, 370320, Note_on_c, 3, 73, 92
7, 370560, Note_off_c, 3, 73, 64
7, 370560, Note_on_c, 3, 67, 92
7, 370795, Note_off_c, 3, 67, 64
7, 370800, Note_on_c, 3, 67, 92
7, 371040, Note_off_c, 3, 67, 64
7, 371040, Note_on_c, 3, 69, 92
7, 371440, Note_off_c, 3, 69, 64
7, 371760, Note_on_c, 3, 70, 92
7, 372000, Note_off_c, 3, 70, 64
7, 372000, Note_on_c, 3, 65, 92
7, 372235, Note_off_c, 3, 65, 64
7, 372240, Note_on_c, 3, 65, 92
7, 372480, Note_off_c, 3, 65, 64
7, 372480, Note_on_c, 3, 67, 92
7, 372880, Note_off_c, 3, 67, 64
7, 372960, Note_on_c, 3, 68, 92
7, 373200, Note_off_c, 3, 68, 64
7, 373200, Note_on_c, 3, 70, 92
7, 373320, Note_off_c, 3, 70, 64
7, 373320, Note_on_c, 3, 68, 92
7, 373440, Note_off_c, 3, 68, 64
7, 373440, Note_on_c, 3, 67, 92
7, 374155, Note_off_c, 3, 67, 64
7, 374160, Note_on_c, 3, 67, 92
7, 374400, Note_off_c, 3, 67, 64
7, 374400, Note_on_c, 3, 72, 92
7, 375040, Note_off_c, 3, 72, 64
7, 375120, Note_on_c, 3, 73, 92
7, 375360, Note_off_c, 3, 73, 64
7, 375360, Note_on_c, 3, 64, 92
7, 375840, Note_off_c, 3, 64, 64
7, 375840, Note_on_c, 3, 65, 92
7, 376075, Note_off_c, 3, 65, 64
7, 376080, Note_on_c, 3, 70, 92
7, 376555, Note_off_c, 3, 70, 64
7, 376560, Note_on_c, 3, 72, 92
7, 376800, Note_off_c, 3, 72, 64
7, 376800, Note_on_c, 3, 73, 92
7, 377520, Note_off_c, 3, 73, 64
7, 377520, Note_on_c, 3, 70, 92
7, 377755, Note_off_c, 3, 70, 64
7, 377760, Note_on_c, 3, 72, 92
7, 378835, Note_off_c, 3, 72, 64
7, 378840, Note_on_c, 3, 74, 92
7, 378960, Note_off_c, 3, 74, 64
7, 378960, Note_on_c, 3, 70, 92
7, 379080, Note_off_c, 3, 70, 64
7, 379080, Note_on_c, 3, 72, 92
7, 379200, Note_off_c, 3, 72, 64
7, 379200, Note_on_c, 3, 69, 92
7, 379320, Note_off_c, 3, 69, 64
7, 379320, Note_on_c, 3, 72, 92
7, 379440, Note_off_c, 3, 72, 64
7, 379440, Note_on_c, 3, 70, 92
7, 379560, Note_off_c, 3, 70, 64
7, 379560, Note_on_c, 3, 69, 92
7, 379680, Note_off_c, 3, 69, 64
7, 379680, Note_on_c, 3, 67, 92
7, 380080, Note_off_c, 3, 67, 64
7, 380280, Note_on_c, 3, 69, 92
7, 380400, Note_off_c, 3, 69, 64
7, 380400, Note_on_c, 3, 67, 92
7, 380520, Note_off_c, 3, 67, 64
7, 380520, Note_on_c, 3, 69, 92
7, 380640, Note_off_c, 3, 69, 64
7, 380640, Note_on_c, 3, 66, 92
7, 381040, Note_off_c, 3, 66, 64
7, 381240, Note_on_c, 3, 67, 92
7, 381360, Note_off_c, 3, 67, 64
7, 381360, Note_on_c, 3, 65, 92
7, 381480, Note_off_c, 3, 65, 64
7, 381480, Note_on_c, 3, 67, 92
7, 381600, Note_off_c, 3, 67, 64
7, 381600, Note_on_c, 3, 63, 92
7, 382000, Note_off_c, 3, 63, 64
7, 382200, Note_on_c, 3, 62, 92
7, 382320, Note_off_c, 3, 62, 64
7, 382320, Note_on_c, 3, 60, 92
7, 382440, Note_off_c, 3, 60, 64
7, 382440, Note_on_c, 3, 62, 92
7, 382560, Note_off_c, 3, 62, 64
7, 382560, Note_on_c, 3, 58, 92
7, 383040, Note_off_c, 3, 58, 64
7, 383040, Note_on_c, 3, 60, 92
7, 383440, Note_off_c, 3, 60, 64
7, 383640, Note_on_c, 3, 60, 92
7, 383760, Note_off_c, 3, 60, 64
7, 383760, Note_on_c, 3, 58, 92
7, 383880, Note_off_c, 3, 58, 64
7, 383880, Note_on_c, 3, 60, 92
7, 384000, Note_off_c, 3, 60, 64
7, 384000, Note_on_c, 3, 57, 92
7, 384400, Note_off_c, 3, 57, 64
7, 384480, Note_on_c, 3, 59, 92
7, 384600, Note_off_c, 3, 59, 64
7, 384600, Note_on_c, 3, 62, 92
7, 384720, Note_off_c, 3, 62, 64
7, 384720, Note_on_c, 3, 60, 92
7, 384840, Note_off_c, 3, 60, 64
7, 384840, Note_on_c, 3, 63, 92
7, 384960, Note_off_c, 3, 63, 64
7, 384960, Note_on_c, 3, 62, 92
7, 385080, Note_off_c, 3, 62, 64
7, 385080, Note_on_c, 3, 65, 92
7, 385200, Note_off_c, 3, 65, 64
7, 385200, Note_on_c, 3, 63, 92
7, 385320, Note_off_c, 3, 63, 64
7, 385320, Note_on_c, 3, 67, 92
7, 385440, Note_off_c, 3, 67, 64
7, 385440, Note_on_c, 3, 65, 92
7, 385560, Note_off_c, 3, 65, 64
7, 385560, Note_on_c, 3, 68, 92
7, 385680, Note_off_c, 3, 68, 64
7, 385680, Note_on_c, 3, 67, 92
7, 385800, Note_off_c, 3, 67, 64
7, 385800, Note_on_c, 3, 65, 92
7, 385920, Note_off_c, 3, 65, 64
7, 385920, Note_on_c, 3, 63, 92
7, 386040, Note_off_c, 3, 63, 64
7, 386040, Note_on_c, 3, 67, 92
7, 386160, Note_off_c, 3, 67, 64
7, 386160, Note_on_c, 3, 65, 92
7, 386280, Note_off_c, 3, 65, 64
7, 386280, Note_on_c, 3, 68, 92
7, 386400, Note_off_c, 3, 68, 64
7, 386400, Note_on_c, 3, 67, 92
7, 386520, Note_off_c, 3, 67, 64
7, 386520, Note_on_c, 3, 70, 92
7, 386640, Note_off_c, 3, 70, 64
7, 386640, Note_on_c, 3, 68, 92
7, 386760, Note_off_c, 3, 68, 64
7, 386760, Note_on_c, 3, 72, 92
7, 386875, Note_off_c, 3, 72, 64
7, 386880, Note_on_c, 3, 70, 92
7, 387000, Note_off_c, 3, 70, 64
7, 387000, Note_on_c, 3, 73, 92
7, 387120, Note_off_c, 3, 73, 64
7, 387120, Note_on_c, 3, 72, 92
7, 387240, Note_off_c, 3, 72, 64
7, 387240, Note_on_c, 3, 70, 92
7, 387355, Note_off_c, 3, 70, 64
7, 387360, Note_on_c, 3, 68, 92
7, 387390, Note_off_c, 3, 68, 64
7, 387390, Note_on_c, 3, 70, 92
7, 387420, Note_off_c, 3, 70, 64
7, 387420, Note_on_c, 3, 68, 92
7, 387450, Note_off_c, 3, 68, 64
7, 387450, Note_on_c, 3, 70, 92
7, 387480, Note_off_c, 3, 70, 64
7, 387480, Note_on_c, 3, 68, 92
7, 387510, Note_off_c, 3, 68, 64
7, 387510, Note_on_c, 3, 70, 92
7, 387540, Note_off_c, 3, 70, 64
7, 387540, Note_on_c, 3, 68, 92
7, 387570, Note_off_c, 3, 68, 64
7, 387570, Note_on_c, 3, 70, 92
7, 387600, Note_off_c, 3, 70, 64
7, 387600, Note_on_c, 3, 68, 92
7, 387630, Note_off_c, 3, 68, 64
7, 387630, Note_on_c, 3, 70, 92
7, 387660, Note_off_c, 3, 70, 64
7, 387660, Note_on_c, 3, 68, 92
7, 387690, Note_off_c, 3, 68, 64
7, 387690, Note_on_c, 3, 70, 92
7, 387720, Note_off_c, 3, 70, 64
7, 387720, Note_on_c, 3, 68, 92
7, 387750, Note_off_c, 3, 68, 64
7, 387750, Note_on_c, 3, 70, 92
7, 387780, Note_off_c, 3, 70, 64
7, 387780, Note_on_c, 3, 68, 92
7, 387810, Note_off_c, 3, 68, 64
7, 387810, Note_on_c, 3, 70, 92
7, 387840, Note_off_c, 3, 70, 64
7, 387840, Note_on_c, 3, 68, 92
7, 387870, Note_off_c, 3, 68, 64
7, 387870, Note_on_c, 3, 70, 92
7, 387900, Note_off_c, 3, 70, 64
7, 387900, Note_on_c, 3, 68, 92
7, 387930, Note_off_c, 3, 68, 64
7, 387930, Note_on_c, 3, 70, 92
7, 387960, Note_off_c, 3, 70, 64
7, 387960, Note_on_c, 3, 68, 92
7, 387990, Note_off_c, 3, 68, 64
7, 387990, Note_on_c, 3, 70, 92
7, 388020, Note_off_c, 3, 70, 64
7, 388020, Note_on_c, 3, 68, 92
7, 388050, Note_off_c, 3, 68, 64
7, 388050, Note_on_c, 3, 70, 92
7, 388080, Note_off_c, 3, 70, 64
7, 388080, Note_on_c, 3, 68, 92
7, 388110, Note_off_c, 3, 68, 64
7, 388110, Note_on_c, 3, 70, 92
7, 388140, Note_off_c, 3, 70, 64
7, 388140, Note_on_c, 3, 68, 92
7, 388170, Note_off_c, 3, 68, 64
7, 388170, Note_on_c, 3, 70, 92
7, 388200, Note_off_c, 3, 70, 64
7, 388200, Note_on_c, 3, 68, 92
7, 388230, Note_off_c, 3, 68, 64
7, 388230, Note_on_c, 3, 70, 92
7, 388260, Note_off_c, 3, 70, 64
7, 388260, Note_on_c, 3, 68, 92
7, 388290, Note_off_c, 3, 68, 64
7, 388290, Note_on_c, 3, 70, 92
7, 388315, Note_off_c, 3, 70, 64
7, 388320, Note_on_c, 3, 68, 92
7, 388350, Note_off_c, 3, 68, 64
7, 388350, Note_on_c, 3, 70, 92
7, 388380, Note_off_c, 3, 70, 64
7, 388380, Note_on_c, 3, 68, 92
7, 388410, Note_off_c, 3, 68, 64
7, 388410, Note_on_c, 3, 70, 92
7, 388440, Note_off_c, 3, 70, 64
7, 388440, Note_on_c, 3, 68, 92
7, 388470, Note_off_c, 3, 68, 64
7, 388470, Note_on_c, 3, 70, 92
7, 388500, Note_off_c, 3, 70, 64
7, 388500, Note_on_c, 3, 68, 92
7, 388530, Note_off_c, 3, 68, 64
7, 388530, Note_on_c, 3, 70, 92
7, 388560, Note_off_c, 3, 70, 64
7, 388560, Note_on_c, 3, 68, 92
7, 388590, Note_off_c, 3, 68, 64
7, 388590, Note_on_c, 3, 70, 92
7, 388620, Note_off_c, 3, 70, 64
7, 388620, Note_on_c, 3, 68, 92
7, 388650, Note_off_c, 3, 68, 64
7, 388650, Note_on_c, 3, 70, 92
7, 388680, Note_off_c, 3, 70, 64
7, 388680, Note_on_c, 3, 68, 92
7, 388710, Note_off_c, 3, 68, 64
7, 388710, Note_on_c, 3, 70, 92
7, 388740, Note_off_c, 3, 70, 64
7, 388740, Note_on_c, 3, 68, 92
7, 388770, Note_off_c, 3, 68, 64
7, 388770, Note_on_c, 3, 70, 92
7, 388800, Note_off_c, 3, 70, 64
7, 388800, Note_on_c, 3, 68, 92
7, 388830, Note_off_c, 3, 68, 64
7, 388830, Note_on_c, 3, 70, 92
7, 388860, Note_off_c, 3, 70, 64
7, 388860, Note_on_c, 3, 68, 92
7, 388890, Note_off_c, 3, 68, 64
7, 388890, Note_on_c, 3, 70, 92
7, 388920, Note_off_c, 3, 70, 64
7, 388920, Note_on_c, 3, 68, 92
7, 388950, Note_off_c, 3, 68, 64
7, 388950, Note_on_c, 3, 70, 92
7, 388980, Note_off_c, 3, 70, 64
7, 388980, Note_on_c, 3, 68, 92
7, 389010, Note_off_c, 3, 68, 64
7, 389010, Note_on_c, 3, 70, 92
7, 389040, Note_off_c, 3, 70, 64
7, 389040, Note_on_c, 3, 68, 92
7, 389070, Note_off_c, 3, 68, 64
7, 389070, Note_on_c, 3, 70, 92
7, 389100, Note_off_c, 3, 70, 64
7, 389100, Note_on_c, 3, 68, 92
7, 389130, Note_off_c, 3, 68, 64
7, 389130, Note_on_c, 3, 70, 92
7, 389160, Note_off_c, 3, 70, 64
7, 389160, Note_on_c, 3, 68, 92
7, 389190, Note_off_c, 3, 68, 64
7, 389190, Note_on_c, 3, 70, 92
7, 389220, Note_off_c, 3, 70, 64
7, 389220, Note_on_c, 3, 68, 92
7, 389250, Note_off_c, 3, 68, 64
7, 389250, Note_on_c, 3, 70, 92
7, 389280, Note_off_c, 3, 70, 64
7, 389280, Note_on_c, 3, 68, 92
7, 389310, Note_off_c, 3, 68, 64
7, 389310, Note_on_c, 3, 70, 92
7, 389340, Note_off_c, 3, 70, 64
7, 389340, Note_on_c, 3, 68, 92
7, 389370, Note_off_c, 3, 68, 64
7, 389370, Note_on_c, 3, 70, 92
7, 389400, Note_off_c, 3, 70, 64
7, 389400, Note_on_c, 3, 68, 92
7, 389430, Note_off_c, 3, 68, 64
7, 389430, Note_on_c, 3, 70, 92
7, 389460, Note_off_c, 3, 70, 64
7, 389460, Note_on_c, 3, 68, 92
7, 389490, Note_off_c, 3, 68, 64
7, 389490, Note_on_c, 3, 70, 92
7, 389520, Note_off_c, 3, 70, 64
7, 389520, Note_on_c, 3, 68, 92
7, 389550, Note_off_c, 3, 68, 64
7, 389550, Note_on_c, 3, 70, 92
7, 389580, Note_off_c, 3, 70, 64
7, 389580, Note_on_c, 3, 68, 92
7, 389610, Note_off_c, 3, 68, 64
7, 389610, Note_on_c, 3, 70, 92
7, 389640, Note_off_c, 3, 70, 64
7, 389640, Note_on_c, 3, 68, 92
7, 389670, Note_off_c, 3, 68, 64
7, 389670, Note_on_c, 3, 70, 92
7, 389700, Note_off_c, 3, 70, 64
7, 389700, Note_on_c, 3, 68, 92
7, 389730, Note_off_c, 3, 68, 64
7, 389730, Note_on_c, 3, 70, 92
7, 389755, Note_off_c, 3, 70, 64
7, 389760, Note_on_c, 3, 68, 92
7, 389790, Note_off_c, 3, 68, 64
7, 389790, Note_on_c, 3, 70, 92
7, 389820, Note_off_c, 3, 70, 64
7, 389820, Note_on_c, 3, 68, 92
7, 389850, Note_off_c, 3, 68, 64
7, 389850, Note_on_c, 3, 70, 92
7, 389880, Note_off_c, 3, 70, 64
7, 389880, Note_on_c, 3, 68, 92
7, 389910, Note_off_c, 3, 68, 64
7, 389910, Note_on_c, 3, 70, 92
7, 389940, Note_off_c, 3, 70, 64
7, 389940, Note_on_c, 3, 68, 92
7, 389970, Note_off_c, 3, 68, 64
7, 389970, Note_on_c, 3, 70, 92
7, 390000, Note_off_c, 3, 70, 64
7, 390000, Note_on_c, 3, 68, 92
7, 390030, Note_off_c, 3, 68, 64
7, 390030, Note_on_c, 3, 70, 92
7, 390060, Note_off_c, 3, 70, 64
7, 390060, Note_on_c, 3, 68, 92
7, 390090, Note_off_c, 3, 68, 64
7, 390090, Note_on_c, 3, 70, 92
7, 390120, Note_off_c, 3, 70, 64
7, 390120, Note_on_c, 3, 68, 92
7, 390150, Note_off_c, 3, 68, 64
7, 390150, Note_on_c, 3, 70, 92
7, 390180, Note_off_c, 3, 70, 64
7, 390180, Note_on_c, 3, 68, 92
7, 390210, Note_off_c, 3, 68, 64
7, 390210, Note_on_c, 3, 70, 92
7, 390240, Note_off_c, 3, 70, 64
7, 390240, Note_on_c, 3, 68, 92
7, 390270, Note_off_c, 3, 68, 64
7, 390270, Note_on_c, 3, 70, 92
7, 390300, Note_off_c, 3, 70, 64
7, 390300, Note_on_c, 3, 68, 92
7, 390330, Note_off_c, 3, 68, 64
7, 390330, Note_on_c, 3, 70, 92
7, 390360, Note_off_c, 3, 70, 64
7, 390360, Note_on_c, 3, 68, 92
7, 390390, Note_off_c, 3, 68, 64
7, 390390, Note_on_c, 3, 70, 92
7, 390420, Note_off_c, 3, 70, 64
7, 390420, Note_on_c, 3, 68, 92
7, 390450, Note_off_c, 3, 68, 64
7, 390450, Note_on_c, 3, 70, 92
7, 390480, Note_off_c, 3, 70, 64
7, 390480, Note_on_c, 3, 68, 92
7, 390510, Note_off_c, 3, 68, 64
7, 390510, Note_on_c, 3, 70, 92
7, 390540, Note_off_c, 3, 70, 64
7, 390540, Note_on_c, 3, 68, 92
7, 390570, Note_off_c, 3, 68, 64
7, 390570, Note_on_c, 3, 70, 92
7, 390600, Note_off_c, 3, 70, 64
7, 390600, Note_on_c, 3, 68, 92
7, 390630, Note_off_c, 3, 68, 64
7, 390630, Note_on_c, 3, 70, 92
7, 390660, Note_off_c, 3, 70, 64
7, 390660, Note_on_c, 3, 68, 92
7, 390690, Note_off_c, 3, 68, 64
7, 390690, Note_on_c, 3, 70, 92
7, 390720, Note_off_c, 3, 70, 64
7, 390720, Note_on_c, 3, 68, 92
7, 390750, Note_off_c, 3, 68, 64
7, 390750, Note_on_c, 3, 70, 92
7, 390780, Note_off_c, 3, 70, 64
7, 390780, Note_on_c, 3, 68, 92
7, 390810, Note_off_c, 3, 68, 64
7, 390810, Note_on_c, 3, 70, 92
7, 390840, Note_off_c, 3, 70, 64
7, 390840, Note_on_c, 3, 68, 92
7, 390870, Note_off_c, 3, 68, 64
7, 390870, Note_on_c, 3, 70, 92
7, 390900, Note_off_c, 3, 70, 64
7, 390900, Note_on_c, 3, 68, 92
7, 390930, Note_off_c, 3, 68, 64
7, 390930, Note_on_c, 3, 70, 92
7, 390960, Note_off_c, 3, 70, 64
7, 390960, Note_on_c, 3, 68, 92
7, 390990, Note_off_c, 3, 68, 64
7, 390990, Note_on_c, 3, 70, 92
7, 391020, Note_off_c, 3, 70, 64
7, 391020, Note_on_c, 3, 68, 92
7, 391050, Note_off_c, 3, 68, 64
7, 391050, Note_on_c, 3, 70, 92
7, 391080, Note_off_c, 3, 70, 64
7, 391080, Note_on_c, 3, 68, 92
7, 391110, Note_off_c, 3, 68, 64
7, 391110, Note_on_c, 3, 70, 92
7, 391140, Note_off_c, 3, 70, 64
7, 391140, Note_on_c, 3, 68, 92
7, 391170, Note_off_c, 3, 68, 64
7, 391170, Note_on_c, 3, 70, 92
7, 391195, Note_off_c, 3, 70, 64
7, 391200, Note_on_c, 3, 68, 92
7, 391600, Note_off_c, 3, 68, 64
7, 391680, Note_on_c, 3, 67, 92
7, 392520, Note_off_c, 3, 67, 64
7, 392640, Note_on_c, 3, 68, 92
7, 392700, Note_off_c, 3, 68, 64
7, 392700, Note_on_c, 3, 70, 92
7, 392760, Note_off_c, 3, 70, 64
7, 392760, Note_on_c, 3, 68, 92
7, 392820, Note_off_c, 3, 68, 64
7, 392820, Note_on_c, 3, 70, 92
7, 392880, Note_off_c, 3, 70, 64
7, 392880, Note_on_c, 3, 68, 92
7, 392940, Note_off_c, 3, 68, 64
7, 392940, Note_on_c, 3, 67, 92
7, 393000, Note_off_c, 3, 67, 64
7, 393000, Note_on_c, 3, 70, 92
7, 393060, Note_off_c, 3, 70, 64
7, 393060, Note_on_c, 3, 68, 92
7, 393120, Note_off_c, 3, 68, 64
7, 393120, Note_on_c, 3, 67, 92
7, 393180, Note_off_c, 3, 67, 64
7, 393180, Note_on_c, 3, 65, 92
7, 393240, Note_off_c, 3, 65, 64
7, 393240, Note_on_c, 3, 63, 92
7, 393300, Note_off_c, 3, 63, 64
7, 393300, Note_on_c, 3, 59, 92
7, 393355, Note_off_c, 3, 59, 64
7, 393360, Note_on_c, 3, 59, 92
7, 393420, Note_off_c, 3, 59, 64
7, 393420, Note_on_c, 3, 60, 92
7, 393475, Note_off_c, 3, 60, 64
7, 393480, Note_on_c, 3, 60, 92
7, 393540, Note_off_c, 3, 60, 64
7, 393540, Note_on_c, 3, 68, 92
7, 393595, Note_off_c, 3, 68, 64
7, 393600, Note_on_c, 3, 62, 92
7, 393835, Note_off_c, 3, 62, 64
7, 393840, Note_on_c, 3, 62, 92
7, 394080, Note_off_c, 3, 62, 64
7, 394080, Note_on_c, 3, 64, 92
7, 394315, Note_off_c, 3, 64, 64
7, 394320, Note_on_c, 3, 64, 92
7, 394555, Note_off_c, 3, 64, 64
7, 394800, Note_on_c, 3, 65, 92
7, 395040, Note_off_c, 3, 65, 64
7, 395040, Note_on_c, 3, 60, 92
7, 395275, Note_off_c, 3, 60, 64
7, 395280, Note_on_c, 3, 60, 92
7, 395520, Note_off_c, 3, 60, 64
7, 395520, Note_on_c, 3, 62, 92
7, 395755, Note_off_c, 3, 62, 64
7, 395760, Note_on_c, 3, 62, 92
7, 396000, Note_off_c, 3, 62, 64
7, 396000, Note_on_c, 3, 63, 92
7, 396360, Note_off_c, 3, 63, 64
7, 396360, Note_on_c, 3, 53, 92
7, 396480, Note_off_c, 3, 53, 64
7, 396480, Note_on_c, 3, 55, 92
7, 396715, Note_off_c, 3, 55, 64
7, 396720, Note_on_c, 3, 57, 92
7, 396840, Note_off_c, 3, 57, 64
7, 396840, Note_on_c, 3, 59, 92
7, 396955, Note_off_c, 3, 59, 64
7, 396960, Note_on_c, 3, 60, 92
7, 397080, Note_off_c, 3, 60, 64
7, 397080, Note_on_c, 3, 63, 92
7, 397200, Note_off_c, 3, 63, 64
7, 397200, Note_on_c, 3, 62, 92
7, 397320, Note_off_c, 3, 62, 64
7, 397320, Note_on_c, 3, 65, 92
7, 397435, Note_off_c, 3, 65, 64
7, 397440, Note_on_c, 3, 71, 92
7, 397840, Note_off_c, 3, 71, 64
7, 397920, Note_on_c, 3, 72, 92
7, 398640, Note_off_c, 3, 72, 64
7, 398640, Note_on_c, 3, 70, 92
7, 398875, Note_off_c, 3, 70, 64
7, 398880, Note_on_c, 3, 68, 92
7, 400200, Note_off_c, 3, 68, 64
7, 400320, Note_on_c, 3, 67, 92
7, 401640, Note_off_c, 3, 67, 64
7, 401760, Note_on_c, 3, 65, 92
7, 403080, Note_off_c, 3, 65, 64
7, 403200, Note_on_c, 3, 63, 92
7, 404040, Note_off_c, 3, 63, 64
7, 404160, Note_on_c, 3, 65, 92
7, 404755, Note_off_c, 3, 65, 64
7, 404760, Note_on_c, 3, 67, 92
7, 404880, Note_off_c, 3, 67, 64
7, 404880, Note_on_c, 3, 65, 92
7, 405000, Note_off_c, 3, 65, 64
7, 405000, Note_on_c, 3, 67, 92
7, 405115, Note_off_c, 3, 67, 64
7, 405120, Note_on_c, 3, 59, 92
7, 405360, Note_off_c, 3, 59, 64
7, 405360, Note_on_c, 3, 62, 92
7, 405600, Note_off_c, 3, 62, 64
7, 405600, Note_on_c, 3, 60, 92
7, 405835, Note_off_c, 3, 60, 64
7, 405840, Note_on_c, 3, 60, 92
7, 406080, Note_off_c, 3, 60, 64
7, 406080, Note_on_c, 3, 62, 92
7, 406195, Note_off_c, 3, 62, 64
7, 406200, Note_on_c, 3, 67, 127
7, 406315, Note_off_c, 3, 67, 64
7, 406320, Note_on_c, 3, 65, 127
7, 406435, Note_off_c, 3, 65, 64
7, 406440, Note_on_c, 3, 67, 127
7, 406555, Note_off_c, 3, 67, 64
7, 406560, Note_on_c, 3, 62, 127
7, 406795, Note_off_c, 3, 62, 64
7, 406800, Note_on_c, 3, 62, 92
7, 407035, Note_off_c, 3, 62, 64
7, 407040, Note_on_c, 3, 63, 92
7, 407275, Note_off_c, 3, 63, 64
7, 407280, Note_on_c, 3, 63, 92
7, 407520, Note_off_c, 3, 63, 64
7, 407520, Note_on_c, 3, 65, 92
7, 407635, Note_off_c, 3, 65, 64
7, 407640, Note_on_c, 3, 67, 127
7, 407755, Note_off_c, 3, 67, 64
7, 407760, Note_on_c, 3, 65, 127
7, 407875, Note_off_c, 3, 65, 64
7, 407880, Note_on_c, 3, 67, 127
7, 407995, Note_off_c, 3, 67, 64
7, 408000, Note_on_c, 3, 62, 127
7, 408235, Note_off_c, 3, 62, 64
7, 408240, Note_on_c, 3, 67, 92
7, 408475, Note_off_c, 3, 67, 64
7, 408480, Note_on_c, 3, 67, 92
7, 408715, Note_off_c, 3, 67, 64
7, 408720, Note_on_c, 3, 67, 92
7, 409075, Note_off_c, 3, 67, 64
7, 409080, Note_on_c, 3, 67, 127
7, 409195, Note_off_c, 3, 67, 64
7, 409200, Note_on_c, 3, 65, 127
7, 409315, Note_off_c, 3, 65, 64
7, 409320, Note_on_c, 3, 67, 127
7, 409435, Note_off_c, 3, 67, 64
7, 409440, Note_on_c, 3, 62, 127
7, 409675, Note_off_c, 3, 62, 64
7, 409680, Note_on_c, 3, 67, 92
7, 409915, Note_off_c, 3, 67, 64
7, 409920, Note_on_c, 3, 67, 92
7, 410155, Note_off_c, 3, 67, 64
7, 410160, Note_on_c, 3, 67, 92
7, 410395, Note_off_c, 3, 67, 64
7, 410400, Note_on_c, 3, 65, 92
7, 410800, Note_off_c, 3, 65, 64
7, 411120, Note_on_c, 3, 67, 92
7, 411355, Note_off_c, 3, 67, 64
7, 411360, Note_on_c, 3, 67, 92
7, 411480, Note_off_c, 3, 67, 64
7, 411480, Note_on_c, 3, 68, 92
7, 411600, Note_off_c, 3, 68, 64
7, 411600, Note_on_c, 3, 65, 92
7, 411720, Note_off_c, 3, 65, 64
7, 411720, Note_on_c, 3, 67, 92
7, 411840, Note_off_c, 3, 67, 64
7, 411840, Note_on_c, 3, 68, 92
7, 412240, Note_off_c, 3, 68, 64
7, 412320, Note_on_c, 3, 67, 92
7, 413035, Note_off_c, 3, 67, 64
7, 413040, Note_on_c, 3, 65, 92
7, 413275, Note_off_c, 3, 65, 64
7, 413280, Note_on_c, 3, 64, 92
7, 413400, Note_off_c, 3, 64, 64
7, 413400, Note_on_c, 3, 67, 92
7, 413520, Note_off_c, 3, 67, 64
7, 413520, Note_on_c, 3, 65, 92
7, 413640, Note_off_c, 3, 65, 64
7, 413640, Note_on_c, 3, 68, 92
7, 413760, Note_off_c, 3, 68, 64
7, 413760, Note_on_c, 3, 67, 92
7, 414000, Note_off_c, 3, 67, 64
7, 414000, Note_on_c, 3, 72, 92
7, 414240, Note_off_c, 3, 72, 64
7, 414240, Note_on_c, 3, 72, 92
7, 414480, Note_off_c, 3, 72, 64
7, 414480, Note_on_c, 3, 72, 92
7, 414720, Note_off_c, 3, 72, 64
7, 414840, Note_on_c, 3, 72, 127
7, 414955, Note_off_c, 3, 72, 64
7, 414960, Note_on_c, 3, 70, 127
7, 415075, Note_off_c, 3, 70, 64
7, 415080, Note_on_c, 3, 72, 127
7, 415195, Note_off_c, 3, 72, 64
7, 415200, Note_on_c, 3, 67, 127
7, 415435, Note_off_c, 3, 67, 64
7, 415440, Note_on_c, 3, 67, 92
7, 415680, Note_off_c, 3, 67, 64
7, 415680, Note_on_c, 3, 68, 92
7, 415920, Note_off_c, 3, 68, 64
7, 415920, Note_on_c, 3, 68, 92
7, 416160, Note_off_c, 3, 68, 64
7, 416160, Note_on_c, 3, 70, 92
7, 416280, Note_off_c, 3, 70, 64
7, 416280, Note_on_c, 3, 72, 127
7, 416395, Note_off_c, 3, 72, 64
7, 416400, Note_on_c, 3, 70, 127
7, 416515, Note_off_c, 3, 70, 64
7, 416520, Note_on_c, 3, 72, 127
7, 416635, Note_off_c, 3, 72, 64
7, 416640, Note_on_c, 3, 67, 127
7, 416875, Note_off_c, 3, 67, 64
7, 416880, Note_on_c, 3, 72, 92
7, 417120, Note_off_c, 3, 72, 64
7, 417120, Note_on_c, 3, 72, 92
7, 417360, Note_off_c, 3, 72, 64
7, 417360, Note_on_c, 3, 72, 92
7, 417600, Note_off_c, 3, 72, 64
7, 417720, Note_on_c, 3, 73, 127
7, 417835, Note_off_c, 3, 73, 64
7, 417840, Note_on_c, 3, 72, 127
7, 417955, Note_off_c, 3, 72, 64
7, 417960, Note_on_c, 3, 73, 127
7, 418075, Note_off_c, 3, 73, 64
7, 418080, Note_on_c, 3, 70, 92
7, 418795, Note_off_c, 3, 70, 64
7, 418800, Note_on_c, 3, 68, 92
7, 419155, Note_off_c, 3, 68, 64
7, 419160, Note_on_c, 3, 68, 92
7, 419280, Note_off_c, 3, 68, 64
7, 419280, Note_on_c, 3, 67, 92
7, 419400, Note_off_c, 3, 67, 64
7, 419400, Note_on_c, 3, 68, 92
7, 419520, Note_off_c, 3, 68, 64
7, 419520, Note_on_c, 3, 62, 92
7, 419640, Note_off_c, 3, 62, 64
7, 419640, Note_on_c, 3, 65, 92
7, 419760, Note_off_c, 3, 65, 64
7, 419760, Note_on_c, 3, 64, 92
7, 419880, Note_off_c, 3, 64, 64
7, 419880, Note_on_c, 3, 65, 92
7, 420000, Note_off_c, 3, 65, 64
7, 420000, Note_on_c, 3, 62, 92
7, 420120, Note_off_c, 3, 62, 64
7, 420120, Note_on_c, 3, 65, 92
7, 420240, Note_off_c, 3, 65, 64
7, 420240, Note_on_c, 3, 62, 92
7, 420360, Note_off_c, 3, 62, 64
7, 420360, Note_on_c, 3, 65, 92
7, 420480, Note_off_c, 3, 65, 64
7, 420480, Note_on_c, 3, 64, 92
7, 421800, Note_off_c, 3, 64, 64
7, 421800, End_track
8, 0, Start_track
8, 0, MIDI_port, 0
8, 0, Channel_prefix, 4
8, 0, Control_c, 4, 7, 127
8, 0, Control_c, 4, 10, 70
8, 0, Control_c, 4, 91, 60
8, 0, Program_c, 4, 70
8, 24000, Note_on_c, 4, 48, 30
8, 24480, Note_off_c, 4, 48, 64
8, 24480, Note_on_c, 4, 55, 30
8, 25440, Note_off_c, 4, 55, 64
8, 25440, Note_on_c, 4, 51, 30
8, 25920, Note_off_c, 4, 51, 64
8, 25920, Note_on_c, 4, 53, 30
8, 26880, Note_off_c, 4, 53, 64
8, 26880, Note_on_c, 4, 55, 30
8, 27360, Note_off_c, 4, 55, 64
8, 27360, Note_on_c, 4, 56, 30
8, 28320, Note_off_c, 4, 56, 64
8, 28320, Note_on_c, 4, 53, 30
8, 28800, Note_off_c, 4, 53, 64
8, 28800, Note_on_c, 4, 55, 30
8, 29760, Note_off_c, 4, 55, 64
8, 29760, Note_on_c, 4, 50, 30
8, 30240, Note_off_c, 4, 50, 64
8, 30240, Note_on_c, 4, 51, 30
8, 31200, Note_off_c, 4, 51, 64
8, 31200, Note_on_c, 4, 47, 30
8, 31680, Note_off_c, 4, 47, 64
8, 31680, Note_on_c, 4, 48, 30
8, 32640, Note_off_c, 4, 48, 64
8, 32640, Note_on_c, 4, 41, 30
8, 33120, Note_off_c, 4, 41, 64
8, 33120, Note_on_c, 4, 43, 30
8, 34560, Note_off_c, 4, 43, 64
8, 34560, Note_on_c, 4, 36, 30
8, 35400, Note_off_c, 4, 36, 64
8, 58320, Note_on_c, 4, 67, 60
8, 58440, Note_off_c, 4, 67, 64
8, 58440, Note_on_c, 4, 55, 60
8, 58555, Note_off_c, 4, 55, 64
8, 58560, Note_on_c, 4, 60, 60
8, 59040, Note_off_c, 4, 60, 64
8, 59040, Note_on_c, 4, 59, 60
8, 59440, Note_off_c, 4, 59, 64
8, 59760, Note_on_c, 4, 59, 60
8, 59880, Note_off_c, 4, 59, 64
8, 59880, Note_on_c, 4, 55, 60
8, 59995, Note_off_c, 4, 55, 64
8, 60000, Note_on_c, 4, 60, 60
8, 60880, Note_off_c, 4, 60, 64
8, 61200, Note_on_c, 4, 62, 60
8, 61320, Note_off_c, 4, 62, 64
8, 61320, Note_on_c, 4, 57, 60
8, 61435, Note_off_c, 4, 57, 64
8, 61440, Note_on_c, 4, 59, 60
8, 61920, Note_off_c, 4, 59, 64
8, 61920, Note_on_c, 4, 60, 60
8, 62320, Note_off_c, 4, 60, 64
8, 62640, Note_on_c, 4, 60, 60
8, 62880, Note_off_c, 4, 60, 64
8, 62880, Note_on_c, 4, 65, 60
8, 63360, Note_off_c, 4, 65, 64
8, 63360, Note_on_c, 4, 62, 60
8, 63760, Note_off_c, 4, 62, 64
8, 64080, Note_on_c, 4, 62, 60
8, 64200, Note_off_c, 4, 62, 64
8, 64200, Note_on_c, 4, 50, 60
8, 64315, Note_off_c, 4, 50, 64
8, 64320, Note_on_c, 4, 55, 60
8, 64560, Note_off_c, 4, 55, 64
8, 64560, Note_on_c, 4, 62, 60
8, 64800, Note_off_c, 4, 62, 64
8, 64800, Note_on_c, 4, 60, 60
8, 65200, Note_off_c, 4, 60, 64
8, 65520, Note_on_c, 4, 67, 60
8, 65640, Note_off_c, 4, 67, 64
8, 65640, Note_on_c, 4, 55, 60
8, 65755, Note_off_c, 4, 55, 64
8, 65760, Note_on_c, 4, 60, 60
8, 65995, Note_off_c, 4, 60, 64
8, 66000, Note_on_c, 4, 59, 60
8, 66120, Note_off_c, 4, 59, 64
8, 66120, Note_on_c, 4, 62, 60
8, 66240, Note_off_c, 4, 62, 64
8, 66240, Note_on_c, 4, 60, 60
8, 66640, Note_off_c, 4, 60, 64
8, 66960, Note_on_c, 4, 60, 60
8, 67200, Note_off_c, 4, 60, 64
8, 67200, Note_on_c, 4, 65, 60
8, 67560, Note_off_c, 4, 65, 64
8, 67560, Note_on_c, 4, 63, 60
8, 67680, Note_off_c, 4, 63, 64
8, 67680, Note_on_c, 4, 62, 60
8, 68080, Note_off_c, 4, 62, 64
8, 68880, Note_on_c, 4, 67, 60
8, 69000, Note_off_c, 4, 67, 64
8, 69000, Note_on_c, 4, 62, 60
8, 69120, Note_off_c, 4, 62, 64
8, 69120, Note_on_c, 4, 63, 60
8, 69235, Note_off_c, 4, 63, 64
8, 69240, Note_on_c, 4, 55, 60
8, 69360, Note_off_c, 4, 55, 64
8, 69360, Note_on_c, 4, 57, 60
8, 69480, Note_off_c, 4, 57, 64
8, 69480, Note_on_c, 4, 59, 60
8, 69600, Note_off_c, 4, 59, 64
8, 69600, Note_on_c, 4, 60, 60
8, 69960, Note_off_c, 4, 60, 64
8, 69960, Note_on_c, 4, 62, 60
8, 70080, Note_off_c, 4, 62, 64
8, 70080, Note_on_c, 4, 63, 60
8, 70480, Note_off_c, 4, 63, 64
8, 70680, Note_on_c, 4, 62, 60
8, 70800, Note_off_c, 4, 62, 64
8, 70800, Note_on_c, 4, 63, 60
8, 70920, Note_off_c, 4, 63, 64
8, 70920, Note_on_c, 4, 65, 60
8, 71040, Note_off_c, 4, 65, 64
8, 71040, Note_on_c, 4, 67, 60
8, 71880, Note_off_c, 4, 67, 64
8, 72120, Note_on_c, 4, 60, 60
8, 72240, Note_off_c, 4, 60, 64
8, 72240, Note_on_c, 4, 62, 60
8, 72360, Note_off_c, 4, 62, 64
8, 72360, Note_on_c, 4, 63, 60
8, 72480, Note_off_c, 4, 63, 64
8, 72480, Note_on_c, 4, 65, 60
8, 72840, Note_off_c, 4, 65, 64
8, 72840, Note_on_c, 4, 63, 60
8, 72960, Note_off_c, 4, 63, 64
8, 72960, Note_on_c, 4, 62, 60
8, 73200, Note_off_c, 4, 62, 64
8, 73200, Note_on_c, 4, 65, 60
8, 73435, Note_off_c, 4, 65, 64
8, 73440, Note_on_c, 4, 63, 60
8, 73555, Note_off_c, 4, 63, 64
8, 73560, Note_on_c, 4, 60, 60
8, 73680, Note_off_c, 4, 60, 64
8, 73680, Note_on_c, 4, 62, 60
8, 73800, Note_off_c, 4, 62, 64
8, 73800, Note_on_c, 4, 63, 60
8, 73920, Note_off_c, 4, 63, 64
8, 73920, Note_on_c, 4, 65, 60
8, 74280, Note_off_c, 4, 65, 64
8, 74280, Note_on_c, 4, 67, 60
8, 74400, Note_off_c, 4, 67, 64
8, 74400, Note_on_c, 4, 68, 60
8, 74640, Note_off_c, 4, 68, 64
8, 74640, Note_on_c, 4, 65, 60
8, 74880, Note_off_c, 4, 65, 64
8, 74880, Note_on_c, 4, 62, 60
8, 74995, Note_off_c, 4, 62, 64
8, 75000, Note_on_c, 4, 62, 60
8, 75120, Note_off_c, 4, 62, 64
8, 75120, Note_on_c, 4, 63, 60
8, 75240, Note_off_c, 4, 63, 64
8, 75240, Note_on_c, 4, 65, 60
8, 75360, Note_off_c, 4, 65, 64
8, 75360, Note_on_c, 4, 67, 60
8, 75715, Note_off_c, 4, 67, 64
8, 75720, Note_on_c, 4, 57, 60
8, 75840, Note_off_c, 4, 57, 64
8, 75840, Note_on_c, 4, 59, 60
8, 76240, Note_off_c, 4, 59, 64
8, 76440, Note_on_c, 4, 55, 60
8, 76560, Note_off_c, 4, 55, 64
8, 76560, Note_on_c, 4, 57, 60
8, 76680, Note_off_c, 4, 57, 64
8, 76680, Note_on_c, 4, 59, 60
8, 76800, Note_off_c, 4, 59, 64
8, 76800, Note_on_c, 4, 60, 60
8, 77280, Note_off_c, 4, 60, 64
8, 77280, Note_on_c, 4, 62, 60
8, 77680, Note_off_c, 4, 62, 64
8, 77880, Note_on_c, 4, 55, 60
8, 78000, Note_off_c, 4, 55, 64
8, 78000, Note_on_c, 4, 57, 60
8, 78120, Note_off_c, 4, 57, 64
8, 78120, Note_on_c, 4, 59, 60
8, 78240, Note_off_c, 4, 59, 64
8, 78240, Note_on_c, 4, 60, 60
8, 79795, Note_off_c, 4, 60, 64
8, 79800, Note_on_c, 4, 60, 60
8, 79920, Note_off_c, 4, 60, 64
8, 79920, Note_on_c, 4, 59, 60
8, 80040, Note_off_c, 4, 59, 64
8, 80040, Note_on_c, 4, 57, 60
8, 80160, Note_off_c, 4, 57, 64
8, 80160, Note_on_c, 4, 59, 60
8, 80640, Note_off_c, 4, 59, 64
8, 80640, Note_on_c, 4, 60, 60
8, 81040, Note_off_c, 4, 60, 64
8, 81720, Note_on_c, 4, 67, 60
8, 81840, Note_off_c, 4, 67, 64
8, 81840, Note_on_c, 4, 65, 60
8, 81960, Note_off_c, 4, 65, 64
8, 81960, Note_on_c, 4, 63, 60
8, 82080, Note_off_c, 4, 63, 64
8, 82080, Note_on_c, 4, 62, 60
8, 82480, Note_off_c, 4, 62, 64
8, 83160, Note_on_c, 4, 65, 60
8, 83280, Note_off_c, 4, 65, 64
8, 83280, Note_on_c, 4, 63, 60
8, 83400, Note_off_c, 4, 63, 64
8, 83400, Note_on_c, 4, 62, 60
8, 83520, Note_off_c, 4, 62, 64
8, 83520, Note_on_c, 4, 60, 60
8, 83920, Note_off_c, 4, 60, 64
8, 84120, Note_on_c, 4, 67, 60
8, 84240, Note_off_c, 4, 67, 64
8, 84240, Note_on_c, 4, 65, 60
8, 84360, Note_off_c, 4, 65, 64
8, 84360, Note_on_c, 4, 63, 60
8, 84480, Note_off_c, 4, 63, 64
8, 84480, Note_on_c, 4, 62, 60
8, 84600, Note_off_c, 4, 62, 64
8, 84600, Note_on_c, 4, 65, 60
8, 84720, Note_off_c, 4, 65, 64
8, 84720, Note_on_c, 4, 63, 60
8, 84840, Note_off_c, 4, 63, 64
8, 84840, Note_on_c, 4, 62, 60
8, 84960, Note_off_c, 4, 62, 64
8, 84960, Note_on_c, 4, 60, 60
8, 85360, Note_off_c, 4, 60, 64
8, 85560, Note_on_c, 4, 67, 60
8, 85680, Note_off_c, 4, 67, 64
8, 85680, Note_on_c, 4, 65, 60
8, 85800, Note_off_c, 4, 65, 64
8, 85800, Note_on_c, 4, 63, 60
8, 85920, Note_off_c, 4, 63, 64
8, 85920, Note_on_c, 4, 62, 60
8, 86040, Note_off_c, 4, 62, 64
8, 86040, Note_on_c, 4, 63, 60
8, 86160, Note_off_c, 4, 63, 64
8, 86160, Note_on_c, 4, 62, 60
8, 86280, Note_off_c, 4, 62, 64
8, 86280, Note_on_c, 4, 60, 60
8, 86400, Note_off_c, 4, 60, 64
8, 86400, Note_on_c, 4, 59, 60
8, 86800, Note_off_c, 4, 59, 64
8, 87480, Note_on_c, 4, 68, 60
8, 87600, Note_off_c, 4, 68, 64
8, 87600, Note_on_c, 4, 67, 60
8, 87720, Note_off_c, 4, 67, 64
8, 87720, Note_on_c, 4, 65, 60
8, 87840, Note_off_c, 4, 65, 64
8, 87840, Note_on_c, 4, 67, 60
8, 88240, Note_off_c, 4, 67, 64
8, 88800, Note_on_c, 4, 62, 60
8, 88920, Note_off_c, 4, 62, 64
8, 88920, Note_on_c, 4, 60, 60
8, 89040, Note_off_c, 4, 60, 64
8, 89040, Note_on_c, 4, 59, 60
8, 89160, Note_off_c, 4, 59, 64
8, 89160, Note_on_c, 4, 56, 60
8, 89280, Note_off_c, 4, 56, 64
8, 89280, Note_on_c, 4, 55, 60
8, 89680, Note_off_c, 4, 55, 64
8, 90360, Note_on_c, 4, 63, 60
8, 90480, Note_off_c, 4, 63, 64
8, 90480, Note_on_c, 4, 62, 60
8, 90600, Note_off_c, 4, 62, 64
8, 90600, Note_on_c, 4, 60, 60
8, 90720, Note_off_c, 4, 60, 64
8, 90720, Note_on_c, 4, 59, 60
8, 91120, Note_off_c, 4, 59, 64
8, 91800, Note_on_c, 4, 68, 60
8, 91920, Note_off_c, 4, 68, 64
8, 91920, Note_on_c, 4, 67, 60
8, 92040, Note_off_c, 4, 67, 64
8, 92040, Note_on_c, 4, 65, 60
8, 92160, Note_off_c, 4, 65, 64
8, 92160, Note_on_c, 4, 63, 60
8, 92275, Note_off_c, 4, 63, 64
8, 92280, Note_on_c, 4, 60, 60
8, 92400, Note_off_c, 4, 60, 64
8, 92400, Note_on_c, 4, 58, 60
8, 92520, Note_off_c, 4, 58, 64
8, 92520, Note_on_c, 4, 56, 60
8, 92635, Note_off_c, 4, 56, 64
8, 92640, Note_on_c, 4, 67, 60
8, 92760, Note_off_c, 4, 67, 64
8, 92760, Note_on_c, 4, 65, 60
8, 92880, Note_off_c, 4, 65, 64
8, 92880, Note_on_c, 4, 63, 60
8, 93000, Note_off_c, 4, 63, 64
8, 93000, Note_on_c, 4, 62, 60
8, 93120, Note_off_c, 4, 62, 64
8, 93120, Note_on_c, 4, 60, 60
8, 93235, Note_off_c, 4, 60, 64
8, 93240, Note_on_c, 4, 63, 60
8, 93360, Note_off_c, 4, 63, 64
8, 93360, Note_on_c, 4, 62, 60
8, 93480, Note_off_c, 4, 62, 64
8, 93480, Note_on_c, 4, 60, 60
8, 93600, Note_off_c, 4, 60, 64
8, 93600, Note_on_c, 4, 59, 60
8, 94195, Note_off_c, 4, 59, 64
8, 94200, Note_on_c, 4, 60, 60
8, 94320, Note_off_c, 4, 60, 64
8, 94320, Note_on_c, 4, 59, 60
8, 94440, Note_off_c, 4, 59, 64
8, 94440, Note_on_c, 4, 57, 60
8, 94560, Note_off_c, 4, 57, 64
8, 94560, Note_on_c, 4, 55, 60
8, 94680, Note_off_c, 4, 55, 64
8, 94680, Note_on_c, 4, 63, 60
8, 94800, Note_off_c, 4, 63, 64
8, 94800, Note_on_c, 4, 65, 60
8, 94920, Note_off_c, 4, 65, 64
8, 94920, Note_on_c, 4, 67, 60
8, 95040, Note_off_c, 4, 67, 64
8, 95040, Note_on_c, 4, 68, 60
8, 95395, Note_off_c, 4, 68, 64
8, 95400, Note_on_c, 4, 58, 60
8, 95520, Note_off_c, 4, 58, 64
8, 95520, Note_on_c, 4, 60, 60
8, 95920, Note_off_c, 4, 60, 64
8, 96120, Note_on_c, 4, 55, 60
8, 96240, Note_off_c, 4, 55, 64
8, 96240, Note_on_c, 4, 57, 60
8, 96360, Note_off_c, 4, 57, 64
8, 96360, Note_on_c, 4, 59, 60
8, 96480, Note_off_c, 4, 59, 64
8, 96480, Note_on_c, 4, 60, 60
8, 96600, Note_off_c, 4, 60, 64
8, 96600, Note_on_c, 4, 61, 60
8, 96720, Note_off_c, 4, 61, 64
8, 96720, Note_on_c, 4, 60, 60
8, 96840, Note_off_c, 4, 60, 64
8, 96840, Note_on_c, 4, 58, 60
8, 96960, Note_off_c, 4, 58, 64
8, 96960, Note_on_c, 4, 56, 60
8, 97080, Note_off_c, 4, 56, 64
8, 97080, Note_on_c, 4, 60, 60
8, 97200, Note_off_c, 4, 60, 64
8, 97200, Note_on_c, 4, 62, 60
8, 97320, Note_off_c, 4, 62, 64
8, 97320, Note_on_c, 4, 63, 60
8, 97440, Note_off_c, 4, 63, 64
8, 97440, Note_on_c, 4, 65, 60
8, 97560, Note_off_c, 4, 65, 64
8, 97560, Note_on_c, 4, 67, 60
8, 97680, Note_off_c, 4, 67, 64
8, 97680, Note_on_c, 4, 65, 60
8, 97800, Note_off_c, 4, 65, 64
8, 97800, Note_on_c, 4, 63, 60
8, 97915, Note_off_c, 4, 63, 64
8, 97920, Note_on_c, 4, 62, 60
8, 98515, Note_off_c, 4, 62, 64
8, 98520, Note_on_c, 4, 63, 60
8, 98640, Note_off_c, 4, 63, 64
8, 98640, Note_on_c, 4, 62, 60
8, 98760, Note_off_c, 4, 62, 64
8, 98760, Note_on_c, 4, 60, 60
8, 98880, Note_off_c, 4, 60, 64
8, 98880, Note_on_c, 4, 59, 60
8, 99000, Note_off_c, 4, 59, 64
8, 99000, Note_on_c, 4, 60, 60
8, 99120, Note_off_c, 4, 60, 64
8, 99120, Note_on_c, 4, 59, 60
8, 99240, Note_off_c, 4, 59, 64
8, 99240, Note_on_c, 4, 57, 60
8, 99360, Note_off_c, 4, 57, 64
8, 99360, Note_on_c, 4, 55, 60
8, 99760, Note_off_c, 4, 55, 64
8, 99960, Note_on_c, 4, 60, 60
8, 100080, Note_off_c, 4, 60, 64
8, 100080, Note_on_c, 4, 62, 60
8, 100200, Note_off_c, 4, 62, 64
8, 100200, Note_on_c, 4, 63, 60
8, 100320, Note_off_c, 4, 63, 64
8, 100320, Note_on_c, 4, 65, 60
8, 100440, Note_off_c, 4, 65, 64
8, 100440, Note_on_c, 4, 68, 60
8, 100560, Note_off_c, 4, 68, 64
8, 100560, Note_on_c, 4, 67, 60
8, 100680, Note_off_c, 4, 67, 64
8, 100680, Note_on_c, 4, 65, 60
8, 100800, Note_off_c, 4, 65, 64
8, 100800, Note_on_c, 4, 63, 60
8, 101200, Note_off_c, 4, 63, 64
8, 101400, Note_on_c, 4, 63, 60
8, 101520, Note_off_c, 4, 63, 64
8, 101520, Note_on_c, 4, 65, 60
8, 101640, Note_off_c, 4, 65, 64
8, 101640, Note_on_c, 4, 67, 60
8, 101755, Note_off_c, 4, 67, 64
8, 101760, Note_on_c, 4, 68, 60
8, 102240, Note_off_c, 4, 68, 64
8, 102240, Note_on_c, 4, 67, 62
8, 102475, Note_off_c, 4, 67, 64
8, 102480, Note_on_c, 4, 57, 63
8, 102600, Note_off_c, 4, 57, 64
8, 102600, Note_on_c, 4, 59, 63
8, 102720, Note_off_c, 4, 59, 64
8, 102720, Note_on_c, 4, 60, 63
8, 102840, Note_off_c, 4, 60, 64
8, 102840, Note_on_c, 4, 60, 63
8, 102960, Note_off_c, 4, 60, 64
8, 102960, Note_on_c, 4, 62, 63
8, 103080, Note_off_c, 4, 62, 64
8, 103080, Note_on_c, 4, 63, 63
8, 103195, Note_off_c, 4, 63, 64
8, 103200, Note_on_c, 4, 65, 63
8, 103320, Note_off_c, 4, 65, 64
8, 103320, Note_on_c, 4, 68, 64
8, 103440, Note_off_c, 4, 68, 64
8, 103440, Note_on_c, 4, 67, 65
8, 103560, Note_off_c, 4, 67, 64
8, 103560, Note_on_c, 4, 65, 66
8, 103680, Note_off_c, 4, 65, 64
8, 103680, Note_on_c, 4, 63, 67
8, 103915, Note_off_c, 4, 63, 64
8, 103920, Note_on_c, 4, 60, 69
8, 104155, Note_off_c, 4, 60, 64
8, 104280, Note_on_c, 4, 55, 72
8, 104400, Note_off_c, 4, 55, 64
8, 104400, Note_on_c, 4, 59, 73
8, 104520, Note_off_c, 4, 59, 64
8, 104520, Note_on_c, 4, 55, 74
8, 104635, Note_off_c, 4, 55, 64
8, 104640, Note_on_c, 4, 60, 75
8, 104700, Note_off_c, 4, 60, 64
8, 104700, Note_on_c, 4, 62, 75
8, 104760, Note_off_c, 4, 62, 64
8, 104760, Note_on_c, 4, 60, 75
8, 105120, Note_off_c, 4, 60, 64
8, 105120, Note_on_c, 4, 59, 75
8, 105520, Note_off_c, 4, 59, 64
8, 105720, Note_on_c, 4, 55, 75
8, 105840, Note_off_c, 4, 55, 64
8, 105840, Note_on_c, 4, 59, 75
8, 105960, Note_off_c, 4, 59, 64
8, 105960, Note_on_c, 4, 55, 75
8, 106080, Note_off_c, 4, 55, 64
8, 106080, Note_on_c, 4, 60, 75
8, 106480, Note_off_c, 4, 60, 64
8, 106680, Note_on_c, 4, 60, 75
8, 106800, Note_off_c, 4, 60, 64
8, 106800, Note_on_c, 4, 63, 75
8, 106920, Note_off_c, 4, 63, 64
8, 106920, Note_on_c, 4, 60, 75
8, 107040, Note_off_c, 4, 60, 64
8, 107040, Note_on_c, 4, 65, 75
8, 107520, Note_off_c, 4, 65, 64
8, 107520, Note_on_c, 4, 67, 75
8, 107920, Note_off_c, 4, 67, 64
8, 108600, Note_on_c, 4, 60, 75
8, 108720, Note_off_c, 4, 60, 64
8, 108720, Note_on_c, 4, 63, 75
8, 108840, Note_off_c, 4, 63, 64
8, 108840, Note_on_c, 4, 60, 75
8, 108960, Note_off_c, 4, 60, 64
8, 108960, Note_on_c, 4, 65, 75
8, 109360, Note_off_c, 4, 65, 64
8, 109440, Note_on_c, 4, 62, 75
8, 109560, Note_off_c, 4, 62, 64
8, 109560, Note_on_c, 4, 55, 75
8, 109680, Note_off_c, 4, 55, 64
8, 109680, Note_on_c, 4, 59, 75
8, 109800, Note_off_c, 4, 59, 64
8, 109800, Note_on_c, 4, 55, 75
8, 109920, Note_off_c, 4, 55, 64
8, 109920, Note_on_c, 4, 62, 75
8, 110040, Note_off_c, 4, 62, 64
8, 110040, Note_on_c, 4, 59, 75
8, 110160, Note_off_c, 4, 59, 64
8, 110160, Note_on_c, 4, 62, 75
8, 110280, Note_off_c, 4, 62, 64
8, 110280, Note_on_c, 4, 59, 75
8, 110395, Note_off_c, 4, 59, 64
8, 110400, Note_on_c, 4, 65, 75
8, 110880, Note_off_c, 4, 65, 64
8, 110880, Note_on_c, 4, 67, 75
8, 110995, Note_off_c, 4, 67, 64
8, 111000, Note_on_c, 4, 55, 75
8, 111120, Note_off_c, 4, 55, 64
8, 111120, Note_on_c, 4, 59, 75
8, 111240, Note_off_c, 4, 59, 64
8, 111240, Note_on_c, 4, 55, 75
8, 111360, Note_off_c, 4, 55, 64
8, 111360, Note_on_c, 4, 60, 75
8, 111760, Note_off_c, 4, 60, 64
8, 112440, Note_on_c, 4, 55, 75
8, 112560, Note_off_c, 4, 55, 64
8, 112560, Note_on_c, 4, 59, 75
8, 112680, Note_off_c, 4, 59, 64
8, 112680, Note_on_c, 4, 55, 75
8, 112800, Note_off_c, 4, 55, 64
8, 112800, Note_on_c, 4, 60, 75
8, 113200, Note_off_c, 4, 60, 64
8, 113880, Note_on_c, 4, 55, 75
8, 114000, Note_off_c, 4, 55, 64
8, 114000, Note_on_c, 4, 59, 75
8, 114120, Note_off_c, 4, 59, 64
8, 114120, Note_on_c, 4, 55, 75
8, 114235, Note_off_c, 4, 55, 64
8, 114240, Note_on_c, 4, 60, 75
8, 115075, Note_off_c, 4, 60, 64
8, 115080, Note_on_c, 4, 59, 75
8, 115200, Note_off_c, 4, 59, 64
8, 115200, Note_on_c, 4, 60, 76
8, 115600, Note_off_c, 4, 60, 64
8, 116160, Note_on_c, 4, 48, 92
8, 116560, Note_off_c, 4, 48, 64
8, 116640, Note_on_c, 4, 55, 92
8, 117040, Note_off_c, 4, 55, 64
8, 117600, Note_on_c, 4, 51, 92
8, 118000, Note_off_c, 4, 51, 64
8, 118080, Note_on_c, 4, 53, 92
8, 118480, Note_off_c, 4, 53, 64
8, 119040, Note_on_c, 4, 55, 92
8, 119440, Note_off_c, 4, 55, 64
8, 119520, Note_on_c, 4, 56, 92
8, 119920, Note_off_c, 4, 56, 64
8, 120480, Note_on_c, 4, 53, 92
8, 120880, Note_off_c, 4, 53, 64
8, 120960, Note_on_c, 4, 55, 92
8, 121360, Note_off_c, 4, 55, 64
8, 121920, Note_on_c, 4, 50, 92
8, 122320, Note_off_c, 4, 50, 64
8, 122400, Note_on_c, 4, 51, 92
8, 122800, Note_off_c, 4, 51, 64
8, 123360, Note_on_c, 4, 47, 92
8, 123760, Note_off_c, 4, 47, 64
8, 123840, Note_on_c, 4, 48, 92
8, 124240, Note_off_c, 4, 48, 64
8, 124800, Note_on_c, 4, 41, 92
8, 125200, Note_off_c, 4, 41, 64
8, 125280, Note_on_c, 4, 43, 92
8, 125680, Note_off_c, 4, 43, 64
8, 126240, Note_on_c, 4, 43, 92
8, 126640, Note_off_c, 4, 43, 64
8, 126720, Note_on_c, 4, 36, 75
8, 127120, Note_off_c, 4, 36, 64
8, 150720, Note_on_c, 4, 48, 45
8, 151200, Note_off_c, 4, 48, 64
8, 151200, Note_on_c, 4, 43, 45
8, 151320, Note_off_c, 4, 43, 64
8, 151320, Note_on_c, 4, 47, 45
8, 151440, Note_off_c, 4, 47, 64
8, 151440, Note_on_c, 4, 45, 45
8, 151560, Note_off_c, 4, 45, 64
8, 151560, Note_on_c, 4, 43, 45
8, 151675, Note_off_c, 4, 43, 64
8, 151680, Note_on_c, 4, 48, 45
8, 152280, Note_off_c, 4, 48, 64
8, 152280, Note_on_c, 4, 49, 45
8, 152400, Note_off_c, 4, 49, 64
8, 152400, Note_on_c, 4, 48, 45
8, 152520, Note_off_c, 4, 48, 64
8, 152520, Note_on_c, 4, 46, 45
8, 152640, Note_off_c, 4, 46, 64
8, 152640, Note_on_c, 4, 44, 45
8, 153360, Note_off_c, 4, 44, 64
8, 153360, Note_on_c, 4, 49, 45
8, 153595, Note_off_c, 4, 49, 64
8, 153600, Note_on_c, 4, 46, 45
8, 153840, Note_off_c, 4, 46, 64
8, 153840, Note_on_c, 4, 48, 45
8, 154080, Note_off_c, 4, 48, 64
8, 154080, Note_on_c, 4, 53, 45
8, 154480, Note_off_c, 4, 53, 64
8, 155040, Note_on_c, 4, 44, 45
8, 155520, Note_off_c, 4, 44, 64
8, 155520, Note_on_c, 4, 43, 45
8, 155640, Note_off_c, 4, 43, 64
8, 155640, Note_on_c, 4, 44, 45
8, 155760, Note_off_c, 4, 44, 64
8, 155760, Note_on_c, 4, 43, 45
8, 155880, Note_off_c, 4, 43, 64
8, 155880, Note_on_c, 4, 41, 45
8, 156000, Note_off_c, 4, 41, 64
8, 156000, Note_on_c, 4, 39, 45
8, 156235, Note_off_c, 4, 39, 64
8, 156240, Note_on_c, 4, 50, 45
8, 156360, Note_off_c, 4, 50, 64
8, 156360, Note_on_c, 4, 48, 45
8, 156480, Note_off_c, 4, 48, 64
8, 156480, Note_on_c, 4, 47, 45
8, 156510, Note_off_c, 4, 47, 64
8, 156510, Note_on_c, 4, 48, 45
8, 156540, Note_off_c, 4, 48, 64
8, 156540, Note_on_c, 4, 47, 45
8, 156570, Note_off_c, 4, 47, 64
8, 156570, Note_on_c, 4, 48, 45
8, 156600, Note_off_c, 4, 48, 64
8, 156600, Note_on_c, 4, 47, 45
8, 156630, Note_off_c, 4, 47, 64
8, 156630, Note_on_c, 4, 48, 45
8, 156660, Note_off_c, 4, 48, 64
8, 156660, Note_on_c, 4, 47, 45
8, 156690, Note_off_c, 4, 47, 64
8, 156690, Note_on_c, 4, 48, 45
8, 156720, Note_off_c, 4, 48, 64
8, 156720, Note_on_c, 4, 47, 45
8, 156750, Note_off_c, 4, 47, 64
8, 156750, Note_on_c, 4, 48, 45
8, 156780, Note_off_c, 4, 48, 64
8, 156780, Note_on_c, 4, 47, 45
8, 156810, Note_off_c, 4, 47, 64
8, 156810, Note_on_c, 4, 48, 45
8, 156840, Note_off_c, 4, 48, 64
8, 156840, Note_on_c, 4, 47, 45
8, 156870, Note_off_c, 4, 47, 64
8, 156870, Note_on_c, 4, 48, 45
8, 156900, Note_off_c, 4, 48, 64
8, 156900, Note_on_c, 4, 47, 45
8, 156930, Note_off_c, 4, 47, 64
8, 156930, Note_on_c, 4, 48, 45
8, 156960, Note_off_c, 4, 48, 64
8, 156960, Note_on_c, 4, 48, 45
8, 157080, Note_off_c, 4, 48, 64
8, 157080, Note_on_c, 4, 50, 45
8, 157200, Note_off_c, 4, 50, 64
8, 157200, Note_on_c, 4, 51, 45
8, 157320, Note_off_c, 4, 51, 64
8, 157320, Note_on_c, 4, 50, 45
8, 157440, Note_off_c, 4, 50, 64
8, 157440, Note_on_c, 4, 48, 45
8, 157675, Note_off_c, 4, 48, 64
8, 157680, Note_on_c, 4, 43, 45
8, 158155, Note_off_c, 4, 43, 64
8, 158160, Note_on_c, 4, 43, 45
8, 158395, Note_off_c, 4, 43, 64
8, 158400, Note_on_c, 4, 44, 45
8, 158520, Note_off_c, 4, 44, 64
8, 158520, Note_on_c, 4, 48, 45
8, 158640, Note_off_c, 4, 48, 64
8, 158640, Note_on_c, 4, 46, 45
8, 158760, Note_off_c, 4, 46, 64
8, 158760, Note_on_c, 4, 44, 45
8, 158880, Note_off_c, 4, 44, 64
8, 158880, Note_on_c, 4, 51, 45
8, 159115, Note_off_c, 4, 51, 64
8, 159120, Note_on_c, 4, 40, 45
8, 159355, Note_off_c, 4, 40, 64
8, 159360, Note_on_c, 4, 41, 45
8, 159955, Note_off_c, 4, 41, 64
8, 159960, Note_on_c, 4, 41, 45
8, 160080, Note_off_c, 4, 41, 64
8, 160080, Note_on_c, 4, 39, 45
8, 160200, Note_off_c, 4, 39, 64
8, 160200, Note_on_c, 4, 38, 45
8, 160320, Note_off_c, 4, 38, 64
8, 160320, Note_on_c, 4, 39, 45
8, 160720, Note_off_c, 4, 39, 64
8, 160800, Note_on_c, 4, 47, 45
8, 161280, Note_off_c, 4, 47, 64
8, 161280, Note_on_c, 4, 48, 45
8, 162120, Note_off_c, 4, 48, 64
8, 162240, Note_on_c, 4, 63, 60
8, 162240, Note_on_c, 4, 60, 60
8, 162640, Note_off_c, 4, 60, 64
8, 162640, Note_off_c, 4, 63, 64
8, 162720, Note_on_c, 4, 62, 60
8, 162720, Note_on_c, 4, 59, 60
8, 163560, Note_off_c, 4, 59, 64
8, 163560, Note_off_c, 4, 62, 64
8, 163680, Note_on_c, 4, 63, 60
8, 163680, Note_on_c, 4, 60, 60
8, 164080, Note_off_c, 4, 60, 64
8, 164080, Note_off_c, 4, 63, 64
8, 164160, Note_on_c, 4, 65, 60
8, 164160, Note_on_c, 4, 62, 60
8, 165000, Note_off_c, 4, 62, 64
8, 165000, Note_off_c, 4, 65, 64
8, 165120, Note_on_c, 4, 62, 60
8, 165120, Note_on_c, 4, 59, 60
8, 165520, Note_off_c, 4, 59, 64
8, 165520, Note_off_c, 4, 62, 64
8, 165600, Note_on_c, 4, 63, 60
8, 165600, Note_on_c, 4, 60, 60
8, 166440, Note_off_c, 4, 60, 64
8, 166440, Note_off_c, 4, 63, 64
8, 166560, Note_on_c, 4, 60, 60
8, 166560, Note_on_c, 4, 56, 60
8, 166960, Note_off_c, 4, 56, 64
8, 166960, Note_off_c, 4, 60, 64
8, 167040, Note_on_c, 4, 62, 60
8, 167040, Note_on_c, 4, 59, 60
8, 167880, Note_off_c, 4, 59, 64
8, 167880, Note_off_c, 4, 62, 64
8, 168000, Note_on_c, 4, 62, 60
8, 168000, Note_on_c, 4, 59, 60
8, 168400, Note_off_c, 4, 59, 64
8, 168400, Note_off_c, 4, 62, 64
8, 168480, Note_on_c, 4, 63, 60
8, 168480, Note_on_c, 4, 60, 60
8, 169320, Note_off_c, 4, 60, 64
8, 169320, Note_off_c, 4, 63, 64
8, 169440, Note_on_c, 4, 62, 60
8, 169440, Note_on_c, 4, 59, 60
8, 169840, Note_off_c, 4, 59, 64
8, 169840, Note_off_c, 4, 62, 64
8, 169920, Note_on_c, 4, 63, 60
8, 169920, Note_on_c, 4, 60, 60
8, 170760, Note_off_c, 4, 60, 64
8, 170760, Note_off_c, 4, 63, 64
8, 170880, Note_on_c, 4, 65, 60
8, 170880, Note_on_c, 4, 60, 60
8, 171280, Note_off_c, 4, 60, 64
8, 171280, Note_off_c, 4, 65, 64
8, 171360, Note_on_c, 4, 62, 60
8, 171360, Note_on_c, 4, 60, 60
8, 172320, Note_off_c, 4, 60, 64
8, 172320, Note_off_c, 4, 62, 64
8, 172320, Note_on_c, 4, 62, 60
8, 172320, Note_on_c, 4, 59, 60
8, 172720, Note_off_c, 4, 59, 64
8, 172720, Note_off_c, 4, 62, 64
8, 172800, Note_on_c, 4, 63, 60
8, 172800, Note_on_c, 4, 60, 60
8, 173640, Note_off_c, 4, 60, 64
8, 173640, Note_off_c, 4, 63, 64
8, 173760, Note_on_c, 4, 48, 75
8, 173760, Note_on_c, 4, 36, 75
8, 174160, Note_off_c, 4, 36, 64
8, 174160, Note_off_c, 4, 48, 64
8, 174240, Note_on_c, 4, 55, 75
8, 174240, Note_on_c, 4, 43, 75
8, 175080, Note_off_c, 4, 43, 64
8, 175080, Note_off_c, 4, 55, 64
8, 175200, Note_on_c, 4, 51, 75
8, 175200, Note_on_c, 4, 39, 75
8, 175600, Note_off_c, 4, 39, 64
8, 175600, Note_off_c, 4, 51, 64
8, 175680, Note_on_c, 4, 53, 75
8, 175680, Note_on_c, 4, 41, 75
8, 176520, Note_off_c, 4, 41, 64
8, 176520, Note_off_c, 4, 53, 64
8, 176640, Note_on_c, 4, 55, 75
8, 176640, Note_on_c, 4, 43, 75
8, 177040, Note_off_c, 4, 43, 64
8, 177040, Note_off_c, 4, 55, 64
8, 177120, Note_on_c, 4, 56, 75
8, 177120, Note_on_c, 4, 44, 75
8, 177960, Note_off_c, 4, 44, 64
8, 177960, Note_off_c, 4, 56, 64
8, 178080, Note_on_c, 4, 53, 75
8, 178080, Note_on_c, 4, 41, 75
8, 178480, Note_off_c, 4, 41, 64
8, 178480, Note_off_c, 4, 53, 64
8, 178560, Note_on_c, 4, 55, 75
8, 178560, Note_on_c, 4, 43, 75
8, 179400, Note_off_c, 4, 43, 64
8, 179400, Note_off_c, 4, 55, 64
8, 179520, Note_on_c, 4, 50, 75
8, 179520, Note_on_c, 4, 38, 75
8, 179920, Note_off_c, 4, 38, 64
8, 179920, Note_off_c, 4, 50, 64
8, 180000, Note_on_c, 4, 51, 75
8, 180000, Note_on_c, 4, 39, 75
8, 180840, Note_off_c, 4, 39, 64
8, 180840, Note_off_c, 4, 51, 64
8, 180960, Note_on_c, 4, 47, 75
8, 180960, Note_on_c, 4, 35, 75
8, 181360, Note_off_c, 4, 35, 64
8, 181360, Note_off_c, 4, 47, 64
8, 181440, Note_on_c, 4, 48, 75
8, 181440, Note_on_c, 4, 36, 75
8, 182280, Note_off_c, 4, 36, 64
8, 182280, Note_off_c, 4, 48, 64
8, 182400, Note_on_c, 4, 53, 75
8, 182400, Note_on_c, 4, 41, 75
8, 182800, Note_off_c, 4, 41, 64
8, 182800, Note_off_c, 4, 53, 64
8, 182880, Note_on_c, 4, 55, 75
8, 182880, Note_on_c, 4, 43, 75
8, 184200, Note_off_c, 4, 43, 64
8, 184200, Note_off_c, 4, 55, 64
8, 184320, Note_on_c, 4, 48, 85
8, 184320, Note_on_c, 4, 36, 85
8, 185160, Note_off_c, 4, 36, 64
8, 185160, Note_off_c, 4, 48, 64
8, 185280, Note_on_c, 4, 48, 92
8, 185280, Note_on_c, 4, 36, 92
8, 185680, Note_off_c, 4, 36, 64
8, 185680, Note_off_c, 4, 48, 64
8, 185760, Note_on_c, 4, 55, 92
8, 185760, Note_on_c, 4, 43, 92
8, 186600, Note_off_c, 4, 43, 64
8, 186600, Note_off_c, 4, 55, 64
8, 186720, Note_on_c, 4, 51, 92
8, 186720, Note_on_c, 4, 39, 92
8, 187120, Note_off_c, 4, 39, 64
8, 187120, Note_off_c, 4, 51, 64
8, 187200, Note_on_c, 4, 53, 92
8, 187200, Note_on_c, 4, 41, 92
8, 188040, Note_off_c, 4, 41, 64
8, 188040, Note_off_c, 4, 53, 64
8, 188160, Note_on_c, 4, 55, 92
8, 188160, Note_on_c, 4, 43, 92
8, 188560, Note_off_c, 4, 43, 64
8, 188560, Note_off_c, 4, 55, 64
8, 188640, Note_on_c, 4, 56, 92
8, 188640, Note_on_c, 4, 44, 92
8, 189480, Note_off_c, 4, 44, 64
8, 189480, Note_off_c, 4, 56, 64
8, 189600, Note_on_c, 4, 53, 92
8, 189600, Note_on_c, 4, 41, 92
8, 190000, Note_off_c, 4, 41, 64
8, 190000, Note_off_c, 4, 53, 64
8, 190080, Note_on_c, 4, 55, 92
8, 190080, Note_on_c, 4, 43, 92
8, 190920, Note_off_c, 4, 43, 64
8, 190920, Note_off_c, 4, 55, 64
8, 191040, Note_on_c, 4, 50, 92
8, 191040, Note_on_c, 4, 38, 92
8, 191440, Note_off_c, 4, 38, 64
8, 191440, Note_off_c, 4, 50, 64
8, 191520, Note_on_c, 4, 51, 92
8, 191520, Note_on_c, 4, 39, 92
8, 192360, Note_off_c, 4, 39, 64
8, 192360, Note_off_c, 4, 51, 64
8, 192480, Note_on_c, 4, 47, 92
8, 192480, Note_on_c, 4, 35, 92
8, 192880, Note_off_c, 4, 35, 64
8, 192880, Note_off_c, 4, 47, 64
8, 192960, Note_on_c, 4, 48, 92
8, 192960, Note_on_c, 4, 36, 92
8, 193800, Note_off_c, 4, 36, 64
8, 193800, Note_off_c, 4, 48, 64
8, 193920, Note_on_c, 4, 53, 92
8, 193920, Note_on_c, 4, 41, 92
8, 194320, Note_off_c, 4, 41, 64
8, 194320, Note_off_c, 4, 53, 64
8, 194400, Note_on_c, 4, 55, 92
8, 194400, Note_on_c, 4, 43, 92
8, 195720, Note_off_c, 4, 43, 64
8, 195720, Note_off_c, 4, 55, 64
8, 195840, Note_on_c, 4, 48, 92
8, 195840, Note_on_c, 4, 36, 92
8, 196680, Note_off_c, 4, 36, 64
8, 196680, Note_off_c, 4, 48, 64
8, 196800, Note_on_c, 4, 48, 92
8, 196800, Note_on_c, 4, 36, 92
8, 197200, Note_off_c, 4, 36, 64
8, 197200, Note_off_c, 4, 48, 64
8, 197280, Note_on_c, 4, 55, 92
8, 197280, Note_on_c, 4, 43, 92
8, 198120, Note_off_c, 4, 43, 64
8, 198120, Note_off_c, 4, 55, 64
8, 198240, Note_on_c, 4, 51, 92
8, 198240, Note_on_c, 4, 39, 92
8, 198640, Note_off_c, 4, 39, 64
8, 198640, Note_off_c, 4, 51, 64
8, 198720, Note_on_c, 4, 53, 92
8, 198720, Note_on_c, 4, 41, 92
8, 199560, Note_off_c, 4, 41, 64
8, 199560, Note_off_c, 4, 53, 64
8, 199680, Note_on_c, 4, 55, 92
8, 199680, Note_on_c, 4, 43, 92
8, 200080, Note_off_c, 4, 43, 64
8, 200080, Note_off_c, 4, 55, 64
8, 200160, Note_on_c, 4, 56, 92
8, 200160, Note_on_c, 4, 44, 92
8, 201000, Note_off_c, 4, 44, 64
8, 201000, Note_off_c, 4, 56, 64
8, 201120, Note_on_c, 4, 53, 92
8, 201120, Note_on_c, 4, 41, 92
8, 201520, Note_off_c, 4, 41, 64
8, 201520, Note_off_c, 4, 53, 64
8, 201600, Note_on_c, 4, 55, 92
8, 201600, Note_on_c, 4, 43, 92
8, 202440, Note_off_c, 4, 43, 64
8, 202440, Note_off_c, 4, 55, 64
8, 202560, Note_on_c, 4, 50, 92
8, 202560, Note_on_c, 4, 38, 92
8, 202960, Note_off_c, 4, 38, 64
8, 202960, Note_off_c, 4, 50, 64
8, 203040, Note_on_c, 4, 51, 92
8, 203040, Note_on_c, 4, 39, 92
8, 203880, Note_off_c, 4, 39, 64
8, 203880, Note_off_c, 4, 51, 64
8, 204000, Note_on_c, 4, 47, 92
8, 204000, Note_on_c, 4, 35, 92
8, 204400, Note_off_c, 4, 35, 64
8, 204400, Note_off_c, 4, 47, 64
8, 204480, Note_on_c, 4, 48, 92
8, 204480, Note_on_c, 4, 36, 92
8, 205320, Note_off_c, 4, 36, 64
8, 205320, Note_off_c, 4, 48, 64
8, 205440, Note_on_c, 4, 53, 92
8, 205440, Note_on_c, 4, 41, 92
8, 205840, Note_off_c, 4, 41, 64
8, 205840, Note_off_c, 4, 53, 64
8, 205920, Note_on_c, 4, 55, 92
8, 205920, Note_on_c, 4, 43, 92
8, 207240, Note_off_c, 4, 43, 64
8, 207240, Note_off_c, 4, 55, 64
8, 207360, Note_on_c, 4, 36, 92
8, 208200, Note_off_c, 4, 36, 64
8, 208560, Note_on_c, 4, 48, 108
8, 208795, Note_off_c, 4, 48, 64
8, 208800, Note_on_c, 4, 55, 108
8, 209640, Note_off_c, 4, 55, 64
8, 210000, Note_on_c, 4, 51, 108
8, 210235, Note_off_c, 4, 51, 64
8, 210240, Note_on_c, 4, 53, 108
8, 211080, Note_off_c, 4, 53, 64
8, 211440, Note_on_c, 4, 55, 108
8, 211675, Note_off_c, 4, 55, 64
8, 211680, Note_on_c, 4, 56, 108
8, 212520, Note_off_c, 4, 56, 64
8, 212880, Note_on_c, 4, 53, 108
8, 213115, Note_off_c, 4, 53, 64
8, 213120, Note_on_c, 4, 55, 108
8, 213960, Note_off_c, 4, 55, 64
8, 214320, Note_on_c, 4, 50, 108
8, 214555, Note_off_c, 4, 50, 64
8, 214560, Note_on_c, 4, 51, 108
8, 215400, Note_off_c, 4, 51, 64
8, 215760, Note_on_c, 4, 47, 108
8, 215995, Note_off_c, 4, 47, 64
8, 216000, Note_on_c, 4, 48, 108
8, 216840, Note_off_c, 4, 48, 64
8, 217200, Note_on_c, 4, 41, 108
8, 217435, Note_off_c, 4, 41, 64
8, 217440, Note_on_c, 4, 43, 108
8, 218280, Note_off_c, 4, 43, 64
8, 218640, Note_on_c, 4, 43, 108
8, 218875, Note_off_c, 4, 43, 64
8, 218880, Note_on_c, 4, 36, 108
8, 219720, Note_off_c, 4, 36, 64
8, 219840, Note_on_c, 4, 48, 108
8, 220240, Note_off_c, 4, 48, 64
8, 220320, Note_on_c, 4, 55, 108
8, 221160, Note_off_c, 4, 55, 64
8, 221280, Note_on_c, 4, 51, 108
8, 221680, Note_off_c, 4, 51, 64
8, 221760, Note_on_c, 4, 53, 108
8, 222600, Note_off_c, 4, 53, 64
8, 222720, Note_on_c, 4, 55, 108
8, 223120, Note_off_c, 4, 55, 64
8, 223200, Note_on_c, 4, 56, 108
8, 224040, Note_off_c, 4, 56, 64
8, 224160, Note_on_c, 4, 53, 108
8, 224560, Note_off_c, 4, 53, 64
8, 224640, Note_on_c, 4, 55, 108
8, 225480, Note_off_c, 4, 55, 64
8, 225600, Note_on_c, 4, 50, 108
8, 226000, Note_off_c, 4, 50, 64
8, 226080, Note_on_c, 4, 51, 108
8, 226920, Note_off_c, 4, 51, 64
8, 227040, Note_on_c, 4, 47, 108
8, 227440, Note_off_c, 4, 47, 64
8, 227520, Note_on_c, 4, 48, 108
8, 228360, Note_off_c, 4, 48, 64
8, 228480, Note_on_c, 4, 53, 108
8, 228880, Note_off_c, 4, 53, 64
8, 228960, Note_on_c, 4, 59, 108
8, 229440, Note_off_c, 4, 59, 64
8, 229440, Note_on_c, 4, 60, 108
8, 229920, Note_off_c, 4, 60, 64
8, 229920, Note_on_c, 4, 62, 108
8, 230155, Note_off_c, 4, 62, 64
8, 230160, Note_on_c, 4, 67, 108
8, 230995, Note_off_c, 4, 67, 64
8, 231000, Note_on_c, 4, 68, 108
8, 231120, Note_off_c, 4, 68, 64
8, 231120, Note_on_c, 4, 67, 108
8, 231240, Note_off_c, 4, 67, 64
8, 231240, Note_on_c, 4, 65, 108
8, 231360, Note_off_c, 4, 65, 64
8, 231360, Note_on_c, 4, 63, 108
8, 231595, Note_off_c, 4, 63, 64
8, 231600, Note_on_c, 4, 60, 108
8, 231955, Note_off_c, 4, 60, 64
8, 231960, Note_on_c, 4, 62, 108
8, 232080, Note_off_c, 4, 62, 64
8, 232080, Note_on_c, 4, 60, 108
8, 232200, Note_off_c, 4, 60, 64
8, 232200, Note_on_c, 4, 59, 108
8, 232320, Note_off_c, 4, 59, 64
8, 232320, Note_on_c, 4, 63, 108
8, 232440, Note_off_c, 4, 63, 64
8, 232440, Note_on_c, 4, 65, 108
8, 232560, Note_off_c, 4, 65, 64
8, 232560, Note_on_c, 4, 63, 108
8, 232680, Note_off_c, 4, 63, 64
8, 232680, Note_on_c, 4, 62, 108
8, 232800, Note_off_c, 4, 62, 64
8, 232800, Note_on_c, 4, 63, 108
8, 233395, Note_off_c, 4, 63, 64
8, 233400, Note_on_c, 4, 65, 108
8, 233520, Note_off_c, 4, 65, 64
8, 233520, Note_on_c, 4, 63, 108
8, 233640, Note_off_c, 4, 63, 64
8, 233640, Note_on_c, 4, 62, 108
8, 233760, Note_off_c, 4, 62, 64
8, 233760, Note_on_c, 4, 63, 108
8, 234355, Note_off_c, 4, 63, 64
8, 234360, Note_on_c, 4, 65, 108
8, 234480, Note_off_c, 4, 65, 64
8, 234480, Note_on_c, 4, 63, 108
8, 234600, Note_off_c, 4, 63, 64
8, 234600, Note_on_c, 4, 62, 108
8, 234720, Note_off_c, 4, 62, 64
8, 234720, Note_on_c, 4, 60, 108
8, 235075, Note_off_c, 4, 60, 64
8, 235080, Note_on_c, 4, 65, 108
8, 235200, Note_off_c, 4, 65, 64
8, 235200, Note_on_c, 4, 63, 108
8, 235320, Note_off_c, 4, 63, 64
8, 235320, Note_on_c, 4, 65, 108
8, 235440, Note_off_c, 4, 65, 64
8, 235440, Note_on_c, 4, 63, 108
8, 235560, Note_off_c, 4, 63, 64
8, 235560, Note_on_c, 4, 62, 108
8, 235680, Note_off_c, 4, 62, 64
8, 235680, Note_on_c, 4, 63, 108
8, 236275, Note_off_c, 4, 63, 64
8, 236280, Note_on_c, 4, 65, 108
8, 236400, Note_off_c, 4, 65, 64
8, 236400, Note_on_c, 4, 63, 108
8, 236520, Note_off_c, 4, 63, 64
8, 236520, Note_on_c, 4, 62, 108
8, 236640, Note_off_c, 4, 62, 64
8, 236640, Note_on_c, 4, 63, 108
8, 236875, Note_off_c, 4, 63, 64
8, 236880, Note_on_c, 4, 65, 108
8, 237000, Note_off_c, 4, 65, 64
8, 237000, Note_on_c, 4, 67, 108
8, 237120, Note_off_c, 4, 67, 64
8, 237120, Note_on_c, 4, 68, 108
8, 237355, Note_off_c, 4, 68, 64
8, 237360, Note_on_c, 4, 65, 108
8, 237600, Note_off_c, 4, 65, 64
8, 237600, Note_on_c, 4, 60, 108
8, 238195, Note_off_c, 4, 60, 64
8, 238200, Note_on_c, 4, 60, 108
8, 238320, Note_off_c, 4, 60, 64
8, 238320, Note_on_c, 4, 59, 108
8, 238440, Note_off_c, 4, 59, 64
8, 238440, Note_on_c, 4, 57, 108
8, 238560, Note_off_c, 4, 57, 64
8, 238560, Note_on_c, 4, 59, 108
8, 238960, Note_off_c, 4, 59, 64
8, 239040, Note_on_c, 4, 60, 108
8, 239635, Note_off_c, 4, 60, 64
8, 239640, Note_on_c, 4, 58, 108
8, 239760, Note_off_c, 4, 58, 64
8, 239760, Note_on_c, 4, 56, 108
8, 239880, Note_off_c, 4, 56, 64
8, 239880, Note_on_c, 4, 55, 108
8, 240000, Note_off_c, 4, 55, 64
8, 240000, Note_on_c, 4, 53, 108
8, 240400, Note_off_c, 4, 53, 64
8, 240480, Note_on_c, 4, 51, 108
8, 240600, Note_off_c, 4, 51, 64
8, 240600, Note_on_c, 4, 53, 108
8, 240720, Note_off_c, 4, 53, 64
8, 240720, Note_on_c, 4, 51, 108
8, 240840, Note_off_c, 4, 51, 64
8, 240840, Note_on_c, 4, 50, 108
8, 240960, Note_off_c, 4, 50, 64
8, 240960, Note_on_c, 4, 51, 108
8, 241320, Note_off_c, 4, 51, 64
8, 241320, Note_on_c, 4, 53, 108
8, 241440, Note_off_c, 4, 53, 64
8, 241440, Note_on_c, 4, 55, 75
8, 241560, Note_off_c, 4, 55, 64
8, 241560, Note_on_c, 4, 53, 75
8, 241680, Note_off_c, 4, 53, 64
8, 241680, Note_on_c, 4, 55, 75
8, 241800, Note_off_c, 4, 55, 64
8, 241800, Note_on_c, 4, 56, 75
8, 241920, Note_off_c, 4, 56, 64
8, 241920, Note_on_c, 4, 60, 60
8, 242515, Note_off_c, 4, 60, 64
8, 242520, Note_on_c, 4, 56, 60
8, 242640, Note_off_c, 4, 56, 64
8, 242640, Note_on_c, 4, 55, 60
8, 242760, Note_off_c, 4, 55, 64
8, 242760, Note_on_c, 4, 53, 60
8, 242880, Note_off_c, 4, 53, 64
8, 242880, Note_on_c, 4, 60, 60
8, 243280, Note_off_c, 4, 60, 64
8, 260160, Note_on_c, 4, 48, 60
8, 260560, Note_off_c, 4, 48, 64
8, 260640, Note_on_c, 4, 55, 60
8, 261480, Note_off_c, 4, 55, 64
8, 261600, Note_on_c, 4, 51, 60
8, 262000, Note_off_c, 4, 51, 64
8, 262080, Note_on_c, 4, 53, 60
8, 262920, Note_off_c, 4, 53, 64
8, 263040, Note_on_c, 4, 55, 60
8, 263440, Note_off_c, 4, 55, 64
8, 263520, Note_on_c, 4, 56, 60
8, 264360, Note_off_c, 4, 56, 64
8, 264480, Note_on_c, 4, 53, 60
8, 264880, Note_off_c, 4, 53, 64
8, 264960, Note_on_c, 4, 55, 60
8, 265680, Note_off_c, 4, 55, 64
8, 265680, Note_on_c, 4, 50, 60
8, 265915, Note_off_c, 4, 50, 64
8, 265920, Note_on_c, 4, 51, 60
8, 266160, Note_off_c, 4, 51, 64
8, 266160, Note_on_c, 4, 47, 60
8, 266400, Note_off_c, 4, 47, 64
8, 266400, Note_on_c, 4, 48, 60
8, 267040, Note_off_c, 4, 48, 64
8, 267120, Note_on_c, 4, 50, 60
8, 267360, Note_off_c, 4, 50, 64
8, 267360, Note_on_c, 4, 51, 60
8, 267600, Note_off_c, 4, 51, 64
8, 267600, Note_on_c, 4, 48, 60
8, 267840, Note_off_c, 4, 48, 64
8, 267840, Note_on_c, 4, 50, 60
8, 268080, Note_off_c, 4, 50, 64
8, 268080, Note_on_c, 4, 46, 60
8, 268320, Note_off_c, 4, 46, 64
8, 268320, Note_on_c, 4, 42, 60
8, 268720, Note_off_c, 4, 42, 64
8, 268800, Note_on_c, 4, 43, 60
8, 269200, Note_off_c, 4, 43, 64
8, 269520, Note_on_c, 4, 51, 60
8, 269760, Note_off_c, 4, 51, 64
8, 269760, Note_on_c, 4, 45, 60
8, 269995, Note_off_c, 4, 45, 64
8, 270000, Note_on_c, 4, 45, 60
8, 270240, Note_off_c, 4, 45, 64
8, 270240, Note_on_c, 4, 47, 60
8, 270640, Note_off_c, 4, 47, 64
8, 270960, Note_on_c, 4, 48, 60
8, 271200, Note_off_c, 4, 48, 64
8, 271200, Note_on_c, 4, 43, 60
8, 271435, Note_off_c, 4, 43, 64
8, 271440, Note_on_c, 4, 43, 60
8, 271680, Note_off_c, 4, 43, 64
8, 271680, Note_on_c, 4, 45, 60
8, 272080, Note_off_c, 4, 45, 64
8, 272400, Note_on_c, 4, 46, 60
8, 272640, Note_off_c, 4, 46, 64
8, 272640, Note_on_c, 4, 42, 60
8, 272875, Note_off_c, 4, 42, 64
8, 272880, Note_on_c, 4, 42, 60
8, 273115, Note_off_c, 4, 42, 64
8, 273120, Note_on_c, 4, 43, 60
8, 273360, Note_off_c, 4, 43, 64
8, 273360, Note_on_c, 4, 45, 60
8, 273595, Note_off_c, 4, 45, 64
8, 273600, Note_on_c, 4, 46, 60
8, 273840, Note_off_c, 4, 46, 64
8, 273840, Note_on_c, 4, 48, 60
8, 274075, Note_off_c, 4, 48, 64
8, 274080, Note_on_c, 4, 45, 60
8, 274480, Note_off_c, 4, 45, 64
8, 274560, Note_on_c, 4, 50, 60
8, 274795, Note_off_c, 4, 50, 64
8, 274800, Note_on_c, 4, 38, 60
8, 275035, Note_off_c, 4, 38, 64
8, 275040, Note_on_c, 4, 43, 61
8, 275880, Note_off_c, 4, 43, 64
8, 277080, Note_on_c, 4, 55, 75
8, 277200, Note_off_c, 4, 55, 64
8, 277200, Note_on_c, 4, 53, 75
8, 277320, Note_off_c, 4, 53, 64
8, 277320, Note_on_c, 4, 55, 75
8, 277440, Note_off_c, 4, 55, 64
8, 277440, Note_on_c, 4, 48, 75
8, 277560, Note_off_c, 4, 48, 64
8, 277560, Note_on_c, 4, 60, 75
8, 277680, Note_off_c, 4, 60, 64
8, 277680, Note_on_c, 4, 58, 75
8, 277800, Note_off_c, 4, 58, 64
8, 277800, Note_on_c, 4, 60, 75
8, 277920, Note_off_c, 4, 60, 64
8, 277920, Note_on_c, 4, 56, 75
8, 278040, Note_off_c, 4, 56, 64
8, 278040, Note_on_c, 4, 60, 75
8, 278160, Note_off_c, 4, 60, 64
8, 278160, Note_on_c, 4, 56, 75
8, 278280, Note_off_c, 4, 56, 64
8, 278280, Note_on_c, 4, 60, 75
8, 278400, Note_off_c, 4, 60, 64
8, 278400, Note_on_c, 4, 56, 75
8, 278520, Note_off_c, 4, 56, 64
8, 278520, Note_on_c, 4, 58, 75
8, 278640, Note_off_c, 4, 58, 64
8, 278640, Note_on_c, 4, 56, 75
8, 278760, Note_off_c, 4, 56, 64
8, 278760, Note_on_c, 4, 58, 75
8, 278875, Note_off_c, 4, 58, 64
8, 278880, Note_on_c, 4, 55, 75
8, 279000, Note_off_c, 4, 55, 64
8, 279000, Note_on_c, 4, 58, 75
8, 279120, Note_off_c, 4, 58, 64
8, 279120, Note_on_c, 4, 55, 75
8, 279240, Note_off_c, 4, 55, 64
8, 279240, Note_on_c, 4, 58, 75
8, 279360, Note_off_c, 4, 58, 64
8, 279360, Note_on_c, 4, 53, 75
8, 279480, Note_off_c, 4, 53, 64
8, 279480, Note_on_c, 4, 56, 75
8, 279600, Note_off_c, 4, 56, 64
8, 279600, Note_on_c, 4, 55, 75
8, 279720, Note_off_c, 4, 55, 64
8, 279720, Note_on_c, 4, 58, 75
8, 279840, Note_off_c, 4, 58, 64
8, 279840, Note_on_c, 4, 56, 75
8, 279960, Note_off_c, 4, 56, 64
8, 279960, Note_on_c, 4, 58, 75
8, 280080, Note_off_c, 4, 58, 64
8, 280080, Note_on_c, 4, 56, 75
8, 280200, Note_off_c, 4, 56, 64
8, 280200, Note_on_c, 4, 58, 75
8, 280315, Note_off_c, 4, 58, 64
8, 280320, Note_on_c, 4, 56, 75
8, 280440, Note_off_c, 4, 56, 64
8, 280440, Note_on_c, 4, 58, 75
8, 280560, Note_off_c, 4, 58, 64
8, 280560, Note_on_c, 4, 56, 75
8, 280680, Note_off_c, 4, 56, 64
8, 280680, Note_on_c, 4, 58, 75
8, 280800, Note_off_c, 4, 58, 64
8, 280800, Note_on_c, 4, 55, 75
8, 280920, Note_off_c, 4, 55, 64
8, 280920, Note_on_c, 4, 56, 75
8, 281040, Note_off_c, 4, 56, 64
8, 281040, Note_on_c, 4, 55, 75
8, 281160, Note_off_c, 4, 55, 64
8, 281160, Note_on_c, 4, 56, 75
8, 281280, Note_off_c, 4, 56, 64
8, 281280, Note_on_c, 4, 55, 75
8, 281400, Note_off_c, 4, 55, 64
8, 281400, Note_on_c, 4, 56, 75
8, 281520, Note_off_c, 4, 56, 64
8, 281520, Note_on_c, 4, 55, 75
8, 281640, Note_off_c, 4, 55, 64
8, 281640, Note_on_c, 4, 58, 75
8, 281755, Note_off_c, 4, 58, 64
8, 281760, Note_on_c, 4, 56, 75
8, 281880, Note_off_c, 4, 56, 64
8, 281880, Note_on_c, 4, 58, 75
8, 282000, Note_off_c, 4, 58, 64
8, 282000, Note_on_c, 4, 56, 75
8, 282120, Note_off_c, 4, 56, 64
8, 282120, Note_on_c, 4, 60, 75
8, 282240, Note_off_c, 4, 60, 64
8, 282240, Note_on_c, 4, 58, 75
8, 282640, Note_off_c, 4, 58, 64
8, 282720, Note_on_c, 4, 46, 75
8, 283560, Note_off_c, 4, 46, 64
8, 283680, Note_on_c, 4, 39, 75
8, 284080, Note_off_c, 4, 39, 64
8, 284280, Note_on_c, 4, 58, 75
8, 284400, Note_off_c, 4, 58, 64
8, 284400, Note_on_c, 4, 56, 75
8, 284520, Note_off_c, 4, 56, 64
8, 284520, Note_on_c, 4, 58, 75
8, 284640, Note_off_c, 4, 58, 64
8, 284640, Note_on_c, 4, 55, 75
8, 285040, Note_off_c, 4, 55, 64
8, 285360, Note_on_c, 4, 55, 75
8, 285600, Note_off_c, 4, 55, 64
8, 285600, Note_on_c, 4, 50, 75
8, 285835, Note_off_c, 4, 50, 64
8, 285840, Note_on_c, 4, 50, 75
8, 286080, Note_off_c, 4, 50, 64
8, 286080, Note_on_c, 4, 51, 75
8, 286480, Note_off_c, 4, 51, 64
8, 286800, Note_on_c, 4, 60, 75
8, 287040, Note_off_c, 4, 60, 64
8, 287040, Note_on_c, 4, 53, 75
8, 287275, Note_off_c, 4, 53, 64
8, 287280, Note_on_c, 4, 53, 75
8, 287520, Note_off_c, 4, 53, 64
8, 287520, Note_on_c, 4, 55, 75
8, 287920, Note_off_c, 4, 55, 64
8, 288240, Note_on_c, 4, 56, 75
8, 288480, Note_off_c, 4, 56, 64
8, 288480, Note_on_c, 4, 51, 75
8, 288715, Note_off_c, 4, 51, 64
8, 288720, Note_on_c, 4, 51, 75
8, 288960, Note_off_c, 4, 51, 64
8, 288960, Note_on_c, 4, 53, 75
8, 289360, Note_off_c, 4, 53, 64
8, 289680, Note_on_c, 4, 55, 75
8, 289920, Note_off_c, 4, 55, 64
8, 289920, Note_on_c, 4, 50, 75
8, 290155, Note_off_c, 4, 50, 64
8, 290160, Note_on_c, 4, 50, 75
8, 290400, Note_off_c, 4, 50, 64
8, 290400, Note_on_c, 4, 51, 75
8, 290800, Note_off_c, 4, 51, 64
8, 291120, Note_on_c, 4, 53, 75
8, 291360, Note_off_c, 4, 53, 64
8, 291360, Note_on_c, 4, 48, 75
8, 291595, Note_off_c, 4, 48, 64
8, 291600, Note_on_c, 4, 48, 75
8, 291840, Note_off_c, 4, 48, 64
8, 291840, Note_on_c, 4, 50, 75
8, 292240, Note_off_c, 4, 50, 64
8, 292320, Note_on_c, 4, 51, 75
8, 292560, Note_off_c, 4, 51, 64
8, 292560, Note_on_c, 4, 46, 75
8, 292795, Note_off_c, 4, 46, 64
8, 292800, Note_on_c, 4, 51, 75
8, 293200, Note_off_c, 4, 51, 64
8, 300480, Note_on_c, 4, 58, 75
8, 300480, Note_on_c, 4, 46, 75
8, 300880, Note_off_c, 4, 46, 64
8, 300880, Note_off_c, 4, 58, 64
8, 300960, Note_on_c, 4, 65, 75
8, 300960, Note_on_c, 4, 53, 75
8, 301800, Note_off_c, 4, 53, 64
8, 301800, Note_off_c, 4, 65, 64
8, 301920, Note_on_c, 4, 62, 75
8, 301920, Note_on_c, 4, 50, 75
8, 302320, Note_off_c, 4, 50, 64
8, 302320, Note_off_c, 4, 62, 64
8, 302400, Note_on_c, 4, 63, 75
8, 302400, Note_on_c, 4, 51, 75
8, 303240, Note_off_c, 4, 51, 64
8, 303240, Note_off_c, 4, 63, 64
8, 303360, Note_on_c, 4, 65, 75
8, 303360, Note_on_c, 4, 53, 75
8, 303760, Note_off_c, 4, 53, 64
8, 303760, Note_off_c, 4, 65, 64
8, 303840, Note_on_c, 4, 67, 75
8, 303840, Note_on_c, 4, 55, 75
8, 304680, Note_off_c, 4, 55, 64
8, 304680, Note_off_c, 4, 67, 64
8, 304800, Note_on_c, 4, 63, 75
8, 304800, Note_on_c, 4, 51, 75
8, 305200, Note_off_c, 4, 51, 64
8, 305200, Note_off_c, 4, 63, 64
8, 305280, Note_on_c, 4, 65, 75
8, 305280, Note_on_c, 4, 53, 75
8, 306120, Note_off_c, 4, 53, 64
8, 306120, Note_off_c, 4, 65, 64
8, 317760, Note_on_c, 4, 43, 92
8, 318160, Note_off_c, 4, 43, 64
8, 318240, Note_on_c, 4, 50, 92
8, 319080, Note_off_c, 4, 50, 64
8, 319200, Note_on_c, 4, 46, 92
8, 319600, Note_off_c, 4, 46, 64
8, 319680, Note_on_c, 4, 48, 92
8, 320520, Note_off_c, 4, 48, 64
8, 320640, Note_on_c, 4, 50, 92
8, 321040, Note_off_c, 4, 50, 64
8, 321120, Note_on_c, 4, 51, 92
8, 321960, Note_off_c, 4, 51, 64
8, 322080, Note_on_c, 4, 48, 92
8, 322480, Note_off_c, 4, 48, 64
8, 322560, Note_on_c, 4, 50, 75
8, 323200, Note_off_c, 4, 50, 64
8, 323280, Note_on_c, 4, 52, 60
8, 323520, Note_off_c, 4, 52, 64
8, 323520, Note_on_c, 4, 54, 60
8, 323760, Note_off_c, 4, 54, 64
8, 323760, Note_on_c, 4, 50, 60
8, 323995, Note_off_c, 4, 50, 64
8, 324000, Note_on_c, 4, 55, 60
8, 324240, Note_off_c, 4, 55, 64
8, 324240, Note_on_c, 4, 55, 60
8, 324480, Note_off_c, 4, 55, 64
8, 324480, Note_on_c, 4, 50, 60
8, 324720, Note_off_c, 4, 50, 64
8, 324720, Note_on_c, 4, 50, 60
8, 324960, Note_off_c, 4, 50, 64
8, 324960, Note_on_c, 4, 51, 60
8, 325200, Note_off_c, 4, 51, 64
8, 325200, Note_on_c, 4, 51, 60
8, 325435, Note_off_c, 4, 51, 64
8, 325440, Note_on_c, 4, 53, 60
8, 325680, Note_off_c, 4, 53, 64
8, 325680, Note_on_c, 4, 53, 60
8, 325920, Note_off_c, 4, 53, 64
8, 325920, Note_on_c, 4, 48, 60
8, 326160, Note_off_c, 4, 48, 64
8, 326160, Note_on_c, 4, 48, 60
8, 326400, Note_off_c, 4, 48, 64
8, 326400, Note_on_c, 4, 50, 60
8, 326640, Note_off_c, 4, 50, 64
8, 326640, Note_on_c, 4, 50, 60
8, 326875, Note_off_c, 4, 50, 64
8, 326880, Note_on_c, 4, 51, 60
8, 327120, Note_off_c, 4, 51, 64
8, 327120, Note_on_c, 4, 51, 60
8, 327360, Note_off_c, 4, 51, 64
8, 327360, Note_on_c, 4, 46, 60
8, 327600, Note_off_c, 4, 46, 64
8, 327600, Note_on_c, 4, 46, 60
8, 327840, Note_off_c, 4, 46, 64
8, 327840, Note_on_c, 4, 48, 60
8, 328080, Note_off_c, 4, 48, 64
8, 328080, Note_on_c, 4, 48, 60
8, 328320, Note_off_c, 4, 48, 64
8, 328320, Note_on_c, 4, 50, 60
8, 328960, Note_off_c, 4, 50, 64
8, 329040, Note_on_c, 4, 50, 60
8, 329280, Note_off_c, 4, 50, 64
8, 329280, Note_on_c, 4, 51, 60
8, 329520, Note_off_c, 4, 51, 64
8, 329520, Note_on_c, 4, 50, 60
8, 329760, Note_off_c, 4, 50, 64
8, 329760, Note_on_c, 4, 48, 60
8, 330240, Note_off_c, 4, 48, 64
8, 330240, Note_on_c, 4, 53, 60
8, 330720, Note_off_c, 4, 53, 64
8, 330720, Note_on_c, 4, 45, 60
8, 331200, Note_off_c, 4, 45, 64
8, 331200, Note_on_c, 4, 46, 60
8, 332040, Note_off_c, 4, 46, 64
8, 332160, Note_on_c, 4, 47, 60
8, 332560, Note_off_c, 4, 47, 64
8, 332640, Note_on_c, 4, 48, 60
8, 332880, Note_off_c, 4, 48, 64
8, 332880, Note_on_c, 4, 44, 60
8, 333115, Note_off_c, 4, 44, 64
8, 333120, Note_on_c, 4, 39, 60
8, 333360, Note_off_c, 4, 39, 64
8, 333360, Note_on_c, 4, 39, 60
8, 333595, Note_off_c, 4, 39, 64
8, 333600, Note_on_c, 4, 41, 60
8, 333840, Note_off_c, 4, 41, 64
8, 333840, Note_on_c, 4, 41, 60
8, 334075, Note_off_c, 4, 41, 64
8, 334080, Note_on_c, 4, 43, 60
8, 334320, Note_off_c, 4, 43, 64
8, 334320, Note_on_c, 4, 45, 60
8, 334555, Note_off_c, 4, 45, 64
8, 334560, Note_on_c, 4, 47, 60
8, 334800, Note_off_c, 4, 47, 64
8, 334800, Note_on_c, 4, 43, 60
8, 335035, Note_off_c, 4, 43, 64
8, 335040, Note_on_c, 4, 48, 60
8, 335280, Note_off_c, 4, 48, 64
8, 335280, Note_on_c, 4, 47, 60
8, 335515, Note_off_c, 4, 47, 64
8, 335520, Note_on_c, 4, 44, 60
8, 335760, Note_off_c, 4, 44, 64
8, 335760, Note_on_c, 4, 48, 60
8, 335995, Note_off_c, 4, 48, 64
8, 336000, Note_on_c, 4, 41, 60
8, 336240, Note_off_c, 4, 41, 64
8, 336240, Note_on_c, 4, 53, 60
8, 336475, Note_off_c, 4, 53, 64
8, 336480, Note_on_c, 4, 44, 60
8, 336720, Note_off_c, 4, 44, 64
8, 336720, Note_on_c, 4, 53, 60
8, 336960, Note_off_c, 4, 53, 64
8, 336960, Note_on_c, 4, 43, 60
8, 337195, Note_off_c, 4, 43, 64
8, 337200, Note_on_c, 4, 51, 60
8, 337440, Note_off_c, 4, 51, 64
8, 337440, Note_on_c, 4, 47, 60
8, 337675, Note_off_c, 4, 47, 64
8, 337680, Note_on_c, 4, 47, 60
8, 337920, Note_off_c, 4, 47, 64
8, 337920, Note_on_c, 4, 48, 60
8, 338320, Note_off_c, 4, 48, 64
8, 338640, Note_on_c, 4, 56, 60
8, 338880, Note_off_c, 4, 56, 64
8, 338880, Note_on_c, 4, 50, 60
8, 339115, Note_off_c, 4, 50, 64
8, 339120, Note_on_c, 4, 50, 60
8, 339360, Note_off_c, 4, 50, 64
8, 339360, Note_on_c, 4, 52, 60
8, 339760, Note_off_c, 4, 52, 64
8, 340080, Note_on_c, 4, 53, 60
8, 340320, Note_off_c, 4, 53, 64
8, 340320, Note_on_c, 4, 48, 60
8, 340555, Note_off_c, 4, 48, 64
8, 340560, Note_on_c, 4, 48, 60
8, 340795, Note_off_c, 4, 48, 64
8, 340800, Note_on_c, 4, 50, 60
8, 341200, Note_off_c, 4, 50, 64
8, 341280, Note_on_c, 4, 51, 60
8, 341680, Note_off_c, 4, 51, 64
8, 341760, Note_on_c, 4, 56, 60
8, 342160, Note_off_c, 4, 56, 64
8, 342240, Note_on_c, 4, 58, 60
8, 342640, Note_off_c, 4, 58, 64
8, 342720, Note_on_c, 4, 51, 60
8, 343120, Note_off_c, 4, 51, 64
8, 343200, Note_on_c, 4, 53, 60
8, 343600, Note_off_c, 4, 53, 64
8, 343680, Note_on_c, 4, 55, 60
8, 344080, Note_off_c, 4, 55, 64
8, 344160, Note_on_c, 4, 48, 60
8, 344280, Note_off_c, 4, 48, 64
8, 344280, Note_on_c, 4, 51, 60
8, 344400, Note_off_c, 4, 51, 64
8, 344400, Note_on_c, 4, 50, 60
8, 344520, Note_off_c, 4, 50, 64
8, 344520, Note_on_c, 4, 53, 60
8, 344640, Note_off_c, 4, 53, 64
8, 344640, Note_on_c, 4, 51, 60
8, 344760, Note_off_c, 4, 51, 64
8, 344760, Note_on_c, 4, 55, 60
8, 344880, Note_off_c, 4, 55, 64
8, 344880, Note_on_c, 4, 53, 60
8, 345000, Note_off_c, 4, 53, 64
8, 345000, Note_on_c, 4, 57, 60
8, 345115, Note_off_c, 4, 57, 64
8, 345120, Note_on_c, 4, 55, 60
8, 345240, Note_off_c, 4, 55, 64
8, 345240, Note_on_c, 4, 58, 60
8, 345360, Note_off_c, 4, 58, 64
8, 345360, Note_on_c, 4, 57, 60
8, 345480, Note_off_c, 4, 57, 64
8, 345480, Note_on_c, 4, 60, 60
8, 345600, Note_off_c, 4, 60, 64
8, 345600, Note_on_c, 4, 58, 60
8, 345835, Note_off_c, 4, 58, 64
8, 346800, Note_on_c, 4, 51, 60
8, 347035, Note_off_c, 4, 51, 64
8, 347040, Note_on_c, 4, 44, 60
8, 347160, Note_off_c, 4, 44, 64
8, 347160, Note_on_c, 4, 48, 60
8, 347280, Note_off_c, 4, 48, 64
8, 347280, Note_on_c, 4, 46, 60
8, 347400, Note_off_c, 4, 46, 64
8, 347400, Note_on_c, 4, 50, 60
8, 347520, Note_off_c, 4, 50, 64
8, 347520, Note_on_c, 4, 48, 60
8, 347640, Note_off_c, 4, 48, 64
8, 347640, Note_on_c, 4, 51, 60
8, 347760, Note_off_c, 4, 51, 64
8, 347760, Note_on_c, 4, 50, 60
8, 347880, Note_off_c, 4, 50, 64
8, 347880, Note_on_c, 4, 53, 60
8, 347995, Note_off_c, 4, 53, 64
8, 348000, Note_on_c, 4, 51, 60
8, 348120, Note_off_c, 4, 51, 64
8, 348120, Note_on_c, 4, 55, 60
8, 348240, Note_off_c, 4, 55, 64
8, 348240, Note_on_c, 4, 53, 60
8, 348360, Note_off_c, 4, 53, 64
8, 348360, Note_on_c, 4, 56, 60
8, 348480, Note_off_c, 4, 56, 64
8, 348480, Note_on_c, 4, 55, 60
8, 348715, Note_off_c, 4, 55, 64
8, 349680, Note_on_c, 4, 48, 60
8, 349915, Note_off_c, 4, 48, 64
8, 349920, Note_on_c, 4, 41, 60
8, 350040, Note_off_c, 4, 41, 64
8, 350040, Note_on_c, 4, 44, 60
8, 350160, Note_off_c, 4, 44, 64
8, 350160, Note_on_c, 4, 43, 60
8, 350280, Note_off_c, 4, 43, 64
8, 350280, Note_on_c, 4, 46, 60
8, 350400, Note_off_c, 4, 46, 64
8, 350400, Note_on_c, 4, 44, 60
8, 350520, Note_off_c, 4, 44, 64
8, 350520, Note_on_c, 4, 48, 60
8, 350640, Note_off_c, 4, 48, 64
8, 350640, Note_on_c, 4, 46, 60
8, 350760, Note_off_c, 4, 46, 64
8, 350760, Note_on_c, 4, 50, 60
8, 350880, Note_off_c, 4, 50, 64
8, 350880, Note_on_c, 4, 48, 60
8, 351000, Note_off_c, 4, 48, 64
8, 351000, Note_on_c, 4, 51, 60
8, 351120, Note_off_c, 4, 51, 64
8, 351120, Note_on_c, 4, 50, 60
8, 351240, Note_off_c, 4, 50, 64
8, 351240, Note_on_c, 4, 53, 60
8, 351360, Note_off_c, 4, 53, 64
8, 351360, Note_on_c, 4, 51, 60
8, 351955, Note_off_c, 4, 51, 64
8, 351960, Note_on_c, 4, 53, 60
8, 352080, Note_off_c, 4, 53, 64
8, 352080, Note_on_c, 4, 50, 60
8, 352200, Note_off_c, 4, 50, 64
8, 352200, Note_on_c, 4, 51, 60
8, 352320, Note_off_c, 4, 51, 64
8, 352320, Note_on_c, 4, 48, 60
8, 352720, Note_off_c, 4, 48, 64
8, 352800, Note_on_c, 4, 50, 60
8, 353395, Note_off_c, 4, 50, 64
8, 353400, Note_on_c, 4, 51, 69
8, 353520, Note_off_c, 4, 51, 64
8, 353520, Note_on_c, 4, 48, 71
8, 353640, Note_off_c, 4, 48, 64
8, 353640, Note_on_c, 4, 50, 73
8, 353755, Note_off_c, 4, 50, 64
8, 353760, Note_on_c, 4, 46, 75
8, 354240, Note_off_c, 4, 46, 64
8, 354240, Note_on_c, 4, 42, 75
8, 354475, Note_off_c, 4, 42, 64
8, 354480, Note_on_c, 4, 42, 75
8, 354720, Note_off_c, 4, 42, 64
8, 354720, Note_on_c, 4, 38, 75
8, 354835, Note_off_c, 4, 38, 64
8, 354840, Note_on_c, 4, 50, 75
8, 354960, Note_off_c, 4, 50, 64
8, 354960, Note_on_c, 4, 48, 75
8, 355080, Note_off_c, 4, 48, 64
8, 355080, Note_on_c, 4, 50, 75
8, 355200, Note_off_c, 4, 50, 64
8, 355200, Note_on_c, 4, 43, 75
8, 355315, Note_off_c, 4, 43, 64
8, 355320, Note_on_c, 4, 55, 75
8, 355440, Note_off_c, 4, 55, 64
8, 355440, Note_on_c, 4, 53, 75
8, 355560, Note_off_c, 4, 53, 64
8, 355560, Note_on_c, 4, 55, 75
8, 355680, Note_off_c, 4, 55, 64
8, 355680, Note_on_c, 4, 51, 75
8, 355800, Note_off_c, 4, 51, 64
8, 355800, Note_on_c, 4, 55, 75
8, 355920, Note_off_c, 4, 55, 64
8, 355920, Note_on_c, 4, 51, 75
8, 356040, Note_off_c, 4, 51, 64
8, 356040, Note_on_c, 4, 55, 75
8, 356160, Note_off_c, 4, 55, 64
8, 356160, Note_on_c, 4, 51, 75
8, 356280, Note_off_c, 4, 51, 64
8, 356280, Note_on_c, 4, 53, 75
8, 356400, Note_off_c, 4, 53, 64
8, 356400, Note_on_c, 4, 51, 75
8, 356520, Note_off_c, 4, 51, 64
8, 356520, Note_on_c, 4, 53, 75
8, 356635, Note_off_c, 4, 53, 64
8, 356640, Note_on_c, 4, 50, 75
8, 356760, Note_off_c, 4, 50, 64
8, 356760, Note_on_c, 4, 53, 75
8, 356880, Note_off_c, 4, 53, 64
8, 356880, Note_on_c, 4, 50, 75
8, 357000, Note_off_c, 4, 50, 64
8, 357000, Note_on_c, 4, 53, 75
8, 357120, Note_off_c, 4, 53, 64
8, 357120, Note_on_c, 4, 48, 75
8, 357240, Note_off_c, 4, 48, 64
8, 357240, Note_on_c, 4, 51, 75
8, 357360, Note_off_c, 4, 51, 64
8, 357360, Note_on_c, 4, 50, 75
8, 357480, Note_off_c, 4, 50, 64
8, 357480, Note_on_c, 4, 53, 75
8, 357600, Note_off_c, 4, 53, 64
8, 357600, Note_on_c, 4, 51, 75
8, 357720, Note_off_c, 4, 51, 64
8, 357720, Note_on_c, 4, 53, 75
8, 357840, Note_off_c, 4, 53, 64
8, 357840, Note_on_c, 4, 51, 75
8, 357960, Note_off_c, 4, 51, 64
8, 357960, Note_on_c, 4, 53, 75
8, 358080, Note_off_c, 4, 53, 64
8, 358080, Note_on_c, 4, 51, 75
8, 358200, Note_off_c, 4, 51, 64
8, 358200, Note_on_c, 4, 53, 75
8, 358320, Note_off_c, 4, 53, 64
8, 358320, Note_on_c, 4, 51, 75
8, 358440, Note_off_c, 4, 51, 64
8, 358440, Note_on_c, 4, 53, 75
8, 358555, Note_off_c, 4, 53, 64
8, 358560, Note_on_c, 4, 58, 75
8, 358800, Note_off_c, 4, 58, 64
8, 358800, Note_on_c, 4, 57, 75
8, 358920, Note_off_c, 4, 57, 64
8, 358920, Note_on_c, 4, 55, 75
8, 359040, Note_off_c, 4, 55, 64
8, 359040, Note_on_c, 4, 57, 75
8, 359160, Note_off_c, 4, 57, 64
8, 359160, Note_on_c, 4, 62, 75
8, 359280, Note_off_c, 4, 62, 64
8, 359280, Note_on_c, 4, 60, 75
8, 359400, Note_off_c, 4, 60, 64
8, 359400, Note_on_c, 4, 62, 75
8, 359515, Note_off_c, 4, 62, 64
8, 359520, Note_on_c, 4, 58, 75
8, 359760, Note_off_c, 4, 58, 64
8, 359760, Note_on_c, 4, 59, 75
8, 360000, Note_off_c, 4, 59, 64
8, 360000, Note_on_c, 4, 60, 75
8, 360640, Note_off_c, 4, 60, 64
8, 360720, Note_on_c, 4, 62, 75
8, 361200, Note_off_c, 4, 62, 64
8, 361200, Note_on_c, 4, 58, 75
8, 361680, Note_off_c, 4, 58, 64
8, 361680, Note_on_c, 4, 57, 75
8, 362160, Note_off_c, 4, 57, 64
8, 362160, Note_on_c, 4, 55, 75
8, 362640, Note_off_c, 4, 55, 64
8, 362640, Note_on_c, 4, 54, 75
8, 362875, Note_off_c, 4, 54, 64
8, 362880, Note_on_c, 4, 55, 75
8, 363475, Note_off_c, 4, 55, 64
8, 363480, Note_on_c, 4, 58, 75
8, 363600, Note_off_c, 4, 58, 64
8, 363600, Note_on_c, 4, 57, 75
8, 363720, Note_off_c, 4, 57, 64
8, 363720, Note_on_c, 4, 55, 75
8, 363840, Note_off_c, 4, 55, 64
8, 363840, Note_on_c, 4, 54, 75
8, 364200, Note_off_c, 4, 54, 64
8, 364200, Note_on_c, 4, 55, 75
8, 364320, Note_off_c, 4, 55, 64
8, 364320, Note_on_c, 4, 55, 75
8, 365040, Note_off_c, 4, 55, 64
8, 365040, Note_on_c, 4, 57, 75
8, 365280, Note_off_c, 4, 57, 64
8, 365280, Note_on_c, 4, 59, 75
8, 365680, Note_off_c, 4, 59, 64
8, 365760, Note_on_c, 4, 48, 75
8, 366480, Note_off_c, 4, 48, 64
8, 366480, Note_on_c, 4, 50, 75
8, 366720, Note_off_c, 4, 50, 64
8, 366720, Note_on_c, 4, 52, 75
8, 366960, Note_off_c, 4, 52, 64
8, 366960, Note_on_c, 4, 48, 75
8, 367195, Note_off_c, 4, 48, 64
8, 367200, Note_on_c, 4, 53, 75
8, 368040, Note_off_c, 4, 53, 64
8, 368160, Note_on_c, 4, 41, 92
8, 368560, Note_off_c, 4, 41, 64
8, 368880, Note_on_c, 4, 56, 92
8, 369120, Note_off_c, 4, 56, 64
8, 369120, Note_on_c, 4, 52, 92
8, 369355, Note_off_c, 4, 52, 64
8, 369360, Note_on_c, 4, 52, 92
8, 369600, Note_off_c, 4, 52, 64
8, 369600, Note_on_c, 4, 53, 92
8, 370000, Note_off_c, 4, 53, 64
8, 370320, Note_on_c, 4, 61, 92
8, 370560, Note_off_c, 4, 61, 64
8, 370560, Note_on_c, 4, 55, 92
8, 370795, Note_off_c, 4, 55, 64
8, 370800, Note_on_c, 4, 55, 92
8, 371040, Note_off_c, 4, 55, 64
8, 371040, Note_on_c, 4, 57, 92
8, 371440, Note_off_c, 4, 57, 64
8, 371760, Note_on_c, 4, 58, 92
8, 372000, Note_off_c, 4, 58, 64
8, 372000, Note_on_c, 4, 53, 92
8, 372235, Note_off_c, 4, 53, 64
8, 372240, Note_on_c, 4, 53, 92
8, 372480, Note_off_c, 4, 53, 64
8, 372480, Note_on_c, 4, 55, 92
8, 372880, Note_off_c, 4, 55, 64
8, 372960, Note_on_c, 4, 48, 92
8, 373555, Note_off_c, 4, 48, 64
8, 373560, Note_on_c, 4, 52, 92
8, 373680, Note_off_c, 4, 52, 64
8, 373680, Note_on_c, 4, 50, 92
8, 373800, Note_off_c, 4, 50, 64
8, 373800, Note_on_c, 4, 53, 92
8, 373920, Note_off_c, 4, 53, 64
8, 373920, Note_on_c, 4, 52, 92
8, 374040, Note_off_c, 4, 52, 64
8, 374040, Note_on_c, 4, 55, 92
8, 374160, Note_off_c, 4, 55, 64
8, 374160, Note_on_c, 4, 52, 92
8, 374280, Note_off_c, 4, 52, 64
8, 374280, Note_on_c, 4, 55, 92
8, 374395, Note_off_c, 4, 55, 64
8, 374400, Note_on_c, 4, 44, 92
8, 374800, Note_off_c, 4, 44, 64
8, 375000, Note_on_c, 4, 48, 92
8, 375120, Note_off_c, 4, 48, 64
8, 375120, Note_on_c, 4, 46, 92
8, 375240, Note_off_c, 4, 46, 64
8, 375240, Note_on_c, 4, 49, 92
8, 375360, Note_off_c, 4, 49, 64
8, 375360, Note_on_c, 4, 48, 92
8, 375480, Note_off_c, 4, 48, 64
8, 375480, Note_on_c, 4, 49, 92
8, 375600, Note_off_c, 4, 49, 64
8, 375600, Note_on_c, 4, 48, 92
8, 375720, Note_off_c, 4, 48, 64
8, 375720, Note_on_c, 4, 49, 92
8, 375835, Note_off_c, 4, 49, 64
8, 375840, Note_on_c, 4, 38, 92
8, 376320, Note_off_c, 4, 38, 64
8, 376320, Note_on_c, 4, 40, 92
8, 376915, Note_off_c, 4, 40, 64
8, 376920, Note_on_c, 4, 52, 92
8, 377040, Note_off_c, 4, 52, 64
8, 377040, Note_on_c, 4, 50, 92
8, 377160, Note_off_c, 4, 50, 64
8, 377160, Note_on_c, 4, 52, 92
8, 377280, Note_off_c, 4, 52, 64
8, 377280, Note_on_c, 4, 41, 92
8, 377680, Note_off_c, 4, 41, 64
8, 377880, Note_on_c, 4, 53, 92
8, 378000, Note_off_c, 4, 53, 64
8, 378000, Note_on_c, 4, 51, 92
8, 378120, Note_off_c, 4, 51, 64
8, 378120, Note_on_c, 4, 53, 92
8, 378240, Note_off_c, 4, 53, 64
8, 378240, Note_on_c, 4, 48, 92
8, 378720, Note_off_c, 4, 48, 64
8, 378720, Note_on_c, 4, 50, 92
8, 379560, Note_off_c, 4, 50, 64
8, 379800, Note_on_c, 4, 51, 92
8, 379920, Note_off_c, 4, 51, 64
8, 379920, Note_on_c, 4, 50, 92
8, 380040, Note_off_c, 4, 50, 64
8, 380040, Note_on_c, 4, 51, 92
8, 380160, Note_off_c, 4, 51, 64
8, 380160, Note_on_c, 4, 48, 92
8, 380640, Note_off_c, 4, 48, 64
8, 380640, Note_on_c, 4, 50, 92
8, 381040, Note_off_c, 4, 50, 64
8, 381240, Note_on_c, 4, 51, 92
8, 381360, Note_off_c, 4, 51, 64
8, 381360, Note_on_c, 4, 50, 92
8, 381480, Note_off_c, 4, 50, 64
8, 381480, Note_on_c, 4, 51, 92
8, 381600, Note_off_c, 4, 51, 64
8, 381600, Note_on_c, 4, 48, 92
8, 382080, Note_off_c, 4, 48, 64
8, 382080, Note_on_c, 4, 50, 92
8, 382480, Note_off_c, 4, 50, 64
8, 382680, Note_on_c, 4, 51, 92
8, 382800, Note_off_c, 4, 51, 64
8, 382800, Note_on_c, 4, 50, 92
8, 382920, Note_off_c, 4, 50, 64
8, 382920, Note_on_c, 4, 51, 92
8, 383040, Note_off_c, 4, 51, 64
8, 383040, Note_on_c, 4, 48, 92
8, 383440, Note_off_c, 4, 48, 64
8, 383520, Note_on_c, 4, 50, 92
8, 384000, Note_off_c, 4, 50, 64
8, 384000, Note_on_c, 4, 38, 92
8, 384400, Note_off_c, 4, 38, 64
8, 384480, Note_on_c, 4, 43, 92
8, 384720, Note_off_c, 4, 43, 64
8, 384720, Note_on_c, 4, 45, 92
8, 384960, Note_off_c, 4, 45, 64
8, 384960, Note_on_c, 4, 47, 92
8, 385200, Note_off_c, 4, 47, 64
8, 385200, Note_on_c, 4, 48, 92
8, 385440, Note_off_c, 4, 48, 64
8, 385440, Note_on_c, 4, 50, 92
8, 385680, Note_off_c, 4, 50, 64
8, 385680, Note_on_c, 4, 47, 92
8, 385920, Note_off_c, 4, 47, 64
8, 385920, Note_on_c, 4, 48, 92
8, 386320, Note_off_c, 4, 48, 64
8, 387120, Note_on_c, 4, 48, 92
8, 387355, Note_off_c, 4, 48, 64
8, 387360, Note_on_c, 4, 53, 92
8, 387480, Note_off_c, 4, 53, 64
8, 387480, Note_on_c, 4, 56, 92
8, 387600, Note_off_c, 4, 56, 64
8, 387600, Note_on_c, 4, 55, 92
8, 387720, Note_off_c, 4, 55, 64
8, 387720, Note_on_c, 4, 58, 92
8, 387840, Note_off_c, 4, 58, 64
8, 387840, Note_on_c, 4, 56, 92
8, 387960, Note_off_c, 4, 56, 64
8, 387960, Note_on_c, 4, 60, 92
8, 388080, Note_off_c, 4, 60, 64
8, 388080, Note_on_c, 4, 55, 92
8, 388200, Note_off_c, 4, 55, 64
8, 388200, Note_on_c, 4, 58, 92
8, 388315, Note_off_c, 4, 58, 64
8, 388320, Note_on_c, 4, 53, 92
8, 388440, Note_off_c, 4, 53, 64
8, 388440, Note_on_c, 4, 56, 92
8, 388560, Note_off_c, 4, 56, 64
8, 388560, Note_on_c, 4, 51, 92
8, 388680, Note_off_c, 4, 51, 64
8, 388680, Note_on_c, 4, 55, 92
8, 388800, Note_off_c, 4, 55, 64
8, 388800, Note_on_c, 4, 50, 92
8, 388920, Note_off_c, 4, 50, 64
8, 388920, Note_on_c, 4, 53, 92
8, 389040, Note_off_c, 4, 53, 64
8, 389040, Note_on_c, 4, 51, 92
8, 389160, Note_off_c, 4, 51, 64
8, 389160, Note_on_c, 4, 55, 92
8, 389280, Note_off_c, 4, 55, 64
8, 389280, Note_on_c, 4, 53, 92
8, 389400, Note_off_c, 4, 53, 64
8, 389400, Note_on_c, 4, 56, 92
8, 389520, Note_off_c, 4, 56, 64
8, 389520, Note_on_c, 4, 51, 92
8, 389640, Note_off_c, 4, 51, 64
8, 389640, Note_on_c, 4, 55, 92
8, 389755, Note_off_c, 4, 55, 64
8, 389760, Note_on_c, 4, 50, 92
8, 389880, Note_off_c, 4, 50, 64
8, 389880, Note_on_c, 4, 53, 92
8, 390000, Note_off_c, 4, 53, 64
8, 390000, Note_on_c, 4, 48, 92
8, 390120, Note_off_c, 4, 48, 64
8, 390120, Note_on_c, 4, 51, 92
8, 390240, Note_off_c, 4, 51, 64
8, 390240, Note_on_c, 4, 47, 92
8, 390640, Note_off_c, 4, 47, 64
8, 390720, Note_on_c, 4, 48, 92
8, 391120, Note_off_c, 4, 48, 64
8, 391200, Note_on_c, 4, 44, 92
8, 391600, Note_off_c, 4, 44, 64
8, 391680, Note_on_c, 4, 43, 92
8, 392080, Note_off_c, 4, 43, 64
8, 392280, Note_on_c, 4, 55, 92
8, 392400, Note_off_c, 4, 55, 64
8, 392400, Note_on_c, 4, 53, 92
8, 392520, Note_off_c, 4, 53, 64
8, 392520, Note_on_c, 4, 55, 92
8, 392640, Note_off_c, 4, 55, 64
8, 392640, Note_on_c, 4, 48, 92
8, 392755, Note_off_c, 4, 48, 64
8, 392760, Note_on_c, 4, 60, 92
8, 392880, Note_off_c, 4, 60, 64
8, 392880, Note_on_c, 4, 58, 92
8, 393000, Note_off_c, 4, 58, 64
8, 393000, Note_on_c, 4, 60, 92
8, 393120, Note_off_c, 4, 60, 64
8, 393120, Note_on_c, 4, 56, 92
8, 393240, Note_off_c, 4, 56, 64
8, 393240, Note_on_c, 4, 60, 92
8, 393360, Note_off_c, 4, 60, 64
8, 393360, Note_on_c, 4, 56, 92
8, 393480, Note_off_c, 4, 56, 64
8, 393480, Note_on_c, 4, 60, 92
8, 393600, Note_off_c, 4, 60, 64
8, 393600, Note_on_c, 4, 56, 92
8, 393720, Note_off_c, 4, 56, 64
8, 393720, Note_on_c, 4, 58, 92
8, 393840, Note_off_c, 4, 58, 64
8, 393840, Note_on_c, 4, 56, 92
8, 393960, Note_off_c, 4, 56, 64
8, 393960, Note_on_c, 4, 58, 92
8, 394075, Note_off_c, 4, 58, 64
8, 394080, Note_on_c, 4, 55, 92
8, 394200, Note_off_c, 4, 55, 64
8, 394200, Note_on_c, 4, 58, 92
8, 394320, Note_off_c, 4, 58, 64
8, 394320, Note_on_c, 4, 55, 92
8, 394440, Note_off_c, 4, 55, 64
8, 394440, Note_on_c, 4, 58, 92
8, 394560, Note_off_c, 4, 58, 64
8, 394560, Note_on_c, 4, 53, 92
8, 394680, Note_off_c, 4, 53, 64
8, 394680, Note_on_c, 4, 56, 92
8, 394800, Note_off_c, 4, 56, 64
8, 394800, Note_on_c, 4, 55, 92
8, 394920, Note_off_c, 4, 55, 64
8, 394920, Note_on_c, 4, 58, 92
8, 395040, Note_off_c, 4, 58, 64
8, 395040, Note_on_c, 4, 56, 92
8, 395160, Note_off_c, 4, 56, 64
8, 395160, Note_on_c, 4, 58, 92
8, 395280, Note_off_c, 4, 58, 64
8, 395280, Note_on_c, 4, 56, 92
8, 395400, Note_off_c, 4, 56, 64
8, 395400, Note_on_c, 4, 58, 92
8, 395515, Note_off_c, 4, 58, 64
8, 395520, Note_on_c, 4, 56, 92
8, 395640, Note_off_c, 4, 56, 64
8, 395640, Note_on_c, 4, 58, 92
8, 395760, Note_off_c, 4, 58, 64
8, 395760, Note_on_c, 4, 56, 92
8, 395880, Note_off_c, 4, 56, 64
8, 395880, Note_on_c, 4, 58, 92
8, 395995, Note_off_c, 4, 58, 64
8, 396000, Note_on_c, 4, 55, 92
8, 397555, Note_off_c, 4, 55, 64
8, 397560, Note_on_c, 4, 59, 92
8, 397680, Note_off_c, 4, 59, 64
8, 397680, Note_on_c, 4, 55, 92
8, 397800, Note_off_c, 4, 55, 64
8, 397800, Note_on_c, 4, 59, 92
8, 397920, Note_off_c, 4, 59, 64
8, 397920, Note_on_c, 4, 51, 92
8, 398040, Note_off_c, 4, 51, 64
8, 398040, Note_on_c, 4, 55, 92
8, 398160, Note_off_c, 4, 55, 64
8, 398160, Note_on_c, 4, 51, 92
8, 398280, Note_off_c, 4, 51, 64
8, 398280, Note_on_c, 4, 55, 92
8, 398395, Note_off_c, 4, 55, 64
8, 398400, Note_on_c, 4, 48, 92
8, 398520, Note_off_c, 4, 48, 64
8, 398520, Note_on_c, 4, 51, 92
8, 398640, Note_off_c, 4, 51, 64
8, 398640, Note_on_c, 4, 48, 92
8, 398760, Note_off_c, 4, 48, 64
8, 398760, Note_on_c, 4, 51, 92
8, 398880, Note_off_c, 4, 51, 64
8, 398880, Note_on_c, 4, 53, 92
8, 399000, Note_off_c, 4, 53, 64
8, 399000, Note_on_c, 4, 56, 92
8, 399120, Note_off_c, 4, 56, 64
8, 399120, Note_on_c, 4, 53, 92
8, 399240, Note_off_c, 4, 53, 64
8, 399240, Note_on_c, 4, 56, 92
8, 399360, Note_off_c, 4, 56, 64
8, 399360, Note_on_c, 4, 50, 92
8, 399480, Note_off_c, 4, 50, 64
8, 399480, Note_on_c, 4, 53, 92
8, 399600, Note_off_c, 4, 53, 64
8, 399600, Note_on_c, 4, 50, 92
8, 399720, Note_off_c, 4, 50, 64
8, 399720, Note_on_c, 4, 53, 92
8, 399835, Note_off_c, 4, 53, 64
8, 399840, Note_on_c, 4, 47, 92
8, 399960, Note_off_c, 4, 47, 64
8, 399960, Note_on_c, 4, 50, 92
8, 400080, Note_off_c, 4, 50, 64
8, 400080, Note_on_c, 4, 47, 92
8, 400200, Note_off_c, 4, 47, 64
8, 400200, Note_on_c, 4, 50, 92
8, 400320, Note_off_c, 4, 50, 64
8, 400320, Note_on_c, 4, 51, 92
8, 400440, Note_off_c, 4, 51, 64
8, 400440, Note_on_c, 4, 55, 92
8, 400560, Note_off_c, 4, 55, 64
8, 400560, Note_on_c, 4, 51, 92
8, 400680, Note_off_c, 4, 51, 64
8, 400680, Note_on_c, 4, 55, 92
8, 400800, Note_off_c, 4, 55, 64
8, 400800, Note_on_c, 4, 48, 92
8, 400920, Note_off_c, 4, 48, 64
8, 400920, Note_on_c, 4, 51, 92
8, 401040, Note_off_c, 4, 51, 64
8, 401040, Note_on_c, 4, 48, 92
8, 401160, Note_off_c, 4, 48, 64
8, 401160, Note_on_c, 4, 51, 92
8, 401275, Note_off_c, 4, 51, 64
8, 401280, Note_on_c, 4, 45, 92
8, 401400, Note_off_c, 4, 45, 64
8, 401400, Note_on_c, 4, 48, 92
8, 401520, Note_off_c, 4, 48, 64
8, 401520, Note_on_c, 4, 45, 92
8, 401640, Note_off_c, 4, 45, 64
8, 401640, Note_on_c, 4, 48, 92
8, 401760, Note_off_c, 4, 48, 64
8, 401760, Note_on_c, 4, 50, 92
8, 401880, Note_off_c, 4, 50, 64
8, 401880, Note_on_c, 4, 53, 92
8, 402000, Note_off_c, 4, 53, 64
8, 402000, Note_on_c, 4, 50, 92
8, 402120, Note_off_c, 4, 50, 64
8, 402120, Note_on_c, 4, 53, 92
8, 402240, Note_off_c, 4, 53, 64
8, 402240, Note_on_c, 4, 47, 92
8, 402360, Note_off_c, 4, 47, 64
8, 402360, Note_on_c, 4, 50, 92
8, 402480, Note_off_c, 4, 50, 64
8, 402480, Note_on_c, 4, 47, 92
8, 402600, Note_off_c, 4, 47, 64
8, 402600, Note_on_c, 4, 50, 92
8, 402715, Note_off_c, 4, 50, 64
8, 402720, Note_on_c, 4, 43, 92
8, 402840, Note_off_c, 4, 43, 64
8, 402840, Note_on_c, 4, 47, 92
8, 402960, Note_off_c, 4, 47, 64
8, 402960, Note_on_c, 4, 43, 92
8, 403080, Note_off_c, 4, 43, 64
8, 403080, Note_on_c, 4, 47, 92
8, 403200, Note_off_c, 4, 47, 64
8, 403200, Note_on_c, 4, 48, 92
8, 403320, Note_off_c, 4, 48, 64
8, 403320, Note_on_c, 4, 51, 92
8, 403440, Note_off_c, 4, 51, 64
8, 403440, Note_on_c, 4, 48, 92
8, 403560, Note_off_c, 4, 48, 64
8, 403560, Note_on_c, 4, 51, 92
8, 403680, Note_off_c, 4, 51, 64
8, 403680, Note_on_c, 4, 44, 92
8, 403800, Note_off_c, 4, 44, 64
8, 403800, Note_on_c, 4, 48, 92
8, 403920, Note_off_c, 4, 48, 64
8, 403920, Note_on_c, 4, 44, 92
8, 404040, Note_off_c, 4, 44, 64
8, 404040, Note_on_c, 4, 48, 92
8, 404155, Note_off_c, 4, 48, 64
8, 404160, Note_on_c, 4, 41, 92
8, 404280, Note_off_c, 4, 41, 64
8, 404280, Note_on_c, 4, 44, 92
8, 404400, Note_off_c, 4, 44, 64
8, 404400, Note_on_c, 4, 41, 92
8, 404520, Note_off_c, 4, 41, 64
8, 404520, Note_on_c, 4, 44, 92
8, 404640, Note_off_c, 4, 44, 64
8, 404640, Note_on_c, 4, 43, 92
8, 405040, Note_off_c, 4, 43, 64
8, 405120, Note_on_c, 4, 43, 92
8, 405355, Note_off_c, 4, 43, 64
8, 405360, Note_on_c, 4, 46, 92
8, 405480, Note_off_c, 4, 46, 64
8, 405480, Note_on_c, 4, 43, 92
8, 405600, Note_off_c, 4, 43, 64
8, 405600, Note_on_c, 4, 48, 92
8, 405720, Note_off_c, 4, 48, 64
8, 405720, Note_on_c, 4, 43, 92
8, 405840, Note_off_c, 4, 43, 64
8, 405840, Note_on_c, 4, 51, 92
8, 405960, Note_off_c, 4, 51, 64
8, 405960, Note_on_c, 4, 48, 92
8, 406080, Note_off_c, 4, 48, 64
8, 406080, Note_on_c, 4, 55, 92
8, 406480, Note_off_c, 4, 55, 64
8, 406680, Note_on_c, 4, 55, 92
8, 406800, Note_off_c, 4, 55, 64
8, 406800, Note_on_c, 4, 53, 92
8, 406920, Note_off_c, 4, 53, 64
8, 406920, Note_on_c, 4, 55, 92
8, 407040, Note_off_c, 4, 55, 64
8, 407040, Note_on_c, 4, 51, 92
8, 407160, Note_off_c, 4, 51, 64
8, 407160, Note_on_c, 4, 55, 92
8, 407280, Note_off_c, 4, 55, 64
8, 407280, Note_on_c, 4, 48, 92
8, 407400, Note_off_c, 4, 48, 64
8, 407400, Note_on_c, 4, 51, 92
8, 407520, Note_off_c, 4, 51, 64
8, 407520, Note_on_c, 4, 47, 92
8, 407920, Note_off_c, 4, 47, 64
8, 408120, Note_on_c, 4, 55, 92
8, 408240, Note_off_c, 4, 55, 64
8, 408240, Note_on_c, 4, 53, 92
8, 408360, Note_off_c, 4, 53, 64
8, 408360, Note_on_c, 4, 55, 92
8, 408480, Note_off_c, 4, 55, 64
8, 408480, Note_on_c, 4, 51, 92
8, 408600, Note_off_c, 4, 51, 64
8, 408600, Note_on_c, 4, 55, 92
8, 408720, Note_off_c, 4, 55, 64
8, 408720, Note_on_c, 4, 48, 92
8, 408840, Note_off_c, 4, 48, 64
8, 408840, Note_on_c, 4, 51, 92
8, 408960, Note_off_c, 4, 51, 64
8, 408960, Note_on_c, 4, 43, 92
8, 409360, Note_off_c, 4, 43, 64
8, 409560, Note_on_c, 4, 55, 92
8, 409680, Note_off_c, 4, 55, 64
8, 409680, Note_on_c, 4, 53, 92
8, 409800, Note_off_c, 4, 53, 64
8, 409800, Note_on_c, 4, 55, 92
8, 409920, Note_off_c, 4, 55, 64
8, 409920, Note_on_c, 4, 51, 92
8, 410040, Note_off_c, 4, 51, 64
8, 410040, Note_on_c, 4, 55, 92
8, 410160, Note_off_c, 4, 55, 64
8, 410160, Note_on_c, 4, 48, 92
8, 410280, Note_off_c, 4, 48, 64
8, 410280, Note_on_c, 4, 51, 92
8, 410400, Note_off_c, 4, 51, 64
8, 410400, Note_on_c, 4, 41, 92
8, 410800, Note_off_c, 4, 41, 64
8, 411120, Note_on_c, 4, 53, 92
8, 411355, Note_off_c, 4, 53, 64
8, 411360, Note_on_c, 4, 51, 92
8, 411595, Note_off_c, 4, 51, 64
8, 411600, Note_on_c, 4, 48, 92
8, 411835, Note_off_c, 4, 48, 64
8, 411840, Note_on_c, 4, 53, 92
8, 412240, Note_off_c, 4, 53, 64
8, 412320, Note_on_c, 4, 55, 92
8, 412720, Note_off_c, 4, 55, 64
8, 412800, Note_on_c, 4, 43, 92
8, 413200, Note_off_c, 4, 43, 64
8, 413280, Note_on_c, 4, 36, 92
8, 413760, Note_off_c, 4, 36, 64
8, 413880, Note_on_c, 4, 48, 92
8, 414000, Note_off_c, 4, 48, 64
8, 414000, Note_on_c, 4, 52, 92
8, 414120, Note_off_c, 4, 52, 64
8, 414120, Note_on_c, 4, 48, 92
8, 414240, Note_off_c, 4, 48, 64
8, 414240, Note_on_c, 4, 53, 92
8, 414360, Note_off_c, 4, 53, 64
8, 414360, Note_on_c, 4, 48, 92
8, 414480, Note_off_c, 4, 48, 64
8, 414480, Note_on_c, 4, 56, 92
8, 414600, Note_off_c, 4, 56, 64
8, 414600, Note_on_c, 4, 53, 92
8, 414720, Note_off_c, 4, 53, 64
8, 414720, Note_on_c, 4, 60, 92
8, 415200, Note_off_c, 4, 60, 64
8, 415320, Note_on_c, 4, 60, 127
8, 415435, Note_off_c, 4, 60, 64
8, 415440, Note_on_c, 4, 58, 127
8, 415555, Note_off_c, 4, 58, 64
8, 415560, Note_on_c, 4, 60, 127
8, 415675, Note_off_c, 4, 60, 64
8, 415680, Note_on_c, 4, 56, 127
8, 415795, Note_off_c, 4, 56, 64
8, 415800, Note_on_c, 4, 60, 92
8, 415920, Note_off_c, 4, 60, 64
8, 415920, Note_on_c, 4, 53, 92
8, 416040, Note_off_c, 4, 53, 64
8, 416040, Note_on_c, 4, 56, 92
8, 416160, Note_off_c, 4, 56, 64
8, 416160, Note_on_c, 4, 52, 92
8, 416640, Note_off_c, 4, 52, 64
8, 416760, Note_on_c, 4, 60, 127
8, 416875, Note_off_c, 4, 60, 64
8, 416880, Note_on_c, 4, 58, 127
8, 416995, Note_off_c, 4, 58, 64
8, 417000, Note_on_c, 4, 60, 127
8, 417115, Note_off_c, 4, 60, 64
8, 417120, Note_on_c, 4, 56, 127
8, 417235, Note_off_c, 4, 56, 64
8, 417240, Note_on_c, 4, 60, 92
8, 417360, Note_off_c, 4, 60, 64
8, 417360, Note_on_c, 4, 53, 92
8, 417480, Note_off_c, 4, 53, 64
8, 417480, Note_on_c, 4, 56, 92
8, 417600, Note_off_c, 4, 56, 64
8, 417600, Note_on_c, 4, 48, 92
8, 418080, Note_off_c, 4, 48, 64
8, 418200, Note_on_c, 4, 48, 127
8, 418315, Note_off_c, 4, 48, 64
8, 418320, Note_on_c, 4, 46, 127
8, 418435, Note_off_c, 4, 46, 64
8, 418440, Note_on_c, 4, 48, 127
8, 418555, Note_off_c, 4, 48, 64
8, 418560, Note_on_c, 4, 44, 127
8, 418675, Note_off_c, 4, 44, 64
8, 418680, Note_on_c, 4, 60, 92
8, 418800, Note_off_c, 4, 60, 64
8, 418800, Note_on_c, 4, 53, 92
8, 418920, Note_off_c, 4, 53, 64
8, 418920, Note_on_c, 4, 56, 92
8, 419040, Note_off_c, 4, 56, 64
8, 419040, Note_on_c, 4, 48, 92
8, 419040, Note_on_c, 4, 36, 92
8, 419880, Note_off_c, 4, 48, 64
8, 420000, Note_on_c, 4, 53, 92
8, 420480, Note_off_c, 4, 53, 64
8, 420480, Note_on_c, 4, 55, 92
8, 421800, Note_off_c, 4, 36, 64
8, 421800, Note_off_c, 4, 55, 64
8, 421800, End_track
9, 0, Start_track
9, 0, MIDI_port, 0
9, 0, Channel_prefix, 5
9, 0, Control_c, 5, 7, 127
9, 0, Control_c, 5, 10, 35
9, 0, Control_c, 5, 91, 56
9, 0, Program_c, 5, 60
9, 70080, Note_on_c, 5, 60, 60
9, 70480, Note_off_c, 5, 60, 64
9, 70560, Note_on_c, 5, 67, 60
9, 71400, Note_off_c, 5, 67, 64
9, 71520, Note_on_c, 5, 63, 60
9, 71920, Note_off_c, 5, 63, 64
9, 72000, Note_on_c, 5, 65, 60
9, 72840, Note_off_c, 5, 65, 64
9, 72960, Note_on_c, 5, 67, 60
9, 73360, Note_off_c, 5, 67, 64
9, 73440, Note_on_c, 5, 68, 60
9, 74280, Note_off_c, 5, 68, 64
9, 74400, Note_on_c, 5, 65, 60
9, 74800, Note_off_c, 5, 65, 64
9, 74880, Note_on_c, 5, 67, 60
9, 75720, Note_off_c, 5, 67, 64
9, 75840, Note_on_c, 5, 62, 60
9, 76240, Note_off_c, 5, 62, 64
9, 76320, Note_on_c, 5, 63, 60
9, 77160, Note_off_c, 5, 63, 64
9, 77280, Note_on_c, 5, 59, 60
9, 77680, Note_off_c, 5, 59, 64
9, 77760, Note_on_c, 5, 60, 60
9, 78600, Note_off_c, 5, 60, 64
9, 78720, Note_on_c, 5, 65, 60
9, 79120, Note_off_c, 5, 65, 64
9, 79200, Note_on_c, 5, 67, 60
9, 80520, Note_off_c, 5, 67, 64
9, 80640, Note_on_c, 5, 60, 60
9, 81480, Note_off_c, 5, 60, 64
9, 81600, Note_on_c, 5, 60, 60
9, 82000, Note_off_c, 5, 60, 64
9, 82080, Note_on_c, 5, 67, 60
9, 82920, Note_off_c, 5, 67, 64
9, 83040, Note_on_c, 5, 63, 60
9, 83440, Note_off_c, 5, 63, 64
9, 83520, Note_on_c, 5, 65, 60
9, 84360, Note_off_c, 5, 65, 64
9, 84480, Note_on_c, 5, 67, 60
9, 84880, Note_off_c, 5, 67, 64
9, 84960, Note_on_c, 5, 68, 60
9, 85800, Note_off_c, 5, 68, 64
9, 85920, Note_on_c, 5, 65, 60
9, 86320, Note_off_c, 5, 65, 64
9, 86400, Note_on_c, 5, 67, 60
9, 87240, Note_off_c, 5, 67, 64
9, 87360, Note_on_c, 5, 62, 60
9, 87760, Note_off_c, 5, 62, 64
9, 87840, Note_on_c, 5, 63, 60
9, 88680, Note_off_c, 5, 63, 64
9, 88800, Note_on_c, 5, 59, 60
9, 89200, Note_off_c, 5, 59, 64
9, 89280, Note_on_c, 5, 60, 60
9, 90120, Note_off_c, 5, 60, 64
9, 90240, Note_on_c, 5, 53, 60
9, 90640, Note_off_c, 5, 53, 64
9, 90720, Note_on_c, 5, 55, 60
9, 92040, Note_off_c, 5, 55, 64
9, 92160, Note_on_c, 5, 48, 60
9, 93000, Note_off_c, 5, 48, 64
9, 93120, Note_on_c, 5, 60, 60
9, 93520, Note_off_c, 5, 60, 64
9, 93600, Note_on_c, 5, 67, 60
9, 94440, Note_off_c, 5, 67, 64
9, 94560, Note_on_c, 5, 63, 60
9, 94960, Note_off_c, 5, 63, 64
9, 95040, Note_on_c, 5, 65, 60
9, 95880, Note_off_c, 5, 65, 64
9, 96000, Note_on_c, 5, 67, 60
9, 96400, Note_off_c, 5, 67, 64
9, 96480, Note_on_c, 5, 68, 60
9, 97320, Note_off_c, 5, 68, 64
9, 97440, Note_on_c, 5, 65, 60
9, 97840, Note_off_c, 5, 65, 64
9, 97920, Note_on_c, 5, 67, 60
9, 98760, Note_off_c, 5, 67, 64
9, 98880, Note_on_c, 5, 62, 60
9, 99280, Note_off_c, 5, 62, 64
9, 99360, Note_on_c, 5, 63, 60
9, 100200, Note_off_c, 5, 63, 64
9, 100320, Note_on_c, 5, 62, 60
9, 100720, Note_off_c, 5, 62, 64
9, 100800, Note_on_c, 5, 63, 60
9, 101640, Note_off_c, 5, 63, 64
9, 101760, Note_on_c, 5, 65, 60
9, 102160, Note_off_c, 5, 65, 64
9, 102240, Note_on_c, 5, 67, 62
9, 103560, Note_off_c, 5, 67, 64
9, 103680, Note_on_c, 5, 63, 69
9, 104080, Note_off_c, 5, 63, 64
9, 104880, Note_on_c, 5, 63, 75
9, 105115, Note_off_c, 5, 63, 64
9, 105120, Note_on_c, 5, 62, 75
9, 105520, Note_off_c, 5, 62, 64
9, 106320, Note_on_c, 5, 63, 75
9, 106555, Note_off_c, 5, 63, 64
9, 106560, Note_on_c, 5, 65, 75
9, 106960, Note_off_c, 5, 65, 64
9, 107760, Note_on_c, 5, 61, 75
9, 107995, Note_off_c, 5, 61, 64
9, 108000, Note_on_c, 5, 63, 75
9, 108400, Note_off_c, 5, 63, 64
9, 109200, Note_on_c, 5, 65, 75
9, 109435, Note_off_c, 5, 65, 64
9, 109440, Note_on_c, 5, 67, 75
9, 109840, Note_off_c, 5, 67, 64
9, 110640, Note_on_c, 5, 65, 75
9, 110875, Note_off_c, 5, 65, 64
9, 110880, Note_on_c, 5, 67, 75
9, 111280, Note_off_c, 5, 67, 64
9, 112080, Note_on_c, 5, 67, 75
9, 112315, Note_off_c, 5, 67, 64
9, 112320, Note_on_c, 5, 67, 75
9, 112720, Note_off_c, 5, 67, 64
9, 113520, Note_on_c, 5, 65, 75
9, 113755, Note_off_c, 5, 65, 64
9, 113760, Note_on_c, 5, 67, 75
9, 114160, Note_off_c, 5, 67, 64
9, 114960, Note_on_c, 5, 67, 77
9, 115195, Note_off_c, 5, 67, 64
9, 115200, Note_on_c, 5, 67, 80
9, 115600, Note_off_c, 5, 67, 64
9, 116160, Note_on_c, 5, 67, 92
9, 116560, Note_off_c, 5, 67, 64
9, 116640, Note_on_c, 5, 67, 92
9, 117040, Note_off_c, 5, 67, 64
9, 117600, Note_on_c, 5, 67, 92
9, 118000, Note_off_c, 5, 67, 64
9, 118080, Note_on_c, 5, 65, 92
9, 118480, Note_off_c, 5, 65, 64
9, 119040, Note_on_c, 5, 67, 92
9, 119440, Note_off_c, 5, 67, 64
9, 119520, Note_on_c, 5, 63, 92
9, 119920, Note_off_c, 5, 63, 64
9, 120480, Note_on_c, 5, 65, 92
9, 120880, Note_off_c, 5, 65, 64
9, 120960, Note_on_c, 5, 62, 92
9, 121360, Note_off_c, 5, 62, 64
9, 121920, Note_on_c, 5, 65, 92
9, 122320, Note_off_c, 5, 65, 64
9, 122400, Note_on_c, 5, 67, 92
9, 122800, Note_off_c, 5, 67, 64
9, 123360, Note_on_c, 5, 67, 92
9, 123760, Note_off_c, 5, 67, 64
9, 123840, Note_on_c, 5, 67, 92
9, 124240, Note_off_c, 5, 67, 64
9, 124800, Note_on_c, 5, 65, 92
9, 125200, Note_off_c, 5, 65, 64
9, 125280, Note_on_c, 5, 67, 92
9, 125680, Note_off_c, 5, 67, 64
9, 126240, Note_on_c, 5, 67, 75
9, 126640, Note_off_c, 5, 67, 64
9, 126720, Note_on_c, 5, 67, 60
9, 127120, Note_off_c, 5, 67, 64
9, 173760, Note_on_c, 5, 60, 75
9, 174160, Note_off_c, 5, 60, 64
9, 174240, Note_on_c, 5, 67, 75
9, 175080, Note_off_c, 5, 67, 64
9, 175200, Note_on_c, 5, 63, 75
9, 175600, Note_off_c, 5, 63, 64
9, 175680, Note_on_c, 5, 65, 75
9, 176520, Note_off_c, 5, 65, 64
9, 176640, Note_on_c, 5, 67, 75
9, 177040, Note_off_c, 5, 67, 64
9, 177120, Note_on_c, 5, 68, 75
9, 177960, Note_off_c, 5, 68, 64
9, 178080, Note_on_c, 5, 65, 75
9, 178480, Note_off_c, 5, 65, 64
9, 178560, Note_on_c, 5, 67, 75
9, 179400, Note_off_c, 5, 67, 64
9, 179520, Note_on_c, 5, 62, 75
9, 179920, Note_off_c, 5, 62, 64
9, 180000, Note_on_c, 5, 63, 75
9, 180840, Note_off_c, 5, 63, 64
9, 180960, Note_on_c, 5, 59, 75
9, 181360, Note_off_c, 5, 59, 64
9, 181440, Note_on_c, 5, 60, 75
9, 182280, Note_off_c, 5, 60, 64
9, 182400, Note_on_c, 5, 53, 75
9, 182800, Note_off_c, 5, 53, 64
9, 182880, Note_on_c, 5, 55, 75
9, 184200, Note_off_c, 5, 55, 64
9, 184320, Note_on_c, 5, 60, 85
9, 185160, Note_off_c, 5, 60, 64
9, 185520, Note_on_c, 5, 67, 127
9, 185755, Note_off_c, 5, 67, 64
9, 186960, Note_on_c, 5, 67, 127
9, 187195, Note_off_c, 5, 67, 64
9, 188400, Note_on_c, 5, 65, 127
9, 188635, Note_off_c, 5, 65, 64
9, 189840, Note_on_c, 5, 65, 127
9, 190075, Note_off_c, 5, 65, 64
9, 191280, Note_on_c, 5, 65, 127
9, 191515, Note_off_c, 5, 65, 64
9, 192720, Note_on_c, 5, 65, 127
9, 192955, Note_off_c, 5, 65, 64
9, 194160, Note_on_c, 5, 65, 127
9, 194395, Note_off_c, 5, 65, 64
9, 195600, Note_on_c, 5, 65, 127
9, 195835, Note_off_c, 5, 65, 64
9, 196800, Note_on_c, 5, 60, 92
9, 197200, Note_off_c, 5, 60, 64
9, 197280, Note_on_c, 5, 67, 92
9, 198120, Note_off_c, 5, 67, 64
9, 198240, Note_on_c, 5, 63, 92
9, 198640, Note_off_c, 5, 63, 64
9, 198720, Note_on_c, 5, 65, 92
9, 199560, Note_off_c, 5, 65, 64
9, 199680, Note_on_c, 5, 67, 92
9, 200080, Note_off_c, 5, 67, 64
9, 200160, Note_on_c, 5, 68, 92
9, 201000, Note_off_c, 5, 68, 64
9, 201120, Note_on_c, 5, 65, 92
9, 201520, Note_off_c, 5, 65, 64
9, 201600, Note_on_c, 5, 67, 92
9, 202440, Note_off_c, 5, 67, 64
9, 202560, Note_on_c, 5, 62, 92
9, 202960, Note_off_c, 5, 62, 64
9, 203040, Note_on_c, 5, 63, 92
9, 203880, Note_off_c, 5, 63, 64
9, 204000, Note_on_c, 5, 59, 92
9, 204400, Note_off_c, 5, 59, 64
9, 204480, Note_on_c, 5, 60, 92
9, 205320, Note_off_c, 5, 60, 64
9, 205440, Note_on_c, 5, 65, 92
9, 205840, Note_off_c, 5, 65, 64
9, 205920, Note_on_c, 5, 67, 92
9, 207240, Note_off_c, 5, 67, 64
9, 207360, Note_on_c, 5, 60, 92
9, 208200, Note_off_c, 5, 60, 64
9, 208560, Note_on_c, 5, 67, 108
9, 208795, Note_off_c, 5, 67, 64
9, 208800, Note_on_c, 5, 67, 108
9, 209640, Note_off_c, 5, 67, 64
9, 210000, Note_on_c, 5, 67, 108
9, 210235, Note_off_c, 5, 67, 64
9, 210240, Note_on_c, 5, 65, 108
9, 211080, Note_off_c, 5, 65, 64
9, 211440, Note_on_c, 5, 67, 108
9, 211675, Note_off_c, 5, 67, 64
9, 211680, Note_on_c, 5, 68, 108
9, 212520, Note_off_c, 5, 68, 64
9, 212880, Note_on_c, 5, 65, 108
9, 213115, Note_off_c, 5, 65, 64
9, 213120, Note_on_c, 5, 67, 108
9, 213960, Note_off_c, 5, 67, 64
9, 214320, Note_on_c, 5, 65, 108
9, 214555, Note_off_c, 5, 65, 64
9, 214560, Note_on_c, 5, 67, 108
9, 215400, Note_off_c, 5, 67, 64
9, 215760, Note_on_c, 5, 67, 108
9, 215995, Note_off_c, 5, 67, 64
9, 216000, Note_on_c, 5, 67, 108
9, 216840, Note_off_c, 5, 67, 64
9, 217200, Note_on_c, 5, 65, 108
9, 217435, Note_off_c, 5, 65, 64
9, 217440, Note_on_c, 5, 67, 108
9, 218280, Note_off_c, 5, 67, 64
9, 218640, Note_on_c, 5, 67, 108
9, 218875, Note_off_c, 5, 67, 64
9, 218880, Note_on_c, 5, 67, 108
9, 219720, Note_off_c, 5, 67, 64
9, 219840, Note_on_c, 5, 60, 108
9, 220240, Note_off_c, 5, 60, 64
9, 220320, Note_on_c, 5, 67, 108
9, 221160, Note_off_c, 5, 67, 64
9, 221280, Note_on_c, 5, 63, 108
9, 221680, Note_off_c, 5, 63, 64
9, 221760, Note_on_c, 5, 65, 108
9, 222600, Note_off_c, 5, 65, 64
9, 222720, Note_on_c, 5, 67, 108
9, 223120, Note_off_c, 5, 67, 64
9, 223200, Note_on_c, 5, 68, 108
9, 224040, Note_off_c, 5, 68, 64
9, 224160, Note_on_c, 5, 65, 108
9, 224560, Note_off_c, 5, 65, 64
9, 224640, Note_on_c, 5, 67, 108
9, 225480, Note_off_c, 5, 67, 64
9, 225600, Note_on_c, 5, 62, 108
9, 226000, Note_off_c, 5, 62, 64
9, 226080, Note_on_c, 5, 63, 108
9, 226920, Note_off_c, 5, 63, 64
9, 227040, Note_on_c, 5, 59, 108
9, 227440, Note_off_c, 5, 59, 64
9, 227520, Note_on_c, 5, 60, 108
9, 228360, Note_off_c, 5, 60, 64
9, 228480, Note_on_c, 5, 65, 108
9, 228880, Note_off_c, 5, 65, 64
9, 228960, Note_on_c, 5, 67, 108
9, 230280, Note_off_c, 5, 67, 64
9, 230400, Note_on_c, 5, 63, 108
9, 231240, Note_off_c, 5, 63, 64
9, 231360, Note_on_c, 5, 60, 108
9, 231760, Note_off_c, 5, 60, 64
9, 231840, Note_on_c, 5, 67, 108
9, 232680, Note_off_c, 5, 67, 64
9, 232800, Note_on_c, 5, 63, 108
9, 233200, Note_off_c, 5, 63, 64
9, 233280, Note_on_c, 5, 65, 108
9, 234120, Note_off_c, 5, 65, 64
9, 234240, Note_on_c, 5, 67, 108
9, 234640, Note_off_c, 5, 67, 64
9, 234720, Note_on_c, 5, 68, 108
9, 235560, Note_off_c, 5, 68, 64
9, 235680, Note_on_c, 5, 65, 108
9, 236080, Note_off_c, 5, 65, 64
9, 236160, Note_on_c, 5, 67, 108
9, 237000, Note_off_c, 5, 67, 64
9, 237120, Note_on_c, 5, 62, 108
9, 237520, Note_off_c, 5, 62, 64
9, 237600, Note_on_c, 5, 63, 108
9, 238440, Note_off_c, 5, 63, 64
9, 238560, Note_on_c, 5, 59, 108
9, 238960, Note_off_c, 5, 59, 64
9, 239040, Note_on_c, 5, 60, 108
9, 239880, Note_off_c, 5, 60, 64
9, 240000, Note_on_c, 5, 65, 108
9, 240400, Note_off_c, 5, 65, 64
9, 240480, Note_on_c, 5, 67, 108
9, 241800, Note_off_c, 5, 67, 64
9, 241920, Note_on_c, 5, 60, 60
9, 243240, Note_off_c, 5, 60, 64
9, 276000, Note_on_c, 5, 60, 75
9, 276400, Note_off_c, 5, 60, 64
9, 276480, Note_on_c, 5, 67, 75
9, 277320, Note_off_c, 5, 67, 64
9, 277440, Note_on_c, 5, 63, 75
9, 277840, Note_off_c, 5, 63, 64
9, 277920, Note_on_c, 5, 65, 75
9, 278760, Note_off_c, 5, 65, 64
9, 278880, Note_on_c, 5, 67, 75
9, 279280, Note_off_c, 5, 67, 64
9, 279360, Note_on_c, 5, 68, 75
9, 280200, Note_off_c, 5, 68, 64
9, 280320, Note_on_c, 5, 65, 75
9, 280720, Note_off_c, 5, 65, 64
9, 280800, Note_on_c, 5, 67, 75
9, 281640, Note_off_c, 5, 67, 64
9, 281760, Note_on_c, 5, 68, 75
9, 282160, Note_off_c, 5, 68, 64
9, 282240, Note_on_c, 5, 70, 75
9, 282640, Note_off_c, 5, 70, 64
9, 282720, Note_on_c, 5, 58, 75
9, 283560, Note_off_c, 5, 58, 64
9, 283680, Note_on_c, 5, 63, 75
9, 284080, Note_off_c, 5, 63, 64
9, 285360, Note_on_c, 5, 67, 75
9, 285600, Note_off_c, 5, 67, 64
9, 285600, Note_on_c, 5, 62, 75
9, 285835, Note_off_c, 5, 62, 64
9, 285840, Note_on_c, 5, 62, 75
9, 286080, Note_off_c, 5, 62, 64
9, 286080, Note_on_c, 5, 63, 75
9, 286480, Note_off_c, 5, 63, 64
9, 286800, Note_on_c, 5, 72, 75
9, 287040, Note_off_c, 5, 72, 64
9, 287040, Note_on_c, 5, 65, 75
9, 287275, Note_off_c, 5, 65, 64
9, 287280, Note_on_c, 5, 65, 75
9, 287520, Note_off_c, 5, 65, 64
9, 287520, Note_on_c, 5, 67, 75
9, 287920, Note_off_c, 5, 67, 64
9, 288240, Note_on_c, 5, 68, 75
9, 288480, Note_off_c, 5, 68, 64
9, 288480, Note_on_c, 5, 63, 75
9, 288715, Note_off_c, 5, 63, 64
9, 288720, Note_on_c, 5, 63, 75
9, 288960, Note_off_c, 5, 63, 64
9, 288960, Note_on_c, 5, 65, 75
9, 289360, Note_off_c, 5, 65, 64
9, 289680, Note_on_c, 5, 67, 75
9, 289920, Note_off_c, 5, 67, 64
9, 289920, Note_on_c, 5, 62, 75
9, 290155, Note_off_c, 5, 62, 64
9, 290160, Note_on_c, 5, 62, 75
9, 290400, Note_off_c, 5, 62, 64
9, 290400, Note_on_c, 5, 63, 75
9, 290800, Note_off_c, 5, 63, 64
9, 291120, Note_on_c, 5, 65, 75
9, 291360, Note_off_c, 5, 65, 64
9, 291360, Note_on_c, 5, 60, 75
9, 291595, Note_off_c, 5, 60, 64
9, 291600, Note_on_c, 5, 60, 75
9, 291840, Note_off_c, 5, 60, 64
9, 291840, Note_on_c, 5, 62, 75
9, 292240, Note_off_c, 5, 62, 64
9, 292320, Note_on_c, 5, 63, 75
9, 292960, Note_off_c, 5, 63, 64
9, 293040, Note_on_c, 5, 51, 75
9, 293280, Note_off_c, 5, 51, 64
9, 293280, Note_on_c, 5, 53, 75
9, 293520, Note_off_c, 5, 53, 64
9, 293520, Note_on_c, 5, 55, 75
9, 293760, Note_off_c, 5, 55, 64
9, 293760, Note_on_c, 5, 56, 75
9, 294240, Note_off_c, 5, 56, 64
9, 294240, Note_on_c, 5, 53, 75
9, 294720, Note_off_c, 5, 53, 64
9, 294720, Note_on_c, 5, 50, 75
9, 295200, Note_off_c, 5, 50, 64
9, 295200, Note_on_c, 5, 51, 75
9, 295600, Note_off_c, 5, 51, 64
9, 295680, Note_on_c, 5, 63, 75
9, 296160, Note_off_c, 5, 63, 64
9, 296160, Note_on_c, 5, 60, 75
9, 296640, Note_off_c, 5, 60, 64
9, 296640, Note_on_c, 5, 62, 75
9, 297120, Note_off_c, 5, 62, 64
9, 297120, Note_on_c, 5, 58, 75
9, 297600, Note_off_c, 5, 58, 64
9, 297600, Note_on_c, 5, 55, 75
9, 298000, Note_off_c, 5, 55, 64
9, 298080, Note_on_c, 5, 60, 75
9, 298560, Note_off_c, 5, 60, 64
9, 298560, Note_on_c, 5, 56, 75
9, 299040, Note_off_c, 5, 56, 64
9, 299040, Note_on_c, 5, 53, 75
9, 299520, Note_off_c, 5, 53, 64
9, 299520, Note_on_c, 5, 55, 75
9, 300000, Note_off_c, 5, 55, 64
9, 300000, Note_on_c, 5, 58, 75
9, 300400, Note_off_c, 5, 58, 64
9, 300480, Note_on_c, 5, 58, 75
9, 300880, Note_off_c, 5, 58, 64
9, 300960, Note_on_c, 5, 65, 75
9, 301800, Note_off_c, 5, 65, 64
9, 301920, Note_on_c, 5, 62, 75
9, 302320, Note_off_c, 5, 62, 64
9, 302400, Note_on_c, 5, 63, 75
9, 303240, Note_off_c, 5, 63, 64
9, 303360, Note_on_c, 5, 65, 75
9, 303760, Note_off_c, 5, 65, 64
9, 303840, Note_on_c, 5, 67, 75
9, 304680, Note_off_c, 5, 67, 64
9, 304800, Note_on_c, 5, 63, 75
9, 305200, Note_off_c, 5, 63, 64
9, 305280, Note_on_c, 5, 65, 75
9, 306120, Note_off_c, 5, 65, 64
9, 317760, Note_on_c, 5, 55, 92
9, 318475, Note_off_c, 5, 55, 64
9, 318480, Note_on_c, 5, 58, 92
9, 318720, Note_off_c, 5, 58, 64
9, 318720, Note_on_c, 5, 54, 92
9, 318955, Note_off_c, 5, 54, 64
9, 318960, Note_on_c, 5, 54, 92
9, 319200, Note_off_c, 5, 54, 64
9, 319200, Note_on_c, 5, 55, 92
9, 319600, Note_off_c, 5, 55, 64
9, 319920, Note_on_c, 5, 63, 92
9, 320160, Note_off_c, 5, 63, 64
9, 320160, Note_on_c, 5, 57, 92
9, 320395, Note_off_c, 5, 57, 64
9, 320400, Note_on_c, 5, 57, 92
9, 320640, Note_off_c, 5, 57, 64
9, 320640, Note_on_c, 5, 58, 92
9, 321040, Note_off_c, 5, 58, 64
9, 321360, Note_on_c, 5, 60, 92
9, 321600, Note_off_c, 5, 60, 64
9, 321600, Note_on_c, 5, 55, 92
9, 321835, Note_off_c, 5, 55, 64
9, 321840, Note_on_c, 5, 55, 92
9, 322080, Note_off_c, 5, 55, 64
9, 322080, Note_on_c, 5, 57, 92
9, 322480, Note_off_c, 5, 57, 64
9, 322800, Note_on_c, 5, 58, 75
9, 323040, Note_off_c, 5, 58, 64
9, 323040, Note_on_c, 5, 54, 60
9, 323275, Note_off_c, 5, 54, 64
9, 323280, Note_on_c, 5, 55, 60
9, 323520, Note_off_c, 5, 55, 64
9, 323520, Note_on_c, 5, 57, 60
9, 323920, Note_off_c, 5, 57, 64
9, 324000, Note_on_c, 5, 58, 60
9, 325200, Note_off_c, 5, 58, 64
9, 325200, Note_on_c, 5, 55, 60
9, 325435, Note_off_c, 5, 55, 64
9, 325440, Note_on_c, 5, 57, 60
9, 326640, Note_off_c, 5, 57, 64
9, 326640, Note_on_c, 5, 54, 60
9, 326875, Note_off_c, 5, 54, 64
9, 326880, Note_on_c, 5, 55, 60
9, 328075, Note_off_c, 5, 55, 64
9, 328080, Note_on_c, 5, 52, 60
9, 328320, Note_off_c, 5, 52, 64
9, 328320, Note_on_c, 5, 54, 60
9, 328720, Note_off_c, 5, 54, 64
9, 328800, Note_on_c, 5, 54, 60
9, 329035, Note_off_c, 5, 54, 64
9, 329040, Note_on_c, 5, 54, 60
9, 329275, Note_off_c, 5, 54, 64
9, 329280, Note_on_c, 5, 55, 60
9, 329520, Note_off_c, 5, 55, 64
9, 329520, Note_on_c, 5, 53, 60
9, 329760, Note_off_c, 5, 53, 64
9, 329760, Note_on_c, 5, 51, 60
9, 330955, Note_off_c, 5, 51, 64
9, 345120, Note_on_c, 5, 70, 60
9, 345355, Note_off_c, 5, 70, 64
9, 345360, Note_on_c, 5, 72, 60
9, 345595, Note_off_c, 5, 72, 64
9, 345600, Note_on_c, 5, 62, 60
9, 345835, Note_off_c, 5, 62, 64
9, 345840, Note_on_c, 5, 63, 60
9, 346075, Note_off_c, 5, 63, 64
9, 346080, Note_on_c, 5, 65, 60
9, 346315, Note_off_c, 5, 65, 64
9, 346320, Note_on_c, 5, 67, 60
9, 346555, Note_off_c, 5, 67, 64
9, 346560, Note_on_c, 5, 68, 60
9, 346795, Note_off_c, 5, 68, 64
9, 346800, Note_on_c, 5, 70, 60
9, 347035, Note_off_c, 5, 70, 64
9, 347040, Note_on_c, 5, 72, 60
9, 347275, Note_off_c, 5, 72, 64
9, 347280, Note_on_c, 5, 62, 60
9, 347515, Note_off_c, 5, 62, 64
9, 347520, Note_on_c, 5, 63, 60
9, 347755, Note_off_c, 5, 63, 64
9, 347760, Note_on_c, 5, 65, 60
9, 347995, Note_off_c, 5, 65, 64
9, 348000, Note_on_c, 5, 67, 60
9, 348235, Note_off_c, 5, 67, 64
9, 348240, Note_on_c, 5, 68, 60
9, 348475, Note_off_c, 5, 68, 64
9, 348480, Note_on_c, 5, 70, 60
9, 348715, Note_off_c, 5, 70, 64
9, 348720, Note_on_c, 5, 72, 60
9, 348955, Note_off_c, 5, 72, 64
9, 348960, Note_on_c, 5, 62, 60
9, 349195, Note_off_c, 5, 62, 64
9, 349200, Note_on_c, 5, 63, 60
9, 349435, Note_off_c, 5, 63, 64
9, 349440, Note_on_c, 5, 65, 60
9, 349675, Note_off_c, 5, 65, 64
9, 349680, Note_on_c, 5, 67, 60
9, 349915, Note_off_c, 5, 67, 64
9, 349920, Note_on_c, 5, 68, 60
9, 350155, Note_off_c, 5, 68, 64
9, 350160, Note_on_c, 5, 58, 60
9, 350395, Note_off_c, 5, 58, 64
9, 350400, Note_on_c, 5, 60, 60
9, 350635, Note_off_c, 5, 60, 64
9, 350640, Note_on_c, 5, 62, 60
9, 350875, Note_off_c, 5, 62, 64
9, 350880, Note_on_c, 5, 63, 60
9, 351115, Note_off_c, 5, 63, 64
9, 351120, Note_on_c, 5, 65, 60
9, 351355, Note_off_c, 5, 65, 64
9, 351360, Note_on_c, 5, 67, 60
9, 352000, Note_off_c, 5, 67, 64
9, 352080, Note_on_c, 5, 67, 60
9, 352315, Note_off_c, 5, 67, 64
9, 353760, Note_on_c, 5, 67, 75
9, 354160, Note_off_c, 5, 67, 64
9, 354240, Note_on_c, 5, 74, 75
9, 355080, Note_off_c, 5, 74, 64
9, 355200, Note_on_c, 5, 70, 75
9, 355600, Note_off_c, 5, 70, 64
9, 355680, Note_on_c, 5, 72, 75
9, 356520, Note_off_c, 5, 72, 64
9, 356640, Note_on_c, 5, 74, 75
9, 357040, Note_off_c, 5, 74, 64
9, 357120, Note_on_c, 5, 75, 75
9, 357960, Note_off_c, 5, 75, 64
9, 358080, Note_on_c, 5, 72, 75
9, 358480, Note_off_c, 5, 72, 64
9, 358560, Note_on_c, 5, 74, 75
9, 359400, Note_off_c, 5, 74, 64
9, 359520, Note_on_c, 5, 67, 75
9, 360235, Note_off_c, 5, 67, 64
9, 360240, Note_on_c, 5, 67, 75
9, 360480, Note_off_c, 5, 67, 64
9, 360480, Note_on_c, 5, 69, 75
9, 360880, Note_off_c, 5, 69, 64
9, 360960, Note_on_c, 5, 67, 75
9, 361675, Note_off_c, 5, 67, 64
9, 361680, Note_on_c, 5, 65, 75
9, 362155, Note_off_c, 5, 65, 64
9, 362160, Note_on_c, 5, 63, 75
9, 362635, Note_off_c, 5, 63, 64
9, 362640, Note_on_c, 5, 62, 75
9, 363115, Note_off_c, 5, 62, 64
9, 363120, Note_on_c, 5, 62, 75
9, 363360, Note_off_c, 5, 62, 64
9, 363360, Note_on_c, 5, 63, 75
9, 363760, Note_off_c, 5, 63, 64
9, 363840, Note_on_c, 5, 62, 75
9, 364080, Note_off_c, 5, 62, 64
9, 364080, Note_on_c, 5, 60, 75
9, 364320, Note_off_c, 5, 60, 64
9, 364320, Note_on_c, 5, 59, 75
9, 364560, Note_off_c, 5, 59, 64
9, 364560, Note_on_c, 5, 60, 75
9, 364795, Note_off_c, 5, 60, 64
9, 364800, Note_on_c, 5, 62, 75
9, 365515, Note_off_c, 5, 62, 64
9, 365520, Note_on_c, 5, 67, 75
9, 365755, Note_off_c, 5, 67, 64
9, 365760, Note_on_c, 5, 67, 75
9, 366160, Note_off_c, 5, 67, 64
9, 366240, Note_on_c, 5, 72, 75
9, 366955, Note_off_c, 5, 72, 64
9, 366960, Note_on_c, 5, 72, 75
9, 367195, Note_off_c, 5, 72, 64
9, 367200, Note_on_c, 5, 72, 75
9, 367600, Note_off_c, 5, 72, 64
9, 368160, Note_on_c, 5, 65, 92
9, 368560, Note_off_c, 5, 65, 64
9, 368640, Note_on_c, 5, 72, 92
9, 369480, Note_off_c, 5, 72, 64
9, 369600, Note_on_c, 5, 68, 92
9, 370000, Note_off_c, 5, 68, 64
9, 370080, Note_on_c, 5, 70, 92
9, 370920, Note_off_c, 5, 70, 64
9, 371040, Note_on_c, 5, 72, 92
9, 371440, Note_off_c, 5, 72, 64
9, 371520, Note_on_c, 5, 73, 92
9, 372360, Note_off_c, 5, 73, 64
9, 372480, Note_on_c, 5, 70, 92
9, 372880, Note_off_c, 5, 70, 64
9, 372960, Note_on_c, 5, 72, 92
9, 373555, Note_off_c, 5, 72, 64
9, 391200, Note_on_c, 5, 60, 92
9, 391600, Note_off_c, 5, 60, 64
9, 391680, Note_on_c, 5, 67, 92
9, 392520, Note_off_c, 5, 67, 64
9, 392640, Note_on_c, 5, 63, 92
9, 393040, Note_off_c, 5, 63, 64
9, 393120, Note_on_c, 5, 65, 92
9, 393960, Note_off_c, 5, 65, 64
9, 394080, Note_on_c, 5, 67, 92
9, 394480, Note_off_c, 5, 67, 64
9, 394560, Note_on_c, 5, 68, 92
9, 395400, Note_off_c, 5, 68, 64
9, 395520, Note_on_c, 5, 65, 92
9, 395920, Note_off_c, 5, 65, 64
9, 396000, Note_on_c, 5, 67, 92
9, 399280, Note_off_c, 5, 67, 64
9, 399360, Note_on_c, 5, 65, 92
9, 400720, Note_off_c, 5, 65, 64
9, 400800, Note_on_c, 5, 63, 92
9, 402160, Note_off_c, 5, 63, 64
9, 402240, Note_on_c, 5, 62, 92
9, 403600, Note_off_c, 5, 62, 64
9, 403680, Note_on_c, 5, 60, 92
9, 404080, Note_off_c, 5, 60, 64
9, 404160, Note_on_c, 5, 62, 92
9, 404560, Note_off_c, 5, 62, 64
9, 404640, Note_on_c, 5, 59, 92
9, 405480, Note_off_c, 5, 59, 64
9, 405600, Note_on_c, 5, 60, 92
9, 405835, Note_off_c, 5, 60, 64
9, 405840, Note_on_c, 5, 60, 92
9, 406075, Note_off_c, 5, 60, 64
9, 406200, Note_on_c, 5, 67, 127
9, 406315, Note_off_c, 5, 67, 64
9, 406320, Note_on_c, 5, 65, 127
9, 406435, Note_off_c, 5, 65, 64
9, 406440, Note_on_c, 5, 67, 127
9, 406555, Note_off_c, 5, 67, 64
9, 406560, Note_on_c, 5, 62, 127
9, 406795, Note_off_c, 5, 62, 64
9, 406800, Note_on_c, 5, 62, 127
9, 407035, Note_off_c, 5, 62, 64
9, 407040, Note_on_c, 5, 63, 127
9, 407275, Note_off_c, 5, 63, 64
9, 407280, Note_on_c, 5, 63, 127
9, 407515, Note_off_c, 5, 63, 64
9, 407640, Note_on_c, 5, 67, 127
9, 407755, Note_off_c, 5, 67, 64
9, 407760, Note_on_c, 5, 65, 127
9, 407875, Note_off_c, 5, 65, 64
9, 407880, Note_on_c, 5, 67, 127
9, 407995, Note_off_c, 5, 67, 64
9, 408000, Note_on_c, 5, 62, 127
9, 408235, Note_off_c, 5, 62, 64
9, 408240, Note_on_c, 5, 62, 127
9, 408475, Note_off_c, 5, 62, 64
9, 408480, Note_on_c, 5, 63, 127
9, 408715, Note_off_c, 5, 63, 64
9, 408720, Note_on_c, 5, 67, 127
9, 408955, Note_off_c, 5, 67, 64
9, 409080, Note_on_c, 5, 67, 127
9, 409195, Note_off_c, 5, 67, 64
9, 409200, Note_on_c, 5, 65, 127
9, 409315, Note_off_c, 5, 65, 64
9, 409320, Note_on_c, 5, 67, 127
9, 409435, Note_off_c, 5, 67, 64
9, 409440, Note_on_c, 5, 62, 127
9, 409675, Note_off_c, 5, 62, 64
9, 409680, Note_on_c, 5, 62, 127
9, 409915, Note_off_c, 5, 62, 64
9, 409920, Note_on_c, 5, 63, 127
9, 410155, Note_off_c, 5, 63, 64
9, 410160, Note_on_c, 5, 67, 127
9, 410395, Note_off_c, 5, 67, 64
9, 410400, Note_on_c, 5, 65, 127
9, 410800, Note_off_c, 5, 65, 64
9, 411120, Note_on_c, 5, 67, 127
9, 411355, Note_off_c, 5, 67, 64
9, 411360, Note_on_c, 5, 63, 127
9, 411595, Note_off_c, 5, 63, 64
9, 411600, Note_on_c, 5, 60, 127
9, 411835, Note_off_c, 5, 60, 64
9, 411840, Note_on_c, 5, 65, 127
9, 412240, Note_off_c, 5, 65, 64
9, 412320, Note_on_c, 5, 67, 127
9, 412720, Note_off_c, 5, 67, 64
9, 412800, Note_on_c, 5, 67, 127
9, 413200, Note_off_c, 5, 67, 64
9, 413280, Note_on_c, 5, 60, 113
9, 413760, Note_off_c, 5, 60, 64
9, 413760, Note_on_c, 5, 55, 99
9, 414000, Note_off_c, 5, 55, 64
9, 414000, Note_on_c, 5, 60, 92
9, 414240, Note_off_c, 5, 60, 64
9, 414240, Note_on_c, 5, 60, 92
9, 414480, Note_off_c, 5, 60, 64
9, 414480, Note_on_c, 5, 60, 92
9, 414715, Note_off_c, 5, 60, 64
9, 414720, Note_on_c, 5, 64, 92
9, 414835, Note_off_c, 5, 64, 64
9, 414840, Note_on_c, 5, 72, 127
9, 414955, Note_off_c, 5, 72, 64
9, 414960, Note_on_c, 5, 70, 127
9, 415075, Note_off_c, 5, 70, 64
9, 415080, Note_on_c, 5, 72, 127
9, 415195, Note_off_c, 5, 72, 64
9, 415200, Note_on_c, 5, 67, 127
9, 415435, Note_off_c, 5, 67, 64
9, 415440, Note_on_c, 5, 64, 92
9, 415680, Note_off_c, 5, 64, 64
9, 415680, Note_on_c, 5, 65, 92
9, 415920, Note_off_c, 5, 65, 64
9, 415920, Note_on_c, 5, 65, 92
9, 416160, Note_off_c, 5, 65, 64
9, 416160, Note_on_c, 5, 67, 92
9, 416275, Note_off_c, 5, 67, 64
9, 416280, Note_on_c, 5, 72, 127
9, 416395, Note_off_c, 5, 72, 64
9, 416400, Note_on_c, 5, 70, 127
9, 416515, Note_off_c, 5, 70, 64
9, 416520, Note_on_c, 5, 72, 127
9, 416635, Note_off_c, 5, 72, 64
9, 416640, Note_on_c, 5, 67, 127
9, 416875, Note_off_c, 5, 67, 64
9, 416880, Note_on_c, 5, 67, 92
9, 417120, Note_off_c, 5, 67, 64
9, 417120, Note_on_c, 5, 68, 92
9, 417360, Note_off_c, 5, 68, 64
9, 417360, Note_on_c, 5, 68, 92
9, 417600, Note_off_c, 5, 68, 64
9, 417600, Note_on_c, 5, 67, 92
9, 417720, Note_off_c, 5, 67, 64
9, 417720, Note_on_c, 5, 70, 127
9, 417835, Note_off_c, 5, 70, 64
9, 417840, Note_on_c, 5, 68, 127
9, 417955, Note_off_c, 5, 68, 64
9, 417960, Note_on_c, 5, 70, 127
9, 418075, Note_off_c, 5, 70, 64
9, 418080, Note_on_c, 5, 67, 92
9, 418800, Note_off_c, 5, 67, 64
9, 418800, Note_on_c, 5, 65, 92
9, 419155, Note_off_c, 5, 65, 64
9, 419160, Note_on_c, 5, 65, 92
9, 419280, Note_off_c, 5, 65, 64
9, 419280, Note_on_c, 5, 64, 92
9, 419400, Note_off_c, 5, 64, 64
9, 419400, Note_on_c, 5, 65, 92
9, 419520, Note_off_c, 5, 65, 64
9, 419520, Note_on_c, 5, 59, 92
9, 420115, Note_off_c, 5, 59, 64
9, 420120, Note_on_c, 5, 62, 92
9, 420240, Note_off_c, 5, 62, 64
9, 420240, Note_on_c, 5, 59, 92
9, 420360, Note_off_c, 5, 59, 64
9, 420360, Note_on_c, 5, 62, 92
9, 420480, Note_off_c, 5, 62, 64
9, 420480, Note_on_c, 5, 60, 92
9, 421800, Note_off_c, 5, 60, 64
9, 421800, End_track
10, 0, Start_track
10, 0, MIDI_port, 0
10, 0, Channel_prefix, 5
10, 0, Control_c, 5, 7, 127
10, 0, Control_c, 5, 10, 35
10, 0, Control_c, 5, 91, 56
10, 0, Program_c, 5, 60
10, 70080, Note_on_c, 5, 48, 60
10, 70480, Note_off_c, 5, 48, 64
10, 70560, Note_on_c, 5, 55, 60
10, 71400, Note_off_c, 5, 55, 64
10, 71520, Note_on_c, 5, 51, 60
10, 71920, Note_off_c, 5, 51, 64
10, 72000, Note_on_c, 5, 53, 60
10, 72840, Note_off_c, 5, 53, 64
10, 72960, Note_on_c, 5, 55, 60
10, 73360, Note_off_c, 5, 55, 64
10, 73440, Note_on_c, 5, 56, 60
10, 74280, Note_off_c, 5, 56, 64
10, 74400, Note_on_c, 5, 53, 60
10, 74800, Note_off_c, 5, 53, 64
10, 74880, Note_on_c, 5, 55, 60
10, 75720, Note_off_c, 5, 55, 64
10, 75840, Note_on_c, 5, 50, 60
10, 76240, Note_off_c, 5, 50, 64
10, 76320, Note_on_c, 5, 51, 60
10, 77160, Note_off_c, 5, 51, 64
10, 77280, Note_on_c, 5, 47, 60
10, 77680, Note_off_c, 5, 47, 64
10, 77760, Note_on_c, 5, 48, 60
10, 78600, Note_off_c, 5, 48, 64
10, 78720, Note_on_c, 5, 53, 60
10, 79120, Note_off_c, 5, 53, 64
10, 79200, Note_on_c, 5, 55, 60
10, 80520, Note_off_c, 5, 55, 64
10, 80640, Note_on_c, 5, 48, 60
10, 81480, Note_off_c, 5, 48, 64
10, 93120, Note_on_c, 5, 60, 60
10, 93520, Note_off_c, 5, 60, 64
10, 93600, Note_on_c, 5, 59, 60
10, 94440, Note_off_c, 5, 59, 64
10, 94560, Note_on_c, 5, 60, 60
10, 94960, Note_off_c, 5, 60, 64
10, 95040, Note_on_c, 5, 60, 60
10, 95880, Note_off_c, 5, 60, 64
10, 96000, Note_on_c, 5, 59, 60
10, 96400, Note_off_c, 5, 59, 64
10, 96480, Note_on_c, 5, 60, 60
10, 97320, Note_off_c, 5, 60, 64
10, 97440, Note_on_c, 5, 60, 60
10, 97840, Note_off_c, 5, 60, 64
10, 97920, Note_on_c, 5, 59, 60
10, 98760, Note_off_c, 5, 59, 64
10, 98880, Note_on_c, 5, 59, 60
10, 99280, Note_off_c, 5, 59, 64
10, 99360, Note_on_c, 5, 60, 60
10, 100200, Note_off_c, 5, 60, 64
10, 100320, Note_on_c, 5, 59, 60
10, 100720, Note_off_c, 5, 59, 64
10, 100800, Note_on_c, 5, 60, 60
10, 101640, Note_off_c, 5, 60, 64
10, 101760, Note_on_c, 5, 60, 60
10, 102160, Note_off_c, 5, 60, 64
10, 102240, Note_on_c, 5, 60, 62
10, 103200, Note_off_c, 5, 60, 64
10, 103200, Note_on_c, 5, 59, 67
10, 103600, Note_off_c, 5, 59, 64
10, 103680, Note_on_c, 5, 60, 69
10, 104080, Note_off_c, 5, 60, 64
10, 104880, Note_on_c, 5, 60, 75
10, 105115, Note_off_c, 5, 60, 64
10, 105120, Note_on_c, 5, 59, 75
10, 105520, Note_off_c, 5, 59, 64
10, 106320, Note_on_c, 5, 60, 75
10, 106555, Note_off_c, 5, 60, 64
10, 106560, Note_on_c, 5, 60, 75
10, 106960, Note_off_c, 5, 60, 64
10, 107760, Note_on_c, 5, 58, 75
10, 107995, Note_off_c, 5, 58, 64
10, 108000, Note_on_c, 5, 60, 75
10, 108400, Note_off_c, 5, 60, 64
10, 109200, Note_on_c, 5, 60, 75
10, 109435, Note_off_c, 5, 60, 64
10, 109440, Note_on_c, 5, 62, 75
10, 109840, Note_off_c, 5, 62, 64
10, 110640, Note_on_c, 5, 62, 75
10, 110875, Note_off_c, 5, 62, 64
10, 110880, Note_on_c, 5, 63, 75
10, 111280, Note_off_c, 5, 63, 64
10, 112080, Note_on_c, 5, 62, 75
10, 112315, Note_off_c, 5, 62, 64
10, 112320, Note_on_c, 5, 63, 75
10, 112720, Note_off_c, 5, 63, 64
10, 113520, Note_on_c, 5, 60, 75
10, 113755, Note_off_c, 5, 60, 64
10, 113760, Note_on_c, 5, 62, 75
10, 114160, Note_off_c, 5, 62, 64
10, 114960, Note_on_c, 5, 62, 77
10, 115195, Note_off_c, 5, 62, 64
10, 115200, Note_on_c, 5, 63, 80
10, 115600, Note_off_c, 5, 63, 64
10, 116160, Note_on_c, 5, 63, 92
10, 116560, Note_off_c, 5, 63, 64
10, 116640, Note_on_c, 5, 62, 92
10, 117040, Note_off_c, 5, 62, 64
10, 117600, Note_on_c, 5, 63, 92
10, 118000, Note_off_c, 5, 63, 64
10, 118080, Note_on_c, 5, 60, 92
10, 118480, Note_off_c, 5, 60, 64
10, 119040, Note_on_c, 5, 59, 92
10, 119440, Note_off_c, 5, 59, 64
10, 119520, Note_on_c, 5, 60, 92
10, 119920, Note_off_c, 5, 60, 64
10, 120480, Note_on_c, 5, 60, 92
10, 120880, Note_off_c, 5, 60, 64
10, 120960, Note_on_c, 5, 59, 92
10, 121360, Note_off_c, 5, 59, 64
10, 121920, Note_on_c, 5, 59, 92
10, 122320, Note_off_c, 5, 59, 64
10, 122400, Note_on_c, 5, 60, 92
10, 122800, Note_off_c, 5, 60, 64
10, 123360, Note_on_c, 5, 62, 92
10, 123760, Note_off_c, 5, 62, 64
10, 123840, Note_on_c, 5, 60, 92
10, 124240, Note_off_c, 5, 60, 64
10, 124800, Note_on_c, 5, 60, 92
10, 125200, Note_off_c, 5, 60, 64
10, 125280, Note_on_c, 5, 62, 92
10, 125680, Note_off_c, 5, 62, 64
10, 126240, Note_on_c, 5, 59, 75
10, 126640, Note_off_c, 5, 59, 64
10, 126720, Note_on_c, 5, 60, 60
10, 127120, Note_off_c, 5, 60, 64
10, 185520, Note_on_c, 5, 60, 127
10, 185755, Note_off_c, 5, 60, 64
10, 186960, Note_on_c, 5, 60, 127
10, 187195, Note_off_c, 5, 60, 64
10, 188400, Note_on_c, 5, 59, 127
10, 188635, Note_off_c, 5, 59, 64
10, 189840, Note_on_c, 5, 60, 127
10, 190075, Note_off_c, 5, 60, 64
10, 191280, Note_on_c, 5, 59, 127
10, 191515, Note_off_c, 5, 59, 64
10, 192720, Note_on_c, 5, 59, 127
10, 192955, Note_off_c, 5, 59, 64
10, 194160, Note_on_c, 5, 56, 127
10, 194395, Note_off_c, 5, 56, 64
10, 195600, Note_on_c, 5, 59, 127
10, 195835, Note_off_c, 5, 59, 64
10, 196800, Note_on_c, 5, 48, 92
10, 197200, Note_off_c, 5, 48, 64
10, 197280, Note_on_c, 5, 55, 92
10, 198120, Note_off_c, 5, 55, 64
10, 198240, Note_on_c, 5, 51, 92
10, 198640, Note_off_c, 5, 51, 64
10, 198720, Note_on_c, 5, 53, 92
10, 199560, Note_off_c, 5, 53, 64
10, 199680, Note_on_c, 5, 55, 92
10, 200080, Note_off_c, 5, 55, 64
10, 200160, Note_on_c, 5, 56, 92
10, 201000, Note_off_c, 5, 56, 64
10, 201120, Note_on_c, 5, 53, 92
10, 201520, Note_off_c, 5, 53, 64
10, 201600, Note_on_c, 5, 55, 92
10, 202440, Note_off_c, 5, 55, 64
10, 202560, Note_on_c, 5, 50, 92
10, 202960, Note_off_c, 5, 50, 64
10, 203040, Note_on_c, 5, 51, 92
10, 203880, Note_off_c, 5, 51, 64
10, 204000, Note_on_c, 5, 47, 92
10, 204400, Note_off_c, 5, 47, 64
10, 204480, Note_on_c, 5, 48, 92
10, 205320, Note_off_c, 5, 48, 64
10, 205440, Note_on_c, 5, 53, 92
10, 205840, Note_off_c, 5, 53, 64
10, 205920, Note_on_c, 5, 55, 92
10, 207240, Note_off_c, 5, 55, 64
10, 207360, Note_on_c, 5, 48, 92
10, 208200, Note_off_c, 5, 48, 64
10, 208560, Note_on_c, 5, 63, 108
10, 208795, Note_off_c, 5, 63, 64
10, 208800, Note_on_c, 5, 62, 108
10, 209640, Note_off_c, 5, 62, 64
10, 210000, Note_on_c, 5, 63, 108
10, 210235, Note_off_c, 5, 63, 64
10, 210240, Note_on_c, 5, 60, 108
10, 211080, Note_off_c, 5, 60, 64
10, 211440, Note_on_c, 5, 62, 108
10, 211675, Note_off_c, 5, 62, 64
10, 211680, Note_on_c, 5, 63, 108
10, 212520, Note_off_c, 5, 63, 64
10, 212880, Note_on_c, 5, 60, 108
10, 213115, Note_off_c, 5, 60, 64
10, 213120, Note_on_c, 5, 62, 108
10, 213960, Note_off_c, 5, 62, 64
10, 214320, Note_on_c, 5, 62, 108
10, 214555, Note_off_c, 5, 62, 64
10, 214560, Note_on_c, 5, 63, 108
10, 215400, Note_off_c, 5, 63, 64
10, 215760, Note_on_c, 5, 62, 108
10, 215995, Note_off_c, 5, 62, 64
10, 216000, Note_on_c, 5, 63, 108
10, 216840, Note_off_c, 5, 63, 64
10, 217200, Note_on_c, 5, 60, 108
10, 217435, Note_off_c, 5, 60, 64
10, 217440, Note_on_c, 5, 62, 108
10, 218280, Note_off_c, 5, 62, 64
10, 218640, Note_on_c, 5, 62, 108
10, 218875, Note_off_c, 5, 62, 64
10, 218880, Note_on_c, 5, 63, 108
10, 219720, Note_off_c, 5, 63, 64
10, 219840, Note_on_c, 5, 60, 108
10, 220240, Note_off_c, 5, 60, 64
10, 220320, Note_on_c, 5, 59, 108
10, 221160, Note_off_c, 5, 59, 64
10, 221280, Note_on_c, 5, 60, 108
10, 221680, Note_off_c, 5, 60, 64
10, 221760, Note_on_c, 5, 60, 108
10, 222600, Note_off_c, 5, 60, 64
10, 222720, Note_on_c, 5, 59, 108
10, 223120, Note_off_c, 5, 59, 64
10, 223200, Note_on_c, 5, 60, 108
10, 224040, Note_off_c, 5, 60, 64
10, 224160, Note_on_c, 5, 60, 108
10, 224560, Note_off_c, 5, 60, 64
10, 224640, Note_on_c, 5, 59, 108
10, 225480, Note_off_c, 5, 59, 64
10, 225600, Note_on_c, 5, 59, 108
10, 226000, Note_off_c, 5, 59, 64
10, 226080, Note_on_c, 5, 60, 108
10, 226920, Note_off_c, 5, 60, 64
10, 227040, Note_on_c, 5, 62, 108
10, 227440, Note_off_c, 5, 62, 64
10, 227520, Note_on_c, 5, 63, 108
10, 228360, Note_off_c, 5, 63, 64
10, 228480, Note_on_c, 5, 62, 108
10, 228880, Note_off_c, 5, 62, 64
10, 228960, Note_on_c, 5, 60, 108
10, 229920, Note_off_c, 5, 60, 64
10, 229920, Note_on_c, 5, 59, 108
10, 230320, Note_off_c, 5, 59, 64
10, 230400, Note_on_c, 5, 60, 108
10, 231240, Note_off_c, 5, 60, 64
10, 231360, Note_on_c, 5, 48, 108
10, 231760, Note_off_c, 5, 48, 64
10, 231840, Note_on_c, 5, 55, 108
10, 232680, Note_off_c, 5, 55, 64
10, 232800, Note_on_c, 5, 51, 108
10, 233200, Note_off_c, 5, 51, 64
10, 233280, Note_on_c, 5, 53, 108
10, 234120, Note_off_c, 5, 53, 64
10, 234240, Note_on_c, 5, 55, 108
10, 234640, Note_off_c, 5, 55, 64
10, 234720, Note_on_c, 5, 56, 108
10, 235560, Note_off_c, 5, 56, 64
10, 235680, Note_on_c, 5, 53, 108
10, 236080, Note_off_c, 5, 53, 64
10, 236160, Note_on_c, 5, 55, 108
10, 237000, Note_off_c, 5, 55, 64
10, 237120, Note_on_c, 5, 50, 108
10, 237520, Note_off_c, 5, 50, 64
10, 237600, Note_on_c, 5, 51, 108
10, 238440, Note_off_c, 5, 51, 64
10, 238560, Note_on_c, 5, 47, 108
10, 238960, Note_off_c, 5, 47, 64
10, 239040, Note_on_c, 5, 48, 108
10, 239880, Note_off_c, 5, 48, 64
10, 240000, Note_on_c, 5, 53, 108
10, 240400, Note_off_c, 5, 53, 64
10, 240480, Note_on_c, 5, 55, 108
10, 241800, Note_off_c, 5, 55, 64
10, 241920, Note_on_c, 5, 48, 60
10, 243240, Note_off_c, 5, 48, 64
10, 276000, Note_on_c, 5, 48, 75
10, 276400, Note_off_c, 5, 48, 64
10, 276480, Note_on_c, 5, 55, 75
10, 277320, Note_off_c, 5, 55, 64
10, 277440, Note_on_c, 5, 51, 75
10, 277840, Note_off_c, 5, 51, 64
10, 277920, Note_on_c, 5, 53, 75
10, 278760, Note_off_c, 5, 53, 64
10, 278880, Note_on_c, 5, 55, 75
10, 279280, Note_off_c, 5, 55, 64
10, 279360, Note_on_c, 5, 56, 75
10, 280200, Note_off_c, 5, 56, 64
10, 280320, Note_on_c, 5, 53, 75
10, 280720, Note_off_c, 5, 53, 64
10, 280800, Note_on_c, 5, 55, 75
10, 281640, Note_off_c, 5, 55, 64
10, 281760, Note_on_c, 5, 56, 75
10, 282160, Note_off_c, 5, 56, 64
10, 282240, Note_on_c, 5, 58, 75
10, 282640, Note_off_c, 5, 58, 64
10, 282720, Note_on_c, 5, 46, 75
10, 283560, Note_off_c, 5, 46, 64
10, 283680, Note_on_c, 5, 51, 75
10, 284080, Note_off_c, 5, 51, 64
10, 285360, Note_on_c, 5, 55, 75
10, 285600, Note_off_c, 5, 55, 64
10, 285600, Note_on_c, 5, 50, 75
10, 285835, Note_off_c, 5, 50, 64
10, 285840, Note_on_c, 5, 50, 75
10, 286080, Note_off_c, 5, 50, 64
10, 286080, Note_on_c, 5, 51, 75
10, 286480, Note_off_c, 5, 51, 64
10, 286800, Note_on_c, 5, 60, 75
10, 287040, Note_off_c, 5, 60, 64
10, 287040, Note_on_c, 5, 53, 75
10, 287275, Note_off_c, 5, 53, 64
10, 287280, Note_on_c, 5, 53, 75
10, 287520, Note_off_c, 5, 53, 64
10, 287520, Note_on_c, 5, 55, 75
10, 287920, Note_off_c, 5, 55, 64
10, 288240, Note_on_c, 5, 56, 75
10, 288480, Note_off_c, 5, 56, 64
10, 288480, Note_on_c, 5, 51, 75
10, 288715, Note_off_c, 5, 51, 64
10, 288720, Note_on_c, 5, 51, 75
10, 288960, Note_off_c, 5, 51, 64
10, 288960, Note_on_c, 5, 53, 75
10, 289360, Note_off_c, 5, 53, 64
10, 289680, Note_on_c, 5, 55, 75
10, 289920, Note_off_c, 5, 55, 64
10, 289920, Note_on_c, 5, 50, 75
10, 290155, Note_off_c, 5, 50, 64
10, 290160, Note_on_c, 5, 50, 75
10, 290400, Note_off_c, 5, 50, 64
10, 290400, Note_on_c, 5, 51, 75
10, 290800, Note_off_c, 5, 51, 64
10, 291120, Note_on_c, 5, 53, 75
10, 291360, Note_off_c, 5, 53, 64
10, 291360, Note_on_c, 5, 48, 75
10, 291595, Note_off_c, 5, 48, 64
10, 291600, Note_on_c, 5, 48, 75
10, 291840, Note_off_c, 5, 48, 64
10, 291840, Note_on_c, 5, 50, 75
10, 292240, Note_off_c, 5, 50, 64
10, 292320, Note_on_c, 5, 51, 75
10, 293160, Note_off_c, 5, 51, 64
10, 317760, Note_on_c, 5, 55, 92
10, 318160, Note_off_c, 5, 55, 64
10, 318240, Note_on_c, 5, 62, 92
10, 319080, Note_off_c, 5, 62, 64
10, 319200, Note_on_c, 5, 58, 92
10, 319600, Note_off_c, 5, 58, 64
10, 319680, Note_on_c, 5, 60, 92
10, 320520, Note_off_c, 5, 60, 64
10, 320640, Note_on_c, 5, 62, 92
10, 321040, Note_off_c, 5, 62, 64
10, 321120, Note_on_c, 5, 63, 92
10, 321960, Note_off_c, 5, 63, 64
10, 322080, Note_on_c, 5, 60, 92
10, 322480, Note_off_c, 5, 60, 64
10, 322560, Note_on_c, 5, 62, 75
10, 323200, Note_off_c, 5, 62, 64
10, 323280, Note_on_c, 5, 64, 60
10, 323520, Note_off_c, 5, 64, 64
10, 323520, Note_on_c, 5, 66, 60
10, 323760, Note_off_c, 5, 66, 64
10, 323760, Note_on_c, 5, 62, 60
10, 323995, Note_off_c, 5, 62, 64
10, 324000, Note_on_c, 5, 67, 60
10, 324240, Note_off_c, 5, 67, 64
10, 324240, Note_on_c, 5, 67, 60
10, 324480, Note_off_c, 5, 67, 64
10, 324480, Note_on_c, 5, 62, 60
10, 324720, Note_off_c, 5, 62, 64
10, 324720, Note_on_c, 5, 62, 60
10, 324960, Note_off_c, 5, 62, 64
10, 324960, Note_on_c, 5, 63, 60
10, 325200, Note_off_c, 5, 63, 64
10, 325200, Note_on_c, 5, 63, 60
10, 325435, Note_off_c, 5, 63, 64
10, 325440, Note_on_c, 5, 65, 60
10, 325680, Note_off_c, 5, 65, 64
10, 325680, Note_on_c, 5, 65, 60
10, 325920, Note_off_c, 5, 65, 64
10, 325920, Note_on_c, 5, 60, 60
10, 326160, Note_off_c, 5, 60, 64
10, 326160, Note_on_c, 5, 60, 60
10, 326400, Note_off_c, 5, 60, 64
10, 326400, Note_on_c, 5, 62, 60
10, 326640, Note_off_c, 5, 62, 64
10, 326640, Note_on_c, 5, 62, 60
10, 326875, Note_off_c, 5, 62, 64
10, 326880, Note_on_c, 5, 63, 60
10, 327120, Note_off_c, 5, 63, 64
10, 327120, Note_on_c, 5, 63, 60
10, 327360, Note_off_c, 5, 63, 64
10, 327360, Note_on_c, 5, 58, 60
10, 327600, Note_off_c, 5, 58, 64
10, 327600, Note_on_c, 5, 58, 60
10, 327840, Note_off_c, 5, 58, 64
10, 327840, Note_on_c, 5, 60, 60
10, 328080, Note_off_c, 5, 60, 64
10, 328080, Note_on_c, 5, 60, 60
10, 328320, Note_off_c, 5, 60, 64
10, 328320, Note_on_c, 5, 62, 60
10, 328960, Note_off_c, 5, 62, 64
10, 329040, Note_on_c, 5, 62, 60
10, 329280, Note_off_c, 5, 62, 64
10, 329280, Note_on_c, 5, 63, 60
10, 329520, Note_off_c, 5, 63, 64
10, 329520, Note_on_c, 5, 62, 60
10, 329760, Note_off_c, 5, 62, 64
10, 329760, Note_on_c, 5, 60, 60
10, 330240, Note_off_c, 5, 60, 64
10, 330240, Note_on_c, 5, 65, 60
10, 330720, Note_off_c, 5, 65, 64
10, 330720, Note_on_c, 5, 57, 60
10, 331200, Note_off_c, 5, 57, 64
10, 331200, Note_on_c, 5, 58, 60
10, 332040, Note_off_c, 5, 58, 64
10, 345120, Note_on_c, 5, 67, 60
10, 345355, Note_off_c, 5, 67, 64
10, 345360, Note_on_c, 5, 69, 60
10, 345595, Note_off_c, 5, 69, 64
10, 345600, Note_on_c, 5, 58, 60
10, 345835, Note_off_c, 5, 58, 64
10, 345840, Note_on_c, 5, 60, 60
10, 346075, Note_off_c, 5, 60, 64
10, 346080, Note_on_c, 5, 62, 60
10, 346315, Note_off_c, 5, 62, 64
10, 346320, Note_on_c, 5, 63, 60
10, 346555, Note_off_c, 5, 63, 64
10, 346560, Note_on_c, 5, 65, 60
10, 346795, Note_off_c, 5, 65, 64
10, 346800, Note_on_c, 5, 67, 60
10, 347035, Note_off_c, 5, 67, 64
10, 347040, Note_on_c, 5, 56, 60
10, 347275, Note_off_c, 5, 56, 64
10, 347280, Note_on_c, 5, 58, 60
10, 347515, Note_off_c, 5, 58, 64
10, 347520, Note_on_c, 5, 60, 60
10, 347755, Note_off_c, 5, 60, 64
10, 347760, Note_on_c, 5, 62, 60
10, 347995, Note_off_c, 5, 62, 64
10, 348000, Note_on_c, 5, 63, 60
10, 348235, Note_off_c, 5, 63, 64
10, 348240, Note_on_c, 5, 65, 60
10, 348475, Note_off_c, 5, 65, 64
10, 348480, Note_on_c, 5, 67, 60
10, 348715, Note_off_c, 5, 67, 64
10, 348720, Note_on_c, 5, 68, 60
10, 348955, Note_off_c, 5, 68, 64
10, 348960, Note_on_c, 5, 58, 60
10, 349195, Note_off_c, 5, 58, 64
10, 349200, Note_on_c, 5, 60, 60
10, 349435, Note_off_c, 5, 60, 64
10, 349440, Note_on_c, 5, 62, 60
10, 349675, Note_off_c, 5, 62, 64
10, 349680, Note_on_c, 5, 64, 60
10, 349915, Note_off_c, 5, 64, 64
10, 349920, Note_on_c, 5, 65, 60
10, 350155, Note_off_c, 5, 65, 64
10, 350160, Note_on_c, 5, 55, 60
10, 350395, Note_off_c, 5, 55, 64
10, 350400, Note_on_c, 5, 56, 60
10, 350635, Note_off_c, 5, 56, 64
10, 350640, Note_on_c, 5, 58, 60
10, 350875, Note_off_c, 5, 58, 64
10, 350880, Note_on_c, 5, 60, 60
10, 351115, Note_off_c, 5, 60, 64
10, 351120, Note_on_c, 5, 62, 60
10, 351355, Note_off_c, 5, 62, 64
10, 351360, Note_on_c, 5, 63, 60
10, 352000, Note_off_c, 5, 63, 64
10, 352080, Note_on_c, 5, 62, 60
10, 352315, Note_off_c, 5, 62, 64
10, 354480, Note_on_c, 5, 70, 75
10, 354720, Note_off_c, 5, 70, 64
10, 354720, Note_on_c, 5, 66, 75
10, 354955, Note_off_c, 5, 66, 64
10, 354960, Note_on_c, 5, 66, 75
10, 355200, Note_off_c, 5, 66, 64
10, 355200, Note_on_c, 5, 67, 75
10, 355600, Note_off_c, 5, 67, 64
10, 355920, Note_on_c, 5, 63, 75
10, 356160, Note_off_c, 5, 63, 64
10, 356160, Note_on_c, 5, 69, 75
10, 356395, Note_off_c, 5, 69, 64
10, 356400, Note_on_c, 5, 69, 75
10, 356640, Note_off_c, 5, 69, 64
10, 356640, Note_on_c, 5, 71, 75
10, 357040, Note_off_c, 5, 71, 64
10, 357360, Note_on_c, 5, 72, 75
10, 357600, Note_off_c, 5, 72, 64
10, 357600, Note_on_c, 5, 67, 75
10, 357835, Note_off_c, 5, 67, 64
10, 357840, Note_on_c, 5, 67, 75
10, 358080, Note_off_c, 5, 67, 64
10, 358080, Note_on_c, 5, 69, 75
10, 358480, Note_off_c, 5, 69, 64
10, 358560, Note_on_c, 5, 62, 75
10, 359400, Note_off_c, 5, 62, 64
10, 359520, Note_on_c, 5, 55, 75
10, 359920, Note_off_c, 5, 55, 64
10, 360000, Note_on_c, 5, 60, 75
10, 360240, Note_off_c, 5, 60, 64
10, 360240, Note_on_c, 5, 58, 75
10, 360480, Note_off_c, 5, 58, 64
10, 360480, Note_on_c, 5, 57, 75
10, 360720, Note_off_c, 5, 57, 64
10, 360720, Note_on_c, 5, 62, 75
10, 360960, Note_off_c, 5, 62, 64
10, 360960, Note_on_c, 5, 58, 75
10, 361200, Note_off_c, 5, 58, 64
10, 361200, Note_on_c, 5, 55, 75
10, 361435, Note_off_c, 5, 55, 64
10, 361440, Note_on_c, 5, 60, 75
10, 361680, Note_off_c, 5, 60, 64
10, 361680, Note_on_c, 5, 65, 75
10, 361920, Note_off_c, 5, 65, 64
10, 361920, Note_on_c, 5, 58, 75
10, 362160, Note_off_c, 5, 58, 64
10, 362160, Note_on_c, 5, 63, 75
10, 362400, Note_off_c, 5, 63, 64
10, 362400, Note_on_c, 5, 57, 75
10, 362640, Note_off_c, 5, 57, 64
10, 362640, Note_on_c, 5, 62, 75
10, 362875, Note_off_c, 5, 62, 64
10, 363120, Note_on_c, 5, 65, 75
10, 363360, Note_off_c, 5, 65, 64
10, 363360, Note_on_c, 5, 63, 75
10, 363600, Note_off_c, 5, 63, 64
10, 363600, Note_on_c, 5, 60, 75
10, 363835, Note_off_c, 5, 60, 64
10, 363840, Note_on_c, 5, 62, 75
10, 364080, Note_off_c, 5, 62, 64
10, 364080, Note_on_c, 5, 50, 75
10, 364320, Note_off_c, 5, 50, 64
10, 364320, Note_on_c, 5, 55, 75
10, 364720, Note_off_c, 5, 55, 64
10, 365520, Note_on_c, 5, 67, 75
10, 365755, Note_off_c, 5, 67, 64
10, 365760, Note_on_c, 5, 60, 75
10, 366400, Note_off_c, 5, 60, 64
10, 366480, Note_on_c, 5, 62, 75
10, 366715, Note_off_c, 5, 62, 64
10, 366720, Note_on_c, 5, 64, 75
10, 366955, Note_off_c, 5, 64, 64
10, 366960, Note_on_c, 5, 60, 75
10, 367195, Note_off_c, 5, 60, 64
10, 367200, Note_on_c, 5, 65, 75
10, 368040, Note_off_c, 5, 65, 64
10, 368160, Note_on_c, 5, 53, 92
10, 368560, Note_off_c, 5, 53, 64
10, 368640, Note_on_c, 5, 60, 92
10, 369480, Note_off_c, 5, 60, 64
10, 369600, Note_on_c, 5, 56, 92
10, 370000, Note_off_c, 5, 56, 64
10, 370080, Note_on_c, 5, 58, 92
10, 370920, Note_off_c, 5, 58, 64
10, 371040, Note_on_c, 5, 60, 92
10, 371440, Note_off_c, 5, 60, 64
10, 371520, Note_on_c, 5, 61, 92
10, 372360, Note_off_c, 5, 61, 64
10, 372480, Note_on_c, 5, 58, 92
10, 372880, Note_off_c, 5, 58, 64
10, 372960, Note_on_c, 5, 60, 92
10, 373555, Note_off_c, 5, 60, 64
10, 391200, Note_on_c, 5, 48, 92
10, 391600, Note_off_c, 5, 48, 64
10, 391680, Note_on_c, 5, 55, 92
10, 392520, Note_off_c, 5, 55, 64
10, 392640, Note_on_c, 5, 51, 92
10, 393040, Note_off_c, 5, 51, 64
10, 393120, Note_on_c, 5, 53, 92
10, 393960, Note_off_c, 5, 53, 64
10, 394080, Note_on_c, 5, 55, 92
10, 394480, Note_off_c, 5, 55, 64
10, 394560, Note_on_c, 5, 56, 92
10, 395400, Note_off_c, 5, 56, 64
10, 395520, Note_on_c, 5, 53, 92
10, 395920, Note_off_c, 5, 53, 64
10, 396000, Note_on_c, 5, 55, 92
10, 397320, Note_off_c, 5, 55, 64
10, 397440, Note_on_c, 5, 62, 108
10, 397840, Note_off_c, 5, 62, 64
10, 397920, Note_on_c, 5, 67, 127
10, 398155, Note_off_c, 5, 67, 64
10, 398160, Note_on_c, 5, 67, 127
10, 398395, Note_off_c, 5, 67, 64
10, 398400, Note_on_c, 5, 63, 127
10, 398635, Note_off_c, 5, 63, 64
10, 398640, Note_on_c, 5, 63, 127
10, 398875, Note_off_c, 5, 63, 64
10, 398880, Note_on_c, 5, 60, 127
10, 399280, Note_off_c, 5, 60, 64
10, 399360, Note_on_c, 5, 65, 127
10, 399595, Note_off_c, 5, 65, 64
10, 399600, Note_on_c, 5, 65, 127
10, 399835, Note_off_c, 5, 65, 64
10, 399840, Note_on_c, 5, 62, 127
10, 400075, Note_off_c, 5, 62, 64
10, 400080, Note_on_c, 5, 62, 127
10, 400315, Note_off_c, 5, 62, 64
10, 400320, Note_on_c, 5, 59, 127
10, 400720, Note_off_c, 5, 59, 64
10, 400800, Note_on_c, 5, 63, 127
10, 401035, Note_off_c, 5, 63, 64
10, 401040, Note_on_c, 5, 63, 127
10, 401275, Note_off_c, 5, 63, 64
10, 401280, Note_on_c, 5, 60, 127
10, 401515, Note_off_c, 5, 60, 64
10, 401520, Note_on_c, 5, 60, 127
10, 401755, Note_off_c, 5, 60, 64
10, 401760, Note_on_c, 5, 57, 127
10, 402160, Note_off_c, 5, 57, 64
10, 402240, Note_on_c, 5, 62, 127
10, 402475, Note_off_c, 5, 62, 64
10, 402480, Note_on_c, 5, 62, 127
10, 402715, Note_off_c, 5, 62, 64
10, 402720, Note_on_c, 5, 59, 127
10, 402955, Note_off_c, 5, 59, 64
10, 402960, Note_on_c, 5, 59, 127
10, 403195, Note_off_c, 5, 59, 64
10, 403200, Note_on_c, 5, 55, 127
10, 403600, Note_off_c, 5, 55, 64
10, 403680, Note_on_c, 5, 60, 127
10, 403915, Note_off_c, 5, 60, 64
10, 403920, Note_on_c, 5, 60, 127
10, 404155, Note_off_c, 5, 60, 64
10, 404160, Note_on_c, 5, 56, 127
10, 404395, Note_off_c, 5, 56, 64
10, 404400, Note_on_c, 5, 56, 127
10, 404635, Note_off_c, 5, 56, 64
10, 404640, Note_on_c, 5, 50, 127
10, 405040, Note_off_c, 5, 50, 64
10, 405360, Note_on_c, 5, 55, 108
10, 405595, Note_off_c, 5, 55, 64
10, 405600, Note_on_c, 5, 55, 108
10, 405835, Note_off_c, 5, 55, 64
10, 405840, Note_on_c, 5, 55, 108
10, 406075, Note_off_c, 5, 55, 64
10, 406200, Note_on_c, 5, 55, 127
10, 406315, Note_off_c, 5, 55, 64
10, 406320, Note_on_c, 5, 53, 127
10, 406435, Note_off_c, 5, 53, 64
10, 406440, Note_on_c, 5, 55, 127
10, 406555, Note_off_c, 5, 55, 64
10, 406560, Note_on_c, 5, 50, 127
10, 406795, Note_off_c, 5, 50, 64
10, 406800, Note_on_c, 5, 59, 127
10, 407035, Note_off_c, 5, 59, 64
10, 407040, Note_on_c, 5, 55, 127
10, 407275, Note_off_c, 5, 55, 64
10, 407280, Note_on_c, 5, 55, 127
10, 407515, Note_off_c, 5, 55, 64
10, 407640, Note_on_c, 5, 55, 127
10, 407755, Note_off_c, 5, 55, 64
10, 407760, Note_on_c, 5, 53, 127
10, 407875, Note_off_c, 5, 53, 64
10, 407880, Note_on_c, 5, 55, 127
10, 407995, Note_off_c, 5, 55, 64
10, 408000, Note_on_c, 5, 50, 127
10, 408235, Note_off_c, 5, 50, 64
10, 408240, Note_on_c, 5, 59, 127
10, 408475, Note_off_c, 5, 59, 64
10, 408480, Note_on_c, 5, 60, 127
10, 408715, Note_off_c, 5, 60, 64
10, 408720, Note_on_c, 5, 60, 127
10, 408955, Note_off_c, 5, 60, 64
10, 409080, Note_on_c, 5, 55, 127
10, 409195, Note_off_c, 5, 55, 64
10, 409200, Note_on_c, 5, 53, 127
10, 409315, Note_off_c, 5, 53, 64
10, 409320, Note_on_c, 5, 55, 127
10, 409435, Note_off_c, 5, 55, 64
10, 409440, Note_on_c, 5, 50, 127
10, 409675, Note_off_c, 5, 50, 64
10, 409680, Note_on_c, 5, 59, 127
10, 409915, Note_off_c, 5, 59, 64
10, 409920, Note_on_c, 5, 60, 127
10, 410155, Note_off_c, 5, 60, 64
10, 410160, Note_on_c, 5, 63, 127
10, 410395, Note_off_c, 5, 63, 64
10, 410400, Note_on_c, 5, 61, 127
10, 410800, Note_off_c, 5, 61, 64
10, 411120, Note_on_c, 5, 62, 127
10, 411355, Note_off_c, 5, 62, 64
10, 411360, Note_on_c, 5, 63, 127
10, 411760, Note_off_c, 5, 63, 64
10, 411840, Note_on_c, 5, 60, 127
10, 412680, Note_off_c, 5, 60, 64
10, 412800, Note_on_c, 5, 59, 127
10, 413200, Note_off_c, 5, 59, 64
10, 413280, Note_on_c, 5, 60, 113
10, 413520, Note_off_c, 5, 60, 64
10, 413520, Note_on_c, 5, 62, 106
10, 413760, Note_off_c, 5, 62, 64
10, 413760, Note_on_c, 5, 64, 99
10, 414000, Note_off_c, 5, 64, 64
10, 414000, Note_on_c, 5, 67, 92
10, 414240, Note_off_c, 5, 67, 64
10, 414240, Note_on_c, 5, 65, 92
10, 414480, Note_off_c, 5, 65, 64
10, 414480, Note_on_c, 5, 65, 92
10, 414715, Note_off_c, 5, 65, 64
10, 414720, Note_on_c, 5, 60, 92
10, 414835, Note_off_c, 5, 60, 64
10, 414840, Note_on_c, 5, 60, 127
10, 414955, Note_off_c, 5, 60, 64
10, 414960, Note_on_c, 5, 58, 127
10, 415075, Note_off_c, 5, 58, 64
10, 415080, Note_on_c, 5, 60, 127
10, 415195, Note_off_c, 5, 60, 64
10, 415200, Note_on_c, 5, 55, 127
10, 415435, Note_off_c, 5, 55, 64
10, 415440, Note_on_c, 5, 60, 92
10, 415680, Note_off_c, 5, 60, 64
10, 415680, Note_on_c, 5, 60, 92
10, 415920, Note_off_c, 5, 60, 64
10, 415920, Note_on_c, 5, 60, 92
10, 416160, Note_off_c, 5, 60, 64
10, 416160, Note_on_c, 5, 60, 92
10, 416275, Note_off_c, 5, 60, 64
10, 416280, Note_on_c, 5, 60, 127
10, 416395, Note_off_c, 5, 60, 64
10, 416400, Note_on_c, 5, 58, 127
10, 416515, Note_off_c, 5, 58, 64
10, 416520, Note_on_c, 5, 60, 127
10, 416635, Note_off_c, 5, 60, 64
10, 416640, Note_on_c, 5, 55, 127
10, 416875, Note_off_c, 5, 55, 64
10, 416880, Note_on_c, 5, 64, 92
10, 417120, Note_off_c, 5, 64, 64
10, 417120, Note_on_c, 5, 65, 92
10, 417360, Note_off_c, 5, 65, 64
10, 417360, Note_on_c, 5, 65, 92
10, 417600, Note_off_c, 5, 65, 64
10, 417600, Note_on_c, 5, 64, 92
10, 417715, Note_off_c, 5, 64, 64
10, 417720, Note_on_c, 5, 58, 127
10, 417835, Note_off_c, 5, 58, 64
10, 417840, Note_on_c, 5, 56, 127
10, 417955, Note_off_c, 5, 56, 64
10, 417960, Note_on_c, 5, 58, 127
10, 418075, Note_off_c, 5, 58, 64
10, 418200, Note_on_c, 5, 64, 127
10, 418315, Note_off_c, 5, 64, 64
10, 418320, Note_on_c, 5, 62, 127
10, 418435, Note_off_c, 5, 62, 64
10, 418440, Note_on_c, 5, 64, 127
10, 418555, Note_off_c, 5, 64, 64
10, 418560, Note_on_c, 5, 60, 127
10, 418795, Note_off_c, 5, 60, 64
10, 418800, Note_on_c, 5, 65, 92
10, 419040, Note_off_c, 5, 65, 64
10, 419040, Note_on_c, 5, 56, 92
10, 419440, Note_off_c, 5, 56, 64
10, 419640, Note_on_c, 5, 56, 92
10, 419760, Note_off_c, 5, 56, 64
10, 419760, Note_on_c, 5, 55, 92
10, 419880, Note_off_c, 5, 55, 64
10, 419880, Note_on_c, 5, 56, 92
10, 420355, Note_off_c, 5, 56, 64
10, 420360, Note_on_c, 5, 59, 92
10, 420480, Note_off_c, 5, 59, 64
10, 420480, Note_on_c, 5, 55, 92
10, 421800, Note_off_c, 5, 55, 64
10, 421800, End_track
11, 0, Start_track
11, 0, MIDI_port, 0
11, 0, Channel_prefix, 6
11, 0, Control_c, 6, 7, 127
11, 0, Control_c, 6, 10, 60
11, 0, Control_c, 6, 91, 61
11, 0, Program_c, 6, 56
11, 93120, Note_on_c, 6, 60, 60
11, 93520, Note_off_c, 6, 60, 64
11, 93600, Note_on_c, 6, 67, 60
11, 94440, Note_off_c, 6, 67, 64
11, 94560, Note_on_c, 6, 63, 60
11, 94960, Note_off_c, 6, 63, 64
11, 95040, Note_on_c, 6, 65, 60
11, 95880, Note_off_c, 6, 65, 64
11, 96000, Note_on_c, 6, 67, 60
11, 96400, Note_off_c, 6, 67, 64
11, 96480, Note_on_c, 6, 68, 60
11, 97320, Note_off_c, 6, 68, 64
11, 97440, Note_on_c, 6, 65, 60
11, 97840, Note_off_c, 6, 65, 64
11, 97920, Note_on_c, 6, 67, 60
11, 98760, Note_off_c, 6, 67, 64
11, 98880, Note_on_c, 6, 62, 60
11, 99280, Note_off_c, 6, 62, 64
11, 99360, Note_on_c, 6, 63, 60
11, 100200, Note_off_c, 6, 63, 64
11, 100320, Note_on_c, 6, 59, 60
11, 100720, Note_off_c, 6, 59, 64
11, 100800, Note_on_c, 6, 60, 60
11, 101640, Note_off_c, 6, 60, 64
11, 101760, Note_on_c, 6, 65, 60
11, 102160, Note_off_c, 6, 65, 64
11, 102240, Note_on_c, 6, 67, 62
11, 103560, Note_off_c, 6, 67, 64
11, 103680, Note_on_c, 6, 60, 69
11, 104080, Note_off_c, 6, 60, 64
11, 104880, Note_on_c, 6, 72, 75
11, 105115, Note_off_c, 6, 72, 64
11, 105120, Note_on_c, 6, 67, 75
11, 105520, Note_off_c, 6, 67, 64
11, 106320, Note_on_c, 6, 63, 75
11, 106555, Note_off_c, 6, 63, 64
11, 106560, Note_on_c, 6, 65, 75
11, 106960, Note_off_c, 6, 65, 64
11, 107760, Note_on_c, 6, 67, 75
11, 107995, Note_off_c, 6, 67, 64
11, 108000, Note_on_c, 6, 68, 75
11, 108400, Note_off_c, 6, 68, 64
11, 109200, Note_on_c, 6, 65, 75
11, 109435, Note_off_c, 6, 65, 64
11, 109440, Note_on_c, 6, 67, 75
11, 109840, Note_off_c, 6, 67, 64
11, 110640, Note_on_c, 6, 62, 75
11, 110875, Note_off_c, 6, 62, 64
11, 110880, Note_on_c, 6, 63, 75
11, 111280, Note_off_c, 6, 63, 64
11, 112080, Note_on_c, 6, 71, 75
11, 112315, Note_off_c, 6, 71, 64
11, 112320, Note_on_c, 6, 72, 75
11, 112720, Note_off_c, 6, 72, 64
11, 113520, Note_on_c, 6, 65, 75
11, 113755, Note_off_c, 6, 65, 64
11, 113760, Note_on_c, 6, 67, 75
11, 114160, Note_off_c, 6, 67, 64
11, 114960, Note_on_c, 6, 67, 77
11, 115195, Note_off_c, 6, 67, 64
11, 115200, Note_on_c, 6, 72, 80
11, 115600, Note_off_c, 6, 72, 64
11, 116160, Note_on_c, 6, 72, 92
11, 116160, Note_on_c, 6, 60, 92
11, 116560, Note_off_c, 6, 60, 64
11, 116560, Note_off_c, 6, 72, 64
11, 116640, Note_on_c, 6, 79, 92
11, 116640, Note_on_c, 6, 67, 92
11, 117040, Note_off_c, 6, 67, 64
11, 117040, Note_off_c, 6, 79, 64
11, 117600, Note_on_c, 6, 75, 92
11, 117600, Note_on_c, 6, 63, 92
11, 118000, Note_off_c, 6, 63, 64
11, 118000, Note_off_c, 6, 75, 64
11, 118080, Note_on_c, 6, 77, 92
11, 118080, Note_on_c, 6, 65, 92
11, 118480, Note_off_c, 6, 65, 64
11, 118480, Note_off_c, 6, 77, 64
11, 119040, Note_on_c, 6, 79, 92
11, 119040, Note_on_c, 6, 67, 92
11, 119440, Note_off_c, 6, 67, 64
11, 119440, Note_off_c, 6, 79, 64
11, 119520, Note_on_c, 6, 80, 92
11, 119520, Note_on_c, 6, 68, 92
11, 119920, Note_off_c, 6, 68, 64
11, 119920, Note_off_c, 6, 80, 64
11, 120480, Note_on_c, 6, 77, 92
11, 120480, Note_on_c, 6, 65, 92
11, 120880, Note_off_c, 6, 65, 64
11, 120880, Note_off_c, 6, 77, 64
11, 120960, Note_on_c, 6, 79, 92
11, 120960, Note_on_c, 6, 67, 92
11, 121360, Note_off_c, 6, 67, 64
11, 121360, Note_off_c, 6, 79, 64
11, 121920, Note_on_c, 6, 74, 92
11, 121920, Note_on_c, 6, 62, 92
11, 122320, Note_off_c, 6, 62, 64
11, 122320, Note_off_c, 6, 74, 64
11, 122400, Note_on_c, 6, 75, 92
11, 122400, Note_on_c, 6, 63, 92
11, 122800, Note_off_c, 6, 63, 64
11, 122800, Note_off_c, 6, 75, 64
11, 123360, Note_on_c, 6, 71, 92
11, 123360, Note_on_c, 6, 59, 92
11, 123760, Note_off_c, 6, 59, 64
11, 123760, Note_off_c, 6, 71, 64
11, 123840, Note_on_c, 6, 72, 92
11, 123840, Note_on_c, 6, 60, 92
11, 124240, Note_off_c, 6, 60, 64
11, 124240, Note_off_c, 6, 72, 64
11, 124800, Note_on_c, 6, 65, 92
11, 124800, Note_on_c, 6, 65, 92
11, 125200, Note_off_c, 6, 65, 64
11, 125200, Note_off_c, 6, 65, 64
11, 125280, Note_on_c, 6, 67, 92
11, 125280, Note_on_c, 6, 67, 92
11, 125680, Note_off_c, 6, 67, 64
11, 125680, Note_off_c, 6, 67, 64
11, 126240, Note_on_c, 6, 67, 75
11, 126240, Note_on_c, 6, 67, 75
11, 126640, Note_off_c, 6, 67, 64
11, 126640, Note_off_c, 6, 67, 64
11, 126720, Note_on_c, 6, 60, 60
11, 126720, Note_on_c, 6, 60, 60
11, 127120, Note_off_c, 6, 60, 64
11, 127120, Note_off_c, 6, 60, 64
11, 185520, Note_on_c, 6, 72, 127
11, 185520, Note_on_c, 6, 67, 127
11, 185755, Note_off_c, 6, 67, 64
11, 185755, Note_off_c, 6, 72, 64
11, 186960, Note_on_c, 6, 72, 127
11, 186960, Note_on_c, 6, 67, 127
11, 187195, Note_off_c, 6, 67, 64
11, 187195, Note_off_c, 6, 72, 64
11, 188400, Note_on_c, 6, 71, 127
11, 188400, Note_on_c, 6, 65, 127
11, 188635, Note_off_c, 6, 65, 64
11, 188635, Note_off_c, 6, 71, 64
11, 189840, Note_on_c, 6, 74, 127
11, 189840, Note_on_c, 6, 65, 127
11, 190075, Note_off_c, 6, 65, 64
11, 190075, Note_off_c, 6, 74, 64
11, 191280, Note_on_c, 6, 77, 127
11, 191280, Note_on_c, 6, 71, 127
11, 191515, Note_off_c, 6, 71, 64
11, 191515, Note_off_c, 6, 77, 64
11, 192720, Note_on_c, 6, 74, 127
11, 192720, Note_on_c, 6, 71, 127
11, 192955, Note_off_c, 6, 71, 64
11, 192955, Note_off_c, 6, 74, 64
11, 194160, Note_on_c, 6, 77, 127
11, 194160, Note_on_c, 6, 68, 127
11, 194395, Note_off_c, 6, 68, 64
11, 194395, Note_off_c, 6, 77, 64
11, 195600, Note_on_c, 6, 74, 127
11, 195600, Note_on_c, 6, 71, 127
11, 195835, Note_off_c, 6, 71, 64
11, 195835, Note_off_c, 6, 74, 64
11, 196800, Note_on_c, 6, 72, 92
11, 196800, Note_on_c, 6, 63, 92
11, 197200, Note_off_c, 6, 63, 64
11, 197200, Note_off_c, 6, 72, 64
11, 197280, Note_on_c, 6, 79, 92
11, 197280, Note_on_c, 6, 67, 92
11, 198120, Note_off_c, 6, 67, 64
11, 198120, Note_off_c, 6, 79, 64
11, 198240, Note_on_c, 6, 75, 92
11, 198240, Note_on_c, 6, 63, 92
11, 198640, Note_off_c, 6, 63, 64
11, 198640, Note_off_c, 6, 75, 64
11, 198720, Note_on_c, 6, 77, 92
11, 198720, Note_on_c, 6, 65, 92
11, 199560, Note_off_c, 6, 65, 64
11, 199560, Note_off_c, 6, 77, 64
11, 199680, Note_on_c, 6, 79, 92
11, 199680, Note_on_c, 6, 67, 92
11, 200080, Note_off_c, 6, 67, 64
11, 200080, Note_off_c, 6, 79, 64
11, 200160, Note_on_c, 6, 80, 92
11, 200160, Note_on_c, 6, 68, 92
11, 201000, Note_off_c, 6, 68, 64
11, 201000, Note_off_c, 6, 80, 64
11, 201120, Note_on_c, 6, 77, 92
11, 201120, Note_on_c, 6, 65, 92
11, 201520, Note_off_c, 6, 65, 64
11, 201520, Note_off_c, 6, 77, 64
11, 201600, Note_on_c, 6, 79, 92
11, 201600, Note_on_c, 6, 67, 92
11, 202440, Note_off_c, 6, 67, 64
11, 202440, Note_off_c, 6, 79, 64
11, 202560, Note_on_c, 6, 74, 92
11, 202560, Note_on_c, 6, 62, 92
11, 202960, Note_off_c, 6, 62, 64
11, 202960, Note_off_c, 6, 74, 64
11, 203040, Note_on_c, 6, 75, 92
11, 203040, Note_on_c, 6, 63, 92
11, 203880, Note_off_c, 6, 63, 64
11, 203880, Note_off_c, 6, 75, 64
11, 204000, Note_on_c, 6, 71, 92
11, 204000, Note_on_c, 6, 59, 92
11, 204400, Note_off_c, 6, 59, 64
11, 204400, Note_off_c, 6, 71, 64
11, 204480, Note_on_c, 6, 72, 92
11, 204480, Note_on_c, 6, 60, 92
11, 205320, Note_off_c, 6, 60, 64
11, 205320, Note_off_c, 6, 72, 64
11, 205440, Note_on_c, 6, 77, 92
11, 205440, Note_on_c, 6, 65, 92
11, 205840, Note_off_c, 6, 65, 64
11, 205840, Note_off_c, 6, 77, 64
11, 205920, Note_on_c, 6, 79, 92
11, 205920, Note_on_c, 6, 67, 92
11, 207240, Note_off_c, 6, 67, 64
11, 207240, Note_off_c, 6, 79, 64
11, 207360, Note_on_c, 6, 72, 92
11, 207360, Note_on_c, 6, 60, 92
11, 208200, Note_off_c, 6, 60, 64
11, 208200, Note_off_c, 6, 72, 64
11, 208560, Note_on_c, 6, 72, 108
11, 208560, Note_on_c, 6, 60, 108
11, 208795, Note_off_c, 6, 60, 64
11, 208795, Note_off_c, 6, 72, 64
11, 208800, Note_on_c, 6, 79, 108
11, 208800, Note_on_c, 6, 67, 108
11, 209640, Note_off_c, 6, 67, 64
11, 209640, Note_off_c, 6, 79, 64
11, 210000, Note_on_c, 6, 75, 108
11, 210000, Note_on_c, 6, 63, 108
11, 210235, Note_off_c, 6, 63, 64
11, 210235, Note_off_c, 6, 75, 64
11, 210240, Note_on_c, 6, 77, 108
11, 210240, Note_on_c, 6, 65, 108
11, 211080, Note_off_c, 6, 65, 64
11, 211080, Note_off_c, 6, 77, 64
11, 211440, Note_on_c, 6, 79, 108
11, 211440, Note_on_c, 6, 67, 108
11, 211675, Note_off_c, 6, 67, 64
11, 211675, Note_off_c, 6, 79, 64
11, 211680, Note_on_c, 6, 80, 108
11, 211680, Note_on_c, 6, 68, 108
11, 212520, Note_off_c, 6, 68, 64
11, 212520, Note_off_c, 6, 80, 64
11, 212880, Note_on_c, 6, 77, 108
11, 212880, Note_on_c, 6, 65, 108
11, 213115, Note_off_c, 6, 65, 64
11, 213115, Note_off_c, 6, 77, 64
11, 213120, Note_on_c, 6, 79, 108
11, 213120, Note_on_c, 6, 67, 108
11, 213960, Note_off_c, 6, 67, 64
11, 213960, Note_off_c, 6, 79, 64
11, 214320, Note_on_c, 6, 74, 108
11, 214320, Note_on_c, 6, 62, 108
11, 214555, Note_off_c, 6, 62, 64
11, 214555, Note_off_c, 6, 74, 64
11, 214560, Note_on_c, 6, 75, 108
11, 214560, Note_on_c, 6, 63, 108
11, 215400, Note_off_c, 6, 63, 64
11, 215400, Note_off_c, 6, 75, 64
11, 215760, Note_on_c, 6, 71, 108
11, 215760, Note_on_c, 6, 59, 108
11, 215995, Note_off_c, 6, 59, 64
11, 215995, Note_off_c, 6, 71, 64
11, 216000, Note_on_c, 6, 72, 108
11, 216000, Note_on_c, 6, 60, 108
11, 216840, Note_off_c, 6, 60, 64
11, 216840, Note_off_c, 6, 72, 64
11, 217200, Note_on_c, 6, 65, 108
11, 217435, Note_off_c, 6, 65, 64
11, 217440, Note_on_c, 6, 67, 108
11, 218280, Note_off_c, 6, 67, 64
11, 218640, Note_on_c, 6, 67, 108
11, 218875, Note_off_c, 6, 67, 64
11, 218880, Note_on_c, 6, 60, 108
11, 219720, Note_off_c, 6, 60, 64
11, 219840, Note_on_c, 6, 60, 108
11, 220240, Note_off_c, 6, 60, 64
11, 220320, Note_on_c, 6, 67, 108
11, 221160, Note_off_c, 6, 67, 64
11, 221280, Note_on_c, 6, 63, 108
11, 221680, Note_off_c, 6, 63, 64
11, 221760, Note_on_c, 6, 65, 108
11, 222600, Note_off_c, 6, 65, 64
11, 222720, Note_on_c, 6, 67, 108
11, 223120, Note_off_c, 6, 67, 64
11, 223200, Note_on_c, 6, 68, 108
11, 224040, Note_off_c, 6, 68, 64
11, 224160, Note_on_c, 6, 65, 108
11, 224560, Note_off_c, 6, 65, 64
11, 224640, Note_on_c, 6, 67, 108
11, 225480, Note_off_c, 6, 67, 64
11, 225600, Note_on_c, 6, 62, 108
11, 226000, Note_off_c, 6, 62, 64
11, 226080, Note_on_c, 6, 63, 108
11, 226920, Note_off_c, 6, 63, 64
11, 227040, Note_on_c, 6, 59, 108
11, 227440, Note_off_c, 6, 59, 64
11, 227520, Note_on_c, 6, 60, 108
11, 228360, Note_off_c, 6, 60, 64
11, 228480, Note_on_c, 6, 65, 108
11, 228880, Note_off_c, 6, 65, 64
11, 228960, Note_on_c, 6, 67, 108
11, 230280, Note_off_c, 6, 67, 64
11, 230400, Note_on_c, 6, 60, 108
11, 231240, Note_off_c, 6, 60, 64
11, 231360, Note_on_c, 6, 60, 108
11, 231760, Note_off_c, 6, 60, 64
11, 231840, Note_on_c, 6, 67, 108
11, 232680, Note_off_c, 6, 67, 64
11, 232800, Note_on_c, 6, 63, 108
11, 233200, Note_off_c, 6, 63, 64
11, 233280, Note_on_c, 6, 65, 108
11, 234120, Note_off_c, 6, 65, 64
11, 234240, Note_on_c, 6, 67, 108
11, 234640, Note_off_c, 6, 67, 64
11, 234720, Note_on_c, 6, 68, 108
11, 235560, Note_off_c, 6, 68, 64
11, 235680, Note_on_c, 6, 65, 108
11, 236080, Note_off_c, 6, 65, 64
11, 236160, Note_on_c, 6, 67, 108
11, 237000, Note_off_c, 6, 67, 64
11, 237120, Note_on_c, 6, 62, 108
11, 237520, Note_off_c, 6, 62, 64
11, 237600, Note_on_c, 6, 63, 108
11, 238440, Note_off_c, 6, 63, 64
11, 238560, Note_on_c, 6, 59, 108
11, 238960, Note_off_c, 6, 59, 64
11, 239040, Note_on_c, 6, 60, 108
11, 239880, Note_off_c, 6, 60, 64
11, 240000, Note_on_c, 6, 65, 108
11, 240400, Note_off_c, 6, 65, 64
11, 240480, Note_on_c, 6, 67, 108
11, 241800, Note_off_c, 6, 67, 64
11, 241920, Note_on_c, 6, 60, 60
11, 243240, Note_off_c, 6, 60, 64
11, 276720, Note_on_c, 6, 63, 75
11, 276960, Note_off_c, 6, 63, 64
11, 276960, Note_on_c, 6, 59, 75
11, 277195, Note_off_c, 6, 59, 64
11, 277200, Note_on_c, 6, 59, 75
11, 277440, Note_off_c, 6, 59, 64
11, 277440, Note_on_c, 6, 60, 75
11, 277840, Note_off_c, 6, 60, 64
11, 278160, Note_on_c, 6, 68, 75
11, 278400, Note_off_c, 6, 68, 64
11, 278400, Note_on_c, 6, 62, 75
11, 278635, Note_off_c, 6, 62, 64
11, 278640, Note_on_c, 6, 62, 75
11, 278880, Note_off_c, 6, 62, 64
11, 278880, Note_on_c, 6, 64, 75
11, 279280, Note_off_c, 6, 64, 64
11, 279600, Note_on_c, 6, 65, 75
11, 279840, Note_off_c, 6, 65, 64
11, 279840, Note_on_c, 6, 60, 75
11, 280075, Note_off_c, 6, 60, 64
11, 280080, Note_on_c, 6, 60, 75
11, 280320, Note_off_c, 6, 60, 64
11, 280320, Note_on_c, 6, 62, 75
11, 280720, Note_off_c, 6, 62, 64
11, 281040, Note_on_c, 6, 63, 75
11, 281280, Note_off_c, 6, 63, 64
11, 281280, Note_on_c, 6, 59, 75
11, 281515, Note_off_c, 6, 59, 64
11, 281520, Note_on_c, 6, 59, 75
11, 281760, Note_off_c, 6, 59, 64
11, 281760, Note_on_c, 6, 60, 75
11, 282160, Note_off_c, 6, 60, 64
11, 284640, Note_on_c, 6, 63, 75
11, 285040, Note_off_c, 6, 63, 64
11, 285120, Note_on_c, 6, 70, 75
11, 285960, Note_off_c, 6, 70, 64
11, 286080, Note_on_c, 6, 67, 75
11, 286480, Note_off_c, 6, 67, 64
11, 286560, Note_on_c, 6, 68, 75
11, 287400, Note_off_c, 6, 68, 64
11, 287520, Note_on_c, 6, 70, 75
11, 287920, Note_off_c, 6, 70, 64
11, 288000, Note_on_c, 6, 72, 75
11, 288840, Note_off_c, 6, 72, 64
11, 288960, Note_on_c, 6, 68, 75
11, 289360, Note_off_c, 6, 68, 64
11, 289440, Note_on_c, 6, 70, 75
11, 290280, Note_off_c, 6, 70, 64
11, 290400, Note_on_c, 6, 72, 75
11, 290800, Note_off_c, 6, 72, 64
11, 290880, Note_on_c, 6, 65, 75
11, 291720, Note_off_c, 6, 65, 64
11, 291840, Note_on_c, 6, 70, 75
11, 292240, Note_off_c, 6, 70, 64
11, 292320, Note_on_c, 6, 63, 75
11, 292960, Note_off_c, 6, 63, 64
11, 293040, Note_on_c, 6, 63, 75
11, 293280, Note_off_c, 6, 63, 64
11, 293280, Note_on_c, 6, 65, 75
11, 293520, Note_off_c, 6, 65, 64
11, 293520, Note_on_c, 6, 67, 75
11, 293760, Note_off_c, 6, 67, 64
11, 293760, Note_on_c, 6, 68, 75
11, 294240, Note_off_c, 6, 68, 64
11, 294240, Note_on_c, 6, 65, 75
11, 294720, Note_off_c, 6, 65, 64
11, 294720, Note_on_c, 6, 62, 75
11, 295200, Note_off_c, 6, 62, 64
11, 295200, Note_on_c, 6, 63, 75
11, 295600, Note_off_c, 6, 63, 64
11, 295680, Note_on_c, 6, 75, 75
11, 296160, Note_off_c, 6, 75, 64
11, 296160, Note_on_c, 6, 72, 75
11, 296640, Note_off_c, 6, 72, 64
11, 296640, Note_on_c, 6, 74, 75
11, 297120, Note_off_c, 6, 74, 64
11, 297120, Note_on_c, 6, 70, 75
11, 297600, Note_off_c, 6, 70, 64
11, 297600, Note_on_c, 6, 67, 75
11, 298000, Note_off_c, 6, 67, 64
11, 298080, Note_on_c, 6, 72, 75
11, 298560, Note_off_c, 6, 72, 64
11, 298560, Note_on_c, 6, 68, 75
11, 299040, Note_off_c, 6, 68, 64
11, 299040, Note_on_c, 6, 65, 75
11, 299520, Note_off_c, 6, 65, 64
11, 299520, Note_on_c, 6, 67, 75
11, 300000, Note_off_c, 6, 67, 64
11, 300000, Note_on_c, 6, 70, 75
11, 300400, Note_off_c, 6, 70, 64
11, 301200, Note_on_c, 6, 74, 75
11, 301435, Note_off_c, 6, 74, 64
11, 301440, Note_on_c, 6, 69, 75
11, 301675, Note_off_c, 6, 69, 64
11, 301680, Note_on_c, 6, 69, 75
11, 301920, Note_off_c, 6, 69, 64
11, 301920, Note_on_c, 6, 70, 75
11, 302320, Note_off_c, 6, 70, 64
11, 302640, Note_on_c, 6, 79, 75
11, 302880, Note_off_c, 6, 79, 64
11, 302880, Note_on_c, 6, 72, 75
11, 303115, Note_off_c, 6, 72, 64
11, 303120, Note_on_c, 6, 72, 75
11, 303360, Note_off_c, 6, 72, 64
11, 303360, Note_on_c, 6, 74, 75
11, 303760, Note_off_c, 6, 74, 64
11, 304080, Note_on_c, 6, 75, 75
11, 304320, Note_off_c, 6, 75, 64
11, 304320, Note_on_c, 6, 70, 75
11, 304555, Note_off_c, 6, 70, 64
11, 304560, Note_on_c, 6, 70, 75
11, 304800, Note_off_c, 6, 70, 64
11, 304800, Note_on_c, 6, 72, 75
11, 305200, Note_off_c, 6, 72, 64
11, 317760, Note_on_c, 6, 67, 92
11, 318475, Note_off_c, 6, 67, 64
11, 318480, Note_on_c, 6, 70, 92
11, 318720, Note_off_c, 6, 70, 64
11, 318720, Note_on_c, 6, 66, 92
11, 318955, Note_off_c, 6, 66, 64
11, 318960, Note_on_c, 6, 66, 92
11, 319200, Note_off_c, 6, 66, 64
11, 319200, Note_on_c, 6, 67, 92
11, 319600, Note_off_c, 6, 67, 64
11, 319920, Note_on_c, 6, 75, 92
11, 320160, Note_off_c, 6, 75, 64
11, 320160, Note_on_c, 6, 69, 92
11, 320395, Note_off_c, 6, 69, 64
11, 320400, Note_on_c, 6, 69, 92
11, 320640, Note_off_c, 6, 69, 64
11, 320640, Note_on_c, 6, 70, 92
11, 321040, Note_off_c, 6, 70, 64
11, 321360, Note_on_c, 6, 72, 92
11, 321600, Note_off_c, 6, 72, 64
11, 321600, Note_on_c, 6, 67, 92
11, 321835, Note_off_c, 6, 67, 64
11, 321840, Note_on_c, 6, 67, 92
11, 322080, Note_off_c, 6, 67, 64
11, 322080, Note_on_c, 6, 69, 75
11, 322480, Note_off_c, 6, 69, 64
11, 322800, Note_on_c, 6, 70, 75
11, 323040, Note_off_c, 6, 70, 64
11, 323040, Note_on_c, 6, 66, 60
11, 323160, Note_off_c, 6, 66, 64
11, 323160, Note_on_c, 6, 69, 60
11, 323280, Note_off_c, 6, 69, 64
11, 323280, Note_on_c, 6, 67, 60
11, 323400, Note_off_c, 6, 67, 64
11, 323400, Note_on_c, 6, 70, 60
11, 323520, Note_off_c, 6, 70, 64
11, 323520, Note_on_c, 6, 69, 60
11, 323640, Note_off_c, 6, 69, 64
11, 323640, Note_on_c, 6, 72, 60
11, 323760, Note_off_c, 6, 72, 64
11, 323760, Note_on_c, 6, 70, 60
11, 323880, Note_off_c, 6, 70, 64
11, 323880, Note_on_c, 6, 69, 60
11, 323995, Note_off_c, 6, 69, 64
11, 324000, Note_on_c, 6, 70, 60
11, 325075, Note_off_c, 6, 70, 64
11, 325080, Note_on_c, 6, 72, 60
11, 325200, Note_off_c, 6, 72, 64
11, 325200, Note_on_c, 6, 67, 60
11, 325320, Note_off_c, 6, 67, 64
11, 325320, Note_on_c, 6, 70, 60
11, 325440, Note_off_c, 6, 70, 64
11, 325440, Note_on_c, 6, 69, 60
11, 326515, Note_off_c, 6, 69, 64
11, 326520, Note_on_c, 6, 70, 60
11, 326640, Note_off_c, 6, 70, 64
11, 326640, Note_on_c, 6, 66, 60
11, 326760, Note_off_c, 6, 66, 64
11, 326760, Note_on_c, 6, 69, 60
11, 326880, Note_off_c, 6, 69, 64
11, 326880, Note_on_c, 6, 67, 60
11, 327955, Note_off_c, 6, 67, 64
11, 327960, Note_on_c, 6, 69, 60
11, 328080, Note_off_c, 6, 69, 64
11, 328080, Note_on_c, 6, 64, 60
11, 328200, Note_off_c, 6, 64, 64
11, 328200, Note_on_c, 6, 67, 60
11, 328320, Note_off_c, 6, 67, 64
11, 328320, Note_on_c, 6, 66, 60
11, 328440, Note_off_c, 6, 66, 64
11, 328440, Note_on_c, 6, 69, 60
11, 328560, Note_off_c, 6, 69, 64
11, 328560, Note_on_c, 6, 66, 60
11, 328680, Note_off_c, 6, 66, 64
11, 328680, Note_on_c, 6, 69, 60
11, 328800, Note_off_c, 6, 69, 64
11, 328800, Note_on_c, 6, 62, 60
11, 328920, Note_off_c, 6, 62, 64
11, 328920, Note_on_c, 6, 66, 60
11, 329040, Note_off_c, 6, 66, 64
11, 329040, Note_on_c, 6, 62, 60
11, 329160, Note_off_c, 6, 62, 64
11, 329160, Note_on_c, 6, 66, 60
11, 329275, Note_off_c, 6, 66, 64
11, 329280, Note_on_c, 6, 67, 60
11, 329520, Note_off_c, 6, 67, 64
11, 329520, Note_on_c, 6, 65, 60
11, 329760, Note_off_c, 6, 65, 64
11, 329760, Note_on_c, 6, 63, 60
11, 330835, Note_off_c, 6, 63, 64
11, 330840, Note_on_c, 6, 67, 60
11, 330960, Note_off_c, 6, 67, 64
11, 330960, Note_on_c, 6, 65, 60
11, 331080, Note_off_c, 6, 65, 64
11, 331080, Note_on_c, 6, 63, 60
11, 331200, Note_off_c, 6, 63, 64
11, 331200, Note_on_c, 6, 62, 60
11, 331320, Note_off_c, 6, 62, 64
11, 331320, Note_on_c, 6, 65, 60
11, 331440, Note_off_c, 6, 65, 64
11, 331440, Note_on_c, 6, 63, 60
11, 331560, Note_off_c, 6, 63, 64
11, 331560, Note_on_c, 6, 67, 60
11, 331680, Note_off_c, 6, 67, 64
11, 331680, Note_on_c, 6, 65, 60
11, 331800, Note_off_c, 6, 65, 64
11, 331800, Note_on_c, 6, 67, 60
11, 331920, Note_off_c, 6, 67, 64
11, 331920, Note_on_c, 6, 65, 60
11, 332040, Note_off_c, 6, 65, 64
11, 332040, Note_on_c, 6, 68, 60
11, 332155, Note_off_c, 6, 68, 64
11, 332160, Note_on_c, 6, 62, 60
11, 333040, Note_off_c, 6, 62, 64
11, 333120, Note_on_c, 6, 60, 60
11, 333835, Note_off_c, 6, 60, 64
11, 345120, Note_on_c, 6, 70, 60
11, 345120, Note_on_c, 6, 67, 60
11, 345355, Note_off_c, 6, 67, 64
11, 345355, Note_off_c, 6, 70, 64
11, 345360, Note_on_c, 6, 72, 60
11, 345360, Note_on_c, 6, 69, 60
11, 345595, Note_off_c, 6, 69, 64
11, 345595, Note_off_c, 6, 72, 64
11, 345600, Note_on_c, 6, 62, 60
11, 345600, Note_on_c, 6, 58, 60
11, 345835, Note_off_c, 6, 58, 64
11, 345835, Note_off_c, 6, 62, 64
11, 345840, Note_on_c, 6, 63, 60
11, 345840, Note_on_c, 6, 60, 60
11, 346075, Note_off_c, 6, 60, 64
11, 346075, Note_off_c, 6, 63, 64
11, 346080, Note_on_c, 6, 65, 60
11, 346080, Note_on_c, 6, 62, 60
11, 346315, Note_off_c, 6, 62, 64
11, 346315, Note_off_c, 6, 65, 64
11, 346320, Note_on_c, 6, 67, 60
11, 346320, Note_on_c, 6, 63, 60
11, 346555, Note_off_c, 6, 63, 64
11, 346555, Note_off_c, 6, 67, 64
11, 346560, Note_on_c, 6, 68, 60
11, 346560, Note_on_c, 6, 65, 60
11, 346795, Note_off_c, 6, 65, 64
11, 346795, Note_off_c, 6, 68, 64
11, 346800, Note_on_c, 6, 70, 60
11, 346800, Note_on_c, 6, 67, 60
11, 347035, Note_off_c, 6, 67, 64
11, 347035, Note_off_c, 6, 70, 64
11, 347040, Note_on_c, 6, 72, 60
11, 347040, Note_on_c, 6, 68, 60
11, 347275, Note_off_c, 6, 68, 64
11, 347275, Note_off_c, 6, 72, 64
11, 347280, Note_on_c, 6, 62, 60
11, 347280, Note_on_c, 6, 58, 60
11, 347515, Note_off_c, 6, 58, 64
11, 347515, Note_off_c, 6, 62, 64
11, 347520, Note_on_c, 6, 63, 60
11, 347520, Note_on_c, 6, 60, 60
11, 347755, Note_off_c, 6, 60, 64
11, 347755, Note_off_c, 6, 63, 64
11, 347760, Note_on_c, 6, 65, 60
11, 347760, Note_on_c, 6, 62, 60
11, 347995, Note_off_c, 6, 62, 64
11, 347995, Note_off_c, 6, 65, 64
11, 348000, Note_on_c, 6, 67, 60
11, 348000, Note_on_c, 6, 63, 60
11, 348235, Note_off_c, 6, 63, 64
11, 348235, Note_off_c, 6, 67, 64
11, 348240, Note_on_c, 6, 68, 60
11, 348240, Note_on_c, 6, 65, 60
11, 348475, Note_off_c, 6, 65, 64
11, 348475, Note_off_c, 6, 68, 64
11, 348480, Note_on_c, 6, 70, 60
11, 348480, Note_on_c, 6, 67, 60
11, 348715, Note_off_c, 6, 67, 64
11, 348715, Note_off_c, 6, 70, 64
11, 348720, Note_on_c, 6, 72, 60
11, 348720, Note_on_c, 6, 68, 60
11, 348955, Note_off_c, 6, 68, 64
11, 348955, Note_off_c, 6, 72, 64
11, 348960, Note_on_c, 6, 62, 60
11, 348960, Note_on_c, 6, 58, 60
11, 349195, Note_off_c, 6, 58, 64
11, 349195, Note_off_c, 6, 62, 64
11, 349200, Note_on_c, 6, 63, 60
11, 349200, Note_on_c, 6, 60, 60
11, 349435, Note_off_c, 6, 60, 64
11, 349435, Note_off_c, 6, 63, 64
11, 349440, Note_on_c, 6, 65, 60
11, 349440, Note_on_c, 6, 62, 60
11, 349675, Note_off_c, 6, 62, 64
11, 349675, Note_off_c, 6, 65, 64
11, 349680, Note_on_c, 6, 67, 60
11, 349680, Note_on_c, 6, 64, 60
11, 349915, Note_off_c, 6, 64, 64
11, 349915, Note_off_c, 6, 67, 64
11, 349920, Note_on_c, 6, 68, 60
11, 349920, Note_on_c, 6, 65, 60
11, 350155, Note_off_c, 6, 65, 64
11, 350155, Note_off_c, 6, 68, 64
11, 350160, Note_on_c, 6, 70, 60
11, 350160, Note_on_c, 6, 67, 60
11, 350395, Note_off_c, 6, 67, 64
11, 350395, Note_off_c, 6, 70, 64
11, 350400, Note_on_c, 6, 72, 60
11, 350400, Note_on_c, 6, 68, 60
11, 350635, Note_off_c, 6, 68, 64
11, 350635, Note_off_c, 6, 72, 64
11, 350640, Note_on_c, 6, 74, 60
11, 350640, Note_on_c, 6, 70, 60
11, 350875, Note_off_c, 6, 70, 64
11, 350875, Note_off_c, 6, 74, 64
11, 350880, Note_on_c, 6, 75, 60
11, 350880, Note_on_c, 6, 72, 60
11, 351115, Note_off_c, 6, 72, 64
11, 351115, Note_off_c, 6, 75, 64
11, 351120, Note_on_c, 6, 77, 60
11, 351120, Note_on_c, 6, 74, 60
11, 351355, Note_off_c, 6, 74, 64
11, 351355, Note_off_c, 6, 77, 64
11, 351360, Note_on_c, 6, 79, 60
11, 351360, Note_on_c, 6, 75, 60
11, 352000, Note_off_c, 6, 75, 64
11, 352000, Note_off_c, 6, 79, 64
11, 352080, Note_on_c, 6, 67, 60
11, 352080, Note_on_c, 6, 62, 60
11, 352315, Note_off_c, 6, 62, 64
11, 352315, Note_off_c, 6, 67, 64
11, 353760, Note_on_c, 6, 67, 75
11, 354160, Note_off_c, 6, 67, 64
11, 354240, Note_on_c, 6, 74, 75
11, 355080, Note_off_c, 6, 74, 64
11, 355200, Note_on_c, 6, 70, 75
11, 355600, Note_off_c, 6, 70, 64
11, 355680, Note_on_c, 6, 72, 75
11, 356520, Note_off_c, 6, 72, 64
11, 356640, Note_on_c, 6, 74, 75
11, 357040, Note_off_c, 6, 74, 64
11, 357120, Note_on_c, 6, 75, 75
11, 357960, Note_off_c, 6, 75, 64
11, 358080, Note_on_c, 6, 72, 75
11, 358480, Note_off_c, 6, 72, 64
11, 358560, Note_on_c, 6, 74, 75
11, 359635, Note_off_c, 6, 74, 64
11, 359760, Note_on_c, 6, 71, 75
11, 360000, Note_off_c, 6, 71, 64
11, 360000, Note_on_c, 6, 72, 75
11, 360640, Note_off_c, 6, 72, 64
11, 360720, Note_on_c, 6, 74, 75
11, 361195, Note_off_c, 6, 74, 64
11, 361200, Note_on_c, 6, 70, 75
11, 361675, Note_off_c, 6, 70, 64
11, 361680, Note_on_c, 6, 69, 75
11, 362155, Note_off_c, 6, 69, 64
11, 362160, Note_on_c, 6, 67, 75
11, 362635, Note_off_c, 6, 67, 64
11, 362640, Note_on_c, 6, 66, 75
11, 362875, Note_off_c, 6, 66, 64
11, 362880, Note_on_c, 6, 67, 75
11, 363475, Note_off_c, 6, 67, 64
11, 363480, Note_on_c, 6, 70, 75
11, 363600, Note_off_c, 6, 70, 64
11, 363600, Note_on_c, 6, 69, 75
11, 363720, Note_off_c, 6, 69, 64
11, 363720, Note_on_c, 6, 67, 75
11, 363840, Note_off_c, 6, 67, 64
11, 363840, Note_on_c, 6, 66, 75
11, 364200, Note_off_c, 6, 66, 64
11, 364200, Note_on_c, 6, 67, 75
11, 364315, Note_off_c, 6, 67, 64
11, 364320, Note_on_c, 6, 67, 75
11, 365040, Note_off_c, 6, 67, 64
11, 365040, Note_on_c, 6, 69, 75
11, 365280, Note_off_c, 6, 69, 64
11, 365280, Note_on_c, 6, 71, 75
11, 365680, Note_off_c, 6, 71, 64
11, 365760, Note_on_c, 6, 72, 75
11, 365880, Note_off_c, 6, 72, 64
11, 365880, Note_on_c, 6, 75, 75
11, 366000, Note_off_c, 6, 75, 64
11, 366000, Note_on_c, 6, 74, 75
11, 366120, Note_off_c, 6, 74, 64
11, 366120, Note_on_c, 6, 77, 75
11, 366240, Note_off_c, 6, 77, 64
11, 366240, Note_on_c, 6, 75, 75
11, 366360, Note_off_c, 6, 75, 64
11, 366360, Note_on_c, 6, 67, 75
11, 366480, Note_off_c, 6, 67, 64
11, 366480, Note_on_c, 6, 65, 75
11, 366600, Note_off_c, 6, 65, 64
11, 366600, Note_on_c, 6, 68, 75
11, 366720, Note_off_c, 6, 68, 64
11, 366720, Note_on_c, 6, 67, 75
11, 366840, Note_off_c, 6, 67, 64
11, 366840, Note_on_c, 6, 70, 75
11, 366960, Note_off_c, 6, 70, 64
11, 366960, Note_on_c, 6, 68, 75
11, 367080, Note_off_c, 6, 68, 64
11, 367080, Note_on_c, 6, 67, 75
11, 367200, Note_off_c, 6, 67, 64
11, 367200, Note_on_c, 6, 68, 75
11, 367440, Note_off_c, 6, 68, 64
11, 367440, Note_on_c, 6, 64, 75
11, 367680, Note_off_c, 6, 64, 64
11, 367680, Note_on_c, 6, 65, 75
11, 367800, Note_off_c, 6, 65, 64
11, 367800, Note_on_c, 6, 68, 75
11, 367920, Note_off_c, 6, 68, 64
11, 367920, Note_on_c, 6, 67, 75
11, 368040, Note_off_c, 6, 67, 64
11, 368040, Note_on_c, 6, 70, 75
11, 368160, Note_off_c, 6, 70, 64
11, 368160, Note_on_c, 6, 68, 92
11, 368560, Note_off_c, 6, 68, 64
11, 369240, Note_on_c, 6, 72, 92
11, 369360, Note_off_c, 6, 72, 64
11, 369360, Note_on_c, 6, 70, 92
11, 369480, Note_off_c, 6, 70, 64
11, 369480, Note_on_c, 6, 72, 92
11, 369600, Note_off_c, 6, 72, 64
11, 369600, Note_on_c, 6, 65, 92
11, 369720, Note_off_c, 6, 65, 64
11, 369720, Note_on_c, 6, 77, 92
11, 369840, Note_off_c, 6, 77, 64
11, 369840, Note_on_c, 6, 75, 92
11, 369960, Note_off_c, 6, 75, 64
11, 369960, Note_on_c, 6, 77, 92
11, 370080, Note_off_c, 6, 77, 64
11, 370080, Note_on_c, 6, 73, 92
11, 370200, Note_off_c, 6, 73, 64
11, 370200, Note_on_c, 6, 77, 92
11, 370320, Note_off_c, 6, 77, 64
11, 370320, Note_on_c, 6, 73, 92
11, 370440, Note_off_c, 6, 73, 64
11, 370440, Note_on_c, 6, 77, 92
11, 370560, Note_off_c, 6, 77, 64
11, 370560, Note_on_c, 6, 73, 92
11, 370680, Note_off_c, 6, 73, 64
11, 370680, Note_on_c, 6, 75, 92
11, 370800, Note_off_c, 6, 75, 64
11, 370800, Note_on_c, 6, 73, 92
11, 370920, Note_off_c, 6, 73, 64
11, 370920, Note_on_c, 6, 75, 92
11, 371040, Note_off_c, 6, 75, 64
11, 371040, Note_on_c, 6, 72, 92
11, 371160, Note_off_c, 6, 72, 64
11, 371160, Note_on_c, 6, 75, 92
11, 371280, Note_off_c, 6, 75, 64
11, 371280, Note_on_c, 6, 72, 92
11, 371400, Note_off_c, 6, 72, 64
11, 371400, Note_on_c, 6, 75, 92
11, 371520, Note_off_c, 6, 75, 64
11, 371520, Note_on_c, 6, 70, 92
11, 371640, Note_off_c, 6, 70, 64
11, 371640, Note_on_c, 6, 73, 92
11, 371760, Note_off_c, 6, 73, 64
11, 371760, Note_on_c, 6, 72, 92
11, 371880, Note_off_c, 6, 72, 64
11, 371880, Note_on_c, 6, 75, 92
11, 372000, Note_off_c, 6, 75, 64
11, 372000, Note_on_c, 6, 73, 92
11, 372120, Note_off_c, 6, 73, 64
11, 372120, Note_on_c, 6, 75, 92
11, 372240, Note_off_c, 6, 75, 64
11, 372240, Note_on_c, 6, 73, 92
11, 372360, Note_off_c, 6, 73, 64
11, 372360, Note_on_c, 6, 75, 92
11, 372480, Note_off_c, 6, 75, 64
11, 372480, Note_on_c, 6, 73, 92
11, 372600, Note_off_c, 6, 73, 64
11, 372600, Note_on_c, 6, 75, 92
11, 372720, Note_off_c, 6, 75, 64
11, 372720, Note_on_c, 6, 73, 92
11, 372840, Note_off_c, 6, 73, 64
11, 372840, Note_on_c, 6, 75, 92
11, 372960, Note_off_c, 6, 75, 64
11, 372960, Note_on_c, 6, 72, 92
11, 374515, Note_off_c, 6, 72, 64
11, 391200, Note_on_c, 6, 72, 92
11, 391200, Note_on_c, 6, 60, 92
11, 391600, Note_off_c, 6, 60, 64
11, 391600, Note_off_c, 6, 72, 64
11, 391680, Note_on_c, 6, 79, 92
11, 391680, Note_on_c, 6, 67, 92
11, 392520, Note_off_c, 6, 67, 64
11, 392520, Note_off_c, 6, 79, 64
11, 392640, Note_on_c, 6, 75, 92
11, 392640, Note_on_c, 6, 63, 92
11, 393040, Note_off_c, 6, 63, 64
11, 393040, Note_off_c, 6, 75, 64
11, 393120, Note_on_c, 6, 77, 92
11, 393120, Note_on_c, 6, 65, 92
11, 393960, Note_off_c, 6, 65, 64
11, 393960, Note_off_c, 6, 77, 64
11, 394080, Note_on_c, 6, 79, 92
11, 394080, Note_on_c, 6, 67, 92
11, 394480, Note_off_c, 6, 67, 64
11, 394480, Note_off_c, 6, 79, 64
11, 394560, Note_on_c, 6, 80, 92
11, 394560, Note_on_c, 6, 68, 92
11, 395400, Note_off_c, 6, 68, 64
11, 395400, Note_off_c, 6, 80, 64
11, 395520, Note_on_c, 6, 77, 92
11, 395520, Note_on_c, 6, 65, 92
11, 395920, Note_off_c, 6, 65, 64
11, 395920, Note_off_c, 6, 77, 64
11, 396000, Note_on_c, 6, 79, 92
11, 396000, Note_on_c, 6, 67, 92
11, 399280, Note_off_c, 6, 67, 64
11, 399280, Note_off_c, 6, 79, 64
11, 399360, Note_on_c, 6, 77, 92
11, 399360, Note_on_c, 6, 65, 92
11, 400720, Note_off_c, 6, 65, 64
11, 400720, Note_off_c, 6, 77, 64
11, 400800, Note_on_c, 6, 75, 92
11, 400800, Note_on_c, 6, 63, 92
11, 402160, Note_off_c, 6, 63, 64
11, 402160, Note_off_c, 6, 75, 64
11, 402240, Note_on_c, 6, 74, 92
11, 402240, Note_on_c, 6, 62, 92
11, 404040, Note_off_c, 6, 62, 64
11, 404040, Note_off_c, 6, 74, 64
11, 404160, Note_on_c, 6, 72, 92
11, 404160, Note_on_c, 6, 60, 92
11, 404560, Note_off_c, 6, 60, 64
11, 404560, Note_off_c, 6, 72, 64
11, 404640, Note_on_c, 6, 74, 92
11, 404640, Note_on_c, 6, 62, 92
11, 405040, Note_off_c, 6, 62, 64
11, 405040, Note_off_c, 6, 74, 64
11, 405120, Note_on_c, 6, 71, 92
11, 405120, Note_on_c, 6, 59, 92
11, 405520, Note_off_c, 6, 59, 64
11, 405520, Note_off_c, 6, 71, 64
11, 405600, Note_on_c, 6, 72, 92
11, 405600, Note_on_c, 6, 60, 92
11, 405835, Note_off_c, 6, 60, 64
11, 405835, Note_off_c, 6, 72, 64
11, 405840, Note_on_c, 6, 72, 92
11, 405840, Note_on_c, 6, 60, 92
11, 406075, Note_off_c, 6, 60, 64
11, 406075, Note_off_c, 6, 72, 64
11, 406080, Note_on_c, 6, 74, 92
11, 406080, Note_on_c, 6, 62, 92
11, 406480, Note_off_c, 6, 62, 64
11, 406480, Note_off_c, 6, 74, 64
11, 406800, Note_on_c, 6, 74, 92
11, 406800, Note_on_c, 6, 62, 92
11, 407035, Note_off_c, 6, 62, 64
11, 407035, Note_off_c, 6, 74, 64
11, 407040, Note_on_c, 6, 75, 92
11, 407040, Note_on_c, 6, 63, 92
11, 407275, Note_off_c, 6, 63, 64
11, 407275, Note_off_c, 6, 75, 64
11, 407280, Note_on_c, 6, 75, 92
11, 407280, Note_on_c, 6, 63, 92
11, 407515, Note_off_c, 6, 63, 64
11, 407515, Note_off_c, 6, 75, 64
11, 407520, Note_on_c, 6, 74, 92
11, 407520, Note_on_c, 6, 62, 92
11, 407920, Note_off_c, 6, 62, 64
11, 407920, Note_off_c, 6, 74, 64
11, 408240, Note_on_c, 6, 74, 92
11, 408240, Note_on_c, 6, 62, 92
11, 408475, Note_off_c, 6, 62, 64
11, 408475, Note_off_c, 6, 74, 64
11, 408480, Note_on_c, 6, 79, 92
11, 408480, Note_on_c, 6, 67, 92
11, 408715, Note_off_c, 6, 67, 64
11, 408715, Note_off_c, 6, 79, 64
11, 408720, Note_on_c, 6, 79, 92
11, 408720, Note_on_c, 6, 67, 92
11, 408955, Note_off_c, 6, 67, 64
11, 408955, Note_off_c, 6, 79, 64
11, 408960, Note_on_c, 6, 74, 92
11, 408960, Note_on_c, 6, 62, 92
11, 409360, Note_off_c, 6, 62, 64
11, 409360, Note_off_c, 6, 74, 64
11, 409680, Note_on_c, 6, 74, 92
11, 409680, Note_on_c, 6, 62, 92
11, 409915, Note_off_c, 6, 62, 64
11, 409915, Note_off_c, 6, 74, 64
11, 409920, Note_on_c, 6, 79, 92
11, 409920, Note_on_c, 6, 67, 92
11, 410155, Note_off_c, 6, 67, 64
11, 410155, Note_off_c, 6, 79, 64
11, 410160, Note_on_c, 6, 79, 92
11, 410160, Note_on_c, 6, 67, 92
11, 410395, Note_off_c, 6, 67, 64
11, 410395, Note_off_c, 6, 79, 64
11, 410400, Note_on_c, 6, 77, 92
11, 410400, Note_on_c, 6, 65, 92
11, 410800, Note_off_c, 6, 65, 64
11, 410800, Note_off_c, 6, 77, 64
11, 411120, Note_on_c, 6, 79, 92
11, 411120, Note_on_c, 6, 67, 92
11, 411355, Note_off_c, 6, 67, 64
11, 411355, Note_off_c, 6, 79, 64
11, 411360, Note_on_c, 6, 75, 92
11, 411360, Note_on_c, 6, 63, 92
11, 411595, Note_off_c, 6, 63, 64
11, 411595, Note_off_c, 6, 75, 64
11, 411600, Note_on_c, 6, 79, 92
11, 411600, Note_on_c, 6, 67, 92
11, 411835, Note_off_c, 6, 67, 64
11, 411835, Note_off_c, 6, 79, 64
11, 411840, Note_on_c, 6, 77, 92
11, 411840, Note_on_c, 6, 65, 92
11, 412240, Note_off_c, 6, 65, 64
11, 412240, Note_off_c, 6, 77, 64
11, 412320, Note_on_c, 6, 79, 92
11, 412320, Note_on_c, 6, 67, 92
11, 412720, Note_off_c, 6, 67, 64
11, 412720, Note_off_c, 6, 79, 64
11, 412800, Note_on_c, 6, 79, 92
11, 412800, Note_on_c, 6, 67, 92
11, 413200, Note_off_c, 6, 67, 64
11, 413200, Note_off_c, 6, 79, 64
11, 413280, Note_on_c, 6, 72, 92
11, 413280, Note_on_c, 6, 60, 92
11, 413760, Note_off_c, 6, 60, 64
11, 413760, Note_off_c, 6, 72, 64
11, 413760, Note_on_c, 6, 67, 92
11, 414000, Note_off_c, 6, 67, 64
11, 414000, Note_on_c, 6, 72, 92
11, 414000, Note_on_c, 6, 60, 92
11, 414240, Note_off_c, 6, 60, 64
11, 414240, Note_off_c, 6, 72, 64
11, 414240, Note_on_c, 6, 72, 92
11, 414240, Note_on_c, 6, 60, 92
11, 414480, Note_off_c, 6, 60, 64
11, 414480, Note_off_c, 6, 72, 64
11, 414480, Note_on_c, 6, 72, 92
11, 414480, Note_on_c, 6, 60, 92
11, 414720, Note_off_c, 6, 60, 64
11, 414720, Note_off_c, 6, 72, 64
11, 414720, Note_on_c, 6, 72, 92
11, 414720, Note_on_c, 6, 60, 92
11, 414960, Note_off_c, 6, 60, 64
11, 414960, Note_off_c, 6, 72, 64
11, 414960, Note_on_c, 6, 70, 92
11, 414960, Note_on_c, 6, 58, 92
11, 415200, Note_off_c, 6, 58, 64
11, 415200, Note_off_c, 6, 70, 64
11, 415200, Note_on_c, 6, 67, 92
11, 415440, Note_off_c, 6, 67, 64
11, 415440, Note_on_c, 6, 76, 92
11, 415440, Note_on_c, 6, 64, 92
11, 415680, Note_off_c, 6, 64, 64
11, 415680, Note_off_c, 6, 76, 64
11, 415680, Note_on_c, 6, 77, 92
11, 415680, Note_on_c, 6, 65, 92
11, 415920, Note_off_c, 6, 65, 64
11, 415920, Note_off_c, 6, 77, 64
11, 415920, Note_on_c, 6, 77, 92
11, 415920, Note_on_c, 6, 65, 92
11, 416160, Note_off_c, 6, 65, 64
11, 416160, Note_off_c, 6, 77, 64
11, 416160, Note_on_c, 6, 79, 92
11, 416160, Note_on_c, 6, 67, 92
11, 416640, Note_off_c, 6, 67, 64
11, 416640, Note_off_c, 6, 79, 64
11, 416880, Note_on_c, 6, 79, 92
11, 416880, Note_on_c, 6, 67, 92
11, 417120, Note_off_c, 6, 67, 64
11, 417120, Note_off_c, 6, 79, 64
11, 417120, Note_on_c, 6, 80, 92
11, 417120, Note_on_c, 6, 68, 92
11, 417360, Note_off_c, 6, 68, 64
11, 417360, Note_off_c, 6, 80, 64
11, 417360, Note_on_c, 6, 80, 92
11, 417360, Note_on_c, 6, 68, 92
11, 417600, Note_off_c, 6, 68, 64
11, 417600, Note_off_c, 6, 80, 64
11, 417600, Note_on_c, 6, 79, 92
11, 417600, Note_on_c, 6, 67, 92
11, 417720, Note_off_c, 6, 67, 64
11, 417720, Note_off_c, 6, 79, 64
11, 417720, Note_on_c, 6, 82, 127
11, 417720, Note_on_c, 6, 70, 127
11, 417835, Note_off_c, 6, 70, 64
11, 417835, Note_off_c, 6, 82, 64
11, 417840, Note_on_c, 6, 80, 127
11, 417840, Note_on_c, 6, 68, 127
11, 417955, Note_off_c, 6, 68, 64
11, 417955, Note_off_c, 6, 80, 64
11, 417960, Note_on_c, 6, 82, 127
11, 417960, Note_on_c, 6, 70, 127
11, 418075, Note_off_c, 6, 70, 64
11, 418075, Note_off_c, 6, 82, 64
11, 418080, Note_on_c, 6, 79, 92
11, 418080, Note_on_c, 6, 67, 92
11, 418800, Note_off_c, 6, 67, 64
11, 418800, Note_off_c, 6, 79, 64
11, 418800, Note_on_c, 6, 77, 92
11, 418800, Note_on_c, 6, 65, 92
11, 419155, Note_off_c, 6, 65, 64
11, 419155, Note_off_c, 6, 77, 64
11, 419160, Note_on_c, 6, 77, 92
11, 419160, Note_on_c, 6, 65, 92
11, 419280, Note_off_c, 6, 65, 64
11, 419280, Note_off_c, 6, 77, 64
11, 419280, Note_on_c, 6, 76, 92
11, 419280, Note_on_c, 6, 64, 92
11, 419400, Note_off_c, 6, 64, 64
11, 419400, Note_off_c, 6, 76, 64
11, 419400, Note_on_c, 6, 77, 92
11, 419400, Note_on_c, 6, 65, 92
11, 419520, Note_off_c, 6, 65, 64
11, 419520, Note_off_c, 6, 77, 64
11, 419520, Note_on_c, 6, 71, 92
11, 419520, Note_on_c, 6, 62, 92
11, 420115, Note_off_c, 6, 62, 64
11, 420115, Note_off_c, 6, 71, 64
11, 420120, Note_on_c, 6, 74, 92
11, 420120, Note_on_c, 6, 65, 92
11, 420240, Note_off_c, 6, 65, 64
11, 420240, Note_off_c, 6, 74, 64
11, 420240, Note_on_c, 6, 71, 92
11, 420240, Note_on_c, 6, 62, 92
11, 420360, Note_off_c, 6, 62, 64
11, 420360, Note_off_c, 6, 71, 64
11, 420360, Note_on_c, 6, 74, 92
11, 420360, Note_on_c, 6, 65, 92
11, 420480, Note_off_c, 6, 65, 64
11, 420480, Note_off_c, 6, 74, 64
11, 420480, Note_on_c, 6, 72, 92
11, 420480, Note_on_c, 6, 64, 92
11, 421800, Note_off_c, 6, 64, 64
11, 421800, Note_off_c, 6, 72, 64
11, 421800, End_track
12, 0, Start_track
12, 0, MIDI_port, 0
12, 0, Channel_prefix, 7
12, 0, Control_c, 7, 7, 127
12, 0, Control_c, 7, 10, 85
12, 0, Control_c, 7, 91, 52
12, 0, Program_c, 7, 57
12, 93120, Note_on_c, 7, 63, 60
12, 93120, Note_on_c, 7, 60, 60
12, 93520, Note_off_c, 7, 60, 64
12, 93520, Note_off_c, 7, 63, 64
12, 93600, Note_on_c, 7, 62, 60
12, 93600, Note_on_c, 7, 59, 60
12, 94440, Note_off_c, 7, 59, 64
12, 94440, Note_off_c, 7, 62, 64
12, 94560, Note_on_c, 7, 63, 60
12, 94560, Note_on_c, 7, 60, 60
12, 94960, Note_off_c, 7, 60, 64
12, 94960, Note_off_c, 7, 63, 64
12, 95040, Note_on_c, 7, 65, 60
12, 95040, Note_on_c, 7, 60, 60
12, 95880, Note_off_c, 7, 60, 64
12, 95880, Note_off_c, 7, 65, 64
12, 96000, Note_on_c, 7, 62, 60
12, 96000, Note_on_c, 7, 59, 60
12, 96400, Note_off_c, 7, 59, 64
12, 96400, Note_off_c, 7, 62, 64
12, 96480, Note_on_c, 7, 63, 60
12, 96480, Note_on_c, 7, 60, 60
12, 97320, Note_off_c, 7, 60, 64
12, 97320, Note_off_c, 7, 63, 64
12, 97440, Note_on_c, 7, 60, 60
12, 97440, Note_on_c, 7, 56, 60
12, 97840, Note_off_c, 7, 56, 64
12, 97840, Note_off_c, 7, 60, 64
12, 97920, Note_on_c, 7, 62, 60
12, 97920, Note_on_c, 7, 59, 60
12, 98760, Note_off_c, 7, 59, 64
12, 98760, Note_off_c, 7, 62, 64
12, 98880, Note_on_c, 7, 62, 60
12, 98880, Note_on_c, 7, 59, 60
12, 99280, Note_off_c, 7, 59, 64
12, 99280, Note_off_c, 7, 62, 64
12, 99360, Note_on_c, 7, 63, 60
12, 99360, Note_on_c, 7, 60, 60
12, 100200, Note_off_c, 7, 60, 64
12, 100200, Note_off_c, 7, 63, 64
12, 100320, Note_on_c, 7, 62, 60
12, 100320, Note_on_c, 7, 59, 60
12, 100720, Note_off_c, 7, 59, 64
12, 100720, Note_off_c, 7, 62, 64
12, 100800, Note_on_c, 7, 63, 60
12, 100800, Note_on_c, 7, 60, 60
12, 101640, Note_off_c, 7, 60, 64
12, 101640, Note_off_c, 7, 63, 64
12, 101760, Note_on_c, 7, 60, 60
12, 101760, Note_on_c, 7, 56, 60
12, 102160, Note_off_c, 7, 56, 64
12, 102160, Note_off_c, 7, 60, 64
12, 102240, Note_on_c, 7, 62, 62
12, 102240, Note_on_c, 7, 60, 62
12, 103200, Note_off_c, 7, 60, 64
12, 103200, Note_on_c, 7, 59, 67
12, 103600, Note_off_c, 7, 62, 64
12, 103600, Note_off_c, 7, 59, 64
12, 103680, Note_on_c, 7, 63, 69
12, 103680, Note_on_c, 7, 60, 69
12, 104080, Note_off_c, 7, 60, 64
12, 104080, Note_off_c, 7, 63, 64
12, 104880, Note_on_c, 7, 63, 75
12, 104880, Note_on_c, 7, 60, 75
12, 105115, Note_off_c, 7, 60, 64
12, 105115, Note_off_c, 7, 63, 64
12, 105120, Note_on_c, 7, 62, 75
12, 105120, Note_on_c, 7, 59, 75
12, 105520, Note_off_c, 7, 59, 64
12, 105520, Note_off_c, 7, 62, 64
12, 106320, Note_on_c, 7, 60, 75
12, 106320, Note_on_c, 7, 55, 75
12, 106555, Note_off_c, 7, 55, 64
12, 106555, Note_off_c, 7, 60, 64
12, 106560, Note_on_c, 7, 60, 75
12, 106560, Note_on_c, 7, 56, 75
12, 106960, Note_off_c, 7, 56, 64
12, 106960, Note_off_c, 7, 60, 64
12, 107760, Note_on_c, 7, 58, 75
12, 107760, Note_on_c, 7, 55, 75
12, 107995, Note_off_c, 7, 55, 64
12, 107995, Note_off_c, 7, 58, 64
12, 108000, Note_on_c, 7, 60, 75
12, 108000, Note_on_c, 7, 56, 75
12, 108400, Note_off_c, 7, 56, 64
12, 108400, Note_off_c, 7, 60, 64
12, 109200, Note_on_c, 7, 60, 75
12, 109200, Note_on_c, 7, 56, 75
12, 109435, Note_off_c, 7, 56, 64
12, 109435, Note_off_c, 7, 60, 64
12, 109440, Note_on_c, 7, 62, 75
12, 109440, Note_on_c, 7, 59, 75
12, 109840, Note_off_c, 7, 59, 64
12, 109840, Note_off_c, 7, 62, 64
12, 110640, Note_on_c, 7, 62, 75
12, 110640, Note_on_c, 7, 59, 75
12, 110875, Note_off_c, 7, 59, 64
12, 110875, Note_off_c, 7, 62, 64
12, 110880, Note_on_c, 7, 63, 75
12, 110880, Note_on_c, 7, 60, 75
12, 111280, Note_off_c, 7, 60, 64
12, 111280, Note_off_c, 7, 63, 64
12, 112080, Note_on_c, 7, 62, 75
12, 112080, Note_on_c, 7, 59, 75
12, 112315, Note_off_c, 7, 59, 64
12, 112315, Note_off_c, 7, 62, 64
12, 112320, Note_on_c, 7, 63, 75
12, 112320, Note_on_c, 7, 60, 75
12, 112720, Note_off_c, 7, 60, 64
12, 112720, Note_off_c, 7, 63, 64
12, 113520, Note_on_c, 7, 60, 75
12, 113520, Note_on_c, 7, 56, 75
12, 113755, Note_off_c, 7, 56, 64
12, 113755, Note_off_c, 7, 60, 64
12, 113760, Note_on_c, 7, 62, 75
12, 113760, Note_on_c, 7, 60, 75
12, 114160, Note_off_c, 7, 60, 64
12, 114160, Note_off_c, 7, 62, 64
12, 114960, Note_on_c, 7, 62, 77
12, 114960, Note_on_c, 7, 59, 77
12, 115195, Note_off_c, 7, 59, 64
12, 115195, Note_off_c, 7, 62, 64
12, 115200, Note_on_c, 7, 63, 80
12, 115200, Note_on_c, 7, 60, 80
12, 115600, Note_off_c, 7, 60, 64
12, 115600, Note_off_c, 7, 63, 64
12, 116160, Note_on_c, 7, 60, 92
12, 116160, Note_on_c, 7, 55, 92
12, 116560, Note_off_c, 7, 55, 64
12, 116560, Note_off_c, 7, 60, 64
12, 116640, Note_on_c, 7, 62, 92
12, 116640, Note_on_c, 7, 59, 92
12, 117040, Note_off_c, 7, 59, 64
12, 117040, Note_off_c, 7, 62, 64
12, 117600, Note_on_c, 7, 60, 92
12, 117600, Note_on_c, 7, 55, 92
12, 118000, Note_off_c, 7, 55, 64
12, 118000, Note_off_c, 7, 60, 64
12, 118080, Note_on_c, 7, 60, 92
12, 118080, Note_on_c, 7, 56, 92
12, 118480, Note_off_c, 7, 56, 64
12, 118480, Note_off_c, 7, 60, 64
12, 119040, Note_on_c, 7, 62, 92
12, 119040, Note_on_c, 7, 59, 92
12, 119440, Note_off_c, 7, 59, 64
12, 119440, Note_off_c, 7, 62, 64
12, 119520, Note_on_c, 7, 63, 92
12, 119520, Note_on_c, 7, 60, 92
12, 119920, Note_off_c, 7, 60, 64
12, 119920, Note_off_c, 7, 63, 64
12, 120480, Note_on_c, 7, 60, 92
12, 120480, Note_on_c, 7, 56, 92
12, 120880, Note_off_c, 7, 56, 64
12, 120880, Note_off_c, 7, 60, 64
12, 120960, Note_on_c, 7, 62, 92
12, 120960, Note_on_c, 7, 59, 92
12, 121360, Note_off_c, 7, 59, 64
12, 121360, Note_off_c, 7, 62, 64
12, 121920, Note_on_c, 7, 59, 92
12, 121920, Note_on_c, 7, 53, 92
12, 122320, Note_off_c, 7, 53, 64
12, 122320, Note_off_c, 7, 59, 64
12, 122400, Note_on_c, 7, 60, 92
12, 122400, Note_on_c, 7, 55, 92
12, 122800, Note_off_c, 7, 55, 64
12, 122800, Note_off_c, 7, 60, 64
12, 123360, Note_on_c, 7, 62, 92
12, 123360, Note_on_c, 7, 55, 92
12, 123760, Note_off_c, 7, 55, 64
12, 123760, Note_off_c, 7, 62, 64
12, 123840, Note_on_c, 7, 63, 92
12, 123840, Note_on_c, 7, 55, 92
12, 124240, Note_off_c, 7, 55, 64
12, 124240, Note_off_c, 7, 63, 64
12, 124800, Note_on_c, 7, 60, 92
12, 124800, Note_on_c, 7, 56, 92
12, 125200, Note_off_c, 7, 56, 64
12, 125200, Note_off_c, 7, 60, 64
12, 125280, Note_on_c, 7, 62, 92
12, 125280, Note_on_c, 7, 60, 92
12, 125680, Note_off_c, 7, 60, 64
12, 125680, Note_off_c, 7, 62, 64
12, 126240, Note_on_c, 7, 59, 75
12, 126240, Note_on_c, 7, 50, 75
12, 126640, Note_off_c, 7, 50, 64
12, 126640, Note_off_c, 7, 59, 64
12, 126720, Note_on_c, 7, 55, 60
12, 126720, Note_on_c, 7, 51, 60
12, 127120, Note_off_c, 7, 51, 64
12, 127120, Note_off_c, 7, 55, 64
12, 173760, Note_on_c, 7, 48, 75
12, 174160, Note_off_c, 7, 48, 64
12, 174240, Note_on_c, 7, 55, 75
12, 175080, Note_off_c, 7, 55, 64
12, 175200, Note_on_c, 7, 51, 75
12, 175600, Note_off_c, 7, 51, 64
12, 175680, Note_on_c, 7, 53, 75
12, 176520, Note_off_c, 7, 53, 64
12, 176640, Note_on_c, 7, 55, 75
12, 177040, Note_off_c, 7, 55, 64
12, 177120, Note_on_c, 7, 56, 75
12, 177960, Note_off_c, 7, 56, 64
12, 178080, Note_on_c, 7, 53, 75
12, 178480, Note_off_c, 7, 53, 64
12, 178560, Note_on_c, 7, 55, 75
12, 179400, Note_off_c, 7, 55, 64
12, 179520, Note_on_c, 7, 50, 75
12, 179920, Note_off_c, 7, 50, 64
12, 180000, Note_on_c, 7, 51, 75
12, 180840, Note_off_c, 7, 51, 64
12, 180960, Note_on_c, 7, 47, 75
12, 181360, Note_off_c, 7, 47, 64
12, 181440, Note_on_c, 7, 48, 75
12, 182280, Note_off_c, 7, 48, 64
12, 182400, Note_on_c, 7, 53, 75
12, 182800, Note_off_c, 7, 53, 64
12, 182880, Note_on_c, 7, 55, 75
12, 184200, Note_off_c, 7, 55, 64
12, 184320, Note_on_c, 7, 48, 85
12, 185160, Note_off_c, 7, 48, 64
12, 185520, Note_on_c, 7, 60, 127
12, 185520, Note_on_c, 7, 55, 127
12, 185755, Note_off_c, 7, 55, 64
12, 185755, Note_off_c, 7, 60, 64
12, 186960, Note_on_c, 7, 60, 127
12, 186960, Note_on_c, 7, 55, 127
12, 187195, Note_off_c, 7, 55, 64
12, 187195, Note_off_c, 7, 60, 64
12, 188400, Note_on_c, 7, 62, 127
12, 188400, Note_on_c, 7, 59, 127
12, 188635, Note_off_c, 7, 59, 64
12, 188635, Note_off_c, 7, 62, 64
12, 189840, Note_on_c, 7, 62, 127
12, 189840, Note_on_c, 7, 60, 127
12, 190075, Note_off_c, 7, 60, 64
12, 190075, Note_off_c, 7, 62, 64
12, 191280, Note_on_c, 7, 62, 127
12, 191280, Note_on_c, 7, 59, 127
12, 191515, Note_off_c, 7, 59, 64
12, 191515, Note_off_c, 7, 62, 64
12, 192720, Note_on_c, 7, 62, 127
12, 192720, Note_on_c, 7, 59, 127
12, 192955, Note_off_c, 7, 59, 64
12, 192955, Note_off_c, 7, 62, 64
12, 194160, Note_on_c, 7, 60, 127
12, 194160, Note_on_c, 7, 56, 127
12, 194395, Note_off_c, 7, 56, 64
12, 194395, Note_off_c, 7, 60, 64
12, 195600, Note_on_c, 7, 62, 127
12, 195600, Note_on_c, 7, 59, 127
12, 195835, Note_off_c, 7, 59, 64
12, 195835, Note_off_c, 7, 62, 64
12, 196800, Note_on_c, 7, 60, 92
12, 196800, Note_on_c, 7, 55, 92
12, 197200, Note_off_c, 7, 55, 64
12, 197200, Note_off_c, 7, 60, 64
12, 197280, Note_on_c, 7, 55, 92
12, 198120, Note_off_c, 7, 55, 64
12, 198240, Note_on_c, 7, 51, 92
12, 198640, Note_off_c, 7, 51, 64
12, 198720, Note_on_c, 7, 53, 92
12, 199560, Note_off_c, 7, 53, 64
12, 199680, Note_on_c, 7, 55, 92
12, 200080, Note_off_c, 7, 55, 64
12, 200160, Note_on_c, 7, 56, 92
12, 201000, Note_off_c, 7, 56, 64
12, 201120, Note_on_c, 7, 53, 92
12, 201520, Note_off_c, 7, 53, 64
12, 201600, Note_on_c, 7, 55, 92
12, 202440, Note_off_c, 7, 55, 64
12, 202560, Note_on_c, 7, 50, 92
12, 202960, Note_off_c, 7, 50, 64
12, 203040, Note_on_c, 7, 51, 92
12, 203880, Note_off_c, 7, 51, 64
12, 204000, Note_on_c, 7, 47, 92
12, 204400, Note_off_c, 7, 47, 64
12, 204480, Note_on_c, 7, 48, 92
12, 205320, Note_off_c, 7, 48, 64
12, 205440, Note_on_c, 7, 53, 92
12, 205840, Note_off_c, 7, 53, 64
12, 205920, Note_on_c, 7, 55, 92
12, 207240, Note_off_c, 7, 55, 64
12, 207360, Note_on_c, 7, 48, 92
12, 208200, Note_off_c, 7, 48, 64
12, 208560, Note_on_c, 7, 63, 108
12, 208560, Note_on_c, 7, 60, 108
12, 208795, Note_off_c, 7, 60, 64
12, 208795, Note_off_c, 7, 63, 64
12, 208800, Note_on_c, 7, 62, 108
12, 208800, Note_on_c, 7, 59, 108
12, 209640, Note_off_c, 7, 59, 64
12, 209640, Note_off_c, 7, 62, 64
12, 210000, Note_on_c, 7, 63, 108
12, 210000, Note_on_c, 7, 60, 108
12, 210235, Note_off_c, 7, 60, 64
12, 210235, Note_off_c, 7, 63, 64
12, 210240, Note_on_c, 7, 65, 108
12, 210240, Note_on_c, 7, 60, 108
12, 211080, Note_off_c, 7, 60, 64
12, 211080, Note_off_c, 7, 65, 64
12, 211440, Note_on_c, 7, 62, 108
12, 211440, Note_on_c, 7, 59, 108
12, 211675, Note_off_c, 7, 59, 64
12, 211675, Note_off_c, 7, 62, 64
12, 211680, Note_on_c, 7, 63, 108
12, 211680, Note_on_c, 7, 60, 108
12, 212520, Note_off_c, 7, 60, 64
12, 212520, Note_off_c, 7, 63, 64
12, 212880, Note_on_c, 7, 63, 108
12, 212880, Note_on_c, 7, 60, 108
12, 213115, Note_off_c, 7, 60, 64
12, 213115, Note_off_c, 7, 63, 64
12, 213120, Note_on_c, 7, 62, 108
12, 213120, Note_on_c, 7, 59, 108
12, 213960, Note_off_c, 7, 59, 64
12, 213960, Note_off_c, 7, 62, 64
12, 214320, Note_on_c, 7, 62, 108
12, 214320, Note_on_c, 7, 59, 108
12, 214555, Note_off_c, 7, 59, 64
12, 214555, Note_off_c, 7, 62, 64
12, 214560, Note_on_c, 7, 63, 108
12, 214560, Note_on_c, 7, 60, 108
12, 215400, Note_off_c, 7, 60, 64
12, 215400, Note_off_c, 7, 63, 64
12, 215760, Note_on_c, 7, 62, 108
12, 215760, Note_on_c, 7, 59, 108
12, 215995, Note_off_c, 7, 59, 64
12, 215995, Note_off_c, 7, 62, 64
12, 216000, Note_on_c, 7, 63, 108
12, 216000, Note_on_c, 7, 60, 108
12, 216840, Note_off_c, 7, 60, 64
12, 216840, Note_off_c, 7, 63, 64
12, 217200, Note_on_c, 7, 65, 108
12, 217200, Note_on_c, 7, 60, 108
12, 217435, Note_off_c, 7, 60, 64
12, 217435, Note_off_c, 7, 65, 64
12, 217440, Note_on_c, 7, 62, 108
12, 217440, Note_on_c, 7, 60, 108
12, 218280, Note_off_c, 7, 60, 64
12, 218280, Note_off_c, 7, 62, 64
12, 218640, Note_on_c, 7, 62, 108
12, 218640, Note_on_c, 7, 59, 108
12, 218875, Note_off_c, 7, 59, 64
12, 218875, Note_off_c, 7, 62, 64
12, 218880, Note_on_c, 7, 63, 108
12, 218880, Note_on_c, 7, 60, 108
12, 219720, Note_off_c, 7, 60, 64
12, 219720, Note_off_c, 7, 63, 64
12, 219840, Note_on_c, 7, 63, 108
12, 219840, Note_on_c, 7, 60, 108
12, 220240, Note_off_c, 7, 60, 64
12, 220240, Note_off_c, 7, 63, 64
12, 220320, Note_on_c, 7, 62, 108
12, 220320, Note_on_c, 7, 59, 108
12, 221160, Note_off_c, 7, 59, 64
12, 221160, Note_off_c, 7, 62, 64
12, 221280, Note_on_c, 7, 63, 108
12, 221280, Note_on_c, 7, 60, 108
12, 221680, Note_off_c, 7, 60, 64
12, 221680, Note_off_c, 7, 63, 64
12, 221760, Note_on_c, 7, 65, 108
12, 221760, Note_on_c, 7, 60, 108
12, 222600, Note_off_c, 7, 60, 64
12, 222600, Note_off_c, 7, 65, 64
12, 222720, Note_on_c, 7, 62, 108
12, 222720, Note_on_c, 7, 59, 108
12, 223120, Note_off_c, 7, 59, 64
12, 223120, Note_off_c, 7, 62, 64
12, 223200, Note_on_c, 7, 63, 108
12, 223200, Note_on_c, 7, 60, 108
12, 224040, Note_off_c, 7, 60, 64
12, 224040, Note_off_c, 7, 63, 64
12, 224160, Note_on_c, 7, 63, 108
12, 224160, Note_on_c, 7, 60, 108
12, 224560, Note_off_c, 7, 60, 64
12, 224560, Note_off_c, 7, 63, 64
12, 224640, Note_on_c, 7, 62, 108
12, 224640, Note_on_c, 7, 59, 108
12, 225480, Note_off_c, 7, 59, 64
12, 225480, Note_off_c, 7, 62, 64
12, 225600, Note_on_c, 7, 62, 108
12, 225600, Note_on_c, 7, 59, 108
12, 226000, Note_off_c, 7, 59, 64
12, 226000, Note_off_c, 7, 62, 64
12, 226080, Note_on_c, 7, 63, 108
12, 226080, Note_on_c, 7, 60, 108
12, 226920, Note_off_c, 7, 60, 64
12, 226920, Note_off_c, 7, 63, 64
12, 227040, Note_on_c, 7, 62, 108
12, 227040, Note_on_c, 7, 59, 108
12, 227440, Note_off_c, 7, 59, 64
12, 227440, Note_off_c, 7, 62, 64
12, 227520, Note_on_c, 7, 63, 108
12, 227520, Note_on_c, 7, 60, 108
12, 228360, Note_off_c, 7, 60, 64
12, 228360, Note_off_c, 7, 63, 64
12, 228480, Note_on_c, 7, 65, 108
12, 228480, Note_on_c, 7, 60, 108
12, 228880, Note_off_c, 7, 60, 64
12, 228880, Note_off_c, 7, 65, 64
12, 228960, Note_on_c, 7, 62, 108
12, 228960, Note_on_c, 7, 60, 108
12, 229920, Note_off_c, 7, 60, 64
12, 229920, Note_off_c, 7, 62, 64
12, 229920, Note_on_c, 7, 62, 108
12, 229920, Note_on_c, 7, 59, 108
12, 230320, Note_off_c, 7, 59, 64
12, 230320, Note_off_c, 7, 62, 64
12, 230400, Note_on_c, 7, 63, 108
12, 230400, Note_on_c, 7, 60, 108
12, 231240, Note_off_c, 7, 60, 64
12, 231240, Note_off_c, 7, 63, 64
12, 231360, Note_on_c, 7, 63, 108
12, 231360, Note_on_c, 7, 60, 108
12, 231760, Note_off_c, 7, 60, 64
12, 231760, Note_off_c, 7, 63, 64
12, 231840, Note_on_c, 7, 62, 108
12, 231840, Note_on_c, 7, 59, 108
12, 232680, Note_off_c, 7, 59, 64
12, 232680, Note_off_c, 7, 62, 64
12, 232800, Note_on_c, 7, 63, 108
12, 232800, Note_on_c, 7, 60, 108
12, 233200, Note_off_c, 7, 60, 64
12, 233200, Note_off_c, 7, 63, 64
12, 233280, Note_on_c, 7, 65, 108
12, 233280, Note_on_c, 7, 60, 108
12, 234120, Note_off_c, 7, 60, 64
12, 234120, Note_off_c, 7, 65, 64
12, 234240, Note_on_c, 7, 62, 108
12, 234240, Note_on_c, 7, 59, 108
12, 234640, Note_off_c, 7, 59, 64
12, 234640, Note_off_c, 7, 62, 64
12, 234720, Note_on_c, 7, 63, 108
12, 234720, Note_on_c, 7, 60, 108
12, 235560, Note_off_c, 7, 60, 64
12, 235560, Note_off_c, 7, 63, 64
12, 235680, Note_on_c, 7, 63, 108
12, 235680, Note_on_c, 7, 60, 108
12, 236080, Note_off_c, 7, 60, 64
12, 236080, Note_off_c, 7, 63, 64
12, 236160, Note_on_c, 7, 62, 108
12, 236160, Note_on_c, 7, 59, 108
12, 237000, Note_off_c, 7, 59, 64
12, 237000, Note_off_c, 7, 62, 64
12, 237120, Note_on_c, 7, 62, 108
12, 237120, Note_on_c, 7, 59, 108
12, 237520, Note_off_c, 7, 59, 64
12, 237520, Note_off_c, 7, 62, 64
12, 237600, Note_on_c, 7, 63, 108
12, 237600, Note_on_c, 7, 60, 108
12, 238440, Note_off_c, 7, 60, 64
12, 238440, Note_off_c, 7, 63, 64
12, 238560, Note_on_c, 7, 62, 108
12, 238560, Note_on_c, 7, 59, 108
12, 238960, Note_off_c, 7, 59, 64
12, 238960, Note_off_c, 7, 62, 64
12, 239040, Note_on_c, 7, 63, 108
12, 239040, Note_on_c, 7, 60, 108
12, 239880, Note_off_c, 7, 60, 64
12, 239880, Note_off_c, 7, 63, 64
12, 240000, Note_on_c, 7, 65, 108
12, 240000, Note_on_c, 7, 60, 108
12, 240400, Note_off_c, 7, 60, 64
12, 240400, Note_off_c, 7, 65, 64
12, 240480, Note_on_c, 7, 62, 108
12, 240480, Note_on_c, 7, 60, 108
12, 241440, Note_off_c, 7, 60, 64
12, 241440, Note_on_c, 7, 59, 108
12, 241840, Note_off_c, 7, 62, 64
12, 241840, Note_off_c, 7, 59, 64
12, 241920, Note_on_c, 7, 63, 60
12, 241920, Note_on_c, 7, 60, 60
12, 243240, Note_off_c, 7, 60, 64
12, 243240, Note_off_c, 7, 63, 64
12, 276720, Note_on_c, 7, 63, 75
12, 276720, Note_on_c, 7, 51, 75
12, 276960, Note_off_c, 7, 51, 64
12, 276960, Note_off_c, 7, 63, 64
12, 276960, Note_on_c, 7, 59, 75
12, 276960, Note_on_c, 7, 46, 75
12, 277195, Note_off_c, 7, 46, 64
12, 277195, Note_off_c, 7, 59, 64
12, 277200, Note_on_c, 7, 59, 75
12, 277200, Note_on_c, 7, 47, 75
12, 277440, Note_off_c, 7, 47, 64
12, 277440, Note_off_c, 7, 59, 64
12, 277440, Note_on_c, 7, 60, 75
12, 277440, Note_on_c, 7, 48, 75
12, 277840, Note_off_c, 7, 48, 64
12, 277840, Note_off_c, 7, 60, 64
12, 278160, Note_on_c, 7, 68, 75
12, 278160, Note_on_c, 7, 56, 75
12, 278400, Note_off_c, 7, 56, 64
12, 278400, Note_off_c, 7, 68, 64
12, 278400, Note_on_c, 7, 62, 75
12, 278400, Note_on_c, 7, 50, 75
12, 278635, Note_off_c, 7, 50, 64
12, 278635, Note_off_c, 7, 62, 64
12, 278640, Note_on_c, 7, 62, 75
12, 278640, Note_on_c, 7, 50, 75
12, 278880, Note_off_c, 7, 50, 64
12, 278880, Note_off_c, 7, 62, 64
12, 278880, Note_on_c, 7, 64, 75
12, 278880, Note_on_c, 7, 52, 75
12, 279280, Note_off_c, 7, 52, 64
12, 279280, Note_off_c, 7, 64, 64
12, 279600, Note_on_c, 7, 65, 75
12, 279600, Note_on_c, 7, 53, 75
12, 279840, Note_off_c, 7, 53, 64
12, 279840, Note_off_c, 7, 65, 64
12, 279840, Note_on_c, 7, 60, 75
12, 279840, Note_on_c, 7, 48, 75
12, 280075, Note_off_c, 7, 48, 64
12, 280075, Note_off_c, 7, 60, 64
12, 280080, Note_on_c, 7, 60, 75
12, 280080, Note_on_c, 7, 48, 75
12, 280320, Note_off_c, 7, 48, 64
12, 280320, Note_off_c, 7, 60, 64
12, 280320, Note_on_c, 7, 62, 75
12, 280320, Note_on_c, 7, 50, 75
12, 280720, Note_off_c, 7, 50, 64
12, 280720, Note_off_c, 7, 62, 64
12, 281040, Note_on_c, 7, 63, 75
12, 281040, Note_on_c, 7, 51, 75
12, 281280, Note_off_c, 7, 51, 64
12, 281280, Note_off_c, 7, 63, 64
12, 281280, Note_on_c, 7, 59, 75
12, 281280, Note_on_c, 7, 47, 75
12, 281515, Note_off_c, 7, 47, 64
12, 281515, Note_off_c, 7, 59, 64
12, 281520, Note_on_c, 7, 59, 75
12, 281520, Note_on_c, 7, 47, 75
12, 281760, Note_off_c, 7, 47, 64
12, 281760, Note_off_c, 7, 59, 64
12, 281760, Note_on_c, 7, 60, 75
12, 281760, Note_on_c, 7, 48, 75
12, 282160, Note_off_c, 7, 48, 64
12, 282160, Note_off_c, 7, 60, 64
12, 284640, Note_on_c, 7, 51, 75
12, 285040, Note_off_c, 7, 51, 64
12, 285120, Note_on_c, 7, 58, 75
12, 285960, Note_off_c, 7, 58, 64
12, 286080, Note_on_c, 7, 55, 75
12, 286480, Note_off_c, 7, 55, 64
12, 286560, Note_on_c, 7, 56, 75
12, 287400, Note_off_c, 7, 56, 64
12, 287520, Note_on_c, 7, 58, 75
12, 287920, Note_off_c, 7, 58, 64
12, 288000, Note_on_c, 7, 60, 75
12, 288840, Note_off_c, 7, 60, 64
12, 288960, Note_on_c, 7, 56, 75
12, 289360, Note_off_c, 7, 56, 64
12, 289440, Note_on_c, 7, 58, 75
12, 290280, Note_off_c, 7, 58, 64
12, 290400, Note_on_c, 7, 60, 75
12, 290800, Note_off_c, 7, 60, 64
12, 290880, Note_on_c, 7, 53, 75
12, 291720, Note_off_c, 7, 53, 64
12, 291840, Note_on_c, 7, 58, 75
12, 292240, Note_off_c, 7, 58, 64
12, 292320, Note_on_c, 7, 51, 75
12, 292960, Note_off_c, 7, 51, 64
12, 293040, Note_on_c, 7, 51, 75
12, 293280, Note_off_c, 7, 51, 64
12, 293280, Note_on_c, 7, 53, 75
12, 293520, Note_off_c, 7, 53, 64
12, 293520, Note_on_c, 7, 55, 75
12, 293760, Note_off_c, 7, 55, 64
12, 293760, Note_on_c, 7, 56, 75
12, 294240, Note_off_c, 7, 56, 64
12, 294240, Note_on_c, 7, 53, 75
12, 294720, Note_off_c, 7, 53, 64
12, 294720, Note_on_c, 7, 50, 75
12, 295200, Note_off_c, 7, 50, 64
12, 295200, Note_on_c, 7, 51, 75
12, 295600, Note_off_c, 7, 51, 64
12, 295680, Note_on_c, 7, 63, 75
12, 296160, Note_off_c, 7, 63, 64
12, 296160, Note_on_c, 7, 60, 75
12, 296640, Note_off_c, 7, 60, 64
12, 296640, Note_on_c, 7, 62, 75
12, 297120, Note_off_c, 7, 62, 64
12, 297120, Note_on_c, 7, 58, 75
12, 297600, Note_off_c, 7, 58, 64
12, 297600, Note_on_c, 7, 55, 75
12, 298000, Note_off_c, 7, 55, 64
12, 298080, Note_on_c, 7, 60, 75
12, 298560, Note_off_c, 7, 60, 64
12, 298560, Note_on_c, 7, 56, 75
12, 299040, Note_off_c, 7, 56, 64
12, 299040, Note_on_c, 7, 53, 75
12, 299520, Note_off_c, 7, 53, 64
12, 299520, Note_on_c, 7, 55, 75
12, 300000, Note_off_c, 7, 55, 64
12, 300000, Note_on_c, 7, 58, 75
12, 300400, Note_off_c, 7, 58, 64
12, 317760, Note_on_c, 7, 43, 92
12, 318160, Note_off_c, 7, 43, 64
12, 318240, Note_on_c, 7, 50, 92
12, 319080, Note_off_c, 7, 50, 64
12, 319200, Note_on_c, 7, 46, 92
12, 319600, Note_off_c, 7, 46, 64
12, 319680, Note_on_c, 7, 48, 92
12, 320520, Note_off_c, 7, 48, 64
12, 320640, Note_on_c, 7, 50, 92
12, 321040, Note_off_c, 7, 50, 64
12, 321120, Note_on_c, 7, 51, 92
12, 321960, Note_off_c, 7, 51, 64
12, 322080, Note_on_c, 7, 48, 92
12, 322480, Note_off_c, 7, 48, 64
12, 322560, Note_on_c, 7, 50, 75
12, 323200, Note_off_c, 7, 50, 64
12, 345120, Note_on_c, 7, 58, 60
12, 345120, Note_on_c, 7, 55, 60
12, 345355, Note_off_c, 7, 55, 64
12, 345355, Note_off_c, 7, 58, 64
12, 345360, Note_on_c, 7, 60, 60
12, 345360, Note_on_c, 7, 57, 60
12, 345595, Note_off_c, 7, 57, 64
12, 345595, Note_off_c, 7, 60, 64
12, 345600, Note_on_c, 7, 50, 60
12, 345600, Note_on_c, 7, 46, 60
12, 345835, Note_off_c, 7, 46, 64
12, 345835, Note_off_c, 7, 50, 64
12, 345840, Note_on_c, 7, 51, 60
12, 345840, Note_on_c, 7, 48, 60
12, 346075, Note_off_c, 7, 48, 64
12, 346075, Note_off_c, 7, 51, 64
12, 346080, Note_on_c, 7, 53, 60
12, 346080, Note_on_c, 7, 50, 60
12, 346315, Note_off_c, 7, 50, 64
12, 346315, Note_off_c, 7, 53, 64
12, 346320, Note_on_c, 7, 55, 60
12, 346320, Note_on_c, 7, 51, 60
12, 346555, Note_off_c, 7, 51, 64
12, 346555, Note_off_c, 7, 55, 64
12, 346560, Note_on_c, 7, 56, 60
12, 346560, Note_on_c, 7, 53, 60
12, 346795, Note_off_c, 7, 53, 64
12, 346795, Note_off_c, 7, 56, 64
12, 346800, Note_on_c, 7, 58, 60
12, 346800, Note_on_c, 7, 55, 60
12, 347035, Note_off_c, 7, 55, 64
12, 347035, Note_off_c, 7, 58, 64
12, 347040, Note_on_c, 7, 48, 60
12, 347040, Note_on_c, 7, 44, 60
12, 347275, Note_off_c, 7, 44, 64
12, 347275, Note_off_c, 7, 48, 64
12, 347280, Note_on_c, 7, 50, 60
12, 347280, Note_on_c, 7, 46, 60
12, 347515, Note_off_c, 7, 46, 64
12, 347515, Note_off_c, 7, 50, 64
12, 347520, Note_on_c, 7, 51, 60
12, 347520, Note_on_c, 7, 48, 60
12, 347755, Note_off_c, 7, 48, 64
12, 347755, Note_off_c, 7, 51, 64
12, 347760, Note_on_c, 7, 53, 60
12, 347760, Note_on_c, 7, 50, 60
12, 347995, Note_off_c, 7, 50, 64
12, 347995, Note_off_c, 7, 53, 64
12, 348000, Note_on_c, 7, 55, 60
12, 348000, Note_on_c, 7, 51, 60
12, 348235, Note_off_c, 7, 51, 64
12, 348235, Note_off_c, 7, 55, 64
12, 348240, Note_on_c, 7, 56, 60
12, 348240, Note_on_c, 7, 53, 60
12, 348475, Note_off_c, 7, 53, 64
12, 348475, Note_off_c, 7, 56, 64
12, 348480, Note_on_c, 7, 58, 60
12, 348480, Note_on_c, 7, 55, 60
12, 348715, Note_off_c, 7, 55, 64
12, 348715, Note_off_c, 7, 58, 64
12, 348720, Note_on_c, 7, 60, 60
12, 348720, Note_on_c, 7, 56, 60
12, 348955, Note_off_c, 7, 56, 64
12, 348955, Note_off_c, 7, 60, 64
12, 348960, Note_on_c, 7, 50, 60
12, 348960, Note_on_c, 7, 46, 60
12, 349195, Note_off_c, 7, 46, 64
12, 349195, Note_off_c, 7, 50, 64
12, 349200, Note_on_c, 7, 51, 60
12, 349200, Note_on_c, 7, 48, 60
12, 349435, Note_off_c, 7, 48, 64
12, 349435, Note_off_c, 7, 51, 64
12, 349440, Note_on_c, 7, 53, 60
12, 349440, Note_on_c, 7, 50, 60
12, 349675, Note_off_c, 7, 50, 64
12, 349675, Note_off_c, 7, 53, 64
12, 349680, Note_on_c, 7, 55, 60
12, 349680, Note_on_c, 7, 52, 60
12, 349915, Note_off_c, 7, 52, 64
12, 349915, Note_off_c, 7, 55, 64
12, 349920, Note_on_c, 7, 56, 60
12, 349920, Note_on_c, 7, 53, 60
12, 350155, Note_off_c, 7, 53, 64
12, 350155, Note_off_c, 7, 56, 64
12, 350160, Note_on_c, 7, 58, 60
12, 350160, Note_on_c, 7, 55, 60
12, 350395, Note_off_c, 7, 55, 64
12, 350395, Note_off_c, 7, 58, 64
12, 350400, Note_on_c, 7, 60, 60
12, 350400, Note_on_c, 7, 56, 60
12, 350635, Note_off_c, 7, 56, 64
12, 350635, Note_off_c, 7, 60, 64
12, 350640, Note_on_c, 7, 62, 60
12, 350640, Note_on_c, 7, 58, 60
12, 350875, Note_off_c, 7, 58, 64
12, 350875, Note_off_c, 7, 62, 64
12, 350880, Note_on_c, 7, 63, 60
12, 350880, Note_on_c, 7, 60, 60
12, 351115, Note_off_c, 7, 60, 64
12, 351115, Note_off_c, 7, 63, 64
12, 351120, Note_on_c, 7, 65, 60
12, 351120, Note_on_c, 7, 62, 60
12, 351355, Note_off_c, 7, 62, 64
12, 351355, Note_off_c, 7, 65, 64
12, 351360, Note_on_c, 7, 67, 60
12, 351360, Note_on_c, 7, 63, 60
12, 352000, Note_off_c, 7, 63, 64
12, 352000, Note_off_c, 7, 67, 64
12, 352080, Note_on_c, 7, 67, 60
12, 352080, Note_on_c, 7, 62, 60
12, 352315, Note_off_c, 7, 62, 64
12, 352315, Note_off_c, 7, 67, 64
12, 354480, Note_on_c, 7, 58, 75
12, 354720, Note_off_c, 7, 58, 64
12, 354720, Note_on_c, 7, 54, 75
12, 354955, Note_off_c, 7, 54, 64
12, 354960, Note_on_c, 7, 54, 75
12, 355200, Note_off_c, 7, 54, 64
12, 355200, Note_on_c, 7, 55, 75
12, 355600, Note_off_c, 7, 55, 64
12, 355920, Note_on_c, 7, 63, 75
12, 356160, Note_off_c, 7, 63, 64
12, 356160, Note_on_c, 7, 57, 75
12, 356395, Note_off_c, 7, 57, 64
12, 356400, Note_on_c, 7, 57, 75
12, 356640, Note_off_c, 7, 57, 64
12, 356640, Note_on_c, 7, 59, 75
12, 357040, Note_off_c, 7, 59, 64
12, 357360, Note_on_c, 7, 60, 75
12, 357600, Note_off_c, 7, 60, 64
12, 357600, Note_on_c, 7, 55, 75
12, 357835, Note_off_c, 7, 55, 64
12, 357840, Note_on_c, 7, 55, 75
12, 358080, Note_off_c, 7, 55, 64
12, 358080, Note_on_c, 7, 57, 75
12, 358480, Note_off_c, 7, 57, 64
12, 359520, Note_on_c, 7, 55, 75
12, 359520, Note_on_c, 7, 50, 75
12, 359920, Note_off_c, 7, 50, 64
12, 359920, Note_off_c, 7, 55, 64
12, 360000, Note_on_c, 7, 60, 75
12, 360000, Note_on_c, 7, 51, 75
12, 360240, Note_off_c, 7, 51, 64
12, 360240, Note_off_c, 7, 60, 64
12, 360240, Note_on_c, 7, 58, 75
12, 360240, Note_on_c, 7, 50, 75
12, 360480, Note_off_c, 7, 50, 64
12, 360480, Note_off_c, 7, 58, 64
12, 360480, Note_on_c, 7, 57, 75
12, 360480, Note_on_c, 7, 53, 75
12, 360720, Note_off_c, 7, 53, 64
12, 360720, Note_off_c, 7, 57, 64
12, 360720, Note_on_c, 7, 62, 75
12, 360720, Note_on_c, 7, 57, 75
12, 360960, Note_off_c, 7, 57, 64
12, 360960, Note_off_c, 7, 62, 64
12, 360960, Note_on_c, 7, 58, 75
12, 360960, Note_on_c, 7, 55, 75
12, 361200, Note_off_c, 7, 55, 64
12, 361200, Note_off_c, 7, 58, 64
12, 361200, Note_on_c, 7, 55, 75
12, 361200, Note_on_c, 7, 50, 75
12, 361435, Note_off_c, 7, 50, 64
12, 361435, Note_off_c, 7, 55, 64
12, 361440, Note_on_c, 7, 60, 75
12, 361440, Note_on_c, 7, 55, 75
12, 361680, Note_off_c, 7, 55, 64
12, 361680, Note_off_c, 7, 60, 64
12, 361680, Note_on_c, 7, 65, 75
12, 361680, Note_on_c, 7, 53, 75
12, 361920, Note_off_c, 7, 53, 64
12, 361920, Note_off_c, 7, 65, 64
12, 361920, Note_on_c, 7, 58, 75
12, 361920, Note_on_c, 7, 53, 75
12, 362160, Note_off_c, 7, 53, 64
12, 362160, Note_off_c, 7, 58, 64
12, 362160, Note_on_c, 7, 63, 75
12, 362160, Note_on_c, 7, 51, 75
12, 362400, Note_off_c, 7, 51, 64
12, 362400, Note_off_c, 7, 63, 64
12, 362400, Note_on_c, 7, 57, 75
12, 362400, Note_on_c, 7, 51, 75
12, 362640, Note_off_c, 7, 51, 64
12, 362640, Note_off_c, 7, 57, 64
12, 362640, Note_on_c, 7, 62, 75
12, 362640, Note_on_c, 7, 50, 75
12, 362875, Note_off_c, 7, 50, 64
12, 362875, Note_off_c, 7, 62, 64
12, 363120, Note_on_c, 7, 65, 75
12, 363120, Note_on_c, 7, 50, 75
12, 363360, Note_off_c, 7, 50, 64
12, 363360, Note_off_c, 7, 65, 64
12, 363360, Note_on_c, 7, 63, 75
12, 363360, Note_on_c, 7, 51, 75
12, 363600, Note_off_c, 7, 51, 64
12, 363600, Note_off_c, 7, 63, 64
12, 363600, Note_on_c, 7, 60, 75
12, 363600, Note_on_c, 7, 51, 75
12, 363835, Note_off_c, 7, 51, 64
12, 363835, Note_off_c, 7, 60, 64
12, 363840, Note_on_c, 7, 62, 75
12, 363840, Note_on_c, 7, 50, 75
12, 364080, Note_off_c, 7, 50, 64
12, 364080, Note_off_c, 7, 62, 64
12, 364080, Note_on_c, 7, 62, 75
12, 364080, Note_on_c, 7, 50, 75
12, 364320, Note_off_c, 7, 50, 64
12, 364320, Note_off_c, 7, 62, 64
12, 364320, Note_on_c, 7, 55, 75
12, 364720, Note_off_c, 7, 55, 64
12, 365520, Note_on_c, 7, 55, 75
12, 365760, Note_off_c, 7, 55, 64
12, 365760, Note_on_c, 7, 48, 75
12, 366480, Note_off_c, 7, 48, 64
12, 366480, Note_on_c, 7, 50, 75
12, 366720, Note_off_c, 7, 50, 64
12, 366720, Note_on_c, 7, 52, 75
12, 366960, Note_off_c, 7, 52, 64
12, 366960, Note_on_c, 7, 48, 75
12, 367195, Note_off_c, 7, 48, 64
12, 367200, Note_on_c, 7, 53, 75
12, 368040, Note_off_c, 7, 53, 64
12, 368160, Note_on_c, 7, 53, 92
12, 368560, Note_off_c, 7, 53, 64
12, 368640, Note_on_c, 7, 60, 92
12, 369480, Note_off_c, 7, 60, 64
12, 369600, Note_on_c, 7, 56, 92
12, 370000, Note_off_c, 7, 56, 64
12, 370080, Note_on_c, 7, 58, 92
12, 370920, Note_off_c, 7, 58, 64
12, 371040, Note_on_c, 7, 60, 92
12, 371440, Note_off_c, 7, 60, 64
12, 371520, Note_on_c, 7, 61, 92
12, 372360, Note_off_c, 7, 61, 64
12, 372480, Note_on_c, 7, 58, 92
12, 372880, Note_off_c, 7, 58, 64
12, 372960, Note_on_c, 7, 60, 92
12, 373360, Note_off_c, 7, 60, 64
12, 373440, Note_on_c, 7, 52, 92
12, 373680, Note_off_c, 7, 52, 64
12, 373680, Note_on_c, 7, 53, 92
12, 373915, Note_off_c, 7, 53, 64
12, 373920, Note_on_c, 7, 52, 92
12, 374160, Note_off_c, 7, 52, 64
12, 374160, Note_on_c, 7, 55, 92
12, 374395, Note_off_c, 7, 55, 64
12, 374400, Note_on_c, 7, 56, 92
12, 375240, Note_off_c, 7, 56, 64
12, 375360, Note_on_c, 7, 48, 92
12, 375600, Note_off_c, 7, 48, 64
12, 375600, Note_on_c, 7, 50, 92
12, 375835, Note_off_c, 7, 50, 64
12, 375840, Note_on_c, 7, 50, 92
12, 376240, Note_off_c, 7, 50, 64
12, 376320, Note_on_c, 7, 52, 92
12, 377160, Note_off_c, 7, 52, 64
12, 377280, Note_on_c, 7, 53, 92
12, 378120, Note_off_c, 7, 53, 64
12, 378240, Note_on_c, 7, 48, 92
12, 378640, Note_off_c, 7, 48, 64
12, 378720, Note_on_c, 7, 50, 92
12, 379560, Note_off_c, 7, 50, 64
12, 379920, Note_on_c, 7, 50, 92
12, 380155, Note_off_c, 7, 50, 64
12, 380160, Note_on_c, 7, 48, 92
12, 380560, Note_off_c, 7, 48, 64
12, 380640, Note_on_c, 7, 50, 92
12, 381040, Note_off_c, 7, 50, 64
12, 381360, Note_on_c, 7, 50, 92
12, 381595, Note_off_c, 7, 50, 64
12, 381600, Note_on_c, 7, 48, 92
12, 382000, Note_off_c, 7, 48, 64
12, 382080, Note_on_c, 7, 50, 92
12, 382480, Note_off_c, 7, 50, 64
12, 382800, Note_on_c, 7, 50, 92
12, 383035, Note_off_c, 7, 50, 64
12, 383040, Note_on_c, 7, 48, 92
12, 383440, Note_off_c, 7, 48, 64
12, 383520, Note_on_c, 7, 50, 92
12, 383920, Note_off_c, 7, 50, 64
12, 384000, Note_on_c, 7, 50, 92
12, 384400, Note_off_c, 7, 50, 64
12, 384480, Note_on_c, 7, 46, 92
12, 384880, Note_off_c, 7, 46, 64
12, 391200, Note_on_c, 7, 48, 92
12, 391600, Note_off_c, 7, 48, 64
12, 391680, Note_on_c, 7, 55, 92
12, 392520, Note_off_c, 7, 55, 64
12, 392640, Note_on_c, 7, 51, 92
12, 393040, Note_off_c, 7, 51, 64
12, 393120, Note_on_c, 7, 53, 92
12, 393960, Note_off_c, 7, 53, 64
12, 394080, Note_on_c, 7, 55, 92
12, 394480, Note_off_c, 7, 55, 64
12, 394560, Note_on_c, 7, 56, 92
12, 395400, Note_off_c, 7, 56, 64
12, 395520, Note_on_c, 7, 53, 92
12, 395920, Note_off_c, 7, 53, 64
12, 396000, Note_on_c, 7, 55, 92
12, 397320, Note_off_c, 7, 55, 64
12, 397440, Note_on_c, 7, 62, 108
12, 397440, Note_on_c, 7, 50, 108
12, 397840, Note_off_c, 7, 50, 64
12, 397840, Note_off_c, 7, 62, 64
12, 397920, Note_on_c, 7, 67, 127
12, 397920, Note_on_c, 7, 55, 127
12, 398155, Note_off_c, 7, 55, 64
12, 398155, Note_off_c, 7, 67, 64
12, 398160, Note_on_c, 7, 67, 127
12, 398160, Note_on_c, 7, 55, 127
12, 398395, Note_off_c, 7, 55, 64
12, 398395, Note_off_c, 7, 67, 64
12, 398400, Note_on_c, 7, 63, 127
12, 398400, Note_on_c, 7, 51, 127
12, 398635, Note_off_c, 7, 51, 64
12, 398635, Note_off_c, 7, 63, 64
12, 398640, Note_on_c, 7, 63, 127
12, 398640, Note_on_c, 7, 51, 127
12, 398875, Note_off_c, 7, 51, 64
12, 398875, Note_off_c, 7, 63, 64
12, 398880, Note_on_c, 7, 60, 127
12, 398880, Note_on_c, 7, 48, 127
12, 399280, Note_off_c, 7, 48, 64
12, 399280, Note_off_c, 7, 60, 64
12, 399360, Note_on_c, 7, 65, 127
12, 399360, Note_on_c, 7, 53, 127
12, 399595, Note_off_c, 7, 53, 64
12, 399595, Note_off_c, 7, 65, 64
12, 399600, Note_on_c, 7, 65, 127
12, 399600, Note_on_c, 7, 53, 127
12, 399835, Note_off_c, 7, 53, 64
12, 399835, Note_off_c, 7, 65, 64
12, 399840, Note_on_c, 7, 62, 127
12, 399840, Note_on_c, 7, 50, 127
12, 400075, Note_off_c, 7, 50, 64
12, 400075, Note_off_c, 7, 62, 64
12, 400080, Note_on_c, 7, 62, 127
12, 400080, Note_on_c, 7, 50, 127
12, 400315, Note_off_c, 7, 50, 64
12, 400315, Note_off_c, 7, 62, 64
12, 400320, Note_on_c, 7, 59, 127
12, 400320, Note_on_c, 7, 47, 127
12, 400720, Note_off_c, 7, 47, 64
12, 400720, Note_off_c, 7, 59, 64
12, 400800, Note_on_c, 7, 63, 127
12, 400800, Note_on_c, 7, 51, 127
12, 401035, Note_off_c, 7, 51, 64
12, 401035, Note_off_c, 7, 63, 64
12, 401040, Note_on_c, 7, 63, 127
12, 401040, Note_on_c, 7, 51, 127
12, 401275, Note_off_c, 7, 51, 64
12, 401275, Note_off_c, 7, 63, 64
12, 401280, Note_on_c, 7, 60, 127
12, 401280, Note_on_c, 7, 48, 127
12, 401515, Note_off_c, 7, 48, 64
12, 401515, Note_off_c, 7, 60, 64
12, 401520, Note_on_c, 7, 60, 127
12, 401520, Note_on_c, 7, 48, 127
12, 401755, Note_off_c, 7, 48, 64
12, 401755, Note_off_c, 7, 60, 64
12, 401760, Note_on_c, 7, 57, 127
12, 401760, Note_on_c, 7, 45, 127
12, 402160, Note_off_c, 7, 45, 64
12, 402160, Note_off_c, 7, 57, 64
12, 402240, Note_on_c, 7, 62, 127
12, 402240, Note_on_c, 7, 50, 127
12, 402475, Note_off_c, 7, 50, 64
12, 402475, Note_off_c, 7, 62, 64
12, 402480, Note_on_c, 7, 62, 127
12, 402480, Note_on_c, 7, 50, 127
12, 402715, Note_off_c, 7, 50, 64
12, 402715, Note_off_c, 7, 62, 64
12, 402720, Note_on_c, 7, 59, 127
12, 402720, Note_on_c, 7, 47, 127
12, 402955, Note_off_c, 7, 47, 64
12, 402955, Note_off_c, 7, 59, 64
12, 402960, Note_on_c, 7, 59, 127
12, 402960, Note_on_c, 7, 47, 127
12, 403195, Note_off_c, 7, 47, 64
12, 403195, Note_off_c, 7, 59, 64
12, 403200, Note_on_c, 7, 55, 127
12, 403200, Note_on_c, 7, 43, 127
12, 403600, Note_off_c, 7, 43, 64
12, 403600, Note_off_c, 7, 55, 64
12, 403680, Note_on_c, 7, 60, 127
12, 403680, Note_on_c, 7, 48, 127
12, 403915, Note_off_c, 7, 48, 64
12, 403915, Note_off_c, 7, 60, 64
12, 403920, Note_on_c, 7, 60, 127
12, 403920, Note_on_c, 7, 48, 127
12, 404155, Note_off_c, 7, 48, 64
12, 404155, Note_off_c, 7, 60, 64
12, 404160, Note_on_c, 7, 56, 127
12, 404160, Note_on_c, 7, 44, 127
12, 404395, Note_off_c, 7, 44, 64
12, 404395, Note_off_c, 7, 56, 64
12, 404400, Note_on_c, 7, 56, 127
12, 404400, Note_on_c, 7, 44, 127
12, 404635, Note_off_c, 7, 44, 64
12, 404635, Note_off_c, 7, 56, 64
12, 404640, Note_on_c, 7, 55, 127
12, 404640, Note_on_c, 7, 50, 127
12, 405040, Note_off_c, 7, 50, 64
12, 405040, Note_off_c, 7, 55, 64
12, 405360, Note_on_c, 7, 60, 108
12, 405360, Note_on_c, 7, 55, 108
12, 405595, Note_off_c, 7, 55, 64
12, 405595, Note_off_c, 7, 60, 64
12, 405600, Note_on_c, 7, 60, 108
12, 405600, Note_on_c, 7, 55, 108
12, 405835, Note_off_c, 7, 55, 64
12, 405835, Note_off_c, 7, 60, 64
12, 405840, Note_on_c, 7, 60, 108
12, 405840, Note_on_c, 7, 55, 108
12, 406075, Note_off_c, 7, 55, 64
12, 406075, Note_off_c, 7, 60, 64
12, 406080, Note_on_c, 7, 59, 108
12, 406080, Note_on_c, 7, 55, 108
12, 406480, Note_off_c, 7, 55, 64
12, 406480, Note_off_c, 7, 59, 64
12, 406800, Note_on_c, 7, 59, 108
12, 406800, Note_on_c, 7, 55, 108
12, 407035, Note_off_c, 7, 55, 64
12, 407035, Note_off_c, 7, 59, 64
12, 407040, Note_on_c, 7, 60, 108
12, 407040, Note_on_c, 7, 55, 108
12, 407275, Note_off_c, 7, 55, 64
12, 407275, Note_off_c, 7, 60, 64
12, 407280, Note_on_c, 7, 60, 108
12, 407280, Note_on_c, 7, 55, 108
12, 407515, Note_off_c, 7, 55, 64
12, 407515, Note_off_c, 7, 60, 64
12, 407520, Note_on_c, 7, 59, 108
12, 407520, Note_on_c, 7, 55, 108
12, 407920, Note_off_c, 7, 55, 64
12, 407920, Note_off_c, 7, 59, 64
12, 408240, Note_on_c, 7, 59, 108
12, 408240, Note_on_c, 7, 55, 108
12, 408475, Note_off_c, 7, 55, 64
12, 408475, Note_off_c, 7, 59, 64
12, 408480, Note_on_c, 7, 60, 108
12, 408480, Note_on_c, 7, 55, 108
12, 408715, Note_off_c, 7, 55, 64
12, 408715, Note_off_c, 7, 60, 64
12, 408720, Note_on_c, 7, 60, 108
12, 408720, Note_on_c, 7, 55, 108
12, 408955, Note_off_c, 7, 55, 64
12, 408955, Note_off_c, 7, 60, 64
12, 408960, Note_on_c, 7, 59, 108
12, 408960, Note_on_c, 7, 55, 108
12, 409360, Note_off_c, 7, 55, 64
12, 409360, Note_off_c, 7, 59, 64
12, 409680, Note_on_c, 7, 59, 108
12, 409680, Note_on_c, 7, 55, 108
12, 409915, Note_off_c, 7, 55, 64
12, 409915, Note_off_c, 7, 59, 64
12, 409920, Note_on_c, 7, 60, 108
12, 409920, Note_on_c, 7, 55, 108
12, 410155, Note_off_c, 7, 55, 64
12, 410155, Note_off_c, 7, 60, 64
12, 410160, Note_on_c, 7, 63, 108
12, 410160, Note_on_c, 7, 55, 108
12, 410395, Note_off_c, 7, 55, 64
12, 410395, Note_off_c, 7, 63, 64
12, 410400, Note_on_c, 7, 61, 108
12, 410400, Note_on_c, 7, 53, 108
12, 410800, Note_off_c, 7, 53, 64
12, 410800, Note_off_c, 7, 61, 64
12, 411120, Note_on_c, 7, 62, 108
12, 411120, Note_on_c, 7, 55, 108
12, 411355, Note_off_c, 7, 55, 64
12, 411355, Note_off_c, 7, 62, 64
12, 411360, Note_on_c, 7, 63, 108
12, 411360, Note_on_c, 7, 56, 108
12, 411760, Note_off_c, 7, 56, 64
12, 411760, Note_off_c, 7, 63, 64
12, 411840, Note_on_c, 7, 60, 108
12, 411840, Note_on_c, 7, 56, 108
12, 412240, Note_off_c, 7, 56, 64
12, 412240, Note_off_c, 7, 60, 64
12, 412320, Note_on_c, 7, 60, 108
12, 412320, Note_on_c, 7, 55, 108
12, 412720, Note_off_c, 7, 55, 64
12, 412720, Note_off_c, 7, 60, 64
12, 412800, Note_on_c, 7, 59, 108
12, 412800, Note_on_c, 7, 55, 108
12, 413200, Note_off_c, 7, 55, 64
12, 413200, Note_off_c, 7, 59, 64
12, 413280, Note_on_c, 7, 60, 108
12, 413280, Note_on_c, 7, 55, 108
12, 413520, Note_off_c, 7, 55, 64
12, 413520, Note_off_c, 7, 60, 64
12, 413520, Note_on_c, 7, 62, 108
12, 413520, Note_on_c, 7, 55, 108
12, 413760, Note_off_c, 7, 55, 64
12, 413760, Note_off_c, 7, 62, 64
12, 413760, Note_on_c, 7, 64, 108
12, 413760, Note_on_c, 7, 55, 108
12, 414000, Note_off_c, 7, 55, 64
12, 414000, Note_off_c, 7, 64, 64
12, 414000, Note_on_c, 7, 67, 108
12, 414000, Note_on_c, 7, 60, 108
12, 414240, Note_off_c, 7, 60, 64
12, 414240, Note_off_c, 7, 67, 64
12, 414240, Note_on_c, 7, 65, 108
12, 414240, Note_on_c, 7, 60, 108
12, 414480, Note_off_c, 7, 60, 64
12, 414480, Note_off_c, 7, 65, 64
12, 414480, Note_on_c, 7, 65, 108
12, 414480, Note_on_c, 7, 60, 108
12, 414720, Note_off_c, 7, 60, 64
12, 414720, Note_off_c, 7, 65, 64
12, 414720, Note_on_c, 7, 67, 108
12, 414720, Note_on_c, 7, 64, 108
12, 415200, Note_off_c, 7, 64, 64
12, 415200, Note_off_c, 7, 67, 64
12, 415440, Note_on_c, 7, 60, 108
12, 415440, Note_on_c, 7, 52, 108
12, 415680, Note_off_c, 7, 52, 64
12, 415680, Note_off_c, 7, 60, 64
12, 415680, Note_on_c, 7, 60, 108
12, 415680, Note_on_c, 7, 53, 108
12, 415920, Note_off_c, 7, 53, 64
12, 415920, Note_off_c, 7, 60, 64
12, 415920, Note_on_c, 7, 60, 108
12, 415920, Note_on_c, 7, 53, 108
12, 416160, Note_off_c, 7, 53, 64
12, 416160, Note_off_c, 7, 60, 64
12, 416160, Note_on_c, 7, 60, 108
12, 416160, Note_on_c, 7, 55, 108
12, 416640, Note_off_c, 7, 55, 64
12, 416640, Note_off_c, 7, 60, 64
12, 416880, Note_on_c, 7, 64, 108
12, 416880, Note_on_c, 7, 55, 108
12, 417120, Note_off_c, 7, 55, 64
12, 417120, Note_off_c, 7, 64, 64
12, 417120, Note_on_c, 7, 65, 108
12, 417120, Note_on_c, 7, 56, 108
12, 417360, Note_off_c, 7, 56, 64
12, 417360, Note_off_c, 7, 65, 64
12, 417360, Note_on_c, 7, 65, 108
12, 417360, Note_on_c, 7, 56, 108
12, 417600, Note_off_c, 7, 56, 64
12, 417600, Note_off_c, 7, 65, 64
12, 417600, Note_on_c, 7, 64, 108
12, 417600, Note_on_c, 7, 55, 108
12, 418080, Note_off_c, 7, 55, 64
12, 418080, Note_off_c, 7, 64, 64
12, 418200, Note_on_c, 7, 64, 127
12, 418200, Note_on_c, 7, 52, 127
12, 418315, Note_off_c, 7, 52, 64
12, 418315, Note_off_c, 7, 64, 64
12, 418320, Note_on_c, 7, 62, 127
12, 418320, Note_on_c, 7, 50, 127
12, 418435, Note_off_c, 7, 50, 64
12, 418435, Note_off_c, 7, 62, 64
12, 418440, Note_on_c, 7, 64, 127
12, 418440, Note_on_c, 7, 52, 127
12, 418555, Note_off_c, 7, 52, 64
12, 418555, Note_off_c, 7, 64, 64
12, 418560, Note_on_c, 7, 60, 108
12, 418560, Note_on_c, 7, 55, 108
12, 418800, Note_off_c, 7, 55, 64
12, 418800, Note_off_c, 7, 60, 64
12, 418800, Note_on_c, 7, 65, 108
12, 418800, Note_on_c, 7, 53, 108
12, 419040, Note_off_c, 7, 53, 64
12, 419040, Note_off_c, 7, 65, 64
12, 419040, Note_on_c, 7, 56, 108
12, 419040, Note_on_c, 7, 56, 108
12, 419440, Note_off_c, 7, 56, 64
12, 419440, Note_off_c, 7, 56, 64
12, 419640, Note_on_c, 7, 56, 108
12, 419640, Note_on_c, 7, 56, 108
12, 419755, Note_off_c, 7, 56, 64
12, 419760, Note_off_c, 7, 56, 64
12, 419760, Note_on_c, 7, 55, 108
12, 419760, Note_on_c, 7, 55, 108
12, 419875, Note_off_c, 7, 55, 64
12, 419880, Note_off_c, 7, 55, 64
12, 419880, Note_on_c, 7, 56, 108
12, 419880, Note_on_c, 7, 56, 108
12, 420355, Note_off_c, 7, 56, 64
12, 420355, Note_off_c, 7, 56, 64
12, 420360, Note_on_c, 7, 62, 108
12, 420360, Note_on_c, 7, 59, 108
12, 420480, Note_off_c, 7, 59, 64
12, 420480, Note_off_c, 7, 62, 64
12, 420480, Note_on_c, 7, 64, 108
12, 420480, Note_on_c, 7, 60, 108
12, 421800, Note_off_c, 7, 60, 64
12, 421800, Note_off_c, 7, 64, 64
12, 421800, End_track
13, 0, Start_track
13, 0, MIDI_port, 0
13, 0, Channel_prefix, 7
13, 0, Control_c, 7, 7, 127
13, 0, Control_c, 7, 10, 85
13, 0, Control_c, 7, 91, 52
13, 0, Program_c, 7, 57
13, 93120, Note_on_c, 7, 55, 60
13, 93520, Note_off_c, 7, 55, 64
13, 93600, Note_on_c, 7, 55, 60
13, 94440, Note_off_c, 7, 55, 64
13, 94560, Note_on_c, 7, 55, 60
13, 94960, Note_off_c, 7, 55, 64
13, 95040, Note_on_c, 7, 56, 60
13, 95880, Note_off_c, 7, 56, 64
13, 96000, Note_on_c, 7, 55, 60
13, 96400, Note_off_c, 7, 55, 64
13, 96480, Note_on_c, 7, 56, 60
13, 97320, Note_off_c, 7, 56, 64
13, 97440, Note_on_c, 7, 53, 60
13, 97840, Note_off_c, 7, 53, 64
13, 97920, Note_on_c, 7, 55, 60
13, 98760, Note_off_c, 7, 55, 64
13, 98880, Note_on_c, 7, 53, 60
13, 99280, Note_off_c, 7, 53, 64
13, 99360, Note_on_c, 7, 55, 60
13, 100200, Note_off_c, 7, 55, 64
13, 100320, Note_on_c, 7, 55, 60
13, 100720, Note_off_c, 7, 55, 64
13, 100800, Note_on_c, 7, 55, 60
13, 101640, Note_off_c, 7, 55, 64
13, 101760, Note_on_c, 7, 53, 60
13, 102160, Note_off_c, 7, 53, 64
13, 102240, Note_on_c, 7, 55, 62
13, 103560, Note_off_c, 7, 55, 64
13, 103680, Note_on_c, 7, 55, 69
13, 104080, Note_off_c, 7, 55, 64
13, 104880, Note_on_c, 7, 55, 75
13, 105115, Note_off_c, 7, 55, 64
13, 105120, Note_on_c, 7, 55, 75
13, 105520, Note_off_c, 7, 55, 64
13, 106320, Note_on_c, 7, 51, 75
13, 106555, Note_off_c, 7, 51, 64
13, 106560, Note_on_c, 7, 53, 75
13, 106960, Note_off_c, 7, 53, 64
13, 107760, Note_on_c, 7, 49, 75
13, 107995, Note_off_c, 7, 49, 64
13, 108000, Note_on_c, 7, 51, 75
13, 108400, Note_off_c, 7, 51, 64
13, 109200, Note_on_c, 7, 53, 75
13, 109435, Note_off_c, 7, 53, 64
13, 109440, Note_on_c, 7, 55, 75
13, 109840, Note_off_c, 7, 55, 64
13, 110640, Note_on_c, 7, 53, 75
13, 110875, Note_off_c, 7, 53, 64
13, 110880, Note_on_c, 7, 55, 75
13, 111280, Note_off_c, 7, 55, 64
13, 112080, Note_on_c, 7, 55, 75
13, 112315, Note_off_c, 7, 55, 64
13, 112320, Note_on_c, 7, 55, 75
13, 112720, Note_off_c, 7, 55, 64
13, 113520, Note_on_c, 7, 53, 75
13, 113755, Note_off_c, 7, 53, 64
13, 113760, Note_on_c, 7, 55, 75
13, 114160, Note_off_c, 7, 55, 64
13, 114960, Note_on_c, 7, 55, 77
13, 115195, Note_off_c, 7, 55, 64
13, 115200, Note_on_c, 7, 55, 80
13, 115600, Note_off_c, 7, 55, 64
13, 116160, Note_on_c, 7, 48, 92
13, 116560, Note_off_c, 7, 48, 64
13, 116640, Note_on_c, 7, 55, 92
13, 117040, Note_off_c, 7, 55, 64
13, 117600, Note_on_c, 7, 51, 92
13, 118000, Note_off_c, 7, 51, 64
13, 118080, Note_on_c, 7, 53, 92
13, 118480, Note_off_c, 7, 53, 64
13, 119040, Note_on_c, 7, 55, 92
13, 119440, Note_off_c, 7, 55, 64
13, 119520, Note_on_c, 7, 56, 92
13, 119920, Note_off_c, 7, 56, 64
13, 120480, Note_on_c, 7, 53, 92
13, 120880, Note_off_c, 7, 53, 64
13, 120960, Note_on_c, 7, 55, 92
13, 121360, Note_off_c, 7, 55, 64
13, 121920, Note_on_c, 7, 50, 92
13, 122320, Note_off_c, 7, 50, 64
13, 122400, Note_on_c, 7, 51, 92
13, 122800, Note_off_c, 7, 51, 64
13, 123360, Note_on_c, 7, 47, 92
13, 123760, Note_off_c, 7, 47, 64
13, 123840, Note_on_c, 7, 48, 92
13, 124240, Note_off_c, 7, 48, 64
13, 124800, Note_on_c, 7, 41, 92
13, 125200, Note_off_c, 7, 41, 64
13, 125280, Note_on_c, 7, 43, 92
13, 125680, Note_off_c, 7, 43, 64
13, 126240, Note_on_c, 7, 43, 75
13, 126640, Note_off_c, 7, 43, 64
13, 126720, Note_on_c, 7, 48, 60
13, 127120, Note_off_c, 7, 48, 64
13, 185520, Note_on_c, 7, 51, 127
13, 185755, Note_off_c, 7, 51, 64
13, 186960, Note_on_c, 7, 51, 127
13, 187195, Note_off_c, 7, 51, 64
13, 188400, Note_on_c, 7, 53, 127
13, 188635, Note_off_c, 7, 53, 64
13, 189840, Note_on_c, 7, 53, 127
13, 190075, Note_off_c, 7, 53, 64
13, 191280, Note_on_c, 7, 53, 127
13, 191515, Note_off_c, 7, 53, 64
13, 192720, Note_on_c, 7, 53, 127
13, 192955, Note_off_c, 7, 53, 64
13, 194160, Note_on_c, 7, 53, 127
13, 194395, Note_off_c, 7, 53, 64
13, 195600, Note_on_c, 7, 53, 127
13, 195835, Note_off_c, 7, 53, 64
13, 196800, Note_on_c, 7, 51, 92
13, 197200, Note_off_c, 7, 51, 64
13, 197280, Note_on_c, 7, 43, 92
13, 198120, Note_off_c, 7, 43, 64
13, 198240, Note_on_c, 7, 39, 92
13, 198640, Note_off_c, 7, 39, 64
13, 198720, Note_on_c, 7, 41, 92
13, 199560, Note_off_c, 7, 41, 64
13, 199680, Note_on_c, 7, 43, 92
13, 200080, Note_off_c, 7, 43, 64
13, 200160, Note_on_c, 7, 44, 92
13, 201000, Note_off_c, 7, 44, 64
13, 201120, Note_on_c, 7, 41, 92
13, 201520, Note_off_c, 7, 41, 64
13, 201600, Note_on_c, 7, 43, 92
13, 202440, Note_off_c, 7, 43, 64
13, 202560, Note_on_c, 7, 50, 92
13, 202960, Note_off_c, 7, 50, 64
13, 203040, Note_on_c, 7, 51, 92
13, 203880, Note_off_c, 7, 51, 64
13, 204000, Note_on_c, 7, 47, 92
13, 204400, Note_off_c, 7, 47, 64
13, 204480, Note_on_c, 7, 48, 92
13, 205320, Note_off_c, 7, 48, 64
13, 205440, Note_on_c, 7, 41, 92
13, 205840, Note_off_c, 7, 41, 64
13, 205920, Note_on_c, 7, 43, 92
13, 207240, Note_off_c, 7, 43, 64
13, 207360, Note_on_c, 7, 48, 92
13, 208200, Note_off_c, 7, 48, 64
13, 208560, Note_on_c, 7, 55, 108
13, 208795, Note_off_c, 7, 55, 64
13, 208800, Note_on_c, 7, 55, 108
13, 209640, Note_off_c, 7, 55, 64
13, 210000, Note_on_c, 7, 55, 108
13, 210235, Note_off_c, 7, 55, 64
13, 210240, Note_on_c, 7, 56, 108
13, 211080, Note_off_c, 7, 56, 64
13, 211440, Note_on_c, 7, 55, 108
13, 211675, Note_off_c, 7, 55, 64
13, 211680, Note_on_c, 7, 56, 108
13, 212520, Note_off_c, 7, 56, 64
13, 212880, Note_on_c, 7, 56, 108
13, 213115, Note_off_c, 7, 56, 64
13, 213120, Note_on_c, 7, 55, 108
13, 213960, Note_off_c, 7, 55, 64
13, 214320, Note_on_c, 7, 53, 108
13, 214555, Note_off_c, 7, 53, 64
13, 214560, Note_on_c, 7, 55, 108
13, 215400, Note_off_c, 7, 55, 64
13, 215760, Note_on_c, 7, 55, 108
13, 215995, Note_off_c, 7, 55, 64
13, 216000, Note_on_c, 7, 55, 108
13, 216840, Note_off_c, 7, 55, 64
13, 217200, Note_on_c, 7, 56, 108
13, 217435, Note_off_c, 7, 56, 64
13, 217440, Note_on_c, 7, 55, 108
13, 218280, Note_off_c, 7, 55, 64
13, 218640, Note_on_c, 7, 55, 108
13, 218875, Note_off_c, 7, 55, 64
13, 218880, Note_on_c, 7, 55, 108
13, 219720, Note_off_c, 7, 55, 64
13, 219840, Note_on_c, 7, 55, 108
13, 220240, Note_off_c, 7, 55, 64
13, 220320, Note_on_c, 7, 55, 108
13, 221160, Note_off_c, 7, 55, 64
13, 221280, Note_on_c, 7, 55, 108
13, 221680, Note_off_c, 7, 55, 64
13, 221760, Note_on_c, 7, 56, 108
13, 222600, Note_off_c, 7, 56, 64
13, 222720, Note_on_c, 7, 55, 108
13, 223120, Note_off_c, 7, 55, 64
13, 223200, Note_on_c, 7, 56, 108
13, 224040, Note_off_c, 7, 56, 64
13, 224160, Note_on_c, 7, 56, 108
13, 224560, Note_off_c, 7, 56, 64
13, 224640, Note_on_c, 7, 55, 108
13, 225480, Note_off_c, 7, 55, 64
13, 225600, Note_on_c, 7, 53, 108
13, 226000, Note_off_c, 7, 53, 64
13, 226080, Note_on_c, 7, 55, 108
13, 226920, Note_off_c, 7, 55, 64
13, 227040, Note_on_c, 7, 55, 108
13, 227440, Note_off_c, 7, 55, 64
13, 227520, Note_on_c, 7, 55, 108
13, 228360, Note_off_c, 7, 55, 64
13, 228480, Note_on_c, 7, 56, 108
13, 228880, Note_off_c, 7, 56, 64
13, 228960, Note_on_c, 7, 55, 108
13, 230280, Note_off_c, 7, 55, 64
13, 230400, Note_on_c, 7, 55, 108
13, 231240, Note_off_c, 7, 55, 64
13, 231360, Note_on_c, 7, 55, 108
13, 231760, Note_off_c, 7, 55, 64
13, 231840, Note_on_c, 7, 55, 108
13, 232680, Note_off_c, 7, 55, 64
13, 232800, Note_on_c, 7, 55, 108
13, 233200, Note_off_c, 7, 55, 64
13, 233280, Note_on_c, 7, 56, 108
13, 234120, Note_off_c, 7, 56, 64
13, 234240, Note_on_c, 7, 55, 108
13, 234640, Note_off_c, 7, 55, 64
13, 234720, Note_on_c, 7, 56, 108
13, 235560, Note_off_c, 7, 56, 64
13, 235680, Note_on_c, 7, 56, 108
13, 236080, Note_off_c, 7, 56, 64
13, 236160, Note_on_c, 7, 55, 108
13, 237000, Note_off_c, 7, 55, 64
13, 237120, Note_on_c, 7, 53, 108
13, 237520, Note_off_c, 7, 53, 64
13, 237600, Note_on_c, 7, 55, 108
13, 238440, Note_off_c, 7, 55, 64
13, 238560, Note_on_c, 7, 55, 108
13, 238960, Note_off_c, 7, 55, 64
13, 239040, Note_on_c, 7, 55, 108
13, 239880, Note_off_c, 7, 55, 64
13, 240000, Note_on_c, 7, 56, 108
13, 240400, Note_off_c, 7, 56, 64
13, 240480, Note_on_c, 7, 55, 108
13, 241800, Note_off_c, 7, 55, 64
13, 241920, Note_on_c, 7, 55, 60
13, 243240, Note_off_c, 7, 55, 64
13, 345120, Note_on_c, 7, 43, 60
13, 345355, Note_off_c, 7, 43, 64
13, 345360, Note_on_c, 7, 45, 60
13, 345595, Note_off_c, 7, 45, 64
13, 345600, Note_on_c, 7, 46, 60
13, 345835, Note_off_c, 7, 46, 64
13, 345840, Note_on_c, 7, 48, 60
13, 346075, Note_off_c, 7, 48, 64
13, 346080, Note_on_c, 7, 50, 60
13, 346315, Note_off_c, 7, 50, 64
13, 346320, Note_on_c, 7, 51, 60
13, 346555, Note_off_c, 7, 51, 64
13, 346560, Note_on_c, 7, 41, 60
13, 346795, Note_off_c, 7, 41, 64
13, 346800, Note_on_c, 7, 43, 60
13, 347035, Note_off_c, 7, 43, 64
13, 347040, Note_on_c, 7, 44, 60
13, 347275, Note_off_c, 7, 44, 64
13, 347280, Note_on_c, 7, 46, 60
13, 347515, Note_off_c, 7, 46, 64
13, 347520, Note_on_c, 7, 44, 60
13, 347755, Note_off_c, 7, 44, 64
13, 347760, Note_on_c, 7, 46, 60
13, 347995, Note_off_c, 7, 46, 64
13, 348000, Note_on_c, 7, 48, 60
13, 348235, Note_off_c, 7, 48, 64
13, 348240, Note_on_c, 7, 50, 60
13, 348475, Note_off_c, 7, 50, 64
13, 348480, Note_on_c, 7, 51, 60
13, 348715, Note_off_c, 7, 51, 64
13, 348720, Note_on_c, 7, 53, 60
13, 348955, Note_off_c, 7, 53, 64
13, 348960, Note_on_c, 7, 46, 60
13, 349195, Note_off_c, 7, 46, 64
13, 349200, Note_on_c, 7, 48, 60
13, 349435, Note_off_c, 7, 48, 64
13, 349440, Note_on_c, 7, 50, 60
13, 349675, Note_off_c, 7, 50, 64
13, 349680, Note_on_c, 7, 52, 60
13, 349915, Note_off_c, 7, 52, 64
13, 349920, Note_on_c, 7, 53, 60
13, 350155, Note_off_c, 7, 53, 64
13, 350160, Note_on_c, 7, 55, 60
13, 350395, Note_off_c, 7, 55, 64
13, 350400, Note_on_c, 7, 53, 60
13, 350635, Note_off_c, 7, 53, 64
13, 350640, Note_on_c, 7, 55, 60
13, 350875, Note_off_c, 7, 55, 64
13, 350880, Note_on_c, 7, 56, 60
13, 351115, Note_off_c, 7, 56, 64
13, 351120, Note_on_c, 7, 58, 60
13, 351355, Note_off_c, 7, 58, 64
13, 351360, Note_on_c, 7, 55, 60
13, 352000, Note_off_c, 7, 55, 64
13, 352080, Note_on_c, 7, 55, 60
13, 352315, Note_off_c, 7, 55, 64
13, 359520, Note_on_c, 7, 43, 75
13, 359920, Note_off_c, 7, 43, 64
13, 360000, Note_on_c, 7, 48, 75
13, 360240, Note_off_c, 7, 48, 64
13, 360240, Note_on_c, 7, 46, 75
13, 360475, Note_off_c, 7, 46, 64
13, 360480, Note_on_c, 7, 45, 75
13, 360880, Note_off_c, 7, 45, 64
13, 360960, Note_on_c, 7, 46, 75
13, 361360, Note_off_c, 7, 46, 64
13, 361440, Note_on_c, 7, 48, 75
13, 361840, Note_off_c, 7, 48, 64
13, 361920, Note_on_c, 7, 46, 75
13, 362320, Note_off_c, 7, 46, 64
13, 362400, Note_on_c, 7, 45, 75
13, 362640, Note_off_c, 7, 45, 64
13, 362640, Note_on_c, 7, 50, 75
13, 362875, Note_off_c, 7, 50, 64
13, 363120, Note_on_c, 7, 53, 75
13, 363360, Note_off_c, 7, 53, 64
13, 363360, Note_on_c, 7, 51, 75
13, 363600, Note_off_c, 7, 51, 64
13, 363600, Note_on_c, 7, 48, 75
13, 363835, Note_off_c, 7, 48, 64
13, 363840, Note_on_c, 7, 50, 75
13, 364075, Note_off_c, 7, 50, 64
13, 364080, Note_on_c, 7, 50, 75
13, 364315, Note_off_c, 7, 50, 64
13, 364320, Note_on_c, 7, 43, 75
13, 364720, Note_off_c, 7, 43, 64
13, 365520, Note_on_c, 7, 55, 75
13, 365760, Note_off_c, 7, 55, 64
13, 365760, Note_on_c, 7, 48, 75
13, 366480, Note_off_c, 7, 48, 64
13, 366480, Note_on_c, 7, 50, 75
13, 366720, Note_off_c, 7, 50, 64
13, 366720, Note_on_c, 7, 52, 75
13, 366960, Note_off_c, 7, 52, 64
13, 366960, Note_on_c, 7, 48, 75
13, 367195, Note_off_c, 7, 48, 64
13, 367200, Note_on_c, 7, 53, 75
13, 368040, Note_off_c, 7, 53, 64
13, 368160, Note_on_c, 7, 41, 92
13, 368560, Note_off_c, 7, 41, 64
13, 368640, Note_on_c, 7, 48, 92
13, 369480, Note_off_c, 7, 48, 64
13, 369600, Note_on_c, 7, 44, 92
13, 370000, Note_off_c, 7, 44, 64
13, 370080, Note_on_c, 7, 46, 92
13, 370920, Note_off_c, 7, 46, 64
13, 371040, Note_on_c, 7, 48, 92
13, 371440, Note_off_c, 7, 48, 64
13, 371520, Note_on_c, 7, 49, 92
13, 372360, Note_off_c, 7, 49, 64
13, 372480, Note_on_c, 7, 46, 92
13, 372880, Note_off_c, 7, 46, 64
13, 391200, Note_on_c, 7, 48, 92
13, 391600, Note_off_c, 7, 48, 64
13, 391680, Note_on_c, 7, 43, 92
13, 392520, Note_off_c, 7, 43, 64
13, 392640, Note_on_c, 7, 39, 92
13, 393040, Note_off_c, 7, 39, 64
13, 393120, Note_on_c, 7, 41, 92
13, 393960, Note_off_c, 7, 41, 64
13, 394080, Note_on_c, 7, 43, 92
13, 394480, Note_off_c, 7, 43, 64
13, 394560, Note_on_c, 7, 44, 92
13, 395400, Note_off_c, 7, 44, 64
13, 395520, Note_on_c, 7, 41, 92
13, 395920, Note_off_c, 7, 41, 64
13, 396000, Note_on_c, 7, 43, 92
13, 397840, Note_off_c, 7, 43, 64
13, 397920, Note_on_c, 7, 51, 92
13, 398320, Note_off_c, 7, 51, 64
13, 398400, Note_on_c, 7, 48, 92
13, 398800, Note_off_c, 7, 48, 64
13, 398880, Note_on_c, 7, 53, 92
13, 399280, Note_off_c, 7, 53, 64
13, 399360, Note_on_c, 7, 50, 92
13, 399760, Note_off_c, 7, 50, 64
13, 399840, Note_on_c, 7, 47, 92
13, 400240, Note_off_c, 7, 47, 64
13, 400320, Note_on_c, 7, 51, 92
13, 400720, Note_off_c, 7, 51, 64
13, 400800, Note_on_c, 7, 48, 92
13, 401200, Note_off_c, 7, 48, 64
13, 401280, Note_on_c, 7, 45, 92
13, 401680, Note_off_c, 7, 45, 64
13, 401760, Note_on_c, 7, 50, 92
13, 402160, Note_off_c, 7, 50, 64
13, 402240, Note_on_c, 7, 47, 92
13, 402640, Note_off_c, 7, 47, 64
13, 402720, Note_on_c, 7, 43, 92
13, 403120, Note_off_c, 7, 43, 64
13, 403200, Note_on_c, 7, 48, 92
13, 403600, Note_off_c, 7, 48, 64
13, 403680, Note_on_c, 7, 44, 92
13, 404080, Note_off_c, 7, 44, 64
13, 404160, Note_on_c, 7, 41, 92
13, 404560, Note_off_c, 7, 41, 64
13, 404640, Note_on_c, 7, 43, 92
13, 405040, Note_off_c, 7, 43, 64
13, 405120, Note_on_c, 7, 43, 92
13, 405360, Note_off_c, 7, 43, 64
13, 405360, Note_on_c, 7, 46, 92
13, 405595, Note_off_c, 7, 46, 64
13, 405600, Note_on_c, 7, 48, 92
13, 405835, Note_off_c, 7, 48, 64
13, 405840, Note_on_c, 7, 51, 92
13, 406075, Note_off_c, 7, 51, 64
13, 406080, Note_on_c, 7, 43, 92
13, 406480, Note_off_c, 7, 43, 64
13, 406800, Note_on_c, 7, 43, 92
13, 407035, Note_off_c, 7, 43, 64
13, 407040, Note_on_c, 7, 51, 92
13, 407275, Note_off_c, 7, 51, 64
13, 407280, Note_on_c, 7, 48, 92
13, 407515, Note_off_c, 7, 48, 64
13, 407520, Note_on_c, 7, 43, 92
13, 407920, Note_off_c, 7, 43, 64
13, 408240, Note_on_c, 7, 43, 92
13, 408475, Note_off_c, 7, 43, 64
13, 408480, Note_on_c, 7, 51, 92
13, 408715, Note_off_c, 7, 51, 64
13, 408720, Note_on_c, 7, 48, 92
13, 408955, Note_off_c, 7, 48, 64
13, 408960, Note_on_c, 7, 43, 92
13, 409360, Note_off_c, 7, 43, 64
13, 409680, Note_on_c, 7, 43, 92
13, 409915, Note_off_c, 7, 43, 64
13, 409920, Note_on_c, 7, 51, 92
13, 410155, Note_off_c, 7, 51, 64
13, 410160, Note_on_c, 7, 48, 92
13, 410395, Note_off_c, 7, 48, 64
13, 410400, Note_on_c, 7, 41, 92
13, 410800, Note_off_c, 7, 41, 64
13, 411120, Note_on_c, 7, 53, 92
13, 411355, Note_off_c, 7, 53, 64
13, 411360, Note_on_c, 7, 51, 92
13, 411595, Note_off_c, 7, 51, 64
13, 411600, Note_on_c, 7, 48, 92
13, 411835, Note_off_c, 7, 48, 64
13, 411840, Note_on_c, 7, 53, 92
13, 412240, Note_off_c, 7, 53, 64
13, 412320, Note_on_c, 7, 55, 92
13, 412720, Note_off_c, 7, 55, 64
13, 412800, Note_on_c, 7, 43, 92
13, 413200, Note_off_c, 7, 43, 64
13, 413280, Note_on_c, 7, 48, 98
13, 413760, Note_off_c, 7, 48, 64
13, 413760, Note_on_c, 7, 48, 104
13, 414000, Note_off_c, 7, 48, 64
13, 414000, Note_on_c, 7, 52, 108
13, 414240, Note_off_c, 7, 52, 64
13, 414240, Note_on_c, 7, 53, 108
13, 414480, Note_off_c, 7, 53, 64
13, 414480, Note_on_c, 7, 53, 108
13, 414720, Note_off_c, 7, 53, 64
13, 414720, Note_on_c, 7, 60, 108
13, 415200, Note_off_c, 7, 60, 64
13, 415200, Note_on_c, 7, 60, 108
13, 415440, Note_off_c, 7, 60, 64
13, 415440, Note_on_c, 7, 48, 108
13, 415680, Note_off_c, 7, 48, 64
13, 415680, Note_on_c, 7, 56, 108
13, 415920, Note_off_c, 7, 56, 64
13, 415920, Note_on_c, 7, 53, 108
13, 416160, Note_off_c, 7, 53, 64
13, 416160, Note_on_c, 7, 52, 108
13, 416640, Note_off_c, 7, 52, 64
13, 416880, Note_on_c, 7, 48, 108
13, 417120, Note_off_c, 7, 48, 64
13, 417120, Note_on_c, 7, 56, 108
13, 417360, Note_off_c, 7, 56, 64
13, 417360, Note_on_c, 7, 53, 108
13, 417600, Note_off_c, 7, 53, 64
13, 417600, Note_on_c, 7, 48, 108
13, 418080, Note_off_c, 7, 48, 64
13, 418080, Note_on_c, 7, 60, 108
13, 418320, Note_off_c, 7, 60, 64
13, 418320, Note_on_c, 7, 48, 108
13, 418560, Note_off_c, 7, 48, 64
13, 418560, Note_on_c, 7, 56, 108
13, 418800, Note_off_c, 7, 56, 64
13, 418800, Note_on_c, 7, 60, 108
13, 419040, Note_off_c, 7, 60, 64
13, 419040, Note_on_c, 7, 48, 108
13, 420000, Note_off_c, 7, 48, 64
13, 420000, Note_on_c, 7, 53, 108
13, 420480, Note_off_c, 7, 53, 64
13, 420480, Note_on_c, 7, 55, 108
13, 421800, Note_off_c, 7, 55, 64
13, 421800, End_track
14, 0, Start_track
14, 0, MIDI_port, 0
14, 0, Channel_prefix, 8
14, 0, Control_c, 8, 7, 127
14, 0, Control_c, 8, 10, 111
14, 0, Control_c, 8, 91, 58
14, 0, Program_c, 8, 58
14, 70080, Note_on_c, 8, 36, 60
14, 70480, Note_off_c, 8, 36, 64
14, 70560, Note_on_c, 8, 43, 60
14, 71400, Note_off_c, 8, 43, 64
14, 71520, Note_on_c, 8, 39, 60
14, 71920, Note_off_c, 8, 39, 64
14, 72000, Note_on_c, 8, 41, 60
14, 72840, Note_off_c, 8, 41, 64
14, 72960, Note_on_c, 8, 43, 60
14, 73360, Note_off_c, 8, 43, 64
14, 73440, Note_on_c, 8, 44, 60
14, 74280, Note_off_c, 8, 44, 64
14, 74400, Note_on_c, 8, 41, 60
14, 74800, Note_off_c, 8, 41, 64
14, 74880, Note_on_c, 8, 43, 60
14, 75720, Note_off_c, 8, 43, 64
14, 75840, Note_on_c, 8, 38, 60
14, 76240, Note_off_c, 8, 38, 64
14, 76320, Note_on_c, 8, 39, 60
14, 77160, Note_off_c, 8, 39, 64
14, 77280, Note_on_c, 8, 35, 60
14, 77680, Note_off_c, 8, 35, 64
14, 77760, Note_on_c, 8, 36, 60
14, 78600, Note_off_c, 8, 36, 64
14, 78720, Note_on_c, 8, 41, 60
14, 79120, Note_off_c, 8, 41, 64
14, 79200, Note_on_c, 8, 43, 60
14, 80520, Note_off_c, 8, 43, 64
14, 80640, Note_on_c, 8, 36, 60
14, 81480, Note_off_c, 8, 36, 64
14, 81600, Note_on_c, 8, 36, 60
14, 82000, Note_off_c, 8, 36, 64
14, 82080, Note_on_c, 8, 43, 60
14, 82920, Note_off_c, 8, 43, 64
14, 83040, Note_on_c, 8, 39, 60
14, 83440, Note_off_c, 8, 39, 64
14, 83520, Note_on_c, 8, 41, 60
14, 84360, Note_off_c, 8, 41, 64
14, 84480, Note_on_c, 8, 43, 60
14, 84880, Note_off_c, 8, 43, 64
14, 84960, Note_on_c, 8, 44, 60
14, 85800, Note_off_c, 8, 44, 64
14, 85920, Note_on_c, 8, 41, 60
14, 86320, Note_off_c, 8, 41, 64
14, 86400, Note_on_c, 8, 43, 60
14, 87240, Note_off_c, 8, 43, 64
14, 87360, Note_on_c, 8, 38, 60
14, 87760, Note_off_c, 8, 38, 64
14, 87840, Note_on_c, 8, 39, 60
14, 88680, Note_off_c, 8, 39, 64
14, 88800, Note_on_c, 8, 35, 60
14, 89200, Note_off_c, 8, 35, 64
14, 89280, Note_on_c, 8, 36, 60
14, 90120, Note_off_c, 8, 36, 64
14, 90240, Note_on_c, 8, 41, 60
14, 90640, Note_off_c, 8, 41, 64
14, 90720, Note_on_c, 8, 43, 60
14, 92040, Note_off_c, 8, 43, 64
14, 92160, Note_on_c, 8, 36, 60
14, 93000, Note_off_c, 8, 36, 64
14, 93120, Note_on_c, 8, 36, 60
14, 93520, Note_off_c, 8, 36, 64
14, 93600, Note_on_c, 8, 43, 60
14, 94440, Note_off_c, 8, 43, 64
14, 94560, Note_on_c, 8, 39, 60
14, 94960, Note_off_c, 8, 39, 64
14, 95040, Note_on_c, 8, 41, 60
14, 95880, Note_off_c, 8, 41, 64
14, 96000, Note_on_c, 8, 43, 60
14, 96400, Note_off_c, 8, 43, 64
14, 96480, Note_on_c, 8, 44, 60
14, 97320, Note_off_c, 8, 44, 64
14, 97440, Note_on_c, 8, 41, 60
14, 97840, Note_off_c, 8, 41, 64
14, 97920, Note_on_c, 8, 43, 60
14, 98760, Note_off_c, 8, 43, 64
14, 98880, Note_on_c, 8, 38, 60
14, 99280, Note_off_c, 8, 38, 64
14, 99360, Note_on_c, 8, 39, 60
14, 100200, Note_off_c, 8, 39, 64
14, 100320, Note_on_c, 8, 35, 60
14, 100720, Note_off_c, 8, 35, 64
14, 100800, Note_on_c, 8, 36, 60
14, 101640, Note_off_c, 8, 36, 64
14, 101760, Note_on_c, 8, 41, 60
14, 102160, Note_off_c, 8, 41, 64
14, 102240, Note_on_c, 8, 43, 62
14, 103560, Note_off_c, 8, 43, 64
14, 103680, Note_on_c, 8, 36, 69
14, 104080, Note_off_c, 8, 36, 64
14, 104880, Note_on_c, 8, 36, 75
14, 105115, Note_off_c, 8, 36, 64
14, 105120, Note_on_c, 8, 43, 75
14, 105520, Note_off_c, 8, 43, 64
14, 106320, Note_on_c, 8, 39, 75
14, 106555, Note_off_c, 8, 39, 64
14, 106560, Note_on_c, 8, 41, 75
14, 106960, Note_off_c, 8, 41, 64
14, 107760, Note_on_c, 8, 43, 75
14, 107995, Note_off_c, 8, 43, 64
14, 108000, Note_on_c, 8, 44, 75
14, 108400, Note_off_c, 8, 44, 64
14, 109200, Note_on_c, 8, 41, 75
14, 109435, Note_off_c, 8, 41, 64
14, 109440, Note_on_c, 8, 43, 75
14, 109840, Note_off_c, 8, 43, 64
14, 110640, Note_on_c, 8, 38, 75
14, 110875, Note_off_c, 8, 38, 64
14, 110880, Note_on_c, 8, 39, 75
14, 111280, Note_off_c, 8, 39, 64
14, 112080, Note_on_c, 8, 35, 75
14, 112315, Note_off_c, 8, 35, 64
14, 112320, Note_on_c, 8, 36, 75
14, 112720, Note_off_c, 8, 36, 64
14, 113520, Note_on_c, 8, 41, 75
14, 113755, Note_off_c, 8, 41, 64
14, 113760, Note_on_c, 8, 43, 75
14, 114160, Note_off_c, 8, 43, 64
14, 114960, Note_on_c, 8, 43, 77
14, 115195, Note_off_c, 8, 43, 64
14, 115200, Note_on_c, 8, 36, 80
14, 115600, Note_off_c, 8, 36, 64
14, 116160, Note_on_c, 8, 36, 92
14, 116560, Note_off_c, 8, 36, 64
14, 116640, Note_on_c, 8, 43, 92
14, 117040, Note_off_c, 8, 43, 64
14, 117600, Note_on_c, 8, 39, 92
14, 118000, Note_off_c, 8, 39, 64
14, 118080, Note_on_c, 8, 41, 92
14, 118480, Note_off_c, 8, 41, 64
14, 119040, Note_on_c, 8, 43, 92
14, 119440, Note_off_c, 8, 43, 64
14, 119520, Note_on_c, 8, 44, 92
14, 119920, Note_off_c, 8, 44, 64
14, 120480, Note_on_c, 8, 41, 92
14, 120880, Note_off_c, 8, 41, 64
14, 120960, Note_on_c, 8, 43, 92
14, 121360, Note_off_c, 8, 43, 64
14, 121920, Note_on_c, 8, 38, 92
14, 122320, Note_off_c, 8, 38, 64
14, 122400, Note_on_c, 8, 39, 92
14, 122800, Note_off_c, 8, 39, 64
14, 123360, Note_on_c, 8, 35, 92
14, 123760, Note_off_c, 8, 35, 64
14, 123840, Note_on_c, 8, 36, 92
14, 124240, Note_off_c, 8, 36, 64
14, 124800, Note_on_c, 8, 41, 92
14, 125200, Note_off_c, 8, 41, 64
14, 125280, Note_on_c, 8, 43, 92
14, 125680, Note_off_c, 8, 43, 64
14, 126240, Note_on_c, 8, 43, 75
14, 126640, Note_off_c, 8, 43, 64
14, 126720, Note_on_c, 8, 36, 60
14, 127120, Note_off_c, 8, 36, 64
14, 185280, Note_on_c, 8, 36, 92
14, 185680, Note_off_c, 8, 36, 64
14, 185760, Note_on_c, 8, 43, 92
14, 186600, Note_off_c, 8, 43, 64
14, 186720, Note_on_c, 8, 39, 92
14, 187120, Note_off_c, 8, 39, 64
14, 187200, Note_on_c, 8, 41, 92
14, 188040, Note_off_c, 8, 41, 64
14, 188160, Note_on_c, 8, 43, 92
14, 188560, Note_off_c, 8, 43, 64
14, 188640, Note_on_c, 8, 44, 92
14, 189480, Note_off_c, 8, 44, 64
14, 189600, Note_on_c, 8, 41, 92
14, 190000, Note_off_c, 8, 41, 64
14, 190080, Note_on_c, 8, 43, 92
14, 190920, Note_off_c, 8, 43, 64
14, 191040, Note_on_c, 8, 38, 92
14, 191440, Note_off_c, 8, 38, 64
14, 191520, Note_on_c, 8, 39, 92
14, 192360, Note_off_c, 8, 39, 64
14, 192480, Note_on_c, 8, 35, 92
14, 192880, Note_off_c, 8, 35, 64
14, 192960, Note_on_c, 8, 36, 92
14, 193800, Note_off_c, 8, 36, 64
14, 193920, Note_on_c, 8, 41, 92
14, 194320, Note_off_c, 8, 41, 64
14, 194400, Note_on_c, 8, 43, 92
14, 195720, Note_off_c, 8, 43, 64
14, 195840, Note_on_c, 8, 36, 92
14, 196680, Note_off_c, 8, 36, 64
14, 196800, Note_on_c, 8, 36, 92
14, 197200, Note_off_c, 8, 36, 64
14, 197280, Note_on_c, 8, 43, 92
14, 198120, Note_off_c, 8, 43, 64
14, 198240, Note_on_c, 8, 39, 92
14, 198640, Note_off_c, 8, 39, 64
14, 198720, Note_on_c, 8, 41, 92
14, 199560, Note_off_c, 8, 41, 64
14, 199680, Note_on_c, 8, 43, 92
14, 200080, Note_off_c, 8, 43, 64
14, 200160, Note_on_c, 8, 44, 92
14, 201000, Note_off_c, 8, 44, 64
14, 201120, Note_on_c, 8, 41, 92
14, 201520, Note_off_c, 8, 41, 64
14, 201600, Note_on_c, 8, 43, 92
14, 202440, Note_off_c, 8, 43, 64
14, 202560, Note_on_c, 8, 38, 92
14, 202960, Note_off_c, 8, 38, 64
14, 203040, Note_on_c, 8, 39, 92
14, 203880, Note_off_c, 8, 39, 64
14, 204000, Note_on_c, 8, 35, 92
14, 204400, Note_off_c, 8, 35, 64
14, 204480, Note_on_c, 8, 36, 92
14, 205320, Note_off_c, 8, 36, 64
14, 205440, Note_on_c, 8, 41, 92
14, 205840, Note_off_c, 8, 41, 64
14, 205920, Note_on_c, 8, 43, 92
14, 207240, Note_off_c, 8, 43, 64
14, 207360, Note_on_c, 8, 36, 92
14, 208200, Note_off_c, 8, 36, 64
14, 208560, Note_on_c, 8, 36, 108
14, 208795, Note_off_c, 8, 36, 64
14, 208800, Note_on_c, 8, 43, 108
14, 209640, Note_off_c, 8, 43, 64
14, 210000, Note_on_c, 8, 39, 108
14, 210235, Note_off_c, 8, 39, 64
14, 210240, Note_on_c, 8, 41, 108
14, 211080, Note_off_c, 8, 41, 64
14, 211440, Note_on_c, 8, 43, 108
14, 211675, Note_off_c, 8, 43, 64
14, 211680, Note_on_c, 8, 44, 108
14, 212520, Note_off_c, 8, 44, 64
14, 212880, Note_on_c, 8, 41, 108
14, 213115, Note_off_c, 8, 41, 64
14, 213120, Note_on_c, 8, 43, 108
14, 213960, Note_off_c, 8, 43, 64
14, 214320, Note_on_c, 8, 38, 108
14, 214555, Note_off_c, 8, 38, 64
14, 214560, Note_on_c, 8, 39, 108
14, 215400, Note_off_c, 8, 39, 64
14, 215760, Note_on_c, 8, 35, 108
14, 215995, Note_off_c, 8, 35, 64
14, 216000, Note_on_c, 8, 36, 108
14, 216840, Note_off_c, 8, 36, 64
14, 217200, Note_on_c, 8, 41, 108
14, 217435, Note_off_c, 8, 41, 64
14, 217440, Note_on_c, 8, 43, 108
14, 218280, Note_off_c, 8, 43, 64
14, 218640, Note_on_c, 8, 43, 108
14, 218875, Note_off_c, 8, 43, 64
14, 218880, Note_on_c, 8, 36, 108
14, 219720, Note_off_c, 8, 36, 64
14, 219840, Note_on_c, 8, 36, 108
14, 220240, Note_off_c, 8, 36, 64
14, 220320, Note_on_c, 8, 43, 108
14, 221160, Note_off_c, 8, 43, 64
14, 221280, Note_on_c, 8, 39, 108
14, 221680, Note_off_c, 8, 39, 64
14, 221760, Note_on_c, 8, 41, 108
14, 222600, Note_off_c, 8, 41, 64
14, 222720, Note_on_c, 8, 43, 108
14, 223120, Note_off_c, 8, 43, 64
14, 223200, Note_on_c, 8, 44, 108
14, 224040, Note_off_c, 8, 44, 64
14, 224160, Note_on_c, 8, 41, 108
14, 224560, Note_off_c, 8, 41, 64
14, 224640, Note_on_c, 8, 43, 108
14, 225480, Note_off_c, 8, 43, 64
14, 225600, Note_on_c, 8, 38, 108
14, 226000, Note_off_c, 8, 38, 64
14, 226080, Note_on_c, 8, 39, 108
14, 226920, Note_off_c, 8, 39, 64
14, 227040, Note_on_c, 8, 35, 108
14, 227440, Note_off_c, 8, 35, 64
14, 227520, Note_on_c, 8, 36, 108
14, 228360, Note_off_c, 8, 36, 64
14, 228480, Note_on_c, 8, 41, 108
14, 228880, Note_off_c, 8, 41, 64
14, 228960, Note_on_c, 8, 43, 108
14, 230280, Note_off_c, 8, 43, 64
14, 230400, Note_on_c, 8, 36, 108
14, 231240, Note_off_c, 8, 36, 64
14, 231360, Note_on_c, 8, 36, 108
14, 231760, Note_off_c, 8, 36, 64
14, 231840, Note_on_c, 8, 43, 108
14, 232680, Note_off_c, 8, 43, 64
14, 232800, Note_on_c, 8, 39, 108
14, 233200, Note_off_c, 8, 39, 64
14, 233280, Note_on_c, 8, 41, 108
14, 234120, Note_off_c, 8, 41, 64
14, 234240, Note_on_c, 8, 43, 108
14, 234640, Note_off_c, 8, 43, 64
14, 234720, Note_on_c, 8, 44, 108
14, 235560, Note_off_c, 8, 44, 64
14, 235680, Note_on_c, 8, 41, 108
14, 236080, Note_off_c, 8, 41, 64
14, 236160, Note_on_c, 8, 43, 108
14, 237000, Note_off_c, 8, 43, 64
14, 237120, Note_on_c, 8, 38, 108
14, 237520, Note_off_c, 8, 38, 64
14, 237600, Note_on_c, 8, 39, 108
14, 238440, Note_off_c, 8, 39, 64
14, 238560, Note_on_c, 8, 35, 108
14, 238960, Note_off_c, 8, 35, 64
14, 239040, Note_on_c, 8, 36, 108
14, 239880, Note_off_c, 8, 36, 64
14, 240000, Note_on_c, 8, 41, 108
14, 240400, Note_off_c, 8, 41, 64
14, 240480, Note_on_c, 8, 43, 108
14, 241800, Note_off_c, 8, 43, 64
14, 241920, Note_on_c, 8, 36, 60
14, 243240, Note_off_c, 8, 36, 64
14, 260160, Note_on_c, 8, 36, 60
14, 260560, Note_off_c, 8, 36, 64
14, 260640, Note_on_c, 8, 43, 60
14, 261480, Note_off_c, 8, 43, 64
14, 261600, Note_on_c, 8, 39, 60
14, 262000, Note_off_c, 8, 39, 64
14, 262080, Note_on_c, 8, 41, 60
14, 262920, Note_off_c, 8, 41, 64
14, 263040, Note_on_c, 8, 43, 60
14, 263440, Note_off_c, 8, 43, 64
14, 263520, Note_on_c, 8, 44, 60
14, 264360, Note_off_c, 8, 44, 64
14, 264480, Note_on_c, 8, 41, 60
14, 264880, Note_off_c, 8, 41, 64
14, 264960, Note_on_c, 8, 43, 60
14, 265680, Note_off_c, 8, 43, 64
14, 265680, Note_on_c, 8, 38, 60
14, 265915, Note_off_c, 8, 38, 64
14, 265920, Note_on_c, 8, 39, 60
14, 266160, Note_off_c, 8, 39, 64
14, 266160, Note_on_c, 8, 35, 60
14, 266395, Note_off_c, 8, 35, 64
14, 266400, Note_on_c, 8, 36, 60
14, 267040, Note_off_c, 8, 36, 64
14, 267120, Note_on_c, 8, 38, 60
14, 267355, Note_off_c, 8, 38, 64
14, 267360, Note_on_c, 8, 39, 60
14, 267600, Note_off_c, 8, 39, 64
14, 267600, Note_on_c, 8, 36, 60
14, 267835, Note_off_c, 8, 36, 64
14, 267840, Note_on_c, 8, 38, 60
14, 268080, Note_off_c, 8, 38, 64
14, 268080, Note_on_c, 8, 34, 60
14, 268315, Note_off_c, 8, 34, 64
14, 268320, Note_on_c, 8, 30, 60
14, 268720, Note_off_c, 8, 30, 64
14, 268800, Note_on_c, 8, 31, 60
14, 269200, Note_off_c, 8, 31, 64
14, 269520, Note_on_c, 8, 39, 60
14, 269760, Note_off_c, 8, 39, 64
14, 269760, Note_on_c, 8, 33, 60
14, 269995, Note_off_c, 8, 33, 64
14, 270000, Note_on_c, 8, 33, 60
14, 270240, Note_off_c, 8, 33, 64
14, 270240, Note_on_c, 8, 35, 60
14, 270640, Note_off_c, 8, 35, 64
14, 270960, Note_on_c, 8, 36, 60
14, 271200, Note_off_c, 8, 36, 64
14, 271200, Note_on_c, 8, 31, 60
14, 271435, Note_off_c, 8, 31, 64
14, 271440, Note_on_c, 8, 31, 60
14, 271680, Note_off_c, 8, 31, 64
14, 271680, Note_on_c, 8, 33, 60
14, 272080, Note_off_c, 8, 33, 64
14, 272400, Note_on_c, 8, 34, 60
14, 272640, Note_off_c, 8, 34, 64
14, 272640, Note_on_c, 8, 30, 60
14, 272875, Note_off_c, 8, 30, 64
14, 272880, Note_on_c, 8, 30, 60
14, 273115, Note_off_c, 8, 30, 64
14, 273120, Note_on_c, 8, 31, 60
14, 273360, Note_off_c, 8, 31, 64
14, 273360, Note_on_c, 8, 33, 60
14, 273595, Note_off_c, 8, 33, 64
14, 273600, Note_on_c, 8, 34, 60
14, 273840, Note_off_c, 8, 34, 64
14, 273840, Note_on_c, 8, 36, 60
14, 274075, Note_off_c, 8, 36, 64
14, 274080, Note_on_c, 8, 33, 60
14, 274480, Note_off_c, 8, 33, 64
14, 274560, Note_on_c, 8, 38, 60
14, 274960, Note_off_c, 8, 38, 64
14, 275040, Note_on_c, 8, 31, 63
14, 275880, Note_off_c, 8, 31, 64
14, 277080, Note_on_c, 8, 43, 75
14, 277200, Note_off_c, 8, 43, 64
14, 277200, Note_on_c, 8, 41, 75
14, 277320, Note_off_c, 8, 41, 64
14, 277320, Note_on_c, 8, 43, 75
14, 277440, Note_off_c, 8, 43, 64
14, 277440, Note_on_c, 8, 36, 75
14, 277555, Note_off_c, 8, 36, 64
14, 277560, Note_on_c, 8, 48, 75
14, 277680, Note_off_c, 8, 48, 64
14, 277680, Note_on_c, 8, 46, 75
14, 277800, Note_off_c, 8, 46, 64
14, 277800, Note_on_c, 8, 48, 75
14, 277920, Note_off_c, 8, 48, 64
14, 277920, Note_on_c, 8, 44, 75
14, 278040, Note_off_c, 8, 44, 64
14, 278040, Note_on_c, 8, 48, 75
14, 278160, Note_off_c, 8, 48, 64
14, 278160, Note_on_c, 8, 44, 75
14, 278280, Note_off_c, 8, 44, 64
14, 278280, Note_on_c, 8, 48, 75
14, 278400, Note_off_c, 8, 48, 64
14, 278400, Note_on_c, 8, 44, 75
14, 278520, Note_off_c, 8, 44, 64
14, 278520, Note_on_c, 8, 46, 75
14, 278640, Note_off_c, 8, 46, 64
14, 278640, Note_on_c, 8, 44, 75
14, 278760, Note_off_c, 8, 44, 64
14, 278760, Note_on_c, 8, 46, 75
14, 278875, Note_off_c, 8, 46, 64
14, 279000, Note_on_c, 8, 46, 75
14, 279120, Note_off_c, 8, 46, 64
14, 279120, Note_on_c, 8, 43, 75
14, 279240, Note_off_c, 8, 43, 64
14, 279240, Note_on_c, 8, 46, 75
14, 279360, Note_off_c, 8, 46, 64
14, 279360, Note_on_c, 8, 41, 75
14, 279480, Note_off_c, 8, 41, 64
14, 279480, Note_on_c, 8, 44, 75
14, 279600, Note_off_c, 8, 44, 64
14, 279600, Note_on_c, 8, 43, 75
14, 279720, Note_off_c, 8, 43, 64
14, 279720, Note_on_c, 8, 46, 75
14, 279840, Note_off_c, 8, 46, 64
14, 279840, Note_on_c, 8, 44, 75
14, 279960, Note_off_c, 8, 44, 64
14, 279960, Note_on_c, 8, 46, 75
14, 280080, Note_off_c, 8, 46, 64
14, 280080, Note_on_c, 8, 44, 75
14, 280200, Note_off_c, 8, 44, 64
14, 280200, Note_on_c, 8, 46, 75
14, 280315, Note_off_c, 8, 46, 64
14, 280440, Note_on_c, 8, 46, 75
14, 280560, Note_off_c, 8, 46, 64
14, 280560, Note_on_c, 8, 44, 75
14, 280680, Note_off_c, 8, 44, 64
14, 280680, Note_on_c, 8, 46, 75
14, 280800, Note_off_c, 8, 46, 64
14, 280800, Note_on_c, 8, 43, 75
14, 280920, Note_off_c, 8, 43, 64
14, 280920, Note_on_c, 8, 44, 75
14, 281040, Note_off_c, 8, 44, 64
14, 281040, Note_on_c, 8, 43, 75
14, 281160, Note_off_c, 8, 43, 64
14, 281160, Note_on_c, 8, 44, 75
14, 281280, Note_off_c, 8, 44, 64
14, 281280, Note_on_c, 8, 43, 75
14, 281400, Note_off_c, 8, 43, 64
14, 281400, Note_on_c, 8, 44, 75
14, 281520, Note_off_c, 8, 44, 64
14, 281520, Note_on_c, 8, 43, 75
14, 281640, Note_off_c, 8, 43, 64
14, 281640, Note_on_c, 8, 46, 75
14, 281755, Note_off_c, 8, 46, 64
14, 281880, Note_on_c, 8, 46, 75
14, 282000, Note_off_c, 8, 46, 64
14, 282000, Note_on_c, 8, 44, 75
14, 282120, Note_off_c, 8, 44, 64
14, 282120, Note_on_c, 8, 48, 75
14, 282240, Note_off_c, 8, 48, 64
14, 282240, Note_on_c, 8, 46, 75
14, 282640, Note_off_c, 8, 46, 64
14, 282720, Note_on_c, 8, 34, 75
14, 283560, Note_off_c, 8, 34, 64
14, 283680, Note_on_c, 8, 39, 75
14, 284080, Note_off_c, 8, 39, 64
14, 317760, Note_on_c, 8, 43, 92
14, 318160, Note_off_c, 8, 43, 64
14, 318240, Note_on_c, 8, 38, 92
14, 319080, Note_off_c, 8, 38, 64
14, 319200, Note_on_c, 8, 34, 92
14, 319600, Note_off_c, 8, 34, 64
14, 319680, Note_on_c, 8, 36, 92
14, 320520, Note_off_c, 8, 36, 64
14, 320640, Note_on_c, 8, 38, 92
14, 321040, Note_off_c, 8, 38, 64
14, 321120, Note_on_c, 8, 39, 92
14, 321960, Note_off_c, 8, 39, 64
14, 322080, Note_on_c, 8, 36, 92
14, 322480, Note_off_c, 8, 36, 64
14, 322560, Note_on_c, 8, 38, 75
14, 323200, Note_off_c, 8, 38, 64
14, 346800, Note_on_c, 8, 39, 60
14, 347035, Note_off_c, 8, 39, 64
14, 347040, Note_on_c, 8, 32, 60
14, 347275, Note_off_c, 8, 32, 64
14, 347280, Note_on_c, 8, 34, 60
14, 347515, Note_off_c, 8, 34, 64
14, 347520, Note_on_c, 8, 36, 60
14, 347755, Note_off_c, 8, 36, 64
14, 347760, Note_on_c, 8, 38, 60
14, 347995, Note_off_c, 8, 38, 64
14, 348000, Note_on_c, 8, 39, 60
14, 348235, Note_off_c, 8, 39, 64
14, 348240, Note_on_c, 8, 41, 60
14, 348475, Note_off_c, 8, 41, 64
14, 348480, Note_on_c, 8, 43, 60
14, 348715, Note_off_c, 8, 43, 64
14, 349680, Note_on_c, 8, 36, 60
14, 349915, Note_off_c, 8, 36, 64
14, 349920, Note_on_c, 8, 41, 60
14, 350155, Note_off_c, 8, 41, 64
14, 350160, Note_on_c, 8, 43, 60
14, 350395, Note_off_c, 8, 43, 64
14, 350400, Note_on_c, 8, 44, 60
14, 350635, Note_off_c, 8, 44, 64
14, 350640, Note_on_c, 8, 46, 60
14, 350875, Note_off_c, 8, 46, 64
14, 350880, Note_on_c, 8, 36, 60
14, 351000, Note_off_c, 8, 36, 64
14, 351000, Note_on_c, 8, 39, 60
14, 351120, Note_off_c, 8, 39, 64
14, 351120, Note_on_c, 8, 38, 60
14, 351240, Note_off_c, 8, 38, 64
14, 351240, Note_on_c, 8, 41, 60
14, 351360, Note_off_c, 8, 41, 64
14, 351360, Note_on_c, 8, 39, 60
14, 351955, Note_off_c, 8, 39, 64
14, 351960, Note_on_c, 8, 41, 60
14, 352080, Note_off_c, 8, 41, 64
14, 352080, Note_on_c, 8, 38, 60
14, 352200, Note_off_c, 8, 38, 64
14, 352200, Note_on_c, 8, 39, 60
14, 352320, Note_off_c, 8, 39, 64
14, 352320, Note_on_c, 8, 36, 60
14, 352720, Note_off_c, 8, 36, 64
14, 352800, Note_on_c, 8, 38, 60
14, 353395, Note_off_c, 8, 38, 64
14, 353400, Note_on_c, 8, 39, 69
14, 353520, Note_off_c, 8, 39, 64
14, 353520, Note_on_c, 8, 36, 71
14, 353640, Note_off_c, 8, 36, 64
14, 353640, Note_on_c, 8, 38, 73
14, 353755, Note_off_c, 8, 38, 64
14, 353760, Note_on_c, 8, 34, 75
14, 354160, Note_off_c, 8, 34, 64
14, 354240, Note_on_c, 8, 42, 75
14, 354475, Note_off_c, 8, 42, 64
14, 354480, Note_on_c, 8, 42, 75
14, 354720, Note_off_c, 8, 42, 64
14, 354720, Note_on_c, 8, 38, 75
14, 355120, Note_off_c, 8, 38, 64
14, 355200, Note_on_c, 8, 43, 75
14, 355600, Note_off_c, 8, 43, 64
14, 355680, Note_on_c, 8, 39, 75
14, 356080, Note_off_c, 8, 39, 64
14, 356160, Note_on_c, 8, 39, 75
14, 356560, Note_off_c, 8, 39, 64
14, 356640, Note_on_c, 8, 38, 75
14, 357040, Note_off_c, 8, 38, 64
14, 357120, Note_on_c, 8, 36, 75
14, 357520, Note_off_c, 8, 36, 64
14, 357600, Note_on_c, 8, 39, 75
14, 358000, Note_off_c, 8, 39, 64
14, 358080, Note_on_c, 8, 39, 75
14, 358480, Note_off_c, 8, 39, 64
14, 358560, Note_on_c, 8, 38, 75
14, 358800, Note_off_c, 8, 38, 64
14, 358800, Note_on_c, 8, 40, 75
14, 359035, Note_off_c, 8, 40, 64
14, 359040, Note_on_c, 8, 42, 75
14, 359280, Note_off_c, 8, 42, 64
14, 359280, Note_on_c, 8, 38, 75
14, 359515, Note_off_c, 8, 38, 64
14, 359520, Note_on_c, 8, 43, 75
14, 359760, Note_off_c, 8, 43, 64
14, 359760, Note_on_c, 8, 31, 75
14, 359995, Note_off_c, 8, 31, 64
14, 360000, Note_on_c, 8, 36, 75
14, 360240, Note_off_c, 8, 36, 64
14, 360240, Note_on_c, 8, 34, 75
14, 360475, Note_off_c, 8, 34, 64
14, 360480, Note_on_c, 8, 33, 75
14, 360880, Note_off_c, 8, 33, 64
14, 360960, Note_on_c, 8, 34, 75
14, 361360, Note_off_c, 8, 34, 64
14, 361440, Note_on_c, 8, 36, 75
14, 361840, Note_off_c, 8, 36, 64
14, 361920, Note_on_c, 8, 34, 75
14, 362320, Note_off_c, 8, 34, 64
14, 362400, Note_on_c, 8, 33, 75
14, 362640, Note_off_c, 8, 33, 64
14, 362640, Note_on_c, 8, 38, 75
14, 362875, Note_off_c, 8, 38, 64
14, 363120, Note_on_c, 8, 41, 75
14, 363360, Note_off_c, 8, 41, 64
14, 363360, Note_on_c, 8, 39, 75
14, 363600, Note_off_c, 8, 39, 64
14, 363600, Note_on_c, 8, 36, 75
14, 363835, Note_off_c, 8, 36, 64
14, 363840, Note_on_c, 8, 38, 75
14, 364080, Note_off_c, 8, 38, 64
14, 364080, Note_on_c, 8, 38, 75
14, 364320, Note_off_c, 8, 38, 64
14, 364320, Note_on_c, 8, 43, 75
14, 364560, Note_off_c, 8, 43, 64
14, 364560, Note_on_c, 8, 43, 75
14, 364795, Note_off_c, 8, 43, 64
14, 364800, Note_on_c, 8, 38, 75
14, 365040, Note_off_c, 8, 38, 64
14, 365040, Note_on_c, 8, 36, 75
14, 365275, Note_off_c, 8, 36, 64
14, 365280, Note_on_c, 8, 38, 75
14, 365520, Note_off_c, 8, 38, 64
14, 365520, Note_on_c, 8, 43, 75
14, 365755, Note_off_c, 8, 43, 64
14, 365760, Note_on_c, 8, 36, 75
14, 366480, Note_off_c, 8, 36, 64
14, 366480, Note_on_c, 8, 38, 75
14, 366720, Note_off_c, 8, 38, 64
14, 366720, Note_on_c, 8, 40, 75
14, 366960, Note_off_c, 8, 40, 64
14, 366960, Note_on_c, 8, 36, 75
14, 367195, Note_off_c, 8, 36, 64
14, 367200, Note_on_c, 8, 41, 75
14, 368040, Note_off_c, 8, 41, 64
14, 368160, Note_on_c, 8, 29, 92
14, 368560, Note_off_c, 8, 29, 64
14, 368640, Note_on_c, 8, 36, 92
14, 369480, Note_off_c, 8, 36, 64
14, 369600, Note_on_c, 8, 32, 92
14, 370000, Note_off_c, 8, 32, 64
14, 370080, Note_on_c, 8, 34, 92
14, 370920, Note_off_c, 8, 34, 64
14, 371040, Note_on_c, 8, 36, 92
14, 371440, Note_off_c, 8, 36, 64
14, 371520, Note_on_c, 8, 37, 92
14, 372360, Note_off_c, 8, 37, 64
14, 372480, Note_on_c, 8, 34, 92
14, 372880, Note_off_c, 8, 34, 64
14, 372960, Note_on_c, 8, 36, 92
14, 373675, Note_off_c, 8, 36, 64
14, 373680, Note_on_c, 8, 38, 92
14, 373920, Note_off_c, 8, 38, 64
14, 373920, Note_on_c, 8, 40, 92
14, 374155, Note_off_c, 8, 40, 64
14, 374160, Note_on_c, 8, 40, 92
14, 374395, Note_off_c, 8, 40, 64
14, 374400, Note_on_c, 8, 32, 92
14, 375240, Note_off_c, 8, 32, 64
14, 375360, Note_on_c, 8, 36, 92
14, 375480, Note_off_c, 8, 36, 64
14, 375480, Note_on_c, 8, 37, 92
14, 375600, Note_off_c, 8, 37, 64
14, 375600, Note_on_c, 8, 36, 92
14, 375720, Note_off_c, 8, 36, 64
14, 375720, Note_on_c, 8, 37, 92
14, 375840, Note_off_c, 8, 37, 64
14, 375840, Note_on_c, 8, 38, 92
14, 376240, Note_off_c, 8, 38, 64
14, 376320, Note_on_c, 8, 40, 92
14, 377160, Note_off_c, 8, 40, 64
14, 377280, Note_on_c, 8, 41, 92
14, 378120, Note_off_c, 8, 41, 64
14, 378240, Note_on_c, 8, 36, 92
14, 378640, Note_off_c, 8, 36, 64
14, 378720, Note_on_c, 8, 38, 92
14, 379560, Note_off_c, 8, 38, 64
14, 379800, Note_on_c, 8, 39, 92
14, 379920, Note_off_c, 8, 39, 64
14, 379920, Note_on_c, 8, 38, 92
14, 380040, Note_off_c, 8, 38, 64
14, 380040, Note_on_c, 8, 39, 92
14, 380155, Note_off_c, 8, 39, 64
14, 380160, Note_on_c, 8, 36, 92
14, 380560, Note_off_c, 8, 36, 64
14, 380640, Note_on_c, 8, 38, 92
14, 381040, Note_off_c, 8, 38, 64
14, 381240, Note_on_c, 8, 39, 92
14, 381360, Note_off_c, 8, 39, 64
14, 381360, Note_on_c, 8, 38, 92
14, 381480, Note_off_c, 8, 38, 64
14, 381480, Note_on_c, 8, 39, 92
14, 381595, Note_off_c, 8, 39, 64
14, 381600, Note_on_c, 8, 36, 92
14, 382000, Note_off_c, 8, 36, 64
14, 382080, Note_on_c, 8, 38, 92
14, 382480, Note_off_c, 8, 38, 64
14, 382680, Note_on_c, 8, 39, 92
14, 382800, Note_off_c, 8, 39, 64
14, 382800, Note_on_c, 8, 38, 92
14, 382920, Note_off_c, 8, 38, 64
14, 382920, Note_on_c, 8, 39, 92
14, 383035, Note_off_c, 8, 39, 64
14, 383040, Note_on_c, 8, 36, 92
14, 383440, Note_off_c, 8, 36, 64
14, 383520, Note_on_c, 8, 38, 92
14, 383920, Note_off_c, 8, 38, 64
14, 384000, Note_on_c, 8, 38, 92
14, 384400, Note_off_c, 8, 38, 64
14, 384480, Note_on_c, 8, 34, 92
14, 384880, Note_off_c, 8, 34, 64
14, 387120, Note_on_c, 8, 36, 92
14, 387355, Note_off_c, 8, 36, 64
14, 387360, Note_on_c, 8, 41, 92
14, 387480, Note_off_c, 8, 41, 64
14, 387480, Note_on_c, 8, 44, 92
14, 387600, Note_off_c, 8, 44, 64
14, 387600, Note_on_c, 8, 43, 92
14, 387720, Note_off_c, 8, 43, 64
14, 387720, Note_on_c, 8, 46, 92
14, 387840, Note_off_c, 8, 46, 64
14, 387840, Note_on_c, 8, 44, 92
14, 387960, Note_off_c, 8, 44, 64
14, 387960, Note_on_c, 8, 48, 92
14, 388080, Note_off_c, 8, 48, 64
14, 388080, Note_on_c, 8, 43, 92
14, 388200, Note_off_c, 8, 43, 64
14, 388200, Note_on_c, 8, 46, 92
14, 388315, Note_off_c, 8, 46, 64
14, 388320, Note_on_c, 8, 41, 92
14, 388440, Note_off_c, 8, 41, 64
14, 388440, Note_on_c, 8, 44, 92
14, 388560, Note_off_c, 8, 44, 64
14, 388560, Note_on_c, 8, 39, 92
14, 388680, Note_off_c, 8, 39, 64
14, 388680, Note_on_c, 8, 43, 92
14, 388800, Note_off_c, 8, 43, 64
14, 388800, Note_on_c, 8, 38, 92
14, 388920, Note_off_c, 8, 38, 64
14, 388920, Note_on_c, 8, 41, 92
14, 389040, Note_off_c, 8, 41, 64
14, 389040, Note_on_c, 8, 39, 92
14, 389160, Note_off_c, 8, 39, 64
14, 389160, Note_on_c, 8, 43, 92
14, 389280, Note_off_c, 8, 43, 64
14, 389280, Note_on_c, 8, 41, 92
14, 389400, Note_off_c, 8, 41, 64
14, 389400, Note_on_c, 8, 44, 92
14, 389520, Note_off_c, 8, 44, 64
14, 389520, Note_on_c, 8, 39, 92
14, 389640, Note_off_c, 8, 39, 64
14, 389640, Note_on_c, 8, 43, 92
14, 389755, Note_off_c, 8, 43, 64
14, 389760, Note_on_c, 8, 38, 92
14, 389880, Note_off_c, 8, 38, 64
14, 389880, Note_on_c, 8, 41, 92
14, 390000, Note_off_c, 8, 41, 64
14, 390000, Note_on_c, 8, 36, 92
14, 390120, Note_off_c, 8, 36, 64
14, 390120, Note_on_c, 8, 39, 92
14, 390235, Note_off_c, 8, 39, 64
14, 390240, Note_on_c, 8, 35, 92
14, 390640, Note_off_c, 8, 35, 64
14, 390720, Note_on_c, 8, 36, 92
14, 391120, Note_off_c, 8, 36, 64
14, 391200, Note_on_c, 8, 36, 92
14, 391600, Note_off_c, 8, 36, 64
14, 391680, Note_on_c, 8, 43, 92
14, 392520, Note_off_c, 8, 43, 64
14, 392640, Note_on_c, 8, 39, 92
14, 393040, Note_off_c, 8, 39, 64
14, 393120, Note_on_c, 8, 41, 92
14, 393960, Note_off_c, 8, 41, 64
14, 394080, Note_on_c, 8, 43, 92
14, 394480, Note_off_c, 8, 43, 64
14, 394560, Note_on_c, 8, 44, 92
14, 395400, Note_off_c, 8, 44, 64
14, 395520, Note_on_c, 8, 41, 92
14, 395920, Note_off_c, 8, 41, 64
14, 396000, Note_on_c, 8, 43, 92
14, 397840, Note_off_c, 8, 43, 64
14, 397920, Note_on_c, 8, 39, 92
14, 398320, Note_off_c, 8, 39, 64
14, 398400, Note_on_c, 8, 36, 92
14, 398800, Note_off_c, 8, 36, 64
14, 398880, Note_on_c, 8, 41, 92
14, 399280, Note_off_c, 8, 41, 64
14, 399360, Note_on_c, 8, 38, 92
14, 399760, Note_off_c, 8, 38, 64
14, 399840, Note_on_c, 8, 35, 92
14, 400240, Note_off_c, 8, 35, 64
14, 400320, Note_on_c, 8, 39, 92
14, 400720, Note_off_c, 8, 39, 64
14, 400800, Note_on_c, 8, 36, 92
14, 401200, Note_off_c, 8, 36, 64
14, 401280, Note_on_c, 8, 33, 92
14, 401680, Note_off_c, 8, 33, 64
14, 401760, Note_on_c, 8, 38, 92
14, 402160, Note_off_c, 8, 38, 64
14, 402240, Note_on_c, 8, 47, 92
14, 402640, Note_off_c, 8, 47, 64
14, 402720, Note_on_c, 8, 43, 92
14, 403120, Note_off_c, 8, 43, 64
14, 403200, Note_on_c, 8, 36, 92
14, 403600, Note_off_c, 8, 36, 64
14, 403680, Note_on_c, 8, 32, 92
14, 404080, Note_off_c, 8, 32, 64
14, 404160, Note_on_c, 8, 41, 92
14, 404560, Note_off_c, 8, 41, 64
14, 404640, Note_on_c, 8, 43, 92
14, 405040, Note_off_c, 8, 43, 64
14, 405120, Note_on_c, 8, 31, 92
14, 405355, Note_off_c, 8, 31, 64
14, 405360, Note_on_c, 8, 31, 92
14, 405595, Note_off_c, 8, 31, 64
14, 405840, Note_on_c, 8, 31, 92
14, 406075, Note_off_c, 8, 31, 64
14, 406080, Note_on_c, 8, 43, 92
14, 406480, Note_off_c, 8, 43, 64
14, 406680, Note_on_c, 8, 43, 92
14, 406800, Note_off_c, 8, 43, 64
14, 406800, Note_on_c, 8, 41, 92
14, 406920, Note_off_c, 8, 41, 64
14, 406920, Note_on_c, 8, 43, 92
14, 407040, Note_off_c, 8, 43, 64
14, 407040, Note_on_c, 8, 39, 92
14, 407155, Note_off_c, 8, 39, 64
14, 407160, Note_on_c, 8, 43, 92
14, 407280, Note_off_c, 8, 43, 64
14, 407280, Note_on_c, 8, 36, 92
14, 407400, Note_off_c, 8, 36, 64
14, 407400, Note_on_c, 8, 39, 92
14, 407520, Note_off_c, 8, 39, 64
14, 407520, Note_on_c, 8, 35, 92
14, 407920, Note_off_c, 8, 35, 64
14, 408120, Note_on_c, 8, 43, 92
14, 408240, Note_off_c, 8, 43, 64
14, 408240, Note_on_c, 8, 41, 92
14, 408360, Note_off_c, 8, 41, 64
14, 408360, Note_on_c, 8, 43, 92
14, 408480, Note_off_c, 8, 43, 64
14, 408480, Note_on_c, 8, 39, 92
14, 408600, Note_off_c, 8, 39, 64
14, 408600, Note_on_c, 8, 43, 92
14, 408720, Note_off_c, 8, 43, 64
14, 408720, Note_on_c, 8, 36, 92
14, 408840, Note_off_c, 8, 36, 64
14, 408840, Note_on_c, 8, 39, 92
14, 408960, Note_off_c, 8, 39, 64
14, 408960, Note_on_c, 8, 31, 92
14, 409360, Note_off_c, 8, 31, 64
14, 409560, Note_on_c, 8, 43, 92
14, 409680, Note_off_c, 8, 43, 64
14, 409680, Note_on_c, 8, 41, 92
14, 409800, Note_off_c, 8, 41, 64
14, 409800, Note_on_c, 8, 43, 92
14, 409920, Note_off_c, 8, 43, 64
14, 409920, Note_on_c, 8, 39, 92
14, 410040, Note_off_c, 8, 39, 64
14, 410040, Note_on_c, 8, 43, 92
14, 410160, Note_off_c, 8, 43, 64
14, 410160, Note_on_c, 8, 36, 92
14, 410280, Note_off_c, 8, 36, 64
14, 410280, Note_on_c, 8, 39, 92
14, 410400, Note_off_c, 8, 39, 64
14, 410400, Note_on_c, 8, 29, 92
14, 410800, Note_off_c, 8, 29, 64
14, 411120, Note_on_c, 8, 41, 92
14, 411355, Note_off_c, 8, 41, 64
14, 411360, Note_on_c, 8, 39, 92
14, 411595, Note_off_c, 8, 39, 64
14, 411600, Note_on_c, 8, 36, 92
14, 411835, Note_off_c, 8, 36, 64
14, 411840, Note_on_c, 8, 41, 92
14, 412240, Note_off_c, 8, 41, 64
14, 412320, Note_on_c, 8, 43, 92
14, 412720, Note_off_c, 8, 43, 64
14, 412800, Note_on_c, 8, 43, 92
14, 413200, Note_off_c, 8, 43, 64
14, 413280, Note_on_c, 8, 36, 99
14, 413760, Note_off_c, 8, 36, 64
14, 413880, Note_on_c, 8, 36, 108
14, 414000, Note_off_c, 8, 36, 64
14, 414000, Note_on_c, 8, 40, 108
14, 414120, Note_off_c, 8, 40, 64
14, 414120, Note_on_c, 8, 36, 108
14, 414240, Note_off_c, 8, 36, 64
14, 414240, Note_on_c, 8, 41, 108
14, 414360, Note_off_c, 8, 41, 64
14, 414360, Note_on_c, 8, 36, 108
14, 414480, Note_off_c, 8, 36, 64
14, 414480, Note_on_c, 8, 44, 108
14, 414600, Note_off_c, 8, 44, 64
14, 414600, Note_on_c, 8, 41, 108
14, 414720, Note_off_c, 8, 41, 64
14, 414720, Note_on_c, 8, 48, 108
14, 415200, Note_off_c, 8, 48, 64
14, 415320, Note_on_c, 8, 48, 127
14, 415435, Note_off_c, 8, 48, 64
14, 415440, Note_on_c, 8, 46, 127
14, 415555, Note_off_c, 8, 46, 64
14, 415560, Note_on_c, 8, 48, 127
14, 415675, Note_off_c, 8, 48, 64
14, 415680, Note_on_c, 8, 44, 127
14, 415795, Note_off_c, 8, 44, 64
14, 415800, Note_on_c, 8, 48, 108
14, 415920, Note_off_c, 8, 48, 64
14, 415920, Note_on_c, 8, 41, 108
14, 416040, Note_off_c, 8, 41, 64
14, 416040, Note_on_c, 8, 44, 108
14, 416160, Note_off_c, 8, 44, 64
14, 416160, Note_on_c, 8, 40, 108
14, 416640, Note_off_c, 8, 40, 64
14, 416760, Note_on_c, 8, 48, 127
14, 416875, Note_off_c, 8, 48, 64
14, 416880, Note_on_c, 8, 46, 127
14, 416995, Note_off_c, 8, 46, 64
14, 417000, Note_on_c, 8, 48, 127
14, 417115, Note_off_c, 8, 48, 64
14, 417120, Note_on_c, 8, 44, 127
14, 417235, Note_off_c, 8, 44, 64
14, 417240, Note_on_c, 8, 48, 108
14, 417360, Note_off_c, 8, 48, 64
14, 417360, Note_on_c, 8, 41, 108
14, 417480, Note_off_c, 8, 41, 64
14, 417480, Note_on_c, 8, 44, 108
14, 417600, Note_off_c, 8, 44, 64
14, 417600, Note_on_c, 8, 36, 108
14, 418080, Note_off_c, 8, 36, 64
14, 418200, Note_on_c, 8, 36, 108
14, 418320, Note_off_c, 8, 36, 64
14, 418320, Note_on_c, 8, 34, 108
14, 418440, Note_off_c, 8, 34, 64
14, 418440, Note_on_c, 8, 36, 108
14, 418560, Note_off_c, 8, 36, 64
14, 418560, Note_on_c, 8, 41, 108
14, 418800, Note_off_c, 8, 41, 64
14, 418800, Note_on_c, 8, 38, 108
14, 418920, Note_off_c, 8, 38, 64
14, 418920, Note_on_c, 8, 41, 108
14, 419040, Note_off_c, 8, 41, 64
14, 419040, Note_on_c, 8, 36, 108
14, 421800, Note_off_c, 8, 36, 64
14, 421800, End_track
15, 0, Start_track
15, 0, MIDI_port, 0
15, 0, Channel_prefix, 11
15, 0, Control_c, 11, 7, 127
15, 0, Control_c, 11, 10, 0
15, 0, Control_c, 11, 91, 123
15, 0, Program_c, 11, 48
15, 12720, Note_on_c, 11, 72, 45
15, 13320, Note_off_c, 11, 72, 64
15, 13320, Note_on_c, 11, 74, 45
15, 13435, Note_off_c, 11, 74, 64
15, 13440, Note_on_c, 11, 71, 45
15, 13920, Note_off_c, 11, 71, 64
15, 14160, Note_on_c, 11, 75, 45
15, 14760, Note_off_c, 11, 75, 64
15, 14760, Note_on_c, 11, 77, 45
15, 14875, Note_off_c, 11, 77, 64
15, 14880, Note_on_c, 11, 74, 45
15, 15280, Note_off_c, 11, 74, 64
15, 15600, Note_on_c, 11, 74, 45
15, 16200, Note_off_c, 11, 74, 64
15, 16200, Note_on_c, 11, 75, 45
15, 16315, Note_off_c, 11, 75, 64
15, 16320, Note_on_c, 11, 72, 45
15, 16720, Note_off_c, 11, 72, 64
15, 17040, Note_on_c, 11, 72, 45
15, 17640, Note_off_c, 11, 72, 64
15, 17640, Note_on_c, 11, 74, 45
15, 17755, Note_off_c, 11, 74, 64
15, 17760, Note_on_c, 11, 71, 45
15, 18160, Note_off_c, 11, 71, 64
15, 18480, Note_on_c, 11, 80, 45
15, 19080, Note_off_c, 11, 80, 64
15, 19080, Note_on_c, 11, 82, 45
15, 19195, Note_off_c, 11, 82, 64
15, 19200, Note_on_c, 11, 79, 45
15, 19600, Note_off_c, 11, 79, 64
15, 19920, Note_on_c, 11, 77, 45
15, 20520, Note_off_c, 11, 77, 64
15, 20520, Note_on_c, 11, 79, 45
15, 20635, Note_off_c, 11, 79, 64
15, 20640, Note_on_c, 11, 75, 45
15, 21040, Note_off_c, 11, 75, 64
15, 21360, Note_on_c, 11, 75, 45
15, 21960, Note_off_c, 11, 75, 64
15, 21960, Note_on_c, 11, 77, 45
15, 22075, Note_off_c, 11, 77, 64
15, 22080, Note_on_c, 11, 74, 45
15, 22480, Note_off_c, 11, 74, 64
15, 22800, Note_on_c, 11, 74, 45
15, 23400, Note_off_c, 11, 74, 64
15, 23400, Note_on_c, 11, 75, 45
15, 23515, Note_off_c, 11, 75, 64
15, 23520, Note_on_c, 11, 72, 45
15, 23920, Note_off_c, 11, 72, 64
15, 24240, Note_on_c, 11, 72, 45
15, 24840, Note_off_c, 11, 72, 64
15, 24840, Note_on_c, 11, 74, 45
15, 24955, Note_off_c, 11, 74, 64
15, 24960, Note_on_c, 11, 71, 45
15, 25360, Note_off_c, 11, 71, 64
15, 25680, Note_on_c, 11, 70, 45
15, 26280, Note_off_c, 11, 70, 64
15, 26280, Note_on_c, 11, 72, 45
15, 26395, Note_off_c, 11, 72, 64
15, 26400, Note_on_c, 11, 68, 45
15, 26800, Note_off_c, 11, 68, 64
15, 27120, Note_on_c, 11, 67, 45
15, 27720, Note_off_c, 11, 67, 64
15, 27720, Note_on_c, 11, 68, 45
15, 27835, Note_off_c, 11, 68, 64
15, 27840, Note_on_c, 11, 65, 45
15, 28240, Note_off_c, 11, 65, 64
15, 28560, Note_on_c, 11, 68, 45
15, 29040, Note_off_c, 11, 68, 64
15, 29040, Note_on_c, 11, 67, 45
15, 29275, Note_off_c, 11, 67, 64
15, 29280, Note_on_c, 11, 67, 45
15, 29340, Note_off_c, 11, 67, 64
15, 29340, Note_on_c, 11, 68, 45
15, 29400, Note_off_c, 11, 68, 64
15, 29400, Note_on_c, 11, 67, 45
15, 29755, Note_off_c, 11, 67, 64
15, 30000, Note_on_c, 11, 65, 45
15, 30600, Note_off_c, 11, 65, 64
15, 30600, Note_on_c, 11, 67, 45
15, 30715, Note_off_c, 11, 67, 64
15, 30720, Note_on_c, 11, 63, 45
15, 31120, Note_off_c, 11, 63, 64
15, 31440, Note_on_c, 11, 62, 45
15, 32040, Note_off_c, 11, 62, 64
15, 32040, Note_on_c, 11, 63, 45
15, 32155, Note_off_c, 11, 63, 64
15, 32160, Note_on_c, 11, 60, 45
15, 32560, Note_off_c, 11, 60, 64
15, 32880, Note_on_c, 11, 60, 45
15, 33480, Note_off_c, 11, 60, 64
15, 33480, Note_on_c, 11, 62, 45
15, 33595, Note_off_c, 11, 62, 64
15, 33600, Note_on_c, 11, 59, 45
15, 33630, Note_off_c, 11, 59, 64
15, 33630, Note_on_c, 11, 60, 45
15, 33660, Note_off_c, 11, 60, 64
15, 33660, Note_on_c, 11, 59, 45
15, 33690, Note_off_c, 11, 59, 64
15, 33690, Note_on_c, 11, 60, 45
15, 33720, Note_off_c, 11, 60, 64
15, 33720, Note_on_c, 11, 59, 45
15, 33750, Note_off_c, 11, 59, 64
15, 33750, Note_on_c, 11, 60, 45
15, 33780, Note_off_c, 11, 60, 64
15, 33780, Note_on_c, 11, 59, 45
15, 33810, Note_off_c, 11, 59, 64
15, 33810, Note_on_c, 11, 60, 45
15, 33840, Note_off_c, 11, 60, 64
15, 33840, Note_on_c, 11, 59, 45
15, 33870, Note_off_c, 11, 59, 64
15, 33870, Note_on_c, 11, 60, 45
15, 33900, Note_off_c, 11, 60, 64
15, 33900, Note_on_c, 11, 59, 45
15, 33930, Note_off_c, 11, 59, 64
15, 33930, Note_on_c, 11, 60, 45
15, 33960, Note_off_c, 11, 60, 64
15, 33960, Note_on_c, 11, 59, 45
15, 33990, Note_off_c, 11, 59, 64
15, 33990, Note_on_c, 11, 60, 45
15, 34020, Note_off_c, 11, 60, 64
15, 34020, Note_on_c, 11, 59, 45
15, 34050, Note_off_c, 11, 59, 64
15, 34050, Note_on_c, 11, 60, 45
15, 34075, Note_off_c, 11, 60, 64
15, 34080, Note_on_c, 11, 59, 45
15, 34480, Note_off_c, 11, 59, 64
15, 34560, Note_on_c, 11, 60, 45
15, 34800, Note_off_c, 11, 60, 64
15, 34800, Note_on_c, 11, 67, 45
15, 35035, Note_off_c, 11, 67, 64
15, 35040, Note_on_c, 11, 72, 45
15, 35280, Note_off_c, 11, 72, 64
15, 35280, Note_on_c, 11, 74, 45
15, 35515, Note_off_c, 11, 74, 64
15, 35520, Note_on_c, 11, 75, 45
15, 35760, Note_off_c, 11, 75, 64
15, 35760, Note_on_c, 11, 77, 45
15, 35995, Note_off_c, 11, 77, 64
15, 36000, Note_on_c, 11, 74, 45
15, 36840, Note_off_c, 11, 74, 64
15, 36960, Note_on_c, 11, 79, 45
15, 37840, Note_off_c, 11, 79, 64
15, 37920, Note_on_c, 11, 77, 45
15, 38320, Note_off_c, 11, 77, 64
15, 38400, Note_on_c, 11, 75, 45
15, 39115, Note_off_c, 11, 75, 64
15, 39120, Note_on_c, 11, 79, 45
15, 39355, Note_off_c, 11, 79, 64
15, 39360, Note_on_c, 11, 77, 45
15, 39600, Note_off_c, 11, 77, 64
15, 39600, Note_on_c, 11, 75, 45
15, 39835, Note_off_c, 11, 75, 64
15, 39840, Note_on_c, 11, 74, 45
15, 40080, Note_off_c, 11, 74, 64
15, 40080, Note_on_c, 11, 72, 45
15, 40315, Note_off_c, 11, 72, 64
15, 40320, Note_on_c, 11, 71, 45
15, 40720, Note_off_c, 11, 71, 64
15, 41520, Note_on_c, 11, 80, 45
15, 41760, Note_off_c, 11, 80, 64
15, 41760, Note_on_c, 11, 79, 45
15, 42000, Note_off_c, 11, 79, 64
15, 42000, Note_on_c, 11, 77, 45
15, 42235, Note_off_c, 11, 77, 64
15, 42240, Note_on_c, 11, 75, 45
15, 42640, Note_off_c, 11, 75, 64
15, 42960, Note_on_c, 11, 80, 45
15, 43200, Note_off_c, 11, 80, 64
15, 43200, Note_on_c, 11, 79, 45
15, 43440, Note_off_c, 11, 79, 64
15, 43440, Note_on_c, 11, 77, 45
15, 43675, Note_off_c, 11, 77, 64
15, 43680, Note_on_c, 11, 75, 45
15, 44080, Note_off_c, 11, 75, 64
15, 44400, Note_on_c, 11, 80, 45
15, 44640, Note_off_c, 11, 80, 64
15, 44640, Note_on_c, 11, 79, 45
15, 44880, Note_off_c, 11, 79, 64
15, 44880, Note_on_c, 11, 77, 45
15, 44880, Note_on_c, 11, 68, 45
15, 45115, Note_off_c, 11, 68, 64
15, 45115, Note_off_c, 11, 77, 64
15, 45120, Note_on_c, 11, 75, 45
15, 45120, Note_on_c, 11, 67, 45
15, 45360, Note_off_c, 11, 67, 64
15, 45360, Note_off_c, 11, 75, 64
15, 45360, Note_on_c, 11, 74, 45
15, 45360, Note_on_c, 11, 65, 45
15, 45595, Note_off_c, 11, 65, 64
15, 45595, Note_off_c, 11, 74, 64
15, 45600, Note_on_c, 11, 72, 45
15, 45840, Note_off_c, 11, 72, 64
15, 45840, Note_on_c, 11, 71, 45
15, 45840, Note_on_c, 11, 62, 45
15, 46075, Note_off_c, 11, 62, 64
15, 46075, Note_off_c, 11, 71, 64
15, 46080, Note_on_c, 11, 72, 45
15, 46080, Note_on_c, 11, 63, 45
15, 46480, Note_off_c, 11, 63, 64
15, 46480, Note_off_c, 11, 72, 64
15, 47280, Note_on_c, 11, 67, 45
15, 47400, Note_off_c, 11, 67, 64
15, 47400, Note_on_c, 11, 69, 45
15, 47520, Note_off_c, 11, 69, 64
15, 47520, Note_on_c, 11, 71, 45
15, 47755, Note_off_c, 11, 71, 64
15, 47760, Note_on_c, 11, 71, 45
15, 47880, Note_off_c, 11, 71, 64
15, 47880, Note_on_c, 11, 72, 45
15, 48000, Note_off_c, 11, 72, 64
15, 48000, Note_on_c, 11, 74, 45
15, 48235, Note_off_c, 11, 74, 64
15, 48240, Note_on_c, 11, 72, 45
15, 48360, Note_off_c, 11, 72, 64
15, 48360, Note_on_c, 11, 74, 45
15, 48480, Note_off_c, 11, 74, 64
15, 48480, Note_on_c, 11, 75, 45
15, 49675, Note_off_c, 11, 75, 64
15, 49680, Note_on_c, 11, 74, 45
15, 49800, Note_off_c, 11, 74, 64
15, 49800, Note_on_c, 11, 72, 45
15, 49915, Note_off_c, 11, 72, 64
15, 49920, Note_on_c, 11, 71, 45
15, 50320, Note_off_c, 11, 71, 64
15, 50640, Note_on_c, 11, 72, 45
15, 50760, Note_off_c, 11, 72, 64
15, 50760, Note_on_c, 11, 74, 45
15, 50880, Note_off_c, 11, 74, 64
15, 50880, Note_on_c, 11, 75, 45
15, 51115, Note_off_c, 11, 75, 64
15, 51120, Note_on_c, 11, 77, 45
15, 51240, Note_off_c, 11, 77, 64
15, 51240, Note_on_c, 11, 79, 45
15, 51360, Note_off_c, 11, 79, 64
15, 51360, Note_on_c, 11, 80, 45
15, 51595, Note_off_c, 11, 80, 64
15, 51600, Note_on_c, 11, 74, 45
15, 51720, Note_off_c, 11, 74, 64
15, 51720, Note_on_c, 11, 72, 45
15, 51840, Note_off_c, 11, 72, 64
15, 51840, Note_on_c, 11, 71, 45
15, 52240, Note_off_c, 11, 71, 64
15, 52560, Note_on_c, 11, 79, 45
15, 52680, Note_off_c, 11, 79, 64
15, 52680, Note_on_c, 11, 81, 45
15, 52800, Note_off_c, 11, 81, 64
15, 52800, Note_on_c, 11, 83, 45
15, 53035, Note_off_c, 11, 83, 64
15, 53040, Note_on_c, 11, 81, 45
15, 53160, Note_off_c, 11, 81, 64
15, 53160, Note_on_c, 11, 83, 45
15, 53280, Note_off_c, 11, 83, 64
15, 53280, Note_on_c, 11, 84, 45
15, 53515, Note_off_c, 11, 84, 64
15, 53520, Note_on_c, 11, 79, 45
15, 53640, Note_off_c, 11, 79, 64
15, 53640, Note_on_c, 11, 77, 45
15, 53760, Note_off_c, 11, 77, 64
15, 53760, Note_on_c, 11, 79, 45
15, 53995, Note_off_c, 11, 79, 64
15, 54000, Note_on_c, 11, 75, 45
15, 54240, Note_off_c, 11, 75, 64
15, 54240, Note_on_c, 11, 74, 45
15, 54475, Note_off_c, 11, 74, 64
15, 54480, Note_on_c, 11, 72, 45
15, 54600, Note_off_c, 11, 72, 64
15, 54600, Note_on_c, 11, 74, 45
15, 54720, Note_off_c, 11, 74, 64
15, 54720, Note_on_c, 11, 75, 45
15, 54955, Note_off_c, 11, 75, 64
15, 54960, Note_on_c, 11, 72, 45
15, 55080, Note_off_c, 11, 72, 64
15, 55080, Note_on_c, 11, 71, 45
15, 55200, Note_off_c, 11, 71, 64
15, 55200, Note_on_c, 11, 72, 45
15, 55435, Note_off_c, 11, 72, 64
15, 55440, Note_on_c, 11, 67, 45
15, 55675, Note_off_c, 11, 67, 64
15, 55680, Note_on_c, 11, 68, 45
15, 55920, Note_off_c, 11, 68, 64
15, 55920, Note_on_c, 11, 80, 45
15, 56155, Note_off_c, 11, 80, 64
15, 56160, Note_on_c, 11, 79, 45
15, 56395, Note_off_c, 11, 79, 64
15, 56400, Note_on_c, 11, 72, 45
15, 56520, Note_off_c, 11, 72, 64
15, 56520, Note_on_c, 11, 71, 46
15, 56640, Note_off_c, 11, 71, 64
15, 56640, Note_on_c, 11, 72, 47
15, 56875, Note_off_c, 11, 72, 64
15, 56880, Note_on_c, 11, 63, 49
15, 57000, Note_off_c, 11, 63, 64
15, 57000, Note_on_c, 11, 62, 50
15, 57115, Note_off_c, 11, 62, 64
15, 57120, Note_on_c, 11, 62, 51
15, 57150, Note_off_c, 11, 62, 64
15, 57150, Note_on_c, 11, 63, 51
15, 57180, Note_off_c, 11, 63, 64
15, 57180, Note_on_c, 11, 62, 51
15, 57210, Note_off_c, 11, 62, 64
15, 57210, Note_on_c, 11, 63, 51
15, 57240, Note_off_c, 11, 63, 64
15, 57240, Note_on_c, 11, 62, 51
15, 57270, Note_off_c, 11, 62, 64
15, 57270, Note_on_c, 11, 63, 51
15, 57300, Note_off_c, 11, 63, 64
15, 57300, Note_on_c, 11, 62, 51
15, 57330, Note_off_c, 11, 62, 64
15, 57330, Note_on_c, 11, 63, 51
15, 57360, Note_off_c, 11, 63, 64
15, 57360, Note_on_c, 11, 62, 51
15, 57390, Note_off_c, 11, 62, 64
15, 57390, Note_on_c, 11, 63, 51
15, 57420, Note_off_c, 11, 63, 64
15, 57420, Note_on_c, 11, 62, 51
15, 57450, Note_off_c, 11, 62, 64
15, 57450, Note_on_c, 11, 63, 51
15, 57480, Note_off_c, 11, 63, 64
15, 57480, Note_on_c, 11, 62, 51
15, 57600, Note_off_c, 11, 62, 64
15, 57600, Note_on_c, 11, 60, 54
15, 57835, Note_off_c, 11, 60, 64
15, 57840, Note_on_c, 11, 79, 60
15, 57960, Note_off_c, 11, 79, 64
15, 57960, Note_on_c, 11, 67, 60
15, 58075, Note_off_c, 11, 67, 64
15, 58080, Note_on_c, 11, 72, 60
15, 58320, Note_off_c, 11, 72, 64
15, 58320, Note_on_c, 11, 74, 60
15, 58440, Note_off_c, 11, 74, 64
15, 58440, Note_on_c, 11, 75, 60
15, 58555, Note_off_c, 11, 75, 64
15, 58560, Note_on_c, 11, 75, 60
15, 58960, Note_off_c, 11, 75, 64
15, 59040, Note_on_c, 11, 74, 60
15, 59440, Note_off_c, 11, 74, 64
15, 59760, Note_on_c, 11, 74, 60
15, 59880, Note_off_c, 11, 74, 64
15, 59880, Note_on_c, 11, 71, 60
15, 59995, Note_off_c, 11, 71, 64
15, 60000, Note_on_c, 11, 75, 60
15, 60715, Note_off_c, 11, 75, 64
15, 60720, Note_on_c, 11, 75, 60
15, 60840, Note_off_c, 11, 75, 64
15, 60840, Note_on_c, 11, 72, 60
15, 60955, Note_off_c, 11, 72, 64
15, 60960, Note_on_c, 11, 77, 60
15, 61675, Note_off_c, 11, 77, 64
15, 61680, Note_on_c, 11, 75, 60
15, 61800, Note_off_c, 11, 75, 64
15, 61800, Note_on_c, 11, 79, 60
15, 61920, Note_off_c, 11, 79, 64
15, 61920, Note_on_c, 11, 72, 60
15, 62155, Note_off_c, 11, 72, 64
15, 62160, Note_on_c, 11, 84, 60
15, 62280, Note_off_c, 11, 84, 64
15, 62280, Note_on_c, 11, 72, 60
15, 62400, Note_off_c, 11, 72, 64
15, 62400, Note_on_c, 11, 77, 60
15, 62635, Note_off_c, 11, 77, 64
15, 62640, Note_on_c, 11, 79, 60
15, 62760, Note_off_c, 11, 79, 64
15, 62760, Note_on_c, 11, 80, 60
15, 62875, Note_off_c, 11, 80, 64
15, 62880, Note_on_c, 11, 82, 60
15, 62910, Note_off_c, 11, 82, 64
15, 62910, Note_on_c, 11, 80, 60
15, 62940, Note_off_c, 11, 80, 64
15, 62940, Note_on_c, 11, 82, 60
15, 62970, Note_off_c, 11, 82, 64
15, 62970, Note_on_c, 11, 80, 60
15, 63000, Note_off_c, 11, 80, 64
15, 63000, Note_on_c, 11, 82, 60
15, 63030, Note_off_c, 11, 82, 64
15, 63030, Note_on_c, 11, 80, 60
15, 63060, Note_off_c, 11, 80, 64
15, 63060, Note_on_c, 11, 82, 60
15, 63090, Note_off_c, 11, 82, 64
15, 63090, Note_on_c, 11, 80, 60
15, 63120, Note_off_c, 11, 80, 64
15, 63120, Note_on_c, 11, 79, 60
15, 63240, Note_off_c, 11, 79, 64
15, 63240, Note_on_c, 11, 80, 60
15, 63360, Note_off_c, 11, 80, 64
15, 63360, Note_on_c, 11, 79, 60
15, 63595, Note_off_c, 11, 79, 64
15, 63600, Note_on_c, 11, 74, 60
15, 63720, Note_off_c, 11, 74, 64
15, 63720, Note_on_c, 11, 62, 60
15, 63840, Note_off_c, 11, 62, 64
15, 63840, Note_on_c, 11, 67, 60
15, 64075, Note_off_c, 11, 67, 64
15, 64080, Note_on_c, 11, 69, 60
15, 64200, Note_off_c, 11, 69, 64
15, 64200, Note_on_c, 11, 71, 60
15, 64315, Note_off_c, 11, 71, 64
15, 64320, Note_on_c, 11, 71, 60
15, 64350, Note_off_c, 11, 71, 64
15, 64350, Note_on_c, 11, 72, 60
15, 64380, Note_off_c, 11, 72, 64
15, 64380, Note_on_c, 11, 71, 60
15, 64410, Note_off_c, 11, 71, 64
15, 64410, Note_on_c, 11, 72, 60
15, 64440, Note_off_c, 11, 72, 64
15, 64440, Note_on_c, 11, 71, 60
15, 64470, Note_off_c, 11, 71, 64
15, 64470, Note_on_c, 11, 72, 60
15, 64500, Note_off_c, 11, 72, 64
15, 64500, Note_on_c, 11, 71, 60
15, 64530, Note_off_c, 11, 71, 64
15, 64530, Note_on_c, 11, 72, 60
15, 64560, Note_off_c, 11, 72, 64
15, 64560, Note_on_c, 11, 71, 60
15, 64590, Note_off_c, 11, 71, 64
15, 64590, Note_on_c, 11, 72, 60
15, 64620, Note_off_c, 11, 72, 64
15, 64620, Note_on_c, 11, 71, 60
15, 64650, Note_off_c, 11, 71, 64
15, 64650, Note_on_c, 11, 72, 60
15, 64680, Note_off_c, 11, 72, 64
15, 64680, Note_on_c, 11, 71, 60
15, 64710, Note_off_c, 11, 71, 64
15, 64710, Note_on_c, 11, 72, 60
15, 64740, Note_off_c, 11, 72, 64
15, 64740, Note_on_c, 11, 69, 60
15, 64770, Note_off_c, 11, 69, 64
15, 64770, Note_on_c, 11, 71, 60
15, 64800, Note_off_c, 11, 71, 64
15, 64800, Note_on_c, 11, 72, 60
15, 65035, Note_off_c, 11, 72, 64
15, 65040, Note_on_c, 11, 79, 60
15, 65160, Note_off_c, 11, 79, 64
15, 65160, Note_on_c, 11, 67, 60
15, 65280, Note_off_c, 11, 67, 64
15, 65280, Note_on_c, 11, 72, 60
15, 65515, Note_off_c, 11, 72, 64
15, 65520, Note_on_c, 11, 74, 60
15, 65760, Note_off_c, 11, 74, 64
15, 65760, Note_on_c, 11, 75, 60
15, 65995, Note_off_c, 11, 75, 64
15, 66000, Note_on_c, 11, 74, 60
15, 66120, Note_off_c, 11, 74, 64
15, 66120, Note_on_c, 11, 77, 60
15, 66240, Note_off_c, 11, 77, 64
15, 66240, Note_on_c, 11, 75, 60
15, 66475, Note_off_c, 11, 75, 64
15, 66480, Note_on_c, 11, 84, 60
15, 66600, Note_off_c, 11, 84, 64
15, 66600, Note_on_c, 11, 72, 60
15, 66720, Note_off_c, 11, 72, 64
15, 66720, Note_on_c, 11, 77, 60
15, 66955, Note_off_c, 11, 77, 64
15, 66960, Note_on_c, 11, 79, 60
15, 67200, Note_off_c, 11, 79, 64
15, 67200, Note_on_c, 11, 80, 60
15, 67435, Note_off_c, 11, 80, 64
15, 67440, Note_on_c, 11, 77, 60
15, 67915, Note_off_c, 11, 77, 64
15, 67920, Note_on_c, 11, 79, 60
15, 68040, Note_off_c, 11, 79, 64
15, 68040, Note_on_c, 11, 74, 60
15, 68160, Note_off_c, 11, 74, 64
15, 68160, Note_on_c, 11, 75, 60
15, 68520, Note_off_c, 11, 75, 64
15, 68520, Note_on_c, 11, 77, 60
15, 68635, Note_off_c, 11, 77, 64
15, 68640, Note_on_c, 11, 74, 60
15, 68700, Note_off_c, 11, 74, 64
15, 68700, Note_on_c, 11, 75, 60
15, 68760, Note_off_c, 11, 75, 64
15, 68760, Note_on_c, 11, 74, 60
15, 68820, Note_off_c, 11, 74, 64
15, 68820, Note_on_c, 11, 75, 60
15, 68880, Note_off_c, 11, 75, 64
15, 68880, Note_on_c, 11, 74, 60
15, 69000, Note_off_c, 11, 74, 64
15, 69000, Note_on_c, 11, 75, 60
15, 69120, Note_off_c, 11, 75, 64
15, 69120, Note_on_c, 11, 72, 60
15, 69520, Note_off_c, 11, 72, 64
15, 70200, Note_on_c, 11, 69, 60
15, 70320, Note_off_c, 11, 69, 64
15, 70320, Note_on_c, 11, 71, 60
15, 70440, Note_off_c, 11, 71, 64
15, 70440, Note_on_c, 11, 72, 60
15, 70555, Note_off_c, 11, 72, 64
15, 70560, Note_on_c, 11, 71, 60
15, 70960, Note_off_c, 11, 71, 64
15, 71640, Note_on_c, 11, 75, 60
15, 71760, Note_off_c, 11, 75, 64
15, 71760, Note_on_c, 11, 77, 60
15, 71880, Note_off_c, 11, 77, 64
15, 71880, Note_on_c, 11, 79, 60
15, 71995, Note_off_c, 11, 79, 64
15, 72000, Note_on_c, 11, 80, 60
15, 72400, Note_off_c, 11, 80, 64
15, 73080, Note_on_c, 11, 79, 60
15, 73200, Note_off_c, 11, 79, 64
15, 73200, Note_on_c, 11, 81, 60
15, 73320, Note_off_c, 11, 81, 64
15, 73320, Note_on_c, 11, 83, 60
15, 73435, Note_off_c, 11, 83, 64
15, 73440, Note_on_c, 11, 84, 60
15, 73840, Note_off_c, 11, 84, 64
15, 74520, Note_on_c, 11, 74, 60
15, 74640, Note_off_c, 11, 74, 64
15, 74640, Note_on_c, 11, 75, 60
15, 74760, Note_off_c, 11, 75, 64
15, 74760, Note_on_c, 11, 77, 60
15, 74875, Note_off_c, 11, 77, 64
15, 74880, Note_on_c, 11, 71, 60
15, 75280, Note_off_c, 11, 71, 64
15, 75960, Note_on_c, 11, 63, 60
15, 76080, Note_off_c, 11, 63, 64
15, 76080, Note_on_c, 11, 65, 60
15, 76200, Note_off_c, 11, 65, 64
15, 76200, Note_on_c, 11, 67, 60
15, 76315, Note_off_c, 11, 67, 64
15, 76320, Note_on_c, 11, 63, 60
15, 76720, Note_off_c, 11, 63, 64
15, 77400, Note_on_c, 11, 71, 60
15, 77520, Note_off_c, 11, 71, 64
15, 77520, Note_on_c, 11, 72, 60
15, 77640, Note_off_c, 11, 72, 64
15, 77640, Note_on_c, 11, 74, 60
15, 77755, Note_off_c, 11, 74, 64
15, 77760, Note_on_c, 11, 75, 60
15, 78160, Note_off_c, 11, 75, 64
15, 78840, Note_on_c, 11, 71, 60
15, 78960, Note_off_c, 11, 71, 64
15, 78960, Note_on_c, 11, 72, 60
15, 79080, Note_off_c, 11, 72, 64
15, 79080, Note_on_c, 11, 74, 60
15, 79200, Note_off_c, 11, 74, 64
15, 79200, Note_on_c, 11, 75, 60
15, 79315, Note_off_c, 11, 75, 64
15, 79320, Note_on_c, 11, 79, 60
15, 79440, Note_off_c, 11, 79, 64
15, 79440, Note_on_c, 11, 77, 60
15, 79560, Note_off_c, 11, 77, 64
15, 79560, Note_on_c, 11, 75, 60
15, 79675, Note_off_c, 11, 75, 64
15, 79680, Note_on_c, 11, 74, 60
15, 80640, Note_off_c, 11, 74, 64
15, 80640, Note_on_c, 11, 72, 60
15, 80755, Note_off_c, 11, 72, 64
15, 80760, Note_on_c, 11, 72, 60
15, 80880, Note_off_c, 11, 72, 64
15, 80880, Note_on_c, 11, 70, 60
15, 81000, Note_off_c, 11, 70, 64
15, 81000, Note_on_c, 11, 68, 60
15, 81115, Note_off_c, 11, 68, 64
15, 81120, Note_on_c, 11, 67, 60
15, 81240, Note_off_c, 11, 67, 64
15, 81240, Note_on_c, 11, 68, 60
15, 81360, Note_off_c, 11, 68, 64
15, 81360, Note_on_c, 11, 67, 60
15, 81480, Note_off_c, 11, 67, 64
15, 81480, Note_on_c, 11, 65, 60
15, 81595, Note_off_c, 11, 65, 64
15, 81600, Note_on_c, 11, 63, 60
15, 82000, Note_off_c, 11, 63, 64
15, 82200, Note_on_c, 11, 79, 60
15, 82320, Note_off_c, 11, 79, 64
15, 82320, Note_on_c, 11, 77, 60
15, 82440, Note_off_c, 11, 77, 64
15, 82440, Note_on_c, 11, 75, 60
15, 82555, Note_off_c, 11, 75, 64
15, 82560, Note_on_c, 11, 74, 60
15, 82680, Note_off_c, 11, 74, 64
15, 82680, Note_on_c, 11, 75, 60
15, 82800, Note_off_c, 11, 75, 64
15, 82800, Note_on_c, 11, 74, 60
15, 82920, Note_off_c, 11, 74, 64
15, 82920, Note_on_c, 11, 75, 60
15, 83035, Note_off_c, 11, 75, 64
15, 83040, Note_on_c, 11, 72, 60
15, 83635, Note_off_c, 11, 72, 64
15, 83640, Note_on_c, 11, 82, 60
15, 83760, Note_off_c, 11, 82, 64
15, 83760, Note_on_c, 11, 80, 60
15, 83880, Note_off_c, 11, 80, 64
15, 83880, Note_on_c, 11, 79, 60
15, 83995, Note_off_c, 11, 79, 64
15, 84000, Note_on_c, 11, 77, 60
15, 84120, Note_off_c, 11, 77, 64
15, 84120, Note_on_c, 11, 75, 60
15, 84240, Note_off_c, 11, 75, 64
15, 84240, Note_on_c, 11, 74, 60
15, 84360, Note_off_c, 11, 74, 64
15, 84360, Note_on_c, 11, 72, 60
15, 84475, Note_off_c, 11, 72, 64
15, 84480, Note_on_c, 11, 71, 60
15, 84960, Note_off_c, 11, 71, 64
15, 84960, Note_on_c, 11, 72, 60
15, 85075, Note_off_c, 11, 72, 64
15, 85080, Note_on_c, 11, 77, 60
15, 85200, Note_off_c, 11, 77, 64
15, 85200, Note_on_c, 11, 75, 60
15, 85320, Note_off_c, 11, 75, 64
15, 85320, Note_on_c, 11, 74, 60
15, 85435, Note_off_c, 11, 74, 64
15, 85440, Note_on_c, 11, 72, 60
15, 85560, Note_off_c, 11, 72, 64
15, 85560, Note_on_c, 11, 70, 60
15, 85680, Note_off_c, 11, 70, 64
15, 85680, Note_on_c, 11, 68, 60
15, 85800, Note_off_c, 11, 68, 64
15, 85800, Note_on_c, 11, 67, 60
15, 85915, Note_off_c, 11, 67, 64
15, 85920, Note_on_c, 11, 68, 60
15, 86400, Note_off_c, 11, 68, 64
15, 86400, Note_on_c, 11, 67, 60
15, 86515, Note_off_c, 11, 67, 64
15, 86520, Note_on_c, 11, 79, 60
15, 86640, Note_off_c, 11, 79, 64
15, 86640, Note_on_c, 11, 77, 60
15, 86760, Note_off_c, 11, 77, 64
15, 86760, Note_on_c, 11, 75, 60
15, 86875, Note_off_c, 11, 75, 64
15, 86880, Note_on_c, 11, 74, 60
15, 87000, Note_off_c, 11, 74, 64
15, 87000, Note_on_c, 11, 75, 60
15, 87120, Note_off_c, 11, 75, 64
15, 87120, Note_on_c, 11, 74, 60
15, 87240, Note_off_c, 11, 74, 64
15, 87240, Note_on_c, 11, 75, 60
15, 87355, Note_off_c, 11, 75, 64
15, 87360, Note_on_c, 11, 77, 60
15, 87955, Note_off_c, 11, 77, 64
15, 87960, Note_on_c, 11, 75, 60
15, 88080, Note_off_c, 11, 75, 64
15, 88080, Note_on_c, 11, 74, 60
15, 88200, Note_off_c, 11, 74, 64
15, 88200, Note_on_c, 11, 72, 60
15, 88315, Note_off_c, 11, 72, 64
15, 88320, Note_on_c, 11, 71, 60
15, 88440, Note_off_c, 11, 71, 64
15, 88440, Note_on_c, 11, 69, 60
15, 88560, Note_off_c, 11, 69, 64
15, 88560, Note_on_c, 11, 71, 60
15, 88680, Note_off_c, 11, 71, 64
15, 88680, Note_on_c, 11, 72, 60
15, 88795, Note_off_c, 11, 72, 64
15, 88800, Note_on_c, 11, 74, 60
15, 89395, Note_off_c, 11, 74, 64
15, 89400, Note_on_c, 11, 77, 60
15, 89520, Note_off_c, 11, 77, 64
15, 89520, Note_on_c, 11, 75, 60
15, 89640, Note_off_c, 11, 75, 64
15, 89640, Note_on_c, 11, 74, 60
15, 89755, Note_off_c, 11, 74, 64
15, 89760, Note_on_c, 11, 72, 60
15, 90120, Note_off_c, 11, 72, 64
15, 90120, Note_on_c, 11, 70, 60
15, 90235, Note_off_c, 11, 70, 64
15, 90240, Note_on_c, 11, 68, 60
15, 90835, Note_off_c, 11, 68, 64
15, 90840, Note_on_c, 11, 68, 60
15, 90960, Note_off_c, 11, 68, 64
15, 90960, Note_on_c, 11, 67, 60
15, 91080, Note_off_c, 11, 67, 64
15, 91080, Note_on_c, 11, 65, 60
15, 91195, Note_off_c, 11, 65, 64
15, 91200, Note_on_c, 11, 63, 60
15, 91260, Note_off_c, 11, 63, 64
15, 91260, Note_on_c, 11, 65, 60
15, 91320, Note_off_c, 11, 65, 64
15, 91320, Note_on_c, 11, 67, 60
15, 91435, Note_off_c, 11, 67, 64
15, 91440, Note_on_c, 11, 65, 60
15, 91560, Note_off_c, 11, 65, 64
15, 91560, Note_on_c, 11, 67, 60
15, 91620, Note_off_c, 11, 67, 64
15, 91620, Note_on_c, 11, 68, 60
15, 91675, Note_off_c, 11, 68, 64
15, 91680, Note_on_c, 11, 62, 60
15, 91710, Note_off_c, 11, 62, 64
15, 91710, Note_on_c, 11, 63, 60
15, 91740, Note_off_c, 11, 63, 64
15, 91740, Note_on_c, 11, 62, 60
15, 91770, Note_off_c, 11, 62, 64
15, 91770, Note_on_c, 11, 63, 60
15, 91800, Note_off_c, 11, 63, 64
15, 91800, Note_on_c, 11, 62, 60
15, 91830, Note_off_c, 11, 62, 64
15, 91830, Note_on_c, 11, 63, 60
15, 91860, Note_off_c, 11, 63, 64
15, 91860, Note_on_c, 11, 62, 60
15, 91890, Note_off_c, 11, 62, 64
15, 91890, Note_on_c, 11, 63, 60
15, 91920, Note_off_c, 11, 63, 64
15, 91920, Note_on_c, 11, 62, 60
15, 91950, Note_off_c, 11, 62, 64
15, 91950, Note_on_c, 11, 63, 60
15, 91980, Note_off_c, 11, 63, 64
15, 91980, Note_on_c, 11, 62, 60
15, 92010, Note_off_c, 11, 62, 64
15, 92010, Note_on_c, 11, 63, 60
15, 92040, Note_off_c, 11, 63, 64
15, 92040, Note_on_c, 11, 62, 60
15, 92070, Note_off_c, 11, 62, 64
15, 92070, Note_on_c, 11, 63, 60
15, 92100, Note_off_c, 11, 63, 64
15, 92100, Note_on_c, 11, 60, 60
15, 92130, Note_off_c, 11, 60, 64
15, 92130, Note_on_c, 11, 62, 60
15, 92160, Note_off_c, 11, 62, 64
15, 92160, Note_on_c, 11, 60, 60
15, 92560, Note_off_c, 11, 60, 64
15, 94200, Note_on_c, 11, 74, 60
15, 94320, Note_off_c, 11, 74, 64
15, 94320, Note_on_c, 11, 75, 60
15, 94440, Note_off_c, 11, 75, 64
15, 94440, Note_on_c, 11, 77, 60
15, 94555, Note_off_c, 11, 77, 64
15, 94560, Note_on_c, 11, 79, 60
15, 94680, Note_off_c, 11, 79, 64
15, 94680, Note_on_c, 11, 77, 60
15, 94800, Note_off_c, 11, 77, 64
15, 94800, Note_on_c, 11, 75, 60
15, 94920, Note_off_c, 11, 75, 64
15, 94920, Note_on_c, 11, 74, 60
15, 95035, Note_off_c, 11, 74, 64
15, 95040, Note_on_c, 11, 72, 60
15, 95160, Note_off_c, 11, 72, 64
15, 95160, Note_on_c, 11, 73, 60
15, 95280, Note_off_c, 11, 73, 64
15, 95280, Note_on_c, 11, 72, 60
15, 95400, Note_off_c, 11, 72, 64
15, 95400, Note_on_c, 11, 70, 60
15, 95520, Note_off_c, 11, 70, 64
15, 95520, Note_on_c, 11, 68, 60
15, 95635, Note_off_c, 11, 68, 64
15, 95640, Note_on_c, 11, 77, 60
15, 95760, Note_off_c, 11, 77, 64
15, 95760, Note_on_c, 11, 79, 60
15, 95880, Note_off_c, 11, 79, 64
15, 95880, Note_on_c, 11, 80, 60
15, 95995, Note_off_c, 11, 80, 64
15, 96000, Note_on_c, 11, 71, 60
15, 96400, Note_off_c, 11, 71, 64
15, 96600, Note_on_c, 11, 72, 60
15, 96720, Note_off_c, 11, 72, 64
15, 96720, Note_on_c, 11, 74, 60
15, 96840, Note_off_c, 11, 74, 64
15, 96840, Note_on_c, 11, 75, 60
15, 96955, Note_off_c, 11, 75, 64
15, 96960, Note_on_c, 11, 77, 60
15, 97080, Note_off_c, 11, 77, 64
15, 97080, Note_on_c, 11, 79, 60
15, 97200, Note_off_c, 11, 79, 64
15, 97200, Note_on_c, 11, 77, 60
15, 97320, Note_off_c, 11, 77, 64
15, 97320, Note_on_c, 11, 75, 60
15, 97440, Note_off_c, 11, 75, 64
15, 97440, Note_on_c, 11, 74, 60
15, 97555, Note_off_c, 11, 74, 64
15, 97560, Note_on_c, 11, 81, 60
15, 97680, Note_off_c, 11, 81, 64
15, 97680, Note_on_c, 11, 83, 60
15, 97800, Note_off_c, 11, 83, 64
15, 97800, Note_on_c, 11, 84, 60
15, 97915, Note_off_c, 11, 84, 64
15, 97920, Note_on_c, 11, 83, 60
15, 98040, Note_off_c, 11, 83, 64
15, 98040, Note_on_c, 11, 84, 60
15, 98160, Note_off_c, 11, 84, 64
15, 98160, Note_on_c, 11, 83, 60
15, 98280, Note_off_c, 11, 83, 64
15, 98280, Note_on_c, 11, 81, 60
15, 98395, Note_off_c, 11, 81, 64
15, 98400, Note_on_c, 11, 79, 60
15, 98635, Note_off_c, 11, 79, 64
15, 98640, Note_on_c, 11, 77, 60
15, 98760, Note_off_c, 11, 77, 64
15, 98760, Note_on_c, 11, 75, 60
15, 98875, Note_off_c, 11, 75, 64
15, 98880, Note_on_c, 11, 77, 60
15, 99475, Note_off_c, 11, 77, 64
15, 99480, Note_on_c, 11, 80, 60
15, 99600, Note_off_c, 11, 80, 64
15, 99600, Note_on_c, 11, 79, 60
15, 99720, Note_off_c, 11, 79, 64
15, 99720, Note_on_c, 11, 77, 60
15, 99835, Note_off_c, 11, 77, 64
15, 99840, Note_on_c, 11, 75, 60
15, 99960, Note_off_c, 11, 75, 64
15, 99960, Note_on_c, 11, 79, 60
15, 100080, Note_off_c, 11, 79, 64
15, 100080, Note_on_c, 11, 77, 60
15, 100200, Note_off_c, 11, 77, 64
15, 100200, Note_on_c, 11, 75, 60
15, 100315, Note_off_c, 11, 75, 64
15, 100320, Note_on_c, 11, 74, 60
15, 100915, Note_off_c, 11, 74, 64
15, 100920, Note_on_c, 11, 77, 60
15, 101040, Note_off_c, 11, 77, 64
15, 101040, Note_on_c, 11, 75, 60
15, 101160, Note_off_c, 11, 75, 64
15, 101160, Note_on_c, 11, 74, 60
15, 101275, Note_off_c, 11, 74, 64
15, 101280, Note_on_c, 11, 72, 60
15, 101400, Note_off_c, 11, 72, 64
15, 101400, Note_on_c, 11, 75, 60
15, 101520, Note_off_c, 11, 75, 64
15, 101520, Note_on_c, 11, 74, 60
15, 101640, Note_off_c, 11, 74, 64
15, 101640, Note_on_c, 11, 72, 60
15, 101755, Note_off_c, 11, 72, 64
15, 101760, Note_on_c, 11, 73, 60
15, 101880, Note_off_c, 11, 73, 64
15, 101880, Note_on_c, 11, 75, 60
15, 102000, Note_off_c, 11, 75, 64
15, 102000, Note_on_c, 11, 73, 60
15, 102120, Note_off_c, 11, 73, 64
15, 102120, Note_on_c, 11, 72, 60
15, 102235, Note_off_c, 11, 72, 64
15, 102240, Note_on_c, 11, 71, 60
15, 102360, Note_off_c, 11, 71, 64
15, 102360, Note_on_c, 11, 72, 60
15, 102475, Note_off_c, 11, 72, 64
15, 102480, Note_on_c, 11, 74, 60
15, 102835, Note_off_c, 11, 74, 64
15, 102840, Note_on_c, 11, 75, 61
15, 102960, Note_off_c, 11, 75, 64
15, 102960, Note_on_c, 11, 74, 61
15, 103075, Note_off_c, 11, 74, 64
15, 103080, Note_on_c, 11, 72, 61
15, 103435, Note_off_c, 11, 72, 64
15, 103440, Note_on_c, 11, 71, 62
15, 103680, Note_off_c, 11, 71, 64
15, 103680, Note_on_c, 11, 72, 63
15, 104080, Note_off_c, 11, 72, 64
15, 105240, Note_on_c, 11, 67, 75
15, 105360, Note_off_c, 11, 67, 64
15, 105360, Note_on_c, 11, 71, 75
15, 105480, Note_off_c, 11, 71, 64
15, 105480, Note_on_c, 11, 67, 75
15, 105595, Note_off_c, 11, 67, 64
15, 105600, Note_on_c, 11, 74, 75
15, 106000, Note_off_c, 11, 74, 64
15, 106080, Note_on_c, 11, 75, 75
15, 106960, Note_off_c, 11, 75, 64
15, 107160, Note_on_c, 11, 73, 75
15, 107280, Note_off_c, 11, 73, 64
15, 107280, Note_on_c, 11, 77, 75
15, 107400, Note_off_c, 11, 77, 64
15, 107400, Note_on_c, 11, 73, 75
15, 107515, Note_off_c, 11, 73, 64
15, 107520, Note_on_c, 11, 73, 75
15, 108400, Note_off_c, 11, 73, 64
15, 108480, Note_on_c, 11, 72, 75
15, 108960, Note_off_c, 11, 72, 64
15, 108960, Note_on_c, 11, 74, 75
15, 109360, Note_off_c, 11, 74, 64
15, 109440, Note_on_c, 11, 71, 75
15, 109840, Note_off_c, 11, 71, 64
15, 111480, Note_on_c, 11, 72, 75
15, 111600, Note_off_c, 11, 72, 64
15, 111600, Note_on_c, 11, 75, 75
15, 111720, Note_off_c, 11, 75, 64
15, 111720, Note_on_c, 11, 72, 75
15, 111835, Note_off_c, 11, 72, 64
15, 111840, Note_on_c, 11, 77, 75
15, 111960, Note_off_c, 11, 77, 64
15, 111960, Note_on_c, 11, 74, 75
15, 112080, Note_off_c, 11, 74, 64
15, 112080, Note_on_c, 11, 77, 75
15, 112200, Note_off_c, 11, 77, 64
15, 112200, Note_on_c, 11, 74, 75
15, 112315, Note_off_c, 11, 74, 64
15, 112320, Note_on_c, 11, 75, 75
15, 112720, Note_off_c, 11, 75, 64
15, 112920, Note_on_c, 11, 72, 75
15, 113040, Note_off_c, 11, 72, 64
15, 113040, Note_on_c, 11, 75, 75
15, 113160, Note_off_c, 11, 75, 64
15, 113160, Note_on_c, 11, 72, 75
15, 113275, Note_off_c, 11, 72, 64
15, 113280, Note_on_c, 11, 77, 75
15, 113400, Note_off_c, 11, 77, 64
15, 113400, Note_on_c, 11, 74, 75
15, 113520, Note_off_c, 11, 74, 64
15, 113520, Note_on_c, 11, 77, 75
15, 113640, Note_off_c, 11, 77, 64
15, 113640, Note_on_c, 11, 74, 75
15, 113755, Note_off_c, 11, 74, 64
15, 113760, Note_on_c, 11, 75, 75
15, 114160, Note_off_c, 11, 75, 64
15, 114360, Note_on_c, 11, 72, 75
15, 114480, Note_off_c, 11, 72, 64
15, 114480, Note_on_c, 11, 75, 75
15, 114600, Note_off_c, 11, 75, 64
15, 114600, Note_on_c, 11, 72, 75
15, 114715, Note_off_c, 11, 72, 64
15, 114720, Note_on_c, 11, 77, 75
15, 114840, Note_off_c, 11, 77, 64
15, 114840, Note_on_c, 11, 74, 76
15, 114960, Note_off_c, 11, 74, 64
15, 114960, Note_on_c, 11, 77, 77
15, 115080, Note_off_c, 11, 77, 64
15, 115080, Note_on_c, 11, 74, 78
15, 115200, Note_off_c, 11, 74, 64
15, 115200, Note_on_c, 11, 75, 79
15, 115315, Note_off_c, 11, 75, 64
15, 115320, Note_on_c, 11, 84, 80
15, 115440, Note_off_c, 11, 84, 64
15, 115440, Note_on_c, 11, 82, 81
15, 115560, Note_off_c, 11, 82, 64
15, 115560, Note_on_c, 11, 80, 82
15, 115675, Note_off_c, 11, 80, 64
15, 115680, Note_on_c, 11, 79, 84
15, 115800, Note_off_c, 11, 79, 64
15, 115800, Note_on_c, 11, 77, 86
15, 115920, Note_off_c, 11, 77, 64
15, 115920, Note_on_c, 11, 75, 88
15, 116040, Note_off_c, 11, 75, 64
15, 116040, Note_on_c, 11, 74, 90
15, 116155, Note_off_c, 11, 74, 64
15, 116160, Note_on_c, 11, 72, 92
15, 116280, Note_off_c, 11, 72, 64
15, 116280, Note_on_c, 11, 75, 92
15, 116400, Note_off_c, 11, 75, 64
15, 116400, Note_on_c, 11, 74, 92
15, 116520, Note_off_c, 11, 74, 64
15, 116520, Note_on_c, 11, 72, 92
15, 116635, Note_off_c, 11, 72, 64
15, 116640, Note_on_c, 11, 71, 92
15, 116760, Note_off_c, 11, 71, 64
15, 116760, Note_on_c, 11, 72, 92
15, 116880, Note_off_c, 11, 72, 64
15, 116880, Note_on_c, 11, 71, 92
15, 117000, Note_off_c, 11, 71, 64
15, 117000, Note_on_c, 11, 69, 92
15, 117115, Note_off_c, 11, 69, 64
15, 117120, Note_on_c, 11, 67, 92
15, 117240, Note_off_c, 11, 67, 64
15, 117240, Note_on_c, 11, 65, 92
15, 117360, Note_off_c, 11, 65, 64
15, 117360, Note_on_c, 11, 63, 92
15, 117480, Note_off_c, 11, 63, 64
15, 117480, Note_on_c, 11, 62, 92
15, 117600, Note_off_c, 11, 62, 64
15, 117600, Note_on_c, 11, 60, 92
15, 117715, Note_off_c, 11, 60, 64
15, 117720, Note_on_c, 11, 82, 92
15, 117840, Note_off_c, 11, 82, 64
15, 117840, Note_on_c, 11, 80, 92
15, 117960, Note_off_c, 11, 80, 64
15, 117960, Note_on_c, 11, 79, 92
15, 118075, Note_off_c, 11, 79, 64
15, 118080, Note_on_c, 11, 80, 92
15, 118200, Note_off_c, 11, 80, 64
15, 118200, Note_on_c, 11, 82, 92
15, 118320, Note_off_c, 11, 82, 64
15, 118320, Note_on_c, 11, 80, 92
15, 118440, Note_off_c, 11, 80, 64
15, 118440, Note_on_c, 11, 79, 92
15, 118555, Note_off_c, 11, 79, 64
15, 118560, Note_on_c, 11, 77, 92
15, 118680, Note_off_c, 11, 77, 64
15, 118680, Note_on_c, 11, 75, 92
15, 118800, Note_off_c, 11, 75, 64
15, 118800, Note_on_c, 11, 74, 92
15, 118920, Note_off_c, 11, 74, 64
15, 118920, Note_on_c, 11, 72, 92
15, 119035, Note_off_c, 11, 72, 64
15, 119040, Note_on_c, 11, 71, 92
15, 119160, Note_off_c, 11, 71, 64
15, 119160, Note_on_c, 11, 74, 92
15, 119280, Note_off_c, 11, 74, 64
15, 119280, Note_on_c, 11, 72, 92
15, 119400, Note_off_c, 11, 72, 64
15, 119400, Note_on_c, 11, 71, 92
15, 119515, Note_off_c, 11, 71, 64
15, 119520, Note_on_c, 11, 72, 92
15, 119640, Note_off_c, 11, 72, 64
15, 119640, Note_on_c, 11, 74, 92
15, 119760, Note_off_c, 11, 74, 64
15, 119760, Note_on_c, 11, 72, 92
15, 119880, Note_off_c, 11, 72, 64
15, 119880, Note_on_c, 11, 70, 92
15, 119995, Note_off_c, 11, 70, 64
15, 120000, Note_on_c, 11, 68, 92
15, 120120, Note_off_c, 11, 68, 64
15, 120120, Note_on_c, 11, 67, 92
15, 120240, Note_off_c, 11, 67, 64
15, 120240, Note_on_c, 11, 65, 92
15, 120360, Note_off_c, 11, 65, 64
15, 120360, Note_on_c, 11, 63, 92
15, 120475, Note_off_c, 11, 63, 64
15, 120480, Note_on_c, 11, 62, 92
15, 120600, Note_off_c, 11, 62, 64
15, 120600, Note_on_c, 11, 63, 92
15, 120720, Note_off_c, 11, 63, 64
15, 120720, Note_on_c, 11, 62, 92
15, 120840, Note_off_c, 11, 62, 64
15, 120840, Note_on_c, 11, 60, 92
15, 120955, Note_off_c, 11, 60, 64
15, 120960, Note_on_c, 11, 59, 92
15, 121080, Note_off_c, 11, 59, 64
15, 121080, Note_on_c, 11, 60, 92
15, 121200, Note_off_c, 11, 60, 64
15, 121200, Note_on_c, 11, 59, 92
15, 121320, Note_off_c, 11, 59, 64
15, 121320, Note_on_c, 11, 57, 92
15, 121435, Note_off_c, 11, 57, 64
15, 121440, Note_on_c, 11, 55, 92
15, 121560, Note_off_c, 11, 55, 64
15, 121560, Note_on_c, 11, 57, 92
15, 121680, Note_off_c, 11, 57, 64
15, 121680, Note_on_c, 11, 59, 92
15, 121800, Note_off_c, 11, 59, 64
15, 121800, Note_on_c, 11, 60, 92
15, 121915, Note_off_c, 11, 60, 64
15, 121920, Note_on_c, 11, 59, 92
15, 122040, Note_off_c, 11, 59, 64
15, 122040, Note_on_c, 11, 62, 92
15, 122160, Note_off_c, 11, 62, 64
15, 122160, Note_on_c, 11, 60, 92
15, 122280, Note_off_c, 11, 60, 64
15, 122280, Note_on_c, 11, 59, 92
15, 122395, Note_off_c, 11, 59, 64
15, 122400, Note_on_c, 11, 60, 92
15, 122520, Note_off_c, 11, 60, 64
15, 122520, Note_on_c, 11, 62, 92
15, 122640, Note_off_c, 11, 62, 64
15, 122640, Note_on_c, 11, 63, 92
15, 122760, Note_off_c, 11, 63, 64
15, 122760, Note_on_c, 11, 65, 92
15, 122875, Note_off_c, 11, 65, 64
15, 122880, Note_on_c, 11, 67, 92
15, 123000, Note_off_c, 11, 67, 64
15, 123000, Note_on_c, 11, 69, 92
15, 123120, Note_off_c, 11, 69, 64
15, 123120, Note_on_c, 11, 71, 92
15, 123240, Note_off_c, 11, 71, 64
15, 123240, Note_on_c, 11, 72, 92
15, 123355, Note_off_c, 11, 72, 64
15, 123360, Note_on_c, 11, 74, 92
15, 123480, Note_off_c, 11, 74, 64
15, 123480, Note_on_c, 11, 77, 92
15, 123600, Note_off_c, 11, 77, 64
15, 123600, Note_on_c, 11, 75, 92
15, 123720, Note_off_c, 11, 75, 64
15, 123720, Note_on_c, 11, 74, 92
15, 123835, Note_off_c, 11, 74, 64
15, 123840, Note_on_c, 11, 75, 92
15, 123960, Note_off_c, 11, 75, 64
15, 123960, Note_on_c, 11, 79, 92
15, 124080, Note_off_c, 11, 79, 64
15, 124080, Note_on_c, 11, 84, 92
15, 124200, Note_off_c, 11, 84, 64
15, 124200, Note_on_c, 11, 82, 92
15, 124315, Note_off_c, 11, 82, 64
15, 124320, Note_on_c, 11, 80, 92
15, 124440, Note_off_c, 11, 80, 64
15, 124440, Note_on_c, 11, 79, 92
15, 124560, Note_off_c, 11, 79, 64
15, 124560, Note_on_c, 11, 77, 92
15, 124680, Note_off_c, 11, 77, 64
15, 124680, Note_on_c, 11, 75, 92
15, 124795, Note_off_c, 11, 75, 64
15, 124800, Note_on_c, 11, 74, 92
15, 124920, Note_off_c, 11, 74, 64
15, 124920, Note_on_c, 11, 75, 92
15, 125040, Note_off_c, 11, 75, 64
15, 125040, Note_on_c, 11, 74, 92
15, 125160, Note_off_c, 11, 74, 64
15, 125160, Note_on_c, 11, 72, 92
15, 125275, Note_off_c, 11, 72, 64
15, 125280, Note_on_c, 11, 71, 92
15, 125400, Note_off_c, 11, 71, 64
15, 125400, Note_on_c, 11, 72, 92
15, 125520, Note_off_c, 11, 72, 64
15, 125520, Note_on_c, 11, 74, 92
15, 125640, Note_off_c, 11, 74, 64
15, 125640, Note_on_c, 11, 75, 92
15, 125755, Note_off_c, 11, 75, 64
15, 125760, Note_on_c, 11, 74, 92
15, 125880, Note_off_c, 11, 74, 64
15, 125880, Note_on_c, 11, 72, 92
15, 126000, Note_off_c, 11, 72, 64
15, 126000, Note_on_c, 11, 71, 92
15, 126120, Note_off_c, 11, 71, 64
15, 126120, Note_on_c, 11, 69, 92
15, 126235, Note_off_c, 11, 69, 64
15, 126240, Note_on_c, 11, 67, 92
15, 126360, Note_off_c, 11, 67, 64
15, 126360, Note_on_c, 11, 68, 92
15, 126480, Note_off_c, 11, 68, 64
15, 126480, Note_on_c, 11, 67, 92
15, 126600, Note_off_c, 11, 67, 64
15, 126600, Note_on_c, 11, 65, 92
15, 126715, Note_off_c, 11, 65, 64
15, 126720, Note_on_c, 11, 63, 75
15, 126840, Note_off_c, 11, 63, 64
15, 126840, Note_on_c, 11, 65, 75
15, 126960, Note_off_c, 11, 65, 64
15, 126960, Note_on_c, 11, 67, 75
15, 127080, Note_off_c, 11, 67, 64
15, 127080, Note_on_c, 11, 68, 75
15, 127195, Note_off_c, 11, 68, 64
15, 127200, Note_on_c, 11, 67, 60
15, 127320, Note_off_c, 11, 67, 64
15, 127320, Note_on_c, 11, 65, 60
15, 127440, Note_off_c, 11, 65, 64
15, 127440, Note_on_c, 11, 63, 60
15, 127560, Note_off_c, 11, 63, 64
15, 127560, Note_on_c, 11, 62, 60
15, 127675, Note_off_c, 11, 62, 64
15, 127680, Note_on_c, 11, 72, 45
15, 128080, Note_off_c, 11, 72, 64
15, 128160, Note_on_c, 11, 79, 45
15, 129000, Note_off_c, 11, 79, 64
15, 129120, Note_on_c, 11, 75, 45
15, 129520, Note_off_c, 11, 75, 64
15, 129600, Note_on_c, 11, 77, 45
15, 130440, Note_off_c, 11, 77, 64
15, 130560, Note_on_c, 11, 79, 45
15, 130960, Note_off_c, 11, 79, 64
15, 131040, Note_on_c, 11, 80, 45
15, 131880, Note_off_c, 11, 80, 64
15, 132000, Note_on_c, 11, 77, 45
15, 132400, Note_off_c, 11, 77, 64
15, 132480, Note_on_c, 11, 79, 45
15, 133320, Note_off_c, 11, 79, 64
15, 133440, Note_on_c, 11, 74, 45
15, 133840, Note_off_c, 11, 74, 64
15, 133920, Note_on_c, 11, 75, 45
15, 134760, Note_off_c, 11, 75, 64
15, 134880, Note_on_c, 11, 71, 45
15, 135280, Note_off_c, 11, 71, 64
15, 135360, Note_on_c, 11, 72, 45
15, 136200, Note_off_c, 11, 72, 64
15, 136320, Note_on_c, 11, 65, 45
15, 136720, Note_off_c, 11, 65, 64
15, 136800, Note_on_c, 11, 67, 45
15, 138160, Note_off_c, 11, 67, 64
15, 138240, Note_on_c, 11, 60, 45
15, 139080, Note_off_c, 11, 60, 64
15, 139200, Note_on_c, 11, 72, 45
15, 139600, Note_off_c, 11, 72, 64
15, 139680, Note_on_c, 11, 79, 45
15, 140520, Note_off_c, 11, 79, 64
15, 140640, Note_on_c, 11, 75, 45
15, 141040, Note_off_c, 11, 75, 64
15, 141120, Note_on_c, 11, 77, 45
15, 141960, Note_off_c, 11, 77, 64
15, 142080, Note_on_c, 11, 79, 45
15, 142480, Note_off_c, 11, 79, 64
15, 142560, Note_on_c, 11, 80, 45
15, 143280, Note_off_c, 11, 80, 64
15, 143280, Note_on_c, 11, 79, 45
15, 143515, Note_off_c, 11, 79, 64
15, 143520, Note_on_c, 11, 77, 45
15, 143920, Note_off_c, 11, 77, 64
15, 144000, Note_on_c, 11, 79, 45
15, 144840, Note_off_c, 11, 79, 64
15, 144960, Note_on_c, 11, 74, 45
15, 145360, Note_off_c, 11, 74, 64
15, 145440, Note_on_c, 11, 75, 45
15, 146280, Note_off_c, 11, 75, 64
15, 146400, Note_on_c, 11, 71, 45
15, 146800, Note_off_c, 11, 71, 64
15, 146880, Note_on_c, 11, 72, 45
15, 147720, Note_off_c, 11, 72, 64
15, 147840, Note_on_c, 11, 65, 45
15, 148240, Note_off_c, 11, 65, 64
15, 148320, Note_on_c, 11, 67, 45
15, 149640, Note_off_c, 11, 67, 64
15, 149760, Note_on_c, 11, 72, 45
15, 150600, Note_off_c, 11, 72, 64
15, 162240, Note_on_c, 11, 63, 45
15, 162640, Note_off_c, 11, 63, 64
15, 162720, Note_on_c, 11, 62, 45
15, 163560, Note_off_c, 11, 62, 64
15, 163680, Note_on_c, 11, 63, 45
15, 164080, Note_off_c, 11, 63, 64
15, 164160, Note_on_c, 11, 65, 45
15, 165000, Note_off_c, 11, 65, 64
15, 165120, Note_on_c, 11, 62, 45
15, 165520, Note_off_c, 11, 62, 64
15, 165600, Note_on_c, 11, 63, 45
15, 166440, Note_off_c, 11, 63, 64
15, 166560, Note_on_c, 11, 65, 45
15, 166960, Note_off_c, 11, 65, 64
15, 167040, Note_on_c, 11, 62, 45
15, 167880, Note_off_c, 11, 62, 64
15, 168000, Note_on_c, 11, 62, 45
15, 168400, Note_off_c, 11, 62, 64
15, 168480, Note_on_c, 11, 63, 45
15, 169320, Note_off_c, 11, 63, 64
15, 169440, Note_on_c, 11, 62, 45
15, 169840, Note_off_c, 11, 62, 64
15, 169920, Note_on_c, 11, 63, 45
15, 170760, Note_off_c, 11, 63, 64
15, 170880, Note_on_c, 11, 65, 45
15, 171280, Note_off_c, 11, 65, 64
15, 171360, Note_on_c, 11, 62, 45
15, 172680, Note_off_c, 11, 62, 64
15, 172800, Note_on_c, 11, 63, 63
15, 173640, Note_off_c, 11, 63, 64
15, 173760, Note_on_c, 11, 63, 75
15, 173840, Note_off_c, 11, 63, 64
15, 173880, Note_on_c, 11, 60, 75
15, 173960, Note_off_c, 11, 60, 64
15, 174000, Note_on_c, 11, 63, 75
15, 174080, Note_off_c, 11, 63, 64
15, 174120, Note_on_c, 11, 67, 75
15, 174200, Note_off_c, 11, 67, 64
15, 174240, Note_on_c, 11, 62, 75
15, 174320, Note_off_c, 11, 62, 64
15, 174360, Note_on_c, 11, 67, 75
15, 174440, Note_off_c, 11, 67, 64
15, 174480, Note_on_c, 11, 71, 75
15, 174560, Note_off_c, 11, 71, 64
15, 174600, Note_on_c, 11, 74, 75
15, 174680, Note_off_c, 11, 74, 64
15, 174720, Note_on_c, 11, 77, 75
15, 174800, Note_off_c, 11, 77, 64
15, 174840, Note_on_c, 11, 74, 75
15, 174920, Note_off_c, 11, 74, 64
15, 174960, Note_on_c, 11, 77, 75
15, 175040, Note_off_c, 11, 77, 64
15, 175080, Note_on_c, 11, 83, 75
15, 175160, Note_off_c, 11, 83, 64
15, 175200, Note_on_c, 11, 63, 75
15, 175280, Note_off_c, 11, 63, 64
15, 175320, Note_on_c, 11, 60, 75
15, 175400, Note_off_c, 11, 60, 64
15, 175440, Note_on_c, 11, 63, 75
15, 175520, Note_off_c, 11, 63, 64
15, 175560, Note_on_c, 11, 67, 75
15, 175640, Note_off_c, 11, 67, 64
15, 175680, Note_on_c, 11, 68, 75
15, 175760, Note_off_c, 11, 68, 64
15, 175800, Note_on_c, 11, 65, 75
15, 175880, Note_off_c, 11, 65, 64
15, 175920, Note_on_c, 11, 68, 75
15, 176000, Note_off_c, 11, 68, 64
15, 176040, Note_on_c, 11, 72, 75
15, 176120, Note_off_c, 11, 72, 64
15, 176160, Note_on_c, 11, 77, 75
15, 176240, Note_off_c, 11, 77, 64
15, 176280, Note_on_c, 11, 80, 75
15, 176360, Note_off_c, 11, 80, 64
15, 176400, Note_on_c, 11, 84, 75
15, 176480, Note_off_c, 11, 84, 64
15, 176520, Note_on_c, 11, 89, 75
15, 176600, Note_off_c, 11, 89, 64
15, 176640, Note_on_c, 11, 62, 75
15, 176720, Note_off_c, 11, 62, 64
15, 176760, Note_on_c, 11, 59, 75
15, 176840, Note_off_c, 11, 59, 64
15, 176880, Note_on_c, 11, 62, 75
15, 176960, Note_off_c, 11, 62, 64
15, 177000, Note_on_c, 11, 67, 75
15, 177080, Note_off_c, 11, 67, 64
15, 177120, Note_on_c, 11, 68, 75
15, 177200, Note_off_c, 11, 68, 64
15, 177240, Note_on_c, 11, 63, 75
15, 177320, Note_off_c, 11, 63, 64
15, 177360, Note_on_c, 11, 68, 75
15, 177440, Note_off_c, 11, 68, 64
15, 177480, Note_on_c, 11, 72, 75
15, 177560, Note_off_c, 11, 72, 64
15, 177600, Note_on_c, 11, 75, 75
15, 177680, Note_off_c, 11, 75, 64
15, 177720, Note_on_c, 11, 80, 75
15, 177800, Note_off_c, 11, 80, 64
15, 177840, Note_on_c, 11, 84, 75
15, 177920, Note_off_c, 11, 84, 64
15, 177960, Note_on_c, 11, 87, 75
15, 178040, Note_off_c, 11, 87, 64
15, 178080, Note_on_c, 11, 60, 75
15, 178160, Note_off_c, 11, 60, 64
15, 178200, Note_on_c, 11, 65, 75
15, 178280, Note_off_c, 11, 65, 64
15, 178320, Note_on_c, 11, 60, 75
15, 178400, Note_off_c, 11, 60, 64
15, 178440, Note_on_c, 11, 65, 75
15, 178520, Note_off_c, 11, 65, 64
15, 178560, Note_on_c, 11, 71, 75
15, 178640, Note_off_c, 11, 71, 64
15, 178680, Note_on_c, 11, 67, 75
15, 178760, Note_off_c, 11, 67, 64
15, 178800, Note_on_c, 11, 71, 75
15, 178880, Note_off_c, 11, 71, 64
15, 178920, Note_on_c, 11, 74, 75
15, 179000, Note_off_c, 11, 74, 64
15, 179040, Note_on_c, 11, 79, 75
15, 179120, Note_off_c, 11, 79, 64
15, 179160, Note_on_c, 11, 83, 75
15, 179240, Note_off_c, 11, 83, 64
15, 179280, Note_on_c, 11, 86, 75
15, 179360, Note_off_c, 11, 86, 64
15, 179400, Note_on_c, 11, 91, 75
15, 179480, Note_off_c, 11, 91, 64
15, 179520, Note_on_c, 11, 62, 75
15, 179600, Note_off_c, 11, 62, 64
15, 179640, Note_on_c, 11, 65, 75
15, 179720, Note_off_c, 11, 65, 64
15, 179760, Note_on_c, 11, 62, 75
15, 179840, Note_off_c, 11, 62, 64
15, 179880, Note_on_c, 11, 65, 75
15, 179960, Note_off_c, 11, 65, 64
15, 180000, Note_on_c, 11, 72, 75
15, 180080, Note_off_c, 11, 72, 64
15, 180120, Note_on_c, 11, 67, 75
15, 180200, Note_off_c, 11, 67, 64
15, 180240, Note_on_c, 11, 72, 75
15, 180320, Note_off_c, 11, 72, 64
15, 180360, Note_on_c, 11, 75, 75
15, 180440, Note_off_c, 11, 75, 64
15, 180480, Note_on_c, 11, 79, 75
15, 180560, Note_off_c, 11, 79, 64
15, 180600, Note_on_c, 11, 84, 75
15, 180680, Note_off_c, 11, 84, 64
15, 180720, Note_on_c, 11, 87, 75
15, 180800, Note_off_c, 11, 87, 64
15, 180840, Note_on_c, 11, 91, 75
15, 180920, Note_off_c, 11, 91, 64
15, 180960, Note_on_c, 11, 62, 75
15, 181040, Note_off_c, 11, 62, 64
15, 181080, Note_on_c, 11, 59, 75
15, 181160, Note_off_c, 11, 59, 64
15, 181200, Note_on_c, 11, 62, 75
15, 181280, Note_off_c, 11, 62, 64
15, 181320, Note_on_c, 11, 67, 75
15, 181400, Note_off_c, 11, 67, 64
15, 181440, Note_on_c, 11, 67, 75
15, 181520, Note_off_c, 11, 67, 64
15, 181560, Note_on_c, 11, 63, 75
15, 181640, Note_off_c, 11, 63, 64
15, 181680, Note_on_c, 11, 67, 75
15, 181760, Note_off_c, 11, 67, 64
15, 181800, Note_on_c, 11, 72, 75
15, 181880, Note_off_c, 11, 72, 64
15, 181920, Note_on_c, 11, 75, 75
15, 182000, Note_off_c, 11, 75, 64
15, 182040, Note_on_c, 11, 79, 75
15, 182120, Note_off_c, 11, 79, 64
15, 182160, Note_on_c, 11, 84, 75
15, 182240, Note_off_c, 11, 84, 64
15, 182280, Note_on_c, 11, 87, 75
15, 182360, Note_off_c, 11, 87, 64
15, 182400, Note_on_c, 11, 65, 75
15, 182480, Note_off_c, 11, 65, 64
15, 182520, Note_on_c, 11, 60, 75
15, 182600, Note_off_c, 11, 60, 64
15, 182640, Note_on_c, 11, 65, 75
15, 182720, Note_off_c, 11, 65, 64
15, 182760, Note_on_c, 11, 65, 75
15, 182840, Note_off_c, 11, 65, 64
15, 182880, Note_on_c, 11, 67, 75
15, 182960, Note_off_c, 11, 67, 64
15, 183000, Note_on_c, 11, 62, 75
15, 183080, Note_off_c, 11, 62, 64
15, 183120, Note_on_c, 11, 67, 75
15, 183200, Note_off_c, 11, 67, 64
15, 183240, Note_on_c, 11, 72, 75
15, 183320, Note_off_c, 11, 72, 64
15, 183360, Note_on_c, 11, 74, 76
15, 183440, Note_off_c, 11, 74, 64
15, 183480, Note_on_c, 11, 79, 77
15, 183560, Note_off_c, 11, 79, 64
15, 183600, Note_on_c, 11, 84, 78
15, 183680, Note_off_c, 11, 84, 64
15, 183720, Note_on_c, 11, 86, 79
15, 183800, Note_off_c, 11, 86, 64
15, 183840, Note_on_c, 11, 62, 80
15, 183920, Note_off_c, 11, 62, 64
15, 183960, Note_on_c, 11, 59, 81
15, 184040, Note_off_c, 11, 59, 64
15, 184080, Note_on_c, 11, 62, 82
15, 184160, Note_off_c, 11, 62, 64
15, 184200, Note_on_c, 11, 67, 83
15, 184280, Note_off_c, 11, 67, 64
15, 184320, Note_on_c, 11, 67, 84
15, 184400, Note_off_c, 11, 67, 64
15, 184440, Note_on_c, 11, 63, 85
15, 184520, Note_off_c, 11, 63, 64
15, 184560, Note_on_c, 11, 67, 86
15, 184640, Note_off_c, 11, 67, 64
15, 184680, Note_on_c, 11, 72, 87
15, 184760, Note_off_c, 11, 72, 64
15, 184800, Note_on_c, 11, 75, 88
15, 184880, Note_off_c, 11, 75, 64
15, 184920, Note_on_c, 11, 79, 89
15, 185000, Note_off_c, 11, 79, 64
15, 185040, Note_on_c, 11, 84, 90
15, 185120, Note_off_c, 11, 84, 64
15, 185160, Note_on_c, 11, 87, 91
15, 185240, Note_off_c, 11, 87, 64
15, 185520, Note_on_c, 11, 72, 127
15, 185520, Note_on_c, 11, 67, 127
15, 185755, Note_off_c, 11, 67, 64
15, 185755, Note_off_c, 11, 72, 64
15, 185880, Note_on_c, 11, 72, 92
15, 186000, Note_off_c, 11, 72, 64
15, 186000, Note_on_c, 11, 74, 92
15, 186120, Note_off_c, 11, 74, 64
15, 186120, Note_on_c, 11, 69, 92
15, 186235, Note_off_c, 11, 69, 64
15, 186240, Note_on_c, 11, 71, 92
15, 186955, Note_off_c, 11, 71, 64
15, 186960, Note_on_c, 11, 72, 127
15, 186960, Note_on_c, 11, 67, 127
15, 187195, Note_off_c, 11, 67, 64
15, 187195, Note_off_c, 11, 72, 64
15, 187320, Note_on_c, 11, 70, 92
15, 187440, Note_off_c, 11, 70, 64
15, 187440, Note_on_c, 11, 72, 92
15, 187560, Note_off_c, 11, 72, 64
15, 187560, Note_on_c, 11, 67, 92
15, 187675, Note_off_c, 11, 67, 64
15, 187680, Note_on_c, 11, 68, 92
15, 188160, Note_off_c, 11, 68, 64
15, 188160, Note_on_c, 11, 67, 92
15, 188395, Note_off_c, 11, 67, 64
15, 188400, Note_on_c, 11, 71, 127
15, 188400, Note_on_c, 11, 65, 127
15, 188635, Note_off_c, 11, 65, 64
15, 188635, Note_off_c, 11, 71, 64
15, 188760, Note_on_c, 11, 74, 92
15, 188880, Note_off_c, 11, 74, 64
15, 188880, Note_on_c, 11, 75, 92
15, 189000, Note_off_c, 11, 75, 64
15, 189000, Note_on_c, 11, 71, 92
15, 189115, Note_off_c, 11, 71, 64
15, 189120, Note_on_c, 11, 72, 92
15, 189835, Note_off_c, 11, 72, 64
15, 189840, Note_on_c, 11, 74, 127
15, 189840, Note_on_c, 11, 72, 127
15, 190075, Note_off_c, 11, 72, 64
15, 190075, Note_off_c, 11, 74, 64
15, 190200, Note_on_c, 11, 72, 92
15, 190320, Note_off_c, 11, 72, 64
15, 190320, Note_on_c, 11, 74, 92
15, 190440, Note_off_c, 11, 74, 64
15, 190440, Note_on_c, 11, 69, 92
15, 190555, Note_off_c, 11, 69, 64
15, 190560, Note_on_c, 11, 71, 92
15, 191275, Note_off_c, 11, 71, 64
15, 191280, Note_on_c, 11, 77, 127
15, 191280, Note_on_c, 11, 71, 127
15, 191515, Note_off_c, 11, 71, 64
15, 191515, Note_off_c, 11, 77, 64
15, 191640, Note_on_c, 11, 78, 92
15, 191760, Note_off_c, 11, 78, 64
15, 191760, Note_on_c, 11, 79, 92
15, 191880, Note_off_c, 11, 79, 64
15, 191880, Note_on_c, 11, 74, 92
15, 191995, Note_off_c, 11, 74, 64
15, 192000, Note_on_c, 11, 75, 92
15, 192480, Note_off_c, 11, 75, 64
15, 192480, Note_on_c, 11, 74, 92
15, 192715, Note_off_c, 11, 74, 64
15, 192720, Note_on_c, 11, 77, 127
15, 192720, Note_on_c, 11, 74, 127
15, 192955, Note_off_c, 11, 74, 64
15, 192955, Note_off_c, 11, 77, 64
15, 193080, Note_on_c, 11, 77, 92
15, 193200, Note_off_c, 11, 77, 64
15, 193200, Note_on_c, 11, 79, 92
15, 193320, Note_off_c, 11, 79, 64
15, 193320, Note_on_c, 11, 74, 92
15, 193435, Note_off_c, 11, 74, 64
15, 193440, Note_on_c, 11, 75, 92
15, 194155, Note_off_c, 11, 75, 64
15, 194160, Note_on_c, 11, 77, 127
15, 194160, Note_on_c, 11, 74, 127
15, 194395, Note_off_c, 11, 74, 64
15, 194395, Note_off_c, 11, 77, 64
15, 194520, Note_on_c, 11, 77, 92
15, 194640, Note_off_c, 11, 77, 64
15, 194640, Note_on_c, 11, 79, 92
15, 194760, Note_off_c, 11, 79, 64
15, 194760, Note_on_c, 11, 74, 92
15, 194875, Note_off_c, 11, 74, 64
15, 194880, Note_on_c, 11, 75, 92
15, 195360, Note_off_c, 11, 75, 64
15, 195360, Note_on_c, 11, 74, 92
15, 195595, Note_off_c, 11, 74, 64
15, 195600, Note_on_c, 11, 77, 127
15, 195600, Note_on_c, 11, 74, 127
15, 195835, Note_off_c, 11, 74, 64
15, 195835, Note_off_c, 11, 77, 64
15, 195960, Note_on_c, 11, 77, 92
15, 196080, Note_off_c, 11, 77, 64
15, 196080, Note_on_c, 11, 79, 92
15, 196200, Note_off_c, 11, 79, 64
15, 196200, Note_on_c, 11, 74, 92
15, 196315, Note_off_c, 11, 74, 64
15, 196320, Note_on_c, 11, 75, 92
15, 196855, Note_off_c, 11, 75, 64
15, 196920, Note_on_c, 11, 77, 92
15, 196980, Note_off_c, 11, 77, 64
15, 196980, Note_on_c, 11, 75, 92
15, 197035, Note_off_c, 11, 75, 64
15, 197040, Note_on_c, 11, 75, 92
15, 197160, Note_off_c, 11, 75, 64
15, 197160, Note_on_c, 11, 74, 92
15, 197220, Note_off_c, 11, 74, 64
15, 197220, Note_on_c, 11, 72, 92
15, 197275, Note_off_c, 11, 72, 64
15, 197280, Note_on_c, 11, 72, 92
15, 197400, Note_off_c, 11, 72, 64
15, 197400, Note_on_c, 11, 71, 92
15, 197460, Note_off_c, 11, 71, 64
15, 197460, Note_on_c, 11, 69, 92
15, 197515, Note_off_c, 11, 69, 64
15, 197520, Note_on_c, 11, 69, 92
15, 197640, Note_off_c, 11, 69, 64
15, 197640, Note_on_c, 11, 71, 92
15, 197700, Note_off_c, 11, 71, 64
15, 197700, Note_on_c, 11, 72, 92
15, 197755, Note_off_c, 11, 72, 64
15, 197760, Note_on_c, 11, 71, 92
15, 197880, Note_off_c, 11, 71, 64
15, 197880, Note_on_c, 11, 72, 92
15, 197940, Note_off_c, 11, 72, 64
15, 197940, Note_on_c, 11, 74, 92
15, 197995, Note_off_c, 11, 74, 64
15, 198000, Note_on_c, 11, 74, 92
15, 198120, Note_off_c, 11, 74, 64
15, 198120, Note_on_c, 11, 75, 92
15, 198180, Note_off_c, 11, 75, 64
15, 198180, Note_on_c, 11, 77, 92
15, 198235, Note_off_c, 11, 77, 64
15, 198240, Note_on_c, 11, 75, 92
15, 198360, Note_off_c, 11, 75, 64
15, 198360, Note_on_c, 11, 77, 92
15, 198420, Note_off_c, 11, 77, 64
15, 198420, Note_on_c, 11, 79, 92
15, 198475, Note_off_c, 11, 79, 64
15, 198480, Note_on_c, 11, 79, 92
15, 198600, Note_off_c, 11, 79, 64
15, 198600, Note_on_c, 11, 80, 92
15, 198660, Note_off_c, 11, 80, 64
15, 198660, Note_on_c, 11, 82, 92
15, 198715, Note_off_c, 11, 82, 64
15, 198720, Note_on_c, 11, 80, 92
15, 198840, Note_off_c, 11, 80, 64
15, 198840, Note_on_c, 11, 79, 92
15, 198900, Note_off_c, 11, 79, 64
15, 198900, Note_on_c, 11, 77, 92
15, 198955, Note_off_c, 11, 77, 64
15, 198960, Note_on_c, 11, 77, 92
15, 199080, Note_off_c, 11, 77, 64
15, 199080, Note_on_c, 11, 75, 92
15, 199140, Note_off_c, 11, 75, 64
15, 199140, Note_on_c, 11, 74, 92
15, 199195, Note_off_c, 11, 74, 64
15, 199200, Note_on_c, 11, 74, 92
15, 199320, Note_off_c, 11, 74, 64
15, 199320, Note_on_c, 11, 75, 92
15, 199380, Note_off_c, 11, 75, 64
15, 199380, Note_on_c, 11, 77, 92
15, 199435, Note_off_c, 11, 77, 64
15, 199440, Note_on_c, 11, 77, 92
15, 199560, Note_off_c, 11, 77, 64
15, 199560, Note_on_c, 11, 79, 92
15, 199620, Note_off_c, 11, 79, 64
15, 199620, Note_on_c, 11, 80, 92
15, 199675, Note_off_c, 11, 80, 64
15, 199680, Note_on_c, 11, 71, 92
15, 199740, Note_off_c, 11, 71, 64
15, 199740, Note_on_c, 11, 72, 92
15, 199800, Note_off_c, 11, 72, 64
15, 199800, Note_on_c, 11, 71, 92
15, 199860, Note_off_c, 11, 71, 64
15, 199860, Note_on_c, 11, 72, 92
15, 199920, Note_off_c, 11, 72, 64
15, 199920, Note_on_c, 11, 71, 92
15, 199980, Note_off_c, 11, 71, 64
15, 199980, Note_on_c, 11, 72, 92
15, 200040, Note_off_c, 11, 72, 64
15, 200040, Note_on_c, 11, 71, 92
15, 200100, Note_off_c, 11, 71, 64
15, 200100, Note_on_c, 11, 72, 92
15, 200160, Note_off_c, 11, 72, 64
15, 200160, Note_on_c, 11, 71, 92
15, 200220, Note_off_c, 11, 71, 64
15, 200220, Note_on_c, 11, 72, 92
15, 200280, Note_off_c, 11, 72, 64
15, 200280, Note_on_c, 11, 71, 92
15, 200340, Note_off_c, 11, 71, 64
15, 200340, Note_on_c, 11, 72, 92
15, 200400, Note_off_c, 11, 72, 64
15, 200400, Note_on_c, 11, 71, 92
15, 200455, Note_off_c, 11, 71, 64
15, 200460, Note_on_c, 11, 84, 92
15, 200520, Note_off_c, 11, 84, 64
15, 200520, Note_on_c, 11, 82, 92
15, 200580, Note_off_c, 11, 82, 64
15, 200580, Note_on_c, 11, 80, 92
15, 200635, Note_off_c, 11, 80, 64
15, 200640, Note_on_c, 11, 80, 92
15, 200700, Note_off_c, 11, 80, 64
15, 200700, Note_on_c, 11, 79, 92
15, 200760, Note_off_c, 11, 79, 64
15, 200760, Note_on_c, 11, 77, 92
15, 200815, Note_off_c, 11, 77, 64
15, 200820, Note_on_c, 11, 77, 92
15, 200880, Note_off_c, 11, 77, 64
15, 200880, Note_on_c, 11, 75, 92
15, 200940, Note_off_c, 11, 75, 64
15, 200940, Note_on_c, 11, 74, 92
15, 200995, Note_off_c, 11, 74, 64
15, 201000, Note_on_c, 11, 74, 92
15, 201060, Note_off_c, 11, 74, 64
15, 201060, Note_on_c, 11, 75, 92
15, 201115, Note_off_c, 11, 75, 64
15, 201120, Note_on_c, 11, 77, 92
15, 201240, Note_off_c, 11, 77, 64
15, 201240, Note_on_c, 11, 79, 92
15, 201300, Note_off_c, 11, 79, 64
15, 201300, Note_on_c, 11, 81, 92
15, 201355, Note_off_c, 11, 81, 64
15, 201360, Note_on_c, 11, 81, 92
15, 201480, Note_off_c, 11, 81, 64
15, 201480, Note_on_c, 11, 83, 92
15, 201540, Note_off_c, 11, 83, 64
15, 201540, Note_on_c, 11, 84, 92
15, 201595, Note_off_c, 11, 84, 64
15, 201600, Note_on_c, 11, 83, 92
15, 201960, Note_off_c, 11, 83, 64
15, 201960, Note_on_c, 11, 81, 92
15, 202075, Note_off_c, 11, 81, 64
15, 202080, Note_on_c, 11, 83, 92
15, 202480, Note_off_c, 11, 83, 64
15, 202560, Note_on_c, 11, 81, 92
15, 202680, Note_off_c, 11, 81, 64
15, 202680, Note_on_c, 11, 79, 92
15, 202740, Note_off_c, 11, 79, 64
15, 202740, Note_on_c, 11, 77, 92
15, 202795, Note_off_c, 11, 77, 64
15, 202800, Note_on_c, 11, 77, 92
15, 202920, Note_off_c, 11, 77, 64
15, 202920, Note_on_c, 11, 75, 92
15, 202980, Note_off_c, 11, 75, 64
15, 202980, Note_on_c, 11, 74, 92
15, 203035, Note_off_c, 11, 74, 64
15, 203040, Note_on_c, 11, 79, 92
15, 203440, Note_off_c, 11, 79, 64
15, 204720, Note_on_c, 11, 79, 92
15, 204840, Note_off_c, 11, 79, 64
15, 204840, Note_on_c, 11, 77, 92
15, 204900, Note_off_c, 11, 77, 64
15, 204900, Note_on_c, 11, 75, 92
15, 204955, Note_off_c, 11, 75, 64
15, 204960, Note_on_c, 11, 75, 92
15, 205080, Note_off_c, 11, 75, 64
15, 205080, Note_on_c, 11, 74, 92
15, 205140, Note_off_c, 11, 74, 64
15, 205140, Note_on_c, 11, 72, 92
15, 205195, Note_off_c, 11, 72, 64
15, 205200, Note_on_c, 11, 84, 92
15, 205320, Note_off_c, 11, 84, 64
15, 205320, Note_on_c, 11, 83, 92
15, 205380, Note_off_c, 11, 83, 64
15, 205380, Note_on_c, 11, 80, 92
15, 205435, Note_off_c, 11, 80, 64
15, 205440, Note_on_c, 11, 80, 92
15, 205560, Note_off_c, 11, 80, 64
15, 205560, Note_on_c, 11, 79, 92
15, 205620, Note_off_c, 11, 79, 64
15, 205620, Note_on_c, 11, 77, 92
15, 205675, Note_off_c, 11, 77, 64
15, 205680, Note_on_c, 11, 77, 92
15, 205800, Note_off_c, 11, 77, 64
15, 205800, Note_on_c, 11, 75, 92
15, 205860, Note_off_c, 11, 75, 64
15, 205860, Note_on_c, 11, 74, 92
15, 205915, Note_off_c, 11, 74, 64
15, 205920, Note_on_c, 11, 74, 92
15, 206040, Note_off_c, 11, 74, 64
15, 206040, Note_on_c, 11, 72, 92
15, 206100, Note_off_c, 11, 72, 64
15, 206100, Note_on_c, 11, 71, 92
15, 206155, Note_off_c, 11, 71, 64
15, 206160, Note_on_c, 11, 71, 92
15, 206280, Note_off_c, 11, 71, 64
15, 206280, Note_on_c, 11, 72, 92
15, 206340, Note_off_c, 11, 72, 64
15, 206340, Note_on_c, 11, 74, 92
15, 206395, Note_off_c, 11, 74, 64
15, 206400, Note_on_c, 11, 74, 92
15, 206520, Note_off_c, 11, 74, 64
15, 206520, Note_on_c, 11, 75, 92
15, 206580, Note_off_c, 11, 75, 64
15, 206580, Note_on_c, 11, 77, 92
15, 206635, Note_off_c, 11, 77, 64
15, 206640, Note_on_c, 11, 77, 92
15, 206760, Note_off_c, 11, 77, 64
15, 206760, Note_on_c, 11, 79, 92
15, 206820, Note_off_c, 11, 79, 64
15, 206820, Note_on_c, 11, 80, 92
15, 206875, Note_off_c, 11, 80, 64
15, 206880, Note_on_c, 11, 71, 92
15, 206910, Note_off_c, 11, 71, 64
15, 206910, Note_on_c, 11, 72, 92
15, 206940, Note_off_c, 11, 72, 64
15, 206940, Note_on_c, 11, 71, 92
15, 206970, Note_off_c, 11, 71, 64
15, 206970, Note_on_c, 11, 72, 92
15, 207000, Note_off_c, 11, 72, 64
15, 207000, Note_on_c, 11, 71, 92
15, 207030, Note_off_c, 11, 71, 64
15, 207030, Note_on_c, 11, 72, 92
15, 207060, Note_off_c, 11, 72, 64
15, 207060, Note_on_c, 11, 71, 92
15, 207090, Note_off_c, 11, 71, 64
15, 207090, Note_on_c, 11, 72, 92
15, 207120, Note_off_c, 11, 72, 64
15, 207120, Note_on_c, 11, 71, 92
15, 207150, Note_off_c, 11, 71, 64
15, 207150, Note_on_c, 11, 72, 92
15, 207180, Note_off_c, 11, 72, 64
15, 207180, Note_on_c, 11, 71, 92
15, 207210, Note_off_c, 11, 71, 64
15, 207210, Note_on_c, 11, 72, 92
15, 207240, Note_off_c, 11, 72, 64
15, 207240, Note_on_c, 11, 71, 92
15, 207270, Note_off_c, 11, 71, 64
15, 207270, Note_on_c, 11, 72, 92
15, 207300, Note_off_c, 11, 72, 64
15, 207300, Note_on_c, 11, 71, 92
15, 207330, Note_off_c, 11, 71, 64
15, 207330, Note_on_c, 11, 72, 92
15, 207360, Note_off_c, 11, 72, 64
15, 207360, Note_on_c, 11, 72, 92
15, 207595, Note_off_c, 11, 72, 64
15, 207600, Note_on_c, 11, 67, 96
15, 207720, Note_off_c, 11, 67, 64
15, 207720, Note_on_c, 11, 65, 98
15, 207780, Note_off_c, 11, 65, 64
15, 207780, Note_on_c, 11, 63, 99
15, 207835, Note_off_c, 11, 63, 64
15, 207840, Note_on_c, 11, 63, 100
15, 207960, Note_off_c, 11, 63, 64
15, 207960, Note_on_c, 11, 62, 102
15, 208020, Note_off_c, 11, 62, 64
15, 208020, Note_on_c, 11, 60, 103
15, 208075, Note_off_c, 11, 60, 64
15, 208080, Note_on_c, 11, 60, 104
15, 208195, Note_off_c, 11, 60, 64
15, 208320, Note_on_c, 11, 72, 108
15, 208320, Note_on_c, 11, 67, 108
15, 209035, Note_off_c, 11, 67, 64
15, 209035, Note_off_c, 11, 72, 64
15, 209040, Note_on_c, 11, 71, 108
15, 209160, Note_off_c, 11, 71, 64
15, 209160, Note_on_c, 11, 69, 108
15, 209275, Note_off_c, 11, 69, 64
15, 209280, Note_on_c, 11, 71, 108
15, 209520, Note_off_c, 11, 71, 64
15, 209520, Note_on_c, 11, 72, 108
15, 209640, Note_off_c, 11, 72, 64
15, 209640, Note_on_c, 11, 74, 108
15, 209755, Note_off_c, 11, 74, 64
15, 209760, Note_on_c, 11, 75, 108
15, 210000, Note_off_c, 11, 75, 64
15, 210000, Note_on_c, 11, 72, 108
15, 210235, Note_off_c, 11, 72, 64
15, 210240, Note_on_c, 11, 70, 108
15, 210360, Note_off_c, 11, 70, 64
15, 210360, Note_on_c, 11, 68, 108
15, 210480, Note_off_c, 11, 68, 64
15, 210480, Note_on_c, 11, 74, 108
15, 210600, Note_off_c, 11, 74, 64
15, 210600, Note_on_c, 11, 72, 108
15, 210715, Note_off_c, 11, 72, 64
15, 210720, Note_on_c, 11, 74, 108
15, 210960, Note_off_c, 11, 74, 64
15, 210960, Note_on_c, 11, 75, 108
15, 211080, Note_off_c, 11, 75, 64
15, 211080, Note_on_c, 11, 77, 108
15, 211195, Note_off_c, 11, 77, 64
15, 211200, Note_on_c, 11, 71, 108
15, 211915, Note_off_c, 11, 71, 64
15, 211920, Note_on_c, 11, 72, 108
15, 212040, Note_off_c, 11, 72, 64
15, 212040, Note_on_c, 11, 71, 108
15, 212155, Note_off_c, 11, 71, 64
15, 212160, Note_on_c, 11, 72, 108
15, 212400, Note_off_c, 11, 72, 64
15, 212400, Note_on_c, 11, 74, 108
15, 212520, Note_off_c, 11, 74, 64
15, 212520, Note_on_c, 11, 75, 108
15, 212635, Note_off_c, 11, 75, 64
15, 212640, Note_on_c, 11, 77, 108
15, 213355, Note_off_c, 11, 77, 64
15, 213360, Note_on_c, 11, 75, 108
15, 213480, Note_off_c, 11, 75, 64
15, 213480, Note_on_c, 11, 74, 108
15, 213595, Note_off_c, 11, 74, 64
15, 213600, Note_on_c, 11, 75, 108
15, 213840, Note_off_c, 11, 75, 64
15, 213840, Note_on_c, 11, 77, 108
15, 213960, Note_off_c, 11, 77, 64
15, 213960, Note_on_c, 11, 79, 108
15, 214075, Note_off_c, 11, 79, 64
15, 214080, Note_on_c, 11, 74, 108
15, 214795, Note_off_c, 11, 74, 64
15, 214800, Note_on_c, 11, 72, 108
15, 214920, Note_off_c, 11, 72, 64
15, 214920, Note_on_c, 11, 71, 108
15, 215035, Note_off_c, 11, 71, 64
15, 215040, Note_on_c, 11, 72, 108
15, 215280, Note_off_c, 11, 72, 64
15, 215280, Note_on_c, 11, 74, 108
15, 215400, Note_off_c, 11, 74, 64
15, 215400, Note_on_c, 11, 75, 108
15, 215515, Note_off_c, 11, 75, 64
15, 215520, Note_on_c, 11, 77, 108
15, 216235, Note_off_c, 11, 77, 64
15, 216240, Note_on_c, 11, 75, 108
15, 216360, Note_off_c, 11, 75, 64
15, 216360, Note_on_c, 11, 74, 108
15, 216475, Note_off_c, 11, 74, 64
15, 216480, Note_on_c, 11, 75, 108
15, 216720, Note_off_c, 11, 75, 64
15, 216720, Note_on_c, 11, 77, 108
15, 216840, Note_off_c, 11, 77, 64
15, 216840, Note_on_c, 11, 79, 108
15, 216955, Note_off_c, 11, 79, 64
15, 216960, Note_on_c, 11, 80, 108
15, 217675, Note_off_c, 11, 80, 64
15, 217680, Note_on_c, 11, 79, 108
15, 217800, Note_off_c, 11, 79, 64
15, 217800, Note_on_c, 11, 77, 108
15, 217915, Note_off_c, 11, 77, 64
15, 217920, Note_on_c, 11, 79, 108
15, 218160, Note_off_c, 11, 79, 64
15, 218160, Note_on_c, 11, 77, 108
15, 218280, Note_off_c, 11, 77, 64
15, 218280, Note_on_c, 11, 75, 108
15, 218395, Note_off_c, 11, 75, 64
15, 218400, Note_on_c, 11, 75, 108
15, 218640, Note_off_c, 11, 75, 64
15, 218640, Note_on_c, 11, 74, 108
15, 218760, Note_off_c, 11, 74, 64
15, 218760, Note_on_c, 11, 72, 108
15, 218875, Note_off_c, 11, 72, 64
15, 218880, Note_on_c, 11, 72, 108
15, 219520, Note_off_c, 11, 72, 64
15, 219600, Note_on_c, 11, 84, 108
15, 219600, Note_on_c, 11, 72, 108
15, 219720, Note_off_c, 11, 72, 64
15, 219720, Note_off_c, 11, 84, 64
15, 219720, Note_on_c, 11, 83, 108
15, 219720, Note_on_c, 11, 71, 108
15, 219840, Note_off_c, 11, 71, 64
15, 219840, Note_off_c, 11, 83, 64
15, 219840, Note_on_c, 11, 84, 108
15, 219840, Note_on_c, 11, 72, 108
15, 220075, Note_off_c, 11, 72, 64
15, 220075, Note_off_c, 11, 84, 64
15, 220080, Note_on_c, 11, 84, 108
15, 220080, Note_on_c, 11, 72, 108
15, 220915, Note_off_c, 11, 72, 64
15, 220915, Note_off_c, 11, 84, 64
15, 220920, Note_on_c, 11, 86, 108
15, 220920, Note_on_c, 11, 74, 108
15, 221040, Note_off_c, 11, 74, 64
15, 221040, Note_off_c, 11, 86, 64
15, 221040, Note_on_c, 11, 84, 108
15, 221040, Note_on_c, 11, 72, 108
15, 221160, Note_off_c, 11, 72, 64
15, 221160, Note_off_c, 11, 84, 64
15, 221160, Note_on_c, 11, 83, 108
15, 221160, Note_on_c, 11, 71, 108
15, 221275, Note_off_c, 11, 71, 64
15, 221275, Note_off_c, 11, 83, 64
15, 221280, Note_on_c, 11, 84, 108
15, 221280, Note_on_c, 11, 72, 108
15, 221875, Note_off_c, 11, 72, 64
15, 221875, Note_off_c, 11, 84, 64
15, 221880, Note_on_c, 11, 86, 108
15, 221880, Note_on_c, 11, 74, 108
15, 222000, Note_off_c, 11, 74, 64
15, 222000, Note_off_c, 11, 86, 64
15, 222000, Note_on_c, 11, 84, 108
15, 222000, Note_on_c, 11, 72, 108
15, 222120, Note_off_c, 11, 72, 64
15, 222120, Note_off_c, 11, 84, 64
15, 222120, Note_on_c, 11, 83, 108
15, 222120, Note_on_c, 11, 71, 108
15, 222235, Note_off_c, 11, 71, 64
15, 222235, Note_off_c, 11, 83, 64
15, 222240, Note_on_c, 11, 84, 108
15, 222240, Note_on_c, 11, 72, 108
15, 222835, Note_off_c, 11, 72, 64
15, 222835, Note_off_c, 11, 84, 64
15, 222840, Note_on_c, 11, 86, 108
15, 222840, Note_on_c, 11, 74, 108
15, 222960, Note_off_c, 11, 74, 64
15, 222960, Note_off_c, 11, 86, 64
15, 222960, Note_on_c, 11, 84, 108
15, 222960, Note_on_c, 11, 72, 108
15, 223080, Note_off_c, 11, 72, 64
15, 223080, Note_off_c, 11, 84, 64
15, 223080, Note_on_c, 11, 83, 108
15, 223080, Note_on_c, 11, 71, 108
15, 223195, Note_off_c, 11, 71, 64
15, 223195, Note_off_c, 11, 83, 64
15, 223200, Note_on_c, 11, 84, 108
15, 223200, Note_on_c, 11, 72, 108
15, 223795, Note_off_c, 11, 72, 64
15, 223795, Note_off_c, 11, 84, 64
15, 223800, Note_on_c, 11, 86, 108
15, 223800, Note_on_c, 11, 74, 108
15, 223920, Note_off_c, 11, 74, 64
15, 223920, Note_off_c, 11, 86, 64
15, 223920, Note_on_c, 11, 84, 108
15, 223920, Note_on_c, 11, 72, 108
15, 224040, Note_off_c, 11, 72, 64
15, 224040, Note_off_c, 11, 84, 64
15, 224040, Note_on_c, 11, 83, 108
15, 224040, Note_on_c, 11, 71, 108
15, 224155, Note_off_c, 11, 71, 64
15, 224155, Note_off_c, 11, 83, 64
15, 224160, Note_on_c, 11, 84, 108
15, 224160, Note_on_c, 11, 72, 108
15, 224755, Note_off_c, 11, 72, 64
15, 224755, Note_off_c, 11, 84, 64
15, 224760, Note_on_c, 11, 86, 108
15, 224760, Note_on_c, 11, 74, 108
15, 224880, Note_off_c, 11, 74, 64
15, 224880, Note_off_c, 11, 86, 64
15, 224880, Note_on_c, 11, 84, 108
15, 224880, Note_on_c, 11, 72, 108
15, 225000, Note_off_c, 11, 72, 64
15, 225000, Note_off_c, 11, 84, 64
15, 225000, Note_on_c, 11, 83, 108
15, 225000, Note_on_c, 11, 71, 108
15, 225120, Note_off_c, 11, 71, 64
15, 225120, Note_off_c, 11, 83, 64
15, 225120, Note_on_c, 11, 84, 108
15, 225120, Note_on_c, 11, 72, 108
15, 225355, Note_off_c, 11, 72, 64
15, 225355, Note_off_c, 11, 84, 64
15, 225360, Note_on_c, 11, 83, 108
15, 225360, Note_on_c, 11, 71, 108
15, 225480, Note_off_c, 11, 71, 64
15, 225480, Note_off_c, 11, 83, 64
15, 225480, Note_on_c, 11, 81, 108
15, 225480, Note_on_c, 11, 69, 108
15, 225595, Note_off_c, 11, 69, 64
15, 225595, Note_off_c, 11, 81, 64
15, 225600, Note_on_c, 11, 83, 108
15, 225600, Note_on_c, 11, 71, 108
15, 226195, Note_off_c, 11, 71, 64
15, 226195, Note_off_c, 11, 83, 64
15, 226200, Note_on_c, 11, 86, 108
15, 226200, Note_on_c, 11, 74, 108
15, 226320, Note_off_c, 11, 74, 64
15, 226320, Note_off_c, 11, 86, 64
15, 226320, Note_on_c, 11, 84, 108
15, 226320, Note_on_c, 11, 72, 108
15, 226440, Note_off_c, 11, 72, 64
15, 226440, Note_off_c, 11, 84, 64
15, 226440, Note_on_c, 11, 83, 108
15, 226440, Note_on_c, 11, 71, 108
15, 226555, Note_off_c, 11, 71, 64
15, 226555, Note_off_c, 11, 83, 64
15, 226560, Note_on_c, 11, 84, 108
15, 226560, Note_on_c, 11, 72, 108
15, 226920, Note_off_c, 11, 72, 64
15, 226920, Note_off_c, 11, 84, 64
15, 226920, Note_on_c, 11, 87, 108
15, 226920, Note_on_c, 11, 75, 108
15, 227035, Note_off_c, 11, 75, 64
15, 227035, Note_off_c, 11, 87, 64
15, 227040, Note_on_c, 11, 86, 108
15, 227040, Note_on_c, 11, 74, 108
15, 227160, Note_off_c, 11, 74, 64
15, 227160, Note_off_c, 11, 86, 64
15, 227160, Note_on_c, 11, 89, 108
15, 227160, Note_on_c, 11, 77, 108
15, 227280, Note_off_c, 11, 77, 64
15, 227280, Note_off_c, 11, 89, 64
15, 227280, Note_on_c, 11, 87, 108
15, 227280, Note_on_c, 11, 75, 108
15, 227400, Note_off_c, 11, 75, 64
15, 227400, Note_off_c, 11, 87, 64
15, 227400, Note_on_c, 11, 86, 108
15, 227400, Note_on_c, 11, 74, 108
15, 227515, Note_off_c, 11, 74, 64
15, 227515, Note_off_c, 11, 86, 64
15, 227520, Note_on_c, 11, 87, 108
15, 227520, Note_on_c, 11, 75, 108
15, 228115, Note_off_c, 11, 75, 64
15, 228115, Note_off_c, 11, 87, 64
15, 228120, Note_on_c, 11, 91, 108
15, 228120, Note_on_c, 11, 79, 108
15, 228240, Note_off_c, 11, 79, 64
15, 228240, Note_off_c, 11, 91, 64
15, 228240, Note_on_c, 11, 89, 108
15, 228240, Note_on_c, 11, 77, 108
15, 228360, Note_off_c, 11, 77, 64
15, 228360, Note_off_c, 11, 89, 64
15, 228360, Note_on_c, 11, 87, 108
15, 228360, Note_on_c, 11, 75, 108
15, 228475, Note_off_c, 11, 75, 64
15, 228475, Note_off_c, 11, 87, 64
15, 228480, Note_on_c, 11, 92, 108
15, 228480, Note_on_c, 11, 80, 108
15, 228880, Note_off_c, 11, 80, 64
15, 228880, Note_off_c, 11, 92, 64
15, 228960, Note_on_c, 11, 86, 108
15, 228960, Note_on_c, 11, 74, 108
15, 229555, Note_off_c, 11, 74, 64
15, 229555, Note_off_c, 11, 86, 64
15, 229560, Note_on_c, 11, 87, 108
15, 229560, Note_on_c, 11, 75, 108
15, 229680, Note_off_c, 11, 75, 64
15, 229680, Note_off_c, 11, 87, 64
15, 229680, Note_on_c, 11, 86, 108
15, 229680, Note_on_c, 11, 74, 108
15, 229800, Note_off_c, 11, 74, 64
15, 229800, Note_off_c, 11, 86, 64
15, 229800, Note_on_c, 11, 84, 108
15, 229800, Note_on_c, 11, 72, 108
15, 230035, Note_off_c, 11, 72, 64
15, 230035, Note_off_c, 11, 84, 64
15, 230040, Note_on_c, 11, 86, 108
15, 230040, Note_on_c, 11, 74, 108
15, 230160, Note_off_c, 11, 74, 64
15, 230160, Note_off_c, 11, 86, 64
15, 230160, Note_on_c, 11, 84, 108
15, 230160, Note_on_c, 11, 72, 108
15, 230280, Note_off_c, 11, 72, 64
15, 230280, Note_off_c, 11, 84, 64
15, 230280, Note_on_c, 11, 83, 108
15, 230280, Note_on_c, 11, 71, 108
15, 230395, Note_off_c, 11, 71, 64
15, 230395, Note_off_c, 11, 83, 64
15, 230400, Note_on_c, 11, 84, 108
15, 230400, Note_on_c, 11, 72, 108
15, 230800, Note_off_c, 11, 72, 64
15, 230800, Note_off_c, 11, 84, 64
15, 231600, Note_on_c, 11, 87, 108
15, 231600, Note_on_c, 11, 75, 108
15, 231955, Note_off_c, 11, 75, 64
15, 231955, Note_off_c, 11, 87, 64
15, 231960, Note_on_c, 11, 89, 108
15, 231960, Note_on_c, 11, 77, 108
15, 232080, Note_off_c, 11, 77, 64
15, 232080, Note_off_c, 11, 89, 64
15, 232080, Note_on_c, 11, 87, 108
15, 232080, Note_on_c, 11, 75, 108
15, 232200, Note_off_c, 11, 75, 64
15, 232200, Note_off_c, 11, 87, 64
15, 232200, Note_on_c, 11, 86, 108
15, 232200, Note_on_c, 11, 74, 108
15, 232315, Note_off_c, 11, 74, 64
15, 232315, Note_off_c, 11, 86, 64
15, 232320, Note_on_c, 11, 87, 108
15, 232320, Note_on_c, 11, 75, 108
15, 232915, Note_off_c, 11, 75, 64
15, 232915, Note_off_c, 11, 87, 64
15, 232920, Note_on_c, 11, 89, 108
15, 232920, Note_on_c, 11, 77, 108
15, 233040, Note_off_c, 11, 77, 64
15, 233040, Note_off_c, 11, 89, 64
15, 233040, Note_on_c, 11, 87, 108
15, 233040, Note_on_c, 11, 75, 108
15, 233160, Note_off_c, 11, 75, 64
15, 233160, Note_off_c, 11, 87, 64
15, 233160, Note_on_c, 11, 86, 108
15, 233160, Note_on_c, 11, 74, 108
15, 233275, Note_off_c, 11, 74, 64
15, 233275, Note_off_c, 11, 86, 64
15, 233280, Note_on_c, 11, 87, 108
15, 233280, Note_on_c, 11, 75, 108
15, 233875, Note_off_c, 11, 75, 64
15, 233875, Note_off_c, 11, 87, 64
15, 233880, Note_on_c, 11, 89, 108
15, 233880, Note_on_c, 11, 77, 108
15, 234000, Note_off_c, 11, 77, 64
15, 234000, Note_off_c, 11, 89, 64
15, 234000, Note_on_c, 11, 87, 108
15, 234000, Note_on_c, 11, 75, 108
15, 234120, Note_off_c, 11, 75, 64
15, 234120, Note_off_c, 11, 87, 64
15, 234120, Note_on_c, 11, 86, 108
15, 234120, Note_on_c, 11, 74, 108
15, 234235, Note_off_c, 11, 74, 64
15, 234235, Note_off_c, 11, 86, 64
15, 234240, Note_on_c, 11, 87, 108
15, 234240, Note_on_c, 11, 75, 108
15, 234835, Note_off_c, 11, 75, 64
15, 234835, Note_off_c, 11, 87, 64
15, 234840, Note_on_c, 11, 89, 108
15, 234840, Note_on_c, 11, 77, 108
15, 234960, Note_off_c, 11, 77, 64
15, 234960, Note_off_c, 11, 89, 64
15, 234960, Note_on_c, 11, 87, 108
15, 234960, Note_on_c, 11, 75, 108
15, 235080, Note_off_c, 11, 75, 64
15, 235080, Note_off_c, 11, 87, 64
15, 235080, Note_on_c, 11, 86, 108
15, 235080, Note_on_c, 11, 74, 108
15, 235195, Note_off_c, 11, 74, 64
15, 235195, Note_off_c, 11, 86, 64
15, 235200, Note_on_c, 11, 87, 108
15, 235200, Note_on_c, 11, 75, 108
15, 235795, Note_off_c, 11, 75, 64
15, 235795, Note_off_c, 11, 87, 64
15, 235800, Note_on_c, 11, 89, 108
15, 235800, Note_on_c, 11, 77, 108
15, 235920, Note_off_c, 11, 77, 64
15, 235920, Note_off_c, 11, 89, 64
15, 235920, Note_on_c, 11, 87, 108
15, 235920, Note_on_c, 11, 75, 108
15, 236040, Note_off_c, 11, 75, 64
15, 236040, Note_off_c, 11, 87, 64
15, 236040, Note_on_c, 11, 86, 108
15, 236040, Note_on_c, 11, 74, 108
15, 236155, Note_off_c, 11, 74, 64
15, 236155, Note_off_c, 11, 86, 64
15, 236160, Note_on_c, 11, 87, 108
15, 236160, Note_on_c, 11, 75, 108
15, 236755, Note_off_c, 11, 75, 64
15, 236755, Note_off_c, 11, 87, 64
15, 236760, Note_on_c, 11, 91, 108
15, 236760, Note_on_c, 11, 79, 108
15, 236880, Note_off_c, 11, 79, 64
15, 236880, Note_off_c, 11, 91, 64
15, 236880, Note_on_c, 11, 89, 108
15, 236880, Note_on_c, 11, 77, 108
15, 237000, Note_off_c, 11, 77, 64
15, 237000, Note_off_c, 11, 89, 64
15, 237000, Note_on_c, 11, 87, 108
15, 237000, Note_on_c, 11, 75, 108
15, 237115, Note_off_c, 11, 75, 64
15, 237115, Note_off_c, 11, 87, 64
15, 237120, Note_on_c, 11, 86, 108
15, 237120, Note_on_c, 11, 74, 108
15, 237360, Note_off_c, 11, 74, 64
15, 237360, Note_off_c, 11, 86, 64
15, 237360, Note_on_c, 11, 92, 108
15, 237360, Note_on_c, 11, 80, 108
15, 237595, Note_off_c, 11, 80, 64
15, 237595, Note_off_c, 11, 92, 64
15, 237600, Note_on_c, 11, 91, 108
15, 237600, Note_on_c, 11, 79, 108
15, 238195, Note_off_c, 11, 79, 64
15, 238195, Note_off_c, 11, 91, 64
15, 238200, Note_on_c, 11, 92, 108
15, 238200, Note_on_c, 11, 80, 108
15, 238320, Note_off_c, 11, 80, 64
15, 238320, Note_off_c, 11, 92, 64
15, 238320, Note_on_c, 11, 91, 108
15, 238320, Note_on_c, 11, 79, 108
15, 238440, Note_off_c, 11, 79, 64
15, 238440, Note_off_c, 11, 91, 64
15, 238440, Note_on_c, 11, 89, 108
15, 238440, Note_on_c, 11, 77, 108
15, 238555, Note_off_c, 11, 77, 64
15, 238555, Note_off_c, 11, 89, 64
15, 238560, Note_on_c, 11, 91, 108
15, 238560, Note_on_c, 11, 79, 108
15, 239155, Note_off_c, 11, 79, 64
15, 239155, Note_off_c, 11, 91, 64
15, 239160, Note_on_c, 11, 92, 108
15, 239160, Note_on_c, 11, 80, 108
15, 239280, Note_off_c, 11, 80, 64
15, 239280, Note_off_c, 11, 92, 64
15, 239280, Note_on_c, 11, 91, 108
15, 239280, Note_on_c, 11, 79, 108
15, 239400, Note_off_c, 11, 79, 64
15, 239400, Note_off_c, 11, 91, 64
15, 239400, Note_on_c, 11, 89, 108
15, 239400, Note_on_c, 11, 77, 108
15, 239515, Note_off_c, 11, 77, 64
15, 239515, Note_off_c, 11, 89, 64
15, 239520, Note_on_c, 11, 87, 108
15, 239520, Note_on_c, 11, 75, 108
15, 240115, Note_off_c, 11, 75, 64
15, 240115, Note_off_c, 11, 87, 64
15, 240120, Note_on_c, 11, 89, 108
15, 240120, Note_on_c, 11, 77, 108
15, 240240, Note_off_c, 11, 77, 64
15, 240240, Note_off_c, 11, 89, 64
15, 240240, Note_on_c, 11, 87, 108
15, 240240, Note_on_c, 11, 75, 108
15, 240360, Note_off_c, 11, 75, 64
15, 240360, Note_off_c, 11, 87, 64
15, 240360, Note_on_c, 11, 86, 108
15, 240360, Note_on_c, 11, 74, 108
15, 240475, Note_off_c, 11, 74, 64
15, 240475, Note_off_c, 11, 86, 64
15, 240480, Note_on_c, 11, 87, 108
15, 240480, Note_on_c, 11, 75, 108
15, 241075, Note_off_c, 11, 75, 64
15, 241075, Note_off_c, 11, 87, 64
15, 241080, Note_on_c, 11, 89, 108
15, 241080, Note_on_c, 11, 77, 108
15, 241200, Note_off_c, 11, 77, 64
15, 241200, Note_off_c, 11, 89, 64
15, 241200, Note_on_c, 11, 87, 108
15, 241200, Note_on_c, 11, 75, 108
15, 241320, Note_off_c, 11, 75, 64
15, 241320, Note_off_c, 11, 87, 64
15, 241320, Note_on_c, 11, 86, 108
15, 241320, Note_on_c, 11, 74, 108
15, 241435, Note_off_c, 11, 74, 64
15, 241435, Note_off_c, 11, 86, 64
15, 241440, Note_on_c, 11, 87, 75
15, 241440, Note_on_c, 11, 75, 75
15, 241560, Note_off_c, 11, 75, 64
15, 241560, Note_off_c, 11, 87, 64
15, 241560, Note_on_c, 11, 89, 75
15, 241560, Note_on_c, 11, 77, 75
15, 241680, Note_off_c, 11, 77, 64
15, 241680, Note_off_c, 11, 89, 64
15, 241680, Note_on_c, 11, 87, 75
15, 241680, Note_on_c, 11, 75, 75
15, 241800, Note_off_c, 11, 75, 64
15, 241800, Note_off_c, 11, 87, 64
15, 241800, Note_on_c, 11, 86, 75
15, 241800, Note_on_c, 11, 74, 75
15, 241915, Note_off_c, 11, 74, 64
15, 241915, Note_off_c, 11, 86, 64
15, 241920, Note_on_c, 11, 84, 60
15, 241920, Note_on_c, 11, 72, 60
15, 242040, Note_off_c, 11, 72, 64
15, 242040, Note_off_c, 11, 84, 64
15, 242040, Note_on_c, 11, 86, 60
15, 242040, Note_on_c, 11, 74, 60
15, 242160, Note_off_c, 11, 74, 64
15, 242160, Note_off_c, 11, 86, 64
15, 242160, Note_on_c, 11, 84, 60
15, 242160, Note_on_c, 11, 72, 60
15, 242280, Note_off_c, 11, 72, 64
15, 242280, Note_off_c, 11, 84, 64
15, 242280, Note_on_c, 11, 83, 60
15, 242280, Note_on_c, 11, 71, 60
15, 242395, Note_off_c, 11, 71, 64
15, 242395, Note_off_c, 11, 83, 64
15, 242400, Note_on_c, 11, 84, 60
15, 242400, Note_on_c, 11, 72, 60
15, 242520, Note_off_c, 11, 72, 64
15, 242520, Note_off_c, 11, 84, 64
15, 242520, Note_on_c, 11, 83, 60
15, 242520, Note_on_c, 11, 71, 60
15, 242640, Note_off_c, 11, 71, 64
15, 242640, Note_off_c, 11, 83, 64
15, 242640, Note_on_c, 11, 84, 60
15, 242640, Note_on_c, 11, 72, 60
15, 242760, Note_off_c, 11, 72, 64
15, 242760, Note_off_c, 11, 84, 64
15, 242760, Note_on_c, 11, 86, 60
15, 242760, Note_on_c, 11, 74, 60
15, 242875, Note_off_c, 11, 74, 64
15, 242875, Note_off_c, 11, 86, 64
15, 242880, Note_on_c, 11, 87, 60
15, 242880, Note_on_c, 11, 75, 60
15, 243280, Note_off_c, 11, 75, 64
15, 243280, Note_off_c, 11, 87, 64
15, 250080, Note_on_c, 11, 67, 60
15, 250480, Note_off_c, 11, 67, 64
15, 250560, Note_on_c, 11, 74, 60
15, 251400, Note_off_c, 11, 74, 64
15, 251520, Note_on_c, 11, 70, 60
15, 251920, Note_off_c, 11, 70, 64
15, 252000, Note_on_c, 11, 72, 60
15, 252840, Note_off_c, 11, 72, 64
15, 252960, Note_on_c, 11, 74, 60
15, 253360, Note_off_c, 11, 74, 64
15, 253440, Note_on_c, 11, 75, 60
15, 254280, Note_off_c, 11, 75, 64
15, 254400, Note_on_c, 11, 72, 60
15, 254800, Note_off_c, 11, 72, 64
15, 254880, Note_on_c, 11, 74, 60
15, 255720, Note_off_c, 11, 74, 64
15, 255960, Note_on_c, 11, 79, 60
15, 256080, Note_off_c, 11, 79, 64
15, 256080, Note_on_c, 11, 77, 60
15, 256200, Note_off_c, 11, 77, 64
15, 256200, Note_on_c, 11, 79, 60
15, 256315, Note_off_c, 11, 79, 64
15, 256320, Note_on_c, 11, 75, 60
15, 256720, Note_off_c, 11, 75, 64
15, 256920, Note_on_c, 11, 74, 60
15, 257040, Note_off_c, 11, 74, 64
15, 257040, Note_on_c, 11, 72, 60
15, 257160, Note_off_c, 11, 72, 64
15, 257160, Note_on_c, 11, 74, 60
15, 257275, Note_off_c, 11, 74, 64
15, 257280, Note_on_c, 11, 71, 60
15, 257680, Note_off_c, 11, 71, 64
15, 257880, Note_on_c, 11, 72, 60
15, 258000, Note_off_c, 11, 72, 64
15, 258000, Note_on_c, 11, 70, 60
15, 258120, Note_off_c, 11, 70, 64
15, 258120, Note_on_c, 11, 72, 60
15, 258235, Note_off_c, 11, 72, 64
15, 258240, Note_on_c, 11, 68, 60
15, 258360, Note_off_c, 11, 68, 64
15, 258360, Note_on_c, 11, 72, 60
15, 258480, Note_off_c, 11, 72, 64
15, 258480, Note_on_c, 11, 70, 60
15, 258600, Note_off_c, 11, 70, 64
15, 258600, Note_on_c, 11, 72, 60
15, 258715, Note_off_c, 11, 72, 64
15, 258720, Note_on_c, 11, 65, 60
15, 258840, Note_off_c, 11, 65, 64
15, 258840, Note_on_c, 11, 77, 60
15, 258960, Note_off_c, 11, 77, 64
15, 258960, Note_on_c, 11, 75, 60
15, 259080, Note_off_c, 11, 75, 64
15, 259080, Note_on_c, 11, 77, 60
15, 259195, Note_off_c, 11, 77, 64
15, 259200, Note_on_c, 11, 71, 60
15, 259320, Note_off_c, 11, 71, 64
15, 259320, Note_on_c, 11, 74, 60
15, 259440, Note_off_c, 11, 74, 64
15, 259440, Note_on_c, 11, 72, 60
15, 259560, Note_off_c, 11, 72, 64
15, 259560, Note_on_c, 11, 74, 60
15, 259675, Note_off_c, 11, 74, 64
15, 259680, Note_on_c, 11, 67, 60
15, 259800, Note_off_c, 11, 67, 64
15, 259800, Note_on_c, 11, 79, 60
15, 259920, Note_off_c, 11, 79, 64
15, 259920, Note_on_c, 11, 77, 60
15, 260040, Note_off_c, 11, 77, 64
15, 260040, Note_on_c, 11, 79, 60
15, 260155, Note_off_c, 11, 79, 64
15, 260160, Note_on_c, 11, 75, 60
15, 260560, Note_off_c, 11, 75, 64
15, 260880, Note_on_c, 11, 75, 60
15, 261120, Note_off_c, 11, 75, 64
15, 261120, Note_on_c, 11, 71, 60
15, 261355, Note_off_c, 11, 71, 64
15, 261360, Note_on_c, 11, 71, 60
15, 261600, Note_off_c, 11, 71, 64
15, 261600, Note_on_c, 11, 72, 60
15, 262000, Note_off_c, 11, 72, 64
15, 262320, Note_on_c, 11, 80, 60
15, 262560, Note_off_c, 11, 80, 64
15, 262560, Note_on_c, 11, 74, 60
15, 262795, Note_off_c, 11, 74, 64
15, 262800, Note_on_c, 11, 74, 60
15, 263040, Note_off_c, 11, 74, 64
15, 263040, Note_on_c, 11, 76, 60
15, 263440, Note_off_c, 11, 76, 64
15, 263760, Note_on_c, 11, 77, 60
15, 264000, Note_off_c, 11, 77, 64
15, 264000, Note_on_c, 11, 72, 60
15, 264235, Note_off_c, 11, 72, 64
15, 264240, Note_on_c, 11, 72, 60
15, 264480, Note_off_c, 11, 72, 64
15, 264480, Note_on_c, 11, 74, 60
15, 264880, Note_off_c, 11, 74, 64
15, 265200, Note_on_c, 11, 75, 60
15, 265440, Note_off_c, 11, 75, 64
15, 265440, Note_on_c, 11, 71, 60
15, 265675, Note_off_c, 11, 71, 64
15, 265680, Note_on_c, 11, 71, 60
15, 265915, Note_off_c, 11, 71, 64
15, 265920, Note_on_c, 11, 79, 60
15, 266040, Note_off_c, 11, 79, 64
15, 266040, Note_on_c, 11, 80, 60
15, 266160, Note_off_c, 11, 80, 64
15, 266160, Note_on_c, 11, 77, 60
15, 266280, Note_off_c, 11, 77, 64
15, 266280, Note_on_c, 11, 79, 60
15, 266395, Note_off_c, 11, 79, 64
15, 266400, Note_on_c, 11, 75, 60
15, 266520, Note_off_c, 11, 75, 64
15, 266520, Note_on_c, 11, 77, 60
15, 266640, Note_off_c, 11, 77, 64
15, 266640, Note_on_c, 11, 74, 60
15, 266760, Note_off_c, 11, 74, 64
15, 266760, Note_on_c, 11, 75, 60
15, 266875, Note_off_c, 11, 75, 64
15, 266880, Note_on_c, 11, 72, 60
15, 267000, Note_off_c, 11, 72, 64
15, 267000, Note_on_c, 11, 74, 60
15, 267120, Note_off_c, 11, 74, 64
15, 267120, Note_on_c, 11, 70, 60
15, 267235, Note_off_c, 11, 70, 64
15, 267240, Note_on_c, 11, 72, 60
15, 267355, Note_off_c, 11, 72, 64
15, 267360, Note_on_c, 11, 69, 60
15, 267480, Note_off_c, 11, 69, 64
15, 267480, Note_on_c, 11, 70, 60
15, 267600, Note_off_c, 11, 70, 64
15, 267600, Note_on_c, 11, 67, 60
15, 267720, Note_off_c, 11, 67, 64
15, 267720, Note_on_c, 11, 69, 60
15, 267835, Note_off_c, 11, 69, 64
15, 267840, Note_on_c, 11, 66, 60
15, 267960, Note_off_c, 11, 66, 64
15, 267960, Note_on_c, 11, 69, 60
15, 268080, Note_off_c, 11, 69, 64
15, 268080, Note_on_c, 11, 67, 60
15, 268200, Note_off_c, 11, 67, 64
15, 268200, Note_on_c, 11, 70, 60
15, 268315, Note_off_c, 11, 70, 64
15, 268320, Note_on_c, 11, 69, 60
15, 268440, Note_off_c, 11, 69, 64
15, 268440, Note_on_c, 11, 74, 60
15, 268560, Note_off_c, 11, 74, 64
15, 268560, Note_on_c, 11, 72, 60
15, 268680, Note_off_c, 11, 72, 64
15, 268680, Note_on_c, 11, 74, 60
15, 268795, Note_off_c, 11, 74, 64
15, 268800, Note_on_c, 11, 67, 60
15, 268920, Note_off_c, 11, 67, 64
15, 268920, Note_on_c, 11, 79, 60
15, 269040, Note_off_c, 11, 79, 64
15, 269040, Note_on_c, 11, 77, 60
15, 269160, Note_off_c, 11, 77, 64
15, 269160, Note_on_c, 11, 79, 60
15, 269275, Note_off_c, 11, 79, 64
15, 269280, Note_on_c, 11, 75, 60
15, 269400, Note_off_c, 11, 75, 64
15, 269400, Note_on_c, 11, 79, 60
15, 269520, Note_off_c, 11, 79, 64
15, 269520, Note_on_c, 11, 75, 60
15, 269640, Note_off_c, 11, 75, 64
15, 269640, Note_on_c, 11, 79, 60
15, 269755, Note_off_c, 11, 79, 64
15, 269760, Note_on_c, 11, 75, 60
15, 269880, Note_off_c, 11, 75, 64
15, 269880, Note_on_c, 11, 77, 60
15, 270000, Note_off_c, 11, 77, 64
15, 270000, Note_on_c, 11, 75, 60
15, 270120, Note_off_c, 11, 75, 64
15, 270120, Note_on_c, 11, 77, 60
15, 270235, Note_off_c, 11, 77, 64
15, 270240, Note_on_c, 11, 74, 60
15, 270360, Note_off_c, 11, 74, 64
15, 270360, Note_on_c, 11, 77, 60
15, 270480, Note_off_c, 11, 77, 64
15, 270480, Note_on_c, 11, 74, 60
15, 270600, Note_off_c, 11, 74, 64
15, 270600, Note_on_c, 11, 77, 60
15, 270715, Note_off_c, 11, 77, 64
15, 270720, Note_on_c, 11, 72, 60
15, 270840, Note_off_c, 11, 72, 64
15, 270840, Note_on_c, 11, 75, 60
15, 270960, Note_off_c, 11, 75, 64
15, 270960, Note_on_c, 11, 74, 60
15, 271080, Note_off_c, 11, 74, 64
15, 271080, Note_on_c, 11, 77, 60
15, 271195, Note_off_c, 11, 77, 64
15, 271200, Note_on_c, 11, 75, 60
15, 271320, Note_off_c, 11, 75, 64
15, 271320, Note_on_c, 11, 77, 60
15, 271440, Note_off_c, 11, 77, 64
15, 271440, Note_on_c, 11, 75, 60
15, 271560, Note_off_c, 11, 75, 64
15, 271560, Note_on_c, 11, 77, 60
15, 271675, Note_off_c, 11, 77, 64
15, 271680, Note_on_c, 11, 75, 60
15, 271800, Note_off_c, 11, 75, 64
15, 271800, Note_on_c, 11, 77, 60
15, 271920, Note_off_c, 11, 77, 64
15, 271920, Note_on_c, 11, 75, 60
15, 272040, Note_off_c, 11, 75, 64
15, 272040, Note_on_c, 11, 77, 60
15, 272155, Note_off_c, 11, 77, 64
15, 272160, Note_on_c, 11, 74, 60
15, 272280, Note_off_c, 11, 74, 64
15, 272280, Note_on_c, 11, 75, 60
15, 272400, Note_off_c, 11, 75, 64
15, 272400, Note_on_c, 11, 74, 60
15, 272520, Note_off_c, 11, 74, 64
15, 272520, Note_on_c, 11, 75, 60
15, 272635, Note_off_c, 11, 75, 64
15, 272640, Note_on_c, 11, 74, 60
15, 272760, Note_off_c, 11, 74, 64
15, 272760, Note_on_c, 11, 75, 60
15, 272880, Note_off_c, 11, 75, 64
15, 272880, Note_on_c, 11, 72, 60
15, 273000, Note_off_c, 11, 72, 64
15, 273000, Note_on_c, 11, 74, 60
15, 273115, Note_off_c, 11, 74, 64
15, 273120, Note_on_c, 11, 70, 60
15, 273240, Note_off_c, 11, 70, 64
15, 273240, Note_on_c, 11, 74, 60
15, 273360, Note_off_c, 11, 74, 64
15, 273360, Note_on_c, 11, 72, 60
15, 273480, Note_off_c, 11, 72, 64
15, 273480, Note_on_c, 11, 75, 60
15, 273595, Note_off_c, 11, 75, 64
15, 273600, Note_on_c, 11, 74, 60
15, 273840, Note_off_c, 11, 74, 64
15, 273840, Note_on_c, 11, 67, 60
15, 273960, Note_off_c, 11, 67, 64
15, 273960, Note_on_c, 11, 70, 60
15, 274075, Note_off_c, 11, 70, 64
15, 274080, Note_on_c, 11, 69, 60
15, 274200, Note_off_c, 11, 69, 64
15, 274200, Note_on_c, 11, 72, 60
15, 274320, Note_off_c, 11, 72, 64
15, 274320, Note_on_c, 11, 70, 60
15, 274440, Note_off_c, 11, 70, 64
15, 274440, Note_on_c, 11, 72, 60
15, 274555, Note_off_c, 11, 72, 64
15, 274560, Note_on_c, 11, 69, 60
15, 274590, Note_off_c, 11, 69, 64
15, 274590, Note_on_c, 11, 70, 60
15, 274620, Note_off_c, 11, 70, 64
15, 274620, Note_on_c, 11, 69, 60
15, 274650, Note_off_c, 11, 69, 64
15, 274650, Note_on_c, 11, 70, 60
15, 274680, Note_off_c, 11, 70, 64
15, 274680, Note_on_c, 11, 69, 60
15, 274710, Note_off_c, 11, 69, 64
15, 274710, Note_on_c, 11, 70, 60
15, 274740, Note_off_c, 11, 70, 64
15, 274740, Note_on_c, 11, 69, 60
15, 274770, Note_off_c, 11, 69, 64
15, 274770, Note_on_c, 11, 70, 60
15, 274800, Note_off_c, 11, 70, 64
15, 274800, Note_on_c, 11, 69, 60
15, 274830, Note_off_c, 11, 69, 64
15, 274830, Note_on_c, 11, 70, 60
15, 274860, Note_off_c, 11, 70, 64
15, 274860, Note_on_c, 11, 69, 60
15, 274890, Note_off_c, 11, 69, 64
15, 274890, Note_on_c, 11, 70, 60
15, 274920, Note_off_c, 11, 70, 64
15, 274920, Note_on_c, 11, 69, 60
15, 274950, Note_off_c, 11, 69, 64
15, 274950, Note_on_c, 11, 70, 60
15, 274980, Note_off_c, 11, 70, 64
15, 274980, Note_on_c, 11, 69, 60
15, 275010, Note_off_c, 11, 69, 64
15, 275010, Note_on_c, 11, 70, 60
15, 275040, Note_off_c, 11, 70, 64
15, 275040, Note_on_c, 11, 67, 60
15, 275155, Note_off_c, 11, 67, 64
15, 275160, Note_on_c, 11, 71, 61
15, 275280, Note_off_c, 11, 71, 64
15, 275280, Note_on_c, 11, 69, 63
15, 275400, Note_off_c, 11, 69, 64
15, 275400, Note_on_c, 11, 72, 65
15, 275520, Note_off_c, 11, 72, 64
15, 275520, Note_on_c, 11, 71, 67
15, 275635, Note_off_c, 11, 71, 64
15, 275640, Note_on_c, 11, 79, 69
15, 275760, Note_off_c, 11, 79, 64
15, 275760, Note_on_c, 11, 77, 71
15, 275880, Note_off_c, 11, 77, 64
15, 275880, Note_on_c, 11, 79, 73
15, 275995, Note_off_c, 11, 79, 64
15, 276000, Note_on_c, 11, 75, 75
15, 276120, Note_off_c, 11, 75, 64
15, 276120, Note_on_c, 11, 79, 75
15, 276240, Note_off_c, 11, 79, 64
15, 276240, Note_on_c, 11, 77, 75
15, 276355, Note_off_c, 11, 77, 64
15, 276360, Note_on_c, 11, 80, 75
15, 276475, Note_off_c, 11, 80, 64
15, 276480, Note_on_c, 11, 71, 75
15, 276600, Note_off_c, 11, 71, 64
15, 276600, Note_on_c, 11, 74, 75
15, 276720, Note_off_c, 11, 74, 64
15, 276720, Note_on_c, 11, 72, 75
15, 276840, Note_off_c, 11, 72, 64
15, 276840, Note_on_c, 11, 75, 75
15, 276955, Note_off_c, 11, 75, 64
15, 276960, Note_on_c, 11, 74, 75
15, 277080, Note_off_c, 11, 74, 64
15, 277080, Note_on_c, 11, 75, 75
15, 277200, Note_off_c, 11, 75, 64
15, 277200, Note_on_c, 11, 74, 75
15, 277320, Note_off_c, 11, 74, 64
15, 277320, Note_on_c, 11, 75, 75
15, 277435, Note_off_c, 11, 75, 64
15, 277440, Note_on_c, 11, 72, 75
15, 277560, Note_off_c, 11, 72, 64
15, 277560, Note_on_c, 11, 75, 75
15, 277680, Note_off_c, 11, 75, 64
15, 277680, Note_on_c, 11, 74, 75
15, 277800, Note_off_c, 11, 74, 64
15, 277800, Note_on_c, 11, 75, 75
15, 277915, Note_off_c, 11, 75, 64
15, 277920, Note_on_c, 11, 72, 75
15, 278320, Note_off_c, 11, 72, 64
15, 278400, Note_on_c, 11, 70, 75
15, 279120, Note_off_c, 11, 70, 64
15, 279120, Note_on_c, 11, 70, 75
15, 279355, Note_off_c, 11, 70, 64
15, 279360, Note_on_c, 11, 68, 75
15, 279600, Note_off_c, 11, 68, 64
15, 279600, Note_on_c, 11, 72, 75
15, 279835, Note_off_c, 11, 72, 64
15, 279840, Note_on_c, 11, 77, 75
15, 280200, Note_off_c, 11, 77, 64
15, 280200, Note_on_c, 11, 75, 75
15, 280315, Note_off_c, 11, 75, 64
15, 280320, Note_on_c, 11, 74, 75
15, 280560, Note_off_c, 11, 74, 64
15, 280560, Note_on_c, 11, 72, 75
15, 280795, Note_off_c, 11, 72, 64
15, 280800, Note_on_c, 11, 70, 75
15, 281200, Note_off_c, 11, 70, 64
15, 281280, Note_on_c, 11, 75, 75
15, 281680, Note_off_c, 11, 75, 64
15, 281760, Note_on_c, 11, 77, 75
15, 282160, Note_off_c, 11, 77, 64
15, 282240, Note_on_c, 11, 79, 75
15, 282360, Note_off_c, 11, 79, 64
15, 282360, Note_on_c, 11, 80, 75
15, 282480, Note_off_c, 11, 80, 64
15, 282480, Note_on_c, 11, 82, 75
15, 282600, Note_off_c, 11, 82, 64
15, 282600, Note_on_c, 11, 75, 75
15, 282715, Note_off_c, 11, 75, 64
15, 282720, Note_on_c, 11, 75, 75
15, 283120, Note_off_c, 11, 75, 64
15, 283200, Note_on_c, 11, 74, 75
15, 283230, Note_off_c, 11, 74, 64
15, 283230, Note_on_c, 11, 75, 75
15, 283260, Note_off_c, 11, 75, 64
15, 283260, Note_on_c, 11, 74, 75
15, 283290, Note_off_c, 11, 74, 64
15, 283290, Note_on_c, 11, 75, 75
15, 283320, Note_off_c, 11, 75, 64
15, 283320, Note_on_c, 11, 74, 75
15, 283350, Note_off_c, 11, 74, 64
15, 283350, Note_on_c, 11, 75, 75
15, 283380, Note_off_c, 11, 75, 64
15, 283380, Note_on_c, 11, 74, 75
15, 283410, Note_off_c, 11, 74, 64
15, 283410, Note_on_c, 11, 75, 75
15, 283440, Note_off_c, 11, 75, 64
15, 283440, Note_on_c, 11, 74, 75
15, 283470, Note_off_c, 11, 74, 64
15, 283470, Note_on_c, 11, 75, 75
15, 283500, Note_off_c, 11, 75, 64
15, 283500, Note_on_c, 11, 74, 75
15, 283530, Note_off_c, 11, 74, 64
15, 283530, Note_on_c, 11, 75, 75
15, 283560, Note_off_c, 11, 75, 64
15, 283560, Note_on_c, 11, 74, 75
15, 283590, Note_off_c, 11, 74, 64
15, 283590, Note_on_c, 11, 75, 75
15, 283620, Note_off_c, 11, 75, 64
15, 283620, Note_on_c, 11, 74, 75
15, 283650, Note_off_c, 11, 74, 64
15, 283650, Note_on_c, 11, 75, 75
15, 283680, Note_off_c, 11, 75, 64
15, 283680, Note_on_c, 11, 75, 75
15, 283795, Note_off_c, 11, 75, 64
15, 283800, Note_on_c, 11, 82, 75
15, 283920, Note_off_c, 11, 82, 64
15, 283920, Note_on_c, 11, 80, 75
15, 284040, Note_off_c, 11, 80, 64
15, 284040, Note_on_c, 11, 82, 75
15, 284155, Note_off_c, 11, 82, 64
15, 284160, Note_on_c, 11, 79, 75
15, 284280, Note_off_c, 11, 79, 64
15, 284280, Note_on_c, 11, 80, 75
15, 284400, Note_off_c, 11, 80, 64
15, 284400, Note_on_c, 11, 77, 75
15, 284520, Note_off_c, 11, 77, 64
15, 284520, Note_on_c, 11, 79, 75
15, 284635, Note_off_c, 11, 79, 64
15, 284640, Note_on_c, 11, 75, 75
15, 284760, Note_off_c, 11, 75, 64
15, 284760, Note_on_c, 11, 79, 75
15, 284880, Note_off_c, 11, 79, 64
15, 284880, Note_on_c, 11, 77, 75
15, 285000, Note_off_c, 11, 77, 64
15, 285000, Note_on_c, 11, 75, 75
15, 285115, Note_off_c, 11, 75, 64
15, 285120, Note_on_c, 11, 74, 75
15, 285240, Note_off_c, 11, 74, 64
15, 285240, Note_on_c, 11, 77, 75
15, 285360, Note_off_c, 11, 77, 64
15, 285360, Note_on_c, 11, 75, 75
15, 285480, Note_off_c, 11, 75, 64
15, 285480, Note_on_c, 11, 79, 75
15, 285595, Note_off_c, 11, 79, 64
15, 285600, Note_on_c, 11, 77, 75
15, 285720, Note_off_c, 11, 77, 64
15, 285720, Note_on_c, 11, 80, 75
15, 285840, Note_off_c, 11, 80, 64
15, 285840, Note_on_c, 11, 79, 75
15, 285960, Note_off_c, 11, 79, 64
15, 285960, Note_on_c, 11, 77, 75
15, 286075, Note_off_c, 11, 77, 64
15, 286080, Note_on_c, 11, 82, 75
15, 286200, Note_off_c, 11, 82, 64
15, 286200, Note_on_c, 11, 75, 75
15, 286320, Note_off_c, 11, 75, 64
15, 286320, Note_on_c, 11, 74, 75
15, 286440, Note_off_c, 11, 74, 64
15, 286440, Note_on_c, 11, 75, 75
15, 286555, Note_off_c, 11, 75, 64
15, 286560, Note_on_c, 11, 72, 75
15, 286680, Note_off_c, 11, 72, 64
15, 286680, Note_on_c, 11, 75, 75
15, 286800, Note_off_c, 11, 75, 64
15, 286800, Note_on_c, 11, 72, 75
15, 286920, Note_off_c, 11, 72, 64
15, 286920, Note_on_c, 11, 75, 75
15, 287035, Note_off_c, 11, 75, 64
15, 287040, Note_on_c, 11, 72, 75
15, 287160, Note_off_c, 11, 72, 64
15, 287160, Note_on_c, 11, 73, 75
15, 287280, Note_off_c, 11, 73, 64
15, 287280, Note_on_c, 11, 72, 75
15, 287400, Note_off_c, 11, 72, 64
15, 287400, Note_on_c, 11, 73, 75
15, 287515, Note_off_c, 11, 73, 64
15, 287520, Note_on_c, 11, 70, 75
15, 287640, Note_off_c, 11, 70, 64
15, 287640, Note_on_c, 11, 73, 75
15, 287760, Note_off_c, 11, 73, 64
15, 287760, Note_on_c, 11, 70, 75
15, 287880, Note_off_c, 11, 70, 64
15, 287880, Note_on_c, 11, 73, 75
15, 287995, Note_off_c, 11, 73, 64
15, 288000, Note_on_c, 11, 68, 75
15, 288120, Note_off_c, 11, 68, 64
15, 288120, Note_on_c, 11, 72, 75
15, 288240, Note_off_c, 11, 72, 64
15, 288240, Note_on_c, 11, 70, 75
15, 288360, Note_off_c, 11, 70, 64
15, 288360, Note_on_c, 11, 73, 75
15, 288475, Note_off_c, 11, 73, 64
15, 288480, Note_on_c, 11, 72, 75
15, 288600, Note_off_c, 11, 72, 64
15, 288600, Note_on_c, 11, 75, 75
15, 288720, Note_off_c, 11, 75, 64
15, 288720, Note_on_c, 11, 74, 75
15, 288840, Note_off_c, 11, 74, 64
15, 288840, Note_on_c, 11, 75, 75
15, 288955, Note_off_c, 11, 75, 64
15, 288960, Note_on_c, 11, 72, 75
15, 289080, Note_off_c, 11, 72, 64
15, 289080, Note_on_c, 11, 77, 75
15, 289200, Note_off_c, 11, 77, 64
15, 289200, Note_on_c, 11, 75, 75
15, 289320, Note_off_c, 11, 75, 64
15, 289320, Note_on_c, 11, 77, 75
15, 289435, Note_off_c, 11, 77, 64
15, 289440, Note_on_c, 11, 74, 75
15, 289560, Note_off_c, 11, 74, 64
15, 289560, Note_on_c, 11, 77, 75
15, 289680, Note_off_c, 11, 77, 64
15, 289680, Note_on_c, 11, 75, 75
15, 289800, Note_off_c, 11, 75, 64
15, 289800, Note_on_c, 11, 79, 75
15, 289915, Note_off_c, 11, 79, 64
15, 289920, Note_on_c, 11, 77, 75
15, 290040, Note_off_c, 11, 77, 64
15, 290040, Note_on_c, 11, 82, 75
15, 290160, Note_off_c, 11, 82, 64
15, 290160, Note_on_c, 11, 80, 75
15, 290280, Note_off_c, 11, 80, 64
15, 290280, Note_on_c, 11, 82, 75
15, 290395, Note_off_c, 11, 82, 64
15, 290400, Note_on_c, 11, 79, 75
15, 290520, Note_off_c, 11, 79, 64
15, 290520, Note_on_c, 11, 84, 75
15, 290640, Note_off_c, 11, 84, 64
15, 290640, Note_on_c, 11, 82, 75
15, 290760, Note_off_c, 11, 82, 64
15, 290760, Note_on_c, 11, 84, 75
15, 290875, Note_off_c, 11, 84, 64
15, 290880, Note_on_c, 11, 80, 75
15, 291000, Note_off_c, 11, 80, 64
15, 291000, Note_on_c, 11, 84, 75
15, 291120, Note_off_c, 11, 84, 64
15, 291120, Note_on_c, 11, 82, 75
15, 291240, Note_off_c, 11, 82, 64
15, 291240, Note_on_c, 11, 84, 75
15, 291355, Note_off_c, 11, 84, 64
15, 291360, Note_on_c, 11, 80, 75
15, 291480, Note_off_c, 11, 80, 64
15, 291480, Note_on_c, 11, 82, 75
15, 291600, Note_off_c, 11, 82, 64
15, 291600, Note_on_c, 11, 79, 75
15, 291720, Note_off_c, 11, 79, 64
15, 291720, Note_on_c, 11, 80, 75
15, 291835, Note_off_c, 11, 80, 64
15, 291840, Note_on_c, 11, 77, 75
15, 291960, Note_off_c, 11, 77, 64
15, 291960, Note_on_c, 11, 82, 75
15, 292080, Note_off_c, 11, 82, 64
15, 292080, Note_on_c, 11, 80, 75
15, 292200, Note_off_c, 11, 80, 64
15, 292200, Note_on_c, 11, 82, 75
15, 292315, Note_off_c, 11, 82, 64
15, 292320, Note_on_c, 11, 79, 75
15, 292440, Note_off_c, 11, 79, 64
15, 292440, Note_on_c, 11, 82, 75
15, 292560, Note_off_c, 11, 82, 64
15, 292560, Note_on_c, 11, 80, 75
15, 292680, Note_off_c, 11, 80, 64
15, 292680, Note_on_c, 11, 82, 75
15, 292795, Note_off_c, 11, 82, 64
15, 292800, Note_on_c, 11, 79, 75
15, 292920, Note_off_c, 11, 79, 64
15, 292920, Note_on_c, 11, 80, 75
15, 293040, Note_off_c, 11, 80, 64
15, 293040, Note_on_c, 11, 77, 75
15, 293160, Note_off_c, 11, 77, 64
15, 293160, Note_on_c, 11, 79, 75
15, 293275, Note_off_c, 11, 79, 64
15, 293280, Note_on_c, 11, 75, 75
15, 293400, Note_off_c, 11, 75, 64
15, 293400, Note_on_c, 11, 77, 75
15, 293520, Note_off_c, 11, 77, 64
15, 293520, Note_on_c, 11, 74, 75
15, 293640, Note_off_c, 11, 74, 64
15, 293640, Note_on_c, 11, 75, 75
15, 293755, Note_off_c, 11, 75, 64
15, 293760, Note_on_c, 11, 72, 75
15, 294000, Note_off_c, 11, 72, 64
15, 294000, Note_on_c, 11, 75, 75
15, 294235, Note_off_c, 11, 75, 64
15, 294240, Note_on_c, 11, 80, 75
15, 294480, Note_off_c, 11, 80, 64
15, 294480, Note_on_c, 11, 72, 75
15, 294715, Note_off_c, 11, 72, 64
15, 294720, Note_on_c, 11, 70, 75
15, 294960, Note_off_c, 11, 70, 64
15, 294960, Note_on_c, 11, 80, 75
15, 295195, Note_off_c, 11, 80, 64
15, 295200, Note_on_c, 11, 70, 75
15, 295440, Note_off_c, 11, 70, 64
15, 295440, Note_on_c, 11, 74, 75
15, 295675, Note_off_c, 11, 74, 64
15, 295680, Note_on_c, 11, 79, 75
15, 295920, Note_off_c, 11, 79, 64
15, 295920, Note_on_c, 11, 70, 75
15, 296155, Note_off_c, 11, 70, 64
15, 296160, Note_on_c, 11, 68, 75
15, 296400, Note_off_c, 11, 68, 64
15, 296400, Note_on_c, 11, 79, 75
15, 296635, Note_off_c, 11, 79, 64
15, 296640, Note_on_c, 11, 68, 75
15, 296880, Note_off_c, 11, 68, 64
15, 296880, Note_on_c, 11, 72, 75
15, 297115, Note_off_c, 11, 72, 64
15, 297120, Note_on_c, 11, 77, 75
15, 297360, Note_off_c, 11, 77, 64
15, 297360, Note_on_c, 11, 68, 75
15, 297595, Note_off_c, 11, 68, 64
15, 297600, Note_on_c, 11, 67, 75
15, 297840, Note_off_c, 11, 67, 64
15, 297840, Note_on_c, 11, 77, 75
15, 298075, Note_off_c, 11, 77, 64
15, 298080, Note_on_c, 11, 67, 75
15, 298320, Note_off_c, 11, 67, 64
15, 298320, Note_on_c, 11, 70, 75
15, 298555, Note_off_c, 11, 70, 64
15, 298560, Note_on_c, 11, 75, 75
15, 298800, Note_off_c, 11, 75, 64
15, 298800, Note_on_c, 11, 67, 75
15, 299035, Note_off_c, 11, 67, 64
15, 299040, Note_on_c, 11, 65, 75
15, 299280, Note_off_c, 11, 65, 64
15, 299280, Note_on_c, 11, 75, 75
15, 299515, Note_off_c, 11, 75, 64
15, 299520, Note_on_c, 11, 74, 75
15, 299640, Note_off_c, 11, 74, 64
15, 299640, Note_on_c, 11, 77, 75
15, 299760, Note_off_c, 11, 77, 64
15, 299760, Note_on_c, 11, 74, 75
15, 299880, Note_off_c, 11, 74, 64
15, 299880, Note_on_c, 11, 77, 75
15, 299995, Note_off_c, 11, 77, 64
15, 300000, Note_on_c, 11, 70, 75
15, 300240, Note_off_c, 11, 70, 64
15, 300240, Note_on_c, 11, 69, 75
15, 300360, Note_off_c, 11, 69, 64
15, 300360, Note_on_c, 11, 67, 75
15, 300475, Note_off_c, 11, 67, 64
15, 300480, Note_on_c, 11, 65, 75
15, 300720, Note_off_c, 11, 65, 64
15, 300720, Note_on_c, 11, 67, 75
15, 300955, Note_off_c, 11, 67, 64
15, 300960, Note_on_c, 11, 69, 75
15, 301200, Note_off_c, 11, 69, 64
15, 301200, Note_on_c, 11, 74, 75
15, 301435, Note_off_c, 11, 74, 64
15, 301440, Note_on_c, 11, 69, 75
15, 301675, Note_off_c, 11, 69, 64
15, 301680, Note_on_c, 11, 69, 75
15, 301920, Note_off_c, 11, 69, 64
15, 301920, Note_on_c, 11, 70, 75
15, 302320, Note_off_c, 11, 70, 64
15, 302640, Note_on_c, 11, 79, 75
15, 302880, Note_off_c, 11, 79, 64
15, 302880, Note_on_c, 11, 72, 75
15, 303115, Note_off_c, 11, 72, 64
15, 303120, Note_on_c, 11, 72, 75
15, 303360, Note_off_c, 11, 72, 64
15, 303360, Note_on_c, 11, 74, 75
15, 303760, Note_off_c, 11, 74, 64
15, 304080, Note_on_c, 11, 75, 75
15, 304320, Note_off_c, 11, 75, 64
15, 304320, Note_on_c, 11, 70, 75
15, 304555, Note_off_c, 11, 70, 64
15, 304560, Note_on_c, 11, 70, 75
15, 304800, Note_off_c, 11, 70, 64
15, 304800, Note_on_c, 11, 72, 75
15, 305200, Note_off_c, 11, 72, 64
15, 305400, Note_on_c, 11, 74, 75
15, 305520, Note_off_c, 11, 74, 64
15, 305520, Note_on_c, 11, 72, 75
15, 305640, Note_off_c, 11, 72, 64
15, 305640, Note_on_c, 11, 74, 75
15, 305755, Note_off_c, 11, 74, 64
15, 305760, Note_on_c, 11, 75, 75
15, 306160, Note_off_c, 11, 75, 64
15, 306240, Note_on_c, 11, 77, 75
15, 306640, Note_off_c, 11, 77, 64
15, 306840, Note_on_c, 11, 79, 75
15, 306960, Note_off_c, 11, 79, 64
15, 306960, Note_on_c, 11, 77, 75
15, 307080, Note_off_c, 11, 77, 64
15, 307080, Note_on_c, 11, 79, 75
15, 307195, Note_off_c, 11, 79, 64
15, 307200, Note_on_c, 11, 80, 75
15, 307600, Note_off_c, 11, 80, 64
15, 307680, Note_on_c, 11, 82, 75
15, 308080, Note_off_c, 11, 82, 64
15, 308280, Note_on_c, 11, 84, 75
15, 308400, Note_off_c, 11, 84, 64
15, 308400, Note_on_c, 11, 82, 75
15, 308520, Note_off_c, 11, 82, 64
15, 308520, Note_on_c, 11, 84, 75
15, 308635, Note_off_c, 11, 84, 64
15, 308640, Note_on_c, 11, 77, 75
15, 309040, Note_off_c, 11, 77, 64
15, 309120, Note_on_c, 11, 79, 75
15, 309520, Note_off_c, 11, 79, 64
15, 309720, Note_on_c, 11, 80, 75
15, 309840, Note_off_c, 11, 80, 64
15, 309840, Note_on_c, 11, 79, 75
15, 309960, Note_off_c, 11, 79, 64
15, 309960, Note_on_c, 11, 80, 75
15, 310075, Note_off_c, 11, 80, 64
15, 310080, Note_on_c, 11, 74, 75
15, 310315, Note_off_c, 11, 74, 64
15, 310320, Note_on_c, 11, 74, 75
15, 310560, Note_off_c, 11, 74, 64
15, 310560, Note_on_c, 11, 75, 75
15, 310960, Note_off_c, 11, 75, 64
15, 311160, Note_on_c, 11, 77, 75
15, 311280, Note_off_c, 11, 77, 64
15, 311280, Note_on_c, 11, 75, 75
15, 311400, Note_off_c, 11, 75, 64
15, 311400, Note_on_c, 11, 77, 75
15, 311515, Note_off_c, 11, 77, 64
15, 311520, Note_on_c, 11, 72, 75
15, 311755, Note_off_c, 11, 72, 64
15, 311760, Note_on_c, 11, 72, 75
15, 312000, Note_off_c, 11, 72, 64
15, 312000, Note_on_c, 11, 74, 75
15, 312400, Note_off_c, 11, 74, 64
15, 312600, Note_on_c, 11, 75, 75
15, 312720, Note_off_c, 11, 75, 64
15, 312720, Note_on_c, 11, 74, 75
15, 312840, Note_off_c, 11, 74, 64
15, 312840, Note_on_c, 11, 75, 75
15, 312955, Note_off_c, 11, 75, 64
15, 313080, Note_on_c, 11, 75, 75
15, 313200, Note_off_c, 11, 75, 64
15, 313200, Note_on_c, 11, 74, 75
15, 313320, Note_off_c, 11, 74, 64
15, 313320, Note_on_c, 11, 75, 75
15, 313435, Note_off_c, 11, 75, 64
15, 313560, Note_on_c, 11, 75, 75
15, 313680, Note_off_c, 11, 75, 64
15, 313680, Note_on_c, 11, 74, 75
15, 313800, Note_off_c, 11, 74, 64
15, 313800, Note_on_c, 11, 75, 75
15, 313915, Note_off_c, 11, 75, 64
15, 314040, Note_on_c, 11, 74, 75
15, 314160, Note_off_c, 11, 74, 64
15, 314160, Note_on_c, 11, 72, 75
15, 314280, Note_off_c, 11, 72, 64
15, 314280, Note_on_c, 11, 74, 75
15, 314395, Note_off_c, 11, 74, 64
15, 314520, Note_on_c, 11, 72, 75
15, 314640, Note_off_c, 11, 72, 64
15, 314640, Note_on_c, 11, 70, 75
15, 314760, Note_off_c, 11, 70, 64
15, 314760, Note_on_c, 11, 72, 75
15, 314875, Note_off_c, 11, 72, 64
15, 315000, Note_on_c, 11, 72, 75
15, 315120, Note_off_c, 11, 72, 64
15, 315120, Note_on_c, 11, 70, 75
15, 315240, Note_off_c, 11, 70, 64
15, 315240, Note_on_c, 11, 72, 75
15, 315355, Note_off_c, 11, 72, 64
15, 315480, Note_on_c, 11, 70, 75
15, 315600, Note_off_c, 11, 70, 64
15, 315600, Note_on_c, 11, 69, 75
15, 315720, Note_off_c, 11, 69, 64
15, 315720, Note_on_c, 11, 70, 75
15, 315835, Note_off_c, 11, 70, 64
15, 315960, Note_on_c, 11, 70, 75
15, 316080, Note_off_c, 11, 70, 64
15, 316080, Note_on_c, 11, 69, 75
15, 316200, Note_off_c, 11, 69, 64
15, 316200, Note_on_c, 11, 70, 75
15, 316315, Note_off_c, 11, 70, 64
15, 316440, Note_on_c, 11, 72, 76
15, 316560, Note_off_c, 11, 72, 64
15, 316560, Note_on_c, 11, 70, 77
15, 316680, Note_off_c, 11, 70, 64
15, 316680, Note_on_c, 11, 72, 78
15, 316795, Note_off_c, 11, 72, 64
15, 316920, Note_on_c, 11, 69, 80
15, 317040, Note_off_c, 11, 69, 64
15, 317040, Note_on_c, 11, 67, 81
15, 317160, Note_off_c, 11, 67, 64
15, 317160, Note_on_c, 11, 69, 82
15, 317275, Note_off_c, 11, 69, 64
15, 317400, Note_on_c, 11, 69, 86
15, 317520, Note_off_c, 11, 69, 64
15, 317520, Note_on_c, 11, 67, 88
15, 317640, Note_off_c, 11, 67, 64
15, 317640, Note_on_c, 11, 69, 90
15, 317755, Note_off_c, 11, 69, 64
15, 317760, Note_on_c, 11, 70, 92
15, 317880, Note_off_c, 11, 70, 64
15, 317880, Note_on_c, 11, 72, 92
15, 318000, Note_off_c, 11, 72, 64
15, 318000, Note_on_c, 11, 70, 92
15, 318120, Note_off_c, 11, 70, 64
15, 318120, Note_on_c, 11, 72, 92
15, 318235, Note_off_c, 11, 72, 64
15, 318240, Note_on_c, 11, 74, 92
15, 318640, Note_off_c, 11, 74, 64
15, 318840, Note_on_c, 11, 74, 92
15, 318960, Note_off_c, 11, 74, 64
15, 318960, Note_on_c, 11, 72, 92
15, 319080, Note_off_c, 11, 72, 64
15, 319080, Note_on_c, 11, 74, 92
15, 319195, Note_off_c, 11, 74, 64
15, 319200, Note_on_c, 11, 67, 92
15, 319320, Note_off_c, 11, 67, 64
15, 319320, Note_on_c, 11, 79, 92
15, 319440, Note_off_c, 11, 79, 64
15, 319440, Note_on_c, 11, 77, 92
15, 319560, Note_off_c, 11, 77, 64
15, 319560, Note_on_c, 11, 79, 92
15, 319675, Note_off_c, 11, 79, 64
15, 319680, Note_on_c, 11, 75, 92
15, 319800, Note_off_c, 11, 75, 64
15, 319800, Note_on_c, 11, 79, 92
15, 319920, Note_off_c, 11, 79, 64
15, 319920, Note_on_c, 11, 75, 92
15, 320040, Note_off_c, 11, 75, 64
15, 320040, Note_on_c, 11, 79, 92
15, 320155, Note_off_c, 11, 79, 64
15, 320160, Note_on_c, 11, 75, 92
15, 320280, Note_off_c, 11, 75, 64
15, 320280, Note_on_c, 11, 77, 92
15, 320400, Note_off_c, 11, 77, 64
15, 320400, Note_on_c, 11, 75, 92
15, 320520, Note_off_c, 11, 75, 64
15, 320520, Note_on_c, 11, 77, 92
15, 320635, Note_off_c, 11, 77, 64
15, 320640, Note_on_c, 11, 74, 92
15, 320760, Note_off_c, 11, 74, 64
15, 320760, Note_on_c, 11, 75, 92
15, 320880, Note_off_c, 11, 75, 64
15, 320880, Note_on_c, 11, 74, 92
15, 321000, Note_off_c, 11, 74, 64
15, 321000, Note_on_c, 11, 75, 92
15, 321115, Note_off_c, 11, 75, 64
15, 321120, Note_on_c, 11, 72, 92
15, 321240, Note_off_c, 11, 72, 64
15, 321240, Note_on_c, 11, 75, 92
15, 321360, Note_off_c, 11, 75, 64
15, 321360, Note_on_c, 11, 74, 92
15, 321480, Note_off_c, 11, 74, 64
15, 321480, Note_on_c, 11, 77, 92
15, 321595, Note_off_c, 11, 77, 64
15, 321600, Note_on_c, 11, 75, 92
15, 321720, Note_off_c, 11, 75, 64
15, 321720, Note_on_c, 11, 79, 92
15, 321840, Note_off_c, 11, 79, 64
15, 321840, Note_on_c, 11, 78, 92
15, 321960, Note_off_c, 11, 78, 64
15, 321960, Note_on_c, 11, 81, 92
15, 322075, Note_off_c, 11, 81, 64
15, 322080, Note_on_c, 11, 79, 92
15, 322200, Note_off_c, 11, 79, 64
15, 322200, Note_on_c, 11, 82, 92
15, 322320, Note_off_c, 11, 82, 64
15, 322320, Note_on_c, 11, 81, 92
15, 322440, Note_off_c, 11, 81, 64
15, 322440, Note_on_c, 11, 79, 92
15, 322555, Note_off_c, 11, 79, 64
15, 322560, Note_on_c, 11, 78, 75
15, 322680, Note_off_c, 11, 78, 64
15, 322680, Note_on_c, 11, 81, 75
15, 322800, Note_off_c, 11, 81, 64
15, 322800, Note_on_c, 11, 79, 75
15, 322920, Note_off_c, 11, 79, 64
15, 322920, Note_on_c, 11, 82, 75
15, 323035, Note_off_c, 11, 82, 64
15, 323040, Note_on_c, 11, 81, 60
15, 323280, Note_off_c, 11, 81, 64
15, 323280, Note_on_c, 11, 74, 60
15, 323515, Note_off_c, 11, 74, 64
15, 353760, Note_on_c, 11, 67, 75
15, 354160, Note_off_c, 11, 67, 64
15, 354240, Note_on_c, 11, 74, 75
15, 355080, Note_off_c, 11, 74, 64
15, 355200, Note_on_c, 11, 70, 75
15, 355600, Note_off_c, 11, 70, 64
15, 355680, Note_on_c, 11, 72, 75
15, 356520, Note_off_c, 11, 72, 64
15, 356640, Note_on_c, 11, 74, 75
15, 357040, Note_off_c, 11, 74, 64
15, 357120, Note_on_c, 11, 75, 75
15, 357960, Note_off_c, 11, 75, 64
15, 358080, Note_on_c, 11, 72, 75
15, 358480, Note_off_c, 11, 72, 64
15, 358560, Note_on_c, 11, 74, 75
15, 359635, Note_off_c, 11, 74, 64
15, 359640, Note_on_c, 11, 74, 75
15, 359760, Note_off_c, 11, 74, 64
15, 359760, Note_on_c, 11, 72, 75
15, 359880, Note_off_c, 11, 72, 64
15, 359880, Note_on_c, 11, 74, 75
15, 359995, Note_off_c, 11, 74, 64
15, 360000, Note_on_c, 11, 75, 75
15, 360120, Note_off_c, 11, 75, 64
15, 360120, Note_on_c, 11, 77, 75
15, 360240, Note_off_c, 11, 77, 64
15, 360240, Note_on_c, 11, 74, 75
15, 360360, Note_off_c, 11, 74, 64
15, 360360, Note_on_c, 11, 76, 75
15, 360475, Note_off_c, 11, 76, 64
15, 360480, Note_on_c, 11, 77, 75
15, 360600, Note_off_c, 11, 77, 64
15, 360600, Note_on_c, 11, 79, 75
15, 360720, Note_off_c, 11, 79, 64
15, 360720, Note_on_c, 11, 76, 75
15, 360840, Note_off_c, 11, 76, 64
15, 360840, Note_on_c, 11, 78, 75
15, 360955, Note_off_c, 11, 78, 64
15, 360960, Note_on_c, 11, 79, 75
15, 361080, Note_off_c, 11, 79, 64
15, 361080, Note_on_c, 11, 81, 75
15, 361200, Note_off_c, 11, 81, 64
15, 361200, Note_on_c, 11, 74, 75
15, 361320, Note_off_c, 11, 74, 64
15, 361320, Note_on_c, 11, 77, 75
15, 361435, Note_off_c, 11, 77, 64
15, 361440, Note_on_c, 11, 75, 75
15, 361560, Note_off_c, 11, 75, 64
15, 361560, Note_on_c, 11, 77, 75
15, 361680, Note_off_c, 11, 77, 64
15, 361680, Note_on_c, 11, 72, 75
15, 361800, Note_off_c, 11, 72, 64
15, 361800, Note_on_c, 11, 75, 75
15, 361915, Note_off_c, 11, 75, 64
15, 361920, Note_on_c, 11, 74, 75
15, 362040, Note_off_c, 11, 74, 64
15, 362040, Note_on_c, 11, 75, 75
15, 362160, Note_off_c, 11, 75, 64
15, 362160, Note_on_c, 11, 70, 75
15, 362280, Note_off_c, 11, 70, 64
15, 362280, Note_on_c, 11, 74, 75
15, 362395, Note_off_c, 11, 74, 64
15, 362400, Note_on_c, 11, 72, 75
15, 362520, Note_off_c, 11, 72, 64
15, 362520, Note_on_c, 11, 74, 75
15, 362640, Note_off_c, 11, 74, 64
15, 362640, Note_on_c, 11, 69, 75
15, 362760, Note_off_c, 11, 69, 64
15, 362760, Note_on_c, 11, 72, 75
15, 362875, Note_off_c, 11, 72, 64
15, 362880, Note_on_c, 11, 71, 75
15, 363000, Note_off_c, 11, 71, 64
15, 363000, Note_on_c, 11, 72, 75
15, 363120, Note_off_c, 11, 72, 64
15, 363120, Note_on_c, 11, 69, 75
15, 363240, Note_off_c, 11, 69, 64
15, 363240, Note_on_c, 11, 71, 75
15, 363355, Note_off_c, 11, 71, 64
15, 363360, Note_on_c, 11, 72, 75
15, 363480, Note_off_c, 11, 72, 64
15, 363480, Note_on_c, 11, 74, 75
15, 363600, Note_off_c, 11, 74, 64
15, 363600, Note_on_c, 11, 75, 75
15, 363720, Note_off_c, 11, 75, 64
15, 363720, Note_on_c, 11, 69, 75
15, 363835, Note_off_c, 11, 69, 64
15, 363840, Note_on_c, 11, 69, 75
15, 363870, Note_off_c, 11, 69, 64
15, 363870, Note_on_c, 11, 71, 75
15, 363900, Note_off_c, 11, 71, 64
15, 363900, Note_on_c, 11, 69, 75
15, 363930, Note_off_c, 11, 69, 64
15, 363930, Note_on_c, 11, 71, 75
15, 363960, Note_off_c, 11, 71, 64
15, 363960, Note_on_c, 11, 69, 75
15, 363990, Note_off_c, 11, 69, 64
15, 363990, Note_on_c, 11, 71, 75
15, 364020, Note_off_c, 11, 71, 64
15, 364020, Note_on_c, 11, 69, 75
15, 364050, Note_off_c, 11, 69, 64
15, 364050, Note_on_c, 11, 71, 75
15, 364080, Note_off_c, 11, 71, 64
15, 364080, Note_on_c, 11, 69, 75
15, 364110, Note_off_c, 11, 69, 64
15, 364110, Note_on_c, 11, 71, 75
15, 364140, Note_off_c, 11, 71, 64
15, 364140, Note_on_c, 11, 69, 75
15, 364170, Note_off_c, 11, 69, 64
15, 364170, Note_on_c, 11, 71, 75
15, 364200, Note_off_c, 11, 71, 64
15, 364200, Note_on_c, 11, 69, 75
15, 364230, Note_off_c, 11, 69, 64
15, 364230, Note_on_c, 11, 71, 75
15, 364260, Note_off_c, 11, 71, 64
15, 364260, Note_on_c, 11, 69, 75
15, 364290, Note_off_c, 11, 69, 64
15, 364290, Note_on_c, 11, 71, 75
15, 364315, Note_off_c, 11, 71, 64
15, 364320, Note_on_c, 11, 67, 75
15, 364440, Note_off_c, 11, 67, 64
15, 364440, Note_on_c, 11, 71, 75
15, 364560, Note_off_c, 11, 71, 64
15, 364560, Note_on_c, 11, 69, 75
15, 364680, Note_off_c, 11, 69, 64
15, 364680, Note_on_c, 11, 72, 75
15, 364795, Note_off_c, 11, 72, 64
15, 364800, Note_on_c, 11, 71, 75
15, 364920, Note_off_c, 11, 71, 64
15, 364920, Note_on_c, 11, 74, 75
15, 365040, Note_off_c, 11, 74, 64
15, 365040, Note_on_c, 11, 72, 75
15, 365160, Note_off_c, 11, 72, 64
15, 365160, Note_on_c, 11, 75, 75
15, 365275, Note_off_c, 11, 75, 64
15, 365280, Note_on_c, 11, 74, 75
15, 365400, Note_off_c, 11, 74, 64
15, 365400, Note_on_c, 11, 77, 75
15, 365520, Note_off_c, 11, 77, 64
15, 365520, Note_on_c, 11, 75, 75
15, 365640, Note_off_c, 11, 75, 64
15, 365640, Note_on_c, 11, 74, 75
15, 365755, Note_off_c, 11, 74, 64
15, 365760, Note_on_c, 11, 75, 75
15, 366160, Note_off_c, 11, 75, 64
15, 366960, Note_on_c, 11, 76, 92
15, 367195, Note_off_c, 11, 76, 64
15, 367200, Note_on_c, 11, 77, 92
15, 367320, Note_off_c, 11, 77, 64
15, 367320, Note_on_c, 11, 80, 92
15, 367440, Note_off_c, 11, 80, 64
15, 367440, Note_on_c, 11, 79, 92
15, 367560, Note_off_c, 11, 79, 64
15, 367560, Note_on_c, 11, 82, 92
15, 367675, Note_off_c, 11, 82, 64
15, 367680, Note_on_c, 11, 80, 92
15, 367915, Note_off_c, 11, 80, 64
15, 367920, Note_on_c, 11, 82, 92
15, 367980, Note_off_c, 11, 82, 64
15, 367980, Note_on_c, 11, 84, 92
15, 368040, Note_off_c, 11, 84, 64
15, 368040, Note_on_c, 11, 82, 92
15, 368100, Note_off_c, 11, 82, 64
15, 368100, Note_on_c, 11, 84, 92
15, 368155, Note_off_c, 11, 84, 64
15, 368160, Note_on_c, 11, 80, 92
15, 368220, Note_off_c, 11, 80, 64
15, 368220, Note_on_c, 11, 82, 92
15, 368280, Note_off_c, 11, 82, 64
15, 368280, Note_on_c, 11, 84, 92
15, 368340, Note_off_c, 11, 84, 64
15, 368340, Note_on_c, 11, 80, 92
15, 368400, Note_off_c, 11, 80, 64
15, 368400, Note_on_c, 11, 79, 92
15, 368520, Note_off_c, 11, 79, 64
15, 368520, Note_on_c, 11, 77, 92
15, 368635, Note_off_c, 11, 77, 64
15, 368640, Note_on_c, 11, 76, 92
15, 368760, Note_off_c, 11, 76, 64
15, 368760, Note_on_c, 11, 79, 92
15, 368880, Note_off_c, 11, 79, 64
15, 368880, Note_on_c, 11, 77, 92
15, 369000, Note_off_c, 11, 77, 64
15, 369000, Note_on_c, 11, 80, 92
15, 369115, Note_off_c, 11, 80, 64
15, 369120, Note_on_c, 11, 79, 92
15, 369240, Note_off_c, 11, 79, 64
15, 369240, Note_on_c, 11, 82, 92
15, 369360, Note_off_c, 11, 82, 64
15, 369360, Note_on_c, 11, 80, 92
15, 369480, Note_off_c, 11, 80, 64
15, 369480, Note_on_c, 11, 79, 92
15, 369595, Note_off_c, 11, 79, 64
15, 369600, Note_on_c, 11, 80, 92
15, 370480, Note_off_c, 11, 80, 64
15, 370560, Note_on_c, 11, 79, 92
15, 370960, Note_off_c, 11, 79, 64
15, 371040, Note_on_c, 11, 78, 92
15, 371440, Note_off_c, 11, 78, 64
15, 371520, Note_on_c, 11, 77, 92
15, 373075, Note_off_c, 11, 77, 64
15, 373080, Note_on_c, 11, 77, 92
15, 373200, Note_off_c, 11, 77, 64
15, 373200, Note_on_c, 11, 79, 92
15, 373320, Note_off_c, 11, 79, 64
15, 373320, Note_on_c, 11, 77, 92
15, 373435, Note_off_c, 11, 77, 64
15, 373440, Note_on_c, 11, 76, 92
15, 373680, Note_off_c, 11, 76, 64
15, 373680, Note_on_c, 11, 77, 92
15, 373915, Note_off_c, 11, 77, 64
15, 373920, Note_on_c, 11, 79, 92
15, 374515, Note_off_c, 11, 79, 64
15, 374520, Note_on_c, 11, 79, 92
15, 374640, Note_off_c, 11, 79, 64
15, 374640, Note_on_c, 11, 80, 92
15, 374760, Note_off_c, 11, 80, 64
15, 374760, Note_on_c, 11, 79, 92
15, 374875, Note_off_c, 11, 79, 64
15, 374880, Note_on_c, 11, 77, 92
15, 375120, Note_off_c, 11, 77, 64
15, 375120, Note_on_c, 11, 79, 92
15, 375355, Note_off_c, 11, 79, 64
15, 375360, Note_on_c, 11, 80, 92
15, 375955, Note_off_c, 11, 80, 64
15, 375960, Note_on_c, 11, 80, 92
15, 376080, Note_off_c, 11, 80, 64
15, 376080, Note_on_c, 11, 82, 92
15, 376200, Note_off_c, 11, 82, 64
15, 376200, Note_on_c, 11, 80, 92
15, 376315, Note_off_c, 11, 80, 64
15, 376320, Note_on_c, 11, 79, 92
15, 376440, Note_off_c, 11, 79, 64
15, 376440, Note_on_c, 11, 82, 92
15, 376560, Note_off_c, 11, 82, 64
15, 376560, Note_on_c, 11, 80, 92
15, 376680, Note_off_c, 11, 80, 64
15, 376680, Note_on_c, 11, 84, 92
15, 376795, Note_off_c, 11, 84, 64
15, 376800, Note_on_c, 11, 82, 92
15, 377395, Note_off_c, 11, 82, 64
15, 377400, Note_on_c, 11, 84, 92
15, 377520, Note_off_c, 11, 84, 64
15, 377520, Note_on_c, 11, 79, 92
15, 377640, Note_off_c, 11, 79, 64
15, 377640, Note_on_c, 11, 82, 92
15, 377755, Note_off_c, 11, 82, 64
15, 377760, Note_on_c, 11, 80, 92
15, 378355, Note_off_c, 11, 80, 64
15, 378360, Note_on_c, 11, 84, 92
15, 378480, Note_off_c, 11, 84, 64
15, 378480, Note_on_c, 11, 80, 92
15, 378600, Note_off_c, 11, 80, 64
15, 378600, Note_on_c, 11, 84, 92
15, 378715, Note_off_c, 11, 84, 64
15, 378720, Note_on_c, 11, 78, 92
15, 379560, Note_off_c, 11, 78, 64
15, 379800, Note_on_c, 11, 79, 92
15, 379920, Note_off_c, 11, 79, 64
15, 379920, Note_on_c, 11, 77, 92
15, 380040, Note_off_c, 11, 77, 64
15, 380040, Note_on_c, 11, 79, 92
15, 380155, Note_off_c, 11, 79, 64
15, 380160, Note_on_c, 11, 75, 92
15, 380560, Note_off_c, 11, 75, 64
15, 380760, Note_on_c, 11, 74, 92
15, 380880, Note_off_c, 11, 74, 64
15, 380880, Note_on_c, 11, 72, 92
15, 381000, Note_off_c, 11, 72, 64
15, 381000, Note_on_c, 11, 74, 92
15, 381115, Note_off_c, 11, 74, 64
15, 381120, Note_on_c, 11, 70, 92
15, 381520, Note_off_c, 11, 70, 64
15, 381720, Note_on_c, 11, 69, 92
15, 381840, Note_off_c, 11, 69, 64
15, 381840, Note_on_c, 11, 67, 92
15, 381960, Note_off_c, 11, 67, 64
15, 381960, Note_on_c, 11, 69, 92
15, 382075, Note_off_c, 11, 69, 64
15, 382080, Note_on_c, 11, 66, 92
15, 382480, Note_off_c, 11, 66, 64
15, 382680, Note_on_c, 11, 67, 92
15, 382800, Note_off_c, 11, 67, 64
15, 382800, Note_on_c, 11, 65, 92
15, 382920, Note_off_c, 11, 65, 64
15, 382920, Note_on_c, 11, 67, 92
15, 383035, Note_off_c, 11, 67, 64
15, 383040, Note_on_c, 11, 63, 92
15, 383440, Note_off_c, 11, 63, 64
15, 383520, Note_on_c, 11, 62, 92
15, 383920, Note_off_c, 11, 62, 64
15, 384120, Note_on_c, 11, 62, 92
15, 384240, Note_off_c, 11, 62, 64
15, 384240, Note_on_c, 11, 60, 92
15, 384360, Note_off_c, 11, 60, 64
15, 384360, Note_on_c, 11, 62, 92
15, 384475, Note_off_c, 11, 62, 64
15, 384480, Note_on_c, 11, 71, 92
15, 384600, Note_off_c, 11, 71, 64
15, 384600, Note_on_c, 11, 74, 92
15, 384720, Note_off_c, 11, 74, 64
15, 384720, Note_on_c, 11, 72, 92
15, 384840, Note_off_c, 11, 72, 64
15, 384840, Note_on_c, 11, 75, 92
15, 384960, Note_off_c, 11, 75, 64
15, 384960, Note_on_c, 11, 74, 92
15, 385080, Note_off_c, 11, 74, 64
15, 385080, Note_on_c, 11, 77, 92
15, 385200, Note_off_c, 11, 77, 64
15, 385200, Note_on_c, 11, 75, 92
15, 385320, Note_off_c, 11, 75, 64
15, 385320, Note_on_c, 11, 79, 92
15, 385440, Note_off_c, 11, 79, 64
15, 385440, Note_on_c, 11, 77, 92
15, 385560, Note_off_c, 11, 77, 64
15, 385560, Note_on_c, 11, 80, 92
15, 385680, Note_off_c, 11, 80, 64
15, 385680, Note_on_c, 11, 79, 92
15, 385800, Note_off_c, 11, 79, 64
15, 385800, Note_on_c, 11, 77, 92
15, 385920, Note_off_c, 11, 77, 64
15, 385920, Note_on_c, 11, 75, 92
15, 386040, Note_off_c, 11, 75, 64
15, 386040, Note_on_c, 11, 79, 92
15, 386160, Note_off_c, 11, 79, 64
15, 386160, Note_on_c, 11, 77, 92
15, 386280, Note_off_c, 11, 77, 64
15, 386280, Note_on_c, 11, 80, 92
15, 386400, Note_off_c, 11, 80, 64
15, 386400, Note_on_c, 11, 79, 92
15, 386520, Note_off_c, 11, 79, 64
15, 386520, Note_on_c, 11, 82, 92
15, 386640, Note_off_c, 11, 82, 64
15, 386640, Note_on_c, 11, 80, 92
15, 386760, Note_off_c, 11, 80, 64
15, 386760, Note_on_c, 11, 84, 92
15, 386875, Note_off_c, 11, 84, 64
15, 386880, Note_on_c, 11, 82, 92
15, 387000, Note_off_c, 11, 82, 64
15, 387000, Note_on_c, 11, 85, 92
15, 387120, Note_off_c, 11, 85, 64
15, 387120, Note_on_c, 11, 84, 92
15, 387240, Note_off_c, 11, 84, 64
15, 387240, Note_on_c, 11, 82, 92
15, 387355, Note_off_c, 11, 82, 64
15, 387360, Note_on_c, 11, 80, 92
15, 387390, Note_off_c, 11, 80, 64
15, 387390, Note_on_c, 11, 82, 92
15, 387420, Note_off_c, 11, 82, 64
15, 387420, Note_on_c, 11, 80, 92
15, 387450, Note_off_c, 11, 80, 64
15, 387450, Note_on_c, 11, 82, 92
15, 387480, Note_off_c, 11, 82, 64
15, 387480, Note_on_c, 11, 80, 92
15, 387510, Note_off_c, 11, 80, 64
15, 387510, Note_on_c, 11, 82, 92
15, 387540, Note_off_c, 11, 82, 64
15, 387540, Note_on_c, 11, 80, 92
15, 387570, Note_off_c, 11, 80, 64
15, 387570, Note_on_c, 11, 82, 92
15, 387600, Note_off_c, 11, 82, 64
15, 387600, Note_on_c, 11, 80, 92
15, 387630, Note_off_c, 11, 80, 64
15, 387630, Note_on_c, 11, 82, 92
15, 387660, Note_off_c, 11, 82, 64
15, 387660, Note_on_c, 11, 80, 92
15, 387690, Note_off_c, 11, 80, 64
15, 387690, Note_on_c, 11, 82, 92
15, 387720, Note_off_c, 11, 82, 64
15, 387720, Note_on_c, 11, 80, 92
15, 387750, Note_off_c, 11, 80, 64
15, 387750, Note_on_c, 11, 82, 92
15, 387780, Note_off_c, 11, 82, 64
15, 387780, Note_on_c, 11, 80, 92
15, 387810, Note_off_c, 11, 80, 64
15, 387810, Note_on_c, 11, 82, 92
15, 387840, Note_off_c, 11, 82, 64
15, 387840, Note_on_c, 11, 80, 92
15, 387870, Note_off_c, 11, 80, 64
15, 387870, Note_on_c, 11, 82, 92
15, 387900, Note_off_c, 11, 82, 64
15, 387900, Note_on_c, 11, 80, 92
15, 387930, Note_off_c, 11, 80, 64
15, 387930, Note_on_c, 11, 82, 92
15, 387960, Note_off_c, 11, 82, 64
15, 387960, Note_on_c, 11, 80, 92
15, 387990, Note_off_c, 11, 80, 64
15, 387990, Note_on_c, 11, 82, 92
15, 388020, Note_off_c, 11, 82, 64
15, 388020, Note_on_c, 11, 80, 92
15, 388050, Note_off_c, 11, 80, 64
15, 388050, Note_on_c, 11, 82, 92
15, 388080, Note_off_c, 11, 82, 64
15, 388080, Note_on_c, 11, 80, 92
15, 388110, Note_off_c, 11, 80, 64
15, 388110, Note_on_c, 11, 82, 92
15, 388140, Note_off_c, 11, 82, 64
15, 388140, Note_on_c, 11, 80, 92
15, 388170, Note_off_c, 11, 80, 64
15, 388170, Note_on_c, 11, 82, 92
15, 388200, Note_off_c, 11, 82, 64
15, 388200, Note_on_c, 11, 80, 92
15, 388230, Note_off_c, 11, 80, 64
15, 388230, Note_on_c, 11, 82, 92
15, 388260, Note_off_c, 11, 82, 64
15, 388260, Note_on_c, 11, 80, 92
15, 388290, Note_off_c, 11, 80, 64
15, 388290, Note_on_c, 11, 82, 92
15, 388315, Note_off_c, 11, 82, 64
15, 388320, Note_on_c, 11, 80, 92
15, 388350, Note_off_c, 11, 80, 64
15, 388350, Note_on_c, 11, 82, 92
15, 388380, Note_off_c, 11, 82, 64
15, 388380, Note_on_c, 11, 80, 92
15, 388410, Note_off_c, 11, 80, 64
15, 388410, Note_on_c, 11, 82, 92
15, 388440, Note_off_c, 11, 82, 64
15, 388440, Note_on_c, 11, 80, 92
15, 388470, Note_off_c, 11, 80, 64
15, 388470, Note_on_c, 11, 82, 92
15, 388500, Note_off_c, 11, 82, 64
15, 388500, Note_on_c, 11, 80, 92
15, 388530, Note_off_c, 11, 80, 64
15, 388530, Note_on_c, 11, 82, 92
15, 388560, Note_off_c, 11, 82, 64
15, 388560, Note_on_c, 11, 80, 92
15, 388590, Note_off_c, 11, 80, 64
15, 388590, Note_on_c, 11, 82, 92
15, 388620, Note_off_c, 11, 82, 64
15, 388620, Note_on_c, 11, 80, 92
15, 388650, Note_off_c, 11, 80, 64
15, 388650, Note_on_c, 11, 82, 92
15, 388680, Note_off_c, 11, 82, 64
15, 388680, Note_on_c, 11, 80, 92
15, 388710, Note_off_c, 11, 80, 64
15, 388710, Note_on_c, 11, 82, 92
15, 388740, Note_off_c, 11, 82, 64
15, 388740, Note_on_c, 11, 80, 92
15, 388770, Note_off_c, 11, 80, 64
15, 388770, Note_on_c, 11, 82, 92
15, 388800, Note_off_c, 11, 82, 64
15, 388800, Note_on_c, 11, 80, 92
15, 388830, Note_off_c, 11, 80, 64
15, 388830, Note_on_c, 11, 82, 92
15, 388860, Note_off_c, 11, 82, 64
15, 388860, Note_on_c, 11, 80, 92
15, 388890, Note_off_c, 11, 80, 64
15, 388890, Note_on_c, 11, 82, 92
15, 388920, Note_off_c, 11, 82, 64
15, 388920, Note_on_c, 11, 80, 92
15, 388950, Note_off_c, 11, 80, 64
15, 388950, Note_on_c, 11, 82, 92
15, 388980, Note_off_c, 11, 82, 64
15, 388980, Note_on_c, 11, 80, 92
15, 389010, Note_off_c, 11, 80, 64
15, 389010, Note_on_c, 11, 82, 92
15, 389040, Note_off_c, 11, 82, 64
15, 389040, Note_on_c, 11, 80, 92
15, 389070, Note_off_c, 11, 80, 64
15, 389070, Note_on_c, 11, 82, 92
15, 389100, Note_off_c, 11, 82, 64
15, 389100, Note_on_c, 11, 80, 92
15, 389130, Note_off_c, 11, 80, 64
15, 389130, Note_on_c, 11, 82, 92
15, 389160, Note_off_c, 11, 82, 64
15, 389160, Note_on_c, 11, 80, 92
15, 389190, Note_off_c, 11, 80, 64
15, 389190, Note_on_c, 11, 82, 92
15, 389220, Note_off_c, 11, 82, 64
15, 389220, Note_on_c, 11, 80, 92
15, 389250, Note_off_c, 11, 80, 64
15, 389250, Note_on_c, 11, 82, 92
15, 389280, Note_off_c, 11, 82, 64
15, 389280, Note_on_c, 11, 80, 92
15, 389310, Note_off_c, 11, 80, 64
15, 389310, Note_on_c, 11, 82, 92
15, 389340, Note_off_c, 11, 82, 64
15, 389340, Note_on_c, 11, 80, 92
15, 389370, Note_off_c, 11, 80, 64
15, 389370, Note_on_c, 11, 82, 92
15, 389400, Note_off_c, 11, 82, 64
15, 389400, Note_on_c, 11, 80, 92
15, 389430, Note_off_c, 11, 80, 64
15, 389430, Note_on_c, 11, 82, 92
15, 389460, Note_off_c, 11, 82, 64
15, 389460, Note_on_c, 11, 80, 92
15, 389490, Note_off_c, 11, 80, 64
15, 389490, Note_on_c, 11, 82, 92
15, 389520, Note_off_c, 11, 82, 64
15, 389520, Note_on_c, 11, 80, 92
15, 389550, Note_off_c, 11, 80, 64
15, 389550, Note_on_c, 11, 82, 92
15, 389580, Note_off_c, 11, 82, 64
15, 389580, Note_on_c, 11, 80, 92
15, 389610, Note_off_c, 11, 80, 64
15, 389610, Note_on_c, 11, 82, 92
15, 389640, Note_off_c, 11, 82, 64
15, 389640, Note_on_c, 11, 80, 92
15, 389670, Note_off_c, 11, 80, 64
15, 389670, Note_on_c, 11, 82, 92
15, 389700, Note_off_c, 11, 82, 64
15, 389700, Note_on_c, 11, 80, 92
15, 389730, Note_off_c, 11, 80, 64
15, 389730, Note_on_c, 11, 82, 92
15, 389755, Note_off_c, 11, 82, 64
15, 389760, Note_on_c, 11, 80, 92
15, 389790, Note_off_c, 11, 80, 64
15, 389790, Note_on_c, 11, 82, 92
15, 389820, Note_off_c, 11, 82, 64
15, 389820, Note_on_c, 11, 80, 92
15, 389850, Note_off_c, 11, 80, 64
15, 389850, Note_on_c, 11, 82, 92
15, 389880, Note_off_c, 11, 82, 64
15, 389880, Note_on_c, 11, 80, 92
15, 389910, Note_off_c, 11, 80, 64
15, 389910, Note_on_c, 11, 82, 92
15, 389940, Note_off_c, 11, 82, 64
15, 389940, Note_on_c, 11, 80, 92
15, 389970, Note_off_c, 11, 80, 64
15, 389970, Note_on_c, 11, 82, 92
15, 390000, Note_off_c, 11, 82, 64
15, 390000, Note_on_c, 11, 80, 92
15, 390030, Note_off_c, 11, 80, 64
15, 390030, Note_on_c, 11, 82, 92
15, 390060, Note_off_c, 11, 82, 64
15, 390060, Note_on_c, 11, 80, 92
15, 390090, Note_off_c, 11, 80, 64
15, 390090, Note_on_c, 11, 82, 92
15, 390120, Note_off_c, 11, 82, 64
15, 390120, Note_on_c, 11, 80, 92
15, 390150, Note_off_c, 11, 80, 64
15, 390150, Note_on_c, 11, 82, 92
15, 390180, Note_off_c, 11, 82, 64
15, 390180, Note_on_c, 11, 80, 92
15, 390210, Note_off_c, 11, 80, 64
15, 390210, Note_on_c, 11, 82, 92
15, 390240, Note_off_c, 11, 82, 64
15, 390240, Note_on_c, 11, 80, 92
15, 390270, Note_off_c, 11, 80, 64
15, 390270, Note_on_c, 11, 82, 92
15, 390300, Note_off_c, 11, 82, 64
15, 390300, Note_on_c, 11, 80, 92
15, 390330, Note_off_c, 11, 80, 64
15, 390330, Note_on_c, 11, 82, 92
15, 390360, Note_off_c, 11, 82, 64
15, 390360, Note_on_c, 11, 80, 92
15, 390390, Note_off_c, 11, 80, 64
15, 390390, Note_on_c, 11, 82, 92
15, 390420, Note_off_c, 11, 82, 64
15, 390420, Note_on_c, 11, 80, 92
15, 390450, Note_off_c, 11, 80, 64
15, 390450, Note_on_c, 11, 82, 92
15, 390480, Note_off_c, 11, 82, 64
15, 390480, Note_on_c, 11, 80, 92
15, 390510, Note_off_c, 11, 80, 64
15, 390510, Note_on_c, 11, 82, 92
15, 390540, Note_off_c, 11, 82, 64
15, 390540, Note_on_c, 11, 80, 92
15, 390570, Note_off_c, 11, 80, 64
15, 390570, Note_on_c, 11, 82, 92
15, 390600, Note_off_c, 11, 82, 64
15, 390600, Note_on_c, 11, 80, 92
15, 390630, Note_off_c, 11, 80, 64
15, 390630, Note_on_c, 11, 82, 92
15, 390660, Note_off_c, 11, 82, 64
15, 390660, Note_on_c, 11, 80, 92
15, 390690, Note_off_c, 11, 80, 64
15, 390690, Note_on_c, 11, 82, 92
15, 390720, Note_off_c, 11, 82, 64
15, 390720, Note_on_c, 11, 80, 92
15, 390750, Note_off_c, 11, 80, 64
15, 390750, Note_on_c, 11, 82, 92
15, 390780, Note_off_c, 11, 82, 64
15, 390780, Note_on_c, 11, 80, 92
15, 390810, Note_off_c, 11, 80, 64
15, 390810, Note_on_c, 11, 82, 92
15, 390840, Note_off_c, 11, 82, 64
15, 390840, Note_on_c, 11, 80, 92
15, 390870, Note_off_c, 11, 80, 64
15, 390870, Note_on_c, 11, 82, 92
15, 390900, Note_off_c, 11, 82, 64
15, 390900, Note_on_c, 11, 80, 92
15, 390930, Note_off_c, 11, 80, 64
15, 390930, Note_on_c, 11, 82, 92
15, 390960, Note_off_c, 11, 82, 64
15, 390960, Note_on_c, 11, 80, 92
15, 390990, Note_off_c, 11, 80, 64
15, 390990, Note_on_c, 11, 82, 92
15, 391020, Note_off_c, 11, 82, 64
15, 391020, Note_on_c, 11, 80, 92
15, 391050, Note_off_c, 11, 80, 64
15, 391050, Note_on_c, 11, 82, 92
15, 391080, Note_off_c, 11, 82, 64
15, 391080, Note_on_c, 11, 80, 92
15, 391110, Note_off_c, 11, 80, 64
15, 391110, Note_on_c, 11, 82, 92
15, 391140, Note_off_c, 11, 82, 64
15, 391140, Note_on_c, 11, 80, 92
15, 391170, Note_off_c, 11, 80, 64
15, 391170, Note_on_c, 11, 82, 92
15, 391195, Note_off_c, 11, 82, 64
15, 391200, Note_on_c, 11, 72, 92
15, 391600, Note_off_c, 11, 72, 64
15, 391680, Note_on_c, 11, 79, 92
15, 392520, Note_off_c, 11, 79, 64
15, 392640, Note_on_c, 11, 75, 92
15, 393040, Note_off_c, 11, 75, 64
15, 393120, Note_on_c, 11, 77, 92
15, 393960, Note_off_c, 11, 77, 64
15, 394080, Note_on_c, 11, 79, 92
15, 394480, Note_off_c, 11, 79, 64
15, 394560, Note_on_c, 11, 80, 92
15, 395400, Note_off_c, 11, 80, 64
15, 395520, Note_on_c, 11, 77, 92
15, 395920, Note_off_c, 11, 77, 64
15, 396000, Note_on_c, 11, 79, 92
15, 399280, Note_off_c, 11, 79, 64
15, 399360, Note_on_c, 11, 77, 92
15, 400720, Note_off_c, 11, 77, 64
15, 400800, Note_on_c, 11, 75, 92
15, 402160, Note_off_c, 11, 75, 64
15, 402240, Note_on_c, 11, 74, 92
15, 403600, Note_off_c, 11, 74, 64
15, 403680, Note_on_c, 11, 72, 92
15, 403800, Note_off_c, 11, 72, 64
15, 403800, Note_on_c, 11, 75, 92
15, 403920, Note_off_c, 11, 75, 64
15, 403920, Note_on_c, 11, 72, 92
15, 404040, Note_off_c, 11, 72, 64
15, 404040, Note_on_c, 11, 75, 92
15, 404155, Note_off_c, 11, 75, 64
15, 404160, Note_on_c, 11, 74, 92
15, 404280, Note_off_c, 11, 74, 64
15, 404280, Note_on_c, 11, 77, 92
15, 404400, Note_off_c, 11, 77, 64
15, 404400, Note_on_c, 11, 74, 92
15, 404520, Note_off_c, 11, 74, 64
15, 404520, Note_on_c, 11, 77, 92
15, 404635, Note_off_c, 11, 77, 64
15, 404640, Note_on_c, 11, 71, 92
15, 404700, Note_off_c, 11, 71, 64
15, 404700, Note_on_c, 11, 72, 92
15, 404760, Note_off_c, 11, 72, 64
15, 404760, Note_on_c, 11, 71, 92
15, 404820, Note_off_c, 11, 71, 64
15, 404820, Note_on_c, 11, 72, 92
15, 404880, Note_off_c, 11, 72, 64
15, 404880, Note_on_c, 11, 71, 92
15, 404940, Note_off_c, 11, 71, 64
15, 404940, Note_on_c, 11, 72, 92
15, 405000, Note_off_c, 11, 72, 64
15, 405000, Note_on_c, 11, 71, 92
15, 405060, Note_off_c, 11, 71, 64
15, 405060, Note_on_c, 11, 72, 92
15, 405120, Note_off_c, 11, 72, 64
15, 405120, Note_on_c, 11, 71, 92
15, 405180, Note_off_c, 11, 71, 64
15, 405180, Note_on_c, 11, 72, 92
15, 405240, Note_off_c, 11, 72, 64
15, 405240, Note_on_c, 11, 71, 92
15, 405300, Note_off_c, 11, 71, 64
15, 405300, Note_on_c, 11, 72, 92
15, 405360, Note_off_c, 11, 72, 64
15, 405360, Note_on_c, 11, 71, 92
15, 405420, Note_off_c, 11, 71, 64
15, 405420, Note_on_c, 11, 72, 92
15, 405480, Note_off_c, 11, 72, 64
15, 405480, Note_on_c, 11, 71, 92
15, 405540, Note_off_c, 11, 71, 64
15, 405540, Note_on_c, 11, 72, 92
15, 405595, Note_off_c, 11, 72, 64
15, 405600, Note_on_c, 11, 79, 92
15, 405660, Note_off_c, 11, 79, 64
15, 405660, Note_on_c, 11, 77, 92
15, 405720, Note_off_c, 11, 77, 64
15, 405720, Note_on_c, 11, 79, 92
15, 405780, Note_off_c, 11, 79, 64
15, 405780, Note_on_c, 11, 75, 92
15, 405840, Note_off_c, 11, 75, 64
15, 405840, Note_on_c, 11, 79, 92
15, 405900, Note_off_c, 11, 79, 64
15, 405900, Note_on_c, 11, 72, 92
15, 405960, Note_off_c, 11, 72, 64
15, 405960, Note_on_c, 11, 75, 92
15, 406075, Note_off_c, 11, 75, 64
15, 406080, Note_on_c, 11, 71, 92
15, 406480, Note_off_c, 11, 71, 64
15, 406800, Note_on_c, 11, 71, 92
15, 407035, Note_off_c, 11, 71, 64
15, 407040, Note_on_c, 11, 72, 92
15, 407275, Note_off_c, 11, 72, 64
15, 407280, Note_on_c, 11, 72, 92
15, 407515, Note_off_c, 11, 72, 64
15, 407520, Note_on_c, 11, 74, 92
15, 407920, Note_off_c, 11, 74, 64
15, 408240, Note_on_c, 11, 74, 92
15, 408475, Note_off_c, 11, 74, 64
15, 408480, Note_on_c, 11, 75, 92
15, 408715, Note_off_c, 11, 75, 64
15, 408720, Note_on_c, 11, 75, 92
15, 408955, Note_off_c, 11, 75, 64
15, 408960, Note_on_c, 11, 74, 92
15, 409360, Note_off_c, 11, 74, 64
15, 409680, Note_on_c, 11, 74, 92
15, 409915, Note_off_c, 11, 74, 64
15, 409920, Note_on_c, 11, 79, 92
15, 410155, Note_off_c, 11, 79, 64
15, 410160, Note_on_c, 11, 75, 92
15, 410395, Note_off_c, 11, 75, 64
15, 410400, Note_on_c, 11, 80, 92
15, 410800, Note_off_c, 11, 80, 64
15, 411120, Note_on_c, 11, 71, 92
15, 411355, Note_off_c, 11, 71, 64
15, 411360, Note_on_c, 11, 72, 92
15, 411955, Note_off_c, 11, 72, 64
15, 411960, Note_on_c, 11, 75, 92
15, 412080, Note_off_c, 11, 75, 64
15, 412080, Note_on_c, 11, 74, 92
15, 412200, Note_off_c, 11, 74, 64
15, 412200, Note_on_c, 11, 77, 92
15, 412315, Note_off_c, 11, 77, 64
15, 412320, Note_on_c, 11, 75, 92
15, 412440, Note_off_c, 11, 75, 64
15, 412440, Note_on_c, 11, 79, 92
15, 412560, Note_off_c, 11, 79, 64
15, 412560, Note_on_c, 11, 77, 92
15, 412680, Note_off_c, 11, 77, 64
15, 412680, Note_on_c, 11, 80, 92
15, 412795, Note_off_c, 11, 80, 64
15, 412800, Note_on_c, 11, 74, 92
15, 412830, Note_off_c, 11, 74, 64
15, 412830, Note_on_c, 11, 75, 92
15, 412860, Note_off_c, 11, 75, 64
15, 412860, Note_on_c, 11, 74, 93
15, 412890, Note_off_c, 11, 74, 64
15, 412890, Note_on_c, 11, 75, 94
15, 412920, Note_off_c, 11, 75, 64
15, 412920, Note_on_c, 11, 74, 95
15, 412950, Note_off_c, 11, 74, 64
15, 412950, Note_on_c, 11, 75, 96
15, 412980, Note_off_c, 11, 75, 64
15, 412980, Note_on_c, 11, 74, 96
15, 413010, Note_off_c, 11, 74, 64
15, 413010, Note_on_c, 11, 75, 97
15, 413040, Note_off_c, 11, 75, 64
15, 413040, Note_on_c, 11, 74, 98
15, 413070, Note_off_c, 11, 74, 64
15, 413070, Note_on_c, 11, 75, 99
15, 413100, Note_off_c, 11, 75, 64
15, 413100, Note_on_c, 11, 74, 100
15, 413130, Note_off_c, 11, 74, 64
15, 413130, Note_on_c, 11, 75, 101
15, 413160, Note_off_c, 11, 75, 64
15, 413160, Note_on_c, 11, 74, 102
15, 413190, Note_off_c, 11, 74, 64
15, 413190, Note_on_c, 11, 75, 103
15, 413220, Note_off_c, 11, 75, 64
15, 413220, Note_on_c, 11, 74, 104
15, 413250, Note_off_c, 11, 74, 64
15, 413250, Note_on_c, 11, 75, 105
15, 413280, Note_off_c, 11, 75, 64
15, 413280, Note_on_c, 11, 72, 106
15, 413680, Note_off_c, 11, 72, 64
15, 413880, Note_on_c, 11, 96, 127
15, 414000, Note_off_c, 11, 96, 64
15, 414000, Note_on_c, 11, 94, 127
15, 414120, Note_off_c, 11, 94, 64
15, 414120, Note_on_c, 11, 96, 127
15, 414240, Note_off_c, 11, 96, 64
15, 414240, Note_on_c, 11, 92, 127
15, 414360, Note_off_c, 11, 92, 64
15, 414360, Note_on_c, 11, 96, 127
15, 414480, Note_off_c, 11, 96, 64
15, 414480, Note_on_c, 11, 89, 127
15, 414600, Note_off_c, 11, 89, 64
15, 414600, Note_on_c, 11, 92, 127
15, 414720, Note_off_c, 11, 92, 64
15, 414720, Note_on_c, 11, 88, 127
15, 415200, Note_off_c, 11, 88, 64
15, 415440, Note_on_c, 11, 88, 127
15, 415680, Note_off_c, 11, 88, 64
15, 415680, Note_on_c, 11, 89, 127
15, 415920, Note_off_c, 11, 89, 64
15, 415920, Note_on_c, 11, 89, 127
15, 416160, Note_off_c, 11, 89, 64
15, 416160, Note_on_c, 11, 91, 127
15, 416640, Note_off_c, 11, 91, 64
15, 416880, Note_on_c, 11, 91, 127
15, 417120, Note_off_c, 11, 91, 64
15, 417120, Note_on_c, 11, 92, 127
15, 417360, Note_off_c, 11, 92, 64
15, 417360, Note_on_c, 11, 92, 127
15, 417600, Note_off_c, 11, 92, 64
15, 417600, Note_on_c, 11, 91, 127
15, 417720, Note_off_c, 11, 91, 64
15, 417720, Note_on_c, 11, 94, 127
15, 417835, Note_off_c, 11, 94, 64
15, 417840, Note_on_c, 11, 92, 127
15, 417955, Note_off_c, 11, 92, 64
15, 417960, Note_on_c, 11, 94, 127
15, 418075, Note_off_c, 11, 94, 64
15, 418080, Note_on_c, 11, 91, 127
15, 418800, Note_off_c, 11, 91, 64
15, 418800, Note_on_c, 11, 89, 127
15, 419155, Note_off_c, 11, 89, 64
15, 419160, Note_on_c, 11, 89, 127
15, 419275, Note_off_c, 11, 89, 64
15, 419280, Note_on_c, 11, 88, 127
15, 419395, Note_off_c, 11, 88, 64
15, 419400, Note_on_c, 11, 89, 127
15, 419515, Note_off_c, 11, 89, 64
15, 419520, Note_on_c, 11, 83, 127
15, 420115, Note_off_c, 11, 83, 64
15, 420120, Note_on_c, 11, 86, 127
15, 420240, Note_off_c, 11, 86, 64
15, 420240, Note_on_c, 11, 83, 127
15, 420360, Note_off_c, 11, 83, 64
15, 420360, Note_on_c, 11, 86, 127
15, 420480, Note_off_c, 11, 86, 64
15, 420480, Note_on_c, 11, 84, 127
15, 420480, Note_on_c, 11, 76, 127
15, 421800, Note_off_c, 11, 76, 64
15, 421800, Note_off_c, 11, 84, 64
15, 421800, End_track
16, 0, Start_track
16, 0, MIDI_port, 0
16, 0, Channel_prefix, 12
16, 0, Control_c, 12, 7, 127
16, 0, Control_c, 12, 10, 32
16, 0, Control_c, 12, 91, 127
16, 0, Program_c, 12, 48
16, 12720, Note_on_c, 12, 67, 30
16, 13360, Note_off_c, 12, 67, 64
16, 13440, Note_on_c, 12, 67, 30
16, 13920, Note_off_c, 12, 67, 64
16, 14160, Note_on_c, 12, 72, 30
16, 14800, Note_off_c, 12, 72, 64
16, 14880, Note_on_c, 12, 68, 30
16, 15280, Note_off_c, 12, 68, 64
16, 15600, Note_on_c, 12, 67, 30
16, 16075, Note_off_c, 12, 67, 64
16, 16080, Note_on_c, 12, 65, 30
16, 16720, Note_off_c, 12, 65, 64
16, 17040, Note_on_c, 12, 68, 30
16, 17680, Note_off_c, 12, 68, 64
16, 17760, Note_on_c, 12, 67, 30
16, 18160, Note_off_c, 12, 67, 64
16, 18480, Note_on_c, 12, 71, 30
16, 19120, Note_off_c, 12, 71, 64
16, 19200, Note_on_c, 12, 72, 30
16, 19600, Note_off_c, 12, 72, 64
16, 19920, Note_on_c, 12, 68, 30
16, 20560, Note_off_c, 12, 68, 64
16, 20640, Note_on_c, 12, 67, 30
16, 21040, Note_off_c, 12, 67, 64
16, 21360, Note_on_c, 12, 68, 30
16, 21840, Note_off_c, 12, 68, 64
16, 21840, Note_on_c, 12, 67, 30
16, 22075, Note_off_c, 12, 67, 64
16, 22080, Note_on_c, 12, 65, 30
16, 22480, Note_off_c, 12, 65, 64
16, 22800, Note_on_c, 12, 65, 30
16, 23400, Note_off_c, 12, 65, 64
16, 23400, Note_on_c, 12, 67, 30
16, 23515, Note_off_c, 12, 67, 64
16, 23520, Note_on_c, 12, 63, 30
16, 23920, Note_off_c, 12, 63, 64
16, 24240, Note_on_c, 12, 67, 30
16, 24880, Note_off_c, 12, 67, 64
16, 24960, Note_on_c, 12, 67, 30
16, 25360, Note_off_c, 12, 67, 64
16, 25680, Note_on_c, 12, 67, 30
16, 26320, Note_off_c, 12, 67, 64
16, 26400, Note_on_c, 12, 65, 30
16, 26800, Note_off_c, 12, 65, 64
16, 27120, Note_on_c, 12, 63, 30
16, 27760, Note_off_c, 12, 63, 64
16, 27840, Note_on_c, 12, 62, 30
16, 28240, Note_off_c, 12, 62, 64
16, 28560, Note_on_c, 12, 63, 30
16, 29200, Note_off_c, 12, 63, 64
16, 29280, Note_on_c, 12, 62, 30
16, 29680, Note_off_c, 12, 62, 64
16, 30000, Note_on_c, 12, 59, 30
16, 30640, Note_off_c, 12, 59, 64
16, 30720, Note_on_c, 12, 60, 30
16, 31120, Note_off_c, 12, 60, 64
16, 31440, Note_on_c, 12, 56, 30
16, 31915, Note_off_c, 12, 56, 64
16, 31920, Note_on_c, 12, 55, 30
16, 32560, Note_off_c, 12, 55, 64
16, 32880, Note_on_c, 12, 56, 31
16, 33520, Note_off_c, 12, 56, 64
16, 33600, Note_on_c, 12, 56, 34
16, 34000, Note_off_c, 12, 56, 64
16, 34080, Note_on_c, 12, 55, 36
16, 34440, Note_off_c, 12, 55, 64
16, 34440, Note_on_c, 12, 65, 37
16, 34555, Note_off_c, 12, 65, 64
16, 34560, Note_on_c, 12, 63, 37
16, 34960, Note_off_c, 12, 63, 64
16, 36240, Note_on_c, 12, 62, 45
16, 36480, Note_off_c, 12, 62, 64
16, 36480, Note_on_c, 12, 67, 45
16, 36720, Note_off_c, 12, 67, 64
16, 36720, Note_on_c, 12, 68, 45
16, 36955, Note_off_c, 12, 68, 64
16, 36960, Note_on_c, 12, 70, 45
16, 37200, Note_off_c, 12, 70, 64
16, 37200, Note_on_c, 12, 72, 45
16, 37435, Note_off_c, 12, 72, 64
16, 37440, Note_on_c, 12, 68, 45
16, 38160, Note_off_c, 12, 68, 64
16, 38160, Note_on_c, 12, 68, 45
16, 38395, Note_off_c, 12, 68, 64
16, 38400, Note_on_c, 12, 67, 45
16, 38640, Note_off_c, 12, 67, 64
16, 38640, Note_on_c, 12, 65, 45
16, 38880, Note_off_c, 12, 65, 64
16, 38880, Note_on_c, 12, 63, 45
16, 39115, Note_off_c, 12, 63, 64
16, 39120, Note_on_c, 12, 60, 45
16, 39360, Note_off_c, 12, 60, 64
16, 39360, Note_on_c, 12, 65, 45
16, 39600, Note_off_c, 12, 65, 64
16, 39600, Note_on_c, 12, 67, 45
16, 39835, Note_off_c, 12, 67, 64
16, 39840, Note_on_c, 12, 68, 45
16, 40555, Note_off_c, 12, 68, 64
16, 40560, Note_on_c, 12, 68, 45
16, 40795, Note_off_c, 12, 68, 64
16, 40800, Note_on_c, 12, 67, 45
16, 41040, Note_off_c, 12, 67, 64
16, 41040, Note_on_c, 12, 72, 45
16, 41275, Note_off_c, 12, 72, 64
16, 41280, Note_on_c, 12, 71, 45
16, 41680, Note_off_c, 12, 71, 64
16, 41760, Note_on_c, 12, 72, 45
16, 42480, Note_off_c, 12, 72, 64
16, 42480, Note_on_c, 12, 68, 45
16, 42715, Note_off_c, 12, 68, 64
16, 42720, Note_on_c, 12, 67, 45
16, 42960, Note_off_c, 12, 67, 64
16, 42960, Note_on_c, 12, 65, 45
16, 43200, Note_off_c, 12, 65, 64
16, 43200, Note_on_c, 12, 63, 45
16, 43440, Note_off_c, 12, 63, 64
16, 43440, Note_on_c, 12, 62, 45
16, 43675, Note_off_c, 12, 62, 64
16, 43680, Note_on_c, 12, 60, 45
16, 44875, Note_off_c, 12, 60, 64
16, 44880, Note_on_c, 12, 59, 45
16, 45120, Note_off_c, 12, 59, 64
16, 45120, Note_on_c, 12, 60, 45
16, 45360, Note_off_c, 12, 60, 64
16, 45360, Note_on_c, 12, 62, 45
16, 45595, Note_off_c, 12, 62, 64
16, 45600, Note_on_c, 12, 63, 45
16, 45840, Note_off_c, 12, 63, 64
16, 45840, Note_on_c, 12, 65, 45
16, 46075, Note_off_c, 12, 65, 64
16, 46080, Note_on_c, 12, 67, 45
16, 46480, Note_off_c, 12, 67, 64
16, 46800, Note_on_c, 12, 60, 45
16, 46920, Note_off_c, 12, 60, 64
16, 46920, Note_on_c, 12, 62, 45
16, 47040, Note_off_c, 12, 62, 64
16, 47040, Note_on_c, 12, 63, 45
16, 47275, Note_off_c, 12, 63, 64
16, 47280, Note_on_c, 12, 63, 45
16, 47400, Note_off_c, 12, 63, 64
16, 47400, Note_on_c, 12, 65, 45
16, 47520, Note_off_c, 12, 65, 64
16, 47520, Note_on_c, 12, 67, 45
16, 48715, Note_off_c, 12, 67, 64
16, 48720, Note_on_c, 12, 65, 45
16, 48840, Note_off_c, 12, 65, 64
16, 48840, Note_on_c, 12, 67, 45
16, 48960, Note_off_c, 12, 67, 64
16, 48960, Note_on_c, 12, 68, 45
16, 50155, Note_off_c, 12, 68, 64
16, 50160, Note_on_c, 12, 67, 45
16, 50280, Note_off_c, 12, 67, 64
16, 50280, Note_on_c, 12, 65, 45
16, 50400, Note_off_c, 12, 65, 64
16, 50400, Note_on_c, 12, 63, 45
16, 51040, Note_off_c, 12, 63, 64
16, 51120, Note_on_c, 12, 62, 45
16, 51240, Note_off_c, 12, 62, 64
16, 51240, Note_on_c, 12, 63, 45
16, 51355, Note_off_c, 12, 63, 64
16, 51360, Note_on_c, 12, 65, 45
16, 51600, Note_off_c, 12, 65, 64
16, 51600, Note_on_c, 12, 68, 45
16, 51840, Note_off_c, 12, 68, 64
16, 51840, Note_on_c, 12, 67, 45
16, 52075, Note_off_c, 12, 67, 64
16, 52080, Note_on_c, 12, 67, 45
16, 52200, Note_off_c, 12, 67, 64
16, 52200, Note_on_c, 12, 69, 45
16, 52320, Note_off_c, 12, 69, 64
16, 52320, Note_on_c, 12, 71, 45
16, 52555, Note_off_c, 12, 71, 64
16, 52560, Note_on_c, 12, 71, 45
16, 52680, Note_off_c, 12, 71, 64
16, 52680, Note_on_c, 12, 72, 45
16, 52795, Note_off_c, 12, 72, 64
16, 52800, Note_on_c, 12, 74, 45
16, 53280, Note_off_c, 12, 74, 64
16, 53280, Note_on_c, 12, 72, 45
16, 53515, Note_off_c, 12, 72, 64
16, 53520, Note_on_c, 12, 75, 45
16, 53640, Note_off_c, 12, 75, 64
16, 53640, Note_on_c, 12, 74, 45
16, 53760, Note_off_c, 12, 74, 64
16, 53760, Note_on_c, 12, 75, 45
16, 53995, Note_off_c, 12, 75, 64
16, 54000, Note_on_c, 12, 72, 45
16, 54240, Note_off_c, 12, 72, 64
16, 54240, Note_on_c, 12, 67, 45
16, 55120, Note_off_c, 12, 67, 64
16, 55440, Note_on_c, 12, 63, 45
16, 55560, Note_off_c, 12, 63, 64
16, 55560, Note_on_c, 12, 62, 45
16, 55680, Note_off_c, 12, 62, 64
16, 55680, Note_on_c, 12, 63, 45
16, 55915, Note_off_c, 12, 63, 64
16, 55920, Note_on_c, 12, 60, 45
16, 56040, Note_off_c, 12, 60, 64
16, 56040, Note_on_c, 12, 59, 45
16, 56160, Note_off_c, 12, 59, 64
16, 56160, Note_on_c, 12, 60, 45
16, 56395, Note_off_c, 12, 60, 64
16, 56400, Note_on_c, 12, 63, 45
16, 56520, Note_off_c, 12, 63, 64
16, 56520, Note_on_c, 12, 62, 45
16, 56640, Note_off_c, 12, 62, 64
16, 56640, Note_on_c, 12, 63, 45
16, 56875, Note_off_c, 12, 63, 64
16, 56880, Note_on_c, 12, 60, 46
16, 57355, Note_off_c, 12, 60, 64
16, 57360, Note_on_c, 12, 59, 50
16, 57600, Note_off_c, 12, 59, 64
16, 57600, Note_on_c, 12, 55, 52
16, 58000, Note_off_c, 12, 55, 64
16, 58800, Note_on_c, 12, 67, 60
16, 58920, Note_off_c, 12, 67, 64
16, 58920, Note_on_c, 12, 66, 60
16, 59040, Note_off_c, 12, 66, 64
16, 59040, Note_on_c, 12, 67, 60
16, 59275, Note_off_c, 12, 67, 64
16, 59280, Note_on_c, 12, 74, 60
16, 59400, Note_off_c, 12, 74, 64
16, 59400, Note_on_c, 12, 62, 60
16, 59515, Note_off_c, 12, 62, 64
16, 59520, Note_on_c, 12, 67, 60
16, 59920, Note_off_c, 12, 67, 64
16, 60240, Note_on_c, 12, 67, 60
16, 60360, Note_off_c, 12, 67, 64
16, 60360, Note_on_c, 12, 63, 60
16, 60475, Note_off_c, 12, 63, 64
16, 60480, Note_on_c, 12, 68, 60
16, 61200, Note_off_c, 12, 68, 64
16, 61200, Note_on_c, 12, 65, 60
16, 61435, Note_off_c, 12, 65, 64
16, 61440, Note_on_c, 12, 67, 60
16, 61840, Note_off_c, 12, 67, 64
16, 61920, Note_on_c, 12, 63, 60
16, 62320, Note_off_c, 12, 63, 64
16, 63120, Note_on_c, 12, 74, 60
16, 63240, Note_off_c, 12, 74, 64
16, 63240, Note_on_c, 12, 77, 60
16, 63355, Note_off_c, 12, 77, 64
16, 63360, Note_on_c, 12, 71, 60
16, 63760, Note_off_c, 12, 71, 64
16, 64560, Note_on_c, 12, 67, 60
16, 64680, Note_off_c, 12, 67, 64
16, 64680, Note_on_c, 12, 65, 60
16, 64795, Note_off_c, 12, 65, 64
16, 64800, Note_on_c, 12, 67, 60
16, 65200, Note_off_c, 12, 67, 64
16, 66000, Note_on_c, 12, 67, 60
16, 66235, Note_off_c, 12, 67, 64
16, 66240, Note_on_c, 12, 67, 60
16, 66640, Note_off_c, 12, 67, 64
16, 67440, Note_on_c, 12, 74, 60
16, 67560, Note_off_c, 12, 74, 64
16, 67560, Note_on_c, 12, 69, 60
16, 67680, Note_off_c, 12, 69, 64
16, 67680, Note_on_c, 12, 71, 60
16, 68080, Note_off_c, 12, 71, 64
16, 68400, Note_on_c, 12, 72, 60
16, 68520, Note_off_c, 12, 72, 64
16, 68520, Note_on_c, 12, 69, 60
16, 68635, Note_off_c, 12, 69, 64
16, 68640, Note_on_c, 12, 71, 60
16, 69040, Note_off_c, 12, 71, 64
16, 69120, Note_on_c, 12, 67, 60
16, 69520, Note_off_c, 12, 67, 64
16, 69720, Note_on_c, 12, 62, 60
16, 69840, Note_off_c, 12, 62, 64
16, 69840, Note_on_c, 12, 63, 60
16, 69960, Note_off_c, 12, 63, 64
16, 69960, Note_on_c, 12, 65, 60
16, 70075, Note_off_c, 12, 65, 64
16, 70080, Note_on_c, 12, 67, 60
16, 70960, Note_off_c, 12, 67, 64
16, 71160, Note_on_c, 12, 67, 60
16, 71280, Note_off_c, 12, 67, 64
16, 71280, Note_on_c, 12, 69, 60
16, 71400, Note_off_c, 12, 69, 64
16, 71400, Note_on_c, 12, 71, 60
16, 71515, Note_off_c, 12, 71, 64
16, 71520, Note_on_c, 12, 72, 60
16, 72400, Note_off_c, 12, 72, 64
16, 72600, Note_on_c, 12, 69, 60
16, 72720, Note_off_c, 12, 69, 64
16, 72720, Note_on_c, 12, 71, 60
16, 72840, Note_off_c, 12, 71, 64
16, 72840, Note_on_c, 12, 72, 60
16, 72955, Note_off_c, 12, 72, 64
16, 72960, Note_on_c, 12, 71, 60
16, 73200, Note_off_c, 12, 71, 64
16, 73200, Note_on_c, 12, 67, 60
16, 73840, Note_off_c, 12, 67, 64
16, 74040, Note_on_c, 12, 67, 60
16, 74160, Note_off_c, 12, 67, 64
16, 74160, Note_on_c, 12, 68, 60
16, 74280, Note_off_c, 12, 68, 64
16, 74280, Note_on_c, 12, 70, 60
16, 74395, Note_off_c, 12, 70, 64
16, 74400, Note_on_c, 12, 72, 60
16, 74640, Note_off_c, 12, 72, 64
16, 74640, Note_on_c, 12, 68, 60
16, 74875, Note_off_c, 12, 68, 64
16, 74880, Note_on_c, 12, 67, 60
16, 75280, Note_off_c, 12, 67, 64
16, 75480, Note_on_c, 12, 57, 60
16, 75600, Note_off_c, 12, 57, 64
16, 75600, Note_on_c, 12, 59, 60
16, 75720, Note_off_c, 12, 59, 64
16, 75720, Note_on_c, 12, 60, 60
16, 75835, Note_off_c, 12, 60, 64
16, 75840, Note_on_c, 12, 62, 60
16, 76240, Note_off_c, 12, 62, 64
16, 76320, Note_on_c, 12, 60, 60
16, 76720, Note_off_c, 12, 60, 64
16, 76920, Note_on_c, 12, 62, 60
16, 77040, Note_off_c, 12, 62, 64
16, 77040, Note_on_c, 12, 63, 60
16, 77160, Note_off_c, 12, 63, 64
16, 77160, Note_on_c, 12, 65, 60
16, 77275, Note_off_c, 12, 65, 64
16, 77280, Note_on_c, 12, 67, 60
16, 78160, Note_off_c, 12, 67, 64
16, 78360, Note_on_c, 12, 63, 60
16, 78480, Note_off_c, 12, 63, 64
16, 78480, Note_on_c, 12, 65, 60
16, 78600, Note_off_c, 12, 65, 64
16, 78600, Note_on_c, 12, 67, 60
16, 78715, Note_off_c, 12, 67, 64
16, 78720, Note_on_c, 12, 68, 60
16, 79120, Note_off_c, 12, 68, 64
16, 79200, Note_on_c, 12, 67, 60
16, 80275, Note_off_c, 12, 67, 64
16, 80280, Note_on_c, 12, 68, 60
16, 80400, Note_off_c, 12, 68, 64
16, 80400, Note_on_c, 12, 67, 60
16, 80520, Note_off_c, 12, 67, 64
16, 80520, Note_on_c, 12, 65, 60
16, 80635, Note_off_c, 12, 65, 64
16, 80640, Note_on_c, 12, 63, 60
16, 81040, Note_off_c, 12, 63, 64
16, 81240, Note_on_c, 12, 65, 60
16, 81360, Note_off_c, 12, 65, 64
16, 81360, Note_on_c, 12, 63, 60
16, 81480, Note_off_c, 12, 63, 64
16, 81480, Note_on_c, 12, 62, 60
16, 81595, Note_off_c, 12, 62, 64
16, 81600, Note_on_c, 12, 60, 60
16, 81720, Note_off_c, 12, 60, 64
16, 81720, Note_on_c, 12, 63, 60
16, 81840, Note_off_c, 12, 63, 64
16, 81840, Note_on_c, 12, 62, 60
16, 81960, Note_off_c, 12, 62, 64
16, 81960, Note_on_c, 12, 60, 60
16, 82075, Note_off_c, 12, 60, 64
16, 82080, Note_on_c, 12, 59, 60
16, 82480, Note_off_c, 12, 59, 64
16, 82680, Note_on_c, 12, 72, 60
16, 82800, Note_off_c, 12, 72, 64
16, 82800, Note_on_c, 12, 71, 60
16, 82920, Note_off_c, 12, 71, 64
16, 82920, Note_on_c, 12, 69, 60
16, 83035, Note_off_c, 12, 69, 64
16, 83040, Note_on_c, 12, 67, 60
16, 83160, Note_off_c, 12, 67, 64
16, 83160, Note_on_c, 12, 69, 60
16, 83280, Note_off_c, 12, 69, 64
16, 83280, Note_on_c, 12, 67, 60
16, 83400, Note_off_c, 12, 67, 64
16, 83400, Note_on_c, 12, 70, 60
16, 83515, Note_off_c, 12, 70, 64
16, 83520, Note_on_c, 12, 68, 60
16, 83920, Note_off_c, 12, 68, 64
16, 84600, Note_on_c, 12, 68, 60
16, 84720, Note_off_c, 12, 68, 64
16, 84720, Note_on_c, 12, 67, 60
16, 84840, Note_off_c, 12, 67, 64
16, 84840, Note_on_c, 12, 65, 60
16, 84955, Note_off_c, 12, 65, 64
16, 84960, Note_on_c, 12, 63, 60
16, 85360, Note_off_c, 12, 63, 64
16, 86040, Note_on_c, 12, 67, 60
16, 86160, Note_off_c, 12, 67, 64
16, 86160, Note_on_c, 12, 65, 60
16, 86280, Note_off_c, 12, 65, 64
16, 86280, Note_on_c, 12, 63, 60
16, 86395, Note_off_c, 12, 63, 64
16, 86400, Note_on_c, 12, 62, 60
16, 86800, Note_off_c, 12, 62, 64
16, 87000, Note_on_c, 12, 72, 60
16, 87120, Note_off_c, 12, 72, 64
16, 87120, Note_on_c, 12, 71, 60
16, 87240, Note_off_c, 12, 71, 64
16, 87240, Note_on_c, 12, 69, 60
16, 87355, Note_off_c, 12, 69, 64
16, 87360, Note_on_c, 12, 71, 60
16, 87760, Note_off_c, 12, 71, 64
16, 87840, Note_on_c, 12, 72, 60
16, 88240, Note_off_c, 12, 72, 64
16, 88440, Note_on_c, 12, 67, 60
16, 88560, Note_off_c, 12, 67, 64
16, 88560, Note_on_c, 12, 65, 60
16, 88680, Note_off_c, 12, 65, 64
16, 88680, Note_on_c, 12, 63, 60
16, 88800, Note_off_c, 12, 63, 64
16, 88800, Note_on_c, 12, 65, 60
16, 88915, Note_off_c, 12, 65, 64
16, 88920, Note_on_c, 12, 68, 60
16, 89040, Note_off_c, 12, 68, 64
16, 89040, Note_on_c, 12, 67, 60
16, 89160, Note_off_c, 12, 67, 64
16, 89160, Note_on_c, 12, 65, 60
16, 89275, Note_off_c, 12, 65, 64
16, 89280, Note_on_c, 12, 63, 60
16, 89680, Note_off_c, 12, 63, 64
16, 89880, Note_on_c, 12, 70, 60
16, 90000, Note_off_c, 12, 70, 64
16, 90000, Note_on_c, 12, 68, 60
16, 90120, Note_off_c, 12, 68, 64
16, 90120, Note_on_c, 12, 67, 60
16, 90235, Note_off_c, 12, 67, 64
16, 90240, Note_on_c, 12, 65, 60
16, 90600, Note_off_c, 12, 65, 64
16, 90600, Note_on_c, 12, 63, 60
16, 90715, Note_off_c, 12, 63, 64
16, 90720, Note_on_c, 12, 62, 60
16, 91200, Note_off_c, 12, 62, 64
16, 91200, Note_on_c, 12, 60, 60
16, 91315, Note_off_c, 12, 60, 64
16, 91320, Note_on_c, 12, 63, 60
16, 91440, Note_off_c, 12, 63, 64
16, 91440, Note_on_c, 12, 62, 60
16, 91560, Note_off_c, 12, 62, 64
16, 91560, Note_on_c, 12, 60, 60
16, 91675, Note_off_c, 12, 60, 64
16, 91680, Note_on_c, 12, 59, 60
16, 92080, Note_off_c, 12, 59, 64
16, 92160, Note_on_c, 12, 55, 60
16, 92560, Note_off_c, 12, 55, 64
16, 93720, Note_on_c, 12, 62, 60
16, 93840, Note_off_c, 12, 62, 64
16, 93840, Note_on_c, 12, 63, 60
16, 93960, Note_off_c, 12, 63, 64
16, 93960, Note_on_c, 12, 65, 60
16, 94080, Note_off_c, 12, 65, 64
16, 94080, Note_on_c, 12, 67, 60
16, 94195, Note_off_c, 12, 67, 64
16, 94200, Note_on_c, 12, 71, 60
16, 94320, Note_off_c, 12, 71, 64
16, 94320, Note_on_c, 12, 72, 60
16, 94440, Note_off_c, 12, 72, 64
16, 94440, Note_on_c, 12, 74, 60
16, 94555, Note_off_c, 12, 74, 64
16, 94560, Note_on_c, 12, 75, 60
16, 94680, Note_off_c, 12, 75, 64
16, 94680, Note_on_c, 12, 74, 60
16, 94800, Note_off_c, 12, 74, 64
16, 94800, Note_on_c, 12, 72, 60
16, 94920, Note_off_c, 12, 72, 64
16, 94920, Note_on_c, 12, 71, 60
16, 95040, Note_off_c, 12, 71, 64
16, 95040, Note_on_c, 12, 68, 60
16, 95155, Note_off_c, 12, 68, 64
16, 95160, Note_on_c, 12, 60, 60
16, 95280, Note_off_c, 12, 60, 64
16, 95280, Note_on_c, 12, 62, 60
16, 95400, Note_off_c, 12, 62, 64
16, 95400, Note_on_c, 12, 64, 60
16, 95515, Note_off_c, 12, 64, 64
16, 95520, Note_on_c, 12, 65, 60
16, 95640, Note_off_c, 12, 65, 64
16, 95640, Note_on_c, 12, 67, 60
16, 95760, Note_off_c, 12, 67, 64
16, 95760, Note_on_c, 12, 65, 60
16, 95880, Note_off_c, 12, 65, 64
16, 95880, Note_on_c, 12, 63, 60
16, 95995, Note_off_c, 12, 63, 64
16, 96000, Note_on_c, 12, 62, 60
16, 96120, Note_off_c, 12, 62, 64
16, 96120, Note_on_c, 12, 68, 60
16, 96240, Note_off_c, 12, 68, 64
16, 96240, Note_on_c, 12, 67, 60
16, 96360, Note_off_c, 12, 67, 64
16, 96360, Note_on_c, 12, 65, 60
16, 96475, Note_off_c, 12, 65, 64
16, 96480, Note_on_c, 12, 63, 60
16, 96600, Note_off_c, 12, 63, 64
16, 96600, Note_on_c, 12, 65, 60
16, 96720, Note_off_c, 12, 65, 64
16, 96720, Note_on_c, 12, 63, 60
16, 96840, Note_off_c, 12, 63, 64
16, 96840, Note_on_c, 12, 62, 60
16, 96955, Note_off_c, 12, 62, 64
16, 96960, Note_on_c, 12, 60, 60
16, 97360, Note_off_c, 12, 60, 64
16, 98040, Note_on_c, 12, 66, 60
16, 98160, Note_off_c, 12, 66, 64
16, 98160, Note_on_c, 12, 67, 60
16, 98280, Note_off_c, 12, 67, 64
16, 98280, Note_on_c, 12, 69, 60
16, 98395, Note_off_c, 12, 69, 64
16, 98400, Note_on_c, 12, 71, 60
16, 98520, Note_off_c, 12, 71, 64
16, 98520, Note_on_c, 12, 69, 60
16, 98640, Note_off_c, 12, 69, 64
16, 98640, Note_on_c, 12, 71, 60
16, 98760, Note_off_c, 12, 71, 64
16, 98760, Note_on_c, 12, 72, 60
16, 98875, Note_off_c, 12, 72, 64
16, 98880, Note_on_c, 12, 74, 60
16, 99475, Note_off_c, 12, 74, 64
16, 99480, Note_on_c, 12, 67, 60
16, 99600, Note_off_c, 12, 67, 64
16, 99600, Note_on_c, 12, 69, 60
16, 99720, Note_off_c, 12, 69, 64
16, 99720, Note_on_c, 12, 71, 60
16, 99835, Note_off_c, 12, 71, 64
16, 99840, Note_on_c, 12, 72, 60
16, 100240, Note_off_c, 12, 72, 64
16, 100920, Note_on_c, 12, 59, 60
16, 101040, Note_off_c, 12, 59, 64
16, 101040, Note_on_c, 12, 60, 60
16, 101160, Note_off_c, 12, 60, 64
16, 101160, Note_on_c, 12, 62, 60
16, 101275, Note_off_c, 12, 62, 64
16, 101280, Note_on_c, 12, 63, 60
16, 101400, Note_off_c, 12, 63, 64
16, 101400, Note_on_c, 12, 60, 60
16, 101520, Note_off_c, 12, 60, 64
16, 101520, Note_on_c, 12, 62, 60
16, 101640, Note_off_c, 12, 62, 64
16, 101640, Note_on_c, 12, 63, 60
16, 101755, Note_off_c, 12, 63, 64
16, 101760, Note_on_c, 12, 65, 60
16, 102355, Note_off_c, 12, 65, 64
16, 102360, Note_on_c, 12, 68, 62
16, 102480, Note_off_c, 12, 68, 64
16, 102480, Note_on_c, 12, 67, 62
16, 102600, Note_off_c, 12, 67, 64
16, 102600, Note_on_c, 12, 65, 62
16, 102715, Note_off_c, 12, 65, 64
16, 102720, Note_on_c, 12, 63, 62
16, 102840, Note_off_c, 12, 63, 64
16, 102840, Note_on_c, 12, 67, 62
16, 102960, Note_off_c, 12, 67, 64
16, 102960, Note_on_c, 12, 65, 62
16, 103080, Note_off_c, 12, 65, 64
16, 103080, Note_on_c, 12, 63, 62
16, 103195, Note_off_c, 12, 63, 64
16, 103200, Note_on_c, 12, 62, 63
16, 103680, Note_off_c, 12, 62, 64
16, 103680, Note_on_c, 12, 60, 67
16, 103795, Note_off_c, 12, 60, 64
16, 103800, Note_on_c, 12, 60, 68
16, 103920, Note_off_c, 12, 60, 64
16, 103920, Note_on_c, 12, 63, 69
16, 104040, Note_off_c, 12, 63, 64
16, 104040, Note_on_c, 12, 60, 70
16, 104155, Note_off_c, 12, 60, 64
16, 104160, Note_on_c, 12, 67, 71
16, 104520, Note_off_c, 12, 67, 64
16, 104520, Note_on_c, 12, 65, 74
16, 104635, Note_off_c, 12, 65, 64
16, 104640, Note_on_c, 12, 63, 75
16, 104670, Note_off_c, 12, 63, 64
16, 104670, Note_on_c, 12, 65, 75
16, 104700, Note_off_c, 12, 65, 64
16, 104700, Note_on_c, 12, 63, 75
16, 104730, Note_off_c, 12, 63, 64
16, 104730, Note_on_c, 12, 65, 75
16, 104760, Note_off_c, 12, 65, 64
16, 104760, Note_on_c, 12, 63, 75
16, 104790, Note_off_c, 12, 63, 64
16, 104790, Note_on_c, 12, 65, 75
16, 104820, Note_off_c, 12, 65, 64
16, 104820, Note_on_c, 12, 63, 75
16, 104850, Note_off_c, 12, 63, 64
16, 104850, Note_on_c, 12, 65, 75
16, 104880, Note_off_c, 12, 65, 64
16, 104880, Note_on_c, 12, 63, 75
16, 104910, Note_off_c, 12, 63, 64
16, 104910, Note_on_c, 12, 65, 75
16, 104940, Note_off_c, 12, 65, 64
16, 104940, Note_on_c, 12, 63, 75
16, 104970, Note_off_c, 12, 63, 64
16, 104970, Note_on_c, 12, 65, 75
16, 105000, Note_off_c, 12, 65, 64
16, 105000, Note_on_c, 12, 63, 75
16, 105030, Note_off_c, 12, 63, 64
16, 105030, Note_on_c, 12, 65, 75
16, 105060, Note_off_c, 12, 65, 64
16, 105060, Note_on_c, 12, 62, 75
16, 105090, Note_off_c, 12, 62, 64
16, 105090, Note_on_c, 12, 63, 75
16, 105120, Note_off_c, 12, 63, 64
16, 105120, Note_on_c, 12, 62, 75
16, 105520, Note_off_c, 12, 62, 64
16, 105840, Note_on_c, 12, 67, 75
16, 106480, Note_off_c, 12, 67, 64
16, 106560, Note_on_c, 12, 68, 75
16, 106960, Note_off_c, 12, 68, 64
16, 107520, Note_on_c, 12, 70, 75
16, 107920, Note_off_c, 12, 70, 64
16, 108120, Note_on_c, 12, 63, 75
16, 108240, Note_off_c, 12, 63, 64
16, 108240, Note_on_c, 12, 67, 75
16, 108360, Note_off_c, 12, 67, 64
16, 108360, Note_on_c, 12, 63, 75
16, 108475, Note_off_c, 12, 63, 64
16, 108480, Note_on_c, 12, 68, 75
16, 109320, Note_off_c, 12, 68, 64
16, 109440, Note_on_c, 12, 67, 75
16, 109840, Note_off_c, 12, 67, 64
16, 110040, Note_on_c, 12, 67, 75
16, 110160, Note_off_c, 12, 67, 64
16, 110160, Note_on_c, 12, 71, 75
16, 110280, Note_off_c, 12, 71, 64
16, 110280, Note_on_c, 12, 67, 75
16, 110395, Note_off_c, 12, 67, 64
16, 110400, Note_on_c, 12, 74, 75
16, 110520, Note_off_c, 12, 74, 64
16, 110520, Note_on_c, 12, 71, 75
16, 110640, Note_off_c, 12, 71, 64
16, 110640, Note_on_c, 12, 74, 75
16, 110760, Note_off_c, 12, 74, 64
16, 110760, Note_on_c, 12, 71, 75
16, 110875, Note_off_c, 12, 71, 64
16, 110880, Note_on_c, 12, 72, 75
16, 111280, Note_off_c, 12, 72, 64
16, 111480, Note_on_c, 12, 63, 75
16, 111600, Note_off_c, 12, 63, 64
16, 111600, Note_on_c, 12, 67, 75
16, 111720, Note_off_c, 12, 67, 64
16, 111720, Note_on_c, 12, 63, 75
16, 111835, Note_off_c, 12, 63, 64
16, 111840, Note_on_c, 12, 68, 75
16, 112240, Note_off_c, 12, 68, 64
16, 112320, Note_on_c, 12, 67, 75
16, 112720, Note_off_c, 12, 67, 64
16, 112920, Note_on_c, 12, 63, 75
16, 113040, Note_off_c, 12, 63, 64
16, 113040, Note_on_c, 12, 67, 75
16, 113160, Note_off_c, 12, 67, 64
16, 113160, Note_on_c, 12, 63, 75
16, 113275, Note_off_c, 12, 63, 64
16, 113280, Note_on_c, 12, 68, 75
16, 113680, Note_off_c, 12, 68, 64
16, 113760, Note_on_c, 12, 67, 75
16, 114160, Note_off_c, 12, 67, 64
16, 114360, Note_on_c, 12, 63, 75
16, 114480, Note_off_c, 12, 63, 64
16, 114480, Note_on_c, 12, 67, 75
16, 114600, Note_off_c, 12, 67, 64
16, 114600, Note_on_c, 12, 63, 75
16, 114715, Note_off_c, 12, 63, 64
16, 114720, Note_on_c, 12, 62, 75
16, 115120, Note_off_c, 12, 62, 64
16, 115200, Note_on_c, 12, 60, 80
16, 115600, Note_off_c, 12, 60, 64
16, 116160, Note_on_c, 12, 67, 92
16, 116560, Note_off_c, 12, 67, 64
16, 116640, Note_on_c, 12, 67, 92
16, 117040, Note_off_c, 12, 67, 64
16, 117600, Note_on_c, 12, 67, 92
16, 118000, Note_off_c, 12, 67, 64
16, 118080, Note_on_c, 12, 65, 92
16, 118480, Note_off_c, 12, 65, 64
16, 119040, Note_on_c, 12, 65, 92
16, 119440, Note_off_c, 12, 65, 64
16, 119520, Note_on_c, 12, 63, 92
16, 119920, Note_off_c, 12, 63, 64
16, 120480, Note_on_c, 12, 65, 92
16, 120880, Note_off_c, 12, 65, 64
16, 120960, Note_on_c, 12, 62, 92
16, 121360, Note_off_c, 12, 62, 64
16, 121920, Note_on_c, 12, 62, 92
16, 122320, Note_off_c, 12, 62, 64
16, 122400, Note_on_c, 12, 55, 92
16, 122800, Note_off_c, 12, 55, 64
16, 123360, Note_on_c, 12, 67, 92
16, 123760, Note_off_c, 12, 67, 64
16, 123840, Note_on_c, 12, 67, 92
16, 124240, Note_off_c, 12, 67, 64
16, 124800, Note_on_c, 12, 65, 92
16, 125200, Note_off_c, 12, 65, 64
16, 125280, Note_on_c, 12, 62, 92
16, 125680, Note_off_c, 12, 62, 64
16, 126240, Note_on_c, 12, 62, 92
16, 126640, Note_off_c, 12, 62, 64
16, 126720, Note_on_c, 12, 60, 75
16, 127120, Note_off_c, 12, 60, 64
16, 127680, Note_on_c, 12, 60, 45
16, 127800, Note_off_c, 12, 60, 64
16, 127800, Note_on_c, 12, 63, 45
16, 127920, Note_off_c, 12, 63, 64
16, 127920, Note_on_c, 12, 62, 45
16, 128040, Note_off_c, 12, 62, 64
16, 128040, Note_on_c, 12, 60, 45
16, 128155, Note_off_c, 12, 60, 64
16, 128160, Note_on_c, 12, 59, 45
16, 128280, Note_off_c, 12, 59, 64
16, 128280, Note_on_c, 12, 60, 45
16, 128400, Note_off_c, 12, 60, 64
16, 128400, Note_on_c, 12, 59, 45
16, 128520, Note_off_c, 12, 59, 64
16, 128520, Note_on_c, 12, 57, 45
16, 128640, Note_off_c, 12, 57, 64
16, 128640, Note_on_c, 12, 55, 45
16, 128755, Note_off_c, 12, 55, 64
16, 129120, Note_on_c, 12, 60, 45
16, 129240, Note_off_c, 12, 60, 64
16, 129240, Note_on_c, 12, 70, 45
16, 129360, Note_off_c, 12, 70, 64
16, 129360, Note_on_c, 12, 68, 45
16, 129480, Note_off_c, 12, 68, 64
16, 129480, Note_on_c, 12, 67, 45
16, 129595, Note_off_c, 12, 67, 64
16, 129600, Note_on_c, 12, 68, 45
16, 129720, Note_off_c, 12, 68, 64
16, 129720, Note_on_c, 12, 70, 45
16, 129840, Note_off_c, 12, 70, 64
16, 129840, Note_on_c, 12, 68, 45
16, 129960, Note_off_c, 12, 68, 64
16, 129960, Note_on_c, 12, 67, 45
16, 130075, Note_off_c, 12, 67, 64
16, 130080, Note_on_c, 12, 65, 45
16, 130200, Note_off_c, 12, 65, 64
16, 130200, Note_on_c, 12, 63, 45
16, 130320, Note_off_c, 12, 63, 64
16, 130320, Note_on_c, 12, 62, 45
16, 130440, Note_off_c, 12, 62, 64
16, 130440, Note_on_c, 12, 60, 45
16, 130555, Note_off_c, 12, 60, 64
16, 130560, Note_on_c, 12, 59, 45
16, 130680, Note_off_c, 12, 59, 64
16, 130680, Note_on_c, 12, 62, 45
16, 130800, Note_off_c, 12, 62, 64
16, 130800, Note_on_c, 12, 60, 45
16, 130920, Note_off_c, 12, 60, 64
16, 130920, Note_on_c, 12, 59, 45
16, 131035, Note_off_c, 12, 59, 64
16, 131040, Note_on_c, 12, 60, 45
16, 131160, Note_off_c, 12, 60, 64
16, 131160, Note_on_c, 12, 62, 45
16, 131280, Note_off_c, 12, 62, 64
16, 131280, Note_on_c, 12, 60, 45
16, 131400, Note_off_c, 12, 60, 64
16, 131400, Note_on_c, 12, 58, 45
16, 131515, Note_off_c, 12, 58, 64
16, 131520, Note_on_c, 12, 56, 45
16, 131640, Note_off_c, 12, 56, 64
16, 131640, Note_on_c, 12, 55, 45
16, 131760, Note_off_c, 12, 55, 64
16, 131760, Note_on_c, 12, 65, 45
16, 131880, Note_off_c, 12, 65, 64
16, 131880, Note_on_c, 12, 63, 45
16, 131995, Note_off_c, 12, 63, 64
16, 132000, Note_on_c, 12, 62, 45
16, 132120, Note_off_c, 12, 62, 64
16, 132120, Note_on_c, 12, 63, 45
16, 132240, Note_off_c, 12, 63, 64
16, 132240, Note_on_c, 12, 62, 45
16, 132360, Note_off_c, 12, 62, 64
16, 132360, Note_on_c, 12, 60, 45
16, 132475, Note_off_c, 12, 60, 64
16, 132480, Note_on_c, 12, 59, 45
16, 132600, Note_off_c, 12, 59, 64
16, 132600, Note_on_c, 12, 60, 45
16, 132720, Note_off_c, 12, 60, 64
16, 132720, Note_on_c, 12, 59, 45
16, 132840, Note_off_c, 12, 59, 64
16, 132840, Note_on_c, 12, 57, 45
16, 132955, Note_off_c, 12, 57, 64
16, 132960, Note_on_c, 12, 55, 45
16, 133080, Note_off_c, 12, 55, 64
16, 133080, Note_on_c, 12, 57, 45
16, 133200, Note_off_c, 12, 57, 64
16, 133200, Note_on_c, 12, 59, 45
16, 133320, Note_off_c, 12, 59, 64
16, 133320, Note_on_c, 12, 60, 45
16, 133435, Note_off_c, 12, 60, 64
16, 133440, Note_on_c, 12, 59, 45
16, 133560, Note_off_c, 12, 59, 64
16, 133560, Note_on_c, 12, 62, 45
16, 133680, Note_off_c, 12, 62, 64
16, 133680, Note_on_c, 12, 60, 45
16, 133800, Note_off_c, 12, 60, 64
16, 133800, Note_on_c, 12, 59, 45
16, 133915, Note_off_c, 12, 59, 64
16, 133920, Note_on_c, 12, 60, 45
16, 134040, Note_off_c, 12, 60, 64
16, 134040, Note_on_c, 12, 62, 45
16, 134160, Note_off_c, 12, 62, 64
16, 134160, Note_on_c, 12, 63, 45
16, 134280, Note_off_c, 12, 63, 64
16, 134280, Note_on_c, 12, 65, 45
16, 134395, Note_off_c, 12, 65, 64
16, 134400, Note_on_c, 12, 67, 45
16, 134520, Note_off_c, 12, 67, 64
16, 134520, Note_on_c, 12, 69, 45
16, 134640, Note_off_c, 12, 69, 64
16, 134640, Note_on_c, 12, 71, 45
16, 134760, Note_off_c, 12, 71, 64
16, 134760, Note_on_c, 12, 72, 45
16, 134875, Note_off_c, 12, 72, 64
16, 134880, Note_on_c, 12, 62, 45
16, 135000, Note_off_c, 12, 62, 64
16, 135000, Note_on_c, 12, 65, 45
16, 135120, Note_off_c, 12, 65, 64
16, 135120, Note_on_c, 12, 63, 45
16, 135240, Note_off_c, 12, 63, 64
16, 135240, Note_on_c, 12, 62, 45
16, 135355, Note_off_c, 12, 62, 64
16, 135360, Note_on_c, 12, 63, 45
16, 135480, Note_off_c, 12, 63, 64
16, 135480, Note_on_c, 12, 67, 45
16, 135600, Note_off_c, 12, 67, 64
16, 135600, Note_on_c, 12, 72, 45
16, 135720, Note_off_c, 12, 72, 64
16, 135720, Note_on_c, 12, 70, 45
16, 135835, Note_off_c, 12, 70, 64
16, 135840, Note_on_c, 12, 68, 45
16, 135960, Note_off_c, 12, 68, 64
16, 135960, Note_on_c, 12, 67, 45
16, 136080, Note_off_c, 12, 67, 64
16, 136080, Note_on_c, 12, 65, 45
16, 136200, Note_off_c, 12, 65, 64
16, 136200, Note_on_c, 12, 63, 45
16, 136315, Note_off_c, 12, 63, 64
16, 136320, Note_on_c, 12, 62, 45
16, 136440, Note_off_c, 12, 62, 64
16, 136440, Note_on_c, 12, 63, 45
16, 136560, Note_off_c, 12, 63, 64
16, 136560, Note_on_c, 12, 62, 45
16, 136680, Note_off_c, 12, 62, 64
16, 136680, Note_on_c, 12, 60, 45
16, 136795, Note_off_c, 12, 60, 64
16, 136800, Note_on_c, 12, 59, 45
16, 136920, Note_off_c, 12, 59, 64
16, 136920, Note_on_c, 12, 60, 45
16, 137040, Note_off_c, 12, 60, 64
16, 137040, Note_on_c, 12, 62, 45
16, 137160, Note_off_c, 12, 62, 64
16, 137160, Note_on_c, 12, 63, 45
16, 137275, Note_off_c, 12, 63, 64
16, 137280, Note_on_c, 12, 62, 45
16, 137400, Note_off_c, 12, 62, 64
16, 137400, Note_on_c, 12, 60, 45
16, 137520, Note_off_c, 12, 60, 64
16, 137520, Note_on_c, 12, 59, 45
16, 137640, Note_off_c, 12, 59, 64
16, 137640, Note_on_c, 12, 57, 45
16, 137755, Note_off_c, 12, 57, 64
16, 137760, Note_on_c, 12, 67, 45
16, 137880, Note_off_c, 12, 67, 64
16, 137880, Note_on_c, 12, 68, 45
16, 138000, Note_off_c, 12, 68, 64
16, 138000, Note_on_c, 12, 67, 45
16, 138120, Note_off_c, 12, 67, 64
16, 138120, Note_on_c, 12, 65, 45
16, 138235, Note_off_c, 12, 65, 64
16, 138240, Note_on_c, 12, 63, 45
16, 138360, Note_off_c, 12, 63, 64
16, 138360, Note_on_c, 12, 65, 45
16, 138480, Note_off_c, 12, 65, 64
16, 138480, Note_on_c, 12, 67, 45
16, 138600, Note_off_c, 12, 67, 64
16, 138600, Note_on_c, 12, 68, 45
16, 138715, Note_off_c, 12, 68, 64
16, 138720, Note_on_c, 12, 67, 45
16, 138840, Note_off_c, 12, 67, 64
16, 138840, Note_on_c, 12, 65, 45
16, 138960, Note_off_c, 12, 65, 64
16, 138960, Note_on_c, 12, 63, 45
16, 139080, Note_off_c, 12, 63, 64
16, 139080, Note_on_c, 12, 62, 45
16, 139195, Note_off_c, 12, 62, 64
16, 139200, Note_on_c, 12, 60, 45
16, 139320, Note_off_c, 12, 60, 64
16, 139320, Note_on_c, 12, 63, 45
16, 139440, Note_off_c, 12, 63, 64
16, 139440, Note_on_c, 12, 62, 45
16, 139560, Note_off_c, 12, 62, 64
16, 139560, Note_on_c, 12, 60, 45
16, 139675, Note_off_c, 12, 60, 64
16, 139680, Note_on_c, 12, 59, 45
16, 139920, Note_off_c, 12, 59, 64
16, 139920, Note_on_c, 12, 67, 45
16, 140155, Note_off_c, 12, 67, 64
16, 140160, Note_on_c, 12, 69, 45
16, 140400, Note_off_c, 12, 69, 64
16, 140400, Note_on_c, 12, 71, 45
16, 140635, Note_off_c, 12, 71, 64
16, 140640, Note_on_c, 12, 72, 45
16, 141235, Note_off_c, 12, 72, 64
16, 141240, Note_on_c, 12, 73, 45
16, 141360, Note_off_c, 12, 73, 64
16, 141360, Note_on_c, 12, 70, 45
16, 141480, Note_off_c, 12, 70, 64
16, 141480, Note_on_c, 12, 72, 45
16, 141595, Note_off_c, 12, 72, 64
16, 141600, Note_on_c, 12, 68, 45
16, 141720, Note_off_c, 12, 68, 64
16, 141720, Note_on_c, 12, 70, 45
16, 141840, Note_off_c, 12, 70, 64
16, 141840, Note_on_c, 12, 67, 45
16, 141960, Note_off_c, 12, 67, 64
16, 141960, Note_on_c, 12, 68, 45
16, 142075, Note_off_c, 12, 68, 64
16, 142080, Note_on_c, 12, 65, 45
16, 142200, Note_off_c, 12, 65, 64
16, 142200, Note_on_c, 12, 67, 45
16, 142320, Note_off_c, 12, 67, 64
16, 142320, Note_on_c, 12, 64, 45
16, 142440, Note_off_c, 12, 64, 64
16, 142440, Note_on_c, 12, 67, 45
16, 142555, Note_off_c, 12, 67, 64
16, 142560, Note_on_c, 12, 65, 45
16, 142960, Note_off_c, 12, 65, 64
16, 143760, Note_on_c, 12, 69, 45
16, 143995, Note_off_c, 12, 69, 64
16, 144000, Note_on_c, 12, 74, 45
16, 144120, Note_off_c, 12, 74, 64
16, 144120, Note_on_c, 12, 75, 45
16, 144240, Note_off_c, 12, 75, 64
16, 144240, Note_on_c, 12, 72, 45
16, 144360, Note_off_c, 12, 72, 64
16, 144360, Note_on_c, 12, 74, 45
16, 144475, Note_off_c, 12, 74, 64
16, 144480, Note_on_c, 12, 71, 45
16, 144600, Note_off_c, 12, 71, 64
16, 144600, Note_on_c, 12, 72, 45
16, 144720, Note_off_c, 12, 72, 64
16, 144720, Note_on_c, 12, 69, 45
16, 144840, Note_off_c, 12, 69, 64
16, 144840, Note_on_c, 12, 71, 45
16, 144955, Note_off_c, 12, 71, 64
16, 144960, Note_on_c, 12, 67, 45
16, 145080, Note_off_c, 12, 67, 64
16, 145080, Note_on_c, 12, 69, 45
16, 145200, Note_off_c, 12, 69, 64
16, 145200, Note_on_c, 12, 65, 45
16, 145320, Note_off_c, 12, 65, 64
16, 145320, Note_on_c, 12, 67, 45
16, 145435, Note_off_c, 12, 67, 64
16, 145440, Note_on_c, 12, 63, 45
16, 145680, Note_off_c, 12, 63, 64
16, 145680, Note_on_c, 12, 67, 45
16, 145915, Note_off_c, 12, 67, 64
16, 145920, Note_on_c, 12, 72, 45
16, 146160, Note_off_c, 12, 72, 64
16, 146160, Note_on_c, 12, 70, 45
16, 146395, Note_off_c, 12, 70, 64
16, 146400, Note_on_c, 12, 68, 45
16, 146640, Note_off_c, 12, 68, 64
16, 146640, Note_on_c, 12, 67, 45
16, 146760, Note_off_c, 12, 67, 64
16, 146760, Note_on_c, 12, 65, 45
16, 146875, Note_off_c, 12, 65, 64
16, 146880, Note_on_c, 12, 67, 45
16, 147000, Note_off_c, 12, 67, 64
16, 147000, Note_on_c, 12, 68, 45
16, 147120, Note_off_c, 12, 68, 64
16, 147120, Note_on_c, 12, 65, 45
16, 147240, Note_off_c, 12, 65, 64
16, 147240, Note_on_c, 12, 67, 45
16, 147355, Note_off_c, 12, 67, 64
16, 147360, Note_on_c, 12, 63, 45
16, 147480, Note_off_c, 12, 63, 64
16, 147480, Note_on_c, 12, 65, 45
16, 147600, Note_off_c, 12, 65, 64
16, 147600, Note_on_c, 12, 62, 45
16, 147720, Note_off_c, 12, 62, 64
16, 147720, Note_on_c, 12, 63, 45
16, 147835, Note_off_c, 12, 63, 64
16, 147840, Note_on_c, 12, 60, 45
16, 148080, Note_off_c, 12, 60, 64
16, 148080, Note_on_c, 12, 65, 45
16, 148435, Note_off_c, 12, 65, 64
16, 148440, Note_on_c, 12, 67, 45
16, 148560, Note_off_c, 12, 67, 64
16, 148560, Note_on_c, 12, 63, 45
16, 148680, Note_off_c, 12, 63, 64
16, 148680, Note_on_c, 12, 65, 45
16, 148795, Note_off_c, 12, 65, 64
16, 148800, Note_on_c, 12, 62, 45
16, 149040, Note_off_c, 12, 62, 64
16, 149040, Note_on_c, 12, 59, 45
16, 149275, Note_off_c, 12, 59, 64
16, 149280, Note_on_c, 12, 60, 45
16, 149520, Note_off_c, 12, 60, 64
16, 149520, Note_on_c, 12, 59, 45
16, 149755, Note_off_c, 12, 59, 64
16, 149760, Note_on_c, 12, 60, 45
16, 150600, Note_off_c, 12, 60, 64
16, 162240, Note_on_c, 12, 60, 45
16, 162640, Note_off_c, 12, 60, 64
16, 162720, Note_on_c, 12, 59, 45
16, 163560, Note_off_c, 12, 59, 64
16, 163680, Note_on_c, 12, 60, 45
16, 164080, Note_off_c, 12, 60, 64
16, 164160, Note_on_c, 12, 60, 45
16, 165000, Note_off_c, 12, 60, 64
16, 165120, Note_on_c, 12, 59, 45
16, 165520, Note_off_c, 12, 59, 64
16, 165600, Note_on_c, 12, 60, 45
16, 166440, Note_off_c, 12, 60, 64
16, 166560, Note_on_c, 12, 60, 45
16, 166960, Note_off_c, 12, 60, 64
16, 167040, Note_on_c, 12, 59, 45
16, 167880, Note_off_c, 12, 59, 64
16, 168000, Note_on_c, 12, 59, 45
16, 168400, Note_off_c, 12, 59, 64
16, 168480, Note_on_c, 12, 60, 45
16, 169320, Note_off_c, 12, 60, 64
16, 169440, Note_on_c, 12, 59, 45
16, 169840, Note_off_c, 12, 59, 64
16, 169920, Note_on_c, 12, 60, 45
16, 170760, Note_off_c, 12, 60, 64
16, 170880, Note_on_c, 12, 60, 45
16, 171280, Note_off_c, 12, 60, 64
16, 171360, Note_on_c, 12, 55, 45
16, 172680, Note_off_c, 12, 55, 64
16, 172800, Note_on_c, 12, 60, 63
16, 173640, Note_off_c, 12, 60, 64
16, 173760, Note_on_c, 12, 60, 75
16, 173840, Note_off_c, 12, 60, 64
16, 173880, Note_on_c, 12, 55, 75
16, 173960, Note_off_c, 12, 55, 64
16, 174000, Note_on_c, 12, 60, 75
16, 174080, Note_off_c, 12, 60, 64
16, 174120, Note_on_c, 12, 63, 75
16, 174200, Note_off_c, 12, 63, 64
16, 174240, Note_on_c, 12, 59, 75
16, 174320, Note_off_c, 12, 59, 64
16, 174360, Note_on_c, 12, 62, 75
16, 174440, Note_off_c, 12, 62, 64
16, 174480, Note_on_c, 12, 67, 75
16, 174560, Note_off_c, 12, 67, 64
16, 174600, Note_on_c, 12, 71, 75
16, 174680, Note_off_c, 12, 71, 64
16, 174720, Note_on_c, 12, 74, 75
16, 174800, Note_off_c, 12, 74, 64
16, 174840, Note_on_c, 12, 71, 75
16, 174920, Note_off_c, 12, 71, 64
16, 174960, Note_on_c, 12, 74, 75
16, 175040, Note_off_c, 12, 74, 64
16, 175080, Note_on_c, 12, 79, 75
16, 175160, Note_off_c, 12, 79, 64
16, 175200, Note_on_c, 12, 60, 75
16, 175280, Note_off_c, 12, 60, 64
16, 175320, Note_on_c, 12, 55, 75
16, 175400, Note_off_c, 12, 55, 64
16, 175440, Note_on_c, 12, 60, 75
16, 175520, Note_off_c, 12, 60, 64
16, 175560, Note_on_c, 12, 63, 75
16, 175640, Note_off_c, 12, 63, 64
16, 175680, Note_on_c, 12, 65, 75
16, 175760, Note_off_c, 12, 65, 64
16, 175800, Note_on_c, 12, 60, 75
16, 175880, Note_off_c, 12, 60, 64
16, 175920, Note_on_c, 12, 65, 75
16, 176000, Note_off_c, 12, 65, 64
16, 176040, Note_on_c, 12, 68, 75
16, 176120, Note_off_c, 12, 68, 64
16, 176160, Note_on_c, 12, 72, 75
16, 176240, Note_off_c, 12, 72, 64
16, 176280, Note_on_c, 12, 77, 75
16, 176360, Note_off_c, 12, 77, 64
16, 176400, Note_on_c, 12, 80, 75
16, 176480, Note_off_c, 12, 80, 64
16, 176520, Note_on_c, 12, 84, 75
16, 176600, Note_off_c, 12, 84, 64
16, 176640, Note_on_c, 12, 59, 75
16, 176720, Note_off_c, 12, 59, 64
16, 176760, Note_on_c, 12, 55, 75
16, 176840, Note_off_c, 12, 55, 64
16, 176880, Note_on_c, 12, 59, 75
16, 176960, Note_off_c, 12, 59, 64
16, 177000, Note_on_c, 12, 62, 75
16, 177080, Note_off_c, 12, 62, 64
16, 177120, Note_on_c, 12, 63, 75
16, 177200, Note_off_c, 12, 63, 64
16, 177240, Note_on_c, 12, 60, 75
16, 177320, Note_off_c, 12, 60, 64
16, 177360, Note_on_c, 12, 63, 75
16, 177440, Note_off_c, 12, 63, 64
16, 177480, Note_on_c, 12, 68, 75
16, 177560, Note_off_c, 12, 68, 64
16, 177600, Note_on_c, 12, 72, 75
16, 177680, Note_off_c, 12, 72, 64
16, 177720, Note_on_c, 12, 75, 75
16, 177800, Note_off_c, 12, 75, 64
16, 177840, Note_on_c, 12, 80, 75
16, 177920, Note_off_c, 12, 80, 64
16, 177960, Note_on_c, 12, 84, 75
16, 178040, Note_off_c, 12, 84, 64
16, 178080, Note_on_c, 12, 56, 75
16, 178160, Note_off_c, 12, 56, 64
16, 178200, Note_on_c, 12, 60, 75
16, 178280, Note_off_c, 12, 60, 64
16, 178320, Note_on_c, 12, 56, 75
16, 178400, Note_off_c, 12, 56, 64
16, 178440, Note_on_c, 12, 60, 75
16, 178520, Note_off_c, 12, 60, 64
16, 178560, Note_on_c, 12, 67, 75
16, 178640, Note_off_c, 12, 67, 64
16, 178680, Note_on_c, 12, 62, 75
16, 178760, Note_off_c, 12, 62, 64
16, 178800, Note_on_c, 12, 67, 75
16, 178880, Note_off_c, 12, 67, 64
16, 178920, Note_on_c, 12, 71, 75
16, 179000, Note_off_c, 12, 71, 64
16, 179040, Note_on_c, 12, 74, 75
16, 179120, Note_off_c, 12, 74, 64
16, 179160, Note_on_c, 12, 79, 75
16, 179240, Note_off_c, 12, 79, 64
16, 179280, Note_on_c, 12, 83, 75
16, 179360, Note_off_c, 12, 83, 64
16, 179400, Note_on_c, 12, 86, 75
16, 179480, Note_off_c, 12, 86, 64
16, 179520, Note_on_c, 12, 59, 75
16, 179600, Note_off_c, 12, 59, 64
16, 179640, Note_on_c, 12, 62, 75
16, 179720, Note_off_c, 12, 62, 64
16, 179760, Note_on_c, 12, 59, 75
16, 179840, Note_off_c, 12, 59, 64
16, 179880, Note_on_c, 12, 62, 75
16, 179960, Note_off_c, 12, 62, 64
16, 180000, Note_on_c, 12, 67, 75
16, 180080, Note_off_c, 12, 67, 64
16, 180120, Note_on_c, 12, 63, 75
16, 180200, Note_off_c, 12, 63, 64
16, 180240, Note_on_c, 12, 67, 75
16, 180320, Note_off_c, 12, 67, 64
16, 180360, Note_on_c, 12, 72, 75
16, 180440, Note_off_c, 12, 72, 64
16, 180480, Note_on_c, 12, 75, 75
16, 180560, Note_off_c, 12, 75, 64
16, 180600, Note_on_c, 12, 79, 75
16, 180680, Note_off_c, 12, 79, 64
16, 180720, Note_on_c, 12, 84, 75
16, 180800, Note_off_c, 12, 84, 64
16, 180840, Note_on_c, 12, 87, 75
16, 180920, Note_off_c, 12, 87, 64
16, 180960, Note_on_c, 12, 59, 75
16, 181040, Note_off_c, 12, 59, 64
16, 181080, Note_on_c, 12, 55, 75
16, 181160, Note_off_c, 12, 55, 64
16, 181200, Note_on_c, 12, 59, 75
16, 181280, Note_off_c, 12, 59, 64
16, 181320, Note_on_c, 12, 62, 75
16, 181400, Note_off_c, 12, 62, 64
16, 181440, Note_on_c, 12, 63, 75
16, 181520, Note_off_c, 12, 63, 64
16, 181560, Note_on_c, 12, 60, 75
16, 181640, Note_off_c, 12, 60, 64
16, 181680, Note_on_c, 12, 63, 75
16, 181760, Note_off_c, 12, 63, 64
16, 181800, Note_on_c, 12, 67, 75
16, 181880, Note_off_c, 12, 67, 64
16, 181920, Note_on_c, 12, 72, 75
16, 182000, Note_off_c, 12, 72, 64
16, 182040, Note_on_c, 12, 75, 75
16, 182120, Note_off_c, 12, 75, 64
16, 182160, Note_on_c, 12, 79, 75
16, 182240, Note_off_c, 12, 79, 64
16, 182280, Note_on_c, 12, 84, 75
16, 182360, Note_off_c, 12, 84, 64
16, 182400, Note_on_c, 12, 60, 75
16, 182480, Note_off_c, 12, 60, 64
16, 182520, Note_on_c, 12, 56, 75
16, 182600, Note_off_c, 12, 56, 64
16, 182640, Note_on_c, 12, 60, 75
16, 182720, Note_off_c, 12, 60, 64
16, 182760, Note_on_c, 12, 60, 75
16, 182840, Note_off_c, 12, 60, 64
16, 182880, Note_on_c, 12, 62, 75
16, 182960, Note_off_c, 12, 62, 64
16, 183000, Note_on_c, 12, 60, 75
16, 183080, Note_off_c, 12, 60, 64
16, 183120, Note_on_c, 12, 62, 75
16, 183200, Note_off_c, 12, 62, 64
16, 183240, Note_on_c, 12, 67, 75
16, 183320, Note_off_c, 12, 67, 64
16, 183360, Note_on_c, 12, 72, 76
16, 183440, Note_off_c, 12, 72, 64
16, 183480, Note_on_c, 12, 74, 77
16, 183560, Note_off_c, 12, 74, 64
16, 183600, Note_on_c, 12, 79, 78
16, 183680, Note_off_c, 12, 79, 64
16, 183720, Note_on_c, 12, 84, 79
16, 183800, Note_off_c, 12, 84, 64
16, 183840, Note_on_c, 12, 59, 80
16, 183920, Note_off_c, 12, 59, 64
16, 183960, Note_on_c, 12, 55, 81
16, 184040, Note_off_c, 12, 55, 64
16, 184080, Note_on_c, 12, 59, 82
16, 184160, Note_off_c, 12, 59, 64
16, 184200, Note_on_c, 12, 62, 83
16, 184280, Note_off_c, 12, 62, 64
16, 184320, Note_on_c, 12, 63, 84
16, 184400, Note_off_c, 12, 63, 64
16, 184440, Note_on_c, 12, 60, 85
16, 184520, Note_off_c, 12, 60, 64
16, 184560, Note_on_c, 12, 63, 86
16, 184640, Note_off_c, 12, 63, 64
16, 184680, Note_on_c, 12, 67, 87
16, 184760, Note_off_c, 12, 67, 64
16, 184800, Note_on_c, 12, 72, 88
16, 184880, Note_off_c, 12, 72, 64
16, 184920, Note_on_c, 12, 75, 89
16, 185000, Note_off_c, 12, 75, 64
16, 185040, Note_on_c, 12, 79, 90
16, 185120, Note_off_c, 12, 79, 64
16, 185160, Note_on_c, 12, 84, 91
16, 185240, Note_off_c, 12, 84, 64
16, 185520, Note_on_c, 12, 63, 127
16, 185520, Note_on_c, 12, 60, 127
16, 185755, Note_off_c, 12, 60, 64
16, 185755, Note_off_c, 12, 63, 64
16, 186360, Note_on_c, 12, 66, 92
16, 186480, Note_off_c, 12, 66, 64
16, 186480, Note_on_c, 12, 67, 92
16, 186600, Note_off_c, 12, 67, 64
16, 186600, Note_on_c, 12, 62, 92
16, 186720, Note_off_c, 12, 62, 64
16, 186720, Note_on_c, 12, 63, 92
16, 186955, Note_off_c, 12, 63, 64
16, 186960, Note_on_c, 12, 63, 127
16, 186960, Note_on_c, 12, 60, 127
16, 187195, Note_off_c, 12, 60, 64
16, 187195, Note_off_c, 12, 63, 64
16, 187800, Note_on_c, 12, 64, 92
16, 187920, Note_off_c, 12, 64, 64
16, 187920, Note_on_c, 12, 65, 92
16, 188040, Note_off_c, 12, 65, 64
16, 188040, Note_on_c, 12, 60, 92
16, 188160, Note_off_c, 12, 60, 64
16, 188160, Note_on_c, 12, 63, 92
16, 188395, Note_off_c, 12, 63, 64
16, 188400, Note_on_c, 12, 67, 127
16, 188400, Note_on_c, 12, 62, 127
16, 188635, Note_off_c, 12, 62, 64
16, 188635, Note_off_c, 12, 67, 64
16, 189240, Note_on_c, 12, 67, 92
16, 189360, Note_off_c, 12, 67, 64
16, 189360, Note_on_c, 12, 68, 92
16, 189480, Note_off_c, 12, 68, 64
16, 189480, Note_on_c, 12, 63, 92
16, 189600, Note_off_c, 12, 63, 64
16, 189600, Note_on_c, 12, 65, 92
16, 189835, Note_off_c, 12, 65, 64
16, 189840, Note_on_c, 12, 68, 127
16, 189840, Note_on_c, 12, 65, 127
16, 190075, Note_off_c, 12, 65, 64
16, 190075, Note_off_c, 12, 68, 64
16, 190680, Note_on_c, 12, 66, 92
16, 190800, Note_off_c, 12, 66, 64
16, 190800, Note_on_c, 12, 67, 92
16, 190920, Note_off_c, 12, 67, 64
16, 190920, Note_on_c, 12, 62, 92
16, 191040, Note_off_c, 12, 62, 64
16, 191040, Note_on_c, 12, 65, 92
16, 191275, Note_off_c, 12, 65, 64
16, 191280, Note_on_c, 12, 65, 127
16, 191280, Note_on_c, 12, 62, 127
16, 191515, Note_off_c, 12, 62, 64
16, 191515, Note_off_c, 12, 65, 64
16, 192120, Note_on_c, 12, 71, 92
16, 192240, Note_off_c, 12, 71, 64
16, 192240, Note_on_c, 12, 72, 92
16, 192360, Note_off_c, 12, 72, 64
16, 192360, Note_on_c, 12, 66, 92
16, 192480, Note_off_c, 12, 66, 64
16, 192480, Note_on_c, 12, 67, 92
16, 192715, Note_off_c, 12, 67, 64
16, 192720, Note_on_c, 12, 67, 127
16, 192720, Note_on_c, 12, 62, 127
16, 192955, Note_off_c, 12, 62, 64
16, 192955, Note_off_c, 12, 67, 64
16, 193560, Note_on_c, 12, 71, 92
16, 193680, Note_off_c, 12, 71, 64
16, 193680, Note_on_c, 12, 72, 92
16, 193800, Note_off_c, 12, 72, 64
16, 193800, Note_on_c, 12, 67, 92
16, 193920, Note_off_c, 12, 67, 64
16, 193920, Note_on_c, 12, 68, 92
16, 194155, Note_off_c, 12, 68, 64
16, 194160, Note_on_c, 12, 72, 127
16, 194160, Note_on_c, 12, 68, 127
16, 194395, Note_off_c, 12, 68, 64
16, 194395, Note_off_c, 12, 72, 64
16, 195000, Note_on_c, 12, 71, 92
16, 195120, Note_off_c, 12, 71, 64
16, 195120, Note_on_c, 12, 72, 92
16, 195240, Note_off_c, 12, 72, 64
16, 195240, Note_on_c, 12, 66, 92
16, 195360, Note_off_c, 12, 66, 64
16, 195360, Note_on_c, 12, 67, 92
16, 195595, Note_off_c, 12, 67, 64
16, 195600, Note_on_c, 12, 71, 127
16, 195600, Note_on_c, 12, 67, 127
16, 195835, Note_off_c, 12, 67, 64
16, 195835, Note_off_c, 12, 71, 64
16, 196440, Note_on_c, 12, 71, 92
16, 196560, Note_off_c, 12, 71, 64
16, 196560, Note_on_c, 12, 72, 92
16, 196680, Note_off_c, 12, 72, 64
16, 196680, Note_on_c, 12, 66, 92
16, 196795, Note_off_c, 12, 66, 64
16, 196800, Note_on_c, 12, 67, 92
16, 197160, Note_off_c, 12, 67, 64
16, 197160, Note_on_c, 12, 66, 92
16, 197220, Note_off_c, 12, 66, 64
16, 197220, Note_on_c, 12, 63, 92
16, 197275, Note_off_c, 12, 63, 64
16, 197280, Note_on_c, 12, 63, 92
16, 197400, Note_off_c, 12, 63, 64
16, 197400, Note_on_c, 12, 62, 92
16, 197460, Note_off_c, 12, 62, 64
16, 197460, Note_on_c, 12, 60, 92
16, 197515, Note_off_c, 12, 60, 64
16, 197520, Note_on_c, 12, 72, 92
16, 197640, Note_off_c, 12, 72, 64
16, 197640, Note_on_c, 12, 71, 92
16, 197700, Note_off_c, 12, 71, 64
16, 197700, Note_on_c, 12, 69, 92
16, 197755, Note_off_c, 12, 69, 64
16, 197760, Note_on_c, 12, 67, 92
16, 197880, Note_off_c, 12, 67, 64
16, 197880, Note_on_c, 12, 69, 92
16, 197940, Note_off_c, 12, 69, 64
16, 197940, Note_on_c, 12, 71, 92
16, 197995, Note_off_c, 12, 71, 64
16, 198000, Note_on_c, 12, 71, 92
16, 198120, Note_off_c, 12, 71, 64
16, 198120, Note_on_c, 12, 72, 92
16, 198180, Note_off_c, 12, 72, 64
16, 198180, Note_on_c, 12, 74, 92
16, 198235, Note_off_c, 12, 74, 64
16, 198240, Note_on_c, 12, 60, 92
16, 198360, Note_off_c, 12, 60, 64
16, 198360, Note_on_c, 12, 62, 92
16, 198420, Note_off_c, 12, 62, 64
16, 198420, Note_on_c, 12, 63, 92
16, 198475, Note_off_c, 12, 63, 64
16, 198480, Note_on_c, 12, 63, 92
16, 198600, Note_off_c, 12, 63, 64
16, 198600, Note_on_c, 12, 65, 92
16, 198660, Note_off_c, 12, 65, 64
16, 198660, Note_on_c, 12, 67, 92
16, 198715, Note_off_c, 12, 67, 64
16, 198720, Note_on_c, 12, 65, 92
16, 198840, Note_off_c, 12, 65, 64
16, 198840, Note_on_c, 12, 67, 92
16, 198900, Note_off_c, 12, 67, 64
16, 198900, Note_on_c, 12, 68, 92
16, 198955, Note_off_c, 12, 68, 64
16, 198960, Note_on_c, 12, 68, 92
16, 199080, Note_off_c, 12, 68, 64
16, 199080, Note_on_c, 12, 67, 92
16, 199140, Note_off_c, 12, 67, 64
16, 199140, Note_on_c, 12, 65, 92
16, 199195, Note_off_c, 12, 65, 64
16, 199200, Note_on_c, 12, 65, 92
16, 199320, Note_off_c, 12, 65, 64
16, 199320, Note_on_c, 12, 63, 92
16, 199380, Note_off_c, 12, 63, 64
16, 199380, Note_on_c, 12, 62, 92
16, 199435, Note_off_c, 12, 62, 64
16, 199440, Note_on_c, 12, 62, 92
16, 199560, Note_off_c, 12, 62, 64
16, 199560, Note_on_c, 12, 63, 92
16, 199620, Note_off_c, 12, 63, 64
16, 199620, Note_on_c, 12, 65, 92
16, 199675, Note_off_c, 12, 65, 64
16, 199680, Note_on_c, 12, 65, 92
16, 199800, Note_off_c, 12, 65, 64
16, 199800, Note_on_c, 12, 67, 92
16, 199860, Note_off_c, 12, 67, 64
16, 199860, Note_on_c, 12, 68, 92
16, 199915, Note_off_c, 12, 68, 64
16, 199920, Note_on_c, 12, 67, 92
16, 200100, Note_off_c, 12, 67, 64
16, 200100, Note_on_c, 12, 65, 92
16, 200155, Note_off_c, 12, 65, 64
16, 200160, Note_on_c, 12, 63, 92
16, 200400, Note_off_c, 12, 63, 64
16, 200400, Note_on_c, 12, 72, 92
16, 200515, Note_off_c, 12, 72, 64
16, 200520, Note_on_c, 12, 70, 92
16, 200580, Note_off_c, 12, 70, 64
16, 200580, Note_on_c, 12, 68, 92
16, 200635, Note_off_c, 12, 68, 64
16, 200640, Note_on_c, 12, 68, 92
16, 200760, Note_off_c, 12, 68, 64
16, 200760, Note_on_c, 12, 67, 92
16, 200820, Note_off_c, 12, 67, 64
16, 200820, Note_on_c, 12, 65, 92
16, 200875, Note_off_c, 12, 65, 64
16, 200880, Note_on_c, 12, 65, 92
16, 201000, Note_off_c, 12, 65, 64
16, 201000, Note_on_c, 12, 63, 92
16, 201060, Note_off_c, 12, 63, 64
16, 201060, Note_on_c, 12, 62, 92
16, 201115, Note_off_c, 12, 62, 64
16, 201120, Note_on_c, 12, 62, 92
16, 201240, Note_off_c, 12, 62, 64
16, 201240, Note_on_c, 12, 63, 92
16, 201300, Note_off_c, 12, 63, 64
16, 201300, Note_on_c, 12, 65, 92
16, 201355, Note_off_c, 12, 65, 64
16, 201360, Note_on_c, 12, 65, 92
16, 201480, Note_off_c, 12, 65, 64
16, 201480, Note_on_c, 12, 67, 92
16, 201540, Note_off_c, 12, 67, 64
16, 201540, Note_on_c, 12, 69, 92
16, 201595, Note_off_c, 12, 69, 64
16, 201600, Note_on_c, 12, 67, 92
16, 201720, Note_off_c, 12, 67, 64
16, 201720, Note_on_c, 12, 69, 92
16, 201780, Note_off_c, 12, 69, 64
16, 201780, Note_on_c, 12, 71, 92
16, 201835, Note_off_c, 12, 71, 64
16, 201840, Note_on_c, 12, 71, 92
16, 201960, Note_off_c, 12, 71, 64
16, 201960, Note_on_c, 12, 72, 92
16, 202020, Note_off_c, 12, 72, 64
16, 202020, Note_on_c, 12, 74, 92
16, 202075, Note_off_c, 12, 74, 64
16, 202080, Note_on_c, 12, 74, 92
16, 202200, Note_off_c, 12, 74, 64
16, 202200, Note_on_c, 12, 75, 92
16, 202260, Note_off_c, 12, 75, 64
16, 202260, Note_on_c, 12, 77, 92
16, 202315, Note_off_c, 12, 77, 64
16, 202320, Note_on_c, 12, 77, 92
16, 202440, Note_off_c, 12, 77, 64
16, 202440, Note_on_c, 12, 79, 92
16, 202500, Note_off_c, 12, 79, 64
16, 202500, Note_on_c, 12, 80, 92
16, 202555, Note_off_c, 12, 80, 64
16, 202560, Note_on_c, 12, 68, 92
16, 202795, Note_off_c, 12, 68, 64
16, 204240, Note_on_c, 12, 67, 92
16, 204595, Note_off_c, 12, 67, 64
16, 204600, Note_on_c, 12, 65, 92
16, 204660, Note_off_c, 12, 65, 64
16, 204660, Note_on_c, 12, 63, 92
16, 204715, Note_off_c, 12, 63, 64
16, 204720, Note_on_c, 12, 63, 92
16, 204840, Note_off_c, 12, 63, 64
16, 204840, Note_on_c, 12, 62, 92
16, 204900, Note_off_c, 12, 62, 64
16, 204900, Note_on_c, 12, 60, 92
16, 204955, Note_off_c, 12, 60, 64
16, 204960, Note_on_c, 12, 72, 92
16, 205080, Note_off_c, 12, 72, 64
16, 205080, Note_on_c, 12, 71, 92
16, 205140, Note_off_c, 12, 71, 64
16, 205140, Note_on_c, 12, 68, 92
16, 205195, Note_off_c, 12, 68, 64
16, 205200, Note_on_c, 12, 68, 92
16, 205320, Note_off_c, 12, 68, 64
16, 205320, Note_on_c, 12, 67, 92
16, 205380, Note_off_c, 12, 67, 64
16, 205380, Note_on_c, 12, 65, 92
16, 205435, Note_off_c, 12, 65, 64
16, 205440, Note_on_c, 12, 65, 92
16, 205560, Note_off_c, 12, 65, 64
16, 205560, Note_on_c, 12, 63, 92
16, 205620, Note_off_c, 12, 63, 64
16, 205620, Note_on_c, 12, 62, 92
16, 205675, Note_off_c, 12, 62, 64
16, 205680, Note_on_c, 12, 62, 92
16, 205800, Note_off_c, 12, 62, 64
16, 205800, Note_on_c, 12, 60, 92
16, 205860, Note_off_c, 12, 60, 64
16, 205860, Note_on_c, 12, 59, 92
16, 205915, Note_off_c, 12, 59, 64
16, 205920, Note_on_c, 12, 59, 92
16, 206040, Note_off_c, 12, 59, 64
16, 206040, Note_on_c, 12, 57, 92
16, 206100, Note_off_c, 12, 57, 64
16, 206100, Note_on_c, 12, 55, 92
16, 206155, Note_off_c, 12, 55, 64
16, 206160, Note_on_c, 12, 55, 92
16, 206280, Note_off_c, 12, 55, 64
16, 206280, Note_on_c, 12, 57, 92
16, 206340, Note_off_c, 12, 57, 64
16, 206340, Note_on_c, 12, 59, 92
16, 206395, Note_off_c, 12, 59, 64
16, 206400, Note_on_c, 12, 59, 92
16, 206520, Note_off_c, 12, 59, 64
16, 206520, Note_on_c, 12, 60, 92
16, 206580, Note_off_c, 12, 60, 64
16, 206580, Note_on_c, 12, 62, 92
16, 206635, Note_off_c, 12, 62, 64
16, 206640, Note_on_c, 12, 62, 92
16, 206760, Note_off_c, 12, 62, 64
16, 206760, Note_on_c, 12, 63, 92
16, 206820, Note_off_c, 12, 63, 64
16, 206820, Note_on_c, 12, 65, 92
16, 206875, Note_off_c, 12, 65, 64
16, 206880, Note_on_c, 12, 65, 92
16, 207000, Note_off_c, 12, 65, 64
16, 207000, Note_on_c, 12, 67, 93
16, 207060, Note_off_c, 12, 67, 64
16, 207060, Note_on_c, 12, 69, 93
16, 207115, Note_off_c, 12, 69, 64
16, 207120, Note_on_c, 12, 67, 93
16, 207240, Note_off_c, 12, 67, 64
16, 207240, Note_on_c, 12, 69, 94
16, 207300, Note_off_c, 12, 69, 64
16, 207300, Note_on_c, 12, 65, 94
16, 207355, Note_off_c, 12, 65, 64
16, 207360, Note_on_c, 12, 63, 94
16, 207480, Note_off_c, 12, 63, 64
16, 207480, Note_on_c, 12, 65, 95
16, 207540, Note_off_c, 12, 65, 64
16, 207540, Note_on_c, 12, 62, 95
16, 207600, Note_off_c, 12, 62, 64
16, 207600, Note_on_c, 12, 60, 96
16, 207835, Note_off_c, 12, 60, 64
16, 208320, Note_on_c, 12, 63, 108
16, 209035, Note_off_c, 12, 63, 64
16, 209040, Note_on_c, 12, 62, 108
16, 209160, Note_off_c, 12, 62, 64
16, 209160, Note_on_c, 12, 60, 108
16, 209275, Note_off_c, 12, 60, 64
16, 209280, Note_on_c, 12, 62, 108
16, 209520, Note_off_c, 12, 62, 64
16, 209520, Note_on_c, 12, 63, 108
16, 209640, Note_off_c, 12, 63, 64
16, 209640, Note_on_c, 12, 65, 108
16, 209755, Note_off_c, 12, 65, 64
16, 209760, Note_on_c, 12, 67, 108
16, 210475, Note_off_c, 12, 67, 64
16, 210480, Note_on_c, 12, 65, 108
16, 210600, Note_off_c, 12, 65, 64
16, 210600, Note_on_c, 12, 63, 108
16, 210715, Note_off_c, 12, 63, 64
16, 210720, Note_on_c, 12, 65, 108
16, 210960, Note_off_c, 12, 65, 64
16, 210960, Note_on_c, 12, 67, 108
16, 211080, Note_off_c, 12, 67, 64
16, 211080, Note_on_c, 12, 68, 108
16, 211195, Note_off_c, 12, 68, 64
16, 211440, Note_on_c, 12, 67, 108
16, 211675, Note_off_c, 12, 67, 64
16, 211680, Note_on_c, 12, 65, 108
16, 211920, Note_off_c, 12, 65, 64
16, 211920, Note_on_c, 12, 63, 108
16, 212040, Note_off_c, 12, 63, 64
16, 212040, Note_on_c, 12, 62, 108
16, 212155, Note_off_c, 12, 62, 64
16, 212160, Note_on_c, 12, 63, 108
16, 212400, Note_off_c, 12, 63, 64
16, 212400, Note_on_c, 12, 65, 108
16, 212520, Note_off_c, 12, 65, 64
16, 212520, Note_on_c, 12, 67, 108
16, 212635, Note_off_c, 12, 67, 64
16, 212640, Note_on_c, 12, 68, 108
16, 213040, Note_off_c, 12, 68, 64
16, 213120, Note_on_c, 12, 67, 108
16, 213960, Note_off_c, 12, 67, 64
16, 214320, Note_on_c, 12, 65, 108
16, 214560, Note_off_c, 12, 65, 64
16, 214560, Note_on_c, 12, 67, 108
16, 215200, Note_off_c, 12, 67, 64
16, 215280, Note_on_c, 12, 65, 108
16, 215400, Note_off_c, 12, 65, 64
16, 215400, Note_on_c, 12, 67, 108
16, 215515, Note_off_c, 12, 67, 64
16, 215520, Note_on_c, 12, 68, 108
16, 216235, Note_off_c, 12, 68, 64
16, 216240, Note_on_c, 12, 67, 108
16, 216360, Note_off_c, 12, 67, 64
16, 216360, Note_on_c, 12, 65, 108
16, 216475, Note_off_c, 12, 65, 64
16, 216480, Note_on_c, 12, 67, 108
16, 216720, Note_off_c, 12, 67, 64
16, 216720, Note_on_c, 12, 68, 108
16, 216840, Note_off_c, 12, 68, 64
16, 216840, Note_on_c, 12, 70, 108
16, 216955, Note_off_c, 12, 70, 64
16, 216960, Note_on_c, 12, 72, 108
16, 217200, Note_off_c, 12, 72, 64
16, 217200, Note_on_c, 12, 74, 108
16, 217435, Note_off_c, 12, 74, 64
16, 217440, Note_on_c, 12, 71, 108
16, 217840, Note_off_c, 12, 71, 64
16, 217920, Note_on_c, 12, 72, 108
16, 218635, Note_off_c, 12, 72, 64
16, 218640, Note_on_c, 12, 71, 108
16, 218880, Note_off_c, 12, 71, 64
16, 218880, Note_on_c, 12, 72, 108
16, 219115, Note_off_c, 12, 72, 64
16, 219120, Note_on_c, 12, 67, 108
16, 219595, Note_off_c, 12, 67, 64
16, 219600, Note_on_c, 12, 67, 108
16, 219720, Note_off_c, 12, 67, 64
16, 219720, Note_on_c, 12, 65, 108
16, 219840, Note_off_c, 12, 65, 64
16, 219840, Note_on_c, 12, 63, 108
16, 220075, Note_off_c, 12, 63, 64
16, 220080, Note_on_c, 12, 67, 108
16, 221160, Note_off_c, 12, 67, 64
16, 221280, Note_on_c, 12, 67, 108
16, 221680, Note_off_c, 12, 67, 64
16, 221760, Note_on_c, 12, 68, 108
16, 222600, Note_off_c, 12, 68, 64
16, 222720, Note_on_c, 12, 67, 108
16, 223120, Note_off_c, 12, 67, 64
16, 223200, Note_on_c, 12, 68, 108
16, 224040, Note_off_c, 12, 68, 64
16, 224160, Note_on_c, 12, 68, 108
16, 224560, Note_off_c, 12, 68, 64
16, 224640, Note_on_c, 12, 67, 108
16, 225715, Note_off_c, 12, 67, 64
16, 225720, Note_on_c, 12, 68, 108
16, 225840, Note_off_c, 12, 68, 64
16, 225840, Note_on_c, 12, 67, 108
16, 225960, Note_off_c, 12, 67, 64
16, 225960, Note_on_c, 12, 65, 108
16, 226075, Note_off_c, 12, 65, 64
16, 226080, Note_on_c, 12, 67, 108
16, 226675, Note_off_c, 12, 67, 64
16, 226680, Note_on_c, 12, 68, 108
16, 226800, Note_off_c, 12, 68, 64
16, 226800, Note_on_c, 12, 67, 108
16, 226920, Note_off_c, 12, 67, 64
16, 226920, Note_on_c, 12, 65, 108
16, 227035, Note_off_c, 12, 65, 64
16, 227040, Note_on_c, 12, 67, 108
16, 227635, Note_off_c, 12, 67, 64
16, 227640, Note_on_c, 12, 68, 108
16, 227760, Note_off_c, 12, 68, 64
16, 227760, Note_on_c, 12, 67, 108
16, 227880, Note_off_c, 12, 67, 64
16, 227880, Note_on_c, 12, 65, 108
16, 227995, Note_off_c, 12, 65, 64
16, 228000, Note_on_c, 12, 67, 108
16, 228595, Note_off_c, 12, 67, 64
16, 228600, Note_on_c, 12, 68, 108
16, 228720, Note_off_c, 12, 68, 64
16, 228720, Note_on_c, 12, 67, 108
16, 228840, Note_off_c, 12, 67, 64
16, 228840, Note_on_c, 12, 65, 108
16, 229075, Note_off_c, 12, 65, 64
16, 229080, Note_on_c, 12, 68, 108
16, 229200, Note_off_c, 12, 68, 64
16, 229200, Note_on_c, 12, 67, 108
16, 229320, Note_off_c, 12, 67, 64
16, 229320, Note_on_c, 12, 65, 108
16, 229435, Note_off_c, 12, 65, 64
16, 229440, Note_on_c, 12, 63, 108
16, 229840, Note_off_c, 12, 63, 64
16, 229920, Note_on_c, 12, 65, 108
16, 230515, Note_off_c, 12, 65, 64
16, 230520, Note_on_c, 12, 68, 108
16, 230640, Note_off_c, 12, 68, 64
16, 230640, Note_on_c, 12, 67, 108
16, 230760, Note_off_c, 12, 67, 64
16, 230760, Note_on_c, 12, 65, 108
16, 230875, Note_off_c, 12, 65, 64
16, 230880, Note_on_c, 12, 63, 108
16, 231000, Note_off_c, 12, 63, 64
16, 231000, Note_on_c, 12, 65, 108
16, 231120, Note_off_c, 12, 65, 64
16, 231120, Note_on_c, 12, 63, 108
16, 231240, Note_off_c, 12, 63, 64
16, 231240, Note_on_c, 12, 62, 108
16, 231355, Note_off_c, 12, 62, 64
16, 231360, Note_on_c, 12, 60, 108
16, 231760, Note_off_c, 12, 60, 64
16, 232320, Note_on_c, 12, 72, 108
16, 232440, Note_off_c, 12, 72, 64
16, 232440, Note_on_c, 12, 74, 108
16, 232560, Note_off_c, 12, 74, 64
16, 232560, Note_on_c, 12, 72, 108
16, 232680, Note_off_c, 12, 72, 64
16, 232680, Note_on_c, 12, 71, 108
16, 232795, Note_off_c, 12, 71, 64
16, 232800, Note_on_c, 12, 72, 108
16, 233395, Note_off_c, 12, 72, 64
16, 233400, Note_on_c, 12, 74, 108
16, 233520, Note_off_c, 12, 74, 64
16, 233520, Note_on_c, 12, 72, 108
16, 233640, Note_off_c, 12, 72, 64
16, 233640, Note_on_c, 12, 71, 108
16, 233755, Note_off_c, 12, 71, 64
16, 233760, Note_on_c, 12, 72, 108
16, 234355, Note_off_c, 12, 72, 64
16, 234360, Note_on_c, 12, 74, 108
16, 234480, Note_off_c, 12, 74, 64
16, 234480, Note_on_c, 12, 72, 108
16, 234600, Note_off_c, 12, 72, 64
16, 234600, Note_on_c, 12, 71, 108
16, 234715, Note_off_c, 12, 71, 64
16, 234720, Note_on_c, 12, 72, 108
16, 235315, Note_off_c, 12, 72, 64
16, 235320, Note_on_c, 12, 74, 108
16, 235440, Note_off_c, 12, 74, 64
16, 235440, Note_on_c, 12, 72, 108
16, 235560, Note_off_c, 12, 72, 64
16, 235560, Note_on_c, 12, 71, 108
16, 235675, Note_off_c, 12, 71, 64
16, 235680, Note_on_c, 12, 72, 108
16, 236275, Note_off_c, 12, 72, 64
16, 236280, Note_on_c, 12, 74, 108
16, 236400, Note_off_c, 12, 74, 64
16, 236400, Note_on_c, 12, 72, 108
16, 236520, Note_off_c, 12, 72, 64
16, 236520, Note_on_c, 12, 71, 108
16, 236635, Note_off_c, 12, 71, 64
16, 236640, Note_on_c, 12, 72, 108
16, 236760, Note_off_c, 12, 72, 64
16, 236760, Note_on_c, 12, 75, 108
16, 236880, Note_off_c, 12, 75, 64
16, 236880, Note_on_c, 12, 74, 108
16, 237000, Note_off_c, 12, 74, 64
16, 237000, Note_on_c, 12, 72, 108
16, 237115, Note_off_c, 12, 72, 64
16, 237120, Note_on_c, 12, 71, 108
16, 237520, Note_off_c, 12, 71, 64
16, 237600, Note_on_c, 12, 72, 108
16, 237720, Note_off_c, 12, 72, 64
16, 237720, Note_on_c, 12, 74, 108
16, 237840, Note_off_c, 12, 74, 64
16, 237840, Note_on_c, 12, 72, 108
16, 237960, Note_off_c, 12, 72, 64
16, 237960, Note_on_c, 12, 71, 108
16, 238075, Note_off_c, 12, 71, 64
16, 238080, Note_on_c, 12, 72, 108
16, 238480, Note_off_c, 12, 72, 64
16, 238560, Note_on_c, 12, 74, 108
16, 238680, Note_off_c, 12, 74, 64
16, 238680, Note_on_c, 12, 77, 108
16, 238800, Note_off_c, 12, 77, 64
16, 238800, Note_on_c, 12, 75, 108
16, 238920, Note_off_c, 12, 75, 64
16, 238920, Note_on_c, 12, 74, 108
16, 239035, Note_off_c, 12, 74, 64
16, 239040, Note_on_c, 12, 72, 108
16, 239635, Note_off_c, 12, 72, 64
16, 239640, Note_on_c, 12, 74, 108
16, 239760, Note_off_c, 12, 74, 64
16, 239760, Note_on_c, 12, 72, 108
16, 239880, Note_off_c, 12, 72, 64
16, 239880, Note_on_c, 12, 70, 108
16, 239995, Note_off_c, 12, 70, 64
16, 240000, Note_on_c, 12, 68, 108
16, 240400, Note_off_c, 12, 68, 64
16, 240480, Note_on_c, 12, 67, 108
16, 240600, Note_off_c, 12, 67, 64
16, 240600, Note_on_c, 12, 68, 108
16, 240720, Note_off_c, 12, 68, 64
16, 240720, Note_on_c, 12, 67, 108
16, 240840, Note_off_c, 12, 67, 64
16, 240840, Note_on_c, 12, 65, 108
16, 240955, Note_off_c, 12, 65, 64
16, 240960, Note_on_c, 12, 67, 108
16, 241320, Note_off_c, 12, 67, 64
16, 241320, Note_on_c, 12, 68, 108
16, 241435, Note_off_c, 12, 68, 64
16, 241440, Note_on_c, 12, 67, 75
16, 241560, Note_off_c, 12, 67, 64
16, 241560, Note_on_c, 12, 68, 75
16, 241680, Note_off_c, 12, 68, 64
16, 241680, Note_on_c, 12, 67, 75
16, 241800, Note_off_c, 12, 67, 64
16, 241800, Note_on_c, 12, 65, 75
16, 241915, Note_off_c, 12, 65, 64
16, 241920, Note_on_c, 12, 63, 60
16, 242040, Note_off_c, 12, 63, 64
16, 242040, Note_on_c, 12, 65, 60
16, 242160, Note_off_c, 12, 65, 64
16, 242160, Note_on_c, 12, 63, 60
16, 242280, Note_off_c, 12, 63, 64
16, 242280, Note_on_c, 12, 62, 60
16, 242395, Note_off_c, 12, 62, 64
16, 242400, Note_on_c, 12, 63, 60
16, 242520, Note_off_c, 12, 63, 64
16, 242520, Note_on_c, 12, 62, 60
16, 242640, Note_off_c, 12, 62, 64
16, 242640, Note_on_c, 12, 63, 60
16, 242760, Note_off_c, 12, 63, 64
16, 242760, Note_on_c, 12, 65, 60
16, 242875, Note_off_c, 12, 65, 64
16, 242880, Note_on_c, 12, 67, 60
16, 243280, Note_off_c, 12, 67, 64
16, 276720, Note_on_c, 12, 63, 75
16, 276960, Note_off_c, 12, 63, 64
16, 276960, Note_on_c, 12, 59, 75
16, 277195, Note_off_c, 12, 59, 64
16, 277200, Note_on_c, 12, 59, 75
16, 277440, Note_off_c, 12, 59, 64
16, 277440, Note_on_c, 12, 60, 75
16, 277840, Note_off_c, 12, 60, 64
16, 278160, Note_on_c, 12, 68, 75
16, 278400, Note_off_c, 12, 68, 64
16, 278400, Note_on_c, 12, 62, 75
16, 278635, Note_off_c, 12, 62, 64
16, 278640, Note_on_c, 12, 62, 75
16, 278880, Note_off_c, 12, 62, 64
16, 278880, Note_on_c, 12, 64, 75
16, 279280, Note_off_c, 12, 64, 64
16, 279600, Note_on_c, 12, 65, 75
16, 279840, Note_off_c, 12, 65, 64
16, 279840, Note_on_c, 12, 60, 75
16, 280075, Note_off_c, 12, 60, 64
16, 280080, Note_on_c, 12, 60, 75
16, 280320, Note_off_c, 12, 60, 64
16, 280320, Note_on_c, 12, 62, 75
16, 280720, Note_off_c, 12, 62, 64
16, 281040, Note_on_c, 12, 63, 75
16, 281280, Note_off_c, 12, 63, 64
16, 281280, Note_on_c, 12, 59, 75
16, 281515, Note_off_c, 12, 59, 64
16, 281520, Note_on_c, 12, 59, 75
16, 281760, Note_off_c, 12, 59, 64
16, 281760, Note_on_c, 12, 60, 75
16, 282160, Note_off_c, 12, 60, 64
16, 282240, Note_on_c, 12, 67, 75
16, 282360, Note_off_c, 12, 67, 64
16, 282360, Note_on_c, 12, 68, 75
16, 282480, Note_off_c, 12, 68, 64
16, 282480, Note_on_c, 12, 70, 75
16, 282600, Note_off_c, 12, 70, 64
16, 282600, Note_on_c, 12, 63, 75
16, 282715, Note_off_c, 12, 63, 64
16, 282720, Note_on_c, 12, 63, 75
16, 283120, Note_off_c, 12, 63, 64
16, 283200, Note_on_c, 12, 62, 75
16, 283230, Note_off_c, 12, 62, 64
16, 283230, Note_on_c, 12, 63, 75
16, 283260, Note_off_c, 12, 63, 64
16, 283260, Note_on_c, 12, 62, 75
16, 283290, Note_off_c, 12, 62, 64
16, 283290, Note_on_c, 12, 63, 75
16, 283320, Note_off_c, 12, 63, 64
16, 283320, Note_on_c, 12, 62, 75
16, 283350, Note_off_c, 12, 62, 64
16, 283350, Note_on_c, 12, 63, 75
16, 283380, Note_off_c, 12, 63, 64
16, 283380, Note_on_c, 12, 62, 75
16, 283410, Note_off_c, 12, 62, 64
16, 283410, Note_on_c, 12, 63, 75
16, 283440, Note_off_c, 12, 63, 64
16, 283440, Note_on_c, 12, 62, 75
16, 283470, Note_off_c, 12, 62, 64
16, 283470, Note_on_c, 12, 63, 75
16, 283500, Note_off_c, 12, 63, 64
16, 283500, Note_on_c, 12, 62, 75
16, 283530, Note_off_c, 12, 62, 64
16, 283530, Note_on_c, 12, 63, 75
16, 283560, Note_off_c, 12, 63, 64
16, 283560, Note_on_c, 12, 62, 75
16, 283590, Note_off_c, 12, 62, 64
16, 283590, Note_on_c, 12, 63, 75
16, 283620, Note_off_c, 12, 63, 64
16, 283620, Note_on_c, 12, 62, 75
16, 283650, Note_off_c, 12, 62, 64
16, 283650, Note_on_c, 12, 63, 75
16, 283680, Note_off_c, 12, 63, 64
16, 283680, Note_on_c, 12, 63, 75
16, 283795, Note_off_c, 12, 63, 64
16, 283800, Note_on_c, 12, 70, 75
16, 283920, Note_off_c, 12, 70, 64
16, 283920, Note_on_c, 12, 68, 75
16, 284040, Note_off_c, 12, 68, 64
16, 284040, Note_on_c, 12, 70, 75
16, 284155, Note_off_c, 12, 70, 64
16, 284160, Note_on_c, 12, 67, 75
16, 284280, Note_off_c, 12, 67, 64
16, 284280, Note_on_c, 12, 68, 75
16, 284400, Note_off_c, 12, 68, 64
16, 284400, Note_on_c, 12, 65, 75
16, 284520, Note_off_c, 12, 65, 64
16, 284520, Note_on_c, 12, 67, 75
16, 284635, Note_off_c, 12, 67, 64
16, 284640, Note_on_c, 12, 63, 75
16, 284760, Note_off_c, 12, 63, 64
16, 284760, Note_on_c, 12, 67, 75
16, 284880, Note_off_c, 12, 67, 64
16, 284880, Note_on_c, 12, 65, 75
16, 285000, Note_off_c, 12, 65, 64
16, 285000, Note_on_c, 12, 63, 75
16, 285115, Note_off_c, 12, 63, 64
16, 285120, Note_on_c, 12, 62, 75
16, 285240, Note_off_c, 12, 62, 64
16, 285240, Note_on_c, 12, 65, 75
16, 285360, Note_off_c, 12, 65, 64
16, 285360, Note_on_c, 12, 63, 75
16, 285480, Note_off_c, 12, 63, 64
16, 285480, Note_on_c, 12, 67, 75
16, 285595, Note_off_c, 12, 67, 64
16, 285600, Note_on_c, 12, 65, 75
16, 285720, Note_off_c, 12, 65, 64
16, 285720, Note_on_c, 12, 68, 75
16, 285840, Note_off_c, 12, 68, 64
16, 285840, Note_on_c, 12, 67, 75
16, 285960, Note_off_c, 12, 67, 64
16, 285960, Note_on_c, 12, 65, 75
16, 286075, Note_off_c, 12, 65, 64
16, 286080, Note_on_c, 12, 70, 75
16, 286200, Note_off_c, 12, 70, 64
16, 286200, Note_on_c, 12, 63, 75
16, 286320, Note_off_c, 12, 63, 64
16, 286320, Note_on_c, 12, 62, 75
16, 286440, Note_off_c, 12, 62, 64
16, 286440, Note_on_c, 12, 63, 75
16, 286555, Note_off_c, 12, 63, 64
16, 286560, Note_on_c, 12, 60, 75
16, 286680, Note_off_c, 12, 60, 64
16, 286680, Note_on_c, 12, 63, 75
16, 286800, Note_off_c, 12, 63, 64
16, 286800, Note_on_c, 12, 60, 75
16, 286920, Note_off_c, 12, 60, 64
16, 286920, Note_on_c, 12, 63, 75
16, 287035, Note_off_c, 12, 63, 64
16, 287040, Note_on_c, 12, 60, 75
16, 287160, Note_off_c, 12, 60, 64
16, 287160, Note_on_c, 12, 61, 75
16, 287280, Note_off_c, 12, 61, 64
16, 287280, Note_on_c, 12, 60, 75
16, 287400, Note_off_c, 12, 60, 64
16, 287400, Note_on_c, 12, 61, 75
16, 287515, Note_off_c, 12, 61, 64
16, 287520, Note_on_c, 12, 58, 75
16, 287640, Note_off_c, 12, 58, 64
16, 287640, Note_on_c, 12, 61, 75
16, 287760, Note_off_c, 12, 61, 64
16, 287760, Note_on_c, 12, 58, 75
16, 287880, Note_off_c, 12, 58, 64
16, 287880, Note_on_c, 12, 61, 75
16, 287995, Note_off_c, 12, 61, 64
16, 288000, Note_on_c, 12, 56, 75
16, 288120, Note_off_c, 12, 56, 64
16, 288120, Note_on_c, 12, 60, 75
16, 288240, Note_off_c, 12, 60, 64
16, 288240, Note_on_c, 12, 58, 75
16, 288360, Note_off_c, 12, 58, 64
16, 288360, Note_on_c, 12, 61, 75
16, 288475, Note_off_c, 12, 61, 64
16, 288480, Note_on_c, 12, 60, 75
16, 288600, Note_off_c, 12, 60, 64
16, 288600, Note_on_c, 12, 63, 75
16, 288720, Note_off_c, 12, 63, 64
16, 288720, Note_on_c, 12, 62, 75
16, 288840, Note_off_c, 12, 62, 64
16, 288840, Note_on_c, 12, 63, 75
16, 288955, Note_off_c, 12, 63, 64
16, 288960, Note_on_c, 12, 60, 75
16, 289080, Note_off_c, 12, 60, 64
16, 289080, Note_on_c, 12, 65, 75
16, 289200, Note_off_c, 12, 65, 64
16, 289200, Note_on_c, 12, 63, 75
16, 289320, Note_off_c, 12, 63, 64
16, 289320, Note_on_c, 12, 65, 75
16, 289435, Note_off_c, 12, 65, 64
16, 289440, Note_on_c, 12, 62, 75
16, 289560, Note_off_c, 12, 62, 64
16, 289560, Note_on_c, 12, 65, 75
16, 289680, Note_off_c, 12, 65, 64
16, 289680, Note_on_c, 12, 63, 75
16, 289800, Note_off_c, 12, 63, 64
16, 289800, Note_on_c, 12, 67, 75
16, 289915, Note_off_c, 12, 67, 64
16, 289920, Note_on_c, 12, 65, 75
16, 290040, Note_off_c, 12, 65, 64
16, 290040, Note_on_c, 12, 70, 75
16, 290160, Note_off_c, 12, 70, 64
16, 290160, Note_on_c, 12, 68, 75
16, 290280, Note_off_c, 12, 68, 64
16, 290280, Note_on_c, 12, 70, 75
16, 290395, Note_off_c, 12, 70, 64
16, 290400, Note_on_c, 12, 67, 75
16, 290520, Note_off_c, 12, 67, 64
16, 290520, Note_on_c, 12, 72, 75
16, 290640, Note_off_c, 12, 72, 64
16, 290640, Note_on_c, 12, 70, 75
16, 290760, Note_off_c, 12, 70, 64
16, 290760, Note_on_c, 12, 72, 75
16, 290875, Note_off_c, 12, 72, 64
16, 290880, Note_on_c, 12, 68, 75
16, 291000, Note_off_c, 12, 68, 64
16, 291000, Note_on_c, 12, 72, 75
16, 291120, Note_off_c, 12, 72, 64
16, 291120, Note_on_c, 12, 70, 75
16, 291240, Note_off_c, 12, 70, 64
16, 291240, Note_on_c, 12, 72, 75
16, 291355, Note_off_c, 12, 72, 64
16, 291360, Note_on_c, 12, 68, 75
16, 291480, Note_off_c, 12, 68, 64
16, 291480, Note_on_c, 12, 70, 75
16, 291600, Note_off_c, 12, 70, 64
16, 291600, Note_on_c, 12, 67, 75
16, 291720, Note_off_c, 12, 67, 64
16, 291720, Note_on_c, 12, 68, 75
16, 291835, Note_off_c, 12, 68, 64
16, 291840, Note_on_c, 12, 65, 75
16, 291960, Note_off_c, 12, 65, 64
16, 291960, Note_on_c, 12, 70, 75
16, 292080, Note_off_c, 12, 70, 64
16, 292080, Note_on_c, 12, 68, 75
16, 292200, Note_off_c, 12, 68, 64
16, 292200, Note_on_c, 12, 70, 75
16, 292315, Note_off_c, 12, 70, 64
16, 292320, Note_on_c, 12, 67, 75
16, 292440, Note_off_c, 12, 67, 64
16, 292440, Note_on_c, 12, 70, 75
16, 292560, Note_off_c, 12, 70, 64
16, 292560, Note_on_c, 12, 68, 75
16, 292680, Note_off_c, 12, 68, 64
16, 292680, Note_on_c, 12, 70, 75
16, 292795, Note_off_c, 12, 70, 64
16, 292800, Note_on_c, 12, 67, 75
16, 292920, Note_off_c, 12, 67, 64
16, 292920, Note_on_c, 12, 68, 75
16, 293040, Note_off_c, 12, 68, 64
16, 293040, Note_on_c, 12, 65, 75
16, 293160, Note_off_c, 12, 65, 64
16, 293160, Note_on_c, 12, 67, 75
16, 293275, Note_off_c, 12, 67, 64
16, 293280, Note_on_c, 12, 63, 75
16, 293400, Note_off_c, 12, 63, 64
16, 293400, Note_on_c, 12, 65, 75
16, 293520, Note_off_c, 12, 65, 64
16, 293520, Note_on_c, 12, 62, 75
16, 293640, Note_off_c, 12, 62, 64
16, 293640, Note_on_c, 12, 63, 75
16, 293755, Note_off_c, 12, 63, 64
16, 293760, Note_on_c, 12, 60, 75
16, 294000, Note_off_c, 12, 60, 64
16, 294000, Note_on_c, 12, 63, 75
16, 294235, Note_off_c, 12, 63, 64
16, 294240, Note_on_c, 12, 68, 75
16, 294480, Note_off_c, 12, 68, 64
16, 294480, Note_on_c, 12, 60, 75
16, 294715, Note_off_c, 12, 60, 64
16, 294720, Note_on_c, 12, 58, 75
16, 294960, Note_off_c, 12, 58, 64
16, 294960, Note_on_c, 12, 68, 75
16, 295195, Note_off_c, 12, 68, 64
16, 295200, Note_on_c, 12, 58, 75
16, 295440, Note_off_c, 12, 58, 64
16, 295440, Note_on_c, 12, 62, 75
16, 295675, Note_off_c, 12, 62, 64
16, 295680, Note_on_c, 12, 67, 75
16, 295920, Note_off_c, 12, 67, 64
16, 295920, Note_on_c, 12, 58, 75
16, 296155, Note_off_c, 12, 58, 64
16, 296160, Note_on_c, 12, 56, 75
16, 296400, Note_off_c, 12, 56, 64
16, 296400, Note_on_c, 12, 67, 75
16, 296635, Note_off_c, 12, 67, 64
16, 296640, Note_on_c, 12, 56, 75
16, 296880, Note_off_c, 12, 56, 64
16, 296880, Note_on_c, 12, 60, 75
16, 297115, Note_off_c, 12, 60, 64
16, 297120, Note_on_c, 12, 65, 75
16, 297360, Note_off_c, 12, 65, 64
16, 297360, Note_on_c, 12, 56, 75
16, 297595, Note_off_c, 12, 56, 64
16, 297600, Note_on_c, 12, 55, 75
16, 297840, Note_off_c, 12, 55, 64
16, 297840, Note_on_c, 12, 65, 75
16, 298075, Note_off_c, 12, 65, 64
16, 298080, Note_on_c, 12, 55, 75
16, 298320, Note_off_c, 12, 55, 64
16, 298320, Note_on_c, 12, 58, 75
16, 298555, Note_off_c, 12, 58, 64
16, 298560, Note_on_c, 12, 63, 75
16, 298800, Note_off_c, 12, 63, 64
16, 298800, Note_on_c, 12, 55, 75
16, 299035, Note_off_c, 12, 55, 64
16, 299040, Note_on_c, 12, 57, 75
16, 299280, Note_off_c, 12, 57, 64
16, 299280, Note_on_c, 12, 63, 75
16, 299515, Note_off_c, 12, 63, 64
16, 299520, Note_on_c, 12, 62, 75
16, 299640, Note_off_c, 12, 62, 64
16, 299640, Note_on_c, 12, 65, 75
16, 299760, Note_off_c, 12, 65, 64
16, 299760, Note_on_c, 12, 62, 75
16, 299880, Note_off_c, 12, 62, 64
16, 299880, Note_on_c, 12, 65, 75
16, 299995, Note_off_c, 12, 65, 64
16, 300000, Note_on_c, 12, 58, 75
16, 300240, Note_off_c, 12, 58, 64
16, 300240, Note_on_c, 12, 57, 75
16, 300360, Note_off_c, 12, 57, 64
16, 300360, Note_on_c, 12, 55, 75
16, 300475, Note_off_c, 12, 55, 64
16, 300480, Note_on_c, 12, 62, 75
16, 300720, Note_off_c, 12, 62, 64
16, 300720, Note_on_c, 12, 63, 75
16, 300955, Note_off_c, 12, 63, 64
16, 300960, Note_on_c, 12, 65, 75
16, 301200, Note_off_c, 12, 65, 64
16, 301200, Note_on_c, 12, 62, 75
16, 301435, Note_off_c, 12, 62, 64
16, 301440, Note_on_c, 12, 57, 75
16, 301675, Note_off_c, 12, 57, 64
16, 301680, Note_on_c, 12, 57, 75
16, 301920, Note_off_c, 12, 57, 64
16, 301920, Note_on_c, 12, 58, 75
16, 302320, Note_off_c, 12, 58, 64
16, 302640, Note_on_c, 12, 67, 75
16, 302880, Note_off_c, 12, 67, 64
16, 302880, Note_on_c, 12, 60, 75
16, 303115, Note_off_c, 12, 60, 64
16, 303120, Note_on_c, 12, 60, 75
16, 303360, Note_off_c, 12, 60, 64
16, 303360, Note_on_c, 12, 62, 75
16, 303760, Note_off_c, 12, 62, 64
16, 304080, Note_on_c, 12, 63, 75
16, 304320, Note_off_c, 12, 63, 64
16, 304320, Note_on_c, 12, 58, 75
16, 304555, Note_off_c, 12, 58, 64
16, 304560, Note_on_c, 12, 58, 75
16, 304800, Note_off_c, 12, 58, 64
16, 304800, Note_on_c, 12, 60, 75
16, 305200, Note_off_c, 12, 60, 64
16, 305400, Note_on_c, 12, 62, 75
16, 305520, Note_off_c, 12, 62, 64
16, 305520, Note_on_c, 12, 60, 75
16, 305640, Note_off_c, 12, 60, 64
16, 305640, Note_on_c, 12, 62, 75
16, 305755, Note_off_c, 12, 62, 64
16, 305760, Note_on_c, 12, 63, 75
16, 306160, Note_off_c, 12, 63, 64
16, 306240, Note_on_c, 12, 65, 75
16, 306640, Note_off_c, 12, 65, 64
16, 306840, Note_on_c, 12, 67, 75
16, 306960, Note_off_c, 12, 67, 64
16, 306960, Note_on_c, 12, 65, 75
16, 307080, Note_off_c, 12, 65, 64
16, 307080, Note_on_c, 12, 67, 75
16, 307195, Note_off_c, 12, 67, 64
16, 307200, Note_on_c, 12, 68, 75
16, 307600, Note_off_c, 12, 68, 64
16, 307680, Note_on_c, 12, 70, 75
16, 308080, Note_off_c, 12, 70, 64
16, 308280, Note_on_c, 12, 72, 75
16, 308400, Note_off_c, 12, 72, 64
16, 308400, Note_on_c, 12, 70, 75
16, 308520, Note_off_c, 12, 70, 64
16, 308520, Note_on_c, 12, 72, 75
16, 308635, Note_off_c, 12, 72, 64
16, 308640, Note_on_c, 12, 65, 75
16, 309040, Note_off_c, 12, 65, 64
16, 309120, Note_on_c, 12, 67, 75
16, 309520, Note_off_c, 12, 67, 64
16, 309720, Note_on_c, 12, 68, 75
16, 309840, Note_off_c, 12, 68, 64
16, 309840, Note_on_c, 12, 67, 75
16, 309960, Note_off_c, 12, 67, 64
16, 309960, Note_on_c, 12, 68, 75
16, 310075, Note_off_c, 12, 68, 64
16, 310080, Note_on_c, 12, 62, 75
16, 310315, Note_off_c, 12, 62, 64
16, 310320, Note_on_c, 12, 62, 75
16, 310560, Note_off_c, 12, 62, 64
16, 310560, Note_on_c, 12, 63, 75
16, 310960, Note_off_c, 12, 63, 64
16, 311160, Note_on_c, 12, 65, 75
16, 311280, Note_off_c, 12, 65, 64
16, 311280, Note_on_c, 12, 63, 75
16, 311400, Note_off_c, 12, 63, 64
16, 311400, Note_on_c, 12, 65, 75
16, 311515, Note_off_c, 12, 65, 64
16, 311520, Note_on_c, 12, 60, 75
16, 311755, Note_off_c, 12, 60, 64
16, 311760, Note_on_c, 12, 60, 75
16, 312000, Note_off_c, 12, 60, 64
16, 312000, Note_on_c, 12, 62, 75
16, 312400, Note_off_c, 12, 62, 64
16, 312600, Note_on_c, 12, 72, 75
16, 312720, Note_off_c, 12, 72, 64
16, 312720, Note_on_c, 12, 71, 75
16, 312840, Note_off_c, 12, 71, 64
16, 312840, Note_on_c, 12, 72, 75
16, 312955, Note_off_c, 12, 72, 64
16, 313080, Note_on_c, 12, 72, 75
16, 313200, Note_off_c, 12, 72, 64
16, 313200, Note_on_c, 12, 71, 75
16, 313320, Note_off_c, 12, 71, 64
16, 313320, Note_on_c, 12, 72, 75
16, 313435, Note_off_c, 12, 72, 64
16, 313560, Note_on_c, 12, 72, 75
16, 313680, Note_off_c, 12, 72, 64
16, 313680, Note_on_c, 12, 71, 75
16, 313800, Note_off_c, 12, 71, 64
16, 313800, Note_on_c, 12, 72, 75
16, 313915, Note_off_c, 12, 72, 64
16, 314040, Note_on_c, 12, 70, 75
16, 314160, Note_off_c, 12, 70, 64
16, 314160, Note_on_c, 12, 69, 75
16, 314280, Note_off_c, 12, 69, 64
16, 314280, Note_on_c, 12, 70, 75
16, 314395, Note_off_c, 12, 70, 64
16, 314520, Note_on_c, 12, 69, 75
16, 314640, Note_off_c, 12, 69, 64
16, 314640, Note_on_c, 12, 67, 75
16, 314760, Note_off_c, 12, 67, 64
16, 314760, Note_on_c, 12, 69, 75
16, 314875, Note_off_c, 12, 69, 64
16, 315000, Note_on_c, 12, 69, 75
16, 315120, Note_off_c, 12, 69, 64
16, 315120, Note_on_c, 12, 67, 75
16, 315240, Note_off_c, 12, 67, 64
16, 315240, Note_on_c, 12, 69, 75
16, 315355, Note_off_c, 12, 69, 64
16, 315480, Note_on_c, 12, 67, 75
16, 315600, Note_off_c, 12, 67, 64
16, 315600, Note_on_c, 12, 66, 75
16, 315720, Note_off_c, 12, 66, 64
16, 315720, Note_on_c, 12, 67, 75
16, 315835, Note_off_c, 12, 67, 64
16, 315960, Note_on_c, 12, 67, 75
16, 316080, Note_off_c, 12, 67, 64
16, 316080, Note_on_c, 12, 66, 75
16, 316200, Note_off_c, 12, 66, 64
16, 316200, Note_on_c, 12, 67, 75
16, 316315, Note_off_c, 12, 67, 64
16, 316440, Note_on_c, 12, 69, 76
16, 316560, Note_off_c, 12, 69, 64
16, 316560, Note_on_c, 12, 67, 77
16, 316680, Note_off_c, 12, 67, 64
16, 316680, Note_on_c, 12, 69, 78
16, 316795, Note_off_c, 12, 69, 64
16, 316920, Note_on_c, 12, 66, 80
16, 317040, Note_off_c, 12, 66, 64
16, 317040, Note_on_c, 12, 64, 81
16, 317160, Note_off_c, 12, 64, 64
16, 317160, Note_on_c, 12, 66, 82
16, 317275, Note_off_c, 12, 66, 64
16, 317400, Note_on_c, 12, 66, 86
16, 317520, Note_off_c, 12, 66, 64
16, 317520, Note_on_c, 12, 64, 88
16, 317640, Note_off_c, 12, 64, 64
16, 317640, Note_on_c, 12, 66, 90
16, 317755, Note_off_c, 12, 66, 64
16, 317760, Note_on_c, 12, 67, 92
16, 318475, Note_off_c, 12, 67, 64
16, 318480, Note_on_c, 12, 70, 92
16, 318720, Note_off_c, 12, 70, 64
16, 318720, Note_on_c, 12, 66, 92
16, 318955, Note_off_c, 12, 66, 64
16, 318960, Note_on_c, 12, 66, 92
16, 319200, Note_off_c, 12, 66, 64
16, 319200, Note_on_c, 12, 67, 92
16, 319600, Note_off_c, 12, 67, 64
16, 319920, Note_on_c, 12, 75, 92
16, 320160, Note_off_c, 12, 75, 64
16, 320160, Note_on_c, 12, 69, 92
16, 320395, Note_off_c, 12, 69, 64
16, 320400, Note_on_c, 12, 69, 92
16, 320640, Note_off_c, 12, 69, 64
16, 320640, Note_on_c, 12, 70, 92
16, 321040, Note_off_c, 12, 70, 64
16, 321360, Note_on_c, 12, 72, 92
16, 321600, Note_off_c, 12, 72, 64
16, 321600, Note_on_c, 12, 67, 92
16, 321835, Note_off_c, 12, 67, 64
16, 321840, Note_on_c, 12, 67, 92
16, 322080, Note_off_c, 12, 67, 64
16, 322080, Note_on_c, 12, 69, 92
16, 322480, Note_off_c, 12, 69, 64
16, 322560, Note_on_c, 12, 69, 75
16, 322800, Note_off_c, 12, 69, 64
16, 322800, Note_on_c, 12, 70, 75
16, 323035, Note_off_c, 12, 70, 64
16, 323040, Note_on_c, 12, 69, 60
16, 323280, Note_off_c, 12, 69, 64
16, 323280, Note_on_c, 12, 64, 60
16, 323515, Note_off_c, 12, 64, 64
16, 336480, Note_on_c, 12, 60, 60
16, 336880, Note_off_c, 12, 60, 64
16, 336960, Note_on_c, 12, 67, 60
16, 337800, Note_off_c, 12, 67, 64
16, 337920, Note_on_c, 12, 63, 60
16, 338320, Note_off_c, 12, 63, 64
16, 338400, Note_on_c, 12, 65, 60
16, 339240, Note_off_c, 12, 65, 64
16, 339360, Note_on_c, 12, 67, 60
16, 339760, Note_off_c, 12, 67, 64
16, 339840, Note_on_c, 12, 68, 60
16, 340680, Note_off_c, 12, 68, 64
16, 340800, Note_on_c, 12, 65, 60
16, 341200, Note_off_c, 12, 65, 64
16, 341280, Note_on_c, 12, 67, 60
16, 341680, Note_off_c, 12, 67, 64
16, 353760, Note_on_c, 12, 55, 75
16, 354160, Note_off_c, 12, 55, 64
16, 354240, Note_on_c, 12, 62, 75
16, 355080, Note_off_c, 12, 62, 64
16, 355200, Note_on_c, 12, 58, 75
16, 355600, Note_off_c, 12, 58, 64
16, 355680, Note_on_c, 12, 60, 75
16, 356520, Note_off_c, 12, 60, 64
16, 356640, Note_on_c, 12, 62, 75
16, 357040, Note_off_c, 12, 62, 64
16, 357120, Note_on_c, 12, 63, 75
16, 357960, Note_off_c, 12, 63, 64
16, 358080, Note_on_c, 12, 60, 75
16, 358480, Note_off_c, 12, 60, 64
16, 358560, Note_on_c, 12, 62, 75
16, 359635, Note_off_c, 12, 62, 64
16, 359640, Note_on_c, 12, 62, 75
16, 359760, Note_off_c, 12, 62, 64
16, 359760, Note_on_c, 12, 60, 75
16, 359880, Note_off_c, 12, 60, 64
16, 359880, Note_on_c, 12, 62, 75
16, 359995, Note_off_c, 12, 62, 64
16, 360000, Note_on_c, 12, 63, 75
16, 360120, Note_off_c, 12, 63, 64
16, 360120, Note_on_c, 12, 65, 75
16, 360240, Note_off_c, 12, 65, 64
16, 360240, Note_on_c, 12, 62, 75
16, 360360, Note_off_c, 12, 62, 64
16, 360360, Note_on_c, 12, 64, 75
16, 360475, Note_off_c, 12, 64, 64
16, 360480, Note_on_c, 12, 65, 75
16, 360600, Note_off_c, 12, 65, 64
16, 360600, Note_on_c, 12, 67, 75
16, 360720, Note_off_c, 12, 67, 64
16, 360720, Note_on_c, 12, 64, 75
16, 360840, Note_off_c, 12, 64, 64
16, 360840, Note_on_c, 12, 66, 75
16, 360955, Note_off_c, 12, 66, 64
16, 360960, Note_on_c, 12, 67, 75
16, 361080, Note_off_c, 12, 67, 64
16, 361080, Note_on_c, 12, 69, 75
16, 361200, Note_off_c, 12, 69, 64
16, 361200, Note_on_c, 12, 62, 75
16, 361320, Note_off_c, 12, 62, 64
16, 361320, Note_on_c, 12, 65, 75
16, 361435, Note_off_c, 12, 65, 64
16, 361440, Note_on_c, 12, 63, 75
16, 361560, Note_off_c, 12, 63, 64
16, 361560, Note_on_c, 12, 65, 75
16, 361680, Note_off_c, 12, 65, 64
16, 361680, Note_on_c, 12, 60, 75
16, 361800, Note_off_c, 12, 60, 64
16, 361800, Note_on_c, 12, 63, 75
16, 361915, Note_off_c, 12, 63, 64
16, 361920, Note_on_c, 12, 62, 75
16, 362040, Note_off_c, 12, 62, 64
16, 362040, Note_on_c, 12, 63, 75
16, 362160, Note_off_c, 12, 63, 64
16, 362160, Note_on_c, 12, 58, 75
16, 362280, Note_off_c, 12, 58, 64
16, 362280, Note_on_c, 12, 62, 75
16, 362395, Note_off_c, 12, 62, 64
16, 362400, Note_on_c, 12, 60, 75
16, 362520, Note_off_c, 12, 60, 64
16, 362520, Note_on_c, 12, 62, 75
16, 362640, Note_off_c, 12, 62, 64
16, 362640, Note_on_c, 12, 57, 75
16, 362760, Note_off_c, 12, 57, 64
16, 362760, Note_on_c, 12, 60, 75
16, 362875, Note_off_c, 12, 60, 64
16, 362880, Note_on_c, 12, 59, 75
16, 363000, Note_off_c, 12, 59, 64
16, 363000, Note_on_c, 12, 60, 75
16, 363120, Note_off_c, 12, 60, 64
16, 363120, Note_on_c, 12, 57, 75
16, 363240, Note_off_c, 12, 57, 64
16, 363240, Note_on_c, 12, 59, 75
16, 363355, Note_off_c, 12, 59, 64
16, 363360, Note_on_c, 12, 60, 75
16, 363480, Note_off_c, 12, 60, 64
16, 363480, Note_on_c, 12, 62, 75
16, 363600, Note_off_c, 12, 62, 64
16, 363600, Note_on_c, 12, 63, 75
16, 363720, Note_off_c, 12, 63, 64
16, 363720, Note_on_c, 12, 57, 75
16, 363835, Note_off_c, 12, 57, 64
16, 363840, Note_on_c, 12, 57, 75
16, 363870, Note_off_c, 12, 57, 64
16, 363870, Note_on_c, 12, 59, 75
16, 363900, Note_off_c, 12, 59, 64
16, 363900, Note_on_c, 12, 57, 75
16, 363930, Note_off_c, 12, 57, 64
16, 363930, Note_on_c, 12, 59, 75
16, 363960, Note_off_c, 12, 59, 64
16, 363960, Note_on_c, 12, 57, 75
16, 363990, Note_off_c, 12, 57, 64
16, 363990, Note_on_c, 12, 59, 75
16, 364020, Note_off_c, 12, 59, 64
16, 364020, Note_on_c, 12, 57, 75
16, 364050, Note_off_c, 12, 57, 64
16, 364050, Note_on_c, 12, 59, 75
16, 364080, Note_off_c, 12, 59, 64
16, 364080, Note_on_c, 12, 57, 75
16, 364110, Note_off_c, 12, 57, 64
16, 364110, Note_on_c, 12, 59, 75
16, 364140, Note_off_c, 12, 59, 64
16, 364140, Note_on_c, 12, 57, 75
16, 364170, Note_off_c, 12, 57, 64
16, 364170, Note_on_c, 12, 59, 75
16, 364200, Note_off_c, 12, 59, 64
16, 364200, Note_on_c, 12, 57, 75
16, 364230, Note_off_c, 12, 57, 64
16, 364230, Note_on_c, 12, 59, 75
16, 364260, Note_off_c, 12, 59, 64
16, 364260, Note_on_c, 12, 57, 75
16, 364290, Note_off_c, 12, 57, 64
16, 364290, Note_on_c, 12, 59, 75
16, 364315, Note_off_c, 12, 59, 64
16, 364320, Note_on_c, 12, 55, 75
16, 364440, Note_off_c, 12, 55, 64
16, 364440, Note_on_c, 12, 59, 75
16, 364560, Note_off_c, 12, 59, 64
16, 364560, Note_on_c, 12, 57, 75
16, 364680, Note_off_c, 12, 57, 64
16, 364680, Note_on_c, 12, 60, 75
16, 364795, Note_off_c, 12, 60, 64
16, 364800, Note_on_c, 12, 59, 75
16, 364920, Note_off_c, 12, 59, 64
16, 364920, Note_on_c, 12, 62, 75
16, 365040, Note_off_c, 12, 62, 64
16, 365040, Note_on_c, 12, 60, 75
16, 365160, Note_off_c, 12, 60, 64
16, 365160, Note_on_c, 12, 63, 75
16, 365275, Note_off_c, 12, 63, 64
16, 365280, Note_on_c, 12, 62, 75
16, 365400, Note_off_c, 12, 62, 64
16, 365400, Note_on_c, 12, 65, 75
16, 365520, Note_off_c, 12, 65, 64
16, 365520, Note_on_c, 12, 63, 75
16, 365640, Note_off_c, 12, 63, 64
16, 365640, Note_on_c, 12, 62, 75
16, 365755, Note_off_c, 12, 62, 64
16, 365760, Note_on_c, 12, 63, 75
16, 366160, Note_off_c, 12, 63, 64
16, 366960, Note_on_c, 12, 64, 92
16, 367195, Note_off_c, 12, 64, 64
16, 367200, Note_on_c, 12, 65, 92
16, 367320, Note_off_c, 12, 65, 64
16, 367320, Note_on_c, 12, 68, 92
16, 367440, Note_off_c, 12, 68, 64
16, 367440, Note_on_c, 12, 67, 92
16, 367560, Note_off_c, 12, 67, 64
16, 367560, Note_on_c, 12, 70, 92
16, 367675, Note_off_c, 12, 70, 64
16, 367680, Note_on_c, 12, 68, 92
16, 367915, Note_off_c, 12, 68, 64
16, 367920, Note_on_c, 12, 70, 92
16, 367980, Note_off_c, 12, 70, 64
16, 367980, Note_on_c, 12, 72, 92
16, 368040, Note_off_c, 12, 72, 64
16, 368040, Note_on_c, 12, 70, 92
16, 368100, Note_off_c, 12, 70, 64
16, 368100, Note_on_c, 12, 72, 92
16, 368155, Note_off_c, 12, 72, 64
16, 368160, Note_on_c, 12, 68, 92
16, 368220, Note_off_c, 12, 68, 64
16, 368220, Note_on_c, 12, 70, 92
16, 368280, Note_off_c, 12, 70, 64
16, 368280, Note_on_c, 12, 72, 92
16, 368340, Note_off_c, 12, 72, 64
16, 368340, Note_on_c, 12, 68, 92
16, 368400, Note_off_c, 12, 68, 64
16, 368400, Note_on_c, 12, 67, 92
16, 368520, Note_off_c, 12, 67, 64
16, 368520, Note_on_c, 12, 65, 92
16, 368635, Note_off_c, 12, 65, 64
16, 368640, Note_on_c, 12, 64, 92
16, 368760, Note_off_c, 12, 64, 64
16, 368760, Note_on_c, 12, 67, 92
16, 368880, Note_off_c, 12, 67, 64
16, 368880, Note_on_c, 12, 65, 92
16, 369000, Note_off_c, 12, 65, 64
16, 369000, Note_on_c, 12, 68, 92
16, 369115, Note_off_c, 12, 68, 64
16, 369120, Note_on_c, 12, 67, 92
16, 369240, Note_off_c, 12, 67, 64
16, 369240, Note_on_c, 12, 70, 92
16, 369360, Note_off_c, 12, 70, 64
16, 369360, Note_on_c, 12, 68, 92
16, 369480, Note_off_c, 12, 68, 64
16, 369480, Note_on_c, 12, 67, 92
16, 369595, Note_off_c, 12, 67, 64
16, 369600, Note_on_c, 12, 68, 92
16, 370480, Note_off_c, 12, 68, 64
16, 370560, Note_on_c, 12, 67, 92
16, 370960, Note_off_c, 12, 67, 64
16, 371040, Note_on_c, 12, 66, 92
16, 371440, Note_off_c, 12, 66, 64
16, 371520, Note_on_c, 12, 65, 92
16, 373075, Note_off_c, 12, 65, 64
16, 373080, Note_on_c, 12, 65, 92
16, 373200, Note_off_c, 12, 65, 64
16, 373200, Note_on_c, 12, 67, 92
16, 373320, Note_off_c, 12, 67, 64
16, 373320, Note_on_c, 12, 65, 92
16, 373435, Note_off_c, 12, 65, 64
16, 373440, Note_on_c, 12, 64, 92
16, 373680, Note_off_c, 12, 64, 64
16, 373680, Note_on_c, 12, 65, 92
16, 373915, Note_off_c, 12, 65, 64
16, 373920, Note_on_c, 12, 67, 92
16, 374515, Note_off_c, 12, 67, 64
16, 374520, Note_on_c, 12, 67, 92
16, 374640, Note_off_c, 12, 67, 64
16, 374640, Note_on_c, 12, 68, 92
16, 374760, Note_off_c, 12, 68, 64
16, 374760, Note_on_c, 12, 67, 92
16, 374875, Note_off_c, 12, 67, 64
16, 374880, Note_on_c, 12, 65, 92
16, 375120, Note_off_c, 12, 65, 64
16, 375120, Note_on_c, 12, 67, 92
16, 375355, Note_off_c, 12, 67, 64
16, 375360, Note_on_c, 12, 68, 92
16, 375955, Note_off_c, 12, 68, 64
16, 375960, Note_on_c, 12, 68, 92
16, 376080, Note_off_c, 12, 68, 64
16, 376080, Note_on_c, 12, 70, 92
16, 376200, Note_off_c, 12, 70, 64
16, 376200, Note_on_c, 12, 68, 92
16, 376315, Note_off_c, 12, 68, 64
16, 376320, Note_on_c, 12, 67, 92
16, 376440, Note_off_c, 12, 67, 64
16, 376440, Note_on_c, 12, 70, 92
16, 376560, Note_off_c, 12, 70, 64
16, 376560, Note_on_c, 12, 68, 92
16, 376680, Note_off_c, 12, 68, 64
16, 376680, Note_on_c, 12, 72, 92
16, 376795, Note_off_c, 12, 72, 64
16, 376800, Note_on_c, 12, 70, 92
16, 377395, Note_off_c, 12, 70, 64
16, 377400, Note_on_c, 12, 72, 92
16, 377520, Note_off_c, 12, 72, 64
16, 377520, Note_on_c, 12, 67, 92
16, 377640, Note_off_c, 12, 67, 64
16, 377640, Note_on_c, 12, 70, 92
16, 377755, Note_off_c, 12, 70, 64
16, 377760, Note_on_c, 12, 68, 92
16, 378355, Note_off_c, 12, 68, 64
16, 378360, Note_on_c, 12, 72, 92
16, 378480, Note_off_c, 12, 72, 64
16, 378480, Note_on_c, 12, 68, 92
16, 378600, Note_off_c, 12, 68, 64
16, 378600, Note_on_c, 12, 72, 92
16, 378715, Note_off_c, 12, 72, 64
16, 378720, Note_on_c, 12, 66, 92
16, 379560, Note_off_c, 12, 66, 64
16, 379680, Note_on_c, 12, 67, 92
16, 380080, Note_off_c, 12, 67, 64
16, 380280, Note_on_c, 12, 69, 92
16, 380400, Note_off_c, 12, 69, 64
16, 380400, Note_on_c, 12, 67, 92
16, 380520, Note_off_c, 12, 67, 64
16, 380520, Note_on_c, 12, 69, 92
16, 380635, Note_off_c, 12, 69, 64
16, 380640, Note_on_c, 12, 66, 92
16, 381040, Note_off_c, 12, 66, 64
16, 381240, Note_on_c, 12, 67, 92
16, 381360, Note_off_c, 12, 67, 64
16, 381360, Note_on_c, 12, 65, 92
16, 381480, Note_off_c, 12, 65, 64
16, 381480, Note_on_c, 12, 67, 92
16, 381595, Note_off_c, 12, 67, 64
16, 381600, Note_on_c, 12, 63, 92
16, 382000, Note_off_c, 12, 63, 64
16, 382200, Note_on_c, 12, 62, 92
16, 382320, Note_off_c, 12, 62, 64
16, 382320, Note_on_c, 12, 60, 92
16, 382440, Note_off_c, 12, 60, 64
16, 382440, Note_on_c, 12, 62, 92
16, 382555, Note_off_c, 12, 62, 64
16, 382560, Note_on_c, 12, 58, 92
16, 382960, Note_off_c, 12, 58, 64
16, 383040, Note_on_c, 12, 60, 92
16, 383440, Note_off_c, 12, 60, 64
16, 383640, Note_on_c, 12, 60, 92
16, 383760, Note_off_c, 12, 60, 64
16, 383760, Note_on_c, 12, 58, 92
16, 383880, Note_off_c, 12, 58, 64
16, 383880, Note_on_c, 12, 60, 92
16, 383995, Note_off_c, 12, 60, 64
16, 384000, Note_on_c, 12, 57, 92
16, 384400, Note_off_c, 12, 57, 64
16, 384480, Note_on_c, 12, 59, 92
16, 384600, Note_off_c, 12, 59, 64
16, 384600, Note_on_c, 12, 62, 92
16, 384720, Note_off_c, 12, 62, 64
16, 384720, Note_on_c, 12, 60, 92
16, 384840, Note_off_c, 12, 60, 64
16, 384840, Note_on_c, 12, 63, 92
16, 384955, Note_off_c, 12, 63, 64
16, 384960, Note_on_c, 12, 62, 92
16, 385080, Note_off_c, 12, 62, 64
16, 385080, Note_on_c, 12, 65, 92
16, 385200, Note_off_c, 12, 65, 64
16, 385200, Note_on_c, 12, 63, 92
16, 385320, Note_off_c, 12, 63, 64
16, 385320, Note_on_c, 12, 67, 92
16, 385435, Note_off_c, 12, 67, 64
16, 385440, Note_on_c, 12, 65, 92
16, 385560, Note_off_c, 12, 65, 64
16, 385560, Note_on_c, 12, 68, 92
16, 385680, Note_off_c, 12, 68, 64
16, 385680, Note_on_c, 12, 67, 92
16, 385800, Note_off_c, 12, 67, 64
16, 385800, Note_on_c, 12, 65, 92
16, 385920, Note_off_c, 12, 65, 64
16, 385920, Note_on_c, 12, 63, 92
16, 386040, Note_off_c, 12, 63, 64
16, 386040, Note_on_c, 12, 67, 92
16, 386160, Note_off_c, 12, 67, 64
16, 386160, Note_on_c, 12, 65, 92
16, 386280, Note_off_c, 12, 65, 64
16, 386280, Note_on_c, 12, 68, 92
16, 386400, Note_off_c, 12, 68, 64
16, 386400, Note_on_c, 12, 67, 92
16, 386520, Note_off_c, 12, 67, 64
16, 386520, Note_on_c, 12, 70, 92
16, 386640, Note_off_c, 12, 70, 64
16, 386640, Note_on_c, 12, 68, 92
16, 386760, Note_off_c, 12, 68, 64
16, 386760, Note_on_c, 12, 72, 92
16, 386875, Note_off_c, 12, 72, 64
16, 386880, Note_on_c, 12, 70, 92
16, 387000, Note_off_c, 12, 70, 64
16, 387000, Note_on_c, 12, 73, 92
16, 387120, Note_off_c, 12, 73, 64
16, 387120, Note_on_c, 12, 72, 92
16, 387240, Note_off_c, 12, 72, 64
16, 387240, Note_on_c, 12, 70, 92
16, 387355, Note_off_c, 12, 70, 64
16, 387360, Note_on_c, 12, 68, 92
16, 387390, Note_off_c, 12, 68, 64
16, 387390, Note_on_c, 12, 70, 92
16, 387420, Note_off_c, 12, 70, 64
16, 387420, Note_on_c, 12, 68, 92
16, 387450, Note_off_c, 12, 68, 64
16, 387450, Note_on_c, 12, 70, 92
16, 387480, Note_off_c, 12, 70, 64
16, 387480, Note_on_c, 12, 68, 92
16, 387510, Note_off_c, 12, 68, 64
16, 387510, Note_on_c, 12, 70, 92
16, 387540, Note_off_c, 12, 70, 64
16, 387540, Note_on_c, 12, 68, 92
16, 387570, Note_off_c, 12, 68, 64
16, 387570, Note_on_c, 12, 70, 92
16, 387600, Note_off_c, 12, 70, 64
16, 387600, Note_on_c, 12, 68, 92
16, 387630, Note_off_c, 12, 68, 64
16, 387630, Note_on_c, 12, 70, 92
16, 387660, Note_off_c, 12, 70, 64
16, 387660, Note_on_c, 12, 68, 92
16, 387690, Note_off_c, 12, 68, 64
16, 387690, Note_on_c, 12, 70, 92
16, 387720, Note_off_c, 12, 70, 64
16, 387720, Note_on_c, 12, 68, 92
16, 387750, Note_off_c, 12, 68, 64
16, 387750, Note_on_c, 12, 70, 92
16, 387780, Note_off_c, 12, 70, 64
16, 387780, Note_on_c, 12, 68, 92
16, 387810, Note_off_c, 12, 68, 64
16, 387810, Note_on_c, 12, 70, 92
16, 387840, Note_off_c, 12, 70, 64
16, 387840, Note_on_c, 12, 68, 92
16, 387870, Note_off_c, 12, 68, 64
16, 387870, Note_on_c, 12, 70, 92
16, 387900, Note_off_c, 12, 70, 64
16, 387900, Note_on_c, 12, 68, 92
16, 387930, Note_off_c, 12, 68, 64
16, 387930, Note_on_c, 12, 70, 92
16, 387960, Note_off_c, 12, 70, 64
16, 387960, Note_on_c, 12, 68, 92
16, 387990, Note_off_c, 12, 68, 64
16, 387990, Note_on_c, 12, 70, 92
16, 388020, Note_off_c, 12, 70, 64
16, 388020, Note_on_c, 12, 68, 92
16, 388050, Note_off_c, 12, 68, 64
16, 388050, Note_on_c, 12, 70, 92
16, 388080, Note_off_c, 12, 70, 64
16, 388080, Note_on_c, 12, 68, 92
16, 388110, Note_off_c, 12, 68, 64
16, 388110, Note_on_c, 12, 70, 92
16, 388140, Note_off_c, 12, 70, 64
16, 388140, Note_on_c, 12, 68, 92
16, 388170, Note_off_c, 12, 68, 64
16, 388170, Note_on_c, 12, 70, 92
16, 388200, Note_off_c, 12, 70, 64
16, 388200, Note_on_c, 12, 68, 92
16, 388230, Note_off_c, 12, 68, 64
16, 388230, Note_on_c, 12, 70, 92
16, 388260, Note_off_c, 12, 70, 64
16, 388260, Note_on_c, 12, 68, 92
16, 388290, Note_off_c, 12, 68, 64
16, 388290, Note_on_c, 12, 70, 92
16, 388315, Note_off_c, 12, 70, 64
16, 388320, Note_on_c, 12, 68, 92
16, 388350, Note_off_c, 12, 68, 64
16, 388350, Note_on_c, 12, 70, 92
16, 388380, Note_off_c, 12, 70, 64
16, 388380, Note_on_c, 12, 68, 92
16, 388410, Note_off_c, 12, 68, 64
16, 388410, Note_on_c, 12, 70, 92
16, 388440, Note_off_c, 12, 70, 64
16, 388440, Note_on_c, 12, 68, 92
16, 388470, Note_off_c, 12, 68, 64
16, 388470, Note_on_c, 12, 70, 92
16, 388500, Note_off_c, 12, 70, 64
16, 388500, Note_on_c, 12, 68, 92
16, 388530, Note_off_c, 12, 68, 64
16, 388530, Note_on_c, 12, 70, 92
16, 388560, Note_off_c, 12, 70, 64
16, 388560, Note_on_c, 12, 68, 92
16, 388590, Note_off_c, 12, 68, 64
16, 388590, Note_on_c, 12, 70, 92
16, 388620, Note_off_c, 12, 70, 64
16, 388620, Note_on_c, 12, 68, 92
16, 388650, Note_off_c, 12, 68, 64
16, 388650, Note_on_c, 12, 70, 92
16, 388680, Note_off_c, 12, 70, 64
16, 388680, Note_on_c, 12, 68, 92
16, 388710, Note_off_c, 12, 68, 64
16, 388710, Note_on_c, 12, 70, 92
16, 388740, Note_off_c, 12, 70, 64
16, 388740, Note_on_c, 12, 68, 92
16, 388770, Note_off_c, 12, 68, 64
16, 388770, Note_on_c, 12, 70, 92
16, 388800, Note_off_c, 12, 70, 64
16, 388800, Note_on_c, 12, 68, 92
16, 388830, Note_off_c, 12, 68, 64
16, 388830, Note_on_c, 12, 70, 92
16, 388860, Note_off_c, 12, 70, 64
16, 388860, Note_on_c, 12, 68, 92
16, 388890, Note_off_c, 12, 68, 64
16, 388890, Note_on_c, 12, 70, 92
16, 388920, Note_off_c, 12, 70, 64
16, 388920, Note_on_c, 12, 68, 92
16, 388950, Note_off_c, 12, 68, 64
16, 388950, Note_on_c, 12, 70, 92
16, 388980, Note_off_c, 12, 70, 64
16, 388980, Note_on_c, 12, 68, 92
16, 389010, Note_off_c, 12, 68, 64
16, 389010, Note_on_c, 12, 70, 92
16, 389040, Note_off_c, 12, 70, 64
16, 389040, Note_on_c, 12, 68, 92
16, 389070, Note_off_c, 12, 68, 64
16, 389070, Note_on_c, 12, 70, 92
16, 389100, Note_off_c, 12, 70, 64
16, 389100, Note_on_c, 12, 68, 92
16, 389130, Note_off_c, 12, 68, 64
16, 389130, Note_on_c, 12, 70, 92
16, 389160, Note_off_c, 12, 70, 64
16, 389160, Note_on_c, 12, 68, 92
16, 389190, Note_off_c, 12, 68, 64
16, 389190, Note_on_c, 12, 70, 92
16, 389220, Note_off_c, 12, 70, 64
16, 389220, Note_on_c, 12, 68, 92
16, 389250, Note_off_c, 12, 68, 64
16, 389250, Note_on_c, 12, 70, 92
16, 389280, Note_off_c, 12, 70, 64
16, 389280, Note_on_c, 12, 68, 92
16, 389310, Note_off_c, 12, 68, 64
16, 389310, Note_on_c, 12, 70, 92
16, 389340, Note_off_c, 12, 70, 64
16, 389340, Note_on_c, 12, 68, 92
16, 389370, Note_off_c, 12, 68, 64
16, 389370, Note_on_c, 12, 70, 92
16, 389400, Note_off_c, 12, 70, 64
16, 389400, Note_on_c, 12, 68, 92
16, 389430, Note_off_c, 12, 68, 64
16, 389430, Note_on_c, 12, 70, 92
16, 389460, Note_off_c, 12, 70, 64
16, 389460, Note_on_c, 12, 68, 92
16, 389490, Note_off_c, 12, 68, 64
16, 389490, Note_on_c, 12, 70, 92
16, 389520, Note_off_c, 12, 70, 64
16, 389520, Note_on_c, 12, 68, 92
16, 389550, Note_off_c, 12, 68, 64
16, 389550, Note_on_c, 12, 70, 92
16, 389580, Note_off_c, 12, 70, 64
16, 389580, Note_on_c, 12, 68, 92
16, 389610, Note_off_c, 12, 68, 64
16, 389610, Note_on_c, 12, 70, 92
16, 389640, Note_off_c, 12, 70, 64
16, 389640, Note_on_c, 12, 68, 92
16, 389670, Note_off_c, 12, 68, 64
16, 389670, Note_on_c, 12, 70, 92
16, 389700, Note_off_c, 12, 70, 64
16, 389700, Note_on_c, 12, 68, 92
16, 389730, Note_off_c, 12, 68, 64
16, 389730, Note_on_c, 12, 70, 92
16, 389755, Note_off_c, 12, 70, 64
16, 389760, Note_on_c, 12, 68, 92
16, 389790, Note_off_c, 12, 68, 64
16, 389790, Note_on_c, 12, 70, 92
16, 389820, Note_off_c, 12, 70, 64
16, 389820, Note_on_c, 12, 68, 92
16, 389850, Note_off_c, 12, 68, 64
16, 389850, Note_on_c, 12, 70, 92
16, 389880, Note_off_c, 12, 70, 64
16, 389880, Note_on_c, 12, 68, 92
16, 389910, Note_off_c, 12, 68, 64
16, 389910, Note_on_c, 12, 70, 92
16, 389940, Note_off_c, 12, 70, 64
16, 389940, Note_on_c, 12, 68, 92
16, 389970, Note_off_c, 12, 68, 64
16, 389970, Note_on_c, 12, 70, 92
16, 390000, Note_off_c, 12, 70, 64
16, 390000, Note_on_c, 12, 68, 92
16, 390030, Note_off_c, 12, 68, 64
16, 390030, Note_on_c, 12, 70, 92
16, 390060, Note_off_c, 12, 70, 64
16, 390060, Note_on_c, 12, 68, 92
16, 390090, Note_off_c, 12, 68, 64
16, 390090, Note_on_c, 12, 70, 92
16, 390120, Note_off_c, 12, 70, 64
16, 390120, Note_on_c, 12, 68, 92
16, 390150, Note_off_c, 12, 68, 64
16, 390150, Note_on_c, 12, 70, 92
16, 390180, Note_off_c, 12, 70, 64
16, 390180, Note_on_c, 12, 68, 92
16, 390210, Note_off_c, 12, 68, 64
16, 390210, Note_on_c, 12, 70, 92
16, 390240, Note_off_c, 12, 70, 64
16, 390240, Note_on_c, 12, 68, 92
16, 390270, Note_off_c, 12, 68, 64
16, 390270, Note_on_c, 12, 70, 92
16, 390300, Note_off_c, 12, 70, 64
16, 390300, Note_on_c, 12, 68, 92
16, 390330, Note_off_c, 12, 68, 64
16, 390330, Note_on_c, 12, 70, 92
16, 390360, Note_off_c, 12, 70, 64
16, 390360, Note_on_c, 12, 68, 92
16, 390390, Note_off_c, 12, 68, 64
16, 390390, Note_on_c, 12, 70, 92
16, 390420, Note_off_c, 12, 70, 64
16, 390420, Note_on_c, 12, 68, 92
16, 390450, Note_off_c, 12, 68, 64
16, 390450, Note_on_c, 12, 70, 92
16, 390480, Note_off_c, 12, 70, 64
16, 390480, Note_on_c, 12, 68, 92
16, 390510, Note_off_c, 12, 68, 64
16, 390510, Note_on_c, 12, 70, 92
16, 390540, Note_off_c, 12, 70, 64
16, 390540, Note_on_c, 12, 68, 92
16, 390570, Note_off_c, 12, 68, 64
16, 390570, Note_on_c, 12, 70, 92
16, 390600, Note_off_c, 12, 70, 64
16, 390600, Note_on_c, 12, 68, 92
16, 390630, Note_off_c, 12, 68, 64
16, 390630, Note_on_c, 12, 70, 92
16, 390660, Note_off_c, 12, 70, 64
16, 390660, Note_on_c, 12, 68, 92
16, 390690, Note_off_c, 12, 68, 64
16, 390690, Note_on_c, 12, 70, 92
16, 390720, Note_off_c, 12, 70, 64
16, 390720, Note_on_c, 12, 68, 92
16, 390750, Note_off_c, 12, 68, 64
16, 390750, Note_on_c, 12, 70, 92
16, 390780, Note_off_c, 12, 70, 64
16, 390780, Note_on_c, 12, 68, 92
16, 390810, Note_off_c, 12, 68, 64
16, 390810, Note_on_c, 12, 70, 92
16, 390840, Note_off_c, 12, 70, 64
16, 390840, Note_on_c, 12, 68, 92
16, 390870, Note_off_c, 12, 68, 64
16, 390870, Note_on_c, 12, 70, 92
16, 390900, Note_off_c, 12, 70, 64
16, 390900, Note_on_c, 12, 68, 92
16, 390930, Note_off_c, 12, 68, 64
16, 390930, Note_on_c, 12, 70, 92
16, 390960, Note_off_c, 12, 70, 64
16, 390960, Note_on_c, 12, 68, 92
16, 390990, Note_off_c, 12, 68, 64
16, 390990, Note_on_c, 12, 70, 92
16, 391020, Note_off_c, 12, 70, 64
16, 391020, Note_on_c, 12, 68, 92
16, 391050, Note_off_c, 12, 68, 64
16, 391050, Note_on_c, 12, 70, 92
16, 391080, Note_off_c, 12, 70, 64
16, 391080, Note_on_c, 12, 68, 92
16, 391110, Note_off_c, 12, 68, 64
16, 391110, Note_on_c, 12, 70, 92
16, 391140, Note_off_c, 12, 70, 64
16, 391140, Note_on_c, 12, 68, 92
16, 391170, Note_off_c, 12, 68, 64
16, 391170, Note_on_c, 12, 70, 92
16, 391195, Note_off_c, 12, 70, 64
16, 391200, Note_on_c, 12, 60, 92
16, 391600, Note_off_c, 12, 60, 64
16, 391680, Note_on_c, 12, 67, 92
16, 392520, Note_off_c, 12, 67, 64
16, 392640, Note_on_c, 12, 63, 92
16, 393040, Note_off_c, 12, 63, 64
16, 393120, Note_on_c, 12, 65, 92
16, 393960, Note_off_c, 12, 65, 64
16, 394080, Note_on_c, 12, 67, 92
16, 394480, Note_off_c, 12, 67, 64
16, 394560, Note_on_c, 12, 68, 92
16, 395400, Note_off_c, 12, 68, 64
16, 395520, Note_on_c, 12, 65, 92
16, 395920, Note_off_c, 12, 65, 64
16, 396000, Note_on_c, 12, 67, 92
16, 399280, Note_off_c, 12, 67, 64
16, 399360, Note_on_c, 12, 65, 92
16, 400720, Note_off_c, 12, 65, 64
16, 400800, Note_on_c, 12, 63, 92
16, 402160, Note_off_c, 12, 63, 64
16, 402240, Note_on_c, 12, 62, 92
16, 403600, Note_off_c, 12, 62, 64
16, 403680, Note_on_c, 12, 60, 92
16, 403800, Note_off_c, 12, 60, 64
16, 403800, Note_on_c, 12, 63, 92
16, 403920, Note_off_c, 12, 63, 64
16, 403920, Note_on_c, 12, 60, 92
16, 404040, Note_off_c, 12, 60, 64
16, 404040, Note_on_c, 12, 63, 92
16, 404155, Note_off_c, 12, 63, 64
16, 404160, Note_on_c, 12, 62, 92
16, 404280, Note_off_c, 12, 62, 64
16, 404280, Note_on_c, 12, 65, 92
16, 404400, Note_off_c, 12, 65, 64
16, 404400, Note_on_c, 12, 62, 92
16, 404520, Note_off_c, 12, 62, 64
16, 404520, Note_on_c, 12, 65, 92
16, 404635, Note_off_c, 12, 65, 64
16, 404640, Note_on_c, 12, 59, 92
16, 404700, Note_off_c, 12, 59, 64
16, 404700, Note_on_c, 12, 60, 92
16, 404760, Note_off_c, 12, 60, 64
16, 404760, Note_on_c, 12, 59, 92
16, 404820, Note_off_c, 12, 59, 64
16, 404820, Note_on_c, 12, 60, 92
16, 404880, Note_off_c, 12, 60, 64
16, 404880, Note_on_c, 12, 59, 92
16, 404940, Note_off_c, 12, 59, 64
16, 404940, Note_on_c, 12, 60, 92
16, 405000, Note_off_c, 12, 60, 64
16, 405000, Note_on_c, 12, 59, 92
16, 405060, Note_off_c, 12, 59, 64
16, 405060, Note_on_c, 12, 60, 92
16, 405120, Note_off_c, 12, 60, 64
16, 405120, Note_on_c, 12, 59, 92
16, 405180, Note_off_c, 12, 59, 64
16, 405180, Note_on_c, 12, 60, 92
16, 405240, Note_off_c, 12, 60, 64
16, 405240, Note_on_c, 12, 59, 92
16, 405300, Note_off_c, 12, 59, 64
16, 405300, Note_on_c, 12, 60, 92
16, 405360, Note_off_c, 12, 60, 64
16, 405360, Note_on_c, 12, 59, 92
16, 405420, Note_off_c, 12, 59, 64
16, 405420, Note_on_c, 12, 60, 92
16, 405480, Note_off_c, 12, 60, 64
16, 405480, Note_on_c, 12, 59, 92
16, 405540, Note_off_c, 12, 59, 64
16, 405540, Note_on_c, 12, 60, 92
16, 405595, Note_off_c, 12, 60, 64
16, 405600, Note_on_c, 12, 67, 92
16, 405660, Note_off_c, 12, 67, 64
16, 405660, Note_on_c, 12, 65, 92
16, 405720, Note_off_c, 12, 65, 64
16, 405720, Note_on_c, 12, 67, 92
16, 405780, Note_off_c, 12, 67, 64
16, 405780, Note_on_c, 12, 63, 92
16, 405840, Note_off_c, 12, 63, 64
16, 405840, Note_on_c, 12, 67, 92
16, 405900, Note_off_c, 12, 67, 64
16, 405900, Note_on_c, 12, 60, 92
16, 405960, Note_off_c, 12, 60, 64
16, 405960, Note_on_c, 12, 63, 92
16, 406075, Note_off_c, 12, 63, 64
16, 406080, Note_on_c, 12, 59, 92
16, 406480, Note_off_c, 12, 59, 64
16, 406800, Note_on_c, 12, 59, 92
16, 407035, Note_off_c, 12, 59, 64
16, 407040, Note_on_c, 12, 60, 92
16, 407275, Note_off_c, 12, 60, 64
16, 407280, Note_on_c, 12, 60, 92
16, 407515, Note_off_c, 12, 60, 64
16, 407520, Note_on_c, 12, 62, 92
16, 407920, Note_off_c, 12, 62, 64
16, 408240, Note_on_c, 12, 62, 92
16, 408475, Note_off_c, 12, 62, 64
16, 408480, Note_on_c, 12, 63, 92
16, 408715, Note_off_c, 12, 63, 64
16, 408720, Note_on_c, 12, 63, 92
16, 408955, Note_off_c, 12, 63, 64
16, 408960, Note_on_c, 12, 62, 92
16, 409360, Note_off_c, 12, 62, 64
16, 409680, Note_on_c, 12, 62, 92
16, 409915, Note_off_c, 12, 62, 64
16, 409920, Note_on_c, 12, 67, 92
16, 410155, Note_off_c, 12, 67, 64
16, 410160, Note_on_c, 12, 63, 92
16, 410395, Note_off_c, 12, 63, 64
16, 410400, Note_on_c, 12, 68, 92
16, 410800, Note_off_c, 12, 68, 64
16, 411120, Note_on_c, 12, 59, 92
16, 411355, Note_off_c, 12, 59, 64
16, 411360, Note_on_c, 12, 60, 92
16, 411955, Note_off_c, 12, 60, 64
16, 411960, Note_on_c, 12, 63, 92
16, 412080, Note_off_c, 12, 63, 64
16, 412080, Note_on_c, 12, 62, 92
16, 412200, Note_off_c, 12, 62, 64
16, 412200, Note_on_c, 12, 65, 92
16, 412315, Note_off_c, 12, 65, 64
16, 412320, Note_on_c, 12, 63, 92
16, 412440, Note_off_c, 12, 63, 64
16, 412440, Note_on_c, 12, 67, 92
16, 412560, Note_off_c, 12, 67, 64
16, 412560, Note_on_c, 12, 65, 92
16, 412680, Note_off_c, 12, 65, 64
16, 412680, Note_on_c, 12, 68, 92
16, 412795, Note_off_c, 12, 68, 64
16, 412800, Note_on_c, 12, 62, 92
16, 412830, Note_off_c, 12, 62, 64
16, 412830, Note_on_c, 12, 63, 92
16, 412860, Note_off_c, 12, 63, 64
16, 412860, Note_on_c, 12, 62, 93
16, 412890, Note_off_c, 12, 62, 64
16, 412890, Note_on_c, 12, 63, 94
16, 412920, Note_off_c, 12, 63, 64
16, 412920, Note_on_c, 12, 62, 95
16, 412950, Note_off_c, 12, 62, 64
16, 412950, Note_on_c, 12, 63, 96
16, 412980, Note_off_c, 12, 63, 64
16, 412980, Note_on_c, 12, 62, 96
16, 413010, Note_off_c, 12, 62, 64
16, 413010, Note_on_c, 12, 63, 97
16, 413040, Note_off_c, 12, 63, 64
16, 413040, Note_on_c, 12, 62, 98
16, 413070, Note_off_c, 12, 62, 64
16, 413070, Note_on_c, 12, 63, 99
16, 413100, Note_off_c, 12, 63, 64
16, 413100, Note_on_c, 12, 62, 100
16, 413130, Note_off_c, 12, 62, 64
16, 413130, Note_on_c, 12, 63, 101
16, 413160, Note_off_c, 12, 63, 64
16, 413160, Note_on_c, 12, 62, 102
16, 413190, Note_off_c, 12, 62, 64
16, 413190, Note_on_c, 12, 63, 103
16, 413220, Note_off_c, 12, 63, 64
16, 413220, Note_on_c, 12, 62, 104
16, 413250, Note_off_c, 12, 62, 64
16, 413250, Note_on_c, 12, 63, 105
16, 413280, Note_off_c, 12, 63, 64
16, 413280, Note_on_c, 12, 60, 106
16, 413680, Note_off_c, 12, 60, 64
16, 413880, Note_on_c, 12, 84, 127
16, 414000, Note_off_c, 12, 84, 64
16, 414000, Note_on_c, 12, 82, 127
16, 414120, Note_off_c, 12, 82, 64
16, 414120, Note_on_c, 12, 84, 127
16, 414240, Note_off_c, 12, 84, 64
16, 414240, Note_on_c, 12, 80, 127
16, 414360, Note_off_c, 12, 80, 64
16, 414360, Note_on_c, 12, 84, 127
16, 414480, Note_off_c, 12, 84, 64
16, 414480, Note_on_c, 12, 77, 127
16, 414600, Note_off_c, 12, 77, 64
16, 414600, Note_on_c, 12, 80, 127
16, 414720, Note_off_c, 12, 80, 64
16, 414720, Note_on_c, 12, 76, 127
16, 415200, Note_off_c, 12, 76, 64
16, 415440, Note_on_c, 12, 76, 127
16, 415680, Note_off_c, 12, 76, 64
16, 415680, Note_on_c, 12, 77, 127
16, 415920, Note_off_c, 12, 77, 64
16, 415920, Note_on_c, 12, 77, 127
16, 416160, Note_off_c, 12, 77, 64
16, 416160, Note_on_c, 12, 79, 127
16, 416640, Note_off_c, 12, 79, 64
16, 416880, Note_on_c, 12, 79, 127
16, 417120, Note_off_c, 12, 79, 64
16, 417120, Note_on_c, 12, 80, 127
16, 417360, Note_off_c, 12, 80, 64
16, 417360, Note_on_c, 12, 80, 127
16, 417600, Note_off_c, 12, 80, 64
16, 417600, Note_on_c, 12, 79, 127
16, 417720, Note_off_c, 12, 79, 64
16, 417720, Note_on_c, 12, 82, 127
16, 417835, Note_off_c, 12, 82, 64
16, 417840, Note_on_c, 12, 80, 127
16, 417955, Note_off_c, 12, 80, 64
16, 417960, Note_on_c, 12, 82, 127
16, 418075, Note_off_c, 12, 82, 64
16, 418080, Note_on_c, 12, 79, 127
16, 418800, Note_off_c, 12, 79, 64
16, 418800, Note_on_c, 12, 77, 127
16, 419155, Note_off_c, 12, 77, 64
16, 419160, Note_on_c, 12, 77, 127
16, 419275, Note_off_c, 12, 77, 64
16, 419280, Note_on_c, 12, 76, 127
16, 419395, Note_off_c, 12, 76, 64
16, 419400, Note_on_c, 12, 77, 127
16, 419515, Note_off_c, 12, 77, 64
16, 419520, Note_on_c, 12, 71, 127
16, 420115, Note_off_c, 12, 71, 64
16, 420120, Note_on_c, 12, 74, 127
16, 420240, Note_off_c, 12, 74, 64
16, 420240, Note_on_c, 12, 71, 127
16, 420360, Note_off_c, 12, 71, 64
16, 420360, Note_on_c, 12, 74, 127
16, 420480, Note_off_c, 12, 74, 64
16, 420480, Note_on_c, 12, 79, 127
16, 420480, Note_on_c, 12, 72, 127
16, 421800, Note_off_c, 12, 72, 64
16, 421800, Note_off_c, 12, 79, 64
16, 421800, End_track
17, 0, Start_track
17, 0, MIDI_port, 0
17, 0, Channel_prefix, 13
17, 0, Control_c, 13, 7, 127
17, 0, Control_c, 13, 10, 64
17, 0, Control_c, 13, 91, 127
17, 0, Program_c, 13, 48
17, 12720, Note_on_c, 13, 63, 30
17, 13195, Note_off_c, 13, 63, 64
17, 13200, Note_on_c, 13, 62, 30
17, 13840, Note_off_c, 13, 62, 64
17, 14160, Note_on_c, 13, 67, 30
17, 14635, Note_off_c, 13, 67, 64
17, 14640, Note_on_c, 13, 65, 30
17, 15280, Note_off_c, 13, 65, 64
17, 15600, Note_on_c, 13, 59, 30
17, 16240, Note_off_c, 13, 59, 64
17, 16320, Note_on_c, 13, 60, 30
17, 16720, Note_off_c, 13, 60, 64
17, 17040, Note_on_c, 13, 63, 30
17, 17515, Note_off_c, 13, 63, 64
17, 17520, Note_on_c, 13, 62, 30
17, 18160, Note_off_c, 13, 62, 64
17, 18480, Note_on_c, 13, 65, 30
17, 18955, Note_off_c, 13, 65, 64
17, 18960, Note_on_c, 13, 63, 30
17, 19600, Note_off_c, 13, 63, 64
17, 19920, Note_on_c, 13, 62, 30
17, 20395, Note_off_c, 13, 62, 64
17, 20400, Note_on_c, 13, 60, 30
17, 21040, Note_off_c, 13, 60, 64
17, 21360, Note_on_c, 13, 60, 30
17, 21595, Note_off_c, 13, 60, 64
17, 21600, Note_on_c, 13, 60, 30
17, 22440, Note_off_c, 13, 60, 64
17, 22440, Note_on_c, 13, 62, 30
17, 22555, Note_off_c, 13, 62, 64
17, 22560, Note_on_c, 13, 59, 30
17, 23040, Note_off_c, 13, 59, 64
17, 23040, Note_on_c, 13, 60, 30
17, 23275, Note_off_c, 13, 60, 64
17, 23280, Note_on_c, 13, 55, 30
17, 23920, Note_off_c, 13, 55, 64
17, 24240, Note_on_c, 13, 63, 30
17, 24715, Note_off_c, 13, 63, 64
17, 24720, Note_on_c, 13, 62, 30
17, 25360, Note_off_c, 13, 62, 64
17, 25680, Note_on_c, 13, 61, 30
17, 26155, Note_off_c, 13, 61, 64
17, 26160, Note_on_c, 13, 60, 30
17, 26800, Note_off_c, 13, 60, 64
17, 27120, Note_on_c, 13, 59, 30
17, 27595, Note_off_c, 13, 59, 64
17, 27600, Note_on_c, 13, 60, 30
17, 28240, Note_off_c, 13, 60, 64
17, 28560, Note_on_c, 13, 60, 30
17, 29160, Note_off_c, 13, 60, 64
17, 29160, Note_on_c, 13, 62, 30
17, 29275, Note_off_c, 13, 62, 64
17, 29280, Note_on_c, 13, 59, 30
17, 29680, Note_off_c, 13, 59, 64
17, 30000, Note_on_c, 13, 56, 30
17, 30475, Note_off_c, 13, 56, 64
17, 30480, Note_on_c, 13, 55, 30
17, 31120, Note_off_c, 13, 55, 64
17, 31440, Note_on_c, 13, 53, 30
17, 32080, Note_off_c, 13, 53, 64
17, 32160, Note_on_c, 13, 51, 30
17, 32560, Note_off_c, 13, 51, 64
17, 32880, Note_on_c, 13, 51, 31
17, 33355, Note_off_c, 13, 51, 64
17, 33360, Note_on_c, 13, 50, 33
17, 33840, Note_off_c, 13, 50, 64
17, 33840, Note_on_c, 13, 53, 35
17, 34075, Note_off_c, 13, 53, 64
17, 34080, Note_on_c, 13, 51, 37
17, 34440, Note_off_c, 13, 51, 64
17, 34440, Note_on_c, 13, 50, 40
17, 34555, Note_off_c, 13, 50, 64
17, 34560, Note_on_c, 13, 48, 41
17, 34960, Note_off_c, 13, 48, 64
17, 35280, Note_on_c, 13, 55, 45
17, 35515, Note_off_c, 13, 55, 64
17, 35520, Note_on_c, 13, 60, 45
17, 35760, Note_off_c, 13, 60, 64
17, 35760, Note_on_c, 13, 62, 45
17, 35995, Note_off_c, 13, 62, 64
17, 36000, Note_on_c, 13, 59, 45
17, 36720, Note_off_c, 13, 59, 64
17, 36720, Note_on_c, 13, 60, 45
17, 36955, Note_off_c, 13, 60, 64
17, 36960, Note_on_c, 13, 61, 45
17, 37200, Note_off_c, 13, 61, 64
17, 37200, Note_on_c, 13, 63, 45
17, 37440, Note_off_c, 13, 63, 64
17, 37440, Note_on_c, 13, 60, 45
17, 37675, Note_off_c, 13, 60, 64
17, 37680, Note_on_c, 13, 65, 45
17, 37920, Note_off_c, 13, 65, 64
17, 37920, Note_on_c, 13, 62, 45
17, 38160, Note_off_c, 13, 62, 64
17, 38160, Note_on_c, 13, 60, 45
17, 38395, Note_off_c, 13, 60, 64
17, 38400, Note_on_c, 13, 59, 45
17, 38880, Note_off_c, 13, 59, 64
17, 38880, Note_on_c, 13, 60, 45
17, 39120, Note_off_c, 13, 60, 64
17, 39120, Note_on_c, 13, 58, 45
17, 39355, Note_off_c, 13, 58, 64
17, 39360, Note_on_c, 13, 56, 45
17, 39600, Note_off_c, 13, 56, 64
17, 39600, Note_on_c, 13, 60, 45
17, 39835, Note_off_c, 13, 60, 64
17, 39840, Note_on_c, 13, 65, 45
17, 40080, Note_off_c, 13, 65, 64
17, 40080, Note_on_c, 13, 63, 45
17, 40315, Note_off_c, 13, 63, 64
17, 40320, Note_on_c, 13, 62, 45
17, 41040, Note_off_c, 13, 62, 64
17, 41040, Note_on_c, 13, 63, 45
17, 41275, Note_off_c, 13, 63, 64
17, 41280, Note_on_c, 13, 65, 45
17, 41680, Note_off_c, 13, 65, 64
17, 41760, Note_on_c, 13, 63, 45
17, 42000, Note_off_c, 13, 63, 64
17, 42000, Note_on_c, 13, 65, 45
17, 42240, Note_off_c, 13, 65, 64
17, 42240, Note_on_c, 13, 67, 45
17, 42640, Note_off_c, 13, 67, 64
17, 42720, Note_on_c, 13, 62, 45
17, 43120, Note_off_c, 13, 62, 64
17, 43440, Note_on_c, 13, 56, 45
17, 43680, Note_off_c, 13, 56, 64
17, 43680, Note_on_c, 13, 55, 45
17, 43920, Note_off_c, 13, 55, 64
17, 43920, Note_on_c, 13, 53, 45
17, 44155, Note_off_c, 13, 53, 64
17, 44160, Note_on_c, 13, 51, 45
17, 44400, Note_off_c, 13, 51, 64
17, 44400, Note_on_c, 13, 50, 45
17, 44640, Note_off_c, 13, 50, 64
17, 44640, Note_on_c, 13, 51, 45
17, 44880, Note_off_c, 13, 51, 64
17, 44880, Note_on_c, 13, 53, 45
17, 45115, Note_off_c, 13, 53, 64
17, 45120, Note_on_c, 13, 55, 45
17, 45360, Note_off_c, 13, 55, 64
17, 45360, Note_on_c, 13, 56, 45
17, 45595, Note_off_c, 13, 56, 64
17, 45600, Note_on_c, 13, 55, 45
17, 46080, Note_off_c, 13, 55, 64
17, 46080, Note_on_c, 13, 55, 45
17, 46315, Note_off_c, 13, 55, 64
17, 46320, Note_on_c, 13, 48, 45
17, 46440, Note_off_c, 13, 48, 64
17, 46440, Note_on_c, 13, 50, 45
17, 46560, Note_off_c, 13, 50, 64
17, 46560, Note_on_c, 13, 51, 45
17, 46795, Note_off_c, 13, 51, 64
17, 46800, Note_on_c, 13, 51, 45
17, 46920, Note_off_c, 13, 51, 64
17, 46920, Note_on_c, 13, 53, 45
17, 47040, Note_off_c, 13, 53, 64
17, 47040, Note_on_c, 13, 55, 45
17, 47275, Note_off_c, 13, 55, 64
17, 47280, Note_on_c, 13, 60, 45
17, 47520, Note_off_c, 13, 60, 64
17, 47520, Note_on_c, 13, 62, 45
17, 47755, Note_off_c, 13, 62, 64
17, 47760, Note_on_c, 13, 55, 45
17, 47880, Note_off_c, 13, 55, 64
17, 47880, Note_on_c, 13, 57, 45
17, 48000, Note_off_c, 13, 57, 64
17, 48000, Note_on_c, 13, 59, 45
17, 48235, Note_off_c, 13, 59, 64
17, 48240, Note_on_c, 13, 57, 45
17, 48360, Note_off_c, 13, 57, 64
17, 48360, Note_on_c, 13, 59, 45
17, 48480, Note_off_c, 13, 59, 64
17, 48480, Note_on_c, 13, 60, 45
17, 49195, Note_off_c, 13, 60, 64
17, 49200, Note_on_c, 13, 62, 45
17, 49320, Note_off_c, 13, 62, 64
17, 49320, Note_on_c, 13, 63, 45
17, 49440, Note_off_c, 13, 63, 64
17, 49440, Note_on_c, 13, 65, 45
17, 49675, Note_off_c, 13, 65, 64
17, 49680, Note_on_c, 13, 65, 45
17, 49800, Note_off_c, 13, 65, 64
17, 49800, Note_on_c, 13, 63, 45
17, 49915, Note_off_c, 13, 63, 64
17, 49920, Note_on_c, 13, 62, 45
17, 50320, Note_off_c, 13, 62, 64
17, 50400, Note_on_c, 13, 60, 45
17, 50800, Note_off_c, 13, 60, 64
17, 51600, Note_on_c, 13, 65, 45
17, 51720, Note_off_c, 13, 65, 64
17, 51720, Note_on_c, 13, 63, 45
17, 51840, Note_off_c, 13, 63, 64
17, 51840, Note_on_c, 13, 62, 45
17, 52075, Note_off_c, 13, 62, 64
17, 52080, Note_on_c, 13, 59, 45
17, 52200, Note_off_c, 13, 59, 64
17, 52200, Note_on_c, 13, 60, 45
17, 52320, Note_off_c, 13, 60, 64
17, 52320, Note_on_c, 13, 62, 45
17, 52555, Note_off_c, 13, 62, 64
17, 52560, Note_on_c, 13, 62, 45
17, 52680, Note_off_c, 13, 62, 64
17, 52680, Note_on_c, 13, 63, 45
17, 52795, Note_off_c, 13, 63, 64
17, 52800, Note_on_c, 13, 65, 45
17, 53200, Note_off_c, 13, 65, 64
17, 53280, Note_on_c, 13, 67, 45
17, 53680, Note_off_c, 13, 67, 64
17, 54000, Note_on_c, 13, 67, 45
17, 54120, Note_off_c, 13, 67, 64
17, 54120, Note_on_c, 13, 65, 45
17, 54240, Note_off_c, 13, 65, 64
17, 54240, Note_on_c, 13, 67, 45
17, 54475, Note_off_c, 13, 67, 64
17, 54480, Note_on_c, 13, 55, 45
17, 54720, Note_off_c, 13, 55, 64
17, 54720, Note_on_c, 13, 60, 45
17, 54955, Note_off_c, 13, 60, 64
17, 54960, Note_on_c, 13, 63, 45
17, 55080, Note_off_c, 13, 63, 64
17, 55080, Note_on_c, 13, 62, 45
17, 55200, Note_off_c, 13, 62, 64
17, 55200, Note_on_c, 13, 63, 45
17, 55435, Note_off_c, 13, 63, 64
17, 55440, Note_on_c, 13, 60, 45
17, 55560, Note_off_c, 13, 60, 64
17, 55560, Note_on_c, 13, 59, 45
17, 55680, Note_off_c, 13, 59, 64
17, 55680, Note_on_c, 13, 60, 45
17, 55915, Note_off_c, 13, 60, 64
17, 55920, Note_on_c, 13, 51, 45
17, 56040, Note_off_c, 13, 51, 64
17, 56040, Note_on_c, 13, 50, 45
17, 56160, Note_off_c, 13, 50, 64
17, 56160, Note_on_c, 13, 51, 45
17, 56560, Note_off_c, 13, 51, 64
17, 56880, Note_on_c, 13, 55, 47
17, 57000, Note_off_c, 13, 55, 64
17, 57000, Note_on_c, 13, 53, 48
17, 57120, Note_off_c, 13, 53, 64
17, 57120, Note_on_c, 13, 55, 49
17, 57355, Note_off_c, 13, 55, 64
17, 57360, Note_on_c, 13, 50, 51
17, 57600, Note_off_c, 13, 50, 64
17, 57600, Note_on_c, 13, 51, 54
17, 58000, Note_off_c, 13, 51, 64
17, 58320, Note_on_c, 13, 67, 60
17, 58440, Note_off_c, 13, 67, 64
17, 58440, Note_on_c, 13, 55, 60
17, 58555, Note_off_c, 13, 55, 64
17, 58560, Note_on_c, 13, 60, 60
17, 58960, Note_off_c, 13, 60, 64
17, 59040, Note_on_c, 13, 59, 60
17, 59440, Note_off_c, 13, 59, 64
17, 59760, Note_on_c, 13, 59, 60
17, 59880, Note_off_c, 13, 59, 64
17, 59880, Note_on_c, 13, 55, 60
17, 59995, Note_off_c, 13, 55, 64
17, 60000, Note_on_c, 13, 60, 60
17, 60880, Note_off_c, 13, 60, 64
17, 61200, Note_on_c, 13, 62, 60
17, 61320, Note_off_c, 13, 62, 64
17, 61320, Note_on_c, 13, 57, 60
17, 61435, Note_off_c, 13, 57, 64
17, 61440, Note_on_c, 13, 59, 60
17, 61840, Note_off_c, 13, 59, 64
17, 61920, Note_on_c, 13, 60, 60
17, 62320, Note_off_c, 13, 60, 64
17, 62640, Note_on_c, 13, 72, 60
17, 62760, Note_off_c, 13, 72, 64
17, 62760, Note_on_c, 13, 60, 60
17, 62875, Note_off_c, 13, 60, 64
17, 62880, Note_on_c, 13, 65, 60
17, 63280, Note_off_c, 13, 65, 64
17, 63360, Note_on_c, 13, 62, 60
17, 63760, Note_off_c, 13, 62, 64
17, 64080, Note_on_c, 13, 62, 60
17, 64200, Note_off_c, 13, 62, 64
17, 64200, Note_on_c, 13, 50, 60
17, 64315, Note_off_c, 13, 50, 64
17, 64320, Note_on_c, 13, 55, 60
17, 64560, Note_off_c, 13, 55, 64
17, 64560, Note_on_c, 13, 62, 60
17, 64795, Note_off_c, 13, 62, 64
17, 64800, Note_on_c, 13, 60, 60
17, 65200, Note_off_c, 13, 60, 64
17, 65520, Note_on_c, 13, 67, 60
17, 65640, Note_off_c, 13, 67, 64
17, 65640, Note_on_c, 13, 55, 60
17, 65755, Note_off_c, 13, 55, 64
17, 65760, Note_on_c, 13, 60, 60
17, 65995, Note_off_c, 13, 60, 64
17, 66000, Note_on_c, 13, 59, 60
17, 66120, Note_off_c, 13, 59, 64
17, 66120, Note_on_c, 13, 62, 60
17, 66235, Note_off_c, 13, 62, 64
17, 66240, Note_on_c, 13, 60, 60
17, 66640, Note_off_c, 13, 60, 64
17, 66960, Note_on_c, 13, 72, 60
17, 67080, Note_off_c, 13, 72, 64
17, 67080, Note_on_c, 13, 60, 60
17, 67195, Note_off_c, 13, 60, 64
17, 67200, Note_on_c, 13, 65, 60
17, 67560, Note_off_c, 13, 65, 64
17, 67560, Note_on_c, 13, 63, 60
17, 67675, Note_off_c, 13, 63, 64
17, 67680, Note_on_c, 13, 62, 60
17, 68080, Note_off_c, 13, 62, 64
17, 68880, Note_on_c, 13, 67, 60
17, 69000, Note_off_c, 13, 67, 64
17, 69000, Note_on_c, 13, 62, 60
17, 69120, Note_off_c, 13, 62, 64
17, 69120, Note_on_c, 13, 63, 60
17, 69235, Note_off_c, 13, 63, 64
17, 69240, Note_on_c, 13, 55, 60
17, 69360, Note_off_c, 13, 55, 64
17, 69360, Note_on_c, 13, 57, 60
17, 69480, Note_off_c, 13, 57, 64
17, 69480, Note_on_c, 13, 59, 60
17, 69595, Note_off_c, 13, 59, 64
17, 69600, Note_on_c, 13, 60, 60
17, 69960, Note_off_c, 13, 60, 64
17, 69960, Note_on_c, 13, 62, 60
17, 70075, Note_off_c, 13, 62, 64
17, 70080, Note_on_c, 13, 63, 60
17, 70480, Note_off_c, 13, 63, 64
17, 70680, Note_on_c, 13, 62, 60
17, 70800, Note_off_c, 13, 62, 64
17, 70800, Note_on_c, 13, 63, 60
17, 70920, Note_off_c, 13, 63, 64
17, 70920, Note_on_c, 13, 65, 60
17, 71035, Note_off_c, 13, 65, 64
17, 71040, Note_on_c, 13, 67, 60
17, 71920, Note_off_c, 13, 67, 64
17, 72120, Note_on_c, 13, 60, 60
17, 72240, Note_off_c, 13, 60, 64
17, 72240, Note_on_c, 13, 62, 60
17, 72360, Note_off_c, 13, 62, 64
17, 72360, Note_on_c, 13, 63, 60
17, 72475, Note_off_c, 13, 63, 64
17, 72480, Note_on_c, 13, 65, 60
17, 72840, Note_off_c, 13, 65, 64
17, 72840, Note_on_c, 13, 63, 60
17, 72955, Note_off_c, 13, 63, 64
17, 72960, Note_on_c, 13, 62, 60
17, 73200, Note_off_c, 13, 62, 64
17, 73200, Note_on_c, 13, 65, 60
17, 73440, Note_off_c, 13, 65, 64
17, 73440, Note_on_c, 13, 63, 60
17, 73555, Note_off_c, 13, 63, 64
17, 73560, Note_on_c, 13, 60, 60
17, 73680, Note_off_c, 13, 60, 64
17, 73680, Note_on_c, 13, 62, 60
17, 73800, Note_off_c, 13, 62, 64
17, 73800, Note_on_c, 13, 63, 60
17, 73915, Note_off_c, 13, 63, 64
17, 73920, Note_on_c, 13, 65, 60
17, 74280, Note_off_c, 13, 65, 64
17, 74280, Note_on_c, 13, 67, 60
17, 74395, Note_off_c, 13, 67, 64
17, 74400, Note_on_c, 13, 68, 60
17, 74640, Note_off_c, 13, 68, 64
17, 74640, Note_on_c, 13, 65, 60
17, 74880, Note_off_c, 13, 65, 64
17, 74880, Note_on_c, 13, 62, 60
17, 74995, Note_off_c, 13, 62, 64
17, 75000, Note_on_c, 13, 50, 60
17, 75120, Note_off_c, 13, 50, 64
17, 75120, Note_on_c, 13, 51, 60
17, 75240, Note_off_c, 13, 51, 64
17, 75240, Note_on_c, 13, 53, 60
17, 75355, Note_off_c, 13, 53, 64
17, 75360, Note_on_c, 13, 55, 60
17, 75720, Note_off_c, 13, 55, 64
17, 75720, Note_on_c, 13, 57, 60
17, 75835, Note_off_c, 13, 57, 64
17, 75840, Note_on_c, 13, 59, 60
17, 76240, Note_off_c, 13, 59, 64
17, 76440, Note_on_c, 13, 55, 60
17, 76560, Note_off_c, 13, 55, 64
17, 76560, Note_on_c, 13, 57, 60
17, 76680, Note_off_c, 13, 57, 64
17, 76680, Note_on_c, 13, 58, 60
17, 76795, Note_off_c, 13, 58, 64
17, 76800, Note_on_c, 13, 60, 60
17, 77200, Note_off_c, 13, 60, 64
17, 77280, Note_on_c, 13, 62, 60
17, 77680, Note_off_c, 13, 62, 64
17, 77880, Note_on_c, 13, 55, 60
17, 78000, Note_off_c, 13, 55, 64
17, 78000, Note_on_c, 13, 57, 60
17, 78120, Note_off_c, 13, 57, 64
17, 78120, Note_on_c, 13, 59, 60
17, 78235, Note_off_c, 13, 59, 64
17, 78240, Note_on_c, 13, 60, 60
17, 79795, Note_off_c, 13, 60, 64
17, 79800, Note_on_c, 13, 60, 60
17, 79920, Note_off_c, 13, 60, 64
17, 79920, Note_on_c, 13, 59, 60
17, 80040, Note_off_c, 13, 59, 64
17, 80040, Note_on_c, 13, 57, 60
17, 80155, Note_off_c, 13, 57, 64
17, 80160, Note_on_c, 13, 59, 60
17, 80560, Note_off_c, 13, 59, 64
17, 80640, Note_on_c, 13, 60, 60
17, 81040, Note_off_c, 13, 60, 64
17, 81720, Note_on_c, 13, 55, 60
17, 81840, Note_off_c, 13, 55, 64
17, 81840, Note_on_c, 13, 53, 60
17, 81960, Note_off_c, 13, 53, 64
17, 81960, Note_on_c, 13, 51, 60
17, 82075, Note_off_c, 13, 51, 64
17, 82080, Note_on_c, 13, 50, 60
17, 82480, Note_off_c, 13, 50, 64
17, 83160, Note_on_c, 13, 65, 60
17, 83280, Note_off_c, 13, 65, 64
17, 83280, Note_on_c, 13, 63, 60
17, 83400, Note_off_c, 13, 63, 64
17, 83400, Note_on_c, 13, 62, 60
17, 83515, Note_off_c, 13, 62, 64
17, 83520, Note_on_c, 13, 60, 60
17, 83920, Note_off_c, 13, 60, 64
17, 84120, Note_on_c, 13, 67, 60
17, 84240, Note_off_c, 13, 67, 64
17, 84240, Note_on_c, 13, 65, 60
17, 84360, Note_off_c, 13, 65, 64
17, 84360, Note_on_c, 13, 63, 60
17, 84480, Note_off_c, 13, 63, 64
17, 84480, Note_on_c, 13, 62, 60
17, 84595, Note_off_c, 13, 62, 64
17, 84600, Note_on_c, 13, 65, 60
17, 84720, Note_off_c, 13, 65, 64
17, 84720, Note_on_c, 13, 63, 60
17, 84840, Note_off_c, 13, 63, 64
17, 84840, Note_on_c, 13, 62, 60
17, 84955, Note_off_c, 13, 62, 64
17, 84960, Note_on_c, 13, 60, 60
17, 85360, Note_off_c, 13, 60, 64
17, 85560, Note_on_c, 13, 67, 60
17, 85680, Note_off_c, 13, 67, 64
17, 85680, Note_on_c, 13, 65, 60
17, 85800, Note_off_c, 13, 65, 64
17, 85800, Note_on_c, 13, 63, 60
17, 85920, Note_off_c, 13, 63, 64
17, 85920, Note_on_c, 13, 62, 60
17, 86035, Note_off_c, 13, 62, 64
17, 86040, Note_on_c, 13, 63, 60
17, 86160, Note_off_c, 13, 63, 64
17, 86160, Note_on_c, 13, 62, 60
17, 86280, Note_off_c, 13, 62, 64
17, 86280, Note_on_c, 13, 60, 60
17, 86395, Note_off_c, 13, 60, 64
17, 86400, Note_on_c, 13, 59, 60
17, 86800, Note_off_c, 13, 59, 64
17, 87480, Note_on_c, 13, 68, 60
17, 87600, Note_off_c, 13, 68, 64
17, 87600, Note_on_c, 13, 67, 60
17, 87720, Note_off_c, 13, 67, 64
17, 87720, Note_on_c, 13, 65, 60
17, 87835, Note_off_c, 13, 65, 64
17, 87840, Note_on_c, 13, 67, 60
17, 88240, Note_off_c, 13, 67, 64
17, 88800, Note_on_c, 13, 62, 60
17, 88920, Note_off_c, 13, 62, 64
17, 88920, Note_on_c, 13, 60, 60
17, 89040, Note_off_c, 13, 60, 64
17, 89040, Note_on_c, 13, 59, 60
17, 89160, Note_off_c, 13, 59, 64
17, 89160, Note_on_c, 13, 56, 60
17, 89275, Note_off_c, 13, 56, 64
17, 89280, Note_on_c, 13, 55, 60
17, 89680, Note_off_c, 13, 55, 64
17, 90360, Note_on_c, 13, 63, 60
17, 90480, Note_off_c, 13, 63, 64
17, 90480, Note_on_c, 13, 62, 60
17, 90600, Note_off_c, 13, 62, 64
17, 90600, Note_on_c, 13, 60, 60
17, 90715, Note_off_c, 13, 60, 64
17, 90720, Note_on_c, 13, 59, 60
17, 91120, Note_off_c, 13, 59, 64
17, 91800, Note_on_c, 13, 56, 60
17, 91920, Note_off_c, 13, 56, 64
17, 91920, Note_on_c, 13, 55, 60
17, 92040, Note_off_c, 13, 55, 64
17, 92040, Note_on_c, 13, 53, 60
17, 92155, Note_off_c, 13, 53, 64
17, 92160, Note_on_c, 13, 51, 60
17, 92280, Note_off_c, 13, 51, 64
17, 92280, Note_on_c, 13, 48, 60
17, 92395, Note_off_c, 13, 48, 64
17, 92400, Note_on_c, 13, 58, 60
17, 92520, Note_off_c, 13, 58, 64
17, 92520, Note_on_c, 13, 56, 60
17, 92635, Note_off_c, 13, 56, 64
17, 92640, Note_on_c, 13, 55, 60
17, 92760, Note_off_c, 13, 55, 64
17, 92760, Note_on_c, 13, 53, 60
17, 92880, Note_off_c, 13, 53, 64
17, 92880, Note_on_c, 13, 51, 60
17, 93000, Note_off_c, 13, 51, 64
17, 93000, Note_on_c, 13, 50, 60
17, 93120, Note_off_c, 13, 50, 64
17, 93120, Note_on_c, 13, 48, 60
17, 93235, Note_off_c, 13, 48, 64
17, 93240, Note_on_c, 13, 63, 60
17, 93360, Note_off_c, 13, 63, 64
17, 93360, Note_on_c, 13, 62, 60
17, 93480, Note_off_c, 13, 62, 64
17, 93480, Note_on_c, 13, 60, 60
17, 93595, Note_off_c, 13, 60, 64
17, 93600, Note_on_c, 13, 59, 60
17, 94195, Note_off_c, 13, 59, 64
17, 94200, Note_on_c, 13, 60, 60
17, 94320, Note_off_c, 13, 60, 64
17, 94320, Note_on_c, 13, 59, 60
17, 94440, Note_off_c, 13, 59, 64
17, 94440, Note_on_c, 13, 57, 60
17, 94560, Note_off_c, 13, 57, 64
17, 94560, Note_on_c, 13, 55, 60
17, 94675, Note_off_c, 13, 55, 64
17, 94680, Note_on_c, 13, 51, 60
17, 94800, Note_off_c, 13, 51, 64
17, 94800, Note_on_c, 13, 53, 60
17, 94920, Note_off_c, 13, 53, 64
17, 94920, Note_on_c, 13, 55, 60
17, 95035, Note_off_c, 13, 55, 64
17, 95040, Note_on_c, 13, 56, 60
17, 95400, Note_off_c, 13, 56, 64
17, 95400, Note_on_c, 13, 58, 60
17, 95515, Note_off_c, 13, 58, 64
17, 95520, Note_on_c, 13, 60, 60
17, 95920, Note_off_c, 13, 60, 64
17, 96120, Note_on_c, 13, 55, 60
17, 96240, Note_off_c, 13, 55, 64
17, 96240, Note_on_c, 13, 57, 60
17, 96360, Note_off_c, 13, 57, 64
17, 96360, Note_on_c, 13, 59, 60
17, 96475, Note_off_c, 13, 59, 64
17, 96480, Note_on_c, 13, 60, 60
17, 96600, Note_off_c, 13, 60, 64
17, 96600, Note_on_c, 13, 62, 60
17, 96720, Note_off_c, 13, 62, 64
17, 96720, Note_on_c, 13, 60, 60
17, 96840, Note_off_c, 13, 60, 64
17, 96840, Note_on_c, 13, 58, 60
17, 96955, Note_off_c, 13, 58, 64
17, 96960, Note_on_c, 13, 56, 60
17, 97080, Note_off_c, 13, 56, 64
17, 97080, Note_on_c, 13, 60, 60
17, 97200, Note_off_c, 13, 60, 64
17, 97200, Note_on_c, 13, 62, 60
17, 97320, Note_off_c, 13, 62, 64
17, 97320, Note_on_c, 13, 63, 60
17, 97435, Note_off_c, 13, 63, 64
17, 97440, Note_on_c, 13, 65, 60
17, 97560, Note_off_c, 13, 65, 64
17, 97560, Note_on_c, 13, 67, 60
17, 97680, Note_off_c, 13, 67, 64
17, 97680, Note_on_c, 13, 65, 60
17, 97800, Note_off_c, 13, 65, 64
17, 97800, Note_on_c, 13, 63, 60
17, 97915, Note_off_c, 13, 63, 64
17, 97920, Note_on_c, 13, 62, 60
17, 98515, Note_off_c, 13, 62, 64
17, 98520, Note_on_c, 13, 63, 60
17, 98640, Note_off_c, 13, 63, 64
17, 98640, Note_on_c, 13, 62, 60
17, 98760, Note_off_c, 13, 62, 64
17, 98760, Note_on_c, 13, 60, 60
17, 98875, Note_off_c, 13, 60, 64
17, 98880, Note_on_c, 13, 59, 60
17, 99000, Note_off_c, 13, 59, 64
17, 99000, Note_on_c, 13, 60, 60
17, 99120, Note_off_c, 13, 60, 64
17, 99120, Note_on_c, 13, 59, 60
17, 99240, Note_off_c, 13, 59, 64
17, 99240, Note_on_c, 13, 57, 60
17, 99355, Note_off_c, 13, 57, 64
17, 99360, Note_on_c, 13, 55, 60
17, 99760, Note_off_c, 13, 55, 64
17, 99960, Note_on_c, 13, 60, 60
17, 100080, Note_off_c, 13, 60, 64
17, 100080, Note_on_c, 13, 62, 60
17, 100200, Note_off_c, 13, 62, 64
17, 100200, Note_on_c, 13, 63, 60
17, 100315, Note_off_c, 13, 63, 64
17, 100320, Note_on_c, 13, 65, 60
17, 100440, Note_off_c, 13, 65, 64
17, 100440, Note_on_c, 13, 68, 60
17, 100560, Note_off_c, 13, 68, 64
17, 100560, Note_on_c, 13, 67, 60
17, 100680, Note_off_c, 13, 67, 64
17, 100680, Note_on_c, 13, 65, 60
17, 100795, Note_off_c, 13, 65, 64
17, 100800, Note_on_c, 13, 63, 60
17, 101200, Note_off_c, 13, 63, 64
17, 101400, Note_on_c, 13, 51, 60
17, 101520, Note_off_c, 13, 51, 64
17, 101520, Note_on_c, 13, 53, 60
17, 101640, Note_off_c, 13, 53, 64
17, 101640, Note_on_c, 13, 55, 60
17, 101755, Note_off_c, 13, 55, 64
17, 101760, Note_on_c, 13, 56, 60
17, 102240, Note_off_c, 13, 56, 64
17, 102240, Note_on_c, 13, 55, 62
17, 102475, Note_off_c, 13, 55, 64
17, 102480, Note_on_c, 13, 57, 63
17, 102600, Note_off_c, 13, 57, 64
17, 102600, Note_on_c, 13, 59, 63
17, 102720, Note_off_c, 13, 59, 64
17, 102720, Note_on_c, 13, 60, 63
17, 102835, Note_off_c, 13, 60, 64
17, 102840, Note_on_c, 13, 48, 63
17, 102960, Note_off_c, 13, 48, 64
17, 102960, Note_on_c, 13, 50, 63
17, 103080, Note_off_c, 13, 50, 64
17, 103080, Note_on_c, 13, 51, 63
17, 103200, Note_off_c, 13, 51, 64
17, 103200, Note_on_c, 13, 53, 63
17, 103315, Note_off_c, 13, 53, 64
17, 103320, Note_on_c, 13, 56, 64
17, 103440, Note_off_c, 13, 56, 64
17, 103440, Note_on_c, 13, 55, 65
17, 103560, Note_off_c, 13, 55, 64
17, 103560, Note_on_c, 13, 53, 66
17, 103675, Note_off_c, 13, 53, 64
17, 103680, Note_on_c, 13, 51, 67
17, 103920, Note_off_c, 13, 51, 64
17, 103920, Note_on_c, 13, 48, 69
17, 104155, Note_off_c, 13, 48, 64
17, 104280, Note_on_c, 13, 55, 72
17, 104400, Note_off_c, 13, 55, 64
17, 104400, Note_on_c, 13, 59, 73
17, 104520, Note_off_c, 13, 59, 64
17, 104520, Note_on_c, 13, 55, 74
17, 104635, Note_off_c, 13, 55, 64
17, 104640, Note_on_c, 13, 60, 75
17, 104700, Note_off_c, 13, 60, 64
17, 104700, Note_on_c, 13, 62, 75
17, 104760, Note_off_c, 13, 62, 64
17, 104760, Note_on_c, 13, 60, 75
17, 105115, Note_off_c, 13, 60, 64
17, 105120, Note_on_c, 13, 59, 75
17, 105520, Note_off_c, 13, 59, 64
17, 105720, Note_on_c, 13, 55, 75
17, 105840, Note_off_c, 13, 55, 64
17, 105840, Note_on_c, 13, 59, 75
17, 105960, Note_off_c, 13, 59, 64
17, 105960, Note_on_c, 13, 55, 75
17, 106075, Note_off_c, 13, 55, 64
17, 106080, Note_on_c, 13, 60, 75
17, 106480, Note_off_c, 13, 60, 64
17, 106680, Note_on_c, 13, 60, 75
17, 106800, Note_off_c, 13, 60, 64
17, 106800, Note_on_c, 13, 63, 75
17, 106920, Note_off_c, 13, 63, 64
17, 106920, Note_on_c, 13, 60, 75
17, 107035, Note_off_c, 13, 60, 64
17, 107040, Note_on_c, 13, 65, 75
17, 107520, Note_off_c, 13, 65, 64
17, 107520, Note_on_c, 13, 67, 75
17, 107920, Note_off_c, 13, 67, 64
17, 108600, Note_on_c, 13, 60, 75
17, 108720, Note_off_c, 13, 60, 64
17, 108720, Note_on_c, 13, 63, 75
17, 108840, Note_off_c, 13, 63, 64
17, 108840, Note_on_c, 13, 60, 75
17, 108955, Note_off_c, 13, 60, 64
17, 108960, Note_on_c, 13, 65, 75
17, 109440, Note_off_c, 13, 65, 64
17, 109440, Note_on_c, 13, 62, 75
17, 109555, Note_off_c, 13, 62, 64
17, 109560, Note_on_c, 13, 55, 75
17, 109680, Note_off_c, 13, 55, 64
17, 109680, Note_on_c, 13, 59, 75
17, 109800, Note_off_c, 13, 59, 64
17, 109800, Note_on_c, 13, 55, 75
17, 109915, Note_off_c, 13, 55, 64
17, 109920, Note_on_c, 13, 62, 75
17, 110040, Note_off_c, 13, 62, 64
17, 110040, Note_on_c, 13, 59, 75
17, 110160, Note_off_c, 13, 59, 64
17, 110160, Note_on_c, 13, 62, 75
17, 110280, Note_off_c, 13, 62, 64
17, 110280, Note_on_c, 13, 59, 75
17, 110395, Note_off_c, 13, 59, 64
17, 110400, Note_on_c, 13, 65, 75
17, 110880, Note_off_c, 13, 65, 64
17, 110880, Note_on_c, 13, 67, 75
17, 110995, Note_off_c, 13, 67, 64
17, 111000, Note_on_c, 13, 55, 75
17, 111120, Note_off_c, 13, 55, 64
17, 111120, Note_on_c, 13, 59, 75
17, 111240, Note_off_c, 13, 59, 64
17, 111240, Note_on_c, 13, 55, 75
17, 111355, Note_off_c, 13, 55, 64
17, 111360, Note_on_c, 13, 60, 75
17, 111760, Note_off_c, 13, 60, 64
17, 112440, Note_on_c, 13, 55, 75
17, 112560, Note_off_c, 13, 55, 64
17, 112560, Note_on_c, 13, 59, 75
17, 112680, Note_off_c, 13, 59, 64
17, 112680, Note_on_c, 13, 55, 75
17, 112795, Note_off_c, 13, 55, 64
17, 112800, Note_on_c, 13, 60, 75
17, 113200, Note_off_c, 13, 60, 64
17, 113880, Note_on_c, 13, 55, 75
17, 114000, Note_off_c, 13, 55, 64
17, 114000, Note_on_c, 13, 59, 75
17, 114120, Note_off_c, 13, 59, 64
17, 114120, Note_on_c, 13, 55, 75
17, 114235, Note_off_c, 13, 55, 64
17, 114240, Note_on_c, 13, 60, 75
17, 115075, Note_off_c, 13, 60, 64
17, 115080, Note_on_c, 13, 59, 75
17, 115200, Note_off_c, 13, 59, 64
17, 115200, Note_on_c, 13, 60, 76
17, 115600, Note_off_c, 13, 60, 64
17, 116160, Note_on_c, 13, 63, 92
17, 116560, Note_off_c, 13, 63, 64
17, 116640, Note_on_c, 13, 62, 92
17, 117040, Note_off_c, 13, 62, 64
17, 117600, Note_on_c, 13, 60, 92
17, 118000, Note_off_c, 13, 60, 64
17, 118080, Note_on_c, 13, 60, 92
17, 118480, Note_off_c, 13, 60, 64
17, 119040, Note_on_c, 13, 67, 92
17, 119440, Note_off_c, 13, 67, 64
17, 119520, Note_on_c, 13, 60, 92
17, 119920, Note_off_c, 13, 60, 64
17, 120480, Note_on_c, 13, 56, 92
17, 120880, Note_off_c, 13, 56, 64
17, 120960, Note_on_c, 13, 55, 92
17, 121360, Note_off_c, 13, 55, 64
17, 121920, Note_on_c, 13, 53, 92
17, 122320, Note_off_c, 13, 53, 64
17, 122400, Note_on_c, 13, 51, 92
17, 122800, Note_off_c, 13, 51, 64
17, 123360, Note_on_c, 13, 55, 92
17, 123760, Note_off_c, 13, 55, 64
17, 123840, Note_on_c, 13, 60, 92
17, 124240, Note_off_c, 13, 60, 64
17, 124800, Note_on_c, 13, 56, 92
17, 125200, Note_off_c, 13, 56, 64
17, 125280, Note_on_c, 13, 55, 92
17, 125680, Note_off_c, 13, 55, 64
17, 126240, Note_on_c, 13, 59, 92
17, 126640, Note_off_c, 13, 59, 64
17, 126720, Note_on_c, 13, 55, 75
17, 127120, Note_off_c, 13, 55, 64
17, 128640, Note_on_c, 13, 55, 45
17, 128760, Note_off_c, 13, 55, 64
17, 128760, Note_on_c, 13, 53, 45
17, 128880, Note_off_c, 13, 53, 64
17, 128880, Note_on_c, 13, 51, 45
17, 129000, Note_off_c, 13, 51, 64
17, 129000, Note_on_c, 13, 50, 45
17, 129115, Note_off_c, 13, 50, 64
17, 129120, Note_on_c, 13, 60, 45
17, 129240, Note_off_c, 13, 60, 64
17, 129240, Note_on_c, 13, 70, 45
17, 129360, Note_off_c, 13, 70, 64
17, 129360, Note_on_c, 13, 68, 45
17, 129480, Note_off_c, 13, 68, 64
17, 129480, Note_on_c, 13, 67, 45
17, 129595, Note_off_c, 13, 67, 64
17, 129600, Note_on_c, 13, 68, 45
17, 129720, Note_off_c, 13, 68, 64
17, 129720, Note_on_c, 13, 70, 45
17, 129840, Note_off_c, 13, 70, 64
17, 129840, Note_on_c, 13, 68, 45
17, 129960, Note_off_c, 13, 68, 64
17, 129960, Note_on_c, 13, 67, 45
17, 130075, Note_off_c, 13, 67, 64
17, 130080, Note_on_c, 13, 65, 45
17, 130200, Note_off_c, 13, 65, 64
17, 130200, Note_on_c, 13, 63, 45
17, 130320, Note_off_c, 13, 63, 64
17, 130320, Note_on_c, 13, 62, 45
17, 130440, Note_off_c, 13, 62, 64
17, 130440, Note_on_c, 13, 60, 45
17, 130555, Note_off_c, 13, 60, 64
17, 130560, Note_on_c, 13, 59, 45
17, 130680, Note_off_c, 13, 59, 64
17, 130680, Note_on_c, 13, 62, 45
17, 130800, Note_off_c, 13, 62, 64
17, 130800, Note_on_c, 13, 60, 45
17, 130920, Note_off_c, 13, 60, 64
17, 130920, Note_on_c, 13, 59, 45
17, 131035, Note_off_c, 13, 59, 64
17, 131040, Note_on_c, 13, 60, 45
17, 131160, Note_off_c, 13, 60, 64
17, 131160, Note_on_c, 13, 62, 45
17, 131280, Note_off_c, 13, 62, 64
17, 131280, Note_on_c, 13, 60, 45
17, 131400, Note_off_c, 13, 60, 64
17, 131400, Note_on_c, 13, 58, 45
17, 131515, Note_off_c, 13, 58, 64
17, 131520, Note_on_c, 13, 56, 45
17, 131640, Note_off_c, 13, 56, 64
17, 131640, Note_on_c, 13, 55, 45
17, 131760, Note_off_c, 13, 55, 64
17, 131760, Note_on_c, 13, 53, 45
17, 131880, Note_off_c, 13, 53, 64
17, 131880, Note_on_c, 13, 51, 45
17, 131995, Note_off_c, 13, 51, 64
17, 132000, Note_on_c, 13, 62, 45
17, 132120, Note_off_c, 13, 62, 64
17, 132120, Note_on_c, 13, 63, 45
17, 132240, Note_off_c, 13, 63, 64
17, 132240, Note_on_c, 13, 62, 45
17, 132360, Note_off_c, 13, 62, 64
17, 132360, Note_on_c, 13, 60, 45
17, 132475, Note_off_c, 13, 60, 64
17, 132480, Note_on_c, 13, 59, 45
17, 132600, Note_off_c, 13, 59, 64
17, 132600, Note_on_c, 13, 60, 45
17, 132720, Note_off_c, 13, 60, 64
17, 132720, Note_on_c, 13, 59, 45
17, 132840, Note_off_c, 13, 59, 64
17, 132840, Note_on_c, 13, 57, 45
17, 132955, Note_off_c, 13, 57, 64
17, 132960, Note_on_c, 13, 55, 45
17, 133080, Note_off_c, 13, 55, 64
17, 133080, Note_on_c, 13, 57, 45
17, 133200, Note_off_c, 13, 57, 64
17, 133200, Note_on_c, 13, 59, 45
17, 133320, Note_off_c, 13, 59, 64
17, 133320, Note_on_c, 13, 60, 45
17, 133435, Note_off_c, 13, 60, 64
17, 133440, Note_on_c, 13, 59, 45
17, 133560, Note_off_c, 13, 59, 64
17, 133560, Note_on_c, 13, 62, 45
17, 133680, Note_off_c, 13, 62, 64
17, 133680, Note_on_c, 13, 60, 45
17, 133800, Note_off_c, 13, 60, 64
17, 133800, Note_on_c, 13, 59, 45
17, 133915, Note_off_c, 13, 59, 64
17, 133920, Note_on_c, 13, 60, 45
17, 134040, Note_off_c, 13, 60, 64
17, 134040, Note_on_c, 13, 62, 45
17, 134160, Note_off_c, 13, 62, 64
17, 134160, Note_on_c, 13, 63, 45
17, 134280, Note_off_c, 13, 63, 64
17, 134280, Note_on_c, 13, 65, 45
17, 134395, Note_off_c, 13, 65, 64
17, 134400, Note_on_c, 13, 67, 45
17, 134520, Note_off_c, 13, 67, 64
17, 134520, Note_on_c, 13, 69, 45
17, 134640, Note_off_c, 13, 69, 64
17, 134640, Note_on_c, 13, 71, 45
17, 134760, Note_off_c, 13, 71, 64
17, 134760, Note_on_c, 13, 72, 45
17, 134875, Note_off_c, 13, 72, 64
17, 134880, Note_on_c, 13, 62, 45
17, 135000, Note_off_c, 13, 62, 64
17, 135000, Note_on_c, 13, 65, 45
17, 135120, Note_off_c, 13, 65, 64
17, 135120, Note_on_c, 13, 63, 45
17, 135240, Note_off_c, 13, 63, 64
17, 135240, Note_on_c, 13, 62, 45
17, 135355, Note_off_c, 13, 62, 64
17, 135360, Note_on_c, 13, 63, 45
17, 135480, Note_off_c, 13, 63, 64
17, 135480, Note_on_c, 13, 67, 45
17, 135600, Note_off_c, 13, 67, 64
17, 135600, Note_on_c, 13, 72, 45
17, 135720, Note_off_c, 13, 72, 64
17, 135720, Note_on_c, 13, 70, 45
17, 135835, Note_off_c, 13, 70, 64
17, 135840, Note_on_c, 13, 68, 45
17, 135960, Note_off_c, 13, 68, 64
17, 135960, Note_on_c, 13, 67, 45
17, 136080, Note_off_c, 13, 67, 64
17, 136080, Note_on_c, 13, 65, 45
17, 136200, Note_off_c, 13, 65, 64
17, 136200, Note_on_c, 13, 63, 45
17, 136315, Note_off_c, 13, 63, 64
17, 136320, Note_on_c, 13, 62, 45
17, 136440, Note_off_c, 13, 62, 64
17, 136440, Note_on_c, 13, 63, 45
17, 136560, Note_off_c, 13, 63, 64
17, 136560, Note_on_c, 13, 62, 45
17, 136680, Note_off_c, 13, 62, 64
17, 136680, Note_on_c, 13, 60, 45
17, 136795, Note_off_c, 13, 60, 64
17, 136800, Note_on_c, 13, 59, 45
17, 136920, Note_off_c, 13, 59, 64
17, 136920, Note_on_c, 13, 60, 45
17, 137040, Note_off_c, 13, 60, 64
17, 137040, Note_on_c, 13, 62, 45
17, 137160, Note_off_c, 13, 62, 64
17, 137160, Note_on_c, 13, 63, 45
17, 137275, Note_off_c, 13, 63, 64
17, 137280, Note_on_c, 13, 62, 45
17, 137400, Note_off_c, 13, 62, 64
17, 137400, Note_on_c, 13, 60, 45
17, 137520, Note_off_c, 13, 60, 64
17, 137520, Note_on_c, 13, 59, 45
17, 137640, Note_off_c, 13, 59, 64
17, 137640, Note_on_c, 13, 57, 45
17, 137755, Note_off_c, 13, 57, 64
17, 137760, Note_on_c, 13, 55, 45
17, 137880, Note_off_c, 13, 55, 64
17, 137880, Note_on_c, 13, 56, 45
17, 138000, Note_off_c, 13, 56, 64
17, 138000, Note_on_c, 13, 55, 45
17, 138120, Note_off_c, 13, 55, 64
17, 138120, Note_on_c, 13, 53, 45
17, 138235, Note_off_c, 13, 53, 64
17, 138240, Note_on_c, 13, 51, 45
17, 138360, Note_off_c, 13, 51, 64
17, 138360, Note_on_c, 13, 53, 45
17, 138480, Note_off_c, 13, 53, 64
17, 138480, Note_on_c, 13, 55, 45
17, 138600, Note_off_c, 13, 55, 64
17, 138600, Note_on_c, 13, 56, 45
17, 138715, Note_off_c, 13, 56, 64
17, 138720, Note_on_c, 13, 55, 45
17, 138840, Note_off_c, 13, 55, 64
17, 138840, Note_on_c, 13, 53, 45
17, 138960, Note_off_c, 13, 53, 64
17, 138960, Note_on_c, 13, 51, 45
17, 139080, Note_off_c, 13, 51, 64
17, 139080, Note_on_c, 13, 50, 45
17, 139195, Note_off_c, 13, 50, 64
17, 139200, Note_on_c, 13, 48, 45
17, 139320, Note_off_c, 13, 48, 64
17, 139320, Note_on_c, 13, 63, 45
17, 139440, Note_off_c, 13, 63, 64
17, 139440, Note_on_c, 13, 62, 45
17, 139560, Note_off_c, 13, 62, 64
17, 139560, Note_on_c, 13, 60, 45
17, 139675, Note_off_c, 13, 60, 64
17, 139680, Note_on_c, 13, 59, 45
17, 139920, Note_off_c, 13, 59, 64
17, 139920, Note_on_c, 13, 55, 45
17, 140155, Note_off_c, 13, 55, 64
17, 140400, Note_on_c, 13, 55, 45
17, 140635, Note_off_c, 13, 55, 64
17, 140640, Note_on_c, 13, 56, 45
17, 140880, Note_off_c, 13, 56, 64
17, 140880, Note_on_c, 13, 58, 45
17, 141115, Note_off_c, 13, 58, 64
17, 141120, Note_on_c, 13, 60, 45
17, 141960, Note_off_c, 13, 60, 64
17, 142080, Note_on_c, 13, 61, 45
17, 142320, Note_off_c, 13, 61, 64
17, 142320, Note_on_c, 13, 60, 45
17, 142675, Note_off_c, 13, 60, 64
17, 142680, Note_on_c, 13, 62, 45
17, 142800, Note_off_c, 13, 62, 64
17, 142800, Note_on_c, 13, 58, 45
17, 142920, Note_off_c, 13, 58, 64
17, 142920, Note_on_c, 13, 60, 45
17, 143035, Note_off_c, 13, 60, 64
17, 143040, Note_on_c, 13, 56, 45
17, 143280, Note_off_c, 13, 56, 64
17, 143280, Note_on_c, 13, 60, 45
17, 143515, Note_off_c, 13, 60, 64
17, 143520, Note_on_c, 13, 65, 45
17, 143640, Note_off_c, 13, 65, 64
17, 143640, Note_on_c, 13, 67, 45
17, 143760, Note_off_c, 13, 67, 64
17, 143760, Note_on_c, 13, 63, 45
17, 143880, Note_off_c, 13, 63, 64
17, 143880, Note_on_c, 13, 65, 45
17, 143995, Note_off_c, 13, 65, 64
17, 144000, Note_on_c, 13, 62, 45
17, 144595, Note_off_c, 13, 62, 64
17, 144600, Note_on_c, 13, 63, 45
17, 144720, Note_off_c, 13, 63, 64
17, 144720, Note_on_c, 13, 60, 45
17, 144840, Note_off_c, 13, 60, 64
17, 144840, Note_on_c, 13, 62, 45
17, 144955, Note_off_c, 13, 62, 64
17, 144960, Note_on_c, 13, 59, 45
17, 145080, Note_off_c, 13, 59, 64
17, 145080, Note_on_c, 13, 60, 45
17, 145200, Note_off_c, 13, 60, 64
17, 145200, Note_on_c, 13, 57, 45
17, 145320, Note_off_c, 13, 57, 64
17, 145320, Note_on_c, 13, 59, 45
17, 145435, Note_off_c, 13, 59, 64
17, 145440, Note_on_c, 13, 60, 45
17, 145560, Note_off_c, 13, 60, 64
17, 145560, Note_on_c, 13, 62, 45
17, 145680, Note_off_c, 13, 62, 64
17, 145680, Note_on_c, 13, 58, 45
17, 145800, Note_off_c, 13, 58, 64
17, 145800, Note_on_c, 13, 60, 45
17, 145915, Note_off_c, 13, 60, 64
17, 145920, Note_on_c, 13, 56, 45
17, 146040, Note_off_c, 13, 56, 64
17, 146040, Note_on_c, 13, 58, 45
17, 146160, Note_off_c, 13, 58, 64
17, 146160, Note_on_c, 13, 55, 45
17, 146280, Note_off_c, 13, 55, 64
17, 146280, Note_on_c, 13, 56, 45
17, 146395, Note_off_c, 13, 56, 64
17, 146400, Note_on_c, 13, 53, 45
17, 146520, Note_off_c, 13, 53, 64
17, 146520, Note_on_c, 13, 55, 45
17, 146640, Note_off_c, 13, 55, 64
17, 146640, Note_on_c, 13, 51, 45
17, 146760, Note_off_c, 13, 51, 64
17, 146760, Note_on_c, 13, 50, 45
17, 146875, Note_off_c, 13, 50, 64
17, 146880, Note_on_c, 13, 48, 45
17, 147280, Note_off_c, 13, 48, 64
17, 147600, Note_on_c, 13, 51, 45
17, 147835, Note_off_c, 13, 51, 64
17, 147840, Note_on_c, 13, 53, 45
17, 147960, Note_off_c, 13, 53, 64
17, 147960, Note_on_c, 13, 55, 45
17, 148080, Note_off_c, 13, 55, 64
17, 148080, Note_on_c, 13, 51, 45
17, 148200, Note_off_c, 13, 51, 64
17, 148200, Note_on_c, 13, 53, 45
17, 148315, Note_off_c, 13, 53, 64
17, 148320, Note_on_c, 13, 50, 45
17, 148440, Note_off_c, 13, 50, 64
17, 148440, Note_on_c, 13, 51, 45
17, 148560, Note_off_c, 13, 51, 64
17, 148560, Note_on_c, 13, 48, 45
17, 148680, Note_off_c, 13, 48, 64
17, 148680, Note_on_c, 13, 50, 45
17, 148795, Note_off_c, 13, 50, 64
17, 148800, Note_on_c, 13, 59, 45
17, 149040, Note_off_c, 13, 59, 64
17, 149040, Note_on_c, 13, 62, 45
17, 149275, Note_off_c, 13, 62, 64
17, 149280, Note_on_c, 13, 63, 45
17, 149520, Note_off_c, 13, 63, 64
17, 149520, Note_on_c, 13, 53, 45
17, 149755, Note_off_c, 13, 53, 64
17, 149760, Note_on_c, 13, 55, 45
17, 149880, Note_off_c, 13, 55, 64
17, 149880, Note_on_c, 13, 56, 45
17, 150000, Note_off_c, 13, 56, 64
17, 150000, Note_on_c, 13, 53, 45
17, 150120, Note_off_c, 13, 53, 64
17, 150120, Note_on_c, 13, 55, 45
17, 150235, Note_off_c, 13, 55, 64
17, 150240, Note_on_c, 13, 51, 45
17, 150360, Note_off_c, 13, 51, 64
17, 150360, Note_on_c, 13, 53, 45
17, 150480, Note_off_c, 13, 53, 64
17, 150480, Note_on_c, 13, 50, 45
17, 150600, Note_off_c, 13, 50, 64
17, 150600, Note_on_c, 13, 51, 45
17, 150715, Note_off_c, 13, 51, 64
17, 162240, Note_on_c, 13, 55, 45
17, 162640, Note_off_c, 13, 55, 64
17, 162720, Note_on_c, 13, 55, 45
17, 163560, Note_off_c, 13, 55, 64
17, 163680, Note_on_c, 13, 55, 45
17, 164080, Note_off_c, 13, 55, 64
17, 164160, Note_on_c, 13, 56, 45
17, 165000, Note_off_c, 13, 56, 64
17, 165120, Note_on_c, 13, 55, 45
17, 165520, Note_off_c, 13, 55, 64
17, 165600, Note_on_c, 13, 56, 45
17, 166440, Note_off_c, 13, 56, 64
17, 166560, Note_on_c, 13, 56, 45
17, 166960, Note_off_c, 13, 56, 64
17, 167040, Note_on_c, 13, 55, 45
17, 167880, Note_off_c, 13, 55, 64
17, 168000, Note_on_c, 13, 53, 45
17, 168400, Note_off_c, 13, 53, 64
17, 168480, Note_on_c, 13, 55, 45
17, 169320, Note_off_c, 13, 55, 64
17, 169440, Note_on_c, 13, 55, 45
17, 169840, Note_off_c, 13, 55, 64
17, 169920, Note_on_c, 13, 55, 45
17, 170760, Note_off_c, 13, 55, 64
17, 170880, Note_on_c, 13, 56, 45
17, 171280, Note_off_c, 13, 56, 64
17, 171360, Note_on_c, 13, 60, 45
17, 172320, Note_off_c, 13, 60, 64
17, 172320, Note_on_c, 13, 59, 57
17, 172720, Note_off_c, 13, 59, 64
17, 172800, Note_on_c, 13, 55, 63
17, 173640, Note_off_c, 13, 55, 64
17, 173760, Note_on_c, 13, 55, 75
17, 173840, Note_off_c, 13, 55, 64
17, 173880, Note_on_c, 13, 48, 75
17, 173960, Note_off_c, 13, 48, 64
17, 174000, Note_on_c, 13, 55, 75
17, 174080, Note_off_c, 13, 55, 64
17, 174120, Note_on_c, 13, 60, 75
17, 174200, Note_off_c, 13, 60, 64
17, 174240, Note_on_c, 13, 55, 75
17, 174320, Note_off_c, 13, 55, 64
17, 174360, Note_on_c, 13, 59, 75
17, 174440, Note_off_c, 13, 59, 64
17, 174480, Note_on_c, 13, 62, 75
17, 174560, Note_off_c, 13, 62, 64
17, 174600, Note_on_c, 13, 67, 75
17, 174680, Note_off_c, 13, 67, 64
17, 174720, Note_on_c, 13, 59, 75
17, 174800, Note_off_c, 13, 59, 64
17, 174840, Note_on_c, 13, 62, 75
17, 174920, Note_off_c, 13, 62, 64
17, 174960, Note_on_c, 13, 67, 75
17, 175040, Note_off_c, 13, 67, 64
17, 175080, Note_on_c, 13, 71, 75
17, 175160, Note_off_c, 13, 71, 64
17, 175200, Note_on_c, 13, 55, 75
17, 175280, Note_off_c, 13, 55, 64
17, 175320, Note_on_c, 13, 51, 75
17, 175400, Note_off_c, 13, 51, 64
17, 175440, Note_on_c, 13, 55, 75
17, 175520, Note_off_c, 13, 55, 64
17, 175560, Note_on_c, 13, 60, 75
17, 175640, Note_off_c, 13, 60, 64
17, 175680, Note_on_c, 13, 53, 75
17, 175760, Note_off_c, 13, 53, 64
17, 175800, Note_on_c, 13, 56, 75
17, 175880, Note_off_c, 13, 56, 64
17, 175920, Note_on_c, 13, 60, 75
17, 176000, Note_off_c, 13, 60, 64
17, 176040, Note_on_c, 13, 65, 75
17, 176120, Note_off_c, 13, 65, 64
17, 176160, Note_on_c, 13, 56, 75
17, 176240, Note_off_c, 13, 56, 64
17, 176280, Note_on_c, 13, 60, 75
17, 176360, Note_off_c, 13, 60, 64
17, 176400, Note_on_c, 13, 65, 75
17, 176480, Note_off_c, 13, 65, 64
17, 176520, Note_on_c, 13, 68, 75
17, 176600, Note_off_c, 13, 68, 64
17, 176640, Note_on_c, 13, 55, 75
17, 176720, Note_off_c, 13, 55, 64
17, 176760, Note_on_c, 13, 50, 75
17, 176840, Note_off_c, 13, 50, 64
17, 176880, Note_on_c, 13, 55, 75
17, 176960, Note_off_c, 13, 55, 64
17, 177000, Note_on_c, 13, 59, 75
17, 177080, Note_off_c, 13, 59, 64
17, 177120, Note_on_c, 13, 56, 75
17, 177200, Note_off_c, 13, 56, 64
17, 177240, Note_on_c, 13, 60, 75
17, 177320, Note_off_c, 13, 60, 64
17, 177360, Note_on_c, 13, 63, 75
17, 177440, Note_off_c, 13, 63, 64
17, 177480, Note_on_c, 13, 68, 75
17, 177560, Note_off_c, 13, 68, 64
17, 177600, Note_on_c, 13, 60, 75
17, 177680, Note_off_c, 13, 60, 64
17, 177720, Note_on_c, 13, 63, 75
17, 177800, Note_off_c, 13, 63, 64
17, 177840, Note_on_c, 13, 68, 75
17, 177920, Note_off_c, 13, 68, 64
17, 177960, Note_on_c, 13, 72, 75
17, 178040, Note_off_c, 13, 72, 64
17, 178080, Note_on_c, 13, 53, 75
17, 178160, Note_off_c, 13, 53, 64
17, 178200, Note_on_c, 13, 48, 75
17, 178280, Note_off_c, 13, 48, 64
17, 178320, Note_on_c, 13, 53, 75
17, 178400, Note_off_c, 13, 53, 64
17, 178440, Note_on_c, 13, 56, 75
17, 178520, Note_off_c, 13, 56, 64
17, 178560, Note_on_c, 13, 55, 75
17, 178640, Note_off_c, 13, 55, 64
17, 178680, Note_on_c, 13, 59, 75
17, 178760, Note_off_c, 13, 59, 64
17, 178800, Note_on_c, 13, 62, 75
17, 178880, Note_off_c, 13, 62, 64
17, 178920, Note_on_c, 13, 67, 75
17, 179000, Note_off_c, 13, 67, 64
17, 179040, Note_on_c, 13, 59, 75
17, 179120, Note_off_c, 13, 59, 64
17, 179160, Note_on_c, 13, 62, 75
17, 179240, Note_off_c, 13, 62, 64
17, 179280, Note_on_c, 13, 67, 75
17, 179360, Note_off_c, 13, 67, 64
17, 179400, Note_on_c, 13, 71, 75
17, 179480, Note_off_c, 13, 71, 64
17, 179520, Note_on_c, 13, 53, 75
17, 179600, Note_off_c, 13, 53, 64
17, 179640, Note_on_c, 13, 50, 75
17, 179720, Note_off_c, 13, 50, 64
17, 179760, Note_on_c, 13, 53, 75
17, 179840, Note_off_c, 13, 53, 64
17, 179880, Note_on_c, 13, 59, 75
17, 179960, Note_off_c, 13, 59, 64
17, 180000, Note_on_c, 13, 51, 75
17, 180080, Note_off_c, 13, 51, 64
17, 180120, Note_on_c, 13, 55, 75
17, 180200, Note_off_c, 13, 55, 64
17, 180240, Note_on_c, 13, 60, 75
17, 180320, Note_off_c, 13, 60, 64
17, 180360, Note_on_c, 13, 63, 75
17, 180440, Note_off_c, 13, 63, 64
17, 180480, Note_on_c, 13, 55, 75
17, 180560, Note_off_c, 13, 55, 64
17, 180600, Note_on_c, 13, 60, 75
17, 180680, Note_off_c, 13, 60, 64
17, 180720, Note_on_c, 13, 63, 75
17, 180800, Note_off_c, 13, 63, 64
17, 180840, Note_on_c, 13, 67, 75
17, 180920, Note_off_c, 13, 67, 64
17, 180960, Note_on_c, 13, 55, 75
17, 181040, Note_off_c, 13, 55, 64
17, 181080, Note_on_c, 13, 50, 75
17, 181160, Note_off_c, 13, 50, 64
17, 181200, Note_on_c, 13, 55, 75
17, 181280, Note_off_c, 13, 55, 64
17, 181320, Note_on_c, 13, 59, 75
17, 181400, Note_off_c, 13, 59, 64
17, 181440, Note_on_c, 13, 48, 75
17, 181520, Note_off_c, 13, 48, 64
17, 181560, Note_on_c, 13, 51, 75
17, 181640, Note_off_c, 13, 51, 64
17, 181680, Note_on_c, 13, 55, 75
17, 181760, Note_off_c, 13, 55, 64
17, 181800, Note_on_c, 13, 60, 75
17, 181880, Note_off_c, 13, 60, 64
17, 181920, Note_on_c, 13, 51, 75
17, 182000, Note_off_c, 13, 51, 64
17, 182040, Note_on_c, 13, 55, 75
17, 182120, Note_off_c, 13, 55, 64
17, 182160, Note_on_c, 13, 60, 75
17, 182240, Note_off_c, 13, 60, 64
17, 182280, Note_on_c, 13, 63, 75
17, 182360, Note_off_c, 13, 63, 64
17, 182400, Note_on_c, 13, 53, 75
17, 182480, Note_off_c, 13, 53, 64
17, 182520, Note_on_c, 13, 48, 75
17, 182600, Note_off_c, 13, 48, 64
17, 182640, Note_on_c, 13, 53, 75
17, 182720, Note_off_c, 13, 53, 64
17, 182760, Note_on_c, 13, 56, 75
17, 182840, Note_off_c, 13, 56, 64
17, 182880, Note_on_c, 13, 55, 75
17, 182960, Note_off_c, 13, 55, 64
17, 183000, Note_on_c, 13, 48, 75
17, 183080, Note_off_c, 13, 48, 64
17, 183120, Note_on_c, 13, 50, 75
17, 183200, Note_off_c, 13, 50, 64
17, 183240, Note_on_c, 13, 55, 75
17, 183320, Note_off_c, 13, 55, 64
17, 183360, Note_on_c, 13, 60, 76
17, 183440, Note_off_c, 13, 60, 64
17, 183480, Note_on_c, 13, 62, 77
17, 183560, Note_off_c, 13, 62, 64
17, 183600, Note_on_c, 13, 67, 78
17, 183680, Note_off_c, 13, 67, 64
17, 183720, Note_on_c, 13, 72, 79
17, 183800, Note_off_c, 13, 72, 64
17, 183840, Note_on_c, 13, 55, 80
17, 183920, Note_off_c, 13, 55, 64
17, 183960, Note_on_c, 13, 50, 81
17, 184040, Note_off_c, 13, 50, 64
17, 184080, Note_on_c, 13, 55, 82
17, 184160, Note_off_c, 13, 55, 64
17, 184200, Note_on_c, 13, 59, 83
17, 184280, Note_off_c, 13, 59, 64
17, 184320, Note_on_c, 13, 48, 84
17, 184400, Note_off_c, 13, 48, 64
17, 184440, Note_on_c, 13, 51, 85
17, 184520, Note_off_c, 13, 51, 64
17, 184560, Note_on_c, 13, 55, 86
17, 184640, Note_off_c, 13, 55, 64
17, 184680, Note_on_c, 13, 60, 87
17, 184760, Note_off_c, 13, 60, 64
17, 184800, Note_on_c, 13, 60, 88
17, 184880, Note_off_c, 13, 60, 64
17, 184920, Note_on_c, 13, 63, 89
17, 185000, Note_off_c, 13, 63, 64
17, 185040, Note_on_c, 13, 67, 90
17, 185120, Note_off_c, 13, 67, 64
17, 185160, Note_on_c, 13, 72, 91
17, 185240, Note_off_c, 13, 72, 64
17, 185520, Note_on_c, 13, 55, 127
17, 185755, Note_off_c, 13, 55, 64
17, 186960, Note_on_c, 13, 55, 127
17, 187195, Note_off_c, 13, 55, 64
17, 188400, Note_on_c, 13, 55, 127
17, 188635, Note_off_c, 13, 55, 64
17, 189840, Note_on_c, 13, 62, 127
17, 190075, Note_off_c, 13, 62, 64
17, 191280, Note_on_c, 13, 59, 127
17, 191515, Note_off_c, 13, 59, 64
17, 192720, Note_on_c, 13, 59, 127
17, 192955, Note_off_c, 13, 59, 64
17, 194160, Note_on_c, 13, 62, 127
17, 194395, Note_off_c, 13, 62, 64
17, 195600, Note_on_c, 13, 62, 127
17, 195835, Note_off_c, 13, 62, 64
17, 196800, Note_on_c, 13, 48, 92
17, 197200, Note_off_c, 13, 48, 64
17, 197280, Note_on_c, 13, 55, 92
17, 198120, Note_off_c, 13, 55, 64
17, 198240, Note_on_c, 13, 51, 92
17, 198640, Note_off_c, 13, 51, 64
17, 198720, Note_on_c, 13, 53, 92
17, 199560, Note_off_c, 13, 53, 64
17, 199680, Note_on_c, 13, 55, 92
17, 200080, Note_off_c, 13, 55, 64
17, 200160, Note_on_c, 13, 56, 92
17, 201000, Note_off_c, 13, 56, 64
17, 201120, Note_on_c, 13, 53, 92
17, 201520, Note_off_c, 13, 53, 64
17, 201600, Note_on_c, 13, 55, 92
17, 202440, Note_off_c, 13, 55, 64
17, 202800, Note_on_c, 13, 59, 92
17, 203035, Note_off_c, 13, 59, 64
17, 203040, Note_on_c, 13, 60, 92
17, 203160, Note_off_c, 13, 60, 64
17, 203160, Note_on_c, 13, 62, 92
17, 203220, Note_off_c, 13, 62, 64
17, 203220, Note_on_c, 13, 63, 92
17, 203275, Note_off_c, 13, 63, 64
17, 203280, Note_on_c, 13, 63, 92
17, 203400, Note_off_c, 13, 63, 64
17, 203400, Note_on_c, 13, 65, 92
17, 203460, Note_off_c, 13, 65, 64
17, 203460, Note_on_c, 13, 67, 92
17, 203515, Note_off_c, 13, 67, 64
17, 203520, Note_on_c, 13, 67, 92
17, 203640, Note_off_c, 13, 67, 64
17, 203640, Note_on_c, 13, 69, 92
17, 203700, Note_off_c, 13, 69, 64
17, 203700, Note_on_c, 13, 71, 92
17, 203755, Note_off_c, 13, 71, 64
17, 203760, Note_on_c, 13, 71, 92
17, 203880, Note_off_c, 13, 71, 64
17, 203880, Note_on_c, 13, 72, 92
17, 203940, Note_off_c, 13, 72, 64
17, 203940, Note_on_c, 13, 74, 92
17, 203995, Note_off_c, 13, 74, 64
17, 204000, Note_on_c, 13, 74, 92
17, 204120, Note_off_c, 13, 74, 64
17, 204120, Note_on_c, 13, 75, 92
17, 204180, Note_off_c, 13, 75, 64
17, 204180, Note_on_c, 13, 77, 92
17, 204235, Note_off_c, 13, 77, 64
17, 204240, Note_on_c, 13, 75, 92
17, 204360, Note_off_c, 13, 75, 64
17, 204360, Note_on_c, 13, 77, 92
17, 204420, Note_off_c, 13, 77, 64
17, 204420, Note_on_c, 13, 74, 92
17, 204480, Note_off_c, 13, 74, 64
17, 204480, Note_on_c, 13, 75, 92
17, 204880, Note_off_c, 13, 75, 64
17, 204960, Note_on_c, 13, 72, 92
17, 205080, Note_off_c, 13, 72, 64
17, 205080, Note_on_c, 13, 71, 92
17, 205140, Note_off_c, 13, 71, 64
17, 205140, Note_on_c, 13, 68, 92
17, 205195, Note_off_c, 13, 68, 64
17, 205200, Note_on_c, 13, 68, 92
17, 205320, Note_off_c, 13, 68, 64
17, 205320, Note_on_c, 13, 67, 92
17, 205380, Note_off_c, 13, 67, 64
17, 205380, Note_on_c, 13, 65, 92
17, 205435, Note_off_c, 13, 65, 64
17, 205440, Note_on_c, 13, 65, 92
17, 205560, Note_off_c, 13, 65, 64
17, 205560, Note_on_c, 13, 63, 92
17, 205620, Note_off_c, 13, 63, 64
17, 205620, Note_on_c, 13, 62, 92
17, 205675, Note_off_c, 13, 62, 64
17, 205680, Note_on_c, 13, 62, 92
17, 205800, Note_off_c, 13, 62, 64
17, 205800, Note_on_c, 13, 60, 92
17, 205860, Note_off_c, 13, 60, 64
17, 205860, Note_on_c, 13, 59, 92
17, 205915, Note_off_c, 13, 59, 64
17, 205920, Note_on_c, 13, 59, 92
17, 206040, Note_off_c, 13, 59, 64
17, 206040, Note_on_c, 13, 57, 92
17, 206100, Note_off_c, 13, 57, 64
17, 206100, Note_on_c, 13, 55, 92
17, 206155, Note_off_c, 13, 55, 64
17, 206160, Note_on_c, 13, 55, 92
17, 206280, Note_off_c, 13, 55, 64
17, 206280, Note_on_c, 13, 57, 92
17, 206340, Note_off_c, 13, 57, 64
17, 206340, Note_on_c, 13, 59, 92
17, 206395, Note_off_c, 13, 59, 64
17, 206400, Note_on_c, 13, 59, 92
17, 206520, Note_off_c, 13, 59, 64
17, 206520, Note_on_c, 13, 60, 92
17, 206580, Note_off_c, 13, 60, 64
17, 206580, Note_on_c, 13, 62, 92
17, 206635, Note_off_c, 13, 62, 64
17, 206640, Note_on_c, 13, 62, 92
17, 206760, Note_off_c, 13, 62, 64
17, 206760, Note_on_c, 13, 63, 92
17, 206820, Note_off_c, 13, 63, 64
17, 206820, Note_on_c, 13, 65, 92
17, 206875, Note_off_c, 13, 65, 64
17, 206880, Note_on_c, 13, 65, 92
17, 207000, Note_off_c, 13, 65, 64
17, 207000, Note_on_c, 13, 67, 93
17, 207060, Note_off_c, 13, 67, 64
17, 207060, Note_on_c, 13, 69, 93
17, 207115, Note_off_c, 13, 69, 64
17, 207120, Note_on_c, 13, 67, 93
17, 207235, Note_off_c, 13, 67, 64
17, 207240, Note_on_c, 13, 69, 94
17, 207295, Note_off_c, 13, 69, 64
17, 207300, Note_on_c, 13, 65, 94
17, 207355, Note_off_c, 13, 65, 64
17, 207360, Note_on_c, 13, 63, 94
17, 207480, Note_off_c, 13, 63, 64
17, 207480, Note_on_c, 13, 65, 95
17, 207540, Note_off_c, 13, 65, 64
17, 207540, Note_on_c, 13, 62, 95
17, 207600, Note_off_c, 13, 62, 64
17, 207600, Note_on_c, 13, 60, 96
17, 207835, Note_off_c, 13, 60, 64
17, 207840, Note_on_c, 13, 65, 100
17, 207960, Note_off_c, 13, 65, 64
17, 207960, Note_on_c, 13, 63, 102
17, 208020, Note_off_c, 13, 63, 64
17, 208020, Note_on_c, 13, 62, 103
17, 208075, Note_off_c, 13, 62, 64
17, 208080, Note_on_c, 13, 62, 104
17, 208200, Note_off_c, 13, 62, 64
17, 208200, Note_on_c, 13, 60, 106
17, 208260, Note_off_c, 13, 60, 64
17, 208260, Note_on_c, 13, 59, 107
17, 208315, Note_off_c, 13, 59, 64
17, 208320, Note_on_c, 13, 60, 108
17, 208720, Note_off_c, 13, 60, 64
17, 208800, Note_on_c, 13, 55, 108
17, 209640, Note_off_c, 13, 55, 64
17, 210000, Note_on_c, 13, 51, 108
17, 210235, Note_off_c, 13, 51, 64
17, 210240, Note_on_c, 13, 53, 108
17, 211080, Note_off_c, 13, 53, 64
17, 211200, Note_on_c, 13, 62, 108
17, 211915, Note_off_c, 13, 62, 64
17, 211920, Note_on_c, 13, 60, 108
17, 212560, Note_off_c, 13, 60, 64
17, 212880, Note_on_c, 13, 62, 108
17, 213115, Note_off_c, 13, 62, 64
17, 213120, Note_on_c, 13, 60, 108
17, 213240, Note_off_c, 13, 60, 64
17, 213240, Note_on_c, 13, 59, 108
17, 213360, Note_off_c, 13, 59, 64
17, 213360, Note_on_c, 13, 60, 108
17, 213480, Note_off_c, 13, 60, 64
17, 213480, Note_on_c, 13, 59, 108
17, 213595, Note_off_c, 13, 59, 64
17, 213600, Note_on_c, 13, 60, 108
17, 213840, Note_off_c, 13, 60, 64
17, 213840, Note_on_c, 13, 62, 108
17, 213960, Note_off_c, 13, 62, 64
17, 213960, Note_on_c, 13, 63, 108
17, 214075, Note_off_c, 13, 63, 64
17, 214080, Note_on_c, 13, 59, 108
17, 214795, Note_off_c, 13, 59, 64
17, 214800, Note_on_c, 13, 60, 108
17, 214920, Note_off_c, 13, 60, 64
17, 214920, Note_on_c, 13, 62, 108
17, 215035, Note_off_c, 13, 62, 64
17, 215040, Note_on_c, 13, 63, 108
17, 215440, Note_off_c, 13, 63, 64
17, 215760, Note_on_c, 13, 62, 108
17, 216000, Note_off_c, 13, 62, 64
17, 216000, Note_on_c, 13, 60, 108
17, 216640, Note_off_c, 13, 60, 64
17, 216720, Note_on_c, 13, 62, 108
17, 216840, Note_off_c, 13, 62, 64
17, 216840, Note_on_c, 13, 64, 108
17, 216955, Note_off_c, 13, 64, 64
17, 216960, Note_on_c, 13, 65, 108
17, 217675, Note_off_c, 13, 65, 64
17, 217680, Note_on_c, 13, 63, 108
17, 217800, Note_off_c, 13, 63, 64
17, 217800, Note_on_c, 13, 62, 108
17, 217915, Note_off_c, 13, 62, 64
17, 217920, Note_on_c, 13, 63, 108
17, 218160, Note_off_c, 13, 63, 64
17, 218160, Note_on_c, 13, 62, 108
17, 218280, Note_off_c, 13, 62, 64
17, 218280, Note_on_c, 13, 60, 108
17, 218395, Note_off_c, 13, 60, 64
17, 218400, Note_on_c, 13, 67, 108
17, 218640, Note_off_c, 13, 67, 64
17, 218640, Note_on_c, 13, 65, 108
17, 219115, Note_off_c, 13, 65, 64
17, 219120, Note_on_c, 13, 63, 108
17, 219240, Note_off_c, 13, 63, 64
17, 219240, Note_on_c, 13, 62, 108
17, 219360, Note_off_c, 13, 62, 64
17, 219360, Note_on_c, 13, 63, 108
17, 219595, Note_off_c, 13, 63, 64
17, 219600, Note_on_c, 13, 63, 108
17, 219720, Note_off_c, 13, 63, 64
17, 219720, Note_on_c, 13, 62, 108
17, 219840, Note_off_c, 13, 62, 64
17, 219840, Note_on_c, 13, 60, 108
17, 220075, Note_off_c, 13, 60, 64
17, 220080, Note_on_c, 13, 63, 108
17, 220435, Note_off_c, 13, 63, 64
17, 220440, Note_on_c, 13, 65, 108
17, 220560, Note_off_c, 13, 65, 64
17, 220560, Note_on_c, 13, 63, 108
17, 220680, Note_off_c, 13, 63, 64
17, 220680, Note_on_c, 13, 62, 108
17, 220795, Note_off_c, 13, 62, 64
17, 220800, Note_on_c, 13, 63, 108
17, 221395, Note_off_c, 13, 63, 64
17, 221400, Note_on_c, 13, 65, 108
17, 221520, Note_off_c, 13, 65, 64
17, 221520, Note_on_c, 13, 63, 108
17, 221640, Note_off_c, 13, 63, 64
17, 221640, Note_on_c, 13, 62, 108
17, 221755, Note_off_c, 13, 62, 64
17, 221760, Note_on_c, 13, 63, 108
17, 222355, Note_off_c, 13, 63, 64
17, 222360, Note_on_c, 13, 65, 108
17, 222480, Note_off_c, 13, 65, 64
17, 222480, Note_on_c, 13, 63, 108
17, 222600, Note_off_c, 13, 63, 64
17, 222600, Note_on_c, 13, 62, 108
17, 222715, Note_off_c, 13, 62, 64
17, 222720, Note_on_c, 13, 63, 108
17, 223315, Note_off_c, 13, 63, 64
17, 223320, Note_on_c, 13, 65, 108
17, 223440, Note_off_c, 13, 65, 64
17, 223440, Note_on_c, 13, 63, 108
17, 223560, Note_off_c, 13, 63, 64
17, 223560, Note_on_c, 13, 62, 108
17, 223675, Note_off_c, 13, 62, 64
17, 223680, Note_on_c, 13, 63, 108
17, 224275, Note_off_c, 13, 63, 64
17, 224280, Note_on_c, 13, 65, 108
17, 224400, Note_off_c, 13, 65, 64
17, 224400, Note_on_c, 13, 63, 108
17, 224520, Note_off_c, 13, 63, 64
17, 224520, Note_on_c, 13, 62, 108
17, 224635, Note_off_c, 13, 62, 64
17, 224640, Note_on_c, 13, 63, 108
17, 225235, Note_off_c, 13, 63, 64
17, 225240, Note_on_c, 13, 63, 108
17, 225360, Note_off_c, 13, 63, 64
17, 225360, Note_on_c, 13, 62, 108
17, 225480, Note_off_c, 13, 62, 64
17, 225480, Note_on_c, 13, 60, 108
17, 225595, Note_off_c, 13, 60, 64
17, 225600, Note_on_c, 13, 62, 108
17, 226195, Note_off_c, 13, 62, 64
17, 226200, Note_on_c, 13, 65, 108
17, 226320, Note_off_c, 13, 65, 64
17, 226320, Note_on_c, 13, 63, 108
17, 226440, Note_off_c, 13, 63, 64
17, 226440, Note_on_c, 13, 62, 108
17, 226555, Note_off_c, 13, 62, 64
17, 226560, Note_on_c, 13, 60, 108
17, 226960, Note_off_c, 13, 60, 64
17, 227040, Note_on_c, 13, 62, 108
17, 227920, Note_off_c, 13, 62, 64
17, 228000, Note_on_c, 13, 60, 108
17, 228840, Note_off_c, 13, 60, 64
17, 228960, Note_on_c, 13, 59, 108
17, 229360, Note_off_c, 13, 59, 64
17, 229440, Note_on_c, 13, 60, 108
17, 229920, Note_off_c, 13, 60, 64
17, 229920, Note_on_c, 13, 62, 108
17, 230155, Note_off_c, 13, 62, 64
17, 230160, Note_on_c, 13, 55, 108
17, 230995, Note_off_c, 13, 55, 64
17, 231000, Note_on_c, 13, 56, 108
17, 231120, Note_off_c, 13, 56, 64
17, 231120, Note_on_c, 13, 55, 108
17, 231240, Note_off_c, 13, 55, 64
17, 231240, Note_on_c, 13, 53, 108
17, 231360, Note_off_c, 13, 53, 64
17, 231360, Note_on_c, 13, 51, 108
17, 231595, Note_off_c, 13, 51, 64
17, 231600, Note_on_c, 13, 60, 108
17, 231955, Note_off_c, 13, 60, 64
17, 231960, Note_on_c, 13, 62, 108
17, 232080, Note_off_c, 13, 62, 64
17, 232080, Note_on_c, 13, 60, 108
17, 232200, Note_off_c, 13, 60, 64
17, 232200, Note_on_c, 13, 59, 108
17, 232315, Note_off_c, 13, 59, 64
17, 232320, Note_on_c, 13, 60, 108
17, 232915, Note_off_c, 13, 60, 64
17, 232920, Note_on_c, 13, 62, 108
17, 233040, Note_off_c, 13, 62, 64
17, 233040, Note_on_c, 13, 60, 108
17, 233160, Note_off_c, 13, 60, 64
17, 233160, Note_on_c, 13, 59, 108
17, 233275, Note_off_c, 13, 59, 64
17, 233280, Note_on_c, 13, 60, 108
17, 233875, Note_off_c, 13, 60, 64
17, 233880, Note_on_c, 13, 62, 108
17, 234000, Note_off_c, 13, 62, 64
17, 234000, Note_on_c, 13, 60, 108
17, 234120, Note_off_c, 13, 60, 64
17, 234120, Note_on_c, 13, 59, 108
17, 234235, Note_off_c, 13, 59, 64
17, 234240, Note_on_c, 13, 60, 108
17, 234835, Note_off_c, 13, 60, 64
17, 234840, Note_on_c, 13, 62, 108
17, 234960, Note_off_c, 13, 62, 64
17, 234960, Note_on_c, 13, 60, 108
17, 235080, Note_off_c, 13, 60, 64
17, 235080, Note_on_c, 13, 59, 108
17, 235195, Note_off_c, 13, 59, 64
17, 235200, Note_on_c, 13, 60, 108
17, 235795, Note_off_c, 13, 60, 64
17, 235800, Note_on_c, 13, 62, 108
17, 235920, Note_off_c, 13, 62, 64
17, 235920, Note_on_c, 13, 60, 108
17, 236040, Note_off_c, 13, 60, 64
17, 236040, Note_on_c, 13, 59, 108
17, 236155, Note_off_c, 13, 59, 64
17, 236160, Note_on_c, 13, 60, 108
17, 236755, Note_off_c, 13, 60, 64
17, 236760, Note_on_c, 13, 60, 108
17, 236880, Note_off_c, 13, 60, 64
17, 236880, Note_on_c, 13, 62, 108
17, 237000, Note_off_c, 13, 62, 64
17, 237000, Note_on_c, 13, 63, 108
17, 237115, Note_off_c, 13, 63, 64
17, 237120, Note_on_c, 13, 65, 108
17, 237360, Note_off_c, 13, 65, 64
17, 237360, Note_on_c, 13, 53, 108
17, 237595, Note_off_c, 13, 53, 64
17, 237600, Note_on_c, 13, 60, 108
17, 238195, Note_off_c, 13, 60, 64
17, 238200, Note_on_c, 13, 60, 108
17, 238320, Note_off_c, 13, 60, 64
17, 238320, Note_on_c, 13, 59, 108
17, 238440, Note_off_c, 13, 59, 64
17, 238440, Note_on_c, 13, 57, 108
17, 238555, Note_off_c, 13, 57, 64
17, 238560, Note_on_c, 13, 59, 108
17, 238960, Note_off_c, 13, 59, 64
17, 239040, Note_on_c, 13, 60, 108
17, 239635, Note_off_c, 13, 60, 64
17, 239640, Note_on_c, 13, 58, 108
17, 239760, Note_off_c, 13, 58, 64
17, 239760, Note_on_c, 13, 56, 108
17, 239880, Note_off_c, 13, 56, 64
17, 239880, Note_on_c, 13, 55, 108
17, 239995, Note_off_c, 13, 55, 64
17, 240000, Note_on_c, 13, 53, 108
17, 240400, Note_off_c, 13, 53, 64
17, 240480, Note_on_c, 13, 51, 108
17, 240600, Note_off_c, 13, 51, 64
17, 240600, Note_on_c, 13, 53, 108
17, 240720, Note_off_c, 13, 53, 64
17, 240720, Note_on_c, 13, 51, 108
17, 240840, Note_off_c, 13, 51, 64
17, 240840, Note_on_c, 13, 50, 108
17, 240955, Note_off_c, 13, 50, 64
17, 240960, Note_on_c, 13, 51, 108
17, 241320, Note_off_c, 13, 51, 64
17, 241320, Note_on_c, 13, 53, 108
17, 241435, Note_off_c, 13, 53, 64
17, 241440, Note_on_c, 13, 55, 75
17, 241560, Note_off_c, 13, 55, 64
17, 241560, Note_on_c, 13, 53, 75
17, 241680, Note_off_c, 13, 53, 64
17, 241680, Note_on_c, 13, 55, 75
17, 241800, Note_off_c, 13, 55, 64
17, 241800, Note_on_c, 13, 56, 75
17, 241915, Note_off_c, 13, 56, 64
17, 241920, Note_on_c, 13, 55, 60
17, 242515, Note_off_c, 13, 55, 64
17, 242520, Note_on_c, 13, 53, 60
17, 242640, Note_off_c, 13, 53, 64
17, 242640, Note_on_c, 13, 51, 60
17, 242760, Note_off_c, 13, 51, 64
17, 242760, Note_on_c, 13, 50, 60
17, 242875, Note_off_c, 13, 50, 64
17, 242880, Note_on_c, 13, 48, 60
17, 243280, Note_off_c, 13, 48, 64
17, 243600, Note_on_c, 13, 63, 60
17, 243840, Note_off_c, 13, 63, 64
17, 243840, Note_on_c, 13, 59, 60
17, 244075, Note_off_c, 13, 59, 64
17, 244080, Note_on_c, 13, 59, 60
17, 244320, Note_off_c, 13, 59, 64
17, 244320, Note_on_c, 13, 60, 60
17, 244720, Note_off_c, 13, 60, 64
17, 245040, Note_on_c, 13, 68, 60
17, 245280, Note_off_c, 13, 68, 64
17, 245280, Note_on_c, 13, 62, 60
17, 245515, Note_off_c, 13, 62, 64
17, 245520, Note_on_c, 13, 62, 60
17, 245760, Note_off_c, 13, 62, 64
17, 245760, Note_on_c, 13, 64, 60
17, 246160, Note_off_c, 13, 64, 64
17, 246480, Note_on_c, 13, 65, 60
17, 246720, Note_off_c, 13, 65, 64
17, 246720, Note_on_c, 13, 60, 60
17, 246955, Note_off_c, 13, 60, 64
17, 246960, Note_on_c, 13, 60, 60
17, 247200, Note_off_c, 13, 60, 64
17, 247200, Note_on_c, 13, 62, 60
17, 247600, Note_off_c, 13, 62, 64
17, 247920, Note_on_c, 13, 63, 60
17, 248160, Note_off_c, 13, 63, 64
17, 248160, Note_on_c, 13, 59, 60
17, 248395, Note_off_c, 13, 59, 64
17, 248400, Note_on_c, 13, 59, 60
17, 248640, Note_off_c, 13, 59, 64
17, 248640, Note_on_c, 13, 60, 60
17, 249235, Note_off_c, 13, 60, 64
17, 249240, Note_on_c, 13, 60, 60
17, 249360, Note_off_c, 13, 60, 64
17, 249360, Note_on_c, 13, 58, 60
17, 249480, Note_off_c, 13, 58, 64
17, 249480, Note_on_c, 13, 57, 60
17, 249595, Note_off_c, 13, 57, 64
17, 249600, Note_on_c, 13, 58, 60
17, 250195, Note_off_c, 13, 58, 64
17, 250200, Note_on_c, 13, 58, 60
17, 250320, Note_off_c, 13, 58, 64
17, 250320, Note_on_c, 13, 57, 60
17, 250440, Note_off_c, 13, 57, 64
17, 250440, Note_on_c, 13, 55, 60
17, 250555, Note_off_c, 13, 55, 64
17, 250560, Note_on_c, 13, 54, 60
17, 250680, Note_off_c, 13, 54, 64
17, 250680, Note_on_c, 13, 50, 60
17, 250800, Note_off_c, 13, 50, 64
17, 250800, Note_on_c, 13, 55, 60
17, 250920, Note_off_c, 13, 55, 64
17, 250920, Note_on_c, 13, 48, 60
17, 251040, Note_off_c, 13, 48, 64
17, 251040, Note_on_c, 13, 50, 60
17, 251155, Note_off_c, 13, 50, 64
17, 251160, Note_on_c, 13, 62, 60
17, 251280, Note_off_c, 13, 62, 64
17, 251280, Note_on_c, 13, 60, 60
17, 251400, Note_off_c, 13, 60, 64
17, 251400, Note_on_c, 13, 62, 60
17, 251515, Note_off_c, 13, 62, 64
17, 251520, Note_on_c, 13, 55, 60
17, 251640, Note_off_c, 13, 55, 64
17, 251640, Note_on_c, 13, 67, 60
17, 251760, Note_off_c, 13, 67, 64
17, 251760, Note_on_c, 13, 65, 60
17, 251880, Note_off_c, 13, 65, 64
17, 251880, Note_on_c, 13, 67, 60
17, 251995, Note_off_c, 13, 67, 64
17, 252000, Note_on_c, 13, 63, 60
17, 252120, Note_off_c, 13, 63, 64
17, 252120, Note_on_c, 13, 67, 60
17, 252240, Note_off_c, 13, 67, 64
17, 252240, Note_on_c, 13, 63, 60
17, 252360, Note_off_c, 13, 63, 64
17, 252360, Note_on_c, 13, 67, 60
17, 252475, Note_off_c, 13, 67, 64
17, 252480, Note_on_c, 13, 63, 60
17, 252600, Note_off_c, 13, 63, 64
17, 252600, Note_on_c, 13, 65, 60
17, 252720, Note_off_c, 13, 65, 64
17, 252720, Note_on_c, 13, 63, 60
17, 252840, Note_off_c, 13, 63, 64
17, 252840, Note_on_c, 13, 65, 60
17, 252955, Note_off_c, 13, 65, 64
17, 252960, Note_on_c, 13, 62, 60
17, 253080, Note_off_c, 13, 62, 64
17, 253080, Note_on_c, 13, 65, 60
17, 253200, Note_off_c, 13, 65, 64
17, 253200, Note_on_c, 13, 62, 60
17, 253320, Note_off_c, 13, 62, 64
17, 253320, Note_on_c, 13, 65, 60
17, 253435, Note_off_c, 13, 65, 64
17, 253440, Note_on_c, 13, 60, 60
17, 253560, Note_off_c, 13, 60, 64
17, 253560, Note_on_c, 13, 63, 60
17, 253680, Note_off_c, 13, 63, 64
17, 253680, Note_on_c, 13, 62, 60
17, 253800, Note_off_c, 13, 62, 64
17, 253800, Note_on_c, 13, 65, 60
17, 253915, Note_off_c, 13, 65, 64
17, 253920, Note_on_c, 13, 63, 60
17, 254040, Note_off_c, 13, 63, 64
17, 254040, Note_on_c, 13, 65, 60
17, 254160, Note_off_c, 13, 65, 64
17, 254160, Note_on_c, 13, 63, 60
17, 254280, Note_off_c, 13, 63, 64
17, 254280, Note_on_c, 13, 65, 60
17, 254395, Note_off_c, 13, 65, 64
17, 254400, Note_on_c, 13, 63, 60
17, 254520, Note_off_c, 13, 63, 64
17, 254520, Note_on_c, 13, 65, 60
17, 254640, Note_off_c, 13, 65, 64
17, 254640, Note_on_c, 13, 63, 60
17, 254760, Note_off_c, 13, 63, 64
17, 254760, Note_on_c, 13, 65, 60
17, 254875, Note_off_c, 13, 65, 64
17, 254880, Note_on_c, 13, 62, 60
17, 255000, Note_off_c, 13, 62, 64
17, 255000, Note_on_c, 13, 63, 60
17, 255120, Note_off_c, 13, 63, 64
17, 255120, Note_on_c, 13, 62, 60
17, 255240, Note_off_c, 13, 62, 64
17, 255240, Note_on_c, 13, 63, 60
17, 255355, Note_off_c, 13, 63, 64
17, 255360, Note_on_c, 13, 62, 60
17, 255480, Note_off_c, 13, 62, 64
17, 255480, Note_on_c, 13, 63, 60
17, 255600, Note_off_c, 13, 63, 64
17, 255600, Note_on_c, 13, 60, 60
17, 255720, Note_off_c, 13, 60, 64
17, 255720, Note_on_c, 13, 62, 60
17, 255835, Note_off_c, 13, 62, 64
17, 255840, Note_on_c, 13, 59, 60
17, 256075, Note_off_c, 13, 59, 64
17, 256080, Note_on_c, 13, 59, 60
17, 256315, Note_off_c, 13, 59, 64
17, 256320, Note_on_c, 13, 60, 60
17, 256560, Note_off_c, 13, 60, 64
17, 256560, Note_on_c, 13, 60, 60
17, 256800, Note_off_c, 13, 60, 64
17, 256800, Note_on_c, 13, 53, 60
17, 257040, Note_off_c, 13, 53, 64
17, 257040, Note_on_c, 13, 53, 60
17, 257280, Note_off_c, 13, 53, 64
17, 257280, Note_on_c, 13, 55, 60
17, 257520, Note_off_c, 13, 55, 64
17, 257520, Note_on_c, 13, 55, 60
17, 257760, Note_off_c, 13, 55, 64
17, 257760, Note_on_c, 13, 56, 60
17, 258000, Note_off_c, 13, 56, 64
17, 258000, Note_on_c, 13, 55, 60
17, 258235, Note_off_c, 13, 55, 64
17, 258240, Note_on_c, 13, 53, 60
17, 258960, Note_off_c, 13, 53, 64
17, 258960, Note_on_c, 13, 56, 60
17, 259195, Note_off_c, 13, 56, 64
17, 259200, Note_on_c, 13, 55, 60
17, 259840, Note_off_c, 13, 55, 64
17, 259920, Note_on_c, 13, 55, 60
17, 260400, Note_off_c, 13, 55, 64
17, 260400, Note_on_c, 13, 60, 60
17, 260635, Note_off_c, 13, 60, 64
17, 260640, Note_on_c, 13, 59, 60
17, 260760, Note_off_c, 13, 59, 64
17, 260760, Note_on_c, 13, 62, 60
17, 260880, Note_off_c, 13, 62, 64
17, 260880, Note_on_c, 13, 60, 60
17, 261000, Note_off_c, 13, 60, 64
17, 261000, Note_on_c, 13, 63, 60
17, 261115, Note_off_c, 13, 63, 64
17, 261120, Note_on_c, 13, 62, 60
17, 261360, Note_off_c, 13, 62, 64
17, 261360, Note_on_c, 13, 55, 60
17, 261835, Note_off_c, 13, 55, 64
17, 261840, Note_on_c, 13, 60, 60
17, 262480, Note_off_c, 13, 60, 64
17, 262560, Note_on_c, 13, 65, 60
17, 262960, Note_off_c, 13, 65, 64
17, 263040, Note_on_c, 13, 58, 60
17, 263440, Note_off_c, 13, 58, 64
17, 263520, Note_on_c, 13, 60, 60
17, 263920, Note_off_c, 13, 60, 64
17, 264000, Note_on_c, 13, 65, 60
17, 264240, Note_off_c, 13, 65, 64
17, 264240, Note_on_c, 13, 63, 60
17, 264475, Note_off_c, 13, 63, 64
17, 264480, Note_on_c, 13, 62, 60
17, 264720, Note_off_c, 13, 62, 64
17, 264720, Note_on_c, 13, 60, 60
17, 264955, Note_off_c, 13, 60, 64
17, 264960, Note_on_c, 13, 59, 60
17, 265200, Note_off_c, 13, 59, 64
17, 265200, Note_on_c, 13, 60, 60
17, 265435, Note_off_c, 13, 60, 64
17, 265440, Note_on_c, 13, 62, 60
17, 265840, Note_off_c, 13, 62, 64
17, 265920, Note_on_c, 13, 55, 60
17, 266800, Note_off_c, 13, 55, 64
17, 267360, Note_on_c, 13, 55, 60
17, 267760, Note_off_c, 13, 55, 64
17, 267840, Note_on_c, 13, 62, 60
17, 268680, Note_off_c, 13, 62, 64
17, 268800, Note_on_c, 13, 58, 60
17, 269200, Note_off_c, 13, 58, 64
17, 269280, Note_on_c, 13, 60, 60
17, 270120, Note_off_c, 13, 60, 64
17, 270240, Note_on_c, 13, 62, 60
17, 270640, Note_off_c, 13, 62, 64
17, 270720, Note_on_c, 13, 63, 60
17, 271560, Note_off_c, 13, 63, 64
17, 271680, Note_on_c, 13, 60, 60
17, 272080, Note_off_c, 13, 60, 64
17, 272160, Note_on_c, 13, 62, 60
17, 272800, Note_off_c, 13, 62, 64
17, 272880, Note_on_c, 13, 62, 60
17, 273355, Note_off_c, 13, 62, 64
17, 273360, Note_on_c, 13, 57, 60
17, 273600, Note_off_c, 13, 57, 64
17, 273600, Note_on_c, 13, 62, 60
17, 273835, Note_off_c, 13, 62, 64
17, 273840, Note_on_c, 13, 60, 60
17, 274315, Note_off_c, 13, 60, 64
17, 274320, Note_on_c, 13, 62, 60
17, 274795, Note_off_c, 13, 62, 64
17, 274800, Note_on_c, 13, 57, 60
17, 275035, Note_off_c, 13, 57, 64
17, 275040, Note_on_c, 13, 59, 63
17, 275280, Note_off_c, 13, 59, 64
17, 275280, Note_on_c, 13, 60, 66
17, 275515, Note_off_c, 13, 60, 64
17, 275520, Note_on_c, 13, 62, 69
17, 275760, Note_off_c, 13, 62, 64
17, 275760, Note_on_c, 13, 55, 72
17, 275995, Note_off_c, 13, 55, 64
17, 276000, Note_on_c, 13, 60, 75
17, 276240, Note_off_c, 13, 60, 64
17, 276240, Note_on_c, 13, 56, 75
17, 276475, Note_off_c, 13, 56, 64
17, 276480, Note_on_c, 13, 55, 75
17, 276720, Note_off_c, 13, 55, 64
17, 276720, Note_on_c, 13, 63, 75
17, 276955, Note_off_c, 13, 63, 64
17, 276960, Note_on_c, 13, 59, 75
17, 277360, Note_off_c, 13, 59, 64
17, 277440, Note_on_c, 13, 60, 75
17, 277840, Note_off_c, 13, 60, 64
17, 278160, Note_on_c, 13, 68, 75
17, 278400, Note_off_c, 13, 68, 64
17, 278400, Note_on_c, 13, 62, 75
17, 278635, Note_off_c, 13, 62, 64
17, 278640, Note_on_c, 13, 62, 75
17, 278880, Note_off_c, 13, 62, 64
17, 278880, Note_on_c, 13, 64, 75
17, 279280, Note_off_c, 13, 64, 64
17, 279600, Note_on_c, 13, 65, 75
17, 279840, Note_off_c, 13, 65, 64
17, 279840, Note_on_c, 13, 60, 75
17, 280075, Note_off_c, 13, 60, 64
17, 280080, Note_on_c, 13, 60, 75
17, 280320, Note_off_c, 13, 60, 64
17, 280320, Note_on_c, 13, 62, 75
17, 280720, Note_off_c, 13, 62, 64
17, 281040, Note_on_c, 13, 63, 75
17, 281280, Note_off_c, 13, 63, 64
17, 281280, Note_on_c, 13, 59, 75
17, 281515, Note_off_c, 13, 59, 64
17, 281520, Note_on_c, 13, 59, 75
17, 281760, Note_off_c, 13, 59, 64
17, 281760, Note_on_c, 13, 60, 75
17, 281995, Note_off_c, 13, 60, 64
17, 282000, Note_on_c, 13, 60, 75
17, 282240, Note_off_c, 13, 60, 64
17, 282240, Note_on_c, 13, 62, 75
17, 282480, Note_off_c, 13, 62, 64
17, 282480, Note_on_c, 13, 58, 75
17, 282715, Note_off_c, 13, 58, 64
17, 284640, Note_on_c, 13, 51, 75
17, 285040, Note_off_c, 13, 51, 64
17, 285120, Note_on_c, 13, 58, 75
17, 285960, Note_off_c, 13, 58, 64
17, 286080, Note_on_c, 13, 55, 75
17, 286480, Note_off_c, 13, 55, 64
17, 286560, Note_on_c, 13, 56, 75
17, 287400, Note_off_c, 13, 56, 64
17, 287520, Note_on_c, 13, 58, 75
17, 287920, Note_off_c, 13, 58, 64
17, 288000, Note_on_c, 13, 60, 75
17, 288840, Note_off_c, 13, 60, 64
17, 288960, Note_on_c, 13, 56, 75
17, 289360, Note_off_c, 13, 56, 64
17, 289440, Note_on_c, 13, 58, 75
17, 290280, Note_off_c, 13, 58, 64
17, 290400, Note_on_c, 13, 60, 75
17, 290800, Note_off_c, 13, 60, 64
17, 290880, Note_on_c, 13, 53, 75
17, 291720, Note_off_c, 13, 53, 64
17, 291840, Note_on_c, 13, 58, 75
17, 292240, Note_off_c, 13, 58, 64
17, 292320, Note_on_c, 13, 51, 75
17, 292960, Note_off_c, 13, 51, 64
17, 293040, Note_on_c, 13, 51, 75
17, 293275, Note_off_c, 13, 51, 64
17, 293280, Note_on_c, 13, 53, 75
17, 293520, Note_off_c, 13, 53, 64
17, 293520, Note_on_c, 13, 55, 75
17, 293755, Note_off_c, 13, 55, 64
17, 293760, Note_on_c, 13, 56, 75
17, 293880, Note_off_c, 13, 56, 64
17, 293880, Note_on_c, 13, 60, 75
17, 294000, Note_off_c, 13, 60, 64
17, 294000, Note_on_c, 13, 56, 75
17, 294120, Note_off_c, 13, 56, 64
17, 294120, Note_on_c, 13, 60, 75
17, 294235, Note_off_c, 13, 60, 64
17, 294240, Note_on_c, 13, 53, 75
17, 294360, Note_off_c, 13, 53, 64
17, 294360, Note_on_c, 13, 56, 75
17, 294480, Note_off_c, 13, 56, 64
17, 294480, Note_on_c, 13, 53, 75
17, 294600, Note_off_c, 13, 53, 64
17, 294600, Note_on_c, 13, 56, 75
17, 294715, Note_off_c, 13, 56, 64
17, 294720, Note_on_c, 13, 50, 75
17, 294840, Note_off_c, 13, 50, 64
17, 294840, Note_on_c, 13, 53, 75
17, 294960, Note_off_c, 13, 53, 64
17, 294960, Note_on_c, 13, 50, 75
17, 295080, Note_off_c, 13, 50, 64
17, 295080, Note_on_c, 13, 53, 75
17, 295195, Note_off_c, 13, 53, 64
17, 295200, Note_on_c, 13, 55, 75
17, 295320, Note_off_c, 13, 55, 64
17, 295320, Note_on_c, 13, 58, 75
17, 295440, Note_off_c, 13, 58, 64
17, 295440, Note_on_c, 13, 55, 75
17, 295560, Note_off_c, 13, 55, 64
17, 295560, Note_on_c, 13, 58, 75
17, 295675, Note_off_c, 13, 58, 64
17, 295680, Note_on_c, 13, 51, 75
17, 295800, Note_off_c, 13, 51, 64
17, 295800, Note_on_c, 13, 55, 75
17, 295920, Note_off_c, 13, 55, 64
17, 295920, Note_on_c, 13, 51, 75
17, 296040, Note_off_c, 13, 51, 64
17, 296040, Note_on_c, 13, 55, 75
17, 296155, Note_off_c, 13, 55, 64
17, 296160, Note_on_c, 13, 48, 75
17, 296280, Note_off_c, 13, 48, 64
17, 296280, Note_on_c, 13, 51, 75
17, 296400, Note_off_c, 13, 51, 64
17, 296400, Note_on_c, 13, 48, 75
17, 296520, Note_off_c, 13, 48, 64
17, 296520, Note_on_c, 13, 51, 75
17, 296635, Note_off_c, 13, 51, 64
17, 296640, Note_on_c, 13, 53, 75
17, 296760, Note_off_c, 13, 53, 64
17, 296760, Note_on_c, 13, 56, 75
17, 296880, Note_off_c, 13, 56, 64
17, 296880, Note_on_c, 13, 53, 75
17, 297000, Note_off_c, 13, 53, 64
17, 297000, Note_on_c, 13, 56, 75
17, 297115, Note_off_c, 13, 56, 64
17, 297120, Note_on_c, 13, 50, 75
17, 297240, Note_off_c, 13, 50, 64
17, 297240, Note_on_c, 13, 53, 75
17, 297360, Note_off_c, 13, 53, 64
17, 297360, Note_on_c, 13, 50, 75
17, 297480, Note_off_c, 13, 50, 64
17, 297480, Note_on_c, 13, 53, 75
17, 297595, Note_off_c, 13, 53, 64
17, 297600, Note_on_c, 13, 58, 75
17, 297720, Note_off_c, 13, 58, 64
17, 297720, Note_on_c, 13, 62, 75
17, 297840, Note_off_c, 13, 62, 64
17, 297840, Note_on_c, 13, 58, 75
17, 297960, Note_off_c, 13, 58, 64
17, 297960, Note_on_c, 13, 62, 75
17, 298075, Note_off_c, 13, 62, 64
17, 298080, Note_on_c, 13, 51, 75
17, 298200, Note_off_c, 13, 51, 64
17, 298200, Note_on_c, 13, 55, 75
17, 298320, Note_off_c, 13, 55, 64
17, 298320, Note_on_c, 13, 51, 75
17, 298440, Note_off_c, 13, 51, 64
17, 298440, Note_on_c, 13, 55, 75
17, 298555, Note_off_c, 13, 55, 64
17, 298560, Note_on_c, 13, 48, 75
17, 298680, Note_off_c, 13, 48, 64
17, 298680, Note_on_c, 13, 51, 75
17, 298800, Note_off_c, 13, 51, 64
17, 298800, Note_on_c, 13, 48, 75
17, 298920, Note_off_c, 13, 48, 64
17, 298920, Note_on_c, 13, 51, 75
17, 299035, Note_off_c, 13, 51, 64
17, 299040, Note_on_c, 13, 57, 75
17, 299160, Note_off_c, 13, 57, 64
17, 299160, Note_on_c, 13, 60, 75
17, 299280, Note_off_c, 13, 60, 64
17, 299280, Note_on_c, 13, 57, 75
17, 299400, Note_off_c, 13, 57, 64
17, 299400, Note_on_c, 13, 60, 75
17, 299515, Note_off_c, 13, 60, 64
17, 299520, Note_on_c, 13, 58, 75
17, 300115, Note_off_c, 13, 58, 64
17, 300120, Note_on_c, 13, 62, 75
17, 300240, Note_off_c, 13, 62, 64
17, 300240, Note_on_c, 13, 60, 75
17, 300360, Note_off_c, 13, 60, 64
17, 300360, Note_on_c, 13, 63, 75
17, 300475, Note_off_c, 13, 63, 64
17, 300480, Note_on_c, 13, 62, 75
17, 300600, Note_off_c, 13, 62, 64
17, 300600, Note_on_c, 13, 65, 75
17, 300720, Note_off_c, 13, 65, 64
17, 300720, Note_on_c, 13, 63, 75
17, 300840, Note_off_c, 13, 63, 64
17, 300840, Note_on_c, 13, 67, 75
17, 300955, Note_off_c, 13, 67, 64
17, 300960, Note_on_c, 13, 65, 75
17, 301080, Note_off_c, 13, 65, 64
17, 301080, Note_on_c, 13, 67, 75
17, 301200, Note_off_c, 13, 67, 64
17, 301200, Note_on_c, 13, 65, 75
17, 301320, Note_off_c, 13, 65, 64
17, 301320, Note_on_c, 13, 63, 75
17, 301435, Note_off_c, 13, 63, 64
17, 301440, Note_on_c, 13, 62, 75
17, 301560, Note_off_c, 13, 62, 64
17, 301560, Note_on_c, 13, 65, 75
17, 301680, Note_off_c, 13, 65, 64
17, 301680, Note_on_c, 13, 63, 75
17, 301800, Note_off_c, 13, 63, 64
17, 301800, Note_on_c, 13, 65, 75
17, 301915, Note_off_c, 13, 65, 64
17, 301920, Note_on_c, 13, 58, 75
17, 302160, Note_off_c, 13, 58, 64
17, 302160, Note_on_c, 13, 57, 75
17, 302280, Note_off_c, 13, 57, 64
17, 302280, Note_on_c, 13, 58, 75
17, 302395, Note_off_c, 13, 58, 64
17, 302400, Note_on_c, 13, 55, 75
17, 302520, Note_off_c, 13, 55, 64
17, 302520, Note_on_c, 13, 58, 75
17, 302640, Note_off_c, 13, 58, 64
17, 302640, Note_on_c, 13, 55, 75
17, 302760, Note_off_c, 13, 55, 64
17, 302760, Note_on_c, 13, 58, 75
17, 302875, Note_off_c, 13, 58, 64
17, 302880, Note_on_c, 13, 55, 75
17, 303000, Note_off_c, 13, 55, 64
17, 303000, Note_on_c, 13, 56, 75
17, 303120, Note_off_c, 13, 56, 64
17, 303120, Note_on_c, 13, 55, 75
17, 303240, Note_off_c, 13, 55, 64
17, 303240, Note_on_c, 13, 56, 75
17, 303355, Note_off_c, 13, 56, 64
17, 303360, Note_on_c, 13, 53, 75
17, 303480, Note_off_c, 13, 53, 64
17, 303480, Note_on_c, 13, 56, 75
17, 303600, Note_off_c, 13, 56, 64
17, 303600, Note_on_c, 13, 53, 75
17, 303720, Note_off_c, 13, 53, 64
17, 303720, Note_on_c, 13, 56, 75
17, 303835, Note_off_c, 13, 56, 64
17, 303840, Note_on_c, 13, 51, 75
17, 303960, Note_off_c, 13, 51, 64
17, 303960, Note_on_c, 13, 55, 75
17, 304080, Note_off_c, 13, 55, 64
17, 304080, Note_on_c, 13, 53, 75
17, 304200, Note_off_c, 13, 53, 64
17, 304200, Note_on_c, 13, 56, 75
17, 304315, Note_off_c, 13, 56, 64
17, 304320, Note_on_c, 13, 55, 75
17, 304440, Note_off_c, 13, 55, 64
17, 304440, Note_on_c, 13, 58, 75
17, 304560, Note_off_c, 13, 58, 64
17, 304560, Note_on_c, 13, 51, 75
17, 304680, Note_off_c, 13, 51, 64
17, 304680, Note_on_c, 13, 55, 75
17, 304795, Note_off_c, 13, 55, 64
17, 304800, Note_on_c, 13, 60, 75
17, 304920, Note_off_c, 13, 60, 64
17, 304920, Note_on_c, 13, 63, 75
17, 305040, Note_off_c, 13, 63, 64
17, 305040, Note_on_c, 13, 62, 75
17, 305160, Note_off_c, 13, 62, 64
17, 305160, Note_on_c, 13, 60, 75
17, 305275, Note_off_c, 13, 60, 64
17, 305280, Note_on_c, 13, 58, 75
17, 305680, Note_off_c, 13, 58, 64
17, 305760, Note_on_c, 13, 60, 75
17, 306000, Note_off_c, 13, 60, 64
17, 306000, Note_on_c, 13, 60, 75
17, 306235, Note_off_c, 13, 60, 64
17, 306240, Note_on_c, 13, 62, 75
17, 306480, Note_off_c, 13, 62, 64
17, 306480, Note_on_c, 13, 62, 75
17, 306715, Note_off_c, 13, 62, 64
17, 306720, Note_on_c, 13, 63, 75
17, 306960, Note_off_c, 13, 63, 64
17, 306960, Note_on_c, 13, 51, 75
17, 307195, Note_off_c, 13, 51, 64
17, 307200, Note_on_c, 13, 53, 75
17, 307440, Note_off_c, 13, 53, 64
17, 307440, Note_on_c, 13, 53, 75
17, 307675, Note_off_c, 13, 53, 64
17, 307680, Note_on_c, 13, 55, 75
17, 307920, Note_off_c, 13, 55, 64
17, 307920, Note_on_c, 13, 55, 75
17, 308155, Note_off_c, 13, 55, 64
17, 308160, Note_on_c, 13, 56, 75
17, 308400, Note_off_c, 13, 56, 64
17, 308400, Note_on_c, 13, 68, 75
17, 308635, Note_off_c, 13, 68, 64
17, 308640, Note_on_c, 13, 62, 75
17, 308880, Note_off_c, 13, 62, 64
17, 308880, Note_on_c, 13, 62, 75
17, 309115, Note_off_c, 13, 62, 64
17, 309120, Note_on_c, 13, 64, 75
17, 309360, Note_off_c, 13, 64, 64
17, 309360, Note_on_c, 13, 64, 75
17, 309595, Note_off_c, 13, 64, 64
17, 309600, Note_on_c, 13, 65, 75
17, 310000, Note_off_c, 13, 65, 64
17, 310200, Note_on_c, 13, 67, 75
17, 310320, Note_off_c, 13, 67, 64
17, 310320, Note_on_c, 13, 65, 75
17, 310440, Note_off_c, 13, 65, 64
17, 310440, Note_on_c, 13, 67, 75
17, 310555, Note_off_c, 13, 67, 64
17, 310560, Note_on_c, 13, 63, 75
17, 310680, Note_off_c, 13, 63, 64
17, 310680, Note_on_c, 13, 68, 75
17, 310800, Note_off_c, 13, 68, 64
17, 310800, Note_on_c, 13, 67, 75
17, 310920, Note_off_c, 13, 67, 64
17, 310920, Note_on_c, 13, 68, 75
17, 311035, Note_off_c, 13, 68, 64
17, 311040, Note_on_c, 13, 62, 75
17, 311440, Note_off_c, 13, 62, 64
17, 311640, Note_on_c, 13, 65, 75
17, 311760, Note_off_c, 13, 65, 64
17, 311760, Note_on_c, 13, 63, 75
17, 311880, Note_off_c, 13, 63, 64
17, 311880, Note_on_c, 13, 65, 75
17, 311995, Note_off_c, 13, 65, 64
17, 312000, Note_on_c, 13, 62, 75
17, 312120, Note_off_c, 13, 62, 64
17, 312120, Note_on_c, 13, 67, 75
17, 312240, Note_off_c, 13, 67, 64
17, 312240, Note_on_c, 13, 65, 75
17, 312360, Note_off_c, 13, 65, 64
17, 312360, Note_on_c, 13, 67, 75
17, 312475, Note_off_c, 13, 67, 64
17, 312480, Note_on_c, 13, 60, 75
17, 312880, Note_off_c, 13, 60, 64
17, 312960, Note_on_c, 13, 69, 75
17, 313360, Note_off_c, 13, 69, 64
17, 313440, Note_on_c, 13, 65, 75
17, 313840, Note_off_c, 13, 65, 64
17, 313920, Note_on_c, 13, 58, 75
17, 314320, Note_off_c, 13, 58, 64
17, 314400, Note_on_c, 13, 60, 75
17, 314800, Note_off_c, 13, 60, 64
17, 314880, Note_on_c, 13, 62, 75
17, 315280, Note_off_c, 13, 62, 64
17, 315360, Note_on_c, 13, 63, 75
17, 315760, Note_off_c, 13, 63, 64
17, 315840, Note_on_c, 13, 62, 75
17, 316240, Note_off_c, 13, 62, 64
17, 316320, Note_on_c, 13, 60, 75
17, 316720, Note_off_c, 13, 60, 64
17, 316800, Note_on_c, 13, 62, 80
17, 317200, Note_off_c, 13, 62, 64
17, 317280, Note_on_c, 13, 60, 86
17, 317680, Note_off_c, 13, 60, 64
17, 317760, Note_on_c, 13, 58, 92
17, 317880, Note_off_c, 13, 58, 64
17, 317880, Note_on_c, 13, 57, 92
17, 318000, Note_off_c, 13, 57, 64
17, 318000, Note_on_c, 13, 55, 92
17, 318120, Note_off_c, 13, 55, 64
17, 318120, Note_on_c, 13, 57, 92
17, 318235, Note_off_c, 13, 57, 64
17, 318240, Note_on_c, 13, 58, 92
17, 318360, Note_off_c, 13, 58, 64
17, 318360, Note_on_c, 13, 62, 92
17, 318480, Note_off_c, 13, 62, 64
17, 318480, Note_on_c, 13, 60, 92
17, 318600, Note_off_c, 13, 60, 64
17, 318600, Note_on_c, 13, 63, 92
17, 318715, Note_off_c, 13, 63, 64
17, 318720, Note_on_c, 13, 62, 92
17, 319120, Note_off_c, 13, 62, 64
17, 319200, Note_on_c, 13, 62, 92
17, 319915, Note_off_c, 13, 62, 64
17, 319920, Note_on_c, 13, 55, 92
17, 320155, Note_off_c, 13, 55, 64
17, 320160, Note_on_c, 13, 60, 92
17, 320560, Note_off_c, 13, 60, 64
17, 320640, Note_on_c, 13, 54, 92
17, 321040, Note_off_c, 13, 54, 64
17, 321120, Note_on_c, 13, 55, 92
17, 321520, Note_off_c, 13, 55, 64
17, 321600, Note_on_c, 13, 60, 92
17, 321840, Note_off_c, 13, 60, 64
17, 321840, Note_on_c, 13, 62, 92
17, 322075, Note_off_c, 13, 62, 64
17, 322080, Note_on_c, 13, 63, 92
17, 322480, Note_off_c, 13, 63, 64
17, 322560, Note_on_c, 13, 62, 75
17, 324115, Note_off_c, 13, 62, 64
17, 324120, Note_on_c, 13, 65, 60
17, 324240, Note_off_c, 13, 65, 64
17, 324240, Note_on_c, 13, 63, 60
17, 324360, Note_off_c, 13, 63, 64
17, 324360, Note_on_c, 13, 67, 60
17, 324475, Note_off_c, 13, 67, 64
17, 324480, Note_on_c, 13, 65, 60
17, 324600, Note_off_c, 13, 65, 64
17, 324600, Note_on_c, 13, 67, 60
17, 324720, Note_off_c, 13, 67, 64
17, 324720, Note_on_c, 13, 63, 60
17, 324840, Note_off_c, 13, 63, 64
17, 324840, Note_on_c, 13, 65, 60
17, 324955, Note_off_c, 13, 65, 64
17, 324960, Note_on_c, 13, 67, 60
17, 325200, Note_off_c, 13, 67, 64
17, 325200, Note_on_c, 13, 60, 60
17, 325555, Note_off_c, 13, 60, 64
17, 325560, Note_on_c, 13, 63, 60
17, 325680, Note_off_c, 13, 63, 64
17, 325680, Note_on_c, 13, 62, 60
17, 325800, Note_off_c, 13, 62, 64
17, 325800, Note_on_c, 13, 65, 60
17, 325915, Note_off_c, 13, 65, 64
17, 325920, Note_on_c, 13, 63, 60
17, 326040, Note_off_c, 13, 63, 64
17, 326040, Note_on_c, 13, 65, 60
17, 326160, Note_off_c, 13, 65, 64
17, 326160, Note_on_c, 13, 62, 60
17, 326280, Note_off_c, 13, 62, 64
17, 326280, Note_on_c, 13, 63, 60
17, 326395, Note_off_c, 13, 63, 64
17, 326400, Note_on_c, 13, 65, 60
17, 326640, Note_off_c, 13, 65, 64
17, 326640, Note_on_c, 13, 58, 60
17, 326995, Note_off_c, 13, 58, 64
17, 327000, Note_on_c, 13, 62, 60
17, 327120, Note_off_c, 13, 62, 64
17, 327120, Note_on_c, 13, 60, 60
17, 327240, Note_off_c, 13, 60, 64
17, 327240, Note_on_c, 13, 63, 60
17, 327355, Note_off_c, 13, 63, 64
17, 327360, Note_on_c, 13, 62, 60
17, 327480, Note_off_c, 13, 62, 64
17, 327480, Note_on_c, 13, 63, 60
17, 327600, Note_off_c, 13, 63, 64
17, 327600, Note_on_c, 13, 60, 60
17, 327720, Note_off_c, 13, 60, 64
17, 327720, Note_on_c, 13, 62, 60
17, 327835, Note_off_c, 13, 62, 64
17, 327840, Note_on_c, 13, 63, 60
17, 328080, Note_off_c, 13, 63, 64
17, 328080, Note_on_c, 13, 57, 60
17, 328555, Note_off_c, 13, 57, 64
17, 328560, Note_on_c, 13, 60, 60
17, 328800, Note_off_c, 13, 60, 64
17, 328800, Note_on_c, 13, 58, 60
17, 329040, Note_off_c, 13, 58, 64
17, 329040, Note_on_c, 13, 57, 60
17, 329275, Note_off_c, 13, 57, 64
17, 329280, Note_on_c, 13, 55, 60
17, 329400, Note_off_c, 13, 55, 64
17, 329400, Note_on_c, 13, 58, 60
17, 329520, Note_off_c, 13, 58, 64
17, 329520, Note_on_c, 13, 55, 60
17, 329640, Note_off_c, 13, 55, 64
17, 329640, Note_on_c, 13, 58, 60
17, 329755, Note_off_c, 13, 58, 64
17, 329760, Note_on_c, 13, 60, 60
17, 329880, Note_off_c, 13, 60, 64
17, 329880, Note_on_c, 13, 63, 60
17, 330000, Note_off_c, 13, 63, 64
17, 330000, Note_on_c, 13, 60, 60
17, 330120, Note_off_c, 13, 60, 64
17, 330120, Note_on_c, 13, 63, 60
17, 330235, Note_off_c, 13, 63, 64
17, 330240, Note_on_c, 13, 57, 60
17, 330360, Note_off_c, 13, 57, 64
17, 330360, Note_on_c, 13, 60, 60
17, 330480, Note_off_c, 13, 60, 64
17, 330480, Note_on_c, 13, 58, 60
17, 330600, Note_off_c, 13, 58, 64
17, 330600, Note_on_c, 13, 62, 60
17, 330715, Note_off_c, 13, 62, 64
17, 330720, Note_on_c, 13, 60, 60
17, 330960, Note_off_c, 13, 60, 64
17, 330960, Note_on_c, 13, 53, 60
17, 331440, Note_off_c, 13, 53, 64
17, 331440, Note_on_c, 13, 55, 60
17, 331675, Note_off_c, 13, 55, 64
17, 331680, Note_on_c, 13, 56, 60
17, 332275, Note_off_c, 13, 56, 64
17, 332280, Note_on_c, 13, 55, 60
17, 332400, Note_off_c, 13, 55, 64
17, 332400, Note_on_c, 13, 50, 60
17, 332520, Note_off_c, 13, 50, 64
17, 332520, Note_on_c, 13, 53, 60
17, 332635, Note_off_c, 13, 53, 64
17, 332640, Note_on_c, 13, 51, 60
17, 332760, Note_off_c, 13, 51, 64
17, 332760, Note_on_c, 13, 55, 60
17, 332880, Note_off_c, 13, 55, 64
17, 332880, Note_on_c, 13, 53, 60
17, 333000, Note_off_c, 13, 53, 64
17, 333000, Note_on_c, 13, 56, 60
17, 333115, Note_off_c, 13, 56, 64
17, 333120, Note_on_c, 13, 55, 60
17, 333240, Note_off_c, 13, 55, 64
17, 333240, Note_on_c, 13, 56, 60
17, 333360, Note_off_c, 13, 56, 64
17, 333360, Note_on_c, 13, 53, 60
17, 333480, Note_off_c, 13, 53, 64
17, 333480, Note_on_c, 13, 55, 60
17, 333595, Note_off_c, 13, 55, 64
17, 333600, Note_on_c, 13, 56, 60
17, 334000, Note_off_c, 13, 56, 64
17, 334080, Note_on_c, 13, 50, 60
17, 334480, Note_off_c, 13, 50, 64
17, 336480, Note_on_c, 13, 48, 60
17, 336880, Note_off_c, 13, 48, 64
17, 336960, Note_on_c, 13, 55, 60
17, 337800, Note_off_c, 13, 55, 64
17, 337920, Note_on_c, 13, 51, 60
17, 338320, Note_off_c, 13, 51, 64
17, 338400, Note_on_c, 13, 53, 60
17, 339240, Note_off_c, 13, 53, 64
17, 339360, Note_on_c, 13, 55, 60
17, 339760, Note_off_c, 13, 55, 64
17, 339840, Note_on_c, 13, 56, 60
17, 340680, Note_off_c, 13, 56, 64
17, 340800, Note_on_c, 13, 53, 60
17, 341200, Note_off_c, 13, 53, 64
17, 341280, Note_on_c, 13, 55, 60
17, 341400, Note_off_c, 13, 55, 64
17, 341400, Note_on_c, 13, 58, 60
17, 341520, Note_off_c, 13, 58, 64
17, 341520, Note_on_c, 13, 56, 60
17, 341640, Note_off_c, 13, 56, 64
17, 341640, Note_on_c, 13, 58, 60
17, 341755, Note_off_c, 13, 58, 64
17, 341880, Note_on_c, 13, 60, 60
17, 342000, Note_off_c, 13, 60, 64
17, 342000, Note_on_c, 13, 58, 60
17, 342120, Note_off_c, 13, 58, 64
17, 342120, Note_on_c, 13, 60, 60
17, 342235, Note_off_c, 13, 60, 64
17, 342360, Note_on_c, 13, 62, 60
17, 342480, Note_off_c, 13, 62, 64
17, 342480, Note_on_c, 13, 60, 60
17, 342600, Note_off_c, 13, 60, 64
17, 342600, Note_on_c, 13, 62, 60
17, 342715, Note_off_c, 13, 62, 64
17, 342840, Note_on_c, 13, 63, 60
17, 342960, Note_off_c, 13, 63, 64
17, 342960, Note_on_c, 13, 65, 60
17, 343080, Note_off_c, 13, 65, 64
17, 343080, Note_on_c, 13, 63, 60
17, 343195, Note_off_c, 13, 63, 64
17, 343320, Note_on_c, 13, 62, 60
17, 343440, Note_off_c, 13, 62, 64
17, 343440, Note_on_c, 13, 60, 60
17, 343560, Note_off_c, 13, 60, 64
17, 343560, Note_on_c, 13, 62, 60
17, 343675, Note_off_c, 13, 62, 64
17, 343800, Note_on_c, 13, 59, 60
17, 343920, Note_off_c, 13, 59, 64
17, 343920, Note_on_c, 13, 57, 60
17, 344040, Note_off_c, 13, 57, 64
17, 344040, Note_on_c, 13, 59, 60
17, 344155, Note_off_c, 13, 59, 64
17, 344160, Note_on_c, 13, 60, 60
17, 344560, Note_off_c, 13, 60, 64
17, 345360, Note_on_c, 13, 65, 60
17, 345595, Note_off_c, 13, 65, 64
17, 345600, Note_on_c, 13, 58, 60
17, 345720, Note_off_c, 13, 58, 64
17, 345720, Note_on_c, 13, 62, 60
17, 345840, Note_off_c, 13, 62, 64
17, 345840, Note_on_c, 13, 60, 60
17, 345960, Note_off_c, 13, 60, 64
17, 345960, Note_on_c, 13, 63, 60
17, 346075, Note_off_c, 13, 63, 64
17, 346080, Note_on_c, 13, 62, 60
17, 346200, Note_off_c, 13, 62, 64
17, 346200, Note_on_c, 13, 65, 60
17, 346320, Note_off_c, 13, 65, 64
17, 346320, Note_on_c, 13, 63, 60
17, 346440, Note_off_c, 13, 63, 64
17, 346440, Note_on_c, 13, 67, 60
17, 346555, Note_off_c, 13, 67, 64
17, 346560, Note_on_c, 13, 65, 60
17, 346680, Note_off_c, 13, 65, 64
17, 346680, Note_on_c, 13, 68, 60
17, 346800, Note_off_c, 13, 68, 64
17, 346800, Note_on_c, 13, 67, 60
17, 346920, Note_off_c, 13, 67, 64
17, 346920, Note_on_c, 13, 70, 60
17, 347035, Note_off_c, 13, 70, 64
17, 347040, Note_on_c, 13, 68, 60
17, 347440, Note_off_c, 13, 68, 64
17, 348240, Note_on_c, 13, 62, 60
17, 348475, Note_off_c, 13, 62, 64
17, 348480, Note_on_c, 13, 55, 60
17, 348600, Note_off_c, 13, 55, 64
17, 348600, Note_on_c, 13, 58, 60
17, 348720, Note_off_c, 13, 58, 64
17, 348720, Note_on_c, 13, 56, 60
17, 348840, Note_off_c, 13, 56, 64
17, 348840, Note_on_c, 13, 60, 60
17, 348955, Note_off_c, 13, 60, 64
17, 348960, Note_on_c, 13, 58, 60
17, 349080, Note_off_c, 13, 58, 64
17, 349080, Note_on_c, 13, 62, 60
17, 349200, Note_off_c, 13, 62, 64
17, 349200, Note_on_c, 13, 60, 60
17, 349320, Note_off_c, 13, 60, 64
17, 349320, Note_on_c, 13, 63, 60
17, 349435, Note_off_c, 13, 63, 64
17, 349440, Note_on_c, 13, 62, 60
17, 349560, Note_off_c, 13, 62, 64
17, 349560, Note_on_c, 13, 65, 60
17, 349680, Note_off_c, 13, 65, 64
17, 349680, Note_on_c, 13, 64, 60
17, 349800, Note_off_c, 13, 64, 64
17, 349800, Note_on_c, 13, 67, 60
17, 349915, Note_off_c, 13, 67, 64
17, 349920, Note_on_c, 13, 65, 60
17, 350320, Note_off_c, 13, 65, 64
17, 350640, Note_on_c, 13, 58, 60
17, 350995, Note_off_c, 13, 58, 64
17, 351000, Note_on_c, 13, 60, 60
17, 351120, Note_off_c, 13, 60, 64
17, 351120, Note_on_c, 13, 58, 60
17, 351240, Note_off_c, 13, 58, 64
17, 351240, Note_on_c, 13, 56, 60
17, 351355, Note_off_c, 13, 56, 64
17, 351360, Note_on_c, 13, 55, 60
17, 351480, Note_off_c, 13, 55, 64
17, 351480, Note_on_c, 13, 58, 60
17, 351600, Note_off_c, 13, 58, 64
17, 351600, Note_on_c, 13, 56, 60
17, 351720, Note_off_c, 13, 56, 64
17, 351720, Note_on_c, 13, 60, 60
17, 351835, Note_off_c, 13, 60, 64
17, 351840, Note_on_c, 13, 58, 60
17, 352240, Note_off_c, 13, 58, 64
17, 352320, Note_on_c, 13, 60, 60
17, 352440, Note_off_c, 13, 60, 64
17, 352440, Note_on_c, 13, 62, 60
17, 352560, Note_off_c, 13, 62, 64
17, 352560, Note_on_c, 13, 58, 60
17, 352680, Note_off_c, 13, 58, 64
17, 352680, Note_on_c, 13, 60, 60
17, 352795, Note_off_c, 13, 60, 64
17, 352800, Note_on_c, 13, 57, 60
17, 352920, Note_off_c, 13, 57, 64
17, 352920, Note_on_c, 13, 58, 61
17, 353040, Note_off_c, 13, 58, 64
17, 353040, Note_on_c, 13, 55, 63
17, 353160, Note_off_c, 13, 55, 64
17, 353160, Note_on_c, 13, 57, 65
17, 353275, Note_off_c, 13, 57, 64
17, 353280, Note_on_c, 13, 54, 67
17, 353680, Note_off_c, 13, 54, 64
17, 353760, Note_on_c, 13, 55, 75
17, 353880, Note_off_c, 13, 55, 64
17, 353880, Note_on_c, 13, 57, 75
17, 354000, Note_off_c, 13, 57, 64
17, 354000, Note_on_c, 13, 54, 75
17, 354120, Note_off_c, 13, 54, 64
17, 354120, Note_on_c, 13, 55, 75
17, 354235, Note_off_c, 13, 55, 64
17, 354240, Note_on_c, 13, 57, 75
17, 354480, Note_off_c, 13, 57, 64
17, 354480, Note_on_c, 13, 58, 75
17, 354720, Note_off_c, 13, 58, 64
17, 354720, Note_on_c, 13, 54, 75
17, 354955, Note_off_c, 13, 54, 64
17, 354960, Note_on_c, 13, 54, 75
17, 355200, Note_off_c, 13, 54, 64
17, 355200, Note_on_c, 13, 55, 75
17, 355600, Note_off_c, 13, 55, 64
17, 355920, Note_on_c, 13, 63, 75
17, 356160, Note_off_c, 13, 63, 64
17, 356160, Note_on_c, 13, 57, 75
17, 356395, Note_off_c, 13, 57, 64
17, 356400, Note_on_c, 13, 57, 75
17, 356640, Note_off_c, 13, 57, 64
17, 356640, Note_on_c, 13, 59, 75
17, 357040, Note_off_c, 13, 59, 64
17, 357360, Note_on_c, 13, 60, 75
17, 357600, Note_off_c, 13, 60, 64
17, 357600, Note_on_c, 13, 55, 75
17, 357835, Note_off_c, 13, 55, 64
17, 357840, Note_on_c, 13, 55, 75
17, 358080, Note_off_c, 13, 55, 64
17, 358080, Note_on_c, 13, 57, 75
17, 358480, Note_off_c, 13, 57, 64
17, 358560, Note_on_c, 13, 58, 75
17, 358800, Note_off_c, 13, 58, 64
17, 358800, Note_on_c, 13, 57, 75
17, 358920, Note_off_c, 13, 57, 64
17, 358920, Note_on_c, 13, 55, 75
17, 359035, Note_off_c, 13, 55, 64
17, 359040, Note_on_c, 13, 57, 75
17, 359160, Note_off_c, 13, 57, 64
17, 359160, Note_on_c, 13, 62, 75
17, 359280, Note_off_c, 13, 62, 64
17, 359280, Note_on_c, 13, 60, 75
17, 359400, Note_off_c, 13, 60, 64
17, 359400, Note_on_c, 13, 62, 75
17, 359515, Note_off_c, 13, 62, 64
17, 359520, Note_on_c, 13, 58, 75
17, 359760, Note_off_c, 13, 58, 64
17, 359760, Note_on_c, 13, 59, 75
17, 359995, Note_off_c, 13, 59, 64
17, 360000, Note_on_c, 13, 60, 75
17, 360640, Note_off_c, 13, 60, 64
17, 360720, Note_on_c, 13, 62, 75
17, 361195, Note_off_c, 13, 62, 64
17, 361200, Note_on_c, 13, 58, 75
17, 361675, Note_off_c, 13, 58, 64
17, 361680, Note_on_c, 13, 57, 75
17, 362155, Note_off_c, 13, 57, 64
17, 362160, Note_on_c, 13, 55, 75
17, 362635, Note_off_c, 13, 55, 64
17, 362640, Note_on_c, 13, 54, 75
17, 362875, Note_off_c, 13, 54, 64
17, 362880, Note_on_c, 13, 55, 75
17, 363475, Note_off_c, 13, 55, 64
17, 363480, Note_on_c, 13, 58, 75
17, 363600, Note_off_c, 13, 58, 64
17, 363600, Note_on_c, 13, 57, 75
17, 363720, Note_off_c, 13, 57, 64
17, 363720, Note_on_c, 13, 55, 75
17, 363835, Note_off_c, 13, 55, 64
17, 363840, Note_on_c, 13, 54, 75
17, 364200, Note_off_c, 13, 54, 64
17, 364200, Note_on_c, 13, 55, 75
17, 364315, Note_off_c, 13, 55, 64
17, 364320, Note_on_c, 13, 55, 75
17, 365040, Note_off_c, 13, 55, 64
17, 365040, Note_on_c, 13, 57, 75
17, 365275, Note_off_c, 13, 57, 64
17, 365280, Note_on_c, 13, 59, 75
17, 365680, Note_off_c, 13, 59, 64
17, 365760, Note_on_c, 13, 60, 75
17, 365880, Note_off_c, 13, 60, 64
17, 365880, Note_on_c, 13, 63, 75
17, 366000, Note_off_c, 13, 63, 64
17, 366000, Note_on_c, 13, 62, 75
17, 366120, Note_off_c, 13, 62, 64
17, 366120, Note_on_c, 13, 65, 75
17, 366235, Note_off_c, 13, 65, 64
17, 366240, Note_on_c, 13, 63, 75
17, 366360, Note_off_c, 13, 63, 64
17, 366360, Note_on_c, 13, 67, 75
17, 366480, Note_off_c, 13, 67, 64
17, 366480, Note_on_c, 13, 65, 75
17, 366600, Note_off_c, 13, 65, 64
17, 366600, Note_on_c, 13, 68, 75
17, 366715, Note_off_c, 13, 68, 64
17, 366720, Note_on_c, 13, 67, 75
17, 366840, Note_off_c, 13, 67, 64
17, 366840, Note_on_c, 13, 70, 75
17, 366960, Note_off_c, 13, 70, 64
17, 366960, Note_on_c, 13, 68, 75
17, 367080, Note_off_c, 13, 68, 64
17, 367080, Note_on_c, 13, 67, 75
17, 367195, Note_off_c, 13, 67, 64
17, 367200, Note_on_c, 13, 68, 75
17, 367440, Note_off_c, 13, 68, 64
17, 367440, Note_on_c, 13, 64, 75
17, 367675, Note_off_c, 13, 64, 64
17, 367680, Note_on_c, 13, 65, 75
17, 367800, Note_off_c, 13, 65, 64
17, 367800, Note_on_c, 13, 68, 75
17, 367920, Note_off_c, 13, 68, 64
17, 367920, Note_on_c, 13, 67, 75
17, 368040, Note_off_c, 13, 67, 64
17, 368040, Note_on_c, 13, 70, 75
17, 368155, Note_off_c, 13, 70, 64
17, 368160, Note_on_c, 13, 68, 92
17, 368560, Note_off_c, 13, 68, 64
17, 369240, Note_on_c, 13, 60, 92
17, 369360, Note_off_c, 13, 60, 64
17, 369360, Note_on_c, 13, 58, 92
17, 369480, Note_off_c, 13, 58, 64
17, 369480, Note_on_c, 13, 60, 92
17, 369595, Note_off_c, 13, 60, 64
17, 369600, Note_on_c, 13, 53, 92
17, 369720, Note_off_c, 13, 53, 64
17, 369720, Note_on_c, 13, 65, 92
17, 369840, Note_off_c, 13, 65, 64
17, 369840, Note_on_c, 13, 63, 92
17, 369960, Note_off_c, 13, 63, 64
17, 369960, Note_on_c, 13, 65, 92
17, 370075, Note_off_c, 13, 65, 64
17, 370080, Note_on_c, 13, 61, 92
17, 370200, Note_off_c, 13, 61, 64
17, 370200, Note_on_c, 13, 65, 92
17, 370320, Note_off_c, 13, 65, 64
17, 370320, Note_on_c, 13, 61, 92
17, 370440, Note_off_c, 13, 61, 64
17, 370440, Note_on_c, 13, 65, 92
17, 370555, Note_off_c, 13, 65, 64
17, 370560, Note_on_c, 13, 61, 92
17, 370680, Note_off_c, 13, 61, 64
17, 370680, Note_on_c, 13, 63, 92
17, 370800, Note_off_c, 13, 63, 64
17, 370800, Note_on_c, 13, 61, 92
17, 370920, Note_off_c, 13, 61, 64
17, 370920, Note_on_c, 13, 63, 92
17, 371035, Note_off_c, 13, 63, 64
17, 371040, Note_on_c, 13, 60, 92
17, 371160, Note_off_c, 13, 60, 64
17, 371160, Note_on_c, 13, 63, 92
17, 371280, Note_off_c, 13, 63, 64
17, 371280, Note_on_c, 13, 60, 92
17, 371400, Note_off_c, 13, 60, 64
17, 371400, Note_on_c, 13, 63, 92
17, 371515, Note_off_c, 13, 63, 64
17, 371520, Note_on_c, 13, 58, 92
17, 371640, Note_off_c, 13, 58, 64
17, 371640, Note_on_c, 13, 61, 92
17, 371760, Note_off_c, 13, 61, 64
17, 371760, Note_on_c, 13, 60, 92
17, 371880, Note_off_c, 13, 60, 64
17, 371880, Note_on_c, 13, 63, 92
17, 371995, Note_off_c, 13, 63, 64
17, 372000, Note_on_c, 13, 61, 92
17, 372120, Note_off_c, 13, 61, 64
17, 372120, Note_on_c, 13, 63, 92
17, 372240, Note_off_c, 13, 63, 64
17, 372240, Note_on_c, 13, 61, 92
17, 372360, Note_off_c, 13, 61, 64
17, 372360, Note_on_c, 13, 63, 92
17, 372475, Note_off_c, 13, 63, 64
17, 372480, Note_on_c, 13, 61, 92
17, 372600, Note_off_c, 13, 61, 64
17, 372600, Note_on_c, 13, 63, 92
17, 372720, Note_off_c, 13, 63, 64
17, 372720, Note_on_c, 13, 61, 92
17, 372840, Note_off_c, 13, 61, 64
17, 372840, Note_on_c, 13, 63, 92
17, 372955, Note_off_c, 13, 63, 64
17, 372960, Note_on_c, 13, 60, 92
17, 374515, Note_off_c, 13, 60, 64
17, 374520, Note_on_c, 13, 64, 92
17, 374640, Note_off_c, 13, 64, 64
17, 374640, Note_on_c, 13, 65, 92
17, 374760, Note_off_c, 13, 65, 64
17, 374760, Note_on_c, 13, 67, 92
17, 374875, Note_off_c, 13, 67, 64
17, 374880, Note_on_c, 13, 68, 92
17, 375120, Note_off_c, 13, 68, 64
17, 375120, Note_on_c, 13, 67, 92
17, 375240, Note_off_c, 13, 67, 64
17, 375240, Note_on_c, 13, 65, 92
17, 375355, Note_off_c, 13, 65, 64
17, 375360, Note_on_c, 13, 72, 92
17, 375760, Note_off_c, 13, 72, 64
17, 375840, Note_on_c, 13, 70, 92
17, 376080, Note_off_c, 13, 70, 64
17, 376080, Note_on_c, 13, 65, 92
17, 376315, Note_off_c, 13, 65, 64
17, 376320, Note_on_c, 13, 67, 92
17, 376915, Note_off_c, 13, 67, 64
17, 376920, Note_on_c, 13, 67, 92
17, 377040, Note_off_c, 13, 67, 64
17, 377040, Note_on_c, 13, 68, 92
17, 377160, Note_off_c, 13, 68, 64
17, 377160, Note_on_c, 13, 67, 92
17, 377275, Note_off_c, 13, 67, 64
17, 377280, Note_on_c, 13, 65, 92
17, 378120, Note_off_c, 13, 65, 64
17, 378240, Note_on_c, 13, 63, 92
17, 378955, Note_off_c, 13, 63, 64
17, 378960, Note_on_c, 13, 62, 92
17, 379080, Note_off_c, 13, 62, 64
17, 379080, Note_on_c, 13, 63, 92
17, 379195, Note_off_c, 13, 63, 64
17, 379200, Note_on_c, 13, 60, 92
17, 379320, Note_off_c, 13, 60, 64
17, 379320, Note_on_c, 13, 63, 92
17, 379440, Note_off_c, 13, 63, 64
17, 379440, Note_on_c, 13, 62, 92
17, 379560, Note_off_c, 13, 62, 64
17, 379560, Note_on_c, 13, 60, 92
17, 379675, Note_off_c, 13, 60, 64
17, 379680, Note_on_c, 13, 58, 92
17, 380080, Note_off_c, 13, 58, 64
17, 380280, Note_on_c, 13, 60, 92
17, 380400, Note_off_c, 13, 60, 64
17, 380400, Note_on_c, 13, 58, 92
17, 380520, Note_off_c, 13, 58, 64
17, 380520, Note_on_c, 13, 60, 92
17, 380635, Note_off_c, 13, 60, 64
17, 380640, Note_on_c, 13, 57, 92
17, 380760, Note_off_c, 13, 57, 64
17, 380760, Note_on_c, 13, 58, 92
17, 380880, Note_off_c, 13, 58, 64
17, 380880, Note_on_c, 13, 57, 92
17, 381000, Note_off_c, 13, 57, 64
17, 381000, Note_on_c, 13, 58, 92
17, 381115, Note_off_c, 13, 58, 64
17, 381120, Note_on_c, 13, 55, 92
17, 381520, Note_off_c, 13, 55, 64
17, 381720, Note_on_c, 13, 60, 92
17, 381840, Note_off_c, 13, 60, 64
17, 381840, Note_on_c, 13, 58, 92
17, 381960, Note_off_c, 13, 58, 64
17, 381960, Note_on_c, 13, 60, 92
17, 382075, Note_off_c, 13, 60, 64
17, 382080, Note_on_c, 13, 57, 92
17, 382200, Note_off_c, 13, 57, 64
17, 382200, Note_on_c, 13, 58, 92
17, 382320, Note_off_c, 13, 58, 64
17, 382320, Note_on_c, 13, 57, 92
17, 382440, Note_off_c, 13, 57, 64
17, 382440, Note_on_c, 13, 58, 92
17, 382555, Note_off_c, 13, 58, 64
17, 382560, Note_on_c, 13, 55, 92
17, 382960, Note_off_c, 13, 55, 64
17, 383160, Note_on_c, 13, 57, 92
17, 383280, Note_off_c, 13, 57, 64
17, 383280, Note_on_c, 13, 55, 92
17, 383400, Note_off_c, 13, 55, 64
17, 383400, Note_on_c, 13, 57, 92
17, 383520, Note_off_c, 13, 57, 64
17, 383520, Note_on_c, 13, 54, 92
17, 383755, Note_off_c, 13, 54, 64
17, 383760, Note_on_c, 13, 55, 92
17, 384240, Note_off_c, 13, 55, 64
17, 384240, Note_on_c, 13, 54, 92
17, 384475, Note_off_c, 13, 54, 64
17, 384480, Note_on_c, 13, 55, 92
17, 384880, Note_off_c, 13, 55, 64
17, 385920, Note_on_c, 13, 48, 92
17, 386040, Note_off_c, 13, 48, 64
17, 386040, Note_on_c, 13, 51, 92
17, 386160, Note_off_c, 13, 51, 64
17, 386160, Note_on_c, 13, 50, 92
17, 386280, Note_off_c, 13, 50, 64
17, 386280, Note_on_c, 13, 53, 92
17, 386395, Note_off_c, 13, 53, 64
17, 386400, Note_on_c, 13, 51, 92
17, 386520, Note_off_c, 13, 51, 64
17, 386520, Note_on_c, 13, 55, 92
17, 386640, Note_off_c, 13, 55, 64
17, 386640, Note_on_c, 13, 53, 92
17, 386760, Note_off_c, 13, 53, 64
17, 386760, Note_on_c, 13, 56, 92
17, 386875, Note_off_c, 13, 56, 64
17, 386880, Note_on_c, 13, 55, 92
17, 387000, Note_off_c, 13, 55, 64
17, 387000, Note_on_c, 13, 58, 92
17, 387120, Note_off_c, 13, 58, 64
17, 387120, Note_on_c, 13, 56, 92
17, 387240, Note_off_c, 13, 56, 64
17, 387240, Note_on_c, 13, 55, 92
17, 387355, Note_off_c, 13, 55, 64
17, 387360, Note_on_c, 13, 53, 92
17, 387390, Note_off_c, 13, 53, 64
17, 387390, Note_on_c, 13, 55, 92
17, 387420, Note_off_c, 13, 55, 64
17, 387420, Note_on_c, 13, 53, 92
17, 387450, Note_off_c, 13, 53, 64
17, 387450, Note_on_c, 13, 55, 92
17, 387480, Note_off_c, 13, 55, 64
17, 387480, Note_on_c, 13, 53, 92
17, 387510, Note_off_c, 13, 53, 64
17, 387510, Note_on_c, 13, 55, 92
17, 387540, Note_off_c, 13, 55, 64
17, 387540, Note_on_c, 13, 53, 92
17, 387570, Note_off_c, 13, 53, 64
17, 387570, Note_on_c, 13, 55, 92
17, 387600, Note_off_c, 13, 55, 64
17, 387600, Note_on_c, 13, 53, 92
17, 387630, Note_off_c, 13, 53, 64
17, 387630, Note_on_c, 13, 55, 92
17, 387660, Note_off_c, 13, 55, 64
17, 387660, Note_on_c, 13, 53, 92
17, 387690, Note_off_c, 13, 53, 64
17, 387690, Note_on_c, 13, 55, 92
17, 387720, Note_off_c, 13, 55, 64
17, 387720, Note_on_c, 13, 53, 92
17, 387750, Note_off_c, 13, 53, 64
17, 387750, Note_on_c, 13, 55, 92
17, 387780, Note_off_c, 13, 55, 64
17, 387780, Note_on_c, 13, 53, 92
17, 387810, Note_off_c, 13, 53, 64
17, 387810, Note_on_c, 13, 55, 92
17, 387840, Note_off_c, 13, 55, 64
17, 387840, Note_on_c, 13, 53, 92
17, 387870, Note_off_c, 13, 53, 64
17, 387870, Note_on_c, 13, 55, 92
17, 387900, Note_off_c, 13, 55, 64
17, 387900, Note_on_c, 13, 53, 92
17, 387930, Note_off_c, 13, 53, 64
17, 387930, Note_on_c, 13, 55, 92
17, 387960, Note_off_c, 13, 55, 64
17, 387960, Note_on_c, 13, 53, 92
17, 387990, Note_off_c, 13, 53, 64
17, 387990, Note_on_c, 13, 55, 92
17, 388020, Note_off_c, 13, 55, 64
17, 388020, Note_on_c, 13, 53, 92
17, 388050, Note_off_c, 13, 53, 64
17, 388050, Note_on_c, 13, 55, 92
17, 388080, Note_off_c, 13, 55, 64
17, 388080, Note_on_c, 13, 53, 92
17, 388110, Note_off_c, 13, 53, 64
17, 388110, Note_on_c, 13, 55, 92
17, 388140, Note_off_c, 13, 55, 64
17, 388140, Note_on_c, 13, 53, 92
17, 388170, Note_off_c, 13, 53, 64
17, 388170, Note_on_c, 13, 55, 92
17, 388200, Note_off_c, 13, 55, 64
17, 388200, Note_on_c, 13, 53, 92
17, 388230, Note_off_c, 13, 53, 64
17, 388230, Note_on_c, 13, 55, 92
17, 388260, Note_off_c, 13, 55, 64
17, 388260, Note_on_c, 13, 53, 92
17, 388290, Note_off_c, 13, 53, 64
17, 388290, Note_on_c, 13, 55, 92
17, 388315, Note_off_c, 13, 55, 64
17, 388320, Note_on_c, 13, 53, 92
17, 388350, Note_off_c, 13, 53, 64
17, 388350, Note_on_c, 13, 55, 92
17, 388380, Note_off_c, 13, 55, 64
17, 388380, Note_on_c, 13, 53, 92
17, 388410, Note_off_c, 13, 53, 64
17, 388410, Note_on_c, 13, 55, 92
17, 388440, Note_off_c, 13, 55, 64
17, 388440, Note_on_c, 13, 53, 92
17, 388470, Note_off_c, 13, 53, 64
17, 388470, Note_on_c, 13, 55, 92
17, 388500, Note_off_c, 13, 55, 64
17, 388500, Note_on_c, 13, 53, 92
17, 388530, Note_off_c, 13, 53, 64
17, 388530, Note_on_c, 13, 55, 92
17, 388560, Note_off_c, 13, 55, 64
17, 388560, Note_on_c, 13, 53, 92
17, 388590, Note_off_c, 13, 53, 64
17, 388590, Note_on_c, 13, 55, 92
17, 388620, Note_off_c, 13, 55, 64
17, 388620, Note_on_c, 13, 53, 92
17, 388650, Note_off_c, 13, 53, 64
17, 388650, Note_on_c, 13, 55, 92
17, 388680, Note_off_c, 13, 55, 64
17, 388680, Note_on_c, 13, 53, 92
17, 388710, Note_off_c, 13, 53, 64
17, 388710, Note_on_c, 13, 55, 92
17, 388740, Note_off_c, 13, 55, 64
17, 388740, Note_on_c, 13, 53, 92
17, 388770, Note_off_c, 13, 53, 64
17, 388770, Note_on_c, 13, 55, 92
17, 388795, Note_off_c, 13, 55, 64
17, 388800, Note_on_c, 13, 53, 92
17, 388830, Note_off_c, 13, 53, 64
17, 388830, Note_on_c, 13, 55, 92
17, 388860, Note_off_c, 13, 55, 64
17, 388860, Note_on_c, 13, 53, 92
17, 388890, Note_off_c, 13, 53, 64
17, 388890, Note_on_c, 13, 55, 92
17, 388920, Note_off_c, 13, 55, 64
17, 388920, Note_on_c, 13, 53, 92
17, 388950, Note_off_c, 13, 53, 64
17, 388950, Note_on_c, 13, 55, 92
17, 388980, Note_off_c, 13, 55, 64
17, 388980, Note_on_c, 13, 53, 92
17, 389010, Note_off_c, 13, 53, 64
17, 389010, Note_on_c, 13, 55, 92
17, 389040, Note_off_c, 13, 55, 64
17, 389040, Note_on_c, 13, 53, 92
17, 389070, Note_off_c, 13, 53, 64
17, 389070, Note_on_c, 13, 55, 92
17, 389100, Note_off_c, 13, 55, 64
17, 389100, Note_on_c, 13, 53, 92
17, 389130, Note_off_c, 13, 53, 64
17, 389130, Note_on_c, 13, 55, 92
17, 389160, Note_off_c, 13, 55, 64
17, 389160, Note_on_c, 13, 53, 92
17, 389190, Note_off_c, 13, 53, 64
17, 389190, Note_on_c, 13, 55, 92
17, 389220, Note_off_c, 13, 55, 64
17, 389220, Note_on_c, 13, 53, 92
17, 389250, Note_off_c, 13, 53, 64
17, 389250, Note_on_c, 13, 55, 92
17, 389275, Note_off_c, 13, 55, 64
17, 389280, Note_on_c, 13, 53, 92
17, 389310, Note_off_c, 13, 53, 64
17, 389310, Note_on_c, 13, 55, 92
17, 389340, Note_off_c, 13, 55, 64
17, 389340, Note_on_c, 13, 53, 92
17, 389370, Note_off_c, 13, 53, 64
17, 389370, Note_on_c, 13, 55, 92
17, 389400, Note_off_c, 13, 55, 64
17, 389400, Note_on_c, 13, 53, 92
17, 389430, Note_off_c, 13, 53, 64
17, 389430, Note_on_c, 13, 55, 92
17, 389460, Note_off_c, 13, 55, 64
17, 389460, Note_on_c, 13, 53, 92
17, 389490, Note_off_c, 13, 53, 64
17, 389490, Note_on_c, 13, 55, 92
17, 389520, Note_off_c, 13, 55, 64
17, 389520, Note_on_c, 13, 53, 92
17, 389550, Note_off_c, 13, 53, 64
17, 389550, Note_on_c, 13, 55, 92
17, 389580, Note_off_c, 13, 55, 64
17, 389580, Note_on_c, 13, 53, 92
17, 389610, Note_off_c, 13, 53, 64
17, 389610, Note_on_c, 13, 55, 92
17, 389640, Note_off_c, 13, 55, 64
17, 389640, Note_on_c, 13, 53, 92
17, 389670, Note_off_c, 13, 53, 64
17, 389670, Note_on_c, 13, 55, 92
17, 389700, Note_off_c, 13, 55, 64
17, 389700, Note_on_c, 13, 53, 92
17, 389730, Note_off_c, 13, 53, 64
17, 389730, Note_on_c, 13, 55, 92
17, 389755, Note_off_c, 13, 55, 64
17, 389760, Note_on_c, 13, 53, 92
17, 389790, Note_off_c, 13, 53, 64
17, 389790, Note_on_c, 13, 55, 92
17, 389820, Note_off_c, 13, 55, 64
17, 389820, Note_on_c, 13, 53, 92
17, 389850, Note_off_c, 13, 53, 64
17, 389850, Note_on_c, 13, 55, 92
17, 389880, Note_off_c, 13, 55, 64
17, 389880, Note_on_c, 13, 53, 92
17, 389910, Note_off_c, 13, 53, 64
17, 389910, Note_on_c, 13, 55, 92
17, 389940, Note_off_c, 13, 55, 64
17, 389940, Note_on_c, 13, 53, 92
17, 389970, Note_off_c, 13, 53, 64
17, 389970, Note_on_c, 13, 55, 92
17, 390000, Note_off_c, 13, 55, 64
17, 390000, Note_on_c, 13, 53, 92
17, 390030, Note_off_c, 13, 53, 64
17, 390030, Note_on_c, 13, 55, 92
17, 390060, Note_off_c, 13, 55, 64
17, 390060, Note_on_c, 13, 53, 92
17, 390090, Note_off_c, 13, 53, 64
17, 390090, Note_on_c, 13, 55, 92
17, 390120, Note_off_c, 13, 55, 64
17, 390120, Note_on_c, 13, 53, 92
17, 390150, Note_off_c, 13, 53, 64
17, 390150, Note_on_c, 13, 55, 92
17, 390180, Note_off_c, 13, 55, 64
17, 390180, Note_on_c, 13, 53, 92
17, 390210, Note_off_c, 13, 53, 64
17, 390210, Note_on_c, 13, 55, 92
17, 390235, Note_off_c, 13, 55, 64
17, 390240, Note_on_c, 13, 53, 92
17, 390270, Note_off_c, 13, 53, 64
17, 390270, Note_on_c, 13, 55, 92
17, 390300, Note_off_c, 13, 55, 64
17, 390300, Note_on_c, 13, 53, 92
17, 390330, Note_off_c, 13, 53, 64
17, 390330, Note_on_c, 13, 55, 92
17, 390360, Note_off_c, 13, 55, 64
17, 390360, Note_on_c, 13, 53, 92
17, 390390, Note_off_c, 13, 53, 64
17, 390390, Note_on_c, 13, 55, 92
17, 390420, Note_off_c, 13, 55, 64
17, 390420, Note_on_c, 13, 53, 92
17, 390450, Note_off_c, 13, 53, 64
17, 390450, Note_on_c, 13, 55, 92
17, 390480, Note_off_c, 13, 55, 64
17, 390480, Note_on_c, 13, 53, 92
17, 390510, Note_off_c, 13, 53, 64
17, 390510, Note_on_c, 13, 55, 92
17, 390540, Note_off_c, 13, 55, 64
17, 390540, Note_on_c, 13, 53, 92
17, 390570, Note_off_c, 13, 53, 64
17, 390570, Note_on_c, 13, 55, 92
17, 390600, Note_off_c, 13, 55, 64
17, 390600, Note_on_c, 13, 53, 92
17, 390630, Note_off_c, 13, 53, 64
17, 390630, Note_on_c, 13, 55, 92
17, 390660, Note_off_c, 13, 55, 64
17, 390660, Note_on_c, 13, 53, 92
17, 390690, Note_off_c, 13, 53, 64
17, 390690, Note_on_c, 13, 55, 92
17, 390715, Note_off_c, 13, 55, 64
17, 390720, Note_on_c, 13, 53, 92
17, 390750, Note_off_c, 13, 53, 64
17, 390750, Note_on_c, 13, 55, 92
17, 390780, Note_off_c, 13, 55, 64
17, 390780, Note_on_c, 13, 53, 92
17, 390810, Note_off_c, 13, 53, 64
17, 390810, Note_on_c, 13, 55, 92
17, 390840, Note_off_c, 13, 55, 64
17, 390840, Note_on_c, 13, 53, 92
17, 390870, Note_off_c, 13, 53, 64
17, 390870, Note_on_c, 13, 55, 92
17, 390900, Note_off_c, 13, 55, 64
17, 390900, Note_on_c, 13, 53, 92
17, 390930, Note_off_c, 13, 53, 64
17, 390930, Note_on_c, 13, 55, 92
17, 390960, Note_off_c, 13, 55, 64
17, 390960, Note_on_c, 13, 53, 92
17, 390990, Note_off_c, 13, 53, 64
17, 390990, Note_on_c, 13, 55, 92
17, 391020, Note_off_c, 13, 55, 64
17, 391020, Note_on_c, 13, 53, 92
17, 391050, Note_off_c, 13, 53, 64
17, 391050, Note_on_c, 13, 55, 92
17, 391080, Note_off_c, 13, 55, 64
17, 391080, Note_on_c, 13, 53, 92
17, 391110, Note_off_c, 13, 53, 64
17, 391110, Note_on_c, 13, 55, 92
17, 391140, Note_off_c, 13, 55, 64
17, 391140, Note_on_c, 13, 53, 92
17, 391170, Note_off_c, 13, 53, 64
17, 391170, Note_on_c, 13, 55, 92
17, 391195, Note_off_c, 13, 55, 64
17, 391200, Note_on_c, 13, 53, 92
17, 391600, Note_off_c, 13, 53, 64
17, 391680, Note_on_c, 13, 51, 92
17, 392080, Note_off_c, 13, 51, 64
17, 392160, Note_on_c, 13, 63, 92
17, 392560, Note_off_c, 13, 63, 64
17, 392640, Note_on_c, 13, 53, 92
17, 392670, Note_off_c, 13, 53, 64
17, 392670, Note_on_c, 13, 55, 92
17, 392700, Note_off_c, 13, 55, 64
17, 392700, Note_on_c, 13, 53, 92
17, 392730, Note_off_c, 13, 53, 64
17, 392730, Note_on_c, 13, 55, 92
17, 392760, Note_off_c, 13, 55, 64
17, 392760, Note_on_c, 13, 53, 92
17, 392790, Note_off_c, 13, 53, 64
17, 392790, Note_on_c, 13, 55, 92
17, 392820, Note_off_c, 13, 55, 64
17, 392820, Note_on_c, 13, 53, 92
17, 392850, Note_off_c, 13, 53, 64
17, 392850, Note_on_c, 13, 55, 92
17, 392880, Note_off_c, 13, 55, 64
17, 392880, Note_on_c, 13, 53, 92
17, 392910, Note_off_c, 13, 53, 64
17, 392910, Note_on_c, 13, 55, 92
17, 392940, Note_off_c, 13, 55, 64
17, 392940, Note_on_c, 13, 53, 92
17, 392970, Note_off_c, 13, 53, 64
17, 392970, Note_on_c, 13, 55, 92
17, 393000, Note_off_c, 13, 55, 64
17, 393000, Note_on_c, 13, 53, 92
17, 393030, Note_off_c, 13, 53, 64
17, 393030, Note_on_c, 13, 55, 92
17, 393060, Note_off_c, 13, 55, 64
17, 393060, Note_on_c, 13, 53, 92
17, 393090, Note_off_c, 13, 53, 64
17, 393090, Note_on_c, 13, 55, 92
17, 393115, Note_off_c, 13, 55, 64
17, 393120, Note_on_c, 13, 63, 92
17, 393300, Note_off_c, 13, 63, 64
17, 393300, Note_on_c, 13, 62, 92
17, 393360, Note_off_c, 13, 62, 64
17, 393360, Note_on_c, 13, 60, 92
17, 393420, Note_off_c, 13, 60, 64
17, 393420, Note_on_c, 13, 59, 92
17, 393480, Note_off_c, 13, 59, 64
17, 393480, Note_on_c, 13, 62, 92
17, 393540, Note_off_c, 13, 62, 64
17, 393540, Note_on_c, 13, 60, 92
17, 393595, Note_off_c, 13, 60, 64
17, 393600, Note_on_c, 13, 63, 92
17, 393660, Note_off_c, 13, 63, 64
17, 393660, Note_on_c, 13, 62, 92
17, 393720, Note_off_c, 13, 62, 64
17, 393720, Note_on_c, 13, 63, 92
17, 393780, Note_off_c, 13, 63, 64
17, 393780, Note_on_c, 13, 62, 92
17, 393840, Note_off_c, 13, 62, 64
17, 393840, Note_on_c, 13, 63, 92
17, 393900, Note_off_c, 13, 63, 64
17, 393900, Note_on_c, 13, 60, 92
17, 393960, Note_off_c, 13, 60, 64
17, 393960, Note_on_c, 13, 58, 92
17, 394075, Note_off_c, 13, 58, 64
17, 394080, Note_on_c, 13, 58, 92
17, 394480, Note_off_c, 13, 58, 64
17, 394560, Note_on_c, 13, 60, 92
17, 394960, Note_off_c, 13, 60, 64
17, 395040, Note_on_c, 13, 65, 92
17, 395160, Note_off_c, 13, 65, 64
17, 395160, Note_on_c, 13, 67, 92
17, 395280, Note_off_c, 13, 67, 64
17, 395280, Note_on_c, 13, 65, 92
17, 395400, Note_off_c, 13, 65, 64
17, 395400, Note_on_c, 13, 63, 92
17, 395515, Note_off_c, 13, 63, 64
17, 395520, Note_on_c, 13, 62, 92
17, 395755, Note_off_c, 13, 62, 64
17, 395760, Note_on_c, 13, 60, 92
17, 396115, Note_off_c, 13, 60, 64
17, 396120, Note_on_c, 13, 59, 92
17, 396235, Note_off_c, 13, 59, 64
17, 396240, Note_on_c, 13, 60, 92
17, 396595, Note_off_c, 13, 60, 64
17, 396600, Note_on_c, 13, 59, 92
17, 396720, Note_off_c, 13, 59, 64
17, 396720, Note_on_c, 13, 60, 92
17, 396840, Note_off_c, 13, 60, 64
17, 396840, Note_on_c, 13, 62, 92
17, 396955, Note_off_c, 13, 62, 64
17, 396960, Note_on_c, 13, 63, 92
17, 397080, Note_off_c, 13, 63, 64
17, 397080, Note_on_c, 13, 67, 92
17, 397200, Note_off_c, 13, 67, 64
17, 397200, Note_on_c, 13, 65, 92
17, 397320, Note_off_c, 13, 65, 64
17, 397320, Note_on_c, 13, 63, 92
17, 397435, Note_off_c, 13, 63, 64
17, 397440, Note_on_c, 13, 62, 92
17, 397840, Note_off_c, 13, 62, 64
17, 397920, Note_on_c, 13, 67, 127
17, 398155, Note_off_c, 13, 67, 64
17, 398160, Note_on_c, 13, 67, 127
17, 398395, Note_off_c, 13, 67, 64
17, 398400, Note_on_c, 13, 63, 127
17, 398635, Note_off_c, 13, 63, 64
17, 398640, Note_on_c, 13, 63, 127
17, 398875, Note_off_c, 13, 63, 64
17, 398880, Note_on_c, 13, 60, 127
17, 399280, Note_off_c, 13, 60, 64
17, 399360, Note_on_c, 13, 65, 127
17, 399595, Note_off_c, 13, 65, 64
17, 399600, Note_on_c, 13, 65, 127
17, 399835, Note_off_c, 13, 65, 64
17, 399840, Note_on_c, 13, 62, 127
17, 400075, Note_off_c, 13, 62, 64
17, 400080, Note_on_c, 13, 62, 127
17, 400315, Note_off_c, 13, 62, 64
17, 400320, Note_on_c, 13, 59, 127
17, 400720, Note_off_c, 13, 59, 64
17, 400800, Note_on_c, 13, 63, 127
17, 401035, Note_off_c, 13, 63, 64
17, 401040, Note_on_c, 13, 63, 127
17, 401275, Note_off_c, 13, 63, 64
17, 401280, Note_on_c, 13, 60, 127
17, 401515, Note_off_c, 13, 60, 64
17, 401520, Note_on_c, 13, 60, 127
17, 401755, Note_off_c, 13, 60, 64
17, 401760, Note_on_c, 13, 57, 127
17, 402160, Note_off_c, 13, 57, 64
17, 402240, Note_on_c, 13, 62, 127
17, 402475, Note_off_c, 13, 62, 64
17, 402480, Note_on_c, 13, 62, 127
17, 402715, Note_off_c, 13, 62, 64
17, 402720, Note_on_c, 13, 59, 127
17, 402955, Note_off_c, 13, 59, 64
17, 402960, Note_on_c, 13, 59, 127
17, 403195, Note_off_c, 13, 59, 64
17, 403200, Note_on_c, 13, 55, 127
17, 403600, Note_off_c, 13, 55, 64
17, 403680, Note_on_c, 13, 60, 127
17, 403915, Note_off_c, 13, 60, 64
17, 403920, Note_on_c, 13, 60, 127
17, 404155, Note_off_c, 13, 60, 64
17, 404160, Note_on_c, 13, 56, 127
17, 404395, Note_off_c, 13, 56, 64
17, 404400, Note_on_c, 13, 56, 127
17, 404635, Note_off_c, 13, 56, 64
17, 404640, Note_on_c, 13, 50, 127
17, 405040, Note_off_c, 13, 50, 64
17, 405360, Note_on_c, 13, 55, 92
17, 405595, Note_off_c, 13, 55, 64
17, 405600, Note_on_c, 13, 55, 92
17, 405835, Note_off_c, 13, 55, 64
17, 405840, Note_on_c, 13, 55, 92
17, 406075, Note_off_c, 13, 55, 64
17, 406080, Note_on_c, 13, 55, 92
17, 406480, Note_off_c, 13, 55, 64
17, 406800, Note_on_c, 13, 55, 92
17, 407035, Note_off_c, 13, 55, 64
17, 407040, Note_on_c, 13, 55, 92
17, 407275, Note_off_c, 13, 55, 64
17, 407280, Note_on_c, 13, 55, 92
17, 407515, Note_off_c, 13, 55, 64
17, 407520, Note_on_c, 13, 55, 92
17, 407920, Note_off_c, 13, 55, 64
17, 408240, Note_on_c, 13, 59, 92
17, 408475, Note_off_c, 13, 59, 64
17, 408480, Note_on_c, 13, 60, 92
17, 408715, Note_off_c, 13, 60, 64
17, 408720, Note_on_c, 13, 60, 92
17, 408955, Note_off_c, 13, 60, 64
17, 408960, Note_on_c, 13, 59, 92
17, 409360, Note_off_c, 13, 59, 64
17, 409680, Note_on_c, 13, 59, 92
17, 409915, Note_off_c, 13, 59, 64
17, 409920, Note_on_c, 13, 60, 92
17, 410155, Note_off_c, 13, 60, 64
17, 410160, Note_on_c, 13, 63, 92
17, 410395, Note_off_c, 13, 63, 64
17, 410400, Note_on_c, 13, 61, 92
17, 410800, Note_off_c, 13, 61, 64
17, 411120, Note_on_c, 13, 62, 92
17, 411355, Note_off_c, 13, 62, 64
17, 411360, Note_on_c, 13, 63, 92
17, 411760, Note_off_c, 13, 63, 64
17, 411840, Note_on_c, 13, 60, 92
17, 412680, Note_off_c, 13, 60, 64
17, 412800, Note_on_c, 13, 59, 92
17, 413200, Note_off_c, 13, 59, 64
17, 413280, Note_on_c, 13, 60, 98
17, 413520, Note_off_c, 13, 60, 64
17, 413520, Note_on_c, 13, 62, 101
17, 413760, Note_off_c, 13, 62, 64
17, 413760, Note_on_c, 13, 64, 104
17, 414000, Note_off_c, 13, 64, 64
17, 414000, Note_on_c, 13, 67, 108
17, 414240, Note_off_c, 13, 67, 64
17, 414240, Note_on_c, 13, 65, 108
17, 414480, Note_off_c, 13, 65, 64
17, 414480, Note_on_c, 13, 65, 108
17, 414720, Note_off_c, 13, 65, 64
17, 414720, Note_on_c, 13, 67, 108
17, 415200, Note_off_c, 13, 67, 64
17, 415440, Note_on_c, 13, 60, 108
17, 415680, Note_off_c, 13, 60, 64
17, 415680, Note_on_c, 13, 60, 108
17, 415920, Note_off_c, 13, 60, 64
17, 415920, Note_on_c, 13, 60, 108
17, 416160, Note_off_c, 13, 60, 64
17, 416160, Note_on_c, 13, 60, 108
17, 416640, Note_off_c, 13, 60, 64
17, 416880, Note_on_c, 13, 64, 108
17, 417120, Note_off_c, 13, 64, 64
17, 417120, Note_on_c, 13, 65, 108
17, 417360, Note_off_c, 13, 65, 64
17, 417360, Note_on_c, 13, 65, 108
17, 417600, Note_off_c, 13, 65, 64
17, 417600, Note_on_c, 13, 64, 108
17, 418080, Note_off_c, 13, 64, 64
17, 418200, Note_on_c, 13, 64, 127
17, 418315, Note_off_c, 13, 64, 64
17, 418320, Note_on_c, 13, 62, 127
17, 418435, Note_off_c, 13, 62, 64
17, 418440, Note_on_c, 13, 64, 127
17, 418555, Note_off_c, 13, 64, 64
17, 418560, Note_on_c, 13, 60, 127
17, 418795, Note_off_c, 13, 60, 64
17, 418800, Note_on_c, 13, 65, 108
17, 419040, Note_off_c, 13, 65, 64
17, 419040, Note_on_c, 13, 56, 108
17, 419440, Note_off_c, 13, 56, 64
17, 419640, Note_on_c, 13, 56, 108
17, 419760, Note_off_c, 13, 56, 64
17, 419760, Note_on_c, 13, 55, 108
17, 419880, Note_off_c, 13, 55, 64
17, 419880, Note_on_c, 13, 56, 108
17, 420355, Note_off_c, 13, 56, 64
17, 420360, Note_on_c, 13, 59, 108
17, 420480, Note_off_c, 13, 59, 64
17, 420480, Note_on_c, 13, 55, 108
17, 420480, Note_on_c, 13, 48, 108
17, 421800, Note_off_c, 13, 48, 64
17, 421800, Note_off_c, 13, 55, 64
17, 421800, End_track
18, 0, Start_track
18, 0, MIDI_port, 0
18, 0, Channel_prefix, 14
18, 0, Control_c, 14, 7, 127
18, 0, Control_c, 14, 10, 96
18, 0, Control_c, 14, 91, 127
18, 0, Program_c, 14, 48
18, 960, Note_on_c, 14, 48, 30
18, 1440, Note_off_c, 14, 48, 64
18, 1440, Note_on_c, 14, 55, 30
18, 2400, Note_off_c, 14, 55, 64
18, 2400, Note_on_c, 14, 51, 30
18, 2880, Note_off_c, 14, 51, 64
18, 2880, Note_on_c, 14, 53, 30
18, 3840, Note_off_c, 14, 53, 64
18, 3840, Note_on_c, 14, 55, 30
18, 4320, Note_off_c, 14, 55, 64
18, 4320, Note_on_c, 14, 56, 30
18, 5280, Note_off_c, 14, 56, 64
18, 5280, Note_on_c, 14, 53, 30
18, 5760, Note_off_c, 14, 53, 64
18, 5760, Note_on_c, 14, 55, 30
18, 6720, Note_off_c, 14, 55, 64
18, 6720, Note_on_c, 14, 50, 30
18, 7200, Note_off_c, 14, 50, 64
18, 7200, Note_on_c, 14, 51, 30
18, 8160, Note_off_c, 14, 51, 64
18, 8160, Note_on_c, 14, 47, 30
18, 8640, Note_off_c, 14, 47, 64
18, 8640, Note_on_c, 14, 48, 30
18, 9600, Note_off_c, 14, 48, 64
18, 9600, Note_on_c, 14, 41, 30
18, 10080, Note_off_c, 14, 41, 64
18, 10080, Note_on_c, 14, 43, 30
18, 11520, Note_off_c, 14, 43, 64
18, 11520, Note_on_c, 14, 36, 30
18, 12480, Note_off_c, 14, 36, 64
18, 12480, Note_on_c, 14, 48, 30
18, 12960, Note_off_c, 14, 48, 64
18, 12960, Note_on_c, 14, 55, 30
18, 13920, Note_off_c, 14, 55, 64
18, 13920, Note_on_c, 14, 51, 30
18, 14400, Note_off_c, 14, 51, 64
18, 14400, Note_on_c, 14, 53, 30
18, 15360, Note_off_c, 14, 53, 64
18, 15360, Note_on_c, 14, 55, 30
18, 15840, Note_off_c, 14, 55, 64
18, 15840, Note_on_c, 14, 56, 30
18, 16800, Note_off_c, 14, 56, 64
18, 16800, Note_on_c, 14, 53, 30
18, 17280, Note_off_c, 14, 53, 64
18, 17280, Note_on_c, 14, 55, 30
18, 18240, Note_off_c, 14, 55, 64
18, 18240, Note_on_c, 14, 50, 30
18, 18720, Note_off_c, 14, 50, 64
18, 18720, Note_on_c, 14, 51, 30
18, 19680, Note_off_c, 14, 51, 64
18, 19680, Note_on_c, 14, 47, 30
18, 20160, Note_off_c, 14, 47, 64
18, 20160, Note_on_c, 14, 48, 30
18, 21120, Note_off_c, 14, 48, 64
18, 21120, Note_on_c, 14, 41, 30
18, 21600, Note_off_c, 14, 41, 64
18, 21600, Note_on_c, 14, 43, 30
18, 23040, Note_off_c, 14, 43, 64
18, 23040, Note_on_c, 14, 36, 30
18, 24000, Note_off_c, 14, 36, 64
18, 24000, Note_on_c, 14, 48, 30
18, 24480, Note_off_c, 14, 48, 64
18, 24480, Note_on_c, 14, 55, 30
18, 25440, Note_off_c, 14, 55, 64
18, 25440, Note_on_c, 14, 51, 30
18, 25920, Note_off_c, 14, 51, 64
18, 25920, Note_on_c, 14, 53, 30
18, 26880, Note_off_c, 14, 53, 64
18, 26880, Note_on_c, 14, 55, 30
18, 27360, Note_off_c, 14, 55, 64
18, 27360, Note_on_c, 14, 56, 30
18, 28320, Note_off_c, 14, 56, 64
18, 28320, Note_on_c, 14, 53, 30
18, 28800, Note_off_c, 14, 53, 64
18, 28800, Note_on_c, 14, 55, 30
18, 29760, Note_off_c, 14, 55, 64
18, 29760, Note_on_c, 14, 50, 30
18, 30240, Note_off_c, 14, 50, 64
18, 30240, Note_on_c, 14, 51, 30
18, 31200, Note_off_c, 14, 51, 64
18, 31200, Note_on_c, 14, 47, 30
18, 31680, Note_off_c, 14, 47, 64
18, 31680, Note_on_c, 14, 48, 30
18, 32640, Note_off_c, 14, 48, 64
18, 32640, Note_on_c, 14, 41, 30
18, 33120, Note_off_c, 14, 41, 64
18, 33120, Note_on_c, 14, 43, 32
18, 34560, Note_off_c, 14, 43, 64
18, 34560, Note_on_c, 14, 36, 39
18, 35400, Note_off_c, 14, 36, 64
18, 35520, Note_on_c, 14, 48, 45
18, 35920, Note_off_c, 14, 48, 64
18, 36000, Note_on_c, 14, 55, 45
18, 36840, Note_off_c, 14, 55, 64
18, 36960, Note_on_c, 14, 51, 45
18, 37360, Note_off_c, 14, 51, 64
18, 37440, Note_on_c, 14, 53, 45
18, 38280, Note_off_c, 14, 53, 64
18, 38400, Note_on_c, 14, 55, 45
18, 38800, Note_off_c, 14, 55, 64
18, 38880, Note_on_c, 14, 56, 45
18, 39720, Note_off_c, 14, 56, 64
18, 39840, Note_on_c, 14, 53, 45
18, 40240, Note_off_c, 14, 53, 64
18, 40320, Note_on_c, 14, 55, 45
18, 41160, Note_off_c, 14, 55, 64
18, 41280, Note_on_c, 14, 50, 45
18, 41680, Note_off_c, 14, 50, 64
18, 41760, Note_on_c, 14, 51, 45
18, 42600, Note_off_c, 14, 51, 64
18, 42720, Note_on_c, 14, 47, 45
18, 43120, Note_off_c, 14, 47, 64
18, 43200, Note_on_c, 14, 48, 45
18, 44040, Note_off_c, 14, 48, 64
18, 44160, Note_on_c, 14, 41, 45
18, 44560, Note_off_c, 14, 41, 64
18, 44640, Note_on_c, 14, 43, 45
18, 45960, Note_off_c, 14, 43, 64
18, 46080, Note_on_c, 14, 36, 45
18, 46920, Note_off_c, 14, 36, 64
18, 47040, Note_on_c, 14, 48, 45
18, 47440, Note_off_c, 14, 48, 64
18, 47520, Note_on_c, 14, 55, 45
18, 48360, Note_off_c, 14, 55, 64
18, 48480, Note_on_c, 14, 51, 45
18, 48880, Note_off_c, 14, 51, 64
18, 48960, Note_on_c, 14, 53, 45
18, 49800, Note_off_c, 14, 53, 64
18, 49920, Note_on_c, 14, 55, 45
18, 50320, Note_off_c, 14, 55, 64
18, 50400, Note_on_c, 14, 56, 45
18, 51240, Note_off_c, 14, 56, 64
18, 51360, Note_on_c, 14, 53, 45
18, 51760, Note_off_c, 14, 53, 64
18, 51840, Note_on_c, 14, 55, 45
18, 52680, Note_off_c, 14, 55, 64
18, 52800, Note_on_c, 14, 50, 45
18, 53200, Note_off_c, 14, 50, 64
18, 53280, Note_on_c, 14, 51, 45
18, 54120, Note_off_c, 14, 51, 64
18, 54240, Note_on_c, 14, 47, 45
18, 54640, Note_off_c, 14, 47, 64
18, 54720, Note_on_c, 14, 48, 45
18, 55560, Note_off_c, 14, 48, 64
18, 55680, Note_on_c, 14, 41, 45
18, 56080, Note_off_c, 14, 41, 64
18, 56160, Note_on_c, 14, 43, 45
18, 57480, Note_off_c, 14, 43, 64
18, 57600, Note_on_c, 14, 36, 54
18, 58440, Note_off_c, 14, 36, 64
18, 58800, Note_on_c, 14, 60, 60
18, 58920, Note_off_c, 14, 60, 64
18, 58920, Note_on_c, 14, 48, 60
18, 59035, Note_off_c, 14, 48, 64
18, 59040, Note_on_c, 14, 55, 60
18, 59440, Note_off_c, 14, 55, 64
18, 60240, Note_on_c, 14, 51, 60
18, 60360, Note_off_c, 14, 51, 64
18, 60360, Note_on_c, 14, 48, 60
18, 60475, Note_off_c, 14, 48, 64
18, 60480, Note_on_c, 14, 53, 60
18, 60880, Note_off_c, 14, 53, 64
18, 61680, Note_on_c, 14, 55, 60
18, 61800, Note_off_c, 14, 55, 64
18, 61800, Note_on_c, 14, 51, 60
18, 61915, Note_off_c, 14, 51, 64
18, 61920, Note_on_c, 14, 56, 60
18, 62320, Note_off_c, 14, 56, 64
18, 63120, Note_on_c, 14, 53, 60
18, 63240, Note_off_c, 14, 53, 64
18, 63240, Note_on_c, 14, 50, 60
18, 63355, Note_off_c, 14, 50, 64
18, 63360, Note_on_c, 14, 55, 60
18, 63760, Note_off_c, 14, 55, 64
18, 64560, Note_on_c, 14, 55, 60
18, 64680, Note_off_c, 14, 55, 64
18, 64680, Note_on_c, 14, 50, 60
18, 64795, Note_off_c, 14, 50, 64
18, 64800, Note_on_c, 14, 51, 60
18, 65200, Note_off_c, 14, 51, 64
18, 66000, Note_on_c, 14, 55, 60
18, 66120, Note_off_c, 14, 55, 64
18, 66120, Note_on_c, 14, 47, 60
18, 66235, Note_off_c, 14, 47, 64
18, 66240, Note_on_c, 14, 48, 60
18, 66640, Note_off_c, 14, 48, 64
18, 67440, Note_on_c, 14, 53, 60
18, 67560, Note_off_c, 14, 53, 64
18, 67560, Note_on_c, 14, 41, 60
18, 67675, Note_off_c, 14, 41, 64
18, 67680, Note_on_c, 14, 43, 60
18, 69000, Note_off_c, 14, 43, 64
18, 69120, Note_on_c, 14, 36, 60
18, 69960, Note_off_c, 14, 36, 64
18, 70080, Note_on_c, 14, 48, 60
18, 70480, Note_off_c, 14, 48, 64
18, 70560, Note_on_c, 14, 55, 60
18, 71400, Note_off_c, 14, 55, 64
18, 71520, Note_on_c, 14, 51, 60
18, 71920, Note_off_c, 14, 51, 64
18, 72000, Note_on_c, 14, 53, 60
18, 72840, Note_off_c, 14, 53, 64
18, 72960, Note_on_c, 14, 55, 60
18, 73360, Note_off_c, 14, 55, 64
18, 73440, Note_on_c, 14, 56, 60
18, 74280, Note_off_c, 14, 56, 64
18, 74400, Note_on_c, 14, 53, 60
18, 74800, Note_off_c, 14, 53, 64
18, 74880, Note_on_c, 14, 55, 60
18, 75720, Note_off_c, 14, 55, 64
18, 75840, Note_on_c, 14, 50, 60
18, 76240, Note_off_c, 14, 50, 64
18, 76320, Note_on_c, 14, 51, 60
18, 77160, Note_off_c, 14, 51, 64
18, 77280, Note_on_c, 14, 47, 60
18, 77680, Note_off_c, 14, 47, 64
18, 77760, Note_on_c, 14, 48, 60
18, 78600, Note_off_c, 14, 48, 64
18, 78720, Note_on_c, 14, 41, 60
18, 79120, Note_off_c, 14, 41, 64
18, 79200, Note_on_c, 14, 43, 60
18, 80520, Note_off_c, 14, 43, 64
18, 80640, Note_on_c, 14, 36, 60
18, 81480, Note_off_c, 14, 36, 64
18, 81600, Note_on_c, 14, 48, 60
18, 82000, Note_off_c, 14, 48, 64
18, 82080, Note_on_c, 14, 55, 60
18, 82920, Note_off_c, 14, 55, 64
18, 83040, Note_on_c, 14, 51, 60
18, 83440, Note_off_c, 14, 51, 64
18, 83520, Note_on_c, 14, 53, 60
18, 84360, Note_off_c, 14, 53, 64
18, 84480, Note_on_c, 14, 55, 60
18, 84880, Note_off_c, 14, 55, 64
18, 84960, Note_on_c, 14, 56, 60
18, 85800, Note_off_c, 14, 56, 64
18, 85920, Note_on_c, 14, 53, 60
18, 86320, Note_off_c, 14, 53, 64
18, 86400, Note_on_c, 14, 55, 60
18, 87240, Note_off_c, 14, 55, 64
18, 87360, Note_on_c, 14, 50, 60
18, 87760, Note_off_c, 14, 50, 64
18, 87840, Note_on_c, 14, 51, 60
18, 88680, Note_off_c, 14, 51, 64
18, 88800, Note_on_c, 14, 47, 60
18, 89200, Note_off_c, 14, 47, 64
18, 89280, Note_on_c, 14, 48, 60
18, 90120, Note_off_c, 14, 48, 64
18, 90240, Note_on_c, 14, 41, 60
18, 90640, Note_off_c, 14, 41, 64
18, 90720, Note_on_c, 14, 43, 60
18, 92040, Note_off_c, 14, 43, 64
18, 92160, Note_on_c, 14, 36, 60
18, 92395, Note_off_c, 14, 36, 64
18, 92400, Note_on_c, 14, 48, 60
18, 92520, Note_off_c, 14, 48, 64
18, 92520, Note_on_c, 14, 46, 60
18, 92635, Note_off_c, 14, 46, 64
18, 92640, Note_on_c, 14, 44, 60
18, 92760, Note_off_c, 14, 44, 64
18, 92760, Note_on_c, 14, 43, 60
18, 92880, Note_off_c, 14, 43, 64
18, 92880, Note_on_c, 14, 41, 60
18, 93000, Note_off_c, 14, 41, 64
18, 93000, Note_on_c, 14, 39, 60
18, 93115, Note_off_c, 14, 39, 64
18, 93120, Note_on_c, 14, 48, 60
18, 93520, Note_off_c, 14, 48, 64
18, 93600, Note_on_c, 14, 55, 60
18, 94440, Note_off_c, 14, 55, 64
18, 94560, Note_on_c, 14, 51, 60
18, 94960, Note_off_c, 14, 51, 64
18, 95040, Note_on_c, 14, 53, 60
18, 95880, Note_off_c, 14, 53, 64
18, 96000, Note_on_c, 14, 55, 60
18, 96400, Note_off_c, 14, 55, 64
18, 96480, Note_on_c, 14, 56, 60
18, 97320, Note_off_c, 14, 56, 64
18, 97440, Note_on_c, 14, 53, 60
18, 97840, Note_off_c, 14, 53, 64
18, 97920, Note_on_c, 14, 55, 60
18, 98760, Note_off_c, 14, 55, 64
18, 98880, Note_on_c, 14, 50, 60
18, 99280, Note_off_c, 14, 50, 64
18, 99360, Note_on_c, 14, 51, 60
18, 100200, Note_off_c, 14, 51, 64
18, 100320, Note_on_c, 14, 47, 60
18, 100720, Note_off_c, 14, 47, 64
18, 100800, Note_on_c, 14, 48, 60
18, 101640, Note_off_c, 14, 48, 64
18, 101760, Note_on_c, 14, 41, 60
18, 102160, Note_off_c, 14, 41, 64
18, 102240, Note_on_c, 14, 43, 62
18, 103560, Note_off_c, 14, 43, 64
18, 103680, Note_on_c, 14, 36, 69
18, 104080, Note_off_c, 14, 36, 64
18, 104760, Note_on_c, 14, 48, 75
18, 104880, Note_off_c, 14, 48, 64
18, 104880, Note_on_c, 14, 51, 75
18, 105000, Note_off_c, 14, 51, 64
18, 105000, Note_on_c, 14, 48, 75
18, 105115, Note_off_c, 14, 48, 64
18, 105120, Note_on_c, 14, 55, 75
18, 105520, Note_off_c, 14, 55, 64
18, 106200, Note_on_c, 14, 51, 75
18, 106320, Note_off_c, 14, 51, 64
18, 106320, Note_on_c, 14, 55, 75
18, 106440, Note_off_c, 14, 55, 64
18, 106440, Note_on_c, 14, 51, 75
18, 106555, Note_off_c, 14, 51, 64
18, 106560, Note_on_c, 14, 53, 75
18, 106960, Note_off_c, 14, 53, 64
18, 107640, Note_on_c, 14, 55, 75
18, 107760, Note_off_c, 14, 55, 64
18, 107760, Note_on_c, 14, 58, 75
18, 107880, Note_off_c, 14, 58, 64
18, 107880, Note_on_c, 14, 55, 75
18, 107995, Note_off_c, 14, 55, 64
18, 108000, Note_on_c, 14, 56, 75
18, 108400, Note_off_c, 14, 56, 64
18, 109080, Note_on_c, 14, 53, 75
18, 109200, Note_off_c, 14, 53, 64
18, 109200, Note_on_c, 14, 56, 75
18, 109320, Note_off_c, 14, 56, 64
18, 109320, Note_on_c, 14, 53, 75
18, 109435, Note_off_c, 14, 53, 64
18, 109440, Note_on_c, 14, 55, 75
18, 109840, Note_off_c, 14, 55, 64
18, 110520, Note_on_c, 14, 50, 75
18, 110640, Note_off_c, 14, 50, 64
18, 110640, Note_on_c, 14, 53, 75
18, 110760, Note_off_c, 14, 53, 64
18, 110760, Note_on_c, 14, 50, 75
18, 110875, Note_off_c, 14, 50, 64
18, 110880, Note_on_c, 14, 51, 75
18, 111280, Note_off_c, 14, 51, 64
18, 111960, Note_on_c, 14, 47, 75
18, 112080, Note_off_c, 14, 47, 64
18, 112080, Note_on_c, 14, 50, 75
18, 112200, Note_off_c, 14, 50, 64
18, 112200, Note_on_c, 14, 47, 75
18, 112315, Note_off_c, 14, 47, 64
18, 112320, Note_on_c, 14, 48, 75
18, 112720, Note_off_c, 14, 48, 64
18, 113400, Note_on_c, 14, 41, 75
18, 113520, Note_off_c, 14, 41, 64
18, 113520, Note_on_c, 14, 44, 75
18, 113640, Note_off_c, 14, 44, 64
18, 113640, Note_on_c, 14, 41, 75
18, 113755, Note_off_c, 14, 41, 64
18, 113760, Note_on_c, 14, 43, 75
18, 114160, Note_off_c, 14, 43, 64
18, 114840, Note_on_c, 14, 43, 76
18, 114960, Note_off_c, 14, 43, 64
18, 114960, Note_on_c, 14, 41, 77
18, 115080, Note_off_c, 14, 41, 64
18, 115080, Note_on_c, 14, 43, 78
18, 115195, Note_off_c, 14, 43, 64
18, 115200, Note_on_c, 14, 36, 79
18, 115600, Note_off_c, 14, 36, 64
18, 116160, Note_on_c, 14, 48, 92
18, 116560, Note_off_c, 14, 48, 64
18, 116640, Note_on_c, 14, 55, 92
18, 117040, Note_off_c, 14, 55, 64
18, 117600, Note_on_c, 14, 51, 92
18, 118000, Note_off_c, 14, 51, 64
18, 118080, Note_on_c, 14, 53, 92
18, 118480, Note_off_c, 14, 53, 64
18, 119040, Note_on_c, 14, 55, 92
18, 119440, Note_off_c, 14, 55, 64
18, 119520, Note_on_c, 14, 56, 92
18, 119920, Note_off_c, 14, 56, 64
18, 120480, Note_on_c, 14, 53, 92
18, 120880, Note_off_c, 14, 53, 64
18, 120960, Note_on_c, 14, 55, 92
18, 121360, Note_off_c, 14, 55, 64
18, 121920, Note_on_c, 14, 50, 92
18, 122320, Note_off_c, 14, 50, 64
18, 122400, Note_on_c, 14, 51, 92
18, 122800, Note_off_c, 14, 51, 64
18, 123360, Note_on_c, 14, 47, 92
18, 123760, Note_off_c, 14, 47, 64
18, 123840, Note_on_c, 14, 48, 92
18, 124240, Note_off_c, 14, 48, 64
18, 124800, Note_on_c, 14, 41, 92
18, 125200, Note_off_c, 14, 41, 64
18, 125280, Note_on_c, 14, 43, 92
18, 125680, Note_off_c, 14, 43, 64
18, 126240, Note_on_c, 14, 43, 92
18, 126640, Note_off_c, 14, 43, 64
18, 126720, Note_on_c, 14, 36, 75
18, 127120, Note_off_c, 14, 36, 64
18, 139440, Note_on_c, 14, 56, 45
18, 139675, Note_off_c, 14, 56, 64
18, 139680, Note_on_c, 14, 55, 45
18, 139800, Note_off_c, 14, 55, 64
18, 139800, Note_on_c, 14, 56, 45
18, 139920, Note_off_c, 14, 56, 64
18, 139920, Note_on_c, 14, 53, 45
18, 140040, Note_off_c, 14, 53, 64
18, 140040, Note_on_c, 14, 55, 45
18, 140155, Note_off_c, 14, 55, 64
18, 140160, Note_on_c, 14, 51, 45
18, 140280, Note_off_c, 14, 51, 64
18, 140280, Note_on_c, 14, 53, 45
18, 140400, Note_off_c, 14, 53, 64
18, 140400, Note_on_c, 14, 50, 45
18, 140520, Note_off_c, 14, 50, 64
18, 140520, Note_on_c, 14, 51, 45
18, 140635, Note_off_c, 14, 51, 64
18, 140640, Note_on_c, 14, 48, 45
18, 140760, Note_off_c, 14, 48, 64
18, 140760, Note_on_c, 14, 50, 45
18, 140880, Note_off_c, 14, 50, 64
18, 140880, Note_on_c, 14, 46, 45
18, 141000, Note_off_c, 14, 46, 64
18, 141000, Note_on_c, 14, 48, 45
18, 141115, Note_off_c, 14, 48, 64
18, 141120, Note_on_c, 14, 44, 45
18, 141760, Note_off_c, 14, 44, 64
18, 141840, Note_on_c, 14, 44, 45
18, 142075, Note_off_c, 14, 44, 64
18, 142080, Note_on_c, 14, 46, 45
18, 142320, Note_off_c, 14, 46, 64
18, 142320, Note_on_c, 14, 48, 45
18, 142555, Note_off_c, 14, 48, 64
18, 142560, Note_on_c, 14, 41, 45
18, 142800, Note_off_c, 14, 41, 64
18, 142800, Note_on_c, 14, 48, 45
18, 143035, Note_off_c, 14, 48, 64
18, 143040, Note_on_c, 14, 53, 45
18, 143160, Note_off_c, 14, 53, 64
18, 143160, Note_on_c, 14, 55, 45
18, 143280, Note_off_c, 14, 55, 64
18, 143280, Note_on_c, 14, 51, 45
18, 143400, Note_off_c, 14, 51, 64
18, 143400, Note_on_c, 14, 53, 45
18, 143515, Note_off_c, 14, 53, 64
18, 143520, Note_on_c, 14, 50, 45
18, 143640, Note_off_c, 14, 50, 64
18, 143640, Note_on_c, 14, 51, 45
18, 143760, Note_off_c, 14, 51, 64
18, 143760, Note_on_c, 14, 48, 45
18, 143880, Note_off_c, 14, 48, 64
18, 143880, Note_on_c, 14, 50, 45
18, 143995, Note_off_c, 14, 50, 64
18, 144000, Note_on_c, 14, 47, 45
18, 144120, Note_off_c, 14, 47, 64
18, 144120, Note_on_c, 14, 48, 45
18, 144240, Note_off_c, 14, 48, 64
18, 144240, Note_on_c, 14, 45, 45
18, 144360, Note_off_c, 14, 45, 64
18, 144360, Note_on_c, 14, 47, 45
18, 144475, Note_off_c, 14, 47, 64
18, 144480, Note_on_c, 14, 43, 45
18, 145320, Note_off_c, 14, 43, 64
18, 145440, Note_on_c, 14, 48, 45
18, 146080, Note_off_c, 14, 48, 64
18, 146160, Note_on_c, 14, 36, 45
18, 146395, Note_off_c, 14, 36, 64
18, 146400, Note_on_c, 14, 38, 45
18, 146800, Note_off_c, 14, 38, 64
18, 146880, Note_on_c, 14, 39, 45
18, 147120, Note_off_c, 14, 39, 64
18, 147120, Note_on_c, 14, 43, 45
18, 147355, Note_off_c, 14, 43, 64
18, 147360, Note_on_c, 14, 48, 45
18, 147480, Note_off_c, 14, 48, 64
18, 147480, Note_on_c, 14, 50, 45
18, 147600, Note_off_c, 14, 50, 64
18, 147600, Note_on_c, 14, 46, 45
18, 147720, Note_off_c, 14, 46, 64
18, 147720, Note_on_c, 14, 48, 45
18, 147835, Note_off_c, 14, 48, 64
18, 147840, Note_on_c, 14, 45, 45
18, 148240, Note_off_c, 14, 45, 64
18, 148320, Note_on_c, 14, 47, 45
18, 148560, Note_off_c, 14, 47, 64
18, 148560, Note_on_c, 14, 48, 45
18, 148795, Note_off_c, 14, 48, 64
18, 148800, Note_on_c, 14, 43, 45
18, 148920, Note_off_c, 14, 43, 64
18, 148920, Note_on_c, 14, 44, 45
18, 149040, Note_off_c, 14, 44, 64
18, 149040, Note_on_c, 14, 41, 45
18, 149160, Note_off_c, 14, 41, 64
18, 149160, Note_on_c, 14, 43, 45
18, 149275, Note_off_c, 14, 43, 64
18, 149280, Note_on_c, 14, 39, 45
18, 149400, Note_off_c, 14, 39, 64
18, 149400, Note_on_c, 14, 41, 45
18, 149520, Note_off_c, 14, 41, 64
18, 149520, Note_on_c, 14, 38, 45
18, 149640, Note_off_c, 14, 38, 64
18, 149640, Note_on_c, 14, 41, 45
18, 149755, Note_off_c, 14, 41, 64
18, 149760, Note_on_c, 14, 39, 45
18, 149880, Note_off_c, 14, 39, 64
18, 149880, Note_on_c, 14, 41, 45
18, 150000, Note_off_c, 14, 41, 64
18, 150000, Note_on_c, 14, 38, 45
18, 150120, Note_off_c, 14, 38, 64
18, 150120, Note_on_c, 14, 39, 45
18, 150235, Note_off_c, 14, 39, 64
18, 150240, Note_on_c, 14, 36, 45
18, 150640, Note_off_c, 14, 36, 64
18, 162240, Note_on_c, 14, 55, 45
18, 162240, Note_on_c, 14, 48, 45
18, 162640, Note_off_c, 14, 48, 64
18, 162640, Note_off_c, 14, 55, 64
18, 162720, Note_on_c, 14, 55, 45
18, 162720, Note_on_c, 14, 47, 45
18, 163560, Note_off_c, 14, 47, 64
18, 163560, Note_off_c, 14, 55, 64
18, 163680, Note_on_c, 14, 60, 45
18, 163680, Note_on_c, 14, 51, 45
18, 164080, Note_off_c, 14, 51, 64
18, 164080, Note_off_c, 14, 60, 64
18, 164160, Note_on_c, 14, 56, 45
18, 164160, Note_on_c, 14, 48, 45
18, 165000, Note_off_c, 14, 48, 64
18, 165000, Note_off_c, 14, 56, 64
18, 165120, Note_on_c, 14, 59, 45
18, 165120, Note_on_c, 14, 55, 45
18, 165520, Note_off_c, 14, 55, 64
18, 165520, Note_off_c, 14, 59, 64
18, 165600, Note_on_c, 14, 56, 45
18, 165600, Note_on_c, 14, 48, 45
18, 166440, Note_off_c, 14, 48, 64
18, 166440, Note_off_c, 14, 56, 64
18, 166560, Note_on_c, 14, 60, 45
18, 166560, Note_on_c, 14, 53, 45
18, 166960, Note_off_c, 14, 53, 64
18, 166960, Note_off_c, 14, 60, 64
18, 167040, Note_on_c, 14, 55, 45
18, 167040, Note_on_c, 14, 47, 45
18, 167880, Note_off_c, 14, 47, 64
18, 167880, Note_off_c, 14, 55, 64
18, 168000, Note_on_c, 14, 59, 45
18, 168000, Note_on_c, 14, 50, 45
18, 168400, Note_off_c, 14, 50, 64
18, 168400, Note_off_c, 14, 59, 64
18, 168480, Note_on_c, 14, 55, 45
18, 168480, Note_on_c, 14, 48, 45
18, 169320, Note_off_c, 14, 48, 64
18, 169320, Note_off_c, 14, 55, 64
18, 169440, Note_on_c, 14, 55, 45
18, 169440, Note_on_c, 14, 47, 45
18, 169840, Note_off_c, 14, 47, 64
18, 169840, Note_off_c, 14, 55, 64
18, 169920, Note_on_c, 14, 55, 45
18, 169920, Note_on_c, 14, 48, 45
18, 170760, Note_off_c, 14, 48, 64
18, 170760, Note_off_c, 14, 55, 64
18, 170880, Note_on_c, 14, 60, 45
18, 170880, Note_on_c, 14, 53, 45
18, 171280, Note_off_c, 14, 53, 64
18, 171280, Note_off_c, 14, 60, 64
18, 171360, Note_on_c, 14, 60, 45
18, 171360, Note_on_c, 14, 55, 45
18, 172320, Note_off_c, 14, 60, 64
18, 172320, Note_on_c, 14, 59, 57
18, 172720, Note_off_c, 14, 55, 64
18, 172720, Note_off_c, 14, 59, 64
18, 172800, Note_on_c, 14, 60, 63
18, 172800, Note_on_c, 14, 48, 63
18, 173640, Note_off_c, 14, 48, 64
18, 173640, Note_off_c, 14, 60, 64
18, 173760, Note_on_c, 14, 36, 75
18, 173840, Note_off_c, 14, 36, 64
18, 173880, Note_on_c, 14, 39, 75
18, 173960, Note_off_c, 14, 39, 64
18, 174000, Note_on_c, 14, 43, 75
18, 174080, Note_off_c, 14, 43, 64
18, 174120, Note_on_c, 14, 48, 75
18, 174200, Note_off_c, 14, 48, 64
18, 174240, Note_on_c, 14, 43, 75
18, 174320, Note_off_c, 14, 43, 64
18, 174360, Note_on_c, 14, 38, 75
18, 174440, Note_off_c, 14, 38, 64
18, 174480, Note_on_c, 14, 43, 75
18, 174560, Note_off_c, 14, 43, 64
18, 174600, Note_on_c, 14, 47, 75
18, 174680, Note_off_c, 14, 47, 64
18, 174720, Note_on_c, 14, 50, 75
18, 174800, Note_off_c, 14, 50, 64
18, 174840, Note_on_c, 14, 43, 75
18, 174920, Note_off_c, 14, 43, 64
18, 174960, Note_on_c, 14, 47, 75
18, 175040, Note_off_c, 14, 47, 64
18, 175080, Note_on_c, 14, 50, 75
18, 175160, Note_off_c, 14, 50, 64
18, 175200, Note_on_c, 14, 39, 75
18, 175280, Note_off_c, 14, 39, 64
18, 175320, Note_on_c, 14, 48, 75
18, 175400, Note_off_c, 14, 48, 64
18, 175440, Note_on_c, 14, 51, 75
18, 175520, Note_off_c, 14, 51, 64
18, 175560, Note_on_c, 14, 55, 75
18, 175640, Note_off_c, 14, 55, 64
18, 175680, Note_on_c, 14, 53, 75
18, 175760, Note_off_c, 14, 53, 64
18, 175800, Note_on_c, 14, 44, 75
18, 175880, Note_off_c, 14, 44, 64
18, 175920, Note_on_c, 14, 48, 75
18, 176000, Note_off_c, 14, 48, 64
18, 176040, Note_on_c, 14, 53, 75
18, 176120, Note_off_c, 14, 53, 64
18, 176160, Note_on_c, 14, 56, 75
18, 176240, Note_off_c, 14, 56, 64
18, 176280, Note_on_c, 14, 48, 75
18, 176360, Note_off_c, 14, 48, 64
18, 176400, Note_on_c, 14, 53, 75
18, 176480, Note_off_c, 14, 53, 64
18, 176520, Note_on_c, 14, 56, 75
18, 176600, Note_off_c, 14, 56, 64
18, 176640, Note_on_c, 14, 43, 75
18, 176720, Note_off_c, 14, 43, 64
18, 176760, Note_on_c, 14, 50, 75
18, 176840, Note_off_c, 14, 50, 64
18, 176880, Note_on_c, 14, 55, 75
18, 176960, Note_off_c, 14, 55, 64
18, 177000, Note_on_c, 14, 59, 75
18, 177080, Note_off_c, 14, 59, 64
18, 177120, Note_on_c, 14, 56, 75
18, 177200, Note_off_c, 14, 56, 64
18, 177240, Note_on_c, 14, 44, 75
18, 177320, Note_off_c, 14, 44, 64
18, 177360, Note_on_c, 14, 48, 75
18, 177440, Note_off_c, 14, 48, 64
18, 177480, Note_on_c, 14, 51, 75
18, 177560, Note_off_c, 14, 51, 64
18, 177600, Note_on_c, 14, 56, 75
18, 177680, Note_off_c, 14, 56, 64
18, 177720, Note_on_c, 14, 48, 75
18, 177800, Note_off_c, 14, 48, 64
18, 177840, Note_on_c, 14, 51, 75
18, 177920, Note_off_c, 14, 51, 64
18, 177960, Note_on_c, 14, 56, 75
18, 178040, Note_off_c, 14, 56, 64
18, 178080, Note_on_c, 14, 41, 75
18, 178160, Note_off_c, 14, 41, 64
18, 178200, Note_on_c, 14, 50, 75
18, 178280, Note_off_c, 14, 50, 64
18, 178320, Note_on_c, 14, 53, 75
18, 178400, Note_off_c, 14, 53, 64
18, 178440, Note_on_c, 14, 56, 75
18, 178520, Note_off_c, 14, 56, 64
18, 178560, Note_on_c, 14, 55, 75
18, 178640, Note_off_c, 14, 55, 64
18, 178680, Note_on_c, 14, 43, 75
18, 178760, Note_off_c, 14, 43, 64
18, 178800, Note_on_c, 14, 47, 75
18, 178880, Note_off_c, 14, 47, 64
18, 178920, Note_on_c, 14, 50, 75
18, 179000, Note_off_c, 14, 50, 64
18, 179040, Note_on_c, 14, 55, 75
18, 179120, Note_off_c, 14, 55, 64
18, 179160, Note_on_c, 14, 47, 75
18, 179240, Note_off_c, 14, 47, 64
18, 179280, Note_on_c, 14, 50, 75
18, 179360, Note_off_c, 14, 50, 64
18, 179400, Note_on_c, 14, 55, 75
18, 179480, Note_off_c, 14, 55, 64
18, 179520, Note_on_c, 14, 38, 75
18, 179600, Note_off_c, 14, 38, 64
18, 179640, Note_on_c, 14, 47, 75
18, 179720, Note_off_c, 14, 47, 64
18, 179760, Note_on_c, 14, 50, 75
18, 179840, Note_off_c, 14, 50, 64
18, 179880, Note_on_c, 14, 53, 75
18, 179960, Note_off_c, 14, 53, 64
18, 180000, Note_on_c, 14, 51, 75
18, 180080, Note_off_c, 14, 51, 64
18, 180120, Note_on_c, 14, 43, 75
18, 180200, Note_off_c, 14, 43, 64
18, 180240, Note_on_c, 14, 48, 75
18, 180320, Note_off_c, 14, 48, 64
18, 180360, Note_on_c, 14, 51, 75
18, 180440, Note_off_c, 14, 51, 64
18, 180480, Note_on_c, 14, 55, 75
18, 180560, Note_off_c, 14, 55, 64
18, 180600, Note_on_c, 14, 48, 75
18, 180680, Note_off_c, 14, 48, 64
18, 180720, Note_on_c, 14, 51, 75
18, 180800, Note_off_c, 14, 51, 64
18, 180840, Note_on_c, 14, 55, 75
18, 180920, Note_off_c, 14, 55, 64
18, 180960, Note_on_c, 14, 47, 75
18, 181040, Note_off_c, 14, 47, 64
18, 181080, Note_on_c, 14, 43, 75
18, 181160, Note_off_c, 14, 43, 64
18, 181200, Note_on_c, 14, 47, 75
18, 181280, Note_off_c, 14, 47, 64
18, 181320, Note_on_c, 14, 50, 75
18, 181400, Note_off_c, 14, 50, 64
18, 181440, Note_on_c, 14, 48, 75
18, 181520, Note_off_c, 14, 48, 64
18, 181560, Note_on_c, 14, 43, 75
18, 181640, Note_off_c, 14, 43, 64
18, 181680, Note_on_c, 14, 48, 75
18, 181760, Note_off_c, 14, 48, 64
18, 181800, Note_on_c, 14, 51, 75
18, 181880, Note_off_c, 14, 51, 64
18, 181920, Note_on_c, 14, 55, 75
18, 182000, Note_off_c, 14, 55, 64
18, 182040, Note_on_c, 14, 48, 75
18, 182120, Note_off_c, 14, 48, 64
18, 182160, Note_on_c, 14, 51, 75
18, 182240, Note_off_c, 14, 51, 64
18, 182280, Note_on_c, 14, 55, 75
18, 182360, Note_off_c, 14, 55, 64
18, 182400, Note_on_c, 14, 41, 75
18, 182480, Note_off_c, 14, 41, 64
18, 182520, Note_on_c, 14, 50, 75
18, 182600, Note_off_c, 14, 50, 64
18, 182640, Note_on_c, 14, 53, 75
18, 182720, Note_off_c, 14, 53, 64
18, 182760, Note_on_c, 14, 56, 75
18, 182840, Note_off_c, 14, 56, 64
18, 182880, Note_on_c, 14, 55, 75
18, 182960, Note_off_c, 14, 55, 64
18, 183000, Note_on_c, 14, 43, 75
18, 183080, Note_off_c, 14, 43, 64
18, 183120, Note_on_c, 14, 50, 75
18, 183200, Note_off_c, 14, 50, 64
18, 183240, Note_on_c, 14, 55, 75
18, 183320, Note_off_c, 14, 55, 64
18, 183360, Note_on_c, 14, 43, 76
18, 183440, Note_off_c, 14, 43, 64
18, 183480, Note_on_c, 14, 50, 77
18, 183560, Note_off_c, 14, 50, 64
18, 183600, Note_on_c, 14, 55, 78
18, 183680, Note_off_c, 14, 55, 64
18, 183720, Note_on_c, 14, 50, 79
18, 183800, Note_off_c, 14, 50, 64
18, 183840, Note_on_c, 14, 43, 80
18, 183920, Note_off_c, 14, 43, 64
18, 183960, Note_on_c, 14, 50, 81
18, 184040, Note_off_c, 14, 50, 64
18, 184080, Note_on_c, 14, 55, 82
18, 184160, Note_off_c, 14, 55, 64
18, 184200, Note_on_c, 14, 59, 83
18, 184280, Note_off_c, 14, 59, 64
18, 184320, Note_on_c, 14, 60, 84
18, 184400, Note_off_c, 14, 60, 64
18, 184440, Note_on_c, 14, 48, 85
18, 184520, Note_off_c, 14, 48, 64
18, 184560, Note_on_c, 14, 51, 86
18, 184640, Note_off_c, 14, 51, 64
18, 184680, Note_on_c, 14, 55, 87
18, 184760, Note_off_c, 14, 55, 64
18, 184800, Note_on_c, 14, 60, 88
18, 184880, Note_off_c, 14, 60, 64
18, 184920, Note_on_c, 14, 48, 89
18, 185000, Note_off_c, 14, 48, 64
18, 185040, Note_on_c, 14, 51, 90
18, 185120, Note_off_c, 14, 51, 64
18, 185160, Note_on_c, 14, 55, 91
18, 185240, Note_off_c, 14, 55, 64
18, 185280, Note_on_c, 14, 48, 92
18, 185680, Note_off_c, 14, 48, 64
18, 185760, Note_on_c, 14, 55, 92
18, 186600, Note_off_c, 14, 55, 64
18, 186720, Note_on_c, 14, 51, 92
18, 187120, Note_off_c, 14, 51, 64
18, 187200, Note_on_c, 14, 53, 92
18, 188040, Note_off_c, 14, 53, 64
18, 188160, Note_on_c, 14, 55, 92
18, 188560, Note_off_c, 14, 55, 64
18, 188640, Note_on_c, 14, 56, 92
18, 189480, Note_off_c, 14, 56, 64
18, 189600, Note_on_c, 14, 53, 92
18, 190000, Note_off_c, 14, 53, 64
18, 190080, Note_on_c, 14, 55, 92
18, 190920, Note_off_c, 14, 55, 64
18, 191040, Note_on_c, 14, 50, 92
18, 191440, Note_off_c, 14, 50, 64
18, 191520, Note_on_c, 14, 51, 92
18, 192360, Note_off_c, 14, 51, 64
18, 192480, Note_on_c, 14, 47, 92
18, 192880, Note_off_c, 14, 47, 64
18, 192960, Note_on_c, 14, 48, 92
18, 193800, Note_off_c, 14, 48, 64
18, 193920, Note_on_c, 14, 41, 92
18, 194320, Note_off_c, 14, 41, 64
18, 194400, Note_on_c, 14, 43, 92
18, 195720, Note_off_c, 14, 43, 64
18, 195840, Note_on_c, 14, 36, 92
18, 196680, Note_off_c, 14, 36, 64
18, 196800, Note_on_c, 14, 48, 92
18, 197200, Note_off_c, 14, 48, 64
18, 197280, Note_on_c, 14, 55, 92
18, 198120, Note_off_c, 14, 55, 64
18, 198240, Note_on_c, 14, 51, 92
18, 198640, Note_off_c, 14, 51, 64
18, 198720, Note_on_c, 14, 53, 92
18, 199560, Note_off_c, 14, 53, 64
18, 199680, Note_on_c, 14, 55, 92
18, 200080, Note_off_c, 14, 55, 64
18, 200160, Note_on_c, 14, 56, 92
18, 201000, Note_off_c, 14, 56, 64
18, 201120, Note_on_c, 14, 53, 92
18, 201520, Note_off_c, 14, 53, 64
18, 201600, Note_on_c, 14, 55, 92
18, 202440, Note_off_c, 14, 55, 64
18, 202560, Note_on_c, 14, 50, 92
18, 202960, Note_off_c, 14, 50, 64
18, 203040, Note_on_c, 14, 51, 92
18, 203880, Note_off_c, 14, 51, 64
18, 204000, Note_on_c, 14, 47, 92
18, 204400, Note_off_c, 14, 47, 64
18, 204480, Note_on_c, 14, 48, 92
18, 205320, Note_off_c, 14, 48, 64
18, 205440, Note_on_c, 14, 41, 92
18, 205840, Note_off_c, 14, 41, 64
18, 205920, Note_on_c, 14, 43, 92
18, 207240, Note_off_c, 14, 43, 64
18, 207360, Note_on_c, 14, 36, 92
18, 208200, Note_off_c, 14, 36, 64
18, 208560, Note_on_c, 14, 48, 108
18, 208795, Note_off_c, 14, 48, 64
18, 208800, Note_on_c, 14, 55, 108
18, 209640, Note_off_c, 14, 55, 64
18, 210000, Note_on_c, 14, 51, 108
18, 210235, Note_off_c, 14, 51, 64
18, 210240, Note_on_c, 14, 53, 108
18, 211080, Note_off_c, 14, 53, 64
18, 211440, Note_on_c, 14, 55, 108
18, 211675, Note_off_c, 14, 55, 64
18, 211680, Note_on_c, 14, 56, 108
18, 212520, Note_off_c, 14, 56, 64
18, 212880, Note_on_c, 14, 53, 108
18, 213115, Note_off_c, 14, 53, 64
18, 213120, Note_on_c, 14, 55, 108
18, 213960, Note_off_c, 14, 55, 64
18, 214320, Note_on_c, 14, 50, 108
18, 214555, Note_off_c, 14, 50, 64
18, 214560, Note_on_c, 14, 51, 108
18, 215400, Note_off_c, 14, 51, 64
18, 215760, Note_on_c, 14, 47, 108
18, 215995, Note_off_c, 14, 47, 64
18, 216000, Note_on_c, 14, 48, 108
18, 216840, Note_off_c, 14, 48, 64
18, 217200, Note_on_c, 14, 41, 108
18, 217435, Note_off_c, 14, 41, 64
18, 217440, Note_on_c, 14, 43, 108
18, 218280, Note_off_c, 14, 43, 64
18, 218640, Note_on_c, 14, 43, 108
18, 218875, Note_off_c, 14, 43, 64
18, 218880, Note_on_c, 14, 36, 108
18, 219720, Note_off_c, 14, 36, 64
18, 219840, Note_on_c, 14, 48, 108
18, 220240, Note_off_c, 14, 48, 64
18, 220320, Note_on_c, 14, 55, 108
18, 221160, Note_off_c, 14, 55, 64
18, 221280, Note_on_c, 14, 51, 108
18, 221680, Note_off_c, 14, 51, 64
18, 221760, Note_on_c, 14, 53, 108
18, 222600, Note_off_c, 14, 53, 64
18, 222720, Note_on_c, 14, 55, 108
18, 223120, Note_off_c, 14, 55, 64
18, 223200, Note_on_c, 14, 56, 108
18, 224040, Note_off_c, 14, 56, 64
18, 224160, Note_on_c, 14, 53, 108
18, 224560, Note_off_c, 14, 53, 64
18, 224640, Note_on_c, 14, 55, 108
18, 225480, Note_off_c, 14, 55, 64
18, 225600, Note_on_c, 14, 50, 108
18, 226000, Note_off_c, 14, 50, 64
18, 226080, Note_on_c, 14, 51, 108
18, 226920, Note_off_c, 14, 51, 64
18, 227040, Note_on_c, 14, 47, 108
18, 227440, Note_off_c, 14, 47, 64
18, 227520, Note_on_c, 14, 48, 108
18, 228360, Note_off_c, 14, 48, 64
18, 228480, Note_on_c, 14, 41, 108
18, 228880, Note_off_c, 14, 41, 64
18, 228960, Note_on_c, 14, 43, 108
18, 230280, Note_off_c, 14, 43, 64
18, 230400, Note_on_c, 14, 36, 108
18, 231240, Note_off_c, 14, 36, 64
18, 231360, Note_on_c, 14, 48, 108
18, 231760, Note_off_c, 14, 48, 64
18, 231840, Note_on_c, 14, 55, 108
18, 232680, Note_off_c, 14, 55, 64
18, 232800, Note_on_c, 14, 51, 108
18, 233200, Note_off_c, 14, 51, 64
18, 233280, Note_on_c, 14, 53, 108
18, 234120, Note_off_c, 14, 53, 64
18, 234240, Note_on_c, 14, 55, 108
18, 234640, Note_off_c, 14, 55, 64
18, 234720, Note_on_c, 14, 56, 108
18, 235560, Note_off_c, 14, 56, 64
18, 235680, Note_on_c, 14, 53, 108
18, 236080, Note_off_c, 14, 53, 64
18, 236160, Note_on_c, 14, 55, 108
18, 237000, Note_off_c, 14, 55, 64
18, 237120, Note_on_c, 14, 50, 108
18, 237520, Note_off_c, 14, 50, 64
18, 237600, Note_on_c, 14, 51, 108
18, 238440, Note_off_c, 14, 51, 64
18, 238560, Note_on_c, 14, 47, 108
18, 238960, Note_off_c, 14, 47, 64
18, 239040, Note_on_c, 14, 48, 108
18, 239880, Note_off_c, 14, 48, 64
18, 240000, Note_on_c, 14, 41, 108
18, 240400, Note_off_c, 14, 41, 64
18, 240480, Note_on_c, 14, 43, 108
18, 241800, Note_off_c, 14, 43, 64
18, 241920, Note_on_c, 14, 36, 60
18, 243240, Note_off_c, 14, 36, 64
18, 260160, Note_on_c, 14, 48, 60
18, 260560, Note_off_c, 14, 48, 64
18, 260640, Note_on_c, 14, 55, 60
18, 261480, Note_off_c, 14, 55, 64
18, 261600, Note_on_c, 14, 51, 60
18, 262000, Note_off_c, 14, 51, 64
18, 262080, Note_on_c, 14, 53, 60
18, 262920, Note_off_c, 14, 53, 64
18, 263040, Note_on_c, 14, 55, 60
18, 263440, Note_off_c, 14, 55, 64
18, 263520, Note_on_c, 14, 56, 60
18, 264360, Note_off_c, 14, 56, 64
18, 264480, Note_on_c, 14, 53, 60
18, 264880, Note_off_c, 14, 53, 64
18, 264960, Note_on_c, 14, 55, 60
18, 265600, Note_off_c, 14, 55, 64
18, 265680, Note_on_c, 14, 50, 60
18, 265915, Note_off_c, 14, 50, 64
18, 265920, Note_on_c, 14, 51, 60
18, 266160, Note_off_c, 14, 51, 64
18, 266160, Note_on_c, 14, 47, 60
18, 266395, Note_off_c, 14, 47, 64
18, 266400, Note_on_c, 14, 48, 60
18, 267040, Note_off_c, 14, 48, 64
18, 267120, Note_on_c, 14, 50, 60
18, 267355, Note_off_c, 14, 50, 64
18, 267360, Note_on_c, 14, 51, 60
18, 267600, Note_off_c, 14, 51, 64
18, 267600, Note_on_c, 14, 48, 60
18, 267835, Note_off_c, 14, 48, 64
18, 267840, Note_on_c, 14, 50, 60
18, 268080, Note_off_c, 14, 50, 64
18, 268080, Note_on_c, 14, 46, 60
18, 268315, Note_off_c, 14, 46, 64
18, 268320, Note_on_c, 14, 42, 60
18, 268720, Note_off_c, 14, 42, 64
18, 268800, Note_on_c, 14, 43, 60
18, 269200, Note_off_c, 14, 43, 64
18, 269520, Note_on_c, 14, 51, 60
18, 269760, Note_off_c, 14, 51, 64
18, 269760, Note_on_c, 14, 45, 60
18, 269995, Note_off_c, 14, 45, 64
18, 270000, Note_on_c, 14, 45, 60
18, 270240, Note_off_c, 14, 45, 64
18, 270240, Note_on_c, 14, 47, 60
18, 270640, Note_off_c, 14, 47, 64
18, 270960, Note_on_c, 14, 48, 60
18, 271200, Note_off_c, 14, 48, 64
18, 271200, Note_on_c, 14, 43, 60
18, 271435, Note_off_c, 14, 43, 64
18, 271440, Note_on_c, 14, 43, 60
18, 271680, Note_off_c, 14, 43, 64
18, 271680, Note_on_c, 14, 45, 60
18, 272080, Note_off_c, 14, 45, 64
18, 272400, Note_on_c, 14, 46, 60
18, 272640, Note_off_c, 14, 46, 64
18, 272640, Note_on_c, 14, 42, 60
18, 272875, Note_off_c, 14, 42, 64
18, 272880, Note_on_c, 14, 42, 60
18, 273115, Note_off_c, 14, 42, 64
18, 273120, Note_on_c, 14, 43, 60
18, 273360, Note_off_c, 14, 43, 64
18, 273360, Note_on_c, 14, 45, 60
18, 273595, Note_off_c, 14, 45, 64
18, 273600, Note_on_c, 14, 46, 60
18, 273840, Note_off_c, 14, 46, 64
18, 273840, Note_on_c, 14, 48, 60
18, 274075, Note_off_c, 14, 48, 64
18, 274080, Note_on_c, 14, 45, 60
18, 274480, Note_off_c, 14, 45, 64
18, 274560, Note_on_c, 14, 50, 60
18, 274795, Note_off_c, 14, 50, 64
18, 274800, Note_on_c, 14, 38, 60
18, 275035, Note_off_c, 14, 38, 64
18, 275040, Note_on_c, 14, 43, 61
18, 275880, Note_off_c, 14, 43, 64
18, 277080, Note_on_c, 14, 55, 75
18, 277200, Note_off_c, 14, 55, 64
18, 277200, Note_on_c, 14, 53, 75
18, 277320, Note_off_c, 14, 53, 64
18, 277320, Note_on_c, 14, 55, 75
18, 277435, Note_off_c, 14, 55, 64
18, 277440, Note_on_c, 14, 48, 75
18, 277560, Note_off_c, 14, 48, 64
18, 277560, Note_on_c, 14, 60, 75
18, 277680, Note_off_c, 14, 60, 64
18, 277680, Note_on_c, 14, 58, 75
18, 277800, Note_off_c, 14, 58, 64
18, 277800, Note_on_c, 14, 60, 75
18, 277915, Note_off_c, 14, 60, 64
18, 277920, Note_on_c, 14, 56, 75
18, 278040, Note_off_c, 14, 56, 64
18, 278040, Note_on_c, 14, 60, 75
18, 278160, Note_off_c, 14, 60, 64
18, 278160, Note_on_c, 14, 56, 75
18, 278280, Note_off_c, 14, 56, 64
18, 278280, Note_on_c, 14, 60, 75
18, 278395, Note_off_c, 14, 60, 64
18, 278400, Note_on_c, 14, 56, 75
18, 278520, Note_off_c, 14, 56, 64
18, 278520, Note_on_c, 14, 58, 75
18, 278640, Note_off_c, 14, 58, 64
18, 278640, Note_on_c, 14, 56, 75
18, 278760, Note_off_c, 14, 56, 64
18, 278760, Note_on_c, 14, 58, 75
18, 278875, Note_off_c, 14, 58, 64
18, 278880, Note_on_c, 14, 55, 75
18, 279000, Note_off_c, 14, 55, 64
18, 279000, Note_on_c, 14, 58, 75
18, 279120, Note_off_c, 14, 58, 64
18, 279120, Note_on_c, 14, 55, 75
18, 279240, Note_off_c, 14, 55, 64
18, 279240, Note_on_c, 14, 58, 75
18, 279355, Note_off_c, 14, 58, 64
18, 279360, Note_on_c, 14, 53, 75
18, 279480, Note_off_c, 14, 53, 64
18, 279480, Note_on_c, 14, 56, 75
18, 279600, Note_off_c, 14, 56, 64
18, 279600, Note_on_c, 14, 55, 75
18, 279720, Note_off_c, 14, 55, 64
18, 279720, Note_on_c, 14, 58, 75
18, 279835, Note_off_c, 14, 58, 64
18, 279840, Note_on_c, 14, 56, 75
18, 279960, Note_off_c, 14, 56, 64
18, 279960, Note_on_c, 14, 58, 75
18, 280080, Note_off_c, 14, 58, 64
18, 280080, Note_on_c, 14, 56, 75
18, 280200, Note_off_c, 14, 56, 64
18, 280200, Note_on_c, 14, 58, 75
18, 280315, Note_off_c, 14, 58, 64
18, 280320, Note_on_c, 14, 56, 75
18, 280440, Note_off_c, 14, 56, 64
18, 280440, Note_on_c, 14, 58, 75
18, 280560, Note_off_c, 14, 58, 64
18, 280560, Note_on_c, 14, 56, 75
18, 280680, Note_off_c, 14, 56, 64
18, 280680, Note_on_c, 14, 58, 75
18, 280795, Note_off_c, 14, 58, 64
18, 280800, Note_on_c, 14, 55, 75
18, 280920, Note_off_c, 14, 55, 64
18, 280920, Note_on_c, 14, 56, 75
18, 281040, Note_off_c, 14, 56, 64
18, 281040, Note_on_c, 14, 55, 75
18, 281160, Note_off_c, 14, 55, 64
18, 281160, Note_on_c, 14, 56, 75
18, 281275, Note_off_c, 14, 56, 64
18, 281280, Note_on_c, 14, 55, 75
18, 281400, Note_off_c, 14, 55, 64
18, 281400, Note_on_c, 14, 56, 75
18, 281520, Note_off_c, 14, 56, 64
18, 281520, Note_on_c, 14, 55, 75
18, 281640, Note_off_c, 14, 55, 64
18, 281640, Note_on_c, 14, 58, 75
18, 281755, Note_off_c, 14, 58, 64
18, 281760, Note_on_c, 14, 56, 75
18, 281880, Note_off_c, 14, 56, 64
18, 281880, Note_on_c, 14, 58, 75
18, 282000, Note_off_c, 14, 58, 64
18, 282000, Note_on_c, 14, 56, 75
18, 282115, Note_off_c, 14, 56, 64
18, 282120, Note_on_c, 14, 60, 75
18, 282235, Note_off_c, 14, 60, 64
18, 282240, Note_on_c, 14, 58, 75
18, 282640, Note_off_c, 14, 58, 64
18, 282720, Note_on_c, 14, 46, 75
18, 283560, Note_off_c, 14, 46, 64
18, 283680, Note_on_c, 14, 39, 75
18, 284080, Note_off_c, 14, 39, 64
18, 284640, Note_on_c, 14, 51, 75
18, 285040, Note_off_c, 14, 51, 64
18, 285120, Note_on_c, 14, 58, 75
18, 285960, Note_off_c, 14, 58, 64
18, 286080, Note_on_c, 14, 55, 75
18, 286480, Note_off_c, 14, 55, 64
18, 286560, Note_on_c, 14, 56, 75
18, 287400, Note_off_c, 14, 56, 64
18, 287520, Note_on_c, 14, 58, 75
18, 287920, Note_off_c, 14, 58, 64
18, 288000, Note_on_c, 14, 60, 75
18, 288840, Note_off_c, 14, 60, 64
18, 288960, Note_on_c, 14, 56, 75
18, 289360, Note_off_c, 14, 56, 64
18, 289440, Note_on_c, 14, 58, 75
18, 290280, Note_off_c, 14, 58, 64
18, 290400, Note_on_c, 14, 60, 75
18, 290800, Note_off_c, 14, 60, 64
18, 290880, Note_on_c, 14, 53, 75
18, 291720, Note_off_c, 14, 53, 64
18, 291840, Note_on_c, 14, 58, 75
18, 292240, Note_off_c, 14, 58, 64
18, 292320, Note_on_c, 14, 51, 75
18, 292960, Note_off_c, 14, 51, 64
18, 293040, Note_on_c, 14, 51, 75
18, 293275, Note_off_c, 14, 51, 64
18, 293280, Note_on_c, 14, 53, 75
18, 293520, Note_off_c, 14, 53, 64
18, 293520, Note_on_c, 14, 55, 75
18, 293755, Note_off_c, 14, 55, 64
18, 293760, Note_on_c, 14, 56, 75
18, 294160, Note_off_c, 14, 56, 64
18, 294240, Note_on_c, 14, 53, 75
18, 294640, Note_off_c, 14, 53, 64
18, 294720, Note_on_c, 14, 50, 75
18, 295120, Note_off_c, 14, 50, 64
18, 295200, Note_on_c, 14, 51, 75
18, 295600, Note_off_c, 14, 51, 64
18, 317760, Note_on_c, 14, 43, 92
18, 318160, Note_off_c, 14, 43, 64
18, 318240, Note_on_c, 14, 50, 92
18, 319080, Note_off_c, 14, 50, 64
18, 319200, Note_on_c, 14, 46, 92
18, 319600, Note_off_c, 14, 46, 64
18, 319680, Note_on_c, 14, 48, 92
18, 320520, Note_off_c, 14, 48, 64
18, 320640, Note_on_c, 14, 50, 92
18, 321040, Note_off_c, 14, 50, 64
18, 321120, Note_on_c, 14, 51, 92
18, 321960, Note_off_c, 14, 51, 64
18, 322080, Note_on_c, 14, 48, 92
18, 322480, Note_off_c, 14, 48, 64
18, 322560, Note_on_c, 14, 50, 75
18, 323200, Note_off_c, 14, 50, 64
18, 323280, Note_on_c, 14, 52, 60
18, 323515, Note_off_c, 14, 52, 64
18, 323520, Note_on_c, 14, 54, 60
18, 323760, Note_off_c, 14, 54, 64
18, 323760, Note_on_c, 14, 50, 60
18, 323995, Note_off_c, 14, 50, 64
18, 324000, Note_on_c, 14, 55, 60
18, 324240, Note_off_c, 14, 55, 64
18, 324240, Note_on_c, 14, 55, 60
18, 324475, Note_off_c, 14, 55, 64
18, 324480, Note_on_c, 14, 50, 60
18, 324720, Note_off_c, 14, 50, 64
18, 324720, Note_on_c, 14, 50, 60
18, 324955, Note_off_c, 14, 50, 64
18, 324960, Note_on_c, 14, 51, 60
18, 325200, Note_off_c, 14, 51, 64
18, 325200, Note_on_c, 14, 51, 60
18, 325435, Note_off_c, 14, 51, 64
18, 325440, Note_on_c, 14, 53, 60
18, 325680, Note_off_c, 14, 53, 64
18, 325680, Note_on_c, 14, 53, 60
18, 325915, Note_off_c, 14, 53, 64
18, 325920, Note_on_c, 14, 48, 60
18, 326160, Note_off_c, 14, 48, 64
18, 326160, Note_on_c, 14, 48, 60
18, 326395, Note_off_c, 14, 48, 64
18, 326400, Note_on_c, 14, 50, 60
18, 326635, Note_off_c, 14, 50, 64
18, 326640, Note_on_c, 14, 50, 60
18, 326875, Note_off_c, 14, 50, 64
18, 326880, Note_on_c, 14, 51, 60
18, 327120, Note_off_c, 14, 51, 64
18, 327120, Note_on_c, 14, 51, 60
18, 327355, Note_off_c, 14, 51, 64
18, 327360, Note_on_c, 14, 46, 60
18, 327600, Note_off_c, 14, 46, 64
18, 327600, Note_on_c, 14, 46, 60
18, 327835, Note_off_c, 14, 46, 64
18, 327840, Note_on_c, 14, 48, 60
18, 328080, Note_off_c, 14, 48, 64
18, 328080, Note_on_c, 14, 48, 60
18, 328315, Note_off_c, 14, 48, 64
18, 328320, Note_on_c, 14, 50, 60
18, 328960, Note_off_c, 14, 50, 64
18, 329040, Note_on_c, 14, 50, 60
18, 329275, Note_off_c, 14, 50, 64
18, 329280, Note_on_c, 14, 51, 60
18, 329520, Note_off_c, 14, 51, 64
18, 329520, Note_on_c, 14, 50, 60
18, 329755, Note_off_c, 14, 50, 64
18, 329760, Note_on_c, 14, 48, 60
18, 330160, Note_off_c, 14, 48, 64
18, 330240, Note_on_c, 14, 53, 60
18, 330640, Note_off_c, 14, 53, 64
18, 330720, Note_on_c, 14, 45, 60
18, 331120, Note_off_c, 14, 45, 64
18, 331200, Note_on_c, 14, 46, 60
18, 332040, Note_off_c, 14, 46, 64
18, 332160, Note_on_c, 14, 47, 60
18, 332560, Note_off_c, 14, 47, 64
18, 332640, Note_on_c, 14, 48, 60
18, 332880, Note_off_c, 14, 48, 64
18, 332880, Note_on_c, 14, 44, 60
18, 333115, Note_off_c, 14, 44, 64
18, 333120, Note_on_c, 14, 39, 60
18, 333360, Note_off_c, 14, 39, 64
18, 333360, Note_on_c, 14, 39, 60
18, 333595, Note_off_c, 14, 39, 64
18, 333600, Note_on_c, 14, 41, 60
18, 334000, Note_off_c, 14, 41, 64
18, 334080, Note_on_c, 14, 43, 60
18, 334320, Note_off_c, 14, 43, 64
18, 334320, Note_on_c, 14, 45, 60
18, 334555, Note_off_c, 14, 45, 64
18, 334560, Note_on_c, 14, 47, 60
18, 334800, Note_off_c, 14, 47, 64
18, 334800, Note_on_c, 14, 43, 60
18, 335035, Note_off_c, 14, 43, 64
18, 335040, Note_on_c, 14, 48, 60
18, 335280, Note_off_c, 14, 48, 64
18, 335280, Note_on_c, 14, 47, 60
18, 335515, Note_off_c, 14, 47, 64
18, 335520, Note_on_c, 14, 44, 60
18, 335760, Note_off_c, 14, 44, 64
18, 335760, Note_on_c, 14, 48, 60
18, 335995, Note_off_c, 14, 48, 64
18, 336000, Note_on_c, 14, 41, 60
18, 336240, Note_off_c, 14, 41, 64
18, 336240, Note_on_c, 14, 53, 60
18, 336475, Note_off_c, 14, 53, 64
18, 336480, Note_on_c, 14, 44, 60
18, 336720, Note_off_c, 14, 44, 64
18, 336720, Note_on_c, 14, 53, 60
18, 336960, Note_off_c, 14, 53, 64
18, 336960, Note_on_c, 14, 43, 60
18, 337195, Note_off_c, 14, 43, 64
18, 337200, Note_on_c, 14, 51, 60
18, 337440, Note_off_c, 14, 51, 64
18, 337440, Note_on_c, 14, 47, 60
18, 337675, Note_off_c, 14, 47, 64
18, 337680, Note_on_c, 14, 47, 60
18, 337920, Note_off_c, 14, 47, 64
18, 337920, Note_on_c, 14, 48, 60
18, 338320, Note_off_c, 14, 48, 64
18, 338640, Note_on_c, 14, 56, 60
18, 338880, Note_off_c, 14, 56, 64
18, 338880, Note_on_c, 14, 50, 60
18, 339115, Note_off_c, 14, 50, 64
18, 339120, Note_on_c, 14, 50, 60
18, 339360, Note_off_c, 14, 50, 64
18, 339360, Note_on_c, 14, 52, 60
18, 339760, Note_off_c, 14, 52, 64
18, 340080, Note_on_c, 14, 53, 60
18, 340320, Note_off_c, 14, 53, 64
18, 340320, Note_on_c, 14, 48, 60
18, 340555, Note_off_c, 14, 48, 64
18, 340560, Note_on_c, 14, 48, 60
18, 340800, Note_off_c, 14, 48, 64
18, 340800, Note_on_c, 14, 50, 60
18, 341200, Note_off_c, 14, 50, 64
18, 341280, Note_on_c, 14, 51, 60
18, 341680, Note_off_c, 14, 51, 64
18, 341760, Note_on_c, 14, 56, 60
18, 342160, Note_off_c, 14, 56, 64
18, 342240, Note_on_c, 14, 58, 60
18, 342640, Note_off_c, 14, 58, 64
18, 342720, Note_on_c, 14, 51, 60
18, 343120, Note_off_c, 14, 51, 64
18, 343200, Note_on_c, 14, 53, 60
18, 343600, Note_off_c, 14, 53, 64
18, 343680, Note_on_c, 14, 55, 60
18, 344080, Note_off_c, 14, 55, 64
18, 344160, Note_on_c, 14, 48, 60
18, 344280, Note_off_c, 14, 48, 64
18, 344280, Note_on_c, 14, 51, 60
18, 344400, Note_off_c, 14, 51, 64
18, 344400, Note_on_c, 14, 50, 60
18, 344520, Note_off_c, 14, 50, 64
18, 344520, Note_on_c, 14, 53, 60
18, 344635, Note_off_c, 14, 53, 64
18, 344640, Note_on_c, 14, 51, 60
18, 344760, Note_off_c, 14, 51, 64
18, 344760, Note_on_c, 14, 55, 60
18, 344880, Note_off_c, 14, 55, 64
18, 344880, Note_on_c, 14, 53, 60
18, 345000, Note_off_c, 14, 53, 64
18, 345000, Note_on_c, 14, 57, 60
18, 345115, Note_off_c, 14, 57, 64
18, 345120, Note_on_c, 14, 55, 60
18, 345240, Note_off_c, 14, 55, 64
18, 345240, Note_on_c, 14, 58, 60
18, 345360, Note_off_c, 14, 58, 64
18, 345360, Note_on_c, 14, 57, 60
18, 345480, Note_off_c, 14, 57, 64
18, 345480, Note_on_c, 14, 60, 60
18, 345595, Note_off_c, 14, 60, 64
18, 345600, Note_on_c, 14, 58, 60
18, 345835, Note_off_c, 14, 58, 64
18, 346800, Note_on_c, 14, 51, 60
18, 347035, Note_off_c, 14, 51, 64
18, 347040, Note_on_c, 14, 44, 60
18, 347160, Note_off_c, 14, 44, 64
18, 347160, Note_on_c, 14, 48, 60
18, 347280, Note_off_c, 14, 48, 64
18, 347280, Note_on_c, 14, 46, 60
18, 347400, Note_off_c, 14, 46, 64
18, 347400, Note_on_c, 14, 50, 60
18, 347515, Note_off_c, 14, 50, 64
18, 347520, Note_on_c, 14, 48, 60
18, 347640, Note_off_c, 14, 48, 64
18, 347640, Note_on_c, 14, 51, 60
18, 347760, Note_off_c, 14, 51, 64
18, 347760, Note_on_c, 14, 50, 60
18, 347880, Note_off_c, 14, 50, 64
18, 347880, Note_on_c, 14, 53, 60
18, 347995, Note_off_c, 14, 53, 64
18, 348000, Note_on_c, 14, 51, 60
18, 348120, Note_off_c, 14, 51, 64
18, 348120, Note_on_c, 14, 55, 60
18, 348240, Note_off_c, 14, 55, 64
18, 348240, Note_on_c, 14, 53, 60
18, 348360, Note_off_c, 14, 53, 64
18, 348360, Note_on_c, 14, 56, 60
18, 348475, Note_off_c, 14, 56, 64
18, 348480, Note_on_c, 14, 55, 60
18, 348715, Note_off_c, 14, 55, 64
18, 349680, Note_on_c, 14, 48, 60
18, 349915, Note_off_c, 14, 48, 64
18, 349920, Note_on_c, 14, 41, 60
18, 350040, Note_off_c, 14, 41, 64
18, 350040, Note_on_c, 14, 44, 60
18, 350160, Note_off_c, 14, 44, 64
18, 350160, Note_on_c, 14, 43, 60
18, 350280, Note_off_c, 14, 43, 64
18, 350280, Note_on_c, 14, 46, 60
18, 350395, Note_off_c, 14, 46, 64
18, 350400, Note_on_c, 14, 44, 60
18, 350520, Note_off_c, 14, 44, 64
18, 350520, Note_on_c, 14, 48, 60
18, 350640, Note_off_c, 14, 48, 64
18, 350640, Note_on_c, 14, 46, 60
18, 350760, Note_off_c, 14, 46, 64
18, 350760, Note_on_c, 14, 50, 60
18, 350875, Note_off_c, 14, 50, 64
18, 350880, Note_on_c, 14, 48, 60
18, 351000, Note_off_c, 14, 48, 64
18, 351000, Note_on_c, 14, 51, 60
18, 351120, Note_off_c, 14, 51, 64
18, 351120, Note_on_c, 14, 50, 60
18, 351240, Note_off_c, 14, 50, 64
18, 351240, Note_on_c, 14, 53, 60
18, 351355, Note_off_c, 14, 53, 64
18, 351360, Note_on_c, 14, 51, 60
18, 351955, Note_off_c, 14, 51, 64
18, 351960, Note_on_c, 14, 53, 60
18, 352080, Note_off_c, 14, 53, 64
18, 352080, Note_on_c, 14, 50, 60
18, 352200, Note_off_c, 14, 50, 64
18, 352200, Note_on_c, 14, 51, 60
18, 352315, Note_off_c, 14, 51, 64
18, 352320, Note_on_c, 14, 48, 60
18, 352720, Note_off_c, 14, 48, 64
18, 352800, Note_on_c, 14, 50, 60
18, 353395, Note_off_c, 14, 50, 64
18, 353400, Note_on_c, 14, 51, 69
18, 353520, Note_off_c, 14, 51, 64
18, 353520, Note_on_c, 14, 48, 71
18, 353640, Note_off_c, 14, 48, 64
18, 353640, Note_on_c, 14, 50, 73
18, 353755, Note_off_c, 14, 50, 64
18, 353760, Note_on_c, 14, 46, 75
18, 354160, Note_off_c, 14, 46, 64
18, 354240, Note_on_c, 14, 42, 75
18, 354480, Note_off_c, 14, 42, 64
18, 354480, Note_on_c, 14, 42, 75
18, 354715, Note_off_c, 14, 42, 64
18, 354720, Note_on_c, 14, 50, 75
18, 354960, Note_off_c, 14, 50, 64
18, 354960, Note_on_c, 14, 48, 75
18, 355080, Note_off_c, 14, 48, 64
18, 355080, Note_on_c, 14, 50, 75
18, 355195, Note_off_c, 14, 50, 64
18, 355200, Note_on_c, 14, 43, 75
18, 355320, Note_off_c, 14, 43, 64
18, 355320, Note_on_c, 14, 55, 75
18, 355440, Note_off_c, 14, 55, 64
18, 355440, Note_on_c, 14, 53, 75
18, 355560, Note_off_c, 14, 53, 64
18, 355560, Note_on_c, 14, 55, 75
18, 355675, Note_off_c, 14, 55, 64
18, 355680, Note_on_c, 14, 51, 75
18, 355800, Note_off_c, 14, 51, 64
18, 355800, Note_on_c, 14, 55, 75
18, 355920, Note_off_c, 14, 55, 64
18, 355920, Note_on_c, 14, 51, 75
18, 356040, Note_off_c, 14, 51, 64
18, 356040, Note_on_c, 14, 55, 75
18, 356155, Note_off_c, 14, 55, 64
18, 356160, Note_on_c, 14, 51, 75
18, 356280, Note_off_c, 14, 51, 64
18, 356280, Note_on_c, 14, 53, 75
18, 356400, Note_off_c, 14, 53, 64
18, 356400, Note_on_c, 14, 51, 75
18, 356520, Note_off_c, 14, 51, 64
18, 356520, Note_on_c, 14, 53, 75
18, 356635, Note_off_c, 14, 53, 64
18, 356640, Note_on_c, 14, 50, 75
18, 356760, Note_off_c, 14, 50, 64
18, 356760, Note_on_c, 14, 53, 75
18, 356880, Note_off_c, 14, 53, 64
18, 356880, Note_on_c, 14, 50, 75
18, 357000, Note_off_c, 14, 50, 64
18, 357000, Note_on_c, 14, 53, 75
18, 357115, Note_off_c, 14, 53, 64
18, 357120, Note_on_c, 14, 48, 75
18, 357240, Note_off_c, 14, 48, 64
18, 357240, Note_on_c, 14, 51, 75
18, 357360, Note_off_c, 14, 51, 64
18, 357360, Note_on_c, 14, 50, 75
18, 357480, Note_off_c, 14, 50, 64
18, 357480, Note_on_c, 14, 53, 75
18, 357595, Note_off_c, 14, 53, 64
18, 357600, Note_on_c, 14, 51, 75
18, 357720, Note_off_c, 14, 51, 64
18, 357720, Note_on_c, 14, 53, 75
18, 357840, Note_off_c, 14, 53, 64
18, 357840, Note_on_c, 14, 51, 75
18, 357960, Note_off_c, 14, 51, 64
18, 357960, Note_on_c, 14, 53, 75
18, 358075, Note_off_c, 14, 53, 64
18, 358080, Note_on_c, 14, 51, 75
18, 358200, Note_off_c, 14, 51, 64
18, 358200, Note_on_c, 14, 53, 75
18, 358320, Note_off_c, 14, 53, 64
18, 358320, Note_on_c, 14, 51, 75
18, 358440, Note_off_c, 14, 51, 64
18, 358440, Note_on_c, 14, 53, 75
18, 358555, Note_off_c, 14, 53, 64
18, 358560, Note_on_c, 14, 50, 75
18, 358800, Note_off_c, 14, 50, 64
18, 358800, Note_on_c, 14, 52, 75
18, 359035, Note_off_c, 14, 52, 64
18, 359040, Note_on_c, 14, 54, 75
18, 359280, Note_off_c, 14, 54, 64
18, 359280, Note_on_c, 14, 50, 75
18, 359515, Note_off_c, 14, 50, 64
18, 359520, Note_on_c, 14, 55, 75
18, 359920, Note_off_c, 14, 55, 64
18, 360000, Note_on_c, 14, 48, 75
18, 360240, Note_off_c, 14, 48, 64
18, 360240, Note_on_c, 14, 46, 75
18, 360475, Note_off_c, 14, 46, 64
18, 360480, Note_on_c, 14, 45, 75
18, 360720, Note_off_c, 14, 45, 64
18, 360720, Note_on_c, 14, 50, 75
18, 360955, Note_off_c, 14, 50, 64
18, 360960, Note_on_c, 14, 46, 75
18, 361200, Note_off_c, 14, 46, 64
18, 361200, Note_on_c, 14, 43, 75
18, 361435, Note_off_c, 14, 43, 64
18, 361440, Note_on_c, 14, 48, 75
18, 361680, Note_off_c, 14, 48, 64
18, 361680, Note_on_c, 14, 53, 75
18, 361915, Note_off_c, 14, 53, 64
18, 361920, Note_on_c, 14, 46, 75
18, 362160, Note_off_c, 14, 46, 64
18, 362160, Note_on_c, 14, 51, 75
18, 362395, Note_off_c, 14, 51, 64
18, 362400, Note_on_c, 14, 45, 75
18, 362640, Note_off_c, 14, 45, 64
18, 362640, Note_on_c, 14, 50, 75
18, 362875, Note_off_c, 14, 50, 64
18, 363120, Note_on_c, 14, 53, 75
18, 363360, Note_off_c, 14, 53, 64
18, 363360, Note_on_c, 14, 51, 75
18, 363600, Note_off_c, 14, 51, 64
18, 363600, Note_on_c, 14, 48, 75
18, 363835, Note_off_c, 14, 48, 64
18, 363840, Note_on_c, 14, 50, 75
18, 364240, Note_off_c, 14, 50, 64
18, 364320, Note_on_c, 14, 43, 75
18, 364560, Note_off_c, 14, 43, 64
18, 364560, Note_on_c, 14, 55, 75
18, 364795, Note_off_c, 14, 55, 64
18, 364800, Note_on_c, 14, 50, 75
18, 365040, Note_off_c, 14, 50, 64
18, 365040, Note_on_c, 14, 48, 75
18, 365275, Note_off_c, 14, 48, 64
18, 365280, Note_on_c, 14, 50, 75
18, 365520, Note_off_c, 14, 50, 64
18, 365520, Note_on_c, 14, 55, 75
18, 365755, Note_off_c, 14, 55, 64
18, 365760, Note_on_c, 14, 48, 75
18, 366480, Note_off_c, 14, 48, 64
18, 366480, Note_on_c, 14, 50, 75
18, 366715, Note_off_c, 14, 50, 64
18, 366720, Note_on_c, 14, 52, 75
18, 366960, Note_off_c, 14, 52, 64
18, 366960, Note_on_c, 14, 48, 75
18, 367195, Note_off_c, 14, 48, 64
18, 367200, Note_on_c, 14, 53, 75
18, 368040, Note_off_c, 14, 53, 64
18, 368160, Note_on_c, 14, 41, 92
18, 368560, Note_off_c, 14, 41, 64
18, 368640, Note_on_c, 14, 48, 92
18, 369480, Note_off_c, 14, 48, 64
18, 369600, Note_on_c, 14, 44, 92
18, 370000, Note_off_c, 14, 44, 64
18, 370080, Note_on_c, 14, 46, 92
18, 370920, Note_off_c, 14, 46, 64
18, 371040, Note_on_c, 14, 48, 92
18, 371440, Note_off_c, 14, 48, 64
18, 371520, Note_on_c, 14, 49, 92
18, 372360, Note_off_c, 14, 49, 64
18, 372480, Note_on_c, 14, 46, 92
18, 372880, Note_off_c, 14, 46, 64
18, 372960, Note_on_c, 14, 48, 92
18, 373555, Note_off_c, 14, 48, 64
18, 373560, Note_on_c, 14, 52, 92
18, 373680, Note_off_c, 14, 52, 64
18, 373680, Note_on_c, 14, 50, 92
18, 373800, Note_off_c, 14, 50, 64
18, 373800, Note_on_c, 14, 53, 92
18, 373915, Note_off_c, 14, 53, 64
18, 373920, Note_on_c, 14, 52, 92
18, 374040, Note_off_c, 14, 52, 64
18, 374040, Note_on_c, 14, 55, 92
18, 374160, Note_off_c, 14, 55, 64
18, 374160, Note_on_c, 14, 52, 92
18, 374280, Note_off_c, 14, 52, 64
18, 374280, Note_on_c, 14, 55, 92
18, 374395, Note_off_c, 14, 55, 64
18, 374400, Note_on_c, 14, 44, 92
18, 374800, Note_off_c, 14, 44, 64
18, 375000, Note_on_c, 14, 48, 92
18, 375120, Note_off_c, 14, 48, 64
18, 375120, Note_on_c, 14, 46, 92
18, 375240, Note_off_c, 14, 46, 64
18, 375240, Note_on_c, 14, 49, 92
18, 375355, Note_off_c, 14, 49, 64
18, 375360, Note_on_c, 14, 48, 92
18, 375480, Note_off_c, 14, 48, 64
18, 375480, Note_on_c, 14, 49, 92
18, 375600, Note_off_c, 14, 49, 64
18, 375600, Note_on_c, 14, 48, 92
18, 375720, Note_off_c, 14, 48, 64
18, 375720, Note_on_c, 14, 49, 92
18, 375835, Note_off_c, 14, 49, 64
18, 375840, Note_on_c, 14, 38, 92
18, 376240, Note_off_c, 14, 38, 64
18, 376320, Note_on_c, 14, 40, 92
18, 376915, Note_off_c, 14, 40, 64
18, 376920, Note_on_c, 14, 52, 92
18, 377040, Note_off_c, 14, 52, 64
18, 377040, Note_on_c, 14, 50, 92
18, 377160, Note_off_c, 14, 50, 64
18, 377160, Note_on_c, 14, 52, 92
18, 377275, Note_off_c, 14, 52, 64
18, 377280, Note_on_c, 14, 41, 92
18, 377680, Note_off_c, 14, 41, 64
18, 377880, Note_on_c, 14, 53, 92
18, 378000, Note_off_c, 14, 53, 64
18, 378000, Note_on_c, 14, 51, 92
18, 378120, Note_off_c, 14, 51, 64
18, 378120, Note_on_c, 14, 53, 92
18, 378235, Note_off_c, 14, 53, 64
18, 378240, Note_on_c, 14, 48, 92
18, 378640, Note_off_c, 14, 48, 64
18, 378720, Note_on_c, 14, 50, 92
18, 379560, Note_off_c, 14, 50, 64
18, 379800, Note_on_c, 14, 51, 92
18, 379920, Note_off_c, 14, 51, 64
18, 379920, Note_on_c, 14, 50, 92
18, 380040, Note_off_c, 14, 50, 64
18, 380040, Note_on_c, 14, 51, 92
18, 380155, Note_off_c, 14, 51, 64
18, 380160, Note_on_c, 14, 48, 92
18, 380560, Note_off_c, 14, 48, 64
18, 380640, Note_on_c, 14, 50, 92
18, 381040, Note_off_c, 14, 50, 64
18, 381240, Note_on_c, 14, 51, 92
18, 381360, Note_off_c, 14, 51, 64
18, 381360, Note_on_c, 14, 50, 92
18, 381480, Note_off_c, 14, 50, 64
18, 381480, Note_on_c, 14, 51, 92
18, 381595, Note_off_c, 14, 51, 64
18, 381600, Note_on_c, 14, 48, 92
18, 382000, Note_off_c, 14, 48, 64
18, 382080, Note_on_c, 14, 50, 92
18, 382480, Note_off_c, 14, 50, 64
18, 382680, Note_on_c, 14, 51, 92
18, 382800, Note_off_c, 14, 51, 64
18, 382800, Note_on_c, 14, 50, 92
18, 382920, Note_off_c, 14, 50, 64
18, 382920, Note_on_c, 14, 51, 92
18, 383035, Note_off_c, 14, 51, 64
18, 383040, Note_on_c, 14, 48, 92
18, 383440, Note_off_c, 14, 48, 64
18, 383520, Note_on_c, 14, 50, 92
18, 383920, Note_off_c, 14, 50, 64
18, 384000, Note_on_c, 14, 38, 92
18, 384400, Note_off_c, 14, 38, 64
18, 384480, Note_on_c, 14, 43, 92
18, 384720, Note_off_c, 14, 43, 64
18, 384720, Note_on_c, 14, 45, 92
18, 384955, Note_off_c, 14, 45, 64
18, 384960, Note_on_c, 14, 47, 92
18, 385200, Note_off_c, 14, 47, 64
18, 385200, Note_on_c, 14, 48, 92
18, 385435, Note_off_c, 14, 48, 64
18, 385440, Note_on_c, 14, 50, 92
18, 385680, Note_off_c, 14, 50, 64
18, 385680, Note_on_c, 14, 47, 92
18, 385915, Note_off_c, 14, 47, 64
18, 385920, Note_on_c, 14, 48, 92
18, 386320, Note_off_c, 14, 48, 64
18, 387120, Note_on_c, 14, 48, 92
18, 387355, Note_off_c, 14, 48, 64
18, 387360, Note_on_c, 14, 53, 92
18, 387480, Note_off_c, 14, 53, 64
18, 387480, Note_on_c, 14, 56, 92
18, 387600, Note_off_c, 14, 56, 64
18, 387600, Note_on_c, 14, 55, 92
18, 387720, Note_off_c, 14, 55, 64
18, 387720, Note_on_c, 14, 58, 92
18, 387835, Note_off_c, 14, 58, 64
18, 387840, Note_on_c, 14, 56, 92
18, 387960, Note_off_c, 14, 56, 64
18, 387960, Note_on_c, 14, 60, 92
18, 388080, Note_off_c, 14, 60, 64
18, 388080, Note_on_c, 14, 55, 92
18, 388200, Note_off_c, 14, 55, 64
18, 388200, Note_on_c, 14, 58, 92
18, 388315, Note_off_c, 14, 58, 64
18, 388320, Note_on_c, 14, 53, 92
18, 388440, Note_off_c, 14, 53, 64
18, 388440, Note_on_c, 14, 56, 92
18, 388560, Note_off_c, 14, 56, 64
18, 388560, Note_on_c, 14, 51, 92
18, 388680, Note_off_c, 14, 51, 64
18, 388680, Note_on_c, 14, 55, 92
18, 388795, Note_off_c, 14, 55, 64
18, 388800, Note_on_c, 14, 50, 92
18, 388920, Note_off_c, 14, 50, 64
18, 388920, Note_on_c, 14, 53, 92
18, 389040, Note_off_c, 14, 53, 64
18, 389040, Note_on_c, 14, 51, 92
18, 389160, Note_off_c, 14, 51, 64
18, 389160, Note_on_c, 14, 55, 92
18, 389275, Note_off_c, 14, 55, 64
18, 389280, Note_on_c, 14, 53, 92
18, 389400, Note_off_c, 14, 53, 64
18, 389400, Note_on_c, 14, 56, 92
18, 389520, Note_off_c, 14, 56, 64
18, 389520, Note_on_c, 14, 51, 92
18, 389640, Note_off_c, 14, 51, 64
18, 389640, Note_on_c, 14, 55, 92
18, 389755, Note_off_c, 14, 55, 64
18, 389760, Note_on_c, 14, 50, 92
18, 389880, Note_off_c, 14, 50, 64
18, 389880, Note_on_c, 14, 53, 92
18, 390000, Note_off_c, 14, 53, 64
18, 390000, Note_on_c, 14, 48, 92
18, 390120, Note_off_c, 14, 48, 64
18, 390120, Note_on_c, 14, 51, 92
18, 390235, Note_off_c, 14, 51, 64
18, 390240, Note_on_c, 14, 47, 92
18, 390640, Note_off_c, 14, 47, 64
18, 390720, Note_on_c, 14, 48, 92
18, 391120, Note_off_c, 14, 48, 64
18, 391200, Note_on_c, 14, 44, 92
18, 391600, Note_off_c, 14, 44, 64
18, 391680, Note_on_c, 14, 43, 92
18, 392080, Note_off_c, 14, 43, 64
18, 392280, Note_on_c, 14, 55, 92
18, 392400, Note_off_c, 14, 55, 64
18, 392400, Note_on_c, 14, 53, 92
18, 392520, Note_off_c, 14, 53, 64
18, 392520, Note_on_c, 14, 55, 92
18, 392635, Note_off_c, 14, 55, 64
18, 392640, Note_on_c, 14, 48, 92
18, 392760, Note_off_c, 14, 48, 64
18, 392760, Note_on_c, 14, 60, 92
18, 392880, Note_off_c, 14, 60, 64
18, 392880, Note_on_c, 14, 58, 92
18, 393000, Note_off_c, 14, 58, 64
18, 393000, Note_on_c, 14, 60, 92
18, 393115, Note_off_c, 14, 60, 64
18, 393120, Note_on_c, 14, 56, 92
18, 393240, Note_off_c, 14, 56, 64
18, 393240, Note_on_c, 14, 60, 92
18, 393360, Note_off_c, 14, 60, 64
18, 393360, Note_on_c, 14, 56, 92
18, 393480, Note_off_c, 14, 56, 64
18, 393480, Note_on_c, 14, 60, 92
18, 393595, Note_off_c, 14, 60, 64
18, 393600, Note_on_c, 14, 56, 92
18, 393720, Note_off_c, 14, 56, 64
18, 393720, Note_on_c, 14, 58, 92
18, 393840, Note_off_c, 14, 58, 64
18, 393840, Note_on_c, 14, 56, 92
18, 393960, Note_off_c, 14, 56, 64
18, 393960, Note_on_c, 14, 58, 92
18, 394075, Note_off_c, 14, 58, 64
18, 394080, Note_on_c, 14, 55, 92
18, 394200, Note_off_c, 14, 55, 64
18, 394200, Note_on_c, 14, 58, 92
18, 394320, Note_off_c, 14, 58, 64
18, 394320, Note_on_c, 14, 55, 92
18, 394440, Note_off_c, 14, 55, 64
18, 394440, Note_on_c, 14, 58, 92
18, 394555, Note_off_c, 14, 58, 64
18, 394560, Note_on_c, 14, 53, 92
18, 394680, Note_off_c, 14, 53, 64
18, 394680, Note_on_c, 14, 56, 92
18, 394800, Note_off_c, 14, 56, 64
18, 394800, Note_on_c, 14, 55, 92
18, 394920, Note_off_c, 14, 55, 64
18, 394920, Note_on_c, 14, 58, 92
18, 395035, Note_off_c, 14, 58, 64
18, 395040, Note_on_c, 14, 56, 92
18, 395160, Note_off_c, 14, 56, 64
18, 395160, Note_on_c, 14, 58, 92
18, 395280, Note_off_c, 14, 58, 64
18, 395280, Note_on_c, 14, 56, 92
18, 395400, Note_off_c, 14, 56, 64
18, 395400, Note_on_c, 14, 58, 92
18, 395515, Note_off_c, 14, 58, 64
18, 395520, Note_on_c, 14, 56, 92
18, 395640, Note_off_c, 14, 56, 64
18, 395640, Note_on_c, 14, 58, 92
18, 395760, Note_off_c, 14, 58, 64
18, 395760, Note_on_c, 14, 56, 92
18, 395880, Note_off_c, 14, 56, 64
18, 395880, Note_on_c, 14, 58, 92
18, 395995, Note_off_c, 14, 58, 64
18, 396000, Note_on_c, 14, 55, 92
18, 397555, Note_off_c, 14, 55, 64
18, 397560, Note_on_c, 14, 59, 92
18, 397680, Note_off_c, 14, 59, 64
18, 397680, Note_on_c, 14, 55, 92
18, 397800, Note_off_c, 14, 55, 64
18, 397800, Note_on_c, 14, 59, 92
18, 397915, Note_off_c, 14, 59, 64
18, 397920, Note_on_c, 14, 51, 92
18, 398040, Note_off_c, 14, 51, 64
18, 398040, Note_on_c, 14, 55, 92
18, 398160, Note_off_c, 14, 55, 64
18, 398160, Note_on_c, 14, 51, 92
18, 398280, Note_off_c, 14, 51, 64
18, 398280, Note_on_c, 14, 55, 92
18, 398395, Note_off_c, 14, 55, 64
18, 398400, Note_on_c, 14, 48, 92
18, 398520, Note_off_c, 14, 48, 64
18, 398520, Note_on_c, 14, 51, 92
18, 398640, Note_off_c, 14, 51, 64
18, 398640, Note_on_c, 14, 48, 92
18, 398760, Note_off_c, 14, 48, 64
18, 398760, Note_on_c, 14, 51, 92
18, 398875, Note_off_c, 14, 51, 64
18, 398880, Note_on_c, 14, 53, 92
18, 399000, Note_off_c, 14, 53, 64
18, 399000, Note_on_c, 14, 56, 92
18, 399120, Note_off_c, 14, 56, 64
18, 399120, Note_on_c, 14, 53, 92
18, 399240, Note_off_c, 14, 53, 64
18, 399240, Note_on_c, 14, 56, 92
18, 399355, Note_off_c, 14, 56, 64
18, 399360, Note_on_c, 14, 50, 92
18, 399480, Note_off_c, 14, 50, 64
18, 399480, Note_on_c, 14, 53, 92
18, 399600, Note_off_c, 14, 53, 64
18, 399600, Note_on_c, 14, 50, 92
18, 399720, Note_off_c, 14, 50, 64
18, 399720, Note_on_c, 14, 53, 92
18, 399835, Note_off_c, 14, 53, 64
18, 399840, Note_on_c, 14, 47, 92
18, 399960, Note_off_c, 14, 47, 64
18, 399960, Note_on_c, 14, 50, 92
18, 400080, Note_off_c, 14, 50, 64
18, 400080, Note_on_c, 14, 47, 92
18, 400200, Note_off_c, 14, 47, 64
18, 400200, Note_on_c, 14, 50, 92
18, 400315, Note_off_c, 14, 50, 64
18, 400320, Note_on_c, 14, 51, 92
18, 400440, Note_off_c, 14, 51, 64
18, 400440, Note_on_c, 14, 55, 92
18, 400560, Note_off_c, 14, 55, 64
18, 400560, Note_on_c, 14, 51, 92
18, 400680, Note_off_c, 14, 51, 64
18, 400680, Note_on_c, 14, 55, 92
18, 400795, Note_off_c, 14, 55, 64
18, 400800, Note_on_c, 14, 48, 92
18, 400920, Note_off_c, 14, 48, 64
18, 400920, Note_on_c, 14, 51, 92
18, 401040, Note_off_c, 14, 51, 64
18, 401040, Note_on_c, 14, 48, 92
18, 401160, Note_off_c, 14, 48, 64
18, 401160, Note_on_c, 14, 51, 92
18, 401275, Note_off_c, 14, 51, 64
18, 401280, Note_on_c, 14, 45, 92
18, 401400, Note_off_c, 14, 45, 64
18, 401400, Note_on_c, 14, 48, 92
18, 401520, Note_off_c, 14, 48, 64
18, 401520, Note_on_c, 14, 45, 92
18, 401640, Note_off_c, 14, 45, 64
18, 401640, Note_on_c, 14, 48, 92
18, 401755, Note_off_c, 14, 48, 64
18, 401760, Note_on_c, 14, 50, 92
18, 401880, Note_off_c, 14, 50, 64
18, 401880, Note_on_c, 14, 53, 92
18, 402000, Note_off_c, 14, 53, 64
18, 402000, Note_on_c, 14, 50, 92
18, 402120, Note_off_c, 14, 50, 64
18, 402120, Note_on_c, 14, 53, 92
18, 402235, Note_off_c, 14, 53, 64
18, 402240, Note_on_c, 14, 47, 92
18, 402360, Note_off_c, 14, 47, 64
18, 402360, Note_on_c, 14, 50, 92
18, 402480, Note_off_c, 14, 50, 64
18, 402480, Note_on_c, 14, 47, 92
18, 402600, Note_off_c, 14, 47, 64
18, 402600, Note_on_c, 14, 50, 92
18, 402715, Note_off_c, 14, 50, 64
18, 402720, Note_on_c, 14, 43, 92
18, 402840, Note_off_c, 14, 43, 64
18, 402840, Note_on_c, 14, 48, 92
18, 402960, Note_off_c, 14, 48, 64
18, 402960, Note_on_c, 14, 43, 92
18, 403080, Note_off_c, 14, 43, 64
18, 403080, Note_on_c, 14, 47, 92
18, 403195, Note_off_c, 14, 47, 64
18, 403200, Note_on_c, 14, 48, 92
18, 403320, Note_off_c, 14, 48, 64
18, 403320, Note_on_c, 14, 51, 92
18, 403440, Note_off_c, 14, 51, 64
18, 403440, Note_on_c, 14, 48, 92
18, 403560, Note_off_c, 14, 48, 64
18, 403560, Note_on_c, 14, 51, 92
18, 403675, Note_off_c, 14, 51, 64
18, 403680, Note_on_c, 14, 44, 92
18, 403800, Note_off_c, 14, 44, 64
18, 403800, Note_on_c, 14, 48, 92
18, 403920, Note_off_c, 14, 48, 64
18, 403920, Note_on_c, 14, 44, 92
18, 404040, Note_off_c, 14, 44, 64
18, 404040, Note_on_c, 14, 48, 92
18, 404155, Note_off_c, 14, 48, 64
18, 404160, Note_on_c, 14, 41, 92
18, 404280, Note_off_c, 14, 41, 64
18, 404280, Note_on_c, 14, 44, 92
18, 404400, Note_off_c, 14, 44, 64
18, 404400, Note_on_c, 14, 41, 92
18, 404520, Note_off_c, 14, 41, 64
18, 404520, Note_on_c, 14, 44, 92
18, 404635, Note_off_c, 14, 44, 64
18, 404640, Note_on_c, 14, 43, 92
18, 405040, Note_off_c, 14, 43, 64
18, 405120, Note_on_c, 14, 43, 92
18, 405355, Note_off_c, 14, 43, 64
18, 405360, Note_on_c, 14, 46, 92
18, 405595, Note_off_c, 14, 46, 64
18, 405600, Note_on_c, 14, 48, 92
18, 405835, Note_off_c, 14, 48, 64
18, 405840, Note_on_c, 14, 51, 92
18, 405955, Note_off_c, 14, 51, 64
18, 405960, Note_on_c, 14, 48, 92
18, 406075, Note_off_c, 14, 48, 64
18, 406080, Note_on_c, 14, 55, 92
18, 406480, Note_off_c, 14, 55, 64
18, 406680, Note_on_c, 14, 55, 92
18, 406800, Note_off_c, 14, 55, 64
18, 406800, Note_on_c, 14, 53, 92
18, 406920, Note_off_c, 14, 53, 64
18, 406920, Note_on_c, 14, 55, 92
18, 407035, Note_off_c, 14, 55, 64
18, 407040, Note_on_c, 14, 51, 92
18, 407160, Note_off_c, 14, 51, 64
18, 407160, Note_on_c, 14, 55, 92
18, 407280, Note_off_c, 14, 55, 64
18, 407280, Note_on_c, 14, 48, 92
18, 407400, Note_off_c, 14, 48, 64
18, 407400, Note_on_c, 14, 51, 92
18, 407515, Note_off_c, 14, 51, 64
18, 407520, Note_on_c, 14, 47, 92
18, 407920, Note_off_c, 14, 47, 64
18, 408120, Note_on_c, 14, 55, 92
18, 408240, Note_off_c, 14, 55, 64
18, 408240, Note_on_c, 14, 53, 92
18, 408360, Note_off_c, 14, 53, 64
18, 408360, Note_on_c, 14, 55, 92
18, 408475, Note_off_c, 14, 55, 64
18, 408480, Note_on_c, 14, 51, 92
18, 408600, Note_off_c, 14, 51, 64
18, 408600, Note_on_c, 14, 55, 92
18, 408720, Note_off_c, 14, 55, 64
18, 408720, Note_on_c, 14, 48, 92
18, 408840, Note_off_c, 14, 48, 64
18, 408840, Note_on_c, 14, 51, 92
18, 408955, Note_off_c, 14, 51, 64
18, 408960, Note_on_c, 14, 43, 92
18, 409360, Note_off_c, 14, 43, 64
18, 409560, Note_on_c, 14, 55, 92
18, 409680, Note_off_c, 14, 55, 64
18, 409680, Note_on_c, 14, 53, 92
18, 409800, Note_off_c, 14, 53, 64
18, 409800, Note_on_c, 14, 55, 92
18, 409915, Note_off_c, 14, 55, 64
18, 409920, Note_on_c, 14, 51, 92
18, 410040, Note_off_c, 14, 51, 64
18, 410040, Note_on_c, 14, 55, 92
18, 410160, Note_off_c, 14, 55, 64
18, 410160, Note_on_c, 14, 48, 92
18, 410280, Note_off_c, 14, 48, 64
18, 410280, Note_on_c, 14, 51, 92
18, 410395, Note_off_c, 14, 51, 64
18, 410400, Note_on_c, 14, 41, 92
18, 410800, Note_off_c, 14, 41, 64
18, 411120, Note_on_c, 14, 53, 92
18, 411355, Note_off_c, 14, 53, 64
18, 411360, Note_on_c, 14, 51, 92
18, 411595, Note_off_c, 14, 51, 64
18, 411600, Note_on_c, 14, 48, 92
18, 411835, Note_off_c, 14, 48, 64
18, 411840, Note_on_c, 14, 53, 92
18, 412240, Note_off_c, 14, 53, 64
18, 412320, Note_on_c, 14, 55, 92
18, 412720, Note_off_c, 14, 55, 64
18, 412800, Note_on_c, 14, 43, 92
18, 413200, Note_off_c, 14, 43, 64
18, 413280, Note_on_c, 14, 36, 99
18, 413760, Note_off_c, 14, 36, 64
18, 413880, Note_on_c, 14, 48, 108
18, 414000, Note_off_c, 14, 48, 64
18, 414000, Note_on_c, 14, 52, 108
18, 414120, Note_off_c, 14, 52, 64
18, 414120, Note_on_c, 14, 48, 108
18, 414240, Note_off_c, 14, 48, 64
18, 414240, Note_on_c, 14, 53, 108
18, 414360, Note_off_c, 14, 53, 64
18, 414360, Note_on_c, 14, 48, 108
18, 414480, Note_off_c, 14, 48, 64
18, 414480, Note_on_c, 14, 56, 108
18, 414600, Note_off_c, 14, 56, 64
18, 414600, Note_on_c, 14, 53, 108
18, 414720, Note_off_c, 14, 53, 64
18, 414720, Note_on_c, 14, 60, 108
18, 415200, Note_off_c, 14, 60, 64
18, 415320, Note_on_c, 14, 60, 108
18, 415440, Note_off_c, 14, 60, 64
18, 415440, Note_on_c, 14, 58, 108
18, 415560, Note_off_c, 14, 58, 64
18, 415560, Note_on_c, 14, 60, 108
18, 415680, Note_off_c, 14, 60, 64
18, 415680, Note_on_c, 14, 56, 108
18, 415800, Note_off_c, 14, 56, 64
18, 415800, Note_on_c, 14, 60, 108
18, 415920, Note_off_c, 14, 60, 64
18, 415920, Note_on_c, 14, 53, 108
18, 416040, Note_off_c, 14, 53, 64
18, 416040, Note_on_c, 14, 56, 108
18, 416160, Note_off_c, 14, 56, 64
18, 416160, Note_on_c, 14, 52, 108
18, 416640, Note_off_c, 14, 52, 64
18, 416760, Note_on_c, 14, 60, 127
18, 416875, Note_off_c, 14, 60, 64
18, 416880, Note_on_c, 14, 58, 127
18, 416995, Note_off_c, 14, 58, 64
18, 417000, Note_on_c, 14, 60, 127
18, 417115, Note_off_c, 14, 60, 64
18, 417120, Note_on_c, 14, 56, 127
18, 417235, Note_off_c, 14, 56, 64
18, 417240, Note_on_c, 14, 60, 108
18, 417360, Note_off_c, 14, 60, 64
18, 417360, Note_on_c, 14, 53, 108
18, 417480, Note_off_c, 14, 53, 64
18, 417480, Note_on_c, 14, 56, 108
18, 417600, Note_off_c, 14, 56, 64
18, 417600, Note_on_c, 14, 48, 108
18, 418080, Note_off_c, 14, 48, 64
18, 418200, Note_on_c, 14, 48, 127
18, 418315, Note_off_c, 14, 48, 64
18, 418320, Note_on_c, 14, 46, 127
18, 418435, Note_off_c, 14, 46, 64
18, 418440, Note_on_c, 14, 48, 127
18, 418555, Note_off_c, 14, 48, 64
18, 418560, Note_on_c, 14, 56, 127
18, 418795, Note_off_c, 14, 56, 64
18, 418800, Note_on_c, 14, 60, 108
18, 419040, Note_off_c, 14, 60, 64
18, 419040, Note_on_c, 14, 56, 108
18, 419040, Note_on_c, 14, 48, 108
18, 420000, Note_off_c, 14, 48, 64
18, 420000, Note_off_c, 14, 56, 64
18, 420000, Note_on_c, 14, 53, 108
18, 420000, Note_on_c, 14, 48, 108
18, 420480, Note_off_c, 14, 48, 64
18, 420480, Note_off_c, 14, 53, 64
18, 420480, Note_on_c, 14, 55, 108
18, 420480, Note_on_c, 14, 48, 108
18, 421800, Note_off_c, 14, 48, 64
18, 421800, Note_off_c, 14, 55, 64
18, 421800, End_track
19, 0, Start_track
19, 0, MIDI_port, 0
19, 0, Channel_prefix, 15
19, 0, Control_c, 15, 7, 127
19, 0, Control_c, 15, 10, 127
19, 0, Control_c, 15, 91, 127
19, 0, Program_c, 15, 48
19, 960, Note_on_c, 15, 36, 30
19, 1440, Note_off_c, 15, 36, 64
19, 1440, Note_on_c, 15, 43, 30
19, 2400, Note_off_c, 15, 43, 64
19, 2400, Note_on_c, 15, 39, 30
19, 2880, Note_off_c, 15, 39, 64
19, 2880, Note_on_c, 15, 41, 30
19, 3840, Note_off_c, 15, 41, 64
19, 3840, Note_on_c, 15, 43, 30
19, 4320, Note_off_c, 15, 43, 64
19, 4320, Note_on_c, 15, 44, 30
19, 5280, Note_off_c, 15, 44, 64
19, 5280, Note_on_c, 15, 41, 30
19, 5760, Note_off_c, 15, 41, 64
19, 5760, Note_on_c, 15, 43, 30
19, 6720, Note_off_c, 15, 43, 64
19, 6720, Note_on_c, 15, 38, 30
19, 7200, Note_off_c, 15, 38, 64
19, 7200, Note_on_c, 15, 39, 30
19, 8160, Note_off_c, 15, 39, 64
19, 8160, Note_on_c, 15, 35, 30
19, 8640, Note_off_c, 15, 35, 64
19, 8640, Note_on_c, 15, 36, 30
19, 9600, Note_off_c, 15, 36, 64
19, 9600, Note_on_c, 15, 41, 30
19, 10080, Note_off_c, 15, 41, 64
19, 10080, Note_on_c, 15, 43, 30
19, 11520, Note_off_c, 15, 43, 64
19, 11520, Note_on_c, 15, 36, 30
19, 12480, Note_off_c, 15, 36, 64
19, 12480, Note_on_c, 15, 36, 30
19, 12960, Note_off_c, 15, 36, 64
19, 12960, Note_on_c, 15, 43, 30
19, 13920, Note_off_c, 15, 43, 64
19, 13920, Note_on_c, 15, 39, 30
19, 14400, Note_off_c, 15, 39, 64
19, 14400, Note_on_c, 15, 41, 30
19, 15360, Note_off_c, 15, 41, 64
19, 15360, Note_on_c, 15, 43, 30
19, 15840, Note_off_c, 15, 43, 64
19, 15840, Note_on_c, 15, 44, 30
19, 16800, Note_off_c, 15, 44, 64
19, 16800, Note_on_c, 15, 41, 30
19, 17280, Note_off_c, 15, 41, 64
19, 17280, Note_on_c, 15, 43, 30
19, 18240, Note_off_c, 15, 43, 64
19, 18240, Note_on_c, 15, 38, 30
19, 18720, Note_off_c, 15, 38, 64
19, 18720, Note_on_c, 15, 39, 30
19, 19680, Note_off_c, 15, 39, 64
19, 19680, Note_on_c, 15, 35, 30
19, 20160, Note_off_c, 15, 35, 64
19, 20160, Note_on_c, 15, 36, 30
19, 21120, Note_off_c, 15, 36, 64
19, 21120, Note_on_c, 15, 41, 30
19, 21600, Note_off_c, 15, 41, 64
19, 21600, Note_on_c, 15, 43, 30
19, 23040, Note_off_c, 15, 43, 64
19, 23040, Note_on_c, 15, 36, 30
19, 24000, Note_off_c, 15, 36, 64
19, 24000, Note_on_c, 15, 36, 30
19, 24480, Note_off_c, 15, 36, 64
19, 24480, Note_on_c, 15, 43, 30
19, 25440, Note_off_c, 15, 43, 64
19, 25440, Note_on_c, 15, 39, 30
19, 25920, Note_off_c, 15, 39, 64
19, 25920, Note_on_c, 15, 41, 30
19, 26880, Note_off_c, 15, 41, 64
19, 26880, Note_on_c, 15, 43, 30
19, 27360, Note_off_c, 15, 43, 64
19, 27360, Note_on_c, 15, 44, 30
19, 28320, Note_off_c, 15, 44, 64
19, 28320, Note_on_c, 15, 41, 30
19, 28800, Note_off_c, 15, 41, 64
19, 28800, Note_on_c, 15, 43, 30
19, 29760, Note_off_c, 15, 43, 64
19, 29760, Note_on_c, 15, 38, 30
19, 30240, Note_off_c, 15, 38, 64
19, 30240, Note_on_c, 15, 39, 30
19, 31200, Note_off_c, 15, 39, 64
19, 31200, Note_on_c, 15, 35, 30
19, 31680, Note_off_c, 15, 35, 64
19, 31680, Note_on_c, 15, 36, 30
19, 32640, Note_off_c, 15, 36, 64
19, 32640, Note_on_c, 15, 41, 30
19, 33120, Note_off_c, 15, 41, 64
19, 33120, Note_on_c, 15, 43, 32
19, 34560, Note_off_c, 15, 43, 64
19, 34560, Note_on_c, 15, 36, 39
19, 35400, Note_off_c, 15, 36, 64
19, 35520, Note_on_c, 15, 36, 45
19, 35920, Note_off_c, 15, 36, 64
19, 36000, Note_on_c, 15, 43, 45
19, 36840, Note_off_c, 15, 43, 64
19, 36960, Note_on_c, 15, 39, 45
19, 37360, Note_off_c, 15, 39, 64
19, 37440, Note_on_c, 15, 41, 45
19, 38280, Note_off_c, 15, 41, 64
19, 38400, Note_on_c, 15, 43, 45
19, 38800, Note_off_c, 15, 43, 64
19, 38880, Note_on_c, 15, 44, 45
19, 39720, Note_off_c, 15, 44, 64
19, 39840, Note_on_c, 15, 41, 45
19, 40240, Note_off_c, 15, 41, 64
19, 40320, Note_on_c, 15, 43, 45
19, 41160, Note_off_c, 15, 43, 64
19, 41280, Note_on_c, 15, 38, 45
19, 41680, Note_off_c, 15, 38, 64
19, 41760, Note_on_c, 15, 39, 45
19, 42600, Note_off_c, 15, 39, 64
19, 42720, Note_on_c, 15, 35, 45
19, 43120, Note_off_c, 15, 35, 64
19, 43200, Note_on_c, 15, 36, 45
19, 44040, Note_off_c, 15, 36, 64
19, 44160, Note_on_c, 15, 41, 45
19, 44560, Note_off_c, 15, 41, 64
19, 44640, Note_on_c, 15, 43, 45
19, 45960, Note_off_c, 15, 43, 64
19, 46080, Note_on_c, 15, 36, 45
19, 46920, Note_off_c, 15, 36, 64
19, 47040, Note_on_c, 15, 36, 45
19, 47440, Note_off_c, 15, 36, 64
19, 47520, Note_on_c, 15, 43, 45
19, 48360, Note_off_c, 15, 43, 64
19, 48480, Note_on_c, 15, 39, 45
19, 48880, Note_off_c, 15, 39, 64
19, 48960, Note_on_c, 15, 41, 45
19, 49800, Note_off_c, 15, 41, 64
19, 49920, Note_on_c, 15, 43, 45
19, 50320, Note_off_c, 15, 43, 64
19, 50400, Note_on_c, 15, 44, 45
19, 51240, Note_off_c, 15, 44, 64
19, 51360, Note_on_c, 15, 41, 45
19, 51760, Note_off_c, 15, 41, 64
19, 51840, Note_on_c, 15, 43, 45
19, 52680, Note_off_c, 15, 43, 64
19, 52800, Note_on_c, 15, 38, 45
19, 53200, Note_off_c, 15, 38, 64
19, 53280, Note_on_c, 15, 39, 45
19, 54120, Note_off_c, 15, 39, 64
19, 54240, Note_on_c, 15, 35, 45
19, 54640, Note_off_c, 15, 35, 64
19, 54720, Note_on_c, 15, 36, 45
19, 55560, Note_off_c, 15, 36, 64
19, 55680, Note_on_c, 15, 41, 45
19, 56080, Note_off_c, 15, 41, 64
19, 56160, Note_on_c, 15, 43, 45
19, 57480, Note_off_c, 15, 43, 64
19, 57600, Note_on_c, 15, 36, 54
19, 58440, Note_off_c, 15, 36, 64
19, 58800, Note_on_c, 15, 48, 60
19, 58920, Note_off_c, 15, 48, 64
19, 58920, Note_on_c, 15, 36, 60
19, 59035, Note_off_c, 15, 36, 64
19, 59040, Note_on_c, 15, 43, 60
19, 59440, Note_off_c, 15, 43, 64
19, 60240, Note_on_c, 15, 39, 60
19, 60360, Note_off_c, 15, 39, 64
19, 60360, Note_on_c, 15, 36, 60
19, 60475, Note_off_c, 15, 36, 64
19, 60480, Note_on_c, 15, 41, 60
19, 60880, Note_off_c, 15, 41, 64
19, 61680, Note_on_c, 15, 43, 60
19, 61800, Note_off_c, 15, 43, 64
19, 61800, Note_on_c, 15, 39, 60
19, 61915, Note_off_c, 15, 39, 64
19, 61920, Note_on_c, 15, 44, 60
19, 62320, Note_off_c, 15, 44, 64
19, 63120, Note_on_c, 15, 41, 60
19, 63240, Note_off_c, 15, 41, 64
19, 63240, Note_on_c, 15, 38, 60
19, 63355, Note_off_c, 15, 38, 64
19, 63360, Note_on_c, 15, 43, 60
19, 63760, Note_off_c, 15, 43, 64
19, 64560, Note_on_c, 15, 43, 60
19, 64680, Note_off_c, 15, 43, 64
19, 64680, Note_on_c, 15, 38, 60
19, 64795, Note_off_c, 15, 38, 64
19, 64800, Note_on_c, 15, 39, 60
19, 65200, Note_off_c, 15, 39, 64
19, 66000, Note_on_c, 15, 43, 60
19, 66120, Note_off_c, 15, 43, 64
19, 66120, Note_on_c, 15, 35, 60
19, 66235, Note_off_c, 15, 35, 64
19, 66240, Note_on_c, 15, 36, 60
19, 66640, Note_off_c, 15, 36, 64
19, 67200, Note_on_c, 15, 41, 60
19, 67600, Note_off_c, 15, 41, 64
19, 67680, Note_on_c, 15, 43, 60
19, 69000, Note_off_c, 15, 43, 64
19, 69120, Note_on_c, 15, 36, 60
19, 69960, Note_off_c, 15, 36, 64
19, 70080, Note_on_c, 15, 36, 60
19, 70480, Note_off_c, 15, 36, 64
19, 70560, Note_on_c, 15, 43, 60
19, 71400, Note_off_c, 15, 43, 64
19, 71520, Note_on_c, 15, 39, 60
19, 71920, Note_off_c, 15, 39, 64
19, 72000, Note_on_c, 15, 41, 60
19, 72840, Note_off_c, 15, 41, 64
19, 72960, Note_on_c, 15, 43, 60
19, 73360, Note_off_c, 15, 43, 64
19, 73440, Note_on_c, 15, 44, 60
19, 74280, Note_off_c, 15, 44, 64
19, 74400, Note_on_c, 15, 41, 60
19, 74800, Note_off_c, 15, 41, 64
19, 74880, Note_on_c, 15, 43, 60
19, 75720, Note_off_c, 15, 43, 64
19, 75840, Note_on_c, 15, 38, 60
19, 76240, Note_off_c, 15, 38, 64
19, 76320, Note_on_c, 15, 39, 60
19, 77160, Note_off_c, 15, 39, 64
19, 77280, Note_on_c, 15, 35, 60
19, 77680, Note_off_c, 15, 35, 64
19, 77760, Note_on_c, 15, 36, 60
19, 78600, Note_off_c, 15, 36, 64
19, 78720, Note_on_c, 15, 41, 60
19, 79120, Note_off_c, 15, 41, 64
19, 79200, Note_on_c, 15, 43, 60
19, 80520, Note_off_c, 15, 43, 64
19, 80640, Note_on_c, 15, 36, 60
19, 81480, Note_off_c, 15, 36, 64
19, 81600, Note_on_c, 15, 36, 60
19, 82000, Note_off_c, 15, 36, 64
19, 82080, Note_on_c, 15, 43, 60
19, 82920, Note_off_c, 15, 43, 64
19, 83040, Note_on_c, 15, 39, 60
19, 83440, Note_off_c, 15, 39, 64
19, 83520, Note_on_c, 15, 41, 60
19, 84360, Note_off_c, 15, 41, 64
19, 84480, Note_on_c, 15, 43, 60
19, 84880, Note_off_c, 15, 43, 64
19, 84960, Note_on_c, 15, 44, 60
19, 85800, Note_off_c, 15, 44, 64
19, 85920, Note_on_c, 15, 41, 60
19, 86320, Note_off_c, 15, 41, 64
19, 86400, Note_on_c, 15, 43, 60
19, 87240, Note_off_c, 15, 43, 64
19, 87360, Note_on_c, 15, 38, 60
19, 87760, Note_off_c, 15, 38, 64
19, 87840, Note_on_c, 15, 39, 60
19, 88680, Note_off_c, 15, 39, 64
19, 88800, Note_on_c, 15, 35, 60
19, 89200, Note_off_c, 15, 35, 64
19, 89280, Note_on_c, 15, 36, 60
19, 90120, Note_off_c, 15, 36, 64
19, 90240, Note_on_c, 15, 41, 60
19, 90640, Note_off_c, 15, 41, 64
19, 90720, Note_on_c, 15, 43, 60
19, 92040, Note_off_c, 15, 43, 64
19, 92160, Note_on_c, 15, 36, 60
19, 93000, Note_off_c, 15, 36, 64
19, 93120, Note_on_c, 15, 36, 60
19, 93520, Note_off_c, 15, 36, 64
19, 93600, Note_on_c, 15, 43, 60
19, 94440, Note_off_c, 15, 43, 64
19, 94560, Note_on_c, 15, 39, 60
19, 94960, Note_off_c, 15, 39, 64
19, 95040, Note_on_c, 15, 41, 60
19, 95880, Note_off_c, 15, 41, 64
19, 96000, Note_on_c, 15, 43, 60
19, 96400, Note_off_c, 15, 43, 64
19, 96480, Note_on_c, 15, 44, 60
19, 97320, Note_off_c, 15, 44, 64
19, 97440, Note_on_c, 15, 41, 60
19, 97840, Note_off_c, 15, 41, 64
19, 97920, Note_on_c, 15, 43, 60
19, 98760, Note_off_c, 15, 43, 64
19, 98880, Note_on_c, 15, 38, 60
19, 99280, Note_off_c, 15, 38, 64
19, 99360, Note_on_c, 15, 39, 60
19, 100200, Note_off_c, 15, 39, 64
19, 100320, Note_on_c, 15, 35, 60
19, 100720, Note_off_c, 15, 35, 64
19, 100800, Note_on_c, 15, 36, 60
19, 101640, Note_off_c, 15, 36, 64
19, 101760, Note_on_c, 15, 41, 60
19, 102160, Note_off_c, 15, 41, 64
19, 102240, Note_on_c, 15, 43, 62
19, 103560, Note_off_c, 15, 43, 64
19, 103680, Note_on_c, 15, 36, 69
19, 104080, Note_off_c, 15, 36, 64
19, 104760, Note_on_c, 15, 36, 75
19, 104880, Note_off_c, 15, 36, 64
19, 104880, Note_on_c, 15, 39, 75
19, 105000, Note_off_c, 15, 39, 64
19, 105000, Note_on_c, 15, 36, 75
19, 105115, Note_off_c, 15, 36, 64
19, 105120, Note_on_c, 15, 43, 75
19, 105520, Note_off_c, 15, 43, 64
19, 106200, Note_on_c, 15, 39, 75
19, 106320, Note_off_c, 15, 39, 64
19, 106320, Note_on_c, 15, 43, 75
19, 106440, Note_off_c, 15, 43, 64
19, 106440, Note_on_c, 15, 39, 75
19, 106555, Note_off_c, 15, 39, 64
19, 106560, Note_on_c, 15, 41, 75
19, 106960, Note_off_c, 15, 41, 64
19, 107640, Note_on_c, 15, 43, 75
19, 107760, Note_off_c, 15, 43, 64
19, 107760, Note_on_c, 15, 46, 75
19, 107880, Note_off_c, 15, 46, 64
19, 107880, Note_on_c, 15, 43, 75
19, 107995, Note_off_c, 15, 43, 64
19, 108000, Note_on_c, 15, 44, 75
19, 108400, Note_off_c, 15, 44, 64
19, 109080, Note_on_c, 15, 41, 75
19, 109200, Note_off_c, 15, 41, 64
19, 109200, Note_on_c, 15, 44, 75
19, 109320, Note_off_c, 15, 44, 64
19, 109320, Note_on_c, 15, 41, 75
19, 109435, Note_off_c, 15, 41, 64
19, 109440, Note_on_c, 15, 43, 75
19, 109840, Note_off_c, 15, 43, 64
19, 110520, Note_on_c, 15, 38, 75
19, 110640, Note_off_c, 15, 38, 64
19, 110640, Note_on_c, 15, 41, 75
19, 110760, Note_off_c, 15, 41, 64
19, 110760, Note_on_c, 15, 38, 75
19, 110875, Note_off_c, 15, 38, 64
19, 110880, Note_on_c, 15, 39, 75
19, 111280, Note_off_c, 15, 39, 64
19, 111960, Note_on_c, 15, 35, 75
19, 112080, Note_off_c, 15, 35, 64
19, 112080, Note_on_c, 15, 38, 75
19, 112200, Note_off_c, 15, 38, 64
19, 112200, Note_on_c, 15, 35, 75
19, 112315, Note_off_c, 15, 35, 64
19, 112320, Note_on_c, 15, 36, 75
19, 112720, Note_off_c, 15, 36, 64
19, 113400, Note_on_c, 15, 41, 75
19, 113520, Note_off_c, 15, 41, 64
19, 113520, Note_on_c, 15, 44, 75
19, 113640, Note_off_c, 15, 44, 64
19, 113640, Note_on_c, 15, 41, 75
19, 113755, Note_off_c, 15, 41, 64
19, 113760, Note_on_c, 15, 43, 75
19, 114160, Note_off_c, 15, 43, 64
19, 114840, Note_on_c, 15, 43, 76
19, 114960, Note_off_c, 15, 43, 64
19, 114960, Note_on_c, 15, 41, 77
19, 115080, Note_off_c, 15, 41, 64
19, 115080, Note_on_c, 15, 43, 78
19, 115195, Note_off_c, 15, 43, 64
19, 115200, Note_on_c, 15, 36, 79
19, 115600, Note_off_c, 15, 36, 64
19, 116160, Note_on_c, 15, 36, 92
19, 116560, Note_off_c, 15, 36, 64
19, 116640, Note_on_c, 15, 43, 92
19, 117040, Note_off_c, 15, 43, 64
19, 117600, Note_on_c, 15, 39, 92
19, 118000, Note_off_c, 15, 39, 64
19, 118080, Note_on_c, 15, 41, 92
19, 118480, Note_off_c, 15, 41, 64
19, 119040, Note_on_c, 15, 43, 92
19, 119440, Note_off_c, 15, 43, 64
19, 119520, Note_on_c, 15, 44, 92
19, 119920, Note_off_c, 15, 44, 64
19, 120480, Note_on_c, 15, 41, 92
19, 120880, Note_off_c, 15, 41, 64
19, 120960, Note_on_c, 15, 43, 92
19, 121360, Note_off_c, 15, 43, 64
19, 121920, Note_on_c, 15, 38, 92
19, 122320, Note_off_c, 15, 38, 64
19, 122400, Note_on_c, 15, 39, 92
19, 122800, Note_off_c, 15, 39, 64
19, 123360, Note_on_c, 15, 35, 92
19, 123760, Note_off_c, 15, 35, 64
19, 123840, Note_on_c, 15, 36, 92
19, 124240, Note_off_c, 15, 36, 64
19, 124800, Note_on_c, 15, 41, 92
19, 125200, Note_off_c, 15, 41, 64
19, 125280, Note_on_c, 15, 43, 92
19, 125680, Note_off_c, 15, 43, 64
19, 126240, Note_on_c, 15, 43, 92
19, 126640, Note_off_c, 15, 43, 64
19, 126720, Note_on_c, 15, 36, 75
19, 127120, Note_off_c, 15, 36, 64
19, 139440, Note_on_c, 15, 44, 45
19, 139675, Note_off_c, 15, 44, 64
19, 139680, Note_on_c, 15, 43, 45
19, 139800, Note_off_c, 15, 43, 64
19, 139800, Note_on_c, 15, 44, 45
19, 139920, Note_off_c, 15, 44, 64
19, 139920, Note_on_c, 15, 41, 45
19, 140040, Note_off_c, 15, 41, 64
19, 140040, Note_on_c, 15, 43, 45
19, 140155, Note_off_c, 15, 43, 64
19, 140160, Note_on_c, 15, 39, 45
19, 140280, Note_off_c, 15, 39, 64
19, 140280, Note_on_c, 15, 41, 45
19, 140400, Note_off_c, 15, 41, 64
19, 140400, Note_on_c, 15, 38, 45
19, 140520, Note_off_c, 15, 38, 64
19, 140520, Note_on_c, 15, 39, 45
19, 140635, Note_off_c, 15, 39, 64
19, 140640, Note_on_c, 15, 36, 45
19, 140760, Note_off_c, 15, 36, 64
19, 140760, Note_on_c, 15, 38, 45
19, 140880, Note_off_c, 15, 38, 64
19, 140880, Note_on_c, 15, 34, 45
19, 141000, Note_off_c, 15, 34, 64
19, 141000, Note_on_c, 15, 36, 45
19, 141115, Note_off_c, 15, 36, 64
19, 141120, Note_on_c, 15, 32, 45
19, 141760, Note_off_c, 15, 32, 64
19, 141840, Note_on_c, 15, 32, 45
19, 142075, Note_off_c, 15, 32, 64
19, 142080, Note_on_c, 15, 34, 45
19, 142320, Note_off_c, 15, 34, 64
19, 142320, Note_on_c, 15, 36, 45
19, 142555, Note_off_c, 15, 36, 64
19, 142560, Note_on_c, 15, 29, 45
19, 142800, Note_off_c, 15, 29, 64
19, 142800, Note_on_c, 15, 36, 45
19, 143035, Note_off_c, 15, 36, 64
19, 143040, Note_on_c, 15, 41, 45
19, 143160, Note_off_c, 15, 41, 64
19, 143160, Note_on_c, 15, 43, 45
19, 143280, Note_off_c, 15, 43, 64
19, 143280, Note_on_c, 15, 39, 45
19, 143400, Note_off_c, 15, 39, 64
19, 143400, Note_on_c, 15, 41, 45
19, 143515, Note_off_c, 15, 41, 64
19, 143520, Note_on_c, 15, 38, 45
19, 143640, Note_off_c, 15, 38, 64
19, 143640, Note_on_c, 15, 39, 45
19, 143760, Note_off_c, 15, 39, 64
19, 143760, Note_on_c, 15, 36, 45
19, 143880, Note_off_c, 15, 36, 64
19, 143880, Note_on_c, 15, 38, 45
19, 143995, Note_off_c, 15, 38, 64
19, 144000, Note_on_c, 15, 35, 45
19, 144120, Note_off_c, 15, 35, 64
19, 144120, Note_on_c, 15, 36, 45
19, 144240, Note_off_c, 15, 36, 64
19, 144240, Note_on_c, 15, 33, 45
19, 144360, Note_off_c, 15, 33, 64
19, 144360, Note_on_c, 15, 35, 45
19, 144475, Note_off_c, 15, 35, 64
19, 144480, Note_on_c, 15, 31, 45
19, 145320, Note_off_c, 15, 31, 64
19, 145440, Note_on_c, 15, 36, 45
19, 146080, Note_off_c, 15, 36, 64
19, 146160, Note_on_c, 15, 24, 45
19, 146395, Note_off_c, 15, 24, 64
19, 146400, Note_on_c, 15, 26, 45
19, 146800, Note_off_c, 15, 26, 64
19, 146880, Note_on_c, 15, 27, 45
19, 147120, Note_off_c, 15, 27, 64
19, 147120, Note_on_c, 15, 31, 45
19, 147355, Note_off_c, 15, 31, 64
19, 147360, Note_on_c, 15, 36, 45
19, 147480, Note_off_c, 15, 36, 64
19, 147480, Note_on_c, 15, 38, 45
19, 147600, Note_off_c, 15, 38, 64
19, 147600, Note_on_c, 15, 34, 45
19, 147720, Note_off_c, 15, 34, 64
19, 147720, Note_on_c, 15, 36, 45
19, 147835, Note_off_c, 15, 36, 64
19, 147840, Note_on_c, 15, 33, 45
19, 148240, Note_off_c, 15, 33, 64
19, 148320, Note_on_c, 15, 35, 45
19, 148560, Note_off_c, 15, 35, 64
19, 148560, Note_on_c, 15, 36, 45
19, 148795, Note_off_c, 15, 36, 64
19, 148800, Note_on_c, 15, 31, 45
19, 148920, Note_off_c, 15, 31, 64
19, 148920, Note_on_c, 15, 32, 45
19, 149040, Note_off_c, 15, 32, 64
19, 149040, Note_on_c, 15, 29, 45
19, 149160, Note_off_c, 15, 29, 64
19, 149160, Note_on_c, 15, 31, 45
19, 149275, Note_off_c, 15, 31, 64
19, 149280, Note_on_c, 15, 27, 45
19, 149400, Note_off_c, 15, 27, 64
19, 149400, Note_on_c, 15, 29, 45
19, 149520, Note_off_c, 15, 29, 64
19, 149520, Note_on_c, 15, 26, 45
19, 149640, Note_off_c, 15, 26, 64
19, 149640, Note_on_c, 15, 29, 45
19, 149755, Note_off_c, 15, 29, 64
19, 149760, Note_on_c, 15, 27, 45
19, 149880, Note_off_c, 15, 27, 64
19, 149880, Note_on_c, 15, 29, 45
19, 150000, Note_off_c, 15, 29, 64
19, 150000, Note_on_c, 15, 26, 45
19, 150120, Note_off_c, 15, 26, 64
19, 150120, Note_on_c, 15, 27, 45
19, 150235, Note_off_c, 15, 27, 64
19, 150240, Note_on_c, 15, 24, 45
19, 150640, Note_off_c, 15, 24, 64
19, 162240, Note_on_c, 15, 36, 45
19, 162640, Note_off_c, 15, 36, 64
19, 162720, Note_on_c, 15, 43, 45
19, 163560, Note_off_c, 15, 43, 64
19, 163680, Note_on_c, 15, 39, 45
19, 164080, Note_off_c, 15, 39, 64
19, 164160, Note_on_c, 15, 41, 45
19, 165000, Note_off_c, 15, 41, 64
19, 165120, Note_on_c, 15, 43, 45
19, 165520, Note_off_c, 15, 43, 64
19, 165600, Note_on_c, 15, 44, 45
19, 166440, Note_off_c, 15, 44, 64
19, 166560, Note_on_c, 15, 41, 45
19, 166960, Note_off_c, 15, 41, 64
19, 167040, Note_on_c, 15, 43, 45
19, 167880, Note_off_c, 15, 43, 64
19, 168000, Note_on_c, 15, 38, 45
19, 168400, Note_off_c, 15, 38, 64
19, 168480, Note_on_c, 15, 39, 45
19, 169320, Note_off_c, 15, 39, 64
19, 169440, Note_on_c, 15, 35, 45
19, 169840, Note_off_c, 15, 35, 64
19, 169920, Note_on_c, 15, 36, 45
19, 170760, Note_off_c, 15, 36, 64
19, 170880, Note_on_c, 15, 41, 45
19, 171280, Note_off_c, 15, 41, 64
19, 171360, Note_on_c, 15, 43, 45
19, 172680, Note_off_c, 15, 43, 64
19, 172800, Note_on_c, 15, 36, 63
19, 173640, Note_off_c, 15, 36, 64
19, 173760, Note_on_c, 15, 36, 75
19, 173840, Note_off_c, 15, 36, 64
19, 173880, Note_on_c, 15, 39, 75
19, 173960, Note_off_c, 15, 39, 64
19, 174000, Note_on_c, 15, 43, 75
19, 174080, Note_off_c, 15, 43, 64
19, 174120, Note_on_c, 15, 48, 75
19, 174200, Note_off_c, 15, 48, 64
19, 174240, Note_on_c, 15, 43, 75
19, 174320, Note_off_c, 15, 43, 64
19, 174360, Note_on_c, 15, 38, 75
19, 174440, Note_off_c, 15, 38, 64
19, 174480, Note_on_c, 15, 43, 75
19, 174560, Note_off_c, 15, 43, 64
19, 174600, Note_on_c, 15, 35, 75
19, 174680, Note_off_c, 15, 35, 64
19, 174720, Note_on_c, 15, 38, 75
19, 174800, Note_off_c, 15, 38, 64
19, 174840, Note_on_c, 15, 31, 75
19, 174920, Note_off_c, 15, 31, 64
19, 174960, Note_on_c, 15, 35, 75
19, 175040, Note_off_c, 15, 35, 64
19, 175080, Note_on_c, 15, 38, 75
19, 175160, Note_off_c, 15, 38, 64
19, 175200, Note_on_c, 15, 39, 75
19, 175280, Note_off_c, 15, 39, 64
19, 175320, Note_on_c, 15, 36, 75
19, 175400, Note_off_c, 15, 36, 64
19, 175440, Note_on_c, 15, 39, 75
19, 175520, Note_off_c, 15, 39, 64
19, 175560, Note_on_c, 15, 43, 75
19, 175640, Note_off_c, 15, 43, 64
19, 175680, Note_on_c, 15, 41, 75
19, 175760, Note_off_c, 15, 41, 64
19, 175800, Note_on_c, 15, 32, 75
19, 175880, Note_off_c, 15, 32, 64
19, 175920, Note_on_c, 15, 36, 75
19, 176000, Note_off_c, 15, 36, 64
19, 176040, Note_on_c, 15, 41, 75
19, 176120, Note_off_c, 15, 41, 64
19, 176160, Note_on_c, 15, 44, 75
19, 176240, Note_off_c, 15, 44, 64
19, 176280, Note_on_c, 15, 36, 75
19, 176360, Note_off_c, 15, 36, 64
19, 176400, Note_on_c, 15, 41, 75
19, 176480, Note_off_c, 15, 41, 64
19, 176520, Note_on_c, 15, 44, 75
19, 176600, Note_off_c, 15, 44, 64
19, 176640, Note_on_c, 15, 43, 75
19, 176720, Note_off_c, 15, 43, 64
19, 176760, Note_on_c, 15, 38, 75
19, 176840, Note_off_c, 15, 38, 64
19, 176880, Note_on_c, 15, 43, 75
19, 176960, Note_off_c, 15, 43, 64
19, 177000, Note_on_c, 15, 47, 75
19, 177080, Note_off_c, 15, 47, 64
19, 177120, Note_on_c, 15, 44, 75
19, 177200, Note_off_c, 15, 44, 64
19, 177240, Note_on_c, 15, 32, 75
19, 177320, Note_off_c, 15, 32, 64
19, 177360, Note_on_c, 15, 36, 75
19, 177440, Note_off_c, 15, 36, 64
19, 177480, Note_on_c, 15, 39, 75
19, 177560, Note_off_c, 15, 39, 64
19, 177600, Note_on_c, 15, 44, 75
19, 177680, Note_off_c, 15, 44, 64
19, 177720, Note_on_c, 15, 36, 75
19, 177800, Note_off_c, 15, 36, 64
19, 177840, Note_on_c, 15, 39, 75
19, 177920, Note_off_c, 15, 39, 64
19, 177960, Note_on_c, 15, 44, 75
19, 178040, Note_off_c, 15, 44, 64
19, 178080, Note_on_c, 15, 41, 75
19, 178160, Note_off_c, 15, 41, 64
19, 178200, Note_on_c, 15, 38, 75
19, 178280, Note_off_c, 15, 38, 64
19, 178320, Note_on_c, 15, 41, 75
19, 178400, Note_off_c, 15, 41, 64
19, 178440, Note_on_c, 15, 44, 75
19, 178520, Note_off_c, 15, 44, 64
19, 178560, Note_on_c, 15, 43, 75
19, 178640, Note_off_c, 15, 43, 64
19, 178680, Note_on_c, 15, 31, 75
19, 178760, Note_off_c, 15, 31, 64
19, 178800, Note_on_c, 15, 35, 75
19, 178880, Note_off_c, 15, 35, 64
19, 178920, Note_on_c, 15, 38, 75
19, 179000, Note_off_c, 15, 38, 64
19, 179040, Note_on_c, 15, 43, 75
19, 179120, Note_off_c, 15, 43, 64
19, 179160, Note_on_c, 15, 35, 75
19, 179240, Note_off_c, 15, 35, 64
19, 179280, Note_on_c, 15, 38, 75
19, 179360, Note_off_c, 15, 38, 64
19, 179400, Note_on_c, 15, 43, 75
19, 179480, Note_off_c, 15, 43, 64
19, 179520, Note_on_c, 15, 38, 75
19, 179600, Note_off_c, 15, 38, 64
19, 179640, Note_on_c, 15, 35, 75
19, 179720, Note_off_c, 15, 35, 64
19, 179760, Note_on_c, 15, 38, 75
19, 179840, Note_off_c, 15, 38, 64
19, 179880, Note_on_c, 15, 41, 75
19, 179960, Note_off_c, 15, 41, 64
19, 180000, Note_on_c, 15, 39, 75
19, 180080, Note_off_c, 15, 39, 64
19, 180120, Note_on_c, 15, 31, 75
19, 180200, Note_off_c, 15, 31, 64
19, 180240, Note_on_c, 15, 36, 75
19, 180320, Note_off_c, 15, 36, 64
19, 180360, Note_on_c, 15, 39, 75
19, 180440, Note_off_c, 15, 39, 64
19, 180480, Note_on_c, 15, 43, 75
19, 180560, Note_off_c, 15, 43, 64
19, 180600, Note_on_c, 15, 36, 75
19, 180680, Note_off_c, 15, 36, 64
19, 180720, Note_on_c, 15, 39, 75
19, 180800, Note_off_c, 15, 39, 64
19, 180840, Note_on_c, 15, 43, 75
19, 180920, Note_off_c, 15, 43, 64
19, 180960, Note_on_c, 15, 35, 75
19, 181040, Note_off_c, 15, 35, 64
19, 181080, Note_on_c, 15, 31, 75
19, 181160, Note_off_c, 15, 31, 64
19, 181200, Note_on_c, 15, 35, 75
19, 181280, Note_off_c, 15, 35, 64
19, 181320, Note_on_c, 15, 38, 75
19, 181400, Note_off_c, 15, 38, 64
19, 181440, Note_on_c, 15, 36, 75
19, 181520, Note_off_c, 15, 36, 64
19, 181560, Note_on_c, 15, 31, 75
19, 181640, Note_off_c, 15, 31, 64
19, 181680, Note_on_c, 15, 36, 75
19, 181760, Note_off_c, 15, 36, 64
19, 181800, Note_on_c, 15, 39, 75
19, 181880, Note_off_c, 15, 39, 64
19, 181920, Note_on_c, 15, 43, 75
19, 182000, Note_off_c, 15, 43, 64
19, 182040, Note_on_c, 15, 36, 75
19, 182120, Note_off_c, 15, 36, 64
19, 182160, Note_on_c, 15, 39, 75
19, 182240, Note_off_c, 15, 39, 64
19, 182280, Note_on_c, 15, 43, 75
19, 182360, Note_off_c, 15, 43, 64
19, 182400, Note_on_c, 15, 41, 75
19, 182480, Note_off_c, 15, 41, 64
19, 182520, Note_on_c, 15, 38, 75
19, 182600, Note_off_c, 15, 38, 64
19, 182640, Note_on_c, 15, 41, 75
19, 182720, Note_off_c, 15, 41, 64
19, 182760, Note_on_c, 15, 44, 75
19, 182840, Note_off_c, 15, 44, 64
19, 182880, Note_on_c, 15, 43, 75
19, 182960, Note_off_c, 15, 43, 64
19, 183000, Note_on_c, 15, 31, 75
19, 183080, Note_off_c, 15, 31, 64
19, 183120, Note_on_c, 15, 38, 75
19, 183200, Note_off_c, 15, 38, 64
19, 183240, Note_on_c, 15, 43, 75
19, 183320, Note_off_c, 15, 43, 64
19, 183360, Note_on_c, 15, 31, 76
19, 183440, Note_off_c, 15, 31, 64
19, 183480, Note_on_c, 15, 38, 77
19, 183560, Note_off_c, 15, 38, 64
19, 183600, Note_on_c, 15, 43, 78
19, 183680, Note_off_c, 15, 43, 64
19, 183720, Note_on_c, 15, 38, 79
19, 183800, Note_off_c, 15, 38, 64
19, 183840, Note_on_c, 15, 43, 80
19, 183920, Note_off_c, 15, 43, 64
19, 183960, Note_on_c, 15, 38, 81
19, 184040, Note_off_c, 15, 38, 64
19, 184080, Note_on_c, 15, 43, 82
19, 184160, Note_off_c, 15, 43, 64
19, 184200, Note_on_c, 15, 47, 83
19, 184280, Note_off_c, 15, 47, 64
19, 184320, Note_on_c, 15, 48, 84
19, 184400, Note_off_c, 15, 48, 64
19, 184440, Note_on_c, 15, 36, 85
19, 184520, Note_off_c, 15, 36, 64
19, 184560, Note_on_c, 15, 39, 86
19, 184640, Note_off_c, 15, 39, 64
19, 184680, Note_on_c, 15, 43, 87
19, 184760, Note_off_c, 15, 43, 64
19, 184800, Note_on_c, 15, 48, 88
19, 184880, Note_off_c, 15, 48, 64
19, 184920, Note_on_c, 15, 36, 89
19, 185000, Note_off_c, 15, 36, 64
19, 185040, Note_on_c, 15, 39, 90
19, 185120, Note_off_c, 15, 39, 64
19, 185160, Note_on_c, 15, 43, 91
19, 185240, Note_off_c, 15, 43, 64
19, 185280, Note_on_c, 15, 36, 92
19, 185680, Note_off_c, 15, 36, 64
19, 185760, Note_on_c, 15, 43, 92
19, 186600, Note_off_c, 15, 43, 64
19, 186720, Note_on_c, 15, 39, 92
19, 187120, Note_off_c, 15, 39, 64
19, 187200, Note_on_c, 15, 41, 92
19, 188040, Note_off_c, 15, 41, 64
19, 188160, Note_on_c, 15, 43, 92
19, 188560, Note_off_c, 15, 43, 64
19, 188640, Note_on_c, 15, 44, 92
19, 189480, Note_off_c, 15, 44, 64
19, 189600, Note_on_c, 15, 41, 92
19, 190000, Note_off_c, 15, 41, 64
19, 190080, Note_on_c, 15, 43, 92
19, 190920, Note_off_c, 15, 43, 64
19, 191040, Note_on_c, 15, 38, 92
19, 191440, Note_off_c, 15, 38, 64
19, 191520, Note_on_c, 15, 39, 92
19, 192360, Note_off_c, 15, 39, 64
19, 192480, Note_on_c, 15, 35, 92
19, 192880, Note_off_c, 15, 35, 64
19, 192960, Note_on_c, 15, 36, 92
19, 193800, Note_off_c, 15, 36, 64
19, 193920, Note_on_c, 15, 41, 92
19, 194320, Note_off_c, 15, 41, 64
19, 194400, Note_on_c, 15, 43, 92
19, 195720, Note_off_c, 15, 43, 64
19, 195840, Note_on_c, 15, 36, 92
19, 196680, Note_off_c, 15, 36, 64
19, 196800, Note_on_c, 15, 36, 92
19, 197200, Note_off_c, 15, 36, 64
19, 197280, Note_on_c, 15, 43, 92
19, 198120, Note_off_c, 15, 43, 64
19, 198240, Note_on_c, 15, 39, 92
19, 198640, Note_off_c, 15, 39, 64
19, 198720, Note_on_c, 15, 41, 92
19, 199560, Note_off_c, 15, 41, 64
19, 199680, Note_on_c, 15, 43, 92
19, 200080, Note_off_c, 15, 43, 64
19, 200160, Note_on_c, 15, 44, 92
19, 201000, Note_off_c, 15, 44, 64
19, 201120, Note_on_c, 15, 41, 92
19, 201520, Note_off_c, 15, 41, 64
19, 201600, Note_on_c, 15, 43, 92
19, 202440, Note_off_c, 15, 43, 64
19, 202560, Note_on_c, 15, 38, 92
19, 202960, Note_off_c, 15, 38, 64
19, 203040, Note_on_c, 15, 39, 92
19, 203880, Note_off_c, 15, 39, 64
19, 204000, Note_on_c, 15, 35, 92
19, 204400, Note_off_c, 15, 35, 64
19, 204480, Note_on_c, 15, 36, 92
19, 205320, Note_off_c, 15, 36, 64
19, 205440, Note_on_c, 15, 41, 92
19, 205840, Note_off_c, 15, 41, 64
19, 205920, Note_on_c, 15, 43, 92
19, 207240, Note_off_c, 15, 43, 64
19, 207360, Note_on_c, 15, 36, 92
19, 208200, Note_off_c, 15, 36, 64
19, 208560, Note_on_c, 15, 36, 108
19, 208795, Note_off_c, 15, 36, 64
19, 208800, Note_on_c, 15, 43, 108
19, 209640, Note_off_c, 15, 43, 64
19, 210000, Note_on_c, 15, 39, 108
19, 210235, Note_off_c, 15, 39, 64
19, 210240, Note_on_c, 15, 41, 108
19, 211080, Note_off_c, 15, 41, 64
19, 211440, Note_on_c, 15, 43, 108
19, 211675, Note_off_c, 15, 43, 64
19, 211680, Note_on_c, 15, 44, 108
19, 212520, Note_off_c, 15, 44, 64
19, 212880, Note_on_c, 15, 41, 108
19, 213115, Note_off_c, 15, 41, 64
19, 213120, Note_on_c, 15, 43, 108
19, 213960, Note_off_c, 15, 43, 64
19, 214320, Note_on_c, 15, 38, 108
19, 214555, Note_off_c, 15, 38, 64
19, 214560, Note_on_c, 15, 39, 108
19, 215400, Note_off_c, 15, 39, 64
19, 215760, Note_on_c, 15, 35, 108
19, 215995, Note_off_c, 15, 35, 64
19, 216000, Note_on_c, 15, 36, 108
19, 216840, Note_off_c, 15, 36, 64
19, 217200, Note_on_c, 15, 41, 108
19, 217435, Note_off_c, 15, 41, 64
19, 217440, Note_on_c, 15, 43, 108
19, 218280, Note_off_c, 15, 43, 64
19, 218640, Note_on_c, 15, 43, 108
19, 218875, Note_off_c, 15, 43, 64
19, 218880, Note_on_c, 15, 36, 108
19, 219720, Note_off_c, 15, 36, 64
19, 219840, Note_on_c, 15, 36, 108
19, 220240, Note_off_c, 15, 36, 64
19, 220320, Note_on_c, 15, 43, 108
19, 221160, Note_off_c, 15, 43, 64
19, 221280, Note_on_c, 15, 39, 108
19, 221680, Note_off_c, 15, 39, 64
19, 221760, Note_on_c, 15, 41, 108
19, 222600, Note_off_c, 15, 41, 64
19, 222720, Note_on_c, 15, 43, 108
19, 223120, Note_off_c, 15, 43, 64
19, 223200, Note_on_c, 15, 44, 108
19, 224040, Note_off_c, 15, 44, 64
19, 224160, Note_on_c, 15, 41, 108
19, 224560, Note_off_c, 15, 41, 64
19, 224640, Note_on_c, 15, 43, 108
19, 225480, Note_off_c, 15, 43, 64
19, 225600, Note_on_c, 15, 38, 108
19, 226000, Note_off_c, 15, 38, 64
19, 226080, Note_on_c, 15, 39, 108
19, 226920, Note_off_c, 15, 39, 64
19, 227040, Note_on_c, 15, 35, 108
19, 227440, Note_off_c, 15, 35, 64
19, 227520, Note_on_c, 15, 36, 108
19, 228360, Note_off_c, 15, 36, 64
19, 228480, Note_on_c, 15, 41, 108
19, 228880, Note_off_c, 15, 41, 64
19, 228960, Note_on_c, 15, 43, 108
19, 230280, Note_off_c, 15, 43, 64
19, 230400, Note_on_c, 15, 36, 108
19, 231240, Note_off_c, 15, 36, 64
19, 231360, Note_on_c, 15, 36, 108
19, 231760, Note_off_c, 15, 36, 64
19, 231840, Note_on_c, 15, 43, 108
19, 232680, Note_off_c, 15, 43, 64
19, 232800, Note_on_c, 15, 39, 108
19, 233200, Note_off_c, 15, 39, 64
19, 233280, Note_on_c, 15, 41, 108
19, 234120, Note_off_c, 15, 41, 64
19, 234240, Note_on_c, 15, 43, 108
19, 234640, Note_off_c, 15, 43, 64
19, 234720, Note_on_c, 15, 44, 108
19, 235560, Note_off_c, 15, 44, 64
19, 235680, Note_on_c, 15, 41, 108
19, 236080, Note_off_c, 15, 41, 64
19, 236160, Note_on_c, 15, 43, 108
19, 237000, Note_off_c, 15, 43, 64
19, 237120, Note_on_c, 15, 38, 108
19, 237520, Note_off_c, 15, 38, 64
19, 237600, Note_on_c, 15, 39, 108
19, 238440, Note_off_c, 15, 39, 64
19, 238560, Note_on_c, 15, 35, 108
19, 238960, Note_off_c, 15, 35, 64
19, 239040, Note_on_c, 15, 36, 108
19, 239880, Note_off_c, 15, 36, 64
19, 240000, Note_on_c, 15, 41, 108
19, 240400, Note_off_c, 15, 41, 64
19, 240480, Note_on_c, 15, 43, 108
19, 241800, Note_off_c, 15, 43, 64
19, 241920, Note_on_c, 15, 36, 60
19, 243240, Note_off_c, 15, 36, 64
19, 260160, Note_on_c, 15, 36, 60
19, 260560, Note_off_c, 15, 36, 64
19, 260640, Note_on_c, 15, 43, 60
19, 261480, Note_off_c, 15, 43, 64
19, 261600, Note_on_c, 15, 39, 60
19, 262000, Note_off_c, 15, 39, 64
19, 262080, Note_on_c, 15, 41, 60
19, 262920, Note_off_c, 15, 41, 64
19, 263040, Note_on_c, 15, 43, 60
19, 263440, Note_off_c, 15, 43, 64
19, 263520, Note_on_c, 15, 44, 60
19, 264360, Note_off_c, 15, 44, 64
19, 264480, Note_on_c, 15, 41, 60
19, 264880, Note_off_c, 15, 41, 64
19, 264960, Note_on_c, 15, 43, 60
19, 265600, Note_off_c, 15, 43, 64
19, 265680, Note_on_c, 15, 38, 60
19, 265915, Note_off_c, 15, 38, 64
19, 265920, Note_on_c, 15, 39, 60
19, 266160, Note_off_c, 15, 39, 64
19, 266160, Note_on_c, 15, 35, 60
19, 266395, Note_off_c, 15, 35, 64
19, 266400, Note_on_c, 15, 36, 60
19, 267040, Note_off_c, 15, 36, 64
19, 267120, Note_on_c, 15, 38, 60
19, 267355, Note_off_c, 15, 38, 64
19, 267360, Note_on_c, 15, 39, 60
19, 267600, Note_off_c, 15, 39, 64
19, 267600, Note_on_c, 15, 36, 60
19, 267835, Note_off_c, 15, 36, 64
19, 267840, Note_on_c, 15, 38, 60
19, 268080, Note_off_c, 15, 38, 64
19, 268080, Note_on_c, 15, 34, 60
19, 268315, Note_off_c, 15, 34, 64
19, 268320, Note_on_c, 15, 30, 60
19, 268720, Note_off_c, 15, 30, 64
19, 268800, Note_on_c, 15, 31, 60
19, 269200, Note_off_c, 15, 31, 64
19, 269520, Note_on_c, 15, 39, 60
19, 269760, Note_off_c, 15, 39, 64
19, 269760, Note_on_c, 15, 33, 60
19, 269995, Note_off_c, 15, 33, 64
19, 270000, Note_on_c, 15, 33, 60
19, 270240, Note_off_c, 15, 33, 64
19, 270240, Note_on_c, 15, 35, 60
19, 270640, Note_off_c, 15, 35, 64
19, 270960, Note_on_c, 15, 36, 60
19, 271200, Note_off_c, 15, 36, 64
19, 271200, Note_on_c, 15, 31, 60
19, 271435, Note_off_c, 15, 31, 64
19, 271440, Note_on_c, 15, 31, 60
19, 271680, Note_off_c, 15, 31, 64
19, 271680, Note_on_c, 15, 33, 60
19, 272080, Note_off_c, 15, 33, 64
19, 272400, Note_on_c, 15, 34, 60
19, 272640, Note_off_c, 15, 34, 64
19, 272640, Note_on_c, 15, 30, 60
19, 272875, Note_off_c, 15, 30, 64
19, 272880, Note_on_c, 15, 30, 60
19, 273115, Note_off_c, 15, 30, 64
19, 273120, Note_on_c, 15, 31, 60
19, 273360, Note_off_c, 15, 31, 64
19, 273360, Note_on_c, 15, 33, 60
19, 273595, Note_off_c, 15, 33, 64
19, 273600, Note_on_c, 15, 34, 60
19, 273840, Note_off_c, 15, 34, 64
19, 273840, Note_on_c, 15, 36, 60
19, 274075, Note_off_c, 15, 36, 64
19, 274080, Note_on_c, 15, 33, 60
19, 274480, Note_off_c, 15, 33, 64
19, 274560, Note_on_c, 15, 38, 60
19, 274960, Note_off_c, 15, 38, 64
19, 275040, Note_on_c, 15, 31, 60
19, 275880, Note_off_c, 15, 31, 64
19, 277080, Note_on_c, 15, 43, 75
19, 277200, Note_off_c, 15, 43, 64
19, 277200, Note_on_c, 15, 41, 75
19, 277320, Note_off_c, 15, 41, 64
19, 277320, Note_on_c, 15, 43, 75
19, 277435, Note_off_c, 15, 43, 64
19, 277440, Note_on_c, 15, 36, 75
19, 277560, Note_off_c, 15, 36, 64
19, 277560, Note_on_c, 15, 48, 75
19, 277680, Note_off_c, 15, 48, 64
19, 277680, Note_on_c, 15, 46, 75
19, 277800, Note_off_c, 15, 46, 64
19, 277800, Note_on_c, 15, 48, 75
19, 277915, Note_off_c, 15, 48, 64
19, 277920, Note_on_c, 15, 44, 75
19, 278040, Note_off_c, 15, 44, 64
19, 278040, Note_on_c, 15, 48, 75
19, 278160, Note_off_c, 15, 48, 64
19, 278160, Note_on_c, 15, 44, 75
19, 278280, Note_off_c, 15, 44, 64
19, 278280, Note_on_c, 15, 48, 75
19, 278395, Note_off_c, 15, 48, 64
19, 278400, Note_on_c, 15, 44, 75
19, 278520, Note_off_c, 15, 44, 64
19, 278520, Note_on_c, 15, 46, 75
19, 278640, Note_off_c, 15, 46, 64
19, 278640, Note_on_c, 15, 44, 75
19, 278760, Note_off_c, 15, 44, 64
19, 278760, Note_on_c, 15, 46, 75
19, 278875, Note_off_c, 15, 46, 64
19, 278880, Note_on_c, 15, 43, 75
19, 279000, Note_off_c, 15, 43, 64
19, 279000, Note_on_c, 15, 46, 75
19, 279120, Note_off_c, 15, 46, 64
19, 279120, Note_on_c, 15, 43, 75
19, 279240, Note_off_c, 15, 43, 64
19, 279240, Note_on_c, 15, 46, 75
19, 279355, Note_off_c, 15, 46, 64
19, 279360, Note_on_c, 15, 41, 75
19, 279480, Note_off_c, 15, 41, 64
19, 279480, Note_on_c, 15, 44, 75
19, 279600, Note_off_c, 15, 44, 64
19, 279600, Note_on_c, 15, 43, 75
19, 279720, Note_off_c, 15, 43, 64
19, 279720, Note_on_c, 15, 46, 75
19, 279835, Note_off_c, 15, 46, 64
19, 279840, Note_on_c, 15, 44, 75
19, 279960, Note_off_c, 15, 44, 64
19, 279960, Note_on_c, 15, 46, 75
19, 280080, Note_off_c, 15, 46, 64
19, 280080, Note_on_c, 15, 44, 75
19, 280200, Note_off_c, 15, 44, 64
19, 280200, Note_on_c, 15, 46, 75
19, 280315, Note_off_c, 15, 46, 64
19, 280320, Note_on_c, 15, 44, 75
19, 280440, Note_off_c, 15, 44, 64
19, 280440, Note_on_c, 15, 46, 75
19, 280560, Note_off_c, 15, 46, 64
19, 280560, Note_on_c, 15, 44, 75
19, 280680, Note_off_c, 15, 44, 64
19, 280680, Note_on_c, 15, 46, 75
19, 280795, Note_off_c, 15, 46, 64
19, 280800, Note_on_c, 15, 43, 75
19, 280920, Note_off_c, 15, 43, 64
19, 280920, Note_on_c, 15, 44, 75
19, 281040, Note_off_c, 15, 44, 64
19, 281040, Note_on_c, 15, 43, 75
19, 281160, Note_off_c, 15, 43, 64
19, 281160, Note_on_c, 15, 44, 75
19, 281275, Note_off_c, 15, 44, 64
19, 281280, Note_on_c, 15, 43, 75
19, 281400, Note_off_c, 15, 43, 64
19, 281400, Note_on_c, 15, 44, 75
19, 281520, Note_off_c, 15, 44, 64
19, 281520, Note_on_c, 15, 43, 75
19, 281640, Note_off_c, 15, 43, 64
19, 281640, Note_on_c, 15, 46, 75
19, 281755, Note_off_c, 15, 46, 64
19, 281760, Note_on_c, 15, 44, 75
19, 281880, Note_off_c, 15, 44, 64
19, 281880, Note_on_c, 15, 46, 75
19, 282000, Note_off_c, 15, 46, 64
19, 282000, Note_on_c, 15, 44, 75
19, 282115, Note_off_c, 15, 44, 64
19, 282120, Note_on_c, 15, 48, 75
19, 282235, Note_off_c, 15, 48, 64
19, 282240, Note_on_c, 15, 46, 75
19, 282640, Note_off_c, 15, 46, 64
19, 282720, Note_on_c, 15, 34, 75
19, 283560, Note_off_c, 15, 34, 64
19, 283680, Note_on_c, 15, 39, 75
19, 284080, Note_off_c, 15, 39, 64
19, 317760, Note_on_c, 15, 31, 92
19, 318160, Note_off_c, 15, 31, 64
19, 318240, Note_on_c, 15, 38, 92
19, 319080, Note_off_c, 15, 38, 64
19, 319200, Note_on_c, 15, 34, 92
19, 319600, Note_off_c, 15, 34, 64
19, 319680, Note_on_c, 15, 36, 92
19, 320520, Note_off_c, 15, 36, 64
19, 320640, Note_on_c, 15, 38, 92
19, 321040, Note_off_c, 15, 38, 64
19, 321120, Note_on_c, 15, 39, 92
19, 321960, Note_off_c, 15, 39, 64
19, 322080, Note_on_c, 15, 36, 92
19, 322480, Note_off_c, 15, 36, 64
19, 322560, Note_on_c, 15, 38, 75
19, 323200, Note_off_c, 15, 38, 64
19, 323280, Note_on_c, 15, 40, 60
19, 323515, Note_off_c, 15, 40, 64
19, 323520, Note_on_c, 15, 42, 60
19, 323760, Note_off_c, 15, 42, 64
19, 323760, Note_on_c, 15, 38, 60
19, 323995, Note_off_c, 15, 38, 64
19, 324000, Note_on_c, 15, 43, 60
19, 324240, Note_off_c, 15, 43, 64
19, 324240, Note_on_c, 15, 43, 60
19, 324475, Note_off_c, 15, 43, 64
19, 324480, Note_on_c, 15, 38, 60
19, 324720, Note_off_c, 15, 38, 64
19, 324720, Note_on_c, 15, 38, 60
19, 324955, Note_off_c, 15, 38, 64
19, 324960, Note_on_c, 15, 39, 60
19, 325200, Note_off_c, 15, 39, 64
19, 325200, Note_on_c, 15, 39, 60
19, 325435, Note_off_c, 15, 39, 64
19, 325440, Note_on_c, 15, 41, 60
19, 325680, Note_off_c, 15, 41, 64
19, 325680, Note_on_c, 15, 41, 60
19, 325915, Note_off_c, 15, 41, 64
19, 325920, Note_on_c, 15, 36, 60
19, 326160, Note_off_c, 15, 36, 64
19, 326160, Note_on_c, 15, 36, 60
19, 326395, Note_off_c, 15, 36, 64
19, 326400, Note_on_c, 15, 38, 60
19, 326635, Note_off_c, 15, 38, 64
19, 326640, Note_on_c, 15, 38, 60
19, 326875, Note_off_c, 15, 38, 64
19, 326880, Note_on_c, 15, 39, 60
19, 327120, Note_off_c, 15, 39, 64
19, 327120, Note_on_c, 15, 39, 60
19, 327355, Note_off_c, 15, 39, 64
19, 327360, Note_on_c, 15, 34, 60
19, 327600, Note_off_c, 15, 34, 64
19, 327600, Note_on_c, 15, 34, 60
19, 327835, Note_off_c, 15, 34, 64
19, 327840, Note_on_c, 15, 36, 60
19, 328080, Note_off_c, 15, 36, 64
19, 328080, Note_on_c, 15, 36, 60
19, 328315, Note_off_c, 15, 36, 64
19, 328320, Note_on_c, 15, 38, 60
19, 328960, Note_off_c, 15, 38, 64
19, 329040, Note_on_c, 15, 38, 60
19, 329275, Note_off_c, 15, 38, 64
19, 329280, Note_on_c, 15, 39, 60
19, 329520, Note_off_c, 15, 39, 64
19, 329520, Note_on_c, 15, 38, 60
19, 329755, Note_off_c, 15, 38, 64
19, 329760, Note_on_c, 15, 36, 60
19, 330160, Note_off_c, 15, 36, 64
19, 330240, Note_on_c, 15, 41, 60
19, 330640, Note_off_c, 15, 41, 64
19, 330720, Note_on_c, 15, 33, 60
19, 331120, Note_off_c, 15, 33, 64
19, 331200, Note_on_c, 15, 34, 60
19, 332040, Note_off_c, 15, 34, 64
19, 332160, Note_on_c, 15, 35, 60
19, 332560, Note_off_c, 15, 35, 64
19, 332640, Note_on_c, 15, 36, 60
19, 332880, Note_off_c, 15, 36, 64
19, 332880, Note_on_c, 15, 32, 60
19, 333115, Note_off_c, 15, 32, 64
19, 333120, Note_on_c, 15, 39, 60
19, 333360, Note_off_c, 15, 39, 64
19, 333360, Note_on_c, 15, 39, 60
19, 333595, Note_off_c, 15, 39, 64
19, 333600, Note_on_c, 15, 41, 60
19, 334000, Note_off_c, 15, 41, 64
19, 334080, Note_on_c, 15, 31, 60
19, 334320, Note_off_c, 15, 31, 64
19, 334320, Note_on_c, 15, 33, 60
19, 334555, Note_off_c, 15, 33, 64
19, 334560, Note_on_c, 15, 35, 60
19, 334800, Note_off_c, 15, 35, 64
19, 334800, Note_on_c, 15, 31, 60
19, 335035, Note_off_c, 15, 31, 64
19, 335040, Note_on_c, 15, 36, 60
19, 335280, Note_off_c, 15, 36, 64
19, 335280, Note_on_c, 15, 35, 60
19, 335515, Note_off_c, 15, 35, 64
19, 335520, Note_on_c, 15, 32, 60
19, 335920, Note_off_c, 15, 32, 64
19, 336000, Note_on_c, 15, 41, 60
19, 336400, Note_off_c, 15, 41, 64
19, 336480, Note_on_c, 15, 44, 60
19, 336960, Note_off_c, 15, 44, 64
19, 336960, Note_on_c, 15, 43, 60
19, 337195, Note_off_c, 15, 43, 64
19, 337200, Note_on_c, 15, 39, 60
19, 337440, Note_off_c, 15, 39, 64
19, 337440, Note_on_c, 15, 35, 60
19, 337675, Note_off_c, 15, 35, 64
19, 337680, Note_on_c, 15, 35, 60
19, 337920, Note_off_c, 15, 35, 64
19, 337920, Note_on_c, 15, 36, 60
19, 338320, Note_off_c, 15, 36, 64
19, 338640, Note_on_c, 15, 44, 60
19, 338880, Note_off_c, 15, 44, 64
19, 338880, Note_on_c, 15, 38, 60
19, 339115, Note_off_c, 15, 38, 64
19, 339120, Note_on_c, 15, 38, 60
19, 339360, Note_off_c, 15, 38, 64
19, 339360, Note_on_c, 15, 40, 60
19, 339760, Note_off_c, 15, 40, 64
19, 340080, Note_on_c, 15, 41, 60
19, 340320, Note_off_c, 15, 41, 64
19, 340320, Note_on_c, 15, 36, 60
19, 340555, Note_off_c, 15, 36, 64
19, 340560, Note_on_c, 15, 36, 60
19, 340800, Note_off_c, 15, 36, 64
19, 340800, Note_on_c, 15, 38, 60
19, 341200, Note_off_c, 15, 38, 64
19, 341280, Note_on_c, 15, 39, 60
19, 341680, Note_off_c, 15, 39, 64
19, 341760, Note_on_c, 15, 44, 60
19, 342160, Note_off_c, 15, 44, 64
19, 342240, Note_on_c, 15, 46, 60
19, 342640, Note_off_c, 15, 46, 64
19, 342720, Note_on_c, 15, 39, 60
19, 343120, Note_off_c, 15, 39, 64
19, 343200, Note_on_c, 15, 41, 60
19, 343600, Note_off_c, 15, 41, 64
19, 343680, Note_on_c, 15, 43, 60
19, 344080, Note_off_c, 15, 43, 64
19, 344160, Note_on_c, 15, 36, 60
19, 344280, Note_off_c, 15, 36, 64
19, 344280, Note_on_c, 15, 39, 60
19, 344400, Note_off_c, 15, 39, 64
19, 344400, Note_on_c, 15, 38, 60
19, 344520, Note_off_c, 15, 38, 64
19, 344520, Note_on_c, 15, 41, 60
19, 344635, Note_off_c, 15, 41, 64
19, 344640, Note_on_c, 15, 39, 60
19, 344760, Note_off_c, 15, 39, 64
19, 344760, Note_on_c, 15, 43, 60
19, 344880, Note_off_c, 15, 43, 64
19, 344880, Note_on_c, 15, 41, 60
19, 345000, Note_off_c, 15, 41, 64
19, 345000, Note_on_c, 15, 45, 60
19, 345115, Note_off_c, 15, 45, 64
19, 345120, Note_on_c, 15, 43, 60
19, 345240, Note_off_c, 15, 43, 64
19, 345240, Note_on_c, 15, 46, 60
19, 345360, Note_off_c, 15, 46, 64
19, 345360, Note_on_c, 15, 45, 60
19, 345480, Note_off_c, 15, 45, 64
19, 345480, Note_on_c, 15, 48, 60
19, 345595, Note_off_c, 15, 48, 64
19, 345600, Note_on_c, 15, 46, 60
19, 345835, Note_off_c, 15, 46, 64
19, 346800, Note_on_c, 15, 39, 60
19, 347035, Note_off_c, 15, 39, 64
19, 347040, Note_on_c, 15, 32, 60
19, 347160, Note_off_c, 15, 32, 64
19, 347160, Note_on_c, 15, 36, 60
19, 347280, Note_off_c, 15, 36, 64
19, 347280, Note_on_c, 15, 34, 60
19, 347400, Note_off_c, 15, 34, 64
19, 347400, Note_on_c, 15, 38, 60
19, 347515, Note_off_c, 15, 38, 64
19, 347520, Note_on_c, 15, 36, 60
19, 347640, Note_off_c, 15, 36, 64
19, 347640, Note_on_c, 15, 39, 60
19, 347760, Note_off_c, 15, 39, 64
19, 347760, Note_on_c, 15, 38, 60
19, 347880, Note_off_c, 15, 38, 64
19, 347880, Note_on_c, 15, 41, 60
19, 347995, Note_off_c, 15, 41, 64
19, 348000, Note_on_c, 15, 39, 60
19, 348120, Note_off_c, 15, 39, 64
19, 348120, Note_on_c, 15, 43, 60
19, 348240, Note_off_c, 15, 43, 64
19, 348240, Note_on_c, 15, 41, 60
19, 348360, Note_off_c, 15, 41, 64
19, 348360, Note_on_c, 15, 44, 60
19, 348475, Note_off_c, 15, 44, 64
19, 348480, Note_on_c, 15, 43, 60
19, 348715, Note_off_c, 15, 43, 64
19, 349680, Note_on_c, 15, 36, 60
19, 349915, Note_off_c, 15, 36, 64
19, 349920, Note_on_c, 15, 29, 60
19, 350040, Note_off_c, 15, 29, 64
19, 350040, Note_on_c, 15, 32, 60
19, 350160, Note_off_c, 15, 32, 64
19, 350160, Note_on_c, 15, 31, 60
19, 350280, Note_off_c, 15, 31, 64
19, 350280, Note_on_c, 15, 34, 60
19, 350395, Note_off_c, 15, 34, 64
19, 350400, Note_on_c, 15, 32, 60
19, 350520, Note_off_c, 15, 32, 64
19, 350520, Note_on_c, 15, 36, 60
19, 350640, Note_off_c, 15, 36, 64
19, 350640, Note_on_c, 15, 34, 60
19, 350760, Note_off_c, 15, 34, 64
19, 350760, Note_on_c, 15, 38, 60
19, 350875, Note_off_c, 15, 38, 64
19, 350880, Note_on_c, 15, 36, 60
19, 351000, Note_off_c, 15, 36, 64
19, 351000, Note_on_c, 15, 39, 60
19, 351120, Note_off_c, 15, 39, 64
19, 351120, Note_on_c, 15, 38, 60
19, 351240, Note_off_c, 15, 38, 64
19, 351240, Note_on_c, 15, 41, 60
19, 351355, Note_off_c, 15, 41, 64
19, 351360, Note_on_c, 15, 39, 60
19, 351955, Note_off_c, 15, 39, 64
19, 351960, Note_on_c, 15, 41, 60
19, 352080, Note_off_c, 15, 41, 64
19, 352080, Note_on_c, 15, 38, 60
19, 352200, Note_off_c, 15, 38, 64
19, 352200, Note_on_c, 15, 39, 60
19, 352315, Note_off_c, 15, 39, 64
19, 352320, Note_on_c, 15, 36, 60
19, 352720, Note_off_c, 15, 36, 64
19, 352800, Note_on_c, 15, 38, 60
19, 353395, Note_off_c, 15, 38, 64
19, 353400, Note_on_c, 15, 39, 69
19, 353520, Note_off_c, 15, 39, 64
19, 353520, Note_on_c, 15, 36, 71
19, 353640, Note_off_c, 15, 36, 64
19, 353640, Note_on_c, 15, 38, 73
19, 353755, Note_off_c, 15, 38, 64
19, 353760, Note_on_c, 15, 34, 75
19, 354160, Note_off_c, 15, 34, 64
19, 354240, Note_on_c, 15, 30, 75
19, 354480, Note_off_c, 15, 30, 64
19, 354480, Note_on_c, 15, 30, 75
19, 354715, Note_off_c, 15, 30, 64
19, 354720, Note_on_c, 15, 38, 75
19, 355120, Note_off_c, 15, 38, 64
19, 355200, Note_on_c, 15, 31, 75
19, 355600, Note_off_c, 15, 31, 64
19, 355680, Note_on_c, 15, 39, 75
19, 355800, Note_off_c, 15, 39, 64
19, 355800, Note_on_c, 15, 43, 75
19, 355920, Note_off_c, 15, 43, 64
19, 355920, Note_on_c, 15, 39, 75
19, 356040, Note_off_c, 15, 39, 64
19, 356040, Note_on_c, 15, 43, 75
19, 356155, Note_off_c, 15, 43, 64
19, 356160, Note_on_c, 15, 39, 75
19, 356280, Note_off_c, 15, 39, 64
19, 356280, Note_on_c, 15, 41, 75
19, 356400, Note_off_c, 15, 41, 64
19, 356400, Note_on_c, 15, 39, 75
19, 356520, Note_off_c, 15, 39, 64
19, 356520, Note_on_c, 15, 41, 75
19, 356635, Note_off_c, 15, 41, 64
19, 356640, Note_on_c, 15, 38, 75
19, 356760, Note_off_c, 15, 38, 64
19, 356760, Note_on_c, 15, 41, 75
19, 356880, Note_off_c, 15, 41, 64
19, 356880, Note_on_c, 15, 38, 75
19, 357000, Note_off_c, 15, 38, 64
19, 357000, Note_on_c, 15, 41, 75
19, 357115, Note_off_c, 15, 41, 64
19, 357120, Note_on_c, 15, 36, 75
19, 357240, Note_off_c, 15, 36, 64
19, 357240, Note_on_c, 15, 39, 75
19, 357360, Note_off_c, 15, 39, 64
19, 357360, Note_on_c, 15, 38, 75
19, 357480, Note_off_c, 15, 38, 64
19, 357480, Note_on_c, 15, 41, 75
19, 357595, Note_off_c, 15, 41, 64
19, 357600, Note_on_c, 15, 39, 75
19, 357720, Note_off_c, 15, 39, 64
19, 357720, Note_on_c, 15, 41, 75
19, 357840, Note_off_c, 15, 41, 64
19, 357840, Note_on_c, 15, 39, 75
19, 357960, Note_off_c, 15, 39, 64
19, 357960, Note_on_c, 15, 41, 75
19, 358075, Note_off_c, 15, 41, 64
19, 358080, Note_on_c, 15, 39, 75
19, 358200, Note_off_c, 15, 39, 64
19, 358200, Note_on_c, 15, 41, 75
19, 358320, Note_off_c, 15, 41, 64
19, 358320, Note_on_c, 15, 39, 75
19, 358440, Note_off_c, 15, 39, 64
19, 358440, Note_on_c, 15, 41, 75
19, 358555, Note_off_c, 15, 41, 64
19, 358560, Note_on_c, 15, 38, 75
19, 358800, Note_off_c, 15, 38, 64
19, 358800, Note_on_c, 15, 40, 75
19, 359035, Note_off_c, 15, 40, 64
19, 359040, Note_on_c, 15, 42, 75
19, 359280, Note_off_c, 15, 42, 64
19, 359280, Note_on_c, 15, 38, 75
19, 359515, Note_off_c, 15, 38, 64
19, 359520, Note_on_c, 15, 43, 75
19, 359760, Note_off_c, 15, 43, 64
19, 359760, Note_on_c, 15, 31, 75
19, 359995, Note_off_c, 15, 31, 64
19, 360000, Note_on_c, 15, 36, 75
19, 360240, Note_off_c, 15, 36, 64
19, 360240, Note_on_c, 15, 34, 75
19, 360475, Note_off_c, 15, 34, 64
19, 360480, Note_on_c, 15, 33, 75
19, 360880, Note_off_c, 15, 33, 64
19, 360960, Note_on_c, 15, 34, 75
19, 361360, Note_off_c, 15, 34, 64
19, 361440, Note_on_c, 15, 36, 75
19, 361840, Note_off_c, 15, 36, 64
19, 361920, Note_on_c, 15, 34, 75
19, 362320, Note_off_c, 15, 34, 64
19, 362400, Note_on_c, 15, 33, 75
19, 362640, Note_off_c, 15, 33, 64
19, 362640, Note_on_c, 15, 38, 75
19, 362875, Note_off_c, 15, 38, 64
19, 363120, Note_on_c, 15, 41, 75
19, 363360, Note_off_c, 15, 41, 64
19, 363360, Note_on_c, 15, 39, 75
19, 363600, Note_off_c, 15, 39, 64
19, 363600, Note_on_c, 15, 36, 75
19, 363835, Note_off_c, 15, 36, 64
19, 363840, Note_on_c, 15, 38, 75
19, 364080, Note_off_c, 15, 38, 64
19, 364080, Note_on_c, 15, 50, 75
19, 364315, Note_off_c, 15, 50, 64
19, 364320, Note_on_c, 15, 31, 75
19, 364560, Note_off_c, 15, 31, 64
19, 364560, Note_on_c, 15, 43, 75
19, 364795, Note_off_c, 15, 43, 64
19, 364800, Note_on_c, 15, 38, 75
19, 365040, Note_off_c, 15, 38, 64
19, 365040, Note_on_c, 15, 36, 75
19, 365275, Note_off_c, 15, 36, 64
19, 365280, Note_on_c, 15, 38, 75
19, 365520, Note_off_c, 15, 38, 64
19, 365520, Note_on_c, 15, 43, 75
19, 365755, Note_off_c, 15, 43, 64
19, 365760, Note_on_c, 15, 36, 75
19, 366480, Note_off_c, 15, 36, 64
19, 366480, Note_on_c, 15, 38, 75
19, 366715, Note_off_c, 15, 38, 64
19, 366720, Note_on_c, 15, 40, 75
19, 366960, Note_off_c, 15, 40, 64
19, 366960, Note_on_c, 15, 36, 75
19, 367195, Note_off_c, 15, 36, 64
19, 367200, Note_on_c, 15, 41, 75
19, 368040, Note_off_c, 15, 41, 64
19, 368160, Note_on_c, 15, 29, 92
19, 368560, Note_off_c, 15, 29, 64
19, 368640, Note_on_c, 15, 36, 92
19, 369480, Note_off_c, 15, 36, 64
19, 369600, Note_on_c, 15, 32, 92
19, 370000, Note_off_c, 15, 32, 64
19, 370080, Note_on_c, 15, 34, 92
19, 370920, Note_off_c, 15, 34, 64
19, 371040, Note_on_c, 15, 36, 92
19, 371440, Note_off_c, 15, 36, 64
19, 371520, Note_on_c, 15, 37, 92
19, 372360, Note_off_c, 15, 37, 64
19, 372480, Note_on_c, 15, 34, 92
19, 372880, Note_off_c, 15, 34, 64
19, 372960, Note_on_c, 15, 36, 92
19, 373555, Note_off_c, 15, 36, 64
19, 373560, Note_on_c, 15, 40, 92
19, 373680, Note_off_c, 15, 40, 64
19, 373680, Note_on_c, 15, 38, 92
19, 373800, Note_off_c, 15, 38, 64
19, 373800, Note_on_c, 15, 41, 92
19, 373915, Note_off_c, 15, 41, 64
19, 373920, Note_on_c, 15, 40, 92
19, 374040, Note_off_c, 15, 40, 64
19, 374040, Note_on_c, 15, 43, 92
19, 374160, Note_off_c, 15, 43, 64
19, 374160, Note_on_c, 15, 40, 92
19, 374280, Note_off_c, 15, 40, 64
19, 374280, Note_on_c, 15, 43, 92
19, 374395, Note_off_c, 15, 43, 64
19, 374400, Note_on_c, 15, 32, 92
19, 375240, Note_off_c, 15, 32, 64
19, 375360, Note_on_c, 15, 36, 92
19, 375480, Note_off_c, 15, 36, 64
19, 375480, Note_on_c, 15, 37, 92
19, 375600, Note_off_c, 15, 37, 64
19, 375600, Note_on_c, 15, 36, 92
19, 375720, Note_off_c, 15, 36, 64
19, 375720, Note_on_c, 15, 37, 92
19, 375835, Note_off_c, 15, 37, 64
19, 375840, Note_on_c, 15, 38, 92
19, 376240, Note_off_c, 15, 38, 64
19, 376320, Note_on_c, 15, 40, 92
19, 377160, Note_off_c, 15, 40, 64
19, 377280, Note_on_c, 15, 29, 92
19, 378120, Note_off_c, 15, 29, 64
19, 378240, Note_on_c, 15, 36, 92
19, 378640, Note_off_c, 15, 36, 64
19, 378720, Note_on_c, 15, 38, 92
19, 379560, Note_off_c, 15, 38, 64
19, 379800, Note_on_c, 15, 39, 92
19, 379920, Note_off_c, 15, 39, 64
19, 379920, Note_on_c, 15, 38, 92
19, 380040, Note_off_c, 15, 38, 64
19, 380040, Note_on_c, 15, 39, 92
19, 380155, Note_off_c, 15, 39, 64
19, 380160, Note_on_c, 15, 36, 92
19, 380560, Note_off_c, 15, 36, 64
19, 380640, Note_on_c, 15, 38, 92
19, 381040, Note_off_c, 15, 38, 64
19, 381240, Note_on_c, 15, 39, 92
19, 381360, Note_off_c, 15, 39, 64
19, 381360, Note_on_c, 15, 38, 92
19, 381480, Note_off_c, 15, 38, 64
19, 381480, Note_on_c, 15, 39, 92
19, 381595, Note_off_c, 15, 39, 64
19, 381600, Note_on_c, 15, 36, 92
19, 382000, Note_off_c, 15, 36, 64
19, 382080, Note_on_c, 15, 38, 92
19, 382480, Note_off_c, 15, 38, 64
19, 382680, Note_on_c, 15, 39, 92
19, 382800, Note_off_c, 15, 39, 64
19, 382800, Note_on_c, 15, 38, 92
19, 382920, Note_off_c, 15, 38, 64
19, 382920, Note_on_c, 15, 39, 92
19, 383035, Note_off_c, 15, 39, 64
19, 383040, Note_on_c, 15, 36, 92
19, 383440, Note_off_c, 15, 36, 64
19, 383520, Note_on_c, 15, 38, 92
19, 383920, Note_off_c, 15, 38, 64
19, 384000, Note_on_c, 15, 38, 92
19, 384400, Note_off_c, 15, 38, 64
19, 384480, Note_on_c, 15, 31, 92
19, 384880, Note_off_c, 15, 31, 64
19, 384960, Note_on_c, 15, 35, 92
19, 385200, Note_off_c, 15, 35, 64
19, 385200, Note_on_c, 15, 36, 92
19, 385435, Note_off_c, 15, 36, 64
19, 385440, Note_on_c, 15, 38, 92
19, 385680, Note_off_c, 15, 38, 64
19, 385680, Note_on_c, 15, 35, 92
19, 385915, Note_off_c, 15, 35, 64
19, 385920, Note_on_c, 15, 36, 92
19, 386320, Note_off_c, 15, 36, 64
19, 387120, Note_on_c, 15, 36, 92
19, 387355, Note_off_c, 15, 36, 64
19, 387360, Note_on_c, 15, 41, 92
19, 387480, Note_off_c, 15, 41, 64
19, 387480, Note_on_c, 15, 44, 92
19, 387600, Note_off_c, 15, 44, 64
19, 387600, Note_on_c, 15, 43, 92
19, 387720, Note_off_c, 15, 43, 64
19, 387720, Note_on_c, 15, 46, 92
19, 387835, Note_off_c, 15, 46, 64
19, 387840, Note_on_c, 15, 44, 92
19, 387960, Note_off_c, 15, 44, 64
19, 387960, Note_on_c, 15, 48, 92
19, 388080, Note_off_c, 15, 48, 64
19, 388080, Note_on_c, 15, 43, 92
19, 388200, Note_off_c, 15, 43, 64
19, 388200, Note_on_c, 15, 46, 92
19, 388315, Note_off_c, 15, 46, 64
19, 388320, Note_on_c, 15, 41, 92
19, 388440, Note_off_c, 15, 41, 64
19, 388440, Note_on_c, 15, 44, 92
19, 388560, Note_off_c, 15, 44, 64
19, 388560, Note_on_c, 15, 39, 92
19, 388680, Note_off_c, 15, 39, 64
19, 388680, Note_on_c, 15, 43, 92
19, 388795, Note_off_c, 15, 43, 64
19, 388800, Note_on_c, 15, 38, 92
19, 388920, Note_off_c, 15, 38, 64
19, 388920, Note_on_c, 15, 41, 92
19, 389040, Note_off_c, 15, 41, 64
19, 389040, Note_on_c, 15, 39, 92
19, 389160, Note_off_c, 15, 39, 64
19, 389160, Note_on_c, 15, 43, 92
19, 389275, Note_off_c, 15, 43, 64
19, 389280, Note_on_c, 15, 41, 92
19, 389400, Note_off_c, 15, 41, 64
19, 389400, Note_on_c, 15, 44, 92
19, 389520, Note_off_c, 15, 44, 64
19, 389520, Note_on_c, 15, 39, 92
19, 389640, Note_off_c, 15, 39, 64
19, 389640, Note_on_c, 15, 43, 92
19, 389755, Note_off_c, 15, 43, 64
19, 389760, Note_on_c, 15, 38, 92
19, 389880, Note_off_c, 15, 38, 64
19, 389880, Note_on_c, 15, 41, 92
19, 390000, Note_off_c, 15, 41, 64
19, 390000, Note_on_c, 15, 36, 92
19, 390120, Note_off_c, 15, 36, 64
19, 390120, Note_on_c, 15, 39, 92
19, 390235, Note_off_c, 15, 39, 64
19, 390240, Note_on_c, 15, 35, 92
19, 390640, Note_off_c, 15, 35, 64
19, 390720, Note_on_c, 15, 36, 92
19, 391120, Note_off_c, 15, 36, 64
19, 391200, Note_on_c, 15, 32, 92
19, 391600, Note_off_c, 15, 32, 64
19, 391680, Note_on_c, 15, 31, 92
19, 392080, Note_off_c, 15, 31, 64
19, 392280, Note_on_c, 15, 43, 92
19, 392400, Note_off_c, 15, 43, 64
19, 392400, Note_on_c, 15, 41, 92
19, 392520, Note_off_c, 15, 41, 64
19, 392520, Note_on_c, 15, 43, 92
19, 392635, Note_off_c, 15, 43, 64
19, 392640, Note_on_c, 15, 36, 92
19, 392760, Note_off_c, 15, 36, 64
19, 392760, Note_on_c, 15, 48, 92
19, 392880, Note_off_c, 15, 48, 64
19, 392880, Note_on_c, 15, 46, 92
19, 393000, Note_off_c, 15, 46, 64
19, 393000, Note_on_c, 15, 48, 92
19, 393115, Note_off_c, 15, 48, 64
19, 393120, Note_on_c, 15, 44, 92
19, 393240, Note_off_c, 15, 44, 64
19, 393240, Note_on_c, 15, 48, 92
19, 393360, Note_off_c, 15, 48, 64
19, 393360, Note_on_c, 15, 44, 92
19, 393480, Note_off_c, 15, 44, 64
19, 393480, Note_on_c, 15, 48, 92
19, 393595, Note_off_c, 15, 48, 64
19, 393600, Note_on_c, 15, 44, 92
19, 393720, Note_off_c, 15, 44, 64
19, 393720, Note_on_c, 15, 46, 92
19, 393840, Note_off_c, 15, 46, 64
19, 393840, Note_on_c, 15, 44, 92
19, 393960, Note_off_c, 15, 44, 64
19, 393960, Note_on_c, 15, 46, 92
19, 394075, Note_off_c, 15, 46, 64
19, 394080, Note_on_c, 15, 43, 92
19, 394200, Note_off_c, 15, 43, 64
19, 394200, Note_on_c, 15, 46, 92
19, 394320, Note_off_c, 15, 46, 64
19, 394320, Note_on_c, 15, 43, 92
19, 394440, Note_off_c, 15, 43, 64
19, 394440, Note_on_c, 15, 46, 92
19, 394555, Note_off_c, 15, 46, 64
19, 394560, Note_on_c, 15, 41, 92
19, 394680, Note_off_c, 15, 41, 64
19, 394680, Note_on_c, 15, 44, 92
19, 394800, Note_off_c, 15, 44, 64
19, 394800, Note_on_c, 15, 43, 92
19, 394920, Note_off_c, 15, 43, 64
19, 394920, Note_on_c, 15, 46, 92
19, 395035, Note_off_c, 15, 46, 64
19, 395040, Note_on_c, 15, 44, 92
19, 395160, Note_off_c, 15, 44, 64
19, 395160, Note_on_c, 15, 46, 92
19, 395280, Note_off_c, 15, 46, 64
19, 395280, Note_on_c, 15, 44, 92
19, 395400, Note_off_c, 15, 44, 64
19, 395400, Note_on_c, 15, 46, 92
19, 395515, Note_off_c, 15, 46, 64
19, 395520, Note_on_c, 15, 44, 92
19, 395640, Note_off_c, 15, 44, 64
19, 395640, Note_on_c, 15, 46, 92
19, 395760, Note_off_c, 15, 46, 64
19, 395760, Note_on_c, 15, 44, 92
19, 395880, Note_off_c, 15, 44, 64
19, 395880, Note_on_c, 15, 46, 92
19, 395995, Note_off_c, 15, 46, 64
19, 396000, Note_on_c, 15, 43, 92
19, 397555, Note_off_c, 15, 43, 64
19, 397560, Note_on_c, 15, 47, 92
19, 397680, Note_off_c, 15, 47, 64
19, 397680, Note_on_c, 15, 43, 92
19, 397800, Note_off_c, 15, 43, 64
19, 397800, Note_on_c, 15, 47, 92
19, 397915, Note_off_c, 15, 47, 64
19, 397920, Note_on_c, 15, 39, 92
19, 398040, Note_off_c, 15, 39, 64
19, 398040, Note_on_c, 15, 43, 92
19, 398160, Note_off_c, 15, 43, 64
19, 398160, Note_on_c, 15, 39, 92
19, 398280, Note_off_c, 15, 39, 64
19, 398280, Note_on_c, 15, 43, 92
19, 398395, Note_off_c, 15, 43, 64
19, 398400, Note_on_c, 15, 36, 92
19, 398520, Note_off_c, 15, 36, 64
19, 398520, Note_on_c, 15, 39, 92
19, 398640, Note_off_c, 15, 39, 64
19, 398640, Note_on_c, 15, 36, 92
19, 398760, Note_off_c, 15, 36, 64
19, 398760, Note_on_c, 15, 39, 92
19, 398875, Note_off_c, 15, 39, 64
19, 398880, Note_on_c, 15, 41, 92
19, 399000, Note_off_c, 15, 41, 64
19, 399000, Note_on_c, 15, 44, 92
19, 399120, Note_off_c, 15, 44, 64
19, 399120, Note_on_c, 15, 41, 92
19, 399240, Note_off_c, 15, 41, 64
19, 399240, Note_on_c, 15, 44, 92
19, 399355, Note_off_c, 15, 44, 64
19, 399360, Note_on_c, 15, 38, 92
19, 399480, Note_off_c, 15, 38, 64
19, 399480, Note_on_c, 15, 41, 92
19, 399600, Note_off_c, 15, 41, 64
19, 399600, Note_on_c, 15, 38, 92
19, 399720, Note_off_c, 15, 38, 64
19, 399720, Note_on_c, 15, 41, 92
19, 399835, Note_off_c, 15, 41, 64
19, 399840, Note_on_c, 15, 35, 92
19, 399960, Note_off_c, 15, 35, 64
19, 399960, Note_on_c, 15, 38, 92
19, 400080, Note_off_c, 15, 38, 64
19, 400080, Note_on_c, 15, 35, 92
19, 400200, Note_off_c, 15, 35, 64
19, 400200, Note_on_c, 15, 38, 92
19, 400315, Note_off_c, 15, 38, 64
19, 400320, Note_on_c, 15, 39, 92
19, 400440, Note_off_c, 15, 39, 64
19, 400440, Note_on_c, 15, 43, 92
19, 400560, Note_off_c, 15, 43, 64
19, 400560, Note_on_c, 15, 39, 92
19, 400680, Note_off_c, 15, 39, 64
19, 400680, Note_on_c, 15, 43, 92
19, 400795, Note_off_c, 15, 43, 64
19, 400800, Note_on_c, 15, 36, 92
19, 400920, Note_off_c, 15, 36, 64
19, 400920, Note_on_c, 15, 39, 92
19, 401040, Note_off_c, 15, 39, 64
19, 401040, Note_on_c, 15, 36, 92
19, 401160, Note_off_c, 15, 36, 64
19, 401160, Note_on_c, 15, 39, 92
19, 401275, Note_off_c, 15, 39, 64
19, 401280, Note_on_c, 15, 33, 92
19, 401400, Note_off_c, 15, 33, 64
19, 401400, Note_on_c, 15, 36, 92
19, 401520, Note_off_c, 15, 36, 64
19, 401520, Note_on_c, 15, 33, 92
19, 401640, Note_off_c, 15, 33, 64
19, 401640, Note_on_c, 15, 36, 92
19, 401755, Note_off_c, 15, 36, 64
19, 401760, Note_on_c, 15, 38, 92
19, 401880, Note_off_c, 15, 38, 64
19, 401880, Note_on_c, 15, 41, 92
19, 402000, Note_off_c, 15, 41, 64
19, 402000, Note_on_c, 15, 38, 92
19, 402120, Note_off_c, 15, 38, 64
19, 402120, Note_on_c, 15, 41, 92
19, 402235, Note_off_c, 15, 41, 64
19, 402240, Note_on_c, 15, 35, 92
19, 402360, Note_off_c, 15, 35, 64
19, 402360, Note_on_c, 15, 38, 92
19, 402480, Note_off_c, 15, 38, 64
19, 402480, Note_on_c, 15, 35, 92
19, 402600, Note_off_c, 15, 35, 64
19, 402600, Note_on_c, 15, 38, 92
19, 402715, Note_off_c, 15, 38, 64
19, 402720, Note_on_c, 15, 31, 92
19, 402840, Note_off_c, 15, 31, 64
19, 402840, Note_on_c, 15, 36, 92
19, 402960, Note_off_c, 15, 36, 64
19, 402960, Note_on_c, 15, 31, 92
19, 403080, Note_off_c, 15, 31, 64
19, 403080, Note_on_c, 15, 35, 92
19, 403195, Note_off_c, 15, 35, 64
19, 403200, Note_on_c, 15, 36, 92
19, 403320, Note_off_c, 15, 36, 64
19, 403320, Note_on_c, 15, 39, 92
19, 403440, Note_off_c, 15, 39, 64
19, 403440, Note_on_c, 15, 36, 92
19, 403560, Note_off_c, 15, 36, 64
19, 403560, Note_on_c, 15, 39, 92
19, 403675, Note_off_c, 15, 39, 64
19, 403680, Note_on_c, 15, 32, 92
19, 403800, Note_off_c, 15, 32, 64
19, 403800, Note_on_c, 15, 36, 92
19, 403920, Note_off_c, 15, 36, 64
19, 403920, Note_on_c, 15, 32, 92
19, 404040, Note_off_c, 15, 32, 64
19, 404040, Note_on_c, 15, 36, 92
19, 404155, Note_off_c, 15, 36, 64
19, 404160, Note_on_c, 15, 41, 92
19, 404280, Note_off_c, 15, 41, 64
19, 404280, Note_on_c, 15, 44, 92
19, 404400, Note_off_c, 15, 44, 64
19, 404400, Note_on_c, 15, 41, 92
19, 404520, Note_off_c, 15, 41, 64
19, 404520, Note_on_c, 15, 44, 92
19, 404635, Note_off_c, 15, 44, 64
19, 404640, Note_on_c, 15, 43, 92
19, 405040, Note_off_c, 15, 43, 64
19, 405120, Note_on_c, 15, 31, 92
19, 405355, Note_off_c, 15, 31, 64
19, 405360, Note_on_c, 15, 31, 92
19, 405595, Note_off_c, 15, 31, 64
19, 405840, Note_on_c, 15, 31, 92
19, 406075, Note_off_c, 15, 31, 64
19, 406080, Note_on_c, 15, 43, 92
19, 406480, Note_off_c, 15, 43, 64
19, 406680, Note_on_c, 15, 43, 92
19, 406800, Note_off_c, 15, 43, 64
19, 406800, Note_on_c, 15, 41, 92
19, 406920, Note_off_c, 15, 41, 64
19, 406920, Note_on_c, 15, 43, 92
19, 407035, Note_off_c, 15, 43, 64
19, 407040, Note_on_c, 15, 39, 92
19, 407160, Note_off_c, 15, 39, 64
19, 407160, Note_on_c, 15, 43, 92
19, 407280, Note_off_c, 15, 43, 64
19, 407280, Note_on_c, 15, 36, 92
19, 407400, Note_off_c, 15, 36, 64
19, 407400, Note_on_c, 15, 39, 92
19, 407515, Note_off_c, 15, 39, 64
19, 407520, Note_on_c, 15, 35, 92
19, 407920, Note_off_c, 15, 35, 64
19, 408120, Note_on_c, 15, 43, 92
19, 408240, Note_off_c, 15, 43, 64
19, 408240, Note_on_c, 15, 41, 92
19, 408360, Note_off_c, 15, 41, 64
19, 408360, Note_on_c, 15, 43, 92
19, 408475, Note_off_c, 15, 43, 64
19, 408480, Note_on_c, 15, 39, 92
19, 408600, Note_off_c, 15, 39, 64
19, 408600, Note_on_c, 15, 43, 92
19, 408720, Note_off_c, 15, 43, 64
19, 408720, Note_on_c, 15, 36, 92
19, 408840, Note_off_c, 15, 36, 64
19, 408840, Note_on_c, 15, 39, 92
19, 408955, Note_off_c, 15, 39, 64
19, 408960, Note_on_c, 15, 31, 92
19, 409360, Note_off_c, 15, 31, 64
19, 409560, Note_on_c, 15, 43, 92
19, 409680, Note_off_c, 15, 43, 64
19, 409680, Note_on_c, 15, 41, 92
19, 409800, Note_off_c, 15, 41, 64
19, 409800, Note_on_c, 15, 43, 92
19, 409915, Note_off_c, 15, 43, 64
19, 409920, Note_on_c, 15, 39, 92
19, 410040, Note_off_c, 15, 39, 64
19, 410040, Note_on_c, 15, 43, 92
19, 410160, Note_off_c, 15, 43, 64
19, 410160, Note_on_c, 15, 36, 92
19, 410280, Note_off_c, 15, 36, 64
19, 410280, Note_on_c, 15, 39, 92
19, 410395, Note_off_c, 15, 39, 64
19, 410400, Note_on_c, 15, 29, 92
19, 410800, Note_off_c, 15, 29, 64
19, 411120, Note_on_c, 15, 41, 92
19, 411355, Note_off_c, 15, 41, 64
19, 411360, Note_on_c, 15, 39, 92
19, 411595, Note_off_c, 15, 39, 64
19, 411600, Note_on_c, 15, 36, 92
19, 411835, Note_off_c, 15, 36, 64
19, 411840, Note_on_c, 15, 41, 92
19, 412240, Note_off_c, 15, 41, 64
19, 412320, Note_on_c, 15, 43, 92
19, 412720, Note_off_c, 15, 43, 64
19, 412800, Note_on_c, 15, 43, 92
19, 413200, Note_off_c, 15, 43, 64
19, 413280, Note_on_c, 15, 36, 99
19, 413760, Note_off_c, 15, 36, 64
19, 413880, Note_on_c, 15, 36, 108
19, 414000, Note_off_c, 15, 36, 64
19, 414000, Note_on_c, 15, 40, 108
19, 414120, Note_off_c, 15, 40, 64
19, 414120, Note_on_c, 15, 36, 108
19, 414240, Note_off_c, 15, 36, 64
19, 414240, Note_on_c, 15, 41, 108
19, 414360, Note_off_c, 15, 41, 64
19, 414360, Note_on_c, 15, 36, 108
19, 414480, Note_off_c, 15, 36, 64
19, 414480, Note_on_c, 15, 44, 108
19, 414600, Note_off_c, 15, 44, 64
19, 414600, Note_on_c, 15, 41, 108
19, 414720, Note_off_c, 15, 41, 64
19, 414720, Note_on_c, 15, 48, 108
19, 415200, Note_off_c, 15, 48, 64
19, 415320, Note_on_c, 15, 48, 108
19, 415440, Note_off_c, 15, 48, 64
19, 415440, Note_on_c, 15, 46, 108
19, 415560, Note_off_c, 15, 46, 64
19, 415560, Note_on_c, 15, 48, 108
19, 415680, Note_off_c, 15, 48, 64
19, 415680, Note_on_c, 15, 44, 108
19, 415800, Note_off_c, 15, 44, 64
19, 415800, Note_on_c, 15, 48, 108
19, 415920, Note_off_c, 15, 48, 64
19, 415920, Note_on_c, 15, 41, 108
19, 416040, Note_off_c, 15, 41, 64
19, 416040, Note_on_c, 15, 44, 108
19, 416160, Note_off_c, 15, 44, 64
19, 416160, Note_on_c, 15, 40, 108
19, 416640, Note_off_c, 15, 40, 64
19, 416760, Note_on_c, 15, 48, 127
19, 416875, Note_off_c, 15, 48, 64
19, 416880, Note_on_c, 15, 46, 127
19, 416995, Note_off_c, 15, 46, 64
19, 417000, Note_on_c, 15, 48, 127
19, 417115, Note_off_c, 15, 48, 64
19, 417120, Note_on_c, 15, 44, 127
19, 417235, Note_off_c, 15, 44, 64
19, 417240, Note_on_c, 15, 48, 108
19, 417360, Note_off_c, 15, 48, 64
19, 417360, Note_on_c, 15, 41, 108
19, 417480, Note_off_c, 15, 41, 64
19, 417480, Note_on_c, 15, 44, 108
19, 417600, Note_off_c, 15, 44, 64
19, 417600, Note_on_c, 15, 36, 108
19, 418080, Note_off_c, 15, 36, 64
19, 418200, Note_on_c, 15, 36, 127
19, 418315, Note_off_c, 15, 36, 64
19, 418320, Note_on_c, 15, 34, 127
19, 418435, Note_off_c, 15, 34, 64
19, 418440, Note_on_c, 15, 36, 127
19, 418555, Note_off_c, 15, 36, 64
19, 418560, Note_on_c, 15, 41, 127
19, 418795, Note_off_c, 15, 41, 64
19, 418800, Note_on_c, 15, 38, 108
19, 418920, Note_off_c, 15, 38, 64
19, 418920, Note_on_c, 15, 41, 108
19, 419040, Note_off_c, 15, 41, 64
19, 419040, Note_on_c, 15, 36, 108
19, 421800, Note_off_c, 15, 36, 64
19, 421800, End_track
0, 0, End_of_file
