0, 0, Header, 1, 4, 480
1, 0, Start_track
1, 0, Title_t, "Track 1"
1, 0, Tempo, 800000
1, 0, Time_signature, 4, 2, 24, 8
1, 107520, Tempo, 857142
1, 109440, Tempo, 923076
1, 110400, Tempo, 1200000
1, 110642, Tempo, 1333333
1, 111360, Tempo, 500000
1, 111360, Time_signature, 12, 3, 24, 8
1, 113520, Tempo, 1090909
1, 274320, Tempo, 1333333
1, 275520, Tempo, 750000
1, 278400, Time_signature, 3, 2, 24, 8
1, 461280, Tempo, 1200000
1, 462720, End_track
2, 0, Start_track
2, 0, Title_t, "Track 1"
2, 3840, Note_on_c, 0, 70, 92
2, 4080, Note_off_c, 0, 70, 64
2, 4080, Note_on_c, 0, 74, 92
2, 4320, Note_off_c, 0, 74, 64
2, 4320, Note_on_c, 0, 77, 92
2, 4800, Note_off_c, 0, 77, 64
2, 4800, Note_on_c, 0, 70, 92
2, 5040, Note_off_c, 0, 70, 64
2, 5040, Note_on_c, 0, 75, 92
2, 5280, Note_off_c, 0, 75, 64
2, 5280, Note_on_c, 0, 79, 92
2, 5880, Note_off_c, 0, 79, 64
2, 5880, Note_on_c, 0, 82, 92
2, 6000, Note_off_c, 0, 82, 64
2, 6000, Note_on_c, 0, 81, 92
2, 6120, Note_off_c, 0, 81, 64
2, 6120, Note_on_c, 0, 79, 92
2, 6240, Note_off_c, 0, 79, 64
2, 6240, Note_on_c, 0, 77, 92
2, 6480, Note_off_c, 0, 77, 64
2, 6480, Note_on_c, 0, 75, 92
2, 6540, Note_off_c, 0, 75, 64
2, 6540, Note_on_c, 0, 77, 92
2, 6600, Note_off_c, 0, 77, 64
2, 6600, Note_on_c, 0, 75, 92
2, 6720, Note_off_c, 0, 75, 64
2, 6720, Note_on_c, 0, 74, 92
2, 6960, Note_off_c, 0, 74, 64
2, 6960, Note_on_c, 0, 72, 92
2, 7080, Note_off_c, 0, 72, 64
2, 7080, Note_on_c, 0, 74, 92
2, 7200, Note_off_c, 0, 74, 64
2, 7200, Note_on_c, 0, 75, 92
2, 7320, Note_off_c, 0, 75, 64
2, 7320, Note_on_c, 0, 74, 92
2, 7440, Note_off_c, 0, 74, 64
2, 7440, Note_on_c, 0, 72, 92
2, 7560, Note_off_c, 0, 72, 64
2, 7560, Note_on_c, 0, 70, 92
2, 7680, Note_off_c, 0, 70, 64
2, 7680, Note_on_c, 0, 72, 92
2, 7920, Note_off_c, 0, 72, 64
2, 7920, Note_on_c, 0, 72, 92
2, 8160, Note_off_c, 0, 72, 64
2, 8160, Note_on_c, 0, 77, 92
2, 8760, Note_off_c, 0, 77, 64
2, 8760, Note_on_c, 0, 75, 92
2, 8880, Note_off_c, 0, 75, 64
2, 8880, Note_on_c, 0, 74, 92
2, 9000, Note_off_c, 0, 74, 64
2, 9000, Note_on_c, 0, 75, 92
2, 9120, Note_off_c, 0, 75, 64
2, 9120, Note_on_c, 0, 77, 92
2, 9240, Note_off_c, 0, 77, 64
2, 9240, Note_on_c, 0, 75, 92
2, 9360, Note_off_c, 0, 75, 64
2, 9360, Note_on_c, 0, 74, 92
2, 9480, Note_off_c, 0, 74, 64
2, 9480, Note_on_c, 0, 72, 92
2, 9600, Note_off_c, 0, 72, 64
2, 9600, Note_on_c, 0, 74, 92
2, 9840, Note_off_c, 0, 74, 64
2, 9840, Note_on_c, 0, 74, 92
2, 10080, Note_off_c, 0, 74, 64
2, 10080, Note_on_c, 0, 79, 92
2, 10800, Note_off_c, 0, 79, 64
2, 10800, Note_on_c, 0, 72, 92
2, 11040, Note_off_c, 0, 72, 64
2, 11040, Note_on_c, 0, 74, 92
2, 11160, Note_off_c, 0, 74, 64
2, 11160, Note_on_c, 0, 75, 92
2, 11280, Note_off_c, 0, 75, 64
2, 11280, Note_on_c, 0, 77, 92
2, 11760, Note_off_c, 0, 77, 64
2, 11760, Note_on_c, 0, 70, 92
2, 12000, Note_off_c, 0, 70, 64
2, 12000, Note_on_c, 0, 72, 92
2, 12120, Note_off_c, 0, 72, 64
2, 12120, Note_on_c, 0, 74, 92
2, 12240, Note_off_c, 0, 74, 64
2, 12240, Note_on_c, 0, 75, 92
2, 12600, Note_off_c, 0, 75, 64
2, 12600, Note_on_c, 0, 67, 92
2, 12720, Note_off_c, 0, 67, 64
2, 12720, Note_on_c, 0, 68, 92
2, 12840, Note_off_c, 0, 68, 64
2, 12840, Note_on_c, 0, 72, 92
2, 12960, Note_off_c, 0, 72, 64
2, 12960, Note_on_c, 0, 70, 92
2, 13080, Note_off_c, 0, 70, 64
2, 13080, Note_on_c, 0, 68, 92
2, 13200, Note_off_c, 0, 68, 64
2, 13200, Note_on_c, 0, 67, 92
2, 13320, Note_off_c, 0, 67, 64
2, 13320, Note_on_c, 0, 65, 92
2, 13440, Note_off_c, 0, 65, 64
2, 13440, Note_on_c, 0, 77, 92
2, 13680, Note_off_c, 0, 77, 64
2, 13680, Note_on_c, 0, 74, 92
2, 13920, Note_off_c, 0, 74, 64
2, 13920, Note_on_c, 0, 75, 92
2, 14520, Note_off_c, 0, 75, 64
2, 14520, Note_on_c, 0, 79, 92
2, 14640, Note_off_c, 0, 79, 64
2, 14640, Note_on_c, 0, 77, 92
2, 14760, Note_off_c, 0, 77, 64
2, 14760, Note_on_c, 0, 75, 92
2, 14880, Note_off_c, 0, 75, 64
2, 14880, Note_on_c, 0, 74, 92
2, 15000, Note_off_c, 0, 74, 64
2, 15000, Note_on_c, 0, 72, 92
2, 15120, Note_off_c, 0, 72, 64
2, 15120, Note_on_c, 0, 70, 92
2, 15240, Note_off_c, 0, 70, 64
2, 15240, Note_on_c, 0, 72, 92
2, 15360, Note_off_c, 0, 72, 64
2, 15360, Note_on_c, 0, 73, 92
2, 15480, Note_off_c, 0, 73, 64
2, 15480, Note_on_c, 0, 68, 92
2, 15600, Note_off_c, 0, 68, 64
2, 15600, Note_on_c, 0, 67, 92
2, 15720, Note_off_c, 0, 67, 64
2, 15720, Note_on_c, 0, 65, 92
2, 15840, Note_off_c, 0, 65, 64
2, 15840, Note_on_c, 0, 63, 92
2, 15960, Note_off_c, 0, 63, 64
2, 15960, Note_on_c, 0, 67, 92
2, 16080, Note_off_c, 0, 67, 64
2, 16080, Note_on_c, 0, 68, 92
2, 16200, Note_off_c, 0, 68, 64
2, 16200, Note_on_c, 0, 70, 92
2, 16320, Note_off_c, 0, 70, 64
2, 16320, Note_on_c, 0, 72, 92
2, 16440, Note_off_c, 0, 72, 64
2, 16440, Note_on_c, 0, 70, 92
2, 16560, Note_off_c, 0, 70, 64
2, 16560, Note_on_c, 0, 68, 92
2, 16680, Note_off_c, 0, 68, 64
2, 16680, Note_on_c, 0, 67, 92
2, 16800, Note_off_c, 0, 67, 64
2, 16800, Note_on_c, 0, 65, 92
2, 16920, Note_off_c, 0, 65, 64
2, 16920, Note_on_c, 0, 70, 92
2, 17040, Note_off_c, 0, 70, 64
2, 17040, Note_on_c, 0, 72, 92
2, 17160, Note_off_c, 0, 72, 64
2, 17160, Note_on_c, 0, 74, 92
2, 17280, Note_off_c, 0, 74, 64
2, 17280, Note_on_c, 0, 75, 92
2, 17400, Note_off_c, 0, 75, 64
2, 17400, Note_on_c, 0, 72, 92
2, 17520, Note_off_c, 0, 72, 64
2, 17520, Note_on_c, 0, 70, 92
2, 17640, Note_off_c, 0, 70, 64
2, 17640, Note_on_c, 0, 68, 92
2, 17760, Note_off_c, 0, 68, 64
2, 17760, Note_on_c, 0, 67, 92
2, 17880, Note_off_c, 0, 67, 64
2, 17880, Note_on_c, 0, 74, 92
2, 18000, Note_off_c, 0, 74, 64
2, 18000, Note_on_c, 0, 75, 92
2, 18120, Note_off_c, 0, 75, 64
2, 18120, Note_on_c, 0, 77, 92
2, 18240, Note_off_c, 0, 77, 64
2, 18240, Note_on_c, 0, 70, 92
2, 18360, Note_off_c, 0, 70, 64
2, 18360, Note_on_c, 0, 75, 92
2, 18480, Note_off_c, 0, 75, 64
2, 18480, Note_on_c, 0, 77, 92
2, 18600, Note_off_c, 0, 77, 64
2, 18600, Note_on_c, 0, 79, 92
2, 18720, Note_off_c, 0, 79, 64
2, 18720, Note_on_c, 0, 72, 92
2, 18840, Note_off_c, 0, 72, 64
2, 18840, Note_on_c, 0, 77, 92
2, 18960, Note_off_c, 0, 77, 64
2, 18960, Note_on_c, 0, 70, 92
2, 19080, Note_off_c, 0, 70, 64
2, 19080, Note_on_c, 0, 68, 92
2, 19200, Note_off_c, 0, 68, 64
2, 19200, Note_on_c, 0, 67, 92
2, 19680, Note_off_c, 0, 67, 64
2, 19920, Note_on_c, 0, 67, 92
2, 20160, Note_off_c, 0, 67, 64
2, 20160, Note_on_c, 0, 65, 92
2, 20280, Note_off_c, 0, 65, 64
2, 20280, Note_on_c, 0, 68, 92
2, 20400, Note_off_c, 0, 68, 64
2, 20400, Note_on_c, 0, 74, 92
2, 20520, Note_off_c, 0, 74, 64
2, 20520, Note_on_c, 0, 72, 92
2, 20640, Note_off_c, 0, 72, 64
2, 20640, Note_on_c, 0, 74, 92
2, 20760, Note_off_c, 0, 74, 64
2, 20760, Note_on_c, 0, 68, 92
2, 20880, Note_off_c, 0, 68, 64
2, 20880, Note_on_c, 0, 65, 92
2, 21000, Note_off_c, 0, 65, 64
2, 21000, Note_on_c, 0, 68, 92
2, 21120, Note_off_c, 0, 68, 64
2, 21120, Note_on_c, 0, 67, 92
2, 21240, Note_off_c, 0, 67, 64
2, 21240, Note_on_c, 0, 70, 92
2, 21360, Note_off_c, 0, 70, 64
2, 21360, Note_on_c, 0, 75, 92
2, 21480, Note_off_c, 0, 75, 64
2, 21480, Note_on_c, 0, 70, 92
2, 21600, Note_off_c, 0, 70, 64
2, 21600, Note_on_c, 0, 67, 92
2, 21720, Note_off_c, 0, 67, 64
2, 21720, Note_on_c, 0, 70, 92
2, 21840, Note_off_c, 0, 70, 64
2, 21840, Note_on_c, 0, 63, 92
2, 21960, Note_off_c, 0, 63, 64
2, 21960, Note_on_c, 0, 67, 92
2, 22080, Note_off_c, 0, 67, 64
2, 22080, Note_on_c, 0, 62, 92
2, 22320, Note_off_c, 0, 62, 64
2, 22320, Note_on_c, 0, 65, 92
2, 22560, Note_off_c, 0, 65, 64
2, 22560, Note_on_c, 0, 70, 92
2, 23040, Note_off_c, 0, 70, 64
2, 23040, Note_on_c, 0, 63, 92
2, 23280, Note_off_c, 0, 63, 64
2, 23280, Note_on_c, 0, 67, 92
2, 23520, Note_off_c, 0, 67, 64
2, 23520, Note_on_c, 0, 70, 92
2, 24120, Note_off_c, 0, 70, 64
2, 24120, Note_on_c, 0, 72, 92
2, 24240, Note_off_c, 0, 72, 64
2, 24240, Note_on_c, 0, 76, 92
2, 24360, Note_off_c, 0, 76, 64
2, 24360, Note_on_c, 0, 74, 92
2, 24480, Note_off_c, 0, 74, 64
2, 24480, Note_on_c, 0, 76, 92
2, 24600, Note_off_c, 0, 76, 64
2, 24600, Note_on_c, 0, 70, 92
2, 24720, Note_off_c, 0, 70, 64
2, 24720, Note_on_c, 0, 67, 92
2, 24840, Note_off_c, 0, 67, 64
2, 24840, Note_on_c, 0, 70, 92
2, 24960, Note_off_c, 0, 70, 64
2, 24960, Note_on_c, 0, 69, 92
2, 25080, Note_off_c, 0, 69, 64
2, 25080, Note_on_c, 0, 72, 92
2, 25200, Note_off_c, 0, 72, 64
2, 25200, Note_on_c, 0, 77, 92
2, 25320, Note_off_c, 0, 77, 64
2, 25320, Note_on_c, 0, 72, 92
2, 25440, Note_off_c, 0, 72, 64
2, 25440, Note_on_c, 0, 69, 92
2, 25560, Note_off_c, 0, 69, 64
2, 25560, Note_on_c, 0, 72, 92
2, 25680, Note_off_c, 0, 72, 64
2, 25680, Note_on_c, 0, 65, 92
2, 25800, Note_off_c, 0, 65, 64
2, 25800, Note_on_c, 0, 69, 92
2, 25920, Note_off_c, 0, 69, 64
2, 25920, Note_on_c, 0, 64, 92
2, 26160, Note_off_c, 0, 64, 64
2, 26160, Note_on_c, 0, 67, 92
2, 26400, Note_off_c, 0, 67, 64
2, 26400, Note_on_c, 0, 72, 92
2, 26880, Note_off_c, 0, 72, 64
2, 26880, Note_on_c, 0, 65, 92
2, 27120, Note_off_c, 0, 65, 64
2, 27120, Note_on_c, 0, 69, 92
2, 27360, Note_off_c, 0, 69, 64
2, 27360, Note_on_c, 0, 72, 92
2, 27960, Note_off_c, 0, 72, 64
2, 27960, Note_on_c, 0, 74, 92
2, 28080, Note_off_c, 0, 74, 64
2, 28080, Note_on_c, 0, 78, 92
2, 28200, Note_off_c, 0, 78, 64
2, 28200, Note_on_c, 0, 76, 92
2, 28320, Note_off_c, 0, 76, 64
2, 28320, Note_on_c, 0, 78, 92
2, 28440, Note_off_c, 0, 78, 64
2, 28440, Note_on_c, 0, 72, 92
2, 28560, Note_off_c, 0, 72, 64
2, 28560, Note_on_c, 0, 69, 92
2, 28680, Note_off_c, 0, 69, 64
2, 28680, Note_on_c, 0, 72, 92
2, 28800, Note_off_c, 0, 72, 64
2, 28800, Note_on_c, 0, 70, 92
2, 28920, Note_off_c, 0, 70, 64
2, 28920, Note_on_c, 0, 74, 92
2, 29040, Note_off_c, 0, 74, 64
2, 29040, Note_on_c, 0, 79, 92
2, 29160, Note_off_c, 0, 79, 64
2, 29160, Note_on_c, 0, 74, 92
2, 29280, Note_off_c, 0, 74, 64
2, 29280, Note_on_c, 0, 70, 92
2, 29400, Note_off_c, 0, 70, 64
2, 29400, Note_on_c, 0, 74, 92
2, 29520, Note_off_c, 0, 74, 64
2, 29520, Note_on_c, 0, 67, 92
2, 29640, Note_off_c, 0, 67, 64
2, 29640, Note_on_c, 0, 70, 92
2, 29760, Note_off_c, 0, 70, 64
2, 29760, Note_on_c, 0, 72, 92
2, 30000, Note_off_c, 0, 72, 64
2, 30000, Note_on_c, 0, 65, 92
2, 30240, Note_off_c, 0, 65, 64
2, 30240, Note_on_c, 0, 77, 92
2, 30480, Note_off_c, 0, 77, 64
2, 30480, Note_on_c, 0, 75, 92
2, 30600, Note_off_c, 0, 75, 64
2, 30600, Note_on_c, 0, 74, 92
2, 30720, Note_off_c, 0, 74, 64
2, 30720, Note_on_c, 0, 72, 92
2, 30840, Note_off_c, 0, 72, 64
2, 30840, Note_on_c, 0, 65, 92
2, 30960, Note_off_c, 0, 65, 64
2, 30960, Note_on_c, 0, 67, 92
2, 31080, Note_off_c, 0, 67, 64
2, 31080, Note_on_c, 0, 69, 92
2, 31200, Note_off_c, 0, 69, 64
2, 31200, Note_on_c, 0, 70, 92
2, 31320, Note_off_c, 0, 70, 64
2, 31320, Note_on_c, 0, 72, 92
2, 31440, Note_off_c, 0, 72, 64
2, 31440, Note_on_c, 0, 74, 92
2, 31560, Note_off_c, 0, 74, 64
2, 31560, Note_on_c, 0, 75, 92
2, 31680, Note_off_c, 0, 75, 64
2, 31680, Note_on_c, 0, 77, 92
2, 31920, Note_off_c, 0, 77, 64
2, 31920, Note_on_c, 0, 74, 92
2, 32160, Note_off_c, 0, 74, 64
2, 32160, Note_on_c, 0, 70, 92
2, 32640, Note_off_c, 0, 70, 64
2, 32640, Note_on_c, 0, 77, 92
2, 32880, Note_off_c, 0, 77, 64
2, 32880, Note_on_c, 0, 74, 92
2, 33120, Note_off_c, 0, 74, 64
2, 33120, Note_on_c, 0, 68, 92
2, 33600, Note_off_c, 0, 68, 64
2, 33600, Note_on_c, 0, 77, 92
2, 33840, Note_off_c, 0, 77, 64
2, 33840, Note_on_c, 0, 74, 92
2, 34080, Note_off_c, 0, 74, 64
2, 34080, Note_on_c, 0, 67, 92
2, 34320, Note_off_c, 0, 67, 64
2, 34320, Note_on_c, 0, 77, 92
2, 34560, Note_off_c, 0, 77, 64
2, 34560, Note_on_c, 0, 75, 92
2, 34800, Note_off_c, 0, 75, 64
2, 34800, Note_on_c, 0, 72, 92
2, 35040, Note_off_c, 0, 72, 64
2, 35040, Note_on_c, 0, 67, 92
2, 35280, Note_off_c, 0, 67, 64
2, 35280, Note_on_c, 0, 72, 92
2, 35400, Note_off_c, 0, 72, 64
2, 35400, Note_on_c, 0, 74, 92
2, 35520, Note_off_c, 0, 74, 64
2, 35520, Note_on_c, 0, 75, 92
2, 35760, Note_off_c, 0, 75, 64
2, 35760, Note_on_c, 0, 72, 92
2, 36000, Note_off_c, 0, 72, 64
2, 36000, Note_on_c, 0, 65, 92
2, 36240, Note_off_c, 0, 65, 64
2, 36240, Note_on_c, 0, 75, 92
2, 36480, Note_off_c, 0, 75, 64
2, 36480, Note_on_c, 0, 74, 92
2, 36720, Note_off_c, 0, 74, 64
2, 36720, Note_on_c, 0, 70, 92
2, 36960, Note_off_c, 0, 70, 64
2, 36960, Note_on_c, 0, 65, 92
2, 37200, Note_off_c, 0, 65, 64
2, 37200, Note_on_c, 0, 70, 92
2, 37320, Note_off_c, 0, 70, 64
2, 37320, Note_on_c, 0, 72, 92
2, 37440, Note_off_c, 0, 72, 64
2, 37440, Note_on_c, 0, 73, 92
2, 37680, Note_off_c, 0, 73, 64
2, 37680, Note_on_c, 0, 70, 92
2, 37920, Note_off_c, 0, 70, 64
2, 37920, Note_on_c, 0, 64, 92
2, 38160, Note_off_c, 0, 64, 64
2, 38160, Note_on_c, 0, 73, 92
2, 38400, Note_off_c, 0, 73, 64
2, 38400, Note_on_c, 0, 72, 92
2, 38520, Note_off_c, 0, 72, 64
2, 38520, Note_on_c, 0, 70, 92
2, 38640, Note_off_c, 0, 70, 64
2, 38640, Note_on_c, 0, 69, 92
2, 38760, Note_off_c, 0, 69, 64
2, 38760, Note_on_c, 0, 67, 92
2, 38880, Note_off_c, 0, 67, 64
2, 38880, Note_on_c, 0, 65, 92
2, 39000, Note_off_c, 0, 65, 64
2, 39000, Note_on_c, 0, 63, 92
2, 39120, Note_off_c, 0, 63, 64
2, 39120, Note_on_c, 0, 62, 92
2, 39240, Note_off_c, 0, 62, 64
2, 39240, Note_on_c, 0, 60, 92
2, 39360, Note_off_c, 0, 60, 64
2, 39360, Note_on_c, 0, 62, 92
2, 39600, Note_off_c, 0, 62, 64
2, 39600, Note_on_c, 0, 70, 92
2, 39840, Note_off_c, 0, 70, 64
2, 39840, Note_on_c, 0, 60, 92
2, 40080, Note_off_c, 0, 60, 64
2, 40080, Note_on_c, 0, 69, 92
2, 40320, Note_off_c, 0, 69, 64
2, 40320, Note_on_c, 0, 70, 92
2, 40560, Note_off_c, 0, 70, 64
2, 40560, Note_on_c, 0, 74, 92
2, 40800, Note_off_c, 0, 74, 64
2, 40800, Note_on_c, 0, 77, 92
2, 41280, Note_off_c, 0, 77, 64
2, 41280, Note_on_c, 0, 70, 92
2, 41520, Note_off_c, 0, 70, 64
2, 41520, Note_on_c, 0, 75, 92
2, 41760, Note_off_c, 0, 75, 64
2, 41760, Note_on_c, 0, 79, 92
2, 42360, Note_off_c, 0, 79, 64
2, 42360, Note_on_c, 0, 82, 92
2, 42480, Note_off_c, 0, 82, 64
2, 42480, Note_on_c, 0, 81, 92
2, 42600, Note_off_c, 0, 81, 64
2, 42600, Note_on_c, 0, 79, 92
2, 42720, Note_off_c, 0, 79, 64
2, 42720, Note_on_c, 0, 77, 92
2, 42960, Note_off_c, 0, 77, 64
2, 42960, Note_on_c, 0, 75, 92
2, 43020, Note_off_c, 0, 75, 64
2, 43020, Note_on_c, 0, 77, 92
2, 43080, Note_off_c, 0, 77, 64
2, 43080, Note_on_c, 0, 75, 92
2, 43200, Note_off_c, 0, 75, 64
2, 43200, Note_on_c, 0, 74, 92
2, 43440, Note_off_c, 0, 74, 64
2, 43440, Note_on_c, 0, 72, 92
2, 43560, Note_off_c, 0, 72, 64
2, 43560, Note_on_c, 0, 74, 92
2, 43680, Note_off_c, 0, 74, 64
2, 43680, Note_on_c, 0, 75, 92
2, 43800, Note_off_c, 0, 75, 64
2, 43800, Note_on_c, 0, 74, 92
2, 43920, Note_off_c, 0, 74, 64
2, 43920, Note_on_c, 0, 72, 92
2, 44040, Note_off_c, 0, 72, 64
2, 44040, Note_on_c, 0, 70, 92
2, 44160, Note_off_c, 0, 70, 64
2, 44160, Note_on_c, 0, 75, 92
2, 44280, Note_off_c, 0, 75, 64
2, 44280, Note_on_c, 0, 68, 92
2, 44400, Note_off_c, 0, 68, 64
2, 44400, Note_on_c, 0, 67, 92
2, 44520, Note_off_c, 0, 67, 64
2, 44520, Note_on_c, 0, 65, 92
2, 44640, Note_off_c, 0, 65, 64
2, 44640, Note_on_c, 0, 63, 92
2, 44760, Note_off_c, 0, 63, 64
2, 44760, Note_on_c, 0, 67, 92
2, 44880, Note_off_c, 0, 67, 64
2, 44880, Note_on_c, 0, 68, 92
2, 45000, Note_off_c, 0, 68, 64
2, 45000, Note_on_c, 0, 70, 92
2, 45120, Note_off_c, 0, 70, 64
2, 45120, Note_on_c, 0, 72, 92
2, 45240, Note_off_c, 0, 72, 64
2, 45240, Note_on_c, 0, 70, 92
2, 45360, Note_off_c, 0, 70, 64
2, 45360, Note_on_c, 0, 68, 92
2, 45480, Note_off_c, 0, 68, 64
2, 45480, Note_on_c, 0, 67, 92
2, 45600, Note_off_c, 0, 67, 64
2, 45600, Note_on_c, 0, 65, 92
2, 45720, Note_off_c, 0, 65, 64
2, 45720, Note_on_c, 0, 70, 92
2, 45840, Note_off_c, 0, 70, 64
2, 45840, Note_on_c, 0, 72, 92
2, 45960, Note_off_c, 0, 72, 64
2, 45960, Note_on_c, 0, 74, 92
2, 46080, Note_off_c, 0, 74, 64
2, 46080, Note_on_c, 0, 75, 92
2, 46440, Note_off_c, 0, 75, 64
2, 46440, Note_on_c, 0, 77, 92
2, 46560, Note_off_c, 0, 77, 64
2, 46560, Note_on_c, 0, 74, 92
2, 46620, Note_off_c, 0, 74, 64
2, 46620, Note_on_c, 0, 75, 92
2, 46680, Note_off_c, 0, 75, 64
2, 46680, Note_on_c, 0, 74, 92
2, 46920, Note_off_c, 0, 74, 64
2, 46920, Note_on_c, 0, 75, 92
2, 47040, Note_off_c, 0, 75, 64
2, 47040, Note_on_c, 0, 75, 92
2, 47280, Note_off_c, 0, 75, 64
2, 47280, Note_on_c, 0, 70, 92
2, 47520, Note_off_c, 0, 70, 64
2, 47520, Note_on_c, 0, 75, 92
2, 48120, Note_off_c, 0, 75, 64
2, 48120, Note_on_c, 0, 74, 92
2, 48240, Note_off_c, 0, 74, 64
2, 48240, Note_on_c, 0, 72, 92
2, 48360, Note_off_c, 0, 72, 64
2, 48360, Note_on_c, 0, 74, 92
2, 48480, Note_off_c, 0, 74, 64
2, 48480, Note_on_c, 0, 75, 92
2, 48600, Note_off_c, 0, 75, 64
2, 48600, Note_on_c, 0, 74, 92
2, 48720, Note_off_c, 0, 74, 64
2, 48720, Note_on_c, 0, 72, 92
2, 48840, Note_off_c, 0, 72, 64
2, 48840, Note_on_c, 0, 70, 92
2, 48960, Note_off_c, 0, 70, 64
2, 48960, Note_on_c, 0, 72, 92
2, 49200, Note_off_c, 0, 72, 64
2, 49200, Note_on_c, 0, 72, 92
2, 49440, Note_off_c, 0, 72, 64
2, 49440, Note_on_c, 0, 77, 92
2, 50040, Note_off_c, 0, 77, 64
2, 50040, Note_on_c, 0, 75, 92
2, 50160, Note_off_c, 0, 75, 64
2, 50160, Note_on_c, 0, 74, 92
2, 50280, Note_off_c, 0, 74, 64
2, 50280, Note_on_c, 0, 75, 92
2, 50400, Note_off_c, 0, 75, 64
2, 50400, Note_on_c, 0, 77, 92
2, 50520, Note_off_c, 0, 77, 64
2, 50520, Note_on_c, 0, 75, 92
2, 50640, Note_off_c, 0, 75, 64
2, 50640, Note_on_c, 0, 74, 92
2, 50760, Note_off_c, 0, 74, 64
2, 50760, Note_on_c, 0, 72, 92
2, 50880, Note_off_c, 0, 72, 64
2, 50880, Note_on_c, 0, 73, 92
2, 51000, Note_off_c, 0, 73, 64
2, 51000, Note_on_c, 0, 72, 92
2, 51120, Note_off_c, 0, 72, 64
2, 51120, Note_on_c, 0, 73, 92
2, 51240, Note_off_c, 0, 73, 64
2, 51240, Note_on_c, 0, 77, 92
2, 51360, Note_off_c, 0, 77, 64
2, 51360, Note_on_c, 0, 75, 92
2, 51480, Note_off_c, 0, 75, 64
2, 51480, Note_on_c, 0, 73, 92
2, 51600, Note_off_c, 0, 73, 64
2, 51600, Note_on_c, 0, 72, 92
2, 51720, Note_off_c, 0, 72, 64
2, 51720, Note_on_c, 0, 70, 92
2, 51840, Note_off_c, 0, 70, 64
2, 51840, Note_on_c, 0, 72, 92
2, 51960, Note_off_c, 0, 72, 64
2, 51960, Note_on_c, 0, 70, 92
2, 52080, Note_off_c, 0, 70, 64
2, 52080, Note_on_c, 0, 72, 92
2, 52200, Note_off_c, 0, 72, 64
2, 52200, Note_on_c, 0, 75, 92
2, 52320, Note_off_c, 0, 75, 64
2, 52320, Note_on_c, 0, 73, 92
2, 52440, Note_off_c, 0, 73, 64
2, 52440, Note_on_c, 0, 72, 92
2, 52560, Note_off_c, 0, 72, 64
2, 52560, Note_on_c, 0, 70, 92
2, 52680, Note_off_c, 0, 70, 64
2, 52680, Note_on_c, 0, 68, 92
2, 52800, Note_off_c, 0, 68, 64
2, 52800, Note_on_c, 0, 70, 92
2, 52920, Note_off_c, 0, 70, 64
2, 52920, Note_on_c, 0, 68, 92
2, 53040, Note_off_c, 0, 68, 64
2, 53040, Note_on_c, 0, 70, 92
2, 53160, Note_off_c, 0, 70, 64
2, 53160, Note_on_c, 0, 73, 92
2, 53280, Note_off_c, 0, 73, 64
2, 53280, Note_on_c, 0, 72, 92
2, 53400, Note_off_c, 0, 72, 64
2, 53400, Note_on_c, 0, 70, 92
2, 53520, Note_off_c, 0, 70, 64
2, 53520, Note_on_c, 0, 68, 92
2, 53640, Note_off_c, 0, 68, 64
2, 53640, Note_on_c, 0, 67, 92
2, 53760, Note_off_c, 0, 67, 64
2, 53760, Note_on_c, 0, 68, 92
2, 53880, Note_off_c, 0, 68, 64
2, 53880, Note_on_c, 0, 67, 92
2, 54000, Note_off_c, 0, 67, 64
2, 54000, Note_on_c, 0, 68, 92
2, 54120, Note_off_c, 0, 68, 64
2, 54120, Note_on_c, 0, 72, 92
2, 54240, Note_off_c, 0, 72, 64
2, 54240, Note_on_c, 0, 70, 92
2, 54360, Note_off_c, 0, 70, 64
2, 54360, Note_on_c, 0, 68, 92
2, 54480, Note_off_c, 0, 68, 64
2, 54480, Note_on_c, 0, 67, 92
2, 54600, Note_off_c, 0, 67, 64
2, 54600, Note_on_c, 0, 65, 92
2, 54720, Note_off_c, 0, 65, 64
2, 54720, Note_on_c, 0, 73, 92
2, 55800, Note_off_c, 0, 73, 64
2, 55800, Note_on_c, 0, 70, 92
2, 55920, Note_off_c, 0, 70, 64
2, 55920, Note_on_c, 0, 72, 92
2, 56040, Note_off_c, 0, 72, 64
2, 56040, Note_on_c, 0, 73, 92
2, 56160, Note_off_c, 0, 73, 64
2, 56160, Note_on_c, 0, 72, 92
2, 56280, Note_off_c, 0, 72, 64
2, 56280, Note_on_c, 0, 70, 92
2, 56400, Note_off_c, 0, 70, 64
2, 56400, Note_on_c, 0, 68, 92
2, 56520, Note_off_c, 0, 68, 64
2, 56520, Note_on_c, 0, 67, 92
2, 56640, Note_off_c, 0, 67, 64
2, 56640, Note_on_c, 0, 65, 92
2, 56880, Note_off_c, 0, 65, 64
2, 56880, Note_on_c, 0, 72, 92
2, 57120, Note_off_c, 0, 72, 64
2, 57120, Note_on_c, 0, 77, 92
2, 57720, Note_off_c, 0, 77, 64
2, 57720, Note_on_c, 0, 69, 92
2, 57840, Note_off_c, 0, 69, 64
2, 57840, Note_on_c, 0, 70, 92
2, 57960, Note_off_c, 0, 70, 64
2, 57960, Note_on_c, 0, 72, 92
2, 58080, Note_off_c, 0, 72, 64
2, 58080, Note_on_c, 0, 70, 92
2, 58200, Note_off_c, 0, 70, 64
2, 58200, Note_on_c, 0, 69, 92
2, 58320, Note_off_c, 0, 69, 64
2, 58320, Note_on_c, 0, 67, 92
2, 58440, Note_off_c, 0, 67, 64
2, 58440, Note_on_c, 0, 65, 92
2, 58560, Note_off_c, 0, 65, 64
2, 58560, Note_on_c, 0, 70, 92
2, 58680, Note_off_c, 0, 70, 64
2, 58680, Note_on_c, 0, 69, 92
2, 58800, Note_off_c, 0, 69, 64
2, 58800, Note_on_c, 0, 70, 92
2, 58920, Note_off_c, 0, 70, 64
2, 58920, Note_on_c, 0, 73, 92
2, 59040, Note_off_c, 0, 73, 64
2, 59040, Note_on_c, 0, 72, 92
2, 59160, Note_off_c, 0, 72, 64
2, 59160, Note_on_c, 0, 70, 92
2, 59280, Note_off_c, 0, 70, 64
2, 59280, Note_on_c, 0, 68, 92
2, 59400, Note_off_c, 0, 68, 64
2, 59400, Note_on_c, 0, 67, 92
2, 59520, Note_off_c, 0, 67, 64
2, 59520, Note_on_c, 0, 68, 92
2, 59640, Note_off_c, 0, 68, 64
2, 59640, Note_on_c, 0, 67, 92
2, 59760, Note_off_c, 0, 67, 64
2, 59760, Note_on_c, 0, 68, 92
2, 59880, Note_off_c, 0, 68, 64
2, 59880, Note_on_c, 0, 72, 92
2, 60000, Note_off_c, 0, 72, 64
2, 60000, Note_on_c, 0, 70, 92
2, 60120, Note_off_c, 0, 70, 64
2, 60120, Note_on_c, 0, 68, 92
2, 60240, Note_off_c, 0, 68, 64
2, 60240, Note_on_c, 0, 67, 92
2, 60360, Note_off_c, 0, 67, 64
2, 60360, Note_on_c, 0, 65, 92
2, 60480, Note_off_c, 0, 65, 64
2, 60480, Note_on_c, 0, 67, 92
2, 60600, Note_off_c, 0, 67, 64
2, 60600, Note_on_c, 0, 65, 92
2, 60720, Note_off_c, 0, 65, 64
2, 60720, Note_on_c, 0, 67, 92
2, 60840, Note_off_c, 0, 67, 64
2, 60840, Note_on_c, 0, 70, 92
2, 60960, Note_off_c, 0, 70, 64
2, 60960, Note_on_c, 0, 68, 92
2, 61080, Note_off_c, 0, 68, 64
2, 61080, Note_on_c, 0, 67, 92
2, 61200, Note_off_c, 0, 67, 64
2, 61200, Note_on_c, 0, 65, 92
2, 61320, Note_off_c, 0, 65, 64
2, 61320, Note_on_c, 0, 64, 92
2, 61440, Note_off_c, 0, 64, 64
2, 61440, Note_on_c, 0, 65, 92
2, 61560, Note_off_c, 0, 65, 64
2, 61560, Note_on_c, 0, 64, 92
2, 61680, Note_off_c, 0, 64, 64
2, 61680, Note_on_c, 0, 62, 92
2, 61800, Note_off_c, 0, 62, 64
2, 61800, Note_on_c, 0, 60, 92
2, 61920, Note_off_c, 0, 60, 64
2, 61920, Note_on_c, 0, 72, 92
2, 62160, Note_off_c, 0, 72, 64
2, 62160, Note_on_c, 0, 70, 92
2, 62400, Note_off_c, 0, 70, 64
2, 62400, Note_on_c, 0, 68, 92
2, 62460, Note_off_c, 0, 68, 64
2, 62460, Note_on_c, 0, 70, 92
2, 62520, Note_off_c, 0, 70, 64
2, 62520, Note_on_c, 0, 68, 92
2, 62880, Note_off_c, 0, 68, 64
2, 62880, Note_on_c, 0, 67, 92
2, 62940, Note_off_c, 0, 67, 64
2, 62940, Note_on_c, 0, 68, 92
2, 63000, Note_off_c, 0, 68, 64
2, 63000, Note_on_c, 0, 67, 92
2, 63360, Note_off_c, 0, 67, 64
2, 63360, Note_on_c, 0, 65, 92
2, 63600, Note_off_c, 0, 65, 64
2, 63600, Note_on_c, 0, 69, 92
2, 63840, Note_off_c, 0, 69, 64
2, 63840, Note_on_c, 0, 72, 92
2, 64320, Note_off_c, 0, 72, 64
2, 64320, Note_on_c, 0, 65, 92
2, 64560, Note_off_c, 0, 65, 64
2, 64560, Note_on_c, 0, 70, 92
2, 64800, Note_off_c, 0, 70, 64
2, 64800, Note_on_c, 0, 73, 92
2, 65400, Note_off_c, 0, 73, 64
2, 65400, Note_on_c, 0, 77, 92
2, 65520, Note_off_c, 0, 77, 64
2, 65520, Note_on_c, 0, 76, 92
2, 65640, Note_off_c, 0, 76, 64
2, 65640, Note_on_c, 0, 79, 92
2, 65760, Note_off_c, 0, 79, 64
2, 65760, Note_on_c, 0, 72, 92
2, 66000, Note_off_c, 0, 72, 64
2, 66000, Note_on_c, 0, 70, 92
2, 66240, Note_off_c, 0, 70, 64
2, 66240, Note_on_c, 0, 68, 92
2, 66480, Note_off_c, 0, 68, 64
2, 66480, Note_on_c, 0, 77, 92
2, 66720, Note_off_c, 0, 77, 64
2, 66720, Note_on_c, 0, 67, 92
2, 66960, Note_off_c, 0, 67, 64
2, 66960, Note_on_c, 0, 76, 92
2, 67200, Note_off_c, 0, 76, 64
2, 67200, Note_on_c, 0, 77, 92
2, 67680, Note_off_c, 0, 77, 64
2, 67920, Note_on_c, 0, 77, 92
2, 68160, Note_off_c, 0, 77, 64
2, 68160, Note_on_c, 0, 76, 92
2, 68400, Note_off_c, 0, 76, 64
2, 68400, Note_on_c, 0, 79, 92
2, 68640, Note_off_c, 0, 79, 64
2, 68640, Note_on_c, 0, 84, 92
2, 69120, Note_off_c, 0, 84, 64
2, 69120, Note_on_c, 0, 77, 92
2, 69360, Note_off_c, 0, 77, 64
2, 69360, Note_on_c, 0, 80, 92
2, 69600, Note_off_c, 0, 80, 64
2, 69600, Note_on_c, 0, 84, 92
2, 70080, Note_off_c, 0, 84, 64
2, 70080, Note_on_c, 0, 76, 92
2, 70320, Note_off_c, 0, 76, 64
2, 70320, Note_on_c, 0, 79, 92
2, 70560, Note_off_c, 0, 79, 64
2, 70560, Note_on_c, 0, 84, 92
2, 71160, Note_off_c, 0, 84, 64
2, 71160, Note_on_c, 0, 82, 92
2, 71280, Note_off_c, 0, 82, 64
2, 71280, Note_on_c, 0, 80, 92
2, 71400, Note_off_c, 0, 80, 64
2, 71400, Note_on_c, 0, 79, 92
2, 71520, Note_off_c, 0, 79, 64
2, 71520, Note_on_c, 0, 77, 92
2, 71640, Note_off_c, 0, 77, 64
2, 71640, Note_on_c, 0, 75, 92
2, 71760, Note_off_c, 0, 75, 64
2, 71760, Note_on_c, 0, 73, 92
2, 71880, Note_off_c, 0, 73, 64
2, 71880, Note_on_c, 0, 72, 92
2, 72000, Note_off_c, 0, 72, 64
2, 72000, Note_on_c, 0, 73, 92
2, 72120, Note_off_c, 0, 73, 64
2, 72120, Note_on_c, 0, 75, 92
2, 72240, Note_off_c, 0, 75, 64
2, 72240, Note_on_c, 0, 79, 92
2, 72360, Note_off_c, 0, 79, 64
2, 72360, Note_on_c, 0, 77, 92
2, 72480, Note_off_c, 0, 77, 64
2, 72480, Note_on_c, 0, 79, 92
2, 72600, Note_off_c, 0, 79, 64
2, 72600, Note_on_c, 0, 75, 92
2, 72720, Note_off_c, 0, 75, 64
2, 72720, Note_on_c, 0, 73, 92
2, 72840, Note_off_c, 0, 73, 64
2, 72840, Note_on_c, 0, 75, 92
2, 72960, Note_off_c, 0, 75, 64
2, 72960, Note_on_c, 0, 72, 92
2, 73080, Note_off_c, 0, 72, 64
2, 73080, Note_on_c, 0, 75, 92
2, 73200, Note_off_c, 0, 75, 64
2, 73200, Note_on_c, 0, 80, 92
2, 73320, Note_off_c, 0, 80, 64
2, 73320, Note_on_c, 0, 79, 92
2, 73440, Note_off_c, 0, 79, 64
2, 73440, Note_on_c, 0, 80, 92
2, 73560, Note_off_c, 0, 80, 64
2, 73560, Note_on_c, 0, 75, 92
2, 73680, Note_off_c, 0, 75, 64
2, 73680, Note_on_c, 0, 72, 92
2, 73800, Note_off_c, 0, 72, 64
2, 73800, Note_on_c, 0, 75, 92
2, 73920, Note_off_c, 0, 75, 64
2, 73920, Note_on_c, 0, 70, 92
2, 74040, Note_off_c, 0, 70, 64
2, 74040, Note_on_c, 0, 73, 92
2, 74160, Note_off_c, 0, 73, 64
2, 74160, Note_on_c, 0, 79, 92
2, 74280, Note_off_c, 0, 79, 64
2, 74280, Note_on_c, 0, 77, 92
2, 74400, Note_off_c, 0, 77, 64
2, 74400, Note_on_c, 0, 79, 92
2, 74520, Note_off_c, 0, 79, 64
2, 74520, Note_on_c, 0, 73, 92
2, 74640, Note_off_c, 0, 73, 64
2, 74640, Note_on_c, 0, 70, 92
2, 74760, Note_off_c, 0, 70, 64
2, 74760, Note_on_c, 0, 73, 92
2, 74880, Note_off_c, 0, 73, 64
2, 74880, Note_on_c, 0, 72, 92
2, 75360, Note_off_c, 0, 72, 64
2, 75600, Note_on_c, 0, 68, 92
2, 75840, Note_off_c, 0, 68, 64
2, 75840, Note_on_c, 0, 67, 92
2, 76080, Note_off_c, 0, 67, 64
2, 76080, Note_on_c, 0, 70, 92
2, 76320, Note_off_c, 0, 70, 64
2, 76320, Note_on_c, 0, 75, 92
2, 76800, Note_off_c, 0, 75, 64
2, 76800, Note_on_c, 0, 68, 92
2, 77040, Note_off_c, 0, 68, 64
2, 77040, Note_on_c, 0, 72, 92
2, 77280, Note_off_c, 0, 72, 64
2, 77280, Note_on_c, 0, 75, 92
2, 77760, Note_off_c, 0, 75, 64
2, 77760, Note_on_c, 0, 70, 92
2, 77880, Note_off_c, 0, 70, 64
2, 77880, Note_on_c, 0, 73, 92
2, 78000, Note_off_c, 0, 73, 64
2, 78000, Note_on_c, 0, 79, 92
2, 78120, Note_off_c, 0, 79, 64
2, 78120, Note_on_c, 0, 77, 92
2, 78240, Note_off_c, 0, 77, 64
2, 78240, Note_on_c, 0, 79, 92
2, 78360, Note_off_c, 0, 79, 64
2, 78360, Note_on_c, 0, 73, 92
2, 78480, Note_off_c, 0, 73, 64
2, 78480, Note_on_c, 0, 70, 92
2, 78600, Note_off_c, 0, 70, 64
2, 78600, Note_on_c, 0, 73, 92
2, 78720, Note_off_c, 0, 73, 64
2, 78720, Note_on_c, 0, 72, 92
2, 78840, Note_off_c, 0, 72, 64
2, 78840, Note_on_c, 0, 75, 92
2, 78960, Note_off_c, 0, 75, 64
2, 78960, Note_on_c, 0, 80, 92
2, 79080, Note_off_c, 0, 80, 64
2, 79080, Note_on_c, 0, 75, 92
2, 79200, Note_off_c, 0, 75, 64
2, 79200, Note_on_c, 0, 72, 92
2, 79320, Note_off_c, 0, 72, 64
2, 79320, Note_on_c, 0, 75, 92
2, 79440, Note_off_c, 0, 75, 64
2, 79440, Note_on_c, 0, 68, 92
2, 79560, Note_off_c, 0, 68, 64
2, 79560, Note_on_c, 0, 67, 92
2, 79680, Note_off_c, 0, 67, 64
2, 79680, Note_on_c, 0, 69, 92
2, 79920, Note_off_c, 0, 69, 64
2, 79920, Note_on_c, 0, 72, 92
2, 80160, Note_off_c, 0, 72, 64
2, 80160, Note_on_c, 0, 77, 92
2, 80640, Note_off_c, 0, 77, 64
2, 80640, Note_on_c, 0, 70, 92
2, 80880, Note_off_c, 0, 70, 64
2, 80880, Note_on_c, 0, 74, 92
2, 81120, Note_off_c, 0, 74, 64
2, 81120, Note_on_c, 0, 77, 92
2, 81600, Note_off_c, 0, 77, 64
2, 81600, Note_on_c, 0, 72, 92
2, 81720, Note_off_c, 0, 72, 64
2, 81720, Note_on_c, 0, 75, 92
2, 81840, Note_off_c, 0, 75, 64
2, 81840, Note_on_c, 0, 81, 92
2, 81960, Note_off_c, 0, 81, 64
2, 81960, Note_on_c, 0, 79, 92
2, 82080, Note_off_c, 0, 79, 64
2, 82080, Note_on_c, 0, 81, 92
2, 82200, Note_off_c, 0, 81, 64
2, 82200, Note_on_c, 0, 75, 92
2, 82320, Note_off_c, 0, 75, 64
2, 82320, Note_on_c, 0, 72, 92
2, 82440, Note_off_c, 0, 72, 64
2, 82440, Note_on_c, 0, 75, 92
2, 82560, Note_off_c, 0, 75, 64
2, 82560, Note_on_c, 0, 74, 92
2, 82680, Note_off_c, 0, 74, 64
2, 82680, Note_on_c, 0, 77, 92
2, 82800, Note_off_c, 0, 77, 64
2, 82800, Note_on_c, 0, 82, 92
2, 82920, Note_off_c, 0, 82, 64
2, 82920, Note_on_c, 0, 77, 92
2, 83040, Note_off_c, 0, 77, 64
2, 83040, Note_on_c, 0, 74, 92
2, 83160, Note_off_c, 0, 74, 64
2, 83160, Note_on_c, 0, 77, 92
2, 83280, Note_off_c, 0, 77, 64
2, 83280, Note_on_c, 0, 70, 92
2, 83400, Note_off_c, 0, 70, 64
2, 83400, Note_on_c, 0, 69, 92
2, 83520, Note_off_c, 0, 69, 64
2, 83520, Note_on_c, 0, 71, 92
2, 83760, Note_off_c, 0, 71, 64
2, 83760, Note_on_c, 0, 74, 92
2, 84000, Note_off_c, 0, 74, 64
2, 84000, Note_on_c, 0, 79, 92
2, 84480, Note_off_c, 0, 79, 64
2, 84480, Note_on_c, 0, 72, 92
2, 84720, Note_off_c, 0, 72, 64
2, 84720, Note_on_c, 0, 75, 92
2, 84960, Note_off_c, 0, 75, 64
2, 84960, Note_on_c, 0, 80, 92
2, 85560, Note_off_c, 0, 80, 64
2, 85560, Note_on_c, 0, 79, 92
2, 85680, Note_off_c, 0, 79, 64
2, 85680, Note_on_c, 0, 77, 92
2, 85800, Note_off_c, 0, 77, 64
2, 85800, Note_on_c, 0, 79, 92
2, 85920, Note_off_c, 0, 79, 64
2, 85920, Note_on_c, 0, 80, 92
2, 86040, Note_off_c, 0, 80, 64
2, 86040, Note_on_c, 0, 79, 92
2, 86160, Note_off_c, 0, 79, 64
2, 86160, Note_on_c, 0, 77, 92
2, 86280, Note_off_c, 0, 77, 64
2, 86280, Note_on_c, 0, 75, 92
2, 86400, Note_off_c, 0, 75, 64
2, 86400, Note_on_c, 0, 74, 92
2, 86880, Note_off_c, 0, 74, 64
2, 87000, Note_on_c, 0, 74, 92
2, 87120, Note_off_c, 0, 74, 64
2, 87120, Note_on_c, 0, 75, 92
2, 87240, Note_off_c, 0, 75, 64
2, 87240, Note_on_c, 0, 77, 92
2, 87360, Note_off_c, 0, 77, 64
2, 87360, Note_on_c, 0, 75, 92
2, 87480, Note_off_c, 0, 75, 64
2, 87480, Note_on_c, 0, 79, 92
2, 87600, Note_off_c, 0, 79, 64
2, 87600, Note_on_c, 0, 82, 92
2, 87720, Note_off_c, 0, 82, 64
2, 87720, Note_on_c, 0, 80, 92
2, 87840, Note_off_c, 0, 80, 64
2, 87840, Note_on_c, 0, 82, 92
2, 87960, Note_off_c, 0, 82, 64
2, 87960, Note_on_c, 0, 79, 92
2, 88080, Note_off_c, 0, 79, 64
2, 88080, Note_on_c, 0, 75, 92
2, 88200, Note_off_c, 0, 75, 64
2, 88200, Note_on_c, 0, 79, 92
2, 88320, Note_off_c, 0, 79, 64
2, 88320, Note_on_c, 0, 73, 92
2, 88440, Note_off_c, 0, 73, 64
2, 88440, Note_on_c, 0, 79, 92
2, 88560, Note_off_c, 0, 79, 64
2, 88560, Note_on_c, 0, 82, 92
2, 88680, Note_off_c, 0, 82, 64
2, 88680, Note_on_c, 0, 80, 92
2, 88800, Note_off_c, 0, 80, 64
2, 88800, Note_on_c, 0, 82, 92
2, 88920, Note_off_c, 0, 82, 64
2, 88920, Note_on_c, 0, 79, 92
2, 89040, Note_off_c, 0, 79, 64
2, 89040, Note_on_c, 0, 73, 92
2, 89160, Note_off_c, 0, 73, 64
2, 89160, Note_on_c, 0, 79, 92
2, 89280, Note_off_c, 0, 79, 64
2, 89280, Note_on_c, 0, 72, 92
2, 89400, Note_off_c, 0, 72, 64
2, 89400, Note_on_c, 0, 79, 92
2, 89520, Note_off_c, 0, 79, 64
2, 89520, Note_on_c, 0, 82, 92
2, 89640, Note_off_c, 0, 82, 64
2, 89640, Note_on_c, 0, 80, 92
2, 89760, Note_off_c, 0, 80, 64
2, 89760, Note_on_c, 0, 82, 92
2, 89880, Note_off_c, 0, 82, 64
2, 89880, Note_on_c, 0, 79, 92
2, 90000, Note_off_c, 0, 79, 64
2, 90000, Note_on_c, 0, 72, 92
2, 90120, Note_off_c, 0, 72, 64
2, 90120, Note_on_c, 0, 79, 92
2, 90240, Note_off_c, 0, 79, 64
2, 90240, Note_on_c, 0, 72, 92
2, 90360, Note_off_c, 0, 72, 64
2, 90360, Note_on_c, 0, 77, 92
2, 90480, Note_off_c, 0, 77, 64
2, 90480, Note_on_c, 0, 80, 92
2, 90600, Note_off_c, 0, 80, 64
2, 90600, Note_on_c, 0, 79, 92
2, 90720, Note_off_c, 0, 79, 64
2, 90720, Note_on_c, 0, 80, 92
2, 90840, Note_off_c, 0, 80, 64
2, 90840, Note_on_c, 0, 77, 92
2, 90960, Note_off_c, 0, 77, 64
2, 90960, Note_on_c, 0, 72, 92
2, 91080, Note_off_c, 0, 72, 64
2, 91080, Note_on_c, 0, 77, 92
2, 91200, Note_off_c, 0, 77, 64
2, 91200, Note_on_c, 0, 70, 92
2, 91320, Note_off_c, 0, 70, 64
2, 91320, Note_on_c, 0, 77, 92
2, 91440, Note_off_c, 0, 77, 64
2, 91440, Note_on_c, 0, 80, 92
2, 91560, Note_off_c, 0, 80, 64
2, 91560, Note_on_c, 0, 79, 92
2, 91680, Note_off_c, 0, 79, 64
2, 91680, Note_on_c, 0, 80, 92
2, 91800, Note_off_c, 0, 80, 64
2, 91800, Note_on_c, 0, 77, 92
2, 91920, Note_off_c, 0, 77, 64
2, 91920, Note_on_c, 0, 70, 92
2, 92040, Note_off_c, 0, 70, 64
2, 92040, Note_on_c, 0, 77, 92
2, 92160, Note_off_c, 0, 77, 64
2, 92160, Note_on_c, 0, 70, 92
2, 92280, Note_off_c, 0, 70, 64
2, 92280, Note_on_c, 0, 75, 92
2, 92400, Note_off_c, 0, 75, 64
2, 92400, Note_on_c, 0, 79, 92
2, 92520, Note_off_c, 0, 79, 64
2, 92520, Note_on_c, 0, 77, 92
2, 92640, Note_off_c, 0, 77, 64
2, 92640, Note_on_c, 0, 79, 92
2, 92760, Note_off_c, 0, 79, 64
2, 92760, Note_on_c, 0, 75, 92
2, 92880, Note_off_c, 0, 75, 64
2, 92880, Note_on_c, 0, 70, 92
2, 93000, Note_off_c, 0, 70, 64
2, 93000, Note_on_c, 0, 75, 92
2, 93120, Note_off_c, 0, 75, 64
2, 93120, Note_on_c, 0, 69, 92
2, 93240, Note_off_c, 0, 69, 64
2, 93240, Note_on_c, 0, 75, 92
2, 93360, Note_off_c, 0, 75, 64
2, 93360, Note_on_c, 0, 78, 92
2, 93480, Note_off_c, 0, 78, 64
2, 93480, Note_on_c, 0, 77, 92
2, 93600, Note_off_c, 0, 77, 64
2, 93600, Note_on_c, 0, 78, 92
2, 93720, Note_off_c, 0, 78, 64
2, 93720, Note_on_c, 0, 75, 92
2, 93840, Note_off_c, 0, 75, 64
2, 93840, Note_on_c, 0, 69, 92
2, 93960, Note_off_c, 0, 69, 64
2, 93960, Note_on_c, 0, 75, 92
2, 94080, Note_off_c, 0, 75, 64
2, 94080, Note_on_c, 0, 70, 92
2, 94200, Note_off_c, 0, 70, 64
2, 94200, Note_on_c, 0, 72, 92
2, 94320, Note_off_c, 0, 72, 64
2, 94320, Note_on_c, 0, 74, 92
2, 94440, Note_off_c, 0, 74, 64
2, 94440, Note_on_c, 0, 75, 92
2, 94560, Note_off_c, 0, 75, 64
2, 94560, Note_on_c, 0, 77, 92
2, 95160, Note_off_c, 0, 77, 64
2, 95160, Note_on_c, 0, 70, 92
2, 95280, Note_off_c, 0, 70, 64
2, 95280, Note_on_c, 0, 67, 92
2, 95400, Note_off_c, 0, 67, 64
2, 95400, Note_on_c, 0, 70, 92
2, 95520, Note_off_c, 0, 70, 64
2, 95520, Note_on_c, 0, 72, 92
2, 95640, Note_off_c, 0, 72, 64
2, 95640, Note_on_c, 0, 68, 92
2, 95760, Note_off_c, 0, 68, 64
2, 95760, Note_on_c, 0, 65, 92
2, 95880, Note_off_c, 0, 65, 64
2, 95880, Note_on_c, 0, 68, 92
2, 96000, Note_off_c, 0, 68, 64
2, 96000, Note_on_c, 0, 67, 92
2, 96240, Note_off_c, 0, 67, 64
2, 96240, Note_on_c, 0, 63, 92
2, 96480, Note_off_c, 0, 63, 64
2, 96720, Note_on_c, 0, 67, 92
2, 97080, Note_off_c, 0, 67, 64
2, 97080, Note_on_c, 0, 65, 92
2, 97200, Note_off_c, 0, 65, 64
2, 97200, Note_on_c, 0, 67, 92
2, 97320, Note_off_c, 0, 67, 64
2, 97320, Note_on_c, 0, 70, 92
2, 97440, Note_off_c, 0, 70, 64
2, 97440, Note_on_c, 0, 68, 92
2, 97560, Note_off_c, 0, 68, 64
2, 97560, Note_on_c, 0, 67, 92
2, 97680, Note_off_c, 0, 67, 64
2, 97680, Note_on_c, 0, 65, 92
2, 97800, Note_off_c, 0, 65, 64
2, 97800, Note_on_c, 0, 63, 92
2, 97920, Note_off_c, 0, 63, 64
2, 97920, Note_on_c, 0, 62, 92
2, 98160, Note_off_c, 0, 62, 64
2, 98160, Note_on_c, 0, 65, 92
2, 98400, Note_off_c, 0, 65, 64
2, 98400, Note_on_c, 0, 68, 92
2, 99000, Note_off_c, 0, 68, 64
2, 99000, Note_on_c, 0, 65, 92
2, 99120, Note_off_c, 0, 65, 64
2, 99120, Note_on_c, 0, 67, 92
2, 99240, Note_off_c, 0, 67, 64
2, 99240, Note_on_c, 0, 70, 92
2, 99360, Note_off_c, 0, 70, 64
2, 99360, Note_on_c, 0, 68, 92
2, 99480, Note_off_c, 0, 68, 64
2, 99480, Note_on_c, 0, 67, 92
2, 99600, Note_off_c, 0, 67, 64
2, 99600, Note_on_c, 0, 65, 92
2, 99720, Note_off_c, 0, 65, 64
2, 99720, Note_on_c, 0, 63, 92
2, 99840, Note_off_c, 0, 63, 64
2, 99840, Note_on_c, 0, 75, 92
2, 101040, Note_off_c, 0, 75, 64
2, 101040, Note_on_c, 0, 72, 92
2, 101280, Note_off_c, 0, 72, 64
2, 101280, Note_on_c, 0, 74, 92
2, 101400, Note_off_c, 0, 74, 64
2, 101400, Note_on_c, 0, 75, 92
2, 101520, Note_off_c, 0, 75, 64
2, 101520, Note_on_c, 0, 77, 92
2, 102000, Note_off_c, 0, 77, 64
2, 102000, Note_on_c, 0, 70, 92
2, 102240, Note_off_c, 0, 70, 64
2, 102240, Note_on_c, 0, 72, 92
2, 102360, Note_off_c, 0, 72, 64
2, 102360, Note_on_c, 0, 74, 92
2, 102480, Note_off_c, 0, 74, 64
2, 102480, Note_on_c, 0, 75, 92
2, 102840, Note_off_c, 0, 75, 64
2, 102840, Note_on_c, 0, 67, 92
2, 102960, Note_off_c, 0, 67, 64
2, 102960, Note_on_c, 0, 68, 92
2, 103080, Note_off_c, 0, 68, 64
2, 103080, Note_on_c, 0, 72, 92
2, 103200, Note_off_c, 0, 72, 64
2, 103200, Note_on_c, 0, 70, 92
2, 103320, Note_off_c, 0, 70, 64
2, 103320, Note_on_c, 0, 68, 92
2, 103440, Note_off_c, 0, 68, 64
2, 103440, Note_on_c, 0, 67, 92
2, 103560, Note_off_c, 0, 67, 64
2, 103560, Note_on_c, 0, 65, 92
2, 103680, Note_off_c, 0, 65, 64
2, 103680, Note_on_c, 0, 77, 92
2, 103920, Note_off_c, 0, 77, 64
2, 103920, Note_on_c, 0, 74, 92
2, 104160, Note_off_c, 0, 74, 64
2, 104160, Note_on_c, 0, 75, 92
2, 104760, Note_off_c, 0, 75, 64
2, 104760, Note_on_c, 0, 79, 92
2, 104880, Note_off_c, 0, 79, 64
2, 104880, Note_on_c, 0, 77, 92
2, 105000, Note_off_c, 0, 77, 64
2, 105000, Note_on_c, 0, 75, 92
2, 105120, Note_off_c, 0, 75, 64
2, 105120, Note_on_c, 0, 74, 92
2, 105240, Note_off_c, 0, 74, 64
2, 105240, Note_on_c, 0, 72, 92
2, 105360, Note_off_c, 0, 72, 64
2, 105360, Note_on_c, 0, 70, 92
2, 105480, Note_off_c, 0, 70, 64
2, 105480, Note_on_c, 0, 72, 92
2, 105600, Note_off_c, 0, 72, 64
2, 105600, Note_on_c, 0, 73, 92
2, 105720, Note_off_c, 0, 73, 64
2, 105720, Note_on_c, 0, 68, 92
2, 105840, Note_off_c, 0, 68, 64
2, 105840, Note_on_c, 0, 67, 92
2, 105960, Note_off_c, 0, 67, 64
2, 105960, Note_on_c, 0, 65, 92
2, 106080, Note_off_c, 0, 65, 64
2, 106080, Note_on_c, 0, 63, 92
2, 106200, Note_off_c, 0, 63, 64
2, 106200, Note_on_c, 0, 67, 92
2, 106320, Note_off_c, 0, 67, 64
2, 106320, Note_on_c, 0, 68, 92
2, 106440, Note_off_c, 0, 68, 64
2, 106440, Note_on_c, 0, 70, 92
2, 106560, Note_off_c, 0, 70, 64
2, 106560, Note_on_c, 0, 72, 92
2, 106680, Note_off_c, 0, 72, 64
2, 106680, Note_on_c, 0, 70, 92
2, 106800, Note_off_c, 0, 70, 64
2, 106800, Note_on_c, 0, 68, 92
2, 106920, Note_off_c, 0, 68, 64
2, 106920, Note_on_c, 0, 67, 92
2, 107040, Note_off_c, 0, 67, 64
2, 107040, Note_on_c, 0, 65, 92
2, 107160, Note_off_c, 0, 65, 64
2, 107160, Note_on_c, 0, 70, 92
2, 107280, Note_off_c, 0, 70, 64
2, 107280, Note_on_c, 0, 72, 92
2, 107400, Note_off_c, 0, 72, 64
2, 107400, Note_on_c, 0, 74, 92
2, 107520, Note_off_c, 0, 74, 64
2, 107520, Note_on_c, 0, 75, 92
2, 107640, Note_off_c, 0, 75, 64
2, 107640, Note_on_c, 0, 72, 92
2, 107760, Note_off_c, 0, 72, 64
2, 107760, Note_on_c, 0, 70, 92
2, 107880, Note_off_c, 0, 70, 64
2, 107880, Note_on_c, 0, 68, 92
2, 108000, Note_off_c, 0, 68, 64
2, 108000, Note_on_c, 0, 67, 92
2, 108120, Note_off_c, 0, 67, 64
2, 108120, Note_on_c, 0, 74, 92
2, 108240, Note_off_c, 0, 74, 64
2, 108240, Note_on_c, 0, 75, 92
2, 108360, Note_off_c, 0, 75, 64
2, 108360, Note_on_c, 0, 77, 92
2, 108480, Note_off_c, 0, 77, 64
2, 108480, Note_on_c, 0, 70, 92
2, 108600, Note_off_c, 0, 70, 64
2, 108600, Note_on_c, 0, 75, 92
2, 108720, Note_off_c, 0, 75, 64
2, 108720, Note_on_c, 0, 77, 92
2, 108840, Note_off_c, 0, 77, 64
2, 108840, Note_on_c, 0, 79, 92
2, 108960, Note_off_c, 0, 79, 64
2, 108960, Note_on_c, 0, 72, 92
2, 109080, Note_off_c, 0, 72, 64
2, 109080, Note_on_c, 0, 77, 92
2, 109200, Note_off_c, 0, 77, 64
2, 109200, Note_on_c, 0, 70, 92
2, 109320, Note_off_c, 0, 70, 64
2, 109320, Note_on_c, 0, 68, 92
2, 109440, Note_off_c, 0, 68, 64
2, 109440, Note_on_c, 0, 67, 92
2, 109680, Note_off_c, 0, 67, 64
2, 109680, Note_on_c, 0, 75, 92
2, 109920, Note_off_c, 0, 75, 64
2, 109920, Note_on_c, 0, 65, 92
2, 110160, Note_off_c, 0, 65, 64
2, 110160, Note_on_c, 0, 74, 92
2, 110400, Note_off_c, 0, 74, 64
2, 110400, Note_on_c, 0, 74, 92
2, 110640, Note_off_c, 0, 74, 64
2, 110640, Note_on_c, 0, 75, 92
2, 111360, Note_off_c, 0, 75, 64
2, 114002, Note_on_c, 0, 79, 92
2, 114242, Note_on_c, 0, 72, 92
2, 114245, Note_off_c, 0, 79, 64
2, 114722, Note_on_c, 0, 72, 92
2, 114725, Note_off_c, 0, 72, 64
2, 114782, Note_on_c, 0, 74, 92
2, 114785, Note_off_c, 0, 72, 64
2, 114842, Note_on_c, 0, 75, 92
2, 114845, Note_off_c, 0, 74, 64
2, 114962, Note_on_c, 0, 75, 92
2, 114965, Note_off_c, 0, 75, 64
2, 115202, Note_on_c, 0, 74, 92
2, 115205, Note_off_c, 0, 75, 64
2, 115442, Note_on_c, 0, 67, 92
2, 115445, Note_off_c, 0, 74, 64
2, 115682, Note_on_c, 0, 72, 92
2, 115685, Note_off_c, 0, 67, 64
2, 116042, Note_on_c, 0, 71, 92
2, 116045, Note_off_c, 0, 72, 64
2, 116162, Note_on_c, 0, 72, 92
2, 116165, Note_off_c, 0, 71, 64
2, 116402, Note_on_c, 0, 60, 92
2, 116405, Note_off_c, 0, 72, 64
2, 116882, Note_on_c, 0, 72, 92
2, 116885, Note_off_c, 0, 60, 64
2, 117242, Note_on_c, 0, 75, 92
2, 117245, Note_off_c, 0, 72, 64
2, 117362, Note_on_c, 0, 74, 92
2, 117365, Note_off_c, 0, 75, 64
2, 117482, Note_on_c, 0, 77, 92
2, 117485, Note_off_c, 0, 74, 64
2, 117602, Note_on_c, 0, 80, 92
2, 117605, Note_off_c, 0, 77, 64
2, 117722, Note_on_c, 0, 72, 92
2, 117725, Note_off_c, 0, 80, 64
2, 117842, Note_on_c, 0, 71, 92
2, 117845, Note_off_c, 0, 72, 64
2, 117962, Note_on_c, 0, 74, 92
2, 117965, Note_off_c, 0, 71, 64
2, 118082, Note_on_c, 0, 68, 92
2, 118085, Note_off_c, 0, 74, 64
2, 118202, Note_on_c, 0, 67, 92
2, 118205, Note_off_c, 0, 68, 64
2, 118322, Note_on_c, 0, 77, 92
2, 118325, Note_off_c, 0, 67, 64
2, 118682, Note_on_c, 0, 74, 92
2, 118685, Note_off_c, 0, 77, 64
2, 118802, Note_on_c, 0, 75, 92
2, 118805, Note_off_c, 0, 74, 64
2, 118922, Note_on_c, 0, 79, 92
2, 118925, Note_off_c, 0, 75, 64
2, 119042, Note_on_c, 0, 84, 92
2, 119045, Note_off_c, 0, 79, 64
2, 119162, Note_on_c, 0, 79, 92
2, 119165, Note_off_c, 0, 84, 64
2, 119282, Note_on_c, 0, 78, 92
2, 119285, Note_off_c, 0, 79, 64
2, 119402, Note_on_c, 0, 81, 92
2, 119405, Note_off_c, 0, 78, 64
2, 119522, Note_on_c, 0, 75, 92
2, 119525, Note_off_c, 0, 81, 64
2, 119642, Note_on_c, 0, 74, 92
2, 119645, Note_off_c, 0, 75, 64
2, 119762, Note_on_c, 0, 84, 92
2, 119765, Note_off_c, 0, 74, 64
2, 120122, Note_on_c, 0, 81, 92
2, 120125, Note_off_c, 0, 84, 64
2, 120242, Note_on_c, 0, 82, 92
2, 120245, Note_off_c, 0, 81, 64
2, 120362, Note_on_c, 0, 79, 92
2, 120365, Note_off_c, 0, 82, 64
2, 120482, Note_on_c, 0, 75, 92
2, 120485, Note_off_c, 0, 79, 64
2, 120842, Note_on_c, 0, 72, 92
2, 120845, Note_off_c, 0, 75, 64
2, 120962, Note_on_c, 0, 74, 92
2, 120965, Note_off_c, 0, 72, 64
2, 121082, Note_on_c, 0, 77, 92
2, 121085, Note_off_c, 0, 74, 64
2, 121202, Note_on_c, 0, 82, 92
2, 121205, Note_off_c, 0, 77, 64
2, 121562, Note_on_c, 0, 79, 92
2, 121565, Note_off_c, 0, 82, 64
2, 121682, Note_on_c, 0, 72, 92
2, 121685, Note_off_c, 0, 79, 64
2, 121802, Note_on_c, 0, 75, 92
2, 121805, Note_off_c, 0, 72, 64
2, 121922, Note_on_c, 0, 74, 92
2, 121925, Note_off_c, 0, 75, 64
2, 122042, Note_on_c, 0, 72, 92
2, 122045, Note_off_c, 0, 74, 64
2, 122162, Note_on_c, 0, 74, 92
2, 122165, Note_off_c, 0, 72, 64
2, 122282, Note_on_c, 0, 70, 92
2, 122285, Note_off_c, 0, 74, 64
2, 122402, Note_on_c, 0, 67, 92
2, 122405, Note_off_c, 0, 70, 64
2, 122522, Note_on_c, 0, 70, 92
2, 122525, Note_off_c, 0, 67, 64
2, 122642, Note_on_c, 0, 74, 92
2, 122645, Note_off_c, 0, 70, 64
2, 122762, Note_on_c, 0, 75, 92
2, 122765, Note_off_c, 0, 74, 64
2, 122882, Note_on_c, 0, 69, 92
2, 122885, Note_off_c, 0, 75, 64
2, 123002, Note_on_c, 0, 67, 92
2, 123005, Note_off_c, 0, 69, 64
2, 123122, Note_on_c, 0, 66, 92
2, 123125, Note_off_c, 0, 67, 64
2, 123242, Note_on_c, 0, 69, 92
2, 123245, Note_off_c, 0, 66, 64
2, 123362, Note_on_c, 0, 72, 92
2, 123365, Note_off_c, 0, 69, 64
2, 123842, Note_on_c, 0, 79, 92
2, 123845, Note_off_c, 0, 72, 64
2, 124082, Note_on_c, 0, 78, 92
2, 124085, Note_off_c, 0, 79, 64
2, 124322, Note_on_c, 0, 79, 92
2, 124325, Note_off_c, 0, 78, 64
2, 124805, Note_off_c, 0, 79, 64
2, 125522, Note_on_c, 0, 79, 92
2, 125882, Note_on_c, 0, 67, 92
2, 125885, Note_off_c, 0, 79, 64
2, 126002, Note_on_c, 0, 68, 92
2, 126005, Note_off_c, 0, 67, 64
2, 126122, Note_on_c, 0, 72, 92
2, 126125, Note_off_c, 0, 68, 64
2, 126242, Note_on_c, 0, 77, 92
2, 126245, Note_off_c, 0, 72, 64
2, 126362, Note_on_c, 0, 74, 92
2, 126365, Note_off_c, 0, 77, 64
2, 126482, Note_on_c, 0, 72, 92
2, 126485, Note_off_c, 0, 74, 64
2, 126602, Note_on_c, 0, 70, 92
2, 126605, Note_off_c, 0, 72, 64
2, 126722, Note_on_c, 0, 74, 92
2, 126725, Note_off_c, 0, 70, 64
2, 126842, Note_on_c, 0, 77, 92
2, 126845, Note_off_c, 0, 74, 64
2, 126962, Note_on_c, 0, 80, 92
2, 126965, Note_off_c, 0, 77, 64
2, 127082, Note_on_c, 0, 77, 92
2, 127085, Note_off_c, 0, 80, 64
2, 127202, Note_on_c, 0, 79, 92
2, 127205, Note_off_c, 0, 77, 64
2, 127685, Note_off_c, 0, 79, 64
2, 128402, Note_on_c, 0, 75, 92
2, 128762, Note_on_c, 0, 63, 92
2, 128765, Note_off_c, 0, 75, 64
2, 128882, Note_on_c, 0, 65, 92
2, 128885, Note_off_c, 0, 63, 64
2, 129002, Note_on_c, 0, 71, 92
2, 129005, Note_off_c, 0, 65, 64
2, 129122, Note_on_c, 0, 74, 92
2, 129125, Note_off_c, 0, 71, 64
2, 129242, Note_on_c, 0, 71, 92
2, 129245, Note_off_c, 0, 74, 64
2, 129362, Note_on_c, 0, 68, 92
2, 129365, Note_off_c, 0, 71, 64
2, 129482, Note_on_c, 0, 67, 92
2, 129485, Note_off_c, 0, 68, 64
2, 129602, Note_on_c, 0, 71, 92
2, 129605, Note_off_c, 0, 67, 64
2, 129722, Note_on_c, 0, 74, 92
2, 129725, Note_off_c, 0, 71, 64
2, 129842, Note_on_c, 0, 77, 92
2, 129845, Note_off_c, 0, 74, 64
2, 129962, Note_on_c, 0, 74, 92
2, 129965, Note_off_c, 0, 77, 64
2, 130082, Note_on_c, 0, 75, 92
2, 130085, Note_off_c, 0, 74, 64
2, 130202, Note_on_c, 0, 71, 92
2, 130205, Note_off_c, 0, 75, 64
2, 130322, Note_on_c, 0, 72, 92
2, 130325, Note_off_c, 0, 71, 64
2, 130565, Note_off_c, 0, 72, 64
2, 130802, Note_on_c, 0, 71, 92
2, 130922, Note_on_c, 0, 74, 92
2, 130925, Note_off_c, 0, 71, 64
2, 131042, Note_on_c, 0, 65, 92
2, 131045, Note_off_c, 0, 74, 64
2, 131162, Note_on_c, 0, 71, 92
2, 131165, Note_off_c, 0, 65, 64
2, 131282, Note_on_c, 0, 74, 92
2, 131285, Note_off_c, 0, 71, 64
2, 131642, Note_on_c, 0, 62, 92
2, 131645, Note_off_c, 0, 74, 64
2, 131762, Note_on_c, 0, 63, 92
2, 131765, Note_off_c, 0, 62, 64
2, 131882, Note_on_c, 0, 67, 92
2, 131885, Note_off_c, 0, 63, 64
2, 132002, Note_on_c, 0, 68, 92
2, 132005, Note_off_c, 0, 67, 64
2, 132122, Note_on_c, 0, 65, 92
2, 132125, Note_off_c, 0, 68, 64
2, 132242, Note_on_c, 0, 67, 92
2, 132245, Note_off_c, 0, 65, 64
2, 132362, Note_on_c, 0, 71, 92
2, 132365, Note_off_c, 0, 67, 64
2, 132482, Note_on_c, 0, 72, 92
2, 132485, Note_off_c, 0, 71, 64
2, 132602, Note_on_c, 0, 75, 92
2, 132605, Note_off_c, 0, 72, 64
2, 132722, Note_on_c, 0, 77, 92
2, 132725, Note_off_c, 0, 75, 64
2, 133082, Note_on_c, 0, 65, 92
2, 133085, Note_off_c, 0, 77, 64
2, 133202, Note_on_c, 0, 67, 92
2, 133205, Note_off_c, 0, 65, 64
2, 133322, Note_on_c, 0, 70, 92
2, 133325, Note_off_c, 0, 67, 64
2, 133442, Note_on_c, 0, 75, 92
2, 133445, Note_off_c, 0, 70, 64
2, 133562, Note_on_c, 0, 72, 92
2, 133565, Note_off_c, 0, 75, 64
2, 133682, Note_on_c, 0, 70, 92
2, 133685, Note_off_c, 0, 72, 64
2, 133802, Note_on_c, 0, 68, 92
2, 133805, Note_off_c, 0, 70, 64
2, 133922, Note_on_c, 0, 74, 92
2, 133925, Note_off_c, 0, 68, 64
2, 134042, Note_on_c, 0, 77, 92
2, 134045, Note_off_c, 0, 74, 64
2, 134162, Note_on_c, 0, 80, 92
2, 134165, Note_off_c, 0, 77, 64
2, 134282, Note_on_c, 0, 77, 92
2, 134285, Note_off_c, 0, 80, 64
2, 134402, Note_on_c, 0, 79, 92
2, 134405, Note_off_c, 0, 77, 64
2, 134522, Note_on_c, 0, 80, 92
2, 134525, Note_off_c, 0, 79, 64
2, 134642, Note_on_c, 0, 82, 92
2, 134645, Note_off_c, 0, 80, 64
2, 134882, Note_on_c, 0, 80, 92
2, 134885, Note_off_c, 0, 82, 64
2, 135122, Note_on_c, 0, 79, 92
2, 135125, Note_off_c, 0, 80, 64
2, 135362, Note_on_c, 0, 84, 92
2, 135365, Note_off_c, 0, 79, 64
2, 135722, Note_on_c, 0, 82, 92
2, 135725, Note_off_c, 0, 84, 64
2, 135842, Note_on_c, 0, 80, 92
2, 135845, Note_off_c, 0, 82, 64
2, 135962, Note_on_c, 0, 76, 92
2, 135965, Note_off_c, 0, 80, 64
2, 136082, Note_on_c, 0, 77, 92
2, 136085, Note_off_c, 0, 76, 64
2, 136325, Note_off_c, 0, 77, 64
2, 136562, Note_on_c, 0, 76, 92
2, 136682, Note_on_c, 0, 79, 92
2, 136685, Note_off_c, 0, 76, 64
2, 136802, Note_on_c, 0, 70, 92
2, 136805, Note_off_c, 0, 79, 64
2, 136922, Note_on_c, 0, 76, 92
2, 136925, Note_off_c, 0, 70, 64
2, 137042, Note_on_c, 0, 79, 92
2, 137045, Note_off_c, 0, 76, 64
2, 137402, Note_on_c, 0, 67, 92
2, 137405, Note_off_c, 0, 79, 64
2, 137522, Note_on_c, 0, 68, 92
2, 137525, Note_off_c, 0, 67, 64
2, 137642, Note_on_c, 0, 72, 92
2, 137645, Note_off_c, 0, 68, 64
2, 137762, Note_on_c, 0, 73, 92
2, 137765, Note_off_c, 0, 72, 64
2, 137882, Note_on_c, 0, 70, 92
2, 137885, Note_off_c, 0, 73, 64
2, 138002, Note_on_c, 0, 72, 92
2, 138005, Note_off_c, 0, 70, 64
2, 138122, Note_on_c, 0, 76, 92
2, 138125, Note_off_c, 0, 72, 64
2, 138242, Note_on_c, 0, 77, 92
2, 138245, Note_off_c, 0, 76, 64
2, 138362, Note_on_c, 0, 80, 92
2, 138365, Note_off_c, 0, 77, 64
2, 138482, Note_on_c, 0, 79, 92
2, 138485, Note_off_c, 0, 80, 64
2, 138602, Note_on_c, 0, 77, 92
2, 138605, Note_off_c, 0, 79, 64
2, 138722, Note_on_c, 0, 75, 92
2, 138725, Note_off_c, 0, 77, 64
2, 138842, Note_on_c, 0, 74, 92
2, 138845, Note_off_c, 0, 75, 64
2, 138962, Note_on_c, 0, 75, 92
2, 138965, Note_off_c, 0, 74, 64
2, 139082, Note_on_c, 0, 79, 92
2, 139085, Note_off_c, 0, 75, 64
2, 139202, Note_on_c, 0, 84, 92
2, 139205, Note_off_c, 0, 79, 64
2, 139322, Note_on_c, 0, 79, 92
2, 139325, Note_off_c, 0, 84, 64
2, 139442, Note_on_c, 0, 77, 92
2, 139445, Note_off_c, 0, 79, 64
2, 139562, Note_on_c, 0, 75, 92
2, 139565, Note_off_c, 0, 77, 64
2, 139682, Note_on_c, 0, 74, 92
2, 139685, Note_off_c, 0, 75, 64
2, 139802, Note_on_c, 0, 72, 92
2, 139805, Note_off_c, 0, 74, 64
2, 139922, Note_on_c, 0, 71, 92
2, 139925, Note_off_c, 0, 72, 64
2, 140042, Note_on_c, 0, 72, 92
2, 140045, Note_off_c, 0, 71, 64
2, 140162, Note_on_c, 0, 71, 92
2, 140165, Note_off_c, 0, 72, 64
2, 140645, Note_off_c, 0, 71, 64
2, 141362, Note_on_c, 0, 74, 92
2, 141722, Note_on_c, 0, 71, 92
2, 141725, Note_off_c, 0, 74, 64
2, 141842, Note_on_c, 0, 72, 92
2, 141845, Note_off_c, 0, 71, 64
2, 141962, Note_on_c, 0, 75, 92
2, 141965, Note_off_c, 0, 72, 64
2, 142082, Note_on_c, 0, 81, 92
2, 142085, Note_off_c, 0, 75, 64
2, 142442, Note_on_c, 0, 84, 92
2, 142445, Note_off_c, 0, 81, 64
2, 142562, Note_on_c, 0, 82, 92
2, 142565, Note_off_c, 0, 84, 64
2, 142682, Note_on_c, 0, 81, 92
2, 142685, Note_off_c, 0, 82, 64
2, 142802, Note_on_c, 0, 82, 92
2, 142805, Note_off_c, 0, 81, 64
2, 142922, Note_on_c, 0, 79, 92
2, 142925, Note_off_c, 0, 82, 64
2, 143042, Note_on_c, 0, 78, 92
2, 143045, Note_off_c, 0, 79, 64
2, 143162, Note_on_c, 0, 82, 92
2, 143165, Note_off_c, 0, 78, 64
2, 143282, Note_on_c, 0, 81, 92
2, 143285, Note_off_c, 0, 82, 64
2, 143525, Note_off_c, 0, 81, 64
2, 143762, Note_on_c, 0, 75, 92
2, 143882, Note_on_c, 0, 74, 92
2, 143885, Note_off_c, 0, 75, 64
2, 144002, Note_on_c, 0, 78, 92
2, 144005, Note_off_c, 0, 74, 64
2, 144245, Note_off_c, 0, 78, 64
2, 144482, Note_on_c, 0, 79, 92
2, 144602, Note_on_c, 0, 74, 92
2, 144605, Note_off_c, 0, 79, 64
2, 144722, Note_on_c, 0, 72, 92
2, 144725, Note_off_c, 0, 74, 64
2, 144842, Note_on_c, 0, 70, 92
2, 144845, Note_off_c, 0, 72, 64
2, 144962, Note_on_c, 0, 72, 92
2, 144965, Note_off_c, 0, 70, 64
2, 145082, Note_on_c, 0, 75, 92
2, 145085, Note_off_c, 0, 72, 64
2, 145202, Note_on_c, 0, 70, 92
2, 145205, Note_off_c, 0, 75, 64
2, 145322, Note_on_c, 0, 69, 92
2, 145325, Note_off_c, 0, 70, 64
2, 145442, Note_on_c, 0, 72, 92
2, 145445, Note_off_c, 0, 69, 64
2, 145562, Note_on_c, 0, 70, 92
2, 145565, Note_off_c, 0, 72, 64
2, 145682, Note_on_c, 0, 69, 92
2, 145685, Note_off_c, 0, 70, 64
2, 145802, Note_on_c, 0, 70, 92
2, 145805, Note_off_c, 0, 69, 64
2, 145922, Note_on_c, 0, 67, 92
2, 145925, Note_off_c, 0, 70, 64
2, 146042, Note_on_c, 0, 70, 92
2, 146045, Note_off_c, 0, 67, 64
2, 146162, Note_on_c, 0, 69, 92
2, 146165, Note_off_c, 0, 70, 64
2, 146282, Note_on_c, 0, 67, 92
2, 146285, Note_off_c, 0, 69, 64
2, 146402, Note_on_c, 0, 69, 92
2, 146405, Note_off_c, 0, 67, 64
2, 146522, Note_on_c, 0, 66, 92
2, 146525, Note_off_c, 0, 69, 64
2, 146642, Note_on_c, 0, 62, 92
2, 146645, Note_off_c, 0, 66, 64
2, 146882, Note_on_c, 0, 67, 92
2, 146885, Note_off_c, 0, 62, 64
2, 147122, Note_on_c, 0, 66, 92
2, 147125, Note_off_c, 0, 67, 64
2, 147362, Note_on_c, 0, 67, 92
2, 147365, Note_off_c, 0, 66, 64
2, 148562, Note_on_c, 0, 79, 92
2, 148565, Note_off_c, 0, 67, 64
2, 148802, Note_on_c, 0, 72, 92
2, 148805, Note_off_c, 0, 79, 64
2, 149282, Note_on_c, 0, 72, 92
2, 149285, Note_off_c, 0, 72, 64
2, 149342, Note_on_c, 0, 74, 92
2, 149345, Note_off_c, 0, 72, 64
2, 149402, Note_on_c, 0, 75, 92
2, 149405, Note_off_c, 0, 74, 64
2, 149522, Note_on_c, 0, 75, 92
2, 149525, Note_off_c, 0, 75, 64
2, 149762, Note_on_c, 0, 74, 92
2, 149765, Note_off_c, 0, 75, 64
2, 150002, Note_on_c, 0, 67, 92
2, 150005, Note_off_c, 0, 74, 64
2, 150242, Note_on_c, 0, 72, 92
2, 150245, Note_off_c, 0, 67, 64
2, 150602, Note_on_c, 0, 71, 92
2, 150605, Note_off_c, 0, 72, 64
2, 150722, Note_on_c, 0, 72, 92
2, 150725, Note_off_c, 0, 71, 64
2, 150962, Note_on_c, 0, 60, 92
2, 150965, Note_off_c, 0, 72, 64
2, 151442, Note_on_c, 0, 72, 92
2, 151445, Note_off_c, 0, 60, 64
2, 151802, Note_on_c, 0, 75, 92
2, 151805, Note_off_c, 0, 72, 64
2, 151922, Note_on_c, 0, 74, 92
2, 151925, Note_off_c, 0, 75, 64
2, 152042, Note_on_c, 0, 77, 92
2, 152045, Note_off_c, 0, 74, 64
2, 152162, Note_on_c, 0, 80, 92
2, 152165, Note_off_c, 0, 77, 64
2, 152282, Note_on_c, 0, 72, 92
2, 152285, Note_off_c, 0, 80, 64
2, 152402, Note_on_c, 0, 71, 92
2, 152405, Note_off_c, 0, 72, 64
2, 152522, Note_on_c, 0, 74, 92
2, 152525, Note_off_c, 0, 71, 64
2, 152642, Note_on_c, 0, 68, 92
2, 152645, Note_off_c, 0, 74, 64
2, 152762, Note_on_c, 0, 67, 92
2, 152765, Note_off_c, 0, 68, 64
2, 152882, Note_on_c, 0, 77, 92
2, 152885, Note_off_c, 0, 67, 64
2, 153242, Note_on_c, 0, 74, 92
2, 153245, Note_off_c, 0, 77, 64
2, 153362, Note_on_c, 0, 75, 92
2, 153365, Note_off_c, 0, 74, 64
2, 153482, Note_on_c, 0, 79, 92
2, 153485, Note_off_c, 0, 75, 64
2, 153602, Note_on_c, 0, 84, 92
2, 153605, Note_off_c, 0, 79, 64
2, 153722, Note_on_c, 0, 79, 92
2, 153725, Note_off_c, 0, 84, 64
2, 153842, Note_on_c, 0, 78, 92
2, 153845, Note_off_c, 0, 79, 64
2, 153962, Note_on_c, 0, 81, 92
2, 153965, Note_off_c, 0, 78, 64
2, 154082, Note_on_c, 0, 75, 92
2, 154085, Note_off_c, 0, 81, 64
2, 154202, Note_on_c, 0, 74, 92
2, 154205, Note_off_c, 0, 75, 64
2, 154322, Note_on_c, 0, 84, 92
2, 154325, Note_off_c, 0, 74, 64
2, 154682, Note_on_c, 0, 81, 92
2, 154685, Note_off_c, 0, 84, 64
2, 154802, Note_on_c, 0, 82, 92
2, 154805, Note_off_c, 0, 81, 64
2, 154922, Note_on_c, 0, 79, 92
2, 154925, Note_off_c, 0, 82, 64
2, 155042, Note_on_c, 0, 75, 92
2, 155045, Note_off_c, 0, 79, 64
2, 155402, Note_on_c, 0, 72, 92
2, 155405, Note_off_c, 0, 75, 64
2, 155522, Note_on_c, 0, 74, 92
2, 155525, Note_off_c, 0, 72, 64
2, 155642, Note_on_c, 0, 77, 92
2, 155645, Note_off_c, 0, 74, 64
2, 155762, Note_on_c, 0, 82, 92
2, 155765, Note_off_c, 0, 77, 64
2, 156122, Note_on_c, 0, 79, 92
2, 156125, Note_off_c, 0, 82, 64
2, 156242, Note_on_c, 0, 72, 92
2, 156245, Note_off_c, 0, 79, 64
2, 156362, Note_on_c, 0, 75, 92
2, 156365, Note_off_c, 0, 72, 64
2, 156482, Note_on_c, 0, 74, 92
2, 156485, Note_off_c, 0, 75, 64
2, 156602, Note_on_c, 0, 72, 92
2, 156605, Note_off_c, 0, 74, 64
2, 156722, Note_on_c, 0, 74, 92
2, 156725, Note_off_c, 0, 72, 64
2, 156842, Note_on_c, 0, 70, 92
2, 156845, Note_off_c, 0, 74, 64
2, 156962, Note_on_c, 0, 67, 92
2, 156965, Note_off_c, 0, 70, 64
2, 157082, Note_on_c, 0, 70, 92
2, 157085, Note_off_c, 0, 67, 64
2, 157202, Note_on_c, 0, 74, 92
2, 157205, Note_off_c, 0, 70, 64
2, 157322, Note_on_c, 0, 75, 92
2, 157325, Note_off_c, 0, 74, 64
2, 157442, Note_on_c, 0, 69, 92
2, 157445, Note_off_c, 0, 75, 64
2, 157562, Note_on_c, 0, 67, 92
2, 157565, Note_off_c, 0, 69, 64
2, 157682, Note_on_c, 0, 66, 92
2, 157685, Note_off_c, 0, 67, 64
2, 157802, Note_on_c, 0, 69, 92
2, 157805, Note_off_c, 0, 66, 64
2, 157922, Note_on_c, 0, 72, 92
2, 157925, Note_off_c, 0, 69, 64
2, 158402, Note_on_c, 0, 79, 92
2, 158405, Note_off_c, 0, 72, 64
2, 158642, Note_on_c, 0, 78, 92
2, 158645, Note_off_c, 0, 79, 64
2, 158882, Note_on_c, 0, 79, 92
2, 158885, Note_off_c, 0, 78, 64
2, 159365, Note_off_c, 0, 79, 64
2, 160082, Note_on_c, 0, 79, 92
2, 160442, Note_on_c, 0, 67, 92
2, 160445, Note_off_c, 0, 79, 64
2, 160562, Note_on_c, 0, 68, 92
2, 160565, Note_off_c, 0, 67, 64
2, 160682, Note_on_c, 0, 72, 92
2, 160685, Note_off_c, 0, 68, 64
2, 160802, Note_on_c, 0, 77, 92
2, 160805, Note_off_c, 0, 72, 64
2, 160922, Note_on_c, 0, 74, 92
2, 160925, Note_off_c, 0, 77, 64
2, 161042, Note_on_c, 0, 72, 92
2, 161045, Note_off_c, 0, 74, 64
2, 161162, Note_on_c, 0, 70, 92
2, 161165, Note_off_c, 0, 72, 64
2, 161282, Note_on_c, 0, 74, 92
2, 161285, Note_off_c, 0, 70, 64
2, 161402, Note_on_c, 0, 77, 92
2, 161405, Note_off_c, 0, 74, 64
2, 161522, Note_on_c, 0, 80, 92
2, 161525, Note_off_c, 0, 77, 64
2, 161642, Note_on_c, 0, 77, 92
2, 161645, Note_off_c, 0, 80, 64
2, 161762, Note_on_c, 0, 79, 92
2, 161765, Note_off_c, 0, 77, 64
2, 162245, Note_off_c, 0, 79, 64
2, 162962, Note_on_c, 0, 75, 92
2, 163322, Note_on_c, 0, 63, 92
2, 163325, Note_off_c, 0, 75, 64
2, 163442, Note_on_c, 0, 65, 92
2, 163445, Note_off_c, 0, 63, 64
2, 163562, Note_on_c, 0, 71, 92
2, 163565, Note_off_c, 0, 65, 64
2, 163682, Note_on_c, 0, 74, 92
2, 163685, Note_off_c, 0, 71, 64
2, 163802, Note_on_c, 0, 71, 92
2, 163805, Note_off_c, 0, 74, 64
2, 163922, Note_on_c, 0, 68, 92
2, 163925, Note_off_c, 0, 71, 64
2, 164042, Note_on_c, 0, 67, 92
2, 164045, Note_off_c, 0, 68, 64
2, 164162, Note_on_c, 0, 71, 92
2, 164165, Note_off_c, 0, 67, 64
2, 164282, Note_on_c, 0, 74, 92
2, 164285, Note_off_c, 0, 71, 64
2, 164402, Note_on_c, 0, 77, 92
2, 164405, Note_off_c, 0, 74, 64
2, 164522, Note_on_c, 0, 74, 92
2, 164525, Note_off_c, 0, 77, 64
2, 164642, Note_on_c, 0, 75, 92
2, 164645, Note_off_c, 0, 74, 64
2, 164762, Note_on_c, 0, 71, 92
2, 164765, Note_off_c, 0, 75, 64
2, 164882, Note_on_c, 0, 72, 92
2, 164885, Note_off_c, 0, 71, 64
2, 165125, Note_off_c, 0, 72, 64
2, 165362, Note_on_c, 0, 71, 92
2, 165482, Note_on_c, 0, 74, 92
2, 165485, Note_off_c, 0, 71, 64
2, 165602, Note_on_c, 0, 65, 92
2, 165605, Note_off_c, 0, 74, 64
2, 165722, Note_on_c, 0, 71, 92
2, 165725, Note_off_c, 0, 65, 64
2, 165842, Note_on_c, 0, 74, 92
2, 165845, Note_off_c, 0, 71, 64
2, 166202, Note_on_c, 0, 62, 92
2, 166205, Note_off_c, 0, 74, 64
2, 166322, Note_on_c, 0, 63, 92
2, 166325, Note_off_c, 0, 62, 64
2, 166442, Note_on_c, 0, 67, 92
2, 166445, Note_off_c, 0, 63, 64
2, 166562, Note_on_c, 0, 68, 92
2, 166565, Note_off_c, 0, 67, 64
2, 166682, Note_on_c, 0, 65, 92
2, 166685, Note_off_c, 0, 68, 64
2, 166802, Note_on_c, 0, 67, 92
2, 166805, Note_off_c, 0, 65, 64
2, 166922, Note_on_c, 0, 71, 92
2, 166925, Note_off_c, 0, 67, 64
2, 167042, Note_on_c, 0, 72, 92
2, 167045, Note_off_c, 0, 71, 64
2, 167162, Note_on_c, 0, 75, 92
2, 167165, Note_off_c, 0, 72, 64
2, 167282, Note_on_c, 0, 77, 92
2, 167285, Note_off_c, 0, 75, 64
2, 167642, Note_on_c, 0, 65, 92
2, 167645, Note_off_c, 0, 77, 64
2, 167762, Note_on_c, 0, 67, 92
2, 167765, Note_off_c, 0, 65, 64
2, 167882, Note_on_c, 0, 70, 92
2, 167885, Note_off_c, 0, 67, 64
2, 168002, Note_on_c, 0, 75, 92
2, 168005, Note_off_c, 0, 70, 64
2, 168122, Note_on_c, 0, 72, 92
2, 168125, Note_off_c, 0, 75, 64
2, 168242, Note_on_c, 0, 70, 92
2, 168245, Note_off_c, 0, 72, 64
2, 168362, Note_on_c, 0, 68, 92
2, 168365, Note_off_c, 0, 70, 64
2, 168482, Note_on_c, 0, 74, 92
2, 168485, Note_off_c, 0, 68, 64
2, 168602, Note_on_c, 0, 77, 92
2, 168605, Note_off_c, 0, 74, 64
2, 168722, Note_on_c, 0, 80, 92
2, 168725, Note_off_c, 0, 77, 64
2, 168842, Note_on_c, 0, 77, 92
2, 168845, Note_off_c, 0, 80, 64
2, 168962, Note_on_c, 0, 79, 92
2, 168965, Note_off_c, 0, 77, 64
2, 169082, Note_on_c, 0, 80, 92
2, 169085, Note_off_c, 0, 79, 64
2, 169202, Note_on_c, 0, 82, 92
2, 169205, Note_off_c, 0, 80, 64
2, 169442, Note_on_c, 0, 80, 92
2, 169445, Note_off_c, 0, 82, 64
2, 169682, Note_on_c, 0, 79, 92
2, 169685, Note_off_c, 0, 80, 64
2, 169922, Note_on_c, 0, 84, 92
2, 169925, Note_off_c, 0, 79, 64
2, 170282, Note_on_c, 0, 82, 92
2, 170285, Note_off_c, 0, 84, 64
2, 170402, Note_on_c, 0, 80, 92
2, 170405, Note_off_c, 0, 82, 64
2, 170522, Note_on_c, 0, 76, 92
2, 170525, Note_off_c, 0, 80, 64
2, 170642, Note_on_c, 0, 77, 92
2, 170645, Note_off_c, 0, 76, 64
2, 170885, Note_off_c, 0, 77, 64
2, 171122, Note_on_c, 0, 76, 92
2, 171242, Note_on_c, 0, 79, 92
2, 171245, Note_off_c, 0, 76, 64
2, 171362, Note_on_c, 0, 70, 92
2, 171365, Note_off_c, 0, 79, 64
2, 171482, Note_on_c, 0, 76, 92
2, 171485, Note_off_c, 0, 70, 64
2, 171602, Note_on_c, 0, 79, 92
2, 171605, Note_off_c, 0, 76, 64
2, 171962, Note_on_c, 0, 67, 92
2, 171965, Note_off_c, 0, 79, 64
2, 172082, Note_on_c, 0, 68, 92
2, 172085, Note_off_c, 0, 67, 64
2, 172202, Note_on_c, 0, 72, 92
2, 172205, Note_off_c, 0, 68, 64
2, 172322, Note_on_c, 0, 73, 92
2, 172325, Note_off_c, 0, 72, 64
2, 172442, Note_on_c, 0, 70, 92
2, 172445, Note_off_c, 0, 73, 64
2, 172562, Note_on_c, 0, 72, 92
2, 172565, Note_off_c, 0, 70, 64
2, 172682, Note_on_c, 0, 76, 92
2, 172685, Note_off_c, 0, 72, 64
2, 172802, Note_on_c, 0, 77, 92
2, 172805, Note_off_c, 0, 76, 64
2, 172922, Note_on_c, 0, 80, 92
2, 172925, Note_off_c, 0, 77, 64
2, 173042, Note_on_c, 0, 79, 92
2, 173045, Note_off_c, 0, 80, 64
2, 173162, Note_on_c, 0, 77, 92
2, 173165, Note_off_c, 0, 79, 64
2, 173282, Note_on_c, 0, 75, 92
2, 173285, Note_off_c, 0, 77, 64
2, 173402, Note_on_c, 0, 74, 92
2, 173405, Note_off_c, 0, 75, 64
2, 173522, Note_on_c, 0, 75, 92
2, 173525, Note_off_c, 0, 74, 64
2, 173642, Note_on_c, 0, 79, 92
2, 173645, Note_off_c, 0, 75, 64
2, 173762, Note_on_c, 0, 84, 92
2, 173765, Note_off_c, 0, 79, 64
2, 173882, Note_on_c, 0, 79, 92
2, 173885, Note_off_c, 0, 84, 64
2, 174002, Note_on_c, 0, 77, 92
2, 174005, Note_off_c, 0, 79, 64
2, 174122, Note_on_c, 0, 75, 92
2, 174125, Note_off_c, 0, 77, 64
2, 174242, Note_on_c, 0, 74, 92
2, 174245, Note_off_c, 0, 75, 64
2, 174362, Note_on_c, 0, 72, 92
2, 174365, Note_off_c, 0, 74, 64
2, 174482, Note_on_c, 0, 71, 92
2, 174485, Note_off_c, 0, 72, 64
2, 174602, Note_on_c, 0, 72, 92
2, 174605, Note_off_c, 0, 71, 64
2, 174722, Note_on_c, 0, 71, 92
2, 174725, Note_off_c, 0, 72, 64
2, 175205, Note_off_c, 0, 71, 64
2, 175922, Note_on_c, 0, 74, 92
2, 176282, Note_on_c, 0, 71, 92
2, 176285, Note_off_c, 0, 74, 64
2, 176402, Note_on_c, 0, 72, 92
2, 176405, Note_off_c, 0, 71, 64
2, 176522, Note_on_c, 0, 75, 92
2, 176525, Note_off_c, 0, 72, 64
2, 176642, Note_on_c, 0, 81, 92
2, 176645, Note_off_c, 0, 75, 64
2, 177002, Note_on_c, 0, 84, 92
2, 177005, Note_off_c, 0, 81, 64
2, 177122, Note_on_c, 0, 82, 92
2, 177125, Note_off_c, 0, 84, 64
2, 177242, Note_on_c, 0, 81, 92
2, 177245, Note_off_c, 0, 82, 64
2, 177362, Note_on_c, 0, 82, 92
2, 177365, Note_off_c, 0, 81, 64
2, 177482, Note_on_c, 0, 79, 92
2, 177485, Note_off_c, 0, 82, 64
2, 177602, Note_on_c, 0, 78, 92
2, 177605, Note_off_c, 0, 79, 64
2, 177722, Note_on_c, 0, 82, 92
2, 177725, Note_off_c, 0, 78, 64
2, 177842, Note_on_c, 0, 81, 92
2, 177845, Note_off_c, 0, 82, 64
2, 178085, Note_off_c, 0, 81, 64
2, 178322, Note_on_c, 0, 75, 92
2, 178442, Note_on_c, 0, 74, 92
2, 178445, Note_off_c, 0, 75, 64
2, 178562, Note_on_c, 0, 78, 92
2, 178565, Note_off_c, 0, 74, 64
2, 178805, Note_off_c, 0, 78, 64
2, 179042, Note_on_c, 0, 79, 92
2, 179162, Note_on_c, 0, 74, 92
2, 179165, Note_off_c, 0, 79, 64
2, 179282, Note_on_c, 0, 72, 92
2, 179285, Note_off_c, 0, 74, 64
2, 179402, Note_on_c, 0, 70, 92
2, 179405, Note_off_c, 0, 72, 64
2, 179522, Note_on_c, 0, 72, 92
2, 179525, Note_off_c, 0, 70, 64
2, 179642, Note_on_c, 0, 75, 92
2, 179645, Note_off_c, 0, 72, 64
2, 179762, Note_on_c, 0, 70, 92
2, 179765, Note_off_c, 0, 75, 64
2, 179882, Note_on_c, 0, 69, 92
2, 179885, Note_off_c, 0, 70, 64
2, 180002, Note_on_c, 0, 72, 92
2, 180005, Note_off_c, 0, 69, 64
2, 180122, Note_on_c, 0, 70, 92
2, 180125, Note_off_c, 0, 72, 64
2, 180242, Note_on_c, 0, 69, 92
2, 180245, Note_off_c, 0, 70, 64
2, 180362, Note_on_c, 0, 70, 92
2, 180365, Note_off_c, 0, 69, 64
2, 180482, Note_on_c, 0, 67, 92
2, 180485, Note_off_c, 0, 70, 64
2, 180602, Note_on_c, 0, 70, 92
2, 180605, Note_off_c, 0, 67, 64
2, 180722, Note_on_c, 0, 69, 92
2, 180725, Note_off_c, 0, 70, 64
2, 180842, Note_on_c, 0, 67, 92
2, 180845, Note_off_c, 0, 69, 64
2, 180962, Note_on_c, 0, 69, 92
2, 180965, Note_off_c, 0, 67, 64
2, 181082, Note_on_c, 0, 66, 92
2, 181085, Note_off_c, 0, 69, 64
2, 181202, Note_on_c, 0, 62, 92
2, 181205, Note_off_c, 0, 66, 64
2, 181442, Note_on_c, 0, 67, 92
2, 181445, Note_off_c, 0, 62, 64
2, 181682, Note_on_c, 0, 66, 92
2, 181685, Note_off_c, 0, 67, 64
2, 181922, Note_on_c, 0, 67, 92
2, 181925, Note_off_c, 0, 66, 64
2, 183125, Note_off_c, 0, 67, 64
2, 186002, Note_on_c, 0, 67, 92
2, 186242, Note_on_c, 0, 72, 92
2, 186245, Note_off_c, 0, 67, 64
2, 186722, Note_on_c, 0, 68, 92
2, 186725, Note_off_c, 0, 72, 64
2, 186962, Note_on_c, 0, 70, 92
2, 186965, Note_off_c, 0, 68, 64
2, 187442, Note_on_c, 0, 75, 92
2, 187445, Note_off_c, 0, 70, 64
2, 187682, Note_on_c, 0, 68, 92
2, 187685, Note_off_c, 0, 75, 64
2, 188042, Note_on_c, 0, 70, 92
2, 188045, Note_off_c, 0, 68, 64
2, 188162, Note_on_c, 0, 68, 92
2, 188165, Note_off_c, 0, 70, 64
2, 188402, Note_on_c, 0, 80, 92
2, 188405, Note_off_c, 0, 68, 64
2, 188522, Note_on_c, 0, 75, 92
2, 188525, Note_off_c, 0, 80, 64
2, 188642, Note_on_c, 0, 73, 92
2, 188645, Note_off_c, 0, 75, 64
2, 188762, Note_on_c, 0, 72, 92
2, 188765, Note_off_c, 0, 73, 64
2, 188882, Note_on_c, 0, 78, 92
2, 188885, Note_off_c, 0, 72, 64
2, 189125, Note_off_c, 0, 78, 64
2, 189242, Note_on_c, 0, 77, 92
2, 189362, Note_on_c, 0, 75, 92
2, 189365, Note_off_c, 0, 77, 64
2, 189482, Note_on_c, 0, 73, 92
2, 189485, Note_off_c, 0, 75, 64
2, 189602, Note_on_c, 0, 80, 92
2, 189605, Note_off_c, 0, 73, 64
2, 189722, Note_on_c, 0, 79, 92
2, 189725, Note_off_c, 0, 80, 64
2, 189842, Note_on_c, 0, 80, 92
2, 189845, Note_off_c, 0, 79, 64
2, 190682, Note_on_c, 0, 79, 92
2, 190685, Note_off_c, 0, 80, 64
2, 190802, Note_on_c, 0, 77, 92
2, 190805, Note_off_c, 0, 79, 64
2, 190922, Note_on_c, 0, 75, 92
2, 190925, Note_off_c, 0, 77, 64
2, 191042, Note_on_c, 0, 82, 92
2, 191045, Note_off_c, 0, 75, 64
2, 191162, Note_on_c, 0, 81, 92
2, 191165, Note_off_c, 0, 82, 64
2, 191282, Note_on_c, 0, 82, 92
2, 191285, Note_off_c, 0, 81, 64
2, 192122, Note_on_c, 0, 80, 92
2, 192125, Note_off_c, 0, 82, 64
2, 192242, Note_on_c, 0, 79, 92
2, 192245, Note_off_c, 0, 80, 64
2, 192362, Note_on_c, 0, 77, 92
2, 192365, Note_off_c, 0, 79, 64
2, 192482, Note_on_c, 0, 80, 92
2, 192485, Note_off_c, 0, 77, 64
2, 192602, Note_on_c, 0, 77, 92
2, 192605, Note_off_c, 0, 80, 64
2, 192722, Note_on_c, 0, 80, 92
2, 192725, Note_off_c, 0, 77, 64
2, 192842, Note_on_c, 0, 78, 92
2, 192845, Note_off_c, 0, 80, 64
2, 192962, Note_on_c, 0, 77, 92
2, 192965, Note_off_c, 0, 78, 64
2, 193082, Note_on_c, 0, 75, 92
2, 193085, Note_off_c, 0, 77, 64
2, 193202, Note_on_c, 0, 78, 92
2, 193205, Note_off_c, 0, 75, 64
2, 193322, Note_on_c, 0, 75, 92
2, 193325, Note_off_c, 0, 78, 64
2, 193442, Note_on_c, 0, 77, 92
2, 193445, Note_off_c, 0, 75, 64
2, 193562, Note_on_c, 0, 75, 92
2, 193565, Note_off_c, 0, 77, 64
2, 193682, Note_on_c, 0, 73, 92
2, 193685, Note_off_c, 0, 75, 64
2, 193802, Note_on_c, 0, 72, 92
2, 193805, Note_off_c, 0, 73, 64
2, 193922, Note_on_c, 0, 70, 92
2, 193925, Note_off_c, 0, 72, 64
2, 194042, Note_on_c, 0, 69, 92
2, 194045, Note_off_c, 0, 70, 64
2, 194162, Note_on_c, 0, 70, 92
2, 194165, Note_off_c, 0, 69, 64
2, 195002, Note_on_c, 0, 68, 92
2, 195005, Note_off_c, 0, 70, 64
2, 195122, Note_on_c, 0, 67, 92
2, 195125, Note_off_c, 0, 68, 64
2, 195242, Note_on_c, 0, 65, 92
2, 195245, Note_off_c, 0, 67, 64
2, 195362, Note_on_c, 0, 64, 92
2, 195365, Note_off_c, 0, 65, 64
2, 195482, Note_on_c, 0, 67, 92
2, 195485, Note_off_c, 0, 64, 64
2, 195602, Note_on_c, 0, 60, 92
2, 195605, Note_off_c, 0, 67, 64
2, 196085, Note_off_c, 0, 60, 64
2, 196442, Note_on_c, 0, 67, 92
2, 196562, Note_on_c, 0, 68, 92
2, 196565, Note_off_c, 0, 67, 64
2, 196682, Note_on_c, 0, 72, 92
2, 196685, Note_off_c, 0, 68, 64
2, 196802, Note_on_c, 0, 77, 92
2, 196805, Note_off_c, 0, 72, 64
2, 196922, Note_on_c, 0, 73, 92
2, 196925, Note_off_c, 0, 77, 64
2, 197042, Note_on_c, 0, 72, 92
2, 197045, Note_off_c, 0, 73, 64
2, 197162, Note_on_c, 0, 70, 92
2, 197165, Note_off_c, 0, 72, 64
2, 197282, Note_on_c, 0, 76, 92
2, 197285, Note_off_c, 0, 70, 64
2, 197402, Note_on_c, 0, 79, 92
2, 197405, Note_off_c, 0, 76, 64
2, 197522, Note_on_c, 0, 82, 92
2, 197525, Note_off_c, 0, 79, 64
2, 197642, Note_on_c, 0, 79, 92
2, 197645, Note_off_c, 0, 82, 64
2, 197762, Note_on_c, 0, 80, 92
2, 197765, Note_off_c, 0, 79, 64
2, 197882, Note_on_c, 0, 82, 92
2, 197885, Note_off_c, 0, 80, 64
2, 198002, Note_on_c, 0, 84, 92
2, 198005, Note_off_c, 0, 82, 64
2, 198242, Note_on_c, 0, 82, 92
2, 198245, Note_off_c, 0, 84, 64
2, 198482, Note_on_c, 0, 80, 92
2, 198485, Note_off_c, 0, 82, 64
2, 198722, Note_on_c, 0, 73, 92
2, 198725, Note_off_c, 0, 80, 64
2, 199082, Note_on_c, 0, 70, 92
2, 199085, Note_off_c, 0, 73, 64
2, 199202, Note_on_c, 0, 72, 92
2, 199205, Note_off_c, 0, 70, 64
2, 199322, Note_on_c, 0, 67, 92
2, 199325, Note_off_c, 0, 72, 64
2, 199442, Note_on_c, 0, 68, 92
2, 199445, Note_off_c, 0, 67, 64
2, 199685, Note_off_c, 0, 68, 64
2, 199922, Note_on_c, 0, 67, 92
2, 200042, Note_on_c, 0, 70, 92
2, 200045, Note_off_c, 0, 67, 64
2, 200162, Note_on_c, 0, 61, 92
2, 200165, Note_off_c, 0, 70, 64
2, 200282, Note_on_c, 0, 67, 92
2, 200285, Note_off_c, 0, 61, 64
2, 200402, Note_on_c, 0, 70, 92
2, 200405, Note_off_c, 0, 67, 64
2, 200762, Note_on_c, 0, 58, 92
2, 200765, Note_off_c, 0, 70, 64
2, 200882, Note_on_c, 0, 60, 92
2, 200885, Note_off_c, 0, 58, 64
2, 201002, Note_on_c, 0, 63, 92
2, 201005, Note_off_c, 0, 60, 64
2, 201122, Note_on_c, 0, 65, 92
2, 201125, Note_off_c, 0, 63, 64
2, 201242, Note_on_c, 0, 61, 92
2, 201245, Note_off_c, 0, 65, 64
2, 201362, Note_on_c, 0, 63, 92
2, 201365, Note_off_c, 0, 61, 64
2, 201482, Note_on_c, 0, 67, 92
2, 201485, Note_off_c, 0, 63, 64
2, 201602, Note_on_c, 0, 68, 92
2, 201605, Note_off_c, 0, 67, 64
2, 201722, Note_on_c, 0, 70, 92
2, 201725, Note_off_c, 0, 68, 64
2, 201842, Note_on_c, 0, 72, 92
2, 201845, Note_off_c, 0, 70, 64
2, 202202, Note_on_c, 0, 60, 92
2, 202205, Note_off_c, 0, 72, 64
2, 202322, Note_on_c, 0, 61, 92
2, 202325, Note_off_c, 0, 60, 64
2, 202442, Note_on_c, 0, 65, 92
2, 202445, Note_off_c, 0, 61, 64
2, 202562, Note_on_c, 0, 70, 92
2, 202565, Note_off_c, 0, 65, 64
2, 202682, Note_on_c, 0, 66, 92
2, 202685, Note_off_c, 0, 70, 64
2, 202802, Note_on_c, 0, 65, 92
2, 202805, Note_off_c, 0, 66, 64
2, 202922, Note_on_c, 0, 63, 92
2, 202925, Note_off_c, 0, 65, 64
2, 203042, Note_on_c, 0, 69, 92
2, 203045, Note_off_c, 0, 63, 64
2, 203162, Note_on_c, 0, 72, 92
2, 203165, Note_off_c, 0, 69, 64
2, 203282, Note_on_c, 0, 75, 92
2, 203285, Note_off_c, 0, 72, 64
2, 203402, Note_on_c, 0, 72, 92
2, 203405, Note_off_c, 0, 75, 64
2, 203522, Note_on_c, 0, 73, 92
2, 203525, Note_off_c, 0, 72, 64
2, 203642, Note_on_c, 0, 75, 92
2, 203645, Note_off_c, 0, 73, 64
2, 203762, Note_on_c, 0, 77, 92
2, 203765, Note_off_c, 0, 75, 64
2, 204002, Note_on_c, 0, 75, 92
2, 204005, Note_off_c, 0, 77, 64
2, 204242, Note_on_c, 0, 73, 92
2, 204245, Note_off_c, 0, 75, 64
2, 204482, Note_on_c, 0, 67, 92
2, 204485, Note_off_c, 0, 73, 64
2, 205202, Note_on_c, 0, 72, 92
2, 205205, Note_off_c, 0, 67, 64
2, 205442, Note_on_c, 0, 68, 92
2, 205445, Note_off_c, 0, 72, 64
2, 205682, Note_on_c, 0, 65, 92
2, 205685, Note_off_c, 0, 68, 64
2, 205922, Note_on_c, 0, 71, 92
2, 205925, Note_off_c, 0, 65, 64
2, 206162, Note_on_c, 0, 72, 92
2, 206165, Note_off_c, 0, 71, 64
2, 206522, Note_on_c, 0, 62, 92
2, 206525, Note_off_c, 0, 72, 64
2, 206642, Note_on_c, 0, 64, 92
2, 206645, Note_off_c, 0, 62, 64
2, 206762, Note_on_c, 0, 67, 92
2, 206765, Note_off_c, 0, 64, 64
2, 206882, Note_on_c, 0, 70, 92
2, 206885, Note_off_c, 0, 67, 64
2, 207242, Note_on_c, 0, 72, 92
2, 207245, Note_off_c, 0, 70, 64
2, 207362, Note_on_c, 0, 70, 92
2, 207365, Note_off_c, 0, 72, 64
2, 207482, Note_on_c, 0, 68, 92
2, 207485, Note_off_c, 0, 70, 64
2, 207602, Note_on_c, 0, 70, 92
2, 207605, Note_off_c, 0, 68, 64
2, 207722, Note_on_c, 0, 67, 92
2, 207725, Note_off_c, 0, 70, 64
2, 207842, Note_on_c, 0, 68, 92
2, 207845, Note_off_c, 0, 67, 64
2, 207962, Note_on_c, 0, 64, 92
2, 207965, Note_off_c, 0, 68, 64
2, 208082, Note_on_c, 0, 65, 92
2, 208085, Note_off_c, 0, 64, 64
2, 208202, Note_on_c, 0, 68, 92
2, 208205, Note_off_c, 0, 65, 64
2, 208322, Note_on_c, 0, 73, 92
2, 208325, Note_off_c, 0, 68, 64
2, 208682, Note_on_c, 0, 71, 92
2, 208685, Note_off_c, 0, 73, 64
2, 208802, Note_on_c, 0, 72, 92
2, 208805, Note_off_c, 0, 71, 64
2, 208922, Note_on_c, 0, 75, 92
2, 208925, Note_off_c, 0, 72, 64
2, 209042, Note_on_c, 0, 80, 92
2, 209045, Note_off_c, 0, 75, 64
2, 209402, Note_on_c, 0, 79, 92
2, 209405, Note_off_c, 0, 80, 64
2, 209522, Note_on_c, 0, 77, 92
2, 209525, Note_off_c, 0, 79, 64
2, 209642, Note_on_c, 0, 79, 92
2, 209645, Note_off_c, 0, 77, 64
2, 209762, Note_on_c, 0, 80, 92
2, 209765, Note_off_c, 0, 79, 64
2, 209882, Note_on_c, 0, 77, 92
2, 209885, Note_off_c, 0, 80, 64
2, 210002, Note_on_c, 0, 75, 92
2, 210005, Note_off_c, 0, 77, 64
2, 210242, Note_on_c, 0, 74, 92
2, 210245, Note_off_c, 0, 75, 64
2, 210482, Note_on_c, 0, 79, 92
2, 210485, Note_off_c, 0, 74, 64
2, 210722, Note_on_c, 0, 72, 92
2, 210725, Note_off_c, 0, 79, 64
2, 211202, Note_on_c, 0, 75, 92
2, 211205, Note_off_c, 0, 72, 64
2, 211442, Note_on_c, 0, 74, 92
2, 211445, Note_off_c, 0, 75, 64
2, 211922, Note_on_c, 0, 67, 92
2, 211925, Note_off_c, 0, 74, 64
2, 212162, Note_on_c, 0, 72, 92
2, 212165, Note_off_c, 0, 67, 64
2, 212522, Note_on_c, 0, 71, 92
2, 212525, Note_off_c, 0, 72, 64
2, 212642, Note_on_c, 0, 72, 92
2, 212645, Note_off_c, 0, 71, 64
2, 212882, Note_on_c, 0, 62, 92
2, 212885, Note_off_c, 0, 72, 64
2, 213362, Note_on_c, 0, 72, 92
2, 213365, Note_off_c, 0, 62, 64
2, 213722, Note_on_c, 0, 69, 92
2, 213725, Note_off_c, 0, 72, 64
2, 213842, Note_on_c, 0, 71, 92
2, 213845, Note_off_c, 0, 69, 64
2, 213962, Note_on_c, 0, 74, 92
2, 213965, Note_off_c, 0, 71, 64
2, 214082, Note_on_c, 0, 79, 92
2, 214085, Note_off_c, 0, 74, 64
2, 214202, Note_on_c, 0, 76, 92
2, 214205, Note_off_c, 0, 79, 64
2, 214322, Note_on_c, 0, 73, 92
2, 214325, Note_off_c, 0, 76, 64
2, 214442, Note_on_c, 0, 72, 92
2, 214445, Note_off_c, 0, 73, 64
2, 214562, Note_on_c, 0, 76, 92
2, 214565, Note_off_c, 0, 72, 64
2, 214682, Note_on_c, 0, 79, 92
2, 214685, Note_off_c, 0, 76, 64
2, 214802, Note_on_c, 0, 82, 92
2, 214805, Note_off_c, 0, 79, 64
2, 214922, Note_on_c, 0, 79, 92
2, 214925, Note_off_c, 0, 82, 64
2, 215042, Note_on_c, 0, 80, 92
2, 215045, Note_off_c, 0, 79, 64
2, 215525, Note_off_c, 0, 80, 64
2, 216242, Note_on_c, 0, 77, 92
2, 216602, Note_on_c, 0, 65, 92
2, 216605, Note_off_c, 0, 77, 64
2, 216722, Note_on_c, 0, 67, 92
2, 216725, Note_off_c, 0, 65, 64
2, 216842, Note_on_c, 0, 70, 92
2, 216845, Note_off_c, 0, 67, 64
2, 216962, Note_on_c, 0, 75, 92
2, 216965, Note_off_c, 0, 70, 64
2, 217082, Note_on_c, 0, 72, 92
2, 217085, Note_off_c, 0, 75, 64
2, 217202, Note_on_c, 0, 70, 92
2, 217205, Note_off_c, 0, 72, 64
2, 217322, Note_on_c, 0, 68, 92
2, 217325, Note_off_c, 0, 70, 64
2, 217442, Note_on_c, 0, 72, 92
2, 217445, Note_off_c, 0, 68, 64
2, 217562, Note_on_c, 0, 75, 92
2, 217565, Note_off_c, 0, 72, 64
2, 217682, Note_on_c, 0, 79, 92
2, 217685, Note_off_c, 0, 75, 64
2, 217802, Note_on_c, 0, 75, 92
2, 217805, Note_off_c, 0, 79, 64
2, 217922, Note_on_c, 0, 77, 92
2, 217925, Note_off_c, 0, 75, 64
2, 218405, Note_off_c, 0, 77, 64
2, 219122, Note_on_c, 0, 74, 92
2, 219482, Note_on_c, 0, 62, 92
2, 219485, Note_off_c, 0, 74, 64
2, 219602, Note_on_c, 0, 63, 92
2, 219605, Note_off_c, 0, 62, 64
2, 219722, Note_on_c, 0, 67, 92
2, 219725, Note_off_c, 0, 63, 64
2, 219842, Note_on_c, 0, 72, 92
2, 219845, Note_off_c, 0, 67, 64
2, 219962, Note_on_c, 0, 68, 92
2, 219965, Note_off_c, 0, 72, 64
2, 220082, Note_on_c, 0, 67, 92
2, 220085, Note_off_c, 0, 68, 64
2, 220202, Note_on_c, 0, 65, 92
2, 220205, Note_off_c, 0, 67, 64
2, 220322, Note_on_c, 0, 71, 92
2, 220325, Note_off_c, 0, 65, 64
2, 220442, Note_on_c, 0, 74, 92
2, 220445, Note_off_c, 0, 71, 64
2, 220562, Note_on_c, 0, 77, 92
2, 220565, Note_off_c, 0, 74, 64
2, 220682, Note_on_c, 0, 74, 92
2, 220685, Note_off_c, 0, 77, 64
2, 220802, Note_on_c, 0, 75, 92
2, 220805, Note_off_c, 0, 74, 64
2, 220922, Note_on_c, 0, 77, 92
2, 220925, Note_off_c, 0, 75, 64
2, 221042, Note_on_c, 0, 79, 92
2, 221045, Note_off_c, 0, 77, 64
2, 221282, Note_on_c, 0, 77, 92
2, 221285, Note_off_c, 0, 79, 64
2, 221522, Note_on_c, 0, 75, 92
2, 221525, Note_off_c, 0, 77, 64
2, 221642, Note_on_c, 0, 74, 92
2, 221645, Note_off_c, 0, 75, 64
2, 221762, Note_on_c, 0, 72, 92
2, 221765, Note_off_c, 0, 74, 64
2, 221882, Note_on_c, 0, 70, 92
2, 221885, Note_off_c, 0, 72, 64
2, 222002, Note_on_c, 0, 68, 92
2, 222005, Note_off_c, 0, 70, 64
2, 222122, Note_on_c, 0, 67, 92
2, 222125, Note_off_c, 0, 68, 64
2, 222242, Note_on_c, 0, 66, 92
2, 222245, Note_off_c, 0, 67, 64
2, 222362, Note_on_c, 0, 67, 92
2, 222365, Note_off_c, 0, 66, 64
2, 222482, Note_on_c, 0, 69, 92
2, 222485, Note_off_c, 0, 67, 64
2, 222725, Note_off_c, 0, 69, 64
2, 223442, Note_on_c, 0, 69, 92
2, 223802, Note_on_c, 0, 67, 92
2, 223805, Note_off_c, 0, 69, 64
2, 223922, Note_on_c, 0, 71, 92
2, 223925, Note_off_c, 0, 67, 64
2, 224042, Note_on_c, 0, 74, 92
2, 224045, Note_off_c, 0, 71, 64
2, 224162, Note_on_c, 0, 77, 92
2, 224165, Note_off_c, 0, 74, 64
2, 224522, Note_on_c, 0, 79, 92
2, 224525, Note_off_c, 0, 77, 64
2, 224642, Note_on_c, 0, 77, 92
2, 224645, Note_off_c, 0, 79, 64
2, 224762, Note_on_c, 0, 75, 92
2, 224765, Note_off_c, 0, 77, 64
2, 224882, Note_on_c, 0, 77, 92
2, 224885, Note_off_c, 0, 75, 64
2, 225002, Note_on_c, 0, 74, 92
2, 225005, Note_off_c, 0, 77, 64
2, 225122, Note_on_c, 0, 75, 92
2, 225125, Note_off_c, 0, 74, 64
2, 225362, Note_on_c, 0, 74, 92
2, 225365, Note_off_c, 0, 75, 64
2, 225482, Note_on_c, 0, 72, 92
2, 225485, Note_off_c, 0, 74, 64
2, 225602, Note_on_c, 0, 84, 92
2, 225605, Note_off_c, 0, 72, 64
2, 225845, Note_off_c, 0, 84, 64
2, 226082, Note_on_c, 0, 80, 92
2, 226202, Note_on_c, 0, 79, 92
2, 226205, Note_off_c, 0, 80, 64
2, 226322, Note_on_c, 0, 83, 92
2, 226325, Note_off_c, 0, 79, 64
2, 226562, Note_on_c, 0, 84, 92
2, 226565, Note_off_c, 0, 83, 64
2, 226682, Note_on_c, 0, 79, 92
2, 226685, Note_off_c, 0, 84, 64
2, 226802, Note_on_c, 0, 77, 92
2, 226805, Note_off_c, 0, 79, 64
2, 226922, Note_on_c, 0, 75, 92
2, 226925, Note_off_c, 0, 77, 64
2, 227042, Note_on_c, 0, 77, 92
2, 227045, Note_off_c, 0, 75, 64
2, 227162, Note_on_c, 0, 80, 92
2, 227165, Note_off_c, 0, 77, 64
2, 227282, Note_on_c, 0, 75, 92
2, 227285, Note_off_c, 0, 80, 64
2, 227402, Note_on_c, 0, 74, 92
2, 227405, Note_off_c, 0, 75, 64
2, 227522, Note_on_c, 0, 77, 92
2, 227525, Note_off_c, 0, 74, 64
2, 227642, Note_on_c, 0, 75, 92
2, 227645, Note_off_c, 0, 77, 64
2, 227762, Note_on_c, 0, 74, 92
2, 227765, Note_off_c, 0, 75, 64
2, 227882, Note_on_c, 0, 75, 92
2, 227885, Note_off_c, 0, 74, 64
2, 228002, Note_on_c, 0, 72, 92
2, 228005, Note_off_c, 0, 75, 64
2, 229205, Note_off_c, 0, 72, 64
2, 232082, Note_on_c, 0, 67, 92
2, 232322, Note_on_c, 0, 72, 92
2, 232325, Note_off_c, 0, 67, 64
2, 232802, Note_on_c, 0, 68, 92
2, 232805, Note_off_c, 0, 72, 64
2, 233042, Note_on_c, 0, 70, 92
2, 233045, Note_off_c, 0, 68, 64
2, 233522, Note_on_c, 0, 75, 92
2, 233525, Note_off_c, 0, 70, 64
2, 233762, Note_on_c, 0, 68, 92
2, 233765, Note_off_c, 0, 75, 64
2, 234122, Note_on_c, 0, 70, 92
2, 234125, Note_off_c, 0, 68, 64
2, 234242, Note_on_c, 0, 68, 92
2, 234245, Note_off_c, 0, 70, 64
2, 234482, Note_on_c, 0, 80, 92
2, 234485, Note_off_c, 0, 68, 64
2, 234602, Note_on_c, 0, 75, 92
2, 234605, Note_off_c, 0, 80, 64
2, 234722, Note_on_c, 0, 73, 92
2, 234725, Note_off_c, 0, 75, 64
2, 234842, Note_on_c, 0, 72, 92
2, 234845, Note_off_c, 0, 73, 64
2, 234962, Note_on_c, 0, 78, 92
2, 234965, Note_off_c, 0, 72, 64
2, 235205, Note_off_c, 0, 78, 64
2, 235322, Note_on_c, 0, 77, 92
2, 235442, Note_on_c, 0, 75, 92
2, 235445, Note_off_c, 0, 77, 64
2, 235562, Note_on_c, 0, 73, 92
2, 235565, Note_off_c, 0, 75, 64
2, 235682, Note_on_c, 0, 80, 92
2, 235685, Note_off_c, 0, 73, 64
2, 235802, Note_on_c, 0, 79, 92
2, 235805, Note_off_c, 0, 80, 64
2, 235922, Note_on_c, 0, 80, 92
2, 235925, Note_off_c, 0, 79, 64
2, 236762, Note_on_c, 0, 79, 92
2, 236765, Note_off_c, 0, 80, 64
2, 236882, Note_on_c, 0, 77, 92
2, 236885, Note_off_c, 0, 79, 64
2, 237002, Note_on_c, 0, 75, 92
2, 237005, Note_off_c, 0, 77, 64
2, 237122, Note_on_c, 0, 82, 92
2, 237125, Note_off_c, 0, 75, 64
2, 237242, Note_on_c, 0, 81, 92
2, 237245, Note_off_c, 0, 82, 64
2, 237362, Note_on_c, 0, 82, 92
2, 237365, Note_off_c, 0, 81, 64
2, 238202, Note_on_c, 0, 80, 92
2, 238205, Note_off_c, 0, 82, 64
2, 238322, Note_on_c, 0, 79, 92
2, 238325, Note_off_c, 0, 80, 64
2, 238442, Note_on_c, 0, 77, 92
2, 238445, Note_off_c, 0, 79, 64
2, 238562, Note_on_c, 0, 80, 92
2, 238565, Note_off_c, 0, 77, 64
2, 238682, Note_on_c, 0, 77, 92
2, 238685, Note_off_c, 0, 80, 64
2, 238802, Note_on_c, 0, 80, 92
2, 238805, Note_off_c, 0, 77, 64
2, 238922, Note_on_c, 0, 78, 92
2, 238925, Note_off_c, 0, 80, 64
2, 239042, Note_on_c, 0, 77, 92
2, 239045, Note_off_c, 0, 78, 64
2, 239162, Note_on_c, 0, 75, 92
2, 239165, Note_off_c, 0, 77, 64
2, 239282, Note_on_c, 0, 78, 92
2, 239285, Note_off_c, 0, 75, 64
2, 239402, Note_on_c, 0, 75, 92
2, 239405, Note_off_c, 0, 78, 64
2, 239522, Note_on_c, 0, 77, 92
2, 239525, Note_off_c, 0, 75, 64
2, 239642, Note_on_c, 0, 75, 92
2, 239645, Note_off_c, 0, 77, 64
2, 239762, Note_on_c, 0, 73, 92
2, 239765, Note_off_c, 0, 75, 64
2, 239882, Note_on_c, 0, 72, 92
2, 239885, Note_off_c, 0, 73, 64
2, 240002, Note_on_c, 0, 70, 92
2, 240005, Note_off_c, 0, 72, 64
2, 240122, Note_on_c, 0, 69, 92
2, 240125, Note_off_c, 0, 70, 64
2, 240242, Note_on_c, 0, 70, 92
2, 240245, Note_off_c, 0, 69, 64
2, 241082, Note_on_c, 0, 68, 92
2, 241085, Note_off_c, 0, 70, 64
2, 241202, Note_on_c, 0, 67, 92
2, 241205, Note_off_c, 0, 68, 64
2, 241322, Note_on_c, 0, 65, 92
2, 241325, Note_off_c, 0, 67, 64
2, 241442, Note_on_c, 0, 64, 92
2, 241445, Note_off_c, 0, 65, 64
2, 241562, Note_on_c, 0, 67, 92
2, 241565, Note_off_c, 0, 64, 64
2, 241682, Note_on_c, 0, 60, 92
2, 241685, Note_off_c, 0, 67, 64
2, 242165, Note_off_c, 0, 60, 64
2, 242522, Note_on_c, 0, 67, 92
2, 242642, Note_on_c, 0, 68, 92
2, 242645, Note_off_c, 0, 67, 64
2, 242762, Note_on_c, 0, 72, 92
2, 242765, Note_off_c, 0, 68, 64
2, 242882, Note_on_c, 0, 77, 92
2, 242885, Note_off_c, 0, 72, 64
2, 243002, Note_on_c, 0, 73, 92
2, 243005, Note_off_c, 0, 77, 64
2, 243122, Note_on_c, 0, 72, 92
2, 243125, Note_off_c, 0, 73, 64
2, 243242, Note_on_c, 0, 70, 92
2, 243245, Note_off_c, 0, 72, 64
2, 243362, Note_on_c, 0, 76, 92
2, 243365, Note_off_c, 0, 70, 64
2, 243482, Note_on_c, 0, 79, 92
2, 243485, Note_off_c, 0, 76, 64
2, 243602, Note_on_c, 0, 82, 92
2, 243605, Note_off_c, 0, 79, 64
2, 243722, Note_on_c, 0, 79, 92
2, 243725, Note_off_c, 0, 82, 64
2, 243842, Note_on_c, 0, 80, 92
2, 243845, Note_off_c, 0, 79, 64
2, 243962, Note_on_c, 0, 82, 92
2, 243965, Note_off_c, 0, 80, 64
2, 244082, Note_on_c, 0, 84, 92
2, 244085, Note_off_c, 0, 82, 64
2, 244322, Note_on_c, 0, 82, 92
2, 244325, Note_off_c, 0, 84, 64
2, 244562, Note_on_c, 0, 80, 92
2, 244565, Note_off_c, 0, 82, 64
2, 244802, Note_on_c, 0, 73, 92
2, 244805, Note_off_c, 0, 80, 64
2, 245162, Note_on_c, 0, 70, 92
2, 245165, Note_off_c, 0, 73, 64
2, 245282, Note_on_c, 0, 72, 92
2, 245285, Note_off_c, 0, 70, 64
2, 245402, Note_on_c, 0, 67, 92
2, 245405, Note_off_c, 0, 72, 64
2, 245522, Note_on_c, 0, 68, 92
2, 245525, Note_off_c, 0, 67, 64
2, 245765, Note_off_c, 0, 68, 64
2, 246002, Note_on_c, 0, 67, 92
2, 246122, Note_on_c, 0, 70, 92
2, 246125, Note_off_c, 0, 67, 64
2, 246242, Note_on_c, 0, 61, 92
2, 246245, Note_off_c, 0, 70, 64
2, 246362, Note_on_c, 0, 67, 92
2, 246365, Note_off_c, 0, 61, 64
2, 246482, Note_on_c, 0, 70, 92
2, 246485, Note_off_c, 0, 67, 64
2, 246842, Note_on_c, 0, 58, 92
2, 246845, Note_off_c, 0, 70, 64
2, 246962, Note_on_c, 0, 60, 92
2, 246965, Note_off_c, 0, 58, 64
2, 247082, Note_on_c, 0, 63, 92
2, 247085, Note_off_c, 0, 60, 64
2, 247202, Note_on_c, 0, 65, 92
2, 247205, Note_off_c, 0, 63, 64
2, 247322, Note_on_c, 0, 61, 92
2, 247325, Note_off_c, 0, 65, 64
2, 247442, Note_on_c, 0, 63, 92
2, 247445, Note_off_c, 0, 61, 64
2, 247562, Note_on_c, 0, 67, 92
2, 247565, Note_off_c, 0, 63, 64
2, 247682, Note_on_c, 0, 68, 92
2, 247685, Note_off_c, 0, 67, 64
2, 247802, Note_on_c, 0, 70, 92
2, 247805, Note_off_c, 0, 68, 64
2, 247922, Note_on_c, 0, 72, 92
2, 247925, Note_off_c, 0, 70, 64
2, 248282, Note_on_c, 0, 60, 92
2, 248285, Note_off_c, 0, 72, 64
2, 248402, Note_on_c, 0, 61, 92
2, 248405, Note_off_c, 0, 60, 64
2, 248522, Note_on_c, 0, 65, 92
2, 248525, Note_off_c, 0, 61, 64
2, 248642, Note_on_c, 0, 70, 92
2, 248645, Note_off_c, 0, 65, 64
2, 248762, Note_on_c, 0, 66, 92
2, 248765, Note_off_c, 0, 70, 64
2, 248882, Note_on_c, 0, 65, 92
2, 248885, Note_off_c, 0, 66, 64
2, 249002, Note_on_c, 0, 63, 92
2, 249005, Note_off_c, 0, 65, 64
2, 249122, Note_on_c, 0, 69, 92
2, 249125, Note_off_c, 0, 63, 64
2, 249242, Note_on_c, 0, 72, 92
2, 249245, Note_off_c, 0, 69, 64
2, 249362, Note_on_c, 0, 75, 92
2, 249365, Note_off_c, 0, 72, 64
2, 249482, Note_on_c, 0, 72, 92
2, 249485, Note_off_c, 0, 75, 64
2, 249602, Note_on_c, 0, 73, 92
2, 249605, Note_off_c, 0, 72, 64
2, 249722, Note_on_c, 0, 75, 92
2, 249725, Note_off_c, 0, 73, 64
2, 249842, Note_on_c, 0, 77, 92
2, 249845, Note_off_c, 0, 75, 64
2, 250082, Note_on_c, 0, 75, 92
2, 250085, Note_off_c, 0, 77, 64
2, 250322, Note_on_c, 0, 73, 92
2, 250325, Note_off_c, 0, 75, 64
2, 250562, Note_on_c, 0, 67, 92
2, 250565, Note_off_c, 0, 73, 64
2, 251282, Note_on_c, 0, 72, 92
2, 251285, Note_off_c, 0, 67, 64
2, 251522, Note_on_c, 0, 68, 92
2, 251525, Note_off_c, 0, 72, 64
2, 251762, Note_on_c, 0, 65, 92
2, 251765, Note_off_c, 0, 68, 64
2, 252002, Note_on_c, 0, 71, 92
2, 252005, Note_off_c, 0, 65, 64
2, 252242, Note_on_c, 0, 72, 92
2, 252245, Note_off_c, 0, 71, 64
2, 252602, Note_on_c, 0, 62, 92
2, 252605, Note_off_c, 0, 72, 64
2, 252722, Note_on_c, 0, 64, 92
2, 252725, Note_off_c, 0, 62, 64
2, 252842, Note_on_c, 0, 67, 92
2, 252845, Note_off_c, 0, 64, 64
2, 252962, Note_on_c, 0, 70, 92
2, 252965, Note_off_c, 0, 67, 64
2, 253322, Note_on_c, 0, 72, 92
2, 253325, Note_off_c, 0, 70, 64
2, 253442, Note_on_c, 0, 70, 92
2, 253445, Note_off_c, 0, 72, 64
2, 253562, Note_on_c, 0, 68, 92
2, 253565, Note_off_c, 0, 70, 64
2, 253682, Note_on_c, 0, 70, 92
2, 253685, Note_off_c, 0, 68, 64
2, 253802, Note_on_c, 0, 67, 92
2, 253805, Note_off_c, 0, 70, 64
2, 253922, Note_on_c, 0, 68, 92
2, 253925, Note_off_c, 0, 67, 64
2, 254042, Note_on_c, 0, 64, 92
2, 254045, Note_off_c, 0, 68, 64
2, 254162, Note_on_c, 0, 65, 92
2, 254165, Note_off_c, 0, 64, 64
2, 254282, Note_on_c, 0, 68, 92
2, 254285, Note_off_c, 0, 65, 64
2, 254402, Note_on_c, 0, 73, 92
2, 254405, Note_off_c, 0, 68, 64
2, 254762, Note_on_c, 0, 71, 92
2, 254765, Note_off_c, 0, 73, 64
2, 254882, Note_on_c, 0, 72, 92
2, 254885, Note_off_c, 0, 71, 64
2, 255002, Note_on_c, 0, 75, 92
2, 255005, Note_off_c, 0, 72, 64
2, 255122, Note_on_c, 0, 80, 92
2, 255125, Note_off_c, 0, 75, 64
2, 255482, Note_on_c, 0, 79, 92
2, 255485, Note_off_c, 0, 80, 64
2, 255602, Note_on_c, 0, 77, 92
2, 255605, Note_off_c, 0, 79, 64
2, 255722, Note_on_c, 0, 79, 92
2, 255725, Note_off_c, 0, 77, 64
2, 255842, Note_on_c, 0, 80, 92
2, 255845, Note_off_c, 0, 79, 64
2, 255962, Note_on_c, 0, 77, 92
2, 255965, Note_off_c, 0, 80, 64
2, 256082, Note_on_c, 0, 75, 92
2, 256085, Note_off_c, 0, 77, 64
2, 256322, Note_on_c, 0, 74, 92
2, 256325, Note_off_c, 0, 75, 64
2, 256562, Note_on_c, 0, 79, 92
2, 256565, Note_off_c, 0, 74, 64
2, 256802, Note_on_c, 0, 72, 92
2, 256805, Note_off_c, 0, 79, 64
2, 257282, Note_on_c, 0, 75, 92
2, 257285, Note_off_c, 0, 72, 64
2, 257522, Note_on_c, 0, 74, 92
2, 257525, Note_off_c, 0, 75, 64
2, 258002, Note_on_c, 0, 67, 92
2, 258005, Note_off_c, 0, 74, 64
2, 258242, Note_on_c, 0, 72, 92
2, 258245, Note_off_c, 0, 67, 64
2, 258602, Note_on_c, 0, 71, 92
2, 258605, Note_off_c, 0, 72, 64
2, 258722, Note_on_c, 0, 72, 92
2, 258725, Note_off_c, 0, 71, 64
2, 258962, Note_on_c, 0, 62, 92
2, 258965, Note_off_c, 0, 72, 64
2, 259442, Note_on_c, 0, 72, 92
2, 259445, Note_off_c, 0, 62, 64
2, 259802, Note_on_c, 0, 69, 92
2, 259805, Note_off_c, 0, 72, 64
2, 259922, Note_on_c, 0, 71, 92
2, 259925, Note_off_c, 0, 69, 64
2, 260042, Note_on_c, 0, 74, 92
2, 260045, Note_off_c, 0, 71, 64
2, 260162, Note_on_c, 0, 79, 92
2, 260165, Note_off_c, 0, 74, 64
2, 260282, Note_on_c, 0, 76, 92
2, 260285, Note_off_c, 0, 79, 64
2, 260402, Note_on_c, 0, 73, 92
2, 260405, Note_off_c, 0, 76, 64
2, 260522, Note_on_c, 0, 72, 92
2, 260525, Note_off_c, 0, 73, 64
2, 260642, Note_on_c, 0, 76, 92
2, 260645, Note_off_c, 0, 72, 64
2, 260762, Note_on_c, 0, 79, 92
2, 260765, Note_off_c, 0, 76, 64
2, 260882, Note_on_c, 0, 82, 92
2, 260885, Note_off_c, 0, 79, 64
2, 261002, Note_on_c, 0, 79, 92
2, 261005, Note_off_c, 0, 82, 64
2, 261122, Note_on_c, 0, 80, 92
2, 261125, Note_off_c, 0, 79, 64
2, 261605, Note_off_c, 0, 80, 64
2, 262322, Note_on_c, 0, 77, 92
2, 262682, Note_on_c, 0, 65, 92
2, 262685, Note_off_c, 0, 77, 64
2, 262802, Note_on_c, 0, 67, 92
2, 262805, Note_off_c, 0, 65, 64
2, 262922, Note_on_c, 0, 70, 92
2, 262925, Note_off_c, 0, 67, 64
2, 263042, Note_on_c, 0, 75, 92
2, 263045, Note_off_c, 0, 70, 64
2, 263162, Note_on_c, 0, 72, 92
2, 263165, Note_off_c, 0, 75, 64
2, 263282, Note_on_c, 0, 70, 92
2, 263285, Note_off_c, 0, 72, 64
2, 263402, Note_on_c, 0, 68, 92
2, 263405, Note_off_c, 0, 70, 64
2, 263522, Note_on_c, 0, 72, 92
2, 263525, Note_off_c, 0, 68, 64
2, 263642, Note_on_c, 0, 75, 92
2, 263645, Note_off_c, 0, 72, 64
2, 263762, Note_on_c, 0, 79, 92
2, 263765, Note_off_c, 0, 75, 64
2, 263882, Note_on_c, 0, 75, 92
2, 263885, Note_off_c, 0, 79, 64
2, 264002, Note_on_c, 0, 77, 92
2, 264005, Note_off_c, 0, 75, 64
2, 264485, Note_off_c, 0, 77, 64
2, 265202, Note_on_c, 0, 74, 92
2, 265562, Note_on_c, 0, 62, 92
2, 265565, Note_off_c, 0, 74, 64
2, 265682, Note_on_c, 0, 63, 92
2, 265685, Note_off_c, 0, 62, 64
2, 265802, Note_on_c, 0, 67, 92
2, 265805, Note_off_c, 0, 63, 64
2, 265922, Note_on_c, 0, 72, 92
2, 265925, Note_off_c, 0, 67, 64
2, 266042, Note_on_c, 0, 68, 92
2, 266045, Note_off_c, 0, 72, 64
2, 266162, Note_on_c, 0, 67, 92
2, 266165, Note_off_c, 0, 68, 64
2, 266282, Note_on_c, 0, 65, 92
2, 266285, Note_off_c, 0, 67, 64
2, 266402, Note_on_c, 0, 71, 92
2, 266405, Note_off_c, 0, 65, 64
2, 266522, Note_on_c, 0, 74, 92
2, 266525, Note_off_c, 0, 71, 64
2, 266642, Note_on_c, 0, 77, 92
2, 266645, Note_off_c, 0, 74, 64
2, 266762, Note_on_c, 0, 74, 92
2, 266765, Note_off_c, 0, 77, 64
2, 266882, Note_on_c, 0, 75, 92
2, 266885, Note_off_c, 0, 74, 64
2, 267002, Note_on_c, 0, 77, 92
2, 267005, Note_off_c, 0, 75, 64
2, 267122, Note_on_c, 0, 79, 92
2, 267125, Note_off_c, 0, 77, 64
2, 267362, Note_on_c, 0, 77, 92
2, 267365, Note_off_c, 0, 79, 64
2, 267602, Note_on_c, 0, 75, 92
2, 267605, Note_off_c, 0, 77, 64
2, 267722, Note_on_c, 0, 74, 92
2, 267725, Note_off_c, 0, 75, 64
2, 267842, Note_on_c, 0, 72, 92
2, 267845, Note_off_c, 0, 74, 64
2, 267962, Note_on_c, 0, 70, 92
2, 267965, Note_off_c, 0, 72, 64
2, 268082, Note_on_c, 0, 68, 92
2, 268085, Note_off_c, 0, 70, 64
2, 268202, Note_on_c, 0, 67, 92
2, 268205, Note_off_c, 0, 68, 64
2, 268322, Note_on_c, 0, 66, 92
2, 268325, Note_off_c, 0, 67, 64
2, 268442, Note_on_c, 0, 67, 92
2, 268445, Note_off_c, 0, 66, 64
2, 268562, Note_on_c, 0, 69, 92
2, 268565, Note_off_c, 0, 67, 64
2, 268805, Note_off_c, 0, 69, 64
2, 269522, Note_on_c, 0, 69, 92
2, 269882, Note_on_c, 0, 67, 92
2, 269885, Note_off_c, 0, 69, 64
2, 270002, Note_on_c, 0, 71, 92
2, 270005, Note_off_c, 0, 67, 64
2, 270122, Note_on_c, 0, 74, 92
2, 270125, Note_off_c, 0, 71, 64
2, 270242, Note_on_c, 0, 77, 92
2, 270245, Note_off_c, 0, 74, 64
2, 270602, Note_on_c, 0, 79, 92
2, 270605, Note_off_c, 0, 77, 64
2, 270722, Note_on_c, 0, 77, 92
2, 270725, Note_off_c, 0, 79, 64
2, 270842, Note_on_c, 0, 75, 92
2, 270845, Note_off_c, 0, 77, 64
2, 270962, Note_on_c, 0, 77, 92
2, 270965, Note_off_c, 0, 75, 64
2, 271082, Note_on_c, 0, 74, 92
2, 271085, Note_off_c, 0, 77, 64
2, 271202, Note_on_c, 0, 75, 92
2, 271205, Note_off_c, 0, 74, 64
2, 271442, Note_on_c, 0, 74, 92
2, 271445, Note_off_c, 0, 75, 64
2, 271562, Note_on_c, 0, 72, 92
2, 271565, Note_off_c, 0, 74, 64
2, 271682, Note_on_c, 0, 84, 92
2, 271685, Note_off_c, 0, 72, 64
2, 271925, Note_off_c, 0, 84, 64
2, 272162, Note_on_c, 0, 80, 92
2, 272282, Note_on_c, 0, 79, 92
2, 272285, Note_off_c, 0, 80, 64
2, 272402, Note_on_c, 0, 83, 92
2, 272405, Note_off_c, 0, 79, 64
2, 272642, Note_on_c, 0, 84, 92
2, 272645, Note_off_c, 0, 83, 64
2, 272762, Note_on_c, 0, 79, 92
2, 272765, Note_off_c, 0, 84, 64
2, 272882, Note_on_c, 0, 77, 92
2, 272885, Note_off_c, 0, 79, 64
2, 273002, Note_on_c, 0, 75, 92
2, 273005, Note_off_c, 0, 77, 64
2, 273122, Note_on_c, 0, 77, 92
2, 273125, Note_off_c, 0, 75, 64
2, 273242, Note_on_c, 0, 80, 92
2, 273245, Note_off_c, 0, 77, 64
2, 273362, Note_on_c, 0, 75, 92
2, 273365, Note_off_c, 0, 80, 64
2, 273482, Note_on_c, 0, 74, 92
2, 273485, Note_off_c, 0, 75, 64
2, 273602, Note_on_c, 0, 77, 92
2, 273605, Note_off_c, 0, 74, 64
2, 273722, Note_on_c, 0, 75, 92
2, 273725, Note_off_c, 0, 77, 64
2, 273842, Note_on_c, 0, 74, 92
2, 273845, Note_off_c, 0, 75, 64
2, 273962, Note_on_c, 0, 75, 92
2, 273965, Note_off_c, 0, 74, 64
2, 274082, Note_on_c, 0, 72, 92
2, 274085, Note_off_c, 0, 75, 64
2, 275285, Note_off_c, 0, 72, 64
2, 278402, Note_on_c, 0, 63, 92
2, 278642, Note_on_c, 0, 75, 92
2, 278645, Note_off_c, 0, 63, 64
2, 278882, Note_on_c, 0, 65, 92
2, 278885, Note_off_c, 0, 75, 64
2, 279122, Note_on_c, 0, 75, 92
2, 279125, Note_off_c, 0, 65, 64
2, 279362, Note_on_c, 0, 67, 92
2, 279365, Note_off_c, 0, 75, 64
2, 279602, Note_on_c, 0, 75, 92
2, 279605, Note_off_c, 0, 67, 64
2, 279842, Note_on_c, 0, 68, 92
2, 279845, Note_off_c, 0, 75, 64
2, 280082, Note_on_c, 0, 75, 92
2, 280085, Note_off_c, 0, 68, 64
2, 280322, Note_on_c, 0, 70, 92
2, 280325, Note_off_c, 0, 75, 64
2, 280562, Note_on_c, 0, 75, 92
2, 280565, Note_off_c, 0, 70, 64
2, 280802, Note_on_c, 0, 72, 92
2, 280805, Note_off_c, 0, 75, 64
2, 281042, Note_on_c, 0, 75, 92
2, 281045, Note_off_c, 0, 72, 64
2, 281282, Note_on_c, 0, 70, 92
2, 281285, Note_off_c, 0, 75, 64
2, 281402, Note_on_c, 0, 75, 92
2, 281405, Note_off_c, 0, 70, 64
2, 281522, Note_on_c, 0, 74, 92
2, 281525, Note_off_c, 0, 75, 64
2, 281642, Note_on_c, 0, 72, 92
2, 281645, Note_off_c, 0, 74, 64
2, 281762, Note_on_c, 0, 70, 92
2, 281765, Note_off_c, 0, 72, 64
2, 281882, Note_on_c, 0, 79, 92
2, 281885, Note_off_c, 0, 70, 64
2, 282002, Note_on_c, 0, 77, 92
2, 282005, Note_off_c, 0, 79, 64
2, 282122, Note_on_c, 0, 75, 92
2, 282125, Note_off_c, 0, 77, 64
2, 282242, Note_on_c, 0, 74, 92
2, 282245, Note_off_c, 0, 75, 64
2, 282362, Note_on_c, 0, 72, 92
2, 282365, Note_off_c, 0, 74, 64
2, 282482, Note_on_c, 0, 70, 92
2, 282485, Note_off_c, 0, 72, 64
2, 282602, Note_on_c, 0, 68, 92
2, 282605, Note_off_c, 0, 70, 64
2, 282722, Note_on_c, 0, 67, 92
2, 282725, Note_off_c, 0, 68, 64
2, 282842, Note_on_c, 0, 68, 92
2, 282845, Note_off_c, 0, 67, 64
2, 282962, Note_on_c, 0, 70, 92
2, 282965, Note_off_c, 0, 68, 64
2, 283082, Note_on_c, 0, 67, 92
2, 283085, Note_off_c, 0, 70, 64
2, 283202, Note_on_c, 0, 63, 92
2, 283205, Note_off_c, 0, 67, 64
2, 283322, Note_on_c, 0, 67, 92
2, 283325, Note_off_c, 0, 63, 64
2, 283442, Note_on_c, 0, 70, 92
2, 283445, Note_off_c, 0, 67, 64
2, 283562, Note_on_c, 0, 75, 92
2, 283565, Note_off_c, 0, 70, 64
2, 283682, Note_on_c, 0, 65, 92
2, 283685, Note_off_c, 0, 75, 64
2, 283802, Note_on_c, 0, 69, 92
2, 283805, Note_off_c, 0, 65, 64
2, 283922, Note_on_c, 0, 72, 92
2, 283925, Note_off_c, 0, 69, 64
2, 284042, Note_on_c, 0, 75, 92
2, 284045, Note_off_c, 0, 72, 64
2, 284162, Note_on_c, 0, 74, 92
2, 284165, Note_off_c, 0, 75, 64
2, 284282, Note_on_c, 0, 72, 92
2, 284285, Note_off_c, 0, 74, 64
2, 284402, Note_on_c, 0, 74, 92
2, 284405, Note_off_c, 0, 72, 64
2, 284522, Note_on_c, 0, 77, 92
2, 284525, Note_off_c, 0, 74, 64
2, 284642, Note_on_c, 0, 75, 92
2, 284645, Note_off_c, 0, 77, 64
2, 284762, Note_on_c, 0, 74, 92
2, 284765, Note_off_c, 0, 75, 64
2, 284882, Note_on_c, 0, 75, 92
2, 284885, Note_off_c, 0, 74, 64
2, 285002, Note_on_c, 0, 79, 92
2, 285005, Note_off_c, 0, 75, 64
2, 285122, Note_on_c, 0, 77, 92
2, 285125, Note_off_c, 0, 79, 64
2, 285242, Note_on_c, 0, 75, 92
2, 285245, Note_off_c, 0, 77, 64
2, 285362, Note_on_c, 0, 77, 92
2, 285365, Note_off_c, 0, 75, 64
2, 285482, Note_on_c, 0, 80, 92
2, 285485, Note_off_c, 0, 77, 64
2, 285602, Note_on_c, 0, 79, 92
2, 285605, Note_off_c, 0, 80, 64
2, 285722, Note_on_c, 0, 77, 92
2, 285725, Note_off_c, 0, 79, 64
2, 285842, Note_on_c, 0, 79, 92
2, 285845, Note_off_c, 0, 77, 64
2, 285962, Note_on_c, 0, 82, 92
2, 285965, Note_off_c, 0, 79, 64
2, 286082, Note_on_c, 0, 74, 92
2, 286085, Note_off_c, 0, 82, 64
2, 286202, Note_on_c, 0, 72, 92
2, 286205, Note_off_c, 0, 74, 64
2, 286322, Note_on_c, 0, 74, 92
2, 286325, Note_off_c, 0, 72, 64
2, 286442, Note_on_c, 0, 82, 92
2, 286445, Note_off_c, 0, 74, 64
2, 286562, Note_on_c, 0, 75, 92
2, 286565, Note_off_c, 0, 82, 64
2, 286682, Note_on_c, 0, 74, 92
2, 286685, Note_off_c, 0, 75, 64
2, 286802, Note_on_c, 0, 75, 92
2, 286805, Note_off_c, 0, 74, 64
2, 286922, Note_on_c, 0, 82, 92
2, 286925, Note_off_c, 0, 75, 64
2, 287042, Note_on_c, 0, 74, 92
2, 287045, Note_off_c, 0, 82, 64
2, 287282, Note_on_c, 0, 77, 92
2, 287285, Note_off_c, 0, 74, 64
2, 287522, Note_on_c, 0, 82, 92
2, 287525, Note_off_c, 0, 77, 64
2, 287762, Note_on_c, 0, 74, 92
2, 287765, Note_off_c, 0, 82, 64
2, 288002, Note_on_c, 0, 72, 92
2, 288005, Note_off_c, 0, 74, 64
2, 288242, Note_on_c, 0, 81, 92
2, 288245, Note_off_c, 0, 72, 64
2, 288482, Note_on_c, 0, 82, 92
2, 288485, Note_off_c, 0, 81, 64
2, 288722, Note_on_c, 0, 74, 92
2, 288725, Note_off_c, 0, 82, 64
2, 288962, Note_on_c, 0, 77, 92
2, 288965, Note_off_c, 0, 74, 64
2, 289202, Note_on_c, 0, 74, 92
2, 289205, Note_off_c, 0, 77, 64
2, 289442, Note_on_c, 0, 70, 92
2, 289445, Note_off_c, 0, 74, 64
2, 289682, Note_on_c, 0, 74, 92
2, 289685, Note_off_c, 0, 70, 64
2, 289922, Note_on_c, 0, 75, 92
2, 289925, Note_off_c, 0, 74, 64
2, 290165, Note_off_c, 0, 75, 64
2, 290402, Note_on_c, 0, 75, 92
2, 290645, Note_off_c, 0, 75, 64
2, 290882, Note_on_c, 0, 75, 92
2, 291125, Note_off_c, 0, 75, 64
2, 291362, Note_on_c, 0, 75, 92
2, 291605, Note_off_c, 0, 75, 64
2, 291842, Note_on_c, 0, 75, 92
2, 292085, Note_off_c, 0, 75, 64
2, 292322, Note_on_c, 0, 75, 92
2, 292565, Note_off_c, 0, 75, 64
2, 292922, Note_on_c, 0, 75, 92
2, 293042, Note_on_c, 0, 77, 92
2, 293045, Note_off_c, 0, 75, 64
2, 293162, Note_on_c, 0, 79, 92
2, 293165, Note_off_c, 0, 77, 64
2, 293282, Note_on_c, 0, 80, 92
2, 293285, Note_off_c, 0, 79, 64
2, 293402, Note_on_c, 0, 82, 92
2, 293405, Note_off_c, 0, 80, 64
2, 293522, Note_on_c, 0, 84, 92
2, 293525, Note_off_c, 0, 82, 64
2, 293642, Note_on_c, 0, 82, 92
2, 293645, Note_off_c, 0, 84, 64
2, 293762, Note_on_c, 0, 80, 92
2, 293765, Note_off_c, 0, 82, 64
2, 293882, Note_on_c, 0, 79, 92
2, 293885, Note_off_c, 0, 80, 64
2, 294002, Note_on_c, 0, 77, 92
2, 294005, Note_off_c, 0, 79, 64
2, 294122, Note_on_c, 0, 80, 92
2, 294125, Note_off_c, 0, 77, 64
2, 294242, Note_on_c, 0, 79, 92
2, 294245, Note_off_c, 0, 80, 64
2, 294482, Note_on_c, 0, 70, 92
2, 294485, Note_off_c, 0, 79, 64
2, 294722, Note_on_c, 0, 72, 92
2, 294725, Note_off_c, 0, 70, 64
2, 294962, Note_on_c, 0, 68, 92
2, 294965, Note_off_c, 0, 72, 64
2, 295202, Note_on_c, 0, 77, 92
2, 295205, Note_off_c, 0, 68, 64
2, 295802, Note_on_c, 0, 80, 92
2, 295805, Note_off_c, 0, 77, 64
2, 295922, Note_on_c, 0, 79, 92
2, 295925, Note_off_c, 0, 80, 64
2, 296042, Note_on_c, 0, 77, 92
2, 296045, Note_off_c, 0, 79, 64
2, 296162, Note_on_c, 0, 75, 92
2, 296165, Note_off_c, 0, 77, 64
2, 296282, Note_on_c, 0, 74, 92
2, 296285, Note_off_c, 0, 75, 64
2, 296402, Note_on_c, 0, 72, 92
2, 296405, Note_off_c, 0, 74, 64
2, 296522, Note_on_c, 0, 70, 92
2, 296525, Note_off_c, 0, 72, 64
2, 296642, Note_on_c, 0, 68, 92
2, 296645, Note_off_c, 0, 70, 64
2, 296762, Note_on_c, 0, 67, 92
2, 296765, Note_off_c, 0, 68, 64
2, 296882, Note_on_c, 0, 68, 92
2, 296885, Note_off_c, 0, 67, 64
2, 297002, Note_on_c, 0, 77, 92
2, 297005, Note_off_c, 0, 68, 64
2, 297122, Note_on_c, 0, 67, 92
2, 297125, Note_off_c, 0, 77, 64
2, 297242, Note_on_c, 0, 77, 92
2, 297245, Note_off_c, 0, 67, 64
2, 297362, Note_on_c, 0, 75, 92
2, 297365, Note_off_c, 0, 77, 64
2, 297482, Note_on_c, 0, 74, 92
2, 297485, Note_off_c, 0, 75, 64
2, 297602, Note_on_c, 0, 72, 92
2, 297605, Note_off_c, 0, 74, 64
2, 297722, Note_on_c, 0, 70, 92
2, 297725, Note_off_c, 0, 72, 64
2, 297842, Note_on_c, 0, 68, 92
2, 297845, Note_off_c, 0, 70, 64
2, 297962, Note_on_c, 0, 67, 92
2, 297965, Note_off_c, 0, 68, 64
2, 298082, Note_on_c, 0, 65, 92
2, 298085, Note_off_c, 0, 67, 64
2, 298682, Note_on_c, 0, 68, 92
2, 298685, Note_off_c, 0, 65, 64
2, 298802, Note_on_c, 0, 67, 92
2, 298805, Note_off_c, 0, 68, 64
2, 298922, Note_on_c, 0, 65, 92
2, 298925, Note_off_c, 0, 67, 64
2, 299042, Note_on_c, 0, 63, 92
2, 299045, Note_off_c, 0, 65, 64
2, 299642, Note_on_c, 0, 62, 92
2, 299645, Note_off_c, 0, 63, 64
2, 299762, Note_on_c, 0, 63, 92
2, 299765, Note_off_c, 0, 62, 64
2, 299882, Note_on_c, 0, 65, 92
2, 299885, Note_off_c, 0, 63, 64
2, 300002, Note_on_c, 0, 59, 92
2, 300005, Note_off_c, 0, 65, 64
2, 300242, Note_on_c, 0, 62, 92
2, 300245, Note_off_c, 0, 59, 64
2, 300482, Note_on_c, 0, 67, 92
2, 300485, Note_off_c, 0, 62, 64
2, 300722, Note_on_c, 0, 71, 92
2, 300725, Note_off_c, 0, 67, 64
2, 300962, Note_on_c, 0, 72, 92
2, 300965, Note_off_c, 0, 71, 64
2, 301202, Note_on_c, 0, 74, 92
2, 301205, Note_off_c, 0, 72, 64
2, 301442, Note_on_c, 0, 75, 92
2, 301445, Note_off_c, 0, 74, 64
2, 301562, Note_on_c, 0, 72, 92
2, 301565, Note_off_c, 0, 75, 64
2, 301682, Note_on_c, 0, 71, 92
2, 301685, Note_off_c, 0, 72, 64
2, 301802, Note_on_c, 0, 72, 92
2, 301805, Note_off_c, 0, 71, 64
2, 301922, Note_on_c, 0, 67, 92
2, 301925, Note_off_c, 0, 72, 64
2, 302042, Note_on_c, 0, 72, 92
2, 302045, Note_off_c, 0, 67, 64
2, 302162, Note_on_c, 0, 71, 92
2, 302165, Note_off_c, 0, 72, 64
2, 302282, Note_on_c, 0, 72, 92
2, 302285, Note_off_c, 0, 71, 64
2, 302402, Note_on_c, 0, 75, 92
2, 302405, Note_off_c, 0, 72, 64
2, 302522, Note_on_c, 0, 72, 92
2, 302525, Note_off_c, 0, 75, 64
2, 302642, Note_on_c, 0, 71, 92
2, 302645, Note_off_c, 0, 72, 64
2, 302762, Note_on_c, 0, 72, 92
2, 302765, Note_off_c, 0, 71, 64
2, 302882, Note_on_c, 0, 68, 92
2, 302885, Note_off_c, 0, 72, 64
2, 303125, Note_off_c, 0, 68, 64
2, 303362, Note_on_c, 0, 75, 92
2, 303605, Note_off_c, 0, 75, 64
2, 303842, Note_on_c, 0, 75, 92
2, 304085, Note_off_c, 0, 75, 64
2, 304442, Note_on_c, 0, 70, 92
2, 304562, Note_on_c, 0, 68, 92
2, 304565, Note_off_c, 0, 70, 64
2, 304682, Note_on_c, 0, 70, 92
2, 304685, Note_off_c, 0, 68, 64
2, 304802, Note_on_c, 0, 65, 92
2, 304805, Note_off_c, 0, 70, 64
2, 304922, Note_on_c, 0, 70, 92
2, 304925, Note_off_c, 0, 65, 64
2, 305042, Note_on_c, 0, 68, 92
2, 305045, Note_off_c, 0, 70, 64
2, 305162, Note_on_c, 0, 70, 92
2, 305165, Note_off_c, 0, 68, 64
2, 305282, Note_on_c, 0, 74, 92
2, 305285, Note_off_c, 0, 70, 64
2, 305402, Note_on_c, 0, 70, 92
2, 305405, Note_off_c, 0, 74, 64
2, 305522, Note_on_c, 0, 68, 92
2, 305525, Note_off_c, 0, 70, 64
2, 305642, Note_on_c, 0, 70, 92
2, 305645, Note_off_c, 0, 68, 64
2, 305762, Note_on_c, 0, 67, 92
2, 305765, Note_off_c, 0, 70, 64
2, 306005, Note_off_c, 0, 67, 64
2, 306242, Note_on_c, 0, 73, 92
2, 306485, Note_off_c, 0, 73, 64
2, 306722, Note_on_c, 0, 73, 92
2, 306965, Note_off_c, 0, 73, 64
2, 307322, Note_on_c, 0, 68, 92
2, 307442, Note_on_c, 0, 67, 92
2, 307445, Note_off_c, 0, 68, 64
2, 307562, Note_on_c, 0, 68, 92
2, 307565, Note_off_c, 0, 67, 64
2, 307682, Note_on_c, 0, 65, 92
2, 307685, Note_off_c, 0, 68, 64
2, 307802, Note_on_c, 0, 68, 92
2, 307805, Note_off_c, 0, 65, 64
2, 307922, Note_on_c, 0, 67, 92
2, 307925, Note_off_c, 0, 68, 64
2, 308042, Note_on_c, 0, 68, 92
2, 308045, Note_off_c, 0, 67, 64
2, 308162, Note_on_c, 0, 72, 92
2, 308165, Note_off_c, 0, 68, 64
2, 308282, Note_on_c, 0, 68, 92
2, 308285, Note_off_c, 0, 72, 64
2, 308402, Note_on_c, 0, 67, 92
2, 308405, Note_off_c, 0, 68, 64
2, 308522, Note_on_c, 0, 68, 92
2, 308525, Note_off_c, 0, 67, 64
2, 308642, Note_on_c, 0, 65, 92
2, 308645, Note_off_c, 0, 68, 64
2, 308762, Note_on_c, 0, 70, 92
2, 308765, Note_off_c, 0, 65, 64
2, 308882, Note_on_c, 0, 68, 92
2, 308885, Note_off_c, 0, 70, 64
2, 309002, Note_on_c, 0, 70, 92
2, 309005, Note_off_c, 0, 68, 64
2, 309122, Note_on_c, 0, 74, 92
2, 309125, Note_off_c, 0, 70, 64
2, 309242, Note_on_c, 0, 70, 92
2, 309245, Note_off_c, 0, 74, 64
2, 309362, Note_on_c, 0, 68, 92
2, 309365, Note_off_c, 0, 70, 64
2, 309482, Note_on_c, 0, 70, 92
2, 309485, Note_off_c, 0, 68, 64
2, 309602, Note_on_c, 0, 77, 92
2, 309605, Note_off_c, 0, 70, 64
2, 309722, Note_on_c, 0, 74, 92
2, 309725, Note_off_c, 0, 77, 64
2, 309842, Note_on_c, 0, 72, 92
2, 309845, Note_off_c, 0, 74, 64
2, 309962, Note_on_c, 0, 74, 92
2, 309965, Note_off_c, 0, 72, 64
2, 310082, Note_on_c, 0, 82, 92
2, 310085, Note_off_c, 0, 74, 64
2, 310322, Note_on_c, 0, 79, 92
2, 310325, Note_off_c, 0, 82, 64
2, 310562, Note_on_c, 0, 75, 92
2, 310565, Note_off_c, 0, 79, 64
2, 311642, Note_on_c, 0, 74, 92
2, 311645, Note_off_c, 0, 75, 64
2, 311762, Note_on_c, 0, 72, 92
2, 311765, Note_off_c, 0, 74, 64
2, 311882, Note_on_c, 0, 70, 92
2, 311885, Note_off_c, 0, 72, 64
2, 312002, Note_on_c, 0, 69, 92
2, 312005, Note_off_c, 0, 70, 64
2, 312122, Note_on_c, 0, 70, 92
2, 312125, Note_off_c, 0, 69, 64
2, 312242, Note_on_c, 0, 69, 92
2, 312245, Note_off_c, 0, 70, 64
2, 312362, Note_on_c, 0, 67, 92
2, 312365, Note_off_c, 0, 69, 64
2, 312482, Note_on_c, 0, 65, 92
2, 312485, Note_off_c, 0, 67, 64
2, 312602, Note_on_c, 0, 75, 92
2, 312605, Note_off_c, 0, 65, 64
2, 312722, Note_on_c, 0, 74, 92
2, 312725, Note_off_c, 0, 75, 64
2, 312842, Note_on_c, 0, 72, 92
2, 312845, Note_off_c, 0, 74, 64
2, 312962, Note_on_c, 0, 70, 92
2, 312965, Note_off_c, 0, 72, 64
2, 314522, Note_on_c, 0, 69, 92
2, 314525, Note_off_c, 0, 70, 64
2, 314642, Note_on_c, 0, 70, 92
2, 314645, Note_off_c, 0, 69, 64
2, 314762, Note_on_c, 0, 75, 92
2, 314765, Note_off_c, 0, 70, 64
2, 314882, Note_on_c, 0, 70, 92
2, 314885, Note_off_c, 0, 75, 64
2, 315002, Note_on_c, 0, 69, 92
2, 315005, Note_off_c, 0, 70, 64
2, 315122, Note_on_c, 0, 70, 92
2, 315125, Note_off_c, 0, 69, 64
2, 315242, Note_on_c, 0, 74, 92
2, 315245, Note_off_c, 0, 70, 64
2, 315362, Note_on_c, 0, 72, 92
2, 315365, Note_off_c, 0, 74, 64
2, 315962, Note_on_c, 0, 79, 92
2, 315965, Note_off_c, 0, 72, 64
2, 316082, Note_on_c, 0, 77, 92
2, 316085, Note_off_c, 0, 79, 64
2, 316202, Note_on_c, 0, 75, 92
2, 316205, Note_off_c, 0, 77, 64
2, 316322, Note_on_c, 0, 74, 92
2, 316325, Note_off_c, 0, 75, 64
2, 316442, Note_on_c, 0, 82, 92
2, 316445, Note_off_c, 0, 74, 64
2, 316562, Note_on_c, 0, 81, 92
2, 316565, Note_off_c, 0, 82, 64
2, 316682, Note_on_c, 0, 79, 92
2, 316685, Note_off_c, 0, 81, 64
2, 316802, Note_on_c, 0, 77, 92
2, 316805, Note_off_c, 0, 79, 64
2, 316922, Note_on_c, 0, 75, 92
2, 316925, Note_off_c, 0, 77, 64
2, 317042, Note_on_c, 0, 74, 92
2, 317045, Note_off_c, 0, 75, 64
2, 317162, Note_on_c, 0, 72, 92
2, 317165, Note_off_c, 0, 74, 64
2, 317282, Note_on_c, 0, 70, 92
2, 317285, Note_off_c, 0, 72, 64
2, 317522, Note_on_c, 0, 77, 92
2, 317525, Note_off_c, 0, 70, 64
2, 317762, Note_on_c, 0, 79, 92
2, 317765, Note_off_c, 0, 77, 64
2, 318002, Note_on_c, 0, 77, 92
2, 318005, Note_off_c, 0, 79, 64
2, 318242, Note_on_c, 0, 79, 92
2, 318245, Note_off_c, 0, 77, 64
2, 318482, Note_on_c, 0, 75, 92
2, 318485, Note_off_c, 0, 79, 64
2, 318722, Note_on_c, 0, 77, 92
2, 318725, Note_off_c, 0, 75, 64
2, 318842, Note_on_c, 0, 82, 92
2, 318845, Note_off_c, 0, 77, 64
2, 318962, Note_on_c, 0, 81, 92
2, 318965, Note_off_c, 0, 82, 64
2, 319082, Note_on_c, 0, 82, 92
2, 319085, Note_off_c, 0, 81, 64
2, 319202, Note_on_c, 0, 75, 92
2, 319205, Note_off_c, 0, 82, 64
2, 319322, Note_on_c, 0, 82, 92
2, 319325, Note_off_c, 0, 75, 64
2, 319442, Note_on_c, 0, 74, 92
2, 319445, Note_off_c, 0, 82, 64
2, 319562, Note_on_c, 0, 82, 92
2, 319565, Note_off_c, 0, 74, 64
2, 319682, Note_on_c, 0, 75, 92
2, 319685, Note_off_c, 0, 82, 64
2, 319802, Note_on_c, 0, 82, 92
2, 319805, Note_off_c, 0, 75, 64
2, 319922, Note_on_c, 0, 72, 92
2, 319925, Note_off_c, 0, 82, 64
2, 320042, Note_on_c, 0, 82, 92
2, 320045, Note_off_c, 0, 72, 64
2, 320162, Note_on_c, 0, 74, 92
2, 320165, Note_off_c, 0, 82, 64
2, 320762, Note_on_c, 0, 70, 92
2, 320765, Note_off_c, 0, 74, 64
2, 320882, Note_on_c, 0, 72, 92
2, 320885, Note_off_c, 0, 70, 64
2, 321002, Note_on_c, 0, 74, 92
2, 321005, Note_off_c, 0, 72, 64
2, 321122, Note_on_c, 0, 75, 92
2, 321125, Note_off_c, 0, 74, 64
2, 321242, Note_on_c, 0, 77, 92
2, 321245, Note_off_c, 0, 75, 64
2, 321362, Note_on_c, 0, 79, 92
2, 321365, Note_off_c, 0, 77, 64
2, 321482, Note_on_c, 0, 81, 92
2, 321485, Note_off_c, 0, 79, 64
2, 321602, Note_on_c, 0, 82, 92
2, 321605, Note_off_c, 0, 81, 64
2, 321842, Note_on_c, 0, 70, 92
2, 321845, Note_off_c, 0, 82, 64
2, 322082, Note_on_c, 0, 72, 92
2, 322085, Note_off_c, 0, 70, 64
2, 322325, Note_off_c, 0, 72, 64
2, 322562, Note_on_c, 0, 69, 92
2, 322622, Note_on_c, 0, 70, 92
2, 322625, Note_off_c, 0, 69, 64
2, 322682, Note_on_c, 0, 69, 92
2, 322685, Note_off_c, 0, 70, 64
2, 323042, Note_on_c, 0, 70, 92
2, 323045, Note_off_c, 0, 69, 64
2, 324482, Note_on_c, 0, 63, 92
2, 324485, Note_off_c, 0, 70, 64
2, 324722, Note_on_c, 0, 75, 92
2, 324725, Note_off_c, 0, 63, 64
2, 324962, Note_on_c, 0, 65, 92
2, 324965, Note_off_c, 0, 75, 64
2, 325202, Note_on_c, 0, 75, 92
2, 325205, Note_off_c, 0, 65, 64
2, 325442, Note_on_c, 0, 67, 92
2, 325445, Note_off_c, 0, 75, 64
2, 325682, Note_on_c, 0, 75, 92
2, 325685, Note_off_c, 0, 67, 64
2, 325922, Note_on_c, 0, 68, 92
2, 325925, Note_off_c, 0, 75, 64
2, 326162, Note_on_c, 0, 75, 92
2, 326165, Note_off_c, 0, 68, 64
2, 326402, Note_on_c, 0, 70, 92
2, 326405, Note_off_c, 0, 75, 64
2, 326642, Note_on_c, 0, 75, 92
2, 326645, Note_off_c, 0, 70, 64
2, 326882, Note_on_c, 0, 72, 92
2, 326885, Note_off_c, 0, 75, 64
2, 327122, Note_on_c, 0, 75, 92
2, 327125, Note_off_c, 0, 72, 64
2, 327362, Note_on_c, 0, 70, 92
2, 327365, Note_off_c, 0, 75, 64
2, 327482, Note_on_c, 0, 75, 92
2, 327485, Note_off_c, 0, 70, 64
2, 327602, Note_on_c, 0, 74, 92
2, 327605, Note_off_c, 0, 75, 64
2, 327722, Note_on_c, 0, 72, 92
2, 327725, Note_off_c, 0, 74, 64
2, 327842, Note_on_c, 0, 70, 92
2, 327845, Note_off_c, 0, 72, 64
2, 327962, Note_on_c, 0, 79, 92
2, 327965, Note_off_c, 0, 70, 64
2, 328082, Note_on_c, 0, 77, 92
2, 328085, Note_off_c, 0, 79, 64
2, 328202, Note_on_c, 0, 75, 92
2, 328205, Note_off_c, 0, 77, 64
2, 328322, Note_on_c, 0, 74, 92
2, 328325, Note_off_c, 0, 75, 64
2, 328442, Note_on_c, 0, 72, 92
2, 328445, Note_off_c, 0, 74, 64
2, 328562, Note_on_c, 0, 70, 92
2, 328565, Note_off_c, 0, 72, 64
2, 328682, Note_on_c, 0, 68, 92
2, 328685, Note_off_c, 0, 70, 64
2, 328802, Note_on_c, 0, 67, 92
2, 328805, Note_off_c, 0, 68, 64
2, 328922, Note_on_c, 0, 68, 92
2, 328925, Note_off_c, 0, 67, 64
2, 329042, Note_on_c, 0, 70, 92
2, 329045, Note_off_c, 0, 68, 64
2, 329162, Note_on_c, 0, 67, 92
2, 329165, Note_off_c, 0, 70, 64
2, 329282, Note_on_c, 0, 63, 92
2, 329285, Note_off_c, 0, 67, 64
2, 329402, Note_on_c, 0, 67, 92
2, 329405, Note_off_c, 0, 63, 64
2, 329522, Note_on_c, 0, 70, 92
2, 329525, Note_off_c, 0, 67, 64
2, 329642, Note_on_c, 0, 75, 92
2, 329645, Note_off_c, 0, 70, 64
2, 329762, Note_on_c, 0, 65, 92
2, 329765, Note_off_c, 0, 75, 64
2, 329882, Note_on_c, 0, 69, 92
2, 329885, Note_off_c, 0, 65, 64
2, 330002, Note_on_c, 0, 72, 92
2, 330005, Note_off_c, 0, 69, 64
2, 330122, Note_on_c, 0, 75, 92
2, 330125, Note_off_c, 0, 72, 64
2, 330242, Note_on_c, 0, 74, 92
2, 330245, Note_off_c, 0, 75, 64
2, 330362, Note_on_c, 0, 72, 92
2, 330365, Note_off_c, 0, 74, 64
2, 330482, Note_on_c, 0, 74, 92
2, 330485, Note_off_c, 0, 72, 64
2, 330602, Note_on_c, 0, 77, 92
2, 330605, Note_off_c, 0, 74, 64
2, 330722, Note_on_c, 0, 75, 92
2, 330725, Note_off_c, 0, 77, 64
2, 330842, Note_on_c, 0, 74, 92
2, 330845, Note_off_c, 0, 75, 64
2, 330962, Note_on_c, 0, 75, 92
2, 330965, Note_off_c, 0, 74, 64
2, 331082, Note_on_c, 0, 79, 92
2, 331085, Note_off_c, 0, 75, 64
2, 331202, Note_on_c, 0, 77, 92
2, 331205, Note_off_c, 0, 79, 64
2, 331322, Note_on_c, 0, 75, 92
2, 331325, Note_off_c, 0, 77, 64
2, 331442, Note_on_c, 0, 77, 92
2, 331445, Note_off_c, 0, 75, 64
2, 331562, Note_on_c, 0, 80, 92
2, 331565, Note_off_c, 0, 77, 64
2, 331682, Note_on_c, 0, 79, 92
2, 331685, Note_off_c, 0, 80, 64
2, 331802, Note_on_c, 0, 77, 92
2, 331805, Note_off_c, 0, 79, 64
2, 331922, Note_on_c, 0, 79, 92
2, 331925, Note_off_c, 0, 77, 64
2, 332042, Note_on_c, 0, 82, 92
2, 332045, Note_off_c, 0, 79, 64
2, 332162, Note_on_c, 0, 74, 92
2, 332165, Note_off_c, 0, 82, 64
2, 332282, Note_on_c, 0, 72, 92
2, 332285, Note_off_c, 0, 74, 64
2, 332402, Note_on_c, 0, 74, 92
2, 332405, Note_off_c, 0, 72, 64
2, 332522, Note_on_c, 0, 82, 92
2, 332525, Note_off_c, 0, 74, 64
2, 332642, Note_on_c, 0, 75, 92
2, 332645, Note_off_c, 0, 82, 64
2, 332762, Note_on_c, 0, 74, 92
2, 332765, Note_off_c, 0, 75, 64
2, 332882, Note_on_c, 0, 75, 92
2, 332885, Note_off_c, 0, 74, 64
2, 333002, Note_on_c, 0, 82, 92
2, 333005, Note_off_c, 0, 75, 64
2, 333122, Note_on_c, 0, 74, 92
2, 333125, Note_off_c, 0, 82, 64
2, 333362, Note_on_c, 0, 77, 92
2, 333365, Note_off_c, 0, 74, 64
2, 333602, Note_on_c, 0, 82, 92
2, 333605, Note_off_c, 0, 77, 64
2, 333842, Note_on_c, 0, 74, 92
2, 333845, Note_off_c, 0, 82, 64
2, 334082, Note_on_c, 0, 72, 92
2, 334085, Note_off_c, 0, 74, 64
2, 334322, Note_on_c, 0, 81, 92
2, 334325, Note_off_c, 0, 72, 64
2, 334562, Note_on_c, 0, 82, 92
2, 334565, Note_off_c, 0, 81, 64
2, 334802, Note_on_c, 0, 74, 92
2, 334805, Note_off_c, 0, 82, 64
2, 335042, Note_on_c, 0, 77, 92
2, 335045, Note_off_c, 0, 74, 64
2, 335282, Note_on_c, 0, 74, 92
2, 335285, Note_off_c, 0, 77, 64
2, 335522, Note_on_c, 0, 70, 92
2, 335525, Note_off_c, 0, 74, 64
2, 335762, Note_on_c, 0, 74, 92
2, 335765, Note_off_c, 0, 70, 64
2, 336002, Note_on_c, 0, 75, 92
2, 336005, Note_off_c, 0, 74, 64
2, 336245, Note_off_c, 0, 75, 64
2, 336482, Note_on_c, 0, 75, 92
2, 336725, Note_off_c, 0, 75, 64
2, 336962, Note_on_c, 0, 75, 92
2, 337205, Note_off_c, 0, 75, 64
2, 337442, Note_on_c, 0, 75, 92
2, 337685, Note_off_c, 0, 75, 64
2, 337922, Note_on_c, 0, 75, 92
2, 338165, Note_off_c, 0, 75, 64
2, 338402, Note_on_c, 0, 75, 92
2, 338645, Note_off_c, 0, 75, 64
2, 339002, Note_on_c, 0, 75, 92
2, 339122, Note_on_c, 0, 77, 92
2, 339125, Note_off_c, 0, 75, 64
2, 339242, Note_on_c, 0, 79, 92
2, 339245, Note_off_c, 0, 77, 64
2, 339362, Note_on_c, 0, 80, 92
2, 339365, Note_off_c, 0, 79, 64
2, 339482, Note_on_c, 0, 82, 92
2, 339485, Note_off_c, 0, 80, 64
2, 339602, Note_on_c, 0, 84, 92
2, 339605, Note_off_c, 0, 82, 64
2, 339722, Note_on_c, 0, 82, 92
2, 339725, Note_off_c, 0, 84, 64
2, 339842, Note_on_c, 0, 80, 92
2, 339845, Note_off_c, 0, 82, 64
2, 339962, Note_on_c, 0, 79, 92
2, 339965, Note_off_c, 0, 80, 64
2, 340082, Note_on_c, 0, 77, 92
2, 340085, Note_off_c, 0, 79, 64
2, 340202, Note_on_c, 0, 80, 92
2, 340205, Note_off_c, 0, 77, 64
2, 340322, Note_on_c, 0, 79, 92
2, 340325, Note_off_c, 0, 80, 64
2, 340562, Note_on_c, 0, 70, 92
2, 340565, Note_off_c, 0, 79, 64
2, 340802, Note_on_c, 0, 72, 92
2, 340805, Note_off_c, 0, 70, 64
2, 341042, Note_on_c, 0, 68, 92
2, 341045, Note_off_c, 0, 72, 64
2, 341282, Note_on_c, 0, 77, 92
2, 341285, Note_off_c, 0, 68, 64
2, 341882, Note_on_c, 0, 80, 92
2, 341885, Note_off_c, 0, 77, 64
2, 342002, Note_on_c, 0, 79, 92
2, 342005, Note_off_c, 0, 80, 64
2, 342122, Note_on_c, 0, 77, 92
2, 342125, Note_off_c, 0, 79, 64
2, 342242, Note_on_c, 0, 75, 92
2, 342245, Note_off_c, 0, 77, 64
2, 342362, Note_on_c, 0, 74, 92
2, 342365, Note_off_c, 0, 75, 64
2, 342482, Note_on_c, 0, 72, 92
2, 342485, Note_off_c, 0, 74, 64
2, 342602, Note_on_c, 0, 70, 92
2, 342605, Note_off_c, 0, 72, 64
2, 342722, Note_on_c, 0, 68, 92
2, 342725, Note_off_c, 0, 70, 64
2, 342842, Note_on_c, 0, 67, 92
2, 342845, Note_off_c, 0, 68, 64
2, 342962, Note_on_c, 0, 68, 92
2, 342965, Note_off_c, 0, 67, 64
2, 343082, Note_on_c, 0, 77, 92
2, 343085, Note_off_c, 0, 68, 64
2, 343202, Note_on_c, 0, 67, 92
2, 343205, Note_off_c, 0, 77, 64
2, 343322, Note_on_c, 0, 77, 92
2, 343325, Note_off_c, 0, 67, 64
2, 343442, Note_on_c, 0, 75, 92
2, 343445, Note_off_c, 0, 77, 64
2, 343562, Note_on_c, 0, 74, 92
2, 343565, Note_off_c, 0, 75, 64
2, 343682, Note_on_c, 0, 72, 92
2, 343685, Note_off_c, 0, 74, 64
2, 343802, Note_on_c, 0, 70, 92
2, 343805, Note_off_c, 0, 72, 64
2, 343922, Note_on_c, 0, 68, 92
2, 343925, Note_off_c, 0, 70, 64
2, 344042, Note_on_c, 0, 67, 92
2, 344045, Note_off_c, 0, 68, 64
2, 344162, Note_on_c, 0, 65, 92
2, 344165, Note_off_c, 0, 67, 64
2, 344762, Note_on_c, 0, 68, 92
2, 344765, Note_off_c, 0, 65, 64
2, 344882, Note_on_c, 0, 67, 92
2, 344885, Note_off_c, 0, 68, 64
2, 345002, Note_on_c, 0, 65, 92
2, 345005, Note_off_c, 0, 67, 64
2, 345122, Note_on_c, 0, 63, 92
2, 345125, Note_off_c, 0, 65, 64
2, 345722, Note_on_c, 0, 62, 92
2, 345725, Note_off_c, 0, 63, 64
2, 345842, Note_on_c, 0, 63, 92
2, 345845, Note_off_c, 0, 62, 64
2, 345962, Note_on_c, 0, 65, 92
2, 345965, Note_off_c, 0, 63, 64
2, 346082, Note_on_c, 0, 59, 92
2, 346085, Note_off_c, 0, 65, 64
2, 346322, Note_on_c, 0, 62, 92
2, 346325, Note_off_c, 0, 59, 64
2, 346562, Note_on_c, 0, 67, 92
2, 346565, Note_off_c, 0, 62, 64
2, 346802, Note_on_c, 0, 71, 92
2, 346805, Note_off_c, 0, 67, 64
2, 347042, Note_on_c, 0, 72, 92
2, 347045, Note_off_c, 0, 71, 64
2, 347282, Note_on_c, 0, 74, 92
2, 347285, Note_off_c, 0, 72, 64
2, 347522, Note_on_c, 0, 75, 92
2, 347525, Note_off_c, 0, 74, 64
2, 347642, Note_on_c, 0, 72, 92
2, 347645, Note_off_c, 0, 75, 64
2, 347762, Note_on_c, 0, 71, 92
2, 347765, Note_off_c, 0, 72, 64
2, 347882, Note_on_c, 0, 72, 92
2, 347885, Note_off_c, 0, 71, 64
2, 348002, Note_on_c, 0, 67, 92
2, 348005, Note_off_c, 0, 72, 64
2, 348122, Note_on_c, 0, 72, 92
2, 348125, Note_off_c, 0, 67, 64
2, 348242, Note_on_c, 0, 71, 92
2, 348245, Note_off_c, 0, 72, 64
2, 348362, Note_on_c, 0, 72, 92
2, 348365, Note_off_c, 0, 71, 64
2, 348482, Note_on_c, 0, 75, 92
2, 348485, Note_off_c, 0, 72, 64
2, 348602, Note_on_c, 0, 72, 92
2, 348605, Note_off_c, 0, 75, 64
2, 348722, Note_on_c, 0, 71, 92
2, 348725, Note_off_c, 0, 72, 64
2, 348842, Note_on_c, 0, 72, 92
2, 348845, Note_off_c, 0, 71, 64
2, 348962, Note_on_c, 0, 68, 92
2, 348965, Note_off_c, 0, 72, 64
2, 349205, Note_off_c, 0, 68, 64
2, 349442, Note_on_c, 0, 75, 92
2, 349685, Note_off_c, 0, 75, 64
2, 349922, Note_on_c, 0, 75, 92
2, 350165, Note_off_c, 0, 75, 64
2, 350522, Note_on_c, 0, 70, 92
2, 350642, Note_on_c, 0, 68, 92
2, 350645, Note_off_c, 0, 70, 64
2, 350762, Note_on_c, 0, 70, 92
2, 350765, Note_off_c, 0, 68, 64
2, 350882, Note_on_c, 0, 65, 92
2, 350885, Note_off_c, 0, 70, 64
2, 351002, Note_on_c, 0, 70, 92
2, 351005, Note_off_c, 0, 65, 64
2, 351122, Note_on_c, 0, 68, 92
2, 351125, Note_off_c, 0, 70, 64
2, 351242, Note_on_c, 0, 70, 92
2, 351245, Note_off_c, 0, 68, 64
2, 351362, Note_on_c, 0, 74, 92
2, 351365, Note_off_c, 0, 70, 64
2, 351482, Note_on_c, 0, 70, 92
2, 351485, Note_off_c, 0, 74, 64
2, 351602, Note_on_c, 0, 68, 92
2, 351605, Note_off_c, 0, 70, 64
2, 351722, Note_on_c, 0, 70, 92
2, 351725, Note_off_c, 0, 68, 64
2, 351842, Note_on_c, 0, 67, 92
2, 351845, Note_off_c, 0, 70, 64
2, 352085, Note_off_c, 0, 67, 64
2, 352322, Note_on_c, 0, 73, 92
2, 352565, Note_off_c, 0, 73, 64
2, 352802, Note_on_c, 0, 73, 92
2, 353045, Note_off_c, 0, 73, 64
2, 353402, Note_on_c, 0, 68, 92
2, 353522, Note_on_c, 0, 67, 92
2, 353525, Note_off_c, 0, 68, 64
2, 353642, Note_on_c, 0, 68, 92
2, 353645, Note_off_c, 0, 67, 64
2, 353762, Note_on_c, 0, 65, 92
2, 353765, Note_off_c, 0, 68, 64
2, 353882, Note_on_c, 0, 68, 92
2, 353885, Note_off_c, 0, 65, 64
2, 354002, Note_on_c, 0, 67, 92
2, 354005, Note_off_c, 0, 68, 64
2, 354122, Note_on_c, 0, 68, 92
2, 354125, Note_off_c, 0, 67, 64
2, 354242, Note_on_c, 0, 72, 92
2, 354245, Note_off_c, 0, 68, 64
2, 354362, Note_on_c, 0, 68, 92
2, 354365, Note_off_c, 0, 72, 64
2, 354482, Note_on_c, 0, 67, 92
2, 354485, Note_off_c, 0, 68, 64
2, 354602, Note_on_c, 0, 68, 92
2, 354605, Note_off_c, 0, 67, 64
2, 354722, Note_on_c, 0, 65, 92
2, 354725, Note_off_c, 0, 68, 64
2, 354842, Note_on_c, 0, 70, 92
2, 354845, Note_off_c, 0, 65, 64
2, 354962, Note_on_c, 0, 68, 92
2, 354965, Note_off_c, 0, 70, 64
2, 355082, Note_on_c, 0, 70, 92
2, 355085, Note_off_c, 0, 68, 64
2, 355202, Note_on_c, 0, 74, 92
2, 355205, Note_off_c, 0, 70, 64
2, 355322, Note_on_c, 0, 70, 92
2, 355325, Note_off_c, 0, 74, 64
2, 355442, Note_on_c, 0, 68, 92
2, 355445, Note_off_c, 0, 70, 64
2, 355562, Note_on_c, 0, 70, 92
2, 355565, Note_off_c, 0, 68, 64
2, 355682, Note_on_c, 0, 77, 92
2, 355685, Note_off_c, 0, 70, 64
2, 355802, Note_on_c, 0, 74, 92
2, 355805, Note_off_c, 0, 77, 64
2, 355922, Note_on_c, 0, 72, 92
2, 355925, Note_off_c, 0, 74, 64
2, 356042, Note_on_c, 0, 74, 92
2, 356045, Note_off_c, 0, 72, 64
2, 356162, Note_on_c, 0, 82, 92
2, 356165, Note_off_c, 0, 74, 64
2, 356402, Note_on_c, 0, 79, 92
2, 356405, Note_off_c, 0, 82, 64
2, 356642, Note_on_c, 0, 75, 92
2, 356645, Note_off_c, 0, 79, 64
2, 357722, Note_on_c, 0, 74, 92
2, 357725, Note_off_c, 0, 75, 64
2, 357842, Note_on_c, 0, 72, 92
2, 357845, Note_off_c, 0, 74, 64
2, 357962, Note_on_c, 0, 70, 92
2, 357965, Note_off_c, 0, 72, 64
2, 358082, Note_on_c, 0, 69, 92
2, 358085, Note_off_c, 0, 70, 64
2, 358202, Note_on_c, 0, 70, 92
2, 358205, Note_off_c, 0, 69, 64
2, 358322, Note_on_c, 0, 69, 92
2, 358325, Note_off_c, 0, 70, 64
2, 358442, Note_on_c, 0, 67, 92
2, 358445, Note_off_c, 0, 69, 64
2, 358562, Note_on_c, 0, 65, 92
2, 358565, Note_off_c, 0, 67, 64
2, 358682, Note_on_c, 0, 75, 92
2, 358685, Note_off_c, 0, 65, 64
2, 358802, Note_on_c, 0, 74, 92
2, 358805, Note_off_c, 0, 75, 64
2, 358922, Note_on_c, 0, 72, 92
2, 358925, Note_off_c, 0, 74, 64
2, 359042, Note_on_c, 0, 70, 92
2, 359045, Note_off_c, 0, 72, 64
2, 360602, Note_on_c, 0, 69, 92
2, 360605, Note_off_c, 0, 70, 64
2, 360722, Note_on_c, 0, 70, 92
2, 360725, Note_off_c, 0, 69, 64
2, 360842, Note_on_c, 0, 75, 92
2, 360845, Note_off_c, 0, 70, 64
2, 360962, Note_on_c, 0, 70, 92
2, 360965, Note_off_c, 0, 75, 64
2, 361082, Note_on_c, 0, 69, 92
2, 361085, Note_off_c, 0, 70, 64
2, 361202, Note_on_c, 0, 70, 92
2, 361205, Note_off_c, 0, 69, 64
2, 361322, Note_on_c, 0, 74, 92
2, 361325, Note_off_c, 0, 70, 64
2, 361442, Note_on_c, 0, 72, 92
2, 361445, Note_off_c, 0, 74, 64
2, 362042, Note_on_c, 0, 79, 92
2, 362045, Note_off_c, 0, 72, 64
2, 362162, Note_on_c, 0, 77, 92
2, 362165, Note_off_c, 0, 79, 64
2, 362282, Note_on_c, 0, 75, 92
2, 362285, Note_off_c, 0, 77, 64
2, 362402, Note_on_c, 0, 74, 92
2, 362405, Note_off_c, 0, 75, 64
2, 362522, Note_on_c, 0, 82, 92
2, 362525, Note_off_c, 0, 74, 64
2, 362642, Note_on_c, 0, 81, 92
2, 362645, Note_off_c, 0, 82, 64
2, 362762, Note_on_c, 0, 79, 92
2, 362765, Note_off_c, 0, 81, 64
2, 362882, Note_on_c, 0, 77, 92
2, 362885, Note_off_c, 0, 79, 64
2, 363002, Note_on_c, 0, 75, 92
2, 363005, Note_off_c, 0, 77, 64
2, 363122, Note_on_c, 0, 74, 92
2, 363125, Note_off_c, 0, 75, 64
2, 363242, Note_on_c, 0, 72, 92
2, 363245, Note_off_c, 0, 74, 64
2, 363362, Note_on_c, 0, 70, 92
2, 363365, Note_off_c, 0, 72, 64
2, 363602, Note_on_c, 0, 77, 92
2, 363605, Note_off_c, 0, 70, 64
2, 363842, Note_on_c, 0, 79, 92
2, 363845, Note_off_c, 0, 77, 64
2, 364082, Note_on_c, 0, 77, 92
2, 364085, Note_off_c, 0, 79, 64
2, 364322, Note_on_c, 0, 79, 92
2, 364325, Note_off_c, 0, 77, 64
2, 364562, Note_on_c, 0, 75, 92
2, 364565, Note_off_c, 0, 79, 64
2, 364802, Note_on_c, 0, 77, 92
2, 364805, Note_off_c, 0, 75, 64
2, 364922, Note_on_c, 0, 82, 92
2, 364925, Note_off_c, 0, 77, 64
2, 365042, Note_on_c, 0, 81, 92
2, 365045, Note_off_c, 0, 82, 64
2, 365162, Note_on_c, 0, 82, 92
2, 365165, Note_off_c, 0, 81, 64
2, 365282, Note_on_c, 0, 75, 92
2, 365285, Note_off_c, 0, 82, 64
2, 365402, Note_on_c, 0, 82, 92
2, 365405, Note_off_c, 0, 75, 64
2, 365522, Note_on_c, 0, 74, 92
2, 365525, Note_off_c, 0, 82, 64
2, 365642, Note_on_c, 0, 82, 92
2, 365645, Note_off_c, 0, 74, 64
2, 365762, Note_on_c, 0, 75, 92
2, 365765, Note_off_c, 0, 82, 64
2, 365882, Note_on_c, 0, 82, 92
2, 365885, Note_off_c, 0, 75, 64
2, 366002, Note_on_c, 0, 72, 92
2, 366005, Note_off_c, 0, 82, 64
2, 366122, Note_on_c, 0, 82, 92
2, 366125, Note_off_c, 0, 72, 64
2, 366242, Note_on_c, 0, 74, 92
2, 366245, Note_off_c, 0, 82, 64
2, 366842, Note_on_c, 0, 70, 92
2, 366845, Note_off_c, 0, 74, 64
2, 366962, Note_on_c, 0, 72, 92
2, 366965, Note_off_c, 0, 70, 64
2, 367082, Note_on_c, 0, 74, 92
2, 367085, Note_off_c, 0, 72, 64
2, 367202, Note_on_c, 0, 75, 92
2, 367205, Note_off_c, 0, 74, 64
2, 367322, Note_on_c, 0, 77, 92
2, 367325, Note_off_c, 0, 75, 64
2, 367442, Note_on_c, 0, 79, 92
2, 367445, Note_off_c, 0, 77, 64
2, 367562, Note_on_c, 0, 81, 92
2, 367565, Note_off_c, 0, 79, 64
2, 367682, Note_on_c, 0, 82, 92
2, 367685, Note_off_c, 0, 81, 64
2, 367922, Note_on_c, 0, 70, 92
2, 367925, Note_off_c, 0, 82, 64
2, 368162, Note_on_c, 0, 72, 92
2, 368165, Note_off_c, 0, 70, 64
2, 368405, Note_off_c, 0, 72, 64
2, 368642, Note_on_c, 0, 69, 92
2, 368702, Note_on_c, 0, 70, 92
2, 368705, Note_off_c, 0, 69, 64
2, 368762, Note_on_c, 0, 69, 92
2, 368765, Note_off_c, 0, 70, 64
2, 369122, Note_on_c, 0, 70, 92
2, 369125, Note_off_c, 0, 69, 64
2, 370565, Note_off_c, 0, 70, 64
2, 376322, Note_on_c, 0, 82, 92
2, 376562, Note_on_c, 0, 70, 92
2, 376565, Note_off_c, 0, 82, 64
2, 376802, Note_on_c, 0, 80, 92
2, 376805, Note_off_c, 0, 70, 64
2, 377042, Note_on_c, 0, 70, 92
2, 377045, Note_off_c, 0, 80, 64
2, 377282, Note_on_c, 0, 79, 92
2, 377285, Note_off_c, 0, 70, 64
2, 377522, Note_on_c, 0, 70, 92
2, 377525, Note_off_c, 0, 79, 64
2, 377762, Note_on_c, 0, 77, 92
2, 377765, Note_off_c, 0, 70, 64
2, 378002, Note_on_c, 0, 70, 92
2, 378005, Note_off_c, 0, 77, 64
2, 378242, Note_on_c, 0, 75, 92
2, 378245, Note_off_c, 0, 70, 64
2, 378482, Note_on_c, 0, 70, 92
2, 378485, Note_off_c, 0, 75, 64
2, 378722, Note_on_c, 0, 74, 92
2, 378725, Note_off_c, 0, 70, 64
2, 378962, Note_on_c, 0, 70, 92
2, 378965, Note_off_c, 0, 74, 64
2, 379202, Note_on_c, 0, 75, 92
2, 379205, Note_off_c, 0, 70, 64
2, 379322, Note_on_c, 0, 70, 92
2, 379325, Note_off_c, 0, 75, 64
2, 379442, Note_on_c, 0, 72, 92
2, 379445, Note_off_c, 0, 70, 64
2, 379562, Note_on_c, 0, 74, 92
2, 379565, Note_off_c, 0, 72, 64
2, 379682, Note_on_c, 0, 75, 92
2, 379685, Note_off_c, 0, 74, 64
2, 379802, Note_on_c, 0, 67, 92
2, 379805, Note_off_c, 0, 75, 64
2, 379922, Note_on_c, 0, 68, 92
2, 379925, Note_off_c, 0, 67, 64
2, 380042, Note_on_c, 0, 70, 92
2, 380045, Note_off_c, 0, 68, 64
2, 380162, Note_on_c, 0, 72, 92
2, 380165, Note_off_c, 0, 70, 64
2, 380282, Note_on_c, 0, 74, 92
2, 380285, Note_off_c, 0, 72, 64
2, 380402, Note_on_c, 0, 75, 92
2, 380405, Note_off_c, 0, 74, 64
2, 380522, Note_on_c, 0, 77, 92
2, 380525, Note_off_c, 0, 75, 64
2, 380642, Note_on_c, 0, 79, 92
2, 380645, Note_off_c, 0, 77, 64
2, 380762, Note_on_c, 0, 77, 92
2, 380765, Note_off_c, 0, 79, 64
2, 380882, Note_on_c, 0, 75, 92
2, 380885, Note_off_c, 0, 77, 64
2, 381002, Note_on_c, 0, 79, 92
2, 381005, Note_off_c, 0, 75, 64
2, 381122, Note_on_c, 0, 82, 92
2, 381125, Note_off_c, 0, 79, 64
2, 381242, Note_on_c, 0, 79, 92
2, 381245, Note_off_c, 0, 82, 64
2, 381362, Note_on_c, 0, 75, 92
2, 381365, Note_off_c, 0, 79, 64
2, 381482, Note_on_c, 0, 70, 92
2, 381485, Note_off_c, 0, 75, 64
2, 381602, Note_on_c, 0, 79, 92
2, 381605, Note_off_c, 0, 70, 64
2, 381722, Note_on_c, 0, 75, 92
2, 381725, Note_off_c, 0, 79, 64
2, 381842, Note_on_c, 0, 73, 92
2, 381845, Note_off_c, 0, 75, 64
2, 381962, Note_on_c, 0, 70, 92
2, 381965, Note_off_c, 0, 73, 64
2, 382082, Note_on_c, 0, 72, 92
2, 382085, Note_off_c, 0, 70, 64
2, 382202, Note_on_c, 0, 73, 92
2, 382205, Note_off_c, 0, 72, 64
2, 382322, Note_on_c, 0, 72, 92
2, 382325, Note_off_c, 0, 73, 64
2, 382442, Note_on_c, 0, 68, 92
2, 382445, Note_off_c, 0, 72, 64
2, 382562, Note_on_c, 0, 70, 92
2, 382565, Note_off_c, 0, 68, 64
2, 382682, Note_on_c, 0, 72, 92
2, 382685, Note_off_c, 0, 70, 64
2, 382802, Note_on_c, 0, 70, 92
2, 382805, Note_off_c, 0, 72, 64
2, 382922, Note_on_c, 0, 67, 92
2, 382925, Note_off_c, 0, 70, 64
2, 383042, Note_on_c, 0, 68, 92
2, 383045, Note_off_c, 0, 67, 64
2, 383162, Note_on_c, 0, 70, 92
2, 383165, Note_off_c, 0, 68, 64
2, 383282, Note_on_c, 0, 68, 92
2, 383285, Note_off_c, 0, 70, 64
2, 383402, Note_on_c, 0, 65, 92
2, 383405, Note_off_c, 0, 68, 64
2, 383522, Note_on_c, 0, 67, 92
2, 383525, Note_off_c, 0, 65, 64
2, 383642, Note_on_c, 0, 68, 92
2, 383645, Note_off_c, 0, 67, 64
2, 383762, Note_on_c, 0, 67, 92
2, 383765, Note_off_c, 0, 68, 64
2, 383882, Note_on_c, 0, 63, 92
2, 383885, Note_off_c, 0, 67, 64
2, 384002, Note_on_c, 0, 72, 92
2, 384005, Note_off_c, 0, 63, 64
2, 384122, Note_on_c, 0, 73, 92
2, 384125, Note_off_c, 0, 72, 64
2, 384242, Note_on_c, 0, 72, 92
2, 384245, Note_off_c, 0, 73, 64
2, 384362, Note_on_c, 0, 63, 92
2, 384365, Note_off_c, 0, 72, 64
2, 384482, Note_on_c, 0, 70, 92
2, 384485, Note_off_c, 0, 63, 64
2, 384602, Note_on_c, 0, 72, 92
2, 384605, Note_off_c, 0, 70, 64
2, 384722, Note_on_c, 0, 70, 92
2, 384725, Note_off_c, 0, 72, 64
2, 384842, Note_on_c, 0, 63, 92
2, 384845, Note_off_c, 0, 70, 64
2, 384962, Note_on_c, 0, 72, 92
2, 384965, Note_off_c, 0, 63, 64
2, 385202, Note_on_c, 0, 68, 92
2, 385205, Note_off_c, 0, 72, 64
2, 385442, Note_on_c, 0, 72, 92
2, 385445, Note_off_c, 0, 68, 64
2, 385682, Note_on_c, 0, 63, 92
2, 385685, Note_off_c, 0, 72, 64
2, 385922, Note_on_c, 0, 65, 92
2, 385925, Note_off_c, 0, 63, 64
2, 386162, Note_on_c, 0, 74, 92
2, 386165, Note_off_c, 0, 65, 64
2, 386405, Note_off_c, 0, 74, 64
2, 386522, Note_on_c, 0, 75, 92
2, 386642, Note_on_c, 0, 77, 92
2, 386645, Note_off_c, 0, 75, 64
2, 386762, Note_on_c, 0, 79, 92
2, 386765, Note_off_c, 0, 77, 64
2, 386882, Note_on_c, 0, 80, 92
2, 386885, Note_off_c, 0, 79, 64
2, 387002, Note_on_c, 0, 82, 92
2, 387005, Note_off_c, 0, 80, 64
2, 387122, Note_on_c, 0, 84, 92
2, 387125, Note_off_c, 0, 82, 64
2, 387242, Note_on_c, 0, 82, 92
2, 387245, Note_off_c, 0, 84, 64
2, 387362, Note_on_c, 0, 80, 92
2, 387365, Note_off_c, 0, 82, 64
2, 387482, Note_on_c, 0, 79, 92
2, 387485, Note_off_c, 0, 80, 64
2, 387602, Note_on_c, 0, 77, 92
2, 387605, Note_off_c, 0, 79, 64
2, 387722, Note_on_c, 0, 80, 92
2, 387725, Note_off_c, 0, 77, 64
2, 387842, Note_on_c, 0, 79, 92
2, 387845, Note_off_c, 0, 80, 64
2, 388082, Note_on_c, 0, 72, 92
2, 388085, Note_off_c, 0, 79, 64
2, 388322, Note_on_c, 0, 77, 92
2, 388325, Note_off_c, 0, 72, 64
2, 388562, Note_on_c, 0, 68, 92
2, 388565, Note_off_c, 0, 77, 64
2, 389042, Note_on_c, 0, 77, 92
2, 389045, Note_off_c, 0, 68, 64
2, 389282, Note_on_c, 0, 67, 92
2, 389285, Note_off_c, 0, 77, 64
2, 389402, Note_on_c, 0, 71, 92
2, 389405, Note_off_c, 0, 67, 64
2, 389522, Note_on_c, 0, 72, 92
2, 389525, Note_off_c, 0, 71, 64
2, 389642, Note_on_c, 0, 74, 92
2, 389645, Note_off_c, 0, 72, 64
2, 389762, Note_on_c, 0, 75, 92
2, 389765, Note_off_c, 0, 74, 64
2, 389882, Note_on_c, 0, 77, 92
2, 389885, Note_off_c, 0, 75, 64
2, 390002, Note_on_c, 0, 79, 92
2, 390005, Note_off_c, 0, 77, 64
2, 390122, Note_on_c, 0, 80, 92
2, 390125, Note_off_c, 0, 79, 64
2, 390242, Note_on_c, 0, 82, 92
2, 390245, Note_off_c, 0, 80, 64
2, 390362, Note_on_c, 0, 84, 92
2, 390365, Note_off_c, 0, 82, 64
2, 390482, Note_on_c, 0, 82, 92
2, 390485, Note_off_c, 0, 84, 64
2, 390602, Note_on_c, 0, 72, 92
2, 390605, Note_off_c, 0, 82, 64
2, 390722, Note_on_c, 0, 80, 92
2, 390725, Note_off_c, 0, 72, 64
2, 390842, Note_on_c, 0, 79, 92
2, 390845, Note_off_c, 0, 80, 64
2, 390962, Note_on_c, 0, 77, 92
2, 390965, Note_off_c, 0, 79, 64
2, 391082, Note_on_c, 0, 76, 92
2, 391085, Note_off_c, 0, 77, 64
2, 391202, Note_on_c, 0, 77, 92
2, 391205, Note_off_c, 0, 76, 64
2, 391322, Note_on_c, 0, 75, 92
2, 391325, Note_off_c, 0, 77, 64
2, 391442, Note_on_c, 0, 73, 92
2, 391445, Note_off_c, 0, 75, 64
2, 391562, Note_on_c, 0, 72, 92
2, 391565, Note_off_c, 0, 73, 64
2, 391682, Note_on_c, 0, 70, 92
2, 391685, Note_off_c, 0, 72, 64
2, 392282, Note_on_c, 0, 68, 92
2, 392285, Note_off_c, 0, 70, 64
2, 392402, Note_on_c, 0, 67, 92
2, 392405, Note_off_c, 0, 68, 64
2, 392522, Note_on_c, 0, 65, 92
2, 392525, Note_off_c, 0, 67, 64
2, 392642, Note_on_c, 0, 64, 92
2, 392645, Note_off_c, 0, 65, 64
2, 392882, Note_on_c, 0, 72, 92
2, 392885, Note_off_c, 0, 64, 64
2, 393122, Note_on_c, 0, 74, 92
2, 393125, Note_off_c, 0, 72, 64
2, 393362, Note_on_c, 0, 76, 92
2, 393365, Note_off_c, 0, 74, 64
2, 393602, Note_on_c, 0, 77, 92
2, 393605, Note_off_c, 0, 76, 64
2, 393845, Note_off_c, 0, 77, 64
2, 395162, Note_on_c, 0, 70, 92
2, 395282, Note_on_c, 0, 68, 92
2, 395285, Note_off_c, 0, 70, 64
2, 395402, Note_on_c, 0, 70, 92
2, 395405, Note_off_c, 0, 68, 64
2, 395522, Note_on_c, 0, 65, 92
2, 395525, Note_off_c, 0, 70, 64
2, 395642, Note_on_c, 0, 70, 92
2, 395645, Note_off_c, 0, 65, 64
2, 395762, Note_on_c, 0, 68, 92
2, 395765, Note_off_c, 0, 70, 64
2, 395882, Note_on_c, 0, 70, 92
2, 395885, Note_off_c, 0, 68, 64
2, 396002, Note_on_c, 0, 73, 92
2, 396005, Note_off_c, 0, 70, 64
2, 396122, Note_on_c, 0, 70, 92
2, 396125, Note_off_c, 0, 73, 64
2, 396242, Note_on_c, 0, 68, 92
2, 396245, Note_off_c, 0, 70, 64
2, 396362, Note_on_c, 0, 70, 92
2, 396365, Note_off_c, 0, 68, 64
2, 396482, Note_on_c, 0, 67, 92
2, 396485, Note_off_c, 0, 70, 64
2, 396725, Note_off_c, 0, 67, 64
2, 396962, Note_on_c, 0, 73, 92
2, 397205, Note_off_c, 0, 73, 64
2, 397442, Note_on_c, 0, 73, 92
2, 397685, Note_off_c, 0, 73, 64
2, 398042, Note_on_c, 0, 68, 92
2, 398162, Note_on_c, 0, 66, 92
2, 398165, Note_off_c, 0, 68, 64
2, 398282, Note_on_c, 0, 68, 92
2, 398285, Note_off_c, 0, 66, 64
2, 398402, Note_on_c, 0, 63, 92
2, 398405, Note_off_c, 0, 68, 64
2, 398522, Note_on_c, 0, 68, 92
2, 398525, Note_off_c, 0, 63, 64
2, 398642, Note_on_c, 0, 66, 92
2, 398645, Note_off_c, 0, 68, 64
2, 398762, Note_on_c, 0, 68, 92
2, 398765, Note_off_c, 0, 66, 64
2, 398882, Note_on_c, 0, 72, 92
2, 398885, Note_off_c, 0, 68, 64
2, 399002, Note_on_c, 0, 68, 92
2, 399005, Note_off_c, 0, 72, 64
2, 399122, Note_on_c, 0, 66, 92
2, 399125, Note_off_c, 0, 68, 64
2, 399242, Note_on_c, 0, 68, 92
2, 399245, Note_off_c, 0, 66, 64
2, 399362, Note_on_c, 0, 65, 92
2, 399365, Note_off_c, 0, 68, 64
2, 399482, Note_on_c, 0, 70, 92
2, 399485, Note_off_c, 0, 65, 64
2, 399602, Note_on_c, 0, 69, 92
2, 399605, Note_off_c, 0, 70, 64
2, 399722, Note_on_c, 0, 70, 92
2, 399725, Note_off_c, 0, 69, 64
2, 399842, Note_on_c, 0, 65, 92
2, 399845, Note_off_c, 0, 70, 64
2, 399962, Note_on_c, 0, 70, 92
2, 399965, Note_off_c, 0, 65, 64
2, 400082, Note_on_c, 0, 69, 92
2, 400085, Note_off_c, 0, 70, 64
2, 400202, Note_on_c, 0, 70, 92
2, 400205, Note_off_c, 0, 69, 64
2, 400322, Note_on_c, 0, 73, 92
2, 400325, Note_off_c, 0, 70, 64
2, 400442, Note_on_c, 0, 70, 92
2, 400445, Note_off_c, 0, 73, 64
2, 400562, Note_on_c, 0, 69, 92
2, 400565, Note_off_c, 0, 70, 64
2, 400682, Note_on_c, 0, 70, 92
2, 400685, Note_off_c, 0, 69, 64
2, 400802, Note_on_c, 0, 67, 92
2, 400805, Note_off_c, 0, 70, 64
2, 401042, Note_on_c, 0, 70, 92
2, 401045, Note_off_c, 0, 67, 64
2, 401282, Note_on_c, 0, 75, 92
2, 401285, Note_off_c, 0, 70, 64
2, 402362, Note_on_c, 0, 63, 92
2, 402365, Note_off_c, 0, 75, 64
2, 402482, Note_on_c, 0, 61, 92
2, 402485, Note_off_c, 0, 63, 64
2, 402602, Note_on_c, 0, 63, 92
2, 402605, Note_off_c, 0, 61, 64
2, 402722, Note_on_c, 0, 68, 92
2, 402725, Note_off_c, 0, 63, 64
2, 402842, Note_on_c, 0, 63, 92
2, 402845, Note_off_c, 0, 68, 64
2, 402962, Note_on_c, 0, 61, 92
2, 402965, Note_off_c, 0, 63, 64
2, 403082, Note_on_c, 0, 63, 92
2, 403085, Note_off_c, 0, 61, 64
2, 403202, Note_on_c, 0, 72, 92
2, 403205, Note_off_c, 0, 63, 64
2, 403322, Note_on_c, 0, 68, 92
2, 403325, Note_off_c, 0, 72, 64
2, 403442, Note_on_c, 0, 67, 92
2, 403445, Note_off_c, 0, 68, 64
2, 403562, Note_on_c, 0, 68, 92
2, 403565, Note_off_c, 0, 67, 64
2, 403682, Note_on_c, 0, 74, 92
2, 403685, Note_off_c, 0, 68, 64
2, 403802, Note_on_c, 0, 75, 92
2, 403805, Note_off_c, 0, 74, 64
2, 403922, Note_on_c, 0, 74, 92
2, 403925, Note_off_c, 0, 75, 64
2, 404042, Note_on_c, 0, 72, 92
2, 404045, Note_off_c, 0, 74, 64
2, 404162, Note_on_c, 0, 70, 92
2, 404165, Note_off_c, 0, 72, 64
2, 404282, Note_on_c, 0, 79, 92
2, 404285, Note_off_c, 0, 70, 64
2, 404402, Note_on_c, 0, 77, 92
2, 404405, Note_off_c, 0, 79, 64
2, 404522, Note_on_c, 0, 75, 92
2, 404525, Note_off_c, 0, 77, 64
2, 404642, Note_on_c, 0, 74, 92
2, 404645, Note_off_c, 0, 75, 64
2, 404762, Note_on_c, 0, 72, 92
2, 404765, Note_off_c, 0, 74, 64
2, 404882, Note_on_c, 0, 70, 92
2, 404885, Note_off_c, 0, 72, 64
2, 405002, Note_on_c, 0, 68, 92
2, 405005, Note_off_c, 0, 70, 64
2, 405122, Note_on_c, 0, 67, 92
2, 405125, Note_off_c, 0, 68, 64
2, 405242, Note_on_c, 0, 65, 92
2, 405245, Note_off_c, 0, 67, 64
2, 405362, Note_on_c, 0, 67, 92
2, 405365, Note_off_c, 0, 65, 64
2, 405482, Note_on_c, 0, 70, 92
2, 405485, Note_off_c, 0, 67, 64
2, 405602, Note_on_c, 0, 68, 92
2, 405605, Note_off_c, 0, 70, 64
2, 405722, Note_on_c, 0, 67, 92
2, 405725, Note_off_c, 0, 68, 64
2, 405842, Note_on_c, 0, 68, 92
2, 405845, Note_off_c, 0, 67, 64
2, 405962, Note_on_c, 0, 72, 92
2, 405965, Note_off_c, 0, 68, 64
2, 406082, Note_on_c, 0, 70, 92
2, 406085, Note_off_c, 0, 72, 64
2, 406202, Note_on_c, 0, 68, 92
2, 406205, Note_off_c, 0, 70, 64
2, 406322, Note_on_c, 0, 70, 92
2, 406325, Note_off_c, 0, 68, 64
2, 406442, Note_on_c, 0, 73, 92
2, 406445, Note_off_c, 0, 70, 64
2, 406562, Note_on_c, 0, 72, 92
2, 406565, Note_off_c, 0, 73, 64
2, 406682, Note_on_c, 0, 70, 92
2, 406685, Note_off_c, 0, 72, 64
2, 406802, Note_on_c, 0, 72, 92
2, 406805, Note_off_c, 0, 70, 64
2, 406922, Note_on_c, 0, 75, 92
2, 406925, Note_off_c, 0, 72, 64
2, 407042, Note_on_c, 0, 67, 92
2, 407045, Note_off_c, 0, 75, 64
2, 407162, Note_on_c, 0, 65, 92
2, 407165, Note_off_c, 0, 67, 64
2, 407282, Note_on_c, 0, 67, 92
2, 407285, Note_off_c, 0, 65, 64
2, 407402, Note_on_c, 0, 75, 92
2, 407405, Note_off_c, 0, 67, 64
2, 407522, Note_on_c, 0, 68, 92
2, 407525, Note_off_c, 0, 75, 64
2, 407642, Note_on_c, 0, 67, 92
2, 407645, Note_off_c, 0, 68, 64
2, 407762, Note_on_c, 0, 68, 92
2, 407765, Note_off_c, 0, 67, 64
2, 407882, Note_on_c, 0, 75, 92
2, 407885, Note_off_c, 0, 68, 64
2, 408002, Note_on_c, 0, 67, 92
2, 408005, Note_off_c, 0, 75, 64
2, 408485, Note_off_c, 0, 67, 64
2, 408602, Note_on_c, 0, 79, 92
2, 408722, Note_on_c, 0, 77, 92
2, 408725, Note_off_c, 0, 79, 64
2, 408842, Note_on_c, 0, 75, 92
2, 408845, Note_off_c, 0, 77, 64
2, 408962, Note_on_c, 0, 74, 92
2, 408965, Note_off_c, 0, 75, 64
2, 409082, Note_on_c, 0, 72, 92
2, 409085, Note_off_c, 0, 74, 64
2, 409202, Note_on_c, 0, 70, 92
2, 409205, Note_off_c, 0, 72, 64
2, 409322, Note_on_c, 0, 68, 92
2, 409325, Note_off_c, 0, 70, 64
2, 409442, Note_on_c, 0, 67, 92
2, 409445, Note_off_c, 0, 68, 64
2, 409562, Note_on_c, 0, 75, 92
2, 409565, Note_off_c, 0, 67, 64
2, 409682, Note_on_c, 0, 74, 92
2, 409685, Note_off_c, 0, 75, 64
2, 409802, Note_on_c, 0, 75, 92
2, 409805, Note_off_c, 0, 74, 64
2, 409922, Note_on_c, 0, 68, 92
2, 409925, Note_off_c, 0, 75, 64
2, 410042, Note_on_c, 0, 75, 92
2, 410045, Note_off_c, 0, 68, 64
2, 410162, Note_on_c, 0, 67, 92
2, 410165, Note_off_c, 0, 75, 64
2, 410282, Note_on_c, 0, 75, 92
2, 410285, Note_off_c, 0, 67, 64
2, 410402, Note_on_c, 0, 68, 92
2, 410405, Note_off_c, 0, 75, 64
2, 410522, Note_on_c, 0, 75, 92
2, 410525, Note_off_c, 0, 68, 64
2, 410642, Note_on_c, 0, 65, 92
2, 410645, Note_off_c, 0, 75, 64
2, 410762, Note_on_c, 0, 75, 92
2, 410765, Note_off_c, 0, 65, 64
2, 410882, Note_on_c, 0, 67, 92
2, 410885, Note_off_c, 0, 75, 64
2, 411122, Note_on_c, 0, 82, 92
2, 411125, Note_off_c, 0, 67, 64
2, 411362, Note_on_c, 0, 84, 92
2, 411365, Note_off_c, 0, 82, 64
2, 411602, Note_on_c, 0, 82, 92
2, 411605, Note_off_c, 0, 84, 64
2, 411842, Note_on_c, 0, 84, 92
2, 411845, Note_off_c, 0, 82, 64
2, 412082, Note_on_c, 0, 80, 92
2, 412085, Note_off_c, 0, 84, 64
2, 412322, Note_on_c, 0, 82, 92
2, 412325, Note_off_c, 0, 80, 64
2, 412442, Note_on_c, 0, 75, 92
2, 412445, Note_off_c, 0, 82, 64
2, 412562, Note_on_c, 0, 77, 92
2, 412565, Note_off_c, 0, 75, 64
2, 412682, Note_on_c, 0, 79, 92
2, 412685, Note_off_c, 0, 77, 64
2, 412802, Note_on_c, 0, 80, 92
2, 412805, Note_off_c, 0, 79, 64
2, 413402, Note_on_c, 0, 79, 92
2, 413405, Note_off_c, 0, 80, 64
2, 413522, Note_on_c, 0, 80, 92
2, 413525, Note_off_c, 0, 79, 64
2, 413642, Note_on_c, 0, 77, 92
2, 413645, Note_off_c, 0, 80, 64
2, 413762, Note_on_c, 0, 82, 92
2, 413765, Note_off_c, 0, 77, 64
2, 414002, Note_on_c, 0, 75, 92
2, 414005, Note_off_c, 0, 82, 64
2, 414242, Note_on_c, 0, 77, 92
2, 414245, Note_off_c, 0, 75, 64
2, 414485, Note_off_c, 0, 77, 64
2, 414722, Note_on_c, 0, 74, 92
2, 414782, Note_on_c, 0, 75, 92
2, 414785, Note_off_c, 0, 74, 64
2, 414842, Note_on_c, 0, 74, 92
2, 414845, Note_off_c, 0, 75, 64
2, 415202, Note_on_c, 0, 75, 92
2, 415205, Note_off_c, 0, 74, 64
2, 416645, Note_off_c, 0, 75, 64
2, 422402, Note_on_c, 0, 82, 92
2, 422642, Note_on_c, 0, 70, 92
2, 422645, Note_off_c, 0, 82, 64
2, 422882, Note_on_c, 0, 80, 92
2, 422885, Note_off_c, 0, 70, 64
2, 423122, Note_on_c, 0, 70, 92
2, 423125, Note_off_c, 0, 80, 64
2, 423362, Note_on_c, 0, 79, 92
2, 423365, Note_off_c, 0, 70, 64
2, 423602, Note_on_c, 0, 70, 92
2, 423605, Note_off_c, 0, 79, 64
2, 423842, Note_on_c, 0, 77, 92
2, 423845, Note_off_c, 0, 70, 64
2, 424082, Note_on_c, 0, 70, 92
2, 424085, Note_off_c, 0, 77, 64
2, 424322, Note_on_c, 0, 75, 92
2, 424325, Note_off_c, 0, 70, 64
2, 424562, Note_on_c, 0, 70, 92
2, 424565, Note_off_c, 0, 75, 64
2, 424802, Note_on_c, 0, 74, 92
2, 424805, Note_off_c, 0, 70, 64
2, 425042, Note_on_c, 0, 70, 92
2, 425045, Note_off_c, 0, 74, 64
2, 425282, Note_on_c, 0, 75, 92
2, 425285, Note_off_c, 0, 70, 64
2, 425402, Note_on_c, 0, 70, 92
2, 425405, Note_off_c, 0, 75, 64
2, 425522, Note_on_c, 0, 72, 92
2, 425525, Note_off_c, 0, 70, 64
2, 425642, Note_on_c, 0, 74, 92
2, 425645, Note_off_c, 0, 72, 64
2, 425762, Note_on_c, 0, 75, 92
2, 425765, Note_off_c, 0, 74, 64
2, 425882, Note_on_c, 0, 67, 92
2, 425885, Note_off_c, 0, 75, 64
2, 426002, Note_on_c, 0, 68, 92
2, 426005, Note_off_c, 0, 67, 64
2, 426122, Note_on_c, 0, 70, 92
2, 426125, Note_off_c, 0, 68, 64
2, 426242, Note_on_c, 0, 72, 92
2, 426245, Note_off_c, 0, 70, 64
2, 426362, Note_on_c, 0, 74, 92
2, 426365, Note_off_c, 0, 72, 64
2, 426482, Note_on_c, 0, 75, 92
2, 426485, Note_off_c, 0, 74, 64
2, 426602, Note_on_c, 0, 77, 92
2, 426605, Note_off_c, 0, 75, 64
2, 426722, Note_on_c, 0, 79, 92
2, 426725, Note_off_c, 0, 77, 64
2, 426842, Note_on_c, 0, 77, 92
2, 426845, Note_off_c, 0, 79, 64
2, 426962, Note_on_c, 0, 75, 92
2, 426965, Note_off_c, 0, 77, 64
2, 427082, Note_on_c, 0, 79, 92
2, 427085, Note_off_c, 0, 75, 64
2, 427202, Note_on_c, 0, 82, 92
2, 427205, Note_off_c, 0, 79, 64
2, 427322, Note_on_c, 0, 79, 92
2, 427325, Note_off_c, 0, 82, 64
2, 427442, Note_on_c, 0, 75, 92
2, 427445, Note_off_c, 0, 79, 64
2, 427562, Note_on_c, 0, 70, 92
2, 427565, Note_off_c, 0, 75, 64
2, 427682, Note_on_c, 0, 79, 92
2, 427685, Note_off_c, 0, 70, 64
2, 427802, Note_on_c, 0, 75, 92
2, 427805, Note_off_c, 0, 79, 64
2, 427922, Note_on_c, 0, 73, 92
2, 427925, Note_off_c, 0, 75, 64
2, 428042, Note_on_c, 0, 70, 92
2, 428045, Note_off_c, 0, 73, 64
2, 428162, Note_on_c, 0, 72, 92
2, 428165, Note_off_c, 0, 70, 64
2, 428282, Note_on_c, 0, 73, 92
2, 428285, Note_off_c, 0, 72, 64
2, 428402, Note_on_c, 0, 72, 92
2, 428405, Note_off_c, 0, 73, 64
2, 428522, Note_on_c, 0, 68, 92
2, 428525, Note_off_c, 0, 72, 64
2, 428642, Note_on_c, 0, 70, 92
2, 428645, Note_off_c, 0, 68, 64
2, 428762, Note_on_c, 0, 72, 92
2, 428765, Note_off_c, 0, 70, 64
2, 428882, Note_on_c, 0, 70, 92
2, 428885, Note_off_c, 0, 72, 64
2, 429002, Note_on_c, 0, 67, 92
2, 429005, Note_off_c, 0, 70, 64
2, 429122, Note_on_c, 0, 68, 92
2, 429125, Note_off_c, 0, 67, 64
2, 429242, Note_on_c, 0, 70, 92
2, 429245, Note_off_c, 0, 68, 64
2, 429362, Note_on_c, 0, 68, 92
2, 429365, Note_off_c, 0, 70, 64
2, 429482, Note_on_c, 0, 65, 92
2, 429485, Note_off_c, 0, 68, 64
2, 429602, Note_on_c, 0, 67, 92
2, 429605, Note_off_c, 0, 65, 64
2, 429722, Note_on_c, 0, 68, 92
2, 429725, Note_off_c, 0, 67, 64
2, 429842, Note_on_c, 0, 67, 92
2, 429845, Note_off_c, 0, 68, 64
2, 429962, Note_on_c, 0, 63, 92
2, 429965, Note_off_c, 0, 67, 64
2, 430082, Note_on_c, 0, 72, 92
2, 430085, Note_off_c, 0, 63, 64
2, 430202, Note_on_c, 0, 73, 92
2, 430205, Note_off_c, 0, 72, 64
2, 430322, Note_on_c, 0, 72, 92
2, 430325, Note_off_c, 0, 73, 64
2, 430442, Note_on_c, 0, 63, 92
2, 430445, Note_off_c, 0, 72, 64
2, 430562, Note_on_c, 0, 70, 92
2, 430565, Note_off_c, 0, 63, 64
2, 430682, Note_on_c, 0, 72, 92
2, 430685, Note_off_c, 0, 70, 64
2, 430802, Note_on_c, 0, 70, 92
2, 430805, Note_off_c, 0, 72, 64
2, 430922, Note_on_c, 0, 63, 92
2, 430925, Note_off_c, 0, 70, 64
2, 431042, Note_on_c, 0, 72, 92
2, 431045, Note_off_c, 0, 63, 64
2, 431282, Note_on_c, 0, 68, 92
2, 431285, Note_off_c, 0, 72, 64
2, 431522, Note_on_c, 0, 72, 92
2, 431525, Note_off_c, 0, 68, 64
2, 431762, Note_on_c, 0, 63, 92
2, 431765, Note_off_c, 0, 72, 64
2, 432002, Note_on_c, 0, 65, 92
2, 432005, Note_off_c, 0, 63, 64
2, 432242, Note_on_c, 0, 74, 92
2, 432245, Note_off_c, 0, 65, 64
2, 432485, Note_off_c, 0, 74, 64
2, 432602, Note_on_c, 0, 75, 92
2, 432722, Note_on_c, 0, 77, 92
2, 432725, Note_off_c, 0, 75, 64
2, 432842, Note_on_c, 0, 79, 92
2, 432845, Note_off_c, 0, 77, 64
2, 432962, Note_on_c, 0, 80, 92
2, 432965, Note_off_c, 0, 79, 64
2, 433082, Note_on_c, 0, 82, 92
2, 433085, Note_off_c, 0, 80, 64
2, 433202, Note_on_c, 0, 84, 92
2, 433205, Note_off_c, 0, 82, 64
2, 433322, Note_on_c, 0, 82, 92
2, 433325, Note_off_c, 0, 84, 64
2, 433442, Note_on_c, 0, 80, 92
2, 433445, Note_off_c, 0, 82, 64
2, 433562, Note_on_c, 0, 79, 92
2, 433565, Note_off_c, 0, 80, 64
2, 433682, Note_on_c, 0, 77, 92
2, 433685, Note_off_c, 0, 79, 64
2, 433802, Note_on_c, 0, 80, 92
2, 433805, Note_off_c, 0, 77, 64
2, 433922, Note_on_c, 0, 79, 92
2, 433925, Note_off_c, 0, 80, 64
2, 434162, Note_on_c, 0, 72, 92
2, 434165, Note_off_c, 0, 79, 64
2, 434402, Note_on_c, 0, 77, 92
2, 434405, Note_off_c, 0, 72, 64
2, 434642, Note_on_c, 0, 68, 92
2, 434645, Note_off_c, 0, 77, 64
2, 435122, Note_on_c, 0, 77, 92
2, 435125, Note_off_c, 0, 68, 64
2, 435362, Note_on_c, 0, 67, 92
2, 435365, Note_off_c, 0, 77, 64
2, 435482, Note_on_c, 0, 71, 92
2, 435485, Note_off_c, 0, 67, 64
2, 435602, Note_on_c, 0, 72, 92
2, 435605, Note_off_c, 0, 71, 64
2, 435722, Note_on_c, 0, 74, 92
2, 435725, Note_off_c, 0, 72, 64
2, 435842, Note_on_c, 0, 75, 92
2, 435845, Note_off_c, 0, 74, 64
2, 435962, Note_on_c, 0, 77, 92
2, 435965, Note_off_c, 0, 75, 64
2, 436082, Note_on_c, 0, 79, 92
2, 436085, Note_off_c, 0, 77, 64
2, 436202, Note_on_c, 0, 80, 92
2, 436205, Note_off_c, 0, 79, 64
2, 436322, Note_on_c, 0, 82, 92
2, 436325, Note_off_c, 0, 80, 64
2, 436442, Note_on_c, 0, 84, 92
2, 436445, Note_off_c, 0, 82, 64
2, 436562, Note_on_c, 0, 82, 92
2, 436565, Note_off_c, 0, 84, 64
2, 436682, Note_on_c, 0, 72, 92
2, 436685, Note_off_c, 0, 82, 64
2, 436802, Note_on_c, 0, 80, 92
2, 436805, Note_off_c, 0, 72, 64
2, 436922, Note_on_c, 0, 79, 92
2, 436925, Note_off_c, 0, 80, 64
2, 437042, Note_on_c, 0, 77, 92
2, 437045, Note_off_c, 0, 79, 64
2, 437162, Note_on_c, 0, 76, 92
2, 437165, Note_off_c, 0, 77, 64
2, 437282, Note_on_c, 0, 77, 92
2, 437285, Note_off_c, 0, 76, 64
2, 437402, Note_on_c, 0, 75, 92
2, 437405, Note_off_c, 0, 77, 64
2, 437522, Note_on_c, 0, 73, 92
2, 437525, Note_off_c, 0, 75, 64
2, 437642, Note_on_c, 0, 72, 92
2, 437645, Note_off_c, 0, 73, 64
2, 437762, Note_on_c, 0, 70, 92
2, 437765, Note_off_c, 0, 72, 64
2, 438362, Note_on_c, 0, 68, 92
2, 438365, Note_off_c, 0, 70, 64
2, 438482, Note_on_c, 0, 67, 92
2, 438485, Note_off_c, 0, 68, 64
2, 438602, Note_on_c, 0, 65, 92
2, 438605, Note_off_c, 0, 67, 64
2, 438722, Note_on_c, 0, 64, 92
2, 438725, Note_off_c, 0, 65, 64
2, 438962, Note_on_c, 0, 72, 92
2, 438965, Note_off_c, 0, 64, 64
2, 439202, Note_on_c, 0, 74, 92
2, 439205, Note_off_c, 0, 72, 64
2, 439442, Note_on_c, 0, 76, 92
2, 439445, Note_off_c, 0, 74, 64
2, 439682, Note_on_c, 0, 77, 92
2, 439685, Note_off_c, 0, 76, 64
2, 439925, Note_off_c, 0, 77, 64
2, 441242, Note_on_c, 0, 70, 92
2, 441362, Note_on_c, 0, 68, 92
2, 441365, Note_off_c, 0, 70, 64
2, 441482, Note_on_c, 0, 70, 92
2, 441485, Note_off_c, 0, 68, 64
2, 441602, Note_on_c, 0, 65, 92
2, 441605, Note_off_c, 0, 70, 64
2, 441722, Note_on_c, 0, 70, 92
2, 441725, Note_off_c, 0, 65, 64
2, 441842, Note_on_c, 0, 68, 92
2, 441845, Note_off_c, 0, 70, 64
2, 441962, Note_on_c, 0, 70, 92
2, 441965, Note_off_c, 0, 68, 64
2, 442082, Note_on_c, 0, 73, 92
2, 442085, Note_off_c, 0, 70, 64
2, 442202, Note_on_c, 0, 70, 92
2, 442205, Note_off_c, 0, 73, 64
2, 442322, Note_on_c, 0, 68, 92
2, 442325, Note_off_c, 0, 70, 64
2, 442442, Note_on_c, 0, 70, 92
2, 442445, Note_off_c, 0, 68, 64
2, 442562, Note_on_c, 0, 67, 92
2, 442565, Note_off_c, 0, 70, 64
2, 442805, Note_off_c, 0, 67, 64
2, 443042, Note_on_c, 0, 73, 92
2, 443285, Note_off_c, 0, 73, 64
2, 443522, Note_on_c, 0, 73, 92
2, 443765, Note_off_c, 0, 73, 64
2, 444122, Note_on_c, 0, 68, 92
2, 444242, Note_on_c, 0, 66, 92
2, 444245, Note_off_c, 0, 68, 64
2, 444362, Note_on_c, 0, 68, 92
2, 444365, Note_off_c, 0, 66, 64
2, 444482, Note_on_c, 0, 63, 92
2, 444485, Note_off_c, 0, 68, 64
2, 444602, Note_on_c, 0, 68, 92
2, 444605, Note_off_c, 0, 63, 64
2, 444722, Note_on_c, 0, 66, 92
2, 444725, Note_off_c, 0, 68, 64
2, 444842, Note_on_c, 0, 68, 92
2, 444845, Note_off_c, 0, 66, 64
2, 444962, Note_on_c, 0, 72, 92
2, 444965, Note_off_c, 0, 68, 64
2, 445082, Note_on_c, 0, 68, 92
2, 445085, Note_off_c, 0, 72, 64
2, 445202, Note_on_c, 0, 66, 92
2, 445205, Note_off_c, 0, 68, 64
2, 445322, Note_on_c, 0, 68, 92
2, 445325, Note_off_c, 0, 66, 64
2, 445442, Note_on_c, 0, 65, 92
2, 445445, Note_off_c, 0, 68, 64
2, 445562, Note_on_c, 0, 70, 92
2, 445565, Note_off_c, 0, 65, 64
2, 445682, Note_on_c, 0, 69, 92
2, 445685, Note_off_c, 0, 70, 64
2, 445802, Note_on_c, 0, 70, 92
2, 445805, Note_off_c, 0, 69, 64
2, 445922, Note_on_c, 0, 65, 92
2, 445925, Note_off_c, 0, 70, 64
2, 446042, Note_on_c, 0, 70, 92
2, 446045, Note_off_c, 0, 65, 64
2, 446162, Note_on_c, 0, 69, 92
2, 446165, Note_off_c, 0, 70, 64
2, 446282, Note_on_c, 0, 70, 92
2, 446285, Note_off_c, 0, 69, 64
2, 446402, Note_on_c, 0, 73, 92
2, 446405, Note_off_c, 0, 70, 64
2, 446522, Note_on_c, 0, 70, 92
2, 446525, Note_off_c, 0, 73, 64
2, 446642, Note_on_c, 0, 69, 92
2, 446645, Note_off_c, 0, 70, 64
2, 446762, Note_on_c, 0, 70, 92
2, 446765, Note_off_c, 0, 69, 64
2, 446882, Note_on_c, 0, 67, 92
2, 446885, Note_off_c, 0, 70, 64
2, 447122, Note_on_c, 0, 70, 92
2, 447125, Note_off_c, 0, 67, 64
2, 447362, Note_on_c, 0, 75, 92
2, 447365, Note_off_c, 0, 70, 64
2, 448442, Note_on_c, 0, 63, 92
2, 448445, Note_off_c, 0, 75, 64
2, 448562, Note_on_c, 0, 61, 92
2, 448565, Note_off_c, 0, 63, 64
2, 448682, Note_on_c, 0, 63, 92
2, 448685, Note_off_c, 0, 61, 64
2, 448802, Note_on_c, 0, 68, 92
2, 448805, Note_off_c, 0, 63, 64
2, 448922, Note_on_c, 0, 63, 92
2, 448925, Note_off_c, 0, 68, 64
2, 449042, Note_on_c, 0, 61, 92
2, 449045, Note_off_c, 0, 63, 64
2, 449162, Note_on_c, 0, 63, 92
2, 449165, Note_off_c, 0, 61, 64
2, 449282, Note_on_c, 0, 72, 92
2, 449285, Note_off_c, 0, 63, 64
2, 449402, Note_on_c, 0, 68, 92
2, 449405, Note_off_c, 0, 72, 64
2, 449522, Note_on_c, 0, 67, 92
2, 449525, Note_off_c, 0, 68, 64
2, 449642, Note_on_c, 0, 68, 92
2, 449645, Note_off_c, 0, 67, 64
2, 449762, Note_on_c, 0, 74, 92
2, 449765, Note_off_c, 0, 68, 64
2, 449882, Note_on_c, 0, 75, 92
2, 449885, Note_off_c, 0, 74, 64
2, 450002, Note_on_c, 0, 74, 92
2, 450005, Note_off_c, 0, 75, 64
2, 450122, Note_on_c, 0, 72, 92
2, 450125, Note_off_c, 0, 74, 64
2, 450242, Note_on_c, 0, 70, 92
2, 450245, Note_off_c, 0, 72, 64
2, 450362, Note_on_c, 0, 79, 92
2, 450365, Note_off_c, 0, 70, 64
2, 450482, Note_on_c, 0, 77, 92
2, 450485, Note_off_c, 0, 79, 64
2, 450602, Note_on_c, 0, 75, 92
2, 450605, Note_off_c, 0, 77, 64
2, 450722, Note_on_c, 0, 74, 92
2, 450725, Note_off_c, 0, 75, 64
2, 450842, Note_on_c, 0, 72, 92
2, 450845, Note_off_c, 0, 74, 64
2, 450962, Note_on_c, 0, 70, 92
2, 450965, Note_off_c, 0, 72, 64
2, 451082, Note_on_c, 0, 68, 92
2, 451085, Note_off_c, 0, 70, 64
2, 451202, Note_on_c, 0, 67, 92
2, 451205, Note_off_c, 0, 68, 64
2, 451322, Note_on_c, 0, 65, 92
2, 451325, Note_off_c, 0, 67, 64
2, 451442, Note_on_c, 0, 67, 92
2, 451445, Note_off_c, 0, 65, 64
2, 451562, Note_on_c, 0, 70, 92
2, 451565, Note_off_c, 0, 67, 64
2, 451682, Note_on_c, 0, 68, 92
2, 451685, Note_off_c, 0, 70, 64
2, 451802, Note_on_c, 0, 67, 92
2, 451805, Note_off_c, 0, 68, 64
2, 451922, Note_on_c, 0, 68, 92
2, 451925, Note_off_c, 0, 67, 64
2, 452042, Note_on_c, 0, 72, 92
2, 452045, Note_off_c, 0, 68, 64
2, 452162, Note_on_c, 0, 70, 92
2, 452165, Note_off_c, 0, 72, 64
2, 452282, Note_on_c, 0, 68, 92
2, 452285, Note_off_c, 0, 70, 64
2, 452402, Note_on_c, 0, 70, 92
2, 452405, Note_off_c, 0, 68, 64
2, 452522, Note_on_c, 0, 73, 92
2, 452525, Note_off_c, 0, 70, 64
2, 452642, Note_on_c, 0, 72, 92
2, 452645, Note_off_c, 0, 73, 64
2, 452762, Note_on_c, 0, 70, 92
2, 452765, Note_off_c, 0, 72, 64
2, 452882, Note_on_c, 0, 72, 92
2, 452885, Note_off_c, 0, 70, 64
2, 453002, Note_on_c, 0, 75, 92
2, 453005, Note_off_c, 0, 72, 64
2, 453122, Note_on_c, 0, 67, 92
2, 453125, Note_off_c, 0, 75, 64
2, 453242, Note_on_c, 0, 65, 92
2, 453245, Note_off_c, 0, 67, 64
2, 453362, Note_on_c, 0, 67, 92
2, 453365, Note_off_c, 0, 65, 64
2, 453482, Note_on_c, 0, 75, 92
2, 453485, Note_off_c, 0, 67, 64
2, 453602, Note_on_c, 0, 68, 92
2, 453605, Note_off_c, 0, 75, 64
2, 453722, Note_on_c, 0, 67, 92
2, 453725, Note_off_c, 0, 68, 64
2, 453842, Note_on_c, 0, 68, 92
2, 453845, Note_off_c, 0, 67, 64
2, 453962, Note_on_c, 0, 75, 92
2, 453965, Note_off_c, 0, 68, 64
2, 454082, Note_on_c, 0, 67, 92
2, 454085, Note_off_c, 0, 75, 64
2, 454565, Note_off_c, 0, 67, 64
2, 454682, Note_on_c, 0, 79, 92
2, 454802, Note_on_c, 0, 77, 92
2, 454805, Note_off_c, 0, 79, 64
2, 454922, Note_on_c, 0, 75, 92
2, 454925, Note_off_c, 0, 77, 64
2, 455042, Note_on_c, 0, 74, 92
2, 455045, Note_off_c, 0, 75, 64
2, 455162, Note_on_c, 0, 72, 92
2, 455165, Note_off_c, 0, 74, 64
2, 455282, Note_on_c, 0, 70, 92
2, 455285, Note_off_c, 0, 72, 64
2, 455402, Note_on_c, 0, 68, 92
2, 455405, Note_off_c, 0, 70, 64
2, 455522, Note_on_c, 0, 67, 92
2, 455525, Note_off_c, 0, 68, 64
2, 455642, Note_on_c, 0, 75, 92
2, 455645, Note_off_c, 0, 67, 64
2, 455762, Note_on_c, 0, 74, 92
2, 455765, Note_off_c, 0, 75, 64
2, 455882, Note_on_c, 0, 75, 92
2, 455885, Note_off_c, 0, 74, 64
2, 456002, Note_on_c, 0, 68, 92
2, 456005, Note_off_c, 0, 75, 64
2, 456122, Note_on_c, 0, 75, 92
2, 456125, Note_off_c, 0, 68, 64
2, 456242, Note_on_c, 0, 67, 92
2, 456245, Note_off_c, 0, 75, 64
2, 456362, Note_on_c, 0, 75, 92
2, 456365, Note_off_c, 0, 67, 64
2, 456482, Note_on_c, 0, 68, 92
2, 456485, Note_off_c, 0, 75, 64
2, 456602, Note_on_c, 0, 75, 92
2, 456605, Note_off_c, 0, 68, 64
2, 456722, Note_on_c, 0, 65, 92
2, 456725, Note_off_c, 0, 75, 64
2, 456842, Note_on_c, 0, 75, 92
2, 456845, Note_off_c, 0, 65, 64
2, 456962, Note_on_c, 0, 67, 92
2, 456965, Note_off_c, 0, 75, 64
2, 457202, Note_on_c, 0, 82, 92
2, 457205, Note_off_c, 0, 67, 64
2, 457442, Note_on_c, 0, 84, 92
2, 457445, Note_off_c, 0, 82, 64
2, 457682, Note_on_c, 0, 82, 92
2, 457685, Note_off_c, 0, 84, 64
2, 457922, Note_on_c, 0, 84, 92
2, 457925, Note_off_c, 0, 82, 64
2, 458162, Note_on_c, 0, 80, 92
2, 458165, Note_off_c, 0, 84, 64
2, 458402, Note_on_c, 0, 82, 92
2, 458405, Note_off_c, 0, 80, 64
2, 458522, Note_on_c, 0, 75, 92
2, 458525, Note_off_c, 0, 82, 64
2, 458642, Note_on_c, 0, 77, 92
2, 458645, Note_off_c, 0, 75, 64
2, 458762, Note_on_c, 0, 79, 92
2, 458765, Note_off_c, 0, 77, 64
2, 458882, Note_on_c, 0, 80, 92
2, 458885, Note_off_c, 0, 79, 64
2, 459482, Note_on_c, 0, 79, 92
2, 459485, Note_off_c, 0, 80, 64
2, 459602, Note_on_c, 0, 80, 92
2, 459605, Note_off_c, 0, 79, 64
2, 459722, Note_on_c, 0, 77, 92
2, 459725, Note_off_c, 0, 80, 64
2, 459842, Note_on_c, 0, 82, 92
2, 459845, Note_off_c, 0, 77, 64
2, 460082, Note_on_c, 0, 75, 92
2, 460085, Note_off_c, 0, 82, 64
2, 460322, Note_on_c, 0, 77, 92
2, 460325, Note_off_c, 0, 75, 64
2, 460565, Note_off_c, 0, 77, 64
2, 460802, Note_on_c, 0, 74, 92
2, 460862, Note_on_c, 0, 75, 92
2, 460865, Note_off_c, 0, 74, 64
2, 460922, Note_on_c, 0, 74, 92
2, 460925, Note_off_c, 0, 75, 64
2, 461282, Note_on_c, 0, 75, 92
2, 461285, Note_off_c, 0, 74, 64
2, 462725, Note_off_c, 0, 75, 64
2, 462848, End_track
3, 0, Start_track
3, 0, Title_t, "Track 2"
3, 0, Program_c, 0, 19
3, 0, Note_on_c, 0, 63, 97
3, 240, Note_off_c, 0, 63, 64
3, 240, Note_on_c, 0, 67, 97
3, 480, Note_off_c, 0, 67, 64
3, 480, Note_on_c, 0, 70, 97
3, 960, Note_off_c, 0, 70, 64
3, 960, Note_on_c, 0, 63, 97
3, 1200, Note_off_c, 0, 63, 64
3, 1200, Note_on_c, 0, 68, 97
3, 1440, Note_off_c, 0, 68, 64
3, 1440, Note_on_c, 0, 72, 97
3, 2040, Note_off_c, 0, 72, 64
3, 2040, Note_on_c, 0, 75, 97
3, 2160, Note_off_c, 0, 75, 64
3, 2160, Note_on_c, 0, 74, 97
3, 2280, Note_off_c, 0, 74, 64
3, 2280, Note_on_c, 0, 72, 97
3, 2400, Note_off_c, 0, 72, 64
3, 2400, Note_on_c, 0, 70, 97
3, 2640, Note_off_c, 0, 70, 64
3, 2640, Note_on_c, 0, 68, 97
3, 2700, Note_off_c, 0, 68, 64
3, 2700, Note_on_c, 0, 70, 97
3, 2760, Note_off_c, 0, 70, 64
3, 2760, Note_on_c, 0, 68, 97
3, 2880, Note_off_c, 0, 68, 64
3, 2880, Note_on_c, 0, 67, 97
3, 3120, Note_off_c, 0, 67, 64
3, 3120, Note_on_c, 0, 65, 97
3, 3240, Note_off_c, 0, 65, 64
3, 3240, Note_on_c, 0, 67, 97
3, 3360, Note_off_c, 0, 67, 64
3, 3360, Note_on_c, 0, 68, 97
3, 3480, Note_off_c, 0, 68, 64
3, 3480, Note_on_c, 0, 67, 97
3, 3600, Note_off_c, 0, 67, 64
3, 3600, Note_on_c, 0, 65, 97
3, 3720, Note_off_c, 0, 65, 64
3, 3720, Note_on_c, 0, 63, 97
3, 3840, Note_off_c, 0, 63, 64
3, 3840, Note_on_c, 0, 65, 97
3, 3960, Note_off_c, 0, 65, 64
3, 3960, Note_on_c, 0, 63, 97
3, 4080, Note_off_c, 0, 63, 64
3, 4080, Note_on_c, 0, 62, 97
3, 4200, Note_off_c, 0, 62, 64
3, 4200, Note_on_c, 0, 60, 97
3, 4320, Note_off_c, 0, 60, 64
3, 4320, Note_on_c, 0, 58, 97
3, 4440, Note_off_c, 0, 58, 64
3, 4440, Note_on_c, 0, 62, 97
3, 4560, Note_off_c, 0, 62, 64
3, 4560, Note_on_c, 0, 63, 97
3, 4680, Note_off_c, 0, 63, 64
3, 4680, Note_on_c, 0, 65, 97
3, 4800, Note_off_c, 0, 65, 64
3, 4800, Note_on_c, 0, 67, 97
3, 4920, Note_off_c, 0, 67, 64
3, 4920, Note_on_c, 0, 65, 97
3, 5040, Note_off_c, 0, 65, 64
3, 5040, Note_on_c, 0, 63, 97
3, 5160, Note_off_c, 0, 63, 64
3, 5160, Note_on_c, 0, 62, 97
3, 5280, Note_off_c, 0, 62, 64
3, 5280, Note_on_c, 0, 60, 97
3, 5400, Note_off_c, 0, 60, 64
3, 5400, Note_on_c, 0, 65, 97
3, 5520, Note_off_c, 0, 65, 64
3, 5520, Note_on_c, 0, 67, 97
3, 5640, Note_off_c, 0, 67, 64
3, 5640, Note_on_c, 0, 69, 97
3, 5760, Note_off_c, 0, 69, 64
3, 5760, Note_on_c, 0, 70, 97
3, 6120, Note_off_c, 0, 70, 64
3, 6120, Note_on_c, 0, 72, 97
3, 6240, Note_off_c, 0, 72, 64
3, 6240, Note_on_c, 0, 69, 97
3, 6600, Note_off_c, 0, 69, 64
3, 6600, Note_on_c, 0, 70, 97
3, 6720, Note_off_c, 0, 70, 64
3, 6720, Note_on_c, 0, 70, 97
3, 6960, Note_off_c, 0, 70, 64
3, 6960, Note_on_c, 0, 65, 97
3, 7200, Note_off_c, 0, 65, 64
3, 7200, Note_on_c, 0, 70, 97
3, 7800, Note_off_c, 0, 70, 64
3, 7800, Note_on_c, 0, 68, 97
3, 7920, Note_off_c, 0, 68, 64
3, 7920, Note_on_c, 0, 67, 97
3, 8040, Note_off_c, 0, 67, 64
3, 8040, Note_on_c, 0, 68, 97
3, 8160, Note_off_c, 0, 68, 64
3, 8160, Note_on_c, 0, 70, 97
3, 8280, Note_off_c, 0, 70, 64
3, 8280, Note_on_c, 0, 68, 97
3, 8400, Note_off_c, 0, 68, 64
3, 8400, Note_on_c, 0, 67, 97
3, 8520, Note_off_c, 0, 67, 64
3, 8520, Note_on_c, 0, 65, 97
3, 8640, Note_off_c, 0, 65, 64
3, 8640, Note_on_c, 0, 67, 97
3, 8880, Note_off_c, 0, 67, 64
3, 8880, Note_on_c, 0, 67, 97
3, 9120, Note_off_c, 0, 67, 64
3, 9120, Note_on_c, 0, 72, 97
3, 9720, Note_off_c, 0, 72, 64
3, 9720, Note_on_c, 0, 70, 97
3, 9840, Note_off_c, 0, 70, 64
3, 9840, Note_on_c, 0, 69, 97
3, 9960, Note_off_c, 0, 69, 64
3, 9960, Note_on_c, 0, 70, 97
3, 10080, Note_off_c, 0, 70, 64
3, 10080, Note_on_c, 0, 72, 97
3, 10200, Note_off_c, 0, 72, 64
3, 10200, Note_on_c, 0, 70, 97
3, 10320, Note_off_c, 0, 70, 64
3, 10320, Note_on_c, 0, 68, 97
3, 10440, Note_off_c, 0, 68, 64
3, 10440, Note_on_c, 0, 67, 97
3, 10560, Note_off_c, 0, 67, 64
3, 10560, Note_on_c, 0, 68, 97
3, 10680, Note_off_c, 0, 68, 64
3, 10680, Note_on_c, 0, 67, 97
3, 10800, Note_off_c, 0, 67, 64
3, 10800, Note_on_c, 0, 68, 97
3, 10920, Note_off_c, 0, 68, 64
3, 10920, Note_on_c, 0, 67, 97
3, 11040, Note_off_c, 0, 67, 64
3, 11040, Note_on_c, 0, 70, 97
3, 11160, Note_off_c, 0, 70, 64
3, 11160, Note_on_c, 0, 68, 97
3, 11280, Note_off_c, 0, 68, 64
3, 11280, Note_on_c, 0, 67, 97
3, 11400, Note_off_c, 0, 67, 64
3, 11400, Note_on_c, 0, 65, 97
3, 11520, Note_off_c, 0, 65, 64
3, 11520, Note_on_c, 0, 67, 97
3, 11640, Note_off_c, 0, 67, 64
3, 11640, Note_on_c, 0, 65, 97
3, 11760, Note_off_c, 0, 65, 64
3, 11760, Note_on_c, 0, 67, 97
3, 11880, Note_off_c, 0, 67, 64
3, 11880, Note_on_c, 0, 70, 97
3, 12000, Note_off_c, 0, 70, 64
3, 12000, Note_on_c, 0, 68, 97
3, 12120, Note_off_c, 0, 68, 64
3, 12120, Note_on_c, 0, 67, 97
3, 12240, Note_off_c, 0, 67, 64
3, 12240, Note_on_c, 0, 65, 97
3, 12360, Note_off_c, 0, 65, 64
3, 12360, Note_on_c, 0, 63, 97
3, 12480, Note_off_c, 0, 63, 64
3, 12480, Note_on_c, 0, 65, 97
3, 12600, Note_off_c, 0, 65, 64
3, 12600, Note_on_c, 0, 63, 97
3, 12720, Note_off_c, 0, 63, 64
3, 12720, Note_on_c, 0, 65, 97
3, 12840, Note_off_c, 0, 65, 64
3, 12840, Note_on_c, 0, 68, 97
3, 12960, Note_off_c, 0, 68, 64
3, 12960, Note_on_c, 0, 67, 97
3, 13080, Note_off_c, 0, 67, 64
3, 13080, Note_on_c, 0, 65, 97
3, 13200, Note_off_c, 0, 65, 64
3, 13200, Note_on_c, 0, 63, 97
3, 13320, Note_off_c, 0, 63, 64
3, 13320, Note_on_c, 0, 62, 97
3, 13440, Note_off_c, 0, 62, 64
3, 13440, Note_on_c, 0, 63, 97
3, 13560, Note_off_c, 0, 63, 64
3, 13560, Note_on_c, 0, 62, 97
3, 13680, Note_off_c, 0, 62, 64
3, 13680, Note_on_c, 0, 60, 97
3, 13800, Note_off_c, 0, 60, 64
3, 13800, Note_on_c, 0, 58, 97
3, 13920, Note_off_c, 0, 58, 64
3, 13920, Note_on_c, 0, 70, 97
3, 14160, Note_off_c, 0, 70, 64
3, 14160, Note_on_c, 0, 68, 97
3, 14400, Note_off_c, 0, 68, 64
3, 14400, Note_on_c, 0, 67, 97
3, 14460, Note_off_c, 0, 67, 64
3, 14460, Note_on_c, 0, 68, 97
3, 14520, Note_off_c, 0, 68, 64
3, 14520, Note_on_c, 0, 67, 97
3, 14880, Note_off_c, 0, 67, 64
3, 14880, Note_on_c, 0, 65, 97
3, 14940, Note_off_c, 0, 65, 64
3, 14940, Note_on_c, 0, 67, 97
3, 15000, Note_off_c, 0, 67, 64
3, 15000, Note_on_c, 0, 65, 97
3, 15360, Note_off_c, 0, 65, 64
3, 15360, Note_on_c, 0, 63, 97
3, 15600, Note_off_c, 0, 63, 64
3, 15600, Note_on_c, 0, 67, 97
3, 15840, Note_off_c, 0, 67, 64
3, 15840, Note_on_c, 0, 70, 97
3, 16320, Note_off_c, 0, 70, 64
3, 16320, Note_on_c, 0, 63, 97
3, 16560, Note_off_c, 0, 63, 64
3, 16560, Note_on_c, 0, 68, 97
3, 16800, Note_off_c, 0, 68, 64
3, 16800, Note_on_c, 0, 72, 97
3, 17400, Note_off_c, 0, 72, 64
3, 17400, Note_on_c, 0, 75, 97
3, 17520, Note_off_c, 0, 75, 64
3, 17520, Note_on_c, 0, 74, 97
3, 17640, Note_off_c, 0, 74, 64
3, 17640, Note_on_c, 0, 72, 97
3, 17760, Note_off_c, 0, 72, 64
3, 17760, Note_on_c, 0, 70, 97
3, 18000, Note_off_c, 0, 70, 64
3, 18000, Note_on_c, 0, 68, 97
3, 18240, Note_off_c, 0, 68, 64
3, 18240, Note_on_c, 0, 67, 97
3, 18480, Note_off_c, 0, 67, 64
3, 18480, Note_on_c, 0, 75, 97
3, 18720, Note_off_c, 0, 75, 64
3, 18720, Note_on_c, 0, 65, 97
3, 18960, Note_off_c, 0, 65, 64
3, 18960, Note_on_c, 0, 74, 97
3, 19200, Note_off_c, 0, 74, 64
3, 19200, Note_on_c, 0, 63, 97
3, 19680, Note_off_c, 0, 63, 64
3, 19920, Note_on_c, 0, 63, 97
3, 20160, Note_off_c, 0, 63, 64
3, 20160, Note_on_c, 0, 62, 97
3, 20400, Note_off_c, 0, 62, 64
3, 20400, Note_on_c, 0, 65, 97
3, 20640, Note_off_c, 0, 65, 64
3, 20640, Note_on_c, 0, 70, 97
3, 21120, Note_off_c, 0, 70, 64
3, 21120, Note_on_c, 0, 63, 97
3, 21360, Note_off_c, 0, 63, 64
3, 21360, Note_on_c, 0, 67, 97
3, 21600, Note_off_c, 0, 67, 64
3, 21600, Note_on_c, 0, 70, 97
3, 22080, Note_off_c, 0, 70, 64
3, 22080, Note_on_c, 0, 65, 97
3, 22200, Note_off_c, 0, 65, 64
3, 22200, Note_on_c, 0, 68, 97
3, 22320, Note_off_c, 0, 68, 64
3, 22320, Note_on_c, 0, 74, 97
3, 22440, Note_off_c, 0, 74, 64
3, 22440, Note_on_c, 0, 72, 97
3, 22560, Note_off_c, 0, 72, 64
3, 22560, Note_on_c, 0, 74, 97
3, 22680, Note_off_c, 0, 74, 64
3, 22680, Note_on_c, 0, 68, 97
3, 22800, Note_off_c, 0, 68, 64
3, 22800, Note_on_c, 0, 65, 97
3, 22920, Note_off_c, 0, 65, 64
3, 22920, Note_on_c, 0, 68, 97
3, 23040, Note_off_c, 0, 68, 64
3, 23040, Note_on_c, 0, 67, 97
3, 23160, Note_off_c, 0, 67, 64
3, 23160, Note_on_c, 0, 70, 97
3, 23280, Note_off_c, 0, 70, 64
3, 23280, Note_on_c, 0, 75, 97
3, 23400, Note_off_c, 0, 75, 64
3, 23400, Note_on_c, 0, 70, 97
3, 23520, Note_off_c, 0, 70, 64
3, 23520, Note_on_c, 0, 67, 97
3, 23640, Note_off_c, 0, 67, 64
3, 23640, Note_on_c, 0, 70, 97
3, 23760, Note_off_c, 0, 70, 64
3, 23760, Note_on_c, 0, 63, 97
3, 23880, Note_off_c, 0, 63, 64
3, 23880, Note_on_c, 0, 62, 97
3, 24000, Note_off_c, 0, 62, 64
3, 24000, Note_on_c, 0, 64, 97
3, 24240, Note_off_c, 0, 64, 64
3, 24240, Note_on_c, 0, 68, 97
3, 24480, Note_off_c, 0, 68, 64
3, 24480, Note_on_c, 0, 72, 97
3, 24960, Note_off_c, 0, 72, 64
3, 24960, Note_on_c, 0, 65, 97
3, 25200, Note_off_c, 0, 65, 64
3, 25200, Note_on_c, 0, 69, 97
3, 25440, Note_off_c, 0, 69, 64
3, 25440, Note_on_c, 0, 72, 97
3, 25920, Note_off_c, 0, 72, 64
3, 25920, Note_on_c, 0, 67, 97
3, 26040, Note_off_c, 0, 67, 64
3, 26040, Note_on_c, 0, 70, 97
3, 26160, Note_off_c, 0, 70, 64
3, 26160, Note_on_c, 0, 76, 97
3, 26280, Note_off_c, 0, 76, 64
3, 26280, Note_on_c, 0, 74, 97
3, 26400, Note_off_c, 0, 74, 64
3, 26400, Note_on_c, 0, 76, 97
3, 26520, Note_off_c, 0, 76, 64
3, 26520, Note_on_c, 0, 70, 97
3, 26640, Note_off_c, 0, 70, 64
3, 26640, Note_on_c, 0, 67, 97
3, 26760, Note_off_c, 0, 67, 64
3, 26760, Note_on_c, 0, 70, 97
3, 26880, Note_off_c, 0, 70, 64
3, 26880, Note_on_c, 0, 69, 97
3, 27000, Note_off_c, 0, 69, 64
3, 27000, Note_on_c, 0, 72, 97
3, 27120, Note_off_c, 0, 72, 64
3, 27120, Note_on_c, 0, 77, 97
3, 27240, Note_off_c, 0, 77, 64
3, 27240, Note_on_c, 0, 72, 97
3, 27360, Note_off_c, 0, 72, 64
3, 27360, Note_on_c, 0, 69, 97
3, 27480, Note_off_c, 0, 69, 64
3, 27480, Note_on_c, 0, 72, 97
3, 27600, Note_off_c, 0, 72, 64
3, 27600, Note_on_c, 0, 65, 97
3, 27720, Note_off_c, 0, 65, 64
3, 27720, Note_on_c, 0, 64, 97
3, 27840, Note_off_c, 0, 64, 64
3, 27840, Note_on_c, 0, 66, 97
3, 28080, Note_off_c, 0, 66, 64
3, 28080, Note_on_c, 0, 69, 97
3, 28320, Note_off_c, 0, 69, 64
3, 28320, Note_on_c, 0, 74, 97
3, 28800, Note_off_c, 0, 74, 64
3, 28800, Note_on_c, 0, 67, 97
3, 29040, Note_off_c, 0, 67, 64
3, 29040, Note_on_c, 0, 70, 97
3, 29280, Note_off_c, 0, 70, 64
3, 29280, Note_on_c, 0, 75, 97
3, 29880, Note_off_c, 0, 75, 64
3, 29880, Note_on_c, 0, 74, 97
3, 30000, Note_off_c, 0, 74, 64
3, 30000, Note_on_c, 0, 72, 97
3, 30120, Note_off_c, 0, 72, 64
3, 30120, Note_on_c, 0, 74, 97
3, 30240, Note_off_c, 0, 74, 64
3, 30240, Note_on_c, 0, 75, 97
3, 30360, Note_off_c, 0, 75, 64
3, 30360, Note_on_c, 0, 74, 97
3, 30480, Note_off_c, 0, 74, 64
3, 30480, Note_on_c, 0, 72, 97
3, 30600, Note_off_c, 0, 72, 64
3, 30600, Note_on_c, 0, 70, 97
3, 30720, Note_off_c, 0, 70, 64
3, 30720, Note_on_c, 0, 69, 97
3, 31200, Note_off_c, 0, 69, 64
3, 31320, Note_on_c, 0, 69, 97
3, 31440, Note_off_c, 0, 69, 64
3, 31440, Note_on_c, 0, 70, 97
3, 31560, Note_off_c, 0, 70, 64
3, 31560, Note_on_c, 0, 72, 97
3, 31680, Note_off_c, 0, 72, 64
3, 31680, Note_on_c, 0, 70, 97
3, 31800, Note_off_c, 0, 70, 64
3, 31800, Note_on_c, 0, 74, 97
3, 31920, Note_off_c, 0, 74, 64
3, 31920, Note_on_c, 0, 77, 97
3, 32040, Note_off_c, 0, 77, 64
3, 32040, Note_on_c, 0, 75, 97
3, 32160, Note_off_c, 0, 75, 64
3, 32160, Note_on_c, 0, 77, 97
3, 32280, Note_off_c, 0, 77, 64
3, 32280, Note_on_c, 0, 74, 97
3, 32400, Note_off_c, 0, 74, 64
3, 32400, Note_on_c, 0, 70, 97
3, 32520, Note_off_c, 0, 70, 64
3, 32520, Note_on_c, 0, 74, 97
3, 32640, Note_off_c, 0, 74, 64
3, 32640, Note_on_c, 0, 68, 97
3, 32760, Note_off_c, 0, 68, 64
3, 32760, Note_on_c, 0, 74, 97
3, 32880, Note_off_c, 0, 74, 64
3, 32880, Note_on_c, 0, 77, 97
3, 33000, Note_off_c, 0, 77, 64
3, 33000, Note_on_c, 0, 75, 97
3, 33120, Note_off_c, 0, 75, 64
3, 33120, Note_on_c, 0, 77, 97
3, 33240, Note_off_c, 0, 77, 64
3, 33240, Note_on_c, 0, 74, 97
3, 33360, Note_off_c, 0, 74, 64
3, 33360, Note_on_c, 0, 68, 97
3, 33480, Note_off_c, 0, 68, 64
3, 33480, Note_on_c, 0, 74, 97
3, 33600, Note_off_c, 0, 74, 64
3, 33600, Note_on_c, 0, 67, 97
3, 33720, Note_off_c, 0, 67, 64
3, 33720, Note_on_c, 0, 74, 97
3, 33840, Note_off_c, 0, 74, 64
3, 33840, Note_on_c, 0, 77, 97
3, 33960, Note_off_c, 0, 77, 64
3, 33960, Note_on_c, 0, 75, 97
3, 34080, Note_off_c, 0, 75, 64
3, 34080, Note_on_c, 0, 77, 97
3, 34200, Note_off_c, 0, 77, 64
3, 34200, Note_on_c, 0, 74, 97
3, 34320, Note_off_c, 0, 74, 64
3, 34320, Note_on_c, 0, 67, 97
3, 34440, Note_off_c, 0, 67, 64
3, 34440, Note_on_c, 0, 74, 97
3, 34560, Note_off_c, 0, 74, 64
3, 34560, Note_on_c, 0, 67, 97
3, 34680, Note_off_c, 0, 67, 64
3, 34680, Note_on_c, 0, 72, 97
3, 34800, Note_off_c, 0, 72, 64
3, 34800, Note_on_c, 0, 75, 97
3, 34920, Note_off_c, 0, 75, 64
3, 34920, Note_on_c, 0, 74, 97
3, 35040, Note_off_c, 0, 74, 64
3, 35040, Note_on_c, 0, 75, 97
3, 35160, Note_off_c, 0, 75, 64
3, 35160, Note_on_c, 0, 72, 97
3, 35280, Note_off_c, 0, 72, 64
3, 35280, Note_on_c, 0, 67, 97
3, 35400, Note_off_c, 0, 67, 64
3, 35400, Note_on_c, 0, 72, 97
3, 35520, Note_off_c, 0, 72, 64
3, 35520, Note_on_c, 0, 65, 97
3, 35640, Note_off_c, 0, 65, 64
3, 35640, Note_on_c, 0, 72, 97
3, 35760, Note_off_c, 0, 72, 64
3, 35760, Note_on_c, 0, 75, 97
3, 35880, Note_off_c, 0, 75, 64
3, 35880, Note_on_c, 0, 74, 97
3, 36000, Note_off_c, 0, 74, 64
3, 36000, Note_on_c, 0, 75, 97
3, 36120, Note_off_c, 0, 75, 64
3, 36120, Note_on_c, 0, 72, 97
3, 36240, Note_off_c, 0, 72, 64
3, 36240, Note_on_c, 0, 65, 97
3, 36360, Note_off_c, 0, 65, 64
3, 36360, Note_on_c, 0, 72, 97
3, 36480, Note_off_c, 0, 72, 64
3, 36480, Note_on_c, 0, 65, 97
3, 36600, Note_off_c, 0, 65, 64
3, 36600, Note_on_c, 0, 70, 97
3, 36720, Note_off_c, 0, 70, 64
3, 36720, Note_on_c, 0, 74, 97
3, 36840, Note_off_c, 0, 74, 64
3, 36840, Note_on_c, 0, 72, 97
3, 36960, Note_off_c, 0, 72, 64
3, 36960, Note_on_c, 0, 74, 97
3, 37080, Note_off_c, 0, 74, 64
3, 37080, Note_on_c, 0, 70, 97
3, 37200, Note_off_c, 0, 70, 64
3, 37200, Note_on_c, 0, 65, 97
3, 37320, Note_off_c, 0, 65, 64
3, 37320, Note_on_c, 0, 70, 97
3, 37440, Note_off_c, 0, 70, 64
3, 37440, Note_on_c, 0, 64, 97
3, 37560, Note_off_c, 0, 64, 64
3, 37560, Note_on_c, 0, 70, 97
3, 37680, Note_off_c, 0, 70, 64
3, 37680, Note_on_c, 0, 73, 97
3, 37800, Note_off_c, 0, 73, 64
3, 37800, Note_on_c, 0, 72, 97
3, 37920, Note_off_c, 0, 72, 64
3, 37920, Note_on_c, 0, 73, 97
3, 38040, Note_off_c, 0, 73, 64
3, 38040, Note_on_c, 0, 70, 97
3, 38160, Note_off_c, 0, 70, 64
3, 38160, Note_on_c, 0, 64, 97
3, 38280, Note_off_c, 0, 64, 64
3, 38280, Note_on_c, 0, 70, 97
3, 38400, Note_off_c, 0, 70, 64
3, 38400, Note_on_c, 0, 65, 97
3, 38520, Note_off_c, 0, 65, 64
3, 38520, Note_on_c, 0, 67, 97
3, 38640, Note_off_c, 0, 67, 64
3, 38640, Note_on_c, 0, 69, 97
3, 38760, Note_off_c, 0, 69, 64
3, 38760, Note_on_c, 0, 70, 97
3, 38880, Note_off_c, 0, 70, 64
3, 38880, Note_on_c, 0, 72, 97
3, 39480, Note_off_c, 0, 72, 64
3, 39480, Note_on_c, 0, 65, 97
3, 39600, Note_off_c, 0, 65, 64
3, 39600, Note_on_c, 0, 62, 97
3, 39720, Note_off_c, 0, 62, 64
3, 39720, Note_on_c, 0, 65, 97
3, 39840, Note_off_c, 0, 65, 64
3, 39840, Note_on_c, 0, 67, 97
3, 39960, Note_off_c, 0, 67, 64
3, 39960, Note_on_c, 0, 63, 97
3, 40080, Note_off_c, 0, 63, 64
3, 40080, Note_on_c, 0, 60, 97
3, 40200, Note_off_c, 0, 60, 64
3, 40200, Note_on_c, 0, 63, 97
3, 40320, Note_off_c, 0, 63, 64
3, 40320, Note_on_c, 0, 62, 97
3, 40800, Note_off_c, 0, 62, 64
3, 44160, Note_on_c, 0, 63, 97
3, 44400, Note_off_c, 0, 63, 64
3, 44400, Note_on_c, 0, 67, 97
3, 44640, Note_off_c, 0, 67, 64
3, 44640, Note_on_c, 0, 70, 97
3, 45120, Note_off_c, 0, 70, 64
3, 45120, Note_on_c, 0, 63, 97
3, 45360, Note_off_c, 0, 63, 64
3, 45360, Note_on_c, 0, 68, 97
3, 45600, Note_off_c, 0, 68, 64
3, 45600, Note_on_c, 0, 72, 97
3, 46200, Note_off_c, 0, 72, 64
3, 46200, Note_on_c, 0, 75, 97
3, 46320, Note_off_c, 0, 75, 64
3, 46320, Note_on_c, 0, 74, 97
3, 46440, Note_off_c, 0, 74, 64
3, 46440, Note_on_c, 0, 72, 97
3, 46560, Note_off_c, 0, 72, 64
3, 46560, Note_on_c, 0, 70, 97
3, 46800, Note_off_c, 0, 70, 64
3, 46800, Note_on_c, 0, 68, 97
3, 46860, Note_off_c, 0, 68, 64
3, 46860, Note_on_c, 0, 70, 97
3, 46920, Note_off_c, 0, 70, 64
3, 46920, Note_on_c, 0, 68, 97
3, 47040, Note_off_c, 0, 68, 64
3, 47040, Note_on_c, 0, 67, 97
3, 47280, Note_off_c, 0, 67, 64
3, 47280, Note_on_c, 0, 65, 97
3, 47400, Note_off_c, 0, 65, 64
3, 47400, Note_on_c, 0, 67, 97
3, 47520, Note_off_c, 0, 67, 64
3, 47520, Note_on_c, 0, 68, 97
3, 47640, Note_off_c, 0, 68, 64
3, 47640, Note_on_c, 0, 67, 97
3, 47760, Note_off_c, 0, 67, 64
3, 47760, Note_on_c, 0, 65, 97
3, 47880, Note_off_c, 0, 65, 64
3, 47880, Note_on_c, 0, 63, 97
3, 48000, Note_off_c, 0, 63, 64
3, 48000, Note_on_c, 0, 65, 97
3, 48240, Note_off_c, 0, 65, 64
3, 48240, Note_on_c, 0, 65, 97
3, 48480, Note_off_c, 0, 65, 64
3, 48480, Note_on_c, 0, 70, 97
3, 49080, Note_off_c, 0, 70, 64
3, 49080, Note_on_c, 0, 68, 97
3, 49200, Note_off_c, 0, 68, 64
3, 49200, Note_on_c, 0, 67, 97
3, 49320, Note_off_c, 0, 67, 64
3, 49320, Note_on_c, 0, 68, 97
3, 49440, Note_off_c, 0, 68, 64
3, 49440, Note_on_c, 0, 70, 97
3, 49560, Note_off_c, 0, 70, 64
3, 49560, Note_on_c, 0, 68, 97
3, 49680, Note_off_c, 0, 68, 64
3, 49680, Note_on_c, 0, 67, 97
3, 49800, Note_off_c, 0, 67, 64
3, 49800, Note_on_c, 0, 65, 97
3, 49920, Note_off_c, 0, 65, 64
3, 49920, Note_on_c, 0, 67, 97
3, 50160, Note_off_c, 0, 67, 64
3, 50160, Note_on_c, 0, 67, 97
3, 50400, Note_off_c, 0, 67, 64
3, 50400, Note_on_c, 0, 72, 97
3, 51120, Note_off_c, 0, 72, 64
3, 51120, Note_on_c, 0, 65, 97
3, 51360, Note_off_c, 0, 65, 64
3, 51360, Note_on_c, 0, 67, 97
3, 51480, Note_off_c, 0, 67, 64
3, 51480, Note_on_c, 0, 68, 97
3, 51600, Note_off_c, 0, 68, 64
3, 51600, Note_on_c, 0, 70, 97
3, 52080, Note_off_c, 0, 70, 64
3, 52080, Note_on_c, 0, 63, 97
3, 52320, Note_off_c, 0, 63, 64
3, 52320, Note_on_c, 0, 65, 97
3, 52440, Note_off_c, 0, 65, 64
3, 52440, Note_on_c, 0, 67, 97
3, 52560, Note_off_c, 0, 67, 64
3, 52560, Note_on_c, 0, 68, 97
3, 53040, Note_off_c, 0, 68, 64
3, 53040, Note_on_c, 0, 67, 97
3, 53160, Note_off_c, 0, 67, 64
3, 53160, Note_on_c, 0, 65, 97
3, 53280, Note_off_c, 0, 65, 64
3, 53280, Note_on_c, 0, 64, 97
3, 53400, Note_off_c, 0, 64, 64
3, 53400, Note_on_c, 0, 65, 97
3, 53520, Note_off_c, 0, 65, 64
3, 53520, Note_on_c, 0, 67, 97
3, 54000, Note_off_c, 0, 67, 64
3, 54000, Note_on_c, 0, 65, 97
3, 54240, Note_off_c, 0, 65, 64
3, 54480, Note_on_c, 0, 68, 97
3, 54840, Note_off_c, 0, 68, 64
3, 54840, Note_on_c, 0, 67, 97
3, 54960, Note_off_c, 0, 67, 64
3, 54960, Note_on_c, 0, 68, 97
3, 55080, Note_off_c, 0, 68, 64
3, 55080, Note_on_c, 0, 72, 97
3, 55200, Note_off_c, 0, 72, 64
3, 55200, Note_on_c, 0, 70, 97
3, 55320, Note_off_c, 0, 70, 64
3, 55320, Note_on_c, 0, 68, 97
3, 55440, Note_off_c, 0, 68, 64
3, 55440, Note_on_c, 0, 67, 97
3, 55560, Note_off_c, 0, 67, 64
3, 55560, Note_on_c, 0, 65, 97
3, 55680, Note_off_c, 0, 65, 64
3, 55680, Note_on_c, 0, 64, 97
3, 55920, Note_off_c, 0, 64, 64
3, 55920, Note_on_c, 0, 67, 97
3, 56160, Note_off_c, 0, 67, 64
3, 56160, Note_on_c, 0, 70, 97
3, 56760, Note_off_c, 0, 70, 64
3, 56760, Note_on_c, 0, 67, 97
3, 56880, Note_off_c, 0, 67, 64
3, 56880, Note_on_c, 0, 68, 97
3, 57000, Note_off_c, 0, 68, 64
3, 57000, Note_on_c, 0, 72, 97
3, 57120, Note_off_c, 0, 72, 64
3, 57120, Note_on_c, 0, 70, 97
3, 57240, Note_off_c, 0, 70, 64
3, 57240, Note_on_c, 0, 68, 97
3, 57360, Note_off_c, 0, 68, 64
3, 57360, Note_on_c, 0, 67, 97
3, 57480, Note_off_c, 0, 67, 64
3, 57480, Note_on_c, 0, 65, 97
3, 57600, Note_off_c, 0, 65, 64
3, 57600, Note_on_c, 0, 77, 97
3, 58800, Note_off_c, 0, 77, 64
3, 58800, Note_on_c, 0, 73, 97
3, 59040, Note_off_c, 0, 73, 64
3, 59040, Note_on_c, 0, 64, 97
3, 59160, Note_off_c, 0, 64, 64
3, 59160, Note_on_c, 0, 65, 97
3, 59280, Note_off_c, 0, 65, 64
3, 59280, Note_on_c, 0, 67, 97
3, 59760, Note_off_c, 0, 67, 64
3, 59760, Note_on_c, 0, 60, 97
3, 60000, Note_off_c, 0, 60, 64
3, 60000, Note_on_c, 0, 62, 97
3, 60120, Note_off_c, 0, 62, 64
3, 60120, Note_on_c, 0, 64, 97
3, 60240, Note_off_c, 0, 64, 64
3, 60240, Note_on_c, 0, 65, 97
3, 60600, Note_off_c, 0, 65, 64
3, 60600, Note_on_c, 0, 56, 97
3, 60720, Note_off_c, 0, 56, 64
3, 60720, Note_on_c, 0, 58, 97
3, 60840, Note_off_c, 0, 58, 64
3, 60840, Note_on_c, 0, 61, 97
3, 60960, Note_off_c, 0, 61, 64
3, 60960, Note_on_c, 0, 60, 97
3, 61080, Note_off_c, 0, 60, 64
3, 61080, Note_on_c, 0, 58, 97
3, 61200, Note_off_c, 0, 58, 64
3, 61200, Note_on_c, 0, 56, 97
3, 61320, Note_off_c, 0, 56, 64
3, 61320, Note_on_c, 0, 55, 97
3, 61440, Note_off_c, 0, 55, 64
3, 61440, Note_on_c, 0, 67, 97
3, 61680, Note_off_c, 0, 67, 64
3, 61680, Note_on_c, 0, 64, 97
3, 61920, Note_off_c, 0, 64, 64
3, 61920, Note_on_c, 0, 65, 97
3, 62520, Note_off_c, 0, 65, 64
3, 62520, Note_on_c, 0, 68, 97
3, 62640, Note_off_c, 0, 68, 64
3, 62640, Note_on_c, 0, 67, 97
3, 62760, Note_off_c, 0, 67, 64
3, 62760, Note_on_c, 0, 65, 97
3, 62880, Note_off_c, 0, 65, 64
3, 62880, Note_on_c, 0, 64, 97
3, 63000, Note_off_c, 0, 64, 64
3, 63000, Note_on_c, 0, 62, 97
3, 63120, Note_off_c, 0, 62, 64
3, 63120, Note_on_c, 0, 60, 97
3, 63240, Note_off_c, 0, 60, 64
3, 63240, Note_on_c, 0, 62, 97
3, 63360, Note_off_c, 0, 62, 64
3, 63360, Note_on_c, 0, 63, 97
3, 63480, Note_off_c, 0, 63, 64
3, 63480, Note_on_c, 0, 70, 97
3, 63600, Note_off_c, 0, 70, 64
3, 63600, Note_on_c, 0, 69, 97
3, 63720, Note_off_c, 0, 69, 64
3, 63720, Note_on_c, 0, 67, 97
3, 63840, Note_off_c, 0, 67, 64
3, 63840, Note_on_c, 0, 65, 97
3, 63960, Note_off_c, 0, 65, 64
3, 63960, Note_on_c, 0, 69, 97
3, 64080, Note_off_c, 0, 69, 64
3, 64080, Note_on_c, 0, 70, 97
3, 64200, Note_off_c, 0, 70, 64
3, 64200, Note_on_c, 0, 72, 97
3, 64320, Note_off_c, 0, 72, 64
3, 64320, Note_on_c, 0, 73, 97
3, 64440, Note_off_c, 0, 73, 64
3, 64440, Note_on_c, 0, 72, 97
3, 64560, Note_off_c, 0, 72, 64
3, 64560, Note_on_c, 0, 70, 97
3, 64680, Note_off_c, 0, 70, 64
3, 64680, Note_on_c, 0, 68, 97
3, 64800, Note_off_c, 0, 68, 64
3, 64800, Note_on_c, 0, 67, 97
3, 64920, Note_off_c, 0, 67, 64
3, 64920, Note_on_c, 0, 76, 97
3, 65040, Note_off_c, 0, 76, 64
3, 65040, Note_on_c, 0, 77, 97
3, 65160, Note_off_c, 0, 77, 64
3, 65160, Note_on_c, 0, 79, 97
3, 65280, Note_off_c, 0, 79, 64
3, 65280, Note_on_c, 0, 77, 97
3, 65400, Note_off_c, 0, 77, 64
3, 65400, Note_on_c, 0, 73, 97
3, 65520, Note_off_c, 0, 73, 64
3, 65520, Note_on_c, 0, 72, 97
3, 65640, Note_off_c, 0, 72, 64
3, 65640, Note_on_c, 0, 70, 97
3, 65760, Note_off_c, 0, 70, 64
3, 65760, Note_on_c, 0, 68, 97
3, 65880, Note_off_c, 0, 68, 64
3, 65880, Note_on_c, 0, 70, 97
3, 66000, Note_off_c, 0, 70, 64
3, 66000, Note_on_c, 0, 72, 97
3, 66120, Note_off_c, 0, 72, 64
3, 66120, Note_on_c, 0, 67, 97
3, 66240, Note_off_c, 0, 67, 64
3, 66240, Note_on_c, 0, 65, 97
3, 66360, Note_off_c, 0, 65, 64
3, 66360, Note_on_c, 0, 67, 97
3, 66480, Note_off_c, 0, 67, 64
3, 66480, Note_on_c, 0, 68, 97
3, 66600, Note_off_c, 0, 68, 64
3, 66600, Note_on_c, 0, 63, 97
3, 66720, Note_off_c, 0, 63, 64
3, 66720, Note_on_c, 0, 61, 97
3, 66840, Note_off_c, 0, 61, 64
3, 66840, Note_on_c, 0, 67, 97
3, 66960, Note_off_c, 0, 67, 64
3, 66960, Note_on_c, 0, 60, 97
3, 67080, Note_off_c, 0, 60, 64
3, 67080, Note_on_c, 0, 70, 97
3, 67200, Note_off_c, 0, 70, 64
3, 67200, Note_on_c, 0, 68, 97
3, 67320, Note_off_c, 0, 68, 64
3, 67320, Note_on_c, 0, 72, 97
3, 67440, Note_off_c, 0, 72, 64
3, 67440, Note_on_c, 0, 77, 97
3, 67560, Note_off_c, 0, 77, 64
3, 67560, Note_on_c, 0, 76, 97
3, 67680, Note_off_c, 0, 76, 64
3, 67680, Note_on_c, 0, 77, 97
3, 67800, Note_off_c, 0, 77, 64
3, 67800, Note_on_c, 0, 72, 97
3, 67920, Note_off_c, 0, 72, 64
3, 67920, Note_on_c, 0, 68, 97
3, 68040, Note_off_c, 0, 68, 64
3, 68040, Note_on_c, 0, 72, 97
3, 68160, Note_off_c, 0, 72, 64
3, 68160, Note_on_c, 0, 67, 97
3, 68280, Note_off_c, 0, 67, 64
3, 68280, Note_on_c, 0, 70, 97
3, 68400, Note_off_c, 0, 70, 64
3, 68400, Note_on_c, 0, 76, 97
3, 68520, Note_off_c, 0, 76, 64
3, 68520, Note_on_c, 0, 74, 97
3, 68640, Note_off_c, 0, 74, 64
3, 68640, Note_on_c, 0, 76, 97
3, 68760, Note_off_c, 0, 76, 64
3, 68760, Note_on_c, 0, 70, 97
3, 68880, Note_off_c, 0, 70, 64
3, 68880, Note_on_c, 0, 67, 97
3, 69000, Note_off_c, 0, 67, 64
3, 69000, Note_on_c, 0, 70, 97
3, 69120, Note_off_c, 0, 70, 64
3, 69120, Note_on_c, 0, 68, 97
3, 69240, Note_off_c, 0, 68, 64
3, 69240, Note_on_c, 0, 72, 97
3, 69360, Note_off_c, 0, 72, 64
3, 69360, Note_on_c, 0, 77, 97
3, 69480, Note_off_c, 0, 77, 64
3, 69480, Note_on_c, 0, 76, 97
3, 69600, Note_off_c, 0, 76, 64
3, 69600, Note_on_c, 0, 77, 97
3, 69720, Note_off_c, 0, 77, 64
3, 69720, Note_on_c, 0, 72, 97
3, 69840, Note_off_c, 0, 72, 64
3, 69840, Note_on_c, 0, 68, 97
3, 69960, Note_off_c, 0, 68, 64
3, 69960, Note_on_c, 0, 72, 97
3, 70080, Note_off_c, 0, 72, 64
3, 70080, Note_on_c, 0, 67, 97
3, 70200, Note_off_c, 0, 67, 64
3, 70200, Note_on_c, 0, 70, 97
3, 70320, Note_off_c, 0, 70, 64
3, 70320, Note_on_c, 0, 76, 97
3, 70440, Note_off_c, 0, 76, 64
3, 70440, Note_on_c, 0, 74, 97
3, 70560, Note_off_c, 0, 74, 64
3, 70560, Note_on_c, 0, 76, 97
3, 70680, Note_off_c, 0, 76, 64
3, 70680, Note_on_c, 0, 70, 97
3, 70800, Note_off_c, 0, 70, 64
3, 70800, Note_on_c, 0, 67, 97
3, 70920, Note_off_c, 0, 67, 64
3, 70920, Note_on_c, 0, 70, 97
3, 71040, Note_off_c, 0, 70, 64
3, 71040, Note_on_c, 0, 68, 97
3, 71520, Note_off_c, 0, 68, 64
3, 71760, Note_on_c, 0, 68, 97
3, 72000, Note_off_c, 0, 68, 64
3, 72000, Note_on_c, 0, 67, 97
3, 72240, Note_off_c, 0, 67, 64
3, 72240, Note_on_c, 0, 70, 97
3, 72480, Note_off_c, 0, 70, 64
3, 72480, Note_on_c, 0, 75, 97
3, 72960, Note_off_c, 0, 75, 64
3, 72960, Note_on_c, 0, 68, 97
3, 73200, Note_off_c, 0, 68, 64
3, 73200, Note_on_c, 0, 72, 97
3, 73440, Note_off_c, 0, 72, 64
3, 73440, Note_on_c, 0, 75, 97
3, 73920, Note_off_c, 0, 75, 64
3, 73920, Note_on_c, 0, 67, 97
3, 74160, Note_off_c, 0, 67, 64
3, 74160, Note_on_c, 0, 70, 97
3, 74400, Note_off_c, 0, 70, 64
3, 74400, Note_on_c, 0, 75, 97
3, 75000, Note_off_c, 0, 75, 64
3, 75000, Note_on_c, 0, 73, 97
3, 75120, Note_off_c, 0, 73, 64
3, 75120, Note_on_c, 0, 72, 97
3, 75240, Note_off_c, 0, 72, 64
3, 75240, Note_on_c, 0, 70, 97
3, 75360, Note_off_c, 0, 70, 64
3, 75360, Note_on_c, 0, 68, 97
3, 75480, Note_off_c, 0, 68, 64
3, 75480, Note_on_c, 0, 67, 97
3, 75600, Note_off_c, 0, 67, 64
3, 75600, Note_on_c, 0, 65, 97
3, 75720, Note_off_c, 0, 65, 64
3, 75720, Note_on_c, 0, 63, 97
3, 75840, Note_off_c, 0, 63, 64
3, 75840, Note_on_c, 0, 61, 97
3, 75960, Note_off_c, 0, 61, 64
3, 75960, Note_on_c, 0, 63, 97
3, 76080, Note_off_c, 0, 63, 64
3, 76080, Note_on_c, 0, 67, 97
3, 76200, Note_off_c, 0, 67, 64
3, 76200, Note_on_c, 0, 65, 97
3, 76320, Note_off_c, 0, 65, 64
3, 76320, Note_on_c, 0, 67, 97
3, 76440, Note_off_c, 0, 67, 64
3, 76440, Note_on_c, 0, 61, 97
3, 76560, Note_off_c, 0, 61, 64
3, 76560, Note_on_c, 0, 58, 97
3, 76680, Note_off_c, 0, 58, 64
3, 76680, Note_on_c, 0, 61, 97
3, 76800, Note_off_c, 0, 61, 64
3, 76800, Note_on_c, 0, 60, 97
3, 76920, Note_off_c, 0, 60, 64
3, 76920, Note_on_c, 0, 63, 97
3, 77040, Note_off_c, 0, 63, 64
3, 77040, Note_on_c, 0, 68, 97
3, 77160, Note_off_c, 0, 68, 64
3, 77160, Note_on_c, 0, 63, 97
3, 77280, Note_off_c, 0, 63, 64
3, 77280, Note_on_c, 0, 60, 97
3, 77400, Note_off_c, 0, 60, 64
3, 77400, Note_on_c, 0, 63, 97
3, 77520, Note_off_c, 0, 63, 64
3, 77520, Note_on_c, 0, 56, 97
3, 77640, Note_off_c, 0, 56, 64
3, 77640, Note_on_c, 0, 60, 97
3, 77760, Note_off_c, 0, 60, 64
3, 77760, Note_on_c, 0, 55, 97
3, 78000, Note_off_c, 0, 55, 64
3, 78000, Note_on_c, 0, 58, 97
3, 78240, Note_off_c, 0, 58, 64
3, 78240, Note_on_c, 0, 63, 97
3, 78720, Note_off_c, 0, 63, 64
3, 78720, Note_on_c, 0, 56, 97
3, 78960, Note_off_c, 0, 56, 64
3, 78960, Note_on_c, 0, 60, 97
3, 79200, Note_off_c, 0, 60, 64
3, 79200, Note_on_c, 0, 63, 97
3, 79800, Note_off_c, 0, 63, 64
3, 79800, Note_on_c, 0, 65, 97
3, 79920, Note_off_c, 0, 65, 64
3, 79920, Note_on_c, 0, 69, 97
3, 80040, Note_off_c, 0, 69, 64
3, 80040, Note_on_c, 0, 67, 97
3, 80160, Note_off_c, 0, 67, 64
3, 80160, Note_on_c, 0, 69, 97
3, 80280, Note_off_c, 0, 69, 64
3, 80280, Note_on_c, 0, 63, 97
3, 80400, Note_off_c, 0, 63, 64
3, 80400, Note_on_c, 0, 60, 97
3, 80520, Note_off_c, 0, 60, 64
3, 80520, Note_on_c, 0, 63, 97
3, 80640, Note_off_c, 0, 63, 64
3, 80640, Note_on_c, 0, 62, 97
3, 80760, Note_off_c, 0, 62, 64
3, 80760, Note_on_c, 0, 65, 97
3, 80880, Note_off_c, 0, 65, 64
3, 80880, Note_on_c, 0, 70, 97
3, 81000, Note_off_c, 0, 70, 64
3, 81000, Note_on_c, 0, 65, 97
3, 81120, Note_off_c, 0, 65, 64
3, 81120, Note_on_c, 0, 62, 97
3, 81240, Note_off_c, 0, 62, 64
3, 81240, Note_on_c, 0, 65, 97
3, 81360, Note_off_c, 0, 65, 64
3, 81360, Note_on_c, 0, 58, 97
3, 81480, Note_off_c, 0, 58, 64
3, 81480, Note_on_c, 0, 62, 97
3, 81600, Note_off_c, 0, 62, 64
3, 81600, Note_on_c, 0, 57, 97
3, 81840, Note_off_c, 0, 57, 64
3, 81840, Note_on_c, 0, 60, 97
3, 82080, Note_off_c, 0, 60, 64
3, 82080, Note_on_c, 0, 65, 97
3, 82560, Note_off_c, 0, 65, 64
3, 82560, Note_on_c, 0, 58, 97
3, 82800, Note_off_c, 0, 58, 64
3, 82800, Note_on_c, 0, 62, 97
3, 83040, Note_off_c, 0, 62, 64
3, 83040, Note_on_c, 0, 65, 97
3, 83640, Note_off_c, 0, 65, 64
3, 83640, Note_on_c, 0, 67, 97
3, 83760, Note_off_c, 0, 67, 64
3, 83760, Note_on_c, 0, 71, 97
3, 83880, Note_off_c, 0, 71, 64
3, 83880, Note_on_c, 0, 69, 97
3, 84000, Note_off_c, 0, 69, 64
3, 84000, Note_on_c, 0, 71, 97
3, 84120, Note_off_c, 0, 71, 64
3, 84120, Note_on_c, 0, 65, 97
3, 84240, Note_off_c, 0, 65, 64
3, 84240, Note_on_c, 0, 62, 97
3, 84360, Note_off_c, 0, 62, 64
3, 84360, Note_on_c, 0, 65, 97
3, 84480, Note_off_c, 0, 65, 64
3, 84480, Note_on_c, 0, 63, 97
3, 84600, Note_off_c, 0, 63, 64
3, 84600, Note_on_c, 0, 67, 97
3, 84720, Note_off_c, 0, 67, 64
3, 84720, Note_on_c, 0, 72, 97
3, 84840, Note_off_c, 0, 72, 64
3, 84840, Note_on_c, 0, 67, 97
3, 84960, Note_off_c, 0, 67, 64
3, 84960, Note_on_c, 0, 63, 97
3, 85080, Note_off_c, 0, 63, 64
3, 85080, Note_on_c, 0, 67, 97
3, 85200, Note_off_c, 0, 67, 64
3, 85200, Note_on_c, 0, 60, 97
3, 85320, Note_off_c, 0, 60, 64
3, 85320, Note_on_c, 0, 63, 97
3, 85440, Note_off_c, 0, 63, 64
3, 85440, Note_on_c, 0, 63, 97
3, 85680, Note_off_c, 0, 63, 64
3, 85680, Note_on_c, 0, 58, 97
3, 85920, Note_off_c, 0, 58, 64
3, 85920, Note_on_c, 0, 70, 97
3, 86160, Note_off_c, 0, 70, 64
3, 86160, Note_on_c, 0, 68, 97
3, 86280, Note_off_c, 0, 68, 64
3, 86280, Note_on_c, 0, 67, 97
3, 86400, Note_off_c, 0, 67, 64
3, 86400, Note_on_c, 0, 65, 97
3, 86520, Note_off_c, 0, 65, 64
3, 86520, Note_on_c, 0, 58, 97
3, 86640, Note_off_c, 0, 58, 64
3, 86640, Note_on_c, 0, 60, 97
3, 86760, Note_off_c, 0, 60, 64
3, 86760, Note_on_c, 0, 62, 97
3, 86880, Note_off_c, 0, 62, 64
3, 86880, Note_on_c, 0, 63, 97
3, 87000, Note_off_c, 0, 63, 64
3, 87000, Note_on_c, 0, 65, 97
3, 87120, Note_off_c, 0, 65, 64
3, 87120, Note_on_c, 0, 67, 97
3, 87240, Note_off_c, 0, 67, 64
3, 87240, Note_on_c, 0, 68, 97
3, 87360, Note_off_c, 0, 68, 64
3, 87360, Note_on_c, 0, 70, 97
3, 87600, Note_off_c, 0, 70, 64
3, 87600, Note_on_c, 0, 67, 97
3, 87840, Note_off_c, 0, 67, 64
3, 87840, Note_on_c, 0, 63, 97
3, 88320, Note_off_c, 0, 63, 64
3, 88320, Note_on_c, 0, 70, 97
3, 88560, Note_off_c, 0, 70, 64
3, 88560, Note_on_c, 0, 67, 97
3, 88800, Note_off_c, 0, 67, 64
3, 88800, Note_on_c, 0, 61, 97
3, 89280, Note_off_c, 0, 61, 64
3, 89280, Note_on_c, 0, 70, 97
3, 89520, Note_off_c, 0, 70, 64
3, 89520, Note_on_c, 0, 67, 97
3, 89760, Note_off_c, 0, 67, 64
3, 89760, Note_on_c, 0, 60, 97
3, 90000, Note_off_c, 0, 60, 64
3, 90000, Note_on_c, 0, 70, 97
3, 90240, Note_off_c, 0, 70, 64
3, 90240, Note_on_c, 0, 68, 97
3, 90480, Note_off_c, 0, 68, 64
3, 90480, Note_on_c, 0, 65, 97
3, 90720, Note_off_c, 0, 65, 64
3, 90720, Note_on_c, 0, 60, 97
3, 90960, Note_off_c, 0, 60, 64
3, 90960, Note_on_c, 0, 65, 97
3, 91080, Note_off_c, 0, 65, 64
3, 91080, Note_on_c, 0, 67, 97
3, 91200, Note_off_c, 0, 67, 64
3, 91200, Note_on_c, 0, 68, 97
3, 91440, Note_off_c, 0, 68, 64
3, 91440, Note_on_c, 0, 65, 97
3, 91680, Note_off_c, 0, 65, 64
3, 91680, Note_on_c, 0, 58, 97
3, 91920, Note_off_c, 0, 58, 64
3, 91920, Note_on_c, 0, 68, 97
3, 92160, Note_off_c, 0, 68, 64
3, 92160, Note_on_c, 0, 67, 97
3, 92400, Note_off_c, 0, 67, 64
3, 92400, Note_on_c, 0, 63, 97
3, 92640, Note_off_c, 0, 63, 64
3, 92640, Note_on_c, 0, 58, 97
3, 92880, Note_off_c, 0, 58, 64
3, 92880, Note_on_c, 0, 63, 97
3, 93000, Note_off_c, 0, 63, 64
3, 93000, Note_on_c, 0, 65, 97
3, 93120, Note_off_c, 0, 65, 64
3, 93120, Note_on_c, 0, 66, 97
3, 93360, Note_off_c, 0, 66, 64
3, 93360, Note_on_c, 0, 63, 97
3, 93600, Note_off_c, 0, 63, 64
3, 93600, Note_on_c, 0, 57, 97
3, 93840, Note_off_c, 0, 57, 64
3, 93840, Note_on_c, 0, 66, 97
3, 94080, Note_off_c, 0, 66, 64
3, 94080, Note_on_c, 0, 65, 97
3, 94200, Note_off_c, 0, 65, 64
3, 94200, Note_on_c, 0, 63, 97
3, 94320, Note_off_c, 0, 63, 64
3, 94320, Note_on_c, 0, 62, 97
3, 94440, Note_off_c, 0, 62, 64
3, 94440, Note_on_c, 0, 60, 97
3, 94560, Note_off_c, 0, 60, 64
3, 94560, Note_on_c, 0, 58, 97
3, 94680, Note_off_c, 0, 58, 64
3, 94680, Note_on_c, 0, 56, 97
3, 94800, Note_off_c, 0, 56, 64
3, 94800, Note_on_c, 0, 55, 97
3, 94920, Note_off_c, 0, 55, 64
3, 94920, Note_on_c, 0, 53, 97
3, 95040, Note_off_c, 0, 53, 64
3, 95040, Note_on_c, 0, 55, 97
3, 95280, Note_off_c, 0, 55, 64
3, 95280, Note_on_c, 0, 63, 97
3, 95520, Note_off_c, 0, 63, 64
3, 95520, Note_on_c, 0, 53, 97
3, 95760, Note_off_c, 0, 53, 64
3, 95760, Note_on_c, 0, 70, 97
3, 96120, Note_off_c, 0, 70, 64
3, 96120, Note_on_c, 0, 68, 97
3, 96240, Note_off_c, 0, 68, 64
3, 96240, Note_on_c, 0, 67, 97
3, 96360, Note_off_c, 0, 67, 64
3, 96360, Note_on_c, 0, 70, 97
3, 96480, Note_off_c, 0, 70, 64
3, 96480, Note_on_c, 0, 68, 97
3, 96600, Note_off_c, 0, 68, 64
3, 96600, Note_on_c, 0, 67, 97
3, 96720, Note_off_c, 0, 67, 64
3, 96720, Note_on_c, 0, 65, 97
3, 96840, Note_off_c, 0, 65, 64
3, 96840, Note_on_c, 0, 63, 97
3, 96960, Note_off_c, 0, 63, 64
3, 96960, Note_on_c, 0, 72, 97
3, 98040, Note_off_c, 0, 72, 64
3, 98040, Note_on_c, 0, 68, 97
3, 98160, Note_off_c, 0, 68, 64
3, 98160, Note_on_c, 0, 70, 97
3, 98280, Note_off_c, 0, 70, 64
3, 98280, Note_on_c, 0, 72, 97
3, 98400, Note_off_c, 0, 72, 64
3, 98400, Note_on_c, 0, 70, 97
3, 98520, Note_off_c, 0, 70, 64
3, 98520, Note_on_c, 0, 68, 97
3, 98640, Note_off_c, 0, 68, 64
3, 98640, Note_on_c, 0, 67, 97
3, 98760, Note_off_c, 0, 67, 64
3, 98760, Note_on_c, 0, 65, 97
3, 98880, Note_off_c, 0, 65, 64
3, 98880, Note_on_c, 0, 63, 97
3, 99120, Note_off_c, 0, 63, 64
3, 99120, Note_on_c, 0, 70, 97
3, 99360, Note_off_c, 0, 70, 64
3, 99360, Note_on_c, 0, 75, 97
3, 99960, Note_off_c, 0, 75, 64
3, 99960, Note_on_c, 0, 67, 97
3, 100080, Note_off_c, 0, 67, 64
3, 100080, Note_on_c, 0, 68, 97
3, 100200, Note_off_c, 0, 68, 64
3, 100200, Note_on_c, 0, 70, 97
3, 100320, Note_off_c, 0, 70, 64
3, 100320, Note_on_c, 0, 68, 97
3, 100440, Note_off_c, 0, 68, 64
3, 100440, Note_on_c, 0, 67, 97
3, 100560, Note_off_c, 0, 67, 64
3, 100560, Note_on_c, 0, 65, 97
3, 100680, Note_off_c, 0, 65, 64
3, 100680, Note_on_c, 0, 63, 97
3, 100800, Note_off_c, 0, 63, 64
3, 100800, Note_on_c, 0, 68, 97
3, 100920, Note_off_c, 0, 68, 64
3, 100920, Note_on_c, 0, 67, 97
3, 101040, Note_off_c, 0, 67, 64
3, 101040, Note_on_c, 0, 68, 97
3, 101160, Note_off_c, 0, 68, 64
3, 101160, Note_on_c, 0, 72, 97
3, 101280, Note_off_c, 0, 72, 64
3, 101280, Note_on_c, 0, 70, 97
3, 101400, Note_off_c, 0, 70, 64
3, 101400, Note_on_c, 0, 68, 97
3, 101520, Note_off_c, 0, 68, 64
3, 101520, Note_on_c, 0, 67, 97
3, 101640, Note_off_c, 0, 67, 64
3, 101640, Note_on_c, 0, 65, 97
3, 101760, Note_off_c, 0, 65, 64
3, 101760, Note_on_c, 0, 67, 97
3, 101880, Note_off_c, 0, 67, 64
3, 101880, Note_on_c, 0, 65, 97
3, 102000, Note_off_c, 0, 65, 64
3, 102000, Note_on_c, 0, 67, 97
3, 102120, Note_off_c, 0, 67, 64
3, 102120, Note_on_c, 0, 70, 97
3, 102240, Note_off_c, 0, 70, 64
3, 102240, Note_on_c, 0, 68, 97
3, 102360, Note_off_c, 0, 68, 64
3, 102360, Note_on_c, 0, 67, 97
3, 102480, Note_off_c, 0, 67, 64
3, 102480, Note_on_c, 0, 65, 97
3, 102600, Note_off_c, 0, 65, 64
3, 102600, Note_on_c, 0, 63, 97
3, 102720, Note_off_c, 0, 63, 64
3, 102720, Note_on_c, 0, 65, 97
3, 102840, Note_off_c, 0, 65, 64
3, 102840, Note_on_c, 0, 63, 97
3, 102960, Note_off_c, 0, 63, 64
3, 102960, Note_on_c, 0, 65, 97
3, 103080, Note_off_c, 0, 65, 64
3, 103080, Note_on_c, 0, 68, 97
3, 103200, Note_off_c, 0, 68, 64
3, 103200, Note_on_c, 0, 67, 97
3, 103320, Note_off_c, 0, 67, 64
3, 103320, Note_on_c, 0, 65, 97
3, 103440, Note_off_c, 0, 65, 64
3, 103440, Note_on_c, 0, 63, 97
3, 103560, Note_off_c, 0, 63, 64
3, 103560, Note_on_c, 0, 62, 97
3, 103680, Note_off_c, 0, 62, 64
3, 103680, Note_on_c, 0, 63, 97
3, 103800, Note_off_c, 0, 63, 64
3, 103800, Note_on_c, 0, 62, 97
3, 103920, Note_off_c, 0, 62, 64
3, 103920, Note_on_c, 0, 60, 97
3, 104040, Note_off_c, 0, 60, 64
3, 104040, Note_on_c, 0, 58, 97
3, 104160, Note_off_c, 0, 58, 64
3, 104160, Note_on_c, 0, 70, 97
3, 104400, Note_off_c, 0, 70, 64
3, 104400, Note_on_c, 0, 68, 97
3, 104640, Note_off_c, 0, 68, 64
3, 104640, Note_on_c, 0, 67, 97
3, 104700, Note_off_c, 0, 67, 64
3, 104700, Note_on_c, 0, 68, 97
3, 104760, Note_off_c, 0, 68, 64
3, 104760, Note_on_c, 0, 67, 97
3, 105120, Note_off_c, 0, 67, 64
3, 105120, Note_on_c, 0, 65, 97
3, 105180, Note_off_c, 0, 65, 64
3, 105180, Note_on_c, 0, 67, 97
3, 105240, Note_off_c, 0, 67, 64
3, 105240, Note_on_c, 0, 65, 97
3, 105600, Note_off_c, 0, 65, 64
3, 105600, Note_on_c, 0, 63, 97
3, 105840, Note_off_c, 0, 63, 64
3, 105840, Note_on_c, 0, 67, 97
3, 106080, Note_off_c, 0, 67, 64
3, 106080, Note_on_c, 0, 70, 97
3, 106560, Note_off_c, 0, 70, 64
3, 106560, Note_on_c, 0, 63, 97
3, 106800, Note_off_c, 0, 63, 64
3, 106800, Note_on_c, 0, 68, 97
3, 107040, Note_off_c, 0, 68, 64
3, 107040, Note_on_c, 0, 72, 97
3, 107640, Note_off_c, 0, 72, 64
3, 107640, Note_on_c, 0, 75, 97
3, 107760, Note_off_c, 0, 75, 64
3, 107760, Note_on_c, 0, 74, 97
3, 107880, Note_off_c, 0, 74, 64
3, 107880, Note_on_c, 0, 72, 97
3, 108000, Note_off_c, 0, 72, 64
3, 108000, Note_on_c, 0, 70, 97
3, 108240, Note_off_c, 0, 70, 64
3, 108240, Note_on_c, 0, 68, 97
3, 108480, Note_off_c, 0, 68, 64
3, 108480, Note_on_c, 0, 67, 97
3, 108720, Note_off_c, 0, 67, 64
3, 108720, Note_on_c, 0, 75, 97
3, 109200, Note_off_c, 0, 75, 64
3, 109200, Note_on_c, 0, 74, 97
3, 109440, Note_off_c, 0, 74, 64
3, 109440, Note_on_c, 0, 75, 97
3, 109560, Note_off_c, 0, 75, 64
3, 109560, Note_on_c, 0, 74, 97
3, 109680, Note_off_c, 0, 74, 64
3, 109680, Note_on_c, 0, 72, 97
3, 109800, Note_off_c, 0, 72, 64
3, 109800, Note_on_c, 0, 70, 97
3, 109920, Note_off_c, 0, 70, 64
3, 109920, Note_on_c, 0, 68, 97
3, 110040, Note_off_c, 0, 68, 64
3, 110040, Note_on_c, 0, 67, 97
3, 110160, Note_off_c, 0, 67, 64
3, 110160, Note_on_c, 0, 65, 97
3, 110280, Note_off_c, 0, 65, 64
3, 110280, Note_on_c, 0, 70, 97
3, 110400, Note_off_c, 0, 70, 64
3, 110400, Note_on_c, 0, 68, 97
3, 110640, Note_off_c, 0, 68, 64
3, 110640, Note_on_c, 0, 67, 97
3, 111360, Note_off_c, 0, 67, 64
3, 119762, Note_on_c, 0, 74, 97
3, 120002, Note_on_c, 0, 67, 97
3, 120005, Note_off_c, 0, 74, 64
3, 120482, Note_on_c, 0, 67, 97
3, 120485, Note_off_c, 0, 67, 64
3, 120542, Note_on_c, 0, 68, 97
3, 120545, Note_off_c, 0, 67, 64
3, 120602, Note_on_c, 0, 70, 97
3, 120605, Note_off_c, 0, 68, 64
3, 120722, Note_on_c, 0, 69, 97
3, 120725, Note_off_c, 0, 70, 64
3, 121202, Note_on_c, 0, 62, 97
3, 121205, Note_off_c, 0, 69, 64
3, 121442, Note_on_c, 0, 67, 97
3, 121445, Note_off_c, 0, 62, 64
3, 121802, Note_on_c, 0, 66, 97
3, 121805, Note_off_c, 0, 67, 64
3, 121922, Note_on_c, 0, 67, 97
3, 121925, Note_off_c, 0, 66, 64
3, 122162, Note_on_c, 0, 55, 97
3, 122165, Note_off_c, 0, 67, 64
3, 122642, Note_on_c, 0, 67, 97
3, 122645, Note_off_c, 0, 55, 64
3, 123002, Note_on_c, 0, 70, 97
3, 123005, Note_off_c, 0, 67, 64
3, 123122, Note_on_c, 0, 69, 97
3, 123125, Note_off_c, 0, 70, 64
3, 123242, Note_on_c, 0, 72, 97
3, 123245, Note_off_c, 0, 69, 64
3, 123362, Note_on_c, 0, 75, 97
3, 123365, Note_off_c, 0, 72, 64
3, 123482, Note_on_c, 0, 67, 97
3, 123485, Note_off_c, 0, 75, 64
3, 123602, Note_on_c, 0, 66, 97
3, 123605, Note_off_c, 0, 67, 64
3, 123722, Note_on_c, 0, 69, 97
3, 123725, Note_off_c, 0, 66, 64
3, 123842, Note_on_c, 0, 63, 97
3, 123845, Note_off_c, 0, 69, 64
3, 123962, Note_on_c, 0, 62, 97
3, 123965, Note_off_c, 0, 63, 64
3, 124082, Note_on_c, 0, 72, 97
3, 124085, Note_off_c, 0, 62, 64
3, 124442, Note_on_c, 0, 69, 97
3, 124445, Note_off_c, 0, 72, 64
3, 124562, Note_on_c, 0, 70, 97
3, 124565, Note_off_c, 0, 69, 64
3, 124682, Note_on_c, 0, 74, 97
3, 124685, Note_off_c, 0, 70, 64
3, 124802, Note_on_c, 0, 79, 97
3, 124805, Note_off_c, 0, 74, 64
3, 124922, Note_on_c, 0, 76, 97
3, 124925, Note_off_c, 0, 79, 64
3, 125042, Note_on_c, 0, 73, 97
3, 125045, Note_off_c, 0, 76, 64
3, 125162, Note_on_c, 0, 72, 97
3, 125165, Note_off_c, 0, 73, 64
3, 125282, Note_on_c, 0, 76, 97
3, 125285, Note_off_c, 0, 72, 64
3, 125402, Note_on_c, 0, 79, 97
3, 125405, Note_off_c, 0, 76, 64
3, 125522, Note_on_c, 0, 82, 97
3, 125525, Note_off_c, 0, 79, 64
3, 125642, Note_on_c, 0, 79, 97
3, 125645, Note_off_c, 0, 82, 64
3, 125762, Note_on_c, 0, 80, 97
3, 125765, Note_off_c, 0, 79, 64
3, 126245, Note_off_c, 0, 80, 64
3, 126962, Note_on_c, 0, 77, 97
3, 127322, Note_on_c, 0, 65, 97
3, 127325, Note_off_c, 0, 77, 64
3, 127442, Note_on_c, 0, 67, 97
3, 127445, Note_off_c, 0, 65, 64
3, 127562, Note_on_c, 0, 70, 97
3, 127565, Note_off_c, 0, 67, 64
3, 127682, Note_on_c, 0, 75, 97
3, 127685, Note_off_c, 0, 70, 64
3, 127802, Note_on_c, 0, 72, 97
3, 127805, Note_off_c, 0, 75, 64
3, 127922, Note_on_c, 0, 70, 97
3, 127925, Note_off_c, 0, 72, 64
3, 128042, Note_on_c, 0, 68, 97
3, 128045, Note_off_c, 0, 70, 64
3, 128162, Note_on_c, 0, 72, 97
3, 128165, Note_off_c, 0, 68, 64
3, 128282, Note_on_c, 0, 75, 97
3, 128285, Note_off_c, 0, 72, 64
3, 128402, Note_on_c, 0, 79, 97
3, 128405, Note_off_c, 0, 75, 64
3, 128522, Note_on_c, 0, 75, 97
3, 128525, Note_off_c, 0, 79, 64
3, 128642, Note_on_c, 0, 77, 97
3, 128645, Note_off_c, 0, 75, 64
3, 129125, Note_off_c, 0, 77, 64
3, 129842, Note_on_c, 0, 74, 97
3, 130202, Note_on_c, 0, 62, 97
3, 130205, Note_off_c, 0, 74, 64
3, 130322, Note_on_c, 0, 63, 97
3, 130325, Note_off_c, 0, 62, 64
3, 130442, Note_on_c, 0, 67, 97
3, 130445, Note_off_c, 0, 63, 64
3, 130562, Note_on_c, 0, 72, 97
3, 130565, Note_off_c, 0, 67, 64
3, 130682, Note_on_c, 0, 68, 97
3, 130685, Note_off_c, 0, 72, 64
3, 130802, Note_on_c, 0, 67, 97
3, 130805, Note_off_c, 0, 68, 64
3, 130922, Note_on_c, 0, 65, 97
3, 130925, Note_off_c, 0, 67, 64
3, 131042, Note_on_c, 0, 71, 97
3, 131045, Note_off_c, 0, 65, 64
3, 131162, Note_on_c, 0, 74, 97
3, 131165, Note_off_c, 0, 71, 64
3, 131282, Note_on_c, 0, 77, 97
3, 131285, Note_off_c, 0, 74, 64
3, 131402, Note_on_c, 0, 74, 97
3, 131405, Note_off_c, 0, 77, 64
3, 131522, Note_on_c, 0, 75, 97
3, 131525, Note_off_c, 0, 74, 64
3, 131642, Note_on_c, 0, 77, 97
3, 131645, Note_off_c, 0, 75, 64
3, 131762, Note_on_c, 0, 79, 97
3, 131765, Note_off_c, 0, 77, 64
3, 132002, Note_on_c, 0, 77, 97
3, 132005, Note_off_c, 0, 79, 64
3, 132242, Note_on_c, 0, 75, 97
3, 132245, Note_off_c, 0, 77, 64
3, 132482, Note_on_c, 0, 80, 97
3, 132485, Note_off_c, 0, 75, 64
3, 132842, Note_on_c, 0, 77, 97
3, 132845, Note_off_c, 0, 80, 64
3, 132962, Note_on_c, 0, 79, 97
3, 132965, Note_off_c, 0, 77, 64
3, 133082, Note_on_c, 0, 74, 97
3, 133085, Note_off_c, 0, 79, 64
3, 133202, Note_on_c, 0, 75, 97
3, 133205, Note_off_c, 0, 74, 64
3, 133445, Note_off_c, 0, 75, 64
3, 133682, Note_on_c, 0, 74, 97
3, 133802, Note_on_c, 0, 77, 97
3, 133805, Note_off_c, 0, 74, 64
3, 133922, Note_on_c, 0, 68, 97
3, 133925, Note_off_c, 0, 77, 64
3, 134042, Note_on_c, 0, 74, 97
3, 134045, Note_off_c, 0, 68, 64
3, 134162, Note_on_c, 0, 77, 97
3, 134165, Note_off_c, 0, 74, 64
3, 134522, Note_on_c, 0, 65, 97
3, 134525, Note_off_c, 0, 77, 64
3, 134642, Note_on_c, 0, 67, 97
3, 134645, Note_off_c, 0, 65, 64
3, 134762, Note_on_c, 0, 70, 97
3, 134765, Note_off_c, 0, 67, 64
3, 134882, Note_on_c, 0, 72, 97
3, 134885, Note_off_c, 0, 70, 64
3, 135002, Note_on_c, 0, 68, 97
3, 135005, Note_off_c, 0, 72, 64
3, 135122, Note_on_c, 0, 70, 97
3, 135125, Note_off_c, 0, 68, 64
3, 135242, Note_on_c, 0, 74, 97
3, 135245, Note_off_c, 0, 70, 64
3, 135362, Note_on_c, 0, 75, 97
3, 135365, Note_off_c, 0, 74, 64
3, 135482, Note_on_c, 0, 77, 97
3, 135485, Note_off_c, 0, 75, 64
3, 135602, Note_on_c, 0, 79, 97
3, 135605, Note_off_c, 0, 77, 64
3, 135962, Note_on_c, 0, 67, 97
3, 135965, Note_off_c, 0, 79, 64
3, 136082, Note_on_c, 0, 68, 97
3, 136085, Note_off_c, 0, 67, 64
3, 136202, Note_on_c, 0, 72, 97
3, 136205, Note_off_c, 0, 68, 64
3, 136322, Note_on_c, 0, 77, 97
3, 136325, Note_off_c, 0, 72, 64
3, 136442, Note_on_c, 0, 73, 97
3, 136445, Note_off_c, 0, 77, 64
3, 136562, Note_on_c, 0, 72, 97
3, 136565, Note_off_c, 0, 73, 64
3, 136682, Note_on_c, 0, 70, 97
3, 136685, Note_off_c, 0, 72, 64
3, 136802, Note_on_c, 0, 76, 97
3, 136805, Note_off_c, 0, 70, 64
3, 136922, Note_on_c, 0, 79, 97
3, 136925, Note_off_c, 0, 76, 64
3, 137042, Note_on_c, 0, 82, 97
3, 137045, Note_off_c, 0, 79, 64
3, 137162, Note_on_c, 0, 79, 97
3, 137165, Note_off_c, 0, 82, 64
3, 137282, Note_on_c, 0, 80, 97
3, 137285, Note_off_c, 0, 79, 64
3, 137402, Note_on_c, 0, 82, 97
3, 137405, Note_off_c, 0, 80, 64
3, 137522, Note_on_c, 0, 84, 97
3, 137525, Note_off_c, 0, 82, 64
3, 137762, Note_on_c, 0, 82, 97
3, 137765, Note_off_c, 0, 84, 64
3, 138002, Note_on_c, 0, 80, 97
3, 138005, Note_off_c, 0, 82, 64
3, 138242, Note_on_c, 0, 74, 97
3, 138245, Note_off_c, 0, 80, 64
3, 138962, Note_on_c, 0, 79, 97
3, 138965, Note_off_c, 0, 74, 64
3, 139202, Note_on_c, 0, 75, 97
3, 139205, Note_off_c, 0, 79, 64
3, 139442, Note_on_c, 0, 72, 97
3, 139445, Note_off_c, 0, 75, 64
3, 139682, Note_on_c, 0, 78, 97
3, 139685, Note_off_c, 0, 72, 64
3, 139922, Note_on_c, 0, 79, 97
3, 139925, Note_off_c, 0, 78, 64
3, 140162, Note_on_c, 0, 79, 97
3, 140165, Note_off_c, 0, 79, 64
3, 140192, Note_on_c, 0, 78, 97
3, 140195, Note_off_c, 0, 79, 64
3, 140222, Note_on_c, 0, 79, 97
3, 140225, Note_off_c, 0, 78, 64
3, 140282, Note_on_c, 0, 69, 97
3, 140285, Note_off_c, 0, 79, 64
3, 140402, Note_on_c, 0, 71, 97
3, 140405, Note_off_c, 0, 69, 64
3, 140522, Note_on_c, 0, 74, 97
3, 140525, Note_off_c, 0, 71, 64
3, 140642, Note_on_c, 0, 77, 97
3, 140645, Note_off_c, 0, 74, 64
3, 141002, Note_on_c, 0, 79, 97
3, 141005, Note_off_c, 0, 77, 64
3, 141122, Note_on_c, 0, 77, 97
3, 141125, Note_off_c, 0, 79, 64
3, 141242, Note_on_c, 0, 75, 97
3, 141245, Note_off_c, 0, 77, 64
3, 141362, Note_on_c, 0, 77, 97
3, 141365, Note_off_c, 0, 75, 64
3, 141482, Note_on_c, 0, 74, 97
3, 141485, Note_off_c, 0, 77, 64
3, 141602, Note_on_c, 0, 75, 97
3, 141605, Note_off_c, 0, 74, 64
3, 142085, Note_off_c, 0, 75, 64
3, 142802, Note_on_c, 0, 63, 97
3, 143162, Note_on_c, 0, 62, 97
3, 143165, Note_off_c, 0, 63, 64
3, 143282, Note_on_c, 0, 66, 97
3, 143285, Note_off_c, 0, 62, 64
3, 143402, Note_on_c, 0, 69, 97
3, 143405, Note_off_c, 0, 66, 64
3, 143522, Note_on_c, 0, 72, 97
3, 143525, Note_off_c, 0, 69, 64
3, 143882, Note_on_c, 0, 74, 97
3, 143885, Note_off_c, 0, 72, 64
3, 144002, Note_on_c, 0, 72, 97
3, 144005, Note_off_c, 0, 74, 64
3, 144122, Note_on_c, 0, 70, 97
3, 144125, Note_off_c, 0, 72, 64
3, 144242, Note_on_c, 0, 72, 97
3, 144245, Note_off_c, 0, 70, 64
3, 144362, Note_on_c, 0, 69, 97
3, 144365, Note_off_c, 0, 72, 64
3, 144482, Note_on_c, 0, 70, 97
3, 144485, Note_off_c, 0, 69, 64
3, 144722, Note_on_c, 0, 69, 97
3, 144725, Note_off_c, 0, 70, 64
3, 144842, Note_on_c, 0, 67, 97
3, 144845, Note_off_c, 0, 69, 64
3, 144962, Note_on_c, 0, 79, 97
3, 144965, Note_off_c, 0, 67, 64
3, 145205, Note_off_c, 0, 79, 64
3, 145442, Note_on_c, 0, 75, 97
3, 145562, Note_on_c, 0, 74, 97
3, 145565, Note_off_c, 0, 75, 64
3, 145682, Note_on_c, 0, 78, 97
3, 145685, Note_off_c, 0, 74, 64
3, 145922, Note_on_c, 0, 79, 97
3, 145925, Note_off_c, 0, 78, 64
3, 146042, Note_on_c, 0, 74, 97
3, 146045, Note_off_c, 0, 79, 64
3, 146162, Note_on_c, 0, 72, 97
3, 146165, Note_off_c, 0, 74, 64
3, 146282, Note_on_c, 0, 70, 97
3, 146285, Note_off_c, 0, 72, 64
3, 146402, Note_on_c, 0, 72, 97
3, 146405, Note_off_c, 0, 70, 64
3, 146522, Note_on_c, 0, 75, 97
3, 146525, Note_off_c, 0, 72, 64
3, 146642, Note_on_c, 0, 70, 97
3, 146645, Note_off_c, 0, 75, 64
3, 146762, Note_on_c, 0, 69, 97
3, 146765, Note_off_c, 0, 70, 64
3, 146882, Note_on_c, 0, 72, 97
3, 146885, Note_off_c, 0, 69, 64
3, 147002, Note_on_c, 0, 70, 97
3, 147005, Note_off_c, 0, 72, 64
3, 147122, Note_on_c, 0, 69, 97
3, 147125, Note_off_c, 0, 70, 64
3, 147242, Note_on_c, 0, 70, 97
3, 147245, Note_off_c, 0, 69, 64
3, 147362, Note_on_c, 0, 67, 97
3, 147365, Note_off_c, 0, 70, 64
3, 148565, Note_off_c, 0, 67, 64
3, 154322, Note_on_c, 0, 74, 97
3, 154562, Note_on_c, 0, 67, 97
3, 154565, Note_off_c, 0, 74, 64
3, 155042, Note_on_c, 0, 67, 97
3, 155045, Note_off_c, 0, 67, 64
3, 155102, Note_on_c, 0, 68, 97
3, 155105, Note_off_c, 0, 67, 64
3, 155162, Note_on_c, 0, 70, 97
3, 155165, Note_off_c, 0, 68, 64
3, 155282, Note_on_c, 0, 69, 97
3, 155285, Note_off_c, 0, 70, 64
3, 155762, Note_on_c, 0, 62, 97
3, 155765, Note_off_c, 0, 69, 64
3, 156002, Note_on_c, 0, 67, 97
3, 156005, Note_off_c, 0, 62, 64
3, 156362, Note_on_c, 0, 66, 97
3, 156365, Note_off_c, 0, 67, 64
3, 156482, Note_on_c, 0, 67, 97
3, 156485, Note_off_c, 0, 66, 64
3, 156722, Note_on_c, 0, 55, 97
3, 156725, Note_off_c, 0, 67, 64
3, 157202, Note_on_c, 0, 67, 97
3, 157205, Note_off_c, 0, 55, 64
3, 157562, Note_on_c, 0, 70, 97
3, 157565, Note_off_c, 0, 67, 64
3, 157682, Note_on_c, 0, 69, 97
3, 157685, Note_off_c, 0, 70, 64
3, 157802, Note_on_c, 0, 72, 97
3, 157805, Note_off_c, 0, 69, 64
3, 157922, Note_on_c, 0, 75, 97
3, 157925, Note_off_c, 0, 72, 64
3, 158042, Note_on_c, 0, 67, 97
3, 158045, Note_off_c, 0, 75, 64
3, 158162, Note_on_c, 0, 66, 97
3, 158165, Note_off_c, 0, 67, 64
3, 158282, Note_on_c, 0, 69, 97
3, 158285, Note_off_c, 0, 66, 64
3, 158402, Note_on_c, 0, 63, 97
3, 158405, Note_off_c, 0, 69, 64
3, 158522, Note_on_c, 0, 62, 97
3, 158525, Note_off_c, 0, 63, 64
3, 158642, Note_on_c, 0, 72, 97
3, 158645, Note_off_c, 0, 62, 64
3, 159002, Note_on_c, 0, 69, 97
3, 159005, Note_off_c, 0, 72, 64
3, 159122, Note_on_c, 0, 70, 97
3, 159125, Note_off_c, 0, 69, 64
3, 159242, Note_on_c, 0, 74, 97
3, 159245, Note_off_c, 0, 70, 64
3, 159362, Note_on_c, 0, 79, 97
3, 159365, Note_off_c, 0, 74, 64
3, 159482, Note_on_c, 0, 76, 97
3, 159485, Note_off_c, 0, 79, 64
3, 159602, Note_on_c, 0, 73, 97
3, 159605, Note_off_c, 0, 76, 64
3, 159722, Note_on_c, 0, 72, 97
3, 159725, Note_off_c, 0, 73, 64
3, 159842, Note_on_c, 0, 76, 97
3, 159845, Note_off_c, 0, 72, 64
3, 159962, Note_on_c, 0, 79, 97
3, 159965, Note_off_c, 0, 76, 64
3, 160082, Note_on_c, 0, 82, 97
3, 160085, Note_off_c, 0, 79, 64
3, 160202, Note_on_c, 0, 79, 97
3, 160205, Note_off_c, 0, 82, 64
3, 160322, Note_on_c, 0, 80, 97
3, 160325, Note_off_c, 0, 79, 64
3, 160805, Note_off_c, 0, 80, 64
3, 161522, Note_on_c, 0, 77, 97
3, 161882, Note_on_c, 0, 65, 97
3, 161885, Note_off_c, 0, 77, 64
3, 162002, Note_on_c, 0, 67, 97
3, 162005, Note_off_c, 0, 65, 64
3, 162122, Note_on_c, 0, 70, 97
3, 162125, Note_off_c, 0, 67, 64
3, 162242, Note_on_c, 0, 75, 97
3, 162245, Note_off_c, 0, 70, 64
3, 162362, Note_on_c, 0, 72, 97
3, 162365, Note_off_c, 0, 75, 64
3, 162482, Note_on_c, 0, 70, 97
3, 162485, Note_off_c, 0, 72, 64
3, 162602, Note_on_c, 0, 68, 97
3, 162605, Note_off_c, 0, 70, 64
3, 162722, Note_on_c, 0, 72, 97
3, 162725, Note_off_c, 0, 68, 64
3, 162842, Note_on_c, 0, 75, 97
3, 162845, Note_off_c, 0, 72, 64
3, 162962, Note_on_c, 0, 79, 97
3, 162965, Note_off_c, 0, 75, 64
3, 163082, Note_on_c, 0, 75, 97
3, 163085, Note_off_c, 0, 79, 64
3, 163202, Note_on_c, 0, 77, 97
3, 163205, Note_off_c, 0, 75, 64
3, 163685, Note_off_c, 0, 77, 64
3, 164402, Note_on_c, 0, 74, 97
3, 164762, Note_on_c, 0, 62, 97
3, 164765, Note_off_c, 0, 74, 64
3, 164882, Note_on_c, 0, 63, 97
3, 164885, Note_off_c, 0, 62, 64
3, 165002, Note_on_c, 0, 67, 97
3, 165005, Note_off_c, 0, 63, 64
3, 165122, Note_on_c, 0, 72, 97
3, 165125, Note_off_c, 0, 67, 64
3, 165242, Note_on_c, 0, 68, 97
3, 165245, Note_off_c, 0, 72, 64
3, 165362, Note_on_c, 0, 67, 97
3, 165365, Note_off_c, 0, 68, 64
3, 165482, Note_on_c, 0, 65, 97
3, 165485, Note_off_c, 0, 67, 64
3, 165602, Note_on_c, 0, 71, 97
3, 165605, Note_off_c, 0, 65, 64
3, 165722, Note_on_c, 0, 74, 97
3, 165725, Note_off_c, 0, 71, 64
3, 165842, Note_on_c, 0, 77, 97
3, 165845, Note_off_c, 0, 74, 64
3, 165962, Note_on_c, 0, 74, 97
3, 165965, Note_off_c, 0, 77, 64
3, 166082, Note_on_c, 0, 75, 97
3, 166085, Note_off_c, 0, 74, 64
3, 166202, Note_on_c, 0, 77, 97
3, 166205, Note_off_c, 0, 75, 64
3, 166322, Note_on_c, 0, 79, 97
3, 166325, Note_off_c, 0, 77, 64
3, 166562, Note_on_c, 0, 77, 97
3, 166565, Note_off_c, 0, 79, 64
3, 166802, Note_on_c, 0, 75, 97
3, 166805, Note_off_c, 0, 77, 64
3, 167042, Note_on_c, 0, 80, 97
3, 167045, Note_off_c, 0, 75, 64
3, 167402, Note_on_c, 0, 77, 97
3, 167405, Note_off_c, 0, 80, 64
3, 167522, Note_on_c, 0, 79, 97
3, 167525, Note_off_c, 0, 77, 64
3, 167642, Note_on_c, 0, 74, 97
3, 167645, Note_off_c, 0, 79, 64
3, 167762, Note_on_c, 0, 75, 97
3, 167765, Note_off_c, 0, 74, 64
3, 168005, Note_off_c, 0, 75, 64
3, 168242, Note_on_c, 0, 74, 97
3, 168362, Note_on_c, 0, 77, 97
3, 168365, Note_off_c, 0, 74, 64
3, 168482, Note_on_c, 0, 68, 97
3, 168485, Note_off_c, 0, 77, 64
3, 168602, Note_on_c, 0, 74, 97
3, 168605, Note_off_c, 0, 68, 64
3, 168722, Note_on_c, 0, 77, 97
3, 168725, Note_off_c, 0, 74, 64
3, 169082, Note_on_c, 0, 65, 97
3, 169085, Note_off_c, 0, 77, 64
3, 169202, Note_on_c, 0, 67, 97
3, 169205, Note_off_c, 0, 65, 64
3, 169322, Note_on_c, 0, 70, 97
3, 169325, Note_off_c, 0, 67, 64
3, 169442, Note_on_c, 0, 72, 97
3, 169445, Note_off_c, 0, 70, 64
3, 169562, Note_on_c, 0, 68, 97
3, 169565, Note_off_c, 0, 72, 64
3, 169682, Note_on_c, 0, 70, 97
3, 169685, Note_off_c, 0, 68, 64
3, 169802, Note_on_c, 0, 74, 97
3, 169805, Note_off_c, 0, 70, 64
3, 169922, Note_on_c, 0, 75, 97
3, 169925, Note_off_c, 0, 74, 64
3, 170042, Note_on_c, 0, 77, 97
3, 170045, Note_off_c, 0, 75, 64
3, 170162, Note_on_c, 0, 79, 97
3, 170165, Note_off_c, 0, 77, 64
3, 170522, Note_on_c, 0, 67, 97
3, 170525, Note_off_c, 0, 79, 64
3, 170642, Note_on_c, 0, 68, 97
3, 170645, Note_off_c, 0, 67, 64
3, 170762, Note_on_c, 0, 72, 97
3, 170765, Note_off_c, 0, 68, 64
3, 170882, Note_on_c, 0, 77, 97
3, 170885, Note_off_c, 0, 72, 64
3, 171002, Note_on_c, 0, 73, 97
3, 171005, Note_off_c, 0, 77, 64
3, 171122, Note_on_c, 0, 72, 97
3, 171125, Note_off_c, 0, 73, 64
3, 171242, Note_on_c, 0, 70, 97
3, 171245, Note_off_c, 0, 72, 64
3, 171362, Note_on_c, 0, 76, 97
3, 171365, Note_off_c, 0, 70, 64
3, 171482, Note_on_c, 0, 79, 97
3, 171485, Note_off_c, 0, 76, 64
3, 171602, Note_on_c, 0, 82, 97
3, 171605, Note_off_c, 0, 79, 64
3, 171722, Note_on_c, 0, 79, 97
3, 171725, Note_off_c, 0, 82, 64
3, 171842, Note_on_c, 0, 80, 97
3, 171845, Note_off_c, 0, 79, 64
3, 171962, Note_on_c, 0, 82, 97
3, 171965, Note_off_c, 0, 80, 64
3, 172082, Note_on_c, 0, 84, 97
3, 172085, Note_off_c, 0, 82, 64
3, 172322, Note_on_c, 0, 82, 97
3, 172325, Note_off_c, 0, 84, 64
3, 172562, Note_on_c, 0, 80, 97
3, 172565, Note_off_c, 0, 82, 64
3, 172802, Note_on_c, 0, 74, 97
3, 172805, Note_off_c, 0, 80, 64
3, 173522, Note_on_c, 0, 79, 97
3, 173525, Note_off_c, 0, 74, 64
3, 173762, Note_on_c, 0, 75, 97
3, 173765, Note_off_c, 0, 79, 64
3, 174002, Note_on_c, 0, 72, 97
3, 174005, Note_off_c, 0, 75, 64
3, 174242, Note_on_c, 0, 78, 97
3, 174245, Note_off_c, 0, 72, 64
3, 174482, Note_on_c, 0, 79, 97
3, 174485, Note_off_c, 0, 78, 64
3, 174722, Note_on_c, 0, 79, 97
3, 174725, Note_off_c, 0, 79, 64
3, 174752, Note_on_c, 0, 78, 97
3, 174755, Note_off_c, 0, 79, 64
3, 174782, Note_on_c, 0, 79, 97
3, 174785, Note_off_c, 0, 78, 64
3, 174842, Note_on_c, 0, 69, 97
3, 174845, Note_off_c, 0, 79, 64
3, 174962, Note_on_c, 0, 71, 97
3, 174965, Note_off_c, 0, 69, 64
3, 175082, Note_on_c, 0, 74, 97
3, 175085, Note_off_c, 0, 71, 64
3, 175202, Note_on_c, 0, 77, 97
3, 175205, Note_off_c, 0, 74, 64
3, 175562, Note_on_c, 0, 79, 97
3, 175565, Note_off_c, 0, 77, 64
3, 175682, Note_on_c, 0, 77, 97
3, 175685, Note_off_c, 0, 79, 64
3, 175802, Note_on_c, 0, 75, 97
3, 175805, Note_off_c, 0, 77, 64
3, 175922, Note_on_c, 0, 77, 97
3, 175925, Note_off_c, 0, 75, 64
3, 176042, Note_on_c, 0, 74, 97
3, 176045, Note_off_c, 0, 77, 64
3, 176162, Note_on_c, 0, 75, 97
3, 176165, Note_off_c, 0, 74, 64
3, 176645, Note_off_c, 0, 75, 64
3, 177362, Note_on_c, 0, 63, 97
3, 177722, Note_on_c, 0, 62, 97
3, 177725, Note_off_c, 0, 63, 64
3, 177842, Note_on_c, 0, 66, 97
3, 177845, Note_off_c, 0, 62, 64
3, 177962, Note_on_c, 0, 69, 97
3, 177965, Note_off_c, 0, 66, 64
3, 178082, Note_on_c, 0, 72, 97
3, 178085, Note_off_c, 0, 69, 64
3, 178442, Note_on_c, 0, 74, 97
3, 178445, Note_off_c, 0, 72, 64
3, 178562, Note_on_c, 0, 72, 97
3, 178565, Note_off_c, 0, 74, 64
3, 178682, Note_on_c, 0, 70, 97
3, 178685, Note_off_c, 0, 72, 64
3, 178802, Note_on_c, 0, 72, 97
3, 178805, Note_off_c, 0, 70, 64
3, 178922, Note_on_c, 0, 69, 97
3, 178925, Note_off_c, 0, 72, 64
3, 179042, Note_on_c, 0, 70, 97
3, 179045, Note_off_c, 0, 69, 64
3, 179282, Note_on_c, 0, 69, 97
3, 179285, Note_off_c, 0, 70, 64
3, 179402, Note_on_c, 0, 67, 97
3, 179405, Note_off_c, 0, 69, 64
3, 179522, Note_on_c, 0, 79, 97
3, 179525, Note_off_c, 0, 67, 64
3, 179765, Note_off_c, 0, 79, 64
3, 180002, Note_on_c, 0, 75, 97
3, 180122, Note_on_c, 0, 74, 97
3, 180125, Note_off_c, 0, 75, 64
3, 180242, Note_on_c, 0, 78, 97
3, 180245, Note_off_c, 0, 74, 64
3, 180482, Note_on_c, 0, 79, 97
3, 180485, Note_off_c, 0, 78, 64
3, 180602, Note_on_c, 0, 74, 97
3, 180605, Note_off_c, 0, 79, 64
3, 180722, Note_on_c, 0, 72, 97
3, 180725, Note_off_c, 0, 74, 64
3, 180842, Note_on_c, 0, 70, 97
3, 180845, Note_off_c, 0, 72, 64
3, 180962, Note_on_c, 0, 72, 97
3, 180965, Note_off_c, 0, 70, 64
3, 181082, Note_on_c, 0, 75, 97
3, 181085, Note_off_c, 0, 72, 64
3, 181202, Note_on_c, 0, 70, 97
3, 181205, Note_off_c, 0, 75, 64
3, 181322, Note_on_c, 0, 69, 97
3, 181325, Note_off_c, 0, 70, 64
3, 181442, Note_on_c, 0, 72, 97
3, 181445, Note_off_c, 0, 69, 64
3, 181562, Note_on_c, 0, 70, 97
3, 181565, Note_off_c, 0, 72, 64
3, 181682, Note_on_c, 0, 69, 97
3, 181685, Note_off_c, 0, 70, 64
3, 181802, Note_on_c, 0, 70, 97
3, 181805, Note_off_c, 0, 69, 64
3, 181922, Note_on_c, 0, 67, 97
3, 181925, Note_off_c, 0, 70, 64
3, 183122, Note_on_c, 0, 62, 97
3, 183125, Note_off_c, 0, 67, 64
3, 183362, Note_on_c, 0, 67, 97
3, 183365, Note_off_c, 0, 62, 64
3, 183842, Note_on_c, 0, 63, 97
3, 183845, Note_off_c, 0, 67, 64
3, 184082, Note_on_c, 0, 65, 97
3, 184085, Note_off_c, 0, 63, 64
3, 184562, Note_on_c, 0, 70, 97
3, 184565, Note_off_c, 0, 65, 64
3, 184802, Note_on_c, 0, 63, 97
3, 184805, Note_off_c, 0, 70, 64
3, 185162, Note_on_c, 0, 65, 97
3, 185165, Note_off_c, 0, 63, 64
3, 185282, Note_on_c, 0, 63, 97
3, 185285, Note_off_c, 0, 65, 64
3, 185522, Note_on_c, 0, 75, 97
3, 185525, Note_off_c, 0, 63, 64
3, 185642, Note_on_c, 0, 70, 97
3, 185645, Note_off_c, 0, 75, 64
3, 185762, Note_on_c, 0, 68, 97
3, 185765, Note_off_c, 0, 70, 64
3, 185882, Note_on_c, 0, 67, 97
3, 185885, Note_off_c, 0, 68, 64
3, 186002, Note_on_c, 0, 73, 97
3, 186005, Note_off_c, 0, 67, 64
3, 186245, Note_off_c, 0, 73, 64
3, 186362, Note_on_c, 0, 72, 97
3, 186482, Note_on_c, 0, 70, 97
3, 186485, Note_off_c, 0, 72, 64
3, 186602, Note_on_c, 0, 68, 97
3, 186605, Note_off_c, 0, 70, 64
3, 186722, Note_on_c, 0, 75, 97
3, 186725, Note_off_c, 0, 68, 64
3, 186842, Note_on_c, 0, 74, 97
3, 186845, Note_off_c, 0, 75, 64
3, 186962, Note_on_c, 0, 75, 97
3, 186965, Note_off_c, 0, 74, 64
3, 187802, Note_on_c, 0, 73, 97
3, 187805, Note_off_c, 0, 75, 64
3, 187922, Note_on_c, 0, 72, 97
3, 187925, Note_off_c, 0, 73, 64
3, 188042, Note_on_c, 0, 70, 97
3, 188045, Note_off_c, 0, 72, 64
3, 188162, Note_on_c, 0, 72, 97
3, 188165, Note_off_c, 0, 70, 64
3, 188282, Note_on_c, 0, 68, 97
3, 188285, Note_off_c, 0, 72, 64
3, 188402, Note_on_c, 0, 73, 97
3, 188405, Note_off_c, 0, 68, 64
3, 188642, Note_on_c, 0, 78, 97
3, 188645, Note_off_c, 0, 73, 64
3, 188882, Note_on_c, 0, 72, 97
3, 188885, Note_off_c, 0, 78, 64
3, 189122, Note_on_c, 0, 77, 97
3, 189125, Note_off_c, 0, 72, 64
3, 189962, Note_on_c, 0, 79, 97
3, 189965, Note_off_c, 0, 77, 64
3, 190082, Note_on_c, 0, 77, 97
3, 190085, Note_off_c, 0, 79, 64
3, 190202, Note_on_c, 0, 75, 97
3, 190205, Note_off_c, 0, 77, 64
3, 190322, Note_on_c, 0, 77, 97
3, 190325, Note_off_c, 0, 75, 64
3, 190442, Note_on_c, 0, 74, 97
3, 190445, Note_off_c, 0, 77, 64
3, 190562, Note_on_c, 0, 70, 97
3, 190565, Note_off_c, 0, 74, 64
3, 190922, Note_on_c, 0, 72, 97
3, 190925, Note_off_c, 0, 70, 64
3, 191042, Note_on_c, 0, 73, 97
3, 191045, Note_off_c, 0, 72, 64
3, 191282, Note_on_c, 0, 67, 97
3, 191285, Note_off_c, 0, 73, 64
3, 191402, Note_on_c, 0, 68, 97
3, 191405, Note_off_c, 0, 67, 64
3, 191522, Note_on_c, 0, 67, 97
3, 191525, Note_off_c, 0, 68, 64
3, 191642, Note_on_c, 0, 65, 97
3, 191645, Note_off_c, 0, 67, 64
3, 191762, Note_on_c, 0, 67, 97
3, 191765, Note_off_c, 0, 65, 64
3, 191882, Note_on_c, 0, 64, 97
3, 191885, Note_off_c, 0, 67, 64
3, 192002, Note_on_c, 0, 60, 97
3, 192005, Note_off_c, 0, 64, 64
3, 192482, Note_on_c, 0, 65, 97
3, 192485, Note_off_c, 0, 60, 64
3, 192722, Note_on_c, 0, 58, 97
3, 192725, Note_off_c, 0, 65, 64
3, 192962, Note_on_c, 0, 61, 97
3, 192965, Note_off_c, 0, 58, 64
3, 193202, Note_on_c, 0, 60, 97
3, 193205, Note_off_c, 0, 61, 64
3, 193682, Note_on_c, 0, 65, 97
3, 193685, Note_off_c, 0, 60, 64
3, 194282, Note_on_c, 0, 68, 97
3, 194285, Note_off_c, 0, 65, 64
3, 194402, Note_on_c, 0, 67, 97
3, 194405, Note_off_c, 0, 68, 64
3, 194522, Note_on_c, 0, 65, 97
3, 194525, Note_off_c, 0, 67, 64
3, 194642, Note_on_c, 0, 64, 97
3, 194645, Note_off_c, 0, 65, 64
3, 194762, Note_on_c, 0, 65, 97
3, 194765, Note_off_c, 0, 64, 64
3, 194882, Note_on_c, 0, 64, 97
3, 194885, Note_off_c, 0, 65, 64
3, 195365, Note_off_c, 0, 64, 64
3, 195722, Note_on_c, 0, 60, 97
3, 195842, Note_on_c, 0, 64, 97
3, 195845, Note_off_c, 0, 60, 64
3, 195962, Note_on_c, 0, 67, 97
3, 195965, Note_off_c, 0, 64, 64
3, 196082, Note_on_c, 0, 70, 97
3, 196085, Note_off_c, 0, 67, 64
3, 196202, Note_on_c, 0, 67, 97
3, 196205, Note_off_c, 0, 70, 64
3, 196322, Note_on_c, 0, 68, 97
3, 196325, Note_off_c, 0, 67, 64
3, 196442, Note_on_c, 0, 64, 97
3, 196445, Note_off_c, 0, 68, 64
3, 196562, Note_on_c, 0, 65, 97
3, 196565, Note_off_c, 0, 64, 64
3, 196805, Note_off_c, 0, 65, 64
3, 197042, Note_on_c, 0, 64, 97
3, 197162, Note_on_c, 0, 67, 97
3, 197165, Note_off_c, 0, 64, 64
3, 197282, Note_on_c, 0, 58, 97
3, 197285, Note_off_c, 0, 67, 64
3, 197402, Note_on_c, 0, 64, 97
3, 197405, Note_off_c, 0, 58, 64
3, 197522, Note_on_c, 0, 67, 97
3, 197525, Note_off_c, 0, 64, 64
3, 197882, Note_on_c, 0, 55, 97
3, 197885, Note_off_c, 0, 67, 64
3, 198002, Note_on_c, 0, 56, 97
3, 198005, Note_off_c, 0, 55, 64
3, 198122, Note_on_c, 0, 60, 97
3, 198125, Note_off_c, 0, 56, 64
3, 198242, Note_on_c, 0, 61, 97
3, 198245, Note_off_c, 0, 60, 64
3, 198362, Note_on_c, 0, 58, 97
3, 198365, Note_off_c, 0, 61, 64
3, 198482, Note_on_c, 0, 60, 97
3, 198485, Note_off_c, 0, 58, 64
3, 198602, Note_on_c, 0, 64, 97
3, 198605, Note_off_c, 0, 60, 64
3, 198722, Note_on_c, 0, 65, 97
3, 198725, Note_off_c, 0, 64, 64
3, 198842, Note_on_c, 0, 68, 97
3, 198845, Note_off_c, 0, 65, 64
3, 198962, Note_on_c, 0, 70, 97
3, 198965, Note_off_c, 0, 68, 64
3, 199322, Note_on_c, 0, 58, 97
3, 199325, Note_off_c, 0, 70, 64
3, 199442, Note_on_c, 0, 60, 97
3, 199445, Note_off_c, 0, 58, 64
3, 199562, Note_on_c, 0, 63, 97
3, 199565, Note_off_c, 0, 60, 64
3, 199682, Note_on_c, 0, 68, 97
3, 199685, Note_off_c, 0, 63, 64
3, 199802, Note_on_c, 0, 65, 97
3, 199805, Note_off_c, 0, 68, 64
3, 199922, Note_on_c, 0, 63, 97
3, 199925, Note_off_c, 0, 65, 64
3, 200042, Note_on_c, 0, 61, 97
3, 200045, Note_off_c, 0, 63, 64
3, 200162, Note_on_c, 0, 67, 97
3, 200165, Note_off_c, 0, 61, 64
3, 200282, Note_on_c, 0, 70, 97
3, 200285, Note_off_c, 0, 67, 64
3, 200402, Note_on_c, 0, 73, 97
3, 200405, Note_off_c, 0, 70, 64
3, 200522, Note_on_c, 0, 70, 97
3, 200525, Note_off_c, 0, 73, 64
3, 200642, Note_on_c, 0, 72, 97
3, 200645, Note_off_c, 0, 70, 64
3, 200762, Note_on_c, 0, 73, 97
3, 200765, Note_off_c, 0, 72, 64
3, 200882, Note_on_c, 0, 75, 97
3, 200885, Note_off_c, 0, 73, 64
3, 201122, Note_on_c, 0, 73, 97
3, 201125, Note_off_c, 0, 75, 64
3, 201362, Note_on_c, 0, 72, 97
3, 201365, Note_off_c, 0, 73, 64
3, 201602, Note_on_c, 0, 77, 97
3, 201605, Note_off_c, 0, 72, 64
3, 201962, Note_on_c, 0, 75, 97
3, 201965, Note_off_c, 0, 77, 64
3, 202082, Note_on_c, 0, 73, 97
3, 202085, Note_off_c, 0, 75, 64
3, 202202, Note_on_c, 0, 69, 97
3, 202205, Note_off_c, 0, 73, 64
3, 202322, Note_on_c, 0, 70, 97
3, 202325, Note_off_c, 0, 69, 64
3, 202565, Note_off_c, 0, 70, 64
3, 202802, Note_on_c, 0, 69, 97
3, 202922, Note_on_c, 0, 72, 97
3, 202925, Note_off_c, 0, 69, 64
3, 203042, Note_on_c, 0, 63, 97
3, 203045, Note_off_c, 0, 72, 64
3, 203162, Note_on_c, 0, 69, 97
3, 203165, Note_off_c, 0, 63, 64
3, 203282, Note_on_c, 0, 72, 97
3, 203285, Note_off_c, 0, 69, 64
3, 203642, Note_on_c, 0, 60, 97
3, 203645, Note_off_c, 0, 72, 64
3, 203762, Note_on_c, 0, 61, 97
3, 203765, Note_off_c, 0, 60, 64
3, 203882, Note_on_c, 0, 65, 97
3, 203885, Note_off_c, 0, 61, 64
3, 204002, Note_on_c, 0, 66, 97
3, 204005, Note_off_c, 0, 65, 64
3, 204122, Note_on_c, 0, 63, 97
3, 204125, Note_off_c, 0, 66, 64
3, 204242, Note_on_c, 0, 65, 97
3, 204245, Note_off_c, 0, 63, 64
3, 204362, Note_on_c, 0, 69, 97
3, 204365, Note_off_c, 0, 65, 64
3, 204482, Note_on_c, 0, 70, 97
3, 204485, Note_off_c, 0, 69, 64
3, 204602, Note_on_c, 0, 73, 97
3, 204605, Note_off_c, 0, 70, 64
3, 204722, Note_on_c, 0, 72, 97
3, 204725, Note_off_c, 0, 73, 64
3, 204842, Note_on_c, 0, 70, 97
3, 204845, Note_off_c, 0, 72, 64
3, 204962, Note_on_c, 0, 68, 97
3, 204965, Note_off_c, 0, 70, 64
3, 205082, Note_on_c, 0, 67, 97
3, 205085, Note_off_c, 0, 68, 64
3, 205202, Note_on_c, 0, 68, 97
3, 205205, Note_off_c, 0, 67, 64
3, 205322, Note_on_c, 0, 72, 97
3, 205325, Note_off_c, 0, 68, 64
3, 205442, Note_on_c, 0, 77, 97
3, 205445, Note_off_c, 0, 72, 64
3, 205562, Note_on_c, 0, 72, 97
3, 205565, Note_off_c, 0, 77, 64
3, 205682, Note_on_c, 0, 70, 97
3, 205685, Note_off_c, 0, 72, 64
3, 205802, Note_on_c, 0, 68, 97
3, 205805, Note_off_c, 0, 70, 64
3, 205922, Note_on_c, 0, 67, 97
3, 205925, Note_off_c, 0, 68, 64
3, 206042, Note_on_c, 0, 65, 97
3, 206045, Note_off_c, 0, 67, 64
3, 206162, Note_on_c, 0, 64, 97
3, 206165, Note_off_c, 0, 65, 64
3, 206282, Note_on_c, 0, 65, 97
3, 206285, Note_off_c, 0, 64, 64
3, 206402, Note_on_c, 0, 64, 97
3, 206405, Note_off_c, 0, 65, 64
3, 206885, Note_off_c, 0, 64, 64
3, 207602, Note_on_c, 0, 72, 97
3, 207842, Note_on_c, 0, 65, 97
3, 207845, Note_off_c, 0, 72, 64
3, 208322, Note_on_c, 0, 68, 97
3, 208325, Note_off_c, 0, 65, 64
3, 208562, Note_on_c, 0, 67, 97
3, 208565, Note_off_c, 0, 68, 64
3, 209042, Note_on_c, 0, 60, 97
3, 209045, Note_off_c, 0, 67, 64
3, 209282, Note_on_c, 0, 65, 97
3, 209285, Note_off_c, 0, 60, 64
3, 209642, Note_on_c, 0, 64, 97
3, 209645, Note_off_c, 0, 65, 64
3, 209762, Note_on_c, 0, 65, 97
3, 209765, Note_off_c, 0, 64, 64
3, 210002, Note_on_c, 0, 55, 97
3, 210005, Note_off_c, 0, 65, 64
3, 210122, Note_on_c, 0, 67, 97
3, 210125, Note_off_c, 0, 55, 64
3, 210242, Note_on_c, 0, 65, 97
3, 210245, Note_off_c, 0, 67, 64
3, 210362, Note_on_c, 0, 63, 97
3, 210365, Note_off_c, 0, 65, 64
3, 210482, Note_on_c, 0, 65, 97
3, 210485, Note_off_c, 0, 63, 64
3, 210602, Note_on_c, 0, 62, 97
3, 210605, Note_off_c, 0, 65, 64
3, 210722, Note_on_c, 0, 63, 97
3, 210725, Note_off_c, 0, 62, 64
3, 210842, Note_on_c, 0, 59, 97
3, 210845, Note_off_c, 0, 63, 64
3, 210962, Note_on_c, 0, 60, 97
3, 210965, Note_off_c, 0, 59, 64
3, 211082, Note_on_c, 0, 63, 97
3, 211085, Note_off_c, 0, 60, 64
3, 211202, Note_on_c, 0, 68, 97
3, 211205, Note_off_c, 0, 63, 64
3, 211562, Note_on_c, 0, 66, 97
3, 211565, Note_off_c, 0, 68, 64
3, 211682, Note_on_c, 0, 67, 97
3, 211685, Note_off_c, 0, 66, 64
3, 211802, Note_on_c, 0, 70, 97
3, 211805, Note_off_c, 0, 67, 64
3, 211922, Note_on_c, 0, 75, 97
3, 211925, Note_off_c, 0, 70, 64
3, 212282, Note_on_c, 0, 74, 97
3, 212285, Note_off_c, 0, 75, 64
3, 212402, Note_on_c, 0, 72, 97
3, 212405, Note_off_c, 0, 74, 64
3, 212522, Note_on_c, 0, 74, 97
3, 212525, Note_off_c, 0, 72, 64
3, 212642, Note_on_c, 0, 75, 97
3, 212645, Note_off_c, 0, 74, 64
3, 212762, Note_on_c, 0, 72, 97
3, 212765, Note_off_c, 0, 75, 64
3, 212882, Note_on_c, 0, 81, 97
3, 212885, Note_off_c, 0, 72, 64
3, 213002, Note_on_c, 0, 79, 97
3, 213005, Note_off_c, 0, 81, 64
3, 213122, Note_on_c, 0, 78, 97
3, 213125, Note_off_c, 0, 79, 64
3, 213242, Note_on_c, 0, 79, 97
3, 213245, Note_off_c, 0, 78, 64
3, 213362, Note_on_c, 0, 81, 97
3, 213365, Note_off_c, 0, 79, 64
3, 213482, Note_on_c, 0, 74, 97
3, 213485, Note_off_c, 0, 81, 64
3, 213602, Note_on_c, 0, 75, 97
3, 213605, Note_off_c, 0, 74, 64
3, 213722, Note_on_c, 0, 72, 97
3, 213725, Note_off_c, 0, 75, 64
3, 213842, Note_on_c, 0, 74, 97
3, 213845, Note_off_c, 0, 72, 64
3, 214085, Note_off_c, 0, 74, 64
3, 214802, Note_on_c, 0, 79, 97
3, 215162, Note_on_c, 0, 67, 97
3, 215165, Note_off_c, 0, 79, 64
3, 215282, Note_on_c, 0, 68, 97
3, 215285, Note_off_c, 0, 67, 64
3, 215402, Note_on_c, 0, 72, 97
3, 215405, Note_off_c, 0, 68, 64
3, 215522, Note_on_c, 0, 77, 97
3, 215525, Note_off_c, 0, 72, 64
3, 215642, Note_on_c, 0, 74, 97
3, 215645, Note_off_c, 0, 77, 64
3, 215762, Note_on_c, 0, 72, 97
3, 215765, Note_off_c, 0, 74, 64
3, 215882, Note_on_c, 0, 70, 97
3, 215885, Note_off_c, 0, 72, 64
3, 216002, Note_on_c, 0, 74, 97
3, 216005, Note_off_c, 0, 70, 64
3, 216122, Note_on_c, 0, 77, 97
3, 216125, Note_off_c, 0, 74, 64
3, 216242, Note_on_c, 0, 80, 97
3, 216245, Note_off_c, 0, 77, 64
3, 216362, Note_on_c, 0, 77, 97
3, 216365, Note_off_c, 0, 80, 64
3, 216482, Note_on_c, 0, 79, 97
3, 216485, Note_off_c, 0, 77, 64
3, 216965, Note_off_c, 0, 79, 64
3, 217682, Note_on_c, 0, 75, 97
3, 218042, Note_on_c, 0, 63, 97
3, 218045, Note_off_c, 0, 75, 64
3, 218162, Note_on_c, 0, 65, 97
3, 218165, Note_off_c, 0, 63, 64
3, 218282, Note_on_c, 0, 71, 97
3, 218285, Note_off_c, 0, 65, 64
3, 218402, Note_on_c, 0, 74, 97
3, 218405, Note_off_c, 0, 71, 64
3, 218522, Note_on_c, 0, 71, 97
3, 218525, Note_off_c, 0, 74, 64
3, 218642, Note_on_c, 0, 68, 97
3, 218645, Note_off_c, 0, 71, 64
3, 218762, Note_on_c, 0, 67, 97
3, 218765, Note_off_c, 0, 68, 64
3, 218882, Note_on_c, 0, 71, 97
3, 218885, Note_off_c, 0, 67, 64
3, 219002, Note_on_c, 0, 74, 97
3, 219005, Note_off_c, 0, 71, 64
3, 219122, Note_on_c, 0, 77, 97
3, 219125, Note_off_c, 0, 74, 64
3, 219242, Note_on_c, 0, 74, 97
3, 219245, Note_off_c, 0, 77, 64
3, 219362, Note_on_c, 0, 75, 97
3, 219365, Note_off_c, 0, 74, 64
3, 219482, Note_on_c, 0, 71, 97
3, 219485, Note_off_c, 0, 75, 64
3, 219602, Note_on_c, 0, 72, 97
3, 219605, Note_off_c, 0, 71, 64
3, 219845, Note_off_c, 0, 72, 64
3, 220082, Note_on_c, 0, 71, 97
3, 220202, Note_on_c, 0, 74, 97
3, 220205, Note_off_c, 0, 71, 64
3, 220322, Note_on_c, 0, 65, 97
3, 220325, Note_off_c, 0, 74, 64
3, 220442, Note_on_c, 0, 71, 97
3, 220445, Note_off_c, 0, 65, 64
3, 220562, Note_on_c, 0, 74, 97
3, 220565, Note_off_c, 0, 71, 64
3, 220922, Note_on_c, 0, 62, 97
3, 220925, Note_off_c, 0, 74, 64
3, 221042, Note_on_c, 0, 63, 97
3, 221045, Note_off_c, 0, 62, 64
3, 221162, Note_on_c, 0, 67, 97
3, 221165, Note_off_c, 0, 63, 64
3, 221282, Note_on_c, 0, 68, 97
3, 221285, Note_off_c, 0, 67, 64
3, 221402, Note_on_c, 0, 65, 97
3, 221405, Note_off_c, 0, 68, 64
3, 221522, Note_on_c, 0, 67, 97
3, 221525, Note_off_c, 0, 65, 64
3, 221642, Note_on_c, 0, 71, 97
3, 221645, Note_off_c, 0, 67, 64
3, 221762, Note_on_c, 0, 72, 97
3, 221765, Note_off_c, 0, 71, 64
3, 221882, Note_on_c, 0, 74, 97
3, 221885, Note_off_c, 0, 72, 64
3, 222002, Note_on_c, 0, 75, 97
3, 222005, Note_off_c, 0, 74, 64
3, 222362, Note_on_c, 0, 67, 97
3, 222365, Note_off_c, 0, 75, 64
3, 222482, Note_on_c, 0, 66, 97
3, 222485, Note_off_c, 0, 67, 64
3, 222602, Note_on_c, 0, 69, 97
3, 222605, Note_off_c, 0, 66, 64
3, 222722, Note_on_c, 0, 72, 97
3, 222725, Note_off_c, 0, 69, 64
3, 223082, Note_on_c, 0, 74, 97
3, 223085, Note_off_c, 0, 72, 64
3, 223202, Note_on_c, 0, 72, 97
3, 223205, Note_off_c, 0, 74, 64
3, 223322, Note_on_c, 0, 71, 97
3, 223325, Note_off_c, 0, 72, 64
3, 223442, Note_on_c, 0, 72, 97
3, 223445, Note_off_c, 0, 71, 64
3, 223562, Note_on_c, 0, 69, 97
3, 223565, Note_off_c, 0, 72, 64
3, 223682, Note_on_c, 0, 71, 97
3, 223685, Note_off_c, 0, 69, 64
3, 223802, Note_on_c, 0, 75, 97
3, 223805, Note_off_c, 0, 71, 64
3, 223922, Note_on_c, 0, 74, 97
3, 223925, Note_off_c, 0, 75, 64
3, 224165, Note_off_c, 0, 74, 64
3, 224402, Note_on_c, 0, 68, 97
3, 224522, Note_on_c, 0, 67, 97
3, 224525, Note_off_c, 0, 68, 64
3, 224642, Note_on_c, 0, 71, 97
3, 224645, Note_off_c, 0, 67, 64
3, 224885, Note_off_c, 0, 71, 64
3, 225122, Note_on_c, 0, 72, 97
3, 225242, Note_on_c, 0, 67, 97
3, 225245, Note_off_c, 0, 72, 64
3, 225362, Note_on_c, 0, 65, 97
3, 225365, Note_off_c, 0, 67, 64
3, 225482, Note_on_c, 0, 63, 97
3, 225485, Note_off_c, 0, 65, 64
3, 225602, Note_on_c, 0, 65, 97
3, 225605, Note_off_c, 0, 63, 64
3, 225722, Note_on_c, 0, 68, 97
3, 225725, Note_off_c, 0, 65, 64
3, 225842, Note_on_c, 0, 63, 97
3, 225845, Note_off_c, 0, 68, 64
3, 225962, Note_on_c, 0, 62, 97
3, 225965, Note_off_c, 0, 63, 64
3, 226082, Note_on_c, 0, 65, 97
3, 226085, Note_off_c, 0, 62, 64
3, 226202, Note_on_c, 0, 63, 97
3, 226205, Note_off_c, 0, 65, 64
3, 226322, Note_on_c, 0, 62, 97
3, 226325, Note_off_c, 0, 63, 64
3, 226442, Note_on_c, 0, 63, 97
3, 226445, Note_off_c, 0, 62, 64
3, 226562, Note_on_c, 0, 60, 97
3, 226565, Note_off_c, 0, 63, 64
3, 226682, Note_on_c, 0, 63, 97
3, 226685, Note_off_c, 0, 60, 64
3, 226802, Note_on_c, 0, 62, 97
3, 226805, Note_off_c, 0, 63, 64
3, 226922, Note_on_c, 0, 60, 97
3, 226925, Note_off_c, 0, 62, 64
3, 227042, Note_on_c, 0, 62, 97
3, 227045, Note_off_c, 0, 60, 64
3, 227162, Note_on_c, 0, 59, 97
3, 227165, Note_off_c, 0, 62, 64
3, 227282, Note_on_c, 0, 55, 97
3, 227285, Note_off_c, 0, 59, 64
3, 227522, Note_on_c, 0, 60, 97
3, 227525, Note_off_c, 0, 55, 64
3, 227762, Note_on_c, 0, 59, 97
3, 227765, Note_off_c, 0, 60, 64
3, 228002, Note_on_c, 0, 60, 97
3, 228005, Note_off_c, 0, 59, 64
3, 229202, Note_on_c, 0, 62, 97
3, 229205, Note_off_c, 0, 60, 64
3, 229442, Note_on_c, 0, 67, 97
3, 229445, Note_off_c, 0, 62, 64
3, 229922, Note_on_c, 0, 63, 97
3, 229925, Note_off_c, 0, 67, 64
3, 230162, Note_on_c, 0, 65, 97
3, 230165, Note_off_c, 0, 63, 64
3, 230642, Note_on_c, 0, 70, 97
3, 230645, Note_off_c, 0, 65, 64
3, 230882, Note_on_c, 0, 63, 97
3, 230885, Note_off_c, 0, 70, 64
3, 231242, Note_on_c, 0, 65, 97
3, 231245, Note_off_c, 0, 63, 64
3, 231362, Note_on_c, 0, 63, 97
3, 231365, Note_off_c, 0, 65, 64
3, 231602, Note_on_c, 0, 75, 97
3, 231605, Note_off_c, 0, 63, 64
3, 231722, Note_on_c, 0, 70, 97
3, 231725, Note_off_c, 0, 75, 64
3, 231842, Note_on_c, 0, 68, 97
3, 231845, Note_off_c, 0, 70, 64
3, 231962, Note_on_c, 0, 67, 97
3, 231965, Note_off_c, 0, 68, 64
3, 232082, Note_on_c, 0, 73, 97
3, 232085, Note_off_c, 0, 67, 64
3, 232325, Note_off_c, 0, 73, 64
3, 232442, Note_on_c, 0, 72, 97
3, 232562, Note_on_c, 0, 70, 97
3, 232565, Note_off_c, 0, 72, 64
3, 232682, Note_on_c, 0, 68, 97
3, 232685, Note_off_c, 0, 70, 64
3, 232802, Note_on_c, 0, 75, 97
3, 232805, Note_off_c, 0, 68, 64
3, 232922, Note_on_c, 0, 74, 97
3, 232925, Note_off_c, 0, 75, 64
3, 233042, Note_on_c, 0, 75, 97
3, 233045, Note_off_c, 0, 74, 64
3, 233882, Note_on_c, 0, 73, 97
3, 233885, Note_off_c, 0, 75, 64
3, 234002, Note_on_c, 0, 72, 97
3, 234005, Note_off_c, 0, 73, 64
3, 234122, Note_on_c, 0, 70, 97
3, 234125, Note_off_c, 0, 72, 64
3, 234242, Note_on_c, 0, 72, 97
3, 234245, Note_off_c, 0, 70, 64
3, 234362, Note_on_c, 0, 68, 97
3, 234365, Note_off_c, 0, 72, 64
3, 234482, Note_on_c, 0, 73, 97
3, 234485, Note_off_c, 0, 68, 64
3, 234722, Note_on_c, 0, 78, 97
3, 234725, Note_off_c, 0, 73, 64
3, 234962, Note_on_c, 0, 72, 97
3, 234965, Note_off_c, 0, 78, 64
3, 235202, Note_on_c, 0, 77, 97
3, 235205, Note_off_c, 0, 72, 64
3, 236042, Note_on_c, 0, 79, 97
3, 236045, Note_off_c, 0, 77, 64
3, 236162, Note_on_c, 0, 77, 97
3, 236165, Note_off_c, 0, 79, 64
3, 236282, Note_on_c, 0, 75, 97
3, 236285, Note_off_c, 0, 77, 64
3, 236402, Note_on_c, 0, 77, 97
3, 236405, Note_off_c, 0, 75, 64
3, 236522, Note_on_c, 0, 74, 97
3, 236525, Note_off_c, 0, 77, 64
3, 236642, Note_on_c, 0, 70, 97
3, 236645, Note_off_c, 0, 74, 64
3, 237002, Note_on_c, 0, 72, 97
3, 237005, Note_off_c, 0, 70, 64
3, 237122, Note_on_c, 0, 73, 97
3, 237125, Note_off_c, 0, 72, 64
3, 237362, Note_on_c, 0, 67, 97
3, 237365, Note_off_c, 0, 73, 64
3, 237482, Note_on_c, 0, 68, 97
3, 237485, Note_off_c, 0, 67, 64
3, 237602, Note_on_c, 0, 67, 97
3, 237605, Note_off_c, 0, 68, 64
3, 237722, Note_on_c, 0, 65, 97
3, 237725, Note_off_c, 0, 67, 64
3, 237842, Note_on_c, 0, 67, 97
3, 237845, Note_off_c, 0, 65, 64
3, 237962, Note_on_c, 0, 64, 97
3, 237965, Note_off_c, 0, 67, 64
3, 238082, Note_on_c, 0, 60, 97
3, 238085, Note_off_c, 0, 64, 64
3, 238562, Note_on_c, 0, 65, 97
3, 238565, Note_off_c, 0, 60, 64
3, 238802, Note_on_c, 0, 58, 97
3, 238805, Note_off_c, 0, 65, 64
3, 239042, Note_on_c, 0, 61, 97
3, 239045, Note_off_c, 0, 58, 64
3, 239282, Note_on_c, 0, 60, 97
3, 239285, Note_off_c, 0, 61, 64
3, 239762, Note_on_c, 0, 65, 97
3, 239765, Note_off_c, 0, 60, 64
3, 240362, Note_on_c, 0, 68, 97
3, 240365, Note_off_c, 0, 65, 64
3, 240482, Note_on_c, 0, 67, 97
3, 240485, Note_off_c, 0, 68, 64
3, 240602, Note_on_c, 0, 65, 97
3, 240605, Note_off_c, 0, 67, 64
3, 240722, Note_on_c, 0, 64, 97
3, 240725, Note_off_c, 0, 65, 64
3, 240842, Note_on_c, 0, 65, 97
3, 240845, Note_off_c, 0, 64, 64
3, 240962, Note_on_c, 0, 64, 97
3, 240965, Note_off_c, 0, 65, 64
3, 241445, Note_off_c, 0, 64, 64
3, 241802, Note_on_c, 0, 60, 97
3, 241922, Note_on_c, 0, 64, 97
3, 241925, Note_off_c, 0, 60, 64
3, 242042, Note_on_c, 0, 67, 97
3, 242045, Note_off_c, 0, 64, 64
3, 242162, Note_on_c, 0, 70, 97
3, 242165, Note_off_c, 0, 67, 64
3, 242282, Note_on_c, 0, 67, 97
3, 242285, Note_off_c, 0, 70, 64
3, 242402, Note_on_c, 0, 68, 97
3, 242405, Note_off_c, 0, 67, 64
3, 242522, Note_on_c, 0, 64, 97
3, 242525, Note_off_c, 0, 68, 64
3, 242642, Note_on_c, 0, 65, 97
3, 242645, Note_off_c, 0, 64, 64
3, 242885, Note_off_c, 0, 65, 64
3, 243122, Note_on_c, 0, 64, 97
3, 243242, Note_on_c, 0, 67, 97
3, 243245, Note_off_c, 0, 64, 64
3, 243362, Note_on_c, 0, 58, 97
3, 243365, Note_off_c, 0, 67, 64
3, 243482, Note_on_c, 0, 64, 97
3, 243485, Note_off_c, 0, 58, 64
3, 243602, Note_on_c, 0, 67, 97
3, 243605, Note_off_c, 0, 64, 64
3, 243962, Note_on_c, 0, 55, 97
3, 243965, Note_off_c, 0, 67, 64
3, 244082, Note_on_c, 0, 56, 97
3, 244085, Note_off_c, 0, 55, 64
3, 244202, Note_on_c, 0, 60, 97
3, 244205, Note_off_c, 0, 56, 64
3, 244322, Note_on_c, 0, 61, 97
3, 244325, Note_off_c, 0, 60, 64
3, 244442, Note_on_c, 0, 58, 97
3, 244445, Note_off_c, 0, 61, 64
3, 244562, Note_on_c, 0, 60, 97
3, 244565, Note_off_c, 0, 58, 64
3, 244682, Note_on_c, 0, 64, 97
3, 244685, Note_off_c, 0, 60, 64
3, 244802, Note_on_c, 0, 65, 97
3, 244805, Note_off_c, 0, 64, 64
3, 244922, Note_on_c, 0, 68, 97
3, 244925, Note_off_c, 0, 65, 64
3, 245042, Note_on_c, 0, 70, 97
3, 245045, Note_off_c, 0, 68, 64
3, 245402, Note_on_c, 0, 58, 97
3, 245405, Note_off_c, 0, 70, 64
3, 245522, Note_on_c, 0, 60, 97
3, 245525, Note_off_c, 0, 58, 64
3, 245642, Note_on_c, 0, 63, 97
3, 245645, Note_off_c, 0, 60, 64
3, 245762, Note_on_c, 0, 68, 97
3, 245765, Note_off_c, 0, 63, 64
3, 245882, Note_on_c, 0, 65, 97
3, 245885, Note_off_c, 0, 68, 64
3, 246002, Note_on_c, 0, 63, 97
3, 246005, Note_off_c, 0, 65, 64
3, 246122, Note_on_c, 0, 61, 97
3, 246125, Note_off_c, 0, 63, 64
3, 246242, Note_on_c, 0, 67, 97
3, 246245, Note_off_c, 0, 61, 64
3, 246362, Note_on_c, 0, 70, 97
3, 246365, Note_off_c, 0, 67, 64
3, 246482, Note_on_c, 0, 73, 97
3, 246485, Note_off_c, 0, 70, 64
3, 246602, Note_on_c, 0, 70, 97
3, 246605, Note_off_c, 0, 73, 64
3, 246722, Note_on_c, 0, 72, 97
3, 246725, Note_off_c, 0, 70, 64
3, 246842, Note_on_c, 0, 73, 97
3, 246845, Note_off_c, 0, 72, 64
3, 246962, Note_on_c, 0, 75, 97
3, 246965, Note_off_c, 0, 73, 64
3, 247202, Note_on_c, 0, 73, 97
3, 247205, Note_off_c, 0, 75, 64
3, 247442, Note_on_c, 0, 72, 97
3, 247445, Note_off_c, 0, 73, 64
3, 247682, Note_on_c, 0, 77, 97
3, 247685, Note_off_c, 0, 72, 64
3, 248042, Note_on_c, 0, 75, 97
3, 248045, Note_off_c, 0, 77, 64
3, 248162, Note_on_c, 0, 73, 97
3, 248165, Note_off_c, 0, 75, 64
3, 248282, Note_on_c, 0, 69, 97
3, 248285, Note_off_c, 0, 73, 64
3, 248402, Note_on_c, 0, 70, 97
3, 248405, Note_off_c, 0, 69, 64
3, 248645, Note_off_c, 0, 70, 64
3, 248882, Note_on_c, 0, 69, 97
3, 249002, Note_on_c, 0, 72, 97
3, 249005, Note_off_c, 0, 69, 64
3, 249122, Note_on_c, 0, 63, 97
3, 249125, Note_off_c, 0, 72, 64
3, 249242, Note_on_c, 0, 69, 97
3, 249245, Note_off_c, 0, 63, 64
3, 249362, Note_on_c, 0, 72, 97
3, 249365, Note_off_c, 0, 69, 64
3, 249722, Note_on_c, 0, 60, 97
3, 249725, Note_off_c, 0, 72, 64
3, 249842, Note_on_c, 0, 61, 97
3, 249845, Note_off_c, 0, 60, 64
3, 249962, Note_on_c, 0, 65, 97
3, 249965, Note_off_c, 0, 61, 64
3, 250082, Note_on_c, 0, 66, 97
3, 250085, Note_off_c, 0, 65, 64
3, 250202, Note_on_c, 0, 63, 97
3, 250205, Note_off_c, 0, 66, 64
3, 250322, Note_on_c, 0, 65, 97
3, 250325, Note_off_c, 0, 63, 64
3, 250442, Note_on_c, 0, 69, 97
3, 250445, Note_off_c, 0, 65, 64
3, 250562, Note_on_c, 0, 70, 97
3, 250565, Note_off_c, 0, 69, 64
3, 250682, Note_on_c, 0, 73, 97
3, 250685, Note_off_c, 0, 70, 64
3, 250802, Note_on_c, 0, 72, 97
3, 250805, Note_off_c, 0, 73, 64
3, 250922, Note_on_c, 0, 70, 97
3, 250925, Note_off_c, 0, 72, 64
3, 251042, Note_on_c, 0, 68, 97
3, 251045, Note_off_c, 0, 70, 64
3, 251162, Note_on_c, 0, 67, 97
3, 251165, Note_off_c, 0, 68, 64
3, 251282, Note_on_c, 0, 68, 97
3, 251285, Note_off_c, 0, 67, 64
3, 251402, Note_on_c, 0, 72, 97
3, 251405, Note_off_c, 0, 68, 64
3, 251522, Note_on_c, 0, 77, 97
3, 251525, Note_off_c, 0, 72, 64
3, 251642, Note_on_c, 0, 72, 97
3, 251645, Note_off_c, 0, 77, 64
3, 251762, Note_on_c, 0, 70, 97
3, 251765, Note_off_c, 0, 72, 64
3, 251882, Note_on_c, 0, 68, 97
3, 251885, Note_off_c, 0, 70, 64
3, 252002, Note_on_c, 0, 67, 97
3, 252005, Note_off_c, 0, 68, 64
3, 252122, Note_on_c, 0, 65, 97
3, 252125, Note_off_c, 0, 67, 64
3, 252242, Note_on_c, 0, 64, 97
3, 252245, Note_off_c, 0, 65, 64
3, 252362, Note_on_c, 0, 65, 97
3, 252365, Note_off_c, 0, 64, 64
3, 252482, Note_on_c, 0, 64, 97
3, 252485, Note_off_c, 0, 65, 64
3, 252965, Note_off_c, 0, 64, 64
3, 253682, Note_on_c, 0, 72, 97
3, 253922, Note_on_c, 0, 65, 97
3, 253925, Note_off_c, 0, 72, 64
3, 254402, Note_on_c, 0, 68, 97
3, 254405, Note_off_c, 0, 65, 64
3, 254642, Note_on_c, 0, 67, 97
3, 254645, Note_off_c, 0, 68, 64
3, 255122, Note_on_c, 0, 60, 97
3, 255125, Note_off_c, 0, 67, 64
3, 255362, Note_on_c, 0, 65, 97
3, 255365, Note_off_c, 0, 60, 64
3, 255722, Note_on_c, 0, 64, 97
3, 255725, Note_off_c, 0, 65, 64
3, 255842, Note_on_c, 0, 65, 97
3, 255845, Note_off_c, 0, 64, 64
3, 256082, Note_on_c, 0, 55, 97
3, 256085, Note_off_c, 0, 65, 64
3, 256202, Note_on_c, 0, 67, 97
3, 256205, Note_off_c, 0, 55, 64
3, 256322, Note_on_c, 0, 65, 97
3, 256325, Note_off_c, 0, 67, 64
3, 256442, Note_on_c, 0, 63, 97
3, 256445, Note_off_c, 0, 65, 64
3, 256562, Note_on_c, 0, 65, 97
3, 256565, Note_off_c, 0, 63, 64
3, 256682, Note_on_c, 0, 62, 97
3, 256685, Note_off_c, 0, 65, 64
3, 256802, Note_on_c, 0, 63, 97
3, 256805, Note_off_c, 0, 62, 64
3, 256922, Note_on_c, 0, 59, 97
3, 256925, Note_off_c, 0, 63, 64
3, 257042, Note_on_c, 0, 60, 97
3, 257045, Note_off_c, 0, 59, 64
3, 257162, Note_on_c, 0, 63, 97
3, 257165, Note_off_c, 0, 60, 64
3, 257282, Note_on_c, 0, 68, 97
3, 257285, Note_off_c, 0, 63, 64
3, 257642, Note_on_c, 0, 66, 97
3, 257645, Note_off_c, 0, 68, 64
3, 257762, Note_on_c, 0, 67, 97
3, 257765, Note_off_c, 0, 66, 64
3, 257882, Note_on_c, 0, 70, 97
3, 257885, Note_off_c, 0, 67, 64
3, 258002, Note_on_c, 0, 75, 97
3, 258005, Note_off_c, 0, 70, 64
3, 258362, Note_on_c, 0, 74, 97
3, 258365, Note_off_c, 0, 75, 64
3, 258482, Note_on_c, 0, 72, 97
3, 258485, Note_off_c, 0, 74, 64
3, 258602, Note_on_c, 0, 74, 97
3, 258605, Note_off_c, 0, 72, 64
3, 258722, Note_on_c, 0, 75, 97
3, 258725, Note_off_c, 0, 74, 64
3, 258842, Note_on_c, 0, 72, 97
3, 258845, Note_off_c, 0, 75, 64
3, 258962, Note_on_c, 0, 81, 97
3, 258965, Note_off_c, 0, 72, 64
3, 259082, Note_on_c, 0, 79, 97
3, 259085, Note_off_c, 0, 81, 64
3, 259202, Note_on_c, 0, 78, 97
3, 259205, Note_off_c, 0, 79, 64
3, 259322, Note_on_c, 0, 79, 97
3, 259325, Note_off_c, 0, 78, 64
3, 259442, Note_on_c, 0, 81, 97
3, 259445, Note_off_c, 0, 79, 64
3, 259562, Note_on_c, 0, 74, 97
3, 259565, Note_off_c, 0, 81, 64
3, 259682, Note_on_c, 0, 75, 97
3, 259685, Note_off_c, 0, 74, 64
3, 259802, Note_on_c, 0, 72, 97
3, 259805, Note_off_c, 0, 75, 64
3, 259922, Note_on_c, 0, 74, 97
3, 259925, Note_off_c, 0, 72, 64
3, 260165, Note_off_c, 0, 74, 64
3, 260882, Note_on_c, 0, 79, 97
3, 261242, Note_on_c, 0, 67, 97
3, 261245, Note_off_c, 0, 79, 64
3, 261362, Note_on_c, 0, 68, 97
3, 261365, Note_off_c, 0, 67, 64
3, 261482, Note_on_c, 0, 72, 97
3, 261485, Note_off_c, 0, 68, 64
3, 261602, Note_on_c, 0, 77, 97
3, 261605, Note_off_c, 0, 72, 64
3, 261722, Note_on_c, 0, 74, 97
3, 261725, Note_off_c, 0, 77, 64
3, 261842, Note_on_c, 0, 72, 97
3, 261845, Note_off_c, 0, 74, 64
3, 261962, Note_on_c, 0, 70, 97
3, 261965, Note_off_c, 0, 72, 64
3, 262082, Note_on_c, 0, 74, 97
3, 262085, Note_off_c, 0, 70, 64
3, 262202, Note_on_c, 0, 77, 97
3, 262205, Note_off_c, 0, 74, 64
3, 262322, Note_on_c, 0, 80, 97
3, 262325, Note_off_c, 0, 77, 64
3, 262442, Note_on_c, 0, 77, 97
3, 262445, Note_off_c, 0, 80, 64
3, 262562, Note_on_c, 0, 79, 97
3, 262565, Note_off_c, 0, 77, 64
3, 263045, Note_off_c, 0, 79, 64
3, 263762, Note_on_c, 0, 75, 97
3, 264122, Note_on_c, 0, 63, 97
3, 264125, Note_off_c, 0, 75, 64
3, 264242, Note_on_c, 0, 65, 97
3, 264245, Note_off_c, 0, 63, 64
3, 264362, Note_on_c, 0, 71, 97
3, 264365, Note_off_c, 0, 65, 64
3, 264482, Note_on_c, 0, 74, 97
3, 264485, Note_off_c, 0, 71, 64
3, 264602, Note_on_c, 0, 71, 97
3, 264605, Note_off_c, 0, 74, 64
3, 264722, Note_on_c, 0, 68, 97
3, 264725, Note_off_c, 0, 71, 64
3, 264842, Note_on_c, 0, 67, 97
3, 264845, Note_off_c, 0, 68, 64
3, 264962, Note_on_c, 0, 71, 97
3, 264965, Note_off_c, 0, 67, 64
3, 265082, Note_on_c, 0, 74, 97
3, 265085, Note_off_c, 0, 71, 64
3, 265202, Note_on_c, 0, 77, 97
3, 265205, Note_off_c, 0, 74, 64
3, 265322, Note_on_c, 0, 74, 97
3, 265325, Note_off_c, 0, 77, 64
3, 265442, Note_on_c, 0, 75, 97
3, 265445, Note_off_c, 0, 74, 64
3, 265562, Note_on_c, 0, 71, 97
3, 265565, Note_off_c, 0, 75, 64
3, 265682, Note_on_c, 0, 72, 97
3, 265685, Note_off_c, 0, 71, 64
3, 265925, Note_off_c, 0, 72, 64
3, 266162, Note_on_c, 0, 71, 97
3, 266282, Note_on_c, 0, 74, 97
3, 266285, Note_off_c, 0, 71, 64
3, 266402, Note_on_c, 0, 65, 97
3, 266405, Note_off_c, 0, 74, 64
3, 266522, Note_on_c, 0, 71, 97
3, 266525, Note_off_c, 0, 65, 64
3, 266642, Note_on_c, 0, 74, 97
3, 266645, Note_off_c, 0, 71, 64
3, 267002, Note_on_c, 0, 62, 97
3, 267005, Note_off_c, 0, 74, 64
3, 267122, Note_on_c, 0, 63, 97
3, 267125, Note_off_c, 0, 62, 64
3, 267242, Note_on_c, 0, 67, 97
3, 267245, Note_off_c, 0, 63, 64
3, 267362, Note_on_c, 0, 68, 97
3, 267365, Note_off_c, 0, 67, 64
3, 267482, Note_on_c, 0, 65, 97
3, 267485, Note_off_c, 0, 68, 64
3, 267602, Note_on_c, 0, 67, 97
3, 267605, Note_off_c, 0, 65, 64
3, 267722, Note_on_c, 0, 71, 97
3, 267725, Note_off_c, 0, 67, 64
3, 267842, Note_on_c, 0, 72, 97
3, 267845, Note_off_c, 0, 71, 64
3, 267962, Note_on_c, 0, 74, 97
3, 267965, Note_off_c, 0, 72, 64
3, 268082, Note_on_c, 0, 75, 97
3, 268085, Note_off_c, 0, 74, 64
3, 268442, Note_on_c, 0, 67, 97
3, 268445, Note_off_c, 0, 75, 64
3, 268562, Note_on_c, 0, 66, 97
3, 268565, Note_off_c, 0, 67, 64
3, 268682, Note_on_c, 0, 69, 97
3, 268685, Note_off_c, 0, 66, 64
3, 268802, Note_on_c, 0, 72, 97
3, 268805, Note_off_c, 0, 69, 64
3, 269162, Note_on_c, 0, 74, 97
3, 269165, Note_off_c, 0, 72, 64
3, 269282, Note_on_c, 0, 72, 97
3, 269285, Note_off_c, 0, 74, 64
3, 269402, Note_on_c, 0, 71, 97
3, 269405, Note_off_c, 0, 72, 64
3, 269522, Note_on_c, 0, 72, 97
3, 269525, Note_off_c, 0, 71, 64
3, 269642, Note_on_c, 0, 69, 97
3, 269645, Note_off_c, 0, 72, 64
3, 269762, Note_on_c, 0, 71, 97
3, 269765, Note_off_c, 0, 69, 64
3, 269882, Note_on_c, 0, 75, 97
3, 269885, Note_off_c, 0, 71, 64
3, 270002, Note_on_c, 0, 74, 97
3, 270005, Note_off_c, 0, 75, 64
3, 270245, Note_off_c, 0, 74, 64
3, 270482, Note_on_c, 0, 68, 97
3, 270602, Note_on_c, 0, 67, 97
3, 270605, Note_off_c, 0, 68, 64
3, 270722, Note_on_c, 0, 71, 97
3, 270725, Note_off_c, 0, 67, 64
3, 270965, Note_off_c, 0, 71, 64
3, 271202, Note_on_c, 0, 72, 97
3, 271322, Note_on_c, 0, 67, 97
3, 271325, Note_off_c, 0, 72, 64
3, 271442, Note_on_c, 0, 65, 97
3, 271445, Note_off_c, 0, 67, 64
3, 271562, Note_on_c, 0, 63, 97
3, 271565, Note_off_c, 0, 65, 64
3, 271682, Note_on_c, 0, 65, 97
3, 271685, Note_off_c, 0, 63, 64
3, 271802, Note_on_c, 0, 68, 97
3, 271805, Note_off_c, 0, 65, 64
3, 271922, Note_on_c, 0, 63, 97
3, 271925, Note_off_c, 0, 68, 64
3, 272042, Note_on_c, 0, 62, 97
3, 272045, Note_off_c, 0, 63, 64
3, 272162, Note_on_c, 0, 65, 97
3, 272165, Note_off_c, 0, 62, 64
3, 272282, Note_on_c, 0, 63, 97
3, 272285, Note_off_c, 0, 65, 64
3, 272402, Note_on_c, 0, 62, 97
3, 272405, Note_off_c, 0, 63, 64
3, 272522, Note_on_c, 0, 63, 97
3, 272525, Note_off_c, 0, 62, 64
3, 272642, Note_on_c, 0, 60, 97
3, 272645, Note_off_c, 0, 63, 64
3, 272762, Note_on_c, 0, 63, 97
3, 272765, Note_off_c, 0, 60, 64
3, 272882, Note_on_c, 0, 62, 97
3, 272885, Note_off_c, 0, 63, 64
3, 273002, Note_on_c, 0, 60, 97
3, 273005, Note_off_c, 0, 62, 64
3, 273122, Note_on_c, 0, 62, 97
3, 273125, Note_off_c, 0, 60, 64
3, 273242, Note_on_c, 0, 59, 97
3, 273245, Note_off_c, 0, 62, 64
3, 273362, Note_on_c, 0, 55, 97
3, 273365, Note_off_c, 0, 59, 64
3, 273602, Note_on_c, 0, 60, 97
3, 273605, Note_off_c, 0, 55, 64
3, 273842, Note_on_c, 0, 59, 97
3, 273845, Note_off_c, 0, 60, 64
3, 274082, Note_on_c, 0, 60, 97
3, 274085, Note_off_c, 0, 59, 64
3, 275285, Note_off_c, 0, 60, 64
3, 284162, Note_on_c, 0, 58, 97
3, 284402, Note_on_c, 0, 70, 97
3, 284405, Note_off_c, 0, 58, 64
3, 284642, Note_on_c, 0, 60, 97
3, 284645, Note_off_c, 0, 70, 64
3, 284882, Note_on_c, 0, 70, 97
3, 284885, Note_off_c, 0, 60, 64
3, 285122, Note_on_c, 0, 62, 97
3, 285125, Note_off_c, 0, 70, 64
3, 285362, Note_on_c, 0, 70, 97
3, 285365, Note_off_c, 0, 62, 64
3, 285602, Note_on_c, 0, 63, 97
3, 285605, Note_off_c, 0, 70, 64
3, 285842, Note_on_c, 0, 70, 97
3, 285845, Note_off_c, 0, 63, 64
3, 286082, Note_on_c, 0, 65, 97
3, 286085, Note_off_c, 0, 70, 64
3, 286322, Note_on_c, 0, 70, 97
3, 286325, Note_off_c, 0, 65, 64
3, 286562, Note_on_c, 0, 67, 97
3, 286565, Note_off_c, 0, 70, 64
3, 286802, Note_on_c, 0, 70, 97
3, 286805, Note_off_c, 0, 67, 64
3, 287042, Note_on_c, 0, 65, 97
3, 287045, Note_off_c, 0, 70, 64
3, 287162, Note_on_c, 0, 70, 97
3, 287165, Note_off_c, 0, 65, 64
3, 287282, Note_on_c, 0, 69, 97
3, 287285, Note_off_c, 0, 70, 64
3, 287402, Note_on_c, 0, 67, 97
3, 287405, Note_off_c, 0, 69, 64
3, 287522, Note_on_c, 0, 65, 97
3, 287525, Note_off_c, 0, 67, 64
3, 287642, Note_on_c, 0, 74, 97
3, 287645, Note_off_c, 0, 65, 64
3, 287762, Note_on_c, 0, 72, 97
3, 287765, Note_off_c, 0, 74, 64
3, 287882, Note_on_c, 0, 70, 97
3, 287885, Note_off_c, 0, 72, 64
3, 288002, Note_on_c, 0, 69, 97
3, 288005, Note_off_c, 0, 70, 64
3, 288122, Note_on_c, 0, 67, 97
3, 288125, Note_off_c, 0, 69, 64
3, 288242, Note_on_c, 0, 65, 97
3, 288245, Note_off_c, 0, 67, 64
3, 288362, Note_on_c, 0, 63, 97
3, 288365, Note_off_c, 0, 65, 64
3, 288482, Note_on_c, 0, 62, 97
3, 288485, Note_off_c, 0, 63, 64
3, 288602, Note_on_c, 0, 63, 97
3, 288605, Note_off_c, 0, 62, 64
3, 288722, Note_on_c, 0, 65, 97
3, 288725, Note_off_c, 0, 63, 64
3, 288842, Note_on_c, 0, 62, 97
3, 288845, Note_off_c, 0, 65, 64
3, 288962, Note_on_c, 0, 58, 97
3, 288965, Note_off_c, 0, 62, 64
3, 289082, Note_on_c, 0, 62, 97
3, 289085, Note_off_c, 0, 58, 64
3, 289202, Note_on_c, 0, 65, 97
3, 289205, Note_off_c, 0, 62, 64
3, 289322, Note_on_c, 0, 70, 97
3, 289325, Note_off_c, 0, 65, 64
3, 289442, Note_on_c, 0, 62, 97
3, 289445, Note_off_c, 0, 70, 64
3, 289562, Note_on_c, 0, 65, 97
3, 289565, Note_off_c, 0, 62, 64
3, 289682, Note_on_c, 0, 68, 97
3, 289685, Note_off_c, 0, 65, 64
3, 289802, Note_on_c, 0, 70, 97
3, 289805, Note_off_c, 0, 68, 64
3, 289922, Note_on_c, 0, 67, 97
3, 289925, Note_off_c, 0, 70, 64
3, 290042, Note_on_c, 0, 65, 97
3, 290045, Note_off_c, 0, 67, 64
3, 290162, Note_on_c, 0, 67, 97
3, 290165, Note_off_c, 0, 65, 64
3, 290282, Note_on_c, 0, 70, 97
3, 290285, Note_off_c, 0, 67, 64
3, 290402, Note_on_c, 0, 68, 97
3, 290405, Note_off_c, 0, 70, 64
3, 290522, Note_on_c, 0, 67, 97
3, 290525, Note_off_c, 0, 68, 64
3, 290642, Note_on_c, 0, 68, 97
3, 290645, Note_off_c, 0, 67, 64
3, 290762, Note_on_c, 0, 72, 97
3, 290765, Note_off_c, 0, 68, 64
3, 290882, Note_on_c, 0, 70, 97
3, 290885, Note_off_c, 0, 72, 64
3, 291002, Note_on_c, 0, 68, 97
3, 291005, Note_off_c, 0, 70, 64
3, 291122, Note_on_c, 0, 70, 97
3, 291125, Note_off_c, 0, 68, 64
3, 291242, Note_on_c, 0, 73, 97
3, 291245, Note_off_c, 0, 70, 64
3, 291362, Note_on_c, 0, 72, 97
3, 291365, Note_off_c, 0, 73, 64
3, 291482, Note_on_c, 0, 70, 97
3, 291485, Note_off_c, 0, 72, 64
3, 291602, Note_on_c, 0, 72, 97
3, 291605, Note_off_c, 0, 70, 64
3, 291722, Note_on_c, 0, 75, 97
3, 291725, Note_off_c, 0, 72, 64
3, 291842, Note_on_c, 0, 67, 97
3, 291845, Note_off_c, 0, 75, 64
3, 291962, Note_on_c, 0, 65, 97
3, 291965, Note_off_c, 0, 67, 64
3, 292082, Note_on_c, 0, 67, 97
3, 292085, Note_off_c, 0, 65, 64
3, 292202, Note_on_c, 0, 75, 97
3, 292205, Note_off_c, 0, 67, 64
3, 292322, Note_on_c, 0, 68, 97
3, 292325, Note_off_c, 0, 75, 64
3, 292442, Note_on_c, 0, 67, 97
3, 292445, Note_off_c, 0, 68, 64
3, 292562, Note_on_c, 0, 68, 97
3, 292565, Note_off_c, 0, 67, 64
3, 292682, Note_on_c, 0, 75, 97
3, 292685, Note_off_c, 0, 68, 64
3, 292802, Note_on_c, 0, 67, 97
3, 292805, Note_off_c, 0, 75, 64
3, 293042, Note_on_c, 0, 70, 97
3, 293045, Note_off_c, 0, 67, 64
3, 293282, Note_on_c, 0, 75, 97
3, 293285, Note_off_c, 0, 70, 64
3, 293522, Note_on_c, 0, 67, 97
3, 293525, Note_off_c, 0, 75, 64
3, 293762, Note_on_c, 0, 65, 97
3, 293765, Note_off_c, 0, 67, 64
3, 294002, Note_on_c, 0, 70, 97
3, 294005, Note_off_c, 0, 65, 64
3, 294245, Note_off_c, 0, 70, 64
3, 294362, Note_on_c, 0, 63, 97
3, 294482, Note_on_c, 0, 65, 97
3, 294485, Note_off_c, 0, 63, 64
3, 294602, Note_on_c, 0, 67, 97
3, 294605, Note_off_c, 0, 65, 64
3, 294722, Note_on_c, 0, 68, 97
3, 294725, Note_off_c, 0, 67, 64
3, 294842, Note_on_c, 0, 70, 97
3, 294845, Note_off_c, 0, 68, 64
3, 294962, Note_on_c, 0, 72, 97
3, 294965, Note_off_c, 0, 70, 64
3, 295082, Note_on_c, 0, 70, 97
3, 295085, Note_off_c, 0, 72, 64
3, 295202, Note_on_c, 0, 68, 97
3, 295205, Note_off_c, 0, 70, 64
3, 295322, Note_on_c, 0, 67, 97
3, 295325, Note_off_c, 0, 68, 64
3, 295442, Note_on_c, 0, 65, 97
3, 295445, Note_off_c, 0, 67, 64
3, 295562, Note_on_c, 0, 68, 97
3, 295565, Note_off_c, 0, 65, 64
3, 295682, Note_on_c, 0, 67, 97
3, 295685, Note_off_c, 0, 68, 64
3, 295922, Note_on_c, 0, 58, 97
3, 295925, Note_off_c, 0, 67, 64
3, 296162, Note_on_c, 0, 60, 97
3, 296165, Note_off_c, 0, 58, 64
3, 296402, Note_on_c, 0, 56, 97
3, 296405, Note_off_c, 0, 60, 64
3, 296642, Note_on_c, 0, 65, 97
3, 296645, Note_off_c, 0, 56, 64
3, 297242, Note_on_c, 0, 68, 97
3, 297245, Note_off_c, 0, 65, 64
3, 297362, Note_on_c, 0, 67, 97
3, 297365, Note_off_c, 0, 68, 64
3, 297482, Note_on_c, 0, 65, 97
3, 297485, Note_off_c, 0, 67, 64
3, 297602, Note_on_c, 0, 63, 97
3, 297605, Note_off_c, 0, 65, 64
3, 297722, Note_on_c, 0, 62, 97
3, 297725, Note_off_c, 0, 63, 64
3, 297842, Note_on_c, 0, 60, 97
3, 297845, Note_off_c, 0, 62, 64
3, 297962, Note_on_c, 0, 58, 97
3, 297965, Note_off_c, 0, 60, 64
3, 298082, Note_on_c, 0, 56, 97
3, 298085, Note_off_c, 0, 58, 64
3, 298202, Note_on_c, 0, 55, 97
3, 298205, Note_off_c, 0, 56, 64
3, 298322, Note_on_c, 0, 56, 97
3, 298325, Note_off_c, 0, 55, 64
3, 298442, Note_on_c, 0, 65, 97
3, 298445, Note_off_c, 0, 56, 64
3, 298562, Note_on_c, 0, 55, 97
3, 298565, Note_off_c, 0, 65, 64
3, 298682, Note_on_c, 0, 65, 97
3, 298685, Note_off_c, 0, 55, 64
3, 298802, Note_on_c, 0, 63, 97
3, 298805, Note_off_c, 0, 65, 64
3, 298922, Note_on_c, 0, 62, 97
3, 298925, Note_off_c, 0, 63, 64
3, 299042, Note_on_c, 0, 60, 97
3, 299045, Note_off_c, 0, 62, 64
3, 299162, Note_on_c, 0, 58, 97
3, 299165, Note_off_c, 0, 60, 64
3, 299282, Note_on_c, 0, 56, 97
3, 299285, Note_off_c, 0, 58, 64
3, 299402, Note_on_c, 0, 55, 97
3, 299405, Note_off_c, 0, 56, 64
3, 299522, Note_on_c, 0, 53, 97
3, 299525, Note_off_c, 0, 55, 64
3, 300122, Note_on_c, 0, 56, 97
3, 300125, Note_off_c, 0, 53, 64
3, 300242, Note_on_c, 0, 55, 97
3, 300245, Note_off_c, 0, 56, 64
3, 300362, Note_on_c, 0, 53, 97
3, 300365, Note_off_c, 0, 55, 64
3, 300482, Note_on_c, 0, 51, 97
3, 300485, Note_off_c, 0, 53, 64
3, 300722, Note_on_c, 0, 55, 97
3, 300725, Note_off_c, 0, 51, 64
3, 300962, Note_on_c, 0, 57, 97
3, 300965, Note_off_c, 0, 55, 64
3, 301202, Note_on_c, 0, 59, 97
3, 301205, Note_off_c, 0, 57, 64
3, 301442, Note_on_c, 0, 60, 97
3, 301445, Note_off_c, 0, 59, 64
3, 301685, Note_off_c, 0, 60, 64
3, 303002, Note_on_c, 0, 65, 97
3, 303122, Note_on_c, 0, 63, 97
3, 303125, Note_off_c, 0, 65, 64
3, 303242, Note_on_c, 0, 65, 97
3, 303245, Note_off_c, 0, 63, 64
3, 303362, Note_on_c, 0, 60, 97
3, 303365, Note_off_c, 0, 65, 64
3, 303482, Note_on_c, 0, 65, 97
3, 303485, Note_off_c, 0, 60, 64
3, 303602, Note_on_c, 0, 63, 97
3, 303605, Note_off_c, 0, 65, 64
3, 303722, Note_on_c, 0, 65, 97
3, 303725, Note_off_c, 0, 63, 64
3, 303842, Note_on_c, 0, 68, 97
3, 303845, Note_off_c, 0, 65, 64
3, 303962, Note_on_c, 0, 65, 97
3, 303965, Note_off_c, 0, 68, 64
3, 304082, Note_on_c, 0, 63, 97
3, 304085, Note_off_c, 0, 65, 64
3, 304202, Note_on_c, 0, 65, 97
3, 304205, Note_off_c, 0, 63, 64
3, 304322, Note_on_c, 0, 62, 97
3, 304325, Note_off_c, 0, 65, 64
3, 304565, Note_off_c, 0, 62, 64
3, 304802, Note_on_c, 0, 68, 97
3, 305045, Note_off_c, 0, 68, 64
3, 305282, Note_on_c, 0, 68, 97
3, 305525, Note_off_c, 0, 68, 64
3, 305882, Note_on_c, 0, 63, 97
3, 306002, Note_on_c, 0, 61, 97
3, 306005, Note_off_c, 0, 63, 64
3, 306122, Note_on_c, 0, 63, 97
3, 306125, Note_off_c, 0, 61, 64
3, 306242, Note_on_c, 0, 58, 97
3, 306245, Note_off_c, 0, 63, 64
3, 306362, Note_on_c, 0, 63, 97
3, 306365, Note_off_c, 0, 58, 64
3, 306482, Note_on_c, 0, 61, 97
3, 306485, Note_off_c, 0, 63, 64
3, 306602, Note_on_c, 0, 63, 97
3, 306605, Note_off_c, 0, 61, 64
3, 306722, Note_on_c, 0, 67, 97
3, 306725, Note_off_c, 0, 63, 64
3, 306842, Note_on_c, 0, 63, 97
3, 306845, Note_off_c, 0, 67, 64
3, 306962, Note_on_c, 0, 61, 97
3, 306965, Note_off_c, 0, 63, 64
3, 307082, Note_on_c, 0, 63, 97
3, 307085, Note_off_c, 0, 61, 64
3, 307202, Note_on_c, 0, 60, 97
3, 307205, Note_off_c, 0, 63, 64
3, 307322, Note_on_c, 0, 65, 97
3, 307325, Note_off_c, 0, 60, 64
3, 307442, Note_on_c, 0, 64, 97
3, 307445, Note_off_c, 0, 65, 64
3, 307562, Note_on_c, 0, 65, 97
3, 307565, Note_off_c, 0, 64, 64
3, 307682, Note_on_c, 0, 60, 97
3, 307685, Note_off_c, 0, 65, 64
3, 307802, Note_on_c, 0, 65, 97
3, 307805, Note_off_c, 0, 60, 64
3, 307922, Note_on_c, 0, 64, 97
3, 307925, Note_off_c, 0, 65, 64
3, 308042, Note_on_c, 0, 65, 97
3, 308045, Note_off_c, 0, 64, 64
3, 308162, Note_on_c, 0, 68, 97
3, 308165, Note_off_c, 0, 65, 64
3, 308282, Note_on_c, 0, 65, 97
3, 308285, Note_off_c, 0, 68, 64
3, 308402, Note_on_c, 0, 64, 97
3, 308405, Note_off_c, 0, 65, 64
3, 308522, Note_on_c, 0, 65, 97
3, 308525, Note_off_c, 0, 64, 64
3, 308642, Note_on_c, 0, 62, 97
3, 308645, Note_off_c, 0, 65, 64
3, 308882, Note_on_c, 0, 65, 97
3, 308885, Note_off_c, 0, 62, 64
3, 309122, Note_on_c, 0, 70, 97
3, 309125, Note_off_c, 0, 65, 64
3, 310202, Note_on_c, 0, 58, 97
3, 310205, Note_off_c, 0, 70, 64
3, 310322, Note_on_c, 0, 56, 97
3, 310325, Note_off_c, 0, 58, 64
3, 310442, Note_on_c, 0, 58, 97
3, 310445, Note_off_c, 0, 56, 64
3, 310562, Note_on_c, 0, 63, 97
3, 310565, Note_off_c, 0, 58, 64
3, 310682, Note_on_c, 0, 58, 97
3, 310685, Note_off_c, 0, 63, 64
3, 310802, Note_on_c, 0, 56, 97
3, 310805, Note_off_c, 0, 58, 64
3, 310922, Note_on_c, 0, 58, 97
3, 310925, Note_off_c, 0, 56, 64
3, 311042, Note_on_c, 0, 67, 97
3, 311045, Note_off_c, 0, 58, 64
3, 311162, Note_on_c, 0, 63, 97
3, 311165, Note_off_c, 0, 67, 64
3, 311282, Note_on_c, 0, 62, 97
3, 311285, Note_off_c, 0, 63, 64
3, 311402, Note_on_c, 0, 63, 97
3, 311405, Note_off_c, 0, 62, 64
3, 311522, Note_on_c, 0, 69, 97
3, 311525, Note_off_c, 0, 63, 64
3, 311642, Note_on_c, 0, 70, 97
3, 311645, Note_off_c, 0, 69, 64
3, 311762, Note_on_c, 0, 69, 97
3, 311765, Note_off_c, 0, 70, 64
3, 311882, Note_on_c, 0, 67, 97
3, 311885, Note_off_c, 0, 69, 64
3, 312002, Note_on_c, 0, 65, 97
3, 312005, Note_off_c, 0, 67, 64
3, 312122, Note_on_c, 0, 74, 97
3, 312125, Note_off_c, 0, 65, 64
3, 312242, Note_on_c, 0, 72, 97
3, 312245, Note_off_c, 0, 74, 64
3, 312362, Note_on_c, 0, 70, 97
3, 312365, Note_off_c, 0, 72, 64
3, 312482, Note_on_c, 0, 69, 97
3, 312485, Note_off_c, 0, 70, 64
3, 312602, Note_on_c, 0, 67, 97
3, 312605, Note_off_c, 0, 69, 64
3, 312722, Note_on_c, 0, 65, 97
3, 312725, Note_off_c, 0, 67, 64
3, 312842, Note_on_c, 0, 63, 97
3, 312845, Note_off_c, 0, 65, 64
3, 312962, Note_on_c, 0, 62, 97
3, 312965, Note_off_c, 0, 63, 64
3, 313082, Note_on_c, 0, 60, 97
3, 313085, Note_off_c, 0, 62, 64
3, 313202, Note_on_c, 0, 62, 97
3, 313205, Note_off_c, 0, 60, 64
3, 313322, Note_on_c, 0, 65, 97
3, 313325, Note_off_c, 0, 62, 64
3, 313442, Note_on_c, 0, 63, 97
3, 313445, Note_off_c, 0, 65, 64
3, 313562, Note_on_c, 0, 62, 97
3, 313565, Note_off_c, 0, 63, 64
3, 313682, Note_on_c, 0, 63, 97
3, 313685, Note_off_c, 0, 62, 64
3, 313802, Note_on_c, 0, 67, 97
3, 313805, Note_off_c, 0, 63, 64
3, 313922, Note_on_c, 0, 65, 97
3, 313925, Note_off_c, 0, 67, 64
3, 314042, Note_on_c, 0, 63, 97
3, 314045, Note_off_c, 0, 65, 64
3, 314162, Note_on_c, 0, 65, 97
3, 314165, Note_off_c, 0, 63, 64
3, 314282, Note_on_c, 0, 68, 97
3, 314285, Note_off_c, 0, 65, 64
3, 314402, Note_on_c, 0, 67, 97
3, 314405, Note_off_c, 0, 68, 64
3, 314522, Note_on_c, 0, 65, 97
3, 314525, Note_off_c, 0, 67, 64
3, 314642, Note_on_c, 0, 67, 97
3, 314645, Note_off_c, 0, 65, 64
3, 314762, Note_on_c, 0, 70, 97
3, 314765, Note_off_c, 0, 67, 64
3, 314882, Note_on_c, 0, 62, 97
3, 314885, Note_off_c, 0, 70, 64
3, 315002, Note_on_c, 0, 60, 97
3, 315005, Note_off_c, 0, 62, 64
3, 315122, Note_on_c, 0, 62, 97
3, 315125, Note_off_c, 0, 60, 64
3, 315242, Note_on_c, 0, 70, 97
3, 315245, Note_off_c, 0, 62, 64
3, 315362, Note_on_c, 0, 63, 97
3, 315365, Note_off_c, 0, 70, 64
3, 315482, Note_on_c, 0, 62, 97
3, 315485, Note_off_c, 0, 63, 64
3, 315602, Note_on_c, 0, 63, 97
3, 315605, Note_off_c, 0, 62, 64
3, 315722, Note_on_c, 0, 70, 97
3, 315725, Note_off_c, 0, 63, 64
3, 315842, Note_on_c, 0, 62, 97
3, 315845, Note_off_c, 0, 70, 64
3, 316325, Note_off_c, 0, 62, 64
3, 316442, Note_on_c, 0, 74, 97
3, 316562, Note_on_c, 0, 72, 97
3, 316565, Note_off_c, 0, 74, 64
3, 316682, Note_on_c, 0, 70, 97
3, 316685, Note_off_c, 0, 72, 64
3, 316802, Note_on_c, 0, 69, 97
3, 316805, Note_off_c, 0, 70, 64
3, 316922, Note_on_c, 0, 67, 97
3, 316925, Note_off_c, 0, 69, 64
3, 317042, Note_on_c, 0, 65, 97
3, 317045, Note_off_c, 0, 67, 64
3, 317162, Note_on_c, 0, 63, 97
3, 317165, Note_off_c, 0, 65, 64
3, 317282, Note_on_c, 0, 62, 97
3, 317285, Note_off_c, 0, 63, 64
3, 317402, Note_on_c, 0, 70, 97
3, 317405, Note_off_c, 0, 62, 64
3, 317522, Note_on_c, 0, 69, 97
3, 317525, Note_off_c, 0, 70, 64
3, 317642, Note_on_c, 0, 70, 97
3, 317645, Note_off_c, 0, 69, 64
3, 317762, Note_on_c, 0, 63, 97
3, 317765, Note_off_c, 0, 70, 64
3, 317882, Note_on_c, 0, 70, 97
3, 317885, Note_off_c, 0, 63, 64
3, 318002, Note_on_c, 0, 62, 97
3, 318005, Note_off_c, 0, 70, 64
3, 318122, Note_on_c, 0, 70, 97
3, 318125, Note_off_c, 0, 62, 64
3, 318242, Note_on_c, 0, 63, 97
3, 318245, Note_off_c, 0, 70, 64
3, 318362, Note_on_c, 0, 70, 97
3, 318365, Note_off_c, 0, 63, 64
3, 318482, Note_on_c, 0, 60, 97
3, 318485, Note_off_c, 0, 70, 64
3, 318602, Note_on_c, 0, 70, 97
3, 318605, Note_off_c, 0, 60, 64
3, 318722, Note_on_c, 0, 62, 97
3, 318725, Note_off_c, 0, 70, 64
3, 318962, Note_on_c, 0, 65, 97
3, 318965, Note_off_c, 0, 62, 64
3, 319202, Note_on_c, 0, 67, 97
3, 319205, Note_off_c, 0, 65, 64
3, 319442, Note_on_c, 0, 65, 97
3, 319445, Note_off_c, 0, 67, 64
3, 319682, Note_on_c, 0, 67, 97
3, 319685, Note_off_c, 0, 65, 64
3, 319922, Note_on_c, 0, 63, 97
3, 319925, Note_off_c, 0, 67, 64
3, 320162, Note_on_c, 0, 65, 97
3, 320165, Note_off_c, 0, 63, 64
3, 320282, Note_on_c, 0, 58, 97
3, 320285, Note_off_c, 0, 65, 64
3, 320402, Note_on_c, 0, 60, 97
3, 320405, Note_off_c, 0, 58, 64
3, 320522, Note_on_c, 0, 62, 97
3, 320525, Note_off_c, 0, 60, 64
3, 320642, Note_on_c, 0, 63, 97
3, 320645, Note_off_c, 0, 62, 64
3, 321242, Note_on_c, 0, 62, 97
3, 321245, Note_off_c, 0, 63, 64
3, 321362, Note_on_c, 0, 63, 97
3, 321365, Note_off_c, 0, 62, 64
3, 321482, Note_on_c, 0, 60, 97
3, 321485, Note_off_c, 0, 63, 64
3, 321602, Note_on_c, 0, 65, 97
3, 321605, Note_off_c, 0, 60, 64
3, 321842, Note_on_c, 0, 62, 97
3, 321845, Note_off_c, 0, 65, 64
3, 322082, Note_on_c, 0, 63, 97
3, 322085, Note_off_c, 0, 62, 64
3, 322325, Note_off_c, 0, 63, 64
3, 322562, Note_on_c, 0, 60, 97
3, 322622, Note_on_c, 0, 62, 97
3, 322625, Note_off_c, 0, 60, 64
3, 322682, Note_on_c, 0, 60, 97
3, 322685, Note_off_c, 0, 62, 64
3, 323042, Note_on_c, 0, 62, 97
3, 323045, Note_off_c, 0, 60, 64
3, 324485, Note_off_c, 0, 62, 64
3, 330242, Note_on_c, 0, 58, 97
3, 330482, Note_on_c, 0, 70, 97
3, 330485, Note_off_c, 0, 58, 64
3, 330722, Note_on_c, 0, 60, 97
3, 330725, Note_off_c, 0, 70, 64
3, 330962, Note_on_c, 0, 70, 97
3, 330965, Note_off_c, 0, 60, 64
3, 331202, Note_on_c, 0, 62, 97
3, 331205, Note_off_c, 0, 70, 64
3, 331442, Note_on_c, 0, 70, 97
3, 331445, Note_off_c, 0, 62, 64
3, 331682, Note_on_c, 0, 63, 97
3, 331685, Note_off_c, 0, 70, 64
3, 331922, Note_on_c, 0, 70, 97
3, 331925, Note_off_c, 0, 63, 64
3, 332162, Note_on_c, 0, 65, 97
3, 332165, Note_off_c, 0, 70, 64
3, 332402, Note_on_c, 0, 70, 97
3, 332405, Note_off_c, 0, 65, 64
3, 332642, Note_on_c, 0, 67, 97
3, 332645, Note_off_c, 0, 70, 64
3, 332882, Note_on_c, 0, 70, 97
3, 332885, Note_off_c, 0, 67, 64
3, 333122, Note_on_c, 0, 65, 97
3, 333125, Note_off_c, 0, 70, 64
3, 333242, Note_on_c, 0, 70, 97
3, 333245, Note_off_c, 0, 65, 64
3, 333362, Note_on_c, 0, 69, 97
3, 333365, Note_off_c, 0, 70, 64
3, 333482, Note_on_c, 0, 67, 97
3, 333485, Note_off_c, 0, 69, 64
3, 333602, Note_on_c, 0, 65, 97
3, 333605, Note_off_c, 0, 67, 64
3, 333722, Note_on_c, 0, 74, 97
3, 333725, Note_off_c, 0, 65, 64
3, 333842, Note_on_c, 0, 72, 97
3, 333845, Note_off_c, 0, 74, 64
3, 333962, Note_on_c, 0, 70, 97
3, 333965, Note_off_c, 0, 72, 64
3, 334082, Note_on_c, 0, 69, 97
3, 334085, Note_off_c, 0, 70, 64
3, 334202, Note_on_c, 0, 67, 97
3, 334205, Note_off_c, 0, 69, 64
3, 334322, Note_on_c, 0, 65, 97
3, 334325, Note_off_c, 0, 67, 64
3, 334442, Note_on_c, 0, 63, 97
3, 334445, Note_off_c, 0, 65, 64
3, 334562, Note_on_c, 0, 62, 97
3, 334565, Note_off_c, 0, 63, 64
3, 334682, Note_on_c, 0, 63, 97
3, 334685, Note_off_c, 0, 62, 64
3, 334802, Note_on_c, 0, 65, 97
3, 334805, Note_off_c, 0, 63, 64
3, 334922, Note_on_c, 0, 62, 97
3, 334925, Note_off_c, 0, 65, 64
3, 335042, Note_on_c, 0, 58, 97
3, 335045, Note_off_c, 0, 62, 64
3, 335162, Note_on_c, 0, 62, 97
3, 335165, Note_off_c, 0, 58, 64
3, 335282, Note_on_c, 0, 65, 97
3, 335285, Note_off_c, 0, 62, 64
3, 335402, Note_on_c, 0, 70, 97
3, 335405, Note_off_c, 0, 65, 64
3, 335522, Note_on_c, 0, 62, 97
3, 335525, Note_off_c, 0, 70, 64
3, 335642, Note_on_c, 0, 65, 97
3, 335645, Note_off_c, 0, 62, 64
3, 335762, Note_on_c, 0, 68, 97
3, 335765, Note_off_c, 0, 65, 64
3, 335882, Note_on_c, 0, 70, 97
3, 335885, Note_off_c, 0, 68, 64
3, 336002, Note_on_c, 0, 67, 97
3, 336005, Note_off_c, 0, 70, 64
3, 336122, Note_on_c, 0, 65, 97
3, 336125, Note_off_c, 0, 67, 64
3, 336242, Note_on_c, 0, 67, 97
3, 336245, Note_off_c, 0, 65, 64
3, 336362, Note_on_c, 0, 70, 97
3, 336365, Note_off_c, 0, 67, 64
3, 336482, Note_on_c, 0, 68, 97
3, 336485, Note_off_c, 0, 70, 64
3, 336602, Note_on_c, 0, 67, 97
3, 336605, Note_off_c, 0, 68, 64
3, 336722, Note_on_c, 0, 68, 97
3, 336725, Note_off_c, 0, 67, 64
3, 336842, Note_on_c, 0, 72, 97
3, 336845, Note_off_c, 0, 68, 64
3, 336962, Note_on_c, 0, 70, 97
3, 336965, Note_off_c, 0, 72, 64
3, 337082, Note_on_c, 0, 68, 97
3, 337085, Note_off_c, 0, 70, 64
3, 337202, Note_on_c, 0, 70, 97
3, 337205, Note_off_c, 0, 68, 64
3, 337322, Note_on_c, 0, 73, 97
3, 337325, Note_off_c, 0, 70, 64
3, 337442, Note_on_c, 0, 72, 97
3, 337445, Note_off_c, 0, 73, 64
3, 337562, Note_on_c, 0, 70, 97
3, 337565, Note_off_c, 0, 72, 64
3, 337682, Note_on_c, 0, 72, 97
3, 337685, Note_off_c, 0, 70, 64
3, 337802, Note_on_c, 0, 75, 97
3, 337805, Note_off_c, 0, 72, 64
3, 337922, Note_on_c, 0, 67, 97
3, 337925, Note_off_c, 0, 75, 64
3, 338042, Note_on_c, 0, 65, 97
3, 338045, Note_off_c, 0, 67, 64
3, 338162, Note_on_c, 0, 67, 97
3, 338165, Note_off_c, 0, 65, 64
3, 338282, Note_on_c, 0, 75, 97
3, 338285, Note_off_c, 0, 67, 64
3, 338402, Note_on_c, 0, 68, 97
3, 338405, Note_off_c, 0, 75, 64
3, 338522, Note_on_c, 0, 67, 97
3, 338525, Note_off_c, 0, 68, 64
3, 338642, Note_on_c, 0, 68, 97
3, 338645, Note_off_c, 0, 67, 64
3, 338762, Note_on_c, 0, 75, 97
3, 338765, Note_off_c, 0, 68, 64
3, 338882, Note_on_c, 0, 67, 97
3, 338885, Note_off_c, 0, 75, 64
3, 339122, Note_on_c, 0, 70, 97
3, 339125, Note_off_c, 0, 67, 64
3, 339362, Note_on_c, 0, 75, 97
3, 339365, Note_off_c, 0, 70, 64
3, 339602, Note_on_c, 0, 67, 97
3, 339605, Note_off_c, 0, 75, 64
3, 339842, Note_on_c, 0, 65, 97
3, 339845, Note_off_c, 0, 67, 64
3, 340082, Note_on_c, 0, 70, 97
3, 340085, Note_off_c, 0, 65, 64
3, 340325, Note_off_c, 0, 70, 64
3, 340442, Note_on_c, 0, 63, 97
3, 340562, Note_on_c, 0, 65, 97
3, 340565, Note_off_c, 0, 63, 64
3, 340682, Note_on_c, 0, 67, 97
3, 340685, Note_off_c, 0, 65, 64
3, 340802, Note_on_c, 0, 68, 97
3, 340805, Note_off_c, 0, 67, 64
3, 340922, Note_on_c, 0, 70, 97
3, 340925, Note_off_c, 0, 68, 64
3, 341042, Note_on_c, 0, 72, 97
3, 341045, Note_off_c, 0, 70, 64
3, 341162, Note_on_c, 0, 70, 97
3, 341165, Note_off_c, 0, 72, 64
3, 341282, Note_on_c, 0, 68, 97
3, 341285, Note_off_c, 0, 70, 64
3, 341402, Note_on_c, 0, 67, 97
3, 341405, Note_off_c, 0, 68, 64
3, 341522, Note_on_c, 0, 65, 97
3, 341525, Note_off_c, 0, 67, 64
3, 341642, Note_on_c, 0, 68, 97
3, 341645, Note_off_c, 0, 65, 64
3, 341762, Note_on_c, 0, 67, 97
3, 341765, Note_off_c, 0, 68, 64
3, 342002, Note_on_c, 0, 58, 97
3, 342005, Note_off_c, 0, 67, 64
3, 342242, Note_on_c, 0, 60, 97
3, 342245, Note_off_c, 0, 58, 64
3, 342482, Note_on_c, 0, 56, 97
3, 342485, Note_off_c, 0, 60, 64
3, 342722, Note_on_c, 0, 65, 97
3, 342725, Note_off_c, 0, 56, 64
3, 343322, Note_on_c, 0, 68, 97
3, 343325, Note_off_c, 0, 65, 64
3, 343442, Note_on_c, 0, 67, 97
3, 343445, Note_off_c, 0, 68, 64
3, 343562, Note_on_c, 0, 65, 97
3, 343565, Note_off_c, 0, 67, 64
3, 343682, Note_on_c, 0, 63, 97
3, 343685, Note_off_c, 0, 65, 64
3, 343802, Note_on_c, 0, 62, 97
3, 343805, Note_off_c, 0, 63, 64
3, 343922, Note_on_c, 0, 60, 97
3, 343925, Note_off_c, 0, 62, 64
3, 344042, Note_on_c, 0, 58, 97
3, 344045, Note_off_c, 0, 60, 64
3, 344162, Note_on_c, 0, 56, 97
3, 344165, Note_off_c, 0, 58, 64
3, 344282, Note_on_c, 0, 55, 97
3, 344285, Note_off_c, 0, 56, 64
3, 344402, Note_on_c, 0, 56, 97
3, 344405, Note_off_c, 0, 55, 64
3, 344522, Note_on_c, 0, 65, 97
3, 344525, Note_off_c, 0, 56, 64
3, 344642, Note_on_c, 0, 55, 97
3, 344645, Note_off_c, 0, 65, 64
3, 344762, Note_on_c, 0, 65, 97
3, 344765, Note_off_c, 0, 55, 64
3, 344882, Note_on_c, 0, 63, 97
3, 344885, Note_off_c, 0, 65, 64
3, 345002, Note_on_c, 0, 62, 97
3, 345005, Note_off_c, 0, 63, 64
3, 345122, Note_on_c, 0, 60, 97
3, 345125, Note_off_c, 0, 62, 64
3, 345242, Note_on_c, 0, 58, 97
3, 345245, Note_off_c, 0, 60, 64
3, 345362, Note_on_c, 0, 56, 97
3, 345365, Note_off_c, 0, 58, 64
3, 345482, Note_on_c, 0, 55, 97
3, 345485, Note_off_c, 0, 56, 64
3, 345602, Note_on_c, 0, 53, 97
3, 345605, Note_off_c, 0, 55, 64
3, 346202, Note_on_c, 0, 56, 97
3, 346205, Note_off_c, 0, 53, 64
3, 346322, Note_on_c, 0, 55, 97
3, 346325, Note_off_c, 0, 56, 64
3, 346442, Note_on_c, 0, 53, 97
3, 346445, Note_off_c, 0, 55, 64
3, 346562, Note_on_c, 0, 51, 97
3, 346565, Note_off_c, 0, 53, 64
3, 346802, Note_on_c, 0, 55, 97
3, 346805, Note_off_c, 0, 51, 64
3, 347042, Note_on_c, 0, 57, 97
3, 347045, Note_off_c, 0, 55, 64
3, 347282, Note_on_c, 0, 59, 97
3, 347285, Note_off_c, 0, 57, 64
3, 347522, Note_on_c, 0, 60, 97
3, 347525, Note_off_c, 0, 59, 64
3, 347765, Note_off_c, 0, 60, 64
3, 349082, Note_on_c, 0, 65, 97
3, 349202, Note_on_c, 0, 63, 97
3, 349205, Note_off_c, 0, 65, 64
3, 349322, Note_on_c, 0, 65, 97
3, 349325, Note_off_c, 0, 63, 64
3, 349442, Note_on_c, 0, 60, 97
3, 349445, Note_off_c, 0, 65, 64
3, 349562, Note_on_c, 0, 65, 97
3, 349565, Note_off_c, 0, 60, 64
3, 349682, Note_on_c, 0, 63, 97
3, 349685, Note_off_c, 0, 65, 64
3, 349802, Note_on_c, 0, 65, 97
3, 349805, Note_off_c, 0, 63, 64
3, 349922, Note_on_c, 0, 68, 97
3, 349925, Note_off_c, 0, 65, 64
3, 350042, Note_on_c, 0, 65, 97
3, 350045, Note_off_c, 0, 68, 64
3, 350162, Note_on_c, 0, 63, 97
3, 350165, Note_off_c, 0, 65, 64
3, 350282, Note_on_c, 0, 65, 97
3, 350285, Note_off_c, 0, 63, 64
3, 350402, Note_on_c, 0, 62, 97
3, 350405, Note_off_c, 0, 65, 64
3, 350645, Note_off_c, 0, 62, 64
3, 350882, Note_on_c, 0, 68, 97
3, 351125, Note_off_c, 0, 68, 64
3, 351362, Note_on_c, 0, 68, 97
3, 351605, Note_off_c, 0, 68, 64
3, 351962, Note_on_c, 0, 63, 97
3, 352082, Note_on_c, 0, 61, 97
3, 352085, Note_off_c, 0, 63, 64
3, 352202, Note_on_c, 0, 63, 97
3, 352205, Note_off_c, 0, 61, 64
3, 352322, Note_on_c, 0, 58, 97
3, 352325, Note_off_c, 0, 63, 64
3, 352442, Note_on_c, 0, 63, 97
3, 352445, Note_off_c, 0, 58, 64
3, 352562, Note_on_c, 0, 61, 97
3, 352565, Note_off_c, 0, 63, 64
3, 352682, Note_on_c, 0, 63, 97
3, 352685, Note_off_c, 0, 61, 64
3, 352802, Note_on_c, 0, 67, 97
3, 352805, Note_off_c, 0, 63, 64
3, 352922, Note_on_c, 0, 63, 97
3, 352925, Note_off_c, 0, 67, 64
3, 353042, Note_on_c, 0, 61, 97
3, 353045, Note_off_c, 0, 63, 64
3, 353162, Note_on_c, 0, 63, 97
3, 353165, Note_off_c, 0, 61, 64
3, 353282, Note_on_c, 0, 60, 97
3, 353285, Note_off_c, 0, 63, 64
3, 353402, Note_on_c, 0, 65, 97
3, 353405, Note_off_c, 0, 60, 64
3, 353522, Note_on_c, 0, 64, 97
3, 353525, Note_off_c, 0, 65, 64
3, 353642, Note_on_c, 0, 65, 97
3, 353645, Note_off_c, 0, 64, 64
3, 353762, Note_on_c, 0, 60, 97
3, 353765, Note_off_c, 0, 65, 64
3, 353882, Note_on_c, 0, 65, 97
3, 353885, Note_off_c, 0, 60, 64
3, 354002, Note_on_c, 0, 64, 97
3, 354005, Note_off_c, 0, 65, 64
3, 354122, Note_on_c, 0, 65, 97
3, 354125, Note_off_c, 0, 64, 64
3, 354242, Note_on_c, 0, 68, 97
3, 354245, Note_off_c, 0, 65, 64
3, 354362, Note_on_c, 0, 65, 97
3, 354365, Note_off_c, 0, 68, 64
3, 354482, Note_on_c, 0, 64, 97
3, 354485, Note_off_c, 0, 65, 64
3, 354602, Note_on_c, 0, 65, 97
3, 354605, Note_off_c, 0, 64, 64
3, 354722, Note_on_c, 0, 62, 97
3, 354725, Note_off_c, 0, 65, 64
3, 354962, Note_on_c, 0, 65, 97
3, 354965, Note_off_c, 0, 62, 64
3, 355202, Note_on_c, 0, 70, 97
3, 355205, Note_off_c, 0, 65, 64
3, 356282, Note_on_c, 0, 58, 97
3, 356285, Note_off_c, 0, 70, 64
3, 356402, Note_on_c, 0, 56, 97
3, 356405, Note_off_c, 0, 58, 64
3, 356522, Note_on_c, 0, 58, 97
3, 356525, Note_off_c, 0, 56, 64
3, 356642, Note_on_c, 0, 63, 97
3, 356645, Note_off_c, 0, 58, 64
3, 356762, Note_on_c, 0, 58, 97
3, 356765, Note_off_c, 0, 63, 64
3, 356882, Note_on_c, 0, 56, 97
3, 356885, Note_off_c, 0, 58, 64
3, 357002, Note_on_c, 0, 58, 97
3, 357005, Note_off_c, 0, 56, 64
3, 357122, Note_on_c, 0, 67, 97
3, 357125, Note_off_c, 0, 58, 64
3, 357242, Note_on_c, 0, 63, 97
3, 357245, Note_off_c, 0, 67, 64
3, 357362, Note_on_c, 0, 62, 97
3, 357365, Note_off_c, 0, 63, 64
3, 357482, Note_on_c, 0, 63, 97
3, 357485, Note_off_c, 0, 62, 64
3, 357602, Note_on_c, 0, 69, 97
3, 357605, Note_off_c, 0, 63, 64
3, 357722, Note_on_c, 0, 70, 97
3, 357725, Note_off_c, 0, 69, 64
3, 357842, Note_on_c, 0, 69, 97
3, 357845, Note_off_c, 0, 70, 64
3, 357962, Note_on_c, 0, 67, 97
3, 357965, Note_off_c, 0, 69, 64
3, 358082, Note_on_c, 0, 65, 97
3, 358085, Note_off_c, 0, 67, 64
3, 358202, Note_on_c, 0, 74, 97
3, 358205, Note_off_c, 0, 65, 64
3, 358322, Note_on_c, 0, 72, 97
3, 358325, Note_off_c, 0, 74, 64
3, 358442, Note_on_c, 0, 70, 97
3, 358445, Note_off_c, 0, 72, 64
3, 358562, Note_on_c, 0, 69, 97
3, 358565, Note_off_c, 0, 70, 64
3, 358682, Note_on_c, 0, 67, 97
3, 358685, Note_off_c, 0, 69, 64
3, 358802, Note_on_c, 0, 65, 97
3, 358805, Note_off_c, 0, 67, 64
3, 358922, Note_on_c, 0, 63, 97
3, 358925, Note_off_c, 0, 65, 64
3, 359042, Note_on_c, 0, 62, 97
3, 359045, Note_off_c, 0, 63, 64
3, 359162, Note_on_c, 0, 60, 97
3, 359165, Note_off_c, 0, 62, 64
3, 359282, Note_on_c, 0, 62, 97
3, 359285, Note_off_c, 0, 60, 64
3, 359402, Note_on_c, 0, 65, 97
3, 359405, Note_off_c, 0, 62, 64
3, 359522, Note_on_c, 0, 63, 97
3, 359525, Note_off_c, 0, 65, 64
3, 359642, Note_on_c, 0, 62, 97
3, 359645, Note_off_c, 0, 63, 64
3, 359762, Note_on_c, 0, 63, 97
3, 359765, Note_off_c, 0, 62, 64
3, 359882, Note_on_c, 0, 67, 97
3, 359885, Note_off_c, 0, 63, 64
3, 360002, Note_on_c, 0, 65, 97
3, 360005, Note_off_c, 0, 67, 64
3, 360122, Note_on_c, 0, 63, 97
3, 360125, Note_off_c, 0, 65, 64
3, 360242, Note_on_c, 0, 65, 97
3, 360245, Note_off_c, 0, 63, 64
3, 360362, Note_on_c, 0, 68, 97
3, 360365, Note_off_c, 0, 65, 64
3, 360482, Note_on_c, 0, 67, 97
3, 360485, Note_off_c, 0, 68, 64
3, 360602, Note_on_c, 0, 65, 97
3, 360605, Note_off_c, 0, 67, 64
3, 360722, Note_on_c, 0, 67, 97
3, 360725, Note_off_c, 0, 65, 64
3, 360842, Note_on_c, 0, 70, 97
3, 360845, Note_off_c, 0, 67, 64
3, 360962, Note_on_c, 0, 62, 97
3, 360965, Note_off_c, 0, 70, 64
3, 361082, Note_on_c, 0, 60, 97
3, 361085, Note_off_c, 0, 62, 64
3, 361202, Note_on_c, 0, 62, 97
3, 361205, Note_off_c, 0, 60, 64
3, 361322, Note_on_c, 0, 70, 97
3, 361325, Note_off_c, 0, 62, 64
3, 361442, Note_on_c, 0, 63, 97
3, 361445, Note_off_c, 0, 70, 64
3, 361562, Note_on_c, 0, 62, 97
3, 361565, Note_off_c, 0, 63, 64
3, 361682, Note_on_c, 0, 63, 97
3, 361685, Note_off_c, 0, 62, 64
3, 361802, Note_on_c, 0, 70, 97
3, 361805, Note_off_c, 0, 63, 64
3, 361922, Note_on_c, 0, 62, 97
3, 361925, Note_off_c, 0, 70, 64
3, 362405, Note_off_c, 0, 62, 64
3, 362522, Note_on_c, 0, 74, 97
3, 362642, Note_on_c, 0, 72, 97
3, 362645, Note_off_c, 0, 74, 64
3, 362762, Note_on_c, 0, 70, 97
3, 362765, Note_off_c, 0, 72, 64
3, 362882, Note_on_c, 0, 69, 97
3, 362885, Note_off_c, 0, 70, 64
3, 363002, Note_on_c, 0, 67, 97
3, 363005, Note_off_c, 0, 69, 64
3, 363122, Note_on_c, 0, 65, 97
3, 363125, Note_off_c, 0, 67, 64
3, 363242, Note_on_c, 0, 63, 97
3, 363245, Note_off_c, 0, 65, 64
3, 363362, Note_on_c, 0, 62, 97
3, 363365, Note_off_c, 0, 63, 64
3, 363482, Note_on_c, 0, 70, 97
3, 363485, Note_off_c, 0, 62, 64
3, 363602, Note_on_c, 0, 69, 97
3, 363605, Note_off_c, 0, 70, 64
3, 363722, Note_on_c, 0, 70, 97
3, 363725, Note_off_c, 0, 69, 64
3, 363842, Note_on_c, 0, 63, 97
3, 363845, Note_off_c, 0, 70, 64
3, 363962, Note_on_c, 0, 70, 97
3, 363965, Note_off_c, 0, 63, 64
3, 364082, Note_on_c, 0, 62, 97
3, 364085, Note_off_c, 0, 70, 64
3, 364202, Note_on_c, 0, 70, 97
3, 364205, Note_off_c, 0, 62, 64
3, 364322, Note_on_c, 0, 63, 97
3, 364325, Note_off_c, 0, 70, 64
3, 364442, Note_on_c, 0, 70, 97
3, 364445, Note_off_c, 0, 63, 64
3, 364562, Note_on_c, 0, 60, 97
3, 364565, Note_off_c, 0, 70, 64
3, 364682, Note_on_c, 0, 70, 97
3, 364685, Note_off_c, 0, 60, 64
3, 364802, Note_on_c, 0, 62, 97
3, 364805, Note_off_c, 0, 70, 64
3, 365042, Note_on_c, 0, 65, 97
3, 365045, Note_off_c, 0, 62, 64
3, 365282, Note_on_c, 0, 67, 97
3, 365285, Note_off_c, 0, 65, 64
3, 365522, Note_on_c, 0, 65, 97
3, 365525, Note_off_c, 0, 67, 64
3, 365762, Note_on_c, 0, 67, 97
3, 365765, Note_off_c, 0, 65, 64
3, 366002, Note_on_c, 0, 63, 97
3, 366005, Note_off_c, 0, 67, 64
3, 366242, Note_on_c, 0, 65, 97
3, 366245, Note_off_c, 0, 63, 64
3, 366362, Note_on_c, 0, 58, 97
3, 366365, Note_off_c, 0, 65, 64
3, 366482, Note_on_c, 0, 60, 97
3, 366485, Note_off_c, 0, 58, 64
3, 366602, Note_on_c, 0, 62, 97
3, 366605, Note_off_c, 0, 60, 64
3, 366722, Note_on_c, 0, 63, 97
3, 366725, Note_off_c, 0, 62, 64
3, 367322, Note_on_c, 0, 62, 97
3, 367325, Note_off_c, 0, 63, 64
3, 367442, Note_on_c, 0, 63, 97
3, 367445, Note_off_c, 0, 62, 64
3, 367562, Note_on_c, 0, 60, 97
3, 367565, Note_off_c, 0, 63, 64
3, 367682, Note_on_c, 0, 65, 97
3, 367685, Note_off_c, 0, 60, 64
3, 367922, Note_on_c, 0, 62, 97
3, 367925, Note_off_c, 0, 65, 64
3, 368162, Note_on_c, 0, 63, 97
3, 368165, Note_off_c, 0, 62, 64
3, 368405, Note_off_c, 0, 63, 64
3, 368642, Note_on_c, 0, 60, 97
3, 368702, Note_on_c, 0, 62, 97
3, 368705, Note_off_c, 0, 60, 64
3, 368762, Note_on_c, 0, 60, 97
3, 368765, Note_off_c, 0, 62, 64
3, 369122, Note_on_c, 0, 62, 97
3, 369125, Note_off_c, 0, 60, 64
3, 370562, Note_on_c, 0, 77, 97
3, 370565, Note_off_c, 0, 62, 64
3, 370802, Note_on_c, 0, 65, 97
3, 370805, Note_off_c, 0, 77, 64
3, 371042, Note_on_c, 0, 75, 97
3, 371045, Note_off_c, 0, 65, 64
3, 371282, Note_on_c, 0, 65, 97
3, 371285, Note_off_c, 0, 75, 64
3, 371522, Note_on_c, 0, 74, 97
3, 371525, Note_off_c, 0, 65, 64
3, 371762, Note_on_c, 0, 65, 97
3, 371765, Note_off_c, 0, 74, 64
3, 372002, Note_on_c, 0, 72, 97
3, 372005, Note_off_c, 0, 65, 64
3, 372242, Note_on_c, 0, 65, 97
3, 372245, Note_off_c, 0, 72, 64
3, 372482, Note_on_c, 0, 70, 97
3, 372485, Note_off_c, 0, 65, 64
3, 372722, Note_on_c, 0, 65, 97
3, 372725, Note_off_c, 0, 70, 64
3, 372962, Note_on_c, 0, 69, 97
3, 372965, Note_off_c, 0, 65, 64
3, 373202, Note_on_c, 0, 65, 97
3, 373205, Note_off_c, 0, 69, 64
3, 373442, Note_on_c, 0, 70, 97
3, 373445, Note_off_c, 0, 65, 64
3, 373562, Note_on_c, 0, 65, 97
3, 373565, Note_off_c, 0, 70, 64
3, 373682, Note_on_c, 0, 67, 97
3, 373685, Note_off_c, 0, 65, 64
3, 373802, Note_on_c, 0, 69, 97
3, 373805, Note_off_c, 0, 67, 64
3, 373922, Note_on_c, 0, 70, 97
3, 373925, Note_off_c, 0, 69, 64
3, 374042, Note_on_c, 0, 62, 97
3, 374045, Note_off_c, 0, 70, 64
3, 374162, Note_on_c, 0, 63, 97
3, 374165, Note_off_c, 0, 62, 64
3, 374282, Note_on_c, 0, 65, 97
3, 374285, Note_off_c, 0, 63, 64
3, 374402, Note_on_c, 0, 67, 97
3, 374405, Note_off_c, 0, 65, 64
3, 374522, Note_on_c, 0, 69, 97
3, 374525, Note_off_c, 0, 67, 64
3, 374642, Note_on_c, 0, 70, 97
3, 374645, Note_off_c, 0, 69, 64
3, 374762, Note_on_c, 0, 72, 97
3, 374765, Note_off_c, 0, 70, 64
3, 374882, Note_on_c, 0, 74, 97
3, 374885, Note_off_c, 0, 72, 64
3, 375002, Note_on_c, 0, 72, 97
3, 375005, Note_off_c, 0, 74, 64
3, 375122, Note_on_c, 0, 70, 97
3, 375125, Note_off_c, 0, 72, 64
3, 375242, Note_on_c, 0, 74, 97
3, 375245, Note_off_c, 0, 70, 64
3, 375362, Note_on_c, 0, 77, 97
3, 375365, Note_off_c, 0, 74, 64
3, 375482, Note_on_c, 0, 74, 97
3, 375485, Note_off_c, 0, 77, 64
3, 375602, Note_on_c, 0, 70, 97
3, 375605, Note_off_c, 0, 74, 64
3, 375722, Note_on_c, 0, 65, 97
3, 375725, Note_off_c, 0, 70, 64
3, 375842, Note_on_c, 0, 74, 97
3, 375845, Note_off_c, 0, 65, 64
3, 375962, Note_on_c, 0, 70, 97
3, 375965, Note_off_c, 0, 74, 64
3, 376082, Note_on_c, 0, 68, 97
3, 376085, Note_off_c, 0, 70, 64
3, 376202, Note_on_c, 0, 65, 97
3, 376205, Note_off_c, 0, 68, 64
3, 376322, Note_on_c, 0, 67, 97
3, 376325, Note_off_c, 0, 65, 64
3, 376442, Note_on_c, 0, 68, 97
3, 376445, Note_off_c, 0, 67, 64
3, 376562, Note_on_c, 0, 67, 97
3, 376565, Note_off_c, 0, 68, 64
3, 376682, Note_on_c, 0, 63, 97
3, 376685, Note_off_c, 0, 67, 64
3, 376802, Note_on_c, 0, 65, 97
3, 376805, Note_off_c, 0, 63, 64
3, 376922, Note_on_c, 0, 67, 97
3, 376925, Note_off_c, 0, 65, 64
3, 377042, Note_on_c, 0, 65, 97
3, 377045, Note_off_c, 0, 67, 64
3, 377162, Note_on_c, 0, 62, 97
3, 377165, Note_off_c, 0, 65, 64
3, 377282, Note_on_c, 0, 63, 97
3, 377285, Note_off_c, 0, 62, 64
3, 377402, Note_on_c, 0, 65, 97
3, 377405, Note_off_c, 0, 63, 64
3, 377522, Note_on_c, 0, 63, 97
3, 377525, Note_off_c, 0, 65, 64
3, 377642, Note_on_c, 0, 60, 97
3, 377645, Note_off_c, 0, 63, 64
3, 377762, Note_on_c, 0, 62, 97
3, 377765, Note_off_c, 0, 60, 64
3, 377882, Note_on_c, 0, 63, 97
3, 377885, Note_off_c, 0, 62, 64
3, 378002, Note_on_c, 0, 62, 97
3, 378005, Note_off_c, 0, 63, 64
3, 378122, Note_on_c, 0, 58, 97
3, 378125, Note_off_c, 0, 62, 64
3, 378242, Note_on_c, 0, 67, 97
3, 378245, Note_off_c, 0, 58, 64
3, 378362, Note_on_c, 0, 68, 97
3, 378365, Note_off_c, 0, 67, 64
3, 378482, Note_on_c, 0, 67, 97
3, 378485, Note_off_c, 0, 68, 64
3, 378602, Note_on_c, 0, 58, 97
3, 378605, Note_off_c, 0, 67, 64
3, 378722, Note_on_c, 0, 65, 97
3, 378725, Note_off_c, 0, 58, 64
3, 378842, Note_on_c, 0, 67, 97
3, 378845, Note_off_c, 0, 65, 64
3, 378962, Note_on_c, 0, 65, 97
3, 378965, Note_off_c, 0, 67, 64
3, 379082, Note_on_c, 0, 58, 97
3, 379085, Note_off_c, 0, 65, 64
3, 379202, Note_on_c, 0, 67, 97
3, 379205, Note_off_c, 0, 58, 64
3, 379442, Note_on_c, 0, 63, 97
3, 379445, Note_off_c, 0, 67, 64
3, 379682, Note_on_c, 0, 58, 97
3, 379685, Note_off_c, 0, 63, 64
3, 379922, Note_on_c, 0, 67, 97
3, 379925, Note_off_c, 0, 58, 64
3, 380162, Note_on_c, 0, 65, 97
3, 380165, Note_off_c, 0, 67, 64
3, 380402, Note_on_c, 0, 62, 97
3, 380405, Note_off_c, 0, 65, 64
3, 380642, Note_on_c, 0, 63, 97
3, 380645, Note_off_c, 0, 62, 64
3, 380882, Note_on_c, 0, 70, 97
3, 380885, Note_off_c, 0, 63, 64
3, 381122, Note_on_c, 0, 67, 97
3, 381125, Note_off_c, 0, 70, 64
3, 381362, Note_on_c, 0, 70, 97
3, 381365, Note_off_c, 0, 67, 64
3, 381602, Note_on_c, 0, 73, 97
3, 381605, Note_off_c, 0, 70, 64
3, 381842, Note_on_c, 0, 67, 97
3, 381845, Note_off_c, 0, 73, 64
3, 382082, Note_on_c, 0, 68, 97
3, 382085, Note_off_c, 0, 67, 64
3, 382325, Note_off_c, 0, 68, 64
3, 382562, Note_on_c, 0, 67, 97
3, 382805, Note_off_c, 0, 67, 64
3, 383042, Note_on_c, 0, 63, 97
3, 383285, Note_off_c, 0, 63, 64
3, 383522, Note_on_c, 0, 63, 97
3, 383765, Note_off_c, 0, 63, 64
3, 384002, Note_on_c, 0, 63, 97
3, 384245, Note_off_c, 0, 63, 64
3, 384482, Note_on_c, 0, 63, 97
3, 384725, Note_off_c, 0, 63, 64
3, 385082, Note_on_c, 0, 63, 97
3, 385202, Note_on_c, 0, 65, 97
3, 385205, Note_off_c, 0, 63, 64
3, 385322, Note_on_c, 0, 67, 97
3, 385325, Note_off_c, 0, 65, 64
3, 385442, Note_on_c, 0, 68, 97
3, 385445, Note_off_c, 0, 67, 64
3, 385562, Note_on_c, 0, 70, 97
3, 385565, Note_off_c, 0, 68, 64
3, 385682, Note_on_c, 0, 72, 97
3, 385685, Note_off_c, 0, 70, 64
3, 385802, Note_on_c, 0, 70, 97
3, 385805, Note_off_c, 0, 72, 64
3, 385922, Note_on_c, 0, 68, 97
3, 385925, Note_off_c, 0, 70, 64
3, 386042, Note_on_c, 0, 67, 97
3, 386045, Note_off_c, 0, 68, 64
3, 386162, Note_on_c, 0, 65, 97
3, 386165, Note_off_c, 0, 67, 64
3, 386282, Note_on_c, 0, 68, 97
3, 386285, Note_off_c, 0, 65, 64
3, 386402, Note_on_c, 0, 67, 97
3, 386405, Note_off_c, 0, 68, 64
3, 386642, Note_on_c, 0, 58, 97
3, 386645, Note_off_c, 0, 67, 64
3, 386882, Note_on_c, 0, 60, 97
3, 386885, Note_off_c, 0, 58, 64
3, 387122, Note_on_c, 0, 56, 97
3, 387125, Note_off_c, 0, 60, 64
3, 387362, Note_on_c, 0, 65, 97
3, 387365, Note_off_c, 0, 56, 64
3, 387962, Note_on_c, 0, 63, 97
3, 387965, Note_off_c, 0, 65, 64
3, 388082, Note_on_c, 0, 65, 97
3, 388085, Note_off_c, 0, 63, 64
3, 388202, Note_on_c, 0, 67, 97
3, 388205, Note_off_c, 0, 65, 64
3, 388322, Note_on_c, 0, 69, 97
3, 388325, Note_off_c, 0, 67, 64
3, 388442, Note_on_c, 0, 71, 97
3, 388445, Note_off_c, 0, 69, 64
3, 388562, Note_on_c, 0, 72, 97
3, 388565, Note_off_c, 0, 71, 64
3, 388682, Note_on_c, 0, 74, 97
3, 388685, Note_off_c, 0, 72, 64
3, 388802, Note_on_c, 0, 75, 97
3, 388805, Note_off_c, 0, 74, 64
3, 388922, Note_on_c, 0, 77, 97
3, 388925, Note_off_c, 0, 75, 64
3, 389042, Note_on_c, 0, 75, 97
3, 389045, Note_off_c, 0, 77, 64
3, 389162, Note_on_c, 0, 68, 97
3, 389165, Note_off_c, 0, 75, 64
3, 389282, Note_on_c, 0, 77, 97
3, 389285, Note_off_c, 0, 68, 64
3, 389402, Note_on_c, 0, 67, 97
3, 389405, Note_off_c, 0, 77, 64
3, 389522, Note_on_c, 0, 69, 97
3, 389525, Note_off_c, 0, 67, 64
3, 389642, Note_on_c, 0, 71, 97
3, 389645, Note_off_c, 0, 69, 64
3, 389762, Note_on_c, 0, 72, 97
3, 389765, Note_off_c, 0, 71, 64
3, 389882, Note_on_c, 0, 74, 97
3, 389885, Note_off_c, 0, 72, 64
3, 390002, Note_on_c, 0, 75, 97
3, 390005, Note_off_c, 0, 74, 64
3, 390122, Note_on_c, 0, 77, 97
3, 390125, Note_off_c, 0, 75, 64
3, 390242, Note_on_c, 0, 79, 97
3, 390245, Note_off_c, 0, 77, 64
3, 390842, Note_on_c, 0, 70, 97
3, 390845, Note_off_c, 0, 79, 64
3, 390962, Note_on_c, 0, 68, 97
3, 390965, Note_off_c, 0, 70, 64
3, 391082, Note_on_c, 0, 67, 97
3, 391085, Note_off_c, 0, 68, 64
3, 391202, Note_on_c, 0, 68, 97
3, 391205, Note_off_c, 0, 67, 64
3, 391802, Note_on_c, 0, 68, 97
3, 391805, Note_off_c, 0, 68, 64
3, 391922, Note_on_c, 0, 67, 97
3, 391925, Note_off_c, 0, 68, 64
3, 392042, Note_on_c, 0, 65, 97
3, 392045, Note_off_c, 0, 67, 64
3, 392162, Note_on_c, 0, 64, 97
3, 392165, Note_off_c, 0, 65, 64
3, 392282, Note_on_c, 0, 65, 97
3, 392285, Note_off_c, 0, 64, 64
3, 392402, Note_on_c, 0, 64, 97
3, 392405, Note_off_c, 0, 65, 64
3, 392522, Note_on_c, 0, 62, 97
3, 392525, Note_off_c, 0, 64, 64
3, 392642, Note_on_c, 0, 60, 97
3, 392645, Note_off_c, 0, 62, 64
3, 392882, Note_on_c, 0, 64, 97
3, 392885, Note_off_c, 0, 60, 64
3, 393122, Note_on_c, 0, 65, 97
3, 393125, Note_off_c, 0, 64, 64
3, 393362, Note_on_c, 0, 67, 97
3, 393365, Note_off_c, 0, 65, 64
3, 393602, Note_on_c, 0, 68, 97
3, 393605, Note_off_c, 0, 67, 64
3, 393722, Note_on_c, 0, 65, 97
3, 393725, Note_off_c, 0, 68, 64
3, 393842, Note_on_c, 0, 64, 97
3, 393845, Note_off_c, 0, 65, 64
3, 393962, Note_on_c, 0, 65, 97
3, 393965, Note_off_c, 0, 64, 64
3, 394082, Note_on_c, 0, 60, 97
3, 394085, Note_off_c, 0, 65, 64
3, 394202, Note_on_c, 0, 65, 97
3, 394205, Note_off_c, 0, 60, 64
3, 394322, Note_on_c, 0, 64, 97
3, 394325, Note_off_c, 0, 65, 64
3, 394442, Note_on_c, 0, 65, 97
3, 394445, Note_off_c, 0, 64, 64
3, 394562, Note_on_c, 0, 68, 97
3, 394565, Note_off_c, 0, 65, 64
3, 394682, Note_on_c, 0, 65, 97
3, 394685, Note_off_c, 0, 68, 64
3, 394802, Note_on_c, 0, 63, 97
3, 394805, Note_off_c, 0, 65, 64
3, 394922, Note_on_c, 0, 65, 97
3, 394925, Note_off_c, 0, 63, 64
3, 395042, Note_on_c, 0, 61, 97
3, 395045, Note_off_c, 0, 65, 64
3, 395285, Note_off_c, 0, 61, 64
3, 395522, Note_on_c, 0, 68, 97
3, 395765, Note_off_c, 0, 68, 64
3, 396002, Note_on_c, 0, 68, 97
3, 396245, Note_off_c, 0, 68, 64
3, 396602, Note_on_c, 0, 63, 97
3, 396722, Note_on_c, 0, 61, 97
3, 396725, Note_off_c, 0, 63, 64
3, 396842, Note_on_c, 0, 63, 97
3, 396845, Note_off_c, 0, 61, 64
3, 396962, Note_on_c, 0, 58, 97
3, 396965, Note_off_c, 0, 63, 64
3, 397082, Note_on_c, 0, 63, 97
3, 397085, Note_off_c, 0, 58, 64
3, 397202, Note_on_c, 0, 61, 97
3, 397205, Note_off_c, 0, 63, 64
3, 397322, Note_on_c, 0, 63, 97
3, 397325, Note_off_c, 0, 61, 64
3, 397442, Note_on_c, 0, 67, 97
3, 397445, Note_off_c, 0, 63, 64
3, 397562, Note_on_c, 0, 63, 97
3, 397565, Note_off_c, 0, 67, 64
3, 397682, Note_on_c, 0, 61, 97
3, 397685, Note_off_c, 0, 63, 64
3, 397802, Note_on_c, 0, 63, 97
3, 397805, Note_off_c, 0, 61, 64
3, 397922, Note_on_c, 0, 60, 97
3, 397925, Note_off_c, 0, 63, 64
3, 398165, Note_off_c, 0, 60, 64
3, 398402, Note_on_c, 0, 66, 97
3, 398645, Note_off_c, 0, 66, 64
3, 398882, Note_on_c, 0, 66, 97
3, 399125, Note_off_c, 0, 66, 64
3, 399482, Note_on_c, 0, 61, 97
3, 399602, Note_on_c, 0, 60, 97
3, 399605, Note_off_c, 0, 61, 64
3, 399722, Note_on_c, 0, 61, 97
3, 399725, Note_off_c, 0, 60, 64
3, 399842, Note_on_c, 0, 58, 97
3, 399845, Note_off_c, 0, 61, 64
3, 399962, Note_on_c, 0, 61, 97
3, 399965, Note_off_c, 0, 58, 64
3, 400082, Note_on_c, 0, 60, 97
3, 400085, Note_off_c, 0, 61, 64
3, 400202, Note_on_c, 0, 61, 97
3, 400205, Note_off_c, 0, 60, 64
3, 400322, Note_on_c, 0, 65, 97
3, 400325, Note_off_c, 0, 61, 64
3, 400442, Note_on_c, 0, 61, 97
3, 400445, Note_off_c, 0, 65, 64
3, 400562, Note_on_c, 0, 60, 97
3, 400565, Note_off_c, 0, 61, 64
3, 400682, Note_on_c, 0, 61, 97
3, 400685, Note_off_c, 0, 60, 64
3, 400802, Note_on_c, 0, 58, 97
3, 400805, Note_off_c, 0, 61, 64
3, 400922, Note_on_c, 0, 63, 97
3, 400925, Note_off_c, 0, 58, 64
3, 401042, Note_on_c, 0, 61, 97
3, 401045, Note_off_c, 0, 63, 64
3, 401162, Note_on_c, 0, 63, 97
3, 401165, Note_off_c, 0, 61, 64
3, 401282, Note_on_c, 0, 67, 97
3, 401285, Note_off_c, 0, 63, 64
3, 401402, Note_on_c, 0, 63, 97
3, 401405, Note_off_c, 0, 67, 64
3, 401522, Note_on_c, 0, 61, 97
3, 401525, Note_off_c, 0, 63, 64
3, 401642, Note_on_c, 0, 63, 97
3, 401645, Note_off_c, 0, 61, 64
3, 401762, Note_on_c, 0, 70, 97
3, 401765, Note_off_c, 0, 63, 64
3, 401882, Note_on_c, 0, 67, 97
3, 401885, Note_off_c, 0, 70, 64
3, 402002, Note_on_c, 0, 65, 97
3, 402005, Note_off_c, 0, 67, 64
3, 402122, Note_on_c, 0, 67, 97
3, 402125, Note_off_c, 0, 65, 64
3, 402242, Note_on_c, 0, 75, 97
3, 402245, Note_off_c, 0, 67, 64
3, 402482, Note_on_c, 0, 72, 97
3, 402485, Note_off_c, 0, 75, 64
3, 402722, Note_on_c, 0, 68, 97
3, 402725, Note_off_c, 0, 72, 64
3, 403802, Note_on_c, 0, 67, 97
3, 403805, Note_off_c, 0, 68, 64
3, 403922, Note_on_c, 0, 65, 97
3, 403925, Note_off_c, 0, 67, 64
3, 404042, Note_on_c, 0, 63, 97
3, 404045, Note_off_c, 0, 65, 64
3, 404162, Note_on_c, 0, 62, 97
3, 404165, Note_off_c, 0, 63, 64
3, 404282, Note_on_c, 0, 63, 97
3, 404285, Note_off_c, 0, 62, 64
3, 404402, Note_on_c, 0, 62, 97
3, 404405, Note_off_c, 0, 63, 64
3, 404522, Note_on_c, 0, 60, 97
3, 404525, Note_off_c, 0, 62, 64
3, 404642, Note_on_c, 0, 58, 97
3, 404645, Note_off_c, 0, 60, 64
3, 404762, Note_on_c, 0, 68, 97
3, 404765, Note_off_c, 0, 58, 64
3, 404882, Note_on_c, 0, 67, 97
3, 404885, Note_off_c, 0, 68, 64
3, 405002, Note_on_c, 0, 65, 97
3, 405005, Note_off_c, 0, 67, 64
3, 405122, Note_on_c, 0, 63, 97
3, 405125, Note_off_c, 0, 65, 64
3, 406682, Note_on_c, 0, 62, 97
3, 406685, Note_off_c, 0, 63, 64
3, 406802, Note_on_c, 0, 63, 97
3, 406805, Note_off_c, 0, 62, 64
3, 406922, Note_on_c, 0, 68, 97
3, 406925, Note_off_c, 0, 63, 64
3, 407042, Note_on_c, 0, 63, 97
3, 407045, Note_off_c, 0, 68, 64
3, 407162, Note_on_c, 0, 62, 97
3, 407165, Note_off_c, 0, 63, 64
3, 407282, Note_on_c, 0, 63, 97
3, 407285, Note_off_c, 0, 62, 64
3, 407402, Note_on_c, 0, 67, 97
3, 407405, Note_off_c, 0, 63, 64
3, 407522, Note_on_c, 0, 65, 97
3, 407525, Note_off_c, 0, 67, 64
3, 408122, Note_on_c, 0, 72, 97
3, 408125, Note_off_c, 0, 65, 64
3, 408242, Note_on_c, 0, 70, 97
3, 408245, Note_off_c, 0, 72, 64
3, 408362, Note_on_c, 0, 68, 97
3, 408365, Note_off_c, 0, 70, 64
3, 408482, Note_on_c, 0, 67, 97
3, 408485, Note_off_c, 0, 68, 64
3, 408602, Note_on_c, 0, 75, 97
3, 408605, Note_off_c, 0, 67, 64
3, 408722, Note_on_c, 0, 74, 97
3, 408725, Note_off_c, 0, 75, 64
3, 408842, Note_on_c, 0, 72, 97
3, 408845, Note_off_c, 0, 74, 64
3, 408962, Note_on_c, 0, 70, 97
3, 408965, Note_off_c, 0, 72, 64
3, 409082, Note_on_c, 0, 68, 97
3, 409085, Note_off_c, 0, 70, 64
3, 409202, Note_on_c, 0, 67, 97
3, 409205, Note_off_c, 0, 68, 64
3, 409322, Note_on_c, 0, 65, 97
3, 409325, Note_off_c, 0, 67, 64
3, 409442, Note_on_c, 0, 63, 97
3, 409445, Note_off_c, 0, 65, 64
3, 409682, Note_on_c, 0, 70, 97
3, 409685, Note_off_c, 0, 63, 64
3, 409922, Note_on_c, 0, 72, 97
3, 409925, Note_off_c, 0, 70, 64
3, 410162, Note_on_c, 0, 70, 97
3, 410165, Note_off_c, 0, 72, 64
3, 410402, Note_on_c, 0, 72, 97
3, 410405, Note_off_c, 0, 70, 64
3, 410642, Note_on_c, 0, 68, 97
3, 410645, Note_off_c, 0, 72, 64
3, 410882, Note_on_c, 0, 70, 97
3, 410885, Note_off_c, 0, 68, 64
3, 411002, Note_on_c, 0, 75, 97
3, 411005, Note_off_c, 0, 70, 64
3, 411122, Note_on_c, 0, 74, 97
3, 411125, Note_off_c, 0, 75, 64
3, 411242, Note_on_c, 0, 75, 97
3, 411245, Note_off_c, 0, 74, 64
3, 411362, Note_on_c, 0, 68, 97
3, 411365, Note_off_c, 0, 75, 64
3, 411482, Note_on_c, 0, 75, 97
3, 411485, Note_off_c, 0, 68, 64
3, 411602, Note_on_c, 0, 67, 97
3, 411605, Note_off_c, 0, 75, 64
3, 411722, Note_on_c, 0, 75, 97
3, 411725, Note_off_c, 0, 67, 64
3, 411842, Note_on_c, 0, 68, 97
3, 411845, Note_off_c, 0, 75, 64
3, 411962, Note_on_c, 0, 75, 97
3, 411965, Note_off_c, 0, 68, 64
3, 412082, Note_on_c, 0, 65, 97
3, 412085, Note_off_c, 0, 75, 64
3, 412202, Note_on_c, 0, 75, 97
3, 412205, Note_off_c, 0, 65, 64
3, 412322, Note_on_c, 0, 67, 97
3, 412325, Note_off_c, 0, 75, 64
3, 412922, Note_on_c, 0, 63, 97
3, 412925, Note_off_c, 0, 67, 64
3, 413042, Note_on_c, 0, 65, 97
3, 413045, Note_off_c, 0, 63, 64
3, 413162, Note_on_c, 0, 67, 97
3, 413165, Note_off_c, 0, 65, 64
3, 413282, Note_on_c, 0, 68, 97
3, 413285, Note_off_c, 0, 67, 64
3, 413402, Note_on_c, 0, 70, 97
3, 413405, Note_off_c, 0, 68, 64
3, 413522, Note_on_c, 0, 72, 97
3, 413525, Note_off_c, 0, 70, 64
3, 413642, Note_on_c, 0, 74, 97
3, 413645, Note_off_c, 0, 72, 64
3, 413762, Note_on_c, 0, 75, 97
3, 413765, Note_off_c, 0, 74, 64
3, 414002, Note_on_c, 0, 67, 97
3, 414005, Note_off_c, 0, 75, 64
3, 414242, Note_on_c, 0, 68, 97
3, 414245, Note_off_c, 0, 67, 64
3, 414485, Note_off_c, 0, 68, 64
3, 414722, Note_on_c, 0, 65, 97
3, 414782, Note_on_c, 0, 67, 97
3, 414785, Note_off_c, 0, 65, 64
3, 414842, Note_on_c, 0, 65, 97
3, 414845, Note_off_c, 0, 67, 64
3, 415202, Note_on_c, 0, 67, 97
3, 415205, Note_off_c, 0, 65, 64
3, 416642, Note_on_c, 0, 77, 97
3, 416645, Note_off_c, 0, 67, 64
3, 416882, Note_on_c, 0, 65, 97
3, 416885, Note_off_c, 0, 77, 64
3, 417122, Note_on_c, 0, 75, 97
3, 417125, Note_off_c, 0, 65, 64
3, 417362, Note_on_c, 0, 65, 97
3, 417365, Note_off_c, 0, 75, 64
3, 417602, Note_on_c, 0, 74, 97
3, 417605, Note_off_c, 0, 65, 64
3, 417842, Note_on_c, 0, 65, 97
3, 417845, Note_off_c, 0, 74, 64
3, 418082, Note_on_c, 0, 72, 97
3, 418085, Note_off_c, 0, 65, 64
3, 418322, Note_on_c, 0, 65, 97
3, 418325, Note_off_c, 0, 72, 64
3, 418562, Note_on_c, 0, 70, 97
3, 418565, Note_off_c, 0, 65, 64
3, 418802, Note_on_c, 0, 65, 97
3, 418805, Note_off_c, 0, 70, 64
3, 419042, Note_on_c, 0, 69, 97
3, 419045, Note_off_c, 0, 65, 64
3, 419282, Note_on_c, 0, 65, 97
3, 419285, Note_off_c, 0, 69, 64
3, 419522, Note_on_c, 0, 70, 97
3, 419525, Note_off_c, 0, 65, 64
3, 419642, Note_on_c, 0, 65, 97
3, 419645, Note_off_c, 0, 70, 64
3, 419762, Note_on_c, 0, 67, 97
3, 419765, Note_off_c, 0, 65, 64
3, 419882, Note_on_c, 0, 69, 97
3, 419885, Note_off_c, 0, 67, 64
3, 420002, Note_on_c, 0, 70, 97
3, 420005, Note_off_c, 0, 69, 64
3, 420122, Note_on_c, 0, 62, 97
3, 420125, Note_off_c, 0, 70, 64
3, 420242, Note_on_c, 0, 63, 97
3, 420245, Note_off_c, 0, 62, 64
3, 420362, Note_on_c, 0, 65, 97
3, 420365, Note_off_c, 0, 63, 64
3, 420482, Note_on_c, 0, 67, 97
3, 420485, Note_off_c, 0, 65, 64
3, 420602, Note_on_c, 0, 69, 97
3, 420605, Note_off_c, 0, 67, 64
3, 420722, Note_on_c, 0, 70, 97
3, 420725, Note_off_c, 0, 69, 64
3, 420842, Note_on_c, 0, 72, 97
3, 420845, Note_off_c, 0, 70, 64
3, 420962, Note_on_c, 0, 74, 97
3, 420965, Note_off_c, 0, 72, 64
3, 421082, Note_on_c, 0, 72, 97
3, 421085, Note_off_c, 0, 74, 64
3, 421202, Note_on_c, 0, 70, 97
3, 421205, Note_off_c, 0, 72, 64
3, 421322, Note_on_c, 0, 74, 97
3, 421325, Note_off_c, 0, 70, 64
3, 421442, Note_on_c, 0, 77, 97
3, 421445, Note_off_c, 0, 74, 64
3, 421562, Note_on_c, 0, 74, 97
3, 421565, Note_off_c, 0, 77, 64
3, 421682, Note_on_c, 0, 70, 97
3, 421685, Note_off_c, 0, 74, 64
3, 421802, Note_on_c, 0, 65, 97
3, 421805, Note_off_c, 0, 70, 64
3, 421922, Note_on_c, 0, 74, 97
3, 421925, Note_off_c, 0, 65, 64
3, 422042, Note_on_c, 0, 70, 97
3, 422045, Note_off_c, 0, 74, 64
3, 422162, Note_on_c, 0, 68, 97
3, 422165, Note_off_c, 0, 70, 64
3, 422282, Note_on_c, 0, 65, 97
3, 422285, Note_off_c, 0, 68, 64
3, 422402, Note_on_c, 0, 67, 97
3, 422405, Note_off_c, 0, 65, 64
3, 422522, Note_on_c, 0, 68, 97
3, 422525, Note_off_c, 0, 67, 64
3, 422642, Note_on_c, 0, 67, 97
3, 422645, Note_off_c, 0, 68, 64
3, 422762, Note_on_c, 0, 63, 97
3, 422765, Note_off_c, 0, 67, 64
3, 422882, Note_on_c, 0, 65, 97
3, 422885, Note_off_c, 0, 63, 64
3, 423002, Note_on_c, 0, 67, 97
3, 423005, Note_off_c, 0, 65, 64
3, 423122, Note_on_c, 0, 65, 97
3, 423125, Note_off_c, 0, 67, 64
3, 423242, Note_on_c, 0, 62, 97
3, 423245, Note_off_c, 0, 65, 64
3, 423362, Note_on_c, 0, 63, 97
3, 423365, Note_off_c, 0, 62, 64
3, 423482, Note_on_c, 0, 65, 97
3, 423485, Note_off_c, 0, 63, 64
3, 423602, Note_on_c, 0, 63, 97
3, 423605, Note_off_c, 0, 65, 64
3, 423722, Note_on_c, 0, 60, 97
3, 423725, Note_off_c, 0, 63, 64
3, 423842, Note_on_c, 0, 62, 97
3, 423845, Note_off_c, 0, 60, 64
3, 423962, Note_on_c, 0, 63, 97
3, 423965, Note_off_c, 0, 62, 64
3, 424082, Note_on_c, 0, 62, 97
3, 424085, Note_off_c, 0, 63, 64
3, 424202, Note_on_c, 0, 58, 97
3, 424205, Note_off_c, 0, 62, 64
3, 424322, Note_on_c, 0, 67, 97
3, 424325, Note_off_c, 0, 58, 64
3, 424442, Note_on_c, 0, 68, 97
3, 424445, Note_off_c, 0, 67, 64
3, 424562, Note_on_c, 0, 67, 97
3, 424565, Note_off_c, 0, 68, 64
3, 424682, Note_on_c, 0, 58, 97
3, 424685, Note_off_c, 0, 67, 64
3, 424802, Note_on_c, 0, 65, 97
3, 424805, Note_off_c, 0, 58, 64
3, 424922, Note_on_c, 0, 67, 97
3, 424925, Note_off_c, 0, 65, 64
3, 425042, Note_on_c, 0, 65, 97
3, 425045, Note_off_c, 0, 67, 64
3, 425162, Note_on_c, 0, 58, 97
3, 425165, Note_off_c, 0, 65, 64
3, 425282, Note_on_c, 0, 67, 97
3, 425285, Note_off_c, 0, 58, 64
3, 425522, Note_on_c, 0, 63, 97
3, 425525, Note_off_c, 0, 67, 64
3, 425762, Note_on_c, 0, 58, 97
3, 425765, Note_off_c, 0, 63, 64
3, 426002, Note_on_c, 0, 67, 97
3, 426005, Note_off_c, 0, 58, 64
3, 426242, Note_on_c, 0, 65, 97
3, 426245, Note_off_c, 0, 67, 64
3, 426482, Note_on_c, 0, 62, 97
3, 426485, Note_off_c, 0, 65, 64
3, 426722, Note_on_c, 0, 63, 97
3, 426725, Note_off_c, 0, 62, 64
3, 426962, Note_on_c, 0, 70, 97
3, 426965, Note_off_c, 0, 63, 64
3, 427202, Note_on_c, 0, 67, 97
3, 427205, Note_off_c, 0, 70, 64
3, 427442, Note_on_c, 0, 70, 97
3, 427445, Note_off_c, 0, 67, 64
3, 427682, Note_on_c, 0, 73, 97
3, 427685, Note_off_c, 0, 70, 64
3, 427922, Note_on_c, 0, 67, 97
3, 427925, Note_off_c, 0, 73, 64
3, 428162, Note_on_c, 0, 68, 97
3, 428165, Note_off_c, 0, 67, 64
3, 428405, Note_off_c, 0, 68, 64
3, 428642, Note_on_c, 0, 67, 97
3, 428885, Note_off_c, 0, 67, 64
3, 429122, Note_on_c, 0, 63, 97
3, 429365, Note_off_c, 0, 63, 64
3, 429602, Note_on_c, 0, 63, 97
3, 429845, Note_off_c, 0, 63, 64
3, 430082, Note_on_c, 0, 63, 97
3, 430325, Note_off_c, 0, 63, 64
3, 430562, Note_on_c, 0, 63, 97
3, 430805, Note_off_c, 0, 63, 64
3, 431162, Note_on_c, 0, 63, 97
3, 431282, Note_on_c, 0, 65, 97
3, 431285, Note_off_c, 0, 63, 64
3, 431402, Note_on_c, 0, 67, 97
3, 431405, Note_off_c, 0, 65, 64
3, 431522, Note_on_c, 0, 68, 97
3, 431525, Note_off_c, 0, 67, 64
3, 431642, Note_on_c, 0, 70, 97
3, 431645, Note_off_c, 0, 68, 64
3, 431762, Note_on_c, 0, 72, 97
3, 431765, Note_off_c, 0, 70, 64
3, 431882, Note_on_c, 0, 70, 97
3, 431885, Note_off_c, 0, 72, 64
3, 432002, Note_on_c, 0, 68, 97
3, 432005, Note_off_c, 0, 70, 64
3, 432122, Note_on_c, 0, 67, 97
3, 432125, Note_off_c, 0, 68, 64
3, 432242, Note_on_c, 0, 65, 97
3, 432245, Note_off_c, 0, 67, 64
3, 432362, Note_on_c, 0, 68, 97
3, 432365, Note_off_c, 0, 65, 64
3, 432482, Note_on_c, 0, 67, 97
3, 432485, Note_off_c, 0, 68, 64
3, 432722, Note_on_c, 0, 58, 97
3, 432725, Note_off_c, 0, 67, 64
3, 432962, Note_on_c, 0, 60, 97
3, 432965, Note_off_c, 0, 58, 64
3, 433202, Note_on_c, 0, 56, 97
3, 433205, Note_off_c, 0, 60, 64
3, 433442, Note_on_c, 0, 65, 97
3, 433445, Note_off_c, 0, 56, 64
3, 434042, Note_on_c, 0, 63, 97
3, 434045, Note_off_c, 0, 65, 64
3, 434162, Note_on_c, 0, 65, 97
3, 434165, Note_off_c, 0, 63, 64
3, 434282, Note_on_c, 0, 67, 97
3, 434285, Note_off_c, 0, 65, 64
3, 434402, Note_on_c, 0, 69, 97
3, 434405, Note_off_c, 0, 67, 64
3, 434522, Note_on_c, 0, 71, 97
3, 434525, Note_off_c, 0, 69, 64
3, 434642, Note_on_c, 0, 72, 97
3, 434645, Note_off_c, 0, 71, 64
3, 434762, Note_on_c, 0, 74, 97
3, 434765, Note_off_c, 0, 72, 64
3, 434882, Note_on_c, 0, 75, 97
3, 434885, Note_off_c, 0, 74, 64
3, 435002, Note_on_c, 0, 77, 97
3, 435005, Note_off_c, 0, 75, 64
3, 435122, Note_on_c, 0, 75, 97
3, 435125, Note_off_c, 0, 77, 64
3, 435242, Note_on_c, 0, 68, 97
3, 435245, Note_off_c, 0, 75, 64
3, 435362, Note_on_c, 0, 77, 97
3, 435365, Note_off_c, 0, 68, 64
3, 435482, Note_on_c, 0, 67, 97
3, 435485, Note_off_c, 0, 77, 64
3, 435602, Note_on_c, 0, 69, 97
3, 435605, Note_off_c, 0, 67, 64
3, 435722, Note_on_c, 0, 71, 97
3, 435725, Note_off_c, 0, 69, 64
3, 435842, Note_on_c, 0, 72, 97
3, 435845, Note_off_c, 0, 71, 64
3, 435962, Note_on_c, 0, 74, 97
3, 435965, Note_off_c, 0, 72, 64
3, 436082, Note_on_c, 0, 75, 97
3, 436085, Note_off_c, 0, 74, 64
3, 436202, Note_on_c, 0, 77, 97
3, 436205, Note_off_c, 0, 75, 64
3, 436322, Note_on_c, 0, 79, 97
3, 436325, Note_off_c, 0, 77, 64
3, 436922, Note_on_c, 0, 70, 97
3, 436925, Note_off_c, 0, 79, 64
3, 437042, Note_on_c, 0, 68, 97
3, 437045, Note_off_c, 0, 70, 64
3, 437162, Note_on_c, 0, 67, 97
3, 437165, Note_off_c, 0, 68, 64
3, 437282, Note_on_c, 0, 68, 97
3, 437285, Note_off_c, 0, 67, 64
3, 437882, Note_on_c, 0, 68, 97
3, 437885, Note_off_c, 0, 68, 64
3, 438002, Note_on_c, 0, 67, 97
3, 438005, Note_off_c, 0, 68, 64
3, 438122, Note_on_c, 0, 65, 97
3, 438125, Note_off_c, 0, 67, 64
3, 438242, Note_on_c, 0, 64, 97
3, 438245, Note_off_c, 0, 65, 64
3, 438362, Note_on_c, 0, 65, 97
3, 438365, Note_off_c, 0, 64, 64
3, 438482, Note_on_c, 0, 64, 97
3, 438485, Note_off_c, 0, 65, 64
3, 438602, Note_on_c, 0, 62, 97
3, 438605, Note_off_c, 0, 64, 64
3, 438722, Note_on_c, 0, 60, 97
3, 438725, Note_off_c, 0, 62, 64
3, 438962, Note_on_c, 0, 64, 97
3, 438965, Note_off_c, 0, 60, 64
3, 439202, Note_on_c, 0, 65, 97
3, 439205, Note_off_c, 0, 64, 64
3, 439442, Note_on_c, 0, 67, 97
3, 439445, Note_off_c, 0, 65, 64
3, 439682, Note_on_c, 0, 68, 97
3, 439685, Note_off_c, 0, 67, 64
3, 439802, Note_on_c, 0, 65, 97
3, 439805, Note_off_c, 0, 68, 64
3, 439922, Note_on_c, 0, 64, 97
3, 439925, Note_off_c, 0, 65, 64
3, 440042, Note_on_c, 0, 65, 97
3, 440045, Note_off_c, 0, 64, 64
3, 440162, Note_on_c, 0, 60, 97
3, 440165, Note_off_c, 0, 65, 64
3, 440282, Note_on_c, 0, 65, 97
3, 440285, Note_off_c, 0, 60, 64
3, 440402, Note_on_c, 0, 64, 97
3, 440405, Note_off_c, 0, 65, 64
3, 440522, Note_on_c, 0, 65, 97
3, 440525, Note_off_c, 0, 64, 64
3, 440642, Note_on_c, 0, 68, 97
3, 440645, Note_off_c, 0, 65, 64
3, 440762, Note_on_c, 0, 65, 97
3, 440765, Note_off_c, 0, 68, 64
3, 440882, Note_on_c, 0, 63, 97
3, 440885, Note_off_c, 0, 65, 64
3, 441002, Note_on_c, 0, 65, 97
3, 441005, Note_off_c, 0, 63, 64
3, 441122, Note_on_c, 0, 61, 97
3, 441125, Note_off_c, 0, 65, 64
3, 441365, Note_off_c, 0, 61, 64
3, 441602, Note_on_c, 0, 68, 97
3, 441845, Note_off_c, 0, 68, 64
3, 442082, Note_on_c, 0, 68, 97
3, 442325, Note_off_c, 0, 68, 64
3, 442682, Note_on_c, 0, 63, 97
3, 442802, Note_on_c, 0, 61, 97
3, 442805, Note_off_c, 0, 63, 64
3, 442922, Note_on_c, 0, 63, 97
3, 442925, Note_off_c, 0, 61, 64
3, 443042, Note_on_c, 0, 58, 97
3, 443045, Note_off_c, 0, 63, 64
3, 443162, Note_on_c, 0, 63, 97
3, 443165, Note_off_c, 0, 58, 64
3, 443282, Note_on_c, 0, 61, 97
3, 443285, Note_off_c, 0, 63, 64
3, 443402, Note_on_c, 0, 63, 97
3, 443405, Note_off_c, 0, 61, 64
3, 443522, Note_on_c, 0, 67, 97
3, 443525, Note_off_c, 0, 63, 64
3, 443642, Note_on_c, 0, 63, 97
3, 443645, Note_off_c, 0, 67, 64
3, 443762, Note_on_c, 0, 61, 97
3, 443765, Note_off_c, 0, 63, 64
3, 443882, Note_on_c, 0, 63, 97
3, 443885, Note_off_c, 0, 61, 64
3, 444002, Note_on_c, 0, 60, 97
3, 444005, Note_off_c, 0, 63, 64
3, 444245, Note_off_c, 0, 60, 64
3, 444482, Note_on_c, 0, 66, 97
3, 444725, Note_off_c, 0, 66, 64
3, 444962, Note_on_c, 0, 66, 97
3, 445205, Note_off_c, 0, 66, 64
3, 445562, Note_on_c, 0, 61, 97
3, 445682, Note_on_c, 0, 60, 97
3, 445685, Note_off_c, 0, 61, 64
3, 445802, Note_on_c, 0, 61, 97
3, 445805, Note_off_c, 0, 60, 64
3, 445922, Note_on_c, 0, 58, 97
3, 445925, Note_off_c, 0, 61, 64
3, 446042, Note_on_c, 0, 61, 97
3, 446045, Note_off_c, 0, 58, 64
3, 446162, Note_on_c, 0, 60, 97
3, 446165, Note_off_c, 0, 61, 64
3, 446282, Note_on_c, 0, 61, 97
3, 446285, Note_off_c, 0, 60, 64
3, 446402, Note_on_c, 0, 65, 97
3, 446405, Note_off_c, 0, 61, 64
3, 446522, Note_on_c, 0, 61, 97
3, 446525, Note_off_c, 0, 65, 64
3, 446642, Note_on_c, 0, 60, 97
3, 446645, Note_off_c, 0, 61, 64
3, 446762, Note_on_c, 0, 61, 97
3, 446765, Note_off_c, 0, 60, 64
3, 446882, Note_on_c, 0, 58, 97
3, 446885, Note_off_c, 0, 61, 64
3, 447002, Note_on_c, 0, 63, 97
3, 447005, Note_off_c, 0, 58, 64
3, 447122, Note_on_c, 0, 61, 97
3, 447125, Note_off_c, 0, 63, 64
3, 447242, Note_on_c, 0, 63, 97
3, 447245, Note_off_c, 0, 61, 64
3, 447362, Note_on_c, 0, 67, 97
3, 447365, Note_off_c, 0, 63, 64
3, 447482, Note_on_c, 0, 63, 97
3, 447485, Note_off_c, 0, 67, 64
3, 447602, Note_on_c, 0, 61, 97
3, 447605, Note_off_c, 0, 63, 64
3, 447722, Note_on_c, 0, 63, 97
3, 447725, Note_off_c, 0, 61, 64
3, 447842, Note_on_c, 0, 70, 97
3, 447845, Note_off_c, 0, 63, 64
3, 447962, Note_on_c, 0, 67, 97
3, 447965, Note_off_c, 0, 70, 64
3, 448082, Note_on_c, 0, 65, 97
3, 448085, Note_off_c, 0, 67, 64
3, 448202, Note_on_c, 0, 67, 97
3, 448205, Note_off_c, 0, 65, 64
3, 448322, Note_on_c, 0, 75, 97
3, 448325, Note_off_c, 0, 67, 64
3, 448562, Note_on_c, 0, 72, 97
3, 448565, Note_off_c, 0, 75, 64
3, 448802, Note_on_c, 0, 68, 97
3, 448805, Note_off_c, 0, 72, 64
3, 449882, Note_on_c, 0, 67, 97
3, 449885, Note_off_c, 0, 68, 64
3, 450002, Note_on_c, 0, 65, 97
3, 450005, Note_off_c, 0, 67, 64
3, 450122, Note_on_c, 0, 63, 97
3, 450125, Note_off_c, 0, 65, 64
3, 450242, Note_on_c, 0, 62, 97
3, 450245, Note_off_c, 0, 63, 64
3, 450362, Note_on_c, 0, 63, 97
3, 450365, Note_off_c, 0, 62, 64
3, 450482, Note_on_c, 0, 62, 97
3, 450485, Note_off_c, 0, 63, 64
3, 450602, Note_on_c, 0, 60, 97
3, 450605, Note_off_c, 0, 62, 64
3, 450722, Note_on_c, 0, 58, 97
3, 450725, Note_off_c, 0, 60, 64
3, 450842, Note_on_c, 0, 68, 97
3, 450845, Note_off_c, 0, 58, 64
3, 450962, Note_on_c, 0, 67, 97
3, 450965, Note_off_c, 0, 68, 64
3, 451082, Note_on_c, 0, 65, 97
3, 451085, Note_off_c, 0, 67, 64
3, 451202, Note_on_c, 0, 63, 97
3, 451205, Note_off_c, 0, 65, 64
3, 452762, Note_on_c, 0, 62, 97
3, 452765, Note_off_c, 0, 63, 64
3, 452882, Note_on_c, 0, 63, 97
3, 452885, Note_off_c, 0, 62, 64
3, 453002, Note_on_c, 0, 68, 97
3, 453005, Note_off_c, 0, 63, 64
3, 453122, Note_on_c, 0, 63, 97
3, 453125, Note_off_c, 0, 68, 64
3, 453242, Note_on_c, 0, 62, 97
3, 453245, Note_off_c, 0, 63, 64
3, 453362, Note_on_c, 0, 63, 97
3, 453365, Note_off_c, 0, 62, 64
3, 453482, Note_on_c, 0, 67, 97
3, 453485, Note_off_c, 0, 63, 64
3, 453602, Note_on_c, 0, 65, 97
3, 453605, Note_off_c, 0, 67, 64
3, 454202, Note_on_c, 0, 72, 97
3, 454205, Note_off_c, 0, 65, 64
3, 454322, Note_on_c, 0, 70, 97
3, 454325, Note_off_c, 0, 72, 64
3, 454442, Note_on_c, 0, 68, 97
3, 454445, Note_off_c, 0, 70, 64
3, 454562, Note_on_c, 0, 67, 97
3, 454565, Note_off_c, 0, 68, 64
3, 454682, Note_on_c, 0, 75, 97
3, 454685, Note_off_c, 0, 67, 64
3, 454802, Note_on_c, 0, 74, 97
3, 454805, Note_off_c, 0, 75, 64
3, 454922, Note_on_c, 0, 72, 97
3, 454925, Note_off_c, 0, 74, 64
3, 455042, Note_on_c, 0, 70, 97
3, 455045, Note_off_c, 0, 72, 64
3, 455162, Note_on_c, 0, 68, 97
3, 455165, Note_off_c, 0, 70, 64
3, 455282, Note_on_c, 0, 67, 97
3, 455285, Note_off_c, 0, 68, 64
3, 455402, Note_on_c, 0, 65, 97
3, 455405, Note_off_c, 0, 67, 64
3, 455522, Note_on_c, 0, 63, 97
3, 455525, Note_off_c, 0, 65, 64
3, 455762, Note_on_c, 0, 70, 97
3, 455765, Note_off_c, 0, 63, 64
3, 456002, Note_on_c, 0, 72, 97
3, 456005, Note_off_c, 0, 70, 64
3, 456242, Note_on_c, 0, 70, 97
3, 456245, Note_off_c, 0, 72, 64
3, 456482, Note_on_c, 0, 72, 97
3, 456485, Note_off_c, 0, 70, 64
3, 456722, Note_on_c, 0, 68, 97
3, 456725, Note_off_c, 0, 72, 64
3, 456962, Note_on_c, 0, 70, 97
3, 456965, Note_off_c, 0, 68, 64
3, 457082, Note_on_c, 0, 75, 97
3, 457085, Note_off_c, 0, 70, 64
3, 457202, Note_on_c, 0, 74, 97
3, 457205, Note_off_c, 0, 75, 64
3, 457322, Note_on_c, 0, 75, 97
3, 457325, Note_off_c, 0, 74, 64
3, 457442, Note_on_c, 0, 68, 97
3, 457445, Note_off_c, 0, 75, 64
3, 457562, Note_on_c, 0, 75, 97
3, 457565, Note_off_c, 0, 68, 64
3, 457682, Note_on_c, 0, 67, 97
3, 457685, Note_off_c, 0, 75, 64
3, 457802, Note_on_c, 0, 75, 97
3, 457805, Note_off_c, 0, 67, 64
3, 457922, Note_on_c, 0, 68, 97
3, 457925, Note_off_c, 0, 75, 64
3, 458042, Note_on_c, 0, 75, 97
3, 458045, Note_off_c, 0, 68, 64
3, 458162, Note_on_c, 0, 65, 97
3, 458165, Note_off_c, 0, 75, 64
3, 458282, Note_on_c, 0, 75, 97
3, 458285, Note_off_c, 0, 65, 64
3, 458402, Note_on_c, 0, 67, 97
3, 458405, Note_off_c, 0, 75, 64
3, 459002, Note_on_c, 0, 63, 97
3, 459005, Note_off_c, 0, 67, 64
3, 459122, Note_on_c, 0, 65, 97
3, 459125, Note_off_c, 0, 63, 64
3, 459242, Note_on_c, 0, 67, 97
3, 459245, Note_off_c, 0, 65, 64
3, 459362, Note_on_c, 0, 68, 97
3, 459365, Note_off_c, 0, 67, 64
3, 459482, Note_on_c, 0, 70, 97
3, 459485, Note_off_c, 0, 68, 64
3, 459602, Note_on_c, 0, 72, 97
3, 459605, Note_off_c, 0, 70, 64
3, 459722, Note_on_c, 0, 74, 97
3, 459725, Note_off_c, 0, 72, 64
3, 459842, Note_on_c, 0, 75, 97
3, 459845, Note_off_c, 0, 74, 64
3, 460082, Note_on_c, 0, 67, 97
3, 460085, Note_off_c, 0, 75, 64
3, 460322, Note_on_c, 0, 68, 97
3, 460325, Note_off_c, 0, 67, 64
3, 460565, Note_off_c, 0, 68, 64
3, 460802, Note_on_c, 0, 65, 97
3, 460862, Note_on_c, 0, 67, 97
3, 460865, Note_off_c, 0, 65, 64
3, 460922, Note_on_c, 0, 65, 97
3, 460925, Note_off_c, 0, 67, 64
3, 461282, Note_on_c, 0, 67, 97
3, 461285, Note_off_c, 0, 65, 64
3, 462725, Note_off_c, 0, 67, 64
3, 462848, End_track
4, 0, Start_track
4, 0, Title_t, "Track 3"
4, 0, Note_on_c, 0, 51, 102
4, 480, Note_off_c, 0, 51, 64
4, 600, Note_on_c, 0, 55, 102
4, 720, Note_off_c, 0, 55, 64
4, 720, Note_on_c, 0, 53, 102
4, 840, Note_off_c, 0, 53, 64
4, 840, Note_on_c, 0, 55, 102
4, 960, Note_off_c, 0, 55, 64
4, 960, Note_on_c, 0, 48, 102
4, 1440, Note_off_c, 0, 48, 64
4, 1560, Note_on_c, 0, 51, 102
4, 1680, Note_off_c, 0, 51, 64
4, 1680, Note_on_c, 0, 50, 102
4, 1800, Note_off_c, 0, 50, 64
4, 1800, Note_on_c, 0, 51, 102
4, 1920, Note_off_c, 0, 51, 64
4, 1920, Note_on_c, 0, 44, 102
4, 2400, Note_off_c, 0, 44, 64
4, 2400, Note_on_c, 0, 46, 102
4, 2880, Note_off_c, 0, 46, 64
4, 2880, Note_on_c, 0, 39, 102
4, 3120, Note_off_c, 0, 39, 64
4, 3120, Note_on_c, 0, 51, 102
4, 3360, Note_off_c, 0, 51, 64
4, 3360, Note_on_c, 0, 50, 102
4, 3600, Note_off_c, 0, 50, 64
4, 3600, Note_on_c, 0, 48, 102
4, 3840, Note_off_c, 0, 48, 64
4, 3840, Note_on_c, 0, 50, 102
4, 4080, Note_off_c, 0, 50, 64
4, 4080, Note_on_c, 0, 53, 102
4, 4320, Note_off_c, 0, 53, 64
4, 4320, Note_on_c, 0, 50, 102
4, 4560, Note_off_c, 0, 50, 64
4, 4560, Note_on_c, 0, 46, 102
4, 4800, Note_off_c, 0, 46, 64
4, 4800, Note_on_c, 0, 51, 102
4, 5040, Note_off_c, 0, 51, 64
4, 5040, Note_on_c, 0, 55, 102
4, 5280, Note_off_c, 0, 55, 64
4, 5280, Note_on_c, 0, 51, 102
4, 5520, Note_off_c, 0, 51, 64
4, 5520, Note_on_c, 0, 48, 102
4, 5760, Note_off_c, 0, 48, 64
4, 5760, Note_on_c, 0, 50, 102
4, 6000, Note_off_c, 0, 50, 64
4, 6000, Note_on_c, 0, 51, 102
4, 6240, Note_off_c, 0, 51, 64
4, 6240, Note_on_c, 0, 53, 102
4, 6480, Note_off_c, 0, 53, 64
4, 6480, Note_on_c, 0, 41, 102
4, 6720, Note_off_c, 0, 41, 64
4, 6720, Note_on_c, 0, 46, 102
4, 7200, Note_off_c, 0, 46, 64
4, 7440, Note_on_c, 0, 50, 102
4, 7680, Note_off_c, 0, 50, 64
4, 7680, Note_on_c, 0, 53, 102
4, 8160, Note_off_c, 0, 53, 64
4, 8400, Note_on_c, 0, 56, 102
4, 8640, Note_off_c, 0, 56, 64
4, 8640, Note_on_c, 0, 48, 102
4, 9120, Note_off_c, 0, 48, 64
4, 9360, Note_on_c, 0, 51, 102
4, 9600, Note_off_c, 0, 51, 64
4, 9600, Note_on_c, 0, 55, 102
4, 10080, Note_off_c, 0, 55, 64
4, 10320, Note_on_c, 0, 58, 102
4, 10560, Note_off_c, 0, 58, 64
4, 10560, Note_on_c, 0, 48, 102
4, 10800, Note_off_c, 0, 48, 64
4, 10800, Note_on_c, 0, 51, 102
4, 11040, Note_off_c, 0, 51, 64
4, 11040, Note_on_c, 0, 56, 102
4, 11520, Note_off_c, 0, 56, 64
4, 11520, Note_on_c, 0, 46, 102
4, 11760, Note_off_c, 0, 46, 64
4, 11760, Note_on_c, 0, 50, 102
4, 12000, Note_off_c, 0, 50, 64
4, 12000, Note_on_c, 0, 55, 102
4, 12480, Note_off_c, 0, 55, 64
4, 12480, Note_on_c, 0, 44, 102
4, 12720, Note_off_c, 0, 44, 64
4, 12720, Note_on_c, 0, 48, 102
4, 12960, Note_off_c, 0, 48, 64
4, 12960, Note_on_c, 0, 53, 102
4, 13200, Note_off_c, 0, 53, 64
4, 13200, Note_on_c, 0, 56, 102
4, 13680, Note_off_c, 0, 56, 64
4, 13680, Note_on_c, 0, 44, 102
4, 13920, Note_off_c, 0, 44, 64
4, 13920, Note_on_c, 0, 43, 102
4, 14160, Note_off_c, 0, 43, 64
4, 14160, Note_on_c, 0, 48, 102
4, 14400, Note_off_c, 0, 48, 64
4, 14400, Note_on_c, 0, 46, 102
4, 14640, Note_off_c, 0, 46, 64
4, 14640, Note_on_c, 0, 58, 102
4, 15120, Note_off_c, 0, 58, 64
4, 15120, Note_on_c, 0, 56, 102
4, 15360, Note_off_c, 0, 56, 64
4, 15360, Note_on_c, 0, 55, 102
4, 15600, Note_off_c, 0, 55, 64
4, 15600, Note_on_c, 0, 58, 102
4, 15840, Note_off_c, 0, 58, 64
4, 15840, Note_on_c, 0, 55, 102
4, 16080, Note_off_c, 0, 55, 64
4, 16080, Note_on_c, 0, 51, 102
4, 16320, Note_off_c, 0, 51, 64
4, 16320, Note_on_c, 0, 56, 102
4, 16560, Note_off_c, 0, 56, 64
4, 16560, Note_on_c, 0, 60, 102
4, 16800, Note_off_c, 0, 60, 64
4, 16800, Note_on_c, 0, 56, 102
4, 17040, Note_off_c, 0, 56, 64
4, 17040, Note_on_c, 0, 53, 102
4, 17280, Note_off_c, 0, 53, 64
4, 17280, Note_on_c, 0, 55, 102
4, 17520, Note_off_c, 0, 55, 64
4, 17520, Note_on_c, 0, 56, 102
4, 17760, Note_off_c, 0, 56, 64
4, 17760, Note_on_c, 0, 58, 102
4, 18000, Note_off_c, 0, 58, 64
4, 18000, Note_on_c, 0, 50, 102
4, 18240, Note_off_c, 0, 50, 64
4, 18240, Note_on_c, 0, 51, 102
4, 18480, Note_off_c, 0, 51, 64
4, 18480, Note_on_c, 0, 48, 102
4, 18720, Note_off_c, 0, 48, 64
4, 18720, Note_on_c, 0, 44, 102
4, 18960, Note_off_c, 0, 44, 64
4, 18960, Note_on_c, 0, 46, 102
4, 19200, Note_off_c, 0, 46, 64
4, 19200, Note_on_c, 0, 39, 102
4, 19440, Note_off_c, 0, 39, 64
4, 19440, Note_on_c, 0, 41, 102
4, 19680, Note_off_c, 0, 41, 64
4, 19680, Note_on_c, 0, 43, 102
4, 19920, Note_off_c, 0, 43, 64
4, 19920, Note_on_c, 0, 39, 102
4, 20160, Note_off_c, 0, 39, 64
4, 20160, Note_on_c, 0, 46, 102
4, 20640, Note_off_c, 0, 46, 64
4, 20880, Note_on_c, 0, 50, 102
4, 21120, Note_off_c, 0, 50, 64
4, 21120, Note_on_c, 0, 51, 102
4, 21600, Note_off_c, 0, 51, 64
4, 21840, Note_on_c, 0, 43, 102
4, 22080, Note_off_c, 0, 43, 64
4, 22080, Note_on_c, 0, 46, 102
4, 22560, Note_off_c, 0, 46, 64
4, 22800, Note_on_c, 0, 50, 102
4, 23040, Note_off_c, 0, 50, 64
4, 23040, Note_on_c, 0, 51, 102
4, 23520, Note_off_c, 0, 51, 64
4, 23760, Note_on_c, 0, 55, 102
4, 24000, Note_off_c, 0, 55, 64
4, 24000, Note_on_c, 0, 48, 102
4, 24480, Note_off_c, 0, 48, 64
4, 24720, Note_on_c, 0, 52, 102
4, 24960, Note_off_c, 0, 52, 64
4, 24960, Note_on_c, 0, 53, 102
4, 25440, Note_off_c, 0, 53, 64
4, 25680, Note_on_c, 0, 45, 102
4, 25920, Note_off_c, 0, 45, 64
4, 25920, Note_on_c, 0, 48, 102
4, 26400, Note_off_c, 0, 48, 64
4, 26640, Note_on_c, 0, 52, 102
4, 26880, Note_off_c, 0, 52, 64
4, 26880, Note_on_c, 0, 53, 102
4, 27360, Note_off_c, 0, 53, 64
4, 27600, Note_on_c, 0, 57, 102
4, 27840, Note_off_c, 0, 57, 64
4, 27840, Note_on_c, 0, 50, 102
4, 28320, Note_off_c, 0, 50, 64
4, 28560, Note_on_c, 0, 54, 102
4, 28800, Note_off_c, 0, 54, 64
4, 28800, Note_on_c, 0, 55, 102
4, 29280, Note_off_c, 0, 55, 64
4, 29520, Note_on_c, 0, 60, 102
4, 29760, Note_off_c, 0, 60, 64
4, 29760, Note_on_c, 0, 58, 102
4, 30000, Note_off_c, 0, 58, 64
4, 30000, Note_on_c, 0, 57, 102
4, 30240, Note_off_c, 0, 57, 64
4, 30240, Note_on_c, 0, 58, 102
4, 30480, Note_off_c, 0, 58, 64
4, 30480, Note_on_c, 0, 51, 102
4, 30720, Note_off_c, 0, 51, 64
4, 30720, Note_on_c, 0, 53, 102
4, 30960, Note_off_c, 0, 53, 64
4, 30960, Note_on_c, 0, 41, 102
4, 31200, Note_off_c, 0, 41, 64
4, 31200, Note_on_c, 0, 53, 102
4, 31440, Note_off_c, 0, 53, 64
4, 31440, Note_on_c, 0, 51, 102
4, 31680, Note_off_c, 0, 51, 64
4, 31680, Note_on_c, 0, 50, 102
4, 32160, Note_off_c, 0, 50, 64
4, 32400, Note_on_c, 0, 62, 102
4, 32640, Note_off_c, 0, 62, 64
4, 32640, Note_on_c, 0, 60, 102
4, 33120, Note_off_c, 0, 60, 64
4, 33360, Note_on_c, 0, 48, 102
4, 33600, Note_off_c, 0, 48, 64
4, 33600, Note_on_c, 0, 47, 102
4, 34080, Note_off_c, 0, 47, 64
4, 34320, Note_on_c, 0, 59, 102
4, 34560, Note_off_c, 0, 59, 64
4, 34560, Note_on_c, 0, 60, 102
4, 35040, Note_off_c, 0, 60, 64
4, 35280, Note_on_c, 0, 46, 102
4, 35520, Note_off_c, 0, 46, 64
4, 35520, Note_on_c, 0, 45, 102
4, 36000, Note_off_c, 0, 45, 64
4, 36240, Note_on_c, 0, 57, 102
4, 36480, Note_off_c, 0, 57, 64
4, 36480, Note_on_c, 0, 58, 102
4, 36960, Note_off_c, 0, 58, 64
4, 37200, Note_on_c, 0, 56, 102
4, 37440, Note_off_c, 0, 56, 64
4, 37440, Note_on_c, 0, 55, 102
4, 37920, Note_off_c, 0, 55, 64
4, 38160, Note_on_c, 0, 43, 102
4, 38400, Note_off_c, 0, 43, 64
4, 38400, Note_on_c, 0, 45, 102
4, 38640, Note_off_c, 0, 45, 64
4, 38640, Note_on_c, 0, 48, 102
4, 38880, Note_off_c, 0, 48, 64
4, 38880, Note_on_c, 0, 45, 102
4, 39120, Note_off_c, 0, 45, 64
4, 39120, Note_on_c, 0, 41, 102
4, 39360, Note_off_c, 0, 41, 64
4, 39360, Note_on_c, 0, 46, 102
4, 39600, Note_off_c, 0, 46, 64
4, 39600, Note_on_c, 0, 50, 102
4, 39840, Note_off_c, 0, 50, 64
4, 39840, Note_on_c, 0, 51, 102
4, 40080, Note_off_c, 0, 51, 64
4, 40080, Note_on_c, 0, 53, 102
4, 40320, Note_off_c, 0, 53, 64
4, 40320, Note_on_c, 0, 46, 102
4, 40800, Note_off_c, 0, 46, 64
4, 40920, Note_on_c, 0, 50, 102
4, 41040, Note_off_c, 0, 50, 64
4, 41040, Note_on_c, 0, 48, 102
4, 41160, Note_off_c, 0, 48, 64
4, 41160, Note_on_c, 0, 50, 102
4, 41280, Note_off_c, 0, 50, 64
4, 41280, Note_on_c, 0, 43, 102
4, 41760, Note_off_c, 0, 43, 64
4, 41880, Note_on_c, 0, 46, 102
4, 42000, Note_off_c, 0, 46, 64
4, 42000, Note_on_c, 0, 45, 102
4, 42120, Note_off_c, 0, 45, 64
4, 42120, Note_on_c, 0, 46, 102
4, 42240, Note_off_c, 0, 46, 64
4, 42240, Note_on_c, 0, 39, 102
4, 42720, Note_off_c, 0, 39, 64
4, 42720, Note_on_c, 0, 41, 102
4, 43200, Note_off_c, 0, 41, 64
4, 43200, Note_on_c, 0, 46, 102
4, 43440, Note_off_c, 0, 46, 64
4, 43440, Note_on_c, 0, 58, 102
4, 43920, Note_off_c, 0, 58, 64
4, 43920, Note_on_c, 0, 56, 102
4, 44160, Note_off_c, 0, 56, 64
4, 44160, Note_on_c, 0, 55, 102
4, 44400, Note_off_c, 0, 55, 64
4, 44400, Note_on_c, 0, 58, 102
4, 44640, Note_off_c, 0, 58, 64
4, 44640, Note_on_c, 0, 55, 102
4, 44880, Note_off_c, 0, 55, 64
4, 44880, Note_on_c, 0, 51, 102
4, 45120, Note_off_c, 0, 51, 64
4, 45120, Note_on_c, 0, 56, 102
4, 45360, Note_off_c, 0, 56, 64
4, 45360, Note_on_c, 0, 60, 102
4, 45600, Note_off_c, 0, 60, 64
4, 45600, Note_on_c, 0, 56, 102
4, 45840, Note_off_c, 0, 56, 64
4, 45840, Note_on_c, 0, 53, 102
4, 46080, Note_off_c, 0, 53, 64
4, 46080, Note_on_c, 0, 55, 102
4, 46320, Note_off_c, 0, 55, 64
4, 46320, Note_on_c, 0, 56, 102
4, 46560, Note_off_c, 0, 56, 64
4, 46560, Note_on_c, 0, 58, 102
4, 46800, Note_off_c, 0, 58, 64
4, 46800, Note_on_c, 0, 46, 102
4, 47040, Note_off_c, 0, 46, 64
4, 47040, Note_on_c, 0, 51, 102
4, 47520, Note_off_c, 0, 51, 64
4, 47760, Note_on_c, 0, 55, 102
4, 48000, Note_off_c, 0, 55, 64
4, 48000, Note_on_c, 0, 58, 102
4, 48480, Note_off_c, 0, 58, 64
4, 48720, Note_on_c, 0, 50, 102
4, 48960, Note_off_c, 0, 50, 64
4, 48960, Note_on_c, 0, 53, 102
4, 49440, Note_off_c, 0, 53, 64
4, 49680, Note_on_c, 0, 56, 102
4, 49920, Note_off_c, 0, 56, 64
4, 49920, Note_on_c, 0, 60, 102
4, 50400, Note_off_c, 0, 60, 64
4, 50640, Note_on_c, 0, 51, 102
4, 50880, Note_off_c, 0, 51, 64
4, 50880, Note_on_c, 0, 55, 102
4, 51360, Note_off_c, 0, 55, 64
4, 51600, Note_on_c, 0, 55, 102
4, 51840, Note_off_c, 0, 55, 64
4, 51840, Note_on_c, 0, 56, 102
4, 52320, Note_off_c, 0, 56, 64
4, 52560, Note_on_c, 0, 48, 102
4, 52800, Note_off_c, 0, 48, 64
4, 52800, Note_on_c, 0, 50, 102
4, 53280, Note_off_c, 0, 50, 64
4, 53520, Note_on_c, 0, 52, 102
4, 53760, Note_off_c, 0, 52, 64
4, 53760, Note_on_c, 0, 41, 102
4, 54000, Note_off_c, 0, 41, 64
4, 54000, Note_on_c, 0, 44, 102
4, 54240, Note_off_c, 0, 44, 64
4, 54240, Note_on_c, 0, 48, 102
4, 54720, Note_off_c, 0, 48, 64
4, 54720, Note_on_c, 0, 41, 102
4, 54960, Note_off_c, 0, 41, 64
4, 54960, Note_on_c, 0, 46, 102
4, 55200, Note_off_c, 0, 46, 64
4, 55200, Note_on_c, 0, 49, 102
4, 55680, Note_off_c, 0, 49, 64
4, 55680, Note_on_c, 0, 43, 102
4, 55920, Note_off_c, 0, 43, 64
4, 55920, Note_on_c, 0, 46, 102
4, 56160, Note_off_c, 0, 46, 64
4, 56160, Note_on_c, 0, 52, 102
4, 56400, Note_off_c, 0, 52, 64
4, 56400, Note_on_c, 0, 48, 102
4, 56640, Note_off_c, 0, 48, 64
4, 56640, Note_on_c, 0, 53, 102
4, 57120, Note_off_c, 0, 53, 64
4, 57360, Note_on_c, 0, 41, 102
4, 57600, Note_off_c, 0, 41, 64
4, 57600, Note_on_c, 0, 39, 102
4, 58080, Note_off_c, 0, 39, 64
4, 58320, Note_on_c, 0, 51, 102
4, 58560, Note_off_c, 0, 51, 64
4, 58560, Note_on_c, 0, 49, 102
4, 58800, Note_off_c, 0, 49, 64
4, 58800, Note_on_c, 0, 53, 102
4, 59040, Note_off_c, 0, 53, 64
4, 59040, Note_on_c, 0, 56, 102
4, 59520, Note_off_c, 0, 56, 64
4, 59520, Note_on_c, 0, 48, 102
4, 59760, Note_off_c, 0, 48, 64
4, 59760, Note_on_c, 0, 53, 102
4, 60000, Note_off_c, 0, 53, 64
4, 60000, Note_on_c, 0, 56, 102
4, 60480, Note_off_c, 0, 56, 64
4, 60480, Note_on_c, 0, 46, 102
4, 60720, Note_off_c, 0, 46, 64
4, 60720, Note_on_c, 0, 49, 102
4, 60960, Note_off_c, 0, 49, 64
4, 60960, Note_on_c, 0, 55, 102
4, 61200, Note_off_c, 0, 55, 64
4, 61200, Note_on_c, 0, 56, 102
4, 61680, Note_off_c, 0, 56, 64
4, 61680, Note_on_c, 0, 46, 102
4, 61920, Note_off_c, 0, 46, 64
4, 61920, Note_on_c, 0, 44, 102
4, 62160, Note_off_c, 0, 44, 64
4, 62160, Note_on_c, 0, 49, 102
4, 62400, Note_off_c, 0, 49, 64
4, 62400, Note_on_c, 0, 48, 102
4, 62640, Note_off_c, 0, 48, 64
4, 62640, Note_on_c, 0, 60, 102
4, 63120, Note_off_c, 0, 60, 64
4, 63120, Note_on_c, 0, 58, 102
4, 63360, Note_off_c, 0, 58, 64
4, 63360, Note_on_c, 0, 57, 102
4, 63600, Note_off_c, 0, 57, 64
4, 63600, Note_on_c, 0, 60, 102
4, 63840, Note_off_c, 0, 60, 64
4, 63840, Note_on_c, 0, 57, 102
4, 64080, Note_off_c, 0, 57, 64
4, 64080, Note_on_c, 0, 53, 102
4, 64320, Note_off_c, 0, 53, 64
4, 64320, Note_on_c, 0, 58, 102
4, 64560, Note_off_c, 0, 58, 64
4, 64560, Note_on_c, 0, 61, 102
4, 64800, Note_off_c, 0, 61, 64
4, 64800, Note_on_c, 0, 58, 102
4, 65040, Note_off_c, 0, 58, 64
4, 65040, Note_on_c, 0, 55, 102
4, 65280, Note_off_c, 0, 55, 64
4, 65280, Note_on_c, 0, 56, 102
4, 65520, Note_off_c, 0, 56, 64
4, 65520, Note_on_c, 0, 58, 102
4, 65760, Note_off_c, 0, 58, 64
4, 65760, Note_on_c, 0, 60, 102
4, 66000, Note_off_c, 0, 60, 64
4, 66000, Note_on_c, 0, 52, 102
4, 66240, Note_off_c, 0, 52, 64
4, 66240, Note_on_c, 0, 53, 102
4, 66480, Note_off_c, 0, 53, 64
4, 66480, Note_on_c, 0, 49, 102
4, 66720, Note_off_c, 0, 49, 64
4, 66720, Note_on_c, 0, 46, 102
4, 66960, Note_off_c, 0, 46, 64
4, 66960, Note_on_c, 0, 48, 102
4, 67200, Note_off_c, 0, 48, 64
4, 67200, Note_on_c, 0, 41, 102
4, 67440, Note_off_c, 0, 41, 64
4, 67440, Note_on_c, 0, 43, 102
4, 67680, Note_off_c, 0, 43, 64
4, 67680, Note_on_c, 0, 44, 102
4, 67920, Note_off_c, 0, 44, 64
4, 67920, Note_on_c, 0, 41, 102
4, 68160, Note_off_c, 0, 41, 64
4, 68160, Note_on_c, 0, 48, 102
4, 68640, Note_off_c, 0, 48, 64
4, 68880, Note_on_c, 0, 52, 102
4, 69120, Note_off_c, 0, 52, 64
4, 69120, Note_on_c, 0, 53, 102
4, 69600, Note_off_c, 0, 53, 64
4, 69840, Note_on_c, 0, 56, 102
4, 70080, Note_off_c, 0, 56, 64
4, 70080, Note_on_c, 0, 60, 102
4, 70560, Note_off_c, 0, 60, 64
4, 70800, Note_on_c, 0, 48, 102
4, 71040, Note_off_c, 0, 48, 64
4, 71040, Note_on_c, 0, 53, 102
4, 71280, Note_off_c, 0, 53, 64
4, 71280, Note_on_c, 0, 55, 102
4, 71520, Note_off_c, 0, 55, 64
4, 71520, Note_on_c, 0, 56, 102
4, 71760, Note_off_c, 0, 56, 64
4, 71760, Note_on_c, 0, 53, 102
4, 72000, Note_off_c, 0, 53, 64
4, 72000, Note_on_c, 0, 58, 102
4, 72480, Note_off_c, 0, 58, 64
4, 72720, Note_on_c, 0, 55, 102
4, 72960, Note_off_c, 0, 55, 64
4, 72960, Note_on_c, 0, 56, 102
4, 73440, Note_off_c, 0, 56, 64
4, 73680, Note_on_c, 0, 44, 102
4, 73920, Note_off_c, 0, 44, 64
4, 73920, Note_on_c, 0, 51, 102
4, 74400, Note_off_c, 0, 51, 64
4, 74640, Note_on_c, 0, 39, 102
4, 74880, Note_off_c, 0, 39, 64
4, 74880, Note_on_c, 0, 44, 102
4, 75120, Note_off_c, 0, 44, 64
4, 75120, Note_on_c, 0, 46, 102
4, 75360, Note_off_c, 0, 46, 64
4, 75360, Note_on_c, 0, 48, 102
4, 75600, Note_off_c, 0, 48, 64
4, 75600, Note_on_c, 0, 49, 102
4, 75840, Note_off_c, 0, 49, 64
4, 75840, Note_on_c, 0, 51, 102
4, 76320, Note_off_c, 0, 51, 64
4, 76560, Note_on_c, 0, 43, 102
4, 76800, Note_off_c, 0, 43, 64
4, 76800, Note_on_c, 0, 44, 102
4, 77280, Note_off_c, 0, 44, 64
4, 77520, Note_on_c, 0, 48, 102
4, 77760, Note_off_c, 0, 48, 64
4, 77760, Note_on_c, 0, 51, 102
4, 78240, Note_off_c, 0, 51, 64
4, 78480, Note_on_c, 0, 43, 102
4, 78720, Note_off_c, 0, 43, 64
4, 78720, Note_on_c, 0, 44, 102
4, 79200, Note_off_c, 0, 44, 64
4, 79440, Note_on_c, 0, 48, 102
4, 79680, Note_off_c, 0, 48, 64
4, 79680, Note_on_c, 0, 53, 102
4, 80160, Note_off_c, 0, 53, 64
4, 80400, Note_on_c, 0, 45, 102
4, 80640, Note_off_c, 0, 45, 64
4, 80640, Note_on_c, 0, 46, 102
4, 81120, Note_off_c, 0, 46, 64
4, 81360, Note_on_c, 0, 50, 102
4, 81600, Note_off_c, 0, 50, 64
4, 81600, Note_on_c, 0, 53, 102
4, 82080, Note_off_c, 0, 53, 64
4, 82320, Note_on_c, 0, 45, 102
4, 82560, Note_off_c, 0, 45, 64
4, 82560, Note_on_c, 0, 46, 102
4, 83040, Note_off_c, 0, 46, 64
4, 83280, Note_on_c, 0, 50, 102
4, 83520, Note_off_c, 0, 50, 64
4, 83520, Note_on_c, 0, 55, 102
4, 84000, Note_off_c, 0, 55, 64
4, 84240, Note_on_c, 0, 47, 102
4, 84480, Note_off_c, 0, 47, 64
4, 84480, Note_on_c, 0, 48, 102
4, 84960, Note_off_c, 0, 48, 64
4, 85200, Note_on_c, 0, 53, 102
4, 85440, Note_off_c, 0, 53, 64
4, 85440, Note_on_c, 0, 51, 102
4, 85680, Note_off_c, 0, 51, 64
4, 85680, Note_on_c, 0, 50, 102
4, 85920, Note_off_c, 0, 50, 64
4, 85920, Note_on_c, 0, 51, 102
4, 86160, Note_off_c, 0, 51, 64
4, 86160, Note_on_c, 0, 44, 102
4, 86400, Note_off_c, 0, 44, 64
4, 86400, Note_on_c, 0, 46, 102
4, 86640, Note_off_c, 0, 46, 64
4, 86640, Note_on_c, 0, 58, 102
4, 87120, Note_off_c, 0, 58, 64
4, 87120, Note_on_c, 0, 56, 102
4, 87360, Note_off_c, 0, 56, 64
4, 87360, Note_on_c, 0, 55, 102
4, 87840, Note_off_c, 0, 55, 64
4, 88080, Note_on_c, 0, 43, 102
4, 88320, Note_off_c, 0, 43, 64
4, 88320, Note_on_c, 0, 41, 102
4, 88800, Note_off_c, 0, 41, 64
4, 89040, Note_on_c, 0, 53, 102
4, 89280, Note_off_c, 0, 53, 64
4, 89280, Note_on_c, 0, 52, 102
4, 89760, Note_off_c, 0, 52, 64
4, 90000, Note_on_c, 0, 40, 102
4, 90240, Note_off_c, 0, 40, 64
4, 90240, Note_on_c, 0, 41, 102
4, 90720, Note_off_c, 0, 41, 64
4, 90960, Note_on_c, 0, 51, 102
4, 91200, Note_off_c, 0, 51, 64
4, 91200, Note_on_c, 0, 50, 102
4, 91680, Note_off_c, 0, 50, 64
4, 91920, Note_on_c, 0, 38, 102
4, 92160, Note_off_c, 0, 38, 64
4, 92160, Note_on_c, 0, 39, 102
4, 92640, Note_off_c, 0, 39, 64
4, 92880, Note_on_c, 0, 49, 102
4, 93120, Note_off_c, 0, 49, 64
4, 93120, Note_on_c, 0, 48, 102
4, 93600, Note_off_c, 0, 48, 64
4, 93840, Note_on_c, 0, 36, 102
4, 94080, Note_off_c, 0, 36, 64
4, 94080, Note_on_c, 0, 39, 102
4, 94320, Note_off_c, 0, 39, 64
4, 94320, Note_on_c, 0, 53, 102
4, 94560, Note_off_c, 0, 53, 64
4, 94560, Note_on_c, 0, 50, 102
4, 94800, Note_off_c, 0, 50, 64
4, 94800, Note_on_c, 0, 46, 102
4, 95040, Note_off_c, 0, 46, 64
4, 95040, Note_on_c, 0, 51, 102
4, 95280, Note_off_c, 0, 51, 64
4, 95280, Note_on_c, 0, 43, 102
4, 95520, Note_off_c, 0, 43, 64
4, 95520, Note_on_c, 0, 44, 102
4, 95760, Note_off_c, 0, 44, 64
4, 95760, Note_on_c, 0, 46, 102
4, 96000, Note_off_c, 0, 46, 64
4, 96000, Note_on_c, 0, 39, 102
4, 96240, Note_off_c, 0, 39, 64
4, 96240, Note_on_c, 0, 43, 102
4, 96480, Note_off_c, 0, 43, 64
4, 96480, Note_on_c, 0, 46, 102
4, 96960, Note_off_c, 0, 46, 64
4, 96960, Note_on_c, 0, 39, 102
4, 97200, Note_off_c, 0, 39, 64
4, 97200, Note_on_c, 0, 44, 102
4, 97440, Note_off_c, 0, 44, 64
4, 97440, Note_on_c, 0, 48, 102
4, 97920, Note_off_c, 0, 48, 64
4, 97920, Note_on_c, 0, 41, 102
4, 98160, Note_off_c, 0, 41, 64
4, 98160, Note_on_c, 0, 44, 102
4, 98400, Note_off_c, 0, 44, 64
4, 98400, Note_on_c, 0, 50, 102
4, 98640, Note_off_c, 0, 50, 64
4, 98640, Note_on_c, 0, 46, 102
4, 98880, Note_off_c, 0, 46, 64
4, 98880, Note_on_c, 0, 51, 102
4, 99360, Note_off_c, 0, 51, 64
4, 99600, Note_on_c, 0, 60, 102
4, 99840, Note_off_c, 0, 60, 64
4, 99840, Note_on_c, 0, 49, 102
4, 100320, Note_off_c, 0, 49, 64
4, 100560, Note_on_c, 0, 58, 102
4, 100800, Note_off_c, 0, 58, 64
4, 100800, Note_on_c, 0, 48, 102
4, 101040, Note_off_c, 0, 48, 64
4, 101040, Note_on_c, 0, 51, 102
4, 101280, Note_off_c, 0, 51, 64
4, 101280, Note_on_c, 0, 56, 102
4, 101760, Note_off_c, 0, 56, 64
4, 101760, Note_on_c, 0, 46, 102
4, 102000, Note_off_c, 0, 46, 64
4, 102000, Note_on_c, 0, 50, 102
4, 102240, Note_off_c, 0, 50, 64
4, 102240, Note_on_c, 0, 55, 102
4, 102720, Note_off_c, 0, 55, 64
4, 102720, Note_on_c, 0, 44, 102
4, 102960, Note_off_c, 0, 44, 64
4, 102960, Note_on_c, 0, 48, 102
4, 103200, Note_off_c, 0, 48, 64
4, 103200, Note_on_c, 0, 53, 102
4, 103440, Note_off_c, 0, 53, 64
4, 103440, Note_on_c, 0, 56, 102
4, 103920, Note_off_c, 0, 56, 64
4, 103920, Note_on_c, 0, 44, 102
4, 104160, Note_off_c, 0, 44, 64
4, 104160, Note_on_c, 0, 43, 102
4, 104400, Note_off_c, 0, 43, 64
4, 104400, Note_on_c, 0, 48, 102
4, 104640, Note_off_c, 0, 48, 64
4, 104640, Note_on_c, 0, 46, 102
4, 104880, Note_off_c, 0, 46, 64
4, 104880, Note_on_c, 0, 58, 102
4, 105360, Note_off_c, 0, 58, 64
4, 105360, Note_on_c, 0, 56, 102
4, 105600, Note_off_c, 0, 56, 64
4, 105600, Note_on_c, 0, 55, 102
4, 105840, Note_off_c, 0, 55, 64
4, 105840, Note_on_c, 0, 58, 102
4, 106080, Note_off_c, 0, 58, 64
4, 106080, Note_on_c, 0, 55, 102
4, 106320, Note_off_c, 0, 55, 64
4, 106320, Note_on_c, 0, 51, 102
4, 106560, Note_off_c, 0, 51, 64
4, 106560, Note_on_c, 0, 56, 102
4, 106800, Note_off_c, 0, 56, 64
4, 106800, Note_on_c, 0, 60, 102
4, 107040, Note_off_c, 0, 60, 64
4, 107040, Note_on_c, 0, 56, 102
4, 107280, Note_off_c, 0, 56, 64
4, 107280, Note_on_c, 0, 53, 102
4, 107520, Note_off_c, 0, 53, 64
4, 107520, Note_on_c, 0, 55, 102
4, 107760, Note_off_c, 0, 55, 64
4, 107760, Note_on_c, 0, 56, 102
4, 108000, Note_off_c, 0, 56, 64
4, 108000, Note_on_c, 0, 58, 102
4, 108240, Note_off_c, 0, 58, 64
4, 108240, Note_on_c, 0, 50, 102
4, 108480, Note_off_c, 0, 50, 64
4, 108480, Note_on_c, 0, 51, 102
4, 108720, Note_off_c, 0, 51, 64
4, 108720, Note_on_c, 0, 48, 102
4, 108960, Note_off_c, 0, 48, 64
4, 108960, Note_on_c, 0, 44, 102
4, 109200, Note_off_c, 0, 44, 64
4, 109200, Note_on_c, 0, 46, 102
4, 109440, Note_off_c, 0, 46, 64
4, 109440, Note_on_c, 0, 39, 102
4, 109680, Note_off_c, 0, 39, 64
4, 109680, Note_on_c, 0, 43, 102
4, 109920, Note_off_c, 0, 43, 64
4, 109920, Note_on_c, 0, 46, 102
4, 110400, Note_off_c, 0, 46, 64
4, 110400, Note_on_c, 0, 39, 102
4, 111360, Note_off_c, 0, 39, 64
4, 114242, Note_on_c, 0, 60, 102
4, 114725, Note_off_c, 0, 60, 64
4, 114962, Note_on_c, 0, 58, 102
4, 115445, Note_off_c, 0, 58, 64
4, 115682, Note_on_c, 0, 56, 102
4, 116165, Note_off_c, 0, 56, 64
4, 116402, Note_on_c, 0, 51, 102
4, 116885, Note_off_c, 0, 51, 64
4, 117122, Note_on_c, 0, 53, 102
4, 117605, Note_off_c, 0, 53, 64
4, 117842, Note_on_c, 0, 55, 102
4, 118325, Note_off_c, 0, 55, 64
4, 118562, Note_on_c, 0, 48, 102
4, 119042, Note_on_c, 0, 46, 102
4, 119045, Note_off_c, 0, 48, 64
4, 119282, Note_on_c, 0, 45, 102
4, 119285, Note_off_c, 0, 46, 64
4, 119522, Note_on_c, 0, 43, 102
4, 119525, Note_off_c, 0, 45, 64
4, 119762, Note_on_c, 0, 42, 102
4, 119765, Note_off_c, 0, 43, 64
4, 120002, Note_on_c, 0, 43, 102
4, 120005, Note_off_c, 0, 42, 64
4, 120485, Note_off_c, 0, 43, 64
4, 120722, Note_on_c, 0, 41, 102
4, 121205, Note_off_c, 0, 41, 64
4, 121442, Note_on_c, 0, 39, 102
4, 121925, Note_off_c, 0, 39, 64
4, 122162, Note_on_c, 0, 46, 102
4, 122645, Note_off_c, 0, 46, 64
4, 122882, Note_on_c, 0, 48, 102
4, 123365, Note_off_c, 0, 48, 64
4, 123602, Note_on_c, 0, 50, 102
4, 124085, Note_off_c, 0, 50, 64
4, 124322, Note_on_c, 0, 43, 102
4, 124562, Note_on_c, 0, 55, 102
4, 124565, Note_off_c, 0, 43, 64
4, 124802, Note_on_c, 0, 53, 102
4, 124805, Note_off_c, 0, 55, 64
4, 125042, Note_on_c, 0, 52, 102
4, 125045, Note_off_c, 0, 53, 64
4, 125282, Note_on_c, 0, 50, 102
4, 125285, Note_off_c, 0, 52, 64
4, 125522, Note_on_c, 0, 48, 102
4, 125525, Note_off_c, 0, 50, 64
4, 125762, Note_on_c, 0, 41, 102
4, 125765, Note_off_c, 0, 48, 64
4, 126002, Note_on_c, 0, 53, 102
4, 126005, Note_off_c, 0, 41, 64
4, 126242, Note_on_c, 0, 51, 102
4, 126245, Note_off_c, 0, 53, 64
4, 126482, Note_on_c, 0, 50, 102
4, 126485, Note_off_c, 0, 51, 64
4, 126722, Note_on_c, 0, 48, 102
4, 126725, Note_off_c, 0, 50, 64
4, 126962, Note_on_c, 0, 46, 102
4, 126965, Note_off_c, 0, 48, 64
4, 127202, Note_on_c, 0, 39, 102
4, 127205, Note_off_c, 0, 46, 64
4, 127442, Note_on_c, 0, 51, 102
4, 127445, Note_off_c, 0, 39, 64
4, 127682, Note_on_c, 0, 50, 102
4, 127685, Note_off_c, 0, 51, 64
4, 127922, Note_on_c, 0, 48, 102
4, 127925, Note_off_c, 0, 50, 64
4, 128162, Note_on_c, 0, 46, 102
4, 128165, Note_off_c, 0, 48, 64
4, 128402, Note_on_c, 0, 44, 102
4, 128405, Note_off_c, 0, 46, 64
4, 128642, Note_on_c, 0, 38, 102
4, 128645, Note_off_c, 0, 44, 64
4, 128882, Note_on_c, 0, 50, 102
4, 128885, Note_off_c, 0, 38, 64
4, 129122, Note_on_c, 0, 48, 102
4, 129125, Note_off_c, 0, 50, 64
4, 129362, Note_on_c, 0, 47, 102
4, 129365, Note_off_c, 0, 48, 64
4, 129602, Note_on_c, 0, 45, 102
4, 129605, Note_off_c, 0, 47, 64
4, 129842, Note_on_c, 0, 43, 102
4, 129845, Note_off_c, 0, 45, 64
4, 130082, Note_on_c, 0, 48, 102
4, 130085, Note_off_c, 0, 43, 64
4, 130562, Note_on_c, 0, 51, 102
4, 130565, Note_off_c, 0, 48, 64
4, 130802, Note_on_c, 0, 50, 102
4, 130805, Note_off_c, 0, 51, 64
4, 131282, Note_on_c, 0, 43, 102
4, 131285, Note_off_c, 0, 50, 64
4, 131522, Note_on_c, 0, 48, 102
4, 131525, Note_off_c, 0, 43, 64
4, 131882, Note_on_c, 0, 47, 102
4, 131885, Note_off_c, 0, 48, 64
4, 132002, Note_on_c, 0, 48, 102
4, 132005, Note_off_c, 0, 47, 64
4, 132242, Note_on_c, 0, 36, 102
4, 132245, Note_off_c, 0, 48, 64
4, 132722, Note_on_c, 0, 50, 102
4, 132725, Note_off_c, 0, 36, 64
4, 132962, Note_on_c, 0, 51, 102
4, 132965, Note_off_c, 0, 50, 64
4, 133442, Note_on_c, 0, 55, 102
4, 133445, Note_off_c, 0, 51, 64
4, 133682, Note_on_c, 0, 53, 102
4, 133685, Note_off_c, 0, 55, 64
4, 134162, Note_on_c, 0, 46, 102
4, 134165, Note_off_c, 0, 53, 64
4, 134402, Note_on_c, 0, 51, 102
4, 134405, Note_off_c, 0, 46, 64
4, 134762, Note_on_c, 0, 50, 102
4, 134765, Note_off_c, 0, 51, 64
4, 134882, Note_on_c, 0, 51, 102
4, 134885, Note_off_c, 0, 50, 64
4, 135122, Note_on_c, 0, 39, 102
4, 135125, Note_off_c, 0, 51, 64
4, 135602, Note_on_c, 0, 52, 102
4, 135605, Note_off_c, 0, 39, 64
4, 135842, Note_on_c, 0, 53, 102
4, 135845, Note_off_c, 0, 52, 64
4, 136322, Note_on_c, 0, 56, 102
4, 136325, Note_off_c, 0, 53, 64
4, 136562, Note_on_c, 0, 55, 102
4, 136565, Note_off_c, 0, 56, 64
4, 137042, Note_on_c, 0, 48, 102
4, 137045, Note_off_c, 0, 55, 64
4, 137282, Note_on_c, 0, 53, 102
4, 137285, Note_off_c, 0, 48, 64
4, 137642, Note_on_c, 0, 52, 102
4, 137645, Note_off_c, 0, 53, 64
4, 137762, Note_on_c, 0, 53, 102
4, 137765, Note_off_c, 0, 52, 64
4, 138002, Note_on_c, 0, 41, 102
4, 138005, Note_off_c, 0, 53, 64
4, 138482, Note_on_c, 0, 47, 102
4, 138485, Note_off_c, 0, 41, 64
4, 138722, Note_on_c, 0, 48, 102
4, 138725, Note_off_c, 0, 47, 64
4, 139202, Note_on_c, 0, 46, 102
4, 139205, Note_off_c, 0, 48, 64
4, 139442, Note_on_c, 0, 44, 102
4, 139445, Note_off_c, 0, 46, 64
4, 140162, Note_on_c, 0, 43, 102
4, 140165, Note_off_c, 0, 44, 64
4, 140642, Note_on_c, 0, 45, 102
4, 140645, Note_off_c, 0, 43, 64
4, 140882, Note_on_c, 0, 47, 102
4, 140885, Note_off_c, 0, 45, 64
4, 141122, Note_on_c, 0, 50, 102
4, 141125, Note_off_c, 0, 47, 64
4, 141362, Note_on_c, 0, 43, 102
4, 141365, Note_off_c, 0, 50, 64
4, 141602, Note_on_c, 0, 48, 102
4, 141605, Note_off_c, 0, 43, 64
4, 142082, Note_on_c, 0, 50, 102
4, 142085, Note_off_c, 0, 48, 64
4, 142322, Note_on_c, 0, 51, 102
4, 142325, Note_off_c, 0, 50, 64
4, 142562, Note_on_c, 0, 55, 102
4, 142565, Note_off_c, 0, 51, 64
4, 142802, Note_on_c, 0, 48, 102
4, 142805, Note_off_c, 0, 55, 64
4, 143042, Note_on_c, 0, 50, 102
4, 143045, Note_off_c, 0, 48, 64
4, 143522, Note_on_c, 0, 52, 102
4, 143525, Note_off_c, 0, 50, 64
4, 143762, Note_on_c, 0, 54, 102
4, 143765, Note_off_c, 0, 52, 64
4, 144002, Note_on_c, 0, 57, 102
4, 144005, Note_off_c, 0, 54, 64
4, 144242, Note_on_c, 0, 50, 102
4, 144245, Note_off_c, 0, 57, 64
4, 144482, Note_on_c, 0, 55, 102
4, 144485, Note_off_c, 0, 50, 64
4, 144962, Note_on_c, 0, 51, 102
4, 144965, Note_off_c, 0, 55, 64
4, 145202, Note_on_c, 0, 48, 102
4, 145205, Note_off_c, 0, 51, 64
4, 145682, Note_on_c, 0, 50, 102
4, 145685, Note_off_c, 0, 48, 64
4, 145922, Note_on_c, 0, 51, 102
4, 145925, Note_off_c, 0, 50, 64
4, 146402, Note_on_c, 0, 48, 102
4, 146405, Note_off_c, 0, 51, 64
4, 146642, Note_on_c, 0, 53, 102
4, 146645, Note_off_c, 0, 48, 64
4, 147122, Note_on_c, 0, 38, 102
4, 147125, Note_off_c, 0, 53, 64
4, 147362, Note_on_c, 0, 46, 102
4, 147365, Note_off_c, 0, 38, 64
4, 148565, Note_off_c, 0, 46, 64
4, 148802, Note_on_c, 0, 60, 102
4, 149285, Note_off_c, 0, 60, 64
4, 149522, Note_on_c, 0, 58, 102
4, 150005, Note_off_c, 0, 58, 64
4, 150242, Note_on_c, 0, 56, 102
4, 150725, Note_off_c, 0, 56, 64
4, 150962, Note_on_c, 0, 51, 102
4, 151445, Note_off_c, 0, 51, 64
4, 151682, Note_on_c, 0, 53, 102
4, 152165, Note_off_c, 0, 53, 64
4, 152402, Note_on_c, 0, 55, 102
4, 152885, Note_off_c, 0, 55, 64
4, 153122, Note_on_c, 0, 48, 102
4, 153602, Note_on_c, 0, 46, 102
4, 153605, Note_off_c, 0, 48, 64
4, 153842, Note_on_c, 0, 45, 102
4, 153845, Note_off_c, 0, 46, 64
4, 154082, Note_on_c, 0, 43, 102
4, 154085, Note_off_c, 0, 45, 64
4, 154322, Note_on_c, 0, 42, 102
4, 154325, Note_off_c, 0, 43, 64
4, 154562, Note_on_c, 0, 43, 102
4, 154565, Note_off_c, 0, 42, 64
4, 155045, Note_off_c, 0, 43, 64
4, 155282, Note_on_c, 0, 41, 102
4, 155765, Note_off_c, 0, 41, 64
4, 156002, Note_on_c, 0, 39, 102
4, 156485, Note_off_c, 0, 39, 64
4, 156722, Note_on_c, 0, 46, 102
4, 157205, Note_off_c, 0, 46, 64
4, 157442, Note_on_c, 0, 48, 102
4, 157925, Note_off_c, 0, 48, 64
4, 158162, Note_on_c, 0, 50, 102
4, 158645, Note_off_c, 0, 50, 64
4, 158882, Note_on_c, 0, 43, 102
4, 159122, Note_on_c, 0, 55, 102
4, 159125, Note_off_c, 0, 43, 64
4, 159362, Note_on_c, 0, 53, 102
4, 159365, Note_off_c, 0, 55, 64
4, 159602, Note_on_c, 0, 52, 102
4, 159605, Note_off_c, 0, 53, 64
4, 159842, Note_on_c, 0, 50, 102
4, 159845, Note_off_c, 0, 52, 64
4, 160082, Note_on_c, 0, 48, 102
4, 160085, Note_off_c, 0, 50, 64
4, 160322, Note_on_c, 0, 41, 102
4, 160325, Note_off_c, 0, 48, 64
4, 160562, Note_on_c, 0, 53, 102
4, 160565, Note_off_c, 0, 41, 64
4, 160802, Note_on_c, 0, 51, 102
4, 160805, Note_off_c, 0, 53, 64
4, 161042, Note_on_c, 0, 50, 102
4, 161045, Note_off_c, 0, 51, 64
4, 161282, Note_on_c, 0, 48, 102
4, 161285, Note_off_c, 0, 50, 64
4, 161522, Note_on_c, 0, 46, 102
4, 161525, Note_off_c, 0, 48, 64
4, 161762, Note_on_c, 0, 39, 102
4, 161765, Note_off_c, 0, 46, 64
4, 162002, Note_on_c, 0, 51, 102
4, 162005, Note_off_c, 0, 39, 64
4, 162242, Note_on_c, 0, 50, 102
4, 162245, Note_off_c, 0, 51, 64
4, 162482, Note_on_c, 0, 48, 102
4, 162485, Note_off_c, 0, 50, 64
4, 162722, Note_on_c, 0, 46, 102
4, 162725, Note_off_c, 0, 48, 64
4, 162962, Note_on_c, 0, 44, 102
4, 162965, Note_off_c, 0, 46, 64
4, 163202, Note_on_c, 0, 38, 102
4, 163205, Note_off_c, 0, 44, 64
4, 163442, Note_on_c, 0, 50, 102
4, 163445, Note_off_c, 0, 38, 64
4, 163682, Note_on_c, 0, 48, 102
4, 163685, Note_off_c, 0, 50, 64
4, 163922, Note_on_c, 0, 47, 102
4, 163925, Note_off_c, 0, 48, 64
4, 164162, Note_on_c, 0, 45, 102
4, 164165, Note_off_c, 0, 47, 64
4, 164402, Note_on_c, 0, 43, 102
4, 164405, Note_off_c, 0, 45, 64
4, 164642, Note_on_c, 0, 48, 102
4, 164645, Note_off_c, 0, 43, 64
4, 165122, Note_on_c, 0, 51, 102
4, 165125, Note_off_c, 0, 48, 64
4, 165362, Note_on_c, 0, 50, 102
4, 165365, Note_off_c, 0, 51, 64
4, 165842, Note_on_c, 0, 43, 102
4, 165845, Note_off_c, 0, 50, 64
4, 166082, Note_on_c, 0, 48, 102
4, 166085, Note_off_c, 0, 43, 64
4, 166442, Note_on_c, 0, 47, 102
4, 166445, Note_off_c, 0, 48, 64
4, 166562, Note_on_c, 0, 48, 102
4, 166565, Note_off_c, 0, 47, 64
4, 166802, Note_on_c, 0, 36, 102
4, 166805, Note_off_c, 0, 48, 64
4, 167282, Note_on_c, 0, 50, 102
4, 167285, Note_off_c, 0, 36, 64
4, 167522, Note_on_c, 0, 51, 102
4, 167525, Note_off_c, 0, 50, 64
4, 168002, Note_on_c, 0, 55, 102
4, 168005, Note_off_c, 0, 51, 64
4, 168242, Note_on_c, 0, 53, 102
4, 168245, Note_off_c, 0, 55, 64
4, 168722, Note_on_c, 0, 46, 102
4, 168725, Note_off_c, 0, 53, 64
4, 168962, Note_on_c, 0, 51, 102
4, 168965, Note_off_c, 0, 46, 64
4, 169322, Note_on_c, 0, 50, 102
4, 169325, Note_off_c, 0, 51, 64
4, 169442, Note_on_c, 0, 51, 102
4, 169445, Note_off_c, 0, 50, 64
4, 169682, Note_on_c, 0, 39, 102
4, 169685, Note_off_c, 0, 51, 64
4, 170162, Note_on_c, 0, 52, 102
4, 170165, Note_off_c, 0, 39, 64
4, 170402, Note_on_c, 0, 53, 102
4, 170405, Note_off_c, 0, 52, 64
4, 170882, Note_on_c, 0, 56, 102
4, 170885, Note_off_c, 0, 53, 64
4, 171122, Note_on_c, 0, 55, 102
4, 171125, Note_off_c, 0, 56, 64
4, 171602, Note_on_c, 0, 48, 102
4, 171605, Note_off_c, 0, 55, 64
4, 171842, Note_on_c, 0, 53, 102
4, 171845, Note_off_c, 0, 48, 64
4, 172202, Note_on_c, 0, 52, 102
4, 172205, Note_off_c, 0, 53, 64
4, 172322, Note_on_c, 0, 53, 102
4, 172325, Note_off_c, 0, 52, 64
4, 172562, Note_on_c, 0, 41, 102
4, 172565, Note_off_c, 0, 53, 64
4, 173042, Note_on_c, 0, 47, 102
4, 173045, Note_off_c, 0, 41, 64
4, 173282, Note_on_c, 0, 48, 102
4, 173285, Note_off_c, 0, 47, 64
4, 173762, Note_on_c, 0, 46, 102
4, 173765, Note_off_c, 0, 48, 64
4, 174002, Note_on_c, 0, 44, 102
4, 174005, Note_off_c, 0, 46, 64
4, 174722, Note_on_c, 0, 43, 102
4, 174725, Note_off_c, 0, 44, 64
4, 175202, Note_on_c, 0, 45, 102
4, 175205, Note_off_c, 0, 43, 64
4, 175442, Note_on_c, 0, 47, 102
4, 175445, Note_off_c, 0, 45, 64
4, 175682, Note_on_c, 0, 50, 102
4, 175685, Note_off_c, 0, 47, 64
4, 175922, Note_on_c, 0, 43, 102
4, 175925, Note_off_c, 0, 50, 64
4, 176162, Note_on_c, 0, 48, 102
4, 176165, Note_off_c, 0, 43, 64
4, 176642, Note_on_c, 0, 50, 102
4, 176645, Note_off_c, 0, 48, 64
4, 176882, Note_on_c, 0, 51, 102
4, 176885, Note_off_c, 0, 50, 64
4, 177122, Note_on_c, 0, 55, 102
4, 177125, Note_off_c, 0, 51, 64
4, 177362, Note_on_c, 0, 48, 102
4, 177365, Note_off_c, 0, 55, 64
4, 177602, Note_on_c, 0, 50, 102
4, 177605, Note_off_c, 0, 48, 64
4, 178082, Note_on_c, 0, 52, 102
4, 178085, Note_off_c, 0, 50, 64
4, 178322, Note_on_c, 0, 54, 102
4, 178325, Note_off_c, 0, 52, 64
4, 178562, Note_on_c, 0, 57, 102
4, 178565, Note_off_c, 0, 54, 64
4, 178802, Note_on_c, 0, 50, 102
4, 178805, Note_off_c, 0, 57, 64
4, 179042, Note_on_c, 0, 55, 102
4, 179045, Note_off_c, 0, 50, 64
4, 179522, Note_on_c, 0, 51, 102
4, 179525, Note_off_c, 0, 55, 64
4, 179762, Note_on_c, 0, 48, 102
4, 179765, Note_off_c, 0, 51, 64
4, 180242, Note_on_c, 0, 50, 102
4, 180245, Note_off_c, 0, 48, 64
4, 180482, Note_on_c, 0, 51, 102
4, 180485, Note_off_c, 0, 50, 64
4, 180962, Note_on_c, 0, 48, 102
4, 180965, Note_off_c, 0, 51, 64
4, 181202, Note_on_c, 0, 53, 102
4, 181205, Note_off_c, 0, 48, 64
4, 181682, Note_on_c, 0, 38, 102
4, 181685, Note_off_c, 0, 53, 64
4, 181922, Note_on_c, 0, 46, 102
4, 181925, Note_off_c, 0, 38, 64
4, 183125, Note_off_c, 0, 46, 64
4, 183842, Note_on_c, 0, 48, 102
4, 184082, Note_on_c, 0, 50, 102
4, 184085, Note_off_c, 0, 48, 64
4, 184562, Note_on_c, 0, 43, 102
4, 184565, Note_off_c, 0, 50, 64
4, 184802, Note_on_c, 0, 48, 102
4, 184805, Note_off_c, 0, 43, 64
4, 185762, Note_on_c, 0, 60, 102
4, 185765, Note_off_c, 0, 48, 64
4, 186002, Note_on_c, 0, 58, 102
4, 186005, Note_off_c, 0, 60, 64
4, 186242, Note_on_c, 0, 56, 102
4, 186245, Note_off_c, 0, 58, 64
4, 186722, Note_on_c, 0, 53, 102
4, 186725, Note_off_c, 0, 56, 64
4, 186962, Note_on_c, 0, 55, 102
4, 186965, Note_off_c, 0, 53, 64
4, 187442, Note_on_c, 0, 48, 102
4, 187445, Note_off_c, 0, 55, 64
4, 187682, Note_on_c, 0, 53, 102
4, 187685, Note_off_c, 0, 48, 64
4, 188642, Note_on_c, 0, 51, 102
4, 188645, Note_off_c, 0, 53, 64
4, 188882, Note_on_c, 0, 56, 102
4, 188885, Note_off_c, 0, 51, 64
4, 189122, Note_on_c, 0, 49, 102
4, 189125, Note_off_c, 0, 56, 64
4, 189362, Note_on_c, 0, 53, 102
4, 189365, Note_off_c, 0, 49, 64
4, 189602, Note_on_c, 0, 51, 102
4, 189605, Note_off_c, 0, 53, 64
4, 189842, Note_on_c, 0, 50, 102
4, 189845, Note_off_c, 0, 51, 64
4, 190082, Note_on_c, 0, 48, 102
4, 190085, Note_off_c, 0, 50, 64
4, 190322, Note_on_c, 0, 46, 102
4, 190325, Note_off_c, 0, 48, 64
4, 190562, Note_on_c, 0, 51, 102
4, 190565, Note_off_c, 0, 46, 64
4, 190802, Note_on_c, 0, 55, 102
4, 190805, Note_off_c, 0, 51, 64
4, 191042, Note_on_c, 0, 53, 102
4, 191045, Note_off_c, 0, 55, 64
4, 191282, Note_on_c, 0, 52, 102
4, 191285, Note_off_c, 0, 53, 64
4, 191522, Note_on_c, 0, 50, 102
4, 191525, Note_off_c, 0, 52, 64
4, 191762, Note_on_c, 0, 48, 102
4, 191765, Note_off_c, 0, 50, 64
4, 192002, Note_on_c, 0, 53, 102
4, 192005, Note_off_c, 0, 48, 64
4, 192482, Note_on_c, 0, 50, 102
4, 192485, Note_off_c, 0, 53, 64
4, 192722, Note_on_c, 0, 51, 102
4, 192725, Note_off_c, 0, 50, 64
4, 193202, Note_on_c, 0, 56, 102
4, 193205, Note_off_c, 0, 51, 64
4, 193442, Note_on_c, 0, 49, 102
4, 193445, Note_off_c, 0, 56, 64
4, 193802, Note_on_c, 0, 51, 102
4, 193805, Note_off_c, 0, 49, 64
4, 193922, Note_on_c, 0, 49, 102
4, 193925, Note_off_c, 0, 51, 64
4, 194162, Note_on_c, 0, 61, 102
4, 194165, Note_off_c, 0, 49, 64
4, 194642, Note_on_c, 0, 55, 102
4, 194645, Note_off_c, 0, 61, 64
4, 194882, Note_on_c, 0, 60, 102
4, 194885, Note_off_c, 0, 55, 64
4, 195362, Note_on_c, 0, 58, 102
4, 195365, Note_off_c, 0, 60, 64
4, 195602, Note_on_c, 0, 56, 102
4, 195605, Note_off_c, 0, 58, 64
4, 196082, Note_on_c, 0, 55, 102
4, 196085, Note_off_c, 0, 56, 64
4, 196322, Note_on_c, 0, 53, 102
4, 196325, Note_off_c, 0, 55, 64
4, 196802, Note_on_c, 0, 56, 102
4, 196805, Note_off_c, 0, 53, 64
4, 197042, Note_on_c, 0, 55, 102
4, 197045, Note_off_c, 0, 56, 64
4, 197522, Note_on_c, 0, 48, 102
4, 197525, Note_off_c, 0, 55, 64
4, 197762, Note_on_c, 0, 53, 102
4, 197765, Note_off_c, 0, 48, 64
4, 198122, Note_on_c, 0, 52, 102
4, 198125, Note_off_c, 0, 53, 64
4, 198242, Note_on_c, 0, 53, 102
4, 198245, Note_off_c, 0, 52, 64
4, 198482, Note_on_c, 0, 41, 102
4, 198485, Note_off_c, 0, 53, 64
4, 198962, Note_on_c, 0, 55, 102
4, 198965, Note_off_c, 0, 41, 64
4, 199202, Note_on_c, 0, 56, 102
4, 199205, Note_off_c, 0, 55, 64
4, 199682, Note_on_c, 0, 60, 102
4, 199685, Note_off_c, 0, 56, 64
4, 199922, Note_on_c, 0, 58, 102
4, 199925, Note_off_c, 0, 60, 64
4, 200402, Note_on_c, 0, 51, 102
4, 200405, Note_off_c, 0, 58, 64
4, 200642, Note_on_c, 0, 56, 102
4, 200645, Note_off_c, 0, 51, 64
4, 201002, Note_on_c, 0, 55, 102
4, 201005, Note_off_c, 0, 56, 64
4, 201122, Note_on_c, 0, 56, 102
4, 201125, Note_off_c, 0, 55, 64
4, 201362, Note_on_c, 0, 44, 102
4, 201365, Note_off_c, 0, 56, 64
4, 201842, Note_on_c, 0, 57, 102
4, 201845, Note_off_c, 0, 44, 64
4, 202082, Note_on_c, 0, 58, 102
4, 202085, Note_off_c, 0, 57, 64
4, 202562, Note_on_c, 0, 61, 102
4, 202565, Note_off_c, 0, 58, 64
4, 202802, Note_on_c, 0, 60, 102
4, 202805, Note_off_c, 0, 61, 64
4, 203282, Note_on_c, 0, 53, 102
4, 203285, Note_off_c, 0, 60, 64
4, 203522, Note_on_c, 0, 58, 102
4, 203525, Note_off_c, 0, 53, 64
4, 203882, Note_on_c, 0, 57, 102
4, 203885, Note_off_c, 0, 58, 64
4, 204002, Note_on_c, 0, 58, 102
4, 204005, Note_off_c, 0, 57, 64
4, 204242, Note_on_c, 0, 46, 102
4, 204245, Note_off_c, 0, 58, 64
4, 204722, Note_on_c, 0, 52, 102
4, 204725, Note_off_c, 0, 46, 64
4, 204962, Note_on_c, 0, 53, 102
4, 204965, Note_off_c, 0, 52, 64
4, 205442, Note_on_c, 0, 51, 102
4, 205445, Note_off_c, 0, 53, 64
4, 205682, Note_on_c, 0, 49, 102
4, 205685, Note_off_c, 0, 51, 64
4, 206402, Note_on_c, 0, 48, 102
4, 206405, Note_off_c, 0, 49, 64
4, 206882, Note_on_c, 0, 50, 102
4, 206885, Note_off_c, 0, 48, 64
4, 207122, Note_on_c, 0, 52, 102
4, 207125, Note_off_c, 0, 50, 64
4, 207362, Note_on_c, 0, 55, 102
4, 207365, Note_off_c, 0, 52, 64
4, 207602, Note_on_c, 0, 52, 102
4, 207605, Note_off_c, 0, 55, 64
4, 207842, Note_on_c, 0, 53, 102
4, 207845, Note_off_c, 0, 52, 64
4, 208322, Note_on_c, 0, 41, 102
4, 208325, Note_off_c, 0, 53, 64
4, 208562, Note_on_c, 0, 39, 102
4, 208565, Note_off_c, 0, 41, 64
4, 209042, Note_on_c, 0, 51, 102
4, 209045, Note_off_c, 0, 39, 64
4, 209282, Note_on_c, 0, 50, 102
4, 209285, Note_off_c, 0, 51, 64
4, 209762, Note_on_c, 0, 48, 102
4, 209765, Note_off_c, 0, 50, 64
4, 210002, Note_on_c, 0, 47, 102
4, 210005, Note_off_c, 0, 48, 64
4, 210242, Note_on_c, 0, 43, 102
4, 210245, Note_off_c, 0, 47, 64
4, 210482, Note_on_c, 0, 47, 102
4, 210485, Note_off_c, 0, 43, 64
4, 210722, Note_on_c, 0, 48, 102
4, 210725, Note_off_c, 0, 47, 64
4, 211202, Note_on_c, 0, 60, 102
4, 211205, Note_off_c, 0, 48, 64
4, 211442, Note_on_c, 0, 58, 102
4, 211445, Note_off_c, 0, 60, 64
4, 211922, Note_on_c, 0, 46, 102
4, 211925, Note_off_c, 0, 58, 64
4, 212162, Note_on_c, 0, 44, 102
4, 212165, Note_off_c, 0, 46, 64
4, 212642, Note_on_c, 0, 43, 102
4, 212645, Note_off_c, 0, 44, 64
4, 212882, Note_on_c, 0, 42, 102
4, 212885, Note_off_c, 0, 43, 64
4, 213122, Note_on_c, 0, 38, 102
4, 213125, Note_off_c, 0, 42, 64
4, 213362, Note_on_c, 0, 42, 102
4, 213365, Note_off_c, 0, 38, 64
4, 213602, Note_on_c, 0, 43, 102
4, 213605, Note_off_c, 0, 42, 64
4, 213842, Note_on_c, 0, 55, 102
4, 213845, Note_off_c, 0, 43, 64
4, 214082, Note_on_c, 0, 53, 102
4, 214085, Note_off_c, 0, 55, 64
4, 214322, Note_on_c, 0, 52, 102
4, 214325, Note_off_c, 0, 53, 64
4, 214562, Note_on_c, 0, 50, 102
4, 214565, Note_off_c, 0, 52, 64
4, 214802, Note_on_c, 0, 48, 102
4, 214805, Note_off_c, 0, 50, 64
4, 215042, Note_on_c, 0, 41, 102
4, 215045, Note_off_c, 0, 48, 64
4, 215282, Note_on_c, 0, 53, 102
4, 215285, Note_off_c, 0, 41, 64
4, 215522, Note_on_c, 0, 51, 102
4, 215525, Note_off_c, 0, 53, 64
4, 215762, Note_on_c, 0, 50, 102
4, 215765, Note_off_c, 0, 51, 64
4, 216002, Note_on_c, 0, 48, 102
4, 216005, Note_off_c, 0, 50, 64
4, 216242, Note_on_c, 0, 46, 102
4, 216245, Note_off_c, 0, 48, 64
4, 216482, Note_on_c, 0, 39, 102
4, 216485, Note_off_c, 0, 46, 64
4, 216722, Note_on_c, 0, 51, 102
4, 216725, Note_off_c, 0, 39, 64
4, 216962, Note_on_c, 0, 50, 102
4, 216965, Note_off_c, 0, 51, 64
4, 217202, Note_on_c, 0, 48, 102
4, 217205, Note_off_c, 0, 50, 64
4, 217442, Note_on_c, 0, 46, 102
4, 217445, Note_off_c, 0, 48, 64
4, 217682, Note_on_c, 0, 44, 102
4, 217685, Note_off_c, 0, 46, 64
4, 217922, Note_on_c, 0, 38, 102
4, 217925, Note_off_c, 0, 44, 64
4, 218162, Note_on_c, 0, 50, 102
4, 218165, Note_off_c, 0, 38, 64
4, 218402, Note_on_c, 0, 48, 102
4, 218405, Note_off_c, 0, 50, 64
4, 218642, Note_on_c, 0, 47, 102
4, 218645, Note_off_c, 0, 48, 64
4, 218882, Note_on_c, 0, 45, 102
4, 218885, Note_off_c, 0, 47, 64
4, 219122, Note_on_c, 0, 43, 102
4, 219125, Note_off_c, 0, 45, 64
4, 219362, Note_on_c, 0, 48, 102
4, 219365, Note_off_c, 0, 43, 64
4, 219842, Note_on_c, 0, 51, 102
4, 219845, Note_off_c, 0, 48, 64
4, 220082, Note_on_c, 0, 50, 102
4, 220085, Note_off_c, 0, 51, 64
4, 220562, Note_on_c, 0, 43, 102
4, 220565, Note_off_c, 0, 50, 64
4, 220802, Note_on_c, 0, 48, 102
4, 220805, Note_off_c, 0, 43, 64
4, 221162, Note_on_c, 0, 47, 102
4, 221165, Note_off_c, 0, 48, 64
4, 221282, Note_on_c, 0, 48, 102
4, 221285, Note_off_c, 0, 47, 64
4, 221522, Note_on_c, 0, 36, 102
4, 221525, Note_off_c, 0, 48, 64
4, 222002, Note_on_c, 0, 48, 102
4, 222005, Note_off_c, 0, 36, 64
4, 222242, Note_on_c, 0, 50, 102
4, 222245, Note_off_c, 0, 48, 64
4, 222722, Note_on_c, 0, 52, 102
4, 222725, Note_off_c, 0, 50, 64
4, 222962, Note_on_c, 0, 54, 102
4, 222965, Note_off_c, 0, 52, 64
4, 223202, Note_on_c, 0, 57, 102
4, 223205, Note_off_c, 0, 54, 64
4, 223442, Note_on_c, 0, 50, 102
4, 223445, Note_off_c, 0, 57, 64
4, 223682, Note_on_c, 0, 55, 102
4, 223685, Note_off_c, 0, 50, 64
4, 224162, Note_on_c, 0, 57, 102
4, 224165, Note_off_c, 0, 55, 64
4, 224402, Note_on_c, 0, 59, 102
4, 224405, Note_off_c, 0, 57, 64
4, 224642, Note_on_c, 0, 62, 102
4, 224645, Note_off_c, 0, 59, 64
4, 224882, Note_on_c, 0, 55, 102
4, 224885, Note_off_c, 0, 62, 64
4, 225122, Note_on_c, 0, 60, 102
4, 225125, Note_off_c, 0, 55, 64
4, 225602, Note_on_c, 0, 56, 102
4, 225605, Note_off_c, 0, 60, 64
4, 225842, Note_on_c, 0, 53, 102
4, 225845, Note_off_c, 0, 56, 64
4, 226322, Note_on_c, 0, 55, 102
4, 226325, Note_off_c, 0, 53, 64
4, 226562, Note_on_c, 0, 56, 102
4, 226565, Note_off_c, 0, 55, 64
4, 227042, Note_on_c, 0, 53, 102
4, 227045, Note_off_c, 0, 56, 64
4, 227282, Note_on_c, 0, 55, 102
4, 227285, Note_off_c, 0, 53, 64
4, 227762, Note_on_c, 0, 43, 102
4, 227765, Note_off_c, 0, 55, 64
4, 228002, Note_on_c, 0, 48, 102
4, 228005, Note_off_c, 0, 43, 64
4, 229205, Note_off_c, 0, 48, 64
4, 229922, Note_on_c, 0, 48, 102
4, 230162, Note_on_c, 0, 50, 102
4, 230165, Note_off_c, 0, 48, 64
4, 230642, Note_on_c, 0, 43, 102
4, 230645, Note_off_c, 0, 50, 64
4, 230882, Note_on_c, 0, 48, 102
4, 230885, Note_off_c, 0, 43, 64
4, 231842, Note_on_c, 0, 60, 102
4, 231845, Note_off_c, 0, 48, 64
4, 232082, Note_on_c, 0, 58, 102
4, 232085, Note_off_c, 0, 60, 64
4, 232322, Note_on_c, 0, 56, 102
4, 232325, Note_off_c, 0, 58, 64
4, 232802, Note_on_c, 0, 53, 102
4, 232805, Note_off_c, 0, 56, 64
4, 233042, Note_on_c, 0, 55, 102
4, 233045, Note_off_c, 0, 53, 64
4, 233522, Note_on_c, 0, 48, 102
4, 233525, Note_off_c, 0, 55, 64
4, 233762, Note_on_c, 0, 53, 102
4, 233765, Note_off_c, 0, 48, 64
4, 234722, Note_on_c, 0, 51, 102
4, 234725, Note_off_c, 0, 53, 64
4, 234962, Note_on_c, 0, 56, 102
4, 234965, Note_off_c, 0, 51, 64
4, 235202, Note_on_c, 0, 49, 102
4, 235205, Note_off_c, 0, 56, 64
4, 235442, Note_on_c, 0, 53, 102
4, 235445, Note_off_c, 0, 49, 64
4, 235682, Note_on_c, 0, 51, 102
4, 235685, Note_off_c, 0, 53, 64
4, 235922, Note_on_c, 0, 50, 102
4, 235925, Note_off_c, 0, 51, 64
4, 236162, Note_on_c, 0, 48, 102
4, 236165, Note_off_c, 0, 50, 64
4, 236402, Note_on_c, 0, 46, 102
4, 236405, Note_off_c, 0, 48, 64
4, 236642, Note_on_c, 0, 51, 102
4, 236645, Note_off_c, 0, 46, 64
4, 236882, Note_on_c, 0, 55, 102
4, 236885, Note_off_c, 0, 51, 64
4, 237122, Note_on_c, 0, 53, 102
4, 237125, Note_off_c, 0, 55, 64
4, 237362, Note_on_c, 0, 52, 102
4, 237365, Note_off_c, 0, 53, 64
4, 237602, Note_on_c, 0, 50, 102
4, 237605, Note_off_c, 0, 52, 64
4, 237842, Note_on_c, 0, 48, 102
4, 237845, Note_off_c, 0, 50, 64
4, 238082, Note_on_c, 0, 53, 102
4, 238085, Note_off_c, 0, 48, 64
4, 238562, Note_on_c, 0, 50, 102
4, 238565, Note_off_c, 0, 53, 64
4, 238802, Note_on_c, 0, 51, 102
4, 238805, Note_off_c, 0, 50, 64
4, 239282, Note_on_c, 0, 56, 102
4, 239285, Note_off_c, 0, 51, 64
4, 239522, Note_on_c, 0, 49, 102
4, 239525, Note_off_c, 0, 56, 64
4, 239882, Note_on_c, 0, 51, 102
4, 239885, Note_off_c, 0, 49, 64
4, 240002, Note_on_c, 0, 49, 102
4, 240005, Note_off_c, 0, 51, 64
4, 240242, Note_on_c, 0, 61, 102
4, 240245, Note_off_c, 0, 49, 64
4, 240722, Note_on_c, 0, 55, 102
4, 240725, Note_off_c, 0, 61, 64
4, 240962, Note_on_c, 0, 60, 102
4, 240965, Note_off_c, 0, 55, 64
4, 241442, Note_on_c, 0, 58, 102
4, 241445, Note_off_c, 0, 60, 64
4, 241682, Note_on_c, 0, 56, 102
4, 241685, Note_off_c, 0, 58, 64
4, 242162, Note_on_c, 0, 55, 102
4, 242165, Note_off_c, 0, 56, 64
4, 242402, Note_on_c, 0, 53, 102
4, 242405, Note_off_c, 0, 55, 64
4, 242882, Note_on_c, 0, 56, 102
4, 242885, Note_off_c, 0, 53, 64
4, 243122, Note_on_c, 0, 55, 102
4, 243125, Note_off_c, 0, 56, 64
4, 243602, Note_on_c, 0, 48, 102
4, 243605, Note_off_c, 0, 55, 64
4, 243842, Note_on_c, 0, 53, 102
4, 243845, Note_off_c, 0, 48, 64
4, 244202, Note_on_c, 0, 52, 102
4, 244205, Note_off_c, 0, 53, 64
4, 244322, Note_on_c, 0, 53, 102
4, 244325, Note_off_c, 0, 52, 64
4, 244562, Note_on_c, 0, 41, 102
4, 244565, Note_off_c, 0, 53, 64
4, 245042, Note_on_c, 0, 55, 102
4, 245045, Note_off_c, 0, 41, 64
4, 245282, Note_on_c, 0, 56, 102
4, 245285, Note_off_c, 0, 55, 64
4, 245762, Note_on_c, 0, 60, 102
4, 245765, Note_off_c, 0, 56, 64
4, 246002, Note_on_c, 0, 58, 102
4, 246005, Note_off_c, 0, 60, 64
4, 246482, Note_on_c, 0, 51, 102
4, 246485, Note_off_c, 0, 58, 64
4, 246722, Note_on_c, 0, 56, 102
4, 246725, Note_off_c, 0, 51, 64
4, 247082, Note_on_c, 0, 55, 102
4, 247085, Note_off_c, 0, 56, 64
4, 247202, Note_on_c, 0, 56, 102
4, 247205, Note_off_c, 0, 55, 64
4, 247442, Note_on_c, 0, 44, 102
4, 247445, Note_off_c, 0, 56, 64
4, 247922, Note_on_c, 0, 57, 102
4, 247925, Note_off_c, 0, 44, 64
4, 248162, Note_on_c, 0, 58, 102
4, 248165, Note_off_c, 0, 57, 64
4, 248642, Note_on_c, 0, 61, 102
4, 248645, Note_off_c, 0, 58, 64
4, 248882, Note_on_c, 0, 60, 102
4, 248885, Note_off_c, 0, 61, 64
4, 249362, Note_on_c, 0, 53, 102
4, 249365, Note_off_c, 0, 60, 64
4, 249602, Note_on_c, 0, 58, 102
4, 249605, Note_off_c, 0, 53, 64
4, 249962, Note_on_c, 0, 57, 102
4, 249965, Note_off_c, 0, 58, 64
4, 250082, Note_on_c, 0, 58, 102
4, 250085, Note_off_c, 0, 57, 64
4, 250322, Note_on_c, 0, 46, 102
4, 250325, Note_off_c, 0, 58, 64
4, 250802, Note_on_c, 0, 52, 102
4, 250805, Note_off_c, 0, 46, 64
4, 251042, Note_on_c, 0, 53, 102
4, 251045, Note_off_c, 0, 52, 64
4, 251522, Note_on_c, 0, 51, 102
4, 251525, Note_off_c, 0, 53, 64
4, 251762, Note_on_c, 0, 49, 102
4, 251765, Note_off_c, 0, 51, 64
4, 252482, Note_on_c, 0, 48, 102
4, 252485, Note_off_c, 0, 49, 64
4, 252962, Note_on_c, 0, 50, 102
4, 252965, Note_off_c, 0, 48, 64
4, 253202, Note_on_c, 0, 52, 102
4, 253205, Note_off_c, 0, 50, 64
4, 253442, Note_on_c, 0, 55, 102
4, 253445, Note_off_c, 0, 52, 64
4, 253682, Note_on_c, 0, 52, 102
4, 253685, Note_off_c, 0, 55, 64
4, 253922, Note_on_c, 0, 53, 102
4, 253925, Note_off_c, 0, 52, 64
4, 254402, Note_on_c, 0, 41, 102
4, 254405, Note_off_c, 0, 53, 64
4, 254642, Note_on_c, 0, 39, 102
4, 254645, Note_off_c, 0, 41, 64
4, 255122, Note_on_c, 0, 51, 102
4, 255125, Note_off_c, 0, 39, 64
4, 255362, Note_on_c, 0, 50, 102
4, 255365, Note_off_c, 0, 51, 64
4, 255842, Note_on_c, 0, 48, 102
4, 255845, Note_off_c, 0, 50, 64
4, 256082, Note_on_c, 0, 47, 102
4, 256085, Note_off_c, 0, 48, 64
4, 256322, Note_on_c, 0, 43, 102
4, 256325, Note_off_c, 0, 47, 64
4, 256562, Note_on_c, 0, 47, 102
4, 256565, Note_off_c, 0, 43, 64
4, 256802, Note_on_c, 0, 48, 102
4, 256805, Note_off_c, 0, 47, 64
4, 257282, Note_on_c, 0, 60, 102
4, 257285, Note_off_c, 0, 48, 64
4, 257522, Note_on_c, 0, 58, 102
4, 257525, Note_off_c, 0, 60, 64
4, 258002, Note_on_c, 0, 46, 102
4, 258005, Note_off_c, 0, 58, 64
4, 258242, Note_on_c, 0, 44, 102
4, 258245, Note_off_c, 0, 46, 64
4, 258722, Note_on_c, 0, 43, 102
4, 258725, Note_off_c, 0, 44, 64
4, 258962, Note_on_c, 0, 42, 102
4, 258965, Note_off_c, 0, 43, 64
4, 259202, Note_on_c, 0, 38, 102
4, 259205, Note_off_c, 0, 42, 64
4, 259442, Note_on_c, 0, 42, 102
4, 259445, Note_off_c, 0, 38, 64
4, 259682, Note_on_c, 0, 43, 102
4, 259685, Note_off_c, 0, 42, 64
4, 259922, Note_on_c, 0, 55, 102
4, 259925, Note_off_c, 0, 43, 64
4, 260162, Note_on_c, 0, 53, 102
4, 260165, Note_off_c, 0, 55, 64
4, 260402, Note_on_c, 0, 52, 102
4, 260405, Note_off_c, 0, 53, 64
4, 260642, Note_on_c, 0, 50, 102
4, 260645, Note_off_c, 0, 52, 64
4, 260882, Note_on_c, 0, 48, 102
4, 260885, Note_off_c, 0, 50, 64
4, 261122, Note_on_c, 0, 41, 102
4, 261125, Note_off_c, 0, 48, 64
4, 261362, Note_on_c, 0, 53, 102
4, 261365, Note_off_c, 0, 41, 64
4, 261602, Note_on_c, 0, 51, 102
4, 261605, Note_off_c, 0, 53, 64
4, 261842, Note_on_c, 0, 50, 102
4, 261845, Note_off_c, 0, 51, 64
4, 262082, Note_on_c, 0, 48, 102
4, 262085, Note_off_c, 0, 50, 64
4, 262322, Note_on_c, 0, 46, 102
4, 262325, Note_off_c, 0, 48, 64
4, 262562, Note_on_c, 0, 39, 102
4, 262565, Note_off_c, 0, 46, 64
4, 262802, Note_on_c, 0, 51, 102
4, 262805, Note_off_c, 0, 39, 64
4, 263042, Note_on_c, 0, 50, 102
4, 263045, Note_off_c, 0, 51, 64
4, 263282, Note_on_c, 0, 48, 102
4, 263285, Note_off_c, 0, 50, 64
4, 263522, Note_on_c, 0, 46, 102
4, 263525, Note_off_c, 0, 48, 64
4, 263762, Note_on_c, 0, 44, 102
4, 263765, Note_off_c, 0, 46, 64
4, 264002, Note_on_c, 0, 38, 102
4, 264005, Note_off_c, 0, 44, 64
4, 264242, Note_on_c, 0, 50, 102
4, 264245, Note_off_c, 0, 38, 64
4, 264482, Note_on_c, 0, 48, 102
4, 264485, Note_off_c, 0, 50, 64
4, 264722, Note_on_c, 0, 47, 102
4, 264725, Note_off_c, 0, 48, 64
4, 264962, Note_on_c, 0, 45, 102
4, 264965, Note_off_c, 0, 47, 64
4, 265202, Note_on_c, 0, 43, 102
4, 265205, Note_off_c, 0, 45, 64
4, 265442, Note_on_c, 0, 48, 102
4, 265445, Note_off_c, 0, 43, 64
4, 265922, Note_on_c, 0, 51, 102
4, 265925, Note_off_c, 0, 48, 64
4, 266162, Note_on_c, 0, 50, 102
4, 266165, Note_off_c, 0, 51, 64
4, 266642, Note_on_c, 0, 43, 102
4, 266645, Note_off_c, 0, 50, 64
4, 266882, Note_on_c, 0, 48, 102
4, 266885, Note_off_c, 0, 43, 64
4, 267242, Note_on_c, 0, 47, 102
4, 267245, Note_off_c, 0, 48, 64
4, 267362, Note_on_c, 0, 48, 102
4, 267365, Note_off_c, 0, 47, 64
4, 267602, Note_on_c, 0, 36, 102
4, 267605, Note_off_c, 0, 48, 64
4, 268082, Note_on_c, 0, 48, 102
4, 268085, Note_off_c, 0, 36, 64
4, 268322, Note_on_c, 0, 50, 102
4, 268325, Note_off_c, 0, 48, 64
4, 268802, Note_on_c, 0, 52, 102
4, 268805, Note_off_c, 0, 50, 64
4, 269042, Note_on_c, 0, 54, 102
4, 269045, Note_off_c, 0, 52, 64
4, 269282, Note_on_c, 0, 57, 102
4, 269285, Note_off_c, 0, 54, 64
4, 269522, Note_on_c, 0, 50, 102
4, 269525, Note_off_c, 0, 57, 64
4, 269762, Note_on_c, 0, 55, 102
4, 269765, Note_off_c, 0, 50, 64
4, 270242, Note_on_c, 0, 57, 102
4, 270245, Note_off_c, 0, 55, 64
4, 270482, Note_on_c, 0, 59, 102
4, 270485, Note_off_c, 0, 57, 64
4, 270722, Note_on_c, 0, 62, 102
4, 270725, Note_off_c, 0, 59, 64
4, 270962, Note_on_c, 0, 55, 102
4, 270965, Note_off_c, 0, 62, 64
4, 271202, Note_on_c, 0, 60, 102
4, 271205, Note_off_c, 0, 55, 64
4, 271682, Note_on_c, 0, 56, 102
4, 271685, Note_off_c, 0, 60, 64
4, 271922, Note_on_c, 0, 53, 102
4, 271925, Note_off_c, 0, 56, 64
4, 272402, Note_on_c, 0, 55, 102
4, 272405, Note_off_c, 0, 53, 64
4, 272642, Note_on_c, 0, 56, 102
4, 272645, Note_off_c, 0, 55, 64
4, 273122, Note_on_c, 0, 53, 102
4, 273125, Note_off_c, 0, 56, 64
4, 273362, Note_on_c, 0, 55, 102
4, 273365, Note_off_c, 0, 53, 64
4, 273842, Note_on_c, 0, 43, 102
4, 273845, Note_off_c, 0, 55, 64
4, 274082, Note_on_c, 0, 48, 102
4, 274085, Note_off_c, 0, 43, 64
4, 275285, Note_off_c, 0, 48, 64
4, 278402, Note_on_c, 0, 51, 102
4, 279365, Note_off_c, 0, 51, 64
4, 279842, Note_on_c, 0, 48, 102
4, 280805, Note_off_c, 0, 48, 64
4, 281282, Note_on_c, 0, 43, 102
4, 282002, Note_on_c, 0, 44, 102
4, 282005, Note_off_c, 0, 43, 64
4, 282242, Note_on_c, 0, 46, 102
4, 282245, Note_off_c, 0, 44, 64
4, 282722, Note_on_c, 0, 39, 102
4, 282725, Note_off_c, 0, 46, 64
4, 283202, Note_on_c, 0, 43, 102
4, 283205, Note_off_c, 0, 39, 64
4, 283682, Note_on_c, 0, 45, 102
4, 283685, Note_off_c, 0, 43, 64
4, 284162, Note_on_c, 0, 46, 102
4, 284165, Note_off_c, 0, 45, 64
4, 285125, Note_off_c, 0, 46, 64
4, 285602, Note_on_c, 0, 46, 102
4, 286565, Note_off_c, 0, 46, 64
4, 287042, Note_on_c, 0, 46, 102
4, 287522, Note_on_c, 0, 50, 102
4, 287525, Note_off_c, 0, 46, 64
4, 288002, Note_on_c, 0, 53, 102
4, 288005, Note_off_c, 0, 50, 64
4, 288482, Note_on_c, 0, 58, 102
4, 288485, Note_off_c, 0, 53, 64
4, 289445, Note_off_c, 0, 58, 64
4, 289922, Note_on_c, 0, 39, 102
4, 290162, Note_on_c, 0, 51, 102
4, 290165, Note_off_c, 0, 39, 64
4, 290402, Note_on_c, 0, 41, 102
4, 290405, Note_off_c, 0, 51, 64
4, 290642, Note_on_c, 0, 51, 102
4, 290645, Note_off_c, 0, 41, 64
4, 290882, Note_on_c, 0, 43, 102
4, 290885, Note_off_c, 0, 51, 64
4, 291122, Note_on_c, 0, 51, 102
4, 291125, Note_off_c, 0, 43, 64
4, 291362, Note_on_c, 0, 44, 102
4, 291365, Note_off_c, 0, 51, 64
4, 291602, Note_on_c, 0, 51, 102
4, 291605, Note_off_c, 0, 44, 64
4, 291842, Note_on_c, 0, 46, 102
4, 291845, Note_off_c, 0, 51, 64
4, 292082, Note_on_c, 0, 51, 102
4, 292085, Note_off_c, 0, 46, 64
4, 292322, Note_on_c, 0, 48, 102
4, 292325, Note_off_c, 0, 51, 64
4, 292562, Note_on_c, 0, 51, 102
4, 292565, Note_off_c, 0, 48, 64
4, 292802, Note_on_c, 0, 46, 102
4, 292805, Note_off_c, 0, 51, 64
4, 293045, Note_off_c, 0, 46, 64
4, 293282, Note_on_c, 0, 48, 102
4, 293525, Note_off_c, 0, 48, 64
4, 293762, Note_on_c, 0, 50, 102
4, 294005, Note_off_c, 0, 50, 64
4, 294242, Note_on_c, 0, 51, 102
4, 295202, Note_on_c, 0, 50, 102
4, 295205, Note_off_c, 0, 51, 64
4, 295682, Note_on_c, 0, 51, 102
4, 295685, Note_off_c, 0, 50, 64
4, 296162, Note_on_c, 0, 56, 102
4, 296165, Note_off_c, 0, 51, 64
4, 296645, Note_off_c, 0, 56, 64
4, 297122, Note_on_c, 0, 47, 102
4, 297602, Note_on_c, 0, 48, 102
4, 297605, Note_off_c, 0, 47, 64
4, 298082, Note_on_c, 0, 50, 102
4, 298085, Note_off_c, 0, 48, 64
4, 298562, Note_on_c, 0, 39, 102
4, 298565, Note_off_c, 0, 50, 64
4, 299042, Note_on_c, 0, 44, 102
4, 299045, Note_off_c, 0, 39, 64
4, 300002, Note_on_c, 0, 43, 102
4, 300005, Note_off_c, 0, 44, 64
4, 300485, Note_off_c, 0, 43, 64
4, 300602, Note_on_c, 0, 55, 102
4, 300722, Note_on_c, 0, 53, 102
4, 300725, Note_off_c, 0, 55, 64
4, 300842, Note_on_c, 0, 55, 102
4, 300845, Note_off_c, 0, 53, 64
4, 300962, Note_on_c, 0, 51, 102
4, 300965, Note_off_c, 0, 55, 64
4, 301082, Note_on_c, 0, 53, 102
4, 301085, Note_off_c, 0, 51, 64
4, 301202, Note_on_c, 0, 50, 102
4, 301205, Note_off_c, 0, 53, 64
4, 301322, Note_on_c, 0, 51, 102
4, 301325, Note_off_c, 0, 50, 64
4, 301442, Note_on_c, 0, 48, 102
4, 301445, Note_off_c, 0, 51, 64
4, 301682, Note_on_c, 0, 51, 102
4, 301685, Note_off_c, 0, 48, 64
4, 301922, Note_on_c, 0, 48, 102
4, 301925, Note_off_c, 0, 51, 64
4, 302162, Note_on_c, 0, 51, 102
4, 302165, Note_off_c, 0, 48, 64
4, 302402, Note_on_c, 0, 48, 102
4, 302405, Note_off_c, 0, 51, 64
4, 302642, Note_on_c, 0, 51, 102
4, 302645, Note_off_c, 0, 48, 64
4, 302882, Note_on_c, 0, 41, 102
4, 302885, Note_off_c, 0, 51, 64
4, 303122, Note_on_c, 0, 56, 102
4, 303125, Note_off_c, 0, 41, 64
4, 303362, Note_on_c, 0, 41, 102
4, 303365, Note_off_c, 0, 56, 64
4, 303602, Note_on_c, 0, 56, 102
4, 303605, Note_off_c, 0, 41, 64
4, 303842, Note_on_c, 0, 41, 102
4, 303845, Note_off_c, 0, 56, 64
4, 304082, Note_on_c, 0, 56, 102
4, 304085, Note_off_c, 0, 41, 64
4, 304322, Note_on_c, 0, 46, 102
4, 304325, Note_off_c, 0, 56, 64
4, 304562, Note_on_c, 0, 50, 102
4, 304565, Note_off_c, 0, 46, 64
4, 304802, Note_on_c, 0, 46, 102
4, 304805, Note_off_c, 0, 50, 64
4, 305042, Note_on_c, 0, 50, 102
4, 305045, Note_off_c, 0, 46, 64
4, 305282, Note_on_c, 0, 46, 102
4, 305285, Note_off_c, 0, 50, 64
4, 305522, Note_on_c, 0, 50, 102
4, 305525, Note_off_c, 0, 46, 64
4, 305762, Note_on_c, 0, 39, 102
4, 305765, Note_off_c, 0, 50, 64
4, 306002, Note_on_c, 0, 55, 102
4, 306005, Note_off_c, 0, 39, 64
4, 306242, Note_on_c, 0, 39, 102
4, 306245, Note_off_c, 0, 55, 64
4, 306482, Note_on_c, 0, 55, 102
4, 306485, Note_off_c, 0, 39, 64
4, 306722, Note_on_c, 0, 39, 102
4, 306725, Note_off_c, 0, 55, 64
4, 306962, Note_on_c, 0, 55, 102
4, 306965, Note_off_c, 0, 39, 64
4, 307202, Note_on_c, 0, 44, 102
4, 307205, Note_off_c, 0, 55, 64
4, 307442, Note_on_c, 0, 48, 102
4, 307445, Note_off_c, 0, 44, 64
4, 307682, Note_on_c, 0, 44, 102
4, 307685, Note_off_c, 0, 48, 64
4, 307922, Note_on_c, 0, 48, 102
4, 307925, Note_off_c, 0, 44, 64
4, 308162, Note_on_c, 0, 44, 102
4, 308165, Note_off_c, 0, 48, 64
4, 308402, Note_on_c, 0, 48, 102
4, 308405, Note_off_c, 0, 44, 64
4, 308642, Note_on_c, 0, 44, 102
4, 308645, Note_off_c, 0, 48, 64
4, 308882, Note_on_c, 0, 50, 102
4, 308885, Note_off_c, 0, 44, 64
4, 309122, Note_on_c, 0, 44, 102
4, 309125, Note_off_c, 0, 50, 64
4, 309362, Note_on_c, 0, 50, 102
4, 309365, Note_off_c, 0, 44, 64
4, 309602, Note_on_c, 0, 44, 102
4, 309605, Note_off_c, 0, 50, 64
4, 309842, Note_on_c, 0, 50, 102
4, 309845, Note_off_c, 0, 44, 64
4, 310082, Note_on_c, 0, 43, 102
4, 310085, Note_off_c, 0, 50, 64
4, 310322, Note_on_c, 0, 51, 102
4, 310325, Note_off_c, 0, 43, 64
4, 310562, Note_on_c, 0, 43, 102
4, 310565, Note_off_c, 0, 51, 64
4, 310802, Note_on_c, 0, 51, 102
4, 310805, Note_off_c, 0, 43, 64
4, 311042, Note_on_c, 0, 43, 102
4, 311045, Note_off_c, 0, 51, 64
4, 311282, Note_on_c, 0, 51, 102
4, 311285, Note_off_c, 0, 43, 64
4, 311522, Note_on_c, 0, 41, 102
4, 311525, Note_off_c, 0, 51, 64
4, 312005, Note_off_c, 0, 41, 64
4, 312962, Note_on_c, 0, 46, 102
4, 313202, Note_on_c, 0, 58, 102
4, 313205, Note_off_c, 0, 46, 64
4, 313442, Note_on_c, 0, 48, 102
4, 313445, Note_off_c, 0, 58, 64
4, 313682, Note_on_c, 0, 58, 102
4, 313685, Note_off_c, 0, 48, 64
4, 313922, Note_on_c, 0, 50, 102
4, 313925, Note_off_c, 0, 58, 64
4, 314162, Note_on_c, 0, 58, 102
4, 314165, Note_off_c, 0, 50, 64
4, 314402, Note_on_c, 0, 51, 102
4, 314405, Note_off_c, 0, 58, 64
4, 314642, Note_on_c, 0, 58, 102
4, 314645, Note_off_c, 0, 51, 64
4, 314882, Note_on_c, 0, 53, 102
4, 314885, Note_off_c, 0, 58, 64
4, 315122, Note_on_c, 0, 58, 102
4, 315125, Note_off_c, 0, 53, 64
4, 315362, Note_on_c, 0, 55, 102
4, 315365, Note_off_c, 0, 58, 64
4, 315602, Note_on_c, 0, 58, 102
4, 315605, Note_off_c, 0, 55, 64
4, 315842, Note_on_c, 0, 53, 102
4, 315845, Note_off_c, 0, 58, 64
4, 316082, Note_on_c, 0, 58, 102
4, 316085, Note_off_c, 0, 53, 64
4, 316322, Note_on_c, 0, 51, 102
4, 316325, Note_off_c, 0, 58, 64
4, 316562, Note_on_c, 0, 58, 102
4, 316565, Note_off_c, 0, 51, 64
4, 316802, Note_on_c, 0, 53, 102
4, 316805, Note_off_c, 0, 58, 64
4, 317042, Note_on_c, 0, 57, 102
4, 317045, Note_off_c, 0, 53, 64
4, 317282, Note_on_c, 0, 46, 102
4, 317285, Note_off_c, 0, 57, 64
4, 317765, Note_off_c, 0, 46, 64
4, 318722, Note_on_c, 0, 46, 102
4, 319205, Note_off_c, 0, 46, 64
4, 320402, Note_on_c, 0, 53, 102
4, 320642, Note_on_c, 0, 55, 102
4, 320645, Note_off_c, 0, 53, 64
4, 320882, Note_on_c, 0, 53, 102
4, 320885, Note_off_c, 0, 55, 64
4, 321122, Note_on_c, 0, 55, 102
4, 321125, Note_off_c, 0, 53, 64
4, 321362, Note_on_c, 0, 51, 102
4, 321365, Note_off_c, 0, 55, 64
4, 321602, Note_on_c, 0, 50, 102
4, 321605, Note_off_c, 0, 51, 64
4, 321842, Note_on_c, 0, 55, 102
4, 321845, Note_off_c, 0, 50, 64
4, 322082, Note_on_c, 0, 51, 102
4, 322085, Note_off_c, 0, 55, 64
4, 322325, Note_off_c, 0, 51, 64
4, 322562, Note_on_c, 0, 53, 102
4, 323042, Note_on_c, 0, 46, 102
4, 323045, Note_off_c, 0, 53, 64
4, 324482, Note_on_c, 0, 51, 102
4, 324485, Note_off_c, 0, 46, 64
4, 325445, Note_off_c, 0, 51, 64
4, 325922, Note_on_c, 0, 48, 102
4, 326885, Note_off_c, 0, 48, 64
4, 327362, Note_on_c, 0, 43, 102
4, 328082, Note_on_c, 0, 44, 102
4, 328085, Note_off_c, 0, 43, 64
4, 328322, Note_on_c, 0, 46, 102
4, 328325, Note_off_c, 0, 44, 64
4, 328802, Note_on_c, 0, 39, 102
4, 328805, Note_off_c, 0, 46, 64
4, 329282, Note_on_c, 0, 43, 102
4, 329285, Note_off_c, 0, 39, 64
4, 329762, Note_on_c, 0, 45, 102
4, 329765, Note_off_c, 0, 43, 64
4, 330242, Note_on_c, 0, 46, 102
4, 330245, Note_off_c, 0, 45, 64
4, 331205, Note_off_c, 0, 46, 64
4, 331682, Note_on_c, 0, 46, 102
4, 332645, Note_off_c, 0, 46, 64
4, 333122, Note_on_c, 0, 46, 102
4, 333602, Note_on_c, 0, 50, 102
4, 333605, Note_off_c, 0, 46, 64
4, 334082, Note_on_c, 0, 53, 102
4, 334085, Note_off_c, 0, 50, 64
4, 334562, Note_on_c, 0, 58, 102
4, 334565, Note_off_c, 0, 53, 64
4, 335525, Note_off_c, 0, 58, 64
4, 336002, Note_on_c, 0, 39, 102
4, 336242, Note_on_c, 0, 51, 102
4, 336245, Note_off_c, 0, 39, 64
4, 336482, Note_on_c, 0, 41, 102
4, 336485, Note_off_c, 0, 51, 64
4, 336722, Note_on_c, 0, 51, 102
4, 336725, Note_off_c, 0, 41, 64
4, 336962, Note_on_c, 0, 43, 102
4, 336965, Note_off_c, 0, 51, 64
4, 337202, Note_on_c, 0, 51, 102
4, 337205, Note_off_c, 0, 43, 64
4, 337442, Note_on_c, 0, 44, 102
4, 337445, Note_off_c, 0, 51, 64
4, 337682, Note_on_c, 0, 51, 102
4, 337685, Note_off_c, 0, 44, 64
4, 337922, Note_on_c, 0, 46, 102
4, 337925, Note_off_c, 0, 51, 64
4, 338162, Note_on_c, 0, 51, 102
4, 338165, Note_off_c, 0, 46, 64
4, 338402, Note_on_c, 0, 48, 102
4, 338405, Note_off_c, 0, 51, 64
4, 338642, Note_on_c, 0, 51, 102
4, 338645, Note_off_c, 0, 48, 64
4, 338882, Note_on_c, 0, 46, 102
4, 338885, Note_off_c, 0, 51, 64
4, 339125, Note_off_c, 0, 46, 64
4, 339362, Note_on_c, 0, 48, 102
4, 339605, Note_off_c, 0, 48, 64
4, 339842, Note_on_c, 0, 50, 102
4, 340085, Note_off_c, 0, 50, 64
4, 340322, Note_on_c, 0, 51, 102
4, 341282, Note_on_c, 0, 50, 102
4, 341285, Note_off_c, 0, 51, 64
4, 341762, Note_on_c, 0, 51, 102
4, 341765, Note_off_c, 0, 50, 64
4, 342242, Note_on_c, 0, 56, 102
4, 342245, Note_off_c, 0, 51, 64
4, 342725, Note_off_c, 0, 56, 64
4, 343202, Note_on_c, 0, 47, 102
4, 343682, Note_on_c, 0, 48, 102
4, 343685, Note_off_c, 0, 47, 64
4, 344162, Note_on_c, 0, 50, 102
4, 344165, Note_off_c, 0, 48, 64
4, 344642, Note_on_c, 0, 39, 102
4, 344645, Note_off_c, 0, 50, 64
4, 345122, Note_on_c, 0, 44, 102
4, 345125, Note_off_c, 0, 39, 64
4, 346082, Note_on_c, 0, 43, 102
4, 346085, Note_off_c, 0, 44, 64
4, 346565, Note_off_c, 0, 43, 64
4, 346682, Note_on_c, 0, 55, 102
4, 346802, Note_on_c, 0, 53, 102
4, 346805, Note_off_c, 0, 55, 64
4, 346922, Note_on_c, 0, 55, 102
4, 346925, Note_off_c, 0, 53, 64
4, 347042, Note_on_c, 0, 51, 102
4, 347045, Note_off_c, 0, 55, 64
4, 347162, Note_on_c, 0, 53, 102
4, 347165, Note_off_c, 0, 51, 64
4, 347282, Note_on_c, 0, 50, 102
4, 347285, Note_off_c, 0, 53, 64
4, 347402, Note_on_c, 0, 51, 102
4, 347405, Note_off_c, 0, 50, 64
4, 347522, Note_on_c, 0, 48, 102
4, 347525, Note_off_c, 0, 51, 64
4, 347762, Note_on_c, 0, 51, 102
4, 347765, Note_off_c, 0, 48, 64
4, 348002, Note_on_c, 0, 48, 102
4, 348005, Note_off_c, 0, 51, 64
4, 348242, Note_on_c, 0, 51, 102
4, 348245, Note_off_c, 0, 48, 64
4, 348482, Note_on_c, 0, 48, 102
4, 348485, Note_off_c, 0, 51, 64
4, 348722, Note_on_c, 0, 51, 102
4, 348725, Note_off_c, 0, 48, 64
4, 348962, Note_on_c, 0, 41, 102
4, 348965, Note_off_c, 0, 51, 64
4, 349202, Note_on_c, 0, 56, 102
4, 349205, Note_off_c, 0, 41, 64
4, 349442, Note_on_c, 0, 41, 102
4, 349445, Note_off_c, 0, 56, 64
4, 349682, Note_on_c, 0, 56, 102
4, 349685, Note_off_c, 0, 41, 64
4, 349922, Note_on_c, 0, 41, 102
4, 349925, Note_off_c, 0, 56, 64
4, 350162, Note_on_c, 0, 56, 102
4, 350165, Note_off_c, 0, 41, 64
4, 350402, Note_on_c, 0, 46, 102
4, 350405, Note_off_c, 0, 56, 64
4, 350642, Note_on_c, 0, 50, 102
4, 350645, Note_off_c, 0, 46, 64
4, 350882, Note_on_c, 0, 46, 102
4, 350885, Note_off_c, 0, 50, 64
4, 351122, Note_on_c, 0, 50, 102
4, 351125, Note_off_c, 0, 46, 64
4, 351362, Note_on_c, 0, 46, 102
4, 351365, Note_off_c, 0, 50, 64
4, 351602, Note_on_c, 0, 50, 102
4, 351605, Note_off_c, 0, 46, 64
4, 351842, Note_on_c, 0, 39, 102
4, 351845, Note_off_c, 0, 50, 64
4, 352082, Note_on_c, 0, 55, 102
4, 352085, Note_off_c, 0, 39, 64
4, 352322, Note_on_c, 0, 39, 102
4, 352325, Note_off_c, 0, 55, 64
4, 352562, Note_on_c, 0, 55, 102
4, 352565, Note_off_c, 0, 39, 64
4, 352802, Note_on_c, 0, 39, 102
4, 352805, Note_off_c, 0, 55, 64
4, 353042, Note_on_c, 0, 55, 102
4, 353045, Note_off_c, 0, 39, 64
4, 353282, Note_on_c, 0, 44, 102
4, 353285, Note_off_c, 0, 55, 64
4, 353522, Note_on_c, 0, 48, 102
4, 353525, Note_off_c, 0, 44, 64
4, 353762, Note_on_c, 0, 44, 102
4, 353765, Note_off_c, 0, 48, 64
4, 354002, Note_on_c, 0, 48, 102
4, 354005, Note_off_c, 0, 44, 64
4, 354242, Note_on_c, 0, 44, 102
4, 354245, Note_off_c, 0, 48, 64
4, 354482, Note_on_c, 0, 48, 102
4, 354485, Note_off_c, 0, 44, 64
4, 354722, Note_on_c, 0, 44, 102
4, 354725, Note_off_c, 0, 48, 64
4, 354962, Note_on_c, 0, 50, 102
4, 354965, Note_off_c, 0, 44, 64
4, 355202, Note_on_c, 0, 44, 102
4, 355205, Note_off_c, 0, 50, 64
4, 355442, Note_on_c, 0, 50, 102
4, 355445, Note_off_c, 0, 44, 64
4, 355682, Note_on_c, 0, 44, 102
4, 355685, Note_off_c, 0, 50, 64
4, 355922, Note_on_c, 0, 50, 102
4, 355925, Note_off_c, 0, 44, 64
4, 356162, Note_on_c, 0, 43, 102
4, 356165, Note_off_c, 0, 50, 64
4, 356402, Note_on_c, 0, 51, 102
4, 356405, Note_off_c, 0, 43, 64
4, 356642, Note_on_c, 0, 43, 102
4, 356645, Note_off_c, 0, 51, 64
4, 356882, Note_on_c, 0, 51, 102
4, 356885, Note_off_c, 0, 43, 64
4, 357122, Note_on_c, 0, 43, 102
4, 357125, Note_off_c, 0, 51, 64
4, 357362, Note_on_c, 0, 51, 102
4, 357365, Note_off_c, 0, 43, 64
4, 357602, Note_on_c, 0, 41, 102
4, 357605, Note_off_c, 0, 51, 64
4, 358085, Note_off_c, 0, 41, 64
4, 359042, Note_on_c, 0, 46, 102
4, 359282, Note_on_c, 0, 58, 102
4, 359285, Note_off_c, 0, 46, 64
4, 359522, Note_on_c, 0, 48, 102
4, 359525, Note_off_c, 0, 58, 64
4, 359762, Note_on_c, 0, 58, 102
4, 359765, Note_off_c, 0, 48, 64
4, 360002, Note_on_c, 0, 50, 102
4, 360005, Note_off_c, 0, 58, 64
4, 360242, Note_on_c, 0, 58, 102
4, 360245, Note_off_c, 0, 50, 64
4, 360482, Note_on_c, 0, 51, 102
4, 360485, Note_off_c, 0, 58, 64
4, 360722, Note_on_c, 0, 58, 102
4, 360725, Note_off_c, 0, 51, 64
4, 360962, Note_on_c, 0, 53, 102
4, 360965, Note_off_c, 0, 58, 64
4, 361202, Note_on_c, 0, 58, 102
4, 361205, Note_off_c, 0, 53, 64
4, 361442, Note_on_c, 0, 55, 102
4, 361445, Note_off_c, 0, 58, 64
4, 361682, Note_on_c, 0, 58, 102
4, 361685, Note_off_c, 0, 55, 64
4, 361922, Note_on_c, 0, 53, 102
4, 361925, Note_off_c, 0, 58, 64
4, 362162, Note_on_c, 0, 58, 102
4, 362165, Note_off_c, 0, 53, 64
4, 362402, Note_on_c, 0, 51, 102
4, 362405, Note_off_c, 0, 58, 64
4, 362642, Note_on_c, 0, 58, 102
4, 362645, Note_off_c, 0, 51, 64
4, 362882, Note_on_c, 0, 53, 102
4, 362885, Note_off_c, 0, 58, 64
4, 363122, Note_on_c, 0, 57, 102
4, 363125, Note_off_c, 0, 53, 64
4, 363362, Note_on_c, 0, 46, 102
4, 363365, Note_off_c, 0, 57, 64
4, 363845, Note_off_c, 0, 46, 64
4, 364802, Note_on_c, 0, 46, 102
4, 365285, Note_off_c, 0, 46, 64
4, 366482, Note_on_c, 0, 53, 102
4, 366722, Note_on_c, 0, 55, 102
4, 366725, Note_off_c, 0, 53, 64
4, 366962, Note_on_c, 0, 53, 102
4, 366965, Note_off_c, 0, 55, 64
4, 367202, Note_on_c, 0, 55, 102
4, 367205, Note_off_c, 0, 53, 64
4, 367442, Note_on_c, 0, 51, 102
4, 367445, Note_off_c, 0, 55, 64
4, 367682, Note_on_c, 0, 50, 102
4, 367685, Note_off_c, 0, 51, 64
4, 367922, Note_on_c, 0, 55, 102
4, 367925, Note_off_c, 0, 50, 64
4, 368162, Note_on_c, 0, 51, 102
4, 368165, Note_off_c, 0, 55, 64
4, 368405, Note_off_c, 0, 51, 64
4, 368642, Note_on_c, 0, 53, 102
4, 369122, Note_on_c, 0, 46, 102
4, 369125, Note_off_c, 0, 53, 64
4, 370562, Note_on_c, 0, 46, 102
4, 370565, Note_off_c, 0, 46, 64
4, 371525, Note_off_c, 0, 46, 64
4, 372002, Note_on_c, 0, 51, 102
4, 372965, Note_off_c, 0, 51, 64
4, 373442, Note_on_c, 0, 50, 102
4, 373922, Note_on_c, 0, 55, 102
4, 373925, Note_off_c, 0, 50, 64
4, 374402, Note_on_c, 0, 53, 102
4, 374405, Note_off_c, 0, 55, 64
4, 374882, Note_on_c, 0, 58, 102
4, 374885, Note_off_c, 0, 53, 64
4, 375362, Note_on_c, 0, 50, 102
4, 375365, Note_off_c, 0, 58, 64
4, 375842, Note_on_c, 0, 46, 102
4, 375845, Note_off_c, 0, 50, 64
4, 376322, Note_on_c, 0, 51, 102
4, 376325, Note_off_c, 0, 46, 64
4, 377285, Note_off_c, 0, 51, 64
4, 377762, Note_on_c, 0, 58, 102
4, 378722, Note_on_c, 0, 56, 102
4, 378725, Note_off_c, 0, 58, 64
4, 379202, Note_on_c, 0, 55, 102
4, 379205, Note_off_c, 0, 56, 64
4, 379682, Note_on_c, 0, 43, 102
4, 379685, Note_off_c, 0, 55, 64
4, 380162, Note_on_c, 0, 46, 102
4, 380165, Note_off_c, 0, 43, 64
4, 380642, Note_on_c, 0, 39, 102
4, 380645, Note_off_c, 0, 46, 64
4, 381605, Note_off_c, 0, 39, 64
4, 382322, Note_on_c, 0, 51, 102
4, 382562, Note_on_c, 0, 61, 102
4, 382565, Note_off_c, 0, 51, 64
4, 382802, Note_on_c, 0, 51, 102
4, 382805, Note_off_c, 0, 61, 64
4, 383042, Note_on_c, 0, 60, 102
4, 383045, Note_off_c, 0, 51, 64
4, 383282, Note_on_c, 0, 51, 102
4, 383285, Note_off_c, 0, 60, 64
4, 383522, Note_on_c, 0, 58, 102
4, 383525, Note_off_c, 0, 51, 64
4, 383762, Note_on_c, 0, 51, 102
4, 383765, Note_off_c, 0, 58, 64
4, 384002, Note_on_c, 0, 56, 102
4, 384005, Note_off_c, 0, 51, 64
4, 384242, Note_on_c, 0, 51, 102
4, 384245, Note_off_c, 0, 56, 64
4, 384482, Note_on_c, 0, 55, 102
4, 384485, Note_off_c, 0, 51, 64
4, 384722, Note_on_c, 0, 51, 102
4, 384725, Note_off_c, 0, 55, 64
4, 384962, Note_on_c, 0, 56, 102
4, 384965, Note_off_c, 0, 51, 64
4, 385205, Note_off_c, 0, 56, 64
4, 385442, Note_on_c, 0, 55, 102
4, 385685, Note_off_c, 0, 55, 64
4, 385922, Note_on_c, 0, 53, 102
4, 386165, Note_off_c, 0, 53, 64
4, 386402, Note_on_c, 0, 51, 102
4, 387362, Note_on_c, 0, 50, 102
4, 387365, Note_off_c, 0, 51, 64
4, 387842, Note_on_c, 0, 51, 102
4, 387845, Note_off_c, 0, 50, 64
4, 388322, Note_on_c, 0, 50, 102
4, 388325, Note_off_c, 0, 51, 64
4, 388802, Note_on_c, 0, 48, 102
4, 388805, Note_off_c, 0, 50, 64
4, 389282, Note_on_c, 0, 47, 102
4, 389285, Note_off_c, 0, 48, 64
4, 389522, Note_on_c, 0, 53, 102
4, 389525, Note_off_c, 0, 47, 64
4, 389762, Note_on_c, 0, 51, 102
4, 389765, Note_off_c, 0, 53, 64
4, 390002, Note_on_c, 0, 50, 102
4, 390005, Note_off_c, 0, 51, 64
4, 390242, Note_on_c, 0, 48, 102
4, 390245, Note_off_c, 0, 50, 64
4, 390482, Note_on_c, 0, 52, 102
4, 390485, Note_off_c, 0, 48, 64
4, 390722, Note_on_c, 0, 41, 102
4, 390725, Note_off_c, 0, 52, 64
4, 391202, Note_on_c, 0, 49, 102
4, 391205, Note_off_c, 0, 41, 64
4, 392162, Note_on_c, 0, 48, 102
4, 392165, Note_off_c, 0, 49, 64
4, 392645, Note_off_c, 0, 48, 64
4, 392762, Note_on_c, 0, 60, 102
4, 392882, Note_on_c, 0, 58, 102
4, 392885, Note_off_c, 0, 60, 64
4, 393002, Note_on_c, 0, 60, 102
4, 393005, Note_off_c, 0, 58, 64
4, 393122, Note_on_c, 0, 56, 102
4, 393125, Note_off_c, 0, 60, 64
4, 393242, Note_on_c, 0, 58, 102
4, 393245, Note_off_c, 0, 56, 64
4, 393362, Note_on_c, 0, 55, 102
4, 393365, Note_off_c, 0, 58, 64
4, 393482, Note_on_c, 0, 56, 102
4, 393485, Note_off_c, 0, 55, 64
4, 393602, Note_on_c, 0, 53, 102
4, 393605, Note_off_c, 0, 56, 64
4, 393842, Note_on_c, 0, 56, 102
4, 393845, Note_off_c, 0, 53, 64
4, 394082, Note_on_c, 0, 53, 102
4, 394085, Note_off_c, 0, 56, 64
4, 394322, Note_on_c, 0, 56, 102
4, 394325, Note_off_c, 0, 53, 64
4, 394562, Note_on_c, 0, 53, 102
4, 394565, Note_off_c, 0, 56, 64
4, 394802, Note_on_c, 0, 56, 102
4, 394805, Note_off_c, 0, 53, 64
4, 395042, Note_on_c, 0, 46, 102
4, 395045, Note_off_c, 0, 56, 64
4, 395282, Note_on_c, 0, 61, 102
4, 395285, Note_off_c, 0, 46, 64
4, 395522, Note_on_c, 0, 46, 102
4, 395525, Note_off_c, 0, 61, 64
4, 395762, Note_on_c, 0, 61, 102
4, 395765, Note_off_c, 0, 46, 64
4, 396002, Note_on_c, 0, 46, 102
4, 396005, Note_off_c, 0, 61, 64
4, 396242, Note_on_c, 0, 61, 102
4, 396245, Note_off_c, 0, 46, 64
4, 396482, Note_on_c, 0, 51, 102
4, 396485, Note_off_c, 0, 61, 64
4, 396722, Note_on_c, 0, 55, 102
4, 396725, Note_off_c, 0, 51, 64
4, 396962, Note_on_c, 0, 51, 102
4, 396965, Note_off_c, 0, 55, 64
4, 397202, Note_on_c, 0, 55, 102
4, 397205, Note_off_c, 0, 51, 64
4, 397442, Note_on_c, 0, 51, 102
4, 397445, Note_off_c, 0, 55, 64
4, 397682, Note_on_c, 0, 55, 102
4, 397685, Note_off_c, 0, 51, 64
4, 397922, Note_on_c, 0, 44, 102
4, 397925, Note_off_c, 0, 55, 64
4, 398162, Note_on_c, 0, 60, 102
4, 398165, Note_off_c, 0, 44, 64
4, 398402, Note_on_c, 0, 44, 102
4, 398405, Note_off_c, 0, 60, 64
4, 398642, Note_on_c, 0, 60, 102
4, 398645, Note_off_c, 0, 44, 64
4, 398882, Note_on_c, 0, 44, 102
4, 398885, Note_off_c, 0, 60, 64
4, 399122, Note_on_c, 0, 60, 102
4, 399125, Note_off_c, 0, 44, 64
4, 399362, Note_on_c, 0, 49, 102
4, 399365, Note_off_c, 0, 60, 64
4, 399602, Note_on_c, 0, 53, 102
4, 399605, Note_off_c, 0, 49, 64
4, 399842, Note_on_c, 0, 49, 102
4, 399845, Note_off_c, 0, 53, 64
4, 400082, Note_on_c, 0, 53, 102
4, 400085, Note_off_c, 0, 49, 64
4, 400322, Note_on_c, 0, 49, 102
4, 400325, Note_off_c, 0, 53, 64
4, 400562, Note_on_c, 0, 53, 102
4, 400565, Note_off_c, 0, 49, 64
4, 400802, Note_on_c, 0, 49, 102
4, 400805, Note_off_c, 0, 53, 64
4, 401042, Note_on_c, 0, 55, 102
4, 401045, Note_off_c, 0, 49, 64
4, 401282, Note_on_c, 0, 49, 102
4, 401285, Note_off_c, 0, 55, 64
4, 401522, Note_on_c, 0, 55, 102
4, 401525, Note_off_c, 0, 49, 64
4, 401762, Note_on_c, 0, 49, 102
4, 401765, Note_off_c, 0, 55, 64
4, 402002, Note_on_c, 0, 55, 102
4, 402005, Note_off_c, 0, 49, 64
4, 402242, Note_on_c, 0, 48, 102
4, 402245, Note_off_c, 0, 55, 64
4, 402482, Note_on_c, 0, 56, 102
4, 402485, Note_off_c, 0, 48, 64
4, 402722, Note_on_c, 0, 48, 102
4, 402725, Note_off_c, 0, 56, 64
4, 402962, Note_on_c, 0, 56, 102
4, 402965, Note_off_c, 0, 48, 64
4, 403202, Note_on_c, 0, 48, 102
4, 403205, Note_off_c, 0, 56, 64
4, 403442, Note_on_c, 0, 56, 102
4, 403445, Note_off_c, 0, 48, 64
4, 403682, Note_on_c, 0, 46, 102
4, 403685, Note_off_c, 0, 56, 64
4, 404165, Note_off_c, 0, 46, 64
4, 405122, Note_on_c, 0, 39, 102
4, 405362, Note_on_c, 0, 51, 102
4, 405365, Note_off_c, 0, 39, 64
4, 405602, Note_on_c, 0, 41, 102
4, 405605, Note_off_c, 0, 51, 64
4, 405842, Note_on_c, 0, 51, 102
4, 405845, Note_off_c, 0, 41, 64
4, 406082, Note_on_c, 0, 43, 102
4, 406085, Note_off_c, 0, 51, 64
4, 406322, Note_on_c, 0, 51, 102
4, 406325, Note_off_c, 0, 43, 64
4, 406562, Note_on_c, 0, 44, 102
4, 406565, Note_off_c, 0, 51, 64
4, 406802, Note_on_c, 0, 51, 102
4, 406805, Note_off_c, 0, 44, 64
4, 407042, Note_on_c, 0, 46, 102
4, 407045, Note_off_c, 0, 51, 64
4, 407282, Note_on_c, 0, 51, 102
4, 407285, Note_off_c, 0, 46, 64
4, 407522, Note_on_c, 0, 48, 102
4, 407525, Note_off_c, 0, 51, 64
4, 407762, Note_on_c, 0, 51, 102
4, 407765, Note_off_c, 0, 48, 64
4, 408002, Note_on_c, 0, 46, 102
4, 408005, Note_off_c, 0, 51, 64
4, 408242, Note_on_c, 0, 51, 102
4, 408245, Note_off_c, 0, 46, 64
4, 408482, Note_on_c, 0, 44, 102
4, 408485, Note_off_c, 0, 51, 64
4, 408722, Note_on_c, 0, 51, 102
4, 408725, Note_off_c, 0, 44, 64
4, 408962, Note_on_c, 0, 46, 102
4, 408965, Note_off_c, 0, 51, 64
4, 409202, Note_on_c, 0, 50, 102
4, 409205, Note_off_c, 0, 46, 64
4, 409442, Note_on_c, 0, 39, 102
4, 409445, Note_off_c, 0, 50, 64
4, 409925, Note_off_c, 0, 39, 64
4, 410882, Note_on_c, 0, 39, 102
4, 411365, Note_off_c, 0, 39, 64
4, 412562, Note_on_c, 0, 58, 102
4, 412802, Note_on_c, 0, 60, 102
4, 412805, Note_off_c, 0, 58, 64
4, 413042, Note_on_c, 0, 58, 102
4, 413045, Note_off_c, 0, 60, 64
4, 413282, Note_on_c, 0, 60, 102
4, 413285, Note_off_c, 0, 58, 64
4, 413522, Note_on_c, 0, 56, 102
4, 413525, Note_off_c, 0, 60, 64
4, 413762, Note_on_c, 0, 55, 102
4, 413765, Note_off_c, 0, 56, 64
4, 414002, Note_on_c, 0, 60, 102
4, 414005, Note_off_c, 0, 55, 64
4, 414242, Note_on_c, 0, 56, 102
4, 414245, Note_off_c, 0, 60, 64
4, 414485, Note_off_c, 0, 56, 64
4, 414722, Note_on_c, 0, 58, 102
4, 415202, Note_on_c, 0, 51, 102
4, 415205, Note_off_c, 0, 58, 64
4, 416642, Note_on_c, 0, 46, 102
4, 416645, Note_off_c, 0, 51, 64
4, 417605, Note_off_c, 0, 46, 64
4, 418082, Note_on_c, 0, 51, 102
4, 419045, Note_off_c, 0, 51, 64
4, 419522, Note_on_c, 0, 50, 102
4, 420002, Note_on_c, 0, 55, 102
4, 420005, Note_off_c, 0, 50, 64
4, 420482, Note_on_c, 0, 53, 102
4, 420485, Note_off_c, 0, 55, 64
4, 420962, Note_on_c, 0, 58, 102
4, 420965, Note_off_c, 0, 53, 64
4, 421442, Note_on_c, 0, 50, 102
4, 421445, Note_off_c, 0, 58, 64
4, 421922, Note_on_c, 0, 46, 102
4, 421925, Note_off_c, 0, 50, 64
4, 422402, Note_on_c, 0, 51, 102
4, 422405, Note_off_c, 0, 46, 64
4, 423365, Note_off_c, 0, 51, 64
4, 423842, Note_on_c, 0, 58, 102
4, 424802, Note_on_c, 0, 56, 102
4, 424805, Note_off_c, 0, 58, 64
4, 425282, Note_on_c, 0, 55, 102
4, 425285, Note_off_c, 0, 56, 64
4, 425762, Note_on_c, 0, 43, 102
4, 425765, Note_off_c, 0, 55, 64
4, 426242, Note_on_c, 0, 46, 102
4, 426245, Note_off_c, 0, 43, 64
4, 426722, Note_on_c, 0, 39, 102
4, 426725, Note_off_c, 0, 46, 64
4, 427685, Note_off_c, 0, 39, 64
4, 428402, Note_on_c, 0, 51, 102
4, 428642, Note_on_c, 0, 61, 102
4, 428645, Note_off_c, 0, 51, 64
4, 428882, Note_on_c, 0, 51, 102
4, 428885, Note_off_c, 0, 61, 64
4, 429122, Note_on_c, 0, 60, 102
4, 429125, Note_off_c, 0, 51, 64
4, 429362, Note_on_c, 0, 51, 102
4, 429365, Note_off_c, 0, 60, 64
4, 429602, Note_on_c, 0, 58, 102
4, 429605, Note_off_c, 0, 51, 64
4, 429842, Note_on_c, 0, 51, 102
4, 429845, Note_off_c, 0, 58, 64
4, 430082, Note_on_c, 0, 56, 102
4, 430085, Note_off_c, 0, 51, 64
4, 430322, Note_on_c, 0, 51, 102
4, 430325, Note_off_c, 0, 56, 64
4, 430562, Note_on_c, 0, 55, 102
4, 430565, Note_off_c, 0, 51, 64
4, 430802, Note_on_c, 0, 51, 102
4, 430805, Note_off_c, 0, 55, 64
4, 431042, Note_on_c, 0, 56, 102
4, 431045, Note_off_c, 0, 51, 64
4, 431285, Note_off_c, 0, 56, 64
4, 431522, Note_on_c, 0, 55, 102
4, 431765, Note_off_c, 0, 55, 64
4, 432002, Note_on_c, 0, 53, 102
4, 432245, Note_off_c, 0, 53, 64
4, 432482, Note_on_c, 0, 51, 102
4, 433442, Note_on_c, 0, 50, 102
4, 433445, Note_off_c, 0, 51, 64
4, 433922, Note_on_c, 0, 51, 102
4, 433925, Note_off_c, 0, 50, 64
4, 434402, Note_on_c, 0, 50, 102
4, 434405, Note_off_c, 0, 51, 64
4, 434882, Note_on_c, 0, 48, 102
4, 434885, Note_off_c, 0, 50, 64
4, 435362, Note_on_c, 0, 47, 102
4, 435365, Note_off_c, 0, 48, 64
4, 435602, Note_on_c, 0, 53, 102
4, 435605, Note_off_c, 0, 47, 64
4, 435842, Note_on_c, 0, 51, 102
4, 435845, Note_off_c, 0, 53, 64
4, 436082, Note_on_c, 0, 50, 102
4, 436085, Note_off_c, 0, 51, 64
4, 436322, Note_on_c, 0, 48, 102
4, 436325, Note_off_c, 0, 50, 64
4, 436562, Note_on_c, 0, 52, 102
4, 436565, Note_off_c, 0, 48, 64
4, 436802, Note_on_c, 0, 41, 102
4, 436805, Note_off_c, 0, 52, 64
4, 437282, Note_on_c, 0, 49, 102
4, 437285, Note_off_c, 0, 41, 64
4, 438242, Note_on_c, 0, 48, 102
4, 438245, Note_off_c, 0, 49, 64
4, 438725, Note_off_c, 0, 48, 64
4, 438842, Note_on_c, 0, 60, 102
4, 438962, Note_on_c, 0, 58, 102
4, 438965, Note_off_c, 0, 60, 64
4, 439082, Note_on_c, 0, 60, 102
4, 439085, Note_off_c, 0, 58, 64
4, 439202, Note_on_c, 0, 56, 102
4, 439205, Note_off_c, 0, 60, 64
4, 439322, Note_on_c, 0, 58, 102
4, 439325, Note_off_c, 0, 56, 64
4, 439442, Note_on_c, 0, 55, 102
4, 439445, Note_off_c, 0, 58, 64
4, 439562, Note_on_c, 0, 56, 102
4, 439565, Note_off_c, 0, 55, 64
4, 439682, Note_on_c, 0, 53, 102
4, 439685, Note_off_c, 0, 56, 64
4, 439922, Note_on_c, 0, 56, 102
4, 439925, Note_off_c, 0, 53, 64
4, 440162, Note_on_c, 0, 53, 102
4, 440165, Note_off_c, 0, 56, 64
4, 440402, Note_on_c, 0, 56, 102
4, 440405, Note_off_c, 0, 53, 64
4, 440642, Note_on_c, 0, 53, 102
4, 440645, Note_off_c, 0, 56, 64
4, 440882, Note_on_c, 0, 56, 102
4, 440885, Note_off_c, 0, 53, 64
4, 441122, Note_on_c, 0, 46, 102
4, 441125, Note_off_c, 0, 56, 64
4, 441362, Note_on_c, 0, 61, 102
4, 441365, Note_off_c, 0, 46, 64
4, 441602, Note_on_c, 0, 46, 102
4, 441605, Note_off_c, 0, 61, 64
4, 441842, Note_on_c, 0, 61, 102
4, 441845, Note_off_c, 0, 46, 64
4, 442082, Note_on_c, 0, 46, 102
4, 442085, Note_off_c, 0, 61, 64
4, 442322, Note_on_c, 0, 61, 102
4, 442325, Note_off_c, 0, 46, 64
4, 442562, Note_on_c, 0, 51, 102
4, 442565, Note_off_c, 0, 61, 64
4, 442802, Note_on_c, 0, 55, 102
4, 442805, Note_off_c, 0, 51, 64
4, 443042, Note_on_c, 0, 51, 102
4, 443045, Note_off_c, 0, 55, 64
4, 443282, Note_on_c, 0, 55, 102
4, 443285, Note_off_c, 0, 51, 64
4, 443522, Note_on_c, 0, 51, 102
4, 443525, Note_off_c, 0, 55, 64
4, 443762, Note_on_c, 0, 55, 102
4, 443765, Note_off_c, 0, 51, 64
4, 444002, Note_on_c, 0, 44, 102
4, 444005, Note_off_c, 0, 55, 64
4, 444242, Note_on_c, 0, 60, 102
4, 444245, Note_off_c, 0, 44, 64
4, 444482, Note_on_c, 0, 44, 102
4, 444485, Note_off_c, 0, 60, 64
4, 444722, Note_on_c, 0, 60, 102
4, 444725, Note_off_c, 0, 44, 64
4, 444962, Note_on_c, 0, 44, 102
4, 444965, Note_off_c, 0, 60, 64
4, 445202, Note_on_c, 0, 60, 102
4, 445205, Note_off_c, 0, 44, 64
4, 445442, Note_on_c, 0, 49, 102
4, 445445, Note_off_c, 0, 60, 64
4, 445682, Note_on_c, 0, 53, 102
4, 445685, Note_off_c, 0, 49, 64
4, 445922, Note_on_c, 0, 49, 102
4, 445925, Note_off_c, 0, 53, 64
4, 446162, Note_on_c, 0, 53, 102
4, 446165, Note_off_c, 0, 49, 64
4, 446402, Note_on_c, 0, 49, 102
4, 446405, Note_off_c, 0, 53, 64
4, 446642, Note_on_c, 0, 53, 102
4, 446645, Note_off_c, 0, 49, 64
4, 446882, Note_on_c, 0, 49, 102
4, 446885, Note_off_c, 0, 53, 64
4, 447122, Note_on_c, 0, 55, 102
4, 447125, Note_off_c, 0, 49, 64
4, 447362, Note_on_c, 0, 49, 102
4, 447365, Note_off_c, 0, 55, 64
4, 447602, Note_on_c, 0, 55, 102
4, 447605, Note_off_c, 0, 49, 64
4, 447842, Note_on_c, 0, 49, 102
4, 447845, Note_off_c, 0, 55, 64
4, 448082, Note_on_c, 0, 55, 102
4, 448085, Note_off_c, 0, 49, 64
4, 448322, Note_on_c, 0, 48, 102
4, 448325, Note_off_c, 0, 55, 64
4, 448562, Note_on_c, 0, 56, 102
4, 448565, Note_off_c, 0, 48, 64
4, 448802, Note_on_c, 0, 48, 102
4, 448805, Note_off_c, 0, 56, 64
4, 449042, Note_on_c, 0, 56, 102
4, 449045, Note_off_c, 0, 48, 64
4, 449282, Note_on_c, 0, 48, 102
4, 449285, Note_off_c, 0, 56, 64
4, 449522, Note_on_c, 0, 56, 102
4, 449525, Note_off_c, 0, 48, 64
4, 449762, Note_on_c, 0, 46, 102
4, 449765, Note_off_c, 0, 56, 64
4, 450245, Note_off_c, 0, 46, 64
4, 451202, Note_on_c, 0, 39, 102
4, 451442, Note_on_c, 0, 51, 102
4, 451445, Note_off_c, 0, 39, 64
4, 451682, Note_on_c, 0, 41, 102
4, 451685, Note_off_c, 0, 51, 64
4, 451922, Note_on_c, 0, 51, 102
4, 451925, Note_off_c, 0, 41, 64
4, 452162, Note_on_c, 0, 43, 102
4, 452165, Note_off_c, 0, 51, 64
4, 452402, Note_on_c, 0, 51, 102
4, 452405, Note_off_c, 0, 43, 64
4, 452642, Note_on_c, 0, 44, 102
4, 452645, Note_off_c, 0, 51, 64
4, 452882, Note_on_c, 0, 51, 102
4, 452885, Note_off_c, 0, 44, 64
4, 453122, Note_on_c, 0, 46, 102
4, 453125, Note_off_c, 0, 51, 64
4, 453362, Note_on_c, 0, 51, 102
4, 453365, Note_off_c, 0, 46, 64
4, 453602, Note_on_c, 0, 48, 102
4, 453605, Note_off_c, 0, 51, 64
4, 453842, Note_on_c, 0, 51, 102
4, 453845, Note_off_c, 0, 48, 64
4, 454082, Note_on_c, 0, 46, 102
4, 454085, Note_off_c, 0, 51, 64
4, 454322, Note_on_c, 0, 51, 102
4, 454325, Note_off_c, 0, 46, 64
4, 454562, Note_on_c, 0, 44, 102
4, 454565, Note_off_c, 0, 51, 64
4, 454802, Note_on_c, 0, 51, 102
4, 454805, Note_off_c, 0, 44, 64
4, 455042, Note_on_c, 0, 46, 102
4, 455045, Note_off_c, 0, 51, 64
4, 455282, Note_on_c, 0, 50, 102
4, 455285, Note_off_c, 0, 46, 64
4, 455522, Note_on_c, 0, 39, 102
4, 455525, Note_off_c, 0, 50, 64
4, 456005, Note_off_c, 0, 39, 64
4, 456962, Note_on_c, 0, 39, 102
4, 457445, Note_off_c, 0, 39, 64
4, 458642, Note_on_c, 0, 58, 102
4, 458882, Note_on_c, 0, 60, 102
4, 458885, Note_off_c, 0, 58, 64
4, 459122, Note_on_c, 0, 58, 102
4, 459125, Note_off_c, 0, 60, 64
4, 459362, Note_on_c, 0, 60, 102
4, 459365, Note_off_c, 0, 58, 64
4, 459602, Note_on_c, 0, 56, 102
4, 459605, Note_off_c, 0, 60, 64
4, 459842, Note_on_c, 0, 55, 102
4, 459845, Note_off_c, 0, 56, 64
4, 460082, Note_on_c, 0, 60, 102
4, 460085, Note_off_c, 0, 55, 64
4, 460322, Note_on_c, 0, 56, 102
4, 460325, Note_off_c, 0, 60, 64
4, 460565, Note_off_c, 0, 56, 64
4, 460802, Note_on_c, 0, 58, 102
4, 461282, Note_on_c, 0, 51, 102
4, 461285, Note_off_c, 0, 58, 64
4, 462725, Note_off_c, 0, 51, 64
4, 462848, End_track
0, 0, End_of_file
