0, 0, Header, 1, 4, 240
1, 0, Start_track
1, 0, Title_t, "untitled"
1, 0, Time_signature, 4, 2, 24, 8
1, 0, Key_signature, 0, "major"
1, 0, Tempo, 800000
1, 23160, Tempo, 833333
1, 23280, Tempo, 869565
1, 23400, Tempo, 895522
1, 23520, Tempo, 937500
1, 23760, Tempo, 1090909
1, 24000, Tempo, 1153846
1, 24240, Tempo, 1250000
1, 24240, End_track
2, 0, Start_track
2, 0, Title_t, "RH B"
2, 0, Program_c, 0, 0
2, 180, Note_on_c, 0, 69, 64
2, 240, Note_on_c, 0, 69, 0
2, 240, Note_on_c, 0, 65, 64
2, 280, Note_on_c, 0, 65, 0
2, 280, Note_on_c, 0, 62, 64
2, 320, Note_on_c, 0, 62, 0
2, 320, Note_on_c, 0, 69, 64
2, 360, Note_on_c, 0, 69, 0
2, 360, Note_on_c, 0, 65, 64
2, 400, Note_on_c, 0, 65, 0
2, 400, Note_on_c, 0, 62, 64
2, 440, Note_on_c, 0, 62, 0
2, 440, Note_on_c, 0, 74, 64
2, 480, Note_on_c, 0, 74, 0
2, 480, Note_on_c, 0, 70, 64
2, 520, Note_on_c, 0, 70, 0
2, 520, Note_on_c, 0, 67, 64
2, 560, Note_on_c, 0, 67, 0
2, 560, Note_on_c, 0, 70, 64
2, 600, Note_on_c, 0, 70, 0
2, 600, Note_on_c, 0, 67, 64
2, 640, Note_on_c, 0, 67, 0
2, 640, Note_on_c, 0, 64, 64
2, 680, Note_on_c, 0, 64, 0
2, 680, Note_on_c, 0, 67, 64
2, 720, Note_on_c, 0, 67, 0
2, 720, Note_on_c, 0, 64, 64
2, 760, Note_on_c, 0, 64, 0
2, 760, Note_on_c, 0, 61, 64
2, 800, Note_on_c, 0, 61, 0
2, 800, Note_on_c, 0, 67, 64
2, 840, Note_on_c, 0, 67, 0
2, 840, Note_on_c, 0, 64, 64
2, 880, Note_on_c, 0, 64, 0
2, 880, Note_on_c, 0, 61, 64
2, 920, Note_on_c, 0, 61, 0
2, 920, Note_on_c, 0, 69, 64
2, 960, Note_on_c, 0, 69, 0
2, 960, Note_on_c, 0, 65, 64
2, 1000, Note_on_c, 0, 65, 0
2, 1000, Note_on_c, 0, 62, 64
2, 1040, Note_on_c, 0, 62, 0
2, 1040, Note_on_c, 0, 69, 64
2, 1080, Note_on_c, 0, 69, 0
2, 1080, Note_on_c, 0, 65, 64
2, 1120, Note_on_c, 0, 65, 0
2, 1120, Note_on_c, 0, 62, 64
2, 1160, Note_on_c, 0, 62, 0
2, 1160, Note_on_c, 0, 81, 64
2, 1200, Note_on_c, 0, 81, 0
2, 1200, Note_on_c, 0, 77, 64
2, 1240, Note_on_c, 0, 77, 0
2, 1240, Note_on_c, 0, 74, 64
2, 1280, Note_on_c, 0, 74, 0
2, 1280, Note_on_c, 0, 77, 64
2, 1320, Note_on_c, 0, 77, 0
2, 1320, Note_on_c, 0, 74, 64
2, 1360, Note_on_c, 0, 74, 0
2, 1360, Note_on_c, 0, 69, 64
2, 1400, Note_on_c, 0, 69, 0
2, 1400, Note_on_c, 0, 74, 64
2, 1440, Note_on_c, 0, 74, 0
2, 1440, Note_on_c, 0, 70, 64
2, 1480, Note_on_c, 0, 70, 0
2, 1480, Note_on_c, 0, 67, 64
2, 1520, Note_on_c, 0, 67, 0
2, 1520, Note_on_c, 0, 74, 64
2, 1560, Note_on_c, 0, 74, 0
2, 1560, Note_on_c, 0, 70, 64
2, 1600, Note_on_c, 0, 70, 0
2, 1600, Note_on_c, 0, 67, 64
2, 1640, Note_on_c, 0, 67, 0
2, 1640, Note_on_c, 0, 79, 64
2, 1680, Note_on_c, 0, 79, 0
2, 1680, Note_on_c, 0, 76, 64
2, 1720, Note_on_c, 0, 76, 0
2, 1720, Note_on_c, 0, 72, 64
2, 1760, Note_on_c, 0, 72, 0
2, 1760, Note_on_c, 0, 76, 64
2, 1800, Note_on_c, 0, 76, 0
2, 1800, Note_on_c, 0, 72, 64
2, 1840, Note_on_c, 0, 72, 0
2, 1840, Note_on_c, 0, 67, 64
2, 1880, Note_on_c, 0, 67, 0
2, 1880, Note_on_c, 0, 72, 64
2, 1920, Note_on_c, 0, 72, 0
2, 1920, Note_on_c, 0, 69, 64
2, 1960, Note_on_c, 0, 69, 0
2, 1960, Note_on_c, 0, 65, 64
2, 2000, Note_on_c, 0, 65, 0
2, 2000, Note_on_c, 0, 72, 64
2, 2040, Note_on_c, 0, 72, 0
2, 2040, Note_on_c, 0, 69, 64
2, 2080, Note_on_c, 0, 69, 0
2, 2080, Note_on_c, 0, 65, 64
2, 2120, Note_on_c, 0, 65, 0
2, 2120, Note_on_c, 0, 77, 64
2, 2160, Note_on_c, 0, 77, 0
2, 2160, Note_on_c, 0, 74, 64
2, 2200, Note_on_c, 0, 74, 0
2, 2200, Note_on_c, 0, 70, 64
2, 2240, Note_on_c, 0, 70, 0
2, 2240, Note_on_c, 0, 74, 64
2, 2280, Note_on_c, 0, 74, 0
2, 2280, Note_on_c, 0, 70, 64
2, 2320, Note_on_c, 0, 70, 0
2, 2320, Note_on_c, 0, 67, 64
2, 2360, Note_on_c, 0, 67, 0
2, 2360, Note_on_c, 0, 79, 64
2, 2400, Note_on_c, 0, 79, 0
2, 2400, Note_on_c, 0, 76, 64
2, 2440, Note_on_c, 0, 76, 0
2, 2440, Note_on_c, 0, 72, 64
2, 2480, Note_on_c, 0, 72, 0
2, 2480, Note_on_c, 0, 76, 64
2, 2520, Note_on_c, 0, 76, 0
2, 2520, Note_on_c, 0, 72, 64
2, 2560, Note_on_c, 0, 72, 0
2, 2560, Note_on_c, 0, 69, 64
2, 2600, Note_on_c, 0, 69, 0
2, 2600, Note_on_c, 0, 81, 64
2, 2640, Note_on_c, 0, 81, 0
2, 2640, Note_on_c, 0, 77, 64
2, 2680, Note_on_c, 0, 77, 0
2, 2680, Note_on_c, 0, 74, 64
2, 2720, Note_on_c, 0, 74, 0
2, 2720, Note_on_c, 0, 77, 64
2, 2760, Note_on_c, 0, 77, 0
2, 2760, Note_on_c, 0, 74, 64
2, 2800, Note_on_c, 0, 74, 0
2, 2800, Note_on_c, 0, 70, 64
2, 2840, Note_on_c, 0, 70, 0
2, 2840, Note_on_c, 0, 82, 64
2, 2880, Note_on_c, 0, 82, 0
2, 2880, Note_on_c, 0, 79, 64
2, 2920, Note_on_c, 0, 79, 0
2, 2920, Note_on_c, 0, 76, 64
2, 2960, Note_on_c, 0, 76, 0
2, 2960, Note_on_c, 0, 79, 64
2, 3000, Note_on_c, 0, 79, 0
2, 3000, Note_on_c, 0, 76, 64
2, 3040, Note_on_c, 0, 76, 0
2, 3040, Note_on_c, 0, 72, 64
2, 3080, Note_on_c, 0, 72, 0
2, 3080, Note_on_c, 0, 84, 64
2, 3120, Note_on_c, 0, 84, 0
2, 3120, Note_on_c, 0, 81, 64
2, 3160, Note_on_c, 0, 81, 0
2, 3160, Note_on_c, 0, 77, 64
2, 3200, Note_on_c, 0, 77, 0
2, 3200, Note_on_c, 0, 81, 64
2, 3240, Note_on_c, 0, 81, 0
2, 3240, Note_on_c, 0, 77, 64
2, 3280, Note_on_c, 0, 77, 0
2, 3280, Note_on_c, 0, 72, 64
2, 3320, Note_on_c, 0, 72, 0
2, 3320, Note_on_c, 0, 81, 64
2, 3360, Note_on_c, 0, 81, 0
2, 3360, Note_on_c, 0, 77, 64
2, 3400, Note_on_c, 0, 77, 0
2, 3400, Note_on_c, 0, 74, 64
2, 3440, Note_on_c, 0, 74, 0
2, 3440, Note_on_c, 0, 77, 64
2, 3480, Note_on_c, 0, 77, 0
2, 3480, Note_on_c, 0, 74, 64
2, 3520, Note_on_c, 0, 74, 0
2, 3520, Note_on_c, 0, 69, 64
2, 3560, Note_on_c, 0, 69, 0
2, 3560, Note_on_c, 0, 77, 64
2, 3600, Note_on_c, 0, 77, 0
2, 3600, Note_on_c, 0, 74, 64
2, 3640, Note_on_c, 0, 74, 0
2, 3640, Note_on_c, 0, 70, 64
2, 3680, Note_on_c, 0, 70, 0
2, 3680, Note_on_c, 0, 74, 64
2, 3720, Note_on_c, 0, 74, 0
2, 3720, Note_on_c, 0, 70, 64
2, 3760, Note_on_c, 0, 70, 0
2, 3760, Note_on_c, 0, 65, 64
2, 3800, Note_on_c, 0, 65, 0
2, 3800, Note_on_c, 0, 74, 64
2, 3840, Note_on_c, 0, 74, 0
2, 3840, Note_on_c, 0, 70, 64
2, 3880, Note_on_c, 0, 70, 0
2, 3880, Note_on_c, 0, 67, 64
2, 3920, Note_on_c, 0, 67, 0
2, 3920, Note_on_c, 0, 70, 64
2, 3960, Note_on_c, 0, 70, 0
2, 3960, Note_on_c, 0, 67, 64
2, 4000, Note_on_c, 0, 67, 0
2, 4000, Note_on_c, 0, 62, 64
2, 4040, Note_on_c, 0, 62, 0
2, 4040, Note_on_c, 0, 70, 64
2, 4080, Note_on_c, 0, 70, 0
2, 4080, Note_on_c, 0, 67, 64
2, 4120, Note_on_c, 0, 67, 0
2, 4120, Note_on_c, 0, 60, 64
2, 4160, Note_on_c, 0, 60, 0
2, 4160, Note_on_c, 0, 70, 64
2, 4200, Note_on_c, 0, 70, 0
2, 4200, Note_on_c, 0, 67, 64
2, 4240, Note_on_c, 0, 67, 0
2, 4240, Note_on_c, 0, 64, 64
2, 4280, Note_on_c, 0, 64, 0
2, 4280, Note_on_c, 0, 70, 64
2, 4320, Note_on_c, 0, 70, 0
2, 4320, Note_on_c, 0, 69, 64
2, 4360, Note_on_c, 0, 69, 0
2, 4360, Note_on_c, 0, 65, 64
2, 4400, Note_on_c, 0, 65, 0
2, 4400, Note_on_c, 0, 69, 64
2, 4440, Note_on_c, 0, 69, 0
2, 4440, Note_on_c, 0, 65, 64
2, 4480, Note_on_c, 0, 65, 0
2, 4480, Note_on_c, 0, 60, 64
2, 4520, Note_on_c, 0, 60, 0
2, 4520, Note_on_c, 0, 65, 64
2, 4560, Note_on_c, 0, 65, 0
2, 4560, Note_on_c, 0, 62, 64
2, 4600, Note_on_c, 0, 62, 0
2, 4600, Note_on_c, 0, 58, 64
2, 4640, Note_on_c, 0, 58, 0
2, 4640, Note_on_c, 0, 65, 64
2, 4680, Note_on_c, 0, 65, 0
2, 4680, Note_on_c, 0, 60, 64
2, 4720, Note_on_c, 0, 60, 0
2, 4720, Note_on_c, 0, 58, 64
2, 4760, Note_on_c, 0, 58, 0
2, 4760, Note_on_c, 0, 64, 64
2, 4800, Note_on_c, 0, 64, 0
2, 4800, Note_on_c, 0, 60, 64
2, 4840, Note_on_c, 0, 60, 0
2, 4840, Note_on_c, 0, 57, 64
2, 4880, Note_on_c, 0, 57, 0
2, 4880, Note_on_c, 0, 65, 64
2, 4920, Note_on_c, 0, 65, 0
2, 4920, Note_on_c, 0, 60, 64
2, 4960, Note_on_c, 0, 60, 0
2, 4960, Note_on_c, 0, 57, 64
2, 5000, Note_on_c, 0, 57, 0
2, 5000, Note_on_c, 0, 60, 64
2, 5040, Note_on_c, 0, 60, 0
2, 5040, Note_on_c, 0, 57, 64
2, 5080, Note_on_c, 0, 57, 0
2, 5080, Note_on_c, 0, 53, 64
2, 5120, Note_on_c, 0, 53, 0
2, 5120, Note_on_c, 0, 60, 64
2, 5160, Note_on_c, 0, 60, 0
2, 5160, Note_on_c, 0, 57, 64
2, 5200, Note_on_c, 0, 57, 0
2, 5200, Note_on_c, 0, 53, 64
2, 5240, Note_on_c, 0, 53, 0
2, 5240, Note_on_c, 0, 60, 64
2, 5280, Note_on_c, 0, 60, 0
2, 5280, Note_on_c, 0, 57, 64
2, 5320, Note_on_c, 0, 57, 0
2, 5320, Note_on_c, 0, 54, 64
2, 5360, Note_on_c, 0, 54, 0
2, 5360, Note_on_c, 0, 60, 64
2, 5400, Note_on_c, 0, 60, 0
2, 5400, Note_on_c, 0, 57, 64
2, 5440, Note_on_c, 0, 57, 0
2, 5440, Note_on_c, 0, 54, 64
2, 5480, Note_on_c, 0, 54, 0
2, 5480, Note_on_c, 0, 63, 64
2, 5520, Note_on_c, 0, 63, 0
2, 5520, Note_on_c, 0, 57, 64
2, 5560, Note_on_c, 0, 57, 0
2, 5560, Note_on_c, 0, 54, 64
2, 5600, Note_on_c, 0, 54, 0
2, 5600, Note_on_c, 0, 62, 64
2, 5640, Note_on_c, 0, 62, 0
2, 5640, Note_on_c, 0, 57, 64
2, 5680, Note_on_c, 0, 57, 0
2, 5680, Note_on_c, 0, 54, 64
2, 5720, Note_on_c, 0, 54, 0
2, 5720, Note_on_c, 0, 60, 64
2, 5760, Note_on_c, 0, 60, 0
2, 5760, Note_on_c, 0, 58, 64
2, 5800, Note_on_c, 0, 58, 0
2, 5800, Note_on_c, 0, 55, 64
2, 5840, Note_on_c, 0, 55, 0
2, 5840, Note_on_c, 0, 62, 64
2, 5880, Note_on_c, 0, 62, 0
2, 5880, Note_on_c, 0, 58, 64
2, 5920, Note_on_c, 0, 58, 0
2, 5920, Note_on_c, 0, 55, 64
2, 5960, Note_on_c, 0, 55, 0
2, 5960, Note_on_c, 0, 62, 64
2, 6000, Note_on_c, 0, 62, 0
2, 6000, Note_on_c, 0, 58, 64
2, 6040, Note_on_c, 0, 58, 0
2, 6040, Note_on_c, 0, 55, 64
2, 6080, Note_on_c, 0, 55, 0
2, 6080, Note_on_c, 0, 64, 64
2, 6120, Note_on_c, 0, 64, 0
2, 6120, Note_on_c, 0, 58, 64
2, 6160, Note_on_c, 0, 58, 0
2, 6160, Note_on_c, 0, 55, 64
2, 6200, Note_on_c, 0, 55, 0
2, 6200, Note_on_c, 0, 66, 64
2, 6240, Note_on_c, 0, 66, 0
2, 6240, Note_on_c, 0, 58, 64
2, 6280, Note_on_c, 0, 58, 0
2, 6280, Note_on_c, 0, 55, 64
2, 6320, Note_on_c, 0, 55, 0
2, 6320, Note_on_c, 0, 67, 64
2, 6360, Note_on_c, 0, 67, 0
2, 6360, Note_on_c, 0, 62, 64
2, 6400, Note_on_c, 0, 62, 0
2, 6400, Note_on_c, 0, 58, 64
2, 6440, Note_on_c, 0, 58, 0
2, 6440, Note_on_c, 0, 67, 64
2, 6480, Note_on_c, 0, 67, 0
2, 6480, Note_on_c, 0, 63, 64
2, 6520, Note_on_c, 0, 63, 0
2, 6520, Note_on_c, 0, 57, 64
2, 6560, Note_on_c, 0, 57, 0
2, 6560, Note_on_c, 0, 67, 64
2, 6600, Note_on_c, 0, 67, 0
2, 6600, Note_on_c, 0, 62, 64
2, 6640, Note_on_c, 0, 62, 0
2, 6640, Note_on_c, 0, 57, 64
2, 6680, Note_on_c, 0, 57, 0
2, 6680, Note_on_c, 0, 66, 64
2, 6720, Note_on_c, 0, 66, 0
2, 6720, Note_on_c, 0, 62, 64
2, 6760, Note_on_c, 0, 62, 0
2, 6760, Note_on_c, 0, 58, 64
2, 6800, Note_on_c, 0, 58, 0
2, 6800, Note_on_c, 0, 67, 64
2, 6840, Note_on_c, 0, 67, 0
2, 6840, Note_on_c, 0, 62, 64
2, 6880, Note_on_c, 0, 62, 0
2, 6880, Note_on_c, 0, 58, 64
2, 6920, Note_on_c, 0, 58, 0
2, 6920, Note_on_c, 0, 62, 64
2, 6960, Note_on_c, 0, 62, 0
2, 6960, Note_on_c, 0, 58, 64
2, 7000, Note_on_c, 0, 58, 0
2, 7000, Note_on_c, 0, 55, 64
2, 7040, Note_on_c, 0, 55, 0
2, 7040, Note_on_c, 0, 62, 64
2, 7080, Note_on_c, 0, 62, 0
2, 7080, Note_on_c, 0, 58, 64
2, 7120, Note_on_c, 0, 58, 0
2, 7120, Note_on_c, 0, 55, 64
2, 7160, Note_on_c, 0, 55, 0
2, 7160, Note_on_c, 0, 62, 64
2, 7200, Note_on_c, 0, 62, 0
2, 7200, Note_on_c, 0, 59, 64
2, 7240, Note_on_c, 0, 59, 0
2, 7240, Note_on_c, 0, 56, 64
2, 7280, Note_on_c, 0, 56, 0
2, 7280, Note_on_c, 0, 62, 64
2, 7320, Note_on_c, 0, 62, 0
2, 7320, Note_on_c, 0, 59, 64
2, 7360, Note_on_c, 0, 59, 0
2, 7360, Note_on_c, 0, 56, 64
2, 7400, Note_on_c, 0, 56, 0
2, 7400, Note_on_c, 0, 65, 64
2, 7440, Note_on_c, 0, 65, 0
2, 7440, Note_on_c, 0, 59, 64
2, 7480, Note_on_c, 0, 59, 0
2, 7480, Note_on_c, 0, 56, 64
2, 7520, Note_on_c, 0, 56, 0
2, 7520, Note_on_c, 0, 64, 64
2, 7560, Note_on_c, 0, 64, 0
2, 7560, Note_on_c, 0, 59, 64
2, 7600, Note_on_c, 0, 59, 0
2, 7600, Note_on_c, 0, 56, 64
2, 7640, Note_on_c, 0, 56, 0
2, 7640, Note_on_c, 0, 62, 64
2, 7680, Note_on_c, 0, 62, 0
2, 7680, Note_on_c, 0, 60, 64
2, 7720, Note_on_c, 0, 60, 0
2, 7720, Note_on_c, 0, 57, 64
2, 7760, Note_on_c, 0, 57, 0
2, 7760, Note_on_c, 0, 64, 64
2, 7800, Note_on_c, 0, 64, 0
2, 7800, Note_on_c, 0, 60, 64
2, 7840, Note_on_c, 0, 60, 0
2, 7840, Note_on_c, 0, 57, 64
2, 7880, Note_on_c, 0, 57, 0
2, 7880, Note_on_c, 0, 64, 64
2, 7920, Note_on_c, 0, 64, 0
2, 7920, Note_on_c, 0, 60, 64
2, 7960, Note_on_c, 0, 60, 0
2, 7960, Note_on_c, 0, 57, 64
2, 8000, Note_on_c, 0, 57, 0
2, 8000, Note_on_c, 0, 66, 64
2, 8040, Note_on_c, 0, 66, 0
2, 8040, Note_on_c, 0, 60, 64
2, 8080, Note_on_c, 0, 60, 0
2, 8080, Note_on_c, 0, 57, 64
2, 8120, Note_on_c, 0, 57, 0
2, 8120, Note_on_c, 0, 68, 64
2, 8160, Note_on_c, 0, 68, 0
2, 8160, Note_on_c, 0, 60, 64
2, 8200, Note_on_c, 0, 60, 0
2, 8200, Note_on_c, 0, 57, 64
2, 8240, Note_on_c, 0, 57, 0
2, 8240, Note_on_c, 0, 69, 64
2, 8280, Note_on_c, 0, 69, 0
2, 8280, Note_on_c, 0, 64, 64
2, 8320, Note_on_c, 0, 64, 0
2, 8320, Note_on_c, 0, 60, 64
2, 8360, Note_on_c, 0, 60, 0
2, 8360, Note_on_c, 0, 69, 64
2, 8400, Note_on_c, 0, 69, 0
2, 8400, Note_on_c, 0, 65, 64
2, 8440, Note_on_c, 0, 65, 0
2, 8440, Note_on_c, 0, 59, 64
2, 8480, Note_on_c, 0, 59, 0
2, 8480, Note_on_c, 0, 69, 64
2, 8520, Note_on_c, 0, 69, 0
2, 8520, Note_on_c, 0, 64, 64
2, 8560, Note_on_c, 0, 64, 0
2, 8560, Note_on_c, 0, 59, 64
2, 8600, Note_on_c, 0, 59, 0
2, 8600, Note_on_c, 0, 68, 64
2, 8640, Note_on_c, 0, 68, 0
2, 8640, Note_on_c, 0, 64, 64
2, 8680, Note_on_c, 0, 64, 0
2, 8680, Note_on_c, 0, 60, 64
2, 8720, Note_on_c, 0, 60, 0
2, 8720, Note_on_c, 0, 69, 64
2, 8760, Note_on_c, 0, 69, 0
2, 8760, Note_on_c, 0, 64, 64
2, 8800, Note_on_c, 0, 64, 0
2, 8800, Note_on_c, 0, 60, 64
2, 8840, Note_on_c, 0, 60, 0
2, 8840, Note_on_c, 0, 72, 64
2, 8880, Note_on_c, 0, 72, 0
2, 8880, Note_on_c, 0, 65, 64
2, 8920, Note_on_c, 0, 65, 0
2, 8920, Note_on_c, 0, 62, 64
2, 8960, Note_on_c, 0, 62, 0
2, 8960, Note_on_c, 0, 70, 64
2, 9000, Note_on_c, 0, 70, 0
2, 9000, Note_on_c, 0, 67, 64
2, 9040, Note_on_c, 0, 67, 0
2, 9040, Note_on_c, 0, 64, 64
2, 9080, Note_on_c, 0, 64, 0
2, 9080, Note_on_c, 0, 70, 64
2, 9120, Note_on_c, 0, 70, 0
2, 9120, Note_on_c, 0, 69, 64
2, 9160, Note_on_c, 0, 69, 0
2, 9160, Note_on_c, 0, 65, 64
2, 9200, Note_on_c, 0, 65, 0
2, 9200, Note_on_c, 0, 69, 64
2, 9240, Note_on_c, 0, 69, 0
2, 9240, Note_on_c, 0, 60, 64
2, 9280, Note_on_c, 0, 60, 0
2, 9280, Note_on_c, 0, 57, 64
2, 9320, Note_on_c, 0, 57, 0
2, 9320, Note_on_c, 0, 69, 64
2, 9360, Note_on_c, 0, 69, 0
2, 9360, Note_on_c, 0, 62, 64
2, 9400, Note_on_c, 0, 62, 0
2, 9400, Note_on_c, 0, 59, 64
2, 9440, Note_on_c, 0, 59, 0
2, 9440, Note_on_c, 0, 67, 64
2, 9480, Note_on_c, 0, 67, 0
2, 9480, Note_on_c, 0, 64, 64
2, 9520, Note_on_c, 0, 64, 0
2, 9520, Note_on_c, 0, 61, 64
2, 9560, Note_on_c, 0, 61, 0
2, 9560, Note_on_c, 0, 67, 64
2, 9600, Note_on_c, 0, 67, 0
2, 9600, Note_on_c, 0, 65, 64
2, 9640, Note_on_c, 0, 65, 0
2, 9640, Note_on_c, 0, 62, 64
2, 9680, Note_on_c, 0, 62, 0
2, 9680, Note_on_c, 0, 74, 64
2, 9720, Note_on_c, 0, 74, 0
2, 9720, Note_on_c, 0, 69, 64
2, 9760, Note_on_c, 0, 69, 0
2, 9760, Note_on_c, 0, 65, 64
2, 9800, Note_on_c, 0, 65, 0
2, 9800, Note_on_c, 0, 77, 64
2, 9840, Note_on_c, 0, 77, 0
2, 9840, Note_on_c, 0, 70, 64
2, 9880, Note_on_c, 0, 70, 0
2, 9880, Note_on_c, 0, 67, 64
2, 9920, Note_on_c, 0, 67, 0
2, 9920, Note_on_c, 0, 75, 64
2, 9960, Note_on_c, 0, 75, 0
2, 9960, Note_on_c, 0, 72, 64
2, 10000, Note_on_c, 0, 72, 0
2, 10000, Note_on_c, 0, 69, 64
2, 10040, Note_on_c, 0, 69, 0
2, 10040, Note_on_c, 0, 75, 64
2, 10080, Note_on_c, 0, 75, 0
2, 10080, Note_on_c, 0, 74, 64
2, 10120, Note_on_c, 0, 74, 0
2, 10120, Note_on_c, 0, 70, 64
2, 10160, Note_on_c, 0, 70, 0
2, 10160, Note_on_c, 0, 74, 64
2, 10200, Note_on_c, 0, 74, 0
2, 10200, Note_on_c, 0, 65, 64
2, 10240, Note_on_c, 0, 65, 0
2, 10240, Note_on_c, 0, 62, 64
2, 10280, Note_on_c, 0, 62, 0
2, 10280, Note_on_c, 0, 74, 64
2, 10320, Note_on_c, 0, 74, 0
2, 10320, Note_on_c, 0, 67, 64
2, 10360, Note_on_c, 0, 67, 0
2, 10360, Note_on_c, 0, 64, 64
2, 10400, Note_on_c, 0, 64, 0
2, 10400, Note_on_c, 0, 72, 64
2, 10440, Note_on_c, 0, 72, 0
2, 10440, Note_on_c, 0, 69, 64
2, 10480, Note_on_c, 0, 69, 0
2, 10480, Note_on_c, 0, 66, 64
2, 10520, Note_on_c, 0, 66, 0
2, 10520, Note_on_c, 0, 72, 64
2, 10560, Note_on_c, 0, 72, 0
2, 10560, Note_on_c, 0, 70, 64
2, 10600, Note_on_c, 0, 70, 0
2, 10600, Note_on_c, 0, 67, 64
2, 10640, Note_on_c, 0, 67, 0
2, 10640, Note_on_c, 0, 74, 64
2, 10680, Note_on_c, 0, 74, 0
2, 10680, Note_on_c, 0, 70, 64
2, 10720, Note_on_c, 0, 70, 0
2, 10720, Note_on_c, 0, 67, 64
2, 10760, Note_on_c, 0, 67, 0
2, 10760, Note_on_c, 0, 79, 64
2, 10800, Note_on_c, 0, 79, 0
2, 10800, Note_on_c, 0, 75, 64
2, 10840, Note_on_c, 0, 75, 0
2, 10840, Note_on_c, 0, 67, 64
2, 10880, Note_on_c, 0, 67, 0
2, 10880, Note_on_c, 0, 79, 64
2, 10920, Note_on_c, 0, 79, 0
2, 10920, Note_on_c, 0, 74, 64
2, 10960, Note_on_c, 0, 74, 0
2, 10960, Note_on_c, 0, 67, 64
2, 11000, Note_on_c, 0, 67, 0
2, 11000, Note_on_c, 0, 79, 64
2, 11040, Note_on_c, 0, 79, 0
2, 11040, Note_on_c, 0, 73, 64
2, 11080, Note_on_c, 0, 73, 0
2, 11080, Note_on_c, 0, 69, 64
2, 11120, Note_on_c, 0, 69, 0
2, 11120, Note_on_c, 0, 79, 64
2, 11160, Note_on_c, 0, 79, 0
2, 11160, Note_on_c, 0, 76, 64
2, 11200, Note_on_c, 0, 76, 0
2, 11200, Note_on_c, 0, 73, 64
2, 11240, Note_on_c, 0, 73, 0
2, 11240, Note_on_c, 0, 82, 64
2, 11280, Note_on_c, 0, 82, 0
2, 11280, Note_on_c, 0, 76, 64
2, 11320, Note_on_c, 0, 76, 0
2, 11320, Note_on_c, 0, 73, 64
2, 11360, Note_on_c, 0, 73, 0
2, 11360, Note_on_c, 0, 81, 64
2, 11400, Note_on_c, 0, 81, 0
2, 11400, Note_on_c, 0, 76, 64
2, 11440, Note_on_c, 0, 76, 0
2, 11440, Note_on_c, 0, 73, 64
2, 11480, Note_on_c, 0, 73, 0
2, 11480, Note_on_c, 0, 79, 64
2, 11520, Note_on_c, 0, 79, 0
2, 11520, Note_on_c, 0, 77, 64
2, 11560, Note_on_c, 0, 77, 0
2, 11560, Note_on_c, 0, 74, 64
2, 11600, Note_on_c, 0, 74, 0
2, 11600, Note_on_c, 0, 69, 64
2, 11640, Note_on_c, 0, 69, 0
2, 11640, Note_on_c, 0, 65, 64
2, 11680, Note_on_c, 0, 65, 0
2, 11680, Note_on_c, 0, 62, 64
2, 11720, Note_on_c, 0, 62, 0
2, 11720, Note_on_c, 0, 69, 64
2, 11760, Note_on_c, 0, 69, 0
2, 11760, Note_on_c, 0, 65, 64
2, 11800, Note_on_c, 0, 65, 0
2, 11800, Note_on_c, 0, 62, 64
2, 11840, Note_on_c, 0, 62, 0
2, 11840, Note_on_c, 0, 71, 64
2, 11880, Note_on_c, 0, 71, 0
2, 11880, Note_on_c, 0, 65, 64
2, 11920, Note_on_c, 0, 65, 0
2, 11920, Note_on_c, 0, 62, 64
2, 11960, Note_on_c, 0, 62, 0
2, 11960, Note_on_c, 0, 73, 64
2, 12000, Note_on_c, 0, 73, 0
2, 12000, Note_on_c, 0, 65, 64
2, 12040, Note_on_c, 0, 65, 0
2, 12040, Note_on_c, 0, 62, 64
2, 12080, Note_on_c, 0, 62, 0
2, 12080, Note_on_c, 0, 74, 64
2, 12120, Note_on_c, 0, 74, 0
2, 12120, Note_on_c, 0, 65, 64
2, 12160, Note_on_c, 0, 65, 0
2, 12160, Note_on_c, 0, 62, 64
2, 12200, Note_on_c, 0, 62, 0
2, 12200, Note_on_c, 0, 69, 64
2, 12240, Note_on_c, 0, 69, 0
2, 12240, Note_on_c, 0, 65, 64
2, 12280, Note_on_c, 0, 65, 0
2, 12280, Note_on_c, 0, 62, 64
2, 12320, Note_on_c, 0, 62, 0
2, 12320, Note_on_c, 0, 70, 64
2, 12360, Note_on_c, 0, 70, 0
2, 12360, Note_on_c, 0, 64, 64
2, 12400, Note_on_c, 0, 64, 0
2, 12400, Note_on_c, 0, 61, 64
2, 12440, Note_on_c, 0, 61, 0
2, 12440, Note_on_c, 0, 69, 64
2, 12480, Note_on_c, 0, 69, 0
2, 12480, Note_on_c, 0, 64, 64
2, 12520, Note_on_c, 0, 64, 0
2, 12520, Note_on_c, 0, 61, 64
2, 12560, Note_on_c, 0, 61, 0
2, 12560, Note_on_c, 0, 67, 64
2, 12600, Note_on_c, 0, 67, 0
2, 12600, Note_on_c, 0, 62, 64
2, 12640, Note_on_c, 0, 62, 0
2, 12640, Note_on_c, 0, 57, 64
2, 12680, Note_on_c, 0, 57, 0
2, 12680, Note_on_c, 0, 65, 64
2, 12720, Note_on_c, 0, 65, 0
2, 12720, Note_on_c, 0, 62, 64
2, 12760, Note_on_c, 0, 62, 0
2, 12760, Note_on_c, 0, 58, 64
2, 12800, Note_on_c, 0, 58, 0
2, 12800, Note_on_c, 0, 64, 64
2, 12840, Note_on_c, 0, 64, 0
2, 12840, Note_on_c, 0, 60, 64
2, 12880, Note_on_c, 0, 60, 0
2, 12880, Note_on_c, 0, 55, 64
2, 12920, Note_on_c, 0, 55, 0
2, 12920, Note_on_c, 0, 63, 64
2, 12960, Note_on_c, 0, 63, 0
2, 12960, Note_on_c, 0, 58, 64
2, 13000, Note_on_c, 0, 58, 0
2, 13000, Note_on_c, 0, 55, 64
2, 13040, Note_on_c, 0, 55, 0
2, 13040, Note_on_c, 0, 62, 64
2, 13080, Note_on_c, 0, 62, 0
2, 13080, Note_on_c, 0, 57, 64
2, 13120, Note_on_c, 0, 57, 0
2, 13120, Note_on_c, 0, 53, 64
2, 13160, Note_on_c, 0, 53, 0
2, 13160, Note_on_c, 0, 62, 64
2, 13200, Note_on_c, 0, 62, 0
2, 13200, Note_on_c, 0, 58, 64
2, 13240, Note_on_c, 0, 58, 0
2, 13240, Note_on_c, 0, 52, 64
2, 13280, Note_on_c, 0, 52, 0
2, 13280, Note_on_c, 0, 62, 64
2, 13320, Note_on_c, 0, 62, 0
2, 13320, Note_on_c, 0, 57, 64
2, 13360, Note_on_c, 0, 57, 0
2, 13360, Note_on_c, 0, 52, 64
2, 13400, Note_on_c, 0, 52, 0
2, 13400, Note_on_c, 0, 61, 64
2, 13440, Note_on_c, 0, 61, 0
2, 13440, Note_on_c, 0, 57, 64
2, 13480, Note_on_c, 0, 57, 0
2, 13480, Note_on_c, 0, 54, 64
2, 13520, Note_on_c, 0, 54, 0
2, 13520, Note_on_c, 0, 57, 64
2, 13560, Note_on_c, 0, 57, 0
2, 13560, Note_on_c, 0, 60, 64
2, 13600, Note_on_c, 0, 60, 0
2, 13600, Note_on_c, 0, 57, 64
2, 13640, Note_on_c, 0, 57, 0
2, 13640, Note_on_c, 0, 60, 64
2, 13680, Note_on_c, 0, 60, 0
2, 13680, Note_on_c, 0, 63, 64
2, 13720, Note_on_c, 0, 63, 0
2, 13720, Note_on_c, 0, 60, 64
2, 13760, Note_on_c, 0, 60, 0
2, 13760, Note_on_c, 0, 63, 64
2, 13800, Note_on_c, 0, 63, 0
2, 13800, Note_on_c, 0, 66, 64
2, 13920, Note_on_c, 0, 66, 0
2, 13920, Note_on_c, 0, 58, 64
2, 13960, Note_on_c, 0, 58, 0
2, 13960, Note_on_c, 0, 55, 64
2, 14000, Note_on_c, 0, 55, 0
2, 14000, Note_on_c, 0, 58, 64
2, 14040, Note_on_c, 0, 58, 0
2, 14040, Note_on_c, 0, 62, 64
2, 14080, Note_on_c, 0, 62, 0
2, 14080, Note_on_c, 0, 58, 64
2, 14120, Note_on_c, 0, 58, 0
2, 14120, Note_on_c, 0, 62, 64
2, 14160, Note_on_c, 0, 62, 0
2, 14160, Note_on_c, 0, 67, 64
2, 14200, Note_on_c, 0, 67, 0
2, 14200, Note_on_c, 0, 62, 64
2, 14240, Note_on_c, 0, 62, 0
2, 14240, Note_on_c, 0, 67, 64
2, 14280, Note_on_c, 0, 67, 0
2, 14280, Note_on_c, 0, 70, 64
2, 14440, Note_on_c, 0, 70, 0
2, 14440, Note_on_c, 0, 67, 64
2, 14480, Note_on_c, 0, 67, 0
2, 14480, Note_on_c, 0, 76, 64
2, 14520, Note_on_c, 0, 76, 0
2, 14520, Note_on_c, 0, 70, 64
2, 14560, Note_on_c, 0, 70, 0
2, 14560, Note_on_c, 0, 67, 64
2, 14600, Note_on_c, 0, 67, 0
2, 14600, Note_on_c, 0, 79, 64
2, 14640, Note_on_c, 0, 79, 0
2, 14640, Note_on_c, 0, 70, 64
2, 14680, Note_on_c, 0, 70, 0
2, 14680, Note_on_c, 0, 67, 64
2, 14720, Note_on_c, 0, 67, 0
2, 14720, Note_on_c, 0, 76, 64
2, 14760, Note_on_c, 0, 76, 0
2, 14760, Note_on_c, 0, 70, 64
2, 14800, Note_on_c, 0, 70, 0
2, 14800, Note_on_c, 0, 67, 64
2, 14840, Note_on_c, 0, 67, 0
2, 14840, Note_on_c, 0, 73, 64
2, 14880, Note_on_c, 0, 73, 0
2, 14880, Note_on_c, 0, 70, 64
2, 14920, Note_on_c, 0, 70, 0
2, 14920, Note_on_c, 0, 67, 64
2, 14960, Note_on_c, 0, 67, 0
2, 14960, Note_on_c, 0, 76, 64
2, 15000, Note_on_c, 0, 76, 0
2, 15000, Note_on_c, 0, 70, 64
2, 15040, Note_on_c, 0, 70, 0
2, 15040, Note_on_c, 0, 67, 64
2, 15080, Note_on_c, 0, 67, 0
2, 15080, Note_on_c, 0, 79, 64
2, 15120, Note_on_c, 0, 79, 0
2, 15120, Note_on_c, 0, 70, 64
2, 15160, Note_on_c, 0, 70, 0
2, 15160, Note_on_c, 0, 67, 64
2, 15200, Note_on_c, 0, 67, 0
2, 15200, Note_on_c, 0, 76, 64
2, 15240, Note_on_c, 0, 76, 0
2, 15240, Note_on_c, 0, 70, 64
2, 15280, Note_on_c, 0, 70, 0
2, 15280, Note_on_c, 0, 67, 64
2, 15320, Note_on_c, 0, 67, 0
2, 15320, Note_on_c, 0, 73, 64
2, 15360, Note_on_c, 0, 73, 0
2, 15360, Note_on_c, 0, 69, 64
2, 15400, Note_on_c, 0, 69, 0
2, 15400, Note_on_c, 0, 66, 64
2, 15440, Note_on_c, 0, 66, 0
2, 15440, Note_on_c, 0, 74, 64
2, 15480, Note_on_c, 0, 74, 0
2, 15480, Note_on_c, 0, 69, 64
2, 15520, Note_on_c, 0, 69, 0
2, 15520, Note_on_c, 0, 66, 64
2, 15560, Note_on_c, 0, 66, 0
2, 15560, Note_on_c, 0, 75, 64
2, 15600, Note_on_c, 0, 75, 0
2, 15600, Note_on_c, 0, 69, 64
2, 15640, Note_on_c, 0, 69, 0
2, 15640, Note_on_c, 0, 66, 64
2, 15680, Note_on_c, 0, 66, 0
2, 15680, Note_on_c, 0, 74, 64
2, 15720, Note_on_c, 0, 74, 0
2, 15720, Note_on_c, 0, 69, 64
2, 15760, Note_on_c, 0, 69, 0
2, 15760, Note_on_c, 0, 66, 64
2, 15800, Note_on_c, 0, 66, 0
2, 15800, Note_on_c, 0, 72, 64
2, 15840, Note_on_c, 0, 72, 0
2, 15840, Note_on_c, 0, 69, 64
2, 15880, Note_on_c, 0, 69, 0
2, 15880, Note_on_c, 0, 66, 64
2, 15920, Note_on_c, 0, 66, 0
2, 15920, Note_on_c, 0, 74, 64
2, 15960, Note_on_c, 0, 74, 0
2, 15960, Note_on_c, 0, 69, 64
2, 16000, Note_on_c, 0, 69, 0
2, 16000, Note_on_c, 0, 66, 64
2, 16040, Note_on_c, 0, 66, 0
2, 16040, Note_on_c, 0, 75, 64
2, 16080, Note_on_c, 0, 75, 0
2, 16080, Note_on_c, 0, 69, 64
2, 16120, Note_on_c, 0, 69, 0
2, 16120, Note_on_c, 0, 66, 64
2, 16160, Note_on_c, 0, 66, 0
2, 16160, Note_on_c, 0, 74, 64
2, 16200, Note_on_c, 0, 74, 0
2, 16200, Note_on_c, 0, 69, 64
2, 16240, Note_on_c, 0, 69, 0
2, 16240, Note_on_c, 0, 66, 64
2, 16280, Note_on_c, 0, 66, 0
2, 16280, Note_on_c, 0, 72, 64
2, 16320, Note_on_c, 0, 72, 0
2, 16320, Note_on_c, 0, 67, 64
2, 16360, Note_on_c, 0, 67, 0
2, 16360, Note_on_c, 0, 62, 64
2, 16400, Note_on_c, 0, 62, 0
2, 16400, Note_on_c, 0, 67, 64
2, 16440, Note_on_c, 0, 67, 0
2, 16440, Note_on_c, 0, 70, 64
2, 16480, Note_on_c, 0, 70, 0
2, 16480, Note_on_c, 0, 67, 64
2, 16520, Note_on_c, 0, 67, 0
2, 16520, Note_on_c, 0, 70, 64
2, 16560, Note_on_c, 0, 70, 0
2, 16560, Note_on_c, 0, 74, 64
2, 16600, Note_on_c, 0, 74, 0
2, 16600, Note_on_c, 0, 70, 64
2, 16640, Note_on_c, 0, 70, 0
2, 16640, Note_on_c, 0, 74, 64
2, 16680, Note_on_c, 0, 74, 0
2, 16680, Note_on_c, 0, 79, 64
2, 16720, Note_on_c, 0, 79, 0
2, 16720, Note_on_c, 0, 74, 64
2, 16760, Note_on_c, 0, 74, 0
2, 16760, Note_on_c, 0, 79, 64
2, 16800, Note_on_c, 0, 79, 0
2, 16800, Note_on_c, 0, 82, 64
2, 16840, Note_on_c, 0, 82, 0
2, 16840, Note_on_c, 0, 81, 64
2, 16880, Note_on_c, 0, 81, 0
2, 16880, Note_on_c, 0, 79, 64
2, 16920, Note_on_c, 0, 79, 0
2, 16920, Note_on_c, 0, 77, 64
2, 16960, Note_on_c, 0, 77, 0
2, 16960, Note_on_c, 0, 76, 64
2, 17000, Note_on_c, 0, 76, 0
2, 17000, Note_on_c, 0, 74, 64
2, 17040, Note_on_c, 0, 74, 0
2, 17040, Note_on_c, 0, 73, 64
2, 17080, Note_on_c, 0, 73, 0
2, 17080, Note_on_c, 0, 69, 64
2, 17120, Note_on_c, 0, 69, 0
2, 17120, Note_on_c, 0, 73, 64
2, 17160, Note_on_c, 0, 73, 0
2, 17160, Note_on_c, 0, 76, 64
2, 17200, Note_on_c, 0, 76, 0
2, 17200, Note_on_c, 0, 73, 64
2, 17240, Note_on_c, 0, 73, 0
2, 17240, Note_on_c, 0, 76, 64
2, 17280, Note_on_c, 0, 76, 0
2, 17280, Note_on_c, 0, 79, 64
2, 17320, Note_on_c, 0, 79, 0
2, 17320, Note_on_c, 0, 76, 64
2, 17360, Note_on_c, 0, 76, 0
2, 17360, Note_on_c, 0, 74, 64
2, 17400, Note_on_c, 0, 74, 0
2, 17400, Note_on_c, 0, 73, 64
2, 17440, Note_on_c, 0, 73, 0
2, 17440, Note_on_c, 0, 71, 64
2, 17480, Note_on_c, 0, 71, 0
2, 17480, Note_on_c, 0, 69, 64
2, 17520, Note_on_c, 0, 69, 0
2, 17520, Note_on_c, 0, 67, 64
2, 17560, Note_on_c, 0, 67, 0
2, 17560, Note_on_c, 0, 64, 64
2, 17600, Note_on_c, 0, 64, 0
2, 17600, Note_on_c, 0, 67, 64
2, 17640, Note_on_c, 0, 67, 0
2, 17640, Note_on_c, 0, 70, 64
2, 17680, Note_on_c, 0, 70, 0
2, 17680, Note_on_c, 0, 67, 64
2, 17720, Note_on_c, 0, 67, 0
2, 17720, Note_on_c, 0, 70, 64
2, 17760, Note_on_c, 0, 70, 0
2, 17760, Note_on_c, 0, 73, 64
2, 17800, Note_on_c, 0, 73, 0
2, 17800, Note_on_c, 0, 67, 64
2, 17840, Note_on_c, 0, 67, 0
2, 17840, Note_on_c, 0, 76, 64
2, 17880, Note_on_c, 0, 76, 0
2, 17880, Note_on_c, 0, 73, 64
2, 17920, Note_on_c, 0, 73, 0
2, 17920, Note_on_c, 0, 70, 64
2, 17960, Note_on_c, 0, 70, 0
2, 17960, Note_on_c, 0, 76, 64
2, 18000, Note_on_c, 0, 76, 0
2, 18000, Note_on_c, 0, 73, 64
2, 18040, Note_on_c, 0, 73, 0
2, 18040, Note_on_c, 0, 69, 64
2, 18080, Note_on_c, 0, 69, 0
2, 18080, Note_on_c, 0, 76, 64
2, 18120, Note_on_c, 0, 76, 0
2, 18120, Note_on_c, 0, 73, 64
2, 18160, Note_on_c, 0, 73, 0
2, 18160, Note_on_c, 0, 67, 64
2, 18200, Note_on_c, 0, 67, 0
2, 18200, Note_on_c, 0, 76, 64
2, 18240, Note_on_c, 0, 76, 0
2, 18240, Note_on_c, 0, 72, 64
2, 18280, Note_on_c, 0, 72, 0
2, 18280, Note_on_c, 0, 69, 64
2, 18320, Note_on_c, 0, 69, 0
2, 18320, Note_on_c, 0, 74, 64
2, 18360, Note_on_c, 0, 74, 0
2, 18360, Note_on_c, 0, 70, 64
2, 18400, Note_on_c, 0, 70, 0
2, 18400, Note_on_c, 0, 67, 64
2, 18440, Note_on_c, 0, 67, 0
2, 18440, Note_on_c, 0, 75, 64
2, 18480, Note_on_c, 0, 75, 0
2, 18480, Note_on_c, 0, 69, 64
2, 18520, Note_on_c, 0, 69, 0
2, 18520, Note_on_c, 0, 66, 64
2, 18560, Note_on_c, 0, 66, 0
2, 18560, Note_on_c, 0, 74, 64
2, 18600, Note_on_c, 0, 74, 0
2, 18600, Note_on_c, 0, 69, 64
2, 18640, Note_on_c, 0, 69, 0
2, 18640, Note_on_c, 0, 66, 64
2, 18680, Note_on_c, 0, 66, 0
2, 18680, Note_on_c, 0, 72, 64
2, 18720, Note_on_c, 0, 72, 0
2, 18720, Note_on_c, 0, 67, 64
2, 18760, Note_on_c, 0, 67, 0
2, 18760, Note_on_c, 0, 62, 64
2, 18800, Note_on_c, 0, 62, 0
2, 18800, Note_on_c, 0, 70, 64
2, 18840, Note_on_c, 0, 70, 0
2, 18840, Note_on_c, 0, 67, 64
2, 18880, Note_on_c, 0, 67, 0
2, 18880, Note_on_c, 0, 65, 64
2, 18920, Note_on_c, 0, 65, 0
2, 18920, Note_on_c, 0, 70, 64
2, 18960, Note_on_c, 0, 70, 0
2, 18960, Note_on_c, 0, 67, 64
2, 19000, Note_on_c, 0, 67, 0
2, 19000, Note_on_c, 0, 63, 64
2, 19040, Note_on_c, 0, 63, 0
2, 19040, Note_on_c, 0, 70, 64
2, 19080, Note_on_c, 0, 70, 0
2, 19080, Note_on_c, 0, 67, 64
2, 19120, Note_on_c, 0, 67, 0
2, 19120, Note_on_c, 0, 62, 64
2, 19160, Note_on_c, 0, 62, 0
2, 19160, Note_on_c, 0, 70, 64
2, 19200, Note_on_c, 0, 70, 0
2, 19200, Note_on_c, 0, 67, 64
2, 19240, Note_on_c, 0, 67, 0
2, 19240, Note_on_c, 0, 61, 64
2, 19280, Note_on_c, 0, 61, 0
2, 19280, Note_on_c, 0, 70, 64
2, 19320, Note_on_c, 0, 70, 0
2, 19320, Note_on_c, 0, 64, 64
2, 19360, Note_on_c, 0, 64, 0
2, 19360, Note_on_c, 0, 61, 64
2, 19400, Note_on_c, 0, 61, 0
2, 19400, Note_on_c, 0, 70, 64
2, 19440, Note_on_c, 0, 70, 0
2, 19440, Note_on_c, 0, 64, 64
2, 19480, Note_on_c, 0, 64, 0
2, 19480, Note_on_c, 0, 61, 64
2, 19520, Note_on_c, 0, 61, 0
2, 19520, Note_on_c, 0, 69, 64
2, 19560, Note_on_c, 0, 69, 0
2, 19560, Note_on_c, 0, 64, 64
2, 19600, Note_on_c, 0, 64, 0
2, 19600, Note_on_c, 0, 61, 64
2, 19640, Note_on_c, 0, 61, 0
2, 19640, Note_on_c, 0, 67, 64
2, 19680, Note_on_c, 0, 67, 0
2, 19680, Note_on_c, 0, 62, 64
2, 19720, Note_on_c, 0, 62, 0
2, 19720, Note_on_c, 0, 59, 64
2, 19760, Note_on_c, 0, 59, 0
2, 19760, Note_on_c, 0, 65, 64
2, 19800, Note_on_c, 0, 65, 0
2, 19800, Note_on_c, 0, 62, 64
2, 19840, Note_on_c, 0, 62, 0
2, 19840, Note_on_c, 0, 61, 64
2, 19880, Note_on_c, 0, 61, 0
2, 19880, Note_on_c, 0, 65, 64
2, 19920, Note_on_c, 0, 65, 0
2, 19920, Note_on_c, 0, 62, 64
2, 19960, Note_on_c, 0, 62, 0
2, 19960, Note_on_c, 0, 59, 64
2, 20000, Note_on_c, 0, 59, 0
2, 20000, Note_on_c, 0, 65, 64
2, 20040, Note_on_c, 0, 65, 0
2, 20040, Note_on_c, 0, 62, 64
2, 20080, Note_on_c, 0, 62, 0
2, 20080, Note_on_c, 0, 57, 64
2, 20120, Note_on_c, 0, 57, 0
2, 20120, Note_on_c, 0, 65, 64
2, 20160, Note_on_c, 0, 65, 0
2, 20160, Note_on_c, 0, 61, 64
2, 20200, Note_on_c, 0, 61, 0
2, 20200, Note_on_c, 0, 55, 64
2, 20240, Note_on_c, 0, 55, 0
2, 20240, Note_on_c, 0, 64, 64
2, 20280, Note_on_c, 0, 64, 0
2, 20280, Note_on_c, 0, 61, 64
2, 20320, Note_on_c, 0, 61, 0
2, 20320, Note_on_c, 0, 58, 64
2, 20360, Note_on_c, 0, 58, 0
2, 20360, Note_on_c, 0, 64, 64
2, 20400, Note_on_c, 0, 64, 0
2, 20400, Note_on_c, 0, 61, 64
2, 20440, Note_on_c, 0, 61, 0
2, 20440, Note_on_c, 0, 57, 64
2, 20480, Note_on_c, 0, 57, 0
2, 20480, Note_on_c, 0, 64, 64
2, 20520, Note_on_c, 0, 64, 0
2, 20520, Note_on_c, 0, 61, 64
2, 20560, Note_on_c, 0, 61, 0
2, 20560, Note_on_c, 0, 55, 64
2, 20600, Note_on_c, 0, 55, 0
2, 20600, Note_on_c, 0, 64, 64
2, 20640, Note_on_c, 0, 64, 0
2, 20640, Note_on_c, 0, 59, 64
2, 20680, Note_on_c, 0, 59, 0
2, 20680, Note_on_c, 0, 56, 64
2, 20720, Note_on_c, 0, 56, 0
2, 20720, Note_on_c, 0, 62, 64
2, 20760, Note_on_c, 0, 62, 0
2, 20760, Note_on_c, 0, 61, 64
2, 20800, Note_on_c, 0, 61, 0
2, 20800, Note_on_c, 0, 56, 64
2, 20840, Note_on_c, 0, 56, 0
2, 20840, Note_on_c, 0, 64, 64
2, 20880, Note_on_c, 0, 64, 0
2, 20880, Note_on_c, 0, 62, 64
2, 20920, Note_on_c, 0, 62, 0
2, 20920, Note_on_c, 0, 56, 64
2, 20960, Note_on_c, 0, 56, 0
2, 20960, Note_on_c, 0, 65, 64
2, 21000, Note_on_c, 0, 65, 0
2, 21000, Note_on_c, 0, 55, 64
2, 21160, Note_on_c, 0, 55, 0
2, 21160, Note_on_c, 0, 52, 64
2, 21200, Note_on_c, 0, 52, 0
2, 21200, Note_on_c, 0, 55, 64
2, 21240, Note_on_c, 0, 55, 0
2, 21240, Note_on_c, 0, 61, 64
2, 21280, Note_on_c, 0, 61, 0
2, 21280, Note_on_c, 0, 55, 64
2, 21320, Note_on_c, 0, 55, 0
2, 21320, Note_on_c, 0, 61, 64
2, 21360, Note_on_c, 0, 61, 0
2, 21360, Note_on_c, 0, 64, 64
2, 21400, Note_on_c, 0, 64, 0
2, 21400, Note_on_c, 0, 61, 64
2, 21440, Note_on_c, 0, 61, 0
2, 21440, Note_on_c, 0, 64, 64
2, 21480, Note_on_c, 0, 64, 0
2, 21480, Note_on_c, 0, 67, 64
2, 21600, Note_on_c, 0, 67, 0
2, 21600, Note_on_c, 0, 65, 64
2, 21640, Note_on_c, 0, 65, 0
2, 21640, Note_on_c, 0, 62, 64
2, 21680, Note_on_c, 0, 62, 0
2, 21680, Note_on_c, 0, 65, 64
2, 21720, Note_on_c, 0, 65, 0
2, 21720, Note_on_c, 0, 69, 64
2, 21760, Note_on_c, 0, 69, 0
2, 21760, Note_on_c, 0, 65, 64
2, 21800, Note_on_c, 0, 65, 0
2, 21800, Note_on_c, 0, 69, 64
2, 21840, Note_on_c, 0, 69, 0
2, 21840, Note_on_c, 0, 74, 64
2, 21880, Note_on_c, 0, 74, 0
2, 21880, Note_on_c, 0, 69, 64
2, 21920, Note_on_c, 0, 69, 0
2, 21920, Note_on_c, 0, 74, 64
2, 21960, Note_on_c, 0, 74, 0
2, 21960, Note_on_c, 0, 77, 64
2, 22120, Note_on_c, 0, 77, 0
2, 22120, Note_on_c, 0, 71, 64
2, 22160, Note_on_c, 0, 71, 0
2, 22160, Note_on_c, 0, 74, 65
2, 22200, Note_on_c, 0, 74, 0
2, 22200, Note_on_c, 0, 77, 65
2, 22240, Note_on_c, 0, 77, 0
2, 22240, Note_on_c, 0, 74, 66
2, 22280, Note_on_c, 0, 74, 0
2, 22280, Note_on_c, 0, 77, 67
2, 22320, Note_on_c, 0, 77, 0
2, 22320, Note_on_c, 0, 80, 67
2, 22360, Note_on_c, 0, 80, 0
2, 22360, Note_on_c, 0, 77, 68
2, 22400, Note_on_c, 0, 77, 0
2, 22400, Note_on_c, 0, 80, 69
2, 22440, Note_on_c, 0, 80, 0
2, 22440, Note_on_c, 0, 83, 69
2, 22480, Note_on_c, 0, 83, 0
2, 22480, Note_on_c, 0, 80, 70
2, 22520, Note_on_c, 0, 80, 0
2, 22520, Note_on_c, 0, 77, 71
2, 22560, Note_on_c, 0, 77, 0
2, 22560, Note_on_c, 0, 82, 71
2, 22600, Note_on_c, 0, 82, 0
2, 22600, Note_on_c, 0, 79, 70
2, 22640, Note_on_c, 0, 79, 0
2, 22640, Note_on_c, 0, 76, 69
2, 22680, Note_on_c, 0, 76, 0
2, 22680, Note_on_c, 0, 81, 68
2, 22720, Note_on_c, 0, 81, 0
2, 22720, Note_on_c, 0, 78, 67
2, 22760, Note_on_c, 0, 78, 0
2, 22760, Note_on_c, 0, 75, 66
2, 22800, Note_on_c, 0, 75, 0
2, 22800, Note_on_c, 0, 80, 65
2, 22840, Note_on_c, 0, 80, 0
2, 22840, Note_on_c, 0, 77, 64
2, 22880, Note_on_c, 0, 77, 0
2, 22880, Note_on_c, 0, 74, 64
2, 22920, Note_on_c, 0, 74, 0
2, 22920, Note_on_c, 0, 79, 63
2, 22960, Note_on_c, 0, 79, 0
2, 22960, Note_on_c, 0, 76, 62
2, 23000, Note_on_c, 0, 76, 0
2, 23000, Note_on_c, 0, 73, 61
2, 23040, Note_on_c, 0, 73, 0
2, 23040, Note_on_c, 0, 78, 62
2, 23080, Note_on_c, 0, 78, 0
2, 23080, Note_on_c, 0, 75, 63
2, 23120, Note_on_c, 0, 75, 0
2, 23120, Note_on_c, 0, 72, 64
2, 23160, Note_on_c, 0, 72, 0
2, 23160, Note_on_c, 0, 77, 65
2, 23200, Note_on_c, 0, 77, 0
2, 23200, Note_on_c, 0, 74, 66
2, 23240, Note_on_c, 0, 74, 0
2, 23240, Note_on_c, 0, 71, 68
2, 23280, Note_on_c, 0, 71, 0
2, 23280, Note_on_c, 0, 76, 69
2, 23320, Note_on_c, 0, 76, 0
2, 23320, Note_on_c, 0, 73, 70
2, 23360, Note_on_c, 0, 73, 0
2, 23360, Note_on_c, 0, 70, 71
2, 23400, Note_on_c, 0, 70, 0
2, 23400, Note_on_c, 0, 75, 72
2, 23440, Note_on_c, 0, 75, 0
2, 23440, Note_on_c, 0, 72, 73
2, 23480, Note_on_c, 0, 72, 0
2, 23480, Note_on_c, 0, 69, 74
2, 23520, Note_on_c, 0, 69, 0
2, 23520, Note_on_c, 0, 74, 75
2, 23760, Note_on_c, 0, 71, 62
2, 23760, Note_on_c, 0, 65, 62
2, 23760, Note_on_c, 0, 68, 62
2, 23760, Note_on_c, 0, 62, 62
2, 24000, Note_on_c, 0, 62, 0
2, 24000, Note_on_c, 0, 65, 0
2, 24000, Note_on_c, 0, 68, 0
2, 24000, Note_on_c, 0, 71, 0
2, 24000, Note_on_c, 0, 69, 66
2, 24000, Note_on_c, 0, 65, 66
2, 24000, Note_on_c, 0, 62, 66
2, 24240, Note_on_c, 0, 62, 0
2, 24240, Note_on_c, 0, 65, 0
2, 24240, Note_on_c, 0, 74, 0
2, 24240, Note_on_c, 0, 73, 71
2, 24240, Note_on_c, 0, 67, 71
2, 24240, Note_on_c, 0, 64, 71
2, 24240, Note_on_c, 0, 73, 71
2, 24480, Note_on_c, 0, 73, 0
2, 24480, Note_on_c, 0, 67, 0
2, 24480, Note_on_c, 0, 69, 0
2, 24480, Note_on_c, 0, 73, 0
2, 24480, Note_on_c, 0, 64, 0
2, 24480, Note_on_c, 0, 69, 75
2, 24480, Note_on_c, 0, 66, 75
2, 24480, Note_on_c, 0, 62, 75
2, 24480, Note_on_c, 0, 74, 75
2, 24960, Note_on_c, 0, 74, 0
2, 24960, Note_on_c, 0, 69, 0
2, 24960, Note_on_c, 0, 66, 0
2, 24960, Note_on_c, 0, 62, 0
2, 24960, End_track
3, 0, Start_track
3, 0, Title_t, "LH B"
3, 0, Program_c, 1, 0
3, 0, Note_on_c, 1, 50, 64
3, 115, Note_on_c, 1, 50, 0
3, 120, Note_on_c, 1, 50, 64
3, 235, Note_on_c, 1, 50, 0
3, 240, Note_on_c, 1, 50, 64
3, 355, Note_on_c, 1, 50, 0
3, 360, Note_on_c, 1, 50, 64
3, 475, Note_on_c, 1, 50, 0
3, 480, Note_on_c, 1, 50, 64
3, 595, Note_on_c, 1, 50, 0
3, 600, Note_on_c, 1, 50, 64
3, 715, Note_on_c, 1, 50, 0
3, 720, Note_on_c, 1, 50, 64
3, 835, Note_on_c, 1, 50, 0
3, 840, Note_on_c, 1, 50, 64
3, 955, Note_on_c, 1, 50, 0
3, 960, Note_on_c, 1, 50, 64
3, 1075, Note_on_c, 1, 50, 0
3, 1080, Note_on_c, 1, 50, 64
3, 1195, Note_on_c, 1, 50, 0
3, 1200, Note_on_c, 1, 62, 64
3, 1315, Note_on_c, 1, 62, 0
3, 1320, Note_on_c, 1, 62, 64
3, 1435, Note_on_c, 1, 62, 0
3, 1440, Note_on_c, 1, 55, 64
3, 1555, Note_on_c, 1, 55, 0
3, 1560, Note_on_c, 1, 55, 64
3, 1675, Note_on_c, 1, 55, 0
3, 1680, Note_on_c, 1, 60, 64
3, 1795, Note_on_c, 1, 60, 0
3, 1800, Note_on_c, 1, 60, 64
3, 1915, Note_on_c, 1, 60, 0
3, 1920, Note_on_c, 1, 53, 64
3, 2035, Note_on_c, 1, 53, 0
3, 2040, Note_on_c, 1, 53, 64
3, 2155, Note_on_c, 1, 53, 0
3, 2160, Note_on_c, 1, 58, 64
3, 2275, Note_on_c, 1, 58, 0
3, 2280, Note_on_c, 1, 55, 64
3, 2395, Note_on_c, 1, 55, 0
3, 2400, Note_on_c, 1, 60, 64
3, 2515, Note_on_c, 1, 60, 0
3, 2520, Note_on_c, 1, 57, 64
3, 2635, Note_on_c, 1, 57, 0
3, 2640, Note_on_c, 1, 62, 64
3, 2755, Note_on_c, 1, 62, 0
3, 2760, Note_on_c, 1, 50, 64
3, 2875, Note_on_c, 1, 50, 0
3, 2880, Note_on_c, 1, 52, 64
3, 2995, Note_on_c, 1, 52, 0
3, 3000, Note_on_c, 1, 48, 64
3, 3115, Note_on_c, 1, 48, 0
3, 3120, Note_on_c, 1, 53, 64
3, 3235, Note_on_c, 1, 53, 0
3, 3240, Note_on_c, 1, 52, 64
3, 3355, Note_on_c, 1, 52, 0
3, 3360, Note_on_c, 1, 50, 64
3, 3475, Note_on_c, 1, 50, 0
3, 3480, Note_on_c, 1, 48, 64
3, 3595, Note_on_c, 1, 48, 0
3, 3600, Note_on_c, 1, 46, 64
3, 3715, Note_on_c, 1, 46, 0
3, 3720, Note_on_c, 1, 45, 64
3, 3835, Note_on_c, 1, 45, 0
3, 3840, Note_on_c, 1, 43, 64
3, 3955, Note_on_c, 1, 43, 0
3, 3960, Note_on_c, 1, 41, 64
3, 4075, Note_on_c, 1, 41, 0
3, 4080, Note_on_c, 1, 40, 64
3, 4195, Note_on_c, 1, 40, 0
3, 4200, Note_on_c, 1, 36, 64
3, 4315, Note_on_c, 1, 36, 0
3, 4320, Note_on_c, 1, 41, 64
3, 4435, Note_on_c, 1, 41, 0
3, 4440, Note_on_c, 1, 45, 64
3, 4555, Note_on_c, 1, 45, 0
3, 4560, Note_on_c, 1, 46, 64
3, 4675, Note_on_c, 1, 46, 0
3, 4680, Note_on_c, 1, 48, 64
3, 4795, Note_on_c, 1, 48, 0
3, 4800, Note_on_c, 1, 41, 64
3, 5040, Note_on_c, 1, 41, 0
3, 5160, Note_on_c, 1, 51, 64
3, 5275, Note_on_c, 1, 51, 0
3, 5280, Note_on_c, 1, 50, 64
3, 5395, Note_on_c, 1, 50, 0
3, 5400, Note_on_c, 1, 48, 64
3, 5515, Note_on_c, 1, 48, 0
3, 5520, Note_on_c, 1, 46, 64
3, 5635, Note_on_c, 1, 46, 0
3, 5640, Note_on_c, 1, 45, 64
3, 5755, Note_on_c, 1, 45, 0
3, 5760, Note_on_c, 1, 43, 64
3, 5875, Note_on_c, 1, 43, 0
3, 5880, Note_on_c, 1, 46, 64
3, 5995, Note_on_c, 1, 46, 0
3, 6000, Note_on_c, 1, 48, 64
3, 6115, Note_on_c, 1, 48, 0
3, 6120, Note_on_c, 1, 50, 64
3, 6235, Note_on_c, 1, 50, 0
3, 6240, Note_on_c, 1, 51, 64
3, 6355, Note_on_c, 1, 51, 0
3, 6360, Note_on_c, 1, 46, 64
3, 6475, Note_on_c, 1, 46, 0
3, 6480, Note_on_c, 1, 48, 64
3, 6595, Note_on_c, 1, 48, 0
3, 6600, Note_on_c, 1, 50, 64
3, 6715, Note_on_c, 1, 50, 0
3, 6720, Note_on_c, 1, 43, 64
3, 6960, Note_on_c, 1, 43, 0
3, 7080, Note_on_c, 1, 53, 64
3, 7195, Note_on_c, 1, 53, 0
3, 7200, Note_on_c, 1, 52, 64
3, 7315, Note_on_c, 1, 52, 0
3, 7320, Note_on_c, 1, 50, 64
3, 7435, Note_on_c, 1, 50, 0
3, 7440, Note_on_c, 1, 48, 64
3, 7555, Note_on_c, 1, 48, 0
3, 7560, Note_on_c, 1, 47, 64
3, 7675, Note_on_c, 1, 47, 0
3, 7680, Note_on_c, 1, 45, 64
3, 7795, Note_on_c, 1, 45, 0
3, 7800, Note_on_c, 1, 48, 64
3, 7915, Note_on_c, 1, 48, 0
3, 7920, Note_on_c, 1, 50, 64
3, 8035, Note_on_c, 1, 50, 0
3, 8040, Note_on_c, 1, 52, 64
3, 8155, Note_on_c, 1, 52, 0
3, 8160, Note_on_c, 1, 53, 64
3, 8275, Note_on_c, 1, 53, 0
3, 8280, Note_on_c, 1, 48, 64
3, 8395, Note_on_c, 1, 48, 0
3, 8400, Note_on_c, 1, 50, 64
3, 8515, Note_on_c, 1, 50, 0
3, 8520, Note_on_c, 1, 52, 64
3, 8635, Note_on_c, 1, 52, 0
3, 8640, Note_on_c, 1, 45, 64
3, 8755, Note_on_c, 1, 45, 0
3, 8760, Note_on_c, 1, 57, 64
3, 8875, Note_on_c, 1, 57, 0
3, 8880, Note_on_c, 1, 57, 64
3, 8995, Note_on_c, 1, 57, 0
3, 9000, Note_on_c, 1, 55, 64
3, 9115, Note_on_c, 1, 55, 0
3, 9120, Note_on_c, 1, 53, 64
3, 9235, Note_on_c, 1, 53, 0
3, 9240, Note_on_c, 1, 41, 64
3, 9355, Note_on_c, 1, 41, 0
3, 9360, Note_on_c, 1, 41, 64
3, 9475, Note_on_c, 1, 41, 0
3, 9480, Note_on_c, 1, 40, 64
3, 9595, Note_on_c, 1, 40, 0
3, 9600, Note_on_c, 1, 38, 64
3, 9715, Note_on_c, 1, 38, 0
3, 9720, Note_on_c, 1, 50, 64
3, 9835, Note_on_c, 1, 50, 0
3, 9840, Note_on_c, 1, 50, 64
3, 9955, Note_on_c, 1, 50, 0
3, 9960, Note_on_c, 1, 48, 64
3, 10075, Note_on_c, 1, 48, 0
3, 10080, Note_on_c, 1, 46, 64
3, 10195, Note_on_c, 1, 46, 0
3, 10200, Note_on_c, 1, 58, 64
3, 10315, Note_on_c, 1, 58, 0
3, 10320, Note_on_c, 1, 58, 64
3, 10435, Note_on_c, 1, 58, 0
3, 10440, Note_on_c, 1, 57, 64
3, 10555, Note_on_c, 1, 57, 0
3, 10560, Note_on_c, 1, 55, 64
3, 10800, Note_on_c, 1, 55, 0
3, 10920, Note_on_c, 1, 58, 64
3, 11035, Note_on_c, 1, 58, 0
3, 11040, Note_on_c, 1, 57, 64
3, 11155, Note_on_c, 1, 57, 0
3, 11160, Note_on_c, 1, 55, 64
3, 11275, Note_on_c, 1, 55, 0
3, 11280, Note_on_c, 1, 53, 64
3, 11395, Note_on_c, 1, 53, 0
3, 11400, Note_on_c, 1, 52, 64
3, 11515, Note_on_c, 1, 52, 0
3, 11520, Note_on_c, 1, 50, 64
3, 11635, Note_on_c, 1, 50, 0
3, 11640, Note_on_c, 1, 53, 64
3, 11755, Note_on_c, 1, 53, 0
3, 11760, Note_on_c, 1, 55, 64
3, 11875, Note_on_c, 1, 55, 0
3, 11880, Note_on_c, 1, 57, 64
3, 11995, Note_on_c, 1, 57, 0
3, 12000, Note_on_c, 1, 58, 64
3, 12115, Note_on_c, 1, 58, 0
3, 12120, Note_on_c, 1, 53, 64
3, 12235, Note_on_c, 1, 53, 0
3, 12240, Note_on_c, 1, 55, 64
3, 12355, Note_on_c, 1, 55, 0
3, 12360, Note_on_c, 1, 57, 64
3, 12475, Note_on_c, 1, 57, 0
3, 12480, Note_on_c, 1, 46, 64
3, 12595, Note_on_c, 1, 46, 0
3, 12600, Note_on_c, 1, 41, 64
3, 12715, Note_on_c, 1, 41, 0
3, 12720, Note_on_c, 1, 43, 64
3, 12835, Note_on_c, 1, 43, 0
3, 12840, Note_on_c, 1, 45, 64
3, 12955, Note_on_c, 1, 45, 0
3, 12960, Note_on_c, 1, 46, 64
3, 13075, Note_on_c, 1, 46, 0
3, 13080, Note_on_c, 1, 41, 64
3, 13195, Note_on_c, 1, 41, 0
3, 13200, Note_on_c, 1, 43, 64
3, 13315, Note_on_c, 1, 43, 0
3, 13320, Note_on_c, 1, 45, 64
3, 13435, Note_on_c, 1, 45, 0
3, 13440, Note_on_c, 1, 38, 64
3, 13800, Note_on_c, 1, 38, 0
3, 13840, Note_on_c, 1, 42, 64
3, 13880, Note_on_c, 1, 42, 0
3, 13880, Note_on_c, 1, 45, 64
3, 13920, Note_on_c, 1, 45, 0
3, 13920, Note_on_c, 1, 50, 64
3, 14280, Note_on_c, 1, 50, 0
3, 14320, Note_on_c, 1, 55, 64
3, 14360, Note_on_c, 1, 55, 0
3, 14360, Note_on_c, 1, 58, 64
3, 14400, Note_on_c, 1, 58, 0
3, 14400, Note_on_c, 1, 61, 64
3, 14520, Note_on_c, 1, 61, 0
3, 14520, Note_on_c, 1, 50, 64
3, 14640, Note_on_c, 1, 50, 0
3, 14640, Note_on_c, 1, 61, 64
3, 14760, Note_on_c, 1, 61, 0
3, 14760, Note_on_c, 1, 50, 64
3, 14880, Note_on_c, 1, 50, 0
3, 14880, Note_on_c, 1, 61, 64
3, 15000, Note_on_c, 1, 61, 0
3, 15000, Note_on_c, 1, 50, 64
3, 15120, Note_on_c, 1, 50, 0
3, 15120, Note_on_c, 1, 61, 64
3, 15240, Note_on_c, 1, 61, 0
3, 15240, Note_on_c, 1, 50, 64
3, 15360, Note_on_c, 1, 50, 0
3, 15360, Note_on_c, 1, 60, 64
3, 15480, Note_on_c, 1, 60, 0
3, 15480, Note_on_c, 1, 50, 64
3, 15600, Note_on_c, 1, 50, 0
3, 15600, Note_on_c, 1, 60, 64
3, 15720, Note_on_c, 1, 60, 0
3, 15720, Note_on_c, 1, 50, 64
3, 15840, Note_on_c, 1, 50, 0
3, 15840, Note_on_c, 1, 60, 64
3, 15960, Note_on_c, 1, 60, 0
3, 15960, Note_on_c, 1, 50, 64
3, 16080, Note_on_c, 1, 50, 0
3, 16080, Note_on_c, 1, 60, 64
3, 16200, Note_on_c, 1, 60, 0
3, 16200, Note_on_c, 1, 50, 64
3, 16320, Note_on_c, 1, 50, 0
3, 16320, Note_on_c, 1, 58, 64
3, 16440, Note_on_c, 1, 58, 0
3, 16440, Note_on_c, 1, 50, 64
3, 16560, Note_on_c, 1, 50, 0
3, 16560, Note_on_c, 1, 58, 64
3, 16680, Note_on_c, 1, 58, 0
3, 16680, Note_on_c, 1, 50, 64
3, 16800, Note_on_c, 1, 50, 0
3, 16800, Note_on_c, 1, 55, 64
3, 16920, Note_on_c, 1, 55, 0
3, 16920, Note_on_c, 1, 50, 64
3, 17040, Note_on_c, 1, 50, 0
3, 17040, Note_on_c, 1, 55, 64
3, 17160, Note_on_c, 1, 55, 0
3, 17160, Note_on_c, 1, 50, 64
3, 17280, Note_on_c, 1, 50, 0
3, 17280, Note_on_c, 1, 52, 64
3, 17400, Note_on_c, 1, 52, 0
3, 17400, Note_on_c, 1, 50, 64
3, 17520, Note_on_c, 1, 50, 0
3, 17520, Note_on_c, 1, 52, 64
3, 17640, Note_on_c, 1, 52, 0
3, 17640, Note_on_c, 1, 50, 64
3, 17760, Note_on_c, 1, 50, 0
3, 17760, Note_on_c, 1, 52, 64
3, 17880, Note_on_c, 1, 52, 0
3, 17880, Note_on_c, 1, 50, 64
3, 18000, Note_on_c, 1, 50, 0
3, 18000, Note_on_c, 1, 52, 64
3, 18120, Note_on_c, 1, 52, 0
3, 18120, Note_on_c, 1, 50, 64
3, 18240, Note_on_c, 1, 50, 0
3, 18240, Note_on_c, 1, 54, 64
3, 18360, Note_on_c, 1, 54, 0
3, 18360, Note_on_c, 1, 50, 64
3, 18480, Note_on_c, 1, 50, 0
3, 18480, Note_on_c, 1, 54, 64
3, 18600, Note_on_c, 1, 54, 0
3, 18600, Note_on_c, 1, 50, 64
3, 18720, Note_on_c, 1, 55, 64
3, 18840, Note_on_c, 1, 55, 0
3, 18840, Note_on_c, 1, 57, 64
3, 18960, Note_on_c, 1, 57, 0
3, 18960, Note_on_c, 1, 55, 64
3, 19080, Note_on_c, 1, 55, 0
3, 19080, Note_on_c, 1, 53, 64
3, 19200, Note_on_c, 1, 53, 0
3, 19200, Note_on_c, 1, 52, 64
3, 19320, Note_on_c, 1, 52, 0
3, 19320, Note_on_c, 1, 55, 64
3, 19440, Note_on_c, 1, 55, 0
3, 19440, Note_on_c, 1, 53, 64
3, 19560, Note_on_c, 1, 53, 0
3, 19560, Note_on_c, 1, 52, 64
3, 19670, Note_on_c, 1, 50, 0
3, 19680, Note_on_c, 1, 52, 0
3, 19680, Note_on_c, 1, 44, 64
3, 19680, Note_on_c, 1, 50, 64
3, 19800, Note_on_c, 1, 50, 0
3, 19800, Note_on_c, 1, 52, 64
3, 19920, Note_on_c, 1, 52, 0
3, 19920, Note_on_c, 1, 53, 64
3, 20040, Note_on_c, 1, 44, 0
3, 20040, Note_on_c, 1, 45, 64
3, 20160, Note_on_c, 1, 45, 0
3, 20160, Note_on_c, 1, 53, 0
3, 20160, Note_on_c, 1, 46, 64
3, 20160, Note_on_c, 1, 52, 64
3, 20280, Note_on_c, 1, 52, 0
3, 20280, Note_on_c, 1, 55, 64
3, 20400, Note_on_c, 1, 55, 0
3, 20400, Note_on_c, 1, 53, 64
3, 20520, Note_on_c, 1, 53, 0
3, 20520, Note_on_c, 1, 52, 64
3, 20640, Note_on_c, 1, 52, 0
3, 20640, Note_on_c, 1, 46, 0
3, 20640, Note_on_c, 1, 47, 64
3, 20640, Note_on_c, 1, 53, 64
3, 20760, Note_on_c, 1, 53, 0
3, 20760, Note_on_c, 1, 52, 64
3, 20880, Note_on_c, 1, 52, 0
3, 20880, Note_on_c, 1, 53, 64
3, 21000, Note_on_c, 1, 47, 0
3, 21000, Note_on_c, 1, 46, 64
3, 21040, Note_on_c, 1, 53, 0
3, 21040, Note_on_c, 1, 52, 64
3, 21080, Note_on_c, 1, 52, 0
3, 21080, Note_on_c, 1, 50, 64
3, 21120, Note_on_c, 1, 50, 0
3, 21120, Note_on_c, 1, 46, 0
3, 21120, Note_on_c, 1, 45, 64
3, 21120, Note_on_c, 1, 49, 64
3, 21240, Note_on_c, 1, 49, 0
3, 21240, Note_on_c, 1, 52, 64
3, 21360, Note_on_c, 1, 52, 0
3, 21360, Note_on_c, 1, 55, 64
3, 21480, Note_on_c, 1, 55, 0
3, 21480, Note_on_c, 1, 45, 0
3, 21480, Note_on_c, 1, 58, 64
3, 21520, Note_on_c, 1, 49, 64
3, 21560, Note_on_c, 1, 49, 0
3, 21560, Note_on_c, 1, 52, 64
3, 21600, Note_on_c, 1, 52, 0
3, 21600, Note_on_c, 1, 58, 0
3, 21600, Note_on_c, 1, 57, 64
3, 21720, Note_on_c, 1, 62, 64
3, 21840, Note_on_c, 1, 62, 0
3, 21840, Note_on_c, 1, 65, 64
3, 21960, Note_on_c, 1, 65, 0
3, 21960, Note_on_c, 1, 69, 64
3, 21990, Note_on_c, 1, 57, 0
3, 22000, Note_on_c, 1, 62, 64
3, 22040, Note_on_c, 1, 62, 0
3, 22040, Note_on_c, 1, 65, 64
3, 22080, Note_on_c, 1, 65, 0
3, 22080, Note_on_c, 1, 69, 0
3, 22080, Note_on_c, 1, 68, 64
3, 22200, Note_on_c, 1, 68, 0
3, 23760, Note_on_c, 1, 47, 64
3, 23760, Note_on_c, 1, 56, 64
3, 23760, Note_on_c, 1, 50, 64
3, 23760, Note_on_c, 1, 53, 64
3, 24000, Note_on_c, 1, 53, 0
3, 24000, Note_on_c, 1, 47, 0
3, 24000, Note_on_c, 1, 56, 0
3, 24000, Note_on_c, 1, 50, 0
3, 24000, Note_on_c, 1, 57, 64
3, 24000, Note_on_c, 1, 45, 64
3, 24000, Note_on_c, 1, 50, 64
3, 24000, Note_on_c, 1, 53, 64
3, 24240, Note_on_c, 1, 53, 0
3, 24240, Note_on_c, 1, 50, 0
3, 24240, Note_on_c, 1, 52, 64
3, 24480, Note_on_c, 1, 52, 0
3, 24480, Note_on_c, 1, 45, 0
3, 24480, Note_on_c, 1, 57, 0
3, 24480, Note_on_c, 1, 50, 64
3, 24480, Note_on_c, 1, 38, 64
3, 24960, Note_on_c, 1, 38, 0
3, 24960, Note_on_c, 1, 50, 0
3, 24960, End_track
4, 0, Start_track
4, 0, End_track
0, 0, End_of_file
