0, 0, Header, 1, 4, 120
1, 0, Start_track
1, 0, Title_t, "untitled"
1, 0, Time_signature, 4, 2, 24, 8
1, 0, Key_signature, -3, "major"
1, 0, Tempo, 666667
1, 0, Marker_t, "tpinven2.pc"
1, 10, Tempo, 745342
1, 145, Tempo, 740741
1, 10890, Tempo, 736196
1, 12000, Tempo, 741290
1, 12005, Tempo, 731707
1, 12015, Tempo, 736196
1, 12025, Tempo, 740741
1, 12030, Tempo, 745342
1, 12040, Tempo, 750000
1, 12045, Tempo, 754717
1, 12055, Tempo, 759494
1, 12060, Tempo, 764331
1, 12070, Tempo, 769231
1, 12075, Tempo, 774194
1, 12085, Tempo, 779221
1, 12090, Tempo, 784314
1, 12100, Tempo, 789474
1, 12105, Tempo, 794702
1, 12115, Tempo, 800000
1, 12120, Tempo, 805369
1, 12130, Tempo, 810811
1, 12135, Tempo, 816327
1, 12145, Tempo, 821918
1, 12150, Tempo, 827586
1, 12160, Tempo, 833333
1, 12165, Tempo, 839161
1, 12175, Tempo, 845070
1, 12180, Tempo, 851064
1, 12190, Tempo, 857143
1, 12195, Tempo, 863309
1, 12205, Tempo, 869565
1, 12210, Tempo, 875912
1, 12220, Tempo, 882353
1, 12225, Tempo, 888889
1, 12235, Tempo, 895522
1, 12240, Tempo, 902256
1, 12250, Tempo, 909091
1, 12255, Tempo, 916031
1, 12265, Tempo, 923077
1, 12270, Tempo, 930233
1, 12280, Tempo, 937500
1, 12285, Tempo, 944882
1, 12295, Tempo, 952381
1, 12300, Tempo, 960000
1, 12310, Tempo, 967742
1, 12315, Tempo, 975610
1, 12325, Tempo, 983607
1, 12330, Tempo, 991736
1, 12340, Tempo, 1000000
1, 12345, Tempo, 1008403
1, 12355, Tempo, 1016949
1, 12360, Tempo, 1025641
1, 12370, Tempo, 1034483
1, 12375, Tempo, 1043478
1, 12385, Tempo, 1052632
1, 12390, Tempo, 1061947
1, 12400, Tempo, 1071429
1, 12405, Tempo, 1081081
1, 12415, Tempo, 1090909
1, 12420, Tempo, 1100917
1, 12430, Tempo, 1111111
1, 12435, Tempo, 1121495
1, 12445, Tempo, 1132075
1, 12450, Tempo, 1142857
1, 12460, Tempo, 1153846
1, 12465, Tempo, 1165049
1, 12475, Tempo, 1176471
1, 12480, Tempo, 1188119
1, 12480, End_track
2, 0, Start_track
2, 0, Title_t, "Track 2"
2, 0, Program_c, 0, 0
2, 0, Control_c, 0, 7, 110
2, 0, Control_c, 0, 10, 42
2, 0, Control_c, 0, 7, 75
2, 0, Control_c, 0, 93, 91
2, 20, Control_c, 0, 7, 97
2, 60, Note_on_c, 0, 72, 127
2, 84, Note_on_c, 0, 72, 0
2, 90, Note_on_c, 0, 71, 127
2, 110, Control_c, 0, 7, 96
2, 114, Note_on_c, 0, 71, 0
2, 120, Note_on_c, 0, 72, 127
2, 144, Note_on_c, 0, 72, 0
2, 150, Note_on_c, 0, 74, 127
2, 174, Note_on_c, 0, 74, 0
2, 180, Note_on_c, 0, 75, 127
2, 204, Note_on_c, 0, 75, 0
2, 210, Note_on_c, 0, 67, 127
2, 234, Note_on_c, 0, 67, 0
2, 240, Note_on_c, 0, 68, 127
2, 264, Note_on_c, 0, 68, 0
2, 270, Note_on_c, 0, 70, 127
2, 294, Note_on_c, 0, 70, 0
2, 300, Note_on_c, 0, 68, 127
2, 324, Note_on_c, 0, 68, 0
2, 330, Note_on_c, 0, 65, 127
2, 354, Note_on_c, 0, 65, 0
2, 360, Note_on_c, 0, 77, 127
2, 384, Note_on_c, 0, 77, 0
2, 390, Note_on_c, 0, 75, 127
2, 414, Note_on_c, 0, 75, 0
2, 420, Note_on_c, 0, 74, 127
2, 444, Note_on_c, 0, 74, 0
2, 450, Note_on_c, 0, 72, 127
2, 474, Note_on_c, 0, 72, 0
2, 480, Note_on_c, 0, 71, 127
2, 504, Note_on_c, 0, 71, 0
2, 510, Note_on_c, 0, 80, 127
2, 534, Note_on_c, 0, 80, 0
2, 540, Note_on_c, 0, 79, 127
2, 564, Note_on_c, 0, 79, 0
2, 570, Note_on_c, 0, 77, 127
2, 594, Note_on_c, 0, 77, 0
2, 600, Note_on_c, 0, 75, 127
2, 624, Note_on_c, 0, 75, 0
2, 630, Note_on_c, 0, 74, 127
2, 654, Note_on_c, 0, 74, 0
2, 660, Note_on_c, 0, 72, 127
2, 684, Note_on_c, 0, 72, 0
2, 690, Note_on_c, 0, 71, 127
2, 714, Note_on_c, 0, 71, 0
2, 720, Note_on_c, 0, 72, 127
2, 744, Note_on_c, 0, 72, 0
2, 750, Note_on_c, 0, 74, 127
2, 774, Note_on_c, 0, 74, 0
2, 780, Note_on_c, 0, 72, 127
2, 804, Note_on_c, 0, 72, 0
2, 810, Note_on_c, 0, 74, 127
2, 834, Note_on_c, 0, 74, 0
2, 840, Note_on_c, 0, 75, 127
2, 852, Note_on_c, 0, 75, 0
2, 855, Note_on_c, 0, 74, 127
2, 867, Note_on_c, 0, 74, 0
2, 870, Note_on_c, 0, 75, 127
2, 882, Note_on_c, 0, 75, 0
2, 885, Note_on_c, 0, 74, 127
2, 897, Note_on_c, 0, 74, 0
2, 900, Note_on_c, 0, 75, 127
2, 912, Note_on_c, 0, 75, 0
2, 915, Note_on_c, 0, 74, 127
2, 927, Note_on_c, 0, 74, 0
2, 930, Note_on_c, 0, 72, 127
2, 942, Note_on_c, 0, 72, 0
2, 945, Note_on_c, 0, 74, 127
2, 957, Note_on_c, 0, 74, 0
2, 960, Note_on_c, 0, 75, 127
2, 984, Note_on_c, 0, 75, 0
2, 990, Note_on_c, 0, 74, 127
2, 1014, Note_on_c, 0, 74, 0
2, 1020, Note_on_c, 0, 72, 127
2, 1044, Note_on_c, 0, 72, 0
2, 1050, Note_on_c, 0, 74, 127
2, 1074, Note_on_c, 0, 74, 0
2, 1080, Note_on_c, 0, 75, 127
2, 1104, Note_on_c, 0, 75, 0
2, 1110, Note_on_c, 0, 77, 127
2, 1134, Note_on_c, 0, 77, 0
2, 1140, Note_on_c, 0, 79, 127
2, 1191, Note_on_c, 0, 79, 0
2, 1200, Note_on_c, 0, 79, 127
2, 1212, Note_on_c, 0, 79, 0
2, 1215, Note_on_c, 0, 80, 127
2, 1227, Note_on_c, 0, 80, 0
2, 1230, Note_on_c, 0, 79, 127
2, 1254, Note_on_c, 0, 79, 0
2, 1260, Note_on_c, 0, 77, 127
2, 1308, Note_on_c, 0, 77, 0
2, 1380, Note_on_c, 0, 77, 127
2, 1431, Note_on_c, 0, 77, 0
2, 1440, Note_on_c, 0, 77, 127
2, 1452, Note_on_c, 0, 77, 0
2, 1455, Note_on_c, 0, 79, 127
2, 1467, Note_on_c, 0, 79, 0
2, 1470, Note_on_c, 0, 77, 127
2, 1494, Note_on_c, 0, 77, 0
2, 1500, Note_on_c, 0, 75, 127
2, 1548, Note_on_c, 0, 75, 0
2, 1620, Note_on_c, 0, 74, 127
2, 1668, Note_on_c, 0, 74, 0
2, 1680, Note_on_c, 0, 75, 127
2, 1728, Note_on_c, 0, 75, 0
2, 1740, Note_on_c, 0, 68, 127
2, 1824, Note_on_c, 0, 68, 0
2, 1830, Note_on_c, 0, 65, 127
2, 1854, Note_on_c, 0, 65, 0
2, 1860, Note_on_c, 0, 70, 127
2, 1884, Note_on_c, 0, 70, 0
2, 1890, Note_on_c, 0, 65, 127
2, 1914, Note_on_c, 0, 65, 0
2, 1920, Note_on_c, 0, 67, 127
2, 1968, Note_on_c, 0, 67, 0
2, 1980, Note_on_c, 0, 75, 127
2, 2064, Note_on_c, 0, 75, 0
2, 2070, Note_on_c, 0, 74, 127
2, 2094, Note_on_c, 0, 74, 0
2, 2100, Note_on_c, 0, 75, 127
2, 2124, Note_on_c, 0, 75, 0
2, 2130, Note_on_c, 0, 70, 127
2, 2154, Note_on_c, 0, 70, 0
2, 2160, Note_on_c, 0, 72, 127
2, 2170, Control_c, 0, 7, 98
2, 2184, Note_on_c, 0, 72, 0
2, 2190, Note_on_c, 0, 75, 127
2, 2200, Control_c, 0, 7, 97
2, 2214, Note_on_c, 0, 75, 0
2, 2220, Note_on_c, 0, 80, 127
2, 2220, Control_c, 0, 7, 96
2, 2240, Control_c, 0, 7, 95
2, 2244, Note_on_c, 0, 80, 0
2, 2250, Note_on_c, 0, 79, 127
2, 2270, Control_c, 0, 7, 94
2, 2274, Note_on_c, 0, 79, 0
2, 2280, Note_on_c, 0, 77, 127
2, 2290, Control_c, 0, 7, 93
2, 2304, Note_on_c, 0, 77, 0
2, 2310, Note_on_c, 0, 75, 127
2, 2310, Control_c, 0, 7, 92
2, 2334, Note_on_c, 0, 75, 0
2, 2340, Note_on_c, 0, 74, 127
2, 2340, Control_c, 0, 7, 91
2, 2360, Control_c, 0, 7, 90
2, 2364, Note_on_c, 0, 74, 0
2, 2370, Note_on_c, 0, 72, 127
2, 2380, Control_c, 0, 7, 89
2, 2394, Note_on_c, 0, 72, 0
2, 2400, Note_on_c, 0, 70, 127
2, 2410, Control_c, 0, 7, 88
2, 2424, Note_on_c, 0, 70, 0
2, 2430, Note_on_c, 0, 74, 127
2, 2430, Control_c, 0, 7, 87
2, 2450, Control_c, 0, 7, 86
2, 2454, Note_on_c, 0, 74, 0
2, 2460, Note_on_c, 0, 79, 127
2, 2480, Control_c, 0, 7, 85
2, 2484, Note_on_c, 0, 79, 0
2, 2490, Note_on_c, 0, 77, 127
2, 2500, Control_c, 0, 7, 84
2, 2514, Note_on_c, 0, 77, 0
2, 2520, Note_on_c, 0, 75, 127
2, 2520, Control_c, 0, 7, 83
2, 2544, Note_on_c, 0, 75, 0
2, 2550, Note_on_c, 0, 74, 127
2, 2550, Control_c, 0, 7, 82
2, 2570, Control_c, 0, 7, 81
2, 2574, Note_on_c, 0, 74, 0
2, 2580, Note_on_c, 0, 72, 127
2, 2590, Control_c, 0, 7, 80
2, 2604, Note_on_c, 0, 72, 0
2, 2610, Note_on_c, 0, 70, 127
2, 2620, Control_c, 0, 7, 79
2, 2634, Note_on_c, 0, 70, 0
2, 2640, Note_on_c, 0, 68, 127
2, 2640, Control_c, 0, 7, 78
2, 2660, Control_c, 0, 7, 77
2, 2664, Note_on_c, 0, 68, 0
2, 2670, Note_on_c, 0, 72, 127
2, 2690, Control_c, 0, 7, 76
2, 2694, Note_on_c, 0, 72, 0
2, 2700, Note_on_c, 0, 77, 127
2, 2710, Control_c, 0, 7, 75
2, 2724, Note_on_c, 0, 77, 0
2, 2730, Note_on_c, 0, 72, 127
2, 2730, Control_c, 0, 7, 74
2, 2754, Note_on_c, 0, 72, 0
2, 2760, Note_on_c, 0, 74, 127
2, 2760, Control_c, 0, 7, 73
2, 2780, Control_c, 0, 7, 72
2, 2800, Control_c, 0, 7, 71
2, 2830, Control_c, 0, 7, 70
2, 2832, Note_on_c, 0, 74, 0
2, 2850, Note_on_c, 0, 74, 127
2, 2850, Control_c, 0, 7, 69
2, 2870, Control_c, 0, 7, 68
2, 2874, Note_on_c, 0, 74, 0
2, 2880, Note_on_c, 0, 75, 127
2, 2890, Control_c, 0, 7, 67
2, 2904, Note_on_c, 0, 75, 0
2, 2910, Note_on_c, 0, 70, 127
2, 2934, Note_on_c, 0, 70, 0
2, 2940, Note_on_c, 0, 72, 127
2, 2964, Note_on_c, 0, 72, 0
2, 2970, Note_on_c, 0, 70, 127
2, 2994, Note_on_c, 0, 70, 0
2, 3000, Note_on_c, 0, 79, 127
2, 3110, Control_c, 0, 7, 66
2, 3130, Control_c, 0, 7, 67
2, 3144, Note_on_c, 0, 79, 0
2, 3150, Note_on_c, 0, 70, 127
2, 3150, Control_c, 0, 7, 68
2, 3160, Control_c, 0, 7, 69
2, 3174, Note_on_c, 0, 70, 0
2, 3180, Note_on_c, 0, 72, 127
2, 3180, Control_c, 0, 7, 70
2, 3190, Control_c, 0, 7, 71
2, 3204, Note_on_c, 0, 72, 0
2, 3210, Note_on_c, 0, 70, 127
2, 3210, Control_c, 0, 7, 72
2, 3220, Control_c, 0, 7, 73
2, 3234, Note_on_c, 0, 70, 0
2, 3240, Note_on_c, 0, 80, 127
2, 3240, Control_c, 0, 7, 74
2, 3250, Control_c, 0, 7, 75
2, 3270, Control_c, 0, 7, 76
2, 3280, Control_c, 0, 7, 77
2, 3300, Control_c, 0, 7, 78
2, 3310, Control_c, 0, 7, 79
2, 3330, Control_c, 0, 7, 80
2, 3340, Control_c, 0, 7, 81
2, 3360, Control_c, 0, 7, 82
2, 3380, Control_c, 0, 7, 83
2, 3384, Note_on_c, 0, 80, 0
2, 3390, Note_on_c, 0, 70, 127
2, 3390, Control_c, 0, 7, 84
2, 3410, Control_c, 0, 7, 85
2, 3414, Note_on_c, 0, 70, 0
2, 3420, Note_on_c, 0, 75, 127
2, 3420, Control_c, 0, 7, 86
2, 3440, Control_c, 0, 7, 87
2, 3444, Note_on_c, 0, 75, 0
2, 3450, Note_on_c, 0, 74, 127
2, 3450, Control_c, 0, 7, 88
2, 3470, Control_c, 0, 7, 89
2, 3474, Note_on_c, 0, 74, 0
2, 3480, Note_on_c, 0, 79, 127
2, 3480, Control_c, 0, 7, 90
2, 3500, Control_c, 0, 7, 91
2, 3504, Note_on_c, 0, 79, 0
2, 3510, Note_on_c, 0, 77, 127
2, 3510, Control_c, 0, 7, 92
2, 3530, Control_c, 0, 7, 93
2, 3534, Note_on_c, 0, 77, 0
2, 3540, Note_on_c, 0, 80, 127
2, 3540, Control_c, 0, 7, 94
2, 3560, Control_c, 0, 7, 95
2, 3564, Note_on_c, 0, 80, 0
2, 3570, Note_on_c, 0, 79, 127
2, 3570, Control_c, 0, 7, 96
2, 3590, Control_c, 0, 7, 97
2, 3594, Note_on_c, 0, 79, 0
2, 3600, Note_on_c, 0, 84, 127
2, 3610, Control_c, 0, 7, 98
2, 3620, Control_c, 0, 7, 99
2, 3624, Note_on_c, 0, 84, 0
2, 3630, Note_on_c, 0, 82, 127
2, 3640, Control_c, 0, 7, 100
2, 3650, Control_c, 0, 7, 101
2, 3654, Note_on_c, 0, 82, 0
2, 3660, Note_on_c, 0, 80, 127
2, 3670, Control_c, 0, 7, 102
2, 3680, Control_c, 0, 7, 103
2, 3684, Note_on_c, 0, 80, 0
2, 3690, Note_on_c, 0, 79, 127
2, 3700, Control_c, 0, 7, 104
2, 3710, Control_c, 0, 7, 105
2, 3714, Note_on_c, 0, 79, 0
2, 3720, Note_on_c, 0, 77, 127
2, 3730, Control_c, 0, 7, 106
2, 3740, Control_c, 0, 7, 107
2, 3744, Note_on_c, 0, 77, 0
2, 3750, Note_on_c, 0, 82, 127
2, 3760, Control_c, 0, 7, 108
2, 3770, Control_c, 0, 7, 109
2, 3774, Note_on_c, 0, 82, 0
2, 3780, Note_on_c, 0, 80, 127
2, 3790, Control_c, 0, 7, 110
2, 3800, Control_c, 0, 7, 111
2, 3804, Note_on_c, 0, 80, 0
2, 3810, Note_on_c, 0, 82, 127
2, 3820, Control_c, 0, 7, 112
2, 3830, Control_c, 0, 7, 113
2, 3834, Note_on_c, 0, 82, 0
2, 3840, Note_on_c, 0, 79, 127
2, 3864, Note_on_c, 0, 79, 0
2, 3870, Note_on_c, 0, 82, 127
2, 3894, Note_on_c, 0, 82, 0
2, 3900, Note_on_c, 0, 80, 127
2, 3924, Note_on_c, 0, 80, 0
2, 3930, Note_on_c, 0, 82, 127
2, 3954, Note_on_c, 0, 82, 0
2, 3960, Note_on_c, 0, 75, 127
2, 3984, Note_on_c, 0, 75, 0
2, 3990, Note_on_c, 0, 79, 127
2, 4014, Note_on_c, 0, 79, 0
2, 4020, Note_on_c, 0, 77, 127
2, 4044, Note_on_c, 0, 77, 0
2, 4050, Note_on_c, 0, 79, 127
2, 4074, Note_on_c, 0, 79, 0
2, 4080, Note_on_c, 0, 72, 127
2, 4104, Note_on_c, 0, 72, 0
2, 4110, Note_on_c, 0, 74, 127
2, 4134, Note_on_c, 0, 74, 0
2, 4140, Note_on_c, 0, 75, 127
2, 4164, Note_on_c, 0, 75, 0
2, 4170, Note_on_c, 0, 77, 127
2, 4194, Note_on_c, 0, 77, 0
2, 4200, Note_on_c, 0, 74, 127
2, 4224, Note_on_c, 0, 74, 0
2, 4230, Note_on_c, 0, 75, 127
2, 4254, Note_on_c, 0, 75, 0
2, 4260, Note_on_c, 0, 77, 127
2, 4284, Note_on_c, 0, 77, 0
2, 4290, Note_on_c, 0, 79, 127
2, 4314, Note_on_c, 0, 79, 0
2, 4320, Note_on_c, 0, 75, 127
2, 4320, Control_c, 0, 7, 111
2, 4344, Note_on_c, 0, 75, 0
2, 4350, Note_on_c, 0, 77, 127
2, 4360, Control_c, 0, 7, 110
2, 4374, Note_on_c, 0, 77, 0
2, 4380, Note_on_c, 0, 79, 127
2, 4390, Control_c, 0, 7, 109
2, 4404, Note_on_c, 0, 79, 0
2, 4410, Note_on_c, 0, 80, 127
2, 4420, Control_c, 0, 7, 108
2, 4434, Note_on_c, 0, 80, 0
2, 4440, Note_on_c, 0, 82, 127
2, 4450, Control_c, 0, 7, 107
2, 4464, Note_on_c, 0, 82, 0
2, 4470, Note_on_c, 0, 80, 127
2, 4480, Control_c, 0, 7, 106
2, 4494, Note_on_c, 0, 80, 0
2, 4500, Note_on_c, 0, 84, 127
2, 4510, Control_c, 0, 7, 105
2, 4524, Note_on_c, 0, 84, 0
2, 4530, Note_on_c, 0, 82, 127
2, 4540, Control_c, 0, 7, 104
2, 4554, Note_on_c, 0, 82, 0
2, 4560, Note_on_c, 0, 80, 127
2, 4570, Control_c, 0, 7, 103
2, 4584, Note_on_c, 0, 80, 0
2, 4590, Note_on_c, 0, 79, 127
2, 4600, Control_c, 0, 7, 102
2, 4614, Note_on_c, 0, 79, 0
2, 4620, Note_on_c, 0, 77, 127
2, 4630, Control_c, 0, 7, 101
2, 4644, Note_on_c, 0, 77, 0
2, 4650, Note_on_c, 0, 80, 127
2, 4660, Control_c, 0, 7, 100
2, 4674, Note_on_c, 0, 80, 0
2, 4680, Note_on_c, 0, 74, 127
2, 4690, Control_c, 0, 7, 99
2, 4720, Control_c, 0, 7, 98
2, 4750, Control_c, 0, 7, 97
2, 4780, Control_c, 0, 7, 96
2, 4810, Control_c, 0, 7, 95
2, 4824, Note_on_c, 0, 74, 0
2, 4830, Note_on_c, 0, 74, 127
2, 4840, Control_c, 0, 7, 96
2, 4854, Note_on_c, 0, 74, 0
2, 4860, Note_on_c, 0, 79, 127
2, 4870, Control_c, 0, 7, 97
2, 4884, Note_on_c, 0, 79, 0
2, 4890, Note_on_c, 0, 74, 127
2, 4900, Control_c, 0, 7, 98
2, 4914, Note_on_c, 0, 74, 0
2, 4920, Note_on_c, 0, 75, 127
2, 4930, Control_c, 0, 7, 99
2, 4944, Note_on_c, 0, 75, 0
2, 4950, Note_on_c, 0, 72, 127
2, 4960, Control_c, 0, 7, 100
2, 4974, Note_on_c, 0, 72, 0
2, 4980, Note_on_c, 0, 74, 127
2, 4990, Control_c, 0, 7, 101
2, 5004, Note_on_c, 0, 74, 0
2, 5010, Note_on_c, 0, 70, 127
2, 5020, Control_c, 0, 7, 102
2, 5034, Note_on_c, 0, 70, 0
2, 5040, Note_on_c, 0, 72, 127
2, 5050, Control_c, 0, 7, 103
2, 5080, Control_c, 0, 7, 104
2, 5110, Control_c, 0, 7, 105
2, 5140, Control_c, 0, 7, 106
2, 5170, Control_c, 0, 7, 107
2, 5184, Note_on_c, 0, 72, 0
2, 5190, Note_on_c, 0, 79, 127
2, 5200, Control_c, 0, 7, 108
2, 5214, Note_on_c, 0, 79, 0
2, 5220, Note_on_c, 0, 78, 127
2, 5230, Control_c, 0, 7, 109
2, 5244, Note_on_c, 0, 78, 0
2, 5250, Note_on_c, 0, 81, 127
2, 5260, Control_c, 0, 7, 110
2, 5274, Note_on_c, 0, 81, 0
2, 5280, Note_on_c, 0, 72, 127
2, 5290, Control_c, 0, 7, 111
2, 5304, Note_on_c, 0, 72, 0
2, 5310, Note_on_c, 0, 70, 127
2, 5334, Note_on_c, 0, 70, 0
2, 5340, Note_on_c, 0, 72, 127
2, 5424, Note_on_c, 0, 72, 0
2, 5430, Note_on_c, 0, 78, 127
2, 5454, Note_on_c, 0, 78, 0
2, 5460, Note_on_c, 0, 76, 127
2, 5484, Note_on_c, 0, 76, 0
2, 5490, Note_on_c, 0, 74, 127
2, 5514, Note_on_c, 0, 74, 0
2, 5520, Note_on_c, 0, 82, 127
2, 5540, Control_c, 0, 7, 109
2, 5570, Control_c, 0, 7, 108
2, 5592, Note_on_c, 0, 82, 0
2, 5600, Control_c, 0, 7, 107
2, 5610, Note_on_c, 0, 76, 127
2, 5630, Control_c, 0, 7, 106
2, 5634, Note_on_c, 0, 76, 0
2, 5640, Note_on_c, 0, 78, 127
2, 5650, Control_c, 0, 7, 105
2, 5680, Control_c, 0, 7, 104
2, 5710, Control_c, 0, 7, 103
2, 5712, Note_on_c, 0, 78, 0
2, 5730, Note_on_c, 0, 79, 127
2, 5730, Control_c, 0, 7, 102
2, 5754, Note_on_c, 0, 79, 0
2, 5760, Note_on_c, 0, 79, 127
2, 5760, Control_c, 0, 7, 101
2, 5790, Control_c, 0, 7, 100
2, 5810, Control_c, 0, 7, 99
2, 5811, Note_on_c, 0, 79, 0
2, 5820, Note_on_c, 0, 67, 127
2, 5840, Control_c, 0, 7, 98
2, 5844, Note_on_c, 0, 67, 0
2, 5850, Note_on_c, 0, 66, 127
2, 5870, Control_c, 0, 7, 97
2, 5874, Note_on_c, 0, 66, 0
2, 5880, Note_on_c, 0, 67, 127
2, 5890, Control_c, 0, 7, 96
2, 5904, Note_on_c, 0, 67, 0
2, 5910, Note_on_c, 0, 69, 127
2, 5920, Control_c, 0, 7, 95
2, 5934, Note_on_c, 0, 69, 0
2, 5940, Note_on_c, 0, 70, 127
2, 5950, Control_c, 0, 7, 94
2, 5964, Note_on_c, 0, 70, 0
2, 5970, Note_on_c, 0, 62, 127
2, 5970, Control_c, 0, 7, 93
2, 5994, Note_on_c, 0, 62, 0
2, 6000, Note_on_c, 0, 63, 127
2, 6000, Control_c, 0, 7, 92
2, 6024, Note_on_c, 0, 63, 0
2, 6030, Note_on_c, 0, 65, 127
2, 6030, Control_c, 0, 7, 91
2, 6050, Control_c, 0, 7, 90
2, 6054, Note_on_c, 0, 65, 0
2, 6060, Note_on_c, 0, 63, 127
2, 6080, Control_c, 0, 7, 89
2, 6084, Note_on_c, 0, 63, 0
2, 6090, Note_on_c, 0, 60, 127
2, 6110, Control_c, 0, 7, 88
2, 6114, Note_on_c, 0, 60, 0
2, 6120, Note_on_c, 0, 72, 127
2, 6130, Control_c, 0, 7, 87
2, 6144, Note_on_c, 0, 72, 0
2, 6150, Note_on_c, 0, 70, 127
2, 6160, Control_c, 0, 7, 86
2, 6174, Note_on_c, 0, 70, 0
2, 6180, Note_on_c, 0, 69, 127
2, 6190, Control_c, 0, 7, 85
2, 6204, Note_on_c, 0, 69, 0
2, 6210, Note_on_c, 0, 67, 127
2, 6210, Control_c, 0, 7, 84
2, 6234, Note_on_c, 0, 67, 0
2, 6240, Note_on_c, 0, 66, 127
2, 6240, Control_c, 0, 7, 83
2, 6264, Note_on_c, 0, 66, 0
2, 6270, Note_on_c, 0, 75, 127
2, 6270, Control_c, 0, 7, 82
2, 6290, Control_c, 0, 7, 81
2, 6294, Note_on_c, 0, 75, 0
2, 6300, Note_on_c, 0, 74, 127
2, 6320, Control_c, 0, 7, 80
2, 6324, Note_on_c, 0, 74, 0
2, 6330, Note_on_c, 0, 72, 127
2, 6350, Control_c, 0, 7, 79
2, 6354, Note_on_c, 0, 72, 0
2, 6360, Note_on_c, 0, 70, 127
2, 6370, Control_c, 0, 7, 78
2, 6384, Note_on_c, 0, 70, 0
2, 6390, Note_on_c, 0, 69, 127
2, 6400, Control_c, 0, 7, 77
2, 6414, Note_on_c, 0, 69, 0
2, 6420, Note_on_c, 0, 67, 127
2, 6430, Control_c, 0, 7, 76
2, 6444, Note_on_c, 0, 67, 0
2, 6450, Note_on_c, 0, 66, 127
2, 6450, Control_c, 0, 7, 75
2, 6474, Note_on_c, 0, 66, 0
2, 6480, Note_on_c, 0, 67, 127
2, 6480, Control_c, 0, 7, 74
2, 6504, Note_on_c, 0, 67, 0
2, 6510, Note_on_c, 0, 69, 127
2, 6510, Control_c, 0, 7, 73
2, 6530, Control_c, 0, 7, 72
2, 6534, Note_on_c, 0, 69, 0
2, 6540, Note_on_c, 0, 67, 127
2, 6560, Control_c, 0, 7, 71
2, 6564, Note_on_c, 0, 67, 0
2, 6570, Note_on_c, 0, 69, 127
2, 6590, Control_c, 0, 7, 70
2, 6594, Note_on_c, 0, 69, 0
2, 6600, Note_on_c, 0, 70, 127
2, 6610, Control_c, 0, 7, 69
2, 6612, Note_on_c, 0, 70, 0
2, 6615, Note_on_c, 0, 69, 127
2, 6627, Note_on_c, 0, 69, 0
2, 6630, Note_on_c, 0, 70, 127
2, 6640, Control_c, 0, 7, 68
2, 6642, Note_on_c, 0, 70, 0
2, 6645, Note_on_c, 0, 69, 127
2, 6657, Note_on_c, 0, 69, 0
2, 6660, Note_on_c, 0, 70, 127
2, 6670, Control_c, 0, 7, 67
2, 6672, Note_on_c, 0, 70, 0
2, 6675, Note_on_c, 0, 69, 127
2, 6687, Note_on_c, 0, 69, 0
2, 6690, Note_on_c, 0, 67, 127
2, 6690, Control_c, 0, 7, 66
2, 6702, Note_on_c, 0, 67, 0
2, 6705, Note_on_c, 0, 69, 127
2, 6717, Note_on_c, 0, 69, 0
2, 6720, Note_on_c, 0, 70, 127
2, 6720, Control_c, 0, 7, 65
2, 6744, Note_on_c, 0, 70, 0
2, 6750, Note_on_c, 0, 69, 124
2, 6750, Control_c, 0, 7, 64
2, 6770, Control_c, 0, 7, 63
2, 6774, Note_on_c, 0, 69, 0
2, 6780, Note_on_c, 0, 67, 124
2, 6804, Note_on_c, 0, 67, 0
2, 6810, Note_on_c, 0, 69, 124
2, 6834, Note_on_c, 0, 69, 0
2, 6840, Note_on_c, 0, 70, 124
2, 6864, Note_on_c, 0, 70, 0
2, 6870, Note_on_c, 0, 72, 124
2, 6894, Note_on_c, 0, 72, 0
2, 6900, Note_on_c, 0, 74, 127
2, 6951, Note_on_c, 0, 74, 0
2, 6960, Note_on_c, 0, 74, 124
2, 6972, Note_on_c, 0, 74, 0
2, 6975, Note_on_c, 0, 75, 124
2, 6987, Note_on_c, 0, 75, 0
2, 6990, Note_on_c, 0, 74, 124
2, 7014, Note_on_c, 0, 74, 0
2, 7020, Note_on_c, 0, 72, 124
2, 7068, Note_on_c, 0, 72, 0
2, 7140, Note_on_c, 0, 72, 127
2, 7191, Note_on_c, 0, 72, 0
2, 7200, Note_on_c, 0, 72, 124
2, 7212, Note_on_c, 0, 72, 0
2, 7215, Note_on_c, 0, 74, 124
2, 7227, Note_on_c, 0, 74, 0
2, 7230, Note_on_c, 0, 72, 124
2, 7254, Note_on_c, 0, 72, 0
2, 7260, Note_on_c, 0, 70, 124
2, 7308, Note_on_c, 0, 70, 0
2, 7380, Note_on_c, 0, 69, 124
2, 7428, Note_on_c, 0, 69, 0
2, 7440, Note_on_c, 0, 70, 124
2, 7488, Note_on_c, 0, 70, 0
2, 7500, Note_on_c, 0, 63, 124
2, 7584, Note_on_c, 0, 63, 0
2, 7590, Note_on_c, 0, 60, 124
2, 7614, Note_on_c, 0, 60, 0
2, 7620, Note_on_c, 0, 65, 124
2, 7644, Note_on_c, 0, 65, 0
2, 7650, Note_on_c, 0, 60, 124
2, 7674, Note_on_c, 0, 60, 0
2, 7680, Note_on_c, 0, 62, 124
2, 7728, Note_on_c, 0, 62, 0
2, 7740, Note_on_c, 0, 70, 124
2, 7824, Note_on_c, 0, 70, 0
2, 7830, Note_on_c, 0, 69, 124
2, 7854, Note_on_c, 0, 69, 0
2, 7860, Note_on_c, 0, 70, 124
2, 7884, Note_on_c, 0, 70, 0
2, 7890, Note_on_c, 0, 65, 124
2, 7914, Note_on_c, 0, 65, 0
2, 7920, Note_on_c, 0, 67, 124
2, 7944, Note_on_c, 0, 67, 0
2, 7950, Note_on_c, 0, 70, 124
2, 7974, Note_on_c, 0, 70, 0
2, 7980, Note_on_c, 0, 75, 124
2, 8004, Note_on_c, 0, 75, 0
2, 8010, Note_on_c, 0, 74, 124
2, 8034, Note_on_c, 0, 74, 0
2, 8040, Note_on_c, 0, 72, 124
2, 8064, Note_on_c, 0, 72, 0
2, 8070, Note_on_c, 0, 70, 124
2, 8094, Note_on_c, 0, 70, 0
2, 8100, Note_on_c, 0, 69, 124
2, 8124, Note_on_c, 0, 69, 0
2, 8130, Note_on_c, 0, 67, 124
2, 8154, Note_on_c, 0, 67, 0
2, 8160, Note_on_c, 0, 65, 124
2, 8184, Note_on_c, 0, 65, 0
2, 8190, Note_on_c, 0, 69, 124
2, 8214, Note_on_c, 0, 69, 0
2, 8220, Note_on_c, 0, 74, 124
2, 8244, Note_on_c, 0, 74, 0
2, 8250, Note_on_c, 0, 72, 124
2, 8274, Note_on_c, 0, 72, 0
2, 8280, Note_on_c, 0, 70, 124
2, 8304, Note_on_c, 0, 70, 0
2, 8310, Note_on_c, 0, 69, 124
2, 8334, Note_on_c, 0, 69, 0
2, 8340, Note_on_c, 0, 67, 124
2, 8364, Note_on_c, 0, 67, 0
2, 8370, Note_on_c, 0, 65, 124
2, 8394, Note_on_c, 0, 65, 0
2, 8400, Note_on_c, 0, 63, 124
2, 8424, Note_on_c, 0, 63, 0
2, 8430, Note_on_c, 0, 67, 124
2, 8454, Note_on_c, 0, 67, 0
2, 8460, Note_on_c, 0, 72, 124
2, 8484, Note_on_c, 0, 72, 0
2, 8490, Note_on_c, 0, 67, 124
2, 8514, Note_on_c, 0, 67, 0
2, 8520, Note_on_c, 0, 69, 124
2, 8592, Note_on_c, 0, 69, 0
2, 8610, Note_on_c, 0, 69, 124
2, 8634, Note_on_c, 0, 69, 0
2, 8640, Note_on_c, 0, 70, 124
2, 8664, Note_on_c, 0, 70, 0
2, 8670, Note_on_c, 0, 65, 124
2, 8694, Note_on_c, 0, 65, 0
2, 8700, Note_on_c, 0, 67, 124
2, 8724, Note_on_c, 0, 67, 0
2, 8730, Note_on_c, 0, 65, 124
2, 8754, Note_on_c, 0, 65, 0
2, 8760, Note_on_c, 0, 74, 124
2, 8904, Note_on_c, 0, 74, 0
2, 8910, Note_on_c, 0, 65, 124
2, 8934, Note_on_c, 0, 65, 0
2, 8940, Note_on_c, 0, 67, 124
2, 8964, Note_on_c, 0, 67, 0
2, 8970, Note_on_c, 0, 65, 124
2, 8994, Note_on_c, 0, 65, 0
2, 9000, Note_on_c, 0, 75, 124
2, 9140, Control_c, 0, 7, 64
2, 9144, Note_on_c, 0, 75, 0
2, 9150, Note_on_c, 0, 65, 124
2, 9174, Note_on_c, 0, 65, 0
2, 9180, Note_on_c, 0, 70, 124
2, 9180, Control_c, 0, 7, 65
2, 9204, Note_on_c, 0, 70, 0
2, 9210, Note_on_c, 0, 69, 124
2, 9210, Control_c, 0, 7, 66
2, 9234, Note_on_c, 0, 69, 0
2, 9240, Note_on_c, 0, 74, 124
2, 9240, Control_c, 0, 7, 67
2, 9264, Note_on_c, 0, 74, 0
2, 9270, Note_on_c, 0, 72, 124
2, 9270, Control_c, 0, 7, 68
2, 9294, Note_on_c, 0, 72, 0
2, 9300, Note_on_c, 0, 75, 124
2, 9300, Control_c, 0, 7, 69
2, 9324, Note_on_c, 0, 75, 0
2, 9330, Note_on_c, 0, 74, 124
2, 9330, Control_c, 0, 7, 70
2, 9354, Note_on_c, 0, 74, 0
2, 9360, Note_on_c, 0, 79, 124
2, 9360, Control_c, 0, 7, 71
2, 9384, Note_on_c, 0, 79, 0
2, 9390, Note_on_c, 0, 77, 124
2, 9390, Control_c, 0, 7, 72
2, 9414, Note_on_c, 0, 77, 0
2, 9420, Note_on_c, 0, 75, 124
2, 9420, Control_c, 0, 7, 73
2, 9444, Note_on_c, 0, 75, 0
2, 9450, Note_on_c, 0, 74, 124
2, 9450, Control_c, 0, 7, 74
2, 9474, Note_on_c, 0, 74, 0
2, 9480, Note_on_c, 0, 72, 124
2, 9480, Control_c, 0, 7, 75
2, 9504, Note_on_c, 0, 72, 0
2, 9510, Note_on_c, 0, 77, 124
2, 9520, Control_c, 0, 7, 76
2, 9534, Note_on_c, 0, 77, 0
2, 9540, Note_on_c, 0, 75, 124
2, 9550, Control_c, 0, 7, 77
2, 9564, Note_on_c, 0, 75, 0
2, 9570, Note_on_c, 0, 77, 124
2, 9580, Control_c, 0, 7, 78
2, 9594, Note_on_c, 0, 77, 0
2, 9600, Note_on_c, 0, 74, 124
2, 9610, Control_c, 0, 7, 79
2, 9624, Note_on_c, 0, 74, 0
2, 9630, Note_on_c, 0, 72, 124
2, 9640, Control_c, 0, 7, 80
2, 9654, Note_on_c, 0, 72, 0
2, 9660, Note_on_c, 0, 70, 124
2, 9670, Control_c, 0, 7, 81
2, 9684, Note_on_c, 0, 70, 0
2, 9690, Note_on_c, 0, 69, 124
2, 9700, Control_c, 0, 7, 82
2, 9714, Note_on_c, 0, 69, 0
2, 9720, Note_on_c, 0, 74, 124
2, 9730, Control_c, 0, 7, 83
2, 9744, Note_on_c, 0, 74, 0
2, 9750, Note_on_c, 0, 72, 124
2, 9760, Control_c, 0, 7, 84
2, 9774, Note_on_c, 0, 72, 0
2, 9780, Note_on_c, 0, 75, 124
2, 9790, Control_c, 0, 7, 85
2, 9804, Note_on_c, 0, 75, 0
2, 9810, Note_on_c, 0, 74, 124
2, 9820, Control_c, 0, 7, 86
2, 9834, Note_on_c, 0, 74, 0
2, 9840, Note_on_c, 0, 72, 124
2, 9850, Control_c, 0, 7, 87
2, 9864, Note_on_c, 0, 72, 0
2, 9870, Note_on_c, 0, 70, 124
2, 9890, Control_c, 0, 7, 88
2, 9894, Note_on_c, 0, 70, 0
2, 9900, Note_on_c, 0, 69, 124
2, 9920, Control_c, 0, 7, 89
2, 9924, Note_on_c, 0, 69, 0
2, 9930, Note_on_c, 0, 72, 124
2, 9950, Control_c, 0, 7, 90
2, 9954, Note_on_c, 0, 72, 0
2, 9960, Note_on_c, 0, 77, 124
2, 9980, Control_c, 0, 7, 91
2, 10010, Control_c, 0, 7, 92
2, 10040, Control_c, 0, 7, 93
2, 10070, Control_c, 0, 7, 94
2, 10100, Control_c, 0, 7, 95
2, 10104, Note_on_c, 0, 77, 0
2, 10110, Note_on_c, 0, 67, 124
2, 10130, Control_c, 0, 7, 96
2, 10134, Note_on_c, 0, 67, 0
2, 10140, Note_on_c, 0, 72, 124
2, 10160, Control_c, 0, 7, 97
2, 10164, Note_on_c, 0, 72, 0
2, 10170, Note_on_c, 0, 71, 124
2, 10190, Control_c, 0, 7, 98
2, 10194, Note_on_c, 0, 71, 0
2, 10200, Note_on_c, 0, 75, 124
2, 10224, Note_on_c, 0, 75, 0
2, 10230, Note_on_c, 0, 74, 124
2, 10230, Control_c, 0, 7, 99
2, 10254, Note_on_c, 0, 74, 0
2, 10260, Note_on_c, 0, 77, 124
2, 10260, Control_c, 0, 7, 100
2, 10284, Note_on_c, 0, 77, 0
2, 10290, Note_on_c, 0, 75, 124
2, 10290, Control_c, 0, 7, 101
2, 10314, Note_on_c, 0, 75, 0
2, 10320, Note_on_c, 0, 80, 124
2, 10320, Control_c, 0, 7, 102
2, 10344, Note_on_c, 0, 80, 0
2, 10350, Note_on_c, 0, 79, 124
2, 10350, Control_c, 0, 7, 103
2, 10374, Note_on_c, 0, 79, 0
2, 10380, Note_on_c, 0, 77, 124
2, 10380, Control_c, 0, 7, 104
2, 10404, Note_on_c, 0, 77, 0
2, 10410, Note_on_c, 0, 75, 124
2, 10410, Control_c, 0, 7, 105
2, 10434, Note_on_c, 0, 75, 0
2, 10440, Note_on_c, 0, 74, 124
2, 10440, Control_c, 0, 7, 106
2, 10464, Note_on_c, 0, 74, 0
2, 10470, Note_on_c, 0, 79, 124
2, 10470, Control_c, 0, 7, 107
2, 10494, Note_on_c, 0, 79, 0
2, 10500, Note_on_c, 0, 77, 124
2, 10500, Control_c, 0, 7, 108
2, 10524, Note_on_c, 0, 77, 0
2, 10530, Note_on_c, 0, 79, 124
2, 10530, Control_c, 0, 7, 109
2, 10554, Note_on_c, 0, 79, 0
2, 10560, Note_on_c, 0, 75, 124
2, 10560, Control_c, 0, 7, 110
2, 10584, Note_on_c, 0, 75, 0
2, 10590, Note_on_c, 0, 74, 124
2, 10600, Control_c, 0, 7, 108
2, 10614, Note_on_c, 0, 74, 0
2, 10620, Note_on_c, 0, 72, 124
2, 10644, Note_on_c, 0, 72, 0
2, 10650, Note_on_c, 0, 71, 124
2, 10674, Note_on_c, 0, 71, 0
2, 10680, Note_on_c, 0, 72, 124
2, 10704, Note_on_c, 0, 72, 0
2, 10710, Note_on_c, 0, 74, 124
2, 10734, Note_on_c, 0, 74, 0
2, 10740, Note_on_c, 0, 75, 124
2, 10764, Note_on_c, 0, 75, 0
2, 10770, Note_on_c, 0, 67, 124
2, 10794, Note_on_c, 0, 67, 0
2, 10800, Note_on_c, 0, 68, 124
2, 10824, Note_on_c, 0, 68, 0
2, 10830, Note_on_c, 0, 70, 124
2, 10854, Note_on_c, 0, 70, 0
2, 10860, Note_on_c, 0, 68, 124
2, 10884, Note_on_c, 0, 68, 0
2, 10890, Note_on_c, 0, 65, 124
2, 10914, Note_on_c, 0, 65, 0
2, 10920, Note_on_c, 0, 77, 124
2, 10944, Note_on_c, 0, 77, 0
2, 10950, Note_on_c, 0, 75, 124
2, 10974, Note_on_c, 0, 75, 0
2, 10980, Note_on_c, 0, 74, 124
2, 11004, Note_on_c, 0, 74, 0
2, 11010, Note_on_c, 0, 72, 124
2, 11034, Note_on_c, 0, 72, 0
2, 11040, Note_on_c, 0, 71, 124
2, 11064, Note_on_c, 0, 71, 0
2, 11070, Note_on_c, 0, 80, 124
2, 11094, Note_on_c, 0, 80, 0
2, 11100, Note_on_c, 0, 79, 124
2, 11124, Note_on_c, 0, 79, 0
2, 11130, Note_on_c, 0, 77, 124
2, 11154, Note_on_c, 0, 77, 0
2, 11160, Note_on_c, 0, 75, 124
2, 11184, Note_on_c, 0, 75, 0
2, 11190, Note_on_c, 0, 74, 124
2, 11214, Note_on_c, 0, 74, 0
2, 11220, Note_on_c, 0, 72, 124
2, 11244, Note_on_c, 0, 72, 0
2, 11250, Note_on_c, 0, 71, 124
2, 11274, Note_on_c, 0, 71, 0
2, 11280, Note_on_c, 0, 72, 124
2, 11300, Control_c, 0, 7, 109
2, 11304, Note_on_c, 0, 72, 0
2, 11310, Note_on_c, 0, 74, 124
2, 11334, Note_on_c, 0, 74, 0
2, 11340, Note_on_c, 0, 72, 124
2, 11364, Note_on_c, 0, 72, 0
2, 11370, Note_on_c, 0, 74, 124
2, 11394, Note_on_c, 0, 74, 0
2, 11400, Note_on_c, 0, 75, 124
2, 11412, Note_on_c, 0, 75, 0
2, 11415, Note_on_c, 0, 74, 124
2, 11427, Note_on_c, 0, 74, 0
2, 11430, Note_on_c, 0, 75, 124
2, 11442, Note_on_c, 0, 75, 0
2, 11445, Note_on_c, 0, 74, 124
2, 11457, Note_on_c, 0, 74, 0
2, 11460, Note_on_c, 0, 75, 124
2, 11472, Note_on_c, 0, 75, 0
2, 11475, Note_on_c, 0, 74, 124
2, 11487, Note_on_c, 0, 74, 0
2, 11490, Note_on_c, 0, 72, 124
2, 11502, Note_on_c, 0, 72, 0
2, 11505, Note_on_c, 0, 74, 124
2, 11517, Note_on_c, 0, 74, 0
2, 11520, Note_on_c, 0, 75, 124
2, 11544, Note_on_c, 0, 75, 0
2, 11550, Note_on_c, 0, 74, 124
2, 11574, Note_on_c, 0, 74, 0
2, 11580, Note_on_c, 0, 72, 124
2, 11604, Note_on_c, 0, 72, 0
2, 11610, Note_on_c, 0, 74, 124
2, 11634, Note_on_c, 0, 74, 0
2, 11640, Note_on_c, 0, 75, 124
2, 11664, Note_on_c, 0, 75, 0
2, 11670, Note_on_c, 0, 77, 124
2, 11694, Note_on_c, 0, 77, 0
2, 11700, Note_on_c, 0, 79, 127
2, 11751, Note_on_c, 0, 79, 0
2, 11760, Note_on_c, 0, 79, 124
2, 11772, Note_on_c, 0, 79, 0
2, 11775, Note_on_c, 0, 80, 124
2, 11787, Note_on_c, 0, 80, 0
2, 11790, Note_on_c, 0, 79, 124
2, 11814, Note_on_c, 0, 79, 0
2, 11820, Note_on_c, 0, 77, 124
2, 11868, Note_on_c, 0, 77, 0
2, 11940, Note_on_c, 0, 77, 127
2, 11990, Control_c, 0, 7, 110
2, 11991, Note_on_c, 0, 77, 0
2, 12000, Note_on_c, 0, 77, 124
2, 12000, Control_c, 0, 7, 109
2, 12012, Note_on_c, 0, 77, 0
2, 12015, Note_on_c, 0, 79, 124
2, 12020, Control_c, 0, 7, 108
2, 12027, Note_on_c, 0, 79, 0
2, 12030, Note_on_c, 0, 77, 124
2, 12030, Control_c, 0, 7, 107
2, 12040, Control_c, 0, 7, 106
2, 12050, Control_c, 0, 7, 105
2, 12054, Note_on_c, 0, 77, 0
2, 12060, Note_on_c, 0, 75, 124
2, 12060, Control_c, 0, 7, 104
2, 12070, Control_c, 0, 7, 103
2, 12080, Control_c, 0, 7, 102
2, 12084, Note_on_c, 0, 75, 0
2, 12090, Note_on_c, 0, 74, 127
2, 12090, Control_c, 0, 7, 101
2, 12100, Control_c, 0, 7, 100
2, 12110, Control_c, 0, 7, 99
2, 12114, Note_on_c, 0, 74, 0
2, 12120, Note_on_c, 0, 79, 127
2, 12120, Control_c, 0, 7, 98
2, 12130, Control_c, 0, 7, 97
2, 12140, Control_c, 0, 7, 96
2, 12144, Note_on_c, 0, 79, 0
2, 12150, Note_on_c, 0, 77, 127
2, 12150, Control_c, 0, 7, 95
2, 12160, Control_c, 0, 7, 94
2, 12170, Control_c, 0, 7, 93
2, 12174, Note_on_c, 0, 77, 0
2, 12180, Note_on_c, 0, 80, 127
2, 12180, Control_c, 0, 7, 92
2, 12190, Control_c, 0, 7, 91
2, 12200, Control_c, 0, 7, 90
2, 12204, Note_on_c, 0, 80, 0
2, 12210, Note_on_c, 0, 79, 127
2, 12210, Control_c, 0, 7, 89
2, 12220, Control_c, 0, 7, 88
2, 12230, Control_c, 0, 7, 87
2, 12234, Note_on_c, 0, 79, 0
2, 12240, Note_on_c, 0, 79, 127
2, 12250, Control_c, 0, 7, 86
2, 12260, Control_c, 0, 7, 85
2, 12270, Control_c, 0, 7, 84
2, 12280, Control_c, 0, 7, 83
2, 12290, Control_c, 0, 7, 82
2, 12300, Control_c, 0, 7, 81
2, 12310, Control_c, 0, 7, 80
2, 12312, Note_on_c, 0, 79, 0
2, 12320, Control_c, 0, 7, 79
2, 12330, Note_on_c, 0, 80, 127
2, 12330, Control_c, 0, 7, 78
2, 12340, Control_c, 0, 7, 77
2, 12350, Control_c, 0, 7, 76
2, 12354, Note_on_c, 0, 80, 0
2, 12360, Note_on_c, 0, 75, 127
2, 12360, Control_c, 0, 7, 75
2, 12370, Control_c, 0, 7, 74
2, 12372, Note_on_c, 0, 75, 0
2, 12375, Note_on_c, 0, 74, 127
2, 12380, Control_c, 0, 7, 73
2, 12387, Note_on_c, 0, 74, 0
2, 12390, Note_on_c, 0, 75, 127
2, 12390, Control_c, 0, 7, 72
2, 12400, Control_c, 0, 7, 71
2, 12402, Note_on_c, 0, 75, 0
2, 12405, Note_on_c, 0, 74, 127
2, 12410, Control_c, 0, 7, 70
2, 12417, Note_on_c, 0, 74, 0
2, 12420, Note_on_c, 0, 75, 127
2, 12420, Control_c, 0, 7, 69
2, 12430, Control_c, 0, 7, 68
2, 12432, Note_on_c, 0, 75, 0
2, 12435, Note_on_c, 0, 74, 127
2, 12440, Control_c, 0, 7, 67
2, 12447, Note_on_c, 0, 74, 0
2, 12450, Note_on_c, 0, 72, 124
2, 12450, Control_c, 0, 7, 66
2, 12460, Control_c, 0, 7, 65
2, 12474, Note_on_c, 0, 72, 0
2, 12480, Note_on_c, 0, 72, 127
2, 12866, Note_on_c, 0, 72, 0
2, 12866, End_track
3, 0, Start_track
3, 0, Title_t, "Track 4"
3, 0, Program_c, 2, 0
3, 0, Control_c, 2, 7, 90
3, 0, Control_c, 2, 10, 85
3, 0, Control_c, 2, 93, 108
3, 0, Control_c, 2, 7, 96
3, 70, Control_c, 2, 7, 97
3, 140, Control_c, 2, 7, 98
3, 1020, Note_on_c, 2, 48, 127
3, 1044, Note_on_c, 2, 48, 0
3, 1050, Note_on_c, 2, 47, 127
3, 1074, Note_on_c, 2, 47, 0
3, 1080, Note_on_c, 2, 48, 127
3, 1104, Note_on_c, 2, 48, 0
3, 1110, Note_on_c, 2, 50, 127
3, 1134, Note_on_c, 2, 50, 0
3, 1140, Note_on_c, 2, 51, 127
3, 1164, Note_on_c, 2, 51, 0
3, 1170, Note_on_c, 2, 43, 127
3, 1194, Note_on_c, 2, 43, 0
3, 1200, Note_on_c, 2, 44, 127
3, 1224, Note_on_c, 2, 44, 0
3, 1230, Note_on_c, 2, 46, 127
3, 1254, Note_on_c, 2, 46, 0
3, 1260, Note_on_c, 2, 44, 127
3, 1284, Note_on_c, 2, 44, 0
3, 1290, Note_on_c, 2, 41, 127
3, 1314, Note_on_c, 2, 41, 0
3, 1320, Note_on_c, 2, 53, 127
3, 1344, Note_on_c, 2, 53, 0
3, 1350, Note_on_c, 2, 51, 127
3, 1374, Note_on_c, 2, 51, 0
3, 1380, Note_on_c, 2, 50, 127
3, 1404, Note_on_c, 2, 50, 0
3, 1410, Note_on_c, 2, 48, 127
3, 1434, Note_on_c, 2, 48, 0
3, 1440, Note_on_c, 2, 47, 127
3, 1464, Note_on_c, 2, 47, 0
3, 1470, Note_on_c, 2, 56, 127
3, 1494, Note_on_c, 2, 56, 0
3, 1500, Note_on_c, 2, 55, 127
3, 1524, Note_on_c, 2, 55, 0
3, 1530, Note_on_c, 2, 53, 127
3, 1554, Note_on_c, 2, 53, 0
3, 1560, Note_on_c, 2, 51, 127
3, 1584, Note_on_c, 2, 51, 0
3, 1590, Note_on_c, 2, 50, 127
3, 1614, Note_on_c, 2, 50, 0
3, 1620, Note_on_c, 2, 48, 127
3, 1644, Note_on_c, 2, 48, 0
3, 1650, Note_on_c, 2, 47, 127
3, 1674, Note_on_c, 2, 47, 0
3, 1680, Note_on_c, 2, 48, 127
3, 1704, Note_on_c, 2, 48, 0
3, 1710, Note_on_c, 2, 50, 127
3, 1734, Note_on_c, 2, 50, 0
3, 1740, Note_on_c, 2, 48, 127
3, 1764, Note_on_c, 2, 48, 0
3, 1770, Note_on_c, 2, 50, 127
3, 1794, Note_on_c, 2, 50, 0
3, 1800, Note_on_c, 2, 51, 127
3, 1812, Note_on_c, 2, 51, 0
3, 1815, Note_on_c, 2, 50, 127
3, 1827, Note_on_c, 2, 50, 0
3, 1830, Note_on_c, 2, 51, 127
3, 1842, Note_on_c, 2, 51, 0
3, 1845, Note_on_c, 2, 50, 127
3, 1857, Note_on_c, 2, 50, 0
3, 1860, Note_on_c, 2, 51, 127
3, 1872, Note_on_c, 2, 51, 0
3, 1875, Note_on_c, 2, 50, 127
3, 1887, Note_on_c, 2, 50, 0
3, 1890, Note_on_c, 2, 48, 127
3, 1902, Note_on_c, 2, 48, 0
3, 1905, Note_on_c, 2, 50, 127
3, 1917, Note_on_c, 2, 50, 0
3, 1920, Note_on_c, 2, 51, 127
3, 1944, Note_on_c, 2, 51, 0
3, 1950, Note_on_c, 2, 50, 127
3, 1974, Note_on_c, 2, 50, 0
3, 1980, Note_on_c, 2, 48, 127
3, 2004, Note_on_c, 2, 48, 0
3, 2010, Note_on_c, 2, 50, 127
3, 2034, Note_on_c, 2, 50, 0
3, 2040, Note_on_c, 2, 51, 127
3, 2064, Note_on_c, 2, 51, 0
3, 2070, Note_on_c, 2, 53, 127
3, 2094, Note_on_c, 2, 53, 0
3, 2100, Note_on_c, 2, 55, 127
3, 2130, Control_c, 2, 7, 97
3, 2150, Control_c, 2, 7, 96
3, 2151, Note_on_c, 2, 55, 0
3, 2160, Note_on_c, 2, 55, 127
3, 2160, Control_c, 2, 7, 95
3, 2170, Control_c, 2, 7, 94
3, 2172, Note_on_c, 2, 55, 0
3, 2175, Note_on_c, 2, 56, 127
3, 2180, Control_c, 2, 7, 93
3, 2187, Note_on_c, 2, 56, 0
3, 2190, Note_on_c, 2, 55, 127
3, 2190, Control_c, 2, 7, 92
3, 2200, Control_c, 2, 7, 91
3, 2210, Control_c, 2, 7, 90
3, 2214, Note_on_c, 2, 55, 0
3, 2220, Note_on_c, 2, 53, 127
3, 2230, Control_c, 2, 7, 89
3, 2240, Control_c, 2, 7, 88
3, 2250, Control_c, 2, 7, 87
3, 2260, Control_c, 2, 7, 86
3, 2268, Note_on_c, 2, 53, 0
3, 2270, Control_c, 2, 7, 85
3, 2280, Control_c, 2, 7, 84
3, 2290, Control_c, 2, 7, 83
3, 2300, Control_c, 2, 7, 82
3, 2320, Control_c, 2, 7, 81
3, 2330, Control_c, 2, 7, 80
3, 2340, Note_on_c, 2, 53, 127
3, 2340, Control_c, 2, 7, 79
3, 2350, Control_c, 2, 7, 78
3, 2360, Control_c, 2, 7, 77
3, 2370, Control_c, 2, 7, 76
3, 2380, Control_c, 2, 7, 75
3, 2390, Control_c, 2, 7, 74
3, 2391, Note_on_c, 2, 53, 0
3, 2400, Note_on_c, 2, 53, 127
3, 2412, Note_on_c, 2, 53, 0
3, 2415, Note_on_c, 2, 55, 127
3, 2427, Note_on_c, 2, 55, 0
3, 2430, Note_on_c, 2, 53, 127
3, 2454, Note_on_c, 2, 53, 0
3, 2460, Note_on_c, 2, 51, 127
3, 2508, Note_on_c, 2, 51, 0
3, 2580, Note_on_c, 2, 50, 127
3, 2628, Note_on_c, 2, 50, 0
3, 2640, Note_on_c, 2, 51, 127
3, 2688, Note_on_c, 2, 51, 0
3, 2700, Note_on_c, 2, 44, 127
3, 2784, Note_on_c, 2, 44, 0
3, 2790, Note_on_c, 2, 41, 127
3, 2814, Note_on_c, 2, 41, 0
3, 2820, Note_on_c, 2, 46, 127
3, 2844, Note_on_c, 2, 46, 0
3, 2850, Note_on_c, 2, 41, 127
3, 2874, Note_on_c, 2, 41, 0
3, 2880, Note_on_c, 2, 43, 127
3, 2880, Control_c, 2, 7, 65
3, 2928, Note_on_c, 2, 43, 0
3, 2940, Note_on_c, 2, 51, 127
3, 2980, Control_c, 2, 7, 64
3, 3024, Note_on_c, 2, 51, 0
3, 3030, Note_on_c, 2, 50, 124
3, 3054, Note_on_c, 2, 50, 0
3, 3060, Note_on_c, 2, 51, 124
3, 3084, Note_on_c, 2, 51, 0
3, 3090, Note_on_c, 2, 46, 124
3, 3114, Note_on_c, 2, 46, 0
3, 3120, Note_on_c, 2, 48, 124
3, 3144, Note_on_c, 2, 48, 0
3, 3150, Note_on_c, 2, 51, 124
3, 3174, Note_on_c, 2, 51, 0
3, 3180, Note_on_c, 2, 56, 124
3, 3204, Note_on_c, 2, 56, 0
3, 3210, Note_on_c, 2, 55, 124
3, 3234, Note_on_c, 2, 55, 0
3, 3240, Note_on_c, 2, 53, 124
3, 3264, Note_on_c, 2, 53, 0
3, 3270, Note_on_c, 2, 51, 124
3, 3294, Note_on_c, 2, 51, 0
3, 3300, Note_on_c, 2, 50, 124
3, 3324, Note_on_c, 2, 50, 0
3, 3330, Note_on_c, 2, 48, 124
3, 3354, Note_on_c, 2, 48, 0
3, 3360, Note_on_c, 2, 46, 124
3, 3384, Note_on_c, 2, 46, 0
3, 3390, Note_on_c, 2, 50, 124
3, 3414, Note_on_c, 2, 50, 0
3, 3420, Note_on_c, 2, 55, 124
3, 3444, Note_on_c, 2, 55, 0
3, 3450, Note_on_c, 2, 53, 124
3, 3474, Note_on_c, 2, 53, 0
3, 3480, Note_on_c, 2, 51, 124
3, 3504, Note_on_c, 2, 51, 0
3, 3510, Note_on_c, 2, 50, 124
3, 3534, Note_on_c, 2, 50, 0
3, 3540, Note_on_c, 2, 48, 124
3, 3564, Note_on_c, 2, 48, 0
3, 3570, Note_on_c, 2, 46, 124
3, 3594, Note_on_c, 2, 46, 0
3, 3600, Note_on_c, 2, 44, 124
3, 3624, Note_on_c, 2, 44, 0
3, 3630, Note_on_c, 2, 48, 124
3, 3654, Note_on_c, 2, 48, 0
3, 3660, Note_on_c, 2, 53, 124
3, 3684, Note_on_c, 2, 53, 0
3, 3690, Note_on_c, 2, 48, 124
3, 3714, Note_on_c, 2, 48, 0
3, 3720, Note_on_c, 2, 50, 124
3, 3792, Note_on_c, 2, 50, 0
3, 3810, Note_on_c, 2, 50, 124
3, 3840, Control_c, 2, 7, 108
3, 3864, Note_on_c, 2, 50, 0
3, 3870, Note_on_c, 2, 46, 124
3, 3894, Note_on_c, 2, 46, 0
3, 3900, Note_on_c, 2, 48, 127
3, 3924, Note_on_c, 2, 48, 0
3, 3930, Note_on_c, 2, 46, 127
3, 3954, Note_on_c, 2, 46, 0
3, 3960, Note_on_c, 2, 55, 127
3, 3970, Control_c, 2, 7, 107
3, 4104, Note_on_c, 2, 55, 0
3, 4110, Note_on_c, 2, 46, 127
3, 4134, Note_on_c, 2, 46, 0
3, 4140, Note_on_c, 2, 48, 127
3, 4164, Note_on_c, 2, 48, 0
3, 4170, Note_on_c, 2, 46, 127
3, 4194, Note_on_c, 2, 46, 0
3, 4200, Note_on_c, 2, 56, 127
3, 4310, Control_c, 2, 7, 106
3, 4344, Note_on_c, 2, 56, 0
3, 4350, Note_on_c, 2, 46, 127
3, 4370, Control_c, 2, 7, 105
3, 4374, Note_on_c, 2, 46, 0
3, 4380, Note_on_c, 2, 51, 127
3, 4404, Note_on_c, 2, 51, 0
3, 4410, Note_on_c, 2, 50, 127
3, 4430, Control_c, 2, 7, 104
3, 4434, Note_on_c, 2, 50, 0
3, 4440, Note_on_c, 2, 55, 127
3, 4464, Note_on_c, 2, 55, 0
3, 4470, Note_on_c, 2, 53, 127
3, 4490, Control_c, 2, 7, 103
3, 4494, Note_on_c, 2, 53, 0
3, 4500, Note_on_c, 2, 56, 127
3, 4524, Note_on_c, 2, 56, 0
3, 4530, Note_on_c, 2, 55, 127
3, 4550, Control_c, 2, 7, 102
3, 4554, Note_on_c, 2, 55, 0
3, 4560, Note_on_c, 2, 60, 127
3, 4584, Note_on_c, 2, 60, 0
3, 4590, Note_on_c, 2, 58, 127
3, 4610, Control_c, 2, 7, 101
3, 4614, Note_on_c, 2, 58, 0
3, 4620, Note_on_c, 2, 56, 127
3, 4644, Note_on_c, 2, 56, 0
3, 4650, Note_on_c, 2, 55, 127
3, 4670, Control_c, 2, 7, 100
3, 4674, Note_on_c, 2, 55, 0
3, 4680, Note_on_c, 2, 53, 127
3, 4704, Note_on_c, 2, 53, 0
3, 4710, Note_on_c, 2, 58, 127
3, 4730, Control_c, 2, 7, 99
3, 4734, Note_on_c, 2, 58, 0
3, 4740, Note_on_c, 2, 56, 127
3, 4764, Note_on_c, 2, 56, 0
3, 4770, Note_on_c, 2, 58, 127
3, 4790, Control_c, 2, 7, 98
3, 4794, Note_on_c, 2, 58, 0
3, 4800, Note_on_c, 2, 55, 127
3, 4848, Note_on_c, 2, 55, 0
3, 4860, Note_on_c, 2, 39, 127
3, 4870, Control_c, 2, 7, 96
3, 4884, Note_on_c, 2, 39, 0
3, 4890, Note_on_c, 2, 41, 127
3, 4910, Control_c, 2, 7, 97
3, 4914, Note_on_c, 2, 41, 0
3, 4920, Note_on_c, 2, 43, 127
3, 4944, Note_on_c, 2, 43, 0
3, 4950, Note_on_c, 2, 45, 127
3, 4950, Control_c, 2, 7, 98
3, 4974, Note_on_c, 2, 45, 0
3, 4980, Note_on_c, 2, 46, 127
3, 4980, Control_c, 2, 7, 99
3, 5004, Note_on_c, 2, 46, 0
3, 5010, Note_on_c, 2, 38, 127
3, 5020, Control_c, 2, 7, 100
3, 5034, Note_on_c, 2, 38, 0
3, 5040, Note_on_c, 2, 39, 127
3, 5060, Control_c, 2, 7, 101
3, 5064, Note_on_c, 2, 39, 0
3, 5070, Note_on_c, 2, 41, 127
3, 5090, Control_c, 2, 7, 102
3, 5094, Note_on_c, 2, 41, 0
3, 5100, Note_on_c, 2, 39, 127
3, 5124, Note_on_c, 2, 39, 0
3, 5130, Note_on_c, 2, 36, 127
3, 5130, Control_c, 2, 7, 103
3, 5154, Note_on_c, 2, 36, 0
3, 5160, Note_on_c, 2, 48, 127
3, 5170, Control_c, 2, 7, 104
3, 5184, Note_on_c, 2, 48, 0
3, 5190, Note_on_c, 2, 46, 127
3, 5200, Control_c, 2, 7, 105
3, 5214, Note_on_c, 2, 46, 0
3, 5220, Note_on_c, 2, 45, 127
3, 5240, Control_c, 2, 7, 106
3, 5244, Note_on_c, 2, 45, 0
3, 5250, Note_on_c, 2, 43, 127
3, 5270, Control_c, 2, 7, 107
3, 5274, Note_on_c, 2, 43, 0
3, 5280, Note_on_c, 2, 42, 127
3, 5304, Note_on_c, 2, 42, 0
3, 5310, Note_on_c, 2, 51, 127
3, 5334, Note_on_c, 2, 51, 0
3, 5340, Note_on_c, 2, 50, 127
3, 5364, Note_on_c, 2, 50, 0
3, 5370, Note_on_c, 2, 48, 127
3, 5394, Note_on_c, 2, 48, 0
3, 5400, Note_on_c, 2, 46, 127
3, 5424, Note_on_c, 2, 46, 0
3, 5430, Note_on_c, 2, 45, 127
3, 5454, Note_on_c, 2, 45, 0
3, 5460, Note_on_c, 2, 43, 127
3, 5484, Note_on_c, 2, 43, 0
3, 5490, Note_on_c, 2, 42, 127
3, 5500, Control_c, 2, 7, 106
3, 5514, Note_on_c, 2, 42, 0
3, 5520, Note_on_c, 2, 43, 127
3, 5530, Control_c, 2, 7, 105
3, 5544, Note_on_c, 2, 43, 0
3, 5550, Note_on_c, 2, 45, 127
3, 5560, Control_c, 2, 7, 104
3, 5574, Note_on_c, 2, 45, 0
3, 5580, Note_on_c, 2, 43, 127
3, 5580, Control_c, 2, 7, 103
3, 5604, Note_on_c, 2, 43, 0
3, 5610, Note_on_c, 2, 45, 127
3, 5610, Control_c, 2, 7, 102
3, 5630, Control_c, 2, 7, 101
3, 5634, Note_on_c, 2, 45, 0
3, 5640, Note_on_c, 2, 46, 127
3, 5652, Note_on_c, 2, 46, 0
3, 5655, Note_on_c, 2, 45, 127
3, 5660, Control_c, 2, 7, 100
3, 5667, Note_on_c, 2, 45, 0
3, 5670, Note_on_c, 2, 46, 127
3, 5680, Control_c, 2, 7, 99
3, 5682, Note_on_c, 2, 46, 0
3, 5685, Note_on_c, 2, 45, 127
3, 5697, Note_on_c, 2, 45, 0
3, 5700, Note_on_c, 2, 46, 127
3, 5710, Control_c, 2, 7, 98
3, 5712, Note_on_c, 2, 46, 0
3, 5715, Note_on_c, 2, 45, 127
3, 5727, Note_on_c, 2, 45, 0
3, 5730, Note_on_c, 2, 43, 127
3, 5730, Control_c, 2, 7, 97
3, 5742, Note_on_c, 2, 43, 0
3, 5745, Note_on_c, 2, 45, 127
3, 5757, Note_on_c, 2, 45, 0
3, 5760, Note_on_c, 2, 46, 127
3, 5760, Control_c, 2, 7, 96
3, 5780, Control_c, 2, 7, 95
3, 5784, Note_on_c, 2, 46, 0
3, 5790, Note_on_c, 2, 45, 127
3, 5810, Control_c, 2, 7, 94
3, 5814, Note_on_c, 2, 45, 0
3, 5820, Note_on_c, 2, 43, 127
3, 5830, Control_c, 2, 7, 93
3, 5844, Note_on_c, 2, 43, 0
3, 5850, Note_on_c, 2, 45, 127
3, 5860, Control_c, 2, 7, 92
3, 5874, Note_on_c, 2, 45, 0
3, 5880, Note_on_c, 2, 46, 127
3, 5880, Control_c, 2, 7, 91
3, 5904, Note_on_c, 2, 46, 0
3, 5910, Note_on_c, 2, 48, 127
3, 5910, Control_c, 2, 7, 90
3, 5930, Control_c, 2, 7, 87
3, 5934, Note_on_c, 2, 48, 0
3, 5940, Note_on_c, 2, 50, 127
3, 5991, Note_on_c, 2, 50, 0
3, 6000, Note_on_c, 2, 50, 127
3, 6012, Note_on_c, 2, 50, 0
3, 6015, Note_on_c, 2, 51, 127
3, 6027, Note_on_c, 2, 51, 0
3, 6030, Note_on_c, 2, 50, 127
3, 6030, Control_c, 2, 7, 86
3, 6054, Note_on_c, 2, 50, 0
3, 6060, Note_on_c, 2, 48, 127
3, 6108, Note_on_c, 2, 48, 0
3, 6130, Control_c, 2, 7, 85
3, 6180, Note_on_c, 2, 48, 127
3, 6220, Control_c, 2, 7, 84
3, 6231, Note_on_c, 2, 48, 0
3, 6240, Note_on_c, 2, 48, 127
3, 6252, Note_on_c, 2, 48, 0
3, 6255, Note_on_c, 2, 50, 127
3, 6267, Note_on_c, 2, 50, 0
3, 6270, Note_on_c, 2, 48, 127
3, 6294, Note_on_c, 2, 48, 0
3, 6300, Note_on_c, 2, 46, 127
3, 6320, Control_c, 2, 7, 83
3, 6348, Note_on_c, 2, 46, 0
3, 6420, Note_on_c, 2, 45, 127
3, 6420, Control_c, 2, 7, 82
3, 6468, Note_on_c, 2, 45, 0
3, 6480, Note_on_c, 2, 46, 127
3, 6510, Control_c, 2, 7, 81
3, 6528, Note_on_c, 2, 46, 0
3, 6540, Note_on_c, 2, 39, 127
3, 6610, Control_c, 2, 7, 80
3, 6624, Note_on_c, 2, 39, 0
3, 6630, Note_on_c, 2, 36, 127
3, 6654, Note_on_c, 2, 36, 0
3, 6660, Note_on_c, 2, 41, 127
3, 6684, Note_on_c, 2, 41, 0
3, 6690, Note_on_c, 2, 36, 127
3, 6710, Control_c, 2, 7, 79
3, 6714, Note_on_c, 2, 36, 0
3, 6720, Note_on_c, 2, 38, 127
3, 6768, Note_on_c, 2, 38, 0
3, 6780, Note_on_c, 2, 46, 127
3, 6800, Control_c, 2, 7, 78
3, 6864, Note_on_c, 2, 46, 0
3, 6870, Note_on_c, 2, 45, 127
3, 6894, Note_on_c, 2, 45, 0
3, 6900, Note_on_c, 2, 46, 127
3, 6900, Control_c, 2, 7, 77
3, 6924, Note_on_c, 2, 46, 0
3, 6930, Note_on_c, 2, 41, 127
3, 6954, Note_on_c, 2, 41, 0
3, 6960, Note_on_c, 2, 43, 127
3, 6984, Note_on_c, 2, 43, 0
3, 6990, Note_on_c, 2, 46, 127
3, 7000, Control_c, 2, 7, 76
3, 7014, Note_on_c, 2, 46, 0
3, 7020, Note_on_c, 2, 51, 127
3, 7044, Note_on_c, 2, 51, 0
3, 7050, Note_on_c, 2, 50, 127
3, 7074, Note_on_c, 2, 50, 0
3, 7080, Note_on_c, 2, 48, 127
3, 7090, Control_c, 2, 7, 75
3, 7104, Note_on_c, 2, 48, 0
3, 7110, Note_on_c, 2, 46, 127
3, 7134, Note_on_c, 2, 46, 0
3, 7140, Note_on_c, 2, 45, 127
3, 7164, Note_on_c, 2, 45, 0
3, 7170, Note_on_c, 2, 43, 127
3, 7190, Control_c, 2, 7, 74
3, 7194, Note_on_c, 2, 43, 0
3, 7200, Note_on_c, 2, 41, 127
3, 7224, Note_on_c, 2, 41, 0
3, 7230, Note_on_c, 2, 45, 127
3, 7254, Note_on_c, 2, 45, 0
3, 7260, Note_on_c, 2, 50, 127
3, 7284, Note_on_c, 2, 50, 0
3, 7290, Note_on_c, 2, 48, 127
3, 7290, Control_c, 2, 7, 73
3, 7314, Note_on_c, 2, 48, 0
3, 7320, Note_on_c, 2, 46, 127
3, 7344, Note_on_c, 2, 46, 0
3, 7350, Note_on_c, 2, 45, 127
3, 7374, Note_on_c, 2, 45, 0
3, 7380, Note_on_c, 2, 43, 127
3, 7380, Control_c, 2, 7, 72
3, 7404, Note_on_c, 2, 43, 0
3, 7410, Note_on_c, 2, 41, 127
3, 7434, Note_on_c, 2, 41, 0
3, 7440, Note_on_c, 2, 39, 127
3, 7464, Note_on_c, 2, 39, 0
3, 7470, Note_on_c, 2, 43, 127
3, 7480, Control_c, 2, 7, 71
3, 7494, Note_on_c, 2, 43, 0
3, 7500, Note_on_c, 2, 48, 127
3, 7524, Note_on_c, 2, 48, 0
3, 7530, Note_on_c, 2, 43, 127
3, 7554, Note_on_c, 2, 43, 0
3, 7560, Note_on_c, 2, 45, 127
3, 7580, Control_c, 2, 7, 70
3, 7632, Note_on_c, 2, 45, 0
3, 7650, Note_on_c, 2, 45, 127
3, 7670, Control_c, 2, 7, 69
3, 7674, Note_on_c, 2, 45, 0
3, 7680, Note_on_c, 2, 46, 127
3, 7680, Control_c, 2, 7, 71
3, 7704, Note_on_c, 2, 46, 0
3, 7710, Note_on_c, 2, 41, 124
3, 7734, Note_on_c, 2, 41, 0
3, 7740, Note_on_c, 2, 43, 124
3, 7764, Note_on_c, 2, 43, 0
3, 7770, Note_on_c, 2, 41, 124
3, 7794, Note_on_c, 2, 41, 0
3, 7800, Note_on_c, 2, 50, 124
3, 7944, Note_on_c, 2, 50, 0
3, 7950, Note_on_c, 2, 41, 124
3, 7974, Note_on_c, 2, 41, 0
3, 7980, Note_on_c, 2, 43, 124
3, 8004, Note_on_c, 2, 43, 0
3, 8010, Note_on_c, 2, 41, 124
3, 8034, Note_on_c, 2, 41, 0
3, 8040, Note_on_c, 2, 51, 124
3, 8184, Note_on_c, 2, 51, 0
3, 8190, Note_on_c, 2, 41, 124
3, 8214, Note_on_c, 2, 41, 0
3, 8220, Note_on_c, 2, 46, 124
3, 8244, Note_on_c, 2, 46, 0
3, 8250, Note_on_c, 2, 45, 124
3, 8274, Note_on_c, 2, 45, 0
3, 8280, Note_on_c, 2, 50, 124
3, 8304, Note_on_c, 2, 50, 0
3, 8310, Note_on_c, 2, 48, 124
3, 8334, Note_on_c, 2, 48, 0
3, 8340, Note_on_c, 2, 51, 124
3, 8364, Note_on_c, 2, 51, 0
3, 8370, Note_on_c, 2, 50, 124
3, 8394, Note_on_c, 2, 50, 0
3, 8400, Note_on_c, 2, 55, 124
3, 8424, Note_on_c, 2, 55, 0
3, 8430, Note_on_c, 2, 53, 124
3, 8454, Note_on_c, 2, 53, 0
3, 8460, Note_on_c, 2, 51, 124
3, 8484, Note_on_c, 2, 51, 0
3, 8490, Note_on_c, 2, 50, 124
3, 8514, Note_on_c, 2, 50, 0
3, 8520, Note_on_c, 2, 48, 124
3, 8544, Note_on_c, 2, 48, 0
3, 8550, Note_on_c, 2, 53, 124
3, 8574, Note_on_c, 2, 53, 0
3, 8580, Note_on_c, 2, 51, 124
3, 8604, Note_on_c, 2, 51, 0
3, 8610, Note_on_c, 2, 53, 124
3, 8634, Note_on_c, 2, 53, 0
3, 8640, Note_on_c, 2, 50, 124
3, 8664, Note_on_c, 2, 50, 0
3, 8670, Note_on_c, 2, 53, 124
3, 8694, Note_on_c, 2, 53, 0
3, 8700, Note_on_c, 2, 51, 124
3, 8724, Note_on_c, 2, 51, 0
3, 8730, Note_on_c, 2, 53, 124
3, 8754, Note_on_c, 2, 53, 0
3, 8760, Note_on_c, 2, 46, 124
3, 8784, Note_on_c, 2, 46, 0
3, 8790, Note_on_c, 2, 50, 124
3, 8814, Note_on_c, 2, 50, 0
3, 8820, Note_on_c, 2, 48, 124
3, 8844, Note_on_c, 2, 48, 0
3, 8850, Note_on_c, 2, 50, 124
3, 8874, Note_on_c, 2, 50, 0
3, 8880, Note_on_c, 2, 43, 124
3, 8904, Note_on_c, 2, 43, 0
3, 8910, Note_on_c, 2, 45, 124
3, 8934, Note_on_c, 2, 45, 0
3, 8940, Note_on_c, 2, 46, 124
3, 8964, Note_on_c, 2, 46, 0
3, 8970, Note_on_c, 2, 48, 124
3, 8994, Note_on_c, 2, 48, 0
3, 9000, Note_on_c, 2, 45, 124
3, 9024, Note_on_c, 2, 45, 0
3, 9030, Note_on_c, 2, 46, 124
3, 9054, Note_on_c, 2, 46, 0
3, 9060, Note_on_c, 2, 48, 124
3, 9084, Note_on_c, 2, 48, 0
3, 9090, Note_on_c, 2, 50, 124
3, 9110, Control_c, 2, 7, 67
3, 9114, Note_on_c, 2, 50, 0
3, 9120, Note_on_c, 2, 46, 124
3, 9144, Note_on_c, 2, 46, 0
3, 9150, Note_on_c, 2, 48, 124
3, 9150, Control_c, 2, 7, 68
3, 9174, Note_on_c, 2, 48, 0
3, 9180, Note_on_c, 2, 50, 124
3, 9180, Control_c, 2, 7, 69
3, 9204, Note_on_c, 2, 50, 0
3, 9210, Note_on_c, 2, 51, 124
3, 9220, Control_c, 2, 7, 70
3, 9234, Note_on_c, 2, 51, 0
3, 9240, Note_on_c, 2, 53, 124
3, 9250, Control_c, 2, 7, 71
3, 9264, Note_on_c, 2, 53, 0
3, 9270, Note_on_c, 2, 51, 124
3, 9280, Control_c, 2, 7, 72
3, 9294, Note_on_c, 2, 51, 0
3, 9300, Note_on_c, 2, 55, 124
3, 9320, Control_c, 2, 7, 73
3, 9324, Note_on_c, 2, 55, 0
3, 9330, Note_on_c, 2, 53, 124
3, 9350, Control_c, 2, 7, 74
3, 9354, Note_on_c, 2, 53, 0
3, 9360, Note_on_c, 2, 51, 124
3, 9380, Control_c, 2, 7, 75
3, 9384, Note_on_c, 2, 51, 0
3, 9390, Note_on_c, 2, 50, 124
3, 9414, Note_on_c, 2, 50, 0
3, 9420, Note_on_c, 2, 48, 124
3, 9420, Control_c, 2, 7, 76
3, 9444, Note_on_c, 2, 48, 0
3, 9450, Note_on_c, 2, 51, 124
3, 9450, Control_c, 2, 7, 77
3, 9474, Note_on_c, 2, 51, 0
3, 9480, Note_on_c, 2, 45, 124
3, 9480, Control_c, 2, 7, 78
3, 9520, Control_c, 2, 7, 79
3, 9550, Control_c, 2, 7, 80
3, 9580, Control_c, 2, 7, 81
3, 9620, Control_c, 2, 7, 82
3, 9624, Note_on_c, 2, 45, 0
3, 9630, Note_on_c, 2, 38, 124
3, 9650, Control_c, 2, 7, 83
3, 9654, Note_on_c, 2, 38, 0
3, 9660, Note_on_c, 2, 43, 124
3, 9680, Control_c, 2, 7, 84
3, 9684, Note_on_c, 2, 43, 0
3, 9690, Note_on_c, 2, 42, 124
3, 9714, Note_on_c, 2, 42, 0
3, 9720, Note_on_c, 2, 46, 124
3, 9720, Control_c, 2, 7, 85
3, 9744, Note_on_c, 2, 46, 0
3, 9750, Note_on_c, 2, 45, 124
3, 9750, Control_c, 2, 7, 86
3, 9774, Note_on_c, 2, 45, 0
3, 9780, Note_on_c, 2, 48, 124
3, 9780, Control_c, 2, 7, 87
3, 9804, Note_on_c, 2, 48, 0
3, 9810, Note_on_c, 2, 46, 124
3, 9820, Control_c, 2, 7, 88
3, 9834, Note_on_c, 2, 46, 0
3, 9840, Note_on_c, 2, 51, 124
3, 9850, Control_c, 2, 7, 89
3, 9864, Note_on_c, 2, 51, 0
3, 9870, Note_on_c, 2, 50, 124
3, 9880, Control_c, 2, 7, 90
3, 9894, Note_on_c, 2, 50, 0
3, 9900, Note_on_c, 2, 48, 124
3, 9920, Control_c, 2, 7, 91
3, 9924, Note_on_c, 2, 48, 0
3, 9930, Note_on_c, 2, 46, 124
3, 9950, Control_c, 2, 7, 92
3, 9954, Note_on_c, 2, 46, 0
3, 9960, Note_on_c, 2, 45, 124
3, 9980, Control_c, 2, 7, 93
3, 9984, Note_on_c, 2, 45, 0
3, 9990, Note_on_c, 2, 50, 124
3, 10014, Note_on_c, 2, 50, 0
3, 10020, Note_on_c, 2, 48, 124
3, 10020, Control_c, 2, 7, 94
3, 10044, Note_on_c, 2, 48, 0
3, 10050, Note_on_c, 2, 50, 124
3, 10050, Control_c, 2, 7, 95
3, 10074, Note_on_c, 2, 50, 0
3, 10080, Note_on_c, 2, 47, 124
3, 10080, Control_c, 2, 7, 96
3, 10104, Note_on_c, 2, 47, 0
3, 10110, Note_on_c, 2, 53, 124
3, 10120, Control_c, 2, 7, 97
3, 10134, Note_on_c, 2, 53, 0
3, 10140, Note_on_c, 2, 51, 124
3, 10150, Control_c, 2, 7, 98
3, 10164, Note_on_c, 2, 51, 0
3, 10170, Note_on_c, 2, 50, 124
3, 10180, Control_c, 2, 7, 99
3, 10194, Note_on_c, 2, 50, 0
3, 10200, Note_on_c, 2, 48, 124
3, 10220, Control_c, 2, 7, 100
3, 10224, Note_on_c, 2, 48, 0
3, 10230, Note_on_c, 2, 46, 124
3, 10250, Control_c, 2, 7, 101
3, 10254, Note_on_c, 2, 46, 0
3, 10260, Note_on_c, 2, 44, 124
3, 10280, Control_c, 2, 7, 102
3, 10284, Note_on_c, 2, 44, 0
3, 10290, Note_on_c, 2, 43, 124
3, 10314, Note_on_c, 2, 43, 0
3, 10320, Note_on_c, 2, 41, 124
3, 10320, Control_c, 2, 7, 103
3, 10344, Note_on_c, 2, 41, 0
3, 10350, Note_on_c, 2, 39, 124
3, 10350, Control_c, 2, 7, 104
3, 10374, Note_on_c, 2, 39, 0
3, 10380, Note_on_c, 2, 38, 124
3, 10380, Control_c, 2, 7, 105
3, 10404, Note_on_c, 2, 38, 0
3, 10410, Note_on_c, 2, 36, 124
3, 10420, Control_c, 2, 7, 106
3, 10434, Note_on_c, 2, 36, 0
3, 10440, Note_on_c, 2, 43, 124
3, 10450, Control_c, 2, 7, 107
3, 10480, Control_c, 2, 7, 108
3, 10488, Note_on_c, 2, 43, 0
3, 10500, Note_on_c, 2, 55, 124
3, 10520, Control_c, 2, 7, 109
3, 10548, Note_on_c, 2, 55, 0
3, 10550, Control_c, 2, 7, 110
3, 10560, Note_on_c, 2, 48, 124
3, 10580, Control_c, 2, 7, 111
3, 10632, Note_on_c, 2, 48, 0
3, 10650, Note_on_c, 2, 50, 127
3, 10674, Note_on_c, 2, 50, 0
3, 10680, Note_on_c, 2, 51, 127
3, 10704, Note_on_c, 2, 51, 0
3, 10710, Note_on_c, 2, 53, 127
3, 10734, Note_on_c, 2, 53, 0
3, 10740, Note_on_c, 2, 55, 127
3, 10791, Note_on_c, 2, 55, 0
3, 10800, Note_on_c, 2, 55, 127
3, 10812, Note_on_c, 2, 55, 0
3, 10815, Note_on_c, 2, 56, 127
3, 10827, Note_on_c, 2, 56, 0
3, 10830, Note_on_c, 2, 55, 127
3, 10854, Note_on_c, 2, 55, 0
3, 10860, Note_on_c, 2, 53, 127
3, 10908, Note_on_c, 2, 53, 0
3, 10980, Note_on_c, 2, 53, 127
3, 11031, Note_on_c, 2, 53, 0
3, 11040, Note_on_c, 2, 53, 127
3, 11052, Note_on_c, 2, 53, 0
3, 11055, Note_on_c, 2, 55, 127
3, 11067, Note_on_c, 2, 55, 0
3, 11070, Note_on_c, 2, 53, 127
3, 11094, Note_on_c, 2, 53, 0
3, 11100, Note_on_c, 2, 51, 127
3, 11184, Note_on_c, 2, 51, 0
3, 11190, Note_on_c, 2, 53, 127
3, 11214, Note_on_c, 2, 53, 0
3, 11220, Note_on_c, 2, 51, 127
3, 11244, Note_on_c, 2, 51, 0
3, 11250, Note_on_c, 2, 50, 127
3, 11274, Note_on_c, 2, 50, 0
3, 11280, Note_on_c, 2, 48, 127
3, 11304, Note_on_c, 2, 48, 0
3, 11310, Note_on_c, 2, 46, 127
3, 11334, Note_on_c, 2, 46, 0
3, 11340, Note_on_c, 2, 44, 127
3, 11364, Note_on_c, 2, 44, 0
3, 11370, Note_on_c, 2, 43, 127
3, 11394, Note_on_c, 2, 43, 0
3, 11400, Note_on_c, 2, 41, 127
3, 11424, Note_on_c, 2, 41, 0
3, 11430, Note_on_c, 2, 39, 127
3, 11454, Note_on_c, 2, 39, 0
3, 11460, Note_on_c, 2, 41, 127
3, 11484, Note_on_c, 2, 41, 0
3, 11490, Note_on_c, 2, 43, 127
3, 11514, Note_on_c, 2, 43, 0
3, 11520, Note_on_c, 2, 36, 127
3, 11568, Note_on_c, 2, 36, 0
3, 11580, Note_on_c, 2, 48, 127
3, 11604, Note_on_c, 2, 48, 0
3, 11610, Note_on_c, 2, 47, 127
3, 11634, Note_on_c, 2, 47, 0
3, 11640, Note_on_c, 2, 48, 127
3, 11664, Note_on_c, 2, 48, 0
3, 11670, Note_on_c, 2, 50, 127
3, 11694, Note_on_c, 2, 50, 0
3, 11700, Note_on_c, 2, 51, 127
3, 11724, Note_on_c, 2, 51, 0
3, 11730, Note_on_c, 2, 43, 127
3, 11754, Note_on_c, 2, 43, 0
3, 11760, Note_on_c, 2, 44, 127
3, 11784, Note_on_c, 2, 44, 0
3, 11790, Note_on_c, 2, 46, 127
3, 11814, Note_on_c, 2, 46, 0
3, 11820, Note_on_c, 2, 44, 127
3, 11844, Note_on_c, 2, 44, 0
3, 11850, Note_on_c, 2, 41, 127
3, 11874, Note_on_c, 2, 41, 0
3, 11880, Note_on_c, 2, 53, 127
3, 11904, Note_on_c, 2, 53, 0
3, 11910, Note_on_c, 2, 51, 127
3, 11934, Note_on_c, 2, 51, 0
3, 11940, Note_on_c, 2, 50, 127
3, 11964, Note_on_c, 2, 50, 0
3, 11970, Note_on_c, 2, 48, 127
3, 11994, Note_on_c, 2, 48, 0
3, 12000, Note_on_c, 2, 47, 127
3, 12010, Control_c, 2, 7, 108
3, 12024, Note_on_c, 2, 47, 0
3, 12030, Note_on_c, 2, 56, 127
3, 12030, Control_c, 2, 7, 107
3, 12040, Control_c, 2, 7, 106
3, 12050, Control_c, 2, 7, 105
3, 12054, Note_on_c, 2, 56, 0
3, 12060, Note_on_c, 2, 55, 127
3, 12060, Control_c, 2, 7, 104
3, 12070, Control_c, 2, 7, 103
3, 12084, Note_on_c, 2, 55, 0
3, 12090, Note_on_c, 2, 53, 127
3, 12090, Control_c, 2, 7, 102
3, 12100, Control_c, 2, 7, 101
3, 12110, Control_c, 2, 7, 100
3, 12114, Note_on_c, 2, 53, 0
3, 12120, Note_on_c, 2, 51, 127
3, 12120, Control_c, 2, 7, 99
3, 12130, Control_c, 2, 7, 98
3, 12140, Control_c, 2, 7, 97
3, 12144, Note_on_c, 2, 51, 0
3, 12150, Note_on_c, 2, 50, 127
3, 12160, Control_c, 2, 7, 96
3, 12170, Control_c, 2, 7, 95
3, 12174, Note_on_c, 2, 50, 0
3, 12180, Note_on_c, 2, 48, 127
3, 12180, Control_c, 2, 7, 94
3, 12190, Control_c, 2, 7, 93
3, 12200, Control_c, 2, 7, 92
3, 12204, Note_on_c, 2, 48, 0
3, 12210, Note_on_c, 2, 47, 127
3, 12210, Control_c, 2, 7, 91
3, 12230, Control_c, 2, 7, 90
3, 12234, Note_on_c, 2, 47, 0
3, 12240, Note_on_c, 2, 48, 127
3, 12240, Control_c, 2, 7, 89
3, 12250, Control_c, 2, 7, 88
3, 12260, Control_c, 2, 7, 87
3, 12264, Note_on_c, 2, 48, 0
3, 12270, Note_on_c, 2, 43, 127
3, 12270, Control_c, 2, 7, 86
3, 12280, Control_c, 2, 7, 85
3, 12294, Note_on_c, 2, 43, 0
3, 12300, Note_on_c, 2, 44, 127
3, 12300, Control_c, 2, 7, 84
3, 12310, Control_c, 2, 7, 83
3, 12320, Control_c, 2, 7, 82
3, 12324, Note_on_c, 2, 44, 0
3, 12330, Note_on_c, 2, 41, 127
3, 12330, Control_c, 2, 7, 81
3, 12340, Control_c, 2, 7, 80
3, 12350, Control_c, 2, 7, 79
3, 12354, Note_on_c, 2, 41, 0
3, 12360, Note_on_c, 2, 43, 127
3, 12370, Control_c, 2, 7, 78
3, 12380, Control_c, 2, 7, 77
3, 12390, Control_c, 2, 7, 76
3, 12400, Control_c, 2, 7, 75
3, 12408, Note_on_c, 2, 43, 0
3, 12410, Control_c, 2, 7, 74
3, 12420, Note_on_c, 2, 43, 127
3, 12420, Control_c, 2, 7, 73
3, 12440, Control_c, 2, 7, 72
3, 12450, Control_c, 2, 7, 71
3, 12460, Control_c, 2, 7, 70
3, 12468, Note_on_c, 2, 43, 0
3, 12470, Control_c, 2, 7, 69
3, 12480, Note_on_c, 2, 36, 127
3, 12480, Control_c, 2, 7, 68
3, 12490, Control_c, 2, 7, 67
3, 12866, Note_on_c, 2, 36, 0
3, 12866, End_track
4, 0, Start_track
4, 0, End_track
0, 0, End_of_file
