0, 0, Header, 1, 5, 1024
1, 0, Start_track
1, 0, Time_signature, 4, 2, 24, 8
1, 0, Key_signature, 0, "minor"
1, 0, Tempo, 600000
1, 139265, End_track
2, 0, Start_track
2, 0, Title_t, "Instrument 1"
2, 0, Program_c, 0, 0
2, 0, Note_on_c, 0, 69, 95
2, 2048, Note_off_c, 0, 69, 0
2, 2048, Note_on_c, 0, 72, 95
2, 4096, Note_off_c, 0, 72, 0
2, 4096, Note_on_c, 0, 67, 95
2, 4608, Note_off_c, 0, 67, 0
2, 4608, Note_on_c, 0, 65, 95
2, 5120, Note_off_c, 0, 65, 0
2, 5120, Note_on_c, 0, 64, 95
2, 7168, Note_off_c, 0, 64, 0
2, 7168, Note_on_c, 0, 69, 95
2, 8192, Note_off_c, 0, 69, 0
2, 8192, Note_on_c, 0, 67, 95
2, 9216, Note_off_c, 0, 67, 0
2, 9216, Note_on_c, 0, 64, 95
2, 10240, Note_off_c, 0, 64, 0
2, 10240, Note_on_c, 0, 65, 95
2, 12288, Note_off_c, 0, 65, 0
2, 25600, Note_on_c, 0, 69, 95
2, 27648, Note_off_c, 0, 69, 0
2, 27648, Note_on_c, 0, 65, 95
2, 28672, Note_off_c, 0, 65, 0
2, 28672, Note_on_c, 0, 64, 95
2, 30720, Note_off_c, 0, 64, 0
2, 30720, Note_on_c, 0, 69, 95
2, 32768, Note_off_c, 0, 69, 0
2, 32768, Note_on_c, 0, 67, 95
2, 33792, Note_off_c, 0, 67, 0
2, 33792, Note_on_c, 0, 64, 95
2, 34816, Note_off_c, 0, 64, 0
2, 34816, Note_on_c, 0, 65, 95
2, 36864, Note_off_c, 0, 65, 0
2, 46080, Note_on_c, 0, 69, 95
2, 47104, Note_off_c, 0, 69, 0
2, 47104, Note_on_c, 0, 71, 95
2, 48128, Note_off_c, 0, 71, 0
2, 48128, Note_on_c, 0, 73, 95
2, 49152, Note_off_c, 0, 73, 0
2, 49152, Note_on_c, 0, 74, 95
2, 51200, Note_off_c, 0, 74, 0
2, 51200, Note_on_c, 0, 69, 95
2, 52224, Note_off_c, 0, 69, 0
2, 52224, Note_on_c, 0, 72, 95
2, 53248, Note_off_c, 0, 72, 0
2, 53248, Note_on_c, 0, 71, 95
2, 55296, Note_off_c, 0, 71, 0
2, 55296, Note_on_c, 0, 69, 95
2, 57344, Note_off_c, 0, 69, 0
2, 74752, Note_on_c, 0, 71, 95
2, 75776, Note_off_c, 0, 71, 0
2, 75776, Note_on_c, 0, 72, 95
2, 77824, Note_off_c, 0, 72, 0
2, 77824, Note_on_c, 0, 71, 95
2, 78848, Note_off_c, 0, 71, 0
2, 78848, Note_on_c, 0, 69, 95
2, 80896, Note_off_c, 0, 69, 0
2, 80896, Note_on_c, 0, 69, 95
2, 81920, Note_off_c, 0, 69, 0
2, 81920, Note_on_c, 0, 67, 95
2, 82944, Note_off_c, 0, 67, 0
2, 82944, Note_on_c, 0, 64, 95
2, 83968, Note_off_c, 0, 64, 0
2, 83968, Note_on_c, 0, 65, 95
2, 86016, Note_off_c, 0, 65, 0
2, 91136, Note_on_c, 0, 67, 95
2, 92160, Note_off_c, 0, 67, 0
2, 92160, Note_on_c, 0, 67, 95
2, 94208, Note_off_c, 0, 67, 0
2, 94208, Note_on_c, 0, 69, 95
2, 95232, Note_off_c, 0, 69, 0
2, 95232, Note_on_c, 0, 67, 95
2, 97280, Note_off_c, 0, 67, 0
2, 97280, Note_on_c, 0, 64, 95
2, 98304, Note_off_c, 0, 64, 0
2, 98304, Note_on_c, 0, 65, 95
2, 99328, Note_off_c, 0, 65, 0
2, 99328, Note_on_c, 0, 65, 95
2, 100352, Note_off_c, 0, 65, 0
2, 100352, Note_on_c, 0, 64, 95
2, 102400, Note_off_c, 0, 64, 0
2, 111616, Note_on_c, 0, 71, 95
2, 112640, Note_off_c, 0, 71, 0
2, 112640, Note_on_c, 0, 72, 95
2, 114688, Note_off_c, 0, 72, 0
2, 114688, Note_on_c, 0, 71, 95
2, 115712, Note_off_c, 0, 71, 0
2, 115712, Note_on_c, 0, 69, 95
2, 117760, Note_off_c, 0, 69, 0
2, 117760, Note_on_c, 0, 68, 95
2, 118784, Note_off_c, 0, 68, 0
2, 118784, Note_on_c, 0, 69, 95
2, 120832, Note_off_c, 0, 69, 0
2, 120832, Note_on_c, 0, 69, 95
2, 123904, Note_off_c, 0, 69, 0
2, 123904, Note_on_c, 0, 68, 95
2, 124416, Note_off_c, 0, 68, 0
2, 124416, Note_on_c, 0, 66, 95
2, 124928, Note_off_c, 0, 66, 0
2, 124928, Note_on_c, 0, 68, 95
2, 125440, Note_off_c, 0, 68, 0
2, 125440, Note_on_c, 0, 71, 95
2, 125952, Note_off_c, 0, 71, 0
2, 125952, Note_on_c, 0, 76, 95
2, 126464, Note_off_c, 0, 76, 0
2, 126464, Note_on_c, 0, 74, 95
2, 126976, Note_off_c, 0, 74, 0
2, 126976, Note_on_c, 0, 72, 95
2, 133760, Note_off_c, 0, 72, 0
2, 133760, Note_on_c, 0, 69, 95
2, 133888, Note_off_c, 0, 69, 0
2, 133888, Note_on_c, 0, 71, 95
2, 134016, Note_off_c, 0, 71, 0
2, 134016, Note_on_c, 0, 72, 95
2, 134144, Note_off_c, 0, 72, 0
2, 134144, Note_on_c, 0, 63, 95
2, 134656, Note_off_c, 0, 63, 0
2, 134656, Note_on_c, 0, 71, 95
2, 134912, Note_off_c, 0, 71, 0
2, 134912, Note_on_c, 0, 63, 95
2, 135168, Note_off_c, 0, 63, 0
2, 135168, Note_on_c, 0, 64, 95
2, 139264, Note_off_c, 0, 64, 0
2, 139265, End_track
3, 0, Start_track
3, 0, Title_t, "Instrument 2"
3, 0, Program_c, 1, 0
3, 1024, Note_on_c, 1, 61, 95
3, 2048, Note_off_c, 1, 61, 0
3, 2048, Note_on_c, 1, 62, 95
3, 2560, Note_off_c, 1, 62, 0
3, 2560, Note_on_c, 1, 64, 95
3, 3072, Note_off_c, 1, 64, 0
3, 3072, Note_on_c, 1, 65, 95
3, 3584, Note_off_c, 1, 65, 0
3, 3584, Note_on_c, 1, 64, 95
3, 4096, Note_off_c, 1, 64, 0
3, 4096, Note_on_c, 1, 62, 95
3, 6144, Note_off_c, 1, 62, 0
3, 6144, Note_on_c, 1, 60, 95
3, 8192, Note_off_c, 1, 60, 0
3, 8704, Note_on_c, 1, 62, 95
3, 9216, Note_off_c, 1, 62, 0
3, 9216, Note_on_c, 1, 64, 95
3, 10752, Note_off_c, 1, 64, 0
3, 10752, Note_on_c, 1, 57, 95
3, 11264, Note_off_c, 1, 57, 0
3, 11264, Note_on_c, 1, 62, 95
3, 12800, Note_off_c, 1, 62, 0
3, 12800, Note_on_c, 1, 60, 95
3, 13312, Note_off_c, 1, 60, 0
3, 13312, Note_on_c, 1, 58, 95
3, 13824, Note_off_c, 1, 58, 0
3, 13824, Note_on_c, 1, 57, 95
3, 14336, Note_off_c, 1, 57, 0
3, 14336, Note_on_c, 1, 58, 95
3, 14848, Note_off_c, 1, 58, 0
3, 14848, Note_on_c, 1, 60, 95
3, 15360, Note_off_c, 1, 60, 0
3, 15360, Note_on_c, 1, 62, 95
3, 15872, Note_off_c, 1, 62, 0
3, 15872, Note_on_c, 1, 64, 95
3, 16384, Note_off_c, 1, 64, 0
3, 16384, Note_on_c, 1, 65, 95
3, 17920, Note_off_c, 1, 65, 0
3, 17920, Note_on_c, 1, 62, 95
3, 18432, Note_off_c, 1, 62, 0
3, 18432, Note_on_c, 1, 67, 95
3, 19968, Note_off_c, 1, 67, 0
3, 19968, Note_on_c, 1, 65, 95
3, 20224, Note_off_c, 1, 65, 0
3, 20224, Note_on_c, 1, 64, 95
3, 20480, Note_off_c, 1, 64, 0
3, 20480, Note_on_c, 1, 65, 95
3, 22016, Note_off_c, 1, 65, 0
3, 22016, Note_on_c, 1, 67, 95
3, 22528, Note_off_c, 1, 67, 0
3, 22528, Note_on_c, 1, 64, 95
3, 23040, Note_off_c, 1, 64, 0
3, 23040, Note_on_c, 1, 65, 95
3, 23552, Note_off_c, 1, 65, 0
3, 23552, Note_on_c, 1, 62, 95
3, 24064, Note_off_c, 1, 62, 0
3, 24064, Note_on_c, 1, 64, 95
3, 24576, Note_off_c, 1, 64, 0
3, 24576, Note_on_c, 1, 61, 95
3, 25600, Note_off_c, 1, 61, 0
3, 25600, Note_on_c, 1, 62, 95
3, 27136, Note_off_c, 1, 62, 0
3, 27136, Note_on_c, 1, 60, 95
3, 28160, Note_off_c, 1, 60, 0
3, 28160, Note_on_c, 1, 62, 95
3, 29696, Note_off_c, 1, 62, 0
3, 29696, Note_on_c, 1, 60, 95
3, 30208, Note_off_c, 1, 60, 0
3, 30208, Note_on_c, 1, 58, 95
3, 30720, Note_off_c, 1, 58, 0
3, 30720, Note_on_c, 1, 57, 95
3, 31744, Note_off_c, 1, 57, 0
3, 33280, Note_on_c, 1, 62, 95
3, 33792, Note_off_c, 1, 62, 0
3, 33792, Note_on_c, 1, 60, 95
3, 34304, Note_off_c, 1, 60, 0
3, 34304, Note_on_c, 1, 58, 95
3, 34816, Note_off_c, 1, 58, 0
3, 34816, Note_on_c, 1, 57, 95
3, 35840, Note_off_c, 1, 57, 0
3, 35840, Note_on_c, 1, 62, 95
3, 36864, Note_off_c, 1, 62, 0
3, 36864, Note_on_c, 1, 60, 95
3, 37888, Note_off_c, 1, 60, 0
3, 37888, Note_on_c, 1, 58, 95
3, 38912, Note_off_c, 1, 58, 0
3, 38912, Note_on_c, 1, 57, 95
3, 39424, Note_off_c, 1, 57, 0
3, 39424, Note_on_c, 1, 69, 95
3, 39936, Note_off_c, 1, 69, 0
3, 39936, Note_on_c, 1, 71, 95
3, 40448, Note_off_c, 1, 71, 0
3, 40448, Note_on_c, 1, 69, 95
3, 40960, Note_off_c, 1, 69, 0
3, 40960, Note_on_c, 1, 67, 95
3, 41472, Note_off_c, 1, 67, 0
3, 41472, Note_on_c, 1, 69, 95
3, 41728, Note_off_c, 1, 69, 0
3, 41728, Note_on_c, 1, 67, 95
3, 41984, Note_off_c, 1, 67, 0
3, 41984, Note_on_c, 1, 65, 95
3, 42496, Note_off_c, 1, 65, 0
3, 42496, Note_on_c, 1, 64, 95
3, 43008, Note_off_c, 1, 64, 0
3, 43008, Note_on_c, 1, 65, 95
3, 43520, Note_off_c, 1, 65, 0
3, 43520, Note_on_c, 1, 64, 95
3, 44032, Note_off_c, 1, 64, 0
3, 44032, Note_on_c, 1, 62, 95
3, 45568, Note_off_c, 1, 62, 0
3, 45568, Note_on_c, 1, 60, 95
3, 45824, Note_off_c, 1, 60, 0
3, 45824, Note_on_c, 1, 59, 95
3, 46080, Note_off_c, 1, 59, 0
3, 46080, Note_on_c, 1, 60, 95
3, 47104, Note_off_c, 1, 60, 0
3, 47616, Note_on_c, 1, 65, 95
3, 48128, Note_off_c, 1, 65, 0
3, 48128, Note_on_c, 1, 64, 95
3, 48640, Note_off_c, 1, 64, 0
3, 48640, Note_on_c, 1, 67, 95
3, 49152, Note_off_c, 1, 67, 0
3, 49152, Note_on_c, 1, 65, 95
3, 50176, Note_off_c, 1, 65, 0
3, 50176, Note_on_c, 1, 62, 95
3, 50688, Note_off_c, 1, 62, 0
3, 50688, Note_on_c, 1, 65, 95
3, 51200, Note_off_c, 1, 65, 0
3, 51200, Note_on_c, 1, 64, 95
3, 52736, Note_off_c, 1, 64, 0
3, 52736, Note_on_c, 1, 67, 95
3, 53248, Note_off_c, 1, 67, 0
3, 53248, Note_on_c, 1, 65, 95
3, 54272, Note_off_c, 1, 65, 0
3, 54272, Note_on_c, 1, 64, 95
3, 54784, Note_off_c, 1, 64, 0
3, 54784, Note_on_c, 1, 62, 95
3, 55296, Note_off_c, 1, 62, 0
3, 55296, Note_on_c, 1, 61, 95
3, 55808, Note_off_c, 1, 61, 0
3, 55808, Note_on_c, 1, 62, 95
3, 56320, Note_off_c, 1, 62, 0
3, 56320, Note_on_c, 1, 64, 95
3, 57344, Note_off_c, 1, 64, 0
3, 57344, Note_on_c, 1, 57, 95
3, 57856, Note_off_c, 1, 57, 0
3, 57856, Note_on_c, 1, 59, 95
3, 58368, Note_off_c, 1, 59, 0
3, 58368, Note_on_c, 1, 60, 95
3, 59392, Note_off_c, 1, 60, 0
3, 59392, Note_on_c, 1, 59, 95
3, 59904, Note_off_c, 1, 59, 0
3, 59904, Note_on_c, 1, 60, 95
3, 60416, Note_off_c, 1, 60, 0
3, 60416, Note_on_c, 1, 62, 95
3, 61440, Note_off_c, 1, 62, 0
3, 61440, Note_on_c, 1, 64, 95
3, 62464, Note_off_c, 1, 64, 0
3, 62464, Note_on_c, 1, 65, 95
3, 62976, Note_off_c, 1, 65, 0
3, 62976, Note_on_c, 1, 67, 95
3, 63488, Note_off_c, 1, 67, 0
3, 63488, Note_on_c, 1, 69, 95
3, 64000, Note_off_c, 1, 69, 0
3, 64000, Note_on_c, 1, 60, 95
3, 64512, Note_off_c, 1, 60, 0
3, 64512, Note_on_c, 1, 65, 95
3, 66048, Note_off_c, 1, 65, 0
3, 66048, Note_on_c, 1, 64, 95
3, 66560, Note_off_c, 1, 64, 0
3, 66560, Note_on_c, 1, 69, 95
3, 67072, Note_off_c, 1, 69, 0
3, 67072, Note_on_c, 1, 67, 95
3, 67584, Note_off_c, 1, 67, 0
3, 67584, Note_on_c, 1, 65, 95
3, 68096, Note_off_c, 1, 65, 0
3, 68096, Note_on_c, 1, 64, 95
3, 68608, Note_off_c, 1, 64, 0
3, 68608, Note_on_c, 1, 65, 95
3, 70144, Note_off_c, 1, 65, 0
3, 70144, Note_on_c, 1, 64, 95
3, 70400, Note_off_c, 1, 64, 0
3, 70400, Note_on_c, 1, 62, 95
3, 70656, Note_off_c, 1, 62, 0
3, 70656, Note_on_c, 1, 60, 95
3, 72192, Note_off_c, 1, 60, 0
3, 72192, Note_on_c, 1, 62, 95
3, 72448, Note_off_c, 1, 62, 0
3, 72448, Note_on_c, 1, 63, 95
3, 72704, Note_off_c, 1, 63, 0
3, 72704, Note_on_c, 1, 62, 95
3, 74240, Note_off_c, 1, 62, 0
3, 74240, Note_on_c, 1, 64, 95
3, 74496, Note_off_c, 1, 64, 0
3, 74496, Note_on_c, 1, 66, 95
3, 74752, Note_off_c, 1, 66, 0
3, 74752, Note_on_c, 1, 67, 95
3, 75776, Note_off_c, 1, 67, 0
3, 75776, Note_on_c, 1, 67, 95
3, 76288, Note_off_c, 1, 67, 0
3, 76288, Note_on_c, 1, 65, 95
3, 76800, Note_off_c, 1, 65, 0
3, 76800, Note_on_c, 1, 64, 95
3, 77824, Note_off_c, 1, 64, 0
3, 77824, Note_on_c, 1, 62, 95
3, 78848, Note_off_c, 1, 62, 0
3, 78848, Note_on_c, 1, 60, 95
3, 79360, Note_off_c, 1, 60, 0
3, 79360, Note_on_c, 1, 62, 95
3, 79872, Note_off_c, 1, 62, 0
3, 79872, Note_on_c, 1, 64, 95
3, 80896, Note_off_c, 1, 64, 0
3, 80896, Note_on_c, 1, 62, 95
3, 81408, Note_off_c, 1, 62, 0
3, 81408, Note_on_c, 1, 60, 95
3, 81920, Note_off_c, 1, 60, 0
3, 81920, Note_on_c, 1, 58, 95
3, 82944, Note_off_c, 1, 58, 0
3, 82944, Note_on_c, 1, 60, 95
3, 83456, Note_off_c, 1, 60, 0
3, 83456, Note_on_c, 1, 58, 95
3, 83968, Note_off_c, 1, 58, 0
3, 83968, Note_on_c, 1, 57, 95
3, 84992, Note_off_c, 1, 57, 0
3, 84992, Note_on_c, 1, 58, 95
3, 85504, Note_off_c, 1, 58, 0
3, 85504, Note_on_c, 1, 60, 95
3, 85760, Note_off_c, 1, 60, 0
3, 85760, Note_on_c, 1, 58, 95
3, 86016, Note_off_c, 1, 58, 0
3, 86016, Note_on_c, 1, 57, 95
3, 86528, Note_off_c, 1, 57, 0
3, 86528, Note_on_c, 1, 60, 95
3, 87040, Note_off_c, 1, 60, 0
3, 87040, Note_on_c, 1, 62, 95
3, 88576, Note_off_c, 1, 62, 0
3, 88576, Note_on_c, 1, 60, 95
3, 89088, Note_off_c, 1, 60, 0
3, 89088, Note_on_c, 1, 58, 95
3, 89600, Note_off_c, 1, 58, 0
3, 89600, Note_on_c, 1, 57, 95
3, 90112, Note_off_c, 1, 57, 0
3, 90112, Note_on_c, 1, 55, 95
3, 91136, Note_off_c, 1, 55, 0
3, 91136, Note_on_c, 1, 60, 95
3, 92672, Note_off_c, 1, 60, 0
3, 92672, Note_on_c, 1, 59, 95
3, 92928, Note_off_c, 1, 59, 0
3, 92928, Note_on_c, 1, 57, 95
3, 93184, Note_off_c, 1, 57, 0
3, 93184, Note_on_c, 1, 58, 95
3, 94208, Note_off_c, 1, 58, 0
3, 94208, Note_on_c, 1, 57, 95
3, 94720, Note_off_c, 1, 57, 0
3, 94720, Note_on_c, 1, 59, 95
3, 95232, Note_off_c, 1, 59, 0
3, 95232, Note_on_c, 1, 60, 95
3, 95744, Note_off_c, 1, 60, 0
3, 95744, Note_on_c, 1, 62, 95
3, 96256, Note_off_c, 1, 62, 0
3, 96256, Note_on_c, 1, 64, 95
3, 97280, Note_off_c, 1, 64, 0
3, 97280, Note_on_c, 1, 57, 95
3, 99328, Note_off_c, 1, 57, 0
3, 99328, Note_on_c, 1, 62, 95
3, 99840, Note_off_c, 1, 62, 0
3, 99840, Note_on_c, 1, 60, 95
3, 100352, Note_off_c, 1, 60, 0
3, 100352, Note_on_c, 1, 59, 95
3, 101888, Note_off_c, 1, 59, 0
3, 101888, Note_on_c, 1, 57, 95
3, 102912, Note_off_c, 1, 57, 0
3, 102912, Note_on_c, 1, 55, 95
3, 103424, Note_off_c, 1, 55, 0
3, 103424, Note_on_c, 1, 62, 95
3, 104960, Note_off_c, 1, 62, 0
3, 104960, Note_on_c, 1, 60, 95
3, 105216, Note_off_c, 1, 60, 0
3, 105216, Note_on_c, 1, 59, 95
3, 105472, Note_off_c, 1, 59, 0
3, 105472, Note_on_c, 1, 60, 95
3, 105984, Note_off_c, 1, 60, 0
3, 105984, Note_on_c, 1, 64, 95
3, 106496, Note_off_c, 1, 64, 0
3, 106496, Note_on_c, 1, 57, 95
3, 107520, Note_off_c, 1, 57, 0
3, 107520, Note_on_c, 1, 62, 95
3, 109568, Note_off_c, 1, 62, 0
3, 109568, Note_on_c, 1, 60, 95
3, 110080, Note_off_c, 1, 60, 0
3, 110080, Note_on_c, 1, 62, 95
3, 110592, Note_off_c, 1, 62, 0
3, 110592, Note_on_c, 1, 59, 95
3, 111616, Note_off_c, 1, 59, 0
3, 111616, Note_on_c, 1, 64, 95
3, 112128, Note_off_c, 1, 64, 0
3, 112128, Note_on_c, 1, 62, 95
3, 112640, Note_off_c, 1, 62, 0
3, 112640, Note_on_c, 1, 60, 95
3, 113664, Note_off_c, 1, 60, 0
3, 113664, Note_on_c, 1, 69, 95
3, 114688, Note_off_c, 1, 69, 0
3, 114688, Note_on_c, 1, 67, 95
3, 116736, Note_off_c, 1, 67, 0
3, 116736, Note_on_c, 1, 65, 95
3, 117760, Note_off_c, 1, 65, 0
3, 117760, Note_on_c, 1, 64, 95
3, 119296, Note_off_c, 1, 64, 0
3, 119296, Note_on_c, 1, 62, 95
3, 119552, Note_off_c, 1, 62, 0
3, 119552, Note_on_c, 1, 60, 95
3, 119808, Note_off_c, 1, 60, 0
3, 119808, Note_on_c, 1, 62, 95
3, 120832, Note_off_c, 1, 62, 0
3, 120832, Note_on_c, 1, 63, 95
3, 122880, Note_off_c, 1, 63, 0
3, 122880, Note_on_c, 1, 64, 95
3, 127488, Note_off_c, 1, 64, 0
3, 127488, Note_on_c, 1, 67, 95
3, 128000, Note_off_c, 1, 67, 0
3, 128000, Note_on_c, 1, 66, 95
3, 128512, Note_off_c, 1, 66, 0
3, 128512, Note_on_c, 1, 64, 95
3, 129024, Note_off_c, 1, 64, 0
3, 129024, Note_on_c, 1, 63, 95
3, 130560, Note_off_c, 1, 63, 0
3, 130560, Note_on_c, 1, 63, 95
3, 131072, Note_off_c, 1, 63, 0
3, 131072, Note_on_c, 1, 64, 95
3, 131584, Note_off_c, 1, 64, 0
3, 131584, Note_on_c, 1, 62, 95
3, 132096, Note_off_c, 1, 62, 0
3, 132096, Note_on_c, 1, 60, 95
3, 132608, Note_off_c, 1, 60, 0
3, 132608, Note_on_c, 1, 59, 95
3, 133120, Note_off_c, 1, 59, 0
3, 133120, Note_on_c, 1, 57, 95
3, 135168, Note_off_c, 1, 57, 0
3, 135168, Note_on_c, 1, 59, 95
3, 139264, Note_off_c, 1, 59, 0
3, 139265, End_track
4, 0, Start_track
4, 0, Title_t, "Instrument 3"
4, 0, Program_c, 2, 0
4, 1024, Note_on_c, 2, 57, 95
4, 1536, Note_off_c, 2, 57, 0
4, 1536, Note_on_c, 2, 55, 95
4, 2048, Note_off_c, 2, 55, 0
4, 2048, Note_on_c, 2, 53, 95
4, 4096, Note_off_c, 2, 53, 0
4, 4096, Note_on_c, 2, 55, 95
4, 6656, Note_off_c, 2, 55, 0
4, 6656, Note_on_c, 2, 48, 95
4, 7168, Note_off_c, 2, 48, 0
4, 7168, Note_on_c, 2, 53, 95
4, 7680, Note_off_c, 2, 53, 0
4, 7680, Note_on_c, 2, 52, 95
4, 8192, Note_off_c, 2, 52, 0
4, 8192, Note_on_c, 2, 50, 95
4, 9216, Note_off_c, 2, 50, 0
4, 9216, Note_on_c, 2, 57, 95
4, 10752, Note_off_c, 2, 57, 0
4, 10752, Note_on_c, 2, 55, 95
4, 11264, Note_off_c, 2, 55, 0
4, 11264, Note_on_c, 2, 53, 95
4, 12288, Note_off_c, 2, 53, 0
4, 12288, Note_on_c, 2, 52, 95
4, 13312, Note_off_c, 2, 52, 0
4, 13312, Note_on_c, 2, 54, 95
4, 14336, Note_off_c, 2, 54, 0
4, 14336, Note_on_c, 2, 55, 95
4, 14848, Note_off_c, 2, 55, 0
4, 14848, Note_on_c, 2, 57, 95
4, 15360, Note_off_c, 2, 57, 0
4, 15360, Note_on_c, 2, 59, 95
4, 15872, Note_off_c, 2, 59, 0
4, 15872, Note_on_c, 2, 55, 95
4, 16384, Note_off_c, 2, 55, 0
4, 16384, Note_on_c, 2, 57, 95
4, 16896, Note_off_c, 2, 57, 0
4, 16896, Note_on_c, 2, 53, 95
4, 17408, Note_off_c, 2, 53, 0
4, 17408, Note_on_c, 2, 58, 95
4, 18944, Note_off_c, 2, 58, 0
4, 18944, Note_on_c, 2, 57, 95
4, 19200, Note_off_c, 2, 57, 0
4, 19200, Note_on_c, 2, 55, 95
4, 19456, Note_off_c, 2, 55, 0
4, 19456, Note_on_c, 2, 57, 95
4, 20480, Note_off_c, 2, 57, 0
4, 20480, Note_on_c, 2, 60, 95
4, 20992, Note_off_c, 2, 60, 0
4, 20992, Note_on_c, 2, 58, 95
4, 21504, Note_off_c, 2, 58, 0
4, 21504, Note_on_c, 2, 57, 95
4, 22016, Note_off_c, 2, 57, 0
4, 22016, Note_on_c, 2, 58, 95
4, 23040, Note_off_c, 2, 58, 0
4, 23040, Note_on_c, 2, 57, 95
4, 24064, Note_off_c, 2, 57, 0
4, 24064, Note_on_c, 2, 55, 95
4, 25088, Note_off_c, 2, 55, 0
4, 25088, Note_on_c, 2, 57, 95
4, 25600, Note_off_c, 2, 57, 0
4, 25600, Note_on_c, 2, 53, 95
4, 26112, Note_off_c, 2, 53, 0
4, 26112, Note_on_c, 2, 52, 95
4, 26368, Note_off_c, 2, 52, 0
4, 26368, Note_on_c, 2, 50, 95
4, 26624, Note_off_c, 2, 50, 0
4, 26624, Note_on_c, 2, 52, 95
4, 27648, Note_off_c, 2, 52, 0
4, 27648, Note_on_c, 2, 57, 95
4, 28672, Note_off_c, 2, 57, 0
4, 28672, Note_on_c, 2, 55, 95
4, 29184, Note_off_c, 2, 55, 0
4, 29184, Note_on_c, 2, 53, 95
4, 29696, Note_off_c, 2, 53, 0
4, 29696, Note_on_c, 2, 52, 95
4, 31232, Note_off_c, 2, 52, 0
4, 31232, Note_on_c, 2, 55, 95
4, 31744, Note_off_c, 2, 55, 0
4, 31744, Note_on_c, 2, 53, 95
4, 32256, Note_off_c, 2, 53, 0
4, 32256, Note_on_c, 2, 52, 95
4, 32768, Note_off_c, 2, 52, 0
4, 32768, Note_on_c, 2, 50, 95
4, 33792, Note_off_c, 2, 50, 0
4, 33792, Note_on_c, 2, 55, 95
4, 34816, Note_off_c, 2, 55, 0
4, 34816, Note_on_c, 2, 53, 95
4, 35328, Note_off_c, 2, 53, 0
4, 35328, Note_on_c, 2, 52, 95
4, 35840, Note_off_c, 2, 52, 0
4, 35840, Note_on_c, 2, 50, 95
4, 36352, Note_off_c, 2, 50, 0
4, 36352, Note_on_c, 2, 55, 95
4, 37376, Note_off_c, 2, 55, 0
4, 37376, Note_on_c, 2, 53, 95
4, 38400, Note_off_c, 2, 53, 0
4, 38400, Note_on_c, 2, 52, 95
4, 38912, Note_off_c, 2, 52, 0
4, 38912, Note_on_c, 2, 53, 95
4, 39936, Note_off_c, 2, 53, 0
4, 39936, Note_on_c, 2, 50, 95
4, 41984, Note_off_c, 2, 50, 0
4, 41984, Note_on_c, 2, 49, 95
4, 43008, Note_off_c, 2, 49, 0
4, 43008, Note_on_c, 2, 50, 95
4, 43520, Note_off_c, 2, 50, 0
4, 43520, Note_on_c, 2, 52, 95
4, 44032, Note_off_c, 2, 52, 0
4, 44032, Note_on_c, 2, 53, 95
4, 44544, Note_off_c, 2, 53, 0
4, 44544, Note_on_c, 2, 55, 95
4, 45056, Note_off_c, 2, 55, 0
4, 45056, Note_on_c, 2, 57, 95
4, 46080, Note_off_c, 2, 57, 0
4, 46080, Note_on_c, 2, 53, 95
4, 46592, Note_off_c, 2, 53, 0
4, 46592, Note_on_c, 2, 52, 95
4, 47104, Note_off_c, 2, 52, 0
4, 47104, Note_on_c, 2, 50, 95
4, 48128, Note_off_c, 2, 50, 0
4, 48128, Note_on_c, 2, 57, 95
4, 49664, Note_off_c, 2, 57, 0
4, 49664, Note_on_c, 2, 56, 95
4, 49920, Note_off_c, 2, 56, 0
4, 49920, Note_on_c, 2, 54, 95
4, 50176, Note_off_c, 2, 54, 0
4, 50176, Note_on_c, 2, 56, 95
4, 51200, Note_off_c, 2, 56, 0
4, 51200, Note_on_c, 2, 57, 95
4, 51712, Note_off_c, 2, 57, 0
4, 51712, Note_on_c, 2, 52, 95
4, 52224, Note_off_c, 2, 52, 0
4, 52224, Note_on_c, 2, 57, 95
4, 53760, Note_off_c, 2, 57, 0
4, 53760, Note_on_c, 2, 59, 95
4, 54016, Note_off_c, 2, 59, 0
4, 54016, Note_on_c, 2, 57, 95
4, 54272, Note_off_c, 2, 57, 0
4, 54272, Note_on_c, 2, 56, 95
4, 55296, Note_off_c, 2, 56, 0
4, 55296, Note_on_c, 2, 57, 95
4, 55808, Note_off_c, 2, 57, 0
4, 55808, Note_on_c, 2, 55, 95
4, 56320, Note_off_c, 2, 55, 0
4, 56320, Note_on_c, 2, 53, 95
4, 56832, Note_off_c, 2, 53, 0
4, 56832, Note_on_c, 2, 52, 95
4, 57344, Note_off_c, 2, 52, 0
4, 57344, Note_on_c, 2, 53, 95
4, 58368, Note_off_c, 2, 53, 0
4, 60416, Note_on_c, 2, 59, 95
4, 61440, Note_off_c, 2, 59, 0
4, 61440, Note_on_c, 2, 60, 95
4, 62464, Note_off_c, 2, 60, 0
4, 62464, Note_on_c, 2, 58, 95
4, 63488, Note_off_c, 2, 58, 0
4, 63488, Note_on_c, 2, 57, 95
4, 64512, Note_off_c, 2, 57, 0
4, 64512, Note_on_c, 2, 57, 95
4, 65536, Note_off_c, 2, 57, 0
4, 65536, Note_on_c, 2, 55, 95
4, 66560, Note_off_c, 2, 55, 0
4, 66560, Note_on_c, 2, 52, 95
4, 67584, Note_off_c, 2, 52, 0
4, 67584, Note_on_c, 2, 53, 95
4, 68096, Note_off_c, 2, 53, 0
4, 68096, Note_on_c, 2, 55, 95
4, 68608, Note_off_c, 2, 55, 0
4, 68608, Note_on_c, 2, 57, 95
4, 69120, Note_off_c, 2, 57, 0
4, 69120, Note_on_c, 2, 53, 95
4, 69632, Note_off_c, 2, 53, 0
4, 69632, Note_on_c, 2, 55, 95
4, 71168, Note_off_c, 2, 55, 0
4, 71168, Note_on_c, 2, 57, 95
4, 71424, Note_off_c, 2, 57, 0
4, 71424, Note_on_c, 2, 58, 95
4, 71680, Note_off_c, 2, 58, 0
4, 71680, Note_on_c, 2, 57, 95
4, 73216, Note_off_c, 2, 57, 0
4, 73216, Note_on_c, 2, 59, 95
4, 73472, Note_off_c, 2, 59, 0
4, 73472, Note_on_c, 2, 60, 95
4, 73728, Note_off_c, 2, 60, 0
4, 73728, Note_on_c, 2, 59, 95
4, 74240, Note_off_c, 2, 59, 0
4, 74240, Note_on_c, 2, 60, 95
4, 74752, Note_off_c, 2, 60, 0
4, 74752, Note_on_c, 2, 62, 95
4, 75776, Note_off_c, 2, 62, 0
4, 76288, Note_on_c, 2, 55, 95
4, 76800, Note_off_c, 2, 55, 0
4, 76800, Note_on_c, 2, 60, 95
4, 77824, Note_off_c, 2, 60, 0
4, 77824, Note_on_c, 2, 53, 95
4, 78336, Note_off_c, 2, 53, 0
4, 78336, Note_on_c, 2, 55, 95
4, 78848, Note_off_c, 2, 55, 0
4, 78848, Note_on_c, 2, 57, 95
4, 80384, Note_off_c, 2, 57, 0
4, 80384, Note_on_c, 2, 55, 95
4, 80896, Note_off_c, 2, 55, 0
4, 80896, Note_on_c, 2, 53, 95
4, 81408, Note_off_c, 2, 53, 0
4, 81408, Note_on_c, 2, 52, 95
4, 81920, Note_off_c, 2, 52, 0
4, 81920, Note_on_c, 2, 50, 95
4, 82944, Note_off_c, 2, 50, 0
4, 82944, Note_on_c, 2, 48, 95
4, 84480, Note_off_c, 2, 48, 0
4, 84480, Note_on_c, 2, 51, 95
4, 84992, Note_off_c, 2, 51, 0
4, 84992, Note_on_c, 2, 50, 95
4, 86016, Note_off_c, 2, 50, 0
4, 86016, Note_on_c, 2, 48, 95
4, 87040, Note_off_c, 2, 48, 0
4, 87040, Note_on_c, 2, 53, 95
4, 87552, Note_off_c, 2, 53, 0
4, 87552, Note_on_c, 2, 52, 95
4, 88064, Note_off_c, 2, 52, 0
4, 88064, Note_on_c, 2, 50, 95
4, 88576, Note_off_c, 2, 50, 0
4, 88576, Note_on_c, 2, 52, 95
4, 88832, Note_off_c, 2, 52, 0
4, 88832, Note_on_c, 2, 53, 95
4, 89088, Note_off_c, 2, 53, 0
4, 89088, Note_on_c, 2, 55, 95
4, 89600, Note_off_c, 2, 55, 0
4, 89600, Note_on_c, 2, 53, 95
4, 90112, Note_off_c, 2, 53, 0
4, 90112, Note_on_c, 2, 52, 95
4, 90624, Note_off_c, 2, 52, 0
4, 90624, Note_on_c, 2, 50, 95
4, 91136, Note_off_c, 2, 50, 0
4, 91136, Note_on_c, 2, 52, 95
4, 91648, Note_off_c, 2, 52, 0
4, 91648, Note_on_c, 2, 53, 95
4, 91904, Note_off_c, 2, 53, 0
4, 91904, Note_on_c, 2, 52, 95
4, 92160, Note_off_c, 2, 52, 0
4, 92160, Note_on_c, 2, 50, 95
4, 93696, Note_off_c, 2, 50, 0
4, 93696, Note_on_c, 2, 52, 95
4, 94208, Note_off_c, 2, 52, 0
4, 94208, Note_on_c, 2, 53, 95
4, 95232, Note_off_c, 2, 53, 0
4, 95232, Note_on_c, 2, 52, 95
4, 96768, Note_off_c, 2, 52, 0
4, 96768, Note_on_c, 2, 53, 95
4, 97280, Note_off_c, 2, 53, 0
4, 97280, Note_on_c, 2, 55, 95
4, 98304, Note_off_c, 2, 55, 0
4, 98304, Note_on_c, 2, 53, 95
4, 98816, Note_off_c, 2, 53, 0
4, 98816, Note_on_c, 2, 52, 95
4, 99328, Note_off_c, 2, 52, 0
4, 99328, Note_on_c, 2, 50, 95
4, 100864, Note_off_c, 2, 50, 0
4, 100864, Note_on_c, 2, 52, 95
4, 101120, Note_off_c, 2, 52, 0
4, 101120, Note_on_c, 2, 50, 95
4, 101376, Note_off_c, 2, 50, 0
4, 101376, Note_on_c, 2, 48, 95
4, 102400, Note_off_c, 2, 48, 0
4, 102400, Note_on_c, 2, 50, 95
4, 103936, Note_off_c, 2, 50, 0
4, 103936, Note_on_c, 2, 53, 95
4, 104448, Note_off_c, 2, 53, 0
4, 104448, Note_on_c, 2, 52, 95
4, 105984, Note_off_c, 2, 52, 0
4, 105984, Note_on_c, 2, 55, 95
4, 107008, Note_off_c, 2, 55, 0
4, 107008, Note_on_c, 2, 54, 95
4, 107264, Note_off_c, 2, 54, 0
4, 107264, Note_on_c, 2, 52, 95
4, 107520, Note_off_c, 2, 52, 0
4, 107520, Note_on_c, 2, 54, 95
4, 108544, Note_off_c, 2, 54, 0
4, 108544, Note_on_c, 2, 56, 95
4, 109056, Note_off_c, 2, 56, 0
4, 109056, Note_on_c, 2, 54, 95
4, 109312, Note_off_c, 2, 54, 0
4, 109312, Note_on_c, 2, 56, 95
4, 109568, Note_off_c, 2, 56, 0
4, 109568, Note_on_c, 2, 57, 95
4, 111104, Note_off_c, 2, 57, 0
4, 111104, Note_on_c, 2, 56, 95
4, 111360, Note_off_c, 2, 56, 0
4, 111360, Note_on_c, 2, 54, 95
4, 111616, Note_off_c, 2, 54, 0
4, 111616, Note_on_c, 2, 56, 95
4, 112640, Note_off_c, 2, 56, 0
4, 112640, Note_on_c, 2, 57, 95
4, 113152, Note_off_c, 2, 57, 0
4, 113152, Note_on_c, 2, 59, 95
4, 113664, Note_off_c, 2, 59, 0
4, 113664, Note_on_c, 2, 60, 95
4, 114176, Note_off_c, 2, 60, 0
4, 114176, Note_on_c, 2, 62, 95
4, 114688, Note_off_c, 2, 62, 0
4, 114688, Note_on_c, 2, 64, 95
4, 115200, Note_off_c, 2, 64, 0
4, 115200, Note_on_c, 2, 59, 95
4, 115712, Note_off_c, 2, 59, 0
4, 115712, Note_on_c, 2, 61, 95
4, 116224, Note_off_c, 2, 61, 0
4, 116224, Note_on_c, 2, 57, 95
4, 116736, Note_off_c, 2, 57, 0
4, 116736, Note_on_c, 2, 62, 95
4, 118272, Note_off_c, 2, 62, 0
4, 118272, Note_on_c, 2, 60, 95
4, 118528, Note_off_c, 2, 60, 0
4, 118528, Note_on_c, 2, 59, 95
4, 118784, Note_off_c, 2, 59, 0
4, 118784, Note_on_c, 2, 57, 95
4, 120320, Note_off_c, 2, 57, 0
4, 120320, Note_on_c, 2, 59, 95
4, 120576, Note_off_c, 2, 59, 0
4, 120576, Note_on_c, 2, 60, 95
4, 120832, Note_off_c, 2, 60, 0
4, 120832, Note_on_c, 2, 59, 95
4, 122368, Note_off_c, 2, 59, 0
4, 122368, Note_on_c, 2, 57, 95
4, 122624, Note_off_c, 2, 57, 0
4, 122624, Note_on_c, 2, 59, 95
4, 122880, Note_off_c, 2, 59, 0
4, 122880, Note_on_c, 2, 60, 95
4, 123904, Note_off_c, 2, 60, 0
4, 123904, Note_on_c, 2, 59, 95
4, 124416, Note_off_c, 2, 59, 0
4, 124416, Note_on_c, 2, 57, 95
4, 124928, Note_off_c, 2, 57, 0
4, 124928, Note_on_c, 2, 59, 95
4, 126976, Note_off_c, 2, 59, 0
4, 126976, Note_on_c, 2, 57, 95
4, 128000, Note_off_c, 2, 57, 0
4, 128000, Note_on_c, 2, 55, 95
4, 129024, Note_off_c, 2, 55, 0
4, 129024, Note_on_c, 2, 54, 95
4, 129536, Note_off_c, 2, 54, 0
4, 129536, Note_on_c, 2, 57, 95
4, 130048, Note_off_c, 2, 57, 0
4, 130048, Note_on_c, 2, 56, 95
4, 130560, Note_off_c, 2, 56, 0
4, 130560, Note_on_c, 2, 54, 95
4, 131072, Note_off_c, 2, 54, 0
4, 131072, Note_on_c, 2, 56, 95
4, 132096, Note_off_c, 2, 56, 0
4, 132096, Note_on_c, 2, 57, 95
4, 132608, Note_off_c, 2, 57, 0
4, 132608, Note_on_c, 2, 56, 95
4, 133120, Note_off_c, 2, 56, 0
4, 133120, Note_on_c, 2, 54, 95
4, 135168, Note_off_c, 2, 54, 0
4, 135168, Note_on_c, 2, 56, 95
4, 139264, Note_off_c, 2, 56, 0
4, 139265, End_track
5, 0, Start_track
5, 0, Title_t, "Instrument 4"
5, 0, Program_c, 3, 0
5, 3072, Note_on_c, 3, 50, 95
5, 3584, Note_off_c, 3, 50, 0
5, 3584, Note_on_c, 3, 48, 95
5, 4096, Note_off_c, 3, 48, 0
5, 4096, Note_on_c, 3, 47, 95
5, 5120, Note_off_c, 3, 47, 0
5, 5120, Note_on_c, 3, 48, 95
5, 5632, Note_off_c, 3, 48, 0
5, 5632, Note_on_c, 3, 46, 95
5, 6144, Note_off_c, 3, 46, 0
5, 6144, Note_on_c, 3, 45, 95
5, 8192, Note_off_c, 3, 45, 0
5, 8192, Note_on_c, 3, 47, 95
5, 9216, Note_off_c, 3, 47, 0
5, 9216, Note_on_c, 3, 49, 95
5, 10240, Note_off_c, 3, 49, 0
5, 10240, Note_on_c, 3, 50, 95
5, 12288, Note_off_c, 3, 50, 0
5, 17408, Note_on_c, 3, 50, 95
5, 19456, Note_off_c, 3, 50, 0
5, 19456, Note_on_c, 3, 50, 95
5, 20480, Note_off_c, 3, 50, 0
5, 20480, Note_on_c, 3, 45, 95
5, 21504, Note_off_c, 3, 45, 0
5, 21504, Note_on_c, 3, 50, 95
5, 22528, Note_off_c, 3, 50, 0
5, 22528, Note_on_c, 3, 48, 95
5, 23552, Note_off_c, 3, 48, 0
5, 23552, Note_on_c, 3, 46, 95
5, 24576, Note_off_c, 3, 46, 0
5, 24576, Note_on_c, 3, 45, 95
5, 26624, Note_off_c, 3, 45, 0
5, 26624, Note_on_c, 3, 45, 95
5, 28160, Note_off_c, 3, 45, 0
5, 28160, Note_on_c, 3, 47, 95
5, 28672, Note_off_c, 3, 47, 0
5, 28672, Note_on_c, 3, 48, 95
5, 30720, Note_off_c, 3, 48, 0
5, 30720, Note_on_c, 3, 49, 95
5, 31744, Note_off_c, 3, 49, 0
5, 31744, Note_on_c, 3, 50, 95
5, 32256, Note_off_c, 3, 50, 0
5, 32256, Note_on_c, 3, 48, 95
5, 32768, Note_off_c, 3, 48, 0
5, 32768, Note_on_c, 3, 46, 95
5, 33792, Note_off_c, 3, 46, 0
5, 33792, Note_on_c, 3, 48, 95
5, 34816, Note_off_c, 3, 48, 0
5, 34816, Note_on_c, 3, 41, 95
5, 35840, Note_off_c, 3, 41, 0
5, 35840, Note_on_c, 3, 46, 95
5, 36864, Note_off_c, 3, 46, 0
5, 36864, Note_on_c, 3, 45, 95
5, 37888, Note_off_c, 3, 45, 0
5, 37888, Note_on_c, 3, 43, 95
5, 38912, Note_off_c, 3, 43, 0
5, 38912, Note_on_c, 3, 41, 95
5, 40960, Note_off_c, 3, 41, 0
5, 40960, Note_on_c, 3, 40, 95
5, 43008, Note_off_c, 3, 40, 0
5, 43008, Note_on_c, 3, 38, 95
5, 44032, Note_off_c, 3, 38, 0
5, 48128, Note_on_c, 3, 45, 95
5, 49152, Note_off_c, 3, 45, 0
5, 49152, Note_on_c, 3, 47, 95
5, 51200, Note_off_c, 3, 47, 0
5, 51200, Note_on_c, 3, 48, 95
5, 52736, Note_off_c, 3, 48, 0
5, 52736, Note_on_c, 3, 45, 95
5, 53248, Note_off_c, 3, 45, 0
5, 53248, Note_on_c, 3, 50, 95
5, 54272, Note_off_c, 3, 50, 0
5, 54272, Note_on_c, 3, 52, 95
5, 55296, Note_off_c, 3, 52, 0
5, 55296, Note_on_c, 3, 45, 95
5, 56320, Note_off_c, 3, 45, 0
5, 56320, Note_on_c, 3, 49, 95
5, 57344, Note_off_c, 3, 49, 0
5, 57344, Note_on_c, 3, 50, 95
5, 58368, Note_off_c, 3, 50, 0
5, 58368, Note_on_c, 3, 52, 95
5, 58880, Note_off_c, 3, 52, 0
5, 58880, Note_on_c, 3, 53, 95
5, 59392, Note_off_c, 3, 53, 0
5, 59392, Note_on_c, 3, 55, 95
5, 60928, Note_off_c, 3, 55, 0
5, 60928, Note_on_c, 3, 53, 95
5, 61440, Note_off_c, 3, 53, 0
5, 61440, Note_on_c, 3, 52, 95
5, 61952, Note_off_c, 3, 52, 0
5, 61952, Note_on_c, 3, 48, 95
5, 62464, Note_off_c, 3, 48, 0
5, 62464, Note_on_c, 3, 50, 95
5, 62976, Note_off_c, 3, 50, 0
5, 62976, Note_on_c, 3, 52, 95
5, 63488, Note_off_c, 3, 52, 0
5, 63488, Note_on_c, 3, 53, 95
5, 65024, Note_off_c, 3, 53, 0
5, 65024, Note_on_c, 3, 45, 95
5, 65536, Note_off_c, 3, 45, 0
5, 65536, Note_on_c, 3, 47, 95
5, 66560, Note_off_c, 3, 47, 0
5, 66560, Note_on_c, 3, 49, 95
5, 67584, Note_off_c, 3, 49, 0
5, 67584, Note_on_c, 3, 50, 95
5, 69632, Note_off_c, 3, 50, 0
5, 69632, Note_on_c, 3, 52, 95
5, 71168, Note_off_c, 3, 52, 0
5, 71168, Note_on_c, 3, 48, 95
5, 71680, Note_off_c, 3, 48, 0
5, 71680, Note_on_c, 3, 53, 95
5, 72704, Note_off_c, 3, 53, 0
5, 72704, Note_on_c, 3, 54, 95
5, 73728, Note_off_c, 3, 54, 0
5, 73728, Note_on_c, 3, 55, 95
5, 75264, Note_off_c, 3, 55, 0
5, 75264, Note_on_c, 3, 53, 95
5, 75776, Note_off_c, 3, 53, 0
5, 75776, Note_on_c, 3, 52, 95
5, 77312, Note_off_c, 3, 52, 0
5, 77312, Note_on_c, 3, 48, 95
5, 77824, Note_off_c, 3, 48, 0
5, 77824, Note_on_c, 3, 50, 95
5, 78336, Note_off_c, 3, 50, 0
5, 78336, Note_on_c, 3, 52, 95
5, 78848, Note_off_c, 3, 52, 0
5, 78848, Note_on_c, 3, 53, 95
5, 79872, Note_off_c, 3, 53, 0
5, 79872, Note_on_c, 3, 49, 95
5, 80896, Note_off_c, 3, 49, 0
5, 80896, Note_on_c, 3, 50, 95
5, 81920, Note_off_c, 3, 50, 0
5, 81920, Note_on_c, 3, 43, 95
5, 82944, Note_off_c, 3, 43, 0
5, 82944, Note_on_c, 3, 45, 95
5, 83456, Note_off_c, 3, 45, 0
5, 83456, Note_on_c, 3, 43, 95
5, 83968, Note_off_c, 3, 43, 0
5, 83968, Note_on_c, 3, 41, 95
5, 86016, Note_off_c, 3, 41, 0
5, 86016, Note_on_c, 3, 41, 95
5, 88064, Note_off_c, 3, 41, 0
5, 88064, Note_on_c, 3, 46, 95
5, 90112, Note_off_c, 3, 46, 0
5, 90112, Note_on_c, 3, 48, 95
5, 92160, Note_off_c, 3, 48, 0
5, 92160, Note_on_c, 3, 43, 95
5, 94208, Note_off_c, 3, 43, 0
5, 94208, Note_on_c, 3, 41, 95
5, 95232, Note_off_c, 3, 41, 0
5, 95232, Note_on_c, 3, 48, 95
5, 97280, Note_off_c, 3, 48, 0
5, 97280, Note_on_c, 3, 49, 95
5, 97792, Note_off_c, 3, 49, 0
5, 97792, Note_on_c, 3, 47, 95
5, 98048, Note_off_c, 3, 47, 0
5, 98048, Note_on_c, 3, 49, 95
5, 98304, Note_off_c, 3, 49, 0
5, 98304, Note_on_c, 3, 50, 95
5, 98816, Note_off_c, 3, 50, 0
5, 98816, Note_on_c, 3, 48, 95
5, 99328, Note_off_c, 3, 48, 0
5, 99328, Note_on_c, 3, 47, 95
5, 99840, Note_off_c, 3, 47, 0
5, 99840, Note_on_c, 3, 45, 95
5, 100352, Note_off_c, 3, 45, 0
5, 100352, Note_on_c, 3, 44, 95
5, 101376, Note_off_c, 3, 44, 0
5, 101376, Note_on_c, 3, 45, 95
5, 102400, Note_off_c, 3, 45, 0
5, 102400, Note_on_c, 3, 47, 95
5, 104448, Note_off_c, 3, 47, 0
5, 104448, Note_on_c, 3, 48, 95
5, 106496, Note_off_c, 3, 48, 0
5, 106496, Note_on_c, 3, 50, 95
5, 108032, Note_off_c, 3, 50, 0
5, 108032, Note_on_c, 3, 50, 95
5, 108544, Note_off_c, 3, 50, 0
5, 108544, Note_on_c, 3, 52, 95
5, 112640, Note_off_c, 3, 52, 0
5, 112640, Note_on_c, 3, 45, 95
5, 113664, Note_off_c, 3, 45, 0
5, 117248, Note_on_c, 3, 50, 95
5, 117760, Note_off_c, 3, 50, 0
5, 117760, Note_on_c, 3, 52, 95
5, 118784, Note_off_c, 3, 52, 0
5, 118784, Note_on_c, 3, 53, 95
5, 120832, Note_off_c, 3, 53, 0
5, 120832, Note_on_c, 3, 54, 95
5, 122880, Note_off_c, 3, 54, 0
5, 122880, Note_on_c, 3, 52, 95
5, 126976, Note_off_c, 3, 52, 0
5, 126976, Note_on_c, 3, 45, 95
5, 131072, Note_off_c, 3, 45, 0
5, 131072, Note_on_c, 3, 52, 95
5, 135168, Note_off_c, 3, 52, 0
5, 135168, Note_on_c, 3, 40, 95
5, 135168, Note_on_c, 3, 47, 95
5, 135168, Note_on_c, 3, 52, 95
5, 139264, Note_off_c, 3, 40, 0
5, 139264, Note_off_c, 3, 47, 0
5, 139264, Note_off_c, 3, 52, 0
5, 139265, End_track
0, 0, End_of_file
