0, 0, Header, 1, 6, 240
1, 0, Start_track
1, 0, Title_t, "untitled"
1, 0, Time_signature, 6, 2, 24, 8
1, 0, Key_signature, 0, "major"
1, 0, Tempo, 530973
1, 54240, Tempo, 545455
1, 54480, Tempo, 571429
1, 54720, Tempo, 600000
1, 54960, Tempo, 659341
1, 55200, Tempo, 869565
1, 55200, End_track
2, 0, Start_track
2, 0, Title_t, "RH H"
2, 0, Program_c, 0, 0
2, 0, Note_on_c, 0, 68, 64
2, 120, Note_on_c, 0, 68, 0
2, 120, Note_on_c, 0, 66, 64
2, 240, Note_on_c, 0, 66, 0
2, 240, Note_on_c, 0, 64, 64
2, 360, Note_on_c, 0, 64, 0
2, 360, Note_on_c, 0, 63, 64
2, 480, Note_on_c, 0, 63, 0
2, 480, Note_on_c, 0, 64, 64
2, 600, Note_on_c, 0, 64, 0
2, 600, Note_on_c, 0, 61, 64
2, 720, Note_on_c, 0, 61, 0
2, 740, Note_on_c, 0, 73, 64
2, 1080, Note_on_c, 0, 73, 0
2, 1080, Note_on_c, 0, 71, 64
2, 1200, Note_on_c, 0, 71, 0
2, 1200, Note_on_c, 0, 69, 64
2, 1435, Note_on_c, 0, 69, 0
2, 1440, Note_on_c, 0, 69, 64
2, 1470, Note_on_c, 0, 69, 0
2, 1480, Note_on_c, 0, 68, 57
2, 1510, Note_on_c, 0, 68, 0
2, 1510, Note_on_c, 0, 69, 59
2, 1540, Note_on_c, 0, 69, 0
2, 1540, Note_on_c, 0, 68, 61
2, 1570, Note_on_c, 0, 68, 0
2, 1570, Note_on_c, 0, 69, 63
2, 1600, Note_on_c, 0, 69, 0
2, 1610, Note_on_c, 0, 68, 64
2, 2650, Note_on_c, 0, 68, 0
2, 2880, Note_on_c, 0, 75, 64
2, 3000, Note_on_c, 0, 75, 0
2, 3000, Note_on_c, 0, 73, 64
2, 3120, Note_on_c, 0, 73, 0
2, 3120, Note_on_c, 0, 72, 64
2, 3240, Note_on_c, 0, 72, 0
2, 3240, Note_on_c, 0, 70, 64
2, 3360, Note_on_c, 0, 70, 0
2, 3360, Note_on_c, 0, 72, 64
2, 3480, Note_on_c, 0, 72, 0
2, 3480, Note_on_c, 0, 68, 64
2, 3600, Note_on_c, 0, 68, 0
2, 3620, Note_on_c, 0, 80, 64
2, 3960, Note_on_c, 0, 80, 0
2, 3960, Note_on_c, 0, 78, 64
2, 4080, Note_on_c, 0, 78, 0
2, 4080, Note_on_c, 0, 76, 64
2, 4315, Note_on_c, 0, 76, 0
2, 4320, Note_on_c, 0, 76, 68
2, 4360, Note_on_c, 0, 76, 0
2, 4360, Note_on_c, 0, 75, 64
2, 5520, Note_on_c, 0, 75, 0
2, 5520, Note_on_c, 0, 80, 64
2, 5760, Note_on_c, 0, 80, 0
2, 5760, Note_on_c, 0, 75, 80
2, 5800, Note_on_c, 0, 75, 0
2, 5800, Note_on_c, 0, 73, 64
2, 5880, Note_on_c, 0, 73, 0
2, 5880, Note_on_c, 0, 72, 64
2, 6000, Note_on_c, 0, 72, 0
2, 6000, Note_on_c, 0, 73, 64
2, 6120, Note_on_c, 0, 73, 0
2, 6120, Note_on_c, 0, 76, 64
2, 6240, Note_on_c, 0, 76, 0
2, 6240, Note_on_c, 0, 81, 64
2, 6600, Note_on_c, 0, 81, 0
2, 6600, Note_on_c, 0, 80, 64
2, 6720, Note_on_c, 0, 80, 0
2, 6720, Note_on_c, 0, 78, 64
2, 6840, Note_on_c, 0, 78, 0
2, 6840, Note_on_c, 0, 76, 64
2, 6960, Note_on_c, 0, 76, 0
2, 6960, Note_on_c, 0, 75, 64
2, 7080, Note_on_c, 0, 75, 0
2, 7080, Note_on_c, 0, 73, 64
2, 7195, Note_on_c, 0, 73, 0
2, 7200, Note_on_c, 0, 73, 68
2, 7240, Note_on_c, 0, 73, 0
2, 7240, Note_on_c, 0, 71, 64
2, 7320, Note_on_c, 0, 71, 0
2, 7320, Note_on_c, 0, 69, 64
2, 7440, Note_on_c, 0, 69, 0
2, 7440, Note_on_c, 0, 71, 64
2, 7560, Note_on_c, 0, 71, 0
2, 7560, Note_on_c, 0, 75, 64
2, 7680, Note_on_c, 0, 75, 0
2, 7680, Note_on_c, 0, 80, 64
2, 8040, Note_on_c, 0, 80, 0
2, 8040, Note_on_c, 0, 78, 64
2, 8160, Note_on_c, 0, 78, 0
2, 8160, Note_on_c, 0, 76, 64
2, 8280, Note_on_c, 0, 76, 0
2, 8280, Note_on_c, 0, 75, 64
2, 8400, Note_on_c, 0, 75, 0
2, 8400, Note_on_c, 0, 73, 64
2, 8520, Note_on_c, 0, 73, 0
2, 8520, Note_on_c, 0, 71, 64
2, 8635, Note_on_c, 0, 71, 0
2, 8640, Note_on_c, 0, 71, 64
2, 8670, Note_on_c, 0, 71, 0
2, 8680, Note_on_c, 0, 69, 64
2, 8760, Note_on_c, 0, 69, 0
2, 8760, Note_on_c, 0, 68, 64
2, 8880, Note_on_c, 0, 68, 0
2, 8880, Note_on_c, 0, 69, 64
2, 9000, Note_on_c, 0, 69, 0
2, 9000, Note_on_c, 0, 73, 64
2, 9120, Note_on_c, 0, 73, 0
2, 9120, Note_on_c, 0, 78, 64
2, 9480, Note_on_c, 0, 78, 0
2, 9480, Note_on_c, 0, 76, 64
2, 9600, Note_on_c, 0, 76, 0
2, 9600, Note_on_c, 0, 75, 64
2, 9720, Note_on_c, 0, 75, 0
2, 9720, Note_on_c, 0, 73, 64
2, 9840, Note_on_c, 0, 73, 0
2, 9840, Note_on_c, 0, 71, 64
2, 9960, Note_on_c, 0, 71, 0
2, 9960, Note_on_c, 0, 69, 64
2, 10080, Note_on_c, 0, 69, 0
2, 10080, Note_on_c, 0, 69, 64
2, 10110, Note_on_c, 0, 69, 0
2, 10110, Note_on_c, 0, 68, 64
2, 10140, Note_on_c, 0, 68, 0
2, 10140, Note_on_c, 0, 69, 64
2, 10170, Note_on_c, 0, 69, 0
2, 10170, Note_on_c, 0, 68, 64
2, 11160, Note_on_c, 0, 68, 0
2, 11160, Note_on_c, 0, 66, 64
2, 11280, Note_on_c, 0, 69, 64
2, 11285, Note_on_c, 0, 66, 0
2, 11310, Note_on_c, 0, 69, 0
2, 11310, Note_on_c, 0, 68, 64
2, 11340, Note_on_c, 0, 68, 0
2, 11340, Note_on_c, 0, 69, 64
2, 11640, Note_on_c, 0, 69, 0
2, 11640, Note_on_c, 0, 68, 64
2, 11760, Note_on_c, 0, 68, 0
2, 11760, Note_on_c, 0, 66, 64
2, 11880, Note_on_c, 0, 66, 0
2, 11880, Note_on_c, 0, 64, 64
2, 12000, Note_on_c, 0, 64, 0
2, 12000, Note_on_c, 0, 66, 64
2, 12120, Note_on_c, 0, 66, 0
2, 12120, Note_on_c, 0, 63, 64
2, 12240, Note_on_c, 0, 63, 0
2, 12240, Note_on_c, 0, 75, 64
2, 12360, Note_on_c, 0, 75, 0
2, 12360, Note_on_c, 0, 73, 64
2, 12480, Note_on_c, 0, 73, 0
2, 12480, Note_on_c, 0, 72, 64
2, 12600, Note_on_c, 0, 72, 0
2, 12600, Note_on_c, 0, 70, 64
2, 12720, Note_on_c, 0, 70, 0
2, 12720, Note_on_c, 0, 72, 64
2, 12840, Note_on_c, 0, 72, 0
2, 12840, Note_on_c, 0, 68, 64
2, 12960, Note_on_c, 0, 68, 0
2, 12960, Note_on_c, 0, 81, 64
2, 13080, Note_on_c, 0, 81, 0
2, 13080, Note_on_c, 0, 80, 64
2, 13200, Note_on_c, 0, 80, 0
2, 13200, Note_on_c, 0, 78, 64
2, 13320, Note_on_c, 0, 78, 0
2, 13320, Note_on_c, 0, 76, 64
2, 13440, Note_on_c, 0, 76, 0
2, 13440, Note_on_c, 0, 78, 64
2, 13560, Note_on_c, 0, 78, 0
2, 13560, Note_on_c, 0, 75, 64
2, 13680, Note_on_c, 0, 75, 0
2, 13680, Note_on_c, 0, 76, 64
2, 14760, Note_on_c, 0, 76, 0
2, 14760, Note_on_c, 0, 75, 64
2, 14880, Note_on_c, 0, 75, 0
2, 14880, Note_on_c, 0, 73, 64
2, 15110, Note_on_c, 0, 73, 0
2, 15120, Note_on_c, 0, 73, 64
2, 15480, Note_on_c, 0, 73, 0
2, 15480, Note_on_c, 0, 71, 64
2, 15600, Note_on_c, 0, 71, 0
2, 15600, Note_on_c, 0, 70, 64
2, 15960, Note_on_c, 0, 70, 0
2, 15960, Note_on_c, 0, 68, 64
2, 16080, Note_on_c, 0, 68, 0
2, 16080, Note_on_c, 0, 67, 64
2, 16200, Note_on_c, 0, 67, 0
2, 16200, Note_on_c, 0, 65, 64
2, 16320, Note_on_c, 0, 65, 0
2, 16320, Note_on_c, 0, 67, 64
2, 16440, Note_on_c, 0, 67, 0
2, 16440, Note_on_c, 0, 63, 64
2, 16560, Note_on_c, 0, 63, 0
2, 16580, Note_on_c, 0, 75, 64
2, 17400, Note_on_c, 0, 75, 0
2, 17400, Note_on_c, 0, 72, 64
2, 17520, Note_on_c, 0, 72, 0
2, 17520, Note_on_c, 0, 73, 64
2, 17640, Note_on_c, 0, 73, 0
2, 17640, Note_on_c, 0, 75, 64
2, 17760, Note_on_c, 0, 75, 0
2, 17760, Note_on_c, 0, 76, 64
2, 17880, Note_on_c, 0, 76, 0
2, 17880, Note_on_c, 0, 75, 64
2, 18000, Note_on_c, 0, 75, 0
2, 18000, Note_on_c, 0, 73, 68
2, 18030, Note_on_c, 0, 73, 0
2, 18030, Note_on_c, 0, 71, 64
2, 18360, Note_on_c, 0, 71, 0
2, 18360, Note_on_c, 0, 73, 64
2, 18480, Note_on_c, 0, 73, 0
2, 18480, Note_on_c, 0, 71, 64
2, 18510, Note_on_c, 0, 71, 0
2, 18510, Note_on_c, 0, 70, 64
2, 18540, Note_on_c, 0, 70, 0
2, 18540, Note_on_c, 0, 68, 64
2, 18570, Note_on_c, 0, 68, 0
2, 18576, Note_on_c, 0, 70, 64
2, 18706, Note_on_c, 0, 70, 0
2, 18740, Note_on_c, 0, 68, 64
2, 19920, Note_on_c, 0, 68, 0
2, 19920, Note_on_c, 0, 71, 64
2, 19950, Note_on_c, 0, 71, 0
2, 19950, Note_on_c, 0, 69, 64
2, 19980, Note_on_c, 0, 69, 0
2, 19980, Note_on_c, 0, 71, 64
2, 20280, Note_on_c, 0, 71, 0
2, 20280, Note_on_c, 0, 68, 64
2, 20400, Note_on_c, 0, 68, 0
2, 20400, Note_on_c, 0, 70, 64
2, 20520, Note_on_c, 0, 70, 0
2, 20520, Note_on_c, 0, 73, 64
2, 20640, Note_on_c, 0, 73, 0
2, 20640, Note_on_c, 0, 76, 64
2, 21000, Note_on_c, 0, 76, 0
2, 21000, Note_on_c, 0, 75, 64
2, 21120, Note_on_c, 0, 75, 0
2, 21120, Note_on_c, 0, 76, 64
2, 21240, Note_on_c, 0, 76, 0
2, 21240, Note_on_c, 0, 80, 64
2, 21360, Note_on_c, 0, 80, 0
2, 21360, Note_on_c, 0, 78, 64
2, 21600, Note_on_c, 0, 78, 0
2, 21600, Note_on_c, 0, 75, 64
2, 22800, Note_on_c, 0, 73, 64
2, 22815, Note_on_c, 0, 75, 0
2, 23160, Note_on_c, 0, 70, 64
2, 23172, Note_on_c, 0, 73, 0
2, 23280, Note_on_c, 0, 72, 64
2, 23288, Note_on_c, 0, 70, 0
2, 23400, Note_on_c, 0, 75, 64
2, 23406, Note_on_c, 0, 72, 0
2, 23520, Note_on_c, 0, 78, 64
2, 23536, Note_on_c, 0, 75, 0
2, 23640, Note_on_c, 0, 80, 64
2, 23646, Note_on_c, 0, 78, 0
2, 23740, Note_on_c, 0, 80, 0
2, 23760, Note_on_c, 0, 81, 64
2, 23880, Note_on_c, 0, 80, 64
2, 23890, Note_on_c, 0, 81, 0
2, 24000, Note_on_c, 0, 78, 64
2, 24013, Note_on_c, 0, 80, 0
2, 24119, Note_on_c, 0, 78, 0
2, 24120, Note_on_c, 0, 76, 64
2, 24240, Note_on_c, 0, 78, 64
2, 24251, Note_on_c, 0, 76, 0
2, 24360, Note_on_c, 0, 75, 64
2, 24365, Note_on_c, 0, 78, 0
2, 24480, Note_on_c, 0, 76, 64
2, 24489, Note_on_c, 0, 75, 0
2, 26030, Note_on_c, 0, 76, 0
2, 26040, Note_on_c, 0, 74, 64
2, 26160, Note_on_c, 0, 74, 0
2, 26160, Note_on_c, 0, 77, 64
2, 26280, Note_on_c, 0, 77, 0
2, 26280, Note_on_c, 0, 80, 64
2, 26400, Note_on_c, 0, 80, 0
2, 26400, Note_on_c, 0, 83, 64
2, 26760, Note_on_c, 0, 83, 0
2, 26760, Note_on_c, 0, 74, 64
2, 26880, Note_on_c, 0, 74, 0
2, 26880, Note_on_c, 0, 73, 64
2, 27000, Note_on_c, 0, 73, 0
2, 27000, Note_on_c, 0, 71, 64
2, 27120, Note_on_c, 0, 71, 0
2, 27120, Note_on_c, 0, 69, 64
2, 27240, Note_on_c, 0, 69, 0
2, 27240, Note_on_c, 0, 68, 64
2, 27360, Note_on_c, 0, 68, 0
2, 27360, Note_on_c, 0, 69, 64
2, 27390, Note_on_c, 0, 69, 0
2, 27390, Note_on_c, 0, 68, 64
2, 27420, Note_on_c, 0, 68, 0
2, 27420, Note_on_c, 0, 69, 64
2, 28200, Note_on_c, 0, 69, 0
2, 28200, Note_on_c, 0, 68, 64
2, 28320, Note_on_c, 0, 68, 0
2, 28320, Note_on_c, 0, 69, 64
2, 28440, Note_on_c, 0, 69, 0
2, 28440, Note_on_c, 0, 73, 64
2, 28560, Note_on_c, 0, 73, 0
2, 28560, Note_on_c, 0, 78, 64
2, 28920, Note_on_c, 0, 78, 0
2, 28920, Note_on_c, 0, 76, 64
2, 29040, Note_on_c, 0, 76, 0
2, 29040, Note_on_c, 0, 74, 64
2, 29160, Note_on_c, 0, 74, 0
2, 29160, Note_on_c, 0, 73, 64
2, 29280, Note_on_c, 0, 73, 0
2, 29280, Note_on_c, 0, 71, 64
2, 29400, Note_on_c, 0, 71, 0
2, 29400, Note_on_c, 0, 69, 64
2, 29515, Note_on_c, 0, 69, 0
2, 29520, Note_on_c, 0, 69, 64
2, 29560, Note_on_c, 0, 69, 0
2, 29560, Note_on_c, 0, 68, 64
2, 29640, Note_on_c, 0, 68, 0
2, 29640, Note_on_c, 0, 66, 64
2, 29760, Note_on_c, 0, 66, 0
2, 29760, Note_on_c, 0, 68, 64
2, 29880, Note_on_c, 0, 68, 0
2, 29880, Note_on_c, 0, 71, 64
2, 30000, Note_on_c, 0, 71, 0
2, 30000, Note_on_c, 0, 76, 64
2, 30360, Note_on_c, 0, 76, 0
2, 30360, Note_on_c, 0, 75, 64
2, 30480, Note_on_c, 0, 75, 0
2, 30480, Note_on_c, 0, 73, 64
2, 30600, Note_on_c, 0, 73, 0
2, 30600, Note_on_c, 0, 71, 64
2, 30720, Note_on_c, 0, 71, 0
2, 30720, Note_on_c, 0, 69, 64
2, 30840, Note_on_c, 0, 69, 0
2, 30840, Note_on_c, 0, 68, 64
2, 30955, Note_on_c, 0, 68, 0
2, 30960, Note_on_c, 0, 68, 64
2, 31000, Note_on_c, 0, 68, 0
2, 31000, Note_on_c, 0, 66, 64
2, 31080, Note_on_c, 0, 66, 0
2, 31080, Note_on_c, 0, 64, 64
2, 31200, Note_on_c, 0, 64, 0
2, 31200, Note_on_c, 0, 66, 64
2, 31320, Note_on_c, 0, 66, 0
2, 31320, Note_on_c, 0, 69, 64
2, 31440, Note_on_c, 0, 69, 0
2, 31440, Note_on_c, 0, 75, 64
2, 31800, Note_on_c, 0, 75, 0
2, 31800, Note_on_c, 0, 73, 64
2, 31920, Note_on_c, 0, 73, 0
2, 31920, Note_on_c, 0, 72, 64
2, 32040, Note_on_c, 0, 72, 0
2, 32040, Note_on_c, 0, 70, 64
2, 32160, Note_on_c, 0, 70, 0
2, 32160, Note_on_c, 0, 68, 64
2, 32280, Note_on_c, 0, 68, 0
2, 32280, Note_on_c, 0, 66, 64
2, 32395, Note_on_c, 0, 66, 0
2, 32400, Note_on_c, 0, 66, 64
2, 32440, Note_on_c, 0, 66, 0
2, 32440, Note_on_c, 0, 64, 64
2, 32520, Note_on_c, 0, 64, 0
2, 32520, Note_on_c, 0, 63, 64
2, 32640, Note_on_c, 0, 63, 0
2, 32640, Note_on_c, 0, 64, 64
2, 32760, Note_on_c, 0, 64, 0
2, 32760, Note_on_c, 0, 68, 64
2, 32880, Note_on_c, 0, 68, 0
2, 32880, Note_on_c, 0, 73, 64
2, 33240, Note_on_c, 0, 71, 64
2, 33250, Note_on_c, 0, 73, 0
2, 33360, Note_on_c, 0, 71, 0
2, 33360, Note_on_c, 0, 69, 64
2, 33480, Note_on_c, 0, 69, 0
2, 33480, Note_on_c, 0, 68, 64
2, 33600, Note_on_c, 0, 68, 0
2, 33600, Note_on_c, 0, 66, 64
2, 33720, Note_on_c, 0, 66, 0
2, 33720, Note_on_c, 0, 69, 64
2, 33840, Note_on_c, 0, 69, 0
2, 33840, Note_on_c, 0, 78, 64
2, 33960, Note_on_c, 0, 78, 0
2, 33960, Note_on_c, 0, 76, 64
2, 34080, Note_on_c, 0, 76, 0
2, 34080, Note_on_c, 0, 74, 64
2, 34200, Note_on_c, 0, 74, 0
2, 34200, Note_on_c, 0, 73, 64
2, 34320, Note_on_c, 0, 73, 0
2, 34320, Note_on_c, 0, 74, 64
2, 34440, Note_on_c, 0, 74, 0
2, 34440, Note_on_c, 0, 69, 64
2, 34560, Note_on_c, 0, 69, 0
2, 34560, Note_on_c, 0, 81, 64
2, 34680, Note_on_c, 0, 81, 0
2, 34680, Note_on_c, 0, 80, 64
2, 34800, Note_on_c, 0, 80, 0
2, 34800, Note_on_c, 0, 78, 64
2, 34920, Note_on_c, 0, 78, 0
2, 34920, Note_on_c, 0, 76, 64
2, 35040, Note_on_c, 0, 76, 0
2, 35040, Note_on_c, 0, 78, 64
2, 35160, Note_on_c, 0, 78, 0
2, 35280, Note_on_c, 0, 84, 64
2, 35760, Note_on_c, 0, 84, 0
2, 35760, Note_on_c, 0, 80, 64
2, 35993, Note_on_c, 0, 80, 0
2, 36000, Note_on_c, 0, 80, 64
2, 36840, Note_on_c, 0, 80, 0
2, 36840, Note_on_c, 0, 78, 64
2, 36960, Note_on_c, 0, 78, 0
2, 36960, Note_on_c, 0, 76, 64
2, 37080, Note_on_c, 0, 76, 0
2, 37080, Note_on_c, 0, 75, 64
2, 37200, Note_on_c, 0, 75, 0
2, 37200, Note_on_c, 0, 76, 64
2, 37320, Note_on_c, 0, 76, 0
2, 37320, Note_on_c, 0, 73, 64
2, 37440, Note_on_c, 0, 73, 0
2, 37440, Note_on_c, 0, 78, 64
2, 38280, Note_on_c, 0, 78, 0
2, 38280, Note_on_c, 0, 76, 64
2, 38400, Note_on_c, 0, 76, 0
2, 38400, Note_on_c, 0, 75, 64
2, 38520, Note_on_c, 0, 75, 0
2, 38520, Note_on_c, 0, 73, 64
2, 38640, Note_on_c, 0, 73, 0
2, 38640, Note_on_c, 0, 75, 64
2, 38760, Note_on_c, 0, 75, 0
2, 38760, Note_on_c, 0, 68, 64
2, 38880, Note_on_c, 0, 68, 0
2, 38880, Note_on_c, 0, 76, 64
2, 39720, Note_on_c, 0, 76, 0
2, 39720, Note_on_c, 0, 75, 64
2, 39840, Note_on_c, 0, 75, 0
2, 39840, Note_on_c, 0, 76, 64
2, 39960, Note_on_c, 0, 76, 0
2, 39960, Note_on_c, 0, 78, 64
2, 40080, Note_on_c, 0, 78, 0
2, 40080, Note_on_c, 0, 80, 64
2, 40200, Note_on_c, 0, 80, 0
2, 40200, Note_on_c, 0, 81, 64
2, 40320, Note_on_c, 0, 81, 0
2, 40320, Note_on_c, 0, 73, 68
2, 40350, Note_on_c, 0, 73, 0
2, 40350, Note_on_c, 0, 72, 51
2, 40380, Note_on_c, 0, 72, 0
2, 40380, Note_on_c, 0, 70, 53
2, 40410, Note_on_c, 0, 70, 0
2, 40410, Note_on_c, 0, 72, 56
2, 40440, Note_on_c, 0, 72, 0
2, 40440, Note_on_c, 0, 73, 58
2, 40470, Note_on_c, 0, 73, 0
2, 40470, Note_on_c, 0, 72, 61
2, 40500, Note_on_c, 0, 72, 0
2, 40500, Note_on_c, 0, 73, 63
2, 40528, Note_on_c, 0, 72, 64
2, 40530, Note_on_c, 0, 73, 0
2, 40678, Note_on_c, 0, 72, 0
2, 40680, Note_on_c, 0, 73, 64
2, 40800, Note_on_c, 0, 73, 0
2, 40800, Note_on_c, 0, 75, 64
2, 41040, Note_on_c, 0, 75, 0
2, 41060, Note_on_c, 0, 66, 64
2, 41880, Note_on_c, 0, 64, 64
2, 41900, Note_on_c, 0, 66, 0
2, 42000, Note_on_c, 0, 64, 0
2, 42000, Note_on_c, 0, 63, 64
2, 42120, Note_on_c, 0, 63, 0
2, 42120, Note_on_c, 0, 61, 64
2, 42240, Note_on_c, 0, 61, 0
2, 42240, Note_on_c, 0, 63, 64
2, 42360, Note_on_c, 0, 63, 0
2, 42360, Note_on_c, 0, 60, 64
2, 42480, Note_on_c, 0, 60, 0
2, 42480, Note_on_c, 0, 69, 64
2, 42600, Note_on_c, 0, 69, 0
2, 42600, Note_on_c, 0, 68, 64
2, 42720, Note_on_c, 0, 68, 0
2, 42720, Note_on_c, 0, 66, 64
2, 42840, Note_on_c, 0, 66, 0
2, 42840, Note_on_c, 0, 64, 64
2, 42960, Note_on_c, 0, 64, 0
2, 42960, Note_on_c, 0, 66, 64
2, 43080, Note_on_c, 0, 66, 0
2, 43080, Note_on_c, 0, 63, 64
2, 43200, Note_on_c, 0, 63, 0
2, 43200, Note_on_c, 0, 72, 64
2, 43320, Note_on_c, 0, 72, 0
2, 43320, Note_on_c, 0, 69, 64
2, 43440, Note_on_c, 0, 69, 0
2, 43440, Note_on_c, 0, 68, 64
2, 43560, Note_on_c, 0, 68, 0
2, 43560, Note_on_c, 0, 66, 64
2, 43680, Note_on_c, 0, 66, 0
2, 43680, Note_on_c, 0, 68, 64
2, 43800, Note_on_c, 0, 68, 0
2, 43800, Note_on_c, 0, 63, 64
2, 43920, Note_on_c, 0, 63, 0
2, 43920, Note_on_c, 0, 75, 64
2, 44040, Note_on_c, 0, 75, 0
2, 44040, Note_on_c, 0, 73, 64
2, 44160, Note_on_c, 0, 73, 0
2, 44160, Note_on_c, 0, 72, 64
2, 44280, Note_on_c, 0, 72, 0
2, 44280, Note_on_c, 0, 70, 64
2, 44400, Note_on_c, 0, 70, 0
2, 44400, Note_on_c, 0, 72, 64
2, 44520, Note_on_c, 0, 72, 0
2, 44520, Note_on_c, 0, 68, 64
2, 44640, Note_on_c, 0, 68, 0
2, 44640, Note_on_c, 0, 80, 64
2, 44880, Note_on_c, 0, 80, 0
2, 44880, Note_on_c, 0, 78, 64
2, 45000, Note_on_c, 0, 78, 0
2, 45000, Note_on_c, 0, 76, 64
2, 45120, Note_on_c, 0, 76, 0
2, 45120, Note_on_c, 0, 75, 64
2, 45240, Note_on_c, 0, 75, 0
2, 45240, Note_on_c, 0, 73, 64
2, 45360, Note_on_c, 0, 73, 0
2, 45360, Note_on_c, 0, 72, 64
2, 45480, Note_on_c, 0, 72, 0
2, 45480, Note_on_c, 0, 73, 64
2, 45600, Note_on_c, 0, 73, 0
2, 45600, Note_on_c, 0, 75, 64
2, 45720, Note_on_c, 0, 75, 0
2, 45720, Note_on_c, 0, 78, 64
2, 45840, Note_on_c, 0, 78, 0
2, 45840, Note_on_c, 0, 69, 64
2, 46200, Note_on_c, 0, 69, 0
2, 46200, Note_on_c, 0, 68, 64
2, 46320, Note_on_c, 0, 68, 0
2, 46320, Note_on_c, 0, 69, 64
2, 46440, Note_on_c, 0, 69, 0
2, 46440, Note_on_c, 0, 66, 64
2, 46560, Note_on_c, 0, 66, 0
2, 46560, Note_on_c, 0, 81, 64
2, 47040, Note_on_c, 0, 81, 0
2, 47040, Note_on_c, 0, 80, 64
2, 47160, Note_on_c, 0, 80, 0
2, 47160, Note_on_c, 0, 78, 64
2, 47280, Note_on_c, 0, 78, 0
2, 47280, Note_on_c, 0, 76, 64
2, 47400, Note_on_c, 0, 76, 0
2, 47400, Note_on_c, 0, 75, 64
2, 47520, Note_on_c, 0, 75, 0
2, 47520, Note_on_c, 0, 76, 64
2, 48120, Note_on_c, 0, 76, 0
2, 48120, Note_on_c, 0, 81, 64
2, 48240, Note_on_c, 0, 81, 0
2, 48250, Note_on_c, 0, 76, 64
2, 48600, Note_on_c, 0, 76, 0
2, 48600, Note_on_c, 0, 78, 64
2, 48720, Note_on_c, 0, 78, 0
2, 48720, Note_on_c, 0, 76, 64
2, 48750, Note_on_c, 0, 76, 0
2, 48750, Note_on_c, 0, 75, 64
2, 48780, Note_on_c, 0, 75, 0
2, 48780, Note_on_c, 0, 73, 64
2, 48810, Note_on_c, 0, 73, 0
2, 48810, Note_on_c, 0, 75, 64
2, 48960, Note_on_c, 0, 75, 0
2, 48960, Note_on_c, 0, 73, 64
2, 50040, Note_on_c, 0, 73, 0
2, 50040, Note_on_c, 0, 76, 64
2, 50160, Note_on_c, 0, 76, 0
2, 50160, Note_on_c, 0, 75, 64
2, 50400, Note_on_c, 0, 75, 0
2, 50400, Note_on_c, 0, 76, 64
2, 51480, Note_on_c, 0, 76, 0
2, 51480, Note_on_c, 0, 72, 64
2, 51600, Note_on_c, 0, 72, 0
2, 51840, Note_on_c, 0, 78, 64
2, 53040, Note_on_c, 0, 78, 0
2, 53040, Note_on_c, 0, 80, 64
2, 53280, Note_on_c, 0, 80, 0
2, 53280, Note_on_c, 0, 73, 64
2, 54360, Note_on_c, 0, 73, 0
2, 54360, Note_on_c, 0, 75, 64
2, 54480, Note_on_c, 0, 75, 0
2, 54480, Note_on_c, 0, 72, 64
2, 54720, Note_on_c, 0, 72, 0
2, 54720, Note_on_c, 0, 73, 64
2, 55320, Note_on_c, 0, 73, 0
2, 55320, Note_on_c, 0, 72, 64
2, 55440, Note_on_c, 0, 72, 0
2, 55440, Note_on_c, 0, 73, 64
2, 56160, Note_on_c, 0, 73, 0
2, 56160, End_track
3, 0, Start_track
3, 0, Title_t, "RH L"
3, 0, Program_c, 1, 0
3, 720, Note_on_c, 1, 64, 64
3, 730, Note_on_c, 1, 68, 64
3, 1200, Note_on_c, 1, 68, 0
3, 1200, Note_on_c, 1, 64, 0
3, 1200, Note_on_c, 1, 66, 64
3, 1440, Note_on_c, 1, 66, 0
3, 1440, Note_on_c, 1, 64, 64
3, 2640, Note_on_c, 1, 64, 0
3, 2640, Note_on_c, 1, 66, 64
3, 3600, Note_on_c, 1, 66, 0
3, 3600, Note_on_c, 1, 68, 64
3, 3610, Note_on_c, 1, 75, 64
3, 4070, Note_on_c, 1, 75, 0
3, 4070, Note_on_c, 1, 68, 0
3, 4080, Note_on_c, 1, 73, 64
3, 4080, Note_on_c, 1, 68, 64
3, 4320, Note_on_c, 1, 68, 0
3, 4320, Note_on_c, 1, 73, 0
3, 4320, Note_on_c, 1, 68, 64
3, 4320, Note_on_c, 1, 72, 64
3, 5510, Note_on_c, 1, 72, 0
3, 5510, Note_on_c, 1, 68, 0
3, 5520, Note_on_c, 1, 72, 64
3, 5520, Note_on_c, 1, 68, 64
3, 5760, Note_on_c, 1, 68, 0
3, 5760, Note_on_c, 1, 72, 0
3, 5760, Note_on_c, 1, 69, 64
3, 6000, Note_on_c, 1, 69, 0
3, 6480, Note_on_c, 1, 69, 64
3, 7200, Note_on_c, 1, 69, 0
3, 7200, Note_on_c, 1, 68, 64
3, 7440, Note_on_c, 1, 68, 0
3, 7920, Note_on_c, 1, 68, 64
3, 8640, Note_on_c, 1, 68, 0
3, 8640, Note_on_c, 1, 66, 64
3, 8880, Note_on_c, 1, 66, 0
3, 9360, Note_on_c, 1, 66, 64
3, 10080, Note_on_c, 1, 66, 0
3, 10080, Note_on_c, 1, 64, 64
3, 10800, Note_on_c, 1, 64, 0
3, 13800, Note_on_c, 1, 75, 64
3, 13920, Note_on_c, 1, 75, 0
3, 13920, Note_on_c, 1, 73, 64
3, 14040, Note_on_c, 1, 73, 0
3, 14040, Note_on_c, 1, 71, 64
3, 14160, Note_on_c, 1, 71, 0
3, 14160, Note_on_c, 1, 73, 64
3, 14280, Note_on_c, 1, 73, 0
3, 14280, Note_on_c, 1, 70, 64
3, 14400, Note_on_c, 1, 70, 0
3, 14400, Note_on_c, 1, 68, 64
3, 14440, Note_on_c, 1, 68, 0
3, 14440, Note_on_c, 1, 67, 64
3, 14760, Note_on_c, 1, 67, 0
3, 14760, Note_on_c, 1, 68, 64
3, 14880, Note_on_c, 1, 68, 0
3, 14880, Note_on_c, 1, 70, 64
3, 14910, Note_on_c, 1, 70, 0
3, 14910, Note_on_c, 1, 68, 64
3, 14940, Note_on_c, 1, 68, 0
3, 14940, Note_on_c, 1, 70, 64
3, 15120, Note_on_c, 1, 70, 0
3, 15120, Note_on_c, 1, 63, 64
3, 15480, Note_on_c, 1, 63, 0
3, 15480, Note_on_c, 1, 65, 64
3, 15600, Note_on_c, 1, 65, 0
3, 15600, Note_on_c, 1, 67, 64
3, 15630, Note_on_c, 1, 67, 0
3, 15630, Note_on_c, 1, 65, 64
3, 15660, Note_on_c, 1, 65, 0
3, 15660, Note_on_c, 1, 67, 64
3, 15960, Note_on_c, 1, 67, 0
3, 16560, Note_on_c, 1, 67, 64
3, 16570, Note_on_c, 1, 70, 64
3, 17040, Note_on_c, 1, 70, 0
3, 17040, Note_on_c, 1, 67, 0
3, 17040, Note_on_c, 1, 68, 64
3, 18480, Note_on_c, 1, 68, 0
3, 18480, Note_on_c, 1, 67, 64
3, 18720, Note_on_c, 1, 67, 0
3, 18720, Note_on_c, 1, 59, 64
3, 18730, Note_on_c, 1, 63, 64
3, 19920, Note_on_c, 1, 63, 0
3, 19920, Note_on_c, 1, 59, 0
3, 21720, Note_on_c, 1, 73, 64
3, 21840, Note_on_c, 1, 73, 0
3, 21840, Note_on_c, 1, 71, 64
3, 21960, Note_on_c, 1, 71, 0
3, 21960, Note_on_c, 1, 70, 64
3, 22080, Note_on_c, 1, 70, 0
3, 22080, Note_on_c, 1, 71, 64
3, 22200, Note_on_c, 1, 66, 64
3, 22320, Note_on_c, 1, 63, 64
3, 23040, Note_on_c, 1, 63, 0
3, 23040, Note_on_c, 1, 71, 0
3, 23280, Note_on_c, 1, 66, 0
3, 24600, Note_on_c, 1, 75, 64
3, 24720, Note_on_c, 1, 75, 0
3, 24720, Note_on_c, 1, 73, 64
3, 24840, Note_on_c, 1, 73, 0
3, 24840, Note_on_c, 1, 72, 64
3, 24960, Note_on_c, 1, 72, 0
3, 24960, Note_on_c, 1, 73, 64
3, 25080, Note_on_c, 1, 68, 64
3, 25200, Note_on_c, 1, 64, 64
3, 25920, Note_on_c, 1, 64, 0
3, 25920, Note_on_c, 1, 68, 0
3, 25920, Note_on_c, 1, 73, 0
3, 35160, Note_on_c, 1, 75, 64
3, 36360, Note_on_c, 1, 75, 0
3, 36360, Note_on_c, 1, 76, 64
3, 36480, Note_on_c, 1, 76, 0
3, 36480, Note_on_c, 1, 72, 64
3, 36720, Note_on_c, 1, 72, 0
3, 36720, Note_on_c, 1, 73, 64
3, 37800, Note_on_c, 1, 73, 0
3, 37800, Note_on_c, 1, 72, 64
3, 37920, Note_on_c, 1, 72, 0
3, 37920, Note_on_c, 1, 75, 64
3, 38160, Note_on_c, 1, 75, 0
3, 38160, Note_on_c, 1, 68, 64
3, 39240, Note_on_c, 1, 68, 0
3, 39240, Note_on_c, 1, 73, 64
3, 39360, Note_on_c, 1, 73, 0
3, 39360, Note_on_c, 1, 66, 64
3, 39480, Note_on_c, 1, 66, 0
3, 39480, Note_on_c, 1, 68, 64
3, 39600, Note_on_c, 1, 68, 0
3, 39600, Note_on_c, 1, 69, 64
3, 40320, Note_on_c, 1, 69, 0
3, 40320, Note_on_c, 1, 68, 64
3, 41040, Note_on_c, 1, 68, 0
3, 41040, Note_on_c, 1, 60, 64
3, 41050, Note_on_c, 1, 63, 64
3, 41760, Note_on_c, 1, 63, 0
3, 41760, Note_on_c, 1, 60, 0
3, 47640, Note_on_c, 1, 75, 64
3, 47760, Note_on_c, 1, 75, 0
3, 47760, Note_on_c, 1, 73, 64
3, 47880, Note_on_c, 1, 73, 0
3, 47880, Note_on_c, 1, 72, 64
3, 48000, Note_on_c, 1, 72, 0
3, 48000, Note_on_c, 1, 73, 64
3, 48230, Note_on_c, 1, 73, 0
3, 48240, Note_on_c, 1, 73, 64
3, 48720, Note_on_c, 1, 73, 0
3, 48720, Note_on_c, 1, 72, 64
3, 48960, Note_on_c, 1, 72, 0
3, 49080, Note_on_c, 1, 71, 64
3, 49200, Note_on_c, 1, 71, 0
3, 49200, Note_on_c, 1, 70, 64
3, 49320, Note_on_c, 1, 70, 0
3, 49320, Note_on_c, 1, 68, 64
3, 49440, Note_on_c, 1, 68, 0
3, 49440, Note_on_c, 1, 67, 64
3, 49560, Note_on_c, 1, 67, 0
3, 49560, Note_on_c, 1, 68, 64
3, 49675, Note_on_c, 1, 68, 0
3, 49680, Note_on_c, 1, 68, 64
3, 49720, Note_on_c, 1, 68, 0
3, 49720, Note_on_c, 1, 67, 64
3, 50520, Note_on_c, 1, 67, 0
3, 50520, Note_on_c, 1, 68, 64
3, 50640, Note_on_c, 1, 68, 0
3, 50640, Note_on_c, 1, 70, 64
3, 50760, Note_on_c, 1, 70, 0
3, 50760, Note_on_c, 1, 68, 64
3, 50880, Note_on_c, 1, 68, 0
3, 50880, Note_on_c, 1, 71, 64
3, 51000, Note_on_c, 1, 71, 0
3, 51000, Note_on_c, 1, 70, 64
3, 51110, Note_on_c, 1, 70, 0
3, 51120, Note_on_c, 1, 70, 64
3, 51600, Note_on_c, 1, 73, 64
3, 51960, Note_on_c, 1, 73, 0
3, 51960, Note_on_c, 1, 70, 0
3, 51960, Note_on_c, 1, 75, 64
3, 52080, Note_on_c, 1, 75, 0
3, 52080, Note_on_c, 1, 76, 64
3, 52200, Note_on_c, 1, 76, 0
3, 52200, Note_on_c, 1, 75, 64
3, 52320, Note_on_c, 1, 75, 0
3, 52320, Note_on_c, 1, 73, 64
3, 52440, Note_on_c, 1, 73, 0
3, 52440, Note_on_c, 1, 71, 64
3, 52560, Note_on_c, 1, 71, 0
3, 52560, Note_on_c, 1, 70, 64
3, 52680, Note_on_c, 1, 70, 0
3, 52680, Note_on_c, 1, 68, 64
3, 52800, Note_on_c, 1, 68, 0
3, 52800, Note_on_c, 1, 67, 64
3, 52920, Note_on_c, 1, 67, 0
3, 52920, Note_on_c, 1, 65, 64
3, 53040, Note_on_c, 1, 65, 0
3, 53040, Note_on_c, 1, 72, 64
3, 53040, Note_on_c, 1, 66, 64
3, 53160, Note_on_c, 1, 66, 0
3, 53160, Note_on_c, 1, 63, 64
3, 53280, Note_on_c, 1, 63, 0
3, 53280, Note_on_c, 1, 72, 0
3, 53280, Note_on_c, 1, 64, 64
3, 53400, Note_on_c, 1, 64, 0
3, 53400, Note_on_c, 1, 71, 64
3, 53520, Note_on_c, 1, 71, 0
3, 53520, Note_on_c, 1, 69, 64
3, 53640, Note_on_c, 1, 69, 0
3, 53640, Note_on_c, 1, 68, 64
3, 53760, Note_on_c, 1, 68, 0
3, 53760, Note_on_c, 1, 66, 64
3, 53880, Note_on_c, 1, 66, 0
3, 53880, Note_on_c, 1, 69, 64
3, 54000, Note_on_c, 1, 69, 0
3, 54000, Note_on_c, 1, 64, 64
3, 54360, Note_on_c, 1, 64, 0
3, 54360, Note_on_c, 1, 66, 64
3, 54480, Note_on_c, 1, 66, 0
3, 54480, Note_on_c, 1, 63, 64
3, 54600, Note_on_c, 1, 66, 64
3, 54720, Note_on_c, 1, 63, 0
3, 54720, Note_on_c, 1, 61, 64
3, 54840, Note_on_c, 1, 66, 0
3, 54840, Note_on_c, 1, 68, 64
3, 54960, Note_on_c, 1, 68, 0
3, 54960, Note_on_c, 1, 69, 64
3, 55080, Note_on_c, 1, 69, 0
3, 55080, Note_on_c, 1, 66, 64
3, 55200, Note_on_c, 1, 61, 0
3, 55200, Note_on_c, 1, 63, 64
3, 55440, Note_on_c, 1, 63, 0
3, 55440, Note_on_c, 1, 66, 0
3, 55440, Note_on_c, 1, 65, 64
3, 55440, Note_on_c, 1, 68, 64
3, 56160, Note_on_c, 1, 68, 0
3, 56160, Note_on_c, 1, 65, 0
3, 56160, End_track
4, 0, Start_track
4, 0, Title_t, "LH H"
4, 0, Program_c, 2, 0
4, 1440, Note_on_c, 2, 56, 64
4, 1560, Note_on_c, 2, 56, 0
4, 1560, Note_on_c, 2, 54, 64
4, 1680, Note_on_c, 2, 54, 0
4, 1680, Note_on_c, 2, 52, 64
4, 1800, Note_on_c, 2, 52, 0
4, 1800, Note_on_c, 2, 51, 64
4, 1920, Note_on_c, 2, 51, 0
4, 1920, Note_on_c, 2, 52, 64
4, 2040, Note_on_c, 2, 52, 0
4, 2040, Note_on_c, 2, 49, 64
4, 2130, Note_on_c, 2, 49, 0
4, 2130, Note_on_c, 2, 52, 64
4, 2160, Note_on_c, 2, 52, 0
4, 2160, Note_on_c, 2, 56, 64
4, 2190, Note_on_c, 2, 56, 0
4, 2190, Note_on_c, 2, 61, 64
4, 2520, Note_on_c, 2, 61, 0
4, 2520, Note_on_c, 2, 59, 64
4, 2640, Note_on_c, 2, 59, 0
4, 2640, Note_on_c, 2, 57, 64
4, 2880, Note_on_c, 2, 57, 0
4, 2880, Note_on_c, 2, 56, 64
4, 4080, Note_on_c, 2, 56, 0
4, 4080, Note_on_c, 2, 61, 64
4, 4320, Note_on_c, 2, 61, 0
4, 4320, Note_on_c, 2, 63, 64
4, 4440, Note_on_c, 2, 63, 0
4, 4440, Note_on_c, 2, 61, 64
4, 4560, Note_on_c, 2, 61, 0
4, 4560, Note_on_c, 2, 60, 64
4, 4680, Note_on_c, 2, 60, 0
4, 4680, Note_on_c, 2, 58, 64
4, 4800, Note_on_c, 2, 58, 0
4, 4800, Note_on_c, 2, 60, 64
4, 4920, Note_on_c, 2, 60, 0
4, 4920, Note_on_c, 2, 56, 64
4, 5010, Note_on_c, 2, 56, 0
4, 5010, Note_on_c, 2, 60, 64
4, 5040, Note_on_c, 2, 60, 0
4, 5040, Note_on_c, 2, 63, 64
4, 5070, Note_on_c, 2, 63, 0
4, 5070, Note_on_c, 2, 66, 64
4, 5400, Note_on_c, 2, 66, 0
4, 5400, Note_on_c, 2, 64, 64
4, 5520, Note_on_c, 2, 64, 0
4, 5520, Note_on_c, 2, 63, 64
4, 5760, Note_on_c, 2, 63, 0
4, 5760, Note_on_c, 2, 64, 64
4, 6480, Note_on_c, 2, 64, 0
4, 6480, Note_on_c, 2, 63, 64
4, 7920, Note_on_c, 2, 63, 0
4, 7920, Note_on_c, 2, 61, 64
4, 9360, Note_on_c, 2, 59, 64
4, 9370, Note_on_c, 2, 61, 0
4, 10200, Note_on_c, 2, 59, 0
4, 10200, Note_on_c, 2, 57, 64
4, 10320, Note_on_c, 2, 57, 0
4, 10320, Note_on_c, 2, 56, 64
4, 10440, Note_on_c, 2, 56, 0
4, 10440, Note_on_c, 2, 54, 64
4, 10560, Note_on_c, 2, 54, 0
4, 10560, Note_on_c, 2, 56, 64
4, 10680, Note_on_c, 2, 56, 0
4, 10680, Note_on_c, 2, 52, 64
4, 10770, Note_on_c, 2, 52, 0
4, 10770, Note_on_c, 2, 56, 64
4, 10800, Note_on_c, 2, 56, 0
4, 10800, Note_on_c, 2, 59, 64
4, 10830, Note_on_c, 2, 59, 0
4, 10830, Note_on_c, 2, 64, 64
4, 11160, Note_on_c, 2, 64, 0
4, 11160, Note_on_c, 2, 63, 64
4, 11280, Note_on_c, 2, 63, 0
4, 11280, Note_on_c, 2, 61, 64
4, 11520, Note_on_c, 2, 61, 0
4, 11520, Note_on_c, 2, 60, 64
4, 13320, Note_on_c, 2, 60, 0
4, 13320, Note_on_c, 2, 61, 64
4, 13440, Note_on_c, 2, 61, 0
4, 13440, Note_on_c, 2, 63, 64
4, 13680, Note_on_c, 2, 63, 0
4, 13680, Note_on_c, 2, 61, 64
4, 14400, Note_on_c, 2, 61, 0
4, 18000, Note_on_c, 2, 51, 64
4, 18840, Note_on_c, 2, 51, 0
4, 18840, Note_on_c, 2, 49, 64
4, 18960, Note_on_c, 2, 49, 0
4, 18960, Note_on_c, 2, 47, 64
4, 19080, Note_on_c, 2, 47, 0
4, 19080, Note_on_c, 2, 46, 64
4, 19200, Note_on_c, 2, 46, 0
4, 19200, Note_on_c, 2, 47, 64
4, 19320, Note_on_c, 2, 47, 0
4, 19320, Note_on_c, 2, 44, 64
4, 19440, Note_on_c, 2, 44, 0
4, 19440, Note_on_c, 2, 47, 64
4, 19560, Note_on_c, 2, 47, 0
4, 19560, Note_on_c, 2, 51, 64
4, 19680, Note_on_c, 2, 51, 0
4, 19680, Note_on_c, 2, 56, 64
4, 19800, Note_on_c, 2, 56, 0
4, 19800, Note_on_c, 2, 52, 64
4, 19920, Note_on_c, 2, 52, 0
4, 19920, Note_on_c, 2, 54, 64
4, 20040, Note_on_c, 2, 54, 0
4, 20040, Note_on_c, 2, 51, 64
4, 20160, Note_on_c, 2, 51, 0
4, 20160, Note_on_c, 2, 52, 64
4, 20880, Note_on_c, 2, 52, 0
4, 20880, Note_on_c, 2, 54, 64
4, 20910, Note_on_c, 2, 54, 0
4, 20910, Note_on_c, 2, 52, 64
4, 20940, Note_on_c, 2, 52, 0
4, 20940, Note_on_c, 2, 54, 64
4, 21240, Note_on_c, 2, 54, 0
4, 21240, Note_on_c, 2, 56, 64
4, 21360, Note_on_c, 2, 58, 64
4, 21371, Note_on_c, 2, 56, 0
4, 21588, Note_on_c, 2, 58, 0
4, 23520, Note_on_c, 2, 51, 64
4, 24480, Note_on_c, 2, 51, 0
4, 26280, Note_on_c, 2, 61, 64
4, 26400, Note_on_c, 2, 61, 0
4, 26400, Note_on_c, 2, 62, 64
4, 26880, Note_on_c, 2, 62, 0
4, 26880, Note_on_c, 2, 56, 64
4, 27120, Note_on_c, 2, 56, 0
4, 27120, Note_on_c, 2, 61, 64
4, 27480, Note_on_c, 2, 61, 0
4, 27480, Note_on_c, 2, 59, 64
4, 27600, Note_on_c, 2, 59, 0
4, 27600, Note_on_c, 2, 57, 64
4, 27720, Note_on_c, 2, 57, 0
4, 27720, Note_on_c, 2, 56, 64
4, 27840, Note_on_c, 2, 56, 0
4, 27840, Note_on_c, 2, 57, 64
4, 27960, Note_on_c, 2, 57, 0
4, 27960, Note_on_c, 2, 54, 64
4, 28080, Note_on_c, 2, 54, 0
4, 28080, Note_on_c, 2, 66, 64
4, 28440, Note_on_c, 2, 66, 0
4, 28440, Note_on_c, 2, 64, 64
4, 28560, Note_on_c, 2, 64, 0
4, 28560, Note_on_c, 2, 63, 64
4, 28680, Note_on_c, 2, 63, 0
4, 28680, Note_on_c, 2, 61, 64
4, 28800, Note_on_c, 2, 61, 0
4, 28800, Note_on_c, 2, 59, 64
4, 29160, Note_on_c, 2, 59, 0
4, 29160, Note_on_c, 2, 61, 64
4, 29280, Note_on_c, 2, 61, 0
4, 29280, Note_on_c, 2, 63, 64
4, 29880, Note_on_c, 2, 63, 0
4, 29880, Note_on_c, 2, 56, 64
4, 30000, Note_on_c, 2, 56, 0
4, 30000, Note_on_c, 2, 61, 64
4, 30120, Note_on_c, 2, 61, 0
4, 30120, Note_on_c, 2, 60, 64
4, 30240, Note_on_c, 2, 60, 0
4, 30240, Note_on_c, 2, 61, 64
4, 30270, Note_on_c, 2, 61, 0
4, 30270, Note_on_c, 2, 60, 64
4, 30300, Note_on_c, 2, 60, 0
4, 30300, Note_on_c, 2, 61, 64
4, 31320, Note_on_c, 2, 61, 0
4, 31320, Note_on_c, 2, 60, 64
4, 31440, Note_on_c, 2, 60, 0
4, 31440, Note_on_c, 2, 61, 64
4, 31560, Note_on_c, 2, 61, 0
4, 31560, Note_on_c, 2, 58, 64
4, 31680, Note_on_c, 2, 58, 0
4, 31680, Note_on_c, 2, 60, 64
4, 31710, Note_on_c, 2, 60, 0
4, 31710, Note_on_c, 2, 58, 64
4, 31740, Note_on_c, 2, 58, 0
4, 31740, Note_on_c, 2, 60, 64
4, 32040, Note_on_c, 2, 60, 0
4, 32040, Note_on_c, 2, 61, 64
4, 32160, Note_on_c, 2, 61, 0
4, 32160, Note_on_c, 2, 63, 64
4, 32400, Note_on_c, 2, 63, 0
4, 32400, Note_on_c, 2, 61, 64
4, 33120, Note_on_c, 2, 61, 0
4, 33120, Note_on_c, 2, 57, 64
4, 33480, Note_on_c, 2, 57, 0
4, 33480, Note_on_c, 2, 59, 64
4, 33600, Note_on_c, 2, 59, 0
4, 33600, Note_on_c, 2, 61, 64
4, 33840, Note_on_c, 2, 61, 0
4, 33840, Note_on_c, 2, 62, 64
4, 33870, Note_on_c, 2, 62, 0
4, 33870, Note_on_c, 2, 61, 64
4, 33900, Note_on_c, 2, 61, 0
4, 33900, Note_on_c, 2, 62, 64
4, 34560, Note_on_c, 2, 62, 0
4, 34560, Note_on_c, 2, 60, 64
4, 35280, Note_on_c, 2, 60, 0
4, 35280, Note_on_c, 2, 66, 64
4, 35520, Note_on_c, 2, 66, 0
4, 48240, Note_on_c, 2, 56, 64
4, 49075, Note_on_c, 2, 56, 0
4, 49080, Note_on_c, 2, 56, 64
4, 49200, Note_on_c, 2, 56, 0
4, 49200, Note_on_c, 2, 55, 64
4, 49320, Note_on_c, 2, 55, 0
4, 49320, Note_on_c, 2, 56, 64
4, 49440, Note_on_c, 2, 56, 0
4, 49440, Note_on_c, 2, 58, 64
4, 49560, Note_on_c, 2, 58, 0
4, 49560, Note_on_c, 2, 51, 64
4, 49680, Note_on_c, 2, 51, 0
4, 49680, Note_on_c, 2, 52, 64
4, 50520, Note_on_c, 2, 52, 0
4, 50520, Note_on_c, 2, 51, 64
4, 50640, Note_on_c, 2, 49, 64
4, 50655, Note_on_c, 2, 51, 0
4, 50760, Note_on_c, 2, 47, 64
4, 50761, Note_on_c, 2, 49, 0
4, 50880, Note_on_c, 2, 49, 64
4, 50898, Note_on_c, 2, 47, 0
4, 51000, Note_on_c, 2, 52, 64
4, 51006, Note_on_c, 2, 49, 0
4, 51120, Note_on_c, 2, 55, 64
4, 51125, Note_on_c, 2, 52, 0
4, 51840, Note_on_c, 2, 55, 0
4, 54600, Note_on_c, 2, 56, 64
4, 54960, Note_on_c, 2, 56, 0
4, 54960, Note_on_c, 2, 54, 64
4, 55200, Note_on_c, 2, 54, 0
4, 55200, Note_on_c, 2, 57, 64
4, 55440, Note_on_c, 2, 57, 0
4, 55440, Note_on_c, 2, 56, 64
4, 56160, Note_on_c, 2, 56, 0
4, 56160, End_track
5, 0, Start_track
5, 0, Title_t, "LH L"
5, 0, Program_c, 3, 0
5, 0, Note_on_c, 3, 49, 64
5, 2880, Note_on_c, 3, 49, 0
5, 2880, Note_on_c, 3, 48, 64
5, 4080, Note_on_c, 3, 48, 0
5, 4080, Note_on_c, 3, 49, 64
5, 4320, Note_on_c, 3, 49, 0
5, 4320, Note_on_c, 3, 56, 64
5, 6480, Note_on_c, 3, 56, 0
5, 6480, Note_on_c, 3, 54, 64
5, 7920, Note_on_c, 3, 54, 0
5, 7920, Note_on_c, 3, 52, 64
5, 9360, Note_on_c, 3, 52, 0
5, 9360, Note_on_c, 3, 51, 64
5, 10080, Note_on_c, 3, 51, 0
5, 10080, Note_on_c, 3, 52, 64
5, 11520, Note_on_c, 3, 52, 0
5, 11520, Note_on_c, 3, 51, 64
5, 12240, Note_on_c, 3, 51, 0
5, 12240, Note_on_c, 3, 56, 64
5, 12600, Note_on_c, 3, 56, 0
5, 12600, Note_on_c, 3, 54, 64
5, 12720, Note_on_c, 3, 54, 0
5, 12720, Note_on_c, 3, 56, 64
5, 12960, Note_on_c, 3, 56, 0
5, 12960, Note_on_c, 3, 49, 64
5, 14040, Note_on_c, 3, 49, 0
5, 14040, Note_on_c, 3, 51, 64
5, 14160, Note_on_c, 3, 51, 0
5, 14160, Note_on_c, 3, 52, 64
5, 14400, Note_on_c, 3, 52, 0
5, 14400, Note_on_c, 3, 46, 64
5, 14520, Note_on_c, 3, 46, 0
5, 14520, Note_on_c, 3, 51, 64
5, 14640, Note_on_c, 3, 51, 0
5, 14640, Note_on_c, 3, 49, 64
5, 14760, Note_on_c, 3, 49, 0
5, 14760, Note_on_c, 3, 47, 64
5, 14880, Note_on_c, 3, 47, 0
5, 14880, Note_on_c, 3, 49, 64
5, 15000, Note_on_c, 3, 49, 0
5, 15000, Note_on_c, 3, 46, 64
5, 15120, Note_on_c, 3, 46, 0
5, 15120, Note_on_c, 3, 43, 64
5, 15240, Note_on_c, 3, 43, 0
5, 15240, Note_on_c, 3, 47, 64
5, 15360, Note_on_c, 3, 47, 0
5, 15360, Note_on_c, 3, 46, 64
5, 15480, Note_on_c, 3, 46, 0
5, 15480, Note_on_c, 3, 44, 64
5, 15600, Note_on_c, 3, 44, 0
5, 15600, Note_on_c, 3, 46, 64
5, 15720, Note_on_c, 3, 46, 0
5, 15720, Note_on_c, 3, 43, 64
5, 15840, Note_on_c, 3, 43, 0
5, 15840, Note_on_c, 3, 37, 64
5, 16680, Note_on_c, 3, 37, 0
5, 16680, Note_on_c, 3, 49, 64
5, 16800, Note_on_c, 3, 49, 0
5, 16800, Note_on_c, 3, 47, 64
5, 16920, Note_on_c, 3, 47, 0
5, 16920, Note_on_c, 3, 46, 64
5, 17040, Note_on_c, 3, 46, 0
5, 17040, Note_on_c, 3, 47, 64
5, 17160, Note_on_c, 3, 47, 0
5, 17160, Note_on_c, 3, 44, 64
5, 17280, Note_on_c, 3, 44, 0
5, 17280, Note_on_c, 3, 52, 64
5, 17310, Note_on_c, 3, 52, 0
5, 17310, Note_on_c, 3, 51, 64
5, 17340, Note_on_c, 3, 51, 0
5, 17340, Note_on_c, 3, 52, 64
5, 17640, Note_on_c, 3, 52, 0
5, 17640, Note_on_c, 3, 51, 64
5, 17760, Note_on_c, 3, 51, 0
5, 17760, Note_on_c, 3, 49, 64
5, 18000, Note_on_c, 3, 49, 0
5, 18480, Note_on_c, 3, 39, 64
5, 18720, Note_on_c, 3, 39, 0
5, 18720, Note_on_c, 3, 44, 64
5, 20160, Note_on_c, 3, 44, 0
5, 20160, Note_on_c, 3, 49, 64
5, 20280, Note_on_c, 3, 49, 0
5, 20280, Note_on_c, 3, 51, 64
5, 20400, Note_on_c, 3, 51, 0
5, 20400, Note_on_c, 3, 49, 64
5, 20520, Note_on_c, 3, 49, 0
5, 20520, Note_on_c, 3, 47, 64
5, 20640, Note_on_c, 3, 47, 0
5, 20640, Note_on_c, 3, 49, 64
5, 20760, Note_on_c, 3, 49, 0
5, 20760, Note_on_c, 3, 46, 64
5, 21600, Note_on_c, 3, 46, 0
5, 21600, Note_on_c, 3, 59, 64
5, 21630, Note_on_c, 3, 59, 0
5, 21630, Note_on_c, 3, 58, 64
5, 21660, Note_on_c, 3, 58, 0
5, 21660, Note_on_c, 3, 59, 64
5, 22435, Note_on_c, 3, 59, 0
5, 22440, Note_on_c, 3, 59, 64
5, 22556, Note_on_c, 3, 59, 0
5, 22560, Note_on_c, 3, 57, 64
5, 22680, Note_on_c, 3, 57, 0
5, 22680, Note_on_c, 3, 56, 64
5, 22800, Note_on_c, 3, 56, 0
5, 22800, Note_on_c, 3, 57, 64
5, 22920, Note_on_c, 3, 57, 0
5, 22920, Note_on_c, 3, 54, 64
5, 23040, Note_on_c, 3, 54, 0
5, 23040, Note_on_c, 3, 51, 64
5, 23160, Note_on_c, 3, 51, 0
5, 23160, Note_on_c, 3, 52, 64
5, 23280, Note_on_c, 3, 52, 0
5, 23280, Note_on_c, 3, 51, 64
5, 23400, Note_on_c, 3, 51, 0
5, 23400, Note_on_c, 3, 49, 64
5, 23520, Note_on_c, 3, 49, 0
5, 23640, Note_on_c, 3, 48, 64
5, 23760, Note_on_c, 3, 48, 0
5, 23760, Note_on_c, 3, 44, 64
5, 24120, Note_on_c, 3, 44, 0
5, 24120, Note_on_c, 3, 46, 64
5, 24240, Note_on_c, 3, 46, 0
5, 24240, Note_on_c, 3, 48, 64
5, 24480, Note_on_c, 3, 48, 0
5, 24480, Note_on_c, 3, 49, 64
5, 25320, Note_on_c, 3, 49, 0
5, 25320, Note_on_c, 3, 51, 64
5, 25440, Note_on_c, 3, 51, 0
5, 25440, Note_on_c, 3, 52, 64
5, 25560, Note_on_c, 3, 52, 0
5, 25560, Note_on_c, 3, 54, 64
5, 25680, Note_on_c, 3, 54, 0
5, 25680, Note_on_c, 3, 56, 64
5, 25800, Note_on_c, 3, 56, 0
5, 25800, Note_on_c, 3, 57, 64
5, 25920, Note_on_c, 3, 57, 0
5, 25920, Note_on_c, 3, 59, 64
5, 26510, Note_on_c, 3, 59, 0
5, 26520, Note_on_c, 3, 59, 64
5, 26640, Note_on_c, 3, 59, 0
5, 26640, Note_on_c, 3, 53, 64
5, 27360, Note_on_c, 3, 53, 0
5, 27360, Note_on_c, 3, 54, 64
5, 28800, Note_on_c, 3, 54, 0
5, 28800, Note_on_c, 3, 56, 64
5, 29160, Note_on_c, 3, 56, 0
5, 29160, Note_on_c, 3, 57, 64
5, 29280, Note_on_c, 3, 57, 0
5, 29280, Note_on_c, 3, 59, 64
5, 29520, Note_on_c, 3, 59, 0
5, 29520, Note_on_c, 3, 52, 64
5, 30600, Note_on_c, 3, 52, 0
5, 30600, Note_on_c, 3, 51, 64
5, 30720, Note_on_c, 3, 51, 0
5, 30720, Note_on_c, 3, 49, 64
5, 30960, Note_on_c, 3, 49, 0
5, 30960, Note_on_c, 3, 51, 64
5, 31680, Note_on_c, 3, 51, 0
5, 31680, Note_on_c, 3, 56, 64
5, 32040, Note_on_c, 3, 56, 0
5, 32040, Note_on_c, 3, 58, 64
5, 32160, Note_on_c, 3, 58, 0
5, 32160, Note_on_c, 3, 60, 64
5, 32405, Note_on_c, 3, 60, 0
5, 32760, Note_on_c, 3, 59, 64
5, 32880, Note_on_c, 3, 59, 0
5, 32880, Note_on_c, 3, 57, 64
5, 33000, Note_on_c, 3, 57, 0
5, 33000, Note_on_c, 3, 56, 64
5, 33120, Note_on_c, 3, 56, 0
5, 33120, Note_on_c, 3, 54, 64
5, 34200, Note_on_c, 3, 54, 0
5, 34200, Note_on_c, 3, 52, 64
5, 34320, Note_on_c, 3, 52, 0
5, 34320, Note_on_c, 3, 54, 64
5, 34560, Note_on_c, 3, 54, 0
5, 34560, Note_on_c, 3, 51, 64
5, 34920, Note_on_c, 3, 51, 0
5, 34920, Note_on_c, 3, 54, 64
5, 35040, Note_on_c, 3, 54, 0
5, 35040, Note_on_c, 3, 57, 64
5, 35400, Note_on_c, 3, 57, 0
5, 35400, Note_on_c, 3, 56, 64
5, 35520, Note_on_c, 3, 56, 0
5, 35520, Note_on_c, 3, 54, 64
5, 35640, Note_on_c, 3, 54, 0
5, 35640, Note_on_c, 3, 52, 64
5, 35760, Note_on_c, 3, 52, 0
5, 35760, Note_on_c, 3, 54, 64
5, 35880, Note_on_c, 3, 54, 0
5, 35880, Note_on_c, 3, 51, 64
5, 36000, Note_on_c, 3, 51, 0
5, 36000, Note_on_c, 3, 52, 64
5, 36120, Note_on_c, 3, 52, 0
5, 36120, Note_on_c, 3, 51, 64
5, 36240, Note_on_c, 3, 51, 0
5, 36240, Note_on_c, 3, 49, 64
5, 36360, Note_on_c, 3, 49, 0
5, 36360, Note_on_c, 3, 47, 64
5, 36480, Note_on_c, 3, 47, 0
5, 36480, Note_on_c, 3, 49, 64
5, 36600, Note_on_c, 3, 49, 0
5, 36600, Note_on_c, 3, 45, 64
5, 36720, Note_on_c, 3, 45, 0
5, 36720, Note_on_c, 3, 57, 64
5, 36750, Note_on_c, 3, 57, 0
5, 36750, Note_on_c, 3, 56, 64
5, 36780, Note_on_c, 3, 56, 0
5, 36780, Note_on_c, 3, 57, 64
5, 37560, Note_on_c, 3, 57, 0
5, 37560, Note_on_c, 3, 56, 64
5, 37680, Note_on_c, 3, 54, 64
5, 37684, Note_on_c, 3, 56, 0
5, 37800, Note_on_c, 3, 52, 64
5, 37807, Note_on_c, 3, 54, 0
5, 37920, Note_on_c, 3, 54, 64
5, 37922, Note_on_c, 3, 52, 0
5, 38040, Note_on_c, 3, 51, 64
5, 38044, Note_on_c, 3, 54, 0
5, 38160, Note_on_c, 3, 60, 64
5, 38170, Note_on_c, 3, 51, 0
5, 38190, Note_on_c, 3, 60, 0
5, 38190, Note_on_c, 3, 58, 64
5, 38220, Note_on_c, 3, 58, 0
5, 38220, Note_on_c, 3, 60, 64
5, 38880, Note_on_c, 3, 60, 0
5, 38880, Note_on_c, 3, 61, 64
5, 39000, Note_on_c, 3, 61, 0
5, 39000, Note_on_c, 3, 59, 64
5, 39120, Note_on_c, 3, 59, 0
5, 39120, Note_on_c, 3, 57, 64
5, 39240, Note_on_c, 3, 57, 0
5, 39240, Note_on_c, 3, 56, 64
5, 39360, Note_on_c, 3, 56, 0
5, 39360, Note_on_c, 3, 57, 64
5, 39480, Note_on_c, 3, 57, 0
5, 39480, Note_on_c, 3, 54, 64
5, 39600, Note_on_c, 3, 54, 0
5, 39600, Note_on_c, 3, 66, 64
5, 40440, Note_on_c, 3, 66, 0
5, 40440, Note_on_c, 3, 64, 64
5, 40560, Note_on_c, 3, 64, 0
5, 40560, Note_on_c, 3, 63, 64
5, 40680, Note_on_c, 3, 63, 0
5, 40680, Note_on_c, 3, 61, 64
5, 40800, Note_on_c, 3, 61, 0
5, 40800, Note_on_c, 3, 60, 64
5, 40920, Note_on_c, 3, 60, 0
5, 40920, Note_on_c, 3, 58, 64
5, 41040, Note_on_c, 3, 58, 0
5, 41040, Note_on_c, 3, 56, 64
5, 41160, Note_on_c, 3, 56, 0
5, 41160, Note_on_c, 3, 54, 64
5, 41280, Note_on_c, 3, 54, 0
5, 41280, Note_on_c, 3, 52, 64
5, 41400, Note_on_c, 3, 52, 0
5, 41400, Note_on_c, 3, 51, 64
5, 41520, Note_on_c, 3, 51, 0
5, 41520, Note_on_c, 3, 49, 64
5, 41640, Note_on_c, 3, 49, 0
5, 41640, Note_on_c, 3, 47, 64
5, 41760, Note_on_c, 3, 47, 0
5, 41760, Note_on_c, 3, 45, 64
5, 42120, Note_on_c, 3, 45, 0
5, 42120, Note_on_c, 3, 47, 64
5, 42240, Note_on_c, 3, 47, 0
5, 42240, Note_on_c, 3, 44, 64
5, 42480, Note_on_c, 3, 44, 0
5, 42480, Note_on_c, 3, 42, 64
5, 42840, Note_on_c, 3, 42, 0
5, 42840, Note_on_c, 3, 44, 64
5, 42960, Note_on_c, 3, 44, 0
5, 42960, Note_on_c, 3, 40, 64
5, 43200, Note_on_c, 3, 40, 0
5, 43200, Note_on_c, 3, 39, 64
5, 43560, Note_on_c, 3, 39, 0
5, 43560, Note_on_c, 3, 40, 64
5, 43680, Note_on_c, 3, 40, 0
5, 43680, Note_on_c, 3, 42, 64
5, 43920, Note_on_c, 3, 42, 0
5, 43920, Note_on_c, 3, 36, 64
5, 44280, Note_on_c, 3, 36, 0
5, 44280, Note_on_c, 3, 39, 64
5, 44400, Note_on_c, 3, 39, 0
5, 44400, Note_on_c, 3, 42, 64
5, 44640, Note_on_c, 3, 42, 0
5, 44640, Note_on_c, 3, 40, 64
5, 44760, Note_on_c, 3, 40, 0
5, 44760, Note_on_c, 3, 52, 64
5, 44880, Note_on_c, 3, 52, 0
5, 44880, Note_on_c, 3, 54, 64
5, 45000, Note_on_c, 3, 54, 0
5, 45000, Note_on_c, 3, 56, 64
5, 45120, Note_on_c, 3, 56, 0
5, 45120, Note_on_c, 3, 57, 64
5, 45240, Note_on_c, 3, 57, 0
5, 45240, Note_on_c, 3, 54, 64
5, 45360, Note_on_c, 3, 54, 0
5, 45360, Note_on_c, 3, 51, 64
5, 45480, Note_on_c, 3, 51, 0
5, 45480, Note_on_c, 3, 52, 64
5, 45600, Note_on_c, 3, 52, 0
5, 45600, Note_on_c, 3, 54, 64
5, 45720, Note_on_c, 3, 54, 0
5, 45720, Note_on_c, 3, 51, 64
5, 45840, Note_on_c, 3, 51, 0
5, 45840, Note_on_c, 3, 48, 64
5, 45960, Note_on_c, 3, 48, 0
5, 45960, Note_on_c, 3, 49, 64
5, 46080, Note_on_c, 3, 49, 0
5, 46080, Note_on_c, 3, 51, 64
5, 46200, Note_on_c, 3, 51, 0
5, 46200, Note_on_c, 3, 48, 64
5, 46320, Note_on_c, 3, 48, 0
5, 46320, Note_on_c, 3, 44, 64
5, 46440, Note_on_c, 3, 44, 0
5, 46440, Note_on_c, 3, 46, 64
5, 46560, Note_on_c, 3, 46, 0
5, 46560, Note_on_c, 3, 48, 64
5, 46680, Note_on_c, 3, 48, 0
5, 46680, Note_on_c, 3, 49, 64
5, 46800, Note_on_c, 3, 49, 0
5, 46800, Note_on_c, 3, 51, 64
5, 46920, Note_on_c, 3, 51, 0
5, 46920, Note_on_c, 3, 52, 64
5, 47040, Note_on_c, 3, 52, 0
5, 47040, Note_on_c, 3, 54, 64
5, 47160, Note_on_c, 3, 54, 0
5, 47160, Note_on_c, 3, 56, 64
5, 47280, Note_on_c, 3, 56, 0
5, 47280, Note_on_c, 3, 58, 64
5, 47400, Note_on_c, 3, 58, 0
5, 47400, Note_on_c, 3, 60, 64
5, 47520, Note_on_c, 3, 60, 0
5, 47520, Note_on_c, 3, 61, 64
5, 47640, Note_on_c, 3, 61, 0
5, 47640, Note_on_c, 3, 59, 64
5, 47760, Note_on_c, 3, 59, 0
5, 47760, Note_on_c, 3, 57, 64
5, 47880, Note_on_c, 3, 57, 0
5, 47880, Note_on_c, 3, 56, 64
5, 48000, Note_on_c, 3, 56, 0
5, 48000, Note_on_c, 3, 57, 64
5, 48120, Note_on_c, 3, 57, 0
5, 48120, Note_on_c, 3, 54, 64
5, 48240, Note_on_c, 3, 54, 0
5, 48720, Note_on_c, 3, 44, 64
5, 48960, Note_on_c, 3, 44, 0
5, 48960, Note_on_c, 3, 46, 64
5, 50040, Note_on_c, 3, 46, 0
5, 50040, Note_on_c, 3, 47, 64
5, 50160, Note_on_c, 3, 47, 0
5, 50160, Note_on_c, 3, 49, 64
5, 50400, Note_on_c, 3, 49, 0
5, 50400, Note_on_c, 3, 43, 64
5, 51480, Note_on_c, 3, 43, 0
5, 51480, Note_on_c, 3, 44, 64
5, 51600, Note_on_c, 3, 44, 0
5, 51600, Note_on_c, 3, 46, 64
5, 51840, Note_on_c, 3, 46, 0
5, 51840, Note_on_c, 3, 39, 64
5, 52320, Note_on_c, 3, 39, 0
5, 53400, Note_on_c, 3, 63, 64
5, 53520, Note_on_c, 3, 63, 0
5, 53520, Note_on_c, 3, 61, 64
5, 53640, Note_on_c, 3, 61, 0
5, 53640, Note_on_c, 3, 59, 64
5, 53760, Note_on_c, 3, 59, 0
5, 53760, Note_on_c, 3, 57, 64
5, 53880, Note_on_c, 3, 57, 0
5, 53880, Note_on_c, 3, 54, 64
5, 54000, Note_on_c, 3, 54, 0
5, 54000, Note_on_c, 3, 56, 64
5, 54120, Note_on_c, 3, 56, 0
5, 54120, Note_on_c, 3, 51, 64
5, 54240, Note_on_c, 3, 51, 0
5, 54240, Note_on_c, 3, 52, 64
5, 54360, Note_on_c, 3, 52, 0
5, 54360, Note_on_c, 3, 49, 64
5, 54480, Note_on_c, 3, 49, 0
5, 54480, Note_on_c, 3, 44, 64
5, 54720, Note_on_c, 3, 44, 0
5, 54720, Note_on_c, 3, 49, 64
5, 56160, Note_on_c, 3, 49, 0
5, 56160, End_track
6, 0, Start_track
6, 0, End_track
0, 0, End_of_file
