0, 0, Header, 1, 9, 1024
1, 0, Start_track
1, 0, Time_signature, 12, 3, 36, 8
1, 0, Key_signature, 1, "major"
1, 0, Tempo, 582524
1, 92161, End_track
2, 0, Start_track
2, 0, Title_t, "Instrument 1"
2, 4608, Note_on_c, 0, 79, 96
2, 6144, Note_off_c, 0, 79, 0
2, 6144, Note_on_c, 0, 78, 96
2, 7680, Note_off_c, 0, 78, 0
2, 7680, Note_on_c, 0, 76, 96
2, 9216, Note_off_c, 0, 76, 0
2, 9216, Note_on_c, 0, 78, 96
2, 10752, Note_off_c, 0, 78, 0
2, 10752, Note_on_c, 0, 74, 96
2, 12288, Note_off_c, 0, 74, 0
2, 12288, Note_on_c, 0, 76, 96
2, 13824, Note_off_c, 0, 76, 0
2, 13824, Note_on_c, 0, 78, 96
2, 15360, Note_off_c, 0, 78, 0
2, 15360, Note_on_c, 0, 79, 96
2, 16896, Note_off_c, 0, 79, 0
2, 26112, Note_on_c, 0, 79, 96
2, 27648, Note_off_c, 0, 79, 0
2, 27648, Note_on_c, 0, 79, 96
2, 29184, Note_off_c, 0, 79, 0
2, 29184, Note_on_c, 0, 74, 96
2, 30720, Note_off_c, 0, 74, 0
2, 30720, Note_on_c, 0, 74, 96
2, 31744, Note_off_c, 0, 74, 0
2, 31744, Note_on_c, 0, 72, 96
2, 32256, Note_off_c, 0, 72, 0
2, 32256, Note_on_c, 0, 71, 96
2, 33280, Note_off_c, 0, 71, 0
2, 33280, Note_on_c, 0, 72, 96
2, 33792, Note_off_c, 0, 72, 0
2, 33792, Note_on_c, 0, 74, 96
2, 35328, Note_off_c, 0, 74, 0
2, 35328, Note_on_c, 0, 72, 96
2, 36864, Note_off_c, 0, 72, 0
2, 36864, Note_on_c, 0, 71, 96
2, 38400, Note_off_c, 0, 71, 0
2, 47616, Note_on_c, 0, 71, 96
2, 49152, Note_off_c, 0, 71, 0
2, 49152, Note_on_c, 0, 76, 96
2, 50688, Note_off_c, 0, 76, 0
2, 50688, Note_on_c, 0, 76, 96
2, 52224, Note_off_c, 0, 76, 0
2, 52224, Note_on_c, 0, 74, 96
2, 53248, Note_off_c, 0, 74, 0
2, 53248, Note_on_c, 0, 76, 96
2, 53760, Note_off_c, 0, 76, 0
2, 53760, Note_on_c, 0, 78, 96
2, 55296, Note_off_c, 0, 78, 0
2, 55296, Note_on_c, 0, 79, 96
2, 56320, Note_off_c, 0, 79, 0
2, 56320, Note_on_c, 0, 78, 96
2, 56832, Note_off_c, 0, 78, 0
2, 56832, Note_on_c, 0, 76, 96
2, 58368, Note_off_c, 0, 76, 0
2, 58368, Note_on_c, 0, 74, 96
2, 59904, Note_off_c, 0, 74, 0
2, 69120, Note_on_c, 0, 79, 96
2, 70656, Note_off_c, 0, 79, 0
2, 70656, Note_on_c, 0, 78, 96
2, 72192, Note_off_c, 0, 78, 0
2, 72192, Note_on_c, 0, 76, 96
2, 73728, Note_off_c, 0, 76, 0
2, 73728, Note_on_c, 0, 74, 96
2, 75264, Note_off_c, 0, 74, 0
2, 75264, Note_on_c, 0, 76, 96
2, 76288, Note_off_c, 0, 76, 0
2, 76288, Note_on_c, 0, 74, 96
2, 76800, Note_off_c, 0, 74, 0
2, 76800, Note_on_c, 0, 72, 96
2, 77824, Note_off_c, 0, 72, 0
2, 77824, Note_on_c, 0, 71, 96
2, 78336, Note_off_c, 0, 71, 0
2, 78336, Note_on_c, 0, 69, 96
2, 79872, Note_off_c, 0, 69, 0
2, 79872, Note_on_c, 0, 67, 96
2, 82944, Note_off_c, 0, 67, 0
2, 92161, End_track
3, 0, Start_track
3, 0, Title_t, "Instrument 2"
3, 4608, Note_on_c, 1, 71, 96
3, 6144, Note_off_c, 1, 71, 0
3, 6144, Note_on_c, 1, 69, 96
3, 7680, Note_off_c, 1, 69, 0
3, 7680, Note_on_c, 1, 71, 96
3, 8704, Note_off_c, 1, 71, 0
3, 8704, Note_on_c, 1, 69, 96
3, 9216, Note_off_c, 1, 69, 0
3, 9216, Note_on_c, 1, 69, 96
3, 10752, Note_off_c, 1, 69, 0
3, 10752, Note_on_c, 1, 67, 96
3, 12288, Note_off_c, 1, 67, 0
3, 12288, Note_on_c, 1, 67, 96
3, 13312, Note_off_c, 1, 67, 0
3, 13312, Note_on_c, 1, 72, 96
3, 13824, Note_off_c, 1, 72, 0
3, 13824, Note_on_c, 1, 71, 96
3, 14848, Note_off_c, 1, 71, 0
3, 14848, Note_on_c, 1, 69, 96
3, 15360, Note_off_c, 1, 69, 0
3, 15360, Note_on_c, 1, 71, 96
3, 16896, Note_off_c, 1, 71, 0
3, 26112, Note_on_c, 1, 71, 96
3, 27648, Note_off_c, 1, 71, 0
3, 27648, Note_on_c, 1, 71, 96
3, 29184, Note_off_c, 1, 71, 0
3, 29184, Note_on_c, 1, 71, 96
3, 30720, Note_off_c, 1, 71, 0
3, 30720, Note_on_c, 1, 69, 96
3, 32256, Note_off_c, 1, 69, 0
3, 32256, Note_on_c, 1, 67, 96
3, 33792, Note_off_c, 1, 67, 0
3, 33792, Note_on_c, 1, 69, 96
3, 34816, Note_off_c, 1, 69, 0
3, 34816, Note_on_c, 1, 64, 96
3, 35328, Note_off_c, 1, 64, 0
3, 35328, Note_on_c, 1, 64, 96
3, 36096, Note_off_c, 1, 64, 0
3, 36096, Note_on_c, 1, 67, 96
3, 36352, Note_off_c, 1, 67, 0
3, 36352, Note_on_c, 1, 66, 96
3, 36864, Note_off_c, 1, 66, 0
3, 36864, Note_on_c, 1, 67, 96
3, 38400, Note_off_c, 1, 67, 0
3, 47616, Note_on_c, 1, 67, 96
3, 49152, Note_off_c, 1, 67, 0
3, 49152, Note_on_c, 1, 67, 96
3, 50688, Note_off_c, 1, 67, 0
3, 50688, Note_on_c, 1, 67, 96
3, 51712, Note_off_c, 1, 67, 0
3, 51712, Note_on_c, 1, 69, 96
3, 52224, Note_off_c, 1, 69, 0
3, 52224, Note_on_c, 1, 71, 96
3, 53248, Note_off_c, 1, 71, 0
3, 53248, Note_on_c, 1, 69, 96
3, 53760, Note_off_c, 1, 69, 0
3, 53760, Note_on_c, 1, 69, 96
3, 54784, Note_off_c, 1, 69, 0
3, 54784, Note_on_c, 1, 71, 96
3, 55296, Note_off_c, 1, 71, 0
3, 55296, Note_on_c, 1, 71, 96
3, 56320, Note_off_c, 1, 71, 0
3, 56320, Note_on_c, 1, 69, 96
3, 56832, Note_off_c, 1, 69, 0
3, 56832, Note_on_c, 1, 71, 96
3, 57856, Note_off_c, 1, 71, 0
3, 57856, Note_on_c, 1, 69, 96
3, 58368, Note_off_c, 1, 69, 0
3, 58368, Note_on_c, 1, 69, 96
3, 59904, Note_off_c, 1, 69, 0
3, 69120, Note_on_c, 1, 71, 96
3, 70656, Note_off_c, 1, 71, 0
3, 70656, Note_on_c, 1, 72, 96
3, 71680, Note_off_c, 1, 72, 0
3, 71680, Note_on_c, 1, 71, 96
3, 72192, Note_off_c, 1, 71, 0
3, 72192, Note_on_c, 1, 71, 96
3, 73216, Note_off_c, 1, 71, 0
3, 73216, Note_on_c, 1, 69, 96
3, 73728, Note_off_c, 1, 69, 0
3, 73728, Note_on_c, 1, 69, 96
3, 74752, Note_off_c, 1, 69, 0
3, 74752, Note_on_c, 1, 67, 96
3, 75264, Note_off_c, 1, 67, 0
3, 75264, Note_on_c, 1, 67, 96
3, 76800, Note_off_c, 1, 67, 0
3, 76800, Note_on_c, 1, 67, 96
3, 78336, Note_off_c, 1, 67, 0
3, 78336, Note_on_c, 1, 67, 96
3, 79360, Note_off_c, 1, 67, 0
3, 79360, Note_on_c, 1, 66, 96
3, 79872, Note_off_c, 1, 66, 0
3, 79872, Note_on_c, 1, 62, 96
3, 82944, Note_off_c, 1, 62, 0
3, 92161, End_track
4, 0, Start_track
4, 0, Title_t, "Instrument 3"
4, 4608, Note_on_c, 2, 62, 96
4, 6144, Note_off_c, 2, 62, 0
4, 6144, Note_on_c, 2, 62, 96
4, 7680, Note_off_c, 2, 62, 0
4, 7680, Note_on_c, 2, 62, 96
4, 8704, Note_off_c, 2, 62, 0
4, 8704, Note_on_c, 2, 61, 96
4, 9216, Note_off_c, 2, 61, 0
4, 9216, Note_on_c, 2, 62, 96
4, 10240, Note_off_c, 2, 62, 0
4, 10240, Note_on_c, 2, 60, 96
4, 10752, Note_off_c, 2, 60, 0
4, 10752, Note_on_c, 2, 60, 96
4, 11776, Note_off_c, 2, 60, 0
4, 11776, Note_on_c, 2, 59, 96
4, 12288, Note_off_c, 2, 59, 0
4, 12288, Note_on_c, 2, 59, 96
4, 13312, Note_off_c, 2, 59, 0
4, 13312, Note_on_c, 2, 57, 96
4, 13824, Note_off_c, 2, 57, 0
4, 13824, Note_on_c, 2, 62, 96
4, 15360, Note_off_c, 2, 62, 0
4, 15360, Note_on_c, 2, 62, 96
4, 16896, Note_off_c, 2, 62, 0
4, 26112, Note_on_c, 2, 62, 96
4, 27648, Note_off_c, 2, 62, 0
4, 27648, Note_on_c, 2, 64, 96
4, 29184, Note_off_c, 2, 64, 0
4, 29184, Note_on_c, 2, 66, 96
4, 30208, Note_off_c, 2, 66, 0
4, 30208, Note_on_c, 2, 67, 96
4, 30720, Note_off_c, 2, 67, 0
4, 30720, Note_on_c, 2, 62, 96
4, 32256, Note_off_c, 2, 62, 0
4, 32256, Note_on_c, 2, 62, 96
4, 33280, Note_off_c, 2, 62, 0
4, 33280, Note_on_c, 2, 64, 96
4, 33792, Note_off_c, 2, 64, 0
4, 33792, Note_on_c, 2, 57, 96
4, 34816, Note_off_c, 2, 57, 0
4, 34816, Note_on_c, 2, 59, 96
4, 35328, Note_off_c, 2, 59, 0
4, 35328, Note_on_c, 2, 60, 96
4, 36096, Note_off_c, 2, 60, 0
4, 36096, Note_on_c, 2, 64, 96
4, 36352, Note_off_c, 2, 64, 0
4, 36352, Note_on_c, 2, 63, 96
4, 36864, Note_off_c, 2, 63, 0
4, 36864, Note_on_c, 2, 64, 96
4, 38400, Note_off_c, 2, 64, 0
4, 47616, Note_on_c, 2, 64, 96
4, 49152, Note_off_c, 2, 64, 0
4, 49152, Note_on_c, 2, 64, 96
4, 50176, Note_off_c, 2, 64, 0
4, 50176, Note_on_c, 2, 62, 96
4, 50688, Note_off_c, 2, 62, 0
4, 50688, Note_on_c, 2, 60, 96
4, 52224, Note_off_c, 2, 60, 0
4, 52224, Note_on_c, 2, 59, 96
4, 53248, Note_off_c, 2, 59, 0
4, 53248, Note_on_c, 2, 61, 96
4, 53760, Note_off_c, 2, 61, 0
4, 53760, Note_on_c, 2, 62, 96
4, 55296, Note_off_c, 2, 62, 0
4, 55296, Note_on_c, 2, 55, 96
4, 56320, Note_off_c, 2, 55, 0
4, 56320, Note_on_c, 2, 62, 96
4, 56832, Note_off_c, 2, 62, 0
4, 56832, Note_on_c, 2, 62, 96
4, 57856, Note_off_c, 2, 62, 0
4, 57856, Note_on_c, 2, 61, 96
4, 58368, Note_off_c, 2, 61, 0
4, 58368, Note_on_c, 2, 66, 96
4, 59904, Note_off_c, 2, 66, 0
4, 69120, Note_on_c, 2, 64, 96
4, 70656, Note_off_c, 2, 64, 0
4, 70656, Note_on_c, 2, 64, 96
4, 71680, Note_off_c, 2, 64, 0
4, 71680, Note_on_c, 2, 62, 96
4, 72192, Note_off_c, 2, 62, 0
4, 72192, Note_on_c, 2, 62, 96
4, 73216, Note_off_c, 2, 62, 0
4, 73216, Note_on_c, 2, 60, 96
4, 73728, Note_off_c, 2, 60, 0
4, 73728, Note_on_c, 2, 60, 96
4, 74752, Note_off_c, 2, 60, 0
4, 74752, Note_on_c, 2, 59, 96
4, 75264, Note_off_c, 2, 59, 0
4, 75264, Note_on_c, 2, 60, 96
4, 76288, Note_off_c, 2, 60, 0
4, 76288, Note_on_c, 2, 59, 96
4, 76800, Note_off_c, 2, 59, 0
4, 76800, Note_on_c, 2, 60, 96
4, 77824, Note_off_c, 2, 60, 0
4, 77824, Note_on_c, 2, 62, 96
4, 78336, Note_off_c, 2, 62, 0
4, 78336, Note_on_c, 2, 64, 96
4, 79360, Note_off_c, 2, 64, 0
4, 79360, Note_on_c, 2, 62, 96
4, 79872, Note_off_c, 2, 62, 0
4, 79872, Note_on_c, 2, 59, 96
4, 82944, Note_off_c, 2, 59, 0
4, 92161, End_track
5, 0, Start_track
5, 0, Title_t, "Instrument 4"
5, 4608, Note_on_c, 3, 55, 96
5, 6144, Note_off_c, 3, 55, 0
5, 6144, Note_on_c, 3, 62, 96
5, 7680, Note_off_c, 3, 62, 0
5, 7680, Note_on_c, 3, 55, 96
5, 8704, Note_off_c, 3, 55, 0
5, 8704, Note_on_c, 3, 57, 96
5, 9216, Note_off_c, 3, 57, 0
5, 9216, Note_on_c, 3, 50, 96
5, 10752, Note_off_c, 3, 50, 0
5, 10752, Note_on_c, 3, 55, 96
5, 12288, Note_off_c, 3, 55, 0
5, 12288, Note_on_c, 3, 48, 96
5, 13824, Note_off_c, 3, 48, 0
5, 13824, Note_on_c, 3, 50, 96
5, 15360, Note_off_c, 3, 50, 0
5, 15360, Note_on_c, 3, 43, 96
5, 16896, Note_off_c, 3, 43, 0
5, 26112, Note_on_c, 3, 55, 96
5, 27136, Note_off_c, 3, 55, 0
5, 27136, Note_on_c, 3, 54, 96
5, 27648, Note_off_c, 3, 54, 0
5, 27648, Note_on_c, 3, 52, 96
5, 29184, Note_off_c, 3, 52, 0
5, 29184, Note_on_c, 3, 59, 96
5, 30720, Note_off_c, 3, 59, 0
5, 30720, Note_on_c, 3, 54, 96
5, 32256, Note_off_c, 3, 54, 0
5, 32256, Note_on_c, 3, 55, 96
5, 33280, Note_off_c, 3, 55, 0
5, 33280, Note_on_c, 3, 52, 96
5, 33792, Note_off_c, 3, 52, 0
5, 33792, Note_on_c, 3, 54, 96
5, 34816, Note_off_c, 3, 54, 0
5, 34816, Note_on_c, 3, 56, 96
5, 35328, Note_off_c, 3, 56, 0
5, 35328, Note_on_c, 3, 57, 96
5, 36864, Note_off_c, 3, 57, 0
5, 36864, Note_on_c, 3, 52, 96
5, 38400, Note_off_c, 3, 52, 0
5, 47616, Note_on_c, 3, 52, 96
5, 48640, Note_off_c, 3, 52, 0
5, 48640, Note_on_c, 3, 50, 96
5, 49152, Note_off_c, 3, 50, 0
5, 49152, Note_on_c, 3, 48, 96
5, 50176, Note_off_c, 3, 48, 0
5, 50176, Note_on_c, 3, 50, 96
5, 50688, Note_off_c, 3, 50, 0
5, 50688, Note_on_c, 3, 52, 96
5, 51712, Note_off_c, 3, 52, 0
5, 51712, Note_on_c, 3, 48, 96
5, 52224, Note_off_c, 3, 48, 0
5, 52224, Note_on_c, 3, 55, 96
5, 53760, Note_off_c, 3, 55, 0
5, 53760, Note_on_c, 3, 54, 96
5, 54784, Note_off_c, 3, 54, 0
5, 54784, Note_on_c, 3, 59, 96
5, 55296, Note_off_c, 3, 59, 0
5, 55296, Note_on_c, 3, 52, 96
5, 56320, Note_off_c, 3, 52, 0
5, 56320, Note_on_c, 3, 54, 96
5, 56832, Note_off_c, 3, 54, 0
5, 56832, Note_on_c, 3, 55, 96
5, 57856, Note_off_c, 3, 55, 0
5, 57856, Note_on_c, 3, 57, 96
5, 58368, Note_off_c, 3, 57, 0
5, 58368, Note_on_c, 3, 50, 96
5, 59904, Note_off_c, 3, 50, 0
5, 69120, Note_on_c, 3, 52, 96
5, 70144, Note_off_c, 3, 52, 0
5, 70144, Note_on_c, 3, 55, 96
5, 70656, Note_off_c, 3, 55, 0
5, 70656, Note_on_c, 3, 57, 96
5, 71680, Note_off_c, 3, 57, 0
5, 71680, Note_on_c, 3, 59, 96
5, 72192, Note_off_c, 3, 59, 0
5, 72192, Note_on_c, 3, 55, 96
5, 73216, Note_off_c, 3, 55, 0
5, 73216, Note_on_c, 3, 57, 96
5, 73728, Note_off_c, 3, 57, 0
5, 73728, Note_on_c, 3, 54, 96
5, 74752, Note_off_c, 3, 54, 0
5, 74752, Note_on_c, 3, 55, 96
5, 75264, Note_off_c, 3, 55, 0
5, 75264, Note_on_c, 3, 48, 96
5, 76288, Note_off_c, 3, 48, 0
5, 76288, Note_on_c, 3, 50, 96
5, 76800, Note_off_c, 3, 50, 0
5, 76800, Note_on_c, 3, 52, 96
5, 77824, Note_off_c, 3, 52, 0
5, 77824, Note_on_c, 3, 50, 96
5, 78336, Note_off_c, 3, 50, 0
5, 78336, Note_on_c, 3, 48, 96
5, 79360, Note_off_c, 3, 48, 0
5, 79360, Note_on_c, 3, 50, 96
5, 79872, Note_off_c, 3, 50, 0
5, 79872, Note_on_c, 3, 43, 96
5, 82944, Note_off_c, 3, 43, 0
5, 92161, End_track
6, 0, Start_track
6, 0, Title_t, "Instrument 5"
6, 4608, Note_on_c, 4, 43, 96
6, 5376, Note_off_c, 4, 43, 0
6, 5376, Note_on_c, 4, 47, 96
6, 5632, Note_off_c, 4, 47, 0
6, 5632, Note_on_c, 4, 50, 96
6, 6144, Note_off_c, 4, 50, 0
6, 6144, Note_on_c, 4, 50, 96
6, 6912, Note_off_c, 4, 50, 0
6, 6912, Note_on_c, 4, 49, 96
6, 7168, Note_off_c, 4, 49, 0
6, 7168, Note_on_c, 4, 50, 96
6, 7680, Note_off_c, 4, 50, 0
6, 7680, Note_on_c, 4, 43, 96
6, 8448, Note_off_c, 4, 43, 0
6, 8448, Note_on_c, 4, 40, 96
6, 8704, Note_off_c, 4, 40, 0
6, 8704, Note_on_c, 4, 45, 96
6, 9216, Note_off_c, 4, 45, 0
6, 9216, Note_on_c, 4, 38, 96
6, 9984, Note_off_c, 4, 38, 0
6, 9984, Note_on_c, 4, 40, 96
6, 10240, Note_off_c, 4, 40, 0
6, 10240, Note_on_c, 4, 42, 96
6, 10752, Note_off_c, 4, 42, 0
6, 10752, Note_on_c, 4, 43, 96
6, 11520, Note_off_c, 4, 43, 0
6, 11520, Note_on_c, 4, 42, 96
6, 11776, Note_off_c, 4, 42, 0
6, 11776, Note_on_c, 4, 43, 96
6, 12288, Note_off_c, 4, 43, 0
6, 12288, Note_on_c, 4, 36, 96
6, 13056, Note_off_c, 4, 36, 0
6, 13056, Note_on_c, 4, 35, 96
6, 13312, Note_off_c, 4, 35, 0
6, 13312, Note_on_c, 4, 36, 96
6, 13824, Note_off_c, 4, 36, 0
6, 13824, Note_on_c, 4, 38, 96
6, 14592, Note_off_c, 4, 38, 0
6, 14592, Note_on_c, 4, 36, 96
6, 14848, Note_off_c, 4, 36, 0
6, 14848, Note_on_c, 4, 38, 96
6, 15360, Note_off_c, 4, 38, 0
6, 15360, Note_on_c, 4, 31, 96
6, 16896, Note_off_c, 4, 31, 0
6, 26112, Note_on_c, 4, 31, 96
6, 26880, Note_off_c, 4, 31, 0
6, 26880, Note_on_c, 4, 35, 96
6, 27136, Note_off_c, 4, 35, 0
6, 27136, Note_on_c, 4, 40, 96
6, 27648, Note_off_c, 4, 40, 0
6, 27648, Note_on_c, 4, 40, 96
6, 28416, Note_off_c, 4, 40, 0
6, 28416, Note_on_c, 4, 38, 96
6, 28672, Note_off_c, 4, 38, 0
6, 28672, Note_on_c, 4, 40, 96
6, 29184, Note_off_c, 4, 40, 0
6, 29184, Note_on_c, 4, 35, 96
6, 29952, Note_off_c, 4, 35, 0
6, 29952, Note_on_c, 4, 38, 96
6, 30208, Note_off_c, 4, 38, 0
6, 30208, Note_on_c, 4, 42, 96
6, 30720, Note_off_c, 4, 42, 0
6, 30720, Note_on_c, 4, 42, 96
6, 31488, Note_off_c, 4, 42, 0
6, 31488, Note_on_c, 4, 40, 96
6, 31744, Note_off_c, 4, 40, 0
6, 31744, Note_on_c, 4, 42, 96
6, 32256, Note_off_c, 4, 42, 0
6, 32256, Note_on_c, 4, 43, 96
6, 33024, Note_off_c, 4, 43, 0
6, 33024, Note_on_c, 4, 42, 96
6, 33280, Note_off_c, 4, 42, 0
6, 33280, Note_on_c, 4, 40, 96
6, 33792, Note_off_c, 4, 40, 0
6, 33792, Note_on_c, 4, 42, 96
6, 34560, Note_off_c, 4, 42, 0
6, 34560, Note_on_c, 4, 45, 96
6, 34816, Note_off_c, 4, 45, 0
6, 34816, Note_on_c, 4, 44, 96
6, 35328, Note_off_c, 4, 44, 0
6, 35328, Note_on_c, 4, 45, 96
6, 36352, Note_off_c, 4, 45, 0
6, 36352, Note_on_c, 4, 33, 96
6, 36864, Note_off_c, 4, 33, 0
6, 36864, Note_on_c, 4, 40, 96
6, 38400, Note_off_c, 4, 40, 0
6, 47616, Note_on_c, 4, 40, 96
6, 48384, Note_off_c, 4, 40, 0
6, 48384, Note_on_c, 4, 38, 96
6, 48640, Note_off_c, 4, 38, 0
6, 48640, Note_on_c, 4, 40, 96
6, 49152, Note_off_c, 4, 40, 0
6, 49152, Note_on_c, 4, 36, 96
6, 49920, Note_off_c, 4, 36, 0
6, 49920, Note_on_c, 4, 40, 96
6, 50176, Note_off_c, 4, 40, 0
6, 50176, Note_on_c, 4, 43, 96
6, 50688, Note_off_c, 4, 43, 0
6, 50688, Note_on_c, 4, 43, 96
6, 51456, Note_off_c, 4, 43, 0
6, 51456, Note_on_c, 4, 42, 96
6, 51712, Note_off_c, 4, 42, 0
6, 51712, Note_on_c, 4, 43, 96
6, 52224, Note_off_c, 4, 43, 0
6, 52224, Note_on_c, 4, 31, 96
6, 52992, Note_off_c, 4, 31, 0
6, 52992, Note_on_c, 4, 35, 96
6, 53248, Note_off_c, 4, 35, 0
6, 53248, Note_on_c, 4, 38, 96
6, 53760, Note_off_c, 4, 38, 0
6, 53760, Note_on_c, 4, 38, 96
6, 54528, Note_off_c, 4, 38, 0
6, 54528, Note_on_c, 4, 37, 96
6, 54784, Note_off_c, 4, 37, 0
6, 54784, Note_on_c, 4, 38, 96
6, 55296, Note_off_c, 4, 38, 0
6, 55296, Note_on_c, 4, 28, 96
6, 56064, Note_off_c, 4, 28, 0
6, 56064, Note_on_c, 4, 37, 96
6, 56320, Note_off_c, 4, 37, 0
6, 56320, Note_on_c, 4, 38, 96
6, 56832, Note_off_c, 4, 38, 0
6, 56832, Note_on_c, 4, 31, 96
6, 57600, Note_off_c, 4, 31, 0
6, 57600, Note_on_c, 4, 28, 96
6, 57856, Note_off_c, 4, 28, 0
6, 57856, Note_on_c, 4, 33, 96
6, 58368, Note_off_c, 4, 33, 0
6, 58368, Note_on_c, 4, 26, 96
6, 59904, Note_off_c, 4, 26, 0
6, 69120, Note_on_c, 4, 40, 96
6, 69888, Note_off_c, 4, 40, 0
6, 69888, Note_on_c, 4, 42, 96
6, 70144, Note_off_c, 4, 42, 0
6, 70144, Note_on_c, 4, 43, 96
6, 70656, Note_off_c, 4, 43, 0
6, 70656, Note_on_c, 4, 45, 96
6, 71424, Note_off_c, 4, 45, 0
6, 71424, Note_on_c, 4, 42, 96
6, 71680, Note_off_c, 4, 42, 0
6, 71680, Note_on_c, 4, 47, 96
6, 72192, Note_off_c, 4, 47, 0
6, 72192, Note_on_c, 4, 43, 96
6, 72960, Note_off_c, 4, 43, 0
6, 72960, Note_on_c, 4, 40, 96
6, 73216, Note_off_c, 4, 40, 0
6, 73216, Note_on_c, 4, 45, 96
6, 73728, Note_off_c, 4, 45, 0
6, 73728, Note_on_c, 4, 42, 96
6, 74496, Note_off_c, 4, 42, 0
6, 74496, Note_on_c, 4, 36, 96
6, 74752, Note_off_c, 4, 36, 0
6, 74752, Note_on_c, 4, 43, 96
6, 75264, Note_off_c, 4, 43, 0
6, 75264, Note_on_c, 4, 36, 96
6, 76032, Note_off_c, 4, 36, 0
6, 76032, Note_on_c, 4, 40, 96
6, 76288, Note_off_c, 4, 40, 0
6, 76288, Note_on_c, 4, 43, 96
6, 76800, Note_off_c, 4, 43, 0
6, 76800, Note_on_c, 4, 43, 96
6, 77568, Note_off_c, 4, 43, 0
6, 77568, Note_on_c, 4, 42, 96
6, 77824, Note_off_c, 4, 42, 0
6, 77824, Note_on_c, 4, 43, 96
6, 78336, Note_off_c, 4, 43, 0
6, 78336, Note_on_c, 4, 36, 96
6, 79104, Note_off_c, 4, 36, 0
6, 79104, Note_on_c, 4, 33, 96
6, 79360, Note_off_c, 4, 33, 0
6, 79360, Note_on_c, 4, 38, 96
6, 79872, Note_off_c, 4, 38, 0
6, 79872, Note_on_c, 4, 31, 96
6, 82944, Note_off_c, 4, 31, 0
6, 92161, End_track
7, 0, Start_track
7, 0, Title_t, "Instrument 6"
7, 15360, Note_on_c, 5, 83, 96
7, 16384, Note_off_c, 5, 83, 0
7, 16384, Note_on_c, 5, 81, 96
7, 16896, Note_off_c, 5, 81, 0
7, 16896, Note_on_c, 5, 81, 96
7, 17920, Note_off_c, 5, 81, 0
7, 17920, Note_on_c, 5, 79, 96
7, 18432, Note_off_c, 5, 79, 0
7, 18432, Note_on_c, 5, 79, 96
7, 19200, Note_off_c, 5, 79, 0
7, 19200, Note_on_c, 5, 88, 96
7, 19456, Note_off_c, 5, 88, 0
7, 19456, Note_on_c, 5, 86, 96
7, 20736, Note_off_c, 5, 86, 0
7, 20736, Note_on_c, 5, 79, 96
7, 20992, Note_off_c, 5, 79, 0
7, 20992, Note_on_c, 5, 78, 96
7, 21504, Note_off_c, 5, 78, 0
7, 21504, Note_on_c, 5, 79, 96
7, 22272, Note_off_c, 5, 79, 0
7, 22272, Note_on_c, 5, 88, 96
7, 22528, Note_off_c, 5, 88, 0
7, 22528, Note_on_c, 5, 86, 96
7, 23808, Note_off_c, 5, 86, 0
7, 23808, Note_on_c, 5, 79, 96
7, 24064, Note_off_c, 5, 79, 0
7, 24064, Note_on_c, 5, 78, 96
7, 24576, Note_off_c, 5, 78, 0
7, 24576, Note_on_c, 5, 79, 96
7, 26112, Note_off_c, 5, 79, 0
7, 36864, Note_on_c, 5, 79, 96
7, 37888, Note_off_c, 5, 79, 0
7, 37888, Note_on_c, 5, 78, 96
7, 38400, Note_off_c, 5, 78, 0
7, 38400, Note_on_c, 5, 78, 96
7, 39424, Note_off_c, 5, 78, 0
7, 39424, Note_on_c, 5, 76, 96
7, 39936, Note_off_c, 5, 76, 0
7, 39936, Note_on_c, 5, 76, 96
7, 40704, Note_off_c, 5, 76, 0
7, 40704, Note_on_c, 5, 84, 96
7, 40960, Note_off_c, 5, 84, 0
7, 40960, Note_on_c, 5, 83, 96
7, 42240, Note_off_c, 5, 83, 0
7, 42240, Note_on_c, 5, 76, 96
7, 42496, Note_off_c, 5, 76, 0
7, 42496, Note_on_c, 5, 75, 96
7, 43008, Note_off_c, 5, 75, 0
7, 43008, Note_on_c, 5, 76, 96
7, 43776, Note_off_c, 5, 76, 0
7, 43776, Note_on_c, 5, 84, 96
7, 44032, Note_off_c, 5, 84, 0
7, 44032, Note_on_c, 5, 83, 96
7, 45312, Note_off_c, 5, 83, 0
7, 45312, Note_on_c, 5, 76, 96
7, 45568, Note_off_c, 5, 76, 0
7, 45568, Note_on_c, 5, 75, 96
7, 46080, Note_off_c, 5, 75, 0
7, 46080, Note_on_c, 5, 76, 96
7, 47616, Note_off_c, 5, 76, 0
7, 58368, Note_on_c, 5, 78, 96
7, 59392, Note_off_c, 5, 78, 0
7, 59392, Note_on_c, 5, 76, 96
7, 59904, Note_off_c, 5, 76, 0
7, 59904, Note_on_c, 5, 76, 96
7, 60928, Note_off_c, 5, 76, 0
7, 60928, Note_on_c, 5, 74, 96
7, 61440, Note_off_c, 5, 74, 0
7, 61440, Note_on_c, 5, 74, 96
7, 62208, Note_off_c, 5, 74, 0
7, 62208, Note_on_c, 5, 83, 96
7, 62464, Note_off_c, 5, 83, 0
7, 62464, Note_on_c, 5, 81, 96
7, 63744, Note_off_c, 5, 81, 0
7, 63744, Note_on_c, 5, 74, 96
7, 64000, Note_off_c, 5, 74, 0
7, 64000, Note_on_c, 5, 73, 96
7, 64512, Note_off_c, 5, 73, 0
7, 64512, Note_on_c, 5, 74, 96
7, 65280, Note_off_c, 5, 74, 0
7, 65280, Note_on_c, 5, 83, 96
7, 65536, Note_off_c, 5, 83, 0
7, 65536, Note_on_c, 5, 81, 96
7, 66816, Note_off_c, 5, 81, 0
7, 66816, Note_on_c, 5, 74, 96
7, 67072, Note_off_c, 5, 74, 0
7, 67072, Note_on_c, 5, 73, 96
7, 67584, Note_off_c, 5, 73, 0
7, 67584, Note_on_c, 5, 74, 96
7, 69120, Note_off_c, 5, 74, 0
7, 79872, Note_on_c, 5, 83, 96
7, 80896, Note_off_c, 5, 83, 0
7, 80896, Note_on_c, 5, 81, 96
7, 81408, Note_off_c, 5, 81, 0
7, 81408, Note_on_c, 5, 81, 96
7, 82432, Note_off_c, 5, 81, 0
7, 82432, Note_on_c, 5, 79, 96
7, 82944, Note_off_c, 5, 79, 0
7, 82944, Note_on_c, 5, 79, 96
7, 83712, Note_off_c, 5, 79, 0
7, 83712, Note_on_c, 5, 88, 96
7, 83968, Note_off_c, 5, 88, 0
7, 83968, Note_on_c, 5, 86, 96
7, 85248, Note_off_c, 5, 86, 0
7, 85248, Note_on_c, 5, 79, 96
7, 85504, Note_off_c, 5, 79, 0
7, 85504, Note_on_c, 5, 78, 96
7, 86016, Note_off_c, 5, 78, 0
7, 86016, Note_on_c, 5, 79, 96
7, 86784, Note_off_c, 5, 79, 0
7, 86784, Note_on_c, 5, 88, 96
7, 87040, Note_off_c, 5, 88, 0
7, 87040, Note_on_c, 5, 86, 96
7, 88320, Note_off_c, 5, 86, 0
7, 88320, Note_on_c, 5, 79, 96
7, 88576, Note_off_c, 5, 79, 0
7, 88576, Note_on_c, 5, 78, 96
7, 89088, Note_off_c, 5, 78, 0
7, 89088, Note_on_c, 5, 79, 96
7, 92160, Note_off_c, 5, 79, 0
7, 92161, End_track
8, 0, Start_track
8, 0, Title_t, "Instrument 7"
8, 15360, Note_on_c, 6, 71, 96
8, 15360, Note_on_c, 6, 67, 96
8, 16384, Note_off_c, 6, 71, 0
8, 16384, Note_on_c, 6, 69, 96
8, 16384, Note_off_c, 6, 67, 0
8, 16384, Note_on_c, 6, 66, 96
8, 16896, Note_off_c, 6, 69, 0
8, 16896, Note_on_c, 6, 69, 96
8, 16896, Note_off_c, 6, 66, 0
8, 16896, Note_on_c, 6, 66, 96
8, 17920, Note_off_c, 6, 69, 0
8, 17920, Note_on_c, 6, 67, 96
8, 17920, Note_off_c, 6, 66, 0
8, 17920, Note_on_c, 6, 62, 96
8, 18432, Note_off_c, 6, 67, 0
8, 18432, Note_off_c, 6, 62, 0
8, 18432, Note_on_c, 6, 67, 96
8, 18432, Note_on_c, 6, 62, 96
8, 19200, Note_off_c, 6, 67, 0
8, 19200, Note_on_c, 6, 76, 96
8, 19456, Note_off_c, 6, 76, 0
8, 19456, Note_on_c, 6, 74, 96
8, 19456, Note_off_c, 6, 62, 0
8, 19456, Note_on_c, 6, 66, 96
8, 19968, Note_off_c, 6, 66, 0
8, 19968, Note_on_c, 6, 67, 96
8, 20736, Note_off_c, 6, 74, 0
8, 20736, Note_on_c, 6, 67, 96
8, 20992, Note_off_c, 6, 67, 0
8, 20992, Note_on_c, 6, 66, 96
8, 20992, Note_off_c, 6, 67, 0
8, 20992, Note_on_c, 6, 60, 96
8, 21504, Note_off_c, 6, 66, 0
8, 21504, Note_on_c, 6, 67, 96
8, 21504, Note_off_c, 6, 60, 0
8, 21504, Note_on_c, 6, 62, 96
8, 22272, Note_off_c, 6, 67, 0
8, 22272, Note_on_c, 6, 76, 96
8, 22528, Note_off_c, 6, 76, 0
8, 22528, Note_on_c, 6, 74, 96
8, 22528, Note_off_c, 6, 62, 0
8, 22528, Note_on_c, 6, 66, 96
8, 23040, Note_off_c, 6, 66, 0
8, 23040, Note_on_c, 6, 67, 96
8, 23808, Note_off_c, 6, 74, 0
8, 23808, Note_on_c, 6, 67, 96
8, 24064, Note_off_c, 6, 67, 0
8, 24064, Note_on_c, 6, 66, 96
8, 24064, Note_off_c, 6, 67, 0
8, 24064, Note_on_c, 6, 60, 96
8, 24576, Note_off_c, 6, 66, 0
8, 24576, Note_off_c, 6, 60, 0
8, 24576, Note_on_c, 6, 67, 96
8, 24576, Note_on_c, 6, 62, 96
8, 26112, Note_off_c, 6, 67, 0
8, 26112, Note_off_c, 6, 62, 0
8, 36864, Note_on_c, 6, 71, 96
8, 36864, Note_on_c, 6, 64, 96
8, 37888, Note_off_c, 6, 71, 0
8, 37888, Note_on_c, 6, 75, 96
8, 37888, Note_off_c, 6, 64, 0
8, 37888, Note_on_c, 6, 66, 96
8, 38400, Note_off_c, 6, 75, 0
8, 38400, Note_on_c, 6, 75, 96
8, 38400, Note_off_c, 6, 66, 0
8, 38400, Note_on_c, 6, 66, 96
8, 39424, Note_off_c, 6, 75, 0
8, 39424, Note_on_c, 6, 76, 96
8, 39424, Note_off_c, 6, 66, 0
8, 39424, Note_on_c, 6, 67, 96
8, 39936, Note_off_c, 6, 76, 0
8, 39936, Note_on_c, 6, 76, 96
8, 39936, Note_off_c, 6, 67, 0
8, 39936, Note_on_c, 6, 67, 96
8, 40960, Note_off_c, 6, 76, 0
8, 40960, Note_on_c, 6, 79, 96
8, 40960, Note_off_c, 6, 67, 0
8, 40960, Note_on_c, 6, 76, 96
8, 41472, Note_off_c, 6, 79, 0
8, 41472, Note_on_c, 6, 78, 96
8, 41472, Note_off_c, 6, 76, 0
8, 41472, Note_on_c, 6, 75, 96
8, 42496, Note_off_c, 6, 78, 0
8, 42496, Note_on_c, 6, 81, 96
8, 42496, Note_off_c, 6, 75, 0
8, 42496, Note_on_c, 6, 78, 96
8, 43008, Note_off_c, 6, 81, 0
8, 43008, Note_off_c, 6, 78, 0
8, 43008, Note_on_c, 6, 79, 96
8, 43008, Note_on_c, 6, 71, 96
8, 44032, Note_off_c, 6, 79, 0
8, 44032, Note_on_c, 6, 76, 96
8, 44032, Note_off_c, 6, 71, 0
8, 44032, Note_on_c, 6, 67, 96
8, 44544, Note_off_c, 6, 76, 0
8, 44544, Note_on_c, 6, 75, 96
8, 44544, Note_off_c, 6, 67, 0
8, 44544, Note_on_c, 6, 66, 96
8, 45568, Note_off_c, 6, 75, 0
8, 45568, Note_on_c, 6, 78, 96
8, 45568, Note_off_c, 6, 66, 0
8, 45568, Note_on_c, 6, 69, 96
8, 46080, Note_off_c, 6, 78, 0
8, 46080, Note_on_c, 6, 76, 96
8, 46080, Note_off_c, 6, 69, 0
8, 46080, Note_on_c, 6, 67, 96
8, 47616, Note_off_c, 6, 76, 0
8, 47616, Note_off_c, 6, 67, 0
8, 58368, Note_on_c, 6, 81, 96
8, 58368, Note_on_c, 6, 66, 96
8, 59392, Note_off_c, 6, 81, 0
8, 59392, Note_on_c, 6, 79, 96
8, 59392, Note_off_c, 6, 66, 0
8, 59392, Note_on_c, 6, 64, 96
8, 59904, Note_off_c, 6, 79, 0
8, 59904, Note_on_c, 6, 79, 96
8, 59904, Note_off_c, 6, 64, 0
8, 59904, Note_on_c, 6, 64, 96
8, 60928, Note_off_c, 6, 79, 0
8, 60928, Note_on_c, 6, 78, 96
8, 60928, Note_off_c, 6, 64, 0
8, 60928, Note_on_c, 6, 62, 96
8, 61440, Note_off_c, 6, 78, 0
8, 61440, Note_off_c, 6, 62, 0
8, 61440, Note_on_c, 6, 78, 96
8, 61440, Note_on_c, 6, 62, 96
8, 62208, Note_off_c, 6, 62, 0
8, 62208, Note_on_c, 6, 71, 96
8, 62464, Note_off_c, 6, 78, 0
8, 62464, Note_on_c, 6, 73, 96
8, 62464, Note_off_c, 6, 71, 0
8, 62464, Note_on_c, 6, 69, 96
8, 62976, Note_off_c, 6, 73, 0
8, 62976, Note_on_c, 6, 74, 96
8, 63744, Note_off_c, 6, 69, 0
8, 63744, Note_on_c, 6, 62, 96
8, 64000, Note_off_c, 6, 74, 0
8, 64000, Note_on_c, 6, 79, 96
8, 64000, Note_off_c, 6, 62, 0
8, 64000, Note_on_c, 6, 61, 96
8, 64512, Note_off_c, 6, 79, 0
8, 64512, Note_on_c, 6, 78, 96
8, 64512, Note_off_c, 6, 61, 0
8, 64512, Note_on_c, 6, 62, 96
8, 65280, Note_off_c, 6, 62, 0
8, 65280, Note_on_c, 6, 71, 96
8, 65536, Note_off_c, 6, 78, 0
8, 65536, Note_on_c, 6, 73, 96
8, 65536, Note_off_c, 6, 71, 0
8, 65536, Note_on_c, 6, 69, 96
8, 66048, Note_off_c, 6, 73, 0
8, 66048, Note_on_c, 6, 74, 96
8, 66816, Note_off_c, 6, 69, 0
8, 66816, Note_on_c, 6, 62, 96
8, 67072, Note_off_c, 6, 74, 0
8, 67072, Note_on_c, 6, 67, 96
8, 67072, Note_off_c, 6, 62, 0
8, 67072, Note_on_c, 6, 60, 96
8, 67584, Note_off_c, 6, 67, 0
8, 67584, Note_off_c, 6, 60, 0
8, 67584, Note_on_c, 6, 66, 96
8, 67584, Note_on_c, 6, 62, 96
8, 69120, Note_off_c, 6, 66, 0
8, 69120, Note_off_c, 6, 62, 0
8, 79872, Note_on_c, 6, 71, 96
8, 79872, Note_on_c, 6, 67, 96
8, 80896, Note_off_c, 6, 71, 0
8, 80896, Note_on_c, 6, 69, 96
8, 80896, Note_off_c, 6, 67, 0
8, 80896, Note_on_c, 6, 66, 96
8, 81408, Note_off_c, 6, 69, 0
8, 81408, Note_on_c, 6, 69, 96
8, 81408, Note_off_c, 6, 66, 0
8, 81408, Note_on_c, 6, 66, 96
8, 82432, Note_off_c, 6, 69, 0
8, 82432, Note_on_c, 6, 67, 96
8, 82432, Note_off_c, 6, 66, 0
8, 82432, Note_on_c, 6, 62, 96
8, 82944, Note_off_c, 6, 67, 0
8, 82944, Note_on_c, 6, 67, 96
8, 82944, Note_off_c, 6, 62, 0
8, 82944, Note_on_c, 6, 62, 96
8, 83712, Note_off_c, 6, 67, 0
8, 83712, Note_on_c, 6, 76, 96
8, 83968, Note_off_c, 6, 76, 0
8, 83968, Note_on_c, 6, 74, 96
8, 83968, Note_off_c, 6, 62, 0
8, 83968, Note_on_c, 6, 66, 96
8, 84480, Note_off_c, 6, 66, 0
8, 84480, Note_on_c, 6, 67, 96
8, 85248, Note_off_c, 6, 74, 0
8, 85248, Note_on_c, 6, 67, 96
8, 85504, Note_off_c, 6, 67, 0
8, 85504, Note_on_c, 6, 66, 96
8, 85504, Note_off_c, 6, 67, 0
8, 85504, Note_on_c, 6, 60, 96
8, 86016, Note_off_c, 6, 66, 0
8, 86016, Note_off_c, 6, 60, 0
8, 86016, Note_on_c, 6, 67, 96
8, 86016, Note_on_c, 6, 62, 96
8, 86784, Note_off_c, 6, 67, 0
8, 86784, Note_on_c, 6, 76, 96
8, 87040, Note_off_c, 6, 76, 0
8, 87040, Note_on_c, 6, 74, 96
8, 87040, Note_off_c, 6, 62, 0
8, 87040, Note_on_c, 6, 66, 96
8, 87552, Note_off_c, 6, 66, 0
8, 87552, Note_on_c, 6, 67, 96
8, 88320, Note_off_c, 6, 74, 0
8, 88320, Note_on_c, 6, 67, 96
8, 88576, Note_off_c, 6, 67, 0
8, 88576, Note_on_c, 6, 66, 96
8, 88576, Note_off_c, 6, 67, 0
8, 88576, Note_on_c, 6, 60, 96
8, 89088, Note_off_c, 6, 66, 0
8, 89088, Note_on_c, 6, 67, 96
8, 89088, Note_off_c, 6, 60, 0
8, 89088, Note_on_c, 6, 62, 96
8, 92160, Note_off_c, 6, 67, 0
8, 92160, Note_off_c, 6, 62, 0
8, 92161, End_track
9, 0, Start_track
9, 0, Title_t, "Instrument 8"
9, 15360, Note_on_c, 7, 62, 96
9, 15360, Note_on_c, 7, 55, 96
9, 16384, Note_off_c, 7, 62, 0
9, 16384, Note_on_c, 7, 60, 96
9, 16896, Note_off_c, 7, 60, 0
9, 16896, Note_on_c, 7, 60, 96
9, 17920, Note_off_c, 7, 60, 0
9, 17920, Note_on_c, 7, 59, 96
9, 18432, Note_off_c, 7, 59, 0
9, 18432, Note_on_c, 7, 59, 96
9, 19456, Note_off_c, 7, 59, 0
9, 19456, Note_on_c, 7, 60, 96
9, 19968, Note_off_c, 7, 60, 0
9, 19968, Note_on_c, 7, 59, 96
9, 20992, Note_off_c, 7, 59, 0
9, 20992, Note_on_c, 7, 57, 96
9, 21504, Note_off_c, 7, 57, 0
9, 21504, Note_on_c, 7, 59, 96
9, 22528, Note_off_c, 7, 59, 0
9, 22528, Note_on_c, 7, 60, 96
9, 23040, Note_off_c, 7, 60, 0
9, 23040, Note_on_c, 7, 59, 96
9, 24064, Note_off_c, 7, 59, 0
9, 24064, Note_on_c, 7, 57, 96
9, 24576, Note_off_c, 7, 57, 0
9, 24576, Note_on_c, 7, 59, 96
9, 26112, Note_off_c, 7, 59, 0
9, 26112, Note_off_c, 7, 55, 0
9, 36864, Note_on_c, 7, 67, 96
9, 36864, Note_on_c, 7, 64, 96
9, 37888, Note_off_c, 7, 67, 0
9, 37888, Note_on_c, 7, 66, 96
9, 38400, Note_off_c, 7, 66, 0
9, 38400, Note_on_c, 7, 66, 96
9, 39424, Note_off_c, 7, 66, 0
9, 39424, Note_on_c, 7, 64, 96
9, 39936, Note_off_c, 7, 64, 0
9, 39936, Note_on_c, 7, 64, 96
9, 40704, Note_off_c, 7, 64, 0
9, 40704, Note_on_c, 7, 72, 96
9, 40960, Note_off_c, 7, 72, 0
9, 40960, Note_on_c, 7, 71, 96
9, 42240, Note_off_c, 7, 71, 0
9, 42240, Note_on_c, 7, 64, 96
9, 42496, Note_off_c, 7, 64, 0
9, 42496, Note_on_c, 7, 63, 96
9, 43008, Note_off_c, 7, 63, 0
9, 43008, Note_on_c, 7, 64, 96
9, 43776, Note_off_c, 7, 64, 0
9, 43776, Note_on_c, 7, 72, 96
9, 44032, Note_off_c, 7, 72, 0
9, 44032, Note_on_c, 7, 71, 96
9, 45312, Note_off_c, 7, 71, 0
9, 45312, Note_on_c, 7, 64, 96
9, 45568, Note_off_c, 7, 64, 0
9, 45568, Note_on_c, 7, 63, 96
9, 46080, Note_off_c, 7, 63, 0
9, 46080, Note_on_c, 7, 64, 96
9, 47616, Note_off_c, 7, 64, 0
9, 47616, Note_off_c, 7, 64, 0
9, 58368, Note_on_c, 7, 69, 96
9, 58368, Note_on_c, 7, 62, 96
9, 59392, Note_off_c, 7, 69, 0
9, 59392, Note_on_c, 7, 73, 96
9, 59904, Note_off_c, 7, 73, 0
9, 59904, Note_on_c, 7, 73, 96
9, 60928, Note_off_c, 7, 73, 0
9, 60928, Note_on_c, 7, 74, 96
9, 61440, Note_off_c, 7, 74, 0
9, 61440, Note_on_c, 7, 74, 96
9, 62464, Note_off_c, 7, 74, 0
9, 62464, Note_on_c, 7, 67, 96
9, 62976, Note_off_c, 7, 67, 0
9, 62976, Note_on_c, 7, 66, 96
9, 64000, Note_off_c, 7, 66, 0
9, 64000, Note_on_c, 7, 64, 96
9, 64512, Note_off_c, 7, 64, 0
9, 64512, Note_on_c, 7, 62, 96
9, 65536, Note_off_c, 7, 62, 0
9, 65536, Note_on_c, 7, 67, 96
9, 66048, Note_off_c, 7, 67, 0
9, 66048, Note_on_c, 7, 66, 96
9, 67072, Note_off_c, 7, 66, 0
9, 67072, Note_on_c, 7, 64, 96
9, 67584, Note_off_c, 7, 64, 0
9, 67584, Note_on_c, 7, 62, 96
9, 69120, Note_off_c, 7, 62, 0
9, 69120, Note_off_c, 7, 62, 0
9, 79872, Note_on_c, 7, 62, 96
9, 79872, Note_on_c, 7, 55, 96
9, 80896, Note_off_c, 7, 62, 0
9, 80896, Note_on_c, 7, 60, 96
9, 81408, Note_off_c, 7, 60, 0
9, 81408, Note_on_c, 7, 60, 96
9, 82432, Note_off_c, 7, 60, 0
9, 82432, Note_on_c, 7, 59, 96
9, 82944, Note_off_c, 7, 59, 0
9, 82944, Note_on_c, 7, 59, 96
9, 83968, Note_off_c, 7, 59, 0
9, 83968, Note_on_c, 7, 60, 96
9, 84480, Note_off_c, 7, 60, 0
9, 84480, Note_on_c, 7, 59, 96
9, 85504, Note_off_c, 7, 59, 0
9, 85504, Note_on_c, 7, 57, 96
9, 86016, Note_off_c, 7, 57, 0
9, 86016, Note_on_c, 7, 59, 96
9, 87040, Note_off_c, 7, 59, 0
9, 87040, Note_on_c, 7, 60, 96
9, 87552, Note_off_c, 7, 60, 0
9, 87552, Note_on_c, 7, 59, 96
9, 88576, Note_off_c, 7, 59, 0
9, 88576, Note_on_c, 7, 57, 96
9, 89088, Note_off_c, 7, 57, 0
9, 89088, Note_on_c, 7, 59, 96
9, 92160, Note_off_c, 7, 59, 0
9, 92160, Note_off_c, 7, 55, 0
9, 92161, End_track
0, 0, End_of_file
